  0
SECTION
  2
HEADER
  9
$ACADVER
  1
AC1032
  9
$ACADMAINTVER
 90
4
  9
$DWGCODEPAGE
  3
ANSI_1252
  9
$LASTSAVEDBY
  1
ezdxf
  9
$REQUIREDVERSIONS
160
0
  9
$INSBASE
 10
0.0
 20
0.0
 30
0.0
  9
$EXTMIN
 10
1e+20
 20
1e+20
 30
1e+20
  9
$EXTMAX
 10
-1e+20
 20
-1e+20
 30
-1e+20
  9
$LIMMIN
 10
0.0
 20
0.0
  9
$LIMMAX
 10
420.0
 20
297.0
  9
$ORTHOMODE
 70
0
  9
$REGENMODE
 70
1
  9
$FILLMODE
 70
1
  9
$QTEXTMODE
 70
0
  9
$MIRRTEXT
 70
1
  9
$LTSCALE
 40
1.0
  9
$ATTMODE
 70
1
  9
$TEXTSIZE
 40
2.5
  9
$TRACEWID
 40
1.0
  9
$TEXTSTYLE
  7
Standard
  9
$CLAYER
  8
0
  9
$CELTYPE
  6
ByLayer
  9
$CECOLOR
 62
256
  9
$CELTSCALE
 40
1.0
  9
$DISPSILH
 70
0
  9
$DIMSCALE
 40
1.0
  9
$DIMASZ
 40
2.5
  9
$DIMEXO
 40
0.625
  9
$DIMDLI
 40
3.75
  9
$DIMRND
 40
0.0
  9
$DIMDLE
 40
0.0
  9
$DIMEXE
 40
1.25
  9
$DIMTP
 40
0.0
  9
$DIMTM
 40
0.0
  9
$DIMTXT
 40
2.5
  9
$DIMCEN
 40
2.5
  9
$DIMTSZ
 40
0.0
  9
$DIMTOL
 70
0
  9
$DIMLIM
 70
0
  9
$DIMTIH
 70
0
  9
$DIMTOH
 70
0
  9
$DIMSE1
 70
0
  9
$DIMSE2
 70
0
  9
$DIMTAD
 70
1
  9
$DIMZIN
 70
8
  9
$DIMBLK
  1

  9
$DIMASO
 70
1
  9
$DIMSHO
 70
1
  9
$DIMPOST
  1

  9
$DIMAPOST
  1

  9
$DIMALT
 70
0
  9
$DIMALTD
 70
3
  9
$DIMALTF
 40
0.03937007874
  9
$DIMLFAC
 40
1.0
  9
$DIMTOFL
 70
1
  9
$DIMTVP
 40
0.0
  9
$DIMTIX
 70
0
  9
$DIMSOXD
 70
0
  9
$DIMSAH
 70
0
  9
$DIMBLK1
  1

  9
$DIMBLK2
  1

  9
$DIMSTYLE
  2
ISO-25
  9
$DIMCLRD
 70
0
  9
$DIMCLRE
 70
0
  9
$DIMCLRT
 70
0
  9
$DIMTFAC
 40
1.0
  9
$DIMGAP
 40
0.625
  9
$DIMJUST
 70
0
  9
$DIMSD1
 70
0
  9
$DIMSD2
 70
0
  9
$DIMTOLJ
 70
0
  9
$DIMTZIN
 70
8
  9
$DIMALTZ
 70
0
  9
$DIMALTTZ
 70
0
  9
$DIMUPT
 70
0
  9
$DIMDEC
 70
2
  9
$DIMTDEC
 70
2
  9
$DIMALTU
 70
2
  9
$DIMALTTD
 70
3
  9
$DIMTXSTY
  7
Standard
  9
$DIMAUNIT
 70
0
  9
$DIMADEC
 70
0
  9
$DIMALTRND
 40
0.0
  9
$DIMAZIN
 70
0
  9
$DIMDSEP
 70
44
  9
$DIMATFIT
 70
3
  9
$DIMFRAC
 70
0
  9
$DIMLDRBLK
  1

  9
$DIMLUNIT
 70
2
  9
$DIMLWD
 70
-2
  9
$DIMLWE
 70
-2
  9
$DIMTMOVE
 70
0
  9
$DIMFXL
 40
1.0
  9
$DIMFXLON
 70
0
  9
$DIMJOGANG
 40
0.785398163397
  9
$DIMTFILL
 70
0
  9
$DIMTFILLCLR
 70
0
  9
$DIMARCSYM
 70
0
  9
$DIMLTYPE
  6

  9
$DIMLTEX1
  6

  9
$DIMLTEX2
  6

  9
$DIMTXTDIRECTION
 70
0
  9
$LUNITS
 70
2
  9
$LUPREC
 70
4
  9
$SKETCHINC
 40
1.0
  9
$FILLETRAD
 40
10.0
  9
$AUNITS
 70
0
  9
$AUPREC
 70
2
  9
$MENU
  1
.
  9
$ELEVATION
 40
0.0
  9
$PELEVATION
 40
0.0
  9
$THICKNESS
 40
0.0
  9
$LIMCHECK
 70
0
  9
$CHAMFERA
 40
0.0
  9
$CHAMFERB
 40
0.0
  9
$CHAMFERC
 40
0.0
  9
$CHAMFERD
 40
0.0
  9
$SKPOLY
 70
0
  9
$TDCREATE
 40
2461308.0405555554
  9
$TDUCREATE
 40
2458532.153996898
  9
$TDUPDATE
 40
2461308.0405555554
  9
$TDUUPDATE
 40
2458532.1544311
  9
$TDINDWG
 40
0.0
  9
$TDUSRTIMER
 40
0.0
  9
$USRTIMER
 70
1
  9
$ANGBASE
 50
0.0
  9
$ANGDIR
 70
0
  9
$PDMODE
 70
0
  9
$PDSIZE
 40
0.0
  9
$PLINEWID
 40
0.0
  9
$SPLFRAME
 70
0
  9
$SPLINETYPE
 70
6
  9
$SPLINESEGS
 70
8
  9
$HANDSEED
  5
196
  9
$SURFTAB1
 70
6
  9
$SURFTAB2
 70
6
  9
$SURFTYPE
 70
6
  9
$SURFU
 70
6
  9
$SURFV
 70
6
  9
$UCSBASE
  2

  9
$UCSNAME
  2

  9
$UCSORG
 10
0.0
 20
0.0
 30
0.0
  9
$UCSXDIR
 10
1.0
 20
0.0
 30
0.0
  9
$UCSYDIR
 10
0.0
 20
1.0
 30
0.0
  9
$UCSORTHOREF
  2

  9
$UCSORTHOVIEW
 70
0
  9
$UCSORGTOP
 10
0.0
 20
0.0
 30
0.0
  9
$UCSORGBOTTOM
 10
0.0
 20
0.0
 30
0.0
  9
$UCSORGLEFT
 10
0.0
 20
0.0
 30
0.0
  9
$UCSORGRIGHT
 10
0.0
 20
0.0
 30
0.0
  9
$UCSORGFRONT
 10
0.0
 20
0.0
 30
0.0
  9
$UCSORGBACK
 10
0.0
 20
0.0
 30
0.0
  9
$PUCSBASE
  2

  9
$PUCSNAME
  2

  9
$PUCSORG
 10
0.0
 20
0.0
 30
0.0
  9
$PUCSXDIR
 10
1.0
 20
0.0
 30
0.0
  9
$PUCSYDIR
 10
0.0
 20
1.0
 30
0.0
  9
$PUCSORTHOREF
  2

  9
$PUCSORTHOVIEW
 70
0
  9
$PUCSORGTOP
 10
0.0
 20
0.0
 30
0.0
  9
$PUCSORGBOTTOM
 10
0.0
 20
0.0
 30
0.0
  9
$PUCSORGLEFT
 10
0.0
 20
0.0
 30
0.0
  9
$PUCSORGRIGHT
 10
0.0
 20
0.0
 30
0.0
  9
$PUCSORGFRONT
 10
0.0
 20
0.0
 30
0.0
  9
$PUCSORGBACK
 10
0.0
 20
0.0
 30
0.0
  9
$USERI1
 70
0
  9
$USERI2
 70
0
  9
$USERI3
 70
0
  9
$USERI4
 70
0
  9
$USERI5
 70
0
  9
$USERR1
 40
0.0
  9
$USERR2
 40
0.0
  9
$USERR3
 40
0.0
  9
$USERR4
 40
0.0
  9
$USERR5
 40
0.0
  9
$WORLDVIEW
 70
1
  9
$SHADEDGE
 70
3
  9
$SHADEDIF
 70
70
  9
$TILEMODE
 70
1
  9
$MAXACTVP
 70
64
  9
$PINSBASE
 10
0.0
 20
0.0
 30
0.0
  9
$PLIMCHECK
 70
0
  9
$PEXTMIN
 10
1e+20
 20
1e+20
 30
1e+20
  9
$PEXTMAX
 10
-1e+20
 20
-1e+20
 30
-1e+20
  9
$PLIMMIN
 10
0.0
 20
0.0
  9
$PLIMMAX
 10
420.0
 20
297.0
  9
$UNITMODE
 70
0
  9
$VISRETAIN
 70
1
  9
$PLINEGEN
 70
0
  9
$PSLTSCALE
 70
1
  9
$TREEDEPTH
 70
3020
  9
$CMLSTYLE
  2
Standard
  9
$CMLJUST
 70
0
  9
$CMLSCALE
 40
20.0
  9
$PROXYGRAPHICS
 70
1
  9
$MEASUREMENT
 70
1
  9
$CELWEIGHT
370
-1
  9
$ENDCAPS
280
0
  9
$JOINSTYLE
280
0
  9
$LWDISPLAY
290
0
  9
$INSUNITS
 70
1
  9
$HYPERLINKBASE
  1

  9
$STYLESHEET
  1

  9
$XEDIT
290
1
  9
$CEPSNTYPE
380
0
  9
$PSTYLEMODE
290
1
  9
$FINGERPRINTGUID
  2
{6C2612A9-9C2D-4398-B093-45A550DE6835}
  9
$VERSIONGUID
  2
{1712D727-438D-427B-879E-77CE0BB6C1FF}
  9
$EXTNAMES
290
1
  9
$PSVPSCALE
 40
0.0
  9
$OLESTARTUP
290
0
  9
$SORTENTS
280
127
  9
$INDEXCTL
280
0
  9
$HIDETEXT
280
1
  9
$XCLIPFRAME
280
1
  9
$HALOGAP
280
0
  9
$OBSCOLOR
 70
257
  9
$OBSLTYPE
280
0
  9
$INTERSECTIONDISPLAY
280
0
  9
$INTERSECTIONCOLOR
 70
257
  9
$DIMASSOC
280
2
  9
$PROJECTNAME
  1

  9
$CAMERADISPLAY
290
0
  9
$LENSLENGTH
 40
50.0
  9
$CAMERAHEIGHT
 40
0.0
  9
$STEPSPERSEC
 40
24.0
  9
$STEPSIZE
 40
100.0
  9
$3DDWFPREC
 40
2.0
  9
$PSOLWIDTH
 40
0.005
  9
$PSOLHEIGHT
 40
0.08
  9
$LOFTANG1
 40
1.570796326795
  9
$LOFTANG2
 40
1.570796326795
  9
$LOFTMAG1
 40
0.0
  9
$LOFTMAG2
 40
0.0
  9
$LOFTPARAM
 70
7
  9
$LOFTNORMALS
280
1
  9
$LATITUDE
 40
37.795
  9
$LONGITUDE
 40
-122.394
  9
$NORTHDIRECTION
 40
0.0
  9
$TIMEZONE
 70
-8000
  9
$LIGHTGLYPHDISPLAY
280
1
  9
$TILEMODELIGHTSYNCH
280
1
  9
$CMATERIAL
347
20
  9
$SOLIDHIST
280
0
  9
$SHOWHIST
280
1
  9
$DWFFRAME
280
2
  9
$DGNFRAME
280
2
  9
$REALWORLDSCALE
290
1
  9
$INTERFERECOLOR
 62
256
  9
$CSHADOW
280
0
  9
$SHADOWPLANELOCATION
 40
0.0
  0
ENDSEC
  0
SECTION
  2
CLASSES
  0
CLASS
  1
ACDBDICTIONARYWDFLT
  2
AcDbDictionaryWithDefault
  3
ObjectDBX Classes
 90
0
 91
0
280
0
281
0
  0
CLASS
  1
SUN
  2
AcDbSun
  3
SCENEOE
 90
1153
 91
0
280
0
281
0
  0
CLASS
  1
VISUALSTYLE
  2
AcDbVisualStyle
  3
ObjectDBX Classes
 90
4095
 91
0
280
0
281
0
  0
CLASS
  1
MATERIAL
  2
AcDbMaterial
  3
ObjectDBX Classes
 90
1153
 91
0
280
0
281
0
  0
CLASS
  1
SCALE
  2
AcDbScale
  3
ObjectDBX Classes
 90
1153
 91
0
280
0
281
0
  0
CLASS
  1
TABLESTYLE
  2
AcDbTableStyle
  3
ObjectDBX Classes
 90
4095
 91
0
280
0
281
0
  0
CLASS
  1
MLEADERSTYLE
  2
AcDbMLeaderStyle
  3
ACDB_MLEADERSTYLE_CLASS
 90
4095
 91
0
280
0
281
0
  0
CLASS
  1
DICTIONARYVAR
  2
AcDbDictionaryVar
  3
ObjectDBX Classes
 90
0
 91
0
280
0
281
0
  0
CLASS
  1
CELLSTYLEMAP
  2
AcDbCellStyleMap
  3
ObjectDBX Classes
 90
1152
 91
0
280
0
281
0
  0
CLASS
  1
MENTALRAYRENDERSETTINGS
  2
AcDbMentalRayRenderSettings
  3
SCENEOE
 90
1024
 91
0
280
0
281
0
  0
CLASS
  1
ACDBDETAILVIEWSTYLE
  2
AcDbDetailViewStyle
  3
ObjectDBX Classes
 90
1025
 91
0
280
0
281
0
  0
CLASS
  1
ACDBSECTIONVIEWSTYLE
  2
AcDbSectionViewStyle
  3
ObjectDBX Classes
 90
1025
 91
0
280
0
281
0
  0
CLASS
  1
RASTERVARIABLES
  2
AcDbRasterVariables
  3
ISM
 90
0
 91
0
280
0
281
0
  0
CLASS
  1
ACDBPLACEHOLDER
  2
AcDbPlaceHolder
  3
ObjectDBX Classes
 90
0
 91
0
280
0
281
0
  0
CLASS
  1
LAYOUT
  2
AcDbLayout
  3
ObjectDBX Classes
 90
0
 91
0
280
0
281
0
  0
ENDSEC
  0
SECTION
  2
TABLES
  0
TABLE
  2
VPORT
  5
8
330
0
100
AcDbSymbolTable
 70
1
  0
VPORT
  5
23
330
8
100
AcDbSymbolTableRecord
100
AcDbViewportTableRecord
  2
*Active
 70
0
 10
0.0
 20
0.0
 11
1.0
 21
1.0
 12
0.0
 22
0.0
 13
0.0
 23
0.0
 14
0.5
 24
0.5
 15
0.5
 25
0.5
 16
0.0
 26
0.0
 36
1.0
 17
0.0
 27
0.0
 37
0.0
 40
1000.0
 41
1.34
 42
50.0
 43
0.0
 44
0.0
 50
0.0
 51
0.0
 71
0
 72
1000
 73
1
 74
3
 75
0
 76
0
 77
0
 78
0
281
0
 65
0
146
0.0
  0
ENDTAB
  0
TABLE
  2
LTYPE
  5
2
330
0
100
AcDbSymbolTable
 70
3
  0
LTYPE
  5
24
330
2
100
AcDbSymbolTableRecord
100
AcDbLinetypeTableRecord
  2
ByBlock
 70
0
  3

 72
65
 73
0
 40
0.0
  0
LTYPE
  5
25
330
2
100
AcDbSymbolTableRecord
100
AcDbLinetypeTableRecord
  2
ByLayer
 70
0
  3

 72
65
 73
0
 40
0.0
  0
LTYPE
  5
26
330
2
100
AcDbSymbolTableRecord
100
AcDbLinetypeTableRecord
  2
Continuous
 70
0
  3

 72
65
 73
0
 40
0.0
  0
ENDTAB
  0
TABLE
  2
LAYER
  5
1
330
0
100
AcDbSymbolTable
 70
2
  0
LAYER
  5
27
330
1
100
AcDbSymbolTableRecord
100
AcDbLayerTableRecord
  2
0
 70
0
 62
7
  6
Continuous
370
-3
390
13
347
21
  0
LAYER
  5
28
330
1
100
AcDbSymbolTableRecord
100
AcDbLayerTableRecord
  2
Defpoints
 70
0
 62
7
  6
Continuous
290
0
370
-3
390
13
347
21
  0
ENDTAB
  0
TABLE
  2
STYLE
  5
5
330
0
100
AcDbSymbolTable
 70
2
  0
STYLE
  5
29
330
5
100
AcDbSymbolTableRecord
100
AcDbTextStyleTableRecord
  2
Standard
 70
0
 40
0.0
 41
1.0
 50
0.0
 71
0
 42
2.5
  3
txt
  4

  0
STYLE
  5
190
330
5
100
AcDbSymbolTableRecord
100
AcDbTextStyleTableRecord
  2
ss
 70
0
 40
2.5
 41
1.0
 50
0.0
 71
0
 42
2.5
  3
romans.shx
  4
gsg1.shx
  0
ENDTAB
  0
TABLE
  2
VIEW
  5
7
330
0
100
AcDbSymbolTable
 70
0
  0
ENDTAB
  0
TABLE
  2
UCS
  5
6
330
0
100
AcDbSymbolTable
 70
0
  0
ENDTAB
  0
TABLE
  2
APPID
  5
3
330
0
100
AcDbSymbolTable
 70
3
  0
APPID
  5
2A
330
3
100
AcDbSymbolTableRecord
100
AcDbRegAppTableRecord
  2
ACAD
 70
0
  0
APPID
  5
193
330
3
100
AcDbSymbolTableRecord
100
AcDbRegAppTableRecord
  2
HATCHBACKGROUNDCOLOR
 70
0
  0
APPID
  5
194
330
3
100
AcDbSymbolTableRecord
100
AcDbRegAppTableRecord
  2
EZDXF
 70
0
  0
ENDTAB
  0
TABLE
  2
DIMSTYLE
  5
4
330
0
100
AcDbSymbolTable
 70
1
100
AcDbDimStyleTable
  0
DIMSTYLE
105
2B
330
4
100
AcDbSymbolTableRecord
100
AcDbDimStyleTableRecord
  2
Standard
 70
0
 40
1.0
 41
2.5
 42
0.625
 43
3.75
 44
1.25
 45
0.0
 46
0.0
 47
0.0
 48
0.0
 49
2.5
140
2.5
141
2.5
142
0.0
143
0.03937007874
144
1.0
145
0.0
146
1.0
147
0.625
148
0.0
 69
0
 70
0
 71
0
 72
0
 73
0
 74
0
 75
0
 76
0
 77
1
 78
8
 79
3
170
0
171
3
172
1
173
0
174
0
175
0
176
0
177
0
178
0
179
2
271
2
272
2
273
2
274
3
275
0
276
0
277
2
278
44
279
0
280
0
281
0
282
0
283
0
284
8
285
0
286
0
288
0
289
3
290
0
371
-2
372
-2
  0
ENDTAB
  0
TABLE
  2
BLOCK_RECORD
  5
9
330
0
100
AcDbSymbolTable
 70
3
  0
BLOCK_RECORD
  5
17
330
9
100
AcDbSymbolTableRecord
100
AcDbBlockTableRecord
  2
*Model_Space
340
1A
 70
0
280
1
281
0
  0
BLOCK_RECORD
  5
1B
330
9
100
AcDbSymbolTableRecord
100
AcDbBlockTableRecord
  2
*Paper_Space
340
1E
 70
0
280
1
281
0
  0
BLOCK_RECORD
  5
2F
330
9
100
AcDbSymbolTableRecord
100
AcDbBlockTableRecord
  2
MC 185a
340
0
 70
0
280
1
281
0
  0
ENDTAB
  0
ENDSEC
  0
SECTION
  2
BLOCKS
  0
BLOCK
  5
18
330
17
100
AcDbEntity
  8
0
100
AcDbBlockBegin
  2
*Model_Space
 70
0
 10
0.0
 20
0.0
 30
0.0
  3
*Model_Space
  1

  0
ENDBLK
  5
19
330
17
100
AcDbEntity
  8
0
100
AcDbBlockEnd
  0
BLOCK
  5
1C
330
1B
100
AcDbEntity
  8
0
100
AcDbBlockBegin
  2
*Paper_Space
 70
0
 10
0.0
 20
0.0
 30
0.0
  3
*Paper_Space
  1

  0
ENDBLK
  5
1D
330
1B
100
AcDbEntity
  8
0
100
AcDbBlockEnd
  0
BLOCK
  5
30
330
2F
100
AcDbEntity
  8
0
100
AcDbBlockBegin
  2
MC 185a
 70
0
 10
0.0
 20
0.0
 30
0.0
  3
MC 185a
  1

  0
LWPOLYLINE
  5
32
330
2F
100
AcDbEntity
  8
0
 62
7
100
AcDbPolyline
 90
2
 70
0
 10
3216.888986956949
 20
458.1851520572451
 10
3182.587819947043
 20
458.1851520572451
  0
LWPOLYLINE
  5
33
330
2F
100
AcDbEntity
  8
0
 62
7
100
AcDbPolyline
 90
2
 70
0
 10
3172.474649406688
 20
458.1851520572451
 10
3145.101402373246
 20
458.1851520572451
  0
LWPOLYLINE
  5
34
330
2F
100
AcDbEntity
  8
0
 62
7
100
AcDbPolyline
 90
10
 70
0
 10
3134.809061488673
 20
458.1851520572451
 10
3132.728694714131
 20
458.1851520572451
 42
-0.4142135623730951
 10
3130.976806903991
 20
459.9370398673853
 10
3130.976806903991
 20
659.3237712589711
 42
-0.4142135623730951
 10
3132.728694714131
 20
661.0756590691112
 10
3266.748112189859
 20
661.0756590691112
 42
-0.4142135623730951
 10
3268.5
 20
659.3237712589711
 10
3268.5
 20
459.9370398673853
 42
-0.4142135623730951
 10
3266.748112189859
 20
458.1851520572451
 10
3264.667745415318
 20
458.1851520572451
  0
LWPOLYLINE
  5
35
330
2F
100
AcDbEntity
  8
0
 62
7
100
AcDbPolyline
 90
2
 70
0
 10
3254.375404530744
 20
458.1851520572451
 10
3227.002157497303
 20
458.1851520572451
  0
LWPOLYLINE
  5
36
330
2F
100
AcDbEntity
  8
0
 62
7
100
AcDbPolyline
 90
4
 70
1
 10
3140.940668824164
 20
654.177600816684
 10
3166.12405609493
 20
654.177600816684
 10
3166.12405609493
 20
626.2568888425741
 10
3140.940668824164
 20
626.2568888425741
  0
LINE
  5
37
330
2F
100
AcDbEntity
  8
0
 62
7
100
AcDbLine
 10
3140.940668824164
 20
646.5130916473206
 30
0.0
 11
3140.940668824164
 21
646.5130916473206
 31
0.0
  0
LINE
  5
38
330
2F
100
AcDbEntity
  8
0
 62
7
100
AcDbLine
 10
3140.940668824164
 20
646.5130916473206
 30
0.0
 11
3135.247033441209
 21
646.5130916473206
 31
0.0
  0
ARC
  5
39
330
2F
100
AcDbEntity
  8
0
 62
7
100
AcDbCircle
 10
3135.666756562388
 20
641.4216676991003
 30
0.0
 40
5.108695070070377
100
AcDbArc
 50
94.71265168980464
 51
156.6401647539283
  0
ARC
  5
3A
330
2F
100
AcDbEntity
  8
0
 62
7
100
AcDbCircle
 10
3139.95523193096
 20
654.615572769219
 30
0.0
 40
3.748436118695371
100
AcDbArc
 50
353.2901631922408
 51
285.2417805650797
  0
CIRCLE
  5
3B
330
2F
100
AcDbEntity
  8
0
 62
7
100
AcDbCircle
 10
3177.511326860841
 20
654.615572769219
 30
0.0
 40
3.748436118695371
  0
CIRCLE
  5
3C
330
2F
100
AcDbEntity
  8
0
 62
7
100
AcDbCircle
 10
3153.641855447681
 20
641.5859071813009
 30
0.0
 40
5.365156418554476
  0
LWPOLYLINE
  5
3D
330
2F
100
AcDbEntity
  8
0
 62
7
100
AcDbPolyline
 90
4
 70
1
 10
3187.256202804746
 20
654.177600816684
 10
3212.439590075512
 20
654.177600816684
 10
3212.439590075512
 20
626.2568888425741
 10
3187.256202804746
 20
626.2568888425741
  0
CIRCLE
  5
3E
330
2F
100
AcDbEntity
  8
0
 62
7
100
AcDbCircle
 10
3199.957389428263
 20
641.5859071813009
 30
0.0
 40
5.365156418554476
  0
LINE
  5
3F
330
2F
100
AcDbEntity
  8
0
 62
7
100
AcDbLine
 10
3166.12405609493
 20
646.7320776235879
 30
0.0
 11
3187.256202804746
 21
646.7320776235879
 31
0.0
  0
LINE
  5
40
330
2F
100
AcDbEntity
  8
0
 62
7
100
AcDbLine
 10
3166.12405609493
 20
633.4834260594025
 30
0.0
 11
3187.256202804746
 21
633.4834260594025
 31
0.0
  0
LWPOLYLINE
  5
41
330
2F
100
AcDbEntity
  8
0
 62
7
100
AcDbPolyline
 90
4
 70
1
 10
3171.37971952535
 20
646.7320776235879
 10
3182.657497303129
 20
646.7320776235879
 10
3182.657497303129
 20
635.563792833944
 10
3171.37971952535
 20
635.563792833944
  0
LWPOLYLINE
  5
42
330
2F
100
AcDbEntity
  8
0
 62
7
100
AcDbPolyline
 90
4
 70
1
 10
3172.146170442287
 20
635.563792833944
 10
3181.891046386192
 20
635.563792833944
 10
3181.891046386192
 20
645.308668777849
 10
3172.146170442287
 20
645.308668777849
  0
CIRCLE
  5
43
330
2F
100
AcDbEntity
  8
0
 62
7
100
AcDbCircle
 10
3177.073354908306
 20
640.2719913236959
 30
0.0
 40
3.284789644012944
  0
CIRCLE
  5
44
330
2F
100
AcDbEntity
  8
0
 62
7
100
AcDbCircle
 10
3177.073354908306
 20
640.2719913236959
 30
0.0
 40
3.394282632146708
  0
LINE
  5
45
330
2F
100
AcDbEntity
  8
0
 62
7
100
AcDbLine
 10
3175.321467098167
 20
645.308668777849
 30
0.0
 11
3175.321467098167
 21
643.0506118638374
 31
0.0
  0
LINE
  5
46
330
2F
100
AcDbEntity
  8
0
 62
7
100
AcDbLine
 10
3175.321467098167
 20
637.4933707835544
 30
0.0
 11
3175.321467098167
 21
635.563792833944
 31
0.0
  0
LINE
  5
47
330
2F
100
AcDbEntity
  8
0
 62
7
100
AcDbLine
 10
3176.525889967638
 20
645.308668777849
 30
0.0
 11
3176.525889967638
 21
643.5108375911426
 31
0.0
  0
LINE
  5
48
330
2F
100
AcDbEntity
  8
0
 62
7
100
AcDbLine
 10
3176.525889967638
 20
637.0331450562494
 30
0.0
 11
3176.525889967638
 21
635.563792833944
 31
0.0
  0
LINE
  5
49
330
2F
100
AcDbEntity
  8
0
 62
7
100
AcDbLine
 10
3177.730312837109
 20
645.308668777849
 30
0.0
 11
3177.730312837109
 21
643.4904147397801
 31
0.0
  0
LINE
  5
4A
330
2F
100
AcDbEntity
  8
0
 62
7
100
AcDbLine
 10
3177.730312837109
 20
637.053567907612
 30
0.0
 11
3177.730312837109
 21
635.563792833944
 31
0.0
  0
LINE
  5
4B
330
2F
100
AcDbEntity
  8
0
 62
7
100
AcDbLine
 10
3178.825242718446
 20
645.308668777849
 30
0.0
 11
3178.825242718446
 21
643.0506118638374
 31
0.0
  0
LINE
  5
4C
330
2F
100
AcDbEntity
  8
0
 62
7
100
AcDbLine
 10
3178.825242718446
 20
637.4933707835544
 30
0.0
 11
3178.825242718446
 21
635.563792833944
 31
0.0
  0
LINE
  5
4D
330
2F
100
AcDbEntity
  8
0
 62
7
100
AcDbLine
 10
3172.146170442287
 20
642.0238791338362
 30
0.0
 11
3174.294734368166
 21
642.0238791338362
 31
0.0
  0
LINE
  5
4E
330
2F
100
AcDbEntity
  8
0
 62
7
100
AcDbLine
 10
3179.851975448448
 20
642.0238791338362
 30
0.0
 11
3181.891046386192
 21
642.0238791338362
 31
0.0
  0
LINE
  5
4F
330
2F
100
AcDbEntity
  8
0
 62
7
100
AcDbLine
 10
3172.146170442287
 20
641.1479352287661
 30
0.0
 11
3173.907511374493
 21
641.1479352287661
 31
0.0
  0
LINE
  5
50
330
2F
100
AcDbEntity
  8
0
 62
7
100
AcDbLine
 10
3180.239198442119
 20
641.1479352287661
 30
0.0
 11
3181.891046386192
 21
641.1479352287661
 31
0.0
  0
LINE
  5
51
330
2F
100
AcDbEntity
  8
0
 62
7
100
AcDbLine
 10
3172.146170442287
 20
639.8340193711606
 30
0.0
 11
3173.817894330414
 21
639.8340193711606
 31
0.0
  0
LINE
  5
52
330
2F
100
AcDbEntity
  8
0
 62
7
100
AcDbLine
 10
3180.328815486198
 20
639.8340193711606
 30
0.0
 11
3181.891046386192
 21
639.8340193711606
 31
0.0
  0
LINE
  5
53
330
2F
100
AcDbEntity
  8
0
 62
7
100
AcDbLine
 10
3172.146170442287
 20
638.7390894898231
 30
0.0
 11
3174.168177637791
 21
638.7390894898231
 31
0.0
  0
LINE
  5
54
330
2F
100
AcDbEntity
  8
0
 62
7
100
AcDbLine
 10
3179.978532178822
 20
638.7390894898231
 30
0.0
 11
3181.891046386192
 21
638.7390894898231
 31
0.0
  0
LWPOLYLINE
  5
55
330
2F
100
AcDbEntity
  8
0
 62
7
100
AcDbPolyline
 90
17
 70
0
 10
3177.366862273491
 20
639.5659876814457
 42
0.413744312948144
 10
3176.43852842702
 20
639.5652439078636
 10
3175.588362186826
 20
638.7150776676702
 10
3175.278669249218
 20
639.0247706052774
 10
3176.12685050029
 20
639.8729518563483
 42
0.4146829675512808
 10
3176.126105533941
 20
640.8027744427515
 10
3175.276113617496
 20
641.6500466887651
 10
3175.585806555103
 20
641.9597396263721
 10
3176.437289597014
 20
641.1109810259622
 42
0.4137443129480185
 10
3177.365623443486
 20
641.1117247995442
 10
3178.220752156486
 20
641.9668535125444
 10
3178.530445094093
 20
641.6571605749375
 10
3177.677301370215
 20
640.80401685106
 42
0.4146829675511966
 10
3177.678046336564
 20
639.8741942646568
 10
3178.607868328494
 20
638.9473473708756
 10
3178.298175390887
 20
638.6376544332687
 10
3177.366862273491
 20
639.5659876814457
  0
LWPOLYLINE
  5
56
330
2F
100
AcDbEntity
  8
0
 62
7
100
AcDbPolyline
 90
4
 70
1
 10
3258.536138079828
 20
654.177600816684
 10
3233.352750809062
 20
654.177600816684
 10
3233.352750809062
 20
626.2568888425741
 10
3258.536138079828
 20
626.2568888425741
  0
LINE
  5
57
330
2F
100
AcDbEntity
  8
0
 62
7
100
AcDbLine
 10
3258.536138079828
 20
646.5130916473206
 30
0.0
 11
3258.536138079828
 21
646.5130916473206
 31
0.0
  0
LINE
  5
58
330
2F
100
AcDbEntity
  8
0
 62
7
100
AcDbLine
 10
3258.536138079828
 20
646.5130916473206
 30
0.0
 11
3264.229773462783
 21
646.5130916473206
 31
0.0
  0
ARC
  5
59
330
2F
100
AcDbEntity
  8
0
 62
7
100
AcDbCircle
 10
3263.810050341604
 20
641.4216676991003
 30
0.0
 40
5.108695070070377
100
AcDbArc
 50
23.35983524607163
 51
85.28734831019534
  0
ARC
  5
5A
330
2F
100
AcDbEntity
  8
0
 62
7
100
AcDbCircle
 10
3259.521574973031
 20
654.615572769219
 30
0.0
 40
3.748436118695371
100
AcDbArc
 50
254.7582194349203
 51
186.7098368077591
  0
CIRCLE
  5
5B
330
2F
100
AcDbEntity
  8
0
 62
7
100
AcDbCircle
 10
3221.96548004315
 20
654.615572769219
 30
0.0
 40
3.748436118695371
  0
CIRCLE
  5
5C
330
2F
100
AcDbEntity
  8
0
 62
7
100
AcDbCircle
 10
3245.83495145631
 20
641.5859071813009
 30
0.0
 40
5.365156418554476
  0
LINE
  5
5D
330
2F
100
AcDbEntity
  8
0
 62
7
100
AcDbLine
 10
3233.352750809062
 20
646.7320776235879
 30
0.0
 11
3212.220604099246
 21
646.7320776235879
 31
0.0
  0
LINE
  5
5E
330
2F
100
AcDbEntity
  8
0
 62
7
100
AcDbLine
 10
3233.352750809062
 20
633.4834260594025
 30
0.0
 11
3212.220604099246
 21
633.4834260594025
 31
0.0
  0
LWPOLYLINE
  5
5F
330
2F
100
AcDbEntity
  8
0
 62
7
100
AcDbPolyline
 90
4
 70
1
 10
3228.09708737864
 20
646.7320776235879
 10
3216.819309600863
 20
646.7320776235879
 10
3216.819309600863
 20
635.563792833944
 10
3228.09708737864
 20
635.563792833944
  0
LWPOLYLINE
  5
60
330
2F
100
AcDbEntity
  8
0
 62
7
100
AcDbPolyline
 90
4
 70
1
 10
3227.330636461704
 20
635.563792833944
 10
3217.585760517799
 20
635.563792833944
 10
3217.585760517799
 20
645.308668777849
 10
3227.330636461704
 20
645.308668777849
  0
CIRCLE
  5
61
330
2F
100
AcDbEntity
  8
0
 62
7
100
AcDbCircle
 10
3222.403451995685
 20
640.2719913236959
 30
0.0
 40
3.284789644012944
  0
CIRCLE
  5
62
330
2F
100
AcDbEntity
  8
0
 62
7
100
AcDbCircle
 10
3222.403451995685
 20
640.2719913236959
 30
0.0
 40
3.394282632146708
  0
LINE
  5
63
330
2F
100
AcDbEntity
  8
0
 62
7
100
AcDbLine
 10
3224.155339805826
 20
645.308668777849
 30
0.0
 11
3224.155339805826
 21
643.0506118638374
 31
0.0
  0
LINE
  5
64
330
2F
100
AcDbEntity
  8
0
 62
7
100
AcDbLine
 10
3224.155339805826
 20
637.4933707835544
 30
0.0
 11
3224.155339805826
 21
635.563792833944
 31
0.0
  0
LINE
  5
65
330
2F
100
AcDbEntity
  8
0
 62
7
100
AcDbLine
 10
3222.950916936354
 20
645.308668777849
 30
0.0
 11
3222.950916936354
 21
643.5108375911426
 31
0.0
  0
LINE
  5
66
330
2F
100
AcDbEntity
  8
0
 62
7
100
AcDbLine
 10
3222.950916936354
 20
637.0331450562494
 30
0.0
 11
3222.950916936354
 21
635.563792833944
 31
0.0
  0
LINE
  5
67
330
2F
100
AcDbEntity
  8
0
 62
7
100
AcDbLine
 10
3221.746494066883
 20
645.308668777849
 30
0.0
 11
3221.746494066883
 21
643.4904147397801
 31
0.0
  0
LINE
  5
68
330
2F
100
AcDbEntity
  8
0
 62
7
100
AcDbLine
 10
3221.746494066883
 20
637.053567907612
 30
0.0
 11
3221.746494066883
 21
635.563792833944
 31
0.0
  0
LINE
  5
69
330
2F
100
AcDbEntity
  8
0
 62
7
100
AcDbLine
 10
3220.651564185544
 20
645.308668777849
 30
0.0
 11
3220.651564185544
 21
643.0506118638374
 31
0.0
  0
LINE
  5
6A
330
2F
100
AcDbEntity
  8
0
 62
7
100
AcDbLine
 10
3220.651564185544
 20
637.4933707835544
 30
0.0
 11
3220.651564185544
 21
635.563792833944
 31
0.0
  0
LINE
  5
6B
330
2F
100
AcDbEntity
  8
0
 62
7
100
AcDbLine
 10
3227.330636461704
 20
642.0238791338362
 30
0.0
 11
3225.182072535826
 21
642.0238791338362
 31
0.0
  0
LINE
  5
6C
330
2F
100
AcDbEntity
  8
0
 62
7
100
AcDbLine
 10
3219.624831455544
 20
642.0238791338362
 30
0.0
 11
3217.585760517799
 21
642.0238791338362
 31
0.0
  0
LINE
  5
6D
330
2F
100
AcDbEntity
  8
0
 62
7
100
AcDbLine
 10
3227.330636461704
 20
641.1479352287661
 30
0.0
 11
3225.569295529498
 21
641.1479352287661
 31
0.0
  0
LINE
  5
6E
330
2F
100
AcDbEntity
  8
0
 62
7
100
AcDbLine
 10
3219.237608461872
 20
641.1479352287661
 30
0.0
 11
3217.585760517799
 21
641.1479352287661
 31
0.0
  0
LINE
  5
6F
330
2F
100
AcDbEntity
  8
0
 62
7
100
AcDbLine
 10
3227.330636461704
 20
639.8340193711606
 30
0.0
 11
3225.658912573577
 21
639.8340193711606
 31
0.0
  0
LINE
  5
70
330
2F
100
AcDbEntity
  8
0
 62
7
100
AcDbLine
 10
3219.147991417794
 20
639.8340193711606
 30
0.0
 11
3217.585760517799
 21
639.8340193711606
 31
0.0
  0
LINE
  5
71
330
2F
100
AcDbEntity
  8
0
 62
7
100
AcDbLine
 10
3227.330636461704
 20
638.7390894898231
 30
0.0
 11
3225.308629266201
 21
638.7390894898231
 31
0.0
  0
LINE
  5
72
330
2F
100
AcDbEntity
  8
0
 62
7
100
AcDbLine
 10
3219.498274725168
 20
638.7390894898231
 30
0.0
 11
3217.585760517799
 21
638.7390894898231
 31
0.0
  0
LWPOLYLINE
  5
73
330
2F
100
AcDbEntity
  8
0
 62
7
100
AcDbPolyline
 90
17
 70
0
 10
3222.109944630499
 20
639.5659876814457
 42
-0.413744312948144
 10
3223.038278476972
 20
639.5652439078636
 10
3223.888444717165
 20
638.7150776676702
 10
3224.198137654772
 20
639.0247706052774
 10
3223.349956403701
 20
639.8729518563483
 42
-0.4146829675512808
 10
3223.350701370049
 20
640.8027744427515
 10
3224.200693286495
 20
641.6500466887651
 10
3223.891000348888
 20
641.9597396263721
 10
3223.039517306978
 20
641.1109810259622
 42
-0.4137443129480185
 10
3222.111183460505
 20
641.1117247995442
 10
3221.256054747505
 20
641.9668535125444
 10
3220.946361809898
 20
641.6571605749375
 10
3221.799505533776
 20
640.80401685106
 42
-0.4146829675511966
 10
3221.798760567427
 20
639.8741942646568
 10
3220.868938575496
 20
638.9473473708756
 10
3221.178631513103
 20
638.6376544332687
 10
3222.109944630499
 20
639.5659876814457
  0
LINE
  5
74
330
2F
100
AcDbEntity
  8
0
 62
7
100
AcDbLine
 10
3166.12405609493
 20
626.2568888425741
 30
0.0
 11
3233.352750809062
 21
626.2568888425741
 31
0.0
  0
LINE
  5
75
330
2F
100
AcDbEntity
  8
0
 62
7
100
AcDbLine
 10
3144.334951456311
 20
626.2568888425741
 30
0.0
 11
3144.334951456311
 21
597.0222610108588
 31
0.0
  0
ARC
  5
76
330
2F
100
AcDbEntity
  8
0
 62
7
100
AcDbCircle
 10
3143.677993527508
 20
597.0222610108588
 30
0.0
 40
0.656957928802589
100
AcDbArc
 50
270.0
 51
0.0
  0
LWPOLYLINE
  5
77
330
2F
100
AcDbEntity
  8
0
 62
7
100
AcDbPolyline
 90
4
 70
1
 10
3140.940668824164
 20
465.0832103096721
 10
3166.12405609493
 20
465.0832103096721
 10
3166.12405609493
 20
493.0039222837821
 10
3140.940668824164
 20
493.0039222837821
  0
CIRCLE
  5
78
330
2F
100
AcDbEntity
  8
0
 62
7
100
AcDbCircle
 10
3153.641855447681
 20
477.6749039450551
 30
0.0
 40
5.365156418554476
  0
LWPOLYLINE
  5
79
330
2F
100
AcDbEntity
  8
0
 62
7
100
AcDbPolyline
 90
4
 70
1
 10
3187.256202804746
 20
465.0832103096721
 10
3212.439590075512
 20
465.0832103096721
 10
3212.439590075512
 20
493.0039222837821
 10
3187.256202804746
 20
493.0039222837821
  0
CIRCLE
  5
7A
330
2F
100
AcDbEntity
  8
0
 62
7
100
AcDbCircle
 10
3199.957389428263
 20
477.6749039450551
 30
0.0
 40
5.365156418554476
  0
LWPOLYLINE
  5
7B
330
2F
100
AcDbEntity
  8
0
 62
7
100
AcDbPolyline
 90
4
 70
1
 10
3258.536138079828
 20
465.0832103096721
 10
3233.352750809062
 20
465.0832103096721
 10
3233.352750809062
 20
493.0039222837821
 10
3258.536138079828
 20
493.0039222837821
  0
CIRCLE
  5
7C
330
2F
100
AcDbEntity
  8
0
 62
7
100
AcDbCircle
 10
3245.83495145631
 20
477.6749039450551
 30
0.0
 40
5.365156418554476
  0
LINE
  5
7D
330
2F
100
AcDbEntity
  8
0
 62
7
100
AcDbLine
 10
3166.12405609493
 20
493.0039222837821
 30
0.0
 11
3212.439590075512
 21
493.0039222837821
 31
0.0
  0
LINE
  5
7E
330
2F
100
AcDbEntity
  8
0
 62
7
100
AcDbLine
 10
3212.439590075512
 20
493.0039222837821
 30
0.0
 11
3233.352750809062
 21
493.0039222837821
 31
0.0
  0
ARC
  5
7F
330
2F
100
AcDbEntity
  8
0
 62
7
100
AcDbCircle
 10
3138.9287821081
 20
614.733730894427
 30
0.0
 40
5.43654130197612
100
AcDbArc
 50
280.883092670622
 51
82.62371704951538
  0
LINE
  5
80
330
2F
100
AcDbEntity
  8
0
 62
7
100
AcDbLine
 10
3139.626752966558
 20
620.1252815070831
 30
0.0
 11
3130.976806903991
 21
620.1252815070831
 31
0.0
  0
LINE
  5
81
330
2F
100
AcDbEntity
  8
0
 62
7
100
AcDbLine
 10
3139.95523193096
 20
609.3949686699742
 30
0.0
 11
3130.976806903991
 21
609.3949686699742
 31
0.0
  0
CIRCLE
  5
82
330
2F
100
AcDbEntity
  8
0
 62
7
100
AcDbCircle
 10
3138.422330097087
 20
614.733730894427
 30
0.0
 40
3.284789644012944
  0
CIRCLE
  5
83
330
2F
100
AcDbEntity
  8
0
 62
7
100
AcDbCircle
 10
3138.422330097087
 20
614.733730894427
 30
0.0
 40
3.394282632146708
  0
LWPOLYLINE
  5
84
330
2F
100
AcDbEntity
  8
0
 62
7
100
AcDbPolyline
 90
17
 70
0
 10
3138.715837462272
 20
614.0277272521768
 42
0.413744312948144
 10
3137.7875036158
 20
614.0269834785947
 10
3136.937337375608
 20
613.1768172384012
 10
3136.627644438001
 20
613.4865101760082
 10
3137.475825689071
 20
614.3346914270791
 42
0.4146829675512808
 10
3137.475080722722
 20
615.2645140134823
 10
3136.625088806277
 20
616.111786259496
 10
3136.934781743884
 20
616.4214791971033
 10
3137.786264785795
 20
615.5727205966932
 42
0.4137443129480185
 10
3138.714598632267
 20
615.5734643702754
 10
3139.569727345266
 20
616.4285930832752
 10
3139.879420282874
 20
616.1189001456682
 10
3139.026276558996
 20
615.2657564217911
 42
0.4146829675511966
 10
3139.027021525345
 20
614.3359338353877
 10
3139.956843517275
 20
613.4090869416065
 10
3139.64715057967
 20
613.0993940039997
 10
3138.715837462272
 20
614.0277272521768
  0
LINE
  5
85
330
2F
100
AcDbEntity
  8
0
 62
7
100
AcDbLine
 10
3130.976806903991
 20
596.3653030820562
 30
0.0
 11
3143.677993527508
 21
596.3653030820562
 31
0.0
  0
LINE
  5
86
330
2F
100
AcDbEntity
  8
0
 62
7
100
AcDbLine
 10
3144.334951456311
 20
597.0222610108588
 30
0.0
 11
3144.334951456311
 21
570.853436846889
 31
0.0
  0
LINE
  5
87
330
2F
100
AcDbEntity
  8
0
 62
7
100
AcDbLine
 10
3143.240021574973
 20
596.3653030820562
 30
0.0
 11
3143.240021574973
 21
570.1964789180864
 31
0.0
  0
LINE
  5
88
330
2F
100
AcDbEntity
  8
0
 62
7
100
AcDbLine
 10
3143.240021574973
 20
570.1964789180864
 30
0.0
 11
3143.677993527508
 21
570.1964789180864
 31
0.0
  0
ARC
  5
89
330
2F
100
AcDbEntity
  8
0
 62
7
100
AcDbCircle
 10
3143.677993527508
 20
570.853436846889
 30
0.0
 40
0.656957928802589
100
AcDbArc
 50
270.0
 51
0.0
  0
LINE
  5
8A
330
2F
100
AcDbEntity
  8
0
 62
7
100
AcDbLine
 10
3144.334951456311
 20
570.853436846889
 30
0.0
 11
3144.334951456311
 21
493.0039222837821
 31
0.0
  0
LINE
  5
8B
330
2F
100
AcDbEntity
  8
0
 62
7
100
AcDbLine
 10
3143.240021574973
 20
570.1964789180864
 30
0.0
 11
3132.728694714131
 21
570.1964789180864
 31
0.0
  0
ARC
  5
8C
330
2F
100
AcDbEntity
  8
0
 62
7
100
AcDbCircle
 10
3133.368807567837
 20
567.0085484558842
 30
0.0
 40
3.251560409605831
100
AcDbArc
 50
101.3535919368367
 51
137.3619151487146
  0
LINE
  5
8D
330
2F
100
AcDbEntity
  8
0
 62
7
100
AcDbLine
 10
3132.509708737864
 20
596.3653030820562
 30
0.0
 11
3132.509708737864
 21
570.1964789180864
 31
0.0
  0
LINE
  5
8E
330
2F
100
AcDbEntity
  8
0
 62
7
100
AcDbLine
 10
3132.509708737864
 20
587.4963710432214
 30
0.0
 11
3141.3786407767
 21
587.4963710432214
 31
0.0
  0
LINE
  5
8F
330
2F
100
AcDbEntity
  8
0
 62
7
100
AcDbLine
 10
3141.3786407767
 20
587.4963710432214
 30
0.0
 11
3141.3786407767
 21
570.1964789180864
 31
0.0
  0
CIRCLE
  5
90
330
2F
100
AcDbEntity
  8
0
 62
7
100
AcDbCircle
 10
3137.108414239482
 20
591.2191326397693
 30
0.0
 40
3.284789644012944
  0
CIRCLE
  5
91
330
2F
100
AcDbEntity
  8
0
 62
7
100
AcDbCircle
 10
3137.108414239482
 20
591.2191326397693
 30
0.0
 40
3.394282632146708
  0
LWPOLYLINE
  5
92
330
2F
100
AcDbEntity
  8
0
 62
7
100
AcDbPolyline
 90
17
 70
0
 10
3137.401921604667
 20
590.5131289975192
 42
0.413744312948144
 10
3136.473587758195
 20
590.5123852239371
 10
3135.623421518002
 20
589.6622189837437
 10
3135.313728580394
 20
589.9719119213507
 10
3136.161909831465
 20
590.8200931724215
 42
0.4146829675512808
 10
3136.161164865117
 20
591.7499157588247
 10
3135.311172948672
 20
592.5971880048384
 10
3135.620865886279
 20
592.9068809424458
 10
3136.47234892819
 20
592.0581223420356
 42
0.4137443129480185
 10
3137.400682774662
 20
592.0588661156178
 10
3138.255811487661
 20
592.9139948286177
 10
3138.565504425269
 20
592.6043018910106
 10
3137.712360701391
 20
591.7511581671334
 42
0.4146829675511966
 10
3137.71310566774
 20
590.82133558073
 10
3138.64292765967
 20
589.894488686949
 10
3138.333234722063
 20
589.584795749342
 10
3137.401921604667
 20
590.5131289975192
  0
CIRCLE
  5
93
330
2F
100
AcDbEntity
  8
0
 62
7
100
AcDbCircle
 10
3137.108414239482
 20
582.897665541603
 30
0.0
 40
3.284789644012944
  0
CIRCLE
  5
94
330
2F
100
AcDbEntity
  8
0
 62
7
100
AcDbCircle
 10
3137.108414239482
 20
582.897665541603
 30
0.0
 40
3.394282632146708
  0
LWPOLYLINE
  5
95
330
2F
100
AcDbEntity
  8
0
 62
7
100
AcDbPolyline
 90
17
 70
0
 10
3137.401921604667
 20
582.1916618993532
 42
0.413744312948144
 10
3136.473587758195
 20
582.190918125771
 10
3135.623421518002
 20
581.3407518855776
 10
3135.313728580394
 20
581.6504448231846
 10
3136.161909831465
 20
582.4986260742555
 42
0.4146829675512808
 10
3136.161164865117
 20
583.4284486606585
 10
3135.311172948672
 20
584.2757209066724
 10
3135.620865886279
 20
584.5854138442794
 10
3136.47234892819
 20
583.7366552438694
 42
0.4137443129480185
 10
3137.400682774662
 20
583.7373990174516
 10
3138.255811487661
 20
584.5925277304517
 10
3138.565504425269
 20
584.2828347928445
 10
3137.712360701391
 20
583.4296910689671
 42
0.4146829675511966
 10
3137.71310566774
 20
582.4998684825641
 10
3138.64292765967
 20
581.5730215887829
 10
3138.333234722063
 20
581.2633286511758
 10
3137.401921604667
 20
582.1916618993532
  0
CIRCLE
  5
96
330
2F
100
AcDbEntity
  8
0
 62
7
100
AcDbCircle
 10
3137.108414239482
 20
574.5761984434371
 30
0.0
 40
3.284789644012944
  0
CIRCLE
  5
97
330
2F
100
AcDbEntity
  8
0
 62
7
100
AcDbCircle
 10
3137.108414239482
 20
574.5761984434371
 30
0.0
 40
3.394282632146708
  0
LWPOLYLINE
  5
98
330
2F
100
AcDbEntity
  8
0
 62
7
100
AcDbPolyline
 90
17
 70
0
 10
3137.401921604667
 20
573.8701948011872
 42
0.413744312948144
 10
3136.473587758195
 20
573.8694510276047
 10
3135.623421518002
 20
573.0192847874116
 10
3135.313728580394
 20
573.3289777250186
 10
3136.161909831465
 20
574.1771589760892
 42
0.4146829675512808
 10
3136.161164865117
 20
575.1069815624926
 10
3135.311172948672
 20
575.9542538085062
 10
3135.620865886279
 20
576.2639467461133
 10
3136.47234892819
 20
575.4151881457033
 42
0.4137443129480185
 10
3137.400682774662
 20
575.4159319192856
 10
3138.255811487661
 20
576.2710606322855
 10
3138.565504425269
 20
575.9613676946785
 10
3137.712360701391
 20
575.1082239708011
 42
0.4146829675511966
 10
3137.71310566774
 20
574.1784013843981
 10
3138.64292765967
 20
573.2515544906166
 10
3138.333234722063
 20
572.9418615530097
 10
3137.401921604667
 20
573.8701948011872
  0
LINE
  5
99
330
2F
100
AcDbEntity
  8
0
 62
7
100
AcDbLine
 10
3132.509708737864
 20
578.6274390043862
 30
0.0
 11
3141.3786407767
 21
578.6274390043862
 31
0.0
  0
LINE
  5
9A
330
2F
100
AcDbEntity
  8
0
 62
7
100
AcDbLine
 10
3143.240021574973
 20
583.9925954229409
 30
0.0
 11
3144.334951456311
 21
583.9925954229409
 31
0.0
  0
LINE
  5
9B
330
2F
100
AcDbEntity
  8
0
 62
7
100
AcDbLine
 10
3143.240021574973
 20
579.8318618738577
 30
0.0
 11
3144.334951456311
 21
579.8318618738577
 31
0.0
  0
LINE
  5
9C
330
2F
100
AcDbEntity
  8
0
 62
7
100
AcDbLine
 10
3143.240021574973
 20
576.6565652179784
 30
0.0
 11
3144.334951456311
 21
576.6565652179784
 31
0.0
  0
ARC
  5
9D
330
2F
100
AcDbEntity
  8
0
 62
7
100
AcDbCircle
 10
3143.677993527508
 20
522.2385501154973
 30
0.0
 40
0.656957928802589
100
AcDbArc
 50
0.0
 51
90.0
  0
ARC
  5
9E
330
2F
100
AcDbEntity
  8
0
 62
7
100
AcDbCircle
 10
3138.9287821081
 20
504.5270802319294
 30
0.0
 40
5.43654130197612
100
AcDbArc
 50
277.3762829504847
 51
79.11690732937801
  0
LINE
  5
9F
330
2F
100
AcDbEntity
  8
0
 62
7
100
AcDbLine
 10
3139.626752966558
 20
499.1355296192729
 30
0.0
 11
3130.976806903991
 21
499.1355296192729
 31
0.0
  0
LINE
  5
A0
330
2F
100
AcDbEntity
  8
0
 62
7
100
AcDbLine
 10
3139.95523193096
 20
509.865842456382
 30
0.0
 11
3130.976806903991
 21
509.865842456382
 31
0.0
  0
CIRCLE
  5
A1
330
2F
100
AcDbEntity
  8
0
 62
7
100
AcDbCircle
 10
3138.422330097087
 20
504.5270802319294
 30
0.0
 40
3.284789644012944
  0
CIRCLE
  5
A2
330
2F
100
AcDbEntity
  8
0
 62
7
100
AcDbCircle
 10
3138.422330097087
 20
504.5270802319294
 30
0.0
 40
3.394282632146708
  0
LWPOLYLINE
  5
A3
330
2F
100
AcDbEntity
  8
0
 62
7
100
AcDbPolyline
 90
17
 70
0
 10
3138.715837462272
 20
505.2330838741793
 42
-0.413744312948144
 10
3137.7875036158
 20
505.2338276477617
 10
3136.937337375608
 20
506.0839938879547
 10
3136.627644438001
 20
505.7743009503479
 10
3137.475825689071
 20
504.9261196992771
 42
-0.4146829675512808
 10
3137.475080722722
 20
503.9962971128738
 10
3136.625088806277
 20
503.1490248668601
 10
3136.934781743884
 20
502.8393319292531
 10
3137.786264785795
 20
503.6880905296628
 42
-0.4137443129480185
 10
3138.714598632267
 20
503.6873467560807
 10
3139.569727345266
 20
502.832218043081
 10
3139.879420282874
 20
503.1419109806878
 10
3139.026276558996
 20
503.9950547045653
 42
-0.4146829675511966
 10
3139.027021525345
 20
504.9248772909684
 10
3139.956843517275
 20
505.8517241847498
 10
3139.64715057967
 20
506.1614171223566
 10
3138.715837462272
 20
505.2330838741793
  0
LINE
  5
A4
330
2F
100
AcDbEntity
  8
0
 62
7
100
AcDbLine
 10
3130.976806903991
 20
522.8955080443001
 30
0.0
 11
3143.677993527508
 21
522.8955080443001
 31
0.0
  0
LINE
  5
A5
330
2F
100
AcDbEntity
  8
0
 62
7
100
AcDbLine
 10
3144.334951456311
 20
522.2385501154973
 30
0.0
 11
3144.334951456311
 21
548.4073742794674
 31
0.0
  0
LINE
  5
A6
330
2F
100
AcDbEntity
  8
0
 62
7
100
AcDbLine
 10
3143.240021574973
 20
522.8955080443001
 30
0.0
 11
3143.240021574973
 21
549.0643322082697
 31
0.0
  0
LINE
  5
A7
330
2F
100
AcDbEntity
  8
0
 62
7
100
AcDbLine
 10
3143.240021574973
 20
549.0643322082697
 30
0.0
 11
3143.677993527508
 21
549.0643322082697
 31
0.0
  0
ARC
  5
A8
330
2F
100
AcDbEntity
  8
0
 62
7
100
AcDbCircle
 10
3143.677993527508
 20
548.4073742794674
 30
0.0
 40
0.656957928802589
100
AcDbArc
 50
0.0
 51
90.0
  0
LINE
  5
A9
330
2F
100
AcDbEntity
  8
0
 62
7
100
AcDbLine
 10
3143.240021574973
 20
549.0643322082697
 30
0.0
 11
3132.728694714131
 21
549.0643322082697
 31
0.0
  0
ARC
  5
AA
330
2F
100
AcDbEntity
  8
0
 62
7
100
AcDbCircle
 10
3133.368807567837
 20
552.2522626704722
 30
0.0
 40
3.251560409605831
100
AcDbArc
 50
222.6380848512854
 51
258.6464080631633
  0
LINE
  5
AB
330
2F
100
AcDbEntity
  8
0
 62
7
100
AcDbLine
 10
3132.509708737864
 20
522.8955080443001
 30
0.0
 11
3132.509708737864
 21
549.0643322082697
 31
0.0
  0
LINE
  5
AC
330
2F
100
AcDbEntity
  8
0
 62
7
100
AcDbLine
 10
3132.509708737864
 20
531.7644400831348
 30
0.0
 11
3141.3786407767
 21
531.7644400831348
 31
0.0
  0
LINE
  5
AD
330
2F
100
AcDbEntity
  8
0
 62
7
100
AcDbLine
 10
3141.3786407767
 20
531.7644400831348
 30
0.0
 11
3141.3786407767
 21
549.0643322082697
 31
0.0
  0
CIRCLE
  5
AE
330
2F
100
AcDbEntity
  8
0
 62
7
100
AcDbCircle
 10
3137.108414239482
 20
528.0416784865868
 30
0.0
 40
3.284789644012944
  0
CIRCLE
  5
AF
330
2F
100
AcDbEntity
  8
0
 62
7
100
AcDbCircle
 10
3137.108414239482
 20
528.0416784865868
 30
0.0
 40
3.394282632146708
  0
LWPOLYLINE
  5
B0
330
2F
100
AcDbEntity
  8
0
 62
7
100
AcDbPolyline
 90
17
 70
0
 10
3137.401921604667
 20
528.7476821288369
 42
-0.413744312948144
 10
3136.473587758195
 20
528.7484259024193
 10
3135.623421518002
 20
529.5985921426127
 10
3135.313728580394
 20
529.2888992050056
 10
3136.161909831465
 20
528.4407179539348
 42
-0.4146829675512808
 10
3136.161164865117
 20
527.5108953675315
 10
3135.311172948672
 20
526.6636231215178
 10
3135.620865886279
 20
526.3539301839106
 10
3136.47234892819
 20
527.2026887843208
 42
-0.4137443129480185
 10
3137.400682774662
 20
527.2019450107384
 10
3138.255811487661
 20
526.3468162977385
 10
3138.565504425269
 20
526.6565092353455
 10
3137.712360701391
 20
527.5096529592229
 42
-0.4146829675511966
 10
3137.71310566774
 20
528.439475545626
 10
3138.64292765967
 20
529.3663224394073
 10
3138.333234722063
 20
529.6760153770142
 10
3137.401921604667
 20
528.7476821288369
  0
CIRCLE
  5
B1
330
2F
100
AcDbEntity
  8
0
 62
7
100
AcDbCircle
 10
3137.108414239482
 20
536.363145584753
 30
0.0
 40
3.284789644012944
  0
CIRCLE
  5
B2
330
2F
100
AcDbEntity
  8
0
 62
7
100
AcDbCircle
 10
3137.108414239482
 20
536.363145584753
 30
0.0
 40
3.394282632146708
  0
LWPOLYLINE
  5
B3
330
2F
100
AcDbEntity
  8
0
 62
7
100
AcDbPolyline
 90
17
 70
0
 10
3137.401921604667
 20
537.0691492270032
 42
-0.413744312948144
 10
3136.473587758195
 20
537.0698930005854
 10
3135.623421518002
 20
537.9200592407786
 10
3135.313728580394
 20
537.6103663031718
 10
3136.161909831465
 20
536.7621850521008
 42
-0.4146829675512808
 10
3136.161164865117
 20
535.8323624656978
 10
3135.311172948672
 20
534.985090219684
 10
3135.620865886279
 20
534.6753972820768
 10
3136.47234892819
 20
535.5241558824868
 42
-0.4137443129480185
 10
3137.400682774662
 20
535.5234121089047
 10
3138.255811487661
 20
534.6682833959046
 10
3138.565504425269
 20
534.9779763335118
 10
3137.712360701391
 20
535.8311200573888
 42
-0.4146829675511966
 10
3137.71310566774
 20
536.7609426437923
 10
3138.64292765967
 20
537.6877895375733
 10
3138.333234722063
 20
537.9974824751805
 10
3137.401921604667
 20
537.0691492270032
  0
CIRCLE
  5
B4
330
2F
100
AcDbEntity
  8
0
 62
7
100
AcDbCircle
 10
3137.108414239482
 20
544.6846126829194
 30
0.0
 40
3.284789644012944
  0
CIRCLE
  5
B5
330
2F
100
AcDbEntity
  8
0
 62
7
100
AcDbCircle
 10
3137.108414239482
 20
544.6846126829194
 30
0.0
 40
3.394282632146708
  0
LWPOLYLINE
  5
B6
330
2F
100
AcDbEntity
  8
0
 62
7
100
AcDbPolyline
 90
17
 70
0
 10
3137.401921604667
 20
545.3906163251692
 42
-0.413744312948144
 10
3136.473587758195
 20
545.3913600987513
 10
3135.623421518002
 20
546.2415263389448
 10
3135.313728580394
 20
545.9318334013378
 10
3136.161909831465
 20
545.0836521502671
 42
-0.4146829675512808
 10
3136.161164865117
 20
544.1538295638638
 10
3135.311172948672
 20
543.3065573178501
 10
3135.620865886279
 20
542.9968643802431
 10
3136.47234892819
 20
543.8456229806527
 42
-0.4137443129480185
 10
3137.400682774662
 20
543.8448792070706
 10
3138.255811487661
 20
542.9897504940704
 10
3138.565504425269
 20
543.2994434316777
 10
3137.712360701391
 20
544.1525871555552
 42
-0.4146829675511966
 10
3137.71310566774
 20
545.0824097419581
 10
3138.64292765967
 20
546.0092566357396
 10
3138.333234722063
 20
546.3189495733463
 10
3137.401921604667
 20
545.3906163251692
  0
LINE
  5
B7
330
2F
100
AcDbEntity
  8
0
 62
7
100
AcDbLine
 10
3132.509708737864
 20
540.63337212197
 30
0.0
 11
3141.3786407767
 21
540.63337212197
 31
0.0
  0
LINE
  5
B8
330
2F
100
AcDbEntity
  8
0
 62
7
100
AcDbLine
 10
3143.240021574973
 20
535.2682157034155
 30
0.0
 11
3144.334951456311
 21
535.2682157034155
 31
0.0
  0
LINE
  5
B9
330
2F
100
AcDbEntity
  8
0
 62
7
100
AcDbLine
 10
3143.240021574973
 20
539.4289492524985
 30
0.0
 11
3144.334951456311
 21
539.4289492524985
 31
0.0
  0
LINE
  5
BA
330
2F
100
AcDbEntity
  8
0
 62
7
100
AcDbLine
 10
3143.240021574973
 20
542.6042459083778
 30
0.0
 11
3144.334951456311
 21
542.6042459083778
 31
0.0
  0
LINE
  5
BB
330
2F
100
AcDbEntity
  8
0
 62
7
100
AcDbLine
 10
3143.240021574973
 20
546.6554864693271
 30
0.0
 11
3144.334951456311
 21
546.6554864693271
 31
0.0
  0
ARC
  5
BC
330
2F
100
AcDbEntity
  8
0
 62
7
100
AcDbCircle
 10
3146.73116338893
 20
495.3243313784629
 30
0.0
 40
2.408205128614639
100
AcDbArc
 50
185.7205628223695
 51
254.4812522701091
  0
CIRCLE
  5
BD
330
2F
100
AcDbEntity
  8
0
 62
7
100
AcDbCircle
 10
3137.765372168285
 20
559.7946450453787
 30
0.0
 40
3.832254584681767
  0
ARC
  5
BE
330
2F
100
AcDbEntity
  8
0
 62
7
100
AcDbCircle
 10
3137.765372168285
 20
559.7946450453787
 30
0.0
 40
4.708198489751886
100
AcDbArc
 50
115.9743939624676
 51
69.58378987107646
  0
LWPOLYLINE
  5
BF
330
2F
100
AcDbEntity
  8
0
 62
7
100
AcDbPolyline
 90
4
 70
1
 10
3135.703325191042
 20
564.0272677881406
 10
3139.407766990292
 20
564.0272677881406
 10
3139.407766990292
 20
565.3787874402008
 10
3135.703325191042
 20
565.3787874402008
  0
ARC
  5
C0
330
2F
100
AcDbEntity
  8
0
 62
7
100
AcDbCircle
 10
3137.800492560705
 20
559.8297654377991
 30
0.0
 40
6.534882121458095
100
AcDbArc
 50
282.2655432842554
 51
89.34791052677075
  0
LINE
  5
C1
330
2F
100
AcDbEntity
  8
0
 62
7
100
AcDbLine
 10
3137.874865156419
 20
566.3642243334046
 30
0.0
 11
3130.976806903991
 21
566.3642243334046
 31
0.0
  0
LINE
  5
C2
330
2F
100
AcDbEntity
  8
0
 62
7
100
AcDbLine
 10
3139.188781014023
 20
553.4440517336204
 30
0.0
 11
3130.976806903991
 21
553.4440517336204
 31
0.0
  0
LINE
  5
C3
330
2F
100
AcDbEntity
  8
0
 62
7
100
AcDbLine
 10
3136.253486741155
 20
562.4985689397398
 30
0.0
 11
3137.668172910634
 21
561.0113616453339
 31
0.0
  0
LINE
  5
C4
330
2F
100
AcDbEntity
  8
0
 62
7
100
AcDbLine
 10
3138.628982782575
 20
560.0012977308664
 30
0.0
 11
3140.283710895361
 21
558.2617432115061
 31
0.0
  0
LINE
  5
C5
330
2F
100
AcDbEntity
  8
0
 62
7
100
AcDbLine
 10
3140.283710895361
 20
558.2617432115061
 30
0.0
 11
3139.162118146079
 21
557.1948430179912
 31
0.0
  0
LINE
  5
C6
330
2F
100
AcDbEntity
  8
0
 62
7
100
AcDbLine
 10
3139.162118146079
 20
557.1948430179912
 30
0.0
 11
3137.534052901238
 21
558.9063678495286
 31
0.0
  0
LINE
  5
C7
330
2F
100
AcDbEntity
  8
0
 62
7
100
AcDbLine
 10
3136.573243029296
 20
559.9164317639961
 30
0.0
 11
3135.131893991872
 21
561.4316687462247
 31
0.0
  0
LINE
  5
C8
330
2F
100
AcDbEntity
  8
0
 62
7
100
AcDbLine
 10
3135.131893991872
 20
561.4316687462247
 30
0.0
 11
3136.253486741155
 21
562.4985689397397
 31
0.0
  0
LINE
  5
C9
330
2F
100
AcDbEntity
  8
0
 62
7
100
AcDbLine
 10
3139.188781014023
 20
562.5319697487229
 30
0.0
 11
3140.174217907227
 21
561.5465328555188
 31
0.0
  0
LINE
  5
CA
330
2F
100
AcDbEntity
  8
0
 62
7
100
AcDbLine
 10
3140.174217907227
 20
561.5465328555188
 30
0.0
 11
3138.628982782575
 21
560.0012977308664
 31
0.0
  0
LINE
  5
CB
330
2F
100
AcDbEntity
  8
0
 62
7
100
AcDbLine
 10
3137.534052901238
 20
558.9063678495286
 30
0.0
 11
3135.958737864077
 21
557.3310528123689
 31
0.0
  0
LINE
  5
CC
330
2F
100
AcDbEntity
  8
0
 62
7
100
AcDbLine
 10
3135.958737864077
 20
557.3310528123689
 30
0.0
 11
3134.973300970874
 21
558.3164897055731
 31
0.0
  0
LINE
  5
CD
330
2F
100
AcDbEntity
  8
0
 62
7
100
AcDbLine
 10
3134.973300970874
 20
558.3164897055731
 30
0.0
 11
3136.573243029296
 21
559.9164317639961
 31
0.0
  0
LINE
  5
CE
330
2F
100
AcDbEntity
  8
0
 62
7
100
AcDbLine
 10
3137.668172910634
 20
561.0113616453339
 30
0.0
 11
3139.188781014023
 21
562.5319697487229
 31
0.0
  0
ARC
  5
CF
330
2F
100
AcDbEntity
  8
0
 62
7
100
AcDbCircle
 10
3255.798813376483
 20
597.0222610108588
 30
0.0
 40
0.656957928802589
100
AcDbArc
 50
180.0
 51
270.0
  0
ARC
  5
D0
330
2F
100
AcDbEntity
  8
0
 62
7
100
AcDbCircle
 10
3260.548024795892
 20
614.733730894427
 30
0.0
 40
5.43654130197612
100
AcDbArc
 50
97.37628295048462
 51
259.116907329378
  0
LINE
  5
D1
330
2F
100
AcDbEntity
  8
0
 62
7
100
AcDbLine
 10
3259.850053937433
 20
620.1252815070831
 30
0.0
 11
3268.5
 21
620.1252815070831
 31
0.0
  0
LINE
  5
D2
330
2F
100
AcDbEntity
  8
0
 62
7
100
AcDbLine
 10
3259.521574973031
 20
609.3949686699742
 30
0.0
 11
3268.5
 21
609.3949686699742
 31
0.0
  0
CIRCLE
  5
D3
330
2F
100
AcDbEntity
  8
0
 62
7
100
AcDbCircle
 10
3261.054476806905
 20
614.733730894427
 30
0.0
 40
3.284789644012944
  0
CIRCLE
  5
D4
330
2F
100
AcDbEntity
  8
0
 62
7
100
AcDbCircle
 10
3261.054476806905
 20
614.733730894427
 30
0.0
 40
3.394282632146708
  0
LWPOLYLINE
  5
D5
330
2F
100
AcDbEntity
  8
0
 62
7
100
AcDbPolyline
 90
17
 70
0
 10
3260.760969441719
 20
614.0277272521768
 42
-0.413744312948144
 10
3261.689303288191
 20
614.0269834785947
 10
3262.539469528384
 20
613.1768172384012
 10
3262.849162465992
 20
613.4865101760082
 10
3262.00098121492
 20
614.3346914270791
 42
-0.4146829675512808
 10
3262.001726181269
 20
615.2645140134823
 10
3262.851718097714
 20
616.111786259496
 10
3262.542025160107
 20
616.4214791971033
 10
3261.690542118196
 20
615.5727205966932
 42
-0.4137443129480185
 10
3260.762208271724
 20
615.5734643702754
 10
3259.907079558724
 20
616.4285930832752
 10
3259.597386621117
 20
616.1189001456682
 10
3260.450530344994
 20
615.2657564217911
 42
-0.4146829675511966
 10
3260.449785378646
 20
614.3359338353877
 10
3259.519963386715
 20
613.4090869416065
 10
3259.829656324323
 20
613.0993940039997
 10
3260.760969441719
 20
614.0277272521768
  0
LINE
  5
D6
330
2F
100
AcDbEntity
  8
0
 62
7
100
AcDbLine
 10
3268.5
 20
596.3653030820562
 30
0.0
 11
3255.798813376483
 21
596.3653030820562
 31
0.0
  0
LINE
  5
D7
330
2F
100
AcDbEntity
  8
0
 62
7
100
AcDbLine
 10
3255.141855447681
 20
597.0222610108588
 30
0.0
 11
3255.141855447681
 21
570.853436846889
 31
0.0
  0
LINE
  5
D8
330
2F
100
AcDbEntity
  8
0
 62
7
100
AcDbLine
 10
3256.236785329019
 20
596.3653030820562
 30
0.0
 11
3256.236785329019
 21
570.1964789180864
 31
0.0
  0
LINE
  5
D9
330
2F
100
AcDbEntity
  8
0
 62
7
100
AcDbLine
 10
3256.236785329019
 20
570.1964789180864
 30
0.0
 11
3255.798813376483
 21
570.1964789180864
 31
0.0
  0
ARC
  5
DA
330
2F
100
AcDbEntity
  8
0
 62
7
100
AcDbCircle
 10
3255.798813376483
 20
570.853436846889
 30
0.0
 40
0.656957928802589
100
AcDbArc
 50
180.0
 51
270.0
  0
LINE
  5
DB
330
2F
100
AcDbEntity
  8
0
 62
7
100
AcDbLine
 10
3255.141855447681
 20
570.853436846889
 30
0.0
 11
3255.141855447681
 21
493.0039222837821
 31
0.0
  0
LINE
  5
DC
330
2F
100
AcDbEntity
  8
0
 62
7
100
AcDbLine
 10
3256.236785329019
 20
570.1964789180864
 30
0.0
 11
3266.748112189859
 21
570.1964789180864
 31
0.0
  0
ARC
  5
DD
330
2F
100
AcDbEntity
  8
0
 62
7
100
AcDbCircle
 10
3266.107999336155
 20
567.0085484558842
 30
0.0
 40
3.251560409605831
100
AcDbArc
 50
42.63808485128538
 51
78.6464080631633
  0
LINE
  5
DE
330
2F
100
AcDbEntity
  8
0
 62
7
100
AcDbLine
 10
3266.967098166127
 20
596.3653030820562
 30
0.0
 11
3266.967098166127
 21
570.1964789180864
 31
0.0
  0
LINE
  5
DF
330
2F
100
AcDbEntity
  8
0
 62
7
100
AcDbLine
 10
3266.967098166127
 20
587.4963710432214
 30
0.0
 11
3258.098166127292
 21
587.4963710432214
 31
0.0
  0
LINE
  5
E0
330
2F
100
AcDbEntity
  8
0
 62
7
100
AcDbLine
 10
3258.098166127292
 20
587.4963710432214
 30
0.0
 11
3258.098166127292
 21
570.1964789180864
 31
0.0
  0
CIRCLE
  5
E1
330
2F
100
AcDbEntity
  8
0
 62
7
100
AcDbCircle
 10
3262.368392664509
 20
591.2191326397693
 30
0.0
 40
3.284789644012944
  0
CIRCLE
  5
E2
330
2F
100
AcDbEntity
  8
0
 62
7
100
AcDbCircle
 10
3262.368392664509
 20
591.2191326397693
 30
0.0
 40
3.394282632146708
  0
LWPOLYLINE
  5
E3
330
2F
100
AcDbEntity
  8
0
 62
7
100
AcDbPolyline
 90
17
 70
0
 10
3262.074885299323
 20
590.5131289975192
 42
-0.413744312948144
 10
3263.003219145796
 20
590.5123852239371
 10
3263.853385385989
 20
589.6622189837437
 10
3264.163078323596
 20
589.9719119213507
 10
3263.314897072525
 20
590.8200931724215
 42
-0.4146829675512808
 10
3263.315642038874
 20
591.7499157588247
 10
3264.16563395532
 20
592.5971880048384
 10
3263.855941017712
 20
592.9068809424458
 10
3263.004457975802
 20
592.0581223420356
 42
-0.4137443129480185
 10
3262.076124129329
 20
592.0588661156178
 10
3261.220995416329
 20
592.9139948286177
 10
3260.911302478722
 20
592.6043018910106
 10
3261.7644462026
 20
591.7511581671334
 42
-0.4146829675511966
 10
3261.763701236251
 20
590.82133558073
 10
3260.83387924432
 20
589.894488686949
 10
3261.143572181927
 20
589.584795749342
 10
3262.074885299323
 20
590.5131289975192
  0
CIRCLE
  5
E4
330
2F
100
AcDbEntity
  8
0
 62
7
100
AcDbCircle
 10
3262.368392664509
 20
582.897665541603
 30
0.0
 40
3.284789644012944
  0
CIRCLE
  5
E5
330
2F
100
AcDbEntity
  8
0
 62
7
100
AcDbCircle
 10
3262.368392664509
 20
582.897665541603
 30
0.0
 40
3.394282632146708
  0
LWPOLYLINE
  5
E6
330
2F
100
AcDbEntity
  8
0
 62
7
100
AcDbPolyline
 90
17
 70
0
 10
3262.074885299323
 20
582.1916618993532
 42
-0.413744312948144
 10
3263.003219145796
 20
582.190918125771
 10
3263.853385385989
 20
581.3407518855776
 10
3264.163078323596
 20
581.6504448231846
 10
3263.314897072525
 20
582.4986260742555
 42
-0.4146829675512808
 10
3263.315642038874
 20
583.4284486606585
 10
3264.16563395532
 20
584.2757209066724
 10
3263.855941017712
 20
584.5854138442794
 10
3263.004457975802
 20
583.7366552438694
 42
-0.4137443129480185
 10
3262.076124129329
 20
583.7373990174516
 10
3261.220995416329
 20
584.5925277304517
 10
3260.911302478722
 20
584.2828347928445
 10
3261.7644462026
 20
583.4296910689671
 42
-0.4146829675511966
 10
3261.763701236251
 20
582.4998684825641
 10
3260.83387924432
 20
581.5730215887829
 10
3261.143572181927
 20
581.2633286511758
 10
3262.074885299323
 20
582.1916618993532
  0
CIRCLE
  5
E7
330
2F
100
AcDbEntity
  8
0
 62
7
100
AcDbCircle
 10
3262.368392664509
 20
574.5761984434371
 30
0.0
 40
3.284789644012944
  0
CIRCLE
  5
E8
330
2F
100
AcDbEntity
  8
0
 62
7
100
AcDbCircle
 10
3262.368392664509
 20
574.5761984434371
 30
0.0
 40
3.394282632146708
  0
LWPOLYLINE
  5
E9
330
2F
100
AcDbEntity
  8
0
 62
7
100
AcDbPolyline
 90
17
 70
0
 10
3262.074885299323
 20
573.8701948011872
 42
-0.413744312948144
 10
3263.003219145796
 20
573.8694510276047
 10
3263.853385385989
 20
573.0192847874116
 10
3264.163078323596
 20
573.3289777250186
 10
3263.314897072525
 20
574.1771589760892
 42
-0.4146829675512808
 10
3263.315642038874
 20
575.1069815624926
 10
3264.16563395532
 20
575.9542538085062
 10
3263.855941017712
 20
576.2639467461133
 10
3263.004457975802
 20
575.4151881457033
 42
-0.4137443129480185
 10
3262.076124129329
 20
575.4159319192856
 10
3261.220995416329
 20
576.2710606322855
 10
3260.911302478722
 20
575.9613676946785
 10
3261.7644462026
 20
575.1082239708011
 42
-0.4146829675511966
 10
3261.763701236251
 20
574.1784013843981
 10
3260.83387924432
 20
573.2515544906166
 10
3261.143572181927
 20
572.9418615530097
 10
3262.074885299323
 20
573.8701948011872
  0
LINE
  5
EA
330
2F
100
AcDbEntity
  8
0
 62
7
100
AcDbLine
 10
3266.967098166127
 20
578.6274390043862
 30
0.0
 11
3258.098166127292
 21
578.6274390043862
 31
0.0
  0
LINE
  5
EB
330
2F
100
AcDbEntity
  8
0
 62
7
100
AcDbLine
 10
3256.236785329019
 20
583.9925954229409
 30
0.0
 11
3255.141855447681
 21
583.9925954229409
 31
0.0
  0
LINE
  5
EC
330
2F
100
AcDbEntity
  8
0
 62
7
100
AcDbLine
 10
3256.236785329019
 20
579.8318618738577
 30
0.0
 11
3255.141855447681
 21
579.8318618738577
 31
0.0
  0
LINE
  5
ED
330
2F
100
AcDbEntity
  8
0
 62
7
100
AcDbLine
 10
3256.236785329019
 20
576.6565652179784
 30
0.0
 11
3255.141855447681
 21
576.6565652179784
 31
0.0
  0
ARC
  5
EE
330
2F
100
AcDbEntity
  8
0
 62
7
100
AcDbCircle
 10
3255.798813376483
 20
522.2385501154973
 30
0.0
 40
0.656957928802589
100
AcDbArc
 50
90.0
 51
180.0
  0
ARC
  5
EF
330
2F
100
AcDbEntity
  8
0
 62
7
100
AcDbCircle
 10
3260.548024795892
 20
504.5270802319294
 30
0.0
 40
5.43654130197612
100
AcDbArc
 50
100.883092670622
 51
262.6237170495153
  0
LINE
  5
F0
330
2F
100
AcDbEntity
  8
0
 62
7
100
AcDbLine
 10
3259.850053937433
 20
499.1355296192729
 30
0.0
 11
3268.5
 21
499.1355296192729
 31
0.0
  0
LINE
  5
F1
330
2F
100
AcDbEntity
  8
0
 62
7
100
AcDbLine
 10
3259.521574973031
 20
509.865842456382
 30
0.0
 11
3268.5
 21
509.865842456382
 31
0.0
  0
CIRCLE
  5
F2
330
2F
100
AcDbEntity
  8
0
 62
7
100
AcDbCircle
 10
3261.054476806905
 20
504.5270802319294
 30
0.0
 40
3.284789644012944
  0
CIRCLE
  5
F3
330
2F
100
AcDbEntity
  8
0
 62
7
100
AcDbCircle
 10
3261.054476806905
 20
504.5270802319294
 30
0.0
 40
3.394282632146708
  0
LWPOLYLINE
  5
F4
330
2F
100
AcDbEntity
  8
0
 62
7
100
AcDbPolyline
 90
17
 70
0
 10
3260.760969441719
 20
505.2330838741793
 42
0.413744312948144
 10
3261.689303288191
 20
505.2338276477617
 10
3262.539469528384
 20
506.0839938879547
 10
3262.849162465992
 20
505.7743009503479
 10
3262.00098121492
 20
504.9261196992771
 42
0.4146829675512808
 10
3262.001726181269
 20
503.9962971128738
 10
3262.851718097714
 20
503.1490248668601
 10
3262.542025160107
 20
502.8393319292531
 10
3261.690542118196
 20
503.6880905296628
 42
0.4137443129480185
 10
3260.762208271724
 20
503.6873467560807
 10
3259.907079558724
 20
502.832218043081
 10
3259.597386621117
 20
503.1419109806878
 10
3260.450530344994
 20
503.9950547045653
 42
0.4146829675511966
 10
3260.449785378646
 20
504.9248772909684
 10
3259.519963386715
 20
505.8517241847498
 10
3259.829656324323
 20
506.1614171223566
 10
3260.760969441719
 20
505.2330838741793
  0
LINE
  5
F5
330
2F
100
AcDbEntity
  8
0
 62
7
100
AcDbLine
 10
3268.5
 20
522.8955080443001
 30
0.0
 11
3255.798813376483
 21
522.8955080443001
 31
0.0
  0
LINE
  5
F6
330
2F
100
AcDbEntity
  8
0
 62
7
100
AcDbLine
 10
3255.141855447681
 20
522.2385501154973
 30
0.0
 11
3255.141855447681
 21
548.4073742794674
 31
0.0
  0
LINE
  5
F7
330
2F
100
AcDbEntity
  8
0
 62
7
100
AcDbLine
 10
3256.236785329019
 20
522.8955080443001
 30
0.0
 11
3256.236785329019
 21
549.0643322082697
 31
0.0
  0
LINE
  5
F8
330
2F
100
AcDbEntity
  8
0
 62
7
100
AcDbLine
 10
3256.236785329019
 20
549.0643322082697
 30
0.0
 11
3255.798813376483
 21
549.0643322082697
 31
0.0
  0
ARC
  5
F9
330
2F
100
AcDbEntity
  8
0
 62
7
100
AcDbCircle
 10
3255.798813376483
 20
548.4073742794674
 30
0.0
 40
0.656957928802589
100
AcDbArc
 50
90.0
 51
180.0
  0
LINE
  5
FA
330
2F
100
AcDbEntity
  8
0
 62
7
100
AcDbLine
 10
3256.236785329019
 20
549.0643322082697
 30
0.0
 11
3266.748112189859
 21
549.0643322082697
 31
0.0
  0
ARC
  5
FB
330
2F
100
AcDbEntity
  8
0
 62
7
100
AcDbCircle
 10
3266.107999336155
 20
552.2522626704722
 30
0.0
 40
3.251560409605831
100
AcDbArc
 50
281.3535919368367
 51
317.3619151487143
  0
LINE
  5
FC
330
2F
100
AcDbEntity
  8
0
 62
7
100
AcDbLine
 10
3266.967098166127
 20
522.8955080443001
 30
0.0
 11
3266.967098166127
 21
549.0643322082697
 31
0.0
  0
LINE
  5
FD
330
2F
100
AcDbEntity
  8
0
 62
7
100
AcDbLine
 10
3266.967098166127
 20
531.7644400831348
 30
0.0
 11
3258.098166127292
 21
531.7644400831348
 31
0.0
  0
LINE
  5
FE
330
2F
100
AcDbEntity
  8
0
 62
7
100
AcDbLine
 10
3258.098166127292
 20
531.7644400831348
 30
0.0
 11
3258.098166127292
 21
549.0643322082697
 31
0.0
  0
CIRCLE
  5
FF
330
2F
100
AcDbEntity
  8
0
 62
7
100
AcDbCircle
 10
3262.368392664509
 20
528.0416784865868
 30
0.0
 40
3.284789644012944
  0
CIRCLE
  5
100
330
2F
100
AcDbEntity
  8
0
 62
7
100
AcDbCircle
 10
3262.368392664509
 20
528.0416784865868
 30
0.0
 40
3.394282632146708
  0
LWPOLYLINE
  5
101
330
2F
100
AcDbEntity
  8
0
 62
7
100
AcDbPolyline
 90
17
 70
0
 10
3262.074885299323
 20
528.7476821288369
 42
0.413744312948144
 10
3263.003219145796
 20
528.7484259024193
 10
3263.853385385989
 20
529.5985921426127
 10
3264.163078323596
 20
529.2888992050056
 10
3263.314897072525
 20
528.4407179539348
 42
0.4146829675512808
 10
3263.315642038874
 20
527.5108953675315
 10
3264.16563395532
 20
526.6636231215178
 10
3263.855941017712
 20
526.3539301839106
 10
3263.004457975802
 20
527.2026887843208
 42
0.4137443129480185
 10
3262.076124129329
 20
527.2019450107384
 10
3261.220995416329
 20
526.3468162977385
 10
3260.911302478722
 20
526.6565092353455
 10
3261.7644462026
 20
527.5096529592229
 42
0.4146829675511966
 10
3261.763701236251
 20
528.439475545626
 10
3260.83387924432
 20
529.3663224394073
 10
3261.143572181927
 20
529.6760153770142
 10
3262.074885299323
 20
528.7476821288369
  0
CIRCLE
  5
102
330
2F
100
AcDbEntity
  8
0
 62
7
100
AcDbCircle
 10
3262.368392664509
 20
536.363145584753
 30
0.0
 40
3.284789644012944
  0
CIRCLE
  5
103
330
2F
100
AcDbEntity
  8
0
 62
7
100
AcDbCircle
 10
3262.368392664509
 20
536.363145584753
 30
0.0
 40
3.394282632146708
  0
LWPOLYLINE
  5
104
330
2F
100
AcDbEntity
  8
0
 62
7
100
AcDbPolyline
 90
17
 70
0
 10
3262.074885299323
 20
537.0691492270032
 42
0.413744312948144
 10
3263.003219145796
 20
537.0698930005854
 10
3263.853385385989
 20
537.9200592407786
 10
3264.163078323596
 20
537.6103663031718
 10
3263.314897072525
 20
536.7621850521008
 42
0.4146829675512808
 10
3263.315642038874
 20
535.8323624656978
 10
3264.16563395532
 20
534.985090219684
 10
3263.855941017712
 20
534.6753972820768
 10
3263.004457975802
 20
535.5241558824868
 42
0.4137443129480185
 10
3262.076124129329
 20
535.5234121089047
 10
3261.220995416329
 20
534.6682833959046
 10
3260.911302478722
 20
534.9779763335118
 10
3261.7644462026
 20
535.8311200573888
 42
0.4146829675511966
 10
3261.763701236251
 20
536.7609426437923
 10
3260.83387924432
 20
537.6877895375733
 10
3261.143572181927
 20
537.9974824751805
 10
3262.074885299323
 20
537.0691492270032
  0
CIRCLE
  5
105
330
2F
100
AcDbEntity
  8
0
 62
7
100
AcDbCircle
 10
3262.368392664509
 20
544.6846126829194
 30
0.0
 40
3.284789644012944
  0
CIRCLE
  5
106
330
2F
100
AcDbEntity
  8
0
 62
7
100
AcDbCircle
 10
3262.368392664509
 20
544.6846126829194
 30
0.0
 40
3.394282632146708
  0
LWPOLYLINE
  5
107
330
2F
100
AcDbEntity
  8
0
 62
7
100
AcDbPolyline
 90
17
 70
0
 10
3262.074885299323
 20
545.3906163251692
 42
0.413744312948144
 10
3263.003219145796
 20
545.3913600987513
 10
3263.853385385989
 20
546.2415263389448
 10
3264.163078323596
 20
545.9318334013378
 10
3263.314897072525
 20
545.0836521502671
 42
0.4146829675512808
 10
3263.315642038874
 20
544.1538295638638
 10
3264.16563395532
 20
543.3065573178501
 10
3263.855941017712
 20
542.9968643802431
 10
3263.004457975802
 20
543.8456229806527
 42
0.4137443129480185
 10
3262.076124129329
 20
543.8448792070706
 10
3261.220995416329
 20
542.9897504940704
 10
3260.911302478722
 20
543.2994434316777
 10
3261.7644462026
 20
544.1525871555552
 42
0.4146829675511966
 10
3261.763701236251
 20
545.0824097419581
 10
3260.83387924432
 20
546.0092566357396
 10
3261.143572181927
 20
546.3189495733463
 10
3262.074885299323
 20
545.3906163251692
  0
LINE
  5
108
330
2F
100
AcDbEntity
  8
0
 62
7
100
AcDbLine
 10
3266.967098166127
 20
540.63337212197
 30
0.0
 11
3258.098166127292
 21
540.63337212197
 31
0.0
  0
LINE
  5
109
330
2F
100
AcDbEntity
  8
0
 62
7
100
AcDbLine
 10
3256.236785329019
 20
535.2682157034155
 30
0.0
 11
3255.141855447681
 21
535.2682157034155
 31
0.0
  0
LINE
  5
10A
330
2F
100
AcDbEntity
  8
0
 62
7
100
AcDbLine
 10
3256.236785329019
 20
539.4289492524985
 30
0.0
 11
3255.141855447681
 21
539.4289492524985
 31
0.0
  0
LINE
  5
10B
330
2F
100
AcDbEntity
  8
0
 62
7
100
AcDbLine
 10
3256.236785329019
 20
542.6042459083778
 30
0.0
 11
3255.141855447681
 21
542.6042459083778
 31
0.0
  0
LINE
  5
10C
330
2F
100
AcDbEntity
  8
0
 62
7
100
AcDbLine
 10
3256.236785329019
 20
546.6554864693271
 30
0.0
 11
3255.141855447681
 21
546.6554864693271
 31
0.0
  0
ARC
  5
10D
330
2F
100
AcDbEntity
  8
0
 62
7
100
AcDbCircle
 10
3252.745643515061
 20
495.3243313784629
 30
0.0
 40
2.408205128614639
100
AcDbArc
 50
285.5187477298908
 51
354.2794371776304
  0
CIRCLE
  5
10E
330
2F
100
AcDbEntity
  8
0
 62
7
100
AcDbCircle
 10
3261.711434735707
 20
559.7946450453787
 30
0.0
 40
3.832254584681767
  0
LWPOLYLINE
  5
10F
330
2F
100
AcDbEntity
  8
0
 62
7
100
AcDbPolyline
 90
4
 70
1
 10
3263.77348171295
 20
554.4294886268243
 10
3260.0690399137
 20
554.4294886268243
 10
3260.0690399137
 20
555.7810082788843
 10
3263.77348171295
 20
555.7810082788843
  0
ARC
  5
110
330
2F
100
AcDbEntity
  8
0
 62
7
100
AcDbCircle
 10
3261.676314343286
 20
559.8297654377991
 30
0.0
 40
6.534882121458095
100
AcDbArc
 50
90.6520894732292
 51
257.7344567157446
  0
LINE
  5
111
330
2F
100
AcDbEntity
  8
0
 62
7
100
AcDbLine
 10
3261.601941747573
 20
566.3642243334046
 30
0.0
 11
3268.5
 21
566.3642243334046
 31
0.0
  0
LINE
  5
112
330
2F
100
AcDbEntity
  8
0
 62
7
100
AcDbLine
 10
3260.288025889968
 20
553.4440517336204
 30
0.0
 11
3268.5
 21
553.4440517336204
 31
0.0
  0
LINE
  5
113
330
2F
100
AcDbEntity
  8
0
 62
7
100
AcDbLine
 10
3263.223320162835
 20
562.4985689397398
 30
0.0
 11
3261.808633993356
 21
561.0113616453339
 31
0.0
  0
LINE
  5
114
330
2F
100
AcDbEntity
  8
0
 62
7
100
AcDbLine
 10
3260.847824121416
 20
560.0012977308664
 30
0.0
 11
3259.19309600863
 21
558.2617432115061
 31
0.0
  0
LINE
  5
115
330
2F
100
AcDbEntity
  8
0
 62
7
100
AcDbLine
 10
3259.19309600863
 20
558.2617432115061
 30
0.0
 11
3260.314688757912
 21
557.1948430179912
 31
0.0
  0
LINE
  5
116
330
2F
100
AcDbEntity
  8
0
 62
7
100
AcDbLine
 10
3260.314688757912
 20
557.1948430179912
 30
0.0
 11
3261.942754002755
 21
558.9063678495286
 31
0.0
  0
LINE
  5
117
330
2F
100
AcDbEntity
  8
0
 62
7
100
AcDbLine
 10
3262.903563874694
 20
559.9164317639961
 30
0.0
 11
3264.344912912118
 21
561.4316687462247
 31
0.0
  0
LINE
  5
118
330
2F
100
AcDbEntity
  8
0
 62
7
100
AcDbLine
 10
3264.344912912118
 20
561.4316687462247
 30
0.0
 11
3263.223320162837
 21
562.4985689397397
 31
0.0
  0
LINE
  5
119
330
2F
100
AcDbEntity
  8
0
 62
7
100
AcDbLine
 10
3260.288025889968
 20
562.5319697487229
 30
0.0
 11
3259.302588996763
 21
561.5465328555188
 31
0.0
  0
LINE
  5
11A
330
2F
100
AcDbEntity
  8
0
 62
7
100
AcDbLine
 10
3259.302588996763
 20
561.5465328555188
 30
0.0
 11
3260.847824121416
 21
560.0012977308664
 31
0.0
  0
LINE
  5
11B
330
2F
100
AcDbEntity
  8
0
 62
7
100
AcDbLine
 10
3261.942754002755
 20
558.9063678495286
 30
0.0
 11
3263.518069039913
 21
557.3310528123689
 31
0.0
  0
LINE
  5
11C
330
2F
100
AcDbEntity
  8
0
 62
7
100
AcDbLine
 10
3263.518069039913
 20
557.3310528123689
 30
0.0
 11
3264.503505933117
 21
558.3164897055731
 31
0.0
  0
LINE
  5
11D
330
2F
100
AcDbEntity
  8
0
 62
7
100
AcDbLine
 10
3264.503505933117
 20
558.3164897055731
 30
0.0
 11
3262.903563874694
 21
559.9164317639961
 31
0.0
  0
LINE
  5
11E
330
2F
100
AcDbEntity
  8
0
 62
7
100
AcDbLine
 10
3261.808633993356
 20
561.0113616453339
 30
0.0
 11
3260.288025889968
 21
562.5319697487229
 31
0.0
  0
ARC
  5
11F
330
2F
100
AcDbEntity
  8
0
 62
7
100
AcDbCircle
 10
3261.711434735707
 20
559.7946450453787
 30
0.0
 40
4.489212513484358
100
AcDbArc
 50
296.6117305508888
 51
248.5398722505529
  0
LINE
  5
120
330
2F
100
AcDbEntity
  8
0
 62
7
100
AcDbLine
 10
3255.141855447681
 20
597.0222610108588
 30
0.0
 11
3255.141855447681
 21
626.2568888425741
 31
0.0
  0
ARC
  5
121
330
2F
100
AcDbEntity
  8
0
 62
7
100
AcDbCircle
 10
3253.208764452953
 20
624.2343528716244
 30
0.0
 40
2.023806835165119
100
AcDbArc
 50
17.21989152471058
 51
87.9693952124658
  0
ARC
  5
122
330
2F
100
AcDbEntity
  8
0
 62
7
100
AcDbCircle
 10
3146.487028427306
 20
624.2343528716244
 30
0.0
 40
2.023806835165119
100
AcDbArc
 50
92.03060478753419
 51
162.7801084752894
  0
LINE
  5
123
330
2F
100
AcDbEntity
  8
0
 62
7
100
AcDbLine
 10
3166.12405609493
 20
472.9667054553033
 30
0.0
 11
3187.256202804746
 21
472.9667054553033
 31
0.0
  0
LINE
  5
124
330
2F
100
AcDbEntity
  8
0
 62
7
100
AcDbLine
 10
3166.12405609493
 20
481.7261445060045
 30
0.0
 11
3171.922623865065
 21
481.7261445060045
 31
0.0
  0
LINE
  5
125
330
2F
100
AcDbEntity
  8
0
 62
7
100
AcDbLine
 10
3181.47869726117
 20
481.7261445060045
 30
0.0
 11
3187.256202804746
 21
481.7261445060045
 31
0.0
  0
ARC
  5
126
330
2F
100
AcDbEntity
  8
0
 62
7
100
AcDbCircle
 10
3170.202669902912
 20
473.9065202701181
 30
0.0
 40
0.9591492710469651
100
AcDbArc
 50
281.5237217038788
 51
2.726310993909359
  0
LINE
  5
127
330
2F
100
AcDbEntity
  8
0
 62
7
100
AcDbLine
 10
3171.160733549083
 20
473.9521423485071
 30
0.0
 11
3171.160733549083
 21
479.7552707195968
 31
0.0
  0
ARC
  5
128
330
2F
100
AcDbEntity
  8
0
 62
7
100
AcDbCircle
 10
3176.700660563118
 20
478.7463747724371
 30
0.0
 40
5.631044517052351
100
AcDbArc
 50
11.45576196019728
 51
169.6787708595135
  0
ARC
  5
129
330
2F
100
AcDbEntity
  8
0
 62
7
100
AcDbCircle
 10
3183.177588996763
 20
473.9065202701181
 30
0.0
 40
0.9591492710469651
100
AcDbArc
 50
177.2736890060906
 51
258.476278296121
  0
LINE
  5
12A
330
2F
100
AcDbEntity
  8
0
 62
7
100
AcDbLine
 10
3182.219525350594
 20
473.9521423485071
 30
0.0
 11
3182.219525350594
 21
479.7552707195968
 31
0.0
  0
CIRCLE
  5
12B
330
2F
100
AcDbEntity
  8
0
 62
7
100
AcDbCircle
 10
3176.635382955771
 20
478.9888198026603
 30
0.0
 40
2.95631067961165
  0
CIRCLE
  5
12C
330
2F
100
AcDbEntity
  8
0
 62
7
100
AcDbCircle
 10
3176.635382955771
 20
478.9888198026603
 30
0.0
 40
3.941747572815534
  0
LINE
  5
12D
330
2F
100
AcDbEntity
  8
0
 62
7
100
AcDbLine
 10
3140.940668824164
 20
472.7477194790358
 30
0.0
 11
3140.940668824164
 21
472.7477194790358
 31
0.0
  0
LINE
  5
12E
330
2F
100
AcDbEntity
  8
0
 62
7
100
AcDbLine
 10
3140.940668824164
 20
472.7477194790358
 30
0.0
 11
3135.247033441209
 21
472.7477194790358
 31
0.0
  0
ARC
  5
12F
330
2F
100
AcDbEntity
  8
0
 62
7
100
AcDbCircle
 10
3135.666756562388
 20
477.8391434272558
 30
0.0
 40
5.108695070070377
100
AcDbArc
 50
203.3598352460717
 51
265.2873483101954
  0
LINE
  5
130
330
2F
100
AcDbEntity
  8
0
 62
7
100
AcDbLine
 10
3258.536138079828
 20
472.7477194790358
 30
0.0
 11
3258.536138079828
 21
472.7477194790358
 31
0.0
  0
LINE
  5
131
330
2F
100
AcDbEntity
  8
0
 62
7
100
AcDbLine
 10
3258.536138079828
 20
472.7477194790358
 30
0.0
 11
3264.229773462783
 21
472.7477194790358
 31
0.0
  0
ARC
  5
132
330
2F
100
AcDbEntity
  8
0
 62
7
100
AcDbCircle
 10
3263.810050341604
 20
477.8391434272558
 30
0.0
 40
5.108695070070377
100
AcDbArc
 50
274.7126516898047
 51
336.6401647539284
  0
LINE
  5
133
330
2F
100
AcDbEntity
  8
0
 62
7
100
AcDbLine
 10
3233.352750809062
 20
472.9667054553033
 30
0.0
 11
3212.220604099246
 21
472.9667054553033
 31
0.0
  0
LINE
  5
134
330
2F
100
AcDbEntity
  8
0
 62
7
100
AcDbLine
 10
3233.352750809062
 20
481.7261445060045
 30
0.0
 11
3227.554183038928
 21
481.7261445060045
 31
0.0
  0
LINE
  5
135
330
2F
100
AcDbEntity
  8
0
 62
7
100
AcDbLine
 10
3217.998109642819
 20
481.7261445060045
 30
0.0
 11
3212.220604099246
 21
481.7261445060045
 31
0.0
  0
ARC
  5
136
330
2F
100
AcDbEntity
  8
0
 62
7
100
AcDbCircle
 10
3229.274137001078
 20
473.9065202701181
 30
0.0
 40
0.9591492710469651
100
AcDbArc
 50
177.2736890060906
 51
258.476278296121
  0
LINE
  5
137
330
2F
100
AcDbEntity
  8
0
 62
7
100
AcDbLine
 10
3228.316073354907
 20
473.9521423485071
 30
0.0
 11
3228.316073354907
 21
479.7552707195968
 31
0.0
  0
ARC
  5
138
330
2F
100
AcDbEntity
  8
0
 62
7
100
AcDbCircle
 10
3222.776146340873
 20
478.7463747724371
 30
0.0
 40
5.631044517052351
100
AcDbArc
 50
10.32122914049828
 51
168.5442380398026
  0
ARC
  5
139
330
2F
100
AcDbEntity
  8
0
 62
7
100
AcDbCircle
 10
3216.299217907227
 20
473.9065202701181
 30
0.0
 40
0.9591492710469651
100
AcDbArc
 50
281.5237217038788
 51
2.726310993909359
  0
LINE
  5
13A
330
2F
100
AcDbEntity
  8
0
 62
7
100
AcDbLine
 10
3217.257281553397
 20
473.9521423485071
 30
0.0
 11
3217.257281553397
 21
479.7552707195968
 31
0.0
  0
CIRCLE
  5
13B
330
2F
100
AcDbEntity
  8
0
 62
7
100
AcDbCircle
 10
3222.841423948221
 20
478.9888198026603
 30
0.0
 40
2.95631067961165
  0
CIRCLE
  5
13C
330
2F
100
AcDbEntity
  8
0
 62
7
100
AcDbCircle
 10
3222.841423948221
 20
478.9888198026603
 30
0.0
 40
3.941747572815534
  0
ARC
  5
13D
330
2F
100
AcDbEntity
  8
0
 62
7
100
AcDbCircle
 10
3133.816560531718
 20
460.9895853662195
 30
0.0
 40
2.974878877205093
100
AcDbArc
 50
289.4890894219916
 51
5.040458033849106
  0
LINE
  5
13E
330
2F
100
AcDbEntity
  8
0
 62
7
100
AcDbLine
 10
3136.779935275081
 20
461.2509557249905
 30
0.0
 11
3136.779935275081
 21
465.7401682384747
 31
0.0
  0
ARC
  5
13F
330
2F
100
AcDbEntity
  8
0
 62
7
100
AcDbCircle
 10
3142.602298900843
 20
462.2920268932461
 30
0.0
 40
6.766801085244683
100
AcDbArc
 50
95.73502683583042
 51
149.3649801485432
  0
LINE
  5
140
330
2F
100
AcDbEntity
  8
0
 62
7
100
AcDbLine
 10
3141.926105717367
 20
469.0249578824878
 30
0.0
 11
3141.926105717367
 21
466.1781401910099
 31
0.0
  0
LINE
  5
141
330
2F
100
AcDbEntity
  8
0
 62
7
100
AcDbLine
 10
3141.926105717367
 20
466.1781401910099
 30
0.0
 11
3143.240021574973
 21
466.1781401910099
 31
0.0
  0
LINE
  5
142
330
2F
100
AcDbEntity
  8
0
 62
7
100
AcDbLine
 10
3143.240021574973
 20
466.1781401910099
 30
0.0
 11
3143.240021574973
 21
460.5939977961879
 31
0.0
  0
ARC
  5
143
330
2F
100
AcDbEntity
  8
0
 62
7
100
AcDbCircle
 10
3145.564401294498
 20
460.4665166742893
 30
0.0
 40
2.327872959802883
100
AcDbArc
 50
176.8607453522328
 51
258.5277355811653
  0
ARC
  5
144
330
2F
100
AcDbEntity
  8
0
 62
7
100
AcDbCircle
 10
3171.933625230027
 20
460.4200971679754
 30
0.0
 40
2.299497077125608
100
AcDbArc
 50
283.6080900417972
 51
4.337163188002143
  0
LINE
  5
145
330
2F
100
AcDbEntity
  8
0
 62
7
100
AcDbLine
 10
3174.226537216828
 20
460.5939977961879
 30
0.0
 11
3174.226537216828
 21
465.9591542147422
 31
0.0
  0
ARC
  5
146
330
2F
100
AcDbEntity
  8
0
 62
7
100
AcDbCircle
 10
3177.531234676866
 20
465.4714127221466
 30
0.0
 40
3.340496529855234
100
AcDbArc
 50
8.395694035765622
 51
171.6043059642344
  0
ARC
  5
147
330
2F
100
AcDbEntity
  8
0
 62
7
100
AcDbCircle
 10
3183.128844123704
 20
460.4200971679754
 30
0.0
 40
2.299497077125608
100
AcDbArc
 50
175.6628368119978
 51
256.3919099582029
  0
LINE
  5
148
330
2F
100
AcDbEntity
  8
0
 62
7
100
AcDbLine
 10
3180.835932136903
 20
460.5939977961879
 30
0.0
 11
3180.835932136903
 21
465.9591542147422
 31
0.0
  0
ARC
  5
149
330
2F
100
AcDbEntity
  8
0
 62
7
100
AcDbCircle
 10
3265.660246372271
 20
460.9895853662195
 30
0.0
 40
2.974878877205093
100
AcDbArc
 50
174.9595419661509
 51
250.5109105780085
  0
LINE
  5
14A
330
2F
100
AcDbEntity
  8
0
 62
7
100
AcDbLine
 10
3262.696871628911
 20
461.2509557249905
 30
0.0
 11
3262.696871628911
 21
465.7401682384747
 31
0.0
  0
ARC
  5
14B
330
2F
100
AcDbEntity
  8
0
 62
7
100
AcDbCircle
 10
3256.874508003149
 20
462.2920268932461
 30
0.0
 40
6.766801085244683
100
AcDbArc
 50
30.63501985146284
 51
84.26497316416956
  0
LINE
  5
14C
330
2F
100
AcDbEntity
  8
0
 62
7
100
AcDbLine
 10
3257.550701186623
 20
469.0249578824878
 30
0.0
 11
3257.550701186623
 21
466.1781401910099
 31
0.0
  0
LINE
  5
14D
330
2F
100
AcDbEntity
  8
0
 62
7
100
AcDbLine
 10
3257.550701186623
 20
466.1781401910099
 30
0.0
 11
3256.236785329019
 21
466.1781401910099
 31
0.0
  0
LINE
  5
14E
330
2F
100
AcDbEntity
  8
0
 62
7
100
AcDbLine
 10
3256.236785329019
 20
466.1781401910099
 30
0.0
 11
3256.236785329019
 21
460.5939977961879
 31
0.0
  0
ARC
  5
14F
330
2F
100
AcDbEntity
  8
0
 62
7
100
AcDbCircle
 10
3253.912405609493
 20
460.4665166742893
 30
0.0
 40
2.327872959802883
100
AcDbArc
 50
281.4722644188213
 51
3.139254647767127
  0
ARC
  5
150
330
2F
100
AcDbEntity
  8
0
 62
7
100
AcDbCircle
 10
3227.543181673964
 20
460.4200971679754
 30
0.0
 40
2.299497077125608
100
AcDbArc
 50
175.6628368119978
 51
256.3919099582029
  0
LINE
  5
151
330
2F
100
AcDbEntity
  8
0
 62
7
100
AcDbLine
 10
3225.250269687162
 20
460.5939977961879
 30
0.0
 11
3225.250269687162
 21
465.9591542147422
 31
0.0
  0
ARC
  5
152
330
2F
100
AcDbEntity
  8
0
 62
7
100
AcDbCircle
 10
3221.945572227126
 20
465.4714127221466
 30
0.0
 40
3.340496529855234
100
AcDbArc
 50
8.395694035765622
 51
171.6043059642344
  0
ARC
  5
153
330
2F
100
AcDbEntity
  8
0
 62
7
100
AcDbCircle
 10
3216.347962780286
 20
460.4200971679754
 30
0.0
 40
2.299497077125608
100
AcDbArc
 50
283.6080900417972
 51
4.337163188002143
  0
LINE
  5
154
330
2F
100
AcDbEntity
  8
0
 62
7
100
AcDbLine
 10
3218.640874767088
 20
460.5939977961879
 30
0.0
 11
3218.640874767088
 21
465.9591542147422
 31
0.0
  0
LINE
  5
155
330
2F
100
AcDbEntity
  8
0
 62
7
100
AcDbLine
 10
3144.334951456311
 20
623.7385501154974
 30
0.0
 11
3255.141855447681
 21
623.7385501154974
 31
0.0
  0
LINE
  5
156
330
2F
100
AcDbEntity
  8
0
 62
7
100
AcDbLine
 10
3144.334951456311
 20
496.0697259515277
 30
0.0
 11
3255.141855447681
 21
496.0697259515277
 31
0.0
  0
LINE
  5
157
330
2F
100
AcDbEntity
  8
0
 62
7
100
AcDbLine
 10
3155.174757281553
 20
626.2568888425741
 30
0.0
 11
3155.174757281553
 21
493.0039222837821
 31
0.0
  0
LINE
  5
158
330
2F
100
AcDbEntity
  8
0
 62
7
100
AcDbLine
 10
3155.174757281553
 20
585.0875253042784
 30
0.0
 11
3158.240560949298
 21
582.2407076128006
 31
0.0
  0
LINE
  5
159
330
2F
100
AcDbEntity
  8
0
 62
7
100
AcDbLine
 10
3158.240560949298
 20
582.2407076128006
 30
0.0
 11
3158.240560949298
 21
537.4580754660907
 31
0.0
  0
LINE
  5
15A
330
2F
100
AcDbEntity
  8
0
 62
7
100
AcDbLine
 10
3158.240560949298
 20
582.2407076128006
 30
0.0
 11
3155.174757281553
 21
582.2407076128006
 31
0.0
  0
LINE
  5
15B
330
2F
100
AcDbEntity
  8
0
 62
7
100
AcDbLine
 10
3155.174757281553
 20
534.611257774613
 30
0.0
 11
3158.240560949298
 21
537.4580754660907
 31
0.0
  0
LINE
  5
15C
330
2F
100
AcDbEntity
  8
0
 62
7
100
AcDbLine
 10
3158.240560949298
 20
537.4580754660907
 30
0.0
 11
3155.174757281553
 21
537.4580754660907
 31
0.0
  0
LINE
  5
15D
330
2F
100
AcDbEntity
  8
0
 62
7
100
AcDbLine
 10
3244.302049622438
 20
626.2568888425741
 30
0.0
 11
3244.302049622438
 21
493.0039222837821
 31
0.0
  0
LINE
  5
15E
330
2F
100
AcDbEntity
  8
0
 62
7
100
AcDbLine
 10
3244.302049622438
 20
585.0875253042784
 30
0.0
 11
3241.236245954692
 21
582.2407076128006
 31
0.0
  0
LINE
  5
15F
330
2F
100
AcDbEntity
  8
0
 62
7
100
AcDbLine
 10
3241.236245954692
 20
582.2407076128006
 30
0.0
 11
3241.236245954692
 21
537.4580754660907
 31
0.0
  0
LINE
  5
160
330
2F
100
AcDbEntity
  8
0
 62
7
100
AcDbLine
 10
3241.236245954692
 20
582.2407076128006
 30
0.0
 11
3244.302049622438
 21
582.2407076128006
 31
0.0
  0
LINE
  5
161
330
2F
100
AcDbEntity
  8
0
 62
7
100
AcDbLine
 10
3244.302049622438
 20
534.611257774613
 30
0.0
 11
3241.236245954692
 21
537.4580754660907
 31
0.0
  0
LINE
  5
162
330
2F
100
AcDbEntity
  8
0
 62
7
100
AcDbLine
 10
3241.236245954692
 20
537.4580754660907
 30
0.0
 11
3244.302049622438
 21
537.4580754660907
 31
0.0
  0
LWPOLYLINE
  5
163
330
2F
100
AcDbEntity
  8
0
 62
7
100
AcDbPolyline
 90
4
 70
1
 10
3189.117583603021
 20
582.0217216365331
 10
3211.016181229773
 20
582.0217216365331
 10
3211.016181229773
 20
568.8825630604813
 10
3189.117583603021
 20
568.8825630604813
  0
LINE
  5
164
330
2F
100
AcDbEntity
  8
0
 62
7
100
AcDbLine
 10
3211.016181229773
 20
568.8825630604813
 30
0.0
 11
3213.972491909384
 21
568.8825630604813
 31
0.0
  0
LINE
  5
165
330
2F
100
AcDbEntity
  8
0
 62
7
100
AcDbLine
 10
3213.972491909384
 20
568.8825630604813
 30
0.0
 11
3213.972491909384
 21
545.5605565879893
 31
0.0
  0
LINE
  5
166
330
2F
100
AcDbEntity
  8
0
 62
7
100
AcDbLine
 10
3213.972491909384
 20
545.5605565879893
 30
0.0
 11
3219.66612729234
 21
545.5605565879893
 31
0.0
  0
LINE
  5
167
330
2F
100
AcDbEntity
  8
0
 62
7
100
AcDbLine
 10
3219.66612729234
 20
545.5605565879893
 30
0.0
 11
3219.66612729234
 21
536.8011175372883
 31
0.0
  0
LINE
  5
168
330
2F
100
AcDbEntity
  8
0
 62
7
100
AcDbLine
 10
3219.66612729234
 20
536.8011175372883
 30
0.0
 11
3180.248651564185
 21
536.8011175372883
 31
0.0
  0
LINE
  5
169
330
2F
100
AcDbEntity
  8
0
 62
7
100
AcDbLine
 10
3180.248651564185
 20
536.8011175372883
 30
0.0
 11
3180.248651564185
 21
545.4510635998556
 31
0.0
  0
LINE
  5
16A
330
2F
100
AcDbEntity
  8
0
 62
7
100
AcDbLine
 10
3180.248651564185
 20
545.4510635998556
 30
0.0
 11
3186.270765911543
 21
545.4510635998556
 31
0.0
  0
LINE
  5
16B
330
2F
100
AcDbEntity
  8
0
 62
7
100
AcDbLine
 10
3186.270765911543
 20
545.4510635998556
 30
0.0
 11
3186.270765911543
 21
568.8825630604813
 31
0.0
  0
LINE
  5
16C
330
2F
100
AcDbEntity
  8
0
 62
7
100
AcDbLine
 10
3186.270765911543
 20
568.8825630604813
 30
0.0
 11
3189.117583603021
 21
568.8825630604813
 31
0.0
  0
LINE
  5
16D
330
2F
100
AcDbEntity
  8
0
 62
7
100
AcDbLine
 10
3186.270765911543
 20
550.9257130065439
 30
0.0
 11
3213.972491909384
 21
550.9257130065439
 31
0.0
  0
LWPOLYLINE
  5
16E
330
2F
100
AcDbEntity
  8
0
 62
7
100
AcDbPolyline
 90
4
 70
1
 10
3158.240560949298
 20
569.977492941819
 10
3184.080906148868
 20
569.977492941819
 10
3184.080906148868
 20
549.6117971489386
 10
3158.240560949298
 20
549.6117971489386
  0
LWPOLYLINE
  5
16F
330
2F
100
AcDbEntity
  8
0
 62
7
100
AcDbPolyline
 90
4
 70
1
 10
3215.943365695793
 20
569.7585069655515
 10
3241.236245954692
 20
569.7585069655515
 10
3241.236245954692
 20
550.1592620896074
 10
3215.943365695793
 20
550.1592620896074
  0
LINE
  5
170
330
2F
100
AcDbEntity
  8
0
 62
7
100
AcDbLine
 10
3191.964401294498
 20
582.0217216365331
 30
0.0
 11
3191.964401294498
 21
583.1166515178707
 31
0.0
  0
LINE
  5
171
330
2F
100
AcDbEntity
  8
0
 62
7
100
AcDbLine
 10
3191.964401294498
 20
583.1166515178707
 30
0.0
 11
3188.351132686083
 21
583.1166515178707
 31
0.0
  0
LINE
  5
172
330
2F
100
AcDbEntity
  8
0
 62
7
100
AcDbLine
 10
3188.351132686083
 20
583.1166515178707
 30
0.0
 11
3188.351132686083
 21
576.6565652179784
 31
0.0
  0
LINE
  5
173
330
2F
100
AcDbEntity
  8
0
 62
7
100
AcDbLine
 10
3188.351132686083
 20
576.6565652179784
 30
0.0
 11
3189.117583603021
 21
576.6565652179784
 31
0.0
  0
LINE
  5
174
330
2F
100
AcDbEntity
  8
0
 62
7
100
AcDbLine
 10
3208.169363538296
 20
582.0217216365331
 30
0.0
 11
3208.169363538296
 21
583.1166515178707
 31
0.0
  0
LINE
  5
175
330
2F
100
AcDbEntity
  8
0
 62
7
100
AcDbLine
 10
3208.169363538296
 20
583.1166515178707
 30
0.0
 11
3211.78263214671
 21
583.1166515178707
 31
0.0
  0
LINE
  5
176
330
2F
100
AcDbEntity
  8
0
 62
7
100
AcDbLine
 10
3211.78263214671
 20
583.1166515178707
 30
0.0
 11
3211.78263214671
 21
576.6565652179784
 31
0.0
  0
LINE
  5
177
330
2F
100
AcDbEntity
  8
0
 62
7
100
AcDbLine
 10
3211.78263214671
 20
576.6565652179784
 30
0.0
 11
3211.016181229773
 21
576.6565652179784
 31
0.0
  0
LINE
  5
178
330
2F
100
AcDbEntity
  8
0
 62
7
100
AcDbLine
 10
3213.972491909384
 20
546.5459934811932
 30
0.0
 11
3220.432578209277
 21
546.5459934811932
 31
0.0
  0
LINE
  5
179
330
2F
100
AcDbEntity
  8
0
 62
7
100
AcDbLine
 10
3220.432578209277
 20
546.5459934811932
 30
0.0
 11
3220.432578209277
 21
540.4143861457023
 31
0.0
  0
LINE
  5
17A
330
2F
100
AcDbEntity
  8
0
 62
7
100
AcDbLine
 10
3220.432578209277
 20
540.4143861457023
 30
0.0
 11
3219.66612729234
 21
540.4143861457023
 31
0.0
  0
LINE
  5
17B
330
2F
100
AcDbEntity
  8
0
 62
7
100
AcDbLine
 10
3186.270765911543
 20
546.5459934811932
 30
0.0
 11
3179.482200647249
 21
546.5459934811932
 31
0.0
  0
LINE
  5
17C
330
2F
100
AcDbEntity
  8
0
 62
7
100
AcDbLine
 10
3179.482200647249
 20
546.5459934811932
 30
0.0
 11
3179.482200647249
 21
540.4143861457023
 31
0.0
  0
LINE
  5
17D
330
2F
100
AcDbEntity
  8
0
 62
7
100
AcDbLine
 10
3179.482200647249
 20
540.4143861457023
 30
0.0
 11
3180.248651564185
 21
540.4143861457023
 31
0.0
  0
MTEXT
  5
17E
330
2F
100
AcDbEntity
  8
0
 62
3
100
AcDbMText
 10
3182.980016521524
 20
544.4229558587647
 30
0.0
 40
4.0
 41
34.46280979994299
 46
0.0
 71
1
 72
5
  1
{\fTimes New Roman|b0|i0|c0|p18;MC-185a/225a}
  7
ss
101
Embedded Object
 70
1
 10
1.0
 20
0.0
 30
0.0
 11
3182.980016521524
 21
544.4229558587647
 31
0.0
 40
34.46280979994299
 41
0.0
 42
34.46280979994299
 43
0.0
 71
2
 72
1
 44
34.46280979994299
 45
12.5
 73
0
 74
0
 46
0.0
  0
MTEXT
  5
17F
330
2F
100
AcDbEntity
  8
0
 62
3
100
AcDbMText
 10
3172.942826321467
 20
632.4229558587647
 30
0.0
 40
4.0
 41
11.5
 46
0.0
 71
1
 72
5
  1
{\fTimes New Roman|b0|i0|c0|p18;A1}
  7
ss
101
Embedded Object
 70
1
 10
1.0
 20
0.0
 30
0.0
 11
3172.942826321467
 21
632.4229558587647
 31
0.0
 40
11.5
 41
0.0
 42
11.5
 43
0.0
 71
2
 72
1
 44
11.5
 45
12.5
 73
0
 74
0
 46
0.0
  0
MTEXT
  5
180
330
2F
100
AcDbEntity
  8
0
 62
3
100
AcDbMText
 10
3219.442826321468
 20
632.4229558587647
 30
0.0
 40
4.0
 41
11.5
 46
0.0
 71
1
 72
5
  1
{\fTimes New Roman|b0|i0|c0|p18;A2}
  7
ss
101
Embedded Object
 70
1
 10
1.0
 20
0.0
 30
0.0
 11
3219.442826321468
 21
632.4229558587647
 31
0.0
 40
11.5
 41
0.0
 42
11.5
 43
0.0
 71
2
 72
1
 44
11.5
 45
12.5
 73
0
 74
0
 46
0.0
  0
MTEXT
  5
181
330
2F
100
AcDbEntity
  8
0
 62
3
100
AcDbMText
 10
3157.442826321468
 20
618.7326169979139
 30
0.0
 40
4.0
 41
21.5
 46
0.0
 71
1
 72
5
  1
\A1;{\fTimes New Roman|b0|i0|c0|p18;R/1 /L1}
  7
ss
101
Embedded Object
 70
1
 10
1.0
 20
0.0
 30
0.0
 11
3157.442826321468
 21
618.7326169979139
 31
0.0
 40
21.5
 41
0.0
 42
21.5
 43
0.0
 71
2
 72
1
 44
21.5
 45
12.5
 73
0
 74
0
 46
0.0
  0
MTEXT
  5
182
330
2F
100
AcDbEntity
  8
0
 62
3
100
AcDbMText
 10
3189.942826321467
 20
618.7326169979139
 30
0.0
 40
4.0
 41
21.5
 46
0.0
 71
1
 72
5
  1
\A1;{\fTimes New Roman|b0|i0|c0|p18;S/3 /L2}
  7
ss
101
Embedded Object
 70
1
 10
1.0
 20
0.0
 30
0.0
 11
3189.942826321467
 21
618.7326169979139
 31
0.0
 40
21.5
 41
0.0
 42
21.5
 43
0.0
 71
2
 72
1
 44
21.5
 45
12.5
 73
0
 74
0
 46
0.0
  0
MTEXT
  5
183
330
2F
100
AcDbEntity
  8
0
 62
3
100
AcDbMText
 10
3223.942826321467
 20
618.7326169979139
 30
0.0
 40
4.0
 41
21.5
 46
0.0
 71
1
 72
5
  1
\A1;{\fTimes New Roman|b0|i0|c0|p18;T/5 /L3}
  7
ss
101
Embedded Object
 70
1
 10
1.0
 20
0.0
 30
0.0
 11
3223.942826321467
 21
618.7326169979139
 31
0.0
 40
21.5
 41
0.0
 42
21.5
 43
0.0
 71
2
 72
1
 44
21.5
 45
12.5
 73
0
 74
0
 46
0.0
  0
MTEXT
  5
184
330
2F
100
AcDbEntity
  8
0
 62
3
100
AcDbMText
 10
3158.238403451996
 20
507.0697259515276
 30
0.0
 40
4.0
 41
21.5
 46
0.0
 71
1
 72
5
  1
\A1;\pt20;{\fTimes New Roman|b0|i0|c0|p18;U/2 /T1}
  7
ss
101
Embedded Object
 70
1
 10
1.0
 20
0.0
 30
0.0
 11
3158.238403451996
 21
507.0697259515276
 31
0.0
 40
21.5
 41
0.0
 42
21.5
 43
0.0
 71
2
 72
1
 44
21.5
 45
12.5
 73
0
 74
0
 46
0.0
  0
MTEXT
  5
185
330
2F
100
AcDbEntity
  8
0
 62
3
100
AcDbMText
 10
3190.738403451996
 20
507.0697259515276
 30
0.0
 40
4.0
 41
21.5
 46
0.0
 71
1
 72
5
  1
\A1;{\fTimes New Roman|b0|i0|c0|p18;V/4 /T2}
  7
ss
101
Embedded Object
 70
1
 10
1.0
 20
0.0
 30
0.0
 11
3190.738403451996
 21
507.0697259515276
 31
0.0
 40
21.5
 41
0.0
 42
21.5
 43
0.0
 71
2
 72
1
 44
21.5
 45
12.5
 73
0
 74
0
 46
0.0
  0
MTEXT
  5
186
330
2F
100
AcDbEntity
  8
0
 62
3
100
AcDbMText
 10
3224.738403451996
 20
507.0697259515276
 30
0.0
 40
4.0
 41
21.5
 46
0.0
 71
1
 72
5
  1
\A1;{\fTimes New Roman|b0|i0|c0|p18;W/6 /T3}
  7
ss
101
Embedded Object
 70
1
 10
1.0
 20
0.0
 30
0.0
 11
3224.738403451996
 21
507.0697259515276
 31
0.0
 40
21.5
 41
0.0
 42
21.5
 43
0.0
 71
2
 72
1
 44
21.5
 45
12.5
 73
0
 74
0
 46
0.0
  0
MTEXT
  5
187
330
2F
100
AcDbEntity
  8
0
 62
3
100
AcDbMText
 10
3148.442826321467
 20
584.9229558587646
 30
0.0
 40
3.0
 41
5.0
 46
0.0
 71
1
 72
5
  1
{\fTimes New Roman|b0|i0|c0|p18;13}
  7
ss
101
Embedded Object
 70
1
 10
1.0
 20
0.0
 30
0.0
 11
3148.442826321467
 21
584.9229558587646
 31
0.0
 40
5.0
 41
0.0
 42
5.0
 43
0.0
 71
2
 72
1
 44
5.0
 45
12.5
 73
0
 74
0
 46
0.0
  0
MTEXT
  5
188
330
2F
100
AcDbEntity
  8
0
 62
3
100
AcDbMText
 10
3148.442826321467
 20
575.9229558587646
 30
0.0
 40
3.0
 41
5.0
 46
0.0
 71
1
 72
5
  1
{\fTimes New Roman|b0|i0|c0|p18;21}
  7
ss
101
Embedded Object
 70
1
 10
1.0
 20
0.0
 30
0.0
 11
3148.442826321467
 21
575.9229558587646
 31
0.0
 40
5.0
 41
0.0
 42
5.0
 43
0.0
 71
2
 72
1
 44
5.0
 45
12.5
 73
0
 74
0
 46
0.0
  0
MTEXT
  5
189
330
2F
100
AcDbEntity
  8
0
 62
3
100
AcDbMText
 10
3148.442826321467
 20
545.9229558587646
 30
0.0
 40
3.0
 41
5.0
 46
0.0
 71
1
 72
5
  1
{\fTimes New Roman|b0|i0|c0|p18;22}
  7
ss
101
Embedded Object
 70
1
 10
1.0
 20
0.0
 30
0.0
 11
3148.442826321467
 21
545.9229558587646
 31
0.0
 40
5.0
 41
0.0
 42
5.0
 43
0.0
 71
2
 72
1
 44
5.0
 45
12.5
 73
0
 74
0
 46
0.0
  0
MTEXT
  5
18A
330
2F
100
AcDbEntity
  8
0
 62
3
100
AcDbMText
 10
3148.442826321467
 20
537.4229558587646
 30
0.0
 40
3.0
 41
5.0
 46
0.0
 71
1
 72
5
  1
{\fTimes New Roman|b0|i0|c0|p18;14}
  7
ss
101
Embedded Object
 70
1
 10
1.0
 20
0.0
 30
0.0
 11
3148.442826321467
 21
537.4229558587646
 31
0.0
 40
5.0
 41
0.0
 42
5.0
 43
0.0
 71
2
 72
1
 44
5.0
 45
12.5
 73
0
 74
0
 46
0.0
  0
MTEXT
  5
18B
330
2F
100
AcDbEntity
  8
0
 62
3
100
AcDbMText
 10
3248.409924487595
 20
584.9229558587646
 30
0.0
 40
3.0
 41
5.0
 46
0.0
 71
1
 72
5
  1
{\fTimes New Roman|b0|i0|c0|p18;43}
  7
ss
101
Embedded Object
 70
1
 10
1.0
 20
0.0
 30
0.0
 11
3248.409924487595
 21
584.9229558587646
 31
0.0
 40
5.0
 41
0.0
 42
5.0
 43
0.0
 71
2
 72
1
 44
5.0
 45
12.5
 73
0
 74
0
 46
0.0
  0
MTEXT
  5
18C
330
2F
100
AcDbEntity
  8
0
 62
3
100
AcDbMText
 10
3248.409924487595
 20
575.9229558587646
 30
0.0
 40
3.0
 41
5.0
 46
0.0
 71
1
 72
5
  1
{\fTimes New Roman|b0|i0|c0|p18;31}
  7
ss
101
Embedded Object
 70
1
 10
1.0
 20
0.0
 30
0.0
 11
3248.409924487595
 21
575.9229558587646
 31
0.0
 40
5.0
 41
0.0
 42
5.0
 43
0.0
 71
2
 72
1
 44
5.0
 45
12.5
 73
0
 74
0
 46
0.0
  0
MTEXT
  5
18D
330
2F
100
AcDbEntity
  8
0
 62
3
100
AcDbMText
 10
3248.409924487595
 20
545.9229558587646
 30
0.0
 40
3.0
 41
5.0
 46
0.0
 71
1
 72
5
  1
{\fTimes New Roman|b0|i0|c0|p18;32}
  7
ss
101
Embedded Object
 70
1
 10
1.0
 20
0.0
 30
0.0
 11
3248.409924487595
 21
545.9229558587646
 31
0.0
 40
5.0
 41
0.0
 42
5.0
 43
0.0
 71
2
 72
1
 44
5.0
 45
12.5
 73
0
 74
0
 46
0.0
  0
MTEXT
  5
18E
330
2F
100
AcDbEntity
  8
0
 62
3
100
AcDbMText
 10
3248.409924487595
 20
537.4229558587646
 30
0.0
 40
3.0
 41
5.0
 46
0.0
 71
1
 72
5
  1
{\fTimes New Roman|b0|i0|c0|p18;44}
  7
ss
101
Embedded Object
 70
1
 10
1.0
 20
0.0
 30
0.0
 11
3248.409924487595
 21
537.4229558587646
 31
0.0
 40
5.0
 41
0.0
 42
5.0
 43
0.0
 71
2
 72
1
 44
5.0
 45
12.5
 73
0
 74
0
 46
0.0
  0
MTEXT
  5
18F
330
2F
100
AcDbEntity
  8
0
 62
3
100
AcDbMText
 10
3148.442826321467
 20
479.732616997914
 30
0.0
 40
4.0
 41
5.0
 46
0.0
 71
1
 72
5
  1
{\fTimes New Roman|b0|i0|c0|p18;M10}
  7
ss
101
Embedded Object
 70
1
 10
1.0
 20
0.0
 30
0.0
 11
3148.442826321467
 21
479.732616997914
 31
0.0
 40
5.0
 41
0.0
 42
5.0
 43
0.0
 71
2
 72
1
 44
5.0
 45
12.5
 73
0
 74
0
 46
0.0
  0
ENDBLK
  5
31
330
2F
100
AcDbEntity
  8
0
100
AcDbBlockEnd
  0
ENDSEC
  0
SECTION
  2
ENTITIES
  0
INSERT
  5
191
330
17
100
AcDbEntity
  8
0
100
AcDbBlockReference
  2
MC 185a
 10
-3130.976806903991
 20
-458.18515205724475
 30
0.0
  0
ENDSEC
  0
SECTION
  2
OBJECTS
  0
DICTIONARY
  5
A
330
0
100
AcDbDictionary
281
1
  3
ACAD_COLOR
350
B
  3
ACAD_GROUP
350
C
  3
ACAD_LAYOUT
350
D
  3
ACAD_MATERIAL
350
E
  3
ACAD_MLEADERSTYLE
350
F
  3
ACAD_MLINESTYLE
350
10
  3
ACAD_PLOTSETTINGS
350
11
  3
ACAD_PLOTSTYLENAME
350
12
  3
ACAD_SCALELIST
350
14
  3
ACAD_TABLESTYLE
350
15
  3
ACAD_VISUALSTYLE
350
16
  3
EZDXF_META
350
2D
  0
DICTIONARY
  5
B
330
A
100
AcDbDictionary
281
1
  0
DICTIONARY
  5
C
330
A
100
AcDbDictionary
281
1
  0
DICTIONARY
  5
D
330
A
100
AcDbDictionary
281
1
  3
Model
350
1A
  3
Layout1
350
1E
  0
DICTIONARY
  5
E
330
A
100
AcDbDictionary
281
1
  3
ByBlock
350
1F
  3
ByLayer
350
20
  3
Global
350
21
  0
DICTIONARY
  5
F
330
A
100
AcDbDictionary
281
1
  3
Standard
350
2C
  0
DICTIONARY
  5
10
330
A
100
AcDbDictionary
281
1
  3
Standard
350
22
  0
DICTIONARY
  5
11
330
A
100
AcDbDictionary
281
1
  0
ACDBDICTIONARYWDFLT
  5
12
330
A
100
AcDbDictionary
281
1
  3
Normal
350
13
100
AcDbDictionaryWithDefault
340
13
  0
ACDBPLACEHOLDER
  5
13
330
12
  0
DICTIONARY
  5
14
330
A
100
AcDbDictionary
281
1
  0
DICTIONARY
  5
15
330
A
100
AcDbDictionary
281
1
  0
DICTIONARY
  5
16
330
A
100
AcDbDictionary
281
1
  0
LAYOUT
  5
1A
330
D
100
AcDbPlotSettings
  1

  4
A3
  6

 40
7.5
 41
20.0
 42
7.5
 43
20.0
 44
420.0
 45
297.0
 46
0.0
 47
0.0
 48
0.0
 49
0.0
140
0.0
141
0.0
142
1.0
143
1.0
 70
1024
 72
1
 73
0
 74
5
  7

 75
16
 76
0
 77
2
 78
300
147
1.0
148
0.0
149
0.0
100
AcDbLayout
  1
Model
 70
1
 71
0
 10
0.0
 20
0.0
 11
420.0
 21
297.0
 12
0.0
 22
0.0
 32
0.0
 14
1e+20
 24
1e+20
 34
1e+20
 15
-1e+20
 25
-1e+20
 35
-1e+20
146
0.0
 13
0.0
 23
0.0
 33
0.0
 16
1.0
 26
0.0
 36
0.0
 17
0.0
 27
1.0
 37
0.0
 76
1
330
17
  0
LAYOUT
  5
1E
330
D
100
AcDbPlotSettings
  1

  4
A3
  6

 40
7.5
 41
20.0
 42
7.5
 43
20.0
 44
420.0
 45
297.0
 46
0.0
 47
0.0
 48
0.0
 49
0.0
140
0.0
141
0.0
142
1.0
143
1.0
 70
0
 72
1
 73
0
 74
5
  7

 75
16
 76
0
 77
2
 78
300
147
1.0
148
0.0
149
0.0
100
AcDbLayout
  1
Layout1
 70
1
 71
1
 10
0.0
 20
0.0
 11
420.0
 21
297.0
 12
0.0
 22
0.0
 32
0.0
 14
1e+20
 24
1e+20
 34
1e+20
 15
-1e+20
 25
-1e+20
 35
-1e+20
146
0.0
 13
0.0
 23
0.0
 33
0.0
 16
1.0
 26
0.0
 36
0.0
 17
0.0
 27
1.0
 37
0.0
 76
1
330
1B
  0
MATERIAL
  5
1F
102
{ACAD_REACTORS
330
E
102
}
330
E
100
AcDbMaterial
  1
ByBlock
  2

 70
0
 40
1.0
 71
1
 41
1.0
 91
-1023410177
 42
1.0
 72
1
  3

 73
1
 74
1
 75
1
 44
0.5
 73
0
 45
1.0
 46
1.0
 77
1
  4

 78
1
 79
1
170
1
 48
1.0
171
1
  6

172
1
173
1
174
1
140
1.0
141
1.0
175
1
  7

176
1
177
1
178
1
143
1.0
179
1
  8

270
1
271
1
272
1
145
1.0
146
1.0
273
1
  9

274
1
275
1
276
1
 42
1.0
 72
1
  3

 73
1
 74
1
 75
1
 94
63
  0
MATERIAL
  5
20
102
{ACAD_REACTORS
330
E
102
}
330
E
100
AcDbMaterial
  1
ByLayer
  2

 70
0
 40
1.0
 71
1
 41
1.0
 91
-1023410177
 42
1.0
 72
1
  3

 73
1
 74
1
 75
1
 44
0.5
 73
0
 45
1.0
 46
1.0
 77
1
  4

 78
1
 79
1
170
1
 48
1.0
171
1
  6

172
1
173
1
174
1
140
1.0
141
1.0
175
1
  7

176
1
177
1
178
1
143
1.0
179
1
  8

270
1
271
1
272
1
145
1.0
146
1.0
273
1
  9

274
1
275
1
276
1
 42
1.0
 72
1
  3

 73
1
 74
1
 75
1
 94
63
  0
MATERIAL
  5
21
102
{ACAD_REACTORS
330
E
102
}
330
E
100
AcDbMaterial
  1
Global
  2

 70
0
 40
1.0
 71
1
 41
1.0
 91
-1023410177
 42
1.0
 72
1
  3

 73
1
 74
1
 75
1
 44
0.5
 73
0
 45
1.0
 46
1.0
 77
1
  4

 78
1
 79
1
170
1
 48
1.0
171
1
  6

172
1
173
1
174
1
140
1.0
141
1.0
175
1
  7

176
1
177
1
178
1
143
1.0
179
1
  8

270
1
271
1
272
1
145
1.0
146
1.0
273
1
  9

274
1
275
1
276
1
 42
1.0
 72
1
  3

 73
1
 74
1
 75
1
 94
63
  0
MLINESTYLE
  5
22
102
{ACAD_REACTORS
330
10
102
}
330
10
100
AcDbMlineStyle
  2
Standard
 70
0
  3

 62
256
 51
90.0
 52
90.0
 71
2
 49
0.5
 62
256
  6
BYLAYER
 49
-0.5
 62
256
  6
BYLAYER
  0
MLEADERSTYLE
  5
2C
102
{ACAD_REACTORS
330
F
102
}
330
F
100
AcDbMLeaderStyle
179
2
170
2
171
1
172
0
 90
2
 40
0.0
 41
0.0
173
1
 91
-1056964608
 92
-2
290
1
 42
2.0
291
1
 43
8.0
  3
Standard
 44
4.0
300

342
29
174
1
175
1
176
0
178
1
 93
-1056964608
 45
4.0
292
0
297
0
 46
4.0
 94
-1056964608
 47
1.0
 49
1.0
140
1.0
294
1
141
0.0
177
0
142
1.0
295
0
296
0
143
3.75
271
0
272
9
273
9
  0
DICTIONARY
  5
2D
330
A
100
AcDbDictionary
280
1
281
1
  3
CREATED_BY_EZDXF
350
2E
  3
WRITTEN_BY_EZDXF
350
195
  0
DICTIONARYVAR
  5
2E
330
2D
100
DictionaryVariables
280
0
  1
1.4.4 @ 2026-09-23T17:58:24.155304+00:00
  0
DICTIONARYVAR
  5
195
330
2D
100
DictionaryVariables
280
0
  1
1.4.4 @ 2026-09-23T17:58:24.337464+00:00
  0
ENDSEC
  0
EOF
