  0
SECTION
  2
HEADER
  9
$ACADVER
  1
AC1032
  9
$ACADMAINTVER
 90
4
  9
$DWGCODEPAGE
  3
ANSI_1252
  9
$LASTSAVEDBY
  1
ezdxf
  9
$REQUIREDVERSIONS
160
0
  9
$INSBASE
 10
0.0
 20
0.0
 30
0.0
  9
$EXTMIN
 10
1e+20
 20
1e+20
 30
1e+20
  9
$EXTMAX
 10
-1e+20
 20
-1e+20
 30
-1e+20
  9
$LIMMIN
 10
0.0
 20
0.0
  9
$LIMMAX
 10
420.0
 20
297.0
  9
$ORTHOMODE
 70
0
  9
$REGENMODE
 70
1
  9
$FILLMODE
 70
1
  9
$QTEXTMODE
 70
0
  9
$MIRRTEXT
 70
1
  9
$LTSCALE
 40
1.0
  9
$ATTMODE
 70
1
  9
$TEXTSIZE
 40
2.5
  9
$TRACEWID
 40
1.0
  9
$TEXTSTYLE
  7
Standard
  9
$CLAYER
  8
0
  9
$CELTYPE
  6
ByLayer
  9
$CECOLOR
 62
256
  9
$CELTSCALE
 40
1.0
  9
$DISPSILH
 70
0
  9
$DIMSCALE
 40
1.0
  9
$DIMASZ
 40
2.5
  9
$DIMEXO
 40
0.625
  9
$DIMDLI
 40
3.75
  9
$DIMRND
 40
0.0
  9
$DIMDLE
 40
0.0
  9
$DIMEXE
 40
1.25
  9
$DIMTP
 40
0.0
  9
$DIMTM
 40
0.0
  9
$DIMTXT
 40
2.5
  9
$DIMCEN
 40
2.5
  9
$DIMTSZ
 40
0.0
  9
$DIMTOL
 70
0
  9
$DIMLIM
 70
0
  9
$DIMTIH
 70
0
  9
$DIMTOH
 70
0
  9
$DIMSE1
 70
0
  9
$DIMSE2
 70
0
  9
$DIMTAD
 70
1
  9
$DIMZIN
 70
8
  9
$DIMBLK
  1

  9
$DIMASO
 70
1
  9
$DIMSHO
 70
1
  9
$DIMPOST
  1

  9
$DIMAPOST
  1

  9
$DIMALT
 70
0
  9
$DIMALTD
 70
3
  9
$DIMALTF
 40
0.03937007874
  9
$DIMLFAC
 40
1.0
  9
$DIMTOFL
 70
1
  9
$DIMTVP
 40
0.0
  9
$DIMTIX
 70
0
  9
$DIMSOXD
 70
0
  9
$DIMSAH
 70
0
  9
$DIMBLK1
  1

  9
$DIMBLK2
  1

  9
$DIMSTYLE
  2
ISO-25
  9
$DIMCLRD
 70
0
  9
$DIMCLRE
 70
0
  9
$DIMCLRT
 70
0
  9
$DIMTFAC
 40
1.0
  9
$DIMGAP
 40
0.625
  9
$DIMJUST
 70
0
  9
$DIMSD1
 70
0
  9
$DIMSD2
 70
0
  9
$DIMTOLJ
 70
0
  9
$DIMTZIN
 70
8
  9
$DIMALTZ
 70
0
  9
$DIMALTTZ
 70
0
  9
$DIMUPT
 70
0
  9
$DIMDEC
 70
2
  9
$DIMTDEC
 70
2
  9
$DIMALTU
 70
2
  9
$DIMALTTD
 70
3
  9
$DIMTXSTY
  7
Standard
  9
$DIMAUNIT
 70
0
  9
$DIMADEC
 70
0
  9
$DIMALTRND
 40
0.0
  9
$DIMAZIN
 70
0
  9
$DIMDSEP
 70
44
  9
$DIMATFIT
 70
3
  9
$DIMFRAC
 70
0
  9
$DIMLDRBLK
  1

  9
$DIMLUNIT
 70
2
  9
$DIMLWD
 70
-2
  9
$DIMLWE
 70
-2
  9
$DIMTMOVE
 70
0
  9
$DIMFXL
 40
1.0
  9
$DIMFXLON
 70
0
  9
$DIMJOGANG
 40
0.785398163397
  9
$DIMTFILL
 70
0
  9
$DIMTFILLCLR
 70
0
  9
$DIMARCSYM
 70
0
  9
$DIMLTYPE
  6

  9
$DIMLTEX1
  6

  9
$DIMLTEX2
  6

  9
$DIMTXTDIRECTION
 70
0
  9
$LUNITS
 70
2
  9
$LUPREC
 70
4
  9
$SKETCHINC
 40
1.0
  9
$FILLETRAD
 40
10.0
  9
$AUNITS
 70
0
  9
$AUPREC
 70
2
  9
$MENU
  1
.
  9
$ELEVATION
 40
0.0
  9
$PELEVATION
 40
0.0
  9
$THICKNESS
 40
0.0
  9
$LIMCHECK
 70
0
  9
$CHAMFERA
 40
0.0
  9
$CHAMFERB
 40
0.0
  9
$CHAMFERC
 40
0.0
  9
$CHAMFERD
 40
0.0
  9
$SKPOLY
 70
0
  9
$TDCREATE
 40
2461308.04056713
  9
$TDUCREATE
 40
2458532.153996898
  9
$TDUPDATE
 40
2461308.040578704
  9
$TDUUPDATE
 40
2458532.1544311
  9
$TDINDWG
 40
0.0
  9
$TDUSRTIMER
 40
0.0
  9
$USRTIMER
 70
1
  9
$ANGBASE
 50
0.0
  9
$ANGDIR
 70
0
  9
$PDMODE
 70
0
  9
$PDSIZE
 40
0.0
  9
$PLINEWID
 40
0.0
  9
$SPLFRAME
 70
0
  9
$SPLINETYPE
 70
6
  9
$SPLINESEGS
 70
8
  9
$HANDSEED
  5
1AD
  9
$SURFTAB1
 70
6
  9
$SURFTAB2
 70
6
  9
$SURFTYPE
 70
6
  9
$SURFU
 70
6
  9
$SURFV
 70
6
  9
$UCSBASE
  2

  9
$UCSNAME
  2

  9
$UCSORG
 10
0.0
 20
0.0
 30
0.0
  9
$UCSXDIR
 10
1.0
 20
0.0
 30
0.0
  9
$UCSYDIR
 10
0.0
 20
1.0
 30
0.0
  9
$UCSORTHOREF
  2

  9
$UCSORTHOVIEW
 70
0
  9
$UCSORGTOP
 10
0.0
 20
0.0
 30
0.0
  9
$UCSORGBOTTOM
 10
0.0
 20
0.0
 30
0.0
  9
$UCSORGLEFT
 10
0.0
 20
0.0
 30
0.0
  9
$UCSORGRIGHT
 10
0.0
 20
0.0
 30
0.0
  9
$UCSORGFRONT
 10
0.0
 20
0.0
 30
0.0
  9
$UCSORGBACK
 10
0.0
 20
0.0
 30
0.0
  9
$PUCSBASE
  2

  9
$PUCSNAME
  2

  9
$PUCSORG
 10
0.0
 20
0.0
 30
0.0
  9
$PUCSXDIR
 10
1.0
 20
0.0
 30
0.0
  9
$PUCSYDIR
 10
0.0
 20
1.0
 30
0.0
  9
$PUCSORTHOREF
  2

  9
$PUCSORTHOVIEW
 70
0
  9
$PUCSORGTOP
 10
0.0
 20
0.0
 30
0.0
  9
$PUCSORGBOTTOM
 10
0.0
 20
0.0
 30
0.0
  9
$PUCSORGLEFT
 10
0.0
 20
0.0
 30
0.0
  9
$PUCSORGRIGHT
 10
0.0
 20
0.0
 30
0.0
  9
$PUCSORGFRONT
 10
0.0
 20
0.0
 30
0.0
  9
$PUCSORGBACK
 10
0.0
 20
0.0
 30
0.0
  9
$USERI1
 70
0
  9
$USERI2
 70
0
  9
$USERI3
 70
0
  9
$USERI4
 70
0
  9
$USERI5
 70
0
  9
$USERR1
 40
0.0
  9
$USERR2
 40
0.0
  9
$USERR3
 40
0.0
  9
$USERR4
 40
0.0
  9
$USERR5
 40
0.0
  9
$WORLDVIEW
 70
1
  9
$SHADEDGE
 70
3
  9
$SHADEDIF
 70
70
  9
$TILEMODE
 70
1
  9
$MAXACTVP
 70
64
  9
$PINSBASE
 10
0.0
 20
0.0
 30
0.0
  9
$PLIMCHECK
 70
0
  9
$PEXTMIN
 10
1e+20
 20
1e+20
 30
1e+20
  9
$PEXTMAX
 10
-1e+20
 20
-1e+20
 30
-1e+20
  9
$PLIMMIN
 10
0.0
 20
0.0
  9
$PLIMMAX
 10
420.0
 20
297.0
  9
$UNITMODE
 70
0
  9
$VISRETAIN
 70
1
  9
$PLINEGEN
 70
0
  9
$PSLTSCALE
 70
1
  9
$TREEDEPTH
 70
3020
  9
$CMLSTYLE
  2
Standard
  9
$CMLJUST
 70
0
  9
$CMLSCALE
 40
20.0
  9
$PROXYGRAPHICS
 70
1
  9
$MEASUREMENT
 70
1
  9
$CELWEIGHT
370
-1
  9
$ENDCAPS
280
0
  9
$JOINSTYLE
280
0
  9
$LWDISPLAY
290
0
  9
$INSUNITS
 70
1
  9
$HYPERLINKBASE
  1

  9
$STYLESHEET
  1

  9
$XEDIT
290
1
  9
$CEPSNTYPE
380
0
  9
$PSTYLEMODE
290
1
  9
$FINGERPRINTGUID
  2
{5A03666C-6AEE-45BD-A7A9-D8AD340A596A}
  9
$VERSIONGUID
  2
{C4A885AA-FF50-4445-B04C-FA584EEC3FE1}
  9
$EXTNAMES
290
1
  9
$PSVPSCALE
 40
0.0
  9
$OLESTARTUP
290
0
  9
$SORTENTS
280
127
  9
$INDEXCTL
280
0
  9
$HIDETEXT
280
1
  9
$XCLIPFRAME
280
1
  9
$HALOGAP
280
0
  9
$OBSCOLOR
 70
257
  9
$OBSLTYPE
280
0
  9
$INTERSECTIONDISPLAY
280
0
  9
$INTERSECTIONCOLOR
 70
257
  9
$DIMASSOC
280
2
  9
$PROJECTNAME
  1

  9
$CAMERADISPLAY
290
0
  9
$LENSLENGTH
 40
50.0
  9
$CAMERAHEIGHT
 40
0.0
  9
$STEPSPERSEC
 40
24.0
  9
$STEPSIZE
 40
100.0
  9
$3DDWFPREC
 40
2.0
  9
$PSOLWIDTH
 40
0.005
  9
$PSOLHEIGHT
 40
0.08
  9
$LOFTANG1
 40
1.570796326795
  9
$LOFTANG2
 40
1.570796326795
  9
$LOFTMAG1
 40
0.0
  9
$LOFTMAG2
 40
0.0
  9
$LOFTPARAM
 70
7
  9
$LOFTNORMALS
280
1
  9
$LATITUDE
 40
37.795
  9
$LONGITUDE
 40
-122.394
  9
$NORTHDIRECTION
 40
0.0
  9
$TIMEZONE
 70
-8000
  9
$LIGHTGLYPHDISPLAY
280
1
  9
$TILEMODELIGHTSYNCH
280
1
  9
$CMATERIAL
347
20
  9
$SOLIDHIST
280
0
  9
$SHOWHIST
280
1
  9
$DWFFRAME
280
2
  9
$DGNFRAME
280
2
  9
$REALWORLDSCALE
290
1
  9
$INTERFERECOLOR
 62
256
  9
$CSHADOW
280
0
  9
$SHADOWPLANELOCATION
 40
0.0
  0
ENDSEC
  0
SECTION
  2
CLASSES
  0
CLASS
  1
ACDBDICTIONARYWDFLT
  2
AcDbDictionaryWithDefault
  3
ObjectDBX Classes
 90
0
 91
0
280
0
281
0
  0
CLASS
  1
SUN
  2
AcDbSun
  3
SCENEOE
 90
1153
 91
0
280
0
281
0
  0
CLASS
  1
VISUALSTYLE
  2
AcDbVisualStyle
  3
ObjectDBX Classes
 90
4095
 91
0
280
0
281
0
  0
CLASS
  1
MATERIAL
  2
AcDbMaterial
  3
ObjectDBX Classes
 90
1153
 91
0
280
0
281
0
  0
CLASS
  1
SCALE
  2
AcDbScale
  3
ObjectDBX Classes
 90
1153
 91
0
280
0
281
0
  0
CLASS
  1
TABLESTYLE
  2
AcDbTableStyle
  3
ObjectDBX Classes
 90
4095
 91
0
280
0
281
0
  0
CLASS
  1
MLEADERSTYLE
  2
AcDbMLeaderStyle
  3
ACDB_MLEADERSTYLE_CLASS
 90
4095
 91
0
280
0
281
0
  0
CLASS
  1
DICTIONARYVAR
  2
AcDbDictionaryVar
  3
ObjectDBX Classes
 90
0
 91
0
280
0
281
0
  0
CLASS
  1
CELLSTYLEMAP
  2
AcDbCellStyleMap
  3
ObjectDBX Classes
 90
1152
 91
0
280
0
281
0
  0
CLASS
  1
MENTALRAYRENDERSETTINGS
  2
AcDbMentalRayRenderSettings
  3
SCENEOE
 90
1024
 91
0
280
0
281
0
  0
CLASS
  1
ACDBDETAILVIEWSTYLE
  2
AcDbDetailViewStyle
  3
ObjectDBX Classes
 90
1025
 91
0
280
0
281
0
  0
CLASS
  1
ACDBSECTIONVIEWSTYLE
  2
AcDbSectionViewStyle
  3
ObjectDBX Classes
 90
1025
 91
0
280
0
281
0
  0
CLASS
  1
RASTERVARIABLES
  2
AcDbRasterVariables
  3
ISM
 90
0
 91
0
280
0
281
0
  0
CLASS
  1
ACDBPLACEHOLDER
  2
AcDbPlaceHolder
  3
ObjectDBX Classes
 90
0
 91
0
280
0
281
0
  0
CLASS
  1
LAYOUT
  2
AcDbLayout
  3
ObjectDBX Classes
 90
0
 91
0
280
0
281
0
  0
ENDSEC
  0
SECTION
  2
TABLES
  0
TABLE
  2
VPORT
  5
8
330
0
100
AcDbSymbolTable
 70
1
  0
VPORT
  5
23
330
8
100
AcDbSymbolTableRecord
100
AcDbViewportTableRecord
  2
*Active
 70
0
 10
0.0
 20
0.0
 11
1.0
 21
1.0
 12
0.0
 22
0.0
 13
0.0
 23
0.0
 14
0.5
 24
0.5
 15
0.5
 25
0.5
 16
0.0
 26
0.0
 36
1.0
 17
0.0
 27
0.0
 37
0.0
 40
1000.0
 41
1.34
 42
50.0
 43
0.0
 44
0.0
 50
0.0
 51
0.0
 71
0
 72
1000
 73
1
 74
3
 75
0
 76
0
 77
0
 78
0
281
0
 65
0
146
0.0
  0
ENDTAB
  0
TABLE
  2
LTYPE
  5
2
330
0
100
AcDbSymbolTable
 70
4
  0
LTYPE
  5
24
330
2
100
AcDbSymbolTableRecord
100
AcDbLinetypeTableRecord
  2
ByBlock
 70
0
  3

 72
65
 73
0
 40
0.0
  0
LTYPE
  5
25
330
2
100
AcDbSymbolTableRecord
100
AcDbLinetypeTableRecord
  2
ByLayer
 70
0
  3

 72
65
 73
0
 40
0.0
  0
LTYPE
  5
26
330
2
100
AcDbSymbolTableRecord
100
AcDbLinetypeTableRecord
  2
Continuous
 70
0
  3

 72
65
 73
0
 40
0.0
  0
LTYPE
  5
1A7
330
2
100
AcDbSymbolTableRecord
100
AcDbLinetypeTableRecord
  2
KM_SOLID
 70
0
  3
开目实线
 72
65
 73
0
 40
0.0
  0
ENDTAB
  0
TABLE
  2
LAYER
  5
1
330
0
100
AcDbSymbolTable
 70
3
  0
LAYER
  5
27
330
1
100
AcDbSymbolTableRecord
100
AcDbLayerTableRecord
  2
0
 70
0
 62
7
  6
Continuous
370
-3
390
13
347
21
  0
LAYER
  5
28
330
1
100
AcDbSymbolTableRecord
100
AcDbLayerTableRecord
  2
Defpoints
 70
0
 62
7
  6
Continuous
290
0
370
-3
390
13
347
21
  0
LAYER
  5
1A6
330
1
100
AcDbSymbolTableRecord
100
AcDbLayerTableRecord
  2
粗线层
 70
0
 62
3
  6
KM_SOLID
370
40
390
F
347
98
  0
ENDTAB
  0
TABLE
  2
STYLE
  5
5
330
0
100
AcDbSymbolTable
 70
1
  0
STYLE
  5
29
330
5
100
AcDbSymbolTableRecord
100
AcDbTextStyleTableRecord
  2
Standard
 70
0
 40
0.0
 41
1.0
 50
0.0
 71
0
 42
2.5
  3
txt
  4

  0
ENDTAB
  0
TABLE
  2
VIEW
  5
7
330
0
100
AcDbSymbolTable
 70
0
  0
ENDTAB
  0
TABLE
  2
UCS
  5
6
330
0
100
AcDbSymbolTable
 70
0
  0
ENDTAB
  0
TABLE
  2
APPID
  5
3
330
0
100
AcDbSymbolTable
 70
3
  0
APPID
  5
2A
330
3
100
AcDbSymbolTableRecord
100
AcDbRegAppTableRecord
  2
ACAD
 70
0
  0
APPID
  5
1AA
330
3
100
AcDbSymbolTableRecord
100
AcDbRegAppTableRecord
  2
HATCHBACKGROUNDCOLOR
 70
0
  0
APPID
  5
1AB
330
3
100
AcDbSymbolTableRecord
100
AcDbRegAppTableRecord
  2
EZDXF
 70
0
  0
ENDTAB
  0
TABLE
  2
DIMSTYLE
  5
4
330
0
100
AcDbSymbolTable
 70
1
100
AcDbDimStyleTable
  0
DIMSTYLE
105
2B
330
4
100
AcDbSymbolTableRecord
100
AcDbDimStyleTableRecord
  2
Standard
 70
0
 40
1.0
 41
2.5
 42
0.625
 43
3.75
 44
1.25
 45
0.0
 46
0.0
 47
0.0
 48
0.0
 49
2.5
140
2.5
141
2.5
142
0.0
143
0.03937007874
144
1.0
145
0.0
146
1.0
147
0.625
148
0.0
 69
0
 70
0
 71
0
 72
0
 73
0
 74
0
 75
0
 76
0
 77
1
 78
8
 79
3
170
0
171
3
172
1
173
0
174
0
175
0
176
0
177
0
178
0
179
2
271
2
272
2
273
2
274
3
275
0
276
0
277
2
278
44
279
0
280
0
281
0
282
0
283
0
284
8
285
0
286
0
288
0
289
3
290
0
371
-2
372
-2
  0
ENDTAB
  0
TABLE
  2
BLOCK_RECORD
  5
9
330
0
100
AcDbSymbolTable
 70
3
  0
BLOCK_RECORD
  5
17
330
9
100
AcDbSymbolTableRecord
100
AcDbBlockTableRecord
  2
*Model_Space
340
1A
 70
0
280
1
281
0
  0
BLOCK_RECORD
  5
1B
330
9
100
AcDbSymbolTableRecord
100
AcDbBlockTableRecord
  2
*Paper_Space
340
1E
 70
0
280
1
281
0
  0
BLOCK_RECORD
  5
2F
330
9
100
AcDbSymbolTableRecord
100
AcDbBlockTableRecord
  2
nxb63-3p
340
0
 70
0
280
1
281
0
  0
ENDTAB
  0
ENDSEC
  0
SECTION
  2
BLOCKS
  0
BLOCK
  5
18
330
17
100
AcDbEntity
  8
0
100
AcDbBlockBegin
  2
*Model_Space
 70
0
 10
0.0
 20
0.0
 30
0.0
  3
*Model_Space
  1

  0
ENDBLK
  5
19
330
17
100
AcDbEntity
  8
0
100
AcDbBlockEnd
  0
BLOCK
  5
1C
330
1B
100
AcDbEntity
  8
0
100
AcDbBlockBegin
  2
*Paper_Space
 70
0
 10
0.0
 20
0.0
 30
0.0
  3
*Paper_Space
  1

  0
ENDBLK
  5
1D
330
1B
100
AcDbEntity
  8
0
100
AcDbBlockEnd
  0
BLOCK
  5
30
330
2F
100
AcDbEntity
  8
0
100
AcDbBlockBegin
  2
nxb63-3p
 70
0
 10
0.0
 20
0.0
 30
0.0
  3
nxb63-3p
  1

  0
LINE
  5
32
330
2F
100
AcDbEntity
  8
粗线层
 62
7
100
AcDbLine
 10
29439.97573624484
 20
-130778.8757362178
 30
0.0
 11
29451.47573624484
 21
-130778.8757362178
 31
0.0
  0
LINE
  5
33
330
2F
100
AcDbEntity
  8
粗线层
 62
7
100
AcDbLine
 10
29475.57573624485
 20
-130778.8757362178
 30
0.0
 11
29487.07573624485
 21
-130778.8757362178
 31
0.0
  0
LINE
  5
34
330
2F
100
AcDbEntity
  8
粗线层
 62
7
100
AcDbLine
 10
29489.57573624485
 20
-130776.6757362178
 30
0.0
 11
29473.67573624484
 21
-130776.6757362178
 31
0.0
  0
LINE
  5
35
330
2F
100
AcDbEntity
  8
粗线层
 62
7
100
AcDbLine
 10
29471.77573624485
 20
-130776.6757362178
 30
0.0
 11
29455.87573624485
 21
-130776.6757362178
 31
0.0
  0
LINE
  5
36
330
2F
100
AcDbEntity
  8
粗线层
 62
7
100
AcDbLine
 10
29453.97573624484
 20
-130776.6757362178
 30
0.0
 11
29438.07573624485
 21
-130776.6757362178
 31
0.0
  0
LINE
  5
37
330
2F
100
AcDbEntity
  8
粗线层
 62
7
100
AcDbLine
 10
29453.97573624484
 20
-130775.6757362178
 30
0.0
 11
29438.17573624484
 21
-130775.6757362178
 31
0.0
  0
LINE
  5
38
330
2F
100
AcDbEntity
  8
粗线层
 62
7
100
AcDbLine
 10
29471.77573624485
 20
-130775.6757362178
 30
0.0
 11
29455.97573624485
 21
-130775.6757362178
 31
0.0
  0
LINE
  5
39
330
2F
100
AcDbEntity
  8
粗线层
 62
7
100
AcDbLine
 10
29489.57573624485
 20
-130775.6757362178
 30
0.0
 11
29473.77573624485
 21
-130775.6757362178
 31
0.0
  0
LINE
  5
3A
330
2F
100
AcDbEntity
  8
粗线层
 62
7
100
AcDbLine
 10
29453.97573624484
 20
-130775.2757362178
 30
0.0
 11
29438.17573624484
 21
-130775.2757362178
 31
0.0
  0
LINE
  5
3B
330
2F
100
AcDbEntity
  8
粗线层
 62
7
100
AcDbLine
 10
29471.77573624485
 20
-130775.2757362178
 30
0.0
 11
29455.97573624485
 21
-130775.2757362178
 31
0.0
  0
LINE
  5
3C
330
2F
100
AcDbEntity
  8
粗线层
 62
7
100
AcDbLine
 10
29489.57573624485
 20
-130775.2757362178
 30
0.0
 11
29473.77573624485
 21
-130775.2757362178
 31
0.0
  0
LINE
  5
3D
330
2F
100
AcDbEntity
  8
粗线层
 62
7
100
AcDbLine
 10
29481.92573624484
 20
-130771.4286563933
 30
0.0
 11
29481.42573624484
 21
-130771.4286563933
 31
0.0
  0
LINE
  5
3E
330
2F
100
AcDbEntity
  8
粗线层
 62
7
100
AcDbLine
 10
29464.12573624485
 20
-130771.4286563933
 30
0.0
 11
29463.62573624485
 21
-130771.4286563933
 31
0.0
  0
LINE
  5
3F
330
2F
100
AcDbEntity
  8
粗线层
 62
7
100
AcDbLine
 10
29446.32573624485
 20
-130771.4286563933
 30
0.0
 11
29445.82573624485
 21
-130771.4286563933
 31
0.0
  0
LINE
  5
40
330
2F
100
AcDbEntity
  8
粗线层
 62
7
100
AcDbLine
 10
29482.03814636754
 20
-130770.3151016449
 30
0.0
 11
29481.31332612215
 21
-130770.3151016449
 31
0.0
  0
LINE
  5
41
330
2F
100
AcDbEntity
  8
粗线层
 62
7
100
AcDbLine
 10
29464.23814636754
 20
-130770.3151016449
 30
0.0
 11
29463.51332612215
 21
-130770.3151016449
 31
0.0
  0
LINE
  5
42
330
2F
100
AcDbEntity
  8
粗线层
 62
7
100
AcDbLine
 10
29446.43814636755
 20
-130770.3151016449
 30
0.0
 11
29445.71332612215
 21
-130770.3151016449
 31
0.0
  0
LINE
  5
43
330
2F
100
AcDbEntity
  8
粗线层
 62
7
100
AcDbLine
 10
29484.99550677395
 20
-130769.7757362178
 30
0.0
 11
29482.92573624484
 21
-130769.7757362178
 31
0.0
  0
LINE
  5
44
330
2F
100
AcDbEntity
  8
粗线层
 62
7
100
AcDbLine
 10
29480.42573624484
 20
-130769.7757362178
 30
0.0
 11
29478.35596947635
 21
-130769.7757362178
 31
0.0
  0
LINE
  5
45
330
2F
100
AcDbEntity
  8
粗线层
 62
7
100
AcDbLine
 10
29467.19550677395
 20
-130769.7757362178
 30
0.0
 11
29465.12573624485
 21
-130769.7757362178
 31
0.0
  0
LINE
  5
46
330
2F
100
AcDbEntity
  8
粗线层
 62
7
100
AcDbLine
 10
29462.62573624485
 20
-130769.7757362178
 30
0.0
 11
29460.55596947635
 21
-130769.7757362178
 31
0.0
  0
LINE
  5
47
330
2F
100
AcDbEntity
  8
粗线层
 62
7
100
AcDbLine
 10
29449.39550677394
 20
-130769.7757362178
 30
0.0
 11
29447.32573624485
 21
-130769.7757362178
 31
0.0
  0
LINE
  5
48
330
2F
100
AcDbEntity
  8
粗线层
 62
7
100
AcDbLine
 10
29444.82573624485
 20
-130769.7757362178
 30
0.0
 11
29442.75596947635
 21
-130769.7757362178
 31
0.0
  0
LINE
  5
49
330
2F
100
AcDbEntity
  8
粗线层
 62
7
100
AcDbLine
 10
29484.99550301114
 20
-130769.2757362178
 30
0.0
 11
29482.92573624484
 21
-130769.2757362178
 31
0.0
  0
LINE
  5
4A
330
2F
100
AcDbEntity
  8
粗线层
 62
7
100
AcDbLine
 10
29480.42573624484
 20
-130769.2757362178
 30
0.0
 11
29478.35596571575
 21
-130769.2757362178
 31
0.0
  0
LINE
  5
4B
330
2F
100
AcDbEntity
  8
粗线层
 62
7
100
AcDbLine
 10
29467.19550301114
 20
-130769.2757362178
 30
0.0
 11
29465.12573624485
 21
-130769.2757362178
 31
0.0
  0
LINE
  5
4C
330
2F
100
AcDbEntity
  8
粗线层
 62
7
100
AcDbLine
 10
29462.62573624485
 20
-130769.2757362178
 30
0.0
 11
29460.55596571574
 21
-130769.2757362178
 31
0.0
  0
LINE
  5
4D
330
2F
100
AcDbEntity
  8
粗线层
 62
7
100
AcDbLine
 10
29449.39550301116
 20
-130769.2757362178
 30
0.0
 11
29447.32573624485
 21
-130769.2757362178
 31
0.0
  0
LINE
  5
4E
330
2F
100
AcDbEntity
  8
粗线层
 62
7
100
AcDbLine
 10
29444.82573624485
 20
-130769.2757362178
 30
0.0
 11
29442.75596571574
 21
-130769.2757362178
 31
0.0
  0
LINE
  5
4F
330
2F
100
AcDbEntity
  8
粗线层
 62
7
100
AcDbLine
 10
29445.71332612215
 20
-130768.7363707906
 30
0.0
 11
29446.43814636755
 21
-130768.7363707906
 31
0.0
  0
LINE
  5
50
330
2F
100
AcDbEntity
  8
粗线层
 62
7
100
AcDbLine
 10
29463.51332612215
 20
-130768.7363707906
 30
0.0
 11
29464.23814636754
 21
-130768.7363707906
 31
0.0
  0
LINE
  5
51
330
2F
100
AcDbEntity
  8
粗线层
 62
7
100
AcDbLine
 10
29481.31332612215
 20
-130768.7363707906
 30
0.0
 11
29482.03814636754
 21
-130768.7363707906
 31
0.0
  0
LINE
  5
52
330
2F
100
AcDbEntity
  8
粗线层
 62
7
100
AcDbLine
 10
29481.92573624484
 20
-130767.6228160422
 30
0.0
 11
29481.42573624484
 21
-130767.6228160422
 31
0.0
  0
LINE
  5
53
330
2F
100
AcDbEntity
  8
粗线层
 62
7
100
AcDbLine
 10
29464.12573624485
 20
-130767.6228160422
 30
0.0
 11
29463.62573624485
 21
-130767.6228160422
 31
0.0
  0
LINE
  5
54
330
2F
100
AcDbEntity
  8
粗线层
 62
7
100
AcDbLine
 10
29446.32573624485
 20
-130767.6228160422
 30
0.0
 11
29445.82573624485
 21
-130767.6228160422
 31
0.0
  0
LINE
  5
55
330
2F
100
AcDbEntity
  8
粗线层
 62
7
100
AcDbLine
 10
29439.12573624485
 20
-130757.248988379
 30
0.0
 11
29439.42573624484
 21
-130757.548988379
 31
0.0
  0
LINE
  5
56
330
2F
100
AcDbEntity
  8
粗线层
 62
7
100
AcDbLine
 10
29488.62573624485
 20
-130757.248988379
 30
0.0
 11
29488.32573624485
 21
-130757.548988379
 31
0.0
  0
LINE
  5
57
330
2F
100
AcDbEntity
  8
粗线层
 62
7
100
AcDbLine
 10
29490.57573624485
 20
-130774.6757362178
 30
0.0
 11
29490.57573624485
 21
-130699.8757362178
 31
0.0
  0
LINE
  5
58
330
2F
100
AcDbEntity
  8
粗线层
 62
7
100
AcDbLine
 10
29490.27573624485
 20
-130698.5760461585
 30
0.0
 11
29490.27573624485
 21
-130699.1789342643
 31
0.0
  0
LINE
  5
59
330
2F
100
AcDbEntity
  8
粗线层
 62
7
100
AcDbLine
 10
29490.27573624485
 20
-130775.3725381328
 30
0.0
 11
29490.27573624485
 21
-130775.975426277
 31
0.0
  0
LINE
  5
5A
330
2F
100
AcDbEntity
  8
粗线层
 62
7
100
AcDbLine
 10
29490.17573624484
 20
-130774.6757362178
 30
0.0
 11
29490.17573624484
 21
-130762.9757362178
 31
0.0
  0
LINE
  5
5B
330
2F
100
AcDbEntity
  8
粗线层
 62
7
100
AcDbLine
 10
29490.17573624484
 20
-130711.5757362178
 30
0.0
 11
29490.17573624484
 21
-130699.8757362178
 31
0.0
  0
LINE
  5
5C
330
2F
100
AcDbEntity
  8
粗线层
 62
7
100
AcDbLine
 10
29454.57573624485
 20
-130762.9757362178
 30
0.0
 11
29437.57573624485
 21
-130762.9757362178
 31
0.0
  0
LINE
  5
5D
330
2F
100
AcDbEntity
  8
粗线层
 62
7
100
AcDbLine
 10
29472.37573624486
 20
-130762.9757362178
 30
0.0
 11
29455.37573624486
 21
-130762.9757362178
 31
0.0
  0
LINE
  5
5E
330
2F
100
AcDbEntity
  8
粗线层
 62
7
100
AcDbLine
 10
29490.17573624484
 20
-130762.9757362178
 30
0.0
 11
29473.17573624484
 21
-130762.9757362178
 31
0.0
  0
LINE
  5
5F
330
2F
100
AcDbEntity
  8
粗线层
 62
7
100
AcDbLine
 10
29454.57573624485
 20
-130762.9757362178
 30
0.0
 11
29454.97573624484
 21
-130763.3757362178
 31
0.0
  0
LINE
  5
60
330
2F
100
AcDbEntity
  8
粗线层
 62
7
100
AcDbLine
 10
29488.62573624485
 20
-130757.2488738138
 30
0.0
 11
29488.62573624485
 21
-130749.4797697922
 31
0.0
  0
LINE
  5
61
330
2F
100
AcDbEntity
  8
粗线层
 62
7
100
AcDbLine
 10
29488.32573624485
 20
-130757.548988379
 30
0.0
 11
29488.32573624415
 21
-130749.2492920981
 31
0.0
  0
LINE
  5
62
330
2F
100
AcDbEntity
  8
粗线层
 62
7
100
AcDbLine
 10
29487.07573624485
 20
-130776.6757362178
 30
0.0
 11
29487.07573624485
 21
-130778.8757362178
 31
0.0
  0
LINE
  5
63
330
2F
100
AcDbEntity
  8
粗线层
 62
7
100
AcDbLine
 10
29472.77573624485
 20
-130763.3757362178
 30
0.0
 11
29473.17573624484
 21
-130762.9757362178
 31
0.0
  0
LINE
  5
64
330
2F
100
AcDbEntity
  8
粗线层
 62
7
100
AcDbLine
 10
29488.32573624485
 20
-130757.548988379
 30
0.0
 11
29439.42573624484
 21
-130757.548988379
 31
0.0
  0
LINE
  5
65
330
2F
100
AcDbEntity
  8
粗线层
 62
7
100
AcDbLine
 10
29483.87573624486
 20
-130751.0180156535
 30
0.0
 11
29483.87573624486
 21
-130751.0900893984
 31
0.0
  0
LINE
  5
66
330
2F
100
AcDbEntity
  8
粗线层
 62
7
100
AcDbLine
 10
29483.16689749585
 20
-130704.7757362178
 30
0.0
 11
29483.16689749585
 21
-130705.2757362178
 31
0.0
  0
LINE
  5
67
330
2F
100
AcDbEntity
  8
粗线层
 62
7
100
AcDbLine
 10
29483.16689749585
 20
-130769.7757362178
 30
0.0
 11
29483.16689749585
 21
-130769.2757362178
 31
0.0
  0
LINE
  5
68
330
2F
100
AcDbEntity
  8
粗线层
 62
7
100
AcDbLine
 10
29482.46510167194
 20
-130704.663326095
 30
0.0
 11
29482.46510167194
 21
-130705.3881463405
 31
0.0
  0
LINE
  5
69
330
2F
100
AcDbEntity
  8
粗线层
 62
7
100
AcDbLine
 10
29482.46510167194
 20
-130769.163326095
 30
0.0
 11
29482.46510167194
 21
-130769.8881463405
 31
0.0
  0
LINE
  5
6A
330
2F
100
AcDbEntity
  8
粗线层
 62
7
100
AcDbLine
 10
29481.92573624484
 20
-130767.6228160422
 30
0.0
 11
29481.92573624484
 21
-130768.2757362178
 31
0.0
  0
LINE
  5
6B
330
2F
100
AcDbEntity
  8
粗线层
 62
7
100
AcDbLine
 10
29481.92573624484
 20
-130770.7757362178
 30
0.0
 11
29481.92573624484
 21
-130771.4286563933
 31
0.0
  0
LINE
  5
6C
330
2F
100
AcDbEntity
  8
粗线层
 62
7
100
AcDbLine
 10
29481.92573624484
 20
-130706.9286563933
 30
0.0
 11
29481.92573624484
 21
-130706.2757362178
 31
0.0
  0
LINE
  5
6D
330
2F
100
AcDbEntity
  8
粗线层
 62
7
100
AcDbLine
 10
29481.92573624484
 20
-130703.7757362178
 30
0.0
 11
29481.92573624484
 21
-130703.1228160422
 31
0.0
  0
LINE
  5
6E
330
2F
100
AcDbEntity
  8
粗线层
 62
7
100
AcDbLine
 10
29481.67573624484
 20
-130776.6756967426
 30
0.0
 11
29481.67573624484
 21
-130773.0257362178
 31
0.0
  0
LINE
  5
6F
330
2F
100
AcDbEntity
  8
粗线层
 62
7
100
AcDbLine
 10
29481.67573624484
 20
-130766.0257362178
 30
0.0
 11
29481.67573624484
 21
-130759.7757362178
 31
0.0
  0
LINE
  5
70
330
2F
100
AcDbEntity
  8
粗线层
 62
7
100
AcDbLine
 10
29481.67573624484
 20
-130714.7757362178
 30
0.0
 11
29481.67573624484
 21
-130708.5257362178
 31
0.0
  0
LINE
  5
71
330
2F
100
AcDbEntity
  8
粗线层
 62
7
100
AcDbLine
 10
29481.67573624484
 20
-130701.5257362178
 30
0.0
 11
29481.67573624484
 21
-130697.8757756929
 31
0.0
  0
LINE
  5
72
330
2F
100
AcDbEntity
  8
粗线层
 62
7
100
AcDbLine
 10
29481.42573624484
 20
-130767.6228160422
 30
0.0
 11
29481.42573624484
 21
-130768.2757362178
 31
0.0
  0
LINE
  5
73
330
2F
100
AcDbEntity
  8
粗线层
 62
7
100
AcDbLine
 10
29481.42573624484
 20
-130770.7757362178
 30
0.0
 11
29481.42573624484
 21
-130771.4286563933
 31
0.0
  0
LINE
  5
74
330
2F
100
AcDbEntity
  8
粗线层
 62
7
100
AcDbLine
 10
29481.42573624484
 20
-130706.9286563933
 30
0.0
 11
29481.42573624484
 21
-130706.2757362178
 31
0.0
  0
LINE
  5
75
330
2F
100
AcDbEntity
  8
粗线层
 62
7
100
AcDbLine
 10
29481.42573624484
 20
-130703.7757362178
 30
0.0
 11
29481.42573624484
 21
-130703.1228160422
 31
0.0
  0
LINE
  5
76
330
2F
100
AcDbEntity
  8
粗线层
 62
7
100
AcDbLine
 10
29480.88637081775
 20
-130769.8881463405
 30
0.0
 11
29480.88637081775
 21
-130769.163326095
 31
0.0
  0
LINE
  5
77
330
2F
100
AcDbEntity
  8
粗线层
 62
7
100
AcDbLine
 10
29480.88637081775
 20
-130705.3881463405
 30
0.0
 11
29480.88637081775
 21
-130704.663326095
 31
0.0
  0
LINE
  5
78
330
2F
100
AcDbEntity
  8
粗线层
 62
7
100
AcDbLine
 10
29480.18457499395
 20
-130704.7757362178
 30
0.0
 11
29480.18457499395
 21
-130705.2757362178
 31
0.0
  0
LINE
  5
79
330
2F
100
AcDbEntity
  8
粗线层
 62
7
100
AcDbLine
 10
29480.18457499395
 20
-130769.7757362178
 30
0.0
 11
29480.18457499395
 21
-130769.2757362178
 31
0.0
  0
LINE
  5
7A
330
2F
100
AcDbEntity
  8
粗线层
 62
7
100
AcDbLine
 10
29444.37573624455
 20
-130751.4365906367
 30
0.0
 11
29483.37573624584
 21
-130751.4365906367
 31
0.0
  0
LINE
  5
7B
330
2F
100
AcDbEntity
  8
粗线层
 62
7
100
AcDbLine
 10
29483.37573624695
 20
-130751.3380849835
 30
0.0
 11
29444.37573624424
 21
-130751.3380849835
 31
0.0
  0
LINE
  5
7C
330
2F
100
AcDbEntity
  8
粗线层
 62
7
100
AcDbLine
 10
29483.37573624574
 20
-130751.1972451782
 30
0.0
 11
29444.37573624395
 21
-130751.1972451782
 31
0.0
  0
LINE
  5
7D
330
2F
100
AcDbEntity
  8
粗线层
 62
7
100
AcDbLine
 10
29444.37573624395
 20
-130750.6851342502
 30
0.0
 11
29483.37573624574
 21
-130750.6851342502
 31
0.0
  0
LINE
  5
7E
330
2F
100
AcDbEntity
  8
粗线层
 62
7
100
AcDbLine
 10
29487.62573624165
 20
-130748.8011950352
 30
0.0
 11
29440.12573624814
 21
-130748.8011950352
 31
0.0
  0
LINE
  5
7F
330
2F
100
AcDbEntity
  8
粗线层
 62
7
100
AcDbLine
 10
29472.37573624486
 20
-130762.9757362178
 30
0.0
 11
29472.77573624485
 21
-130763.3757362178
 31
0.0
  0
LINE
  5
80
330
2F
100
AcDbEntity
  8
粗线层
 62
7
100
AcDbLine
 10
29475.57573624485
 20
-130776.6757362178
 30
0.0
 11
29475.57573624485
 21
-130778.8757362178
 31
0.0
  0
LINE
  5
81
330
2F
100
AcDbEntity
  8
粗线层
 62
7
100
AcDbLine
 10
29473.17573624484
 20
-130699.8757362178
 30
0.0
 11
29473.17573624484
 21
-130711.5757362178
 31
0.0
  0
LINE
  5
82
330
2F
100
AcDbEntity
  8
粗线层
 62
7
100
AcDbLine
 10
29473.17573624484
 20
-130762.9757362178
 30
0.0
 11
29473.17573624484
 21
-130774.6757362178
 31
0.0
  0
LINE
  5
83
330
2F
100
AcDbEntity
  8
粗线层
 62
7
100
AcDbLine
 10
29454.97573624484
 20
-130763.3757362178
 30
0.0
 11
29455.37573624486
 21
-130762.9757362178
 31
0.0
  0
LINE
  5
84
330
2F
100
AcDbEntity
  8
粗线层
 62
7
100
AcDbLine
 10
29472.97573624485
 20
-130775.9754262775
 30
0.0
 11
29472.97573624485
 21
-130775.2725393718
 31
0.0
  0
LINE
  5
85
330
2F
100
AcDbEntity
  8
粗线层
 62
7
100
AcDbLine
 10
29472.97573624485
 20
-130699.2789355032
 30
0.0
 11
29472.97573624485
 21
-130698.576046158
 31
0.0
  0
LINE
  5
86
330
2F
100
AcDbEntity
  8
粗线层
 62
7
100
AcDbLine
 10
29472.77573624485
 20
-130774.6757362178
 30
0.0
 11
29472.77573624485
 21
-130757.548988379
 31
0.0
  0
LINE
  5
87
330
2F
100
AcDbEntity
  8
粗线层
 62
7
100
AcDbLine
 10
29472.77573624485
 20
-130714.7757362178
 30
0.0
 11
29472.77573624485
 21
-130699.8757362178
 31
0.0
  0
LINE
  5
88
330
2F
100
AcDbEntity
  8
粗线层
 62
7
100
AcDbLine
 10
29472.47573624484
 20
-130698.5760461585
 30
0.0
 11
29472.47573624484
 21
-130699.1789342643
 31
0.0
  0
LINE
  5
89
330
2F
100
AcDbEntity
  8
粗线层
 62
7
100
AcDbLine
 10
29472.47573624484
 20
-130775.3725381328
 30
0.0
 11
29472.47573624484
 21
-130775.975426277
 31
0.0
  0
LINE
  5
8A
330
2F
100
AcDbEntity
  8
粗线层
 62
7
100
AcDbLine
 10
29472.37573624486
 20
-130774.6757362178
 30
0.0
 11
29472.37573624486
 21
-130762.9757362178
 31
0.0
  0
LINE
  5
8B
330
2F
100
AcDbEntity
  8
粗线层
 62
7
100
AcDbLine
 10
29472.37573624486
 20
-130711.5757362178
 30
0.0
 11
29472.37573624486
 21
-130699.8757362178
 31
0.0
  0
LINE
  5
8C
330
2F
100
AcDbEntity
  8
粗线层
 62
7
100
AcDbLine
 10
29488.01278223885
 20
-130748.8759230824
 30
0.0
 11
29488.17865909335
 21
-130748.9463856082
 31
0.0
  0
LINE
  5
8D
330
2F
100
AcDbEntity
  8
粗线层
 62
7
100
AcDbLine
 10
29437.57573624485
 20
-130711.5757362178
 30
0.0
 11
29437.17573624484
 21
-130711.1757362178
 31
0.0
  0
LINE
  5
8E
330
2F
100
AcDbEntity
  8
粗线层
 62
7
100
AcDbLine
 10
29465.36689749584
 20
-130704.7757362178
 30
0.0
 11
29465.36689749584
 21
-130705.2757362178
 31
0.0
  0
LINE
  5
8F
330
2F
100
AcDbEntity
  8
粗线层
 62
7
100
AcDbLine
 10
29465.36689749584
 20
-130769.7757362178
 30
0.0
 11
29465.36689749584
 21
-130769.2757362178
 31
0.0
  0
LINE
  5
90
330
2F
100
AcDbEntity
  8
粗线层
 62
7
100
AcDbLine
 10
29464.66510167194
 20
-130704.663326095
 30
0.0
 11
29464.66510167194
 21
-130705.3881463405
 31
0.0
  0
LINE
  5
91
330
2F
100
AcDbEntity
  8
粗线层
 62
7
100
AcDbLine
 10
29464.66510167194
 20
-130769.163326095
 30
0.0
 11
29464.66510167194
 21
-130769.8881463405
 31
0.0
  0
LINE
  5
92
330
2F
100
AcDbEntity
  8
粗线层
 62
7
100
AcDbLine
 10
29464.12573624485
 20
-130767.6228160422
 30
0.0
 11
29464.12573624485
 21
-130768.2757362178
 31
0.0
  0
LINE
  5
93
330
2F
100
AcDbEntity
  8
粗线层
 62
7
100
AcDbLine
 10
29464.12573624485
 20
-130770.7757362178
 30
0.0
 11
29464.12573624485
 21
-130771.4286563933
 31
0.0
  0
LINE
  5
94
330
2F
100
AcDbEntity
  8
粗线层
 62
7
100
AcDbLine
 10
29464.12573624485
 20
-130706.9286563933
 30
0.0
 11
29464.12573624485
 21
-130706.2757362178
 31
0.0
  0
LINE
  5
95
330
2F
100
AcDbEntity
  8
粗线层
 62
7
100
AcDbLine
 10
29464.12573624485
 20
-130703.7757362178
 30
0.0
 11
29464.12573624485
 21
-130703.1228160422
 31
0.0
  0
LINE
  5
96
330
2F
100
AcDbEntity
  8
粗线层
 62
7
100
AcDbLine
 10
29463.87573624485
 20
-130776.6756967426
 30
0.0
 11
29463.87573624485
 21
-130773.0257362178
 31
0.0
  0
LINE
  5
97
330
2F
100
AcDbEntity
  8
粗线层
 62
7
100
AcDbLine
 10
29463.87573624485
 20
-130766.0257362178
 30
0.0
 11
29463.87573624485
 21
-130759.7757362178
 31
0.0
  0
LINE
  5
98
330
2F
100
AcDbEntity
  8
粗线层
 62
7
100
AcDbLine
 10
29463.87573624485
 20
-130714.7757362178
 30
0.0
 11
29463.87573624485
 21
-130708.5257362178
 31
0.0
  0
LINE
  5
99
330
2F
100
AcDbEntity
  8
粗线层
 62
7
100
AcDbLine
 10
29463.87573624485
 20
-130701.5257362178
 30
0.0
 11
29463.87573624485
 21
-130697.8757756929
 31
0.0
  0
LINE
  5
9A
330
2F
100
AcDbEntity
  8
粗线层
 62
7
100
AcDbLine
 10
29463.62573624485
 20
-130767.6228160422
 30
0.0
 11
29463.62573624485
 21
-130768.2757362178
 31
0.0
  0
LINE
  5
9B
330
2F
100
AcDbEntity
  8
粗线层
 62
7
100
AcDbLine
 10
29463.62573624485
 20
-130770.7757362178
 30
0.0
 11
29463.62573624485
 21
-130771.4286563933
 31
0.0
  0
LINE
  5
9C
330
2F
100
AcDbEntity
  8
粗线层
 62
7
100
AcDbLine
 10
29463.62573624485
 20
-130706.9286563933
 30
0.0
 11
29463.62573624485
 21
-130706.2757362178
 31
0.0
  0
LINE
  5
9D
330
2F
100
AcDbEntity
  8
粗线层
 62
7
100
AcDbLine
 10
29463.62573624485
 20
-130703.7757362178
 30
0.0
 11
29463.62573624485
 21
-130703.1228160422
 31
0.0
  0
LINE
  5
9E
330
2F
100
AcDbEntity
  8
粗线层
 62
7
100
AcDbLine
 10
29490.57573624485
 20
-130711.1757362178
 30
0.0
 11
29490.17573624484
 21
-130711.5757362178
 31
0.0
  0
LINE
  5
9F
330
2F
100
AcDbEntity
  8
粗线层
 62
7
100
AcDbLine
 10
29439.73869025084
 20
-130748.8759230824
 30
0.0
 11
29439.57281339634
 21
-130748.9463856082
 31
0.0
  0
LINE
  5
A0
330
2F
100
AcDbEntity
  8
粗线层
 62
7
100
AcDbLine
 10
29490.17573624484
 20
-130762.9757362178
 30
0.0
 11
29490.57573624485
 21
-130763.3757362178
 31
0.0
  0
LINE
  5
A1
330
2F
100
AcDbEntity
  8
粗线层
 62
7
100
AcDbLine
 10
29463.08637081775
 20
-130769.8881463405
 30
0.0
 11
29463.08637081775
 21
-130769.163326095
 31
0.0
  0
LINE
  5
A2
330
2F
100
AcDbEntity
  8
粗线层
 62
7
100
AcDbLine
 10
29463.08637081775
 20
-130705.3881463405
 30
0.0
 11
29463.08637081775
 21
-130704.663326095
 31
0.0
  0
LINE
  5
A3
330
2F
100
AcDbEntity
  8
粗线层
 62
7
100
AcDbLine
 10
29462.38457499395
 20
-130704.7757362178
 30
0.0
 11
29462.38457499395
 21
-130705.2757362178
 31
0.0
  0
LINE
  5
A4
330
2F
100
AcDbEntity
  8
粗线层
 62
7
100
AcDbLine
 10
29462.38457499395
 20
-130769.7757362178
 30
0.0
 11
29462.38457499395
 21
-130769.2757362178
 31
0.0
  0
LINE
  5
A5
330
2F
100
AcDbEntity
  8
粗线层
 62
7
100
AcDbLine
 10
29437.17573624484
 20
-130763.3757362178
 30
0.0
 11
29437.57573624485
 21
-130762.9757362178
 31
0.0
  0
LINE
  5
A6
330
2F
100
AcDbEntity
  8
粗线层
 62
7
100
AcDbLine
 10
29455.37573624486
 20
-130699.8757362178
 30
0.0
 11
29455.37573624486
 21
-130711.5757362178
 31
0.0
  0
LINE
  5
A7
330
2F
100
AcDbEntity
  8
粗线层
 62
7
100
AcDbLine
 10
29455.37573624486
 20
-130762.9757362178
 30
0.0
 11
29455.37573624486
 21
-130774.6757362178
 31
0.0
  0
LINE
  5
A8
330
2F
100
AcDbEntity
  8
粗线层
 62
7
100
AcDbLine
 10
29455.17573624484
 20
-130775.9754262775
 30
0.0
 11
29455.17573624484
 21
-130775.2725393718
 31
0.0
  0
LINE
  5
A9
330
2F
100
AcDbEntity
  8
粗线层
 62
7
100
AcDbLine
 10
29455.17573624484
 20
-130699.2789355032
 30
0.0
 11
29455.17573624484
 21
-130698.576046158
 31
0.0
  0
LINE
  5
AA
330
2F
100
AcDbEntity
  8
粗线层
 62
7
100
AcDbLine
 10
29454.97573624484
 20
-130774.6757362178
 30
0.0
 11
29454.97573624484
 21
-130757.548988379
 31
0.0
  0
LINE
  5
AB
330
2F
100
AcDbEntity
  8
粗线层
 62
7
100
AcDbLine
 10
29454.97573624484
 20
-130714.7757362178
 30
0.0
 11
29454.97573624484
 21
-130699.8757362178
 31
0.0
  0
LINE
  5
AC
330
2F
100
AcDbEntity
  8
粗线层
 62
7
100
AcDbLine
 10
29454.67573624484
 20
-130698.5760461585
 30
0.0
 11
29454.67573624484
 21
-130699.1789342643
 31
0.0
  0
LINE
  5
AD
330
2F
100
AcDbEntity
  8
粗线层
 62
7
100
AcDbLine
 10
29454.67573624484
 20
-130775.3725381328
 30
0.0
 11
29454.67573624484
 21
-130775.975426277
 31
0.0
  0
LINE
  5
AE
330
2F
100
AcDbEntity
  8
粗线层
 62
7
100
AcDbLine
 10
29454.57573624485
 20
-130774.6757362178
 30
0.0
 11
29454.57573624485
 21
-130762.9757362178
 31
0.0
  0
LINE
  5
AF
330
2F
100
AcDbEntity
  8
粗线层
 62
7
100
AcDbLine
 10
29454.57573624485
 20
-130711.5757362178
 30
0.0
 11
29454.57573624485
 21
-130699.8757362178
 31
0.0
  0
LINE
  5
B0
330
2F
100
AcDbEntity
  8
粗线层
 62
7
100
AcDbLine
 10
29455.37573624486
 20
-130711.5757362178
 30
0.0
 11
29454.97573624484
 21
-130711.1757362178
 31
0.0
  0
LINE
  5
B1
330
2F
100
AcDbEntity
  8
粗线层
 62
7
100
AcDbLine
 10
29451.47573624484
 20
-130776.6757362178
 30
0.0
 11
29451.47573624484
 21
-130778.8757362178
 31
0.0
  0
LINE
  5
B2
330
2F
100
AcDbEntity
  8
粗线层
 62
7
100
AcDbLine
 10
29472.77573624485
 20
-130711.1757362178
 30
0.0
 11
29472.37573624486
 21
-130711.5757362178
 31
0.0
  0
LINE
  5
B3
330
2F
100
AcDbEntity
  8
粗线层
 62
7
100
AcDbLine
 10
29447.56689749585
 20
-130704.7757362178
 30
0.0
 11
29447.56689749585
 21
-130705.2757362178
 31
0.0
  0
LINE
  5
B4
330
2F
100
AcDbEntity
  8
粗线层
 62
7
100
AcDbLine
 10
29447.56689749585
 20
-130769.7757362178
 30
0.0
 11
29447.56689749585
 21
-130769.2757362178
 31
0.0
  0
LINE
  5
B5
330
2F
100
AcDbEntity
  8
粗线层
 62
7
100
AcDbLine
 10
29446.86510167196
 20
-130704.663326095
 30
0.0
 11
29446.86510167196
 21
-130705.3881463405
 31
0.0
  0
LINE
  5
B6
330
2F
100
AcDbEntity
  8
粗线层
 62
7
100
AcDbLine
 10
29446.86510167196
 20
-130769.163326095
 30
0.0
 11
29446.86510167196
 21
-130769.8881463405
 31
0.0
  0
LINE
  5
B7
330
2F
100
AcDbEntity
  8
粗线层
 62
7
100
AcDbLine
 10
29446.32573624485
 20
-130767.6228160422
 30
0.0
 11
29446.32573624485
 21
-130768.2757362178
 31
0.0
  0
LINE
  5
B8
330
2F
100
AcDbEntity
  8
粗线层
 62
7
100
AcDbLine
 10
29446.32573624485
 20
-130770.7757362178
 30
0.0
 11
29446.32573624485
 21
-130771.4286563933
 31
0.0
  0
LINE
  5
B9
330
2F
100
AcDbEntity
  8
粗线层
 62
7
100
AcDbLine
 10
29446.32573624485
 20
-130706.9286563933
 30
0.0
 11
29446.32573624485
 21
-130706.2757362178
 31
0.0
  0
LINE
  5
BA
330
2F
100
AcDbEntity
  8
粗线层
 62
7
100
AcDbLine
 10
29446.32573624485
 20
-130703.7757362178
 30
0.0
 11
29446.32573624485
 21
-130703.1228160422
 31
0.0
  0
LINE
  5
BB
330
2F
100
AcDbEntity
  8
粗线层
 62
7
100
AcDbLine
 10
29446.07573624485
 20
-130776.6756967426
 30
0.0
 11
29446.07573624485
 21
-130773.0257362178
 31
0.0
  0
LINE
  5
BC
330
2F
100
AcDbEntity
  8
粗线层
 62
7
100
AcDbLine
 10
29446.07573624485
 20
-130766.0257362178
 30
0.0
 11
29446.07573624485
 21
-130759.7757362178
 31
0.0
  0
LINE
  5
BD
330
2F
100
AcDbEntity
  8
粗线层
 62
7
100
AcDbLine
 10
29446.07573624485
 20
-130714.7757362178
 30
0.0
 11
29446.07573624485
 21
-130708.5257362178
 31
0.0
  0
LINE
  5
BE
330
2F
100
AcDbEntity
  8
粗线层
 62
7
100
AcDbLine
 10
29446.07573624485
 20
-130701.5257362178
 30
0.0
 11
29446.07573624485
 21
-130697.8757756929
 31
0.0
  0
LINE
  5
BF
330
2F
100
AcDbEntity
  8
粗线层
 62
7
100
AcDbLine
 10
29445.82573624485
 20
-130767.6228160422
 30
0.0
 11
29445.82573624485
 21
-130768.2757362178
 31
0.0
  0
LINE
  5
C0
330
2F
100
AcDbEntity
  8
粗线层
 62
7
100
AcDbLine
 10
29445.82573624485
 20
-130770.7757362178
 30
0.0
 11
29445.82573624485
 21
-130771.4286563933
 31
0.0
  0
LINE
  5
C1
330
2F
100
AcDbEntity
  8
粗线层
 62
7
100
AcDbLine
 10
29445.82573624485
 20
-130706.9286563933
 30
0.0
 11
29445.82573624485
 21
-130706.2757362178
 31
0.0
  0
LINE
  5
C2
330
2F
100
AcDbEntity
  8
粗线层
 62
7
100
AcDbLine
 10
29445.82573624485
 20
-130703.7757362178
 30
0.0
 11
29445.82573624485
 21
-130703.1228160422
 31
0.0
  0
LINE
  5
C3
330
2F
100
AcDbEntity
  8
粗线层
 62
7
100
AcDbLine
 10
29445.28637081775
 20
-130769.8881463405
 30
0.0
 11
29445.28637081775
 21
-130769.163326095
 31
0.0
  0
LINE
  5
C4
330
2F
100
AcDbEntity
  8
粗线层
 62
7
100
AcDbLine
 10
29445.28637081775
 20
-130705.3881463405
 30
0.0
 11
29445.28637081775
 21
-130704.663326095
 31
0.0
  0
LINE
  5
C5
330
2F
100
AcDbEntity
  8
粗线层
 62
7
100
AcDbLine
 10
29444.58457499395
 20
-130704.7757362178
 30
0.0
 11
29444.58457499395
 21
-130705.2757362178
 31
0.0
  0
LINE
  5
C6
330
2F
100
AcDbEntity
  8
粗线层
 62
7
100
AcDbLine
 10
29444.58457499395
 20
-130769.7757362178
 30
0.0
 11
29444.58457499395
 21
-130769.2757362178
 31
0.0
  0
LINE
  5
C7
330
2F
100
AcDbEntity
  8
粗线层
 62
7
100
AcDbLine
 10
29443.87573624485
 20
-130751.0180156535
 30
0.0
 11
29443.87573624485
 21
-130751.0900893984
 31
0.0
  0
LINE
  5
C8
330
2F
100
AcDbEntity
  8
粗线层
 62
7
100
AcDbLine
 10
29438.37573624485
 20
-130714.7757362178
 30
0.0
 11
29453.77573624485
 21
-130714.7757362178
 31
0.0
  0
LINE
  5
C9
330
2F
100
AcDbEntity
  8
粗线层
 62
7
100
AcDbLine
 10
29473.97573624484
 20
-130714.7757362178
 30
0.0
 11
29489.37573624485
 21
-130714.7757362178
 31
0.0
  0
LINE
  5
CA
330
2F
100
AcDbEntity
  8
粗线层
 62
7
100
AcDbLine
 10
29473.17573624484
 20
-130711.5757362178
 30
0.0
 11
29472.77573624485
 21
-130711.1757362178
 31
0.0
  0
LINE
  5
CB
330
2F
100
AcDbEntity
  8
粗线层
 62
7
100
AcDbLine
 10
29439.97573624484
 20
-130776.6757362178
 30
0.0
 11
29439.97573624484
 21
-130778.8757362178
 31
0.0
  0
LINE
  5
CC
330
2F
100
AcDbEntity
  8
粗线层
 62
7
100
AcDbLine
 10
29439.42573624556
 20
-130749.2492920981
 30
0.0
 11
29439.42573624484
 21
-130757.548988379
 31
0.0
  0
LINE
  5
CD
330
2F
100
AcDbEntity
  8
粗线层
 62
7
100
AcDbLine
 10
29439.12573624485
 20
-130749.4797697827
 30
0.0
 11
29439.12573624485
 21
-130757.2488738331
 31
0.0
  0
LINE
  5
CE
330
2F
100
AcDbEntity
  8
粗线层
 62
7
100
AcDbLine
 10
29437.57573624485
 20
-130699.8757362178
 30
0.0
 11
29437.57573624485
 21
-130711.5757362178
 31
0.0
  0
LINE
  5
CF
330
2F
100
AcDbEntity
  8
粗线层
 62
7
100
AcDbLine
 10
29437.57573624485
 20
-130762.9757362178
 30
0.0
 11
29437.57573624485
 21
-130774.6757362178
 31
0.0
  0
LINE
  5
D0
330
2F
100
AcDbEntity
  8
粗线层
 62
7
100
AcDbLine
 10
29454.97573624484
 20
-130711.1757362178
 30
0.0
 11
29454.57573624485
 21
-130711.5757362178
 31
0.0
  0
LINE
  5
D1
330
2F
100
AcDbEntity
  8
粗线层
 62
7
100
AcDbLine
 10
29490.17573624484
 20
-130711.5757362178
 30
0.0
 11
29473.17573624484
 21
-130711.5757362178
 31
0.0
  0
LINE
  5
D2
330
2F
100
AcDbEntity
  8
粗线层
 62
7
100
AcDbLine
 10
29472.37573624486
 20
-130711.5757362178
 30
0.0
 11
29455.37573624486
 21
-130711.5757362178
 31
0.0
  0
LINE
  5
D3
330
2F
100
AcDbEntity
  8
粗线层
 62
7
100
AcDbLine
 10
29454.57573624485
 20
-130711.5757362178
 30
0.0
 11
29437.57573624485
 21
-130711.5757362178
 31
0.0
  0
LINE
  5
D4
330
2F
100
AcDbEntity
  8
粗线层
 62
7
100
AcDbLine
 10
29437.37573624485
 20
-130775.9754262775
 30
0.0
 11
29437.37573624485
 21
-130775.2725393718
 31
0.0
  0
LINE
  5
D5
330
2F
100
AcDbEntity
  8
粗线层
 62
7
100
AcDbLine
 10
29437.37573624485
 20
-130699.2789355032
 30
0.0
 11
29437.37573624485
 21
-130698.576046158
 31
0.0
  0
LINE
  5
D6
330
2F
100
AcDbEntity
  8
粗线层
 62
7
100
AcDbLine
 10
29437.17573624484
 20
-130774.6757362178
 30
0.0
 11
29437.17573624484
 21
-130699.8757362178
 31
0.0
  0
LINE
  5
D7
330
2F
100
AcDbEntity
  8
粗线层
 62
7
100
AcDbLine
 10
29445.82573624485
 20
-130706.9286563933
 30
0.0
 11
29446.32573624485
 21
-130706.9286563933
 31
0.0
  0
LINE
  5
D8
330
2F
100
AcDbEntity
  8
粗线层
 62
7
100
AcDbLine
 10
29463.62573624485
 20
-130706.9286563933
 30
0.0
 11
29464.12573624485
 21
-130706.9286563933
 31
0.0
  0
LINE
  5
D9
330
2F
100
AcDbEntity
  8
粗线层
 62
7
100
AcDbLine
 10
29481.42573624484
 20
-130706.9286563933
 30
0.0
 11
29481.92573624484
 21
-130706.9286563933
 31
0.0
  0
LINE
  5
DA
330
2F
100
AcDbEntity
  8
粗线层
 62
7
100
AcDbLine
 10
29482.03814636754
 20
-130705.8151016449
 30
0.0
 11
29481.31332612215
 21
-130705.8151016449
 31
0.0
  0
LINE
  5
DB
330
2F
100
AcDbEntity
  8
粗线层
 62
7
100
AcDbLine
 10
29464.23814636754
 20
-130705.8151016449
 30
0.0
 11
29463.51332612215
 21
-130705.8151016449
 31
0.0
  0
LINE
  5
DC
330
2F
100
AcDbEntity
  8
粗线层
 62
7
100
AcDbLine
 10
29446.43814636755
 20
-130705.8151016449
 30
0.0
 11
29445.71332612215
 21
-130705.8151016449
 31
0.0
  0
LINE
  5
DD
330
2F
100
AcDbEntity
  8
粗线层
 62
7
100
AcDbLine
 10
29484.99550677395
 20
-130705.2757362178
 30
0.0
 11
29482.92573624484
 21
-130705.2757362178
 31
0.0
  0
LINE
  5
DE
330
2F
100
AcDbEntity
  8
粗线层
 62
7
100
AcDbLine
 10
29480.42573624484
 20
-130705.2757362178
 30
0.0
 11
29478.35596947855
 21
-130705.2757362178
 31
0.0
  0
LINE
  5
DF
330
2F
100
AcDbEntity
  8
粗线层
 62
7
100
AcDbLine
 10
29467.19550677395
 20
-130705.2757362178
 30
0.0
 11
29465.12573624485
 21
-130705.2757362178
 31
0.0
  0
LINE
  5
E0
330
2F
100
AcDbEntity
  8
粗线层
 62
7
100
AcDbLine
 10
29462.62573624485
 20
-130705.2757362178
 30
0.0
 11
29460.55596947855
 21
-130705.2757362178
 31
0.0
  0
LINE
  5
E1
330
2F
100
AcDbEntity
  8
粗线层
 62
7
100
AcDbLine
 10
29449.39550677394
 20
-130705.2757362178
 30
0.0
 11
29447.32573624485
 21
-130705.2757362178
 31
0.0
  0
LINE
  5
E2
330
2F
100
AcDbEntity
  8
粗线层
 62
7
100
AcDbLine
 10
29444.82573624485
 20
-130705.2757362178
 30
0.0
 11
29442.75596947854
 21
-130705.2757362178
 31
0.0
  0
LINE
  5
E3
330
2F
100
AcDbEntity
  8
粗线层
 62
7
100
AcDbLine
 10
29484.99550301334
 20
-130704.7757362178
 30
0.0
 11
29482.92573624484
 21
-130704.7757362178
 31
0.0
  0
LINE
  5
E4
330
2F
100
AcDbEntity
  8
粗线层
 62
7
100
AcDbLine
 10
29480.42573624484
 20
-130704.7757362178
 30
0.0
 11
29478.35596571585
 21
-130704.7757362178
 31
0.0
  0
LINE
  5
E5
330
2F
100
AcDbEntity
  8
粗线层
 62
7
100
AcDbLine
 10
29467.19550301334
 20
-130704.7757362178
 30
0.0
 11
29465.12573624485
 21
-130704.7757362178
 31
0.0
  0
LINE
  5
E6
330
2F
100
AcDbEntity
  8
粗线层
 62
7
100
AcDbLine
 10
29462.62573624485
 20
-130704.7757362178
 30
0.0
 11
29460.55596571584
 21
-130704.7757362178
 31
0.0
  0
LINE
  5
E7
330
2F
100
AcDbEntity
  8
粗线层
 62
7
100
AcDbLine
 10
29449.39550301335
 20
-130704.7757362178
 30
0.0
 11
29447.32573624485
 21
-130704.7757362178
 31
0.0
  0
LINE
  5
E8
330
2F
100
AcDbEntity
  8
粗线层
 62
7
100
AcDbLine
 10
29444.82573624485
 20
-130704.7757362178
 30
0.0
 11
29442.75596571584
 21
-130704.7757362178
 31
0.0
  0
LINE
  5
E9
330
2F
100
AcDbEntity
  8
粗线层
 62
7
100
AcDbLine
 10
29445.71332612215
 20
-130704.2363707906
 30
0.0
 11
29446.43814636755
 21
-130704.2363707906
 31
0.0
  0
LINE
  5
EA
330
2F
100
AcDbEntity
  8
粗线层
 62
7
100
AcDbLine
 10
29463.51332612215
 20
-130704.2363707906
 30
0.0
 11
29464.23814636754
 21
-130704.2363707906
 31
0.0
  0
LINE
  5
EB
330
2F
100
AcDbEntity
  8
粗线层
 62
7
100
AcDbLine
 10
29481.31332612215
 20
-130704.2363707906
 30
0.0
 11
29482.03814636754
 21
-130704.2363707906
 31
0.0
  0
LINE
  5
EC
330
2F
100
AcDbEntity
  8
粗线层
 62
7
100
AcDbLine
 10
29445.82573624485
 20
-130703.1228160422
 30
0.0
 11
29446.32573624485
 21
-130703.1228160422
 31
0.0
  0
LINE
  5
ED
330
2F
100
AcDbEntity
  8
粗线层
 62
7
100
AcDbLine
 10
29463.62573624485
 20
-130703.1228160422
 30
0.0
 11
29464.12573624485
 21
-130703.1228160422
 31
0.0
  0
LINE
  5
EE
330
2F
100
AcDbEntity
  8
粗线层
 62
7
100
AcDbLine
 10
29481.42573624484
 20
-130703.1228160422
 30
0.0
 11
29481.92573624484
 21
-130703.1228160422
 31
0.0
  0
LINE
  5
EF
330
2F
100
AcDbEntity
  8
粗线层
 62
7
100
AcDbLine
 10
29489.57573624485
 20
-130699.2757362178
 30
0.0
 11
29473.77573624485
 21
-130699.2757362178
 31
0.0
  0
LINE
  5
F0
330
2F
100
AcDbEntity
  8
粗线层
 62
7
100
AcDbLine
 10
29471.77573624485
 20
-130699.2757362178
 30
0.0
 11
29455.97573624485
 21
-130699.2757362178
 31
0.0
  0
LINE
  5
F1
330
2F
100
AcDbEntity
  8
粗线层
 62
7
100
AcDbLine
 10
29453.97573624484
 20
-130699.2757362178
 30
0.0
 11
29438.17573624484
 21
-130699.2757362178
 31
0.0
  0
LINE
  5
F2
330
2F
100
AcDbEntity
  8
粗线层
 62
7
100
AcDbLine
 10
29489.57573624485
 20
-130698.8757362178
 30
0.0
 11
29473.77573624485
 21
-130698.8757362178
 31
0.0
  0
LINE
  5
F3
330
2F
100
AcDbEntity
  8
粗线层
 62
7
100
AcDbLine
 10
29471.77573624485
 20
-130698.8757362178
 30
0.0
 11
29455.97573624485
 21
-130698.8757362178
 31
0.0
  0
LINE
  5
F4
330
2F
100
AcDbEntity
  8
粗线层
 62
7
100
AcDbLine
 10
29453.97573624484
 20
-130698.8757362178
 30
0.0
 11
29438.17573624484
 21
-130698.8757362178
 31
0.0
  0
LINE
  5
F5
330
2F
100
AcDbEntity
  8
粗线层
 62
7
100
AcDbLine
 10
29489.57573624485
 20
-130697.8757362178
 30
0.0
 11
29473.67573624484
 21
-130697.8757362178
 31
0.0
  0
LINE
  5
F6
330
2F
100
AcDbEntity
  8
粗线层
 62
7
100
AcDbLine
 10
29471.77573624485
 20
-130697.8757362178
 30
0.0
 11
29455.87573624485
 21
-130697.8757362178
 31
0.0
  0
LINE
  5
F7
330
2F
100
AcDbEntity
  8
粗线层
 62
7
100
AcDbLine
 10
29453.97573624484
 20
-130697.8757362178
 30
0.0
 11
29438.07573624485
 21
-130697.8757362178
 31
0.0
  0
ARC
  5
F8
330
2F
100
AcDbEntity
  8
粗线层
 62
7
100
AcDbCircle
 10
29473.77573624485
 20
-130774.6757362178
 30
0.0
 40
1.0
100
AcDbArc
 50
180.0
 51
270.0
  0
ARC
  5
F9
330
2F
100
AcDbEntity
  8
粗线层
 62
7
100
AcDbCircle
 10
29489.57573624485
 20
-130774.6757362178
 30
0.0
 40
1.0
100
AcDbArc
 50
270.0
 51
0.0
  0
ARC
  5
FA
330
2F
100
AcDbEntity
  8
粗线层
 62
7
100
AcDbCircle
 10
29471.77573624485
 20
-130774.6757362178
 30
0.0
 40
1.0
100
AcDbArc
 50
270.0
 51
0.0
  0
ARC
  5
FB
330
2F
100
AcDbEntity
  8
粗线层
 62
7
100
AcDbCircle
 10
29473.67573624484
 20
-130775.9757362178
 30
0.0
 40
0.7
100
AcDbArc
 50
180.0
 51
270.0
  0
ARC
  5
FC
330
2F
100
AcDbEntity
  8
粗线层
 62
7
100
AcDbCircle
 10
29473.67573624484
 20
-130774.9757362178
 30
0.0
 40
0.7
100
AcDbArc
 50
229.612346591673
 51
270.0
  0
ARC
  5
FD
330
2F
100
AcDbEntity
  8
粗线层
 62
7
100
AcDbCircle
 10
29489.57573624485
 20
-130775.9757362178
 30
0.0
 40
0.7
100
AcDbArc
 50
270.0
 51
0.0
  0
ARC
  5
FE
330
2F
100
AcDbEntity
  8
粗线层
 62
7
100
AcDbCircle
 10
29471.77573624485
 20
-130775.9757362178
 30
0.0
 40
0.7
100
AcDbArc
 50
270.0
 51
0.0
  0
ARC
  5
FF
330
2F
100
AcDbEntity
  8
粗线层
 62
7
100
AcDbCircle
 10
29473.77573624485
 20
-130774.6757362178
 30
0.0
 40
0.6
100
AcDbArc
 50
180.0
 51
270.0
  0
ARC
  5
100
330
2F
100
AcDbEntity
  8
粗线层
 62
7
100
AcDbCircle
 10
29489.57573624485
 20
-130774.6757362178
 30
0.0
 40
0.6
100
AcDbArc
 50
270.0
 51
0.0
  0
ARC
  5
101
330
2F
100
AcDbEntity
  8
粗线层
 62
7
100
AcDbCircle
 10
29471.77573624485
 20
-130774.6757362178
 30
0.0
 40
0.6
100
AcDbArc
 50
270.0
 51
0.0
  0
ARC
  5
102
330
2F
100
AcDbEntity
  8
粗线层
 62
7
100
AcDbCircle
 10
29481.67581237575
 20
-130769.5256599629
 30
0.0
 40
4.6500519754
100
AcDbArc
 50
90.00093807628998
 51
269.9990619545592
  0
ARC
  5
103
330
2F
100
AcDbEntity
  8
粗线层
 62
7
100
AcDbCircle
 10
29481.67573653004
 20
-130769.5257376347
 30
0.0
 40
4.649999805299999
100
AcDbArc
 50
269.9999964865213
 51
90.0
  0
ARC
  5
104
330
2F
100
AcDbEntity
  8
粗线层
 62
7
100
AcDbCircle
 10
29481.67573653004
 20
-130769.5257376347
 30
0.0
 40
4.249999149599999
100
AcDbArc
 50
269.9999961555173
 51
90.0
  0
ARC
  5
105
330
2F
100
AcDbEntity
  8
粗线层
 62
7
100
AcDbCircle
 10
29481.67581237575
 20
-130769.5256599629
 30
0.0
 40
4.2499802608
100
AcDbArc
 50
90.0010263668237
 51
269.9989736698619
  0
ARC
  5
106
330
2F
100
AcDbEntity
  8
粗线层
 62
7
100
AcDbCircle
 10
29481.67573624484
 20
-130769.5257362178
 30
0.0
 40
3.5
100
AcDbArc
 50
90.0
 51
270.0
  0
CIRCLE
  5
107
330
2F
100
AcDbEntity
  8
粗线层
 62
7
100
AcDbCircle
 10
29481.67573624484
 20
-130769.5257362178
 30
0.0
 40
3.4551655922
  0
ARC
  5
108
330
2F
100
AcDbEntity
  8
粗线层
 62
7
100
AcDbCircle
 10
29481.67573624484
 20
-130769.5257362178
 30
0.0
 40
3.329150693099999
100
AcDbArc
 50
355.6933852322416
 51
4.306614767758357
  0
ARC
  5
109
330
2F
100
AcDbEntity
  8
粗线层
 62
7
100
AcDbCircle
 10
29481.67573624484
 20
-130769.5257362178
 30
0.0
 40
3.329150693099999
100
AcDbArc
 50
175.6933852322416
 51
184.3066147677583
  0
ARC
  5
10A
330
2F
100
AcDbEntity
  8
粗线层
 62
7
100
AcDbCircle
 10
29481.67573624484
 20
-130769.5257362178
 30
0.0
 40
2.950006736
100
AcDbArc
 50
184.8614053956709
 51
355.1385946043291
  0
ARC
  5
10B
330
2F
100
AcDbEntity
  8
粗线层
 62
7
100
AcDbCircle
 10
29481.67573624484
 20
-130769.5257362178
 30
0.0
 40
2.950006736
100
AcDbArc
 50
4.86140539567097
 51
175.138594604329
  0
ARC
  5
10C
330
2F
100
AcDbEntity
  8
粗线层
 62
7
100
AcDbCircle
 10
29480.42573624484
 20
-130768.2757362178
 30
0.0
 40
1.0
100
AcDbArc
 50
270.0
 51
0.0
  0
ARC
  5
10D
330
2F
100
AcDbEntity
  8
粗线层
 62
7
100
AcDbCircle
 10
29482.92573624484
 20
-130768.2757362178
 30
0.0
 40
1.0
100
AcDbArc
 50
180.0
 51
270.0
  0
ARC
  5
10E
330
2F
100
AcDbEntity
  8
粗线层
 62
7
100
AcDbCircle
 10
29480.42573624484
 20
-130770.7757362178
 30
0.0
 40
1.0
100
AcDbArc
 50
0.0
 51
90.0
  0
ARC
  5
10F
330
2F
100
AcDbEntity
  8
粗线层
 62
7
100
AcDbCircle
 10
29482.92573624484
 20
-130770.7757362178
 30
0.0
 40
1.0
100
AcDbArc
 50
90.0
 51
180.0
  0
ARC
  5
110
330
2F
100
AcDbEntity
  8
粗线层
 62
7
100
AcDbCircle
 10
29481.67573624484
 20
-130769.5257362178
 30
0.0
 40
0.7893650227000001
100
AcDbArc
 50
235.039117045589
 51
304.960882954411
  0
ARC
  5
111
330
2F
100
AcDbEntity
  8
粗线层
 62
7
100
AcDbCircle
 10
29481.67573624484
 20
-130769.5257362178
 30
0.0
 40
0.7893650227000001
100
AcDbArc
 50
55.03911704558901
 51
124.960882954411
  0
ARC
  5
112
330
2F
100
AcDbEntity
  8
粗线层
 62
7
100
AcDbCircle
 10
29481.67573624484
 20
-130769.5257362178
 30
0.0
 40
0.7893647651000001
100
AcDbArc
 50
145.039117045589
 51
214.960882954411
  0
ARC
  5
113
330
2F
100
AcDbEntity
  8
粗线层
 62
7
100
AcDbCircle
 10
29481.67573624484
 20
-130769.5257362178
 30
0.0
 40
0.7893647651000001
100
AcDbArc
 50
325.039117045589
 51
34.96088295441099
  0
ARC
  5
114
330
2F
100
AcDbEntity
  8
粗线层
 62
7
100
AcDbCircle
 10
29463.87581237575
 20
-130769.5256599629
 30
0.0
 40
4.6500519754
100
AcDbArc
 50
90.00093807628998
 51
269.9990619545592
  0
ARC
  5
115
330
2F
100
AcDbEntity
  8
粗线层
 62
7
100
AcDbCircle
 10
29463.87573653004
 20
-130769.5257376347
 30
0.0
 40
4.649999805299999
100
AcDbArc
 50
269.9999964865213
 51
90.0
  0
ARC
  5
116
330
2F
100
AcDbEntity
  8
粗线层
 62
7
100
AcDbCircle
 10
29463.87573653004
 20
-130769.5257376347
 30
0.0
 40
4.249999149599999
100
AcDbArc
 50
269.9999961555173
 51
90.0
  0
ARC
  5
117
330
2F
100
AcDbEntity
  8
粗线层
 62
7
100
AcDbCircle
 10
29463.87581237575
 20
-130769.5256599629
 30
0.0
 40
4.2499802608
100
AcDbArc
 50
90.0010263668237
 51
269.9989736698619
  0
ARC
  5
118
330
2F
100
AcDbEntity
  8
粗线层
 62
7
100
AcDbCircle
 10
29463.87573624485
 20
-130769.5257362178
 30
0.0
 40
3.5
100
AcDbArc
 50
90.0
 51
270.0
  0
CIRCLE
  5
119
330
2F
100
AcDbEntity
  8
粗线层
 62
7
100
AcDbCircle
 10
29463.87573624485
 20
-130769.5257362178
 30
0.0
 40
3.4551655922
  0
ARC
  5
11A
330
2F
100
AcDbEntity
  8
粗线层
 62
7
100
AcDbCircle
 10
29463.87573624485
 20
-130769.5257362178
 30
0.0
 40
3.329150693099999
100
AcDbArc
 50
355.6933852322416
 51
4.306614767758357
  0
ARC
  5
11B
330
2F
100
AcDbEntity
  8
粗线层
 62
7
100
AcDbCircle
 10
29463.87573624485
 20
-130769.5257362178
 30
0.0
 40
3.329150693099999
100
AcDbArc
 50
175.6933852322416
 51
184.3066147677583
  0
ARC
  5
11C
330
2F
100
AcDbEntity
  8
粗线层
 62
7
100
AcDbCircle
 10
29463.87573624485
 20
-130769.5257362178
 30
0.0
 40
2.950006736
100
AcDbArc
 50
184.8614053956709
 51
355.1385946043291
  0
ARC
  5
11D
330
2F
100
AcDbEntity
  8
粗线层
 62
7
100
AcDbCircle
 10
29463.87573624485
 20
-130769.5257362178
 30
0.0
 40
2.950006736
100
AcDbArc
 50
4.86140539567097
 51
175.138594604329
  0
ARC
  5
11E
330
2F
100
AcDbEntity
  8
粗线层
 62
7
100
AcDbCircle
 10
29462.62573624485
 20
-130768.2757362178
 30
0.0
 40
1.0
100
AcDbArc
 50
270.0
 51
0.0
  0
ARC
  5
11F
330
2F
100
AcDbEntity
  8
粗线层
 62
7
100
AcDbCircle
 10
29465.12573624485
 20
-130768.2757362178
 30
0.0
 40
1.0
100
AcDbArc
 50
180.0
 51
270.0
  0
ARC
  5
120
330
2F
100
AcDbEntity
  8
粗线层
 62
7
100
AcDbCircle
 10
29462.62573624485
 20
-130770.7757362178
 30
0.0
 40
1.0
100
AcDbArc
 50
0.0
 51
90.0
  0
ARC
  5
121
330
2F
100
AcDbEntity
  8
粗线层
 62
7
100
AcDbCircle
 10
29465.12573624485
 20
-130770.7757362178
 30
0.0
 40
1.0
100
AcDbArc
 50
90.0
 51
180.0
  0
ARC
  5
122
330
2F
100
AcDbEntity
  8
粗线层
 62
7
100
AcDbCircle
 10
29463.87573624485
 20
-130769.5257362178
 30
0.0
 40
0.7893650227000001
100
AcDbArc
 50
235.039117045589
 51
304.960882954411
  0
ARC
  5
123
330
2F
100
AcDbEntity
  8
粗线层
 62
7
100
AcDbCircle
 10
29463.87573624485
 20
-130769.5257362178
 30
0.0
 40
0.7893650227000001
100
AcDbArc
 50
55.03911704558901
 51
124.960882954411
  0
ARC
  5
124
330
2F
100
AcDbEntity
  8
粗线层
 62
7
100
AcDbCircle
 10
29463.87573624485
 20
-130769.5257362178
 30
0.0
 40
0.7893647651000001
100
AcDbArc
 50
145.039117045589
 51
214.960882954411
  0
ARC
  5
125
330
2F
100
AcDbEntity
  8
粗线层
 62
7
100
AcDbCircle
 10
29463.87573624485
 20
-130769.5257362178
 30
0.0
 40
0.7893647651000001
100
AcDbArc
 50
325.039117045589
 51
34.96088295441099
  0
ARC
  5
126
330
2F
100
AcDbEntity
  8
粗线层
 62
7
100
AcDbCircle
 10
29438.07573624485
 20
-130775.9757362178
 30
0.0
 40
0.7
100
AcDbArc
 50
180.0
 51
270.0
  0
ARC
  5
127
330
2F
100
AcDbEntity
  8
粗线层
 62
7
100
AcDbCircle
 10
29455.87573624485
 20
-130775.9757362178
 30
0.0
 40
0.7
100
AcDbArc
 50
180.0
 51
270.0
  0
ARC
  5
128
330
2F
100
AcDbEntity
  8
粗线层
 62
7
100
AcDbCircle
 10
29453.97573624484
 20
-130775.9757362178
 30
0.0
 40
0.7
100
AcDbArc
 50
270.0
 51
0.0
  0
ARC
  5
129
330
2F
100
AcDbEntity
  8
粗线层
 62
7
100
AcDbCircle
 10
29447.32573624485
 20
-130768.2757362178
 30
0.0
 40
1.0
100
AcDbArc
 50
180.0
 51
270.0
  0
ARC
  5
12A
330
2F
100
AcDbEntity
  8
粗线层
 62
7
100
AcDbCircle
 10
29447.32573624485
 20
-130770.7757362178
 30
0.0
 40
1.0
100
AcDbArc
 50
90.0
 51
180.0
  0
ARC
  5
12B
330
2F
100
AcDbEntity
  8
粗线层
 62
7
100
AcDbCircle
 10
29455.97573624485
 20
-130774.6757362178
 30
0.0
 40
1.0
100
AcDbArc
 50
180.0
 51
270.0
  0
ARC
  5
12C
330
2F
100
AcDbEntity
  8
粗线层
 62
7
100
AcDbCircle
 10
29453.97573624484
 20
-130774.6757362178
 30
0.0
 40
1.0
100
AcDbArc
 50
270.0
 51
0.0
  0
ARC
  5
12D
330
2F
100
AcDbEntity
  8
粗线层
 62
7
100
AcDbCircle
 10
29455.87573624485
 20
-130774.9757362178
 30
0.0
 40
0.7
100
AcDbArc
 50
229.612346591673
 51
270.0
  0
ARC
  5
12E
330
2F
100
AcDbEntity
  8
粗线层
 62
7
100
AcDbCircle
 10
29455.97573624485
 20
-130774.6757362178
 30
0.0
 40
0.6
100
AcDbArc
 50
180.0
 51
270.0
  0
ARC
  5
12F
330
2F
100
AcDbEntity
  8
粗线层
 62
7
100
AcDbCircle
 10
29453.97573624484
 20
-130774.6757362178
 30
0.0
 40
0.6
100
AcDbArc
 50
270.0
 51
0.0
  0
ARC
  5
130
330
2F
100
AcDbEntity
  8
粗线层
 62
7
100
AcDbCircle
 10
29446.07581237574
 20
-130769.5256599629
 30
0.0
 40
4.6500519754
100
AcDbArc
 50
90.00093807628998
 51
269.9990619545592
  0
ARC
  5
131
330
2F
100
AcDbEntity
  8
粗线层
 62
7
100
AcDbCircle
 10
29446.07573653005
 20
-130769.5257376347
 30
0.0
 40
4.649999805299999
100
AcDbArc
 50
269.9999964865213
 51
90.0
  0
ARC
  5
132
330
2F
100
AcDbEntity
  8
粗线层
 62
7
100
AcDbCircle
 10
29446.07573653005
 20
-130769.5257376347
 30
0.0
 40
4.249999149599999
100
AcDbArc
 50
269.9999961555173
 51
90.0
  0
ARC
  5
133
330
2F
100
AcDbEntity
  8
粗线层
 62
7
100
AcDbCircle
 10
29446.07581237574
 20
-130769.5256599629
 30
0.0
 40
4.2499802608
100
AcDbArc
 50
90.0010263668237
 51
269.9989736698619
  0
ARC
  5
134
330
2F
100
AcDbEntity
  8
粗线层
 62
7
100
AcDbCircle
 10
29446.07573624485
 20
-130769.5257362178
 30
0.0
 40
3.5
100
AcDbArc
 50
90.0
 51
270.0
  0
CIRCLE
  5
135
330
2F
100
AcDbEntity
  8
粗线层
 62
7
100
AcDbCircle
 10
29446.07573624485
 20
-130769.5257362178
 30
0.0
 40
3.4551655922
  0
ARC
  5
136
330
2F
100
AcDbEntity
  8
粗线层
 62
7
100
AcDbCircle
 10
29446.07573624485
 20
-130769.5257362178
 30
0.0
 40
3.329150693099999
100
AcDbArc
 50
355.6933852322416
 51
4.306614767758357
  0
ARC
  5
137
330
2F
100
AcDbEntity
  8
粗线层
 62
7
100
AcDbCircle
 10
29446.07573624485
 20
-130769.5257362178
 30
0.0
 40
3.329150693099999
100
AcDbArc
 50
175.6933852322416
 51
184.3066147677583
  0
ARC
  5
138
330
2F
100
AcDbEntity
  8
粗线层
 62
7
100
AcDbCircle
 10
29446.07573624485
 20
-130769.5257362178
 30
0.0
 40
2.950006736
100
AcDbArc
 50
184.8614053956709
 51
355.1385946043291
  0
ARC
  5
139
330
2F
100
AcDbEntity
  8
粗线层
 62
7
100
AcDbCircle
 10
29446.07573624485
 20
-130769.5257362178
 30
0.0
 40
2.950006736
100
AcDbArc
 50
4.86140539567097
 51
175.138594604329
  0
ARC
  5
13A
330
2F
100
AcDbEntity
  8
粗线层
 62
7
100
AcDbCircle
 10
29444.82573624485
 20
-130768.2757362178
 30
0.0
 40
1.0
100
AcDbArc
 50
270.0
 51
0.0
  0
ARC
  5
13B
330
2F
100
AcDbEntity
  8
粗线层
 62
7
100
AcDbCircle
 10
29444.82573624485
 20
-130770.7757362178
 30
0.0
 40
1.0
100
AcDbArc
 50
0.0
 51
90.0
  0
ARC
  5
13C
330
2F
100
AcDbEntity
  8
粗线层
 62
7
100
AcDbCircle
 10
29438.17573624484
 20
-130774.6757362178
 30
0.0
 40
1.0
100
AcDbArc
 50
180.0
 51
270.0
  0
ARC
  5
13D
330
2F
100
AcDbEntity
  8
粗线层
 62
7
100
AcDbCircle
 10
29446.07573624485
 20
-130769.5257362178
 30
0.0
 40
0.7893650227000001
100
AcDbArc
 50
235.039117045589
 51
304.960882954411
  0
ARC
  5
13E
330
2F
100
AcDbEntity
  8
粗线层
 62
7
100
AcDbCircle
 10
29446.07573624485
 20
-130769.5257362178
 30
0.0
 40
0.7893650227000001
100
AcDbArc
 50
55.03911704558901
 51
124.960882954411
  0
ARC
  5
13F
330
2F
100
AcDbEntity
  8
粗线层
 62
7
100
AcDbCircle
 10
29446.07573624485
 20
-130769.5257362178
 30
0.0
 40
0.7893647651000001
100
AcDbArc
 50
145.039117045589
 51
214.960882954411
  0
ARC
  5
140
330
2F
100
AcDbEntity
  8
粗线层
 62
7
100
AcDbCircle
 10
29446.07573624485
 20
-130769.5257362178
 30
0.0
 40
0.7893647651000001
100
AcDbArc
 50
325.039117045589
 51
34.96088295441099
  0
ARC
  5
141
330
2F
100
AcDbEntity
  8
粗线层
 62
7
100
AcDbCircle
 10
29438.07573624485
 20
-130774.9757362178
 30
0.0
 40
0.7
100
AcDbArc
 50
229.612346591673
 51
270.0
  0
ARC
  5
142
330
2F
100
AcDbEntity
  8
粗线层
 62
7
100
AcDbCircle
 10
29438.17573624484
 20
-130774.6757362178
 30
0.0
 40
0.6
100
AcDbArc
 50
180.0
 51
270.0
  0
ARC
  5
143
330
2F
100
AcDbEntity
  8
粗线层
 62
7
100
AcDbCircle
 10
29481.67581237575
 20
-130705.0256599629
 30
0.0
 40
4.6500519754
100
AcDbArc
 50
90.00093807628998
 51
269.9990619545592
  0
ARC
  5
144
330
2F
100
AcDbEntity
  8
粗线层
 62
7
100
AcDbCircle
 10
29481.67573653004
 20
-130705.0257376347
 30
0.0
 40
4.649999805299999
100
AcDbArc
 50
269.9999964865213
 51
90.0
  0
ARC
  5
145
330
2F
100
AcDbEntity
  8
粗线层
 62
7
100
AcDbCircle
 10
29481.67573653004
 20
-130705.0257376347
 30
0.0
 40
4.249999149599999
100
AcDbArc
 50
269.9999961555173
 51
90.0
  0
ARC
  5
146
330
2F
100
AcDbEntity
  8
粗线层
 62
7
100
AcDbCircle
 10
29481.67581237575
 20
-130705.0256599629
 30
0.0
 40
4.2499802608
100
AcDbArc
 50
90.0010263668237
 51
269.9989736698619
  0
ARC
  5
147
330
2F
100
AcDbEntity
  8
粗线层
 62
7
100
AcDbCircle
 10
29481.67573624484
 20
-130705.0257362178
 30
0.0
 40
3.5
100
AcDbArc
 50
90.0
 51
270.0
  0
CIRCLE
  5
148
330
2F
100
AcDbEntity
  8
粗线层
 62
7
100
AcDbCircle
 10
29481.67573624484
 20
-130705.0257362178
 30
0.0
 40
3.4551655922
  0
ARC
  5
149
330
2F
100
AcDbEntity
  8
粗线层
 62
7
100
AcDbCircle
 10
29481.67573624484
 20
-130705.0257362178
 30
0.0
 40
3.329150693099999
100
AcDbArc
 50
175.6933852322416
 51
184.3066147677583
  0
ARC
  5
14A
330
2F
100
AcDbEntity
  8
粗线层
 62
7
100
AcDbCircle
 10
29481.67573624484
 20
-130705.0257362178
 30
0.0
 40
3.329150693099999
100
AcDbArc
 50
355.6933852322416
 51
4.306614767758357
  0
ARC
  5
14B
330
2F
100
AcDbEntity
  8
粗线层
 62
7
100
AcDbCircle
 10
29481.67573624484
 20
-130705.0257362178
 30
0.0
 40
2.950006736
100
AcDbArc
 50
4.86140539567097
 51
175.138594604329
  0
ARC
  5
14C
330
2F
100
AcDbEntity
  8
粗线层
 62
7
100
AcDbCircle
 10
29481.67573624484
 20
-130705.0257362178
 30
0.0
 40
2.950006736
100
AcDbArc
 50
184.8614053956709
 51
355.1385946043291
  0
ARC
  5
14D
330
2F
100
AcDbEntity
  8
粗线层
 62
7
100
AcDbCircle
 10
29482.92573624484
 20
-130706.2757362178
 30
0.0
 40
1.0
100
AcDbArc
 50
90.0
 51
180.0
  0
ARC
  5
14E
330
2F
100
AcDbEntity
  8
粗线层
 62
7
100
AcDbCircle
 10
29480.42573624484
 20
-130706.2757362178
 30
0.0
 40
1.0
100
AcDbArc
 50
0.0
 51
90.0
  0
ARC
  5
14F
330
2F
100
AcDbEntity
  8
粗线层
 62
7
100
AcDbCircle
 10
29482.92573624484
 20
-130703.7757362178
 30
0.0
 40
1.0
100
AcDbArc
 50
180.0
 51
270.0
  0
ARC
  5
150
330
2F
100
AcDbEntity
  8
粗线层
 62
7
100
AcDbCircle
 10
29480.42573624484
 20
-130703.7757362178
 30
0.0
 40
1.0
100
AcDbArc
 50
270.0
 51
0.0
  0
ARC
  5
151
330
2F
100
AcDbEntity
  8
粗线层
 62
7
100
AcDbCircle
 10
29489.57573624485
 20
-130699.8757362178
 30
0.0
 40
1.0
100
AcDbArc
 50
0.0
 51
90.0
  0
ARC
  5
152
330
2F
100
AcDbEntity
  8
粗线层
 62
7
100
AcDbCircle
 10
29481.67573624484
 20
-130705.0257362178
 30
0.0
 40
0.7893650227000001
100
AcDbArc
 50
55.03911704558901
 51
124.960882954411
  0
ARC
  5
153
330
2F
100
AcDbEntity
  8
粗线层
 62
7
100
AcDbCircle
 10
29481.67573624484
 20
-130705.0257362178
 30
0.0
 40
0.7893650227000001
100
AcDbArc
 50
235.039117045589
 51
304.960882954411
  0
ARC
  5
154
330
2F
100
AcDbEntity
  8
粗线层
 62
7
100
AcDbCircle
 10
29481.67573624484
 20
-130705.0257362178
 30
0.0
 40
0.7893647651000001
100
AcDbArc
 50
325.039117045589
 51
34.96088295441099
  0
ARC
  5
155
330
2F
100
AcDbEntity
  8
粗线层
 62
7
100
AcDbCircle
 10
29481.67573624484
 20
-130705.0257362178
 30
0.0
 40
0.7893647651000001
100
AcDbArc
 50
145.039117045589
 51
214.960882954411
  0
ARC
  5
156
330
2F
100
AcDbEntity
  8
粗线层
 62
7
100
AcDbCircle
 10
29489.57573624485
 20
-130698.5757362178
 30
0.0
 40
0.7
100
AcDbArc
 50
0.0
 51
90.0
  0
ARC
  5
157
330
2F
100
AcDbEntity
  8
粗线层
 62
7
100
AcDbCircle
 10
29489.57573624485
 20
-130699.8757362178
 30
0.0
 40
0.6
100
AcDbArc
 50
0.0
 51
90.0
  0
ARC
  5
158
330
2F
100
AcDbEntity
  8
粗线层
 62
7
100
AcDbCircle
 10
29463.87581237575
 20
-130705.0256599629
 30
0.0
 40
4.6500519754
100
AcDbArc
 50
90.00093807628998
 51
269.9990619545592
  0
ARC
  5
159
330
2F
100
AcDbEntity
  8
粗线层
 62
7
100
AcDbCircle
 10
29463.87573653004
 20
-130705.0257376347
 30
0.0
 40
4.649999805299999
100
AcDbArc
 50
269.9999964865213
 51
90.0
  0
ARC
  5
15A
330
2F
100
AcDbEntity
  8
粗线层
 62
7
100
AcDbCircle
 10
29463.87573653004
 20
-130705.0257376347
 30
0.0
 40
4.249999149599999
100
AcDbArc
 50
269.9999961555173
 51
90.0
  0
ARC
  5
15B
330
2F
100
AcDbEntity
  8
粗线层
 62
7
100
AcDbCircle
 10
29463.87581237575
 20
-130705.0256599629
 30
0.0
 40
4.2499802608
100
AcDbArc
 50
90.0010263668237
 51
269.9989736698619
  0
ARC
  5
15C
330
2F
100
AcDbEntity
  8
粗线层
 62
7
100
AcDbCircle
 10
29463.87573624485
 20
-130705.0257362178
 30
0.0
 40
3.5
100
AcDbArc
 50
90.0
 51
270.0
  0
CIRCLE
  5
15D
330
2F
100
AcDbEntity
  8
粗线层
 62
7
100
AcDbCircle
 10
29463.87573624485
 20
-130705.0257362178
 30
0.0
 40
3.4551655922
  0
ARC
  5
15E
330
2F
100
AcDbEntity
  8
粗线层
 62
7
100
AcDbCircle
 10
29463.87573624485
 20
-130705.0257362178
 30
0.0
 40
3.329150693099999
100
AcDbArc
 50
175.6933852322416
 51
184.3066147677583
  0
ARC
  5
15F
330
2F
100
AcDbEntity
  8
粗线层
 62
7
100
AcDbCircle
 10
29463.87573624485
 20
-130705.0257362178
 30
0.0
 40
3.329150693099999
100
AcDbArc
 50
355.6933852322416
 51
4.306614767758357
  0
ARC
  5
160
330
2F
100
AcDbEntity
  8
粗线层
 62
7
100
AcDbCircle
 10
29463.87573624485
 20
-130705.0257362178
 30
0.0
 40
2.950006736
100
AcDbArc
 50
4.86140539567097
 51
175.138594604329
  0
ARC
  5
161
330
2F
100
AcDbEntity
  8
粗线层
 62
7
100
AcDbCircle
 10
29463.87573624485
 20
-130705.0257362178
 30
0.0
 40
2.950006736
100
AcDbArc
 50
184.8614053956709
 51
355.1385946043291
  0
ARC
  5
162
330
2F
100
AcDbEntity
  8
粗线层
 62
7
100
AcDbCircle
 10
29465.12573624485
 20
-130706.2757362178
 30
0.0
 40
1.0
100
AcDbArc
 50
90.0
 51
180.0
  0
ARC
  5
163
330
2F
100
AcDbEntity
  8
粗线层
 62
7
100
AcDbCircle
 10
29462.62573624485
 20
-130706.2757362178
 30
0.0
 40
1.0
100
AcDbArc
 50
0.0
 51
90.0
  0
ARC
  5
164
330
2F
100
AcDbEntity
  8
粗线层
 62
7
100
AcDbCircle
 10
29465.12573624485
 20
-130703.7757362178
 30
0.0
 40
1.0
100
AcDbArc
 50
180.0
 51
270.0
  0
ARC
  5
165
330
2F
100
AcDbEntity
  8
粗线层
 62
7
100
AcDbCircle
 10
29462.62573624485
 20
-130703.7757362178
 30
0.0
 40
1.0
100
AcDbArc
 50
270.0
 51
0.0
  0
ARC
  5
166
330
2F
100
AcDbEntity
  8
粗线层
 62
7
100
AcDbCircle
 10
29473.77573624485
 20
-130699.8757362178
 30
0.0
 40
1.0
100
AcDbArc
 50
90.0
 51
180.0
  0
ARC
  5
167
330
2F
100
AcDbEntity
  8
粗线层
 62
7
100
AcDbCircle
 10
29471.77573624485
 20
-130699.8757362178
 30
0.0
 40
1.0
100
AcDbArc
 50
0.0
 51
90.0
  0
ARC
  5
168
330
2F
100
AcDbEntity
  8
粗线层
 62
7
100
AcDbCircle
 10
29463.87573624485
 20
-130705.0257362178
 30
0.0
 40
0.7893650227000001
100
AcDbArc
 50
55.03911704558901
 51
124.960882954411
  0
ARC
  5
169
330
2F
100
AcDbEntity
  8
粗线层
 62
7
100
AcDbCircle
 10
29463.87573624485
 20
-130705.0257362178
 30
0.0
 40
0.7893650227000001
100
AcDbArc
 50
235.039117045589
 51
304.960882954411
  0
ARC
  5
16A
330
2F
100
AcDbEntity
  8
粗线层
 62
7
100
AcDbCircle
 10
29463.87573624485
 20
-130705.0257362178
 30
0.0
 40
0.7893647651000001
100
AcDbArc
 50
325.039117045589
 51
34.96088295441099
  0
ARC
  5
16B
330
2F
100
AcDbEntity
  8
粗线层
 62
7
100
AcDbCircle
 10
29463.87573624485
 20
-130705.0257362178
 30
0.0
 40
0.7893647651000001
100
AcDbArc
 50
145.039117045589
 51
214.960882954411
  0
ARC
  5
16C
330
2F
100
AcDbEntity
  8
粗线层
 62
7
100
AcDbCircle
 10
29473.67573624484
 20
-130698.5757362178
 30
0.0
 40
0.7
100
AcDbArc
 50
90.0
 51
180.0
  0
ARC
  5
16D
330
2F
100
AcDbEntity
  8
粗线层
 62
7
100
AcDbCircle
 10
29473.67573624484
 20
-130699.5757362178
 30
0.0
 40
0.7
100
AcDbArc
 50
90.0
 51
130.6008025104237
  0
ARC
  5
16E
330
2F
100
AcDbEntity
  8
粗线层
 62
7
100
AcDbCircle
 10
29471.77573624485
 20
-130698.5757362178
 30
0.0
 40
0.7
100
AcDbArc
 50
0.0
 51
90.0
  0
ARC
  5
16F
330
2F
100
AcDbEntity
  8
粗线层
 62
7
100
AcDbCircle
 10
29473.77573624485
 20
-130699.8757362178
 30
0.0
 40
0.6
100
AcDbArc
 50
90.0
 51
180.0
  0
ARC
  5
170
330
2F
100
AcDbEntity
  8
粗线层
 62
7
100
AcDbCircle
 10
29471.77573624485
 20
-130699.8757362178
 30
0.0
 40
0.6
100
AcDbArc
 50
0.0
 51
90.0
  0
ARC
  5
171
330
2F
100
AcDbEntity
  8
粗线层
 62
7
100
AcDbCircle
 10
29447.32573624485
 20
-130706.2757362178
 30
0.0
 40
1.0
100
AcDbArc
 50
90.0
 51
180.0
  0
ARC
  5
172
330
2F
100
AcDbEntity
  8
粗线层
 62
7
100
AcDbCircle
 10
29447.32573624485
 20
-130703.7757362178
 30
0.0
 40
1.0
100
AcDbArc
 50
180.0
 51
270.0
  0
ARC
  5
173
330
2F
100
AcDbEntity
  8
粗线层
 62
7
100
AcDbCircle
 10
29455.97573624485
 20
-130699.8757362178
 30
0.0
 40
1.0
100
AcDbArc
 50
90.0
 51
180.0
  0
ARC
  5
174
330
2F
100
AcDbEntity
  8
粗线层
 62
7
100
AcDbCircle
 10
29453.97573624484
 20
-130699.8757362178
 30
0.0
 40
1.0
100
AcDbArc
 50
0.0
 51
90.0
  0
ARC
  5
175
330
2F
100
AcDbEntity
  8
粗线层
 62
7
100
AcDbCircle
 10
29455.87573624485
 20
-130698.5757362178
 30
0.0
 40
0.7
100
AcDbArc
 50
90.0
 51
180.0
  0
ARC
  5
176
330
2F
100
AcDbEntity
  8
粗线层
 62
7
100
AcDbCircle
 10
29455.87573624485
 20
-130699.5757362178
 30
0.0
 40
0.7
100
AcDbArc
 50
90.0
 51
130.6008025104237
  0
ARC
  5
177
330
2F
100
AcDbEntity
  8
粗线层
 62
7
100
AcDbCircle
 10
29453.97573624484
 20
-130698.5757362178
 30
0.0
 40
0.7
100
AcDbArc
 50
0.0
 51
90.0
  0
ARC
  5
178
330
2F
100
AcDbEntity
  8
粗线层
 62
7
100
AcDbCircle
 10
29455.97573624485
 20
-130699.8757362178
 30
0.0
 40
0.6
100
AcDbArc
 50
90.0
 51
180.0
  0
ARC
  5
179
330
2F
100
AcDbEntity
  8
粗线层
 62
7
100
AcDbCircle
 10
29453.97573624484
 20
-130699.8757362178
 30
0.0
 40
0.6
100
AcDbArc
 50
0.0
 51
90.0
  0
ARC
  5
17A
330
2F
100
AcDbEntity
  8
粗线层
 62
7
100
AcDbCircle
 10
29446.07581237574
 20
-130705.0256599629
 30
0.0
 40
4.6500519754
100
AcDbArc
 50
90.00093807628998
 51
269.9990619545592
  0
ARC
  5
17B
330
2F
100
AcDbEntity
  8
粗线层
 62
7
100
AcDbCircle
 10
29446.07573653005
 20
-130705.0257376347
 30
0.0
 40
4.649999805299999
100
AcDbArc
 50
269.9999964865213
 51
90.0
  0
ARC
  5
17C
330
2F
100
AcDbEntity
  8
粗线层
 62
7
100
AcDbCircle
 10
29446.07573653005
 20
-130705.0257376347
 30
0.0
 40
4.249999149599999
100
AcDbArc
 50
269.9999961555173
 51
90.0
  0
ARC
  5
17D
330
2F
100
AcDbEntity
  8
粗线层
 62
7
100
AcDbCircle
 10
29446.07581237574
 20
-130705.0256599629
 30
0.0
 40
4.2499802608
100
AcDbArc
 50
90.0010263668237
 51
269.9989736698619
  0
ARC
  5
17E
330
2F
100
AcDbEntity
  8
粗线层
 62
7
100
AcDbCircle
 10
29446.07573624485
 20
-130705.0257362178
 30
0.0
 40
3.5
100
AcDbArc
 50
90.0
 51
270.0
  0
CIRCLE
  5
17F
330
2F
100
AcDbEntity
  8
粗线层
 62
7
100
AcDbCircle
 10
29446.07573624485
 20
-130705.0257362178
 30
0.0
 40
3.4551655922
  0
ARC
  5
180
330
2F
100
AcDbEntity
  8
粗线层
 62
7
100
AcDbCircle
 10
29446.07573624485
 20
-130705.0257362178
 30
0.0
 40
3.329150693099999
100
AcDbArc
 50
175.6933852322416
 51
184.3066147677583
  0
ARC
  5
181
330
2F
100
AcDbEntity
  8
粗线层
 62
7
100
AcDbCircle
 10
29446.07573624485
 20
-130705.0257362178
 30
0.0
 40
3.329150693099999
100
AcDbArc
 50
355.6933852322416
 51
4.306614767758357
  0
ARC
  5
182
330
2F
100
AcDbEntity
  8
粗线层
 62
7
100
AcDbCircle
 10
29446.07573624485
 20
-130705.0257362178
 30
0.0
 40
2.950006736
100
AcDbArc
 50
4.86140539567097
 51
175.138594604329
  0
ARC
  5
183
330
2F
100
AcDbEntity
  8
粗线层
 62
7
100
AcDbCircle
 10
29446.07573624485
 20
-130705.0257362178
 30
0.0
 40
2.950006736
100
AcDbArc
 50
184.8614053956709
 51
355.1385946043291
  0
ARC
  5
184
330
2F
100
AcDbEntity
  8
粗线层
 62
7
100
AcDbCircle
 10
29444.82573624485
 20
-130706.2757362178
 30
0.0
 40
1.0
100
AcDbArc
 50
0.0
 51
90.0
  0
ARC
  5
185
330
2F
100
AcDbEntity
  8
粗线层
 62
7
100
AcDbCircle
 10
29444.82573624485
 20
-130703.7757362178
 30
0.0
 40
1.0
100
AcDbArc
 50
270.0
 51
0.0
  0
ARC
  5
186
330
2F
100
AcDbEntity
  8
粗线层
 62
7
100
AcDbCircle
 10
29438.17573624484
 20
-130699.8757362178
 30
0.0
 40
1.0
100
AcDbArc
 50
90.0
 51
180.0
  0
ARC
  5
187
330
2F
100
AcDbEntity
  8
粗线层
 62
7
100
AcDbCircle
 10
29446.07573624485
 20
-130705.0257362178
 30
0.0
 40
0.7893650227000001
100
AcDbArc
 50
55.03911704558901
 51
124.960882954411
  0
ARC
  5
188
330
2F
100
AcDbEntity
  8
粗线层
 62
7
100
AcDbCircle
 10
29446.07573624485
 20
-130705.0257362178
 30
0.0
 40
0.7893650227000001
100
AcDbArc
 50
235.039117045589
 51
304.960882954411
  0
ARC
  5
189
330
2F
100
AcDbEntity
  8
粗线层
 62
7
100
AcDbCircle
 10
29446.07573624485
 20
-130705.0257362178
 30
0.0
 40
0.7893647651000001
100
AcDbArc
 50
325.039117045589
 51
34.96088295441099
  0
ARC
  5
18A
330
2F
100
AcDbEntity
  8
粗线层
 62
7
100
AcDbCircle
 10
29446.07573624485
 20
-130705.0257362178
 30
0.0
 40
0.7893647651000001
100
AcDbArc
 50
145.039117045589
 51
214.960882954411
  0
ARC
  5
18B
330
2F
100
AcDbEntity
  8
粗线层
 62
7
100
AcDbCircle
 10
29438.07573624485
 20
-130698.5757362178
 30
0.0
 40
0.7
100
AcDbArc
 50
90.0
 51
180.0
  0
ARC
  5
18C
330
2F
100
AcDbEntity
  8
粗线层
 62
7
100
AcDbCircle
 10
29438.07573624485
 20
-130699.5757362178
 30
0.0
 40
0.7
100
AcDbArc
 50
90.0
 51
130.6008025104237
  0
ARC
  5
18D
330
2F
100
AcDbEntity
  8
粗线层
 62
7
100
AcDbCircle
 10
29438.17573624484
 20
-130699.8757362178
 30
0.0
 40
0.6
100
AcDbArc
 50
90.0
 51
180.0
  0
SPLINE
  5
18E
330
2F
100
AcDbEntity
  8
粗线层
 62
7
100
AcDbSpline
 70
1064
 71
3
 72
11
 73
7
 74
5
 42
1e-09
 12
1e-16
 22
1.0
 32
0.0
 13
0.920397210226255
 23
0.3909846229811688
 33
0.0
 40
0.0
 40
0.0
 40
0.0
 40
0.0
 40
0.0794348433811457
 40
0.1651469024462877
 40
0.2607804572649
 40
0.3671089982252178
 40
0.3671089982252178
 40
0.3671089982252178
 40
0.3671089982252178
 10
29443.87573624485
 20
-130751.0180156535
 30
0.0
 10
29443.87573624485
 20
-130750.9915373724
 30
0.0
 10
29443.88695137016
 20
-130750.9360438119
 30
0.0
 10
29443.93400417336
 20
-130750.861204096
 30
0.0
 10
29444.00684148264
 20
-130750.7972649961
 30
0.0
 10
29444.06665206217
 20
-130750.7651798918
 30
0.0
 10
29444.09927355965
 20
-130750.7513222836
 30
0.0
 11
29443.87573624485
 21
-130751.0180156535
 31
0.0
 11
29443.89082424974
 21
-130750.940026895
 31
0.0
 11
29443.93516176194
 21
-130750.8666733533
 31
0.0
 11
29444.00607872325
 21
-130750.8025129184
 31
0.0
 11
29444.09927355965
 21
-130750.7513222836
 31
0.0
  0
SPLINE
  5
18F
330
2F
100
AcDbEntity
  8
粗线层
 62
7
100
AcDbSpline
 70
1064
 71
3
 72
9
 73
5
 74
3
 42
1e-09
 12
0.9201583719324068
 22
0.3915463836669961
 32
0.0
 13
1.0
 23
3.0916986e-09
 33
0.0
 40
0.0
 40
0.0
 40
0.0
 40
0.0
 40
0.0542759719357223
 40
0.2264127487349741
 40
0.2264127487349741
 40
0.2264127487349741
 40
0.2264127487349741
 10
29444.15428574974
 20
-130750.7279596024
 30
0.0
 10
29444.1709332464
 20
-130750.7208757489
 30
0.0
 10
29444.24207464575
 20
-130750.6953838575
 30
0.0
 10
29444.31835731835
 20
-130750.6851342504
 30
0.0
 10
29444.37573624395
 20
-130750.6851342502
 30
0.0
 11
29444.15428574974
 21
-130750.7279596024
 31
0.0
 11
29444.20533692245
 21
-130750.7095297653
 31
0.0
 11
29444.37573624395
 21
-130750.6851342502
 31
0.0
  0
SPLINE
  5
190
330
2F
100
AcDbEntity
  8
粗线层
 62
7
100
AcDbSpline
 70
1064
 71
3
 72
11
 73
7
 74
5
 42
1e-09
 12
0.920397210226255
 22
-0.3909846229811689
 32
0.0
 13
-1e-16
 23
-1.0
 33
0.0
 40
0.0
 40
0.0
 40
0.0
 40
0.0
 40
0.1063285409475634
 40
0.2019620957661756
 40
0.2876741548313177
 40
0.3671089982152274
 40
0.3671089982152274
 40
0.3671089982152274
 40
0.3671089982152274
 10
29483.65219893005
 20
-130750.7513222836
 30
0.0
 10
29483.68482042754
 20
-130750.7651798918
 30
0.0
 10
29483.74463100705
 20
-130750.7972649961
 30
0.0
 10
29483.81746831635
 20
-130750.861204096
 30
0.0
 10
29483.86452111952
 20
-130750.9360438119
 30
0.0
 10
29483.87573624486
 20
-130750.9915373724
 30
0.0
 10
29483.87573624486
 20
-130751.0180156535
 30
0.0
 11
29483.65219893005
 21
-130750.7513222836
 31
0.0
 11
29483.74539376644
 21
-130750.8025129184
 31
0.0
 11
29483.81631072775
 21
-130750.8666733533
 31
0.0
 11
29483.86064823995
 21
-130750.940026895
 31
0.0
 11
29483.87573624486
 21
-130751.0180156535
 31
0.0
  0
SPLINE
  5
191
330
2F
100
AcDbEntity
  8
粗线层
 62
7
100
AcDbSpline
 70
1064
 71
3
 72
11
 73
7
 74
5
 42
1e-09
 12
0.9203494380151686
 22
-0.3910970620513067
 32
0.0
 13
-1e-16
 23
-1.0
 33
0.0
 40
0.0
 40
0.0
 40
0.0
 40
0.0
 40
0.2126859092920049
 40
0.4039666298475069
 40
0.5753240469760978
 40
0.7342380863326498
 40
0.7342380863326498
 40
0.7342380863326498
 40
0.7342380863326498
 10
29488.17865357135
 20
-130748.9463909332
 30
0.0
 10
29488.24390202371
 20
-130748.974117878
 30
0.0
 10
29488.36357943689
 20
-130749.0382259485
 30
0.0
 10
29488.50917918755
 20
-130749.1661723645
 30
0.0
 10
29488.60335642534
 20
-130749.3158018276
 30
0.0
 10
29488.62573624485
 20
-130749.426798569
 30
0.0
 10
29488.62573624485
 20
-130749.4797699155
 30
0.0
 11
29488.17865357135
 21
-130748.9463909332
 31
0.0
 11
29488.36508549245
 21
-130749.0487551594
 31
0.0
 11
29488.50690606015
 21
-130749.1771110733
 31
0.0
 11
29488.59557384085
 21
-130749.3237445929
 31
0.0
 11
29488.62573624485
 21
-130749.4797699155
 31
0.0
  0
SPLINE
  5
192
330
2F
100
AcDbEntity
  8
粗线层
 62
7
100
AcDbSpline
 70
1064
 71
3
 72
11
 73
7
 74
5
 42
1e-09
 12
1e-16
 22
1.0
 32
0.0
 13
0.9203494380641914
 23
0.3910970619359431
 33
0.0
 40
0.0
 40
0.0
 40
0.0
 40
0.0
 40
0.1589140393565518
 40
0.3302714564851428
 40
0.5215521770298557
 40
0.7342380863708869
 40
0.7342380863708869
 40
0.7342380863708869
 40
0.7342380863708869
 10
29439.12573624485
 20
-130749.4797699155
 30
0.0
 10
29439.12573624485
 20
-130749.426798569
 30
0.0
 10
29439.14811606436
 20
-130749.3158018276
 30
0.0
 10
29439.24229330214
 20
-130749.1661723645
 30
0.0
 10
29439.38789305283
 20
-130749.0382259485
 30
0.0
 10
29439.50757046596
 20
-130748.9741178779
 30
0.0
 10
29439.57281891835
 20
-130748.9463909331
 30
0.0
 11
29439.12573624485
 21
-130749.4797699155
 31
0.0
 11
29439.15589864885
 21
-130749.3237445929
 31
0.0
 11
29439.24456642955
 21
-130749.1771110733
 31
0.0
 11
29439.38638699724
 21
-130749.0487551594
 31
0.0
 11
29439.57281891835
 21
-130748.9463909331
 31
0.0
  0
SPLINE
  5
193
330
2F
100
AcDbEntity
  8
粗线层
 62
7
100
AcDbSpline
 70
1064
 71
3
 72
9
 73
5
 74
3
 42
1e-09
 12
0.920425129204608
 22
0.3909188937985488
 32
0.0
 13
1.0
 23
-2.5282738e-09
 33
0.0
 40
0.0
 40
0.0
 40
0.0
 40
0.0
 40
0.0948279233738251
 40
0.3955267952595566
 40
0.3955267952595566
 40
0.3955267952595566
 40
0.3955267952595566
 10
29439.73884364104
 20
-130748.8758655806
 30
0.0
 10
29439.76793764225
 20
-130748.863508905
 30
0.0
 10
29439.89225457669
 20
-130748.8190835498
 30
0.0
 10
29440.02550328366
 20
-130748.8011950354
 30
0.0
 10
29440.12573624095
 20
-130748.8011950356
 30
0.0
 11
29439.73884364104
 21
-130748.8758655806
 31
0.0
 11
29439.82806125045
 21
-130748.8437322144
 31
0.0
 11
29440.12573624095
 21
-130748.8011950356
 31
0.0
  0
SPLINE
  5
194
330
2F
100
AcDbEntity
  8
粗线层
 62
7
100
AcDbSpline
 70
1064
 71
3
 72
9
 73
5
 74
3
 42
1e-09
 12
1.0
 22
-8.835173e-10
 32
0.0
 13
0.9201558645697366
 23
-0.3915522760729666
 33
0.0
 40
0.0
 40
0.0
 40
0.0
 40
0.0
 40
0.0584022347932636
 40
0.2263679722925318
 40
0.2263679722925318
 40
0.2263679722925318
 40
0.2263679722925318
 10
29483.37573624574
 20
-130750.6851342502
 30
0.0
 10
29483.39520365734
 20
-130750.6851342502
 30
0.0
 10
29483.4705664439
 20
-130750.6887067461
 30
0.0
 10
29483.54567199968
 20
-130750.7060377825
 30
0.0
 10
29483.59719021915
 20
-130750.7279602381
 30
0.0
 11
29483.37573624574
 21
-130750.6851342502
 31
0.0
 11
29483.43407326585
 21
-130750.6878934374
 31
0.0
 11
29483.59719021915
 21
-130750.7279602381
 31
0.0
  0
SPLINE
  5
195
330
2F
100
AcDbEntity
  8
粗线层
 62
7
100
AcDbSpline
 70
1064
 71
3
 72
9
 73
5
 74
3
 42
1e-09
 12
1.0
 22
2.5287699e-09
 32
0.0
 13
0.9204253335812229
 23
-0.3909184125900117
 33
0.0
 40
0.0
 40
0.0
 40
0.0
 40
0.0
 40
0.1021547944823329
 40
0.3954491756309015
 40
0.3954491756309015
 40
0.3954491756309015
 40
0.3954491756309015
 10
29487.62573624875
 20
-130748.8011950356
 30
0.0
 10
29487.65978784692
 20
-130748.8011950355
 30
0.0
 10
29487.79144520046
 20
-130748.8073723804
 30
0.0
 10
29487.92264329498
 20
-130748.8376473705
 30
0.0
 10
29488.01262848785
 20
-130748.8758654284
 30
0.0
 11
29487.62573624875
 21
-130748.8011950356
 31
0.0
 11
29487.72777822835
 21
-130748.8059946643
 31
0.0
 11
29488.01262848785
 21
-130748.8758654284
 31
0.0
  0
SPLINE
  5
196
330
2F
100
AcDbEntity
  8
粗线层
 62
7
100
AcDbSpline
 70
1064
 71
3
 72
9
 73
5
 74
3
 42
1e-09
 12
0.9204253335672627
 22
-0.3909184126228807
 32
0.0
 13
0.6703486633191056
 23
-0.7420462718633445
 33
0.0
 40
0.0
 40
0.0
 40
0.0
 40
0.0
 40
0.0715556531055203
 40
0.2661546303125373
 40
0.2661546303125373
 40
0.2661546303125373
 40
0.2661546303125373
 10
29488.01262848785
 20
-130748.8758654284
 30
0.0
 10
29488.03458236648
 20
-130748.8851895692
 30
0.0
 10
29488.11458247243
 20
-130748.9233583762
 30
0.0
 10
29488.18825628439
 20
-130748.9768754668
 30
0.0
 10
29488.23173933914
 20
-130749.025009282
 30
0.0
 11
29488.01262848785
 21
-130748.8758654284
 31
0.0
 11
29488.07714114555
 21
-130748.9068223095
 31
0.0
 11
29488.23173933914
 21
-130749.025009282
 31
0.0
  0
SPLINE
  5
197
330
2F
100
AcDbEntity
  8
粗线层
 62
7
100
AcDbSpline
 70
1064
 71
3
 72
9
 73
5
 74
3
 42
1e-09
 12
0.6703486633466231
 22
-0.742046271838486
 32
0.0
 13
-3.2331067e-09
 23
-1.0
 33
0.0
 40
0.0
 40
0.0
 40
0.0
 40
0.0
 40
0.1288961893708652
 40
0.2474400258907858
 40
0.2474400258907858
 40
0.2474400258907858
 40
0.2474400258907858
 10
29488.23173933914
 20
-130749.025009282
 30
0.0
 10
29488.26054113523
 20
-130749.0568915943
 30
0.0
 10
29488.307815143
 20
-130749.1266258061
 30
0.0
 10
29488.32573624428
 20
-130749.2097774819
 30
0.0
 10
29488.32573624415
 20
-130749.2492920941
 30
0.0
 11
29488.23173933914
 21
-130749.025009282
 31
0.0
 11
29488.30182788234
 21
-130749.1331842502
 31
0.0
 11
29488.32573624415
 21
-130749.2492920941
 31
0.0
  0
SPLINE
  5
198
330
2F
100
AcDbEntity
  8
粗线层
 62
7
100
AcDbSpline
 70
1064
 71
3
 72
9
 73
5
 74
3
 42
1e-09
 12
0.9201558644118922
 22
-0.3915522764439043
 32
0.0
 13
0.6724331242461352
 23
-0.7401578841143164
 33
0.0
 40
0.0
 40
0.0
 40
0.0
 40
0.0
 40
0.0405483736020433
 40
0.1509475872597714
 40
0.1509475872597714
 40
0.1509475872597714
 40
0.1509475872597714
 10
29483.59719021915
 20
-130750.7279602381
 30
0.0
 10
29483.60962716041
 20
-130750.7332525074
 30
0.0
 10
29483.65498654375
 20
-130750.7549287929
 30
0.0
 10
29483.69677270632
 20
-130750.7852368364
 30
0.0
 10
29483.72151806904
 20
-130750.8124744525
 30
0.0
 11
29483.59719021915
 21
-130750.7279602381
 31
0.0
 11
29483.63373869355
 21
-130750.745520979
 31
0.0
 11
29483.72151806904
 21
-130750.8124744525
 31
0.0
  0
SPLINE
  5
199
330
2F
100
AcDbEntity
  8
粗线层
 62
7
100
AcDbSpline
 70
1064
 71
3
 72
14
 73
10
 74
8
 42
1e-09
 12
0.6724331243786678
 22
-0.7401578839939105
 32
0.0
 13
-1.0
 23
1e-16
 33
0.0
 40
0.0
 40
0.0
 40
0.0
 40
0.0
 40
0.0737498226547796
 40
0.1415335696433523
 40
0.2092589709604145
 40
0.282863472019901
 40
0.3657180741557661
 40
0.4580832459075836
 40
0.6613234118303176
 40
0.6613234118303176
 40
0.6613234118303176
 40
0.6613234118303176
 10
29483.72151806904
 20
-130750.8124744525
 30
0.0
 10
29483.73804867693
 20
-130750.8306699567
 30
0.0
 10
29483.76520738415
 20
-130750.8705323266
 30
0.0
 10
29483.78062209304
 20
-130750.940539839
 30
0.0
 10
29483.76571450033
 20
-130751.0106777389
 30
0.0
 10
29483.72321867884
 20
-130751.0738908819
 30
0.0
 10
29483.65798587052
 20
-130751.1266680816
 30
0.0
 10
29483.54356495792
 20
-130751.1815601098
 30
0.0
 10
29483.44348296771
 20
-130751.1972451782
 30
0.0
 10
29483.37573624574
 20
-130751.1972451782
 30
0.0
 11
29483.72151806904
 21
-130750.8124744525
 31
0.0
 11
29483.76180888414
 21
-130750.8742456963
 31
0.0
 11
29483.77571155575
 21
-130750.940588383
 31
0.0
 11
29483.76229534295
 21
-130751.006971628
 31
0.0
 11
29483.72245798775
 21
-130751.0688635314
 31
0.0
 11
29483.65890543954
 21
-130751.1220232785
 31
0.0
 11
29483.57604041095
 21
-130751.1628241607
 31
0.0
 11
29483.37573624574
 21
-130751.1972451782
 31
0.0
  0
SPLINE
  5
19A
330
2F
100
AcDbEntity
  8
粗线层
 62
7
100
AcDbSpline
 70
1064
 71
3
 72
11
 73
7
 74
5
 42
1e-09
 12
5.1235537884e-06
 22
-0.9999999999868746
 32
0.0
 13
-1.0
 23
-1.509725e-09
 33
0.0
 40
0.0
 40
0.0
 40
0.0
 40
0.0
 40
0.1320561359523762
 40
0.2886552491418073
 40
0.4687938740666847
 40
0.662372279115445
 40
0.662372279115445
 40
0.662372279115445
 40
0.662372279115445
 10
29483.87573624455
 20
-130751.0900864519
 30
0.0
 10
29483.87573647008
 20
-130751.1341051639
 30
0.0
 10
29483.84265348754
 20
-130751.2305435986
 30
0.0
 10
29483.72798899794
 20
-130751.3419751063
 30
0.0
 10
29483.56569146655
 20
-130751.4186059684
 30
0.0
 10
29483.44026238086
 20
-130751.4365906366
 30
0.0
 10
29483.37573624584
 20
-130751.4365906367
 30
0.0
 11
29483.87573624455
 21
-130751.0900864519
 31
0.0
 11
29483.83761352145
 21
-130751.216520154
 31
0.0
 11
29483.72927187504
 21
-130751.329592564
 31
0.0
 11
29483.56723555435
 21
-130751.408295518
 31
0.0
 11
29483.37573624584
 21
-130751.4365906367
 31
0.0
  0
SPLINE
  5
19B
330
2F
100
AcDbEntity
  8
粗线层
 62
7
100
AcDbSpline
 70
1064
 71
3
 72
11
 73
7
 74
5
 42
1e-09
 12
-1.0
 22
4.529175e-10
 32
0.0
 13
-5.1235529886e-06
 23
0.9999999999868746
 33
0.0
 40
0.0
 40
0.0
 40
0.0
 40
0.0
 40
0.1935802383155201
 40
0.3737181915443304
 40
0.5303166162419587
 40
0.6623723824960264
 40
0.6623723824960264
 40
0.6623723824960264
 40
0.6623723824960264
 10
29444.37573624455
 20
-130751.4365906367
 30
0.0
 10
29444.31120949845
 20
-130751.4365906367
 30
0.0
 10
29444.18578010493
 20
-130751.4186054224
 30
0.0
 10
29444.02348227402
 20
-130751.3419749243
 30
0.0
 10
29443.90881864412
 20
-130751.2305430168
 30
0.0
 10
29443.87573647068
 20
-130751.1341050409
 30
0.0
 10
29443.87573624514
 20
-130751.0900864521
 30
0.0
 11
29444.37573624455
 21
-130751.4365906367
 31
0.0
 11
29444.18423517505
 21
-130751.4082948941
 31
0.0
 11
29444.02219948254
 21
-130751.3295921842
 31
0.0
 11
29443.91385877774
 21
-130751.2165198255
 31
0.0
 11
29443.87573624514
 21
-130751.0900864521
 31
0.0
  0
SPLINE
  5
19C
330
2F
100
AcDbEntity
  8
粗线层
 62
7
100
AcDbSpline
 70
1064
 71
3
 72
11
 73
7
 74
5
 42
1e-09
 12
-1.0
 22
8.626867e-10
 32
0.0
 13
-0.3239152501998492
 23
0.946086101096496
 33
0.0
 40
0.0
 40
0.0
 40
0.0
 40
0.0
 40
0.1671008989698357
 40
0.3233856730558726
 40
0.4611964466522896
 40
0.5795847250519538
 40
0.5795847250519538
 40
0.5795847250519538
 40
0.5795847250519538
 10
29444.37573624455
 20
-130751.3380849837
 30
0.0
 10
29444.32003594489
 20
-130751.3380849837
 30
0.0
 10
29444.21183751537
 20
-130751.3266953885
 30
0.0
 10
29444.06505241685
 20
-130751.2762325053
 30
0.0
 10
29443.94986338048
 20
-130751.1974678479
 30
0.0
 10
29443.90017620964
 20
-130751.1239889494
 30
0.0
 10
29443.88739362004
 20
-130751.0866537811
 30
0.0
 11
29444.37573624455
 21
-130751.3380849837
 31
0.0
 11
29444.20962693414
 21
-130751.3199078708
 31
0.0
 11
29444.06241277215
 21
-130751.267439584
 31
0.0
 11
29443.95076401315
 21
-130751.1866536698
 31
0.0
 11
29443.88739362004
 21
-130751.0866537811
 31
0.0
  0
SPLINE
  5
19D
330
2F
100
AcDbEntity
  8
粗线层
 62
7
100
AcDbSpline
 70
1064
 71
3
 72
9
 73
5
 74
3
 42
1e-09
 12
-0.3239152499607268
 22
0.9460861011783652
 32
0.0
 13
1e-16
 23
1.0
 33
0.0
 40
0.0
 40
0.0
 40
0.0
 40
0.0
 40
0.0177572748436819
 40
0.0697978378789272
 40
0.0697978378789272
 40
0.0697978378789272
 40
0.0697978378789272
 10
29443.88739362004
 20
-130751.0866537811
 30
0.0
 10
29443.885476336
 20
-130751.0810538108
 30
0.0
 10
29443.87879782185
 20
-130751.0587605922
 30
0.0
 10
29443.87573624485
 20
-130751.0353625079
 30
0.0
 10
29443.87573624485
 20
-130751.0180156535
 30
0.0
 11
29443.88739362004
 21
-130751.0866537811
 31
0.0
 11
29443.88231227755
 21
-130751.069639059
 31
0.0
 11
29443.87573624485
 21
-130751.0180156535
 31
0.0
  0
SPLINE
  5
19E
330
2F
100
AcDbEntity
  8
粗线层
 62
7
100
AcDbSpline
 70
1064
 71
3
 72
14
 73
10
 74
8
 42
1e-09
 12
-1.0
 22
1e-16
 32
0.0
 13
0.6655213129949785
 23
0.7463788461293901
 33
0.0
 40
0.0
 40
0.0
 40
0.0
 40
0.0
 40
0.2024993322474071
 40
0.2945894704404868
 40
0.3772574599598635
 40
0.4507237359157909
 40
0.5182610596283047
 40
0.5857062120629234
 40
0.6589419121744929
 40
0.6589419121744929
 40
0.6589419121744929
 40
0.6589419121744929
 10
29444.37573624395
 20
-130751.1972451782
 30
0.0
 10
29444.30823646654
 20
-130751.1972451782
 30
0.0
 10
29444.20851393784
 20
-130751.1816693957
 30
0.0
 10
29444.09435808592
 20
-130751.1271787152
 30
0.0
 10
29444.02911208289
 20
-130751.0747612321
 30
0.0
 10
29443.98636390941
 20
-130751.0119588418
 30
0.0
 10
29443.97089235995
 20
-130750.9422020874
 30
0.0
 10
29443.98548984462
 20
-130750.8723899474
 30
0.0
 10
29444.01209060818
 20
-130750.8324929329
 30
0.0
 10
29444.02833724795
 20
-130750.8142724071
 30
0.0
 11
29444.37573624395
 21
-130751.1972451782
 31
0.0
 11
29444.17613882145
 21
-130751.1630860141
 31
0.0
 11
29444.09343563954
 21
-130751.1225795053
 31
0.0
 11
29444.02983305325
 21
-130751.0697712909
 31
0.0
 11
29443.98970535124
 21
-130751.0082321876
 31
0.0
 11
29443.97576264385
 21
-130750.9421497315
 31
0.0
 11
29443.98893102476
 21
-130750.8760026051
 31
0.0
 11
29444.02833724795
 21
-130750.8142724071
 31
0.0
  0
SPLINE
  5
19F
330
2F
100
AcDbEntity
  8
粗线层
 62
7
100
AcDbSpline
 70
1064
 71
3
 72
9
 73
5
 74
3
 42
1e-09
 12
0.6655213131538883
 22
0.7463788459876955
 32
0.0
 13
0.9201583720892664
 23
0.3915463832983662
 33
0.0
 40
0.0
 40
0.0
 40
0.0
 40
0.0
 40
0.0355990107514172
 40
0.1534017123761404
 40
0.1534017123761404
 40
0.1534017123761404
 40
0.1534017123761404
 10
29444.02833724795
 20
-130750.8142724071
 30
0.0
 10
29444.03623454808
 20
-130750.8054156243
 30
0.0
 10
29444.07292096882
 20
-130750.7696208344
 30
0.0
 10
29444.11815336902
 20
-130750.7433346763
 30
0.0
 10
29444.15428574974
 20
-130750.7279596024
 30
0.0
 11
29444.02833724795
 21
-130750.8142724071
 31
0.0
 11
29444.05372197365
 21
-130750.7893143369
 31
0.0
 11
29444.15428574974
 21
-130750.7279596024
 31
0.0
  0
SPLINE
  5
1A0
330
2F
100
AcDbEntity
  8
粗线层
 62
7
100
AcDbSpline
 70
1064
 71
3
 72
12
 73
8
 74
6
 42
1e-09
 12
-1e-16
 22
-1.0
 32
0.0
 13
-1.0
 23
-2.9274816e-09
 33
0.0
 40
0.0
 40
0.0
 40
0.0
 40
0.0
 40
0.063126914758924
 40
0.1296277995822324
 40
0.2797185033948597
 40
0.456112959972581
 40
0.6490219976778944
 40
0.6490219976778944
 40
0.6490219976778944
 40
0.6490219976778944
 10
29483.87573624486
 20
-130751.0180156535
 30
0.0
 10
29483.87573624486
 20
-130751.0390579584
 30
0.0
 10
29483.86882994656
 20
-130751.0825127615
 30
0.0
 10
29483.82760726976
 20
-130751.1673985694
 30
0.0
 10
29483.7262839486
 20
-130751.2574674436
 30
0.0
 10
29483.56381983527
 20
-130751.3229831708
 30
0.0
 10
29483.44003925841
 20
-130751.3380849835
 30
0.0
 10
29483.37573624584
 20
-130751.3380849837
 30
0.0
 11
29483.87573624486
 21
-130751.0180156535
 31
0.0
 11
29483.86611707155
 21
-130751.0804053872
 31
0.0
 11
29483.83767075144
 21
-130751.1405150749
 31
0.0
 11
29483.72927321044
 21
-130751.2443283326
 31
0.0
 11
29483.56710013135
 21
-130751.3137177895
 31
0.0
 11
29483.37573624584
 21
-130751.3380849837
 31
0.0
  0
SPLINE
  5
1A1
330
2F
100
AcDbEntity
  8
粗线层
 62
7
100
AcDbSpline
 70
1064
 71
3
 72
9
 73
5
 74
3
 42
1e-09
 12
-3.2333188e-09
 22
1.0
 32
0.0
 13
0.6703218247370482
 23
0.7420705163804815
 33
0.0
 40
0.0
 40
0.0
 40
0.0
 40
0.0
 40
0.1185365747793952
 40
0.2474237912980095
 40
0.2474237912980095
 40
0.2474237912980095
 40
0.2474237912980095
 10
29439.42573624556
 20
-130749.2492920941
 30
0.0
 10
29439.42573624543
 20
-130749.2097799025
 30
0.0
 10
29439.44365496822
 20
-130749.1266337272
 30
0.0
 10
29439.49092347439
 20
-130749.0569026356
 30
0.0
 10
29439.51972211244
 20
-130749.0250215012
 30
0.0
 11
29439.42573624556
 21
-130749.2492920941
 31
0.0
 11
29439.44964174494
 21
-130749.1331910749
 31
0.0
 11
29439.51972211244
 21
-130749.0250215012
 31
0.0
  0
SPLINE
  5
1A2
330
2F
100
AcDbEntity
  8
粗线层
 62
7
100
AcDbSpline
 70
1064
 71
3
 72
9
 73
5
 74
3
 42
1e-09
 12
0.6703218247240355
 22
0.7420705163922359
 32
0.0
 13
0.9204251291544606
 23
0.3909188939166212
 33
0.0
 40
0.0
 40
0.0
 40
0.0
 40
0.0
 40
0.061827556881245
 40
0.2662837085968603
 40
0.2662837085968603
 40
0.2662837085968603
 40
0.2662837085968603
 10
29439.51972211244
 20
-130749.0250215012
 30
0.0
 10
29439.53353689936
 20
-130749.0097280322
 30
0.0
 10
29439.59751837198
 20
-130748.9479099933
 30
0.0
 10
29439.67611478109
 20
-130748.9025075048
 30
0.0
 10
29439.73884364104
 20
-130748.8758655806
 30
0.0
 11
29439.51972211244
 21
-130749.0250215012
 31
0.0
 11
29439.56403610505
 21
-130748.9819063432
 31
0.0
 11
29439.73884364104
 21
-130748.8758655806
 31
0.0
  0
MTEXT
  5
1A3
330
2F
100
AcDbEntity
  8
0
 62
7
100
AcDbMText
 10
29463.82572171895
 20
-130743.6874254872
 30
0.0
 40
3.0
 41
25.05412091584758
 46
0.0
 71
5
  1
NXB-63 3P
  0
LINE
  5
1A4
330
2F
100
AcDbEntity
  8
0
 62
7
100
AcDbLine
 10
29437.17573624484
 20
-130714.7757362178
 30
0.0
 11
29490.57573624485
 21
-130714.7757362178
 31
0.0
  0
LINE
  5
1A5
330
2F
100
AcDbEntity
  8
0
 62
7
100
AcDbLine
 10
29437.17573624484
 20
-130759.7757362178
 30
0.0
 11
29490.57573624485
 21
-130759.7757362178
 31
0.0
  0
ENDBLK
  5
31
330
2F
100
AcDbEntity
  8
0
100
AcDbBlockEnd
  0
ENDSEC
  0
SECTION
  2
ENTITIES
  0
INSERT
  5
1A8
330
17
100
AcDbEntity
  8
0
100
AcDbBlockReference
  2
nxb63-3p
 10
-29437.17573624484
 20
130778.8757362178
 30
0.0
  0
ENDSEC
  0
SECTION
  2
OBJECTS
  0
DICTIONARY
  5
A
330
0
100
AcDbDictionary
281
1
  3
ACAD_COLOR
350
B
  3
ACAD_GROUP
350
C
  3
ACAD_LAYOUT
350
D
  3
ACAD_MATERIAL
350
E
  3
ACAD_MLEADERSTYLE
350
F
  3
ACAD_MLINESTYLE
350
10
  3
ACAD_PLOTSETTINGS
350
11
  3
ACAD_PLOTSTYLENAME
350
12
  3
ACAD_SCALELIST
350
14
  3
ACAD_TABLESTYLE
350
15
  3
ACAD_VISUALSTYLE
350
16
  3
EZDXF_META
350
2D
  0
DICTIONARY
  5
B
330
A
100
AcDbDictionary
281
1
  0
DICTIONARY
  5
C
330
A
100
AcDbDictionary
281
1
  0
DICTIONARY
  5
D
330
A
100
AcDbDictionary
281
1
  3
Model
350
1A
  3
Layout1
350
1E
  0
DICTIONARY
  5
E
330
A
100
AcDbDictionary
281
1
  3
ByBlock
350
1F
  3
ByLayer
350
20
  3
Global
350
21
  0
DICTIONARY
  5
F
330
A
100
AcDbDictionary
281
1
  3
Standard
350
2C
  0
DICTIONARY
  5
10
330
A
100
AcDbDictionary
281
1
  3
Standard
350
22
  0
DICTIONARY
  5
11
330
A
100
AcDbDictionary
281
1
  0
ACDBDICTIONARYWDFLT
  5
12
330
A
100
AcDbDictionary
281
1
  3
Normal
350
13
100
AcDbDictionaryWithDefault
340
13
  0
ACDBPLACEHOLDER
  5
13
330
12
  0
DICTIONARY
  5
14
330
A
100
AcDbDictionary
281
1
  0
DICTIONARY
  5
15
330
A
100
AcDbDictionary
281
1
  0
DICTIONARY
  5
16
330
A
100
AcDbDictionary
281
1
  0
LAYOUT
  5
1A
330
D
100
AcDbPlotSettings
  1

  4
A3
  6

 40
7.5
 41
20.0
 42
7.5
 43
20.0
 44
420.0
 45
297.0
 46
0.0
 47
0.0
 48
0.0
 49
0.0
140
0.0
141
0.0
142
1.0
143
1.0
 70
1024
 72
1
 73
0
 74
5
  7

 75
16
 76
0
 77
2
 78
300
147
1.0
148
0.0
149
0.0
100
AcDbLayout
  1
Model
 70
1
 71
0
 10
0.0
 20
0.0
 11
420.0
 21
297.0
 12
0.0
 22
0.0
 32
0.0
 14
1e+20
 24
1e+20
 34
1e+20
 15
-1e+20
 25
-1e+20
 35
-1e+20
146
0.0
 13
0.0
 23
0.0
 33
0.0
 16
1.0
 26
0.0
 36
0.0
 17
0.0
 27
1.0
 37
0.0
 76
1
330
17
  0
LAYOUT
  5
1E
330
D
100
AcDbPlotSettings
  1

  4
A3
  6

 40
7.5
 41
20.0
 42
7.5
 43
20.0
 44
420.0
 45
297.0
 46
0.0
 47
0.0
 48
0.0
 49
0.0
140
0.0
141
0.0
142
1.0
143
1.0
 70
0
 72
1
 73
0
 74
5
  7

 75
16
 76
0
 77
2
 78
300
147
1.0
148
0.0
149
0.0
100
AcDbLayout
  1
Layout1
 70
1
 71
1
 10
0.0
 20
0.0
 11
420.0
 21
297.0
 12
0.0
 22
0.0
 32
0.0
 14
1e+20
 24
1e+20
 34
1e+20
 15
-1e+20
 25
-1e+20
 35
-1e+20
146
0.0
 13
0.0
 23
0.0
 33
0.0
 16
1.0
 26
0.0
 36
0.0
 17
0.0
 27
1.0
 37
0.0
 76
1
330
1B
  0
MATERIAL
  5
1F
102
{ACAD_REACTORS
330
E
102
}
330
E
100
AcDbMaterial
  1
ByBlock
  2

 70
0
 40
1.0
 71
1
 41
1.0
 91
-1023410177
 42
1.0
 72
1
  3

 73
1
 74
1
 75
1
 44
0.5
 73
0
 45
1.0
 46
1.0
 77
1
  4

 78
1
 79
1
170
1
 48
1.0
171
1
  6

172
1
173
1
174
1
140
1.0
141
1.0
175
1
  7

176
1
177
1
178
1
143
1.0
179
1
  8

270
1
271
1
272
1
145
1.0
146
1.0
273
1
  9

274
1
275
1
276
1
 42
1.0
 72
1
  3

 73
1
 74
1
 75
1
 94
63
  0
MATERIAL
  5
20
102
{ACAD_REACTORS
330
E
102
}
330
E
100
AcDbMaterial
  1
ByLayer
  2

 70
0
 40
1.0
 71
1
 41
1.0
 91
-1023410177
 42
1.0
 72
1
  3

 73
1
 74
1
 75
1
 44
0.5
 73
0
 45
1.0
 46
1.0
 77
1
  4

 78
1
 79
1
170
1
 48
1.0
171
1
  6

172
1
173
1
174
1
140
1.0
141
1.0
175
1
  7

176
1
177
1
178
1
143
1.0
179
1
  8

270
1
271
1
272
1
145
1.0
146
1.0
273
1
  9

274
1
275
1
276
1
 42
1.0
 72
1
  3

 73
1
 74
1
 75
1
 94
63
  0
MATERIAL
  5
21
102
{ACAD_REACTORS
330
E
102
}
330
E
100
AcDbMaterial
  1
Global
  2

 70
0
 40
1.0
 71
1
 41
1.0
 91
-1023410177
 42
1.0
 72
1
  3

 73
1
 74
1
 75
1
 44
0.5
 73
0
 45
1.0
 46
1.0
 77
1
  4

 78
1
 79
1
170
1
 48
1.0
171
1
  6

172
1
173
1
174
1
140
1.0
141
1.0
175
1
  7

176
1
177
1
178
1
143
1.0
179
1
  8

270
1
271
1
272
1
145
1.0
146
1.0
273
1
  9

274
1
275
1
276
1
 42
1.0
 72
1
  3

 73
1
 74
1
 75
1
 94
63
  0
MLINESTYLE
  5
22
102
{ACAD_REACTORS
330
10
102
}
330
10
100
AcDbMlineStyle
  2
Standard
 70
0
  3

 62
256
 51
90.0
 52
90.0
 71
2
 49
0.5
 62
256
  6
BYLAYER
 49
-0.5
 62
256
  6
BYLAYER
  0
MLEADERSTYLE
  5
2C
102
{ACAD_REACTORS
330
F
102
}
330
F
100
AcDbMLeaderStyle
179
2
170
2
171
1
172
0
 90
2
 40
0.0
 41
0.0
173
1
 91
-1056964608
 92
-2
290
1
 42
2.0
291
1
 43
8.0
  3
Standard
 44
4.0
300

342
29
174
1
175
1
176
0
178
1
 93
-1056964608
 45
4.0
292
0
297
0
 46
4.0
 94
-1056964608
 47
1.0
 49
1.0
140
1.0
294
1
141
0.0
177
0
142
1.0
295
0
296
0
143
3.75
271
0
272
9
273
9
  0
DICTIONARY
  5
2D
330
A
100
AcDbDictionary
280
1
281
1
  3
CREATED_BY_EZDXF
350
2E
  3
WRITTEN_BY_EZDXF
350
1AC
  0
DICTIONARYVAR
  5
2E
330
2D
100
DictionaryVariables
280
0
  1
1.4.4 @ 2026-09-23T17:58:25.919596+00:00
  0
DICTIONARYVAR
  5
1AC
330
2D
100
DictionaryVariables
280
0
  1
1.4.4 @ 2026-09-23T17:58:26.051276+00:00
  0
ENDSEC
  0
EOF
