  0
SECTION
  2
HEADER
  9
$ACADVER
  1
AC1032
  9
$ACADMAINTVER
 90
4
  9
$DWGCODEPAGE
  3
ANSI_1252
  9
$LASTSAVEDBY
  1
ezdxf
  9
$REQUIREDVERSIONS
160
0
  9
$INSBASE
 10
0.0
 20
0.0
 30
0.0
  9
$EXTMIN
 10
1e+20
 20
1e+20
 30
1e+20
  9
$EXTMAX
 10
-1e+20
 20
-1e+20
 30
-1e+20
  9
$LIMMIN
 10
0.0
 20
0.0
  9
$LIMMAX
 10
420.0
 20
297.0
  9
$ORTHOMODE
 70
0
  9
$REGENMODE
 70
1
  9
$FILLMODE
 70
1
  9
$QTEXTMODE
 70
0
  9
$MIRRTEXT
 70
1
  9
$LTSCALE
 40
1.0
  9
$ATTMODE
 70
1
  9
$TEXTSIZE
 40
2.5
  9
$TRACEWID
 40
1.0
  9
$TEXTSTYLE
  7
Standard
  9
$CLAYER
  8
0
  9
$CELTYPE
  6
ByLayer
  9
$CECOLOR
 62
256
  9
$CELTSCALE
 40
1.0
  9
$DISPSILH
 70
0
  9
$DIMSCALE
 40
1.0
  9
$DIMASZ
 40
2.5
  9
$DIMEXO
 40
0.625
  9
$DIMDLI
 40
3.75
  9
$DIMRND
 40
0.0
  9
$DIMDLE
 40
0.0
  9
$DIMEXE
 40
1.25
  9
$DIMTP
 40
0.0
  9
$DIMTM
 40
0.0
  9
$DIMTXT
 40
2.5
  9
$DIMCEN
 40
2.5
  9
$DIMTSZ
 40
0.0
  9
$DIMTOL
 70
0
  9
$DIMLIM
 70
0
  9
$DIMTIH
 70
0
  9
$DIMTOH
 70
0
  9
$DIMSE1
 70
0
  9
$DIMSE2
 70
0
  9
$DIMTAD
 70
1
  9
$DIMZIN
 70
8
  9
$DIMBLK
  1

  9
$DIMASO
 70
1
  9
$DIMSHO
 70
1
  9
$DIMPOST
  1

  9
$DIMAPOST
  1

  9
$DIMALT
 70
0
  9
$DIMALTD
 70
3
  9
$DIMALTF
 40
0.03937007874
  9
$DIMLFAC
 40
1.0
  9
$DIMTOFL
 70
1
  9
$DIMTVP
 40
0.0
  9
$DIMTIX
 70
0
  9
$DIMSOXD
 70
0
  9
$DIMSAH
 70
0
  9
$DIMBLK1
  1

  9
$DIMBLK2
  1

  9
$DIMSTYLE
  2
ISO-25
  9
$DIMCLRD
 70
0
  9
$DIMCLRE
 70
0
  9
$DIMCLRT
 70
0
  9
$DIMTFAC
 40
1.0
  9
$DIMGAP
 40
0.625
  9
$DIMJUST
 70
0
  9
$DIMSD1
 70
0
  9
$DIMSD2
 70
0
  9
$DIMTOLJ
 70
0
  9
$DIMTZIN
 70
8
  9
$DIMALTZ
 70
0
  9
$DIMALTTZ
 70
0
  9
$DIMUPT
 70
0
  9
$DIMDEC
 70
2
  9
$DIMTDEC
 70
2
  9
$DIMALTU
 70
2
  9
$DIMALTTD
 70
3
  9
$DIMTXSTY
  7
Standard
  9
$DIMAUNIT
 70
0
  9
$DIMADEC
 70
0
  9
$DIMALTRND
 40
0.0
  9
$DIMAZIN
 70
0
  9
$DIMDSEP
 70
44
  9
$DIMATFIT
 70
3
  9
$DIMFRAC
 70
0
  9
$DIMLDRBLK
  1

  9
$DIMLUNIT
 70
2
  9
$DIMLWD
 70
-2
  9
$DIMLWE
 70
-2
  9
$DIMTMOVE
 70
0
  9
$DIMFXL
 40
1.0
  9
$DIMFXLON
 70
0
  9
$DIMJOGANG
 40
0.785398163397
  9
$DIMTFILL
 70
0
  9
$DIMTFILLCLR
 70
0
  9
$DIMARCSYM
 70
0
  9
$DIMLTYPE
  6

  9
$DIMLTEX1
  6

  9
$DIMLTEX2
  6

  9
$DIMTXTDIRECTION
 70
0
  9
$LUNITS
 70
2
  9
$LUPREC
 70
4
  9
$SKETCHINC
 40
1.0
  9
$FILLETRAD
 40
10.0
  9
$AUNITS
 70
0
  9
$AUPREC
 70
2
  9
$MENU
  1
.
  9
$ELEVATION
 40
0.0
  9
$PELEVATION
 40
0.0
  9
$THICKNESS
 40
0.0
  9
$LIMCHECK
 70
0
  9
$CHAMFERA
 40
0.0
  9
$CHAMFERB
 40
0.0
  9
$CHAMFERC
 40
0.0
  9
$CHAMFERD
 40
0.0
  9
$SKPOLY
 70
0
  9
$TDCREATE
 40
2461308.0410069446
  9
$TDUCREATE
 40
2458532.153996898
  9
$TDUPDATE
 40
2461308.0410069446
  9
$TDUUPDATE
 40
2458532.1544311
  9
$TDINDWG
 40
0.0
  9
$TDUSRTIMER
 40
0.0
  9
$USRTIMER
 70
1
  9
$ANGBASE
 50
0.0
  9
$ANGDIR
 70
0
  9
$PDMODE
 70
0
  9
$PDSIZE
 40
0.0
  9
$PLINEWID
 40
0.0
  9
$SPLFRAME
 70
0
  9
$SPLINETYPE
 70
6
  9
$SPLINESEGS
 70
8
  9
$HANDSEED
  5
17E
  9
$SURFTAB1
 70
6
  9
$SURFTAB2
 70
6
  9
$SURFTYPE
 70
6
  9
$SURFU
 70
6
  9
$SURFV
 70
6
  9
$UCSBASE
  2

  9
$UCSNAME
  2

  9
$UCSORG
 10
0.0
 20
0.0
 30
0.0
  9
$UCSXDIR
 10
1.0
 20
0.0
 30
0.0
  9
$UCSYDIR
 10
0.0
 20
1.0
 30
0.0
  9
$UCSORTHOREF
  2

  9
$UCSORTHOVIEW
 70
0
  9
$UCSORGTOP
 10
0.0
 20
0.0
 30
0.0
  9
$UCSORGBOTTOM
 10
0.0
 20
0.0
 30
0.0
  9
$UCSORGLEFT
 10
0.0
 20
0.0
 30
0.0
  9
$UCSORGRIGHT
 10
0.0
 20
0.0
 30
0.0
  9
$UCSORGFRONT
 10
0.0
 20
0.0
 30
0.0
  9
$UCSORGBACK
 10
0.0
 20
0.0
 30
0.0
  9
$PUCSBASE
  2

  9
$PUCSNAME
  2

  9
$PUCSORG
 10
0.0
 20
0.0
 30
0.0
  9
$PUCSXDIR
 10
1.0
 20
0.0
 30
0.0
  9
$PUCSYDIR
 10
0.0
 20
1.0
 30
0.0
  9
$PUCSORTHOREF
  2

  9
$PUCSORTHOVIEW
 70
0
  9
$PUCSORGTOP
 10
0.0
 20
0.0
 30
0.0
  9
$PUCSORGBOTTOM
 10
0.0
 20
0.0
 30
0.0
  9
$PUCSORGLEFT
 10
0.0
 20
0.0
 30
0.0
  9
$PUCSORGRIGHT
 10
0.0
 20
0.0
 30
0.0
  9
$PUCSORGFRONT
 10
0.0
 20
0.0
 30
0.0
  9
$PUCSORGBACK
 10
0.0
 20
0.0
 30
0.0
  9
$USERI1
 70
0
  9
$USERI2
 70
0
  9
$USERI3
 70
0
  9
$USERI4
 70
0
  9
$USERI5
 70
0
  9
$USERR1
 40
0.0
  9
$USERR2
 40
0.0
  9
$USERR3
 40
0.0
  9
$USERR4
 40
0.0
  9
$USERR5
 40
0.0
  9
$WORLDVIEW
 70
1
  9
$SHADEDGE
 70
3
  9
$SHADEDIF
 70
70
  9
$TILEMODE
 70
1
  9
$MAXACTVP
 70
64
  9
$PINSBASE
 10
0.0
 20
0.0
 30
0.0
  9
$PLIMCHECK
 70
0
  9
$PEXTMIN
 10
1e+20
 20
1e+20
 30
1e+20
  9
$PEXTMAX
 10
-1e+20
 20
-1e+20
 30
-1e+20
  9
$PLIMMIN
 10
0.0
 20
0.0
  9
$PLIMMAX
 10
420.0
 20
297.0
  9
$UNITMODE
 70
0
  9
$VISRETAIN
 70
1
  9
$PLINEGEN
 70
0
  9
$PSLTSCALE
 70
1
  9
$TREEDEPTH
 70
3020
  9
$CMLSTYLE
  2
Standard
  9
$CMLJUST
 70
0
  9
$CMLSCALE
 40
20.0
  9
$PROXYGRAPHICS
 70
1
  9
$MEASUREMENT
 70
1
  9
$CELWEIGHT
370
-1
  9
$ENDCAPS
280
0
  9
$JOINSTYLE
280
0
  9
$LWDISPLAY
290
0
  9
$INSUNITS
 70
1
  9
$HYPERLINKBASE
  1

  9
$STYLESHEET
  1

  9
$XEDIT
290
1
  9
$CEPSNTYPE
380
0
  9
$PSTYLEMODE
290
1
  9
$FINGERPRINTGUID
  2
{05FA668E-11FC-4170-A92C-1C0529D59EB6}
  9
$VERSIONGUID
  2
{9998B458-43B4-44A7-8D45-DA9FE536045B}
  9
$EXTNAMES
290
1
  9
$PSVPSCALE
 40
0.0
  9
$OLESTARTUP
290
0
  9
$SORTENTS
280
127
  9
$INDEXCTL
280
0
  9
$HIDETEXT
280
1
  9
$XCLIPFRAME
280
1
  9
$HALOGAP
280
0
  9
$OBSCOLOR
 70
257
  9
$OBSLTYPE
280
0
  9
$INTERSECTIONDISPLAY
280
0
  9
$INTERSECTIONCOLOR
 70
257
  9
$DIMASSOC
280
2
  9
$PROJECTNAME
  1

  9
$CAMERADISPLAY
290
0
  9
$LENSLENGTH
 40
50.0
  9
$CAMERAHEIGHT
 40
0.0
  9
$STEPSPERSEC
 40
24.0
  9
$STEPSIZE
 40
100.0
  9
$3DDWFPREC
 40
2.0
  9
$PSOLWIDTH
 40
0.005
  9
$PSOLHEIGHT
 40
0.08
  9
$LOFTANG1
 40
1.570796326795
  9
$LOFTANG2
 40
1.570796326795
  9
$LOFTMAG1
 40
0.0
  9
$LOFTMAG2
 40
0.0
  9
$LOFTPARAM
 70
7
  9
$LOFTNORMALS
280
1
  9
$LATITUDE
 40
37.795
  9
$LONGITUDE
 40
-122.394
  9
$NORTHDIRECTION
 40
0.0
  9
$TIMEZONE
 70
-8000
  9
$LIGHTGLYPHDISPLAY
280
1
  9
$TILEMODELIGHTSYNCH
280
1
  9
$CMATERIAL
347
20
  9
$SOLIDHIST
280
0
  9
$SHOWHIST
280
1
  9
$DWFFRAME
280
2
  9
$DGNFRAME
280
2
  9
$REALWORLDSCALE
290
1
  9
$INTERFERECOLOR
 62
256
  9
$CSHADOW
280
0
  9
$SHADOWPLANELOCATION
 40
0.0
  0
ENDSEC
  0
SECTION
  2
CLASSES
  0
CLASS
  1
ACDBDICTIONARYWDFLT
  2
AcDbDictionaryWithDefault
  3
ObjectDBX Classes
 90
0
 91
0
280
0
281
0
  0
CLASS
  1
SUN
  2
AcDbSun
  3
SCENEOE
 90
1153
 91
0
280
0
281
0
  0
CLASS
  1
VISUALSTYLE
  2
AcDbVisualStyle
  3
ObjectDBX Classes
 90
4095
 91
0
280
0
281
0
  0
CLASS
  1
MATERIAL
  2
AcDbMaterial
  3
ObjectDBX Classes
 90
1153
 91
0
280
0
281
0
  0
CLASS
  1
SCALE
  2
AcDbScale
  3
ObjectDBX Classes
 90
1153
 91
0
280
0
281
0
  0
CLASS
  1
TABLESTYLE
  2
AcDbTableStyle
  3
ObjectDBX Classes
 90
4095
 91
0
280
0
281
0
  0
CLASS
  1
MLEADERSTYLE
  2
AcDbMLeaderStyle
  3
ACDB_MLEADERSTYLE_CLASS
 90
4095
 91
0
280
0
281
0
  0
CLASS
  1
DICTIONARYVAR
  2
AcDbDictionaryVar
  3
ObjectDBX Classes
 90
0
 91
0
280
0
281
0
  0
CLASS
  1
CELLSTYLEMAP
  2
AcDbCellStyleMap
  3
ObjectDBX Classes
 90
1152
 91
0
280
0
281
0
  0
CLASS
  1
MENTALRAYRENDERSETTINGS
  2
AcDbMentalRayRenderSettings
  3
SCENEOE
 90
1024
 91
0
280
0
281
0
  0
CLASS
  1
ACDBDETAILVIEWSTYLE
  2
AcDbDetailViewStyle
  3
ObjectDBX Classes
 90
1025
 91
0
280
0
281
0
  0
CLASS
  1
ACDBSECTIONVIEWSTYLE
  2
AcDbSectionViewStyle
  3
ObjectDBX Classes
 90
1025
 91
0
280
0
281
0
  0
CLASS
  1
RASTERVARIABLES
  2
AcDbRasterVariables
  3
ISM
 90
0
 91
0
280
0
281
0
  0
CLASS
  1
ACDBPLACEHOLDER
  2
AcDbPlaceHolder
  3
ObjectDBX Classes
 90
0
 91
0
280
0
281
0
  0
CLASS
  1
LAYOUT
  2
AcDbLayout
  3
ObjectDBX Classes
 90
0
 91
0
280
0
281
0
  0
ENDSEC
  0
SECTION
  2
TABLES
  0
TABLE
  2
VPORT
  5
8
330
0
100
AcDbSymbolTable
 70
1
  0
VPORT
  5
23
330
8
100
AcDbSymbolTableRecord
100
AcDbViewportTableRecord
  2
*Active
 70
0
 10
0.0
 20
0.0
 11
1.0
 21
1.0
 12
0.0
 22
0.0
 13
0.0
 23
0.0
 14
0.5
 24
0.5
 15
0.5
 25
0.5
 16
0.0
 26
0.0
 36
1.0
 17
0.0
 27
0.0
 37
0.0
 40
1000.0
 41
1.34
 42
50.0
 43
0.0
 44
0.0
 50
0.0
 51
0.0
 71
0
 72
1000
 73
1
 74
3
 75
0
 76
0
 77
0
 78
0
281
0
 65
0
146
0.0
  0
ENDTAB
  0
TABLE
  2
LTYPE
  5
2
330
0
100
AcDbSymbolTable
 70
3
  0
LTYPE
  5
24
330
2
100
AcDbSymbolTableRecord
100
AcDbLinetypeTableRecord
  2
ByBlock
 70
0
  3

 72
65
 73
0
 40
0.0
  0
LTYPE
  5
25
330
2
100
AcDbSymbolTableRecord
100
AcDbLinetypeTableRecord
  2
ByLayer
 70
0
  3

 72
65
 73
0
 40
0.0
  0
LTYPE
  5
26
330
2
100
AcDbSymbolTableRecord
100
AcDbLinetypeTableRecord
  2
Continuous
 70
0
  3

 72
65
 73
0
 40
0.0
  0
ENDTAB
  0
TABLE
  2
LAYER
  5
1
330
0
100
AcDbSymbolTable
 70
3
  0
LAYER
  5
27
330
1
100
AcDbSymbolTableRecord
100
AcDbLayerTableRecord
  2
0
 70
0
 62
7
  6
Continuous
370
-3
390
13
347
21
  0
LAYER
  5
28
330
1
100
AcDbSymbolTableRecord
100
AcDbLayerTableRecord
  2
Defpoints
 70
0
 62
7
  6
Continuous
290
0
370
-3
390
13
347
21
  0
LAYER
  5
178
330
1
100
AcDbSymbolTableRecord
100
AcDbLayerTableRecord
  2
hw_VTP
 70
2
 62
7
  6
Continuous
370
13
390
13
347
21
  0
ENDTAB
  0
TABLE
  2
STYLE
  5
5
330
0
100
AcDbSymbolTable
 70
1
  0
STYLE
  5
29
330
5
100
AcDbSymbolTableRecord
100
AcDbTextStyleTableRecord
  2
Standard
 70
0
 40
0.0
 41
1.0
 50
0.0
 71
0
 42
2.5
  3
txt
  4

  0
ENDTAB
  0
TABLE
  2
VIEW
  5
7
330
0
100
AcDbSymbolTable
 70
0
  0
ENDTAB
  0
TABLE
  2
UCS
  5
6
330
0
100
AcDbSymbolTable
 70
0
  0
ENDTAB
  0
TABLE
  2
APPID
  5
3
330
0
100
AcDbSymbolTable
 70
3
  0
APPID
  5
2A
330
3
100
AcDbSymbolTableRecord
100
AcDbRegAppTableRecord
  2
ACAD
 70
0
  0
APPID
  5
17B
330
3
100
AcDbSymbolTableRecord
100
AcDbRegAppTableRecord
  2
HATCHBACKGROUNDCOLOR
 70
0
  0
APPID
  5
17C
330
3
100
AcDbSymbolTableRecord
100
AcDbRegAppTableRecord
  2
EZDXF
 70
0
  0
ENDTAB
  0
TABLE
  2
DIMSTYLE
  5
4
330
0
100
AcDbSymbolTable
 70
1
100
AcDbDimStyleTable
  0
DIMSTYLE
105
2B
330
4
100
AcDbSymbolTableRecord
100
AcDbDimStyleTableRecord
  2
Standard
 70
0
 40
1.0
 41
2.5
 42
0.625
 43
3.75
 44
1.25
 45
0.0
 46
0.0
 47
0.0
 48
0.0
 49
2.5
140
2.5
141
2.5
142
0.0
143
0.03937007874
144
1.0
145
0.0
146
1.0
147
0.625
148
0.0
 69
0
 70
0
 71
0
 72
0
 73
0
 74
0
 75
0
 76
0
 77
1
 78
8
 79
3
170
0
171
3
172
1
173
0
174
0
175
0
176
0
177
0
178
0
179
2
271
2
272
2
273
2
274
3
275
0
276
0
277
2
278
44
279
0
280
0
281
0
282
0
283
0
284
8
285
0
286
0
288
0
289
3
290
0
371
-2
372
-2
  0
ENDTAB
  0
TABLE
  2
BLOCK_RECORD
  5
9
330
0
100
AcDbSymbolTable
 70
3
  0
BLOCK_RECORD
  5
17
330
9
100
AcDbSymbolTableRecord
100
AcDbBlockTableRecord
  2
*Model_Space
340
1A
 70
0
280
1
281
0
  0
BLOCK_RECORD
  5
1B
330
9
100
AcDbSymbolTableRecord
100
AcDbBlockTableRecord
  2
*Paper_Space
340
1E
 70
0
280
1
281
0
  0
BLOCK_RECORD
  5
2F
330
9
100
AcDbSymbolTableRecord
100
AcDbBlockTableRecord
  2
TC_NE 5 MAT
340
0
 70
0
280
1
281
0
  0
ENDTAB
  0
ENDSEC
  0
SECTION
  2
BLOCKS
  0
BLOCK
  5
18
330
17
100
AcDbEntity
  8
0
100
AcDbBlockBegin
  2
*Model_Space
 70
0
 10
0.0
 20
0.0
 30
0.0
  3
*Model_Space
  1

  0
ENDBLK
  5
19
330
17
100
AcDbEntity
  8
0
100
AcDbBlockEnd
  0
BLOCK
  5
1C
330
1B
100
AcDbEntity
  8
0
100
AcDbBlockBegin
  2
*Paper_Space
 70
0
 10
0.0
 20
0.0
 30
0.0
  3
*Paper_Space
  1

  0
ENDBLK
  5
1D
330
1B
100
AcDbEntity
  8
0
100
AcDbBlockEnd
  0
BLOCK
  5
30
330
2F
100
AcDbEntity
  8
0
100
AcDbBlockBegin
  2
TC_NE 5 MAT
 70
0
 10
0.0
 20
0.0
 30
0.0
  3
TC_NE 5 MAT
  1

  0
LINE
  5
32
330
2F
100
AcDbEntity
  8
hw_VTP
 62
30
100
AcDbLine
 10
-6.5
 20
9.0
 30
0.0
 11
66.5
 21
9.0
 31
0.0
  0
LINE
  5
33
330
2F
100
AcDbEntity
  8
hw_VTP
 62
30
100
AcDbLine
 10
66.5
 20
19.0
 30
0.0
 11
-6.5
 21
19.0
 31
0.0
  0
LINE
  5
34
330
2F
100
AcDbEntity
  8
hw_VTP
 62
30
100
AcDbLine
 10
-6.5
 20
9.0
 30
0.0
 11
-6.5
 21
19.0
 31
0.0
  0
LINE
  5
35
330
2F
100
AcDbEntity
  8
hw_VTP
 62
30
100
AcDbLine
 10
66.5
 20
19.0
 30
0.0
 11
66.5
 21
9.0
 31
0.0
  0
CIRCLE
  5
36
330
2F
100
AcDbEntity
  8
hw_VTP
 62
7
100
AcDbCircle
 10
0.0
 20
14.0
 30
0.0
 40
2.49999999999999
  0
CIRCLE
  5
37
330
2F
100
AcDbEntity
  8
hw_VTP
 62
7
100
AcDbCircle
 10
60.0
 20
14.0
 30
0.0
 40
2.49999999999999
  0
CIRCLE
  5
38
330
2F
100
AcDbEntity
  8
hw_VTP
 62
7
100
AcDbCircle
 10
60.0
 20
0.0
 30
0.0
 40
4.0
  0
CIRCLE
  5
39
330
2F
100
AcDbEntity
  8
hw_VTP
 62
7
100
AcDbCircle
 10
60.0
 20
0.0
 30
0.0
 40
1.5
  0
CIRCLE
  5
3A
330
2F
100
AcDbEntity
  8
hw_VTP
 62
7
100
AcDbCircle
 10
60.0
 20
14.0
 30
0.0
 40
1.5
  0
LINE
  5
3B
330
2F
100
AcDbEntity
  8
hw_VTP
 62
7
100
AcDbLine
 10
66.5
 20
8.0
 30
0.0
 11
66.5
 21
5.0
 31
0.0
  0
LINE
  5
3C
330
2F
100
AcDbEntity
  8
hw_VTP
 62
7
100
AcDbLine
 10
53.5
 20
8.0
 30
0.0
 11
66.5
 21
8.0
 31
0.0
  0
LINE
  5
3D
330
2F
100
AcDbEntity
  8
hw_VTP
 62
7
100
AcDbLine
 10
53.5
 20
5.0
 30
0.0
 11
53.5
 21
8.0
 31
0.0
  0
LINE
  5
3E
330
2F
100
AcDbEntity
  8
hw_VTP
 62
7
100
AcDbLine
 10
53.5
 20
5.0
 30
0.0
 11
66.5
 21
5.0
 31
0.0
  0
LINE
  5
3F
330
2F
100
AcDbEntity
  8
hw_VTP
 62
7
100
AcDbLine
 10
66.5
 20
5.0
 30
0.0
 11
66.5
 21
0.5
 31
0.0
  0
LINE
  5
40
330
2F
100
AcDbEntity
  8
hw_VTP
 62
7
100
AcDbLine
 10
53.5
 20
0.5
 30
0.0
 11
53.5
 21
5.0
 31
0.0
  0
ARC
  5
41
330
2F
100
AcDbEntity
  8
hw_VTP
 62
7
100
AcDbCircle
 10
60.0
 20
0.5
 30
0.0
 40
6.5
100
AcDbArc
 50
180.0
 51
0.0
  0
LINE
  5
42
330
2F
100
AcDbEntity
  8
hw_VTP
 62
7
100
AcDbLine
 10
66.5
 20
9.0
 30
0.0
 11
66.5
 21
8.0
 31
0.0
  0
LINE
  5
43
330
2F
100
AcDbEntity
  8
hw_VTP
 62
7
100
AcDbLine
 10
53.5
 20
8.0
 30
0.0
 11
53.5
 21
9.0
 31
0.0
  0
LINE
  5
44
330
2F
100
AcDbEntity
  8
hw_VTP
 62
7
100
AcDbLine
 10
53.5
 20
19.0
 30
0.0
 11
53.5
 21
20.0
 31
0.0
  0
LINE
  5
45
330
2F
100
AcDbEntity
  8
hw_VTP
 62
7
100
AcDbLine
 10
66.5
 20
20.0
 30
0.0
 11
66.5
 21
19.0
 31
0.0
  0
LINE
  5
46
330
2F
100
AcDbEntity
  8
hw_VTP
 62
7
100
AcDbLine
 10
53.5
 20
20.0
 30
0.0
 11
66.5
 21
20.0
 31
0.0
  0
CIRCLE
  5
47
330
2F
100
AcDbEntity
  8
hw_VTP
 62
7
100
AcDbCircle
 10
0.0
 20
0.0
 30
0.0
 40
4.000000000000001
  0
CIRCLE
  5
48
330
2F
100
AcDbEntity
  8
hw_VTP
 62
7
100
AcDbCircle
 10
0.0
 20
0.0
 30
0.0
 40
1.5
  0
CIRCLE
  5
49
330
2F
100
AcDbEntity
  8
hw_VTP
 62
7
100
AcDbCircle
 10
0.0
 20
14.0
 30
0.0
 40
1.5
  0
LINE
  5
4A
330
2F
100
AcDbEntity
  8
hw_VTP
 62
7
100
AcDbLine
 10
6.5
 20
8.0
 30
0.0
 11
6.5
 21
5.0
 31
0.0
  0
LINE
  5
4B
330
2F
100
AcDbEntity
  8
hw_VTP
 62
7
100
AcDbLine
 10
-6.5
 20
8.0
 30
0.0
 11
6.5
 21
8.0
 31
0.0
  0
LINE
  5
4C
330
2F
100
AcDbEntity
  8
hw_VTP
 62
7
100
AcDbLine
 10
-6.5
 20
5.0
 30
0.0
 11
-6.5
 21
8.0
 31
0.0
  0
LINE
  5
4D
330
2F
100
AcDbEntity
  8
hw_VTP
 62
7
100
AcDbLine
 10
-6.5
 20
5.0
 30
0.0
 11
6.5
 21
5.0
 31
0.0
  0
LINE
  5
4E
330
2F
100
AcDbEntity
  8
hw_VTP
 62
7
100
AcDbLine
 10
6.5
 20
5.0
 30
0.0
 11
6.5
 21
0.5
 31
0.0
  0
LINE
  5
4F
330
2F
100
AcDbEntity
  8
hw_VTP
 62
7
100
AcDbLine
 10
-6.5
 20
0.5
 30
0.0
 11
-6.5
 21
5.0
 31
0.0
  0
ARC
  5
50
330
2F
100
AcDbEntity
  8
hw_VTP
 62
7
100
AcDbCircle
 10
0.0
 20
0.5
 30
0.0
 40
6.500000000000003
100
AcDbArc
 50
180.0
 51
0.0
  0
LINE
  5
51
330
2F
100
AcDbEntity
  8
hw_VTP
 62
7
100
AcDbLine
 10
6.5
 20
9.0
 30
0.0
 11
6.5
 21
8.0
 31
0.0
  0
LINE
  5
52
330
2F
100
AcDbEntity
  8
hw_VTP
 62
7
100
AcDbLine
 10
-6.5
 20
8.0
 30
0.0
 11
-6.5
 21
9.0
 31
0.0
  0
LINE
  5
53
330
2F
100
AcDbEntity
  8
hw_VTP
 62
7
100
AcDbLine
 10
6.5
 20
20.0
 30
0.0
 11
6.5
 21
19.0
 31
0.0
  0
LINE
  5
54
330
2F
100
AcDbEntity
  8
hw_VTP
 62
7
100
AcDbLine
 10
-6.5
 20
20.0
 30
0.0
 11
6.5
 21
20.0
 31
0.0
  0
LINE
  5
55
330
2F
100
AcDbEntity
  8
hw_VTP
 62
30
100
AcDbLine
 10
18.06364177822525
 20
13.61666666666701
 30
0.0
 11
18.95952380952258
 21
13.61666666666701
 31
0.0
  0
SPLINE
  5
56
330
2F
100
AcDbEntity
  8
hw_VTP
 62
30
100
AcDbSpline
 70
12
 71
2
 72
6
 73
3
 74
0
 42
1e-09
 40
0.0
 40
0.0
 40
0.0
 40
0.0419035573382337
 40
0.0419035573382337
 40
0.0419035573382337
 41
1.0
 41
1.000259450662844
 41
1.0
 10
17.92024019356586
 20
13.31130892694796
 30
0.0
 10
17.99354176699717
 20
13.46753500522095
 30
0.0
 10
18.06364177822525
 20
13.61666666666701
 30
0.0
  0
LINE
  5
57
330
2F
100
AcDbEntity
  8
hw_VTP
 62
30
100
AcDbLine
 10
18.83853267741506
 20
13.31130892694796
 30
0.0
 11
17.92024019356586
 21
13.31130892694796
 31
0.0
  0
SPLINE
  5
58
330
2F
100
AcDbEntity
  8
hw_VTP
 62
30
100
AcDbSpline
 70
8
 71
3
 72
8
 73
4
 74
0
 42
1e-09
 40
0.0
 40
0.0
 40
0.0
 40
0.0
 40
0.0417142228120442
 40
0.0417142228120442
 40
0.0417142228120442
 40
0.0417142228120442
 10
18.83853267741506
 20
13.31130892694796
 30
0.0
 10
18.88044929260968
 20
13.41182220085102
 30
0.0
 10
18.92206860360011
 20
13.51273909404699
 30
0.0
 10
18.96293268676527
 20
13.61325778942478
 30
0.0
  0
SPLINE
  5
59
330
2F
100
AcDbEntity
  8
hw_VTP
 62
30
100
AcDbSpline
 70
28
 71
2
 72
6
 73
3
 74
0
 42
1e-09
 40
0.4603462460716825
 40
0.4603462460716825
 40
0.4603462460716825
 40
0.460881520466195
 40
0.460881520466195
 40
0.460881520466195
 41
0.960465329358932
 41
0.9604474122106202
 41
0.9604295068471911
 10
18.96293268676527
 20
13.61325778942478
 30
0.0
 10
18.96122771920409
 20
13.61496275698596
 30
0.0
 10
18.95952380952258
 20
13.61666666666701
 30
0.0
  0
LINE
  5
5A
330
2F
100
AcDbEntity
  8
hw_VTP
 62
30
100
AcDbLine
 10
19.31130892694818
 20
12.83853267741506
 30
0.0
 11
18.83853267741506
 21
13.31130892694796
 31
0.0
  0
SPLINE
  5
5B
330
2F
100
AcDbEntity
  8
hw_VTP
 62
30
100
AcDbSpline
 70
8
 71
3
 72
8
 73
4
 74
0
 42
1e-09
 40
0.0
 40
0.0
 40
0.0
 40
0.0
 40
0.041714222811963
 40
0.041714222811963
 40
0.041714222811963
 40
0.041714222811963
 10
19.31130892694818
 20
12.83853267741506
 30
0.0
 10
19.41182220085102
 20
12.880449292609
 30
0.0
 10
19.51273909404654
 20
12.92206860359988
 30
0.0
 10
19.613257789425
 20
12.96293268676504
 30
0.0
  0
LINE
  5
5C
330
2F
100
AcDbEntity
  8
hw_VTP
 62
30
100
AcDbLine
 10
18.96293268676527
 20
13.61325778942478
 30
0.0
 11
19.613257789425
 21
12.96293268676504
 31
0.0
  0
SPLINE
  5
5D
330
2F
100
AcDbEntity
  8
hw_VTP
 62
30
100
AcDbSpline
 70
12
 71
2
 72
6
 73
3
 74
0
 42
1e-09
 40
0.0
 40
0.0
 40
0.0
 40
0.0419035573382335
 40
0.0419035573382335
 40
0.0419035573382335
 41
1.0
 41
1.000259450688112
 41
1.0
 10
19.61666666666588
 20
12.06364177822479
 30
0.0
 10
19.46753500525392
 20
11.99354176701217
 30
0.0
 10
19.31130892694818
 20
11.92024019356608
 30
0.0
  0
LINE
  5
5E
330
2F
100
AcDbEntity
  8
hw_VTP
 62
30
100
AcDbLine
 10
19.61666666666588
 20
12.95952380952394
 30
0.0
 11
19.61666666666588
 21
12.06364177822479
 31
0.0
  0
LINE
  5
5F
330
2F
100
AcDbEntity
  8
hw_VTP
 62
30
100
AcDbLine
 10
19.613257789425
 20
12.96293268676504
 30
0.0
 11
19.61666666666588
 21
12.95952380952394
 31
0.0
  0
LINE
  5
60
330
2F
100
AcDbEntity
  8
hw_VTP
 62
30
100
AcDbLine
 10
19.31130892694818
 20
11.92024019356608
 30
0.0
 11
19.31130892694818
 21
12.83853267741506
 31
0.0
  0
LINE
  5
61
330
2F
100
AcDbEntity
  8
hw_VTP
 62
30
100
AcDbLine
 10
20.38333333333321
 20
12.06364177822479
 30
0.0
 11
20.38333333333321
 21
12.95952380952394
 31
0.0
  0
SPLINE
  5
62
330
2F
100
AcDbEntity
  8
hw_VTP
 62
30
100
AcDbSpline
 70
12
 71
2
 72
6
 73
3
 74
0
 42
1e-09
 40
0.0
 40
0.0
 40
0.0
 40
0.0419035573382335
 40
0.0419035573382335
 40
0.0419035573382335
 41
1.0
 41
1.000259450661848
 41
1.0
 10
20.68869107305181
 20
11.92024019356608
 30
0.0
 10
20.53246499475472
 20
11.99354176700717
 30
0.0
 10
20.38333333333321
 20
12.06364177822479
 30
0.0
  0
LINE
  5
63
330
2F
100
AcDbEntity
  8
hw_VTP
 62
30
100
AcDbLine
 10
20.68869107305181
 20
12.83853267741506
 30
0.0
 11
20.68869107305181
 21
11.92024019356608
 31
0.0
  0
SPLINE
  5
64
330
2F
100
AcDbEntity
  8
hw_VTP
 62
30
100
AcDbSpline
 70
8
 71
3
 72
8
 73
4
 74
0
 42
1e-09
 40
0.0
 40
0.0
 40
0.0
 40
0.0
 40
0.0417142228118326
 40
0.0417142228118326
 40
0.0417142228118326
 40
0.0417142228118326
 10
20.68869107305181
 20
12.83853267741506
 30
0.0
 10
20.58817779914944
 20
12.880449292609
 30
0.0
 10
20.48726090595301
 20
12.92206860359988
 30
0.0
 10
20.38674221057499
 20
12.96293268676504
 30
0.0
  0
SPLINE
  5
65
330
2F
100
AcDbEntity
  8
hw_VTP
 62
30
100
AcDbSpline
 70
28
 71
2
 72
6
 73
3
 74
0
 42
1e-09
 40
0.4603462460716818
 40
0.4603462460716818
 40
0.4603462460716818
 40
0.4608815204661953
 40
0.4608815204661953
 40
0.4608815204661953
 41
0.9604653293589295
 41
0.9604474122106175
 41
0.9604295068471888
 10
20.38674221057499
 20
12.9629326867651
 30
0.0
 10
20.38503724301518
 20
12.96122771920386
 30
0.0
 10
20.38333333333321
 20
12.95952380952394
 30
0.0
  0
LINE
  5
66
330
2F
100
AcDbEntity
  8
hw_VTP
 62
30
100
AcDbLine
 10
21.16146732258358
 20
13.31130892694796
 30
0.0
 11
20.68869107305181
 21
12.83853267741506
 31
0.0
  0
SPLINE
  5
67
330
2F
100
AcDbEntity
  8
hw_VTP
 62
30
100
AcDbSpline
 70
8
 71
3
 72
8
 73
4
 74
0
 42
1e-09
 40
0.0
 40
0.0
 40
0.0
 40
0.0
 40
0.0417142228120671
 40
0.0417142228120671
 40
0.0417142228120671
 40
0.0417142228120671
 10
21.16146732258358
 20
13.31130892694796
 30
0.0
 10
21.11955070739032
 20
13.41182220085102
 30
0.0
 10
21.07793139640035
 20
13.51273909404699
 30
0.0
 10
21.03706731323473
 20
13.61325778942478
 30
0.0
  0
LINE
  5
68
330
2F
100
AcDbEntity
  8
hw_VTP
 62
30
100
AcDbLine
 10
20.38674221057499
 20
12.96293268676504
 30
0.0
 11
21.03706731323473
 21
13.61325778942478
 31
0.0
  0
SPLINE
  5
69
330
2F
100
AcDbEntity
  8
hw_VTP
 62
30
100
AcDbSpline
 70
12
 71
2
 72
6
 73
3
 74
0
 42
1e-09
 40
0.0
 40
0.0
 40
0.0
 40
0.0419035573382337
 40
0.0419035573382337
 40
0.0419035573382337
 41
1.0
 41
1.00025945063424
 41
1.0
 10
21.93635822177475
 20
13.61666666666701
 30
0.0
 10
22.0064582330042
 20
13.4675350052189
 30
0.0
 10
22.07975980643368
 20
13.31130892694796
 30
0.0
  0
LINE
  5
6A
330
2F
100
AcDbEntity
  8
hw_VTP
 62
30
100
AcDbLine
 10
21.04047619047606
 20
13.61666666666701
 30
0.0
 11
21.93635822177475
 21
13.61666666666701
 31
0.0
  0
LINE
  5
6B
330
2F
100
AcDbEntity
  8
hw_VTP
 62
30
100
AcDbLine
 10
21.03706731323473
 20
13.61325778942478
 30
0.0
 11
21.04047619047606
 21
13.61666666666701
 31
0.0
  0
LINE
  5
6C
330
2F
100
AcDbEntity
  8
hw_VTP
 62
30
100
AcDbLine
 10
22.07975980643368
 20
13.31130892694796
 30
0.0
 11
21.16146732258358
 21
13.31130892694796
 31
0.0
  0
LINE
  5
6D
330
2F
100
AcDbEntity
  8
hw_VTP
 62
30
100
AcDbLine
 10
21.93635822177475
 20
14.38333333333298
 30
0.0
 11
21.04047619047606
 21
14.38333333333298
 31
0.0
  0
SPLINE
  5
6E
330
2F
100
AcDbEntity
  8
hw_VTP
 62
30
100
AcDbSpline
 70
12
 71
2
 72
6
 73
3
 74
0
 42
1e-09
 40
0.0
 40
0.0
 40
0.0
 40
0.0419035573382336
 40
0.0419035573382336
 40
0.0419035573382336
 41
1.0
 41
1.000259450640569
 41
1.0
 10
22.07975980643368
 20
14.68869107305181
 30
0.0
 10
22.00645823300602
 20
14.53246499478496
 30
0.0
 10
21.93635822177475
 20
14.38333333333298
 30
0.0
  0
LINE
  5
6F
330
2F
100
AcDbEntity
  8
hw_VTP
 62
30
100
AcDbLine
 10
21.16146732258358
 20
14.68869107305181
 30
0.0
 11
22.07975980643368
 21
14.68869107305181
 31
0.0
  0
SPLINE
  5
70
330
2F
100
AcDbEntity
  8
hw_VTP
 62
30
100
AcDbSpline
 70
8
 71
3
 72
8
 73
4
 74
0
 42
1e-09
 40
0.0
 40
0.0
 40
0.0
 40
0.0
 40
0.0417142228395554
 40
0.0417142228395554
 40
0.0417142228395554
 40
0.0417142228395554
 10
21.16146732258358
 20
14.68869107305181
 30
0.0
 10
21.11955070736212
 20
14.58817779908213
 30
0.0
 10
21.07793139638898
 20
14.48726090592595
 30
0.0
 10
21.03706731323473
 20
14.38674221057499
 30
0.0
  0
SPLINE
  5
71
330
2F
100
AcDbEntity
  8
hw_VTP
 62
30
100
AcDbSpline
 70
28
 71
2
 72
6
 73
3
 74
0
 42
1e-09
 40
0.4603462460717186
 40
0.4603462460717186
 40
0.4603462460717186
 40
0.4608815204661953
 40
0.4608815204661953
 40
0.4608815204661953
 41
0.9604653293589276
 41
0.9604474122106168
 41
0.9604295068471891
 10
21.03706731323473
 20
14.38674221057499
 30
0.0
 10
21.03877228079591
 20
14.38503724301404
 30
0.0
 10
21.04047619047606
 20
14.38333333333298
 30
0.0
  0
LINE
  5
72
330
2F
100
AcDbEntity
  8
hw_VTP
 62
30
100
AcDbLine
 10
20.68869107305181
 20
15.16146732258494
 30
0.0
 11
21.16146732258358
 21
14.68869107305181
 31
0.0
  0
SPLINE
  5
73
330
2F
100
AcDbEntity
  8
hw_VTP
 62
30
100
AcDbSpline
 70
8
 71
3
 72
8
 73
4
 74
0
 42
1e-09
 40
0.0
 40
0.0
 40
0.0
 40
0.0
 40
0.0417142227914078
 40
0.0417142227914078
 40
0.0417142227914078
 40
0.0417142227914078
 10
20.68869107305181
 20
15.16146732258494
 30
0.0
 10
20.58817779919855
 20
15.11955070741101
 30
0.0
 10
20.48726090597438
 20
15.07793139640785
 30
0.0
 10
20.38674221057499
 20
15.03706731323404
 30
0.0
  0
LINE
  5
74
330
2F
100
AcDbEntity
  8
hw_VTP
 62
30
100
AcDbLine
 10
21.03706731323473
 20
14.38674221057499
 30
0.0
 11
20.38674221057499
 21
15.03706731323404
 31
0.0
  0
SPLINE
  5
75
330
2F
100
AcDbEntity
  8
hw_VTP
 62
30
100
AcDbSpline
 70
12
 71
2
 72
6
 73
3
 74
0
 42
1e-09
 40
0.0
 40
0.0
 40
0.0
 40
0.0419035573382337
 40
0.0419035573382337
 40
0.0419035573382337
 41
1.0
 41
1.00025945066092
 41
1.0
 10
20.38333333333321
 20
15.93635822177498
 30
0.0
 10
20.53246499480292
 20
16.00645823301488
 30
0.0
 10
20.68869107305181
 20
16.07975980643414
 30
0.0
  0
LINE
  5
76
330
2F
100
AcDbEntity
  8
hw_VTP
 62
30
100
AcDbLine
 10
20.38333333333321
 20
15.04047619047583
 30
0.0
 11
20.38333333333321
 21
15.93635822177498
 31
0.0
  0
LINE
  5
77
330
2F
100
AcDbEntity
  8
hw_VTP
 62
30
100
AcDbLine
 10
20.38674221057499
 20
15.03706731323404
 30
0.0
 11
20.38333333333321
 21
15.04047619047583
 31
0.0
  0
LINE
  5
78
330
2F
100
AcDbEntity
  8
hw_VTP
 62
30
100
AcDbLine
 10
20.68869107305181
 20
16.07975980643414
 30
0.0
 11
20.68869107305181
 21
15.16146732258494
 31
0.0
  0
LINE
  5
79
330
2F
100
AcDbEntity
  8
hw_VTP
 62
30
100
AcDbLine
 10
19.61666666666588
 20
15.93635822177498
 30
0.0
 11
19.61666666666588
 21
15.04047619047583
 31
0.0
  0
SPLINE
  5
7A
330
2F
100
AcDbEntity
  8
hw_VTP
 62
30
100
AcDbSpline
 70
12
 71
2
 72
6
 73
3
 74
0
 42
1e-09
 40
0.0
 40
0.0
 40
0.0
 40
0.0419035573382337
 40
0.0419035573382337
 40
0.0419035573382337
 41
1.0
 41
1.000259450670218
 41
1.0
 10
19.31130892694818
 20
16.07975980643414
 30
0.0
 10
19.46753500528211
 20
16.00645823297395
 30
0.0
 10
19.61666666666588
 20
15.93635822177498
 30
0.0
  0
LINE
  5
7B
330
2F
100
AcDbEntity
  8
hw_VTP
 62
30
100
AcDbLine
 10
19.31130892694818
 20
15.16146732258494
 30
0.0
 11
19.31130892694818
 21
16.07975980643414
 31
0.0
  0
SPLINE
  5
7C
330
2F
100
AcDbEntity
  8
hw_VTP
 62
30
100
AcDbSpline
 70
8
 71
3
 72
8
 73
4
 74
0
 42
1e-09
 40
0.0
 40
0.0
 40
0.0
 40
0.0
 40
0.0417142228395345
 40
0.0417142228395345
 40
0.0417142228395345
 40
0.0417142228395345
 10
19.31130892694818
 20
15.16146732258494
 30
0.0
 10
19.41182220091787
 20
15.11955070736303
 30
0.0
 10
19.51273909407428
 20
15.07793139638897
 30
0.0
 10
19.613257789425
 20
15.03706731323496
 30
0.0
  0
SPLINE
  5
7D
330
2F
100
AcDbEntity
  8
hw_VTP
 62
30
100
AcDbSpline
 70
28
 71
2
 72
6
 73
3
 74
0
 42
1e-09
 40
0.4603462460717185
 40
0.4603462460717185
 40
0.4603462460717185
 40
0.460881520466195
 40
0.460881520466195
 40
0.460881520466195
 41
0.960465329358929
 41
0.9604474122106182
 41
0.9604295068471908
 10
19.613257789425
 20
15.03706731323496
 30
0.0
 10
19.61496275698619
 20
15.03877228079591
 30
0.0
 10
19.61666666666588
 20
15.04047619047583
 30
0.0
  0
LINE
  5
7E
330
2F
100
AcDbEntity
  8
hw_VTP
 62
30
100
AcDbLine
 10
18.83853267741506
 20
14.68869107305181
 30
0.0
 11
19.31130892694818
 21
15.16146732258494
 31
0.0
  0
SPLINE
  5
7F
330
2F
100
AcDbEntity
  8
hw_VTP
 62
30
100
AcDbSpline
 70
8
 71
3
 72
8
 73
4
 74
0
 42
1e-09
 40
0.0
 40
0.0
 40
0.0
 40
0.0
 40
0.0417142228119697
 40
0.0417142228119697
 40
0.0417142228119697
 40
0.0417142228119697
 10
18.83853267741506
 20
14.68869107305181
 30
0.0
 10
18.88044929260968
 20
14.58817779914898
 30
0.0
 10
18.92206860360011
 20
14.48726090595278
 30
0.0
 10
18.96293268676527
 20
14.38674221057499
 30
0.0
  0
LINE
  5
80
330
2F
100
AcDbEntity
  8
hw_VTP
 62
30
100
AcDbLine
 10
19.613257789425
 20
15.03706731323496
 30
0.0
 11
18.96293268676527
 21
14.38674221057499
 31
0.0
  0
SPLINE
  5
81
330
2F
100
AcDbEntity
  8
hw_VTP
 62
30
100
AcDbSpline
 70
12
 71
2
 72
6
 73
3
 74
0
 42
1e-09
 40
0.0
 40
0.0
 40
0.0
 40
0.0419035573382336
 40
0.0419035573382336
 40
0.0419035573382336
 41
1.0
 41
1.000259450645444
 41
1.0
 10
18.06364177822525
 20
14.38333333333298
 30
0.0
 10
17.99354176700763
 20
14.53246499475404
 30
0.0
 10
17.92024019356586
 20
14.68869107305181
 30
0.0
  0
LINE
  5
82
330
2F
100
AcDbEntity
  8
hw_VTP
 62
30
100
AcDbLine
 10
18.95952380952258
 20
14.38333333333298
 30
0.0
 11
18.06364177822525
 21
14.38333333333298
 31
0.0
  0
LINE
  5
83
330
2F
100
AcDbEntity
  8
hw_VTP
 62
30
100
AcDbLine
 10
18.96293268676527
 20
14.38674221057499
 30
0.0
 11
18.95952380952258
 21
14.38333333333298
 31
0.0
  0
LINE
  5
84
330
2F
100
AcDbEntity
  8
hw_VTP
 62
30
100
AcDbLine
 10
17.92024019356586
 20
14.68869107305181
 30
0.0
 11
18.83853267741506
 21
14.68869107305181
 31
0.0
  0
ELLIPSE
  5
85
330
2F
100
AcDbEntity
  8
hw_VTP
 62
30
100
AcDbEllipse
 10
21.07808497000679
 20
14.0
 30
0.0
 11
2e-16
 21
-6.356614653237485
 31
0.0
 40
0.4997224534895778
 41
4.603833468331082
 42
4.82094449243829
  0
ELLIPSE
  5
86
330
2F
100
AcDbEntity
  8
hw_VTP
 62
30
100
AcDbEllipse
 10
20.0
 20
12.92191502999185
 30
0.0
 11
-6.356614653237412
 21
-8e-16
 31
0.0
 40
0.4997224534895774
 41
4.603833468331083
 42
4.820944492438291
  0
ELLIPSE
  5
87
330
2F
100
AcDbEntity
  8
hw_VTP
 62
30
100
AcDbEllipse
 10
18.92191502999276
 20
14.0
 30
0.0
 11
-2e-16
 21
6.356614653237412
 31
0.0
 40
0.4997224534895775
 41
4.603833468331085
 42
4.820944492438296
  0
LINE
  5
88
330
2F
100
AcDbEntity
  8
hw_VTP
 62
30
100
AcDbLine
 10
19.07999999999993
 20
14.50380952380988
 30
0.0
 11
19.07999999999993
 21
13.4961904761908
 31
0.0
  0
LINE
  5
89
330
2F
100
AcDbEntity
  8
hw_VTP
 62
30
100
AcDbLine
 10
20.91999999999871
 20
13.4961904761908
 30
0.0
 11
20.91999999999871
 21
14.50380952380988
 31
0.0
  0
LINE
  5
8A
330
2F
100
AcDbEntity
  8
hw_VTP
 62
30
100
AcDbLine
 10
20.50380952380874
 20
14.92000000000007
 30
0.0
 11
19.4961904761908
 21
14.92000000000007
 31
0.0
  0
ELLIPSE
  5
8B
330
2F
100
AcDbEntity
  8
hw_VTP
 62
30
100
AcDbEllipse
 10
20.0
 20
15.07808497000701
 30
0.0
 11
6.356614653237405
 21
-2e-16
 31
0.0
 40
0.4997224534895771
 41
4.603833468331083
 42
4.820944492438291
  0
LINE
  5
8C
330
2F
100
AcDbEntity
  8
hw_VTP
 62
30
100
AcDbLine
 10
19.4961904761908
 20
13.08000000000015
 30
0.0
 11
20.50380952380874
 21
13.08000000000015
 31
0.0
  0
CIRCLE
  5
8D
330
2F
100
AcDbEntity
  8
hw_VTP
 62
30
100
AcDbCircle
 10
20.0
 20
14.0
 30
0.0
 40
3.82502267294815
  0
CIRCLE
  5
8E
330
2F
100
AcDbEntity
  8
hw_VTP
 62
30
100
AcDbCircle
 10
20.0
 20
14.0
 30
0.0
 40
4.0
  0
LINE
  5
8F
330
2F
100
AcDbEntity
  8
hw_VTP
 62
30
100
AcDbLine
 10
48.06364177822389
 20
13.61666666666701
 30
0.0
 11
48.95952380952394
 21
13.61666666666701
 31
0.0
  0
SPLINE
  5
90
330
2F
100
AcDbEntity
  8
hw_VTP
 62
30
100
AcDbSpline
 70
12
 71
2
 72
6
 73
3
 74
0
 42
1e-09
 40
0.0
 40
0.0
 40
0.0
 40
0.0419035573382337
 40
0.0419035573382337
 40
0.0419035573382337
 41
1.0
 41
1.000259450662844
 41
1.0
 10
47.92024019356495
 20
13.31130892694796
 30
0.0
 10
47.99354176699718
 20
13.46753500522095
 30
0.0
 10
48.06364177822389
 20
13.61666666666701
 30
0.0
  0
LINE
  5
91
330
2F
100
AcDbEntity
  8
hw_VTP
 62
30
100
AcDbLine
 10
48.83853267741507
 20
13.31130892694796
 30
0.0
 11
47.92024019356495
 21
13.31130892694796
 31
0.0
  0
SPLINE
  5
92
330
2F
100
AcDbEntity
  8
hw_VTP
 62
30
100
AcDbSpline
 70
8
 71
3
 72
8
 73
4
 74
0
 42
1e-09
 40
0.0
 40
0.0
 40
0.0
 40
0.0
 40
0.0417142228120442
 40
0.0417142228120442
 40
0.0417142228120442
 40
0.0417142228120442
 10
48.83853267741507
 20
13.31130892694796
 30
0.0
 10
48.88044929260877
 20
13.41182220085102
 30
0.0
 10
48.92206860360011
 20
13.51273909404699
 30
0.0
 10
48.96293268676527
 20
13.61325778942478
 30
0.0
  0
SPLINE
  5
93
330
2F
100
AcDbEntity
  8
hw_VTP
 62
30
100
AcDbSpline
 70
28
 71
2
 72
6
 73
3
 74
0
 42
1e-09
 40
0.4603462460716825
 40
0.4603462460716825
 40
0.4603462460716825
 40
0.460881520466195
 40
0.460881520466195
 40
0.460881520466195
 41
0.960465329358932
 41
0.9604474122106202
 41
0.9604295068471911
 10
48.96293268676572
 20
13.61325778942478
 30
0.0
 10
48.96122771920453
 20
13.61496275698596
 30
0.0
 10
48.95952380952394
 20
13.61666666666701
 30
0.0
  0
LINE
  5
94
330
2F
100
AcDbEntity
  8
hw_VTP
 62
30
100
AcDbLine
 10
49.31130892694772
 20
12.83853267741506
 30
0.0
 11
48.83853267741507
 21
13.31130892694796
 31
0.0
  0
SPLINE
  5
95
330
2F
100
AcDbEntity
  8
hw_VTP
 62
30
100
AcDbSpline
 70
8
 71
3
 72
8
 73
4
 74
0
 42
1e-09
 40
0.0
 40
0.0
 40
0.0
 40
0.0
 40
0.041714222811963
 40
0.041714222811963
 40
0.041714222811963
 40
0.041714222811963
 10
49.31130892694772
 20
12.83853267741506
 30
0.0
 10
49.41182220085102
 20
12.880449292609
 30
0.0
 10
49.51273909404608
 20
12.92206860359988
 30
0.0
 10
49.61325778942502
 20
12.96293268676504
 30
0.0
  0
LINE
  5
96
330
2F
100
AcDbEntity
  8
hw_VTP
 62
30
100
AcDbLine
 10
48.96293268676527
 20
13.61325778942478
 30
0.0
 11
49.61325778942502
 21
12.96293268676504
 31
0.0
  0
SPLINE
  5
97
330
2F
100
AcDbEntity
  8
hw_VTP
 62
30
100
AcDbSpline
 70
12
 71
2
 72
6
 73
3
 74
0
 42
1e-09
 40
0.0
 40
0.0
 40
0.0
 40
0.0419035573382335
 40
0.0419035573382335
 40
0.0419035573382335
 41
1.0
 41
1.000259450688112
 41
1.0
 10
49.6166666666668
 20
12.06364177822479
 30
0.0
 10
49.46753500525392
 20
11.99354176701217
 30
0.0
 10
49.31130892694772
 20
11.92024019356608
 30
0.0
  0
LINE
  5
98
330
2F
100
AcDbEntity
  8
hw_VTP
 62
30
100
AcDbLine
 10
49.6166666666668
 20
12.95952380952394
 30
0.0
 11
49.6166666666668
 21
12.06364177822479
 31
0.0
  0
LINE
  5
99
330
2F
100
AcDbEntity
  8
hw_VTP
 62
30
100
AcDbLine
 10
49.61325778942502
 20
12.96293268676504
 30
0.0
 11
49.6166666666668
 21
12.95952380952394
 31
0.0
  0
LINE
  5
9A
330
2F
100
AcDbEntity
  8
hw_VTP
 62
30
100
AcDbLine
 10
49.31130892694772
 20
11.92024019356608
 30
0.0
 11
49.31130892694772
 21
12.83853267741506
 31
0.0
  0
LINE
  5
9B
330
2F
100
AcDbEntity
  8
hw_VTP
 62
30
100
AcDbLine
 10
50.3833333333332
 20
12.06364177822479
 30
0.0
 11
50.3833333333332
 21
12.95952380952394
 31
0.0
  0
SPLINE
  5
9C
330
2F
100
AcDbEntity
  8
hw_VTP
 62
30
100
AcDbSpline
 70
12
 71
2
 72
6
 73
3
 74
0
 42
1e-09
 40
0.0
 40
0.0
 40
0.0
 40
0.0419035573382335
 40
0.0419035573382335
 40
0.0419035573382335
 41
1.0
 41
1.000259450661848
 41
1.0
 10
50.68869107305181
 20
11.92024019356608
 30
0.0
 10
50.53246499475471
 20
11.99354176700717
 30
0.0
 10
50.3833333333332
 20
12.06364177822479
 30
0.0
  0
LINE
  5
9D
330
2F
100
AcDbEntity
  8
hw_VTP
 62
30
100
AcDbLine
 10
50.68869107305181
 20
12.83853267741506
 30
0.0
 11
50.68869107305181
 21
11.92024019356608
 31
0.0
  0
SPLINE
  5
9E
330
2F
100
AcDbEntity
  8
hw_VTP
 62
30
100
AcDbSpline
 70
8
 71
3
 72
8
 73
4
 74
0
 42
1e-09
 40
0.0
 40
0.0
 40
0.0
 40
0.0
 40
0.0417142228118326
 40
0.0417142228118326
 40
0.0417142228118326
 40
0.0417142228118326
 10
50.68869107305181
 20
12.83853267741506
 30
0.0
 10
50.58817779914942
 20
12.880449292609
 30
0.0
 10
50.48726090595301
 20
12.92206860359988
 30
0.0
 10
50.38674221057498
 20
12.96293268676504
 30
0.0
  0
SPLINE
  5
9F
330
2F
100
AcDbEntity
  8
hw_VTP
 62
30
100
AcDbSpline
 70
28
 71
2
 72
6
 73
3
 74
0
 42
1e-09
 40
0.4603462460716818
 40
0.4603462460716818
 40
0.4603462460716818
 40
0.4608815204661953
 40
0.4608815204661953
 40
0.4608815204661953
 41
0.9604653293589295
 41
0.9604474122106175
 41
0.9604295068471888
 10
50.38674221057498
 20
12.9629326867651
 30
0.0
 10
50.38503724301381
 20
12.96122771920386
 30
0.0
 10
50.3833333333332
 20
12.95952380952394
 30
0.0
  0
LINE
  5
A0
330
2F
100
AcDbEntity
  8
hw_VTP
 62
30
100
AcDbLine
 10
51.16146732258493
 20
13.31130892694796
 30
0.0
 11
50.68869107305181
 21
12.83853267741506
 31
0.0
  0
SPLINE
  5
A1
330
2F
100
AcDbEntity
  8
hw_VTP
 62
30
100
AcDbSpline
 70
8
 71
3
 72
8
 73
4
 74
0
 42
1e-09
 40
0.0
 40
0.0
 40
0.0
 40
0.0
 40
0.0417142228120671
 40
0.0417142228120671
 40
0.0417142228120671
 40
0.0417142228120671
 10
51.16146732258493
 20
13.31130892694796
 30
0.0
 10
51.11955070739032
 20
13.41182220085102
 30
0.0
 10
51.07793139639897
 20
13.51273909404699
 30
0.0
 10
51.03706731323383
 20
13.61325778942478
 30
0.0
  0
LINE
  5
A2
330
2F
100
AcDbEntity
  8
hw_VTP
 62
30
100
AcDbLine
 10
50.38674221057498
 20
12.96293268676504
 30
0.0
 11
51.03706731323383
 21
13.61325778942478
 31
0.0
  0
SPLINE
  5
A3
330
2F
100
AcDbEntity
  8
hw_VTP
 62
30
100
AcDbSpline
 70
12
 71
2
 72
6
 73
3
 74
0
 42
1e-09
 40
0.0
 40
0.0
 40
0.0
 40
0.0419035573382337
 40
0.0419035573382337
 40
0.0419035573382337
 41
1.0
 41
1.00025945063424
 41
1.0
 10
51.93635822177384
 20
13.61666666666701
 30
0.0
 10
52.00645823300419
 20
13.4675350052189
 30
0.0
 10
52.07975980643368
 20
13.31130892694796
 30
0.0
  0
LINE
  5
A4
330
2F
100
AcDbEntity
  8
hw_VTP
 62
30
100
AcDbLine
 10
51.04047619047605
 20
13.61666666666701
 30
0.0
 11
51.93635822177384
 21
13.61666666666701
 31
0.0
  0
LINE
  5
A5
330
2F
100
AcDbEntity
  8
hw_VTP
 62
30
100
AcDbLine
 10
51.03706731323383
 20
13.61325778942478
 30
0.0
 11
51.04047619047605
 21
13.61666666666701
 31
0.0
  0
LINE
  5
A6
330
2F
100
AcDbEntity
  8
hw_VTP
 62
30
100
AcDbLine
 10
52.07975980643368
 20
13.31130892694796
 30
0.0
 11
51.16146732258493
 21
13.31130892694796
 31
0.0
  0
LINE
  5
A7
330
2F
100
AcDbEntity
  8
hw_VTP
 62
30
100
AcDbLine
 10
51.93635822177384
 20
14.38333333333298
 30
0.0
 11
51.04047619047605
 21
14.38333333333298
 31
0.0
  0
SPLINE
  5
A8
330
2F
100
AcDbEntity
  8
hw_VTP
 62
30
100
AcDbSpline
 70
12
 71
2
 72
6
 73
3
 74
0
 42
1e-09
 40
0.0
 40
0.0
 40
0.0
 40
0.0419035573382336
 40
0.0419035573382336
 40
0.0419035573382336
 41
1.0
 41
1.000259450640569
 41
1.0
 10
52.07975980643368
 20
14.68869107305181
 30
0.0
 10
52.00645823300646
 20
14.53246499478496
 30
0.0
 10
51.93635822177384
 20
14.38333333333298
 30
0.0
  0
LINE
  5
A9
330
2F
100
AcDbEntity
  8
hw_VTP
 62
30
100
AcDbLine
 10
51.16146732258493
 20
14.68869107305181
 30
0.0
 11
52.07975980643368
 21
14.68869107305181
 31
0.0
  0
SPLINE
  5
AA
330
2F
100
AcDbEntity
  8
hw_VTP
 62
30
100
AcDbSpline
 70
8
 71
3
 72
8
 73
4
 74
0
 42
1e-09
 40
0.0
 40
0.0
 40
0.0
 40
0.0
 40
0.0417142228395554
 40
0.0417142228395554
 40
0.0417142228395554
 40
0.0417142228395554
 10
51.16146732258493
 20
14.68869107305181
 30
0.0
 10
51.11955070736256
 20
14.58817779908213
 30
0.0
 10
51.07793139638896
 20
14.48726090592595
 30
0.0
 10
51.03706731323383
 20
14.38674221057499
 30
0.0
  0
SPLINE
  5
AB
330
2F
100
AcDbEntity
  8
hw_VTP
 62
30
100
AcDbSpline
 70
28
 71
2
 72
6
 73
3
 74
0
 42
1e-09
 40
0.4603462460717186
 40
0.4603462460717186
 40
0.4603462460717186
 40
0.4608815204661953
 40
0.4608815204661953
 40
0.4608815204661953
 41
0.9604653293589276
 41
0.9604474122106168
 41
0.9604295068471891
 10
51.03706731323383
 20
14.38674221057499
 30
0.0
 10
51.03877228079453
 20
14.38503724301404
 30
0.0
 10
51.04047619047606
 20
14.38333333333298
 30
0.0
  0
LINE
  5
AC
330
2F
100
AcDbEntity
  8
hw_VTP
 62
30
100
AcDbLine
 10
50.68869107305181
 20
15.16146732258494
 30
0.0
 11
51.16146732258493
 21
14.68869107305181
 31
0.0
  0
SPLINE
  5
AD
330
2F
100
AcDbEntity
  8
hw_VTP
 62
30
100
AcDbSpline
 70
8
 71
3
 72
8
 73
4
 74
0
 42
1e-09
 40
0.0
 40
0.0
 40
0.0
 40
0.0
 40
0.0417142227914078
 40
0.0417142227914078
 40
0.0417142227914078
 40
0.0417142227914078
 10
50.68869107305181
 20
15.16146732258494
 30
0.0
 10
50.58817779919763
 20
15.11955070741101
 30
0.0
 10
50.48726090597438
 20
15.07793139640785
 30
0.0
 10
50.38674221057636
 20
15.03706731323404
 30
0.0
  0
LINE
  5
AE
330
2F
100
AcDbEntity
  8
hw_VTP
 62
30
100
AcDbLine
 10
51.03706731323383
 20
14.38674221057499
 30
0.0
 11
50.38674221057636
 21
15.03706731323404
 31
0.0
  0
SPLINE
  5
AF
330
2F
100
AcDbEntity
  8
hw_VTP
 62
30
100
AcDbSpline
 70
12
 71
2
 72
6
 73
3
 74
0
 42
1e-09
 40
0.0
 40
0.0
 40
0.0
 40
0.0419035573382337
 40
0.0419035573382337
 40
0.0419035573382337
 41
1.0
 41
1.00025945066092
 41
1.0
 10
50.3833333333332
 20
15.93635822177498
 30
0.0
 10
50.53246499480292
 20
16.00645823301488
 30
0.0
 10
50.68869107305181
 20
16.07975980643414
 30
0.0
  0
LINE
  5
B0
330
2F
100
AcDbEntity
  8
hw_VTP
 62
30
100
AcDbLine
 10
50.3833333333332
 20
15.04047619047583
 30
0.0
 11
50.3833333333332
 21
15.93635822177498
 31
0.0
  0
LINE
  5
B1
330
2F
100
AcDbEntity
  8
hw_VTP
 62
30
100
AcDbLine
 10
50.38674221057498
 20
15.03706731323404
 30
0.0
 11
50.3833333333332
 21
15.04047619047583
 31
0.0
  0
LINE
  5
B2
330
2F
100
AcDbEntity
  8
hw_VTP
 62
30
100
AcDbLine
 10
50.68869107305181
 20
16.07975980643414
 30
0.0
 11
50.68869107305181
 21
15.16146732258494
 31
0.0
  0
LINE
  5
B3
330
2F
100
AcDbEntity
  8
hw_VTP
 62
30
100
AcDbLine
 10
49.6166666666668
 20
15.93635822177498
 30
0.0
 11
49.6166666666668
 21
15.04047619047583
 31
0.0
  0
SPLINE
  5
B4
330
2F
100
AcDbEntity
  8
hw_VTP
 62
30
100
AcDbSpline
 70
12
 71
2
 72
6
 73
3
 74
0
 42
1e-09
 40
0.0
 40
0.0
 40
0.0
 40
0.0419035573382337
 40
0.0419035573382337
 40
0.0419035573382337
 41
1.0
 41
1.000259450670218
 41
1.0
 10
49.31130892694772
 20
16.07975980643414
 30
0.0
 10
49.46753500528211
 20
16.00645823297395
 30
0.0
 10
49.6166666666668
 20
15.93635822177498
 30
0.0
  0
LINE
  5
B5
330
2F
100
AcDbEntity
  8
hw_VTP
 62
30
100
AcDbLine
 10
49.31130892694772
 20
15.16146732258494
 30
0.0
 11
49.31130892694772
 21
16.07975980643414
 31
0.0
  0
SPLINE
  5
B6
330
2F
100
AcDbEntity
  8
hw_VTP
 62
30
100
AcDbSpline
 70
8
 71
3
 72
8
 73
4
 74
0
 42
1e-09
 40
0.0
 40
0.0
 40
0.0
 40
0.0
 40
0.0417142228395345
 40
0.0417142228395345
 40
0.0417142228395345
 40
0.0417142228395345
 10
49.31130892694772
 20
15.16146732258494
 30
0.0
 10
49.41182220091696
 20
15.11955070736303
 30
0.0
 10
49.51273909407428
 20
15.07793139638897
 30
0.0
 10
49.61325778942502
 20
15.03706731323496
 30
0.0
  0
SPLINE
  5
B7
330
2F
100
AcDbEntity
  8
hw_VTP
 62
30
100
AcDbSpline
 70
28
 71
2
 72
6
 73
3
 74
0
 42
1e-09
 40
0.4603462460717185
 40
0.4603462460717185
 40
0.4603462460717185
 40
0.460881520466195
 40
0.460881520466195
 40
0.460881520466195
 41
0.960465329358929
 41
0.9604474122106182
 41
0.9604295068471908
 10
49.61325778942502
 20
15.03706731323496
 30
0.0
 10
49.61496275698618
 20
15.03877228079591
 30
0.0
 10
49.6166666666668
 20
15.04047619047583
 30
0.0
  0
LINE
  5
B8
330
2F
100
AcDbEntity
  8
hw_VTP
 62
30
100
AcDbLine
 10
48.83853267741507
 20
14.68869107305181
 30
0.0
 11
49.31130892694772
 21
15.16146732258494
 31
0.0
  0
SPLINE
  5
B9
330
2F
100
AcDbEntity
  8
hw_VTP
 62
30
100
AcDbSpline
 70
8
 71
3
 72
8
 73
4
 74
0
 42
1e-09
 40
0.0
 40
0.0
 40
0.0
 40
0.0
 40
0.0417142228119697
 40
0.0417142228119697
 40
0.0417142228119697
 40
0.0417142228119697
 10
48.83853267741507
 20
14.68869107305181
 30
0.0
 10
48.88044929260877
 20
14.58817779914898
 30
0.0
 10
48.92206860360011
 20
14.48726090595278
 30
0.0
 10
48.96293268676527
 20
14.38674221057499
 30
0.0
  0
LINE
  5
BA
330
2F
100
AcDbEntity
  8
hw_VTP
 62
30
100
AcDbLine
 10
49.61325778942502
 20
15.03706731323496
 30
0.0
 11
48.96293268676527
 21
14.38674221057499
 31
0.0
  0
SPLINE
  5
BB
330
2F
100
AcDbEntity
  8
hw_VTP
 62
30
100
AcDbSpline
 70
12
 71
2
 72
6
 73
3
 74
0
 42
1e-09
 40
0.0
 40
0.0
 40
0.0
 40
0.0419035573382336
 40
0.0419035573382336
 40
0.0419035573382336
 41
1.0
 41
1.000259450645444
 41
1.0
 10
48.06364177822389
 20
14.38333333333298
 30
0.0
 10
47.99354176700762
 20
14.53246499475404
 30
0.0
 10
47.92024019356495
 20
14.68869107305181
 30
0.0
  0
LINE
  5
BC
330
2F
100
AcDbEntity
  8
hw_VTP
 62
30
100
AcDbLine
 10
48.95952380952394
 20
14.38333333333298
 30
0.0
 11
48.06364177822389
 21
14.38333333333298
 31
0.0
  0
LINE
  5
BD
330
2F
100
AcDbEntity
  8
hw_VTP
 62
30
100
AcDbLine
 10
48.96293268676527
 20
14.38674221057499
 30
0.0
 11
48.95952380952394
 21
14.38333333333298
 31
0.0
  0
LINE
  5
BE
330
2F
100
AcDbEntity
  8
hw_VTP
 62
30
100
AcDbLine
 10
47.92024019356495
 20
14.68869107305181
 30
0.0
 11
48.83853267741507
 21
14.68869107305181
 31
0.0
  0
ELLIPSE
  5
BF
330
2F
100
AcDbEntity
  8
hw_VTP
 62
30
100
AcDbEllipse
 10
51.07808497000679
 20
14.0
 30
0.0
 11
2e-16
 21
-6.356614653237485
 31
0.0
 40
0.4997224534895778
 41
4.603833468331082
 42
4.82094449243829
  0
ELLIPSE
  5
C0
330
2F
100
AcDbEntity
  8
hw_VTP
 62
30
100
AcDbEllipse
 10
50.0
 20
12.92191502999185
 30
0.0
 11
-6.356614653237412
 21
-8e-16
 31
0.0
 40
0.4997224534895774
 41
4.603833468331083
 42
4.820944492438291
  0
ELLIPSE
  5
C1
330
2F
100
AcDbEntity
  8
hw_VTP
 62
30
100
AcDbEllipse
 10
48.92191502999232
 20
14.0
 30
0.0
 11
-2e-16
 21
6.356614653237412
 31
0.0
 40
0.4997224534895775
 41
4.603833468331085
 42
4.820944492438296
  0
LINE
  5
C2
330
2F
100
AcDbEntity
  8
hw_VTP
 62
30
100
AcDbLine
 10
49.07999999999994
 20
14.50380952380988
 30
0.0
 11
49.07999999999994
 21
13.4961904761908
 31
0.0
  0
LINE
  5
C3
330
2F
100
AcDbEntity
  8
hw_VTP
 62
30
100
AcDbLine
 10
50.92000000000006
 20
13.4961904761908
 30
0.0
 11
50.92000000000006
 21
14.50380952380988
 31
0.0
  0
LINE
  5
C4
330
2F
100
AcDbEntity
  8
hw_VTP
 62
30
100
AcDbLine
 10
50.50380952380875
 20
14.92000000000007
 30
0.0
 11
49.49619047619035
 21
14.92000000000007
 31
0.0
  0
ELLIPSE
  5
C5
330
2F
100
AcDbEntity
  8
hw_VTP
 62
30
100
AcDbEllipse
 10
50.0
 20
15.07808497000701
 30
0.0
 11
6.356614653237405
 21
-2e-16
 31
0.0
 40
0.4997224534895771
 41
4.603833468331083
 42
4.820944492438291
  0
LINE
  5
C6
330
2F
100
AcDbEntity
  8
hw_VTP
 62
30
100
AcDbLine
 10
49.49619047619035
 20
13.08000000000015
 30
0.0
 11
50.50380952380875
 21
13.08000000000015
 31
0.0
  0
CIRCLE
  5
C7
330
2F
100
AcDbEntity
  8
hw_VTP
 62
30
100
AcDbCircle
 10
50.0
 20
14.0
 30
0.0
 40
3.82502267294815
  0
CIRCLE
  5
C8
330
2F
100
AcDbEntity
  8
hw_VTP
 62
30
100
AcDbCircle
 10
50.0
 20
14.0
 30
0.0
 40
4.0
  0
LINE
  5
C9
330
2F
100
AcDbEntity
  8
hw_VTP
 62
30
100
AcDbLine
 10
38.06364177822525
 20
13.61666666666701
 30
0.0
 11
38.95952380952394
 21
13.61666666666701
 31
0.0
  0
SPLINE
  5
CA
330
2F
100
AcDbEntity
  8
hw_VTP
 62
30
100
AcDbSpline
 70
12
 71
2
 72
6
 73
3
 74
0
 42
1e-09
 40
0.0
 40
0.0
 40
0.0
 40
0.0419035573382337
 40
0.0419035573382337
 40
0.0419035573382337
 41
1.0
 41
1.000259450662844
 41
1.0
 10
37.92024019356586
 20
13.31130892694796
 30
0.0
 10
37.9935417669958
 20
13.46753500522095
 30
0.0
 10
38.06364177822525
 20
13.61666666666701
 30
0.0
  0
LINE
  5
CB
330
2F
100
AcDbEntity
  8
hw_VTP
 62
30
100
AcDbLine
 10
38.83853267741506
 20
13.31130892694796
 30
0.0
 11
37.92024019356586
 21
13.31130892694796
 31
0.0
  0
SPLINE
  5
CC
330
2F
100
AcDbEntity
  8
hw_VTP
 62
30
100
AcDbSpline
 70
8
 71
3
 72
8
 73
4
 74
0
 42
1e-09
 40
0.0
 40
0.0
 40
0.0
 40
0.0
 40
0.0417142228120442
 40
0.0417142228120442
 40
0.0417142228120442
 40
0.0417142228120442
 10
38.83853267741506
 20
13.31130892694796
 30
0.0
 10
38.88044929260877
 20
13.41182220085102
 30
0.0
 10
38.92206860360011
 20
13.51273909404699
 30
0.0
 10
38.96293268676528
 20
13.61325778942478
 30
0.0
  0
SPLINE
  5
CD
330
2F
100
AcDbEntity
  8
hw_VTP
 62
30
100
AcDbSpline
 70
28
 71
2
 72
6
 73
3
 74
0
 42
1e-09
 40
0.4603462460716825
 40
0.4603462460716825
 40
0.4603462460716825
 40
0.460881520466195
 40
0.460881520466195
 40
0.460881520466195
 41
0.960465329358932
 41
0.9604474122106202
 41
0.9604295068471911
 10
38.96293268676482
 20
13.61325778942478
 30
0.0
 10
38.96122771920409
 20
13.61496275698596
 30
0.0
 10
38.95952380952394
 20
13.61666666666701
 30
0.0
  0
LINE
  5
CE
330
2F
100
AcDbEntity
  8
hw_VTP
 62
30
100
AcDbLine
 10
39.31130892694773
 20
12.83853267741506
 30
0.0
 11
38.83853267741506
 21
13.31130892694796
 31
0.0
  0
SPLINE
  5
CF
330
2F
100
AcDbEntity
  8
hw_VTP
 62
30
100
AcDbSpline
 70
8
 71
3
 72
8
 73
4
 74
0
 42
1e-09
 40
0.0
 40
0.0
 40
0.0
 40
0.0
 40
0.041714222811963
 40
0.041714222811963
 40
0.041714222811963
 40
0.041714222811963
 10
39.31130892694773
 20
12.83853267741506
 30
0.0
 10
39.41182220085103
 20
12.880449292609
 30
0.0
 10
39.51273909404654
 20
12.92206860359988
 30
0.0
 10
39.61325778942501
 20
12.96293268676504
 30
0.0
  0
LINE
  5
D0
330
2F
100
AcDbEntity
  8
hw_VTP
 62
30
100
AcDbLine
 10
38.96293268676528
 20
13.61325778942478
 30
0.0
 11
39.61325778942501
 21
12.96293268676504
 31
0.0
  0
SPLINE
  5
D1
330
2F
100
AcDbEntity
  8
hw_VTP
 62
30
100
AcDbSpline
 70
12
 71
2
 72
6
 73
3
 74
0
 42
1e-09
 40
0.0
 40
0.0
 40
0.0
 40
0.0419035573382335
 40
0.0419035573382335
 40
0.0419035573382335
 41
1.0
 41
1.000259450688112
 41
1.0
 10
39.61666666666589
 20
12.06364177822479
 30
0.0
 10
39.46753500525392
 20
11.99354176701217
 30
0.0
 10
39.31130892694773
 20
11.92024019356608
 30
0.0
  0
LINE
  5
D2
330
2F
100
AcDbEntity
  8
hw_VTP
 62
30
100
AcDbLine
 10
39.61666666666589
 20
12.95952380952394
 30
0.0
 11
39.61666666666589
 21
12.06364177822479
 31
0.0
  0
LINE
  5
D3
330
2F
100
AcDbEntity
  8
hw_VTP
 62
30
100
AcDbLine
 10
39.61325778942501
 20
12.96293268676504
 30
0.0
 11
39.61666666666589
 21
12.95952380952394
 31
0.0
  0
LINE
  5
D4
330
2F
100
AcDbEntity
  8
hw_VTP
 62
30
100
AcDbLine
 10
39.31130892694773
 20
11.92024019356608
 30
0.0
 11
39.31130892694773
 21
12.83853267741506
 31
0.0
  0
LINE
  5
D5
330
2F
100
AcDbEntity
  8
hw_VTP
 62
30
100
AcDbLine
 10
40.38333333333321
 20
12.06364177822479
 30
0.0
 11
40.38333333333321
 21
12.95952380952394
 31
0.0
  0
SPLINE
  5
D6
330
2F
100
AcDbEntity
  8
hw_VTP
 62
30
100
AcDbSpline
 70
12
 71
2
 72
6
 73
3
 74
0
 42
1e-09
 40
0.0
 40
0.0
 40
0.0
 40
0.0419035573382335
 40
0.0419035573382335
 40
0.0419035573382335
 41
1.0
 41
1.000259450661848
 41
1.0
 10
40.68869107305181
 20
11.92024019356608
 30
0.0
 10
40.53246499475472
 20
11.99354176700717
 30
0.0
 10
40.38333333333321
 20
12.06364177822479
 30
0.0
  0
LINE
  5
D7
330
2F
100
AcDbEntity
  8
hw_VTP
 62
30
100
AcDbLine
 10
40.68869107305181
 20
12.83853267741506
 30
0.0
 11
40.68869107305181
 21
11.92024019356608
 31
0.0
  0
SPLINE
  5
D8
330
2F
100
AcDbEntity
  8
hw_VTP
 62
30
100
AcDbSpline
 70
8
 71
3
 72
8
 73
4
 74
0
 42
1e-09
 40
0.0
 40
0.0
 40
0.0
 40
0.0
 40
0.0417142228118326
 40
0.0417142228118326
 40
0.0417142228118326
 40
0.0417142228118326
 10
40.68869107305181
 20
12.83853267741506
 30
0.0
 10
40.58817779914942
 20
12.880449292609
 30
0.0
 10
40.48726090595301
 20
12.92206860359988
 30
0.0
 10
40.38674221057499
 20
12.96293268676504
 30
0.0
  0
SPLINE
  5
D9
330
2F
100
AcDbEntity
  8
hw_VTP
 62
30
100
AcDbSpline
 70
28
 71
2
 72
6
 73
3
 74
0
 42
1e-09
 40
0.4603462460716818
 40
0.4603462460716818
 40
0.4603462460716818
 40
0.4608815204661953
 40
0.4608815204661953
 40
0.4608815204661953
 41
0.9604653293589295
 41
0.9604474122106175
 41
0.9604295068471888
 10
40.38674221057499
 20
12.9629326867651
 30
0.0
 10
40.38503724301381
 20
12.96122771920386
 30
0.0
 10
40.38333333333183
 20
12.95952380952394
 30
0.0
  0
LINE
  5
DA
330
2F
100
AcDbEntity
  8
hw_VTP
 62
30
100
AcDbLine
 10
41.16146732258494
 20
13.31130892694796
 30
0.0
 11
40.68869107305181
 21
12.83853267741506
 31
0.0
  0
SPLINE
  5
DB
330
2F
100
AcDbEntity
  8
hw_VTP
 62
30
100
AcDbSpline
 70
8
 71
3
 72
8
 73
4
 74
0
 42
1e-09
 40
0.0
 40
0.0
 40
0.0
 40
0.0
 40
0.0417142228120671
 40
0.0417142228120671
 40
0.0417142228120671
 40
0.0417142228120671
 10
41.16146732258494
 20
13.31130892694796
 30
0.0
 10
41.11955070739031
 20
13.41182220085102
 30
0.0
 10
41.07793139640034
 20
13.51273909404699
 30
0.0
 10
41.03706731323382
 20
13.61325778942478
 30
0.0
  0
LINE
  5
DC
330
2F
100
AcDbEntity
  8
hw_VTP
 62
30
100
AcDbLine
 10
40.38674221057499
 20
12.96293268676504
 30
0.0
 11
41.03706731323472
 21
13.61325778942478
 31
0.0
  0
SPLINE
  5
DD
330
2F
100
AcDbEntity
  8
hw_VTP
 62
30
100
AcDbSpline
 70
12
 71
2
 72
6
 73
3
 74
0
 42
1e-09
 40
0.0
 40
0.0
 40
0.0
 40
0.0419035573382337
 40
0.0419035573382337
 40
0.0419035573382337
 41
1.0
 41
1.00025945063424
 41
1.0
 10
41.93635822177474
 20
13.61666666666701
 30
0.0
 10
42.00645823300418
 20
13.4675350052189
 30
0.0
 10
42.07975980643367
 20
13.31130892694796
 30
0.0
  0
LINE
  5
DE
330
2F
100
AcDbEntity
  8
hw_VTP
 62
30
100
AcDbLine
 10
41.04047619047604
 20
13.61666666666701
 30
0.0
 11
41.93635822177474
 21
13.61666666666701
 31
0.0
  0
LINE
  5
DF
330
2F
100
AcDbEntity
  8
hw_VTP
 62
30
100
AcDbLine
 10
41.03706731323382
 20
13.61325778942478
 30
0.0
 11
41.04047619047604
 21
13.61666666666701
 31
0.0
  0
LINE
  5
E0
330
2F
100
AcDbEntity
  8
hw_VTP
 62
30
100
AcDbLine
 10
42.07975980643367
 20
13.31130892694796
 30
0.0
 11
41.16146732258494
 21
13.31130892694796
 31
0.0
  0
LINE
  5
E1
330
2F
100
AcDbEntity
  8
hw_VTP
 62
30
100
AcDbLine
 10
41.93635822177474
 20
14.38333333333298
 30
0.0
 11
41.04047619047604
 21
14.38333333333298
 31
0.0
  0
SPLINE
  5
E2
330
2F
100
AcDbEntity
  8
hw_VTP
 62
30
100
AcDbSpline
 70
12
 71
2
 72
6
 73
3
 74
0
 42
1e-09
 40
0.0
 40
0.0
 40
0.0
 40
0.0419035573382336
 40
0.0419035573382336
 40
0.0419035573382336
 41
1.0
 41
1.000259450640569
 41
1.0
 10
42.07975980643367
 20
14.68869107305181
 30
0.0
 10
42.006458233006
 20
14.53246499478496
 30
0.0
 10
41.93635822177474
 20
14.38333333333298
 30
0.0
  0
LINE
  5
E3
330
2F
100
AcDbEntity
  8
hw_VTP
 62
30
100
AcDbLine
 10
41.16146732258494
 20
14.68869107305181
 30
0.0
 11
42.07975980643367
 21
14.68869107305181
 31
0.0
  0
SPLINE
  5
E4
330
2F
100
AcDbEntity
  8
hw_VTP
 62
30
100
AcDbSpline
 70
8
 71
3
 72
8
 73
4
 74
0
 42
1e-09
 40
0.0
 40
0.0
 40
0.0
 40
0.0
 40
0.0417142228395554
 40
0.0417142228395554
 40
0.0417142228395554
 40
0.0417142228395554
 10
41.16146732258494
 20
14.68869107305181
 30
0.0
 10
41.11955070736256
 20
14.58817779908213
 30
0.0
 10
41.07793139638896
 20
14.48726090592595
 30
0.0
 10
41.03706731323472
 20
14.38674221057499
 30
0.0
  0
SPLINE
  5
E5
330
2F
100
AcDbEntity
  8
hw_VTP
 62
30
100
AcDbSpline
 70
28
 71
2
 72
6
 73
3
 74
0
 42
1e-09
 40
0.4603462460717186
 40
0.4603462460717186
 40
0.4603462460717186
 40
0.4608815204661953
 40
0.4608815204661953
 40
0.4608815204661953
 41
0.9604653293589276
 41
0.9604474122106168
 41
0.9604295068471891
 10
41.03706731323472
 20
14.38674221057499
 30
0.0
 10
41.03877228079453
 20
14.38503724301404
 30
0.0
 10
41.04047619047605
 20
14.38333333333298
 30
0.0
  0
LINE
  5
E6
330
2F
100
AcDbEntity
  8
hw_VTP
 62
30
100
AcDbLine
 10
40.68869107305181
 20
15.16146732258494
 30
0.0
 11
41.16146732258494
 21
14.68869107305181
 31
0.0
  0
SPLINE
  5
E7
330
2F
100
AcDbEntity
  8
hw_VTP
 62
30
100
AcDbSpline
 70
8
 71
3
 72
8
 73
4
 74
0
 42
1e-09
 40
0.0
 40
0.0
 40
0.0
 40
0.0
 40
0.0417142227914078
 40
0.0417142227914078
 40
0.0417142227914078
 40
0.0417142227914078
 10
40.68869107305181
 20
15.16146732258494
 30
0.0
 10
40.58817779919855
 20
15.11955070741101
 30
0.0
 10
40.48726090597438
 20
15.07793139640785
 30
0.0
 10
40.38674221057499
 20
15.03706731323404
 30
0.0
  0
LINE
  5
E8
330
2F
100
AcDbEntity
  8
hw_VTP
 62
30
100
AcDbLine
 10
41.03706731323472
 20
14.38674221057499
 30
0.0
 11
40.38674221057499
 21
15.03706731323404
 31
0.0
  0
SPLINE
  5
E9
330
2F
100
AcDbEntity
  8
hw_VTP
 62
30
100
AcDbSpline
 70
12
 71
2
 72
6
 73
3
 74
0
 42
1e-09
 40
0.0
 40
0.0
 40
0.0
 40
0.0419035573382337
 40
0.0419035573382337
 40
0.0419035573382337
 41
1.0
 41
1.00025945066092
 41
1.0
 10
40.38333333333321
 20
15.93635822177498
 30
0.0
 10
40.53246499480292
 20
16.00645823301488
 30
0.0
 10
40.68869107305181
 20
16.07975980643414
 30
0.0
  0
LINE
  5
EA
330
2F
100
AcDbEntity
  8
hw_VTP
 62
30
100
AcDbLine
 10
40.38333333333321
 20
15.04047619047583
 30
0.0
 11
40.38333333333321
 21
15.93635822177498
 31
0.0
  0
LINE
  5
EB
330
2F
100
AcDbEntity
  8
hw_VTP
 62
30
100
AcDbLine
 10
40.38674221057499
 20
15.03706731323404
 30
0.0
 11
40.38333333333321
 21
15.04047619047583
 31
0.0
  0
LINE
  5
EC
330
2F
100
AcDbEntity
  8
hw_VTP
 62
30
100
AcDbLine
 10
40.68869107305181
 20
16.07975980643414
 30
0.0
 11
40.68869107305181
 21
15.16146732258494
 31
0.0
  0
LINE
  5
ED
330
2F
100
AcDbEntity
  8
hw_VTP
 62
30
100
AcDbLine
 10
39.61666666666589
 20
15.93635822177498
 30
0.0
 11
39.61666666666589
 21
15.04047619047583
 31
0.0
  0
SPLINE
  5
EE
330
2F
100
AcDbEntity
  8
hw_VTP
 62
30
100
AcDbSpline
 70
12
 71
2
 72
6
 73
3
 74
0
 42
1e-09
 40
0.0
 40
0.0
 40
0.0
 40
0.0419035573382337
 40
0.0419035573382337
 40
0.0419035573382337
 41
1.0
 41
1.000259450670218
 41
1.0
 10
39.31130892694773
 20
16.07975980643414
 30
0.0
 10
39.46753500528212
 20
16.00645823297395
 30
0.0
 10
39.61666666666589
 20
15.93635822177498
 30
0.0
  0
LINE
  5
EF
330
2F
100
AcDbEntity
  8
hw_VTP
 62
30
100
AcDbLine
 10
39.31130892694773
 20
15.16146732258494
 30
0.0
 11
39.31130892694773
 21
16.07975980643414
 31
0.0
  0
SPLINE
  5
F0
330
2F
100
AcDbEntity
  8
hw_VTP
 62
30
100
AcDbSpline
 70
8
 71
3
 72
8
 73
4
 74
0
 42
1e-09
 40
0.0
 40
0.0
 40
0.0
 40
0.0
 40
0.0417142228395345
 40
0.0417142228395345
 40
0.0417142228395345
 40
0.0417142228395345
 10
39.31130892694773
 20
15.16146732258494
 30
0.0
 10
39.41182220091697
 20
15.11955070736303
 30
0.0
 10
39.51273909407428
 20
15.07793139638897
 30
0.0
 10
39.61325778942501
 20
15.03706731323496
 30
0.0
  0
SPLINE
  5
F1
330
2F
100
AcDbEntity
  8
hw_VTP
 62
30
100
AcDbSpline
 70
28
 71
2
 72
6
 73
3
 74
0
 42
1e-09
 40
0.4603462460717185
 40
0.4603462460717185
 40
0.4603462460717185
 40
0.460881520466195
 40
0.460881520466195
 40
0.460881520466195
 41
0.960465329358929
 41
0.9604474122106182
 41
0.9604295068471908
 10
39.61325778942501
 20
15.03706731323496
 30
0.0
 10
39.61496275698619
 20
15.03877228079591
 30
0.0
 10
39.61666666666589
 20
15.04047619047583
 30
0.0
  0
LINE
  5
F2
330
2F
100
AcDbEntity
  8
hw_VTP
 62
30
100
AcDbLine
 10
38.83853267741506
 20
14.68869107305181
 30
0.0
 11
39.31130892694773
 21
15.16146732258494
 31
0.0
  0
SPLINE
  5
F3
330
2F
100
AcDbEntity
  8
hw_VTP
 62
30
100
AcDbSpline
 70
8
 71
3
 72
8
 73
4
 74
0
 42
1e-09
 40
0.0
 40
0.0
 40
0.0
 40
0.0
 40
0.0417142228119697
 40
0.0417142228119697
 40
0.0417142228119697
 40
0.0417142228119697
 10
38.83853267741506
 20
14.68869107305181
 30
0.0
 10
38.88044929260877
 20
14.58817779914898
 30
0.0
 10
38.92206860360011
 20
14.48726090595278
 30
0.0
 10
38.96293268676528
 20
14.38674221057499
 30
0.0
  0
LINE
  5
F4
330
2F
100
AcDbEntity
  8
hw_VTP
 62
30
100
AcDbLine
 10
39.61325778942501
 20
15.03706731323496
 30
0.0
 11
38.96293268676528
 21
14.38674221057499
 31
0.0
  0
SPLINE
  5
F5
330
2F
100
AcDbEntity
  8
hw_VTP
 62
30
100
AcDbSpline
 70
12
 71
2
 72
6
 73
3
 74
0
 42
1e-09
 40
0.0
 40
0.0
 40
0.0
 40
0.0419035573382336
 40
0.0419035573382336
 40
0.0419035573382336
 41
1.0
 41
1.000259450645444
 41
1.0
 10
38.06364177822525
 20
14.38333333333298
 30
0.0
 10
37.99354176700672
 20
14.53246499475404
 30
0.0
 10
37.92024019356586
 20
14.68869107305181
 30
0.0
  0
LINE
  5
F6
330
2F
100
AcDbEntity
  8
hw_VTP
 62
30
100
AcDbLine
 10
38.95952380952394
 20
14.38333333333298
 30
0.0
 11
38.06364177822525
 21
14.38333333333298
 31
0.0
  0
LINE
  5
F7
330
2F
100
AcDbEntity
  8
hw_VTP
 62
30
100
AcDbLine
 10
38.96293268676528
 20
14.38674221057499
 30
0.0
 11
38.95952380952394
 21
14.38333333333298
 31
0.0
  0
LINE
  5
F8
330
2F
100
AcDbEntity
  8
hw_VTP
 62
30
100
AcDbLine
 10
37.92024019356586
 20
14.68869107305181
 30
0.0
 11
38.83853267741506
 21
14.68869107305181
 31
0.0
  0
ELLIPSE
  5
F9
330
2F
100
AcDbEntity
  8
hw_VTP
 62
30
100
AcDbEllipse
 10
41.07808497000678
 20
14.0
 30
0.0
 11
2e-16
 21
-6.356614653237485
 31
0.0
 40
0.4997224534895778
 41
4.603833468331082
 42
4.82094449243829
  0
ELLIPSE
  5
FA
330
2F
100
AcDbEntity
  8
hw_VTP
 62
30
100
AcDbEllipse
 10
40.0
 20
12.92191502999185
 30
0.0
 11
-6.356614653237412
 21
-8e-16
 31
0.0
 40
0.4997224534895774
 41
4.603833468331083
 42
4.820944492438291
  0
ELLIPSE
  5
FB
330
2F
100
AcDbEntity
  8
hw_VTP
 62
30
100
AcDbEllipse
 10
38.92191502999232
 20
14.0
 30
0.0
 11
-2e-16
 21
6.356614653237412
 31
0.0
 40
0.4997224534895775
 41
4.603833468331085
 42
4.820944492438296
  0
LINE
  5
FC
330
2F
100
AcDbEntity
  8
hw_VTP
 62
30
100
AcDbLine
 10
39.07999999999993
 20
14.50380952380988
 30
0.0
 11
39.07999999999993
 21
13.4961904761908
 31
0.0
  0
LINE
  5
FD
330
2F
100
AcDbEntity
  8
hw_VTP
 62
30
100
AcDbLine
 10
40.92000000000007
 20
13.4961904761908
 30
0.0
 11
40.92000000000007
 21
14.50380952380988
 31
0.0
  0
LINE
  5
FE
330
2F
100
AcDbEntity
  8
hw_VTP
 62
30
100
AcDbLine
 10
40.50380952380964
 20
14.92000000000007
 30
0.0
 11
39.49619047619035
 21
14.92000000000007
 31
0.0
  0
ELLIPSE
  5
FF
330
2F
100
AcDbEntity
  8
hw_VTP
 62
30
100
AcDbEllipse
 10
40.0
 20
15.07808497000701
 30
0.0
 11
6.356614653237405
 21
-2e-16
 31
0.0
 40
0.4997224534895771
 41
4.603833468331083
 42
4.820944492438291
  0
LINE
  5
100
330
2F
100
AcDbEntity
  8
hw_VTP
 62
30
100
AcDbLine
 10
39.49619047619035
 20
13.08000000000015
 30
0.0
 11
40.50380952380964
 21
13.08000000000015
 31
0.0
  0
CIRCLE
  5
101
330
2F
100
AcDbEntity
  8
hw_VTP
 62
30
100
AcDbCircle
 10
40.0
 20
14.0
 30
0.0
 40
3.82502267294815
  0
CIRCLE
  5
102
330
2F
100
AcDbEntity
  8
hw_VTP
 62
30
100
AcDbCircle
 10
40.0
 20
14.0
 30
0.0
 40
4.0
  0
LINE
  5
103
330
2F
100
AcDbEntity
  8
hw_VTP
 62
30
100
AcDbLine
 10
28.06364177822525
 20
13.61666666666701
 30
0.0
 11
28.95952380952394
 21
13.61666666666701
 31
0.0
  0
SPLINE
  5
104
330
2F
100
AcDbEntity
  8
hw_VTP
 62
30
100
AcDbSpline
 70
12
 71
2
 72
6
 73
3
 74
0
 42
1e-09
 40
0.0
 40
0.0
 40
0.0
 40
0.0419035573382337
 40
0.0419035573382337
 40
0.0419035573382337
 41
1.0
 41
1.000259450662844
 41
1.0
 10
27.92024019356495
 20
13.31130892694796
 30
0.0
 10
27.9935417669958
 20
13.46753500522095
 30
0.0
 10
28.06364177822525
 20
13.61666666666701
 30
0.0
  0
LINE
  5
105
330
2F
100
AcDbEntity
  8
hw_VTP
 62
30
100
AcDbLine
 10
28.83853267741505
 20
13.31130892694796
 30
0.0
 11
27.92024019356495
 21
13.31130892694796
 31
0.0
  0
SPLINE
  5
106
330
2F
100
AcDbEntity
  8
hw_VTP
 62
30
100
AcDbSpline
 70
8
 71
3
 72
8
 73
4
 74
0
 42
1e-09
 40
0.0
 40
0.0
 40
0.0
 40
0.0
 40
0.0417142228120442
 40
0.0417142228120442
 40
0.0417142228120442
 40
0.0417142228120442
 10
28.83853267741505
 20
13.31130892694796
 30
0.0
 10
28.88044929260967
 20
13.41182220085102
 30
0.0
 10
28.92206860360011
 20
13.51273909404699
 30
0.0
 10
28.96293268676572
 20
13.61325778942478
 30
0.0
  0
SPLINE
  5
107
330
2F
100
AcDbEntity
  8
hw_VTP
 62
30
100
AcDbSpline
 70
28
 71
2
 72
6
 73
3
 74
0
 42
1e-09
 40
0.4603462460716825
 40
0.4603462460716825
 40
0.4603462460716825
 40
0.460881520466195
 40
0.460881520466195
 40
0.460881520466195
 41
0.960465329358932
 41
0.9604474122106202
 41
0.9604295068471911
 10
28.96293268676572
 20
13.61325778942478
 30
0.0
 10
28.96122771920409
 20
13.61496275698596
 30
0.0
 10
28.95952380952394
 20
13.61666666666701
 30
0.0
  0
LINE
  5
108
330
2F
100
AcDbEntity
  8
hw_VTP
 62
30
100
AcDbLine
 10
29.31130892694728
 20
12.83853267741506
 30
0.0
 11
28.83853267741505
 21
13.31130892694796
 31
0.0
  0
SPLINE
  5
109
330
2F
100
AcDbEntity
  8
hw_VTP
 62
30
100
AcDbSpline
 70
8
 71
3
 72
8
 73
4
 74
0
 42
1e-09
 40
0.0
 40
0.0
 40
0.0
 40
0.0
 40
0.041714222811963
 40
0.041714222811963
 40
0.041714222811963
 40
0.041714222811963
 10
29.31130892694728
 20
12.83853267741506
 30
0.0
 10
29.41182220085102
 20
12.880449292609
 30
0.0
 10
29.51273909404608
 20
12.92206860359988
 30
0.0
 10
29.61325778942501
 20
12.96293268676504
 30
0.0
  0
LINE
  5
10A
330
2F
100
AcDbEntity
  8
hw_VTP
 62
30
100
AcDbLine
 10
28.96293268676572
 20
13.61325778942478
 30
0.0
 11
29.61325778942501
 21
12.96293268676504
 31
0.0
  0
SPLINE
  5
10B
330
2F
100
AcDbEntity
  8
hw_VTP
 62
30
100
AcDbSpline
 70
12
 71
2
 72
6
 73
3
 74
0
 42
1e-09
 40
0.0
 40
0.0
 40
0.0
 40
0.0419035573382335
 40
0.0419035573382335
 40
0.0419035573382335
 41
1.0
 41
1.000259450688112
 41
1.0
 10
29.61666666666679
 20
12.06364177822479
 30
0.0
 10
29.46753500525392
 20
11.99354176701217
 30
0.0
 10
29.31130892694728
 20
11.92024019356608
 30
0.0
  0
LINE
  5
10C
330
2F
100
AcDbEntity
  8
hw_VTP
 62
30
100
AcDbLine
 10
29.61666666666679
 20
12.95952380952394
 30
0.0
 11
29.61666666666679
 21
12.06364177822479
 31
0.0
  0
LINE
  5
10D
330
2F
100
AcDbEntity
  8
hw_VTP
 62
30
100
AcDbLine
 10
29.61325778942501
 20
12.96293268676504
 30
0.0
 11
29.61666666666679
 21
12.95952380952394
 31
0.0
  0
LINE
  5
10E
330
2F
100
AcDbEntity
  8
hw_VTP
 62
30
100
AcDbLine
 10
29.31130892694728
 20
11.92024019356608
 30
0.0
 11
29.31130892694728
 21
12.83853267741506
 31
0.0
  0
LINE
  5
10F
330
2F
100
AcDbEntity
  8
hw_VTP
 62
30
100
AcDbLine
 10
30.38333333333322
 20
12.06364177822479
 30
0.0
 11
30.38333333333322
 21
12.95952380952394
 31
0.0
  0
SPLINE
  5
110
330
2F
100
AcDbEntity
  8
hw_VTP
 62
30
100
AcDbSpline
 70
12
 71
2
 72
6
 73
3
 74
0
 42
1e-09
 40
0.0
 40
0.0
 40
0.0
 40
0.0419035573382335
 40
0.0419035573382335
 40
0.0419035573382335
 41
1.0
 41
1.000259450661848
 41
1.0
 10
30.68869107305181
 20
11.92024019356608
 30
0.0
 10
30.53246499475472
 20
11.99354176700717
 30
0.0
 10
30.38333333333322
 20
12.06364177822479
 30
0.0
  0
LINE
  5
111
330
2F
100
AcDbEntity
  8
hw_VTP
 62
30
100
AcDbLine
 10
30.68869107305181
 20
12.83853267741506
 30
0.0
 11
30.68869107305181
 21
11.92024019356608
 31
0.0
  0
SPLINE
  5
112
330
2F
100
AcDbEntity
  8
hw_VTP
 62
30
100
AcDbSpline
 70
8
 71
3
 72
8
 73
4
 74
0
 42
1e-09
 40
0.0
 40
0.0
 40
0.0
 40
0.0
 40
0.0417142228118326
 40
0.0417142228118326
 40
0.0417142228118326
 40
0.0417142228118326
 10
30.68869107305181
 20
12.83853267741506
 30
0.0
 10
30.58817779914944
 20
12.880449292609
 30
0.0
 10
30.48726090595301
 20
12.92206860359988
 30
0.0
 10
30.386742210575
 20
12.96293268676504
 30
0.0
  0
SPLINE
  5
113
330
2F
100
AcDbEntity
  8
hw_VTP
 62
30
100
AcDbSpline
 70
28
 71
2
 72
6
 73
3
 74
0
 42
1e-09
 40
0.4603462460716818
 40
0.4603462460716818
 40
0.4603462460716818
 40
0.4608815204661953
 40
0.4608815204661953
 40
0.4608815204661953
 41
0.9604653293589295
 41
0.9604474122106175
 41
0.9604295068471888
 10
30.386742210575
 20
12.9629326867651
 30
0.0
 10
30.38503724301381
 20
12.96122771920386
 30
0.0
 10
30.38333333333322
 20
12.95952380952394
 30
0.0
  0
LINE
  5
114
330
2F
100
AcDbEntity
  8
hw_VTP
 62
30
100
AcDbLine
 10
31.16146732258494
 20
13.31130892694796
 30
0.0
 11
30.68869107305181
 21
12.83853267741506
 31
0.0
  0
SPLINE
  5
115
330
2F
100
AcDbEntity
  8
hw_VTP
 62
30
100
AcDbSpline
 70
8
 71
3
 72
8
 73
4
 74
0
 42
1e-09
 40
0.0
 40
0.0
 40
0.0
 40
0.0
 40
0.0417142228120671
 40
0.0417142228120671
 40
0.0417142228120671
 40
0.0417142228120671
 10
31.16146732258494
 20
13.31130892694796
 30
0.0
 10
31.11955070739032
 20
13.41182220085102
 30
0.0
 10
31.07793139640036
 20
13.51273909404699
 30
0.0
 10
31.03706731323473
 20
13.61325778942478
 30
0.0
  0
LINE
  5
116
330
2F
100
AcDbEntity
  8
hw_VTP
 62
30
100
AcDbLine
 10
30.386742210575
 20
12.96293268676504
 30
0.0
 11
31.03706731323473
 21
13.61325778942478
 31
0.0
  0
SPLINE
  5
117
330
2F
100
AcDbEntity
  8
hw_VTP
 62
30
100
AcDbSpline
 70
12
 71
2
 72
6
 73
3
 74
0
 42
1e-09
 40
0.0
 40
0.0
 40
0.0
 40
0.0419035573382337
 40
0.0419035573382337
 40
0.0419035573382337
 41
1.0
 41
1.00025945063424
 41
1.0
 10
31.93635822177475
 20
13.61666666666701
 30
0.0
 10
32.0064582330042
 20
13.4675350052189
 30
0.0
 10
32.07975980643505
 20
13.31130892694796
 30
0.0
  0
LINE
  5
118
330
2F
100
AcDbEntity
  8
hw_VTP
 62
30
100
AcDbLine
 10
31.04047619047469
 20
13.61666666666701
 30
0.0
 11
31.93635822177475
 21
13.61666666666701
 31
0.0
  0
LINE
  5
119
330
2F
100
AcDbEntity
  8
hw_VTP
 62
30
100
AcDbLine
 10
31.03706731323473
 20
13.61325778942478
 30
0.0
 11
31.04047619047469
 21
13.61666666666701
 31
0.0
  0
LINE
  5
11A
330
2F
100
AcDbEntity
  8
hw_VTP
 62
30
100
AcDbLine
 10
32.07975980643505
 20
13.31130892694796
 30
0.0
 11
31.16146732258494
 21
13.31130892694796
 31
0.0
  0
LINE
  5
11B
330
2F
100
AcDbEntity
  8
hw_VTP
 62
30
100
AcDbLine
 10
31.93635822177475
 20
14.38333333333298
 30
0.0
 11
31.04047619047469
 21
14.38333333333298
 31
0.0
  0
SPLINE
  5
11C
330
2F
100
AcDbEntity
  8
hw_VTP
 62
30
100
AcDbSpline
 70
12
 71
2
 72
6
 73
3
 74
0
 42
1e-09
 40
0.0
 40
0.0
 40
0.0
 40
0.0419035573382336
 40
0.0419035573382336
 40
0.0419035573382336
 41
1.0
 41
1.000259450640569
 41
1.0
 10
32.07975980643505
 20
14.68869107305181
 30
0.0
 10
32.00645823300602
 20
14.53246499478496
 30
0.0
 10
31.93635822177475
 20
14.38333333333298
 30
0.0
  0
LINE
  5
11D
330
2F
100
AcDbEntity
  8
hw_VTP
 62
30
100
AcDbLine
 10
31.16146732258494
 20
14.68869107305181
 30
0.0
 11
32.07975980643505
 21
14.68869107305181
 31
0.0
  0
SPLINE
  5
11E
330
2F
100
AcDbEntity
  8
hw_VTP
 62
30
100
AcDbSpline
 70
8
 71
3
 72
8
 73
4
 74
0
 42
1e-09
 40
0.0
 40
0.0
 40
0.0
 40
0.0
 40
0.0417142228395554
 40
0.0417142228395554
 40
0.0417142228395554
 40
0.0417142228395554
 10
31.16146732258494
 20
14.68869107305181
 30
0.0
 10
31.11955070736258
 20
14.58817779908213
 30
0.0
 10
31.07793139638898
 20
14.48726090592595
 30
0.0
 10
31.03706731323473
 20
14.38674221057499
 30
0.0
  0
SPLINE
  5
11F
330
2F
100
AcDbEntity
  8
hw_VTP
 62
30
100
AcDbSpline
 70
28
 71
2
 72
6
 73
3
 74
0
 42
1e-09
 40
0.4603462460717186
 40
0.4603462460717186
 40
0.4603462460717186
 40
0.4608815204661953
 40
0.4608815204661953
 40
0.4608815204661953
 41
0.9604653293589276
 41
0.9604474122106168
 41
0.9604295068471891
 10
31.03706731323473
 20
14.38674221057499
 30
0.0
 10
31.03877228079591
 20
14.38503724301404
 30
0.0
 10
31.04047619047469
 20
14.38333333333298
 30
0.0
  0
LINE
  5
120
330
2F
100
AcDbEntity
  8
hw_VTP
 62
30
100
AcDbLine
 10
30.68869107305181
 20
15.16146732258494
 30
0.0
 11
31.16146732258494
 21
14.68869107305181
 31
0.0
  0
SPLINE
  5
121
330
2F
100
AcDbEntity
  8
hw_VTP
 62
30
100
AcDbSpline
 70
8
 71
3
 72
8
 73
4
 74
0
 42
1e-09
 40
0.0
 40
0.0
 40
0.0
 40
0.0
 40
0.0417142227914078
 40
0.0417142227914078
 40
0.0417142227914078
 40
0.0417142227914078
 10
30.68869107305181
 20
15.16146732258494
 30
0.0
 10
30.58817779919809
 20
15.11955070741101
 30
0.0
 10
30.48726090597438
 20
15.07793139640785
 30
0.0
 10
30.386742210575
 20
15.03706731323404
 30
0.0
  0
LINE
  5
122
330
2F
100
AcDbEntity
  8
hw_VTP
 62
30
100
AcDbLine
 10
31.03706731323473
 20
14.38674221057499
 30
0.0
 11
30.386742210575
 21
15.03706731323404
 31
0.0
  0
SPLINE
  5
123
330
2F
100
AcDbEntity
  8
hw_VTP
 62
30
100
AcDbSpline
 70
12
 71
2
 72
6
 73
3
 74
0
 42
1e-09
 40
0.0
 40
0.0
 40
0.0
 40
0.0419035573382337
 40
0.0419035573382337
 40
0.0419035573382337
 41
1.0
 41
1.00025945066092
 41
1.0
 10
30.38333333333322
 20
15.93635822177498
 30
0.0
 10
30.53246499480429
 20
16.00645823301488
 30
0.0
 10
30.68869107305181
 20
16.07975980643414
 30
0.0
  0
LINE
  5
124
330
2F
100
AcDbEntity
  8
hw_VTP
 62
30
100
AcDbLine
 10
30.38333333333322
 20
15.04047619047583
 30
0.0
 11
30.38333333333322
 21
15.93635822177498
 31
0.0
  0
LINE
  5
125
330
2F
100
AcDbEntity
  8
hw_VTP
 62
30
100
AcDbLine
 10
30.386742210575
 20
15.03706731323404
 30
0.0
 11
30.38333333333322
 21
15.04047619047583
 31
0.0
  0
LINE
  5
126
330
2F
100
AcDbEntity
  8
hw_VTP
 62
30
100
AcDbLine
 10
30.68869107305181
 20
16.07975980643414
 30
0.0
 11
30.68869107305181
 21
15.16146732258494
 31
0.0
  0
LINE
  5
127
330
2F
100
AcDbEntity
  8
hw_VTP
 62
30
100
AcDbLine
 10
29.61666666666679
 20
15.93635822177498
 30
0.0
 11
29.61666666666679
 21
15.04047619047583
 31
0.0
  0
SPLINE
  5
128
330
2F
100
AcDbEntity
  8
hw_VTP
 62
30
100
AcDbSpline
 70
12
 71
2
 72
6
 73
3
 74
0
 42
1e-09
 40
0.0
 40
0.0
 40
0.0
 40
0.0419035573382337
 40
0.0419035573382337
 40
0.0419035573382337
 41
1.0
 41
1.000259450670218
 41
1.0
 10
29.31130892694728
 20
16.07975980643414
 30
0.0
 10
29.46753500528257
 20
16.00645823297395
 30
0.0
 10
29.61666666666679
 20
15.93635822177498
 30
0.0
  0
LINE
  5
129
330
2F
100
AcDbEntity
  8
hw_VTP
 62
30
100
AcDbLine
 10
29.31130892694728
 20
15.16146732258494
 30
0.0
 11
29.31130892694728
 21
16.07975980643414
 31
0.0
  0
SPLINE
  5
12A
330
2F
100
AcDbEntity
  8
hw_VTP
 62
30
100
AcDbSpline
 70
8
 71
3
 72
8
 73
4
 74
0
 42
1e-09
 40
0.0
 40
0.0
 40
0.0
 40
0.0
 40
0.0417142228395345
 40
0.0417142228395345
 40
0.0417142228395345
 40
0.0417142228395345
 10
29.31130892694728
 20
15.16146732258494
 30
0.0
 10
29.41182220091788
 20
15.11955070736303
 30
0.0
 10
29.51273909407428
 20
15.07793139638897
 30
0.0
 10
29.61325778942501
 20
15.03706731323496
 30
0.0
  0
SPLINE
  5
12B
330
2F
100
AcDbEntity
  8
hw_VTP
 62
30
100
AcDbSpline
 70
28
 71
2
 72
6
 73
3
 74
0
 42
1e-09
 40
0.4603462460717185
 40
0.4603462460717185
 40
0.4603462460717185
 40
0.460881520466195
 40
0.460881520466195
 40
0.460881520466195
 41
0.960465329358929
 41
0.9604474122106182
 41
0.9604295068471908
 10
29.61325778942592
 20
15.03706731323496
 30
0.0
 10
29.6149627569862
 20
15.03877228079591
 30
0.0
 10
29.61666666666679
 20
15.04047619047583
 30
0.0
  0
LINE
  5
12C
330
2F
100
AcDbEntity
  8
hw_VTP
 62
30
100
AcDbLine
 10
28.83853267741505
 20
14.68869107305181
 30
0.0
 11
29.31130892694728
 21
15.16146732258494
 31
0.0
  0
SPLINE
  5
12D
330
2F
100
AcDbEntity
  8
hw_VTP
 62
30
100
AcDbSpline
 70
8
 71
3
 72
8
 73
4
 74
0
 42
1e-09
 40
0.0
 40
0.0
 40
0.0
 40
0.0
 40
0.0417142228119697
 40
0.0417142228119697
 40
0.0417142228119697
 40
0.0417142228119697
 10
28.83853267741505
 20
14.68869107305181
 30
0.0
 10
28.88044929260877
 20
14.58817779914898
 30
0.0
 10
28.92206860360011
 20
14.48726090595278
 30
0.0
 10
28.96293268676572
 20
14.38674221057499
 30
0.0
  0
LINE
  5
12E
330
2F
100
AcDbEntity
  8
hw_VTP
 62
30
100
AcDbLine
 10
29.61325778942592
 20
15.03706731323496
 30
0.0
 11
28.96293268676572
 21
14.38674221057499
 31
0.0
  0
SPLINE
  5
12F
330
2F
100
AcDbEntity
  8
hw_VTP
 62
30
100
AcDbSpline
 70
12
 71
2
 72
6
 73
3
 74
0
 42
1e-09
 40
0.0
 40
0.0
 40
0.0
 40
0.0419035573382336
 40
0.0419035573382336
 40
0.0419035573382336
 41
1.0
 41
1.000259450645444
 41
1.0
 10
28.06364177822525
 20
14.38333333333298
 30
0.0
 10
27.99354176700763
 20
14.53246499475404
 30
0.0
 10
27.92024019356495
 20
14.68869107305181
 30
0.0
  0
LINE
  5
130
330
2F
100
AcDbEntity
  8
hw_VTP
 62
30
100
AcDbLine
 10
28.95952380952394
 20
14.38333333333298
 30
0.0
 11
28.06364177822525
 21
14.38333333333298
 31
0.0
  0
LINE
  5
131
330
2F
100
AcDbEntity
  8
hw_VTP
 62
30
100
AcDbLine
 10
28.96293268676572
 20
14.38674221057499
 30
0.0
 11
28.95952380952394
 21
14.38333333333298
 31
0.0
  0
LINE
  5
132
330
2F
100
AcDbEntity
  8
hw_VTP
 62
30
100
AcDbLine
 10
27.92024019356495
 20
14.68869107305181
 30
0.0
 11
28.83853267741505
 21
14.68869107305181
 31
0.0
  0
ELLIPSE
  5
133
330
2F
100
AcDbEntity
  8
hw_VTP
 62
30
100
AcDbEllipse
 10
31.07808497000679
 20
14.0
 30
0.0
 11
2e-16
 21
-6.356614653237485
 31
0.0
 40
0.4997224534895778
 41
4.603833468331082
 42
4.82094449243829
  0
ELLIPSE
  5
134
330
2F
100
AcDbEntity
  8
hw_VTP
 62
30
100
AcDbEllipse
 10
30.0
 20
12.92191502999185
 30
0.0
 11
-6.356614653237412
 21
-8e-16
 31
0.0
 40
0.4997224534895774
 41
4.603833468331083
 42
4.820944492438291
  0
ELLIPSE
  5
135
330
2F
100
AcDbEntity
  8
hw_VTP
 62
30
100
AcDbEllipse
 10
28.92191502999276
 20
14.0
 30
0.0
 11
-2e-16
 21
6.356614653237412
 31
0.0
 40
0.4997224534895775
 41
4.603833468331085
 42
4.820944492438296
  0
LINE
  5
136
330
2F
100
AcDbEntity
  8
hw_VTP
 62
30
100
AcDbLine
 10
29.07999999999993
 20
14.50380952380988
 30
0.0
 11
29.07999999999993
 21
13.4961904761908
 31
0.0
  0
LINE
  5
137
330
2F
100
AcDbEntity
  8
hw_VTP
 62
30
100
AcDbLine
 10
30.92000000000008
 20
13.4961904761908
 30
0.0
 11
30.92000000000008
 21
14.50380952380988
 31
0.0
  0
LINE
  5
138
330
2F
100
AcDbEntity
  8
hw_VTP
 62
30
100
AcDbLine
 10
30.50380952380965
 20
14.92000000000007
 30
0.0
 11
29.49619047619036
 21
14.92000000000007
 31
0.0
  0
ELLIPSE
  5
139
330
2F
100
AcDbEntity
  8
hw_VTP
 62
30
100
AcDbEllipse
 10
30.0
 20
15.07808497000701
 30
0.0
 11
6.356614653237405
 21
-2e-16
 31
0.0
 40
0.4997224534895771
 41
4.603833468331083
 42
4.820944492438291
  0
LINE
  5
13A
330
2F
100
AcDbEntity
  8
hw_VTP
 62
30
100
AcDbLine
 10
29.49619047619036
 20
13.08000000000015
 30
0.0
 11
30.50380952380965
 21
13.08000000000015
 31
0.0
  0
CIRCLE
  5
13B
330
2F
100
AcDbEntity
  8
hw_VTP
 62
30
100
AcDbCircle
 10
30.0
 20
14.0
 30
0.0
 40
3.82502267294815
  0
CIRCLE
  5
13C
330
2F
100
AcDbEntity
  8
hw_VTP
 62
30
100
AcDbCircle
 10
30.0
 20
14.0
 30
0.0
 40
4.0
  0
LINE
  5
13D
330
2F
100
AcDbEntity
  8
hw_VTP
 62
30
100
AcDbLine
 10
8.063641778225247
 20
13.61666666666701
 30
0.0
 11
8.959523809523944
 21
13.61666666666701
 31
0.0
  0
SPLINE
  5
13E
330
2F
100
AcDbEntity
  8
hw_VTP
 62
30
100
AcDbSpline
 70
12
 71
2
 72
6
 73
3
 74
0
 42
1e-09
 40
0.0
 40
0.0
 40
0.0
 40
0.0419035573382337
 40
0.0419035573382337
 40
0.0419035573382337
 41
1.0
 41
1.000259450662844
 41
1.0
 10
7.920240193565858
 20
13.31130892694796
 30
0.0
 10
7.993541766997168
 20
13.46753500522095
 30
0.0
 10
8.063641778225247
 20
13.61666666666701
 30
0.0
  0
LINE
  5
13F
330
2F
100
AcDbEntity
  8
hw_VTP
 62
30
100
AcDbLine
 10
8.838532677415058
 20
13.31130892694796
 30
0.0
 11
7.920240193565858
 21
13.31130892694796
 31
0.0
  0
SPLINE
  5
140
330
2F
100
AcDbEntity
  8
hw_VTP
 62
30
100
AcDbSpline
 70
8
 71
3
 72
8
 73
4
 74
0
 42
1e-09
 40
0.0
 40
0.0
 40
0.0
 40
0.0
 40
0.0417142228120442
 40
0.0417142228120442
 40
0.0417142228120442
 40
0.0417142228120442
 10
8.838532677415058
 20
13.31130892694796
 30
0.0
 10
8.880449292608773
 20
13.41182220085102
 30
0.0
 10
8.92206860360011
 20
13.51273909404699
 30
0.0
 10
8.962932686765724
 20
13.61325778942478
 30
0.0
  0
SPLINE
  5
141
330
2F
100
AcDbEntity
  8
hw_VTP
 62
30
100
AcDbSpline
 70
28
 71
2
 72
6
 73
3
 74
0
 42
1e-09
 40
0.4603462460716825
 40
0.4603462460716825
 40
0.4603462460716825
 40
0.460881520466195
 40
0.460881520466195
 40
0.460881520466195
 41
0.960465329358932
 41
0.9604474122106202
 41
0.9604295068471911
 10
8.962932686765724
 20
13.61325778942478
 30
0.0
 10
8.96122771920409
 20
13.61496275698596
 30
0.0
 10
8.959523809523944
 20
13.61666666666701
 30
0.0
  0
LINE
  5
142
330
2F
100
AcDbEntity
  8
hw_VTP
 62
30
100
AcDbLine
 10
9.311308926948184
 20
12.83853267741506
 30
0.0
 11
8.838532677415058
 21
13.31130892694796
 31
0.0
  0
SPLINE
  5
143
330
2F
100
AcDbEntity
  8
hw_VTP
 62
30
100
AcDbSpline
 70
8
 71
3
 72
8
 73
4
 74
0
 42
1e-09
 40
0.0
 40
0.0
 40
0.0
 40
0.0
 40
0.041714222811963
 40
0.041714222811963
 40
0.041714222811963
 40
0.041714222811963
 10
9.311308926948184
 20
12.83853267741506
 30
0.0
 10
9.41182220085102
 20
12.880449292609
 30
0.0
 10
9.512739094046538
 20
12.92206860359988
 30
0.0
 10
9.61325778942364
 20
12.96293268676504
 30
0.0
  0
LINE
  5
144
330
2F
100
AcDbEntity
  8
hw_VTP
 62
30
100
AcDbLine
 10
8.962932686765724
 20
13.61325778942478
 30
0.0
 11
9.61325778942364
 21
12.96293268676504
 31
0.0
  0
SPLINE
  5
145
330
2F
100
AcDbEntity
  8
hw_VTP
 62
30
100
AcDbSpline
 70
12
 71
2
 72
6
 73
3
 74
0
 42
1e-09
 40
0.0
 40
0.0
 40
0.0
 40
0.0419035573382335
 40
0.0419035573382335
 40
0.0419035573382335
 41
1.0
 41
1.000259450688112
 41
1.0
 10
9.616666666666786
 20
12.06364177822479
 30
0.0
 10
9.46753500525392
 20
11.99354176701217
 30
0.0
 10
9.311308926948184
 20
11.92024019356608
 30
0.0
  0
LINE
  5
146
330
2F
100
AcDbEntity
  8
hw_VTP
 62
30
100
AcDbLine
 10
9.616666666666786
 20
12.95952380952394
 30
0.0
 11
9.616666666666786
 21
12.06364177822479
 31
0.0
  0
LINE
  5
147
330
2F
100
AcDbEntity
  8
hw_VTP
 62
30
100
AcDbLine
 10
9.61325778942364
 20
12.96293268676504
 30
0.0
 11
9.616666666666786
 21
12.95952380952394
 31
0.0
  0
LINE
  5
148
330
2F
100
AcDbEntity
  8
hw_VTP
 62
30
100
AcDbLine
 10
9.311308926948184
 20
11.92024019356608
 30
0.0
 11
9.311308926948184
 21
12.83853267741506
 31
0.0
  0
LINE
  5
149
330
2F
100
AcDbEntity
  8
hw_VTP
 62
30
100
AcDbLine
 10
10.38333333333321
 20
12.06364177822479
 30
0.0
 11
10.38333333333321
 21
12.95952380952394
 31
0.0
  0
SPLINE
  5
14A
330
2F
100
AcDbEntity
  8
hw_VTP
 62
30
100
AcDbSpline
 70
12
 71
2
 72
6
 73
3
 74
0
 42
1e-09
 40
0.0
 40
0.0
 40
0.0
 40
0.0419035573382335
 40
0.0419035573382335
 40
0.0419035573382335
 41
1.0
 41
1.000259450661848
 41
1.0
 10
10.68869107305181
 20
11.92024019356608
 30
0.0
 10
10.53246499475472
 20
11.99354176700717
 30
0.0
 10
10.38333333333321
 20
12.06364177822479
 30
0.0
  0
LINE
  5
14B
330
2F
100
AcDbEntity
  8
hw_VTP
 62
30
100
AcDbLine
 10
10.68869107305181
 20
12.83853267741506
 30
0.0
 11
10.68869107305181
 21
11.92024019356608
 31
0.0
  0
SPLINE
  5
14C
330
2F
100
AcDbEntity
  8
hw_VTP
 62
30
100
AcDbSpline
 70
8
 71
3
 72
8
 73
4
 74
0
 42
1e-09
 40
0.0
 40
0.0
 40
0.0
 40
0.0
 40
0.0417142228118326
 40
0.0417142228118326
 40
0.0417142228118326
 40
0.0417142228118326
 10
10.68869107305181
 20
12.83853267741506
 30
0.0
 10
10.58817779914943
 20
12.880449292609
 30
0.0
 10
10.48726090595301
 20
12.92206860359988
 30
0.0
 10
10.38674221057499
 20
12.96293268676504
 30
0.0
  0
SPLINE
  5
14D
330
2F
100
AcDbEntity
  8
hw_VTP
 62
30
100
AcDbSpline
 70
28
 71
2
 72
6
 73
3
 74
0
 42
1e-09
 40
0.4603462460716818
 40
0.4603462460716818
 40
0.4603462460716818
 40
0.4608815204661953
 40
0.4608815204661953
 40
0.4608815204661953
 41
0.9604653293589295
 41
0.9604474122106175
 41
0.9604295068471888
 10
10.38674221057499
 20
12.9629326867651
 30
0.0
 10
10.38503724301381
 20
12.96122771920386
 30
0.0
 10
10.38333333333321
 20
12.95952380952394
 30
0.0
  0
LINE
  5
14E
330
2F
100
AcDbEntity
  8
hw_VTP
 62
30
100
AcDbLine
 10
11.16146732258494
 20
13.31130892694796
 30
0.0
 11
10.68869107305181
 21
12.83853267741506
 31
0.0
  0
SPLINE
  5
14F
330
2F
100
AcDbEntity
  8
hw_VTP
 62
30
100
AcDbSpline
 70
8
 71
3
 72
8
 73
4
 74
0
 42
1e-09
 40
0.0
 40
0.0
 40
0.0
 40
0.0
 40
0.0417142228120671
 40
0.0417142228120671
 40
0.0417142228120671
 40
0.0417142228120671
 10
11.16146732258494
 20
13.31130892694796
 30
0.0
 10
11.11955070739077
 20
13.41182220085102
 30
0.0
 10
11.07793139640034
 20
13.51273909404699
 30
0.0
 10
11.03706731323382
 20
13.61325778942478
 30
0.0
  0
LINE
  5
150
330
2F
100
AcDbEntity
  8
hw_VTP
 62
30
100
AcDbLine
 10
10.38674221057499
 20
12.96293268676504
 30
0.0
 11
11.03706731323382
 21
13.61325778942478
 31
0.0
  0
SPLINE
  5
151
330
2F
100
AcDbEntity
  8
hw_VTP
 62
30
100
AcDbSpline
 70
12
 71
2
 72
6
 73
3
 74
0
 42
1e-09
 40
0.0
 40
0.0
 40
0.0
 40
0.0419035573382337
 40
0.0419035573382337
 40
0.0419035573382337
 41
1.0
 41
1.00025945063424
 41
1.0
 10
11.93635822177475
 20
13.61666666666701
 30
0.0
 10
12.00645823300419
 20
13.4675350052189
 30
0.0
 10
12.07975980643368
 20
13.31130892694796
 30
0.0
  0
LINE
  5
152
330
2F
100
AcDbEntity
  8
hw_VTP
 62
30
100
AcDbLine
 10
11.04047619047605
 20
13.61666666666701
 30
0.0
 11
11.93635822177475
 21
13.61666666666701
 31
0.0
  0
LINE
  5
153
330
2F
100
AcDbEntity
  8
hw_VTP
 62
30
100
AcDbLine
 10
11.03706731323382
 20
13.61325778942478
 30
0.0
 11
11.04047619047605
 21
13.61666666666701
 31
0.0
  0
LINE
  5
154
330
2F
100
AcDbEntity
  8
hw_VTP
 62
30
100
AcDbLine
 10
12.07975980643368
 20
13.31130892694796
 30
0.0
 11
11.16146732258494
 21
13.31130892694796
 31
0.0
  0
LINE
  5
155
330
2F
100
AcDbEntity
  8
hw_VTP
 62
30
100
AcDbLine
 10
11.93635822177475
 20
14.38333333333298
 30
0.0
 11
11.04047619047605
 21
14.38333333333298
 31
0.0
  0
SPLINE
  5
156
330
2F
100
AcDbEntity
  8
hw_VTP
 62
30
100
AcDbSpline
 70
12
 71
2
 72
6
 73
3
 74
0
 42
1e-09
 40
0.0
 40
0.0
 40
0.0
 40
0.0419035573382336
 40
0.0419035573382336
 40
0.0419035573382336
 41
1.0
 41
1.000259450640569
 41
1.0
 10
12.07975980643368
 20
14.68869107305181
 30
0.0
 10
12.00645823300647
 20
14.53246499478496
 30
0.0
 10
11.93635822177475
 20
14.38333333333298
 30
0.0
  0
LINE
  5
157
330
2F
100
AcDbEntity
  8
hw_VTP
 62
30
100
AcDbLine
 10
11.16146732258494
 20
14.68869107305181
 30
0.0
 11
12.07975980643368
 21
14.68869107305181
 31
0.0
  0
SPLINE
  5
158
330
2F
100
AcDbEntity
  8
hw_VTP
 62
30
100
AcDbSpline
 70
8
 71
3
 72
8
 73
4
 74
0
 42
1e-09
 40
0.0
 40
0.0
 40
0.0
 40
0.0
 40
0.0417142228395554
 40
0.0417142228395554
 40
0.0417142228395554
 40
0.0417142228395554
 10
11.16146732258494
 20
14.68869107305181
 30
0.0
 10
11.11955070736257
 20
14.58817779908213
 30
0.0
 10
11.07793139638988
 20
14.48726090592595
 30
0.0
 10
11.03706731323473
 20
14.38674221057499
 30
0.0
  0
SPLINE
  5
159
330
2F
100
AcDbEntity
  8
hw_VTP
 62
30
100
AcDbSpline
 70
28
 71
2
 72
6
 73
3
 74
0
 42
1e-09
 40
0.4603462460717186
 40
0.4603462460717186
 40
0.4603462460717186
 40
0.4608815204661953
 40
0.4608815204661953
 40
0.4608815204661953
 41
0.9604653293589276
 41
0.9604474122106168
 41
0.9604295068471891
 10
11.03706731323473
 20
14.38674221057499
 30
0.0
 10
11.03877228079591
 20
14.38503724301404
 30
0.0
 10
11.04047619047605
 20
14.38333333333298
 30
0.0
  0
LINE
  5
15A
330
2F
100
AcDbEntity
  8
hw_VTP
 62
30
100
AcDbLine
 10
10.68869107305181
 20
15.16146732258494
 30
0.0
 11
11.16146732258494
 21
14.68869107305181
 31
0.0
  0
SPLINE
  5
15B
330
2F
100
AcDbEntity
  8
hw_VTP
 62
30
100
AcDbSpline
 70
8
 71
3
 72
8
 73
4
 74
0
 42
1e-09
 40
0.0
 40
0.0
 40
0.0
 40
0.0
 40
0.0417142227914078
 40
0.0417142227914078
 40
0.0417142227914078
 40
0.0417142227914078
 10
10.68869107305181
 20
15.16146732258494
 30
0.0
 10
10.58817779919809
 20
15.11955070741101
 30
0.0
 10
10.48726090597438
 20
15.07793139640785
 30
0.0
 10
10.38674221057499
 20
15.03706731323404
 30
0.0
  0
LINE
  5
15C
330
2F
100
AcDbEntity
  8
hw_VTP
 62
30
100
AcDbLine
 10
11.03706731323473
 20
14.38674221057499
 30
0.0
 11
10.38674221057499
 21
15.03706731323404
 31
0.0
  0
SPLINE
  5
15D
330
2F
100
AcDbEntity
  8
hw_VTP
 62
30
100
AcDbSpline
 70
12
 71
2
 72
6
 73
3
 74
0
 42
1e-09
 40
0.0
 40
0.0
 40
0.0
 40
0.0419035573382337
 40
0.0419035573382337
 40
0.0419035573382337
 41
1.0
 41
1.00025945066092
 41
1.0
 10
10.38333333333321
 20
15.93635822177498
 30
0.0
 10
10.53246499480292
 20
16.00645823301488
 30
0.0
 10
10.68869107305181
 20
16.07975980643414
 30
0.0
  0
LINE
  5
15E
330
2F
100
AcDbEntity
  8
hw_VTP
 62
30
100
AcDbLine
 10
10.38333333333321
 20
15.04047619047583
 30
0.0
 11
10.38333333333321
 21
15.93635822177498
 31
0.0
  0
LINE
  5
15F
330
2F
100
AcDbEntity
  8
hw_VTP
 62
30
100
AcDbLine
 10
10.38674221057499
 20
15.03706731323404
 30
0.0
 11
10.38333333333321
 21
15.04047619047583
 31
0.0
  0
LINE
  5
160
330
2F
100
AcDbEntity
  8
hw_VTP
 62
30
100
AcDbLine
 10
10.68869107305181
 20
16.07975980643414
 30
0.0
 11
10.68869107305181
 21
15.16146732258494
 31
0.0
  0
LINE
  5
161
330
2F
100
AcDbEntity
  8
hw_VTP
 62
30
100
AcDbLine
 10
9.616666666666786
 20
15.93635822177498
 30
0.0
 11
9.616666666666786
 21
15.04047619047583
 31
0.0
  0
SPLINE
  5
162
330
2F
100
AcDbEntity
  8
hw_VTP
 62
30
100
AcDbSpline
 70
12
 71
2
 72
6
 73
3
 74
0
 42
1e-09
 40
0.0
 40
0.0
 40
0.0
 40
0.0419035573382337
 40
0.0419035573382337
 40
0.0419035573382337
 41
1.0
 41
1.000259450670218
 41
1.0
 10
9.311308926948184
 20
16.07975980643414
 30
0.0
 10
9.46753500528257
 20
16.00645823297395
 30
0.0
 10
9.616666666666786
 20
15.93635822177498
 30
0.0
  0
LINE
  5
163
330
2F
100
AcDbEntity
  8
hw_VTP
 62
30
100
AcDbLine
 10
9.311308926948184
 20
15.16146732258494
 30
0.0
 11
9.311308926948184
 21
16.07975980643414
 31
0.0
  0
SPLINE
  5
164
330
2F
100
AcDbEntity
  8
hw_VTP
 62
30
100
AcDbSpline
 70
8
 71
3
 72
8
 73
4
 74
0
 42
1e-09
 40
0.0
 40
0.0
 40
0.0
 40
0.0
 40
0.0417142228395345
 40
0.0417142228395345
 40
0.0417142228395345
 40
0.0417142228395345
 10
9.311308926948184
 20
15.16146732258494
 30
0.0
 10
9.411822200917868
 20
15.11955070736303
 30
0.0
 10
9.512739094074275
 20
15.07793139638897
 30
0.0
 10
9.613257789425006
 20
15.03706731323496
 30
0.0
  0
SPLINE
  5
165
330
2F
100
AcDbEntity
  8
hw_VTP
 62
30
100
AcDbSpline
 70
28
 71
2
 72
6
 73
3
 74
0
 42
1e-09
 40
0.4603462460717185
 40
0.4603462460717185
 40
0.4603462460717185
 40
0.460881520466195
 40
0.460881520466195
 40
0.460881520466195
 41
0.960465329358929
 41
0.9604474122106182
 41
0.9604295068471908
 10
9.613257789425006
 20
15.03706731323496
 30
0.0
 10
9.614962756986188
 20
15.03877228079591
 30
0.0
 10
9.616666666666786
 20
15.04047619047583
 30
0.0
  0
LINE
  5
166
330
2F
100
AcDbEntity
  8
hw_VTP
 62
30
100
AcDbLine
 10
8.838532677415058
 20
14.68869107305181
 30
0.0
 11
9.311308926948184
 21
15.16146732258494
 31
0.0
  0
SPLINE
  5
167
330
2F
100
AcDbEntity
  8
hw_VTP
 62
30
100
AcDbSpline
 70
8
 71
3
 72
8
 73
4
 74
0
 42
1e-09
 40
0.0
 40
0.0
 40
0.0
 40
0.0
 40
0.0417142228119697
 40
0.0417142228119697
 40
0.0417142228119697
 40
0.0417142228119697
 10
8.838532677415058
 20
14.68869107305181
 30
0.0
 10
8.880449292608773
 20
14.58817779914898
 30
0.0
 10
8.92206860360011
 20
14.48726090595278
 30
0.0
 10
8.962932686765724
 20
14.38674221057499
 30
0.0
  0
LINE
  5
168
330
2F
100
AcDbEntity
  8
hw_VTP
 62
30
100
AcDbLine
 10
9.613257789425006
 20
15.03706731323496
 30
0.0
 11
8.962932686765724
 21
14.38674221057499
 31
0.0
  0
SPLINE
  5
169
330
2F
100
AcDbEntity
  8
hw_VTP
 62
30
100
AcDbSpline
 70
12
 71
2
 72
6
 73
3
 74
0
 42
1e-09
 40
0.0
 40
0.0
 40
0.0
 40
0.0419035573382336
 40
0.0419035573382336
 40
0.0419035573382336
 41
1.0
 41
1.000259450645444
 41
1.0
 10
8.063641778225247
 20
14.38333333333298
 30
0.0
 10
7.993541767007627
 20
14.53246499475404
 30
0.0
 10
7.920240193565858
 20
14.68869107305181
 30
0.0
  0
LINE
  5
16A
330
2F
100
AcDbEntity
  8
hw_VTP
 62
30
100
AcDbLine
 10
8.959523809523944
 20
14.38333333333298
 30
0.0
 11
8.063641778225247
 21
14.38333333333298
 31
0.0
  0
LINE
  5
16B
330
2F
100
AcDbEntity
  8
hw_VTP
 62
30
100
AcDbLine
 10
8.962932686765724
 20
14.38674221057499
 30
0.0
 11
8.959523809523944
 21
14.38333333333298
 31
0.0
  0
LINE
  5
16C
330
2F
100
AcDbEntity
  8
hw_VTP
 62
30
100
AcDbLine
 10
7.920240193565858
 20
14.68869107305181
 30
0.0
 11
8.838532677415058
 21
14.68869107305181
 31
0.0
  0
ELLIPSE
  5
16D
330
2F
100
AcDbEntity
  8
hw_VTP
 62
30
100
AcDbEllipse
 10
11.07808497000678
 20
14.0
 30
0.0
 11
2e-16
 21
-6.356614653237485
 31
0.0
 40
0.4997224534895778
 41
4.603833468331089
 42
4.820944492438293
  0
ELLIPSE
  5
16E
330
2F
100
AcDbEntity
  8
hw_VTP
 62
30
100
AcDbEllipse
 10
10.0
 20
12.92191502999185
 30
0.0
 11
-6.356614653237412
 21
0.0
 31
0.0
 40
0.4997224534895774
 41
4.603833468331083
 42
4.820944492438291
  0
ELLIPSE
  5
16F
330
2F
100
AcDbEntity
  8
hw_VTP
 62
30
100
AcDbEllipse
 10
8.921915029992759
 20
14.0
 30
0.0
 11
-2e-16
 21
6.356614653237412
 31
0.0
 40
0.4997224534895775
 41
4.603833468331085
 42
4.820944492438296
  0
LINE
  5
170
330
2F
100
AcDbEntity
  8
hw_VTP
 62
30
100
AcDbLine
 10
9.079999999999927
 20
14.50380952380988
 30
0.0
 11
9.079999999999927
 21
13.4961904761908
 31
0.0
  0
LINE
  5
171
330
2F
100
AcDbEntity
  8
hw_VTP
 62
30
100
AcDbLine
 10
10.92000000000007
 20
13.4961904761908
 30
0.0
 11
10.92000000000007
 21
14.50380952380988
 31
0.0
  0
LINE
  5
172
330
2F
100
AcDbEntity
  8
hw_VTP
 62
30
100
AcDbLine
 10
10.50380952380874
 20
14.92000000000007
 30
0.0
 11
9.496190476190804
 21
14.92000000000007
 31
0.0
  0
ELLIPSE
  5
173
330
2F
100
AcDbEntity
  8
hw_VTP
 62
30
100
AcDbEllipse
 10
10.0
 20
15.07808497000701
 30
0.0
 11
6.356614653237405
 21
-9e-16
 31
0.0
 40
0.4997224534895774
 41
4.603833468331083
 42
4.820944492438292
  0
LINE
  5
174
330
2F
100
AcDbEntity
  8
hw_VTP
 62
30
100
AcDbLine
 10
9.496190476190804
 20
13.08000000000015
 30
0.0
 11
10.50380952380874
 21
13.08000000000015
 31
0.0
  0
CIRCLE
  5
175
330
2F
100
AcDbEntity
  8
hw_VTP
 62
30
100
AcDbCircle
 10
10.0
 20
14.0
 30
0.0
 40
3.82502267294815
  0
CIRCLE
  5
176
330
2F
100
AcDbEntity
  8
hw_VTP
 62
30
100
AcDbCircle
 10
10.0
 20
14.0
 30
0.0
 40
4.0
  0
LINE
  5
177
330
2F
100
AcDbEntity
  8
hw_VTP
 62
7
100
AcDbLine
 10
-6.5
 20
20.0
 30
0.0
 11
-6.5
 21
19.0
 31
0.0
  0
ENDBLK
  5
31
330
2F
100
AcDbEntity
  8
0
100
AcDbBlockEnd
  0
ENDSEC
  0
SECTION
  2
ENTITIES
  0
INSERT
  5
179
330
17
100
AcDbEntity
  8
0
100
AcDbBlockReference
  2
TC_NE 5 MAT
 10
6.500000000000002
 20
6.000000000000003
 30
0.0
  0
ENDSEC
  0
SECTION
  2
OBJECTS
  0
DICTIONARY
  5
A
330
0
100
AcDbDictionary
281
1
  3
ACAD_COLOR
350
B
  3
ACAD_GROUP
350
C
  3
ACAD_LAYOUT
350
D
  3
ACAD_MATERIAL
350
E
  3
ACAD_MLEADERSTYLE
350
F
  3
ACAD_MLINESTYLE
350
10
  3
ACAD_PLOTSETTINGS
350
11
  3
ACAD_PLOTSTYLENAME
350
12
  3
ACAD_SCALELIST
350
14
  3
ACAD_TABLESTYLE
350
15
  3
ACAD_VISUALSTYLE
350
16
  3
EZDXF_META
350
2D
  0
DICTIONARY
  5
B
330
A
100
AcDbDictionary
281
1
  0
DICTIONARY
  5
C
330
A
100
AcDbDictionary
281
1
  0
DICTIONARY
  5
D
330
A
100
AcDbDictionary
281
1
  3
Model
350
1A
  3
Layout1
350
1E
  0
DICTIONARY
  5
E
330
A
100
AcDbDictionary
281
1
  3
ByBlock
350
1F
  3
ByLayer
350
20
  3
Global
350
21
  0
DICTIONARY
  5
F
330
A
100
AcDbDictionary
281
1
  3
Standard
350
2C
  0
DICTIONARY
  5
10
330
A
100
AcDbDictionary
281
1
  3
Standard
350
22
  0
DICTIONARY
  5
11
330
A
100
AcDbDictionary
281
1
  0
ACDBDICTIONARYWDFLT
  5
12
330
A
100
AcDbDictionary
281
1
  3
Normal
350
13
100
AcDbDictionaryWithDefault
340
13
  0
ACDBPLACEHOLDER
  5
13
330
12
  0
DICTIONARY
  5
14
330
A
100
AcDbDictionary
281
1
  0
DICTIONARY
  5
15
330
A
100
AcDbDictionary
281
1
  0
DICTIONARY
  5
16
330
A
100
AcDbDictionary
281
1
  0
LAYOUT
  5
1A
330
D
100
AcDbPlotSettings
  1

  4
A3
  6

 40
7.5
 41
20.0
 42
7.5
 43
20.0
 44
420.0
 45
297.0
 46
0.0
 47
0.0
 48
0.0
 49
0.0
140
0.0
141
0.0
142
1.0
143
1.0
 70
1024
 72
1
 73
0
 74
5
  7

 75
16
 76
0
 77
2
 78
300
147
1.0
148
0.0
149
0.0
100
AcDbLayout
  1
Model
 70
1
 71
0
 10
0.0
 20
0.0
 11
420.0
 21
297.0
 12
0.0
 22
0.0
 32
0.0
 14
1e+20
 24
1e+20
 34
1e+20
 15
-1e+20
 25
-1e+20
 35
-1e+20
146
0.0
 13
0.0
 23
0.0
 33
0.0
 16
1.0
 26
0.0
 36
0.0
 17
0.0
 27
1.0
 37
0.0
 76
1
330
17
  0
LAYOUT
  5
1E
330
D
100
AcDbPlotSettings
  1

  4
A3
  6

 40
7.5
 41
20.0
 42
7.5
 43
20.0
 44
420.0
 45
297.0
 46
0.0
 47
0.0
 48
0.0
 49
0.0
140
0.0
141
0.0
142
1.0
143
1.0
 70
0
 72
1
 73
0
 74
5
  7

 75
16
 76
0
 77
2
 78
300
147
1.0
148
0.0
149
0.0
100
AcDbLayout
  1
Layout1
 70
1
 71
1
 10
0.0
 20
0.0
 11
420.0
 21
297.0
 12
0.0
 22
0.0
 32
0.0
 14
1e+20
 24
1e+20
 34
1e+20
 15
-1e+20
 25
-1e+20
 35
-1e+20
146
0.0
 13
0.0
 23
0.0
 33
0.0
 16
1.0
 26
0.0
 36
0.0
 17
0.0
 27
1.0
 37
0.0
 76
1
330
1B
  0
MATERIAL
  5
1F
102
{ACAD_REACTORS
330
E
102
}
330
E
100
AcDbMaterial
  1
ByBlock
  2

 70
0
 40
1.0
 71
1
 41
1.0
 91
-1023410177
 42
1.0
 72
1
  3

 73
1
 74
1
 75
1
 44
0.5
 73
0
 45
1.0
 46
1.0
 77
1
  4

 78
1
 79
1
170
1
 48
1.0
171
1
  6

172
1
173
1
174
1
140
1.0
141
1.0
175
1
  7

176
1
177
1
178
1
143
1.0
179
1
  8

270
1
271
1
272
1
145
1.0
146
1.0
273
1
  9

274
1
275
1
276
1
 42
1.0
 72
1
  3

 73
1
 74
1
 75
1
 94
63
  0
MATERIAL
  5
20
102
{ACAD_REACTORS
330
E
102
}
330
E
100
AcDbMaterial
  1
ByLayer
  2

 70
0
 40
1.0
 71
1
 41
1.0
 91
-1023410177
 42
1.0
 72
1
  3

 73
1
 74
1
 75
1
 44
0.5
 73
0
 45
1.0
 46
1.0
 77
1
  4

 78
1
 79
1
170
1
 48
1.0
171
1
  6

172
1
173
1
174
1
140
1.0
141
1.0
175
1
  7

176
1
177
1
178
1
143
1.0
179
1
  8

270
1
271
1
272
1
145
1.0
146
1.0
273
1
  9

274
1
275
1
276
1
 42
1.0
 72
1
  3

 73
1
 74
1
 75
1
 94
63
  0
MATERIAL
  5
21
102
{ACAD_REACTORS
330
E
102
}
330
E
100
AcDbMaterial
  1
Global
  2

 70
0
 40
1.0
 71
1
 41
1.0
 91
-1023410177
 42
1.0
 72
1
  3

 73
1
 74
1
 75
1
 44
0.5
 73
0
 45
1.0
 46
1.0
 77
1
  4

 78
1
 79
1
170
1
 48
1.0
171
1
  6

172
1
173
1
174
1
140
1.0
141
1.0
175
1
  7

176
1
177
1
178
1
143
1.0
179
1
  8

270
1
271
1
272
1
145
1.0
146
1.0
273
1
  9

274
1
275
1
276
1
 42
1.0
 72
1
  3

 73
1
 74
1
 75
1
 94
63
  0
MLINESTYLE
  5
22
102
{ACAD_REACTORS
330
10
102
}
330
10
100
AcDbMlineStyle
  2
Standard
 70
0
  3

 62
256
 51
90.0
 52
90.0
 71
2
 49
0.5
 62
256
  6
BYLAYER
 49
-0.5
 62
256
  6
BYLAYER
  0
MLEADERSTYLE
  5
2C
102
{ACAD_REACTORS
330
F
102
}
330
F
100
AcDbMLeaderStyle
179
2
170
2
171
1
172
0
 90
2
 40
0.0
 41
0.0
173
1
 91
-1056964608
 92
-2
290
1
 42
2.0
291
1
 43
8.0
  3
Standard
 44
4.0
300

342
29
174
1
175
1
176
0
178
1
 93
-1056964608
 45
4.0
292
0
297
0
 46
4.0
 94
-1056964608
 47
1.0
 49
1.0
140
1.0
294
1
141
0.0
177
0
142
1.0
295
0
296
0
143
3.75
271
0
272
9
273
9
  0
DICTIONARY
  5
2D
330
A
100
AcDbDictionary
280
1
281
1
  3
CREATED_BY_EZDXF
350
2E
  3
WRITTEN_BY_EZDXF
350
17D
  0
DICTIONARYVAR
  5
2E
330
2D
100
DictionaryVariables
280
0
  1
1.4.4 @ 2026-09-23T17:59:03.649805+00:00
  0
DICTIONARYVAR
  5
17D
330
2D
100
DictionaryVariables
280
0
  1
1.4.4 @ 2026-09-23T17:59:03.785311+00:00
  0
ENDSEC
  0
EOF
