  0
SECTION
  2
HEADER
  9
$ACADVER
  1
AC1032
  9
$ACADMAINTVER
 90
4
  9
$DWGCODEPAGE
  3
ANSI_1252
  9
$LASTSAVEDBY
  1
ezdxf
  9
$REQUIREDVERSIONS
160
0
  9
$INSBASE
 10
0.0
 20
0.0
 30
0.0
  9
$EXTMIN
 10
1e+20
 20
1e+20
 30
1e+20
  9
$EXTMAX
 10
-1e+20
 20
-1e+20
 30
-1e+20
  9
$LIMMIN
 10
0.0
 20
0.0
  9
$LIMMAX
 10
420.0
 20
297.0
  9
$ORTHOMODE
 70
0
  9
$REGENMODE
 70
1
  9
$FILLMODE
 70
1
  9
$QTEXTMODE
 70
0
  9
$MIRRTEXT
 70
1
  9
$LTSCALE
 40
1.0
  9
$ATTMODE
 70
1
  9
$TEXTSIZE
 40
2.5
  9
$TRACEWID
 40
1.0
  9
$TEXTSTYLE
  7
Standard
  9
$CLAYER
  8
0
  9
$CELTYPE
  6
ByLayer
  9
$CECOLOR
 62
256
  9
$CELTSCALE
 40
1.0
  9
$DISPSILH
 70
0
  9
$DIMSCALE
 40
1.0
  9
$DIMASZ
 40
2.5
  9
$DIMEXO
 40
0.625
  9
$DIMDLI
 40
3.75
  9
$DIMRND
 40
0.0
  9
$DIMDLE
 40
0.0
  9
$DIMEXE
 40
1.25
  9
$DIMTP
 40
0.0
  9
$DIMTM
 40
0.0
  9
$DIMTXT
 40
2.5
  9
$DIMCEN
 40
2.5
  9
$DIMTSZ
 40
0.0
  9
$DIMTOL
 70
0
  9
$DIMLIM
 70
0
  9
$DIMTIH
 70
0
  9
$DIMTOH
 70
0
  9
$DIMSE1
 70
0
  9
$DIMSE2
 70
0
  9
$DIMTAD
 70
1
  9
$DIMZIN
 70
8
  9
$DIMBLK
  1

  9
$DIMASO
 70
1
  9
$DIMSHO
 70
1
  9
$DIMPOST
  1

  9
$DIMAPOST
  1

  9
$DIMALT
 70
0
  9
$DIMALTD
 70
3
  9
$DIMALTF
 40
0.03937007874
  9
$DIMLFAC
 40
1.0
  9
$DIMTOFL
 70
1
  9
$DIMTVP
 40
0.0
  9
$DIMTIX
 70
0
  9
$DIMSOXD
 70
0
  9
$DIMSAH
 70
0
  9
$DIMBLK1
  1

  9
$DIMBLK2
  1

  9
$DIMSTYLE
  2
ISO-25
  9
$DIMCLRD
 70
0
  9
$DIMCLRE
 70
0
  9
$DIMCLRT
 70
0
  9
$DIMTFAC
 40
1.0
  9
$DIMGAP
 40
0.625
  9
$DIMJUST
 70
0
  9
$DIMSD1
 70
0
  9
$DIMSD2
 70
0
  9
$DIMTOLJ
 70
0
  9
$DIMTZIN
 70
8
  9
$DIMALTZ
 70
0
  9
$DIMALTTZ
 70
0
  9
$DIMUPT
 70
0
  9
$DIMDEC
 70
2
  9
$DIMTDEC
 70
2
  9
$DIMALTU
 70
2
  9
$DIMALTTD
 70
3
  9
$DIMTXSTY
  7
Standard
  9
$DIMAUNIT
 70
0
  9
$DIMADEC
 70
0
  9
$DIMALTRND
 40
0.0
  9
$DIMAZIN
 70
0
  9
$DIMDSEP
 70
44
  9
$DIMATFIT
 70
3
  9
$DIMFRAC
 70
0
  9
$DIMLDRBLK
  1

  9
$DIMLUNIT
 70
2
  9
$DIMLWD
 70
-2
  9
$DIMLWE
 70
-2
  9
$DIMTMOVE
 70
0
  9
$DIMFXL
 40
1.0
  9
$DIMFXLON
 70
0
  9
$DIMJOGANG
 40
0.785398163397
  9
$DIMTFILL
 70
0
  9
$DIMTFILLCLR
 70
0
  9
$DIMARCSYM
 70
0
  9
$DIMLTYPE
  6

  9
$DIMLTEX1
  6

  9
$DIMLTEX2
  6

  9
$DIMTXTDIRECTION
 70
0
  9
$LUNITS
 70
2
  9
$LUPREC
 70
4
  9
$SKETCHINC
 40
1.0
  9
$FILLETRAD
 40
10.0
  9
$AUNITS
 70
0
  9
$AUPREC
 70
2
  9
$MENU
  1
.
  9
$ELEVATION
 40
0.0
  9
$PELEVATION
 40
0.0
  9
$THICKNESS
 40
0.0
  9
$LIMCHECK
 70
0
  9
$CHAMFERA
 40
0.0
  9
$CHAMFERB
 40
0.0
  9
$CHAMFERC
 40
0.0
  9
$CHAMFERD
 40
0.0
  9
$SKPOLY
 70
0
  9
$TDCREATE
 40
2461307.8288425924
  9
$TDUCREATE
 40
2458532.153996898
  9
$TDUPDATE
 40
2461307.8288425924
  9
$TDUUPDATE
 40
2458532.1544311
  9
$TDINDWG
 40
0.0
  9
$TDUSRTIMER
 40
0.0
  9
$USRTIMER
 70
1
  9
$ANGBASE
 50
0.0
  9
$ANGDIR
 70
0
  9
$PDMODE
 70
0
  9
$PDSIZE
 40
0.0
  9
$PLINEWID
 40
0.0
  9
$SPLFRAME
 70
0
  9
$SPLINETYPE
 70
6
  9
$SPLINESEGS
 70
8
  9
$HANDSEED
  5
D9
  9
$SURFTAB1
 70
6
  9
$SURFTAB2
 70
6
  9
$SURFTYPE
 70
6
  9
$SURFU
 70
6
  9
$SURFV
 70
6
  9
$UCSBASE
  2

  9
$UCSNAME
  2

  9
$UCSORG
 10
0.0
 20
0.0
 30
0.0
  9
$UCSXDIR
 10
1.0
 20
0.0
 30
0.0
  9
$UCSYDIR
 10
0.0
 20
1.0
 30
0.0
  9
$UCSORTHOREF
  2

  9
$UCSORTHOVIEW
 70
0
  9
$UCSORGTOP
 10
0.0
 20
0.0
 30
0.0
  9
$UCSORGBOTTOM
 10
0.0
 20
0.0
 30
0.0
  9
$UCSORGLEFT
 10
0.0
 20
0.0
 30
0.0
  9
$UCSORGRIGHT
 10
0.0
 20
0.0
 30
0.0
  9
$UCSORGFRONT
 10
0.0
 20
0.0
 30
0.0
  9
$UCSORGBACK
 10
0.0
 20
0.0
 30
0.0
  9
$PUCSBASE
  2

  9
$PUCSNAME
  2

  9
$PUCSORG
 10
0.0
 20
0.0
 30
0.0
  9
$PUCSXDIR
 10
1.0
 20
0.0
 30
0.0
  9
$PUCSYDIR
 10
0.0
 20
1.0
 30
0.0
  9
$PUCSORTHOREF
  2

  9
$PUCSORTHOVIEW
 70
0
  9
$PUCSORGTOP
 10
0.0
 20
0.0
 30
0.0
  9
$PUCSORGBOTTOM
 10
0.0
 20
0.0
 30
0.0
  9
$PUCSORGLEFT
 10
0.0
 20
0.0
 30
0.0
  9
$PUCSORGRIGHT
 10
0.0
 20
0.0
 30
0.0
  9
$PUCSORGFRONT
 10
0.0
 20
0.0
 30
0.0
  9
$PUCSORGBACK
 10
0.0
 20
0.0
 30
0.0
  9
$USERI1
 70
0
  9
$USERI2
 70
0
  9
$USERI3
 70
0
  9
$USERI4
 70
0
  9
$USERI5
 70
0
  9
$USERR1
 40
0.0
  9
$USERR2
 40
0.0
  9
$USERR3
 40
0.0
  9
$USERR4
 40
0.0
  9
$USERR5
 40
0.0
  9
$WORLDVIEW
 70
1
  9
$SHADEDGE
 70
3
  9
$SHADEDIF
 70
70
  9
$TILEMODE
 70
1
  9
$MAXACTVP
 70
64
  9
$PINSBASE
 10
0.0
 20
0.0
 30
0.0
  9
$PLIMCHECK
 70
0
  9
$PEXTMIN
 10
1e+20
 20
1e+20
 30
1e+20
  9
$PEXTMAX
 10
-1e+20
 20
-1e+20
 30
-1e+20
  9
$PLIMMIN
 10
0.0
 20
0.0
  9
$PLIMMAX
 10
420.0
 20
297.0
  9
$UNITMODE
 70
0
  9
$VISRETAIN
 70
1
  9
$PLINEGEN
 70
0
  9
$PSLTSCALE
 70
1
  9
$TREEDEPTH
 70
3020
  9
$CMLSTYLE
  2
Standard
  9
$CMLJUST
 70
0
  9
$CMLSCALE
 40
20.0
  9
$PROXYGRAPHICS
 70
1
  9
$MEASUREMENT
 70
1
  9
$CELWEIGHT
370
-1
  9
$ENDCAPS
280
0
  9
$JOINSTYLE
280
0
  9
$LWDISPLAY
290
0
  9
$INSUNITS
 70
0
  9
$HYPERLINKBASE
  1

  9
$STYLESHEET
  1

  9
$XEDIT
290
1
  9
$CEPSNTYPE
380
0
  9
$PSTYLEMODE
290
1
  9
$FINGERPRINTGUID
  2
{1B1FE68D-4B1E-4644-BF64-AF5F601810B8}
  9
$VERSIONGUID
  2
{643A9747-642E-43E4-A1E8-CE59D2297D36}
  9
$EXTNAMES
290
1
  9
$PSVPSCALE
 40
0.0
  9
$OLESTARTUP
290
0
  9
$SORTENTS
280
127
  9
$INDEXCTL
280
0
  9
$HIDETEXT
280
1
  9
$XCLIPFRAME
280
1
  9
$HALOGAP
280
0
  9
$OBSCOLOR
 70
257
  9
$OBSLTYPE
280
0
  9
$INTERSECTIONDISPLAY
280
0
  9
$INTERSECTIONCOLOR
 70
257
  9
$DIMASSOC
280
2
  9
$PROJECTNAME
  1

  9
$CAMERADISPLAY
290
0
  9
$LENSLENGTH
 40
50.0
  9
$CAMERAHEIGHT
 40
0.0
  9
$STEPSPERSEC
 40
24.0
  9
$STEPSIZE
 40
100.0
  9
$3DDWFPREC
 40
2.0
  9
$PSOLWIDTH
 40
0.005
  9
$PSOLHEIGHT
 40
0.08
  9
$LOFTANG1
 40
1.570796326795
  9
$LOFTANG2
 40
1.570796326795
  9
$LOFTMAG1
 40
0.0
  9
$LOFTMAG2
 40
0.0
  9
$LOFTPARAM
 70
7
  9
$LOFTNORMALS
280
1
  9
$LATITUDE
 40
37.795
  9
$LONGITUDE
 40
-122.394
  9
$NORTHDIRECTION
 40
0.0
  9
$TIMEZONE
 70
-8000
  9
$LIGHTGLYPHDISPLAY
280
1
  9
$TILEMODELIGHTSYNCH
280
1
  9
$CMATERIAL
347
20
  9
$SOLIDHIST
280
0
  9
$SHOWHIST
280
1
  9
$DWFFRAME
280
2
  9
$DGNFRAME
280
2
  9
$REALWORLDSCALE
290
1
  9
$INTERFERECOLOR
 62
256
  9
$CSHADOW
280
0
  9
$SHADOWPLANELOCATION
 40
0.0
  0
ENDSEC
  0
SECTION
  2
CLASSES
  0
CLASS
  1
ACDBDICTIONARYWDFLT
  2
AcDbDictionaryWithDefault
  3
ObjectDBX Classes
 90
0
 91
0
280
0
281
0
  0
CLASS
  1
SUN
  2
AcDbSun
  3
SCENEOE
 90
1153
 91
0
280
0
281
0
  0
CLASS
  1
VISUALSTYLE
  2
AcDbVisualStyle
  3
ObjectDBX Classes
 90
4095
 91
0
280
0
281
0
  0
CLASS
  1
MATERIAL
  2
AcDbMaterial
  3
ObjectDBX Classes
 90
1153
 91
0
280
0
281
0
  0
CLASS
  1
SCALE
  2
AcDbScale
  3
ObjectDBX Classes
 90
1153
 91
0
280
0
281
0
  0
CLASS
  1
TABLESTYLE
  2
AcDbTableStyle
  3
ObjectDBX Classes
 90
4095
 91
0
280
0
281
0
  0
CLASS
  1
MLEADERSTYLE
  2
AcDbMLeaderStyle
  3
ACDB_MLEADERSTYLE_CLASS
 90
4095
 91
0
280
0
281
0
  0
CLASS
  1
DICTIONARYVAR
  2
AcDbDictionaryVar
  3
ObjectDBX Classes
 90
0
 91
0
280
0
281
0
  0
CLASS
  1
CELLSTYLEMAP
  2
AcDbCellStyleMap
  3
ObjectDBX Classes
 90
1152
 91
0
280
0
281
0
  0
CLASS
  1
MENTALRAYRENDERSETTINGS
  2
AcDbMentalRayRenderSettings
  3
SCENEOE
 90
1024
 91
0
280
0
281
0
  0
CLASS
  1
ACDBDETAILVIEWSTYLE
  2
AcDbDetailViewStyle
  3
ObjectDBX Classes
 90
1025
 91
0
280
0
281
0
  0
CLASS
  1
ACDBSECTIONVIEWSTYLE
  2
AcDbSectionViewStyle
  3
ObjectDBX Classes
 90
1025
 91
0
280
0
281
0
  0
CLASS
  1
RASTERVARIABLES
  2
AcDbRasterVariables
  3
ISM
 90
0
 91
0
280
0
281
0
  0
CLASS
  1
LAYOUT
  2
AcDbLayout
  3
ObjectDBX Classes
 90
0
 91
0
280
0
281
0
  0
CLASS
  1
ACDBPLACEHOLDER
  2
AcDbPlaceHolder
  3
ObjectDBX Classes
 90
0
 91
0
280
0
281
0
  0
ENDSEC
  0
SECTION
  2
TABLES
  0
TABLE
  2
VPORT
  5
8
330
0
100
AcDbSymbolTable
 70
1
  0
VPORT
  5
23
330
8
100
AcDbSymbolTableRecord
100
AcDbViewportTableRecord
  2
*Active
 70
0
 10
0.0
 20
0.0
 11
1.0
 21
1.0
 12
0.0
 22
0.0
 13
0.0
 23
0.0
 14
0.5
 24
0.5
 15
0.5
 25
0.5
 16
0.0
 26
0.0
 36
1.0
 17
0.0
 27
0.0
 37
0.0
 40
1000.0
 41
1.34
 42
50.0
 43
0.0
 44
0.0
 50
0.0
 51
0.0
 71
0
 72
1000
 73
1
 74
3
 75
0
 76
0
 77
0
 78
0
281
0
 65
0
146
0.0
  0
ENDTAB
  0
TABLE
  2
LTYPE
  5
2
330
0
100
AcDbSymbolTable
 70
4
  0
LTYPE
  5
24
330
2
100
AcDbSymbolTableRecord
100
AcDbLinetypeTableRecord
  2
ByBlock
 70
0
  3

 72
65
 73
0
 40
0.0
  0
LTYPE
  5
25
330
2
100
AcDbSymbolTableRecord
100
AcDbLinetypeTableRecord
  2
ByLayer
 70
0
  3

 72
65
 73
0
 40
0.0
  0
LTYPE
  5
26
330
2
100
AcDbSymbolTableRecord
100
AcDbLinetypeTableRecord
  2
Continuous
 70
0
  3

 72
65
 73
0
 40
0.0
  0
LTYPE
  5
D2
330
2
100
AcDbSymbolTableRecord
100
AcDbLinetypeTableRecord
  2
DASHED
 70
0
  3
Dashed __ __ __ __ __ __ __ __ __ __ __ __ __ _
 72
65
 73
2
 40
0.75
 49
0.5
 74
0
 49
-0.25
 74
0
  0
ENDTAB
  0
TABLE
  2
LAYER
  5
1
330
0
100
AcDbSymbolTable
 70
4
  0
LAYER
  5
27
330
1
100
AcDbSymbolTableRecord
100
AcDbLayerTableRecord
  2
0
 70
0
 62
7
  6
Continuous
370
-3
390
13
347
21
  0
LAYER
  5
28
330
1
100
AcDbSymbolTableRecord
100
AcDbLayerTableRecord
  2
Defpoints
 70
0
 62
7
  6
Continuous
290
0
370
-3
390
13
347
21
  0
LAYER
  5
D0
330
1
100
AcDbSymbolTableRecord
100
AcDbLayerTableRecord
  2
--8N-THT. FIXING HOLE
 70
0
 62
4
  6
CONTINUOUS
370
-3
390
13
347
21
  0
LAYER
  5
D1
330
1
100
AcDbSymbolTableRecord
100
AcDbLayerTableRecord
  2
--4N-THT. MCB-MCCB-ACB
 70
0
 62
124
  6
CONTINUOUS
370
-3
390
13
347
21
  0
ENDTAB
  0
TABLE
  2
STYLE
  5
5
330
0
100
AcDbSymbolTable
 70
2
  0
STYLE
  5
29
330
5
100
AcDbSymbolTableRecord
100
AcDbTextStyleTableRecord
  2
Standard
 70
0
 40
0.0
 41
1.0
 50
0.0
 71
0
 42
2.5
  3
txt
  4

  0
STYLE
  5
D3
330
5
100
AcDbSymbolTableRecord
100
AcDbTextStyleTableRecord
  2
VNI-TNR-DIM
 70
0
 40
0.0
 41
1.0
 50
0.0
 71
0
 42
500.0
  3
times.ttf
  4

  0
ENDTAB
  0
TABLE
  2
VIEW
  5
7
330
0
100
AcDbSymbolTable
 70
0
  0
ENDTAB
  0
TABLE
  2
UCS
  5
6
330
0
100
AcDbSymbolTable
 70
0
  0
ENDTAB
  0
TABLE
  2
APPID
  5
3
330
0
100
AcDbSymbolTable
 70
3
  0
APPID
  5
2A
330
3
100
AcDbSymbolTableRecord
100
AcDbRegAppTableRecord
  2
ACAD
 70
0
  0
APPID
  5
D6
330
3
100
AcDbSymbolTableRecord
100
AcDbRegAppTableRecord
  2
HATCHBACKGROUNDCOLOR
 70
0
  0
APPID
  5
D7
330
3
100
AcDbSymbolTableRecord
100
AcDbRegAppTableRecord
  2
EZDXF
 70
0
  0
ENDTAB
  0
TABLE
  2
DIMSTYLE
  5
4
330
0
100
AcDbSymbolTable
 70
1
100
AcDbDimStyleTable
  0
DIMSTYLE
105
2B
330
4
100
AcDbSymbolTableRecord
100
AcDbDimStyleTableRecord
  2
Standard
 70
0
 40
1.0
 41
2.5
 42
0.625
 43
3.75
 44
1.25
 45
0.0
 46
0.0
 47
0.0
 48
0.0
 49
2.5
140
2.5
141
2.5
142
0.0
143
0.03937007874
144
1.0
145
0.0
146
1.0
147
0.625
148
0.0
 69
0
 70
0
 71
0
 72
0
 73
0
 74
0
 75
0
 76
0
 77
1
 78
8
 79
3
170
0
171
3
172
1
173
0
174
0
175
0
176
0
177
0
178
0
179
2
271
2
272
2
273
2
274
3
275
0
276
0
277
2
278
44
279
0
280
0
281
0
282
0
283
0
284
8
285
0
286
0
288
0
289
3
290
0
371
-2
372
-2
  0
ENDTAB
  0
TABLE
  2
BLOCK_RECORD
  5
9
330
0
100
AcDbSymbolTable
 70
3
  0
BLOCK_RECORD
  5
17
330
9
100
AcDbSymbolTableRecord
100
AcDbBlockTableRecord
  2
*Model_Space
340
1A
 70
0
280
1
281
0
  0
BLOCK_RECORD
  5
1B
330
9
100
AcDbSymbolTableRecord
100
AcDbBlockTableRecord
  2
*Paper_Space
340
1E
 70
0
280
1
281
0
  0
BLOCK_RECORD
  5
2F
330
9
100
AcDbSymbolTableRecord
100
AcDbBlockTableRecord
  2
06 - N - SC MCCB EZC400~630 3 PHASE
340
0
 70
0
280
1
281
0
  0
ENDTAB
  0
ENDSEC
  0
SECTION
  2
BLOCKS
  0
BLOCK
  5
18
330
17
100
AcDbEntity
  8
0
100
AcDbBlockBegin
  2
*Model_Space
 70
0
 10
0.0
 20
0.0
 30
0.0
  3
*Model_Space
  1

  0
ENDBLK
  5
19
330
17
100
AcDbEntity
  8
0
100
AcDbBlockEnd
  0
BLOCK
  5
1C
330
1B
100
AcDbEntity
  8
0
100
AcDbBlockBegin
  2
*Paper_Space
 70
0
 10
0.0
 20
0.0
 30
0.0
  3
*Paper_Space
  1

  0
ENDBLK
  5
1D
330
1B
100
AcDbEntity
  8
0
100
AcDbBlockEnd
  0
BLOCK
  5
30
330
2F
100
AcDbEntity
  8
0
100
AcDbBlockBegin
  2
06 - N - SC MCCB EZC400~630 3 PHASE
 70
2
 10
0.0
 20
0.0
 30
0.0
  3
06 - N - SC MCCB EZC400~630 3 PHASE
  1

  0
LWPOLYLINE
  5
32
330
2F
100
AcDbEntity
  8
--4N-THT. MCB-MCCB-ACB
100
AcDbPolyline
 90
4
 70
1
 10
-70.00000000000182
 20
127.5000129928812
 10
70.0
 20
127.5000129928812
 10
70.0
 20
-127.5000129928776
 10
-70.00000000000182
 20
-127.5000129928776
  0
LWPOLYLINE
  5
33
330
2F
100
AcDbEntity
  8
--4N-THT. MCB-MCCB-ACB
 62
1
100
AcDbPolyline
 90
4
 70
1
 10
-69.99999999925603
 20
90.50001299288124
 10
70.00000000074579
 20
90.50001299288124
 10
70.0
 20
-90.5000129928776
 10
-70.00000000000182
 20
-90.5000129928776
  0
CIRCLE
  5
34
330
2F
100
AcDbEntity
  8
--8N-THT. FIXING HOLE
100
AcDbCircle
 10
-22.5
 20
-99.99999999999818
 30
0.0
 40
2.5
  0
CIRCLE
  5
35
330
2F
100
AcDbEntity
  8
--4N-THT. MCB-MCCB-ACB
100
AcDbCircle
 10
0.0
 20
-113.5000129928776
 30
0.0
 40
6.0
  0
LWPOLYLINE
  5
36
330
2F
100
AcDbEntity
  8
--4N-THT. MCB-MCCB-ACB
100
AcDbPolyline
 90
4
 70
1
 10
-12.99998779451744
 20
-127.5000129930631
 10
12.99998779451744
 20
-127.5000129926902
 10
12.99998779451744
 20
-102.5000129926902
 10
-12.99998779451744
 20
-102.5000129930631
  0
CIRCLE
  5
37
330
2F
100
AcDbEntity
  8
--4N-THT. MCB-MCCB-ACB
100
AcDbCircle
 10
45.0
 20
-113.5000129928776
 30
0.0
 40
6.0
  0
LWPOLYLINE
  5
38
330
2F
100
AcDbEntity
  8
--4N-THT. MCB-MCCB-ACB
100
AcDbPolyline
 90
4
 70
1
 10
32.00001220548256
 20
-127.5000129930631
 10
57.99998779451744
 20
-127.5000129926902
 10
57.99998779451744
 20
-102.5000129926902
 10
32.00001220548256
 20
-102.5000129930631
  0
CIRCLE
  5
39
330
2F
100
AcDbEntity
  8
--4N-THT. MCB-MCCB-ACB
100
AcDbCircle
 10
-45.0
 20
-113.5000129928776
 30
0.0
 40
6.0
  0
LWPOLYLINE
  5
3A
330
2F
100
AcDbEntity
  8
--4N-THT. MCB-MCCB-ACB
100
AcDbPolyline
 90
4
 70
1
 10
-57.99998779451744
 20
-127.5000129930631
 10
-32.00001220548256
 20
-127.5000129926902
 10
-32.00001220548256
 20
-102.5000129926902
 10
-57.99998779451744
 20
-102.5000129930631
  0
CIRCLE
  5
3B
330
2F
100
AcDbEntity
  8
--8N-THT. FIXING HOLE
100
AcDbCircle
 10
22.5
 20
-99.99999999999818
 30
0.0
 40
2.5
  0
CIRCLE
  5
3C
330
2F
100
AcDbEntity
  8
--8N-THT. FIXING HOLE
100
AcDbCircle
 10
-22.5
 20
100.0000000000018
 30
0.0
 40
2.5
  0
CIRCLE
  5
3D
330
2F
100
AcDbEntity
  8
--8N-THT. FIXING HOLE
100
AcDbCircle
 10
22.5
 20
100.0000000000018
 30
0.0
 40
2.5
  0
CIRCLE
  5
3E
330
2F
100
AcDbEntity
  8
--4N-THT. MCB-MCCB-ACB
100
AcDbCircle
 10
0.0
 20
113.5000129928812
 30
0.0
 40
6.0
  0
LWPOLYLINE
  5
3F
330
2F
100
AcDbEntity
  8
--4N-THT. MCB-MCCB-ACB
100
AcDbPolyline
 90
4
 70
1
 10
-12.99998779451744
 20
127.5000129930667
 10
12.99998779451744
 20
127.5000129926939
 10
12.99998779451744
 20
102.5000129926939
 10
-12.99998779451744
 20
102.5000129930667
  0
CIRCLE
  5
40
330
2F
100
AcDbEntity
  8
--4N-THT. MCB-MCCB-ACB
100
AcDbCircle
 10
45.0
 20
113.5000129928812
 30
0.0
 40
6.0
  0
LWPOLYLINE
  5
41
330
2F
100
AcDbEntity
  8
--4N-THT. MCB-MCCB-ACB
100
AcDbPolyline
 90
4
 70
1
 10
32.00001220548256
 20
127.5000129930667
 10
57.99998779451744
 20
127.5000129926939
 10
57.99998779451744
 20
102.5000129926939
 10
32.00001220548256
 20
102.5000129930667
  0
CIRCLE
  5
42
330
2F
100
AcDbEntity
  8
--4N-THT. MCB-MCCB-ACB
100
AcDbCircle
 10
-45.0
 20
113.5000129928812
 30
0.0
 40
6.0
  0
LWPOLYLINE
  5
43
330
2F
100
AcDbEntity
  8
--4N-THT. MCB-MCCB-ACB
100
AcDbPolyline
 90
4
 70
1
 10
-57.99998779451744
 20
127.5000129930667
 10
-32.00001220548256
 20
127.5000129926939
 10
-32.00001220548256
 20
102.5000129926939
 10
-57.99998779451744
 20
102.5000129930667
  0
LINE
  5
44
330
2F
100
AcDbEntity
  8
--4N-THT. MCB-MCCB-ACB
  6
DASHED
 62
6
100
AcDbLine
 10
-70.00000000000182
 20
0.0
 30
0.0
 11
70.0
 21
0.0
 31
0.0
  0
LINE
  5
45
330
2F
100
AcDbEntity
  8
--4N-THT. MCB-MCCB-ACB
  6
DASHED
 62
6
100
AcDbLine
 10
0.0
 20
-127.5000129928776
 30
0.0
 11
0.0
 21
127.5000129928812
 31
0.0
  0
TEXT
  5
46
330
2F
100
AcDbEntity
  8
--4N-THT. MCB-MCCB-ACB
 62
3
100
AcDbText
 10
-57.67464889917755
 20
6.099862642133302
 30
0.0
 40
3.0
  1
MCCB 3P
  7
VNI-TNR-DIM
100
AcDbText
  0
ATTDEF
  5
47
330
2F
100
AcDbEntity
  8
--4N-THT. MCB-MCCB-ACB
 62
3
100
AcDbText
 10
-48.14573271605877
 20
0.9850049103351921
 30
0.0
 40
3.0
  1

  7
VNI-TNR-DIM
 72
1
 11
-48.14573271605877
 21
2.485004910335192
 31
0.0
100
AcDbAttributeDefinition
  3
320~600A
  2
320~600A
 70
0
 74
2
280
1
 71
1
 72
0
 11
-48.14573271605877
 21
2.485004910335192
 31
0.0
  0
ATTDEF
  5
48
330
2F
100
AcDbEntity
  8
--4N-THT. MCB-MCCB-ACB
 62
3
100
AcDbText
 10
-48.14573271605877
 20
-8.273065746934662
 30
0.0
 40
3.0
  1

  7
VNI-TNR-DIM
 72
1
 11
-48.14573271605877
 21
-6.773065746934662
 31
0.0
100
AcDbAttributeDefinition
  3
36~50KA
  2
36~50KA
 70
0
 74
2
280
1
 71
1
 72
0
 11
-48.14573271605877
 21
-6.773065746934662
 31
0.0
  0
ATTDEF
  5
49
330
2F
100
AcDbEntity
  8
--4N-THT. MCB-MCCB-ACB
 62
3
100
AcDbText
 10
-48.14573271605877
 20
-3.914171740556412
 30
0.0
 40
3.0
  1

  7
VNI-TNR-DIM
 72
1
 11
-48.14573271605877
 21
-2.414171740556412
 31
0.0
100
AcDbAttributeDefinition
  3
EZC400~630
  2
EZC400~630
 70
0
 74
2
280
1
 71
1
 72
0
 11
-48.14573271605877
 21
-2.414171740556412
 31
0.0
  0
LINE
  5
4A
330
2F
100
AcDbEntity
  8
--4N-THT. MCB-MCCB-ACB
100
AcDbLine
 10
-12.67774017065949
 20
11.64793973669929
 30
0.0
 11
-11.97331644104906
 21
-2.213253737540988
 31
0.0
  0
LINE
  5
4B
330
2F
100
AcDbEntity
  8
--4N-THT. MCB-MCCB-ACB
100
AcDbLine
 10
-12.67989122710878
 20
11.73402332691966
 30
0.0
 11
-11.97559479040956
 21
-2.124665379539699
 31
0.0
  0
LINE
  5
4C
330
2F
100
AcDbEntity
  8
--4N-THT. MCB-MCCB-ACB
100
AcDbLine
 10
-11.97331644104906
 20
-2.213253737540988
 30
0.0
 11
-11.97349438742185
 21
-2.209680869012125
 31
0.0
  0
LINE
  5
4D
330
2F
100
AcDbEntity
  8
--4N-THT. MCB-MCCB-ACB
100
AcDbLine
 10
-11.97559470641045
 20
5.757621145975456
 30
0.0
 11
-12.67989122710878
 21
22.22797947888739
 31
0.0
  0
LINE
  5
4E
330
2F
100
AcDbEntity
  8
--4N-THT. MCB-MCCB-ACB
100
AcDbLine
 10
-12.67774936973092
 20
11.64809164617599
 30
0.0
 11
-12.67984089182119
 21
11.7201291312076
 31
0.0
  0
LINE
  5
4F
330
2F
100
AcDbEntity
  8
--4N-THT. MCB-MCCB-ACB
100
AcDbLine
 10
-11.97349438742185
 20
-2.209680869012125
 30
0.0
 11
-11.97559437295876
 21
-2.124673585908574
 31
0.0
  0
LINE
  5
50
330
2F
100
AcDbEntity
  8
--4N-THT. MCB-MCCB-ACB
100
AcDbLine
 10
-13.83083858269037
 20
53.89758060790791
 30
0.0
 11
-13.83083858269037
 21
-20.75394275144664
 31
0.0
  0
LINE
  5
51
330
2F
100
AcDbEntity
  8
--4N-THT. MCB-MCCB-ACB
100
AcDbLine
 10
-13.5817799803508
 20
53.89758060790791
 30
0.0
 11
-13.58180225930209
 21
22.2270053950333
 31
0.0
  0
LINE
  5
52
330
2F
100
AcDbEntity
  8
--4N-THT. MCB-MCCB-ACB
100
AcDbLine
 10
-13.58180225930209
 20
22.22471413540643
 30
0.0
 11
-13.58178888144994
 21
-14.82478729258856
 31
0.0
  0
LINE
  5
53
330
2F
100
AcDbEntity
  8
--4N-THT. MCB-MCCB-ACB
100
AcDbLine
 10
-13.5817710705096
 20
49.02505328544703
 30
0.0
 11
-13.58177559877822
 21
41.33248466682471
 31
0.0
  0
LINE
  5
54
330
2F
100
AcDbEntity
  8
--4N-THT. MCB-MCCB-ACB
100
AcDbLine
 10
-12.67989122710878
 20
11.73402332691966
 30
0.0
 11
-12.67989122710878
 21
22.22797947888739
 31
0.0
  0
LINE
  5
55
330
2F
100
AcDbEntity
  8
--4N-THT. MCB-MCCB-ACB
100
AcDbLine
 10
-11.93220540564925
 20
23.9849308683979
 30
0.0
 11
-12.42786002426055
 21
23.14778157787532
 31
0.0
  0
LINE
  5
56
330
2F
100
AcDbEntity
  8
--4N-THT. MCB-MCCB-ACB
100
AcDbLine
 10
-10.20107218397879
 20
24.93160832383637
 30
0.0
 11
-10.70203689896971
 21
24.08549040041271
 31
0.0
  0
LINE
  5
57
330
2F
100
AcDbEntity
  8
--4N-THT. MCB-MCCB-ACB
100
AcDbLine
 10
9.865336611969722
 20
-4.115790669838141
 30
0.0
 11
-9.971648574851315
 21
-4.115781200948738
 31
0.0
  0
LINE
  5
58
330
2F
100
AcDbEntity
  8
--4N-THT. MCB-MCCB-ACB
100
AcDbLine
 10
9.865327881249868
 20
-3.735316416848043
 30
0.0
 11
-9.971642244438954
 21
-3.735306950508864
 31
0.0
  0
LINE
  5
59
330
2F
100
AcDbEntity
  8
--4N-THT. MCB-MCCB-ACB
100
AcDbLine
 10
-13.83083858269037
 20
-20.75394275145027
 30
0.0
 11
13.82783858194034
 21
-20.75394275144664
 31
0.0
  0
LWPOLYLINE
  5
5A
330
2F
100
AcDbEntity
  8
--4N-THT. MCB-MCCB-ACB
100
AcDbPolyline
 90
9
 70
0
 10
-11.97349438742185
 20
-2.209680869012125
 10
-11.92401166124091
 20
-2.564630319152463
 10
-11.78752061120121
 20
-2.959840040374736
 10
-11.56789227398894
 20
-3.323564278481178
 10
-11.27055506891065
 20
-3.637918892712157
 10
-10.90514780977082
 20
-3.885114118103054
 10
-10.48555127550116
 20
-4.048777020420864
 10
-10.03322159976142
 20
-4.114835149584003
 10
-9.971648572310187
 20
-4.115780997316512
  0
LINE
  5
5B
330
2F
100
AcDbEntity
  8
--4N-THT. MCB-MCCB-ACB
100
AcDbLine
 10
-9.97164770686959
 20
7.600677079432891
 30
0.0
 11
-10.67655489193112
 21
24.08531612705429
 31
0.0
  0
LINE
  5
5C
330
2F
100
AcDbEntity
  8
--4N-THT. MCB-MCCB-ACB
100
AcDbLine
 10
-9.971648574851315
 20
-4.115781200948738
 30
0.0
 11
-9.97164977373086
 21
-3.735306950508864
 31
0.0
  0
LINE
  5
5D
330
2F
100
AcDbEntity
  8
--4N-THT. MCB-MCCB-ACB
100
AcDbLine
 10
-9.97164770686959
 20
7.600677079432891
 30
0.0
 11
-9.97164977373086
 21
6.117551714832181
 31
0.0
  0
LINE
  5
5E
330
2F
100
AcDbEntity
  8
--4N-THT. MCB-MCCB-ACB
100
AcDbLine
 10
-4.792350481821813
 20
44.54248186405948
 30
0.0
 11
-4.792350102560703
 21
44.90143592075128
 31
0.0
  0
LINE
  5
5F
330
2F
100
AcDbEntity
  8
--4N-THT. MCB-MCCB-ACB
100
AcDbLine
 10
-4.191074510580619
 20
44.90143563566289
 30
0.0
 11
-4.191074892399228
 21
44.54248157643178
 31
0.0
  0
LINE
  5
60
330
2F
100
AcDbEntity
  8
--4N-THT. MCB-MCCB-ACB
100
AcDbLine
 10
-3.088737346049128
 20
43.54840712102759
 30
0.0
 11
-3.088737259508889
 21
43.50363764584926
 31
0.0
  0
LINE
  5
61
330
2F
100
AcDbEntity
  8
--4N-THT. MCB-MCCB-ACB
100
AcDbLine
 10
-3.088734278849187
 20
46.4119491071915
 30
0.0
 11
-3.088734210122311
 21
46.3758666978565
 31
0.0
  0
LINE
  5
62
330
2F
100
AcDbEntity
  8
--4N-THT. MCB-MCCB-ACB
100
AcDbLine
 10
-2.988524662970121
 20
43.5036375974878
 30
0.0
 11
-2.988524746969233
 21
43.54840707266612
 31
0.0
  0
LINE
  5
63
330
2F
100
AcDbEntity
  8
--4N-THT. MCB-MCCB-ACB
100
AcDbLine
 10
-2.988521613578086
 20
46.37586664949504
 30
0.0
 11
-2.988521682308601
 21
46.41194905882821
 31
0.0
  0
LINE
  5
64
330
2F
100
AcDbEntity
  8
--4N-THT. MCB-MCCB-ACB
100
AcDbLine
 10
-1.886185128679244
 20
44.5424804768163
 30
0.0
 11
-1.886184746860635
 21
44.90143453605469
 31
0.0
  0
LINE
  5
65
330
2F
100
AcDbEntity
  8
--4N-THT. MCB-MCCB-ACB
100
AcDbLine
 10
-1.28490915743805
 20
44.90143425096812
 30
0.0
 11
-1.284909536700979
 21
44.54248018918678
 31
0.0
  0
LINE
  5
66
330
2F
100
AcDbEntity
  8
--4N-THT. MCB-MCCB-ACB
100
AcDbLine
 10
-0.8339583248807684
 20
43.00188485210583
 30
0.0
 11
-0.8339508159397155
 21
46.41098243554097
 31
0.0
  0
LINE
  5
67
330
2F
100
AcDbEntity
  8
--4N-THT. MCB-MCCB-ACB
100
AcDbLine
 10
-0.2326812387500468
 20
44.45155959571184
 30
0.0
 11
-0.2326827354509078
 21
43.00188456702108
 31
0.0
  0
LINE
  5
68
330
2F
100
AcDbEntity
  8
--4N-THT. MCB-MCCB-ACB
100
AcDbLine
 10
-0.2326797013311079
 20
45.88063592144408
 30
0.0
 11
-0.2326805693091956
 21
44.93878234772546
 31
0.0
  0
LINE
  5
69
330
2F
100
AcDbEntity
  8
--4N-THT. MCB-MCCB-ACB
100
AcDbLine
 10
1.37072300148884
 20
44.98999537318832
 30
0.0
 11
1.370722428769113
 21
44.45155883208918
 31
0.0
  0
LINE
  5
6A
330
2F
100
AcDbEntity
  8
--4N-THT. MCB-MCCB-ACB
100
AcDbLine
 10
-9.971645601820455
 20
6.117551714832181
 30
0.0
 11
9.865331238620456
 21
6.117542248485726
 31
0.0
  0
LINE
  5
6B
330
2F
100
AcDbEntity
  8
--4N-THT. MCB-MCCB-ACB
100
AcDbLine
 10
-9.97164770686959
 20
7.600677079432891
 30
0.0
 11
9.86533747994963
 21
7.600667613093712
 31
0.0
  0
LINE
  5
6C
330
2F
100
AcDbEntity
  8
--4N-THT. MCB-MCCB-ACB
100
AcDbLine
 10
-13.58178888144994
 20
-14.82478729258856
 30
0.0
 11
13.82783858194034
 21
-14.82478729258856
 31
0.0
  0
LINE
  5
6D
330
2F
100
AcDbEntity
  8
--4N-THT. MCB-MCCB-ACB
100
AcDbLine
 10
13.4756032078194
 20
11.88434604238227
 30
0.0
 11
12.57368357472023
 21
11.88434647255143
 31
0.0
  0
LINE
  5
6E
330
2F
100
AcDbEntity
  8
--4N-THT. MCB-MCCB-ACB
100
AcDbLine
 10
-12.67989122710878
 20
11.88435852247584
 30
0.0
 11
-13.58179836737963
 21
11.88435895264682
 31
0.0
  0
LINE
  5
6F
330
2F
100
AcDbEntity
  8
--4N-THT. MCB-MCCB-ACB
100
AcDbLine
 10
13.47559931589876
 20
13.13077373700707
 30
0.0
 11
12.57368357472023
 21
13.13077416717987
 31
0.0
  0
LINE
  5
70
330
2F
100
AcDbEntity
  8
--4N-THT. MCB-MCCB-ACB
100
AcDbLine
 10
-12.67989122710878
 20
13.13078622219563
 30
0.0
 11
-13.58180225930209
 21
13.13078665237207
 31
0.0
  0
LINE
  5
71
330
2F
100
AcDbEntity
  8
--4N-THT. MCB-MCCB-ACB
100
AcDbLine
 10
1.67136235144153
 20
46.41098124174732
 30
0.0
 11
1.671361763449567
 21
45.88063501273518
 31
0.0
  0
LINE
  5
72
330
2F
100
AcDbEntity
  8
--4N-THT. MCB-MCCB-ACB
100
AcDbLine
 10
2.172417832848623
 20
43.00285387061285
 30
0.0
 11
2.172425341780581
 21
46.41098100248291
 31
0.0
  0
LINE
  5
73
330
2F
100
AcDbEntity
  8
--4N-THT. MCB-MCCB-ACB
100
AcDbLine
 10
2.77369491897025
 20
44.45251429634208
 30
0.0
 11
2.773693424828707
 21
43.00285358553174
 31
0.0
  0
LINE
  5
74
330
2F
100
AcDbEntity
  8
--4N-THT. MCB-MCCB-ACB
100
AcDbLine
 10
2.773696458950325
 20
45.88157629656325
 30
0.0
 11
2.773695588420196
 21
44.93973455641117
 31
0.0
  0
LINE
  5
75
330
2F
100
AcDbEntity
  8
--4N-THT. MCB-MCCB-ACB
100
AcDbLine
 10
4.377099161761179
 20
44.99094470302861
 30
0.0
 11
4.377098589050547
 21
44.45251353017829
 31
0.0
  0
LINE
  5
76
330
2F
100
AcDbEntity
  8
--4N-THT. MCB-MCCB-ACB
100
AcDbLine
 10
4.677738509170922
 20
46.41097980614268
 30
0.0
 11
4.677737923727363
 21
45.8815753878598
 31
0.0
  0
LINE
  5
77
330
2F
100
AcDbEntity
  8
--4N-THT. MCB-MCCB-ACB
100
AcDbLine
 10
9.865336611969722
 20
-4.115790669838141
 30
0.0
 11
9.865335410539956
 21
-3.735316416848043
 31
0.0
  0
LINE
  5
78
330
2F
100
AcDbEntity
  8
--4N-THT. MCB-MCCB-ACB
100
AcDbLine
 10
9.86533747994963
 20
7.600667613093712
 30
0.0
 11
9.865335410539956
 21
6.117542248485726
 31
0.0
  0
LINE
  5
79
330
2F
100
AcDbEntity
  8
--4N-THT. MCB-MCCB-ACB
100
AcDbLine
 10
12.57368357472023
 20
11.73401127445594
 30
0.0
 11
12.57368357472023
 21
22.22796742641822
 31
0.0
  0
LINE
  5
7A
330
2F
100
AcDbEntity
  8
--4N-THT. MCB-MCCB-ACB
100
AcDbLine
 10
13.47559931589876
 20
22.22699248222034
 30
0.0
 11
13.47562159484823
 21
53.89758060790609
 31
0.0
  0
LINE
  5
7B
330
2F
100
AcDbEntity
  8
--4N-THT. MCB-MCCB-ACB
100
AcDbLine
 10
13.47561269376001
 20
-14.82478729258856
 30
0.0
 11
13.47559931589876
 21
22.22470122259165
 31
0.0
  0
LINE
  5
7C
330
2F
100
AcDbEntity
  8
--4N-THT. MCB-MCCB-ACB
100
AcDbLine
 10
13.47562597642081
 20
41.33247175655651
 30
0.0
 11
13.47563050468943
 21
49.02505328544703
 31
0.0
  0
LINE
  5
7D
330
2F
100
AcDbEntity
  8
--4N-THT. MCB-MCCB-ACB
100
AcDbLine
 10
13.82783858194034
 20
53.89758060790791
 30
0.0
 11
13.82783858194034
 21
-20.75394275144664
 31
0.0
  0
LINE
  5
7E
330
2F
100
AcDbEntity
  8
--4N-THT. MCB-MCCB-ACB
100
AcDbLine
 10
11.86928423512927
 20
-2.124684963841907
 30
0.0
 11
11.86718363359887
 21
-2.209704724505179
 31
0.0
  0
LINE
  5
7F
330
2F
100
AcDbEntity
  8
--4N-THT. MCB-MCCB-ACB
100
AcDbLine
 10
12.57363324198104
 20
11.72011707874207
 30
0.0
 11
12.57154351694135
 21
11.6481438574201
 31
0.0
  0
LINE
  5
80
330
2F
100
AcDbEntity
  8
--4N-THT. MCB-MCCB-ACB
100
AcDbLine
 10
10.57034723954803
 20
24.08530598872767
 30
0.0
 11
9.86533747994963
 21
7.600667613093712
 31
0.0
  0
LINE
  5
81
330
2F
100
AcDbEntity
  8
--4N-THT. MCB-MCCB-ACB
100
AcDbLine
 10
12.57368357472023
 20
22.22796742641822
 30
0.0
 11
11.86928456857913
 21
5.757609765491899
 31
0.0
  0
LINE
  5
82
330
2F
100
AcDbEntity
  8
--4N-THT. MCB-MCCB-ACB
100
AcDbLine
 10
11.86928465257824
 20
-2.124676757480308
 30
0.0
 11
12.57368357472023
 21
11.73401127445594
 31
0.0
  0
LINE
  5
83
330
2F
100
AcDbEntity
  8
--4N-THT. MCB-MCCB-ACB
100
AcDbLine
 10
11.86700564141119
 20
-2.213277972295152
 30
0.0
 11
12.57153189464861
 21
11.64791520414018
 31
0.0
  0
LINE
  5
84
330
2F
100
AcDbEntity
  8
--4N-THT. MCB-MCCB-ACB
100
AcDbLine
 10
-13.58179492345971
 20
18.76725764534693
 30
0.0
 11
-13.83083858269037
 21
18.76725776498005
 31
0.0
  0
LINE
  5
85
330
2F
100
AcDbEntity
  8
--4N-THT. MCB-MCCB-ACB
100
AcDbLine
 10
13.47560665175024
 20
18.76728498803185
 30
0.0
 11
13.82783858194034
 21
18.7672848174925
 31
0.0
  0
LINE
  5
86
330
2F
100
AcDbEntity
  8
--4N-THT. MCB-MCCB-ACB
100
AcDbLine
 10
-13.58180225930209
 20
22.22471413540643
 30
0.0
 11
-12.67989122964991
 21
22.22471370523544
 31
0.0
  0
LINE
  5
87
330
2F
100
AcDbEntity
  8
--4N-THT. MCB-MCCB-ACB
100
AcDbLine
 10
12.57368357472023
 20
22.22470165276809
 30
0.0
 11
13.47559931589876
 21
22.22470122259165
 31
0.0
  0
LINE
  5
88
330
2F
100
AcDbEntity
  8
--4N-THT. MCB-MCCB-ACB
100
AcDbLine
 10
13.4755995348105
 20
22.29432775056285
 30
0.0
 11
12.5736332674287
 21
22.29432818073565
 31
0.0
  0
LINE
  5
89
330
2F
100
AcDbEntity
  8
--4N-THT. MCB-MCCB-ACB
100
AcDbLine
 10
-12.6798408663717
 20
22.29434023066187
 30
0.0
 11
-13.58180203785105
 21
22.29434066337944
 31
0.0
  0
LINE
  5
8A
330
2F
100
AcDbEntity
  8
--4N-THT. MCB-MCCB-ACB
100
AcDbLine
 10
-10.67655489193112
 20
24.08531612705429
 30
0.0
 11
10.57034723954803
 21
24.08530598872767
 31
0.0
  0
LINE
  5
8B
330
2F
100
AcDbEntity
  8
--4N-THT. MCB-MCCB-ACB
100
AcDbLine
 10
-10.20107218397879
 20
24.93160832383637
 30
0.0
 11
10.09487433137929
 21
24.93159863858546
 31
0.0
  0
LINE
  5
8C
330
2F
100
AcDbEntity
  8
--4N-THT. MCB-MCCB-ACB
100
AcDbLine
 10
13.4756032078194
 20
25.77388900075585
 30
0.0
 11
-13.58179836737963
 21
25.77390191357063
 31
0.0
  0
LWPOLYLINE
  5
8D
330
2F
100
AcDbEntity
  8
--4N-THT. MCB-MCCB-ACB
100
AcDbPolyline
 90
9
 70
0
 10
11.86718363359887
 20
-2.209704724505179
 10
11.8177005485204
 20
-2.564644369765126
 10
11.6812087679491
 20
-2.959853350273085
 10
11.46157994457007
 20
-3.323576748395687
 10
11.16424251294938
 20
-3.637930492096536
 10
10.7988352869097
 20
-3.885124887689933
 10
10.37923901480917
 20
-4.048787072203602
 10
9.926909779428568
 20
-4.114844671929866
 10
9.865336614509033
 20
-4.115790463653873
  0
LINE
  5
8E
330
2F
100
AcDbEntity
  8
--4N-THT. MCB-MCCB-ACB
100
AcDbLine
 10
10.59582924912774
 20
24.08548023662934
 30
0.0
 11
10.09487433137929
 21
24.93159863858546
 31
0.0
  0
LINE
  5
8F
330
2F
100
AcDbEntity
  8
--4N-THT. MCB-MCCB-ACB
100
AcDbLine
 10
12.32166040514949
 20
23.14775638350784
 30
0.0
 11
11.82588959157965
 21
23.9851187698232
 31
0.0
  0
LINE
  5
90
330
2F
100
AcDbEntity
  8
--4N-THT. MCB-MCCB-ACB
100
AcDbLine
 10
-3.088737903500259
 20
43.00188601281206
 30
0.0
 11
-2.98852530187014
 21
43.00188596444695
 31
0.0
  0
LINE
  5
91
330
2F
100
AcDbEntity
  8
--4N-THT. MCB-MCCB-ACB
100
AcDbLine
 10
-0.8339583248807684
 20
43.00188484956288
 30
0.0
 11
-0.2326827354509078
 21
43.00188456193154
 31
0.0
  0
LINE
  5
92
330
2F
100
AcDbEntity
  8
--4N-THT. MCB-MCCB-ACB
100
AcDbLine
 10
2.172417832848623
 20
43.00285386806627
 30
0.0
 11
2.773693424828707
 21
43.00285358298333
 31
0.0
  0
LINE
  5
93
330
2F
100
AcDbEntity
  8
--4N-THT. MCB-MCCB-ACB
100
AcDbLine
 10
-2.988524662970121
 20
43.5036375974878
 30
0.0
 11
-3.088737259508889
 21
43.50363764584926
 31
0.0
  0
LINE
  5
94
330
2F
100
AcDbEntity
  8
--4N-THT. MCB-MCCB-ACB
100
AcDbLine
 10
-2.988524746969233
 20
43.54840707266612
 30
0.0
 11
-3.088737346049128
 21
43.54840712102759
 31
0.0
  0
LINE
  5
95
330
2F
100
AcDbEntity
  8
--4N-THT. MCB-MCCB-ACB
100
AcDbLine
 10
-0.2326812387500468
 20
44.45155959571184
 30
0.0
 11
1.370722428769113
 21
44.45155883208918
 31
0.0
  0
LINE
  5
96
330
2F
100
AcDbEntity
  8
--4N-THT. MCB-MCCB-ACB
100
AcDbLine
 10
2.77369491897025
 20
44.45251429634208
 30
0.0
 11
4.377098589050547
 21
44.45251353017829
 31
0.0
  0
LINE
  5
97
330
2F
100
AcDbEntity
  8
--4N-THT. MCB-MCCB-ACB
100
AcDbLine
 10
-0.2326805693091956
 20
44.93878234772546
 30
0.0
 11
1.370723098209964
 21
44.9387815841028
 31
0.0
  0
LINE
  5
98
330
2F
100
AcDbEntity
  8
--4N-THT. MCB-MCCB-ACB
100
AcDbLine
 10
2.773695588420196
 20
44.93973455641117
 30
0.0
 11
4.377099258491398
 21
44.93973379024737
 31
0.0
  0
LINE
  5
99
330
2F
100
AcDbEntity
  8
--4N-THT. MCB-MCCB-ACB
100
AcDbLine
 10
1.37072300148884
 20
44.98999537318832
 30
0.0
 11
-0.2326806685787233
 21
44.98999613935575
 31
0.0
  0
LINE
  5
9A
330
2F
100
AcDbEntity
  8
--4N-THT. MCB-MCCB-ACB
100
AcDbLine
 10
4.377099161761179
 20
44.99094470302861
 30
0.0
 11
2.773695491689977
 21
44.99094546919059
 31
0.0
  0
LINE
  5
9B
330
2F
100
AcDbEntity
  8
--4N-THT. MCB-MCCB-ACB
100
AcDbLine
 10
-0.2326797013311079
 20
45.88063592144408
 30
0.0
 11
1.671361763449567
 21
45.88063501273518
 31
0.0
  0
LINE
  5
9C
330
2F
100
AcDbEntity
  8
--4N-THT. MCB-MCCB-ACB
100
AcDbLine
 10
2.773696458950325
 20
45.88157629656325
 30
0.0
 11
4.677737923727363
 21
45.8815753878598
 31
0.0
  0
LINE
  5
9D
330
2F
100
AcDbEntity
  8
--4N-THT. MCB-MCCB-ACB
100
AcDbLine
 10
-3.08873486684115
 20
45.88160836351471
 30
0.0
 11
-2.988522267752159
 21
45.88160831515142
 31
0.0
  0
LINE
  5
9E
330
2F
100
AcDbEntity
  8
--4N-THT. MCB-MCCB-ACB
100
AcDbLine
 10
-0.8339526919089622
 20
46.37488234331522
 30
0.0
 11
1.671362417620002
 21
46.37488114697498
 31
0.0
  0
LINE
  5
9F
330
2F
100
AcDbEntity
  8
--4N-THT. MCB-MCCB-ACB
100
AcDbLine
 10
2.172423465820429
 20
46.37488090770875
 30
0.0
 11
4.677738577890522
 21
46.3748797139151
 31
0.0
  0
LINE
  5
A0
330
2F
100
AcDbEntity
  8
--4N-THT. MCB-MCCB-ACB
100
AcDbLine
 10
-3.088734210122311
 20
46.3758666978565
 30
0.0
 11
-2.988521613578086
 21
46.37586664949504
 31
0.0
  0
LINE
  5
A1
330
2F
100
AcDbEntity
  8
--4N-THT. MCB-MCCB-ACB
100
AcDbLine
 10
4.677738509170922
 20
46.41097980614268
 30
0.0
 11
2.172425341780581
 21
46.41098100248291
 31
0.0
  0
LINE
  5
A2
330
2F
100
AcDbEntity
  8
--4N-THT. MCB-MCCB-ACB
100
AcDbLine
 10
1.67136235144153
 20
46.41098124174732
 30
0.0
 11
-0.8339508159397155
 21
46.41098243554097
 31
0.0
  0
LINE
  5
A3
330
2F
100
AcDbEntity
  8
--4N-THT. MCB-MCCB-ACB
100
AcDbLine
 10
-2.988521682308601
 20
46.41194905882821
 30
0.0
 11
-3.088734278849187
 21
46.4119491071915
 31
0.0
  0
LINE
  5
A4
330
2F
100
AcDbEntity
  8
--4N-THT. MCB-MCCB-ACB
100
AcDbLine
 10
-13.83083858269037
 20
49.02505328544703
 30
0.0
 11
13.82783858194034
 21
49.02505328544703
 31
0.0
  0
LINE
  5
A5
330
2F
100
AcDbEntity
  8
--4N-THT. MCB-MCCB-ACB
100
AcDbLine
 10
-13.83083858269037
 20
53.89758060790791
 30
0.0
 11
13.82783858194034
 21
53.89758060790791
 31
0.0
  0
SPLINE
  5
A6
330
2F
100
AcDbEntity
  8
--4N-THT. MCB-MCCB-ACB
100
AcDbSpline
 70
1064
 71
3
 72
13
 73
9
 74
7
 42
1e-09
 12
0.9999999999998861
 22
-4.770125013e-07
 32
0.0
 13
0.5094698276675736
 23
-0.8604885209556098
 33
0.0
 40
0.0
 40
0.0
 40
0.0
 40
0.0
 40
0.406727997401113
 40
0.8185415429407358
 40
1.223363078724789
 40
1.613757796951037
 40
2.00317516268538
 40
2.059841890047936
 40
2.059841890047936
 40
2.059841890047936
 40
2.059841890047936
 10
10.09487433137929
 20
24.93159863858728
 30
0.0
 10
10.23045033051297
 20
24.93159857391583
 30
0.0
 10
10.50401211475839
 20
24.90588296018564
 30
0.0
 10
10.89758545554164
 20
24.78984598402187
 30
0.0
 10
11.2558374904714
 20
24.60063018875575
 30
0.0
 10
11.56275030826703
 20
24.34806891059565
 30
0.0
 10
11.73834909655272
 20
24.1283500997521
 30
0.0
 10
11.81611042273437
 20
24.00160955567078
 30
0.0
 10
11.825733752009
 20
23.98535586619892
 30
0.0
 11
10.09487433137929
 21
24.93159863858728
 31
0.0
 11
10.49978783266215
 21
24.89322259985511
 31
0.0
 11
10.89466190979965
 21
24.77632580993031
 31
0.0
 11
11.25234467663995
 21
24.58673806206661
 31
0.0
 11
11.55339713482954
 21
24.33819137945557
 31
0.0
 11
11.79609783799151
 21
24.03365525118807
 31
0.0
 11
11.825733752009
 21
23.98535586619892
 31
0.0
  0
SPLINE
  5
A7
330
2F
100
AcDbEntity
  8
--4N-THT. MCB-MCCB-ACB
100
AcDbSpline
 70
1064
 71
3
 72
10
 73
6
 74
4
 42
1e-09
 12
0.5096669513674411
 22
-0.8603717793395006
 32
0.0
 13
0.0070182305697893
 23
-0.9999753719165633
 33
0.0
 40
0.0
 40
0.0
 40
0.0
 40
0.0
 40
0.1061919321624286
 40
0.5281852136508975
 40
0.9489643328554663
 40
0.9489643328554663
 40
0.9489643328554663
 40
0.9489643328554663
 10
12.32170374313045
 20
23.14765651219113
 30
0.0
 10
12.33974458257214
 20
23.11720166498244
 30
0.0
 10
12.42507027590695
 20
22.9631339191389
 30
0.0
 10
12.53758254252039
 20
22.66411868583653
 30
0.0
 10
12.57264886702186
 20
22.38240917996554
 30
0.0
 10
12.57363324198104
 20
22.24215292789176
 30
0.0
 11
12.32170374313045
 21
23.14765651219113
 31
0.0
 11
12.37313647989049
 21
23.05475118378763
 31
0.0
 11
12.52146587479092
 21
22.65968572056682
 31
0.0
 11
12.57363324198104
 21
22.24215292789176
 31
0.0
  0
SPLINE
  5
A8
330
2F
100
AcDbEntity
  8
--4N-THT. MCB-MCCB-ACB
100
AcDbSpline
 70
1064
 71
3
 72
10
 73
6
 74
4
 42
1e-09
 12
-0.5096745283449661
 22
-0.8603672908452161
 32
0.0
 13
-0.0070183696989766
 23
-0.999975370940089
 33
0.0
 40
0.0
 40
0.0
 40
0.0
 40
0.0
 40
0.1062074041649975
 40
0.5282005665266114
 40
0.9489796418428612
 40
0.9489796418428612
 40
0.9489796418428612
 40
0.9489796418428612
 10
-12.42790338259965
 20
23.1476816734712
 30
0.0
 10
-12.44594711880783
 20
23.11722254794148
 30
0.0
 10
-12.53127601159348
 20
22.96315068987273
 30
0.0
 10
-12.64379014411457
 20
22.66413067126922
 30
0.0
 10
-12.67885649745046
 20
22.38242121767049
 30
0.0
 10
-12.67984089182119
 20
22.24216498036276
 30
0.0
 11
-12.42790338259965
 21
23.1476816734712
 31
0.0
 11
-12.47934403555064
 21
23.05476304281274
 31
0.0
 11
-12.62767347117824
 21
22.65969772212975
 31
0.0
 11
-12.67984089182119
 21
22.24216498036276
 31
0.0
  0
SPLINE
  5
A9
330
2F
100
AcDbEntity
  8
--4N-THT. MCB-MCCB-ACB
100
AcDbSpline
 70
1064
 71
3
 72
13
 73
9
 74
7
 42
1e-09
 12
0.5099589495522967
 22
0.8601987385316942
 32
0.0
 13
0.9999999999998864
 23
-4.766927678e-07
 33
0.0
 40
0.0
 40
0.0
 40
0.0
 40
0.0
 40
0.3301569574608804
 40
0.6610956744362178
 40
1.004932928290332
 40
1.360455826957565
 40
1.721229278129768
 40
2.06113154135534
 40
2.06113154135534
 40
2.06113154135534
 40
2.06113154135534
 10
-11.93218772021009
 20
23.98495892379378
 30
0.0
 10
-11.87606555513871
 20
24.07962578990222
 30
0.0
 10
-11.74610786532094
 20
24.25935472471492
 30
0.0
 10
-11.50344338233431
 20
24.49264182329142
 30
0.0
 10
-11.21668287615845
 20
24.68484675770636
 30
0.0
 10
-10.89171260212691
 20
24.82820890363848
 30
0.0
 10
-10.54834186395237
 20
24.91324302231209
 30
0.0
 10
-10.3143729383873
 20
24.93160837784602
 30
0.0
 10
-10.20107218397879
 20
24.93160832383637
 30
0.0
 11
-11.93218772021009
 21
23.98495892379378
 31
0.0
 11
-11.7388592626894
 21
24.25259248684688
 31
0.0
 11
-11.50057636596011
 21
24.48224808882424
 31
0.0
 11
-11.21516659218923
 21
24.67399093269069
 31
0.0
 11
-10.89004641483825
 21
24.81784294607951
 31
0.0
 11
-10.53991851482806
 21
24.90483683497496
 31
0.0
 11
-10.20107218397879
 21
24.93160832383637
 31
0.0
  0
SPLINE
  5
AA
330
2F
100
AcDbEntity
  8
--4N-THT. MCB-MCCB-ACB
100
AcDbSpline
 70
1064
 71
3
 72
9
 73
5
 74
3
 42
1e-09
 12
0.0073153836268893
 22
0.9999732422232064
 32
0.0
 13
-0.0090797260241317
 23
0.9999587784380548
 33
0.0
 40
0.0
 40
0.0
 40
0.0
 40
0.0
 40
0.0092389584225038
 40
0.0138941168506012
 40
0.0138941168506012
 40
0.0138941168506012
 40
0.0138941168506012
 10
12.57363324198104
 20
11.72011707874207
 30
0.0
 10
12.57365577082276
 20
11.72319664914491
 30
0.0
 10
12.57368919690199
 20
11.72782796690311
 30
0.0
 10
12.5736723549987
 20
11.73245938985705
 30
0.0
 10
12.57365826581099
 20
11.73401104536878
 30
0.0
 11
12.57363324198104
 21
11.72011707874207
 31
0.0
 11
12.57367799774965
 21
11.72935592876001
 31
0.0
 11
12.57365826581099
 21
11.73401104536878
 31
0.0
  0
SPLINE
  5
AB
330
2F
100
AcDbEntity
  8
--4N-THT. MCB-MCCB-ACB
100
AcDbSpline
 70
1064
 71
3
 72
9
 73
5
 74
3
 42
1e-09
 12
0.0070181933012629
 22
-0.9999753721781282
 32
0.0
 13
-0.0087831096329214
 23
-0.9999614277486788
 33
0.0
 40
0.0
 40
0.0
 40
0.0
 40
0.0
 40
0.0094979728233907
 40
0.0141854299343987
 40
0.0141854299343987
 40
0.0141854299343987
 40
0.0141854299343987
 10
12.57363324198104
 20
22.24215292789176
 30
0.0
 10
12.57365546151746
 20
22.2389870149221
 30
0.0
 10
12.57368912006017
 20
22.23425859370312
 30
0.0
 10
12.57367250855385
 20
22.22953006821481
 30
0.0
 10
12.57365878507062
 20
22.22796764277973
 30
0.0
 11
12.57363324198104
 21
22.24215292789176
 31
0.0
 11
12.57367799774965
 21
22.23265506051666
 31
0.0
 11
12.57365878507062
 21
22.22796764277973
 31
0.0
  0
SPLINE
  5
AC
330
2F
100
AcDbEntity
  8
--4N-THT. MCB-MCCB-ACB
100
AcDbSpline
 70
1064
 71
3
 72
9
 73
5
 74
3
 42
1e-09
 12
-0.0070183727307885
 22
-0.99997537091881
 32
0.0
 13
0.0087832890493067
 23
-0.9999614261727682
 33
0.0
 40
0.0
 40
0.0
 40
0.0
 40
0.0
 40
0.0094979728270287
 40
0.0141854299380441
 40
0.0141854299380441
 40
0.0141854299380441
 40
0.0141854299380441
 10
-12.67984089182119
 20
22.24216498036276
 30
0.0
 10
-12.67986311192568
 20
22.23899906739586
 30
0.0
 10
-12.67989676947796
 20
22.23427064617318
 30
0.0
 10
-12.67988015867251
 20
22.2295421206797
 30
0.0
 10
-12.67986643490894
 20
22.22797969524709
 30
0.0
 11
-12.67984089182119
 21
22.24216498036276
 31
0.0
 11
-12.6798856475898
 21
22.23266711298402
 31
0.0
 11
-12.67986643490894
 21
22.22797969524709
 31
0.0
  0
SPLINE
  5
AD
330
2F
100
AcDbEntity
  8
--4N-THT. MCB-MCCB-ACB
100
AcDbSpline
 70
1064
 71
3
 72
9
 73
5
 74
3
 42
1e-09
 12
-0.0073155668176967
 22
0.9999732408830428
 32
0.0
 13
0.009079909200983
 23
0.9999587767747738
 33
0.0
 40
0.0
 40
0.0
 40
0.0
 40
0.0
 40
0.0092389584243228
 40
0.0138941168506089
 40
0.0138941168506089
 40
0.0138941168506089
 40
0.0138941168506089
 10
-12.67984089182119
 20
11.7201291312076
 30
0.0
 10
-12.67986342122708
 20
11.72320870160692
 30
0.0
 10
-12.67989684631975
 20
11.72784001936774
 30
0.0
 10
-12.67988000512126
 20
11.73247144232577
 30
0.0
 10
-12.67986591564931
 20
11.73402309783432
 30
0.0
 11
-12.67984089182119
 21
11.7201291312076
 31
0.0
 11
-12.6798856475898
 21
11.72936798122736
 31
0.0
 11
-12.67986591564931
 21
11.73402309783432
 31
0.0
  0
SPLINE
  5
AE
330
2F
100
AcDbEntity
  8
--4N-THT. MCB-MCCB-ACB
100
AcDbSpline
 70
1064
 71
3
 72
24
 73
20
 74
18
 42
1e-09
 12
3.3362158166e-06
 22
0.9999999999944348
 32
0.0
 13
0.0
 23
-1.0
 33
0.0
 40
0.0
 40
0.0
 40
0.0
 40
0.0
 40
0.8520751083617643
 40
1.782463700856171
 40
2.754292854918162
 40
3.756691769999088
 40
4.766917691080602
 40
5.761357551486304
 40
6.707886299352619
 40
7.622182978116251
 40
8.517394356328246
 40
9.431609592498617
 40
10.37797092707051
 40
11.37227920345789
 40
12.38283430081301
 40
13.38503033825319
 40
14.357154535243
 40
15.28863521268725
 40
16.14271162656564
 40
16.14271162656564
 40
16.14271162656564
 40
16.14271162656564
 10
-5.164001640238893
 20
0.6175495225424968
 30
0.0
 10
-5.164000692670075
 20
0.9015745586615042
 30
0.0
 10
-5.106068937644482
 20
1.496877341527483
 30
0.0
 10
-4.852142762055758
 20
2.384065178078397
 30
0.0
 10
-4.425660140139328
 20
3.258682431271594
 30
0.0
 10
-3.841009834898782
 20
4.069592171371116
 30
0.0
 10
-3.11983333507529
 20
4.773235914545391
 30
0.0
 10
-2.298941971984719
 20
5.325666993594457
 30
0.0
 10
-1.417613449418802
 20
5.700513624253716
 30
0.0
 10
-0.5118091036691341
 20
5.887624898830511
 30
0.0
 10
0.4023284782015903
 20
5.887948854570559
 30
0.0
 10
1.308182635984648
 20
5.701486677173083
 30
0.0
 10
2.189647681882153
 20
5.327283703340495
 30
0.0
 10
3.010904310904032
 20
4.775375072914947
 30
0.0
 10
3.732493509681488
 20
4.072148232499469
 30
0.0
 10
4.317678243466219
 20
3.261454029144109
 30
0.0
 10
4.744835914216696
 20
2.386723481975113
 30
0.0
 10
4.99951557456598
 20
1.498563465518819
 30
0.0
 10
5.057683400410496
 20
0.9022222060101103
 30
0.0
 10
5.057683400410496
 20
0.6175300680506483
 30
0.0
 11
-5.164001640238893
 21
0.6175495225424968
 31
0.0
 11
-5.084300520888973
 21
1.465888913272458
 31
0.0
 11
-4.831100475451421
 21
2.361161313178847
 31
0.0
 11
-4.406674362850935
 21
3.23541206646859
 31
0.0
 11
-3.820611659431051
 21
4.048636569675174
 31
0.0
 11
-3.096534865871035
 21
4.753100343515136
 31
0.0
 11
-2.270069464221705
 21
5.306151494712132
 31
0.0
 11
-1.398038050280774
 21
5.674224698895152
 31
0.0
 11
-0.5023218013402584
 21
5.85761177090989
 31
0.0
 11
0.3928895216895398
 21
5.857926094718088
 31
0.0
 11
1.288652863079732
 21
5.675176171961531
 31
0.0
 11
2.160777415750089
 21
5.307754697082593
 31
0.0
 11
2.987490836078904
 21
4.755311153233371
 31
0.0
 11
3.712217930969018
 21
4.051043986085453
 31
0.0
 11
4.298621473640196
 21
3.23831538279682
 31
0.0
 11
4.723680698491989
 21
2.364044195040143
 31
0.0
 11
4.977617120520335
 21
1.46784525171369
 31
0.0
 11
5.057683400410496
 21
0.6175300680506483
 31
0.0
  0
SPLINE
  5
AF
330
2F
100
AcDbEntity
  8
--4N-THT. MCB-MCCB-ACB
100
AcDbSpline
 70
1064
 71
3
 72
16
 73
12
 74
10
 42
1e-09
 12
-0.0075227403921164
 22
-0.9999717037881586
 32
0.0
 13
0.0126391803774769
 23
-0.9999201223694749
 33
0.0
 40
0.0
 40
0.0
 40
0.0
 40
0.0
 40
1.236665258680366
 40
2.481036684562679
 40
3.713882969699656
 40
4.916184895665537
 40
6.069417048108334
 40
7.155792032199647
 40
8.158570946138838
 40
9.06228929797281
 40
9.852988594758479
 40
9.852988594758479
 40
9.852988594758479
 40
9.852988594758479
 10
9.865331238620456
 20
6.117542248485726
 30
0.0
 10
9.862230201389455
 20
5.705332159906316
 30
0.0
 10
9.856704692461365
 20
4.878337957637887
 30
0.0
 10
9.850404002812386
 20
3.640392507855608
 30
0.0
 10
9.846134426608176
 20
2.41389284124678
 30
0.0
 10
9.843957480268172
 20
1.21776745666102
 30
0.0
 10
9.843903943492707
 20
0.070463771463837
 30
0.0
 10
9.84596972075474
 20
-1.010330358892398
 30
0.0
 10
9.850110170580324
 20
-2.007946908443209
 30
0.0
 10
9.856257169302292
 20
-2.906992495633425
 30
0.0
 10
9.861996617571062
 20
-3.471771037648248
 30
0.0
 10
9.865327881249868
 20
-3.735316416848043
 30
0.0
 11
9.865331238620456
 21
6.117542248485726
 31
0.0
 11
9.857048906659656
 21
4.880904724793246
 31
0.0
 11
9.850719593928261
 21
3.63654939557545
 31
0.0
 11
9.846444576812244
 21
2.403710522484281
 31
0.0
 11
9.844290460791854
 21
1.201410526241481
 31
0.0
 11
9.844290478610674
 21
0.0481783737986845
 31
0.0
 11
9.846444594620152
 21
-1.038194474648669
 31
0.0
 11
9.850719588827815
 21
-2.040964276081474
 31
0.0
 11
9.857048911751008
 21
-2.9446604634768
 31
0.0
 11
9.865327881249868
 21
-3.735316416848043
 31
0.0
  0
SPLINE
  5
B0
330
2F
100
AcDbEntity
  8
--4N-THT. MCB-MCCB-ACB
100
AcDbSpline
 70
1064
 71
3
 72
10
 73
6
 74
4
 42
1e-09
 12
0.9999065674091568
 22
-0.0136695446901961
 32
0.0
 13
0.9999999999998752
 23
-4.994352885e-07
 33
0.0
 40
0.0
 40
0.0
 40
0.0
 40
0.0
 40
0.0085087016754588
 40
0.0170014412311693
 40
0.0254827793129703
 40
0.0254827793129703
 40
0.0254827793129703
 40
0.0254827793129703
 10
-10.70203689896971
 20
24.08549040041271
 30
0.0
 10
-10.69920093007457
 20
24.08545163038678
 30
0.0
 10
-10.69353412714243
 20
24.08538707328356
 30
0.0
 10
-10.68504003928923
 20
24.08532902353239
 30
0.0
 10
-10.67938200463233
 20
24.08531612846624
 30
0.0
 10
-10.67655489193839
 20
24.08531612705429
 30
0.0
 11
-10.70203689896971
 21
24.08549040041271
 31
0.0
 11
-10.69352874928972
 21
24.08539348176146
 31
0.0
 11
-10.68503620801039
 21
24.08533544918555
 31
0.0
 11
-10.67655489193839
 21
24.08531612705429
 31
0.0
  0
SPLINE
  5
B1
330
2F
100
AcDbEntity
  8
--4N-THT. MCB-MCCB-ACB
100
AcDbSpline
 70
1064
 71
3
 72
16
 73
12
 74
10
 42
1e-09
 12
0.0157957185255626
 22
0.9998752398555838
 32
0.0
 13
-0.0094013010595194
 23
0.9999558067926743
 33
0.0
 40
0.0
 40
0.0
 40
0.0
 40
0.0
 40
0.6326536255995056
 40
1.355698650438339
 40
2.157933031787598
 40
3.026941309796963
 40
3.949386857591232
 40
4.911106450788076
 40
5.89735992224667
 40
6.892973131678147
 40
7.882449025818307
 40
7.882449025818307
 40
7.882449025818307
 40
7.882449025818307
 10
-11.97559479040956
 20
-2.124665379539699
 30
0.0
 10
-11.97226371754484
 20
-1.913807147659096
 30
0.0
 10
-11.96651252857496
 20
-1.461941923898407
 30
0.0
 10
-11.96037203746364
 20
-0.7426557476241058
 30
0.0
 10
-11.95623098588573
 20
0.0554307123747953
 30
0.0
 10
-11.95416656090291
 20
0.9199919314978287
 30
0.0
 10
-11.95421993982863
 20
1.837717231850616
 30
0.0
 10
-11.95639580013046
 20
2.794521685388016
 30
0.0
 10
-11.96066474585766
 20
3.775708510684301
 30
0.0
 10
-11.96696205282695
 20
4.766136639221461
 30
0.0
 10
-11.97249391948646
 20
5.427810423966513
 30
0.0
 10
-11.97559470641045
 20
5.757621145975456
 30
0.0
 11
-11.97559479040956
 21
-2.124665379539699
 31
0.0
 11
-11.96730834252139
 21
-1.492066023892228
 31
0.0
 11
-11.96097988249948
 21
-0.7690486945439332
 31
0.0
 11
-11.95670600062931
 21
0.0331743022297744
 31
0.0
 11
-11.95455279077123
 21
0.9021799126467087
 31
0.0
 11
-11.95455275513904
 21
1.824625460440977
 31
0.0
 11
-11.95670587335826
 21
2.786342643411437
 31
0.0
 11
-11.96097956177891
 21
3.772586855334331
 31
0.0
 11
-11.9673083043408
 21
4.768179949832294
 31
0.0
 11
-11.97559470641045
 21
5.757621145975456
 31
0.0
  0
SPLINE
  5
B2
330
2F
100
AcDbEntity
  8
--4N-THT. MCB-MCCB-ACB
100
AcDbSpline
 70
1064
 71
3
 72
25
 73
21
 74
19
 42
1e-09
 12
-3.3378172674e-06
 22
-0.9999999999944295
 32
0.0
 13
0.0
 23
1.0
 33
0.0
 40
0.0
 40
0.0
 40
0.0
 40
0.0
 40
0.775854836042897
 40
1.569047350069855
 40
2.361809613086129
 40
3.167685684565303
 40
3.993876894292315
 40
4.846435476138225
 40
5.700904989602562
 40
6.554977613661389
 40
7.403195939708576
 40
8.251378254446292
 40
9.105452617885584
 40
9.959864298725002
 40
10.8125506768207
 40
11.63912599243963
 40
12.44470396593597
 40
13.23779016288058
 40
14.03184860941804
 40
14.80957736400515
 40
14.80957736400515
 40
14.80957736400515
 40
14.80957736400515
 10
5.057683400410496
 20
0.6175154981838133
 30
0.0
 10
5.05768253718994
 20
0.3588972195042883
 30
0.0
 10
5.011201698816416
 20
-0.1655716089176806
 30
0.0
 10
4.787769929829959
 20
-0.9261988057595179
 30
0.0
 10
4.403830341330996
 20
-1.632014761218985
 30
0.0
 10
3.871395506908897
 20
-2.248093153539982
 30
0.0
 10
3.210325543349759
 20
-2.755583793830814
 30
0.0
 10
2.454571827788215
 20
-3.141389370670089
 30
0.0
 10
1.639926463965048
 20
-3.406456824786202
 30
0.0
 10
0.7990929942651536
 20
-3.558899182593039
 30
0.0
 10
-0.0515532379139479
 20
-3.608532646870441
 30
0.0
 10
-0.9022209620135541
 20
-3.559272659415327
 30
0.0
 10
-1.743094862712373
 20
-3.40723623743667
 30
0.0
 10
-2.557904572480194
 20
-3.14260968394415
 30
0.0
 10
-3.314037614982951
 20
-2.757223153628034
 30
0.0
 10
-3.975517181035323
 20
-2.250147015007374
 30
0.0
 10
-4.508503897531709
 20
-1.634376115928506
 30
0.0
 10
-4.893145175355114
 20
-0.9285944616960172
 30
0.0
 10
-5.117327064210345
 20
-0.1671017826107719
 30
0.0
 10
-5.164001640238893
 20
0.3582920268438396
 30
0.0
 10
-5.164001640238893
 20
0.6175349450395445
 30
0.0
 11
5.057683400410496
 21
0.6175154981838133
 31
0.0
 11
4.986786957108961
 21
-0.1550933426524423
 31
0.0
 11
4.76157879764014
 21
-0.9156429131717302
 31
0.0
 11
4.382719127509517
 21
-1.612017349815694
 31
0.0
 11
3.857357608770143
 21
-2.223107782739141
 31
0.0
 11
3.204218488911465
 21
-2.72907339929862
 31
0.0
 11
2.44673369452812
 21
-3.120318746564414
 31
0.0
 11
1.635192423621447
 21
-3.387748952515728
 31
0.0
 11
0.7951716826291886
 21
-3.542038297156075
 31
0.0
 11
-0.0515687260003688
 21
-3.592088362452166
 31
0.0
 11
-0.8982953640088454
 21
-3.542417047584429
 31
0.0
 11
-1.738392019008642
 21
-3.388531932831945
 31
0.0
 11
-2.550026505022287
 21
-3.121569797935997
 31
0.0
 11
-3.307876465020854
 21
-2.730753348026162
 31
0.0
 11
-3.961667016378669
 21
-2.225001761428764
 31
0.0
 11
-4.487294063611443
 21
-1.614533024637246
 31
0.0
 11
-4.866849684279259
 21
-0.9181687186855995
 31
0.0
 11
-5.092759394169661
 21
-0.1569239357841141
 31
0.0
 11
-5.164001640238893
 21
0.6175349450395445
 31
0.0
  0
SPLINE
  5
B3
330
2F
100
AcDbEntity
  8
--4N-THT. MCB-MCCB-ACB
100
AcDbSpline
 70
1064
 71
3
 72
16
 73
12
 74
10
 42
1e-09
 12
-0.0094026688912367
 22
-0.9999557939317726
 32
0.0
 13
0.0157980163248047
 23
-0.9998752035530241
 33
0.0
 40
0.0
 40
0.0
 40
0.0
 40
0.0
 40
0.9894758965895604
 40
1.985089104239089
 40
2.97134257329969
 40
3.933062167205046
 40
4.855507715001134
 40
5.724515996329271
 40
6.526750383534055
 40
7.24979542152953
 40
7.882449070535136
 40
7.882449070535136
 40
7.882449070535136
 40
7.882449070535136
 10
11.86928456857913
 20
5.757609765491899
 30
0.0
 10
11.86618333050197
 20
5.427799046908377
 30
0.0
 10
11.86065066185991
 20
4.7661252684902
 30
0.0
 10
11.85435243578341
 20
3.775697146192279
 30
0.0
 10
11.85008287222863
 20
2.794510324543565
 30
0.0
 10
11.847906689576
 20
1.837705872090065
 30
0.0
 10
11.84785330833636
 20
0.9199805701494304
 30
0.0
 10
11.84991803262583
 20
0.055419348413586
 30
0.0
 10
11.85405968505905
 20
-0.7426671162986183
 30
0.0
 10
11.86020107224835
 20
-1.461953299457056
 30
0.0
 10
11.86595309501993
 20
-1.913818525454294
 30
0.0
 10
11.86928465257824
 20
-2.124676757480308
 30
0.0
 11
11.86928456857913
 21
5.757609765491899
 31
0.0
 11
11.86099696253859
 21
4.768168576983036
 31
0.0
 11
11.85466729854033
 21
3.772575490124829
 31
0.0
 11
11.8503929890403
 21
2.786331283291467
 31
0.0
 11
11.84823955519004
 21
1.824614100319188
 31
0.0
 11
11.84823959336881
 21
0.9021685525231006
 31
0.0
 11
11.85039311632045
 21
0.0331629395632192
 31
0.0
 11
11.85466761926091
 21
-0.7690600597570736
 31
0.0
 11
11.860997000721
 21
-1.492077394196719
 31
0.0
 11
11.86928465257824
 21
-2.124676757480308
 31
0.0
  0
SPLINE
  5
B4
330
2F
100
AcDbEntity
  8
--4N-THT. MCB-MCCB-ACB
100
AcDbSpline
 70
1064
 71
3
 72
14
 73
10
 74
8
 42
1e-09
 12
-0.0851422093792165
 22
0.9963688093181287
 32
0.0
 13
-0.9999583234325521
 23
0.0091296986784525
 33
0.0
 40
0.0
 40
0.0
 40
0.0
 40
0.0
 40
0.0949756214328231
 40
0.2636313216321286
 40
0.5128878492068857
 40
0.834639346192109
 40
1.214879728103705
 40
1.635976787573369
 40
2.077993746189739
 40
2.077993746189739
 40
2.077993746189739
 40
2.077993746189739
 10
11.86928423512927
 20
5.757601966383838
 30
0.0
 10
11.86658875704728
 20
5.789145548664262
 30
0.0
 10
11.79416175868029
 20
5.858931267811793
 30
0.0
 10
11.6388419611902
 20
5.919736103005567
 30
0.0
 10
11.39840689770951
 20
5.985021609058264
 30
0.0
 10
11.08625895518004
 20
6.037767825370629
 30
0.0
 10
10.71392130292962
 20
6.080312090397168
 30
0.0
 10
10.30035894743617
 20
6.108113063922161
 30
0.0
 10
10.01266825616221
 20
6.116197087938082
 30
0.0
 10
9.865335410539956
 20
6.117542248485726
 30
0.0
 11
11.86928423512927
 21
5.757601966383838
 31
0.0
 11
11.81344211214218
 21
5.834426610651455
 31
0.0
 11
11.66173782228998
 21
5.908118900954825
 31
0.0
 11
11.42163637979047
 21
5.975052553539164
 31
0.0
 11
11.1049527169298
 21
6.031933864084741
 31
0.0
 11
10.72727016448061
 21
6.075963826743638
 31
0.0
 11
10.30717370345974
 21
6.104975840319632
 31
0.0
 11
9.865335410539956
 21
6.117542248485726
 31
0.0
  0
SPLINE
  5
B5
330
2F
100
AcDbEntity
  8
--4N-THT. MCB-MCCB-ACB
100
AcDbSpline
 70
1064
 71
3
 72
8
 73
4
 74
2
 42
1e-09
 12
-0.0182587554195437
 22
-0.9998332950299911
 32
0.0
 13
-0.0825411185367991
 23
-0.9965876598426724
 33
0.0
 40
0.0
 40
0.0
 40
0.0
 40
0.0
 40
0.0841492850025346
 40
0.0841492850025346
 40
0.0841492850025346
 40
0.0841492850025346
 10
11.86928423512927
 20
-2.124684963841907
 30
0.0
 10
11.8687720813914
 20
-2.152730049474741
 30
0.0
 10
11.86734545845134
 20
-2.180772605666317
 30
0.0
 10
11.86503019974861
 20
-2.208726652005687
 30
0.0
 11
11.86928423512927
 21
-2.124684963841907
 31
0.0
 11
11.86503019974861
 21
-2.208726652005687
 31
0.0
  0
SPLINE
  5
B6
330
2F
100
AcDbEntity
  8
--4N-THT. MCB-MCCB-ACB
100
AcDbSpline
 70
1064
 71
3
 72
14
 73
10
 74
8
 42
1e-09
 12
-0.0825411133588404
 22
-0.9965876602715305
 32
0.0
 13
-0.9999852426369642
 23
-0.0054327256779198
 33
0.0
 40
0.0
 40
0.0
 40
0.0
 40
0.0
 40
0.2784273686463643
 40
0.6501915231703963
 40
1.037931561760755
 40
1.44422328890781
 40
1.867941090748862
 40
2.304887110477738
 40
2.748750534435749
 40
2.748750534435749
 40
2.748750534435749
 40
2.748750534435749
 10
11.86503019974861
 20
-2.208726652005687
 30
0.0
 10
11.85736963141607
 20
-2.301219078630633
 30
0.0
 10
11.81674215699065
 20
-2.515900587956897
 30
0.0
 10
11.67238724982217
 20
-2.83467234964499
 30
0.0
 10
11.42778926159449
 20
-3.141271897981351
 30
0.0
 10
11.10768428424012
 20
-3.395929980211213
 30
0.0
 10
10.72806220753023
 20
-3.587200261525187
 30
0.0
 10
10.30744212086537
 20
-3.706545103840088
 30
0.0
 10
10.01328770177473
 20
-3.734512620774434
 30
0.0
 10
9.865335410539956
 20
-3.735316416848043
 30
0.0
 11
11.86503019974861
 21
-2.208726652005687
 31
0.0
 11
11.81344210194857
 21
-2.482333062341247
 31
0.0
 11
11.66173780447116
 21
-2.821736056900597
 31
0.0
 11
11.4216363594287
 21
-3.126192348697266
 31
0.0
 11
11.10495269911098
 21
-3.380720199503237
 31
0.0
 11
10.72727015175132
 21
-3.572794843891649
 31
0.0
 11
10.3071736958309
 21
-3.69296468985977
 31
0.0
 11
9.865335410539956
 21
-3.735316416848043
 31
0.0
  0
SPLINE
  5
B7
330
2F
100
AcDbEntity
  8
--4N-THT. MCB-MCCB-ACB
100
AcDbSpline
 70
1064
 71
3
 72
14
 73
10
 74
8
 42
1e-09
 12
0.0898130764328554
 22
0.995958639352893
 32
0.0
 13
0.9999746446911812
 23
0.0071210936481606
 33
0.0
 40
0.0
 40
0.0
 40
0.0
 40
0.0
 40
0.0950012718162272
 40
0.2637218695193889
 40
0.513102370824331
 40
0.8349917101418199
 40
1.215414597036462
 40
1.63654337730583
 40
2.077988476583027
 40
2.077988476583027
 40
2.077988476583027
 40
2.077988476583027
 10
-11.97559437295876
 20
5.757613346867394
 30
0.0
 10
-11.97275025412982
 20
5.789152459339022
 30
0.0
 10
-11.9005595553483
 20
5.858979959001118
 30
0.0
 10
-11.74498528911613
 20
5.919774084678817
 30
0.0
 10
-11.50452875102674
 20
5.985096559162238
 30
0.0
 10
-11.19219287574644
 20
6.037802987678665
 30
0.0
 10
-10.81975687183571
 20
6.080461889257405
 30
0.0
 10
-10.40629725665444
 20
6.107935343034426
 30
0.0
 10
-10.11879440916432
 20
6.11650385753469
 30
0.0
 10
-9.97164977373086
 20
6.117551714832181
 30
0.0
 11
-11.97559437295876
 21
5.757613346867394
 31
0.0
 11
-11.9197309627898
 21
5.834454228245697
 31
0.0
 11
-11.76796129179001
 21
5.908160449515882
 31
0.0
 11
-11.52773697519933
 21
5.975115002383056
 31
0.0
 11
-11.21091262808022
 21
6.031992764635099
 31
0.0
 11
-10.83304963477076
 21
6.076051034692675
 31
0.0
 11
-10.41291594728045
 21
6.104984306318321
 31
0.0
 11
-9.97164977373086
 21
6.117551714832181
 31
0.0
  0
SPLINE
  5
B8
330
2F
100
AcDbEntity
  8
--4N-THT. MCB-MCCB-ACB
100
AcDbSpline
 70
1064
 71
3
 72
8
 73
4
 74
2
 42
1e-09
 12
0.0182560935099862
 22
-0.9998333436377057
 32
0.0
 13
0.0825291021302985
 23
-0.9965886550134747
 33
0.0
 40
0.0
 40
0.0
 40
0.0
 40
0.0
 40
0.0841368467856881
 40
0.0841368467856881
 40
0.0841368467856881
 40
0.0841368467856881
 10
-11.97559437295876
 20
-2.124673585908574
 30
0.0
 10
-11.97508236957791
 20
-2.15271452752353
 30
0.0
 10
-11.97365616429471
 20
-2.180752940736892
 30
0.0
 10
-11.97134158482095
 20
-2.208702883061967
 30
0.0
 11
-11.97559437295876
 21
-2.124673585908574
 31
0.0
 11
-11.97134158482095
 21
-2.208702883061967
 31
0.0
  0
SPLINE
  5
B9
330
2F
100
AcDbEntity
  8
--4N-THT. MCB-MCCB-ACB
100
AcDbSpline
 70
1064
 71
3
 72
14
 73
10
 74
8
 42
1e-09
 12
0.0825291058307199
 22
-0.996588654707037
 32
0.0
 13
0.9999852374552123
 23
-0.0054336793835038
 33
0.0
 40
0.0
 40
0.0
 40
0.0
 40
0.0
 40
0.2784396507874788
 40
0.650203571115137
 40
1.037943291502363
 40
1.44423468860571
 40
1.867952209589105
 40
2.304898041367632
 40
2.748761406581604
 40
2.748761406581604
 40
2.748761406581604
 40
2.748761406581604
 10
-11.97134158482095
 20
-2.208702883061967
 30
0.0
 10
-11.96368179301851
 20
-2.30119948206043
 30
0.0
 10
-11.9230550607464
 20
-2.515885435636221
 30
0.0
 10
-11.7786992905336
 20
-2.834661118949231
 30
0.0
 10
-11.53410208890692
 20
-3.141260944800757
 30
0.0
 10
-11.21399775282401
 20
-3.395919345126142
 30
0.0
 10
-10.83437615113745
 20
-3.58718999097713
 30
0.0
 10
-10.41375635645234
 20
-3.706535231029054
 30
0.0
 10
-10.11960204461791
 20
-3.734503013436645
 30
0.0
 10
-9.97164977373086
 20
-3.735306950508864
 30
0.0
 11
-11.97134158482095
 21
-2.208702883061967
 31
0.0
 11
-11.91975318666937
 21
-2.482321735312332
 31
0.0
 11
-11.76804978770906
 21
-2.821724874957915
 31
0.0
 11
-11.5279491470219
 21
-3.126181395839928
 31
0.0
 11
-11.21126615358935
 21
-3.380709549549472
 31
0.0
 11
-10.83358410513847
 21
-3.572784555383812
 31
0.0
 11
-10.41348795975045
 21
-3.692954803526852
 31
0.0
 11
-9.97164977373086
 21
-3.735306950508864
 31
0.0
  0
SPLINE
  5
BA
330
2F
100
AcDbEntity
  8
--4N-THT. MCB-MCCB-ACB
100
AcDbSpline
 70
1064
 71
3
 72
13
 73
9
 74
7
 42
1e-09
 12
0.9999746795808855
 22
-0.0071161925989561
 32
0.0
 13
0.0006670494224616
 23
-0.9999997775225091
 33
0.0
 40
0.0
 40
0.0
 40
0.0
 40
0.0
 40
0.5226464640447307
 40
1.040409663368673
 40
1.548699278079519
 40
2.045288370140035
 40
2.531039303437537
 40
3.009859403733026
 40
3.009859403733026
 40
3.009859403733026
 40
3.009859403733026
 10
9.86533747994963
 20
7.600667613093712
 30
0.0
 10
10.03954855675537
 20
7.599427862127277
 30
0.0
 10
10.38747892650422
 20
7.555387387502948
 30
0.0
 10
10.87405996680092
 20
7.368863312049176
 30
0.0
 10
11.29372265836204
 20
7.073819133419459
 30
0.0
 10
11.61738095571109
 20
6.689070534603107
 30
0.0
 10
11.82210189370953
 20
6.240515307020521
 30
0.0
 10
11.86917776957215
 20
5.917208630973436
 30
0.0
 10
11.86928423512927
 20
5.757601966383838
 30
0.0
 11
9.86533747994963
 21
7.600667613093712
 31
0.0
 11
10.38380064397006
 21
7.534673113835189
 31
0.0
 11
10.86695864418016
 21
7.348562723455863
 31
0.0
 11
11.28191044707
 21
7.055009774737293
 31
0.0
 11
11.60039956980017
 21
6.674003993867692
 31
0.0
 11
11.80073824219016
 21
6.231490281600592
 31
0.0
 11
11.86928423512927
 21
5.757601966383838
 31
0.0
  0
SPLINE
  5
BB
330
2F
100
AcDbEntity
  8
--4N-THT. MCB-MCCB-ACB
100
AcDbSpline
 70
1064
 71
3
 72
12
 73
8
 74
6
 42
1e-09
 12
0.9999065800303499
 22
0.0136686214377839
 32
0.0
 13
0.5096669510355831
 23
-0.8603717795360866
 33
0.0
 40
0.0
 40
0.0
 40
0.0
 40
0.0
 40
0.4413339982509957
 40
0.8797966778739205
 40
1.309582056969992
 40
1.738218290074261
 40
2.053356967056829
 40
2.053356967056829
 40
2.053356967056829
 40
2.053356967056829
 10
10.59582924912774
 20
24.08548023662934
 30
0.0
 10
10.74292683874183
 20
24.08749104574591
 30
0.0
 10
11.0375664056618
 20
24.06045064759233
 30
0.0
 10
11.45692173474841
 20
23.92781836161181
 30
0.0
 10
11.83409414108163
 20
23.7094821788286
 30
0.0
 10
12.1231596732498
 20
23.44078857253226
 30
0.0
 10
12.26816515358009
 20
23.23803532029652
 30
0.0
 10
12.32170374313045
 20
23.14765651219113
 30
0.0
 11
10.59582924912774
 21
24.08548023662934
 31
0.0
 11
11.03527928741005
 21
24.044744971
 31
0.0
 11
11.45319254357036
 21
23.91208739772356
 31
0.0
 11
11.82484967351138
 21
23.6962484534879
 31
0.0
 11
12.13842969706002
 21
23.40402150544742
 31
0.0
 11
12.32170374313045
 21
23.14765651219113
 31
0.0
  0
SPLINE
  5
BC
330
2F
100
AcDbEntity
  8
--4N-THT. MCB-MCCB-ACB
100
AcDbSpline
 70
1064
 71
3
 72
13
 73
9
 74
7
 42
1e-09
 12
0.0006669523794088
 22
0.9999997775872369
 32
0.0
 13
0.9999746863770445
 23
0.0071152375316167
 33
0.0
 40
0.0
 40
0.0
 40
0.0
 40
0.0
 40
0.4788200289644454
 40
0.9645707736547713
 40
1.461159618296741
 40
1.96944899329678
 40
2.487212032683459
 40
3.009858449199451
 40
3.009858449199451
 40
3.009858449199451
 40
3.009858449199451
 10
-11.97559437295876
 20
5.757613346867394
 30
0.0
 10
-11.97548792290622
 20
5.917219987690314
 30
0.0
 10
-11.92841209060752
 20
6.240526584259423
 30
0.0
 10
-11.72369119048171
 20
6.689081653033736
 30
0.0
 10
-11.40003288965533
 20
7.073829968713537
 30
0.0
 10
-10.98037018002061
 20
7.368873760209767
 30
0.0
 10
-10.49378911411054
 20
7.555397369876277
 30
0.0
 10
-10.14585876901681
 20
7.599437494966704
 30
0.0
 10
-9.97164770686959
 20
7.600677079432891
 30
0.0
 11
-11.97559437295876
 21
5.757613346867394
 31
0.0
 11
-11.90704842074865
 21
6.231501595902038
 31
0.0
 11
-11.70670978398902
 21
6.674015117264382
 31
0.0
 11
-11.38822068163154
 21
7.055020592687462
 31
0.0
 11
-10.97326889146006
 21
7.348573144322465
 31
0.0
 11
-10.49011088615862
 21
7.53468307653474
 31
0.0
 11
-9.97164770686959
 21
7.600677079432891
 31
0.0
  0
SPLINE
  5
BD
330
2F
100
AcDbEntity
  8
--4N-THT. MCB-MCCB-ACB
100
AcDbSpline
 70
1064
 71
3
 72
12
 73
8
 74
6
 42
1e-09
 12
-0.9999065669562043
 22
0.0136695778229488
 32
0.0
 13
-0.5096745276573058
 23
-0.8603672912525802
 33
0.0
 40
0.0
 40
0.0
 40
0.0
 40
0.0
 40
0.4413338986668628
 40
0.8797964185598811
 40
1.309581604552325
 40
1.738217634759002
 40
2.053340719746619
 40
2.053340719746619
 40
2.053340719746619
 40
2.053340719746619
 10
-10.70203689896971
 20
24.08549040041271
 30
0.0
 10
-10.84913445346883
 20
24.08750134977062
 30
0.0
 10
-11.14377396030082
 20
24.06046124048951
 30
0.0
 10
-11.56312926351395
 20
23.92782935553402
 30
0.0
 10
-11.94030165941672
 20
23.70949353443504
 30
0.0
 10
-12.22936341591285
 20
23.4408037075861
 30
0.0
 10
-12.37436664610133
 20
23.23805553848518
 30
0.0
 10
-12.42790338259965
 20
23.1476816734712
 30
0.0
 11
-10.70203689896971
 21
24.08549040041271
 31
0.0
 11
-11.14148687617216
 21
24.04475555477347
 31
0.0
 11
-11.55940009160167
 21
23.91209838112536
 31
0.0
 11
-11.93105720371113
 21
23.69625979069951
 31
0.0
 11
-12.24463722982091
 21
23.40403314301602
 31
0.0
 11
-12.42790338259965
 21
23.1476816734712
 31
0.0
  0
SPLINE
  5
BE
330
2F
100
AcDbEntity
  8
--4N-THT. MCB-MCCB-ACB
100
AcDbSpline
 70
1064
 71
3
 72
10
 73
6
 74
4
 42
1e-09
 12
-0.9999065797149631
 22
-0.0136686445093924
 32
0.0
 13
-0.9999999999998752
 23
4.994352885e-07
 33
0.0
 40
0.0
 40
0.0
 40
0.0
 40
0.0
 40
0.0085087015884621
 40
0.0170014436403292
 40
0.0254827816989422
 40
0.0254827816989422
 40
0.0254827816989422
 40
0.0254827816989422
 10
10.59582924912774
 20
24.08548023662934
 30
0.0
 10
10.5929932802267
 20
24.08544146915692
 30
0.0
 10
10.58732647643306
 20
24.08537691741392
 30
0.0
 10
10.5788323877355
 20
24.08531887397228
 30
0.0
 10
10.57317435223423
 20
24.08530598731571
 30
0.0
 10
10.57034723954803
 20
24.08530598872767
 30
0.0
 11
10.59582924912774
 21
24.08548023662934
 31
0.0
 11
10.58732109944776
 21
24.08538332561602
 31
0.0
 11
10.57882855562002
 21
24.08532530067805
 31
0.0
 11
10.57034723954803
 21
24.08530598872767
 31
0.0
  0
SPLINE
  5
BF
330
2F
100
AcDbEntity
  8
--4N-THT. MCB-MCCB-ACB
100
AcDbSpline
 70
1064
 71
3
 72
16
 73
12
 74
10
 42
1e-09
 12
0.012636882522344
 22
0.9999201514121597
 32
0.0
 13
-0.0075213722714056
 23
0.9999717140795308
 33
0.0
 40
0.0
 40
0.0
 40
0.0
 40
0.0
 40
0.7906992759219554
 40
1.694417609516362
 40
2.697196517590561
 40
3.783571498358125
 40
4.936803650802741
 40
6.139105578612951
 40
7.371951866138818
 40
8.616323291260988
 40
9.852988547489876
 40
9.852988547489876
 40
9.852988547489876
 40
9.852988547489876
 10
-9.971642244438954
 20
-3.735306950508864
 30
0.0
 10
-9.96831158648551
 20
-3.471761570608408
 30
0.0
 10
-9.96257318434517
 20
-2.906983031661257
 30
0.0
 10
-9.956427301052912
 20
-2.007937452230244
 30
0.0
 10
-9.952287607247598
 20
-1.010320909066392
 30
0.0
 10
-9.950222205150672
 20
0.0704732186669901
 30
0.0
 10
-9.95027573226547
 20
1.217776903131704
 30
0.0
 10
-9.952452282969446
 20
2.413902289637193
 30
0.0
 10
-9.956721080012718
 20
3.64040195991594
 30
0.0
 10
-9.963020625767443
 20
4.878347415066211
 30
0.0
 10
-9.968545128564719
 20
5.705341622827581
 30
0.0
 10
-9.971645601820455
 20
6.117551714832181
 30
0.0
 11
-9.971642244438954
 21
-3.735306950508864
 31
0.0
 11
-9.963364781821838
 21
-2.944651002225334
 31
0.0
 11
-9.957036609420356
 21
-2.040954825012711
 31
0.0
 11
-9.952762394109413
 21
-1.038185026124672
 31
0.0
 11
-9.950608670081238
 21
0.0481878197760963
 31
0.0
 11
-9.950608652260598
 21
1.201419972220712
 31
0.0
 11
-9.952762376288774
 21
2.403719971010097
 31
0.0
 11
-9.957036614520803
 21
3.636558849190798
 31
0.0
 11
-9.963364776730486
 21
4.880914183499946
 31
0.0
 11
-9.971645601820455
 21
6.117551714832181
 31
0.0
  0
SPLINE
  5
C0
330
2F
100
AcDbEntity
  8
--4N-THT. MCB-MCCB-ACB
100
AcDbSpline
 70
1064
 71
3
 72
8
 73
4
 74
2
 42
1e-09
 12
2.0109095867e-06
 22
-0.9999999999979781
 32
0.0
 13
0.0373556918390869
 23
-0.999302032564341
 33
0.0
 40
0.0
 40
0.0
 40
0.0
 40
0.0
 40
0.0506646726734674
 40
0.0506646726734674
 40
0.0506646726734674
 40
0.0506646726734674
 10
-4.792350481821813
 20
44.54247582382686
 30
0.0
 10
-4.792350447861121
 20
44.52558759960241
 30
0.0
 10
-4.792032756361371
 20
44.50869646903389
 30
0.0
 10
-4.791401885061532
 20
44.49182003223995
 30
0.0
 11
-4.792350481821813
 21
44.54247582382686
 31
0.0
 11
-4.791401885061532
 21
44.49182003223995
 31
0.0
  0
SPLINE
  5
C1
330
2F
100
AcDbEntity
  8
--4N-THT. MCB-MCCB-ACB
100
AcDbSpline
 70
1064
 71
3
 72
13
 73
9
 74
7
 42
1e-09
 12
0.0373557159118399
 22
-0.9993020316644582
 32
0.0
 13
0.9999999999998861
 23
-4.773590777e-07
 33
0.0
 40
0.0
 40
0.0
 40
0.0
 40
0.0
 40
0.3530366595844001
 40
0.760538753229148
 40
1.177168799710786
 40
1.604709165370154
 40
2.043260019077876
 40
2.490600793248027
 40
2.490600793248027
 40
2.490600793248027
 40
2.490600793248027
 10
-4.791401885061532
 20
44.49182003223995
 30
0.0
 10
-4.787005906007565
 20
44.37422328184838
 30
0.0
 10
-4.744777195704729
 20
44.12103229938
 30
0.0
 10
-4.577074541157079
 20
43.76067982208765
 30
0.0
 10
-4.302978879433373
 20
43.43968661812752
 30
0.0
 10
-3.947897184133708
 20
43.19341077646075
 30
0.0
 10
-3.534401881084922
 20
43.03744410822133
 30
0.0
 10
-3.237845009208995
 20
43.00188687306493
 30
0.0
 10
-3.088731417818962
 20
43.00188680188421
 30
0.0
 11
-4.791401885061532
 21
44.49182003223995
 31
0.0
 11
-4.733554231229391
 21
44.14355500104011
 31
0.0
 11
-4.562956422249953
 21
43.77348157062897
 31
0.0
 11
-4.293475761679474
 21
43.45573832646823
 31
0.0
 11
-3.942924798370768
 21
43.21098378332044
 31
0.0
 11
-3.532841296969309
 21
43.05555414275568
 31
0.0
 11
-3.088731417818962
 21
43.00188680188421
 31
0.0
  0
SPLINE
  5
C2
330
2F
100
AcDbEntity
  8
--4N-THT. MCB-MCCB-ACB
100
AcDbSpline
 70
1064
 71
3
 72
12
 73
8
 74
6
 42
1e-09
 12
0.9999999999998859
 22
-4.775823329e-07
 32
0.0
 13
2.086691119e-06
 23
-0.9999999999978229
 33
0.0
 40
0.0
 40
0.0
 40
0.0
 40
0.0
 40
0.3460680525885686
 40
0.6820014160570058
 40
1.005866277082994
 40
1.319942106013482
 40
1.630907104709864
 40
1.630907104709864
 40
1.630907104709864
 40
1.630907104709864
 10
-2.988522267752159
 20
45.88160831515142
 30
0.0
 10
-2.87316625022265
 20
45.88160826005942
 30
0.0
 10
-2.644496787922471
 20
45.84983678728664
 30
0.0
 10
-2.334416235172815
 20
45.71092009646849
 30
0.0
 10
-2.086266470959158
 20
45.49344703785652
 30
0.0
 10
-1.924003607703366
 20
45.21525980387749
 30
0.0
 10
-1.886184963156602
 20
45.00509223883281
 30
0.0
 10
-1.886184746860635
 20
44.90143723926758
 30
0.0
 11
-2.988522267752159
 21
45.88160831515142
 31
0.0
 11
-2.645843501210947
 21
45.83329310031968
 31
0.0
 11
-2.339840504738276
 21
45.69468072410109
 31
0.0
 11
-2.097551448749982
 21
45.4797750202315
 31
0.0
 11
-1.940909780339097
 21
45.20754898540781
 31
0.0
 11
-1.886184746860635
 21
44.90143723926758
 31
0.0
  0
SPLINE
  5
C3
330
2F
100
AcDbEntity
  8
--4N-THT. MCB-MCCB-ACB
100
AcDbSpline
 70
1064
 71
3
 72
12
 73
8
 74
6
 42
1e-09
 12
1.0675340054e-06
 22
0.9999999999994301
 32
0.0
 13
0.9999999999998859
 23
-4.775810024e-07
 33
0.0
 40
0.0
 40
0.0
 40
0.0
 40
0.0
 40
0.3106103844931181
 40
0.6246921544347981
 40
0.9485653832840203
 40
1.28456563765226
 40
1.630911607768181
 40
1.630911607768181
 40
1.630911607768181
 40
1.630911607768181
 10
-4.191074510580619
 20
44.90143563566289
 30
0.0
 10
-4.19107440005157
 20
45.00497243049387
 30
0.0
 10
-4.153325418822751
 20
45.2150190919674
 30
0.0
 10
-3.991221386471757
 20
45.4931683822198
 30
0.0
 10
-3.743128074514208
 20
45.7107494524025
 30
0.0
 10
-3.432970433823246
 20
45.84979285747735
 30
0.0
 10
-3.204183523546443
 20
45.8816084186508
 30
0.0
 10
-3.08873486684115
 20
45.88160836351471
 30
0.0
 11
-4.191074510580619
 21
44.90143563566289
 31
0.0
 11
-4.136474616608211
 21
45.20720951050043
 31
0.0
 11
-3.979931427179508
 21
45.47949904032702
 31
0.0
 11
-3.737710717729896
 21
45.69449438046013
 31
0.0
 11
-3.431683254880226
 21
45.83321482926749
 31
0.0
 11
-3.08873486684115
 21
45.88160836351471
 31
0.0
  0
SPLINE
  5
C4
330
2F
100
AcDbEntity
  8
--4N-THT. MCB-MCCB-ACB
100
AcDbSpline
 70
1064
 71
3
 72
13
 73
9
 74
7
 42
1e-09
 12
0.9999999999998863
 22
-4.768640533e-07
 32
0.0
 13
1.0569150762e-06
 23
0.9999999999994414
 33
0.0
 40
0.0
 40
0.0
 40
0.0
 40
0.0
 40
0.4469191931955649
 40
0.8853402314860835
 40
1.313068648323371
 40
1.729529968712054
 40
2.137160781695186
 40
2.540787863630709
 40
2.540787863630709
 40
2.540787863630709
 40
2.540787863630709
 10
-2.98851881110113
 20
43.00188675352091
 30
0.0
 10
-2.839545746702625
 20
43.00188668248102
 30
0.0
 10
-2.543176128571161
 20
43.03738825910945
 30
0.0
 10
-2.129757591773449
 20
43.19320920406816
 30
0.0
 10
-1.774639376046982
 20
43.43935489575062
 30
0.0
 10
-1.500413774574886
 20
43.76035901139505
 30
0.0
 10
-1.325427943730759
 20
44.13593440461455
 30
0.0
 10
-1.284909678900828
 20
44.40793782854169
 30
0.0
 10
-1.284909536700979
 20
44.54248018918678
 30
0.0
 11
-2.98851881110113
 21
43.00188675352091
 31
0.0
 11
-2.544821579459494
 21
43.05545476524549
 31
0.0
 11
-2.134818927600463
 21
43.21073139672717
 31
0.0
 11
-1.784048329370307
 21
43.4554998301237
 31
0.0
 11
-1.514586474221687
 21
43.77303776486496
 31
0.0
 11
-1.343820511020567
 21
44.14317539535568
 31
0.0
 11
-1.284909536700979
 21
44.54248018918678
 31
0.0
  0
SPLINE
  5
C5
330
2F
100
AcDbEntity
  8
--4N-THT. MCB-MCCB-ACB
100
AcDbSpline
 70
1064
 71
3
 72
13
 73
9
 74
7
 42
1e-09
 12
-0.9999999999998859
 22
4.775898809e-07
 32
0.0
 13
-1.0652374722e-06
 23
-0.9999999999994326
 33
0.0
 40
0.0
 40
0.0
 40
0.0
 40
0.0
 40
0.4467160469414144
 40
0.8833749158909473
 40
1.307121498156568
 40
1.718134279031551
 40
2.120459589570206
 40
2.520937415025105
 40
2.520937415025105
 40
2.520937415025105
 40
2.520937415025105
 10
-3.088738919109346
 20
46.41194844538313
 30
0.0
 10
-3.2376442680898
 20
46.41194851649881
 30
0.0
 10
-3.533282204483499
 20
46.37786145573296
 30
0.0
 10
-3.946447903690021
 20
46.2276314637669
 30
0.0
 10
-4.301973552878545
 20
45.98879500768919
 30
0.0
 10
-4.576917044751331
 20
45.6747522317069
 30
0.0
 10
-4.752213554631818
 20
45.30422757390952
 30
0.0
 10
-4.792349960359374
 20
45.03495320943356
 30
0.0
 10
-4.792350102560703
 20
44.90146060094867
 30
0.0
 11
-3.088738919109346
 21
46.41194844538313
 31
0.0
 11
-3.532450677338601
 21
46.36022705518462
 31
0.0
 11
-3.942449788549311
 21
46.20998825647165
 31
0.0
 11
-4.293191975029003
 21
45.9722045635799
 31
0.0
 11
-4.562681725218681
 21
45.66187122572318
 31
0.0
 11
-4.733442396530335
 21
45.29758226262766
 31
0.0
 11
-4.792350102560703
 21
44.90146060094867
 31
0.0
  0
SPLINE
  5
C6
330
2F
100
AcDbEntity
  8
--4N-THT. MCB-MCCB-ACB
100
AcDbSpline
 70
1064
 71
3
 72
13
 73
9
 74
7
 42
1e-09
 12
-2.0274612191e-06
 22
0.9999999999979448
 32
0.0
 13
-0.9999999999998864
 23
4.765746106e-07
 33
0.0
 40
0.0
 40
0.0
 40
0.0
 40
0.0
 40
0.4001206304302027
 40
0.802336912320359
 40
1.213477445384417
 40
1.637069828649019
 40
2.073856011308593
 40
2.520966904297119
 40
2.520966904297119
 40
2.520966904297119
 40
2.520966904297119
 10
-1.28490915743805
 20
44.90143838469793
 30
0.0
 10
-1.284909427847737
 20
45.0348119281744
 30
0.0
 10
-1.324975349223559
 20
45.30392787454301
 30
0.0
 10
-1.500110958485705
 20
45.67440085789075
 30
0.0
 10
-1.774937004548554
 20
45.98849141731678
 30
0.0
 10
-2.130425445882363
 20
46.22743921833559
 30
0.0
 10
-2.543674421608671
 20
46.37781130387852
 30
0.0
 10
-2.839489353151554
 20
46.41194832599807
 30
0.0
 10
-2.988526317481046
 20
46.4119483970253
 30
0.0
 11
-1.28490915743805
 21
44.90143838469793
 31
0.0
 11
-1.343704842959596
 21
45.29721557739594
 31
0.0
 11
-1.51430847327083
 21
45.66145772040272
 31
0.0
 11
-1.783793593372138
 21
45.97196425491074
 31
0.0
 11
-2.134345681749437
 21
46.20975353241101
 31
0.0
 11
-2.544427615180211
 21
46.36013630149045
 31
0.0
 11
-2.988526317481046
 21
46.4119483970253
 31
0.0
  0
SPLINE
  5
C7
330
2F
100
AcDbEntity
  8
--4N-THT. MCB-MCCB-ACB
100
AcDbSpline
 70
1064
 71
3
 72
12
 73
8
 74
6
 42
1e-09
 12
-1.0568346214e-06
 22
-0.9999999999994414
 32
0.0
 13
-0.9999999999998856
 23
4.779810035e-07
 33
0.0
 40
0.0
 40
0.0
 40
0.0
 40
0.0
 40
0.3127189754428373
 40
0.6298876953856681
 40
0.9563862760195798
 40
1.293656569296891
 40
1.640197401233658
 40
1.640197401233658
 40
1.640197401233658
 40
1.640197401233658
 10
-1.886185128679244
 20
44.54248047681995
 30
0.0
 10
-1.886185238843324
 20
44.43824081833906
 30
0.0
 10
-1.924165365797362
 20
44.22654142326995
 30
0.0
 10
-2.08587378052191
 20
43.94532348646018
 30
0.0
 10
-2.333481129965031
 20
43.72372229295084
 30
0.0
 10
-2.643680313777612
 20
43.58117051931976
 30
0.0
 10
-2.873011138875699
 20
43.54840701236145
 30
0.0
 10
-2.988524749521275
 20
43.54840706757477
 30
0.0
 11
-1.886185128679244
 21
44.54248047681995
 31
0.0
 11
-1.940786633888819
 21
44.23456517477916
 31
0.0
 11
-2.097320537700397
 21
43.95871533543231
 31
0.0
 11
-2.339533267321712
 21
43.73977626453506
 31
0.0
 11
-2.645547914079543
 21
43.59797962600987
 31
0.0
 11
-2.988524749521275
 21
43.54840706757477
 31
0.0
  0
SPLINE
  5
C8
330
2F
100
AcDbEntity
  8
--4N-THT. MCB-MCCB-ACB
100
AcDbSpline
 70
1064
 71
3
 72
12
 73
8
 74
6
 42
1e-09
 12
-0.9999999999998861
 22
4.771032079e-07
 32
0.0
 13
-0.0576010535492079
 23
0.9983396809853955
 33
0.0
 40
0.0
 40
0.0
 40
0.0
 40
0.0
 40
0.3462348379401454
 40
0.6834353575503683
 40
1.009925370655325
 40
1.327094590282494
 40
1.590451685243809
 40
1.590451685243809
 40
1.590451685243809
 40
1.590451685243809
 10
-3.088737348601171
 20
43.54840711593624
 30
0.0
 10
-3.204148961247873
 20
43.54840717099949
 30
0.0
 10
-3.433350493561783
 20
43.58111579396277
 30
0.0
 10
-3.743473260022543
 20
43.72354941676009
 30
0.0
 10
-3.991128240161739
 20
43.94495777938684
 30
0.0
 10
-4.144648999764505
 20
44.2118667303823
 30
0.0
 10
-4.184561066547892
 20
44.40447367771088
 30
0.0
 10
-4.189617615257702
 20
44.49211362376717
 30
0.0
 11
-3.088737348601171
 21
43.54840711593624
 31
0.0
 11
-3.431417744202008
 21
43.59789155262387
 31
0.0
 11
-3.737410235810784
 21
43.73957001077633
 31
0.0
 11
-3.979698230351459
 21
43.95841300554366
 31
0.0
 11
-4.136340769288835
 21
44.23420174511465
 31
0.0
 11
-4.189617615257702
 21
44.49211362376717
 31
0.0
  0
SPLINE
  5
C9
330
2F
100
AcDbEntity
  8
--4N-THT. MCB-MCCB-ACB
100
AcDbSpline
 70
1064
 71
3
 72
8
 73
4
 74
2
 42
1e-09
 12
-0.0576010633851742
 22
0.9983396804178912
 32
0.0
 13
-2.0735845358e-06
 23
0.9999999999978502
 33
0.0
 40
0.0
 40
0.0
 40
0.0
 40
0.0
 40
0.0503863174196021
 40
0.0503863174196021
 40
0.0503863174196021
 40
0.0503863174196021
 10
-4.189617615257702
 20
44.49211362376717
 30
0.0
 10
-4.190585050412179
 20
44.50888117711055
 30
0.0
 10
-4.191074857572465
 20
44.52568342389453
 30
0.0
 10
-4.191074892399228
 20
44.54247886303437
 30
0.0
 11
-4.189617615257702
 21
44.49211362376717
 31
0.0
 11
-4.191074892399228
 21
44.54247886303437
 31
0.0
  0
SPLINE
  5
CA
330
2F
100
AcDbEntity
  8
--4N-THT. MCB-MCCB-ACB
100
AcDbSpline
 70
1064
 71
3
 72
12
 73
8
 74
6
 42
1e-09
 12
0.9999999999998859
 22
-4.777363642e-07
 32
0.0
 13
1.0612905551e-06
 23
0.9999999999994367
 33
0.0
 40
0.0
 40
0.0
 40
0.0
 40
0.0
 40
0.3451722981491596
 40
0.6823896319524235
 40
1.008744521059326
 40
1.324892115425799
 40
1.635709271673276
 40
1.635709271673276
 40
1.635709271673276
 40
1.635709271673276
 10
-2.988524662970121
 20
43.5036375974878
 30
0.0
 10
-2.873467230253747
 20
43.50363754252067
 30
0.0
 10
-2.644660122730527
 20
43.53580700476498
 30
0.0
 10
-2.334182820730963
 20
43.67637810023568
 30
0.0
 10
-2.085700599004803
 20
43.89650134187495
 30
0.0
 10
-1.923934722334669
 20
44.17661946140745
 30
0.0
 10
-1.886185141906615
 20
44.38736008998082
 30
0.0
 10
-1.886185031950844
 20
44.49096580872992
 30
0.0
 11
-2.988524662970121
 21
43.5036375974878
 31
0.0
 11
-2.646797193859129
 21
43.5522817365445
 31
0.0
 11
-2.34012085509039
 21
43.6925142344071
 31
0.0
 11
-2.097026297099546
 21
43.91025846399588
 31
0.0
 11
-1.940482771679853
 21
44.18492813118336
 31
0.0
 11
-1.886185031950844
 21
44.49096580872992
 31
0.0
  0
SPLINE
  5
CB
330
2F
100
AcDbEntity
  8
--4N-THT. MCB-MCCB-ACB
100
AcDbSpline
 70
1064
 71
3
 72
13
 73
9
 74
7
 42
1e-09
 12
0.0374884313348338
 22
0.9992970616968978
 32
0.0
 13
0.9999999999998861
 23
-4.771586759e-07
 33
0.0
 40
0.0
 40
0.0
 40
0.0
 40
0.0
 40
0.350123644382644
 40
0.7553934711306604
 40
1.170600011248281
 40
1.597751543953215
 40
2.035765238805045
 40
2.480976369125724
 40
2.480976369125724
 40
2.480976369125724
 40
2.480976369125724
 10
-4.791399479660867
 20
44.90058477971706
 30
0.0
 10
-4.787024284260487
 20
45.01721062273779
 30
0.0
 10
-4.745139573992187
 20
45.26870084949983
 30
0.0
 10
-4.577702858961358
 20
45.62688246107431
 30
0.0
 10
-4.302572257597464
 20
45.94534660529411
 30
0.0
 10
-3.94627839305447
 20
46.18851030724329
 30
0.0
 10
-3.532742760405861
 20
46.34121137479738
 30
0.0
 10
-3.237137920229187
 20
46.37586676866862
 30
0.0
 10
-3.088734210122311
 20
46.3758666978565
 30
0.0
 11
-4.791399479660867
 21
44.90058477971706
 31
0.0
 11
-4.733983456938403
 21
45.24596857593587
 31
0.0
 11
-4.563612542359805
 21
45.6136877404324
 31
0.0
 11
-4.293387161401369
 21
45.92892529283107
 31
0.0
 11
-3.941432236898435
 21
46.17097107984318
 31
0.0
 11
-3.530864633509736
 21
46.32358248153195
 31
0.0
 11
-3.088734210122311
 21
46.3758666978565
 31
0.0
  0
SPLINE
  5
CC
330
2F
100
AcDbEntity
  8
--4N-THT. MCB-MCCB-ACB
100
AcDbSpline
 70
1064
 71
3
 72
13
 73
9
 74
7
 42
1e-09
 12
0.9999999999998861
 22
-4.771588649e-07
 32
0.0
 13
0.0374863778168601
 23
-0.9992971387321048
 33
0.0
 40
0.0
 40
0.0
 40
0.0
 40
0.0
 40
0.4451780230280967
 40
0.8831726648385423
 40
1.310319014777726
 40
1.725533074624365
 40
2.130821815508612
 40
2.480975456008269
 40
2.480975456008269
 40
2.480975456008269
 40
2.480975456008269
 10
-2.988521613578086
 20
46.37586664949504
 30
0.0
 10
-2.840128939235404
 20
46.37586657868816
 30
0.0
 10
-2.544541787822744
 20
46.34121556479278
 30
0.0
 10
-2.131021212903113
 20
46.18853050805266
 30
0.0
 10
-1.774724671441547
 20
45.9453810852184
 30
0.0
 10
-1.499578901822118
 20
45.62692046447852
 30
0.0
 10
-1.33212456669891
 20
45.26872559905678
 30
0.0
 10
-1.290234807982764
 20
45.01721890271698
 30
0.0
 10
-1.285859477428857
 20
44.90058305902766
 30
0.0
 11
-2.988521613578086
 21
46.37586664949504
 31
0.0
 11
-2.546423656770457
 21
46.32358980209846
 31
0.0
 11
-2.135870478158722
 21
46.1709942786174
 31
0.0
 11
-1.783912315920133
 21
45.92896234622003
 31
0.0
 11
-1.513671764369973
 21
45.61372789411779
 31
0.0
 11
-1.343283464709202
 21
45.24599593898438
 31
0.0
 11
-1.285859477428857
 21
44.90058305902766
 31
0.0
  0
SPLINE
  5
CD
330
2F
100
AcDbEntity
  8
--4N-THT. MCB-MCCB-ACB
100
AcDbSpline
 70
1064
 71
3
 72
12
 73
8
 74
6
 42
1e-09
 12
2.0774570089e-06
 22
-0.999999999997842
 32
0.0
 13
0.9999999999998859
 23
-4.777373738e-07
 33
0.0
 40
0.0
 40
0.0
 40
0.0
 40
0.0
 40
0.3108525951311587
 40
0.6270209751565555
 40
0.9533777608766101
 40
1.290575528503448
 40
1.635705856226812
 40
1.635705856226812
 40
1.635705856226812
 40
1.635705856226812
 10
-4.191074795670829
 20
44.49096420767182
 30
0.0
 10
-4.191074580409861
 20
44.38734667596166
 30
0.0
 10
-4.153316853540943
 20
44.17658678458005
 30
0.0
 10
-3.991526545506554
 20
43.8964593343462
 30
0.0
 10
-3.743031264086764
 20
43.67634948991398
 30
0.0
 10
-3.43256676672098
 20
43.53580048330738
 30
0.0
 10
-3.20378070208333
 20
43.50363770080981
 30
0.0
 10
-3.088737259508889
 20
43.50363764584926
 30
0.0
 11
-4.191074795670829
 21
44.49096420767182
 31
0.0
 11
-4.136764443487663
 21
44.18489277557546
 31
0.0
 11
-3.980196970939687
 21
43.91021283260942
 31
0.0
 11
-3.737088716149628
 21
43.69248105257156
 31
0.0
 11
-3.430423979320949
 21
43.55227023387942
 31
0.0
 11
-3.088737259508889
 21
43.50363764584926
 31
0.0
  0
LWPOLYLINE
  5
CE
330
2F
100
AcDbEntity
  8
--4N-THT. MCB-MCCB-ACB
 62
2
100
AcDbPolyline
 90
4
 70
1
 10
-30.00000000000091
 20
72.50001299288124
 10
29.9999999999991
 20
72.50001299288124
 10
30.00000000118872
 20
-41.50001299306872
 10
-30.00000000000091
 20
-41.49998700711877
  0
MTEXT
  5
CF
330
2F
100
AcDbEntity
  8
--4N-THT. MCB-MCCB-ACB
 62
3
100
AcDbMText
 10
-0.0015000003741079
 20
-34.75394275144846
 30
0.0
 40
3.0
 41
16.05239991518829
 46
0.0
 71
5
 72
5
  1
W140xH255xD106
  7
VNI-TNR-DIM
101
Embedded Object
 70
1
 10
1.0
 20
0.0
 30
0.0
 11
-0.0015000003741079
 21
-34.75394275144846
 31
0.0
 40
16.05239991518829
 41
0.0
 42
16.05239991518829
 43
0.0
 71
2
 72
1
 44
16.05239991518829
 45
15.0
 73
0
 74
0
 46
0.0
  0
ENDBLK
  5
31
330
2F
100
AcDbEntity
  8
0
100
AcDbBlockEnd
  0
ENDSEC
  0
SECTION
  2
ENTITIES
  0
INSERT
  5
D4
330
17
100
AcDbEntity
  8
0
100
AcDbBlockReference
  2
06 - N - SC MCCB EZC400~630 3 PHASE
 10
70.00000000000182
 20
127.5000129930631
 30
0.0
  0
ENDSEC
  0
SECTION
  2
OBJECTS
  0
DICTIONARY
  5
A
330
0
100
AcDbDictionary
281
1
  3
ACAD_COLOR
350
B
  3
ACAD_GROUP
350
C
  3
ACAD_LAYOUT
350
D
  3
ACAD_MATERIAL
350
E
  3
ACAD_MLEADERSTYLE
350
F
  3
ACAD_MLINESTYLE
350
10
  3
ACAD_PLOTSETTINGS
350
11
  3
ACAD_PLOTSTYLENAME
350
12
  3
ACAD_SCALELIST
350
14
  3
ACAD_TABLESTYLE
350
15
  3
ACAD_VISUALSTYLE
350
16
  3
EZDXF_META
350
2D
  0
DICTIONARY
  5
B
330
A
100
AcDbDictionary
281
1
  0
DICTIONARY
  5
C
330
A
100
AcDbDictionary
281
1
  0
DICTIONARY
  5
D
330
A
100
AcDbDictionary
281
1
  3
Model
350
1A
  3
Layout1
350
1E
  0
DICTIONARY
  5
E
330
A
100
AcDbDictionary
281
1
  3
ByBlock
350
1F
  3
ByLayer
350
20
  3
Global
350
21
  0
DICTIONARY
  5
F
330
A
100
AcDbDictionary
281
1
  3
Standard
350
2C
  0
DICTIONARY
  5
10
330
A
100
AcDbDictionary
281
1
  3
Standard
350
22
  0
DICTIONARY
  5
11
330
A
100
AcDbDictionary
281
1
  0
ACDBDICTIONARYWDFLT
  5
12
330
A
100
AcDbDictionary
281
1
  3
Normal
350
13
100
AcDbDictionaryWithDefault
340
13
  0
ACDBPLACEHOLDER
  5
13
330
12
  0
DICTIONARY
  5
14
330
A
100
AcDbDictionary
281
1
  0
DICTIONARY
  5
15
330
A
100
AcDbDictionary
281
1
  0
DICTIONARY
  5
16
330
A
100
AcDbDictionary
281
1
  0
LAYOUT
  5
1A
330
D
100
AcDbPlotSettings
  1

  4
A3
  6

 40
7.5
 41
20.0
 42
7.5
 43
20.0
 44
420.0
 45
297.0
 46
0.0
 47
0.0
 48
0.0
 49
0.0
140
0.0
141
0.0
142
1.0
143
1.0
 70
1024
 72
1
 73
0
 74
5
  7

 75
16
 76
0
 77
2
 78
300
147
1.0
148
0.0
149
0.0
100
AcDbLayout
  1
Model
 70
1
 71
0
 10
0.0
 20
0.0
 11
420.0
 21
297.0
 12
0.0
 22
0.0
 32
0.0
 14
1e+20
 24
1e+20
 34
1e+20
 15
-1e+20
 25
-1e+20
 35
-1e+20
146
0.0
 13
0.0
 23
0.0
 33
0.0
 16
1.0
 26
0.0
 36
0.0
 17
0.0
 27
1.0
 37
0.0
 76
1
330
17
  0
LAYOUT
  5
1E
330
D
100
AcDbPlotSettings
  1

  4
A3
  6

 40
7.5
 41
20.0
 42
7.5
 43
20.0
 44
420.0
 45
297.0
 46
0.0
 47
0.0
 48
0.0
 49
0.0
140
0.0
141
0.0
142
1.0
143
1.0
 70
0
 72
1
 73
0
 74
5
  7

 75
16
 76
0
 77
2
 78
300
147
1.0
148
0.0
149
0.0
100
AcDbLayout
  1
Layout1
 70
1
 71
1
 10
0.0
 20
0.0
 11
420.0
 21
297.0
 12
0.0
 22
0.0
 32
0.0
 14
1e+20
 24
1e+20
 34
1e+20
 15
-1e+20
 25
-1e+20
 35
-1e+20
146
0.0
 13
0.0
 23
0.0
 33
0.0
 16
1.0
 26
0.0
 36
0.0
 17
0.0
 27
1.0
 37
0.0
 76
1
330
1B
  0
MATERIAL
  5
1F
102
{ACAD_REACTORS
330
E
102
}
330
E
100
AcDbMaterial
  1
ByBlock
  2

 70
0
 40
1.0
 71
1
 41
1.0
 91
-1023410177
 42
1.0
 72
1
  3

 73
1
 74
1
 75
1
 44
0.5
 73
0
 45
1.0
 46
1.0
 77
1
  4

 78
1
 79
1
170
1
 48
1.0
171
1
  6

172
1
173
1
174
1
140
1.0
141
1.0
175
1
  7

176
1
177
1
178
1
143
1.0
179
1
  8

270
1
271
1
272
1
145
1.0
146
1.0
273
1
  9

274
1
275
1
276
1
 42
1.0
 72
1
  3

 73
1
 74
1
 75
1
 94
63
  0
MATERIAL
  5
20
102
{ACAD_REACTORS
330
E
102
}
330
E
100
AcDbMaterial
  1
ByLayer
  2

 70
0
 40
1.0
 71
1
 41
1.0
 91
-1023410177
 42
1.0
 72
1
  3

 73
1
 74
1
 75
1
 44
0.5
 73
0
 45
1.0
 46
1.0
 77
1
  4

 78
1
 79
1
170
1
 48
1.0
171
1
  6

172
1
173
1
174
1
140
1.0
141
1.0
175
1
  7

176
1
177
1
178
1
143
1.0
179
1
  8

270
1
271
1
272
1
145
1.0
146
1.0
273
1
  9

274
1
275
1
276
1
 42
1.0
 72
1
  3

 73
1
 74
1
 75
1
 94
63
  0
MATERIAL
  5
21
102
{ACAD_REACTORS
330
E
102
}
330
E
100
AcDbMaterial
  1
Global
  2

 70
0
 40
1.0
 71
1
 41
1.0
 91
-1023410177
 42
1.0
 72
1
  3

 73
1
 74
1
 75
1
 44
0.5
 73
0
 45
1.0
 46
1.0
 77
1
  4

 78
1
 79
1
170
1
 48
1.0
171
1
  6

172
1
173
1
174
1
140
1.0
141
1.0
175
1
  7

176
1
177
1
178
1
143
1.0
179
1
  8

270
1
271
1
272
1
145
1.0
146
1.0
273
1
  9

274
1
275
1
276
1
 42
1.0
 72
1
  3

 73
1
 74
1
 75
1
 94
63
  0
MLINESTYLE
  5
22
102
{ACAD_REACTORS
330
10
102
}
330
10
100
AcDbMlineStyle
  2
Standard
 70
0
  3

 62
256
 51
90.0
 52
90.0
 71
2
 49
0.5
 62
256
  6
BYLAYER
 49
-0.5
 62
256
  6
BYLAYER
  0
MLEADERSTYLE
  5
2C
102
{ACAD_REACTORS
330
F
102
}
330
F
100
AcDbMLeaderStyle
179
2
170
2
171
1
172
0
 90
2
 40
0.0
 41
0.0
173
1
 91
-1056964608
 92
-2
290
1
 42
2.0
291
1
 43
8.0
  3
Standard
 44
4.0
300

342
29
174
1
175
1
176
0
178
1
 93
-1056964608
 45
4.0
292
0
297
0
 46
4.0
 94
-1056964608
 47
1.0
 49
1.0
140
1.0
294
1
141
0.0
177
0
142
1.0
295
0
296
0
143
3.75
271
0
272
9
273
9
  0
DICTIONARY
  5
2D
330
A
100
AcDbDictionary
280
1
281
1
  3
CREATED_BY_EZDXF
350
2E
  3
WRITTEN_BY_EZDXF
350
D8
  0
DICTIONARYVAR
  5
2E
330
2D
100
DictionaryVariables
280
0
  1
1.4.4 @ 2026-09-23T12:53:32.628146+00:00
  0
DICTIONARYVAR
  5
D8
330
2D
100
DictionaryVariables
280
0
  1
1.4.4 @ 2026-09-23T12:53:32.684057+00:00
  0
ENDSEC
  0
EOF
