  0
SECTION
  2
HEADER
  9
$ACADVER
  1
AC1032
  9
$ACADMAINTVER
 90
4
  9
$DWGCODEPAGE
  3
ANSI_1252
  9
$LASTSAVEDBY
  1
ezdxf
  9
$REQUIREDVERSIONS
160
0
  9
$INSBASE
 10
0.0
 20
0.0
 30
0.0
  9
$EXTMIN
 10
1e+20
 20
1e+20
 30
1e+20
  9
$EXTMAX
 10
-1e+20
 20
-1e+20
 30
-1e+20
  9
$LIMMIN
 10
0.0
 20
0.0
  9
$LIMMAX
 10
420.0
 20
297.0
  9
$ORTHOMODE
 70
0
  9
$REGENMODE
 70
1
  9
$FILLMODE
 70
1
  9
$QTEXTMODE
 70
0
  9
$MIRRTEXT
 70
1
  9
$LTSCALE
 40
1.0
  9
$ATTMODE
 70
1
  9
$TEXTSIZE
 40
2.5
  9
$TRACEWID
 40
1.0
  9
$TEXTSTYLE
  7
Standard
  9
$CLAYER
  8
0
  9
$CELTYPE
  6
ByLayer
  9
$CECOLOR
 62
256
  9
$CELTSCALE
 40
1.0
  9
$DISPSILH
 70
0
  9
$DIMSCALE
 40
1.0
  9
$DIMASZ
 40
2.5
  9
$DIMEXO
 40
0.625
  9
$DIMDLI
 40
3.75
  9
$DIMRND
 40
0.0
  9
$DIMDLE
 40
0.0
  9
$DIMEXE
 40
1.25
  9
$DIMTP
 40
0.0
  9
$DIMTM
 40
0.0
  9
$DIMTXT
 40
2.5
  9
$DIMCEN
 40
2.5
  9
$DIMTSZ
 40
0.0
  9
$DIMTOL
 70
0
  9
$DIMLIM
 70
0
  9
$DIMTIH
 70
0
  9
$DIMTOH
 70
0
  9
$DIMSE1
 70
0
  9
$DIMSE2
 70
0
  9
$DIMTAD
 70
1
  9
$DIMZIN
 70
8
  9
$DIMBLK
  1

  9
$DIMASO
 70
1
  9
$DIMSHO
 70
1
  9
$DIMPOST
  1

  9
$DIMAPOST
  1

  9
$DIMALT
 70
0
  9
$DIMALTD
 70
3
  9
$DIMALTF
 40
0.03937007874
  9
$DIMLFAC
 40
1.0
  9
$DIMTOFL
 70
1
  9
$DIMTVP
 40
0.0
  9
$DIMTIX
 70
0
  9
$DIMSOXD
 70
0
  9
$DIMSAH
 70
0
  9
$DIMBLK1
  1

  9
$DIMBLK2
  1

  9
$DIMSTYLE
  2
ISO-25
  9
$DIMCLRD
 70
0
  9
$DIMCLRE
 70
0
  9
$DIMCLRT
 70
0
  9
$DIMTFAC
 40
1.0
  9
$DIMGAP
 40
0.625
  9
$DIMJUST
 70
0
  9
$DIMSD1
 70
0
  9
$DIMSD2
 70
0
  9
$DIMTOLJ
 70
0
  9
$DIMTZIN
 70
8
  9
$DIMALTZ
 70
0
  9
$DIMALTTZ
 70
0
  9
$DIMUPT
 70
0
  9
$DIMDEC
 70
2
  9
$DIMTDEC
 70
2
  9
$DIMALTU
 70
2
  9
$DIMALTTD
 70
3
  9
$DIMTXSTY
  7
Standard
  9
$DIMAUNIT
 70
0
  9
$DIMADEC
 70
0
  9
$DIMALTRND
 40
0.0
  9
$DIMAZIN
 70
0
  9
$DIMDSEP
 70
44
  9
$DIMATFIT
 70
3
  9
$DIMFRAC
 70
0
  9
$DIMLDRBLK
  1

  9
$DIMLUNIT
 70
2
  9
$DIMLWD
 70
-2
  9
$DIMLWE
 70
-2
  9
$DIMTMOVE
 70
0
  9
$DIMFXL
 40
1.0
  9
$DIMFXLON
 70
0
  9
$DIMJOGANG
 40
0.785398163397
  9
$DIMTFILL
 70
0
  9
$DIMTFILLCLR
 70
0
  9
$DIMARCSYM
 70
0
  9
$DIMLTYPE
  6

  9
$DIMLTEX1
  6

  9
$DIMLTEX2
  6

  9
$DIMTXTDIRECTION
 70
0
  9
$LUNITS
 70
2
  9
$LUPREC
 70
4
  9
$SKETCHINC
 40
1.0
  9
$FILLETRAD
 40
10.0
  9
$AUNITS
 70
0
  9
$AUPREC
 70
2
  9
$MENU
  1
.
  9
$ELEVATION
 40
0.0
  9
$PELEVATION
 40
0.0
  9
$THICKNESS
 40
0.0
  9
$LIMCHECK
 70
0
  9
$CHAMFERA
 40
0.0
  9
$CHAMFERB
 40
0.0
  9
$CHAMFERC
 40
0.0
  9
$CHAMFERD
 40
0.0
  9
$SKPOLY
 70
0
  9
$TDCREATE
 40
2461307.828877315
  9
$TDUCREATE
 40
2458532.153996898
  9
$TDUPDATE
 40
2461307.828877315
  9
$TDUUPDATE
 40
2458532.1544311
  9
$TDINDWG
 40
0.0
  9
$TDUSRTIMER
 40
0.0
  9
$USRTIMER
 70
1
  9
$ANGBASE
 50
0.0
  9
$ANGDIR
 70
0
  9
$PDMODE
 70
0
  9
$PDSIZE
 40
0.0
  9
$PLINEWID
 40
0.0
  9
$SPLFRAME
 70
0
  9
$SPLINETYPE
 70
6
  9
$SPLINESEGS
 70
8
  9
$HANDSEED
  5
193
  9
$SURFTAB1
 70
6
  9
$SURFTAB2
 70
6
  9
$SURFTYPE
 70
6
  9
$SURFU
 70
6
  9
$SURFV
 70
6
  9
$UCSBASE
  2

  9
$UCSNAME
  2

  9
$UCSORG
 10
0.0
 20
0.0
 30
0.0
  9
$UCSXDIR
 10
1.0
 20
0.0
 30
0.0
  9
$UCSYDIR
 10
0.0
 20
1.0
 30
0.0
  9
$UCSORTHOREF
  2

  9
$UCSORTHOVIEW
 70
0
  9
$UCSORGTOP
 10
0.0
 20
0.0
 30
0.0
  9
$UCSORGBOTTOM
 10
0.0
 20
0.0
 30
0.0
  9
$UCSORGLEFT
 10
0.0
 20
0.0
 30
0.0
  9
$UCSORGRIGHT
 10
0.0
 20
0.0
 30
0.0
  9
$UCSORGFRONT
 10
0.0
 20
0.0
 30
0.0
  9
$UCSORGBACK
 10
0.0
 20
0.0
 30
0.0
  9
$PUCSBASE
  2

  9
$PUCSNAME
  2

  9
$PUCSORG
 10
0.0
 20
0.0
 30
0.0
  9
$PUCSXDIR
 10
1.0
 20
0.0
 30
0.0
  9
$PUCSYDIR
 10
0.0
 20
1.0
 30
0.0
  9
$PUCSORTHOREF
  2

  9
$PUCSORTHOVIEW
 70
0
  9
$PUCSORGTOP
 10
0.0
 20
0.0
 30
0.0
  9
$PUCSORGBOTTOM
 10
0.0
 20
0.0
 30
0.0
  9
$PUCSORGLEFT
 10
0.0
 20
0.0
 30
0.0
  9
$PUCSORGRIGHT
 10
0.0
 20
0.0
 30
0.0
  9
$PUCSORGFRONT
 10
0.0
 20
0.0
 30
0.0
  9
$PUCSORGBACK
 10
0.0
 20
0.0
 30
0.0
  9
$USERI1
 70
0
  9
$USERI2
 70
0
  9
$USERI3
 70
0
  9
$USERI4
 70
0
  9
$USERI5
 70
0
  9
$USERR1
 40
0.0
  9
$USERR2
 40
0.0
  9
$USERR3
 40
0.0
  9
$USERR4
 40
0.0
  9
$USERR5
 40
0.0
  9
$WORLDVIEW
 70
1
  9
$SHADEDGE
 70
3
  9
$SHADEDIF
 70
70
  9
$TILEMODE
 70
1
  9
$MAXACTVP
 70
64
  9
$PINSBASE
 10
0.0
 20
0.0
 30
0.0
  9
$PLIMCHECK
 70
0
  9
$PEXTMIN
 10
1e+20
 20
1e+20
 30
1e+20
  9
$PEXTMAX
 10
-1e+20
 20
-1e+20
 30
-1e+20
  9
$PLIMMIN
 10
0.0
 20
0.0
  9
$PLIMMAX
 10
420.0
 20
297.0
  9
$UNITMODE
 70
0
  9
$VISRETAIN
 70
1
  9
$PLINEGEN
 70
0
  9
$PSLTSCALE
 70
1
  9
$TREEDEPTH
 70
3020
  9
$CMLSTYLE
  2
Standard
  9
$CMLJUST
 70
0
  9
$CMLSCALE
 40
20.0
  9
$PROXYGRAPHICS
 70
1
  9
$MEASUREMENT
 70
1
  9
$CELWEIGHT
370
-1
  9
$ENDCAPS
280
0
  9
$JOINSTYLE
280
0
  9
$LWDISPLAY
290
0
  9
$INSUNITS
 70
0
  9
$HYPERLINKBASE
  1

  9
$STYLESHEET
  1

  9
$XEDIT
290
1
  9
$CEPSNTYPE
380
0
  9
$PSTYLEMODE
290
1
  9
$FINGERPRINTGUID
  2
{6FEED28B-5E2A-4147-B066-4EF2E882F30A}
  9
$VERSIONGUID
  2
{2E0A6C79-3684-45D0-B636-B418CC134EF1}
  9
$EXTNAMES
290
1
  9
$PSVPSCALE
 40
0.0
  9
$OLESTARTUP
290
0
  9
$SORTENTS
280
127
  9
$INDEXCTL
280
0
  9
$HIDETEXT
280
1
  9
$XCLIPFRAME
280
1
  9
$HALOGAP
280
0
  9
$OBSCOLOR
 70
257
  9
$OBSLTYPE
280
0
  9
$INTERSECTIONDISPLAY
280
0
  9
$INTERSECTIONCOLOR
 70
257
  9
$DIMASSOC
280
2
  9
$PROJECTNAME
  1

  9
$CAMERADISPLAY
290
0
  9
$LENSLENGTH
 40
50.0
  9
$CAMERAHEIGHT
 40
0.0
  9
$STEPSPERSEC
 40
24.0
  9
$STEPSIZE
 40
100.0
  9
$3DDWFPREC
 40
2.0
  9
$PSOLWIDTH
 40
0.005
  9
$PSOLHEIGHT
 40
0.08
  9
$LOFTANG1
 40
1.570796326795
  9
$LOFTANG2
 40
1.570796326795
  9
$LOFTMAG1
 40
0.0
  9
$LOFTMAG2
 40
0.0
  9
$LOFTPARAM
 70
7
  9
$LOFTNORMALS
280
1
  9
$LATITUDE
 40
37.795
  9
$LONGITUDE
 40
-122.394
  9
$NORTHDIRECTION
 40
0.0
  9
$TIMEZONE
 70
-8000
  9
$LIGHTGLYPHDISPLAY
280
1
  9
$TILEMODELIGHTSYNCH
280
1
  9
$CMATERIAL
347
20
  9
$SOLIDHIST
280
0
  9
$SHOWHIST
280
1
  9
$DWFFRAME
280
2
  9
$DGNFRAME
280
2
  9
$REALWORLDSCALE
290
1
  9
$INTERFERECOLOR
 62
256
  9
$CSHADOW
280
0
  9
$SHADOWPLANELOCATION
 40
0.0
  0
ENDSEC
  0
SECTION
  2
CLASSES
  0
CLASS
  1
ACDBDICTIONARYWDFLT
  2
AcDbDictionaryWithDefault
  3
ObjectDBX Classes
 90
0
 91
0
280
0
281
0
  0
CLASS
  1
SUN
  2
AcDbSun
  3
SCENEOE
 90
1153
 91
0
280
0
281
0
  0
CLASS
  1
VISUALSTYLE
  2
AcDbVisualStyle
  3
ObjectDBX Classes
 90
4095
 91
0
280
0
281
0
  0
CLASS
  1
MATERIAL
  2
AcDbMaterial
  3
ObjectDBX Classes
 90
1153
 91
0
280
0
281
0
  0
CLASS
  1
SCALE
  2
AcDbScale
  3
ObjectDBX Classes
 90
1153
 91
0
280
0
281
0
  0
CLASS
  1
TABLESTYLE
  2
AcDbTableStyle
  3
ObjectDBX Classes
 90
4095
 91
0
280
0
281
0
  0
CLASS
  1
MLEADERSTYLE
  2
AcDbMLeaderStyle
  3
ACDB_MLEADERSTYLE_CLASS
 90
4095
 91
0
280
0
281
0
  0
CLASS
  1
DICTIONARYVAR
  2
AcDbDictionaryVar
  3
ObjectDBX Classes
 90
0
 91
0
280
0
281
0
  0
CLASS
  1
CELLSTYLEMAP
  2
AcDbCellStyleMap
  3
ObjectDBX Classes
 90
1152
 91
0
280
0
281
0
  0
CLASS
  1
MENTALRAYRENDERSETTINGS
  2
AcDbMentalRayRenderSettings
  3
SCENEOE
 90
1024
 91
0
280
0
281
0
  0
CLASS
  1
ACDBDETAILVIEWSTYLE
  2
AcDbDetailViewStyle
  3
ObjectDBX Classes
 90
1025
 91
0
280
0
281
0
  0
CLASS
  1
ACDBSECTIONVIEWSTYLE
  2
AcDbSectionViewStyle
  3
ObjectDBX Classes
 90
1025
 91
0
280
0
281
0
  0
CLASS
  1
RASTERVARIABLES
  2
AcDbRasterVariables
  3
ISM
 90
0
 91
0
280
0
281
0
  0
CLASS
  1
LAYOUT
  2
AcDbLayout
  3
ObjectDBX Classes
 90
0
 91
0
280
0
281
0
  0
CLASS
  1
ACDBPLACEHOLDER
  2
AcDbPlaceHolder
  3
ObjectDBX Classes
 90
0
 91
0
280
0
281
0
  0
ENDSEC
  0
SECTION
  2
TABLES
  0
TABLE
  2
VPORT
  5
8
330
0
100
AcDbSymbolTable
 70
1
  0
VPORT
  5
23
330
8
100
AcDbSymbolTableRecord
100
AcDbViewportTableRecord
  2
*Active
 70
0
 10
0.0
 20
0.0
 11
1.0
 21
1.0
 12
0.0
 22
0.0
 13
0.0
 23
0.0
 14
0.5
 24
0.5
 15
0.5
 25
0.5
 16
0.0
 26
0.0
 36
1.0
 17
0.0
 27
0.0
 37
0.0
 40
1000.0
 41
1.34
 42
50.0
 43
0.0
 44
0.0
 50
0.0
 51
0.0
 71
0
 72
1000
 73
1
 74
3
 75
0
 76
0
 77
0
 78
0
281
0
 65
0
146
0.0
  0
ENDTAB
  0
TABLE
  2
LTYPE
  5
2
330
0
100
AcDbSymbolTable
 70
4
  0
LTYPE
  5
24
330
2
100
AcDbSymbolTableRecord
100
AcDbLinetypeTableRecord
  2
ByBlock
 70
0
  3

 72
65
 73
0
 40
0.0
  0
LTYPE
  5
25
330
2
100
AcDbSymbolTableRecord
100
AcDbLinetypeTableRecord
  2
ByLayer
 70
0
  3

 72
65
 73
0
 40
0.0
  0
LTYPE
  5
26
330
2
100
AcDbSymbolTableRecord
100
AcDbLinetypeTableRecord
  2
Continuous
 70
0
  3

 72
65
 73
0
 40
0.0
  0
LTYPE
  5
18C
330
2
100
AcDbSymbolTableRecord
100
AcDbLinetypeTableRecord
  2
DASHED
 70
0
  3
Dashed __ __ __ __ __ __ __ __ __ __ __ __ __ _
 72
65
 73
2
 40
0.75
 49
0.5
 74
0
 49
-0.25
 74
0
  0
ENDTAB
  0
TABLE
  2
LAYER
  5
1
330
0
100
AcDbSymbolTable
 70
4
  0
LAYER
  5
27
330
1
100
AcDbSymbolTableRecord
100
AcDbLayerTableRecord
  2
0
 70
0
 62
7
  6
Continuous
370
-3
390
13
347
21
  0
LAYER
  5
28
330
1
100
AcDbSymbolTableRecord
100
AcDbLayerTableRecord
  2
Defpoints
 70
0
 62
7
  6
Continuous
290
0
370
-3
390
13
347
21
  0
LAYER
  5
18A
330
1
100
AcDbSymbolTableRecord
100
AcDbLayerTableRecord
  2
--8N-THT. FIXING HOLE
 70
0
 62
4
  6
CONTINUOUS
370
-3
390
13
347
21
  0
LAYER
  5
18B
330
1
100
AcDbSymbolTableRecord
100
AcDbLayerTableRecord
  2
--4N-THT. MCB-MCCB-ACB
 70
0
 62
124
  6
CONTINUOUS
370
-3
390
13
347
21
  0
ENDTAB
  0
TABLE
  2
STYLE
  5
5
330
0
100
AcDbSymbolTable
 70
2
  0
STYLE
  5
29
330
5
100
AcDbSymbolTableRecord
100
AcDbTextStyleTableRecord
  2
Standard
 70
0
 40
0.0
 41
1.0
 50
0.0
 71
0
 42
2.5
  3
txt
  4

  0
STYLE
  5
18D
330
5
100
AcDbSymbolTableRecord
100
AcDbTextStyleTableRecord
  2
VNI-TNR-DIM
 70
0
 40
0.0
 41
1.0
 50
0.0
 71
0
 42
500.0
  3
times.ttf
  4

  0
ENDTAB
  0
TABLE
  2
VIEW
  5
7
330
0
100
AcDbSymbolTable
 70
0
  0
ENDTAB
  0
TABLE
  2
UCS
  5
6
330
0
100
AcDbSymbolTable
 70
0
  0
ENDTAB
  0
TABLE
  2
APPID
  5
3
330
0
100
AcDbSymbolTable
 70
3
  0
APPID
  5
2A
330
3
100
AcDbSymbolTableRecord
100
AcDbRegAppTableRecord
  2
ACAD
 70
0
  0
APPID
  5
190
330
3
100
AcDbSymbolTableRecord
100
AcDbRegAppTableRecord
  2
HATCHBACKGROUNDCOLOR
 70
0
  0
APPID
  5
191
330
3
100
AcDbSymbolTableRecord
100
AcDbRegAppTableRecord
  2
EZDXF
 70
0
  0
ENDTAB
  0
TABLE
  2
DIMSTYLE
  5
4
330
0
100
AcDbSymbolTable
 70
1
100
AcDbDimStyleTable
  0
DIMSTYLE
105
2B
330
4
100
AcDbSymbolTableRecord
100
AcDbDimStyleTableRecord
  2
Standard
 70
0
 40
1.0
 41
2.5
 42
0.625
 43
3.75
 44
1.25
 45
0.0
 46
0.0
 47
0.0
 48
0.0
 49
2.5
140
2.5
141
2.5
142
0.0
143
0.03937007874
144
1.0
145
0.0
146
1.0
147
0.625
148
0.0
 69
0
 70
0
 71
0
 72
0
 73
0
 74
0
 75
0
 76
0
 77
1
 78
8
 79
3
170
0
171
3
172
1
173
0
174
0
175
0
176
0
177
0
178
0
179
2
271
2
272
2
273
2
274
3
275
0
276
0
277
2
278
44
279
0
280
0
281
0
282
0
283
0
284
8
285
0
286
0
288
0
289
3
290
0
371
-2
372
-2
  0
ENDTAB
  0
TABLE
  2
BLOCK_RECORD
  5
9
330
0
100
AcDbSymbolTable
 70
3
  0
BLOCK_RECORD
  5
17
330
9
100
AcDbSymbolTableRecord
100
AcDbBlockTableRecord
  2
*Model_Space
340
1A
 70
0
280
1
281
0
  0
BLOCK_RECORD
  5
1B
330
9
100
AcDbSymbolTableRecord
100
AcDbBlockTableRecord
  2
*Paper_Space
340
1E
 70
0
280
1
281
0
  0
BLOCK_RECORD
  5
2F
330
9
100
AcDbSymbolTableRecord
100
AcDbBlockTableRecord
  2
06 - N - SC MCCB NSX400~630FNH 4 PHASE
340
0
 70
0
280
1
281
0
  0
ENDTAB
  0
ENDSEC
  0
SECTION
  2
BLOCKS
  0
BLOCK
  5
18
330
17
100
AcDbEntity
  8
0
100
AcDbBlockBegin
  2
*Model_Space
 70
0
 10
0.0
 20
0.0
 30
0.0
  3
*Model_Space
  1

  0
ENDBLK
  5
19
330
17
100
AcDbEntity
  8
0
100
AcDbBlockEnd
  0
BLOCK
  5
1C
330
1B
100
AcDbEntity
  8
0
100
AcDbBlockBegin
  2
*Paper_Space
 70
0
 10
0.0
 20
0.0
 30
0.0
  3
*Paper_Space
  1

  0
ENDBLK
  5
1D
330
1B
100
AcDbEntity
  8
0
100
AcDbBlockEnd
  0
BLOCK
  5
30
330
2F
100
AcDbEntity
  8
0
100
AcDbBlockBegin
  2
06 - N - SC MCCB NSX400~630FNH 4 PHASE
 70
2
 10
0.0
 20
0.0
 30
0.0
  3
06 - N - SC MCCB NSX400~630FNH 4 PHASE
  1

  0
LINE
  5
32
330
2F
100
AcDbEntity
  8
--4N-THT. MCB-MCCB-ACB
100
AcDbLine
 10
-92.49999999990814
 20
-89.9999999996362
 30
0.0
 11
92.49999999990814
 21
-89.9999999996362
 31
0.0
  0
LINE
  5
33
330
2F
100
AcDbEntity
  8
--4N-THT. MCB-MCCB-ACB
100
AcDbLine
 10
92.49999999990814
 20
-48.69999999883294
 30
0.0
 11
-92.49999999990814
 21
-48.69999999883294
 31
0.0
  0
LINE
  5
34
330
2F
100
AcDbEntity
  8
--4N-THT. MCB-MCCB-ACB
100
AcDbLine
 10
2.587837733887681
 20
-37.72127656389967
 30
0.0
 11
2.858108211900798
 21
-37.72127656389967
 31
0.0
  0
LINE
  5
35
330
2F
100
AcDbEntity
  8
--4N-THT. MCB-MCCB-ACB
100
AcDbLine
 10
0.4797297809482189
 20
-36.70000000091386
 30
0.0
 11
0.7499999490692062
 21
-36.70000000091386
 31
0.0
  0
LINE
  5
36
330
2F
100
AcDbEntity
  8
--4N-THT. MCB-MCCB-ACB
100
AcDbLine
 10
1.88513523785059
 20
-36.70000000091386
 30
0.0
 11
2.15540540596794
 21
-36.70000000091386
 31
0.0
  0
LINE
  5
37
330
2F
100
AcDbEntity
  8
--4N-THT. MCB-MCCB-ACB
100
AcDbLine
 10
3.34459469891135
 20
-36.70000000091386
 30
0.0
 11
3.668919021049987
 21
-36.70000000091386
 31
0.0
  0
LINE
  5
38
330
2F
100
AcDbEntity
  8
--4N-THT. MCB-MCCB-ACB
100
AcDbLine
 10
3.560810707928794
 20
-36.38085105577557
 30
0.0
 11
3.34459469891135
 21
-36.38085105577557
 31
0.0
  0
LINE
  5
39
330
2F
100
AcDbEntity
  8
--4N-THT. MCB-MCCB-ACB
100
AcDbLine
 10
-0.3851351085695569
 20
-36.63617021492973
 30
0.0
 11
-0.0608107838897922
 21
-36.70000000091386
 31
0.0
  0
LINE
  5
3A
330
2F
100
AcDbEntity
  8
--4N-THT. MCB-MCCB-ACB
100
AcDbLine
 10
-0.0608107838897922
 20
-36.44468085953668
 30
0.0
 11
-0.331081106948659
 21
-36.38085105577557
 31
0.0
  0
LINE
  5
3B
330
2F
100
AcDbEntity
  8
--4N-THT. MCB-MCCB-ACB
100
AcDbLine
 10
3.128378377469744
 20
-36.63617021492973
 30
0.0
 11
3.34459469891135
 21
-36.70000000091386
 31
0.0
  0
LINE
  5
3C
330
2F
100
AcDbEntity
  8
--4N-THT. MCB-MCCB-ACB
100
AcDbLine
 10
3.34459469891135
 20
-36.38085105577557
 30
0.0
 11
3.128378377469744
 21
-36.31702127741301
 31
0.0
  0
LINE
  5
3D
330
2F
100
AcDbEntity
  8
--4N-THT. MCB-MCCB-ACB
100
AcDbLine
 10
3.885135032608559
 20
-34.72127665331937
 30
0.0
 11
3.668919021049987
 21
-34.65744687241386
 31
0.0
  0
LINE
  5
3E
330
2F
100
AcDbEntity
  8
--4N-THT. MCB-MCCB-ACB
100
AcDbLine
 10
-0.5472972709112583
 20
-36.57234042896198
 30
0.0
 11
-0.3851351085695569
 21
-36.63617021492973
 31
0.0
  0
LINE
  5
3F
330
2F
100
AcDbEntity
  8
--4N-THT. MCB-MCCB-ACB
100
AcDbLine
 10
3.020270374229767
 20
-36.57234042896198
 30
0.0
 11
3.128378377469744
 21
-36.63617021492973
 31
0.0
  0
LINE
  5
40
330
2F
100
AcDbEntity
  8
--4N-THT. MCB-MCCB-ACB
100
AcDbLine
 10
3.668919021049987
 20
-34.97659577183004
 30
0.0
 11
3.885135032608559
 21
-35.1042553310981
 31
0.0
  0
LINE
  5
41
330
2F
100
AcDbEntity
  8
--4N-THT. MCB-MCCB-ACB
100
AcDbLine
 10
-0.7094594713498737
 20
-36.44468085953668
 30
0.0
 11
-0.5472972709112583
 21
-36.57234042896198
 31
0.0
  0
LINE
  5
42
330
2F
100
AcDbEntity
  8
--4N-THT. MCB-MCCB-ACB
100
AcDbLine
 10
-0.331081106948659
 20
-36.38085105577557
 30
0.0
 11
-0.4932432692903604
 21
-36.25319149652205
 31
0.0
  0
LINE
  5
43
330
2F
100
AcDbEntity
  8
--4N-THT. MCB-MCCB-ACB
100
AcDbLine
 10
3.128378377469744
 20
-36.31702127741301
 30
0.0
 11
2.966216217667351
 21
-36.18936171816313
 31
0.0
  0
LINE
  5
44
330
2F
100
AcDbEntity
  8
--4N-THT. MCB-MCCB-ACB
100
AcDbLine
 10
4.047297504831476
 20
-34.84893621256925
 30
0.0
 11
3.885135032608559
 21
-34.72127665331937
 31
0.0
  0
LINE
  5
45
330
2F
100
AcDbEntity
  8
--4N-THT. MCB-MCCB-ACB
100
AcDbLine
 10
2.912162058569265
 20
-36.44468085953668
 30
0.0
 11
3.020270374229767
 21
-36.57234042896198
 31
0.0
  0
LINE
  5
46
330
2F
100
AcDbEntity
  8
--4N-THT. MCB-MCCB-ACB
100
AcDbLine
 10
4.20945966463023
 20
-35.04042555019078
 30
0.0
 11
4.047297504831476
 21
-34.84893621256925
 31
0.0
  0
LINE
  5
47
330
2F
100
AcDbEntity
  8
--4N-THT. MCB-MCCB-ACB
100
AcDbLine
 10
-0.8175675533302637
 20
-36.18936171816313
 30
0.0
 11
-0.7094594713498737
 21
-36.44468085953668
 31
0.0
  0
LINE
  5
48
330
2F
100
AcDbEntity
  8
--4N-THT. MCB-MCCB-ACB
100
AcDbLine
 10
-1.250000000630279
 20
-34.65744687241386
 30
0.0
 11
-1.250000000630279
 21
-34.9127659909409
 31
0.0
  0
LINE
  5
49
330
2F
100
AcDbEntity
  8
--4N-THT. MCB-MCCB-ACB
100
AcDbLine
 10
-0.8175675533302637
 20
-34.14680845757539
 30
0.0
 11
-0.8175675533302637
 21
-34.65744687241386
 31
0.0
  0
LINE
  5
4A
330
2F
100
AcDbEntity
  8
--4N-THT. MCB-MCCB-ACB
100
AcDbLine
 10
-0.8175675533302637
 20
-34.9127659909409
 30
0.0
 11
-0.8175675533302637
 21
-36.18936171816313
 31
0.0
  0
LINE
  5
4B
330
2F
100
AcDbEntity
  8
--4N-THT. MCB-MCCB-ACB
100
AcDbLine
 10
-0.5472972709112583
 20
-36.06170211317658
 30
0.0
 11
-0.5472972709112583
 21
-34.9127659909409
 31
0.0
  0
LINE
  5
4C
330
2F
100
AcDbEntity
  8
--4N-THT. MCB-MCCB-ACB
100
AcDbLine
 10
-0.5472972709112583
 20
-34.65744687241386
 30
0.0
 11
-0.5472972709112583
 21
-34.14680845757539
 31
0.0
  0
LINE
  5
4D
330
2F
100
AcDbEntity
  8
--4N-THT. MCB-MCCB-ACB
100
AcDbLine
 10
1.452702600060547
 20
-34.65744687241386
 30
0.0
 11
1.182432431930465
 21
-34.72127665331937
 31
0.0
  0
LINE
  5
4E
330
2F
100
AcDbEntity
  8
--4N-THT. MCB-MCCB-ACB
100
AcDbLine
 10
1.128378430309567
 20
-35.04042555019078
 30
0.0
 11
1.452702600060547
 21
-34.97659577183004
 31
0.0
  0
LINE
  5
4F
330
2F
100
AcDbEntity
  8
--4N-THT. MCB-MCCB-ACB
100
AcDbLine
 10
3.34459469891135
 20
-34.97659577183004
 30
0.0
 11
3.668919021049987
 21
-34.97659577183004
 31
0.0
  0
LINE
  5
50
330
2F
100
AcDbEntity
  8
--4N-THT. MCB-MCCB-ACB
100
AcDbLine
 10
-1.250000000630279
 20
-34.9127659909409
 30
0.0
 11
-0.8175675533302637
 21
-34.9127659909409
 31
0.0
  0
LINE
  5
51
330
2F
100
AcDbEntity
  8
--4N-THT. MCB-MCCB-ACB
100
AcDbLine
 10
-0.5472972709112583
 20
-34.9127659909409
 30
0.0
 11
0.0472972980905979
 21
-34.9127659909409
 31
0.0
  0
LINE
  5
52
330
2F
100
AcDbEntity
  8
--4N-THT. MCB-MCCB-ACB
100
AcDbLine
 10
3.668919021049987
 20
-34.65744687241386
 30
0.0
 11
3.34459469891135
 21
-34.65744687241386
 31
0.0
  0
LINE
  5
53
330
2F
100
AcDbEntity
  8
--4N-THT. MCB-MCCB-ACB
100
AcDbLine
 10
2.15540540596794
 20
-34.65744687241386
 30
0.0
 11
1.88513523785059
 21
-34.65744687241386
 31
0.0
  0
LINE
  5
54
330
2F
100
AcDbEntity
  8
--4N-THT. MCB-MCCB-ACB
100
AcDbLine
 10
2.858108211900798
 20
-34.65744687241386
 30
0.0
 11
2.587837733887681
 21
-34.65744687241386
 31
0.0
  0
LINE
  5
55
330
2F
100
AcDbEntity
  8
--4N-THT. MCB-MCCB-ACB
100
AcDbLine
 10
0.7499999490692062
 20
-34.65744687241386
 30
0.0
 11
0.4797297809482189
 21
-34.65744687241386
 31
0.0
  0
LINE
  5
56
330
2F
100
AcDbEntity
  8
--4N-THT. MCB-MCCB-ACB
100
AcDbLine
 10
0.0472972980905979
 20
-34.65744687241386
 30
0.0
 11
-0.5472972709112583
 21
-34.65744687241386
 31
0.0
  0
LINE
  5
57
330
2F
100
AcDbEntity
  8
--4N-THT. MCB-MCCB-ACB
100
AcDbLine
 10
-0.8175675533302637
 20
-34.65744687241386
 30
0.0
 11
-1.250000000630279
 21
-34.65744687241386
 31
0.0
  0
LINE
  5
58
330
2F
100
AcDbEntity
  8
--4N-THT. MCB-MCCB-ACB
100
AcDbLine
 10
-0.5472972709112583
 20
-34.14680845757539
 30
0.0
 11
-0.8175675533302637
 21
-34.14680845757539
 31
0.0
  0
LINE
  5
59
330
2F
100
AcDbEntity
  8
--4N-THT. MCB-MCCB-ACB
100
AcDbLine
 10
1.88513523785059
 20
-34.01914889830914
 30
0.0
 11
2.15540540596794
 21
-34.01914889830914
 31
0.0
  0
LINE
  5
5A
330
2F
100
AcDbEntity
  8
--4N-THT. MCB-MCCB-ACB
100
AcDbLine
 10
2.15540540596794
 20
-33.69999999889115
 30
0.0
 11
1.88513523785059
 21
-33.69999999889115
 31
0.0
  0
LINE
  5
5B
330
2F
100
AcDbEntity
  8
--4N-THT. MCB-MCCB-ACB
100
AcDbLine
 10
2.966216217667351
 20
-36.18936171816313
 30
0.0
 11
2.858108211900798
 21
-35.99787233481766
 31
0.0
  0
LINE
  5
5C
330
2F
100
AcDbEntity
  8
--4N-THT. MCB-MCCB-ACB
100
AcDbLine
 10
3.885135032608559
 20
-35.1042553310981
 30
0.0
 11
3.993243038387845
 21
-35.29574466871782
 31
0.0
  0
LINE
  5
5D
330
2F
100
AcDbEntity
  8
--4N-THT. MCB-MCCB-ACB
100
AcDbLine
 10
2.858108211900798
 20
-36.31702127741301
 30
0.0
 11
2.912162058569265
 21
-36.44468085953668
 31
0.0
  0
LINE
  5
5E
330
2F
100
AcDbEntity
  8
--4N-THT. MCB-MCCB-ACB
100
AcDbLine
 10
4.26351351384892
 20
-35.16808510945339
 30
0.0
 11
4.20945966463023
 21
-35.04042555019078
 31
0.0
  0
LINE
  5
5F
330
2F
100
AcDbEntity
  8
--4N-THT. MCB-MCCB-ACB
100
AcDbLine
 10
-0.4932432692903604
 20
-36.25319149652205
 30
0.0
 11
-0.5472972709112583
 21
-36.06170211317658
 31
0.0
  0
LINE
  5
60
330
2F
100
AcDbEntity
  8
--4N-THT. MCB-MCCB-ACB
100
AcDbLine
 10
3.993243038387845
 20
-35.29574466871782
 30
0.0
 11
4.047297504831476
 21
-35.48723400887684
 31
0.0
  0
LINE
  5
61
330
2F
100
AcDbEntity
  8
--4N-THT. MCB-MCCB-ACB
100
AcDbLine
 10
4.3175673605283
 20
-35.42340422796951
 30
0.0
 11
4.26351351384892
 21
-35.16808510945339
 31
0.0
  0
LINE
  5
62
330
2F
100
AcDbEntity
  8
--4N-THT. MCB-MCCB-ACB
100
AcDbLine
 10
9.850652143969455
 20
-2.849583348313899
 30
0.0
 11
10.55358145694026
 21
-16.68137066055897
 31
0.0
  0
LINE
  5
63
330
2F
100
AcDbEntity
  8
--4N-THT. MCB-MCCB-ACB
100
AcDbLine
 10
9.848505650929837
 20
-2.763682382195838
 30
0.0
 11
10.55130794104025
 21
-16.59297024045372
 31
0.0
  0
LINE
  5
64
330
2F
100
AcDbEntity
  8
--4N-THT. MCB-MCCB-ACB
100
AcDbLine
 10
10.55358145694026
 20
-16.68137066055897
 30
0.0
 11
10.5534038880678
 21
-16.67780537176986
 31
0.0
  0
LINE
  5
65
330
2F
100
AcDbEntity
  8
--4N-THT. MCB-MCCB-ACB
100
AcDbLine
 10
10.55130802485019
 20
-8.727405781115522
 30
0.0
 11
9.848505650929837
 21
7.70801111430228
 31
0.0
  0
LINE
  5
66
330
2F
100
AcDbEntity
  8
--4N-THT. MCB-MCCB-ACB
100
AcDbLine
 10
9.850642964408507
 20
-2.849431761116647
 30
0.0
 11
9.848555879430023
 21
-2.777547101737582
 31
0.0
  0
LINE
  5
67
330
2F
100
AcDbEntity
  8
--4N-THT. MCB-MCCB-ACB
100
AcDbLine
 10
10.5534038880678
 20
-16.67780537176986
 30
0.0
 11
10.55130835758882
 21
-16.59297842941305
 31
0.0
  0
LINE
  5
68
330
2F
100
AcDbEntity
  8
--4N-THT. MCB-MCCB-ACB
100
AcDbLine
 10
-0.0608107838897922
 20
-36.70000000091386
 30
0.0
 11
-0.0608107838897922
 21
-36.44468085953668
 31
0.0
  0
LINE
  5
69
330
2F
100
AcDbEntity
  8
--4N-THT. MCB-MCCB-ACB
100
AcDbLine
 10
0.0472972980905979
 20
-34.9127659909409
 30
0.0
 11
0.0472972980905979
 21
-34.65744687241386
 31
0.0
  0
LINE
  5
6A
330
2F
100
AcDbEntity
  8
--4N-THT. MCB-MCCB-ACB
100
AcDbLine
 10
0.4797297809482189
 20
-34.65744687241386
 30
0.0
 11
0.4797297809482189
 21
-36.70000000091386
 31
0.0
  0
LINE
  5
6B
330
2F
100
AcDbEntity
  8
--4N-THT. MCB-MCCB-ACB
100
AcDbLine
 10
0.7499999490692062
 20
-36.70000000091386
 30
0.0
 11
0.7499999490692062
 21
-35.42340422796951
 31
0.0
  0
LINE
  5
6C
330
2F
100
AcDbEntity
  8
--4N-THT. MCB-MCCB-ACB
100
AcDbLine
 10
0.7499999490692062
 20
-35.04042555019078
 30
0.0
 11
0.7499999490692062
 21
-34.65744687241386
 31
0.0
  0
LINE
  5
6D
330
2F
100
AcDbEntity
  8
--4N-THT. MCB-MCCB-ACB
100
AcDbLine
 10
1.452702600060547
 20
-34.97659577183004
 30
0.0
 11
1.452702600060547
 21
-34.65744687241386
 31
0.0
  0
LINE
  5
6E
330
2F
100
AcDbEntity
  8
--4N-THT. MCB-MCCB-ACB
100
AcDbLine
 10
1.88513523785059
 20
-33.69999999889115
 30
0.0
 11
1.88513523785059
 21
-34.01914889830914
 31
0.0
  0
LINE
  5
6F
330
2F
100
AcDbEntity
  8
--4N-THT. MCB-MCCB-ACB
100
AcDbLine
 10
1.88513523785059
 20
-34.65744687241386
 30
0.0
 11
1.88513523785059
 21
-36.70000000091386
 31
0.0
  0
LINE
  5
70
330
2F
100
AcDbEntity
  8
--4N-THT. MCB-MCCB-ACB
100
AcDbLine
 10
2.15540540596794
 20
-36.70000000091386
 30
0.0
 11
2.15540540596794
 21
-34.65744687241386
 31
0.0
  0
LINE
  5
71
330
2F
100
AcDbEntity
  8
--4N-THT. MCB-MCCB-ACB
100
AcDbLine
 10
2.15540540596794
 20
-34.01914889830914
 30
0.0
 11
2.15540540596794
 21
-33.69999999889115
 31
0.0
  0
LINE
  5
72
330
2F
100
AcDbEntity
  8
--4N-THT. MCB-MCCB-ACB
100
AcDbLine
 10
2.587837733887681
 20
-34.65744687241386
 30
0.0
 11
2.587837733887681
 21
-37.72127656389967
 31
0.0
  0
LINE
  5
73
330
2F
100
AcDbEntity
  8
--4N-THT. MCB-MCCB-ACB
100
AcDbLine
 10
2.858108211900798
 20
-37.72127656389967
 30
0.0
 11
2.858108211900798
 21
-36.31702127741301
 31
0.0
  0
LINE
  5
74
330
2F
100
AcDbEntity
  8
--4N-THT. MCB-MCCB-ACB
100
AcDbLine
 10
2.858108211900798
 20
-35.99787233481766
 30
0.0
 11
2.858108211900798
 21
-35.35957444961059
 31
0.0
  0
LINE
  5
75
330
2F
100
AcDbEntity
  8
--4N-THT. MCB-MCCB-ACB
100
AcDbLine
 10
2.858108211900798
 20
-35.04042555019078
 30
0.0
 11
2.858108211900798
 21
-34.65744687241386
 31
0.0
  0
LINE
  5
76
330
2F
100
AcDbEntity
  8
--4N-THT. MCB-MCCB-ACB
100
AcDbLine
 10
4.047297504831476
 20
-35.48723400887684
 30
0.0
 11
4.047297504831476
 21
-35.87021277555323
 31
0.0
  0
LINE
  5
77
330
2F
100
AcDbEntity
  8
--4N-THT. MCB-MCCB-ACB
100
AcDbLine
 10
4.3175673605283
 20
-35.93404255391215
 30
0.0
 11
4.3175673605283
 21
-35.42340422796951
 31
0.0
  0
LINE
  5
78
330
2F
100
AcDbEntity
  8
--4N-THT. MCB-MCCB-ACB
100
AcDbLine
 10
8.70000000026721
 20
56.81219038352537
 30
0.0
 11
8.70000000026721
 21
-11.43657690835243
 31
0.0
  0
LINE
  5
79
330
2F
100
AcDbEntity
  8
--4N-THT. MCB-MCCB-ACB
100
AcDbLine
 10
8.948531113569516
 20
40.56468268301978
 30
0.0
 11
8.948507999569301
 21
7.707039096947482
 31
0.0
  0
LINE
  5
7A
330
2F
100
AcDbEntity
  8
--4N-THT. MCB-MCCB-ACB
100
AcDbLine
 10
8.948507999569301
 20
7.704752698162337
 30
0.0
 11
8.94851277476937
 21
-5.519999998839921
 31
0.0
  0
LINE
  5
7B
330
2F
100
AcDbEntity
  8
--4N-THT. MCB-MCCB-ACB
100
AcDbLine
 10
8.94853912219969
 20
51.95000000125038
 30
0.0
 11
8.948534603529877
 21
44.27375096718423
 31
0.0
  0
LINE
  5
7C
330
2F
100
AcDbEntity
  8
--4N-THT. MCB-MCCB-ACB
100
AcDbLine
 10
9.848505650929837
 20
-2.763682382195838
 30
0.0
 11
9.848505650929837
 21
7.70801111430228
 31
0.0
  0
LINE
  5
7D
330
2F
100
AcDbEntity
  8
--4N-THT. MCB-MCCB-ACB
100
AcDbLine
 10
10.59460527632927
 20
9.461235177062918
 30
0.0
 11
10.10000217612923
 21
8.625861877024361
 31
0.0
  0
LINE
  5
7E
330
2F
100
AcDbEntity
  8
--4N-THT. MCB-MCCB-ACB
100
AcDbLine
 10
12.32206594382933
 20
10.4059042808658
 30
0.0
 11
11.82216401246933
 21
9.56158137464081
 31
0.0
  0
LINE
  5
7F
330
2F
100
AcDbEntity
  8
--4N-THT. MCB-MCCB-ACB
100
AcDbLine
 10
32.34590437460884
 20
-18.57987141015474
 30
0.0
 11
12.55100283673073
 21
-18.57986196136335
 31
0.0
  0
LINE
  5
80
330
2F
100
AcDbEntity
  8
--4N-THT. MCB-MCCB-ACB
100
AcDbLine
 10
32.34589566240993
 20
-18.20020432340789
 30
0.0
 11
12.55100915370986
 21
-18.20019487715035
 31
0.0
  0
LINE
  5
81
330
2F
100
AcDbEntity
  8
--4N-THT. MCB-MCCB-ACB
100
AcDbLine
 10
8.70000000026721
 20
-11.43657690835243
 30
0.0
 11
10.28704184270009
 21
-11.43657690835243
 31
0.0
  0
LINE
  5
82
330
2F
100
AcDbEntity
  8
--4N-THT. MCB-MCCB-ACB
100
AcDbLine
 10
34.60990655728983
 20
-11.43657690835243
 30
0.0
 11
36.29999999955089
 21
-11.43657690835243
 31
0.0
  0
LWPOLYLINE
  5
83
330
2F
100
AcDbEntity
  8
--4N-THT. MCB-MCCB-ACB
100
AcDbPolyline
 90
9
 70
0
 10
10.5534038880678
 20
-16.67780537176986
 10
10.60278163792918
 20
-17.03200180587009
 10
10.73898312575056
 20
-17.42637309993552
 10
10.95814552715001
 20
-17.78932570651704
 10
11.25485193906843
 20
-18.10301342559978
 10
11.61948399618904
 20
-18.34968423272767
 10
12.03819036730874
 20
-18.51299992845452
 10
12.48956043738963
 20
-18.57891791700967
 10
12.55100283927004
 20
-18.57986175816404
  0
LINE
  5
84
330
2F
100
AcDbEntity
  8
--4N-THT. MCB-MCCB-ACB
100
AcDbLine
 10
12.551003702868
 20
-6.888259842962725
 30
0.0
 11
11.84759196009054
 21
9.561407471004713
 31
0.0
  0
LINE
  5
85
330
2F
100
AcDbEntity
  8
--4N-THT. MCB-MCCB-ACB
100
AcDbLine
 10
12.55100283673073
 20
-18.57986196136335
 30
0.0
 11
12.55100164039049
 21
-18.20019487715035
 31
0.0
  0
LINE
  5
86
330
2F
100
AcDbEntity
  8
--4N-THT. MCB-MCCB-ACB
100
AcDbLine
 10
12.551003702868
 20
-6.888259842962725
 30
0.0
 11
12.55100164039049
 21
-8.368238795619618
 31
0.0
  0
LINE
  5
87
330
2F
100
AcDbEntity
  8
--4N-THT. MCB-MCCB-ACB
100
AcDbLine
 10
17.71931318334918
 20
47.47693823871668
 30
0.0
 11
17.71931356180812
 21
47.83513078370015
 31
0.0
  0
LINE
  5
88
330
2F
100
AcDbEntity
  8
--4N-THT. MCB-MCCB-ACB
100
AcDbLine
 10
18.31931356322911
 20
47.83513049922476
 30
0.0
 11
18.31931318223087
 21
47.47693795170926
 31
0.0
  0
LINE
  5
89
330
2F
100
AcDbEntity
  8
--4N-THT. MCB-MCCB-ACB
100
AcDbLine
 10
19.41931214809028
 20
46.48497239944117
 30
0.0
 11
19.41931223445044
 21
46.44029790154127
 31
0.0
  0
LINE
  5
8A
330
2F
100
AcDbEntity
  8
--4N-THT. MCB-MCCB-ACB
100
AcDbLine
 10
19.41931520878916
 20
49.3424394556514
 30
0.0
 11
19.41931527737051
 21
49.30643359420537
 31
0.0
  0
LINE
  5
8B
330
2F
100
AcDbEntity
  8
--4N-THT. MCB-MCCB-ACB
100
AcDbLine
 10
19.51931223256815
 20
46.44029785328894
 30
0.0
 11
19.51931214874912
 21
46.48497235118703
 31
0.0
  0
LINE
  5
8C
330
2F
100
AcDbEntity
  8
--4N-THT. MCB-MCCB-ACB
100
AcDbLine
 10
19.51931527549004
 20
49.30643354595122
 30
0.0
 11
19.51931520690868
 21
49.34243940738088
 31
0.0
  0
LINE
  5
8D
330
2F
100
AcDbEntity
  8
--4N-THT. MCB-MCCB-ACB
100
AcDbLine
 10
20.61931318217012
 20
47.47693685442391
 30
0.0
 11
20.61931356316836
 21
47.83512940193759
 31
0.0
  0
LINE
  5
8E
330
2F
100
AcDbEntity
  8
--4N-THT. MCB-MCCB-ACB
100
AcDbLine
 10
21.21931356205005
 20
47.83512911746038
 30
0.0
 11
21.21931318358747
 21
47.47693656740011
 31
0.0
  0
LINE
  5
8F
330
2F
100
AcDbEntity
  8
--4N-THT. MCB-MCCB-ACB
100
AcDbLine
 10
21.66930771413081
 20
45.93960956332921
 30
0.0
 11
21.66931520713024
 21
49.34147483475681
 31
0.0
  0
LINE
  5
90
330
2F
100
AcDbEntity
  8
--4N-THT. MCB-MCCB-ACB
100
AcDbLine
 10
22.26930920653012
 20
47.38620885960517
 30
0.0
 11
22.26930771300886
 21
45.93960927883744
 31
0.0
  0
LINE
  5
91
330
2F
100
AcDbEntity
  8
--4N-THT. MCB-MCCB-ACB
100
AcDbLine
 10
22.26931074068943
 20
48.81225343702135
 30
0.0
 11
22.26930987455034
 21
47.8723979812039
 31
0.0
  0
LINE
  5
92
330
2F
100
AcDbEntity
  8
--4N-THT. MCB-MCCB-ACB
100
AcDbLine
 10
23.86931186630954
 20
47.92350235956837
 30
0.0
 11
23.86931129480854
 21
47.38620809759413
 31
0.0
  0
LINE
  5
93
330
2F
100
AcDbEntity
  8
--4N-THT. MCB-MCCB-ACB
100
AcDbLine
 10
4.26351351384892
 20
-36.18936171816313
 30
0.0
 11
4.3175673605283
 21
-35.93404255391215
 31
0.0
  0
LINE
  5
94
330
2F
100
AcDbEntity
  8
--4N-THT. MCB-MCCB-ACB
100
AcDbLine
 10
4.047297504831476
 20
-35.87021277555323
 30
0.0
 11
3.993243038387845
 21
-36.06170211317658
 31
0.0
  0
LINE
  5
95
330
2F
100
AcDbEntity
  8
--4N-THT. MCB-MCCB-ACB
100
AcDbLine
 10
2.912162058569265
 20
-34.9127659909409
 30
0.0
 11
2.858108211900798
 21
-35.04042555019078
 31
0.0
  0
LINE
  5
96
330
2F
100
AcDbEntity
  8
--4N-THT. MCB-MCCB-ACB
100
AcDbLine
 10
3.993243038387845
 20
-36.06170211317658
 30
0.0
 11
3.939189189169155
 21
-36.18936171816313
 31
0.0
  0
LINE
  5
97
330
2F
100
AcDbEntity
  8
--4N-THT. MCB-MCCB-ACB
100
AcDbLine
 10
2.858108211900798
 20
-35.35957444961059
 30
0.0
 11
2.966216217667351
 21
-35.16808510945339
 31
0.0
  0
LINE
  5
98
330
2F
100
AcDbEntity
  8
--4N-THT. MCB-MCCB-ACB
100
AcDbLine
 10
0.7499999490692062
 20
-35.42340422796951
 30
0.0
 11
0.9121621114109075
 21
-35.16808510945339
 31
0.0
  0
LINE
  5
99
330
2F
100
AcDbEntity
  8
--4N-THT. MCB-MCCB-ACB
100
AcDbLine
 10
46.80000000026757
 20
25.2399999999634
 30
0.0
 11
43.80000000078962
 21
23.00793878718105
 31
0.0
  0
LINE
  5
9A
330
2F
100
AcDbEntity
  8
--4N-THT. MCB-MCCB-ACB
100
AcDbLine
 10
12.5510058034497
 20
-8.368238795619618
 30
0.0
 11
32.34589901266827
 21
-8.368248241880792
 31
0.0
  0
LINE
  5
9B
330
2F
100
AcDbEntity
  8
--4N-THT. MCB-MCCB-ACB
100
AcDbLine
 10
12.551003702868
 20
-6.888259842962725
 30
0.0
 11
32.34590524075156
 21
-6.88826928922208
 31
0.0
  0
LINE
  5
9C
330
2F
100
AcDbEntity
  8
--4N-THT. MCB-MCCB-ACB
100
AcDbLine
 10
8.70000000026721
 20
-5.519999998839921
 30
0.0
 11
9.98636230943066
 21
-5.519999998839921
 31
0.0
  0
LINE
  5
9D
330
2F
100
AcDbEntity
  8
--4N-THT. MCB-MCCB-ACB
100
AcDbLine
 10
34.91062985983172
 20
-5.519999998839921
 30
0.0
 11
36.29999999955089
 21
-5.519999998839921
 31
0.0
  0
LINE
  5
9E
330
2F
100
AcDbEntity
  8
--4N-THT. MCB-MCCB-ACB
100
AcDbLine
 10
35.94851188363918
 20
-2.613678572479329
 30
0.0
 11
35.04850564960816
 21
-2.613678143212382
 31
0.0
  0
LINE
  5
9F
330
2F
100
AcDbEntity
  8
--4N-THT. MCB-MCCB-ACB
100
AcDbLine
 10
9.848505650929837
 20
-2.613666118848414
 30
0.0
 11
8.948511883229912
 21
-2.613665689597837
 31
0.0
  0
LINE
  5
A0
330
2F
100
AcDbEntity
  8
--4N-THT. MCB-MCCB-ACB
100
AcDbLine
 10
35.94850799996948
 20
-1.369895141835513
 30
0.0
 11
35.04850564960816
 21
-1.369894712581299
 31
0.0
  0
LINE
  5
A1
330
2F
100
AcDbEntity
  8
--4N-THT. MCB-MCCB-ACB
100
AcDbLine
 10
9.848505650929837
 20
-1.369882683136893
 30
0.0
 11
8.948507999569301
 21
-1.369882253871764
 31
0.0
  0
LINE
  5
A2
330
2F
100
AcDbEntity
  8
--4N-THT. MCB-MCCB-ACB
100
AcDbLine
 10
29.75798116336864
 20
-33.54945665253036
 30
0.0
 11
29.62537551291007
 21
-32.96429364963842
 31
0.0
  0
LINE
  5
A3
330
2F
100
AcDbEntity
  8
--4N-THT. MCB-MCCB-ACB
100
AcDbLine
 10
24.16931341769032
 20
49.34147364350974
 30
0.0
 11
24.16931283094982
 21
48.81225253024786
 31
0.0
  0
LINE
  5
A4
330
2F
100
AcDbEntity
  8
--4N-THT. MCB-MCCB-ACB
100
AcDbLine
 10
24.6693059229101
 20
45.94057652608898
 30
0.0
 11
24.66931341590953
 21
49.34147340473646
 31
0.0
  0
LINE
  5
A5
330
2F
100
AcDbEntity
  8
--4N-THT. MCB-MCCB-ACB
100
AcDbLine
 10
25.26930741530942
 20
47.38716153485984
 30
0.0
 11
25.26930592433109
 21
45.94057624159723
 31
0.0
  0
LINE
  5
A6
330
2F
100
AcDbEntity
  8
--4N-THT. MCB-MCCB-ACB
100
AcDbLine
 10
25.26930895200803
 20
48.81319181715662
 30
0.0
 11
25.26930808332963
 21
47.87334816980001
 31
0.0
  0
LINE
  5
A7
330
2F
100
AcDbEntity
  8
--4N-THT. MCB-MCCB-ACB
100
AcDbLine
 10
26.86931007762814
 20
47.92444967542723
 30
0.0
 11
26.86930950612896
 21
47.38716077031677
 31
0.0
  0
LINE
  5
A8
330
2F
100
AcDbEntity
  8
--4N-THT. MCB-MCCB-ACB
100
AcDbLine
 10
27.16931162646961
 20
49.34147221095009
 30
0.0
 11
27.16931104227024
 21
48.81319091038313
 31
0.0
  0
LINE
  5
A9
330
2F
100
AcDbEntity
  8
--4N-THT. MCB-MCCB-ACB
100
AcDbLine
 10
32.34590437460884
 20
-18.57987141015474
 30
0.0
 11
32.34590317572929
 21
-18.20020432340789
 31
0.0
  0
LINE
  5
AA
330
2F
100
AcDbEntity
  8
--4N-THT. MCB-MCCB-ACB
100
AcDbLine
 10
32.34590524075156
 20
-6.88826928922208
 30
0.0
 11
32.34590317572929
 21
-8.368248241880792
 31
0.0
  0
LINE
  5
AB
330
2F
100
AcDbEntity
  8
--4N-THT. MCB-MCCB-ACB
100
AcDbLine
 10
35.04850564960816
 20
-2.76369440909184
 30
0.0
 11
35.04850564960816
 21
7.707999087406278
 31
0.0
  0
LINE
  5
AC
330
2F
100
AcDbEntity
  8
--4N-THT. MCB-MCCB-ACB
100
AcDbLine
 10
35.94850799996948
 20
7.707026211530319
 30
0.0
 11
35.94853111396969
 21
40.56466979760443
 31
0.0
  0
LINE
  5
AD
330
2F
100
AcDbEntity
  8
--4N-THT. MCB-MCCB-ACB
100
AcDbLine
 10
35.94851277516773
 20
-5.519999998839921
 30
0.0
 11
35.94850799996948
 21
7.704739812746993
 31
0.0
  0
LINE
  5
AE
330
2F
100
AcDbEntity
  8
--4N-THT. MCB-MCCB-ACB
100
AcDbLine
 10
35.94853460393006
 20
44.27373808430274
 30
0.0
 11
35.94853912258896
 21
51.95000000125038
 31
0.0
  0
LINE
  5
AF
330
2F
100
AcDbEntity
  8
--4N-THT. MCB-MCCB-ACB
100
AcDbLine
 10
36.29999999955089
 20
56.81219038352537
 30
0.0
 11
36.29999999955089
 21
-11.43657690835243
 31
0.0
  0
LINE
  5
B0
330
2F
100
AcDbEntity
  8
--4N-THT. MCB-MCCB-ACB
100
AcDbLine
 10
34.34560067493021
 20
-16.59298978321385
 30
0.0
 11
34.34350452976924
 21
-16.67782917665135
 31
0.0
  0
LINE
  5
B1
330
2F
100
AcDbEntity
  8
--4N-THT. MCB-MCCB-ACB
100
AcDbLine
 10
35.0484554236491
 20
-2.777559128633583
 30
0.0
 11
35.04637013190859
 21
-2.849379660630802
 31
0.0
  0
LINE
  5
B2
330
2F
100
AcDbEntity
  8
--4N-THT. MCB-MCCB-ACB
100
AcDbLine
 10
33.0494193404511
 20
9.561397354176734
 30
0.0
 11
32.34590524075156
 21
-6.88826928922208
 31
0.0
  0
LINE
  5
B3
330
2F
100
AcDbEntity
  8
--4N-THT. MCB-MCCB-ACB
100
AcDbLine
 10
35.04850564960816
 20
7.707999087406278
 30
0.0
 11
34.34560100766703
 21
-8.72741713745927
 31
0.0
  0
LINE
  5
B4
330
2F
100
AcDbEntity
  8
--4N-THT. MCB-MCCB-ACB
100
AcDbLine
 10
34.34560109148788
 20
-16.59298159425089
 30
0.0
 11
35.04850564960816
 21
-2.76369440909184
 31
0.0
  0
LINE
  5
B5
330
2F
100
AcDbEntity
  8
--4N-THT. MCB-MCCB-ACB
100
AcDbLine
 10
34.34332691518921
 20
-16.68139484389394
 30
0.0
 11
35.04635853426862
 21
-2.849607828828084
 31
0.0
  0
LINE
  5
B6
330
2F
100
AcDbEntity
  8
--4N-THT. MCB-MCCB-ACB
100
AcDbLine
 10
4.047297504831476
 20
-36.50851063789742
 30
0.0
 11
4.26351351384892
 21
-36.18936171816313
 31
0.0
  0
LINE
  5
B7
330
2F
100
AcDbEntity
  8
--4N-THT. MCB-MCCB-ACB
100
AcDbLine
 10
0.8581081072507004
 20
-34.9127659909409
 30
0.0
 11
0.7499999490692062
 21
-35.04042555019078
 31
0.0
  0
LINE
  5
B8
330
2F
100
AcDbEntity
  8
--4N-THT. MCB-MCCB-ACB
100
AcDbLine
 10
3.020270374229767
 20
-34.78510643167647
 30
0.0
 11
2.912162058569265
 21
-34.9127659909409
 31
0.0
  0
LINE
  5
B9
330
2F
100
AcDbEntity
  8
--4N-THT. MCB-MCCB-ACB
100
AcDbLine
 10
8.94851531985023
 20
4.254631112256902
 30
0.0
 11
8.70000000026721
 21
4.254631231640814
 31
0.0
  0
LINE
  5
BA
330
2F
100
AcDbEntity
  8
--4N-THT. MCB-MCCB-ACB
100
AcDbLine
 10
35.94851532025041
 20
4.254658396937884
 30
0.0
 11
36.29999999955089
 21
4.254658226767787
 31
0.0
  0
LINE
  5
BB
330
2F
100
AcDbEntity
  8
--4N-THT. MCB-MCCB-ACB
100
AcDbLine
 10
8.948507999569301
 20
7.704752698162337
 30
0.0
 11
9.84850564838871
 21
7.704752268909942
 31
0.0
  0
LINE
  5
BC
330
2F
100
AcDbEntity
  8
--4N-THT. MCB-MCCB-ACB
100
AcDbLine
 10
35.04850564960816
 20
7.704740241999388
 30
0.0
 11
35.94850799996948
 21
7.704739812746993
 31
0.0
  0
LINE
  5
BD
330
2F
100
AcDbEntity
  8
--4N-THT. MCB-MCCB-ACB
100
AcDbLine
 10
35.9485082184101
 20
7.774218629840106
 30
0.0
 11
35.04845544904947
 21
7.774219059108872
 31
0.0
  0
LINE
  5
BE
330
2F
100
AcDbEntity
  8
--4N-THT. MCB-MCCB-ACB
100
AcDbLine
 10
9.848555904830391
 20
7.774231083458289
 30
0.0
 11
8.948508220551046
 21
7.774231515255451
 31
0.0
  0
LINE
  5
BF
330
2F
100
AcDbEntity
  8
--4N-THT. MCB-MCCB-ACB
100
AcDbLine
 10
11.84759196009054
 20
9.561407471004713
 30
0.0
 11
33.0494193404511
 21
9.561397354176734
 31
0.0
  0
LINE
  5
C0
330
2F
100
AcDbEntity
  8
--4N-THT. MCB-MCCB-ACB
100
AcDbLine
 10
12.32206594382933
 20
10.4059042808658
 30
0.0
 11
32.5749551357103
 21
10.40589461616946
 31
0.0
  0
LINE
  5
C1
330
2F
100
AcDbEntity
  8
--4N-THT. MCB-MCCB-ACB
100
AcDbLine
 10
35.94851188363918
 20
11.24639808120264
 30
0.0
 11
8.948511883229912
 21
11.24641096662162
 31
0.0
  0
LINE
  5
C2
330
2F
100
AcDbEntity
  8
--4N-THT. MCB-MCCB-ACB
100
AcDbLine
 10
44.94201883688856
 20
-37.4505433461618
 30
0.0
 11
45.07462448735077
 21
-38.03570635159668
 31
0.0
  0
LINE
  5
C3
330
2F
100
AcDbEntity
  8
--4N-THT. MCB-MCCB-ACB
100
AcDbLine
 10
43.27499999923111
 20
56.74999999989632
 30
0.0
 11
43.27499999923111
 21
51.21000000043022
 31
0.0
  0
LINE
  5
C4
330
2F
100
AcDbEntity
  8
--4N-THT. MCB-MCCB-ACB
100
AcDbLine
 10
44.32499999980882
 20
56.74999999989632
 30
0.0
 11
44.32499999980882
 21
51.21000000043022
 31
0.0
  0
LWPOLYLINE
  5
C5
330
2F
100
AcDbEntity
  8
--4N-THT. MCB-MCCB-ACB
100
AcDbPolyline
 90
9
 70
0
 10
34.34350452976924
 20
-16.67782917665135
 10
34.29412642176885
 20
-17.03201582666952
 10
34.15792420498019
 20
-17.42638638160133
 10
33.93876131842899
 20
-17.78933814997435
 10
33.6420546804502
 20
-18.10302500038233
 10
33.2774226563497
 20
-18.34969497947895
 10
32.85871654684979
 20
-18.51300995891688
 10
32.40734691618764
 20
-18.57892741916475
 10
32.34590437714996
 20
-18.57987120441976
  0
LINE
  5
C6
330
2F
100
AcDbEntity
  8
--4N-THT. MCB-MCCB-ACB
100
AcDbLine
 10
29.75798116336864
 20
-37.4505433461618
 30
0.0
 11
29.62537553323
 21
-38.03570635667711
 31
0.0
  0
LINE
  5
C7
330
2F
100
AcDbEntity
  8
--4N-THT. MCB-MCCB-ACB
100
AcDbLine
 10
1.020270269588763
 20
-34.78510643167647
 30
0.0
 11
0.8581081072507004
 21
-34.9127659909409
 31
0.0
  0
LINE
  5
C8
330
2F
100
AcDbEntity
  8
--4N-THT. MCB-MCCB-ACB
100
AcDbLine
 10
2.966216217667351
 20
-35.16808510945339
 30
0.0
 11
3.128378377469744
 21
-35.04042555019078
 31
0.0
  0
LINE
  5
C9
330
2F
100
AcDbEntity
  8
--4N-THT. MCB-MCCB-ACB
100
AcDbLine
 10
3.939189189169155
 20
-36.18936171816313
 30
0.0
 11
3.777027026831092
 21
-36.31702127741301
 31
0.0
  0
LINE
  5
CA
330
2F
100
AcDbEntity
  8
--4N-THT. MCB-MCCB-ACB
100
AcDbLine
 10
3.885135032608559
 20
-36.63617021492973
 30
0.0
 11
4.047297504831476
 21
-36.50851063789742
 31
0.0
  0
LINE
  5
CB
330
2F
100
AcDbEntity
  8
--4N-THT. MCB-MCCB-ACB
100
AcDbLine
 10
0.9121621114109075
 20
-35.16808510945339
 30
0.0
 11
1.128378430309567
 21
-35.04042555019078
 31
0.0
  0
LINE
  5
CC
330
2F
100
AcDbEntity
  8
--4N-THT. MCB-MCCB-ACB
100
AcDbLine
 10
3.128378377469744
 20
-34.72127665331937
 30
0.0
 11
3.020270374229767
 21
-34.78510643167647
 31
0.0
  0
LINE
  5
CD
330
2F
100
AcDbEntity
  8
--4N-THT. MCB-MCCB-ACB
100
AcDbLine
 10
1.182432431930465
 20
-34.72127665331937
 30
0.0
 11
1.020270269588763
 21
-34.78510643167647
 31
0.0
  0
LINE
  5
CE
330
2F
100
AcDbEntity
  8
--4N-THT. MCB-MCCB-ACB
100
AcDbLine
 10
40.80000000130985
 20
25.2399999999634
 30
0.0
 11
46.80000000026757
 21
25.2399999999634
 31
0.0
  0
LINE
  5
CF
330
2F
100
AcDbEntity
  8
--4N-THT. MCB-MCCB-ACB
100
AcDbLine
 10
33.0748472906098
 20
9.561571232425194
 30
0.0
 11
32.5749551357103
 21
10.40589461616946
 31
0.0
  0
LINE
  5
D0
330
2F
100
AcDbEntity
  8
--4N-THT. MCB-MCCB-ACB
100
AcDbLine
 10
34.79701714065141
 20
8.62583673610061
 30
0.0
 11
34.30229809198954
 21
9.461422679860334
 31
0.0
  0
LINE
  5
D1
330
2F
100
AcDbEntity
  8
--4N-THT. MCB-MCCB-ACB
100
AcDbLine
 10
44.94201883688856
 20
-33.54945665253036
 30
0.0
 11
45.07462446703084
 21
-32.96429364456162
 31
0.0
  0
LINE
  5
D2
330
2F
100
AcDbEntity
  8
--4N-THT. MCB-MCCB-ACB
100
AcDbLine
 10
3.34459469891135
 20
-34.65744687241386
 30
0.0
 11
3.128378377469744
 21
-34.72127665331937
 31
0.0
  0
LINE
  5
D3
330
2F
100
AcDbEntity
  8
--4N-THT. MCB-MCCB-ACB
100
AcDbLine
 10
3.34459469891135
 20
-34.97659577183004
 30
0.0
 11
3.128378377469744
 21
-35.04042555019078
 31
0.0
  0
LINE
  5
D4
330
2F
100
AcDbEntity
  8
--4N-THT. MCB-MCCB-ACB
100
AcDbLine
 10
3.777027026831092
 20
-36.31702127741301
 30
0.0
 11
3.560810707928794
 21
-36.38085105577557
 31
0.0
  0
LINE
  5
D5
330
2F
100
AcDbEntity
  8
--4N-THT. MCB-MCCB-ACB
100
AcDbLine
 10
3.668919021049987
 20
-36.70000000091386
 30
0.0
 11
3.885135032608559
 21
-36.63617021492973
 31
0.0
  0
LINE
  5
D6
330
2F
100
AcDbEntity
  8
--4N-THT. MCB-MCCB-ACB
100
AcDbLine
 10
40.80000000130985
 20
25.2399999999634
 30
0.0
 11
43.80000000078962
 21
23.00793878718105
 31
0.0
  0
LINE
  5
D7
330
2F
100
AcDbEntity
  8
--4N-THT. MCB-MCCB-ACB
100
AcDbLine
 10
8.948525754170078
 20
38.97875836948515
 30
0.0
 11
35.94852575457025
 21
38.9787454840698
 31
0.0
  0
LINE
  5
D8
330
2F
100
AcDbEntity
  8
--4N-THT. MCB-MCCB-ACB
100
AcDbLine
 10
35.94853111396969
 20
40.56466979760443
 30
0.0
 11
8.948531113569516
 21
40.56468268301978
 31
0.0
  0
LINE
  5
D9
330
2F
100
AcDbEntity
  8
--4N-THT. MCB-MCCB-ACB
100
AcDbLine
 10
8.948534603529877
 20
44.27338831614179
 30
0.0
 11
35.94853460393006
 21
44.27337543072645
 31
0.0
  0
LINE
  5
DA
330
2F
100
AcDbEntity
  8
--4N-THT. MCB-MCCB-ACB
100
AcDbLine
 10
35.94853200296802
 20
45.46210310405877
 30
0.0
 11
8.948532002567845
 21
45.46211598948866
 31
0.0
  0
LINE
  5
DB
330
2F
100
AcDbEntity
  8
--4N-THT. MCB-MCCB-ACB
100
AcDbLine
 10
19.41931159183059
 20
45.93961072155798
 30
0.0
 11
19.51931159502874
 21
45.93961067330565
 31
0.0
  0
LINE
  5
DC
330
2F
100
AcDbEntity
  8
--4N-THT. MCB-MCCB-ACB
100
AcDbLine
 10
21.66930771413081
 20
45.9396095607808
 30
0.0
 11
22.26930771300886
 21
45.93960927375883
 31
0.0
  0
LINE
  5
DD
330
2F
100
AcDbEntity
  8
--4N-THT. MCB-MCCB-ACB
100
AcDbLine
 10
24.6693059229101
 20
45.94057652354422
 30
0.0
 11
25.26930592433109
 21
45.94057623906701
 31
0.0
  0
LINE
  5
DE
330
2F
100
AcDbEntity
  8
--4N-THT. MCB-MCCB-ACB
100
AcDbLine
 10
19.51931223256815
 20
46.44029785328894
 30
0.0
 11
19.41931223445044
 21
46.44029790154127
 31
0.0
  0
LINE
  5
DF
330
2F
100
AcDbEntity
  8
--4N-THT. MCB-MCCB-ACB
100
AcDbLine
 10
19.51931214874912
 20
46.48497235118703
 30
0.0
 11
19.41931214809028
 21
46.48497239944117
 31
0.0
  0
LINE
  5
E0
330
2F
100
AcDbEntity
  8
--4N-THT. MCB-MCCB-ACB
100
AcDbLine
 10
22.26930920653012
 20
47.38620885960517
 30
0.0
 11
23.86931129480854
 21
47.38620809759413
 31
0.0
  0
LINE
  5
E1
330
2F
100
AcDbEntity
  8
--4N-THT. MCB-MCCB-ACB
100
AcDbLine
 10
25.26930741530942
 20
47.38716153485984
 30
0.0
 11
26.86930950612896
 21
47.38716077031677
 31
0.0
  0
LINE
  5
E2
330
2F
100
AcDbEntity
  8
--4N-THT. MCB-MCCB-ACB
100
AcDbLine
 10
22.26930987455034
 20
47.8723979812039
 30
0.0
 11
23.86931196282876
 21
47.87239721920923
 31
0.0
  0
LINE
  5
E3
330
2F
100
AcDbEntity
  8
--4N-THT. MCB-MCCB-ACB
100
AcDbLine
 10
25.26930808332963
 20
47.87334816980001
 30
0.0
 11
26.86931017414918
 21
47.87334740525693
 31
0.0
  0
LINE
  5
E4
330
2F
100
AcDbEntity
  8
--4N-THT. MCB-MCCB-ACB
100
AcDbLine
 10
23.86931186630954
 20
47.92350235956837
 30
0.0
 11
22.26930977549
 21
47.9235031240969
 31
0.0
  0
LINE
  5
E5
330
2F
100
AcDbEntity
  8
--4N-THT. MCB-MCCB-ACB
100
AcDbLine
 10
26.86931007762814
 20
47.92444967542723
 30
0.0
 11
25.2693079868086
 21
47.92445043997213
 31
0.0
  0
LINE
  5
E6
330
2F
100
AcDbEntity
  8
--4N-THT. MCB-MCCB-ACB
100
AcDbLine
 10
22.26931074068943
 20
48.81225343702135
 30
0.0
 11
24.16931283094982
 21
48.81225253024786
 31
0.0
  0
LINE
  5
E7
330
2F
100
AcDbEntity
  8
--4N-THT. MCB-MCCB-ACB
100
AcDbLine
 10
25.26930895200803
 20
48.81319181715662
 30
0.0
 11
27.16931104227024
 21
48.81319091038313
 31
0.0
  0
LINE
  5
E8
330
2F
100
AcDbEntity
  8
--4N-THT. MCB-MCCB-ACB
100
AcDbLine
 10
19.41931462205957
 20
48.81322381607787
 30
0.0
 11
19.51931462271841
 21
48.81322376782373
 31
0.0
  0
LINE
  5
E9
330
2F
100
AcDbEntity
  8
--4N-THT. MCB-MCCB-ACB
100
AcDbLine
 10
21.66931333515003
 20
49.30545132794941
 30
0.0
 11
24.16931348373055
 21
49.30545013414121
 31
0.0
  0
LINE
  5
EA
330
2F
100
AcDbEntity
  8
--4N-THT. MCB-MCCB-ACB
100
AcDbLine
 10
24.66931154392933
 20
49.30544989538612
 30
0.0
 11
27.16931169505097
 21
49.30544870412268
 31
0.0
  0
LINE
  5
EB
330
2F
100
AcDbEntity
  8
--4N-THT. MCB-MCCB-ACB
100
AcDbLine
 10
19.41931527737051
 20
49.30643359420537
 30
0.0
 11
19.51931527549004
 21
49.30643354595122
 31
0.0
  0
LINE
  5
EC
330
2F
100
AcDbEntity
  8
--4N-THT. MCB-MCCB-ACB
100
AcDbLine
 10
27.16931162646961
 20
49.34147221095009
 30
0.0
 11
24.66931341590953
 21
49.34147340473646
 31
0.0
  0
LINE
  5
ED
330
2F
100
AcDbEntity
  8
--4N-THT. MCB-MCCB-ACB
100
AcDbLine
 10
24.16931341769032
 20
49.34147364350974
 30
0.0
 11
21.66931520713024
 21
49.34147483475681
 31
0.0
  0
LINE
  5
EE
330
2F
100
AcDbEntity
  8
--4N-THT. MCB-MCCB-ACB
100
AcDbLine
 10
19.51931520690868
 20
49.34243940738088
 30
0.0
 11
19.41931520878916
 21
49.3424394556514
 31
0.0
  0
LINE
  5
EF
330
2F
100
AcDbEntity
  8
--4N-THT. MCB-MCCB-ACB
100
AcDbLine
 10
35.94854175148885
 20
50.75130871054716
 30
0.0
 11
36.29999999955089
 21
50.7513085429091
 31
0.0
  0
LINE
  5
F0
330
2F
100
AcDbEntity
  8
--4N-THT. MCB-MCCB-ACB
100
AcDbLine
 10
8.70000000026721
 20
50.75132428582401
 30
0.0
 11
8.948541753629797
 21
50.75132416644192
 31
0.0
  0
LINE
  5
F1
330
2F
100
AcDbEntity
  8
--4N-THT. MCB-MCCB-ACB
100
AcDbLine
 10
43.27499999923111
 20
51.21000000043022
 30
0.0
 11
44.32499999980882
 21
51.21000000043022
 31
0.0
  0
LINE
  5
F2
330
2F
100
AcDbEntity
  8
--4N-THT. MCB-MCCB-ACB
100
AcDbLine
 10
8.70000000026721
 20
51.95000000125038
 30
0.0
 11
36.29999999955089
 21
51.95000000125038
 31
0.0
  0
LINE
  5
F3
330
2F
100
AcDbEntity
  8
--4N-THT. MCB-MCCB-ACB
100
AcDbLine
 10
43.27499999923111
 20
56.74999999989632
 30
0.0
 11
44.32499999980882
 21
56.74999999989632
 31
0.0
  0
LINE
  5
F4
330
2F
100
AcDbEntity
  8
--4N-THT. MCB-MCCB-ACB
100
AcDbLine
 10
8.70000000026721
 20
56.81219038352537
 30
0.0
 11
36.29999999955089
 21
56.81219038352537
 31
0.0
  0
LINE
  5
F5
330
2F
100
AcDbEntity
  8
--4N-THT. MCB-MCCB-ACB
100
AcDbLine
 10
92.49999999990814
 20
90.60000000106811
 30
0.0
 11
-92.49999999990814
 21
90.60000000106811
 31
0.0
  0
ARC
  5
F6
330
2F
100
AcDbEntity
  8
--4N-THT. MCB-MCCB-ACB
100
AcDbCircle
 10
1.550000000067484
 20
-35.50000000060936
 30
0.0
 40
4.400000001099996
100
AcDbArc
 50
311.4096221092747
 51
110.7253050945737
  0
CIRCLE
  5
F7
330
2F
100
AcDbEntity
  8
--4N-THT. MCB-MCCB-ACB
100
AcDbCircle
 10
1.550000000067484
 20
-35.50000000060936
 30
0.0
 40
3.500000000239998
  0
CIRCLE
  5
F8
330
2F
100
AcDbEntity
  8
--4N-THT. MCB-MCCB-ACB
100
AcDbCircle
 10
1.550000000067484
 20
-35.50000000060936
 30
0.0
 40
3.399999999579998
  0
ARC
  5
F9
330
2F
100
AcDbEntity
  8
--4N-THT. MCB-MCCB-ACB
100
AcDbCircle
 10
4.857189138788271
 20
-39.24999999868851
 30
0.0
 40
0.59999999888
100
AcDbArc
 50
131.4096221092746
 51
270.0
  0
ARC
  5
FA
330
2F
100
AcDbEntity
  8
--4N-THT. MCB-MCCB-ACB
100
AcDbCircle
 10
37.3500000001286
 20
-67.05156250062282
 30
0.0
 40
34.95156249958
100
AcDbArc
 50
77.2316721211571
 51
102.7683278788429
  0
ARC
  5
FB
330
2F
100
AcDbEntity
  8
--4N-THT. MCB-MCCB-ACB
100
AcDbCircle
 10
37.3500000001286
 20
-67.05156250062282
 30
0.0
 40
34.3515684316
100
AcDbArc
 50
77.2316721211571
 51
102.7683278788429
  0
ARC
  5
FC
330
2F
100
AcDbEntity
  8
--4N-THT. MCB-MCCB-ACB
100
AcDbCircle
 10
37.3500000001286
 20
-67.05156250062282
 30
0.0
 40
34.05156250126
100
AcDbArc
 50
77.2316721211571
 51
102.7683278788429
  0
ARC
  5
FD
330
2F
100
AcDbEntity
  8
--4N-THT. MCB-MCCB-ACB
100
AcDbCircle
 10
37.3500000001286
 20
-67.04996038037461
 30
0.0
 40
33.7500000005
100
AcDbArc
 50
77.23104499626754
 51
102.768955004012
  0
ARC
  5
FE
330
2F
100
AcDbEntity
  8
--4N-THT. MCB-MCCB-ACB
100
AcDbCircle
 10
44.50000000032832
 20
-35.50000000060936
 30
0.0
 40
2.59999999938
100
AcDbArc
 50
282.7683278788429
 51
77.2316721211571
  0
ARC
  5
FF
330
2F
100
AcDbEntity
  8
--4N-THT. MCB-MCCB-ACB
100
AcDbCircle
 10
30.1999999999307
 20
-35.50000000060936
 30
0.0
 40
2.59999999938
100
AcDbArc
 50
102.7683278788429
 51
257.2316721211572
  0
ARC
  5
100
330
2F
100
AcDbEntity
  8
--4N-THT. MCB-MCCB-ACB
100
AcDbCircle
 10
44.50000000032832
 20
-35.50000000060936
 30
0.0
 40
1.999965174559999
100
AcDbArc
 50
282.7683278788429
 51
77.2316721211571
  0
ARC
  5
101
330
2F
100
AcDbEntity
  8
--4N-THT. MCB-MCCB-ACB
100
AcDbCircle
 10
30.1999999999307
 20
-35.50000000060936
 30
0.0
 40
1.999965174559999
100
AcDbArc
 50
102.7683278788429
 51
257.2316721211572
  0
ARC
  5
102
330
2F
100
AcDbEntity
  8
--4N-THT. MCB-MCCB-ACB
100
AcDbCircle
 10
44.50000000032832
 20
-35.50000000060936
 30
0.0
 40
1.70000000106
100
AcDbArc
 50
282.7683278788429
 51
77.2316721211571
  0
ARC
  5
103
330
2F
100
AcDbEntity
  8
--4N-THT. MCB-MCCB-ACB
100
AcDbCircle
 10
30.1999999999307
 20
-35.50000000060936
 30
0.0
 40
1.70000000106
100
AcDbArc
 50
102.7683278788429
 51
257.2316721211572
  0
ARC
  5
104
330
2F
100
AcDbEntity
  8
--4N-THT. MCB-MCCB-ACB
100
AcDbCircle
 10
44.50000000032832
 20
-35.50000000060936
 30
0.0
 40
1.399999999079998
100
AcDbArc
 50
282.7677007530372
 51
77.23104499712674
  0
ARC
  5
105
330
2F
100
AcDbEntity
  8
--4N-THT. MCB-MCCB-ACB
100
AcDbCircle
 10
30.1999999999307
 20
-35.50000000060936
 30
0.0
 40
1.399999999079998
100
AcDbArc
 50
102.7689550037324
 51
257.2322992465267
  0
ARC
  5
106
330
2F
100
AcDbEntity
  8
--4N-THT. MCB-MCCB-ACB
100
AcDbCircle
 10
37.3500000001286
 20
-3.94843750061409
 30
0.0
 40
34.95156249958
100
AcDbArc
 50
257.2316721211572
 51
282.7683278788429
  0
ARC
  5
107
330
2F
100
AcDbEntity
  8
--4N-THT. MCB-MCCB-ACB
100
AcDbCircle
 10
37.3500000001286
 20
-3.94843750061409
 30
0.0
 40
34.3515684316
100
AcDbArc
 50
257.2316721211572
 51
282.7683278788429
  0
ARC
  5
108
330
2F
100
AcDbEntity
  8
--4N-THT. MCB-MCCB-ACB
100
AcDbCircle
 10
37.3500000001286
 20
-3.94843750061409
 30
0.0
 40
34.05156250126
100
AcDbArc
 50
257.2316721211572
 51
282.7683278788429
  0
ARC
  5
109
330
2F
100
AcDbEntity
  8
--4N-THT. MCB-MCCB-ACB
100
AcDbCircle
 10
37.3500000001286
 20
-3.946835220354842
 30
0.0
 40
33.75312515808
100
AcDbArc
 50
257.2322992473249
 51
282.7677007523281
  0
ARC
  5
10A
330
2F
100
AcDbEntity
  8
--4N-THT. MCB-MCCB-ACB
100
AcDbCircle
 10
11.22526357812876
 20
40.40721228421898
 30
0.0
 40
11.1250000004
100
AcDbArc
 50
101.8397921913856
 51
103.1506879391807
  0
CIRCLE
  5
10B
330
2F
100
AcDbEntity
  8
--4N-THT. MCB-MCCB-ACB
100
AcDbCircle
 10
-10.49999999944975
 20
29.00000000090586
 30
0.0
 40
1.574999999599995
  0
CIRCLE
  5
10C
330
2F
100
AcDbEntity
  8
--4N-THT. MCB-MCCB-ACB
100
AcDbCircle
 10
-10.49999999944975
 20
9.00000000099135
 30
0.0
 40
1.574999999599995
  0
CIRCLE
  5
10D
330
2F
100
AcDbEntity
  8
--4N-THT. MCB-MCCB-ACB
100
AcDbCircle
 10
-10.49999999944975
 20
29.00000000090586
 30
0.0
 40
1.200000000299997
  0
CIRCLE
  5
10E
330
2F
100
AcDbEntity
  8
--4N-THT. MCB-MCCB-ACB
100
AcDbCircle
 10
-10.49999999944975
 20
9.00000000099135
 30
0.0
 40
1.200000000299997
  0
ARC
  5
10F
330
2F
100
AcDbEntity
  8
--4N-THT. MCB-MCCB-ACB
100
AcDbCircle
 10
33.77526357836814
 20
40.40710781402594
 30
0.0
 40
11.1250000004
100
AcDbArc
 50
76.85208977154593
 51
78.70585018270681
  0
CIRCLE
  5
110
330
2F
100
AcDbEntity
  8
--4N-THT. MCB-MCCB-ACB
100
AcDbCircle
 10
55.49999999926967
 20
29.00000000090586
 30
0.0
 40
1.574999999599995
  0
CIRCLE
  5
111
330
2F
100
AcDbEntity
  8
--4N-THT. MCB-MCCB-ACB
100
AcDbCircle
 10
55.49999999926967
 20
29.00000000090586
 30
0.0
 40
1.200000000299997
  0
ARC
  5
112
330
2F
100
AcDbEntity
  8
--4N-THT. MCB-MCCB-ACB
100
AcDbCircle
 10
226.3999999994494
 20
23.64999999987777
 30
0.0
 40
233.0000000011
100
AcDbArc
 50
166.8772142416544
 51
193.8055825125057
  0
SPLINE
  5
113
330
2F
100
AcDbEntity
  8
--4N-THT. MCB-MCCB-ACB
100
AcDbSpline
 70
1064
 71
3
 72
13
 73
9
 74
7
 42
1e-09
 12
0.9999999999998861
 22
-4.770125013e-07
 32
0.0
 13
0.5094698276675736
 23
-0.8604885209556098
 33
0.0
 40
0.0
 40
0.0
 40
0.0
 40
0.0
 40
0.4058651345104979
 40
0.8168050283121935
 40
1.220767745725457
 40
1.610334251693384
 40
1.998925478604075
 40
2.055471988972984
 40
2.055471988972984
 40
2.055471988972984
 40
2.055471988972984
 10
32.5749551357103
 20
10.40589461616946
 30
0.0
 10
32.71024351388045
 20
10.40589455163521
 30
0.0
 10
32.98322494390307
 20
10.38023349291353
 30
0.0
 10
33.37596332907136
 20
10.26444268618883
 30
0.0
 10
33.73345534159592
 20
10.07562830729433
 30
0.0
 10
34.03971705186064
 20
9.82360283135677
 30
0.0
 10
34.21494331179098
 20
9.60435014820845
 30
0.0
 10
34.29253966940745
 20
9.477878480941763
 30
0.0
 10
34.3021425830384
 20
9.461659273250916
 30
0.0
 11
32.5749551357103
 21
10.40589461616946
 31
0.0
 11
32.97900962350923
 21
10.36759999121023
 31
0.0
 11
33.37304598555147
 21
10.2509511947901
 31
0.0
 11
33.72996993768993
 21
10.06176565239911
 31
0.0
 11
34.03038372090942
 21
9.813746255125807
 31
0.0
 11
34.27256954082896
 21
9.509856192336883
 31
0.0
 11
34.3021425830384
 21
9.461659273250916
 31
0.0
  0
SPLINE
  5
114
330
2F
100
AcDbEntity
  8
--4N-THT. MCB-MCCB-ACB
100
AcDbSpline
 70
1064
 71
3
 72
10
 73
6
 74
4
 42
1e-09
 12
0.5096669513674412
 22
-0.8603717793395006
 32
0.0
 13
0.0070182305697893
 23
-0.9999753719165633
 33
0.0
 40
0.0
 40
0.0
 40
0.0
 40
0.0
 40
0.105966648740444
 40
0.5270646824390025
 40
0.9469511296606398
 40
0.9469511296606398
 40
0.9469511296606398
 40
0.9469511296606398
 10
34.79706038668974
 20
8.625737076668884
 30
0.0
 10
34.81506295295979
 20
8.595346838626398
 30
0.0
 10
34.90020763002784
 20
8.4416059434903
 30
0.0
 10
35.01248120480988
 20
8.143225063255075
 30
0.0
 10
35.04747313701586
 20
7.862113196785896
 30
0.0
 10
35.0484554236491
 20
7.722154494711503
 30
0.0
 11
34.79706038668974
 21
8.625737076668884
 31
0.0
 11
34.84838401022808
 21
8.533028844498403
 31
0.0
 11
34.99639872816897
 21
8.138801502400383
 31
0.0
 11
35.0484554236491
 21
7.722154494711503
 31
0.0
  0
SPLINE
  5
115
330
2F
100
AcDbEntity
  8
--4N-THT. MCB-MCCB-ACB
100
AcDbSpline
 70
1064
 71
3
 72
10
 73
6
 74
4
 42
1e-09
 12
-0.5096745283449661
 22
-0.8603672908452161
 32
0.0
 13
-0.0070183696989766
 23
-0.999975370940089
 33
0.0
 40
0.0
 40
0.0
 40
0.0
 40
0.0
 40
0.1059820879091183
 40
0.5270800027268593
 40
0.9469664061655482
 40
0.9469664061655482
 40
0.9469664061655482
 40
0.9469664061655482
 10
10.09995890976915
 20
8.62576218455979
 30
0.0
 10
10.08195345287979
 20
8.595367677275627
 30
0.0
 10
9.996805583155503
 20
8.441622678641066
 30
0.0
 10
9.884530146409242
 20
8.143237023264676
 30
0.0
 10
9.849538185433659
 20
7.862125208953091
 30
0.0
 10
9.848555879430023
 20
7.722166521609324
 30
0.0
 11
10.09995890976915
 21
8.62576218455979
 31
0.0
 11
10.04862738684005
 21
8.53304067836325
 31
0.0
 11
9.900612628252018
 21
8.138813478510201
 31
0.0
 11
9.848555879430023
 21
7.722166521609324
 31
0.0
  0
SPLINE
  5
116
330
2F
100
AcDbEntity
  8
--4N-THT. MCB-MCCB-ACB
100
AcDbSpline
 70
1064
 71
3
 72
13
 73
9
 74
7
 42
1e-09
 12
0.5099589495522967
 22
0.8601987385316942
 32
0.0
 13
0.9999999999998864
 23
-4.766927678e-07
 33
0.0
 40
0.0
 40
0.0
 40
0.0
 40
0.0
 40
0.3294565380520023
 40
0.6596931771373955
 40
1.002800989179277
 40
1.357569655257587
 40
1.717577734916769
 40
2.056758904319906
 40
2.056758904319906
 40
2.056758904319906
 40
2.056758904319906
 10
10.59462292424996
 20
9.461263172941472
 30
0.0
 10
10.650626027606
 20
9.55572920575259
 30
0.0
 10
10.78030801555379
 20
9.735076850305523
 30
0.0
 10
11.02245769215789
 20
9.967869036343483
 30
0.0
 10
11.30860984335863
 20
10.15966621299314
 30
0.0
 10
11.63289070139029
 20
10.30272421986169
 30
0.0
 10
11.97553298746421
 20
10.38757794085347
 30
0.0
 10
12.2090055540283
 20
10.40590433476269
 30
0.0
 10
12.32206594382933
 20
10.40590428086761
 30
0.0
 11
10.59462292424996
 21
9.461263172941472
 31
0.0
 11
10.78754124046736
 21
9.728328958344719
 31
0.0
 11
11.02531862622982
 21
9.95749735192112
 31
0.0
 11
11.31012291056777
 21
10.14883341832501
 31
0.0
 11
11.63455335391063
 21
10.29238025341146
 31
0.0
 11
11.98393846666931
 21
10.37918958702539
 31
0.0
 11
12.32206594382933
 21
10.40590428086761
 31
0.0
  0
SPLINE
  5
117
330
2F
100
AcDbEntity
  8
--4N-THT. MCB-MCCB-ACB
100
AcDbSpline
 70
1064
 71
3
 72
9
 73
5
 74
3
 42
1e-09
 12
0.0073153836268893
 22
0.9999732422232064
 32
0.0
 13
-0.0090797260241317
 23
0.9999587784380548
 33
0.0
 40
0.0
 40
0.0
 40
0.0
 40
0.0
 40
0.0092193582051753
 40
0.0138646408381886
 40
0.0138646408381886
 40
0.0138646408381886
 40
0.0138646408381886
 10
35.0484554236491
 20
-2.777559128631764
 30
0.0
 10
35.04847790469646
 20
-2.774486091459882
 30
0.0
 10
35.04851125986788
 20
-2.769864598923465
 30
0.0
 10
35.04849445368608
 20
-2.765243001414526
 30
0.0
 10
35.04848039438821
 20
-2.76369463769879
 30
0.0
 11
35.0484554236491
 21
-2.777559128631764
 31
0.0
 11
35.04850008447011
 21
-2.768339878601182
 31
0.0
 11
35.04848039438821
 21
-2.76369463769879
 31
0.0
  0
SPLINE
  5
118
330
2F
100
AcDbEntity
  8
--4N-THT. MCB-MCCB-ACB
100
AcDbSpline
 70
1064
 71
3
 72
9
 73
5
 74
3
 42
1e-09
 12
0.0070181933012629
 22
-0.9999753721781282
 32
0.0
 13
-0.0087831096329214
 23
-0.9999614277486788
 33
0.0
 40
0.0
 40
0.0
 40
0.0
 40
0.0
 40
0.0094778231283766
 40
0.0141553359281372
 40
0.0141553359281372
 40
0.0141553359281372
 40
0.0141553359281372
 10
35.0484554236491
 20
7.722154494711503
 30
0.0
 10
35.04847759604736
 20
7.718995298141424
 30
0.0
 10
35.04851118318433
 20
7.714276908140285
 30
0.0
 10
35.04849460692023
 20
7.709558414091013
 30
0.0
 10
35.04848091255098
 20
7.707999303298493
 30
0.0
 11
35.0484554236491
 21
7.722154494711503
 31
0.0
 11
35.04850008447011
 21
7.712676776807711
 31
0.0
 11
35.04848091255098
 21
7.707999303298493
 31
0.0
  0
SPLINE
  5
119
330
2F
100
AcDbEntity
  8
--4N-THT. MCB-MCCB-ACB
100
AcDbSpline
 70
1064
 71
3
 72
9
 73
5
 74
3
 42
1e-09
 12
-0.0070183727307885
 22
-0.99997537091881
 32
0.0
 13
0.0087832890493067
 23
-0.9999614261727682
 33
0.0
 40
0.0
 40
0.0
 40
0.0
 40
0.0
 40
0.009477823130187
 40
0.0141553359153958
 40
0.0141553359153958
 40
0.0141553359153958
 40
0.0141553359153958
 10
9.848555879430023
 20
7.722166521609324
 30
0.0
 10
9.848533706464888
 20
7.71900732504262
 30
0.0
 10
9.848500120320322
 20
7.714288935043247
 30
0.0
 10
9.848516695881017
 20
7.70957044099426
 30
0.0
 10
9.848530390529959
 20
7.708011330209046
 30
0.0
 11
9.848555879430023
 21
7.722166521609324
 31
0.0
 11
9.848511218610838
 21
7.712688803703713
 31
0.0
 11
9.848530390529959
 21
7.708011330209046
 31
0.0
  0
SPLINE
  5
11A
330
2F
100
AcDbEntity
  8
--4N-THT. MCB-MCCB-ACB
100
AcDbSpline
 70
1064
 71
3
 72
9
 73
5
 74
3
 42
1e-09
 12
-0.0073155668176967
 22
0.9999732408830428
 32
0.0
 13
0.009079909200983
 23
0.9999587767747738
 33
0.0
 40
0.0
 40
0.0
 40
0.0
 40
0.0
 40
0.0092193582215372
 40
0.0138646408509434
 40
0.0138646408509434
 40
0.0138646408509434
 40
0.0138646408509434
 10
9.848555879430023
 20
-2.777547101737582
 30
0.0
 10
9.848533397819661
 20
-2.774474064564364
 30
0.0
 10
9.848500043629599
 20
-2.769852572021052
 30
0.0
 10
9.848516849118518
 20
-2.765230974503833
 30
0.0
 10
9.848530908700013
 20
-2.763682610791875
 30
0.0
 11
9.848555879430023
 21
-2.777547101737582
 31
0.0
 11
9.848511218610838
 21
-2.768327851690628
 31
0.0
 11
9.848530908700013
 21
-2.763682610791875
 31
0.0
  0
SPLINE
  5
11B
330
2F
100
AcDbEntity
  8
--4N-THT. MCB-MCCB-ACB
100
AcDbSpline
 70
1064
 71
3
 72
24
 73
20
 74
18
 42
1e-09
 12
3.3362158166e-06
 22
0.9999999999944348
 32
0.0
 13
0.0
 23
-1.0
 33
0.0
 40
0.0
 40
0.0
 40
0.0
 40
0.0
 40
0.8502674531413829
 40
1.778682250407224
 40
2.748449694152274
 40
3.748722045966589
 40
4.756804798978881
 40
5.749134981047077
 40
6.693655692749563
 40
7.606012714854392
 40
8.49932492538142
 40
9.411600677662179
 40
10.35595433124196
 40
11.3481532084475
 40
12.35656443940443
 40
13.35663434397922
 40
14.32669620473132
 40
15.25620077010293
 40
16.10846528305203
 40
16.10846528305203
 40
16.10846528305203
 40
16.10846528305203
 10
17.3484504732105
 20
-13.85657287607318
 30
0.0
 10
17.34845141876908
 20
-13.5731503916943
 30
0.0
 10
17.4062602730835
 20
-12.97911052822088
 30
0.0
 10
17.65964775090531
 20
-12.09380483763248
 30
0.0
 10
18.08522560100321
 20
-11.22104306222288
 30
0.0
 10
18.66863558579852
 20
-10.41185364607925
 30
0.0
 10
19.38828212840763
 20
-9.70970266484104
 30
0.0
 10
20.20743199177866
 20
-9.158443553973571
 30
0.0
 10
21.08689079877477
 20
-8.78439215071595
 30
0.0
 10
21.99077350412696
 20
-8.59767782784603
 30
0.0
 10
22.90297176685757
 20
-8.59735455936359
 30
0.0
 10
23.80690417856994
 20
-8.783421162092102
 30
0.0
 10
24.68649921926559
 20
-9.156830274030185
 30
0.0
 10
25.5060135736745
 20
-9.707568044634773
 30
0.0
 10
26.22607193971119
 20
-10.40930300756728
 30
0.0
 10
26.81001521927227
 20
-11.21827734422953
 30
0.0
 10
27.23626668611307
 20
-12.09115217325975
 30
0.0
 10
27.49040605017105
 20
-12.97742798130645
 30
0.0
 10
27.54845047448998
 20
-13.57250411831823
 30
0.0
 10
27.54845047448998
 20
-13.85659228930126
 30
0.0
 11
17.3484504732105
 21
-13.85657287607318
 31
0.0
 11
17.42798250870964
 21
-13.01003321533608
 31
0.0
 11
17.6806453968411
 21
-12.11666011257148
 31
0.0
 11
18.1041711004591
 21
-11.24426405955273
 31
0.0
 11
18.68899048707044
 21
-10.43276479100859
 31
0.0
 11
19.41153117050908
 21
-9.72979551878052
 31
0.0
 11
20.23624324727007
 21
-9.177917651233656
 31
0.0
 11
21.10642466920854
 21
-8.810625304800851
 31
0.0
 11
22.00024067938921
 21
-8.62762728369489
 31
0.0
 11
22.89355283485111
 21
-8.627313626711839
 31
0.0
 11
23.787415837568
 21
-8.809675850248823
 31
0.0
 11
24.65769020065181
 21
-9.17631785000958
 31
0.0
 11
25.48264976993142
 21
-9.727589399231874
 31
0.0
 11
26.20583937510946
 21
-10.43036248187127
 31
0.0
 11
26.79099887788925
 21
-11.24136690253908
 31
0.0
 11
27.21515635062952
 21
-12.11378334667825
 31
0.0
 11
27.46855405312909
 21
-13.00808102721566
 31
0.0
 11
27.54845047448998
 21
-13.85659228930126
 31
0.0
  0
SPLINE
  5
11C
330
2F
100
AcDbEntity
  8
--4N-THT. MCB-MCCB-ACB
100
AcDbSpline
 70
1064
 71
3
 72
16
 73
12
 74
10
 42
1e-09
 12
-0.0075227403921164
 22
-0.9999717037881586
 32
0.0
 13
0.0126391803774769
 23
-0.9999201223694749
 33
0.0
 40
0.0
 40
0.0
 40
0.0
 40
0.0
 40
1.234041705441559
 40
2.475773229657082
 40
3.706004063414929
 40
4.905755337074464
 40
6.056540937446283
 40
7.140611205229437
 40
8.14126274973061
 40
9.043063886552696
 40
9.83208573530996
 40
9.83208573530996
 40
9.83208573530996
 40
9.83208573530996
 10
32.34589901266827
 20
-8.368248241880792
 30
0.0
 10
32.34280455420724
 20
-8.779583837459473
 30
0.0
 10
32.33729076749068
 20
-9.604823593000807
 30
0.0
 10
32.33100344458932
 20
-10.84014277365612
 30
0.0
 10
32.32674292618274
 20
-12.06404045307461
 30
0.0
 10
32.32457059817823
 20
-13.25762828871853
 30
0.0
 10
32.32451717496835
 20
-14.40249799894446
 30
0.0
 10
32.32657856975639
 20
-15.48099925261607
 30
0.0
 10
32.3307102357325
 20
-16.47649938456343
 30
0.0
 10
32.33684419374025
 20
-17.37363766988307
 30
0.0
 10
32.34257146592053
 20
-17.93721804888737
 30
0.0
 10
32.34589566240993
 20
-18.20020432340789
 30
0.0
 11
32.34589901266827
 21
-8.368248241880792
 31
0.0
 11
32.33763425145026
 21
-9.602262271173458
 31
0.0
 11
32.33131836618759
 21
-10.8439777328731
 31
0.0
 11
32.32705241841086
 21
-12.07420117030961
 31
0.0
 11
32.3249028722903
 21
-13.27395051833991
 31
0.0
 11
32.32490289006728
 21
-14.42473611871173
 31
0.0
 11
32.32705243618784
 21
-15.50880425538162
 31
0.0
 11
32.33131836111079
 21
-16.50944670670833
 31
0.0
 11
32.33763425653069
 21
-17.41122572611311
 31
0.0
 11
32.34589566240993
 21
-18.20020432340789
 31
0.0
  0
SPLINE
  5
11D
330
2F
100
AcDbEntity
  8
--4N-THT. MCB-MCCB-ACB
100
AcDbSpline
 70
1064
 71
3
 72
10
 73
6
 74
4
 42
1e-09
 12
0.9999065674091568
 22
-0.0136695446901961
 32
0.0
 13
0.9999999999998752
 23
-4.994352885e-07
 33
0.0
 40
0.0
 40
0.0
 40
0.0
 40
0.0
 40
0.0084906506924789
 40
0.0169653731194841
 40
0.0254287182643941
 40
0.0254287182643941
 40
0.0254287182643941
 40
0.0254287182643941
 10
11.82216401246933
 20
9.56158137464081
 30
0.0
 10
11.82499396493232
 20
9.561542686864446
 30
0.0
 10
11.83064874589079
 20
9.561478266728203
 30
0.0
 10
11.83912481375915
 20
9.561420340128953
 30
0.0
 10
11.84477084504224
 20
9.561407472413677
 30
0.0
 10
11.84759196009054
 20
9.561407471004713
 30
0.0
 11
11.82216401246933
 21
9.56158137464081
 31
0.0
 11
11.83065411233747
 21
9.56148466160812
 31
0.0
 11
11.83912863690875
 21
9.56142675214869
 31
0.0
 11
11.84759196009054
 21
9.561407471004713
 31
0.0
  0
SPLINE
  5
11E
330
2F
100
AcDbEntity
  8
--4N-THT. MCB-MCCB-ACB
100
AcDbSpline
 70
1064
 71
3
 72
16
 73
12
 74
10
 42
1e-09
 12
0.0157957185255626
 22
0.9998752398555838
 32
0.0
 13
-0.0094013010595194
 23
0.9999558067926743
 33
0.0
 40
0.0
 40
0.0
 40
0.0
 40
0.0
 40
0.6313114673537801
 40
1.352822570959316
 40
2.153355032894395
 40
3.020519732410177
 40
3.941008335923327
 40
4.900687665985722
 40
5.884848826314033
 40
6.878349868171182
 40
7.865726614902833
 40
7.865726614902833
 40
7.865726614902833
 40
7.865726614902833
 10
10.55130794104025
 20
-16.59297024045372
 30
0.0
 10
10.55463194712034
 20
-16.38255933883907
 30
0.0
 10
10.56037093507287
 20
-15.93165273541526
 30
0.0
 10
10.56649839929429
 20
-15.21389250608675
 30
0.0
 10
10.57063066575979
 20
-14.41749916578606
 30
0.0
 10
10.57269071109653
 20
-13.55477209084185
 30
0.0
 10
10.57263744542277
 20
-12.63899372088066
 30
0.0
 10
10.57046620114188
 20
-11.68421910314469
 30
0.0
 10
10.56620631188072
 20
-10.70511384021799
 30
0.0
 10
10.55992236447691
 20
-9.716786879236134
 30
0.0
 10
10.55440223353525
 20
-9.056516818242494
 30
0.0
 10
10.55130802485019
 20
-8.727405781113703
 30
0.0
 11
10.55130794104025
 21
-16.59297024045372
 31
0.0
 11
10.55957680943083
 21
-15.9617129279195
 31
0.0
 11
10.56589184378845
 21
-15.24022946104924
 31
0.0
 11
10.57015665874041
 21
-14.43970835953769
 31
0.0
 11
10.57230530061042
 21
-13.57254632195509
 31
0.0
 11
10.57230533616803
 21
-12.65205771844194
 31
0.0
 11
10.57015678572952
 21
-11.6923807934927
 31
0.0
 11
10.56589216383054
 21
-10.70822887305621
 31
0.0
 11
10.55957684752957
 21
-9.714747903459283
 31
0.0
 11
10.55130802485019
 21
-8.727405781113703
 31
0.0
  0
SPLINE
  5
11F
330
2F
100
AcDbEntity
  8
--4N-THT. MCB-MCCB-ACB
100
AcDbSpline
 70
1064
 71
3
 72
25
 73
21
 74
19
 42
1e-09
 12
-3.3378172674e-06
 22
-0.9999999999944295
 32
0.0
 13
0.0
 23
1.0
 33
0.0
 40
0.0
 40
0.0
 40
0.0
 40
0.0
 40
0.7742088801539426
 40
1.56571865685639
 40
2.356799095331473
 40
3.160965521646703
 40
3.98540398818357
 40
4.836153889132686
 40
5.688810667719018
 40
6.541071398879442
 40
7.387490251775861
 40
8.233873169762896
 40
9.086135636608162
 40
9.93873470525508
 40
10.78961213135309
 40
11.61443388890005
 40
12.41830284964945
 40
13.20970653481704
 40
14.00208040697428
 40
14.77815923020511
 40
14.77815923020511
 40
14.77815923020511
 40
14.77815923020511
 10
27.54845047448998
 20
-13.85660682825073
 30
0.0
 10
27.54844961310073
 20
-14.11467645496727
 30
0.0
 10
27.50206738261352
 20
-14.63803263638648
 30
0.0
 10
27.2791096183342
 20
-15.39704618238772
 30
0.0
 10
26.89598454770192
 20
-16.10136476762901
 30
0.0
 10
26.36467925995147
 20
-16.71613616564249
 30
0.0
 10
25.70501173915268
 20
-17.22255017771603
 30
0.0
 10
24.95086133547012
 20
-17.6075372780427
 30
0.0
 10
24.137944220632
 20
-17.87204239843341
 30
0.0
 10
23.29889455730417
 20
-18.02416135374919
 30
0.0
 10
22.45005294901565
 20
-18.07368952190117
 30
0.0
 10
21.60118989440376
 20
-18.02453403824126
 30
0.0
 10
20.7620998858531
 20
-17.87282015757241
 30
0.0
 10
19.94901877372262
 20
-17.6087550024505
 30
0.0
 10
19.19448984783143
 20
-17.2241860596506
 30
0.0
 10
18.53441359349286
 20
-16.7181856698942
 30
0.0
 10
18.00255759448391
 20
-16.10372111278118
 30
0.0
 10
17.61873232314373
 20
-15.39943675600338
 30
0.0
 10
17.39502603034285
 20
-14.63955956386669
 30
0.0
 10
17.3484504732105
 20
-14.11528036373754
 30
0.0
 10
17.3484504732105
 20
-13.85658742266059
 30
0.0
 11
27.54845047448998
 21
-13.85660682825073
 31
0.0
 11
27.47770443614991
 21
-14.62757659949238
 31
0.0
 11
27.25297404995127
 21
-15.38651268384638
 31
0.0
 11
26.8749181207686
 21
-16.08140978021947
 31
0.0
 11
26.35067114285175
 21
-16.69120380065396
 31
0.0
 11
25.6989176406687
 21
-17.19609602429955
 31
0.0
 11
24.94303983060945
 21
-17.586511354717
 31
0.0
 11
24.13322022342891
 21
-17.85337421443182
 31
0.0
 11
23.29498156463069
 21
-18.00733623823726
 31
0.0
 11
22.45003749378793
 21
-18.05728012361032
 31
0.0
 11
21.60510716434965
 21
-18.00771418514887
 31
0.0
 11
20.76679275259903
 21
-17.85415553366874
 31
0.0
 11
19.9568801280684
 21
-17.58775975201388
 31
0.0
 11
19.20063792706878
 21
-17.19777240905205
 31
0.0
 11
18.54823437538925
 21
-16.69309376131787
 31
0.0
 11
18.0237224322891
 21
-16.08392011809155
 31
0.0
 11
17.64497202901748
 21
-15.38903313093578
 31
0.0
 11
17.41954158070894
 21
-14.62940330907986
 31
0.0
 11
17.3484504732105
 21
-13.85658742266059
 31
0.0
  0
SPLINE
  5
120
330
2F
100
AcDbEntity
  8
--4N-THT. MCB-MCCB-ACB
100
AcDbSpline
 70
1064
 71
3
 72
16
 73
12
 74
10
 42
1e-09
 12
-0.0094026688912367
 22
-0.9999557939317726
 32
0.0
 13
0.0157980163248047
 23
-0.9998752035530241
 33
0.0
 40
0.0
 40
0.0
 40
0.0
 40
0.0
 40
0.987376749166953
 40
1.980877789246071
 40
2.965038947183415
 40
3.924718277945548
 40
4.845206881462337
 40
5.712371584298884
 40
6.512904052082442
 40
7.23441516880022
 40
7.865726659514082
 40
7.865726659514082
 40
7.865726659514082
 40
7.865726659514082
 10
34.34560100766703
 20
-8.72741713745745
 30
0.0
 10
34.34250634878592
 20
-9.056528171165121
 30
0.0
 10
34.33698541755816
 20
-9.716798225842348
 30
0.0
 10
34.33070055300603
 20
-10.70512518059598
 30
0.0
 10
34.32644004722487
 20
-11.6842304398811
 30
0.0
 10
34.32426848127682
 20
-12.63900505653431
 30
0.0
 10
34.32421521329637
 20
-13.55478342808117
 30
0.0
 10
34.32627555730615
 20
-14.41751050563806
 30
0.0
 10
34.33040842334702
 20
-15.21390385064136
 30
0.0
 10
34.33653678173743
 20
-15.93166408683703
 30
0.0
 10
34.34227660174244
 20
-16.3825706924881
 30
0.0
 10
34.34560109148788
 20
-16.59298159424906
 30
0.0
 11
34.34560100766703
 21
-8.72741713745745
 31
0.0
 11
34.33733098356879
 21
-9.714759252176009
 31
0.0
 11
34.3310147477905
 21
-10.70824021414955
 31
0.0
 11
34.32674950612909
 21
-11.69239212950924
 31
0.0
 11
34.32460064072893
 21
-12.65206905445302
 31
0.0
 11
34.32460067882948
 21
-13.57255765796981
 31
0.0
 11
34.32674963312911
 21
-14.439719698099
 31
0.0
 11
34.33101506782896
 21
-15.24024080215713
 31
0.0
 11
34.33733102166935
 21
-15.96172427409146
 31
0.0
 11
34.34560109148788
 21
-16.59298159424906
 31
0.0
  0
SPLINE
  5
121
330
2F
100
AcDbEntity
  8
--4N-THT. MCB-MCCB-ACB
100
AcDbSpline
 70
1064
 71
3
 72
14
 73
10
 74
8
 42
1e-09
 12
-0.0851422093792165
 22
0.9963688093181287
 32
0.0
 13
-0.9999583234325521
 23
0.0091296986784525
 33
0.0
 40
0.0
 40
0.0
 40
0.0
 40
0.0
 40
0.0947741331226919
 40
0.2630720346203264
 40
0.5117997709501705
 40
0.8328686804970972
 40
1.212302392310245
 40
1.632506105294858
 40
2.073585336417537
 40
2.073585336417537
 40
2.073585336417537
 40
2.073585336417537
 10
34.34560067493021
 20
-8.72742492001089
 30
0.0
 10
34.34291091523486
 20
-8.695948256619685
 30
0.0
 10
34.27063756886067
 20
-8.626310586068293
 30
0.0
 10
34.11564727828695
 20
-8.565634746763068
 30
0.0
 10
33.87572229155165
 20
-8.50048774220783
 30
0.0
 10
33.56423656277233
 20
-8.447853425626734
 30
0.0
 10
33.19268881518469
 20
-8.405399417142268
 30
0.0
 10
32.78000382148936
 20
-8.377657422677666
 30
0.0
 10
32.49292345854741
 20
-8.369590548705283
 30
0.0
 10
32.34590317572929
 20
-8.368248241880792
 30
0.0
 11
34.34560067493021
 21
-8.72742492001089
 31
0.0
 11
34.28987701955066
 21
-8.65076325723021
 31
0.0
 11
34.13849456641856
 21
-8.577227303219843
 31
0.0
 11
33.89890249288965
 21
-8.510435648637213
 31
0.0
 11
33.58289066618909
 21
-8.453675010312509
 31
0.0
 11
33.20600935747007
 21
-8.409738456071864
 31
0.0
 11
32.78680412019003
 21
-8.3807879907381
 31
0.0
 11
32.34590317572929
 21
-8.368248241880792
 31
0.0
  0
SPLINE
  5
122
330
2F
100
AcDbEntity
  8
--4N-THT. MCB-MCCB-ACB
100
AcDbSpline
 70
1064
 71
3
 72
8
 73
4
 74
2
 42
1e-09
 12
-0.0182587554195437
 22
-0.9998332950299911
 32
0.0
 13
-0.0825411185367991
 23
-0.9965876598426724
 33
0.0
 40
0.0
 40
0.0
 40
0.0
 40
0.0
 40
0.0839707644816797
 40
0.0839707644816797
 40
0.0839707644816797
 40
0.0839707644816797
 10
34.34560067493021
 20
-16.59298978320839
 30
0.0
 10
34.34508960771319
 20
-16.62097537192103
 30
0.0
 10
34.34366601131065
 20
-16.64895843655825
 30
0.0
 10
34.34135566436907
 20
-16.67685317911491
 30
0.0
 11
34.34560067493021
 21
-16.59298978320839
 31
0.0
 11
34.34135566436907
 21
-16.67685317911491
 31
0.0
  0
SPLINE
  5
123
330
2F
100
AcDbEntity
  8
--4N-THT. MCB-MCCB-ACB
100
AcDbSpline
 70
1064
 71
3
 72
14
 73
10
 74
8
 42
1e-09
 12
-0.0825411133588404
 22
-0.9965876602715305
 32
0.0
 13
-0.9999852426369644
 23
-0.0054327256779198
 33
0.0
 40
0.0
 40
0.0
 40
0.0
 40
0.0
 40
0.2778366922180824
 40
0.6488121587454588
 40
1.035729616912921
 40
1.441159406712722
 40
1.863978302237347
 40
2.299997352335564
 40
2.742919131561562
 40
2.742919131561562
 40
2.742919131561562
 40
2.742919131561562
 10
34.34135566436907
 20
-16.67685317911491
 30
0.0
 10
34.3337113477332
 20
-16.76914938545998
 30
0.0
 10
34.29317006346126
 20
-16.98337545354638
 30
0.0
 10
34.14912140145205
 20
-17.30147094921264
 30
0.0
 10
33.90504232151361
 20
-17.60742005457447
 30
0.0
 10
33.58561643855288
 20
-17.86153788629365
 30
0.0
 10
33.20679972022104
 20
-18.05240239267175
 30
0.0
 10
32.78707196814932
 20
-18.17149404801069
 30
0.0
 10
32.49354159001879
 20
-18.19940223256678
 30
0.0
 10
32.34590317572929
 20
-18.20020432340789
 30
0.0
 11
34.34135566436907
 21
-16.67685317911491
 31
0.0
 11
34.28987700938979
 21
-16.94987914056219
 31
0.0
 11
34.13849454862884
 21
-17.2885621004807
 31
0.0
 11
33.8989024725679
 21
-17.59237249616126
 31
0.0
 11
33.58289064841029
 21
-17.8463603727414
 31
0.0
 11
33.20600934476988
 21
-18.03802753575837
 31
0.0
 11
32.78680411256846
 21
-18.15794244452081
 31
0.0
 11
32.34590317572929
 21
-18.20020432340789
 31
0.0
  0
SPLINE
  5
124
330
2F
100
AcDbEntity
  8
--4N-THT. MCB-MCCB-ACB
100
AcDbSpline
 70
1064
 71
3
 72
14
 73
10
 74
8
 42
1e-09
 12
0.0898130764328554
 22
0.995958639352893
 32
0.0
 13
0.9999746446911812
 23
0.0071210936481606
 33
0.0
 40
0.0
 40
0.0
 40
0.0
 40
0.0
 40
0.0947997290810655
 40
0.2631623904273898
 40
0.5120138374601115
 40
0.833220296907868
 40
1.212836126526385
 40
1.633071493021201
 40
2.073580077984535
 40
2.073580077984535
 40
2.073580077984535
 40
2.073580077984535
 10
10.55130835758882
 20
-8.727413563667142
 30
0.0
 10
10.55414644269341
 20
-8.69594136060494
 30
0.0
 10
10.62618399080034
 20
-8.626261998181636
 30
0.0
 10
10.78142821024929
 20
-8.565596845648475
 30
0.0
 10
11.0213746260452
 20
-8.500412951109166
 30
0.0
 10
11.33304788887153
 20
-8.44781833791626
 30
0.0
 10
11.70469377947091
 20
-8.405249936073583
 30
0.0
 10
12.11727625081563
 20
-8.377834766532628
 30
0.0
 10
12.40416916847979
 20
-8.369284429915066
 30
0.0
 10
12.55100164039049
 20
-8.368238795619618
 30
0.0
 11
10.55130835758882
 21
-8.727413563667142
 31
0.0
 11
10.6070532549902
 21
-8.650735698232891
 31
0.0
 11
10.75850095058104
 21
-8.57718584278882
 31
0.0
 11
10.99821563750902
 21
-8.510373332273957
 31
0.0
 11
11.31436785000824
 21
-8.453616234719448
 31
0.0
 11
11.69142921678849
 21
-8.40965143313042
 31
0.0
 11
12.11067160156835
 21
-8.380779542698292
 31
0.0
 11
12.55100164039049
 21
-8.368238795619618
 31
0.0
  0
SPLINE
  5
125
330
2F
100
AcDbEntity
  8
--4N-THT. MCB-MCCB-ACB
100
AcDbSpline
 70
1064
 71
3
 72
8
 73
4
 74
2
 42
1e-09
 12
0.0182560935099862
 22
-0.9998333436377057
 32
0.0
 13
0.0825291021302986
 23
-0.9965886550134747
 33
0.0
 40
0.0
 40
0.0
 40
0.0
 40
0.0
 40
0.0839583526569556
 40
0.0839583526569556
 40
0.0839583526569556
 40
0.0839583526569556
 10
10.55130835758882
 20
-16.59297842941123
 30
0.0
 10
10.55181927476784
 20
-16.620959882899
 30
0.0
 10
10.5532424544055
 20
-16.64893881334852
 30
0.0
 10
10.55555212355921
 20
-16.67682946059904
 30
0.0
 11
10.55130835758882
 21
-16.59297842941123
 31
0.0
 11
10.55555212355921
 21
-16.67682946059904
 31
0.0
  0
SPLINE
  5
126
330
2F
100
AcDbEntity
  8
--4N-THT. MCB-MCCB-ACB
100
AcDbSpline
 70
1064
 71
3
 72
14
 73
10
 74
8
 42
1e-09
 12
0.0825291058307199
 22
-0.996588654707037
 32
0.0
 13
0.9999852374552123
 23
-0.0054336793835038
 33
0.0
 40
0.0
 40
0.0
 40
0.0
 40
0.0
 40
0.2778489482882636
 40
0.6488241811245999
 40
1.035741321769669
 40
1.441170782211243
 40
1.863989397486081
 40
2.30000826002241
 40
2.74292998063187
 40
2.74292998063187
 40
2.74292998063187
 40
2.74292998063187
 10
10.55555212355921
 20
-16.67682946059904
 30
0.0
 10
10.56319566531195
 20
-16.76912983046116
 30
0.0
 10
10.60373620901332
 20
-16.98336033336307
 30
0.0
 10
10.7477857322012
 20
-17.30145974235224
 30
0.0
 10
10.99186402724327
 20
-17.60740912461406
 30
0.0
 10
11.31128927027325
 20
-17.86152727377391
 30
0.0
 10
11.69010551459135
 20
-18.05239214391095
 30
0.0
 10
12.10983297530652
 20
-18.17148419612807
 30
0.0
 10
12.40336324640459
 20
-18.19939264560612
 30
0.0
 10
12.55100164039049
 20
-18.20019487714671
 30
0.0
 11
10.55555212355921
 21
-16.67682946059904
 31
0.0
 11
10.60703107825156
 21
-16.94986783755121
 31
0.0
 11
10.75841264238897
 21
-17.2885509422631
 31
0.0
 11
10.99800391581903
 21
-17.59236156653605
 31
0.0
 11
11.31401507448845
 21
-17.84634974537584
 31
0.0
 11
11.69089588028964
 21
-18.03801726907659
 31
0.0
 11
12.11010080260985
 21
-18.15793257914993
 31
0.0
 11
12.55100164039049
 21
-18.20019487714671
 31
0.0
  0
SPLINE
  5
127
330
2F
100
AcDbEntity
  8
--4N-THT. MCB-MCCB-ACB
100
AcDbSpline
 70
1064
 71
3
 72
13
 73
9
 74
7
 42
1e-09
 12
0.9999746795808855
 22
-0.0071161925989561
 32
0.0
 13
0.0006670494224616
 23
-0.9999997775225091
 33
0.0
 40
0.0
 40
0.0
 40
0.0
 40
0.0
 40
0.5215376831394508
 40
1.038202461281345
 40
1.54541375277784
 40
2.040949343970109
 40
2.525669769285102
 40
3.003474065162962
 40
3.003474065162962
 40
3.003474065162962
 40
3.003474065162962
 10
32.34590524075156
 20
-6.888269289220261
 30
0.0
 10
32.51974673328047
 20
-6.889506410087205
 30
0.0
 10
32.86693897778639
 20
-6.933453453970493
 30
0.0
 10
33.35248774903787
 20
-7.119581823454788
 30
0.0
 10
33.77126013710073
 20
-7.414000073513401
 30
0.0
 10
34.09423180177379
 20
-7.797932438176294
 30
0.0
 10
34.29851842961168
 20
-8.245536067490775
 30
0.0
 10
34.34549443523701
 20
-8.568156856818502
 30
0.0
 10
34.34560067493021
 20
-8.72742492001089
 30
0.0
 11
32.34590524075156
 21
-6.888269289220261
 31
0.0
 11
32.86326849863054
 21
-6.954123782850729
 31
0.0
 11
33.34540149168879
 21
-7.139839344872598
 31
0.0
 11
33.75947298510892
 21
-7.432769528633798
 31
0.0
 11
34.07728644142935
 21
-7.812967015632239
 31
0.0
 11
34.27720010052963
 21
-8.254541946558675
 31
0.0
 11
34.34560067493021
 21
-8.72742492001089
 31
0.0
  0
SPLINE
  5
128
330
2F
100
AcDbEntity
  8
--4N-THT. MCB-MCCB-ACB
100
AcDbSpline
 70
1064
 71
3
 72
12
 73
8
 74
6
 42
1e-09
 12
0.9999065800303499
 22
0.0136686214377839
 32
0.0
 13
0.5096669510355831
 23
-0.8603717795360868
 33
0.0
 40
0.0
 40
0.0
 40
0.0
 40
0.0
 40
0.4403977196360488
 40
0.8779302120681665
 40
1.306803812638156
 40
1.734530705106927
 40
2.049000823569912
 40
2.049000823569912
 40
2.049000823569912
 40
2.049000823569912
 10
33.0748472906098
 20
9.561571232425194
 30
0.0
 10
33.22163281650794
 20
9.56357777566245
 30
0.0
 10
33.51564731323762
 20
9.53659474301778
 30
0.0
 10
33.93411299088552
 20
9.404243832990787
 30
0.0
 10
34.31048523573604
 20
9.186370844727753
 30
0.0
 10
34.59893752290344
 20
8.918247264962638
 30
0.0
 10
34.74363537786679
 20
8.715924148479857
 30
0.0
 10
34.79706038668974
 20
8.625737076668884
 30
0.0
 11
33.0748472906098
 21
9.561571232425194
 31
0.0
 11
33.51336504704978
 21
9.520922385609081
 31
0.0
 11
33.93039171108739
 21
9.388546241929362
 31
0.0
 11
34.30126038006802
 21
9.173165194401008
 31
0.0
 11
34.61417515175071
 21
8.881558198250787
 31
0.0
 11
34.79706038668974
 21
8.625737076668884
 31
0.0
  0
SPLINE
  5
129
330
2F
100
AcDbEntity
  8
--4N-THT. MCB-MCCB-ACB
100
AcDbSpline
 70
1064
 71
3
 72
13
 73
9
 74
7
 42
1e-09
 12
0.0006669523794088
 22
0.9999997775872369
 32
0.0
 13
0.9999746863770445
 23
0.0071152375316167
 33
0.0
 40
0.0
 40
0.0
 40
0.0
 40
0.0
 40
0.4778042247035968
 40
0.9625244617969441
 40
1.458059806101315
 40
1.965270858392951
 40
2.481935476937199
 40
3.003473112652947
 40
3.003473112652947
 40
3.003473112652947
 40
3.003473112652947
 10
10.55130835758882
 20
-8.727413563667142
 30
0.0
 10
10.55141458181034
 20
-8.568145524189195
 30
0.0
 10
10.59839054396483
 20
-8.24552481417327
 30
0.0
 10
10.80267713401407
 20
-7.797921343334937
 30
0.0
 10
11.12564880214401
 20
-7.413989261200902
 30
0.0
 10
11.54442120825272
 20
-7.119571397465506
 30
0.0
 10
12.02997000506101
 20
-6.933443492778978
 30
0.0
 10
12.37716222496511
 20
-6.889496797679019
 30
0.0
 10
12.551003702868
 20
-6.888259842959087
 30
0.0
 11
10.55130835758882
 21
-8.727413563667142
 31
0.0
 11
10.61970889134954
 21
-8.254530656251516
 31
0.0
 11
10.8196225148904
 21
-7.812955915838756
 31
0.0
 11
11.13743595087999
 21
-7.43275873363018
 31
0.0
 11
11.55150743161084
 21
-7.139828946117631
 31
0.0
 11
12.03364042974954
 21
-6.954113841289654
 31
0.0
 11
12.551003702868
 21
-6.888259842959087
 31
0.0
  0
SPLINE
  5
12A
330
2F
100
AcDbEntity
  8
--4N-THT. MCB-MCCB-ACB
100
AcDbSpline
 70
1064
 71
3
 72
12
 73
8
 74
6
 42
1e-09
 12
-0.9999065669562043
 22
0.0136695778229488
 32
0.0
 13
-0.5096745276573058
 23
-0.8603672912525802
 33
0.0
 40
0.0
 40
0.0
 40
0.0
 40
0.0
 40
0.440397620253724
 40
0.8779299533025469
 40
1.306803361181347
 40
1.734530051178037
 40
2.048984610733877
 40
2.048984610733877
 40
2.048984610733877
 40
2.048984610733877
 10
11.82216401246933
 20
9.56158137464081
 30
0.0
 10
11.6753785216148
 20
9.563588057821843
 30
0.0
 10
11.38136408484536
 20
9.536605313435915
 30
0.0
 10
10.96289843302042
 20
9.40425480357851
 30
0.0
 10
10.58652619855489
 20
9.18638217626407
 30
0.0
 10
10.29807767907306
 20
8.918262367897041
 30
0.0
 10
10.15338206947292
 20
8.715944323768817
 30
0.0
 10
10.09995890976915
 20
8.62576218455979
 30
0.0
 11
11.82216401246933
 21
9.56158137464081
 31
0.0
 11
11.38364631698914
 21
9.520932946923494
 31
0.0
 11
10.96661969358774
 21
9.388557202024458
 31
0.0
 11
10.59575104238956
 21
9.173176507569224
 31
0.0
 11
10.28283626816755
 21
8.88156981112843
 31
0.0
 11
10.09995890976915
 21
8.62576218455979
 31
0.0
  0
SPLINE
  5
12B
330
2F
100
AcDbEntity
  8
--4N-THT. MCB-MCCB-ACB
100
AcDbSpline
 70
1064
 71
3
 72
10
 73
6
 74
4
 42
1e-09
 12
-0.9999065797149631
 22
-0.0136686445093924
 32
0.0
 13
-0.9999999999998752
 23
4.994352885e-07
 33
0.0
 40
0.0
 40
0.0
 40
0.0
 40
0.0
 40
0.0084906505967193
 40
0.0169653755218243
 40
0.0254287206399581
 40
0.0254287206399581
 40
0.0254287206399581
 40
0.0254287206399581
 10
33.0748472906098
 20
9.561571232425194
 30
0.0
 10
33.07201733814389
 20
9.561532547196974
 30
0.0
 10
33.06636255632652
 20
9.561468132391262
 30
0.0
 10
33.05788648761732
 20
9.56141021209261
 30
0.0
 10
33.05224045549047
 20
9.56139735276777
 30
0.0
 10
33.0494193404511
 20
9.561397354176734
 30
0.0
 11
33.0748472906098
 21
9.561571232425194
 31
0.0
 11
33.06635719075075
 21
9.561474527001337
 31
0.0
 11
33.05788266362924
 21
9.561416625161655
 31
0.0
 11
33.0494193404511
 21
9.561397354176734
 31
0.0
  0
SPLINE
  5
12C
330
2F
100
AcDbEntity
  8
--4N-THT. MCB-MCCB-ACB
100
AcDbSpline
 70
1064
 71
3
 72
16
 73
12
 74
10
 42
1e-09
 12
0.012636882522344
 22
0.9999201514121597
 32
0.0
 13
-0.0075213722714056
 23
0.9999717140795308
 33
0.0
 40
0.0
 40
0.0
 40
0.0
 40
0.0
 40
0.7890218279343602
 40
1.690822946544902
 40
2.691474485213626
 40
3.775544749676456
 40
4.926330350048274
 40
6.126081625540891
 40
7.356312461680648
 40
8.598043985135655
 40
9.832085688134367
 40
9.832085688134367
 40
9.832085688134367
 40
9.832085688134367
 10
12.55100915370986
 20
-18.20019487714671
 30
0.0
 10
12.55433274575891
 20
-17.93720860192817
 30
0.0
 10
12.56005897404026
 20
-17.37362822598985
 30
0.0
 10
12.5661918189785
 20
-16.47648994841091
 30
0.0
 10
12.57032273056189
 20
-15.48098982283511
 30
0.0
 10
12.57238375093782
 20
-14.40248857177581
 30
0.0
 10
12.57233033738187
 20
-13.25761886228508
 30
0.0
 10
12.57015840417719
 20
-12.06403102472917
 30
0.0
 10
12.56589866326354
 20
-10.84013334165236
 30
0.0
 10
12.55961248184774
 20
-9.604814155640508
 30
0.0
 10
12.55409969913193
 20
-8.779574394617367
 30
0.0
 10
12.5510058034497
 20
-8.368238795619618
 30
0.0
 11
12.55100915370986
 21
-18.20019487714671
 31
0.0
 11
12.55926905591059
 21
-17.41121628493238
 31
0.0
 11
12.56558380325168
 21
-16.50943727569938
 31
0.0
 11
12.56984895093865
 21
-15.50879482689197
 31
0.0
 11
12.57199810588736
 21
-14.42472669276685
 31
0.0
 11
12.57199812366798
 21
-13.27394109239503
 31
0.0
 11
12.56984896871017
 21
-12.07419174183087
 31
0.0
 11
12.56558379815851
 21
-10.84396829931757
 31
0.0
 11
12.55926906098739
 21
-9.602252832539307
 31
0.0
 11
12.5510058034497
 21
-8.368238795619618
 31
0.0
  0
SPLINE
  5
12D
330
2F
100
AcDbEntity
  8
--4N-THT. MCB-MCCB-ACB
100
AcDbSpline
 70
1064
 71
3
 72
8
 73
4
 74
2
 42
1e-09
 12
2.0109095867e-06
 22
-0.9999999999979781
 32
0.0
 13
0.0373556918390869
 23
-0.999302032564341
 33
0.0
 40
0.0
 40
0.0
 40
0.0
 40
0.0
 40
0.0505571888753767
 40
0.0505571888753767
 40
0.0505571888753767
 40
0.0505571888753767
 10
17.71931318334918
 20
47.47693221130066
 30
0.0
 10
17.71931321723783
 20
47.4600798150089
 30
0.0
 10
17.71963023476792
 20
47.4432245185389
 30
0.0
 10
17.72025976769055
 20
47.42638388467094
 30
0.0
 11
17.71931318334918
 21
47.47693221130066
 31
0.0
 11
17.72025976769055
 21
47.42638388467094
 31
0.0
  0
SPLINE
  5
12E
330
2F
100
AcDbEntity
  8
--4N-THT. MCB-MCCB-ACB
100
AcDbSpline
 70
1064
 71
3
 72
13
 73
9
 74
7
 42
1e-09
 12
0.0373557159118399
 22
-0.9993020316644582
 32
0.0
 13
0.9999999999998861
 23
-4.773590777e-07
 33
0.0
 40
0.0
 40
0.0
 40
0.0
 40
0.0
 40
0.3522877014821606
 40
0.7589252900176995
 40
1.174671466677466
 40
1.601304816552343
 40
2.03892529600582
 40
2.485317048344492
 40
2.485317048344492
 40
2.485317048344492
 40
2.485317048344492
 10
17.72025976769055
 20
47.42638388467094
 30
0.0
 10
17.72464642078915
 20
47.30903661273043
 30
0.0
 10
17.76678554398182
 20
47.05638276835472
 30
0.0
 10
17.9341324217076
 20
46.69679476948807
 30
0.0
 10
18.20764659658584
 20
46.3764825442562
 30
0.0
 10
18.56197499530692
 20
46.13072917042048
 30
0.0
 10
18.97459307879389
 20
45.97509338138887
 30
0.0
 10
19.27052081296987
 20
45.93961157999365
 30
0.0
 10
19.41931806374941
 20
45.93961150896393
 30
0.0
 11
17.72025976769055
 21
47.42638388467094
 31
0.0
 11
17.77798469922982
 21
47.078857688688
 31
0.0
 11
17.94822058938826
 21
46.70956935944923
 31
0.0
 11
18.21712955372914
 21
46.39250019932115
 31
0.0
 11
18.56693683227877
 21
46.14826489659208
 31
0.0
 11
18.97615035217041
 21
45.99316499596352
 31
0.0
 11
19.41931806374941
 21
45.93961150896393
 31
0.0
  0
SPLINE
  5
12F
330
2F
100
AcDbEntity
  8
--4N-THT. MCB-MCCB-ACB
100
AcDbSpline
 70
1064
 71
3
 72
12
 73
8
 74
6
 42
1e-09
 12
0.9999999999998859
 22
-4.775823329e-07
 32
0.0
 13
2.086691119e-06
 23
-0.9999999999978229
 33
0.0
 40
0.0
 40
0.0
 40
0.0
 40
0.0
 40
0.3453338781970925
 40
0.6805545677547669
 40
1.003732357886785
 40
1.317141883103679
 40
1.627447177624021
 40
1.627447177624021
 40
1.627447177624021
 40
1.627447177624021
 10
19.51931462271841
 20
48.81322376782373
 30
0.0
 10
19.63442591545076
 20
48.81322371284861
 30
0.0
 10
19.862610261424
 20
48.78151964244317
 30
0.0
 10
20.17203298632741
 20
48.64289765976693
 30
0.0
 10
20.41965630725274
 20
48.42588596459752
 30
0.0
 10
20.58157493406075
 20
48.14828889761525
 30
0.0
 10
20.61931334733126
 20
47.93856719760298
 30
0.0
 10
20.61931356316836
 20
47.83513209942976
 30
0.0
 11
19.51931462271841
 21
48.81322376782373
 31
0.0
 11
19.86126640515158
 21
48.76501105247371
 31
0.0
 11
20.16662022420769
 21
48.62669273880783
 31
0.0
 11
20.40839527025037
 21
48.41224295180473
 31
0.0
 11
20.56470462743073
 21
48.14059443744373
 31
0.0
 11
20.61931356316836
 21
47.83513209942976
 31
0.0
  0
SPLINE
  5
130
330
2F
100
AcDbEntity
  8
--4N-THT. MCB-MCCB-ACB
100
AcDbSpline
 70
1064
 71
3
 72
12
 73
8
 74
6
 42
1e-09
 12
1.0675340054e-06
 22
0.9999999999994301
 32
0.0
 13
0.9999999999998859
 23
-4.775810024e-07
 33
0.0
 40
0.0
 40
0.0
 40
0.0
 40
0.0
 40
0.3099514326276174
 40
0.6233668862621725
 40
0.946553026461888
 40
1.281840465020628
 40
1.627451671154231
 40
1.627451671154231
 40
1.627451671154231
 40
1.627451671154231
 10
18.31931356322911
 20
47.83513049922476
 30
0.0
 10
18.31931367352368
 20
47.93844764343391
 30
0.0
 10
18.35698257127915
 20
48.14804869637203
 30
0.0
 10
18.51874270413873
 20
48.42560790012732
 30
0.0
 10
18.76630969257966
 20
48.64272737772176
 30
0.0
 10
19.07580934189025
 20
48.78147580582805
 30
0.0
 10
19.30411088668172
 20
48.81322387109699
 30
0.0
 10
19.41931462205957
 20
48.81322381607787
 30
0.0
 11
18.31931356322911
 21
47.83513049922476
 31
0.0
 11
18.37379762495129
 21
48.14025568272518
 31
0.0
 11
18.5300087120786
 21
48.41196755739293
 31
0.0
 11
18.77171555657969
 21
48.62650679049147
 31
0.0
 11
19.07709379011885
 21
48.76493294746978
 31
0.0
 11
19.41931462205957
 21
48.81322381607787
 31
0.0
  0
SPLINE
  5
131
330
2F
100
AcDbEntity
  8
--4N-THT. MCB-MCCB-ACB
100
AcDbSpline
 70
1064
 71
3
 72
13
 73
9
 74
7
 42
1e-09
 12
0.9999999999998863
 22
-4.768640533e-07
 32
0.0
 13
1.0569150762e-06
 23
0.9999999999994414
 33
0.0
 40
0.0
 40
0.0
 40
0.0
 40
0.0
 40
0.4459710657270052
 40
0.8834620051692528
 40
1.31028300727795
 40
1.725860815791172
 40
2.132626850588748
 40
2.535397648148694
 40
2.535397648148694
 40
2.535397648148694
 40
2.535397648148694
 10
19.51931807202982
 20
45.93961146070978
 30
0.0
 10
19.6679750939388
 20
45.93961138982058
 30
0.0
 10
19.96371597162051
 20
45.97503765077482
 30
0.0
 10
20.37625745172075
 20
46.13052802565501
 30
0.0
 10
20.73062229338507
 20
46.37615152562978
 30
0.0
 10
21.00426613236032
 20
46.69647463938225
 30
0.0
 10
21.17888073532276
 20
47.07125325915168
 30
0.0
 10
21.2193130416893
 20
47.34267963488021
 30
0.0
 10
21.21931318358747
 20
47.47693656740011
 30
0.0
 11
19.51931807202982
 21
45.93961146070978
 31
0.0
 11
19.96207401151059
 21
45.99306582928875
 31
0.0
 11
20.37120685338869
 21
46.14801304543289
 31
0.0
 11
20.72123330090926
 21
46.3922622089467
 31
0.0
 11
20.99012349973145
 21
46.70912649520505
 31
0.0
 11
21.16052718738047
 21
47.07847888832112
 31
0.0
 11
21.21931318358747
 21
47.47693656740011
 31
0.0
  0
SPLINE
  5
132
330
2F
100
AcDbEntity
  8
--4N-THT. MCB-MCCB-ACB
100
AcDbSpline
 70
1064
 71
3
 72
13
 73
9
 74
7
 42
1e-09
 12
-0.9999999999998859
 22
4.775898809e-07
 32
0.0
 13
-1.0652374722e-06
 23
-0.9999999999994326
 33
0.0
 40
0.0
 40
0.0
 40
0.0
 40
0.0
 40
0.4457683504506328
 40
0.8815008589435402
 40
1.304348473836984
 40
1.714489301773777
 40
2.115961089616945
 40
2.515589311763965
 40
2.515589311763965
 40
2.515589311763965
 40
2.515589311763965
 10
19.41931057836791
 20
49.34243879524183
 30
0.0
 10
19.27072112821772
 20
49.34243886620665
 30
0.0
 10
18.97571038003112
 20
49.30842412024612
 30
0.0
 10
18.56342120112569
 20
49.15851283731834
 30
0.0
 10
18.20864979036435
 20
48.92018306658673
 30
0.0
 10
17.93428958397949
 20
48.60680652418768
 30
0.0
 10
17.75936496109216
 20
48.23706792482919
 30
0.0
 10
17.71931370370777
 20
47.96836481892383
 30
0.0
 10
17.71931356180812
 20
47.83515541154156
 30
0.0
 11
19.41931057836791
 21
49.34243879524183
 31
0.0
 11
18.97654014310956
 21
49.29082713062417
 31
0.0
 11
18.56741083436918
 21
49.14090705962917
 31
0.0
 11
18.21741273832867
 21
48.90362781867224
 31
0.0
 11
17.94849470364988
 21
48.5939528449253
 31
0.0
 11
17.77809629666899
 21
48.23043671140112
 31
0.0
 11
17.71931356180812
 21
47.83515541154156
 31
0.0
  0
SPLINE
  5
133
330
2F
100
AcDbEntity
  8
--4N-THT. MCB-MCCB-ACB
100
AcDbSpline
 70
1064
 71
3
 72
13
 73
9
 74
7
 42
1e-09
 12
-2.0274612191e-06
 22
0.9999999999979448
 32
0.0
 13
-0.9999999999998864
 23
4.765746106e-07
 33
0.0
 40
0.0
 40
0.0
 40
0.0
 40
0.0
 40
0.3992717849099296
 40
0.8006347753972324
 40
1.210903084496614
 40
1.633596827522122
 40
2.069456379639166
 40
2.515618738482303
 40
2.515618738482303
 40
2.515618738482303
 40
2.515618738482303
 10
21.21931356205005
 20
47.83513324242085
 30
0.0
 10
21.21931329221403
 20
47.96822383739055
 30
0.0
 10
21.17933236965582
 20
48.23676886126875
 30
0.0
 10
21.00456830603468
 20
48.60645589580203
 30
0.0
 10
20.73032529628624
 20
48.91988012025361
 30
0.0
 10
20.37559101445945
 20
49.15832099973341
 30
0.0
 10
19.96321873569968
 20
49.30837407480229
 30
0.0
 10
19.66803136785072
 20
49.34243867611295
 30
0.0
 10
19.5193105815697
 20
49.3424387469895
 30
0.0
 11
21.21931356205005
 21
47.83513324242085
 31
0.0
 11
21.16064261005067
 21
48.23007080408934
 31
0.0
 11
20.99040091090956
 21
48.59354021684158
 31
0.0
 11
20.72148749648932
 21
48.9033880197967
 31
0.0
 11
20.37167909526852
 21
49.1406728335296
 31
0.0
 11
19.96246714000972
 21
49.29073656947185
 31
0.0
 11
19.5193105815697
 21
49.3424387469895
 31
0.0
  0
SPLINE
  5
134
330
2F
100
AcDbEntity
  8
--4N-THT. MCB-MCCB-ACB
100
AcDbSpline
 70
1064
 71
3
 72
12
 73
8
 74
6
 42
1e-09
 12
-1.0568346214e-06
 22
-0.9999999999994414
 32
0.0
 13
-0.9999999999998856
 23
4.779810035e-07
 33
0.0
 40
0.0
 40
0.0
 40
0.0
 40
0.0
 40
0.3120555502454755
 40
0.62855140499164
 40
0.9543573273656829
 40
1.290912110479191
 40
1.636717765028333
 40
1.636717765028333
 40
1.636717765028333
 40
1.636717765028333
 10
20.61931318217012
 20
47.47693685442391
 30
0.0
 10
20.61931307223975
 20
47.37291833767548
 30
0.0
 10
20.58141351912417
 20
47.16166805737978
 30
0.0
 10
20.42004816461112
 20
46.88104671712181
 30
0.0
 10
20.1729661077383
 20
46.65991564476999
 30
0.0
 10
19.86342500342901
 20
46.51766629104892
 30
0.0
 10
19.63458069772618
 20
46.48497229101404
 30
0.0
 10
19.51931214620981
 20
46.48497234611022
 30
0.0
 11
20.61931318217012
 21
47.47693685442391
 31
0.0
 11
20.56482751262866
 21
47.16967478671358
 31
0.0
 11
20.40862569142973
 21
46.89441015562988
 31
0.0
 11
20.16692680983124
 21
46.67593555827806
 31
0.0
 11
19.86156136519003
 21
46.53443973764843
 31
0.0
 11
19.51931214620981
 21
46.48497234611022
 31
0.0
  0
SPLINE
  5
135
330
2F
100
AcDbEntity
  8
--4N-THT. MCB-MCCB-ACB
100
AcDbSpline
 70
1064
 71
3
 72
12
 73
8
 74
6
 42
1e-09
 12
-0.9999999999998861
 22
4.771032079e-07
 32
0.0
 13
-0.0576010535492079
 23
0.9983396809853955
 33
0.0
 40
0.0
 40
0.0
 40
0.0
 40
0.0
 40
0.345500309724974
 40
0.6819854671814114
 40
1.007782840213251
 40
1.324279193566506
 40
1.587077583292393
 40
1.587077583292393
 40
1.587077583292393
 40
1.587077583292393
 10
19.41931214555097
 20
46.48497239436437
 30
0.0
 10
19.30414537564266
 20
46.48497244931081
 30
0.0
 10
19.0754300884305
 20
46.51761168178641
 30
0.0
 10
18.76596523936203
 20
46.65974313534487
 30
0.0
 10
18.51883565282976
 20
46.88068178587725
 30
0.0
 10
18.36564058354082
 20
47.14702449646902
 30
0.0
 10
18.3258131891638
 20
47.33922283315598
 30
0.0
 10
18.32076736779072
 20
47.42667685334345
 30
0.0
 11
19.41931214555097
 21
46.48497239436437
 31
0.0
 11
19.0773587375088
 21
46.53435185110902
 31
0.0
 11
18.77201540103033
 21
46.67572974208451
 31
0.0
 11
18.53024141416881
 21
46.89410846712781
 31
0.0
 11
18.37393118831915
 21
47.16931212804229
 31
0.0
 11
18.32076736779072
 21
47.42667685334345
 31
0.0
  0
SPLINE
  5
136
330
2F
100
AcDbEntity
  8
--4N-THT. MCB-MCCB-ACB
100
AcDbSpline
 70
1064
 71
3
 72
8
 73
4
 74
2
 42
1e-09
 12
-0.0576010633851742
 22
0.9983396804178912
 32
0.0
 13
-2.0735845358e-06
 23
0.9999999999978502
 33
0.0
 40
0.0
 40
0.0
 40
0.0
 40
0.0
 40
0.0502794241573442
 40
0.0502794241573442
 40
0.0502794241573442
 40
0.0502794241573442
 10
18.32076736779072
 20
47.42667685334345
 30
0.0
 10
18.31980198502477
 20
47.4434088347584
 30
0.0
 10
18.31931321698375
 20
47.4601754360129
 30
0.0
 10
18.31931318223087
 20
47.47693524406531
 30
0.0
 11
18.32076736779072
 21
47.42667685334345
 31
0.0
 11
18.31931318223087
 21
47.47693524406531
 31
0.0
  0
SPLINE
  5
137
330
2F
100
AcDbEntity
  8
--4N-THT. MCB-MCCB-ACB
100
AcDbSpline
 70
1064
 71
3
 72
12
 73
8
 74
6
 42
1e-09
 12
0.9999999999998859
 22
-4.777363642e-07
 32
0.0
 13
1.0612905551e-06
 23
0.9999999999994368
 33
0.0
 40
0.0
 40
0.0
 40
0.0
 40
0.0
 40
0.3444400240829313
 40
0.6809419600681429
 40
1.006604495753897
 40
1.322081391217198
 40
1.632239156930875
 40
1.632239156930875
 40
1.632239156930875
 40
1.632239156930875
 10
19.51931223256815
 20
46.44029785329076
 30
0.0
 10
19.63412557392912
 20
46.44029779844024
 30
0.0
 10
19.86244727311496
 20
46.47239901400147
 30
0.0
 10
20.1722659055864
 20
46.61267189153466
 30
0.0
 10
20.42022097873074
 20
46.8323281474384
 30
0.0
 10
20.58164367329822
 20
47.11185200365362
 30
0.0
 10
20.61931316896501
 20
47.32214555145733
 30
0.0
 10
20.61931327868752
 20
47.42553147336184
 30
0.0
 11
19.51931223256815
 21
46.44029785329076
 31
0.0
 11
19.86031473572893
 21
46.48883879506501
 31
0.0
 11
20.16634046861054
 21
46.62877379331803
 31
0.0
 11
20.40891930780981
 21
46.84605608417951
 31
0.0
 11
20.5651307302096
 21
47.12014304680815
 31
0.0
 11
20.61931327868752
 21
47.42553147336184
 31
0.0
  0
SPLINE
  5
138
330
2F
100
AcDbEntity
  8
--4N-THT. MCB-MCCB-ACB
100
AcDbSpline
 70
1064
 71
3
 72
13
 73
9
 74
7
 42
1e-09
 12
0.0374884313348338
 22
0.9992970616968978
 32
0.0
 13
0.9999999999998861
 23
-4.771586759e-07
 33
0.0
 40
0.0
 40
0.0
 40
0.0
 40
0.0
 40
0.349380866151001
 40
0.7537909234859095
 40
1.168116613715928
 40
1.594361955528231
 40
2.031446415703416
 40
2.475713042177362
 40
2.475713042177362
 40
2.475713042177362
 40
2.475713042177362
 10
17.72026216799076
 20
47.83428144834942
 30
0.0
 10
17.72462808152757
 20
47.9506598726687
 30
0.0
 10
17.76642393447405
 20
48.20161656943965
 30
0.0
 10
17.93350543684606
 20
48.55903830803241
 30
0.0
 10
18.20805235579679
 20
48.87682683882852
 30
0.0
 10
18.56359035214881
 20
49.11947467530884
 30
0.0
 10
18.97624867969226
 20
49.27185179151531
 30
0.0
 10
19.27122640187922
 20
49.30643366486727
 30
0.0
 10
19.41931527737051
 20
49.30643359420537
 30
0.0
 11
17.72026216799076
 21
47.83428144834942
 31
0.0
 11
17.77755638411054
 21
48.17893252180147
 31
0.0
 11
17.94756586121093
 21
48.54587157964306
 31
0.0
 11
18.21721796604925
 21
48.86044036376006
 31
0.0
 11
18.56842622730892
 21
49.10197265692113
 31
0.0
 11
18.97812282219002
 21
49.25426029748814
 31
0.0
 11
19.41931527737051
 21
49.30643359420537
 31
0.0
  0
SPLINE
  5
139
330
2F
100
AcDbEntity
  8
--4N-THT. MCB-MCCB-ACB
100
AcDbSpline
 70
1064
 71
3
 72
13
 73
9
 74
7
 42
1e-09
 12
0.9999999999998861
 22
-4.771588649e-07
 32
0.0
 13
0.0374863778168601
 23
-0.9992971387321048
 33
0.0
 40
0.0
 40
0.0
 40
0.0
 40
0.0
 40
0.4442335894192505
 40
0.881299036964023
 40
1.3075392070194
 40
1.721872401036799
 40
2.126301332363752
 40
2.475712131004724
 40
2.475712131004724
 40
2.475712131004724
 40
2.475712131004724
 10
19.51931527549004
 20
49.30643354595122
 30
0.0
 10
19.66739313862978
 20
49.30643347529455
 30
0.0
 10
19.96235320957471
 20
49.27185597261551
 30
0.0
 10
20.3749965113385
 20
49.11949483326874
 30
0.0
 10
20.7305371789393
 20
48.87686124561263
 30
0.0
 10
21.00509923396551
 20
48.55907623081569
 30
0.0
 10
21.17219831904071
 20
48.20164126649117
 30
0.0
 10
21.21399920973607
 20
47.95066813508723
 30
0.0
 10
21.21836525813979
 20
47.83427973131256
 30
0.0
 11
19.51931527549004
 21
49.30643354595122
 31
0.0
 11
19.9604753329686
 21
49.2542676025223
 31
0.0
 11
20.37015753366814
 21
49.10199580648805
 31
0.0
 11
20.72136902580951
 21
48.86047733854685
 31
0.0
 11
20.9910362690598
 21
48.54591164813792
 31
0.0
 11
21.16106309434963
 21
48.17895982680965
 31
0.0
 11
21.21836525813979
 21
47.83427973131256
 31
0.0
  0
SPLINE
  5
13A
330
2F
100
AcDbEntity
  8
--4N-THT. MCB-MCCB-ACB
100
AcDbSpline
 70
1064
 71
3
 72
12
 73
8
 74
6
 42
1e-09
 12
2.0774570089e-06
 22
-0.999999999997842
 32
0.0
 13
0.9999999999998859
 23
-4.777373738e-07
 33
0.0
 40
0.0
 40
0.0
 40
0.0
 40
0.0
 40
0.3101931294272349
 40
0.625690766436837
 40
0.9513551947090689
 40
1.287837606036767
 40
1.632235748724026
 40
1.632235748724026
 40
1.632235748724026
 40
1.632235748724026
 10
18.31931327875009
 20
47.42552987570525
 30
0.0
 10
18.31931349355438
 20
47.3221321658964
 30
0.0
 10
18.35699111837809
 20
47.11181939615008
 30
0.0
 10
18.51843819248594
 20
46.8322862290353
 30
0.0
 10
18.7664062976141
 20
46.61264334191824
 30
0.0
 10
19.07621215261359
 20
46.47239250638587
 30
0.0
 10
19.3045128535547
 20
46.44029795638886
 30
0.0
 10
19.41931223445044
 20
46.4402979015449
 30
0.0
 11
18.31931327875009
 21
47.42552987570525
 31
0.0
 11
18.37350841292846
 21
47.120107766199
 31
0.0
 11
18.52974373165034
 21
46.84601054960876
 31
0.0
 11
18.77233623858865
 21
46.6287406818883
 31
0.0
 11
19.07835039415022
 21
46.48882731680532
 31
0.0
 11
19.41931223445044
 21
46.4402979015449
 31
0.0
  0
SPLINE
  5
13B
330
2F
100
AcDbEntity
  8
--4N-THT. MCB-MCCB-ACB
100
AcDbSpline
 70
1064
 71
3
 72
15
 73
11
 74
9
 42
1e-09
 12
-1.0
 22
0.0
 32
0.0
 13
1.0
 23
0.0
 33
0.0
 40
0.0
 40
0.0
 40
0.0
 40
0.0
 40
0.8975683990658643
 40
1.836728685527416
 40
2.831745314023712
 40
3.864436508864161
 40
4.897127706198678
 40
5.892144332502127
 40
6.831304620514918
 40
7.728873019582014
 40
7.728873019582014
 40
7.728873019582014
 40
7.728873019582014
 10
43.80000000078962
 20
-11.38999999871703
 30
0.0
 10
43.50081053443433
 20
-11.38999999871703
 30
0.0
 10
42.88076453756792
 20
-11.24295703808176
 30
0.0
 10
42.12342634488385
 20
-10.63685448027753
 30
0.0
 10
41.62855093658331
 20
-9.755214446091882
 30
0.0
 10
41.45716965260071
 20
-8.729999999275122
 30
0.0
 10
41.62855093544027
 20
-7.704785552243615
 30
0.0
 10
42.12342634655994
 20
-6.823145519542032
 30
0.0
 10
42.88076453655139
 20
-6.217042958849155
 30
0.0
 10
43.50081053443392
 20
-6.069999998650018
 30
0.0
 10
43.80000000078962
 20
-6.069999998650018
 30
0.0
 11
43.80000000078962
 21
-11.38999999871703
 31
0.0
 11
42.92556835621053
 21
-11.18751955531479
 31
0.0
 11
42.18426100468877
 21
-10.6109040384872
 31
0.0
 11
41.68893526940792
 21
-9.747937928519605
 31
0.0
 11
41.51500000133
 21
-8.72999999995045
 31
0.0
 11
41.68893526940792
 21
-7.712062068851082
 31
0.0
 11
42.18426100468877
 21
-6.849095961411876
 31
0.0
 11
42.92556835621053
 21
-6.272480442057712
 31
0.0
 11
43.80000000078962
 21
-6.069999998650018
 31
0.0
  0
SPLINE
  5
13C
330
2F
100
AcDbEntity
  8
--4N-THT. MCB-MCCB-ACB
100
AcDbSpline
 70
1064
 71
3
 72
15
 73
11
 74
9
 42
1e-09
 12
1.0
 22
0.0
 32
0.0
 13
-1.0
 23
0.0
 33
0.0
 40
0.0
 40
0.0
 40
0.0
 40
0.0
 40
0.8975683965932422
 40
1.836728684604598
 40
2.831745312172132
 40
3.864436509507261
 40
4.897127704348323
 40
5.892144334108705
 40
6.831304620568821
 40
7.728873017160832
 40
7.728873017160832
 40
7.728873017160832
 40
7.728873017160832
 10
43.80000000078962
 20
-6.069999998650018
 30
0.0
 10
44.0991894663207
 20
-6.069999998650018
 30
0.0
 10
44.71923546331676
 20
-6.217042959464365
 30
0.0
 10
45.47657365211276
 20
-6.82314552015707
 30
0.0
 10
45.97144906680171
 20
-7.704785551461304
 30
0.0
 10
46.14283034860771
 20
-8.729999999275126
 30
0.0
 10
45.97144906565867
 20
-9.755214446874191
 30
0.0
 10
45.47657365378885
 20
-10.63685447966249
 30
0.0
 10
44.71923546230024
 20
-11.24295703746655
 30
0.0
 10
44.09918946632029
 20
-11.38999999871703
 30
0.0
 10
43.80000000078962
 20
-11.38999999871703
 30
0.0
 11
43.80000000078962
 21
-6.069999998650018
 31
0.0
 11
44.6744316428294
 21
-6.272480442057712
 31
0.0
 11
45.41573899434934
 21
-6.849095961411876
 31
0.0
 11
45.9110647321695
 21
-7.712062068851082
 31
0.0
 11
46.08500000025105
 21
-8.72999999995045
 31
0.0
 11
45.9110647321695
 21
-9.747937928519605
 31
0.0
 11
45.41573899434934
 21
-10.6109040384872
 31
0.0
 11
44.6744316428294
 21
-11.18751955531479
 31
0.0
 11
43.80000000078962
 21
-11.38999999871703
 31
0.0
  0
SPLINE
  5
13D
330
2F
100
AcDbEntity
  8
--4N-THT. MCB-MCCB-ACB
100
AcDbSpline
 70
1064
 71
3
 72
11
 73
7
 74
5
 42
1e-09
 12
1.0
 22
0.0
 32
0.0
 13
-1.0
 23
0.0
 33
0.0
 40
0.0
 40
0.0
 40
0.0
 40
0.0
 40
0.8984765593115501
 40
1.896934451507845
 40
2.895392343692148
 40
3.793868903002121
 40
3.793868903002121
 40
3.793868903002121
 40
3.793868903002121
 10
43.80000000078962
 20
-10.05999999934283
 30
0.0
 10
44.0994921872268
 20
-10.05999999934283
 30
0.0
 10
44.74220348337712
 20
-9.723063385917303
 30
0.0
 10
45.05174263437821
 20
-8.729999999954343
 30
0.0
 10
44.74220348337404
 20
-7.736936613993206
 30
0.0
 10
44.09949218722628
 20
-7.400000000574436
 30
0.0
 10
43.80000000078962
 20
-7.400000000574436
 30
0.0
 11
43.80000000078962
 21
-10.05999999934283
 31
0.0
 11
44.60963726391037
 21
-9.670452017960997
 31
0.0
 11
44.94499999933123
 21
-8.72999999995045
 31
0.0
 11
44.60963726391037
 21
-7.789547981952637
 31
0.0
 11
43.80000000078962
 21
-7.400000000574436
 31
0.0
  0
SPLINE
  5
13E
330
2F
100
AcDbEntity
  8
--4N-THT. MCB-MCCB-ACB
100
AcDbSpline
 70
1064
 71
3
 72
11
 73
7
 74
5
 42
1e-09
 12
-1.0
 22
0.0
 32
0.0
 13
1.0
 23
0.0
 33
0.0
 40
0.0
 40
0.0
 40
0.0
 40
0.0
 40
0.8984765615900053
 40
1.896934453777362
 40
2.895392345976713
 40
3.793868907568295
 40
3.793868907568295
 40
3.793868907568295
 40
3.793868907568295
 10
43.80000000078962
 20
-7.400000000574436
 30
0.0
 10
43.50050781359295
 20
-7.400000000574436
 30
0.0
 10
42.85779651579639
 20
-7.736936612823011
 30
0.0
 10
42.54825736472119
 20
-8.729999999954343
 30
0.0
 10
42.85779651579331
 20
-9.723063387087498
 30
0.0
 10
43.50050781359242
 20
-10.05999999934283
 30
0.0
 10
43.80000000078962
 20
-10.05999999934283
 30
0.0
 11
43.80000000078962
 21
-7.400000000574436
 31
0.0
 11
42.99036273513865
 21
-7.789547981952637
 31
0.0
 11
42.6549999997087
 21
-8.72999999995045
 31
0.0
 11
42.99036273513865
 21
-9.670452017960997
 31
0.0
 11
43.80000000078962
 21
-10.05999999934283
 31
0.0
  0
SPLINE
  5
13F
330
2F
100
AcDbEntity
  8
--4N-THT. MCB-MCCB-ACB
100
AcDbSpline
 70
1064
 71
3
 72
8
 73
4
 74
2
 42
1e-09
 12
-0.2269867989414986
 22
-0.9738978350454895
 32
0.0
 13
-0.2267514148470918
 23
-0.9739526661315949
 33
0.0
 40
0.0
 40
0.0
 40
0.0
 40
0.0
 40
0.0562801159675848
 40
0.0562801159675848
 40
0.0562801159675848
 40
0.0562801159675848
 10
-0.2172612406111511
 20
76.55000000103792
 30
0.0
 10
-0.221519521733664
 20
76.5317296400056
 30
0.0
 10
-0.2257755971641727
 20
76.51345876475077
 30
0.0
 10
-0.2300294624719754
 20
76.49518737508515
 30
0.0
 11
-0.2172612406111511
 21
76.55000000103792
 31
0.0
 11
-0.2300294624719754
 21
76.49518737508515
 31
0.0
  0
SPLINE
  5
140
330
2F
100
AcDbEntity
  8
--4N-THT. MCB-MCCB-ACB
100
AcDbSpline
 70
1064
 71
3
 72
13
 73
9
 74
7
 42
1e-09
 12
-0.2267514288523948
 22
-0.9739526628709413
 32
0.0
 13
0.2346683889799869
 23
-0.9720754843187526
 33
0.0
 40
0.0
 40
0.0
 40
0.0
 40
0.0
 40
18.07949430722403
 40
36.16099870168323
 40
54.19657196241326
 40
72.24115044298858
 40
90.31195872020834
 40
108.4771734573685
 40
108.4771734573685
 40
108.4771734573685
 40
108.4771734573685
 10
-0.2300294624719754
 20
76.49518737508515
 30
0.0
 10
-1.596546518169237
 20
70.6256635004582
 30
0.0
 10
-3.875249906980212
 20
58.77477483741484
 30
0.0
 10
-5.902060737291284
 20
40.80590329373564
 30
0.0
 10
-6.531252043332871
 20
22.74477132588045
 30
0.0
 10
-5.761366886400541
 20
4.692633304520898
 30
0.0
 10
-3.591304586316653
 20
-13.28769860203642
 30
0.0
 10
-1.213190860055122
 20
-25.14473329454847
 30
0.0
 10
0.207743032559847
 20
-31.03071993234153
 30
0.0
 11
-0.2300294624719754
 21
76.49518737508515
 31
0.0
 11
-3.643554964591203
 21
58.74086513932161
 31
0.0
 11
-5.670407057691591
 21
40.77332018294145
 31
0.0
 11
-6.298237361589599
 21
22.74867782996626
 31
0.0
 11
-5.529483521900147
 21
4.720482410690237
 31
0.0
 11
-3.363925912471131
 21
-13.22009929761225
 31
0.0
 11
0.207743032559847
 21
-31.03071993234153
 31
0.0
  0
SPLINE
  5
141
330
2F
100
AcDbEntity
  8
--4N-THT. MCB-MCCB-ACB
100
AcDbSpline
 70
1064
 71
3
 72
10
 73
6
 74
4
 42
1e-09
 12
0.935441761770685
 22
0.3534808486118549
 32
0.0
 13
0.5006912174470685
 23
0.8656259612392481
 33
0.0
 40
0.0
 40
0.0
 40
0.0
 40
0.0
 40
0.0818036554141174
 40
0.2358401678791384
 40
0.4139346602954094
 40
0.4139346602954094
 40
0.4139346602954094
 40
0.4139346602954094
 10
-0.0061716018308289
 20
-31.38451167331187
 30
0.0
 10
0.0193359166824591
 20
-31.37487299813342
 30
0.0
 10
0.0453087698529829
 20
-31.28605363968275
 30
0.0
 10
0.125113423915135
 20
-31.18154365280414
 30
0.0
 10
0.177650071578351
 20
-31.0814705298403
 30
0.0
 10
0.2073735209878578
 20
-31.03008279111055
 30
0.0
 11
-0.0061716018308289
 21
-31.38451167331187
 31
0.0
 11
0.0396994443499352
 21
-31.31677922051859
 31
0.0
 11
0.1180022976504915
 21
-31.18412964329582
 31
0.0
 11
0.2073735209878578
 21
-31.03008279111055
 31
0.0
  0
SPLINE
  5
142
330
2F
100
AcDbEntity
  8
--4N-THT. MCB-MCCB-ACB
100
AcDbSpline
 70
1064
 71
3
 72
19
 73
15
 74
13
 42
1e-09
 12
0.9582035182720918
 22
0.2860874299422906
 32
0.0
 13
-0.7401900438627083
 23
-0.6723977237963572
 33
0.0
 40
0.0
 40
0.0
 40
0.0
 40
0.0
 40
1.135557204821844
 40
2.195745115780935
 40
3.168254596560266
 40
4.113261914378628
 40
5.080878143736716
 40
6.098373410273516
 40
7.170467687748641
 40
8.264950186211497
 40
9.34765994967581
 40
10.43750106583607
 40
11.5682461062602
 40
12.64214125411014
 40
12.64214125411014
 40
12.64214125411014
 40
12.64214125411014
 10
0.207743032559847
 20
-31.03071993234153
 30
0.0
 10
0.5704413355130185
 20
-30.92243038491488
 30
0.0
 10
1.30026814394404
 20
-30.79699022758373
 30
0.0
 10
2.362676511988145
 20
-30.86747767772088
 30
0.0
 10
3.322832984433879
 20
-31.14594737427743
 30
0.0
 10
4.178504209028776
 20
-31.59898829457905
 30
0.0
 10
4.936715388951758
 20
-32.22560929672682
 30
0.0
 10
5.573405847690163
 20
-33.03153157975113
 30
0.0
 10
6.035304022442897
 20
-33.99742015623684
 30
0.0
 10
6.268807543305348
 20
-35.06517121059902
 30
0.0
 10
6.250686844506812
 20
-36.16369357848322
 30
0.0
 10
5.978084190824574
 20
-37.24077761945172
 30
0.0
 10
5.462178783507208
 20
-38.2219947466703
 30
0.0
 10
4.972794717079805
 20
-38.78022078208373
 30
0.0
 10
4.707832551549472
 20
-39.02091566642048
 30
0.0
 11
0.207743032559847
 21
-31.03071993234153
 31
0.0
 11
1.327050199589393
 21
-30.83929989352873
 31
0.0
 11
2.384955147529581
 21
-30.90883785199367
 31
0.0
 11
3.318941653948968
 21
-31.17984319517382
 31
0.0
 11
4.154142442269403
 21
-31.62197267159354
 31
0.0
 11
4.899987356468955
 21
-32.23841125838044
 31
0.0
 11
5.530725505709597
 21
-33.03682594043312
 31
0.0
 11
5.993221908630403
 21
-34.00402975405268
 31
0.0
 11
6.227062810009556
 21
-35.07323991687554
 31
0.0
 11
6.209190818840397
 21
-36.15580216627859
 31
0.0
 11
5.941839694908594
 21
-37.21234229093352
 31
0.0
 11
5.415357732889788
 21
-38.21304259077988
 31
0.0
 11
4.707832551549472
 21
-39.02091566642048
 31
0.0
  0
SPLINE
  5
143
330
2F
100
AcDbEntity
  8
--4N-THT. MCB-MCCB-ACB
100
AcDbSpline
 70
1064
 71
3
 72
8
 73
4
 74
2
 42
1e-09
 12
-0.7401900414983836
 22
-0.6723977263990573
 32
0.0
 13
-0.7495783480001547
 23
-0.6619156292227576
 33
0.0
 40
0.0
 40
0.0
 40
0.0
 40
0.0
 40
0.0658809618955718
 40
0.0658809618955718
 40
0.0658809618955718
 40
0.0658809618955718
 10
4.707832551549472
 20
-39.02091566642048
 30
0.0
 10
4.69157774090966
 20
-39.03568173608434
 30
0.0
 10
4.675218771519237
 20
-39.05033395609999
 30
0.0
 10
4.658757790658455
 20
-39.06486983554896
 30
0.0
 11
4.707832551549472
 21
-39.02091566642048
 31
0.0
 11
4.658757790658455
 21
-39.06486983554896
 31
0.0
  0
SPLINE
  5
144
330
2F
100
AcDbEntity
  8
--4N-THT. MCB-MCCB-ACB
100
AcDbSpline
 70
1064
 71
3
 72
10
 73
6
 74
4
 42
1e-09
 12
-0.7496388029515029
 22
-0.6618471614424573
 32
0.0
 13
0.1326659308766255
 23
-0.991160809750183
 33
0.0
 40
0.0
 40
0.0
 40
0.0
 40
0.0
 40
0.0906619806846641
 40
0.1888856422382916
 40
0.2934424867239188
 40
0.2934424867239188
 40
0.2934424867239188
 40
0.2934424867239188
 10
4.658757790658455
 20
-39.06486983554896
 30
0.0
 10
4.636103211100567
 20
-39.08487129373792
 30
0.0
 10
4.594996316766915
 20
-39.13405449953059
 30
0.0
 10
4.558027596531077
 20
-39.22637599202582
 30
0.0
 10
4.555252098742317
 20
-39.29557528763153
 30
0.0
 10
4.559875809110053
 20
-39.33011950317996
 30
0.0
 11
4.658757790658455
 21
-39.06486983554896
 31
0.0
 11
4.600630027828628
 21
-39.13444539109878
 31
0.0
 11
4.564168269408583
 21
-39.22565080684762
 31
0.0
 11
4.559875809110053
 21
-39.33011950317996
 31
0.0
  0
SPLINE
  5
145
330
2F
100
AcDbEntity
  8
--4N-THT. MCB-MCCB-ACB
100
AcDbSpline
 70
1064
 71
3
 72
10
 73
6
 74
4
 42
1e-09
 12
-0.6680379091475582
 22
0.744127241768341
 32
0.0
 13
0.7498596979963236
 23
0.6615968812810884
 33
0.0
 40
0.0
 40
0.0
 40
0.0
 40
0.0
 40
0.1622922819501851
 40
0.2849522360785509
 40
0.3323906383965331
 40
0.3323906383965331
 40
0.3323906383965331
 40
0.3323906383965331
 10
4.658757790658455
 20
-39.06486983554896
 30
0.0
 10
4.622618658423526
 20
-39.024614466173
 30
0.0
 10
4.551756860958818
 20
-38.94846138068706
 30
0.0
 10
4.510332551814013
 20
-38.87251612625149
 30
0.0
 10
4.448493802678035
 20
-38.81048974335638
 30
0.0
 10
4.460351184689898
 20
-38.80002804368087
 30
0.0
 11
4.658757790658455
 21
-39.06486983554896
 31
0.0
 11
4.553367722051007
 21
-38.94145298815966
 31
0.0
 11
4.479825047189478
 21
-38.84328507425198
 31
0.0
 11
4.460351184689898
 21
-38.80002804368087
 31
0.0
  0
SPLINE
  5
146
330
2F
100
AcDbEntity
  8
--4N-THT. MCB-MCCB-ACB
100
AcDbSpline
 70
1064
 71
3
 72
11
 73
7
 74
5
 42
1e-09
 12
0.0677689951568871
 22
-0.9977010390369581
 32
0.0
 13
0.9999820220389315
 23
-0.0059962987692104
 33
0.0
 40
0.0
 40
0.0
 40
0.0
 40
0.0
 40
0.1959894436914529
 40
0.374463870345987
 40
0.52337462189328
 40
0.6424426883926884
 40
0.6424426883926884
 40
0.6424426883926884
 40
0.6424426883926884
 10
4.559875809110053
 20
-39.33011950317996
 30
0.0
 10
4.564303144996829
 20
-39.39529912705037
 30
0.0
 10
4.582682274676571
 20
-39.51963080027127
 30
0.0
 10
4.64236733222788
 20
-39.68473989468616
 30
0.0
 10
4.728970845396551
 20
-39.80974787950908
 30
0.0
 10
4.817500496822156
 20
-39.84976201088688
 30
0.0
 10
4.857189138788271
 20
-39.85000000012042
 30
0.0
 11
4.559875809110053
 21
-39.33011950317996
 31
0.0
 11
4.590205182040335
 21
-39.52374799069185
 31
0.0
 11
4.653516767369183
 21
-39.69061549541584
 31
0.0
 11
4.746044740809338
 21
-39.80729019729006
 31
0.0
 11
4.857189138788271
 21
-39.85000000012042
 31
0.0
  0
SPLINE
  5
147
330
2F
100
AcDbEntity
  8
--4N-THT. MCB-MCCB-ACB
100
AcDbSpline
 70
1064
 71
3
 72
10
 73
6
 74
4
 42
1e-09
 12
-0.9914128599931665
 22
-0.1307690370086522
 32
0.0
 13
-0.1339274330139692
 23
0.9909911415781117
 33
0.0
 40
0.0
 40
0.0
 40
0.0
 40
0.0
 40
0.1475404075438268
 40
0.2559139362301671
 40
0.2997764978605269
 40
0.2997764978605269
 40
0.2997764978605269
 40
0.2997764978605269
 10
4.559875811649362
 20
-39.3301098715001
 30
0.0
 10
4.511117992513502
 20
-39.33654111050489
 30
0.0
 10
4.419728736876066
 20
-39.3471606266409
 30
0.0
 10
4.338309749126416
 20
-39.34364667172904
 30
0.0
 10
4.265100558359365
 20
-39.34452771291373
 30
0.0
 10
4.263142424931174
 20
-39.33003857623953
 30
0.0
 11
4.559875811649362
 21
-39.3301098715001
 31
0.0
 11
4.413015434808585
 21
-39.34425913198902
 31
0.0
 11
4.304641907589939
 21
-39.34424129611398
 31
0.0
 11
4.263142424931174
 21
-39.33003857623953
 31
0.0
  0
SPLINE
  5
148
330
2F
100
AcDbEntity
  8
--4N-THT. MCB-MCCB-ACB
100
AcDbSpline
 70
1064
 71
3
 72
13
 73
9
 74
7
 42
1e-09
 12
0.0091126298336534
 22
-0.9999584791267659
 32
0.0
 13
0.966603135408059
 23
-0.2562779323689606
 33
0.0
 40
0.0
 40
0.0
 40
0.0
 40
0.0
 40
0.1044030708600564
 40
0.2238134579512809
 40
0.3595592370729598
 40
0.5127150108788486
 40
0.6844134340270231
 40
0.8760451571695753
 40
0.8760451571695753
 40
0.8760451571695753
 40
0.8760451571695753
 10
3.794887417828249
 20
-39.24999999868851
 30
0.0
 10
3.79520454667433
 20
-39.28479957733964
 30
0.0
 10
3.80785708436595
 20
-39.359691929938
 30
0.0
 10
3.862812195301495
 20
-39.46797646323229
 30
0.0
 10
3.954420416507166
 20
-39.57032718855325
 30
0.0
 10
4.078992154955895
 20
-39.66157021842249
 30
0.0
 10
4.233563762496048
 20
-39.7388549872357
 30
0.0
 10
4.348918813253018
 20
-39.77714065959292
 30
0.0
 10
4.410662754730765
 20
-39.79351098685402
 30
0.0
 11
3.794887417828249
 21
-39.24999999868851
 31
0.0
 11
3.811699047909314
 21
-39.35304062319665
 31
0.0
 11
3.864312127850098
 21
-39.46023532625805
 31
0.0
 11
3.953454525129018
 21
-39.56260988147915
 31
0.0
 11
4.076058209308939
 21
-39.654397830991
 31
0.0
 11
4.229076424989216
 21
-39.73228091119199
 31
0.0
 11
4.410662754730765
 21
-39.79351098685402
 31
0.0
  0
SPLINE
  5
149
330
2F
100
AcDbEntity
  8
--4N-THT. MCB-MCCB-ACB
100
AcDbSpline
 70
1064
 71
3
 72
9
 73
5
 74
3
 42
1e-09
 12
0.9666031348998638
 22
-0.2562779342857197
 32
0.0
 13
0.9999999909491711
 23
-0.000134542401065
 33
0.0
 40
0.0
 40
0.0
 40
0.0
 40
0.0
 40
0.2133783333996839
 40
0.4510146927220493
 40
0.4510146927220493
 40
0.4510146927220493
 40
0.4510146927220493
 10
4.410662754730765
 20
-39.79351098685402
 30
0.0
 10
4.479413476725379
 20
-39.81173903968901
 30
0.0
 10
4.627468861534178
 20
-39.84034857273942
 30
0.0
 10
4.777977019731085
 20
-39.84998934273163
 30
0.0
 10
4.857189138788271
 20
-39.85000000012042
 30
0.0
 11
4.410662754730765
 21
-39.79351098685402
 31
0.0
 11
4.620054642270588
 21
-39.83456400862997
 31
0.0
 11
4.857189138788271
 21
-39.85000000012042
 31
0.0
  0
SPLINE
  5
14A
330
2F
100
AcDbEntity
  8
--4N-THT. MCB-MCCB-ACB
100
AcDbSpline
 70
1064
 71
3
 72
11
 73
7
 74
5
 42
1e-09
 12
0.666248088636312
 22
-0.7457301686189592
 32
0.0
 13
-0.7499999985834119
 23
-0.6614378293724077
 33
0.0
 40
0.0
 40
0.0
 40
0.0
 40
0.0
 40
0.1790252009797542
 40
0.3307952961740463
 40
0.4322057146154142
 40
0.4678281455952492
 40
0.4678281455952492
 40
0.4678281455952492
 40
0.4678281455952492
 10
4.150895270709042
 20
-38.4491419788792
 30
0.0
 10
4.19065367003254
 20
-38.49364347665042
 30
0.0
 10
4.259033683776854
 20
-38.5754954864657
 30
0.0
 10
4.37216156108604
 20
-38.68493621556988
 30
0.0
 10
4.401046308718416
 20
-38.75401438977027
 30
0.0
 10
4.469232050278606
 20
-38.79214599172734
 30
0.0
 10
4.460326442550467
 20
-38.79999999953543
 30
0.0
 11
4.150895270709042
 21
-38.4491419788792
 31
0.0
 11
4.269999571489279
 21
-38.58279895820124
 31
0.0
 11
4.370628907951868
 21
-38.69641189073263
 31
0.0
 11
4.437463153250973
 21
-38.77268283293052
 31
0.0
 11
4.460326442550467
 21
-38.79999999953543
 31
0.0
  0
SPLINE
  5
14B
330
2F
100
AcDbEntity
  8
--4N-THT. MCB-MCCB-ACB
100
AcDbSpline
 70
1064
 71
3
 72
10
 73
6
 74
4
 42
1e-09
 12
-0.2239562699895251
 22
-0.9745991940959005
 32
0.0
 13
-0.9754201321243428
 23
0.2203532750982609
 33
0.0
 40
0.0
 40
0.0
 40
0.0
 40
0.0
 40
0.135050475533918
 40
0.2310088045731866
 40
0.2658425346418913
 40
0.2658425346418913
 40
0.2658425346418913
 40
0.2658425346418913
 10
45.14092731131768
 20
-32.70702877681106
 30
0.0
 10
45.13084551106405
 20
-32.75090213835027
 30
0.0
 10
45.11788602525408
 20
-32.83559557215077
 30
0.0
 10
45.08310490826811
 20
-32.89438370566757
 30
0.0
 10
45.0859404701374
 20
-32.96689573533554
 30
0.0
 10
45.07461462960873
 20
-32.96433715983403
 30
0.0
 11
45.14092731131768
 21
-32.70702877681106
 31
0.0
 11
45.10979256789051
 21
-32.83844132831837
 31
0.0
 11
45.08584498815162
 21
-32.93136341577156
 31
0.0
 11
45.07461462960873
 21
-32.96433715983403
 31
0.0
  0
SPLINE
  5
14C
330
2F
100
AcDbEntity
  8
--4N-THT. MCB-MCCB-ACB
100
AcDbSpline
 70
1064
 71
3
 72
11
 73
7
 74
5
 42
1e-09
 12
0.9999850520011175
 22
0.0054677028377777
 32
0.0
 13
3.406353502e-07
 23
-0.999999999999942
 33
0.0
 40
0.0
 40
0.0
 40
0.0
 40
0.0
 40
0.1769158661932279
 40
0.3268977936797153
 40
0.4271131435728712
 40
0.4623125585818387
 40
0.4623125585818387
 40
0.4623125585818387
 40
0.4623125585818387
 10
3.794887417828249
 20
-39.24999999868851
 30
0.0
 10
3.853858491713268
 20
-39.24967755756063
 30
0.0
 10
3.95921978131468
 20
-39.25261655890995
 30
0.0
 10
4.114282264981921
 20
-39.24024821843445
 30
0.0
 10
4.184352772911072
 20
-39.26419189771165
 30
0.0
 10
4.257189135911683
 20
-39.23826686035218
 30
0.0
 10
4.257189139908405
 20
-39.24999999868851
 30
0.0
 11
3.794887417828249
 21
-39.24999999868851
 31
0.0
 11
3.971801587750633
 21
-39.24922527836861
 31
0.0
 11
4.12178326898811
 21
-39.24895349584222
 31
0.0
 11
4.221998250180149
 21
-39.24922533933932
 31
0.0
 11
4.257189139908405
 21
-39.24999999868851
 31
0.0
  0
SPLINE
  5
14D
330
2F
100
AcDbEntity
  8
--4N-THT. MCB-MCCB-ACB
100
AcDbSpline
 70
1064
 71
3
 72
8
 73
4
 74
2
 42
1e-09
 12
0.9752461711529026
 22
-0.2211219248550524
 32
0.0
 13
0.9733135789516143
 23
-0.2294791429049696
 33
0.0
 40
0.0
 40
0.0
 40
0.0
 40
0.0
 40
0.0246287554715174
 40
0.0246287554715174
 40
0.0246287554715174
 40
0.0246287554715174
 10
45.14092731131768
 20
-32.70702982837793
 30
0.0
 10
45.14893367780897
 20
-32.70884514765015
 30
0.0
 10
45.15693232521831
 20
-32.71069485238
 30
0.0
 10
45.16492282592935
 20
-32.71257878094548
 30
0.0
 11
45.14092731131768
 21
-32.70702982837793
 31
0.0
 11
45.16492282592935
 21
-32.71257878094548
 31
0.0
  0
SPLINE
  5
14E
330
2F
100
AcDbEntity
  8
--4N-THT. MCB-MCCB-ACB
100
AcDbSpline
 70
1064
 71
3
 72
17
 73
13
 74
11
 42
1e-09
 12
0.9733135878412031
 22
-0.2294791052006357
 32
0.0
 13
-0.9711114845734831
 23
-0.2386262444273169
 33
0.0
 40
0.0
 40
0.0
 40
0.0
 40
0.0
 40
0.6847218302060188
 40
1.453872075480304
 40
2.248589465435673
 40
3.049700778287889
 40
3.847089063606668
 40
4.642256862552134
 40
5.439950731573945
 40
6.238165918642937
 40
7.024875078704353
 40
7.721411773956165
 40
7.721411773956165
 40
7.721411773956165
 40
7.721411773956165
 10
45.16492282592935
 20
-32.71257878094548
 30
0.0
 10
45.38707251300635
 20
-32.76495523191448
 30
0.0
 10
45.84729761714844
 20
-32.93276149513441
 30
0.0
 10
46.47246485726733
 20
-33.36178097748553
 30
0.0
 10
46.98630808992922
 20
-33.97282983726535
 30
0.0
 10
47.31817981774122
 20
-34.70952406563237
 30
0.0
 10
47.4366730856175
 20
-35.50882860433711
 30
0.0
 10
47.33376282076916
 20
-36.30906409258606
 30
0.0
 10
47.01721057491726
 20
-37.05157715899021
 30
0.0
 10
46.5120917178315
 20
-37.67762321572194
 30
0.0
 10
45.88473171887089
 20
-38.1236420659769
 30
0.0
 10
45.41704505823902
 20
-38.30029590372323
 30
0.0
 10
45.19157346351039
 20
-38.35569988228781
 30
0.0
 11
45.16492282592935
 21
-32.71257878094548
 31
0.0
 11
45.80814819936949
 21
-32.94732354387634
 31
0.0
 11
46.44237378892921
 21
-33.38246719987183
 31
0.0
 11
46.9538116179674
 21
-33.99074927007132
 31
0.0
 11
47.28289576295082
 21
-34.72114844935641
 31
0.0
 11
47.39982962102931
 21
-35.50991619108936
 31
0.0
 11
47.29840982641053
 21
-36.29858966835309
 31
0.0
 11
46.98553672088837
 21
-37.03236478956933
 31
0.0
 11
46.48433411141832
 21
-37.6536082435614
 31
0.0
 11
45.84310697883029
 21
-38.10939225705624
 31
0.0
 11
45.19157346351039
 21
-38.35569988228781
 31
0.0
  0
SPLINE
  5
14F
330
2F
100
AcDbEntity
  8
--4N-THT. MCB-MCCB-ACB
100
AcDbSpline
 70
1064
 71
3
 72
8
 73
4
 74
2
 42
1e-09
 12
-0.9711114852828758
 22
-0.2386262415403779
 32
0.0
 13
-0.9752861113574041
 23
-0.2209456969333258
 33
0.0
 40
0.0
 40
0.0
 40
0.0
 40
0.0
 40
0.0520388419810256
 40
0.0520388419810256
 40
0.0520388419810256
 40
0.0520388419810256
 10
45.19157346351039
 20
-38.35569988228781
 30
0.0
 10
45.17472829113419
 20
-38.35983916004649
 30
0.0
 10
45.15784489792942
 20
-38.36382590578607
 30
0.0
 10
45.14092731131768
 20
-38.36765849185577
 30
0.0
 11
45.19157346351039
 21
-38.35569988228781
 31
0.0
 11
45.14092731131768
 21
-38.36765849185577
 31
0.0
  0
SPLINE
  5
150
330
2F
100
AcDbEntity
  8
--4N-THT. MCB-MCCB-ACB
100
AcDbSpline
 70
1064
 71
3
 72
10
 73
6
 74
4
 42
1e-09
 12
0.2239600288319185
 22
-0.9745983303318378
 32
0.0
 13
0.9752781388270411
 23
0.2209808858839664
 33
0.0
 40
0.0
 40
0.0
 40
0.0
 40
0.0
 40
0.1350353393314531
 40
0.2309787282504576
 40
0.2658048992021514
 40
0.2658048992021514
 40
0.2658048992021514
 40
0.2658048992021514
 10
29.55907268895044
 20
-32.70702990203972
 30
0.0
 10
29.5691535284471
 20
-32.7508983074558
 30
0.0
 10
29.58211297254522
 20
-32.83558625123097
 30
0.0
 10
29.61688532608354
 20
-32.89435107145961
 30
0.0
 10
29.61405555651428
 20
-32.9668667941075
 30
0.0
 10
29.62537729091037
 20
-32.96430148807122
 30
0.0
 11
29.55907268895044
 21
-32.70702990203972
 31
0.0
 11
29.590204440251
 21
-32.83842760723019
 31
0.0
 11
29.61414876624895
 21
-32.93133510493499
 31
0.0
 11
29.62537729091037
 21
-32.96430148807122
 31
0.0
  0
SPLINE
  5
151
330
2F
100
AcDbEntity
  8
--4N-THT. MCB-MCCB-ACB
100
AcDbSpline
 70
1064
 71
3
 72
10
 73
6
 74
4
 42
1e-09
 12
0.9752460028475443
 22
0.2211226671553321
 32
0.0
 13
0.9752480676966202
 23
-0.2211135600862338
 33
0.0
 40
0.0
 40
0.0
 40
0.0
 40
0.0
 40
5.226204823375559
 40
10.47204622184216
 40
15.69729701497286
 40
15.69729701497286
 40
15.69729701497286
 40
15.69729701497286
 10
29.55907268895044
 20
-32.70702982837793
 30
0.0
 10
31.25801781030363
 20
-32.32181904516297
 30
0.0
 10
34.72531078425344
 20
-31.80198600388439
 30
0.0
 10
39.97533059967555
 20
-31.80203372877934
 30
0.0
 10
43.44228873157403
 20
-32.32190522664041
 30
0.0
 10
45.14092731131768
 20
-32.70702982837793
 30
0.0
 11
29.55907268895044
 21
-32.70702982837793
 31
0.0
 11
34.72755675124882
 21
-31.93244003136169
 31
0.0
 11
39.9733981493091
 21
-31.93250532204911
 31
0.0
 11
45.14092731131768
 21
-32.70702982837793
 31
0.0
  0
SPLINE
  5
152
330
2F
100
AcDbEntity
  8
--4N-THT. MCB-MCCB-ACB
100
AcDbSpline
 70
1064
 71
3
 72
10
 73
6
 74
4
 42
1e-09
 12
0.2246948709039547
 22
0.9744291739215606
 32
0.0
 13
-0.9755110861058653
 23
0.2199502691168049
 33
0.0
 40
0.0
 40
0.0
 40
0.0
 40
0.0
 40
0.1656732725736898
 40
0.2916475379771658
 40
0.3387365247631504
 40
0.3387365247631504
 40
0.3387365247631504
 40
0.3387365247631504
 10
29.55907268895044
 20
-38.36765684340026
 30
0.0
 10
29.57148133381483
 20
-38.3138445533553
 30
0.0
 10
29.60296948100673
 20
-38.21070696104089
 30
0.0
 10
29.59525365135359
 20
-38.12420028943224
 30
0.0
 10
29.64070111083182
 20
-38.03909851202224
 30
0.0
 10
29.62538916795074
 20
-38.03564610025023
 30
0.0
 11
29.55907268895044
 21
-38.36765684340026
 31
0.0
 11
29.59495095094917
 21
-38.20591512472129
 31
0.0
 11
29.61962589016821
 21
-38.08238106901809
 31
0.0
 11
29.62538916795074
 21
-38.03564610025023
 31
0.0
  0
SPLINE
  5
153
330
2F
100
AcDbEntity
  8
--4N-THT. MCB-MCCB-ACB
100
AcDbSpline
 70
1064
 71
3
 72
8
 73
4
 74
2
 42
1e-09
 12
-0.975237929334205
 22
0.2211582718053568
 32
0.0
 13
-0.9710942448916142
 23
0.2386963919676743
 33
0.0
 40
0.0
 40
0.0
 40
0.0
 40
0.0
 40
0.0517684580833842
 40
0.0517684580833842
 40
0.0517684580833842
 40
0.0517684580833842
 10
29.55907268895044
 20
-38.36765849185577
 30
0.0
 10
29.54224383432842
 20
-38.36384215094785
 30
0.0
 10
29.52544875597964
 20
-38.35987371244851
 30
0.0
 10
29.50869140540908
 20
-38.3557547310611
 30
0.0
 11
29.55907268895044
 21
-38.36765849185577
 31
0.0
 11
29.50869140540908
 21
-38.3557547310611
 31
0.0
  0
SPLINE
  5
154
330
2F
100
AcDbEntity
  8
--4N-THT. MCB-MCCB-ACB
100
AcDbSpline
 70
1064
 71
3
 72
17
 73
13
 74
11
 42
1e-09
 12
-0.9710942419197113
 22
0.2386964040583379
 32
0.0
 13
0.9733165980601324
 23
0.2294663372711792
 33
0.0
 40
0.0
 40
0.0
 40
0.0
 40
0.0
 40
0.6919697744261966
 40
1.480347453336099
 40
2.277799759618432
 40
3.07398401833811
 40
3.867540673820667
 40
4.663142145937555
 40
5.463395468251477
 40
6.259044074220615
 40
7.029106592922356
 40
7.721349481945209
 40
7.721349481945209
 40
7.721349481945209
 40
7.721349481945209
 10
29.50869140540908
 20
-38.3557547310611
 30
0.0
 10
29.28470211756649
 20
-38.30069783210357
 30
0.0
 10
28.81783476632302
 20
-38.12489677179086
 30
0.0
 10
28.19082627838506
 20
-37.68039363090497
 30
0.0
 10
27.68507204837268
 20
-37.05516546564645
 30
0.0
 10
27.36784738677311
 20
-36.3144035042431
 30
0.0
 10
27.26342149778537
 20
-35.51607788217166
 30
0.0
 10
27.37949368070232
 20
-34.71791634024658
 30
0.0
 10
27.70874343229434
 20
-33.98071067471917
 30
0.0
 10
28.22084356082747
 20
-33.36771988359365
 30
0.0
 10
28.84737824273909
 20
-32.93512470400667
 30
0.0
 10
29.31014491433457
 20
-32.76560449541206
 30
0.0
 10
29.53473541225958
 20
-32.7126556819967
 30
0.0
 11
29.50869140540908
 21
-38.3557547310611
 31
0.0
 11
28.86121246668972
 21
-38.11163756117276
 31
0.0
 11
28.21799537111019
 21
-37.65577449778902
 31
0.0
 11
27.71650124328971
 21
-37.03574722374651
 31
0.0
 11
27.4030299957094
 21
-36.3038693987146
 31
0.0
 11
27.30010867755027
 21
-35.51701530313585
 31
0.0
 11
27.41460726999048
 21
-34.72969594305141
 31
0.0
 11
27.74098620575114
 21
-33.99902353344078
 31
0.0
 11
28.25105927754976
 21
-33.38838275065064
 31
0.0
 11
28.8847807355296
 21
-32.95089744071993
 31
0.0
 11
29.53473541225958
 21
-32.7126556819967
 31
0.0
  0
SPLINE
  5
155
330
2F
100
AcDbEntity
  8
--4N-THT. MCB-MCCB-ACB
100
AcDbSpline
 70
1064
 71
3
 72
8
 73
4
 74
2
 42
1e-09
 12
0.9733165937600883
 22
0.2294663555104738
 32
0.0
 13
0.9752801103923348
 23
0.2209721843877982
 33
0.0
 40
0.0
 40
0.0
 40
0.0
 40
0.0
 40
0.0249790565407736
 40
0.0249790565407736
 40
0.0249790565407736
 40
0.0249790565407736
 10
29.53473541225958
 20
-32.7126556819967
 30
0.0
 10
29.54283958900211
 20
-32.71074506430719
 30
0.0
 10
29.55095216327691
 20
-32.70886972060718
 30
0.0
 10
29.55907268895044
 20
-32.70702982837793
 30
0.0
 11
29.53473541225958
 21
-32.7126556819967
 31
0.0
 11
29.55907268895044
 21
-32.70702982837793
 31
0.0
  0
SPLINE
  5
156
330
2F
100
AcDbEntity
  8
--4N-THT. MCB-MCCB-ACB
100
AcDbSpline
 70
1064
 71
3
 72
10
 73
6
 74
4
 42
1e-09
 12
-0.2246893692858267
 22
0.9744304425303726
 32
0.0
 13
0.975316193122233
 23
0.2208128697190337
 33
0.0
 40
0.0
 40
0.0
 40
0.0
 40
0.0
 40
0.1656513839913377
 40
0.2916025121845554
 40
0.3386845662326007
 40
0.3386845662326007
 40
0.3386845662326007
 40
0.3386845662326007
 10
45.14092731131768
 20
-38.36765857313003
 30
0.0
 10
45.12852060965424
 20
-38.31385332266055
 30
0.0
 10
45.09703969228531
 20
-38.21074046148743
 30
0.0
 10
45.10474812915576
 20
-38.12422016023518
 30
0.0
 10
45.05931606166369
 20
-38.03916387048584
 30
0.0
 10
45.07462269156985
 20
-38.03569842933029
 30
0.0
 11
45.14092731131768
 21
-38.36765857313003
 31
0.0
 11
45.10505456872943
 21
-38.20593805075441
 31
0.0
 11
45.08038479333026
 21
-38.08242655786853
 31
0.0
 11
45.07462269156985
 21
-38.03569842933029
 31
0.0
  0
SPLINE
  5
157
330
2F
100
AcDbEntity
  8
--4N-THT. MCB-MCCB-ACB
100
AcDbSpline
 70
1064
 71
3
 72
10
 73
6
 74
4
 42
1e-09
 12
-0.9752461564618929
 22
-0.2211219896489377
 32
0.0
 13
-0.9752482368238373
 23
0.2211128141288887
 33
0.0
 40
0.0
 40
0.0
 40
0.0
 40
0.0
 40
5.227171179316924
 40
10.47100586087001
 40
15.69729700485116
 40
15.69729700485116
 40
15.69729700485116
 40
15.69729700485116
 10
45.14092731131768
 20
-38.36765849185577
 30
0.0
 10
43.44166777738528
 20
-38.75293932232448
 30
0.0
 10
39.97470447940953
 20
-39.2726753058853
 30
0.0
 10
34.72470372850303
 20
-39.27263271693473
 30
0.0
 10
31.25804976338232
 20
-38.75285847262328
 30
0.0
 10
29.55907268895044
 20
-38.36765849185577
 30
0.0
 11
45.14092731131768
 21
-38.36765849185577
 31
0.0
 11
39.97147690092879
 21
-39.14232034867564
 31
0.0
 11
34.72764221971829
 21
-39.14226040721223
 31
0.0
 11
29.55907268895044
 21
-38.36765849185577
 31
0.0
  0
SPLINE
  5
158
330
2F
100
AcDbEntity
  8
--4N-THT. MCB-MCCB-ACB
100
AcDbSpline
 70
1064
 71
3
 72
14
 73
10
 74
8
 42
1e-09
 12
-0.7457271107057613
 22
-0.6662515113367005
 32
0.0
 13
0.0054137492198022
 23
-0.999985345552316
 33
0.0
 40
0.0
 40
0.0
 40
0.0
 40
0.0
 40
0.128983130682796
 40
0.2579560107986862
 40
0.3869147324757672
 40
0.5158627186761493
 40
0.6447903311210467
 40
0.7737195319990934
 40
0.902635078403922
 40
0.902635078403922
 40
0.902635078403922
 40
0.902635078403922
 10
4.15089721888853
 20
-38.44914023897946
 30
0.0
 10
4.118835146430575
 20
-38.47778530756424
 30
0.0
 10
4.058113243581331
 20
-38.53901452264289
 30
0.0
 10
3.978828113723219
 20
-38.64111700504906
 30
0.0
 10
3.91243462533013
 20
-38.75204469991615
 30
0.0
 10
3.859925089836605
 20
-38.87015630156186
 30
0.0
 10
3.822061954557495
 20
-38.99374054586689
 30
0.0
 10
3.799402331127418
 20
-39.12096270108379
 30
0.0
 10
3.794654779015326
 20
-39.20702877961561
 30
0.0
 10
3.794887417828249
 20
-39.24999999868851
 30
0.0
 11
4.15089721888853
 21
-38.44914023897946
 31
0.0
 11
4.060076615668549
 21
-38.54072771646134
 31
0.0
 11
3.980972953710988
 21
-38.64259338521333
 31
0.0
 11
3.914745826829857
 21
-38.75324743873898
 31
0.0
 11
3.862363162989822
 21
-38.87107629630009
 31
0.0
 11
3.824595552469872
 21
-38.99434809699414
 31
0.0
 11
3.801991470168104
 21
-39.12128033995214
 31
0.0
 11
3.794887417828249
 21
-39.24999999868851
 31
0.0
  0
SPLINE
  5
159
330
2F
100
AcDbEntity
  8
--4N-THT. MCB-MCCB-ACB
100
AcDbSpline
 70
1064
 71
3
 72
41
 73
37
 74
35
 42
1e-09
 12
0.9242540183344748
 22
0.3817780894611113
 32
0.0
 13
-0.745732745701136
 23
-0.6662452041020971
 33
0.0
 40
0.0
 40
0.0
 40
0.0
 40
0.0
 40
0.314797486142832
 40
0.6298931494705206
 40
0.9452877461044071
 40
1.260984018930207
 40
1.576981184611257
 40
1.893278899001135
 40
2.209879089394123
 40
2.526780025558563
 40
2.84398025867055
 40
3.161480973369469
 40
3.479279437049095
 40
3.7973731266648
 40
4.11576244456037
 40
4.434443652850248
 40
4.753413202288937
 40
5.072670608812833
 40
5.392211207647863
 40
5.712030367747495
 40
6.032126748465988
 40
6.352494733957041
 40
6.673128613487973
 40
6.994026162001589
 40
7.315180817460736
 40
7.636585783497435
 40
7.958237955986709
 40
8.280129746068395
 40
8.602253561237807
 40
8.92460487188446
 40
9.247175786229462
 40
9.569956320963946
 40
9.892943892648011
 40
10.21612331466946
 40
10.53949824729881
 40
10.86305177366314
 40
10.86305177366314
 40
10.86305177366314
 40
10.86305177366314
 10
0.1311291903684832
 20
-31.95034268795098
 30
0.0
 10
0.2281134708781844
 20
-31.91028176034206
 30
0.0
 10
0.425569639591638
 20
-31.83807451280548
 30
0.0
 10
0.7297211023078485
 20
-31.75446344537824
 30
0.0
 10
1.040031837749621
 20
-31.69607420651427
 30
0.0
 10
1.35438634131246
 20
-31.66336609780474
 30
0.0
 10
1.670668716336768
 20
-31.65661050543592
 30
0.0
 10
1.986736089938021
 20
-31.67590708118599
 30
0.0
 10
2.30044403436207
 20
-31.72117849108647
 30
0.0
 10
2.609658099658197
 20
-31.79217070240127
 30
0.0
 10
2.91226943286025
 20
-31.88845390607362
 30
0.0
 10
3.206208638042789
 20
-32.00942583097813
 30
0.0
 10
3.489460291059944
 20
-32.15431425917021
 30
0.0
 10
3.760077036217094
 20
-32.32218199672441
 30
0.0
 10
4.016192558527339
 20
-32.51193346661771
 30
0.0
 10
4.25603507976439
 20
-32.72232078178908
 30
0.0
 10
4.477939856541278
 20
-32.95195206031339
 30
0.0
 10
4.680360284949337
 20
-33.19930108452824
 30
0.0
 10
4.861879510143879
 20
-33.46271657542439
 30
0.0
 10
5.021220545995968
 20
-33.74043344271817
 30
0.0
 10
5.157254754328409
 20
-34.03058491475756
 30
0.0
 10
5.269010882967328
 20
-34.33121448476012
 30
0.0
 10
5.355682068523627
 20
-34.64028941924782
 30
0.0
 10
5.416631173127301
 20
-34.95571467944262
 30
0.0
 10
5.451396599424493
 20
-35.27534683570395
 30
0.0
 10
5.459695702566968
 20
-35.59700898751095
 30
0.0
 10
5.441426672381256
 20
-35.91850563566922
 30
0.0
 10
5.396670630950507
 20
-36.23763784091953
 30
0.0
 10
5.325691338936308
 20
-36.55221835082308
 30
0.0
 10
5.22893300904065
 20
-36.86008698890404
 30
0.0
 10
5.107018899944978
 20
-37.15912498800483
 30
0.0
 10
4.960746029079257
 20
-37.44727171001466
 30
0.0
 10
4.791084208277167
 20
-37.72253429646364
 30
0.0
 10
4.599157512461845
 20
-37.98301648996571
 30
0.0
 10
4.386275291574757
 20
-38.22689286128296
 30
0.0
 10
4.231325372087515
 20
-38.37728491057594
 30
0.0
 10
4.15089721888853
 20
-38.44914023897946
 30
0.0
 11
0.1311291903684832
 21
-31.95034268795098
 31
0.0
 11
0.4267787768703784
 21
-31.84222802991099
 31
0.0
 11
0.730601872560328
 21
-31.75870076745559
 31
0.0
 11
1.040556690791163
 21
-31.70037613936984
 31
0.0
 11
1.35455743438888
 21
-31.66770092405022
 31
0.0
 11
1.670482469288799
 21
-31.66094955071276
 31
0.0
 11
1.986192561768802
 21
-31.68022081518939
 31
0.0
 11
2.299547175090083
 21
-31.72543770215816
 31
0.0
 11
2.608413110568108
 21
-31.7963463563774
 31
0.0
 11
2.910683069908372
 21
-31.89251734767277
 31
0.0
 11
3.204292104231171
 21
-32.01334962315559
 31
0.0
 11
3.487225754769497
 21
-32.15807146984844
 31
0.0
 11
3.757538023387496
 21
-32.32574637198923
 31
0.0
 11
4.013366752270485
 21
-32.51528111610787
 31
0.0
 11
4.252940923869573
 21
-32.72542851394974
 31
0.0
 11
4.474596916940754
 21
-32.95479763611911
 31
0.0
 11
4.676791625567602
 21
-33.20186562559502
 31
0.0
 11
4.858108778810674
 21
-33.46498210976824
 31
0.0
 11
5.017272186670197
 21
-33.74238309167959
 31
0.0
 11
5.153155841749139
 21
-34.03220601215253
 31
0.0
 11
5.264788823968956
 21
-34.33249541157966
 31
0.0
 11
5.351364751909386
 21
-34.64121971156965
 31
0.0
 11
5.412248031209855
 21
-34.95628869281609
 31
0.0
 11
5.446977118469476
 21
-35.27556005579936
 31
0.0
 11
5.455269565690286
 21
-35.59685802888998
 31
0.0
 11
5.437023866849813
 21
-35.9179922913736
 31
0.0
 11
5.392320938729426
 21
-36.23676489486934
 31
0.0
 11
5.321424359669435
 21
-36.55099001699819
 31
0.0
 11
5.224777529850143
 21
-36.85851198005366
 31
0.0
 11
5.103002805150936
 21
-37.15721402424788
 31
0.0
 11
4.956898136731069
 21
-37.44503462717512
 31
0.0
 11
4.7874276374705
 21
-37.71999048061843
 31
0.0
 11
4.595725389440303
 21
-37.98017346799134
 31
0.0
 11
4.383069581569543
 21
-38.22378967113036
 31
0.0
 11
4.15089721888853
 21
-38.44914023897946
 31
0.0
  0
LWPOLYLINE
  5
15A
330
2F
100
AcDbEntity
  8
--4N-THT. MCB-MCCB-ACB
100
AcDbPolyline
 90
4
 70
1
 10
92.49999999990814
 20
127.5000000007567
 10
-92.49999999990814
 20
127.5000000007567
 10
-92.49999999990814
 20
-127.5000000007585
 10
92.49999999990814
 20
-127.5000000007585
  0
LWPOLYLINE
  5
15B
330
2F
100
AcDbEntity
  8
--4N-THT. MCB-MCCB-ACB
 62
1
100
AcDbPolyline
 90
4
 70
1
 10
-38.99999999958982
 20
83.1500303029712
 10
84.00000762776016
 20
83.1500303029712
 10
84.00000762776016
 20
-39.84998279568208
 10
-38.99999999958982
 20
-39.84998279568208
  0
CIRCLE
  5
15C
330
2F
100
AcDbEntity
  8
--8N-THT. FIXING HOLE
100
AcDbCircle
 10
1.2687451e-09
 20
99.99999999958891
 30
0.0
 40
2.0
  0
CIRCLE
  5
15D
330
2F
100
AcDbEntity
  8
--8N-THT. FIXING HOLE
100
AcDbCircle
 10
45.00000000108866
 20
99.99999999958891
 30
0.0
 40
2.0
  0
CIRCLE
  5
15E
330
2F
100
AcDbEntity
  8
--4N-THT. MCB-MCCB-ACB
100
AcDbCircle
 10
-22.49999999990996
 20
113.4999999997944
 30
0.0
 40
5.0
  0
CIRCLE
  5
15F
330
2F
100
AcDbEntity
  8
--4N-THT. MCB-MCCB-ACB
100
AcDbCircle
 10
22.49999999990814
 20
113.4999999997944
 30
0.0
 40
5.0
  0
CIRCLE
  5
160
330
2F
100
AcDbEntity
  8
--4N-THT. MCB-MCCB-ACB
100
AcDbCircle
 10
67.49999999972988
 20
113.4999999997944
 30
0.0
 40
5.0
  0
LINE
  5
161
330
2F
100
AcDbEntity
  8
--4N-THT. MCB-MCCB-ACB
100
AcDbLine
 10
-35.00000000011005
 20
127.5000000007585
 30
0.0
 11
-35.00000000011005
 21
100.000043913451
 31
0.0
  0
LINE
  5
162
330
2F
100
AcDbEntity
  8
--4N-THT. MCB-MCCB-ACB
100
AcDbLine
 10
-35.00000000011005
 20
100.000043913451
 30
0.0
 11
-9.999999999700776
 21
100.000043913451
 31
0.0
  0
LINE
  5
163
330
2F
100
AcDbEntity
  8
--4N-THT. MCB-MCCB-ACB
100
AcDbLine
 10
-9.999999999700776
 20
100.000043913451
 30
0.0
 11
-9.999999999700776
 21
127.5000000007585
 31
0.0
  0
LINE
  5
164
330
2F
100
AcDbEntity
  8
--4N-THT. MCB-MCCB-ACB
100
AcDbLine
 10
9.999999999708052
 20
127.5000000007585
 30
0.0
 11
9.999999999708052
 21
100.000043913451
 31
0.0
  0
LINE
  5
165
330
2F
100
AcDbEntity
  8
--4N-THT. MCB-MCCB-ACB
100
AcDbLine
 10
9.999999999708052
 20
100.000043913451
 30
0.0
 11
35.00000000011733
 21
100.000043913451
 31
0.0
  0
LINE
  5
166
330
2F
100
AcDbEntity
  8
--4N-THT. MCB-MCCB-ACB
100
AcDbLine
 10
35.00000000011733
 20
100.000043913451
 30
0.0
 11
35.00000000011733
 21
127.5000000007585
 31
0.0
  0
LINE
  5
167
330
2F
100
AcDbEntity
  8
--4N-THT. MCB-MCCB-ACB
100
AcDbLine
 10
54.99999999952979
 20
127.5000000007585
 30
0.0
 11
54.99999999952979
 21
100.000043913451
 31
0.0
  0
LINE
  5
168
330
2F
100
AcDbEntity
  8
--4N-THT. MCB-MCCB-ACB
100
AcDbLine
 10
54.99999999952979
 20
100.000043913451
 30
0.0
 11
79.99999999993906
 21
100.000043913451
 31
0.0
  0
LINE
  5
169
330
2F
100
AcDbEntity
  8
--4N-THT. MCB-MCCB-ACB
100
AcDbLine
 10
79.99999999993906
 20
100.000043913451
 30
0.0
 11
79.99999999993906
 21
127.5000000007585
 31
0.0
  0
CIRCLE
  5
16A
330
2F
100
AcDbEntity
  8
--8N-THT. FIXING HOLE
100
AcDbCircle
 10
1.2687451e-09
 20
-99.99999999958891
 30
0.0
 40
2.0
  0
CIRCLE
  5
16B
330
2F
100
AcDbEntity
  8
--8N-THT. FIXING HOLE
100
AcDbCircle
 10
45.00000000108866
 20
-99.99999999958891
 30
0.0
 40
2.0
  0
CIRCLE
  5
16C
330
2F
100
AcDbEntity
  8
--4N-THT. MCB-MCCB-ACB
100
AcDbCircle
 10
-22.49999999990996
 20
-113.4999999997944
 30
0.0
 40
5.0
  0
CIRCLE
  5
16D
330
2F
100
AcDbEntity
  8
--4N-THT. MCB-MCCB-ACB
100
AcDbCircle
 10
22.49999999990814
 20
-113.4999999997944
 30
0.0
 40
5.0
  0
CIRCLE
  5
16E
330
2F
100
AcDbEntity
  8
--4N-THT. MCB-MCCB-ACB
100
AcDbCircle
 10
67.49999999972988
 20
-113.4999999997944
 30
0.0
 40
5.0
  0
LINE
  5
16F
330
2F
100
AcDbEntity
  8
--4N-THT. MCB-MCCB-ACB
100
AcDbLine
 10
-35.00000000011005
 20
-127.5000000007585
 30
0.0
 11
-35.00000000011005
 21
-100.000043913451
 31
0.0
  0
LINE
  5
170
330
2F
100
AcDbEntity
  8
--4N-THT. MCB-MCCB-ACB
100
AcDbLine
 10
-35.00000000011005
 20
-100.000043913451
 30
0.0
 11
-9.999999999700776
 21
-100.000043913451
 31
0.0
  0
LINE
  5
171
330
2F
100
AcDbEntity
  8
--4N-THT. MCB-MCCB-ACB
100
AcDbLine
 10
-9.999999999700776
 20
-100.000043913451
 30
0.0
 11
-9.999999999700776
 21
-127.5000000007585
 31
0.0
  0
LINE
  5
172
330
2F
100
AcDbEntity
  8
--4N-THT. MCB-MCCB-ACB
100
AcDbLine
 10
9.999999999708052
 20
-127.5000000007585
 30
0.0
 11
9.999999999708052
 21
-100.000043913451
 31
0.0
  0
LINE
  5
173
330
2F
100
AcDbEntity
  8
--4N-THT. MCB-MCCB-ACB
100
AcDbLine
 10
9.999999999708052
 20
-100.000043913451
 30
0.0
 11
35.00000000011733
 21
-100.000043913451
 31
0.0
  0
LINE
  5
174
330
2F
100
AcDbEntity
  8
--4N-THT. MCB-MCCB-ACB
100
AcDbLine
 10
35.00000000011733
 20
-100.000043913451
 30
0.0
 11
35.00000000011733
 21
-127.5000000007585
 31
0.0
  0
LINE
  5
175
330
2F
100
AcDbEntity
  8
--4N-THT. MCB-MCCB-ACB
100
AcDbLine
 10
54.99999999952979
 20
-127.5000000007585
 30
0.0
 11
54.99999999952979
 21
-100.000043913451
 31
0.0
  0
LINE
  5
176
330
2F
100
AcDbEntity
  8
--4N-THT. MCB-MCCB-ACB
100
AcDbLine
 10
54.99999999952979
 20
-100.000043913451
 30
0.0
 11
79.99999999993906
 21
-100.000043913451
 31
0.0
  0
LINE
  5
177
330
2F
100
AcDbEntity
  8
--4N-THT. MCB-MCCB-ACB
100
AcDbLine
 10
79.99999999993906
 20
-100.000043913451
 30
0.0
 11
79.99999999993906
 21
-127.5000000007585
 31
0.0
  0
LINE
  5
178
330
2F
100
AcDbEntity
  8
--4N-THT. MCB-MCCB-ACB
  6
DASHED
 62
6
100
AcDbLine
 10
22.49999999990996
 20
127.5000000007567
 30
0.0
 11
22.49999999990996
 21
-127.5000000007585
 31
0.0
  0
LINE
  5
179
330
2F
100
AcDbEntity
  8
--4N-THT. MCB-MCCB-ACB
  6
DASHED
 62
6
100
AcDbLine
 10
-92.49999999990814
 20
0.0
 30
0.0
 11
92.49999999990814
 21
0.0
 31
0.0
  0
TEXT
  5
17A
330
2F
100
AcDbEntity
  8
--4N-THT. MCB-MCCB-ACB
 62
3
100
AcDbText
 10
-36.46565696410744
 20
5.321909267293449
 30
0.0
 40
3.0
  1
MCCB 4P
  7
VNI-TNR-DIM
100
AcDbText
  0
MTEXT
  5
17B
330
2F
100
AcDbEntity
  8
--4N-THT. MCB-MCCB-ACB
 62
3
100
AcDbMText
 10
22.50000381408518
 20
-44.84998279568208
 30
0.0
 40
3.0
 41
16.05239991518829
 46
0.0
 71
5
 72
5
  1
W185xH255xD110
  7
VNI-TNR-DIM
101
Embedded Object
 70
1
 10
1.0
 20
0.0
 30
0.0
 11
22.50000381408518
 21
-44.84998279568208
 31
0.0
 40
16.05239991518829
 41
0.0
 42
16.05239991518829
 43
0.0
 71
2
 72
1
 44
16.05239991518829
 45
15.0
 73
0
 74
0
 46
0.0
  0
CIRCLE
  5
17C
330
2F
100
AcDbEntity
  8
--4N-THT. MCB-MCCB-ACB
100
AcDbCircle
 10
-67.49999999972806
 20
113.4999999997944
 30
0.0
 40
5.0
  0
LINE
  5
17D
330
2F
100
AcDbEntity
  8
--4N-THT. MCB-MCCB-ACB
100
AcDbLine
 10
-79.99999999992815
 20
127.5000000007585
 30
0.0
 11
-79.99999999992815
 21
100.000043913451
 31
0.0
  0
LINE
  5
17E
330
2F
100
AcDbEntity
  8
--4N-THT. MCB-MCCB-ACB
100
AcDbLine
 10
-79.99999999992815
 20
100.000043913451
 30
0.0
 11
-54.99999999951888
 21
100.000043913451
 31
0.0
  0
LINE
  5
17F
330
2F
100
AcDbEntity
  8
--4N-THT. MCB-MCCB-ACB
100
AcDbLine
 10
-54.99999999951888
 20
100.000043913451
 30
0.0
 11
-54.99999999951888
 21
127.5000000007585
 31
0.0
  0
CIRCLE
  5
180
330
2F
100
AcDbEntity
  8
--4N-THT. MCB-MCCB-ACB
100
AcDbCircle
 10
-67.49999999972806
 20
-113.4999999997944
 30
0.0
 40
5.0
  0
LINE
  5
181
330
2F
100
AcDbEntity
  8
--4N-THT. MCB-MCCB-ACB
100
AcDbLine
 10
-79.99999999992815
 20
-127.5000000007585
 30
0.0
 11
-79.99999999992815
 21
-100.000043913451
 31
0.0
  0
LINE
  5
182
330
2F
100
AcDbEntity
  8
--4N-THT. MCB-MCCB-ACB
100
AcDbLine
 10
-79.99999999992815
 20
-100.000043913451
 30
0.0
 11
-54.99999999951888
 21
-100.000043913451
 31
0.0
  0
LINE
  5
183
330
2F
100
AcDbEntity
  8
--4N-THT. MCB-MCCB-ACB
100
AcDbLine
 10
-54.99999999951888
 20
-100.000043913451
 30
0.0
 11
-54.99999999951888
 21
-127.5000000007585
 31
0.0
  0
CIRCLE
  5
184
330
2F
100
AcDbEntity
  8
--8N-THT. FIXING HOLE
100
AcDbCircle
 10
-44.99999999855117
 20
99.99999999958891
 30
0.0
 40
2.0
  0
CIRCLE
  5
185
330
2F
100
AcDbEntity
  8
--8N-THT. FIXING HOLE
100
AcDbCircle
 10
-44.99999999855117
 20
-99.99999999958891
 30
0.0
 40
2.0
  0
ATTDEF
  5
186
330
2F
100
AcDbEntity
  8
--4N-THT. MCB-MCCB-ACB
 62
3
100
AcDbText
 10
-26.75622116896284
 20
1.027952620048381
 30
0.0
 40
3.0
  1

  7
VNI-TNR-DIM
 72
1
 11
-26.75622116896284
 21
2.527952620048381
 31
0.0
100
AcDbAttributeDefinition
  3
400~630A
  2
400~630A
 70
0
 74
2
280
1
 71
1
 72
0
 11
-26.75622116896284
 21
2.527952620048381
 31
0.0
  0
ATTDEF
  5
187
330
2F
100
AcDbEntity
  8
--4N-THT. MCB-MCCB-ACB
 62
3
100
AcDbText
 10
-26.63737612782006
 20
-8.985384896712276
 30
0.0
 40
3.0
  1

  7
VNI-TNR-DIM
 72
1
 11
-26.63737612782006
 21
-7.485384896712275
 31
0.0
100
AcDbAttributeDefinition
  3
36~70KA
  2
36~70KA
 70
0
 74
2
280
1
 71
1
 72
0
 11
-26.63737612782006
 21
-7.485384896712275
 31
0.0
  0
ATTDEF
  5
188
330
2F
100
AcDbEntity
  8
--4N-THT. MCB-MCCB-ACB
 62
3
100
AcDbText
 10
-26.05950791915257
 20
-3.97062440728223
 30
0.0
 40
3.0
  1

  7
VNI-TNR-DIM
 72
1
 11
-26.05950791915257
 21
-2.47062440728223
 31
0.0
100
AcDbAttributeDefinition
  3
NSX400~630F/N/H
  2
NSX400~630F/N/H
 70
0
 74
2
280
1
 71
1
 72
0
 11
-26.05950791915257
 21
-2.47062440728223
 31
0.0
  0
CIRCLE
  5
189
330
2F
100
AcDbEntity
  8
--4N-THT. MCB-MCCB-ACB
 62
6
100
AcDbCircle
 10
26.50000000009186
 20
25.50000000075672
 30
0.0
 40
2.5
  0
ENDBLK
  5
31
330
2F
100
AcDbEntity
  8
0
100
AcDbBlockEnd
  0
ENDSEC
  0
SECTION
  2
ENTITIES
  0
INSERT
  5
18E
330
17
100
AcDbEntity
  8
0
100
AcDbBlockReference
  2
06 - N - SC MCCB NSX400~630FNH 4 PHASE
 10
92.49999999990814
 20
127.5000000007585
 30
0.0
  0
ENDSEC
  0
SECTION
  2
OBJECTS
  0
DICTIONARY
  5
A
330
0
100
AcDbDictionary
281
1
  3
ACAD_COLOR
350
B
  3
ACAD_GROUP
350
C
  3
ACAD_LAYOUT
350
D
  3
ACAD_MATERIAL
350
E
  3
ACAD_MLEADERSTYLE
350
F
  3
ACAD_MLINESTYLE
350
10
  3
ACAD_PLOTSETTINGS
350
11
  3
ACAD_PLOTSTYLENAME
350
12
  3
ACAD_SCALELIST
350
14
  3
ACAD_TABLESTYLE
350
15
  3
ACAD_VISUALSTYLE
350
16
  3
EZDXF_META
350
2D
  0
DICTIONARY
  5
B
330
A
100
AcDbDictionary
281
1
  0
DICTIONARY
  5
C
330
A
100
AcDbDictionary
281
1
  0
DICTIONARY
  5
D
330
A
100
AcDbDictionary
281
1
  3
Model
350
1A
  3
Layout1
350
1E
  0
DICTIONARY
  5
E
330
A
100
AcDbDictionary
281
1
  3
ByBlock
350
1F
  3
ByLayer
350
20
  3
Global
350
21
  0
DICTIONARY
  5
F
330
A
100
AcDbDictionary
281
1
  3
Standard
350
2C
  0
DICTIONARY
  5
10
330
A
100
AcDbDictionary
281
1
  3
Standard
350
22
  0
DICTIONARY
  5
11
330
A
100
AcDbDictionary
281
1
  0
ACDBDICTIONARYWDFLT
  5
12
330
A
100
AcDbDictionary
281
1
  3
Normal
350
13
100
AcDbDictionaryWithDefault
340
13
  0
ACDBPLACEHOLDER
  5
13
330
12
  0
DICTIONARY
  5
14
330
A
100
AcDbDictionary
281
1
  0
DICTIONARY
  5
15
330
A
100
AcDbDictionary
281
1
  0
DICTIONARY
  5
16
330
A
100
AcDbDictionary
281
1
  0
LAYOUT
  5
1A
330
D
100
AcDbPlotSettings
  1

  4
A3
  6

 40
7.5
 41
20.0
 42
7.5
 43
20.0
 44
420.0
 45
297.0
 46
0.0
 47
0.0
 48
0.0
 49
0.0
140
0.0
141
0.0
142
1.0
143
1.0
 70
1024
 72
1
 73
0
 74
5
  7

 75
16
 76
0
 77
2
 78
300
147
1.0
148
0.0
149
0.0
100
AcDbLayout
  1
Model
 70
1
 71
0
 10
0.0
 20
0.0
 11
420.0
 21
297.0
 12
0.0
 22
0.0
 32
0.0
 14
1e+20
 24
1e+20
 34
1e+20
 15
-1e+20
 25
-1e+20
 35
-1e+20
146
0.0
 13
0.0
 23
0.0
 33
0.0
 16
1.0
 26
0.0
 36
0.0
 17
0.0
 27
1.0
 37
0.0
 76
1
330
17
  0
LAYOUT
  5
1E
330
D
100
AcDbPlotSettings
  1

  4
A3
  6

 40
7.5
 41
20.0
 42
7.5
 43
20.0
 44
420.0
 45
297.0
 46
0.0
 47
0.0
 48
0.0
 49
0.0
140
0.0
141
0.0
142
1.0
143
1.0
 70
0
 72
1
 73
0
 74
5
  7

 75
16
 76
0
 77
2
 78
300
147
1.0
148
0.0
149
0.0
100
AcDbLayout
  1
Layout1
 70
1
 71
1
 10
0.0
 20
0.0
 11
420.0
 21
297.0
 12
0.0
 22
0.0
 32
0.0
 14
1e+20
 24
1e+20
 34
1e+20
 15
-1e+20
 25
-1e+20
 35
-1e+20
146
0.0
 13
0.0
 23
0.0
 33
0.0
 16
1.0
 26
0.0
 36
0.0
 17
0.0
 27
1.0
 37
0.0
 76
1
330
1B
  0
MATERIAL
  5
1F
102
{ACAD_REACTORS
330
E
102
}
330
E
100
AcDbMaterial
  1
ByBlock
  2

 70
0
 40
1.0
 71
1
 41
1.0
 91
-1023410177
 42
1.0
 72
1
  3

 73
1
 74
1
 75
1
 44
0.5
 73
0
 45
1.0
 46
1.0
 77
1
  4

 78
1
 79
1
170
1
 48
1.0
171
1
  6

172
1
173
1
174
1
140
1.0
141
1.0
175
1
  7

176
1
177
1
178
1
143
1.0
179
1
  8

270
1
271
1
272
1
145
1.0
146
1.0
273
1
  9

274
1
275
1
276
1
 42
1.0
 72
1
  3

 73
1
 74
1
 75
1
 94
63
  0
MATERIAL
  5
20
102
{ACAD_REACTORS
330
E
102
}
330
E
100
AcDbMaterial
  1
ByLayer
  2

 70
0
 40
1.0
 71
1
 41
1.0
 91
-1023410177
 42
1.0
 72
1
  3

 73
1
 74
1
 75
1
 44
0.5
 73
0
 45
1.0
 46
1.0
 77
1
  4

 78
1
 79
1
170
1
 48
1.0
171
1
  6

172
1
173
1
174
1
140
1.0
141
1.0
175
1
  7

176
1
177
1
178
1
143
1.0
179
1
  8

270
1
271
1
272
1
145
1.0
146
1.0
273
1
  9

274
1
275
1
276
1
 42
1.0
 72
1
  3

 73
1
 74
1
 75
1
 94
63
  0
MATERIAL
  5
21
102
{ACAD_REACTORS
330
E
102
}
330
E
100
AcDbMaterial
  1
Global
  2

 70
0
 40
1.0
 71
1
 41
1.0
 91
-1023410177
 42
1.0
 72
1
  3

 73
1
 74
1
 75
1
 44
0.5
 73
0
 45
1.0
 46
1.0
 77
1
  4

 78
1
 79
1
170
1
 48
1.0
171
1
  6

172
1
173
1
174
1
140
1.0
141
1.0
175
1
  7

176
1
177
1
178
1
143
1.0
179
1
  8

270
1
271
1
272
1
145
1.0
146
1.0
273
1
  9

274
1
275
1
276
1
 42
1.0
 72
1
  3

 73
1
 74
1
 75
1
 94
63
  0
MLINESTYLE
  5
22
102
{ACAD_REACTORS
330
10
102
}
330
10
100
AcDbMlineStyle
  2
Standard
 70
0
  3

 62
256
 51
90.0
 52
90.0
 71
2
 49
0.5
 62
256
  6
BYLAYER
 49
-0.5
 62
256
  6
BYLAYER
  0
MLEADERSTYLE
  5
2C
102
{ACAD_REACTORS
330
F
102
}
330
F
100
AcDbMLeaderStyle
179
2
170
2
171
1
172
0
 90
2
 40
0.0
 41
0.0
173
1
 91
-1056964608
 92
-2
290
1
 42
2.0
291
1
 43
8.0
  3
Standard
 44
4.0
300

342
29
174
1
175
1
176
0
178
1
 93
-1056964608
 45
4.0
292
0
297
0
 46
4.0
 94
-1056964608
 47
1.0
 49
1.0
140
1.0
294
1
141
0.0
177
0
142
1.0
295
0
296
0
143
3.75
271
0
272
9
273
9
  0
DICTIONARY
  5
2D
330
A
100
AcDbDictionary
280
1
281
1
  3
CREATED_BY_EZDXF
350
2E
  3
WRITTEN_BY_EZDXF
350
192
  0
DICTIONARYVAR
  5
2E
330
2D
100
DictionaryVariables
280
0
  1
1.4.4 @ 2026-09-23T12:53:35.485396+00:00
  0
DICTIONARYVAR
  5
192
330
2D
100
DictionaryVariables
280
0
  1
1.4.4 @ 2026-09-23T12:53:35.631140+00:00
  0
ENDSEC
  0
EOF
