  0
SECTION
  2
HEADER
  9
$ACADVER
  1
AC1032
  9
$ACADMAINTVER
 90
4
  9
$DWGCODEPAGE
  3
ANSI_1252
  9
$LASTSAVEDBY
  1
ezdxf
  9
$REQUIREDVERSIONS
160
0
  9
$INSBASE
 10
0.0
 20
0.0
 30
0.0
  9
$EXTMIN
 10
1e+20
 20
1e+20
 30
1e+20
  9
$EXTMAX
 10
-1e+20
 20
-1e+20
 30
-1e+20
  9
$LIMMIN
 10
0.0
 20
0.0
  9
$LIMMAX
 10
420.0
 20
297.0
  9
$ORTHOMODE
 70
0
  9
$REGENMODE
 70
1
  9
$FILLMODE
 70
1
  9
$QTEXTMODE
 70
0
  9
$MIRRTEXT
 70
1
  9
$LTSCALE
 40
1.0
  9
$ATTMODE
 70
1
  9
$TEXTSIZE
 40
2.5
  9
$TRACEWID
 40
1.0
  9
$TEXTSTYLE
  7
Standard
  9
$CLAYER
  8
0
  9
$CELTYPE
  6
ByLayer
  9
$CECOLOR
 62
256
  9
$CELTSCALE
 40
1.0
  9
$DISPSILH
 70
0
  9
$DIMSCALE
 40
1.0
  9
$DIMASZ
 40
2.5
  9
$DIMEXO
 40
0.625
  9
$DIMDLI
 40
3.75
  9
$DIMRND
 40
0.0
  9
$DIMDLE
 40
0.0
  9
$DIMEXE
 40
1.25
  9
$DIMTP
 40
0.0
  9
$DIMTM
 40
0.0
  9
$DIMTXT
 40
2.5
  9
$DIMCEN
 40
2.5
  9
$DIMTSZ
 40
0.0
  9
$DIMTOL
 70
0
  9
$DIMLIM
 70
0
  9
$DIMTIH
 70
0
  9
$DIMTOH
 70
0
  9
$DIMSE1
 70
0
  9
$DIMSE2
 70
0
  9
$DIMTAD
 70
1
  9
$DIMZIN
 70
8
  9
$DIMBLK
  1

  9
$DIMASO
 70
1
  9
$DIMSHO
 70
1
  9
$DIMPOST
  1

  9
$DIMAPOST
  1

  9
$DIMALT
 70
0
  9
$DIMALTD
 70
3
  9
$DIMALTF
 40
0.03937007874
  9
$DIMLFAC
 40
1.0
  9
$DIMTOFL
 70
1
  9
$DIMTVP
 40
0.0
  9
$DIMTIX
 70
0
  9
$DIMSOXD
 70
0
  9
$DIMSAH
 70
0
  9
$DIMBLK1
  1

  9
$DIMBLK2
  1

  9
$DIMSTYLE
  2
ISO-25
  9
$DIMCLRD
 70
0
  9
$DIMCLRE
 70
0
  9
$DIMCLRT
 70
0
  9
$DIMTFAC
 40
1.0
  9
$DIMGAP
 40
0.625
  9
$DIMJUST
 70
0
  9
$DIMSD1
 70
0
  9
$DIMSD2
 70
0
  9
$DIMTOLJ
 70
0
  9
$DIMTZIN
 70
8
  9
$DIMALTZ
 70
0
  9
$DIMALTTZ
 70
0
  9
$DIMUPT
 70
0
  9
$DIMDEC
 70
2
  9
$DIMTDEC
 70
2
  9
$DIMALTU
 70
2
  9
$DIMALTTD
 70
3
  9
$DIMTXSTY
  7
Standard
  9
$DIMAUNIT
 70
0
  9
$DIMADEC
 70
0
  9
$DIMALTRND
 40
0.0
  9
$DIMAZIN
 70
0
  9
$DIMDSEP
 70
44
  9
$DIMATFIT
 70
3
  9
$DIMFRAC
 70
0
  9
$DIMLDRBLK
  1

  9
$DIMLUNIT
 70
2
  9
$DIMLWD
 70
-2
  9
$DIMLWE
 70
-2
  9
$DIMTMOVE
 70
0
  9
$DIMFXL
 40
1.0
  9
$DIMFXLON
 70
0
  9
$DIMJOGANG
 40
0.785398163397
  9
$DIMTFILL
 70
0
  9
$DIMTFILLCLR
 70
0
  9
$DIMARCSYM
 70
0
  9
$DIMLTYPE
  6

  9
$DIMLTEX1
  6

  9
$DIMLTEX2
  6

  9
$DIMTXTDIRECTION
 70
0
  9
$LUNITS
 70
2
  9
$LUPREC
 70
4
  9
$SKETCHINC
 40
1.0
  9
$FILLETRAD
 40
10.0
  9
$AUNITS
 70
0
  9
$AUPREC
 70
2
  9
$MENU
  1
.
  9
$ELEVATION
 40
0.0
  9
$PELEVATION
 40
0.0
  9
$THICKNESS
 40
0.0
  9
$LIMCHECK
 70
0
  9
$CHAMFERA
 40
0.0
  9
$CHAMFERB
 40
0.0
  9
$CHAMFERC
 40
0.0
  9
$CHAMFERD
 40
0.0
  9
$SKPOLY
 70
0
  9
$TDCREATE
 40
2461307.8288541664
  9
$TDUCREATE
 40
2458532.153996898
  9
$TDUPDATE
 40
2461307.8288541664
  9
$TDUUPDATE
 40
2458532.1544311
  9
$TDINDWG
 40
0.0
  9
$TDUSRTIMER
 40
0.0
  9
$USRTIMER
 70
1
  9
$ANGBASE
 50
0.0
  9
$ANGDIR
 70
0
  9
$PDMODE
 70
0
  9
$PDSIZE
 40
0.0
  9
$PLINEWID
 40
0.0
  9
$SPLFRAME
 70
0
  9
$SPLINETYPE
 70
6
  9
$SPLINESEGS
 70
8
  9
$HANDSEED
  5
CF
  9
$SURFTAB1
 70
6
  9
$SURFTAB2
 70
6
  9
$SURFTYPE
 70
6
  9
$SURFU
 70
6
  9
$SURFV
 70
6
  9
$UCSBASE
  2

  9
$UCSNAME
  2

  9
$UCSORG
 10
0.0
 20
0.0
 30
0.0
  9
$UCSXDIR
 10
1.0
 20
0.0
 30
0.0
  9
$UCSYDIR
 10
0.0
 20
1.0
 30
0.0
  9
$UCSORTHOREF
  2

  9
$UCSORTHOVIEW
 70
0
  9
$UCSORGTOP
 10
0.0
 20
0.0
 30
0.0
  9
$UCSORGBOTTOM
 10
0.0
 20
0.0
 30
0.0
  9
$UCSORGLEFT
 10
0.0
 20
0.0
 30
0.0
  9
$UCSORGRIGHT
 10
0.0
 20
0.0
 30
0.0
  9
$UCSORGFRONT
 10
0.0
 20
0.0
 30
0.0
  9
$UCSORGBACK
 10
0.0
 20
0.0
 30
0.0
  9
$PUCSBASE
  2

  9
$PUCSNAME
  2

  9
$PUCSORG
 10
0.0
 20
0.0
 30
0.0
  9
$PUCSXDIR
 10
1.0
 20
0.0
 30
0.0
  9
$PUCSYDIR
 10
0.0
 20
1.0
 30
0.0
  9
$PUCSORTHOREF
  2

  9
$PUCSORTHOVIEW
 70
0
  9
$PUCSORGTOP
 10
0.0
 20
0.0
 30
0.0
  9
$PUCSORGBOTTOM
 10
0.0
 20
0.0
 30
0.0
  9
$PUCSORGLEFT
 10
0.0
 20
0.0
 30
0.0
  9
$PUCSORGRIGHT
 10
0.0
 20
0.0
 30
0.0
  9
$PUCSORGFRONT
 10
0.0
 20
0.0
 30
0.0
  9
$PUCSORGBACK
 10
0.0
 20
0.0
 30
0.0
  9
$USERI1
 70
0
  9
$USERI2
 70
0
  9
$USERI3
 70
0
  9
$USERI4
 70
0
  9
$USERI5
 70
0
  9
$USERR1
 40
0.0
  9
$USERR2
 40
0.0
  9
$USERR3
 40
0.0
  9
$USERR4
 40
0.0
  9
$USERR5
 40
0.0
  9
$WORLDVIEW
 70
1
  9
$SHADEDGE
 70
3
  9
$SHADEDIF
 70
70
  9
$TILEMODE
 70
1
  9
$MAXACTVP
 70
64
  9
$PINSBASE
 10
0.0
 20
0.0
 30
0.0
  9
$PLIMCHECK
 70
0
  9
$PEXTMIN
 10
1e+20
 20
1e+20
 30
1e+20
  9
$PEXTMAX
 10
-1e+20
 20
-1e+20
 30
-1e+20
  9
$PLIMMIN
 10
0.0
 20
0.0
  9
$PLIMMAX
 10
420.0
 20
297.0
  9
$UNITMODE
 70
0
  9
$VISRETAIN
 70
1
  9
$PLINEGEN
 70
0
  9
$PSLTSCALE
 70
1
  9
$TREEDEPTH
 70
3020
  9
$CMLSTYLE
  2
Standard
  9
$CMLJUST
 70
0
  9
$CMLSCALE
 40
20.0
  9
$PROXYGRAPHICS
 70
1
  9
$MEASUREMENT
 70
1
  9
$CELWEIGHT
370
-1
  9
$ENDCAPS
280
0
  9
$JOINSTYLE
280
0
  9
$LWDISPLAY
290
0
  9
$INSUNITS
 70
0
  9
$HYPERLINKBASE
  1

  9
$STYLESHEET
  1

  9
$XEDIT
290
1
  9
$CEPSNTYPE
380
0
  9
$PSTYLEMODE
290
1
  9
$FINGERPRINTGUID
  2
{E9A929E3-6962-4DF8-BB9A-AB00215C8874}
  9
$VERSIONGUID
  2
{5C09613F-6B91-46BE-BF31-D7D38CB92FAA}
  9
$EXTNAMES
290
1
  9
$PSVPSCALE
 40
0.0
  9
$OLESTARTUP
290
0
  9
$SORTENTS
280
127
  9
$INDEXCTL
280
0
  9
$HIDETEXT
280
1
  9
$XCLIPFRAME
280
1
  9
$HALOGAP
280
0
  9
$OBSCOLOR
 70
257
  9
$OBSLTYPE
280
0
  9
$INTERSECTIONDISPLAY
280
0
  9
$INTERSECTIONCOLOR
 70
257
  9
$DIMASSOC
280
2
  9
$PROJECTNAME
  1

  9
$CAMERADISPLAY
290
0
  9
$LENSLENGTH
 40
50.0
  9
$CAMERAHEIGHT
 40
0.0
  9
$STEPSPERSEC
 40
24.0
  9
$STEPSIZE
 40
100.0
  9
$3DDWFPREC
 40
2.0
  9
$PSOLWIDTH
 40
0.005
  9
$PSOLHEIGHT
 40
0.08
  9
$LOFTANG1
 40
1.570796326795
  9
$LOFTANG2
 40
1.570796326795
  9
$LOFTMAG1
 40
0.0
  9
$LOFTMAG2
 40
0.0
  9
$LOFTPARAM
 70
7
  9
$LOFTNORMALS
280
1
  9
$LATITUDE
 40
37.795
  9
$LONGITUDE
 40
-122.394
  9
$NORTHDIRECTION
 40
0.0
  9
$TIMEZONE
 70
-8000
  9
$LIGHTGLYPHDISPLAY
280
1
  9
$TILEMODELIGHTSYNCH
280
1
  9
$CMATERIAL
347
20
  9
$SOLIDHIST
280
0
  9
$SHOWHIST
280
1
  9
$DWFFRAME
280
2
  9
$DGNFRAME
280
2
  9
$REALWORLDSCALE
290
1
  9
$INTERFERECOLOR
 62
256
  9
$CSHADOW
280
0
  9
$SHADOWPLANELOCATION
 40
0.0
  0
ENDSEC
  0
SECTION
  2
CLASSES
  0
CLASS
  1
ACDBDICTIONARYWDFLT
  2
AcDbDictionaryWithDefault
  3
ObjectDBX Classes
 90
0
 91
0
280
0
281
0
  0
CLASS
  1
SUN
  2
AcDbSun
  3
SCENEOE
 90
1153
 91
0
280
0
281
0
  0
CLASS
  1
VISUALSTYLE
  2
AcDbVisualStyle
  3
ObjectDBX Classes
 90
4095
 91
0
280
0
281
0
  0
CLASS
  1
MATERIAL
  2
AcDbMaterial
  3
ObjectDBX Classes
 90
1153
 91
0
280
0
281
0
  0
CLASS
  1
SCALE
  2
AcDbScale
  3
ObjectDBX Classes
 90
1153
 91
0
280
0
281
0
  0
CLASS
  1
TABLESTYLE
  2
AcDbTableStyle
  3
ObjectDBX Classes
 90
4095
 91
0
280
0
281
0
  0
CLASS
  1
MLEADERSTYLE
  2
AcDbMLeaderStyle
  3
ACDB_MLEADERSTYLE_CLASS
 90
4095
 91
0
280
0
281
0
  0
CLASS
  1
DICTIONARYVAR
  2
AcDbDictionaryVar
  3
ObjectDBX Classes
 90
0
 91
0
280
0
281
0
  0
CLASS
  1
CELLSTYLEMAP
  2
AcDbCellStyleMap
  3
ObjectDBX Classes
 90
1152
 91
0
280
0
281
0
  0
CLASS
  1
MENTALRAYRENDERSETTINGS
  2
AcDbMentalRayRenderSettings
  3
SCENEOE
 90
1024
 91
0
280
0
281
0
  0
CLASS
  1
ACDBDETAILVIEWSTYLE
  2
AcDbDetailViewStyle
  3
ObjectDBX Classes
 90
1025
 91
0
280
0
281
0
  0
CLASS
  1
ACDBSECTIONVIEWSTYLE
  2
AcDbSectionViewStyle
  3
ObjectDBX Classes
 90
1025
 91
0
280
0
281
0
  0
CLASS
  1
RASTERVARIABLES
  2
AcDbRasterVariables
  3
ISM
 90
0
 91
0
280
0
281
0
  0
CLASS
  1
LAYOUT
  2
AcDbLayout
  3
ObjectDBX Classes
 90
0
 91
0
280
0
281
0
  0
CLASS
  1
ACDBPLACEHOLDER
  2
AcDbPlaceHolder
  3
ObjectDBX Classes
 90
0
 91
0
280
0
281
0
  0
ENDSEC
  0
SECTION
  2
TABLES
  0
TABLE
  2
VPORT
  5
8
330
0
100
AcDbSymbolTable
 70
1
  0
VPORT
  5
23
330
8
100
AcDbSymbolTableRecord
100
AcDbViewportTableRecord
  2
*Active
 70
0
 10
0.0
 20
0.0
 11
1.0
 21
1.0
 12
0.0
 22
0.0
 13
0.0
 23
0.0
 14
0.5
 24
0.5
 15
0.5
 25
0.5
 16
0.0
 26
0.0
 36
1.0
 17
0.0
 27
0.0
 37
0.0
 40
1000.0
 41
1.34
 42
50.0
 43
0.0
 44
0.0
 50
0.0
 51
0.0
 71
0
 72
1000
 73
1
 74
3
 75
0
 76
0
 77
0
 78
0
281
0
 65
0
146
0.0
  0
ENDTAB
  0
TABLE
  2
LTYPE
  5
2
330
0
100
AcDbSymbolTable
 70
3
  0
LTYPE
  5
24
330
2
100
AcDbSymbolTableRecord
100
AcDbLinetypeTableRecord
  2
ByBlock
 70
0
  3

 72
65
 73
0
 40
0.0
  0
LTYPE
  5
25
330
2
100
AcDbSymbolTableRecord
100
AcDbLinetypeTableRecord
  2
ByLayer
 70
0
  3

 72
65
 73
0
 40
0.0
  0
LTYPE
  5
26
330
2
100
AcDbSymbolTableRecord
100
AcDbLinetypeTableRecord
  2
Continuous
 70
0
  3

 72
65
 73
0
 40
0.0
  0
ENDTAB
  0
TABLE
  2
LAYER
  5
1
330
0
100
AcDbSymbolTable
 70
4
  0
LAYER
  5
27
330
1
100
AcDbSymbolTableRecord
100
AcDbLayerTableRecord
  2
0
 70
0
 62
7
  6
Continuous
370
-3
390
13
347
21
  0
LAYER
  5
28
330
1
100
AcDbSymbolTableRecord
100
AcDbLayerTableRecord
  2
Defpoints
 70
0
 62
7
  6
Continuous
290
0
370
-3
390
13
347
21
  0
LAYER
  5
C7
330
1
100
AcDbSymbolTableRecord
100
AcDbLayerTableRecord
  2
--4N-THT. MCB-MCCB-ACB
 70
0
 62
124
  6
CONTINUOUS
370
-3
390
13
347
21
  0
LAYER
  5
C8
330
1
100
AcDbSymbolTableRecord
100
AcDbLayerTableRecord
  2
--6N-THT. HOLE COVER
 70
0
 62
2
  6
CONTINUOUS
370
-3
390
13
347
21
  0
ENDTAB
  0
TABLE
  2
STYLE
  5
5
330
0
100
AcDbSymbolTable
 70
2
  0
STYLE
  5
29
330
5
100
AcDbSymbolTableRecord
100
AcDbTextStyleTableRecord
  2
Standard
 70
0
 40
0.0
 41
1.0
 50
0.0
 71
0
 42
2.5
  3
txt
  4

  0
STYLE
  5
C9
330
5
100
AcDbSymbolTableRecord
100
AcDbTextStyleTableRecord
  2
- 13.0
 70
0
 40
13.0
 41
1.0
 50
0.0
 71
0
 42
13.0
  3
times.ttf
  4

  0
ENDTAB
  0
TABLE
  2
VIEW
  5
7
330
0
100
AcDbSymbolTable
 70
0
  0
ENDTAB
  0
TABLE
  2
UCS
  5
6
330
0
100
AcDbSymbolTable
 70
0
  0
ENDTAB
  0
TABLE
  2
APPID
  5
3
330
0
100
AcDbSymbolTable
 70
3
  0
APPID
  5
2A
330
3
100
AcDbSymbolTableRecord
100
AcDbRegAppTableRecord
  2
ACAD
 70
0
  0
APPID
  5
CC
330
3
100
AcDbSymbolTableRecord
100
AcDbRegAppTableRecord
  2
HATCHBACKGROUNDCOLOR
 70
0
  0
APPID
  5
CD
330
3
100
AcDbSymbolTableRecord
100
AcDbRegAppTableRecord
  2
EZDXF
 70
0
  0
ENDTAB
  0
TABLE
  2
DIMSTYLE
  5
4
330
0
100
AcDbSymbolTable
 70
1
100
AcDbDimStyleTable
  0
DIMSTYLE
105
2B
330
4
100
AcDbSymbolTableRecord
100
AcDbDimStyleTableRecord
  2
Standard
 70
0
 40
1.0
 41
2.5
 42
0.625
 43
3.75
 44
1.25
 45
0.0
 46
0.0
 47
0.0
 48
0.0
 49
2.5
140
2.5
141
2.5
142
0.0
143
0.03937007874
144
1.0
145
0.0
146
1.0
147
0.625
148
0.0
 69
0
 70
0
 71
0
 72
0
 73
0
 74
0
 75
0
 76
0
 77
1
 78
8
 79
3
170
0
171
3
172
1
173
0
174
0
175
0
176
0
177
0
178
0
179
2
271
2
272
2
273
2
274
3
275
0
276
0
277
2
278
44
279
0
280
0
281
0
282
0
283
0
284
8
285
0
286
0
288
0
289
3
290
0
371
-2
372
-2
  0
ENDTAB
  0
TABLE
  2
BLOCK_RECORD
  5
9
330
0
100
AcDbSymbolTable
 70
3
  0
BLOCK_RECORD
  5
17
330
9
100
AcDbSymbolTableRecord
100
AcDbBlockTableRecord
  2
*Model_Space
340
1A
 70
0
280
1
281
0
  0
BLOCK_RECORD
  5
1B
330
9
100
AcDbSymbolTableRecord
100
AcDbBlockTableRecord
  2
*Paper_Space
340
1E
 70
0
280
1
281
0
  0
BLOCK_RECORD
  5
2F
330
9
100
AcDbSymbolTableRecord
100
AcDbBlockTableRecord
  2
06 - N - SC MCCB LỖ ĐỤC CVS400~630F~N 3~4 PHASE
340
0
 70
0
280
1
281
0
  0
ENDTAB
  0
ENDSEC
  0
SECTION
  2
BLOCKS
  0
BLOCK
  5
18
330
17
100
AcDbEntity
  8
0
100
AcDbBlockBegin
  2
*Model_Space
 70
0
 10
0.0
 20
0.0
 30
0.0
  3
*Model_Space
  1

  0
ENDBLK
  5
19
330
17
100
AcDbEntity
  8
0
100
AcDbBlockEnd
  0
BLOCK
  5
1C
330
1B
100
AcDbEntity
  8
0
100
AcDbBlockBegin
  2
*Paper_Space
 70
0
 10
0.0
 20
0.0
 30
0.0
  3
*Paper_Space
  1

  0
ENDBLK
  5
1D
330
1B
100
AcDbEntity
  8
0
100
AcDbBlockEnd
  0
BLOCK
  5
30
330
2F
100
AcDbEntity
  8
0
100
AcDbBlockBegin
  2
06 - N - SC MCCB LỖ ĐỤC CVS400~630F~N 3~4 PHASE
 70
2
 10
0.0
 20
0.0
 30
0.0
  3
06 - N - SC MCCB LỖ ĐỤC CVS400~630F~N 3~4 PHASE
  1

  0
LINE
  5
32
330
2F
100
AcDbEntity
  8
--6N-THT. HOLE COVER
 62
124
100
AcDbLine
 10
-12.92528987151854
 20
9.97272702928967
 30
0.0
 11
-12.22086614190812
 21
-3.888466444952427
 31
0.0
  0
LINE
  5
33
330
2F
100
AcDbEntity
  8
--6N-THT. HOLE COVER
 62
124
100
AcDbLine
 10
-12.92744092796783
 20
10.05881061951004
 30
0.0
 11
-12.22314449126861
 21
-3.799878086952958
 31
0.0
  0
LINE
  5
34
330
2F
100
AcDbEntity
  8
--6N-THT. HOLE COVER
 62
124
100
AcDbLine
 10
-12.22086614190812
 20
-3.888466444952427
 30
0.0
 11
-12.2210440882809
 21
-3.884893576423564
 31
0.0
  0
LINE
  5
35
330
2F
100
AcDbEntity
  8
--6N-THT. HOLE COVER
 62
124
100
AcDbLine
 10
-12.22314440726768
 20
4.082408438562197
 30
0.0
 11
-12.92744092796783
 21
20.55276677147594
 31
0.0
  0
LINE
  5
36
330
2F
100
AcDbEntity
  8
--6N-THT. HOLE COVER
 62
124
100
AcDbLine
 10
-12.92529907059725
 20
9.972878938764552
 30
0.0
 11
-12.92739059268933
 21
10.04491642379616
 31
0.0
  0
LINE
  5
37
330
2F
100
AcDbEntity
  8
--6N-THT. HOLE COVER
 62
124
100
AcDbLine
 10
-12.2210440882809
 20
-3.884893576423564
 30
0.0
 11
-12.22314407381782
 21
-3.799886293321833
 31
0.0
  0
LINE
  5
38
330
2F
100
AcDbEntity
  8
--6N-THT. HOLE COVER
 62
124
100
AcDbLine
 10
-14.07838828355852
 20
52.99343089338254
 30
0.0
 11
-14.07838828355852
 21
-22.42915545885626
 31
0.0
  0
LINE
  5
39
330
2F
100
AcDbEntity
  8
--6N-THT. HOLE COVER
 62
124
100
AcDbLine
 10
-13.82932968121713
 20
52.99343089338254
 30
0.0
 11
-13.82935196015933
 21
20.55179268762367
 31
0.0
  0
LINE
  5
3A
330
2F
100
AcDbEntity
  8
--6N-THT. HOLE COVER
 62
124
100
AcDbLine
 10
-13.82935196015933
 20
20.54950142799498
 30
0.0
 11
-13.82933858230899
 21
-16.50000000000182
 31
0.0
  0
LINE
  5
3B
330
2F
100
AcDbEntity
  8
--6N-THT. HOLE COVER
 62
124
100
AcDbLine
 10
-13.82932077137957
 20
48.12090357092166
 30
0.0
 11
-13.82932529963909
 21
40.42833495229934
 31
0.0
  0
LINE
  5
3C
330
2F
100
AcDbEntity
  8
--6N-THT. HOLE COVER
 62
124
100
AcDbLine
 10
-12.92744092796783
 20
10.05881061951004
 30
0.0
 11
-12.92744092796783
 21
20.55276677147594
 31
0.0
  0
LINE
  5
3D
330
2F
100
AcDbEntity
  8
--6N-THT. HOLE COVER
 62
124
100
AcDbLine
 10
-12.17975510651922
 20
22.30971816098281
 30
0.0
 11
-12.67540972511961
 21
21.47256887046387
 31
0.0
  0
LINE
  5
3E
330
2F
100
AcDbEntity
  8
--6N-THT. HOLE COVER
 62
124
100
AcDbLine
 10
-10.44862188484876
 20
23.25639561642493
 30
0.0
 11
-10.94958659983785
 21
22.41027769300126
 31
0.0
  0
LINE
  5
3F
330
2F
100
AcDbEntity
  8
--6N-THT. HOLE COVER
 62
124
100
AcDbLine
 10
9.61778691111067
 20
-5.791003377253218
 30
0.0
 11
-10.21919827571037
 21
-5.790993908360178
 31
0.0
  0
LINE
  5
40
330
2F
100
AcDbEntity
  8
--6N-THT. HOLE COVER
 62
124
100
AcDbLine
 10
9.61777818038172
 20
-5.410529124257664
 30
0.0
 11
-10.219191945298
 21
-5.410519657918484
 31
0.0
  0
LINE
  5
41
330
2F
100
AcDbEntity
  8
--6N-THT. HOLE COVER
 62
124
100
AcDbLine
 10
-14.07838828355852
 20
-22.4291554588599
 30
0.0
 11
13.58028888107037
 21
-22.42915545885626
 31
0.0
  0
LINE
  5
42
330
2F
100
AcDbEntity
  8
--6N-THT. HOLE COVER
 62
124
100
AcDbLine
 10
-12.2210440882809
 20
-3.884893576423564
 30
0.0
 11
-12.17156136209996
 21
-4.239843026565722
 31
0.0
  0
LINE
  5
43
330
2F
100
AcDbEntity
  8
--6N-THT. HOLE COVER
 62
124
100
AcDbLine
 10
-12.17156136209996
 20
-4.239843026565722
 30
0.0
 11
-12.03507031206027
 21
-4.635052747784357
 31
0.0
  0
LINE
  5
44
330
2F
100
AcDbEntity
  8
--6N-THT. HOLE COVER
 62
124
100
AcDbLine
 10
-12.03507031206027
 20
-4.635052747784357
 30
0.0
 11
-11.815441974848
 21
-4.998776985892618
 31
0.0
  0
LINE
  5
45
330
2F
100
AcDbEntity
  8
--6N-THT. HOLE COVER
 62
124
100
AcDbLine
 10
-11.815441974848
 20
-4.998776985892618
 30
0.0
 11
-11.51810476976788
 21
-5.313131600123597
 31
0.0
  0
LINE
  5
46
330
2F
100
AcDbEntity
  8
--6N-THT. HOLE COVER
 62
124
100
AcDbLine
 10
-11.51810476976788
 20
-5.313131600123597
 30
0.0
 11
-11.15269751063897
 21
-5.560326825512674
 31
0.0
  0
LINE
  5
47
330
2F
100
AcDbEntity
  8
--6N-THT. HOLE COVER
 62
124
100
AcDbLine
 10
-11.15269751063897
 20
-5.560326825512674
 30
0.0
 11
-10.73310097636931
 21
-5.723989727830485
 31
0.0
  0
LINE
  5
48
330
2F
100
AcDbEntity
  8
--6N-THT. HOLE COVER
 62
124
100
AcDbLine
 10
-10.73310097636931
 20
-5.723989727830485
 30
0.0
 11
-10.28077130062956
 21
-5.79004785699908
 31
0.0
  0
LINE
  5
49
330
2F
100
AcDbEntity
  8
--6N-THT. HOLE COVER
 62
124
100
AcDbLine
 10
-10.28077130062956
 20
-5.79004785699908
 30
0.0
 11
-10.21919827316924
 21
-5.790993704727952
 31
0.0
  0
LINE
  5
4A
330
2F
100
AcDbEntity
  8
--6N-THT. HOLE COVER
 62
124
100
AcDbLine
 10
-10.21919740772864
 20
5.92546437202327
 30
0.0
 11
-10.92410459279745
 21
22.41010341964102
 31
0.0
  0
LINE
  5
4B
330
2F
100
AcDbEntity
  8
--6N-THT. HOLE COVER
 62
124
100
AcDbLine
 10
-10.21919827571037
 20
-5.790993908360178
 30
0.0
 11
-10.21919947459901
 21
-5.410519657918484
 31
0.0
  0
LINE
  5
4C
330
2F
100
AcDbEntity
  8
--6N-THT. HOLE COVER
 62
124
100
AcDbLine
 10
-10.21919740772864
 20
5.92546437202327
 30
0.0
 11
-10.21919947459901
 21
4.442339007420741
 31
0.0
  0
LINE
  5
4D
330
2F
100
AcDbEntity
  8
--6N-THT. HOLE COVER
 62
124
100
AcDbLine
 10
-5.039900182689962
 20
43.63833214953774
 30
0.0
 11
-5.039899803419757
 21
43.99728620622591
 31
0.0
  0
LINE
  5
4E
330
2F
100
AcDbEntity
  8
--6N-THT. HOLE COVER
 62
124
100
AcDbLine
 10
-4.438624211446949
 20
43.99728592113933
 30
0.0
 11
-4.438624593258282
 21
43.63833186190823
 31
0.0
  0
LINE
  5
4F
330
2F
100
AcDbEntity
  8
--6N-THT. HOLE COVER
 62
124
100
AcDbLine
 10
-3.336287046919096
 20
42.64425740650404
 30
0.0
 11
-3.336286960380675
 21
42.59948793132752
 31
0.0
  0
LINE
  5
50
330
2F
100
AcDbEntity
  8
--6N-THT. HOLE COVER
 62
124
100
AcDbLine
 10
-3.336283979719155
 20
45.50779939266795
 30
0.0
 11
-3.33628391098864
 21
45.47171698333295
 31
0.0
  0
LINE
  5
51
330
2F
100
AcDbEntity
  8
--6N-THT. HOLE COVER
 62
124
100
AcDbLine
 10
-3.236074363830994
 20
42.59948788296424
 30
0.0
 11
-3.236074447830105
 21
42.64425735813893
 31
0.0
  0
LINE
  5
52
330
2F
100
AcDbEntity
  8
--6N-THT. HOLE COVER
 62
124
100
AcDbLine
 10
-3.236071314448054
 20
45.47171693496784
 30
0.0
 11
-3.236071383169473
 21
45.50779934430465
 31
0.0
  0
LINE
  5
53
330
2F
100
AcDbEntity
  8
--6N-THT. HOLE COVER
 62
124
100
AcDbLine
 10
-2.133734829538298
 20
43.63833076229275
 30
0.0
 11
-2.133734447728784
 21
43.9972848215275
 31
0.0
  0
LINE
  5
54
330
2F
100
AcDbEntity
  8
--6N-THT. HOLE COVER
 62
124
100
AcDbLine
 10
-1.532458858298923
 20
43.99728453644456
 30
0.0
 11
-1.532459237560033
 21
43.63833047466323
 31
0.0
  0
LINE
  5
55
330
2F
100
AcDbEntity
  8
--6N-THT. HOLE COVER
 62
124
100
AcDbLine
 10
-1.081508025739822
 20
42.09773513758409
 30
0.0
 11
-1.081500516809683
 21
45.5068327210156
 31
0.0
  0
LINE
  5
56
330
2F
100
AcDbEntity
  8
--6N-THT. HOLE COVER
 62
124
100
AcDbLine
 10
-0.4802309396181954
 20
43.54740988118646
 30
0.0
 11
-0.4802324363099615
 21
42.0977348524957
 31
0.0
  0
LINE
  5
57
330
2F
100
AcDbEntity
  8
--6N-THT. HOLE COVER
 62
124
100
AcDbLine
 10
-0.4802294021901617
 20
44.97648620692053
 30
0.0
 11
-0.4802302701809822
 21
44.03463263320372
 31
0.0
  0
LINE
  5
58
330
2F
100
AcDbEntity
  8
--6N-THT. HOLE COVER
 62
124
100
AcDbLine
 10
1.123173300620692
 20
44.0858456586684
 30
0.0
 11
1.123172727910059
 21
43.54740911756744
 31
0.0
  0
LINE
  5
59
330
2F
100
AcDbEntity
  8
--6N-THT. HOLE COVER
 62
124
100
AcDbLine
 10
-10.21919530269042
 20
4.442339007420741
 30
0.0
 11
9.617781537770497
 21
4.442329541076105
 31
0.0
  0
LINE
  5
5A
330
2F
100
AcDbEntity
  8
--6N-THT. HOLE COVER
 62
124
100
AcDbLine
 10
-10.21919740772864
 20
5.92546437202327
 30
0.0
 11
9.617787779079663
 21
5.925454905682272
 31
0.0
  0
LINE
  5
5B
330
2F
100
AcDbEntity
  8
--6N-THT. HOLE COVER
 62
124
100
AcDbLine
 10
-13.82933858230899
 20
-16.50000000000182
 30
0.0
 11
13.58028888107037
 21
-16.50000000000182
 31
0.0
  0
LINE
  5
5C
330
2F
100
AcDbEntity
  8
--6N-THT. HOLE COVER
 62
124
100
AcDbLine
 10
13.22805350696035
 20
10.20913333497083
 30
0.0
 11
12.32613387385027
 21
10.20913376513999
 31
0.0
  0
LINE
  5
5D
330
2F
100
AcDbEntity
  8
--6N-THT. HOLE COVER
 62
124
100
AcDbLine
 10
-12.92744092796783
 20
10.2091458150644
 30
0.0
 11
-13.8293480682496
 21
10.20914624523721
 31
0.0
  0
LINE
  5
5E
330
2F
100
AcDbEntity
  8
--6N-THT. HOLE COVER
 62
124
100
AcDbLine
 10
13.22804961503971
 20
11.45556102959744
 30
0.0
 11
12.32613387385027
 21
11.45556145976661
 31
0.0
  0
LINE
  5
5F
330
2F
100
AcDbEntity
  8
--6N-THT. HOLE COVER
 62
124
100
AcDbLine
 10
-12.92744092796783
 20
11.45557351478419
 30
0.0
 11
-13.82935196015933
 21
11.45557394495517
 31
0.0
  0
LINE
  5
60
330
2F
100
AcDbEntity
  8
--6N-THT. HOLE COVER
 62
124
100
AcDbLine
 10
1.423812650569743
 20
45.50683152722377
 30
0.0
 11
1.423812062590513
 21
44.97648529821162
 31
0.0
  0
LINE
  5
61
330
2F
100
AcDbEntity
  8
--6N-THT. HOLE COVER
 62
124
100
AcDbLine
 10
1.924868131989569
 20
42.09870415609294
 30
0.0
 11
1.924875640921527
 21
45.50683128795571
 31
0.0
  0
LINE
  5
62
330
2F
100
AcDbEntity
  8
--6N-THT. HOLE COVER
 62
124
100
AcDbLine
 10
2.526145218111196
 20
43.54836458182035
 30
0.0
 11
2.526143723960558
 21
42.09870387100818
 31
0.0
  0
LINE
  5
63
330
2F
100
AcDbEntity
  8
--6N-THT. HOLE COVER
 62
124
100
AcDbLine
 10
2.526146758082177
 20
44.97742658204152
 30
0.0
 11
2.526145887552047
 21
44.03558484188761
 31
0.0
  0
LINE
  5
64
330
2F
100
AcDbEntity
  8
--6N-THT. HOLE COVER
 62
124
100
AcDbLine
 10
4.129549460891212
 20
44.08679498850506
 30
0.0
 11
4.129548888180579
 21
43.54836381565109
 31
0.0
  0
LINE
  5
65
330
2F
100
AcDbEntity
  8
--6N-THT. HOLE COVER
 62
124
100
AcDbLine
 10
4.430188808300954
 20
45.50683009161912
 30
0.0
 11
4.430188222861033
 21
44.97742567333261
 31
0.0
  0
LINE
  5
66
330
2F
100
AcDbEntity
  8
--6N-THT. HOLE COVER
 62
124
100
AcDbLine
 10
9.61778691111067
 20
-5.791003377253218
 30
0.0
 11
9.617785709680902
 21
-5.410529124257664
 31
0.0
  0
LINE
  5
67
330
2F
100
AcDbEntity
  8
--6N-THT. HOLE COVER
 62
124
100
AcDbLine
 10
9.617787779079663
 20
5.925454905682272
 30
0.0
 11
9.617785709680902
 21
4.442329541076105
 31
0.0
  0
LINE
  5
68
330
2F
100
AcDbEntity
  8
--6N-THT. HOLE COVER
 62
124
100
AcDbLine
 10
12.32613387385027
 20
10.0587985670445
 30
0.0
 11
12.32613387385027
 21
20.55275471900677
 31
0.0
  0
LINE
  5
69
330
2F
100
AcDbEntity
  8
--6N-THT. HOLE COVER
 62
124
100
AcDbLine
 10
13.22804961503971
 20
20.55177977481071
 30
0.0
 11
13.22807189398918
 21
52.99343089338254
 31
0.0
  0
LINE
  5
6A
330
2F
100
AcDbEntity
  8
--6N-THT. HOLE COVER
 62
124
100
AcDbLine
 10
13.22806299289004
 20
-16.50000000000182
 30
0.0
 11
13.22804961503971
 21
20.54948851518384
 31
0.0
  0
LINE
  5
6B
330
2F
100
AcDbEntity
  8
--6N-THT. HOLE COVER
 62
124
100
AcDbLine
 10
13.22807627556176
 20
40.42832204203295
 30
0.0
 11
13.22808080382128
 21
48.12090357092166
 31
0.0
  0
LINE
  5
6C
330
2F
100
AcDbEntity
  8
--6N-THT. HOLE COVER
 62
124
100
AcDbLine
 10
13.58028888107037
 20
52.99343089338254
 30
0.0
 11
13.58028888107037
 21
-22.42915545885626
 31
0.0
  0
LINE
  5
6D
330
2F
100
AcDbEntity
  8
--6N-THT. HOLE COVER
 62
124
100
AcDbLine
 10
11.62173453427022
 20
-3.799897671260623
 30
0.0
 11
11.61963393273981
 21
-3.884917431911162
 31
0.0
  0
LINE
  5
6E
330
2F
100
AcDbEntity
  8
--6N-THT. HOLE COVER
 62
124
100
AcDbLine
 10
12.32608354111107
 20
10.04490437132699
 30
0.0
 11
12.32399381608229
 21
9.972931150008662
 31
0.0
  0
LINE
  5
6F
330
2F
100
AcDbEntity
  8
--6N-THT. HOLE COVER
 62
124
100
AcDbLine
 10
10.3227975386817
 20
22.41009328131622
 30
0.0
 11
9.617787779079663
 21
5.925454905682272
 31
0.0
  0
LINE
  5
70
330
2F
100
AcDbEntity
  8
--6N-THT. HOLE COVER
 62
124
100
AcDbLine
 10
12.32613387385027
 20
20.55275471900677
 30
0.0
 11
11.62173486771098
 21
4.08239705807864
 31
0.0
  0
LINE
  5
71
330
2F
100
AcDbEntity
  8
--6N-THT. HOLE COVER
 62
124
100
AcDbLine
 10
11.62173495171191
 20
-3.799889464889929
 30
0.0
 11
12.32613387385027
 21
10.0587985670445
 31
0.0
  0
LINE
  5
72
330
2F
100
AcDbEntity
  8
--6N-THT. HOLE COVER
 62
124
100
AcDbLine
 10
11.61945594055214
 20
-3.888490679706592
 30
0.0
 11
12.32398219378228
 21
9.972702496723286
 31
0.0
  0
LINE
  5
73
330
2F
100
AcDbEntity
  8
--6N-THT. HOLE COVER
 62
124
100
AcDbLine
 10
-13.82934462431876
 20
17.09204493793549
 30
0.0
 11
-14.07838828355852
 21
17.09204505756861
 31
0.0
  0
LINE
  5
74
330
2F
100
AcDbEntity
  8
--6N-THT. HOLE COVER
 62
124
100
AcDbLine
 10
13.22805695088209
 20
17.09207228062223
 30
0.0
 11
13.58028888107037
 21
17.09207211008106
 31
0.0
  0
LINE
  5
75
330
2F
100
AcDbEntity
  8
--6N-THT. HOLE COVER
 62
124
100
AcDbLine
 10
-13.82935196015933
 20
20.54950142799498
 30
0.0
 11
-12.92744093051988
 21
20.54950099782218
 31
0.0
  0
LINE
  5
76
330
2F
100
AcDbEntity
  8
--6N-THT. HOLE COVER
 62
124
100
AcDbLine
 10
12.32613387385027
 20
20.54948894535664
 30
0.0
 11
13.22804961503971
 21
20.54948851518384
 31
0.0
  0
LINE
  5
77
330
2F
100
AcDbEntity
  8
--6N-THT. HOLE COVER
 62
124
100
AcDbLine
 10
13.22804983394053
 20
20.6191150431514
 30
0.0
 11
12.32608356656965
 21
20.6191154733242
 31
0.0
  0
LINE
  5
78
330
2F
100
AcDbEntity
  8
--6N-THT. HOLE COVER
 62
124
100
AcDbLine
 10
-12.92739056722894
 20
20.61912752324861
 30
0.0
 11
-13.82935173871738
 21
20.61912795596618
 31
0.0
  0
LINE
  5
79
330
2F
100
AcDbEntity
  8
--6N-THT. HOLE COVER
 62
124
100
AcDbLine
 10
-10.92410459279745
 20
22.41010341964102
 30
0.0
 11
10.3227975386817
 21
22.41009328131622
 31
0.0
  0
LINE
  5
7A
330
2F
100
AcDbEntity
  8
--6N-THT. HOLE COVER
 62
124
100
AcDbLine
 10
-10.44862188484876
 20
23.25639561642493
 30
0.0
 11
9.847324630511139
 21
23.25638593117219
 31
0.0
  0
LINE
  5
7B
330
2F
100
AcDbEntity
  8
--6N-THT. HOLE COVER
 62
124
100
AcDbLine
 10
13.22805350696035
 20
24.0986762933444
 30
0.0
 11
-13.8293480682496
 21
24.09868920615918
 31
0.0
  0
LINE
  5
7C
330
2F
100
AcDbEntity
  8
--6N-THT. HOLE COVER
 62
124
100
AcDbLine
 10
11.61963393273981
 20
-3.884917431911162
 30
0.0
 11
11.57015084766135
 21
-4.239857077176566
 31
0.0
  0
LINE
  5
7D
330
2F
100
AcDbEntity
  8
--6N-THT. HOLE COVER
 62
124
100
AcDbLine
 10
11.57015084766135
 20
-4.239857077176566
 30
0.0
 11
11.43365906709004
 21
-4.635066057682706
 31
0.0
  0
LINE
  5
7E
330
2F
100
AcDbEntity
  8
--6N-THT. HOLE COVER
 62
124
100
AcDbLine
 10
11.43365906709004
 20
-4.635066057682706
 30
0.0
 11
11.21403024370192
 21
-4.998789455808946
 31
0.0
  0
LINE
  5
7F
330
2F
100
AcDbEntity
  8
--6N-THT. HOLE COVER
 62
124
100
AcDbLine
 10
11.21403024370192
 20
-4.998789455808946
 30
0.0
 11
10.91669281207942
 21
-5.313143199509795
 31
0.0
  0
LINE
  5
80
330
2F
100
AcDbEntity
  8
--6N-THT. HOLE COVER
 62
124
100
AcDbLine
 10
10.91669281207942
 20
-5.313143199509795
 30
0.0
 11
10.55128558603974
 21
-5.560337595101373
 31
0.0
  0
LINE
  5
81
330
2F
100
AcDbEntity
  8
--6N-THT. HOLE COVER
 62
124
100
AcDbLine
 10
10.55128558603974
 20
-5.560337595101373
 30
0.0
 11
10.13168931395012
 21
-5.723999779615041
 31
0.0
  0
LINE
  5
82
330
2F
100
AcDbEntity
  8
--6N-THT. HOLE COVER
 62
124
100
AcDbLine
 10
10.13168931395012
 20
-5.723999779615041
 30
0.0
 11
9.679360078560421
 21
-5.790057379339486
 31
0.0
  0
LINE
  5
83
330
2F
100
AcDbEntity
  8
--6N-THT. HOLE COVER
 62
124
100
AcDbLine
 10
9.679360078560421
 20
-5.790057379339486
 30
0.0
 11
9.61778691364998
 21
-5.791003171072588
 31
0.0
  0
LINE
  5
84
330
2F
100
AcDbEntity
  8
--6N-THT. HOLE COVER
 62
124
100
AcDbLine
 10
10.34827954826869
 20
22.41026752921971
 30
0.0
 11
9.847324630511139
 21
23.25638593117219
 31
0.0
  0
LINE
  5
85
330
2F
100
AcDbEntity
  8
--6N-THT. HOLE COVER
 62
124
100
AcDbLine
 10
12.07411070429043
 20
21.47254367609276
 30
0.0
 11
11.5783398907206
 21
22.30990606241176
 31
0.0
  0
LINE
  5
86
330
2F
100
AcDbEntity
  8
--6N-THT. HOLE COVER
 62
124
100
AcDbLine
 10
-3.336287604359313
 20
42.09773629828305
 30
0.0
 11
-3.236075002729194
 21
42.09773624992339
 31
0.0
  0
LINE
  5
87
330
2F
100
AcDbEntity
  8
--6N-THT. HOLE COVER
 62
124
100
AcDbLine
 10
-1.081508025739822
 20
42.09773513503569
 30
0.0
 11
-0.4802324363099615
 21
42.09773484740799
 31
0.0
  0
LINE
  5
88
330
2F
100
AcDbEntity
  8
--6N-THT. HOLE COVER
 62
124
100
AcDbLine
 10
1.924868131989569
 20
42.09870415354271
 30
0.0
 11
2.526143723960558
 21
42.09870386845977
 31
0.0
  0
LINE
  5
89
330
2F
100
AcDbEntity
  8
--6N-THT. HOLE COVER
 62
124
100
AcDbLine
 10
-3.236074363830994
 20
42.59948788296424
 30
0.0
 11
-3.336286960380675
 21
42.59948793132752
 31
0.0
  0
LINE
  5
8A
330
2F
100
AcDbEntity
  8
--6N-THT. HOLE COVER
 62
124
100
AcDbLine
 10
-3.236074447830105
 20
42.64425735813893
 30
0.0
 11
-3.336287046919096
 21
42.64425740650404
 31
0.0
  0
LINE
  5
8B
330
2F
100
AcDbEntity
  8
--6N-THT. HOLE COVER
 62
124
100
AcDbLine
 10
-0.4802309396181954
 20
43.54740988118646
 30
0.0
 11
1.123172727910059
 21
43.54740911756744
 31
0.0
  0
LINE
  5
8C
330
2F
100
AcDbEntity
  8
--6N-THT. HOLE COVER
 62
124
100
AcDbLine
 10
2.526145218111196
 20
43.54836458182035
 30
0.0
 11
4.129548888180579
 21
43.54836381565109
 31
0.0
  0
LINE
  5
8D
330
2F
100
AcDbEntity
  8
--6N-THT. HOLE COVER
 62
124
100
AcDbLine
 10
-0.4802302701809822
 20
44.03463263320372
 30
0.0
 11
1.12317339735091
 21
44.03463186958288
 31
0.0
  0
LINE
  5
8E
330
2F
100
AcDbEntity
  8
--6N-THT. HOLE COVER
 62
124
100
AcDbLine
 10
2.526145887552047
 20
44.03558484188761
 30
0.0
 11
4.129549557619611
 21
44.035584075722
 31
0.0
  0
LINE
  5
8F
330
2F
100
AcDbEntity
  8
--6N-THT. HOLE COVER
 62
124
100
AcDbLine
 10
1.123173300620692
 20
44.0858456586684
 30
0.0
 11
-0.4802303694486909
 21
44.08584642483219
 31
0.0
  0
LINE
  5
90
330
2F
100
AcDbEntity
  8
--6N-THT. HOLE COVER
 62
124
100
AcDbLine
 10
4.129549460891212
 20
44.08679498850506
 30
0.0
 11
2.526145790830923
 21
44.08679575466703
 31
0.0
  0
LINE
  5
91
330
2F
100
AcDbEntity
  8
--6N-THT. HOLE COVER
 62
124
100
AcDbLine
 10
-0.4802294021901617
 20
44.97648620692053
 30
0.0
 11
1.423812062590513
 21
44.97648529821162
 31
0.0
  0
LINE
  5
92
330
2F
100
AcDbEntity
  8
--6N-THT. HOLE COVER
 62
124
100
AcDbLine
 10
2.526146758082177
 20
44.97742658204152
 30
0.0
 11
4.430188222861033
 21
44.97742567333261
 31
0.0
  0
LINE
  5
93
330
2F
100
AcDbEntity
  8
--6N-THT. HOLE COVER
 62
124
100
AcDbLine
 10
-3.336284567698385
 20
44.97745864898933
 30
0.0
 11
-3.236071968618489
 21
44.97745860062787
 31
0.0
  0
LINE
  5
94
330
2F
100
AcDbEntity
  8
--6N-THT. HOLE COVER
 62
124
100
AcDbLine
 10
-1.081502392768015
 20
45.47073262878984
 30
0.0
 11
1.423812716760949
 21
45.47073143245143
 31
0.0
  0
LINE
  5
95
330
2F
100
AcDbEntity
  8
--6N-THT. HOLE COVER
 62
124
100
AcDbLine
 10
1.924873764961375
 20
45.47073119318338
 30
0.0
 11
4.430188877031469
 21
45.47072999939155
 31
0.0
  0
LINE
  5
96
330
2F
100
AcDbEntity
  8
--6N-THT. HOLE COVER
 62
124
100
AcDbLine
 10
-3.33628391098864
 20
45.47171698333295
 30
0.0
 11
-3.236071314448054
 21
45.47171693496784
 31
0.0
  0
LINE
  5
97
330
2F
100
AcDbEntity
  8
--6N-THT. HOLE COVER
 62
124
100
AcDbLine
 10
4.430188808300954
 20
45.50683009161912
 30
0.0
 11
1.924875640921527
 21
45.50683128795571
 31
0.0
  0
LINE
  5
98
330
2F
100
AcDbEntity
  8
--6N-THT. HOLE COVER
 62
124
100
AcDbLine
 10
1.423812650569743
 20
45.50683152722377
 30
0.0
 11
-1.081500516809683
 21
45.5068327210156
 31
0.0
  0
LINE
  5
99
330
2F
100
AcDbEntity
  8
--6N-THT. HOLE COVER
 62
124
100
AcDbLine
 10
-3.236071383169473
 20
45.50779934430465
 30
0.0
 11
-3.336283979719155
 21
45.50779939266795
 31
0.0
  0
LINE
  5
9A
330
2F
100
AcDbEntity
  8
--6N-THT. HOLE COVER
 62
124
100
AcDbLine
 10
-14.07838828355852
 20
48.12090357092166
 30
0.0
 11
13.58028888107037
 21
48.12090357092166
 31
0.0
  0
LINE
  5
9B
330
2F
100
AcDbEntity
  8
--6N-THT. HOLE COVER
 62
124
100
AcDbLine
 10
-14.07838828355852
 20
52.99343089338254
 30
0.0
 11
13.58028888107037
 21
52.99343089338254
 31
0.0
  0
SPLINE
  5
9C
330
2F
100
AcDbEntity
  8
--6N-THT. HOLE COVER
 62
124
100
AcDbSpline
 70
1064
 71
3
 72
13
 73
9
 74
7
 42
1e-09
 12
0.9999999999998861
 22
-4.770125013e-07
 32
0.0
 13
0.5094698276675736
 23
-0.8604885209556098
 33
0.0
 40
0.0
 40
0.0
 40
0.0
 40
0.0
 40
0.4067279973973197
 40
0.8185415429414636
 40
1.223363078724762
 40
1.613757796959426
 40
2.003175162695192
 40
2.059841890056197
 40
2.059841890056197
 40
2.059841890056197
 40
2.059841890056197
 10
9.847324630511139
 20
23.25638593117947
 30
0.0
 10
9.982900629643561
 20
23.25638586650802
 30
0.0
 10
10.25646241388936
 20
23.23067025278028
 30
0.0
 10
10.65003575467267
 20
23.11463327661342
 30
0.0
 10
11.00828778960157
 20
22.92541748133986
 30
0.0
 10
11.31520060740974
 20
22.67285620318914
 30
0.0
 10
11.49079939569027
 20
22.45313739233786
 30
0.0
 10
11.56856072187558
 20
22.32639684825889
 30
0.0
 10
11.57818405114994
 20
22.31014315878747
 30
0.0
 11
9.847324630511139
 21
23.25638593117947
 31
0.0
 11
10.25223813179036
 21
23.21800989244912
 31
0.0
 11
10.6471122089315
 21
23.10111310252068
 31
0.0
 11
11.00479497576998
 21
22.91152535465517
 31
0.0
 11
11.30584743397048
 21
22.66297867204412
 31
0.0
 11
11.54854813713245
 21
22.3584425437748
 31
0.0
 11
11.57818405114994
 21
22.31014315878747
 31
0.0
  0
SPLINE
  5
9D
330
2F
100
AcDbEntity
  8
--6N-THT. HOLE COVER
 62
124
100
AcDbSpline
 70
1064
 71
3
 72
10
 73
6
 74
4
 42
1e-09
 12
0.5096669513674411
 22
-0.8603717793395006
 32
0.0
 13
0.0070182305697893
 23
-0.9999753719165633
 33
0.0
 40
0.0
 40
0.0
 40
0.0
 40
0.0
 40
0.1061919321539598
 40
0.5281852136407258
 40
0.9489643328525145
 40
0.9489643328525145
 40
0.9489643328525145
 40
0.9489643328525145
 10
12.0741540422714
 20
21.47244380477969
 30
0.0
 10
12.09219488171164
 20
21.44198895757342
 30
0.0
 10
12.1775205750246
 20
21.28792121172168
 30
0.0
 10
12.29003284165743
 20
20.98890597843084
 30
0.0
 10
12.32509916615188
 20
20.70719647255468
 30
0.0
 10
12.32608354111107
 20
20.5669402204785
 30
0.0
 11
12.0741540422714
 21
21.47244380477969
 31
0.0
 11
12.12558677902052
 21
21.37953847637982
 31
0.0
 11
12.27391617392095
 21
20.98447301316082
 31
0.0
 11
12.32608354111107
 21
20.5669402204785
 31
0.0
  0
SPLINE
  5
9E
330
2F
100
AcDbEntity
  8
--6N-THT. HOLE COVER
 62
124
100
AcDbSpline
 70
1064
 71
3
 72
10
 73
6
 74
4
 42
1e-09
 12
-0.5096745283449661
 22
-0.8603672908452161
 32
0.0
 13
-0.0070183696989766
 23
-0.999975370940089
 33
0.0
 40
0.0
 40
0.0
 40
0.0
 40
0.0
 40
0.1062074041636047
 40
0.5282005665213885
 40
0.9489796418403456
 40
0.9489796418403456
 40
0.9489796418403456
 40
0.9489796418403456
 10
-12.67545308346962
 20
21.47246896606157
 30
0.0
 10
-12.69349681967756
 20
21.44200984053226
 30
0.0
 10
-12.77882571242672
 20
21.28793798244529
 30
0.0
 10
-12.89133984498463
 20
20.98891796386331
 30
0.0
 10
-12.92640619831861
 20
20.70720851025995
 30
0.0
 10
-12.92739059268933
 20
20.56695227295131
 30
0.0
 11
-12.67545308346962
 21
21.47246896606157
 31
0.0
 11
-12.72689373640787
 21
21.37955033539765
 31
0.0
 11
-12.87522317203911
 21
20.98448501472012
 31
0.0
 11
-12.92739059268933
 21
20.56695227295131
 31
0.0
  0
SPLINE
  5
9F
330
2F
100
AcDbEntity
  8
--6N-THT. HOLE COVER
 62
124
100
AcDbSpline
 70
1064
 71
3
 72
13
 73
9
 74
7
 42
1e-09
 12
0.5099589495522971
 22
0.860198738531694
 32
0.0
 13
0.9999999999998864
 23
-4.766927678e-07
 33
0.0
 40
0.0
 40
0.0
 40
0.0
 40
0.0
 40
0.3301569574598153
 40
0.6610956744442732
 40
1.004932928288313
 40
1.360455826964792
 40
1.721229278135229
 40
2.061131541351734
 40
2.061131541351734
 40
2.061131541351734
 40
2.061131541351734
 10
-12.17973742107824
 20
22.30974621638416
 30
0.0
 10
-12.12361525600704
 20
22.40441308249229
 30
0.0
 10
-11.99365756619126
 20
22.58414201731054
 30
0.0
 10
-11.75099308319538
 20
22.81742911587592
 30
0.0
 10
-11.46423257702518
 20
23.00963405030382
 30
0.0
 10
-11.13926230298804
 20
23.15299619622313
 30
0.0
 10
-10.79589156481603
 20
23.23803031490067
 30
0.0
 10
-10.56192263925425
 20
23.25639567043458
 30
0.0
 10
-10.44862188484876
 20
23.25639561642493
 30
0.0
 11
-12.17973742107824
 21
22.30974621638416
 31
0.0
 11
-11.98640896355937
 21
22.57737977943725
 31
0.0
 11
-11.74812606681917
 21
22.80703538141643
 31
0.0
 11
-11.4627162930592
 21
22.99877822528106
 31
0.0
 11
-11.1375961156973
 21
23.14263023866806
 31
0.0
 11
-10.78746821568893
 21
23.22962412756351
 31
0.0
 11
-10.44862188484876
 21
23.25639561642493
 31
0.0
  0
SPLINE
  5
A0
330
2F
100
AcDbEntity
  8
--6N-THT. HOLE COVER
 62
124
100
AcDbSpline
 70
1064
 71
3
 72
9
 73
5
 74
3
 42
1e-09
 12
0.0073153836268893
 22
0.9999732422232064
 32
0.0
 13
-0.0090797260241317
 23
0.9999587784380548
 33
0.0
 40
0.0
 40
0.0
 40
0.0
 40
0.0
 40
0.0092389584243228
 40
0.0138941168560658
 40
0.0138941168560658
 40
0.0138941168560658
 40
0.0138941168560658
 10
12.32608354111107
 20
10.04490437132699
 30
0.0
 10
12.3261060699528
 20
10.04798394173044
 30
0.0
 10
12.32613949603381
 20
10.05261525949047
 30
0.0
 10
12.32612265412692
 20
10.05724668244621
 30
0.0
 10
12.3261085649392
 20
10.05879833795916
 30
0.0
 11
12.32608354111107
 21
10.04490437132699
 31
0.0
 11
12.32612829687969
 21
10.05414322134675
 31
0.0
 11
12.3261085649392
 21
10.05879833795916
 31
0.0
  0
SPLINE
  5
A1
330
2F
100
AcDbEntity
  8
--6N-THT. HOLE COVER
 62
124
100
AcDbSpline
 70
1064
 71
3
 72
9
 73
5
 74
3
 42
1e-09
 12
0.0070181933012629
 22
-0.9999753721781282
 32
0.0
 13
-0.0087831096329214
 23
-0.9999614277486788
 33
0.0
 40
0.0
 40
0.0
 40
0.0
 40
0.0
 40
0.0094979728233907
 40
0.0141854299307533
 40
0.0141854299307533
 40
0.0141854299307533
 40
0.0141854299307533
 10
12.32608354111107
 20
20.5669402204785
 30
0.0
 10
12.32610576064749
 20
20.56377430750883
 30
0.0
 10
12.32613941918837
 20
20.55904588629107
 30
0.0
 10
12.32612280768569
 20
20.55431736080397
 30
0.0
 10
12.32610908420247
 20
20.5527549353701
 30
0.0
 11
12.32608354111107
 21
20.5669402204785
 31
0.0
 11
12.32612829687969
 21
20.5574423531034
 31
0.0
 11
12.32610908420247
 21
20.5527549353701
 31
0.0
  0
SPLINE
  5
A2
330
2F
100
AcDbEntity
  8
--6N-THT. HOLE COVER
 62
124
100
AcDbSpline
 70
1064
 71
3
 72
9
 73
5
 74
3
 42
1e-09
 12
-0.0070183727307885
 22
-0.99997537091881
 32
0.0
 13
0.0087832890493067
 23
-0.9999614261727682
 33
0.0
 40
0.0
 40
0.0
 40
0.0
 40
0.0
 40
0.0094979728270372
 40
0.0141854299380452
 40
0.0141854299380452
 40
0.0141854299380452
 40
0.0141854299380452
 10
-12.92739059268933
 20
20.56695227295131
 30
0.0
 10
-12.92741281279383
 20
20.56378635998441
 30
0.0
 10
-12.92744647034653
 20
20.55905793876175
 30
0.0
 10
-12.9274298595443
 20
20.55432941326825
 30
0.0
 10
-12.92741613578073
 20
20.55276698783564
 30
0.0
 11
-12.92739059268933
 21
20.56695227295131
 31
0.0
 11
-12.92743534845977
 21
20.55745440557257
 31
0.0
 11
-12.92741613578073
 21
20.55276698783564
 31
0.0
  0
SPLINE
  5
A3
330
2F
100
AcDbEntity
  8
--6N-THT. HOLE COVER
 62
124
100
AcDbSpline
 70
1064
 71
3
 72
9
 73
5
 74
3
 42
1e-09
 12
-0.0073155668176967
 22
0.9999732408830428
 32
0.0
 13
0.009079909200983
 23
0.9999587767747738
 33
0.0
 40
0.0
 40
0.0
 40
0.0
 40
0.0
 40
0.0092389584243316
 40
0.0138941168560823
 40
0.0138941168560823
 40
0.0138941168560823
 40
0.0138941168560823
 10
-12.92739059268933
 20
10.04491642379616
 30
0.0
 10
-12.92741312209523
 20
10.04799599419548
 30
0.0
 10
-12.92744654719196
 20
10.05262731195813
 30
0.0
 10
-12.92742970598942
 20
10.05725873491796
 30
0.0
 10
-12.92741561651746
 20
10.05881039042833
 30
0.0
 11
-12.92739059268933
 21
10.04491642379616
 31
0.0
 11
-12.92743534845977
 21
10.05415527381592
 31
0.0
 11
-12.92741561651746
 21
10.05881039042833
 31
0.0
  0
SPLINE
  5
A4
330
2F
100
AcDbEntity
  8
--6N-THT. HOLE COVER
 62
124
100
AcDbSpline
 70
1064
 71
3
 72
24
 73
20
 74
18
 42
1e-09
 12
3.3362158166e-06
 22
0.9999999999944348
 32
0.0
 13
0.0
 23
-1.0
 33
0.0
 40
0.0
 40
0.0
 40
0.0
 40
0.0
 40
0.8520751083575223
 40
1.782463700851929
 40
2.754292854912378
 40
3.756691769996083
 40
4.766917691071043
 40
5.761357551476232
 40
6.70788629934467
 40
7.622182978107572
 40
8.517394356328662
 40
9.43160959248907
 40
10.37797092706025
 40
11.3722792034557
 40
12.38283430081336
 40
13.38503033825058
 40
14.35715453523973
 40
15.28863521268274
 40
16.14271162655931
 40
16.14271162655931
 40
16.14271162655931
 40
16.14271162655931
 10
-5.41155134111068
 20
-1.057663184863486
 30
0.0
 10
-5.411550393541862
 20
-0.7736381487458927
 30
0.0
 10
-5.353618638497293
 20
-0.1783353658827827
 30
0.0
 10
-5.09969246291393
 20
0.7088524706649862
 30
0.0
 10
-4.673209841009546
 20
1.583469723866544
 30
0.0
 10
-4.088559535754635
 20
2.394379463952618
 30
0.0
 10
-3.367383035947676
 20
3.098023207141689
 30
0.0
 10
-2.546491672849731
 20
3.650454286177438
 30
0.0
 10
-1.665163150289183
 20
4.025300916849488
 30
0.0
 10
-0.7593588045336142
 20
4.212412191416465
 30
0.0
 10
0.1547787773364257
 20
4.212736147164691
 30
0.0
 10
1.060632935117424
 20
4.026273969756481
 30
0.0
 10
1.9420979810134
 20
3.652070995926557
 30
0.0
 10
2.763354610046279
 20
3.100162365509553
 30
0.0
 10
3.484943808818196
 20
2.396935525085291
 30
0.0
 10
4.070128542613386
 20
1.586241321736943
 30
0.0
 10
4.497286213339378
 20
0.7115107745576479
 30
0.0
 10
4.751965873697794
 20
-0.1766492418934602
 30
0.0
 10
4.810133699540529
 20
-0.7729905014019334
 30
0.0
 10
4.810133699540529
 20
-1.057682639360791
 30
0.0
 11
-5.41155134111068
 21
-1.057663184863486
 31
0.0
 11
-5.331850221748027
 21
-0.2093237941389816
 31
0.0
 11
-5.078650176310475
 21
0.6859486057674076
 31
0.0
 11
-4.654224063717265
 21
1.56019935905897
 31
0.0
 11
-4.068161360290105
 21
2.373423862263734
 31
0.0
 11
-3.344084566741003
 21
3.077887636105515
 31
0.0
 11
-2.517619165089854
 21
3.630938787298873
 31
0.0
 11
-1.645587751148923
 21
3.99901199148735
 31
0.0
 11
-0.7498715022084071
 21
4.182399063498451
 31
0.0
 11
0.1453398208304861
 21
4.182713387308467
 31
0.0
 11
1.041103162209765
 21
3.999963464548272
 31
0.0
 11
1.913227714880122
 21
3.632541989671153
 31
0.0
 11
2.739941135219851
 21
3.08009844582375
 31
0.0
 11
3.464668230109964
 21
2.375831278672194
 31
0.0
 11
4.051071772781142
 21
1.563102675387199
 31
0.0
 11
4.476130997620202
 21
0.6888314876250661
 31
0.0
 11
4.730067419650367
 21
-0.2073674556995684
 31
0.0
 11
4.810133699540529
 21
-1.057682639360791
 31
0.0
  0
SPLINE
  5
A5
330
2F
100
AcDbEntity
  8
--6N-THT. HOLE COVER
 62
124
100
AcDbSpline
 70
1064
 71
3
 72
16
 73
12
 74
10
 42
1e-09
 12
-0.0075227403921164
 22
-0.9999717037881586
 32
0.0
 13
0.0126391803774769
 23
-0.9999201223694749
 33
0.0
 40
0.0
 40
0.0
 40
0.0
 40
0.0
 40
1.236665258682245
 40
2.48103668456455
 40
3.713882969703365
 40
4.916184895665608
 40
6.069417048112043
 40
7.155792032201558
 40
8.158570946140758
 40
9.06228929797473
 40
9.852988594758486
 40
9.852988594758486
 40
9.852988594758486
 40
9.852988594758486
 10
9.617781537761402
 20
4.442329541076105
 30
0.0
 10
9.614680500530397
 20
4.030119452496069
 30
0.0
 10
9.609154991587655
 20
3.20312525022711
 30
0.0
 10
9.602854301949986
 20
1.965179800443535
 30
0.0
 10
9.59858472573364
 20
0.7386801338353559
 30
0.0
 10
9.59640777939821
 20
-0.4574452507510254
 30
0.0
 10
9.596354242616544
 20
-1.604748935947617
 30
0.0
 10
9.598420019897283
 20
-2.685543066304432
 30
0.0
 10
9.602560469719482
 20
-3.683159615854661
 30
0.0
 10
9.608707468448118
 20
-4.582205203044177
 30
0.0
 10
9.614446916702923
 20
-5.146983745058507
 30
0.0
 10
9.61777818038172
 20
-5.410529124257664
 30
0.0
 11
9.617781537761402
 21
4.442329541076105
 31
0.0
 11
9.609499205791508
 21
3.205692017381807
 31
0.0
 11
9.603169893061931
 21
1.96133668816401
 31
0.0
 11
9.59889487594046
 21
0.7284978150710231
 31
0.0
 11
9.596740759920065
 21
-0.4738021811681393
 31
0.0
 11
9.596740777738887
 21
-1.627034333614574
 31
0.0
 11
9.59889489375928
 21
-2.713407182060109
 31
0.0
 11
9.603169887968761
 21
-3.716176983492914
 31
0.0
 11
9.609499210891954
 21
-4.61987317088824
 31
0.0
 11
9.61777818038172
 21
-5.410529124257664
 31
0.0
  0
SPLINE
  5
A6
330
2F
100
AcDbEntity
  8
--6N-THT. HOLE COVER
 62
124
100
AcDbSpline
 70
1064
 71
3
 72
10
 73
6
 74
4
 42
1e-09
 12
0.9999065674091568
 22
-0.0136695446901961
 32
0.0
 13
0.9999999999998752
 23
-4.994352885e-07
 33
0.0
 40
0.0
 40
0.0
 40
0.0
 40
0.0
 40
0.0085087016754796
 40
0.0170014412402599
 40
0.0254827793220692
 40
0.0254827793220692
 40
0.0254827793220692
 40
0.0254827793220692
 10
-10.94958659983785
 20
22.41027769300126
 30
0.0
 10
-10.94675063094271
 20
22.41023892297533
 30
0.0
 10
-10.94108382800758
 20
22.41017436586744
 30
0.0
 10
-10.93258974015129
 20
22.4101163161262
 30
0.0
 10
-10.92693170549138
 20
22.41010342105298
 30
0.0
 10
-10.92410459279745
 20
22.41010341964102
 30
0.0
 11
-10.94958659983785
 21
22.41027769300126
 31
0.0
 11
-10.94107845015787
 21
22.41018077434819
 31
0.0
 11
-10.93258590886944
 21
22.41012274177592
 31
0.0
 11
-10.92410459279745
 21
22.41010341964102
 31
0.0
  0
SPLINE
  5
A7
330
2F
100
AcDbEntity
  8
--6N-THT. HOLE COVER
 62
124
100
AcDbSpline
 70
1064
 71
3
 72
16
 73
12
 74
10
 42
1e-09
 12
0.0157957185255626
 22
0.9998752398555838
 32
0.0
 13
-0.0094013010595194
 23
0.9999558067926743
 33
0.0
 40
0.0
 40
0.0
 40
0.0
 40
0.0
 40
0.6326536256012291
 40
1.355698650436488
 40
2.157933031791204
 40
3.026941309796904
 40
3.94938685759481
 40
4.911106450788045
 40
5.89735992224841
 40
6.892973131679933
 40
7.882449025818183
 40
7.882449025818183
 40
7.882449025818183
 40
7.882449025818183
 10
-12.22314449126861
 20
-3.799878086952958
 30
0.0
 10
-12.21981341840389
 20
-3.58901985507178
 30
0.0
 10
-12.21406222944738
 20
-3.137154631311542
 30
0.0
 10
-12.20792173831948
 20
-2.417868455036214
 30
0.0
 10
-12.20378068674124
 20
-1.61978199503786
 30
0.0
 10
-12.20171626178192
 20
-0.7552207759129934
 30
0.0
 10
-12.20176964067665
 20
0.1625045244385952
 30
0.0
 10
-12.20394550101352
 20
1.119308977976515
 30
0.0
 10
-12.20821444670866
 20
2.100495803272335
 30
0.0
 10
-12.21451175370469
 20
3.090923931809304
 30
0.0
 10
-12.2200436203437
 20
3.752597716553891
 30
0.0
 10
-12.22314440726768
 20
4.082408438562197
 30
0.0
 11
-12.22314449126861
 21
-3.799878086952958
 31
0.0
 11
-12.21485804338772
 21
-3.167278731303667
 31
0.0
 11
-12.20852958335854
 21
-2.44426140195901
 31
0.0
 11
-12.20425570148836
 21
-1.642038405179846
 31
0.0
 11
-12.2021024916412
 21
-0.7730327947665501
 31
0.0
 11
-12.2021024559981
 21
0.1494127530313563
 31
0.0
 11
-12.20425557423004
 21
1.111129935998178
 31
0.0
 11
-12.20852926263978
 21
2.097374147922892
 31
0.0
 11
-12.21485800520895
 21
3.092967242420854
 31
0.0
 11
-12.22314440726768
 21
4.082408438562197
 31
0.0
  0
SPLINE
  5
A8
330
2F
100
AcDbEntity
  8
--6N-THT. HOLE COVER
 62
124
100
AcDbSpline
 70
1064
 71
3
 72
25
 73
21
 74
19
 42
1e-09
 12
-3.3378172674e-06
 22
-0.9999999999944295
 32
0.0
 13
0.0
 23
1.0
 33
0.0
 40
0.0
 40
0.0
 40
0.0
 40
0.0
 40
0.775854836039108
 40
1.569047350065745
 40
2.361809613082747
 40
3.167685684561921
 40
3.993876894296771
 40
4.846435476139449
 40
5.700904989606652
 40
6.554977613655073
 40
7.403195939702153
 40
8.251378254452685
 40
9.105452617879783
 40
9.95986429871863
 40
10.81255067682157
 40
11.63912599244306
 40
12.44470396593822
 40
13.23779016288369
 40
14.03184860941767
 40
14.80957736400857
 40
14.80957736400857
 40
14.80957736400857
 40
14.80957736400857
 10
4.810133699540529
 20
-1.057697209229445
 30
0.0
 10
4.810132836319972
 20
-1.316315487907707
 30
0.0
 10
4.76365199794611
 20
-1.84078431632774
 30
0.0
 10
4.540220228970799
 20
-2.60141151317183
 30
0.0
 10
4.15628064047163
 20
-3.307227468631509
 30
0.0
 10
3.623845806050348
 20
-3.923305860958123
 30
0.0
 10
2.962775842478438
 20
-4.430796501234961
 30
0.0
 10
2.2070221269189
 20
-4.816602078081313
 30
0.0
 10
1.392376763099158
 20
-5.081669532197366
 30
0.0
 10
0.5515432934029425
 20
-5.234111890010366
 30
0.0
 10
-0.2991029387773649
 20
-5.283745354282729
 30
0.0
 10
-1.149770662877262
 20
-5.234485366829114
 30
0.0
 10
-1.990644563574977
 20
-5.082448944843775
 30
0.0
 10
-2.805454273340982
 20
-4.817822391353701
 30
0.0
 10
-3.561587315850628
 20
-4.432435861043781
 30
0.0
 10
-4.223066881904655
 20
-3.92535972241963
 30
0.0
 10
-4.756053598399456
 20
-3.309588823338922
 30
0.0
 10
-5.140694876224913
 20
-2.603807169109022
 30
0.0
 10
-5.364876765080319
 20
-1.84231449002343
 30
0.0
 10
-5.41155134111068
 20
-1.316920680568863
 30
0.0
 10
-5.41155134111068
 20
-1.057677762371895
 30
0.0
 11
4.810133699540529
 21
-1.057697209229445
 31
0.0
 11
4.739237256240812
 21
-1.830306050062063
 31
0.0
 11
4.514029096779268
 21
-2.59085562058317
 31
0.0
 11
4.135169426650463
 21
-3.287230057228953
 31
0.0
 11
3.60980790791109
 21
-3.8983204901524
 31
0.0
 11
2.956668788039678
 21
-4.404286106708241
 31
0.0
 11
2.199183993659971
 21
-4.795531453974035
 31
0.0
 11
1.387642722751479
 21
-5.062961659928987
 31
0.0
 11
0.5476219817701349
 21
-5.217251004571153
 31
0.0
 11
-0.2991184268594225
 21
-5.267301069865425
 31
0.0
 11
-1.145845064880631
 21
-5.217629754995869
 31
0.0
 11
-1.985941719867696
 21
-5.063744640241566
 31
0.0
 11
-2.797576205881341
 21
-4.796782505347437
 31
0.0
 11
-3.555426165889002
 21
-4.405966055439421
 31
0.0
 11
-4.209216717248636
 21
-3.900214468840204
 31
0.0
 11
-4.734843764479592
 21
-3.289745732048686
 31
0.0
 11
-5.114399385149226
 21
-2.593381426097039
 31
0.0
 11
-5.340309095039629
 21
-1.832136643199191
 31
0.0
 11
-5.41155134111068
 21
-1.057677762371895
 31
0.0
  0
SPLINE
  5
A9
330
2F
100
AcDbEntity
  8
--6N-THT. HOLE COVER
 62
124
100
AcDbSpline
 70
1064
 71
3
 72
16
 73
12
 74
10
 42
1e-09
 12
-0.0094026688912367
 22
-0.9999557939317726
 32
0.0
 13
0.0157980163248047
 23
-0.9998752035530241
 33
0.0
 40
0.0
 40
0.0
 40
0.0
 40
0.0
 40
0.9894758965877414
 40
1.985089104239031
 40
2.971342573301451
 40
3.933062167203214
 40
4.855507714995664
 40
5.724515996327439
 40
6.526750383532271
 40
7.249795421525832
 40
7.882449070531486
 40
7.882449070531486
 40
7.882449070531486
 40
7.882449070531486
 10
11.62173486771098
 20
4.08239705807864
 30
0.0
 10
11.61863362963382
 20
3.752586339495724
 30
0.0
 10
11.6131009609889
 20
3.090912561077589
 30
0.0
 10
11.60680273492528
 20
2.100484438778984
 30
0.0
 10
11.60253317137759
 20
1.11929761713028
 30
0.0
 10
11.60035698868551
 20
0.1624931646786535
 30
0.0
 10
11.60030360747518
 20
-0.7552321372607907
 30
0.0
 10
11.6023683317511
 20
-1.61979335899669
 30
0.0
 10
11.60650998420849
 20
-2.417879823709339
 30
0.0
 10
11.61265137137201
 20
-3.137166006867391
 30
0.0
 10
11.6184033941536
 20
-3.589031232863899
 30
0.0
 10
11.62173495171191
 20
-3.799889464889929
 30
0.0
 11
11.62173486771098
 21
4.08239705807864
 31
0.0
 11
11.61344726167044
 21
3.092955869571596
 31
0.0
 11
11.60711759768128
 21
2.09736278271157
 31
0.0
 11
11.60284328818125
 21
1.111118575876389
 31
0.0
 11
11.60068985431098
 21
0.1494013929077482
 31
0.0
 11
11.60068989250067
 21
-0.7730441548847012
 31
0.0
 11
11.6028434154523
 21
-1.64204976784822
 31
0.0
 11
11.60711791840185
 21
-2.444272767168513
 31
0.0
 11
11.61344729985103
 21
-3.16729010160634
 31
0.0
 11
11.62173495171191
 21
-3.799889464889929
 31
0.0
  0
SPLINE
  5
AA
330
2F
100
AcDbEntity
  8
--6N-THT. HOLE COVER
 62
124
100
AcDbSpline
 70
1064
 71
3
 72
14
 73
10
 74
8
 42
1e-09
 12
-0.0851422093792165
 22
0.9963688093181287
 32
0.0
 13
-0.9999583234325521
 23
0.0091296986784525
 33
0.0
 40
0.0
 40
0.0
 40
0.0
 40
0.0
 40
0.0949756214403096
 40
0.2636313216355479
 40
0.5128878492020327
 40
0.8346393461973548
 40
1.214879728109583
 40
1.635976787567857
 40
2.077993746184433
 40
2.077993746184433
 40
2.077993746184433
 40
2.077993746184433
 10
11.62173453427022
 20
4.082389258972398
 30
0.0
 10
11.61903905618802
 20
4.113932841255308
 30
0.0
 10
11.54661205780495
 20
4.183718560393291
 30
0.0
 10
11.39129226032649
 20
4.24452339559324
 30
0.0
 10
11.15085719684392
 20
4.309808901651043
 30
0.0
 10
10.83870925431283
 20
4.362555117950025
 30
0.0
 10
10.46637160206413
 20
4.405099382993271
 30
0.0
 10
10.05280924657287
 20
4.432900356498485
 30
0.0
 10
9.765118555303232
 20
4.44098438052846
 30
0.0
 10
9.617785709680902
 20
4.442329541076105
 30
0.0
 11
11.62173453427022
 21
4.082389258972398
 31
0.0
 11
11.56589241127039
 21
4.159213903240015
 31
0.0
 11
11.41418812142183
 21
4.232906193541566
 31
0.0
 11
11.17408667893141
 21
4.299839846127724
 31
0.0
 11
10.85740301605983
 21
4.356721156669664
 31
0.0
 11
10.47972046361064
 21
4.400751119334017
 31
0.0
 11
10.05962400260068
 21
4.429763132902735
 31
0.0
 11
9.617785709680902
 21
4.442329541076105
 31
0.0
  0
SPLINE
  5
AB
330
2F
100
AcDbEntity
  8
--6N-THT. HOLE COVER
 62
124
100
AcDbSpline
 70
1064
 71
3
 72
8
 73
4
 74
2
 42
1e-09
 12
-0.0182587554195437
 22
-0.9998332950299911
 32
0.0
 13
-0.0825411185367991
 23
-0.9965876598426724
 33
0.0
 40
0.0
 40
0.0
 40
0.0
 40
0.0
 40
0.0841492849938191
 40
0.0841492849938191
 40
0.0841492849938191
 40
0.0841492849938191
 10
11.62173453427022
 20
-3.799897671260623
 30
0.0
 10
11.6212223805324
 20
-3.827942756890553
 30
0.0
 10
11.61979575758477
 20
-3.855985313078832
 30
0.0
 10
11.61748049888228
 20
-3.883939359415307
 30
0.0
 11
11.62173453427022
 21
-3.799897671260623
 31
0.0
 11
11.61748049888228
 21
-3.883939359415307
 31
0.0
  0
SPLINE
  5
AC
330
2F
100
AcDbEntity
  8
--6N-THT. HOLE COVER
 62
124
100
AcDbSpline
 70
1064
 71
3
 72
14
 73
10
 74
8
 42
1e-09
 12
-0.0825411133588404
 22
-0.9965876602715305
 32
0.0
 13
-0.9999852426369642
 23
-0.0054327256779198
 33
0.0
 40
0.0
 40
0.0
 40
0.0
 40
0.0
 40
0.2784273686446791
 40
0.6501915231685351
 40
1.037931561764828
 40
1.444223288916997
 40
1.867941090748321
 40
2.304887110485941
 40
2.74875053443274
 40
2.74875053443274
 40
2.74875053443274
 40
2.74875053443274
 10
11.61748049888228
 20
-3.883939359415307
 30
0.0
 10
11.60981993054978
 20
-3.976431786039694
 30
0.0
 10
11.56919245613957
 20
-4.191113295368324
 30
0.0
 10
11.42483754895835
 20
-4.509885057054549
 30
0.0
 10
11.18023956072623
 20
-4.816484605390287
 30
0.0
 10
10.86013458337194
 20
-5.071142687620542
 30
0.0
 10
10.48051250666463
 20
-5.2624129689428
 30
0.0
 10
10.05989242000151
 20
-5.381757811251706
 30
0.0
 10
9.76573800091194
 20
-5.409725328184075
 30
0.0
 10
9.617785709680902
 20
-5.410529124257664
 30
0.0
 11
11.61748049888228
 21
-3.883939359415307
 31
0.0
 11
11.56589240109133
 21
-4.157545769750868
 31
0.0
 11
11.41418810361028
 21
-4.496948764308399
 31
0.0
 11
11.17408665856055
 21
-4.801405056106887
 31
0.0
 11
10.85740299823919
 21
-5.055932906916495
 31
0.0
 11
10.47972045089045
 21
-5.248007551304908
 31
0.0
 11
10.05962399496093
 21
-5.368177397273029
 31
0.0
 11
9.617785709680902
 21
-5.410529124257664
 31
0.0
  0
SPLINE
  5
AD
330
2F
100
AcDbEntity
  8
--6N-THT. HOLE COVER
 62
124
100
AcDbSpline
 70
1064
 71
3
 72
14
 73
10
 74
8
 42
1e-09
 12
0.0898130764328554
 22
0.995958639352893
 32
0.0
 13
0.9999746446911812
 23
0.0071210936481606
 33
0.0
 40
0.0
 40
0.0
 40
0.0
 40
0.0
 40
0.095001271814756
 40
0.2637218695105311
 40
0.513102370813721
 40
0.8349917101404833
 40
1.215414597036932
 40
1.636543377297227
 40
2.077988476574371
 40
2.077988476574371
 40
2.077988476574371
 40
2.077988476574371
 10
-12.22314407381782
 20
4.082400639455954
 30
0.0
 10
-12.22029995498891
 20
4.113939751927094
 30
0.0
 10
-12.14810925620777
 20
4.183767251584814
 30
0.0
 10
-11.99253498998428
 20
4.244561377271165
 30
0.0
 10
-11.7520784518924
 20
4.309883851750425
 30
0.0
 10
-11.43974257661006
 20
4.362590280269342
 30
0.0
 10
-11.06730657269826
 20
4.405249181846808
 30
0.0
 10
-10.65384695751965
 20
4.432722635626077
 30
0.0
 10
-10.36634411003245
 20
4.44129115012325
 30
0.0
 10
-10.21919947459901
 20
4.442339007420741
 30
0.0
 11
-12.22314407381782
 21
4.082400639455954
 31
0.0
 11
-12.16728066364885
 21
4.159241520832438
 31
0.0
 11
-12.01551099265816
 21
4.232947742104443
 31
0.0
 11
-11.7752866760693
 21
4.299902294971616
 31
0.0
 11
-11.45846232894109
 21
4.356780057225478
 31
0.0
 11
-11.08059933562981
 21
4.400838327283054
 31
0.0
 11
-10.6604656481486
 21
4.4297715989087
 31
0.0
 11
-10.21919947459901
 21
4.442339007420741
 31
0.0
  0
SPLINE
  5
AE
330
2F
100
AcDbEntity
  8
--6N-THT. HOLE COVER
 62
124
100
AcDbSpline
 70
1064
 71
3
 72
8
 73
4
 74
2
 42
1e-09
 12
0.0182560935099862
 22
-0.9998333436377057
 32
0.0
 13
0.0825291021302985
 23
-0.9965886550134747
 33
0.0
 40
0.0
 40
0.0
 40
0.0
 40
0.0
 40
0.084136846787045
 40
0.084136846787045
 40
0.084136846787045
 40
0.084136846787045
 10
-12.22314407381782
 20
-3.799886293318195
 30
0.0
 10
-12.22263207043696
 20
-3.827927234933603
 30
0.0
 10
-12.2212058651629
 20
-3.855965648147881
 30
0.0
 10
-12.21889128568909
 20
-3.883915590473407
 30
0.0
 11
-12.22314407381782
 21
-3.799886293318195
 31
0.0
 11
-12.21889128568909
 21
-3.883915590473407
 31
0.0
  0
SPLINE
  5
AF
330
2F
100
AcDbEntity
  8
--6N-THT. HOLE COVER
 62
124
100
AcDbSpline
 70
1064
 71
3
 72
14
 73
10
 74
8
 42
1e-09
 12
0.0825291058307199
 22
-0.996588654707037
 32
0.0
 13
0.9999852374552123
 23
-0.0054336793835038
 33
0.0
 40
0.0
 40
0.0
 40
0.0
 40
0.0
 40
0.2784396507853543
 40
0.6502035711146732
 40
1.037943291507229
 40
1.444234688602069
 40
1.867952209596017
 40
2.30489804136355
 40
2.748761406579333
 40
2.748761406579333
 40
2.748761406579333
 40
2.748761406579333
 10
-12.21889128568909
 20
-3.883915590473407
 30
0.0
 10
-12.21123149388672
 20
-3.976412189471164
 30
0.0
 10
-12.17060476161606
 20
-4.191098143046602
 30
0.0
 10
-12.02624899140607
 20
-4.509873826364449
 30
0.0
 10
-11.78165178976466
 20
-4.81647365220266
 30
0.0
 10
-11.46154745369171
 20
-5.07113205254307
 30
0.0
 10
-11.08192585200173
 20
-5.262402698383536
 30
0.0
 10
-10.66130605731866
 20
-5.381747938440585
 30
0.0
 10
-10.36715174548666
 20
-5.409715720846262
 30
0.0
 10
-10.21919947459901
 20
-5.410519657918484
 30
0.0
 11
-12.21889128568909
 21
-3.883915590473407
 31
0.0
 11
-12.16730288753933
 21
-4.157534442721953
 31
0.0
 11
-12.01559948857903
 21
-4.496937582369355
 31
0.0
 11
-11.77549884788095
 21
-4.801394103249549
 31
0.0
 11
-11.45881585445931
 21
-5.055922256959092
 31
0.0
 11
-11.08113380599752
 21
-5.247997262795252
 31
0.0
 11
-10.66103766062042
 21
-5.368167510936473
 31
0.0
 11
-10.21919947459901
 21
-5.410519657918484
 31
0.0
  0
SPLINE
  5
B0
330
2F
100
AcDbEntity
  8
--6N-THT. HOLE COVER
 62
124
100
AcDbSpline
 70
1064
 71
3
 72
13
 73
9
 74
7
 42
1e-09
 12
0.9999746795808855
 22
-0.0071161925989561
 32
0.0
 13
0.0006670494224616
 23
-0.9999997775225091
 33
0.0
 40
0.0
 40
0.0
 40
0.0
 40
0.0
 40
0.5226464640555574
 40
1.040409663369969
 40
1.548699278088675
 40
2.045288370142191
 40
2.531039303438035
 40
3.009859403736887
 40
3.009859403736887
 40
3.009859403736887
 40
3.009859403736887
 10
9.617787779079663
 20
5.925454905682272
 30
0.0
 10
9.791998855889007
 20
5.924215154715811
 30
0.0
 10
10.13992922564019
 20
5.880174680096905
 30
0.0
 10
10.62651026593299
 20
5.693650604628146
 30
0.0
 10
11.04617295750324
 20
5.398606426016114
 30
0.0
 10
11.36983125484033
 20
5.013857827187574
 30
0.0
 10
11.57455219283616
 20
4.565302599609408
 30
0.0
 10
11.62162806871309
 20
4.241995923563117
 30
0.0
 10
11.62173453427022
 20
4.082389258972398
 30
0.0
 11
9.617787779079663
 21
5.925454905682272
 31
0.0
 11
10.13625094311101
 21
5.85946040642375
 31
0.0
 11
10.61940894331019
 21
5.673350016042604
 31
0.0
 11
11.03436074621095
 21
5.379797067325853
 31
0.0
 11
11.35284986893021
 21
4.998791286456253
 31
0.0
 11
11.55318854132019
 21
4.556277574190971
 31
0.0
 11
11.62173453427022
 21
4.082389258972398
 31
0.0
  0
SPLINE
  5
B1
330
2F
100
AcDbEntity
  8
--6N-THT. HOLE COVER
 62
124
100
AcDbSpline
 70
1064
 71
3
 72
12
 73
8
 74
6
 42
1e-09
 12
0.9999065800303499
 22
0.0136686214377839
 32
0.0
 13
0.5096669510355831
 23
-0.8603717795360866
 33
0.0
 40
0.0
 40
0.0
 40
0.0
 40
0.0
 40
0.4413339982508278
 40
0.8797966778731195
 40
1.309582056957926
 40
1.738218290073991
 40
2.053356967056559
 40
2.053356967056559
 40
2.053356967056559
 40
2.053356967056559
 10
10.34827954826869
 20
22.41026752921971
 30
0.0
 10
10.49537713788272
 20
22.41227833833628
 30
0.0
 10
10.79001670480285
 20
22.38523794018644
 30
0.0
 10
11.2093720338847
 20
22.25260565420132
 30
0.0
 10
11.58654444021413
 20
22.03426947141421
 30
0.0
 10
11.87560997238949
 20
21.76557586512516
 30
0.0
 10
12.02061545272104
 20
21.56282261288507
 30
0.0
 10
12.0741540422714
 20
21.47244380477969
 30
0.0
 11
10.34827954826869
 21
22.41026752921971
 31
0.0
 11
10.78772958655099
 21
22.36953226359219
 31
0.0
 11
11.20564284270949
 21
22.23687469031211
 31
0.0
 11
11.57729997263959
 21
22.02103574608009
 31
0.0
 11
11.89087999620096
 21
21.72880879803597
 31
0.0
 11
12.0741540422714
 21
21.47244380477969
 31
0.0
  0
SPLINE
  5
B2
330
2F
100
AcDbEntity
  8
--6N-THT. HOLE COVER
 62
124
100
AcDbSpline
 70
1064
 71
3
 72
13
 73
9
 74
7
 42
1e-09
 12
0.0006669523794088
 22
0.9999997775872369
 32
0.0
 13
0.9999746863770445
 23
0.0071152375316167
 33
0.0
 40
0.0
 40
0.0
 40
0.0
 40
0.0
 40
0.4788200289659853
 40
0.9645707736570615
 40
1.461159618299031
 40
1.969448993290594
 40
2.48721203267257
 40
3.009858449201883
 40
3.009858449201883
 40
3.009858449201883
 40
3.009858449201883
 10
-12.22314407381782
 20
4.082400639455954
 30
0.0
 10
-12.22303762376528
 20
4.242007280279388
 30
0.0
 10
-12.17596179147
 20
4.565313876849872
 30
0.0
 10
-11.97124089134026
 20
5.013868945623944
 30
0.0
 10
-11.64758259051572
 20
5.398617261300547
 30
0.0
 10
-11.22791988088866
 20
5.693661052801103
 30
0.0
 10
-10.74133881497577
 20
5.880184662459988
 30
0.0
 10
-10.3934084698803
 20
5.924224787557052
 30
0.0
 10
-10.21919740772864
 20
5.92546437202327
 30
0.0
 11
-12.22314407381782
 21
4.082400639455954
 31
0.0
 11
-12.15459812160952
 21
4.556288888492417
 31
0.0
 11
-11.95425948484808
 21
4.998802409854761
 31
0.0
 11
-11.63577038249059
 21
5.379807885277841
 31
0.0
 11
-11.22081859232821
 21
5.673360436911025
 31
0.0
 11
-10.7376605870304
 21
5.859470369119662
 31
0.0
 11
-10.21919740772864
 21
5.92546437202327
 31
0.0
  0
SPLINE
  5
B3
330
2F
100
AcDbEntity
  8
--6N-THT. HOLE COVER
 62
124
100
AcDbSpline
 70
1064
 71
3
 72
12
 73
8
 74
6
 42
1e-09
 12
-0.9999065669562043
 22
0.0136695778229488
 32
0.0
 13
-0.5096745276573058
 23
-0.8603672912525802
 33
0.0
 40
0.0
 40
0.0
 40
0.0
 40
0.0
 40
0.4413338986581424
 40
0.8797964185564445
 40
1.309581604551375
 40
1.738217634758052
 40
2.053340719745247
 40
2.053340719745247
 40
2.053340719745247
 40
2.053340719745247
 10
-10.94958659983785
 20
22.41027769300126
 30
0.0
 10
-11.09668415433407
 20
22.41228864235913
 30
0.0
 10
-11.39132366116336
 20
22.38524853306852
 30
0.0
 10
-11.81067896438035
 20
22.25261664812809
 30
0.0
 10
-12.18785136028428
 20
22.03428082702338
 30
0.0
 10
-12.47691311677965
 20
21.76559100017402
 30
0.0
 10
-12.62191634697136
 20
21.56284283107543
 30
0.0
 10
-12.67545308346962
 20
21.47246896606157
 30
0.0
 11
-10.94958659983785
 21
22.41027769300126
 31
0.0
 11
-11.38903657703122
 21
22.36954284735839
 31
0.0
 11
-11.806949792468
 21
22.23688567371573
 31
0.0
 11
-12.17860690457928
 21
22.02104708328807
 31
0.0
 11
-12.49218693068906
 21
21.72882043560457
 31
0.0
 11
-12.67545308346962
 21
21.47246896606157
 31
0.0
  0
SPLINE
  5
B4
330
2F
100
AcDbEntity
  8
--6N-THT. HOLE COVER
 62
124
100
AcDbSpline
 70
1064
 71
3
 72
10
 73
6
 74
4
 42
1e-09
 12
-0.9999065797149631
 22
-0.0136686445093924
 32
0.0
 13
-0.9999999999998752
 23
4.994352885e-07
 33
0.0
 40
0.0
 40
0.0
 40
0.0
 40
0.0
 40
0.0085087015957583
 40
0.0170014436494692
 40
0.0254827817062549
 40
0.0254827817062549
 40
0.0254827817062549
 40
0.0254827817062549
 10
10.34827954826869
 20
22.41026752921971
 30
0.0
 10
10.34544357936521
 20
22.41022876174726
 30
0.0
 10
10.33977677556855
 20
22.4101642100036
 30
0.0
 10
10.33128268686859
 20
22.41010616655428
 30
0.0
 10
10.32562465136729
 20
22.41009327990426
 30
0.0
 10
10.3227975386817
 20
22.41009328131622
 30
0.0
 11
10.34827954826869
 21
22.41026752921971
 31
0.0
 11
10.33977139858143
 21
22.41017061820457
 31
0.0
 11
10.33127885475187
 21
22.41011259326297
 31
0.0
 11
10.3227975386817
 21
22.41009328131622
 31
0.0
  0
SPLINE
  5
B5
330
2F
100
AcDbEntity
  8
--6N-THT. HOLE COVER
 62
124
100
AcDbSpline
 70
1064
 71
3
 72
16
 73
12
 74
10
 42
1e-09
 12
0.012636882522344
 22
0.9999201514121597
 32
0.0
 13
-0.0075213722714056
 23
0.9999717140795308
 33
0.0
 40
0.0
 40
0.0
 40
0.0
 40
0.0
 40
0.7906992759202507
 40
1.694417609514581
 40
2.697196517588826
 40
3.783571498356391
 40
4.936803650799188
 40
6.139105578607562
 40
7.371951866137067
 40
8.616323291262876
 40
9.852988547488197
 40
9.852988547488197
 40
9.852988547488197
 40
9.852988547488197
 10
-10.21919194530892
 20
-5.410519657918484
 30
0.0
 10
-10.21586128735548
 20
-5.146974278018597
 30
0.0
 10
-10.21012288519395
 20
-4.582195739072244
 30
0.0
 10
-10.20397700193268
 20
-3.683150159641576
 30
0.0
 10
-10.1998373081012
 20
-2.685533616477882
 30
0.0
 10
-10.19777190600769
 20
-1.604739488745044
 30
0.0
 10
-10.19782543313985
 20
-0.4574358042815692
 30
0.0
 10
-10.20000198382388
 20
0.7386895822239483
 30
0.0
 10
-10.2042707808743
 20
1.96518925250449
 30
0.0
 10
-10.21057032662103
 20
3.203134707656043
 30
0.0
 10
-10.21609482943469
 20
4.030128915417329
 30
0.0
 10
-10.21919530269042
 20
4.442339007420741
 30
0.0
 11
-10.21919194530892
 21
-5.410519657918484
 31
0.0
 11
-10.21091448268089
 21
-4.619863709636774
 31
0.0
 11
-10.20458631029032
 21
-3.716167532424151
 31
0.0
 11
-10.20031209496846
 21
-2.713397733536112
 31
0.0
 11
-10.19815837094029
 21
-1.627024887635343
 31
0.0
 11
-10.19815835312875
 21
-0.4737927351925464
 31
0.0
 11
-10.20031207714783
 21
0.72850726359502
 31
0.0
 11
-10.20458631537985
 21
1.961346141779358
 31
0.0
 11
-10.21091447758954
 21
3.205701476092144
 31
0.0
 11
-10.21919530269042
 21
4.442339007420741
 31
0.0
  0
SPLINE
  5
B6
330
2F
100
AcDbEntity
  8
--6N-THT. HOLE COVER
 62
124
100
AcDbSpline
 70
1064
 71
3
 72
8
 73
4
 74
2
 42
1e-09
 12
2.0109095867e-06
 22
-0.9999999999979781
 32
0.0
 13
0.0373556918390869
 23
-0.999302032564341
 33
0.0
 40
0.0
 40
0.0
 40
0.0
 40
0.0
 40
0.0506646726734674
 40
0.0506646726734674
 40
0.0506646726734674
 40
0.0506646726734674
 10
-5.039900182689962
 20
43.6383261093033
 30
0.0
 10
-5.03990014872927
 20
43.62143788507885
 30
0.0
 10
-5.03958245722952
 20
43.60454675451033
 30
0.0
 10
-5.03895158592968
 20
43.5876703177164
 30
0.0
 11
-5.039900182689962
 21
43.6383261093033
 31
0.0
 11
-5.03895158592968
 21
43.5876703177164
 31
0.0
  0
SPLINE
  5
B7
330
2F
100
AcDbEntity
  8
--6N-THT. HOLE COVER
 62
124
100
AcDbSpline
 70
1064
 71
3
 72
13
 73
9
 74
7
 42
1e-09
 12
0.0373557159118399
 22
-0.9993020316644582
 32
0.0
 13
0.9999999999998861
 23
-4.773590777e-07
 33
0.0
 40
0.0
 40
0.0
 40
0.0
 40
0.0
 40
0.3530366595855923
 40
0.760538753231992
 40
1.17716879970636
 40
1.60470916536677
 40
2.043260019074492
 40
2.490600793253672
 40
2.490600793253672
 40
2.490600793253672
 40
2.490600793253672
 10
-5.03895158592968
 20
43.5876703177164
 30
0.0
 10
-5.034555606875699
 20
43.47007356732443
 30
0.0
 10
-4.992326896561891
 20
43.21688258485678
 30
0.0
 10
-4.824624242019361
 20
42.85653010756573
 30
0.0
 10
-4.550528580302213
 20
42.53553690360127
 30
0.0
 10
-4.195446885003907
 20
42.28926106193557
 30
0.0
 10
-3.781951581952091
 20
42.13329439369455
 30
0.0
 10
-3.485394710072878
 20
42.09773715853956
 30
0.0
 10
-3.336281118679835
 20
42.09773708735883
 30
0.0
 11
-5.03895158592968
 21
43.5876703177164
 31
0.0
 11
-4.981103932090263
 21
43.23940528651656
 31
0.0
 11
-4.810506123110826
 21
42.8693318561036
 31
0.0
 11
-4.541025462549441
 21
42.55158861194468
 31
0.0
 11
-4.190474499240735
 21
42.30683406879506
 31
0.0
 11
-3.780390997839276
 21
42.1514044282303
 31
0.0
 11
-3.336281118679835
 21
42.09773708735883
 31
0.0
  0
SPLINE
  5
B8
330
2F
100
AcDbEntity
  8
--6N-THT. HOLE COVER
 62
124
100
AcDbSpline
 70
1064
 71
3
 72
12
 73
8
 74
6
 42
1e-09
 12
0.9999999999998859
 22
-4.775823329e-07
 32
0.0
 13
2.086691119e-06
 23
-0.9999999999978229
 33
0.0
 40
0.0
 40
0.0
 40
0.0
 40
0.0
 40
0.3460680525885686
 40
0.6820014160562553
 40
1.005866277076646
 40
1.319942106005321
 40
1.630907104702342
 40
1.630907104702342
 40
1.630907104702342
 40
1.630907104702342
 10
-3.236071968611213
 20
44.97745860062787
 30
0.0
 10
-3.120715951081703
 20
44.97745854553587
 30
0.0
 10
-2.892046488782511
 20
44.9456870727619
 30
0.0
 10
-2.581965936031597
 20
44.80677038194999
 30
0.0
 10
-2.333816171826915
 20
44.58929732333048
 30
0.0
 10
-2.171553308577126
 20
44.31111008935279
 30
0.0
 10
-2.133734664024751
 20
44.10094252430947
 30
0.0
 10
-2.133734447728784
 20
43.99728752474402
 30
0.0
 11
-3.236071968611213
 21
44.97745860062787
 31
0.0
 11
-2.893393202070001
 21
44.92914338579612
 31
0.0
 11
-2.58739020559733
 21
44.79053100957935
 31
0.0
 11
-2.34510114961813
 21
44.57562530570794
 31
0.0
 11
-2.188459481210884
 21
44.30339927088425
 31
0.0
 11
-2.133734447728784
 21
43.99728752474402
 31
0.0
  0
SPLINE
  5
B9
330
2F
100
AcDbEntity
  8
--6N-THT. HOLE COVER
 62
124
100
AcDbSpline
 70
1064
 71
3
 72
12
 73
8
 74
6
 42
1e-09
 12
1.0675340054e-06
 22
0.9999999999994301
 32
0.0
 13
0.9999999999998859
 23
-4.775810024e-07
 33
0.0
 40
0.0
 40
0.0
 40
0.0
 40
0.0
 40
0.3106103844943971
 40
0.6246921544360771
 40
0.9485653832772896
 40
1.284565637654564
 40
1.630911607772032
 40
1.630911607772032
 40
1.630911607772032
 40
1.630911607772032
 10
-4.438624211446949
 20
43.99728592113933
 30
0.0
 10
-4.4386241009179
 20
44.10082271597074
 30
0.0
 10
-4.400875119678946
 20
44.31086937744317
 30
0.0
 10
-4.238771087332164
 20
44.58901866769296
 30
0.0
 10
-3.99067777537882
 20
44.80659973788199
 30
0.0
 10
-3.680520134684191
 20
44.94564314295296
 30
0.0
 10
-3.451733224404194
 20
44.97745870412543
 30
0.0
 10
-3.336284567698385
 20
44.97745864898933
 30
0.0
 11
-4.438624211446949
 21
43.99728592113933
 31
0.0
 11
-4.384024317467265
 21
44.30305979597688
 31
0.0
 11
-4.227481128038562
 21
44.57534932580347
 31
0.0
 11
-3.985260418598045
 21
44.79034466593475
 31
0.0
 11
-3.67923295573928
 21
44.92906511474394
 31
0.0
 11
-3.336284567698385
 21
44.97745864898933
 31
0.0
  0
SPLINE
  5
BA
330
2F
100
AcDbEntity
  8
--6N-THT. HOLE COVER
 62
124
100
AcDbSpline
 70
1064
 71
3
 72
13
 73
9
 74
7
 42
1e-09
 12
0.9999999999998863
 22
-4.768640533e-07
 32
0.0
 13
1.0569150762e-06
 23
0.9999999999994414
 33
0.0
 40
0.0
 40
0.0
 40
0.0
 40
0.0
 40
0.4469191931847296
 40
0.8853402314775936
 40
1.31306864832234
 40
1.729529968709636
 40
2.137160781690609
 40
2.54078786362746
 40
2.54078786362746
 40
2.54078786362746
 40
2.54078786362746
 10
-3.236068511960183
 20
42.09773703899554
 30
0.0
 10
-3.087095447565291
 20
42.09773696795564
 30
0.0
 10
-2.790725829436585
 20
42.13323854458505
 30
0.0
 10
-2.37730729264086
 20
42.28905948954695
 30
0.0
 10
-2.022189076908599
 20
42.53520518122416
 30
0.0
 10
-1.747963475429777
 20
42.85620929686797
 30
0.0
 10
-1.572977644605942
 20
43.23178469009417
 30
0.0
 10
-1.532459379759882
 20
43.50378811401769
 30
0.0
 10
-1.532459237560033
 20
43.63833047466323
 30
0.0
 11
-3.236068511960183
 21
42.09773703899554
 31
0.0
 11
-2.792371280329462
 21
42.15130505072011
 31
0.0
 11
-2.382368628468611
 21
42.30658168220361
 31
0.0
 11
-2.031598030229361
 21
42.55135011560014
 31
0.0
 11
-1.76213617508074
 21
42.86888805033959
 31
0.0
 11
-1.591370211888715
 21
43.23902568083212
 31
0.0
 11
-1.532459237560033
 21
43.63833047466323
 31
0.0
  0
SPLINE
  5
BB
330
2F
100
AcDbEntity
  8
--6N-THT. HOLE COVER
 62
124
100
AcDbSpline
 70
1064
 71
3
 72
13
 73
9
 74
7
 42
1e-09
 12
-0.9999999999998859
 22
4.775898809e-07
 32
0.0
 13
-1.0652374722e-06
 23
-0.9999999999994326
 33
0.0
 40
0.0
 40
0.0
 40
0.0
 40
0.0
 40
0.4467160469422569
 40
0.88337491588883
 40
1.30712149815343
 40
1.718134279028413
 40
2.120459589567068
 40
2.520937415022161
 40
2.520937415022161
 40
2.520937415022161
 40
2.520937415022161
 10
-3.336288619981132
 20
45.50779873086139
 30
0.0
 10
-3.485193968961868
 20
45.50779880197707
 30
0.0
 10
-3.780831905353404
 20
45.47371174120004
 30
0.0
 10
-4.19399760456055
 20
45.32348174924248
 30
0.0
 10
-4.549523253749324
 20
45.08464529316543
 30
0.0
 10
-4.824466745619849
 20
44.77060251718314
 30
0.0
 10
-4.999763255506921
 20
44.40007785938664
 30
0.0
 10
-5.039899661218428
 20
44.13080349490825
 30
0.0
 10
-5.039899803419757
 20
43.99731088642329
 30
0.0
 11
-3.336288619981132
 21
45.50779873086139
 31
0.0
 11
-3.780000378210388
 21
45.45607734065561
 31
0.0
 11
-4.189999489419278
 21
45.30583854194628
 31
0.0
 11
-4.540741675898971
 21
45.06805484905635
 31
0.0
 11
-4.810231426088648
 21
44.75772151119963
 31
0.0
 11
-4.980992097400303
 21
44.3934325481041
 31
0.0
 11
-5.039899803419757
 21
43.99731088642329
 31
0.0
  0
SPLINE
  5
BC
330
2F
100
AcDbEntity
  8
--6N-THT. HOLE COVER
 62
124
100
AcDbSpline
 70
1064
 71
3
 72
13
 73
9
 74
7
 42
1e-09
 12
-2.0274612191e-06
 22
0.9999999999979448
 32
0.0
 13
-0.9999999999998864
 23
4.765746106e-07
 33
0.0
 40
0.0
 40
0.0
 40
0.0
 40
0.0
 40
0.4001206304281362
 40
0.8023369123199398
 40
1.213477445391332
 40
1.637069828648892
 40
2.073856011307385
 40
2.520966904304734
 40
2.520966904304734
 40
2.520966904304734
 40
2.520966904304734
 10
-1.532458858298923
 20
43.99728867017256
 30
0.0
 10
-1.53245912870861
 20
44.13066221364833
 30
0.0
 10
-1.572525050082971
 20
44.39977816001661
 30
0.0
 10
-1.747660659343986
 20
44.77025114336855
 30
0.0
 10
-2.022486705415182
 20
45.08434170278815
 30
0.0
 10
-2.37797514674432
 20
45.32328950381118
 30
0.0
 10
-2.79122412247077
 20
45.47366158935765
 30
0.0
 10
-3.087039054016762
 20
45.50779861147269
 30
0.0
 10
-3.236076018349194
 20
45.50779868249992
 30
0.0
 11
-1.532458858298923
 21
43.99728867017256
 31
0.0
 11
-1.591254543818649
 21
44.39306586286875
 31
0.0
 11
-1.761858174129883
 21
44.75730800587735
 31
0.0
 11
-2.031343294240286
 21
45.06781454038718
 31
0.0
 11
-2.381895382610309
 21
45.30560381788563
 31
0.0
 11
-2.791977316039265
 21
45.4559865869669
 31
0.0
 11
-3.236076018349194
 21
45.50779868249992
 31
0.0
  0
SPLINE
  5
BD
330
2F
100
AcDbEntity
  8
--6N-THT. HOLE COVER
 62
124
100
AcDbSpline
 70
1064
 71
3
 72
12
 73
8
 74
6
 42
1e-09
 12
-1.0568346214e-06
 22
-0.9999999999994414
 32
0.0
 13
-0.9999999999998856
 23
4.779810035e-07
 33
0.0
 40
0.0
 40
0.0
 40
0.0
 40
0.0
 40
0.3127189754432695
 40
0.6298876953874688
 40
0.9563862760134139
 40
1.293656569298213
 40
1.640197401226499
 40
1.640197401226499
 40
1.640197401226499
 40
1.640197401226499
 10
-2.133734829538298
 20
43.63833076229639
 30
0.0
 10
-2.133734939702378
 20
43.53409110381535
 30
0.0
 10
-2.171715066676515
 20
43.32239170874945
 30
0.0
 10
-2.333423481386224
 20
43.04117377193786
 30
0.0
 10
-2.58103083082719
 20
42.81957257842115
 30
0.0
 10
-2.891230014642062
 20
42.67702080480421
 30
0.0
 10
-3.12056083973758
 20
42.64425729783608
 30
0.0
 10
-3.236074450380328
 20
42.64425735304939
 30
0.0
 11
-2.133734829538298
 21
43.63833076229639
 31
0.0
 11
-2.188336334760606
 21
43.33041546025742
 31
0.0
 11
-2.344870238568546
 21
43.05456562090694
 31
0.0
 11
-2.587082968180766
 21
42.8356265500115
 31
0.0
 11
-2.893097614947691
 21
42.69382991148813
 31
0.0
 11
-3.236074450380328
 21
42.64425735304939
 31
0.0
  0
SPLINE
  5
BE
330
2F
100
AcDbEntity
  8
--6N-THT. HOLE COVER
 62
124
100
AcDbSpline
 70
1064
 71
3
 72
12
 73
8
 74
6
 42
1e-09
 12
-0.9999999999998861
 22
4.771032079e-07
 32
0.0
 13
-0.0576010535492079
 23
0.9983396809853955
 33
0.0
 40
0.0
 40
0.0
 40
0.0
 40
0.0
 40
0.3462348379383451
 40
0.6834353575419654
 40
1.009925370652321
 40
1.327094590278124
 40
1.590451685241162
 40
1.590451685241162
 40
1.590451685241162
 40
1.590451685241162
 10
-3.336287049469319
 20
42.64425740141269
 30
0.0
 10
-3.451698662115421
 20
42.64425745647594
 30
0.0
 10
-3.680900194427178
 20
42.67696607943753
 30
0.0
 10
-3.991022960884113
 20
42.81939970224077
 30
0.0
 10
-4.238677941024711
 20
43.04080806486125
 30
0.0
 10
-4.392198700641295
 20
43.30771701585449
 30
0.0
 10
-4.432110767408731
 20
43.50032396318674
 30
0.0
 10
-4.437167316118575
 20
43.58796390924362
 30
0.0
 11
-3.336287049469319
 21
42.64425740141269
 31
0.0
 11
-3.678967445068337
 21
42.69374183810032
 31
0.0
 11
-3.984959936669838
 21
42.83542029625277
 31
0.0
 11
-4.227247931217789
 21
43.05426329102011
 31
0.0
 11
-4.383890470158803
 21
43.33005203058746
 31
0.0
 11
-4.437167316118575
 21
43.58796390924362
 31
0.0
  0
SPLINE
  5
BF
330
2F
100
AcDbEntity
  8
--6N-THT. HOLE COVER
 62
124
100
AcDbSpline
 70
1064
 71
3
 72
8
 73
4
 74
2
 42
1e-09
 12
-0.0576010633851742
 22
0.9983396804178912
 32
0.0
 13
-2.0735845358e-06
 23
0.9999999999978502
 33
0.0
 40
0.0
 40
0.0
 40
0.0
 40
0.0
 40
0.0503863174195495
 40
0.0503863174195495
 40
0.0503863174195495
 40
0.0503863174195495
 10
-4.437167316118575
 20
43.58796390924362
 30
0.0
 10
-4.438134751273051
 20
43.60473146258698
 30
0.0
 10
-4.438624558431519
 20
43.621533709371
 30
0.0
 10
-4.438624593258282
 20
43.63832914851082
 30
0.0
 11
-4.437167316118575
 21
43.58796390924362
 31
0.0
 11
-4.438624593258282
 21
43.63832914851082
 31
0.0
  0
SPLINE
  5
C0
330
2F
100
AcDbEntity
  8
--6N-THT. HOLE COVER
 62
124
100
AcDbSpline
 70
1064
 71
3
 72
12
 73
8
 74
6
 42
1e-09
 12
0.9999999999998859
 22
-4.777363642e-07
 32
0.0
 13
1.0612905551e-06
 23
0.9999999999994368
 33
0.0
 40
0.0
 40
0.0
 40
0.0
 40
0.0
 40
0.3451722981489032
 40
0.6823896319545778
 40
1.00874452106148
 40
1.324892115432457
 40
1.635709271678143
 40
1.635709271678143
 40
1.635709271678143
 40
1.635709271678143
 10
-3.236074363840089
 20
42.59948788296424
 30
0.0
 10
-3.121016931123801
 20
42.59948782799712
 30
0.0
 10
-2.892209823599598
 20
42.63165729023882
 30
0.0
 10
-2.581732521599145
 20
42.77222838571169
 30
0.0
 10
-2.333250299874511
 20
42.99235162735385
 30
0.0
 10
-2.171484423191937
 20
43.27246974688047
 30
0.0
 10
-2.133734842765669
 20
43.48321037545605
 30
0.0
 10
-2.133734732809898
 20
43.58681609420455
 30
0.0
 11
-3.236074363840089
 21
42.59948788296424
 31
0.0
 11
-2.894346894729096
 21
42.64813202201913
 31
0.0
 11
-2.587670555958538
 21
42.78836451988354
 31
0.0
 11
-2.344575997967695
 21
43.00610874947233
 31
0.0
 11
-2.188032472538907
 21
43.28077841665981
 31
0.0
 11
-2.133734732809898
 21
43.58681609420455
 31
0.0
  0
SPLINE
  5
C1
330
2F
100
AcDbEntity
  8
--6N-THT. HOLE COVER
 62
124
100
AcDbSpline
 70
1064
 71
3
 72
13
 73
9
 74
7
 42
1e-09
 12
0.0374884313348338
 22
0.9992970616968978
 32
0.0
 13
0.9999999999998861
 23
-4.771586759e-07
 33
0.0
 40
0.0
 40
0.0
 40
0.0
 40
0.0
 40
0.3501236443808496
 40
0.7553934711259283
 40
1.170600011252033
 40
1.597751543947974
 40
2.035765238798536
 40
2.480976369123255
 40
2.480976369123255
 40
2.480976369123255
 40
2.480976369123255
 10
-5.038949180519921
 20
43.99643506519169
 30
0.0
 10
-5.034573985119563
 20
44.11306090821182
 30
0.0
 10
-4.992689274847356
 20
44.36455113497023
 30
0.0
 10
-4.825252559835401
 20
44.72273274655612
 30
0.0
 10
-4.550121958456343
 20
45.04119689076221
 30
0.0
 10
-4.19382809392482
 20
45.28436059272495
 30
0.0
 10
-3.780292461272777
 20
45.43706166026711
 30
0.0
 10
-3.484687621096863
 20
45.47171705414507
 30
0.0
 10
-3.33628391098864
 20
45.47171698333295
 30
0.0
 11
-5.038949180519921
 21
43.99643506519169
 31
0.0
 11
-4.981533157797457
 21
44.34181886140868
 31
0.0
 11
-4.811162243229773
 21
44.70953802590702
 31
0.0
 11
-4.540936862260423
 21
45.02477557830752
 31
0.0
 11
-4.188981937768403
 21
45.26682136531962
 31
0.0
 11
-3.778414334379704
 21
45.41943276700476
 31
0.0
 11
-3.33628391098864
 21
45.47171698333295
 31
0.0
  0
SPLINE
  5
C2
330
2F
100
AcDbEntity
  8
--6N-THT. HOLE COVER
 62
124
100
AcDbSpline
 70
1064
 71
3
 72
13
 73
9
 74
7
 42
1e-09
 12
0.9999999999998861
 22
-4.771588649e-07
 32
0.0
 13
0.0374863778168601
 23
-0.9992971387321048
 33
0.0
 40
0.0
 40
0.0
 40
0.0
 40
0.0
 40
0.4451780230385079
 40
0.883172664837652
 40
1.310319014786297
 40
1.725533074634317
 40
2.130821815511561
 40
2.48097545601331
 40
2.48097545601331
 40
2.48097545601331
 40
2.48097545601331
 10
-3.236071314448054
 20
45.47171693496784
 30
0.0
 10
-3.087678640101901
 20
45.47171686416096
 30
0.0
 10
-2.792091488687187
 20
45.43706585027635
 30
0.0
 10
-2.378570913771242
 20
45.28438079351881
 30
0.0
 10
-2.022274372301394
 20
45.04123137069969
 30
0.0
 10
-1.747128602679496
 20
44.72277074995621
 30
0.0
 10
-1.579674267573758
 20
44.3645758845289
 30
0.0
 10
-1.537784508852757
 20
44.11306918819231
 30
0.0
 10
-1.533409178298825
 20
43.99643334450229
 30
0.0
 11
-3.236071314448054
 21
45.47171693496784
 31
0.0
 11
-2.793973357629511
 21
45.41944008757491
 31
0.0
 11
-2.383420179030508
 21
45.26684456409202
 31
0.0
 11
-2.031462016779187
 21
45.02481263169648
 31
0.0
 11
-1.761221465229027
 21
44.70957817959242
 31
0.0
 11
-1.590833165580988
 21
44.34184622446082
 31
0.0
 11
-1.533409178298825
 21
43.99643334450229
 31
0.0
  0
SPLINE
  5
C3
330
2F
100
AcDbEntity
  8
--6N-THT. HOLE COVER
 62
124
100
AcDbSpline
 70
1064
 71
3
 72
12
 73
8
 74
6
 42
1e-09
 12
2.0774570089e-06
 22
-0.999999999997842
 32
0.0
 13
0.9999999999998859
 23
-4.777373738e-07
 33
0.0
 40
0.0
 40
0.0
 40
0.0
 40
0.0
 40
0.3108525951290498
 40
0.6270209751483625
 40
0.9533777608696308
 40
1.290575528505638
 40
1.635705856216396
 40
1.635705856216396
 40
1.635705856216396
 40
1.635705856216396
 10
-4.438624496529882
 20
43.58681449314644
 30
0.0
 10
-4.438624281268915
 20
43.48319696143699
 30
0.0
 10
-4.400866554400597
 20
43.27243707005877
 30
0.0
 10
-4.239076246376534
 20
42.99230961982221
 30
0.0
 10
-3.990580964955246
 20
42.77219977538666
 30
0.0
 10
-3.680116467585906
 20
42.63165076879093
 30
0.0
 10
-3.451330402950915
 20
42.59948798628808
 30
0.0
 10
-3.336286960380675
 20
42.59948793132752
 30
0.0
 11
-4.438624496529882
 21
43.58681449314644
 31
0.0
 11
-4.384314144348536
 21
43.2807430610519
 31
0.0
 11
-4.227746671809654
 21
43.0060631180877
 31
0.0
 11
-3.984638417019596
 21
42.78833133804801
 31
0.0
 11
-3.677973680180002
 21
42.64812051935769
 31
0.0
 11
-3.336286960380675
 21
42.59948793132752
 31
0.0
  0
LWPOLYLINE
  5
C4
330
2F
100
AcDbEntity
  8
--6N-THT. HOLE COVER
 62
2
100
AcDbPolyline
 90
4
 70
1
 10
-30.5
 20
57.0
 10
30.5
 20
57.0
 10
30.5
 20
-57.0
 10
-30.5
 20
-57.0
  0
ATTDEF
  5
C5
330
2F
100
AcDbEntity
  8
--4N-THT. MCB-MCCB-ACB
 62
3
100
AcDbText
 10
-4e-16
 20
66.0
 30
0.0
 40
13.0
  1

  7
- 13.0
 72
1
 11
0.0
 21
72.5
 31
0.0
100
AcDbAttributeDefinition
  3
1 DÒNG
  2
AMPE
 70
0
 74
2
280
1
 71
1
 72
0
 11
0.0
 21
72.5
 31
0.0
  0
ATTDEF
  5
C6
330
2F
100
AcDbEntity
  8
--4N-THT. MCB-MCCB-ACB
 62
3
100
AcDbText
 10
-4e-16
 20
86.0
 30
0.0
 40
13.0
  1

  7
- 13.0
 72
1
 11
0.0
 21
92.5
 31
0.0
100
AcDbAttributeDefinition
  3
ABC
  2
MCCB
 70
0
 74
2
280
1
 71
1
 72
0
 11
0.0
 21
92.5
 31
0.0
  0
ENDBLK
  5
31
330
2F
100
AcDbEntity
  8
0
100
AcDbBlockEnd
  0
ENDSEC
  0
SECTION
  2
ENTITIES
  0
INSERT
  5
CA
330
17
100
AcDbEntity
  8
0
100
AcDbBlockReference
  2
06 - N - SC MCCB LỖ ĐỤC CVS400~630F~N 3~4 PHASE
 10
30.5
 20
57.0
 30
0.0
  0
ENDSEC
  0
SECTION
  2
OBJECTS
  0
DICTIONARY
  5
A
330
0
100
AcDbDictionary
281
1
  3
ACAD_COLOR
350
B
  3
ACAD_GROUP
350
C
  3
ACAD_LAYOUT
350
D
  3
ACAD_MATERIAL
350
E
  3
ACAD_MLEADERSTYLE
350
F
  3
ACAD_MLINESTYLE
350
10
  3
ACAD_PLOTSETTINGS
350
11
  3
ACAD_PLOTSTYLENAME
350
12
  3
ACAD_SCALELIST
350
14
  3
ACAD_TABLESTYLE
350
15
  3
ACAD_VISUALSTYLE
350
16
  3
EZDXF_META
350
2D
  0
DICTIONARY
  5
B
330
A
100
AcDbDictionary
281
1
  0
DICTIONARY
  5
C
330
A
100
AcDbDictionary
281
1
  0
DICTIONARY
  5
D
330
A
100
AcDbDictionary
281
1
  3
Model
350
1A
  3
Layout1
350
1E
  0
DICTIONARY
  5
E
330
A
100
AcDbDictionary
281
1
  3
ByBlock
350
1F
  3
ByLayer
350
20
  3
Global
350
21
  0
DICTIONARY
  5
F
330
A
100
AcDbDictionary
281
1
  3
Standard
350
2C
  0
DICTIONARY
  5
10
330
A
100
AcDbDictionary
281
1
  3
Standard
350
22
  0
DICTIONARY
  5
11
330
A
100
AcDbDictionary
281
1
  0
ACDBDICTIONARYWDFLT
  5
12
330
A
100
AcDbDictionary
281
1
  3
Normal
350
13
100
AcDbDictionaryWithDefault
340
13
  0
ACDBPLACEHOLDER
  5
13
330
12
  0
DICTIONARY
  5
14
330
A
100
AcDbDictionary
281
1
  0
DICTIONARY
  5
15
330
A
100
AcDbDictionary
281
1
  0
DICTIONARY
  5
16
330
A
100
AcDbDictionary
281
1
  0
LAYOUT
  5
1A
330
D
100
AcDbPlotSettings
  1

  4
A3
  6

 40
7.5
 41
20.0
 42
7.5
 43
20.0
 44
420.0
 45
297.0
 46
0.0
 47
0.0
 48
0.0
 49
0.0
140
0.0
141
0.0
142
1.0
143
1.0
 70
1024
 72
1
 73
0
 74
5
  7

 75
16
 76
0
 77
2
 78
300
147
1.0
148
0.0
149
0.0
100
AcDbLayout
  1
Model
 70
1
 71
0
 10
0.0
 20
0.0
 11
420.0
 21
297.0
 12
0.0
 22
0.0
 32
0.0
 14
1e+20
 24
1e+20
 34
1e+20
 15
-1e+20
 25
-1e+20
 35
-1e+20
146
0.0
 13
0.0
 23
0.0
 33
0.0
 16
1.0
 26
0.0
 36
0.0
 17
0.0
 27
1.0
 37
0.0
 76
1
330
17
  0
LAYOUT
  5
1E
330
D
100
AcDbPlotSettings
  1

  4
A3
  6

 40
7.5
 41
20.0
 42
7.5
 43
20.0
 44
420.0
 45
297.0
 46
0.0
 47
0.0
 48
0.0
 49
0.0
140
0.0
141
0.0
142
1.0
143
1.0
 70
0
 72
1
 73
0
 74
5
  7

 75
16
 76
0
 77
2
 78
300
147
1.0
148
0.0
149
0.0
100
AcDbLayout
  1
Layout1
 70
1
 71
1
 10
0.0
 20
0.0
 11
420.0
 21
297.0
 12
0.0
 22
0.0
 32
0.0
 14
1e+20
 24
1e+20
 34
1e+20
 15
-1e+20
 25
-1e+20
 35
-1e+20
146
0.0
 13
0.0
 23
0.0
 33
0.0
 16
1.0
 26
0.0
 36
0.0
 17
0.0
 27
1.0
 37
0.0
 76
1
330
1B
  0
MATERIAL
  5
1F
102
{ACAD_REACTORS
330
E
102
}
330
E
100
AcDbMaterial
  1
ByBlock
  2

 70
0
 40
1.0
 71
1
 41
1.0
 91
-1023410177
 42
1.0
 72
1
  3

 73
1
 74
1
 75
1
 44
0.5
 73
0
 45
1.0
 46
1.0
 77
1
  4

 78
1
 79
1
170
1
 48
1.0
171
1
  6

172
1
173
1
174
1
140
1.0
141
1.0
175
1
  7

176
1
177
1
178
1
143
1.0
179
1
  8

270
1
271
1
272
1
145
1.0
146
1.0
273
1
  9

274
1
275
1
276
1
 42
1.0
 72
1
  3

 73
1
 74
1
 75
1
 94
63
  0
MATERIAL
  5
20
102
{ACAD_REACTORS
330
E
102
}
330
E
100
AcDbMaterial
  1
ByLayer
  2

 70
0
 40
1.0
 71
1
 41
1.0
 91
-1023410177
 42
1.0
 72
1
  3

 73
1
 74
1
 75
1
 44
0.5
 73
0
 45
1.0
 46
1.0
 77
1
  4

 78
1
 79
1
170
1
 48
1.0
171
1
  6

172
1
173
1
174
1
140
1.0
141
1.0
175
1
  7

176
1
177
1
178
1
143
1.0
179
1
  8

270
1
271
1
272
1
145
1.0
146
1.0
273
1
  9

274
1
275
1
276
1
 42
1.0
 72
1
  3

 73
1
 74
1
 75
1
 94
63
  0
MATERIAL
  5
21
102
{ACAD_REACTORS
330
E
102
}
330
E
100
AcDbMaterial
  1
Global
  2

 70
0
 40
1.0
 71
1
 41
1.0
 91
-1023410177
 42
1.0
 72
1
  3

 73
1
 74
1
 75
1
 44
0.5
 73
0
 45
1.0
 46
1.0
 77
1
  4

 78
1
 79
1
170
1
 48
1.0
171
1
  6

172
1
173
1
174
1
140
1.0
141
1.0
175
1
  7

176
1
177
1
178
1
143
1.0
179
1
  8

270
1
271
1
272
1
145
1.0
146
1.0
273
1
  9

274
1
275
1
276
1
 42
1.0
 72
1
  3

 73
1
 74
1
 75
1
 94
63
  0
MLINESTYLE
  5
22
102
{ACAD_REACTORS
330
10
102
}
330
10
100
AcDbMlineStyle
  2
Standard
 70
0
  3

 62
256
 51
90.0
 52
90.0
 71
2
 49
0.5
 62
256
  6
BYLAYER
 49
-0.5
 62
256
  6
BYLAYER
  0
MLEADERSTYLE
  5
2C
102
{ACAD_REACTORS
330
F
102
}
330
F
100
AcDbMLeaderStyle
179
2
170
2
171
1
172
0
 90
2
 40
0.0
 41
0.0
173
1
 91
-1056964608
 92
-2
290
1
 42
2.0
291
1
 43
8.0
  3
Standard
 44
4.0
300

342
29
174
1
175
1
176
0
178
1
 93
-1056964608
 45
4.0
292
0
297
0
 46
4.0
 94
-1056964608
 47
1.0
 49
1.0
140
1.0
294
1
141
0.0
177
0
142
1.0
295
0
296
0
143
3.75
271
0
272
9
273
9
  0
DICTIONARY
  5
2D
330
A
100
AcDbDictionary
280
1
281
1
  3
CREATED_BY_EZDXF
350
2E
  3
WRITTEN_BY_EZDXF
350
CE
  0
DICTIONARYVAR
  5
2E
330
2D
100
DictionaryVariables
280
0
  1
1.4.4 @ 2026-09-23T12:53:33.224840+00:00
  0
DICTIONARYVAR
  5
CE
330
2D
100
DictionaryVariables
280
0
  1
1.4.4 @ 2026-09-23T12:53:33.269193+00:00
  0
ENDSEC
  0
EOF
