  0
SECTION
  2
HEADER
  9
$ACADVER
  1
AC1032
  9
$ACADMAINTVER
 90
4
  9
$DWGCODEPAGE
  3
ANSI_1252
  9
$LASTSAVEDBY
  1
ezdxf
  9
$REQUIREDVERSIONS
160
0
  9
$INSBASE
 10
0.0
 20
0.0
 30
0.0
  9
$EXTMIN
 10
1e+20
 20
1e+20
 30
1e+20
  9
$EXTMAX
 10
-1e+20
 20
-1e+20
 30
-1e+20
  9
$LIMMIN
 10
0.0
 20
0.0
  9
$LIMMAX
 10
420.0
 20
297.0
  9
$ORTHOMODE
 70
0
  9
$REGENMODE
 70
1
  9
$FILLMODE
 70
1
  9
$QTEXTMODE
 70
0
  9
$MIRRTEXT
 70
1
  9
$LTSCALE
 40
1.0
  9
$ATTMODE
 70
1
  9
$TEXTSIZE
 40
2.5
  9
$TRACEWID
 40
1.0
  9
$TEXTSTYLE
  7
Standard
  9
$CLAYER
  8
0
  9
$CELTYPE
  6
ByLayer
  9
$CECOLOR
 62
256
  9
$CELTSCALE
 40
1.0
  9
$DISPSILH
 70
0
  9
$DIMSCALE
 40
1.0
  9
$DIMASZ
 40
2.5
  9
$DIMEXO
 40
0.625
  9
$DIMDLI
 40
3.75
  9
$DIMRND
 40
0.0
  9
$DIMDLE
 40
0.0
  9
$DIMEXE
 40
1.25
  9
$DIMTP
 40
0.0
  9
$DIMTM
 40
0.0
  9
$DIMTXT
 40
2.5
  9
$DIMCEN
 40
2.5
  9
$DIMTSZ
 40
0.0
  9
$DIMTOL
 70
0
  9
$DIMLIM
 70
0
  9
$DIMTIH
 70
0
  9
$DIMTOH
 70
0
  9
$DIMSE1
 70
0
  9
$DIMSE2
 70
0
  9
$DIMTAD
 70
1
  9
$DIMZIN
 70
8
  9
$DIMBLK
  1

  9
$DIMASO
 70
1
  9
$DIMSHO
 70
1
  9
$DIMPOST
  1

  9
$DIMAPOST
  1

  9
$DIMALT
 70
0
  9
$DIMALTD
 70
3
  9
$DIMALTF
 40
0.03937007874
  9
$DIMLFAC
 40
1.0
  9
$DIMTOFL
 70
1
  9
$DIMTVP
 40
0.0
  9
$DIMTIX
 70
0
  9
$DIMSOXD
 70
0
  9
$DIMSAH
 70
0
  9
$DIMBLK1
  1

  9
$DIMBLK2
  1

  9
$DIMSTYLE
  2
ISO-25
  9
$DIMCLRD
 70
0
  9
$DIMCLRE
 70
0
  9
$DIMCLRT
 70
0
  9
$DIMTFAC
 40
1.0
  9
$DIMGAP
 40
0.625
  9
$DIMJUST
 70
0
  9
$DIMSD1
 70
0
  9
$DIMSD2
 70
0
  9
$DIMTOLJ
 70
0
  9
$DIMTZIN
 70
8
  9
$DIMALTZ
 70
0
  9
$DIMALTTZ
 70
0
  9
$DIMUPT
 70
0
  9
$DIMDEC
 70
2
  9
$DIMTDEC
 70
2
  9
$DIMALTU
 70
2
  9
$DIMALTTD
 70
3
  9
$DIMTXSTY
  7
Standard
  9
$DIMAUNIT
 70
0
  9
$DIMADEC
 70
0
  9
$DIMALTRND
 40
0.0
  9
$DIMAZIN
 70
0
  9
$DIMDSEP
 70
44
  9
$DIMATFIT
 70
3
  9
$DIMFRAC
 70
0
  9
$DIMLDRBLK
  1

  9
$DIMLUNIT
 70
2
  9
$DIMLWD
 70
-2
  9
$DIMLWE
 70
-2
  9
$DIMTMOVE
 70
0
  9
$DIMFXL
 40
1.0
  9
$DIMFXLON
 70
0
  9
$DIMJOGANG
 40
0.785398163397
  9
$DIMTFILL
 70
0
  9
$DIMTFILLCLR
 70
0
  9
$DIMARCSYM
 70
0
  9
$DIMLTYPE
  6

  9
$DIMLTEX1
  6

  9
$DIMLTEX2
  6

  9
$DIMTXTDIRECTION
 70
0
  9
$LUNITS
 70
2
  9
$LUPREC
 70
4
  9
$SKETCHINC
 40
1.0
  9
$FILLETRAD
 40
10.0
  9
$AUNITS
 70
0
  9
$AUPREC
 70
2
  9
$MENU
  1
.
  9
$ELEVATION
 40
0.0
  9
$PELEVATION
 40
0.0
  9
$THICKNESS
 40
0.0
  9
$LIMCHECK
 70
0
  9
$CHAMFERA
 40
0.0
  9
$CHAMFERB
 40
0.0
  9
$CHAMFERC
 40
0.0
  9
$CHAMFERD
 40
0.0
  9
$SKPOLY
 70
0
  9
$TDCREATE
 40
2461307.829872685
  9
$TDUCREATE
 40
2458532.153996898
  9
$TDUPDATE
 40
2461307.829872685
  9
$TDUUPDATE
 40
2458532.1544311
  9
$TDINDWG
 40
0.0
  9
$TDUSRTIMER
 40
0.0
  9
$USRTIMER
 70
1
  9
$ANGBASE
 50
0.0
  9
$ANGDIR
 70
0
  9
$PDMODE
 70
0
  9
$PDSIZE
 40
0.0
  9
$PLINEWID
 40
0.0
  9
$SPLFRAME
 70
0
  9
$SPLINETYPE
 70
6
  9
$SPLINESEGS
 70
8
  9
$HANDSEED
  5
15C
  9
$SURFTAB1
 70
6
  9
$SURFTAB2
 70
6
  9
$SURFTYPE
 70
6
  9
$SURFU
 70
6
  9
$SURFV
 70
6
  9
$UCSBASE
  2

  9
$UCSNAME
  2

  9
$UCSORG
 10
0.0
 20
0.0
 30
0.0
  9
$UCSXDIR
 10
1.0
 20
0.0
 30
0.0
  9
$UCSYDIR
 10
0.0
 20
1.0
 30
0.0
  9
$UCSORTHOREF
  2

  9
$UCSORTHOVIEW
 70
0
  9
$UCSORGTOP
 10
0.0
 20
0.0
 30
0.0
  9
$UCSORGBOTTOM
 10
0.0
 20
0.0
 30
0.0
  9
$UCSORGLEFT
 10
0.0
 20
0.0
 30
0.0
  9
$UCSORGRIGHT
 10
0.0
 20
0.0
 30
0.0
  9
$UCSORGFRONT
 10
0.0
 20
0.0
 30
0.0
  9
$UCSORGBACK
 10
0.0
 20
0.0
 30
0.0
  9
$PUCSBASE
  2

  9
$PUCSNAME
  2

  9
$PUCSORG
 10
0.0
 20
0.0
 30
0.0
  9
$PUCSXDIR
 10
1.0
 20
0.0
 30
0.0
  9
$PUCSYDIR
 10
0.0
 20
1.0
 30
0.0
  9
$PUCSORTHOREF
  2

  9
$PUCSORTHOVIEW
 70
0
  9
$PUCSORGTOP
 10
0.0
 20
0.0
 30
0.0
  9
$PUCSORGBOTTOM
 10
0.0
 20
0.0
 30
0.0
  9
$PUCSORGLEFT
 10
0.0
 20
0.0
 30
0.0
  9
$PUCSORGRIGHT
 10
0.0
 20
0.0
 30
0.0
  9
$PUCSORGFRONT
 10
0.0
 20
0.0
 30
0.0
  9
$PUCSORGBACK
 10
0.0
 20
0.0
 30
0.0
  9
$USERI1
 70
0
  9
$USERI2
 70
0
  9
$USERI3
 70
0
  9
$USERI4
 70
0
  9
$USERI5
 70
0
  9
$USERR1
 40
0.0
  9
$USERR2
 40
0.0
  9
$USERR3
 40
0.0
  9
$USERR4
 40
0.0
  9
$USERR5
 40
0.0
  9
$WORLDVIEW
 70
1
  9
$SHADEDGE
 70
3
  9
$SHADEDIF
 70
70
  9
$TILEMODE
 70
1
  9
$MAXACTVP
 70
64
  9
$PINSBASE
 10
0.0
 20
0.0
 30
0.0
  9
$PLIMCHECK
 70
0
  9
$PEXTMIN
 10
1e+20
 20
1e+20
 30
1e+20
  9
$PEXTMAX
 10
-1e+20
 20
-1e+20
 30
-1e+20
  9
$PLIMMIN
 10
0.0
 20
0.0
  9
$PLIMMAX
 10
420.0
 20
297.0
  9
$UNITMODE
 70
0
  9
$VISRETAIN
 70
1
  9
$PLINEGEN
 70
0
  9
$PSLTSCALE
 70
1
  9
$TREEDEPTH
 70
3020
  9
$CMLSTYLE
  2
Standard
  9
$CMLJUST
 70
0
  9
$CMLSCALE
 40
20.0
  9
$PROXYGRAPHICS
 70
1
  9
$MEASUREMENT
 70
1
  9
$CELWEIGHT
370
-1
  9
$ENDCAPS
280
0
  9
$JOINSTYLE
280
0
  9
$LWDISPLAY
290
0
  9
$INSUNITS
 70
0
  9
$HYPERLINKBASE
  1

  9
$STYLESHEET
  1

  9
$XEDIT
290
1
  9
$CEPSNTYPE
380
0
  9
$PSTYLEMODE
290
1
  9
$FINGERPRINTGUID
  2
{E6DCE9A7-88EA-4222-A563-75F749711B05}
  9
$VERSIONGUID
  2
{62679A17-3418-4358-AD92-FE49D92F6257}
  9
$EXTNAMES
290
1
  9
$PSVPSCALE
 40
0.0
  9
$OLESTARTUP
290
0
  9
$SORTENTS
280
127
  9
$INDEXCTL
280
0
  9
$HIDETEXT
280
1
  9
$XCLIPFRAME
280
1
  9
$HALOGAP
280
0
  9
$OBSCOLOR
 70
257
  9
$OBSLTYPE
280
0
  9
$INTERSECTIONDISPLAY
280
0
  9
$INTERSECTIONCOLOR
 70
257
  9
$DIMASSOC
280
2
  9
$PROJECTNAME
  1

  9
$CAMERADISPLAY
290
0
  9
$LENSLENGTH
 40
50.0
  9
$CAMERAHEIGHT
 40
0.0
  9
$STEPSPERSEC
 40
24.0
  9
$STEPSIZE
 40
100.0
  9
$3DDWFPREC
 40
2.0
  9
$PSOLWIDTH
 40
0.005
  9
$PSOLHEIGHT
 40
0.08
  9
$LOFTANG1
 40
1.570796326795
  9
$LOFTANG2
 40
1.570796326795
  9
$LOFTMAG1
 40
0.0
  9
$LOFTMAG2
 40
0.0
  9
$LOFTPARAM
 70
7
  9
$LOFTNORMALS
280
1
  9
$LATITUDE
 40
37.795
  9
$LONGITUDE
 40
-122.394
  9
$NORTHDIRECTION
 40
0.0
  9
$TIMEZONE
 70
-8000
  9
$LIGHTGLYPHDISPLAY
280
1
  9
$TILEMODELIGHTSYNCH
280
1
  9
$CMATERIAL
347
20
  9
$SOLIDHIST
280
0
  9
$SHOWHIST
280
1
  9
$DWFFRAME
280
2
  9
$DGNFRAME
280
2
  9
$REALWORLDSCALE
290
1
  9
$INTERFERECOLOR
 62
256
  9
$CSHADOW
280
0
  9
$SHADOWPLANELOCATION
 40
0.0
  0
ENDSEC
  0
SECTION
  2
CLASSES
  0
CLASS
  1
ACDBDICTIONARYWDFLT
  2
AcDbDictionaryWithDefault
  3
ObjectDBX Classes
 90
0
 91
0
280
0
281
0
  0
CLASS
  1
SUN
  2
AcDbSun
  3
SCENEOE
 90
1153
 91
0
280
0
281
0
  0
CLASS
  1
VISUALSTYLE
  2
AcDbVisualStyle
  3
ObjectDBX Classes
 90
4095
 91
0
280
0
281
0
  0
CLASS
  1
MATERIAL
  2
AcDbMaterial
  3
ObjectDBX Classes
 90
1153
 91
0
280
0
281
0
  0
CLASS
  1
SCALE
  2
AcDbScale
  3
ObjectDBX Classes
 90
1153
 91
0
280
0
281
0
  0
CLASS
  1
TABLESTYLE
  2
AcDbTableStyle
  3
ObjectDBX Classes
 90
4095
 91
0
280
0
281
0
  0
CLASS
  1
MLEADERSTYLE
  2
AcDbMLeaderStyle
  3
ACDB_MLEADERSTYLE_CLASS
 90
4095
 91
0
280
0
281
0
  0
CLASS
  1
DICTIONARYVAR
  2
AcDbDictionaryVar
  3
ObjectDBX Classes
 90
0
 91
0
280
0
281
0
  0
CLASS
  1
CELLSTYLEMAP
  2
AcDbCellStyleMap
  3
ObjectDBX Classes
 90
1152
 91
0
280
0
281
0
  0
CLASS
  1
MENTALRAYRENDERSETTINGS
  2
AcDbMentalRayRenderSettings
  3
SCENEOE
 90
1024
 91
0
280
0
281
0
  0
CLASS
  1
ACDBDETAILVIEWSTYLE
  2
AcDbDetailViewStyle
  3
ObjectDBX Classes
 90
1025
 91
0
280
0
281
0
  0
CLASS
  1
ACDBSECTIONVIEWSTYLE
  2
AcDbSectionViewStyle
  3
ObjectDBX Classes
 90
1025
 91
0
280
0
281
0
  0
CLASS
  1
RASTERVARIABLES
  2
AcDbRasterVariables
  3
ISM
 90
0
 91
0
280
0
281
0
  0
CLASS
  1
LAYOUT
  2
AcDbLayout
  3
ObjectDBX Classes
 90
0
 91
0
280
0
281
0
  0
CLASS
  1
ACDBPLACEHOLDER
  2
AcDbPlaceHolder
  3
ObjectDBX Classes
 90
0
 91
0
280
0
281
0
  0
ENDSEC
  0
SECTION
  2
TABLES
  0
TABLE
  2
VPORT
  5
8
330
0
100
AcDbSymbolTable
 70
1
  0
VPORT
  5
23
330
8
100
AcDbSymbolTableRecord
100
AcDbViewportTableRecord
  2
*Active
 70
0
 10
0.0
 20
0.0
 11
1.0
 21
1.0
 12
0.0
 22
0.0
 13
0.0
 23
0.0
 14
0.5
 24
0.5
 15
0.5
 25
0.5
 16
0.0
 26
0.0
 36
1.0
 17
0.0
 27
0.0
 37
0.0
 40
1000.0
 41
1.34
 42
50.0
 43
0.0
 44
0.0
 50
0.0
 51
0.0
 71
0
 72
1000
 73
1
 74
3
 75
0
 76
0
 77
0
 78
0
281
0
 65
0
146
0.0
  0
ENDTAB
  0
TABLE
  2
LTYPE
  5
2
330
0
100
AcDbSymbolTable
 70
4
  0
LTYPE
  5
24
330
2
100
AcDbSymbolTableRecord
100
AcDbLinetypeTableRecord
  2
ByBlock
 70
0
  3

 72
65
 73
0
 40
0.0
  0
LTYPE
  5
25
330
2
100
AcDbSymbolTableRecord
100
AcDbLinetypeTableRecord
  2
ByLayer
 70
0
  3

 72
65
 73
0
 40
0.0
  0
LTYPE
  5
26
330
2
100
AcDbSymbolTableRecord
100
AcDbLinetypeTableRecord
  2
Continuous
 70
0
  3

 72
65
 73
0
 40
0.0
  0
LTYPE
  5
156
330
2
100
AcDbSymbolTableRecord
100
AcDbLinetypeTableRecord
  2
DASHED
 70
0
  3
Dashed __ __ __ __ __ __ __ __ __ __ __ __ __ _
 72
65
 73
2
 40
0.75
 49
0.5
 74
0
 49
-0.25
 74
0
  0
ENDTAB
  0
TABLE
  2
LAYER
  5
1
330
0
100
AcDbSymbolTable
 70
6
  0
LAYER
  5
27
330
1
100
AcDbSymbolTableRecord
100
AcDbLayerTableRecord
  2
0
 70
0
 62
7
  6
Continuous
370
-3
390
13
347
21
  0
LAYER
  5
28
330
1
100
AcDbSymbolTableRecord
100
AcDbLayerTableRecord
  2
Defpoints
 70
0
 62
7
  6
Continuous
290
0
370
-3
390
13
347
21
  0
LAYER
  5
152
330
1
100
AcDbSymbolTableRecord
100
AcDbLayerTableRecord
  2
THICK
 70
0
 62
7
  6
CONTINUOUS
370
-3
390
13
347
21
  0
LAYER
  5
153
330
1
100
AcDbSymbolTableRecord
100
AcDbLayerTableRecord
  2
Hidden (ISO)
 70
0
 62
5
  6
DASHED
370
35
390
13
347
21
  0
LAYER
  5
154
330
1
100
AcDbSymbolTableRecord
100
AcDbLayerTableRecord
  2
HIDDEN
 70
0
 62
7
  6
CONTINUOUS
370
-3
390
13
347
21
  0
LAYER
  5
155
330
1
100
AcDbSymbolTableRecord
100
AcDbLayerTableRecord
  2
Visible (ISO)
 70
0
 62
7
  6
CONTINUOUS
370
13
390
13
347
21
  0
ENDTAB
  0
TABLE
  2
STYLE
  5
5
330
0
100
AcDbSymbolTable
 70
1
  0
STYLE
  5
29
330
5
100
AcDbSymbolTableRecord
100
AcDbTextStyleTableRecord
  2
Standard
 70
0
 40
0.0
 41
1.0
 50
0.0
 71
0
 42
2.5
  3
txt
  4

  0
ENDTAB
  0
TABLE
  2
VIEW
  5
7
330
0
100
AcDbSymbolTable
 70
0
  0
ENDTAB
  0
TABLE
  2
UCS
  5
6
330
0
100
AcDbSymbolTable
 70
0
  0
ENDTAB
  0
TABLE
  2
APPID
  5
3
330
0
100
AcDbSymbolTable
 70
3
  0
APPID
  5
2A
330
3
100
AcDbSymbolTableRecord
100
AcDbRegAppTableRecord
  2
ACAD
 70
0
  0
APPID
  5
159
330
3
100
AcDbSymbolTableRecord
100
AcDbRegAppTableRecord
  2
HATCHBACKGROUNDCOLOR
 70
0
  0
APPID
  5
15A
330
3
100
AcDbSymbolTableRecord
100
AcDbRegAppTableRecord
  2
EZDXF
 70
0
  0
ENDTAB
  0
TABLE
  2
DIMSTYLE
  5
4
330
0
100
AcDbSymbolTable
 70
1
100
AcDbDimStyleTable
  0
DIMSTYLE
105
2B
330
4
100
AcDbSymbolTableRecord
100
AcDbDimStyleTableRecord
  2
Standard
 70
0
 40
1.0
 41
2.5
 42
0.625
 43
3.75
 44
1.25
 45
0.0
 46
0.0
 47
0.0
 48
0.0
 49
2.5
140
2.5
141
2.5
142
0.0
143
0.03937007874
144
1.0
145
0.0
146
1.0
147
0.625
148
0.0
 69
0
 70
0
 71
0
 72
0
 73
0
 74
0
 75
0
 76
0
 77
1
 78
8
 79
3
170
0
171
3
172
1
173
0
174
0
175
0
176
0
177
0
178
0
179
2
271
2
272
2
273
2
274
3
275
0
276
0
277
2
278
44
279
0
280
0
281
0
282
0
283
0
284
8
285
0
286
0
288
0
289
3
290
0
371
-2
372
-2
  0
ENDTAB
  0
TABLE
  2
BLOCK_RECORD
  5
9
330
0
100
AcDbSymbolTable
 70
3
  0
BLOCK_RECORD
  5
17
330
9
100
AcDbSymbolTableRecord
100
AcDbBlockTableRecord
  2
*Model_Space
340
1A
 70
0
280
1
281
0
  0
BLOCK_RECORD
  5
1B
330
9
100
AcDbSymbolTableRecord
100
AcDbBlockTableRecord
  2
*Paper_Space
340
1E
 70
0
280
1
281
0
  0
BLOCK_RECORD
  5
2F
330
9
100
AcDbSymbolTableRecord
100
AcDbBlockTableRecord
  2
LC1D9-18
340
0
 70
0
280
1
281
0
  0
ENDTAB
  0
ENDSEC
  0
SECTION
  2
BLOCKS
  0
BLOCK
  5
18
330
17
100
AcDbEntity
  8
0
100
AcDbBlockBegin
  2
*Model_Space
 70
0
 10
0.0
 20
0.0
 30
0.0
  3
*Model_Space
  1

  0
ENDBLK
  5
19
330
17
100
AcDbEntity
  8
0
100
AcDbBlockEnd
  0
BLOCK
  5
1C
330
1B
100
AcDbEntity
  8
0
100
AcDbBlockBegin
  2
*Paper_Space
 70
0
 10
0.0
 20
0.0
 30
0.0
  3
*Paper_Space
  1

  0
ENDBLK
  5
1D
330
1B
100
AcDbEntity
  8
0
100
AcDbBlockEnd
  0
BLOCK
  5
30
330
2F
100
AcDbEntity
  8
0
100
AcDbBlockBegin
  2
LC1D9-18
 70
0
 10
0.0
 20
0.0
 30
0.0
  3
LC1D9-18
  1

  0
LINE
  5
32
330
2F
100
AcDbEntity
  8
HIDDEN
100
AcDbLine
 10
44.80000000000131
 20
19.70000000000073
 30
0.0
 11
44.80000000000131
 21
19.70000000000073
 31
0.0
  0
LINE
  5
33
330
2F
100
AcDbEntity
  8
HIDDEN
100
AcDbLine
 10
44.80000000000131
 20
30.30000000000018
 30
0.0
 11
44.80000000000131
 21
30.30000000000018
 31
0.0
  0
LINE
  5
34
330
2F
100
AcDbEntity
  8
HIDDEN
100
AcDbLine
 10
44.80000000000131
 20
35.90000000000055
 30
0.0
 11
44.80000000000131
 21
35.90000000000055
 31
0.0
  0
LINE
  5
35
330
2F
100
AcDbEntity
  8
HIDDEN
100
AcDbLine
 10
44.80000000000131
 20
30.20000000000073
 30
0.0
 11
44.80000000000131
 21
30.20000000000073
 31
0.0
  0
LINE
  5
36
330
2F
100
AcDbEntity
  8
HIDDEN
100
AcDbLine
 10
44.80000000000131
 20
25.80002468246494
 30
0.0
 11
44.80000000000131
 21
30.20000000000073
 31
0.0
  0
LINE
  5
37
330
2F
100
AcDbEntity
  8
HIDDEN
100
AcDbLine
 10
44.80000000000131
 20
15.79999999999017
 30
0.0
 11
1.3642e-12
 21
15.79999999999017
 31
0.0
  0
LINE
  5
38
330
2F
100
AcDbEntity
  8
THICK
100
AcDbLine
 10
1.3642e-12
 20
-35.89999999999964
 30
0.0
 11
1.3642e-12
 21
-30.19999999999982
 31
0.0
  0
LINE
  5
39
330
2F
100
AcDbEntity
  8
HIDDEN
100
AcDbLine
 10
9.20000000000141
 20
-35.9034853476096
 30
0.0
 11
9.20000000000141
 21
-35.9034853476096
 31
0.0
  0
LINE
  5
3A
330
2F
100
AcDbEntity
  8
HIDDEN
100
AcDbLine
 10
41.25000000000136
 20
15.80000000000018
 30
0.0
 11
28.90000000000123
 21
15.80000000000018
 31
0.0
  0
LINE
  5
3B
330
2F
100
AcDbEntity
  8
HIDDEN
100
AcDbLine
 10
15.90000000000123
 20
15.80000000000018
 30
0.0
 11
3.550000000001318
 21
15.80000000000018
 31
0.0
  0
LINE
  5
3C
330
2F
100
AcDbEntity
  8
HIDDEN
100
AcDbLine
 10
41.25000000000136
 20
15.80000000000018
 30
0.0
 11
41.25000000000136
 21
15.80000000000018
 31
0.0
  0
LINE
  5
3D
330
2F
100
AcDbEntity
  8
HIDDEN
100
AcDbLine
 10
35.6000000000015
 20
35.90348534761051
 30
0.0
 11
35.6000000000015
 21
35.90348534761051
 31
0.0
  0
LINE
  5
3E
330
2F
100
AcDbEntity
  8
HIDDEN
100
AcDbLine
 10
3.550000000001318
 20
15.80000000000018
 30
0.0
 11
3.550000000001318
 21
15.80000000000018
 31
0.0
  0
LINE
  5
3F
330
2F
100
AcDbEntity
  8
HIDDEN
100
AcDbLine
 10
28.90000000000123
 20
15.80000000000018
 30
0.0
 11
28.90000000000123
 21
15.80000000000018
 31
0.0
  0
LINE
  5
40
330
2F
100
AcDbEntity
  8
HIDDEN
100
AcDbLine
 10
44.80000000000131
 20
30.20000000000073
 30
0.0
 11
44.80000000000131
 21
30.20000000000073
 31
0.0
  0
LINE
  5
41
330
2F
100
AcDbEntity
  8
HIDDEN
100
AcDbLine
 10
44.80000000000131
 20
35.90000000000055
 30
0.0
 11
44.80000000000131
 21
35.90000000000055
 31
0.0
  0
LINE
  5
42
330
2F
100
AcDbEntity
  8
THICK
100
AcDbLine
 10
1.3642e-12
 20
-35.89999999999964
 30
0.0
 11
1.3642e-12
 21
-25.79999971951747
 31
0.0
  0
LINE
  5
43
330
2F
100
AcDbEntity
  8
THICK
100
AcDbLine
 10
2.2737e-12
 20
-25.79999999999927
 30
0.0
 11
44.80000000000131
 21
-25.79999999999927
 31
0.0
  0
LINE
  5
44
330
2F
100
AcDbEntity
  8
HIDDEN
 62
1
100
AcDbLine
 10
40.40000000000122
 20
25.80000000000018
 30
0.0
 11
40.40000000000122
 21
25.80000000000018
 31
0.0
  0
LINE
  5
45
330
2F
100
AcDbEntity
  8
HIDDEN
100
AcDbLine
 10
1.3642e-12
 20
25.80000000000018
 30
0.0
 11
1.3642e-12
 21
25.80000000000018
 31
0.0
  0
LINE
  5
46
330
2F
100
AcDbEntity
  8
THICK
100
AcDbLine
 10
2.2737e-12
 20
25.80000000000018
 30
0.0
 11
44.80000000000131
 21
25.80000000000018
 31
0.0
  0
LINE
  5
47
330
2F
100
AcDbEntity
  8
HIDDEN
100
AcDbLine
 10
44.80000000000131
 20
25.80000000000018
 30
0.0
 11
44.80000000000131
 21
25.80000000000018
 31
0.0
  0
LINE
  5
48
330
2F
100
AcDbEntity
  8
HIDDEN
100
AcDbLine
 10
4.400000000001227
 20
25.80000000000018
 30
0.0
 11
4.400000000001227
 21
25.80000000000018
 31
0.0
  0
LINE
  5
49
330
2F
100
AcDbEntity
  8
HIDDEN
100
AcDbLine
 10
44.80000000000131
 20
-14.69999999999982
 30
0.0
 11
44.80000000000131
 21
14.70000000000073
 31
0.0
  0
LINE
  5
4A
330
2F
100
AcDbEntity
  8
THICK
100
AcDbLine
 10
1.3642e-12
 20
-25.79999999999927
 30
0.0
 11
1.3642e-12
 21
-14.79999859759209
 31
0.0
  0
LINE
  5
4B
330
2F
100
AcDbEntity
  8
HIDDEN
100
AcDbLine
 10
1.3642e-12
 20
-14.79999859759209
 30
0.0
 11
1.3642e-12
 21
-14.69999999999982
 31
0.0
  0
LINE
  5
4C
330
2F
100
AcDbEntity
  8
HIDDEN
100
AcDbLine
 10
1.3642e-12
 20
-14.69999999999982
 30
0.0
 11
1.3642e-12
 21
-14.69999999999982
 31
0.0
  0
LINE
  5
4D
330
2F
100
AcDbEntity
  8
THICK
100
AcDbLine
 10
2.899999999945976
 20
-14.79999999999927
 30
0.0
 11
0.1152586746425186
 21
-14.79999999999927
 31
0.0
  0
LINE
  5
4E
330
2F
100
AcDbEntity
  8
THICK
100
AcDbLine
 10
-0.0026198379086964
 20
-14.79999999999927
 30
0.0
 11
0.1152586746418365
 21
-14.79999999999927
 31
0.0
  0
LINE
  5
4F
330
2F
100
AcDbEntity
  8
THICK
100
AcDbLine
 10
44.80261983791137
 20
14.70000000000073
 30
0.0
 11
44.80261983791137
 21
-14.79999999999927
 31
0.0
  0
LINE
  5
50
330
2F
100
AcDbEntity
  8
HIDDEN
100
AcDbLine
 10
0.0999999999614829
 20
-14.79999999999927
 30
0.0
 11
0.0999999999614829
 21
-14.79999999999927
 31
0.0
  0
LINE
  5
51
330
2F
100
AcDbEntity
  8
THICK
100
AcDbLine
 10
1.152313388287666
 20
-14.79999999999927
 30
0.0
 11
0.0999999999614829
 21
-14.79999999999927
 31
0.0
  0
LINE
  5
52
330
2F
100
AcDbEntity
  8
THICK
 62
1
100
AcDbLine
 10
11.00000000000136
 20
30.90000000000055
 30
0.0
 11
9.000000000001364
 21
30.90000000000055
 31
0.0
  0
LINE
  5
53
330
2F
100
AcDbEntity
  8
HIDDEN
 62
1
100
AcDbLine
 10
9.000000000001364
 20
30.90000000000055
 30
0.0
 11
9.000000000001364
 21
30.90000000000055
 31
0.0
  0
LINE
  5
54
330
2F
100
AcDbEntity
  8
HIDDEN
 62
1
100
AcDbLine
 10
11.00000000000136
 20
30.90000000000055
 30
0.0
 11
11.00000000000136
 21
30.90000000000055
 31
0.0
  0
LINE
  5
55
330
2F
100
AcDbEntity
  8
THICK
 62
1
100
AcDbLine
 10
9.000000000001364
 20
33.64304449322663
 30
0.0
 11
9.000000000001364
 21
30.90000000000055
 31
0.0
  0
LINE
  5
56
330
2F
100
AcDbEntity
  8
THICK
 62
1
100
AcDbLine
 10
7.800000000001318
 20
33.64304885712409
 30
0.0
 11
7.800000000001318
 21
30.90000000000055
 31
0.0
  0
LINE
  5
57
330
2F
100
AcDbEntity
  8
THICK
 62
1
100
AcDbLine
 10
7.800000000001318
 20
27.35695797841163
 30
0.0
 11
7.800000000001318
 21
30.10000000000037
 31
0.0
  0
LINE
  5
58
330
2F
100
AcDbEntity
  8
THICK
 62
1
100
AcDbLine
 10
5.800000000001318
 20
30.10000000000037
 30
0.0
 11
7.800000000001318
 21
30.10000000000037
 31
0.0
  0
LINE
  5
59
330
2F
100
AcDbEntity
  8
THICK
 62
1
100
AcDbLine
 10
5.800000000001318
 20
30.90000000000055
 30
0.0
 11
5.800000000001318
 21
30.10000000000037
 31
0.0
  0
LINE
  5
5A
330
2F
100
AcDbEntity
  8
THICK
 62
1
100
AcDbLine
 10
7.800000000001318
 20
30.90000000000055
 30
0.0
 11
5.800000000001318
 21
30.90000000000055
 31
0.0
  0
LINE
  5
5B
330
2F
100
AcDbEntity
  8
THICK
 62
1
100
AcDbLine
 10
9.000000000001364
 20
27.35694975671504
 30
0.0
 11
9.000000000001364
 21
30.10000000000037
 31
0.0
  0
LINE
  5
5C
330
2F
100
AcDbEntity
  8
THICK
 62
1
100
AcDbLine
 10
11.00000000000136
 20
30.10000000000037
 30
0.0
 11
11.00000000000136
 21
30.90000000000055
 31
0.0
  0
LINE
  5
5D
330
2F
100
AcDbEntity
  8
THICK
 62
1
100
AcDbLine
 10
9.000000000001364
 20
30.10000000000037
 30
0.0
 11
11.00000000000136
 21
30.10000000000037
 31
0.0
  0
LINE
  5
5E
330
2F
100
AcDbEntity
  8
HIDDEN
 62
1
100
AcDbLine
 10
7.800000000001318
 20
30.90000000000055
 30
0.0
 11
7.800000000001318
 21
30.90000000000055
 31
0.0
  0
LINE
  5
5F
330
2F
100
AcDbEntity
  8
HIDDEN
 62
1
100
AcDbLine
 10
5.800000000001318
 20
30.90000000000055
 30
0.0
 11
5.800000000001318
 21
30.90000000000055
 31
0.0
  0
LINE
  5
60
330
2F
100
AcDbEntity
  8
HIDDEN
 62
1
100
AcDbLine
 10
5.800000000001318
 20
30.10000000000037
 30
0.0
 11
5.800000000001318
 21
30.10000000000037
 31
0.0
  0
LINE
  5
61
330
2F
100
AcDbEntity
  8
HIDDEN
 62
1
100
AcDbLine
 10
7.800000000001318
 20
30.10000000000037
 30
0.0
 11
7.800000000001318
 21
30.10000000000037
 31
0.0
  0
LINE
  5
62
330
2F
100
AcDbEntity
  8
HIDDEN
 62
1
100
AcDbLine
 10
9.000000000001364
 20
30.10000000000037
 30
0.0
 11
9.000000000001364
 21
30.10000000000037
 31
0.0
  0
LINE
  5
63
330
2F
100
AcDbEntity
  8
HIDDEN
 62
1
100
AcDbLine
 10
11.00000000000136
 20
30.10000000000037
 30
0.0
 11
11.00000000000136
 21
30.10000000000037
 31
0.0
  0
CIRCLE
  5
64
330
2F
100
AcDbEntity
  8
0
 62
1
100
AcDbCircle
 10
8.400000000001228
 20
30.5
 30
0.0
 40
3.199292589286415
  0
LINE
  5
65
330
2F
100
AcDbEntity
  8
THICK
 62
1
100
AcDbLine
 10
25.00000000000137
 20
30.90000000000055
 30
0.0
 11
23.00000000000137
 21
30.90000000000055
 31
0.0
  0
LINE
  5
66
330
2F
100
AcDbEntity
  8
HIDDEN
 62
1
100
AcDbLine
 10
23.00000000000137
 20
30.90000000000055
 30
0.0
 11
23.00000000000137
 21
30.90000000000055
 31
0.0
  0
LINE
  5
67
330
2F
100
AcDbEntity
  8
HIDDEN
 62
1
100
AcDbLine
 10
25.00000000000137
 20
30.90000000000055
 30
0.0
 11
25.00000000000137
 21
30.90000000000055
 31
0.0
  0
LINE
  5
68
330
2F
100
AcDbEntity
  8
THICK
 62
1
100
AcDbLine
 10
23.00000000000137
 20
33.64304449322663
 30
0.0
 11
23.00000000000137
 21
30.90000000000055
 31
0.0
  0
LINE
  5
69
330
2F
100
AcDbEntity
  8
THICK
 62
1
100
AcDbLine
 10
21.80000000000132
 20
33.64304885712409
 30
0.0
 11
21.80000000000132
 21
30.90000000000055
 31
0.0
  0
LINE
  5
6A
330
2F
100
AcDbEntity
  8
THICK
 62
1
100
AcDbLine
 10
21.80000000000132
 20
27.35695797841163
 30
0.0
 11
21.80000000000132
 21
30.10000000000037
 31
0.0
  0
LINE
  5
6B
330
2F
100
AcDbEntity
  8
THICK
 62
1
100
AcDbLine
 10
19.80000000000132
 20
30.10000000000037
 30
0.0
 11
21.80000000000132
 21
30.10000000000037
 31
0.0
  0
LINE
  5
6C
330
2F
100
AcDbEntity
  8
THICK
 62
1
100
AcDbLine
 10
19.80000000000132
 20
30.90000000000055
 30
0.0
 11
19.80000000000132
 21
30.10000000000037
 31
0.0
  0
LINE
  5
6D
330
2F
100
AcDbEntity
  8
THICK
 62
1
100
AcDbLine
 10
21.80000000000132
 20
30.90000000000055
 30
0.0
 11
19.80000000000132
 21
30.90000000000055
 31
0.0
  0
LINE
  5
6E
330
2F
100
AcDbEntity
  8
THICK
 62
1
100
AcDbLine
 10
23.00000000000137
 20
27.35694975671504
 30
0.0
 11
23.00000000000137
 21
30.10000000000037
 31
0.0
  0
LINE
  5
6F
330
2F
100
AcDbEntity
  8
THICK
 62
1
100
AcDbLine
 10
25.00000000000137
 20
30.10000000000037
 30
0.0
 11
25.00000000000137
 21
30.90000000000055
 31
0.0
  0
LINE
  5
70
330
2F
100
AcDbEntity
  8
THICK
 62
1
100
AcDbLine
 10
23.00000000000137
 20
30.10000000000037
 30
0.0
 11
25.00000000000137
 21
30.10000000000037
 31
0.0
  0
LINE
  5
71
330
2F
100
AcDbEntity
  8
HIDDEN
 62
1
100
AcDbLine
 10
21.80000000000132
 20
30.90000000000055
 30
0.0
 11
21.80000000000132
 21
30.90000000000055
 31
0.0
  0
LINE
  5
72
330
2F
100
AcDbEntity
  8
HIDDEN
 62
1
100
AcDbLine
 10
19.80000000000132
 20
30.90000000000055
 30
0.0
 11
19.80000000000132
 21
30.90000000000055
 31
0.0
  0
LINE
  5
73
330
2F
100
AcDbEntity
  8
HIDDEN
 62
1
100
AcDbLine
 10
19.80000000000132
 20
30.10000000000037
 30
0.0
 11
19.80000000000132
 21
30.10000000000037
 31
0.0
  0
LINE
  5
74
330
2F
100
AcDbEntity
  8
HIDDEN
 62
1
100
AcDbLine
 10
21.80000000000132
 20
30.10000000000037
 30
0.0
 11
21.80000000000132
 21
30.10000000000037
 31
0.0
  0
LINE
  5
75
330
2F
100
AcDbEntity
  8
HIDDEN
 62
1
100
AcDbLine
 10
23.00000000000137
 20
30.10000000000037
 30
0.0
 11
23.00000000000137
 21
30.10000000000037
 31
0.0
  0
LINE
  5
76
330
2F
100
AcDbEntity
  8
HIDDEN
 62
1
100
AcDbLine
 10
25.00000000000137
 20
30.10000000000037
 30
0.0
 11
25.00000000000137
 21
30.10000000000037
 31
0.0
  0
CIRCLE
  5
77
330
2F
100
AcDbEntity
  8
0
 62
1
100
AcDbCircle
 10
22.40000000000123
 20
30.5
 30
0.0
 40
3.199292589286415
  0
LINE
  5
78
330
2F
100
AcDbEntity
  8
THICK
 62
1
100
AcDbLine
 10
39.00000000000114
 20
30.90000000000055
 30
0.0
 11
37.00000000000114
 21
30.90000000000055
 31
0.0
  0
LINE
  5
79
330
2F
100
AcDbEntity
  8
HIDDEN
 62
1
100
AcDbLine
 10
37.00000000000114
 20
30.90000000000055
 30
0.0
 11
37.00000000000114
 21
30.90000000000055
 31
0.0
  0
LINE
  5
7A
330
2F
100
AcDbEntity
  8
HIDDEN
 62
1
100
AcDbLine
 10
39.00000000000114
 20
30.90000000000055
 30
0.0
 11
39.00000000000114
 21
30.90000000000055
 31
0.0
  0
LINE
  5
7B
330
2F
100
AcDbEntity
  8
THICK
 62
1
100
AcDbLine
 10
37.00000000000114
 20
33.64304449322663
 30
0.0
 11
37.00000000000114
 21
30.90000000000055
 31
0.0
  0
LINE
  5
7C
330
2F
100
AcDbEntity
  8
THICK
 62
1
100
AcDbLine
 10
35.80000000000109
 20
33.64304885712409
 30
0.0
 11
35.80000000000109
 21
30.90000000000055
 31
0.0
  0
LINE
  5
7D
330
2F
100
AcDbEntity
  8
THICK
 62
1
100
AcDbLine
 10
35.80000000000109
 20
27.35695797841163
 30
0.0
 11
35.80000000000109
 21
30.10000000000037
 31
0.0
  0
LINE
  5
7E
330
2F
100
AcDbEntity
  8
THICK
 62
1
100
AcDbLine
 10
33.80000000000109
 20
30.10000000000037
 30
0.0
 11
35.80000000000109
 21
30.10000000000037
 31
0.0
  0
LINE
  5
7F
330
2F
100
AcDbEntity
  8
THICK
 62
1
100
AcDbLine
 10
33.80000000000109
 20
30.90000000000055
 30
0.0
 11
33.80000000000109
 21
30.10000000000037
 31
0.0
  0
LINE
  5
80
330
2F
100
AcDbEntity
  8
THICK
 62
1
100
AcDbLine
 10
35.80000000000109
 20
30.90000000000055
 30
0.0
 11
33.80000000000109
 21
30.90000000000055
 31
0.0
  0
LINE
  5
81
330
2F
100
AcDbEntity
  8
THICK
 62
1
100
AcDbLine
 10
37.00000000000114
 20
27.35694975671504
 30
0.0
 11
37.00000000000114
 21
30.10000000000037
 31
0.0
  0
LINE
  5
82
330
2F
100
AcDbEntity
  8
THICK
 62
1
100
AcDbLine
 10
39.00000000000114
 20
30.10000000000037
 30
0.0
 11
39.00000000000114
 21
30.90000000000055
 31
0.0
  0
LINE
  5
83
330
2F
100
AcDbEntity
  8
THICK
 62
1
100
AcDbLine
 10
37.00000000000114
 20
30.10000000000037
 30
0.0
 11
39.00000000000114
 21
30.10000000000037
 31
0.0
  0
LINE
  5
84
330
2F
100
AcDbEntity
  8
HIDDEN
 62
1
100
AcDbLine
 10
35.80000000000109
 20
30.90000000000055
 30
0.0
 11
35.80000000000109
 21
30.90000000000055
 31
0.0
  0
LINE
  5
85
330
2F
100
AcDbEntity
  8
HIDDEN
 62
1
100
AcDbLine
 10
33.80000000000109
 20
30.90000000000055
 30
0.0
 11
33.80000000000109
 21
30.90000000000055
 31
0.0
  0
LINE
  5
86
330
2F
100
AcDbEntity
  8
HIDDEN
 62
1
100
AcDbLine
 10
33.80000000000109
 20
30.10000000000037
 30
0.0
 11
33.80000000000109
 21
30.10000000000037
 31
0.0
  0
LINE
  5
87
330
2F
100
AcDbEntity
  8
HIDDEN
 62
1
100
AcDbLine
 10
35.80000000000109
 20
30.10000000000037
 30
0.0
 11
35.80000000000109
 21
30.10000000000037
 31
0.0
  0
LINE
  5
88
330
2F
100
AcDbEntity
  8
HIDDEN
 62
1
100
AcDbLine
 10
37.00000000000114
 20
30.10000000000037
 30
0.0
 11
37.00000000000114
 21
30.10000000000037
 31
0.0
  0
LINE
  5
89
330
2F
100
AcDbEntity
  8
HIDDEN
 62
1
100
AcDbLine
 10
39.00000000000114
 20
30.10000000000037
 30
0.0
 11
39.00000000000114
 21
30.10000000000037
 31
0.0
  0
CIRCLE
  5
8A
330
2F
100
AcDbEntity
  8
0
 62
1
100
AcDbCircle
 10
36.400000000001
 20
30.5
 30
0.0
 40
3.199292589286415
  0
LINE
  5
8B
330
2F
100
AcDbEntity
  8
THICK
 62
1
100
AcDbLine
 10
19.70002810838787
 20
19.70000000000164
 30
0.0
 11
17.70002810838787
 21
19.70000000000164
 31
0.0
  0
LINE
  5
8C
330
2F
100
AcDbEntity
  8
HIDDEN
 62
1
100
AcDbLine
 10
17.70002810838787
 20
19.70000000000164
 30
0.0
 11
17.70002810838787
 21
19.70000000000164
 31
0.0
  0
LINE
  5
8D
330
2F
100
AcDbEntity
  8
HIDDEN
 62
1
100
AcDbLine
 10
19.70002810838787
 20
19.70000000000164
 30
0.0
 11
19.70002810838787
 21
19.70000000000164
 31
0.0
  0
LINE
  5
8E
330
2F
100
AcDbEntity
  8
THICK
 62
1
100
AcDbLine
 10
17.70002810838787
 20
22.44304449322772
 30
0.0
 11
17.70002810838787
 21
19.70000000000164
 31
0.0
  0
LINE
  5
8F
330
2F
100
AcDbEntity
  8
THICK
 62
1
100
AcDbLine
 10
16.50002810838782
 20
22.44304885712518
 30
0.0
 11
16.50002810838782
 21
19.70000000000164
 31
0.0
  0
LINE
  5
90
330
2F
100
AcDbEntity
  8
THICK
 62
1
100
AcDbLine
 10
16.50002810838782
 20
16.15695797841272
 30
0.0
 11
16.50002810838782
 21
18.90000000000145
 31
0.0
  0
LINE
  5
91
330
2F
100
AcDbEntity
  8
THICK
 62
1
100
AcDbLine
 10
14.50002810838782
 20
18.90000000000145
 30
0.0
 11
16.50002810838782
 21
18.90000000000145
 31
0.0
  0
LINE
  5
92
330
2F
100
AcDbEntity
  8
THICK
 62
1
100
AcDbLine
 10
14.50002810838782
 20
19.70000000000164
 30
0.0
 11
14.50002810838782
 21
18.90000000000145
 31
0.0
  0
LINE
  5
93
330
2F
100
AcDbEntity
  8
THICK
 62
1
100
AcDbLine
 10
16.50002810838782
 20
19.70000000000164
 30
0.0
 11
14.50002810838782
 21
19.70000000000164
 31
0.0
  0
LINE
  5
94
330
2F
100
AcDbEntity
  8
THICK
 62
1
100
AcDbLine
 10
17.70002810838787
 20
16.15694975671613
 30
0.0
 11
17.70002810838787
 21
18.90000000000145
 31
0.0
  0
LINE
  5
95
330
2F
100
AcDbEntity
  8
THICK
 62
1
100
AcDbLine
 10
19.70002810838787
 20
18.90000000000145
 30
0.0
 11
19.70002810838787
 21
19.70000000000164
 31
0.0
  0
LINE
  5
96
330
2F
100
AcDbEntity
  8
THICK
 62
1
100
AcDbLine
 10
17.70002810838787
 20
18.90000000000145
 30
0.0
 11
19.70002810838787
 21
18.90000000000145
 31
0.0
  0
LINE
  5
97
330
2F
100
AcDbEntity
  8
HIDDEN
 62
1
100
AcDbLine
 10
16.50002810838782
 20
19.70000000000164
 30
0.0
 11
16.50002810838782
 21
19.70000000000164
 31
0.0
  0
LINE
  5
98
330
2F
100
AcDbEntity
  8
HIDDEN
 62
1
100
AcDbLine
 10
14.50002810838782
 20
19.70000000000164
 30
0.0
 11
14.50002810838782
 21
19.70000000000164
 31
0.0
  0
LINE
  5
99
330
2F
100
AcDbEntity
  8
HIDDEN
 62
1
100
AcDbLine
 10
14.50002810838782
 20
18.90000000000145
 30
0.0
 11
14.50002810838782
 21
18.90000000000145
 31
0.0
  0
LINE
  5
9A
330
2F
100
AcDbEntity
  8
HIDDEN
 62
1
100
AcDbLine
 10
16.50002810838782
 20
18.90000000000145
 30
0.0
 11
16.50002810838782
 21
18.90000000000145
 31
0.0
  0
LINE
  5
9B
330
2F
100
AcDbEntity
  8
HIDDEN
 62
1
100
AcDbLine
 10
17.70002810838787
 20
18.90000000000145
 30
0.0
 11
17.70002810838787
 21
18.90000000000145
 31
0.0
  0
LINE
  5
9C
330
2F
100
AcDbEntity
  8
HIDDEN
 62
1
100
AcDbLine
 10
19.70002810838787
 20
18.90000000000145
 30
0.0
 11
19.70002810838787
 21
18.90000000000145
 31
0.0
  0
CIRCLE
  5
9D
330
2F
100
AcDbEntity
  8
0
 62
1
100
AcDbCircle
 10
17.10002810838773
 20
19.30000000000109
 30
0.0
 40
3.199292589286415
  0
LINE
  5
9E
330
2F
100
AcDbEntity
  8
THICK
 62
1
100
AcDbLine
 10
30.30002810838778
 20
19.70000000000164
 30
0.0
 11
28.30002810838778
 21
19.70000000000164
 31
0.0
  0
LINE
  5
9F
330
2F
100
AcDbEntity
  8
HIDDEN
 62
1
100
AcDbLine
 10
28.30002810838778
 20
19.70000000000164
 30
0.0
 11
28.30002810838778
 21
19.70000000000164
 31
0.0
  0
LINE
  5
A0
330
2F
100
AcDbEntity
  8
HIDDEN
 62
1
100
AcDbLine
 10
30.30002810838778
 20
19.70000000000164
 30
0.0
 11
30.30002810838778
 21
19.70000000000164
 31
0.0
  0
LINE
  5
A1
330
2F
100
AcDbEntity
  8
THICK
 62
1
100
AcDbLine
 10
28.30002810838778
 20
22.44304449322772
 30
0.0
 11
28.30002810838778
 21
19.70000000000164
 31
0.0
  0
LINE
  5
A2
330
2F
100
AcDbEntity
  8
THICK
 62
1
100
AcDbLine
 10
27.10002810838773
 20
22.44304885712518
 30
0.0
 11
27.10002810838773
 21
19.70000000000164
 31
0.0
  0
LINE
  5
A3
330
2F
100
AcDbEntity
  8
THICK
 62
1
100
AcDbLine
 10
27.10002810838773
 20
16.15695797841272
 30
0.0
 11
27.10002810838773
 21
18.90000000000145
 31
0.0
  0
LINE
  5
A4
330
2F
100
AcDbEntity
  8
THICK
 62
1
100
AcDbLine
 10
25.10002810838773
 20
18.90000000000145
 30
0.0
 11
27.10002810838773
 21
18.90000000000145
 31
0.0
  0
LINE
  5
A5
330
2F
100
AcDbEntity
  8
THICK
 62
1
100
AcDbLine
 10
25.10002810838773
 20
19.70000000000164
 30
0.0
 11
25.10002810838773
 21
18.90000000000145
 31
0.0
  0
LINE
  5
A6
330
2F
100
AcDbEntity
  8
THICK
 62
1
100
AcDbLine
 10
27.10002810838773
 20
19.70000000000164
 30
0.0
 11
25.10002810838773
 21
19.70000000000164
 31
0.0
  0
LINE
  5
A7
330
2F
100
AcDbEntity
  8
THICK
 62
1
100
AcDbLine
 10
28.30002810838778
 20
16.15694975671613
 30
0.0
 11
28.30002810838778
 21
18.90000000000145
 31
0.0
  0
LINE
  5
A8
330
2F
100
AcDbEntity
  8
THICK
 62
1
100
AcDbLine
 10
30.30002810838778
 20
18.90000000000145
 30
0.0
 11
30.30002810838778
 21
19.70000000000164
 31
0.0
  0
LINE
  5
A9
330
2F
100
AcDbEntity
  8
THICK
 62
1
100
AcDbLine
 10
28.30002810838778
 20
18.90000000000145
 30
0.0
 11
30.30002810838778
 21
18.90000000000145
 31
0.0
  0
LINE
  5
AA
330
2F
100
AcDbEntity
  8
HIDDEN
 62
1
100
AcDbLine
 10
27.10002810838773
 20
19.70000000000164
 30
0.0
 11
27.10002810838773
 21
19.70000000000164
 31
0.0
  0
LINE
  5
AB
330
2F
100
AcDbEntity
  8
HIDDEN
 62
1
100
AcDbLine
 10
25.10002810838773
 20
19.70000000000164
 30
0.0
 11
25.10002810838773
 21
19.70000000000164
 31
0.0
  0
LINE
  5
AC
330
2F
100
AcDbEntity
  8
HIDDEN
 62
1
100
AcDbLine
 10
25.10002810838773
 20
18.90000000000145
 30
0.0
 11
25.10002810838773
 21
18.90000000000145
 31
0.0
  0
LINE
  5
AD
330
2F
100
AcDbEntity
  8
HIDDEN
 62
1
100
AcDbLine
 10
27.10002810838773
 20
18.90000000000145
 30
0.0
 11
27.10002810838773
 21
18.90000000000145
 31
0.0
  0
LINE
  5
AE
330
2F
100
AcDbEntity
  8
HIDDEN
 62
1
100
AcDbLine
 10
28.30002810838778
 20
18.90000000000145
 30
0.0
 11
28.30002810838778
 21
18.90000000000145
 31
0.0
  0
LINE
  5
AF
330
2F
100
AcDbEntity
  8
HIDDEN
 62
1
100
AcDbLine
 10
30.30002810838778
 20
18.90000000000145
 30
0.0
 11
30.30002810838778
 21
18.90000000000145
 31
0.0
  0
CIRCLE
  5
B0
330
2F
100
AcDbEntity
  8
0
 62
1
100
AcDbCircle
 10
27.70002810838764
 20
19.30000000000109
 30
0.0
 40
3.199292589286415
  0
LINE
  5
B1
330
2F
100
AcDbEntity
  8
THICK
 62
1
100
AcDbLine
 10
40.90000000000145
 20
19.70000000000164
 30
0.0
 11
38.90000000000146
 21
19.70000000000164
 31
0.0
  0
LINE
  5
B2
330
2F
100
AcDbEntity
  8
HIDDEN
 62
1
100
AcDbLine
 10
38.90000000000146
 20
19.70000000000164
 30
0.0
 11
38.90000000000146
 21
19.70000000000164
 31
0.0
  0
LINE
  5
B3
330
2F
100
AcDbEntity
  8
HIDDEN
 62
1
100
AcDbLine
 10
40.90000000000145
 20
19.70000000000164
 30
0.0
 11
40.90000000000145
 21
19.70000000000164
 31
0.0
  0
LINE
  5
B4
330
2F
100
AcDbEntity
  8
THICK
 62
1
100
AcDbLine
 10
38.90000000000146
 20
22.44304449322772
 30
0.0
 11
38.90000000000146
 21
19.70000000000164
 31
0.0
  0
LINE
  5
B5
330
2F
100
AcDbEntity
  8
THICK
 62
1
100
AcDbLine
 10
37.70000000000141
 20
22.44304885712518
 30
0.0
 11
37.70000000000141
 21
19.70000000000164
 31
0.0
  0
LINE
  5
B6
330
2F
100
AcDbEntity
  8
THICK
 62
1
100
AcDbLine
 10
37.70000000000141
 20
16.15695797841272
 30
0.0
 11
37.70000000000141
 21
18.90000000000145
 31
0.0
  0
LINE
  5
B7
330
2F
100
AcDbEntity
  8
THICK
 62
1
100
AcDbLine
 10
35.70000000000141
 20
18.90000000000145
 30
0.0
 11
37.70000000000141
 21
18.90000000000145
 31
0.0
  0
LINE
  5
B8
330
2F
100
AcDbEntity
  8
THICK
 62
1
100
AcDbLine
 10
35.70000000000141
 20
19.70000000000164
 30
0.0
 11
35.70000000000141
 21
18.90000000000145
 31
0.0
  0
LINE
  5
B9
330
2F
100
AcDbEntity
  8
THICK
 62
1
100
AcDbLine
 10
37.70000000000141
 20
19.70000000000164
 30
0.0
 11
35.70000000000141
 21
19.70000000000164
 31
0.0
  0
LINE
  5
BA
330
2F
100
AcDbEntity
  8
THICK
 62
1
100
AcDbLine
 10
38.90000000000146
 20
16.15694975671613
 30
0.0
 11
38.90000000000146
 21
18.90000000000145
 31
0.0
  0
LINE
  5
BB
330
2F
100
AcDbEntity
  8
THICK
 62
1
100
AcDbLine
 10
40.90000000000145
 20
18.90000000000145
 30
0.0
 11
40.90000000000145
 21
19.70000000000164
 31
0.0
  0
LINE
  5
BC
330
2F
100
AcDbEntity
  8
THICK
 62
1
100
AcDbLine
 10
38.90000000000146
 20
18.90000000000145
 30
0.0
 11
40.90000000000145
 21
18.90000000000145
 31
0.0
  0
LINE
  5
BD
330
2F
100
AcDbEntity
  8
HIDDEN
 62
1
100
AcDbLine
 10
37.70000000000141
 20
19.70000000000164
 30
0.0
 11
37.70000000000141
 21
19.70000000000164
 31
0.0
  0
LINE
  5
BE
330
2F
100
AcDbEntity
  8
HIDDEN
 62
1
100
AcDbLine
 10
35.70000000000141
 20
19.70000000000164
 30
0.0
 11
35.70000000000141
 21
19.70000000000164
 31
0.0
  0
LINE
  5
BF
330
2F
100
AcDbEntity
  8
HIDDEN
 62
1
100
AcDbLine
 10
35.70000000000141
 20
18.90000000000145
 30
0.0
 11
35.70000000000141
 21
18.90000000000145
 31
0.0
  0
LINE
  5
C0
330
2F
100
AcDbEntity
  8
HIDDEN
 62
1
100
AcDbLine
 10
37.70000000000141
 20
18.90000000000145
 30
0.0
 11
37.70000000000141
 21
18.90000000000145
 31
0.0
  0
LINE
  5
C1
330
2F
100
AcDbEntity
  8
HIDDEN
 62
1
100
AcDbLine
 10
38.90000000000146
 20
18.90000000000145
 30
0.0
 11
38.90000000000146
 21
18.90000000000145
 31
0.0
  0
LINE
  5
C2
330
2F
100
AcDbEntity
  8
HIDDEN
 62
1
100
AcDbLine
 10
40.90000000000145
 20
18.90000000000145
 30
0.0
 11
40.90000000000145
 21
18.90000000000145
 31
0.0
  0
CIRCLE
  5
C3
330
2F
100
AcDbEntity
  8
0
 62
1
100
AcDbCircle
 10
38.30000000000132
 20
19.30000000000109
 30
0.0
 40
3.199292589286415
  0
LWPOLYLINE
  5
C4
330
2F
100
AcDbEntity
  8
0
100
AcDbPolyline
 90
4
 70
1
 10
-0.002619837908469
 20
1.613379602973509
 10
44.80261983791137
 20
1.613379602973509
 10
44.80261983791137
 20
-14.79999999999927
 10
-0.002619837908469
 20
-14.79999999999927
  0
LWPOLYLINE
  5
C5
330
2F
100
AcDbEntity
  8
0
100
AcDbPolyline
 90
4
 70
1
 10
0.0
 20
35.90000000000055
 10
44.80000000000268
 20
35.90000000000055
 10
44.80000000000268
 20
-35.89999999999964
 10
0.0
 20
-35.89999999999964
  0
LINE
  5
C6
330
2F
100
AcDbEntity
  8
THICK
 62
1
100
AcDbLine
 10
11.00000000000136
 20
-30.90000000000055
 30
0.0
 11
9.000000000001364
 21
-30.90000000000055
 31
0.0
  0
LINE
  5
C7
330
2F
100
AcDbEntity
  8
HIDDEN
 62
1
100
AcDbLine
 10
9.000000000001364
 20
-30.90000000000055
 30
0.0
 11
9.000000000001364
 21
-30.90000000000055
 31
0.0
  0
LINE
  5
C8
330
2F
100
AcDbEntity
  8
HIDDEN
 62
1
100
AcDbLine
 10
11.00000000000136
 20
-30.90000000000055
 30
0.0
 11
11.00000000000136
 21
-30.90000000000055
 31
0.0
  0
LINE
  5
C9
330
2F
100
AcDbEntity
  8
THICK
 62
1
100
AcDbLine
 10
9.000000000001364
 20
-33.64304449322663
 30
0.0
 11
9.000000000001364
 21
-30.90000000000055
 31
0.0
  0
LINE
  5
CA
330
2F
100
AcDbEntity
  8
THICK
 62
1
100
AcDbLine
 10
7.800000000001318
 20
-33.64304885712409
 30
0.0
 11
7.800000000001318
 21
-30.90000000000055
 31
0.0
  0
LINE
  5
CB
330
2F
100
AcDbEntity
  8
THICK
 62
1
100
AcDbLine
 10
7.800000000001318
 20
-27.35695797841163
 30
0.0
 11
7.800000000001318
 21
-30.10000000000037
 31
0.0
  0
LINE
  5
CC
330
2F
100
AcDbEntity
  8
THICK
 62
1
100
AcDbLine
 10
5.800000000001318
 20
-30.10000000000037
 30
0.0
 11
7.800000000001318
 21
-30.10000000000037
 31
0.0
  0
LINE
  5
CD
330
2F
100
AcDbEntity
  8
THICK
 62
1
100
AcDbLine
 10
5.800000000001318
 20
-30.90000000000055
 30
0.0
 11
5.800000000001318
 21
-30.10000000000037
 31
0.0
  0
LINE
  5
CE
330
2F
100
AcDbEntity
  8
THICK
 62
1
100
AcDbLine
 10
7.800000000001318
 20
-30.90000000000055
 30
0.0
 11
5.800000000001318
 21
-30.90000000000055
 31
0.0
  0
LINE
  5
CF
330
2F
100
AcDbEntity
  8
THICK
 62
1
100
AcDbLine
 10
9.000000000001364
 20
-27.35694975671504
 30
0.0
 11
9.000000000001364
 21
-30.10000000000037
 31
0.0
  0
LINE
  5
D0
330
2F
100
AcDbEntity
  8
THICK
 62
1
100
AcDbLine
 10
11.00000000000136
 20
-30.10000000000037
 30
0.0
 11
11.00000000000136
 21
-30.90000000000055
 31
0.0
  0
LINE
  5
D1
330
2F
100
AcDbEntity
  8
THICK
 62
1
100
AcDbLine
 10
9.000000000001364
 20
-30.10000000000037
 30
0.0
 11
11.00000000000136
 21
-30.10000000000037
 31
0.0
  0
LINE
  5
D2
330
2F
100
AcDbEntity
  8
HIDDEN
 62
1
100
AcDbLine
 10
7.800000000001318
 20
-30.90000000000055
 30
0.0
 11
7.800000000001318
 21
-30.90000000000055
 31
0.0
  0
LINE
  5
D3
330
2F
100
AcDbEntity
  8
HIDDEN
 62
1
100
AcDbLine
 10
5.800000000001318
 20
-30.90000000000055
 30
0.0
 11
5.800000000001318
 21
-30.90000000000055
 31
0.0
  0
LINE
  5
D4
330
2F
100
AcDbEntity
  8
HIDDEN
 62
1
100
AcDbLine
 10
5.800000000001318
 20
-30.10000000000037
 30
0.0
 11
5.800000000001318
 21
-30.10000000000037
 31
0.0
  0
LINE
  5
D5
330
2F
100
AcDbEntity
  8
HIDDEN
 62
1
100
AcDbLine
 10
7.800000000001318
 20
-30.10000000000037
 30
0.0
 11
7.800000000001318
 21
-30.10000000000037
 31
0.0
  0
LINE
  5
D6
330
2F
100
AcDbEntity
  8
HIDDEN
 62
1
100
AcDbLine
 10
9.000000000001364
 20
-30.10000000000037
 30
0.0
 11
9.000000000001364
 21
-30.10000000000037
 31
0.0
  0
LINE
  5
D7
330
2F
100
AcDbEntity
  8
HIDDEN
 62
1
100
AcDbLine
 10
11.00000000000136
 20
-30.10000000000037
 30
0.0
 11
11.00000000000136
 21
-30.10000000000037
 31
0.0
  0
CIRCLE
  5
D8
330
2F
100
AcDbEntity
  8
0
 62
1
100
AcDbCircle
 10
8.400000000001228
 20
-30.5
 30
0.0
 40
3.199292589286415
  0
LINE
  5
D9
330
2F
100
AcDbEntity
  8
THICK
 62
1
100
AcDbLine
 10
25.00000000000137
 20
-30.90000000000055
 30
0.0
 11
23.00000000000137
 21
-30.90000000000055
 31
0.0
  0
LINE
  5
DA
330
2F
100
AcDbEntity
  8
HIDDEN
 62
1
100
AcDbLine
 10
23.00000000000137
 20
-30.90000000000055
 30
0.0
 11
23.00000000000137
 21
-30.90000000000055
 31
0.0
  0
LINE
  5
DB
330
2F
100
AcDbEntity
  8
HIDDEN
 62
1
100
AcDbLine
 10
25.00000000000137
 20
-30.90000000000055
 30
0.0
 11
25.00000000000137
 21
-30.90000000000055
 31
0.0
  0
LINE
  5
DC
330
2F
100
AcDbEntity
  8
THICK
 62
1
100
AcDbLine
 10
23.00000000000137
 20
-33.64304449322663
 30
0.0
 11
23.00000000000137
 21
-30.90000000000055
 31
0.0
  0
LINE
  5
DD
330
2F
100
AcDbEntity
  8
THICK
 62
1
100
AcDbLine
 10
21.80000000000132
 20
-33.64304885712409
 30
0.0
 11
21.80000000000132
 21
-30.90000000000055
 31
0.0
  0
LINE
  5
DE
330
2F
100
AcDbEntity
  8
THICK
 62
1
100
AcDbLine
 10
21.80000000000132
 20
-27.35695797841163
 30
0.0
 11
21.80000000000132
 21
-30.10000000000037
 31
0.0
  0
LINE
  5
DF
330
2F
100
AcDbEntity
  8
THICK
 62
1
100
AcDbLine
 10
19.80000000000132
 20
-30.10000000000037
 30
0.0
 11
21.80000000000132
 21
-30.10000000000037
 31
0.0
  0
LINE
  5
E0
330
2F
100
AcDbEntity
  8
THICK
 62
1
100
AcDbLine
 10
19.80000000000132
 20
-30.90000000000055
 30
0.0
 11
19.80000000000132
 21
-30.10000000000037
 31
0.0
  0
LINE
  5
E1
330
2F
100
AcDbEntity
  8
THICK
 62
1
100
AcDbLine
 10
21.80000000000132
 20
-30.90000000000055
 30
0.0
 11
19.80000000000132
 21
-30.90000000000055
 31
0.0
  0
LINE
  5
E2
330
2F
100
AcDbEntity
  8
THICK
 62
1
100
AcDbLine
 10
23.00000000000137
 20
-27.35694975671504
 30
0.0
 11
23.00000000000137
 21
-30.10000000000037
 31
0.0
  0
LINE
  5
E3
330
2F
100
AcDbEntity
  8
THICK
 62
1
100
AcDbLine
 10
25.00000000000137
 20
-30.10000000000037
 30
0.0
 11
25.00000000000137
 21
-30.90000000000055
 31
0.0
  0
LINE
  5
E4
330
2F
100
AcDbEntity
  8
THICK
 62
1
100
AcDbLine
 10
23.00000000000137
 20
-30.10000000000037
 30
0.0
 11
25.00000000000137
 21
-30.10000000000037
 31
0.0
  0
LINE
  5
E5
330
2F
100
AcDbEntity
  8
HIDDEN
 62
1
100
AcDbLine
 10
21.80000000000132
 20
-30.90000000000055
 30
0.0
 11
21.80000000000132
 21
-30.90000000000055
 31
0.0
  0
LINE
  5
E6
330
2F
100
AcDbEntity
  8
HIDDEN
 62
1
100
AcDbLine
 10
19.80000000000132
 20
-30.90000000000055
 30
0.0
 11
19.80000000000132
 21
-30.90000000000055
 31
0.0
  0
LINE
  5
E7
330
2F
100
AcDbEntity
  8
HIDDEN
 62
1
100
AcDbLine
 10
19.80000000000132
 20
-30.10000000000037
 30
0.0
 11
19.80000000000132
 21
-30.10000000000037
 31
0.0
  0
LINE
  5
E8
330
2F
100
AcDbEntity
  8
HIDDEN
 62
1
100
AcDbLine
 10
21.80000000000132
 20
-30.10000000000037
 30
0.0
 11
21.80000000000132
 21
-30.10000000000037
 31
0.0
  0
LINE
  5
E9
330
2F
100
AcDbEntity
  8
HIDDEN
 62
1
100
AcDbLine
 10
23.00000000000137
 20
-30.10000000000037
 30
0.0
 11
23.00000000000137
 21
-30.10000000000037
 31
0.0
  0
LINE
  5
EA
330
2F
100
AcDbEntity
  8
HIDDEN
 62
1
100
AcDbLine
 10
25.00000000000137
 20
-30.10000000000037
 30
0.0
 11
25.00000000000137
 21
-30.10000000000037
 31
0.0
  0
CIRCLE
  5
EB
330
2F
100
AcDbEntity
  8
0
 62
1
100
AcDbCircle
 10
22.40000000000123
 20
-30.5
 30
0.0
 40
3.199292589286415
  0
LINE
  5
EC
330
2F
100
AcDbEntity
  8
THICK
 62
1
100
AcDbLine
 10
39.00000000000114
 20
-30.90000000000055
 30
0.0
 11
37.00000000000114
 21
-30.90000000000055
 31
0.0
  0
LINE
  5
ED
330
2F
100
AcDbEntity
  8
HIDDEN
 62
1
100
AcDbLine
 10
37.00000000000114
 20
-30.90000000000055
 30
0.0
 11
37.00000000000114
 21
-30.90000000000055
 31
0.0
  0
LINE
  5
EE
330
2F
100
AcDbEntity
  8
HIDDEN
 62
1
100
AcDbLine
 10
39.00000000000114
 20
-30.90000000000055
 30
0.0
 11
39.00000000000114
 21
-30.90000000000055
 31
0.0
  0
LINE
  5
EF
330
2F
100
AcDbEntity
  8
THICK
 62
1
100
AcDbLine
 10
37.00000000000114
 20
-33.64304449322663
 30
0.0
 11
37.00000000000114
 21
-30.90000000000055
 31
0.0
  0
LINE
  5
F0
330
2F
100
AcDbEntity
  8
THICK
 62
1
100
AcDbLine
 10
35.80000000000109
 20
-33.64304885712409
 30
0.0
 11
35.80000000000109
 21
-30.90000000000055
 31
0.0
  0
LINE
  5
F1
330
2F
100
AcDbEntity
  8
THICK
 62
1
100
AcDbLine
 10
35.80000000000109
 20
-27.35695797841163
 30
0.0
 11
35.80000000000109
 21
-30.10000000000037
 31
0.0
  0
LINE
  5
F2
330
2F
100
AcDbEntity
  8
THICK
 62
1
100
AcDbLine
 10
33.80000000000109
 20
-30.10000000000037
 30
0.0
 11
35.80000000000109
 21
-30.10000000000037
 31
0.0
  0
LINE
  5
F3
330
2F
100
AcDbEntity
  8
THICK
 62
1
100
AcDbLine
 10
33.80000000000109
 20
-30.90000000000055
 30
0.0
 11
33.80000000000109
 21
-30.10000000000037
 31
0.0
  0
LINE
  5
F4
330
2F
100
AcDbEntity
  8
THICK
 62
1
100
AcDbLine
 10
35.80000000000109
 20
-30.90000000000055
 30
0.0
 11
33.80000000000109
 21
-30.90000000000055
 31
0.0
  0
LINE
  5
F5
330
2F
100
AcDbEntity
  8
THICK
 62
1
100
AcDbLine
 10
37.00000000000114
 20
-27.35694975671504
 30
0.0
 11
37.00000000000114
 21
-30.10000000000037
 31
0.0
  0
LINE
  5
F6
330
2F
100
AcDbEntity
  8
THICK
 62
1
100
AcDbLine
 10
39.00000000000114
 20
-30.10000000000037
 30
0.0
 11
39.00000000000114
 21
-30.90000000000055
 31
0.0
  0
LINE
  5
F7
330
2F
100
AcDbEntity
  8
THICK
 62
1
100
AcDbLine
 10
37.00000000000114
 20
-30.10000000000037
 30
0.0
 11
39.00000000000114
 21
-30.10000000000037
 31
0.0
  0
LINE
  5
F8
330
2F
100
AcDbEntity
  8
HIDDEN
 62
1
100
AcDbLine
 10
35.80000000000109
 20
-30.90000000000055
 30
0.0
 11
35.80000000000109
 21
-30.90000000000055
 31
0.0
  0
LINE
  5
F9
330
2F
100
AcDbEntity
  8
HIDDEN
 62
1
100
AcDbLine
 10
33.80000000000109
 20
-30.90000000000055
 30
0.0
 11
33.80000000000109
 21
-30.90000000000055
 31
0.0
  0
LINE
  5
FA
330
2F
100
AcDbEntity
  8
HIDDEN
 62
1
100
AcDbLine
 10
33.80000000000109
 20
-30.10000000000037
 30
0.0
 11
33.80000000000109
 21
-30.10000000000037
 31
0.0
  0
LINE
  5
FB
330
2F
100
AcDbEntity
  8
HIDDEN
 62
1
100
AcDbLine
 10
35.80000000000109
 20
-30.10000000000037
 30
0.0
 11
35.80000000000109
 21
-30.10000000000037
 31
0.0
  0
LINE
  5
FC
330
2F
100
AcDbEntity
  8
HIDDEN
 62
1
100
AcDbLine
 10
37.00000000000114
 20
-30.10000000000037
 30
0.0
 11
37.00000000000114
 21
-30.10000000000037
 31
0.0
  0
LINE
  5
FD
330
2F
100
AcDbEntity
  8
HIDDEN
 62
1
100
AcDbLine
 10
39.00000000000114
 20
-30.10000000000037
 30
0.0
 11
39.00000000000114
 21
-30.10000000000037
 31
0.0
  0
CIRCLE
  5
FE
330
2F
100
AcDbEntity
  8
0
 62
1
100
AcDbCircle
 10
36.400000000001
 20
-30.5
 30
0.0
 40
3.199292589286415
  0
LINE
  5
FF
330
2F
100
AcDbEntity
  8
THICK
 62
1
100
AcDbLine
 10
19.70002810838787
 20
-19.70000000000164
 30
0.0
 11
17.70002810838787
 21
-19.70000000000164
 31
0.0
  0
LINE
  5
100
330
2F
100
AcDbEntity
  8
HIDDEN
 62
1
100
AcDbLine
 10
17.70002810838787
 20
-19.70000000000164
 30
0.0
 11
17.70002810838787
 21
-19.70000000000164
 31
0.0
  0
LINE
  5
101
330
2F
100
AcDbEntity
  8
HIDDEN
 62
1
100
AcDbLine
 10
19.70002810838787
 20
-19.70000000000164
 30
0.0
 11
19.70002810838787
 21
-19.70000000000164
 31
0.0
  0
LINE
  5
102
330
2F
100
AcDbEntity
  8
THICK
 62
1
100
AcDbLine
 10
17.70002810838787
 20
-22.44304449322772
 30
0.0
 11
17.70002810838787
 21
-19.70000000000164
 31
0.0
  0
LINE
  5
103
330
2F
100
AcDbEntity
  8
THICK
 62
1
100
AcDbLine
 10
16.50002810838782
 20
-22.44304885712518
 30
0.0
 11
16.50002810838782
 21
-19.70000000000164
 31
0.0
  0
LINE
  5
104
330
2F
100
AcDbEntity
  8
THICK
 62
1
100
AcDbLine
 10
16.50002810838782
 20
-16.15695797841272
 30
0.0
 11
16.50002810838782
 21
-18.90000000000145
 31
0.0
  0
LINE
  5
105
330
2F
100
AcDbEntity
  8
THICK
 62
1
100
AcDbLine
 10
14.50002810838782
 20
-18.90000000000145
 30
0.0
 11
16.50002810838782
 21
-18.90000000000145
 31
0.0
  0
LINE
  5
106
330
2F
100
AcDbEntity
  8
THICK
 62
1
100
AcDbLine
 10
14.50002810838782
 20
-19.70000000000164
 30
0.0
 11
14.50002810838782
 21
-18.90000000000145
 31
0.0
  0
LINE
  5
107
330
2F
100
AcDbEntity
  8
THICK
 62
1
100
AcDbLine
 10
16.50002810838782
 20
-19.70000000000164
 30
0.0
 11
14.50002810838782
 21
-19.70000000000164
 31
0.0
  0
LINE
  5
108
330
2F
100
AcDbEntity
  8
THICK
 62
1
100
AcDbLine
 10
17.70002810838787
 20
-16.15694975671613
 30
0.0
 11
17.70002810838787
 21
-18.90000000000145
 31
0.0
  0
LINE
  5
109
330
2F
100
AcDbEntity
  8
THICK
 62
1
100
AcDbLine
 10
19.70002810838787
 20
-18.90000000000145
 30
0.0
 11
19.70002810838787
 21
-19.70000000000164
 31
0.0
  0
LINE
  5
10A
330
2F
100
AcDbEntity
  8
THICK
 62
1
100
AcDbLine
 10
17.70002810838787
 20
-18.90000000000145
 30
0.0
 11
19.70002810838787
 21
-18.90000000000145
 31
0.0
  0
LINE
  5
10B
330
2F
100
AcDbEntity
  8
HIDDEN
 62
1
100
AcDbLine
 10
16.50002810838782
 20
-19.70000000000164
 30
0.0
 11
16.50002810838782
 21
-19.70000000000164
 31
0.0
  0
LINE
  5
10C
330
2F
100
AcDbEntity
  8
HIDDEN
 62
1
100
AcDbLine
 10
14.50002810838782
 20
-19.70000000000164
 30
0.0
 11
14.50002810838782
 21
-19.70000000000164
 31
0.0
  0
LINE
  5
10D
330
2F
100
AcDbEntity
  8
HIDDEN
 62
1
100
AcDbLine
 10
14.50002810838782
 20
-18.90000000000145
 30
0.0
 11
14.50002810838782
 21
-18.90000000000145
 31
0.0
  0
LINE
  5
10E
330
2F
100
AcDbEntity
  8
HIDDEN
 62
1
100
AcDbLine
 10
16.50002810838782
 20
-18.90000000000145
 30
0.0
 11
16.50002810838782
 21
-18.90000000000145
 31
0.0
  0
LINE
  5
10F
330
2F
100
AcDbEntity
  8
HIDDEN
 62
1
100
AcDbLine
 10
17.70002810838787
 20
-18.90000000000145
 30
0.0
 11
17.70002810838787
 21
-18.90000000000145
 31
0.0
  0
LINE
  5
110
330
2F
100
AcDbEntity
  8
HIDDEN
 62
1
100
AcDbLine
 10
19.70002810838787
 20
-18.90000000000145
 30
0.0
 11
19.70002810838787
 21
-18.90000000000145
 31
0.0
  0
CIRCLE
  5
111
330
2F
100
AcDbEntity
  8
0
 62
1
100
AcDbCircle
 10
17.10002810838773
 20
-19.30000000000109
 30
0.0
 40
3.199292589286415
  0
LINE
  5
112
330
2F
100
AcDbEntity
  8
THICK
 62
1
100
AcDbLine
 10
30.30002810838778
 20
-19.70000000000164
 30
0.0
 11
28.30002810838778
 21
-19.70000000000164
 31
0.0
  0
LINE
  5
113
330
2F
100
AcDbEntity
  8
HIDDEN
 62
1
100
AcDbLine
 10
28.30002810838778
 20
-19.70000000000164
 30
0.0
 11
28.30002810838778
 21
-19.70000000000164
 31
0.0
  0
LINE
  5
114
330
2F
100
AcDbEntity
  8
HIDDEN
 62
1
100
AcDbLine
 10
30.30002810838778
 20
-19.70000000000164
 30
0.0
 11
30.30002810838778
 21
-19.70000000000164
 31
0.0
  0
LINE
  5
115
330
2F
100
AcDbEntity
  8
THICK
 62
1
100
AcDbLine
 10
28.30002810838778
 20
-22.44304449322772
 30
0.0
 11
28.30002810838778
 21
-19.70000000000164
 31
0.0
  0
LINE
  5
116
330
2F
100
AcDbEntity
  8
THICK
 62
1
100
AcDbLine
 10
27.10002810838773
 20
-22.44304885712518
 30
0.0
 11
27.10002810838773
 21
-19.70000000000164
 31
0.0
  0
LINE
  5
117
330
2F
100
AcDbEntity
  8
THICK
 62
1
100
AcDbLine
 10
27.10002810838773
 20
-16.15695797841272
 30
0.0
 11
27.10002810838773
 21
-18.90000000000145
 31
0.0
  0
LINE
  5
118
330
2F
100
AcDbEntity
  8
THICK
 62
1
100
AcDbLine
 10
25.10002810838773
 20
-18.90000000000145
 30
0.0
 11
27.10002810838773
 21
-18.90000000000145
 31
0.0
  0
LINE
  5
119
330
2F
100
AcDbEntity
  8
THICK
 62
1
100
AcDbLine
 10
25.10002810838773
 20
-19.70000000000164
 30
0.0
 11
25.10002810838773
 21
-18.90000000000145
 31
0.0
  0
LINE
  5
11A
330
2F
100
AcDbEntity
  8
THICK
 62
1
100
AcDbLine
 10
27.10002810838773
 20
-19.70000000000164
 30
0.0
 11
25.10002810838773
 21
-19.70000000000164
 31
0.0
  0
LINE
  5
11B
330
2F
100
AcDbEntity
  8
THICK
 62
1
100
AcDbLine
 10
28.30002810838778
 20
-16.15694975671613
 30
0.0
 11
28.30002810838778
 21
-18.90000000000145
 31
0.0
  0
LINE
  5
11C
330
2F
100
AcDbEntity
  8
THICK
 62
1
100
AcDbLine
 10
30.30002810838778
 20
-18.90000000000145
 30
0.0
 11
30.30002810838778
 21
-19.70000000000164
 31
0.0
  0
LINE
  5
11D
330
2F
100
AcDbEntity
  8
THICK
 62
1
100
AcDbLine
 10
28.30002810838778
 20
-18.90000000000145
 30
0.0
 11
30.30002810838778
 21
-18.90000000000145
 31
0.0
  0
LINE
  5
11E
330
2F
100
AcDbEntity
  8
HIDDEN
 62
1
100
AcDbLine
 10
27.10002810838773
 20
-19.70000000000164
 30
0.0
 11
27.10002810838773
 21
-19.70000000000164
 31
0.0
  0
LINE
  5
11F
330
2F
100
AcDbEntity
  8
HIDDEN
 62
1
100
AcDbLine
 10
25.10002810838773
 20
-19.70000000000164
 30
0.0
 11
25.10002810838773
 21
-19.70000000000164
 31
0.0
  0
LINE
  5
120
330
2F
100
AcDbEntity
  8
HIDDEN
 62
1
100
AcDbLine
 10
25.10002810838773
 20
-18.90000000000145
 30
0.0
 11
25.10002810838773
 21
-18.90000000000145
 31
0.0
  0
LINE
  5
121
330
2F
100
AcDbEntity
  8
HIDDEN
 62
1
100
AcDbLine
 10
27.10002810838773
 20
-18.90000000000145
 30
0.0
 11
27.10002810838773
 21
-18.90000000000145
 31
0.0
  0
LINE
  5
122
330
2F
100
AcDbEntity
  8
HIDDEN
 62
1
100
AcDbLine
 10
28.30002810838778
 20
-18.90000000000145
 30
0.0
 11
28.30002810838778
 21
-18.90000000000145
 31
0.0
  0
LINE
  5
123
330
2F
100
AcDbEntity
  8
HIDDEN
 62
1
100
AcDbLine
 10
30.30002810838778
 20
-18.90000000000145
 30
0.0
 11
30.30002810838778
 21
-18.90000000000145
 31
0.0
  0
CIRCLE
  5
124
330
2F
100
AcDbEntity
  8
0
 62
1
100
AcDbCircle
 10
27.70002810838764
 20
-19.30000000000109
 30
0.0
 40
3.199292589286415
  0
LINE
  5
125
330
2F
100
AcDbEntity
  8
THICK
 62
1
100
AcDbLine
 10
40.90000000000145
 20
-19.70000000000164
 30
0.0
 11
38.90000000000146
 21
-19.70000000000164
 31
0.0
  0
LINE
  5
126
330
2F
100
AcDbEntity
  8
HIDDEN
 62
1
100
AcDbLine
 10
38.90000000000146
 20
-19.70000000000164
 30
0.0
 11
38.90000000000146
 21
-19.70000000000164
 31
0.0
  0
LINE
  5
127
330
2F
100
AcDbEntity
  8
HIDDEN
 62
1
100
AcDbLine
 10
40.90000000000145
 20
-19.70000000000164
 30
0.0
 11
40.90000000000145
 21
-19.70000000000164
 31
0.0
  0
LINE
  5
128
330
2F
100
AcDbEntity
  8
THICK
 62
1
100
AcDbLine
 10
38.90000000000146
 20
-22.44304449322772
 30
0.0
 11
38.90000000000146
 21
-19.70000000000164
 31
0.0
  0
LINE
  5
129
330
2F
100
AcDbEntity
  8
THICK
 62
1
100
AcDbLine
 10
37.70000000000141
 20
-22.44304885712518
 30
0.0
 11
37.70000000000141
 21
-19.70000000000164
 31
0.0
  0
LINE
  5
12A
330
2F
100
AcDbEntity
  8
THICK
 62
1
100
AcDbLine
 10
37.70000000000141
 20
-16.15695797841272
 30
0.0
 11
37.70000000000141
 21
-18.90000000000145
 31
0.0
  0
LINE
  5
12B
330
2F
100
AcDbEntity
  8
THICK
 62
1
100
AcDbLine
 10
35.70000000000141
 20
-18.90000000000145
 30
0.0
 11
37.70000000000141
 21
-18.90000000000145
 31
0.0
  0
LINE
  5
12C
330
2F
100
AcDbEntity
  8
THICK
 62
1
100
AcDbLine
 10
35.70000000000141
 20
-19.70000000000164
 30
0.0
 11
35.70000000000141
 21
-18.90000000000145
 31
0.0
  0
LINE
  5
12D
330
2F
100
AcDbEntity
  8
THICK
 62
1
100
AcDbLine
 10
37.70000000000141
 20
-19.70000000000164
 30
0.0
 11
35.70000000000141
 21
-19.70000000000164
 31
0.0
  0
LINE
  5
12E
330
2F
100
AcDbEntity
  8
THICK
 62
1
100
AcDbLine
 10
38.90000000000146
 20
-16.15694975671613
 30
0.0
 11
38.90000000000146
 21
-18.90000000000145
 31
0.0
  0
LINE
  5
12F
330
2F
100
AcDbEntity
  8
THICK
 62
1
100
AcDbLine
 10
40.90000000000145
 20
-18.90000000000145
 30
0.0
 11
40.90000000000145
 21
-19.70000000000164
 31
0.0
  0
LINE
  5
130
330
2F
100
AcDbEntity
  8
THICK
 62
1
100
AcDbLine
 10
38.90000000000146
 20
-18.90000000000145
 30
0.0
 11
40.90000000000145
 21
-18.90000000000145
 31
0.0
  0
LINE
  5
131
330
2F
100
AcDbEntity
  8
HIDDEN
 62
1
100
AcDbLine
 10
37.70000000000141
 20
-19.70000000000164
 30
0.0
 11
37.70000000000141
 21
-19.70000000000164
 31
0.0
  0
LINE
  5
132
330
2F
100
AcDbEntity
  8
HIDDEN
 62
1
100
AcDbLine
 10
35.70000000000141
 20
-19.70000000000164
 30
0.0
 11
35.70000000000141
 21
-19.70000000000164
 31
0.0
  0
LINE
  5
133
330
2F
100
AcDbEntity
  8
HIDDEN
 62
1
100
AcDbLine
 10
35.70000000000141
 20
-18.90000000000145
 30
0.0
 11
35.70000000000141
 21
-18.90000000000145
 31
0.0
  0
LINE
  5
134
330
2F
100
AcDbEntity
  8
HIDDEN
 62
1
100
AcDbLine
 10
37.70000000000141
 20
-18.90000000000145
 30
0.0
 11
37.70000000000141
 21
-18.90000000000145
 31
0.0
  0
LINE
  5
135
330
2F
100
AcDbEntity
  8
HIDDEN
 62
1
100
AcDbLine
 10
38.90000000000146
 20
-18.90000000000145
 30
0.0
 11
38.90000000000146
 21
-18.90000000000145
 31
0.0
  0
LINE
  5
136
330
2F
100
AcDbEntity
  8
HIDDEN
 62
1
100
AcDbLine
 10
40.90000000000145
 20
-18.90000000000145
 30
0.0
 11
40.90000000000145
 21
-18.90000000000145
 31
0.0
  0
CIRCLE
  5
137
330
2F
100
AcDbEntity
  8
0
 62
1
100
AcDbCircle
 10
38.30000000000132
 20
-19.30000000000109
 30
0.0
 40
3.199292589286415
  0
CIRCLE
  5
138
330
2F
100
AcDbEntity
  8
0
100
AcDbCircle
 10
39.97664427870245
 20
35.05958114142231
 30
0.0
 40
2.126978138716367
  0
LINE
  5
139
330
2F
100
AcDbEntity
  8
Hidden (ISO)
 48
0.0162074696272612
100
AcDbLine
 10
39.8428292842309
 20
38.61317857154972
 30
0.0
 11
39.75717071577151
 21
38.61317857154972
 31
0.0
  0
ARC
  5
13A
330
2F
100
AcDbEntity
  8
Visible (ISO)
100
AcDbCircle
 10
42.7930032170259
 20
36.02083408933322
 30
0.0
 40
2.010630986535727
100
AcDbArc
 50
356.554585267446
 51
67.8831255235508
  0
ARC
  5
13B
330
2F
100
AcDbEntity
  8
Visible (ISO)
100
AcDbCircle
 10
39.80000000000269
 20
28.61327028935375
 30
0.0
 40
9.999999999995177
100
AcDbArc
 50
67.97568716299294
 51
71.80512766123464
  0
ARC
  5
13C
330
2F
100
AcDbEntity
  8
Visible (ISO)
100
AcDbCircle
 10
38.15511282670127
 20
36.44234087194855
 30
0.0
 40
2.000000000000119
100
AcDbArc
 50
123.3357421122581
 51
150.0000000004293
  0
LINE
  5
13D
330
2F
100
AcDbEntity
  8
Visible (ISO)
100
AcDbLine
 10
36.42306201910128
 20
37.44234087194945
 30
0.0
 11
35.94525369998541
 21
36.61475258694918
 31
0.0
  0
ARC
  5
13E
330
2F
100
AcDbEntity
  8
Visible (ISO)
100
AcDbCircle
 10
34.07618710558427
 20
38.19989110489587
 30
0.0
 40
2.45072929051469
100
AcDbArc
 50
290.2068531897713
 51
319.6990233313557
  0
SPLINE
  5
13F
330
2F
100
AcDbEntity
  8
Visible (ISO)
100
AcDbSpline
 70
8
 71
3
 72
14
 73
10
 74
0
 42
1e-09
 40
0.0
 40
0.0
 40
0.0
 40
0.0
 40
0.0044077718535746
 40
0.0044077718535746
 40
0.7467154708128341
 40
0.7467154708128341
 40
1.489023169772093
 40
1.489023169772093
 40
1.978301938180204
 40
1.978301938180204
 40
1.978301938180204
 40
1.978301938180204
 10
39.80000000000109
 20
38.6132702893492
 30
0.0
 10
39.79856615171002
 20
38.6132702893492
 30
0.0
 10
39.79684553379616
 20
38.61326989461213
 30
0.0
 10
39.55393898001648
 20
38.61315844143519
 30
0.0
 10
39.30095720183181
 20
38.60416364772664
 30
0.0
 10
38.78477971051598
 20
38.56496972382047
 30
0.0
 10
38.52158088291935
 20
38.53476459185186
 30
0.0
 10
38.08658918131551
 20
38.46694049189864
 30
0.0
 10
37.91420173195593
 20
38.43535540284847
 30
0.0
 10
37.7438910333874
 20
38.39960851759861
 30
0.0
  0
SPLINE
  5
140
330
2F
100
AcDbEntity
  8
Visible (ISO)
100
AcDbSpline
 70
8
 71
3
 72
16
 73
12
 74
0
 42
1e-09
 40
5.981455090546811
 40
5.981455090546811
 40
5.981455090546811
 40
5.981455090546811
 40
6.740710929842155
 40
6.740710929842155
 40
7.4999667691375
 40
7.4999667691375
 40
8.259222608432845
 40
8.259222608432845
 40
9.018478447728189
 40
9.018478447728189
 40
9.022886219581764
 40
9.022886219581764
 40
9.022886219581764
 40
9.022886219581764
 10
42.92249899920034
 20
38.1132702893492
 30
0.0
 10
42.68206798342339
 20
38.19229614262622
 30
0.0
 10
42.42927104888576
 20
38.26513264870937
 30
0.0
 10
41.90966267252156
 20
38.39186101745326
 30
0.0
 10
41.64286371062599
 20
38.44573962215145
 30
0.0
 10
41.10707245490084
 20
38.53119088063886
 30
0.0
 10
40.83804419824696
 20
38.5627684451847
 30
0.0
 10
40.31029636581592
 20
38.60374809883797
 30
0.0
 10
40.0515742502896
 20
38.61315591179118
 30
0.0
 10
39.80315446620603
 20
38.61326989461213
 30
0.0
 10
39.80143384829239
 20
38.6132702893492
 30
0.0
 10
39.80000000000109
 20
38.6132702893492
 30
0.0
  0
SPLINE
  5
141
330
2F
100
AcDbEntity
  8
Visible (ISO)
100
AcDbSpline
 70
8
 71
3
 72
10
 73
6
 74
0
 42
1e-09
 40
2.460055654020939
 40
2.460055654020939
 40
2.460055654020939
 40
2.460055654020939
 40
2.62790385476832
 40
2.62790385476832
 40
3.180097644613051
 40
3.180097644613051
 40
3.180097644613051
 40
3.180097644613051
 10
37.7438910333874
 20
38.39960851759861
 30
0.0
 10
37.68637097112855
 20
38.38752355660381
 30
0.0
 10
37.62917437986448
 20
38.37284944271232
 30
0.0
 10
37.38725030398587
 20
38.29921941832981
 30
0.0
 10
37.21030705364729
 20
38.21475273334272
 30
0.0
 10
37.05602462183902
 20
38.1132702893492
 30
0.0
  0
LINE
  5
142
330
2F
100
AcDbEntity
  8
HIDDEN
100
AcDbLine
 10
9.200000000000953
 20
-35.90348534761051
 30
0.0
 11
9.200000000000953
 21
-35.90348534761051
 31
0.0
  0
LINE
  5
143
330
2F
100
AcDbEntity
  8
Hidden (ISO)
 48
0.0162074696272612
100
AcDbLine
 10
4.957170715771553
 20
-38.3867297106508
 30
0.0
 11
5.042829284230947
 21
-38.3867297106508
 31
0.0
  0
ARC
  5
144
330
2F
100
AcDbEntity
  8
Visible (ISO)
100
AcDbCircle
 10
1.727276612738023
 20
-35.99436218092342
 30
0.0
 40
1.729852224351896
100
AcDbArc
 50
176.8730047893295
 51
253.9839867146507
  0
ARC
  5
145
330
2F
100
AcDbEntity
  8
Visible (ISO)
100
AcDbCircle
 10
4.999999999999772
 20
-28.38682142845483
 30
0.0
 40
9.999999999995177
100
AcDbArc
 50
247.975687163005
 51
251.805127661247
  0
ARC
  5
146
330
2F
100
AcDbEntity
  8
Visible (ISO)
100
AcDbCircle
 10
7.278694851323052
 20
-36.55131310229626
 30
0.0
 40
1.41423776568212
100
AcDbArc
 50
289.2079321529361
 51
320.9468528320649
  0
LINE
  5
147
330
2F
100
AcDbEntity
  8
Visible (ISO)
100
AcDbLine
 10
8.376937980901175
 20
-37.44234087194945
 30
0.0
 11
8.85474630001704
 21
-36.61475258694918
 31
0.0
  0
ARC
  5
148
330
2F
100
AcDbEntity
  8
Visible (ISO)
100
AcDbCircle
 10
10.72381289441818
 20
-38.19989110489587
 30
0.0
 40
2.45072929051469
100
AcDbArc
 50
110.2068531897713
 51
139.6990233314038
  0
SPLINE
  5
149
330
2F
100
AcDbEntity
  8
Visible (ISO)
100
AcDbSpline
 70
8
 71
3
 72
14
 73
10
 74
0
 42
1e-09
 40
0.0
 40
0.0
 40
0.0
 40
0.0
 40
0.0044077718535746
 40
0.0044077718535746
 40
0.7467154708128341
 40
0.7467154708128341
 40
1.489023169772093
 40
1.489023169772093
 40
1.978301938180204
 40
1.978301938180204
 40
1.978301938180204
 40
1.978301938180204
 10
5.000000000001364
 20
-38.38682142845028
 30
0.0
 10
5.001433848292435
 20
-38.38682142845028
 30
0.0
 10
5.003154466206297
 20
-38.38682103371321
 30
0.0
 10
5.246061019985972
 20
-38.38670958053626
 30
0.0
 10
5.499042798170648
 20
-38.37771478682771
 30
0.0
 10
6.015220289486478
 20
-38.33852086292154
 30
0.0
 10
6.278419117083103
 20
-38.30831573095293
 30
0.0
 10
6.713410818686952
 20
-38.24049163099971
 30
0.0
 10
6.885798268046528
 20
-38.20890654194954
 30
0.0
 10
7.056108966615056
 20
-38.17315965669968
 30
0.0
  0
SPLINE
  5
14A
330
2F
100
AcDbEntity
  8
Visible (ISO)
100
AcDbSpline
 70
8
 71
3
 72
16
 73
12
 74
0
 42
1e-09
 40
5.981455090546811
 40
5.981455090546811
 40
5.981455090546811
 40
5.981455090546811
 40
6.740710929842155
 40
6.740710929842155
 40
7.4999667691375
 40
7.4999667691375
 40
8.259222608432845
 40
8.259222608432845
 40
9.018478447728189
 40
9.018478447728189
 40
9.022886219581764
 40
9.022886219581764
 40
9.022886219581764
 40
9.022886219581764
 10
1.877501000802112
 20
-37.88682142845028
 30
0.0
 10
2.117932016579061
 20
-37.96584728172729
 30
0.0
 10
2.370728951116689
 20
-38.03868378781044
 30
0.0
 10
2.890337327480892
 20
-38.16541215655434
 30
0.0
 10
3.157136289376467
 20
-38.21929076125253
 30
0.0
 10
3.692927545101611
 20
-38.30474201973994
 30
0.0
 10
3.961955801755493
 20
-38.33631958428578
 30
0.0
 10
4.489703634186525
 20
-38.37729923793904
 30
0.0
 10
4.748425749712851
 20
-38.38670705089226
 30
0.0
 10
4.996845533796431
 20
-38.38682103371321
 30
0.0
 10
4.998566151710065
 20
-38.38682142845028
 30
0.0
 10
5.000000000001364
 20
-38.38682142845028
 30
0.0
  0
SPLINE
  5
14B
330
2F
100
AcDbEntity
  8
Visible (ISO)
100
AcDbSpline
 70
8
 71
3
 72
10
 73
6
 74
0
 42
1e-09
 40
2.460055654020939
 40
2.460055654020939
 40
2.460055654020939
 40
2.460055654020939
 40
2.62790385476832
 40
2.62790385476832
 40
3.180097644613051
 40
3.180097644613051
 40
3.180097644613051
 40
3.180097644613051
 10
7.056108966615056
 20
-38.17315965669968
 30
0.0
 10
7.113629028873901
 20
-38.16107469570488
 30
0.0
 10
7.170825620137975
 20
-38.14640058181339
 30
0.0
 10
7.412749696016589
 20
-38.07277055743089
 30
0.0
 10
7.589692946355171
 20
-37.98830387244379
 30
0.0
 10
7.74397537816344
 20
-37.88682142845028
 30
0.0
  0
CIRCLE
  5
14C
330
2F
100
AcDbEntity
  8
0
100
AcDbCircle
 10
4.823355721300004
 20
-35.15958114142086
 30
0.0
 40
2.126978138716367
  0
HATCH
  5
14D
330
2F
100
AcDbEntity
  8
0
 62
5
100
AcDbHatch
 10
0.0
 20
0.0
 30
0.0
210
0.0
220
0.0
230
1.0
  2
SOLID
 70
1
 71
0
 91
2
 92
1
 93
4
 72
1
 10
15.22609906990283
 20
1.613379602973509
 11
19.93579174669821
 21
1.613379602973509
 72
1
 10
19.93579174669821
 20
1.613379602973509
 11
19.93579174669821
 21
-5.397398678484933
 72
1
 10
19.93579174669821
 20
-5.397398678484933
 11
15.22609906990283
 21
-5.397398678484933
 72
1
 10
15.22609906990283
 20
-5.397398678484933
 11
15.22609906990283
 21
1.613379602973509
 97
1
330
214147
 92
1
 93
4
 72
1
 10
24.6454844234936
 20
1.613379602973509
 11
29.35517710028899
 21
1.613379602973509
 72
1
 10
29.35517710028899
 20
1.613379602973509
 11
29.35517710028899
 21
-5.397398678484933
 72
1
 10
29.35517710028899
 20
-5.397398678484933
 11
24.6454844234936
 21
-5.397398678484933
 72
1
 10
24.6454844234936
 20
-5.397398678484933
 11
24.6454844234936
 21
1.613379602973509
 97
1
330
214148
 75
0
 76
1
 98
1
 10
-779.4357655781009
 20
-4829.333232394093
450
0
451
0
460
0.0
461
0.0
452
1
462
1.0
453
2
463
0
 63
5
421
255
463
1
 63
7
421
16777215
470
LINEAR
  0
LWPOLYLINE
  5
14E
330
2F
100
AcDbEntity
  8
0
100
AcDbPolyline
 90
4
 70
1
 10
15.22609906990283
 20
1.613379602973509
 10
19.93579174669821
 20
1.613379602973509
 10
19.93579174669821
 20
-5.397398678484933
 10
15.22609906990283
 20
-5.397398678484933
  0
LWPOLYLINE
  5
14F
330
2F
100
AcDbEntity
  8
0
100
AcDbPolyline
 90
4
 70
1
 10
24.6454844234936
 20
1.613379602973509
 10
29.35517710028899
 20
1.613379602973509
 10
29.35517710028899
 20
-5.397398678484933
 10
24.6454844234936
 20
-5.397398678484933
  0
LWPOLYLINE
  5
150
330
2F
100
AcDbEntity
  8
0
100
AcDbPolyline
 90
4
 70
1
 10
10.51640639310744
 20
1.613379602973509
 10
34.06486977708437
 20
1.613379602973509
 10
34.06486977708437
 20
-5.397398678484933
 10
10.51640639310744
 20
-5.397398678484933
  0
LWPOLYLINE
  5
151
330
2F
100
AcDbEntity
  8
0
100
AcDbPolyline
 90
4
 70
1
 10
10.51640639310744
 20
-7.789221718540829
 10
34.06486977708437
 20
-7.789221718540829
 10
34.06486977708437
 20
-14.79999999999927
 10
10.51640639310744
 20
-14.79999999999927
  0
ENDBLK
  5
31
330
2F
100
AcDbEntity
  8
0
100
AcDbBlockEnd
  0
ENDSEC
  0
SECTION
  2
ENTITIES
  0
INSERT
  5
157
330
17
100
AcDbEntity
  8
0
100
AcDbBlockReference
  2
LC1D9-18
 10
0.0026198379086964
 20
38.38682142845028
 30
0.0
  0
ENDSEC
  0
SECTION
  2
OBJECTS
  0
DICTIONARY
  5
A
330
0
100
AcDbDictionary
281
1
  3
ACAD_COLOR
350
B
  3
ACAD_GROUP
350
C
  3
ACAD_LAYOUT
350
D
  3
ACAD_MATERIAL
350
E
  3
ACAD_MLEADERSTYLE
350
F
  3
ACAD_MLINESTYLE
350
10
  3
ACAD_PLOTSETTINGS
350
11
  3
ACAD_PLOTSTYLENAME
350
12
  3
ACAD_SCALELIST
350
14
  3
ACAD_TABLESTYLE
350
15
  3
ACAD_VISUALSTYLE
350
16
  3
EZDXF_META
350
2D
  0
DICTIONARY
  5
B
330
A
100
AcDbDictionary
281
1
  0
DICTIONARY
  5
C
330
A
100
AcDbDictionary
281
1
  0
DICTIONARY
  5
D
330
A
100
AcDbDictionary
281
1
  3
Model
350
1A
  3
Layout1
350
1E
  0
DICTIONARY
  5
E
330
A
100
AcDbDictionary
281
1
  3
ByBlock
350
1F
  3
ByLayer
350
20
  3
Global
350
21
  0
DICTIONARY
  5
F
330
A
100
AcDbDictionary
281
1
  3
Standard
350
2C
  0
DICTIONARY
  5
10
330
A
100
AcDbDictionary
281
1
  3
Standard
350
22
  0
DICTIONARY
  5
11
330
A
100
AcDbDictionary
281
1
  0
ACDBDICTIONARYWDFLT
  5
12
330
A
100
AcDbDictionary
281
1
  3
Normal
350
13
100
AcDbDictionaryWithDefault
340
13
  0
ACDBPLACEHOLDER
  5
13
330
12
  0
DICTIONARY
  5
14
330
A
100
AcDbDictionary
281
1
  0
DICTIONARY
  5
15
330
A
100
AcDbDictionary
281
1
  0
DICTIONARY
  5
16
330
A
100
AcDbDictionary
281
1
  0
LAYOUT
  5
1A
330
D
100
AcDbPlotSettings
  1

  4
A3
  6

 40
7.5
 41
20.0
 42
7.5
 43
20.0
 44
420.0
 45
297.0
 46
0.0
 47
0.0
 48
0.0
 49
0.0
140
0.0
141
0.0
142
1.0
143
1.0
 70
1024
 72
1
 73
0
 74
5
  7

 75
16
 76
0
 77
2
 78
300
147
1.0
148
0.0
149
0.0
100
AcDbLayout
  1
Model
 70
1
 71
0
 10
0.0
 20
0.0
 11
420.0
 21
297.0
 12
0.0
 22
0.0
 32
0.0
 14
1e+20
 24
1e+20
 34
1e+20
 15
-1e+20
 25
-1e+20
 35
-1e+20
146
0.0
 13
0.0
 23
0.0
 33
0.0
 16
1.0
 26
0.0
 36
0.0
 17
0.0
 27
1.0
 37
0.0
 76
1
330
17
  0
LAYOUT
  5
1E
330
D
100
AcDbPlotSettings
  1

  4
A3
  6

 40
7.5
 41
20.0
 42
7.5
 43
20.0
 44
420.0
 45
297.0
 46
0.0
 47
0.0
 48
0.0
 49
0.0
140
0.0
141
0.0
142
1.0
143
1.0
 70
0
 72
1
 73
0
 74
5
  7

 75
16
 76
0
 77
2
 78
300
147
1.0
148
0.0
149
0.0
100
AcDbLayout
  1
Layout1
 70
1
 71
1
 10
0.0
 20
0.0
 11
420.0
 21
297.0
 12
0.0
 22
0.0
 32
0.0
 14
1e+20
 24
1e+20
 34
1e+20
 15
-1e+20
 25
-1e+20
 35
-1e+20
146
0.0
 13
0.0
 23
0.0
 33
0.0
 16
1.0
 26
0.0
 36
0.0
 17
0.0
 27
1.0
 37
0.0
 76
1
330
1B
  0
MATERIAL
  5
1F
102
{ACAD_REACTORS
330
E
102
}
330
E
100
AcDbMaterial
  1
ByBlock
  2

 70
0
 40
1.0
 71
1
 41
1.0
 91
-1023410177
 42
1.0
 72
1
  3

 73
1
 74
1
 75
1
 44
0.5
 73
0
 45
1.0
 46
1.0
 77
1
  4

 78
1
 79
1
170
1
 48
1.0
171
1
  6

172
1
173
1
174
1
140
1.0
141
1.0
175
1
  7

176
1
177
1
178
1
143
1.0
179
1
  8

270
1
271
1
272
1
145
1.0
146
1.0
273
1
  9

274
1
275
1
276
1
 42
1.0
 72
1
  3

 73
1
 74
1
 75
1
 94
63
  0
MATERIAL
  5
20
102
{ACAD_REACTORS
330
E
102
}
330
E
100
AcDbMaterial
  1
ByLayer
  2

 70
0
 40
1.0
 71
1
 41
1.0
 91
-1023410177
 42
1.0
 72
1
  3

 73
1
 74
1
 75
1
 44
0.5
 73
0
 45
1.0
 46
1.0
 77
1
  4

 78
1
 79
1
170
1
 48
1.0
171
1
  6

172
1
173
1
174
1
140
1.0
141
1.0
175
1
  7

176
1
177
1
178
1
143
1.0
179
1
  8

270
1
271
1
272
1
145
1.0
146
1.0
273
1
  9

274
1
275
1
276
1
 42
1.0
 72
1
  3

 73
1
 74
1
 75
1
 94
63
  0
MATERIAL
  5
21
102
{ACAD_REACTORS
330
E
102
}
330
E
100
AcDbMaterial
  1
Global
  2

 70
0
 40
1.0
 71
1
 41
1.0
 91
-1023410177
 42
1.0
 72
1
  3

 73
1
 74
1
 75
1
 44
0.5
 73
0
 45
1.0
 46
1.0
 77
1
  4

 78
1
 79
1
170
1
 48
1.0
171
1
  6

172
1
173
1
174
1
140
1.0
141
1.0
175
1
  7

176
1
177
1
178
1
143
1.0
179
1
  8

270
1
271
1
272
1
145
1.0
146
1.0
273
1
  9

274
1
275
1
276
1
 42
1.0
 72
1
  3

 73
1
 74
1
 75
1
 94
63
  0
MLINESTYLE
  5
22
102
{ACAD_REACTORS
330
10
102
}
330
10
100
AcDbMlineStyle
  2
Standard
 70
0
  3

 62
256
 51
90.0
 52
90.0
 71
2
 49
0.5
 62
256
  6
BYLAYER
 49
-0.5
 62
256
  6
BYLAYER
  0
MLEADERSTYLE
  5
2C
102
{ACAD_REACTORS
330
F
102
}
330
F
100
AcDbMLeaderStyle
179
2
170
2
171
1
172
0
 90
2
 40
0.0
 41
0.0
173
1
 91
-1056964608
 92
-2
290
1
 42
2.0
291
1
 43
8.0
  3
Standard
 44
4.0
300

342
29
174
1
175
1
176
0
178
1
 93
-1056964608
 45
4.0
292
0
297
0
 46
4.0
 94
-1056964608
 47
1.0
 49
1.0
140
1.0
294
1
141
0.0
177
0
142
1.0
295
0
296
0
143
3.75
271
0
272
9
273
9
  0
DICTIONARY
  5
2D
330
A
100
AcDbDictionary
280
1
281
1
  3
CREATED_BY_EZDXF
350
2E
  3
WRITTEN_BY_EZDXF
350
15B
  0
DICTIONARYVAR
  5
2E
330
2D
100
DictionaryVariables
280
0
  1
1.4.4 @ 2026-09-23T12:55:01.772993+00:00
  0
DICTIONARYVAR
  5
15B
330
2D
100
DictionaryVariables
280
0
  1
1.4.4 @ 2026-09-23T12:55:01.827576+00:00
  0
ENDSEC
  0
EOF
