  0
SECTION
  2
HEADER
  9
$ACADVER
  1
AC1032
  9
$ACADMAINTVER
 90
4
  9
$DWGCODEPAGE
  3
ANSI_1252
  9
$LASTSAVEDBY
  1
ezdxf
  9
$REQUIREDVERSIONS
160
0
  9
$INSBASE
 10
0.0
 20
0.0
 30
0.0
  9
$EXTMIN
 10
1e+20
 20
1e+20
 30
1e+20
  9
$EXTMAX
 10
-1e+20
 20
-1e+20
 30
-1e+20
  9
$LIMMIN
 10
0.0
 20
0.0
  9
$LIMMAX
 10
420.0
 20
297.0
  9
$ORTHOMODE
 70
0
  9
$REGENMODE
 70
1
  9
$FILLMODE
 70
1
  9
$QTEXTMODE
 70
0
  9
$MIRRTEXT
 70
1
  9
$LTSCALE
 40
1.0
  9
$ATTMODE
 70
1
  9
$TEXTSIZE
 40
2.5
  9
$TRACEWID
 40
1.0
  9
$TEXTSTYLE
  7
Standard
  9
$CLAYER
  8
0
  9
$CELTYPE
  6
ByLayer
  9
$CECOLOR
 62
256
  9
$CELTSCALE
 40
1.0
  9
$DISPSILH
 70
0
  9
$DIMSCALE
 40
1.0
  9
$DIMASZ
 40
2.5
  9
$DIMEXO
 40
0.625
  9
$DIMDLI
 40
3.75
  9
$DIMRND
 40
0.0
  9
$DIMDLE
 40
0.0
  9
$DIMEXE
 40
1.25
  9
$DIMTP
 40
0.0
  9
$DIMTM
 40
0.0
  9
$DIMTXT
 40
2.5
  9
$DIMCEN
 40
2.5
  9
$DIMTSZ
 40
0.0
  9
$DIMTOL
 70
0
  9
$DIMLIM
 70
0
  9
$DIMTIH
 70
0
  9
$DIMTOH
 70
0
  9
$DIMSE1
 70
0
  9
$DIMSE2
 70
0
  9
$DIMTAD
 70
1
  9
$DIMZIN
 70
8
  9
$DIMBLK
  1

  9
$DIMASO
 70
1
  9
$DIMSHO
 70
1
  9
$DIMPOST
  1

  9
$DIMAPOST
  1

  9
$DIMALT
 70
0
  9
$DIMALTD
 70
3
  9
$DIMALTF
 40
0.03937007874
  9
$DIMLFAC
 40
1.0
  9
$DIMTOFL
 70
1
  9
$DIMTVP
 40
0.0
  9
$DIMTIX
 70
0
  9
$DIMSOXD
 70
0
  9
$DIMSAH
 70
0
  9
$DIMBLK1
  1

  9
$DIMBLK2
  1

  9
$DIMSTYLE
  2
ISO-25
  9
$DIMCLRD
 70
0
  9
$DIMCLRE
 70
0
  9
$DIMCLRT
 70
0
  9
$DIMTFAC
 40
1.0
  9
$DIMGAP
 40
0.625
  9
$DIMJUST
 70
0
  9
$DIMSD1
 70
0
  9
$DIMSD2
 70
0
  9
$DIMTOLJ
 70
0
  9
$DIMTZIN
 70
8
  9
$DIMALTZ
 70
0
  9
$DIMALTTZ
 70
0
  9
$DIMUPT
 70
0
  9
$DIMDEC
 70
2
  9
$DIMTDEC
 70
2
  9
$DIMALTU
 70
2
  9
$DIMALTTD
 70
3
  9
$DIMTXSTY
  7
Standard
  9
$DIMAUNIT
 70
0
  9
$DIMADEC
 70
0
  9
$DIMALTRND
 40
0.0
  9
$DIMAZIN
 70
0
  9
$DIMDSEP
 70
44
  9
$DIMATFIT
 70
3
  9
$DIMFRAC
 70
0
  9
$DIMLDRBLK
  1

  9
$DIMLUNIT
 70
2
  9
$DIMLWD
 70
-2
  9
$DIMLWE
 70
-2
  9
$DIMTMOVE
 70
0
  9
$DIMFXL
 40
1.0
  9
$DIMFXLON
 70
0
  9
$DIMJOGANG
 40
0.785398163397
  9
$DIMTFILL
 70
0
  9
$DIMTFILLCLR
 70
0
  9
$DIMARCSYM
 70
0
  9
$DIMLTYPE
  6

  9
$DIMLTEX1
  6

  9
$DIMLTEX2
  6

  9
$DIMTXTDIRECTION
 70
0
  9
$LUNITS
 70
2
  9
$LUPREC
 70
4
  9
$SKETCHINC
 40
1.0
  9
$FILLETRAD
 40
10.0
  9
$AUNITS
 70
0
  9
$AUPREC
 70
2
  9
$MENU
  1
.
  9
$ELEVATION
 40
0.0
  9
$PELEVATION
 40
0.0
  9
$THICKNESS
 40
0.0
  9
$LIMCHECK
 70
0
  9
$CHAMFERA
 40
0.0
  9
$CHAMFERB
 40
0.0
  9
$CHAMFERC
 40
0.0
  9
$CHAMFERD
 40
0.0
  9
$SKPOLY
 70
0
  9
$TDCREATE
 40
2461307.82875
  9
$TDUCREATE
 40
2458532.153996898
  9
$TDUPDATE
 40
2461307.82875
  9
$TDUUPDATE
 40
2458532.1544311
  9
$TDINDWG
 40
0.0
  9
$TDUSRTIMER
 40
0.0
  9
$USRTIMER
 70
1
  9
$ANGBASE
 50
0.0
  9
$ANGDIR
 70
0
  9
$PDMODE
 70
0
  9
$PDSIZE
 40
0.0
  9
$PLINEWID
 40
0.0
  9
$SPLFRAME
 70
0
  9
$SPLINETYPE
 70
6
  9
$SPLINESEGS
 70
8
  9
$HANDSEED
  5
12C
  9
$SURFTAB1
 70
6
  9
$SURFTAB2
 70
6
  9
$SURFTYPE
 70
6
  9
$SURFU
 70
6
  9
$SURFV
 70
6
  9
$UCSBASE
  2

  9
$UCSNAME
  2

  9
$UCSORG
 10
0.0
 20
0.0
 30
0.0
  9
$UCSXDIR
 10
1.0
 20
0.0
 30
0.0
  9
$UCSYDIR
 10
0.0
 20
1.0
 30
0.0
  9
$UCSORTHOREF
  2

  9
$UCSORTHOVIEW
 70
0
  9
$UCSORGTOP
 10
0.0
 20
0.0
 30
0.0
  9
$UCSORGBOTTOM
 10
0.0
 20
0.0
 30
0.0
  9
$UCSORGLEFT
 10
0.0
 20
0.0
 30
0.0
  9
$UCSORGRIGHT
 10
0.0
 20
0.0
 30
0.0
  9
$UCSORGFRONT
 10
0.0
 20
0.0
 30
0.0
  9
$UCSORGBACK
 10
0.0
 20
0.0
 30
0.0
  9
$PUCSBASE
  2

  9
$PUCSNAME
  2

  9
$PUCSORG
 10
0.0
 20
0.0
 30
0.0
  9
$PUCSXDIR
 10
1.0
 20
0.0
 30
0.0
  9
$PUCSYDIR
 10
0.0
 20
1.0
 30
0.0
  9
$PUCSORTHOREF
  2

  9
$PUCSORTHOVIEW
 70
0
  9
$PUCSORGTOP
 10
0.0
 20
0.0
 30
0.0
  9
$PUCSORGBOTTOM
 10
0.0
 20
0.0
 30
0.0
  9
$PUCSORGLEFT
 10
0.0
 20
0.0
 30
0.0
  9
$PUCSORGRIGHT
 10
0.0
 20
0.0
 30
0.0
  9
$PUCSORGFRONT
 10
0.0
 20
0.0
 30
0.0
  9
$PUCSORGBACK
 10
0.0
 20
0.0
 30
0.0
  9
$USERI1
 70
0
  9
$USERI2
 70
0
  9
$USERI3
 70
0
  9
$USERI4
 70
0
  9
$USERI5
 70
0
  9
$USERR1
 40
0.0
  9
$USERR2
 40
0.0
  9
$USERR3
 40
0.0
  9
$USERR4
 40
0.0
  9
$USERR5
 40
0.0
  9
$WORLDVIEW
 70
1
  9
$SHADEDGE
 70
3
  9
$SHADEDIF
 70
70
  9
$TILEMODE
 70
1
  9
$MAXACTVP
 70
64
  9
$PINSBASE
 10
0.0
 20
0.0
 30
0.0
  9
$PLIMCHECK
 70
0
  9
$PEXTMIN
 10
1e+20
 20
1e+20
 30
1e+20
  9
$PEXTMAX
 10
-1e+20
 20
-1e+20
 30
-1e+20
  9
$PLIMMIN
 10
0.0
 20
0.0
  9
$PLIMMAX
 10
420.0
 20
297.0
  9
$UNITMODE
 70
0
  9
$VISRETAIN
 70
1
  9
$PLINEGEN
 70
0
  9
$PSLTSCALE
 70
1
  9
$TREEDEPTH
 70
3020
  9
$CMLSTYLE
  2
Standard
  9
$CMLJUST
 70
0
  9
$CMLSCALE
 40
20.0
  9
$PROXYGRAPHICS
 70
1
  9
$MEASUREMENT
 70
1
  9
$CELWEIGHT
370
-1
  9
$ENDCAPS
280
0
  9
$JOINSTYLE
280
0
  9
$LWDISPLAY
290
0
  9
$INSUNITS
 70
0
  9
$HYPERLINKBASE
  1

  9
$STYLESHEET
  1

  9
$XEDIT
290
1
  9
$CEPSNTYPE
380
0
  9
$PSTYLEMODE
290
1
  9
$FINGERPRINTGUID
  2
{76193E26-26CD-4CD0-B545-B6B36999CE1A}
  9
$VERSIONGUID
  2
{6299621A-60C9-4CA6-B2D3-14D8D69B18C5}
  9
$EXTNAMES
290
1
  9
$PSVPSCALE
 40
0.0
  9
$OLESTARTUP
290
0
  9
$SORTENTS
280
127
  9
$INDEXCTL
280
0
  9
$HIDETEXT
280
1
  9
$XCLIPFRAME
280
1
  9
$HALOGAP
280
0
  9
$OBSCOLOR
 70
257
  9
$OBSLTYPE
280
0
  9
$INTERSECTIONDISPLAY
280
0
  9
$INTERSECTIONCOLOR
 70
257
  9
$DIMASSOC
280
2
  9
$PROJECTNAME
  1

  9
$CAMERADISPLAY
290
0
  9
$LENSLENGTH
 40
50.0
  9
$CAMERAHEIGHT
 40
0.0
  9
$STEPSPERSEC
 40
24.0
  9
$STEPSIZE
 40
100.0
  9
$3DDWFPREC
 40
2.0
  9
$PSOLWIDTH
 40
0.005
  9
$PSOLHEIGHT
 40
0.08
  9
$LOFTANG1
 40
1.570796326795
  9
$LOFTANG2
 40
1.570796326795
  9
$LOFTMAG1
 40
0.0
  9
$LOFTMAG2
 40
0.0
  9
$LOFTPARAM
 70
7
  9
$LOFTNORMALS
280
1
  9
$LATITUDE
 40
37.795
  9
$LONGITUDE
 40
-122.394
  9
$NORTHDIRECTION
 40
0.0
  9
$TIMEZONE
 70
-8000
  9
$LIGHTGLYPHDISPLAY
280
1
  9
$TILEMODELIGHTSYNCH
280
1
  9
$CMATERIAL
347
20
  9
$SOLIDHIST
280
0
  9
$SHOWHIST
280
1
  9
$DWFFRAME
280
2
  9
$DGNFRAME
280
2
  9
$REALWORLDSCALE
290
1
  9
$INTERFERECOLOR
 62
256
  9
$CSHADOW
280
0
  9
$SHADOWPLANELOCATION
 40
0.0
  0
ENDSEC
  0
SECTION
  2
CLASSES
  0
CLASS
  1
ACDBDICTIONARYWDFLT
  2
AcDbDictionaryWithDefault
  3
ObjectDBX Classes
 90
0
 91
0
280
0
281
0
  0
CLASS
  1
SUN
  2
AcDbSun
  3
SCENEOE
 90
1153
 91
0
280
0
281
0
  0
CLASS
  1
VISUALSTYLE
  2
AcDbVisualStyle
  3
ObjectDBX Classes
 90
4095
 91
0
280
0
281
0
  0
CLASS
  1
MATERIAL
  2
AcDbMaterial
  3
ObjectDBX Classes
 90
1153
 91
0
280
0
281
0
  0
CLASS
  1
SCALE
  2
AcDbScale
  3
ObjectDBX Classes
 90
1153
 91
0
280
0
281
0
  0
CLASS
  1
TABLESTYLE
  2
AcDbTableStyle
  3
ObjectDBX Classes
 90
4095
 91
0
280
0
281
0
  0
CLASS
  1
MLEADERSTYLE
  2
AcDbMLeaderStyle
  3
ACDB_MLEADERSTYLE_CLASS
 90
4095
 91
0
280
0
281
0
  0
CLASS
  1
DICTIONARYVAR
  2
AcDbDictionaryVar
  3
ObjectDBX Classes
 90
0
 91
0
280
0
281
0
  0
CLASS
  1
CELLSTYLEMAP
  2
AcDbCellStyleMap
  3
ObjectDBX Classes
 90
1152
 91
0
280
0
281
0
  0
CLASS
  1
MENTALRAYRENDERSETTINGS
  2
AcDbMentalRayRenderSettings
  3
SCENEOE
 90
1024
 91
0
280
0
281
0
  0
CLASS
  1
ACDBDETAILVIEWSTYLE
  2
AcDbDetailViewStyle
  3
ObjectDBX Classes
 90
1025
 91
0
280
0
281
0
  0
CLASS
  1
ACDBSECTIONVIEWSTYLE
  2
AcDbSectionViewStyle
  3
ObjectDBX Classes
 90
1025
 91
0
280
0
281
0
  0
CLASS
  1
RASTERVARIABLES
  2
AcDbRasterVariables
  3
ISM
 90
0
 91
0
280
0
281
0
  0
CLASS
  1
LAYOUT
  2
AcDbLayout
  3
ObjectDBX Classes
 90
0
 91
0
280
0
281
0
  0
CLASS
  1
ACDBPLACEHOLDER
  2
AcDbPlaceHolder
  3
ObjectDBX Classes
 90
0
 91
0
280
0
281
0
  0
ENDSEC
  0
SECTION
  2
TABLES
  0
TABLE
  2
VPORT
  5
8
330
0
100
AcDbSymbolTable
 70
1
  0
VPORT
  5
23
330
8
100
AcDbSymbolTableRecord
100
AcDbViewportTableRecord
  2
*Active
 70
0
 10
0.0
 20
0.0
 11
1.0
 21
1.0
 12
0.0
 22
0.0
 13
0.0
 23
0.0
 14
0.5
 24
0.5
 15
0.5
 25
0.5
 16
0.0
 26
0.0
 36
1.0
 17
0.0
 27
0.0
 37
0.0
 40
1000.0
 41
1.34
 42
50.0
 43
0.0
 44
0.0
 50
0.0
 51
0.0
 71
0
 72
1000
 73
1
 74
3
 75
0
 76
0
 77
0
 78
0
281
0
 65
0
146
0.0
  0
ENDTAB
  0
TABLE
  2
LTYPE
  5
2
330
0
100
AcDbSymbolTable
 70
4
  0
LTYPE
  5
24
330
2
100
AcDbSymbolTableRecord
100
AcDbLinetypeTableRecord
  2
ByBlock
 70
0
  3

 72
65
 73
0
 40
0.0
  0
LTYPE
  5
25
330
2
100
AcDbSymbolTableRecord
100
AcDbLinetypeTableRecord
  2
ByLayer
 70
0
  3

 72
65
 73
0
 40
0.0
  0
LTYPE
  5
26
330
2
100
AcDbSymbolTableRecord
100
AcDbLinetypeTableRecord
  2
Continuous
 70
0
  3

 72
65
 73
0
 40
0.0
  0
LTYPE
  5
126
330
2
100
AcDbSymbolTableRecord
100
AcDbLinetypeTableRecord
  2
DASHED
 70
0
  3
Dashed __ __ __ __ __ __ __ __ __ __ __ __ __ _
 72
65
 73
2
 40
0.75
 49
0.5
 74
0
 49
-0.25
 74
0
  0
ENDTAB
  0
TABLE
  2
LAYER
  5
1
330
0
100
AcDbSymbolTable
 70
3
  0
LAYER
  5
27
330
1
100
AcDbSymbolTableRecord
100
AcDbLayerTableRecord
  2
0
 70
0
 62
7
  6
Continuous
370
-3
390
13
347
21
  0
LAYER
  5
28
330
1
100
AcDbSymbolTableRecord
100
AcDbLayerTableRecord
  2
Defpoints
 70
0
 62
7
  6
Continuous
290
0
370
-3
390
13
347
21
  0
LAYER
  5
125
330
1
100
AcDbSymbolTableRecord
100
AcDbLayerTableRecord
  2
-15N-THT. THIẾT BỊ ĐÓNG MỞ
 70
0
 62
40
  6
CONTINUOUS
370
-3
390
13
347
21
  0
ENDTAB
  0
TABLE
  2
STYLE
  5
5
330
0
100
AcDbSymbolTable
 70
1
  0
STYLE
  5
29
330
5
100
AcDbSymbolTableRecord
100
AcDbTextStyleTableRecord
  2
Standard
 70
0
 40
0.0
 41
1.0
 50
0.0
 71
0
 42
2.5
  3
txt
  4

  0
ENDTAB
  0
TABLE
  2
VIEW
  5
7
330
0
100
AcDbSymbolTable
 70
0
  0
ENDTAB
  0
TABLE
  2
UCS
  5
6
330
0
100
AcDbSymbolTable
 70
0
  0
ENDTAB
  0
TABLE
  2
APPID
  5
3
330
0
100
AcDbSymbolTable
 70
3
  0
APPID
  5
2A
330
3
100
AcDbSymbolTableRecord
100
AcDbRegAppTableRecord
  2
ACAD
 70
0
  0
APPID
  5
129
330
3
100
AcDbSymbolTableRecord
100
AcDbRegAppTableRecord
  2
HATCHBACKGROUNDCOLOR
 70
0
  0
APPID
  5
12A
330
3
100
AcDbSymbolTableRecord
100
AcDbRegAppTableRecord
  2
EZDXF
 70
0
  0
ENDTAB
  0
TABLE
  2
DIMSTYLE
  5
4
330
0
100
AcDbSymbolTable
 70
1
100
AcDbDimStyleTable
  0
DIMSTYLE
105
2B
330
4
100
AcDbSymbolTableRecord
100
AcDbDimStyleTableRecord
  2
Standard
 70
0
 40
1.0
 41
2.5
 42
0.625
 43
3.75
 44
1.25
 45
0.0
 46
0.0
 47
0.0
 48
0.0
 49
2.5
140
2.5
141
2.5
142
0.0
143
0.03937007874
144
1.0
145
0.0
146
1.0
147
0.625
148
0.0
 69
0
 70
0
 71
0
 72
0
 73
0
 74
0
 75
0
 76
0
 77
1
 78
8
 79
3
170
0
171
3
172
1
173
0
174
0
175
0
176
0
177
0
178
0
179
2
271
2
272
2
273
2
274
3
275
0
276
0
277
2
278
44
279
0
280
0
281
0
282
0
283
0
284
8
285
0
286
0
288
0
289
3
290
0
371
-2
372
-2
  0
ENDTAB
  0
TABLE
  2
BLOCK_RECORD
  5
9
330
0
100
AcDbSymbolTable
 70
3
  0
BLOCK_RECORD
  5
17
330
9
100
AcDbSymbolTableRecord
100
AcDbBlockTableRecord
  2
*Model_Space
340
1A
 70
0
280
1
281
0
  0
BLOCK_RECORD
  5
1B
330
9
100
AcDbSymbolTableRecord
100
AcDbBlockTableRecord
  2
*Paper_Space
340
1E
 70
0
280
1
281
0
  0
BLOCK_RECORD
  5
2F
330
9
100
AcDbSymbolTableRecord
100
AcDbBlockTableRecord
  2
06 - N - SC CTT CHIẾU HÔNG 1P A9C20731
340
0
 70
0
280
1
281
0
  0
ENDTAB
  0
ENDSEC
  0
SECTION
  2
BLOCKS
  0
BLOCK
  5
18
330
17
100
AcDbEntity
  8
0
100
AcDbBlockBegin
  2
*Model_Space
 70
0
 10
0.0
 20
0.0
 30
0.0
  3
*Model_Space
  1

  0
ENDBLK
  5
19
330
17
100
AcDbEntity
  8
0
100
AcDbBlockEnd
  0
BLOCK
  5
1C
330
1B
100
AcDbEntity
  8
0
100
AcDbBlockBegin
  2
*Paper_Space
 70
0
 10
0.0
 20
0.0
 30
0.0
  3
*Paper_Space
  1

  0
ENDBLK
  5
1D
330
1B
100
AcDbEntity
  8
0
100
AcDbBlockEnd
  0
BLOCK
  5
30
330
2F
100
AcDbEntity
  8
0
100
AcDbBlockBegin
  2
06 - N - SC CTT CHIẾU HÔNG 1P A9C20731
 70
0
 10
0.0
 20
0.0
 30
0.0
  3
06 - N - SC CTT CHIẾU HÔNG 1P A9C20731
  1

  0
LINE
  5
32
330
2F
100
AcDbEntity
  8
-15N-THT. THIẾT BỊ ĐÓNG MỞ
100
AcDbLine
 10
37.16406316815301
 20
34.55248445808684
 30
0.0
 11
41.51072938645348
 21
33.38779875512591
 31
0.0
  0
LINE
  5
33
330
2F
100
AcDbEntity
  8
-15N-THT. THIẾT BỊ ĐÓNG MỞ
100
AcDbLine
 10
38.49698125043096
 20
39.52700246347558
 30
0.0
 11
42.84364746872961
 21
38.36231676051466
 31
0.0
  0
ARC
  5
34
330
2F
100
AcDbEntity
  8
-15N-THT. THIẾT BỊ ĐÓNG MỞ
100
AcDbCircle
 10
151.7999999999999
 20
-24.40000000000328
 30
0.0
 40
135.1
100
AcDbArc
 50
180.0
 51
184.0747612474315
  0
LINE
  5
35
330
2F
100
AcDbEntity
  8
-15N-THT. THIẾT BỊ ĐÓNG MỞ
100
AcDbLine
 10
17.04151232667982
 20
-34.00000000000364
 30
0.0
 11
17.04151232667982
 21
-34.00000000000364
 31
0.0
  0
ARC
  5
36
330
2F
100
AcDbEntity
  8
-15N-THT. THIẾT BỊ ĐÓNG MỞ
100
AcDbCircle
 10
158.8101080309853
 20
3.737829313900537
 30
0.0
 40
162.8158068503916
100
AcDbArc
 50
179.5206165226183
 51
189.2736623852962
  0
ARC
  5
37
330
2F
100
AcDbEntity
  8
-15N-THT. THIẾT BỊ ĐÓNG MỞ
100
AcDbCircle
 10
156.9244553427106
 20
3.746134990791064
 30
0.0
 40
160.9301508451829
100
AcDbArc
 50
173.3078772223864
 51
179.5179565075792
  0
ARC
  5
38
330
2F
100
AcDbEntity
  8
-15N-THT. THIẾT BỊ ĐÓNG MỞ
100
AcDbCircle
 10
150.6417817611088
 20
22.64992325607577
 30
0.0
 40
133.9417817358994
100
AcDbArc
 50
175.0531329274529
 51
180.0641321289472
  0
LINE
  5
39
330
2F
100
AcDbEntity
  8
-15N-THT. THIẾT BỊ ĐÓNG MỞ
100
AcDbLine
 10
37.06961524226381
 20
34.19999999999527
 30
0.0
 11
17.19892273832966
 21
34.19999999999527
 31
0.0
  0
LINE
  5
3A
330
2F
100
AcDbEntity
  8
-15N-THT. THIẾT BỊ ĐÓNG MỞ
100
AcDbLine
 10
38.75769515457978
 20
40.49999999999636
 30
0.0
 11
37.06961524226381
 21
34.19999999999527
 31
0.0
  0
LINE
  5
3B
330
2F
100
AcDbEntity
  8
-15N-THT. THIẾT BỊ ĐÓNG MỞ
100
AcDbLine
 10
64.71281304082004
 20
40.49999999999636
 30
0.0
 11
38.75769515457978
 21
40.49999999999636
 31
0.0
  0
LINE
  5
3C
330
2F
100
AcDbEntity
  8
-15N-THT. THIẾT BỊ ĐÓNG MỞ
100
AcDbLine
 10
66.0
 20
33.19999999999527
 30
0.0
 11
64.71281304082822
 21
40.49999999999818
 31
0.0
  0
LINE
  5
3D
330
2F
100
AcDbEntity
  8
-15N-THT. THIẾT BỊ ĐÓNG MỞ
100
AcDbLine
 10
66.0
 20
25.69999999999527
 30
0.0
 11
66.0
 21
33.19999999999527
 31
0.0
  0
LINE
  5
3E
330
2F
100
AcDbEntity
  8
-15N-THT. THIẾT BỊ ĐÓNG MỞ
100
AcDbLine
 10
64.11330130641998
 20
14.99999999999636
 30
0.0
 11
66.0
 21
25.69999999999527
 31
0.0
  0
LINE
  5
3F
330
2F
100
AcDbEntity
  8
-15N-THT. THIẾT BỊ ĐÓNG MỞ
100
AcDbLine
 10
63.12053959933973
 20
14.99999999999636
 30
0.0
 11
64.11330130641998
 21
14.99999999999636
 31
0.0
  0
LINE
  5
40
330
2F
100
AcDbEntity
  8
-15N-THT. THIẾT BỊ ĐÓNG MỞ
100
AcDbLine
 10
61.29999999999973
 20
17.59999999999672
 30
0.0
 11
63.12053959934337
 21
14.99999999999818
 31
0.0
  0
LINE
  5
41
330
2F
100
AcDbEntity
  8
-15N-THT. THIẾT BỊ ĐÓNG MỞ
100
AcDbLine
 10
60.5
 20
17.59999999999672
 30
0.0
 11
61.29999999999973
 21
17.59999999999672
 31
0.0
  0
LINE
  5
42
330
2F
100
AcDbEntity
  8
-15N-THT. THIẾT BỊ ĐÓNG MỞ
100
AcDbLine
 10
60.5
 20
4.099999999996725
 30
0.0
 11
60.5
 21
17.59999999999672
 31
0.0
  0
LINE
  5
43
330
2F
100
AcDbEntity
  8
-15N-THT. THIẾT BỊ ĐÓNG MỞ
100
AcDbLine
 10
64.0
 20
4.099999999996725
 30
0.0
 11
60.5
 21
4.099999999996725
 31
0.0
  0
LINE
  5
44
330
2F
100
AcDbEntity
  8
-15N-THT. THIẾT BỊ ĐÓNG MỞ
100
AcDbLine
 10
64.0
 20
-3.900000000003274
 30
0.0
 11
64.0
 21
4.099999999996725
 31
0.0
  0
LINE
  5
45
330
2F
100
AcDbEntity
  8
-15N-THT. THIẾT BỊ ĐÓNG MỞ
100
AcDbLine
 10
60.5
 20
-3.900000000003274
 30
0.0
 11
64.0
 21
-3.900000000003274
 31
0.0
  0
LINE
  5
46
330
2F
100
AcDbEntity
  8
-15N-THT. THIẾT BỊ ĐÓNG MỞ
100
AcDbLine
 10
60.5
 20
-18.100000000004
 30
0.0
 11
60.5
 21
-3.900000000003274
 31
0.0
  0
LINE
  5
47
330
2F
100
AcDbEntity
  8
-15N-THT. THIẾT BỊ ĐÓNG MỞ
100
AcDbLine
 10
38.75769515457978
 20
-40.30000000000472
 30
0.0
 11
66.0
 21
-40.30000000000472
 31
0.0
  0
LINE
  5
48
330
2F
100
AcDbEntity
  8
-15N-THT. THIẾT BỊ ĐÓNG MỞ
100
AcDbLine
 10
37.06961524226381
 20
-34.00000000000364
 30
0.0
 11
38.75769515457978
 21
-40.30000000000472
 31
0.0
  0
LINE
  5
49
330
2F
100
AcDbEntity
  8
-15N-THT. THIẾT BỊ ĐÓNG MỞ
100
AcDbLine
 10
17.04151232667982
 20
-34.00000000000364
 30
0.0
 11
37.06961524226381
 21
-34.00000000000364
 31
0.0
  0
ARC
  5
4A
330
2F
100
AcDbEntity
  8
-15N-THT. THIẾT BỊ ĐÓNG MỞ
100
AcDbCircle
 10
123.0428803170915
 20
-24.40000403528909
 30
0.0
 40
106.3428803170916
100
AcDbArc
 50
178.9762548781058
 51
179.9999978258549
  0
LINE
  5
4B
330
2F
100
AcDbEntity
  8
-15N-THT. THIẾT BỊ ĐÓNG MỞ
100
AcDbLine
 10
-2.909224202783825
 20
22.50002342562987
 30
0.0
 11
-2.909224202783825
 21
22.50002342562987
 31
0.0
  0
LINE
  5
4C
330
2F
100
AcDbEntity
  8
-15N-THT. THIẾT BỊ ĐÓNG MỞ
100
AcDbLine
 10
16.6999999999992
 20
22.65059268558109
 30
0.0
 11
16.6999999999992
 21
22.65059268558109
 31
0.0
  0
LINE
  5
4D
330
2F
100
AcDbEntity
  8
-15N-THT. THIẾT BỊ ĐÓNG MỞ
100
AcDbLine
 10
17.19892273832966
 20
34.19999999999527
 30
0.0
 11
17.19892273832966
 21
34.19999999999527
 31
0.0
  0
LINE
  5
4E
330
2F
100
AcDbEntity
  8
-15N-THT. THIẾT BỊ ĐÓNG MỞ
100
AcDbLine
 10
37.06961524226381
 20
34.19999999999527
 30
0.0
 11
37.06961524226381
 21
34.19999999999527
 31
0.0
  0
LINE
  5
4F
330
2F
100
AcDbEntity
  8
-15N-THT. THIẾT BỊ ĐÓNG MỞ
100
AcDbLine
 10
38.75769515457978
 20
40.49999999999636
 30
0.0
 11
38.75769515457978
 21
40.49999999999636
 31
0.0
  0
LINE
  5
50
330
2F
100
AcDbEntity
  8
-15N-THT. THIẾT BỊ ĐÓNG MỞ
100
AcDbLine
 10
64.71281304082004
 20
40.49999999999636
 30
0.0
 11
64.71281304082004
 21
40.49999999999636
 31
0.0
  0
LINE
  5
51
330
2F
100
AcDbEntity
  8
-15N-THT. THIẾT BỊ ĐÓNG MỞ
100
AcDbLine
 10
57.25668423043998
 20
40.49999999999636
 30
0.0
 11
57.25668423043998
 21
40.49999999999636
 31
0.0
  0
LINE
  5
52
330
2F
100
AcDbEntity
  8
-15N-THT. THIẾT BỊ ĐÓNG MỞ
100
AcDbLine
 10
51.66619285621982
 20
40.49999999999636
 30
0.0
 11
51.66619285621982
 21
40.49999999999636
 31
0.0
  0
LINE
  5
53
330
2F
100
AcDbEntity
  8
-15N-THT. THIẾT BỊ ĐÓNG MỞ
100
AcDbLine
 10
57.25668423043998
 20
40.49999999999636
 30
0.0
 11
57.25668423043998
 21
40.49999999999636
 31
0.0
  0
LINE
  5
54
330
2F
100
AcDbEntity
  8
-15N-THT. THIẾT BỊ ĐÓNG MỞ
100
AcDbLine
 10
51.66619285621982
 20
40.49999999999636
 30
0.0
 11
51.66619285621982
 21
40.49999999999636
 31
0.0
  0
LINE
  5
55
330
2F
100
AcDbEntity
  8
-15N-THT. THIẾT BỊ ĐÓNG MỞ
100
AcDbLine
 10
66.0
 20
33.19999999999527
 30
0.0
 11
66.0
 21
33.19999999999527
 31
0.0
  0
LINE
  5
56
330
2F
100
AcDbEntity
  8
-15N-THT. THIẾT BỊ ĐÓNG MỞ
100
AcDbLine
 10
66.0
 20
25.69999999999527
 30
0.0
 11
66.0
 21
25.69999999999527
 31
0.0
  0
LINE
  5
57
330
2F
100
AcDbEntity
  8
-15N-THT. THIẾT BỊ ĐÓNG MỞ
100
AcDbLine
 10
64.57175145625979
 20
17.59999999999672
 30
0.0
 11
64.57175145625979
 21
17.59999999999672
 31
0.0
  0
LINE
  5
58
330
2F
100
AcDbEntity
  8
-15N-THT. THIẾT BỊ ĐÓNG MỞ
100
AcDbLine
 10
64.11330130641998
 20
14.99999999999636
 30
0.0
 11
64.11330130641998
 21
14.99999999999636
 31
0.0
  0
LINE
  5
59
330
2F
100
AcDbEntity
  8
-15N-THT. THIẾT BỊ ĐÓNG MỞ
100
AcDbLine
 10
64.11330130641998
 20
14.99999999999636
 30
0.0
 11
64.11330130641998
 21
14.99999999999636
 31
0.0
  0
LINE
  5
5A
330
2F
100
AcDbEntity
  8
-15N-THT. THIẾT BỊ ĐÓNG MỞ
100
AcDbLine
 10
61.29999999999973
 20
17.59999999999672
 30
0.0
 11
61.29999999999973
 21
17.59999999999672
 31
0.0
  0
LINE
  5
5B
330
2F
100
AcDbEntity
  8
-15N-THT. THIẾT BỊ ĐÓNG MỞ
100
AcDbLine
 10
60.5
 20
17.59999999999672
 30
0.0
 11
60.5
 21
17.59999999999672
 31
0.0
  0
LINE
  5
5C
330
2F
100
AcDbEntity
  8
-15N-THT. THIẾT BỊ ĐÓNG MỞ
100
AcDbLine
 10
61.29999999999973
 20
17.59999999999672
 30
0.0
 11
61.29999999999973
 21
17.59999999999672
 31
0.0
  0
LINE
  5
5D
330
2F
100
AcDbEntity
  8
-15N-THT. THIẾT BỊ ĐÓNG MỞ
100
AcDbLine
 10
61.29999999999973
 20
17.59999999999672
 30
0.0
 11
64.57175145625979
 21
17.59999999999672
 31
0.0
  0
LINE
  5
5E
330
2F
100
AcDbEntity
  8
-15N-THT. THIẾT BỊ ĐÓNG MỞ
100
AcDbLine
 10
63.12053959933973
 20
14.99999999999636
 30
0.0
 11
63.12053959933973
 21
14.99999999999636
 31
0.0
  0
LINE
  5
5F
330
2F
100
AcDbEntity
  8
-15N-THT. THIẾT BỊ ĐÓNG MỞ
100
AcDbLine
 10
63.12053959933973
 20
14.99999999999636
 30
0.0
 11
63.12053959933973
 21
14.99999999999636
 31
0.0
  0
LINE
  5
60
330
2F
100
AcDbEntity
  8
-15N-THT. THIẾT BỊ ĐÓNG MỞ
100
AcDbLine
 10
60.5
 20
-18.100000000004
 30
0.0
 11
60.5
 21
-18.100000000004
 31
0.0
  0
LINE
  5
61
330
2F
100
AcDbEntity
  8
-15N-THT. THIẾT BỊ ĐÓNG MỞ
100
AcDbLine
 10
60.5
 20
-18.100000000004
 30
0.0
 11
60.5
 21
-18.100000000004
 31
0.0
  0
LINE
  5
62
330
2F
100
AcDbEntity
  8
-15N-THT. THIẾT BỊ ĐÓNG MỞ
100
AcDbLine
 10
60.5
 20
-18.100000000004
 30
0.0
 11
60.5
 21
-21.80000000000473
 31
0.0
  0
LINE
  5
63
330
2F
100
AcDbEntity
  8
-15N-THT. THIẾT BỊ ĐÓNG MỞ
100
AcDbLine
 10
60.5
 20
-21.80000000000473
 30
0.0
 11
60.5
 21
-21.80000000000473
 31
0.0
  0
LINE
  5
64
330
2F
100
AcDbEntity
  8
-15N-THT. THIẾT BỊ ĐÓNG MỞ
100
AcDbLine
 10
60.5
 20
-40.30000000000472
 30
0.0
 11
60.5
 21
-40.30000000000472
 31
0.0
  0
LINE
  5
65
330
2F
100
AcDbEntity
  8
-15N-THT. THIẾT BỊ ĐÓNG MỞ
100
AcDbLine
 10
60.5
 20
-40.30000000000472
 30
0.0
 11
60.5
 21
-30.98973735329309
 31
0.0
  0
LINE
  5
66
330
2F
100
AcDbEntity
  8
-15N-THT. THIẾT BỊ ĐÓNG MỞ
100
AcDbLine
 10
60.5
 20
-30.98973735329309
 30
0.0
 11
60.5
 21
-28.04525098043269
 31
0.0
  0
LINE
  5
67
330
2F
100
AcDbEntity
  8
-15N-THT. THIẾT BỊ ĐÓNG MỞ
100
AcDbLine
 10
60.5
 20
-28.0452509804345
 30
0.0
 11
60.5
 21
-25.96679001134544
 31
0.0
  0
LINE
  5
68
330
2F
100
AcDbEntity
  8
-15N-THT. THIẾT BỊ ĐÓNG MỞ
100
AcDbLine
 10
60.5
 20
-25.96679001134362
 30
0.0
 11
60.5
 21
-22.55000000000291
 31
0.0
  0
LINE
  5
69
330
2F
100
AcDbEntity
  8
-15N-THT. THIẾT BỊ ĐÓNG MỞ
100
AcDbLine
 10
60.5
 20
-22.55000000000473
 30
0.0
 11
60.5
 21
-21.80000000000473
 31
0.0
  0
LINE
  5
6A
330
2F
100
AcDbEntity
  8
-15N-THT. THIẾT BỊ ĐÓNG MỞ
100
AcDbLine
 10
60.5
 20
-21.80000000000473
 30
0.0
 11
60.5
 21
-21.80000000000473
 31
0.0
  0
LINE
  5
6B
330
2F
100
AcDbEntity
  8
-15N-THT. THIẾT BỊ ĐÓNG MỞ
100
AcDbLine
 10
60.5
 20
-3.900000000003274
 30
0.0
 11
60.5
 21
-3.900000000003274
 31
0.0
  0
LINE
  5
6C
330
2F
100
AcDbEntity
  8
-15N-THT. THIẾT BỊ ĐÓNG MỞ
100
AcDbLine
 10
64.0
 20
-3.900000000003274
 30
0.0
 11
64.0
 21
-3.900000000003274
 31
0.0
  0
LINE
  5
6D
330
2F
100
AcDbEntity
  8
-15N-THT. THIẾT BỊ ĐÓNG MỞ
100
AcDbLine
 10
64.0
 20
4.099999999996725
 30
0.0
 11
64.0
 21
4.099999999996725
 31
0.0
  0
LINE
  5
6E
330
2F
100
AcDbEntity
  8
-15N-THT. THIẾT BỊ ĐÓNG MỞ
100
AcDbLine
 10
60.5
 20
4.099999999996725
 30
0.0
 11
60.5
 21
4.099999999996725
 31
0.0
  0
LINE
  5
6F
330
2F
100
AcDbEntity
  8
-15N-THT. THIẾT BỊ ĐÓNG MỞ
100
AcDbLine
 10
38.75769515457978
 20
-40.30000000000472
 30
0.0
 11
38.75769515457978
 21
-40.30000000000472
 31
0.0
  0
LINE
  5
70
330
2F
100
AcDbEntity
  8
-15N-THT. THIẾT BỊ ĐÓNG MỞ
100
AcDbLine
 10
57.25668423043998
 20
-40.30000000000472
 30
0.0
 11
57.25668423043998
 21
-40.30000000000472
 31
0.0
  0
LINE
  5
71
330
2F
100
AcDbEntity
  8
-15N-THT. THIẾT BỊ ĐÓNG MỞ
100
AcDbLine
 10
51.66619285621982
 20
-40.30000000000472
 30
0.0
 11
51.66619285621982
 21
-40.30000000000472
 31
0.0
  0
LINE
  5
72
330
2F
100
AcDbEntity
  8
-15N-THT. THIẾT BỊ ĐÓNG MỞ
100
AcDbLine
 10
57.25668423043998
 20
-40.30000000000472
 30
0.0
 11
57.25668423043998
 21
-40.30000000000472
 31
0.0
  0
LINE
  5
73
330
2F
100
AcDbEntity
  8
-15N-THT. THIẾT BỊ ĐÓNG MỞ
100
AcDbLine
 10
51.66619285621982
 20
-40.30000000000472
 30
0.0
 11
51.66619285621982
 21
-40.30000000000472
 31
0.0
  0
LINE
  5
74
330
2F
100
AcDbEntity
  8
-15N-THT. THIẾT BỊ ĐÓNG MỞ
100
AcDbLine
 10
37.06961524226381
 20
-34.00000000000364
 30
0.0
 11
37.06961524226381
 21
-34.00000000000364
 31
0.0
  0
LINE
  5
75
330
2F
100
AcDbEntity
  8
-15N-THT. THIẾT BỊ ĐÓNG MỞ
100
AcDbLine
 10
24.19999999999573
 20
-29.100000000004
 30
0.0
 11
16.78177900742003
 21
-29.100000000004
 31
0.0
  0
LINE
  5
76
330
2F
100
AcDbEntity
  8
-15N-THT. THIẾT BỊ ĐÓNG MỞ
100
AcDbLine
 10
24.19999999999573
 20
-23.90000000000327
 30
0.0
 11
24.19999999999573
 21
-29.100000000004
 31
0.0
  0
LINE
  5
77
330
2F
100
AcDbEntity
  8
-15N-THT. THIẾT BỊ ĐÓNG MỞ
100
AcDbLine
 10
24.19999999999573
 20
-23.90000000000327
 30
0.0
 11
16.70092524372967
 21
-23.90000000000327
 31
0.0
  0
LINE
  5
78
330
2F
100
AcDbEntity
  8
-15N-THT. THIẾT BỊ ĐÓNG MỞ
100
AcDbLine
 10
24.19999999999573
 20
29.29999999999564
 30
0.0
 11
24.19999999999573
 21
24.09999999999673
 31
0.0
  0
LINE
  5
79
330
2F
100
AcDbEntity
  8
-15N-THT. THIẾT BỊ ĐÓNG MỞ
100
AcDbLine
 10
24.19999999999573
 20
24.09999999999673
 30
0.0
 11
16.70832742170978
 21
24.09999999999673
 31
0.0
  0
LINE
  5
7A
330
2F
100
AcDbEntity
  8
-15N-THT. THIẾT BỊ ĐÓNG MỞ
100
AcDbLine
 10
24.19999999999573
 20
29.29999999999564
 30
0.0
 11
16.86623847234978
 21
29.29999999999564
 31
0.0
  0
LINE
  5
7B
330
2F
100
AcDbEntity
  8
-15N-THT. THIẾT BỊ ĐÓNG MỞ
100
AcDbLine
 10
37.25028834470777
 20
-34.67428119788383
 30
0.0
 11
41.59695456300869
 21
-33.50959549492291
 31
0.0
  0
LINE
  5
7C
330
2F
100
AcDbEntity
  8
-15N-THT. THIẾT BỊ ĐÓNG MỞ
100
AcDbLine
 10
38.58320642698572
 20
-39.64879920327439
 30
0.0
 11
42.92987264528938
 21
-38.48411350031165
 31
0.0
  0
LINE
  5
7D
330
2F
100
AcDbEntity
  8
-15N-THT. THIẾT BỊ ĐÓNG MỞ
100
AcDbLine
 10
41.59695456301096
 20
-33.50959549491927
 30
0.0
 11
42.92987264528892
 21
-38.48411350030801
 31
0.0
  0
LINE
  5
7E
330
2F
100
AcDbEntity
  8
-15N-THT. THIẾT BỊ ĐÓNG MỞ
100
AcDbLine
 10
37.25028834470777
 20
-34.67428119788383
 30
0.0
 11
41.59695456300869
 21
-33.50959549492291
 31
0.0
  0
LINE
  5
7F
330
2F
100
AcDbEntity
  8
-15N-THT. THIẾT BỊ ĐÓNG MỞ
100
AcDbLine
 10
38.58320642698572
 20
-39.64879920327439
 30
0.0
 11
42.92987264528938
 21
-38.48411350031165
 31
0.0
  0
LINE
  5
80
330
2F
100
AcDbEntity
  8
-15N-THT. THIẾT BỊ ĐÓNG MỞ
100
AcDbLine
 10
57.25668423043998
 20
-35.05000000000473
 30
0.0
 11
57.25668423043998
 21
-35.05000000000473
 31
0.0
  0
LINE
  5
81
330
2F
100
AcDbEntity
  8
-15N-THT. THIẾT BỊ ĐÓNG MỞ
100
AcDbLine
 10
57.25668423043998
 20
-40.30000000000472
 30
0.0
 11
57.25668423043998
 21
-35.05000000000473
 31
0.0
  0
LINE
  5
82
330
2F
100
AcDbEntity
  8
-15N-THT. THIẾT BỊ ĐÓNG MỞ
100
AcDbLine
 10
51.66619285621982
 20
-35.05000000000473
 30
0.0
 11
57.25668423043998
 21
-35.05000000000473
 31
0.0
  0
LINE
  5
83
330
2F
100
AcDbEntity
  8
-15N-THT. THIẾT BỊ ĐÓNG MỞ
100
AcDbLine
 10
51.66619285621982
 20
-40.30000000000472
 30
0.0
 11
51.66619285621982
 21
-35.05000000000473
 31
0.0
  0
LINE
  5
84
330
2F
100
AcDbEntity
  8
-15N-THT. THIẾT BỊ ĐÓNG MỞ
100
AcDbLine
 10
51.66619285621982
 20
-35.05000000000473
 30
0.0
 11
51.66619285621982
 21
-35.05000000000473
 31
0.0
  0
LINE
  5
85
330
2F
100
AcDbEntity
  8
-15N-THT. THIẾT BỊ ĐÓNG MỞ
100
AcDbLine
 10
57.25668423043998
 20
-35.05000000000473
 30
0.0
 11
57.25668423043998
 21
-35.05000000000473
 31
0.0
  0
LINE
  5
86
330
2F
100
AcDbEntity
  8
-15N-THT. THIẾT BỊ ĐÓNG MỞ
100
AcDbLine
 10
51.66619285621982
 20
-35.05000000000473
 30
0.0
 11
51.66619285621982
 21
-35.05000000000473
 31
0.0
  0
LINE
  5
87
330
2F
100
AcDbEntity
  8
-15N-THT. THIẾT BỊ ĐÓNG MỞ
100
AcDbLine
 10
57.25668423043998
 20
40.49999999999636
 30
0.0
 11
57.25668423043998
 21
35.24999999999636
 31
0.0
  0
LINE
  5
88
330
2F
100
AcDbEntity
  8
-15N-THT. THIẾT BỊ ĐÓNG MỞ
100
AcDbLine
 10
57.25668423043998
 20
35.24999999999636
 30
0.0
 11
57.25668423043998
 21
35.24999999999636
 31
0.0
  0
LINE
  5
89
330
2F
100
AcDbEntity
  8
-15N-THT. THIẾT BỊ ĐÓNG MỞ
100
AcDbLine
 10
51.66619285621982
 20
40.49999999999636
 30
0.0
 11
51.66619285621982
 21
35.24999999999636
 31
0.0
  0
LINE
  5
8A
330
2F
100
AcDbEntity
  8
-15N-THT. THIẾT BỊ ĐÓNG MỞ
100
AcDbLine
 10
51.66619285621982
 20
35.24999999999636
 30
0.0
 11
57.25668423043998
 21
35.24999999999636
 31
0.0
  0
LINE
  5
8B
330
2F
100
AcDbEntity
  8
-15N-THT. THIẾT BỊ ĐÓNG MỞ
100
AcDbLine
 10
51.66619285621982
 20
35.24999999999636
 30
0.0
 11
51.66619285621982
 21
35.24999999999636
 31
0.0
  0
LINE
  5
8C
330
2F
100
AcDbEntity
  8
-15N-THT. THIẾT BỊ ĐÓNG MỞ
100
AcDbLine
 10
57.25668423043998
 20
35.24999999999636
 30
0.0
 11
57.25668423043998
 21
35.24999999999636
 31
0.0
  0
LINE
  5
8D
330
2F
100
AcDbEntity
  8
-15N-THT. THIẾT BỊ ĐÓNG MỞ
100
AcDbLine
 10
51.66619285621982
 20
35.24999999999636
 30
0.0
 11
51.66619285621982
 21
35.24999999999636
 31
0.0
  0
LINE
  5
8E
330
2F
100
AcDbEntity
  8
-15N-THT. THIẾT BỊ ĐÓNG MỞ
100
AcDbLine
 10
38.49698125043096
 20
39.52700246347558
 30
0.0
 11
42.84364746872961
 21
38.36231676051466
 31
0.0
  0
LINE
  5
8F
330
2F
100
AcDbEntity
  8
-15N-THT. THIẾT BỊ ĐÓNG MỞ
100
AcDbLine
 10
37.16406316815301
 20
34.55248445808684
 30
0.0
 11
41.51072938645348
 21
33.38779875512591
 31
0.0
  0
LINE
  5
90
330
2F
100
AcDbEntity
  8
-15N-THT. THIẾT BỊ ĐÓNG MỞ
100
AcDbLine
 10
42.8436474687287
 20
38.36231676051102
 30
0.0
 11
41.5107293864512
 21
33.38779875512228
 31
0.0
  0
LINE
  5
91
330
2F
100
AcDbEntity
  8
-15N-THT. THIẾT BỊ ĐÓNG MỞ
100
AcDbLine
 10
60.5
 20
-20.80000000000109
 30
0.0
 11
60.5
 21
-21.40000000000146
 31
0.0
  0
LINE
  5
92
330
2F
100
AcDbEntity
  8
-15N-THT. THIẾT BỊ ĐÓNG MỞ
100
AcDbLine
 10
60.5
 20
-15.80000000000473
 30
0.0
 11
60.5
 21
-15.80000000000473
 31
0.0
  0
LINE
  5
93
330
2F
100
AcDbEntity
  8
-15N-THT. THIẾT BỊ ĐÓNG MỞ
100
AcDbLine
 10
60.5
 20
-20.1880108514124
 30
0.0
 11
60.5
 21
-18.100000000004
 31
0.0
  0
LINE
  5
94
330
2F
100
AcDbEntity
  8
-15N-THT. THIẾT BỊ ĐÓNG MỞ
100
AcDbLine
 10
60.5
 20
-20.80000000002838
 30
0.0
 11
60.5
 21
-20.1880108514124
 31
0.0
  0
LINE
  5
95
330
2F
100
AcDbEntity
  8
-15N-THT. THIẾT BỊ ĐÓNG MỞ
100
AcDbLine
 10
60.5
 20
-25.80000000000109
 30
0.0
 11
60.5
 21
-25.80000000000109
 31
0.0
  0
LINE
  5
96
330
2F
100
AcDbEntity
  8
-15N-THT. THIẾT BỊ ĐÓNG MỞ
100
AcDbLine
 10
60.5
 20
-35.80000000000109
 30
0.0
 11
60.5
 21
-35.80000000000109
 31
0.0
  0
LINE
  5
97
330
2F
100
AcDbEntity
  8
-15N-THT. THIẾT BỊ ĐÓNG MỞ
100
AcDbLine
 10
60.5
 20
-21.785672565813
 30
0.0
 11
60.5
 21
-21.40000000000146
 31
0.0
  0
LINE
  5
98
330
2F
100
AcDbEntity
  8
-15N-THT. THIẾT BỊ ĐÓNG MỞ
100
AcDbLine
 10
60.5
 20
-25.14026676092362
 30
0.0
 11
60.5
 21
-21.785672565813
 31
0.0
  0
LINE
  5
99
330
2F
100
AcDbEntity
  8
-15N-THT. THIẾT BỊ ĐÓNG MỞ
100
AcDbLine
 10
60.5
 20
-42.80000000000472
 30
0.0
 11
60.5
 21
-40.30000000000472
 31
0.0
  0
LINE
  5
9A
330
2F
100
AcDbEntity
  8
-15N-THT. THIẾT BỊ ĐÓNG MỞ
100
AcDbLine
 10
60.5
 20
-40.30000000000472
 30
0.0
 11
60.5
 21
-25.14026676092362
 31
0.0
  0
LINE
  5
9B
330
2F
100
AcDbEntity
  8
-15N-THT. THIẾT BỊ ĐÓNG MỞ
100
AcDbLine
 10
60.5
 20
-42.80000000000472
 30
0.0
 11
60.5
 21
-42.80000000000472
 31
0.0
  0
LINE
  5
9C
330
2F
100
AcDbEntity
  8
-15N-THT. THIẾT BỊ ĐÓNG MỞ
100
AcDbLine
 10
60.5
 20
-35.80000000000109
 30
0.0
 11
60.5
 21
-35.80000000000109
 31
0.0
  0
LINE
  5
9D
330
2F
100
AcDbEntity
  8
-15N-THT. THIẾT BỊ ĐÓNG MỞ
100
AcDbLine
 10
60.5
 20
-25.80000000000109
 30
0.0
 11
60.5
 21
-25.80000000000109
 31
0.0
  0
LINE
  5
9E
330
2F
100
AcDbEntity
  8
-15N-THT. THIẾT BỊ ĐÓNG MỞ
100
AcDbLine
 10
60.5
 20
-37.80000000000109
 30
0.0
 11
60.5
 21
-37.80000000000109
 31
0.0
  0
LINE
  5
9F
330
2F
100
AcDbEntity
  8
-15N-THT. THIẾT BỊ ĐÓNG MỞ
100
AcDbLine
 10
61.66080122775202
 20
-42.80000000000472
 30
0.0
 11
61.66080122775202
 21
-42.80000000000472
 31
0.0
  0
LINE
  5
A0
330
2F
100
AcDbEntity
  8
-15N-THT. THIẾT BỊ ĐÓNG MỞ
100
AcDbLine
 10
61.66080122775202
 20
-42.80000000000472
 30
0.0
 11
61.66080122775202
 21
-42.80000000000472
 31
0.0
  0
LINE
  5
A1
330
2F
100
AcDbEntity
  8
-15N-THT. THIẾT BỊ ĐÓNG MỞ
100
AcDbLine
 10
60.5
 20
-42.80000000000472
 30
0.0
 11
61.66080122775202
 21
-42.80000000000472
 31
0.0
  0
LINE
  5
A2
330
2F
100
AcDbEntity
  8
-15N-THT. THIẾT BỊ ĐÓNG MỞ
100
AcDbLine
 10
61.66080122775202
 20
-42.80000000000472
 30
0.0
 11
66.0
 21
-42.80000000000472
 31
0.0
  0
LINE
  5
A3
330
2F
100
AcDbEntity
  8
-15N-THT. THIẾT BỊ ĐÓNG MỞ
100
AcDbLine
 10
66.0
 20
-42.80000000000472
 30
0.0
 11
66.0
 21
-42.80000000000472
 31
0.0
  0
LINE
  5
A4
330
2F
100
AcDbEntity
  8
-15N-THT. THIẾT BỊ ĐÓNG MỞ
100
AcDbLine
 10
66.0
 20
-42.80000000000472
 30
0.0
 11
66.0
 21
-40.30000000000472
 31
0.0
  0
LINE
  5
A5
330
2F
100
AcDbEntity
  8
-15N-THT. THIẾT BỊ ĐÓNG MỞ
100
AcDbLine
 10
61.99946148723165
 20
-14.30000000000473
 30
0.0
 11
61.29999999999927
 21
-15.80000000000473
 31
0.0
  0
LINE
  5
A6
330
2F
100
AcDbEntity
  8
-15N-THT. THIẾT BỊ ĐÓNG MỞ
100
AcDbLine
 10
61.99946148723165
 20
-14.30000000000473
 30
0.0
 11
62.5
 21
-14.30000000000473
 31
0.0
  0
LINE
  5
A7
330
2F
100
AcDbEntity
  8
-15N-THT. THIẾT BỊ ĐÓNG MỞ
100
AcDbLine
 10
66.0
 20
-17.80000000000473
 30
0.0
 11
62.5
 21
-14.30000000000473
 31
0.0
  0
LINE
  5
A8
330
2F
100
AcDbEntity
  8
-15N-THT. THIẾT BỊ ĐÓNG MỞ
100
AcDbLine
 10
61.29999999999927
 20
-15.80000000000473
 30
0.0
 11
61.29999999999927
 21
-15.80000000000473
 31
0.0
  0
LINE
  5
A9
330
2F
100
AcDbEntity
  8
-15N-THT. THIẾT BỊ ĐÓNG MỞ
100
AcDbLine
 10
60.5
 20
-15.80000000000473
 30
0.0
 11
61.29999999999927
 21
-15.80000000000473
 31
0.0
  0
LINE
  5
AA
330
2F
100
AcDbEntity
  8
-15N-THT. THIẾT BỊ ĐÓNG MỞ
100
AcDbLine
 10
61.99946148723165
 20
-14.30000000000473
 30
0.0
 11
61.99946148723165
 21
-14.30000000000473
 31
0.0
  0
LINE
  5
AB
330
2F
100
AcDbEntity
  8
-15N-THT. THIẾT BỊ ĐÓNG MỞ
100
AcDbLine
 10
62.5
 20
-14.30000000000473
 30
0.0
 11
62.5
 21
-14.30000000000473
 31
0.0
  0
LINE
  5
AC
330
2F
100
AcDbEntity
  8
-15N-THT. THIẾT BỊ ĐÓNG MỞ
100
AcDbLine
 10
22.19999999999982
 20
27.04999999999563
 30
0.0
 11
22.19999999999982
 21
27.04999999999563
 31
0.0
  0
LINE
  5
AD
330
2F
100
AcDbEntity
  8
-15N-THT. THIẾT BỊ ĐÓNG MỞ
100
AcDbLine
 10
23.40000000000009
 20
27.04999999999563
 30
0.0
 11
23.40000000000009
 21
27.04999999999563
 31
0.0
  0
LINE
  5
AE
330
2F
100
AcDbEntity
  8
-15N-THT. THIẾT BỊ ĐÓNG MỞ
100
AcDbLine
 10
24.19999999999982
 20
29.29999999999564
 30
0.0
 11
24.19999999999982
 21
26.69999999999527
 31
0.0
  0
LINE
  5
AF
330
2F
100
AcDbEntity
  8
-15N-THT. THIẾT BỊ ĐÓNG MỞ
100
AcDbLine
 10
24.19999999999982
 20
26.69999999999527
 30
0.0
 11
24.19999999999982
 21
24.09999999999673
 31
0.0
  0
LINE
  5
B0
330
2F
100
AcDbEntity
  8
-15N-THT. THIẾT BỊ ĐÓNG MỞ
100
AcDbLine
 10
23.40000000000009
 20
29.29999999999564
 30
0.0
 11
23.40000000000009
 21
29.27633460559446
 31
0.0
  0
LINE
  5
B1
330
2F
100
AcDbEntity
  8
-15N-THT. THIẾT BỊ ĐÓNG MỞ
100
AcDbLine
 10
23.40000000000009
 20
29.27633460559446
 30
0.0
 11
22.19999999999982
 21
29.27633460559446
 31
0.0
  0
LINE
  5
B2
330
2F
100
AcDbEntity
  8
-15N-THT. THIẾT BỊ ĐÓNG MỞ
100
AcDbLine
 10
24.19999999999982
 20
26.69999999999527
 30
0.0
 11
22.19999999999982
 21
26.69999999999527
 31
0.0
  0
LINE
  5
B3
330
2F
100
AcDbEntity
  8
-15N-THT. THIẾT BỊ ĐÓNG MỞ
100
AcDbLine
 10
24.19999999999982
 20
26.69999999999527
 30
0.0
 11
22.19999999999982
 21
26.69999999999527
 31
0.0
  0
LINE
  5
B4
330
2F
100
AcDbEntity
  8
-15N-THT. THIẾT BỊ ĐÓNG MỞ
100
AcDbLine
 10
22.19999999999982
 20
29.27633460559446
 30
0.0
 11
22.19999999999982
 21
26.69999999999527
 31
0.0
  0
LINE
  5
B5
330
2F
100
AcDbEntity
  8
-15N-THT. THIẾT BỊ ĐÓNG MỞ
100
AcDbLine
 10
23.40000000000009
 20
29.27633460559446
 30
0.0
 11
22.19999999999982
 21
29.27633460559446
 31
0.0
  0
LINE
  5
B6
330
2F
100
AcDbEntity
  8
-15N-THT. THIẾT BỊ ĐÓNG MỞ
100
AcDbLine
 10
23.40000000000009
 20
29.27633460559446
 30
0.0
 11
23.40000000000009
 21
27.04999999999563
 31
0.0
  0
LINE
  5
B7
330
2F
100
AcDbEntity
  8
-15N-THT. THIẾT BỊ ĐÓNG MỞ
100
AcDbLine
 10
23.40000000000009
 20
27.04999999999563
 30
0.0
 11
23.40000000000009
 21
27.04999999999563
 31
0.0
  0
LINE
  5
B8
330
2F
100
AcDbEntity
  8
-15N-THT. THIẾT BỊ ĐÓNG MỞ
100
AcDbLine
 10
23.40000000000009
 20
27.04999999999563
 30
0.0
 11
23.40000000000009
 21
26.34999999999673
 31
0.0
  0
LINE
  5
B9
330
2F
100
AcDbEntity
  8
-15N-THT. THIẾT BỊ ĐÓNG MỞ
100
AcDbLine
 10
23.40000000000009
 20
26.34999999999673
 30
0.0
 11
23.40000000000009
 21
26.34999999999673
 31
0.0
  0
LINE
  5
BA
330
2F
100
AcDbEntity
  8
-15N-THT. THIẾT BỊ ĐÓNG MỞ
100
AcDbLine
 10
23.40000000000009
 20
26.34999999999673
 30
0.0
 11
23.40000000000009
 21
24.12366539439791
 31
0.0
  0
LINE
  5
BB
330
2F
100
AcDbEntity
  8
-15N-THT. THIẾT BỊ ĐÓNG MỞ
100
AcDbLine
 10
23.40000000000009
 20
24.12366539439791
 30
0.0
 11
23.40000000000009
 21
24.09999999999673
 31
0.0
  0
LINE
  5
BC
330
2F
100
AcDbEntity
  8
-15N-THT. THIẾT BỊ ĐÓNG MỞ
100
AcDbLine
 10
23.40000000000009
 20
26.34999999999673
 30
0.0
 11
23.40000000000009
 21
26.34999999999673
 31
0.0
  0
LINE
  5
BD
330
2F
100
AcDbEntity
  8
-15N-THT. THIẾT BỊ ĐÓNG MỞ
100
AcDbLine
 10
22.19999999999982
 20
27.04999999999563
 30
0.0
 11
22.19999999999982
 21
27.04999999999563
 31
0.0
  0
LINE
  5
BE
330
2F
100
AcDbEntity
  8
-15N-THT. THIẾT BỊ ĐÓNG MỞ
100
AcDbLine
 10
22.19999999999982
 20
26.69999999999527
 30
0.0
 11
22.19999999999982
 21
24.12366539439791
 31
0.0
  0
LINE
  5
BF
330
2F
100
AcDbEntity
  8
-15N-THT. THIẾT BỊ ĐÓNG MỞ
100
AcDbLine
 10
22.19999999999982
 20
26.34999999999673
 30
0.0
 11
22.19999999999982
 21
26.34999999999673
 31
0.0
  0
LINE
  5
C0
330
2F
100
AcDbEntity
  8
-15N-THT. THIẾT BỊ ĐÓNG MỞ
100
AcDbLine
 10
22.19999999999982
 20
26.34999999999673
 30
0.0
 11
22.19999999999982
 21
26.34999999999673
 31
0.0
  0
LINE
  5
C1
330
2F
100
AcDbEntity
  8
-15N-THT. THIẾT BỊ ĐÓNG MỞ
100
AcDbLine
 10
22.19999999999982
 20
26.34999999999673
 30
0.0
 11
23.40000000000009
 21
26.34999999999673
 31
0.0
  0
LINE
  5
C2
330
2F
100
AcDbEntity
  8
-15N-THT. THIẾT BỊ ĐÓNG MỞ
100
AcDbLine
 10
22.19999999999982
 20
27.04999999999563
 30
0.0
 11
23.40000000000009
 21
27.04999999999563
 31
0.0
  0
LINE
  5
C3
330
2F
100
AcDbEntity
  8
-15N-THT. THIẾT BỊ ĐÓNG MỞ
100
AcDbLine
 10
23.40000000000009
 20
24.12366539439791
 30
0.0
 11
22.19999999999982
 21
24.12366539439791
 31
0.0
  0
LINE
  5
C4
330
2F
100
AcDbEntity
  8
-15N-THT. THIẾT BỊ ĐÓNG MỞ
100
AcDbLine
 10
23.40000000000009
 20
24.12366539439791
 30
0.0
 11
22.19999999999982
 21
24.12366539439791
 31
0.0
  0
LINE
  5
C5
330
2F
100
AcDbEntity
  8
-15N-THT. THIẾT BỊ ĐÓNG MỞ
100
AcDbLine
 10
23.3999998800914
 20
29.29999999999564
 30
0.0
 11
24.19999911715149
 21
29.29999999999564
 31
0.0
  0
LINE
  5
C6
330
2F
100
AcDbEntity
  8
-15N-THT. THIẾT BỊ ĐÓNG MỞ
100
AcDbLine
 10
23.3999998800914
 20
24.09999876669644
 30
0.0
 11
24.19999911715149
 21
24.09999876669644
 31
0.0
  0
LINE
  5
C7
330
2F
100
AcDbEntity
  8
-15N-THT. THIẾT BỊ ĐÓNG MỞ
100
AcDbLine
 10
22.19999999999982
 20
-26.15000000000327
 30
0.0
 11
22.19999999999982
 21
-26.15000000000327
 31
0.0
  0
LINE
  5
C8
330
2F
100
AcDbEntity
  8
-15N-THT. THIẾT BỊ ĐÓNG MỞ
100
AcDbLine
 10
23.40000000000009
 20
-26.15000000000327
 30
0.0
 11
23.40000000000009
 21
-26.15000000000327
 31
0.0
  0
LINE
  5
C9
330
2F
100
AcDbEntity
  8
-15N-THT. THIẾT BỊ ĐÓNG MỞ
100
AcDbLine
 10
24.19999999999982
 20
-23.90000000000327
 30
0.0
 11
24.19999999999982
 21
-26.50000000000364
 31
0.0
  0
LINE
  5
CA
330
2F
100
AcDbEntity
  8
-15N-THT. THIẾT BỊ ĐÓNG MỞ
100
AcDbLine
 10
24.19999999999982
 20
-26.50000000000364
 30
0.0
 11
24.19999999999982
 21
-29.100000000004
 31
0.0
  0
LINE
  5
CB
330
2F
100
AcDbEntity
  8
-15N-THT. THIẾT BỊ ĐÓNG MỞ
100
AcDbLine
 10
23.40000000000009
 20
-23.90000000000327
 30
0.0
 11
23.40000000000009
 21
-23.92366539440627
 31
0.0
  0
LINE
  5
CC
330
2F
100
AcDbEntity
  8
-15N-THT. THIẾT BỊ ĐÓNG MỞ
100
AcDbLine
 10
23.40000000000009
 20
-23.92366539440627
 30
0.0
 11
22.19999999999982
 21
-23.92366539440627
 31
0.0
  0
LINE
  5
CD
330
2F
100
AcDbEntity
  8
-15N-THT. THIẾT BỊ ĐÓNG MỞ
100
AcDbLine
 10
24.19999999999982
 20
-26.50000000000364
 30
0.0
 11
22.19999999999982
 21
-26.50000000000364
 31
0.0
  0
LINE
  5
CE
330
2F
100
AcDbEntity
  8
-15N-THT. THIẾT BỊ ĐÓNG MỞ
100
AcDbLine
 10
24.19999999999982
 20
-26.50000000000364
 30
0.0
 11
22.19999999999982
 21
-26.50000000000364
 31
0.0
  0
LINE
  5
CF
330
2F
100
AcDbEntity
  8
-15N-THT. THIẾT BỊ ĐÓNG MỞ
100
AcDbLine
 10
22.19999999999982
 20
-23.92366539440627
 30
0.0
 11
22.19999999999982
 21
-26.50000000000364
 31
0.0
  0
LINE
  5
D0
330
2F
100
AcDbEntity
  8
-15N-THT. THIẾT BỊ ĐÓNG MỞ
100
AcDbLine
 10
23.40000000000009
 20
-23.92366539440627
 30
0.0
 11
22.19999999999982
 21
-23.92366539440627
 31
0.0
  0
LINE
  5
D1
330
2F
100
AcDbEntity
  8
-15N-THT. THIẾT BỊ ĐÓNG MỞ
100
AcDbLine
 10
23.40000000000009
 20
-23.92366539440627
 30
0.0
 11
23.40000000000009
 21
-26.15000000000327
 31
0.0
  0
LINE
  5
D2
330
2F
100
AcDbEntity
  8
-15N-THT. THIẾT BỊ ĐÓNG MỞ
100
AcDbLine
 10
23.40000000000009
 20
-26.15000000000327
 30
0.0
 11
23.40000000000009
 21
-26.15000000000327
 31
0.0
  0
LINE
  5
D3
330
2F
100
AcDbEntity
  8
-15N-THT. THIẾT BỊ ĐÓNG MỞ
100
AcDbLine
 10
23.40000000000009
 20
-26.15000000000327
 30
0.0
 11
23.40000000000009
 21
-26.850000000004
 31
0.0
  0
LINE
  5
D4
330
2F
100
AcDbEntity
  8
-15N-THT. THIẾT BỊ ĐÓNG MỞ
100
AcDbLine
 10
23.40000000000009
 20
-26.850000000004
 30
0.0
 11
23.40000000000009
 21
-26.850000000004
 31
0.0
  0
LINE
  5
D5
330
2F
100
AcDbEntity
  8
-15N-THT. THIẾT BỊ ĐÓNG MỞ
100
AcDbLine
 10
23.40000000000009
 20
-26.850000000004
 30
0.0
 11
23.40000000000009
 21
-29.07633460560101
 31
0.0
  0
LINE
  5
D6
330
2F
100
AcDbEntity
  8
-15N-THT. THIẾT BỊ ĐÓNG MỞ
100
AcDbLine
 10
23.40000000000009
 20
-29.07633460560101
 30
0.0
 11
23.40000000000009
 21
-29.100000000004
 31
0.0
  0
LINE
  5
D7
330
2F
100
AcDbEntity
  8
-15N-THT. THIẾT BỊ ĐÓNG MỞ
100
AcDbLine
 10
23.40000000000009
 20
-26.850000000004
 30
0.0
 11
23.40000000000009
 21
-26.850000000004
 31
0.0
  0
LINE
  5
D8
330
2F
100
AcDbEntity
  8
-15N-THT. THIẾT BỊ ĐÓNG MỞ
100
AcDbLine
 10
22.19999999999982
 20
-26.15000000000327
 30
0.0
 11
22.19999999999982
 21
-26.15000000000327
 31
0.0
  0
LINE
  5
D9
330
2F
100
AcDbEntity
  8
-15N-THT. THIẾT BỊ ĐÓNG MỞ
100
AcDbLine
 10
22.19999999999982
 20
-26.50000000000364
 30
0.0
 11
22.19999999999982
 21
-29.07633460560101
 31
0.0
  0
LINE
  5
DA
330
2F
100
AcDbEntity
  8
-15N-THT. THIẾT BỊ ĐÓNG MỞ
100
AcDbLine
 10
22.19999999999982
 20
-26.850000000004
 30
0.0
 11
22.19999999999982
 21
-26.850000000004
 31
0.0
  0
LINE
  5
DB
330
2F
100
AcDbEntity
  8
-15N-THT. THIẾT BỊ ĐÓNG MỞ
100
AcDbLine
 10
22.19999999999982
 20
-26.850000000004
 30
0.0
 11
22.19999999999982
 21
-26.850000000004
 31
0.0
  0
LINE
  5
DC
330
2F
100
AcDbEntity
  8
-15N-THT. THIẾT BỊ ĐÓNG MỞ
100
AcDbLine
 10
22.19999999999982
 20
-26.850000000004
 30
0.0
 11
23.40000000000009
 21
-26.850000000004
 31
0.0
  0
LINE
  5
DD
330
2F
100
AcDbEntity
  8
-15N-THT. THIẾT BỊ ĐÓNG MỞ
100
AcDbLine
 10
22.19999999999982
 20
-26.15000000000327
 30
0.0
 11
23.40000000000009
 21
-26.15000000000327
 31
0.0
  0
LINE
  5
DE
330
2F
100
AcDbEntity
  8
-15N-THT. THIẾT BỊ ĐÓNG MỞ
100
AcDbLine
 10
23.40000000000009
 20
-29.07633460560101
 30
0.0
 11
22.19999999999982
 21
-29.07633460560101
 31
0.0
  0
LINE
  5
DF
330
2F
100
AcDbEntity
  8
-15N-THT. THIẾT BỊ ĐÓNG MỞ
100
AcDbLine
 10
23.40000000000009
 20
-29.07633460560101
 30
0.0
 11
22.19999999999982
 21
-29.07633460560101
 31
0.0
  0
LINE
  5
E0
330
2F
100
AcDbEntity
  8
-15N-THT. THIẾT BỊ ĐÓNG MỞ
100
AcDbLine
 10
23.3999998800914
 20
-23.90000000000327
 30
0.0
 11
24.19999911715149
 21
-23.90000000000327
 31
0.0
  0
LINE
  5
E1
330
2F
100
AcDbEntity
  8
-15N-THT. THIẾT BỊ ĐÓNG MỞ
100
AcDbLine
 10
23.3999998800914
 20
-29.10000008889438
 30
0.0
 11
24.19999911715149
 21
-29.10000008889438
 31
0.0
  0
LINE
  5
E2
330
2F
100
AcDbEntity
  8
-15N-THT. THIẾT BỊ ĐÓNG MỞ
100
AcDbLine
 10
40.24097528578567
 20
-36.17641854862268
 30
0.0
 11
40.24097528578567
 21
-36.17641854862268
 31
0.0
  0
LINE
  5
E3
330
2F
100
AcDbEntity
  8
-15N-THT. THIẾT BỊ ĐÓNG MỞ
100
AcDbLine
 10
41.40008627733277
 20
-35.86583569449977
 30
0.0
 11
41.40008627733277
 21
-35.86583569449977
 31
0.0
  0
LINE
  5
E4
330
2F
100
AcDbEntity
  8
-15N-THT. THIẾT BỊ ĐÓNG MỞ
100
AcDbLine
 10
40.82421390197987
 20
-33.71665073100667
 30
0.0
 11
40.83039897763319
 21
-33.73973374759407
 31
0.0
  0
LINE
  5
E5
330
2F
100
AcDbEntity
  8
-15N-THT. THIẾT BỊ ĐÓNG MỞ
100
AcDbLine
 10
40.83039897763365
 20
-33.73973374759407
 30
0.0
 11
39.67128798608655
 21
-34.05031660171881
 31
0.0
  0
LINE
  5
E6
330
2F
100
AcDbEntity
  8
-15N-THT. THIẾT BỊ ĐÓNG MỞ
100
AcDbLine
 10
42.26341360414972
 20
-35.99685449761819
 30
0.0
 11
40.33156195157153
 21
-36.51449258782304
 31
0.0
  0
LINE
  5
E7
330
2F
100
AcDbEntity
  8
-15N-THT. THIẾT BỊ ĐÓNG MỞ
100
AcDbLine
 10
42.26341360414972
 20
-35.99685449761819
 30
0.0
 11
40.33156195157153
 21
-36.51449258782304
 31
0.0
  0
LINE
  5
E8
330
2F
100
AcDbEntity
  8
-15N-THT. THIẾT BỊ ĐÓNG MỞ
100
AcDbLine
 10
40.83039897763365
 20
-33.73973374759407
 30
0.0
 11
39.67128798608655
 21
-34.05031660171881
 31
0.0
  0
LINE
  5
E9
330
2F
100
AcDbEntity
  8
-15N-THT. THIẾT BỊ ĐÓNG MỞ
100
AcDbLine
 10
40.83039897763365
 20
-33.73973374759407
 30
0.0
 11
41.40008627733277
 21
-35.86583569449977
 31
0.0
  0
LINE
  5
EA
330
2F
100
AcDbEntity
  8
-15N-THT. THIẾT BỊ ĐÓNG MỞ
100
AcDbLine
 10
41.40008627733277
 20
-35.86583569449977
 30
0.0
 11
41.40008627733277
 21
-35.86583569449977
 31
0.0
  0
LINE
  5
EB
330
2F
100
AcDbEntity
  8
-15N-THT. THIẾT BỊ ĐÓNG MỞ
100
AcDbLine
 10
41.40008627733277
 20
-35.86583569449977
 30
0.0
 11
41.58125960890447
 21
-36.54198377290232
 31
0.0
  0
LINE
  5
EC
330
2F
100
AcDbEntity
  8
-15N-THT. THIẾT BỊ ĐÓNG MỞ
100
AcDbLine
 10
41.58125960890447
 20
-36.54198377290232
 30
0.0
 11
41.58125960890447
 21
-36.54198377290232
 31
0.0
  0
LINE
  5
ED
330
2F
100
AcDbEntity
  8
-15N-THT. THIẾT BỊ ĐÓNG MỞ
100
AcDbLine
 10
41.58125960890447
 20
-36.54198377290232
 30
0.0
 11
42.1509469086036
 21
-38.66808571980619
 31
0.0
  0
LINE
  5
EE
330
2F
100
AcDbEntity
  8
-15N-THT. THIẾT BỊ ĐÓNG MỞ
100
AcDbLine
 10
42.15713198425738
 20
-38.69116873639541
 30
0.0
 11
42.15094690860405
 21
-38.66808571980619
 31
0.0
  0
LINE
  5
EF
330
2F
100
AcDbEntity
  8
-15N-THT. THIẾT BỊ ĐÓNG MỞ
100
AcDbLine
 10
41.58125960890447
 20
-36.54198377290232
 30
0.0
 11
41.58125960890447
 21
-36.54198377290232
 31
0.0
  0
LINE
  5
F0
330
2F
100
AcDbEntity
  8
-15N-THT. THIẾT BỊ ĐÓNG MỞ
100
AcDbLine
 10
40.24097528578567
 20
-36.17641854862268
 30
0.0
 11
40.24097528578567
 21
-36.17641854862268
 31
0.0
  0
LINE
  5
F1
330
2F
100
AcDbEntity
  8
-15N-THT. THIẾT BỊ ĐÓNG MỞ
100
AcDbLine
 10
40.42214861735783
 20
-36.85256662702523
 30
0.0
 11
40.42214861735783
 21
-36.85256662702523
 31
0.0
  0
LINE
  5
F2
330
2F
100
AcDbEntity
  8
-15N-THT. THIẾT BỊ ĐÓNG MỞ
100
AcDbLine
 10
40.42214861735783
 20
-36.85256662702523
 30
0.0
 11
40.42214861735783
 21
-36.85256662702523
 31
0.0
  0
LINE
  5
F3
330
2F
100
AcDbEntity
  8
-15N-THT. THIẾT BỊ ĐÓNG MỞ
100
AcDbLine
 10
40.42214861735783
 20
-36.85256662702523
 30
0.0
 11
41.58125960890447
 21
-36.54198377290232
 31
0.0
  0
LINE
  5
F4
330
2F
100
AcDbEntity
  8
-15N-THT. THIẾT BỊ ĐÓNG MỞ
100
AcDbLine
 10
40.24097528578567
 20
-36.17641854862268
 30
0.0
 11
41.40008627733277
 21
-35.86583569449977
 31
0.0
  0
LINE
  5
F5
330
2F
100
AcDbEntity
  8
-15N-THT. THIẾT BỊ ĐÓNG MỞ
100
AcDbLine
 10
42.1509469086036
 20
-38.66808571980619
 30
0.0
 11
40.99183591705696
 21
-38.9786685739291
 31
0.0
  0
LINE
  5
F6
330
2F
100
AcDbEntity
  8
-15N-THT. THIẾT BỊ ĐÓNG MỞ
100
AcDbLine
 10
42.1509469086036
 20
-38.66808571980619
 30
0.0
 11
40.99183591705696
 21
-38.9786685739291
 31
0.0
  0
LINE
  5
F7
330
2F
100
AcDbEntity
  8
-15N-THT. THIẾT BỊ ĐÓNG MỞ
100
AcDbLine
 10
40.82421512531072
 20
-33.71665040321568
 30
0.0
 11
41.59695458343139
 21
-33.50959548945321
 31
0.0
  0
LINE
  5
F8
330
2F
100
AcDbEntity
  8
-15N-THT. THIẾT BỊ ĐÓNG MỞ
100
AcDbLine
 10
42.15713145662903
 20
-38.69116896935702
 30
0.0
 11
42.92987086702988
 21
-38.48411340066196
 31
0.0
  0
LINE
  5
F9
330
2F
100
AcDbEntity
  8
-15N-THT. THIẾT BỊ ĐÓNG MỞ
100
AcDbLine
 10
40.24533677501176
 20
36.3926958480206
 30
0.0
 11
40.91179581615051
 21
38.87995485071588
 31
0.0
  0
LINE
  5
FA
330
2F
100
AcDbEntity
  8
-15N-THT. THIẾT BỊ ĐÓNG MỞ
100
AcDbLine
 10
39.57887773387256
 20
33.90543684532713
 30
0.0
 11
40.24533677501176
 21
36.3926958480206
 31
0.0
  0
LINE
  5
FB
330
2F
100
AcDbEntity
  8
-15N-THT. THIẾT BỊ ĐÓNG MỞ
100
AcDbLine
 10
42.17718842758995
 20
35.87505775781574
 30
0.0
 11
42.8436474687287
 21
38.36231676051102
 31
0.0
  0
LINE
  5
FC
330
2F
100
AcDbEntity
  8
-15N-THT. THIẾT BỊ ĐÓNG MỞ
100
AcDbLine
 10
41.5107293864512
 20
33.38779875512228
 30
0.0
 11
42.17718842758995
 21
35.87505775781574
 31
0.0
  0
LINE
  5
FD
330
2F
100
AcDbEntity
  8
-15N-THT. THIẾT BỊ ĐÓNG MỞ
100
AcDbLine
 10
42.17718842758995
 20
35.87505775781574
 30
0.0
 11
40.24533677501176
 21
36.3926958480206
 31
0.0
  0
LINE
  5
FE
330
2F
100
AcDbEntity
  8
-15N-THT. THIẾT BỊ ĐÓNG MỞ
100
AcDbLine
 10
42.17718842758995
 20
35.87505775781574
 30
0.0
 11
40.24533677501176
 21
36.3926958480206
 31
0.0
  0
LINE
  5
FF
330
2F
100
AcDbEntity
  8
-15N-THT. THIẾT BỊ ĐÓNG MỞ
100
AcDbLine
 10
40.91179753364985
 20
38.87995439051337
 30
0.0
 11
42.84364640881131
 21
38.3623170445153
 31
0.0
  0
LINE
  5
100
330
2F
100
AcDbEntity
  8
-15N-THT. THIẾT BỊ ĐÓNG MỞ
100
AcDbLine
 10
39.578876756922
 20
33.90543394736051
 30
0.0
 11
41.51073100496932
 21
33.38780241659879
 31
0.0
  0
LINE
  5
101
330
2F
100
AcDbEntity
  8
-15N-THT. THIẾT BỊ ĐÓNG MỞ
100
AcDbLine
 10
40.33592344079761
 20
36.73076988722278
 30
0.0
 11
40.33592344079761
 21
36.73076988722278
 31
0.0
  0
LINE
  5
102
330
2F
100
AcDbEntity
  8
-15N-THT. THIẾT BỊ ĐÓNG MỞ
100
AcDbLine
 10
41.49503443234471
 20
36.42018703309986
 30
0.0
 11
41.49503443234471
 21
36.42018703309986
 31
0.0
  0
LINE
  5
103
330
2F
100
AcDbEntity
  8
-15N-THT. THIẾT BỊ ĐÓNG MỞ
100
AcDbLine
 10
42.06472173204383
 20
38.54628898000374
 30
0.0
 11
42.07090680769761
 21
38.56937199659297
 31
0.0
  0
LINE
  5
104
330
2F
100
AcDbEntity
  8
-15N-THT. THIẾT BỊ ĐÓNG MỞ
100
AcDbLine
 10
42.06472173204383
 20
38.54628898000374
 30
0.0
 11
40.90561074049674
 21
38.85687183412665
 31
0.0
  0
LINE
  5
105
330
2F
100
AcDbEntity
  8
-15N-THT. THIẾT BỊ ĐÓNG MỞ
100
AcDbLine
 10
42.17718842758995
 20
35.87505775781574
 30
0.0
 11
40.24533677501176
 21
36.3926958480206
 31
0.0
  0
LINE
  5
106
330
2F
100
AcDbEntity
  8
-15N-THT. THIẾT BỊ ĐÓNG MỞ
100
AcDbLine
 10
42.17718842758995
 20
35.87505775781574
 30
0.0
 11
40.24533677501176
 21
36.3926958480206
 31
0.0
  0
LINE
  5
107
330
2F
100
AcDbEntity
  8
-15N-THT. THIẾT BỊ ĐÓNG MỞ
100
AcDbLine
 10
42.06472173204383
 20
38.54628898000374
 30
0.0
 11
40.90561074049674
 21
38.85687183412665
 31
0.0
  0
LINE
  5
108
330
2F
100
AcDbEntity
  8
-15N-THT. THIẾT BỊ ĐÓNG MỞ
100
AcDbLine
 10
42.06472173204383
 20
38.54628898000374
 30
0.0
 11
41.49503443234471
 21
36.42018703309986
 31
0.0
  0
LINE
  5
109
330
2F
100
AcDbEntity
  8
-15N-THT. THIẾT BỊ ĐÓNG MỞ
100
AcDbLine
 10
41.49503443234471
 20
36.42018703309986
 30
0.0
 11
41.49503443234471
 21
36.42018703309986
 31
0.0
  0
LINE
  5
10A
330
2F
100
AcDbEntity
  8
-15N-THT. THIẾT BỊ ĐÓNG MỞ
100
AcDbLine
 10
41.49503443234471
 20
36.42018703309986
 30
0.0
 11
41.31386110077301
 21
35.74403895469732
 31
0.0
  0
LINE
  5
10B
330
2F
100
AcDbEntity
  8
-15N-THT. THIẾT BỊ ĐÓNG MỞ
100
AcDbLine
 10
41.31386110077301
 20
35.74403895469732
 30
0.0
 11
41.31386110077301
 21
35.74403895469732
 31
0.0
  0
LINE
  5
10C
330
2F
100
AcDbEntity
  8
-15N-THT. THIẾT BỊ ĐÓNG MỞ
100
AcDbLine
 10
41.31386110077301
 20
35.74403895469732
 30
0.0
 11
40.74417380107343
 21
33.61793700779163
 31
0.0
  0
LINE
  5
10D
330
2F
100
AcDbEntity
  8
-15N-THT. THIẾT BỊ ĐÓNG MỞ
100
AcDbLine
 10
40.73798872541965
 20
33.59485399120422
 30
0.0
 11
40.74417380107343
 21
33.61793700779163
 31
0.0
  0
LINE
  5
10E
330
2F
100
AcDbEntity
  8
-15N-THT. THIẾT BỊ ĐÓNG MỞ
100
AcDbLine
 10
41.31386110077301
 20
35.74403895469732
 30
0.0
 11
41.31386110077301
 21
35.74403895469732
 31
0.0
  0
LINE
  5
10F
330
2F
100
AcDbEntity
  8
-15N-THT. THIẾT BỊ ĐÓNG MỞ
100
AcDbLine
 10
40.33592344079761
 20
36.73076988722278
 30
0.0
 11
40.33592344079761
 21
36.73076988722278
 31
0.0
  0
LINE
  5
110
330
2F
100
AcDbEntity
  8
-15N-THT. THIẾT BỊ ĐÓNG MỞ
100
AcDbLine
 10
40.15475010922592
 20
36.05462180882023
 30
0.0
 11
40.15475010922592
 21
36.05462180882023
 31
0.0
  0
LINE
  5
111
330
2F
100
AcDbEntity
  8
-15N-THT. THIẾT BỊ ĐÓNG MỞ
100
AcDbLine
 10
40.15475010922592
 20
36.05462180882023
 30
0.0
 11
40.15475010922592
 21
36.05462180882023
 31
0.0
  0
LINE
  5
112
330
2F
100
AcDbEntity
  8
-15N-THT. THIẾT BỊ ĐÓNG MỞ
100
AcDbLine
 10
40.15475010922592
 20
36.05462180882023
 30
0.0
 11
41.31386110077301
 21
35.74403895469732
 31
0.0
  0
LINE
  5
113
330
2F
100
AcDbEntity
  8
-15N-THT. THIẾT BỊ ĐÓNG MỞ
100
AcDbLine
 10
40.33592344079761
 20
36.73076988722278
 30
0.0
 11
41.49503443234471
 21
36.42018703309986
 31
0.0
  0
LINE
  5
114
330
2F
100
AcDbEntity
  8
-15N-THT. THIẾT BỊ ĐÓNG MỞ
100
AcDbLine
 10
40.74417380107343
 20
33.61793700779163
 30
0.0
 11
39.58506280952679
 21
33.92851986191454
 31
0.0
  0
LINE
  5
115
330
2F
100
AcDbEntity
  8
-15N-THT. THIẾT BỊ ĐÓNG MỞ
100
AcDbLine
 10
40.74417380107343
 20
33.61793700779163
 30
0.0
 11
39.58506280952679
 21
33.92851986191454
 31
0.0
  0
LINE
  5
116
330
2F
100
AcDbEntity
  8
-15N-THT. THIẾT BỊ ĐÓNG MỞ
100
AcDbLine
 10
42.07090718910921
 20
38.56937189439305
 30
0.0
 11
42.84364640881131
 21
38.3623170445153
 31
0.0
  0
LINE
  5
117
330
2F
100
AcDbEntity
  8
-15N-THT. THIẾT BỊ ĐÓNG MỞ
100
AcDbLine
 10
40.73798777987167
 20
33.59485655478238
 30
0.0
 11
41.51073100496932
 21
33.38780241659879
 31
0.0
  0
LINE
  5
118
330
2F
100
AcDbEntity
  8
-15N-THT. THIẾT BỊ ĐÓNG MỞ
100
AcDbLine
 10
39.66510291043278
 20
-34.02723358512958
 30
0.0
 11
40.33156195157153
 21
-36.51449258782304
 31
0.0
  0
LINE
  5
119
330
2F
100
AcDbEntity
  8
-15N-THT. THIẾT BỊ ĐÓNG MỞ
100
AcDbLine
 10
40.33156195157153
 20
-36.51449258782304
 30
0.0
 11
40.99802099271073
 21
-39.00175159051832
 31
0.0
  0
LINE
  5
11A
330
2F
100
AcDbEntity
  8
-15N-THT. THIẾT BỊ ĐÓNG MỞ
100
AcDbLine
 10
41.59695456301096
 20
-33.50959549492472
 30
0.0
 11
42.26341360414972
 21
-35.99685449761819
 31
0.0
  0
LINE
  5
11B
330
2F
100
AcDbEntity
  8
-15N-THT. THIẾT BỊ ĐÓNG MỞ
100
AcDbLine
 10
42.26341360414972
 20
-35.99685449761819
 30
0.0
 11
42.92987264528892
 21
-38.48411350031347
 31
0.0
  0
LINE
  5
11C
330
2F
100
AcDbEntity
  8
-15N-THT. THIẾT BỊ ĐÓNG MỞ
100
AcDbLine
 10
42.26341360414972
 20
-35.99685449761819
 30
0.0
 11
40.33156195157153
 21
-36.51449258782304
 31
0.0
  0
LINE
  5
11D
330
2F
100
AcDbEntity
  8
-15N-THT. THIẾT BỊ ĐÓNG MỞ
100
AcDbLine
 10
42.26341360414972
 20
-35.99685449761819
 30
0.0
 11
40.33156195157153
 21
-36.51449258782304
 31
0.0
  0
LINE
  5
11E
330
2F
100
AcDbEntity
  8
-15N-THT. THIẾT BỊ ĐÓNG MỞ
100
AcDbLine
 10
39.6651040393399
 20
-34.02723328263892
 30
0.0
 11
41.59695458343139
 21
-33.50959548945321
 31
0.0
  0
LINE
  5
11F
330
2F
100
AcDbEntity
  8
-15N-THT. THIẾT BỊ ĐÓNG MỞ
100
AcDbLine
 10
40.99802043368026
 20
-39.00175160714389
 30
0.0
 11
42.92987086702988
 21
-38.48411340066196
 31
0.0
  0
LINE
  5
120
330
2F
100
AcDbEntity
  8
-15N-THT. THIẾT BỊ ĐÓNG MỞ
  6
DASHED
 62
6
100
AcDbLine
 10
0.0
 20
0.0
 30
0.0
 11
66.0
 21
-1.819e-12
 31
0.0
  0
LINE
  5
121
330
2F
100
AcDbEntity
  8
-15N-THT. THIẾT BỊ ĐÓNG MỞ
100
AcDbLine
 10
66.0
 20
-17.80000000000473
 30
0.0
 11
66.0
 21
-40.30000000000472
 31
0.0
  0
LINE
  5
122
330
2F
100
AcDbEntity
  8
-15N-THT. THIẾT BỊ ĐÓNG MỞ
 62
1
100
AcDbLine
 10
9.2e-14
 20
-22.50000000000046
 30
0.0
 11
-1.024e-13
 21
22.49999999999954
 31
0.0
  0
LINE
  5
123
330
2F
100
AcDbEntity
  8
-15N-THT. THIẾT BỊ ĐÓNG MỞ
100
AcDbLine
 10
-1.87767388469258
 20
-22.50000000000046
 30
0.0
 11
16.71697482458627
 21
-22.50000000000046
 31
0.0
  0
LINE
  5
124
330
2F
100
AcDbEntity
  8
-15N-THT. THIẾT BỊ ĐÓNG MỞ
100
AcDbLine
 10
-2.909226959455331
 20
22.49999999999954
 30
0.0
 11
16.70008393102819
 21
22.49999999999954
 31
0.0
  0
ENDBLK
  5
31
330
2F
100
AcDbEntity
  8
0
100
AcDbBlockEnd
  0
ENDSEC
  0
SECTION
  2
ENTITIES
  0
INSERT
  5
127
330
17
100
AcDbEntity
  8
0
100
AcDbBlockReference
  2
06 - N - SC CTT CHIẾU HÔNG 1P A9C20731
 10
4.005698833133546
 20
42.80000000000472
 30
0.0
  0
ENDSEC
  0
SECTION
  2
OBJECTS
  0
DICTIONARY
  5
A
330
0
100
AcDbDictionary
281
1
  3
ACAD_COLOR
350
B
  3
ACAD_GROUP
350
C
  3
ACAD_LAYOUT
350
D
  3
ACAD_MATERIAL
350
E
  3
ACAD_MLEADERSTYLE
350
F
  3
ACAD_MLINESTYLE
350
10
  3
ACAD_PLOTSETTINGS
350
11
  3
ACAD_PLOTSTYLENAME
350
12
  3
ACAD_SCALELIST
350
14
  3
ACAD_TABLESTYLE
350
15
  3
ACAD_VISUALSTYLE
350
16
  3
EZDXF_META
350
2D
  0
DICTIONARY
  5
B
330
A
100
AcDbDictionary
281
1
  0
DICTIONARY
  5
C
330
A
100
AcDbDictionary
281
1
  0
DICTIONARY
  5
D
330
A
100
AcDbDictionary
281
1
  3
Model
350
1A
  3
Layout1
350
1E
  0
DICTIONARY
  5
E
330
A
100
AcDbDictionary
281
1
  3
ByBlock
350
1F
  3
ByLayer
350
20
  3
Global
350
21
  0
DICTIONARY
  5
F
330
A
100
AcDbDictionary
281
1
  3
Standard
350
2C
  0
DICTIONARY
  5
10
330
A
100
AcDbDictionary
281
1
  3
Standard
350
22
  0
DICTIONARY
  5
11
330
A
100
AcDbDictionary
281
1
  0
ACDBDICTIONARYWDFLT
  5
12
330
A
100
AcDbDictionary
281
1
  3
Normal
350
13
100
AcDbDictionaryWithDefault
340
13
  0
ACDBPLACEHOLDER
  5
13
330
12
  0
DICTIONARY
  5
14
330
A
100
AcDbDictionary
281
1
  0
DICTIONARY
  5
15
330
A
100
AcDbDictionary
281
1
  0
DICTIONARY
  5
16
330
A
100
AcDbDictionary
281
1
  0
LAYOUT
  5
1A
330
D
100
AcDbPlotSettings
  1

  4
A3
  6

 40
7.5
 41
20.0
 42
7.5
 43
20.0
 44
420.0
 45
297.0
 46
0.0
 47
0.0
 48
0.0
 49
0.0
140
0.0
141
0.0
142
1.0
143
1.0
 70
1024
 72
1
 73
0
 74
5
  7

 75
16
 76
0
 77
2
 78
300
147
1.0
148
0.0
149
0.0
100
AcDbLayout
  1
Model
 70
1
 71
0
 10
0.0
 20
0.0
 11
420.0
 21
297.0
 12
0.0
 22
0.0
 32
0.0
 14
1e+20
 24
1e+20
 34
1e+20
 15
-1e+20
 25
-1e+20
 35
-1e+20
146
0.0
 13
0.0
 23
0.0
 33
0.0
 16
1.0
 26
0.0
 36
0.0
 17
0.0
 27
1.0
 37
0.0
 76
1
330
17
  0
LAYOUT
  5
1E
330
D
100
AcDbPlotSettings
  1

  4
A3
  6

 40
7.5
 41
20.0
 42
7.5
 43
20.0
 44
420.0
 45
297.0
 46
0.0
 47
0.0
 48
0.0
 49
0.0
140
0.0
141
0.0
142
1.0
143
1.0
 70
0
 72
1
 73
0
 74
5
  7

 75
16
 76
0
 77
2
 78
300
147
1.0
148
0.0
149
0.0
100
AcDbLayout
  1
Layout1
 70
1
 71
1
 10
0.0
 20
0.0
 11
420.0
 21
297.0
 12
0.0
 22
0.0
 32
0.0
 14
1e+20
 24
1e+20
 34
1e+20
 15
-1e+20
 25
-1e+20
 35
-1e+20
146
0.0
 13
0.0
 23
0.0
 33
0.0
 16
1.0
 26
0.0
 36
0.0
 17
0.0
 27
1.0
 37
0.0
 76
1
330
1B
  0
MATERIAL
  5
1F
102
{ACAD_REACTORS
330
E
102
}
330
E
100
AcDbMaterial
  1
ByBlock
  2

 70
0
 40
1.0
 71
1
 41
1.0
 91
-1023410177
 42
1.0
 72
1
  3

 73
1
 74
1
 75
1
 44
0.5
 73
0
 45
1.0
 46
1.0
 77
1
  4

 78
1
 79
1
170
1
 48
1.0
171
1
  6

172
1
173
1
174
1
140
1.0
141
1.0
175
1
  7

176
1
177
1
178
1
143
1.0
179
1
  8

270
1
271
1
272
1
145
1.0
146
1.0
273
1
  9

274
1
275
1
276
1
 42
1.0
 72
1
  3

 73
1
 74
1
 75
1
 94
63
  0
MATERIAL
  5
20
102
{ACAD_REACTORS
330
E
102
}
330
E
100
AcDbMaterial
  1
ByLayer
  2

 70
0
 40
1.0
 71
1
 41
1.0
 91
-1023410177
 42
1.0
 72
1
  3

 73
1
 74
1
 75
1
 44
0.5
 73
0
 45
1.0
 46
1.0
 77
1
  4

 78
1
 79
1
170
1
 48
1.0
171
1
  6

172
1
173
1
174
1
140
1.0
141
1.0
175
1
  7

176
1
177
1
178
1
143
1.0
179
1
  8

270
1
271
1
272
1
145
1.0
146
1.0
273
1
  9

274
1
275
1
276
1
 42
1.0
 72
1
  3

 73
1
 74
1
 75
1
 94
63
  0
MATERIAL
  5
21
102
{ACAD_REACTORS
330
E
102
}
330
E
100
AcDbMaterial
  1
Global
  2

 70
0
 40
1.0
 71
1
 41
1.0
 91
-1023410177
 42
1.0
 72
1
  3

 73
1
 74
1
 75
1
 44
0.5
 73
0
 45
1.0
 46
1.0
 77
1
  4

 78
1
 79
1
170
1
 48
1.0
171
1
  6

172
1
173
1
174
1
140
1.0
141
1.0
175
1
  7

176
1
177
1
178
1
143
1.0
179
1
  8

270
1
271
1
272
1
145
1.0
146
1.0
273
1
  9

274
1
275
1
276
1
 42
1.0
 72
1
  3

 73
1
 74
1
 75
1
 94
63
  0
MLINESTYLE
  5
22
102
{ACAD_REACTORS
330
10
102
}
330
10
100
AcDbMlineStyle
  2
Standard
 70
0
  3

 62
256
 51
90.0
 52
90.0
 71
2
 49
0.5
 62
256
  6
BYLAYER
 49
-0.5
 62
256
  6
BYLAYER
  0
MLEADERSTYLE
  5
2C
102
{ACAD_REACTORS
330
F
102
}
330
F
100
AcDbMLeaderStyle
179
2
170
2
171
1
172
0
 90
2
 40
0.0
 41
0.0
173
1
 91
-1056964608
 92
-2
290
1
 42
2.0
291
1
 43
8.0
  3
Standard
 44
4.0
300

342
29
174
1
175
1
176
0
178
1
 93
-1056964608
 45
4.0
292
0
297
0
 46
4.0
 94
-1056964608
 47
1.0
 49
1.0
140
1.0
294
1
141
0.0
177
0
142
1.0
295
0
296
0
143
3.75
271
0
272
9
273
9
  0
DICTIONARY
  5
2D
330
A
100
AcDbDictionary
280
1
281
1
  3
CREATED_BY_EZDXF
350
2E
  3
WRITTEN_BY_EZDXF
350
12B
  0
DICTIONARYVAR
  5
2E
330
2D
100
DictionaryVariables
280
0
  1
1.4.4 @ 2026-09-23T12:53:24.652310+00:00
  0
DICTIONARYVAR
  5
12B
330
2D
100
DictionaryVariables
280
0
  1
1.4.4 @ 2026-09-23T12:53:24.703609+00:00
  0
ENDSEC
  0
EOF
