  0
SECTION
  2
HEADER
  9
$ACADVER
  1
AC1032
  9
$ACADMAINTVER
 90
4
  9
$DWGCODEPAGE
  3
ANSI_1252
  9
$LASTSAVEDBY
  1
ezdxf
  9
$REQUIREDVERSIONS
160
0
  9
$INSBASE
 10
0.0
 20
0.0
 30
0.0
  9
$EXTMIN
 10
1e+20
 20
1e+20
 30
1e+20
  9
$EXTMAX
 10
-1e+20
 20
-1e+20
 30
-1e+20
  9
$LIMMIN
 10
0.0
 20
0.0
  9
$LIMMAX
 10
420.0
 20
297.0
  9
$ORTHOMODE
 70
0
  9
$REGENMODE
 70
1
  9
$FILLMODE
 70
1
  9
$QTEXTMODE
 70
0
  9
$MIRRTEXT
 70
1
  9
$LTSCALE
 40
1.0
  9
$ATTMODE
 70
1
  9
$TEXTSIZE
 40
2.5
  9
$TRACEWID
 40
1.0
  9
$TEXTSTYLE
  7
Standard
  9
$CLAYER
  8
0
  9
$CELTYPE
  6
ByLayer
  9
$CECOLOR
 62
256
  9
$CELTSCALE
 40
1.0
  9
$DISPSILH
 70
0
  9
$DIMSCALE
 40
1.0
  9
$DIMASZ
 40
2.5
  9
$DIMEXO
 40
0.625
  9
$DIMDLI
 40
3.75
  9
$DIMRND
 40
0.0
  9
$DIMDLE
 40
0.0
  9
$DIMEXE
 40
1.25
  9
$DIMTP
 40
0.0
  9
$DIMTM
 40
0.0
  9
$DIMTXT
 40
2.5
  9
$DIMCEN
 40
2.5
  9
$DIMTSZ
 40
0.0
  9
$DIMTOL
 70
0
  9
$DIMLIM
 70
0
  9
$DIMTIH
 70
0
  9
$DIMTOH
 70
0
  9
$DIMSE1
 70
0
  9
$DIMSE2
 70
0
  9
$DIMTAD
 70
1
  9
$DIMZIN
 70
8
  9
$DIMBLK
  1

  9
$DIMASO
 70
1
  9
$DIMSHO
 70
1
  9
$DIMPOST
  1

  9
$DIMAPOST
  1

  9
$DIMALT
 70
0
  9
$DIMALTD
 70
3
  9
$DIMALTF
 40
0.03937007874
  9
$DIMLFAC
 40
1.0
  9
$DIMTOFL
 70
1
  9
$DIMTVP
 40
0.0
  9
$DIMTIX
 70
0
  9
$DIMSOXD
 70
0
  9
$DIMSAH
 70
0
  9
$DIMBLK1
  1

  9
$DIMBLK2
  1

  9
$DIMSTYLE
  2
ISO-25
  9
$DIMCLRD
 70
0
  9
$DIMCLRE
 70
0
  9
$DIMCLRT
 70
0
  9
$DIMTFAC
 40
1.0
  9
$DIMGAP
 40
0.625
  9
$DIMJUST
 70
0
  9
$DIMSD1
 70
0
  9
$DIMSD2
 70
0
  9
$DIMTOLJ
 70
0
  9
$DIMTZIN
 70
8
  9
$DIMALTZ
 70
0
  9
$DIMALTTZ
 70
0
  9
$DIMUPT
 70
0
  9
$DIMDEC
 70
2
  9
$DIMTDEC
 70
2
  9
$DIMALTU
 70
2
  9
$DIMALTTD
 70
3
  9
$DIMTXSTY
  7
Standard
  9
$DIMAUNIT
 70
0
  9
$DIMADEC
 70
0
  9
$DIMALTRND
 40
0.0
  9
$DIMAZIN
 70
0
  9
$DIMDSEP
 70
44
  9
$DIMATFIT
 70
3
  9
$DIMFRAC
 70
0
  9
$DIMLDRBLK
  1

  9
$DIMLUNIT
 70
2
  9
$DIMLWD
 70
-2
  9
$DIMLWE
 70
-2
  9
$DIMTMOVE
 70
0
  9
$DIMFXL
 40
1.0
  9
$DIMFXLON
 70
0
  9
$DIMJOGANG
 40
0.785398163397
  9
$DIMTFILL
 70
0
  9
$DIMTFILLCLR
 70
0
  9
$DIMARCSYM
 70
0
  9
$DIMLTYPE
  6

  9
$DIMLTEX1
  6

  9
$DIMLTEX2
  6

  9
$DIMTXTDIRECTION
 70
0
  9
$LUNITS
 70
2
  9
$LUPREC
 70
4
  9
$SKETCHINC
 40
1.0
  9
$FILLETRAD
 40
10.0
  9
$AUNITS
 70
0
  9
$AUPREC
 70
2
  9
$MENU
  1
.
  9
$ELEVATION
 40
0.0
  9
$PELEVATION
 40
0.0
  9
$THICKNESS
 40
0.0
  9
$LIMCHECK
 70
0
  9
$CHAMFERA
 40
0.0
  9
$CHAMFERB
 40
0.0
  9
$CHAMFERC
 40
0.0
  9
$CHAMFERD
 40
0.0
  9
$SKPOLY
 70
0
  9
$TDCREATE
 40
2461307.8295717593
  9
$TDUCREATE
 40
2458532.153996898
  9
$TDUPDATE
 40
2461307.8295717593
  9
$TDUUPDATE
 40
2458532.1544311
  9
$TDINDWG
 40
0.0
  9
$TDUSRTIMER
 40
0.0
  9
$USRTIMER
 70
1
  9
$ANGBASE
 50
0.0
  9
$ANGDIR
 70
0
  9
$PDMODE
 70
0
  9
$PDSIZE
 40
0.0
  9
$PLINEWID
 40
0.0
  9
$SPLFRAME
 70
0
  9
$SPLINETYPE
 70
6
  9
$SPLINESEGS
 70
8
  9
$HANDSEED
  5
139
  9
$SURFTAB1
 70
6
  9
$SURFTAB2
 70
6
  9
$SURFTYPE
 70
6
  9
$SURFU
 70
6
  9
$SURFV
 70
6
  9
$UCSBASE
  2

  9
$UCSNAME
  2

  9
$UCSORG
 10
0.0
 20
0.0
 30
0.0
  9
$UCSXDIR
 10
1.0
 20
0.0
 30
0.0
  9
$UCSYDIR
 10
0.0
 20
1.0
 30
0.0
  9
$UCSORTHOREF
  2

  9
$UCSORTHOVIEW
 70
0
  9
$UCSORGTOP
 10
0.0
 20
0.0
 30
0.0
  9
$UCSORGBOTTOM
 10
0.0
 20
0.0
 30
0.0
  9
$UCSORGLEFT
 10
0.0
 20
0.0
 30
0.0
  9
$UCSORGRIGHT
 10
0.0
 20
0.0
 30
0.0
  9
$UCSORGFRONT
 10
0.0
 20
0.0
 30
0.0
  9
$UCSORGBACK
 10
0.0
 20
0.0
 30
0.0
  9
$PUCSBASE
  2

  9
$PUCSNAME
  2

  9
$PUCSORG
 10
0.0
 20
0.0
 30
0.0
  9
$PUCSXDIR
 10
1.0
 20
0.0
 30
0.0
  9
$PUCSYDIR
 10
0.0
 20
1.0
 30
0.0
  9
$PUCSORTHOREF
  2

  9
$PUCSORTHOVIEW
 70
0
  9
$PUCSORGTOP
 10
0.0
 20
0.0
 30
0.0
  9
$PUCSORGBOTTOM
 10
0.0
 20
0.0
 30
0.0
  9
$PUCSORGLEFT
 10
0.0
 20
0.0
 30
0.0
  9
$PUCSORGRIGHT
 10
0.0
 20
0.0
 30
0.0
  9
$PUCSORGFRONT
 10
0.0
 20
0.0
 30
0.0
  9
$PUCSORGBACK
 10
0.0
 20
0.0
 30
0.0
  9
$USERI1
 70
0
  9
$USERI2
 70
0
  9
$USERI3
 70
0
  9
$USERI4
 70
0
  9
$USERI5
 70
0
  9
$USERR1
 40
0.0
  9
$USERR2
 40
0.0
  9
$USERR3
 40
0.0
  9
$USERR4
 40
0.0
  9
$USERR5
 40
0.0
  9
$WORLDVIEW
 70
1
  9
$SHADEDGE
 70
3
  9
$SHADEDIF
 70
70
  9
$TILEMODE
 70
1
  9
$MAXACTVP
 70
64
  9
$PINSBASE
 10
0.0
 20
0.0
 30
0.0
  9
$PLIMCHECK
 70
0
  9
$PEXTMIN
 10
1e+20
 20
1e+20
 30
1e+20
  9
$PEXTMAX
 10
-1e+20
 20
-1e+20
 30
-1e+20
  9
$PLIMMIN
 10
0.0
 20
0.0
  9
$PLIMMAX
 10
420.0
 20
297.0
  9
$UNITMODE
 70
0
  9
$VISRETAIN
 70
1
  9
$PLINEGEN
 70
0
  9
$PSLTSCALE
 70
1
  9
$TREEDEPTH
 70
3020
  9
$CMLSTYLE
  2
Standard
  9
$CMLJUST
 70
0
  9
$CMLSCALE
 40
20.0
  9
$PROXYGRAPHICS
 70
1
  9
$MEASUREMENT
 70
1
  9
$CELWEIGHT
370
-1
  9
$ENDCAPS
280
0
  9
$JOINSTYLE
280
0
  9
$LWDISPLAY
290
0
  9
$INSUNITS
 70
0
  9
$HYPERLINKBASE
  1

  9
$STYLESHEET
  1

  9
$XEDIT
290
1
  9
$CEPSNTYPE
380
0
  9
$PSTYLEMODE
290
1
  9
$FINGERPRINTGUID
  2
{C73B8975-B8AF-4319-85F1-26177374614D}
  9
$VERSIONGUID
  2
{EEBA15C3-9CDB-42BC-88FF-887A3C453228}
  9
$EXTNAMES
290
1
  9
$PSVPSCALE
 40
0.0
  9
$OLESTARTUP
290
0
  9
$SORTENTS
280
127
  9
$INDEXCTL
280
0
  9
$HIDETEXT
280
1
  9
$XCLIPFRAME
280
1
  9
$HALOGAP
280
0
  9
$OBSCOLOR
 70
257
  9
$OBSLTYPE
280
0
  9
$INTERSECTIONDISPLAY
280
0
  9
$INTERSECTIONCOLOR
 70
257
  9
$DIMASSOC
280
2
  9
$PROJECTNAME
  1

  9
$CAMERADISPLAY
290
0
  9
$LENSLENGTH
 40
50.0
  9
$CAMERAHEIGHT
 40
0.0
  9
$STEPSPERSEC
 40
24.0
  9
$STEPSIZE
 40
100.0
  9
$3DDWFPREC
 40
2.0
  9
$PSOLWIDTH
 40
0.005
  9
$PSOLHEIGHT
 40
0.08
  9
$LOFTANG1
 40
1.570796326795
  9
$LOFTANG2
 40
1.570796326795
  9
$LOFTMAG1
 40
0.0
  9
$LOFTMAG2
 40
0.0
  9
$LOFTPARAM
 70
7
  9
$LOFTNORMALS
280
1
  9
$LATITUDE
 40
37.795
  9
$LONGITUDE
 40
-122.394
  9
$NORTHDIRECTION
 40
0.0
  9
$TIMEZONE
 70
-8000
  9
$LIGHTGLYPHDISPLAY
280
1
  9
$TILEMODELIGHTSYNCH
280
1
  9
$CMATERIAL
347
20
  9
$SOLIDHIST
280
0
  9
$SHOWHIST
280
1
  9
$DWFFRAME
280
2
  9
$DGNFRAME
280
2
  9
$REALWORLDSCALE
290
1
  9
$INTERFERECOLOR
 62
256
  9
$CSHADOW
280
0
  9
$SHADOWPLANELOCATION
 40
0.0
  0
ENDSEC
  0
SECTION
  2
CLASSES
  0
CLASS
  1
ACDBDICTIONARYWDFLT
  2
AcDbDictionaryWithDefault
  3
ObjectDBX Classes
 90
0
 91
0
280
0
281
0
  0
CLASS
  1
SUN
  2
AcDbSun
  3
SCENEOE
 90
1153
 91
0
280
0
281
0
  0
CLASS
  1
VISUALSTYLE
  2
AcDbVisualStyle
  3
ObjectDBX Classes
 90
4095
 91
0
280
0
281
0
  0
CLASS
  1
MATERIAL
  2
AcDbMaterial
  3
ObjectDBX Classes
 90
1153
 91
0
280
0
281
0
  0
CLASS
  1
SCALE
  2
AcDbScale
  3
ObjectDBX Classes
 90
1153
 91
0
280
0
281
0
  0
CLASS
  1
TABLESTYLE
  2
AcDbTableStyle
  3
ObjectDBX Classes
 90
4095
 91
0
280
0
281
0
  0
CLASS
  1
MLEADERSTYLE
  2
AcDbMLeaderStyle
  3
ACDB_MLEADERSTYLE_CLASS
 90
4095
 91
0
280
0
281
0
  0
CLASS
  1
DICTIONARYVAR
  2
AcDbDictionaryVar
  3
ObjectDBX Classes
 90
0
 91
0
280
0
281
0
  0
CLASS
  1
CELLSTYLEMAP
  2
AcDbCellStyleMap
  3
ObjectDBX Classes
 90
1152
 91
0
280
0
281
0
  0
CLASS
  1
MENTALRAYRENDERSETTINGS
  2
AcDbMentalRayRenderSettings
  3
SCENEOE
 90
1024
 91
0
280
0
281
0
  0
CLASS
  1
ACDBDETAILVIEWSTYLE
  2
AcDbDetailViewStyle
  3
ObjectDBX Classes
 90
1025
 91
0
280
0
281
0
  0
CLASS
  1
ACDBSECTIONVIEWSTYLE
  2
AcDbSectionViewStyle
  3
ObjectDBX Classes
 90
1025
 91
0
280
0
281
0
  0
CLASS
  1
RASTERVARIABLES
  2
AcDbRasterVariables
  3
ISM
 90
0
 91
0
280
0
281
0
  0
CLASS
  1
LAYOUT
  2
AcDbLayout
  3
ObjectDBX Classes
 90
0
 91
0
280
0
281
0
  0
CLASS
  1
ACDBPLACEHOLDER
  2
AcDbPlaceHolder
  3
ObjectDBX Classes
 90
0
 91
0
280
0
281
0
  0
ENDSEC
  0
SECTION
  2
TABLES
  0
TABLE
  2
VPORT
  5
8
330
0
100
AcDbSymbolTable
 70
1
  0
VPORT
  5
23
330
8
100
AcDbSymbolTableRecord
100
AcDbViewportTableRecord
  2
*Active
 70
0
 10
0.0
 20
0.0
 11
1.0
 21
1.0
 12
0.0
 22
0.0
 13
0.0
 23
0.0
 14
0.5
 24
0.5
 15
0.5
 25
0.5
 16
0.0
 26
0.0
 36
1.0
 17
0.0
 27
0.0
 37
0.0
 40
1000.0
 41
1.34
 42
50.0
 43
0.0
 44
0.0
 50
0.0
 51
0.0
 71
0
 72
1000
 73
1
 74
3
 75
0
 76
0
 77
0
 78
0
281
0
 65
0
146
0.0
  0
ENDTAB
  0
TABLE
  2
LTYPE
  5
2
330
0
100
AcDbSymbolTable
 70
4
  0
LTYPE
  5
24
330
2
100
AcDbSymbolTableRecord
100
AcDbLinetypeTableRecord
  2
ByBlock
 70
0
  3

 72
65
 73
0
 40
0.0
  0
LTYPE
  5
25
330
2
100
AcDbSymbolTableRecord
100
AcDbLinetypeTableRecord
  2
ByLayer
 70
0
  3

 72
65
 73
0
 40
0.0
  0
LTYPE
  5
26
330
2
100
AcDbSymbolTableRecord
100
AcDbLinetypeTableRecord
  2
Continuous
 70
0
  3

 72
65
 73
0
 40
0.0
  0
LTYPE
  5
133
330
2
100
AcDbSymbolTableRecord
100
AcDbLinetypeTableRecord
  2
DASHED
 70
0
  3
Dashed __ __ __ __ __ __ __ __ __ __ __ __ __ _
 72
65
 73
2
 40
0.75
 49
0.5
 74
0
 49
-0.25
 74
0
  0
ENDTAB
  0
TABLE
  2
LAYER
  5
1
330
0
100
AcDbSymbolTable
 70
3
  0
LAYER
  5
27
330
1
100
AcDbSymbolTableRecord
100
AcDbLayerTableRecord
  2
0
 70
0
 62
7
  6
Continuous
370
-3
390
13
347
21
  0
LAYER
  5
28
330
1
100
AcDbSymbolTableRecord
100
AcDbLayerTableRecord
  2
Defpoints
 70
0
 62
7
  6
Continuous
290
0
370
-3
390
13
347
21
  0
LAYER
  5
132
330
1
100
AcDbSymbolTableRecord
100
AcDbLayerTableRecord
  2
-15N-THT. THIẾT BỊ ĐÓNG MỞ
 70
0
 62
40
  6
CONTINUOUS
370
-3
390
13
347
21
  0
ENDTAB
  0
TABLE
  2
STYLE
  5
5
330
0
100
AcDbSymbolTable
 70
1
  0
STYLE
  5
29
330
5
100
AcDbSymbolTableRecord
100
AcDbTextStyleTableRecord
  2
Standard
 70
0
 40
0.0
 41
1.0
 50
0.0
 71
0
 42
2.5
  3
txt
  4

  0
ENDTAB
  0
TABLE
  2
VIEW
  5
7
330
0
100
AcDbSymbolTable
 70
0
  0
ENDTAB
  0
TABLE
  2
UCS
  5
6
330
0
100
AcDbSymbolTable
 70
0
  0
ENDTAB
  0
TABLE
  2
APPID
  5
3
330
0
100
AcDbSymbolTable
 70
3
  0
APPID
  5
2A
330
3
100
AcDbSymbolTableRecord
100
AcDbRegAppTableRecord
  2
ACAD
 70
0
  0
APPID
  5
136
330
3
100
AcDbSymbolTableRecord
100
AcDbRegAppTableRecord
  2
HATCHBACKGROUNDCOLOR
 70
0
  0
APPID
  5
137
330
3
100
AcDbSymbolTableRecord
100
AcDbRegAppTableRecord
  2
EZDXF
 70
0
  0
ENDTAB
  0
TABLE
  2
DIMSTYLE
  5
4
330
0
100
AcDbSymbolTable
 70
1
100
AcDbDimStyleTable
  0
DIMSTYLE
105
2B
330
4
100
AcDbSymbolTableRecord
100
AcDbDimStyleTableRecord
  2
Standard
 70
0
 40
1.0
 41
2.5
 42
0.625
 43
3.75
 44
1.25
 45
0.0
 46
0.0
 47
0.0
 48
0.0
 49
2.5
140
2.5
141
2.5
142
0.0
143
0.03937007874
144
1.0
145
0.0
146
1.0
147
0.625
148
0.0
 69
0
 70
0
 71
0
 72
0
 73
0
 74
0
 75
0
 76
0
 77
1
 78
8
 79
3
170
0
171
3
172
1
173
0
174
0
175
0
176
0
177
0
178
0
179
2
271
2
272
2
273
2
274
3
275
0
276
0
277
2
278
44
279
0
280
0
281
0
282
0
283
0
284
8
285
0
286
0
288
0
289
3
290
0
371
-2
372
-2
  0
ENDTAB
  0
TABLE
  2
BLOCK_RECORD
  5
9
330
0
100
AcDbSymbolTable
 70
3
  0
BLOCK_RECORD
  5
17
330
9
100
AcDbSymbolTableRecord
100
AcDbBlockTableRecord
  2
*Model_Space
340
1A
 70
0
280
1
281
0
  0
BLOCK_RECORD
  5
1B
330
9
100
AcDbSymbolTableRecord
100
AcDbBlockTableRecord
  2
*Paper_Space
340
1E
 70
0
280
1
281
0
  0
BLOCK_RECORD
  5
2F
330
9
100
AcDbSymbolTableRecord
100
AcDbBlockTableRecord
  2
06 - N - SC VSD CHIẾU TRÊN ATV320U22~40N4C
340
0
 70
0
280
1
281
0
  0
ENDTAB
  0
ENDSEC
  0
SECTION
  2
BLOCKS
  0
BLOCK
  5
18
330
17
100
AcDbEntity
  8
0
100
AcDbBlockBegin
  2
*Model_Space
 70
0
 10
0.0
 20
0.0
 30
0.0
  3
*Model_Space
  1

  0
ENDBLK
  5
19
330
17
100
AcDbEntity
  8
0
100
AcDbBlockEnd
  0
BLOCK
  5
1C
330
1B
100
AcDbEntity
  8
0
100
AcDbBlockBegin
  2
*Paper_Space
 70
0
 10
0.0
 20
0.0
 30
0.0
  3
*Paper_Space
  1

  0
ENDBLK
  5
1D
330
1B
100
AcDbEntity
  8
0
100
AcDbBlockEnd
  0
BLOCK
  5
30
330
2F
100
AcDbEntity
  8
0
100
AcDbBlockBegin
  2
06 - N - SC VSD CHIẾU TRÊN ATV320U22~40N4C
 70
0
 10
0.0
 20
0.0
 30
0.0
  3
06 - N - SC VSD CHIẾU TRÊN ATV320U22~40N4C
  1

  0
ARC
  5
32
330
2F
100
AcDbEntity
  8
-15N-THT. THIẾT BỊ ĐÓNG MỞ
100
AcDbCircle
 10
-11.00000000000022
 20
113.9500000000007
 30
0.0
 40
16.5
100
AcDbArc
 50
153.4822527341502
 51
206.5254447481112
  0
LINE
  5
33
330
2F
100
AcDbEntity
  8
-15N-THT. THIẾT BỊ ĐÓNG MỞ
100
AcDbLine
 10
-25.76413643386013
 20
121.3168361840289
 30
0.0
 11
-25.76413643386013
 21
121.3168361840289
 31
0.0
  0
LINE
  5
34
330
2F
100
AcDbEntity
  8
-15N-THT. THIẾT BỊ ĐÓNG MỞ
100
AcDbLine
 10
3.763151825595741
 20
121.3188091422198
 30
0.0
 11
3.763151825595741
 21
121.3188091422198
 31
0.0
  0
LINE
  5
35
330
2F
100
AcDbEntity
  8
-15N-THT. THIẾT BỊ ĐÓNG MỞ
100
AcDbLine
 10
5.498046755775931
 20
122.3204511971689
 30
0.0
 11
5.498046755775931
 21
122.3204511971689
 31
0.0
  0
ARC
  5
36
330
2F
100
AcDbEntity
  8
-15N-THT. THIẾT BỊ ĐÓNG MỞ
100
AcDbCircle
 10
-11.00000000000022
 20
113.9500000000007
 30
0.0
 40
18.5
100
AcDbArc
 50
153.1054183923239
 51
206.9014196532859
  0
LINE
  5
37
330
2F
100
AcDbEntity
  8
-15N-THT. THIẾT BỊ ĐÓNG MỞ
100
AcDbLine
 10
-27.49904392843996
 20
122.3184854930405
 30
0.0
 11
-27.49904392843996
 21
122.3184854930405
 31
0.0
  0
ARC
  5
38
330
2F
100
AcDbEntity
  8
-15N-THT. THIẾT BỊ ĐÓNG MỞ
100
AcDbCircle
 10
-11.00000000000022
 20
113.9500000000007
 30
0.0
 40
23.5
100
AcDbArc
 50
152.4442250967319
 51
207.5611805543194
  0
LINE
  5
39
330
2F
100
AcDbEntity
  8
-15N-THT. THIẾT BỊ ĐÓNG MỞ
100
AcDbLine
 10
-31.83418176336
 20
124.8213784890104
 30
0.0
 11
-31.83418176336
 21
124.8213784890104
 31
0.0
  0
LINE
  5
3A
330
2F
100
AcDbEntity
  8
-15N-THT. THIẾT BỊ ĐÓNG MỞ
100
AcDbLine
 10
9.833162567588943
 20
124.82333147809
 30
0.0
 11
9.833162567588943
 21
124.82333147809
 31
0.0
  0
LINE
  5
3B
330
2F
100
AcDbEntity
  8
-15N-THT. THIẾT BỊ ĐÓNG MỞ
100
AcDbLine
 10
-0.5784325835077198
 20
118.81219421491
 30
0.0
 11
-0.5784325835077198
 21
118.81219421491
 31
0.0
  0
ARC
  5
3C
330
2F
100
AcDbEntity
  8
-15N-THT. THIẾT BỊ ĐÓNG MỞ
100
AcDbCircle
 10
-11.00000000000022
 20
113.9500000000007
 30
0.0
 40
11.5
100
AcDbArc
 50
154.9995595672886
 51
205.0114610703019
  0
LINE
  5
3D
330
2F
100
AcDbEntity
  8
-15N-THT. THIẾT BỊ ĐÓNG MỞ
100
AcDbLine
 10
-21.42250132489994
 20
118.8101919851397
 30
0.0
 11
-21.42250132489994
 21
118.8101919851397
 31
0.0
  0
LINE
  5
3E
330
2F
100
AcDbEntity
  8
-15N-THT. THIẾT BỊ ĐÓNG MỞ
100
AcDbLine
 10
11.56666037260993
 20
125.8241669024592
 30
0.0
 11
11.56666037260993
 21
125.8241669024592
 31
0.0
  0
ARC
  5
3F
330
2F
100
AcDbEntity
  8
-15N-THT. THIẾT BỊ ĐÓNG MỞ
100
AcDbCircle
 10
-11.00000000000022
 20
113.9500000000007
 30
0.0
 40
25.50000000000001
100
AcDbArc
 50
152.2523988269012
 51
207.7525484579143
  0
LINE
  5
40
330
2F
100
AcDbEntity
  8
-15N-THT. THIẾT BỊ ĐÓNG MỞ
100
AcDbLine
 10
-33.56768595293011
 20
125.8222175994997
 30
0.0
 11
-33.56768595293011
 21
125.8222175994997
 31
0.0
  0
LINE
  5
41
330
2F
100
AcDbEntity
  8
-15N-THT. THIẾT BỊ ĐÓNG MỞ
100
AcDbLine
 10
69.99999999999977
 20
145.9500000000007
 30
0.0
 11
69.99999999999977
 21
0.0
 31
0.0
  0
LINE
  5
42
330
2F
100
AcDbEntity
  8
-15N-THT. THIẾT BỊ ĐÓNG MỞ
100
AcDbLine
 10
69.99999999999977
 20
145.9500000000007
 30
0.0
 11
-70.00000000000023
 21
145.9500000000007
 31
0.0
  0
LINE
  5
43
330
2F
100
AcDbEntity
  8
-15N-THT. THIẾT BỊ ĐÓNG MỞ
100
AcDbLine
 10
10.56666037260993
 20
100.3437822899704
 30
0.0
 11
14.81292458089706
 21
97.892200506265
 31
0.0
  0
ARC
  5
44
330
2F
100
AcDbEntity
  8
-15N-THT. THIẾT BỊ ĐÓNG MỞ
100
AcDbCircle
 10
-11.00000000000022
 20
113.9500000000007
 30
0.0
 40
30.4
100
AcDbArc
 50
211.885044003303
 51
328.1149383966365
  0
LINE
  5
45
330
2F
100
AcDbEntity
  8
-15N-THT. THIẾT BỊ ĐÓNG MỞ
100
AcDbLine
 10
-36.81292458090025
 20
97.89220050627046
 30
0.0
 11
-32.56666037261289
 21
100.3437822899741
 31
0.0
  0
ARC
  5
46
330
2F
100
AcDbEntity
  8
-15N-THT. THIẾT BỊ ĐÓNG MỞ
100
AcDbCircle
 10
-11.00000000000022
 20
113.9500000000007
 30
0.0
 40
25.5
100
AcDbArc
 50
212.2474971044362
 51
327.7525227434356
  0
LINE
  5
47
330
2F
100
AcDbEntity
  8
-15N-THT. THIẾT BỊ ĐÓNG MỞ
100
AcDbLine
 10
11.56666037260993
 20
125.8241669024592
 30
0.0
 11
15.81292458089706
 21
128.2757486861646
 31
0.0
  0
ARC
  5
48
330
2F
100
AcDbEntity
  8
-15N-THT. THIẾT BỊ ĐÓNG MỞ
100
AcDbCircle
 10
-11.00000000000022
 20
113.9500000000007
 30
0.0
 40
30.4
100
AcDbArc
 50
17.45605611325796
 51
28.11490456767341
  0
LINE
  5
49
330
2F
100
AcDbEntity
  8
-15N-THT. THIẾT BỊ ĐÓNG MỞ
100
AcDbLine
 10
17.99999999999977
 20
104.8307895078596
 30
0.0
 11
17.99999999999977
 21
123.0692104921399
 31
0.0
  0
ARC
  5
4A
330
2F
100
AcDbEntity
  8
-15N-THT. THIẾT BỊ ĐÓNG MỞ
100
AcDbCircle
 10
-11.00000000000022
 20
113.9500000000007
 30
0.0
 40
30.4
100
AcDbArc
 50
331.8850954323266
 51
342.543943886742
  0
LINE
  5
4B
330
2F
100
AcDbEntity
  8
-15N-THT. THIẾT BỊ ĐÓNG MỞ
100
AcDbLine
 10
15.81292458089979
 20
99.62425131384045
 30
0.0
 11
11.56666037261288
 21
102.0758330975441
 31
0.0
  0
ARC
  5
4C
330
2F
100
AcDbEntity
  8
-15N-THT. THIẾT BỊ ĐÓNG MỞ
100
AcDbCircle
 10
-11.00000000000022
 20
113.9500000000007
 30
0.0
 40
25.5
100
AcDbArc
 50
332.2474912377597
 51
27.7525110099541
  0
LINE
  5
4D
330
2F
100
AcDbEntity
  8
-15N-THT. THIẾT BỊ ĐÓNG MỞ
100
AcDbLine
 10
-10.00000000000023
 20
139.4303846124821
 30
0.0
 11
-10.00000000000023
 21
142.9497517230757
 31
0.0
  0
LINE
  5
4E
330
2F
100
AcDbEntity
  8
-15N-THT. THIẾT BỊ ĐÓNG MỞ
100
AcDbLine
 10
-1.880000000000109
 20
142.9497517230757
 30
0.0
 11
-10.00000000000023
 21
142.9497517230757
 31
0.0
  0
ARC
  5
4F
330
2F
100
AcDbEntity
  8
-15N-THT. THIẾT BỊ ĐÓNG MỞ
100
AcDbCircle
 10
-11.00000000000022
 20
113.9500000000007
 30
0.0
 40
30.4
100
AcDbArc
 50
31.88508145117931
 51
72.54239577680931
  0
LINE
  5
50
330
2F
100
AcDbEntity
  8
-15N-THT. THIẾT BỊ ĐÓNG MỞ
100
AcDbLine
 10
14.81292458089979
 20
130.0077994937292
 30
0.0
 11
10.56666037261289
 21
127.5562177100255
 31
0.0
  0
ARC
  5
51
330
2F
100
AcDbEntity
  8
-15N-THT. THIẾT BỊ ĐÓNG MỞ
100
AcDbCircle
 10
-11.00000000000022
 20
113.9500000000007
 30
0.0
 40
25.5
100
AcDbArc
 50
32.24747725656437
 51
87.75253447678236
  0
LINE
  5
52
330
2F
100
AcDbEntity
  8
-15N-THT. THIẾT BỊ ĐÓNG MỞ
100
AcDbLine
 10
-32.56548501689008
 20
127.5580805401205
 30
0.0
 11
-36.81176131025973
 21
130.009669301151
 31
0.0
  0
ARC
  5
53
330
2F
100
AcDbEntity
  8
-15N-THT. THIẾT BỊ ĐÓNG MỞ
100
AcDbCircle
 10
-11.00000000000022
 20
113.9500000000007
 30
0.0
 40
30.4
100
AcDbArc
 50
107.4575843753733
 51
148.1107734048734
  0
LINE
  5
54
330
2F
100
AcDbEntity
  8
-15N-THT. THIẾT BỊ ĐÓNG MỞ
100
AcDbLine
 10
-12.00000000000023
 20
142.9497517230757
 30
0.0
 11
-20.12000000000012
 21
142.9497517230757
 31
0.0
  0
LINE
  5
55
330
2F
100
AcDbEntity
  8
-15N-THT. THIẾT BỊ ĐÓNG MỞ
100
AcDbLine
 10
-12.00000000000023
 20
142.9497517230757
 30
0.0
 11
-12.00000000000023
 21
139.4303846124821
 31
0.0
  0
ARC
  5
56
330
2F
100
AcDbEntity
  8
-15N-THT. THIẾT BỊ ĐÓNG MỞ
100
AcDbCircle
 10
-11.00000000000022
 20
113.9500000000007
 30
0.0
 40
25.50000000000001
100
AcDbArc
 50
92.24744567535323
 51
147.7475754585167
  0
LINE
  5
57
330
2F
100
AcDbEntity
  8
-15N-THT. THIẾT BỊ ĐÓNG MỞ
100
AcDbLine
 10
-12.00000000000023
 20
102.4935607626103
 30
0.0
 11
-12.00000000000023
 21
97.48033090799981
 31
0.0
  0
ARC
  5
58
330
2F
100
AcDbEntity
  8
-15N-THT. THIẾT BỊ ĐÓNG MỞ
100
AcDbCircle
 10
-11.00000000000022
 20
113.9500000000007
 30
0.0
 40
16.5
100
AcDbArc
 50
213.4746008143047
 51
266.5253933190379
  0
LINE
  5
59
330
2F
100
AcDbEntity
  8
-15N-THT. THIẾT BỊ ĐÓNG MỞ
100
AcDbLine
 10
-24.76315182560006
 20
104.8491400502207
 30
0.0
 11
-20.4215674164941
 21
107.3557549775269
 31
0.0
  0
ARC
  5
5A
330
2F
100
AcDbEntity
  8
-15N-THT. THIẾT BỊ ĐÓNG MỞ
100
AcDbCircle
 10
-11.00000000000022
 20
113.9500000000007
 30
0.0
 40
11.5
100
AcDbArc
 50
214.9885271963728
 51
265.0114669369265
  0
LINE
  5
5B
330
2F
100
AcDbEntity
  8
-15N-THT. THIẾT BỊ ĐÓNG MỞ
100
AcDbLine
 10
-1.578432583507947
 20
107.3557549775196
 30
0.0
 11
2.76315182559324
 21
104.8491400502153
 31
0.0
  0
ARC
  5
5C
330
2F
100
AcDbEntity
  8
-15N-THT. THIẾT BỊ ĐÓNG MỞ
100
AcDbCircle
 10
-11.00000000000022
 20
113.9500000000007
 30
0.0
 40
16.5
100
AcDbArc
 50
273.4746265288109
 51
326.5254190335806
  0
LINE
  5
5D
330
2F
100
AcDbEntity
  8
-15N-THT. THIẾT BỊ ĐÓNG MỞ
100
AcDbLine
 10
-10.00000000000023
 20
97.48033090799981
 30
0.0
 11
-10.00000000000023
 21
102.4935607626103
 31
0.0
  0
ARC
  5
5E
330
2F
100
AcDbEntity
  8
-15N-THT. THIẾT BỊ ĐÓNG MỞ
100
AcDbCircle
 10
-11.00000000000022
 20
113.9500000000007
 30
0.0
 40
11.5
100
AcDbArc
 50
274.9885529108994
 51
325.0114353556464
  0
LINE
  5
5F
330
2F
100
AcDbEntity
  8
-15N-THT. THIẾT BỊ ĐÓNG MỞ
100
AcDbLine
 10
-0.5784325835077198
 20
118.81219421491
 30
0.0
 11
3.763151825597788
 21
121.3188091422162
 31
0.0
  0
ARC
  5
60
330
2F
100
AcDbEntity
  8
-15N-THT. THIẾT BỊ ĐÓNG MỞ
100
AcDbCircle
 10
-11.00000000000022
 20
113.9500000000007
 30
0.0
 40
16.5
100
AcDbArc
 50
333.4745949475768
 51
26.52540730016751
  0
LINE
  5
61
330
2F
100
AcDbEntity
  8
-15N-THT. THIẾT BỊ ĐÓNG MỞ
100
AcDbLine
 10
3.763151825595741
 20
106.5811908577798
 30
0.0
 11
-0.5784325835095387
 21
109.0878057850859
 31
0.0
  0
ARC
  5
62
330
2F
100
AcDbEntity
  8
-15N-THT. THIẾT BỊ ĐÓNG MỞ
100
AcDbCircle
 10
-11.00000000000022
 20
113.9500000000007
 30
0.0
 40
11.5
100
AcDbArc
 50
334.9885213296407
 51
25.01148091813687
  0
LINE
  5
63
330
2F
100
AcDbEntity
  8
-15N-THT. THIẾT BỊ ĐÓNG MỞ
100
AcDbLine
 10
-10.00000000000023
 20
125.4064392373893
 30
0.0
 11
-10.00000000000023
 21
130.4196690919998
 31
0.0
  0
ARC
  5
64
330
2F
100
AcDbEntity
  8
-15N-THT. THIẾT BỊ ĐÓNG MỞ
100
AcDbCircle
 10
-11.00000000000022
 20
113.9500000000007
 30
0.0
 40
16.5
100
AcDbArc
 50
33.4745809664193
 51
86.52537347118916
  0
LINE
  5
65
330
2F
100
AcDbEntity
  8
-15N-THT. THIẾT BỊ ĐÓNG MỞ
100
AcDbLine
 10
2.763151825595741
 20
123.0508599497807
 30
0.0
 11
-1.578432583505446
 21
120.5442450224764
 31
0.0
  0
ARC
  5
66
330
2F
100
AcDbEntity
  8
-15N-THT. THIẾT BỊ ĐÓNG MỞ
100
AcDbCircle
 10
-11.00000000000022
 20
113.9500000000007
 30
0.0
 40
11.5
100
AcDbArc
 50
34.98856464435367
 51
85.01144708910059
  0
LINE
  5
67
330
2F
100
AcDbEntity
  8
-15N-THT. THIẾT BỊ ĐÓNG MỞ
100
AcDbLine
 10
-20.42030038885014
 20
120.5460549257695
 30
0.0
 11
-24.76193549781669
 21
123.0526991246552
 31
0.0
  0
ARC
  5
68
330
2F
100
AcDbEntity
  8
-15N-THT. THIẾT BỊ ĐÓNG MỞ
100
AcDbCircle
 10
-11.00000000000022
 20
113.9500000000007
 30
0.0
 40
16.5
100
AcDbArc
 50
93.47460668096203
 51
146.5177215512826
  0
LINE
  5
69
330
2F
100
AcDbEntity
  8
-15N-THT. THIẾT BỊ ĐÓNG MỞ
100
AcDbLine
 10
-12.00000000000023
 20
130.4196690919998
 30
0.0
 11
-12.00000000000023
 21
125.4064392373893
 31
0.0
  0
ARC
  5
6A
330
2F
100
AcDbEntity
  8
-15N-THT. THIẾT BỊ ĐÓNG MỞ
100
AcDbCircle
 10
-11.00000000000022
 20
113.9500000000007
 30
0.0
 40
11.5
100
AcDbArc
 50
94.98853306307349
 51
145.0004720139883
  0
LINE
  5
6B
330
2F
100
AcDbEntity
  8
-15N-THT. THIẾT BỊ ĐÓNG MỞ
100
AcDbLine
 10
-12.00000000000023
 20
95.47704679809067
 30
0.0
 11
-12.00000000000023
 21
90.47128623625031
 31
0.0
  0
ARC
  5
6C
330
2F
100
AcDbEntity
  8
-15N-THT. THIẾT BỊ ĐÓNG MỞ
100
AcDbCircle
 10
-11.00000000000022
 20
113.9500000000007
 30
0.0
 40
23.5
100
AcDbArc
 50
212.4388650080209
 51
267.5611291252713
  0
LINE
  5
6D
330
2F
100
AcDbEntity
  8
-15N-THT. THIẾT BỊ ĐÓNG MỞ
100
AcDbLine
 10
-30.83316256759008
 20
101.3446177143396
 30
0.0
 11
-26.49804675577866
 21
103.847497995257
 31
0.0
  0
ARC
  5
6E
330
2F
100
AcDbEntity
  8
-15N-THT. THIẾT BỊ ĐÓNG MỞ
100
AcDbCircle
 10
-11.00000000000022
 20
113.9500000000007
 30
0.0
 40
18.5
100
AcDbArc
 50
213.0985686133267
 51
266.9014255199618
  0
LINE
  5
6F
330
2F
100
AcDbEntity
  8
-15N-THT. THIẾT BỊ ĐÓNG MỞ
100
AcDbLine
 10
4.498046755776158
 20
103.8474979952607
 30
0.0
 11
8.833162567589625
 21
101.3446177143414
 31
0.0
  0
ARC
  5
70
330
2F
100
AcDbEntity
  8
-15N-THT. THIẾT BỊ ĐÓNG MỞ
100
AcDbCircle
 10
-11.00000000000022
 20
113.9500000000007
 30
0.0
 40
23.50000000000001
100
AcDbArc
 50
272.4388334267734
 51
327.5611548397737
  0
LINE
  5
71
330
2F
100
AcDbEntity
  8
-15N-THT. THIẾT BỊ ĐÓNG MỞ
100
AcDbLine
 10
-10.00000000000023
 20
90.47128623625031
 30
0.0
 11
-10.00000000000023
 21
95.47704679809067
 31
0.0
  0
ARC
  5
72
330
2F
100
AcDbEntity
  8
-15N-THT. THIẾT BỊ ĐÓNG MỞ
100
AcDbCircle
 10
-11.00000000000022
 20
113.9500000000007
 30
0.0
 40
18.5
100
AcDbArc
 50
273.0985943278958
 51
326.9013939386892
  0
LINE
  5
73
330
2F
100
AcDbEntity
  8
-15N-THT. THIẾT BỊ ĐÓNG MỞ
100
AcDbLine
 10
5.498046755775931
 20
122.3204511971689
 30
0.0
 11
9.833162567589397
 21
124.8233314780882
 31
0.0
  0
ARC
  5
74
330
2F
100
AcDbEntity
  8
-15N-THT. THIẾT BỊ ĐÓNG MỞ
100
AcDbCircle
 10
-11.00000000000022
 20
113.9500000000007
 30
0.0
 40
23.5
100
AcDbArc
 50
332.4388591412987
 51
27.56114310647575
  0
LINE
  5
75
330
2F
100
AcDbEntity
  8
-15N-THT. THIẾT BỊ ĐÓNG MỞ
100
AcDbLine
 10
9.833162567588943
 20
103.0766685219096
 30
0.0
 11
5.498046755775476
 21
105.5795488028288
 31
0.0
  0
ARC
  5
76
330
2F
100
AcDbEntity
  8
-15N-THT. THIẾT BỊ ĐÓNG MỞ
100
AcDbCircle
 10
-11.00000000000022
 20
113.9500000000007
 30
0.0
 40
18.5
100
AcDbArc
 50
333.0985627466532
 51
26.90143950116412
  0
LINE
  5
77
330
2F
100
AcDbEntity
  8
-15N-THT. THIẾT BỊ ĐÓNG MỞ
100
AcDbLine
 10
-10.00000000000023
 20
132.4229532019089
 30
0.0
 11
-10.00000000000023
 21
137.4287137637475
 31
0.0
  0
ARC
  5
78
330
2F
100
AcDbEntity
  8
-15N-THT. THIẾT BỊ ĐÓNG MỞ
100
AcDbCircle
 10
-11.00000000000022
 20
113.9500000000007
 30
0.0
 40
23.5
100
AcDbArc
 50
32.43884516022632
 51
87.5611665732266
  0
LINE
  5
79
330
2F
100
AcDbEntity
  8
-15N-THT. THIẾT BỊ ĐÓNG MỞ
100
AcDbLine
 10
8.833162567588943
 20
126.55538228566
 30
0.0
 11
4.498046755775476
 21
124.0525020047407
 31
0.0
  0
ARC
  5
7A
330
2F
100
AcDbEntity
  8
-15N-THT. THIẾT BỊ ĐÓNG MỞ
100
AcDbCircle
 10
-11.00000000000022
 20
113.9500000000007
 30
0.0
 40
18.5
100
AcDbArc
 50
33.09860606131081
 51
86.90140567210425
  0
LINE
  5
7B
330
2F
100
AcDbEntity
  8
-15N-THT. THIẾT BỊ ĐÓNG MỞ
100
AcDbLine
 10
-26.49684299240016
 20
124.0543484336704
 30
0.0
 11
-30.83198082731769
 21
126.557241429633
 31
0.0
  0
ARC
  5
7C
330
2F
100
AcDbEntity
  8
-15N-THT. THIẾT BỊ ĐÓNG MỞ
100
AcDbCircle
 10
-11.00000000000022
 20
113.9500000000007
 30
0.0
 40
23.5
100
AcDbArc
 50
92.43887087472864
 51
147.5557491886879
  0
LINE
  5
7D
330
2F
100
AcDbEntity
  8
-15N-THT. THIẾT BỊ ĐÓNG MỞ
100
AcDbLine
 10
-12.00000000000023
 20
137.4287137637475
 30
0.0
 11
-12.00000000000023
 21
132.4229532019089
 31
0.0
  0
ARC
  5
7E
330
2F
100
AcDbEntity
  8
-15N-THT. THIẾT BỊ ĐÓNG MỞ
100
AcDbCircle
 10
-11.00000000000022
 20
113.9500000000007
 30
0.0
 40
18.5
100
AcDbArc
 50
93.09857448003818
 51
146.8946131889384
  0
LINE
  5
7F
330
2F
100
AcDbEntity
  8
-15N-THT. THIẾT BỊ ĐÓNG MỞ
100
AcDbLine
 10
-27.49804675578003
 20
105.5795488028307
 30
0.0
 11
-31.83316256759145
 21
103.0766685219132
 31
0.0
  0
LINE
  5
80
330
2F
100
AcDbEntity
  8
-15N-THT. THIẾT BỊ ĐÓNG MỞ
100
AcDbLine
 10
-31.83418176336
 20
124.8213784890104
 30
0.0
 11
-27.49904392843814
 21
122.3184854930441
 31
0.0
  0
LINE
  5
81
330
2F
100
AcDbEntity
  8
-15N-THT. THIẾT BỊ ĐÓNG MỞ
100
AcDbLine
 10
-21.42156741649001
 20
109.0878057850896
 30
0.0
 11
-25.76315182560029
 21
106.5811908577798
 31
0.0
  0
LINE
  5
82
330
2F
100
AcDbEntity
  8
-15N-THT. THIẾT BỊ ĐÓNG MỞ
100
AcDbLine
 10
-25.76413643386013
 20
121.3168361840289
 30
0.0
 11
-21.4225013248963
 21
118.8101919851469
 31
0.0
  0
LINE
  5
83
330
2F
100
AcDbEntity
  8
-15N-THT. THIẾT BỊ ĐÓNG MỞ
100
AcDbLine
 10
-33.56666037261016
 20
102.0758330975404
 30
0.0
 11
-37.81292458089706
 21
99.62425131383498
 31
0.0
  0
ARC
  5
84
330
2F
100
AcDbEntity
  8
-15N-THT. THIẾT BỊ ĐÓNG MỞ
100
AcDbCircle
 10
-11.00000000000022
 20
113.9500000000007
 30
0.0
 40
30.4
100
AcDbArc
 50
197.4560186653679
 51
208.1149244155374
  0
LINE
  5
85
330
2F
100
AcDbEntity
  8
-15N-THT. THIẾT BỊ ĐÓNG MỞ
100
AcDbLine
 10
-40.00000000000023
 20
123.0692104921399
 30
0.0
 11
-40.00000000000023
 21
104.8307895078596
 31
0.0
  0
ARC
  5
86
330
2F
100
AcDbEntity
  8
-15N-THT. THIẾT BỊ ĐÓNG MỞ
100
AcDbCircle
 10
-11.00000000000022
 20
113.9500000000007
 30
0.0
 40
30.4
100
AcDbArc
 50
151.889200880606
 51
162.543981334632
  0
LINE
  5
87
330
2F
100
AcDbEntity
  8
-15N-THT. THIẾT BỊ ĐÓNG MỞ
100
AcDbLine
 10
-37.81396224630021
 20
128.2738063605302
 30
0.0
 11
-33.56768595293033
 21
125.8222175994997
 31
0.0
  0
LINE
  5
88
330
2F
100
AcDbEntity
  8
-15N-THT. THIẾT BỊ ĐÓNG MỞ
100
AcDbLine
 10
2.763151825595741
 20
104.8491400502207
 30
0.0
 11
2.763151825595741
 21
104.8491400502207
 31
0.0
  0
LINE
  5
89
330
2F
100
AcDbEntity
  8
-15N-THT. THIẾT BỊ ĐÓNG MỞ
100
AcDbLine
 10
-1.578432583507947
 20
107.3557549775196
 30
0.0
 11
-1.578432583507947
 21
107.3557549775196
 31
0.0
  0
LINE
  5
8A
330
2F
100
AcDbEntity
  8
-15N-THT. THIẾT BỊ ĐÓNG MỞ
100
AcDbLine
 10
8.833162567588943
 20
101.3446177143396
 30
0.0
 11
8.833162567588943
 21
101.3446177143396
 31
0.0
  0
LINE
  5
8B
330
2F
100
AcDbEntity
  8
-15N-THT. THIẾT BỊ ĐÓNG MỞ
100
AcDbLine
 10
4.498046755776158
 20
103.8474979952607
 30
0.0
 11
4.498046755776158
 21
103.8474979952607
 31
0.0
  0
LINE
  5
8C
330
2F
100
AcDbEntity
  8
-15N-THT. THIẾT BỊ ĐÓNG MỞ
100
AcDbLine
 10
14.81292458089979
 20
97.89220050627046
 30
0.0
 11
14.81292458089979
 21
97.89220050627046
 31
0.0
  0
LINE
  5
8D
330
2F
100
AcDbEntity
  8
-15N-THT. THIẾT BỊ ĐÓNG MỞ
100
AcDbLine
 10
10.56666037260993
 20
100.3437822899704
 30
0.0
 11
10.56666037260993
 21
100.3437822899704
 31
0.0
  0
LINE
  5
8E
330
2F
100
AcDbEntity
  8
-15N-THT. THIẾT BỊ ĐÓNG MỞ
100
AcDbLine
 10
-32.56666037261016
 20
100.3437822899704
 30
0.0
 11
-32.56666037261016
 21
100.3437822899704
 31
0.0
  0
LINE
  5
8F
330
2F
100
AcDbEntity
  8
-15N-THT. THIẾT BỊ ĐÓNG MỞ
100
AcDbLine
 10
-36.81292458090025
 20
97.89220050627046
 30
0.0
 11
-36.81292458090025
 21
97.89220050627046
 31
0.0
  0
LINE
  5
90
330
2F
100
AcDbEntity
  8
-15N-THT. THIẾT BỊ ĐÓNG MỞ
100
AcDbLine
 10
-26.49804675578002
 20
103.8474979952607
 30
0.0
 11
-26.49804675578002
 21
103.8474979952607
 31
0.0
  0
LINE
  5
91
330
2F
100
AcDbEntity
  8
-15N-THT. THIẾT BỊ ĐÓNG MỞ
100
AcDbLine
 10
-30.83316256759008
 20
101.3446177143396
 30
0.0
 11
-30.83316256759008
 21
101.3446177143396
 31
0.0
  0
LINE
  5
92
330
2F
100
AcDbEntity
  8
-15N-THT. THIẾT BỊ ĐÓNG MỞ
100
AcDbLine
 10
-20.42156741649001
 20
107.3557549775196
 30
0.0
 11
-20.42156741649001
 21
107.3557549775196
 31
0.0
  0
LINE
  5
93
330
2F
100
AcDbEntity
  8
-15N-THT. THIẾT BỊ ĐÓNG MỞ
100
AcDbLine
 10
-24.76315182560006
 20
104.8491400502207
 30
0.0
 11
-24.76315182560006
 21
104.8491400502207
 31
0.0
  0
LINE
  5
94
330
2F
100
AcDbEntity
  8
-15N-THT. THIẾT BỊ ĐÓNG MỞ
100
AcDbLine
 10
-37.81292458090025
 20
99.62425131384045
 30
0.0
 11
-37.81292458090025
 21
99.62425131384045
 31
0.0
  0
LINE
  5
95
330
2F
100
AcDbEntity
  8
-15N-THT. THIẾT BỊ ĐÓNG MỞ
100
AcDbLine
 10
-40.00000000000023
 20
104.8307895078596
 30
0.0
 11
-40.00000000000023
 21
104.8307895078596
 31
0.0
  0
LINE
  5
96
330
2F
100
AcDbEntity
  8
-15N-THT. THIẾT BỊ ĐÓNG MỞ
100
AcDbLine
 10
15.81292458089979
 20
99.62425131384045
 30
0.0
 11
15.81292458089979
 21
99.62425131384045
 31
0.0
  0
LINE
  5
97
330
2F
100
AcDbEntity
  8
-15N-THT. THIẾT BỊ ĐÓNG MỞ
100
AcDbLine
 10
17.99999999999977
 20
104.8307895078596
 30
0.0
 11
17.99999999999977
 21
104.8307895078596
 31
0.0
  0
LINE
  5
98
330
2F
100
AcDbEntity
  8
-15N-THT. THIẾT BỊ ĐÓNG MỞ
100
AcDbLine
 10
11.56666037260993
 20
102.0758330975404
 30
0.0
 11
11.56666037260993
 21
102.0758330975404
 31
0.0
  0
LINE
  5
99
330
2F
100
AcDbEntity
  8
-15N-THT. THIẾT BỊ ĐÓNG MỞ
100
AcDbLine
 10
5.498046755775931
 20
105.5795488028307
 30
0.0
 11
5.498046755775931
 21
105.5795488028307
 31
0.0
  0
LINE
  5
9A
330
2F
100
AcDbEntity
  8
-15N-THT. THIẾT BỊ ĐÓNG MỞ
100
AcDbLine
 10
9.833162567588943
 20
103.0766685219096
 30
0.0
 11
9.833162567588943
 21
103.0766685219096
 31
0.0
  0
LINE
  5
9B
330
2F
100
AcDbEntity
  8
-15N-THT. THIẾT BỊ ĐÓNG MỞ
100
AcDbLine
 10
-0.5784325835077198
 20
109.0878057850896
 30
0.0
 11
-0.5784325835077198
 21
109.0878057850896
 31
0.0
  0
LINE
  5
9C
330
2F
100
AcDbEntity
  8
-15N-THT. THIẾT BỊ ĐÓNG MỞ
100
AcDbLine
 10
3.763151825595741
 20
106.5811908577798
 30
0.0
 11
3.763151825595741
 21
106.5811908577798
 31
0.0
  0
LINE
  5
9D
330
2F
100
AcDbEntity
  8
-15N-THT. THIẾT BỊ ĐÓNG MỞ
100
AcDbLine
 10
-32.56548501689008
 20
127.5580805401205
 30
0.0
 11
-32.56548501689008
 21
127.5580805401205
 31
0.0
  0
LINE
  5
9E
330
2F
100
AcDbEntity
  8
-15N-THT. THIẾT BỊ ĐÓNG MỞ
100
AcDbLine
 10
-12.00000000000023
 20
139.4303846124821
 30
0.0
 11
-12.00000000000023
 21
139.4303846124821
 31
0.0
  0
LINE
  5
9F
330
2F
100
AcDbEntity
  8
-15N-THT. THIẾT BỊ ĐÓNG MỞ
100
AcDbLine
 10
10.56666037260993
 20
127.5562177100291
 30
0.0
 11
10.56666037260993
 21
127.5562177100291
 31
0.0
  0
LINE
  5
A0
330
2F
100
AcDbEntity
  8
-15N-THT. THIẾT BỊ ĐÓNG MỞ
100
AcDbLine
 10
-10.00000000000023
 20
139.4303846124821
 30
0.0
 11
-10.00000000000023
 21
139.4303846124821
 31
0.0
  0
LINE
  5
A1
330
2F
100
AcDbEntity
  8
-15N-THT. THIẾT BỊ ĐÓNG MỞ
100
AcDbLine
 10
-33.56666037261016
 20
102.0758330975404
 30
0.0
 11
-33.56666037261016
 21
102.0758330975404
 31
0.0
  0
LINE
  5
A2
330
2F
100
AcDbEntity
  8
-15N-THT. THIẾT BỊ ĐÓNG MỞ
100
AcDbLine
 10
-24.76193549781988
 20
123.0526991246497
 30
0.0
 11
-24.76193549781988
 21
123.0526991246497
 31
0.0
  0
LINE
  5
A3
330
2F
100
AcDbEntity
  8
-15N-THT. THIẾT BỊ ĐÓNG MỞ
100
AcDbLine
 10
-20.42030038885014
 20
120.5460549257695
 30
0.0
 11
-20.42030038885014
 21
120.5460549257695
 31
0.0
  0
LINE
  5
A4
330
2F
100
AcDbEntity
  8
-15N-THT. THIẾT BỊ ĐÓNG MỞ
100
AcDbLine
 10
-30.83198082731997
 20
126.5572414296293
 30
0.0
 11
-30.83198082731997
 21
126.5572414296293
 31
0.0
  0
LINE
  5
A5
330
2F
100
AcDbEntity
  8
-15N-THT. THIẾT BỊ ĐÓNG MỞ
100
AcDbLine
 10
-26.49684299240016
 20
124.0543484336704
 30
0.0
 11
-26.49684299240016
 21
124.0543484336704
 31
0.0
  0
LINE
  5
A6
330
2F
100
AcDbEntity
  8
-15N-THT. THIẾT BỊ ĐÓNG MỞ
100
AcDbLine
 10
-36.81176131025996
 20
130.0096693011492
 30
0.0
 11
-36.81176131025996
 21
130.0096693011492
 31
0.0
  0
LINE
  5
A7
330
2F
100
AcDbEntity
  8
-15N-THT. THIẾT BỊ ĐÓNG MỞ
100
AcDbLine
 10
-12.00000000000023
 20
125.4064392373893
 30
0.0
 11
-12.00000000000023
 21
125.4064392373893
 31
0.0
  0
LINE
  5
A8
330
2F
100
AcDbEntity
  8
-15N-THT. THIẾT BỊ ĐÓNG MỞ
100
AcDbLine
 10
-1.578432583507947
 20
120.54424502248
 30
0.0
 11
-1.578432583507947
 21
120.54424502248
 31
0.0
  0
LINE
  5
A9
330
2F
100
AcDbEntity
  8
-15N-THT. THIẾT BỊ ĐÓNG MỞ
100
AcDbLine
 10
-10.00000000000023
 20
125.4064392373893
 30
0.0
 11
-10.00000000000023
 21
125.4064392373893
 31
0.0
  0
LINE
  5
AA
330
2F
100
AcDbEntity
  8
-15N-THT. THIẾT BỊ ĐÓNG MỞ
100
AcDbLine
 10
-12.00000000000023
 20
102.4935607626103
 30
0.0
 11
-12.00000000000023
 21
102.4935607626103
 31
0.0
  0
LINE
  5
AB
330
2F
100
AcDbEntity
  8
-15N-THT. THIẾT BỊ ĐÓNG MỞ
100
AcDbLine
 10
-21.42156741649001
 20
109.0878057850896
 30
0.0
 11
-21.42156741649001
 21
109.0878057850896
 31
0.0
  0
LINE
  5
AC
330
2F
100
AcDbEntity
  8
-15N-THT. THIẾT BỊ ĐÓNG MỞ
100
AcDbLine
 10
-10.00000000000023
 20
102.4935607626103
 30
0.0
 11
-10.00000000000023
 21
102.4935607626103
 31
0.0
  0
LINE
  5
AD
330
2F
100
AcDbEntity
  8
-15N-THT. THIẾT BỊ ĐÓNG MỞ
100
AcDbLine
 10
-12.00000000000023
 20
142.9497517230757
 30
0.0
 11
-12.00000000000023
 21
142.9497517230757
 31
0.0
  0
LINE
  5
AE
330
2F
100
AcDbEntity
  8
-15N-THT. THIẾT BỊ ĐÓNG MỞ
100
AcDbLine
 10
-12.00000000000023
 20
132.4229532019089
 30
0.0
 11
-12.00000000000023
 21
132.4229532019089
 31
0.0
  0
LINE
  5
AF
330
2F
100
AcDbEntity
  8
-15N-THT. THIẾT BỊ ĐÓNG MỞ
100
AcDbLine
 10
-12.00000000000023
 20
137.4287137637475
 30
0.0
 11
-12.00000000000023
 21
137.4287137637475
 31
0.0
  0
LINE
  5
B0
330
2F
100
AcDbEntity
  8
-15N-THT. THIẾT BỊ ĐÓNG MỞ
100
AcDbLine
 10
-12.00000000000023
 20
130.4196690919998
 30
0.0
 11
-12.00000000000023
 21
130.4196690919998
 31
0.0
  0
LINE
  5
B1
330
2F
100
AcDbEntity
  8
-15N-THT. THIẾT BỊ ĐÓNG MỞ
100
AcDbLine
 10
-20.12000000000012
 20
142.9497517230757
 30
0.0
 11
-20.12000000000012
 21
142.9497517230757
 31
0.0
  0
LINE
  5
B2
330
2F
100
AcDbEntity
  8
-15N-THT. THIẾT BỊ ĐÓNG MỞ
100
AcDbLine
 10
-10.00000000000023
 20
142.9497517230757
 30
0.0
 11
-10.00000000000023
 21
142.9497517230757
 31
0.0
  0
LINE
  5
B3
330
2F
100
AcDbEntity
  8
-15N-THT. THIẾT BỊ ĐÓNG MỞ
100
AcDbLine
 10
-1.880000000000109
 20
142.9497517230757
 30
0.0
 11
-1.880000000000109
 21
142.9497517230757
 31
0.0
  0
LINE
  5
B4
330
2F
100
AcDbEntity
  8
-15N-THT. THIẾT BỊ ĐÓNG MỞ
100
AcDbLine
 10
-37.81396224630021
 20
128.2738063605302
 30
0.0
 11
-37.81396224630021
 21
128.2738063605302
 31
0.0
  0
LINE
  5
B5
330
2F
100
AcDbEntity
  8
-15N-THT. THIẾT BỊ ĐÓNG MỞ
100
AcDbLine
 10
-40.00000000000023
 20
123.0692104921399
 30
0.0
 11
-40.00000000000023
 21
123.0692104921399
 31
0.0
  0
LINE
  5
B6
330
2F
100
AcDbEntity
  8
-15N-THT. THIẾT BỊ ĐÓNG MỞ
100
AcDbLine
 10
-10.00000000000023
 20
90.47128623625031
 30
0.0
 11
-10.00000000000023
 21
90.47128623625031
 31
0.0
  0
LINE
  5
B7
330
2F
100
AcDbEntity
  8
-15N-THT. THIẾT BỊ ĐÓNG MỞ
100
AcDbLine
 10
-12.00000000000023
 20
90.47128623625031
 30
0.0
 11
-12.00000000000023
 21
90.47128623625031
 31
0.0
  0
LINE
  5
B8
330
2F
100
AcDbEntity
  8
-15N-THT. THIẾT BỊ ĐÓNG MỞ
100
AcDbLine
 10
8.833162567588943
 20
126.55538228566
 30
0.0
 11
8.833162567588943
 21
126.55538228566
 31
0.0
  0
LINE
  5
B9
330
2F
100
AcDbEntity
  8
-15N-THT. THIẾT BỊ ĐÓNG MỞ
100
AcDbLine
 10
-10.00000000000023
 20
137.4287137637475
 30
0.0
 11
-10.00000000000023
 21
137.4287137637475
 31
0.0
  0
LINE
  5
BA
330
2F
100
AcDbEntity
  8
-15N-THT. THIẾT BỊ ĐÓNG MỞ
100
AcDbLine
 10
-31.83316256759008
 20
103.0766685219096
 30
0.0
 11
-31.83316256759008
 21
103.0766685219096
 31
0.0
  0
LINE
  5
BB
330
2F
100
AcDbEntity
  8
-15N-THT. THIẾT BỊ ĐÓNG MỞ
100
AcDbLine
 10
-10.00000000000023
 20
95.47704679809067
 30
0.0
 11
-10.00000000000023
 21
95.47704679809067
 31
0.0
  0
LINE
  5
BC
330
2F
100
AcDbEntity
  8
-15N-THT. THIẾT BỊ ĐÓNG MỞ
100
AcDbLine
 10
-10.00000000000023
 20
97.48033090799981
 30
0.0
 11
-10.00000000000023
 21
97.48033090799981
 31
0.0
  0
LINE
  5
BD
330
2F
100
AcDbEntity
  8
-15N-THT. THIẾT BỊ ĐÓNG MỞ
100
AcDbLine
 10
4.498046755776158
 20
124.0525020047407
 30
0.0
 11
4.498046755776158
 21
124.0525020047407
 31
0.0
  0
LINE
  5
BE
330
2F
100
AcDbEntity
  8
-15N-THT. THIẾT BỊ ĐÓNG MỞ
100
AcDbLine
 10
-10.00000000000023
 20
132.4229532019089
 30
0.0
 11
-10.00000000000023
 21
132.4229532019089
 31
0.0
  0
LINE
  5
BF
330
2F
100
AcDbEntity
  8
-15N-THT. THIẾT BỊ ĐÓNG MỞ
100
AcDbLine
 10
-12.00000000000023
 20
95.47704679809067
 30
0.0
 11
-12.00000000000023
 21
95.47704679809067
 31
0.0
  0
LINE
  5
C0
330
2F
100
AcDbEntity
  8
-15N-THT. THIẾT BỊ ĐÓNG MỞ
100
AcDbLine
 10
-27.49804675578003
 20
105.5795488028307
 30
0.0
 11
-27.49804675578003
 21
105.5795488028307
 31
0.0
  0
LINE
  5
C1
330
2F
100
AcDbEntity
  8
-15N-THT. THIẾT BỊ ĐÓNG MỞ
100
AcDbLine
 10
14.81292458089979
 20
130.0077994937292
 30
0.0
 11
14.81292458089979
 21
130.0077994937292
 31
0.0
  0
LINE
  5
C2
330
2F
100
AcDbEntity
  8
-15N-THT. THIẾT BỊ ĐÓNG MỞ
100
AcDbLine
 10
2.763151825595741
 20
123.0508599497807
 30
0.0
 11
2.763151825595741
 21
123.0508599497807
 31
0.0
  0
LINE
  5
C3
330
2F
100
AcDbEntity
  8
-15N-THT. THIẾT BỊ ĐÓNG MỞ
100
AcDbLine
 10
15.81292458089979
 20
128.2757486861592
 30
0.0
 11
15.81292458089979
 21
128.2757486861592
 31
0.0
  0
LINE
  5
C4
330
2F
100
AcDbEntity
  8
-15N-THT. THIẾT BỊ ĐÓNG MỞ
100
AcDbLine
 10
17.99999999999977
 20
123.0692104921399
 30
0.0
 11
17.99999999999977
 21
123.0692104921399
 31
0.0
  0
LINE
  5
C5
330
2F
100
AcDbEntity
  8
-15N-THT. THIẾT BỊ ĐÓNG MỞ
100
AcDbLine
 10
-12.00000000000023
 20
97.48033090799981
 30
0.0
 11
-12.00000000000023
 21
97.48033090799981
 31
0.0
  0
LINE
  5
C6
330
2F
100
AcDbEntity
  8
-15N-THT. THIẾT BỊ ĐÓNG MỞ
100
AcDbLine
 10
-10.00000000000023
 20
130.4196690919998
 30
0.0
 11
-10.00000000000023
 21
130.4196690919998
 31
0.0
  0
LINE
  5
C7
330
2F
100
AcDbEntity
  8
-15N-THT. THIẾT BỊ ĐÓNG MỞ
100
AcDbLine
 10
-25.76315182560006
 20
106.5811908577798
 30
0.0
 11
-25.76315182560006
 21
106.5811908577798
 31
0.0
  0
LINE
  5
C8
330
2F
100
AcDbEntity
  8
-15N-THT. THIẾT BỊ ĐÓNG MỞ
100
AcDbLine
 10
-51.40000000000009
 20
93.95000000000071
 30
0.0
 11
-51.40000000000009
 21
93.95000000000071
 31
0.0
  0
ARC
  5
C9
330
2F
100
AcDbEntity
  8
-15N-THT. THIẾT BỊ ĐÓNG MỞ
100
AcDbCircle
 10
-48.40000000000009
 20
93.95000000000071
 30
0.0
 40
3.0
100
AcDbArc
 50
180.0
 51
1.98478402058e-05
  0
LINE
  5
CA
330
2F
100
AcDbEntity
  8
-15N-THT. THIẾT BỊ ĐÓNG MỞ
100
AcDbLine
 10
-45.40000000000008
 20
93.95000000000071
 30
0.0
 11
-45.40000000000008
 21
93.95000000000071
 31
0.0
  0
LINE
  5
CB
330
2F
100
AcDbEntity
  8
-15N-THT. THIẾT BỊ ĐÓNG MỞ
100
AcDbLine
 10
-45.40000000000008
 20
137.9500000000007
 30
0.0
 11
-45.40000000000008
 21
93.95000000000071
 31
0.0
  0
LINE
  5
CC
330
2F
100
AcDbEntity
  8
-15N-THT. THIẾT BỊ ĐÓNG MỞ
100
AcDbLine
 10
-45.40000000000008
 20
137.9500000000007
 30
0.0
 11
-45.40000000000008
 21
137.9500000000007
 31
0.0
  0
ARC
  5
CD
330
2F
100
AcDbEntity
  8
-15N-THT. THIẾT BỊ ĐÓNG MỞ
100
AcDbCircle
 10
-48.40000000000009
 20
137.9500000000007
 30
0.0
 40
3.0
100
AcDbArc
 50
1.98478402058e-05
 51
180.0
  0
LINE
  5
CE
330
2F
100
AcDbEntity
  8
-15N-THT. THIẾT BỊ ĐÓNG MỞ
100
AcDbLine
 10
-51.40000000000009
 20
137.9500000000007
 30
0.0
 11
-51.40000000000009
 21
137.9500000000007
 31
0.0
  0
LINE
  5
CF
330
2F
100
AcDbEntity
  8
-15N-THT. THIẾT BỊ ĐÓNG MỞ
100
AcDbLine
 10
-51.40000000000009
 20
93.95000000000071
 30
0.0
 11
-51.40000000000009
 21
137.9500000000007
 31
0.0
  0
LINE
  5
D0
330
2F
100
AcDbEntity
  8
-15N-THT. THIẾT BỊ ĐÓNG MỞ
100
AcDbLine
 10
-42.60000000000013
 20
93.95000000000071
 30
0.0
 11
-42.60000000000013
 21
93.95000000000071
 31
0.0
  0
ARC
  5
D1
330
2F
100
AcDbEntity
  8
-15N-THT. THIẾT BỊ ĐÓNG MỞ
100
AcDbCircle
 10
-39.60000000000014
 20
93.95000000000071
 30
0.0
 40
3.0
100
AcDbArc
 50
180.0
 51
1.98478402058e-05
  0
LINE
  5
D2
330
2F
100
AcDbEntity
  8
-15N-THT. THIẾT BỊ ĐÓNG MỞ
100
AcDbLine
 10
-36.60000000000014
 20
93.95000000000071
 30
0.0
 11
-36.60000000000014
 21
93.95000000000071
 31
0.0
  0
LINE
  5
D3
330
2F
100
AcDbEntity
  8
-15N-THT. THIẾT BỊ ĐÓNG MỞ
100
AcDbLine
 10
-36.60000000000014
 20
137.9500000000007
 30
0.0
 11
-36.60000000000014
 21
93.95000000000071
 31
0.0
  0
LINE
  5
D4
330
2F
100
AcDbEntity
  8
-15N-THT. THIẾT BỊ ĐÓNG MỞ
100
AcDbLine
 10
-36.60000000000014
 20
137.9500000000007
 30
0.0
 11
-36.60000000000014
 21
137.9500000000007
 31
0.0
  0
ARC
  5
D5
330
2F
100
AcDbEntity
  8
-15N-THT. THIẾT BỊ ĐÓNG MỞ
100
AcDbCircle
 10
-39.60000000000014
 20
137.9500000000007
 30
0.0
 40
3.0
100
AcDbArc
 50
1.98478402058e-05
 51
180.0
  0
LINE
  5
D6
330
2F
100
AcDbEntity
  8
-15N-THT. THIẾT BỊ ĐÓNG MỞ
100
AcDbLine
 10
-42.60000000000013
 20
137.9500000000007
 30
0.0
 11
-42.60000000000013
 21
137.9500000000007
 31
0.0
  0
LINE
  5
D7
330
2F
100
AcDbEntity
  8
-15N-THT. THIẾT BỊ ĐÓNG MỞ
100
AcDbLine
 10
-42.60000000000013
 20
93.95000000000071
 30
0.0
 11
-42.60000000000013
 21
137.9500000000007
 31
0.0
  0
LINE
  5
D8
330
2F
100
AcDbEntity
  8
-15N-THT. THIẾT BỊ ĐÓNG MỞ
100
AcDbLine
 10
-33.80000000000018
 20
93.95000000000071
 30
0.0
 11
-33.80000000000018
 21
93.95000000000071
 31
0.0
  0
ARC
  5
D9
330
2F
100
AcDbEntity
  8
-15N-THT. THIẾT BỊ ĐÓNG MỞ
100
AcDbCircle
 10
-30.79999999999996
 20
93.95000000000071
 30
0.0
 40
3.0
100
AcDbArc
 50
180.0
 51
1.98478402058e-05
  0
LINE
  5
DA
330
2F
100
AcDbEntity
  8
-15N-THT. THIẾT BỊ ĐÓNG MỞ
100
AcDbLine
 10
-27.79999999999996
 20
93.95000000000071
 30
0.0
 11
-27.79999999999996
 21
93.95000000000071
 31
0.0
  0
LINE
  5
DB
330
2F
100
AcDbEntity
  8
-15N-THT. THIẾT BỊ ĐÓNG MỞ
100
AcDbLine
 10
-27.79999999999996
 20
137.9500000000007
 30
0.0
 11
-27.79999999999996
 21
93.95000000000071
 31
0.0
  0
LINE
  5
DC
330
2F
100
AcDbEntity
  8
-15N-THT. THIẾT BỊ ĐÓNG MỞ
100
AcDbLine
 10
-27.79999999999996
 20
137.9500000000007
 30
0.0
 11
-27.79999999999996
 21
137.9500000000007
 31
0.0
  0
ARC
  5
DD
330
2F
100
AcDbEntity
  8
-15N-THT. THIẾT BỊ ĐÓNG MỞ
100
AcDbCircle
 10
-30.79999999999996
 20
137.9500000000007
 30
0.0
 40
3.0
100
AcDbArc
 50
359.9999801521598
 51
180.0
  0
LINE
  5
DE
330
2F
100
AcDbEntity
  8
-15N-THT. THIẾT BỊ ĐÓNG MỞ
100
AcDbLine
 10
-33.80000000000018
 20
137.9500000000007
 30
0.0
 11
-33.80000000000018
 21
137.9500000000007
 31
0.0
  0
LINE
  5
DF
330
2F
100
AcDbEntity
  8
-15N-THT. THIẾT BỊ ĐÓNG MỞ
100
AcDbLine
 10
-33.80000000000018
 20
93.95000000000071
 30
0.0
 11
-33.80000000000018
 21
137.9500000000007
 31
0.0
  0
LINE
  5
E0
330
2F
100
AcDbEntity
  8
-15N-THT. THIẾT BỊ ĐÓNG MỞ
100
AcDbLine
 10
-25.00000000000023
 20
93.95000000000071
 30
0.0
 11
-25.00000000000023
 21
93.95000000000071
 31
0.0
  0
ARC
  5
E1
330
2F
100
AcDbEntity
  8
-15N-THT. THIẾT BỊ ĐÓNG MỞ
100
AcDbCircle
 10
-22.00000000000023
 20
93.95000000000071
 30
0.0
 40
3.0
100
AcDbArc
 50
180.0
 51
1.98478402058e-05
  0
LINE
  5
E2
330
2F
100
AcDbEntity
  8
-15N-THT. THIẾT BỊ ĐÓNG MỞ
100
AcDbLine
 10
-19.00000000000023
 20
93.95000000000071
 30
0.0
 11
-19.00000000000023
 21
93.95000000000071
 31
0.0
  0
LINE
  5
E3
330
2F
100
AcDbEntity
  8
-15N-THT. THIẾT BỊ ĐÓNG MỞ
100
AcDbLine
 10
-19.00000000000023
 20
137.9500000000007
 30
0.0
 11
-19.00000000000023
 21
93.95000000000071
 31
0.0
  0
LINE
  5
E4
330
2F
100
AcDbEntity
  8
-15N-THT. THIẾT BỊ ĐÓNG MỞ
100
AcDbLine
 10
-19.00000000000023
 20
137.9500000000007
 30
0.0
 11
-19.00000000000023
 21
137.9500000000007
 31
0.0
  0
ARC
  5
E5
330
2F
100
AcDbEntity
  8
-15N-THT. THIẾT BỊ ĐÓNG MỞ
100
AcDbCircle
 10
-22.00000000000023
 20
137.9500000000007
 30
0.0
 40
3.0
100
AcDbArc
 50
1.98478402058e-05
 51
180.0
  0
LINE
  5
E6
330
2F
100
AcDbEntity
  8
-15N-THT. THIẾT BỊ ĐÓNG MỞ
100
AcDbLine
 10
-25.00000000000023
 20
137.9500000000007
 30
0.0
 11
-25.00000000000023
 21
137.9500000000007
 31
0.0
  0
LINE
  5
E7
330
2F
100
AcDbEntity
  8
-15N-THT. THIẾT BỊ ĐÓNG MỞ
100
AcDbLine
 10
-25.00000000000023
 20
93.95000000000071
 30
0.0
 11
-25.00000000000023
 21
137.9500000000007
 31
0.0
  0
LINE
  5
E8
330
2F
100
AcDbEntity
  8
-15N-THT. THIẾT BỊ ĐÓNG MỞ
100
AcDbLine
 10
-16.20000000000004
 20
93.95000000000071
 30
0.0
 11
-16.20000000000004
 21
93.95000000000071
 31
0.0
  0
ARC
  5
E9
330
2F
100
AcDbEntity
  8
-15N-THT. THIẾT BỊ ĐÓNG MỞ
100
AcDbCircle
 10
-13.20000000000004
 20
93.95000000000071
 30
0.0
 40
3.0
100
AcDbArc
 50
180.0
 51
1.98478402058e-05
  0
LINE
  5
EA
330
2F
100
AcDbEntity
  8
-15N-THT. THIẾT BỊ ĐÓNG MỞ
100
AcDbLine
 10
-10.20000000000004
 20
93.95000000000071
 30
0.0
 11
-10.20000000000004
 21
93.95000000000071
 31
0.0
  0
LINE
  5
EB
330
2F
100
AcDbEntity
  8
-15N-THT. THIẾT BỊ ĐÓNG MỞ
100
AcDbLine
 10
-10.20000000000004
 20
137.9500000000007
 30
0.0
 11
-10.20000000000004
 21
93.95000000000071
 31
0.0
  0
LINE
  5
EC
330
2F
100
AcDbEntity
  8
-15N-THT. THIẾT BỊ ĐÓNG MỞ
100
AcDbLine
 10
-10.20000000000004
 20
137.9500000000007
 30
0.0
 11
-10.20000000000004
 21
137.9500000000007
 31
0.0
  0
ARC
  5
ED
330
2F
100
AcDbEntity
  8
-15N-THT. THIẾT BỊ ĐÓNG MỞ
100
AcDbCircle
 10
-13.20000000000004
 20
137.9500000000007
 30
0.0
 40
3.0
100
AcDbArc
 50
1.98478402058e-05
 51
180.0
  0
LINE
  5
EE
330
2F
100
AcDbEntity
  8
-15N-THT. THIẾT BỊ ĐÓNG MỞ
100
AcDbLine
 10
-16.20000000000004
 20
137.9500000000007
 30
0.0
 11
-16.20000000000004
 21
137.9500000000007
 31
0.0
  0
LINE
  5
EF
330
2F
100
AcDbEntity
  8
-15N-THT. THIẾT BỊ ĐÓNG MỞ
100
AcDbLine
 10
-16.20000000000004
 20
93.95000000000071
 30
0.0
 11
-16.20000000000004
 21
137.9500000000007
 31
0.0
  0
LINE
  5
F0
330
2F
100
AcDbEntity
  8
-15N-THT. THIẾT BỊ ĐÓNG MỞ
100
AcDbLine
 10
-7.399999999999863
 20
93.95000000000071
 30
0.0
 11
-7.399999999999863
 21
93.95000000000071
 31
0.0
  0
ARC
  5
F1
330
2F
100
AcDbEntity
  8
-15N-THT. THIẾT BỊ ĐÓNG MỞ
100
AcDbCircle
 10
-4.40000000000009
 20
93.95000000000071
 30
0.0
 40
3.0
100
AcDbArc
 50
180.0
 51
1.98478402058e-05
  0
LINE
  5
F2
330
2F
100
AcDbEntity
  8
-15N-THT. THIẾT BỊ ĐÓNG MỞ
100
AcDbLine
 10
-1.400000000000318
 20
93.95000000000071
 30
0.0
 11
-1.400000000000318
 21
93.95000000000071
 31
0.0
  0
LINE
  5
F3
330
2F
100
AcDbEntity
  8
-15N-THT. THIẾT BỊ ĐÓNG MỞ
100
AcDbLine
 10
-1.400000000000318
 20
137.9500000000007
 30
0.0
 11
-1.400000000000318
 21
93.95000000000071
 31
0.0
  0
LINE
  5
F4
330
2F
100
AcDbEntity
  8
-15N-THT. THIẾT BỊ ĐÓNG MỞ
100
AcDbLine
 10
-1.400000000000318
 20
137.9500000000007
 30
0.0
 11
-1.400000000000318
 21
137.9500000000007
 31
0.0
  0
ARC
  5
F5
330
2F
100
AcDbEntity
  8
-15N-THT. THIẾT BỊ ĐÓNG MỞ
100
AcDbCircle
 10
-4.40000000000009
 20
137.9500000000007
 30
0.0
 40
3.0
100
AcDbArc
 50
1.98478402058e-05
 51
180.0
  0
LINE
  5
F6
330
2F
100
AcDbEntity
  8
-15N-THT. THIẾT BỊ ĐÓNG MỞ
100
AcDbLine
 10
-7.399999999999863
 20
137.9500000000007
 30
0.0
 11
-7.399999999999863
 21
137.9500000000007
 31
0.0
  0
LINE
  5
F7
330
2F
100
AcDbEntity
  8
-15N-THT. THIẾT BỊ ĐÓNG MỞ
100
AcDbLine
 10
-7.399999999999863
 20
93.95000000000071
 30
0.0
 11
-7.399999999999863
 21
137.9500000000007
 31
0.0
  0
LINE
  5
F8
330
2F
100
AcDbEntity
  8
-15N-THT. THIẾT BỊ ĐÓNG MỞ
100
AcDbLine
 10
1.399999999999863
 20
93.95000000000071
 30
0.0
 11
1.399999999999863
 21
93.95000000000071
 31
0.0
  0
ARC
  5
F9
330
2F
100
AcDbEntity
  8
-15N-THT. THIẾT BỊ ĐÓNG MỞ
100
AcDbCircle
 10
4.399999999999863
 20
93.95000000000071
 30
0.0
 40
3.0
100
AcDbArc
 50
180.0
 51
1.98478402058e-05
  0
LINE
  5
FA
330
2F
100
AcDbEntity
  8
-15N-THT. THIẾT BỊ ĐÓNG MỞ
100
AcDbLine
 10
7.399999999999863
 20
93.95000000000071
 30
0.0
 11
7.399999999999863
 21
93.95000000000071
 31
0.0
  0
LINE
  5
FB
330
2F
100
AcDbEntity
  8
-15N-THT. THIẾT BỊ ĐÓNG MỞ
100
AcDbLine
 10
7.399999999999863
 20
137.9500000000007
 30
0.0
 11
7.399999999999863
 21
93.95000000000071
 31
0.0
  0
LINE
  5
FC
330
2F
100
AcDbEntity
  8
-15N-THT. THIẾT BỊ ĐÓNG MỞ
100
AcDbLine
 10
7.399999999999863
 20
137.9500000000007
 30
0.0
 11
7.399999999999863
 21
137.9500000000007
 31
0.0
  0
ARC
  5
FD
330
2F
100
AcDbEntity
  8
-15N-THT. THIẾT BỊ ĐÓNG MỞ
100
AcDbCircle
 10
4.399999999999863
 20
137.9500000000007
 30
0.0
 40
3.0
100
AcDbArc
 50
1.98478402058e-05
 51
180.0
  0
LINE
  5
FE
330
2F
100
AcDbEntity
  8
-15N-THT. THIẾT BỊ ĐÓNG MỞ
100
AcDbLine
 10
1.399999999999863
 20
137.9500000000007
 30
0.0
 11
1.399999999999863
 21
137.9500000000007
 31
0.0
  0
LINE
  5
FF
330
2F
100
AcDbEntity
  8
-15N-THT. THIẾT BỊ ĐÓNG MỞ
100
AcDbLine
 10
1.399999999999863
 20
93.95000000000071
 30
0.0
 11
1.399999999999863
 21
137.9500000000007
 31
0.0
  0
LINE
  5
100
330
2F
100
AcDbEntity
  8
-15N-THT. THIẾT BỊ ĐÓNG MỞ
100
AcDbLine
 10
10.20000000000004
 20
93.95000000000071
 30
0.0
 11
10.20000000000004
 21
93.95000000000071
 31
0.0
  0
ARC
  5
101
330
2F
100
AcDbEntity
  8
-15N-THT. THIẾT BỊ ĐÓNG MỞ
100
AcDbCircle
 10
13.20000000000004
 20
93.95000000000071
 30
0.0
 40
3.0
100
AcDbArc
 50
180.0
 51
1.98478402058e-05
  0
LINE
  5
102
330
2F
100
AcDbEntity
  8
-15N-THT. THIẾT BỊ ĐÓNG MỞ
100
AcDbLine
 10
16.19999999999982
 20
93.95000000000071
 30
0.0
 11
16.19999999999982
 21
93.95000000000071
 31
0.0
  0
LINE
  5
103
330
2F
100
AcDbEntity
  8
-15N-THT. THIẾT BỊ ĐÓNG MỞ
100
AcDbLine
 10
16.19999999999982
 20
137.9500000000007
 30
0.0
 11
16.19999999999982
 21
93.95000000000071
 31
0.0
  0
LINE
  5
104
330
2F
100
AcDbEntity
  8
-15N-THT. THIẾT BỊ ĐÓNG MỞ
100
AcDbLine
 10
16.19999999999982
 20
137.9500000000007
 30
0.0
 11
16.19999999999982
 21
137.9500000000007
 31
0.0
  0
ARC
  5
105
330
2F
100
AcDbEntity
  8
-15N-THT. THIẾT BỊ ĐÓNG MỞ
100
AcDbCircle
 10
13.20000000000004
 20
137.9500000000007
 30
0.0
 40
3.0
100
AcDbArc
 50
1.98478402058e-05
 51
180.0
  0
LINE
  5
106
330
2F
100
AcDbEntity
  8
-15N-THT. THIẾT BỊ ĐÓNG MỞ
100
AcDbLine
 10
10.20000000000004
 20
137.9500000000007
 30
0.0
 11
10.20000000000004
 21
137.9500000000007
 31
0.0
  0
LINE
  5
107
330
2F
100
AcDbEntity
  8
-15N-THT. THIẾT BỊ ĐÓNG MỞ
100
AcDbLine
 10
10.20000000000004
 20
93.95000000000071
 30
0.0
 11
10.20000000000004
 21
137.9500000000007
 31
0.0
  0
LINE
  5
108
330
2F
100
AcDbEntity
  8
-15N-THT. THIẾT BỊ ĐÓNG MỞ
100
AcDbLine
 10
18.99999999999977
 20
93.95000000000071
 30
0.0
 11
18.99999999999977
 21
93.95000000000071
 31
0.0
  0
ARC
  5
109
330
2F
100
AcDbEntity
  8
-15N-THT. THIẾT BỊ ĐÓNG MỞ
100
AcDbCircle
 10
21.99999999999977
 20
93.95000000000071
 30
0.0
 40
3.0
100
AcDbArc
 50
180.0
 51
1.98478402058e-05
  0
LINE
  5
10A
330
2F
100
AcDbEntity
  8
-15N-THT. THIẾT BỊ ĐÓNG MỞ
100
AcDbLine
 10
24.99999999999977
 20
93.95000000000071
 30
0.0
 11
24.99999999999977
 21
93.95000000000071
 31
0.0
  0
LINE
  5
10B
330
2F
100
AcDbEntity
  8
-15N-THT. THIẾT BỊ ĐÓNG MỞ
100
AcDbLine
 10
24.99999999999977
 20
137.9500000000007
 30
0.0
 11
24.99999999999977
 21
93.95000000000071
 31
0.0
  0
LINE
  5
10C
330
2F
100
AcDbEntity
  8
-15N-THT. THIẾT BỊ ĐÓNG MỞ
100
AcDbLine
 10
24.99999999999977
 20
137.9500000000007
 30
0.0
 11
24.99999999999977
 21
137.9500000000007
 31
0.0
  0
ARC
  5
10D
330
2F
100
AcDbEntity
  8
-15N-THT. THIẾT BỊ ĐÓNG MỞ
100
AcDbCircle
 10
21.99999999999977
 20
137.9500000000007
 30
0.0
 40
3.0
100
AcDbArc
 50
1.98478402058e-05
 51
180.0
  0
LINE
  5
10E
330
2F
100
AcDbEntity
  8
-15N-THT. THIẾT BỊ ĐÓNG MỞ
100
AcDbLine
 10
18.99999999999977
 20
137.9500000000007
 30
0.0
 11
18.99999999999977
 21
137.9500000000007
 31
0.0
  0
LINE
  5
10F
330
2F
100
AcDbEntity
  8
-15N-THT. THIẾT BỊ ĐÓNG MỞ
100
AcDbLine
 10
18.99999999999977
 20
93.95000000000071
 30
0.0
 11
18.99999999999977
 21
137.9500000000007
 31
0.0
  0
LINE
  5
110
330
2F
100
AcDbEntity
  8
-15N-THT. THIẾT BỊ ĐÓNG MỞ
100
AcDbLine
 10
27.79999999999996
 20
93.95000000000071
 30
0.0
 11
27.79999999999996
 21
93.95000000000071
 31
0.0
  0
ARC
  5
111
330
2F
100
AcDbEntity
  8
-15N-THT. THIẾT BỊ ĐÓNG MỞ
100
AcDbCircle
 10
30.79999999999996
 20
93.95000000000071
 30
0.0
 40
3.0
100
AcDbArc
 50
180.0
 51
359.9999801521598
  0
LINE
  5
112
330
2F
100
AcDbEntity
  8
-15N-THT. THIẾT BỊ ĐÓNG MỞ
100
AcDbLine
 10
33.79999999999995
 20
93.95000000000071
 30
0.0
 11
33.79999999999995
 21
93.95000000000071
 31
0.0
  0
LINE
  5
113
330
2F
100
AcDbEntity
  8
-15N-THT. THIẾT BỊ ĐÓNG MỞ
100
AcDbLine
 10
33.79999999999995
 20
137.9500000000007
 30
0.0
 11
33.79999999999995
 21
93.95000000000071
 31
0.0
  0
LINE
  5
114
330
2F
100
AcDbEntity
  8
-15N-THT. THIẾT BỊ ĐÓNG MỞ
100
AcDbLine
 10
33.79999999999995
 20
137.9500000000007
 30
0.0
 11
33.79999999999995
 21
137.9500000000007
 31
0.0
  0
ARC
  5
115
330
2F
100
AcDbEntity
  8
-15N-THT. THIẾT BỊ ĐÓNG MỞ
100
AcDbCircle
 10
30.79999999999996
 20
137.9500000000007
 30
0.0
 40
3.0
100
AcDbArc
 50
359.9999801521598
 51
180.0
  0
LINE
  5
116
330
2F
100
AcDbEntity
  8
-15N-THT. THIẾT BỊ ĐÓNG MỞ
100
AcDbLine
 10
27.79999999999996
 20
137.9500000000007
 30
0.0
 11
27.79999999999996
 21
137.9500000000007
 31
0.0
  0
LINE
  5
117
330
2F
100
AcDbEntity
  8
-15N-THT. THIẾT BỊ ĐÓNG MỞ
100
AcDbLine
 10
27.79999999999996
 20
93.95000000000071
 30
0.0
 11
27.79999999999996
 21
137.9500000000007
 31
0.0
  0
LINE
  5
118
330
2F
100
AcDbEntity
  8
-15N-THT. THIẾT BỊ ĐÓNG MỞ
100
AcDbLine
 10
36.59999999999991
 20
93.95000000000071
 30
0.0
 11
36.59999999999991
 21
93.95000000000071
 31
0.0
  0
ARC
  5
119
330
2F
100
AcDbEntity
  8
-15N-THT. THIẾT BỊ ĐÓNG MỞ
100
AcDbCircle
 10
39.59999999999968
 20
93.95000000000071
 30
0.0
 40
3.0
100
AcDbArc
 50
180.0
 51
1.98478402058e-05
  0
LINE
  5
11A
330
2F
100
AcDbEntity
  8
-15N-THT. THIẾT BỊ ĐÓNG MỞ
100
AcDbLine
 10
42.60000000000013
 20
93.95000000000071
 30
0.0
 11
42.60000000000013
 21
93.95000000000071
 31
0.0
  0
LINE
  5
11B
330
2F
100
AcDbEntity
  8
-15N-THT. THIẾT BỊ ĐÓNG MỞ
100
AcDbLine
 10
42.60000000000013
 20
137.9500000000007
 30
0.0
 11
42.60000000000013
 21
93.95000000000071
 31
0.0
  0
LINE
  5
11C
330
2F
100
AcDbEntity
  8
-15N-THT. THIẾT BỊ ĐÓNG MỞ
100
AcDbLine
 10
42.60000000000013
 20
137.9500000000007
 30
0.0
 11
42.60000000000013
 21
137.9500000000007
 31
0.0
  0
ARC
  5
11D
330
2F
100
AcDbEntity
  8
-15N-THT. THIẾT BỊ ĐÓNG MỞ
100
AcDbCircle
 10
39.59999999999968
 20
137.9500000000007
 30
0.0
 40
3.0
100
AcDbArc
 50
359.9999801521598
 51
180.0
  0
LINE
  5
11E
330
2F
100
AcDbEntity
  8
-15N-THT. THIẾT BỊ ĐÓNG MỞ
100
AcDbLine
 10
36.59999999999991
 20
137.9500000000007
 30
0.0
 11
36.59999999999991
 21
137.9500000000007
 31
0.0
  0
LINE
  5
11F
330
2F
100
AcDbEntity
  8
-15N-THT. THIẾT BỊ ĐÓNG MỞ
100
AcDbLine
 10
36.59999999999991
 20
93.95000000000071
 30
0.0
 11
36.59999999999991
 21
137.9500000000007
 31
0.0
  0
LINE
  5
120
330
2F
100
AcDbEntity
  8
-15N-THT. THIẾT BỊ ĐÓNG MỞ
100
AcDbLine
 10
45.39999999999986
 20
93.95000000000071
 30
0.0
 11
45.39999999999986
 21
93.95000000000071
 31
0.0
  0
ARC
  5
121
330
2F
100
AcDbEntity
  8
-15N-THT. THIẾT BỊ ĐÓNG MỞ
100
AcDbCircle
 10
48.39999999999986
 20
93.95000000000071
 30
0.0
 40
3.0
100
AcDbArc
 50
180.0
 51
1.98478402058e-05
  0
LINE
  5
122
330
2F
100
AcDbEntity
  8
-15N-THT. THIẾT BỊ ĐÓNG MỞ
100
AcDbLine
 10
51.39999999999986
 20
93.95000000000071
 30
0.0
 11
51.39999999999986
 21
93.95000000000071
 31
0.0
  0
LINE
  5
123
330
2F
100
AcDbEntity
  8
-15N-THT. THIẾT BỊ ĐÓNG MỞ
100
AcDbLine
 10
51.39999999999986
 20
137.9500000000007
 30
0.0
 11
51.39999999999986
 21
93.95000000000071
 31
0.0
  0
LINE
  5
124
330
2F
100
AcDbEntity
  8
-15N-THT. THIẾT BỊ ĐÓNG MỞ
100
AcDbLine
 10
51.39999999999986
 20
137.9500000000007
 30
0.0
 11
51.39999999999986
 21
137.9500000000007
 31
0.0
  0
ARC
  5
125
330
2F
100
AcDbEntity
  8
-15N-THT. THIẾT BỊ ĐÓNG MỞ
100
AcDbCircle
 10
48.39999999999986
 20
137.9500000000007
 30
0.0
 40
3.0
100
AcDbArc
 50
1.98478402058e-05
 51
180.0
  0
LINE
  5
126
330
2F
100
AcDbEntity
  8
-15N-THT. THIẾT BỊ ĐÓNG MỞ
100
AcDbLine
 10
45.39999999999986
 20
137.9500000000007
 30
0.0
 11
45.39999999999986
 21
137.9500000000007
 31
0.0
  0
LINE
  5
127
330
2F
100
AcDbEntity
  8
-15N-THT. THIẾT BỊ ĐÓNG MỞ
100
AcDbLine
 10
45.39999999999986
 20
93.95000000000071
 30
0.0
 11
45.39999999999986
 21
137.9500000000007
 31
0.0
  0
LINE
  5
128
330
2F
100
AcDbEntity
  8
-15N-THT. THIẾT BỊ ĐÓNG MỞ
100
AcDbLine
 10
1.999999999999772
 20
0.0
 30
0.0
 11
69.99999999999977
 21
0.0
 31
0.0
  0
LINE
  5
129
330
2F
100
AcDbEntity
  8
-15N-THT. THIẾT BỊ ĐÓNG MỞ
100
AcDbLine
 10
-44.7178569611101
 20
-12.20999999999913
 30
0.0
 11
-23.28214303889013
 21
-12.20999999999913
 31
0.0
  0
LINE
  5
12A
330
2F
100
AcDbEntity
  8
-15N-THT. THIẾT BỊ ĐÓNG MỞ
100
AcDbLine
 10
-34.00000000000023
 20
-6.049999999999272
 30
0.0
 11
-34.00000000000023
 21
-12.20999999999913
 31
0.0
  0
LINE
  5
12B
330
2F
100
AcDbEntity
  8
-15N-THT. THIẾT BỊ ĐÓNG MỞ
100
AcDbLine
 10
-23.28214329178377
 20
-12.21000361647384
 30
0.0
 11
-22.85139387732329
 21
-6.049999999999272
 31
0.0
  0
LINE
  5
12C
330
2F
100
AcDbEntity
  8
-15N-THT. THIẾT BỊ ĐÓNG MỞ
100
AcDbLine
 10
-45.14860612267717
 20
-6.049999999999272
 30
0.0
 11
-44.71785670821669
 21
-12.21000361647384
 31
0.0
  0
LINE
  5
12D
330
2F
100
AcDbEntity
  8
-15N-THT. THIẾT BỊ ĐÓNG MỞ
100
AcDbLine
 10
1.999999999999772
 20
-6.049999999999272
 30
0.0
 11
-70.00000000000023
 21
-6.049999999999272
 31
0.0
  0
LINE
  5
12E
330
2F
100
AcDbEntity
  8
-15N-THT. THIẾT BỊ ĐÓNG MỞ
100
AcDbLine
 10
-70.00000000000023
 20
145.9500000000007
 30
0.0
 11
-70.00000000000023
 21
-6.049999999999272
 31
0.0
  0
LINE
  5
12F
330
2F
100
AcDbEntity
  8
-15N-THT. THIẾT BỊ ĐÓNG MỞ
100
AcDbLine
 10
1.999999999999772
 20
-6.049999999999272
 30
0.0
 11
1.999999999999772
 21
0.0
 31
0.0
  0
LINE
  5
130
330
2F
100
AcDbEntity
  8
-15N-THT. THIẾT BỊ ĐÓNG MỞ
  6
DASHED
 62
6
100
AcDbLine
 10
0.0
 20
0.0
 30
0.0
 11
0.0
 21
145.9500000000007
 31
0.0
  0
LINE
  5
131
330
2F
100
AcDbEntity
  8
-15N-THT. THIẾT BỊ ĐÓNG MỞ
  6
DASHED
 62
6
100
AcDbLine
 10
-69.99999999999989
 20
75.95000000000074
 30
0.0
 11
69.99999999999989
 21
75.95000000000074
 31
0.0
  0
ENDBLK
  5
31
330
2F
100
AcDbEntity
  8
0
100
AcDbBlockEnd
  0
ENDSEC
  0
SECTION
  2
ENTITIES
  0
INSERT
  5
134
330
17
100
AcDbEntity
  8
0
100
AcDbBlockReference
  2
06 - N - SC VSD CHIẾU TRÊN ATV320U22~40N4C
 10
70.00000000000023
 20
12.21000361647384
 30
0.0
  0
ENDSEC
  0
SECTION
  2
OBJECTS
  0
DICTIONARY
  5
A
330
0
100
AcDbDictionary
281
1
  3
ACAD_COLOR
350
B
  3
ACAD_GROUP
350
C
  3
ACAD_LAYOUT
350
D
  3
ACAD_MATERIAL
350
E
  3
ACAD_MLEADERSTYLE
350
F
  3
ACAD_MLINESTYLE
350
10
  3
ACAD_PLOTSETTINGS
350
11
  3
ACAD_PLOTSTYLENAME
350
12
  3
ACAD_SCALELIST
350
14
  3
ACAD_TABLESTYLE
350
15
  3
ACAD_VISUALSTYLE
350
16
  3
EZDXF_META
350
2D
  0
DICTIONARY
  5
B
330
A
100
AcDbDictionary
281
1
  0
DICTIONARY
  5
C
330
A
100
AcDbDictionary
281
1
  0
DICTIONARY
  5
D
330
A
100
AcDbDictionary
281
1
  3
Model
350
1A
  3
Layout1
350
1E
  0
DICTIONARY
  5
E
330
A
100
AcDbDictionary
281
1
  3
ByBlock
350
1F
  3
ByLayer
350
20
  3
Global
350
21
  0
DICTIONARY
  5
F
330
A
100
AcDbDictionary
281
1
  3
Standard
350
2C
  0
DICTIONARY
  5
10
330
A
100
AcDbDictionary
281
1
  3
Standard
350
22
  0
DICTIONARY
  5
11
330
A
100
AcDbDictionary
281
1
  0
ACDBDICTIONARYWDFLT
  5
12
330
A
100
AcDbDictionary
281
1
  3
Normal
350
13
100
AcDbDictionaryWithDefault
340
13
  0
ACDBPLACEHOLDER
  5
13
330
12
  0
DICTIONARY
  5
14
330
A
100
AcDbDictionary
281
1
  0
DICTIONARY
  5
15
330
A
100
AcDbDictionary
281
1
  0
DICTIONARY
  5
16
330
A
100
AcDbDictionary
281
1
  0
LAYOUT
  5
1A
330
D
100
AcDbPlotSettings
  1

  4
A3
  6

 40
7.5
 41
20.0
 42
7.5
 43
20.0
 44
420.0
 45
297.0
 46
0.0
 47
0.0
 48
0.0
 49
0.0
140
0.0
141
0.0
142
1.0
143
1.0
 70
1024
 72
1
 73
0
 74
5
  7

 75
16
 76
0
 77
2
 78
300
147
1.0
148
0.0
149
0.0
100
AcDbLayout
  1
Model
 70
1
 71
0
 10
0.0
 20
0.0
 11
420.0
 21
297.0
 12
0.0
 22
0.0
 32
0.0
 14
1e+20
 24
1e+20
 34
1e+20
 15
-1e+20
 25
-1e+20
 35
-1e+20
146
0.0
 13
0.0
 23
0.0
 33
0.0
 16
1.0
 26
0.0
 36
0.0
 17
0.0
 27
1.0
 37
0.0
 76
1
330
17
  0
LAYOUT
  5
1E
330
D
100
AcDbPlotSettings
  1

  4
A3
  6

 40
7.5
 41
20.0
 42
7.5
 43
20.0
 44
420.0
 45
297.0
 46
0.0
 47
0.0
 48
0.0
 49
0.0
140
0.0
141
0.0
142
1.0
143
1.0
 70
0
 72
1
 73
0
 74
5
  7

 75
16
 76
0
 77
2
 78
300
147
1.0
148
0.0
149
0.0
100
AcDbLayout
  1
Layout1
 70
1
 71
1
 10
0.0
 20
0.0
 11
420.0
 21
297.0
 12
0.0
 22
0.0
 32
0.0
 14
1e+20
 24
1e+20
 34
1e+20
 15
-1e+20
 25
-1e+20
 35
-1e+20
146
0.0
 13
0.0
 23
0.0
 33
0.0
 16
1.0
 26
0.0
 36
0.0
 17
0.0
 27
1.0
 37
0.0
 76
1
330
1B
  0
MATERIAL
  5
1F
102
{ACAD_REACTORS
330
E
102
}
330
E
100
AcDbMaterial
  1
ByBlock
  2

 70
0
 40
1.0
 71
1
 41
1.0
 91
-1023410177
 42
1.0
 72
1
  3

 73
1
 74
1
 75
1
 44
0.5
 73
0
 45
1.0
 46
1.0
 77
1
  4

 78
1
 79
1
170
1
 48
1.0
171
1
  6

172
1
173
1
174
1
140
1.0
141
1.0
175
1
  7

176
1
177
1
178
1
143
1.0
179
1
  8

270
1
271
1
272
1
145
1.0
146
1.0
273
1
  9

274
1
275
1
276
1
 42
1.0
 72
1
  3

 73
1
 74
1
 75
1
 94
63
  0
MATERIAL
  5
20
102
{ACAD_REACTORS
330
E
102
}
330
E
100
AcDbMaterial
  1
ByLayer
  2

 70
0
 40
1.0
 71
1
 41
1.0
 91
-1023410177
 42
1.0
 72
1
  3

 73
1
 74
1
 75
1
 44
0.5
 73
0
 45
1.0
 46
1.0
 77
1
  4

 78
1
 79
1
170
1
 48
1.0
171
1
  6

172
1
173
1
174
1
140
1.0
141
1.0
175
1
  7

176
1
177
1
178
1
143
1.0
179
1
  8

270
1
271
1
272
1
145
1.0
146
1.0
273
1
  9

274
1
275
1
276
1
 42
1.0
 72
1
  3

 73
1
 74
1
 75
1
 94
63
  0
MATERIAL
  5
21
102
{ACAD_REACTORS
330
E
102
}
330
E
100
AcDbMaterial
  1
Global
  2

 70
0
 40
1.0
 71
1
 41
1.0
 91
-1023410177
 42
1.0
 72
1
  3

 73
1
 74
1
 75
1
 44
0.5
 73
0
 45
1.0
 46
1.0
 77
1
  4

 78
1
 79
1
170
1
 48
1.0
171
1
  6

172
1
173
1
174
1
140
1.0
141
1.0
175
1
  7

176
1
177
1
178
1
143
1.0
179
1
  8

270
1
271
1
272
1
145
1.0
146
1.0
273
1
  9

274
1
275
1
276
1
 42
1.0
 72
1
  3

 73
1
 74
1
 75
1
 94
63
  0
MLINESTYLE
  5
22
102
{ACAD_REACTORS
330
10
102
}
330
10
100
AcDbMlineStyle
  2
Standard
 70
0
  3

 62
256
 51
90.0
 52
90.0
 71
2
 49
0.5
 62
256
  6
BYLAYER
 49
-0.5
 62
256
  6
BYLAYER
  0
MLEADERSTYLE
  5
2C
102
{ACAD_REACTORS
330
F
102
}
330
F
100
AcDbMLeaderStyle
179
2
170
2
171
1
172
0
 90
2
 40
0.0
 41
0.0
173
1
 91
-1056964608
 92
-2
290
1
 42
2.0
291
1
 43
8.0
  3
Standard
 44
4.0
300

342
29
174
1
175
1
176
0
178
1
 93
-1056964608
 45
4.0
292
0
297
0
 46
4.0
 94
-1056964608
 47
1.0
 49
1.0
140
1.0
294
1
141
0.0
177
0
142
1.0
295
0
296
0
143
3.75
271
0
272
9
273
9
  0
DICTIONARY
  5
2D
330
A
100
AcDbDictionary
280
1
281
1
  3
CREATED_BY_EZDXF
350
2E
  3
WRITTEN_BY_EZDXF
350
138
  0
DICTIONARYVAR
  5
2E
330
2D
100
DictionaryVariables
280
0
  1
1.4.4 @ 2026-09-23T12:54:35.640925+00:00
  0
DICTIONARYVAR
  5
138
330
2D
100
DictionaryVariables
280
0
  1
1.4.4 @ 2026-09-23T12:54:35.692836+00:00
  0
ENDSEC
  0
EOF
