  0
SECTION
  2
HEADER
  9
$ACADVER
  1
AC1032
  9
$ACADMAINTVER
 90
4
  9
$DWGCODEPAGE
  3
ANSI_1252
  9
$LASTSAVEDBY
  1
ezdxf
  9
$REQUIREDVERSIONS
160
0
  9
$INSBASE
 10
0.0
 20
0.0
 30
0.0
  9
$EXTMIN
 10
1e+20
 20
1e+20
 30
1e+20
  9
$EXTMAX
 10
-1e+20
 20
-1e+20
 30
-1e+20
  9
$LIMMIN
 10
0.0
 20
0.0
  9
$LIMMAX
 10
420.0
 20
297.0
  9
$ORTHOMODE
 70
0
  9
$REGENMODE
 70
1
  9
$FILLMODE
 70
1
  9
$QTEXTMODE
 70
0
  9
$MIRRTEXT
 70
1
  9
$LTSCALE
 40
1.0
  9
$ATTMODE
 70
1
  9
$TEXTSIZE
 40
2.5
  9
$TRACEWID
 40
1.0
  9
$TEXTSTYLE
  7
Standard
  9
$CLAYER
  8
0
  9
$CELTYPE
  6
ByLayer
  9
$CECOLOR
 62
256
  9
$CELTSCALE
 40
1.0
  9
$DISPSILH
 70
0
  9
$DIMSCALE
 40
1.0
  9
$DIMASZ
 40
2.5
  9
$DIMEXO
 40
0.625
  9
$DIMDLI
 40
3.75
  9
$DIMRND
 40
0.0
  9
$DIMDLE
 40
0.0
  9
$DIMEXE
 40
1.25
  9
$DIMTP
 40
0.0
  9
$DIMTM
 40
0.0
  9
$DIMTXT
 40
2.5
  9
$DIMCEN
 40
2.5
  9
$DIMTSZ
 40
0.0
  9
$DIMTOL
 70
0
  9
$DIMLIM
 70
0
  9
$DIMTIH
 70
0
  9
$DIMTOH
 70
0
  9
$DIMSE1
 70
0
  9
$DIMSE2
 70
0
  9
$DIMTAD
 70
1
  9
$DIMZIN
 70
8
  9
$DIMBLK
  1

  9
$DIMASO
 70
1
  9
$DIMSHO
 70
1
  9
$DIMPOST
  1

  9
$DIMAPOST
  1

  9
$DIMALT
 70
0
  9
$DIMALTD
 70
3
  9
$DIMALTF
 40
0.03937007874
  9
$DIMLFAC
 40
1.0
  9
$DIMTOFL
 70
1
  9
$DIMTVP
 40
0.0
  9
$DIMTIX
 70
0
  9
$DIMSOXD
 70
0
  9
$DIMSAH
 70
0
  9
$DIMBLK1
  1

  9
$DIMBLK2
  1

  9
$DIMSTYLE
  2
ISO-25
  9
$DIMCLRD
 70
0
  9
$DIMCLRE
 70
0
  9
$DIMCLRT
 70
0
  9
$DIMTFAC
 40
1.0
  9
$DIMGAP
 40
0.625
  9
$DIMJUST
 70
0
  9
$DIMSD1
 70
0
  9
$DIMSD2
 70
0
  9
$DIMTOLJ
 70
0
  9
$DIMTZIN
 70
8
  9
$DIMALTZ
 70
0
  9
$DIMALTTZ
 70
0
  9
$DIMUPT
 70
0
  9
$DIMDEC
 70
2
  9
$DIMTDEC
 70
2
  9
$DIMALTU
 70
2
  9
$DIMALTTD
 70
3
  9
$DIMTXSTY
  7
Standard
  9
$DIMAUNIT
 70
0
  9
$DIMADEC
 70
0
  9
$DIMALTRND
 40
0.0
  9
$DIMAZIN
 70
0
  9
$DIMDSEP
 70
44
  9
$DIMATFIT
 70
3
  9
$DIMFRAC
 70
0
  9
$DIMLDRBLK
  1

  9
$DIMLUNIT
 70
2
  9
$DIMLWD
 70
-2
  9
$DIMLWE
 70
-2
  9
$DIMTMOVE
 70
0
  9
$DIMFXL
 40
1.0
  9
$DIMFXLON
 70
0
  9
$DIMJOGANG
 40
0.785398163397
  9
$DIMTFILL
 70
0
  9
$DIMTFILLCLR
 70
0
  9
$DIMARCSYM
 70
0
  9
$DIMLTYPE
  6

  9
$DIMLTEX1
  6

  9
$DIMLTEX2
  6

  9
$DIMTXTDIRECTION
 70
0
  9
$LUNITS
 70
2
  9
$LUPREC
 70
4
  9
$SKETCHINC
 40
1.0
  9
$FILLETRAD
 40
10.0
  9
$AUNITS
 70
0
  9
$AUPREC
 70
2
  9
$MENU
  1
.
  9
$ELEVATION
 40
0.0
  9
$PELEVATION
 40
0.0
  9
$THICKNESS
 40
0.0
  9
$LIMCHECK
 70
0
  9
$CHAMFERA
 40
0.0
  9
$CHAMFERB
 40
0.0
  9
$CHAMFERC
 40
0.0
  9
$CHAMFERD
 40
0.0
  9
$SKPOLY
 70
0
  9
$TDCREATE
 40
2461307.828761574
  9
$TDUCREATE
 40
2458532.153996898
  9
$TDUPDATE
 40
2461307.828761574
  9
$TDUUPDATE
 40
2458532.1544311
  9
$TDINDWG
 40
0.0
  9
$TDUSRTIMER
 40
0.0
  9
$USRTIMER
 70
1
  9
$ANGBASE
 50
0.0
  9
$ANGDIR
 70
0
  9
$PDMODE
 70
0
  9
$PDSIZE
 40
0.0
  9
$PLINEWID
 40
0.0
  9
$SPLFRAME
 70
0
  9
$SPLINETYPE
 70
6
  9
$SPLINESEGS
 70
8
  9
$HANDSEED
  5
B5
  9
$SURFTAB1
 70
6
  9
$SURFTAB2
 70
6
  9
$SURFTYPE
 70
6
  9
$SURFU
 70
6
  9
$SURFV
 70
6
  9
$UCSBASE
  2

  9
$UCSNAME
  2

  9
$UCSORG
 10
0.0
 20
0.0
 30
0.0
  9
$UCSXDIR
 10
1.0
 20
0.0
 30
0.0
  9
$UCSYDIR
 10
0.0
 20
1.0
 30
0.0
  9
$UCSORTHOREF
  2

  9
$UCSORTHOVIEW
 70
0
  9
$UCSORGTOP
 10
0.0
 20
0.0
 30
0.0
  9
$UCSORGBOTTOM
 10
0.0
 20
0.0
 30
0.0
  9
$UCSORGLEFT
 10
0.0
 20
0.0
 30
0.0
  9
$UCSORGRIGHT
 10
0.0
 20
0.0
 30
0.0
  9
$UCSORGFRONT
 10
0.0
 20
0.0
 30
0.0
  9
$UCSORGBACK
 10
0.0
 20
0.0
 30
0.0
  9
$PUCSBASE
  2

  9
$PUCSNAME
  2

  9
$PUCSORG
 10
0.0
 20
0.0
 30
0.0
  9
$PUCSXDIR
 10
1.0
 20
0.0
 30
0.0
  9
$PUCSYDIR
 10
0.0
 20
1.0
 30
0.0
  9
$PUCSORTHOREF
  2

  9
$PUCSORTHOVIEW
 70
0
  9
$PUCSORGTOP
 10
0.0
 20
0.0
 30
0.0
  9
$PUCSORGBOTTOM
 10
0.0
 20
0.0
 30
0.0
  9
$PUCSORGLEFT
 10
0.0
 20
0.0
 30
0.0
  9
$PUCSORGRIGHT
 10
0.0
 20
0.0
 30
0.0
  9
$PUCSORGFRONT
 10
0.0
 20
0.0
 30
0.0
  9
$PUCSORGBACK
 10
0.0
 20
0.0
 30
0.0
  9
$USERI1
 70
0
  9
$USERI2
 70
0
  9
$USERI3
 70
0
  9
$USERI4
 70
0
  9
$USERI5
 70
0
  9
$USERR1
 40
0.0
  9
$USERR2
 40
0.0
  9
$USERR3
 40
0.0
  9
$USERR4
 40
0.0
  9
$USERR5
 40
0.0
  9
$WORLDVIEW
 70
1
  9
$SHADEDGE
 70
3
  9
$SHADEDIF
 70
70
  9
$TILEMODE
 70
1
  9
$MAXACTVP
 70
64
  9
$PINSBASE
 10
0.0
 20
0.0
 30
0.0
  9
$PLIMCHECK
 70
0
  9
$PEXTMIN
 10
1e+20
 20
1e+20
 30
1e+20
  9
$PEXTMAX
 10
-1e+20
 20
-1e+20
 30
-1e+20
  9
$PLIMMIN
 10
0.0
 20
0.0
  9
$PLIMMAX
 10
420.0
 20
297.0
  9
$UNITMODE
 70
0
  9
$VISRETAIN
 70
1
  9
$PLINEGEN
 70
0
  9
$PSLTSCALE
 70
1
  9
$TREEDEPTH
 70
3020
  9
$CMLSTYLE
  2
Standard
  9
$CMLJUST
 70
0
  9
$CMLSCALE
 40
20.0
  9
$PROXYGRAPHICS
 70
1
  9
$MEASUREMENT
 70
1
  9
$CELWEIGHT
370
-1
  9
$ENDCAPS
280
0
  9
$JOINSTYLE
280
0
  9
$LWDISPLAY
290
0
  9
$INSUNITS
 70
0
  9
$HYPERLINKBASE
  1

  9
$STYLESHEET
  1

  9
$XEDIT
290
1
  9
$CEPSNTYPE
380
0
  9
$PSTYLEMODE
290
1
  9
$FINGERPRINTGUID
  2
{10EA01E1-6BC9-4DEA-A07B-30C489428CD0}
  9
$VERSIONGUID
  2
{76BB9870-896E-48DD-B1AD-05DBC84E4CD2}
  9
$EXTNAMES
290
1
  9
$PSVPSCALE
 40
0.0
  9
$OLESTARTUP
290
0
  9
$SORTENTS
280
127
  9
$INDEXCTL
280
0
  9
$HIDETEXT
280
1
  9
$XCLIPFRAME
280
1
  9
$HALOGAP
280
0
  9
$OBSCOLOR
 70
257
  9
$OBSLTYPE
280
0
  9
$INTERSECTIONDISPLAY
280
0
  9
$INTERSECTIONCOLOR
 70
257
  9
$DIMASSOC
280
2
  9
$PROJECTNAME
  1

  9
$CAMERADISPLAY
290
0
  9
$LENSLENGTH
 40
50.0
  9
$CAMERAHEIGHT
 40
0.0
  9
$STEPSPERSEC
 40
24.0
  9
$STEPSIZE
 40
100.0
  9
$3DDWFPREC
 40
2.0
  9
$PSOLWIDTH
 40
0.005
  9
$PSOLHEIGHT
 40
0.08
  9
$LOFTANG1
 40
1.570796326795
  9
$LOFTANG2
 40
1.570796326795
  9
$LOFTMAG1
 40
0.0
  9
$LOFTMAG2
 40
0.0
  9
$LOFTPARAM
 70
7
  9
$LOFTNORMALS
280
1
  9
$LATITUDE
 40
37.795
  9
$LONGITUDE
 40
-122.394
  9
$NORTHDIRECTION
 40
0.0
  9
$TIMEZONE
 70
-8000
  9
$LIGHTGLYPHDISPLAY
280
1
  9
$TILEMODELIGHTSYNCH
280
1
  9
$CMATERIAL
347
20
  9
$SOLIDHIST
280
0
  9
$SHOWHIST
280
1
  9
$DWFFRAME
280
2
  9
$DGNFRAME
280
2
  9
$REALWORLDSCALE
290
1
  9
$INTERFERECOLOR
 62
256
  9
$CSHADOW
280
0
  9
$SHADOWPLANELOCATION
 40
0.0
  0
ENDSEC
  0
SECTION
  2
CLASSES
  0
CLASS
  1
ACDBDICTIONARYWDFLT
  2
AcDbDictionaryWithDefault
  3
ObjectDBX Classes
 90
0
 91
0
280
0
281
0
  0
CLASS
  1
SUN
  2
AcDbSun
  3
SCENEOE
 90
1153
 91
0
280
0
281
0
  0
CLASS
  1
VISUALSTYLE
  2
AcDbVisualStyle
  3
ObjectDBX Classes
 90
4095
 91
0
280
0
281
0
  0
CLASS
  1
MATERIAL
  2
AcDbMaterial
  3
ObjectDBX Classes
 90
1153
 91
0
280
0
281
0
  0
CLASS
  1
SCALE
  2
AcDbScale
  3
ObjectDBX Classes
 90
1153
 91
0
280
0
281
0
  0
CLASS
  1
TABLESTYLE
  2
AcDbTableStyle
  3
ObjectDBX Classes
 90
4095
 91
0
280
0
281
0
  0
CLASS
  1
MLEADERSTYLE
  2
AcDbMLeaderStyle
  3
ACDB_MLEADERSTYLE_CLASS
 90
4095
 91
0
280
0
281
0
  0
CLASS
  1
DICTIONARYVAR
  2
AcDbDictionaryVar
  3
ObjectDBX Classes
 90
0
 91
0
280
0
281
0
  0
CLASS
  1
CELLSTYLEMAP
  2
AcDbCellStyleMap
  3
ObjectDBX Classes
 90
1152
 91
0
280
0
281
0
  0
CLASS
  1
MENTALRAYRENDERSETTINGS
  2
AcDbMentalRayRenderSettings
  3
SCENEOE
 90
1024
 91
0
280
0
281
0
  0
CLASS
  1
ACDBDETAILVIEWSTYLE
  2
AcDbDetailViewStyle
  3
ObjectDBX Classes
 90
1025
 91
0
280
0
281
0
  0
CLASS
  1
ACDBSECTIONVIEWSTYLE
  2
AcDbSectionViewStyle
  3
ObjectDBX Classes
 90
1025
 91
0
280
0
281
0
  0
CLASS
  1
RASTERVARIABLES
  2
AcDbRasterVariables
  3
ISM
 90
0
 91
0
280
0
281
0
  0
CLASS
  1
LAYOUT
  2
AcDbLayout
  3
ObjectDBX Classes
 90
0
 91
0
280
0
281
0
  0
CLASS
  1
ACDBPLACEHOLDER
  2
AcDbPlaceHolder
  3
ObjectDBX Classes
 90
0
 91
0
280
0
281
0
  0
ENDSEC
  0
SECTION
  2
TABLES
  0
TABLE
  2
VPORT
  5
8
330
0
100
AcDbSymbolTable
 70
1
  0
VPORT
  5
23
330
8
100
AcDbSymbolTableRecord
100
AcDbViewportTableRecord
  2
*Active
 70
0
 10
0.0
 20
0.0
 11
1.0
 21
1.0
 12
0.0
 22
0.0
 13
0.0
 23
0.0
 14
0.5
 24
0.5
 15
0.5
 25
0.5
 16
0.0
 26
0.0
 36
1.0
 17
0.0
 27
0.0
 37
0.0
 40
1000.0
 41
1.34
 42
50.0
 43
0.0
 44
0.0
 50
0.0
 51
0.0
 71
0
 72
1000
 73
1
 74
3
 75
0
 76
0
 77
0
 78
0
281
0
 65
0
146
0.0
  0
ENDTAB
  0
TABLE
  2
LTYPE
  5
2
330
0
100
AcDbSymbolTable
 70
4
  0
LTYPE
  5
24
330
2
100
AcDbSymbolTableRecord
100
AcDbLinetypeTableRecord
  2
ByBlock
 70
0
  3

 72
65
 73
0
 40
0.0
  0
LTYPE
  5
25
330
2
100
AcDbSymbolTableRecord
100
AcDbLinetypeTableRecord
  2
ByLayer
 70
0
  3

 72
65
 73
0
 40
0.0
  0
LTYPE
  5
26
330
2
100
AcDbSymbolTableRecord
100
AcDbLinetypeTableRecord
  2
Continuous
 70
0
  3

 72
65
 73
0
 40
0.0
  0
LTYPE
  5
AF
330
2
100
AcDbSymbolTableRecord
100
AcDbLinetypeTableRecord
  2
DASHED
 70
0
  3
Dashed __ __ __ __ __ __ __ __ __ __ __ __ __ _
 72
65
 73
2
 40
0.75
 49
0.5
 74
0
 49
-0.25
 74
0
  0
ENDTAB
  0
TABLE
  2
LAYER
  5
1
330
0
100
AcDbSymbolTable
 70
3
  0
LAYER
  5
27
330
1
100
AcDbSymbolTableRecord
100
AcDbLayerTableRecord
  2
0
 70
0
 62
7
  6
Continuous
370
-3
390
13
347
21
  0
LAYER
  5
28
330
1
100
AcDbSymbolTableRecord
100
AcDbLayerTableRecord
  2
Defpoints
 70
0
 62
7
  6
Continuous
290
0
370
-3
390
13
347
21
  0
LAYER
  5
AE
330
1
100
AcDbSymbolTableRecord
100
AcDbLayerTableRecord
  2
-15N-THT. THIẾT BỊ ĐÓNG MỞ
 70
0
 62
40
  6
CONTINUOUS
370
-3
390
13
347
21
  0
ENDTAB
  0
TABLE
  2
STYLE
  5
5
330
0
100
AcDbSymbolTable
 70
1
  0
STYLE
  5
29
330
5
100
AcDbSymbolTableRecord
100
AcDbTextStyleTableRecord
  2
Standard
 70
0
 40
0.0
 41
1.0
 50
0.0
 71
0
 42
2.5
  3
txt
  4

  0
ENDTAB
  0
TABLE
  2
VIEW
  5
7
330
0
100
AcDbSymbolTable
 70
0
  0
ENDTAB
  0
TABLE
  2
UCS
  5
6
330
0
100
AcDbSymbolTable
 70
0
  0
ENDTAB
  0
TABLE
  2
APPID
  5
3
330
0
100
AcDbSymbolTable
 70
3
  0
APPID
  5
2A
330
3
100
AcDbSymbolTableRecord
100
AcDbRegAppTableRecord
  2
ACAD
 70
0
  0
APPID
  5
B2
330
3
100
AcDbSymbolTableRecord
100
AcDbRegAppTableRecord
  2
HATCHBACKGROUNDCOLOR
 70
0
  0
APPID
  5
B3
330
3
100
AcDbSymbolTableRecord
100
AcDbRegAppTableRecord
  2
EZDXF
 70
0
  0
ENDTAB
  0
TABLE
  2
DIMSTYLE
  5
4
330
0
100
AcDbSymbolTable
 70
1
100
AcDbDimStyleTable
  0
DIMSTYLE
105
2B
330
4
100
AcDbSymbolTableRecord
100
AcDbDimStyleTableRecord
  2
Standard
 70
0
 40
1.0
 41
2.5
 42
0.625
 43
3.75
 44
1.25
 45
0.0
 46
0.0
 47
0.0
 48
0.0
 49
2.5
140
2.5
141
2.5
142
0.0
143
0.03937007874
144
1.0
145
0.0
146
1.0
147
0.625
148
0.0
 69
0
 70
0
 71
0
 72
0
 73
0
 74
0
 75
0
 76
0
 77
1
 78
8
 79
3
170
0
171
3
172
1
173
0
174
0
175
0
176
0
177
0
178
0
179
2
271
2
272
2
273
2
274
3
275
0
276
0
277
2
278
44
279
0
280
0
281
0
282
0
283
0
284
8
285
0
286
0
288
0
289
3
290
0
371
-2
372
-2
  0
ENDTAB
  0
TABLE
  2
BLOCK_RECORD
  5
9
330
0
100
AcDbSymbolTable
 70
3
  0
BLOCK_RECORD
  5
17
330
9
100
AcDbSymbolTableRecord
100
AcDbBlockTableRecord
  2
*Model_Space
340
1A
 70
0
280
1
281
0
  0
BLOCK_RECORD
  5
1B
330
9
100
AcDbSymbolTableRecord
100
AcDbBlockTableRecord
  2
*Paper_Space
340
1E
 70
0
280
1
281
0
  0
BLOCK_RECORD
  5
2F
330
9
100
AcDbSymbolTableRecord
100
AcDbBlockTableRecord
  2
06 - N - SC CTT CHIẾU HÔNG LC1D32
340
0
 70
0
280
1
281
0
  0
ENDTAB
  0
ENDSEC
  0
SECTION
  2
BLOCKS
  0
BLOCK
  5
18
330
17
100
AcDbEntity
  8
0
100
AcDbBlockBegin
  2
*Model_Space
 70
0
 10
0.0
 20
0.0
 30
0.0
  3
*Model_Space
  1

  0
ENDBLK
  5
19
330
17
100
AcDbEntity
  8
0
100
AcDbBlockEnd
  0
BLOCK
  5
1C
330
1B
100
AcDbEntity
  8
0
100
AcDbBlockBegin
  2
*Paper_Space
 70
0
 10
0.0
 20
0.0
 30
0.0
  3
*Paper_Space
  1

  0
ENDBLK
  5
1D
330
1B
100
AcDbEntity
  8
0
100
AcDbBlockEnd
  0
BLOCK
  5
30
330
2F
100
AcDbEntity
  8
0
100
AcDbBlockBegin
  2
06 - N - SC CTT CHIẾU HÔNG LC1D32
 70
0
 10
0.0
 20
0.0
 30
0.0
  3
06 - N - SC CTT CHIẾU HÔNG LC1D32
  1

  0
LINE
  5
32
330
2F
100
AcDbEntity
  8
-15N-THT. THIẾT BỊ ĐÓNG MỞ
100
AcDbLine
 10
3.638e-12
 20
34.62503449999895
 30
0.0
 11
3.638e-12
 21
15.87530949999927
 31
0.0
  0
LINE
  5
33
330
2F
100
AcDbEntity
  8
-15N-THT. THIẾT BỊ ĐÓNG MỞ
100
AcDbLine
 10
-5.399917999995523
 20
15.87533949999943
 30
0.0
 11
-5.399917999995523
 21
13.12541349999901
 31
0.0
  0
LINE
  5
34
330
2F
100
AcDbEntity
  8
-15N-THT. THIẾT BỊ ĐÓNG MỞ
100
AcDbLine
 10
3.638e-12
 20
15.87530949999927
 30
0.0
 11
-5.399932999996963
 21
15.87530949999927
 31
0.0
  0
LINE
  5
35
330
2F
100
AcDbEntity
  8
-15N-THT. THIẾT BỊ ĐÓNG MỞ
100
AcDbLine
 10
-1.499999999996362
 20
-19.62390250000044
 30
0.0
 11
-5.399932999996963
 21
-19.62390250000044
 31
0.0
  0
LINE
  5
36
330
2F
100
AcDbEntity
  8
-15N-THT. THIẾT BỊ ĐÓNG MỞ
100
AcDbLine
 10
3.638e-12
 20
-21.12401750061599
 30
0.0
 11
1.819e-12
 21
-39.87359950000064
 31
0.0
  0
LINE
  5
37
330
2F
100
AcDbEntity
  8
-15N-THT. THIẾT BỊ ĐÓNG MỞ
100
AcDbLine
 10
-1.999938999997539
 20
39.62495449999915
 30
0.0
 11
-51.77919099999417
 21
39.62495449999915
 31
0.0
  0
LINE
  5
38
330
2F
100
AcDbEntity
  8
-15N-THT. THIẾT BỊ ĐÓNG MỞ
100
AcDbLine
 10
4.50000043202e-05
 20
-39.87359950000064
 30
0.0
 11
-51.99940299999434
 21
-39.87359950000064
 31
0.0
  0
LINE
  5
39
330
2F
100
AcDbEntity
  8
-15N-THT. THIẾT BỊ ĐÓNG MỞ
100
AcDbLine
 10
-29.4993710000017
 20
13.12542049999956
 30
0.0
 11
-34.49941699999909
 21
13.12542049999956
 31
0.0
  0
LINE
  5
3A
330
2F
100
AcDbEntity
  8
-15N-THT. THIẾT BỊ ĐÓNG MỞ
100
AcDbLine
 10
-29.4993710000017
 20
-15.87400450000041
 30
0.0
 11
-34.49941699999909
 21
-15.87400450000041
 31
0.0
  0
LINE
  5
3B
330
2F
100
AcDbEntity
  8
-15N-THT. THIẾT BỊ ĐÓNG MỞ
100
AcDbLine
 10
-6.3998569999967
 20
8.625500499999362
 30
0.0
 11
-29.49940199999764
 21
8.625500499999362
 31
0.0
  0
ARC
  5
3C
330
2F
100
AcDbEntity
  8
-15N-THT. THIẾT BỊ ĐÓNG MỞ
100
AcDbCircle
 10
-6.399780999996437
 20
14.12559249999958
 30
0.0
 40
0.999999
100
AcDbArc
 50
270.0002180001366
 51
0.0001449999885383
  0
ARC
  5
3D
330
2F
100
AcDbEntity
  8
-15N-THT. THIẾT BỊ ĐÓNG MỞ
100
AcDbCircle
 10
-6.399780999996437
 20
7.625592499999584
 30
0.0
 40
0.999999
100
AcDbArc
 50
0.0001449999885383
 51
90.00001800011646
  0
ARC
  5
3E
330
2F
100
AcDbEntity
  8
-15N-THT. THIẾT BỊ ĐÓNG MỞ
100
AcDbCircle
 10
-6.399780999996437
 20
-16.87414050000097
 30
0.0
 40
0.999999
100
AcDbArc
 50
0.0001449999885383
 51
90.00001800011646
  0
LINE
  5
3F
330
2F
100
AcDbEntity
  8
-15N-THT. THIẾT BỊ ĐÓNG MỞ
100
AcDbLine
 10
-29.4993710000017
 20
13.12542649999886
 30
0.0
 11
-29.4993710000017
 21
8.62549349999972
 31
0.0
  0
LINE
  5
40
330
2F
100
AcDbEntity
  8
-15N-THT. THIẾT BỊ ĐÓNG MỞ
100
AcDbLine
 10
-29.4993710000017
 20
-11.37416850000045
 30
0.0
 11
-29.4993710000017
 21
-15.87401150000096
 31
0.0
  0
LINE
  5
41
330
2F
100
AcDbEntity
  8
-15N-THT. THIẾT BỊ ĐÓNG MỞ
100
AcDbLine
 10
3.638e-12
 20
-21.12401750061599
 30
0.0
 11
-1.500060999995184
 21
-19.62394650000078
 31
0.0
  0
LINE
  5
42
330
2F
100
AcDbEntity
  8
-15N-THT. THIẾT BỊ ĐÓNG MỞ
100
AcDbLine
 10
-4.999923999996099
 20
12.72542749999957
 30
0.0
 11
-4.999923999996099
 21
11.36828049999894
 31
0.0
  0
LINE
  5
43
330
2F
100
AcDbEntity
  8
-15N-THT. THIẾT BỊ ĐÓNG MỞ
100
AcDbLine
 10
-4.999954999995679
 20
11.3682215000008
 30
0.0
 11
-5.399940999996033
 21
9.875457499999357
 31
0.0
  0
LINE
  5
44
330
2F
100
AcDbEntity
  8
-15N-THT. THIẾT BỊ ĐÓNG MỞ
100
AcDbLine
 10
-5.00001599999814
 20
12.72543249999944
 30
0.0
 11
-5.399993999995785
 21
13.12541349999901
 31
0.0
  0
LINE
  5
45
330
2F
100
AcDbEntity
  8
-15N-THT. THIẾT BỊ ĐÓNG MỞ
100
AcDbLine
 10
3.638e-12
 20
34.6250044999997
 30
0.0
 11
-1.999999999996362
 21
34.6250044999997
 31
0.0
  0
LINE
  5
46
330
2F
100
AcDbEntity
  8
-15N-THT. THIẾT BỊ ĐÓNG MỞ
100
AcDbLine
 10
-1.999984999994921
 20
39.62495449999915
 30
0.0
 11
-1.999984999994921
 21
34.6250044999997
 31
0.0
  0
LINE
  5
47
330
2F
100
AcDbEntity
  8
-15N-THT. THIẾT BỊ ĐÓNG MỞ
100
AcDbLine
 10
-36.1993029999976
 20
11.87555049999901
 30
0.0
 11
-36.1993029999976
 21
-14.62428250000084
 31
0.0
  0
LINE
  5
48
330
2F
100
AcDbEntity
  8
-15N-THT. THIẾT BỊ ĐÓNG MỞ
100
AcDbLine
 10
-8.56680299999789
 20
-18.57390150000083
 30
0.0
 11
-33.39554599999611
 21
-18.57390150000083
 31
0.0
  0
LINE
  5
49
330
2F
100
AcDbEntity
  8
-15N-THT. THIẾT BỊ ĐÓNG MỞ
100
AcDbLine
 10
-8.79631099999824
 20
-21.1738905000002
 30
0.0
 11
-32.70384999999806
 21
-21.1738905000002
 31
0.0
  0
LINE
  5
4A
330
2F
100
AcDbEntity
  8
-15N-THT. THIẾT BỊ ĐÓNG MỞ
100
AcDbLine
 10
-33.5625919999984
 20
-22.29861950000122
 30
0.0
 11
-33.91626799999722
 21
-35.80480550000084
 31
0.0
  0
LINE
  5
4B
330
2F
100
AcDbEntity
  8
-15N-THT. THIẾT BỊ ĐÓNG MỞ
100
AcDbLine
 10
-8.461090999997396
 20
18.42529549999926
 30
0.0
 11
-33.08470599999782
 21
18.42529549999926
 31
0.0
  0
LINE
  5
4C
330
2F
100
AcDbEntity
  8
-15N-THT. THIẾT BỊ ĐÓNG MỞ
100
AcDbLine
 10
-7.096374999997351
 20
15.82530649999899
 30
0.0
 11
-33.58308099999704
 21
15.82530649999899
 31
0.0
  0
LINE
  5
4D
330
2F
100
AcDbEntity
  8
-15N-THT. THIẾT BỊ ĐÓNG MỞ
100
AcDbLine
 10
-34.49940899999638
 20
-14.62424549999923
 30
0.0
 11
-34.49940899999638
 21
-19.87388750000082
 31
0.0
  0
LINE
  5
4E
330
2F
100
AcDbEntity
  8
-15N-THT. THIẾT BỊ ĐÓNG MỞ
100
AcDbLine
 10
-34.49940899999638
 20
17.12529249999898
 30
0.0
 11
-34.49940899999638
 21
11.87554349999937
 31
0.0
  0
LINE
  5
4F
330
2F
100
AcDbEntity
  8
-15N-THT. THIẾT BỊ ĐÓNG MỞ
100
AcDbLine
 10
-7.447174999993876
 20
-19.87390250000044
 30
0.0
 11
-34.49935199999527
 21
-19.87390250000044
 31
0.0
  0
LINE
  5
50
330
2F
100
AcDbEntity
  8
-15N-THT. THIẾT BỊ ĐÓNG MỞ
100
AcDbLine
 10
-34.49936699999671
 20
-17.97399450000012
 30
0.0
 11
-36.39937599999758
 21
-19.87400250000064
 31
0.0
  0
LINE
  5
51
330
2F
100
AcDbEntity
  8
-15N-THT. THIẾT BỊ ĐÓNG MỞ
100
AcDbLine
 10
-7.499542999998084
 20
17.12530749999951
 30
0.0
 11
-34.49935199999527
 21
17.12530749999951
 31
0.0
  0
LINE
  5
52
330
2F
100
AcDbEntity
  8
-15N-THT. THIẾT BỊ ĐÓNG MỞ
100
AcDbLine
 10
-34.49924899999678
 20
11.87565549999908
 30
0.0
 11
-36.19915099999707
 21
11.87565549999908
 31
0.0
  0
LINE
  5
53
330
2F
100
AcDbEntity
  8
-15N-THT. THIẾT BỊ ĐÓNG MỞ
100
AcDbLine
 10
-34.49924899999678
 20
-14.62433650000093
 30
0.0
 11
-36.19915099999707
 21
-14.62433650000093
 31
0.0
  0
LINE
  5
54
330
2F
100
AcDbEntity
  8
-15N-THT. THIẾT BỊ ĐÓNG MỞ
100
AcDbLine
 10
-6.3998569999967
 20
-15.87400450000041
 30
0.0
 11
-29.49940199999764
 21
-15.87400450000041
 31
0.0
  0
LINE
  5
55
330
2F
100
AcDbEntity
  8
-15N-THT. THIẾT BỊ ĐÓNG MỞ
100
AcDbLine
 10
-6.3998569999967
 20
13.12542049999956
 30
0.0
 11
-29.49940199999764
 21
13.12542049999956
 31
0.0
  0
ARC
  5
56
330
2F
100
AcDbEntity
  8
-15N-THT. THIẾT BỊ ĐÓNG MỞ
100
AcDbCircle
 10
-31.82469199999832
 20
-20.87402350000048
 30
0.0
 40
2.999999
100
AcDbArc
 50
153.0682019999815
 51
178.4999989999857
  0
LINE
  5
57
330
2F
100
AcDbEntity
  8
-15N-THT. THIẾT BỊ ĐÓNG MỞ
100
AcDbLine
 10
-6.501777999998012
 20
15.82543449999957
 30
0.0
 11
-7.499298999995517
 21
17.12543349999942
 31
0.0
  0
LINE
  5
58
330
2F
100
AcDbEntity
  8
-15N-THT. THIẾT BỊ ĐÓNG MỞ
100
AcDbLine
 10
-7.999938999993901
 20
-11.374175500001
 30
0.0
 11
-7.999938999993901
 21
-15.87400450000041
 31
0.0
  0
LINE
  5
59
330
2F
100
AcDbEntity
  8
-15N-THT. THIẾT BỊ ĐÓNG MỞ
100
AcDbLine
 10
-29.49938599999587
 20
8.625499499999023
 30
0.0
 11
-29.49938599999587
 21
-11.37420850000035
 31
0.0
  0
LINE
  5
5A
330
2F
100
AcDbEntity
  8
-15N-THT. THIẾT BỊ ĐÓNG MỞ
100
AcDbLine
 10
-7.499343999992561
 20
-19.87394150000091
 30
0.0
 11
-6.788742999993701
 21
-22.52596250000079
 31
0.0
  0
LINE
  5
5B
330
2F
100
AcDbEntity
  8
-15N-THT. THIẾT BỊ ĐÓNG MỞ
100
AcDbLine
 10
-7.999999999996362
 20
13.12529649999942
 30
0.0
 11
-7.999999999996362
 21
8.625467499999102
 31
0.0
  0
LINE
  5
5C
330
2F
100
AcDbEntity
  8
-15N-THT. THIẾT BỊ ĐÓNG MỞ
100
AcDbLine
 10
-5.399917999995523
 20
9.875380499999665
 30
0.0
 11
-5.399917999995523
 21
-19.62394850000055
 31
0.0
  0
LINE
  5
5D
330
2F
100
AcDbEntity
  8
-15N-THT. THIẾT BỊ ĐÓNG MỞ
100
AcDbLine
 10
-33.91627199999494
 20
33.05608749999919
 30
0.0
 11
-33.56259999999748
 21
19.54990049999924
 31
0.0
  0
LINE
  5
5E
330
2F
100
AcDbEntity
  8
-15N-THT. THIẾT BỊ ĐÓNG MỞ
100
AcDbLine
 10
-36.39938399999664
 20
17.12530149999929
 30
0.0
 11
-34.49937499999578
 21
15.22529449999911
 31
0.0
  0
ARC
  5
5F
330
2F
100
AcDbEntity
  8
-15N-THT. THIẾT BỊ ĐÓNG MỞ
100
AcDbCircle
 10
-31.82469199999832
 20
18.12532049999936
 30
0.0
 40
2.999999
100
AcDbArc
 50
181.500009000004
 51
206.9317810000008
  0
LINE
  5
60
330
2F
100
AcDbEntity
  8
-15N-THT. THIẾT BỊ ĐÓNG MỞ
100
AcDbLine
 10
-34.79933199999505
 20
-37.87416050000047
 30
0.0
 11
-34.79933199999505
 21
-20.37416050000047
 31
0.0
  0
ARC
  5
61
330
2F
100
AcDbEntity
  8
-15N-THT. THIẾT BỊ ĐÓNG MỞ
100
AcDbCircle
 10
-36.7992249999952
 20
-37.87416050000047
 30
0.0
 40
1.999995
100
AcDbArc
 50
269.9999720001431
 51
359.9998579999962
  0
LINE
  5
62
330
2F
100
AcDbEntity
  8
-15N-THT. THIẾT BỊ ĐÓNG MỞ
100
AcDbLine
 10
-36.59921299999769
 20
12.12564149999889
 30
0.0
 11
-39.79922499999521
 21
12.12564149999889
 31
0.0
  0
LINE
  5
63
330
2F
100
AcDbEntity
  8
-15N-THT. THIẾT BỊ ĐÓNG MỞ
100
AcDbLine
 10
-36.59921299999769
 20
-14.87421650000033
 30
0.0
 11
-39.79922499999521
 21
-14.87421650000033
 31
0.0
  0
LINE
  5
64
330
2F
100
AcDbEntity
  8
-15N-THT. THIẾT BỊ ĐÓNG MỞ
100
AcDbLine
 10
-35.2992249999952
 20
-19.87416050000047
 30
0.0
 11
-39.79922499999521
 21
-19.87416050000047
 31
0.0
  0
LINE
  5
65
330
2F
100
AcDbEntity
  8
-15N-THT. THIẾT BỊ ĐÓNG MỞ
100
AcDbLine
 10
-35.29931699999725
 20
17.12559549999969
 30
0.0
 11
-39.79922499999521
 21
17.12559549999969
 31
0.0
  0
LINE
  5
66
330
2F
100
AcDbEntity
  8
-15N-THT. THIẾT BỊ ĐÓNG MỞ
100
AcDbLine
 10
-39.79922499999521
 20
-19.87403850000101
 30
0.0
 11
-39.79922499999521
 21
-14.87421650000033
 31
0.0
  0
LINE
  5
67
330
2F
100
AcDbEntity
  8
-15N-THT. THIẾT BỊ ĐÓNG MỞ
100
AcDbLine
 10
-34.79933199999505
 20
17.62558049999916
 30
0.0
 11
-34.79933199999505
 21
37.62558049999916
 31
0.0
  0
ARC
  5
68
330
2F
100
AcDbEntity
  8
-15N-THT. THIẾT BỊ ĐÓNG MỞ
100
AcDbCircle
 10
-35.2992249999952
 20
17.62562549999893
 30
0.0
 40
0.4999979999999999
100
AcDbArc
 50
269.9999720001431
 51
359.9998579999962
  0
ARC
  5
69
330
2F
100
AcDbEntity
  8
-15N-THT. THIẾT BỊ ĐÓNG MỞ
100
AcDbCircle
 10
-35.2992249999952
 20
-20.37420650000058
 30
0.0
 40
0.4999979999999999
100
AcDbArc
 50
0.0002000000201289
 51
90.0001820001121
  0
LINE
  5
6A
330
2F
100
AcDbEntity
  8
-15N-THT. THIẾT BỊ ĐÓNG MỞ
100
AcDbLine
 10
-39.79922499999521
 20
12.12563449999925
 30
0.0
 11
-39.79922499999521
 21
17.12551949999943
 31
0.0
  0
ARC
  5
6B
330
2F
100
AcDbEntity
  8
-15N-THT. THIẾT BỊ ĐÓNG MỞ
100
AcDbCircle
 10
-36.7992249999952
 20
37.62559549999969
 30
0.0
 40
1.999995
100
AcDbArc
 50
0.0002000000201289
 51
90.0001820001121
  0
LINE
  5
6C
330
2F
100
AcDbEntity
  8
-15N-THT. THIẾT BỊ ĐÓNG MỞ
100
AcDbLine
 10
-52.37411199999406
 20
39.40269549999903
 30
0.0
 11
-56.08376699999644
 21
36.39867449999929
 31
0.0
  0
ARC
  5
6D
330
2F
100
AcDbEntity
  8
-15N-THT. THIẾT BỊ ĐÓNG MỞ
100
AcDbCircle
 10
-51.74511799999527
 20
38.62559549999969
 30
0.0
 40
0.999999
100
AcDbArc
 50
89.99996300008486
 51
128.9999819999733
  0
LINE
  5
6E
330
2F
100
AcDbEntity
  8
-15N-THT. THIẾT BỊ ĐÓNG MỞ
100
AcDbLine
 10
-58.50802299999486
 20
35.65957649999928
 30
0.0
 11
-56.45439999999507
 21
36.2098434999989
 31
0.0
  0
ARC
  5
6F
330
2F
100
AcDbEntity
  8
-15N-THT. THIẾT BỊ ĐÓNG MỞ
100
AcDbCircle
 10
-56.71337899999343
 20
37.17591849999917
 30
0.0
 40
0.999999
100
AcDbArc
 50
285.0000510000707
 51
309.0001340000128
  0
LINE
  5
70
330
2F
100
AcDbEntity
  8
-15N-THT. THIẾT BỊ ĐÓNG MỞ
100
AcDbLine
 10
-87.95030299999416
 20
35.62558050000007
 30
0.0
 11
-58.76699899999585
 21
35.62558050000007
 31
0.0
  0
ARC
  5
71
330
2F
100
AcDbEntity
  8
-15N-THT. THIẾT BỊ ĐÓNG MỞ
100
AcDbCircle
 10
-58.76699899999585
 20
36.62562549999893
 30
0.0
 40
0.999999
100
AcDbArc
 50
270.0035240001276
 51
285.0033840000579
  0
LINE
  5
72
330
2F
100
AcDbEntity
  8
-15N-THT. THIẾT BỊ ĐÓNG MỞ
100
AcDbLine
 10
-57.56949999999415
 20
-38.40827950000039
 30
0.0
 11
-52.22614899999462
 21
-39.84002250000049
 31
0.0
  0
ARC
  5
73
330
2F
100
AcDbEntity
  8
-15N-THT. THIẾT BỊ ĐÓNG MỞ
100
AcDbCircle
 10
-51.9675909999969
 20
-38.87416050000047
 30
0.0
 40
0.999999
100
AcDbArc
 50
255.0002759999205
 51
270.0001910001703
  0
ARC
  5
74
330
2F
100
AcDbEntity
  8
-15N-THT. THIẾT BỊ ĐÓNG MỞ
100
AcDbCircle
 10
-57.82852199999616
 20
-39.37428250000085
 30
0.0
 40
0.999999
100
AcDbArc
 50
74.99731599995056
 51
89.99723100007981
  0
LINE
  5
75
330
2F
100
AcDbEntity
  8
-15N-THT. THIẾT BỊ ĐÓNG MỞ
100
AcDbLine
 10
-95.19892899999466
 20
-17.87414550000085
 30
0.0
 11
-95.19892899999466
 21
-7.874320500000976
 31
0.0
  0
LINE
  5
76
330
2F
100
AcDbEntity
  8
-15N-THT. THIẾT BỊ ĐÓNG MỞ
100
AcDbLine
 10
-97.69873099999678
 20
3.825649499999599
 30
0.0
 11
-93.098739999994
 21
3.825649499999599
 31
0.0
  0
LINE
  5
77
330
2F
100
AcDbEntity
  8
-15N-THT. THIẾT BỊ ĐÓNG MỞ
100
AcDbLine
 10
-98.09863299999415
 20
-6.574337500000183
 30
0.0
 11
-93.098739999994
 21
-6.574337500000183
 31
0.0
  0
LINE
  5
78
330
2F
100
AcDbEntity
  8
-15N-THT. THIẾT BỊ ĐÓNG MỞ
100
AcDbLine
 10
-97.69892899999469
 20
3.825647499999831
 30
0.0
 11
-97.69892899999469
 21
14.12561649999952
 31
0.0
  0
LINE
  5
79
330
2F
100
AcDbEntity
  8
-15N-THT. THIẾT BỊ ĐÓNG MỞ
100
AcDbLine
 10
-98.09883199999604
 20
-10.37432050000097
 30
0.0
 11
-98.09883199999604
 21
-6.574334500000986
 31
0.0
  0
LINE
  5
7A
330
2F
100
AcDbEntity
  8
-15N-THT. THIẾT BỊ ĐÓNG MỞ
100
AcDbLine
 10
-97.19873099999677
 20
14.62561649999952
 30
0.0
 11
-90.17724699999599
 21
14.62561649999952
 31
0.0
  0
LINE
  5
7B
330
2F
100
AcDbEntity
  8
-15N-THT. THIẾT BỊ ĐÓNG MỞ
100
AcDbLine
 10
-97.99882599999547
 20
-18.37419050000062
 30
0.0
 11
-97.29882899999575
 21
-18.37419050000062
 31
0.0
  0
LINE
  5
7C
330
2F
100
AcDbEntity
  8
-15N-THT. THIẾT BỊ ĐÓNG MỞ
100
AcDbLine
 10
-98.09863299999415
 20
-10.37432050000097
 30
0.0
 11
-97.2986449999953
 21
-10.37432050000097
 31
0.0
  0
LINE
  5
7D
330
2F
100
AcDbEntity
  8
-15N-THT. THIẾT BỊ ĐÓNG MỞ
100
AcDbLine
 10
-97.2986449999953
 20
-7.874320500000976
 30
0.0
 11
-95.19873099999676
 21
-7.874320500000976
 31
0.0
  0
LINE
  5
7E
330
2F
100
AcDbEntity
  8
-15N-THT. THIẾT BỊ ĐÓNG MỞ
100
AcDbLine
 10
-95.19873099999676
 20
6.125616499999523
 30
0.0
 11
-93.098739999994
 21
6.125616499999523
 31
0.0
  0
LINE
  5
7F
330
2F
100
AcDbEntity
  8
-15N-THT. THIẾT BỊ ĐÓNG MỞ
100
AcDbLine
 10
-95.19892899999466
 20
6.125616499999523
 30
0.0
 11
-95.19892899999466
 21
14.12561649999952
 31
0.0
  0
LINE
  5
80
330
2F
100
AcDbEntity
  8
-15N-THT. THIẾT BỊ ĐÓNG MỞ
100
AcDbLine
 10
-97.29884399999357
 20
-18.37419050000062
 30
0.0
 11
-97.29884399999357
 21
-7.874320500000976
 31
0.0
  0
LINE
  5
81
330
2F
100
AcDbEntity
  8
-15N-THT. THIẾT BỊ ĐÓNG MỞ
100
AcDbLine
 10
-93.09893799999556
 20
-18.37416050000047
 30
0.0
 11
-93.09893799999556
 21
14.62562249999973
 31
0.0
  0
ARC
  5
82
330
2F
100
AcDbEntity
  8
-15N-THT. THIẾT BỊ ĐÓNG MỞ
100
AcDbCircle
 10
-96.79873699999371
 20
-17.87416050000047
 30
0.0
 40
0.499999
100
AcDbArc
 50
180.0000990000152
 51
269.9999720001431
  0
ARC
  5
83
330
2F
100
AcDbEntity
  8
-15N-THT. THIẾT BỊ ĐÓNG MỞ
100
AcDbCircle
 10
-97.19883799999663
 20
14.12563449999925
 30
0.0
 40
0.499999
100
AcDbArc
 50
90.0001720001632
 51
180.0000170000173
  0
ARC
  5
84
330
2F
100
AcDbEntity
  8
-15N-THT. THIẾT BỊ ĐÓNG MỞ
100
AcDbCircle
 10
-95.69883799999661
 20
14.12563449999925
 30
0.0
 40
0.499999
100
AcDbArc
 50
9.10000039476e-05
 51
90.00007300014805
  0
ARC
  5
85
330
2F
100
AcDbEntity
  8
-15N-THT. THIẾT BỊ ĐÓNG MỞ
100
AcDbCircle
 10
-95.69883799999661
 20
-17.87416050000047
 30
0.0
 40
0.499999
100
AcDbArc
 50
269.9999720001431
 51
359.9999130000278
  0
LINE
  5
86
330
2F
100
AcDbEntity
  8
-15N-THT. THIẾT BỊ ĐÓNG MỞ
100
AcDbLine
 10
-92.9465869999949
 20
11.92560349999985
 30
0.0
 11
-93.09846499999549
 21
6.125625499998932
 31
0.0
  0
LINE
  5
87
330
2F
100
AcDbEntity
  8
-15N-THT. THIẾT BỊ ĐÓNG MỞ
100
AcDbLine
 10
-93.09860699999626
 20
-7.874230500000521
 30
0.0
 11
-92.92053999999553
 21
-14.67421650000051
 31
0.0
  0
LINE
  5
88
330
2F
100
AcDbEntity
  8
-15N-THT. THIẾT BỊ ĐÓNG MỞ
100
AcDbLine
 10
-90.09845399999539
 20
17.62554549999913
 30
0.0
 11
-90.28500799999529
 21
10.50133649999952
 31
0.0
  0
LINE
  5
89
330
2F
100
AcDbEntity
  8
-15N-THT. THIẾT BỊ ĐÓNG MỞ
100
AcDbLine
 10
-90.28514099999666
 20
-13.24986650000028
 30
0.0
 11
-90.09858399999575
 21
-20.37420850000035
 31
0.0
  0
LINE
  5
8A
330
2F
100
AcDbEntity
  8
-15N-THT. THIẾT BỊ ĐÓNG MỞ
100
AcDbLine
 10
-92.75187299999378
 20
11.92553849999967
 30
0.0
 11
-90.2849769999957
 21
10.50127549999888
 31
0.0
  0
LINE
  5
8B
330
2F
100
AcDbEntity
  8
-15N-THT. THIẾT BỊ ĐÓNG MỞ
100
AcDbLine
 10
-92.75212899999678
 20
-14.67420250000032
 30
0.0
 11
-90.28506099999503
 21
-13.24984150000091
 31
0.0
  0
LINE
  5
8C
330
2F
100
AcDbEntity
  8
-15N-THT. THIẾT BỊ ĐÓNG MỞ
100
AcDbLine
 10
-92.94677799999408
 20
11.92562949999956
 30
0.0
 11
-90.24795599999563
 21
11.92562949999956
 31
0.0
  0
LINE
  5
8D
330
2F
100
AcDbEntity
  8
-15N-THT. THIẾT BỊ ĐÓNG MỞ
100
AcDbLine
 10
-92.9206089999934
 20
-14.67432650000046
 30
0.0
 11
-90.24795599999563
 21
-14.67432650000046
 31
0.0
  0
LINE
  5
8E
330
2F
100
AcDbEntity
  8
-15N-THT. THIẾT BỊ ĐÓNG MỞ
100
AcDbLine
 10
-88.95014599999558
 20
34.63422849999915
 30
0.0
 11
-89.0985799999944
 21
17.6255244999993
 31
0.0
  0
LINE
  5
8F
330
2F
100
AcDbEntity
  8
-15N-THT. THIẾT BỊ ĐÓNG MỞ
100
AcDbLine
 10
-89.09859899999356
 20
-20.37422950000109
 30
0.0
 11
-88.95016499999474
 21
-37.38294950000091
 31
0.0
  0
ARC
  5
90
330
2F
100
AcDbEntity
  8
-15N-THT. THIẾT BỊ ĐÓNG MỞ
100
AcDbCircle
 10
-87.95030299999416
 20
-37.37428250000085
 30
0.0
 40
0.999999
100
AcDbArc
 50
180.50012399999
 51
270.0024860000112
  0
ARC
  5
91
330
2F
100
AcDbEntity
  8
-15N-THT. THIẾT BỊ ĐÓNG MỞ
100
AcDbCircle
 10
-87.95039399999585
 20
34.62562549999893
 30
0.0
 40
0.999999
100
AcDbArc
 50
89.99810600009043
 51
179.4999939999932
  0
LINE
  5
92
330
2F
100
AcDbEntity
  8
-15N-THT. THIẾT BỊ ĐÓNG MỞ
100
AcDbLine
 10
-87.95010399999592
 20
-38.37428250000085
 30
0.0
 11
-57.82852199999616
 21
-38.37428250000085
 31
0.0
  0
LINE
  5
93
330
2F
100
AcDbEntity
  8
-15N-THT. THIẾT BỊ ĐÓNG MỞ
100
AcDbLine
 10
-90.09852299999693
 20
-20.37418950000029
 30
0.0
 11
-89.09852299999693
 21
-20.37418950000029
 31
0.0
  0
LINE
  5
94
330
2F
100
AcDbEntity
  8
-15N-THT. THIẾT BỊ ĐÓNG MỞ
100
AcDbLine
 10
-90.09852299999693
 20
17.62553249999928
 30
0.0
 11
-89.09852299999693
 21
17.62553249999928
 31
0.0
  0
LINE
  5
95
330
2F
100
AcDbEntity
  8
-15N-THT. THIẾT BỊ ĐÓNG MỞ
100
AcDbLine
 10
-93.09892299999409
 20
3.625656499999422
 30
0.0
 11
-98.09881599999426
 21
3.625656499999422
 31
0.0
  0
LINE
  5
96
330
2F
100
AcDbEntity
  8
-15N-THT. THIẾT BỊ ĐÓNG MỞ
100
AcDbLine
 10
-93.09892299999409
 20
-6.374343500000577
 30
0.0
 11
-98.09881599999426
 21
-6.374343500000577
 31
0.0
  0
LINE
  5
97
330
2F
100
AcDbEntity
  8
-15N-THT. THIẾT BỊ ĐÓNG MỞ
100
AcDbLine
 10
-93.09892299999409
 20
0.1256564999994225
 30
0.0
 11
-98.09881599999426
 21
0.1256564999994225
 31
0.0
  0
LINE
  5
98
330
2F
100
AcDbEntity
  8
-15N-THT. THIẾT BỊ ĐÓNG MỞ
100
AcDbLine
 10
-93.09892299999409
 20
-2.874343500000577
 30
0.0
 11
-98.09881599999426
 21
-2.874343500000577
 31
0.0
  0
LINE
  5
99
330
2F
100
AcDbEntity
  8
-15N-THT. THIẾT BỊ ĐÓNG MỞ
100
AcDbLine
 10
-98.09881299999688
 20
-6.374341500000809
 30
0.0
 11
-98.09881299999688
 21
3.625656499999422
 31
0.0
  0
LINE
  5
9A
330
2F
100
AcDbEntity
  8
-15N-THT. THIẾT BỊ ĐÓNG MỞ
100
AcDbLine
 10
-98.29884399999357
 20
-18.07417250000071
 30
0.0
 11
-98.29884399999357
 21
-10.87418950000028
 31
0.0
  0
ARC
  5
9B
330
2F
100
AcDbEntity
  8
-15N-THT. THIẾT BỊ ĐÓNG MỞ
100
AcDbCircle
 10
-97.9988409999969
 20
-18.07417250000071
 30
0.0
 40
0.3
100
AcDbArc
 50
179.9970939999981
 51
269.9999720001431
  0
LINE
  5
9C
330
2F
100
AcDbEntity
  8
-15N-THT. THIẾT BỊ ĐÓNG MỞ
100
AcDbLine
 10
-96.7987219999959
 20
-18.37419050000062
 30
0.0
 11
-90.15098599999692
 21
-18.37419050000062
 31
0.0
  0
LINE
  5
9D
330
2F
100
AcDbEntity
  8
-15N-THT. THIẾT BỊ ĐÓNG MỞ
100
AcDbLine
 10
-97.99882599999547
 20
-10.57419050000044
 30
0.0
 11
-97.29882899999575
 21
-10.57419050000044
 31
0.0
  0
ARC
  5
9E
330
2F
100
AcDbEntity
  8
-15N-THT. THIẾT BỊ ĐÓNG MỞ
100
AcDbCircle
 10
-97.9988409999969
 20
-10.87418950000028
 30
0.0
 40
0.3
100
AcDbArc
 50
90.00001800011646
 51
179.9998178635154
  0
LINE
  5
9F
330
2F
100
AcDbEntity
  8
-15N-THT. THIẾT BỊ ĐÓNG MỞ
100
AcDbLine
 10
-88.98077399999602
 20
31.12561049999931
 30
0.0
 11
-89.79846199999518
 21
31.12561049999931
 31
0.0
  0
LINE
  5
A0
330
2F
100
AcDbEntity
  8
-15N-THT. THIẾT BỊ ĐÓNG MỞ
100
AcDbLine
 10
-90.09846499999549
 20
30.82560749999903
 30
0.0
 11
-90.09846499999549
 21
17.62553449999905
 31
0.0
  0
ARC
  5
A1
330
2F
100
AcDbEntity
  8
-15N-THT. THIẾT BỊ ĐÓNG MỞ
100
AcDbCircle
 10
-89.79846199999518
 20
30.82560749999903
 30
0.0
 40
0.3
100
AcDbArc
 50
90.00001800011646
 51
180.0
  0
LINE
  5
A2
330
2F
100
AcDbEntity
  8
-15N-THT. THIẾT BỊ ĐÓNG MỞ
100
AcDbLine
 10
-89.79844699999374
 20
-33.87429750000047
 30
0.0
 11
-88.98075899999458
 21
-33.87429750000047
 31
0.0
  0
LINE
  5
A3
330
2F
100
AcDbEntity
  8
-15N-THT. THIẾT BỊ ĐÓNG MỞ
100
AcDbLine
 10
-90.09846499999549
 20
-20.37420650000058
 30
0.0
 11
-90.09846499999549
 21
-33.57427950000056
 31
0.0
  0
ARC
  5
A4
330
2F
100
AcDbEntity
  8
-15N-THT. THIẾT BỊ ĐÓNG MỞ
100
AcDbCircle
 10
-89.79846199999518
 20
-33.57427950000056
 30
0.0
 40
0.3
100
AcDbArc
 50
179.999989999999
 51
269.9999170001115
  0
LINE
  5
A5
330
2F
100
AcDbEntity
  8
-15N-THT. THIẾT BỊ ĐÓNG MỞ
100
AcDbLine
 10
-87.09858699999675
 20
22.37565649999942
 30
0.0
 11
-87.09858699999675
 21
-25.124312500001
 31
0.0
  0
LINE
  5
A6
330
2F
100
AcDbEntity
  8
-15N-THT. THIẾT BỊ ĐÓNG MỞ
100
AcDbLine
 10
-64.09858699999677
 20
22.37565649999942
 30
0.0
 11
-64.09858699999677
 21
-25.124312500001
 31
0.0
  0
LINE
  5
A7
330
2F
100
AcDbEntity
  8
-15N-THT. THIẾT BỊ ĐÓNG MỞ
100
AcDbLine
 10
-85.59858699999677
 20
23.87565649999942
 30
0.0
 11
-65.59858699999677
 21
23.87565649999942
 31
0.0
  0
LINE
  5
A8
330
2F
100
AcDbEntity
  8
-15N-THT. THIẾT BỊ ĐÓNG MỞ
100
AcDbLine
 10
-85.59857199999531
 20
-26.62432850000096
 30
0.0
 11
-65.59857199999533
 21
-26.62432850000096
 31
0.0
  0
ARC
  5
A9
330
2F
100
AcDbEntity
  8
-15N-THT. THIẾT BỊ ĐÓNG MỞ
100
AcDbCircle
 10
-65.59858699999677
 20
22.37565649999942
 30
0.0
 40
1.5
100
AcDbArc
 50
359.9999809999929
 51
90.00001800011646
  0
ARC
  5
AA
330
2F
100
AcDbEntity
  8
-15N-THT. THIẾT BỊ ĐÓNG MỞ
100
AcDbCircle
 10
-85.59858699999677
 20
22.37565649999942
 30
0.0
 40
1.5
100
AcDbArc
 50
90.000011000048
 51
179.9999899820731
  0
ARC
  5
AB
330
2F
100
AcDbEntity
  8
-15N-THT. THIẾT BỊ ĐÓNG MỞ
100
AcDbCircle
 10
-65.59858699999677
 20
-25.124312500001
 30
0.0
 40
1.5
100
AcDbArc
 50
269.9999990001093
 51
0.0006370000276455
  0
ARC
  5
AC
330
2F
100
AcDbEntity
  8
-15N-THT. THIẾT BỊ ĐÓNG MỞ
100
AcDbCircle
 10
-85.59858699999677
 20
-25.124312500001
 30
0.0
 40
1.5
100
AcDbArc
 50
179.9994160000142
 51
269.9999720001431
  0
LINE
  5
AD
330
2F
100
AcDbEntity
  8
-15N-THT. THIẾT BỊ ĐÓNG MỞ
  6
DASHED
 62
6
100
AcDbLine
 10
-98.09881299999688
 20
-9.095e-13
 30
0.0
 11
0.0
 21
0.0
 31
0.0
  0
ENDBLK
  5
31
330
2F
100
AcDbEntity
  8
0
100
AcDbBlockEnd
  0
ENDSEC
  0
SECTION
  2
ENTITIES
  0
INSERT
  5
B0
330
17
100
AcDbEntity
  8
0
100
AcDbBlockReference
  2
06 - N - SC CTT CHIẾU HÔNG LC1D32
 10
98.29884399999357
 20
39.874159500000474
 30
0.0
  0
ENDSEC
  0
SECTION
  2
OBJECTS
  0
DICTIONARY
  5
A
330
0
100
AcDbDictionary
281
1
  3
ACAD_COLOR
350
B
  3
ACAD_GROUP
350
C
  3
ACAD_LAYOUT
350
D
  3
ACAD_MATERIAL
350
E
  3
ACAD_MLEADERSTYLE
350
F
  3
ACAD_MLINESTYLE
350
10
  3
ACAD_PLOTSETTINGS
350
11
  3
ACAD_PLOTSTYLENAME
350
12
  3
ACAD_SCALELIST
350
14
  3
ACAD_TABLESTYLE
350
15
  3
ACAD_VISUALSTYLE
350
16
  3
EZDXF_META
350
2D
  0
DICTIONARY
  5
B
330
A
100
AcDbDictionary
281
1
  0
DICTIONARY
  5
C
330
A
100
AcDbDictionary
281
1
  0
DICTIONARY
  5
D
330
A
100
AcDbDictionary
281
1
  3
Model
350
1A
  3
Layout1
350
1E
  0
DICTIONARY
  5
E
330
A
100
AcDbDictionary
281
1
  3
ByBlock
350
1F
  3
ByLayer
350
20
  3
Global
350
21
  0
DICTIONARY
  5
F
330
A
100
AcDbDictionary
281
1
  3
Standard
350
2C
  0
DICTIONARY
  5
10
330
A
100
AcDbDictionary
281
1
  3
Standard
350
22
  0
DICTIONARY
  5
11
330
A
100
AcDbDictionary
281
1
  0
ACDBDICTIONARYWDFLT
  5
12
330
A
100
AcDbDictionary
281
1
  3
Normal
350
13
100
AcDbDictionaryWithDefault
340
13
  0
ACDBPLACEHOLDER
  5
13
330
12
  0
DICTIONARY
  5
14
330
A
100
AcDbDictionary
281
1
  0
DICTIONARY
  5
15
330
A
100
AcDbDictionary
281
1
  0
DICTIONARY
  5
16
330
A
100
AcDbDictionary
281
1
  0
LAYOUT
  5
1A
330
D
100
AcDbPlotSettings
  1

  4
A3
  6

 40
7.5
 41
20.0
 42
7.5
 43
20.0
 44
420.0
 45
297.0
 46
0.0
 47
0.0
 48
0.0
 49
0.0
140
0.0
141
0.0
142
1.0
143
1.0
 70
1024
 72
1
 73
0
 74
5
  7

 75
16
 76
0
 77
2
 78
300
147
1.0
148
0.0
149
0.0
100
AcDbLayout
  1
Model
 70
1
 71
0
 10
0.0
 20
0.0
 11
420.0
 21
297.0
 12
0.0
 22
0.0
 32
0.0
 14
1e+20
 24
1e+20
 34
1e+20
 15
-1e+20
 25
-1e+20
 35
-1e+20
146
0.0
 13
0.0
 23
0.0
 33
0.0
 16
1.0
 26
0.0
 36
0.0
 17
0.0
 27
1.0
 37
0.0
 76
1
330
17
  0
LAYOUT
  5
1E
330
D
100
AcDbPlotSettings
  1

  4
A3
  6

 40
7.5
 41
20.0
 42
7.5
 43
20.0
 44
420.0
 45
297.0
 46
0.0
 47
0.0
 48
0.0
 49
0.0
140
0.0
141
0.0
142
1.0
143
1.0
 70
0
 72
1
 73
0
 74
5
  7

 75
16
 76
0
 77
2
 78
300
147
1.0
148
0.0
149
0.0
100
AcDbLayout
  1
Layout1
 70
1
 71
1
 10
0.0
 20
0.0
 11
420.0
 21
297.0
 12
0.0
 22
0.0
 32
0.0
 14
1e+20
 24
1e+20
 34
1e+20
 15
-1e+20
 25
-1e+20
 35
-1e+20
146
0.0
 13
0.0
 23
0.0
 33
0.0
 16
1.0
 26
0.0
 36
0.0
 17
0.0
 27
1.0
 37
0.0
 76
1
330
1B
  0
MATERIAL
  5
1F
102
{ACAD_REACTORS
330
E
102
}
330
E
100
AcDbMaterial
  1
ByBlock
  2

 70
0
 40
1.0
 71
1
 41
1.0
 91
-1023410177
 42
1.0
 72
1
  3

 73
1
 74
1
 75
1
 44
0.5
 73
0
 45
1.0
 46
1.0
 77
1
  4

 78
1
 79
1
170
1
 48
1.0
171
1
  6

172
1
173
1
174
1
140
1.0
141
1.0
175
1
  7

176
1
177
1
178
1
143
1.0
179
1
  8

270
1
271
1
272
1
145
1.0
146
1.0
273
1
  9

274
1
275
1
276
1
 42
1.0
 72
1
  3

 73
1
 74
1
 75
1
 94
63
  0
MATERIAL
  5
20
102
{ACAD_REACTORS
330
E
102
}
330
E
100
AcDbMaterial
  1
ByLayer
  2

 70
0
 40
1.0
 71
1
 41
1.0
 91
-1023410177
 42
1.0
 72
1
  3

 73
1
 74
1
 75
1
 44
0.5
 73
0
 45
1.0
 46
1.0
 77
1
  4

 78
1
 79
1
170
1
 48
1.0
171
1
  6

172
1
173
1
174
1
140
1.0
141
1.0
175
1
  7

176
1
177
1
178
1
143
1.0
179
1
  8

270
1
271
1
272
1
145
1.0
146
1.0
273
1
  9

274
1
275
1
276
1
 42
1.0
 72
1
  3

 73
1
 74
1
 75
1
 94
63
  0
MATERIAL
  5
21
102
{ACAD_REACTORS
330
E
102
}
330
E
100
AcDbMaterial
  1
Global
  2

 70
0
 40
1.0
 71
1
 41
1.0
 91
-1023410177
 42
1.0
 72
1
  3

 73
1
 74
1
 75
1
 44
0.5
 73
0
 45
1.0
 46
1.0
 77
1
  4

 78
1
 79
1
170
1
 48
1.0
171
1
  6

172
1
173
1
174
1
140
1.0
141
1.0
175
1
  7

176
1
177
1
178
1
143
1.0
179
1
  8

270
1
271
1
272
1
145
1.0
146
1.0
273
1
  9

274
1
275
1
276
1
 42
1.0
 72
1
  3

 73
1
 74
1
 75
1
 94
63
  0
MLINESTYLE
  5
22
102
{ACAD_REACTORS
330
10
102
}
330
10
100
AcDbMlineStyle
  2
Standard
 70
0
  3

 62
256
 51
90.0
 52
90.0
 71
2
 49
0.5
 62
256
  6
BYLAYER
 49
-0.5
 62
256
  6
BYLAYER
  0
MLEADERSTYLE
  5
2C
102
{ACAD_REACTORS
330
F
102
}
330
F
100
AcDbMLeaderStyle
179
2
170
2
171
1
172
0
 90
2
 40
0.0
 41
0.0
173
1
 91
-1056964608
 92
-2
290
1
 42
2.0
291
1
 43
8.0
  3
Standard
 44
4.0
300

342
29
174
1
175
1
176
0
178
1
 93
-1056964608
 45
4.0
292
0
297
0
 46
4.0
 94
-1056964608
 47
1.0
 49
1.0
140
1.0
294
1
141
0.0
177
0
142
1.0
295
0
296
0
143
3.75
271
0
272
9
273
9
  0
DICTIONARY
  5
2D
330
A
100
AcDbDictionary
280
1
281
1
  3
CREATED_BY_EZDXF
350
2E
  3
WRITTEN_BY_EZDXF
350
B4
  0
DICTIONARYVAR
  5
2E
330
2D
100
DictionaryVariables
280
0
  1
1.4.4 @ 2026-09-23T12:53:25.371987+00:00
  0
DICTIONARYVAR
  5
B4
330
2D
100
DictionaryVariables
280
0
  1
1.4.4 @ 2026-09-23T12:53:25.391767+00:00
  0
ENDSEC
  0
EOF
