  0
SECTION
  2
HEADER
  9
$ACADVER
  1
AC1032
  9
$ACADMAINTVER
 90
4
  9
$DWGCODEPAGE
  3
ANSI_1252
  9
$LASTSAVEDBY
  1
ezdxf
  9
$REQUIREDVERSIONS
160
0
  9
$INSBASE
 10
0.0
 20
0.0
 30
0.0
  9
$EXTMIN
 10
1e+20
 20
1e+20
 30
1e+20
  9
$EXTMAX
 10
-1e+20
 20
-1e+20
 30
-1e+20
  9
$LIMMIN
 10
0.0
 20
0.0
  9
$LIMMAX
 10
420.0
 20
297.0
  9
$ORTHOMODE
 70
0
  9
$REGENMODE
 70
1
  9
$FILLMODE
 70
1
  9
$QTEXTMODE
 70
0
  9
$MIRRTEXT
 70
1
  9
$LTSCALE
 40
1.0
  9
$ATTMODE
 70
1
  9
$TEXTSIZE
 40
2.5
  9
$TRACEWID
 40
1.0
  9
$TEXTSTYLE
  7
Standard
  9
$CLAYER
  8
0
  9
$CELTYPE
  6
ByLayer
  9
$CECOLOR
 62
256
  9
$CELTSCALE
 40
1.0
  9
$DISPSILH
 70
0
  9
$DIMSCALE
 40
1.0
  9
$DIMASZ
 40
2.5
  9
$DIMEXO
 40
0.625
  9
$DIMDLI
 40
3.75
  9
$DIMRND
 40
0.0
  9
$DIMDLE
 40
0.0
  9
$DIMEXE
 40
1.25
  9
$DIMTP
 40
0.0
  9
$DIMTM
 40
0.0
  9
$DIMTXT
 40
2.5
  9
$DIMCEN
 40
2.5
  9
$DIMTSZ
 40
0.0
  9
$DIMTOL
 70
0
  9
$DIMLIM
 70
0
  9
$DIMTIH
 70
0
  9
$DIMTOH
 70
0
  9
$DIMSE1
 70
0
  9
$DIMSE2
 70
0
  9
$DIMTAD
 70
1
  9
$DIMZIN
 70
8
  9
$DIMBLK
  1

  9
$DIMASO
 70
1
  9
$DIMSHO
 70
1
  9
$DIMPOST
  1

  9
$DIMAPOST
  1

  9
$DIMALT
 70
0
  9
$DIMALTD
 70
3
  9
$DIMALTF
 40
0.03937007874
  9
$DIMLFAC
 40
1.0
  9
$DIMTOFL
 70
1
  9
$DIMTVP
 40
0.0
  9
$DIMTIX
 70
0
  9
$DIMSOXD
 70
0
  9
$DIMSAH
 70
0
  9
$DIMBLK1
  1

  9
$DIMBLK2
  1

  9
$DIMSTYLE
  2
ISO-25
  9
$DIMCLRD
 70
0
  9
$DIMCLRE
 70
0
  9
$DIMCLRT
 70
0
  9
$DIMTFAC
 40
1.0
  9
$DIMGAP
 40
0.625
  9
$DIMJUST
 70
0
  9
$DIMSD1
 70
0
  9
$DIMSD2
 70
0
  9
$DIMTOLJ
 70
0
  9
$DIMTZIN
 70
8
  9
$DIMALTZ
 70
0
  9
$DIMALTTZ
 70
0
  9
$DIMUPT
 70
0
  9
$DIMDEC
 70
2
  9
$DIMTDEC
 70
2
  9
$DIMALTU
 70
2
  9
$DIMALTTD
 70
3
  9
$DIMTXSTY
  7
Standard
  9
$DIMAUNIT
 70
0
  9
$DIMADEC
 70
0
  9
$DIMALTRND
 40
0.0
  9
$DIMAZIN
 70
0
  9
$DIMDSEP
 70
44
  9
$DIMATFIT
 70
3
  9
$DIMFRAC
 70
0
  9
$DIMLDRBLK
  1

  9
$DIMLUNIT
 70
2
  9
$DIMLWD
 70
-2
  9
$DIMLWE
 70
-2
  9
$DIMTMOVE
 70
0
  9
$DIMFXL
 40
1.0
  9
$DIMFXLON
 70
0
  9
$DIMJOGANG
 40
0.785398163397
  9
$DIMTFILL
 70
0
  9
$DIMTFILLCLR
 70
0
  9
$DIMARCSYM
 70
0
  9
$DIMLTYPE
  6

  9
$DIMLTEX1
  6

  9
$DIMLTEX2
  6

  9
$DIMTXTDIRECTION
 70
0
  9
$LUNITS
 70
2
  9
$LUPREC
 70
4
  9
$SKETCHINC
 40
1.0
  9
$FILLETRAD
 40
10.0
  9
$AUNITS
 70
0
  9
$AUPREC
 70
2
  9
$MENU
  1
.
  9
$ELEVATION
 40
0.0
  9
$PELEVATION
 40
0.0
  9
$THICKNESS
 40
0.0
  9
$LIMCHECK
 70
0
  9
$CHAMFERA
 40
0.0
  9
$CHAMFERB
 40
0.0
  9
$CHAMFERC
 40
0.0
  9
$CHAMFERD
 40
0.0
  9
$SKPOLY
 70
0
  9
$TDCREATE
 40
2461307.8303125
  9
$TDUCREATE
 40
2458532.153996898
  9
$TDUPDATE
 40
2461307.8303125
  9
$TDUUPDATE
 40
2458532.1544311
  9
$TDINDWG
 40
0.0
  9
$TDUSRTIMER
 40
0.0
  9
$USRTIMER
 70
1
  9
$ANGBASE
 50
0.0
  9
$ANGDIR
 70
0
  9
$PDMODE
 70
0
  9
$PDSIZE
 40
0.0
  9
$PLINEWID
 40
0.0
  9
$SPLFRAME
 70
0
  9
$SPLINETYPE
 70
6
  9
$SPLINESEGS
 70
8
  9
$HANDSEED
  5
D3
  9
$SURFTAB1
 70
6
  9
$SURFTAB2
 70
6
  9
$SURFTYPE
 70
6
  9
$SURFU
 70
6
  9
$SURFV
 70
6
  9
$UCSBASE
  2

  9
$UCSNAME
  2

  9
$UCSORG
 10
0.0
 20
0.0
 30
0.0
  9
$UCSXDIR
 10
1.0
 20
0.0
 30
0.0
  9
$UCSYDIR
 10
0.0
 20
1.0
 30
0.0
  9
$UCSORTHOREF
  2

  9
$UCSORTHOVIEW
 70
0
  9
$UCSORGTOP
 10
0.0
 20
0.0
 30
0.0
  9
$UCSORGBOTTOM
 10
0.0
 20
0.0
 30
0.0
  9
$UCSORGLEFT
 10
0.0
 20
0.0
 30
0.0
  9
$UCSORGRIGHT
 10
0.0
 20
0.0
 30
0.0
  9
$UCSORGFRONT
 10
0.0
 20
0.0
 30
0.0
  9
$UCSORGBACK
 10
0.0
 20
0.0
 30
0.0
  9
$PUCSBASE
  2

  9
$PUCSNAME
  2

  9
$PUCSORG
 10
0.0
 20
0.0
 30
0.0
  9
$PUCSXDIR
 10
1.0
 20
0.0
 30
0.0
  9
$PUCSYDIR
 10
0.0
 20
1.0
 30
0.0
  9
$PUCSORTHOREF
  2

  9
$PUCSORTHOVIEW
 70
0
  9
$PUCSORGTOP
 10
0.0
 20
0.0
 30
0.0
  9
$PUCSORGBOTTOM
 10
0.0
 20
0.0
 30
0.0
  9
$PUCSORGLEFT
 10
0.0
 20
0.0
 30
0.0
  9
$PUCSORGRIGHT
 10
0.0
 20
0.0
 30
0.0
  9
$PUCSORGFRONT
 10
0.0
 20
0.0
 30
0.0
  9
$PUCSORGBACK
 10
0.0
 20
0.0
 30
0.0
  9
$USERI1
 70
0
  9
$USERI2
 70
0
  9
$USERI3
 70
0
  9
$USERI4
 70
0
  9
$USERI5
 70
0
  9
$USERR1
 40
0.0
  9
$USERR2
 40
0.0
  9
$USERR3
 40
0.0
  9
$USERR4
 40
0.0
  9
$USERR5
 40
0.0
  9
$WORLDVIEW
 70
1
  9
$SHADEDGE
 70
3
  9
$SHADEDIF
 70
70
  9
$TILEMODE
 70
1
  9
$MAXACTVP
 70
64
  9
$PINSBASE
 10
0.0
 20
0.0
 30
0.0
  9
$PLIMCHECK
 70
0
  9
$PEXTMIN
 10
1e+20
 20
1e+20
 30
1e+20
  9
$PEXTMAX
 10
-1e+20
 20
-1e+20
 30
-1e+20
  9
$PLIMMIN
 10
0.0
 20
0.0
  9
$PLIMMAX
 10
420.0
 20
297.0
  9
$UNITMODE
 70
0
  9
$VISRETAIN
 70
1
  9
$PLINEGEN
 70
0
  9
$PSLTSCALE
 70
1
  9
$TREEDEPTH
 70
3020
  9
$CMLSTYLE
  2
Standard
  9
$CMLJUST
 70
0
  9
$CMLSCALE
 40
20.0
  9
$PROXYGRAPHICS
 70
1
  9
$MEASUREMENT
 70
1
  9
$CELWEIGHT
370
-1
  9
$ENDCAPS
280
0
  9
$JOINSTYLE
280
0
  9
$LWDISPLAY
290
0
  9
$INSUNITS
 70
0
  9
$HYPERLINKBASE
  1

  9
$STYLESHEET
  1

  9
$XEDIT
290
1
  9
$CEPSNTYPE
380
0
  9
$PSTYLEMODE
290
1
  9
$FINGERPRINTGUID
  2
{97C6292C-4132-4420-A1F4-05F950578F7B}
  9
$VERSIONGUID
  2
{739F899C-088C-4012-99BA-143BBA221417}
  9
$EXTNAMES
290
1
  9
$PSVPSCALE
 40
0.0
  9
$OLESTARTUP
290
0
  9
$SORTENTS
280
127
  9
$INDEXCTL
280
0
  9
$HIDETEXT
280
1
  9
$XCLIPFRAME
280
1
  9
$HALOGAP
280
0
  9
$OBSCOLOR
 70
257
  9
$OBSLTYPE
280
0
  9
$INTERSECTIONDISPLAY
280
0
  9
$INTERSECTIONCOLOR
 70
257
  9
$DIMASSOC
280
2
  9
$PROJECTNAME
  1

  9
$CAMERADISPLAY
290
0
  9
$LENSLENGTH
 40
50.0
  9
$CAMERAHEIGHT
 40
0.0
  9
$STEPSPERSEC
 40
24.0
  9
$STEPSIZE
 40
100.0
  9
$3DDWFPREC
 40
2.0
  9
$PSOLWIDTH
 40
0.005
  9
$PSOLHEIGHT
 40
0.08
  9
$LOFTANG1
 40
1.570796326795
  9
$LOFTANG2
 40
1.570796326795
  9
$LOFTMAG1
 40
0.0
  9
$LOFTMAG2
 40
0.0
  9
$LOFTPARAM
 70
7
  9
$LOFTNORMALS
280
1
  9
$LATITUDE
 40
37.795
  9
$LONGITUDE
 40
-122.394
  9
$NORTHDIRECTION
 40
0.0
  9
$TIMEZONE
 70
-8000
  9
$LIGHTGLYPHDISPLAY
280
1
  9
$TILEMODELIGHTSYNCH
280
1
  9
$CMATERIAL
347
20
  9
$SOLIDHIST
280
0
  9
$SHOWHIST
280
1
  9
$DWFFRAME
280
2
  9
$DGNFRAME
280
2
  9
$REALWORLDSCALE
290
1
  9
$INTERFERECOLOR
 62
256
  9
$CSHADOW
280
0
  9
$SHADOWPLANELOCATION
 40
0.0
  0
ENDSEC
  0
SECTION
  2
CLASSES
  0
CLASS
  1
ACDBDICTIONARYWDFLT
  2
AcDbDictionaryWithDefault
  3
ObjectDBX Classes
 90
0
 91
0
280
0
281
0
  0
CLASS
  1
SUN
  2
AcDbSun
  3
SCENEOE
 90
1153
 91
0
280
0
281
0
  0
CLASS
  1
VISUALSTYLE
  2
AcDbVisualStyle
  3
ObjectDBX Classes
 90
4095
 91
0
280
0
281
0
  0
CLASS
  1
MATERIAL
  2
AcDbMaterial
  3
ObjectDBX Classes
 90
1153
 91
0
280
0
281
0
  0
CLASS
  1
SCALE
  2
AcDbScale
  3
ObjectDBX Classes
 90
1153
 91
0
280
0
281
0
  0
CLASS
  1
TABLESTYLE
  2
AcDbTableStyle
  3
ObjectDBX Classes
 90
4095
 91
0
280
0
281
0
  0
CLASS
  1
MLEADERSTYLE
  2
AcDbMLeaderStyle
  3
ACDB_MLEADERSTYLE_CLASS
 90
4095
 91
0
280
0
281
0
  0
CLASS
  1
DICTIONARYVAR
  2
AcDbDictionaryVar
  3
ObjectDBX Classes
 90
0
 91
0
280
0
281
0
  0
CLASS
  1
CELLSTYLEMAP
  2
AcDbCellStyleMap
  3
ObjectDBX Classes
 90
1152
 91
0
280
0
281
0
  0
CLASS
  1
MENTALRAYRENDERSETTINGS
  2
AcDbMentalRayRenderSettings
  3
SCENEOE
 90
1024
 91
0
280
0
281
0
  0
CLASS
  1
ACDBDETAILVIEWSTYLE
  2
AcDbDetailViewStyle
  3
ObjectDBX Classes
 90
1025
 91
0
280
0
281
0
  0
CLASS
  1
ACDBSECTIONVIEWSTYLE
  2
AcDbSectionViewStyle
  3
ObjectDBX Classes
 90
1025
 91
0
280
0
281
0
  0
CLASS
  1
RASTERVARIABLES
  2
AcDbRasterVariables
  3
ISM
 90
0
 91
0
280
0
281
0
  0
CLASS
  1
LAYOUT
  2
AcDbLayout
  3
ObjectDBX Classes
 90
0
 91
0
280
0
281
0
  0
CLASS
  1
ACDBPLACEHOLDER
  2
AcDbPlaceHolder
  3
ObjectDBX Classes
 90
0
 91
0
280
0
281
0
  0
ENDSEC
  0
SECTION
  2
TABLES
  0
TABLE
  2
VPORT
  5
8
330
0
100
AcDbSymbolTable
 70
1
  0
VPORT
  5
23
330
8
100
AcDbSymbolTableRecord
100
AcDbViewportTableRecord
  2
*Active
 70
0
 10
0.0
 20
0.0
 11
1.0
 21
1.0
 12
0.0
 22
0.0
 13
0.0
 23
0.0
 14
0.5
 24
0.5
 15
0.5
 25
0.5
 16
0.0
 26
0.0
 36
1.0
 17
0.0
 27
0.0
 37
0.0
 40
1000.0
 41
1.34
 42
50.0
 43
0.0
 44
0.0
 50
0.0
 51
0.0
 71
0
 72
1000
 73
1
 74
3
 75
0
 76
0
 77
0
 78
0
281
0
 65
0
146
0.0
  0
ENDTAB
  0
TABLE
  2
LTYPE
  5
2
330
0
100
AcDbSymbolTable
 70
3
  0
LTYPE
  5
24
330
2
100
AcDbSymbolTableRecord
100
AcDbLinetypeTableRecord
  2
ByBlock
 70
0
  3

 72
65
 73
0
 40
0.0
  0
LTYPE
  5
25
330
2
100
AcDbSymbolTableRecord
100
AcDbLinetypeTableRecord
  2
ByLayer
 70
0
  3

 72
65
 73
0
 40
0.0
  0
LTYPE
  5
26
330
2
100
AcDbSymbolTableRecord
100
AcDbLinetypeTableRecord
  2
Continuous
 70
0
  3

 72
65
 73
0
 40
0.0
  0
ENDTAB
  0
TABLE
  2
LAYER
  5
1
330
0
100
AcDbSymbolTable
 70
2
  0
LAYER
  5
27
330
1
100
AcDbSymbolTableRecord
100
AcDbLayerTableRecord
  2
0
 70
0
 62
7
  6
Continuous
370
-3
390
13
347
21
  0
LAYER
  5
28
330
1
100
AcDbSymbolTableRecord
100
AcDbLayerTableRecord
  2
Defpoints
 70
0
 62
7
  6
Continuous
290
0
370
-3
390
13
347
21
  0
ENDTAB
  0
TABLE
  2
STYLE
  5
5
330
0
100
AcDbSymbolTable
 70
1
  0
STYLE
  5
29
330
5
100
AcDbSymbolTableRecord
100
AcDbTextStyleTableRecord
  2
Standard
 70
0
 40
0.0
 41
1.0
 50
0.0
 71
0
 42
2.5
  3
txt
  4

  0
ENDTAB
  0
TABLE
  2
VIEW
  5
7
330
0
100
AcDbSymbolTable
 70
0
  0
ENDTAB
  0
TABLE
  2
UCS
  5
6
330
0
100
AcDbSymbolTable
 70
0
  0
ENDTAB
  0
TABLE
  2
APPID
  5
3
330
0
100
AcDbSymbolTable
 70
3
  0
APPID
  5
2A
330
3
100
AcDbSymbolTableRecord
100
AcDbRegAppTableRecord
  2
ACAD
 70
0
  0
APPID
  5
D0
330
3
100
AcDbSymbolTableRecord
100
AcDbRegAppTableRecord
  2
HATCHBACKGROUNDCOLOR
 70
0
  0
APPID
  5
D1
330
3
100
AcDbSymbolTableRecord
100
AcDbRegAppTableRecord
  2
EZDXF
 70
0
  0
ENDTAB
  0
TABLE
  2
DIMSTYLE
  5
4
330
0
100
AcDbSymbolTable
 70
1
100
AcDbDimStyleTable
  0
DIMSTYLE
105
2B
330
4
100
AcDbSymbolTableRecord
100
AcDbDimStyleTableRecord
  2
Standard
 70
0
 40
1.0
 41
2.5
 42
0.625
 43
3.75
 44
1.25
 45
0.0
 46
0.0
 47
0.0
 48
0.0
 49
2.5
140
2.5
141
2.5
142
0.0
143
0.03937007874
144
1.0
145
0.0
146
1.0
147
0.625
148
0.0
 69
0
 70
0
 71
0
 72
0
 73
0
 74
0
 75
0
 76
0
 77
1
 78
8
 79
3
170
0
171
3
172
1
173
0
174
0
175
0
176
0
177
0
178
0
179
2
271
2
272
2
273
2
274
3
275
0
276
0
277
2
278
44
279
0
280
0
281
0
282
0
283
0
284
8
285
0
286
0
288
0
289
3
290
0
371
-2
372
-2
  0
ENDTAB
  0
TABLE
  2
BLOCK_RECORD
  5
9
330
0
100
AcDbSymbolTable
 70
3
  0
BLOCK_RECORD
  5
17
330
9
100
AcDbSymbolTableRecord
100
AcDbBlockTableRecord
  2
*Model_Space
340
1A
 70
0
280
1
281
0
  0
BLOCK_RECORD
  5
1B
330
9
100
AcDbSymbolTableRecord
100
AcDbBlockTableRecord
  2
*Paper_Space
340
1E
 70
0
280
1
281
0
  0
BLOCK_RECORD
  5
2F
330
9
100
AcDbSymbolTableRecord
100
AcDbBlockTableRecord
  2
mcb-3
340
0
 70
0
280
1
281
0
  0
ENDTAB
  0
ENDSEC
  0
SECTION
  2
BLOCKS
  0
BLOCK
  5
18
330
17
100
AcDbEntity
  8
0
100
AcDbBlockBegin
  2
*Model_Space
 70
0
 10
0.0
 20
0.0
 30
0.0
  3
*Model_Space
  1

  0
ENDBLK
  5
19
330
17
100
AcDbEntity
  8
0
100
AcDbBlockEnd
  0
BLOCK
  5
1C
330
1B
100
AcDbEntity
  8
0
100
AcDbBlockBegin
  2
*Paper_Space
 70
0
 10
0.0
 20
0.0
 30
0.0
  3
*Paper_Space
  1

  0
ENDBLK
  5
1D
330
1B
100
AcDbEntity
  8
0
100
AcDbBlockEnd
  0
BLOCK
  5
30
330
2F
100
AcDbEntity
  8
0
100
AcDbBlockBegin
  2
mcb-3
 70
0
 10
0.0
 20
0.0
 30
0.0
  3
mcb-3
  1

  0
LWPOLYLINE
  5
32
330
2F
100
AcDbEntity
  8
0
100
AcDbPolyline
 90
59
 70
128
 38
5.065407551857788
 10
-23271.97056540606
 20
27744.49805400474
 10
-23271.97056540606
 20
27746.40689324762
 10
-23259.13944112948
 20
27746.40689324762
 10
-23258.66455917149
 20
27742.44023218679
 10
-23259.13944112948
 20
27746.40689324762
 10
-23271.97056540606
 20
27746.40689324762
 10
-23271.97056540606
 20
27744.49805400474
 10
-23280.04355869183
 20
27742.1236442148
 10
-23288.44245136053
 20
27742.28193820079
 10
-23296.51544464631
 20
27744.65634799073
 10
-23296.51544464631
 20
27746.40689324762
 10
-23305.389219273
 20
27746.40689324762
 10
-23307.13045311895
 20
27736.57404329401
 10
-23307.13045311895
 20
27722.47656712948
 10
-23305.07263130101
 20
27722.47656712948
 10
-23304.91433731501
 20
27722.47656712948
 10
-23305.07263130101
 20
27722.47656712948
 10
-23303.64798542704
 20
27743.38999610276
 10
-23300.16551773514
 20
27743.38999610276
 10
-23301.43186962311
 20
27724.85097691941
 10
-23302.22333955309
 20
27724.85097691941
 10
-23302.38163353908
 20
27722.47656712948
 10
-23301.5901636091
 20
27722.47656712948
 10
-23301.5901636091
 20
27686.65556923977
 10
-23307.13045311895
 20
27686.65556923977
 10
-23307.13045311895
 20
27661.45889123366
 10
-23307.13045311895
 20
27686.65556923977
 10
-23301.5901636091
 20
27686.65556923977
 10
-23301.5901636091
 20
27722.47656712948
 10
-23302.38163353908
 20
27722.47656712948
 10
-23302.22333955309
 20
27724.85097691941
 10
-23301.43186962311
 20
27724.85097691941
 10
-23301.43186962311
 20
27725.3258588774
 10
-23301.27357563711
 20
27725.95903482137
 10
-23301.43186962311
 20
27725.3258588774
 10
-23301.43186962311
 20
27724.85097691941
 10
-23300.16551773514
 20
27743.38999610276
 10
-23303.64798542704
 20
27743.38999610276
 10
-23305.07263130101
 20
27722.47656712948
 10
-23304.91433731501
 20
27723.42633104544
 10
-23304.91433731501
 20
27724.37609496142
 10
-23304.91433731501
 20
27723.42633104544
 10
-23305.07263130101
 20
27722.47656712948
 10
-23307.13045311895
 20
27722.47656712948
 10
-23307.13045311895
 20
27736.57404329401
 10
-23305.389219273
 20
27746.40689324762
 10
-23296.51544464631
 20
27746.40689324762
 10
-23290.50027317848
 20
27746.40689324762
 10
-23277.98573687389
 20
27746.40689324762
 10
-23271.97056540606
 20
27746.40689324762
 10
-23277.98573687389
 20
27746.40689324762
 10
-23277.98573687389
 20
27742.75682015878
 10
-23277.98573687389
 20
27746.40689324762
 10
-23290.50027317848
 20
27746.40689324762
 10
-23290.50027317848
 20
27742.91511414478
 10
-23290.50027317848
 20
27746.40689324762
 10
-23296.51544464631
 20
27746.40689324762
 10
-23296.51544464631
 20
27744.65634799073
 10
-23296.51544464631
 20
27746.40689324762
  0
LWPOLYLINE
  5
33
330
2F
100
AcDbEntity
  8
0
100
AcDbPolyline
 90
12
 70
129
 38
5.065407551857788
 10
-23299.84892976316
 20
27676.67373671112
 10
-23299.53234179116
 20
27677.78179461309
 10
-23298.73156045024
 20
27678.57326454306
 10
-23297.62350254827
 20
27678.88985251505
 10
-23296.35715066031
 20
27678.57326454306
 10
-23295.56568073033
 20
27677.78179461309
 10
-23295.24909275834
 20
27676.67373671112
 10
-23295.56568073033
 20
27675.56567880915
 10
-23296.35715066031
 20
27674.77420887917
 10
-23297.62350254827
 20
27674.45762090718
 10
-23298.73156045024
 20
27674.77420887917
 10
-23299.53234179116
 20
27675.56567880915
  0
LWPOLYLINE
  5
34
330
2F
100
AcDbEntity
  8
0
100
AcDbPolyline
 90
12
 70
129
 38
5.065407551857788
 10
-23277.3525609299
 20
27708.21148556799
 10
-23277.03597295792
 20
27709.47783745596
 10
-23276.24450302793
 20
27710.26930738593
 10
-23275.13644512597
 20
27710.58589535793
 10
-23274.028387224
 20
27710.26930738593
 10
-23273.23691729402
 20
27709.47783745596
 10
-23272.92032932203
 20
27708.21148556799
 10
-23273.23691729402
 20
27707.10342766602
 10
-23274.028387224
 20
27706.31195773605
 10
-23275.13644512597
 20
27705.99536976406
 10
-23276.24450302793
 20
27706.31195773605
 10
-23277.03597295792
 20
27707.10342766602
  0
LWPOLYLINE
  5
35
330
2F
100
AcDbEntity
  8
0
100
AcDbPolyline
 90
12
 70
129
 38
5.065407551857788
 10
-23266.27198191022
 20
27678.88985251505
 10
-23265.95539393823
 20
27679.99791041702
 10
-23265.16392400825
 20
27680.95698574394
 10
-23264.05586610628
 20
27681.27357371593
 10
-23262.94780820431
 20
27680.95698574394
 10
-23262.15633827434
 20
27679.99791041702
 10
-23261.83975030234
 20
27678.88985251505
 10
-23262.15633827434
 20
27677.78179461309
 10
-23262.94780820431
 20
27676.99032468311
 10
-23264.05586610628
 20
27676.67373671112
 10
-23265.16392400825
 20
27676.99032468311
 10
-23265.95539393823
 20
27677.78179461309
  0
LWPOLYLINE
  5
36
330
2F
100
AcDbEntity
  8
0
100
AcDbPolyline
 90
12
 70
129
 38
5.065407551857788
 10
-23296.8320326183
 20
27737.84970659292
 10
-23296.6737386323
 20
27739.11605848089
 10
-23295.72397471634
 20
27739.90752841086
 10
-23294.61591681436
 20
27740.22411638287
 10
-23293.50785891239
 20
27739.90752841086
 10
-23292.71638898241
 20
27739.11605848089
 10
-23292.39980101042
 20
27737.84970659292
 10
-23292.71638898241
 20
27736.73233728001
 10
-23293.50785891239
 20
27735.94086735003
 10
-23294.61591681436
 20
27735.62427937804
 10
-23295.72397471634
 20
27735.94086735003
 10
-23296.6737386323
 20
27736.73233728001
  0
LWPOLYLINE
  5
37
330
2F
100
AcDbEntity
  8
0
100
AcDbPolyline
 90
12
 70
129
 38
5.065407551857788
 10
-23247.90056812379
 20
27696.32081379644
 10
-23247.5839801518
 20
27697.43818310935
 10
-23246.63421623583
 20
27698.38794702533
 10
-23245.52615833386
 20
27698.70453499732
 10
-23244.41810043189
 20
27698.38794702533
 10
-23243.62663050191
 20
27697.43818310935
 10
-23243.31004252992
 20
27696.32081379644
 10
-23243.62663050191
 20
27695.21275589447
 10
-23244.41810043189
 20
27694.4212859645
 10
-23245.52615833386
 20
27694.10469799251
 10
-23246.63421623583
 20
27694.4212859645
 10
-23247.5839801518
 20
27695.21275589447
  0
LWPOLYLINE
  5
38
330
2F
100
AcDbEntity
  8
0
100
AcDbPolyline
 90
3
 70
129
 38
5.065407551857788
 10
-23259.13944112948
 20
27746.40689324762
 10
-23258.50626518549
 20
27742.1236442148
 10
-23258.3479711995
 20
27740.06582239686
  0
LWPOLYLINE
  5
39
330
2F
100
AcDbEntity
  8
0
100
AcDbPolyline
 90
12
 70
129
 38
5.065407551857788
 10
-23262.78951421832
 20
27729.76740189621
 10
-23262.94780820431
 20
27730.87545979818
 10
-23262.78951421832
 20
27731.98351770015
 10
-23261.83975030234
 20
27732.93328161612
 10
-23260.72238098944
 20
27733.09157560211
 10
-23259.61432308746
 20
27732.93328161612
 10
-23258.82285315749
 20
27731.98351770015
 10
-23258.50626518549
 20
27730.87545979818
 10
-23258.82285315749
 20
27729.76740189621
 10
-23259.61432308746
 20
27728.96662055529
 10
-23260.72238098944
 20
27728.6500325833
 10
-23261.83975030234
 20
27728.96662055529
  0
LWPOLYLINE
  5
3A
330
2F
100
AcDbEntity
  8
0
100
AcDbPolyline
 90
42
 70
128
 38
5.065407551857788
 10
-23259.13944112948
 20
27661.45889123366
 10
-23271.97056540606
 20
27661.45889123366
 10
-23277.98573687389
 20
27661.45889123366
 10
-23290.50027317848
 20
27661.45889123366
 10
-23296.51544464631
 20
27661.45889123366
 10
-23307.13045311895
 20
27661.45889123366
 10
-23296.51544464631
 20
27661.45889123366
 10
-23296.51544464631
 20
27663.04183109362
 10
-23288.44245136053
 20
27665.58384628049
 10
-23280.04355869183
 20
27665.58384628049
 10
-23271.97056540606
 20
27663.20012507961
 10
-23271.97056540606
 20
27661.45889123366
 10
-23259.13944112948
 20
27661.45889123366
 10
-23258.3479711995
 20
27667.64166809843
 10
-23257.87308924151
 20
27673.98273894919
 10
-23257.71479525552
 20
27680.32380979995
 10
-23257.71479525552
 20
27682.3816316179
 10
-23241.55949727303
 20
27682.3816316179
 10
-23240.92632132905
 20
27686.02239329579
 10
-23240.45143937107
 20
27689.67246638463
 10
-23240.13485139907
 20
27693.47152204852
 10
-23239.50167545509
 20
27695.05446190848
 10
-23239.34338146909
 20
27696.80500716537
 10
-23239.65996944108
 20
27698.38794702533
 10
-23239.65996944108
 20
27701.23723877325
 10
-23239.50167545509
 20
27703.92823653517
 10
-23239.50167545509
 20
27706.62854570804
 10
-23237.76044160914
 20
27707.42001563801
 10
-23237.76044160914
 20
27708.053191582
 10
-23237.76044160914
 20
27708.84466151198
 10
-23237.76044160914
 20
27709.47783745596
 10
-23237.60214762315
 20
27709.47783745596
 10
-23237.60214762315
 20
27709.63613144195
 10
-23237.44385363715
 20
27709.63613144195
 10
-23237.60214762315
 20
27709.79442542795
 10
-23237.76044160914
 20
27709.95271941394
 10
-23237.91873559513
 20
27715.66061432073
 10
-23238.23532356712
 20
27721.5268032135
 10
-23238.55191153911
 20
27727.38368069533
 10
-23257.71479525552
 20
27727.38368069533
 10
-23257.87308924151
 20
27733.7247515461
 10
-23258.3479711995
 20
27740.06582239686
  0
LWPOLYLINE
  5
3B
330
2F
100
AcDbEntity
  8
0
100
AcDbPolyline
 90
12
 70
129
 38
5.065407551857788
 10
-23244.41810043189
 20
27694.4212859645
 10
-23245.52615833386
 20
27694.10469799251
 10
-23246.63421623583
 20
27694.4212859645
 10
-23247.5839801518
 20
27695.21275589447
 10
-23247.90056812379
 20
27696.32081379644
 10
-23247.5839801518
 20
27697.43818310935
 10
-23246.63421623583
 20
27698.38794702533
 10
-23245.52615833386
 20
27698.70453499732
 10
-23244.41810043189
 20
27698.38794702533
 10
-23243.62663050191
 20
27697.43818310935
 10
-23243.31004252992
 20
27696.32081379644
 10
-23243.62663050191
 20
27695.21275589447
  0
LWPOLYLINE
  5
3C
330
2F
100
AcDbEntity
  8
0
100
AcDbPolyline
 90
12
 70
129
 38
5.065407551857788
 10
-23246.47592224983
 20
27695.84593183846
 10
-23246.63421623583
 20
27696.32081379644
 10
-23246.47592224983
 20
27696.96330115137
 10
-23246.15933427784
 20
27697.27988912336
 10
-23245.52615833386
 20
27697.43818310935
 10
-23245.05127637587
 20
27697.27988912336
 10
-23244.73468840388
 20
27696.96330115137
 10
-23244.57639441789
 20
27696.32081379644
 10
-23244.73468840388
 20
27695.84593183846
 10
-23245.05127637587
 20
27695.52934386647
 10
-23245.52615833386
 20
27695.37104988047
 10
-23246.15933427784
 20
27695.52934386647
  0
LWPOLYLINE
  5
3D
330
2F
100
AcDbEntity
  8
0
100
AcDbPolyline
 90
12
 70
129
 38
5.065407551857788
 10
-23265.16392400825
 20
27678.88985251505
 10
-23265.00563002225
 20
27679.52302845904
 10
-23264.53074806427
 20
27679.83961643103
 10
-23264.05586610628
 20
27679.99791041702
 10
-23263.58098414829
 20
27679.83961643103
 10
-23263.10610219031
 20
27679.52302845904
 10
-23262.94780820431
 20
27678.88985251505
 10
-23263.10610219031
 20
27678.41497055707
 10
-23263.58098414829
 20
27678.09838258508
 10
-23264.05586610628
 20
27677.94008859909
 10
-23264.53074806427
 20
27678.09838258508
 10
-23265.00563002225
 20
27678.41497055707
  0
LWPOLYLINE
  5
3E
330
2F
100
AcDbEntity
  8
0
100
AcDbPolyline
 90
12
 70
129
 38
5.065407551857788
 10
-23298.57326646425
 20
27676.04056076713
 10
-23298.73156045024
 20
27676.67373671112
 10
-23298.57326646425
 20
27677.1486186691
 10
-23298.09838450626
 20
27677.62350062709
 10
-23297.62350254827
 20
27677.78179461309
 10
-23296.99032660429
 20
27677.62350062709
 10
-23296.6737386323
 20
27677.1486186691
 10
-23296.51544464631
 20
27676.67373671112
 10
-23296.6737386323
 20
27676.04056076713
 10
-23296.99032660429
 20
27675.72397279514
 10
-23297.62350254827
 20
27675.56567880915
 10
-23298.09838450626
 20
27675.72397279514
  0
LWPOLYLINE
  5
3F
330
2F
100
AcDbEntity
  8
0
100
AcDbPolyline
 90
12
 70
129
 38
5.065407551857788
 10
-23295.56568073033
 20
27737.365513224
 10
-23295.72397471634
 20
27737.84970659292
 10
-23295.56568073033
 20
27738.4828825369
 10
-23295.24909275834
 20
27738.79947050889
 10
-23294.61591681436
 20
27738.95776449489
 10
-23294.14103485637
 20
27738.79947050889
 10
-23293.82444688438
 20
27738.4828825369
 10
-23293.66615289839
 20
27737.84970659292
 10
-23293.82444688438
 20
27737.365513224
 10
-23294.14103485637
 20
27737.048925252
 10
-23294.61591681436
 20
27736.89063126601
 10
-23295.24909275834
 20
27737.048925252
  0
LWPOLYLINE
  5
40
330
2F
100
AcDbEntity
  8
0
100
AcDbPolyline
 90
12
 70
129
 38
5.065407551857788
 10
-23276.08620904194
 20
27707.73660361001
 10
-23276.24450302793
 20
27708.21148556799
 10
-23276.08620904194
 20
27708.84466151198
 10
-23275.61132708395
 20
27709.16124948397
 10
-23275.13644512597
 20
27709.31954346996
 10
-23274.66156316798
 20
27709.16124948397
 10
-23274.18668121
 20
27708.84466151198
 10
-23274.18668121
 20
27708.21148556799
 10
-23274.18668121
 20
27707.73660361001
 10
-23274.66156316798
 20
27707.42001563801
 10
-23275.13644512597
 20
27707.26172165202
 10
-23275.61132708395
 20
27707.42001563801
  0
LWPOLYLINE
  5
41
330
2F
100
AcDbEntity
  8
0
100
AcDbPolyline
 90
12
 70
129
 38
5.065407551857788
 10
-23261.83975030234
 20
27730.87545979818
 10
-23261.68145631635
 20
27731.50863574216
 10
-23261.35555693341
 20
27731.82522371415
 10
-23260.72238098944
 20
27731.98351770015
 10
-23260.24749903144
 20
27731.82522371415
 10
-23259.77261707346
 20
27731.50863574216
 10
-23259.61432308746
 20
27730.87545979818
 10
-23259.77261707346
 20
27730.40057784019
 10
-23260.24749903144
 20
27729.9256958822
 10
-23260.72238098944
 20
27729.76740189621
 10
-23261.35555693341
 20
27729.9256958822
 10
-23261.68145631635
 20
27730.40057784019
  0
LWPOLYLINE
  5
42
330
2F
100
AcDbEntity
  8
0
100
AcDbPolyline
 90
12
 70
129
 38
5.065407551857788
 10
-23262.94780820431
 20
27676.99032468311
 10
-23264.05586610628
 20
27676.67373671112
 10
-23265.16392400825
 20
27676.99032468311
 10
-23265.95539393823
 20
27677.78179461309
 10
-23266.27198191022
 20
27678.88985251505
 10
-23265.95539393823
 20
27679.99791041702
 10
-23265.16392400825
 20
27680.95698574394
 10
-23264.05586610628
 20
27681.27357371593
 10
-23262.94780820431
 20
27680.95698574394
 10
-23262.15633827434
 20
27679.99791041702
 10
-23261.83975030234
 20
27678.88985251505
 10
-23262.15633827434
 20
27677.78179461309
  0
LWPOLYLINE
  5
43
330
2F
100
AcDbEntity
  8
0
100
AcDbPolyline
 90
12
 70
129
 38
5.065407551857788
 10
-23296.35715066031
 20
27674.77420887917
 10
-23297.62350254827
 20
27674.45762090718
 10
-23298.73156045024
 20
27674.77420887917
 10
-23299.53234179116
 20
27675.56567880915
 10
-23299.84892976316
 20
27676.67373671112
 10
-23299.53234179116
 20
27677.78179461309
 10
-23298.73156045024
 20
27678.57326454306
 10
-23297.62350254827
 20
27678.88985251505
 10
-23296.35715066031
 20
27678.57326454306
 10
-23295.56568073033
 20
27677.78179461309
 10
-23295.24909275834
 20
27676.67373671112
 10
-23295.56568073033
 20
27675.56567880915
  0
LWPOLYLINE
  5
44
330
2F
100
AcDbEntity
  8
0
100
AcDbPolyline
 90
12
 70
129
 38
5.065407551857788
 10
-23293.50785891239
 20
27735.94086735003
 10
-23294.61591681436
 20
27735.62427937804
 10
-23295.72397471634
 20
27735.94086735003
 10
-23296.6737386323
 20
27736.73233728001
 10
-23296.8320326183
 20
27737.84970659292
 10
-23296.6737386323
 20
27739.11605848089
 10
-23295.72397471634
 20
27739.90752841086
 10
-23294.61591681436
 20
27740.22411638287
 10
-23293.50785891239
 20
27739.90752841086
 10
-23292.71638898241
 20
27739.11605848089
 10
-23292.39980101042
 20
27737.84970659292
 10
-23292.71638898241
 20
27736.73233728001
  0
LWPOLYLINE
  5
45
330
2F
100
AcDbEntity
  8
0
100
AcDbPolyline
 90
12
 70
129
 38
5.065407551857788
 10
-23274.028387224
 20
27706.31195773605
 10
-23275.13644512597
 20
27705.99536976406
 10
-23276.24450302793
 20
27706.31195773605
 10
-23277.03597295792
 20
27707.10342766602
 10
-23277.3525609299
 20
27708.21148556799
 10
-23277.03597295792
 20
27709.47783745596
 10
-23276.24450302793
 20
27710.26930738593
 10
-23275.13644512597
 20
27710.58589535793
 10
-23274.028387224
 20
27710.26930738593
 10
-23273.23691729402
 20
27709.47783745596
 10
-23272.92032932203
 20
27708.21148556799
 10
-23273.23691729402
 20
27707.10342766602
  0
LWPOLYLINE
  5
46
330
2F
100
AcDbEntity
  8
0
100
AcDbPolyline
 90
12
 70
129
 38
5.065407551857788
 10
-23259.61432308746
 20
27728.96662055529
 10
-23260.72238098944
 20
27728.6500325833
 10
-23261.83975030234
 20
27728.96662055529
 10
-23262.78951421832
 20
27729.76740189621
 10
-23262.94780820431
 20
27730.87545979818
 10
-23262.78951421832
 20
27731.98351770015
 10
-23261.83975030234
 20
27732.93328161612
 10
-23260.72238098944
 20
27733.09157560211
 10
-23259.61432308746
 20
27732.93328161612
 10
-23258.82285315749
 20
27731.98351770015
 10
-23258.50626518549
 20
27730.87545979818
 10
-23258.82285315749
 20
27729.76740189621
  0
LWPOLYLINE
  5
47
330
2F
100
AcDbEntity
  8
0
100
AcDbPolyline
 90
12
 70
129
 38
5.065407551857788
 10
-23245.05127637587
 20
27695.52934386647
 10
-23245.52615833386
 20
27695.37104988047
 10
-23246.15933427784
 20
27695.52934386647
 10
-23246.47592224983
 20
27695.84593183846
 10
-23246.63421623583
 20
27696.32081379644
 10
-23246.47592224983
 20
27696.96330115137
 10
-23246.15933427784
 20
27697.27988912336
 10
-23245.52615833386
 20
27697.43818310935
 10
-23245.05127637587
 20
27697.27988912336
 10
-23244.73468840388
 20
27696.96330115137
 10
-23244.57639441789
 20
27696.32081379644
 10
-23244.73468840388
 20
27695.84593183846
  0
LWPOLYLINE
  5
48
330
2F
100
AcDbEntity
  8
0
100
AcDbPolyline
 90
12
 70
129
 38
5.065407551857788
 10
-23263.58098414829
 20
27678.09838258508
 10
-23264.05586610628
 20
27677.94008859909
 10
-23264.53074806427
 20
27678.09838258508
 10
-23265.00563002225
 20
27678.41497055707
 10
-23265.16392400825
 20
27678.88985251505
 10
-23265.00563002225
 20
27679.52302845904
 10
-23264.53074806427
 20
27679.83961643103
 10
-23264.05586610628
 20
27679.99791041702
 10
-23263.58098414829
 20
27679.83961643103
 10
-23263.10610219031
 20
27679.52302845904
 10
-23262.94780820431
 20
27678.88985251505
 10
-23263.10610219031
 20
27678.41497055707
  0
LWPOLYLINE
  5
49
330
2F
100
AcDbEntity
  8
0
100
AcDbPolyline
 90
12
 70
129
 38
5.065407551857788
 10
-23296.99032660429
 20
27675.72397279514
 10
-23297.62350254827
 20
27675.56567880915
 10
-23298.09838450626
 20
27675.72397279514
 10
-23298.57326646425
 20
27676.04056076713
 10
-23298.73156045024
 20
27676.67373671112
 10
-23298.57326646425
 20
27677.1486186691
 10
-23298.09838450626
 20
27677.62350062709
 10
-23297.62350254827
 20
27677.78179461309
 10
-23296.99032660429
 20
27677.62350062709
 10
-23296.6737386323
 20
27677.1486186691
 10
-23296.51544464631
 20
27676.67373671112
 10
-23296.6737386323
 20
27676.04056076713
  0
LWPOLYLINE
  5
4A
330
2F
100
AcDbEntity
  8
0
100
AcDbPolyline
 90
12
 70
129
 38
5.065407551857788
 10
-23294.14103485637
 20
27737.048925252
 10
-23294.61591681436
 20
27736.89063126601
 10
-23295.24909275834
 20
27737.048925252
 10
-23295.56568073033
 20
27737.365513224
 10
-23295.72397471634
 20
27737.84970659292
 10
-23295.56568073033
 20
27738.4828825369
 10
-23295.24909275834
 20
27738.79947050889
 10
-23294.61591681436
 20
27738.95776449489
 10
-23294.14103485637
 20
27738.79947050889
 10
-23293.82444688438
 20
27738.4828825369
 10
-23293.66615289839
 20
27737.84970659292
 10
-23293.82444688438
 20
27737.365513224
  0
LWPOLYLINE
  5
4B
330
2F
100
AcDbEntity
  8
0
100
AcDbPolyline
 90
12
 70
129
 38
5.065407551857788
 10
-23274.66156316798
 20
27707.42001563801
 10
-23275.13644512597
 20
27707.26172165202
 10
-23275.61132708395
 20
27707.42001563801
 10
-23276.08620904194
 20
27707.73660361001
 10
-23276.24450302793
 20
27708.21148556799
 10
-23276.08620904194
 20
27708.84466151198
 10
-23275.61132708395
 20
27709.16124948397
 10
-23275.13644512597
 20
27709.31954346996
 10
-23274.66156316798
 20
27709.16124948397
 10
-23274.18668121
 20
27708.84466151198
 10
-23274.18668121
 20
27708.21148556799
 10
-23274.18668121
 20
27707.73660361001
  0
LWPOLYLINE
  5
4C
330
2F
100
AcDbEntity
  8
0
100
AcDbPolyline
 90
12
 70
129
 38
5.065407551857788
 10
-23260.24749903144
 20
27729.9256958822
 10
-23260.72238098944
 20
27729.76740189621
 10
-23261.35555693341
 20
27729.9256958822
 10
-23261.68145631635
 20
27730.40057784019
 10
-23261.83975030234
 20
27730.87545979818
 10
-23261.68145631635
 20
27731.50863574216
 10
-23261.35555693341
 20
27731.82522371415
 10
-23260.72238098944
 20
27731.98351770015
 10
-23260.24749903144
 20
27731.82522371415
 10
-23259.77261707346
 20
27731.50863574216
 10
-23259.61432308746
 20
27730.87545979818
 10
-23259.77261707346
 20
27730.40057784019
  0
LWPOLYLINE
  5
4D
330
2F
100
AcDbEntity
  8
0
100
AcDbPolyline
 90
8
 70
128
 38
5.065407551857788
 10
-23258.3479711995
 20
27740.06582239686
 10
-23258.50626518549
 20
27741.33217428483
 10
-23258.3479711995
 20
27740.22411638287
 10
-23258.50626518549
 20
27740.85729232684
 10
-23258.3479711995
 20
27740.22411638287
 10
-23258.3479711995
 20
27740.06582239686
 10
-23258.3479711995
 20
27739.27435246688
 10
-23258.1896772135
 20
27738.79947050889
  0
LWPOLYLINE
  5
4E
330
2F
100
AcDbEntity
  8
0
100
AcDbPolyline
 90
3
 70
129
 38
5.065407551857788
 10
-23258.3479711995
 20
27740.22411638287
 10
-23258.3479711995
 20
27740.06582239686
 10
-23258.50626518549
 20
27741.33217428483
  0
LWPOLYLINE
  5
4F
330
2F
100
AcDbEntity
  8
0
100
AcDbPolyline
 90
2
 70
129
 38
5.065407551857788
 10
-23258.1896772135
 20
27738.95776449489
 10
-23258.1896772135
 20
27738.79947050889
  0
LWPOLYLINE
  5
50
330
2F
100
AcDbEntity
  8
0
100
AcDbPolyline
 90
2
 70
129
 38
5.065407551857788
 10
-23258.3479711995
 20
27740.06582239686
 10
-23258.3479711995
 20
27740.22411638287
  0
LWPOLYLINE
  5
51
330
2F
100
AcDbEntity
  8
0
100
AcDbPolyline
 90
2
 70
128
 38
5.065407551857788
 10
-23258.3479711995
 20
27740.06582239686
 10
-23258.3479711995
 20
27740.22411638287
  0
LWPOLYLINE
  5
52
330
2F
100
AcDbEntity
  8
0
100
AcDbPolyline
 90
5
 70
129
 38
5.065407551857788
 10
-23258.1896772135
 20
27738.79947050889
 10
-23258.3479711995
 20
27740.06582239686
 10
-23258.3479711995
 20
27739.27435246688
 10
-23258.1896772135
 20
27738.79947050889
 10
-23258.1896772135
 20
27738.95776449489
  0
LWPOLYLINE
  5
53
330
2F
100
AcDbEntity
  8
0
100
AcDbPolyline
 90
4
 70
128
 38
5.065407551857788
 10
-23257.87308924151
 20
27733.7247515461
 10
-23258.1896772135
 20
27737.53311862094
 10
-23258.3479711995
 20
27740.06582239686
 10
-23258.1896772135
 20
27738.79947050889
  0
LWPOLYLINE
  5
54
330
2F
100
AcDbEntity
  8
0
100
AcDbPolyline
 90
3
 70
129
 38
5.065407551857788
 10
-23258.1896772135
 20
27737.53311862094
 10
-23258.1896772135
 20
27738.79947050889
 10
-23258.1896772135
 20
27737.53311862094
  0
LWPOLYLINE
  5
55
330
2F
100
AcDbEntity
  8
0
100
AcDbPolyline
 90
2
 70
129
 38
5.065407551857788
 10
-23258.1896772135
 20
27738.79947050889
 10
-23258.1896772135
 20
27737.84970659292
  0
LWPOLYLINE
  5
56
330
2F
100
AcDbEntity
  8
0
100
AcDbPolyline
 90
4
 70
129
 38
5.065407551857788
 10
-23258.1896772135
 20
27738.79947050889
 10
-23258.1896772135
 20
27737.53311862094
 10
-23258.1896772135
 20
27738.79947050889
 10
-23258.1896772135
 20
27737.53311862094
  0
LWPOLYLINE
  5
57
330
2F
100
AcDbEntity
  8
0
100
AcDbPolyline
 90
5
 70
128
 38
5.065407551857788
 10
-23258.50626518549
 20
27741.33217428483
 10
-23258.3479711995
 20
27740.22411638287
 10
-23258.50626518549
 20
27741.33217428483
 10
-23258.50626518549
 20
27742.1236442148
 10
-23258.66455917149
 20
27742.44023218679
  0
LWPOLYLINE
  5
58
330
2F
100
AcDbEntity
  8
0
100
AcDbPolyline
 90
2
 70
129
 38
5.065407551857788
 10
-23258.50626518549
 20
27742.1236442148
 10
-23258.66455917149
 20
27742.44023218679
  0
LWPOLYLINE
  5
59
330
2F
100
AcDbEntity
  8
0
100
AcDbPolyline
 90
2
 70
128
 38
5.065407551857788
 10
-23258.03138322751
 20
27735.46598539204
 10
-23258.03138322751
 20
27736.25745532203
  0
LWPOLYLINE
  5
5A
330
2F
100
AcDbEntity
  8
0
100
AcDbPolyline
 90
5
 70
128
 38
5.065407551857788
 10
-23258.1896772135
 20
27668.9080199864
 10
-23258.1896772135
 20
27670.33266586035
 10
-23258.03138322751
 20
27671.44072376233
 10
-23258.03138322751
 20
27672.24150510324
 10
-23258.03138322751
 20
27672.55809307523
  0
LWPOLYLINE
  5
5B
330
2F
100
AcDbEntity
  8
0
100
AcDbPolyline
 90
2
 70
129
 38
5.065407551857788
 10
-23258.66455917149
 20
27665.2672583085
 10
-23259.13944112948
 20
27661.45889123366
  0
LWPOLYLINE
  5
5C
330
2F
100
AcDbEntity
  8
0
100
AcDbPolyline
 90
7
 70
128
 38
5.065407551857788
 10
-23259.13944112948
 20
27661.45889123366
 10
-23258.50626518549
 20
27665.58384628049
 10
-23258.3479711995
 20
27667.64166809843
 10
-23258.3479711995
 20
27667.48337411244
 10
-23258.50626518549
 20
27666.37531621046
 10
-23258.50626518549
 20
27665.58384628049
 10
-23258.66455917149
 20
27665.2672583085
  0
LWPOLYLINE
  5
5D
330
2F
100
AcDbEntity
  8
0
100
AcDbPolyline
 90
3
 70
128
 38
5.065407551857788
 10
-23258.50626518549
 20
27665.74214026649
 10
-23258.50626518549
 20
27666.37531621046
 10
-23258.3479711995
 20
27667.64166809843
  0
LWPOLYLINE
  5
5E
330
2F
100
AcDbEntity
  8
0
100
AcDbPolyline
 90
3
 70
128
 38
5.065407551857788
 10
-23258.3479711995
 20
27667.48337411244
 10
-23258.50626518549
 20
27666.37531621046
 10
-23258.3479711995
 20
27667.64166809843
  0
LWPOLYLINE
  5
5F
330
2F
100
AcDbEntity
  8
0
100
AcDbPolyline
 90
4
 70
129
 38
5.065407551857788
 10
-23258.3479711995
 20
27667.16678614044
 10
-23258.50626518549
 20
27666.37531621046
 10
-23258.3479711995
 20
27667.32508012644
 10
-23258.50626518549
 20
27666.37531621046
  0
LWPOLYLINE
  5
60
330
2F
100
AcDbEntity
  8
0
100
AcDbPolyline
 90
10
 70
129
 38
5.065407551857788
 10
-23258.3479711995
 20
27667.48337411244
 10
-23258.50626518549
 20
27666.53361019646
 10
-23258.3479711995
 20
27667.48337411244
 10
-23258.3479711995
 20
27667.64166809843
 10
-23258.3479711995
 20
27667.48337411244
 10
-23258.3479711995
 20
27667.64166809843
 10
-23258.3479711995
 20
27667.48337411244
 10
-23258.3479711995
 20
27667.64166809843
 10
-23258.3479711995
 20
27667.48337411244
 10
-23258.3479711995
 20
27667.64166809843
  0
LWPOLYLINE
  5
61
330
2F
100
AcDbEntity
  8
0
100
AcDbPolyline
 90
2
 70
129
 38
5.065407551857788
 10
-23258.1896772135
 20
27668.9080199864
 10
-23258.3479711995
 20
27667.64166809843
  0
LWPOLYLINE
  5
62
330
2F
100
AcDbEntity
  8
0
100
AcDbPolyline
 90
2
 70
129
 38
5.065407551857788
 10
-23258.1896772135
 20
27670.33266586035
 10
-23258.1896772135
 20
27669.22460795838
  0
LWPOLYLINE
  5
63
330
2F
100
AcDbEntity
  8
0
100
AcDbPolyline
 90
5
 70
128
 38
5.065407551857788
 10
-23258.1896772135
 20
27670.33266586035
 10
-23258.03138322751
 20
27671.44072376233
 10
-23257.87308924151
 20
27673.98273894919
 10
-23258.1896772135
 20
27670.33266586035
 10
-23258.3479711995
 20
27667.64166809843
  0
LWPOLYLINE
  5
64
330
2F
100
AcDbEntity
  8
0
100
AcDbPolyline
 90
3
 70
128
 38
5.065407551857788
 10
-23258.03138322751
 20
27671.28242977634
 10
-23258.03138322751
 20
27671.44072376233
 10
-23258.1896772135
 20
27670.33266586035
  0
LWPOLYLINE
  5
65
330
2F
100
AcDbEntity
  8
0
100
AcDbPolyline
 90
3
 70
129
 38
5.065407551857788
 10
-23258.03138322751
 20
27672.55809307523
 10
-23258.03138322751
 20
27672.24150510324
 10
-23257.87308924151
 20
27673.98273894919
  0
LWPOLYLINE
  5
66
330
2F
100
AcDbEntity
  8
0
100
AcDbPolyline
 90
2
 70
129
 38
5.065407551857788
 10
-23258.50626518549
 20
27666.37531621046
 10
-23258.50626518549
 20
27665.74214026649
  0
LWPOLYLINE
  5
67
330
2F
100
AcDbEntity
  8
0
100
AcDbPolyline
 90
2
 70
128
 38
5.065407551857788
 10
-23258.3479711995
 20
27667.48337411244
 10
-23258.3479711995
 20
27667.64166809843
  0
LWPOLYLINE
  5
68
330
2F
100
AcDbEntity
  8
0
100
AcDbPolyline
 90
2
 70
129
 38
5.065407551857788
 10
-23258.3479711995
 20
27667.48337411244
 10
-23258.50626518549
 20
27666.53361019646
  0
LWPOLYLINE
  5
69
330
2F
100
AcDbEntity
  8
0
100
AcDbPolyline
 90
9
 70
128
 38
5.065407551857788
 10
-23239.65996944108
 20
27701.07894478725
 10
-23239.65996944108
 20
27698.38794702533
 10
-23239.65996944108
 20
27701.23723877325
 10
-23239.50167545509
 20
27703.13676660519
 10
-23239.65996944108
 20
27701.23723877325
 10
-23239.65996944108
 20
27701.07894478725
 10
-23238.39361755312
 20
27702.18700268922
 10
-23238.55191153911
 20
27698.86282898331
 10
-23238.86849951111
 20
27694.89616792248
  0
LWPOLYLINE
  5
6A
330
2F
100
AcDbEntity
  8
0
100
AcDbPolyline
 90
12
 70
128
 38
5.065407551857788
 10
-23238.71020552511
 20
27703.92823653517
 10
-23239.50167545509
 20
27704.72901787609
 10
-23238.23532356712
 20
27704.24482450716
 10
-23238.71020552511
 20
27703.92823653517
 10
-23239.1850874831
 20
27703.45335457719
 10
-23239.50167545509
 20
27704.72901787609
 10
-23239.50167545509
 20
27703.92823653517
 10
-23239.50167545509
 20
27705.36219382007
 10
-23239.50167545509
 20
27704.72901787609
 10
-23239.50167545509
 20
27703.92823653517
 10
-23239.50167545509
 20
27703.13676660519
 10
-23239.50167545509
 20
27703.92823653517
  0
LWPOLYLINE
  5
6B
330
2F
100
AcDbEntity
  8
0
100
AcDbPolyline
 90
2
 70
129
 38
5.065407551857788
 10
-23239.50167545509
 20
27704.08653052117
 10
-23239.50167545509
 20
27704.40311849316
  0
LWPOLYLINE
  5
6C
330
2F
100
AcDbEntity
  8
0
100
AcDbPolyline
 90
4
 70
129
 38
5.065407551857788
 10
-23239.50167545509
 20
27704.08653052117
 10
-23239.50167545509
 20
27704.40311849316
 10
-23239.50167545509
 20
27704.24482450716
 10
-23239.50167545509
 20
27704.40311849316
  0
LWPOLYLINE
  5
6D
330
2F
100
AcDbEntity
  8
0
100
AcDbPolyline
 90
34
 70
128
 38
5.065407551857788
 10
-23239.50167545509
 20
27705.36219382007
 10
-23239.50167545509
 20
27703.92823653517
 10
-23239.50167545509
 20
27706.62854570804
 10
-23237.76044160914
 20
27707.42001563801
 10
-23237.76044160914
 20
27708.053191582
 10
-23237.76044160914
 20
27708.84466151198
 10
-23237.76044160914
 20
27709.47783745596
 10
-23237.60214762315
 20
27709.47783745596
 10
-23237.60214762315
 20
27709.63613144195
 10
-23237.44385363715
 20
27709.63613144195
 10
-23237.60214762315
 20
27709.79442542795
 10
-23237.76044160914
 20
27709.95271941394
 10
-23237.91873559513
 20
27715.66061432073
 10
-23238.23532356712
 20
27721.5268032135
 10
-23238.55191153911
 20
27727.38368069533
 10
-23257.71479525552
 20
27727.38368069533
 10
-23257.87308924151
 20
27733.7247515461
 10
-23258.03138322751
 20
27736.25745532203
 10
-23258.03138322751
 20
27735.46598539204
 10
-23257.87308924151
 20
27733.7247515461
 10
-23258.03138322751
 20
27735.46598539204
 10
-23258.03138322751
 20
27735.30769140605
 10
-23257.87308924151
 20
27733.7247515461
 10
-23258.03138322751
 20
27735.30769140605
 10
-23257.87308924151
 20
27733.7247515461
 10
-23258.03138322751
 20
27735.30769140605
 10
-23257.87308924151
 20
27733.7247515461
 10
-23258.03138322751
 20
27735.30769140605
 10
-23257.87308924151
 20
27733.7247515461
 10
-23258.03138322751
 20
27735.30769140605
 10
-23258.03138322751
 20
27735.46598539204
 10
-23258.03138322751
 20
27736.25745532203
 10
-23258.1896772135
 20
27737.53311862094
 10
-23258.1896772135
 20
27738.79947050889
  0
LWPOLYLINE
  5
6E
330
2F
100
AcDbEntity
  8
0
100
AcDbPolyline
 90
9
 70
129
 38
5.065407551857788
 10
-23239.50167545509
 20
27705.36219382007
 10
-23239.50167545509
 20
27706.62854570804
 10
-23239.50167545509
 20
27705.36219382007
 10
-23239.50167545509
 20
27706.62854570804
 10
-23239.50167545509
 20
27705.36219382007
 10
-23239.50167545509
 20
27706.62854570804
 10
-23239.50167545509
 20
27705.36219382007
 10
-23239.50167545509
 20
27706.62854570804
 10
-23239.50167545509
 20
27705.36219382007
  0
LWPOLYLINE
  5
6F
330
2F
100
AcDbEntity
  8
0
100
AcDbPolyline
 90
7
 70
129
 38
5.065407551857788
 10
-23240.92632132905
 20
27686.65556923977
 10
-23240.92632132905
 20
27686.02239329579
 10
-23240.92632132905
 20
27686.65556923977
 10
-23240.92632132905
 20
27686.02239329579
 10
-23240.92632132905
 20
27686.65556923977
 10
-23240.92632132905
 20
27686.02239329579
 10
-23240.92632132905
 20
27686.65556923977
  0
LWPOLYLINE
  5
70
330
2F
100
AcDbEntity
  8
0
100
AcDbPolyline
 90
11
 70
128
 38
5.065407551857788
 10
-23240.13485139907
 20
27693.47152204852
 10
-23240.45143937107
 20
27690.7805242866
 10
-23240.45143937107
 20
27689.67246638463
 10
-23240.60973335706
 20
27688.72270246866
 10
-23240.92632132905
 20
27686.02239329579
 10
-23240.76802734305
 20
27687.28874518376
 10
-23240.60973335706
 20
27688.72270246866
 10
-23240.29314538507
 20
27688.40611449667
 10
-23240.76802734305
 20
27687.28874518376
 10
-23239.97655741308
 20
27687.92192112774
 10
-23239.65996944108
 20
27687.60533315575
  0
LWPOLYLINE
  5
71
330
2F
100
AcDbEntity
  8
0
100
AcDbPolyline
 90
12
 70
128
 38
5.065407551857788
 10
-23257.87308924151
 20
27673.98273894919
 10
-23257.71479525552
 20
27680.32380979995
 10
-23257.71479525552
 20
27682.3816316179
 10
-23241.55949727303
 20
27682.3816316179
 10
-23240.92632132905
 20
27686.02239329579
 10
-23240.92632132905
 20
27686.65556923977
 10
-23240.92632132905
 20
27686.02239329579
 10
-23240.76802734305
 20
27687.13045119776
 10
-23240.92632132905
 20
27686.02239329579
 10
-23240.76802734305
 20
27687.28874518376
 10
-23240.92632132905
 20
27686.65556923977
 10
-23239.65996944108
 20
27687.60533315575
  0
LWPOLYLINE
  5
72
330
2F
100
AcDbEntity
  8
0
100
AcDbPolyline
 90
5
 70
129
 38
5.065407551857788
 10
-23239.65996944108
 20
27687.60533315575
 10
-23240.76802734305
 20
27687.28874518376
 10
-23240.92632132905
 20
27686.65556923977
 10
-23240.45143937107
 20
27686.81386322576
 10
-23239.97655741308
 20
27687.13045119776
  0
LWPOLYLINE
  5
73
330
2F
100
AcDbEntity
  8
0
100
AcDbPolyline
 90
2
 70
128
 38
5.065407551857788
 10
-23240.45143937107
 20
27686.81386322576
 10
-23239.65996944108
 20
27687.60533315575
  0
LWPOLYLINE
  5
74
330
2F
100
AcDbEntity
  8
0
100
AcDbPolyline
 90
2
 70
128
 38
5.065407551857788
 10
-23239.97655741308
 20
27687.92192112774
 10
-23240.29314538507
 20
27688.40611449667
  0
LWPOLYLINE
  5
75
330
2F
100
AcDbEntity
  8
0
100
AcDbPolyline
 90
2
 70
128
 38
5.065407551857788
 10
-23239.1850874831
 20
27691.09711225859
 10
-23240.45143937107
 20
27690.7805242866
  0
LWPOLYLINE
  5
76
330
2F
100
AcDbEntity
  8
0
100
AcDbPolyline
 90
4
 70
129
 38
5.065407551857788
 10
-23240.60973335706
 20
27688.72270246866
 10
-23239.1850874831
 20
27691.09711225859
 10
-23237.28555965115
 20
27691.41370023058
 10
-23240.60973335706
 20
27688.72270246866
  0
LWPOLYLINE
  5
77
330
2F
100
AcDbEntity
  8
0
100
AcDbPolyline
 90
2
 70
128
 38
5.065407551857788
 10
-23239.50167545509
 20
27687.44703916976
 10
-23239.65996944108
 20
27687.60533315575
  0
LWPOLYLINE
  5
78
330
2F
100
AcDbEntity
  8
0
100
AcDbPolyline
 90
10
 70
128
 38
5.065407551857788
 10
-23239.50167545509
 20
27695.05446190848
 10
-23238.86849951111
 20
27694.89616792248
 10
-23239.1850874831
 20
27691.09711225859
 10
-23240.13485139907
 20
27693.47152204852
 10
-23238.86849951111
 20
27694.89616792248
 10
-23239.34338146909
 20
27696.80500716537
 10
-23238.55191153911
 20
27698.86282898331
 10
-23239.65996944108
 20
27698.38794702533
 10
-23239.65996944108
 20
27701.07894478725
 10
-23238.55191153911
 20
27698.86282898331
  0
LWPOLYLINE
  5
79
330
2F
100
AcDbEntity
  8
0
100
AcDbPolyline
 90
3
 70
129
 38
5.065407551857788
 10
-23239.50167545509
 20
27705.36219382007
 10
-23239.0267934971
 20
27705.04560584808
 10
-23238.23532356712
 20
27704.24482450716
  0
LWPOLYLINE
  5
7A
330
2F
100
AcDbEntity
  8
0
100
AcDbPolyline
 90
9
 70
128
 38
5.065407551857788
 10
-23237.28555965115
 20
27691.41370023058
 10
-23238.86849951111
 20
27694.89616792248
 10
-23236.01920776319
 20
27695.68763785246
 10
-23238.55191153911
 20
27698.86282898331
 10
-23236.65238370717
 20
27699.97088688529
 10
-23238.39361755312
 20
27702.18700268922
 10
-23239.1850874831
 20
27703.45335457719
 10
-23239.50167545509
 20
27703.13676660519
 10
-23238.39361755312
 20
27702.18700268922
  0
LWPOLYLINE
  5
7B
330
2F
100
AcDbEntity
  8
0
100
AcDbPolyline
 90
3
 70
128
 38
5.065407551857788
 10
-23238.23532356712
 20
27704.24482450716
 10
-23238.55191153911
 20
27704.56141247915
 10
-23239.0267934971
 20
27705.04560584808
  0
LWPOLYLINE
  5
7C
330
2F
100
AcDbEntity
  8
0
100
AcDbPolyline
 90
3
 70
129
 38
5.065407551857788
 10
-23239.50167545509
 20
27704.40311849316
 10
-23239.50167545509
 20
27704.24482450716
 10
-23239.50167545509
 20
27704.40311849316
  0
LWPOLYLINE
  5
7D
330
2F
100
AcDbEntity
  8
0
100
AcDbPolyline
 90
12
 70
128
 38
5.065407551857788
 10
-23239.97655741308
 20
27687.13045119776
 10
-23239.50167545509
 20
27687.44703916976
 10
-23239.65996944108
 20
27687.60533315575
 10
-23239.97655741308
 20
27687.92192112774
 10
-23240.29314538507
 20
27688.40611449667
 10
-23237.28555965115
 20
27691.41370023058
 10
-23236.01920776319
 20
27695.68763785246
 10
-23236.65238370717
 20
27699.97088688529
 10
-23239.1850874831
 20
27703.45335457719
 10
-23238.71020552511
 20
27703.92823653517
 10
-23238.23532356712
 20
27704.24482450716
 10
-23238.55191153911
 20
27704.56141247915
  0
LWPOLYLINE
  5
7E
330
2F
100
AcDbEntity
  8
0
100
AcDbPolyline
 90
2
 70
129
 38
5.065407551857788
 10
-23304.75604332901
 20
27725.64244684939
 10
-23304.75604332901
 20
27726.27562279336
  0
LWPOLYLINE
  5
7F
330
2F
100
AcDbEntity
  8
0
100
AcDbPolyline
 90
2
 70
129
 38
5.065407551857788
 10
-23304.75604332901
 20
27726.27562279336
 10
-23304.75604332901
 20
27727.06709272334
  0
LWPOLYLINE
  5
80
330
2F
100
AcDbEntity
  8
0
100
AcDbPolyline
 90
4
 70
129
 38
5.065407551857788
 10
-23301.11528165112
 20
27728.01685663932
 10
-23301.27357563711
 20
27727.38368069533
 10
-23301.27357563711
 20
27726.59221076536
 10
-23301.27357563711
 20
27727.38368069533
  0
LWPOLYLINE
  5
81
330
2F
100
AcDbEntity
  8
0
100
AcDbPolyline
 90
2
 70
129
 38
5.065407551857788
 10
-23301.11528165112
 20
27729.29251993822
 10
-23301.11528165112
 20
27729.12491454128
  0
LWPOLYLINE
  5
82
330
2F
100
AcDbEntity
  8
0
100
AcDbPolyline
 90
4
 70
129
 38
5.065407551857788
 10
-23300.16551773514
 20
27741.49046827082
 10
-23300.95698766512
 20
27730.55887182619
 10
-23300.95698766512
 20
27730.0839898682
 10
-23300.95698766512
 20
27730.55887182619
  0
LWPOLYLINE
  5
83
330
2F
100
AcDbEntity
  8
0
100
AcDbPolyline
 90
2
 70
128
 38
5.065407551857788
 10
-23304.91433731501
 20
27723.42633104544
 10
-23304.75604332901
 20
27723.42633104544
  0
LWPOLYLINE
  5
84
330
2F
100
AcDbEntity
  8
0
100
AcDbPolyline
 90
2
 70
128
 38
5.065407551857788
 10
-23304.59774934302
 20
27725.3258588774
 10
-23304.91433731501
 20
27725.3258588774
  0
LWPOLYLINE
  5
85
330
2F
100
AcDbEntity
  8
0
100
AcDbPolyline
 90
2
 70
128
 38
5.065407551857788
 10
-23304.59774934302
 20
27726.27562279336
 10
-23304.75604332901
 20
27726.27562279336
  0
LWPOLYLINE
  5
86
330
2F
100
AcDbEntity
  8
0
100
AcDbPolyline
 90
2
 70
128
 38
5.065407551857788
 10
-23304.59774934302
 20
27727.38368069533
 10
-23304.75604332901
 20
27727.38368069533
  0
LWPOLYLINE
  5
87
330
2F
100
AcDbEntity
  8
0
100
AcDbPolyline
 90
2
 70
128
 38
5.065407551857788
 10
-23304.43945535701
 20
27728.80832656929
 10
-23304.59774934302
 20
27728.80832656929
  0
LWPOLYLINE
  5
88
330
2F
100
AcDbEntity
  8
0
100
AcDbPolyline
 90
2
 70
129
 38
5.065407551857788
 10
-23304.43945535701
 20
27729.60910791021
 10
-23304.59774934302
 20
27729.60910791021
  0
LWPOLYLINE
  5
89
330
2F
100
AcDbEntity
  8
0
100
AcDbPolyline
 90
2
 70
128
 38
5.065407551857788
 10
-23304.28116137103
 20
27730.55887182619
 10
-23304.43945535701
 20
27730.55887182619
  0
LWPOLYLINE
  5
8A
330
2F
100
AcDbEntity
  8
0
100
AcDbPolyline
 90
2
 70
129
 38
5.065407551857788
 10
-23303.80627941304
 20
27741.49046827082
 10
-23303.48969144105
 20
27741.49046827082
  0
LWPOLYLINE
  5
8B
330
2F
100
AcDbEntity
  8
0
100
AcDbPolyline
 90
2
 70
128
 38
5.065407551857788
 10
-23290.50027317848
 20
27742.91511414478
 10
-23290.50027317848
 20
27746.40689324762
  0
LWPOLYLINE
  5
8C
330
2F
100
AcDbEntity
  8
0
100
AcDbPolyline
 90
2
 70
128
 38
5.065407551857788
 10
-23296.51544464631
 20
27661.45889123366
 10
-23290.50027317848
 20
27661.45889123366
  0
LWPOLYLINE
  5
8D
330
2F
100
AcDbEntity
  8
0
100
AcDbPolyline
 90
2
 70
129
 38
5.065407551857788
 10
-23296.51544464631
 20
27661.45889123366
 10
-23296.51544464631
 20
27663.04183109362
  0
LWPOLYLINE
  5
8E
330
2F
100
AcDbEntity
  8
0
100
AcDbPolyline
 90
2
 70
129
 38
5.065407551857788
 10
-23290.50027317848
 20
27661.45889123366
 10
-23290.50027317848
 20
27664.95067033651
  0
LWPOLYLINE
  5
8F
330
2F
100
AcDbEntity
  8
0
100
AcDbPolyline
 90
4
 70
128
 38
5.065407551857788
 10
-23277.98573687389
 20
27661.45889123366
 10
-23271.97056540606
 20
27661.45889123366
 10
-23271.97056540606
 20
27663.20012507961
 10
-23271.97056540606
 20
27663.35841906561
  0
LWPOLYLINE
  5
90
330
2F
100
AcDbEntity
  8
0
100
AcDbPolyline
 90
2
 70
129
 38
5.065407551857788
 10
-23277.98573687389
 20
27661.45889123366
 10
-23277.98573687389
 20
27664.95067033651
  0
LWPOLYLINE
  5
91
330
2F
100
AcDbEntity
  8
0
100
AcDbPolyline
 90
2
 70
128
 38
5.065407551857788
 10
-23289.07562730452
 20
27742.44023218679
 10
-23287.96756940255
 20
27742.28193820079
  0
LWPOLYLINE
  5
92
330
2F
100
AcDbEntity
  8
0
100
AcDbPolyline
 90
2
 70
128
 38
5.065407551857788
 10
-23280.52775206076
 20
27742.1236442148
 10
-23279.56867673384
 20
27742.28193820079
  0
LWPOLYLINE
  5
93
330
2F
100
AcDbEntity
  8
0
100
AcDbPolyline
 90
2
 70
128
 38
5.065407551857788
 10
-23287.96756940255
 20
27665.58384628049
 10
-23289.07562730452
 20
27665.42555229449
  0
LWPOLYLINE
  5
94
330
2F
100
AcDbEntity
  8
0
100
AcDbPolyline
 90
3
 70
128
 38
5.065407551857788
 10
-23290.50027317848
 20
27664.95067033651
 10
-23290.50027317848
 20
27661.45889123366
 10
-23277.98573687389
 20
27661.45889123366
  0
LWPOLYLINE
  5
95
330
2F
100
AcDbEntity
  8
0
100
AcDbPolyline
 90
2
 70
128
 38
5.065407551857788
 10
-23279.56867673384
 20
27665.42555229449
 10
-23280.52775206076
 20
27665.58384628049
  0
LWPOLYLINE
  5
96
330
2F
100
AcDbEntity
  8
0
100
AcDbPolyline
 90
8
 70
129
 38
5.065407551857788
 10
-23304.91433731501
 20
27657.65983556977
 10
-23304.91433731501
 20
27661.45889123366
 10
-23304.91433731501
 20
27657.65983556977
 10
-23304.91433731501
 20
27656.86836563979
 10
-23301.5901636091
 20
27656.86836563979
 10
-23301.5901636091
 20
27657.65983556977
 10
-23301.5901636091
 20
27661.45889123366
 10
-23301.5901636091
 20
27657.65983556977
  0
LWPOLYLINE
  5
97
330
2F
100
AcDbEntity
  8
0
100
AcDbPolyline
 90
4
 70
129
 38
5.065407551857788
 10
-23304.91433731501
 20
27657.65983556977
 10
-23304.91433731501
 20
27656.86836563979
 10
-23301.5901636091
 20
27656.86836563979
 10
-23304.91433731501
 20
27657.65983556977
  0
LWPOLYLINE
  5
98
330
2F
100
AcDbEntity
  8
0
100
AcDbPolyline
 90
2
 70
128
 38
5.065407551857788
 10
-23301.5901636091
 20
27656.86836563979
 10
-23301.5901636091
 20
27657.65983556977
  0
LWPOLYLINE
  5
99
330
2F
100
AcDbEntity
  8
0
100
AcDbPolyline
 90
6
 70
128
 38
5.065407551857788
 10
-23307.13045311895
 20
27658.92618745774
 10
-23307.13045311895
 20
27657.02665962579
 10
-23304.91433731501
 20
27657.02665962579
 10
-23307.13045311895
 20
27657.02665962579
 10
-23307.13045311895
 20
27658.92618745774
 10
-23304.91433731501
 20
27658.92618745774
  0
LWPOLYLINE
  5
9A
330
2F
100
AcDbEntity
  8
0
100
AcDbPolyline
 90
4
 70
129
 38
5.065407551857788
 10
-23304.91433731501
 20
27686.65556923977
 10
-23303.80627941304
 20
27687.60533315575
 10
-23301.5901636091
 20
27687.60533315575
 10
-23303.80627941304
 20
27687.60533315575
  0
LWPOLYLINE
  5
9B
330
2F
100
AcDbEntity
  8
0
100
AcDbPolyline
 90
6
 70
129
 38
5.065407551857788
 10
-23302.85651549707
 20
27689.19758442665
 10
-23303.48969144105
 20
27689.19758442665
 10
-23306.02239521698
 20
27686.65556923977
 10
-23303.48969144105
 20
27689.19758442665
 10
-23302.85651549707
 20
27689.19758442665
 10
-23302.38163353908
 20
27687.60533315575
  0
LWPOLYLINE
  5
9C
330
2F
100
AcDbEntity
  8
0
100
AcDbPolyline
 90
14
 70
128
 38
5.065407551857788
 10
-23305.07263130101
 20
27720.2511399146
 10
-23304.28116137103
 20
27729.9256958822
 10
-23304.12286738503
 20
27733.40816357412
 10
-23303.80627941304
 20
27738.32458855091
 10
-23303.33139745505
 20
27743.38999610276
 10
-23303.80627941304
 20
27738.32458855091
 10
-23304.12286738503
 20
27733.40816357412
 10
-23304.28116137103
 20
27729.9256958822
 10
-23305.07263130101
 20
27720.2511399146
 10
-23303.64798542704
 20
27720.0928459286
 10
-23302.38163353908
 20
27722.00168517149
 10
-23302.38163353908
 20
27722.47656712948
 10
-23302.38163353908
 20
27722.00168517149
 10
-23303.64798542704
 20
27720.0928459286
  0
LWPOLYLINE
  5
9D
330
2F
100
AcDbEntity
  8
0
100
AcDbPolyline
 90
2
 70
129
 38
5.065407551857788
 10
-23303.64798542704
 20
27740.22411638287
 10
-23303.48969144105
 20
27742.5985261728
  0
LWPOLYLINE
  5
9E
330
2F
100
AcDbEntity
  8
0
100
AcDbPolyline
 90
4
 70
129
 38
5.065407551857788
 10
-23303.17310346906
 20
27746.88177520561
 10
-23303.17310346906
 20
27747.1983631776
 10
-23303.17310346906
 20
27746.56518723362
 10
-23303.17310346906
 20
27746.40689324762
  0
LWPOLYLINE
  5
9F
330
2F
100
AcDbEntity
  8
0
100
AcDbPolyline
 90
8
 70
129
 38
5.065407551857788
 10
-23303.01480948306
 20
27748.93959702355
 10
-23303.01480948306
 20
27750.04765492552
 10
-23302.85651549707
 20
27750.8391248555
 10
-23303.01480948306
 20
27749.88936093953
 10
-23303.17310346906
 20
27747.1983631776
 10
-23303.17310346906
 20
27747.35665716359
 10
-23303.01480948306
 20
27748.14812709357
 10
-23303.01480948306
 20
27748.62300905156
  0
LWPOLYLINE
  5
A0
330
2F
100
AcDbEntity
  8
0
100
AcDbPolyline
 90
2
 70
129
 38
5.065407551857788
 10
-23300.00722374915
 20
27748.14812709357
 10
-23300.00722374915
 20
27747.83153912158
  0
LWPOLYLINE
  5
A1
330
2F
100
AcDbEntity
  8
0
100
AcDbPolyline
 90
4
 70
128
 38
5.065407551857788
 10
-23300.00722374915
 20
27747.04006919161
 10
-23300.00722374915
 20
27746.88177520561
 10
-23300.00722374915
 20
27748.30642107957
 10
-23300.00722374915
 20
27748.14812709357
  0
LWPOLYLINE
  5
A2
330
2F
100
AcDbEntity
  8
0
100
AcDbPolyline
 90
3
 70
129
 38
5.065407551857788
 10
-23300.00722374915
 20
27750.8391248555
 10
-23302.85651549707
 20
27750.8391248555
 10
-23303.01480948306
 20
27749.88936093953
  0
LWPOLYLINE
  5
A3
330
2F
100
AcDbEntity
  8
0
100
AcDbPolyline
 90
3
 70
129
 38
5.065407551857788
 10
-23300.00722374915
 20
27750.8391248555
 10
-23298.57326646425
 20
27750.8391248555
 10
-23298.57326646425
 20
27750.6808308695
  0
LWPOLYLINE
  5
A4
330
2F
100
AcDbEntity
  8
0
100
AcDbPolyline
 90
4
 70
129
 38
5.065407551857788
 10
-23303.01480948306
 20
27749.88936093953
 10
-23298.57326646425
 20
27750.6808308695
 10
-23298.57326646425
 20
27750.36424289751
 10
-23303.01480948306
 20
27749.88936093953
  0
LWPOLYLINE
  5
A5
330
2F
100
AcDbEntity
  8
0
100
AcDbPolyline
 90
2
 70
129
 38
5.065407551857788
 10
-23302.85651549707
 20
27750.8391248555
 10
-23300.00722374915
 20
27750.8391248555
  0
LWPOLYLINE
  5
A6
330
2F
100
AcDbEntity
  8
0
100
AcDbPolyline
 90
3
 70
128
 38
5.065407551857788
 10
-23298.57326646425
 20
27750.52253688351
 10
-23298.57326646425
 20
27750.8391248555
 10
-23300.00722374915
 20
27750.8391248555
  0
LWPOLYLINE
  5
A7
330
2F
100
AcDbEntity
  8
0
100
AcDbPolyline
 90
2
 70
129
 38
5.065407551857788
 10
-23298.57326646425
 20
27750.20594891151
 10
-23298.57326646425
 20
27748.30642107957
  0
LWPOLYLINE
  5
A8
330
2F
100
AcDbEntity
  8
0
100
AcDbPolyline
 90
2
 70
129
 38
5.065407551857788
 10
-23298.57326646425
 20
27750.8391248555
 10
-23298.57326646425
 20
27750.52253688351
  0
LWPOLYLINE
  5
A9
330
2F
100
AcDbEntity
  8
0
100
AcDbPolyline
 90
5
 70
128
 38
5.065407551857788
 10
-23298.57326646425
 20
27749.88936093953
 10
-23298.57326646425
 20
27750.36424289751
 10
-23298.57326646425
 20
27750.6808308695
 10
-23298.57326646425
 20
27750.8391248555
 10
-23298.57326646425
 20
27750.52253688351
  0
LWPOLYLINE
  5
AA
330
2F
100
AcDbEntity
  8
0
100
AcDbPolyline
 90
2
 70
129
 38
5.065407551857788
 10
-23298.57326646425
 20
27750.20594891151
 10
-23298.57326646425
 20
27748.30642107957
  0
LWPOLYLINE
  5
AB
330
2F
100
AcDbEntity
  8
0
100
AcDbPolyline
 90
2
 70
129
 38
5.065407551857788
 10
-23301.11528165112
 20
27729.60910791021
 10
-23301.27357563711
 20
27727.38368069533
  0
LWPOLYLINE
  5
AC
330
2F
100
AcDbEntity
  8
0
100
AcDbPolyline
 90
2
 70
129
 38
5.065407551857788
 10
-23301.27357563711
 20
27726.59221076536
 10
-23301.27357563711
 20
27726.43391677936
  0
LWPOLYLINE
  5
AD
330
2F
100
AcDbEntity
  8
0
100
AcDbPolyline
 90
2
 70
129
 38
5.065407551857788
 10
-23302.22333955309
 20
27725.0092709054
 10
-23302.22333955309
 20
27724.85097691941
  0
LWPOLYLINE
  5
AE
330
2F
100
AcDbEntity
  8
0
100
AcDbPolyline
 90
2
 70
128
 38
5.065407551857788
 10
-23301.11528165112
 20
27729.76740189621
 10
-23304.28116137103
 20
27729.9256958822
  0
LWPOLYLINE
  5
AF
330
2F
100
AcDbEntity
  8
0
100
AcDbPolyline
 90
4
 70
128
 38
5.065407551857788
 10
-23302.22333955309
 20
27725.0092709054
 10
-23301.43186962311
 20
27725.0092709054
 10
-23301.11528165112
 20
27729.76740189621
 10
-23300.79869367913
 20
27733.09157560211
  0
LWPOLYLINE
  5
B0
330
2F
100
AcDbEntity
  8
0
100
AcDbPolyline
 90
9
 70
128
 38
5.065407551857788
 10
-23302.22333955309
 20
27725.0092709054
 10
-23301.43186962311
 20
27725.0092709054
 10
-23301.11528165112
 20
27729.76740189621
 10
-23300.79869367913
 20
27733.09157560211
 10
-23300.48210570713
 20
27738.16629456491
 10
-23300.16551773514
 20
27743.38999610276
 10
-23300.48210570713
 20
27738.16629456491
 10
-23300.79869367913
 20
27733.09157560211
 10
-23304.12286738503
 20
27733.40816357412
  0
LWPOLYLINE
  5
B1
330
2F
100
AcDbEntity
  8
0
100
AcDbPolyline
 90
2
 70
128
 38
5.065407551857788
 10
-23300.48210570713
 20
27738.16629456491
 10
-23303.80627941304
 20
27738.32458855091
  0
LWPOLYLINE
  5
B2
330
2F
100
AcDbEntity
  8
0
100
AcDbPolyline
 90
11
 70
128
 38
5.065407551857788
 10
-23300.95698766512
 20
27746.40689324762
 10
-23303.17310346906
 20
27746.56518723362
 10
-23303.17310346906
 20
27746.40689324762
 10
-23303.17310346906
 20
27746.88177520561
 10
-23303.17310346906
 20
27747.1983631776
 10
-23303.17310346906
 20
27747.35665716359
 10
-23303.01480948306
 20
27748.14812709357
 10
-23303.01480948306
 20
27748.62300905156
 10
-23303.01480948306
 20
27748.93959702355
 10
-23303.01480948306
 20
27750.04765492552
 10
-23302.85651549707
 20
27750.8391248555
  0
LWPOLYLINE
  5
B3
330
2F
100
AcDbEntity
  8
0
100
AcDbPolyline
 90
3
 70
129
 38
5.065407551857788
 10
-23303.17310346906
 20
27746.56518723362
 10
-23299.84892976316
 20
27746.40689324762
 10
-23303.17310346906
 20
27747.1983631776
  0
LWPOLYLINE
  5
B4
330
2F
100
AcDbEntity
  8
0
100
AcDbPolyline
 90
6
 70
128
 38
5.065407551857788
 10
-23299.84892976316
 20
27746.40689324762
 10
-23300.00722374915
 20
27746.88177520561
 10
-23303.17310346906
 20
27747.1983631776
 10
-23303.01480948306
 20
27749.88936093953
 10
-23298.57326646425
 20
27749.88936093953
 10
-23298.57326646425
 20
27750.36424289751
  0
LWPOLYLINE
  5
B5
330
2F
100
AcDbEntity
  8
0
100
AcDbPolyline
 90
10
 70
128
 38
5.065407551857788
 10
-23299.84892976316
 20
27746.40689324762
 10
-23300.00722374915
 20
27746.88177520561
 10
-23300.00722374915
 20
27747.04006919161
 10
-23300.00722374915
 20
27747.35665716359
 10
-23300.00722374915
 20
27747.04006919161
 10
-23300.00722374915
 20
27746.88177520561
 10
-23300.00722374915
 20
27748.30642107957
 10
-23298.57326646425
 20
27748.30642107957
 10
-23298.57326646425
 20
27749.88936093953
 10
-23298.57326646425
 20
27748.30642107957
  0
LWPOLYLINE
  5
B6
330
2F
100
AcDbEntity
  8
0
100
AcDbPolyline
 90
3
 70
128
 38
5.065407551857788
 10
-23300.00722374915
 20
27748.14812709357
 10
-23300.00722374915
 20
27748.30642107957
 10
-23298.57326646425
 20
27748.30642107957
  0
LWPOLYLINE
  5
B7
330
2F
100
AcDbEntity
  8
0
100
AcDbPolyline
 90
22
 70
129
 38
5.065407551857788
 10
-23235.22773783321
 20
27690.30564232862
 10
-23234.59456188923
 20
27689.83076037063
 10
-23235.22773783321
 20
27690.30564232862
 10
-23235.3860318192
 20
27690.30564232862
 10
-23235.70261979119
 20
27690.6222303006
 10
-23236.17750174918
 20
27690.6222303006
 10
-23236.65238370717
 20
27690.6222303006
 10
-23236.17750174918
 20
27690.14734834262
 10
-23239.0267934971
 20
27687.28874518376
 10
-23239.34338146909
 20
27687.76362714175
 10
-23239.50167545509
 20
27687.28874518376
 10
-23239.34338146909
 20
27686.81386322576
 10
-23239.0267934971
 20
27686.33898126779
 10
-23239.34338146909
 20
27686.81386322576
 10
-23239.50167545509
 20
27687.28874518376
 10
-23239.34338146909
 20
27687.76362714175
 10
-23239.0267934971
 20
27687.28874518376
 10
-23236.17750174918
 20
27690.14734834262
 10
-23236.65238370717
 20
27690.6222303006
 10
-23236.17750174918
 20
27690.6222303006
 10
-23235.70261979119
 20
27690.6222303006
 10
-23235.3860318192
 20
27690.30564232862
  0
LWPOLYLINE
  5
B8
330
2F
100
AcDbEntity
  8
0
100
AcDbPolyline
 90
2
 70
129
 38
5.065407551857788
 10
-23238.39361755312
 20
27685.7058053238
 10
-23239.0267934971
 20
27686.33898126779
  0
LWPOLYLINE
  5
B9
330
2F
100
AcDbEntity
  8
0
100
AcDbPolyline
 90
2
 70
129
 38
5.065407551857788
 10
-23234.59456188923
 20
27689.83076037063
 10
-23233.64479797326
 20
27688.40611449667
  0
LWPOLYLINE
  5
BA
330
2F
100
AcDbEntity
  8
0
100
AcDbPolyline
 90
9
 70
128
 38
5.065407551857788
 10
-23238.39361755312
 20
27685.7058053238
 10
-23237.12726566516
 20
27684.75604140783
 10
-23235.3860318192
 20
27684.43945343584
 10
-23233.80309195925
 20
27684.59774742184
 10
-23233.48650398726
 20
27684.59774742184
 10
-23233.32821000126
 20
27684.91433539383
 10
-23233.16991601527
 20
27685.07262937982
 10
-23233.16991601527
 20
27686.81386322576
 10
-23233.64479797326
 20
27688.40611449667
  0
LWPOLYLINE
  5
BB
330
2F
100
AcDbEntity
  8
0
100
AcDbPolyline
 90
2
 70
129
 38
5.065407551857788
 10
-23236.33579573518
 20
27689.98905435662
 10
-23236.65238370717
 20
27689.67246638463
  0
LWPOLYLINE
  5
BC
330
2F
100
AcDbEntity
  8
0
100
AcDbPolyline
 90
2
 70
129
 38
5.065407551857788
 10
-23238.71020552511
 20
27687.60533315575
 10
-23239.97655741308
 20
27688.88099645465
  0
LWPOLYLINE
  5
BD
330
2F
100
AcDbEntity
  8
0
100
AcDbPolyline
 90
2
 70
129
 38
5.065407551857788
 10
-23237.60214762315
 20
27691.25540624459
 10
-23236.33579573518
 20
27689.98905435662
  0
LWPOLYLINE
  5
BE
330
2F
100
AcDbEntity
  8
0
100
AcDbPolyline
 90
2
 70
129
 38
5.065407551857788
 10
-23246.47592224983
 20
27696.00422582445
 10
-23246.31762826384
 20
27695.68763785246
  0
LWPOLYLINE
  5
BF
330
2F
100
AcDbEntity
  8
0
100
AcDbPolyline
 90
2
 70
129
 38
5.065407551857788
 10
-23246.63421623583
 20
27696.48841919338
 10
-23246.63421623583
 20
27696.16251981045
  0
LWPOLYLINE
  5
C0
330
2F
100
AcDbEntity
  8
0
100
AcDbPolyline
 90
2
 70
129
 38
5.065407551857788
 10
-23246.47592224983
 20
27696.96330115137
 10
-23246.47592224983
 20
27696.80500716537
  0
LWPOLYLINE
  5
C1
330
2F
100
AcDbEntity
  8
0
100
AcDbPolyline
 90
2
 70
129
 38
5.065407551857788
 10
-23246.00104029185
 20
27697.27988912336
 10
-23246.15933427784
 20
27697.12159513737
  0
LWPOLYLINE
  5
C2
330
2F
100
AcDbEntity
  8
0
100
AcDbPolyline
 90
2
 70
129
 38
5.065407551857788
 10
-23245.68445231986
 20
27695.37104988047
 10
-23245.36786434786
 20
27695.37104988047
  0
LWPOLYLINE
  5
C3
330
2F
100
AcDbEntity
  8
0
100
AcDbPolyline
 90
2
 70
129
 38
5.065407551857788
 10
-23246.15933427784
 20
27695.52934386647
 10
-23246.00104029185
 20
27695.37104988047
  0
LWPOLYLINE
  5
C4
330
2F
100
AcDbEntity
  8
0
100
AcDbPolyline
 90
2
 70
129
 38
5.065407551857788
 10
-23245.52615833386
 20
27697.43818310935
 10
-23245.68445231986
 20
27697.43818310935
  0
LWPOLYLINE
  5
C5
330
2F
100
AcDbEntity
  8
0
100
AcDbPolyline
 90
2
 70
129
 38
5.065407551857788
 10
-23244.89298238987
 20
27697.27988912336
 10
-23245.20957036187
 20
27697.27988912336
  0
LWPOLYLINE
  5
C6
330
2F
100
AcDbEntity
  8
0
100
AcDbPolyline
 90
2
 70
129
 38
5.065407551857788
 10
-23245.20957036187
 20
27695.37104988047
 10
-23244.89298238987
 20
27695.52934386647
  0
LWPOLYLINE
  5
C7
330
2F
100
AcDbEntity
  8
0
100
AcDbPolyline
 90
2
 70
129
 38
5.065407551857788
 10
-23244.57639441789
 20
27696.80500716537
 10
-23244.73468840388
 20
27696.96330115137
  0
LWPOLYLINE
  5
C8
330
2F
100
AcDbEntity
  8
0
100
AcDbPolyline
 90
2
 70
129
 38
5.065407551857788
 10
-23244.73468840388
 20
27695.68763785246
 10
-23244.57639441789
 20
27696.00422582445
  0
LWPOLYLINE
  5
C9
330
2F
100
AcDbEntity
  8
0
100
AcDbPolyline
 90
2
 70
129
 38
5.065407551857788
 10
-23244.57639441789
 20
27696.32081379644
 10
-23244.57639441789
 20
27696.48841919338
  0
LWPOLYLINE
  5
CA
330
2F
100
AcDbEntity
  8
0
100
AcDbPolyline
 90
9
 70
128
 38
5.065407551857788
 10
-23238.39361755312
 20
27685.7058053238
 10
-23237.12726566516
 20
27684.75604140783
 10
-23235.3860318192
 20
27684.43945343584
 10
-23233.80309195925
 20
27684.59774742184
 10
-23233.48650398726
 20
27684.59774742184
 10
-23233.32821000126
 20
27684.91433539383
 10
-23233.16991601527
 20
27685.07262937982
 10
-23233.16991601527
 20
27686.81386322576
 10
-23233.64479797326
 20
27688.40611449667
  0
LWPOLYLINE
  5
CB
330
2F
100
AcDbEntity
  8
0
100
AcDbPolyline
 90
2
 70
128
 38
5.065407551857788
 10
-23300.00722374915
 20
27747.83153912158
 10
-23300.00722374915
 20
27748.14812709357
  0
LWPOLYLINE
  5
CC
330
2F
100
AcDbEntity
  8
0
100
AcDbPolyline
 90
2
 70
129
 38
5.065407551857788
 10
-23300.00722374915
 20
27746.88177520561
 10
-23300.00722374915
 20
27747.04006919161
  0
LWPOLYLINE
  5
CD
330
2F
100
AcDbEntity
  8
0
100
AcDbPolyline
 90
2
 70
128
 38
5.065407551857788
 10
-23298.57326646425
 20
27750.36424289751
 10
-23298.57326646425
 20
27750.20594891151
  0
ENDBLK
  5
31
330
2F
100
AcDbEntity
  8
0
100
AcDbBlockEnd
  0
ENDSEC
  0
SECTION
  2
ENTITIES
  0
INSERT
  5
CE
330
17
100
AcDbEntity
  8
0
100
AcDbBlockReference
  2
mcb-3
 10
23307.13045311895
 20
-27656.86836563979
 30
-5.065407551857788
  0
ENDSEC
  0
SECTION
  2
OBJECTS
  0
DICTIONARY
  5
A
330
0
100
AcDbDictionary
281
1
  3
ACAD_COLOR
350
B
  3
ACAD_GROUP
350
C
  3
ACAD_LAYOUT
350
D
  3
ACAD_MATERIAL
350
E
  3
ACAD_MLEADERSTYLE
350
F
  3
ACAD_MLINESTYLE
350
10
  3
ACAD_PLOTSETTINGS
350
11
  3
ACAD_PLOTSTYLENAME
350
12
  3
ACAD_SCALELIST
350
14
  3
ACAD_TABLESTYLE
350
15
  3
ACAD_VISUALSTYLE
350
16
  3
EZDXF_META
350
2D
  0
DICTIONARY
  5
B
330
A
100
AcDbDictionary
281
1
  0
DICTIONARY
  5
C
330
A
100
AcDbDictionary
281
1
  0
DICTIONARY
  5
D
330
A
100
AcDbDictionary
281
1
  3
Model
350
1A
  3
Layout1
350
1E
  0
DICTIONARY
  5
E
330
A
100
AcDbDictionary
281
1
  3
ByBlock
350
1F
  3
ByLayer
350
20
  3
Global
350
21
  0
DICTIONARY
  5
F
330
A
100
AcDbDictionary
281
1
  3
Standard
350
2C
  0
DICTIONARY
  5
10
330
A
100
AcDbDictionary
281
1
  3
Standard
350
22
  0
DICTIONARY
  5
11
330
A
100
AcDbDictionary
281
1
  0
ACDBDICTIONARYWDFLT
  5
12
330
A
100
AcDbDictionary
281
1
  3
Normal
350
13
100
AcDbDictionaryWithDefault
340
13
  0
ACDBPLACEHOLDER
  5
13
330
12
  0
DICTIONARY
  5
14
330
A
100
AcDbDictionary
281
1
  0
DICTIONARY
  5
15
330
A
100
AcDbDictionary
281
1
  0
DICTIONARY
  5
16
330
A
100
AcDbDictionary
281
1
  0
LAYOUT
  5
1A
330
D
100
AcDbPlotSettings
  1

  4
A3
  6

 40
7.5
 41
20.0
 42
7.5
 43
20.0
 44
420.0
 45
297.0
 46
0.0
 47
0.0
 48
0.0
 49
0.0
140
0.0
141
0.0
142
1.0
143
1.0
 70
1024
 72
1
 73
0
 74
5
  7

 75
16
 76
0
 77
2
 78
300
147
1.0
148
0.0
149
0.0
100
AcDbLayout
  1
Model
 70
1
 71
0
 10
0.0
 20
0.0
 11
420.0
 21
297.0
 12
0.0
 22
0.0
 32
0.0
 14
1e+20
 24
1e+20
 34
1e+20
 15
-1e+20
 25
-1e+20
 35
-1e+20
146
0.0
 13
0.0
 23
0.0
 33
0.0
 16
1.0
 26
0.0
 36
0.0
 17
0.0
 27
1.0
 37
0.0
 76
1
330
17
  0
LAYOUT
  5
1E
330
D
100
AcDbPlotSettings
  1

  4
A3
  6

 40
7.5
 41
20.0
 42
7.5
 43
20.0
 44
420.0
 45
297.0
 46
0.0
 47
0.0
 48
0.0
 49
0.0
140
0.0
141
0.0
142
1.0
143
1.0
 70
0
 72
1
 73
0
 74
5
  7

 75
16
 76
0
 77
2
 78
300
147
1.0
148
0.0
149
0.0
100
AcDbLayout
  1
Layout1
 70
1
 71
1
 10
0.0
 20
0.0
 11
420.0
 21
297.0
 12
0.0
 22
0.0
 32
0.0
 14
1e+20
 24
1e+20
 34
1e+20
 15
-1e+20
 25
-1e+20
 35
-1e+20
146
0.0
 13
0.0
 23
0.0
 33
0.0
 16
1.0
 26
0.0
 36
0.0
 17
0.0
 27
1.0
 37
0.0
 76
1
330
1B
  0
MATERIAL
  5
1F
102
{ACAD_REACTORS
330
E
102
}
330
E
100
AcDbMaterial
  1
ByBlock
  2

 70
0
 40
1.0
 71
1
 41
1.0
 91
-1023410177
 42
1.0
 72
1
  3

 73
1
 74
1
 75
1
 44
0.5
 73
0
 45
1.0
 46
1.0
 77
1
  4

 78
1
 79
1
170
1
 48
1.0
171
1
  6

172
1
173
1
174
1
140
1.0
141
1.0
175
1
  7

176
1
177
1
178
1
143
1.0
179
1
  8

270
1
271
1
272
1
145
1.0
146
1.0
273
1
  9

274
1
275
1
276
1
 42
1.0
 72
1
  3

 73
1
 74
1
 75
1
 94
63
  0
MATERIAL
  5
20
102
{ACAD_REACTORS
330
E
102
}
330
E
100
AcDbMaterial
  1
ByLayer
  2

 70
0
 40
1.0
 71
1
 41
1.0
 91
-1023410177
 42
1.0
 72
1
  3

 73
1
 74
1
 75
1
 44
0.5
 73
0
 45
1.0
 46
1.0
 77
1
  4

 78
1
 79
1
170
1
 48
1.0
171
1
  6

172
1
173
1
174
1
140
1.0
141
1.0
175
1
  7

176
1
177
1
178
1
143
1.0
179
1
  8

270
1
271
1
272
1
145
1.0
146
1.0
273
1
  9

274
1
275
1
276
1
 42
1.0
 72
1
  3

 73
1
 74
1
 75
1
 94
63
  0
MATERIAL
  5
21
102
{ACAD_REACTORS
330
E
102
}
330
E
100
AcDbMaterial
  1
Global
  2

 70
0
 40
1.0
 71
1
 41
1.0
 91
-1023410177
 42
1.0
 72
1
  3

 73
1
 74
1
 75
1
 44
0.5
 73
0
 45
1.0
 46
1.0
 77
1
  4

 78
1
 79
1
170
1
 48
1.0
171
1
  6

172
1
173
1
174
1
140
1.0
141
1.0
175
1
  7

176
1
177
1
178
1
143
1.0
179
1
  8

270
1
271
1
272
1
145
1.0
146
1.0
273
1
  9

274
1
275
1
276
1
 42
1.0
 72
1
  3

 73
1
 74
1
 75
1
 94
63
  0
MLINESTYLE
  5
22
102
{ACAD_REACTORS
330
10
102
}
330
10
100
AcDbMlineStyle
  2
Standard
 70
0
  3

 62
256
 51
90.0
 52
90.0
 71
2
 49
0.5
 62
256
  6
BYLAYER
 49
-0.5
 62
256
  6
BYLAYER
  0
MLEADERSTYLE
  5
2C
102
{ACAD_REACTORS
330
F
102
}
330
F
100
AcDbMLeaderStyle
179
2
170
2
171
1
172
0
 90
2
 40
0.0
 41
0.0
173
1
 91
-1056964608
 92
-2
290
1
 42
2.0
291
1
 43
8.0
  3
Standard
 44
4.0
300

342
29
174
1
175
1
176
0
178
1
 93
-1056964608
 45
4.0
292
0
297
0
 46
4.0
 94
-1056964608
 47
1.0
 49
1.0
140
1.0
294
1
141
0.0
177
0
142
1.0
295
0
296
0
143
3.75
271
0
272
9
273
9
  0
DICTIONARY
  5
2D
330
A
100
AcDbDictionary
280
1
281
1
  3
CREATED_BY_EZDXF
350
2E
  3
WRITTEN_BY_EZDXF
350
D2
  0
DICTIONARYVAR
  5
2E
330
2D
100
DictionaryVariables
280
0
  1
1.4.4 @ 2026-09-23T12:55:39.041448+00:00
  0
DICTIONARYVAR
  5
D2
330
2D
100
DictionaryVariables
280
0
  1
1.4.4 @ 2026-09-23T12:55:39.099945+00:00
  0
ENDSEC
  0
EOF
