  0
SECTION
  2
HEADER
  9
$ACADVER
  1
AC1032
  9
$ACADMAINTVER
 90
4
  9
$DWGCODEPAGE
  3
ANSI_1252
  9
$LASTSAVEDBY
  1
ezdxf
  9
$REQUIREDVERSIONS
160
0
  9
$INSBASE
 10
0.0
 20
0.0
 30
0.0
  9
$EXTMIN
 10
1e+20
 20
1e+20
 30
1e+20
  9
$EXTMAX
 10
-1e+20
 20
-1e+20
 30
-1e+20
  9
$LIMMIN
 10
0.0
 20
0.0
  9
$LIMMAX
 10
420.0
 20
297.0
  9
$ORTHOMODE
 70
0
  9
$REGENMODE
 70
1
  9
$FILLMODE
 70
1
  9
$QTEXTMODE
 70
0
  9
$MIRRTEXT
 70
1
  9
$LTSCALE
 40
1.0
  9
$ATTMODE
 70
1
  9
$TEXTSIZE
 40
2.5
  9
$TRACEWID
 40
1.0
  9
$TEXTSTYLE
  7
Standard
  9
$CLAYER
  8
0
  9
$CELTYPE
  6
ByLayer
  9
$CECOLOR
 62
256
  9
$CELTSCALE
 40
1.0
  9
$DISPSILH
 70
0
  9
$DIMSCALE
 40
1.0
  9
$DIMASZ
 40
2.5
  9
$DIMEXO
 40
0.625
  9
$DIMDLI
 40
3.75
  9
$DIMRND
 40
0.0
  9
$DIMDLE
 40
0.0
  9
$DIMEXE
 40
1.25
  9
$DIMTP
 40
0.0
  9
$DIMTM
 40
0.0
  9
$DIMTXT
 40
2.5
  9
$DIMCEN
 40
2.5
  9
$DIMTSZ
 40
0.0
  9
$DIMTOL
 70
0
  9
$DIMLIM
 70
0
  9
$DIMTIH
 70
0
  9
$DIMTOH
 70
0
  9
$DIMSE1
 70
0
  9
$DIMSE2
 70
0
  9
$DIMTAD
 70
1
  9
$DIMZIN
 70
8
  9
$DIMBLK
  1

  9
$DIMASO
 70
1
  9
$DIMSHO
 70
1
  9
$DIMPOST
  1

  9
$DIMAPOST
  1

  9
$DIMALT
 70
0
  9
$DIMALTD
 70
3
  9
$DIMALTF
 40
0.03937007874
  9
$DIMLFAC
 40
1.0
  9
$DIMTOFL
 70
1
  9
$DIMTVP
 40
0.0
  9
$DIMTIX
 70
0
  9
$DIMSOXD
 70
0
  9
$DIMSAH
 70
0
  9
$DIMBLK1
  1

  9
$DIMBLK2
  1

  9
$DIMSTYLE
  2
ISO-25
  9
$DIMCLRD
 70
0
  9
$DIMCLRE
 70
0
  9
$DIMCLRT
 70
0
  9
$DIMTFAC
 40
1.0
  9
$DIMGAP
 40
0.625
  9
$DIMJUST
 70
0
  9
$DIMSD1
 70
0
  9
$DIMSD2
 70
0
  9
$DIMTOLJ
 70
0
  9
$DIMTZIN
 70
8
  9
$DIMALTZ
 70
0
  9
$DIMALTTZ
 70
0
  9
$DIMUPT
 70
0
  9
$DIMDEC
 70
2
  9
$DIMTDEC
 70
2
  9
$DIMALTU
 70
2
  9
$DIMALTTD
 70
3
  9
$DIMTXSTY
  7
Standard
  9
$DIMAUNIT
 70
0
  9
$DIMADEC
 70
0
  9
$DIMALTRND
 40
0.0
  9
$DIMAZIN
 70
0
  9
$DIMDSEP
 70
44
  9
$DIMATFIT
 70
3
  9
$DIMFRAC
 70
0
  9
$DIMLDRBLK
  1

  9
$DIMLUNIT
 70
2
  9
$DIMLWD
 70
-2
  9
$DIMLWE
 70
-2
  9
$DIMTMOVE
 70
0
  9
$DIMFXL
 40
1.0
  9
$DIMFXLON
 70
0
  9
$DIMJOGANG
 40
0.785398163397
  9
$DIMTFILL
 70
0
  9
$DIMTFILLCLR
 70
0
  9
$DIMARCSYM
 70
0
  9
$DIMLTYPE
  6

  9
$DIMLTEX1
  6

  9
$DIMLTEX2
  6

  9
$DIMTXTDIRECTION
 70
0
  9
$LUNITS
 70
2
  9
$LUPREC
 70
4
  9
$SKETCHINC
 40
1.0
  9
$FILLETRAD
 40
10.0
  9
$AUNITS
 70
0
  9
$AUPREC
 70
2
  9
$MENU
  1
.
  9
$ELEVATION
 40
0.0
  9
$PELEVATION
 40
0.0
  9
$THICKNESS
 40
0.0
  9
$LIMCHECK
 70
0
  9
$CHAMFERA
 40
0.0
  9
$CHAMFERB
 40
0.0
  9
$CHAMFERC
 40
0.0
  9
$CHAMFERD
 40
0.0
  9
$SKPOLY
 70
0
  9
$TDCREATE
 40
2461307.8287847224
  9
$TDUCREATE
 40
2458532.153996898
  9
$TDUPDATE
 40
2461307.8287847224
  9
$TDUUPDATE
 40
2458532.1544311
  9
$TDINDWG
 40
0.0
  9
$TDUSRTIMER
 40
0.0
  9
$USRTIMER
 70
1
  9
$ANGBASE
 50
0.0
  9
$ANGDIR
 70
0
  9
$PDMODE
 70
0
  9
$PDSIZE
 40
0.0
  9
$PLINEWID
 40
0.0
  9
$SPLFRAME
 70
0
  9
$SPLINETYPE
 70
6
  9
$SPLINESEGS
 70
8
  9
$HANDSEED
  5
1E5
  9
$SURFTAB1
 70
6
  9
$SURFTAB2
 70
6
  9
$SURFTYPE
 70
6
  9
$SURFU
 70
6
  9
$SURFV
 70
6
  9
$UCSBASE
  2

  9
$UCSNAME
  2

  9
$UCSORG
 10
0.0
 20
0.0
 30
0.0
  9
$UCSXDIR
 10
1.0
 20
0.0
 30
0.0
  9
$UCSYDIR
 10
0.0
 20
1.0
 30
0.0
  9
$UCSORTHOREF
  2

  9
$UCSORTHOVIEW
 70
0
  9
$UCSORGTOP
 10
0.0
 20
0.0
 30
0.0
  9
$UCSORGBOTTOM
 10
0.0
 20
0.0
 30
0.0
  9
$UCSORGLEFT
 10
0.0
 20
0.0
 30
0.0
  9
$UCSORGRIGHT
 10
0.0
 20
0.0
 30
0.0
  9
$UCSORGFRONT
 10
0.0
 20
0.0
 30
0.0
  9
$UCSORGBACK
 10
0.0
 20
0.0
 30
0.0
  9
$PUCSBASE
  2

  9
$PUCSNAME
  2

  9
$PUCSORG
 10
0.0
 20
0.0
 30
0.0
  9
$PUCSXDIR
 10
1.0
 20
0.0
 30
0.0
  9
$PUCSYDIR
 10
0.0
 20
1.0
 30
0.0
  9
$PUCSORTHOREF
  2

  9
$PUCSORTHOVIEW
 70
0
  9
$PUCSORGTOP
 10
0.0
 20
0.0
 30
0.0
  9
$PUCSORGBOTTOM
 10
0.0
 20
0.0
 30
0.0
  9
$PUCSORGLEFT
 10
0.0
 20
0.0
 30
0.0
  9
$PUCSORGRIGHT
 10
0.0
 20
0.0
 30
0.0
  9
$PUCSORGFRONT
 10
0.0
 20
0.0
 30
0.0
  9
$PUCSORGBACK
 10
0.0
 20
0.0
 30
0.0
  9
$USERI1
 70
0
  9
$USERI2
 70
0
  9
$USERI3
 70
0
  9
$USERI4
 70
0
  9
$USERI5
 70
0
  9
$USERR1
 40
0.0
  9
$USERR2
 40
0.0
  9
$USERR3
 40
0.0
  9
$USERR4
 40
0.0
  9
$USERR5
 40
0.0
  9
$WORLDVIEW
 70
1
  9
$SHADEDGE
 70
3
  9
$SHADEDIF
 70
70
  9
$TILEMODE
 70
1
  9
$MAXACTVP
 70
64
  9
$PINSBASE
 10
0.0
 20
0.0
 30
0.0
  9
$PLIMCHECK
 70
0
  9
$PEXTMIN
 10
1e+20
 20
1e+20
 30
1e+20
  9
$PEXTMAX
 10
-1e+20
 20
-1e+20
 30
-1e+20
  9
$PLIMMIN
 10
0.0
 20
0.0
  9
$PLIMMAX
 10
420.0
 20
297.0
  9
$UNITMODE
 70
0
  9
$VISRETAIN
 70
1
  9
$PLINEGEN
 70
0
  9
$PSLTSCALE
 70
1
  9
$TREEDEPTH
 70
3020
  9
$CMLSTYLE
  2
Standard
  9
$CMLJUST
 70
0
  9
$CMLSCALE
 40
20.0
  9
$PROXYGRAPHICS
 70
1
  9
$MEASUREMENT
 70
1
  9
$CELWEIGHT
370
-1
  9
$ENDCAPS
280
0
  9
$JOINSTYLE
280
0
  9
$LWDISPLAY
290
0
  9
$INSUNITS
 70
0
  9
$HYPERLINKBASE
  1

  9
$STYLESHEET
  1

  9
$XEDIT
290
1
  9
$CEPSNTYPE
380
0
  9
$PSTYLEMODE
290
1
  9
$FINGERPRINTGUID
  2
{102D48AE-A084-42CC-B1F0-836685B087BD}
  9
$VERSIONGUID
  2
{ABBE4A9E-1221-418B-BE81-701B9CBFF5EC}
  9
$EXTNAMES
290
1
  9
$PSVPSCALE
 40
0.0
  9
$OLESTARTUP
290
0
  9
$SORTENTS
280
127
  9
$INDEXCTL
280
0
  9
$HIDETEXT
280
1
  9
$XCLIPFRAME
280
1
  9
$HALOGAP
280
0
  9
$OBSCOLOR
 70
257
  9
$OBSLTYPE
280
0
  9
$INTERSECTIONDISPLAY
280
0
  9
$INTERSECTIONCOLOR
 70
257
  9
$DIMASSOC
280
2
  9
$PROJECTNAME
  1

  9
$CAMERADISPLAY
290
0
  9
$LENSLENGTH
 40
50.0
  9
$CAMERAHEIGHT
 40
0.0
  9
$STEPSPERSEC
 40
24.0
  9
$STEPSIZE
 40
100.0
  9
$3DDWFPREC
 40
2.0
  9
$PSOLWIDTH
 40
0.005
  9
$PSOLHEIGHT
 40
0.08
  9
$LOFTANG1
 40
1.570796326795
  9
$LOFTANG2
 40
1.570796326795
  9
$LOFTMAG1
 40
0.0
  9
$LOFTMAG2
 40
0.0
  9
$LOFTPARAM
 70
7
  9
$LOFTNORMALS
280
1
  9
$LATITUDE
 40
37.795
  9
$LONGITUDE
 40
-122.394
  9
$NORTHDIRECTION
 40
0.0
  9
$TIMEZONE
 70
-8000
  9
$LIGHTGLYPHDISPLAY
280
1
  9
$TILEMODELIGHTSYNCH
280
1
  9
$CMATERIAL
347
20
  9
$SOLIDHIST
280
0
  9
$SHOWHIST
280
1
  9
$DWFFRAME
280
2
  9
$DGNFRAME
280
2
  9
$REALWORLDSCALE
290
1
  9
$INTERFERECOLOR
 62
256
  9
$CSHADOW
280
0
  9
$SHADOWPLANELOCATION
 40
0.0
  0
ENDSEC
  0
SECTION
  2
CLASSES
  0
CLASS
  1
ACDBDICTIONARYWDFLT
  2
AcDbDictionaryWithDefault
  3
ObjectDBX Classes
 90
0
 91
0
280
0
281
0
  0
CLASS
  1
SUN
  2
AcDbSun
  3
SCENEOE
 90
1153
 91
0
280
0
281
0
  0
CLASS
  1
VISUALSTYLE
  2
AcDbVisualStyle
  3
ObjectDBX Classes
 90
4095
 91
0
280
0
281
0
  0
CLASS
  1
MATERIAL
  2
AcDbMaterial
  3
ObjectDBX Classes
 90
1153
 91
0
280
0
281
0
  0
CLASS
  1
SCALE
  2
AcDbScale
  3
ObjectDBX Classes
 90
1153
 91
0
280
0
281
0
  0
CLASS
  1
TABLESTYLE
  2
AcDbTableStyle
  3
ObjectDBX Classes
 90
4095
 91
0
280
0
281
0
  0
CLASS
  1
MLEADERSTYLE
  2
AcDbMLeaderStyle
  3
ACDB_MLEADERSTYLE_CLASS
 90
4095
 91
0
280
0
281
0
  0
CLASS
  1
DICTIONARYVAR
  2
AcDbDictionaryVar
  3
ObjectDBX Classes
 90
0
 91
0
280
0
281
0
  0
CLASS
  1
CELLSTYLEMAP
  2
AcDbCellStyleMap
  3
ObjectDBX Classes
 90
1152
 91
0
280
0
281
0
  0
CLASS
  1
MENTALRAYRENDERSETTINGS
  2
AcDbMentalRayRenderSettings
  3
SCENEOE
 90
1024
 91
0
280
0
281
0
  0
CLASS
  1
ACDBDETAILVIEWSTYLE
  2
AcDbDetailViewStyle
  3
ObjectDBX Classes
 90
1025
 91
0
280
0
281
0
  0
CLASS
  1
ACDBSECTIONVIEWSTYLE
  2
AcDbSectionViewStyle
  3
ObjectDBX Classes
 90
1025
 91
0
280
0
281
0
  0
CLASS
  1
RASTERVARIABLES
  2
AcDbRasterVariables
  3
ISM
 90
0
 91
0
280
0
281
0
  0
CLASS
  1
LAYOUT
  2
AcDbLayout
  3
ObjectDBX Classes
 90
0
 91
0
280
0
281
0
  0
CLASS
  1
ACDBPLACEHOLDER
  2
AcDbPlaceHolder
  3
ObjectDBX Classes
 90
0
 91
0
280
0
281
0
  0
ENDSEC
  0
SECTION
  2
TABLES
  0
TABLE
  2
VPORT
  5
8
330
0
100
AcDbSymbolTable
 70
1
  0
VPORT
  5
23
330
8
100
AcDbSymbolTableRecord
100
AcDbViewportTableRecord
  2
*Active
 70
0
 10
0.0
 20
0.0
 11
1.0
 21
1.0
 12
0.0
 22
0.0
 13
0.0
 23
0.0
 14
0.5
 24
0.5
 15
0.5
 25
0.5
 16
0.0
 26
0.0
 36
1.0
 17
0.0
 27
0.0
 37
0.0
 40
1000.0
 41
1.34
 42
50.0
 43
0.0
 44
0.0
 50
0.0
 51
0.0
 71
0
 72
1000
 73
1
 74
3
 75
0
 76
0
 77
0
 78
0
281
0
 65
0
146
0.0
  0
ENDTAB
  0
TABLE
  2
LTYPE
  5
2
330
0
100
AcDbSymbolTable
 70
4
  0
LTYPE
  5
24
330
2
100
AcDbSymbolTableRecord
100
AcDbLinetypeTableRecord
  2
ByBlock
 70
0
  3

 72
65
 73
0
 40
0.0
  0
LTYPE
  5
25
330
2
100
AcDbSymbolTableRecord
100
AcDbLinetypeTableRecord
  2
ByLayer
 70
0
  3

 72
65
 73
0
 40
0.0
  0
LTYPE
  5
26
330
2
100
AcDbSymbolTableRecord
100
AcDbLinetypeTableRecord
  2
Continuous
 70
0
  3

 72
65
 73
0
 40
0.0
  0
LTYPE
  5
1DE
330
2
100
AcDbSymbolTableRecord
100
AcDbLinetypeTableRecord
  2
DASHED
 70
0
  3
Dashed __ __ __ __ __ __ __ __ __ __ __ __ __ _
 72
65
 73
2
 40
0.75
 49
0.5
 74
0
 49
-0.25
 74
0
  0
ENDTAB
  0
TABLE
  2
LAYER
  5
1
330
0
100
AcDbSymbolTable
 70
3
  0
LAYER
  5
27
330
1
100
AcDbSymbolTableRecord
100
AcDbLayerTableRecord
  2
0
 70
0
 62
7
  6
Continuous
370
-3
390
13
347
21
  0
LAYER
  5
28
330
1
100
AcDbSymbolTableRecord
100
AcDbLayerTableRecord
  2
Defpoints
 70
0
 62
7
  6
Continuous
290
0
370
-3
390
13
347
21
  0
LAYER
  5
1DD
330
1
100
AcDbSymbolTableRecord
100
AcDbLayerTableRecord
  2
-15N-THT. THIẾT BỊ ĐÓNG MỞ
 70
0
 62
40
  6
CONTINUOUS
370
-3
390
13
347
21
  0
ENDTAB
  0
TABLE
  2
STYLE
  5
5
330
0
100
AcDbSymbolTable
 70
2
  0
STYLE
  5
29
330
5
100
AcDbSymbolTableRecord
100
AcDbTextStyleTableRecord
  2
Standard
 70
0
 40
0.0
 41
1.0
 50
0.0
 71
0
 42
2.5
  3
txt
  4

  0
STYLE
  5
1DF
330
5
100
AcDbSymbolTableRecord
100
AcDbTextStyleTableRecord
  2
- 04.0
 70
0
 40
4.0
 41
1.0
 50
0.0
 71
0
 42
4.0
  3
times.ttf
  4

  0
ENDTAB
  0
TABLE
  2
VIEW
  5
7
330
0
100
AcDbSymbolTable
 70
0
  0
ENDTAB
  0
TABLE
  2
UCS
  5
6
330
0
100
AcDbSymbolTable
 70
0
  0
ENDTAB
  0
TABLE
  2
APPID
  5
3
330
0
100
AcDbSymbolTable
 70
3
  0
APPID
  5
2A
330
3
100
AcDbSymbolTableRecord
100
AcDbRegAppTableRecord
  2
ACAD
 70
0
  0
APPID
  5
1E2
330
3
100
AcDbSymbolTableRecord
100
AcDbRegAppTableRecord
  2
HATCHBACKGROUNDCOLOR
 70
0
  0
APPID
  5
1E3
330
3
100
AcDbSymbolTableRecord
100
AcDbRegAppTableRecord
  2
EZDXF
 70
0
  0
ENDTAB
  0
TABLE
  2
DIMSTYLE
  5
4
330
0
100
AcDbSymbolTable
 70
1
100
AcDbDimStyleTable
  0
DIMSTYLE
105
2B
330
4
100
AcDbSymbolTableRecord
100
AcDbDimStyleTableRecord
  2
Standard
 70
0
 40
1.0
 41
2.5
 42
0.625
 43
3.75
 44
1.25
 45
0.0
 46
0.0
 47
0.0
 48
0.0
 49
2.5
140
2.5
141
2.5
142
0.0
143
0.03937007874
144
1.0
145
0.0
146
1.0
147
0.625
148
0.0
 69
0
 70
0
 71
0
 72
0
 73
0
 74
0
 75
0
 76
0
 77
1
 78
8
 79
3
170
0
171
3
172
1
173
0
174
0
175
0
176
0
177
0
178
0
179
2
271
2
272
2
273
2
274
3
275
0
276
0
277
2
278
44
279
0
280
0
281
0
282
0
283
0
284
8
285
0
286
0
288
0
289
3
290
0
371
-2
372
-2
  0
ENDTAB
  0
TABLE
  2
BLOCK_RECORD
  5
9
330
0
100
AcDbSymbolTable
 70
3
  0
BLOCK_RECORD
  5
17
330
9
100
AcDbSymbolTableRecord
100
AcDbBlockTableRecord
  2
*Model_Space
340
1A
 70
0
280
1
281
0
  0
BLOCK_RECORD
  5
1B
330
9
100
AcDbSymbolTableRecord
100
AcDbBlockTableRecord
  2
*Paper_Space
340
1E
 70
0
280
1
281
0
  0
BLOCK_RECORD
  5
2F
330
9
100
AcDbSymbolTableRecord
100
AcDbBlockTableRecord
  2
06 - N - SC CTT LC1D32
340
0
 70
0
280
1
281
0
  0
ENDTAB
  0
ENDSEC
  0
SECTION
  2
BLOCKS
  0
BLOCK
  5
18
330
17
100
AcDbEntity
  8
0
100
AcDbBlockBegin
  2
*Model_Space
 70
0
 10
0.0
 20
0.0
 30
0.0
  3
*Model_Space
  1

  0
ENDBLK
  5
19
330
17
100
AcDbEntity
  8
0
100
AcDbBlockEnd
  0
BLOCK
  5
1C
330
1B
100
AcDbEntity
  8
0
100
AcDbBlockBegin
  2
*Paper_Space
 70
0
 10
0.0
 20
0.0
 30
0.0
  3
*Paper_Space
  1

  0
ENDBLK
  5
1D
330
1B
100
AcDbEntity
  8
0
100
AcDbBlockEnd
  0
BLOCK
  5
30
330
2F
100
AcDbEntity
  8
0
100
AcDbBlockBegin
  2
06 - N - SC CTT LC1D32
 70
0
 10
0.0
 20
0.0
 30
0.0
  3
06 - N - SC CTT LC1D32
  1

  0
CIRCLE
  5
32
330
2F
100
AcDbEntity
  8
-15N-THT. THIẾT BỊ ĐÓNG MỞ
100
AcDbCircle
 10
49.69992099999945
 20
-35.52499350000108
 30
0.0
 40
3.099997999999998
  0
ARC
  5
33
330
2F
100
AcDbEntity
  8
-15N-THT. THIẾT BỊ ĐÓNG MỞ
100
AcDbCircle
 10
49.69992099999945
 20
-35.52499350000108
 30
0.0
 40
2.349997999999998
100
AcDbArc
 50
77.71550799999146
 51
102.2845179999904
  0
LINE
  5
34
330
2F
100
AcDbEntity
  8
-15N-THT. THIẾT BỊ ĐÓNG MỞ
100
AcDbLine
 10
50.69994997381946
 20
-35.02493844763922
 30
0.0
 11
52.75941297381724
 21
-35.02493833980589
 31
0.0
  0
LINE
  5
35
330
2F
100
AcDbEntity
  8
-15N-THT. THIẾT BỊ ĐÓNG MỞ
100
AcDbLine
 10
50.70005502617641
 20
-36.02493744763433
 30
0.0
 11
52.75942802617646
 21
-36.02493733980555
 31
0.0
  0
LINE
  5
36
330
2F
100
AcDbEntity
  8
-15N-THT. THIẾT BỊ ĐÓNG MỞ
100
AcDbLine
 10
46.64062697381814
 20
-35.0249386601854
 30
0.0
 11
48.70001297381896
 21
-35.02493855235571
 31
0.0
  0
LINE
  5
37
330
2F
100
AcDbEntity
  8
-15N-THT. THIẾT BỊ ĐÓNG MỞ
100
AcDbLine
 10
46.64061102617779
 20
-36.02493766018597
 30
0.0
 11
48.70019602617685
 21
-36.02493755234628
 31
0.0
  0
ARC
  5
38
330
2F
100
AcDbEntity
  8
-15N-THT. THIẾT BỊ ĐÓNG MỞ
100
AcDbCircle
 10
49.70016514060626
 20
-35.52508505271817
 30
0.0
 40
1.040265999999999
100
AcDbArc
 50
61.28573399998624
 51
118.7372140000184
  0
ARC
  5
39
330
2F
100
AcDbEntity
  8
-15N-THT. THIẾT BỊ ĐÓNG MỞ
100
AcDbCircle
 10
49.70016514060626
 20
-35.52508505271817
 30
0.0
 40
1.040265999999999
100
AcDbArc
 50
241.2742130000263
 51
298.7206939999841
  0
ARC
  5
3A
330
2F
100
AcDbEntity
  8
-15N-THT. THIẾT BỊ ĐÓNG MỞ
100
AcDbCircle
 10
49.69992099999945
 20
-35.52499350000108
 30
0.0
 40
1.144998999999998
100
AcDbArc
 50
154.1045520000042
 51
205.88924300003
  0
ARC
  5
3B
330
2F
100
AcDbEntity
  8
-15N-THT. THIẾT BỊ ĐÓNG MỞ
100
AcDbCircle
 10
49.69992099999945
 20
-35.52499350000108
 30
0.0
 40
1.144998999999998
100
AcDbArc
 50
334.1107730000144
 51
25.89546400001963
  0
LINE
  5
3C
330
2F
100
AcDbEntity
  8
-15N-THT. THIẾT BỊ ĐÓNG MỞ
100
AcDbLine
 10
49.20001187976959
 20
-33.22873552617603
 30
0.0
 11
49.20001194606084
 21
-34.49489252617605
 31
0.0
  0
LINE
  5
3D
330
2F
100
AcDbEntity
  8
-15N-THT. THIẾT BỊ ĐÓNG MỞ
100
AcDbLine
 10
50.19994387977203
 20
-33.22876747381906
 30
0.0
 11
50.1999519476376
 21
-34.52494247381947
 31
0.0
  0
ARC
  5
3E
330
2F
100
AcDbEntity
  8
-15N-THT. THIẾT BỊ ĐÓNG MỞ
100
AcDbCircle
 10
49.69995151757757
 20
-35.52496298241931
 30
0.0
 40
2.349997999999998
100
AcDbArc
 50
257.7167190000208
 51
282.2857290000554
  0
LINE
  5
3F
330
2F
100
AcDbEntity
  8
-15N-THT. THIẾT BỊ ĐÓNG MỞ
100
AcDbLine
 10
49.20019605235575
 20
-36.52492652616547
 30
0.0
 11
49.20022412022809
 21
-37.82117952616409
 31
0.0
  0
LINE
  5
40
330
2F
100
AcDbEntity
  8
-15N-THT. THIẾT BỊ ĐÓNG MỞ
100
AcDbLine
 10
50.20005705235963
 20
-36.52494547381412
 30
0.0
 11
50.20007612022528
 21
-37.82113547381323
 31
0.0
  0
ARC
  5
41
330
2F
100
AcDbEntity
  8
-15N-THT. THIẾT BỊ ĐÓNG MỞ
100
AcDbCircle
 10
48.70019605235938
 20
-36.52493855234661
 30
0.0
 40
0.5
100
AcDbArc
 50
0.0012330000043337
 51
89.99998599996732
  0
ARC
  5
42
330
2F
100
AcDbEntity
  8
-15N-THT. THIẾT BỊ ĐÓNG MỞ
100
AcDbCircle
 10
48.70001194763972
 20
-34.52493855235571
 30
0.0
 40
0.5
100
AcDbArc
 50
270.0000349999253
 51
359.9999760000184
  0
ARC
  5
43
330
2F
100
AcDbEntity
  8
-15N-THT. THIẾT BỊ ĐÓNG MỞ
100
AcDbCircle
 10
50.6999519476376
 20
-34.52493844763921
 30
0.0
 40
0.5
100
AcDbArc
 50
180.0003679999953
 51
269.9999669999602
  0
ARC
  5
44
330
2F
100
AcDbEntity
  8
-15N-THT. THIẾT BỊ ĐÓNG MỞ
100
AcDbCircle
 10
50.70005605235564
 20
-36.52493844763467
 30
0.0
 40
0.5
100
AcDbArc
 50
90.00001107946395
 51
180.0008050000029
  0
ARC
  5
45
330
2F
100
AcDbEntity
  8
-15N-THT. THIẾT BỊ ĐÓNG MỞ
100
AcDbCircle
 10
23.0
 20
-26.52491750000172
 30
0.0
 40
2.349997999999998
100
AcDbArc
 50
77.71553199994342
 51
102.2845420000553
  0
ARC
  5
46
330
2F
100
AcDbEntity
  8
-15N-THT. THIẾT BỊ ĐÓNG MỞ
100
AcDbCircle
 10
23.0
 20
-26.52491750000172
 30
0.0
 40
2.349997999999998
100
AcDbArc
 50
257.7155950000099
 51
282.2844959999666
  0
LINE
  5
47
330
2F
100
AcDbEntity
  8
-15N-THT. THIẾT BỊ ĐÓNG MỞ
100
AcDbLine
 10
26.56533899127317
 20
-26.02495443777389
 30
0.0
 11
23.50015999127572
 21
-26.02495449127128
 31
0.0
  0
LINE
  5
48
330
2F
100
AcDbEntity
  8
-15N-THT. THIẾT BỊ ĐÓNG MỞ
100
AcDbLine
 10
22.50015999127572
 20
-26.02495450872357
 30
0.0
 11
19.43514899126967
 21
-26.02495456221914
 31
0.0
  0
ARC
  5
49
330
2F
100
AcDbEntity
  8
-15N-THT. THIẾT BỊ ĐÓNG MỞ
100
AcDbCircle
 10
23.00024414060317
 20
-26.52500905272609
 30
0.0
 40
1.040264999999998
100
AcDbArc
 50
70.64584899992322
 51
109.3830209999459
  0
ARC
  5
4A
330
2F
100
AcDbEntity
  8
-15N-THT. THIẾT BỊ ĐÓNG MỞ
100
AcDbCircle
 10
23.00024414060317
 20
-26.52500905272609
 30
0.0
 40
1.040264999999998
100
AcDbArc
 50
250.6170619999672
 51
289.3542340000189
  0
LINE
  5
4B
330
2F
100
AcDbEntity
  8
-15N-THT. THIẾT BỊ ĐÓNG MỞ
100
AcDbLine
 10
22.65517198287125
 20
-25.54354550601875
 30
0.0
 11
22.50016599127412
 21
-26.02494250872496
 31
0.0
  0
LINE
  5
4C
330
2F
100
AcDbEntity
  8
-15N-THT. THIẾT BỊ ĐÓNG MỞ
100
AcDbLine
 10
22.50017200872753
 20
-27.02491550872401
 30
0.0
 11
22.65517901712519
 21
-27.50631250601964
 31
0.0
  0
LINE
  5
4D
330
2F
100
AcDbEntity
  8
-15N-THT. THIẾT BỊ ĐÓNG MỞ
100
AcDbLine
 10
23.50016599127412
 20
-26.02491449127138
 30
0.0
 11
23.34516698287189
 21
-25.54351549397598
 31
0.0
  0
LINE
  5
4E
330
2F
100
AcDbEntity
  8
-15N-THT. THIẾT BỊ ĐÓNG MỞ
100
AcDbLine
 10
23.50017200872753
 20
-27.02492849127157
 30
0.0
 11
23.34517301712913
 21
-27.50632849397607
 31
0.0
  0
ARC
  5
4F
330
2F
100
AcDbEntity
  8
-15N-THT. THIẾT BỊ ĐÓNG MỞ
100
AcDbCircle
 10
23.0
 20
-26.52491750000172
 30
0.0
 40
1.144997999999998
100
AcDbArc
 50
162.4637540000573
 51
197.5363929999864
  0
ARC
  5
50
330
2F
100
AcDbEntity
  8
-15N-THT. THIẾT BỊ ĐÓNG MỞ
100
AcDbCircle
 10
23.0
 20
-26.52491750000172
 30
0.0
 40
1.144997999999998
100
AcDbArc
 50
342.4635990000082
 51
17.53618300000885
  0
LINE
  5
51
330
2F
100
AcDbEntity
  8
-15N-THT. THIẾT BỊ ĐÓNG MỞ
100
AcDbLine
 10
22.50017299127285
 20
-26.02492750872352
 30
0.0
 11
22.01906199397854
 21
-26.1799265171212
 31
0.0
  0
LINE
  5
52
330
2F
100
AcDbEntity
  8
-15N-THT. THIẾT BỊ ĐÓNG MỞ
100
AcDbLine
 10
22.50018900872601
 20
-27.02494950872369
 30
0.0
 11
22.01901500602253
 21
-26.86995051712165
 31
0.0
  0
LINE
  5
53
330
2F
100
AcDbEntity
  8
-15N-THT. THIẾT BỊ ĐÓNG MỞ
100
AcDbLine
 10
23.50015900872677
 20
-27.02491449127137
 30
0.0
 11
23.98183000602148
 21
-26.86991448286517
 31
0.0
  0
LINE
  5
54
330
2F
100
AcDbEntity
  8
-15N-THT. THIẾT BỊ ĐÓNG MỞ
100
AcDbLine
 10
24.09194099397792
 20
-26.17995348094246
 30
0.0
 11
23.98174199397908
 21
-26.17995348286604
 31
0.0
  0
LINE
  5
55
330
2F
100
AcDbEntity
  8
-15N-THT. THIẾT BỊ ĐÓNG MỞ
100
AcDbLine
 10
24.09194100602326
 20
-26.86992548094258
 30
0.0
 11
23.98180300602326
 21
-26.86992548286526
 31
0.0
  0
LINE
  5
56
330
2F
100
AcDbEntity
  8
-15N-THT. THIẾT BỊ ĐÓNG MỞ
100
AcDbLine
 10
22.01903599397701
 20
-26.17995351712216
 30
0.0
 11
21.90834799397999
 21
-26.17995351905392
 31
0.0
  0
LINE
  5
57
330
2F
100
AcDbEntity
  8
-15N-THT. THIẾT BỊ ĐÓNG MỞ
100
AcDbLine
 10
22.01897500602354
 20
-26.86992551712319
 30
0.0
 11
21.9083480060217
 21
-26.86992551905405
 31
0.0
  0
LINE
  5
58
330
2F
100
AcDbEntity
  8
-15N-THT. THIẾT BỊ ĐÓNG MỞ
100
AcDbLine
 10
22.50014504007777
 20
-28.82112650872569
 30
0.0
 11
22.50014500872567
 21
-27.02495450872539
 31
0.0
  0
LINE
  5
59
330
2F
100
AcDbEntity
  8
-15N-THT. THIẾT BỊ ĐÓNG MỞ
100
AcDbLine
 10
22.50014499127428
 20
-26.02497050872535
 30
0.0
 11
22.50014495992582
 21
-24.22875150872551
 31
0.0
  0
LINE
  5
5A
330
2F
100
AcDbEntity
  8
-15N-THT. THIẾT BỊ ĐÓNG MỞ
100
AcDbLine
 10
23.50014499127428
 20
-26.02497049127123
 30
0.0
 11
23.50014495992582
 21
-24.2287514912714
 31
0.0
  0
CIRCLE
  5
5B
330
2F
100
AcDbEntity
  8
-15N-THT. THIẾT BỊ ĐÓNG MỞ
100
AcDbCircle
 10
23.00024414060317
 20
-26.52500905272609
 30
0.0
 40
3.599998
  0
LINE
  5
5C
330
2F
100
AcDbEntity
  8
-15N-THT. THIẾT BỊ ĐÓNG MỞ
100
AcDbLine
 10
23.50018699127395
 20
-26.02494749127163
 30
0.0
 11
23.98179399397486
 21
-26.17994648286549
 31
0.0
  0
LINE
  5
5D
330
2F
100
AcDbEntity
  8
-15N-THT. THIẾT BỊ ĐÓNG MỞ
100
AcDbLine
 10
23.50003204007589
 20
-28.82113649127404
 30
0.0
 11
23.50017000872686
 21
-27.02494849127106
 31
0.0
  0
LINE
  5
5E
330
2F
100
AcDbEntity
  8
-15N-THT. THIẾT BỊ ĐÓNG MỞ
100
AcDbLine
 10
22.50003100872709
 20
-27.02491750872559
 30
0.0
 11
19.43512600872782
 21
-27.02491756221935
 31
0.0
  0
LINE
  5
5F
330
2F
100
AcDbEntity
  8
-15N-THT. THIẾT BỊ ĐÓNG MỞ
100
AcDbLine
 10
23.50015300872838
 20
-27.0249324912711
 30
0.0
 11
26.56536000872802
 21
-27.02493243777281
 31
0.0
  0
ARC
  5
60
330
2F
100
AcDbEntity
  8
-15N-THT. THIẾT BỊ ĐÓNG MỞ
100
AcDbCircle
 10
8.5
 20
-26.52491750000172
 30
0.0
 40
2.349997999999998
100
AcDbArc
 50
77.71553199994342
 51
102.2845420000553
  0
ARC
  5
61
330
2F
100
AcDbEntity
  8
-15N-THT. THIẾT BỊ ĐÓNG MỞ
100
AcDbCircle
 10
8.5
 20
-26.52491750000172
 30
0.0
 40
2.349997999999998
100
AcDbArc
 50
257.7155950000099
 51
282.2844959999666
  0
LINE
  5
62
330
2F
100
AcDbEntity
  8
-15N-THT. THIẾT BỊ ĐÓNG MỞ
100
AcDbLine
 10
12.06533899126952
 20
-26.02495443777389
 30
0.0
 11
9.000159991275723
 21
-26.02495449127128
 31
0.0
  0
LINE
  5
63
330
2F
100
AcDbEntity
  8
-15N-THT. THIẾT BỊ ĐÓNG MỞ
100
AcDbLine
 10
8.000159991275723
 20
-26.02495450872357
 30
0.0
 11
4.93514899126967
 21
-26.02495456221914
 31
0.0
  0
ARC
  5
64
330
2F
100
AcDbEntity
  8
-15N-THT. THIẾT BỊ ĐÓNG MỞ
100
AcDbCircle
 10
8.500244140603172
 20
-26.52500905272609
 30
0.0
 40
1.040264999999998
100
AcDbArc
 50
70.64584899992322
 51
109.3830209999459
  0
ARC
  5
65
330
2F
100
AcDbEntity
  8
-15N-THT. THIẾT BỊ ĐÓNG MỞ
100
AcDbCircle
 10
8.500244140603172
 20
-26.52500905272609
 30
0.0
 40
1.040264999999998
100
AcDbArc
 50
250.6170619999672
 51
289.3542340000189
  0
LINE
  5
66
330
2F
100
AcDbEntity
  8
-15N-THT. THIẾT BỊ ĐÓNG MỞ
100
AcDbLine
 10
8.155171982871252
 20
-25.54354550601875
 30
0.0
 11
8.000165991274116
 21
-26.02494250872496
 31
0.0
  0
LINE
  5
67
330
2F
100
AcDbEntity
  8
-15N-THT. THIẾT BỊ ĐÓNG MỞ
100
AcDbLine
 10
8.000172008727532
 20
-27.02491550872401
 30
0.0
 11
8.15517901712883
 21
-27.50631250601964
 31
0.0
  0
LINE
  5
68
330
2F
100
AcDbEntity
  8
-15N-THT. THIẾT BỊ ĐÓNG MỞ
100
AcDbLine
 10
9.000165991274116
 20
-26.02491449127138
 30
0.0
 11
8.845166982871888
 21
-25.54351549397598
 31
0.0
  0
LINE
  5
69
330
2F
100
AcDbEntity
  8
-15N-THT. THIẾT BỊ ĐÓNG MỞ
100
AcDbLine
 10
9.000172008727532
 20
-27.02492849127157
 30
0.0
 11
8.845173017129127
 21
-27.50632849397607
 31
0.0
  0
ARC
  5
6A
330
2F
100
AcDbEntity
  8
-15N-THT. THIẾT BỊ ĐÓNG MỞ
100
AcDbCircle
 10
8.5
 20
-26.52491750000172
 30
0.0
 40
1.144997999999998
100
AcDbArc
 50
162.4637540000573
 51
197.5363929999864
  0
ARC
  5
6B
330
2F
100
AcDbEntity
  8
-15N-THT. THIẾT BỊ ĐÓNG MỞ
100
AcDbCircle
 10
8.5
 20
-26.52491750000172
 30
0.0
 40
1.144997999999998
100
AcDbArc
 50
342.4635990000082
 51
17.53618300000885
  0
LINE
  5
6C
330
2F
100
AcDbEntity
  8
-15N-THT. THIẾT BỊ ĐÓNG MỞ
100
AcDbLine
 10
8.000172991276486
 20
-26.02492750872352
 30
0.0
 11
7.519061993978539
 21
-26.1799265171212
 31
0.0
  0
LINE
  5
6D
330
2F
100
AcDbEntity
  8
-15N-THT. THIẾT BỊ ĐÓNG MỞ
100
AcDbLine
 10
8.00018900872601
 20
-27.02494950872369
 30
0.0
 11
7.519015006022527
 21
-26.86995051712165
 31
0.0
  0
LINE
  5
6E
330
2F
100
AcDbEntity
  8
-15N-THT. THIẾT BỊ ĐÓNG MỞ
100
AcDbLine
 10
9.000159008726769
 20
-27.02491449127137
 30
0.0
 11
9.481830006021482
 21
-26.86991448286517
 31
0.0
  0
LINE
  5
6F
330
2F
100
AcDbEntity
  8
-15N-THT. THIẾT BỊ ĐÓNG MỞ
100
AcDbLine
 10
9.591940993977914
 20
-26.17995348094246
 30
0.0
 11
9.481741993979085
 21
-26.17995348286604
 31
0.0
  0
LINE
  5
70
330
2F
100
AcDbEntity
  8
-15N-THT. THIẾT BỊ ĐÓNG MỞ
100
AcDbLine
 10
9.591941006023262
 20
-26.86992548094258
 30
0.0
 11
9.481803006023256
 21
-26.86992548286526
 31
0.0
  0
LINE
  5
71
330
2F
100
AcDbEntity
  8
-15N-THT. THIẾT BỊ ĐÓNG MỞ
100
AcDbLine
 10
7.519035993977013
 20
-26.17995351712216
 30
0.0
 11
7.408347993979987
 21
-26.17995351905392
 31
0.0
  0
LINE
  5
72
330
2F
100
AcDbEntity
  8
-15N-THT. THIẾT BỊ ĐÓNG MỞ
100
AcDbLine
 10
7.518975006023538
 20
-26.86992551712319
 30
0.0
 11
7.408348006021697
 21
-26.86992551905405
 31
0.0
  0
LINE
  5
73
330
2F
100
AcDbEntity
  8
-15N-THT. THIẾT BỊ ĐÓNG MỞ
100
AcDbLine
 10
8.000145040077768
 20
-28.82112650872569
 30
0.0
 11
8.000145008725667
 21
-27.02495450872539
 31
0.0
  0
LINE
  5
74
330
2F
100
AcDbEntity
  8
-15N-THT. THIẾT BỊ ĐÓNG MỞ
100
AcDbLine
 10
8.000144991274283
 20
-26.02497050872535
 30
0.0
 11
8.00014495992582
 21
-24.22875150872551
 31
0.0
  0
LINE
  5
75
330
2F
100
AcDbEntity
  8
-15N-THT. THIẾT BỊ ĐÓNG MỞ
100
AcDbLine
 10
9.000144991274283
 20
-26.02497049127123
 30
0.0
 11
9.00014495992582
 21
-24.2287514912714
 31
0.0
  0
CIRCLE
  5
76
330
2F
100
AcDbEntity
  8
-15N-THT. THIẾT BỊ ĐÓNG MỞ
100
AcDbCircle
 10
8.500244140603172
 20
-26.52500905272609
 30
0.0
 40
3.599998
  0
LINE
  5
77
330
2F
100
AcDbEntity
  8
-15N-THT. THIẾT BỊ ĐÓNG MỞ
100
AcDbLine
 10
9.00018699127395
 20
-26.02494749127163
 30
0.0
 11
9.481793993974861
 21
-26.17994648286549
 31
0.0
  0
LINE
  5
78
330
2F
100
AcDbEntity
  8
-15N-THT. THIẾT BỊ ĐÓNG MỞ
100
AcDbLine
 10
9.000032040075894
 20
-28.82113649127404
 30
0.0
 11
9.000170008726855
 21
-27.02494849127106
 31
0.0
  0
LINE
  5
79
330
2F
100
AcDbEntity
  8
-15N-THT. THIẾT BỊ ĐÓNG MỞ
100
AcDbLine
 10
8.000031008727092
 20
-27.02491750872559
 30
0.0
 11
4.93512600872782
 21
-27.02491756221935
 31
0.0
  0
LINE
  5
7A
330
2F
100
AcDbEntity
  8
-15N-THT. THIẾT BỊ ĐÓNG MỞ
100
AcDbLine
 10
9.000153008728375
 20
-27.0249324912711
 30
0.0
 11
12.06536000872802
 21
-27.02493243777281
 31
0.0
  0
ARC
  5
7B
330
2F
100
AcDbEntity
  8
-15N-THT. THIẾT BỊ ĐÓNG MỞ
100
AcDbCircle
 10
37.5
 20
-26.52491750000172
 30
0.0
 40
2.349997999999998
100
AcDbArc
 50
77.71553199994342
 51
102.2845420000553
  0
ARC
  5
7C
330
2F
100
AcDbEntity
  8
-15N-THT. THIẾT BỊ ĐÓNG MỞ
100
AcDbCircle
 10
37.5
 20
-26.52491750000172
 30
0.0
 40
2.349997999999998
100
AcDbArc
 50
257.7155950000099
 51
282.2844959999666
  0
LINE
  5
7D
330
2F
100
AcDbEntity
  8
-15N-THT. THIẾT BỊ ĐÓNG MỞ
100
AcDbLine
 10
41.06533899127316
 20
-26.02495443777389
 30
0.0
 11
38.00015999127572
 21
-26.02495449127128
 31
0.0
  0
LINE
  5
7E
330
2F
100
AcDbEntity
  8
-15N-THT. THIẾT BỊ ĐÓNG MỞ
100
AcDbLine
 10
37.00015999127572
 20
-26.02495450872357
 30
0.0
 11
33.93514899127331
 21
-26.02495456221914
 31
0.0
  0
ARC
  5
7F
330
2F
100
AcDbEntity
  8
-15N-THT. THIẾT BỊ ĐÓNG MỞ
100
AcDbCircle
 10
37.50024414060317
 20
-26.52500905272609
 30
0.0
 40
1.040264999999998
100
AcDbArc
 50
70.64584899992322
 51
109.3830209999459
  0
ARC
  5
80
330
2F
100
AcDbEntity
  8
-15N-THT. THIẾT BỊ ĐÓNG MỞ
100
AcDbCircle
 10
37.50024414060317
 20
-26.52500905272609
 30
0.0
 40
1.040264999999998
100
AcDbArc
 50
250.6170619999672
 51
289.3542340000189
  0
LINE
  5
81
330
2F
100
AcDbEntity
  8
-15N-THT. THIẾT BỊ ĐÓNG MỞ
100
AcDbLine
 10
37.15517198287126
 20
-25.54354550601875
 30
0.0
 11
37.00016599127412
 21
-26.02494250872496
 31
0.0
  0
LINE
  5
82
330
2F
100
AcDbEntity
  8
-15N-THT. THIẾT BỊ ĐÓNG MỞ
100
AcDbLine
 10
37.00017200872753
 20
-27.02491550872401
 30
0.0
 11
37.15517901712519
 21
-27.50631250601964
 31
0.0
  0
LINE
  5
83
330
2F
100
AcDbEntity
  8
-15N-THT. THIẾT BỊ ĐÓNG MỞ
100
AcDbLine
 10
38.00016599127412
 20
-26.02491449127138
 30
0.0
 11
37.84516698287189
 21
-25.54351549397598
 31
0.0
  0
LINE
  5
84
330
2F
100
AcDbEntity
  8
-15N-THT. THIẾT BỊ ĐÓNG MỞ
100
AcDbLine
 10
38.00017200872753
 20
-27.02492849127157
 30
0.0
 11
37.84517301712549
 21
-27.50632849397607
 31
0.0
  0
ARC
  5
85
330
2F
100
AcDbEntity
  8
-15N-THT. THIẾT BỊ ĐÓNG MỞ
100
AcDbCircle
 10
37.5
 20
-26.52491750000172
 30
0.0
 40
1.144997999999998
100
AcDbArc
 50
162.4637540000573
 51
197.5363929999864
  0
ARC
  5
86
330
2F
100
AcDbEntity
  8
-15N-THT. THIẾT BỊ ĐÓNG MỞ
100
AcDbCircle
 10
37.5
 20
-26.52491750000172
 30
0.0
 40
1.144997999999998
100
AcDbArc
 50
342.4635990000082
 51
17.53618300000885
  0
LINE
  5
87
330
2F
100
AcDbEntity
  8
-15N-THT. THIẾT BỊ ĐÓNG MỞ
100
AcDbLine
 10
37.00017299127285
 20
-26.02492750872352
 30
0.0
 11
36.51906199397854
 21
-26.1799265171212
 31
0.0
  0
LINE
  5
88
330
2F
100
AcDbEntity
  8
-15N-THT. THIẾT BỊ ĐÓNG MỞ
100
AcDbLine
 10
37.00018900872601
 20
-27.02494950872369
 30
0.0
 11
36.51901500602253
 21
-26.86995051712165
 31
0.0
  0
LINE
  5
89
330
2F
100
AcDbEntity
  8
-15N-THT. THIẾT BỊ ĐÓNG MỞ
100
AcDbLine
 10
38.00015900872677
 20
-27.02491449127137
 30
0.0
 11
38.48183000601784
 21
-26.86991448286517
 31
0.0
  0
LINE
  5
8A
330
2F
100
AcDbEntity
  8
-15N-THT. THIẾT BỊ ĐÓNG MỞ
100
AcDbLine
 10
38.59194099397792
 20
-26.17995348094246
 30
0.0
 11
38.48174199397909
 21
-26.17995348286604
 31
0.0
  0
LINE
  5
8B
330
2F
100
AcDbEntity
  8
-15N-THT. THIẾT BỊ ĐÓNG MỞ
100
AcDbLine
 10
38.59194100602326
 20
-26.86992548094258
 30
0.0
 11
38.48180300602326
 21
-26.86992548286526
 31
0.0
  0
LINE
  5
8C
330
2F
100
AcDbEntity
  8
-15N-THT. THIẾT BỊ ĐÓNG MỞ
100
AcDbLine
 10
36.51903599398065
 20
-26.17995351712216
 30
0.0
 11
36.40834799397999
 21
-26.17995351905392
 31
0.0
  0
LINE
  5
8D
330
2F
100
AcDbEntity
  8
-15N-THT. THIẾT BỊ ĐÓNG MỞ
100
AcDbLine
 10
36.51897500602354
 20
-26.86992551712319
 30
0.0
 11
36.40834800601806
 21
-26.86992551905405
 31
0.0
  0
LINE
  5
8E
330
2F
100
AcDbEntity
  8
-15N-THT. THIẾT BỊ ĐÓNG MỞ
100
AcDbLine
 10
37.00014504007777
 20
-28.82112650872569
 30
0.0
 11
37.00014500872567
 21
-27.02495450872539
 31
0.0
  0
LINE
  5
8F
330
2F
100
AcDbEntity
  8
-15N-THT. THIẾT BỊ ĐÓNG MỞ
100
AcDbLine
 10
37.00014499127429
 20
-26.02497050872535
 30
0.0
 11
37.00014495992582
 21
-24.22875150872551
 31
0.0
  0
LINE
  5
90
330
2F
100
AcDbEntity
  8
-15N-THT. THIẾT BỊ ĐÓNG MỞ
100
AcDbLine
 10
38.00014499127428
 20
-26.02497049127123
 30
0.0
 11
38.00014495992582
 21
-24.2287514912714
 31
0.0
  0
CIRCLE
  5
91
330
2F
100
AcDbEntity
  8
-15N-THT. THIẾT BỊ ĐÓNG MỞ
100
AcDbCircle
 10
37.50024414060317
 20
-26.52500905272609
 30
0.0
 40
3.599998
  0
LINE
  5
92
330
2F
100
AcDbEntity
  8
-15N-THT. THIẾT BỊ ĐÓNG MỞ
100
AcDbLine
 10
38.00018699127395
 20
-26.02494749127163
 30
0.0
 11
38.4817939939785
 21
-26.17994648286549
 31
0.0
  0
LINE
  5
93
330
2F
100
AcDbEntity
  8
-15N-THT. THIẾT BỊ ĐÓNG MỞ
100
AcDbLine
 10
38.0000320400759
 20
-28.82113649127404
 30
0.0
 11
38.00017000872685
 21
-27.02494849127106
 31
0.0
  0
LINE
  5
94
330
2F
100
AcDbEntity
  8
-15N-THT. THIẾT BỊ ĐÓNG MỞ
100
AcDbLine
 10
37.00003100872709
 20
-27.02491750872559
 30
0.0
 11
33.93512600872782
 21
-27.02491756221935
 31
0.0
  0
LINE
  5
95
330
2F
100
AcDbEntity
  8
-15N-THT. THIẾT BỊ ĐÓNG MỞ
100
AcDbLine
 10
38.00015300872838
 20
-27.0249324912711
 30
0.0
 11
41.06536000872802
 21
-27.02493243777281
 31
0.0
  0
CIRCLE
  5
96
330
2F
100
AcDbEntity
  8
-15N-THT. THIẾT BỊ ĐÓNG MỞ
100
AcDbCircle
 10
49.89978100000008
 20
-21.62495450000097
 30
0.0
 40
3.099997999999998
  0
ARC
  5
97
330
2F
100
AcDbEntity
  8
-15N-THT. THIẾT BỊ ĐÓNG MỞ
100
AcDbCircle
 10
49.89978100000008
 20
-21.62495450000097
 30
0.0
 40
2.349997999999998
100
AcDbArc
 50
257.7154860000694
 51
282.2844959999666
  0
LINE
  5
98
330
2F
100
AcDbEntity
  8
-15N-THT. THIẾT BỊ ĐÓNG MỞ
100
AcDbLine
 10
50.89981000872649
 20
-22.12500948254728
 30
0.0
 11
52.9592730087279
 21
-22.12500944660314
 31
0.0
  0
LINE
  5
99
330
2F
100
AcDbEntity
  8
-15N-THT. THIẾT BỊ ĐÓNG MỞ
100
AcDbLine
 10
50.89991499127427
 20
-21.1250104825449
 30
0.0
 11
52.95928799127432
 21
-21.12501044660257
 31
0.0
  0
LINE
  5
9A
330
2F
100
AcDbEntity
  8
-15N-THT. THIẾT BỊ ĐÓNG MỞ
100
AcDbLine
 10
46.84048700873245
 20
-22.1250095533951
 30
0.0
 11
48.89987300872963
 21
-22.12500951745187
 31
0.0
  0
LINE
  5
9B
330
2F
100
AcDbEntity
  8
-15N-THT. THIẾT BỊ ĐÓNG MỞ
100
AcDbLine
 10
46.84047099127565
 20
-21.12501055339635
 30
0.0
 11
48.90005599127471
 21
-21.12501051744948
 31
0.0
  0
ARC
  5
9C
330
2F
100
AcDbEntity
  8
-15N-THT. THIẾT BỊ ĐÓNG MỞ
100
AcDbCircle
 10
49.90002514059961
 20
-21.62486294726568
 30
0.0
 40
1.040265999999999
100
AcDbArc
 50
241.262789999979
 51
298.7142699999748
  0
ARC
  5
9D
330
2F
100
AcDbEntity
  8
-15N-THT. THIẾT BỊ ĐÓNG MỞ
100
AcDbCircle
 10
49.90002514059961
 20
-21.62486294726568
 30
0.0
 40
1.040265999999999
100
AcDbArc
 50
61.27930999999446
 51
118.7257909999861
  0
ARC
  5
9E
330
2F
100
AcDbEntity
  8
-15N-THT. THIẾT BỊ ĐÓNG MỞ
100
AcDbCircle
 10
49.89978100000008
 20
-21.62495450000097
 30
0.0
 40
1.144998999999998
100
AcDbArc
 50
154.1107609999814
 51
205.8954520000017
  0
ARC
  5
9F
330
2F
100
AcDbEntity
  8
-15N-THT. THIẾT BỊ ĐÓNG MỞ
100
AcDbCircle
 10
49.89978100000008
 20
-21.62495450000097
 30
0.0
 40
1.144998999999998
100
AcDbArc
 50
334.1045399999864
 51
25.88923099995016
  0
LINE
  5
A0
330
2F
100
AcDbEntity
  8
-15N-THT. THIẾT BỊ ĐÓNG MỞ
100
AcDbLine
 10
49.39987204007775
 20
-23.92121250872515
 30
0.0
 11
49.39987201798067
 21
-22.65505550872604
 31
0.0
  0
LINE
  5
A1
330
2F
100
AcDbEntity
  8
-15N-THT. THIẾT BỊ ĐÓNG MỞ
100
AcDbLine
 10
50.39980404007656
 20
-23.92118049127384
 30
0.0
 11
50.39981201745468
 21
-22.62500549127344
 31
0.0
  0
ARC
  5
A2
330
2F
100
AcDbEntity
  8
-15N-THT. THIẾT BỊ ĐÓNG MỞ
100
AcDbCircle
 10
49.89981151758184
 20
-21.62498501758
 30
0.0
 40
2.349997999999998
100
AcDbArc
 50
77.71427500002666
 51
102.2832850000279
  0
LINE
  5
A3
330
2F
100
AcDbEntity
  8
-15N-THT. THIẾT BỊ ĐÓNG MỞ
100
AcDbLine
 10
49.4000559825472
 20
-20.62502150872206
 30
0.0
 11
49.40008395992117
 21
-19.32876850872253
 31
0.0
  0
LINE
  5
A4
330
2F
100
AcDbEntity
  8
-15N-THT. THIẾT BỊ ĐÓNG MỞ
100
AcDbLine
 10
50.39991698254744
 20
-20.62500249127243
 30
0.0
 11
50.39993595992564
 21
-19.32881249127149
 31
0.0
  0
ARC
  5
A5
330
2F
100
AcDbEntity
  8
-15N-THT. THIẾT BỊ ĐÓNG MỞ
100
AcDbCircle
 10
48.9000559825472
 20
-20.62500951744914
 30
0.0
 40
0.5
100
AcDbArc
 50
270.0000180000122
 51
359.9987709999752
  0
ARC
  5
A6
330
2F
100
AcDbEntity
  8
-15N-THT. THIẾT BỊ ĐÓNG MỞ
100
AcDbCircle
 10
48.8998720174568
 20
-22.62500951745187
 30
0.0
 40
0.5
100
AcDbArc
 50
2.800001324e-05
 51
89.99996899994999
  0
ARC
  5
A7
330
2F
100
AcDbEntity
  8
-15N-THT. THIẾT BỊ ĐÓNG MỞ
100
AcDbCircle
 10
50.89981201745468
 20
-22.62500948254729
 30
0.0
 40
0.5
100
AcDbArc
 50
90.00003700001935
 51
179.9996359999842
  0
ARC
  5
A8
330
2F
100
AcDbEntity
  8
-15N-THT. THIẾT BỊ ĐÓNG MỞ
100
AcDbCircle
 10
50.8999159825471
 20
-20.62500948254546
 30
0.0
 40
0.5
100
AcDbArc
 50
179.9991989999766
 51
269.9999929205156
  0
ARC
  5
A9
330
2F
100
AcDbEntity
  8
-15N-THT. THIẾT BỊ ĐÓNG MỞ
100
AcDbCircle
 10
23.0
 20
24.27497849999872
 30
0.0
 40
2.349997999999998
100
AcDbArc
 50
257.7154620000156
 51
282.2844720000146
  0
ARC
  5
AA
330
2F
100
AcDbEntity
  8
-15N-THT. THIẾT BỊ ĐÓNG MỞ
100
AcDbCircle
 10
23.0
 20
24.27497849999872
 30
0.0
 40
2.349997999999998
100
AcDbArc
 50
77.71550799999146
 51
102.28440900005
  0
LINE
  5
AB
330
2F
100
AcDbEntity
  8
-15N-THT. THIẾT BỊ ĐÓNG MỞ
100
AcDbLine
 10
26.56533902617957
 20
23.77501568667958
 30
0.0
 11
23.50016002617849
 21
23.77501552618833
 31
0.0
  0
LINE
  5
AC
330
2F
100
AcDbEntity
  8
-15N-THT. THIẾT BỊ ĐÓNG MỞ
100
AcDbLine
 10
22.50016002617849
 20
23.77501547382781
 30
0.0
 11
19.43514902617971
 21
23.77501531334383
 31
0.0
  0
ARC
  5
AD
330
2F
100
AcDbEntity
  8
-15N-THT. THIẾT BỊ ĐÓNG MỞ
100
AcDbCircle
 10
23.0002441405959
 20
24.2750700527422
 30
0.0
 40
1.040264999999998
100
AcDbArc
 50
250.6169829999473
 51
289.3541550000361
  0
ARC
  5
AE
330
2F
100
AcDbEntity
  8
-15N-THT. THIẾT BỊ ĐÓNG MỞ
100
AcDbCircle
 10
23.0002441405959
 20
24.2750700527422
 30
0.0
 40
1.040264999999998
100
AcDbArc
 50
70.64577000007328
 51
109.3829419999432
  0
LINE
  5
AF
330
2F
100
AcDbEntity
  8
-15N-THT. THIẾT BỊ ĐÓNG MỞ
100
AcDbLine
 10
22.65517205138531
 20
23.29360648194324
 30
0.0
 11
22.50016602617689
 21
23.77500347382829
 31
0.0
  0
LINE
  5
B0
330
2F
100
AcDbEntity
  8
-15N-THT. THIẾT BỊ ĐÓNG MỞ
100
AcDbLine
 10
22.50017197382113
 20
24.77497647382825
 30
0.0
 11
22.65517894861478
 21
25.25637348194505
 31
0.0
  0
LINE
  5
B1
330
2F
100
AcDbEntity
  8
-15N-THT. THIẾT BỊ ĐÓNG MỞ
100
AcDbLine
 10
23.50016602618052
 20
23.77497552618752
 30
0.0
 11
23.34516705138594
 21
23.29357651807186
 31
0.0
  0
LINE
  5
B2
330
2F
100
AcDbEntity
  8
-15N-THT. THIẾT BỊ ĐÓNG MỞ
100
AcDbLine
 10
23.50017197382113
 20
24.77498952618771
 30
0.0
 11
23.34517294861507
 21
25.25638951807195
 31
0.0
  0
ARC
  5
B3
330
2F
100
AcDbEntity
  8
-15N-THT. THIẾT BỊ ĐÓNG MỞ
100
AcDbCircle
 10
23.0
 20
24.27497849999872
 30
0.0
 40
1.144997999999998
100
AcDbArc
 50
162.4636110000006
 51
197.5362500000108
  0
ARC
  5
B4
330
2F
100
AcDbEntity
  8
-15N-THT. THIẾT BỊ ĐÓNG MỞ
100
AcDbCircle
 10
23.0
 20
24.27497849999872
 30
0.0
 40
1.144997999999998
100
AcDbArc
 50
342.4638209999782
 51
17.53640499997889
  0
LINE
  5
B5
330
2F
100
AcDbEntity
  8
-15N-THT. THIẾT BỊ ĐÓNG MỞ
100
AcDbLine
 10
22.50017302617925
 20
23.77498847382867
 30
0.0
 11
22.01906201806196
 21
23.9299874486378
 31
0.0
  0
LINE
  5
B6
330
2F
100
AcDbEntity
  8
-15N-THT. THIẾT BỊ ĐÓNG MỞ
100
AcDbLine
 10
22.50018897381961
 20
24.77501047382884
 30
0.0
 11
22.01901498193547
 21
24.62001144863461
 31
0.0
  0
LINE
  5
B7
330
2F
100
AcDbEntity
  8
-15N-THT. THIẾT BỊ ĐÓNG MỞ
100
AcDbLine
 10
23.50015897382036
 20
24.77497552618661
 30
0.0
 11
23.98182998193442
 21
24.61997555140806
 31
0.0
  0
LINE
  5
B8
330
2F
100
AcDbEntity
  8
-15N-THT. THIẾT BỊ ĐÓNG MỞ
100
AcDbLine
 10
24.09194101806497
 20
23.93001455717331
 30
0.0
 11
23.9817420180625
 21
23.93001455140348
 31
0.0
  0
LINE
  5
B9
330
2F
100
AcDbEntity
  8
-15N-THT. THIẾT BỊ ĐÓNG MỞ
100
AcDbLine
 10
24.09194098193621
 20
24.61998655717343
 30
0.0
 11
23.9818029819362
 21
24.61998655140724
 31
0.0
  0
LINE
  5
BA
330
2F
100
AcDbEntity
  8
-15N-THT. THIẾT BỊ ĐÓNG MỞ
100
AcDbLine
 10
22.01903601806407
 20
23.93001444863603
 30
0.0
 11
21.90834801806341
 21
23.93001444283982
 31
0.0
  0
LINE
  5
BB
330
2F
100
AcDbEntity
  8
-15N-THT. THIẾT BỊ ĐÓNG MỞ
100
AcDbLine
 10
22.01897498193648
 20
24.61998644863252
 30
0.0
 11
21.90834798193464
 21
24.61998644284085
 31
0.0
  0
LINE
  5
BC
330
2F
100
AcDbEntity
  8
-15N-THT. THIẾT BỊ ĐÓNG MỞ
100
AcDbLine
 10
22.50014487977023
 20
26.5711874738272
 30
0.0
 11
22.50014497381926
 21
24.7750154738269
 31
0.0
  0
LINE
  5
BD
330
2F
100
AcDbEntity
  8
-15N-THT. THIẾT BỊ ĐÓNG MỞ
100
AcDbLine
 10
22.50014502617705
 20
23.77503147382686
 30
0.0
 11
22.50014512022608
 21
21.97881247382702
 31
0.0
  0
LINE
  5
BE
330
2F
100
AcDbEntity
  8
-15N-THT. THIẾT BỊ ĐÓNG MỞ
100
AcDbLine
 10
23.50014502617341
 20
23.77503152618647
 30
0.0
 11
23.50014512022608
 21
21.97881252618663
 31
0.0
  0
CIRCLE
  5
BF
330
2F
100
AcDbEntity
  8
-15N-THT. THIẾT BỊ ĐÓNG MỞ
100
AcDbCircle
 10
23.0002441405959
 20
24.2750700527422
 30
0.0
 40
3.599998
  0
LINE
  5
C0
330
2F
100
AcDbEntity
  8
-15N-THT. THIẾT BỊ ĐÓNG MỞ
100
AcDbLine
 10
23.50018702617672
 20
23.77500852618959
 30
0.0
 11
23.98179401806192
 21
23.93000755140565
 31
0.0
  0
LINE
  5
C1
330
2F
100
AcDbEntity
  8
-15N-THT. THIẾT BỊ ĐÓNG MỞ
100
AcDbLine
 10
23.500031879772
 20
26.5711975261811
 30
0.0
 11
23.50016997382045
 21
24.77500952618811
 31
0.0
  0
LINE
  5
C2
330
2F
100
AcDbEntity
  8
-15N-THT. THIẾT BỊ ĐÓNG MỞ
100
AcDbLine
 10
22.50003097381705
 20
24.77497847382074
 30
0.0
 11
19.43512597382141
 21
24.77497831334313
 31
0.0
  0
LINE
  5
C3
330
2F
100
AcDbEntity
  8
-15N-THT. THIẾT BỊ ĐÓNG MỞ
100
AcDbLine
 10
23.50015297382197
 20
24.77499352618634
 30
0.0
 11
26.56535997381798
 21
24.77499368668214
 31
0.0
  0
ARC
  5
C4
330
2F
100
AcDbEntity
  8
-15N-THT. THIẾT BỊ ĐÓNG MỞ
100
AcDbCircle
 10
8.5
 20
24.27497849999872
 30
0.0
 40
2.349997999999998
100
AcDbArc
 50
257.7154620000156
 51
282.2844720000146
  0
ARC
  5
C5
330
2F
100
AcDbEntity
  8
-15N-THT. THIẾT BỊ ĐÓNG MỞ
100
AcDbCircle
 10
8.5
 20
24.27497849999872
 30
0.0
 40
2.349997999999998
100
AcDbArc
 50
77.71550799999146
 51
102.28440900005
  0
LINE
  5
C6
330
2F
100
AcDbEntity
  8
-15N-THT. THIẾT BỊ ĐÓNG MỞ
100
AcDbLine
 10
12.06533902617957
 20
23.77501568667958
 30
0.0
 11
9.000160026178492
 21
23.77501552618833
 31
0.0
  0
LINE
  5
C7
330
2F
100
AcDbEntity
  8
-15N-THT. THIẾT BỊ ĐÓNG MỞ
100
AcDbLine
 10
8.000160026178492
 20
23.77501547382781
 30
0.0
 11
4.935149026179715
 21
23.77501531334383
 31
0.0
  0
ARC
  5
C8
330
2F
100
AcDbEntity
  8
-15N-THT. THIẾT BỊ ĐÓNG MỞ
100
AcDbCircle
 10
8.500244140595896
 20
24.2750700527422
 30
0.0
 40
1.040264999999998
100
AcDbArc
 50
250.6169829999473
 51
289.3541550000361
  0
ARC
  5
C9
330
2F
100
AcDbEntity
  8
-15N-THT. THIẾT BỊ ĐÓNG MỞ
100
AcDbCircle
 10
8.500244140595896
 20
24.2750700527422
 30
0.0
 40
1.040264999999998
100
AcDbArc
 50
70.64577000007328
 51
109.3829419999432
  0
LINE
  5
CA
330
2F
100
AcDbEntity
  8
-15N-THT. THIẾT BỊ ĐÓNG MỞ
100
AcDbLine
 10
8.155172051385305
 20
23.29360648194324
 30
0.0
 11
8.000166026176885
 21
23.77500347382829
 31
0.0
  0
LINE
  5
CB
330
2F
100
AcDbEntity
  8
-15N-THT. THIẾT BỊ ĐÓNG MỞ
100
AcDbLine
 10
8.000171973821123
 20
24.77497647382825
 30
0.0
 11
8.155178948614775
 21
25.25637348194505
 31
0.0
  0
LINE
  5
CC
330
2F
100
AcDbEntity
  8
-15N-THT. THIẾT BỊ ĐÓNG MỞ
100
AcDbLine
 10
9.000166026176885
 20
23.77497552618752
 30
0.0
 11
8.845167051385943
 21
23.29357651807186
 31
0.0
  0
LINE
  5
CD
330
2F
100
AcDbEntity
  8
-15N-THT. THIẾT BỊ ĐÓNG MỞ
100
AcDbLine
 10
9.000171973817487
 20
24.77498952618771
 30
0.0
 11
8.845172948615073
 21
25.25638951807195
 31
0.0
  0
ARC
  5
CE
330
2F
100
AcDbEntity
  8
-15N-THT. THIẾT BỊ ĐÓNG MỞ
100
AcDbCircle
 10
8.5
 20
24.27497849999872
 30
0.0
 40
1.144997999999998
100
AcDbArc
 50
162.4636110000006
 51
197.5362500000108
  0
ARC
  5
CF
330
2F
100
AcDbEntity
  8
-15N-THT. THIẾT BỊ ĐÓNG MỞ
100
AcDbCircle
 10
8.5
 20
24.27497849999872
 30
0.0
 40
1.144997999999998
100
AcDbArc
 50
342.4638209999782
 51
17.53640499997889
  0
LINE
  5
D0
330
2F
100
AcDbEntity
  8
-15N-THT. THIẾT BỊ ĐÓNG MỞ
100
AcDbLine
 10
8.000173026179255
 20
23.77498847382867
 30
0.0
 11
7.519062018061958
 21
23.9299874486378
 31
0.0
  0
LINE
  5
D1
330
2F
100
AcDbEntity
  8
-15N-THT. THIẾT BỊ ĐÓNG MỞ
100
AcDbLine
 10
8.000188973819604
 20
24.77501047382884
 30
0.0
 11
7.51901498193547
 21
24.62001144863461
 31
0.0
  0
LINE
  5
D2
330
2F
100
AcDbEntity
  8
-15N-THT. THIẾT BỊ ĐÓNG MỞ
100
AcDbLine
 10
9.000158973820362
 20
24.77497552618661
 30
0.0
 11
9.481829981938063
 21
24.61997555140806
 31
0.0
  0
LINE
  5
D3
330
2F
100
AcDbEntity
  8
-15N-THT. THIẾT BỊ ĐÓNG MỞ
100
AcDbLine
 10
9.591941018064972
 20
23.93001455717331
 30
0.0
 11
9.481742018062503
 21
23.93001455140348
 31
0.0
  0
LINE
  5
D4
330
2F
100
AcDbEntity
  8
-15N-THT. THIẾT BỊ ĐÓNG MỞ
100
AcDbLine
 10
9.591940981936204
 20
24.61998655717343
 30
0.0
 11
9.481802981936198
 21
24.61998655140724
 31
0.0
  0
LINE
  5
D5
330
2F
100
AcDbEntity
  8
-15N-THT. THIẾT BỊ ĐÓNG MỞ
100
AcDbLine
 10
7.51903601806407
 20
23.93001444863603
 30
0.0
 11
7.408348018063406
 21
23.93001444283982
 31
0.0
  0
LINE
  5
D6
330
2F
100
AcDbEntity
  8
-15N-THT. THIẾT BỊ ĐÓNG MỞ
100
AcDbLine
 10
7.51897498193648
 20
24.61998644863252
 30
0.0
 11
7.408347981934639
 21
24.61998644284085
 31
0.0
  0
LINE
  5
D7
330
2F
100
AcDbEntity
  8
-15N-THT. THIẾT BỊ ĐÓNG MỞ
100
AcDbLine
 10
8.000144879770232
 20
26.5711874738272
 30
0.0
 11
8.00014497381926
 21
24.7750154738269
 31
0.0
  0
LINE
  5
D8
330
2F
100
AcDbEntity
  8
-15N-THT. THIẾT BỊ ĐÓNG MỞ
100
AcDbLine
 10
8.000145026177051
 20
23.77503147382686
 30
0.0
 11
8.00014512022608
 21
21.97881247382702
 31
0.0
  0
LINE
  5
D9
330
2F
100
AcDbEntity
  8
-15N-THT. THIẾT BỊ ĐÓNG MỞ
100
AcDbLine
 10
9.000145026177051
 20
23.77503152618647
 30
0.0
 11
9.00014512022608
 21
21.97881252618663
 31
0.0
  0
CIRCLE
  5
DA
330
2F
100
AcDbEntity
  8
-15N-THT. THIẾT BỊ ĐÓNG MỞ
100
AcDbCircle
 10
8.500244140595896
 20
24.2750700527422
 30
0.0
 40
3.599998
  0
LINE
  5
DB
330
2F
100
AcDbEntity
  8
-15N-THT. THIẾT BỊ ĐÓNG MỞ
100
AcDbLine
 10
9.000187026176718
 20
23.77500852618959
 30
0.0
 11
9.481794018061917
 21
23.93000755140565
 31
0.0
  0
LINE
  5
DC
330
2F
100
AcDbEntity
  8
-15N-THT. THIẾT BỊ ĐÓNG MỞ
100
AcDbLine
 10
9.000031879771996
 20
26.5711975261811
 30
0.0
 11
9.000169973820446
 21
24.77500952618811
 31
0.0
  0
LINE
  5
DD
330
2F
100
AcDbEntity
  8
-15N-THT. THIẾT BỊ ĐÓNG MỞ
100
AcDbLine
 10
8.000030973817047
 20
24.77497847382074
 30
0.0
 11
4.935125973821413
 21
24.77497831334313
 31
0.0
  0
LINE
  5
DE
330
2F
100
AcDbEntity
  8
-15N-THT. THIẾT BỊ ĐÓNG MỞ
100
AcDbLine
 10
9.00015297381833
 20
24.77499352618634
 30
0.0
 11
12.06535997381797
 21
24.77499368668214
 31
0.0
  0
ARC
  5
DF
330
2F
100
AcDbEntity
  8
-15N-THT. THIẾT BỊ ĐÓNG MỞ
100
AcDbCircle
 10
37.5
 20
24.27497849999872
 30
0.0
 40
2.349997999999998
100
AcDbArc
 50
257.7154620000156
 51
282.2844720000146
  0
ARC
  5
E0
330
2F
100
AcDbEntity
  8
-15N-THT. THIẾT BỊ ĐÓNG MỞ
100
AcDbCircle
 10
37.5
 20
24.27497849999872
 30
0.0
 40
2.349997999999998
100
AcDbArc
 50
77.71550799999146
 51
102.28440900005
  0
LINE
  5
E1
330
2F
100
AcDbEntity
  8
-15N-THT. THIẾT BỊ ĐÓNG MỞ
100
AcDbLine
 10
41.06533902617957
 20
23.77501568667958
 30
0.0
 11
38.00016002617849
 21
23.77501552618833
 31
0.0
  0
LINE
  5
E2
330
2F
100
AcDbEntity
  8
-15N-THT. THIẾT BỊ ĐÓNG MỞ
100
AcDbLine
 10
37.00016002617849
 20
23.77501547382781
 30
0.0
 11
33.93514902617972
 21
23.77501531334383
 31
0.0
  0
ARC
  5
E3
330
2F
100
AcDbEntity
  8
-15N-THT. THIẾT BỊ ĐÓNG MỞ
100
AcDbCircle
 10
37.5002441405959
 20
24.2750700527422
 30
0.0
 40
1.040264999999998
100
AcDbArc
 50
250.6169829999473
 51
289.3541550000361
  0
ARC
  5
E4
330
2F
100
AcDbEntity
  8
-15N-THT. THIẾT BỊ ĐÓNG MỞ
100
AcDbCircle
 10
37.5002441405959
 20
24.2750700527422
 30
0.0
 40
1.040264999999998
100
AcDbArc
 50
70.64577000007328
 51
109.3829419999432
  0
LINE
  5
E5
330
2F
100
AcDbEntity
  8
-15N-THT. THIẾT BỊ ĐÓNG MỞ
100
AcDbLine
 10
37.15517205138531
 20
23.29360648194324
 30
0.0
 11
37.00016602617689
 21
23.77500347382829
 31
0.0
  0
LINE
  5
E6
330
2F
100
AcDbEntity
  8
-15N-THT. THIẾT BỊ ĐÓNG MỞ
100
AcDbLine
 10
37.00017197382113
 20
24.77497647382825
 30
0.0
 11
37.15517894861477
 21
25.25637348194505
 31
0.0
  0
LINE
  5
E7
330
2F
100
AcDbEntity
  8
-15N-THT. THIẾT BỊ ĐÓNG MỞ
100
AcDbLine
 10
38.00016602617688
 20
23.77497552618752
 30
0.0
 11
37.84516705138595
 21
23.29357651807186
 31
0.0
  0
LINE
  5
E8
330
2F
100
AcDbEntity
  8
-15N-THT. THIẾT BỊ ĐÓNG MỞ
100
AcDbLine
 10
38.00017197381749
 20
24.77498952618771
 30
0.0
 11
37.84517294861507
 21
25.25638951807195
 31
0.0
  0
ARC
  5
E9
330
2F
100
AcDbEntity
  8
-15N-THT. THIẾT BỊ ĐÓNG MỞ
100
AcDbCircle
 10
37.5
 20
24.27497849999872
 30
0.0
 40
1.144997999999998
100
AcDbArc
 50
162.4636110000006
 51
197.5362500000108
  0
ARC
  5
EA
330
2F
100
AcDbEntity
  8
-15N-THT. THIẾT BỊ ĐÓNG MỞ
100
AcDbCircle
 10
37.5
 20
24.27497849999872
 30
0.0
 40
1.144997999999998
100
AcDbArc
 50
342.4638209999782
 51
17.53640499997889
  0
LINE
  5
EB
330
2F
100
AcDbEntity
  8
-15N-THT. THIẾT BỊ ĐÓNG MỞ
100
AcDbLine
 10
37.00017302617926
 20
23.77498847382867
 30
0.0
 11
36.51906201806196
 21
23.9299874486378
 31
0.0
  0
LINE
  5
EC
330
2F
100
AcDbEntity
  8
-15N-THT. THIẾT BỊ ĐÓNG MỞ
100
AcDbLine
 10
37.00018897381961
 20
24.77501047382884
 30
0.0
 11
36.51901498193547
 21
24.62001144863461
 31
0.0
  0
LINE
  5
ED
330
2F
100
AcDbEntity
  8
-15N-THT. THIẾT BỊ ĐÓNG MỞ
100
AcDbLine
 10
38.00015897382036
 20
24.77497552618661
 30
0.0
 11
38.48182998193443
 21
24.61997555140806
 31
0.0
  0
LINE
  5
EE
330
2F
100
AcDbEntity
  8
-15N-THT. THIẾT BỊ ĐÓNG MỞ
100
AcDbLine
 10
38.59194101806497
 20
23.93001455717331
 30
0.0
 11
38.48174201806251
 21
23.93001455140348
 31
0.0
  0
LINE
  5
EF
330
2F
100
AcDbEntity
  8
-15N-THT. THIẾT BỊ ĐÓNG MỞ
100
AcDbLine
 10
38.59194098193621
 20
24.61998655717343
 30
0.0
 11
38.4818029819362
 21
24.61998655140724
 31
0.0
  0
LINE
  5
F0
330
2F
100
AcDbEntity
  8
-15N-THT. THIẾT BỊ ĐÓNG MỞ
100
AcDbLine
 10
36.51903601806407
 20
23.93001444863603
 30
0.0
 11
36.40834801806341
 21
23.93001444283982
 31
0.0
  0
LINE
  5
F1
330
2F
100
AcDbEntity
  8
-15N-THT. THIẾT BỊ ĐÓNG MỞ
100
AcDbLine
 10
36.51897498193648
 20
24.61998644863252
 30
0.0
 11
36.40834798193464
 21
24.61998644284085
 31
0.0
  0
LINE
  5
F2
330
2F
100
AcDbEntity
  8
-15N-THT. THIẾT BỊ ĐÓNG MỞ
100
AcDbLine
 10
37.00014487977024
 20
26.5711874738272
 30
0.0
 11
37.00014497381926
 21
24.7750154738269
 31
0.0
  0
LINE
  5
F3
330
2F
100
AcDbEntity
  8
-15N-THT. THIẾT BỊ ĐÓNG MỞ
100
AcDbLine
 10
37.00014502617705
 20
23.77503147382686
 30
0.0
 11
37.00014512022608
 21
21.97881247382702
 31
0.0
  0
LINE
  5
F4
330
2F
100
AcDbEntity
  8
-15N-THT. THIẾT BỊ ĐÓNG MỞ
100
AcDbLine
 10
38.00014502617342
 20
23.77503152618647
 30
0.0
 11
38.00014512022608
 21
21.97881252618663
 31
0.0
  0
CIRCLE
  5
F5
330
2F
100
AcDbEntity
  8
-15N-THT. THIẾT BỊ ĐÓNG MỞ
100
AcDbCircle
 10
37.5002441405959
 20
24.2750700527422
 30
0.0
 40
3.599998
  0
LINE
  5
F6
330
2F
100
AcDbEntity
  8
-15N-THT. THIẾT BỊ ĐÓNG MỞ
100
AcDbLine
 10
38.00018702617672
 20
23.77500852618959
 30
0.0
 11
38.48179401806192
 21
23.93000755140565
 31
0.0
  0
LINE
  5
F7
330
2F
100
AcDbEntity
  8
-15N-THT. THIẾT BỊ ĐÓNG MỞ
100
AcDbLine
 10
38.000031879772
 20
26.5711975261811
 30
0.0
 11
38.00016997382045
 21
24.77500952618811
 31
0.0
  0
LINE
  5
F8
330
2F
100
AcDbEntity
  8
-15N-THT. THIẾT BỊ ĐÓNG MỞ
100
AcDbLine
 10
37.00003097382432
 20
24.77497847382074
 30
0.0
 11
33.93512597382141
 21
24.77497831334313
 31
0.0
  0
LINE
  5
F9
330
2F
100
AcDbEntity
  8
-15N-THT. THIẾT BỊ ĐÓNG MỞ
100
AcDbLine
 10
38.00015297381833
 20
24.77499352618634
 30
0.0
 11
41.06535997381797
 21
24.77499368668214
 31
0.0
  0
CIRCLE
  5
FA
330
2F
100
AcDbEntity
  8
-15N-THT. THIẾT BỊ ĐÓNG MỞ
100
AcDbCircle
 10
49.89978100000008
 20
19.37501549999888
 30
0.0
 40
3.099997999999998
  0
ARC
  5
FB
330
2F
100
AcDbEntity
  8
-15N-THT. THIẾT BỊ ĐÓNG MỞ
100
AcDbCircle
 10
49.89978100000008
 20
19.37501549999888
 30
0.0
 40
2.349997999999998
100
AcDbArc
 50
77.71550799999146
 51
102.2845179999904
  0
LINE
  5
FC
330
2F
100
AcDbEntity
  8
-15N-THT. THIẾT BỊ ĐÓNG MỞ
100
AcDbLine
 10
50.89980997381644
 20
19.87507055236074
 30
0.0
 11
52.95927297381786
 21
19.87507066019407
 31
0.0
  0
LINE
  5
FD
330
2F
100
AcDbEntity
  8
-15N-THT. THIẾT BỊ ĐÓNG MỞ
100
AcDbLine
 10
50.89991502617704
 20
18.87507155236562
 30
0.0
 11
52.95928802617709
 21
18.87507166019441
 31
0.0
  0
LINE
  5
FE
330
2F
100
AcDbEntity
  8
-15N-THT. THIẾT BỊ ĐÓNG MỞ
100
AcDbLine
 10
46.84048697381877
 20
19.87507033981455
 30
0.0
 11
48.89987297381958
 21
19.87507044764334
 31
0.0
  0
LINE
  5
FF
330
2F
100
AcDbEntity
  8
-15N-THT. THIẾT BỊ ĐÓNG MỞ
100
AcDbLine
 10
46.84047102617841
 20
18.87507133981398
 30
0.0
 11
48.90005602617748
 21
18.87507144765368
 31
0.0
  0
ARC
  5
100
330
2F
100
AcDbEntity
  8
-15N-THT. THIẾT BỊ ĐÓNG MỞ
100
AcDbCircle
 10
49.90002514060325
 20
19.37492394728178
 30
0.0
 40
1.040265999999999
100
AcDbArc
 50
61.28573399998624
 51
118.7372140000184
  0
ARC
  5
101
330
2F
100
AcDbEntity
  8
-15N-THT. THIẾT BỊ ĐÓNG MỞ
100
AcDbCircle
 10
49.90002514060325
 20
19.37492394728178
 30
0.0
 40
1.040265999999999
100
AcDbArc
 50
241.2742130000263
 51
298.7206939999841
  0
ARC
  5
102
330
2F
100
AcDbEntity
  8
-15N-THT. THIẾT BỊ ĐÓNG MỞ
100
AcDbCircle
 10
49.89978100000008
 20
19.37501549999888
 30
0.0
 40
1.144998999999998
100
AcDbArc
 50
154.1045520000042
 51
205.88924300003
  0
ARC
  5
103
330
2F
100
AcDbEntity
  8
-15N-THT. THIẾT BỊ ĐÓNG MỞ
100
AcDbCircle
 10
49.89978100000008
 20
19.37501549999888
 30
0.0
 40
1.144998999999998
100
AcDbArc
 50
334.1107730000144
 51
25.89546400001963
  0
LINE
  5
104
330
2F
100
AcDbEntity
  8
-15N-THT. THIẾT BỊ ĐÓNG MỞ
100
AcDbLine
 10
49.39987187976658
 20
21.67127347382393
 30
0.0
 11
49.3998719460651
 21
20.40511647382391
 31
0.0
  0
LINE
  5
105
330
2F
100
AcDbEntity
  8
-15N-THT. THIẾT BỊ ĐÓNG MỞ
100
AcDbLine
 10
50.39980387976902
 20
21.67124152618089
 30
0.0
 11
50.39981194763822
 21
20.37506652618049
 31
0.0
  0
ARC
  5
106
330
2F
100
AcDbEntity
  8
-15N-THT. THIẾT BỊ ĐÓNG MỞ
100
AcDbCircle
 10
49.89981151757456
 20
19.37504601758064
 30
0.0
 40
2.349997999999998
100
AcDbArc
 50
257.7167190000208
 51
282.2857290000554
  0
LINE
  5
107
330
2F
100
AcDbEntity
  8
-15N-THT. THIẾT BỊ ĐÓNG MỞ
100
AcDbLine
 10
49.40005605235637
 20
18.37508247383357
 30
0.0
 11
49.40008412022871
 21
17.07882947383495
 31
0.0
  0
LINE
  5
108
330
2F
100
AcDbEntity
  8
-15N-THT. THIẾT BỊ ĐÓNG MỞ
100
AcDbLine
 10
50.39991705235661
 20
18.37506352618584
 30
0.0
 11
50.3999361202259
 21
17.07887352618763
 31
0.0
  0
ARC
  5
109
330
2F
100
AcDbEntity
  8
-15N-THT. THIẾT BỊ ĐÓNG MỞ
100
AcDbCircle
 10
48.90005605235637
 20
18.37507044765425
 30
0.0
 40
0.5
100
AcDbArc
 50
0.0012330000043337
 51
89.99998599996732
  0
ARC
  5
10A
330
2F
100
AcDbEntity
  8
-15N-THT. THIẾT BỊ ĐÓNG MỞ
100
AcDbCircle
 10
48.89987194763307
 20
20.37507044764334
 30
0.0
 40
0.5
100
AcDbArc
 50
270.0000349999253
 51
359.9999760000184
  0
ARC
  5
10B
330
2F
100
AcDbEntity
  8
-15N-THT. THIẾT BỊ ĐÓNG MỞ
100
AcDbCircle
 10
50.89981194763822
 20
20.37507055236074
 30
0.0
 40
0.5
100
AcDbArc
 50
180.0003679999953
 51
269.9999669999602
  0
ARC
  5
10C
330
2F
100
AcDbEntity
  8
-15N-THT. THIẾT BỊ ĐÓNG MỞ
100
AcDbCircle
 10
50.89991605235628
 20
18.37507055236619
 30
0.0
 40
0.5
100
AcDbArc
 50
90.00001107946395
 51
180.0008050000029
  0
CIRCLE
  5
10D
330
2F
100
AcDbEntity
  8
-15N-THT. THIẾT BỊ ĐÓNG MỞ
100
AcDbCircle
 10
49.69978400000036
 20
33.27491749999899
 30
0.0
 40
3.099997999999998
  0
ARC
  5
10E
330
2F
100
AcDbEntity
  8
-15N-THT. THIẾT BỊ ĐÓNG MỞ
100
AcDbCircle
 10
49.69978400000036
 20
33.27491749999899
 30
0.0
 40
2.349997999999998
100
AcDbArc
 50
77.71550799999146
 51
102.2845179999904
  0
LINE
  5
10F
330
2F
100
AcDbEntity
  8
-15N-THT. THIẾT BỊ ĐÓNG MỞ
100
AcDbLine
 10
50.69981297382037
 20
33.77497255236085
 30
0.0
 11
52.75927597381815
 21
33.77497266019327
 31
0.0
  0
LINE
  5
110
330
2F
100
AcDbEntity
  8
-15N-THT. THIẾT BỊ ĐÓNG MỞ
100
AcDbLine
 10
50.69991802617369
 20
32.77497355236574
 30
0.0
 11
52.75929102617737
 21
32.77497366019452
 31
0.0
  0
LINE
  5
111
330
2F
100
AcDbEntity
  8
-15N-THT. THIẾT BỊ ĐÓNG MỞ
100
AcDbLine
 10
46.64048997381906
 20
33.77497233981467
 30
0.0
 11
48.69987597381623
 21
33.77497244764436
 31
0.0
  0
LINE
  5
112
330
2F
100
AcDbEntity
  8
-15N-THT. THIẾT BỊ ĐÓNG MỞ
100
AcDbLine
 10
46.6404740261787
 20
32.7749733398141
 30
0.0
 11
48.70005902617776
 21
32.77497344765379
 31
0.0
  0
ARC
  5
113
330
2F
100
AcDbEntity
  8
-15N-THT. THIẾT BỊ ĐÓNG MỞ
100
AcDbCircle
 10
49.70002814060717
 20
33.2748259472819
 30
0.0
 40
1.040265999999999
100
AcDbArc
 50
61.28573399998624
 51
118.7372140000184
  0
ARC
  5
114
330
2F
100
AcDbEntity
  8
-15N-THT. THIẾT BỊ ĐÓNG MỞ
100
AcDbCircle
 10
49.70002814060717
 20
33.2748259472819
 30
0.0
 40
1.040265999999999
100
AcDbArc
 50
241.2742130000263
 51
298.7206939999841
  0
ARC
  5
115
330
2F
100
AcDbEntity
  8
-15N-THT. THIẾT BỊ ĐÓNG MỞ
100
AcDbCircle
 10
49.69978400000036
 20
33.27491749999899
 30
0.0
 40
1.144998999999998
100
AcDbArc
 50
154.1045520000042
 51
205.88924300003
  0
ARC
  5
116
330
2F
100
AcDbEntity
  8
-15N-THT. THIẾT BỊ ĐÓNG MỞ
100
AcDbCircle
 10
49.69978400000036
 20
33.27491749999899
 30
0.0
 40
1.144998999999998
100
AcDbArc
 50
334.1107730000144
 51
25.89546400001963
  0
LINE
  5
117
330
2F
100
AcDbEntity
  8
-15N-THT. THIẾT BỊ ĐÓNG MỞ
100
AcDbLine
 10
49.19987487976687
 20
35.57117547382404
 30
0.0
 11
49.19987494606903
 21
34.30501847382402
 31
0.0
  0
LINE
  5
118
330
2F
100
AcDbEntity
  8
-15N-THT. THIẾT BỊ ĐÓNG MỞ
100
AcDbLine
 10
50.19980687976931
 20
35.571143526181
 30
0.0
 11
50.19981494763851
 21
34.2749685261806
 31
0.0
  0
ARC
  5
119
330
2F
100
AcDbEntity
  8
-15N-THT. THIẾT BỊ ĐÓNG MỞ
100
AcDbCircle
 10
49.69981451757849
 20
33.27494801758076
 30
0.0
 40
2.349997999999998
100
AcDbArc
 50
257.7167190000208
 51
282.2857290000554
  0
LINE
  5
11A
330
2F
100
AcDbEntity
  8
-15N-THT. THIẾT BỊ ĐÓNG MỞ
100
AcDbLine
 10
49.20005905235666
 20
32.27498447383368
 30
0.0
 11
49.20008712022536
 21
30.97873147383598
 31
0.0
  0
LINE
  5
11B
330
2F
100
AcDbEntity
  8
-15N-THT. THIẾT BỊ ĐÓNG MỞ
100
AcDbLine
 10
50.1999200523569
 20
32.27496552618686
 30
0.0
 11
50.19993912022619
 21
30.97877552618684
 31
0.0
  0
ARC
  5
11C
330
2F
100
AcDbEntity
  8
-15N-THT. THIẾT BỊ ĐÓNG MỞ
100
AcDbCircle
 10
48.7000590523603
 20
32.27497244765345
 30
0.0
 40
0.5
100
AcDbArc
 50
0.0012330000043337
 51
89.99998599996732
  0
ARC
  5
11D
330
2F
100
AcDbEntity
  8
-15N-THT. THIẾT BỊ ĐÓNG MỞ
100
AcDbCircle
 10
48.699874947637
 20
34.27497244764345
 30
0.0
 40
0.5
100
AcDbArc
 50
270.0000349999253
 51
359.9999760000184
  0
ARC
  5
11E
330
2F
100
AcDbEntity
  8
-15N-THT. THIẾT BỊ ĐÓNG MỞ
100
AcDbCircle
 10
50.69981494763851
 20
34.27497255236085
 30
0.0
 40
0.5
100
AcDbArc
 50
180.0003679999953
 51
269.9999669999602
  0
ARC
  5
11F
330
2F
100
AcDbEntity
  8
-15N-THT. THIẾT BỊ ĐÓNG MỞ
100
AcDbCircle
 10
50.69991905235657
 20
32.2749725523654
 30
0.0
 40
0.5
100
AcDbArc
 50
90.00001107946395
 51
180.0008050000029
  0
LINE
  5
120
330
2F
100
AcDbEntity
  8
-15N-THT. THIẾT BỊ ĐÓNG MỞ
100
AcDbLine
 10
0.0
 20
39.87499949999983
 30
0.0
 11
0.0
 21
-39.62495450000097
 31
0.0
  0
LINE
  5
121
330
2F
100
AcDbEntity
  8
-15N-THT. THIẾT BỊ ĐÓNG MỞ
100
AcDbLine
 10
56.0
 20
39.87499949999983
 30
0.0
 11
56.0
 21
-39.62495450000097
 31
0.0
  0
LINE
  5
122
330
2F
100
AcDbEntity
  8
-15N-THT. THIẾT BỊ ĐÓNG MỞ
100
AcDbLine
 10
-9.10000017029e-05
 20
17.87499949999892
 30
0.0
 11
43.59990000000107
 21
17.87499949999892
 31
0.0
  0
LINE
  5
123
330
2F
100
AcDbEntity
  8
-15N-THT. THIẾT BỊ ĐÓNG MỞ
100
AcDbLine
 10
45.72490000000107
 20
35.37499949999983
 30
0.0
 11
45.72490000000107
 21
25.92497249999906
 31
0.0
  0
LINE
  5
124
330
2F
100
AcDbEntity
  8
-15N-THT. THIẾT BỊ ĐÓNG MỞ
100
AcDbLine
 10
2.199294999998528
 20
31.37497349999922
 30
0.0
 11
2.129318999999668
 21
35.38370149999901
 31
0.0
  0
LINE
  5
125
330
2F
100
AcDbEntity
  8
-15N-THT. THIẾT BỊ ĐÓNG MỞ
100
AcDbLine
 10
43.59990000000107
 20
15.27499349999834
 30
0.0
 11
55.99989400000049
 21
15.27499349999834
 31
0.0
  0
LINE
  5
126
330
2F
100
AcDbEntity
  8
-15N-THT. THIẾT BỊ ĐÓNG MỞ
100
AcDbLine
 10
43.59991499999887
 20
17.87499949999892
 30
0.0
 11
43.59991499999887
 21
15.27499349999834
 31
0.0
  0
LINE
  5
127
330
2F
100
AcDbEntity
  8
-15N-THT. THIẾT BỊ ĐÓNG MỞ
100
AcDbLine
 10
54.22583800000211
 20
25.92495349999899
 30
0.0
 11
54.29930199999944
 21
30.13369349999903
 31
0.0
  0
LINE
  5
128
330
2F
100
AcDbEntity
  8
-15N-THT. THIẾT BỊ ĐÓNG MỞ
100
AcDbLine
 10
0.999909000001935
 20
35.87499949999892
 30
0.0
 11
1.800003000000288
 21
35.87499949999892
 31
0.0
  0
LINE
  5
129
330
2F
100
AcDbEntity
  8
-15N-THT. THIẾT BỊ ĐÓNG MỞ
100
AcDbLine
 10
14.60000600000057
 20
35.87499949999892
 30
0.0
 11
16.90000999999756
 21
35.87499949999892
 31
0.0
  0
ARC
  5
12A
330
2F
100
AcDbEntity
  8
-15N-THT. THIẾT BỊ ĐÓNG MỞ
100
AcDbCircle
 10
45.22488399999929
 20
35.37499949999983
 30
0.0
 40
0.5
100
AcDbArc
 50
3.59721976162e-05
 51
89.99998199998775
  0
ARC
  5
12B
330
2F
100
AcDbEntity
  8
-15N-THT. THIẾT BỊ ĐÓNG MỞ
100
AcDbCircle
 10
1.629394999999931
 20
35.37499949999983
 30
0.0
 40
0.5
100
AcDbArc
 50
1.00003000001437
 51
89.99970899992383
  0
ARC
  5
12C
330
2F
100
AcDbEntity
  8
-15N-THT. THIẾT BỊ ĐÓNG MỞ
100
AcDbCircle
 10
1.0
 20
34.87499949999983
 30
0.0
 40
1.0
100
AcDbArc
 50
89.99998199998775
 51
179.9999639999755
  0
LINE
  5
12D
330
2F
100
AcDbEntity
  8
-15N-THT. THIẾT BỊ ĐÓNG MỞ
100
AcDbLine
 10
43.59990000000107
 20
-20.12495450000097
 30
0.0
 11
-9.10000017029e-05
 21
-20.12495450000097
 31
0.0
  0
LINE
  5
12E
330
2F
100
AcDbEntity
  8
-15N-THT. THIẾT BỊ ĐÓNG MỞ
100
AcDbLine
 10
45.72490000000107
 20
-28.17489650000153
 30
0.0
 11
45.72490000000107
 21
-37.62495450000097
 31
0.0
  0
LINE
  5
12F
330
2F
100
AcDbEntity
  8
-15N-THT. THIẾT BỊ ĐÓNG MỞ
100
AcDbLine
 10
2.129303000001527
 20
-37.63364050000109
 30
0.0
 11
2.199280000000726
 21
-33.6249125000013
 31
0.0
  0
LINE
  5
130
330
2F
100
AcDbEntity
  8
-15N-THT. THIẾT BỊ ĐÓNG MỞ
100
AcDbLine
 10
55.99989400000049
 20
-17.5249485000013
 30
0.0
 11
43.59990000000107
 21
-17.5249485000013
 31
0.0
  0
LINE
  5
131
330
2F
100
AcDbEntity
  8
-15N-THT. THIẾT BỊ ĐÓNG MỞ
100
AcDbLine
 10
43.59991499999887
 20
-17.5249485000013
 30
0.0
 11
43.59991499999887
 21
-20.12495450000097
 31
0.0
  0
LINE
  5
132
330
2F
100
AcDbEntity
  8
-15N-THT. THIẾT BỊ ĐÓNG MỞ
100
AcDbLine
 10
54.29933199999869
 20
-32.38363250000111
 30
0.0
 11
54.22586900000169
 21
-28.17489250000108
 31
0.0
  0
LINE
  5
133
330
2F
100
AcDbEntity
  8
-15N-THT. THIẾT BỊ ĐÓNG MỞ
100
AcDbLine
 10
1.629303000001527
 20
-38.12495450000097
 30
0.0
 11
0.999909000001935
 21
-38.12495450000097
 31
0.0
  0
LINE
  5
134
330
2F
100
AcDbEntity
  8
-15N-THT. THIẾT BỊ ĐÓNG MỞ
100
AcDbLine
 10
45.22488399999929
 20
-38.12495450000097
 30
0.0
 11
43.59991499999887
 21
-38.12495450000097
 31
0.0
  0
ARC
  5
135
330
2F
100
AcDbEntity
  8
-15N-THT. THIẾT BỊ ĐÓNG MỞ
100
AcDbCircle
 10
45.22490000000106
 20
-37.62495450000097
 30
0.0
 40
0.5
100
AcDbArc
 50
270.0000829999928
 51
359.9999549999694
  0
ARC
  5
136
330
2F
100
AcDbEntity
  8
-15N-THT. THIẾT BỊ ĐÓNG MỞ
100
AcDbCircle
 10
1.629303000001527
 20
-37.62495450000097
 30
0.0
 40
0.5
100
AcDbArc
 50
270.0003559999524
 51
358.9999610000159
  0
ARC
  5
137
330
2F
100
AcDbEntity
  8
-15N-THT. THIẾT BỊ ĐÓNG MỞ
100
AcDbCircle
 10
0.999909000001935
 20
-37.12495450000097
 30
0.0
 40
1.0
100
AcDbArc
 50
180.0000869999722
 51
270.0000829999928
  0
LINE
  5
138
330
2F
100
AcDbEntity
  8
-15N-THT. THIẾT BỊ ĐÓNG MỞ
100
AcDbLine
 10
54.1998910000002
 20
30.62499949999892
 30
0.0
 11
54.9998940000005
 21
30.62499949999892
 31
0.0
  0
LINE
  5
139
330
2F
100
AcDbEntity
  8
-15N-THT. THIẾT BỊ ĐÓNG MỞ
100
AcDbLine
 10
54.1998910000002
 20
-32.87495450000097
 30
0.0
 11
54.9998940000005
 21
-32.87495450000097
 31
0.0
  0
ARC
  5
13A
330
2F
100
AcDbEntity
  8
-15N-THT. THIẾT BỊ ĐÓNG MỞ
100
AcDbCircle
 10
54.99998499999856
 20
29.62499949999892
 30
0.0
 40
1.0
100
AcDbArc
 50
3.59721976162e-05
 51
89.99998199998775
  0
ARC
  5
13B
330
2F
100
AcDbEntity
  8
-15N-THT. THIẾT BỊ ĐÓNG MỞ
100
AcDbCircle
 10
54.9998940000005
 20
-31.87495450000097
 30
0.0
 40
1.0
100
AcDbArc
 50
270.0000279999611
 51
359.9999549999694
  0
LINE
  5
13C
330
2F
100
AcDbEntity
  8
-15N-THT. THIẾT BỊ ĐÓNG MỞ
100
AcDbLine
 10
0.0
 20
39.87499949999983
 30
0.0
 11
56.0
 21
39.87499949999983
 31
0.0
  0
ARC
  5
13D
330
2F
100
AcDbEntity
  8
-15N-THT. THIẾT BỊ ĐÓNG MỞ
100
AcDbCircle
 10
54.1998910000002
 20
30.12499949999983
 30
0.0
 40
0.5
100
AcDbArc
 50
89.99998199998775
 51
179.9999639999755
  0
LINE
  5
13E
330
2F
100
AcDbEntity
  8
-15N-THT. THIẾT BỊ ĐÓNG MỞ
100
AcDbLine
 10
0.0
 20
-39.62495450000097
 30
0.0
 11
56.0
 21
-39.62495450000097
 31
0.0
  0
ARC
  5
13F
330
2F
100
AcDbEntity
  8
-15N-THT. THIẾT BỊ ĐÓNG MỞ
100
AcDbCircle
 10
54.1998910000002
 20
-32.37495450000006
 30
0.0
 40
0.5
100
AcDbArc
 50
179.9999639999755
 51
269.9999459999633
  0
LINE
  5
140
330
2F
100
AcDbEntity
  8
-15N-THT. THIẾT BỊ ĐÓNG MỞ
100
AcDbLine
 10
14.10000600000057
 20
-37.62495450000097
 30
0.0
 11
14.10000600000057
 21
-33.62490850000086
 31
0.0
  0
LINE
  5
141
330
2F
100
AcDbEntity
  8
-15N-THT. THIẾT BỊ ĐÓNG MỞ
100
AcDbLine
 10
17.4000100000012
 20
-37.62495450000097
 30
0.0
 11
17.4000100000012
 21
-33.62490850000086
 31
0.0
  0
LINE
  5
142
330
2F
100
AcDbEntity
  8
-15N-THT. THIẾT BỊ ĐÓNG MỞ
100
AcDbLine
 10
28.59991499999888
 20
-37.62495450000097
 30
0.0
 11
28.59991499999888
 21
-33.62490850000086
 31
0.0
  0
LINE
  5
143
330
2F
100
AcDbEntity
  8
-15N-THT. THIẾT BỊ ĐÓNG MỞ
100
AcDbLine
 10
31.89990300000136
 20
-37.62495450000097
 30
0.0
 11
31.89990300000136
 21
-33.62490850000086
 31
0.0
  0
LINE
  5
144
330
2F
100
AcDbEntity
  8
-15N-THT. THIẾT BỊ ĐÓNG MỞ
100
AcDbLine
 10
43.09991499999887
 20
-37.62495450000097
 30
0.0
 11
43.09991499999887
 21
-33.62490850000086
 31
0.0
  0
LINE
  5
145
330
2F
100
AcDbEntity
  8
-15N-THT. THIẾT BỊ ĐÓNG MỞ
100
AcDbLine
 10
14.10000600000057
 20
31.3749844999993
 30
0.0
 11
14.10000600000057
 21
35.37499949999983
 31
0.0
  0
LINE
  5
146
330
2F
100
AcDbEntity
  8
-15N-THT. THIẾT BỊ ĐÓNG MỞ
100
AcDbLine
 10
17.4000100000012
 20
31.3749844999993
 30
0.0
 11
17.4000100000012
 21
35.37499949999983
 31
0.0
  0
LINE
  5
147
330
2F
100
AcDbEntity
  8
-15N-THT. THIẾT BỊ ĐÓNG MỞ
100
AcDbLine
 10
28.59991499999888
 20
31.3749844999993
 30
0.0
 11
28.59991499999888
 21
35.37499949999983
 31
0.0
  0
LINE
  5
148
330
2F
100
AcDbEntity
  8
-15N-THT. THIẾT BỊ ĐÓNG MỞ
100
AcDbLine
 10
31.89990300000136
 20
31.3749844999993
 30
0.0
 11
31.89990300000136
 21
35.37499949999983
 31
0.0
  0
LINE
  5
149
330
2F
100
AcDbEntity
  8
-15N-THT. THIẾT BỊ ĐÓNG MỞ
100
AcDbLine
 10
43.09991499999887
 20
31.3749844999993
 30
0.0
 11
43.09991499999887
 21
35.37499949999983
 31
0.0
  0
ARC
  5
14A
330
2F
100
AcDbEntity
  8
-15N-THT. THIẾT BỊ ĐÓNG MỞ
100
AcDbCircle
 10
43.59990000000107
 20
35.37499949999983
 30
0.0
 40
0.5
100
AcDbArc
 50
89.99998199998775
 51
179.9999639999755
  0
ARC
  5
14B
330
2F
100
AcDbEntity
  8
-15N-THT. THIẾT BỊ ĐÓNG MỞ
100
AcDbCircle
 10
29.09991499999888
 20
35.37499949999983
 30
0.0
 40
0.5
100
AcDbArc
 50
89.99998199998775
 51
179.9999639999755
  0
ARC
  5
14C
330
2F
100
AcDbEntity
  8
-15N-THT. THIẾT BỊ ĐÓNG MỞ
100
AcDbCircle
 10
31.39990299999772
 20
35.37499949999983
 30
0.0
 40
0.5
100
AcDbArc
 50
3.59721976162e-05
 51
89.99998199998775
  0
ARC
  5
14D
330
2F
100
AcDbEntity
  8
-15N-THT. THIẾT BỊ ĐÓNG MỞ
100
AcDbCircle
 10
16.90000999999756
 20
35.37499949999983
 30
0.0
 40
0.5
100
AcDbArc
 50
3.59721976162e-05
 51
89.99998199998775
  0
ARC
  5
14E
330
2F
100
AcDbEntity
  8
-15N-THT. THIẾT BỊ ĐÓNG MỞ
100
AcDbCircle
 10
14.60000600000057
 20
35.37499949999983
 30
0.0
 40
0.5
100
AcDbArc
 50
89.99998199998775
 51
179.9999639999755
  0
ARC
  5
14F
330
2F
100
AcDbEntity
  8
-15N-THT. THIẾT BỊ ĐÓNG MỞ
100
AcDbCircle
 10
43.59991499999887
 20
-37.62495450000097
 30
0.0
 40
0.5
100
AcDbArc
 50
179.9999639999755
 51
269.9999459999633
  0
ARC
  5
150
330
2F
100
AcDbEntity
  8
-15N-THT. THIẾT BỊ ĐÓNG MỞ
100
AcDbCircle
 10
31.39990299999772
 20
-37.62495450000097
 30
0.0
 40
0.5
100
AcDbArc
 50
270.0000279999611
 51
359.9999549999694
  0
ARC
  5
151
330
2F
100
AcDbEntity
  8
-15N-THT. THIẾT BỊ ĐÓNG MỞ
100
AcDbCircle
 10
29.09991499999888
 20
-37.62495450000097
 30
0.0
 40
0.5
100
AcDbArc
 50
179.9999639999755
 51
269.9999459999633
  0
ARC
  5
152
330
2F
100
AcDbEntity
  8
-15N-THT. THIẾT BỊ ĐÓNG MỞ
100
AcDbCircle
 10
16.90000999999756
 20
-37.62495450000097
 30
0.0
 40
0.5
100
AcDbArc
 50
270.0000279999611
 51
359.9999549999694
  0
ARC
  5
153
330
2F
100
AcDbEntity
  8
-15N-THT. THIẾT BỊ ĐÓNG MỞ
100
AcDbCircle
 10
14.60000600000057
 20
-37.62495450000097
 30
0.0
 40
0.5
100
AcDbArc
 50
179.9999639999755
 51
269.9999459999633
  0
ARC
  5
154
330
2F
100
AcDbEntity
  8
-15N-THT. THIẾT BỊ ĐÓNG MỞ
100
AcDbCircle
 10
54.79930199999945
 20
30.12499949999983
 30
0.0
 40
0.5
100
AcDbArc
 50
90.00014599998342
 51
178.9999699999856
  0
ARC
  5
155
330
2F
100
AcDbEntity
  8
-15N-THT. THIẾT BỊ ĐÓNG MỞ
100
AcDbCircle
 10
54.79931700000088
 20
-32.37495450000006
 30
0.0
 40
0.5
100
AcDbArc
 50
181.0000269999903
 51
269.9998639999654
  0
LINE
  5
156
330
2F
100
AcDbEntity
  8
-15N-THT. THIẾT BỊ ĐÓNG MỞ
100
AcDbLine
 10
1.0
 20
36.51428249999935
 30
0.0
 11
1.800003000000288
 21
36.51428249999935
 31
0.0
  0
ARC
  5
157
330
2F
100
AcDbEntity
  8
-15N-THT. THIẾT BỊ ĐÓNG MỞ
100
AcDbCircle
 10
1.0
 20
35.51428249999935
 30
0.0
 40
1.0
100
AcDbArc
 50
89.99998199998775
 51
179.9999639999755
  0
ARC
  5
158
330
2F
100
AcDbEntity
  8
-15N-THT. THIẾT BỊ ĐÓNG MỞ
100
AcDbCircle
 10
1.800003000000288
 20
35.37499949999983
 30
0.0
 40
0.5
100
AcDbArc
 50
0.0
 51
89.99998199998775
  0
ARC
  5
159
330
2F
100
AcDbEntity
  8
-15N-THT. THIẾT BỊ ĐÓNG MỞ
100
AcDbCircle
 10
1.800003000000288
 20
36.01428249999936
 30
0.0
 40
0.5
100
AcDbArc
 50
0.0
 51
89.99998199998775
  0
LINE
  5
15A
330
2F
100
AcDbEntity
  8
-15N-THT. THIẾT BỊ ĐÓNG MỞ
100
AcDbLine
 10
33.24987799999872
 20
-33.62490850000086
 30
0.0
 11
33.24987799999872
 21
-37.62495450000097
 31
0.0
  0
ARC
  5
15B
330
2F
100
AcDbEntity
  8
-15N-THT. THIẾT BỊ ĐÓNG MỞ
100
AcDbCircle
 10
32.74987799999872
 20
-37.62495450000097
 30
0.0
 40
0.5
100
AcDbArc
 50
270.0000279999611
 51
1.00000010064e-05
  0
LINE
  5
15C
330
2F
100
AcDbEntity
  8
-15N-THT. THIẾT BỊ ĐÓNG MỞ
100
AcDbLine
 10
0.100006000000576
 20
31.3749844999993
 30
0.0
 11
45.79997300000104
 21
31.3749844999993
 31
0.0
  0
CIRCLE
  5
15D
330
2F
100
AcDbEntity
  8
-15N-THT. THIẾT BỊ ĐÓNG MỞ
100
AcDbCircle
 10
8.5
 20
24.27497849999872
 30
0.0
 40
3.799998999999998
  0
CIRCLE
  5
15E
330
2F
100
AcDbEntity
  8
-15N-THT. THIẾT BỊ ĐÓNG MỞ
100
AcDbCircle
 10
23.0
 20
24.27497849999872
 30
0.0
 40
3.799998999999998
  0
CIRCLE
  5
15F
330
2F
100
AcDbEntity
  8
-15N-THT. THIẾT BỊ ĐÓNG MỞ
100
AcDbCircle
 10
37.5
 20
24.27497849999872
 30
0.0
 40
3.799998999999998
  0
CIRCLE
  5
160
330
2F
100
AcDbEntity
  8
-15N-THT. THIẾT BỊ ĐÓNG MỞ
100
AcDbCircle
 10
49.89997900000162
 20
19.37496949999877
 30
0.0
 40
3.249999
  0
LINE
  5
161
330
2F
100
AcDbEntity
  8
-15N-THT. THIẾT BỊ ĐÓNG MỞ
100
AcDbLine
 10
0.100006000000576
 20
31.3749844999993
 30
0.0
 11
0.100006000000576
 21
17.8749844999993
 31
0.0
  0
LINE
  5
162
330
2F
100
AcDbEntity
  8
-15N-THT. THIẾT BỊ ĐÓNG MỞ
100
AcDbLine
 10
55.89997900000162
 20
25.92497249999906
 30
0.0
 11
55.89997900000162
 21
15.3749844999993
 31
0.0
  0
LINE
  5
163
330
2F
100
AcDbEntity
  8
-15N-THT. THIẾT BỊ ĐÓNG MỞ
100
AcDbLine
 10
45.79997300000104
 20
25.92497249999906
 30
0.0
 11
55.89997900000162
 21
25.92497249999906
 31
0.0
  0
LINE
  5
164
330
2F
100
AcDbEntity
  8
-15N-THT. THIẾT BỊ ĐÓNG MỞ
100
AcDbLine
 10
45.79997300000104
 20
25.58786049999981
 30
0.0
 11
54.12289500000042
 21
25.58786049999981
 31
0.0
  0
LINE
  5
165
330
2F
100
AcDbEntity
  8
-15N-THT. THIẾT BỊ ĐÓNG MỞ
100
AcDbLine
 10
1.830688999998528
 20
31.03787250000005
 30
0.0
 11
44.31214900000123
 21
31.03787250000005
 31
0.0
  0
LINE
  5
166
330
2F
100
AcDbEntity
  8
-15N-THT. THIẾT BỊ ĐÓNG MỞ
100
AcDbLine
 10
54.89997900000162
 20
24.89817849999872
 30
0.0
 11
54.89997900000162
 21
16.01612849999856
 31
0.0
  0
LINE
  5
167
330
2F
100
AcDbEntity
  8
-15N-THT. THIẾT BỊ ĐÓNG MỞ
100
AcDbLine
 10
44.79997300000468
 20
30.39886449999904
 30
0.0
 11
44.79997300000468
 21
26.32693449999988
 31
0.0
  0
LINE
  5
168
330
2F
100
AcDbEntity
  8
-15N-THT. THIẾT BỊ ĐÓNG MỞ
100
AcDbLine
 10
44.79998799999885
 20
31.03785349999907
 30
0.0
 11
45.79999600000156
 21
31.37496149999879
 31
0.0
  0
LINE
  5
169
330
2F
100
AcDbEntity
  8
-15N-THT. THIẾT BỊ ĐÓNG MỞ
100
AcDbLine
 10
44.79998799999885
 20
25.58785249999892
 30
0.0
 11
45.79998100000011
 21
25.9249594999992
 31
0.0
  0
LINE
  5
16A
330
2F
100
AcDbEntity
  8
-15N-THT. THIẾT BỊ ĐÓNG MỞ
100
AcDbLine
 10
54.90000199999849
 20
25.58785449999959
 30
0.0
 11
55.89998700000069
 21
25.9249594999992
 31
0.0
  0
LINE
  5
16B
330
2F
100
AcDbEntity
  8
-15N-THT. THIẾT BỊ ĐÓNG MỞ
100
AcDbLine
 10
1.100006000000576
 20
30.16072049999912
 30
0.0
 11
1.100006000000576
 21
18.71882649999861
 31
0.0
  0
LINE
  5
16C
330
2F
100
AcDbEntity
  8
-15N-THT. THIẾT BỊ ĐÓNG MỞ
100
AcDbLine
 10
0.1000370000001567
 20
31.3749844999993
 30
0.0
 11
1.100037000000156
 21
31.03787649999958
 31
0.0
  0
LINE
  5
16D
330
2F
100
AcDbEntity
  8
-15N-THT. THIẾT BỊ ĐÓNG MỞ
100
AcDbLine
 10
45.79998799999884
 20
-33.62492350000139
 30
0.0
 11
0.1000219999987166
 21
-33.62492350000139
 31
0.0
  0
LINE
  5
16E
330
2F
100
AcDbEntity
  8
-15N-THT. THIẾT BỊ ĐÓNG MỞ
100
AcDbLine
 10
0.100006000000576
 20
-20.12492350000139
 30
0.0
 11
0.100006000000576
 21
-33.62492350000139
 31
0.0
  0
LINE
  5
16F
330
2F
100
AcDbEntity
  8
-15N-THT. THIẾT BỊ ĐÓNG MỞ
100
AcDbLine
 10
55.89997900000162
 20
-17.62492350000139
 30
0.0
 11
55.89997900000162
 21
-28.17491150000114
 31
0.0
  0
LINE
  5
170
330
2F
100
AcDbEntity
  8
-15N-THT. THIẾT BỊ ĐÓNG MỞ
100
AcDbLine
 10
55.89999399999943
 20
-28.17491150000114
 30
0.0
 11
45.79998799999884
 21
-28.17491150000114
 31
0.0
  0
LINE
  5
171
330
2F
100
AcDbEntity
  8
-15N-THT. THIẾT BỊ ĐÓNG MỞ
100
AcDbLine
 10
54.12290999999822
 20
-27.83779950000099
 30
0.0
 11
45.79998799999884
 21
-27.83779950000099
 31
0.0
  0
LINE
  5
172
330
2F
100
AcDbEntity
  8
-15N-THT. THIẾT BỊ ĐÓNG MỞ
100
AcDbLine
 10
44.31216499999936
 20
-33.28781150000123
 30
0.0
 11
1.830703999999968
 21
-33.28781150000123
 31
0.0
  0
LINE
  5
173
330
2F
100
AcDbEntity
  8
-15N-THT. THIẾT BỊ ĐÓNG MỞ
100
AcDbLine
 10
54.89997900000162
 20
-18.26606749999973
 30
0.0
 11
54.89997900000162
 21
-27.14811750000172
 31
0.0
  0
LINE
  5
174
330
2F
100
AcDbEntity
  8
-15N-THT. THIẾT BỊ ĐÓNG MỞ
100
AcDbLine
 10
44.79997300000468
 20
-28.57687350000106
 30
0.0
 11
44.79997300000468
 21
-32.64880350000112
 31
0.0
  0
LINE
  5
175
330
2F
100
AcDbEntity
  8
-15N-THT. THIẾT BỊ ĐÓNG MỞ
100
AcDbLine
 10
45.80001899999842
 20
-33.6248895000017
 30
0.0
 11
44.80001099999936
 21
-33.28777650000029
 31
0.0
  0
LINE
  5
176
330
2F
100
AcDbEntity
  8
-15N-THT. THIẾT BỊ ĐÓNG MỞ
100
AcDbLine
 10
45.80000300000029
 20
-28.1748845000011
 30
0.0
 11
44.80001099999936
 21
-27.83777850000115
 31
0.0
  0
LINE
  5
177
330
2F
100
AcDbEntity
  8
-15N-THT. THIẾT BỊ ĐÓNG MỞ
100
AcDbLine
 10
55.90001699999993
 20
-28.1748845000011
 30
0.0
 11
54.90002500000264
 21
-27.83778050000092
 31
0.0
  0
LINE
  5
178
330
2F
100
AcDbEntity
  8
-15N-THT. THIẾT BỊ ĐÓNG MỞ
100
AcDbLine
 10
1.100006000000576
 20
-20.9687655000007
 30
0.0
 11
1.100006000000576
 21
-32.4106595000012
 31
0.0
  0
LINE
  5
179
330
2F
100
AcDbEntity
  8
-15N-THT. THIẾT BỊ ĐÓNG MỞ
100
AcDbLine
 10
1.100052000001596
 20
-33.28781550000076
 30
0.0
 11
0.1000519999979588
 21
-33.62492350000139
 31
0.0
  0
CIRCLE
  5
17A
330
2F
100
AcDbEntity
  8
-15N-THT. THIẾT BỊ ĐÓNG MỞ
100
AcDbCircle
 10
8.5
 20
-26.52491750000172
 30
0.0
 40
3.799998999999998
  0
CIRCLE
  5
17B
330
2F
100
AcDbEntity
  8
-15N-THT. THIẾT BỊ ĐÓNG MỞ
100
AcDbCircle
 10
23.0
 20
-26.52491750000172
 30
0.0
 40
3.799998999999998
  0
CIRCLE
  5
17C
330
2F
100
AcDbEntity
  8
-15N-THT. THIẾT BỊ ĐÓNG MỞ
100
AcDbCircle
 10
49.89997900000162
 20
-21.62490849999995
 30
0.0
 40
3.249999
  0
CIRCLE
  5
17D
330
2F
100
AcDbEntity
  8
-15N-THT. THIẾT BỊ ĐÓNG MỞ
100
AcDbCircle
 10
37.5
 20
-26.52491750000172
 30
0.0
 40
3.799998999999998
  0
ARC
  5
17E
330
2F
100
AcDbEntity
  8
-15N-THT. THIẾT BỊ ĐÓNG MỞ
100
AcDbCircle
 10
35.89979600000152
 20
33.27491749999899
 30
0.0
 40
3.249999
100
AcDbArc
 50
89.99998199998775
 51
214.6966689999953
  0
ARC
  5
17F
330
2F
100
AcDbEntity
  8
-15N-THT. THIẾT BỊ ĐÓNG MỞ
100
AcDbCircle
 10
35.89979600000152
 20
33.27491749999899
 30
0.0
 40
3.249999
100
AcDbArc
 50
325.3033589999501
 51
89.9999370000093
  0
LINE
  5
180
330
2F
100
AcDbEntity
  8
-15N-THT. THIẾT BỊ ĐÓNG MỞ
100
AcDbLine
 10
39.14997900000162
 20
36.52494849999857
 30
0.0
 11
32.65001000000121
 21
36.52494849999857
 31
0.0
  0
LINE
  5
181
330
2F
100
AcDbEntity
  8
-15N-THT. THIẾT BỊ ĐÓNG MỞ
100
AcDbLine
 10
32.65001000000121
 20
33.27495149999868
 30
0.0
 11
32.65001000000121
 21
36.52494849999857
 31
0.0
  0
LINE
  5
182
330
2F
100
AcDbEntity
  8
-15N-THT. THIẾT BỊ ĐÓNG MỞ
100
AcDbLine
 10
39.14997900000162
 20
33.27495149999868
 30
0.0
 11
39.14997900000162
 21
36.52494849999857
 31
0.0
  0
CIRCLE
  5
183
330
2F
100
AcDbEntity
  8
-15N-THT. THIẾT BỊ ĐÓNG MỞ
100
AcDbCircle
 10
49.69978400000036
 20
33.27491749999899
 30
0.0
 40
3.249999
  0
LINE
  5
184
330
2F
100
AcDbEntity
  8
-15N-THT. THIẾT BỊ ĐÓNG MỞ
100
AcDbLine
 10
46.44994399999996
 20
33.27495149999868
 30
0.0
 11
46.44994399999996
 21
36.52494849999857
 31
0.0
  0
LINE
  5
185
330
2F
100
AcDbEntity
  8
-15N-THT. THIẾT BỊ ĐÓNG MỞ
100
AcDbLine
 10
52.94989799999894
 20
33.27495149999868
 30
0.0
 11
52.94989799999894
 21
36.52494849999857
 31
0.0
  0
LINE
  5
186
330
2F
100
AcDbEntity
  8
-15N-THT. THIẾT BỊ ĐÓNG MỞ
100
AcDbLine
 10
52.94989799999894
 20
36.52494849999857
 30
0.0
 11
46.44994399999996
 21
36.52494849999857
 31
0.0
  0
ARC
  5
187
330
2F
100
AcDbEntity
  8
-15N-THT. THIẾT BỊ ĐÓNG MỞ
100
AcDbCircle
 10
6.899917999999161
 20
33.27493249999952
 30
0.0
 40
3.249999
100
AcDbArc
 50
325.3030859999834
 51
214.6969800000295
  0
LINE
  5
188
330
2F
100
AcDbEntity
  8
-15N-THT. THIẾT BỊ ĐÓNG MỞ
100
AcDbLine
 10
10.15010099999926
 20
36.52494849999857
 30
0.0
 11
10.15010099999926
 21
33.27495149999868
 31
0.0
  0
LINE
  5
189
330
2F
100
AcDbEntity
  8
-15N-THT. THIẾT BỊ ĐÓNG MỞ
100
AcDbLine
 10
3.650315000002592
 20
36.52494849999857
 30
0.0
 11
3.650315000002592
 21
33.27495149999868
 31
0.0
  0
LINE
  5
18A
330
2F
100
AcDbEntity
  8
-15N-THT. THIẾT BỊ ĐÓNG MỞ
100
AcDbLine
 10
10.15010099999926
 20
36.52494849999857
 30
0.0
 11
3.650315000002592
 21
36.52494849999857
 31
0.0
  0
LINE
  5
18B
330
2F
100
AcDbEntity
  8
-15N-THT. THIẾT BỊ ĐÓNG MỞ
100
AcDbLine
 10
3.650315000002592
 20
33.42500649999875
 30
0.0
 11
2.472840000002179
 21
33.42500649999875
 31
0.0
  0
LINE
  5
18C
330
2F
100
AcDbEntity
  8
-15N-THT. THIẾT BỊ ĐÓNG MỞ
100
AcDbLine
 10
14.10011300000042
 20
33.42497649999859
 30
0.0
 11
10.15010099999926
 21
33.42497649999859
 31
0.0
  0
LINE
  5
18D
330
2F
100
AcDbEntity
  8
-15N-THT. THIẾT BỊ ĐÓNG MỞ
100
AcDbLine
 10
32.650024999999
 20
33.42499149999913
 30
0.0
 11
31.9000100000012
 21
33.42499149999913
 31
0.0
  0
LINE
  5
18E
330
2F
100
AcDbEntity
  8
-15N-THT. THIẾT BỊ ĐÓNG MỞ
100
AcDbLine
 10
43.10000600000058
 20
33.42500649999875
 30
0.0
 11
39.14999399999942
 21
33.42500649999875
 31
0.0
  0
LINE
  5
18F
330
2F
100
AcDbEntity
  8
-15N-THT. THIẾT BỊ ĐÓNG MỞ
100
AcDbLine
 10
28.60002199999872
 20
33.42499149999913
 30
0.0
 11
17.40011600000071
 21
33.42499149999913
 31
0.0
  0
ARC
  5
190
330
2F
100
AcDbEntity
  8
-15N-THT. THIẾT BỊ ĐÓNG MỞ
100
AcDbCircle
 10
6.899917999999161
 20
33.27493249999952
 30
0.0
 40
3.099997999999998
100
AcDbArc
 50
323.3616190000494
 51
216.6383380000068
  0
ARC
  5
191
330
2F
100
AcDbEntity
  8
-15N-THT. THIẾT BỊ ĐÓNG MỞ
100
AcDbCircle
 10
6.899917999999161
 20
33.27493249999952
 30
0.0
 40
2.349997999999998
100
AcDbArc
 50
77.71547699998563
 51
102.2844320000379
  0
LINE
  5
192
330
2F
100
AcDbEntity
  8
-15N-THT. THIẾT BỊ ĐÓNG MỞ
100
AcDbLine
 10
7.900283999999373
 20
33.77497849999873
 30
0.0
 11
9.959731999999349
 21
33.77497849999873
 31
0.0
  0
LINE
  5
193
330
2F
100
AcDbEntity
  8
-15N-THT. THIẾT BỊ ĐÓNG MỞ
100
AcDbLine
 10
7.900390999999217
 20
32.77497849999873
 30
0.0
 11
9.95974799999749
 21
32.77497849999873
 31
0.0
  0
LINE
  5
194
330
2F
100
AcDbEntity
  8
-15N-THT. THIẾT BỊ ĐÓNG MỞ
100
AcDbLine
 10
3.840958000000682
 20
33.77497849999873
 30
0.0
 11
5.900345000001834
 21
33.77497849999873
 31
0.0
  0
LINE
  5
195
330
2F
100
AcDbEntity
  8
-15N-THT. THIẾT BỊ ĐÓNG MỞ
100
AcDbLine
 10
3.840942999999242
 20
32.77497849999873
 30
0.0
 11
5.900527999998303
 21
32.77497849999873
 31
0.0
  0
ARC
  5
196
330
2F
100
AcDbEntity
  8
-15N-THT. THIẾT BỊ ĐÓNG MỞ
100
AcDbCircle
 10
6.900162000001728
 20
33.27484149999873
 30
0.0
 40
1.040264999999998
100
AcDbArc
 50
61.28570300002024
 51
118.7371559999677
  0
ARC
  5
197
330
2F
100
AcDbEntity
  8
-15N-THT. THIẾT BỊ ĐÓNG MỞ
100
AcDbCircle
 10
6.900162000001728
 20
33.27484149999873
 30
0.0
 40
1.040264999999998
100
AcDbArc
 50
241.2742739999767
 51
298.7207549999405
  0
ARC
  5
198
330
2F
100
AcDbEntity
  8
-15N-THT. THIẾT BỊ ĐÓNG MỞ
100
AcDbCircle
 10
6.899917999999161
 20
33.27493249999952
 30
0.0
 40
1.144997999999998
100
AcDbArc
 50
154.10447700004
 51
205.88916799997
  0
ARC
  5
199
330
2F
100
AcDbEntity
  8
-15N-THT. THIẾT BỊ ĐÓNG MỞ
100
AcDbCircle
 10
6.899917999999161
 20
33.27493249999952
 30
0.0
 40
1.144997999999998
100
AcDbArc
 50
334.1108059999805
 51
25.89544299997593
  0
LINE
  5
19A
330
2F
100
AcDbEntity
  8
-15N-THT. THIẾT BỊ ĐÓNG MỞ
100
AcDbLine
 10
6.400344999998196
 20
35.57114749999982
 30
0.0
 11
6.400344999998196
 21
34.30500749999828
 31
0.0
  0
LINE
  5
19B
330
2F
100
AcDbEntity
  8
-15N-THT. THIẾT BỊ ĐÓNG MỞ
100
AcDbLine
 10
7.400162000001728
 20
35.57115149999936
 30
0.0
 11
7.400162000001728
 21
34.27497849999872
 31
0.0
  0
LINE
  5
19C
330
2F
100
AcDbEntity
  8
-15N-THT. THIẾT BỊ ĐÓNG MỞ
100
AcDbLine
 10
6.400710999998409
 20
32.27498249999826
 30
0.0
 11
6.400727000000188
 21
31.42496149999897
 31
0.0
  0
LINE
  5
19D
330
2F
100
AcDbEntity
  8
-15N-THT. THIẾT BỊ ĐÓNG MỞ
100
AcDbLine
 10
7.400359999999636
 20
32.27497049999874
 30
0.0
 11
7.400376000001415
 21
31.42494949999855
 31
0.0
  0
ARC
  5
19E
330
2F
100
AcDbEntity
  8
-15N-THT. THIẾT BỊ ĐÓNG MỞ
100
AcDbCircle
 10
5.900193000001308
 20
32.27499349999835
 30
0.0
 40
0.5
100
AcDbArc
 50
0.0012200989759417
 51
89.99992699995617
  0
ARC
  5
19F
330
2F
100
AcDbEntity
  8
-15N-THT. THIẾT BỊ ĐÓNG MỞ
100
AcDbCircle
 10
5.900010000001202
 20
34.27499349999834
 30
0.0
 40
0.5
100
AcDbArc
 50
270.0001369999252
 51
1.00000010064e-05
  0
ARC
  5
1A0
330
2F
100
AcDbEntity
  8
-15N-THT. THIẾT BỊ ĐÓNG MỞ
100
AcDbCircle
 10
7.899964000000181
 20
34.27499349999834
 30
0.0
 40
0.5
100
AcDbArc
 50
180.0004150000157
 51
270.0000279999611
  0
ARC
  5
1A1
330
2F
100
AcDbEntity
  8
-15N-THT. THIẾT BỊ ĐÓNG MỞ
100
AcDbCircle
 10
7.900054999998246
 20
32.27499349999835
 30
0.0
 40
0.5
100
AcDbArc
 50
89.99998199998775
 51
180.0007289999743
  0
ARC
  5
1A2
330
2F
100
AcDbEntity
  8
-15N-THT. THIẾT BỊ ĐÓNG MỞ
100
AcDbCircle
 10
35.89979600000152
 20
33.27491749999899
 30
0.0
 40
3.099997999999998
100
AcDbArc
 50
7.2627560058e-05
 51
216.6381919999977
  0
ARC
  5
1A3
330
2F
100
AcDbEntity
  8
-15N-THT. THIẾT BỊ ĐÓNG MỞ
100
AcDbCircle
 10
35.89979600000152
 20
33.27491749999899
 30
0.0
 40
2.349997999999998
100
AcDbArc
 50
77.71547699998563
 51
102.2844320000379
  0
LINE
  5
1A4
330
2F
100
AcDbEntity
  8
-15N-THT. THIẾT BỊ ĐÓNG MỞ
100
AcDbLine
 10
36.90008600000147
 20
33.77496349999911
 30
0.0
 11
38.95954899999924
 21
33.77496349999911
 31
0.0
  0
LINE
  5
1A5
330
2F
100
AcDbEntity
  8
-15N-THT. THIẾT BỊ ĐÓNG MỞ
100
AcDbLine
 10
36.90019300000131
 20
32.77496349999911
 30
0.0
 11
38.95956500000102
 21
32.77496349999911
 31
0.0
  0
LINE
  5
1A6
330
2F
100
AcDbEntity
  8
-15N-THT. THIẾT BỊ ĐÓNG MỞ
100
AcDbLine
 10
32.84075999999914
 20
33.77496349999911
 30
0.0
 11
34.90014700000029
 21
33.77496349999911
 31
0.0
  0
LINE
  5
1A7
330
2F
100
AcDbEntity
  8
-15N-THT. THIẾT BỊ ĐÓNG MỞ
100
AcDbLine
 10
32.840744000001
 20
32.77496349999911
 30
0.0
 11
34.90033000000039
 21
32.77496349999911
 31
0.0
  0
ARC
  5
1A8
330
2F
100
AcDbEntity
  8
-15N-THT. THIẾT BỊ ĐÓNG MỞ
100
AcDbCircle
 10
35.90004000000045
 20
33.27482650000002
 30
0.0
 40
1.040264999999998
100
AcDbArc
 50
61.28570300002024
 51
118.7371559999677
  0
ARC
  5
1A9
330
2F
100
AcDbEntity
  8
-15N-THT. THIẾT BỊ ĐÓNG MỞ
100
AcDbCircle
 10
35.90004000000045
 20
33.27482650000002
 30
0.0
 40
1.040264999999998
100
AcDbArc
 50
241.2742739999767
 51
298.7207549999405
  0
ARC
  5
1AA
330
2F
100
AcDbEntity
  8
-15N-THT. THIẾT BỊ ĐÓNG MỞ
100
AcDbCircle
 10
35.89979600000152
 20
33.27491749999899
 30
0.0
 40
1.144997999999998
100
AcDbArc
 50
154.10447700004
 51
205.88916799997
  0
ARC
  5
1AB
330
2F
100
AcDbEntity
  8
-15N-THT. THIẾT BỊ ĐÓNG MỞ
100
AcDbCircle
 10
35.89979600000152
 20
33.27491749999899
 30
0.0
 40
1.144997999999998
100
AcDbArc
 50
334.1108059999805
 51
25.89544299997593
  0
LINE
  5
1AC
330
2F
100
AcDbEntity
  8
-15N-THT. THIẾT BỊ ĐÓNG MỞ
100
AcDbLine
 10
35.40014700000029
 20
35.57114749999982
 30
0.0
 11
35.40014700000029
 21
34.30499249999957
 31
0.0
  0
LINE
  5
1AD
330
2F
100
AcDbEntity
  8
-15N-THT. THIẾT BỊ ĐÓNG MỞ
100
AcDbLine
 10
36.39999399999942
 20
35.57113649999883
 30
0.0
 11
36.40000200000213
 21
34.2749634999991
 31
0.0
  0
LINE
  5
1AE
330
2F
100
AcDbEntity
  8
-15N-THT. THIẾT BỊ ĐÓNG MỞ
100
AcDbLine
 10
35.40048300000126
 20
32.27497849999873
 30
0.0
 11
35.40049799999906
 21
31.42495749999853
 31
0.0
  0
LINE
  5
1AF
330
2F
100
AcDbEntity
  8
-15N-THT. THIẾT BỊ ĐÓNG MỞ
100
AcDbLine
 10
36.40016200000173
 20
32.2749634999991
 30
0.0
 11
36.40017699999953
 21
31.42495749999853
 31
0.0
  0
ARC
  5
1B0
330
2F
100
AcDbEntity
  8
-15N-THT. THIẾT BỊ ĐÓNG MỞ
100
AcDbCircle
 10
34.90007100000003
 20
32.27497849999873
 30
0.0
 40
0.5
100
AcDbArc
 50
0.0012200989759417
 51
89.99992699995617
  0
ARC
  5
1B1
330
2F
100
AcDbEntity
  8
-15N-THT. THIẾT BỊ ĐÓNG MỞ
100
AcDbCircle
 10
34.89988699999958
 20
34.27497849999872
 30
0.0
 40
0.5
100
AcDbArc
 50
270.0001369999252
 51
1.00000010064e-05
  0
ARC
  5
1B2
330
2F
100
AcDbEntity
  8
-15N-THT. THIẾT BỊ ĐÓNG MỞ
100
AcDbCircle
 10
36.8998419999989
 20
34.27497849999872
 30
0.0
 40
0.5
100
AcDbArc
 50
180.0004150000157
 51
270.0000279999611
  0
ARC
  5
1B3
330
2F
100
AcDbEntity
  8
-15N-THT. THIẾT BỊ ĐÓNG MỞ
100
AcDbCircle
 10
36.8999330000006
 20
32.27497849999873
 30
0.0
 40
0.5
100
AcDbArc
 50
89.99998199998775
 51
180.0007289999743
  0
ARC
  5
1B4
330
2F
100
AcDbEntity
  8
-15N-THT. THIẾT BỊ ĐÓNG MỞ
100
AcDbCircle
 10
35.89979600000152
 20
33.27491749999899
 30
0.0
 40
3.099997999999998
100
AcDbArc
 50
323.3617819999435
 51
359.9999549999694
  0
LINE
  5
1B5
330
2F
100
AcDbEntity
  8
-15N-THT. THIẾT BỊ ĐÓNG MỞ
100
AcDbLine
 10
29.09991499999888
 20
35.87499949999892
 30
0.0
 11
31.39990299999772
 21
35.87499949999892
 31
0.0
  0
LINE
  5
1B6
330
2F
100
AcDbEntity
  8
-15N-THT. THIẾT BỊ ĐÓNG MỞ
100
AcDbLine
 10
43.59990000000107
 20
35.87499949999892
 30
0.0
 11
45.22488399999929
 21
35.87499949999892
 31
0.0
  0
LINE
  5
1B7
330
2F
100
AcDbEntity
  8
-15N-THT. THIẾT BỊ ĐÓNG MỞ
100
AcDbLine
 10
16.90000999999756
 20
-38.12495450000097
 30
0.0
 11
14.60000600000057
 21
-38.12495450000097
 31
0.0
  0
LINE
  5
1B8
330
2F
100
AcDbEntity
  8
-15N-THT. THIẾT BỊ ĐÓNG MỞ
100
AcDbLine
 10
32.74987799999872
 20
-38.12495450000097
 30
0.0
 11
29.09991499999888
 21
-38.12495450000097
 31
0.0
  0
ARC
  5
1B9
330
2F
100
AcDbEntity
  8
-15N-THT. THIẾT BỊ ĐÓNG MỞ
100
AcDbCircle
 10
21.69998200000191
 20
-35.27499350000017
 30
0.0
 40
3.249999
100
AcDbArc
 50
150.5071530000212
 51
29.49273999997912
  0
LINE
  5
1BA
330
2F
100
AcDbEntity
  8
-15N-THT. THIẾT BỊ ĐÓNG MỞ
100
AcDbLine
 10
18.45022600000084
 20
-38.52474950000124
 30
0.0
 11
18.45022600000084
 21
-35.27481450000141
 31
0.0
  0
LINE
  5
1BB
330
2F
100
AcDbEntity
  8
-15N-THT. THIẾT BỊ ĐÓNG MỞ
100
AcDbLine
 10
24.95022600000084
 20
-38.52474950000124
 30
0.0
 11
24.95022600000084
 21
-35.27481450000141
 31
0.0
  0
LINE
  5
1BC
330
2F
100
AcDbEntity
  8
-15N-THT. THIẾT BỊ ĐÓNG MỞ
100
AcDbLine
 10
18.45022600000084
 20
-38.52474950000124
 30
0.0
 11
24.95024099999864
 21
-38.52474950000124
 31
0.0
  0
LINE
  5
1BD
330
2F
100
AcDbEntity
  8
-15N-THT. THIẾT BỊ ĐÓNG MỞ
100
AcDbLine
 10
46.45011199999863
 20
-35.67480850000084
 30
0.0
 11
45.69109399999797
 21
-35.67480850000084
 31
0.0
  0
LINE
  5
1BE
330
2F
100
AcDbEntity
  8
-15N-THT. THIẾT BỊ ĐÓNG MỞ
100
AcDbLine
 10
14.10011300000042
 20
-35.67480850000084
 30
0.0
 11
2.273055999998177
 21
-35.67480850000084
 31
0.0
  0
LINE
  5
1BF
330
2F
100
AcDbEntity
  8
-15N-THT. THIẾT BỊ ĐÓNG MỞ
100
AcDbLine
 10
18.45022600000084
 20
-35.67480850000084
 30
0.0
 11
17.40011600000071
 21
-35.67480850000084
 31
0.0
  0
LINE
  5
1C0
330
2F
100
AcDbEntity
  8
-15N-THT. THIẾT BỊ ĐÓNG MỞ
100
AcDbLine
 10
28.60002199999872
 20
-35.67480850000084
 30
0.0
 11
24.95022600000084
 21
-35.67480850000084
 31
0.0
  0
LINE
  5
1C1
330
2F
100
AcDbEntity
  8
-15N-THT. THIẾT BỊ ĐÓNG MỞ
100
AcDbLine
 10
43.10000600000058
 20
-35.67480850000084
 30
0.0
 11
33.24998499999856
 21
-35.67480850000084
 31
0.0
  0
CIRCLE
  5
1C2
330
2F
100
AcDbEntity
  8
-15N-THT. THIẾT BỊ ĐÓNG MỞ
100
AcDbCircle
 10
49.69992099999945
 20
-35.52499350000108
 30
0.0
 40
3.249999
  0
LINE
  5
1C3
330
2F
100
AcDbEntity
  8
-15N-THT. THIẾT BỊ ĐÓNG MỞ
100
AcDbLine
 10
46.45009600000048
 20
-38.77474950000033
 30
0.0
 11
46.45009600000048
 21
-35.52481450000141
 31
0.0
  0
LINE
  5
1C4
330
2F
100
AcDbEntity
  8
-15N-THT. THIẾT BỊ ĐÓNG MỞ
100
AcDbLine
 10
52.95006600000125
 20
-38.77474950000033
 30
0.0
 11
52.95006600000125
 21
-35.52481450000141
 31
0.0
  0
LINE
  5
1C5
330
2F
100
AcDbEntity
  8
-15N-THT. THIẾT BỊ ĐÓNG MỞ
100
AcDbLine
 10
46.45009600000048
 20
-38.77474950000033
 30
0.0
 11
52.95006600000125
 21
-38.77474950000033
 31
0.0
  0
ARC
  5
1C6
330
2F
100
AcDbEntity
  8
-15N-THT. THIẾT BỊ ĐÓNG MỞ
100
AcDbCircle
 10
21.69998200000191
 20
-35.27499350000017
 30
0.0
 40
3.099997999999998
100
AcDbArc
 50
7.2627560058e-05
 51
31.07546499998363
  0
LINE
  5
1C7
330
2F
100
AcDbEntity
  8
-15N-THT. THIẾT BỊ ĐÓNG MỞ
100
AcDbLine
 10
22.70030199999746
 20
-34.77479550000135
 30
0.0
 11
24.75976599999922
 21
-34.77479550000135
 31
0.0
  0
LINE
  5
1C8
330
2F
100
AcDbEntity
  8
-15N-THT. THIẾT BỊ ĐÓNG MỞ
100
AcDbLine
 10
22.70040900000095
 20
-35.77479550000044
 30
0.0
 11
24.75978100000066
 21
-35.77479550000044
 31
0.0
  0
LINE
  5
1C9
330
2F
100
AcDbEntity
  8
-15N-THT. THIẾT BỊ ĐÓNG MỞ
100
AcDbLine
 10
18.64099200000419
 20
-34.77479550000135
 30
0.0
 11
20.7003790000017
 21
-34.77479550000135
 31
0.0
  0
LINE
  5
1CA
330
2F
100
AcDbEntity
  8
-15N-THT. THIẾT BỊ ĐÓNG MỞ
100
AcDbLine
 10
18.64097599999877
 20
-35.77479550000044
 30
0.0
 11
20.70056199999817
 21
-35.77479550000044
 31
0.0
  0
ARC
  5
1CB
330
2F
100
AcDbEntity
  8
-15N-THT. THIẾT BỊ ĐÓNG MỞ
100
AcDbCircle
 10
21.70022600000084
 20
-35.2750855000013
 30
0.0
 40
1.040264999999998
100
AcDbArc
 50
61.28570300002024
 51
118.7371559999677
  0
ARC
  5
1CC
330
2F
100
AcDbEntity
  8
-15N-THT. THIẾT BỊ ĐÓNG MỞ
100
AcDbCircle
 10
21.70022600000084
 20
-35.2750855000013
 30
0.0
 40
1.040264999999998
100
AcDbArc
 50
241.2742739999767
 51
298.7207549999405
  0
ARC
  5
1CD
330
2F
100
AcDbEntity
  8
-15N-THT. THIẾT BỊ ĐÓNG MỞ
100
AcDbCircle
 10
21.69998200000191
 20
-35.27499350000017
 30
0.0
 40
1.144997999999998
100
AcDbArc
 50
154.10447700004
 51
205.88916799997
  0
ARC
  5
1CE
330
2F
100
AcDbEntity
  8
-15N-THT. THIẾT BỊ ĐÓNG MỞ
100
AcDbCircle
 10
21.69998200000191
 20
-35.27499350000017
 30
0.0
 40
1.144997999999998
100
AcDbArc
 50
334.1108059999805
 51
25.89544299997593
  0
LINE
  5
1CF
330
2F
100
AcDbEntity
  8
-15N-THT. THIẾT BỊ ĐÓNG MỞ
100
AcDbLine
 10
21.2003790000017
 20
-33.67475850000119
 30
0.0
 11
21.2003790000017
 21
-34.24476650000088
 31
0.0
  0
LINE
  5
1D0
330
2F
100
AcDbEntity
  8
-15N-THT. THIẾT BỊ ĐÓNG MỞ
100
AcDbLine
 10
22.2002109999994
 20
-33.67480049999995
 30
0.0
 11
22.2002109999994
 21
-34.2748685000006
 31
0.0
  0
ARC
  5
1D1
330
2F
100
AcDbEntity
  8
-15N-THT. THIẾT BỊ ĐÓNG MỞ
100
AcDbCircle
 10
21.70002799999929
 20
-35.27496350000092
 30
0.0
 40
2.349997999999998
100
AcDbArc
 50
257.716779999995
 51
282.2857899999728
  0
LINE
  5
1D2
330
2F
100
AcDbEntity
  8
-15N-THT. THIẾT BỊ ĐÓNG MỞ
100
AcDbLine
 10
21.20073000000048
 20
-36.27473450000162
 30
0.0
 11
21.20075999999972
 21
-37.57096850000016
 31
0.0
  0
LINE
  5
1D3
330
2F
100
AcDbEntity
  8
-15N-THT. THIẾT BỊ ĐÓNG MỞ
100
AcDbLine
 10
22.20039399999951
 20
-36.27482250000139
 30
0.0
 11
22.20040900000094
 21
-37.57101050000074
 31
0.0
  0
ARC
  5
1D4
330
2F
100
AcDbEntity
  8
-15N-THT. THIẾT BỊ ĐÓNG MỞ
100
AcDbCircle
 10
20.70025700000042
 20
-36.27493250000134
 30
0.0
 40
0.5
100
AcDbArc
 50
0.0012200989759417
 51
89.99992699995617
  0
ARC
  5
1D5
330
2F
100
AcDbEntity
  8
-15N-THT. THIẾT BỊ ĐÓNG MỞ
100
AcDbCircle
 10
20.70007400000031
 20
-34.27493250000134
 30
0.0
 40
0.5
100
AcDbArc
 50
270.0001369999252
 51
1.00000010064e-05
  0
ARC
  5
1D6
330
2F
100
AcDbEntity
  8
-15N-THT. THIẾT BỊ ĐÓNG MỞ
100
AcDbCircle
 10
22.70002799999929
 20
-34.27493250000134
 30
0.0
 40
0.5
100
AcDbArc
 50
180.0004150000157
 51
270.0000279999611
  0
ARC
  5
1D7
330
2F
100
AcDbEntity
  8
-15N-THT. THIẾT BỊ ĐÓNG MỞ
100
AcDbCircle
 10
22.700119000001
 20
-36.27493250000134
 30
0.0
 40
0.5
100
AcDbArc
 50
89.99998199998775
 51
180.0007289999743
  0
ARC
  5
1D8
330
2F
100
AcDbEntity
  8
-15N-THT. THIẾT BỊ ĐÓNG MỞ
100
AcDbCircle
 10
21.69998200000191
 20
-35.27499350000017
 30
0.0
 40
3.099997999999998
100
AcDbArc
 50
148.9245159999643
 51
359.9999280000032
  0
LINE
  5
1D9
330
2F
100
AcDbEntity
  8
-15N-THT. THIẾT BỊ ĐÓNG MỞ
100
AcDbLine
 10
37.5
 20
26.55641149999883
 30
0.0
 11
37.5
 21
19.37499949999983
 31
0.0
  0
LINE
  5
1DA
330
2F
100
AcDbEntity
  8
-15N-THT. THIẾT BỊ ĐÓNG MỞ
  6
DASHED
 62
6
100
AcDbLine
 10
28.30001449999873
 20
39.62495449999915
 30
0.0
 11
28.30001449999873
 21
-39.62495450000006
 31
0.0
  0
LINE
  5
1DB
330
2F
100
AcDbEntity
  8
-15N-THT. THIẾT BỊ ĐÓNG MỞ
  6
DASHED
 62
6
100
AcDbLine
 10
0.0
 20
0.0
 30
0.0
 11
56.0
 21
0.0
 31
0.0
  0
MTEXT
  5
1DC
330
2F
100
AcDbEntity
  8
-15N-THT. THIẾT BỊ ĐÓNG MỞ
 62
3
100
AcDbMText
 10
28.0
 20
5.0
 30
0.0
 40
4.0
 41
17.1824976634341
 46
0.0
 71
5
 72
5
  1
LC1D32
  7
- 04.0
  0
ENDBLK
  5
31
330
2F
100
AcDbEntity
  8
0
100
AcDbBlockEnd
  0
ENDSEC
  0
SECTION
  2
ENTITIES
  0
INSERT
  5
1E0
330
17
100
AcDbEntity
  8
0
100
AcDbBlockReference
  2
06 - N - SC CTT LC1D32
 10
9.10000017029e-05
 20
39.62495450000097
 30
0.0
  0
ENDSEC
  0
SECTION
  2
OBJECTS
  0
DICTIONARY
  5
A
330
0
100
AcDbDictionary
281
1
  3
ACAD_COLOR
350
B
  3
ACAD_GROUP
350
C
  3
ACAD_LAYOUT
350
D
  3
ACAD_MATERIAL
350
E
  3
ACAD_MLEADERSTYLE
350
F
  3
ACAD_MLINESTYLE
350
10
  3
ACAD_PLOTSETTINGS
350
11
  3
ACAD_PLOTSTYLENAME
350
12
  3
ACAD_SCALELIST
350
14
  3
ACAD_TABLESTYLE
350
15
  3
ACAD_VISUALSTYLE
350
16
  3
EZDXF_META
350
2D
  0
DICTIONARY
  5
B
330
A
100
AcDbDictionary
281
1
  0
DICTIONARY
  5
C
330
A
100
AcDbDictionary
281
1
  0
DICTIONARY
  5
D
330
A
100
AcDbDictionary
281
1
  3
Model
350
1A
  3
Layout1
350
1E
  0
DICTIONARY
  5
E
330
A
100
AcDbDictionary
281
1
  3
ByBlock
350
1F
  3
ByLayer
350
20
  3
Global
350
21
  0
DICTIONARY
  5
F
330
A
100
AcDbDictionary
281
1
  3
Standard
350
2C
  0
DICTIONARY
  5
10
330
A
100
AcDbDictionary
281
1
  3
Standard
350
22
  0
DICTIONARY
  5
11
330
A
100
AcDbDictionary
281
1
  0
ACDBDICTIONARYWDFLT
  5
12
330
A
100
AcDbDictionary
281
1
  3
Normal
350
13
100
AcDbDictionaryWithDefault
340
13
  0
ACDBPLACEHOLDER
  5
13
330
12
  0
DICTIONARY
  5
14
330
A
100
AcDbDictionary
281
1
  0
DICTIONARY
  5
15
330
A
100
AcDbDictionary
281
1
  0
DICTIONARY
  5
16
330
A
100
AcDbDictionary
281
1
  0
LAYOUT
  5
1A
330
D
100
AcDbPlotSettings
  1

  4
A3
  6

 40
7.5
 41
20.0
 42
7.5
 43
20.0
 44
420.0
 45
297.0
 46
0.0
 47
0.0
 48
0.0
 49
0.0
140
0.0
141
0.0
142
1.0
143
1.0
 70
1024
 72
1
 73
0
 74
5
  7

 75
16
 76
0
 77
2
 78
300
147
1.0
148
0.0
149
0.0
100
AcDbLayout
  1
Model
 70
1
 71
0
 10
0.0
 20
0.0
 11
420.0
 21
297.0
 12
0.0
 22
0.0
 32
0.0
 14
1e+20
 24
1e+20
 34
1e+20
 15
-1e+20
 25
-1e+20
 35
-1e+20
146
0.0
 13
0.0
 23
0.0
 33
0.0
 16
1.0
 26
0.0
 36
0.0
 17
0.0
 27
1.0
 37
0.0
 76
1
330
17
  0
LAYOUT
  5
1E
330
D
100
AcDbPlotSettings
  1

  4
A3
  6

 40
7.5
 41
20.0
 42
7.5
 43
20.0
 44
420.0
 45
297.0
 46
0.0
 47
0.0
 48
0.0
 49
0.0
140
0.0
141
0.0
142
1.0
143
1.0
 70
0
 72
1
 73
0
 74
5
  7

 75
16
 76
0
 77
2
 78
300
147
1.0
148
0.0
149
0.0
100
AcDbLayout
  1
Layout1
 70
1
 71
1
 10
0.0
 20
0.0
 11
420.0
 21
297.0
 12
0.0
 22
0.0
 32
0.0
 14
1e+20
 24
1e+20
 34
1e+20
 15
-1e+20
 25
-1e+20
 35
-1e+20
146
0.0
 13
0.0
 23
0.0
 33
0.0
 16
1.0
 26
0.0
 36
0.0
 17
0.0
 27
1.0
 37
0.0
 76
1
330
1B
  0
MATERIAL
  5
1F
102
{ACAD_REACTORS
330
E
102
}
330
E
100
AcDbMaterial
  1
ByBlock
  2

 70
0
 40
1.0
 71
1
 41
1.0
 91
-1023410177
 42
1.0
 72
1
  3

 73
1
 74
1
 75
1
 44
0.5
 73
0
 45
1.0
 46
1.0
 77
1
  4

 78
1
 79
1
170
1
 48
1.0
171
1
  6

172
1
173
1
174
1
140
1.0
141
1.0
175
1
  7

176
1
177
1
178
1
143
1.0
179
1
  8

270
1
271
1
272
1
145
1.0
146
1.0
273
1
  9

274
1
275
1
276
1
 42
1.0
 72
1
  3

 73
1
 74
1
 75
1
 94
63
  0
MATERIAL
  5
20
102
{ACAD_REACTORS
330
E
102
}
330
E
100
AcDbMaterial
  1
ByLayer
  2

 70
0
 40
1.0
 71
1
 41
1.0
 91
-1023410177
 42
1.0
 72
1
  3

 73
1
 74
1
 75
1
 44
0.5
 73
0
 45
1.0
 46
1.0
 77
1
  4

 78
1
 79
1
170
1
 48
1.0
171
1
  6

172
1
173
1
174
1
140
1.0
141
1.0
175
1
  7

176
1
177
1
178
1
143
1.0
179
1
  8

270
1
271
1
272
1
145
1.0
146
1.0
273
1
  9

274
1
275
1
276
1
 42
1.0
 72
1
  3

 73
1
 74
1
 75
1
 94
63
  0
MATERIAL
  5
21
102
{ACAD_REACTORS
330
E
102
}
330
E
100
AcDbMaterial
  1
Global
  2

 70
0
 40
1.0
 71
1
 41
1.0
 91
-1023410177
 42
1.0
 72
1
  3

 73
1
 74
1
 75
1
 44
0.5
 73
0
 45
1.0
 46
1.0
 77
1
  4

 78
1
 79
1
170
1
 48
1.0
171
1
  6

172
1
173
1
174
1
140
1.0
141
1.0
175
1
  7

176
1
177
1
178
1
143
1.0
179
1
  8

270
1
271
1
272
1
145
1.0
146
1.0
273
1
  9

274
1
275
1
276
1
 42
1.0
 72
1
  3

 73
1
 74
1
 75
1
 94
63
  0
MLINESTYLE
  5
22
102
{ACAD_REACTORS
330
10
102
}
330
10
100
AcDbMlineStyle
  2
Standard
 70
0
  3

 62
256
 51
90.0
 52
90.0
 71
2
 49
0.5
 62
256
  6
BYLAYER
 49
-0.5
 62
256
  6
BYLAYER
  0
MLEADERSTYLE
  5
2C
102
{ACAD_REACTORS
330
F
102
}
330
F
100
AcDbMLeaderStyle
179
2
170
2
171
1
172
0
 90
2
 40
0.0
 41
0.0
173
1
 91
-1056964608
 92
-2
290
1
 42
2.0
291
1
 43
8.0
  3
Standard
 44
4.0
300

342
29
174
1
175
1
176
0
178
1
 93
-1056964608
 45
4.0
292
0
297
0
 46
4.0
 94
-1056964608
 47
1.0
 49
1.0
140
1.0
294
1
141
0.0
177
0
142
1.0
295
0
296
0
143
3.75
271
0
272
9
273
9
  0
DICTIONARY
  5
2D
330
A
100
AcDbDictionary
280
1
281
1
  3
CREATED_BY_EZDXF
350
2E
  3
WRITTEN_BY_EZDXF
350
1E4
  0
DICTIONARYVAR
  5
2E
330
2D
100
DictionaryVariables
280
0
  1
1.4.4 @ 2026-09-23T12:53:27.840100+00:00
  0
DICTIONARYVAR
  5
1E4
330
2D
100
DictionaryVariables
280
0
  1
1.4.4 @ 2026-09-23T12:53:27.917094+00:00
  0
ENDSEC
  0
EOF
