  0
SECTION
  2
HEADER
  9
$ACADVER
  1
AC1032
  9
$ACADMAINTVER
 90
4
  9
$DWGCODEPAGE
  3
ANSI_1252
  9
$LASTSAVEDBY
  1
ezdxf
  9
$REQUIREDVERSIONS
160
0
  9
$INSBASE
 10
0.0
 20
0.0
 30
0.0
  9
$EXTMIN
 10
1e+20
 20
1e+20
 30
1e+20
  9
$EXTMAX
 10
-1e+20
 20
-1e+20
 30
-1e+20
  9
$LIMMIN
 10
0.0
 20
0.0
  9
$LIMMAX
 10
420.0
 20
297.0
  9
$ORTHOMODE
 70
0
  9
$REGENMODE
 70
1
  9
$FILLMODE
 70
1
  9
$QTEXTMODE
 70
0
  9
$MIRRTEXT
 70
1
  9
$LTSCALE
 40
1.0
  9
$ATTMODE
 70
1
  9
$TEXTSIZE
 40
2.5
  9
$TRACEWID
 40
1.0
  9
$TEXTSTYLE
  7
Standard
  9
$CLAYER
  8
0
  9
$CELTYPE
  6
ByLayer
  9
$CECOLOR
 62
256
  9
$CELTSCALE
 40
1.0
  9
$DISPSILH
 70
0
  9
$DIMSCALE
 40
1.0
  9
$DIMASZ
 40
2.5
  9
$DIMEXO
 40
0.625
  9
$DIMDLI
 40
3.75
  9
$DIMRND
 40
0.0
  9
$DIMDLE
 40
0.0
  9
$DIMEXE
 40
1.25
  9
$DIMTP
 40
0.0
  9
$DIMTM
 40
0.0
  9
$DIMTXT
 40
2.5
  9
$DIMCEN
 40
2.5
  9
$DIMTSZ
 40
0.0
  9
$DIMTOL
 70
0
  9
$DIMLIM
 70
0
  9
$DIMTIH
 70
0
  9
$DIMTOH
 70
0
  9
$DIMSE1
 70
0
  9
$DIMSE2
 70
0
  9
$DIMTAD
 70
1
  9
$DIMZIN
 70
8
  9
$DIMBLK
  1

  9
$DIMASO
 70
1
  9
$DIMSHO
 70
1
  9
$DIMPOST
  1

  9
$DIMAPOST
  1

  9
$DIMALT
 70
0
  9
$DIMALTD
 70
3
  9
$DIMALTF
 40
0.03937007874
  9
$DIMLFAC
 40
1.0
  9
$DIMTOFL
 70
1
  9
$DIMTVP
 40
0.0
  9
$DIMTIX
 70
0
  9
$DIMSOXD
 70
0
  9
$DIMSAH
 70
0
  9
$DIMBLK1
  1

  9
$DIMBLK2
  1

  9
$DIMSTYLE
  2
ISO-25
  9
$DIMCLRD
 70
0
  9
$DIMCLRE
 70
0
  9
$DIMCLRT
 70
0
  9
$DIMTFAC
 40
1.0
  9
$DIMGAP
 40
0.625
  9
$DIMJUST
 70
0
  9
$DIMSD1
 70
0
  9
$DIMSD2
 70
0
  9
$DIMTOLJ
 70
0
  9
$DIMTZIN
 70
8
  9
$DIMALTZ
 70
0
  9
$DIMALTTZ
 70
0
  9
$DIMUPT
 70
0
  9
$DIMDEC
 70
2
  9
$DIMTDEC
 70
2
  9
$DIMALTU
 70
2
  9
$DIMALTTD
 70
3
  9
$DIMTXSTY
  7
Standard
  9
$DIMAUNIT
 70
0
  9
$DIMADEC
 70
0
  9
$DIMALTRND
 40
0.0
  9
$DIMAZIN
 70
0
  9
$DIMDSEP
 70
44
  9
$DIMATFIT
 70
3
  9
$DIMFRAC
 70
0
  9
$DIMLDRBLK
  1

  9
$DIMLUNIT
 70
2
  9
$DIMLWD
 70
-2
  9
$DIMLWE
 70
-2
  9
$DIMTMOVE
 70
0
  9
$DIMFXL
 40
1.0
  9
$DIMFXLON
 70
0
  9
$DIMJOGANG
 40
0.785398163397
  9
$DIMTFILL
 70
0
  9
$DIMTFILLCLR
 70
0
  9
$DIMARCSYM
 70
0
  9
$DIMLTYPE
  6

  9
$DIMLTEX1
  6

  9
$DIMLTEX2
  6

  9
$DIMTXTDIRECTION
 70
0
  9
$LUNITS
 70
2
  9
$LUPREC
 70
4
  9
$SKETCHINC
 40
1.0
  9
$FILLETRAD
 40
10.0
  9
$AUNITS
 70
0
  9
$AUPREC
 70
2
  9
$MENU
  1
.
  9
$ELEVATION
 40
0.0
  9
$PELEVATION
 40
0.0
  9
$THICKNESS
 40
0.0
  9
$LIMCHECK
 70
0
  9
$CHAMFERA
 40
0.0
  9
$CHAMFERB
 40
0.0
  9
$CHAMFERC
 40
0.0
  9
$CHAMFERD
 40
0.0
  9
$SKPOLY
 70
0
  9
$TDCREATE
 40
2461307.83
  9
$TDUCREATE
 40
2458532.153996898
  9
$TDUPDATE
 40
2461307.83
  9
$TDUUPDATE
 40
2458532.1544311
  9
$TDINDWG
 40
0.0
  9
$TDUSRTIMER
 40
0.0
  9
$USRTIMER
 70
1
  9
$ANGBASE
 50
0.0
  9
$ANGDIR
 70
0
  9
$PDMODE
 70
0
  9
$PDSIZE
 40
0.0
  9
$PLINEWID
 40
0.0
  9
$SPLFRAME
 70
0
  9
$SPLINETYPE
 70
6
  9
$SPLINESEGS
 70
8
  9
$HANDSEED
  5
D3
  9
$SURFTAB1
 70
6
  9
$SURFTAB2
 70
6
  9
$SURFTYPE
 70
6
  9
$SURFU
 70
6
  9
$SURFV
 70
6
  9
$UCSBASE
  2

  9
$UCSNAME
  2

  9
$UCSORG
 10
0.0
 20
0.0
 30
0.0
  9
$UCSXDIR
 10
1.0
 20
0.0
 30
0.0
  9
$UCSYDIR
 10
0.0
 20
1.0
 30
0.0
  9
$UCSORTHOREF
  2

  9
$UCSORTHOVIEW
 70
0
  9
$UCSORGTOP
 10
0.0
 20
0.0
 30
0.0
  9
$UCSORGBOTTOM
 10
0.0
 20
0.0
 30
0.0
  9
$UCSORGLEFT
 10
0.0
 20
0.0
 30
0.0
  9
$UCSORGRIGHT
 10
0.0
 20
0.0
 30
0.0
  9
$UCSORGFRONT
 10
0.0
 20
0.0
 30
0.0
  9
$UCSORGBACK
 10
0.0
 20
0.0
 30
0.0
  9
$PUCSBASE
  2

  9
$PUCSNAME
  2

  9
$PUCSORG
 10
0.0
 20
0.0
 30
0.0
  9
$PUCSXDIR
 10
1.0
 20
0.0
 30
0.0
  9
$PUCSYDIR
 10
0.0
 20
1.0
 30
0.0
  9
$PUCSORTHOREF
  2

  9
$PUCSORTHOVIEW
 70
0
  9
$PUCSORGTOP
 10
0.0
 20
0.0
 30
0.0
  9
$PUCSORGBOTTOM
 10
0.0
 20
0.0
 30
0.0
  9
$PUCSORGLEFT
 10
0.0
 20
0.0
 30
0.0
  9
$PUCSORGRIGHT
 10
0.0
 20
0.0
 30
0.0
  9
$PUCSORGFRONT
 10
0.0
 20
0.0
 30
0.0
  9
$PUCSORGBACK
 10
0.0
 20
0.0
 30
0.0
  9
$USERI1
 70
0
  9
$USERI2
 70
0
  9
$USERI3
 70
0
  9
$USERI4
 70
0
  9
$USERI5
 70
0
  9
$USERR1
 40
0.0
  9
$USERR2
 40
0.0
  9
$USERR3
 40
0.0
  9
$USERR4
 40
0.0
  9
$USERR5
 40
0.0
  9
$WORLDVIEW
 70
1
  9
$SHADEDGE
 70
3
  9
$SHADEDIF
 70
70
  9
$TILEMODE
 70
1
  9
$MAXACTVP
 70
64
  9
$PINSBASE
 10
0.0
 20
0.0
 30
0.0
  9
$PLIMCHECK
 70
0
  9
$PEXTMIN
 10
1e+20
 20
1e+20
 30
1e+20
  9
$PEXTMAX
 10
-1e+20
 20
-1e+20
 30
-1e+20
  9
$PLIMMIN
 10
0.0
 20
0.0
  9
$PLIMMAX
 10
420.0
 20
297.0
  9
$UNITMODE
 70
0
  9
$VISRETAIN
 70
1
  9
$PLINEGEN
 70
0
  9
$PSLTSCALE
 70
1
  9
$TREEDEPTH
 70
3020
  9
$CMLSTYLE
  2
Standard
  9
$CMLJUST
 70
0
  9
$CMLSCALE
 40
20.0
  9
$PROXYGRAPHICS
 70
1
  9
$MEASUREMENT
 70
1
  9
$CELWEIGHT
370
-1
  9
$ENDCAPS
280
0
  9
$JOINSTYLE
280
0
  9
$LWDISPLAY
290
0
  9
$INSUNITS
 70
0
  9
$HYPERLINKBASE
  1

  9
$STYLESHEET
  1

  9
$XEDIT
290
1
  9
$CEPSNTYPE
380
0
  9
$PSTYLEMODE
290
1
  9
$FINGERPRINTGUID
  2
{D47751C9-A20F-4EEE-BD14-1B4346F276FC}
  9
$VERSIONGUID
  2
{C38E9E25-20E3-45C3-B52B-BA892839FD35}
  9
$EXTNAMES
290
1
  9
$PSVPSCALE
 40
0.0
  9
$OLESTARTUP
290
0
  9
$SORTENTS
280
127
  9
$INDEXCTL
280
0
  9
$HIDETEXT
280
1
  9
$XCLIPFRAME
280
1
  9
$HALOGAP
280
0
  9
$OBSCOLOR
 70
257
  9
$OBSLTYPE
280
0
  9
$INTERSECTIONDISPLAY
280
0
  9
$INTERSECTIONCOLOR
 70
257
  9
$DIMASSOC
280
2
  9
$PROJECTNAME
  1

  9
$CAMERADISPLAY
290
0
  9
$LENSLENGTH
 40
50.0
  9
$CAMERAHEIGHT
 40
0.0
  9
$STEPSPERSEC
 40
24.0
  9
$STEPSIZE
 40
100.0
  9
$3DDWFPREC
 40
2.0
  9
$PSOLWIDTH
 40
0.005
  9
$PSOLHEIGHT
 40
0.08
  9
$LOFTANG1
 40
1.570796326795
  9
$LOFTANG2
 40
1.570796326795
  9
$LOFTMAG1
 40
0.0
  9
$LOFTMAG2
 40
0.0
  9
$LOFTPARAM
 70
7
  9
$LOFTNORMALS
280
1
  9
$LATITUDE
 40
37.795
  9
$LONGITUDE
 40
-122.394
  9
$NORTHDIRECTION
 40
0.0
  9
$TIMEZONE
 70
-8000
  9
$LIGHTGLYPHDISPLAY
280
1
  9
$TILEMODELIGHTSYNCH
280
1
  9
$CMATERIAL
347
20
  9
$SOLIDHIST
280
0
  9
$SHOWHIST
280
1
  9
$DWFFRAME
280
2
  9
$DGNFRAME
280
2
  9
$REALWORLDSCALE
290
1
  9
$INTERFERECOLOR
 62
256
  9
$CSHADOW
280
0
  9
$SHADOWPLANELOCATION
 40
0.0
  0
ENDSEC
  0
SECTION
  2
CLASSES
  0
CLASS
  1
ACDBDICTIONARYWDFLT
  2
AcDbDictionaryWithDefault
  3
ObjectDBX Classes
 90
0
 91
0
280
0
281
0
  0
CLASS
  1
SUN
  2
AcDbSun
  3
SCENEOE
 90
1153
 91
0
280
0
281
0
  0
CLASS
  1
VISUALSTYLE
  2
AcDbVisualStyle
  3
ObjectDBX Classes
 90
4095
 91
0
280
0
281
0
  0
CLASS
  1
MATERIAL
  2
AcDbMaterial
  3
ObjectDBX Classes
 90
1153
 91
0
280
0
281
0
  0
CLASS
  1
SCALE
  2
AcDbScale
  3
ObjectDBX Classes
 90
1153
 91
0
280
0
281
0
  0
CLASS
  1
TABLESTYLE
  2
AcDbTableStyle
  3
ObjectDBX Classes
 90
4095
 91
0
280
0
281
0
  0
CLASS
  1
MLEADERSTYLE
  2
AcDbMLeaderStyle
  3
ACDB_MLEADERSTYLE_CLASS
 90
4095
 91
0
280
0
281
0
  0
CLASS
  1
DICTIONARYVAR
  2
AcDbDictionaryVar
  3
ObjectDBX Classes
 90
0
 91
0
280
0
281
0
  0
CLASS
  1
CELLSTYLEMAP
  2
AcDbCellStyleMap
  3
ObjectDBX Classes
 90
1152
 91
0
280
0
281
0
  0
CLASS
  1
MENTALRAYRENDERSETTINGS
  2
AcDbMentalRayRenderSettings
  3
SCENEOE
 90
1024
 91
0
280
0
281
0
  0
CLASS
  1
ACDBDETAILVIEWSTYLE
  2
AcDbDetailViewStyle
  3
ObjectDBX Classes
 90
1025
 91
0
280
0
281
0
  0
CLASS
  1
ACDBSECTIONVIEWSTYLE
  2
AcDbSectionViewStyle
  3
ObjectDBX Classes
 90
1025
 91
0
280
0
281
0
  0
CLASS
  1
RASTERVARIABLES
  2
AcDbRasterVariables
  3
ISM
 90
0
 91
0
280
0
281
0
  0
CLASS
  1
LAYOUT
  2
AcDbLayout
  3
ObjectDBX Classes
 90
0
 91
0
280
0
281
0
  0
CLASS
  1
ACDBPLACEHOLDER
  2
AcDbPlaceHolder
  3
ObjectDBX Classes
 90
0
 91
0
280
0
281
0
  0
ENDSEC
  0
SECTION
  2
TABLES
  0
TABLE
  2
VPORT
  5
8
330
0
100
AcDbSymbolTable
 70
1
  0
VPORT
  5
23
330
8
100
AcDbSymbolTableRecord
100
AcDbViewportTableRecord
  2
*Active
 70
0
 10
0.0
 20
0.0
 11
1.0
 21
1.0
 12
0.0
 22
0.0
 13
0.0
 23
0.0
 14
0.5
 24
0.5
 15
0.5
 25
0.5
 16
0.0
 26
0.0
 36
1.0
 17
0.0
 27
0.0
 37
0.0
 40
1000.0
 41
1.34
 42
50.0
 43
0.0
 44
0.0
 50
0.0
 51
0.0
 71
0
 72
1000
 73
1
 74
3
 75
0
 76
0
 77
0
 78
0
281
0
 65
0
146
0.0
  0
ENDTAB
  0
TABLE
  2
LTYPE
  5
2
330
0
100
AcDbSymbolTable
 70
3
  0
LTYPE
  5
24
330
2
100
AcDbSymbolTableRecord
100
AcDbLinetypeTableRecord
  2
ByBlock
 70
0
  3

 72
65
 73
0
 40
0.0
  0
LTYPE
  5
25
330
2
100
AcDbSymbolTableRecord
100
AcDbLinetypeTableRecord
  2
ByLayer
 70
0
  3

 72
65
 73
0
 40
0.0
  0
LTYPE
  5
26
330
2
100
AcDbSymbolTableRecord
100
AcDbLinetypeTableRecord
  2
Continuous
 70
0
  3

 72
65
 73
0
 40
0.0
  0
ENDTAB
  0
TABLE
  2
LAYER
  5
1
330
0
100
AcDbSymbolTable
 70
4
  0
LAYER
  5
27
330
1
100
AcDbSymbolTableRecord
100
AcDbLayerTableRecord
  2
0
 70
0
 62
7
  6
Continuous
370
-3
390
13
347
21
  0
LAYER
  5
28
330
1
100
AcDbSymbolTableRecord
100
AcDbLayerTableRecord
  2
Defpoints
 70
0
 62
7
  6
Continuous
290
0
370
-3
390
13
347
21
  0
LAYER
  5
CC
330
1
100
AcDbSymbolTableRecord
100
AcDbLayerTableRecord
  2
ALPHA
 70
0
 62
255
  6
CONTINUOUS
370
-3
390
13
347
21
  0
LAYER
  5
CD
330
1
100
AcDbSymbolTableRecord
100
AcDbLayerTableRecord
  2
HACHURES
 70
0
 62
9
  6
CONTINUOUS
370
-3
390
52BE9
347
104A6D
  0
ENDTAB
  0
TABLE
  2
STYLE
  5
5
330
0
100
AcDbSymbolTable
 70
1
  0
STYLE
  5
29
330
5
100
AcDbSymbolTableRecord
100
AcDbTextStyleTableRecord
  2
Standard
 70
0
 40
0.0
 41
1.0
 50
0.0
 71
0
 42
2.5
  3
txt
  4

  0
ENDTAB
  0
TABLE
  2
VIEW
  5
7
330
0
100
AcDbSymbolTable
 70
0
  0
ENDTAB
  0
TABLE
  2
UCS
  5
6
330
0
100
AcDbSymbolTable
 70
0
  0
ENDTAB
  0
TABLE
  2
APPID
  5
3
330
0
100
AcDbSymbolTable
 70
3
  0
APPID
  5
2A
330
3
100
AcDbSymbolTableRecord
100
AcDbRegAppTableRecord
  2
ACAD
 70
0
  0
APPID
  5
D0
330
3
100
AcDbSymbolTableRecord
100
AcDbRegAppTableRecord
  2
HATCHBACKGROUNDCOLOR
 70
0
  0
APPID
  5
D1
330
3
100
AcDbSymbolTableRecord
100
AcDbRegAppTableRecord
  2
EZDXF
 70
0
  0
ENDTAB
  0
TABLE
  2
DIMSTYLE
  5
4
330
0
100
AcDbSymbolTable
 70
1
100
AcDbDimStyleTable
  0
DIMSTYLE
105
2B
330
4
100
AcDbSymbolTableRecord
100
AcDbDimStyleTableRecord
  2
Standard
 70
0
 40
1.0
 41
2.5
 42
0.625
 43
3.75
 44
1.25
 45
0.0
 46
0.0
 47
0.0
 48
0.0
 49
2.5
140
2.5
141
2.5
142
0.0
143
0.03937007874
144
1.0
145
0.0
146
1.0
147
0.625
148
0.0
 69
0
 70
0
 71
0
 72
0
 73
0
 74
0
 75
0
 76
0
 77
1
 78
8
 79
3
170
0
171
3
172
1
173
0
174
0
175
0
176
0
177
0
178
0
179
2
271
2
272
2
273
2
274
3
275
0
276
0
277
2
278
44
279
0
280
0
281
0
282
0
283
0
284
8
285
0
286
0
288
0
289
3
290
0
371
-2
372
-2
  0
ENDTAB
  0
TABLE
  2
BLOCK_RECORD
  5
9
330
0
100
AcDbSymbolTable
 70
3
  0
BLOCK_RECORD
  5
17
330
9
100
AcDbSymbolTableRecord
100
AcDbBlockTableRecord
  2
*Model_Space
340
1A
 70
0
280
1
281
0
  0
BLOCK_RECORD
  5
1B
330
9
100
AcDbSymbolTableRecord
100
AcDbBlockTableRecord
  2
*Paper_Space
340
1E
 70
0
280
1
281
0
  0
BLOCK_RECORD
  5
2F
330
9
100
AcDbSymbolTableRecord
100
AcDbBlockTableRecord
  2
RT632GEHR67Y5GH
340
0
 70
0
280
1
281
0
  0
ENDTAB
  0
ENDSEC
  0
SECTION
  2
BLOCKS
  0
BLOCK
  5
18
330
17
100
AcDbEntity
  8
0
100
AcDbBlockBegin
  2
*Model_Space
 70
0
 10
0.0
 20
0.0
 30
0.0
  3
*Model_Space
  1

  0
ENDBLK
  5
19
330
17
100
AcDbEntity
  8
0
100
AcDbBlockEnd
  0
BLOCK
  5
1C
330
1B
100
AcDbEntity
  8
0
100
AcDbBlockBegin
  2
*Paper_Space
 70
0
 10
0.0
 20
0.0
 30
0.0
  3
*Paper_Space
  1

  0
ENDBLK
  5
1D
330
1B
100
AcDbEntity
  8
0
100
AcDbBlockEnd
  0
BLOCK
  5
30
330
2F
100
AcDbEntity
  8
0
100
AcDbBlockBegin
  2
RT632GEHR67Y5GH
 70
0
 10
0.0
 20
0.0
 30
0.0
  3
RT632GEHR67Y5GH
  1

  0
ARC
  5
32
330
2F
100
AcDbEntity
  8
ALPHA
100
AcDbCircle
 10
161318.0454723392
 20
61701.5588413261
 30
0.0
 40
1.0
100
AcDbArc
 50
14.99916000026384
 51
89.99998199904977
  0
ARC
  5
33
330
2F
100
AcDbEntity
  8
ALPHA
100
AcDbCircle
 10
161322.1707393392
 20
61685.2588683261
 30
0.0
 40
1.0
100
AcDbArc
 50
180.0009069998464
 51
270.00002799944
  0
LINE
  5
34
330
2F
100
AcDbEntity
  8
ALPHA
100
AcDbLine
 10
161319.0114073391
 20
61701.8176533261
 30
0.0
 11
161321.1707393391
 21
61693.7588993261
 31
0.0
  0
LINE
  5
35
330
2F
100
AcDbEntity
  8
ALPHA
100
AcDbLine
 10
161321.1707393391
 20
61685.2588683261
 30
0.0
 11
161321.1707393391
 21
61693.7588993261
 31
0.0
  0
ARC
  5
36
330
2F
100
AcDbEntity
  8
ALPHA
100
AcDbCircle
 10
161391.5707023392
 20
61638.75891432611
 30
0.0
 40
0.5
100
AcDbArc
 50
270.00002799944
 51
1.00001573371e-05
  0
ARC
  5
37
330
2F
100
AcDbEntity
  8
ALPHA
100
AcDbCircle
 10
161372.5707023391
 20
61638.75891432611
 30
0.0
 40
0.5
100
AcDbArc
 50
179.999964000184
 51
270.0000009988485
  0
ARC
  5
38
330
2F
100
AcDbEntity
  8
ALPHA
100
AcDbCircle
 10
161391.5707023392
 20
61692.75891432611
 30
0.0
 40
0.5
100
AcDbArc
 50
0.0
 51
89.99998199904977
  0
ARC
  5
39
330
2F
100
AcDbEntity
  8
ALPHA
100
AcDbCircle
 10
161372.5707023391
 20
61692.75891432611
 30
0.0
 40
0.5
100
AcDbArc
 50
89.99998199904977
 51
179.999964000184
  0
LINE
  5
3A
330
2F
100
AcDbEntity
  8
ALPHA
100
AcDbLine
 10
161392.0707023391
 20
61692.75891432611
 30
0.0
 11
161392.0707023391
 21
61638.75891432611
 31
0.0
  0
LINE
  5
3B
330
2F
100
AcDbEntity
  8
ALPHA
100
AcDbLine
 10
161372.0707023391
 20
61692.75891432611
 30
0.0
 11
161372.0707023391
 21
61638.75891432611
 31
0.0
  0
LINE
  5
3C
330
2F
100
AcDbEntity
  8
ALPHA
100
AcDbLine
 10
161372.5707023391
 20
61638.25891432611
 30
0.0
 11
161391.5707023392
 21
61638.25891432611
 31
0.0
  0
LINE
  5
3D
330
2F
100
AcDbEntity
  8
ALPHA
100
AcDbLine
 10
161372.5707023391
 20
61693.25891432611
 30
0.0
 11
161391.5707023392
 21
61693.25891432611
 31
0.0
  0
LINE
  5
3E
330
2F
100
AcDbEntity
  8
ALPHA
100
AcDbLine
 10
161358.3706603391
 20
61669.0843383261
 30
0.0
 11
161358.3706603391
 21
61679.25886832611
 31
0.0
  0
LINE
  5
3F
330
2F
100
AcDbEntity
  8
ALPHA
100
AcDbLine
 10
161358.1706473391
 20
61652.3089503261
 30
0.0
 11
161358.1706473391
 21
61679.2088813261
 31
0.0
  0
LINE
  5
40
330
2F
100
AcDbEntity
  8
ALPHA
100
AcDbLine
 10
161402.1707083391
 20
61650.25891432611
 30
0.0
 11
161400.9706353392
 21
61650.25891432611
 31
0.0
  0
ARC
  5
41
330
2F
100
AcDbEntity
  8
ALPHA
100
AcDbCircle
 10
161391.9495933391
 20
61635.5090823261
 30
0.0
 40
1.5
100
AcDbArc
 50
269.9997000002825
 51
359.499985999883
  0
ARC
  5
42
330
2F
100
AcDbEntity
  8
ALPHA
100
AcDbCircle
 10
161328.3279503392
 20
61646.2590673261
 30
0.0
 40
1.0
100
AcDbArc
 50
89.99998199904977
 51
105.0000060000972
  0
ARC
  5
43
330
2F
100
AcDbEntity
  8
ALPHA
100
AcDbCircle
 10
161324.5109343392
 20
61645.2363013261
 30
0.0
 40
1.0
100
AcDbArc
 50
105.0000060000972
 51
178.4999450000813
  0
LINE
  5
44
330
2F
100
AcDbEntity
  8
ALPHA
100
AcDbLine
 10
161324.2521223392
 20
61646.2022513261
 30
0.0
 11
161328.0691313392
 21
61647.2250153261
 31
0.0
  0
ARC
  5
45
330
2F
100
AcDbEntity
  8
ALPHA
100
AcDbCircle
 10
161322.1966183391
 20
61633.2590823261
 30
0.0
 40
1.0
100
AcDbArc
 50
270.00002799944
 51
358.4999640001697
  0
ARC
  5
46
330
2F
100
AcDbEntity
  8
ALPHA
100
AcDbCircle
 10
161359.3706903391
 20
61662.43358232611
 30
0.0
 40
1.0
100
AcDbArc
 50
91.999971000929
 51
179.9995269998117
  0
ARC
  5
47
330
2F
100
AcDbEntity
  8
ALPHA
100
AcDbCircle
 10
161359.3706903391
 20
61669.0843383261
 30
0.0
 40
1.0
100
AcDbArc
 50
179.999472000197
 51
267.9999569997606
  0
LINE
  5
48
330
2F
100
AcDbEntity
  8
ALPHA
100
AcDbLine
 10
161358.1706323392
 20
61679.2088813261
 30
0.0
 11
161356.6706473392
 21
61679.2088813261
 31
0.0
  0
LINE
  5
49
330
2F
100
AcDbEntity
  8
ALPHA
100
AcDbLine
 10
161358.1706323392
 20
61652.3089483261
 30
0.0
 11
161356.6706473392
 21
61652.3089483261
 31
0.0
  0
LINE
  5
4A
330
2F
100
AcDbEntity
  8
ALPHA
100
AcDbLine
 10
161324.0707023391
 20
61675.7589143261
 30
0.0
 11
161324.0707023391
 21
61680.3531223261
 31
0.0
  0
LINE
  5
4B
330
2F
100
AcDbEntity
  8
ALPHA
100
AcDbLine
 10
161324.0707023391
 20
61651.1647063261
 30
0.0
 11
161324.0707023391
 21
61655.7589143261
 31
0.0
  0
LINE
  5
4C
330
2F
100
AcDbEntity
  8
ALPHA
100
AcDbLine
 10
161358.3706603391
 20
61652.2590523261
 30
0.0
 11
161358.3706603391
 21
61662.43358232611
 31
0.0
  0
LINE
  5
4D
330
2F
100
AcDbEntity
  8
ALPHA
100
AcDbLine
 10
161356.6706473392
 20
61647.2590823261
 30
0.0
 11
161356.6706473392
 21
61652.25896032611
 31
0.0
  0
LINE
  5
4E
330
2F
100
AcDbEntity
  8
ALPHA
100
AcDbLine
 10
161356.6706473392
 20
61679.2088813261
 30
0.0
 11
161356.6706473392
 21
61684.2588683261
 31
0.0
  0
LINE
  5
4F
330
2F
100
AcDbEntity
  8
ALPHA
100
AcDbLine
 10
161400.4751373391
 20
61649.7590673261
 30
0.0
 11
161394.9590233392
 21
61649.7590673261
 31
0.0
  0
LINE
  5
50
330
2F
100
AcDbEntity
  8
ALPHA
100
AcDbLine
 10
161402.1707083391
 20
61658.15887832611
 30
0.0
 11
161402.1707083391
 21
61650.2588993261
 31
0.0
  0
LINE
  5
51
330
2F
100
AcDbEntity
  8
ALPHA
100
AcDbLine
 10
161394.4614653391
 20
61649.2590673261
 30
0.0
 11
161393.5706723391
 21
61649.2590673261
 31
0.0
  0
ARC
  5
52
330
2F
100
AcDbEntity
  8
ALPHA
100
AcDbCircle
 10
161394.1614463392
 20
61639.1089973261
 30
0.0
 40
0.3
100
AcDbArc
 50
270.0000829994716
 51
359.998070000066
  0
LINE
  5
53
330
2F
100
AcDbEntity
  8
ALPHA
100
AcDbLine
 10
161394.4614343391
 20
61649.2590673261
 30
0.0
 11
161394.4614343391
 21
61639.1090273261
 31
0.0
  0
LINE
  5
54
330
2F
100
AcDbEntity
  8
ALPHA
100
AcDbLine
 10
161394.1614623392
 20
61638.80905532611
 30
0.0
 11
161393.4785393392
 21
61638.80905532611
 31
0.0
  0
LINE
  5
55
330
2F
100
AcDbEntity
  8
ALPHA
100
AcDbLine
 10
161393.5706413391
 20
61682.2589143261
 30
0.0
 11
161394.4614493391
 21
61682.2589143261
 31
0.0
  0
ARC
  5
56
330
2F
100
AcDbEntity
  8
ALPHA
100
AcDbCircle
 10
161394.1614463392
 20
61692.4089083261
 30
0.0
 40
0.3
100
AcDbArc
 50
0.00189446619172
 51
89.99992699901819
  0
LINE
  5
57
330
2F
100
AcDbEntity
  8
ALPHA
100
AcDbLine
 10
161394.4614343391
 20
61692.40886232611
 30
0.0
 11
161394.4614343391
 21
61682.2588683261
 31
0.0
  0
LINE
  5
58
330
2F
100
AcDbEntity
  8
ALPHA
100
AcDbLine
 10
161393.4785243392
 20
61692.70889632611
 30
0.0
 11
161394.1614623392
 21
61692.70889632611
 31
0.0
  0
LINE
  5
59
330
2F
100
AcDbEntity
  8
ALPHA
100
AcDbLine
 10
161365.2040493392
 20
61667.8799773261
 30
0.0
 11
161365.2040493392
 21
61663.6378823261
 31
0.0
  0
LINE
  5
5A
330
2F
100
AcDbEntity
  8
ALPHA
100
AcDbLine
 10
161367.8707053391
 20
61667.7868533261
 30
0.0
 11
161367.8707053391
 21
61663.73100632611
 31
0.0
  0
LINE
  5
5B
330
2F
100
AcDbEntity
  8
ALPHA
100
AcDbLine
 10
161370.3707053391
 20
61666.81248832611
 30
0.0
 11
161370.3707053391
 21
61631.98738055654
 31
0.0
  0
LINE
  5
5C
330
2F
100
AcDbEntity
  8
ALPHA
100
AcDbLine
 10
161401.3706603391
 20
61670.6588623261
 30
0.0
 11
161401.3706603391
 21
61660.8588753261
 31
0.0
  0
LINE
  5
5D
330
2F
100
AcDbEntity
  8
ALPHA
100
AcDbLine
 10
161396.7707153391
 20
61660.85892032611
 30
0.0
 11
161401.3706603391
 21
61660.85892032611
 31
0.0
  0
LINE
  5
5E
330
2F
100
AcDbEntity
  8
ALPHA
100
AcDbLine
 10
161396.7707153391
 20
61670.6589233261
 30
0.0
 11
161401.3706603391
 21
61670.6589233261
 31
0.0
  0
LINE
  5
5F
330
2F
100
AcDbEntity
  8
ALPHA
100
AcDbLine
 10
161316.1707543391
 20
61646.50924032609
 30
0.0
 11
161317.1706473392
 21
61647.5091343261
 31
0.0
  0
ARC
  5
60
330
2F
100
AcDbEntity
  8
ALPHA
100
AcDbCircle
 10
161316.6707693391
 20
61628.7592353261
 30
0.0
 40
0.5
100
AcDbArc
 50
180.0000319998364
 51
270.00002799944
  0
ARC
  5
61
330
2F
100
AcDbEntity
  8
ALPHA
100
AcDbCircle
 10
161321.0707633391
 20
61628.7592353261
 30
0.0
 40
0.5
100
AcDbArc
 50
270.00002799944
 51
359.9999829999827
  0
LINE
  5
62
330
2F
100
AcDbEntity
  8
ALPHA
100
AcDbLine
 10
161321.0707633391
 20
61628.25923532611
 30
0.0
 11
161316.6707693391
 21
61628.25923532611
 31
0.0
  0
ARC
  5
63
330
2F
100
AcDbEntity
  8
ALPHA
100
AcDbCircle
 10
161316.6707693391
 20
61647.1677433261
 30
0.0
 40
0.5
100
AcDbArc
 50
130.0001929998927
 51
180.0002920001753
  0
LINE
  5
64
330
2F
100
AcDbEntity
  8
ALPHA
100
AcDbLine
 10
161319.9348843391
 20
61650.55930132611
 30
0.0
 11
161316.3494043392
 21
61647.5507233261
 31
0.0
  0
LINE
  5
65
330
2F
100
AcDbEntity
  8
ALPHA
100
AcDbLine
 10
161320.4349073391
 20
61650.55921532609
 30
0.0
 11
161320.9708033391
 21
61648.5592263261
 31
0.0
  0
LINE
  5
66
330
2F
100
AcDbEntity
  8
ALPHA
100
AcDbLine
 10
161320.4348693391
 20
61650.55934532611
 30
0.0
 11
161319.9348693391
 21
61650.55934532611
 31
0.0
  0
LINE
  5
67
330
2F
100
AcDbEntity
  8
ALPHA
100
AcDbLine
 10
161321.5707633391
 20
61648.5593603261
 30
0.0
 11
161320.9707733391
 21
61648.5593603261
 31
0.0
  0
ARC
  5
68
330
2F
100
AcDbEntity
  8
ALPHA
100
AcDbCircle
 10
161391.9496853392
 20
61696.00888432611
 30
0.0
 40
1.499997
100
AcDbArc
 50
0.5000059998513326
 51
89.99998199904977
  0
ARC
  5
69
330
2F
100
AcDbEntity
  8
ALPHA
100
AcDbCircle
 10
161371.6551293391
 20
61633.00906732611
 30
0.0
 40
0.999999
100
AcDbArc
 50
90.00020100032768
 51
110.0001969990594
  0
ARC
  5
6A
330
2F
100
AcDbEntity
  8
ALPHA
100
AcDbCircle
 10
161375.6854943391
 20
61698.5088843261
 30
0.0
 40
0.999999
100
AcDbArc
 50
239.9998700002599
 51
269.9998089998297
  0
ARC
  5
6B
330
2F
100
AcDbEntity
  8
ALPHA
100
AcDbCircle
 10
161366.4027643391
 20
61701.5588723261
 30
0.0
 40
0.999999
100
AcDbArc
 50
60.0001520002637
 51
90.00020100032768
  0
ARC
  5
6C
330
2F
100
AcDbEntity
  8
ALPHA
100
AcDbCircle
 10
161366.4943783391
 20
61633.25906732611
 30
0.0
 40
0.999999
100
AcDbArc
 50
269.9998089998297
 51
289.9997510007997
  0
LINE
  5
6D
330
2F
100
AcDbEntity
  8
ALPHA
100
AcDbLine
 10
161366.8363353391
 20
61632.31938132609
 30
0.0
 11
161371.3130273391
 21
61633.94876232611
 31
0.0
  0
LINE
  5
6E
330
2F
100
AcDbEntity
  8
ALPHA
100
AcDbLine
 10
161366.9026423391
 20
61702.4248993261
 30
0.0
 11
161375.1853573391
 21
61697.6428713261
 31
0.0
  0
LINE
  5
6F
330
2F
100
AcDbEntity
  8
ALPHA
100
AcDbLine
 10
161393.5705653392
 20
61682.1588473261
 30
0.0
 11
161393.4495933391
 21
61696.02192232611
 31
0.0
  0
ARC
  5
70
330
2F
100
AcDbEntity
  8
ALPHA
100
AcDbCircle
 10
161394.9590393392
 20
61682.2588843261
 30
0.0
 40
0.5
100
AcDbArc
 50
191.5377519996779
 51
270.0000829994716
  0
LINE
  5
71
330
2F
100
AcDbEntity
  8
ALPHA
100
AcDbLine
 10
161394.4613433391
 20
61682.15888532611
 30
0.0
 11
161394.5705343391
 21
61677.98871532609
 31
0.0
  0
ARC
  5
72
330
2F
100
AcDbEntity
  8
ALPHA
100
AcDbCircle
 10
161394.9590083391
 20
61649.25905232609
 30
0.0
 40
0.5
100
AcDbArc
 50
89.99992699901819
 51
168.4622450006246
  0
LINE
  5
73
330
2F
100
AcDbEntity
  8
ALPHA
100
AcDbLine
 10
161394.5705193391
 20
61653.52916332611
 30
0.0
 11
161394.4613123391
 21
61649.35916132611
 31
0.0
  0
LINE
  5
74
330
2F
100
AcDbEntity
  8
ALPHA
100
AcDbLine
 10
161393.4495323392
 20
61635.4959923261
 30
0.0
 11
161393.5705193392
 21
61649.35913032611
 31
0.0
  0
ARC
  5
75
330
2F
100
AcDbEntity
  8
ALPHA
100
AcDbCircle
 10
161399.8706753392
 20
61680.7588993261
 30
0.0
 40
0.999999
100
AcDbArc
 50
89.99992699901819
 51
179.9999090001523
  0
LINE
  5
76
330
2F
100
AcDbEntity
  8
ALPHA
100
AcDbLine
 10
161396.7706843391
 20
61673.25891432611
 30
0.0
 11
161398.8706603391
 21
61673.25891432611
 31
0.0
  0
ARC
  5
77
330
2F
100
AcDbEntity
  8
ALPHA
100
AcDbCircle
 10
161401.4706503391
 20
61660.4588963261
 30
0.0
 40
0.3
100
AcDbArc
 50
359.9999829999827
 51
89.99993699917553
  0
ARC
  5
78
330
2F
100
AcDbEntity
  8
ALPHA
100
AcDbCircle
 10
161400.8706753391
 20
61681.2588993261
 30
0.0
 40
0.5
100
AcDbArc
 50
359.9999829999827
 51
89.99993699917553
  0
ARC
  5
79
330
2F
100
AcDbEntity
  8
ALPHA
100
AcDbCircle
 10
161401.0706723391
 20
61671.0589023261
 30
0.0
 40
0.3
100
AcDbArc
 50
270.00002799944
 51
359.9999829999827
  0
LINE
  5
7A
330
2F
100
AcDbEntity
  8
ALPHA
100
AcDbLine
 10
161401.3706753391
 20
61681.25891432611
 30
0.0
 11
161401.3706753391
 21
61671.0589333261
 31
0.0
  0
LINE
  5
7B
330
2F
100
AcDbEntity
  8
ALPHA
100
AcDbLine
 10
161401.0706413391
 20
61670.7589143261
 30
0.0
 11
161396.7706843391
 21
61670.7589143261
 31
0.0
  0
LINE
  5
7C
330
2F
100
AcDbEntity
  8
ALPHA
100
AcDbLine
 10
161398.8706753391
 20
61680.75891432611
 30
0.0
 11
161398.8706753391
 21
61673.25891432611
 31
0.0
  0
LINE
  5
7D
330
2F
100
AcDbEntity
  8
ALPHA
100
AcDbLine
 10
161396.4240813392
 20
61679.05896732611
 30
0.0
 11
161394.5705193391
 21
61677.98880732611
 31
0.0
  0
LINE
  5
7E
330
2F
100
AcDbEntity
  8
ALPHA
100
AcDbLine
 10
161396.7475523391
 20
61679.05891732611
 30
0.0
 11
161394.5426263392
 21
61679.05891732611
 31
0.0
  0
LINE
  5
7F
330
2F
100
AcDbEntity
  8
ALPHA
100
AcDbLine
 10
161393.5706413391
 20
61682.15890832611
 30
0.0
 11
161394.4614493391
 21
61682.15890832611
 31
0.0
  0
LINE
  5
80
330
2F
100
AcDbEntity
  8
ALPHA
100
AcDbLine
 10
161394.9590083391
 20
61681.75891432611
 30
0.0
 11
161400.8706603391
 21
61681.75891432611
 31
0.0
  0
ARC
  5
81
330
2F
100
AcDbEntity
  8
ALPHA
100
AcDbCircle
 10
161400.4706503391
 20
61650.2590523261
 30
0.0
 40
0.5
100
AcDbArc
 50
270.00002799944
 51
359.9999829999827
  0
LINE
  5
82
330
2F
100
AcDbEntity
  8
ALPHA
100
AcDbLine
 10
161400.9706663392
 20
61658.1589393261
 30
0.0
 11
161400.9706663392
 21
61650.25891432611
 31
0.0
  0
LINE
  5
83
330
2F
100
AcDbEntity
  8
ALPHA
100
AcDbLine
 10
161401.7706693392
 20
61660.4589263261
 30
0.0
 11
161401.7706693392
 21
61658.1589393261
 31
0.0
  0
LINE
  5
84
330
2F
100
AcDbEntity
  8
ALPHA
100
AcDbLine
 10
161402.1707083391
 20
61658.1589233261
 30
0.0
 11
161400.9706353392
 21
61658.1589233261
 31
0.0
  0
LINE
  5
85
330
2F
100
AcDbEntity
  8
ALPHA
100
AcDbLine
 10
161396.7706843391
 20
61660.7589143261
 30
0.0
 11
161401.4706353392
 21
61660.7589143261
 31
0.0
  0
LINE
  5
86
330
2F
100
AcDbEntity
  8
ALPHA
100
AcDbLine
 10
161401.7706533392
 20
61659.2589143261
 30
0.0
 11
161398.8706603391
 21
61659.2589143261
 31
0.0
  0
LINE
  5
87
330
2F
100
AcDbEntity
  8
ALPHA
100
AcDbLine
 10
161398.8706753391
 20
61659.2589453261
 30
0.0
 11
161398.8706753391
 21
61649.7590673261
 31
0.0
  0
LINE
  5
88
330
2F
100
AcDbEntity
  8
ALPHA
100
AcDbLine
 10
161396.7474453391
 20
61652.4590713261
 30
0.0
 11
161396.7705623392
 21
61655.1089973261
 31
0.0
  0
LINE
  5
89
330
2F
100
AcDbEntity
  8
ALPHA
100
AcDbLine
 10
161394.5705343391
 20
61653.5291933261
 30
0.0
 11
161396.4240963392
 21
61652.45903332611
 31
0.0
  0
LINE
  5
8A
330
2F
100
AcDbEntity
  8
ALPHA
100
AcDbLine
 10
161394.5426263392
 20
61652.45894232611
 30
0.0
 11
161396.7475523391
 21
61652.45894232611
 31
0.0
  0
LINE
  5
8B
330
2F
100
AcDbEntity
  8
ALPHA
100
AcDbLine
 10
161394.4614653391
 20
61649.3589973261
 30
0.0
 11
161393.5706573392
 21
61649.3589973261
 31
0.0
  0
LINE
  5
8C
330
2F
100
AcDbEntity
  8
ALPHA
100
AcDbLine
 10
161396.7706993391
 20
61681.75891432611
 30
0.0
 11
161396.7706993391
 21
61649.7590673261
 31
0.0
  0
LINE
  5
8D
330
2F
100
AcDbEntity
  8
ALPHA
100
AcDbLine
 10
161391.9495933391
 20
61634.00908232611
 30
0.0
 11
161371.6551143392
 21
61634.00908232611
 31
0.0
  0
ARC
  5
8E
330
2F
100
AcDbEntity
  8
ALPHA
100
AcDbCircle
 10
161353.6707393391
 20
61634.2590673261
 30
0.0
 40
1.999997
100
AcDbArc
 50
180.0000319998364
 51
270.00002799944
  0
LINE
  5
8F
330
2F
100
AcDbEntity
  8
ALPHA
100
AcDbLine
 10
161368.8102043391
 20
61663.7638123261
 30
0.0
 11
161359.3357473391
 21
61663.43296032611
 31
0.0
  0
ARC
  5
90
330
2F
100
AcDbEntity
  8
ALPHA
100
AcDbCircle
 10
161361.4707113391
 20
61652.0590093261
 30
0.0
 40
0.2
100
AcDbArc
 50
359.9999829999827
 51
89.99993699917553
  0
ARC
  5
91
330
2F
100
AcDbEntity
  8
ALPHA
100
AcDbCircle
 10
161361.4707113391
 20
61647.4590793261
 30
0.0
 40
0.2
100
AcDbArc
 50
270.0000829994716
 51
359.9999829999827
  0
ARC
  5
92
330
2F
100
AcDbEntity
  8
ALPHA
100
AcDbCircle
 10
161352.6707393391
 20
61645.90521632611
 30
0.0
 40
0.999999
100
AcDbArc
 50
94.99995399953171
 51
179.9995819998433
  0
LINE
  5
93
330
2F
100
AcDbEntity
  8
ALPHA
100
AcDbLine
 10
161356.6705943392
 20
61647.25906732611
 30
0.0
 11
161352.5835273392
 21
61646.90149632611
 31
0.0
  0
LINE
  5
94
330
2F
100
AcDbEntity
  8
ALPHA
100
AcDbLine
 10
161361.6707083391
 20
61652.0590393261
 30
0.0
 11
161361.6707083391
 21
61647.45911032611
 31
0.0
  0
LINE
  5
95
330
2F
100
AcDbEntity
  8
ALPHA
100
AcDbLine
 10
161361.4706963391
 20
61652.2590523261
 30
0.0
 11
161358.3706903391
 21
61652.2590523261
 31
0.0
  0
LINE
  5
96
330
2F
100
AcDbEntity
  8
ALPHA
100
AcDbLine
 10
161351.6707243392
 20
61645.9052313261
 30
0.0
 11
161351.6707243392
 21
61634.25908232611
 31
0.0
  0
LINE
  5
97
330
2F
100
AcDbEntity
  8
ALPHA
100
AcDbLine
 10
161359.3357253391
 20
61668.0849303261
 30
0.0
 11
161368.8101893391
 21
61667.7540773261
 31
0.0
  0
ARC
  5
98
330
2F
100
AcDbEntity
  8
ALPHA
100
AcDbCircle
 10
161368.6707243392
 20
61665.7588993261
 30
0.0
 40
1.999997
100
AcDbArc
 50
270.00002799944
 51
85.998649000073
  0
ARC
  5
99
330
2F
100
AcDbEntity
  8
ALPHA
100
AcDbCircle
 10
161361.4707113391
 20
61679.4588963261
 30
0.0
 40
0.2
100
AcDbArc
 50
270.00002799944
 51
359.9999829999827
  0
ARC
  5
9A
330
2F
100
AcDbEntity
  8
ALPHA
100
AcDbCircle
 10
161361.4707113391
 20
61684.05887232609
 30
0.0
 40
0.2
100
AcDbArc
 50
359.9999829999827
 51
89.99993699917553
  0
ARC
  5
9B
330
2F
100
AcDbEntity
  8
ALPHA
100
AcDbCircle
 10
161352.6707393391
 20
61685.6126593261
 30
0.0
 40
0.999999
100
AcDbArc
 50
180.0004689997918
 51
265.0001109995336
  0
LINE
  5
9C
330
2F
100
AcDbEntity
  8
ALPHA
100
AcDbLine
 10
161352.5835273392
 20
61684.61645832611
 30
0.0
 11
161356.6705863391
 21
61684.25888432611
 31
0.0
  0
LINE
  5
9D
330
2F
100
AcDbEntity
  8
ALPHA
100
AcDbLine
 10
161361.6707083391
 20
61684.05890232611
 30
0.0
 11
161361.6707083391
 21
61679.4589263261
 31
0.0
  0
LINE
  5
9E
330
2F
100
AcDbEntity
  8
ALPHA
100
AcDbLine
 10
161358.3706903391
 20
61679.2589143261
 30
0.0
 11
161361.4706963391
 21
61679.2589143261
 31
0.0
  0
LINE
  5
9F
330
2F
100
AcDbEntity
  8
ALPHA
100
AcDbLine
 10
161375.6854793392
 20
61697.5088993261
 30
0.0
 11
161391.9496703392
 21
61697.5088993261
 31
0.0
  0
ARC
  5
A0
330
2F
100
AcDbEntity
  8
ALPHA
100
AcDbCircle
 10
161353.6707393391
 20
61700.5588873261
 30
0.0
 40
1.999997
100
AcDbArc
 50
89.99992699901819
 51
179.9999090001523
  0
LINE
  5
A1
330
2F
100
AcDbEntity
  8
ALPHA
100
AcDbLine
 10
161351.6707243392
 20
61700.5588873261
 30
0.0
 11
161351.6707243392
 21
61685.6126743261
 31
0.0
  0
LINE
  5
A2
330
2F
100
AcDbEntity
  8
ALPHA
100
AcDbLine
 10
161321.5707483391
 20
61628.75925032611
 30
0.0
 11
161321.5707483391
 21
61632.2590823261
 31
0.0
  0
LINE
  5
A3
330
2F
100
AcDbEntity
  8
ALPHA
100
AcDbLine
 10
161316.1708153391
 20
61632.2590823261
 30
0.0
 11
161366.4943783391
 21
61632.2590823261
 31
0.0
  0
ARC
  5
A4
330
2F
100
AcDbEntity
  8
ALPHA
100
AcDbCircle
 10
161357.0656523392
 20
61632.25157532611
 30
0.0
 40
0.9925319999999999
100
AcDbArc
 50
225.0001049999934
 51
329.9999340000059
  0
LINE
  5
A5
330
2F
100
AcDbEntity
  8
ALPHA
100
AcDbLine
 10
161355.6545883392
 20
61632.2591663261
 30
0.0
 11
161356.3637243392
 21
61631.5500333261
 31
0.0
  0
LINE
  5
A6
330
2F
100
AcDbEntity
  8
ALPHA
100
AcDbLine
 10
161357.9250883391
 20
61631.7555193261
 30
0.0
 11
161358.2158593392
 21
61632.25914732611
 31
0.0
  0
LINE
  5
A7
330
2F
100
AcDbEntity
  8
ALPHA
100
AcDbLine
 10
161322.1707393392
 20
61684.25888432611
 30
0.0
 11
161361.4706963391
 21
61684.25888432611
 31
0.0
  0
LINE
  5
A8
330
2F
100
AcDbEntity
  8
ALPHA
100
AcDbLine
 10
161328.3279353392
 20
61647.25906732611
 30
0.0
 11
161361.4706963391
 21
61647.25906732611
 31
0.0
  0
LINE
  5
A9
330
2F
100
AcDbEntity
  8
HACHURES
100
AcDbLine
 10
161351.6707013391
 20
61651.2591093261
 30
0.0
 11
161356.6706933392
 21
61649.9193643261
 31
0.0
  0
LINE
  5
AA
330
2F
100
AcDbEntity
  8
HACHURES
100
AcDbLine
 10
161351.6706933391
 20
61680.2589103261
 30
0.0
 11
161356.6706783392
 21
61681.5986513261
 31
0.0
  0
LINE
  5
AB
330
2F
100
AcDbEntity
  8
ALPHA
100
AcDbLine
 10
161321.170830339
 20
61680.2589373261
 30
0.0
 11
161321.5708323391
 21
61680.6589393261
 31
0.0
  0
LINE
  5
AC
330
2F
100
AcDbEntity
  8
ALPHA
100
AcDbLine
 10
161321.1707393391
 20
61677.00891432611
 30
0.0
 11
161321.1707393391
 21
61680.2588993261
 31
0.0
  0
LINE
  5
AD
330
2F
100
AcDbEntity
  8
ALPHA
100
AcDbLine
 10
161321.1707853392
 20
61677.0089303261
 30
0.0
 11
161321.5707943391
 21
61677.0089303261
 31
0.0
  0
LINE
  5
AE
330
2F
100
AcDbEntity
  8
ALPHA
100
AcDbLine
 10
161319.5161143391
 20
61681.00890732611
 30
0.0
 11
161320.6708003391
 21
61683.00887232611
 31
0.0
  0
LINE
  5
AF
330
2F
100
AcDbEntity
  8
ALPHA
100
AcDbLine
 10
161316.1707853391
 20
61681.0089303261
 30
0.0
 11
161319.5160913392
 21
61681.0089303261
 31
0.0
  0
ARC
  5
B0
330
2F
100
AcDbEntity
  8
ALPHA
100
AcDbCircle
 10
161323.2707603392
 20
61674.7588993261
 30
0.0
 40
0.999999
100
AcDbArc
 50
89.99998199904977
 51
179.999964000184
  0
ARC
  5
B1
330
2F
100
AcDbEntity
  8
ALPHA
100
AcDbCircle
 10
161323.2707913392
 20
61656.7589143261
 30
0.0
 40
0.999999
100
AcDbArc
 50
180.0000319998364
 51
270.00002799944
  0
ARC
  5
B2
330
2F
100
AcDbEntity
  8
ALPHA
100
AcDbCircle
 10
161324.2707913391
 20
61649.25905232609
 30
0.0
 40
1.999995999999999
100
AcDbArc
 50
89.99998199904977
 51
179.999964000184
  0
ARC
  5
B3
330
2F
100
AcDbEntity
  8
ALPHA
100
AcDbCircle
 10
161324.2707603391
 20
61682.2588533261
 30
0.0
 40
1.999995999999999
100
AcDbArc
 50
180.0000319998364
 51
270.00002799944
  0
LINE
  5
B4
330
2F
100
AcDbEntity
  8
ALPHA
100
AcDbLine
 10
161322.2707453391
 20
61654.9589263261
 30
0.0
 11
161322.2707453391
 21
61676.55891732611
 31
0.0
  0
LINE
  5
B5
330
2F
100
AcDbEntity
  8
ALPHA
100
AcDbLine
 10
161322.2707453391
 20
61647.50906732611
 30
0.0
 11
161322.2707453391
 21
61651.25906732611
 31
0.0
  0
LINE
  5
B6
330
2F
100
AcDbEntity
  8
ALPHA
100
AcDbLine
 10
161322.2707453391
 20
61680.2588993261
 30
0.0
 11
161322.2707453391
 21
61683.0088533261
 31
0.0
  0
LINE
  5
B7
330
2F
100
AcDbEntity
  8
ALPHA
100
AcDbLine
 10
161321.5707483391
 20
61647.50906732611
 30
0.0
 11
161321.5707483391
 21
61654.9589263261
 31
0.0
  0
LINE
  5
B8
330
2F
100
AcDbEntity
  8
ALPHA
100
AcDbLine
 10
161321.5708093391
 20
61654.9589263261
 30
0.0
 11
161322.2708213391
 21
61654.9589263261
 31
0.0
  0
LINE
  5
B9
330
2F
100
AcDbEntity
  8
ALPHA
100
AcDbLine
 10
161321.5707943391
 20
61676.55891732611
 30
0.0
 11
161322.2707913391
 21
61676.55891732611
 31
0.0
  0
LINE
  5
BA
330
2F
100
AcDbEntity
  8
ALPHA
100
AcDbLine
 10
161316.1707393391
 20
61628.75925032611
 30
0.0
 11
161316.1707393391
 21
61647.1677583261
 31
0.0
  0
LINE
  5
BB
330
2F
100
AcDbEntity
  8
ALPHA
100
AcDbLine
 10
161321.5707483391
 20
61676.55891732611
 30
0.0
 11
161321.5707483391
 21
61682.9980963261
 31
0.0
  0
LINE
  5
BC
330
2F
100
AcDbEntity
  8
ALPHA
100
AcDbLine
 10
161317.1708153391
 20
61647.50906732611
 30
0.0
 11
161322.2708213391
 21
61647.50906732611
 31
0.0
  0
LINE
  5
BD
330
2F
100
AcDbEntity
  8
ALPHA
100
AcDbLine
 10
161316.1707853391
 20
61683.0089143261
 30
0.0
 11
161322.2707913391
 21
61683.0089143261
 31
0.0
  0
LINE
  5
BE
330
2F
100
AcDbEntity
  8
ALPHA
100
AcDbLine
 10
161351.6706933391
 20
61651.25906732611
 30
0.0
 11
161351.6706933391
 21
61680.25891432611
 31
0.0
  0
LINE
  5
BF
330
2F
100
AcDbEntity
  8
ALPHA
100
AcDbLine
 10
161321.5707943391
 20
61680.2589303261
 30
0.0
 11
161351.6706933391
 21
61680.2589303261
 31
0.0
  0
LINE
  5
C0
330
2F
100
AcDbEntity
  8
ALPHA
100
AcDbLine
 10
161321.5708093391
 20
61651.25906732611
 30
0.0
 11
161351.6707243392
 21
61651.25906732611
 31
0.0
  0
LINE
  5
C1
330
2F
100
AcDbEntity
  8
ALPHA
100
AcDbLine
 10
161323.2707913392
 20
61675.7589303261
 30
0.0
 11
161351.6706933391
 21
61675.7589303261
 31
0.0
  0
LINE
  5
C2
330
2F
100
AcDbEntity
  8
ALPHA
100
AcDbLine
 10
161323.2708213392
 20
61655.7589303261
 30
0.0
 11
161351.6707243392
 21
61655.7589303261
 31
0.0
  0
LINE
  5
C3
330
2F
100
AcDbEntity
  8
ALPHA
100
AcDbLine
 10
161323.1962823391
 20
61633.23296332611
 30
0.0
 11
161323.5112853392
 21
61645.26252932609
 31
0.0
  0
LINE
  5
C4
330
2F
100
AcDbEntity
  8
ALPHA
100
AcDbLine
 10
161316.1707393391
 20
61681.0088993261
 30
0.0
 11
161316.1707393391
 21
61702.55881032611
 31
0.0
  0
LINE
  5
C5
330
2F
100
AcDbEntity
  8
ALPHA
100
AcDbLine
 10
161316.1707853391
 20
61702.55885632609
 30
0.0
 11
161366.4027643391
 21
61702.55885632609
 31
0.0
  0
LWPOLYLINE
  5
C6
330
2F
100
AcDbEntity
  8
0
  6
ByBlock
370
-2
100
AcDbPolyline
 90
5
 70
0
 10
161366.3300966021
 20
61582.2590823261
 10
161316.300186307
 20
61582.2590823261
 10
161316.300186307
 20
61632.40198895014
 10
161382.0345083069
 20
61632.40198895014
 10
161382.0345083069
 20
61605.54669995046
  0
LWPOLYLINE
  5
C7
330
2F
100
AcDbEntity
  8
0
  6
ByBlock
370
-2
100
AcDbPolyline
 90
3
 70
0
 10
161366.3300966021
 20
61582.2590823261
 10
161366.3300966021
 20
61595.28283195529
 10
161378.7178971284
 20
61595.28283195529
  0
LINE
  5
C8
330
2F
100
AcDbEntity
  8
0
  6
ByBlock
370
-2
100
AcDbLine
 10
161378.7178971284
 20
61595.28283195529
 30
0.0
 11
161378.7178971284
 21
61605.54669995046
 31
0.0
  0
LINE
  5
C9
330
2F
100
AcDbEntity
  8
0
  6
ByBlock
370
-2
100
AcDbLine
 10
161378.7178971284
 20
61605.54669995046
 30
0.0
 11
161382.0345083069
 21
61605.54669995046
 31
0.0
  0
LWPOLYLINE
  5
CA
330
2F
100
AcDbEntity
  8
0
  6
ByBlock
370
-2
100
AcDbPolyline
 90
4
 70
1
 10
161382.0345083069
 20
61623.79398216184
 10
161385.5245817085
 20
61623.79398216184
 10
161385.5245817085
 20
61621.27868358664
 10
161382.0345083069
 20
61621.27868358664
  0
LWPOLYLINE
  5
CB
330
2F
100
AcDbEntity
  8
0
  6
ByBlock
370
-2
100
AcDbPolyline
 90
4
 70
1
 10
161382.0345083069
 20
61612.1441778228
 10
161385.5245817085
 20
61612.1441778228
 10
161385.5245817085
 20
61609.6288792476
 10
161382.0345083069
 20
61609.6288792476
  0
ENDBLK
  5
31
330
2F
100
AcDbEntity
  8
0
100
AcDbBlockEnd
  0
ENDSEC
  0
SECTION
  2
ENTITIES
  0
INSERT
  5
CE
330
17
100
AcDbEntity
  8
0
100
AcDbBlockReference
  2
RT632GEHR67Y5GH
 10
-161316.1707393391
 20
-61582.2590823261
 30
0.0
  0
ENDSEC
  0
SECTION
  2
OBJECTS
  0
DICTIONARY
  5
A
330
0
100
AcDbDictionary
281
1
  3
ACAD_COLOR
350
B
  3
ACAD_GROUP
350
C
  3
ACAD_LAYOUT
350
D
  3
ACAD_MATERIAL
350
E
  3
ACAD_MLEADERSTYLE
350
F
  3
ACAD_MLINESTYLE
350
10
  3
ACAD_PLOTSETTINGS
350
11
  3
ACAD_PLOTSTYLENAME
350
12
  3
ACAD_SCALELIST
350
14
  3
ACAD_TABLESTYLE
350
15
  3
ACAD_VISUALSTYLE
350
16
  3
EZDXF_META
350
2D
  0
DICTIONARY
  5
B
330
A
100
AcDbDictionary
281
1
  0
DICTIONARY
  5
C
330
A
100
AcDbDictionary
281
1
  0
DICTIONARY
  5
D
330
A
100
AcDbDictionary
281
1
  3
Model
350
1A
  3
Layout1
350
1E
  0
DICTIONARY
  5
E
330
A
100
AcDbDictionary
281
1
  3
ByBlock
350
1F
  3
ByLayer
350
20
  3
Global
350
21
  0
DICTIONARY
  5
F
330
A
100
AcDbDictionary
281
1
  3
Standard
350
2C
  0
DICTIONARY
  5
10
330
A
100
AcDbDictionary
281
1
  3
Standard
350
22
  0
DICTIONARY
  5
11
330
A
100
AcDbDictionary
281
1
  0
ACDBDICTIONARYWDFLT
  5
12
330
A
100
AcDbDictionary
281
1
  3
Normal
350
13
100
AcDbDictionaryWithDefault
340
13
  0
ACDBPLACEHOLDER
  5
13
330
12
  0
DICTIONARY
  5
14
330
A
100
AcDbDictionary
281
1
  0
DICTIONARY
  5
15
330
A
100
AcDbDictionary
281
1
  0
DICTIONARY
  5
16
330
A
100
AcDbDictionary
281
1
  0
LAYOUT
  5
1A
330
D
100
AcDbPlotSettings
  1

  4
A3
  6

 40
7.5
 41
20.0
 42
7.5
 43
20.0
 44
420.0
 45
297.0
 46
0.0
 47
0.0
 48
0.0
 49
0.0
140
0.0
141
0.0
142
1.0
143
1.0
 70
1024
 72
1
 73
0
 74
5
  7

 75
16
 76
0
 77
2
 78
300
147
1.0
148
0.0
149
0.0
100
AcDbLayout
  1
Model
 70
1
 71
0
 10
0.0
 20
0.0
 11
420.0
 21
297.0
 12
0.0
 22
0.0
 32
0.0
 14
1e+20
 24
1e+20
 34
1e+20
 15
-1e+20
 25
-1e+20
 35
-1e+20
146
0.0
 13
0.0
 23
0.0
 33
0.0
 16
1.0
 26
0.0
 36
0.0
 17
0.0
 27
1.0
 37
0.0
 76
1
330
17
  0
LAYOUT
  5
1E
330
D
100
AcDbPlotSettings
  1

  4
A3
  6

 40
7.5
 41
20.0
 42
7.5
 43
20.0
 44
420.0
 45
297.0
 46
0.0
 47
0.0
 48
0.0
 49
0.0
140
0.0
141
0.0
142
1.0
143
1.0
 70
0
 72
1
 73
0
 74
5
  7

 75
16
 76
0
 77
2
 78
300
147
1.0
148
0.0
149
0.0
100
AcDbLayout
  1
Layout1
 70
1
 71
1
 10
0.0
 20
0.0
 11
420.0
 21
297.0
 12
0.0
 22
0.0
 32
0.0
 14
1e+20
 24
1e+20
 34
1e+20
 15
-1e+20
 25
-1e+20
 35
-1e+20
146
0.0
 13
0.0
 23
0.0
 33
0.0
 16
1.0
 26
0.0
 36
0.0
 17
0.0
 27
1.0
 37
0.0
 76
1
330
1B
  0
MATERIAL
  5
1F
102
{ACAD_REACTORS
330
E
102
}
330
E
100
AcDbMaterial
  1
ByBlock
  2

 70
0
 40
1.0
 71
1
 41
1.0
 91
-1023410177
 42
1.0
 72
1
  3

 73
1
 74
1
 75
1
 44
0.5
 73
0
 45
1.0
 46
1.0
 77
1
  4

 78
1
 79
1
170
1
 48
1.0
171
1
  6

172
1
173
1
174
1
140
1.0
141
1.0
175
1
  7

176
1
177
1
178
1
143
1.0
179
1
  8

270
1
271
1
272
1
145
1.0
146
1.0
273
1
  9

274
1
275
1
276
1
 42
1.0
 72
1
  3

 73
1
 74
1
 75
1
 94
63
  0
MATERIAL
  5
20
102
{ACAD_REACTORS
330
E
102
}
330
E
100
AcDbMaterial
  1
ByLayer
  2

 70
0
 40
1.0
 71
1
 41
1.0
 91
-1023410177
 42
1.0
 72
1
  3

 73
1
 74
1
 75
1
 44
0.5
 73
0
 45
1.0
 46
1.0
 77
1
  4

 78
1
 79
1
170
1
 48
1.0
171
1
  6

172
1
173
1
174
1
140
1.0
141
1.0
175
1
  7

176
1
177
1
178
1
143
1.0
179
1
  8

270
1
271
1
272
1
145
1.0
146
1.0
273
1
  9

274
1
275
1
276
1
 42
1.0
 72
1
  3

 73
1
 74
1
 75
1
 94
63
  0
MATERIAL
  5
21
102
{ACAD_REACTORS
330
E
102
}
330
E
100
AcDbMaterial
  1
Global
  2

 70
0
 40
1.0
 71
1
 41
1.0
 91
-1023410177
 42
1.0
 72
1
  3

 73
1
 74
1
 75
1
 44
0.5
 73
0
 45
1.0
 46
1.0
 77
1
  4

 78
1
 79
1
170
1
 48
1.0
171
1
  6

172
1
173
1
174
1
140
1.0
141
1.0
175
1
  7

176
1
177
1
178
1
143
1.0
179
1
  8

270
1
271
1
272
1
145
1.0
146
1.0
273
1
  9

274
1
275
1
276
1
 42
1.0
 72
1
  3

 73
1
 74
1
 75
1
 94
63
  0
MLINESTYLE
  5
22
102
{ACAD_REACTORS
330
10
102
}
330
10
100
AcDbMlineStyle
  2
Standard
 70
0
  3

 62
256
 51
90.0
 52
90.0
 71
2
 49
0.5
 62
256
  6
BYLAYER
 49
-0.5
 62
256
  6
BYLAYER
  0
MLEADERSTYLE
  5
2C
102
{ACAD_REACTORS
330
F
102
}
330
F
100
AcDbMLeaderStyle
179
2
170
2
171
1
172
0
 90
2
 40
0.0
 41
0.0
173
1
 91
-1056964608
 92
-2
290
1
 42
2.0
291
1
 43
8.0
  3
Standard
 44
4.0
300

342
29
174
1
175
1
176
0
178
1
 93
-1056964608
 45
4.0
292
0
297
0
 46
4.0
 94
-1056964608
 47
1.0
 49
1.0
140
1.0
294
1
141
0.0
177
0
142
1.0
295
0
296
0
143
3.75
271
0
272
9
273
9
  0
DICTIONARY
  5
2D
330
A
100
AcDbDictionary
280
1
281
1
  3
CREATED_BY_EZDXF
350
2E
  3
WRITTEN_BY_EZDXF
350
D2
  0
DICTIONARYVAR
  5
2E
330
2D
100
DictionaryVariables
280
0
  1
1.4.4 @ 2026-09-23T12:55:12.882478+00:00
  0
DICTIONARYVAR
  5
D2
330
2D
100
DictionaryVariables
280
0
  1
1.4.4 @ 2026-09-23T12:55:12.907361+00:00
  0
ENDSEC
  0
EOF
