  0
SECTION
  2
HEADER
  9
$ACADVER
  1
AC1032
  9
$ACADMAINTVER
 90
4
  9
$DWGCODEPAGE
  3
ANSI_1252
  9
$LASTSAVEDBY
  1
ezdxf
  9
$REQUIREDVERSIONS
160
0
  9
$INSBASE
 10
0.0
 20
0.0
 30
0.0
  9
$EXTMIN
 10
1e+20
 20
1e+20
 30
1e+20
  9
$EXTMAX
 10
-1e+20
 20
-1e+20
 30
-1e+20
  9
$LIMMIN
 10
0.0
 20
0.0
  9
$LIMMAX
 10
420.0
 20
297.0
  9
$ORTHOMODE
 70
0
  9
$REGENMODE
 70
1
  9
$FILLMODE
 70
1
  9
$QTEXTMODE
 70
0
  9
$MIRRTEXT
 70
1
  9
$LTSCALE
 40
1.0
  9
$ATTMODE
 70
1
  9
$TEXTSIZE
 40
2.5
  9
$TRACEWID
 40
1.0
  9
$TEXTSTYLE
  7
Standard
  9
$CLAYER
  8
0
  9
$CELTYPE
  6
ByLayer
  9
$CECOLOR
 62
256
  9
$CELTSCALE
 40
1.0
  9
$DISPSILH
 70
0
  9
$DIMSCALE
 40
1.0
  9
$DIMASZ
 40
2.5
  9
$DIMEXO
 40
0.625
  9
$DIMDLI
 40
3.75
  9
$DIMRND
 40
0.0
  9
$DIMDLE
 40
0.0
  9
$DIMEXE
 40
1.25
  9
$DIMTP
 40
0.0
  9
$DIMTM
 40
0.0
  9
$DIMTXT
 40
2.5
  9
$DIMCEN
 40
2.5
  9
$DIMTSZ
 40
0.0
  9
$DIMTOL
 70
0
  9
$DIMLIM
 70
0
  9
$DIMTIH
 70
0
  9
$DIMTOH
 70
0
  9
$DIMSE1
 70
0
  9
$DIMSE2
 70
0
  9
$DIMTAD
 70
1
  9
$DIMZIN
 70
8
  9
$DIMBLK
  1

  9
$DIMASO
 70
1
  9
$DIMSHO
 70
1
  9
$DIMPOST
  1

  9
$DIMAPOST
  1

  9
$DIMALT
 70
0
  9
$DIMALTD
 70
3
  9
$DIMALTF
 40
0.03937007874
  9
$DIMLFAC
 40
1.0
  9
$DIMTOFL
 70
1
  9
$DIMTVP
 40
0.0
  9
$DIMTIX
 70
0
  9
$DIMSOXD
 70
0
  9
$DIMSAH
 70
0
  9
$DIMBLK1
  1

  9
$DIMBLK2
  1

  9
$DIMSTYLE
  2
ISO-25
  9
$DIMCLRD
 70
0
  9
$DIMCLRE
 70
0
  9
$DIMCLRT
 70
0
  9
$DIMTFAC
 40
1.0
  9
$DIMGAP
 40
0.625
  9
$DIMJUST
 70
0
  9
$DIMSD1
 70
0
  9
$DIMSD2
 70
0
  9
$DIMTOLJ
 70
0
  9
$DIMTZIN
 70
8
  9
$DIMALTZ
 70
0
  9
$DIMALTTZ
 70
0
  9
$DIMUPT
 70
0
  9
$DIMDEC
 70
2
  9
$DIMTDEC
 70
2
  9
$DIMALTU
 70
2
  9
$DIMALTTD
 70
3
  9
$DIMTXSTY
  7
Standard
  9
$DIMAUNIT
 70
0
  9
$DIMADEC
 70
0
  9
$DIMALTRND
 40
0.0
  9
$DIMAZIN
 70
0
  9
$DIMDSEP
 70
44
  9
$DIMATFIT
 70
3
  9
$DIMFRAC
 70
0
  9
$DIMLDRBLK
  1

  9
$DIMLUNIT
 70
2
  9
$DIMLWD
 70
-2
  9
$DIMLWE
 70
-2
  9
$DIMTMOVE
 70
0
  9
$DIMFXL
 40
1.0
  9
$DIMFXLON
 70
0
  9
$DIMJOGANG
 40
0.785398163397
  9
$DIMTFILL
 70
0
  9
$DIMTFILLCLR
 70
0
  9
$DIMARCSYM
 70
0
  9
$DIMLTYPE
  6

  9
$DIMLTEX1
  6

  9
$DIMLTEX2
  6

  9
$DIMTXTDIRECTION
 70
0
  9
$LUNITS
 70
2
  9
$LUPREC
 70
4
  9
$SKETCHINC
 40
1.0
  9
$FILLETRAD
 40
10.0
  9
$AUNITS
 70
0
  9
$AUPREC
 70
2
  9
$MENU
  1
.
  9
$ELEVATION
 40
0.0
  9
$PELEVATION
 40
0.0
  9
$THICKNESS
 40
0.0
  9
$LIMCHECK
 70
0
  9
$CHAMFERA
 40
0.0
  9
$CHAMFERB
 40
0.0
  9
$CHAMFERC
 40
0.0
  9
$CHAMFERD
 40
0.0
  9
$SKPOLY
 70
0
  9
$TDCREATE
 40
2461307.8288541664
  9
$TDUCREATE
 40
2458532.153996898
  9
$TDUPDATE
 40
2461307.8288541664
  9
$TDUUPDATE
 40
2458532.1544311
  9
$TDINDWG
 40
0.0
  9
$TDUSRTIMER
 40
0.0
  9
$USRTIMER
 70
1
  9
$ANGBASE
 50
0.0
  9
$ANGDIR
 70
0
  9
$PDMODE
 70
0
  9
$PDSIZE
 40
0.0
  9
$PLINEWID
 40
0.0
  9
$SPLFRAME
 70
0
  9
$SPLINETYPE
 70
6
  9
$SPLINESEGS
 70
8
  9
$HANDSEED
  5
C3
  9
$SURFTAB1
 70
6
  9
$SURFTAB2
 70
6
  9
$SURFTYPE
 70
6
  9
$SURFU
 70
6
  9
$SURFV
 70
6
  9
$UCSBASE
  2

  9
$UCSNAME
  2

  9
$UCSORG
 10
0.0
 20
0.0
 30
0.0
  9
$UCSXDIR
 10
1.0
 20
0.0
 30
0.0
  9
$UCSYDIR
 10
0.0
 20
1.0
 30
0.0
  9
$UCSORTHOREF
  2

  9
$UCSORTHOVIEW
 70
0
  9
$UCSORGTOP
 10
0.0
 20
0.0
 30
0.0
  9
$UCSORGBOTTOM
 10
0.0
 20
0.0
 30
0.0
  9
$UCSORGLEFT
 10
0.0
 20
0.0
 30
0.0
  9
$UCSORGRIGHT
 10
0.0
 20
0.0
 30
0.0
  9
$UCSORGFRONT
 10
0.0
 20
0.0
 30
0.0
  9
$UCSORGBACK
 10
0.0
 20
0.0
 30
0.0
  9
$PUCSBASE
  2

  9
$PUCSNAME
  2

  9
$PUCSORG
 10
0.0
 20
0.0
 30
0.0
  9
$PUCSXDIR
 10
1.0
 20
0.0
 30
0.0
  9
$PUCSYDIR
 10
0.0
 20
1.0
 30
0.0
  9
$PUCSORTHOREF
  2

  9
$PUCSORTHOVIEW
 70
0
  9
$PUCSORGTOP
 10
0.0
 20
0.0
 30
0.0
  9
$PUCSORGBOTTOM
 10
0.0
 20
0.0
 30
0.0
  9
$PUCSORGLEFT
 10
0.0
 20
0.0
 30
0.0
  9
$PUCSORGRIGHT
 10
0.0
 20
0.0
 30
0.0
  9
$PUCSORGFRONT
 10
0.0
 20
0.0
 30
0.0
  9
$PUCSORGBACK
 10
0.0
 20
0.0
 30
0.0
  9
$USERI1
 70
0
  9
$USERI2
 70
0
  9
$USERI3
 70
0
  9
$USERI4
 70
0
  9
$USERI5
 70
0
  9
$USERR1
 40
0.0
  9
$USERR2
 40
0.0
  9
$USERR3
 40
0.0
  9
$USERR4
 40
0.0
  9
$USERR5
 40
0.0
  9
$WORLDVIEW
 70
1
  9
$SHADEDGE
 70
3
  9
$SHADEDIF
 70
70
  9
$TILEMODE
 70
1
  9
$MAXACTVP
 70
64
  9
$PINSBASE
 10
0.0
 20
0.0
 30
0.0
  9
$PLIMCHECK
 70
0
  9
$PEXTMIN
 10
1e+20
 20
1e+20
 30
1e+20
  9
$PEXTMAX
 10
-1e+20
 20
-1e+20
 30
-1e+20
  9
$PLIMMIN
 10
0.0
 20
0.0
  9
$PLIMMAX
 10
420.0
 20
297.0
  9
$UNITMODE
 70
0
  9
$VISRETAIN
 70
1
  9
$PLINEGEN
 70
0
  9
$PSLTSCALE
 70
1
  9
$TREEDEPTH
 70
3020
  9
$CMLSTYLE
  2
Standard
  9
$CMLJUST
 70
0
  9
$CMLSCALE
 40
20.0
  9
$PROXYGRAPHICS
 70
1
  9
$MEASUREMENT
 70
1
  9
$CELWEIGHT
370
-1
  9
$ENDCAPS
280
0
  9
$JOINSTYLE
280
0
  9
$LWDISPLAY
290
0
  9
$INSUNITS
 70
0
  9
$HYPERLINKBASE
  1

  9
$STYLESHEET
  1

  9
$XEDIT
290
1
  9
$CEPSNTYPE
380
0
  9
$PSTYLEMODE
290
1
  9
$FINGERPRINTGUID
  2
{352564A8-8417-4090-84F0-A4C17C8BA9F9}
  9
$VERSIONGUID
  2
{BEC3C7C4-809D-4C7A-AD44-2ADFF6977298}
  9
$EXTNAMES
290
1
  9
$PSVPSCALE
 40
0.0
  9
$OLESTARTUP
290
0
  9
$SORTENTS
280
127
  9
$INDEXCTL
280
0
  9
$HIDETEXT
280
1
  9
$XCLIPFRAME
280
1
  9
$HALOGAP
280
0
  9
$OBSCOLOR
 70
257
  9
$OBSLTYPE
280
0
  9
$INTERSECTIONDISPLAY
280
0
  9
$INTERSECTIONCOLOR
 70
257
  9
$DIMASSOC
280
2
  9
$PROJECTNAME
  1

  9
$CAMERADISPLAY
290
0
  9
$LENSLENGTH
 40
50.0
  9
$CAMERAHEIGHT
 40
0.0
  9
$STEPSPERSEC
 40
24.0
  9
$STEPSIZE
 40
100.0
  9
$3DDWFPREC
 40
2.0
  9
$PSOLWIDTH
 40
0.005
  9
$PSOLHEIGHT
 40
0.08
  9
$LOFTANG1
 40
1.570796326795
  9
$LOFTANG2
 40
1.570796326795
  9
$LOFTMAG1
 40
0.0
  9
$LOFTMAG2
 40
0.0
  9
$LOFTPARAM
 70
7
  9
$LOFTNORMALS
280
1
  9
$LATITUDE
 40
37.795
  9
$LONGITUDE
 40
-122.394
  9
$NORTHDIRECTION
 40
0.0
  9
$TIMEZONE
 70
-8000
  9
$LIGHTGLYPHDISPLAY
280
1
  9
$TILEMODELIGHTSYNCH
280
1
  9
$CMATERIAL
347
20
  9
$SOLIDHIST
280
0
  9
$SHOWHIST
280
1
  9
$DWFFRAME
280
2
  9
$DGNFRAME
280
2
  9
$REALWORLDSCALE
290
1
  9
$INTERFERECOLOR
 62
256
  9
$CSHADOW
280
0
  9
$SHADOWPLANELOCATION
 40
0.0
  0
ENDSEC
  0
SECTION
  2
CLASSES
  0
CLASS
  1
ACDBDICTIONARYWDFLT
  2
AcDbDictionaryWithDefault
  3
ObjectDBX Classes
 90
0
 91
0
280
0
281
0
  0
CLASS
  1
SUN
  2
AcDbSun
  3
SCENEOE
 90
1153
 91
0
280
0
281
0
  0
CLASS
  1
VISUALSTYLE
  2
AcDbVisualStyle
  3
ObjectDBX Classes
 90
4095
 91
0
280
0
281
0
  0
CLASS
  1
MATERIAL
  2
AcDbMaterial
  3
ObjectDBX Classes
 90
1153
 91
0
280
0
281
0
  0
CLASS
  1
SCALE
  2
AcDbScale
  3
ObjectDBX Classes
 90
1153
 91
0
280
0
281
0
  0
CLASS
  1
TABLESTYLE
  2
AcDbTableStyle
  3
ObjectDBX Classes
 90
4095
 91
0
280
0
281
0
  0
CLASS
  1
MLEADERSTYLE
  2
AcDbMLeaderStyle
  3
ACDB_MLEADERSTYLE_CLASS
 90
4095
 91
0
280
0
281
0
  0
CLASS
  1
DICTIONARYVAR
  2
AcDbDictionaryVar
  3
ObjectDBX Classes
 90
0
 91
0
280
0
281
0
  0
CLASS
  1
CELLSTYLEMAP
  2
AcDbCellStyleMap
  3
ObjectDBX Classes
 90
1152
 91
0
280
0
281
0
  0
CLASS
  1
MENTALRAYRENDERSETTINGS
  2
AcDbMentalRayRenderSettings
  3
SCENEOE
 90
1024
 91
0
280
0
281
0
  0
CLASS
  1
ACDBDETAILVIEWSTYLE
  2
AcDbDetailViewStyle
  3
ObjectDBX Classes
 90
1025
 91
0
280
0
281
0
  0
CLASS
  1
ACDBSECTIONVIEWSTYLE
  2
AcDbSectionViewStyle
  3
ObjectDBX Classes
 90
1025
 91
0
280
0
281
0
  0
CLASS
  1
RASTERVARIABLES
  2
AcDbRasterVariables
  3
ISM
 90
0
 91
0
280
0
281
0
  0
CLASS
  1
LAYOUT
  2
AcDbLayout
  3
ObjectDBX Classes
 90
0
 91
0
280
0
281
0
  0
CLASS
  1
ACDBPLACEHOLDER
  2
AcDbPlaceHolder
  3
ObjectDBX Classes
 90
0
 91
0
280
0
281
0
  0
ENDSEC
  0
SECTION
  2
TABLES
  0
TABLE
  2
VPORT
  5
8
330
0
100
AcDbSymbolTable
 70
1
  0
VPORT
  5
23
330
8
100
AcDbSymbolTableRecord
100
AcDbViewportTableRecord
  2
*Active
 70
0
 10
0.0
 20
0.0
 11
1.0
 21
1.0
 12
0.0
 22
0.0
 13
0.0
 23
0.0
 14
0.5
 24
0.5
 15
0.5
 25
0.5
 16
0.0
 26
0.0
 36
1.0
 17
0.0
 27
0.0
 37
0.0
 40
1000.0
 41
1.34
 42
50.0
 43
0.0
 44
0.0
 50
0.0
 51
0.0
 71
0
 72
1000
 73
1
 74
3
 75
0
 76
0
 77
0
 78
0
281
0
 65
0
146
0.0
  0
ENDTAB
  0
TABLE
  2
LTYPE
  5
2
330
0
100
AcDbSymbolTable
 70
3
  0
LTYPE
  5
24
330
2
100
AcDbSymbolTableRecord
100
AcDbLinetypeTableRecord
  2
ByBlock
 70
0
  3

 72
65
 73
0
 40
0.0
  0
LTYPE
  5
25
330
2
100
AcDbSymbolTableRecord
100
AcDbLinetypeTableRecord
  2
ByLayer
 70
0
  3

 72
65
 73
0
 40
0.0
  0
LTYPE
  5
26
330
2
100
AcDbSymbolTableRecord
100
AcDbLinetypeTableRecord
  2
Continuous
 70
0
  3

 72
65
 73
0
 40
0.0
  0
ENDTAB
  0
TABLE
  2
LAYER
  5
1
330
0
100
AcDbSymbolTable
 70
4
  0
LAYER
  5
27
330
1
100
AcDbSymbolTableRecord
100
AcDbLayerTableRecord
  2
0
 70
0
 62
7
  6
Continuous
370
-3
390
13
347
21
  0
LAYER
  5
28
330
1
100
AcDbSymbolTableRecord
100
AcDbLayerTableRecord
  2
Defpoints
 70
0
 62
7
  6
Continuous
290
0
370
-3
390
13
347
21
  0
LAYER
  5
BB
330
1
100
AcDbSymbolTableRecord
100
AcDbLayerTableRecord
  2
--4N-THT. MCB-MCCB-ACB
 70
0
 62
124
  6
CONTINUOUS
370
-3
390
13
347
21
  0
LAYER
  5
BC
330
1
100
AcDbSymbolTableRecord
100
AcDbLayerTableRecord
  2
--6N-THT. HOLE COVER
 70
0
 62
2
  6
CONTINUOUS
370
-3
390
13
347
21
  0
ENDTAB
  0
TABLE
  2
STYLE
  5
5
330
0
100
AcDbSymbolTable
 70
2
  0
STYLE
  5
29
330
5
100
AcDbSymbolTableRecord
100
AcDbTextStyleTableRecord
  2
Standard
 70
0
 40
0.0
 41
1.0
 50
0.0
 71
0
 42
2.5
  3
txt
  4

  0
STYLE
  5
BD
330
5
100
AcDbSymbolTableRecord
100
AcDbTextStyleTableRecord
  2
- 13.0
 70
0
 40
13.0
 41
1.0
 50
0.0
 71
0
 42
13.0
  3
times.ttf
  4

  0
ENDTAB
  0
TABLE
  2
VIEW
  5
7
330
0
100
AcDbSymbolTable
 70
0
  0
ENDTAB
  0
TABLE
  2
UCS
  5
6
330
0
100
AcDbSymbolTable
 70
0
  0
ENDTAB
  0
TABLE
  2
APPID
  5
3
330
0
100
AcDbSymbolTable
 70
3
  0
APPID
  5
2A
330
3
100
AcDbSymbolTableRecord
100
AcDbRegAppTableRecord
  2
ACAD
 70
0
  0
APPID
  5
C0
330
3
100
AcDbSymbolTableRecord
100
AcDbRegAppTableRecord
  2
HATCHBACKGROUNDCOLOR
 70
0
  0
APPID
  5
C1
330
3
100
AcDbSymbolTableRecord
100
AcDbRegAppTableRecord
  2
EZDXF
 70
0
  0
ENDTAB
  0
TABLE
  2
DIMSTYLE
  5
4
330
0
100
AcDbSymbolTable
 70
1
100
AcDbDimStyleTable
  0
DIMSTYLE
105
2B
330
4
100
AcDbSymbolTableRecord
100
AcDbDimStyleTableRecord
  2
Standard
 70
0
 40
1.0
 41
2.5
 42
0.625
 43
3.75
 44
1.25
 45
0.0
 46
0.0
 47
0.0
 48
0.0
 49
2.5
140
2.5
141
2.5
142
0.0
143
0.03937007874
144
1.0
145
0.0
146
1.0
147
0.625
148
0.0
 69
0
 70
0
 71
0
 72
0
 73
0
 74
0
 75
0
 76
0
 77
1
 78
8
 79
3
170
0
171
3
172
1
173
0
174
0
175
0
176
0
177
0
178
0
179
2
271
2
272
2
273
2
274
3
275
0
276
0
277
2
278
44
279
0
280
0
281
0
282
0
283
0
284
8
285
0
286
0
288
0
289
3
290
0
371
-2
372
-2
  0
ENDTAB
  0
TABLE
  2
BLOCK_RECORD
  5
9
330
0
100
AcDbSymbolTable
 70
3
  0
BLOCK_RECORD
  5
17
330
9
100
AcDbSymbolTableRecord
100
AcDbBlockTableRecord
  2
*Model_Space
340
1A
 70
0
280
1
281
0
  0
BLOCK_RECORD
  5
1B
330
9
100
AcDbSymbolTableRecord
100
AcDbBlockTableRecord
  2
*Paper_Space
340
1E
 70
0
280
1
281
0
  0
BLOCK_RECORD
  5
2F
330
9
100
AcDbSymbolTableRecord
100
AcDbBlockTableRecord
  2
06 - N - SC MCCB LỖ ĐỤC EZC400~630 4 PHASE
340
0
 70
0
280
1
281
0
  0
ENDTAB
  0
ENDSEC
  0
SECTION
  2
BLOCKS
  0
BLOCK
  5
18
330
17
100
AcDbEntity
  8
0
100
AcDbBlockBegin
  2
*Model_Space
 70
0
 10
0.0
 20
0.0
 30
0.0
  3
*Model_Space
  1

  0
ENDBLK
  5
19
330
17
100
AcDbEntity
  8
0
100
AcDbBlockEnd
  0
BLOCK
  5
1C
330
1B
100
AcDbEntity
  8
0
100
AcDbBlockBegin
  2
*Paper_Space
 70
0
 10
0.0
 20
0.0
 30
0.0
  3
*Paper_Space
  1

  0
ENDBLK
  5
1D
330
1B
100
AcDbEntity
  8
0
100
AcDbBlockEnd
  0
BLOCK
  5
30
330
2F
100
AcDbEntity
  8
0
100
AcDbBlockBegin
  2
06 - N - SC MCCB LỖ ĐỤC EZC400~630 4 PHASE
 70
2
 10
0.0
 20
0.0
 30
0.0
  3
06 - N - SC MCCB LỖ ĐỤC EZC400~630 4 PHASE
  1

  0
LINE
  5
32
330
2F
100
AcDbEntity
  8
--6N-THT. HOLE COVER
 62
124
100
AcDbLine
 10
-47.45201535441537
 20
-90.49998763464887
 30
0.0
 11
-47.45201535442448
 21
90.49998763464887
 31
0.0
  0
LWPOLYLINE
  5
33
330
2F
100
AcDbEntity
  8
--6N-THT. HOLE COVER
 62
1
100
AcDbPolyline
 90
4
 70
1
 10
-92.4999846455803
 20
90.49998763464887
 10
92.4999846455803
 20
90.49998763464887
 10
92.4999846455803
 20
-90.49998763464887
 10
-92.4999846455803
 20
-90.49998763464887
  0
LINE
  5
34
330
2F
100
AcDbEntity
  8
--4N-THT. MCB-MCCB-ACB
100
AcDbLine
 10
9.846244474919338
 20
11.64791437846693
 30
0.0
 11
10.55066820452976
 21
-2.213279095773344
 31
0.0
  0
LINE
  5
35
330
2F
100
AcDbEntity
  8
--4N-THT. MCB-MCCB-ACB
100
AcDbLine
 10
9.844093418470045
 20
11.7339979686873
 30
0.0
 11
10.54838985516927
 21
-2.124690737772056
 31
0.0
  0
LINE
  5
36
330
2F
100
AcDbEntity
  8
--4N-THT. MCB-MCCB-ACB
100
AcDbLine
 10
10.55066820452976
 20
-2.213279095773344
 30
0.0
 11
10.55049025815697
 21
-2.209706227244481
 31
0.0
  0
LINE
  5
37
330
2F
100
AcDbEntity
  8
--4N-THT. MCB-MCCB-ACB
100
AcDbLine
 10
10.54838993916838
 20
5.757595787743099
 30
0.0
 11
9.844093418470045
 21
22.22795412065504
 31
0.0
  0
LINE
  5
38
330
2F
100
AcDbEntity
  8
--4N-THT. MCB-MCCB-ACB
100
AcDbLine
 10
9.846235275847908
 20
11.64806628794363
 30
0.0
 11
9.84414375375764
 21
11.72010377297525
 31
0.0
  0
LINE
  5
39
330
2F
100
AcDbEntity
  8
--4N-THT. MCB-MCCB-ACB
100
AcDbLine
 10
10.55049025815697
 20
-2.209706227244481
 30
0.0
 11
10.54839027262006
 21
-2.124698944140931
 31
0.0
  0
LINE
  5
3A
330
2F
100
AcDbEntity
  8
--4N-THT. MCB-MCCB-ACB
100
AcDbLine
 10
8.693146062888452
 20
53.89755524967555
 30
0.0
 11
8.693146062888452
 21
-20.75396810967899
 31
0.0
  0
LINE
  5
3B
330
2F
100
AcDbEntity
  8
--4N-THT. MCB-MCCB-ACB
100
AcDbLine
 10
8.942204665228026
 20
53.89755524967555
 30
0.0
 11
8.942182386276734
 21
22.22698003680095
 31
0.0
  0
LINE
  5
3C
330
2F
100
AcDbEntity
  8
--4N-THT. MCB-MCCB-ACB
100
AcDbLine
 10
8.942182386276734
 20
22.22468877717407
 30
0.0
 11
8.94219576412889
 21
-14.82481265082092
 31
0.0
  0
LINE
  5
3D
330
2F
100
AcDbEntity
  8
--4N-THT. MCB-MCCB-ACB
100
AcDbLine
 10
8.942213575069225
 20
49.02502792721467
 30
0.0
 11
8.942209046800606
 21
41.33245930859235
 31
0.0
  0
LINE
  5
3E
330
2F
100
AcDbEntity
  8
--4N-THT. MCB-MCCB-ACB
100
AcDbLine
 10
9.844093418470045
 20
11.7339979686873
 30
0.0
 11
9.844093418470045
 21
22.22795412065504
 31
0.0
  0
LINE
  5
3F
330
2F
100
AcDbEntity
  8
--4N-THT. MCB-MCCB-ACB
100
AcDbLine
 10
10.59177923992957
 20
23.98490551016554
 30
0.0
 11
10.09612462131827
 21
23.14775621964296
 31
0.0
  0
LINE
  5
40
330
2F
100
AcDbEntity
  8
--4N-THT. MCB-MCCB-ACB
100
AcDbLine
 10
12.32291246160003
 20
24.93158296560402
 30
0.0
 11
11.82194774660912
 21
24.08546504218036
 31
0.0
  0
LINE
  5
41
330
2F
100
AcDbEntity
  8
--4N-THT. MCB-MCCB-ACB
100
AcDbLine
 10
32.38932125754856
 20
-4.115816028070497
 30
0.0
 11
12.55233607072751
 21
-4.115806559181095
 31
0.0
  0
LINE
  5
42
330
2F
100
AcDbEntity
  8
--4N-THT. MCB-MCCB-ACB
100
AcDbLine
 10
32.3893125268287
 20
-3.735341775080399
 30
0.0
 11
12.55234240113987
 21
-3.73533230874122
 31
0.0
  0
LINE
  5
43
330
2F
100
AcDbEntity
  8
--4N-THT. MCB-MCCB-ACB
100
AcDbLine
 10
8.693146062888452
 20
-20.75396810968263
 30
0.0
 11
36.35182322751917
 21
-20.75396810967899
 31
0.0
  0
LWPOLYLINE
  5
44
330
2F
100
AcDbEntity
  8
--4N-THT. MCB-MCCB-ACB
100
AcDbPolyline
 90
9
 70
0
 10
10.55049025815697
 20
-2.209706227244481
 10
10.59997298433791
 20
-2.56465567738482
 10
10.73646403437761
 20
-2.959865398607092
 10
10.95609237158988
 20
-3.323589636713535
 10
11.25342957666817
 20
-3.637944250944514
 10
11.618836835808
 20
-3.88513947633541
 10
12.03843337007766
 20
-4.048802378653221
 10
12.49076304581741
 20
-4.114860507816359
 10
12.55233607326864
 20
-4.115806355548869
  0
LINE
  5
45
330
2F
100
AcDbEntity
  8
--4N-THT. MCB-MCCB-ACB
100
AcDbLine
 10
12.55233693870924
 20
7.600651721200534
 30
0.0
 11
11.84742975364771
 21
24.08529076882193
 31
0.0
  0
LINE
  5
46
330
2F
100
AcDbEntity
  8
--4N-THT. MCB-MCCB-ACB
100
AcDbLine
 10
12.55233607072751
 20
-4.115806559181095
 30
0.0
 11
12.55233487184797
 21
-3.73533230874122
 31
0.0
  0
LINE
  5
47
330
2F
100
AcDbEntity
  8
--4N-THT. MCB-MCCB-ACB
100
AcDbLine
 10
12.55233693870924
 20
7.600651721200534
 30
0.0
 11
12.55233487184797
 21
6.117526356599825
 31
0.0
  0
LINE
  5
48
330
2F
100
AcDbEntity
  8
--4N-THT. MCB-MCCB-ACB
100
AcDbLine
 10
17.73163416375701
 20
44.54245650582712
 30
0.0
 11
17.73163454301812
 21
44.90141056251892
 31
0.0
  0
LINE
  5
49
330
2F
100
AcDbEntity
  8
--4N-THT. MCB-MCCB-ACB
100
AcDbLine
 10
18.3329101349982
 20
44.90141027743053
 30
0.0
 11
18.3329097531796
 21
44.54245621819942
 31
0.0
  0
LINE
  5
4A
330
2F
100
AcDbEntity
  8
--4N-THT. MCB-MCCB-ACB
100
AcDbLine
 10
19.4352472995297
 20
43.54838176279524
 30
0.0
 11
19.43524738606994
 21
43.5036122876169
 31
0.0
  0
LINE
  5
4B
330
2F
100
AcDbEntity
  8
--4N-THT. MCB-MCCB-ACB
100
AcDbLine
 10
19.43525036672964
 20
46.41192374895914
 30
0.0
 11
19.43525043545651
 21
46.37584133962415
 31
0.0
  0
LINE
  5
4C
330
2F
100
AcDbEntity
  8
--4N-THT. MCB-MCCB-ACB
100
AcDbLine
 10
19.53545998260871
 20
43.50361223925544
 30
0.0
 11
19.53545989860959
 21
43.54838171443376
 31
0.0
  0
LINE
  5
4D
330
2F
100
AcDbEntity
  8
--4N-THT. MCB-MCCB-ACB
100
AcDbLine
 10
19.53546303200074
 20
46.37584129126268
 30
0.0
 11
19.53546296327022
 21
46.41192370059585
 31
0.0
  0
LINE
  5
4E
330
2F
100
AcDbEntity
  8
--4N-THT. MCB-MCCB-ACB
100
AcDbLine
 10
20.63779951689959
 20
44.54245511858395
 30
0.0
 11
20.63779989871819
 21
44.90140917782233
 31
0.0
  0
LINE
  5
4F
330
2F
100
AcDbEntity
  8
--4N-THT. MCB-MCCB-ACB
100
AcDbLine
 10
21.23907548814078
 20
44.90140889273576
 30
0.0
 11
21.23907510887785
 21
44.54245483095443
 31
0.0
  0
LINE
  5
50
330
2F
100
AcDbEntity
  8
--4N-THT. MCB-MCCB-ACB
100
AcDbLine
 10
21.69002632069806
 20
43.00185949387347
 30
0.0
 11
21.69003382963911
 21
46.41095707730861
 31
0.0
  0
LINE
  5
51
330
2F
100
AcDbEntity
  8
--4N-THT. MCB-MCCB-ACB
100
AcDbLine
 10
22.29130340682878
 20
44.45153423747949
 30
0.0
 11
22.29130191012792
 21
43.00185920878872
 31
0.0
  0
LINE
  5
52
330
2F
100
AcDbEntity
  8
--4N-THT. MCB-MCCB-ACB
100
AcDbLine
 10
22.29130494424772
 20
45.88061056321172
 30
0.0
 11
22.29130407626963
 21
44.9387569894931
 31
0.0
  0
LINE
  5
53
330
2F
100
AcDbEntity
  8
--4N-THT. MCB-MCCB-ACB
100
AcDbLine
 10
23.89470764706767
 20
44.98997001495596
 30
0.0
 11
23.89470707434794
 21
44.45153347385682
 31
0.0
  0
LINE
  5
54
330
2F
100
AcDbEntity
  8
--4N-THT. MCB-MCCB-ACB
100
AcDbLine
 10
12.55233904375837
 20
6.117526356599825
 30
0.0
 11
32.38931588419929
 21
6.117516890253369
 31
0.0
  0
LINE
  5
55
330
2F
100
AcDbEntity
  8
--4N-THT. MCB-MCCB-ACB
100
AcDbLine
 10
12.55233693870924
 20
7.600651721200534
 30
0.0
 11
32.38932212552846
 21
7.600642254861355
 31
0.0
  0
LINE
  5
56
330
2F
100
AcDbEntity
  8
--4N-THT. MCB-MCCB-ACB
100
AcDbLine
 10
8.94219576412889
 20
-14.82481265082092
 30
0.0
 11
36.35182322751917
 21
-14.82481265082092
 31
0.0
  0
LINE
  5
57
330
2F
100
AcDbEntity
  8
--4N-THT. MCB-MCCB-ACB
100
AcDbLine
 10
35.99958785339823
 20
11.88432068414991
 30
0.0
 11
35.09766822029906
 21
11.88432111431908
 31
0.0
  0
LINE
  5
58
330
2F
100
AcDbEntity
  8
--4N-THT. MCB-MCCB-ACB
100
AcDbLine
 10
9.844093418470045
 20
11.88433316424348
 30
0.0
 11
8.942186278199195
 21
11.88433359441447
 31
0.0
  0
LINE
  5
59
330
2F
100
AcDbEntity
  8
--4N-THT. MCB-MCCB-ACB
100
AcDbLine
 10
35.99958396147759
 20
13.13074837877471
 30
0.0
 11
35.09766822029906
 21
13.13074880894751
 31
0.0
  0
LINE
  5
5A
330
2F
100
AcDbEntity
  8
--4N-THT. MCB-MCCB-ACB
100
AcDbLine
 10
9.844093418470045
 20
13.13076086396327
 30
0.0
 11
8.942182386276734
 21
13.13076129413971
 31
0.0
  0
LINE
  5
5B
330
2F
100
AcDbEntity
  8
--4N-THT. MCB-MCCB-ACB
100
AcDbLine
 10
24.19534699702036
 20
46.41095588351496
 30
0.0
 11
24.1953464090284
 21
45.88060965450282
 31
0.0
  0
LINE
  5
5C
330
2F
100
AcDbEntity
  8
--4N-THT. MCB-MCCB-ACB
100
AcDbLine
 10
24.69640247842745
 20
43.00282851238049
 30
0.0
 11
24.69640998735941
 21
46.41095564425055
 31
0.0
  0
LINE
  5
5D
330
2F
100
AcDbEntity
  8
--4N-THT. MCB-MCCB-ACB
100
AcDbLine
 10
25.29767956454908
 20
44.45248893810973
 30
0.0
 11
25.29767807040754
 21
43.00282822729938
 31
0.0
  0
LINE
  5
5E
330
2F
100
AcDbEntity
  8
--4N-THT. MCB-MCCB-ACB
100
AcDbLine
 10
25.29768110452915
 20
45.8815509383309
 30
0.0
 11
25.29768023399903
 21
44.93970919817881
 31
0.0
  0
LINE
  5
5F
330
2F
100
AcDbEntity
  8
--4N-THT. MCB-MCCB-ACB
100
AcDbLine
 10
26.90108380734001
 20
44.99091934479626
 30
0.0
 11
26.90108323462938
 21
44.45248817194594
 31
0.0
  0
LINE
  5
60
330
2F
100
AcDbEntity
  8
--4N-THT. MCB-MCCB-ACB
100
AcDbLine
 10
27.20172315474975
 20
46.41095444791032
 30
0.0
 11
27.20172256930619
 21
45.88155002962746
 31
0.0
  0
LINE
  5
61
330
2F
100
AcDbEntity
  8
--4N-THT. MCB-MCCB-ACB
100
AcDbLine
 10
32.38932125754856
 20
-4.115816028070497
 30
0.0
 11
32.38932005611879
 21
-3.735341775080399
 31
0.0
  0
LINE
  5
62
330
2F
100
AcDbEntity
  8
--4N-THT. MCB-MCCB-ACB
100
AcDbLine
 10
32.38932212552846
 20
7.600642254861355
 30
0.0
 11
32.38932005611879
 21
6.117516890253369
 31
0.0
  0
LINE
  5
63
330
2F
100
AcDbEntity
  8
--4N-THT. MCB-MCCB-ACB
100
AcDbLine
 10
35.09766822029906
 20
11.73398591622359
 30
0.0
 11
35.09766822029906
 21
22.22794206818586
 31
0.0
  0
LINE
  5
64
330
2F
100
AcDbEntity
  8
--4N-THT. MCB-MCCB-ACB
100
AcDbLine
 10
35.99958396147759
 20
22.22696712398798
 30
0.0
 11
35.99960624042707
 21
53.89755524967373
 31
0.0
  0
LINE
  5
65
330
2F
100
AcDbEntity
  8
--4N-THT. MCB-MCCB-ACB
100
AcDbLine
 10
35.99959733933884
 20
-14.82481265082092
 30
0.0
 11
35.99958396147759
 21
22.22467586435929
 31
0.0
  0
LINE
  5
66
330
2F
100
AcDbEntity
  8
--4N-THT. MCB-MCCB-ACB
100
AcDbLine
 10
35.99961062199965
 20
41.33244639832415
 30
0.0
 11
35.99961515026826
 21
49.02502792721467
 31
0.0
  0
LINE
  5
67
330
2F
100
AcDbEntity
  8
--4N-THT. MCB-MCCB-ACB
100
AcDbLine
 10
36.35182322751917
 20
53.89755524967555
 30
0.0
 11
36.35182322751917
 21
-20.75396810967899
 31
0.0
  0
LINE
  5
68
330
2F
100
AcDbEntity
  8
--4N-THT. MCB-MCCB-ACB
100
AcDbLine
 10
34.3932688807081
 20
-2.124710322074264
 30
0.0
 11
34.3911682791777
 21
-2.209730082737536
 31
0.0
  0
LINE
  5
69
330
2F
100
AcDbEntity
  8
--4N-THT. MCB-MCCB-ACB
100
AcDbLine
 10
35.09761788755987
 20
11.72009172050971
 30
0.0
 11
35.09552816252018
 21
11.64811849918774
 31
0.0
  0
LINE
  5
6A
330
2F
100
AcDbEntity
  8
--4N-THT. MCB-MCCB-ACB
100
AcDbLine
 10
33.09433188512686
 20
24.08528063049531
 30
0.0
 11
32.38932212552846
 21
7.600642254861355
 31
0.0
  0
LINE
  5
6B
330
2F
100
AcDbEntity
  8
--4N-THT. MCB-MCCB-ACB
100
AcDbLine
 10
35.09766822029906
 20
22.22794206818586
 30
0.0
 11
34.39326921415796
 21
5.757584407259543
 31
0.0
  0
LINE
  5
6C
330
2F
100
AcDbEntity
  8
--4N-THT. MCB-MCCB-ACB
100
AcDbLine
 10
34.39326929815707
 20
-2.124702115712665
 30
0.0
 11
35.09766822029906
 21
11.73398591622359
 31
0.0
  0
LINE
  5
6D
330
2F
100
AcDbEntity
  8
--4N-THT. MCB-MCCB-ACB
100
AcDbLine
 10
34.39099028699003
 20
-2.213303330527509
 30
0.0
 11
35.09551654022744
 21
11.64788984590782
 31
0.0
  0
LINE
  5
6E
330
2F
100
AcDbEntity
  8
--4N-THT. MCB-MCCB-ACB
100
AcDbLine
 10
8.942189722119117
 20
18.76723228711458
 30
0.0
 11
8.693146062888452
 21
18.76723240674769
 31
0.0
  0
LINE
  5
6F
330
2F
100
AcDbEntity
  8
--4N-THT. MCB-MCCB-ACB
100
AcDbLine
 10
35.99959129732907
 20
18.7672596297995
 30
0.0
 11
36.35182322751917
 21
18.76725945926014
 31
0.0
  0
LINE
  5
70
330
2F
100
AcDbEntity
  8
--4N-THT. MCB-MCCB-ACB
100
AcDbLine
 10
8.942182386276734
 20
22.22468877717407
 30
0.0
 11
9.844093415928917
 21
22.22468834700309
 31
0.0
  0
LINE
  5
71
330
2F
100
AcDbEntity
  8
--4N-THT. MCB-MCCB-ACB
100
AcDbLine
 10
35.09766822029906
 20
22.22467629453573
 30
0.0
 11
35.99958396147759
 21
22.22467586435929
 31
0.0
  0
LINE
  5
72
330
2F
100
AcDbEntity
  8
--4N-THT. MCB-MCCB-ACB
100
AcDbLine
 10
35.99958418038933
 20
22.29430239233049
 30
0.0
 11
35.09761791300753
 21
22.29430282250329
 31
0.0
  0
LINE
  5
73
330
2F
100
AcDbEntity
  8
--4N-THT. MCB-MCCB-ACB
100
AcDbLine
 10
9.844143779207123
 20
22.29431487242952
 30
0.0
 11
8.942182607727778
 21
22.29431530514709
 31
0.0
  0
LINE
  5
74
330
2F
100
AcDbEntity
  8
--4N-THT. MCB-MCCB-ACB
100
AcDbLine
 10
11.84742975364771
 20
24.08529076882193
 30
0.0
 11
33.09433188512686
 21
24.08528063049531
 31
0.0
  0
LINE
  5
75
330
2F
100
AcDbEntity
  8
--4N-THT. MCB-MCCB-ACB
100
AcDbLine
 10
12.32291246160003
 20
24.93158296560402
 30
0.0
 11
32.61885897695812
 21
24.9315732803531
 31
0.0
  0
LINE
  5
76
330
2F
100
AcDbEntity
  8
--4N-THT. MCB-MCCB-ACB
100
AcDbLine
 10
35.99958785339823
 20
25.77386364252349
 30
0.0
 11
8.942186278199195
 21
25.77387655533827
 31
0.0
  0
LWPOLYLINE
  5
77
330
2F
100
AcDbEntity
  8
--4N-THT. MCB-MCCB-ACB
100
AcDbPolyline
 90
9
 70
0
 10
34.3911682791777
 20
-2.209730082737536
 10
34.34168519409924
 20
-2.564669727997483
 10
34.20519341352793
 20
-2.959878708505442
 10
33.98556459014891
 20
-3.323602106628044
 10
33.68822715852822
 20
-3.637955850328893
 10
33.32281993248854
 20
-3.885150245922289
 10
32.903223660388
 20
-4.048812430435958
 10
32.4508944250074
 20
-4.114870030162222
 10
32.38932126008786
 20
-4.115815821886229
  0
LINE
  5
78
330
2F
100
AcDbEntity
  8
--4N-THT. MCB-MCCB-ACB
100
AcDbLine
 10
33.11981389470658
 20
24.08545487839698
 30
0.0
 11
32.61885897695812
 21
24.9315732803531
 31
0.0
  0
LINE
  5
79
330
2F
100
AcDbEntity
  8
--4N-THT. MCB-MCCB-ACB
100
AcDbLine
 10
34.84564505072832
 20
23.14773102527548
 30
0.0
 11
34.34987423715848
 21
23.98509341159085
 31
0.0
  0
LINE
  5
7A
330
2F
100
AcDbEntity
  8
--4N-THT. MCB-MCCB-ACB
100
AcDbLine
 10
19.43524674207857
 20
43.0018606545797
 30
0.0
 11
19.53545934370868
 21
43.00186060621459
 31
0.0
  0
LINE
  5
7B
330
2F
100
AcDbEntity
  8
--4N-THT. MCB-MCCB-ACB
100
AcDbLine
 10
21.69002632069806
 20
43.00185949133052
 30
0.0
 11
22.29130191012792
 21
43.00185920369918
 31
0.0
  0
LINE
  5
7C
330
2F
100
AcDbEntity
  8
--4N-THT. MCB-MCCB-ACB
100
AcDbLine
 10
24.69640247842745
 20
43.00282850983391
 30
0.0
 11
25.29767807040754
 21
43.00282822475097
 31
0.0
  0
LINE
  5
7D
330
2F
100
AcDbEntity
  8
--4N-THT. MCB-MCCB-ACB
100
AcDbLine
 10
19.53545998260871
 20
43.50361223925544
 30
0.0
 11
19.43524738606994
 21
43.5036122876169
 31
0.0
  0
LINE
  5
7E
330
2F
100
AcDbEntity
  8
--4N-THT. MCB-MCCB-ACB
100
AcDbLine
 10
19.53545989860959
 20
43.54838171443376
 30
0.0
 11
19.4352472995297
 21
43.54838176279524
 31
0.0
  0
LINE
  5
7F
330
2F
100
AcDbEntity
  8
--4N-THT. MCB-MCCB-ACB
100
AcDbLine
 10
22.29130340682878
 20
44.45153423747949
 30
0.0
 11
23.89470707434794
 21
44.45153347385682
 31
0.0
  0
LINE
  5
80
330
2F
100
AcDbEntity
  8
--4N-THT. MCB-MCCB-ACB
100
AcDbLine
 10
25.29767956454908
 20
44.45248893810973
 30
0.0
 11
26.90108323462938
 21
44.45248817194594
 31
0.0
  0
LINE
  5
81
330
2F
100
AcDbEntity
  8
--4N-THT. MCB-MCCB-ACB
100
AcDbLine
 10
22.29130407626963
 20
44.9387569894931
 30
0.0
 11
23.89470774378879
 21
44.93875622587044
 31
0.0
  0
LINE
  5
82
330
2F
100
AcDbEntity
  8
--4N-THT. MCB-MCCB-ACB
100
AcDbLine
 10
25.29768023399903
 20
44.93970919817881
 30
0.0
 11
26.90108390407023
 21
44.93970843201501
 31
0.0
  0
LINE
  5
83
330
2F
100
AcDbEntity
  8
--4N-THT. MCB-MCCB-ACB
100
AcDbLine
 10
23.89470764706767
 20
44.98997001495596
 30
0.0
 11
22.29130397700011
 21
44.98997078112339
 31
0.0
  0
LINE
  5
84
330
2F
100
AcDbEntity
  8
--4N-THT. MCB-MCCB-ACB
100
AcDbLine
 10
26.90108380734001
 20
44.99091934479626
 30
0.0
 11
25.29768013726881
 21
44.99092011095823
 31
0.0
  0
LINE
  5
85
330
2F
100
AcDbEntity
  8
--4N-THT. MCB-MCCB-ACB
100
AcDbLine
 10
22.29130494424772
 20
45.88061056321172
 30
0.0
 11
24.1953464090284
 21
45.88060965450282
 31
0.0
  0
LINE
  5
86
330
2F
100
AcDbEntity
  8
--4N-THT. MCB-MCCB-ACB
100
AcDbLine
 10
25.29768110452915
 20
45.8815509383309
 30
0.0
 11
27.20172256930619
 21
45.88155002962746
 31
0.0
  0
LINE
  5
87
330
2F
100
AcDbEntity
  8
--4N-THT. MCB-MCCB-ACB
100
AcDbLine
 10
19.43524977873767
 20
45.88158300528236
 30
0.0
 11
19.53546237782667
 21
45.88158295691907
 31
0.0
  0
LINE
  5
88
330
2F
100
AcDbEntity
  8
--4N-THT. MCB-MCCB-ACB
100
AcDbLine
 10
21.69003195366987
 20
46.37485698508286
 30
0.0
 11
24.19534706319883
 21
46.37485578874263
 31
0.0
  0
LINE
  5
89
330
2F
100
AcDbEntity
  8
--4N-THT. MCB-MCCB-ACB
100
AcDbLine
 10
24.69640811139926
 20
46.3748555494764
 30
0.0
 11
27.20172322346935
 21
46.37485435568275
 31
0.0
  0
LINE
  5
8A
330
2F
100
AcDbEntity
  8
--4N-THT. MCB-MCCB-ACB
100
AcDbLine
 10
19.43525043545651
 20
46.37584133962415
 30
0.0
 11
19.53546303200074
 21
46.37584129126268
 31
0.0
  0
LINE
  5
8B
330
2F
100
AcDbEntity
  8
--4N-THT. MCB-MCCB-ACB
100
AcDbLine
 10
27.20172315474975
 20
46.41095444791032
 30
0.0
 11
24.69640998735941
 21
46.41095564425055
 31
0.0
  0
LINE
  5
8C
330
2F
100
AcDbEntity
  8
--4N-THT. MCB-MCCB-ACB
100
AcDbLine
 10
24.19534699702036
 20
46.41095588351496
 30
0.0
 11
21.69003382963911
 21
46.41095707730861
 31
0.0
  0
LINE
  5
8D
330
2F
100
AcDbEntity
  8
--4N-THT. MCB-MCCB-ACB
100
AcDbLine
 10
19.53546296327022
 20
46.41192370059585
 30
0.0
 11
19.43525036672964
 21
46.41192374895914
 31
0.0
  0
LINE
  5
8E
330
2F
100
AcDbEntity
  8
--4N-THT. MCB-MCCB-ACB
100
AcDbLine
 10
8.693146062888452
 20
49.02502792721467
 30
0.0
 11
36.35182322751917
 21
49.02502792721467
 31
0.0
  0
LINE
  5
8F
330
2F
100
AcDbEntity
  8
--4N-THT. MCB-MCCB-ACB
100
AcDbLine
 10
8.693146062888452
 20
53.89755524967555
 30
0.0
 11
36.35182322751917
 21
53.89755524967555
 31
0.0
  0
SPLINE
  5
90
330
2F
100
AcDbEntity
  8
--4N-THT. MCB-MCCB-ACB
100
AcDbSpline
 70
1064
 71
3
 72
13
 73
9
 74
7
 42
1e-09
 12
0.9999999999998861
 22
-4.770125013e-07
 32
0.0
 13
0.5094698276675736
 23
-0.8604885209556098
 33
0.0
 40
0.0
 40
0.0
 40
0.0
 40
0.0
 40
0.406727997401113
 40
0.8185415429407358
 40
1.223363078724789
 40
1.613757796951037
 40
2.00317516268538
 40
2.059841890047936
 40
2.059841890047936
 40
2.059841890047936
 40
2.059841890047936
 10
32.61885897695812
 20
24.93157328035492
 30
0.0
 10
32.7544349760918
 20
24.93157321568347
 30
0.0
 10
33.02799676033723
 20
24.90585760195329
 30
0.0
 10
33.42157010112047
 20
24.78982062578952
 30
0.0
 10
33.77982213605024
 20
24.60060483052339
 30
0.0
 10
34.08673495384585
 20
24.34804355236329
 30
0.0
 10
34.26233374213156
 20
24.12832474151973
 30
0.0
 10
34.3400950683132
 20
24.00158419743843
 30
0.0
 10
34.34971839758783
 20
23.98533050796656
 30
0.0
 11
32.61885897695812
 21
24.93157328035492
 31
0.0
 11
33.02377247824098
 21
24.89319724162275
 31
0.0
 11
33.41864655537848
 21
24.77630045169796
 31
0.0
 11
33.77632932221878
 21
24.58671270383426
 31
0.0
 11
34.07738178040837
 21
24.33816602122321
 31
0.0
 11
34.32008248357034
 21
24.03362989295571
 31
0.0
 11
34.34971839758783
 21
23.98533050796656
 31
0.0
  0
SPLINE
  5
91
330
2F
100
AcDbEntity
  8
--4N-THT. MCB-MCCB-ACB
100
AcDbSpline
 70
1064
 71
3
 72
10
 73
6
 74
4
 42
1e-09
 12
0.5096669513674411
 22
-0.8603717793395006
 32
0.0
 13
0.0070182305697893
 23
-0.9999753719165633
 33
0.0
 40
0.0
 40
0.0
 40
0.0
 40
0.0
 40
0.1061919321624286
 40
0.5281852136508975
 40
0.9489643328554663
 40
0.9489643328554663
 40
0.9489643328554663
 40
0.9489643328554663
 10
34.84568838870929
 20
23.14763115395878
 30
0.0
 10
34.86372922815097
 20
23.11717630675008
 30
0.0
 10
34.94905492148578
 20
22.96310856090654
 30
0.0
 10
35.06156718809922
 20
22.66409332760417
 30
0.0
 10
35.0966335126007
 20
22.38238382173318
 30
0.0
 10
35.09761788755987
 20
22.24212756965941
 30
0.0
 11
34.84568838870929
 21
23.14763115395878
 31
0.0
 11
34.89712112546932
 21
23.05472582555527
 31
0.0
 11
35.04545052036975
 21
22.65966036233446
 31
0.0
 11
35.09761788755987
 21
22.24212756965941
 31
0.0
  0
SPLINE
  5
92
330
2F
100
AcDbEntity
  8
--4N-THT. MCB-MCCB-ACB
100
AcDbSpline
 70
1064
 71
3
 72
10
 73
6
 74
4
 42
1e-09
 12
-0.5096745283449661
 22
-0.8603672908452161
 32
0.0
 13
-0.0070183696989766
 23
-0.999975370940089
 33
0.0
 40
0.0
 40
0.0
 40
0.0
 40
0.0
 40
0.1062074041649975
 40
0.5282005665266114
 40
0.9489796418428612
 40
0.9489796418428612
 40
0.9489796418428612
 40
0.9489796418428612
 10
10.09608126297917
 20
23.14765631523884
 30
0.0
 10
10.07803752677099
 20
23.11719718970913
 30
0.0
 10
9.992708633985336
 20
22.96312533164039
 30
0.0
 10
9.88019450146426
 20
22.66410531303685
 30
0.0
 10
9.845128148128364
 20
22.38239585943814
 30
0.0
 10
9.84414375375764
 20
22.2421396221304
 30
0.0
 11
10.09608126297917
 21
23.14765631523884
 31
0.0
 11
10.04464061002819
 21
23.05473768458038
 31
0.0
 11
9.896311174400587
 21
22.65967236389739
 31
0.0
 11
9.84414375375764
 21
22.2421396221304
 31
0.0
  0
SPLINE
  5
93
330
2F
100
AcDbEntity
  8
--4N-THT. MCB-MCCB-ACB
100
AcDbSpline
 70
1064
 71
3
 72
13
 73
9
 74
7
 42
1e-09
 12
0.5099589495522967
 22
0.8601987385316942
 32
0.0
 13
0.9999999999998864
 23
-4.766927678e-07
 33
0.0
 40
0.0
 40
0.0
 40
0.0
 40
0.0
 40
0.3301569574608804
 40
0.6610956744362178
 40
1.004932928290332
 40
1.360455826957565
 40
1.721229278129768
 40
2.06113154135534
 40
2.06113154135534
 40
2.06113154135534
 40
2.06113154135534
 10
10.59179692536873
 20
23.98493356556143
 30
0.0
 10
10.64791909044011
 20
24.07960043166986
 30
0.0
 10
10.77787678025788
 20
24.25932936648257
 30
0.0
 10
11.02054126324452
 20
24.49261646505906
 30
0.0
 10
11.30730176942037
 20
24.68482139947399
 30
0.0
 10
11.63227204345192
 20
24.82818354540612
 30
0.0
 10
11.97564278162645
 20
24.91321766407973
 30
0.0
 10
12.20961170719152
 20
24.93158301961367
 30
0.0
 10
12.32291246160003
 20
24.93158296560402
 30
0.0
 11
10.59179692536873
 21
23.98493356556143
 31
0.0
 11
10.78512538288942
 21
24.25256712861453
 31
0.0
 11
11.02340827961871
 21
24.48222273059188
 31
0.0
 11
11.30881805338959
 21
24.67396557445833
 31
0.0
 11
11.63393823074057
 21
24.81781758784715
 31
0.0
 11
11.98406613075077
 21
24.9048114767426
 31
0.0
 11
12.32291246160003
 21
24.93158296560402
 31
0.0
  0
SPLINE
  5
94
330
2F
100
AcDbEntity
  8
--4N-THT. MCB-MCCB-ACB
100
AcDbSpline
 70
1064
 71
3
 72
9
 73
5
 74
3
 42
1e-09
 12
0.0073153836268893
 22
0.9999732422232064
 32
0.0
 13
-0.0090797260241317
 23
0.9999587784380548
 33
0.0
 40
0.0
 40
0.0
 40
0.0
 40
0.0
 40
0.0092389584225038
 40
0.0138941168506012
 40
0.0138941168506012
 40
0.0138941168506012
 40
0.0138941168506012
 10
35.09761788755987
 20
11.72009172050971
 30
0.0
 10
35.0976404164016
 20
11.72317129091255
 30
0.0
 10
35.09767384248082
 20
11.72780260867075
 30
0.0
 10
35.09765700057753
 20
11.73243403162469
 30
0.0
 10
35.09764291138982
 20
11.73398568713642
 30
0.0
 11
35.09761788755987
 21
11.72009172050971
 31
0.0
 11
35.09766264332848
 21
11.72933057052765
 31
0.0
 11
35.09764291138982
 21
11.73398568713642
 31
0.0
  0
SPLINE
  5
95
330
2F
100
AcDbEntity
  8
--4N-THT. MCB-MCCB-ACB
100
AcDbSpline
 70
1064
 71
3
 72
9
 73
5
 74
3
 42
1e-09
 12
0.0070181933012629
 22
-0.9999753721781282
 32
0.0
 13
-0.0087831096329214
 23
-0.9999614277486788
 33
0.0
 40
0.0
 40
0.0
 40
0.0
 40
0.0
 40
0.0094979728233907
 40
0.0141854299343987
 40
0.0141854299343987
 40
0.0141854299343987
 40
0.0141854299343987
 10
35.09761788755987
 20
22.24212756965941
 30
0.0
 10
35.09764010709628
 20
22.23896165668974
 30
0.0
 10
35.097673765639
 20
22.23423323547076
 30
0.0
 10
35.09765715413268
 20
22.22950470998245
 30
0.0
 10
35.09764343064945
 20
22.22794228454738
 30
0.0
 11
35.09761788755987
 21
22.24212756965941
 31
0.0
 11
35.09766264332848
 21
22.23262970228431
 31
0.0
 11
35.09764343064945
 21
22.22794228454738
 31
0.0
  0
SPLINE
  5
96
330
2F
100
AcDbEntity
  8
--4N-THT. MCB-MCCB-ACB
100
AcDbSpline
 70
1064
 71
3
 72
9
 73
5
 74
3
 42
1e-09
 12
-0.0070183727307885
 22
-0.99997537091881
 32
0.0
 13
0.0087832890493067
 23
-0.9999614261727682
 33
0.0
 40
0.0
 40
0.0
 40
0.0
 40
0.0
 40
0.0094979728270287
 40
0.0141854299380441
 40
0.0141854299380441
 40
0.0141854299380441
 40
0.0141854299380441
 10
9.84414375375764
 20
22.2421396221304
 30
0.0
 10
9.844121533653146
 20
22.2389737091635
 30
0.0
 10
9.844087876100868
 20
22.23424528794083
 30
0.0
 10
9.844104486906312
 20
22.22951676244734
 30
0.0
 10
9.844118210669883
 20
22.22795433701473
 30
0.0
 11
9.84414375375764
 21
22.2421396221304
 31
0.0
 11
9.844098997989027
 21
22.23264175475166
 31
0.0
 11
9.844118210669883
 21
22.22795433701473
 31
0.0
  0
SPLINE
  5
97
330
2F
100
AcDbEntity
  8
--4N-THT. MCB-MCCB-ACB
100
AcDbSpline
 70
1064
 71
3
 72
9
 73
5
 74
3
 42
1e-09
 12
-0.0073155668176967
 22
0.9999732408830428
 32
0.0
 13
0.009079909200983
 23
0.9999587767747738
 33
0.0
 40
0.0
 40
0.0
 40
0.0
 40
0.0
 40
0.0092389584243228
 40
0.0138941168506089
 40
0.0138941168506089
 40
0.0138941168506089
 40
0.0138941168506089
 10
9.84414375375764
 20
11.72010377297525
 30
0.0
 10
9.844121224351749
 20
11.72318334337457
 30
0.0
 10
9.84408779925908
 20
11.72781466113539
 30
0.0
 10
9.84410464045757
 20
11.73244608409341
 30
0.0
 10
9.844118729929512
 20
11.73399773960196
 30
0.0
 11
9.84414375375764
 21
11.72010377297525
 31
0.0
 11
9.844098997989027
 21
11.729342622995
 31
0.0
 11
9.844118729929512
 21
11.73399773960196
 31
0.0
  0
SPLINE
  5
98
330
2F
100
AcDbEntity
  8
--4N-THT. MCB-MCCB-ACB
100
AcDbSpline
 70
1064
 71
3
 72
24
 73
20
 74
18
 42
1e-09
 12
3.3362158166e-06
 22
0.9999999999944348
 32
0.0
 13
0.0
 23
-1.0
 33
0.0
 40
0.0
 40
0.0
 40
0.0
 40
0.0
 40
0.8520751083617643
 40
1.782463700856171
 40
2.754292854918162
 40
3.756691769999088
 40
4.766917691080602
 40
5.761357551486304
 40
6.707886299352619
 40
7.622182978116251
 40
8.517394356328246
 40
9.431609592498617
 40
10.37797092707051
 40
11.37227920345789
 40
12.38283430081301
 40
13.38503033825319
 40
14.357154535243
 40
15.28863521268725
 40
16.14271162656564
 40
16.14271162656564
 40
16.14271162656564
 40
16.14271162656564
 10
17.35998300533993
 20
0.6175241643101402
 30
0.0
 10
17.35998395290875
 20
0.9015492004291475
 30
0.0
 10
17.41791570793434
 20
1.496851983295126
 30
0.0
 10
17.67184188352306
 20
2.38403981984604
 30
0.0
 10
18.0983245054395
 20
3.258657073039238
 30
0.0
 10
18.68297481068004
 20
4.069566813138759
 30
0.0
 10
19.40415131050353
 20
4.773210556313035
 30
0.0
 10
20.2250426735941
 20
5.325641635362099
 30
0.0
 10
21.10637119616002
 20
5.700488266021359
 30
0.0
 10
22.0121755419097
 20
5.887599540598154
 30
0.0
 10
22.92631312378042
 20
5.887923496338204
 30
0.0
 10
23.83216728156347
 20
5.701461318940726
 30
0.0
 10
24.71363232746099
 20
5.327258345108139
 30
0.0
 10
25.53488895648286
 20
4.77534971468259
 30
0.0
 10
26.25647815526031
 20
4.072122874267113
 30
0.0
 10
26.84166288904504
 20
3.261428670911753
 30
0.0
 10
27.26882055979553
 20
2.386698123742756
 30
0.0
 10
27.52350022014481
 20
1.498538107286463
 30
0.0
 10
27.58166804598932
 20
0.9021968477777537
 30
0.0
 10
27.58166804598932
 20
0.6175047098182916
 30
0.0
 11
17.35998300533993
 21
0.6175241643101402
 31
0.0
 11
17.43968412468985
 21
1.465863555040101
 31
0.0
 11
17.69288417012741
 21
2.36113595494649
 31
0.0
 11
18.11731028272789
 21
3.235386708236234
 31
0.0
 11
18.70337298614778
 21
4.048611211442818
 31
0.0
 11
19.42744977970779
 21
4.753074985282779
 31
0.0
 11
20.25391518135712
 21
5.306126136479775
 31
0.0
 11
21.12594659529805
 21
5.674199340662795
 31
0.0
 11
22.02166284423857
 21
5.857586412677534
 31
0.0
 11
22.91687416726837
 21
5.857900736485731
 31
0.0
 11
23.81263750865856
 21
5.675150813729175
 31
0.0
 11
24.68476206132892
 21
5.307729338850236
 31
0.0
 11
25.51147548165773
 21
4.755285795001015
 31
0.0
 11
26.23620257654785
 21
4.051018627853096
 31
0.0
 11
26.82260611921903
 21
3.238290024564463
 31
0.0
 11
27.24766534407082
 21
2.364018836807787
 31
0.0
 11
27.50160176609917
 21
1.467819893481333
 31
0.0
 11
27.58166804598932
 21
0.6175047098182916
 31
0.0
  0
SPLINE
  5
99
330
2F
100
AcDbEntity
  8
--4N-THT. MCB-MCCB-ACB
100
AcDbSpline
 70
1064
 71
3
 72
16
 73
12
 74
10
 42
1e-09
 12
-0.0075227403921164
 22
-0.9999717037881586
 32
0.0
 13
0.0126391803774769
 23
-0.9999201223694749
 33
0.0
 40
0.0
 40
0.0
 40
0.0
 40
0.0
 40
1.236665258680366
 40
2.481036684562679
 40
3.713882969699656
 40
4.916184895665537
 40
6.069417048108334
 40
7.155792032199647
 40
8.158570946138838
 40
9.06228929797281
 40
9.852988594758479
 40
9.852988594758479
 40
9.852988594758479
 40
9.852988594758479
 10
32.38931588419929
 20
6.117516890253369
 30
0.0
 10
32.38621484696829
 20
5.70530680167396
 30
0.0
 10
32.38068933804019
 20
4.878312599405529
 30
0.0
 10
32.37438864839121
 20
3.640367149623252
 30
0.0
 10
32.37011907218701
 20
2.413867483014423
 30
0.0
 10
32.367942125847
 20
1.217742098428664
 30
0.0
 10
32.36788858907154
 20
0.0704384132314802
 30
0.0
 10
32.36995436633356
 20
-1.010355717124755
 30
0.0
 10
32.37409481615916
 20
-2.007972266675565
 30
0.0
 10
32.38024181488113
 20
-2.907017853865782
 30
0.0
 10
32.3859812631499
 20
-3.471796395880605
 30
0.0
 10
32.3893125268287
 20
-3.735341775080399
 30
0.0
 11
32.38931588419929
 21
6.117516890253369
 31
0.0
 11
32.38103355223849
 21
4.88087936656089
 31
0.0
 11
32.37470423950709
 21
3.636524037343093
 31
0.0
 11
32.37042922239107
 21
2.403685164251925
 31
0.0
 11
32.36827510637068
 21
1.201385168009124
 31
0.0
 11
32.3682751241895
 21
0.0481530155663279
 31
0.0
 11
32.37042924019898
 21
-1.038219832881026
 31
0.0
 11
32.37470423440664
 21
-2.040989634313831
 31
0.0
 11
32.38103355732984
 21
-2.944685821709157
 31
0.0
 11
32.3893125268287
 21
-3.735341775080399
 31
0.0
  0
SPLINE
  5
9A
330
2F
100
AcDbEntity
  8
--4N-THT. MCB-MCCB-ACB
100
AcDbSpline
 70
1064
 71
3
 72
10
 73
6
 74
4
 42
1e-09
 12
0.9999065674091568
 22
-0.0136695446901961
 32
0.0
 13
0.9999999999998752
 23
-4.994352885e-07
 33
0.0
 40
0.0
 40
0.0
 40
0.0
 40
0.0
 40
0.0085087016754588
 40
0.0170014412311693
 40
0.0254827793129703
 40
0.0254827793129703
 40
0.0254827793129703
 40
0.0254827793129703
 10
11.82194774660912
 20
24.08546504218036
 30
0.0
 10
11.82478371550426
 20
24.08542627215442
 30
0.0
 10
11.83045051843639
 20
24.08536171505121
 30
0.0
 10
11.83894460628959
 20
24.08530366530003
 30
0.0
 10
11.8446026409465
 20
24.08529077023389
 30
0.0
 10
11.84742975364043
 20
24.08529076882193
 30
0.0
 11
11.82194774660912
 21
24.08546504218036
 31
0.0
 11
11.8304558962891
 21
24.0853681235291
 31
0.0
 11
11.83894843756844
 21
24.0853100909532
 31
0.0
 11
11.84742975364043
 21
24.08529076882193
 31
0.0
  0
SPLINE
  5
9B
330
2F
100
AcDbEntity
  8
--4N-THT. MCB-MCCB-ACB
100
AcDbSpline
 70
1064
 71
3
 72
16
 73
12
 74
10
 42
1e-09
 12
0.0157957185255626
 22
0.9998752398555838
 32
0.0
 13
-0.0094013010595194
 23
0.9999558067926743
 33
0.0
 40
0.0
 40
0.0
 40
0.0
 40
0.0
 40
0.6326536255995056
 40
1.355698650438339
 40
2.157933031787598
 40
3.026941309796963
 40
3.949386857591232
 40
4.911106450788076
 40
5.89735992224667
 40
6.892973131678147
 40
7.882449025818307
 40
7.882449025818307
 40
7.882449025818307
 40
7.882449025818307
 10
10.54838985516927
 20
-2.124690737772056
 30
0.0
 10
10.55172092803398
 20
-1.913832505891452
 30
0.0
 10
10.55747211700387
 20
-1.461967282130764
 30
0.0
 10
10.56361260811518
 20
-0.7426811058564623
 30
0.0
 10
10.56775365969309
 20
0.0554053541424386
 30
0.0
 10
10.56981808467592
 20
0.919966573265472
 30
0.0
 10
10.56976470575018
 20
1.83769187361826
 30
0.0
 10
10.56758884544836
 20
2.794496327155659
 30
0.0
 10
10.56331989972117
 20
3.775683152451944
 30
0.0
 10
10.55702259275187
 20
4.766111280989106
 30
0.0
 10
10.55149072609236
 20
5.427785065734156
 30
0.0
 10
10.54838993916838
 20
5.757595787743099
 30
0.0
 11
10.54838985516927
 21
-2.124690737772056
 31
0.0
 11
10.55667630305743
 21
-1.492091382124584
 31
0.0
 11
10.56300476307934
 21
-0.7690740527762899
 31
0.0
 11
10.56727864494952
 21
0.0331489439974178
 31
0.0
 11
10.5694318548076
 21
0.9021545544143521
 31
0.0
 11
10.56943189043978
 21
1.82460010220862
 31
0.0
 11
10.56727877222057
 21
2.78631728517908
 31
0.0
 11
10.56300508379991
 21
3.772561497101975
 31
0.0
 11
10.55667634123802
 21
4.768154591599937
 31
0.0
 11
10.54838993916838
 21
5.757595787743099
 31
0.0
  0
SPLINE
  5
9C
330
2F
100
AcDbEntity
  8
--4N-THT. MCB-MCCB-ACB
100
AcDbSpline
 70
1064
 71
3
 72
25
 73
21
 74
19
 42
1e-09
 12
-3.3378172674e-06
 22
-0.9999999999944295
 32
0.0
 13
0.0
 23
1.0
 33
0.0
 40
0.0
 40
0.0
 40
0.0
 40
0.0
 40
0.775854836042897
 40
1.569047350069855
 40
2.361809613086129
 40
3.167685684565303
 40
3.993876894292315
 40
4.846435476138225
 40
5.700904989602562
 40
6.554977613661389
 40
7.403195939708576
 40
8.251378254446292
 40
9.105452617885584
 40
9.959864298725002
 40
10.8125506768207
 40
11.63912599243963
 40
12.44470396593597
 40
13.23779016288058
 40
14.03184860941804
 40
14.80957736400515
 40
14.80957736400515
 40
14.80957736400515
 40
14.80957736400515
 10
27.58166804598932
 20
0.6174901399514569
 30
0.0
 10
27.58166718276877
 20
0.3588718612719317
 30
0.0
 10
27.53518634439525
 20
-0.1655969671500372
 30
0.0
 10
27.3117545754088
 20
-0.9262241639918745
 30
0.0
 10
26.92781498690982
 20
-1.632040119451342
 30
0.0
 10
26.39538015248772
 20
-2.248118511772339
 30
0.0
 10
25.7343101889286
 20
-2.755609152063171
 30
0.0
 10
24.97855647336704
 20
-3.141414728902446
 30
0.0
 10
24.16391110954387
 20
-3.406482183018559
 30
0.0
 10
23.32307763984399
 20
-3.558924540825395
 30
0.0
 10
22.47243140766488
 20
-3.608558005102798
 30
0.0
 10
21.62176368356527
 20
-3.559298017647683
 30
0.0
 10
20.78088978286646
 20
-3.407261595669026
 30
0.0
 10
19.96608007309863
 20
-3.142635042176506
 30
0.0
 10
19.20994703059587
 20
-2.757248511860391
 30
0.0
 10
18.54846746454351
 20
-2.25017237323973
 30
0.0
 10
18.01548074804711
 20
-1.634401474160863
 30
0.0
 10
17.63083947022371
 20
-0.9286198199283738
 30
0.0
 10
17.40665758136848
 20
-0.1671271408431285
 30
0.0
 10
17.35998300533993
 20
0.358266668611483
 30
0.0
 10
17.35998300533993
 20
0.6175095868071879
 30
0.0
 11
27.58166804598932
 21
0.6174901399514569
 31
0.0
 11
27.51077160268779
 21
-0.1551187008847989
 31
0.0
 11
27.28556344321897
 21
-0.9156682714040869
 31
0.0
 11
26.90670377308835
 21
-1.612042708048051
 31
0.0
 11
26.38134225434897
 21
-2.223133140971498
 31
0.0
 11
25.72820313449029
 21
-2.729098757530977
 31
0.0
 11
24.97071834010695
 21
-3.120344104796771
 31
0.0
 11
24.15917706920028
 21
-3.387774310748085
 31
0.0
 11
23.31915632820802
 21
-3.542063655388432
 31
0.0
 11
22.47241591957846
 21
-3.592113720684523
 31
0.0
 11
21.62568928156998
 21
-3.542442405816785
 31
0.0
 11
20.78559262657019
 21
-3.388557291064302
 31
0.0
 11
19.97395814055654
 21
-3.121595156168353
 31
0.0
 11
19.21610818055797
 21
-2.730778706258519
 31
0.0
 11
18.56231762920016
 21
-2.22502711966112
 31
0.0
 11
18.03669058196738
 21
-1.614558382869603
 31
0.0
 11
17.65713496129957
 21
-0.9181940769179561
 31
0.0
 11
17.43122525140917
 21
-0.1569492940164707
 31
0.0
 11
17.35998300533993
 21
0.6175095868071879
 31
0.0
  0
SPLINE
  5
9D
330
2F
100
AcDbEntity
  8
--4N-THT. MCB-MCCB-ACB
100
AcDbSpline
 70
1064
 71
3
 72
16
 73
12
 74
10
 42
1e-09
 12
-0.0094026688912367
 22
-0.9999557939317726
 32
0.0
 13
0.0157980163248047
 23
-0.9998752035530241
 33
0.0
 40
0.0
 40
0.0
 40
0.0
 40
0.0
 40
0.9894758965895604
 40
1.985089104239089
 40
2.97134257329969
 40
3.933062167205046
 40
4.855507715001134
 40
5.724515996329271
 40
6.526750383534055
 40
7.24979542152953
 40
7.882449070535136
 40
7.882449070535136
 40
7.882449070535136
 40
7.882449070535136
 10
34.39326921415796
 20
5.757584407259543
 30
0.0
 10
34.3901679760808
 20
5.42777368867602
 30
0.0
 10
34.38463530743874
 20
4.766099910257843
 30
0.0
 10
34.37833708136225
 20
3.775671787959922
 30
0.0
 10
34.37406751780747
 20
2.794484966311208
 30
0.0
 10
34.37189133515483
 20
1.837680513857709
 30
0.0
 10
34.37183795391519
 20
0.9199552119170737
 30
0.0
 10
34.37390267820467
 20
0.0553939901812293
 30
0.0
 10
34.37804433063788
 20
-0.7426924745309746
 30
0.0
 10
34.38418571782718
 20
-1.461978657689412
 30
0.0
 10
34.38993774059876
 20
-1.91384388368665
 30
0.0
 10
34.39326929815707
 20
-2.124702115712665
 30
0.0
 11
34.39326921415796
 21
5.757584407259543
 31
0.0
 11
34.38498160811742
 21
4.76814321875068
 31
0.0
 11
34.37865194411916
 21
3.772550131892472
 31
0.0
 11
34.37437763461913
 21
2.78630592505911
 31
0.0
 11
34.37222420076888
 21
1.824588742086831
 31
0.0
 11
34.37222423894765
 21
0.902143194290744
 31
0.0
 11
34.37437776189927
 21
0.0331375813308625
 31
0.0
 11
34.37865226483974
 21
-0.7690854179894302
 31
0.0
 11
34.38498164629983
 21
-1.492102752429076
 31
0.0
 11
34.39326929815707
 21
-2.124702115712665
 31
0.0
  0
SPLINE
  5
9E
330
2F
100
AcDbEntity
  8
--4N-THT. MCB-MCCB-ACB
100
AcDbSpline
 70
1064
 71
3
 72
14
 73
10
 74
8
 42
1e-09
 12
-0.0851422093792165
 22
0.9963688093181287
 32
0.0
 13
-0.9999583234325521
 23
0.0091296986784525
 33
0.0
 40
0.0
 40
0.0
 40
0.0
 40
0.0
 40
0.0949756214328231
 40
0.2636313216321286
 40
0.5128878492068857
 40
0.834639346192109
 40
1.214879728103705
 40
1.635976787573369
 40
2.077993746189739
 40
2.077993746189739
 40
2.077993746189739
 40
2.077993746189739
 10
34.3932688807081
 20
5.757576608151481
 30
0.0
 10
34.39057340262612
 20
5.789120190431905
 30
0.0
 10
34.31814640425911
 20
5.858905909579436
 30
0.0
 10
34.16282660676905
 20
5.919710744773212
 30
0.0
 10
33.92239154328834
 20
5.984996250825906
 30
0.0
 10
33.61024360075886
 20
6.037742467138272
 30
0.0
 10
33.23790594850846
 20
6.080286732164811
 30
0.0
 10
32.824343593015
 20
6.108087705689803
 30
0.0
 10
32.53665290174104
 20
6.116171729705725
 30
0.0
 10
32.38932005611879
 20
6.117516890253369
 30
0.0
 11
34.3932688807081
 21
5.757576608151481
 31
0.0
 11
34.33742675772101
 21
5.834401252419098
 31
0.0
 11
34.18572246786881
 21
5.908093542722468
 31
0.0
 11
33.9456210253693
 21
5.975027195306807
 31
0.0
 11
33.62893736250863
 21
6.031908505852385
 31
0.0
 11
33.25125481005944
 21
6.075938468511282
 31
0.0
 11
32.83115834903857
 21
6.104950482087275
 31
0.0
 11
32.38932005611879
 21
6.117516890253369
 31
0.0
  0
SPLINE
  5
9F
330
2F
100
AcDbEntity
  8
--4N-THT. MCB-MCCB-ACB
100
AcDbSpline
 70
1064
 71
3
 72
8
 73
4
 74
2
 42
1e-09
 12
-0.0182587554195437
 22
-0.9998332950299911
 32
0.0
 13
-0.0825411185367991
 23
-0.9965876598426724
 33
0.0
 40
0.0
 40
0.0
 40
0.0
 40
0.0
 40
0.0841492850025346
 40
0.0841492850025346
 40
0.0841492850025346
 40
0.0841492850025346
 10
34.3932688807081
 20
-2.124710322074264
 30
0.0
 10
34.39275672697024
 20
-2.152755407707098
 30
0.0
 10
34.39133010403017
 20
-2.180797963898673
 30
0.0
 10
34.38901484532745
 20
-2.208752010238043
 30
0.0
 11
34.3932688807081
 21
-2.124710322074264
 31
0.0
 11
34.38901484532745
 21
-2.208752010238043
 31
0.0
  0
SPLINE
  5
A0
330
2F
100
AcDbEntity
  8
--4N-THT. MCB-MCCB-ACB
100
AcDbSpline
 70
1064
 71
3
 72
14
 73
10
 74
8
 42
1e-09
 12
-0.0825411133588404
 22
-0.9965876602715305
 32
0.0
 13
-0.9999852426369642
 23
-0.0054327256779198
 33
0.0
 40
0.0
 40
0.0
 40
0.0
 40
0.0
 40
0.2784273686463643
 40
0.6501915231703963
 40
1.037931561760755
 40
1.44422328890781
 40
1.867941090748862
 40
2.304887110477738
 40
2.748750534435749
 40
2.748750534435749
 40
2.748750534435749
 40
2.748750534435749
 10
34.38901484532745
 20
-2.208752010238043
 30
0.0
 10
34.3813542769949
 20
-2.30124443686299
 30
0.0
 10
34.34072680256949
 20
-2.515925946189253
 30
0.0
 10
34.196371895401
 20
-2.834697707877346
 30
0.0
 10
33.95177390717332
 20
-3.141297256213708
 30
0.0
 10
33.63166892981894
 20
-3.395955338443569
 30
0.0
 10
33.25204685310906
 20
-3.587225619757544
 30
0.0
 10
32.83142676644421
 20
-3.706570462072444
 30
0.0
 10
32.53727234735356
 20
-3.734537979006791
 30
0.0
 10
32.38932005611879
 20
-3.735341775080399
 30
0.0
 11
34.38901484532745
 21
-2.208752010238043
 31
0.0
 11
34.33742674752739
 21
-2.482358420573604
 31
0.0
 11
34.18572245004999
 21
-2.821761415132954
 31
0.0
 11
33.94562100500753
 21
-3.126217706929622
 31
0.0
 11
33.62893734468981
 21
-3.380745557735593
 31
0.0
 11
33.25125479733016
 21
-3.572820202124006
 31
0.0
 11
32.83115834140973
 21
-3.692990048092127
 31
0.0
 11
32.38932005611879
 21
-3.735341775080399
 31
0.0
  0
SPLINE
  5
A1
330
2F
100
AcDbEntity
  8
--4N-THT. MCB-MCCB-ACB
100
AcDbSpline
 70
1064
 71
3
 72
14
 73
10
 74
8
 42
1e-09
 12
0.0898130764328554
 22
0.995958639352893
 32
0.0
 13
0.9999746446911812
 23
0.0071210936481606
 33
0.0
 40
0.0
 40
0.0
 40
0.0
 40
0.0
 40
0.0950012718162272
 40
0.2637218695193889
 40
0.513102370824331
 40
0.8349917101418199
 40
1.215414597036462
 40
1.63654337730583
 40
2.077988476583027
 40
2.077988476583027
 40
2.077988476583027
 40
2.077988476583027
 10
10.54839027262006
 20
5.757587988635037
 30
0.0
 10
10.55123439144901
 20
5.789127101106665
 30
0.0
 10
10.62342509023052
 20
5.858954600768762
 30
0.0
 10
10.7789993564627
 20
5.919748726446458
 30
0.0
 10
11.01945589455208
 20
5.985071200929882
 30
0.0
 10
11.33179176983238
 20
6.037777629446308
 30
0.0
 10
11.70422777374311
 20
6.080436531025049
 30
0.0
 10
12.11768738892439
 20
6.107909984802069
 30
0.0
 10
12.40519023641451
 20
6.116478499302333
 30
0.0
 10
12.55233487184797
 20
6.117526356599825
 30
0.0
 11
10.54839027262006
 21
5.757587988635037
 31
0.0
 11
10.60425368278903
 21
5.83442887001334
 31
0.0
 11
10.75602335378881
 21
5.908135091283526
 31
0.0
 11
10.99624767037949
 21
5.975089644150699
 31
0.0
 11
11.3130720174986
 21
6.031967406402742
 31
0.0
 11
11.69093501080807
 21
6.076025676460318
 31
0.0
 11
12.11106869829837
 21
6.104958948085965
 31
0.0
 11
12.55233487184797
 21
6.117526356599825
 31
0.0
  0
SPLINE
  5
A2
330
2F
100
AcDbEntity
  8
--4N-THT. MCB-MCCB-ACB
100
AcDbSpline
 70
1064
 71
3
 72
8
 73
4
 74
2
 42
1e-09
 12
0.0182560935099862
 22
-0.9998333436377057
 32
0.0
 13
0.0825291021302985
 23
-0.9965886550134747
 33
0.0
 40
0.0
 40
0.0
 40
0.0
 40
0.0
 40
0.0841368467856881
 40
0.0841368467856881
 40
0.0841368467856881
 40
0.0841368467856881
 10
10.54839027262006
 20
-2.124698944140931
 30
0.0
 10
10.54890227600091
 20
-2.152739885755887
 30
0.0
 10
10.55032848128411
 20
-2.180778298969249
 30
0.0
 10
10.55264306075788
 20
-2.208728241294323
 30
0.0
 11
10.54839027262006
 21
-2.124698944140931
 31
0.0
 11
10.55264306075788
 21
-2.208728241294323
 31
0.0
  0
SPLINE
  5
A3
330
2F
100
AcDbEntity
  8
--4N-THT. MCB-MCCB-ACB
100
AcDbSpline
 70
1064
 71
3
 72
14
 73
10
 74
8
 42
1e-09
 12
0.0825291058307199
 22
-0.996588654707037
 32
0.0
 13
0.9999852374552123
 23
-0.0054336793835038
 33
0.0
 40
0.0
 40
0.0
 40
0.0
 40
0.0
 40
0.2784396507874788
 40
0.650203571115137
 40
1.037943291502363
 40
1.44423468860571
 40
1.867952209589105
 40
2.304898041367632
 40
2.748761406581604
 40
2.748761406581604
 40
2.748761406581604
 40
2.748761406581604
 10
10.55264306075788
 20
-2.208728241294323
 30
0.0
 10
10.56030285256031
 20
-2.301224840292787
 30
0.0
 10
10.60092958483243
 20
-2.515910793868577
 30
0.0
 10
10.74528535504522
 20
-2.834686477181588
 30
0.0
 10
10.98988255667191
 20
-3.141286303033114
 30
0.0
 10
11.30998689275481
 20
-3.395944703358499
 30
0.0
 10
11.68960849444138
 20
-3.587215349209487
 30
0.0
 10
12.11022828912649
 20
-3.706560589261411
 30
0.0
 10
12.40438260096091
 20
-3.734528371669002
 30
0.0
 10
12.55233487184797
 20
-3.73533230874122
 30
0.0
 11
10.55264306075788
 21
-2.208728241294323
 31
0.0
 11
10.60423145890946
 21
-2.482347093544689
 31
0.0
 11
10.75593485786977
 21
-2.821750233190272
 31
0.0
 11
10.99603549855693
 21
-3.126206754072285
 31
0.0
 11
11.31271849198948
 21
-3.380734907781828
 31
0.0
 11
11.69040054044035
 21
-3.572809913616168
 31
0.0
 11
12.11049668582837
 21
-3.692980161759209
 31
0.0
 11
12.55233487184797
 21
-3.73533230874122
 31
0.0
  0
SPLINE
  5
A4
330
2F
100
AcDbEntity
  8
--4N-THT. MCB-MCCB-ACB
100
AcDbSpline
 70
1064
 71
3
 72
13
 73
9
 74
7
 42
1e-09
 12
0.9999746795808855
 22
-0.0071161925989561
 32
0.0
 13
0.0006670494224616
 23
-0.9999997775225091
 33
0.0
 40
0.0
 40
0.0
 40
0.0
 40
0.0
 40
0.5226464640447307
 40
1.040409663368673
 40
1.548699278079519
 40
2.045288370140035
 40
2.531039303437537
 40
3.009859403733026
 40
3.009859403733026
 40
3.009859403733026
 40
3.009859403733026
 10
32.38932212552846
 20
7.600642254861355
 30
0.0
 10
32.5635332023342
 20
7.59940250389492
 30
0.0
 10
32.91146357208305
 20
7.555362029270592
 30
0.0
 10
33.39804461237975
 20
7.36883795381682
 30
0.0
 10
33.81770730394086
 20
7.0737937751871
 30
0.0
 10
34.14136560128992
 20
6.689045176370752
 30
0.0
 10
34.34608653928837
 20
6.240489948788163
 30
0.0
 10
34.39316241515097
 20
5.91718327274108
 30
0.0
 10
34.3932688807081
 20
5.757576608151481
 30
0.0
 11
32.38932212552846
 21
7.600642254861355
 31
0.0
 11
32.90778528954889
 21
7.534647755602833
 31
0.0
 11
33.39094328975899
 21
7.348537365223506
 31
0.0
 11
33.80589509264883
 21
7.054984416504936
 31
0.0
 11
34.124384215379
 21
6.673978635635336
 31
0.0
 11
34.32472288776899
 21
6.231464923368235
 31
0.0
 11
34.3932688807081
 21
5.757576608151481
 31
0.0
  0
SPLINE
  5
A5
330
2F
100
AcDbEntity
  8
--4N-THT. MCB-MCCB-ACB
100
AcDbSpline
 70
1064
 71
3
 72
12
 73
8
 74
6
 42
1e-09
 12
0.9999065800303499
 22
0.0136686214377839
 32
0.0
 13
0.5096669510355831
 23
-0.8603717795360866
 33
0.0
 40
0.0
 40
0.0
 40
0.0
 40
0.0
 40
0.4413339982509957
 40
0.8797966778739205
 40
1.309582056969992
 40
1.738218290074261
 40
2.053356967056829
 40
2.053356967056829
 40
2.053356967056829
 40
2.053356967056829
 10
33.11981389470658
 20
24.08545487839698
 30
0.0
 10
33.26691148432067
 20
24.08746568751356
 30
0.0
 10
33.56155105124063
 20
24.06042528935997
 30
0.0
 10
33.98090638032724
 20
23.92779300337945
 30
0.0
 10
34.35807878666047
 20
23.70945682059624
 30
0.0
 10
34.64714431882863
 20
23.4407632142999
 30
0.0
 10
34.79214979915892
 20
23.23800996206416
 30
0.0
 10
34.84568838870929
 20
23.14763115395878
 30
0.0
 11
33.11981389470658
 21
24.08545487839698
 31
0.0
 11
33.55926393298888
 21
24.04471961276764
 31
0.0
 11
33.9771771891492
 21
23.9120620394912
 31
0.0
 11
34.34883431909021
 21
23.69622309525554
 31
0.0
 11
34.66241434263885
 21
23.40399614721506
 31
0.0
 11
34.84568838870929
 21
23.14763115395878
 31
0.0
  0
SPLINE
  5
A6
330
2F
100
AcDbEntity
  8
--4N-THT. MCB-MCCB-ACB
100
AcDbSpline
 70
1064
 71
3
 72
13
 73
9
 74
7
 42
1e-09
 12
0.0006669523794088
 22
0.9999997775872369
 32
0.0
 13
0.9999746863770445
 23
0.0071152375316167
 33
0.0
 40
0.0
 40
0.0
 40
0.0
 40
0.0
 40
0.4788200289644454
 40
0.9645707736547713
 40
1.461159618296741
 40
1.96944899329678
 40
2.487212032683459
 40
3.009858449199451
 40
3.009858449199451
 40
3.009858449199451
 40
3.009858449199451
 10
10.54839027262006
 20
5.757587988635037
 30
0.0
 10
10.5484967226726
 20
5.917194629457958
 30
0.0
 10
10.59557255497131
 20
6.240501226027067
 30
0.0
 10
10.80029345509712
 20
6.689056294801379
 30
0.0
 10
11.1239517559235
 20
7.073804610481181
 30
0.0
 10
11.54361446555821
 20
7.368848401977411
 30
0.0
 10
12.03019553146829
 20
7.555372011643918
 30
0.0
 10
12.37812587656202
 20
7.599412136734348
 30
0.0
 10
12.55233693870924
 20
7.600651721200534
 30
0.0
 11
10.54839027262006
 21
5.757587988635037
 31
0.0
 11
10.61693622483018
 21
6.231476237669681
 31
0.0
 11
10.8172748615898
 21
6.673989759032025
 31
0.0
 11
11.13576396394729
 21
7.054995234455105
 31
0.0
 11
11.55071575411876
 21
7.348547786090108
 31
0.0
 11
12.03387375942021
 21
7.534657718302383
 31
0.0
 11
12.55233693870924
 21
7.600651721200534
 31
0.0
  0
SPLINE
  5
A7
330
2F
100
AcDbEntity
  8
--4N-THT. MCB-MCCB-ACB
100
AcDbSpline
 70
1064
 71
3
 72
12
 73
8
 74
6
 42
1e-09
 12
-0.9999065669562043
 22
0.0136695778229488
 32
0.0
 13
-0.5096745276573058
 23
-0.8603672912525802
 33
0.0
 40
0.0
 40
0.0
 40
0.0
 40
0.0
 40
0.4413338986668628
 40
0.8797964185598811
 40
1.309581604552325
 40
1.738217634759002
 40
2.053340719746619
 40
2.053340719746619
 40
2.053340719746619
 40
2.053340719746619
 10
11.82194774660912
 20
24.08546504218036
 30
0.0
 10
11.67485019210999
 20
24.08747599153826
 30
0.0
 10
11.380210685278
 20
24.06043588225716
 30
0.0
 10
10.96085538206487
 20
23.92780399730167
 30
0.0
 10
10.5836829861621
 20
23.70946817620268
 30
0.0
 10
10.29462122966598
 20
23.44077834935374
 30
0.0
 10
10.1496179994775
 20
23.23803018025282
 30
0.0
 10
10.09608126297917
 20
23.14765631523884
 30
0.0
 11
11.82194774660912
 21
24.08546504218036
 31
0.0
 11
11.38249776940666
 21
24.04473019654112
 31
0.0
 11
10.96458455397715
 21
23.912073022893
 31
0.0
 11
10.59292744186769
 21
23.69623443246716
 31
0.0
 11
10.27934741575792
 21
23.40400778478366
 31
0.0
 11
10.09608126297917
 21
23.14765631523884
 31
0.0
  0
SPLINE
  5
A8
330
2F
100
AcDbEntity
  8
--4N-THT. MCB-MCCB-ACB
100
AcDbSpline
 70
1064
 71
3
 72
10
 73
6
 74
4
 42
1e-09
 12
-0.9999065797149631
 22
-0.0136686445093924
 32
0.0
 13
-0.9999999999998752
 23
4.994352885e-07
 33
0.0
 40
0.0
 40
0.0
 40
0.0
 40
0.0
 40
0.0085087015884621
 40
0.0170014436403292
 40
0.0254827816989422
 40
0.0254827816989422
 40
0.0254827816989422
 40
0.0254827816989422
 10
33.11981389470658
 20
24.08545487839698
 30
0.0
 10
33.11697792580553
 20
24.08541611092456
 30
0.0
 10
33.1113111220119
 20
24.08535155918155
 30
0.0
 10
33.10281703331433
 20
24.08529351573991
 30
0.0
 10
33.09715899781306
 20
24.08528062908335
 30
0.0
 10
33.09433188512686
 20
24.08528063049531
 30
0.0
 11
33.11981389470658
 21
24.08545487839698
 31
0.0
 11
33.11130574502659
 21
24.08535796738366
 31
0.0
 11
33.10281320119885
 21
24.08529994244569
 31
0.0
 11
33.09433188512686
 21
24.08528063049531
 31
0.0
  0
SPLINE
  5
A9
330
2F
100
AcDbEntity
  8
--4N-THT. MCB-MCCB-ACB
100
AcDbSpline
 70
1064
 71
3
 72
16
 73
12
 74
10
 42
1e-09
 12
0.012636882522344
 22
0.9999201514121597
 32
0.0
 13
-0.0075213722714056
 23
0.9999717140795308
 33
0.0
 40
0.0
 40
0.0
 40
0.0
 40
0.0
 40
0.7906992759219554
 40
1.694417609516362
 40
2.697196517590561
 40
3.783571498358125
 40
4.936803650802741
 40
6.139105578612951
 40
7.371951866138818
 40
8.616323291260988
 40
9.852988547489876
 40
9.852988547489876
 40
9.852988547489876
 40
9.852988547489876
 10
12.55234240113987
 20
-3.73533230874122
 30
0.0
 10
12.55567305909331
 20
-3.471786928840765
 30
0.0
 10
12.56141146123366
 20
-2.907008389893614
 30
0.0
 10
12.56755734452591
 20
-2.0079628104626
 30
0.0
 10
12.57169703833123
 20
-1.010346267298749
 30
0.0
 10
12.57376244042816
 20
0.0704478604346338
 30
0.0
 10
12.57370891331336
 20
1.217751544899347
 30
0.0
 10
12.57153236260937
 20
2.413876931404837
 30
0.0
 10
12.5672635655661
 20
3.640376601683582
 30
0.0
 10
12.56096401981138
 20
4.878322056833855
 30
0.0
 10
12.55543951701411
 20
5.705316264595224
 30
0.0
 10
12.55233904375837
 20
6.117526356599825
 30
0.0
 11
12.55234240113987
 21
-3.73533230874122
 31
0.0
 11
12.56061986375699
 21
-2.944676360457691
 31
0.0
 11
12.56694803615847
 21
-2.040980183245068
 31
0.0
 11
12.57122225146941
 21
-1.038210384357029
 31
0.0
 11
12.57337597549759
 21
0.0481624615437397
 31
0.0
 11
12.57337599331823
 21
1.201394613988355
 31
0.0
 11
12.57122226929005
 21
2.403694612777741
 31
0.0
 11
12.56694803105802
 21
3.636533490958441
 31
0.0
 11
12.56061986884834
 21
4.880888825267589
 31
0.0
 11
12.55233904375837
 21
6.117526356599825
 31
0.0
  0
SPLINE
  5
AA
330
2F
100
AcDbEntity
  8
--4N-THT. MCB-MCCB-ACB
100
AcDbSpline
 70
1064
 71
3
 72
8
 73
4
 74
2
 42
1e-09
 12
2.0109095867e-06
 22
-0.9999999999979781
 32
0.0
 13
0.0373556918390869
 23
-0.999302032564341
 33
0.0
 40
0.0
 40
0.0
 40
0.0
 40
0.0
 40
0.0506646726734674
 40
0.0506646726734674
 40
0.0506646726734674
 40
0.0506646726734674
 10
17.73163416375701
 20
44.5424504655945
 30
0.0
 10
17.7316341977177
 20
44.52556224137005
 30
0.0
 10
17.73195188921745
 20
44.50867111080153
 30
0.0
 10
17.73258276051729
 20
44.49179467400759
 30
0.0
 11
17.73163416375701
 21
44.5424504655945
 31
0.0
 11
17.73258276051729
 21
44.49179467400759
 31
0.0
  0
SPLINE
  5
AB
330
2F
100
AcDbEntity
  8
--4N-THT. MCB-MCCB-ACB
100
AcDbSpline
 70
1064
 71
3
 72
13
 73
9
 74
7
 42
1e-09
 12
0.0373557159118399
 22
-0.9993020316644582
 32
0.0
 13
0.9999999999998861
 23
-4.773590777e-07
 33
0.0
 40
0.0
 40
0.0
 40
0.0
 40
0.0
 40
0.3530366595844001
 40
0.760538753229148
 40
1.177168799710786
 40
1.604709165370154
 40
2.043260019077876
 40
2.490600793248027
 40
2.490600793248027
 40
2.490600793248027
 40
2.490600793248027
 10
17.73258276051729
 20
44.49179467400759
 30
0.0
 10
17.73697873957126
 20
44.37419792361602
 30
0.0
 10
17.77920744987409
 20
44.12100694114765
 30
0.0
 10
17.94691010442175
 20
43.7606544638553
 30
0.0
 10
18.22100576614545
 20
43.43966125989516
 30
0.0
 10
18.57608746144511
 20
43.19338541822841
 30
0.0
 10
18.98958276449391
 20
43.03741874998896
 30
0.0
 10
19.28613963636983
 20
43.00186151483258
 30
0.0
 10
19.43525322775986
 20
43.00186144365185
 30
0.0
 11
17.73258276051729
 21
44.49179467400759
 31
0.0
 11
17.79043041434944
 21
44.14352964280776
 31
0.0
 11
17.96102822332887
 21
43.77345621239661
 31
0.0
 11
18.23050888389935
 21
43.45571296823588
 31
0.0
 11
18.58105984720806
 21
43.21095842508809
 31
0.0
 11
18.99114334860952
 21
43.05552878452332
 31
0.0
 11
19.43525322775986
 21
43.00186144365185
 31
0.0
  0
SPLINE
  5
AC
330
2F
100
AcDbEntity
  8
--4N-THT. MCB-MCCB-ACB
100
AcDbSpline
 70
1064
 71
3
 72
12
 73
8
 74
6
 42
1e-09
 12
0.9999999999998859
 22
-4.775823329e-07
 32
0.0
 13
2.086691119e-06
 23
-0.9999999999978229
 33
0.0
 40
0.0
 40
0.0
 40
0.0
 40
0.0
 40
0.3460680525885686
 40
0.6820014160570058
 40
1.005866277082994
 40
1.319942106013482
 40
1.630907104709864
 40
1.630907104709864
 40
1.630907104709864
 40
1.630907104709864
 10
19.53546237782667
 20
45.88158295691907
 30
0.0
 10
19.65081839535618
 20
45.88158290182707
 30
0.0
 10
19.87948785765635
 20
45.84981142905427
 30
0.0
 10
20.18956841040601
 20
45.71089473823613
 30
0.0
 10
20.43771817461967
 20
45.49342167962417
 30
0.0
 10
20.59998103787546
 20
45.21523444564512
 30
0.0
 10
20.63779968242223
 20
45.00506688060045
 30
0.0
 10
20.63779989871819
 20
44.90141188103522
 30
0.0
 11
19.53546237782667
 21
45.88158295691907
 31
0.0
 11
19.87814114436788
 21
45.83326774208732
 31
0.0
 11
20.18414414084055
 21
45.69465536586873
 31
0.0
 11
20.42643319682885
 21
45.47974966199914
 31
0.0
 11
20.58307486523973
 21
45.20752362717545
 31
0.0
 11
20.63779989871819
 21
44.90141188103522
 31
0.0
  0
SPLINE
  5
AD
330
2F
100
AcDbEntity
  8
--4N-THT. MCB-MCCB-ACB
100
AcDbSpline
 70
1064
 71
3
 72
12
 73
8
 74
6
 42
1e-09
 12
1.0675340054e-06
 22
0.9999999999994301
 32
0.0
 13
0.9999999999998859
 23
-4.775810024e-07
 33
0.0
 40
0.0
 40
0.0
 40
0.0
 40
0.0
 40
0.3106103844931181
 40
0.6246921544347981
 40
0.9485653832840203
 40
1.28456563765226
 40
1.630911607768181
 40
1.630911607768181
 40
1.630911607768181
 40
1.630911607768181
 10
18.3329101349982
 20
44.90141027743053
 30
0.0
 10
18.33291024552726
 20
45.00494707226152
 30
0.0
 10
18.37065922675607
 20
45.21499373373504
 30
0.0
 10
18.53276325910707
 20
45.49314302398745
 30
0.0
 10
18.78085657106462
 20
45.71072409417015
 30
0.0
 10
19.09101421175558
 20
45.849767499245
 30
0.0
 10
19.31980112203238
 20
45.88158306041844
 30
0.0
 10
19.43524977873767
 20
45.88158300528236
 30
0.0
 11
18.3329101349982
 21
44.90141027743053
 31
0.0
 11
18.38751002897062
 21
45.20718415226808
 31
0.0
 11
18.54405321839932
 21
45.47947368209467
 31
0.0
 11
18.78627392784893
 21
45.69446902222777
 31
0.0
 11
19.0923013906986
 21
45.83318947103513
 31
0.0
 11
19.43524977873767
 21
45.88158300528236
 31
0.0
  0
SPLINE
  5
AE
330
2F
100
AcDbEntity
  8
--4N-THT. MCB-MCCB-ACB
100
AcDbSpline
 70
1064
 71
3
 72
13
 73
9
 74
7
 42
1e-09
 12
0.9999999999998863
 22
-4.768640533e-07
 32
0.0
 13
1.0569150762e-06
 23
0.9999999999994414
 33
0.0
 40
0.0
 40
0.0
 40
0.0
 40
0.0
 40
0.4469191931955649
 40
0.8853402314860835
 40
1.313068648323371
 40
1.729529968712054
 40
2.137160781695186
 40
2.540787863630709
 40
2.540787863630709
 40
2.540787863630709
 40
2.540787863630709
 10
19.5354658344777
 20
43.00186139528856
 30
0.0
 10
19.6844388988762
 20
43.00186132424866
 30
0.0
 10
19.98080851700767
 20
43.0373629008771
 30
0.0
 10
20.39422705380538
 20
43.1931838458358
 30
0.0
 10
20.74934526953185
 20
43.43932953751827
 30
0.0
 10
21.02357087100394
 20
43.7603336531627
 30
0.0
 10
21.19855670184807
 20
44.13590904638219
 30
0.0
 10
21.239074966678
 20
44.40791247030933
 30
0.0
 10
21.23907510887785
 20
44.54245483095443
 30
0.0
 11
19.5354658344777
 21
43.00186139528856
 31
0.0
 11
19.97916306611933
 21
43.05542940701313
 31
0.0
 11
20.38916571797837
 21
43.21070603849481
 31
0.0
 11
20.73993631620852
 21
43.45547447189134
 31
0.0
 11
21.00939817135714
 21
43.7730124066326
 31
0.0
 11
21.18016413455826
 21
44.14315003712332
 31
0.0
 11
21.23907510887785
 21
44.54245483095443
 31
0.0
  0
SPLINE
  5
AF
330
2F
100
AcDbEntity
  8
--4N-THT. MCB-MCCB-ACB
100
AcDbSpline
 70
1064
 71
3
 72
13
 73
9
 74
7
 42
1e-09
 12
-0.9999999999998859
 22
4.775898809e-07
 32
0.0
 13
-1.0652374722e-06
 23
-0.9999999999994326
 33
0.0
 40
0.0
 40
0.0
 40
0.0
 40
0.0
 40
0.4467160469414144
 40
0.8833749158909473
 40
1.307121498156568
 40
1.718134279031551
 40
2.120459589570206
 40
2.520937415025105
 40
2.520937415025105
 40
2.520937415025105
 40
2.520937415025105
 10
19.43524572646948
 20
46.41192308715077
 30
0.0
 10
19.28634037748902
 20
46.41192315826645
 30
0.0
 10
18.99070244109533
 20
46.37783609750061
 30
0.0
 10
18.57753674188881
 20
46.22760610553455
 30
0.0
 10
18.22201109270028
 20
45.98876964945683
 30
0.0
 10
17.94706760082749
 20
45.67472687347455
 30
0.0
 10
17.77177109094701
 20
45.30420221567716
 30
0.0
 10
17.73163468521945
 20
45.0349278512012
 30
0.0
 10
17.73163454301812
 20
44.90143524271631
 30
0.0
 11
19.43524572646948
 21
46.41192308715077
 31
0.0
 11
18.99153396824022
 21
46.36020169695227
 31
0.0
 11
18.58153485702952
 21
46.2099628982393
 31
0.0
 11
18.23079267054982
 21
45.97217920534755
 31
0.0
 11
17.96130292036014
 21
45.66184586749083
 31
0.0
 11
17.79054224904849
 21
45.2975569043953
 31
0.0
 11
17.73163454301812
 21
44.90143524271631
 31
0.0
  0
SPLINE
  5
B0
330
2F
100
AcDbEntity
  8
--4N-THT. MCB-MCCB-ACB
100
AcDbSpline
 70
1064
 71
3
 72
13
 73
9
 74
7
 42
1e-09
 12
-2.0274612191e-06
 22
0.9999999999979448
 32
0.0
 13
-0.9999999999998864
 23
4.765746106e-07
 33
0.0
 40
0.0
 40
0.0
 40
0.0
 40
0.0
 40
0.4001206304302027
 40
0.802336912320359
 40
1.213477445384417
 40
1.637069828649019
 40
2.073856011308593
 40
2.520966904297119
 40
2.520966904297119
 40
2.520966904297119
 40
2.520966904297119
 10
21.23907548814078
 20
44.90141302646558
 30
0.0
 10
21.23907521773109
 20
45.03478656994204
 30
0.0
 10
21.19900929635527
 20
45.30390251631067
 30
0.0
 10
21.02387368709313
 20
45.67437549965839
 30
0.0
 10
20.74904764103028
 20
45.98846605908442
 30
0.0
 10
20.39355919969646
 20
46.22741386010322
 30
0.0
 10
19.98031022397016
 20
46.37778594564617
 30
0.0
 10
19.68449529242727
 20
46.41192296776571
 30
0.0
 10
19.53545832809778
 20
46.41192303879294
 30
0.0
 11
21.23907548814078
 21
44.90141302646558
 31
0.0
 11
21.18027980261923
 21
45.29719021916359
 31
0.0
 11
21.009676172308
 21
45.66143236217036
 31
0.0
 11
20.74019105220669
 21
45.97193889667838
 31
0.0
 11
20.38963896382939
 21
46.20972817417865
 31
0.0
 11
19.97955703039862
 21
46.3601109432581
 31
0.0
 11
19.53545832809778
 21
46.41192303879294
 31
0.0
  0
SPLINE
  5
B1
330
2F
100
AcDbEntity
  8
--4N-THT. MCB-MCCB-ACB
100
AcDbSpline
 70
1064
 71
3
 72
12
 73
8
 74
6
 42
1e-09
 12
-1.0568346214e-06
 22
-0.9999999999994414
 32
0.0
 13
-0.9999999999998856
 23
4.779810035e-07
 33
0.0
 40
0.0
 40
0.0
 40
0.0
 40
0.0
 40
0.3127189754428373
 40
0.6298876953856681
 40
0.9563862760195798
 40
1.293656569296891
 40
1.640197401233658
 40
1.640197401233658
 40
1.640197401233658
 40
1.640197401233658
 10
20.63779951689959
 20
44.54245511858759
 30
0.0
 10
20.6377994067355
 20
44.4382154601067
 30
0.0
 10
20.59981927978147
 20
44.2265160650376
 30
0.0
 10
20.43811086505691
 20
43.9452981282278
 30
0.0
 10
20.1905035156138
 20
43.72369693471849
 30
0.0
 10
19.88030433180122
 20
43.58114516108741
 30
0.0
 10
19.65097350670313
 20
43.5483816541291
 30
0.0
 10
19.53545989605755
 20
43.54838170934241
 30
0.0
 11
20.63779951689959
 21
44.54245511858759
 31
0.0
 11
20.58319801169001
 21
44.2345398165468
 31
0.0
 11
20.42666410787843
 21
43.95868997719996
 31
0.0
 11
20.18445137825711
 21
43.73975090630271
 31
0.0
 11
19.87843673149928
 21
43.59795426777751
 31
0.0
 11
19.53545989605755
 21
43.54838170934241
 31
0.0
  0
SPLINE
  5
B2
330
2F
100
AcDbEntity
  8
--4N-THT. MCB-MCCB-ACB
100
AcDbSpline
 70
1064
 71
3
 72
12
 73
8
 74
6
 42
1e-09
 12
-0.9999999999998861
 22
4.771032079e-07
 32
0.0
 13
-0.0576010535492079
 23
0.9983396809853955
 33
0.0
 40
0.0
 40
0.0
 40
0.0
 40
0.0
 40
0.3462348379401454
 40
0.6834353575503683
 40
1.009925370655325
 40
1.327094590282494
 40
1.590451685243809
 40
1.590451685243809
 40
1.590451685243809
 40
1.590451685243809
 10
19.43524729697766
 20
43.54838175770388
 30
0.0
 10
19.31983568433095
 20
43.54838181276714
 30
0.0
 10
19.09063415201704
 20
43.5810904357304
 30
0.0
 10
18.78051138555628
 20
43.72352405852772
 30
0.0
 10
18.53285640541709
 20
43.94493242115448
 30
0.0
 10
18.37933564581432
 20
44.21184137214995
 30
0.0
 10
18.33942357903093
 20
44.40444831947852
 30
0.0
 10
18.33436703032112
 20
44.49208826553483
 30
0.0
 11
19.43524729697766
 21
43.54838175770388
 31
0.0
 11
19.09256690137682
 21
43.59786619439152
 31
0.0
 11
18.78657440976804
 21
43.73954465254398
 31
0.0
 11
18.54428641522737
 21
43.9583876473113
 31
0.0
 11
18.38764387628999
 21
44.2341763868823
 31
0.0
 11
18.33436703032112
 21
44.49208826553483
 31
0.0
  0
SPLINE
  5
B3
330
2F
100
AcDbEntity
  8
--4N-THT. MCB-MCCB-ACB
100
AcDbSpline
 70
1064
 71
3
 72
8
 73
4
 74
2
 42
1e-09
 12
-0.0576010633851742
 22
0.9983396804178912
 32
0.0
 13
-2.0735845358e-06
 23
0.9999999999978502
 33
0.0
 40
0.0
 40
0.0
 40
0.0
 40
0.0
 40
0.0503863174196021
 40
0.0503863174196021
 40
0.0503863174196021
 40
0.0503863174196021
 10
18.33436703032112
 20
44.49208826553483
 30
0.0
 10
18.33339959516665
 20
44.5088558188782
 30
0.0
 10
18.33290978800636
 20
44.52565806566219
 30
0.0
 10
18.3329097531796
 20
44.54245350480202
 30
0.0
 11
18.33436703032112
 21
44.49208826553483
 31
0.0
 11
18.3329097531796
 21
44.54245350480202
 31
0.0
  0
SPLINE
  5
B4
330
2F
100
AcDbEntity
  8
--4N-THT. MCB-MCCB-ACB
100
AcDbSpline
 70
1064
 71
3
 72
12
 73
8
 74
6
 42
1e-09
 12
0.9999999999998859
 22
-4.777363642e-07
 32
0.0
 13
1.0612905551e-06
 23
0.9999999999994367
 33
0.0
 40
0.0
 40
0.0
 40
0.0
 40
0.0
 40
0.3451722981491596
 40
0.6823896319524235
 40
1.008744521059326
 40
1.324892115425799
 40
1.635709271673276
 40
1.635709271673276
 40
1.635709271673276
 40
1.635709271673276
 10
19.53545998260871
 20
43.50361223925544
 30
0.0
 10
19.65051741532508
 20
43.50361218428832
 30
0.0
 10
19.8793245228483
 20
43.53578164653263
 30
0.0
 10
20.18980182484787
 20
43.67635274200333
 30
0.0
 10
20.43828404657402
 20
43.89647598364259
 30
0.0
 10
20.60004992324417
 20
44.17659410317509
 30
0.0
 10
20.63779950367221
 20
44.38733473174846
 30
0.0
 10
20.63779961362798
 20
44.49094045049757
 30
0.0
 11
19.53545998260871
 21
43.50361223925544
 31
0.0
 11
19.8771874517197
 21
43.55225637831214
 31
0.0
 11
20.18386379048844
 21
43.69248887617474
 31
0.0
 11
20.42695834847928
 21
43.91023310576353
 31
0.0
 11
20.58350187389898
 21
44.18490277295101
 31
0.0
 11
20.63779961362798
 21
44.49094045049757
 31
0.0
  0
SPLINE
  5
B5
330
2F
100
AcDbEntity
  8
--4N-THT. MCB-MCCB-ACB
100
AcDbSpline
 70
1064
 71
3
 72
13
 73
9
 74
7
 42
1e-09
 12
0.0374884313348338
 22
0.9992970616968978
 32
0.0
 13
0.9999999999998861
 23
-4.771586759e-07
 33
0.0
 40
0.0
 40
0.0
 40
0.0
 40
0.0
 40
0.350123644382644
 40
0.7553934711306604
 40
1.170600011248281
 40
1.597751543953215
 40
2.035765238805045
 40
2.480976369125724
 40
2.480976369125724
 40
2.480976369125724
 40
2.480976369125724
 10
17.73258516591796
 20
44.90055942148471
 30
0.0
 10
17.73696036131834
 20
45.01718526450543
 30
0.0
 10
17.77884507158663
 20
45.26867549126748
 30
0.0
 10
17.94628178661747
 20
45.62685710284196
 30
0.0
 10
18.22141238798136
 20
45.94532124706176
 30
0.0
 10
18.57770625252436
 20
46.18848494901094
 30
0.0
 10
18.99124188517296
 20
46.34118601656503
 30
0.0
 10
19.28684672534964
 20
46.37584141043627
 30
0.0
 10
19.43525043545651
 20
46.37584133962415
 30
0.0
 11
17.73258516591796
 21
44.90055942148471
 31
0.0
 11
17.79000118864042
 21
45.24594321770352
 31
0.0
 11
17.96037210321902
 21
45.61366238220004
 31
0.0
 11
18.23059748417746
 21
45.92889993459873
 31
0.0
 11
18.58255240868039
 21
46.17094572161082
 31
0.0
 11
18.99312001206909
 21
46.32355712329959
 31
0.0
 11
19.43525043545651
 21
46.37584133962415
 31
0.0
  0
SPLINE
  5
B6
330
2F
100
AcDbEntity
  8
--4N-THT. MCB-MCCB-ACB
100
AcDbSpline
 70
1064
 71
3
 72
13
 73
9
 74
7
 42
1e-09
 12
0.9999999999998861
 22
-4.771588649e-07
 32
0.0
 13
0.0374863778168601
 23
-0.9992971387321048
 33
0.0
 40
0.0
 40
0.0
 40
0.0
 40
0.0
 40
0.4451780230280967
 40
0.8831726648385423
 40
1.310319014777726
 40
1.725533074624365
 40
2.130821815508612
 40
2.480975456008269
 40
2.480975456008269
 40
2.480975456008269
 40
2.480975456008269
 10
19.53546303200074
 20
46.37584129126268
 30
0.0
 10
19.68385570634342
 20
46.3758412204558
 30
0.0
 10
19.97944285775608
 20
46.34119020656041
 30
0.0
 10
20.39296343267572
 20
46.18850514982032
 30
0.0
 10
20.74925997413728
 20
45.94535572698603
 30
0.0
 10
21.02440574375671
 20
45.62689510624617
 30
0.0
 10
21.19186007887992
 20
45.26870024082444
 30
0.0
 10
21.23374983759607
 20
45.01719354448462
 30
0.0
 10
21.23812516814997
 20
44.90055770079531
 30
0.0
 11
19.53546303200074
 21
46.37584129126268
 31
0.0
 11
19.97756098880837
 21
46.32356444386611
 31
0.0
 11
20.38811416742011
 21
46.17096892038504
 31
0.0
 11
20.7400723296587
 21
45.92893698798767
 31
0.0
 11
21.01031288120886
 21
45.61370253588544
 31
0.0
 11
21.18070118086963
 21
45.24597058075202
 31
0.0
 11
21.23812516814997
 21
44.90055770079531
 31
0.0
  0
SPLINE
  5
B7
330
2F
100
AcDbEntity
  8
--4N-THT. MCB-MCCB-ACB
100
AcDbSpline
 70
1064
 71
3
 72
12
 73
8
 74
6
 42
1e-09
 12
2.0774570089e-06
 22
-0.999999999997842
 32
0.0
 13
0.9999999999998859
 23
-4.777373738e-07
 33
0.0
 40
0.0
 40
0.0
 40
0.0
 40
0.0
 40
0.3108525951311587
 40
0.6270209751565555
 40
0.9533777608766101
 40
1.290575528503448
 40
1.635705856226812
 40
1.635705856226812
 40
1.635705856226812
 40
1.635705856226812
 10
18.332909849908
 20
44.49093884943946
 30
0.0
 10
18.33291006516897
 20
44.3873213177293
 30
0.0
 10
18.37066779203788
 20
44.17656142634768
 30
0.0
 10
18.53245810007227
 20
43.89643397611387
 30
0.0
 10
18.78095338149206
 20
43.67632413168162
 30
0.0
 10
19.09141787885785
 20
43.53577512507504
 30
0.0
 10
19.32020394349549
 20
43.50361234257746
 30
0.0
 10
19.43524738606994
 20
43.5036122876169
 30
0.0
 11
18.332909849908
 21
44.49093884943946
 31
0.0
 11
18.38722020209116
 21
44.1848674173431
 31
0.0
 11
18.54378767463914
 21
43.91018747437708
 31
0.0
 11
18.7868959294292
 21
43.6924556943392
 31
0.0
 11
19.09356066625788
 21
43.55224487564707
 31
0.0
 11
19.43524738606994
 21
43.5036122876169
 31
0.0
  0
LWPOLYLINE
  5
B8
330
2F
100
AcDbEntity
  8
--4N-THT. MCB-MCCB-ACB
 62
2
100
AcDbPolyline
 90
4
 70
1
 10
-7.476015354421171
 20
72.49998763464887
 10
52.52398464557883
 20
72.49998763464887
 10
52.52398464676844
 20
-41.50003835130108
 10
-7.476015354421171
 20
-41.50001236535113
  0
ATTDEF
  5
B9
330
2F
100
AcDbEntity
  8
--4N-THT. MCB-MCCB-ACB
 62
3
100
AcDbText
 10
-4e-16
 20
99.49998763464885
 30
0.0
 40
13.0
  1

  7
- 13.0
 72
1
 11
0.0
 21
105.9999876346488
 31
0.0
100
AcDbAttributeDefinition
  3
1 DÒNG
  2
AMPE
 70
0
 74
2
280
1
 71
1
 72
0
 11
0.0
 21
105.9999876346488
 31
0.0
  0
ATTDEF
  5
BA
330
2F
100
AcDbEntity
  8
--4N-THT. MCB-MCCB-ACB
 62
3
100
AcDbText
 10
-4e-16
 20
119.4999876346488
 30
0.0
 40
13.0
  1

  7
- 13.0
 72
1
 11
0.0
 21
125.9999876346488
 31
0.0
100
AcDbAttributeDefinition
  3
ABC
  2
MCCB
 70
0
 74
2
280
1
 71
1
 72
0
 11
0.0
 21
125.9999876346488
 31
0.0
  0
ENDBLK
  5
31
330
2F
100
AcDbEntity
  8
0
100
AcDbBlockEnd
  0
ENDSEC
  0
SECTION
  2
ENTITIES
  0
INSERT
  5
BE
330
17
100
AcDbEntity
  8
0
100
AcDbBlockReference
  2
06 - N - SC MCCB LỖ ĐỤC EZC400~630 4 PHASE
 10
92.4999846455803
 20
90.49998763464887
 30
0.0
  0
ENDSEC
  0
SECTION
  2
OBJECTS
  0
DICTIONARY
  5
A
330
0
100
AcDbDictionary
281
1
  3
ACAD_COLOR
350
B
  3
ACAD_GROUP
350
C
  3
ACAD_LAYOUT
350
D
  3
ACAD_MATERIAL
350
E
  3
ACAD_MLEADERSTYLE
350
F
  3
ACAD_MLINESTYLE
350
10
  3
ACAD_PLOTSETTINGS
350
11
  3
ACAD_PLOTSTYLENAME
350
12
  3
ACAD_SCALELIST
350
14
  3
ACAD_TABLESTYLE
350
15
  3
ACAD_VISUALSTYLE
350
16
  3
EZDXF_META
350
2D
  0
DICTIONARY
  5
B
330
A
100
AcDbDictionary
281
1
  0
DICTIONARY
  5
C
330
A
100
AcDbDictionary
281
1
  0
DICTIONARY
  5
D
330
A
100
AcDbDictionary
281
1
  3
Model
350
1A
  3
Layout1
350
1E
  0
DICTIONARY
  5
E
330
A
100
AcDbDictionary
281
1
  3
ByBlock
350
1F
  3
ByLayer
350
20
  3
Global
350
21
  0
DICTIONARY
  5
F
330
A
100
AcDbDictionary
281
1
  3
Standard
350
2C
  0
DICTIONARY
  5
10
330
A
100
AcDbDictionary
281
1
  3
Standard
350
22
  0
DICTIONARY
  5
11
330
A
100
AcDbDictionary
281
1
  0
ACDBDICTIONARYWDFLT
  5
12
330
A
100
AcDbDictionary
281
1
  3
Normal
350
13
100
AcDbDictionaryWithDefault
340
13
  0
ACDBPLACEHOLDER
  5
13
330
12
  0
DICTIONARY
  5
14
330
A
100
AcDbDictionary
281
1
  0
DICTIONARY
  5
15
330
A
100
AcDbDictionary
281
1
  0
DICTIONARY
  5
16
330
A
100
AcDbDictionary
281
1
  0
LAYOUT
  5
1A
330
D
100
AcDbPlotSettings
  1

  4
A3
  6

 40
7.5
 41
20.0
 42
7.5
 43
20.0
 44
420.0
 45
297.0
 46
0.0
 47
0.0
 48
0.0
 49
0.0
140
0.0
141
0.0
142
1.0
143
1.0
 70
1024
 72
1
 73
0
 74
5
  7

 75
16
 76
0
 77
2
 78
300
147
1.0
148
0.0
149
0.0
100
AcDbLayout
  1
Model
 70
1
 71
0
 10
0.0
 20
0.0
 11
420.0
 21
297.0
 12
0.0
 22
0.0
 32
0.0
 14
1e+20
 24
1e+20
 34
1e+20
 15
-1e+20
 25
-1e+20
 35
-1e+20
146
0.0
 13
0.0
 23
0.0
 33
0.0
 16
1.0
 26
0.0
 36
0.0
 17
0.0
 27
1.0
 37
0.0
 76
1
330
17
  0
LAYOUT
  5
1E
330
D
100
AcDbPlotSettings
  1

  4
A3
  6

 40
7.5
 41
20.0
 42
7.5
 43
20.0
 44
420.0
 45
297.0
 46
0.0
 47
0.0
 48
0.0
 49
0.0
140
0.0
141
0.0
142
1.0
143
1.0
 70
0
 72
1
 73
0
 74
5
  7

 75
16
 76
0
 77
2
 78
300
147
1.0
148
0.0
149
0.0
100
AcDbLayout
  1
Layout1
 70
1
 71
1
 10
0.0
 20
0.0
 11
420.0
 21
297.0
 12
0.0
 22
0.0
 32
0.0
 14
1e+20
 24
1e+20
 34
1e+20
 15
-1e+20
 25
-1e+20
 35
-1e+20
146
0.0
 13
0.0
 23
0.0
 33
0.0
 16
1.0
 26
0.0
 36
0.0
 17
0.0
 27
1.0
 37
0.0
 76
1
330
1B
  0
MATERIAL
  5
1F
102
{ACAD_REACTORS
330
E
102
}
330
E
100
AcDbMaterial
  1
ByBlock
  2

 70
0
 40
1.0
 71
1
 41
1.0
 91
-1023410177
 42
1.0
 72
1
  3

 73
1
 74
1
 75
1
 44
0.5
 73
0
 45
1.0
 46
1.0
 77
1
  4

 78
1
 79
1
170
1
 48
1.0
171
1
  6

172
1
173
1
174
1
140
1.0
141
1.0
175
1
  7

176
1
177
1
178
1
143
1.0
179
1
  8

270
1
271
1
272
1
145
1.0
146
1.0
273
1
  9

274
1
275
1
276
1
 42
1.0
 72
1
  3

 73
1
 74
1
 75
1
 94
63
  0
MATERIAL
  5
20
102
{ACAD_REACTORS
330
E
102
}
330
E
100
AcDbMaterial
  1
ByLayer
  2

 70
0
 40
1.0
 71
1
 41
1.0
 91
-1023410177
 42
1.0
 72
1
  3

 73
1
 74
1
 75
1
 44
0.5
 73
0
 45
1.0
 46
1.0
 77
1
  4

 78
1
 79
1
170
1
 48
1.0
171
1
  6

172
1
173
1
174
1
140
1.0
141
1.0
175
1
  7

176
1
177
1
178
1
143
1.0
179
1
  8

270
1
271
1
272
1
145
1.0
146
1.0
273
1
  9

274
1
275
1
276
1
 42
1.0
 72
1
  3

 73
1
 74
1
 75
1
 94
63
  0
MATERIAL
  5
21
102
{ACAD_REACTORS
330
E
102
}
330
E
100
AcDbMaterial
  1
Global
  2

 70
0
 40
1.0
 71
1
 41
1.0
 91
-1023410177
 42
1.0
 72
1
  3

 73
1
 74
1
 75
1
 44
0.5
 73
0
 45
1.0
 46
1.0
 77
1
  4

 78
1
 79
1
170
1
 48
1.0
171
1
  6

172
1
173
1
174
1
140
1.0
141
1.0
175
1
  7

176
1
177
1
178
1
143
1.0
179
1
  8

270
1
271
1
272
1
145
1.0
146
1.0
273
1
  9

274
1
275
1
276
1
 42
1.0
 72
1
  3

 73
1
 74
1
 75
1
 94
63
  0
MLINESTYLE
  5
22
102
{ACAD_REACTORS
330
10
102
}
330
10
100
AcDbMlineStyle
  2
Standard
 70
0
  3

 62
256
 51
90.0
 52
90.0
 71
2
 49
0.5
 62
256
  6
BYLAYER
 49
-0.5
 62
256
  6
BYLAYER
  0
MLEADERSTYLE
  5
2C
102
{ACAD_REACTORS
330
F
102
}
330
F
100
AcDbMLeaderStyle
179
2
170
2
171
1
172
0
 90
2
 40
0.0
 41
0.0
173
1
 91
-1056964608
 92
-2
290
1
 42
2.0
291
1
 43
8.0
  3
Standard
 44
4.0
300

342
29
174
1
175
1
176
0
178
1
 93
-1056964608
 45
4.0
292
0
297
0
 46
4.0
 94
-1056964608
 47
1.0
 49
1.0
140
1.0
294
1
141
0.0
177
0
142
1.0
295
0
296
0
143
3.75
271
0
272
9
273
9
  0
DICTIONARY
  5
2D
330
A
100
AcDbDictionary
280
1
281
1
  3
CREATED_BY_EZDXF
350
2E
  3
WRITTEN_BY_EZDXF
350
C2
  0
DICTIONARYVAR
  5
2E
330
2D
100
DictionaryVariables
280
0
  1
1.4.4 @ 2026-09-23T12:53:33.557171+00:00
  0
DICTIONARYVAR
  5
C2
330
2D
100
DictionaryVariables
280
0
  1
1.4.4 @ 2026-09-23T12:53:33.607547+00:00
  0
ENDSEC
  0
EOF
