  0
SECTION
  2
HEADER
  9
$ACADVER
  1
AC1032
  9
$ACADMAINTVER
 90
4
  9
$DWGCODEPAGE
  3
ANSI_1252
  9
$LASTSAVEDBY
  1
ezdxf
  9
$REQUIREDVERSIONS
160
0
  9
$INSBASE
 10
0.0
 20
0.0
 30
0.0
  9
$EXTMIN
 10
1e+20
 20
1e+20
 30
1e+20
  9
$EXTMAX
 10
-1e+20
 20
-1e+20
 30
-1e+20
  9
$LIMMIN
 10
0.0
 20
0.0
  9
$LIMMAX
 10
420.0
 20
297.0
  9
$ORTHOMODE
 70
0
  9
$REGENMODE
 70
1
  9
$FILLMODE
 70
1
  9
$QTEXTMODE
 70
0
  9
$MIRRTEXT
 70
1
  9
$LTSCALE
 40
1.0
  9
$ATTMODE
 70
1
  9
$TEXTSIZE
 40
2.5
  9
$TRACEWID
 40
1.0
  9
$TEXTSTYLE
  7
Standard
  9
$CLAYER
  8
0
  9
$CELTYPE
  6
ByLayer
  9
$CECOLOR
 62
256
  9
$CELTSCALE
 40
1.0
  9
$DISPSILH
 70
0
  9
$DIMSCALE
 40
1.0
  9
$DIMASZ
 40
2.5
  9
$DIMEXO
 40
0.625
  9
$DIMDLI
 40
3.75
  9
$DIMRND
 40
0.0
  9
$DIMDLE
 40
0.0
  9
$DIMEXE
 40
1.25
  9
$DIMTP
 40
0.0
  9
$DIMTM
 40
0.0
  9
$DIMTXT
 40
2.5
  9
$DIMCEN
 40
2.5
  9
$DIMTSZ
 40
0.0
  9
$DIMTOL
 70
0
  9
$DIMLIM
 70
0
  9
$DIMTIH
 70
0
  9
$DIMTOH
 70
0
  9
$DIMSE1
 70
0
  9
$DIMSE2
 70
0
  9
$DIMTAD
 70
1
  9
$DIMZIN
 70
8
  9
$DIMBLK
  1

  9
$DIMASO
 70
1
  9
$DIMSHO
 70
1
  9
$DIMPOST
  1

  9
$DIMAPOST
  1

  9
$DIMALT
 70
0
  9
$DIMALTD
 70
3
  9
$DIMALTF
 40
0.03937007874
  9
$DIMLFAC
 40
1.0
  9
$DIMTOFL
 70
1
  9
$DIMTVP
 40
0.0
  9
$DIMTIX
 70
0
  9
$DIMSOXD
 70
0
  9
$DIMSAH
 70
0
  9
$DIMBLK1
  1

  9
$DIMBLK2
  1

  9
$DIMSTYLE
  2
ISO-25
  9
$DIMCLRD
 70
0
  9
$DIMCLRE
 70
0
  9
$DIMCLRT
 70
0
  9
$DIMTFAC
 40
1.0
  9
$DIMGAP
 40
0.625
  9
$DIMJUST
 70
0
  9
$DIMSD1
 70
0
  9
$DIMSD2
 70
0
  9
$DIMTOLJ
 70
0
  9
$DIMTZIN
 70
8
  9
$DIMALTZ
 70
0
  9
$DIMALTTZ
 70
0
  9
$DIMUPT
 70
0
  9
$DIMDEC
 70
2
  9
$DIMTDEC
 70
2
  9
$DIMALTU
 70
2
  9
$DIMALTTD
 70
3
  9
$DIMTXSTY
  7
Standard
  9
$DIMAUNIT
 70
0
  9
$DIMADEC
 70
0
  9
$DIMALTRND
 40
0.0
  9
$DIMAZIN
 70
0
  9
$DIMDSEP
 70
44
  9
$DIMATFIT
 70
3
  9
$DIMFRAC
 70
0
  9
$DIMLDRBLK
  1

  9
$DIMLUNIT
 70
2
  9
$DIMLWD
 70
-2
  9
$DIMLWE
 70
-2
  9
$DIMTMOVE
 70
0
  9
$DIMFXL
 40
1.0
  9
$DIMFXLON
 70
0
  9
$DIMJOGANG
 40
0.785398163397
  9
$DIMTFILL
 70
0
  9
$DIMTFILLCLR
 70
0
  9
$DIMARCSYM
 70
0
  9
$DIMLTYPE
  6

  9
$DIMLTEX1
  6

  9
$DIMLTEX2
  6

  9
$DIMTXTDIRECTION
 70
0
  9
$LUNITS
 70
2
  9
$LUPREC
 70
4
  9
$SKETCHINC
 40
1.0
  9
$FILLETRAD
 40
10.0
  9
$AUNITS
 70
0
  9
$AUPREC
 70
2
  9
$MENU
  1
.
  9
$ELEVATION
 40
0.0
  9
$PELEVATION
 40
0.0
  9
$THICKNESS
 40
0.0
  9
$LIMCHECK
 70
0
  9
$CHAMFERA
 40
0.0
  9
$CHAMFERB
 40
0.0
  9
$CHAMFERC
 40
0.0
  9
$CHAMFERD
 40
0.0
  9
$SKPOLY
 70
0
  9
$TDCREATE
 40
2461307.8294097222
  9
$TDUCREATE
 40
2458532.153996898
  9
$TDUPDATE
 40
2461307.8294097222
  9
$TDUUPDATE
 40
2458532.1544311
  9
$TDINDWG
 40
0.0
  9
$TDUSRTIMER
 40
0.0
  9
$USRTIMER
 70
1
  9
$ANGBASE
 50
0.0
  9
$ANGDIR
 70
0
  9
$PDMODE
 70
0
  9
$PDSIZE
 40
0.0
  9
$PLINEWID
 40
0.0
  9
$SPLFRAME
 70
0
  9
$SPLINETYPE
 70
6
  9
$SPLINESEGS
 70
8
  9
$HANDSEED
  5
292
  9
$SURFTAB1
 70
6
  9
$SURFTAB2
 70
6
  9
$SURFTYPE
 70
6
  9
$SURFU
 70
6
  9
$SURFV
 70
6
  9
$UCSBASE
  2

  9
$UCSNAME
  2

  9
$UCSORG
 10
0.0
 20
0.0
 30
0.0
  9
$UCSXDIR
 10
1.0
 20
0.0
 30
0.0
  9
$UCSYDIR
 10
0.0
 20
1.0
 30
0.0
  9
$UCSORTHOREF
  2

  9
$UCSORTHOVIEW
 70
0
  9
$UCSORGTOP
 10
0.0
 20
0.0
 30
0.0
  9
$UCSORGBOTTOM
 10
0.0
 20
0.0
 30
0.0
  9
$UCSORGLEFT
 10
0.0
 20
0.0
 30
0.0
  9
$UCSORGRIGHT
 10
0.0
 20
0.0
 30
0.0
  9
$UCSORGFRONT
 10
0.0
 20
0.0
 30
0.0
  9
$UCSORGBACK
 10
0.0
 20
0.0
 30
0.0
  9
$PUCSBASE
  2

  9
$PUCSNAME
  2

  9
$PUCSORG
 10
0.0
 20
0.0
 30
0.0
  9
$PUCSXDIR
 10
1.0
 20
0.0
 30
0.0
  9
$PUCSYDIR
 10
0.0
 20
1.0
 30
0.0
  9
$PUCSORTHOREF
  2

  9
$PUCSORTHOVIEW
 70
0
  9
$PUCSORGTOP
 10
0.0
 20
0.0
 30
0.0
  9
$PUCSORGBOTTOM
 10
0.0
 20
0.0
 30
0.0
  9
$PUCSORGLEFT
 10
0.0
 20
0.0
 30
0.0
  9
$PUCSORGRIGHT
 10
0.0
 20
0.0
 30
0.0
  9
$PUCSORGFRONT
 10
0.0
 20
0.0
 30
0.0
  9
$PUCSORGBACK
 10
0.0
 20
0.0
 30
0.0
  9
$USERI1
 70
0
  9
$USERI2
 70
0
  9
$USERI3
 70
0
  9
$USERI4
 70
0
  9
$USERI5
 70
0
  9
$USERR1
 40
0.0
  9
$USERR2
 40
0.0
  9
$USERR3
 40
0.0
  9
$USERR4
 40
0.0
  9
$USERR5
 40
0.0
  9
$WORLDVIEW
 70
1
  9
$SHADEDGE
 70
3
  9
$SHADEDIF
 70
70
  9
$TILEMODE
 70
1
  9
$MAXACTVP
 70
64
  9
$PINSBASE
 10
0.0
 20
0.0
 30
0.0
  9
$PLIMCHECK
 70
0
  9
$PEXTMIN
 10
1e+20
 20
1e+20
 30
1e+20
  9
$PEXTMAX
 10
-1e+20
 20
-1e+20
 30
-1e+20
  9
$PLIMMIN
 10
0.0
 20
0.0
  9
$PLIMMAX
 10
420.0
 20
297.0
  9
$UNITMODE
 70
0
  9
$VISRETAIN
 70
1
  9
$PLINEGEN
 70
0
  9
$PSLTSCALE
 70
1
  9
$TREEDEPTH
 70
3020
  9
$CMLSTYLE
  2
Standard
  9
$CMLJUST
 70
0
  9
$CMLSCALE
 40
20.0
  9
$PROXYGRAPHICS
 70
1
  9
$MEASUREMENT
 70
1
  9
$CELWEIGHT
370
-1
  9
$ENDCAPS
280
0
  9
$JOINSTYLE
280
0
  9
$LWDISPLAY
290
0
  9
$INSUNITS
 70
0
  9
$HYPERLINKBASE
  1

  9
$STYLESHEET
  1

  9
$XEDIT
290
1
  9
$CEPSNTYPE
380
0
  9
$PSTYLEMODE
290
1
  9
$FINGERPRINTGUID
  2
{A9DB6730-E83C-44C8-8958-B1FA27BBD236}
  9
$VERSIONGUID
  2
{A9BB099C-2742-445B-8A5C-FD2B51F507EA}
  9
$EXTNAMES
290
1
  9
$PSVPSCALE
 40
0.0
  9
$OLESTARTUP
290
0
  9
$SORTENTS
280
127
  9
$INDEXCTL
280
0
  9
$HIDETEXT
280
1
  9
$XCLIPFRAME
280
1
  9
$HALOGAP
280
0
  9
$OBSCOLOR
 70
257
  9
$OBSLTYPE
280
0
  9
$INTERSECTIONDISPLAY
280
0
  9
$INTERSECTIONCOLOR
 70
257
  9
$DIMASSOC
280
2
  9
$PROJECTNAME
  1

  9
$CAMERADISPLAY
290
0
  9
$LENSLENGTH
 40
50.0
  9
$CAMERAHEIGHT
 40
0.0
  9
$STEPSPERSEC
 40
24.0
  9
$STEPSIZE
 40
100.0
  9
$3DDWFPREC
 40
2.0
  9
$PSOLWIDTH
 40
0.005
  9
$PSOLHEIGHT
 40
0.08
  9
$LOFTANG1
 40
1.570796326795
  9
$LOFTANG2
 40
1.570796326795
  9
$LOFTMAG1
 40
0.0
  9
$LOFTMAG2
 40
0.0
  9
$LOFTPARAM
 70
7
  9
$LOFTNORMALS
280
1
  9
$LATITUDE
 40
37.795
  9
$LONGITUDE
 40
-122.394
  9
$NORTHDIRECTION
 40
0.0
  9
$TIMEZONE
 70
-8000
  9
$LIGHTGLYPHDISPLAY
280
1
  9
$TILEMODELIGHTSYNCH
280
1
  9
$CMATERIAL
347
20
  9
$SOLIDHIST
280
0
  9
$SHOWHIST
280
1
  9
$DWFFRAME
280
2
  9
$DGNFRAME
280
2
  9
$REALWORLDSCALE
290
1
  9
$INTERFERECOLOR
 62
256
  9
$CSHADOW
280
0
  9
$SHADOWPLANELOCATION
 40
0.0
  0
ENDSEC
  0
SECTION
  2
CLASSES
  0
CLASS
  1
ACDBDICTIONARYWDFLT
  2
AcDbDictionaryWithDefault
  3
ObjectDBX Classes
 90
0
 91
0
280
0
281
0
  0
CLASS
  1
SUN
  2
AcDbSun
  3
SCENEOE
 90
1153
 91
0
280
0
281
0
  0
CLASS
  1
VISUALSTYLE
  2
AcDbVisualStyle
  3
ObjectDBX Classes
 90
4095
 91
0
280
0
281
0
  0
CLASS
  1
MATERIAL
  2
AcDbMaterial
  3
ObjectDBX Classes
 90
1153
 91
0
280
0
281
0
  0
CLASS
  1
SCALE
  2
AcDbScale
  3
ObjectDBX Classes
 90
1153
 91
0
280
0
281
0
  0
CLASS
  1
TABLESTYLE
  2
AcDbTableStyle
  3
ObjectDBX Classes
 90
4095
 91
0
280
0
281
0
  0
CLASS
  1
MLEADERSTYLE
  2
AcDbMLeaderStyle
  3
ACDB_MLEADERSTYLE_CLASS
 90
4095
 91
0
280
0
281
0
  0
CLASS
  1
DICTIONARYVAR
  2
AcDbDictionaryVar
  3
ObjectDBX Classes
 90
0
 91
0
280
0
281
0
  0
CLASS
  1
CELLSTYLEMAP
  2
AcDbCellStyleMap
  3
ObjectDBX Classes
 90
1152
 91
0
280
0
281
0
  0
CLASS
  1
MENTALRAYRENDERSETTINGS
  2
AcDbMentalRayRenderSettings
  3
SCENEOE
 90
1024
 91
0
280
0
281
0
  0
CLASS
  1
ACDBDETAILVIEWSTYLE
  2
AcDbDetailViewStyle
  3
ObjectDBX Classes
 90
1025
 91
0
280
0
281
0
  0
CLASS
  1
ACDBSECTIONVIEWSTYLE
  2
AcDbSectionViewStyle
  3
ObjectDBX Classes
 90
1025
 91
0
280
0
281
0
  0
CLASS
  1
RASTERVARIABLES
  2
AcDbRasterVariables
  3
ISM
 90
0
 91
0
280
0
281
0
  0
CLASS
  1
LAYOUT
  2
AcDbLayout
  3
ObjectDBX Classes
 90
0
 91
0
280
0
281
0
  0
CLASS
  1
ACDBPLACEHOLDER
  2
AcDbPlaceHolder
  3
ObjectDBX Classes
 90
0
 91
0
280
0
281
0
  0
ENDSEC
  0
SECTION
  2
TABLES
  0
TABLE
  2
VPORT
  5
8
330
0
100
AcDbSymbolTable
 70
1
  0
VPORT
  5
23
330
8
100
AcDbSymbolTableRecord
100
AcDbViewportTableRecord
  2
*Active
 70
0
 10
0.0
 20
0.0
 11
1.0
 21
1.0
 12
0.0
 22
0.0
 13
0.0
 23
0.0
 14
0.5
 24
0.5
 15
0.5
 25
0.5
 16
0.0
 26
0.0
 36
1.0
 17
0.0
 27
0.0
 37
0.0
 40
1000.0
 41
1.34
 42
50.0
 43
0.0
 44
0.0
 50
0.0
 51
0.0
 71
0
 72
1000
 73
1
 74
3
 75
0
 76
0
 77
0
 78
0
281
0
 65
0
146
0.0
  0
ENDTAB
  0
TABLE
  2
LTYPE
  5
2
330
0
100
AcDbSymbolTable
 70
4
  0
LTYPE
  5
24
330
2
100
AcDbSymbolTableRecord
100
AcDbLinetypeTableRecord
  2
ByBlock
 70
0
  3

 72
65
 73
0
 40
0.0
  0
LTYPE
  5
25
330
2
100
AcDbSymbolTableRecord
100
AcDbLinetypeTableRecord
  2
ByLayer
 70
0
  3

 72
65
 73
0
 40
0.0
  0
LTYPE
  5
26
330
2
100
AcDbSymbolTableRecord
100
AcDbLinetypeTableRecord
  2
Continuous
 70
0
  3

 72
65
 73
0
 40
0.0
  0
LTYPE
  5
28B
330
2
100
AcDbSymbolTableRecord
100
AcDbLinetypeTableRecord
  2
DASHED
 70
0
  3
Dashed __ __ __ __ __ __ __ __ __ __ __ __ __ _
 72
65
 73
2
 40
0.75
 49
0.5
 74
0
 49
-0.25
 74
0
  0
ENDTAB
  0
TABLE
  2
LAYER
  5
1
330
0
100
AcDbSymbolTable
 70
4
  0
LAYER
  5
27
330
1
100
AcDbSymbolTableRecord
100
AcDbLayerTableRecord
  2
0
 70
0
 62
7
  6
Continuous
370
-3
390
13
347
21
  0
LAYER
  5
28
330
1
100
AcDbSymbolTableRecord
100
AcDbLayerTableRecord
  2
Defpoints
 70
0
 62
7
  6
Continuous
290
0
370
-3
390
13
347
21
  0
LAYER
  5
289
330
1
100
AcDbSymbolTableRecord
100
AcDbLayerTableRecord
  2
--8N-THT. FIXING HOLE
 70
0
 62
4
  6
CONTINUOUS
370
-3
390
13
347
21
  0
LAYER
  5
28A
330
1
100
AcDbSymbolTableRecord
100
AcDbLayerTableRecord
  2
-15N-THT. THIẾT BỊ ĐÓNG MỞ
 70
0
 62
40
  6
CONTINUOUS
370
-3
390
13
347
21
  0
ENDTAB
  0
TABLE
  2
STYLE
  5
5
330
0
100
AcDbSymbolTable
 70
2
  0
STYLE
  5
29
330
5
100
AcDbSymbolTableRecord
100
AcDbTextStyleTableRecord
  2
Standard
 70
0
 40
0.0
 41
1.0
 50
0.0
 71
0
 42
2.5
  3
txt
  4

  0
STYLE
  5
28C
330
5
100
AcDbSymbolTableRecord
100
AcDbTextStyleTableRecord
  2
- 04.0
 70
0
 40
4.0
 41
1.0
 50
0.0
 71
0
 42
4.0
  3
times.ttf
  4

  0
ENDTAB
  0
TABLE
  2
VIEW
  5
7
330
0
100
AcDbSymbolTable
 70
0
  0
ENDTAB
  0
TABLE
  2
UCS
  5
6
330
0
100
AcDbSymbolTable
 70
0
  0
ENDTAB
  0
TABLE
  2
APPID
  5
3
330
0
100
AcDbSymbolTable
 70
3
  0
APPID
  5
2A
330
3
100
AcDbSymbolTableRecord
100
AcDbRegAppTableRecord
  2
ACAD
 70
0
  0
APPID
  5
28F
330
3
100
AcDbSymbolTableRecord
100
AcDbRegAppTableRecord
  2
HATCHBACKGROUNDCOLOR
 70
0
  0
APPID
  5
290
330
3
100
AcDbSymbolTableRecord
100
AcDbRegAppTableRecord
  2
EZDXF
 70
0
  0
ENDTAB
  0
TABLE
  2
DIMSTYLE
  5
4
330
0
100
AcDbSymbolTable
 70
1
100
AcDbDimStyleTable
  0
DIMSTYLE
105
2B
330
4
100
AcDbSymbolTableRecord
100
AcDbDimStyleTableRecord
  2
Standard
 70
0
 40
1.0
 41
2.5
 42
0.625
 43
3.75
 44
1.25
 45
0.0
 46
0.0
 47
0.0
 48
0.0
 49
2.5
140
2.5
141
2.5
142
0.0
143
0.03937007874
144
1.0
145
0.0
146
1.0
147
0.625
148
0.0
 69
0
 70
0
 71
0
 72
0
 73
0
 74
0
 75
0
 76
0
 77
1
 78
8
 79
3
170
0
171
3
172
1
173
0
174
0
175
0
176
0
177
0
178
0
179
2
271
2
272
2
273
2
274
3
275
0
276
0
277
2
278
44
279
0
280
0
281
0
282
0
283
0
284
8
285
0
286
0
288
0
289
3
290
0
371
-2
372
-2
  0
ENDTAB
  0
TABLE
  2
BLOCK_RECORD
  5
9
330
0
100
AcDbSymbolTable
 70
3
  0
BLOCK_RECORD
  5
17
330
9
100
AcDbSymbolTableRecord
100
AcDbBlockTableRecord
  2
*Model_Space
340
1A
 70
0
280
1
281
0
  0
BLOCK_RECORD
  5
1B
330
9
100
AcDbSymbolTableRecord
100
AcDbBlockTableRecord
  2
*Paper_Space
340
1E
 70
0
280
1
281
0
  0
BLOCK_RECORD
  5
2F
330
9
100
AcDbSymbolTableRecord
100
AcDbBlockTableRecord
  2
06 - N - SC VSD CHIẾU HÔNG ATV212HD15~18N4
340
0
 70
0
280
1
281
0
  0
ENDTAB
  0
ENDSEC
  0
SECTION
  2
BLOCKS
  0
BLOCK
  5
18
330
17
100
AcDbEntity
  8
0
100
AcDbBlockBegin
  2
*Model_Space
 70
0
 10
0.0
 20
0.0
 30
0.0
  3
*Model_Space
  1

  0
ENDBLK
  5
19
330
17
100
AcDbEntity
  8
0
100
AcDbBlockEnd
  0
BLOCK
  5
1C
330
1B
100
AcDbEntity
  8
0
100
AcDbBlockBegin
  2
*Paper_Space
 70
0
 10
0.0
 20
0.0
 30
0.0
  3
*Paper_Space
  1

  0
ENDBLK
  5
1D
330
1B
100
AcDbEntity
  8
0
100
AcDbBlockEnd
  0
BLOCK
  5
30
330
2F
100
AcDbEntity
  8
0
100
AcDbBlockBegin
  2
06 - N - SC VSD CHIẾU HÔNG ATV212HD15~18N4
 70
0
 10
0.0
 20
0.0
 30
0.0
  3
06 - N - SC VSD CHIẾU HÔNG ATV212HD15~18N4
  1

  0
LINE
  5
32
330
2F
100
AcDbEntity
  8
-15N-THT. THIẾT BỊ ĐÓNG MỞ
100
AcDbLine
 10
-180.7273636916652
 20
157.9014241878176
 30
0.0
 11
-180.8627397250375
 21
157.7660586517904
 31
0.0
  0
LINE
  5
33
330
2F
100
AcDbEntity
  8
-15N-THT. THIẾT BỊ ĐÓNG MỞ
100
AcDbLine
 10
-183.7861175783914
 20
150.0190005317272
 30
0.0
 11
-183.6481934650796
 21
150.1569246456219
 31
0.0
  0
LINE
  5
34
330
2F
100
AcDbEntity
  8
-15N-THT. THIẾT BỊ ĐÓNG MỞ
100
AcDbLine
 10
-72.35504652932148
 20
-163.4806132188187
 30
0.0
 11
-71.0856597470106
 21
-163.4806132188187
 31
0.0
  0
LINE
  5
35
330
2F
100
AcDbEntity
  8
-15N-THT. THIẾT BỊ ĐÓNG MỞ
100
AcDbLine
 10
-69.81627296609759
 20
-163.4806132188187
 30
0.0
 11
-68.54688618518321
 21
-163.4806132188187
 31
0.0
  0
LINE
  5
36
330
2F
100
AcDbEntity
  8
-15N-THT. THIẾT BỊ ĐÓNG MỞ
100
AcDbLine
 10
-67.29965325770763
 20
-163.3253192549127
 30
0.0
 11
-68.54688618518321
 21
-163.3253192549127
 31
0.0
  0
LINE
  5
37
330
2F
100
AcDbEntity
  8
-15N-THT. THIẾT BỊ ĐÓNG MỞ
100
AcDbLine
 10
-74.0052493442772
 20
-162.9728585063094
 30
0.0
 11
-72.35504652932148
 21
-162.9728585063094
 31
0.0
  0
LINE
  5
38
330
2F
100
AcDbEntity
  8
-15N-THT. THIẾT BỊ ĐÓNG MỞ
100
AcDbLine
 10
-71.0856597470106
 20
-162.9728585063094
 30
0.0
 11
-69.81627296609759
 21
-162.9728585063094
 31
0.0
  0
LINE
  5
39
330
2F
100
AcDbEntity
  8
-15N-THT. THIẾT BỊ ĐÓNG MỞ
100
AcDbLine
 10
-58.39179193507743
 20
-160.3071462658063
 30
0.0
 11
-56.23383440682573
 21
-160.3071462658063
 31
0.0
  0
LINE
  5
3A
330
2F
100
AcDbEntity
  8
-15N-THT. THIẾT BỊ ĐÓNG MỞ
100
AcDbLine
 10
-77.86674749990834
 20
-160.2436769267915
 30
0.0
 11
-77.87336754426224
 21
-160.2436769267915
 31
0.0
  0
LINE
  5
3B
330
2F
100
AcDbEntity
  8
-15N-THT. THIẾT BỊ ĐÓNG MỞ
100
AcDbLine
 10
-77.86674749990834
 20
-157.5779646862011
 30
0.0
 11
-78.14946697093455
 21
-157.5779646862011
 31
0.0
  0
LINE
  5
3C
330
2F
100
AcDbEntity
  8
-15N-THT. THIẾT BỊ ĐÓNG MỞ
100
AcDbLine
 10
-67.29965325770763
 20
-164.594512702397
 30
0.0
 11
-58.39179193507743
 21
-164.7499999999945
 31
0.0
  0
LINE
  5
3D
330
2F
100
AcDbEntity
  8
-15N-THT. THIẾT BỊ ĐÓNG MỞ
100
AcDbLine
 10
-67.29965325770763
 20
-163.3253192549127
 30
0.0
 11
-58.39179193507743
 21
-163.4808065525976
 31
0.0
  0
LINE
  5
3E
330
2F
100
AcDbEntity
  8
-15N-THT. THIẾT BỊ ĐÓNG MỞ
100
AcDbLine
 10
-74.0052493442772
 20
-162.8459198281871
 30
0.0
 11
-75.86045617982563
 21
-162.6836102615889
 31
0.0
  0
LINE
  5
3F
330
2F
100
AcDbEntity
  8
-15N-THT. THIẾT BỊ ĐÓNG MỞ
100
AcDbLine
 10
-163.3466801634054
 20
-139.1083870199181
 30
0.0
 11
-163.0210804748344
 21
-139.4302339332007
 31
0.0
  0
LINE
  5
40
330
2F
100
AcDbEntity
  8
-15N-THT. THIẾT BỊ ĐÓNG MỞ
100
AcDbLine
 10
-172.2528432584367
 20
-139.0852887381861
 30
0.0
 11
-172.5463896025908
 21
-138.7917423949948
 31
0.0
  0
LINE
  5
41
330
2F
100
AcDbEntity
  8
-15N-THT. THIẾT BỊ ĐÓNG MỞ
100
AcDbLine
 10
-74.0052493442772
 20
-151.4214387974898
 30
0.0
 11
-75.86045617982563
 21
-151.5837483642044
 31
0.0
  0
LINE
  5
42
330
2F
100
AcDbEntity
  8
-15N-THT. THIẾT BỊ ĐÓNG MỞ
100
AcDbLine
 10
-63.44717959407671
 20
-150.6975363634938
 30
0.0
 11
-67.29965325770763
 21
-150.7647815415057
 31
0.0
  0
LINE
  5
43
330
2F
100
AcDbEntity
  8
-15N-THT. THIẾT BỊ ĐÓNG MỞ
100
AcDbLine
 10
-63.44718520715741
 20
-149.4283430140003
 30
0.0
 11
-67.29965325770763
 21
-149.4955880940215
 31
0.0
  0
LINE
  5
44
330
2F
100
AcDbEntity
  8
-15N-THT. THIẾT BỊ ĐÓNG MỞ
100
AcDbLine
 10
4.547e-13
 20
-146.2549727131809
 30
0.0
 11
-4.833817610051028
 21
-146.339347313502
 31
0.0
  0
LINE
  5
45
330
2F
100
AcDbEntity
  8
-15N-THT. THIẾT BỊ ĐÓNG MỞ
100
AcDbLine
 10
-78.14946697093455
 20
-156.6893939393867
 30
0.0
 11
-77.86674749990834
 21
-156.6893939393867
 31
0.0
  0
LINE
  5
46
330
2F
100
AcDbEntity
  8
-15N-THT. THIẾT BỊ ĐÓNG MỞ
100
AcDbLine
 10
-77.87336754426224
 20
-154.0236816988872
 30
0.0
 11
-77.86674749990834
 21
-154.0236816988872
 31
0.0
  0
LINE
  5
47
330
2F
100
AcDbEntity
  8
-15N-THT. THIẾT BỊ ĐÓNG MỞ
100
AcDbLine
 10
-58.39179193507743
 20
-153.9602123598979
 30
0.0
 11
-56.23383440682573
 21
-153.9602123598979
 31
0.0
  0
LINE
  5
48
330
2F
100
AcDbEntity
  8
-15N-THT. THIẾT BỊ ĐÓNG MỞ
100
AcDbLine
 10
-34.9191184160286
 20
-152.0561321880031
 30
0.0
 11
-23.47267351997925
 21
-152.0561321880031
 31
0.0
  0
LINE
  5
49
330
2F
100
AcDbEntity
  8
-15N-THT. THIẾT BỊ ĐÓNG MỞ
100
AcDbLine
 10
-74.0052493442772
 20
-151.2945001192802
 30
0.0
 11
-72.35504652932148
 21
-151.2945001192802
 31
0.0
  0
LINE
  5
4A
330
2F
100
AcDbEntity
  8
-15N-THT. THIẾT BỊ ĐÓNG MỞ
100
AcDbLine
 10
-71.0856597470106
 20
-151.2945001192802
 30
0.0
 11
-69.81627296609759
 21
-151.2945001192802
 31
0.0
  0
LINE
  5
4B
330
2F
100
AcDbEntity
  8
-15N-THT. THIẾT BỊ ĐÓNG MỞ
100
AcDbLine
 10
-72.35504652932148
 20
-150.7867454068855
 30
0.0
 11
-71.0856597470106
 21
-150.7867454068855
 31
0.0
  0
LINE
  5
4C
330
2F
100
AcDbEntity
  8
-15N-THT. THIẾT BỊ ĐÓNG MỞ
100
AcDbLine
 10
-69.81627296609759
 20
-150.7867454068855
 30
0.0
 11
-68.54688618518321
 21
-150.7867454068855
 31
0.0
  0
LINE
  5
4D
330
2F
100
AcDbEntity
  8
-15N-THT. THIẾT BỊ ĐÓNG MỞ
100
AcDbLine
 10
-67.29965325770763
 20
-150.7647815415057
 30
0.0
 11
-68.54688618518321
 21
-150.7647815415057
 31
0.0
  0
LINE
  5
4E
330
2F
100
AcDbEntity
  8
-15N-THT. THIẾT BỊ ĐÓNG MỞ
100
AcDbLine
 10
-13.38651404483198
 20
-149.5173586256824
 30
0.0
 11
-22.80464760470841
 21
-149.5173586256824
 31
0.0
  0
LINE
  5
4F
330
2F
100
AcDbEntity
  8
-15N-THT. THIẾT BỊ ĐÓNG MỞ
100
AcDbLine
 10
-35.58714433129944
 20
-149.5173586256824
 30
0.0
 11
-45.00527789117632
 21
-149.5173586256824
 31
0.0
  0
LINE
  5
50
330
2F
100
AcDbEntity
  8
-15N-THT. THIẾT BỊ ĐÓNG MỞ
100
AcDbLine
 10
-189.9999999999995
 20
-148.2479718444774
 30
0.0
 11
4.547e-13
 21
-148.2479718444774
 31
0.0
  0
LINE
  5
51
330
2F
100
AcDbEntity
  8
-15N-THT. THIẾT BỊ ĐÓNG MỞ
100
AcDbLine
 10
-58.39179193507743
 20
-149.5171652919634
 30
0.0
 11
-62.44079960929139
 21
-149.4464896001118
 31
0.0
  0
LINE
  5
52
330
2F
100
AcDbEntity
  8
-15N-THT. THIẾT BỊ ĐÓNG MỞ
100
AcDbLine
 10
-167.8650248325434
 20
-117.4495182369082
 30
0.0
 11
-167.5153514677663
 21
-117.7991916008704
 31
0.0
  0
LINE
  5
53
330
2F
100
AcDbEntity
  8
-15N-THT. THIẾT BỊ ĐÓNG MỞ
100
AcDbLine
 10
-164.6599095514975
 20
-130.8097277666911
 30
0.0
 11
-165.0095377825196
 21
-130.4599499017022
 31
0.0
  0
LINE
  5
54
330
2F
100
AcDbEntity
  8
-15N-THT. THIẾT BỊ ĐÓNG MỞ
100
AcDbLine
 10
-154.065056786872
 20
-142.9294425231892
 30
0.0
 11
-154.2018352085724
 21
-142.7910830948913
 31
0.0
  0
LINE
  5
55
330
2F
100
AcDbEntity
  8
-15N-THT. THIẾT BỊ ĐÓNG MỞ
100
AcDbLine
 10
-180.6970839649434
 20
-71.54204408268014
 30
0.0
 11
-180.7011793325655
 21
-71.26160178880309
 31
0.0
  0
LINE
  5
56
330
2F
100
AcDbEntity
  8
-15N-THT. THIẾT BỊ ĐÓNG MỞ
100
AcDbLine
 10
-180.7011793325655
 20
-71.26160178880309
 30
0.0
 11
-180.7056972975833
 21
-70.54746048690322
 31
0.0
  0
LINE
  5
57
330
2F
100
AcDbEntity
  8
-15N-THT. THIẾT BỊ ĐÓNG MỞ
100
AcDbLine
 10
-184.0429033827963
 20
-76.44119817518549
 30
0.0
 11
-184.0429033827963
 21
-74.81845717940632
 31
0.0
  0
LINE
  5
58
330
2F
100
AcDbEntity
  8
-15N-THT. THIẾT BỊ ĐÓNG MỞ
100
AcDbLine
 10
-183.9702562484885
 20
-71.06925554791269
 30
0.0
 11
-183.9702562484885
 21
-65.35701503240487
 31
0.0
  0
LINE
  5
59
330
2F
100
AcDbEntity
  8
-15N-THT. THIẾT BỊ ĐÓNG MỞ
100
AcDbLine
 10
-183.7861175783914
 20
157.9014241878176
 30
0.0
 11
-183.7861175783914
 21
150.0190005317272
 31
0.0
  0
LINE
  5
5A
330
2F
100
AcDbEntity
  8
-15N-THT. THIẾT BỊ ĐÓNG MỞ
100
AcDbLine
 10
-183.6481934650796
 20
157.7635000738974
 30
0.0
 11
-183.6481934650796
 21
150.1569246456219
 31
0.0
  0
LINE
  5
5B
330
2F
100
AcDbEntity
  8
-15N-THT. THIẾT BỊ ĐÓNG MỞ
100
AcDbLine
 10
-183.5908893337473
 20
-71.06925554791269
 30
0.0
 11
-183.5908893337473
 21
-65.35701503240487
 31
0.0
  0
LINE
  5
5C
330
2F
100
AcDbEntity
  8
-15N-THT. THIẾT BỊ ĐÓNG MỞ
100
AcDbLine
 10
-183.4069546228274
 20
-65.35701503240487
 30
0.0
 11
-183.4069546228274
 21
-71.06925554791269
 31
0.0
  0
LINE
  5
5D
330
2F
100
AcDbEntity
  8
-15N-THT. THIẾT BỊ ĐÓNG MỞ
100
AcDbLine
 10
-183.3991887378506
 20
-68.94231813997249
 30
0.0
 11
-183.3991887378506
 21
-65.31797024019397
 31
0.0
  0
LINE
  5
5E
330
2F
100
AcDbEntity
  8
-15N-THT. THIẾT BỊ ĐÓNG MỞ
100
AcDbLine
 10
-183.3991887378506
 20
150.7867454069201
 30
0.0
 11
-183.3991887378506
 21
157.1336793128866
 31
0.0
  0
LINE
  5
5F
330
2F
100
AcDbEntity
  8
-15N-THT. THIẾT BỊ ĐÓNG MỞ
100
AcDbLine
 10
-183.2722500609238
 20
-71.6476317806173
 30
0.0
 11
-183.2722500609238
 21
-68.14969157319501
 31
0.0
  0
LINE
  5
60
330
2F
100
AcDbEntity
  8
-15N-THT. THIẾT BỊ ĐÓNG MỞ
100
AcDbLine
 10
-182.8824127716934
 20
-76.34308270140536
 30
0.0
 11
-182.8824127716934
 21
-75.53015179029353
 31
0.0
  0
LINE
  5
61
330
2F
100
AcDbEntity
  8
-15N-THT. THIẾT BỊ ĐÓNG MỞ
100
AcDbLine
 10
-182.0028632786125
 20
-68.1496659510849
 30
0.0
 11
-182.0028632786125
 21
-68.91130855748997
 31
0.0
  0
LINE
  5
62
330
2F
100
AcDbEntity
  8
-15N-THT. THIẾT BỊ ĐÓNG MỞ
100
AcDbLine
 10
-182.0028632786125
 20
-72.21170365088255
 30
0.0
 11
-182.0028632786125
 21
-71.45006894561266
 31
0.0
  0
LINE
  5
63
330
2F
100
AcDbEntity
  8
-15N-THT. THIẾT BỊ ĐÓNG MỞ
100
AcDbLine
 10
-180.7334764967668
 20
-69.41905273240445
 30
0.0
 11
-180.7334764967668
 21
-70.9423168697067
 31
0.0
  0
LINE
  5
64
330
2F
100
AcDbEntity
  8
-15N-THT. THIẾT BỊ ĐÓNG MỞ
100
AcDbLine
 10
-180.7273636916652
 20
150.0190005317272
 30
0.0
 11
-180.7273636916652
 21
157.9014241878176
 31
0.0
  0
LINE
  5
65
330
2F
100
AcDbEntity
  8
-15N-THT. THIẾT BỊ ĐÓNG MỞ
100
AcDbLine
 10
-180.6065378198391
 20
-66.42127036061356
 30
0.0
 11
-180.6065378198391
 21
-71.06925554791269
 31
0.0
  0
LINE
  5
66
330
2F
100
AcDbEntity
  8
-15N-THT. THIẾT BỊ ĐÓNG MỞ
100
AcDbLine
 10
-180.6030538287
 20
-71.06925554791269
 30
0.0
 11
-180.6030538287
 21
-65.35701503240487
 31
0.0
  0
LINE
  5
67
330
2F
100
AcDbEntity
  8
-15N-THT. THIẾT BỊ ĐÓNG MỞ
100
AcDbLine
 10
-180.4148372234776
 20
-65.35701503240487
 30
0.0
 11
-180.4148372234776
 21
-71.06925554791269
 31
0.0
  0
LINE
  5
68
330
2F
100
AcDbEntity
  8
-15N-THT. THIẾT BỊ ĐÓNG MỞ
100
AcDbLine
 10
-180.0354703096664
 20
-65.35701503240487
 30
0.0
 11
-180.0354703096664
 21
-71.06925554791269
 31
0.0
  0
LINE
  5
69
330
2F
100
AcDbEntity
  8
-15N-THT. THIẾT BỊ ĐÓNG MỞ
100
AcDbLine
 10
-179.6000496484334
 20
-73.02327317767231
 30
0.0
 11
-179.6000496484334
 21
-63.40299740279078
 31
0.0
  0
LINE
  5
6A
330
2F
100
AcDbEntity
  8
-15N-THT. THIẾT BỊ ĐÓNG MỞ
100
AcDbLine
 10
-180.7056972975833
 20
-70.54746048690322
 30
0.0
 11
-180.7056541950446
 21
-69.79986876659314
 31
0.0
  0
LINE
  5
6B
330
2F
100
AcDbEntity
  8
-15N-THT. THIẾT BỊ ĐÓNG MỞ
100
AcDbLine
 10
-180.8597447900106
 20
152.6909784569016
 30
0.0
 11
-180.8604151755576
 21
150.1520520162885
 31
0.0
  0
LINE
  5
6C
330
2F
100
AcDbEntity
  8
-15N-THT. THIẾT BỊ ĐÓNG MỞ
100
AcDbLine
 10
-183.3002537977882
 20
-64.82055180761017
 30
0.0
 11
-183.4069546228274
 21
-65.35701503240487
 31
0.0
  0
LINE
  5
6D
330
2F
100
AcDbEntity
  8
-15N-THT. THIẾT BỊ ĐÓNG MỞ
100
AcDbLine
 10
-161.1795308548026
 20
-140.3213558866937
 30
0.0
 11
-163.0093646878376
 21
-140.3532957551015
 31
0.0
  0
LINE
  5
6E
330
2F
100
AcDbEntity
  8
-15N-THT. THIẾT BỊ ĐÓNG MỞ
100
AcDbLine
 10
-109.1832241439251
 20
-139.3775436310061
 30
0.0
 11
-118.0279635400493
 21
-139.3863970501934
 31
0.0
  0
LINE
  5
6F
330
2F
100
AcDbEntity
  8
-15N-THT. THIẾT BỊ ĐÓNG MỞ
100
AcDbLine
 10
-154.2614438366145
 20
-139.4216502317831
 30
0.0
 11
-163.0210804748344
 21
-139.4302339332007
 31
0.0
  0
LINE
  5
70
330
2F
100
AcDbEntity
  8
-15N-THT. THIẾT BỊ ĐÓNG MỞ
100
AcDbLine
 10
-174.4493098608218
 20
-146.3438916726682
 30
0.0
 11
-173.6605020747511
 21
-146.3438916726682
 31
0.0
  0
LINE
  5
71
330
2F
100
AcDbEntity
  8
-15N-THT. THIẾT BỊ ĐÓNG MỞ
100
AcDbLine
 10
-163.2307847617185
 20
-142.9297351723016
 30
0.0
 11
-154.065056786872
 21
-142.9294425231892
 31
0.0
  0
LINE
  5
72
330
2F
100
AcDbEntity
  8
-15N-THT. THIẾT BỊ ĐÓNG MỞ
100
AcDbLine
 10
-118.1933198007746
 20
-142.9283165842007
 30
0.0
 11
-109.0304294880461
 21
-142.9280240256867
 31
0.0
  0
LINE
  5
73
330
2F
100
AcDbEntity
  8
-15N-THT. THIẾT BỊ ĐÓNG MỞ
100
AcDbLine
 10
-163.0907797906548
 20
-142.791367427093
 30
0.0
 11
-154.2018352085724
 21
-142.7910830948913
 31
0.0
  0
LINE
  5
74
330
2F
100
AcDbEntity
  8
-15N-THT. THIẾT BỊ ĐÓNG MỞ
100
AcDbLine
 10
-118.053312197791
 20
-142.7899462383902
 30
0.0
 11
-109.1672104801964
 21
-142.789661997198
 31
0.0
  0
LINE
  5
75
330
2F
100
AcDbEntity
  8
-15N-THT. THIẾT BỊ ĐÓNG MỞ
100
AcDbLine
 10
-161.2137514767232
 20
-142.2818539727832
 30
0.0
 11
-154.9864666047506
 21
-142.2818539727832
 31
0.0
  0
LINE
  5
76
330
2F
100
AcDbEntity
  8
-15N-THT. THIẾT BỊ ĐÓNG MỞ
100
AcDbLine
 10
-116.1777218878255
 20
-142.2818539727832
 30
0.0
 11
-109.9504370167833
 21
-142.2818539727832
 31
0.0
  0
LINE
  5
77
330
2F
100
AcDbEntity
  8
-15N-THT. THIẾT BỊ ĐÓNG MỞ
100
AcDbLine
 10
-161.2069882987989
 20
-141.8943917822871
 30
0.0
 11
-154.9932297826735
 21
-141.8943917822871
 31
0.0
  0
LINE
  5
78
330
2F
100
AcDbEntity
  8
-15N-THT. THIẾT BỊ ĐÓNG MỞ
100
AcDbLine
 10
-116.170958710833
 20
-141.8943917822871
 30
0.0
 11
-109.9572001951733
 21
-141.8943917822871
 31
0.0
  0
LINE
  5
79
330
2F
100
AcDbEntity
  8
-15N-THT. THIẾT BỊ ĐÓNG MỞ
100
AcDbLine
 10
-154.9974864367391
 20
-141.6505282538073
 30
0.0
 11
-161.2027316447347
 21
-141.6505282538073
 31
0.0
  0
LINE
  5
7A
330
2F
100
AcDbEntity
  8
-15N-THT. THIẾT BỊ ĐÓNG MỞ
100
AcDbLine
 10
-109.9616331979614
 20
-141.640425239395
 30
0.0
 11
-116.1665257089753
 21
-141.640425239395
 31
0.0
  0
LINE
  5
7B
330
2F
100
AcDbEntity
  8
-15N-THT. THIẾT BỊ ĐÓNG MỞ
100
AcDbLine
 10
-118.1933205369841
 20
-141.6225157483968
 30
0.0
 11
-154.065056066494
 21
-141.6225157483968
 31
0.0
  0
LINE
  5
7C
330
2F
100
AcDbEntity
  8
-15N-THT. THIẾT BỊ ĐÓNG MỞ
100
AcDbLine
 10
-163.2307854983955
 20
-141.6225157483968
 30
0.0
 11
-174.1343730478543
 21
-141.6225157483968
 31
0.0
  0
LINE
  5
7D
330
2F
100
AcDbEntity
  8
-15N-THT. THIẾT BỊ ĐÓNG MỞ
100
AcDbLine
 10
-109.0304287690655
 20
-141.6225157483968
 30
0.0
 11
-55.8751756018014
 21
-141.6225157483968
 31
0.0
  0
LINE
  5
7E
330
2F
100
AcDbEntity
  8
-15N-THT. THIẾT BỊ ĐÓNG MỞ
100
AcDbLine
 10
-109.9947514748182
 20
-139.7430804104915
 30
0.0
 11
-116.1334074311871
 21
-139.7430804104915
 31
0.0
  0
LINE
  5
7F
330
2F
100
AcDbEntity
  8
-15N-THT. THIẾT BỊ ĐÓNG MỞ
100
AcDbLine
 10
-155.0307810627851
 20
-139.7430804104915
 30
0.0
 11
-161.1694370186888
 21
-139.7430804104915
 31
0.0
  0
LINE
  5
80
330
2F
100
AcDbEntity
  8
-15N-THT. THIẾT BỊ ĐÓNG MỞ
100
AcDbLine
 10
-108.9172054328951
 20
-139.1083870199181
 30
0.0
 11
-118.3092152029266
 21
-139.1083870199181
 31
0.0
  0
LINE
  5
81
330
2F
100
AcDbEntity
  8
-15N-THT. THIẾT BỊ ĐÓNG MỞ
100
AcDbLine
 10
-153.9518327307883
 20
-139.1083870199181
 30
0.0
 11
-163.3466801634054
 21
-139.1083870199181
 31
0.0
  0
LINE
  5
82
330
2F
100
AcDbEntity
  8
-15N-THT. THIẾT BỊ ĐÓNG MỞ
100
AcDbLine
 10
-172.2528432584367
 20
-139.0852887381861
 30
0.0
 11
-55.91794350696545
 21
-139.0852887381861
 31
0.0
  0
LINE
  5
83
330
2F
100
AcDbEntity
  8
-15N-THT. THIẾT BỊ ĐÓNG MỞ
100
AcDbLine
 10
-172.5463896025908
 20
-138.7917423949948
 30
0.0
 11
-56.06496200524134
 21
-138.7917423949948
 31
0.0
  0
LINE
  5
84
330
2F
100
AcDbEntity
  8
-15N-THT. THIẾT BỊ ĐÓNG MỞ
100
AcDbLine
 10
-63.75155133800399
 20
-138.3884363974757
 30
0.0
 11
-172.5463692597113
 21
-138.3884363974757
 31
0.0
  0
LINE
  5
85
330
2F
100
AcDbEntity
  8
-15N-THT. THIẾT BỊ ĐÓNG MỞ
100
AcDbLine
 10
-175.3550011776388
 20
-138.1259996242825
 30
0.0
 11
-175.7956989235244
 21
-138.1259648467767
 31
0.0
  0
LINE
  5
86
330
2F
100
AcDbEntity
  8
-15N-THT. THIẾT BỊ ĐÓNG MỞ
100
AcDbLine
 10
-5.077547125050386
 20
-146.2977471318991
 30
0.0
 11
-55.85301837278439
 21
-146.2822792534971
 31
0.0
  0
LINE
  5
87
330
2F
100
AcDbEntity
  8
-15N-THT. THIẾT BỊ ĐÓNG MỞ
100
AcDbLine
 10
-154.2032927707764
 20
-141.9850129850929
 30
0.0
 11
-154.2792576500214
 21
-141.9836870131785
 31
0.0
  0
LINE
  5
88
330
2F
100
AcDbEntity
  8
-15N-THT. THIẾT BỊ ĐÓNG MỞ
100
AcDbLine
 10
-163.0890002399674
 20
-141.8299123842698
 30
0.0
 11
-161.2064363849345
 21
-141.86277265858
 31
0.0
  0
LINE
  5
89
330
2F
100
AcDbEntity
  8
-15N-THT. THIẾT BỊ ĐÓNG MỞ
100
AcDbLine
 10
-154.9945704955607
 20
-141.9712011810879
 30
0.0
 11
-154.2870797705836
 21
-141.9835504774782
 31
0.0
  0
LINE
  5
8A
330
2F
100
AcDbEntity
  8
-15N-THT. THIẾT BỊ ĐÓNG MỞ
100
AcDbLine
 10
-118.0529706520001
 20
-142.6054153882978
 30
0.0
 11
-116.1839391300432
 21
-142.6380394547832
 31
0.0
  0
LINE
  5
8B
330
2F
100
AcDbEntity
  8
-15N-THT. THIẾT BỊ ĐÓNG MỞ
100
AcDbLine
 10
-109.9585510049933
 20
-142.7467040088031
 30
0.0
 11
-109.1672631828105
 21
-142.76051598909
 31
0.0
  0
LINE
  5
8C
330
2F
100
AcDbEntity
  8
-15N-THT. THIẾT BỊ ĐÓNG MỞ
100
AcDbLine
 10
-183.4069546228274
 20
-71.06925554791269
 30
0.0
 11
-183.3002537977882
 21
-71.60571877268012
 31
0.0
  0
LINE
  5
8D
330
2F
100
AcDbEntity
  8
-15N-THT. THIẾT BỊ ĐÓNG MỞ
100
AcDbLine
 10
-177.5419670366677
 20
-73.73496778838671
 30
0.0
 11
-177.5419670366677
 21
-62.69130279199089
 31
0.0
  0
LINE
  5
8E
330
2F
100
AcDbEntity
  8
-15N-THT. THIẾT BỊ ĐÓNG MỞ
100
AcDbLine
 10
-177.3151534427884
 20
-136.7617623106871
 30
0.0
 11
-177.3151534427884
 21
-92.36543081979652
 31
0.0
  0
LINE
  5
8F
330
2F
100
AcDbEntity
  8
-15N-THT. THIẾT BỊ ĐÓNG MỞ
100
AcDbLine
 10
-177.3151534427884
 20
-47.99593878298219
 30
0.0
 11
-177.3151534427884
 21
162.7449973956991
 31
0.0
  0
LINE
  5
90
330
2F
100
AcDbEntity
  8
-15N-THT. THIẾT BỊ ĐÓNG MỞ
100
AcDbLine
 10
-176.1546225935903
 20
-48.23009026239197
 30
0.0
 11
-176.1547581697805
 21
162.2110458434035
 31
0.0
  0
LINE
  5
91
330
2F
100
AcDbEntity
  8
-15N-THT. THIẾT BỊ ĐÓNG MỞ
100
AcDbLine
 10
-175.2570708305575
 20
-137.2046625284965
 30
0.0
 11
-175.2570708305575
 21
-92.13127933998112
 31
0.0
  0
LINE
  5
92
330
2F
100
AcDbEntity
  8
-15N-THT. THIẾT BỊ ĐÓNG MỞ
100
AcDbLine
 10
-174.4493098608218
 20
-140.694662652615
 30
0.0
 11
-174.4493098608218
 21
-146.3438916726682
 31
0.0
  0
LINE
  5
93
330
2F
100
AcDbEntity
  8
-15N-THT. THIẾT BỊ ĐÓNG MỞ
100
AcDbLine
 10
-174.1343730478543
 20
-146.3438916726682
 30
0.0
 11
-174.1343730478543
 21
-141.6225157483968
 31
0.0
  0
LINE
  5
94
330
2F
100
AcDbEntity
  8
-15N-THT. THIẾT BỊ ĐÓNG MỞ
100
AcDbLine
 10
-172.5463896025908
 20
-138.7917423949948
 30
0.0
 11
-172.5463896049186
 21
-138.3884347526127
 31
0.0
  0
LINE
  5
95
330
2F
100
AcDbEntity
  8
-15N-THT. THIẾT BỊ ĐÓNG MỞ
100
AcDbLine
 10
-183.3371681999415
 20
-68.43599115989673
 30
0.0
 11
-183.3398921526968
 21
-68.44269182331846
 31
0.0
  0
LINE
  5
96
330
2F
100
AcDbEntity
  8
-15N-THT. THIẾT BỊ ĐÓNG MỞ
100
AcDbLine
 10
-69.39715738594487
 20
-130.1803163466938
 30
0.0
 11
-69.5491481469935
 21
-130.2034160990115
 31
0.0
  0
LINE
  5
97
330
2F
100
AcDbEntity
  8
-15N-THT. THIẾT BỊ ĐÓNG MỞ
100
AcDbLine
 10
-164.9930804106407
 20
-130.4435143984974
 30
0.0
 11
-166.8971605827096
 21
-130.4767502415889
 31
0.0
  0
LINE
  5
98
330
2F
100
AcDbEntity
  8
-15N-THT. THIẾT BỊ ĐÓNG MỞ
100
AcDbLine
 10
-166.8971605827096
 20
-129.8418635170928
 30
0.0
 11
-164.9930804106407
 21
-129.8086276740887
 31
0.0
  0
LINE
  5
99
330
2F
100
AcDbEntity
  8
-15N-THT. THIẾT BỊ ĐÓNG MỞ
100
AcDbLine
 10
-167.5153514677663
 20
-130.4600544026707
 30
0.0
 11
-166.8971875207489
 21
-130.459110391992
 31
0.0
  0
LINE
  5
9A
330
2F
100
AcDbEntity
  8
-15N-THT. THIẾT BỊ ĐÓNG MỞ
100
AcDbLine
 10
-65.26452306192277
 20
-137.2046625284965
 30
0.0
 11
-175.2570708305575
 21
-137.2046625284965
 31
0.0
  0
LINE
  5
9B
330
2F
100
AcDbEntity
  8
-15N-THT. THIẾT BỊ ĐÓNG MỞ
100
AcDbLine
 10
-63.21116958279072
 20
-136.8888221372872
 30
0.0
 11
-57.96788226207628
 21
-136.8888221372872
 31
0.0
  0
LINE
  5
9C
330
2F
100
AcDbEntity
  8
-15N-THT. THIẾT BỊ ĐÓNG MỞ
100
AcDbLine
 10
-63.65523645002259
 20
-136.7617623106871
 30
0.0
 11
-63.20644045015751
 21
-136.7617623106871
 31
0.0
  0
LINE
  5
9D
330
2F
100
AcDbEntity
  8
-15N-THT. THIẾT BỊ ĐÓNG MỞ
100
AcDbLine
 10
-68.21371532604053
 20
-130.8097277666911
 30
0.0
 11
-73.95760416798203
 21
-130.8097277666911
 31
0.0
  0
LINE
  5
9E
330
2F
100
AcDbEntity
  8
-15N-THT. THIẾT BỊ ĐÓNG MỞ
100
AcDbLine
 10
-167.8650248325434
 20
-130.8097277666911
 30
0.0
 11
-164.6599095514975
 21
-130.8097277666911
 31
0.0
  0
LINE
  5
9F
330
2F
100
AcDbEntity
  8
-15N-THT. THIẾT BỊ ĐÓNG MỞ
100
AcDbLine
 10
-72.85795167507558
 20
-129.6617214017842
 30
0.0
 11
-72.98973991908042
 21
-129.6617214017842
 31
0.0
  0
LINE
  5
A0
330
2F
100
AcDbEntity
  8
-15N-THT. THIẾT BỊ ĐÓNG MỞ
100
AcDbLine
 10
-69.15499090077219
 20
-129.6145748354865
 30
0.0
 11
-68.5565935410541
 21
-129.6145748354865
 31
0.0
  0
LINE
  5
A1
330
2F
100
AcDbEntity
  8
-15N-THT. THIẾT BỊ ĐÓNG MỞ
100
AcDbLine
 10
-73.6070133550088
 20
-130.4591369531936
 30
0.0
 11
-68.5565935410541
 21
-130.466849551909
 31
0.0
  0
LINE
  5
A2
330
2F
100
AcDbEntity
  8
-15N-THT. THIẾT BỊ ĐÓNG MỞ
100
AcDbLine
 10
-72.98973991908042
 20
-130.334466111406
 30
0.0
 11
-73.60548526607363
 21
-130.3273276631043
 31
0.0
  0
LINE
  5
A3
330
2F
100
AcDbEntity
  8
-15N-THT. THIẾT BỊ ĐÓNG MỞ
100
AcDbLine
 10
-69.18157957587209
 20
-129.8213831831763
 30
0.0
 11
-70.23131928266866
 21
-129.799377372281
 31
0.0
  0
LINE
  5
A4
330
2F
100
AcDbEntity
  8
-15N-THT. THIẾT BỊ ĐÓNG MỞ
100
AcDbLine
 10
-68.5455440529613
 20
-130.2560127607976
 30
0.0
 11
-72.6288542561224
 21
-130.0420155409901
 31
0.0
  0
LINE
  5
A5
330
2F
100
AcDbEntity
  8
-15N-THT. THIẾT BỊ ĐÓNG MỞ
100
AcDbLine
 10
-70.23131928266866
 20
-129.799377372281
 30
0.0
 11
-72.85795167507558
 21
-129.6617214017842
 31
0.0
  0
LINE
  5
A6
330
2F
100
AcDbEntity
  8
-15N-THT. THIẾT BỊ ĐÓNG MỞ
100
AcDbLine
 10
-69.14834373211352
 20
-129.8231280394793
 30
0.0
 11
-69.18157957587209
 21
-129.8213862228112
 31
0.0
  0
LINE
  5
A7
330
2F
100
AcDbEntity
  8
-15N-THT. THIẾT BỊ ĐÓNG MỞ
100
AcDbLine
 10
-63.64629526715498
 20
-136.8559232399802
 30
0.0
 11
-63.21116958279072
 21
-136.8888221361794
 31
0.0
  0
LINE
  5
A8
330
2F
100
AcDbEntity
  8
-15N-THT. THIẾT BỊ ĐÓNG MỞ
100
AcDbLine
 10
-118.3092152029266
 20
-139.1083870199181
 30
0.0
 11
-118.0279635400493
 21
-139.3863970501934
 31
0.0
  0
LINE
  5
A9
330
2F
100
AcDbEntity
  8
-15N-THT. THIẾT BỊ ĐÓNG MỞ
100
AcDbLine
 10
-167.8650248325434
 20
-117.4495182369082
 30
0.0
 11
-167.8650248325434
 21
-130.8097277666911
 31
0.0
  0
LINE
  5
AA
330
2F
100
AcDbEntity
  8
-15N-THT. THIẾT BỊ ĐÓNG MỞ
100
AcDbLine
 10
-167.5153514677663
 20
-117.7991916008704
 30
0.0
 11
-167.5153514677663
 21
-130.4600544026707
 31
0.0
  0
LINE
  5
AB
330
2F
100
AcDbEntity
  8
-15N-THT. THIẾT BỊ ĐÓNG MỞ
100
AcDbLine
 10
-166.8971605827096
 20
-130.4767502415889
 30
0.0
 11
-166.8971605827096
 21
-118.4173824863919
 31
0.0
  0
LINE
  5
AC
330
2F
100
AcDbEntity
  8
-15N-THT. THIẾT BỊ ĐÓNG MỞ
100
AcDbLine
 10
-165.0134036908853
 20
-117.8030123760636
 30
0.0
 11
-165.0134036908853
 21
-118.4506183293961
 31
0.0
  0
LINE
  5
AD
330
2F
100
AcDbEntity
  8
-15N-THT. THIẾT BỊ ĐÓNG MỞ
100
AcDbLine
 10
-164.9930804106407
 20
-118.4506183293961
 30
0.0
 11
-164.9930804106407
 21
-130.4435143984974
 31
0.0
  0
LINE
  5
AE
330
2F
100
AcDbEntity
  8
-15N-THT. THIẾT BỊ ĐÓNG MỞ
100
AcDbLine
 10
-164.6599095514975
 20
-130.8097277666911
 30
0.0
 11
-164.6599095514975
 21
-117.4495182369082
 31
0.0
  0
LINE
  5
AF
330
2F
100
AcDbEntity
  8
-15N-THT. THIẾT BỊ ĐÓNG MỞ
100
AcDbLine
 10
-163.2307854983955
 20
-141.6225157483968
 30
0.0
 11
-163.2307847617185
 21
-142.9297351723016
 31
0.0
  0
LINE
  5
B0
330
2F
100
AcDbEntity
  8
-15N-THT. THIẾT BỊ ĐÓNG MỞ
100
AcDbLine
 10
-163.0034566284157
 20
-141.5354073169837
 30
0.0
 11
-163.0034564617085
 21
-141.8314055564933
 31
0.0
  0
LINE
  5
B1
330
2F
100
AcDbEntity
  8
-15N-THT. THIẾT BỊ ĐÓNG MỞ
100
AcDbLine
 10
-161.7531518959431
 20
-139.428991470686
 30
0.0
 11
-161.7531518959431
 21
-140.3313684792047
 31
0.0
  0
LINE
  5
B2
330
2F
100
AcDbEntity
  8
-15N-THT. THIẾT BỊ ĐÓNG MỞ
100
AcDbLine
 10
-163.0890002399674
 20
-141.8299123842698
 30
0.0
 11
-163.0907797906548
 21
-142.791367427093
 31
0.0
  0
LINE
  5
B3
330
2F
100
AcDbEntity
  8
-15N-THT. THIẾT BỊ ĐÓNG MỞ
100
AcDbLine
 10
-161.2226440235963
 20
-142.7913076706991
 30
0.0
 11
-161.1694370186888
 21
-139.7430804104915
 31
0.0
  0
LINE
  5
B4
330
2F
100
AcDbEntity
  8
-15N-THT. THIẾT BỊ ĐÓNG MỞ
100
AcDbLine
 10
-69.18157957587209
 20
-123.2615295492815
 30
0.0
 11
-69.14834373211352
 21
-123.2597877326152
 31
0.0
  0
LINE
  5
B5
330
2F
100
AcDbEntity
  8
-15N-THT. THIẾT BỊ ĐÓNG MỞ
100
AcDbLine
 10
-72.85795167507558
 20
-123.4211943704831
 30
0.0
 11
-70.23131928266866
 21
-123.2835383997262
 31
0.0
  0
LINE
  5
B6
330
2F
100
AcDbEntity
  8
-15N-THT. THIẾT BỊ ĐÓNG MỞ
100
AcDbLine
 10
-72.6288542561224
 20
-123.0409002311898
 30
0.0
 11
-68.5565935410541
 21
-122.8274820904153
 31
0.0
  0
LINE
  5
B7
330
2F
100
AcDbEntity
  8
-15N-THT. THIẾT BỊ ĐÓNG MỞ
100
AcDbLine
 10
-70.23131928266866
 20
-123.2835383997262
 30
0.0
 11
-69.18157957587209
 21
-123.2615325890019
 31
0.0
  0
LINE
  5
B8
330
2F
100
AcDbEntity
  8
-15N-THT. THIẾT BỊ ĐÓNG MỞ
100
AcDbLine
 10
-166.8971605827096
 20
-128.5726700697796
 30
0.0
 11
-164.9930804106407
 21
-128.5394342267773
 31
0.0
  0
LINE
  5
B9
330
2F
100
AcDbEntity
  8
-15N-THT. THIẾT BỊ ĐÓNG MỞ
100
AcDbLine
 10
-72.98973991908042
 20
-124.2717137981926
 30
0.0
 11
-73.6070133550088
 21
-124.2788699619668
 31
0.0
  0
LINE
  5
BA
330
2F
100
AcDbEntity
  8
-15N-THT. THIẾT BỊ ĐÓNG MỞ
100
AcDbLine
 10
-68.5565935410541
 20
-122.2352501859968
 30
0.0
 11
-73.6070133550088
 21
-122.2429627845958
 31
0.0
  0
LINE
  5
BB
330
2F
100
AcDbEntity
  8
-15N-THT. THIẾT BỊ ĐÓNG MỞ
100
AcDbLine
 10
-55.85273836273609
 20
-125.3660639847767
 30
0.0
 11
-5.077547125050386
 21
-125.3660639847767
 31
0.0
  0
LINE
  5
BC
330
2F
100
AcDbEntity
  8
-15N-THT. THIẾT BỊ ĐÓNG MỞ
100
AcDbLine
 10
-68.5565935410541
 20
-123.4683409367808
 30
0.0
 11
-69.15499090077219
 21
-123.4683409367808
 31
0.0
  0
LINE
  5
BD
330
2F
100
AcDbEntity
  8
-15N-THT. THIẾT BỊ ĐÓNG MỞ
100
AcDbLine
 10
-72.85795167507558
 20
-123.4211943704831
 30
0.0
 11
-72.98973991908042
 21
-123.4211943704831
 31
0.0
  0
LINE
  5
BE
330
2F
100
AcDbEntity
  8
-15N-THT. THIẾT BỊ ĐÓNG MỞ
100
AcDbLine
 10
-73.95760416798203
 20
-121.8923719710692
 30
0.0
 11
-68.21371532604053
 21
-121.8923719710692
 31
0.0
  0
LINE
  5
BF
330
2F
100
AcDbEntity
  8
-15N-THT. THIẾT BỊ ĐÓNG MỞ
100
AcDbLine
 10
-54.16030192002563
 20
-121.3800657222109
 30
0.0
 11
-4.833817610051028
 21
-121.3800657222109
 31
0.0
  0
LINE
  5
C0
330
2F
100
AcDbEntity
  8
-15N-THT. THIẾT BỊ ĐÓNG MỞ
100
AcDbLine
 10
-164.9930804106407
 20
-119.7198117769112
 30
0.0
 11
-166.8971605827096
 21
-119.6865759338798
 31
0.0
  0
LINE
  5
C1
330
2F
100
AcDbEntity
  8
-15N-THT. THIẾT BỊ ĐÓNG MỞ
100
AcDbLine
 10
-164.9930804106407
 20
-118.4506183293961
 30
0.0
 11
-166.8971605827096
 21
-118.4173824863919
 31
0.0
  0
LINE
  5
C2
330
2F
100
AcDbEntity
  8
-15N-THT. THIẾT BỊ ĐÓNG MỞ
100
AcDbLine
 10
-109.0304294880461
 20
-142.9280240256867
 30
0.0
 11
-109.1672104801964
 21
-142.789661997198
 31
0.0
  0
LINE
  5
C3
330
2F
100
AcDbEntity
  8
-15N-THT. THIẾT BỊ ĐÓNG MỞ
100
AcDbLine
 10
-154.9775775447488
 20
-142.7911079087007
 30
0.0
 11
-155.0363783915522
 21
-139.4224096019134
 31
0.0
  0
LINE
  5
C4
330
2F
100
AcDbEntity
  8
-15N-THT. THIẾT BỊ ĐÓNG MỞ
100
AcDbLine
 10
-154.2032927707764
 20
-141.9850129850929
 30
0.0
 11
-154.2018352085724
 21
-142.7910830948913
 31
0.0
  0
LINE
  5
C5
330
2F
100
AcDbEntity
  8
-15N-THT. THIẾT BỊ ĐÓNG MỞ
100
AcDbLine
 10
-158.0114531149156
 20
-139.4253249230041
 30
0.0
 11
-158.0114531149156
 21
-139.7430804104915
 31
0.0
  0
LINE
  5
C6
330
2F
100
AcDbEntity
  8
-15N-THT. THIẾT BỊ ĐÓNG MỞ
100
AcDbLine
 10
-154.2792574027553
 20
-141.5354073169837
 30
0.0
 11
-154.2792576500214
 21
-141.9836870131785
 31
0.0
  0
LINE
  5
C7
330
2F
100
AcDbEntity
  8
-15N-THT. THIẾT BỊ ĐÓNG MỞ
100
AcDbLine
 10
-154.065056066494
 20
-141.6225157483968
 30
0.0
 11
-154.065056786872
 21
-142.9294425231892
 31
0.0
  0
LINE
  5
C8
330
2F
100
AcDbEntity
  8
-15N-THT. THIẾT BỊ ĐÓNG MỞ
100
AcDbLine
 10
-164.6599095514975
 20
-117.4495182369082
 30
0.0
 11
-167.8650248325434
 21
-117.4495182369082
 31
0.0
  0
LINE
  5
C9
330
2F
100
AcDbEntity
  8
-15N-THT. THIẾT BỊ ĐÓNG MỞ
100
AcDbLine
 10
-165.0134036908853
 20
-117.8030123760636
 30
0.0
 11
-167.5153514677663
 21
-117.7991916008704
 31
0.0
  0
LINE
  5
CA
330
2F
100
AcDbEntity
  8
-15N-THT. THIẾT BỊ ĐÓNG MỞ
100
AcDbLine
 10
-69.5491481469935
 20
-122.8794996733159
 30
0.0
 11
-69.39715738594487
 21
-122.9025994254862
 31
0.0
  0
LINE
  5
CB
330
2F
100
AcDbEntity
  8
-15N-THT. THIẾT BỊ ĐÓNG MỞ
100
AcDbLine
 10
-69.58226798102123
 20
-122.8812354101046
 30
0.0
 11
-69.38358612777529
 21
-122.9252900408719
 31
0.0
  0
LINE
  5
CC
330
2F
100
AcDbEntity
  8
-15N-THT. THIẾT BỊ ĐÓNG MỞ
100
AcDbLine
 10
-65.26452306192277
 20
-137.2046625284965
 30
0.0
 11
-63.75155133800399
 21
-138.3884363974757
 31
0.0
  0
LINE
  5
CD
330
2F
100
AcDbEntity
  8
-15N-THT. THIẾT BỊ ĐÓNG MỞ
100
AcDbLine
 10
-64.36693106079338
 20
-136.2049207849723
 30
0.0
 11
-63.65523645002259
 21
-136.7617623106871
 31
0.0
  0
LINE
  5
CE
330
2F
100
AcDbEntity
  8
-15N-THT. THIẾT BỊ ĐÓNG MỞ
100
AcDbLine
 10
-58.00169806182248
 20
164.4437508040282
 30
0.0
 11
-57.79004429932547
 21
164.6554368081852
 31
0.0
  0
LINE
  5
CF
330
2F
100
AcDbEntity
  8
-15N-THT. THIẾT BỊ ĐÓNG MỞ
100
AcDbLine
 10
-9.901216893921628
 20
-83.53222155529875
 30
0.0
 11
-20.69100453425062
 21
-83.50924600357757
 31
0.0
  0
LINE
  5
D0
330
2F
100
AcDbEntity
  8
-15N-THT. THIẾT BỊ ĐÓNG MỞ
100
AcDbLine
 10
-68.21371532604053
 20
-130.8097277666911
 30
0.0
 11
-68.5565935410541
 21
-130.466849551909
 31
0.0
  0
LINE
  5
D1
330
2F
100
AcDbEntity
  8
-15N-THT. THIẾT BỊ ĐÓNG MỞ
100
AcDbLine
 10
-73.6070133550088
 20
-122.2429627845958
 30
0.0
 11
-73.95760416798203
 21
-121.8923719710692
 31
0.0
  0
LINE
  5
D2
330
2F
100
AcDbEntity
  8
-15N-THT. THIẾT BỊ ĐÓNG MỞ
100
AcDbLine
 10
-56.06496200524134
 20
-138.7917423949948
 30
0.0
 11
-57.96788226207628
 21
-136.8888221372872
 31
0.0
  0
LINE
  5
D3
330
2F
100
AcDbEntity
  8
-15N-THT. THIẾT BỊ ĐÓNG MỞ
100
AcDbLine
 10
-109.9415727630244
 20
-142.7896867669733
 30
0.0
 11
-110.0011176280663
 21
-139.3783637508113
 31
0.0
  0
LINE
  5
D4
330
2F
100
AcDbEntity
  8
-15N-THT. THIẾT BỊ ĐÓNG MỞ
100
AcDbLine
 10
-118.1933205369841
 20
-141.6225157483968
 30
0.0
 11
-118.1933198007746
 21
-142.9283165842007
 31
0.0
  0
LINE
  5
D5
330
2F
100
AcDbEntity
  8
-15N-THT. THIẾT BỊ ĐÓNG MỞ
100
AcDbLine
 10
-118.0070712408032
 20
-141.5354073169837
 30
0.0
 11
-118.0070706377723
 21
-142.6062165760049
 31
0.0
  0
LINE
  5
D6
330
2F
100
AcDbEntity
  8
-15N-THT. THIẾT BỊ ĐÓNG MỞ
100
AcDbLine
 10
-118.0529706520001
 20
-142.6054153882978
 30
0.0
 11
-118.053312197791
 21
-142.7899462383902
 31
0.0
  0
LINE
  5
D7
330
2F
100
AcDbEntity
  8
-15N-THT. THIẾT BỊ ĐÓNG MỞ
100
AcDbLine
 10
-116.1865896298536
 20
-142.7898865272837
 30
0.0
 11
-116.1271483460423
 21
-139.3844976370983
 31
0.0
  0
LINE
  5
D8
330
2F
100
AcDbEntity
  8
-15N-THT. THIẾT BỊ ĐÓNG MỞ
100
AcDbLine
 10
-182.8824127716934
 20
-75.53015179029353
 30
0.0
 11
-179.3371510384595
 21
-75.53015179029353
 31
0.0
  0
LINE
  5
D9
330
2F
100
AcDbEntity
  8
-15N-THT. THIẾT BỊ ĐÓNG MỞ
100
AcDbLine
 10
-182.6965153818028
 20
-73.47206917812218
 30
0.0
 11
-180.0488456487656
 21
-73.47206917812218
 31
0.0
  0
LINE
  5
DA
330
2F
100
AcDbEntity
  8
-15N-THT. THIẾT BỊ ĐÓNG MỞ
100
AcDbLine
 10
-182.5801852848371
 20
-72.33864232900305
 30
0.0
 11
-181.4298022235743
 21
-72.33864232900305
 31
0.0
  0
LINE
  5
DB
330
2F
100
AcDbEntity
  8
-15N-THT. THIẾT BỊ ĐÓNG MỞ
100
AcDbLine
 10
-182.7701579774734
 20
-72.21170365088255
 30
0.0
 11
-182.0028632786125
 21
-72.21170365088255
 31
0.0
  0
LINE
  5
DC
330
2F
100
AcDbEntity
  8
-15N-THT. THIẾT BỊ ĐÓNG MỞ
100
AcDbLine
 10
-180.0354703096664
 20
-71.06925554791269
 30
0.0
 11
-180.6030538287
 21
-71.06925554791269
 31
0.0
  0
LINE
  5
DD
330
2F
100
AcDbEntity
  8
-15N-THT. THIẾT BỊ ĐÓNG MỞ
100
AcDbLine
 10
-183.9702562484885
 20
-71.06925554791269
 30
0.0
 11
-183.4069546228274
 21
-71.06925554791269
 31
0.0
  0
LINE
  5
DE
330
2F
100
AcDbEntity
  8
-15N-THT. THIẾT BỊ ĐÓNG MỞ
100
AcDbLine
 10
-180.7273636916652
 20
150.0190005317272
 30
0.0
 11
-180.8604151755576
 21
150.1520520162885
 31
0.0
  0
LINE
  5
DF
330
2F
100
AcDbEntity
  8
-15N-THT. THIẾT BỊ ĐÓNG MỞ
100
AcDbLine
 10
-56.06496200524134
 20
-138.7917423949948
 30
0.0
 11
-56.06409209081721
 21
-138.7929024858713
 31
0.0
  0
LINE
  5
E0
330
2F
100
AcDbEntity
  8
-15N-THT. THIẾT BỊ ĐÓNG MỞ
100
AcDbLine
 10
-109.1672631828105
 20
-142.76051598909
 30
0.0
 11
-109.1672104801964
 21
-142.789661997198
 31
0.0
  0
LINE
  5
E1
330
2F
100
AcDbEntity
  8
-15N-THT. THIẾT BỊ ĐÓNG MỞ
100
AcDbLine
 10
-109.2044264748674
 20
-141.5354073169837
 30
0.0
 11
-109.2044271500763
 21
-142.7598672894783
 31
0.0
  0
LINE
  5
E2
330
2F
100
AcDbEntity
  8
-15N-THT. THIẾT BỊ ĐÓNG MỞ
100
AcDbLine
 10
-109.0304287690655
 20
-141.6225157483968
 30
0.0
 11
-109.0304294880461
 21
-142.9280240256867
 31
0.0
  0
LINE
  5
E3
330
2F
100
AcDbEntity
  8
-15N-THT. THIẾT BỊ ĐÓNG MỞ
100
AcDbLine
 10
-164.6599095514975
 20
-117.4495182369082
 30
0.0
 11
-165.0134036908853
 21
-117.8030123760636
 31
0.0
  0
LINE
  5
E4
330
2F
100
AcDbEntity
  8
-15N-THT. THIẾT BỊ ĐÓNG MỞ
100
AcDbLine
 10
-182.3131468058564
 20
-76.29368117838385
 30
0.0
 11
-181.9848207705654
 21
-76.26500630221015
 31
0.0
  0
LINE
  5
E5
330
2F
100
AcDbEntity
  8
-15N-THT. THIẾT BỊ ĐÓNG MỞ
100
AcDbLine
 10
-182.8824127716934
 20
-76.34308270140536
 30
0.0
 11
-182.3131468058564
 21
-76.29368117838385
 31
0.0
  0
LINE
  5
E6
330
2F
100
AcDbEntity
  8
-15N-THT. THIẾT BỊ ĐÓNG MỞ
100
AcDbLine
 10
-183.2722500609238
 20
-68.5304819855046
 30
0.0
 11
-183.3455834416677
 21
-68.5304819855046
 31
0.0
  0
LINE
  5
E7
330
2F
100
AcDbEntity
  8
-15N-THT. THIẾT BỊ ĐÓNG MỞ
100
AcDbLine
 10
-183.2722500609238
 20
-68.1496659510849
 30
0.0
 11
-182.0028632786125
 21
-68.1496659510849
 31
0.0
  0
LINE
  5
E8
330
2F
100
AcDbEntity
  8
-15N-THT. THIẾT BỊ ĐÓNG MỞ
100
AcDbLine
 10
-183.3991887378506
 20
-66.44342758928178
 30
0.0
 11
-183.2789956387123
 21
-66.44342758928178
 31
0.0
  0
LINE
  5
E9
330
2F
100
AcDbEntity
  8
-15N-THT. THIẾT BỊ ĐÓNG MỞ
100
AcDbLine
 10
-180.0354703096664
 20
-65.35701503240487
 30
0.0
 11
-180.6030538287
 21
-65.35701503240487
 31
0.0
  0
LINE
  5
EA
330
2F
100
AcDbEntity
  8
-15N-THT. THIẾT BỊ ĐÓNG MỞ
100
AcDbLine
 10
-183.9702562484885
 20
-65.35701503240487
 30
0.0
 11
-183.4069546228274
 21
-65.35701503240487
 31
0.0
  0
LINE
  5
EB
330
2F
100
AcDbEntity
  8
-15N-THT. THIẾT BỊ ĐÓNG MỞ
100
AcDbLine
 10
-180.0488456487656
 20
-62.95420140240094
 30
0.0
 11
-182.1854040957987
 21
-62.95420140240094
 31
0.0
  0
LINE
  5
EC
330
2F
100
AcDbEntity
  8
-15N-THT. THIẾT BỊ ĐÓNG MỞ
100
AcDbLine
 10
-179.3371510384595
 20
-60.89611879016956
 30
0.0
 11
-181.2636996856886
 21
-60.89611879016956
 31
0.0
  0
LINE
  5
ED
330
2F
100
AcDbEntity
  8
-15N-THT. THIẾT BỊ ĐÓNG MỞ
100
AcDbLine
 10
-180.7197154560121
 20
-66.41929483759668
 30
0.0
 11
-180.6065378198391
 21
-66.42127036061356
 31
0.0
  0
LINE
  5
EE
330
2F
100
AcDbEntity
  8
-15N-THT. THIẾT BỊ ĐÓNG MỞ
100
AcDbLine
 10
-183.7861175783914
 20
157.9014241878176
 30
0.0
 11
-183.6481934650796
 21
157.7635000738974
 31
0.0
  0
LINE
  5
EF
330
2F
100
AcDbEntity
  8
-15N-THT. THIẾT BỊ ĐÓNG MỞ
100
AcDbLine
 10
-77.64064997434525
 20
-161.202880165185
 30
0.0
 11
-77.87336754426224
 21
-160.2436769267915
 31
0.0
  0
LINE
  5
F0
330
2F
100
AcDbEntity
  8
-15N-THT. THIẾT BỊ ĐÓNG MỞ
100
AcDbLine
 10
-167.8650248325434
 20
-130.8097277666911
 30
0.0
 11
-167.5153514677663
 21
-130.4600544026707
 31
0.0
  0
LINE
  5
F1
330
2F
100
AcDbEntity
  8
-15N-THT. THIẾT BỊ ĐÓNG MỞ
100
AcDbLine
 10
-56.06409209081721
 20
-138.7929024858713
 30
0.0
 11
-55.91794350696545
 21
-139.0852887381861
 31
0.0
  0
LINE
  5
F2
330
2F
100
AcDbEntity
  8
-15N-THT. THIẾT BỊ ĐÓNG MỞ
100
AcDbLine
 10
-153.9518327307883
 20
-139.1083870199181
 30
0.0
 11
-154.2614438366145
 21
-139.4216502317831
 31
0.0
  0
LINE
  5
F3
330
2F
100
AcDbEntity
  8
-15N-THT. THIẾT BỊ ĐÓNG MỞ
100
AcDbLine
 10
-163.2307847617185
 20
-142.9297351723016
 30
0.0
 11
-163.0907797906548
 21
-142.791367427093
 31
0.0
  0
LINE
  5
F4
330
2F
100
AcDbEntity
  8
-15N-THT. THIẾT BỊ ĐÓNG MỞ
100
AcDbLine
 10
-9.901216893921628
 20
-47.9434405783777
 30
0.0
 11
-20.69100453425062
 21
-47.96641613010069
 31
0.0
  0
LINE
  5
F5
330
2F
100
AcDbEntity
  8
-15N-THT. THIẾT BỊ ĐÓNG MỞ
100
AcDbLine
 10
-176.1546225935903
 20
-48.23009026239197
 30
0.0
 11
-175.2570708305575
 21
-48.23009026239197
 31
0.0
  0
LINE
  5
F6
330
2F
100
AcDbEntity
  8
-15N-THT. THIẾT BỊ ĐÓNG MỞ
100
AcDbLine
 10
-175.2570708305575
 20
163.2267358626141
 30
0.0
 11
-176.7803349676533
 21
164.3691839656112
 31
0.0
  0
LINE
  5
F7
330
2F
100
AcDbEntity
  8
-15N-THT. THIẾT BỊ ĐÓNG MỞ
100
AcDbLine
 10
-69.17936244094653
 20
-123.1092578431089
 30
0.0
 11
-69.14834373211352
 21
-123.2597877326152
 31
0.0
  0
LINE
  5
F8
330
2F
100
AcDbEntity
  8
-15N-THT. THIẾT BỊ ĐÓNG MỞ
100
AcDbLine
 10
-77.64064997434525
 20
-161.202880165185
 30
0.0
 11
-77.64064997434525
 21
-153.0644784604901
 31
0.0
  0
LINE
  5
F9
330
2F
100
AcDbEntity
  8
-15N-THT. THIẾT BỊ ĐÓNG MỞ
100
AcDbLine
 10
-75.86045617982563
 20
-162.6836102615889
 30
0.0
 11
-75.86045617982563
 21
-151.5837483642044
 31
0.0
  0
LINE
  5
FA
330
2F
100
AcDbEntity
  8
-15N-THT. THIẾT BỊ ĐÓNG MỞ
100
AcDbLine
 10
-74.0052493442772
 20
-151.2945001192802
 30
0.0
 11
-74.0052493442772
 21
-162.9728585063094
 31
0.0
  0
LINE
  5
FB
330
2F
100
AcDbEntity
  8
-15N-THT. THIẾT BỊ ĐÓNG MỞ
100
AcDbLine
 10
-73.95760416798203
 20
-130.8097277666911
 30
0.0
 11
-73.95760416798203
 21
-121.8923719710692
 31
0.0
  0
LINE
  5
FC
330
2F
100
AcDbEntity
  8
-15N-THT. THIẾT BỊ ĐÓNG MỞ
100
AcDbLine
 10
-73.95760416798203
 20
148.5494943760877
 30
0.0
 11
-73.95760416798203
 21
157.4668501717115
 31
0.0
  0
LINE
  5
FD
330
2F
100
AcDbEntity
  8
-15N-THT. THIẾT BỊ ĐÓNG MỞ
100
AcDbLine
 10
-73.6070133550088
 20
-122.2429627845958
 30
0.0
 11
-73.6070133550088
 21
-130.4591369531936
 31
0.0
  0
LINE
  5
FE
330
2F
100
AcDbEntity
  8
-15N-THT. THIẾT BỊ ĐÓNG MỞ
100
AcDbLine
 10
-72.98973991908042
 20
-130.334466111406
 30
0.0
 11
-72.98973991908042
 21
-123.4211943704831
 31
0.0
  0
LINE
  5
FF
330
2F
100
AcDbEntity
  8
-15N-THT. THIẾT BỊ ĐÓNG MỞ
100
AcDbLine
 10
-72.85795167507558
 20
-123.4211943704831
 30
0.0
 11
-72.85795167507558
 21
-129.6617214017842
 31
0.0
  0
LINE
  5
100
330
2F
100
AcDbEntity
  8
-15N-THT. THIẾT BỊ ĐÓNG MỞ
100
AcDbLine
 10
-72.35504652932148
 20
-150.7867454068855
 30
0.0
 11
-72.35504652932148
 21
-163.4806132188187
 31
0.0
  0
LINE
  5
101
330
2F
100
AcDbEntity
  8
-15N-THT. THIẾT BỊ ĐÓNG MỞ
100
AcDbLine
 10
-71.0856597470106
 20
-150.7867454068855
 30
0.0
 11
-71.0856597470106
 21
-163.4806132188187
 31
0.0
  0
LINE
  5
102
330
2F
100
AcDbEntity
  8
-15N-THT. THIẾT BỊ ĐÓNG MỞ
100
AcDbLine
 10
-70.23131928266866
 20
-123.2835383997262
 30
0.0
 11
-70.23131928266866
 21
-129.799377372281
 31
0.0
  0
LINE
  5
103
330
2F
100
AcDbEntity
  8
-15N-THT. THIẾT BỊ ĐÓNG MỞ
100
AcDbLine
 10
-69.81627296609759
 20
-150.7867454068855
 30
0.0
 11
-69.81627296609759
 21
-163.4806132188187
 31
0.0
  0
LINE
  5
104
330
2F
100
AcDbEntity
  8
-15N-THT. THIẾT BỊ ĐÓNG MỞ
100
AcDbLine
 10
-69.18157957587209
 20
-123.2615295492815
 30
0.0
 11
-69.18157957587209
 21
-129.8213862228112
 31
0.0
  0
LINE
  5
105
330
2F
100
AcDbEntity
  8
-15N-THT. THIẾT BỊ ĐÓNG MỞ
100
AcDbLine
 10
-69.15499090077219
 20
-123.4683409367808
 30
0.0
 11
-69.15499090077219
 21
-129.6145748354865
 31
0.0
  0
LINE
  5
106
330
2F
100
AcDbEntity
  8
-15N-THT. THIẾT BỊ ĐÓNG MỞ
100
AcDbLine
 10
-69.14834373211352
 20
-123.2597877326152
 30
0.0
 11
-69.14834373211352
 21
-123.4616937681239
 31
0.0
  0
LINE
  5
107
330
2F
100
AcDbEntity
  8
-15N-THT. THIẾT BỊ ĐÓNG MỞ
100
AcDbLine
 10
-69.14834373211352
 20
-129.6212220039997
 30
0.0
 11
-69.14834373211352
 21
-129.8231280394793
 31
0.0
  0
LINE
  5
108
330
2F
100
AcDbEntity
  8
-15N-THT. THIẾT BỊ ĐÓNG MỞ
100
AcDbLine
 10
-68.5565935410541
 20
-130.466849551909
 30
0.0
 11
-68.5565935410541
 21
-122.2352501859968
 31
0.0
  0
LINE
  5
109
330
2F
100
AcDbEntity
  8
-15N-THT. THIẾT BỊ ĐÓNG MỞ
100
AcDbLine
 10
-68.54688618518321
 20
-150.7647815415057
 30
0.0
 11
-68.54688618518321
 21
-163.4806132188187
 31
0.0
  0
LINE
  5
10A
330
2F
100
AcDbEntity
  8
-15N-THT. THIẾT BỊ ĐÓNG MỞ
100
AcDbLine
 10
-68.21371532604053
 20
157.4668501717115
 30
0.0
 11
-68.21371532604053
 21
148.5494943760877
 31
0.0
  0
LINE
  5
10B
330
2F
100
AcDbEntity
  8
-15N-THT. THIẾT BỊ ĐÓNG MỞ
100
AcDbLine
 10
-68.21371532604053
 20
-121.8923719710692
 30
0.0
 11
-68.21371532604053
 21
-130.8097277666911
 31
0.0
  0
LINE
  5
10C
330
2F
100
AcDbEntity
  8
-15N-THT. THIẾT BỊ ĐÓNG MỞ
100
AcDbLine
 10
-67.29965325770763
 20
-150.7647815415057
 30
0.0
 11
-67.29965325770763
 21
-163.3253192549127
 31
0.0
  0
LINE
  5
10D
330
2F
100
AcDbEntity
  8
-15N-THT. THIẾT BỊ ĐÓNG MỞ
100
AcDbLine
 10
-65.26452306192277
 20
-137.2046625284965
 30
0.0
 11
-65.26452306192277
 21
163.2267358626141
 31
0.0
  0
LINE
  5
10E
330
2F
100
AcDbEntity
  8
-15N-THT. THIẾT BỊ ĐÓNG MỞ
100
AcDbLine
 10
-63.20644045015751
 20
164.3691839656112
 30
0.0
 11
-63.20644045015751
 21
-136.7617623106871
 31
0.0
  0
LINE
  5
10F
330
2F
100
AcDbEntity
  8
-15N-THT. THIẾT BỊ ĐÓNG MỞ
100
AcDbLine
 10
-45.69792412267815
 20
-148.2479718444774
 30
0.0
 11
-45.63755601784078
 21
-148.9379824472089
 31
0.0
  0
LINE
  5
110
330
2F
100
AcDbEntity
  8
-15N-THT. THIẾT BỊ ĐÓNG MỞ
100
AcDbLine
 10
-58.00111810490398
 20
162.5399606328883
 30
0.0
 11
-58.00169806182248
 21
164.4437508040282
 31
0.0
  0
LINE
  5
111
330
2F
100
AcDbEntity
  8
-15N-THT. THIẾT BỊ ĐÓNG MỞ
100
AcDbLine
 10
-53.98246398288756
 20
164.7218983701896
 30
0.0
 11
-53.98188401618836
 21
162.8181081992807
 31
0.0
  0
LINE
  5
112
330
2F
100
AcDbEntity
  8
-15N-THT. THIẾT BỊ ĐÓNG MỞ
100
AcDbLine
 10
-58.39179193507743
 20
-164.7499999999945
 30
0.0
 11
-58.39179193507743
 21
-148.2479718444774
 31
0.0
  0
LINE
  5
113
330
2F
100
AcDbEntity
  8
-15N-THT. THIẾT BỊ ĐÓNG MỞ
100
AcDbLine
 10
-58.00111810490398
 20
151.1768392358226
 30
0.0
 11
-58.00111810490398
 21
162.5399606328883
 31
0.0
  0
LINE
  5
114
330
2F
100
AcDbEntity
  8
-15N-THT. THIẾT BỊ ĐÓNG MỞ
100
AcDbLine
 10
-57.96788226207628
 20
-136.8888221372872
 30
0.0
 11
-57.96788226207628
 21
-125.1876460644089
 31
0.0
  0
LINE
  5
115
330
2F
100
AcDbEntity
  8
-15N-THT. THIẾT BỊ ĐÓNG MỞ
100
AcDbLine
 10
-56.23383440682573
 20
-153.960267827666
 30
0.0
 11
-56.23383440682573
 21
-160.3070907980964
 31
0.0
  0
LINE
  5
116
330
2F
100
AcDbEntity
  8
-15N-THT. THIẾT BỊ ĐÓNG MỞ
100
AcDbLine
 10
-55.85301837278439
 20
-125.3987197824117
 30
0.0
 11
-55.85301837278439
 21
-146.2822792534971
 31
0.0
  0
LINE
  5
117
330
2F
100
AcDbEntity
  8
-15N-THT. THIẾT BỊ ĐÓNG MỞ
100
AcDbLine
 10
-53.98188399895798
 20
149.4847028281092
 30
0.0
 11
-53.98188399895798
 21
162.8181081992807
 31
0.0
  0
LINE
  5
118
330
2F
100
AcDbEntity
  8
-15N-THT. THIẾT BỊ ĐÓNG MỞ
100
AcDbLine
 10
-55.85273836273609
 20
-125.3660639847767
 30
0.0
 11
-55.85301837278439
 21
-125.3987197824117
 31
0.0
  0
LINE
  5
119
330
2F
100
AcDbEntity
  8
-15N-THT. THIẾT BỊ ĐÓNG MỞ
100
AcDbLine
 10
-69.14834373211352
 20
-129.8231280394793
 30
0.0
 11
-69.17936244094653
 21
-129.9736579290729
 31
0.0
  0
LINE
  5
11A
330
2F
100
AcDbEntity
  8
-15N-THT. THIẾT BỊ ĐÓNG MỞ
100
AcDbLine
 10
-77.64064997434525
 20
-153.0644784604901
 30
0.0
 11
-77.87336754426224
 21
-154.0236816988872
 31
0.0
  0
LINE
  5
11B
330
2F
100
AcDbEntity
  8
-15N-THT. THIẾT BỊ ĐÓNG MỞ
100
AcDbLine
 10
-108.9172054328951
 20
-139.1083870199181
 30
0.0
 11
-109.1832241439251
 21
-139.3775436310061
 31
0.0
  0
LINE
  5
11C
330
2F
100
AcDbEntity
  8
-15N-THT. THIẾT BỊ ĐÓNG MỞ
100
AcDbLine
 10
-118.1933198007746
 20
-142.9283165842007
 30
0.0
 11
-118.053312197791
 21
-142.7899462383902
 31
0.0
  0
LINE
  5
11D
330
2F
100
AcDbEntity
  8
-15N-THT. THIẾT BỊ ĐÓNG MỞ
100
AcDbLine
 10
-35.55371514009221
 20
-151.4325157244693
 30
0.0
 11
-35.58714433129944
 21
-149.5173586256824
 31
0.0
  0
LINE
  5
11E
330
2F
100
AcDbEntity
  8
-15N-THT. THIẾT BỊ ĐÓNG MỞ
100
AcDbLine
 10
-68.5565935410541
 20
-122.2352501859968
 30
0.0
 11
-68.21371532604053
 21
-121.8923719710692
 31
0.0
  0
LINE
  5
11F
330
2F
100
AcDbEntity
  8
-15N-THT. THIẾT BỊ ĐÓNG MỞ
100
AcDbLine
 10
-73.6070133550088
 20
-130.4591369531936
 30
0.0
 11
-73.95760416798203
 21
-130.8097277666911
 31
0.0
  0
LINE
  5
120
330
2F
100
AcDbEntity
  8
-15N-THT. THIẾT BỊ ĐÓNG MỞ
100
AcDbLine
 10
4.547e-13
 20
147.3692588935082
 30
0.0
 11
-54.19353776192156
 21
147.3692588935082
 31
0.0
  0
LINE
  5
121
330
2F
100
AcDbEntity
  8
-15N-THT. THIẾT BỊ ĐÓNG MỞ
100
AcDbLine
 10
-68.21371532604053
 20
148.5494943760877
 30
0.0
 11
-73.95760416798203
 21
148.5494943760877
 31
0.0
  0
LINE
  5
122
330
2F
100
AcDbEntity
  8
-15N-THT. THIẾT BỊ ĐÓNG MỞ
100
AcDbLine
 10
-53.98188399895798
 20
149.4847028281092
 30
0.0
 11
4.547e-13
 21
149.4847028281092
 31
0.0
  0
LINE
  5
123
330
2F
100
AcDbEntity
  8
-15N-THT. THIẾT BỊ ĐÓNG MỞ
100
AcDbLine
 10
-183.7861175783914
 20
150.0190005317272
 30
0.0
 11
-180.7273636916652
 21
150.0190005317272
 31
0.0
  0
LINE
  5
124
330
2F
100
AcDbEntity
  8
-15N-THT. THIẾT BỊ ĐÓNG MỞ
100
AcDbLine
 10
-183.6481934650796
 20
150.1569246456219
 30
0.0
 11
-181.1033041309565
 21
150.1545966287103
 31
0.0
  0
LINE
  5
125
330
2F
100
AcDbEntity
  8
-15N-THT. THIẾT BỊ ĐÓNG MỞ
100
AcDbLine
 10
-181.1033041309565
 20
150.1545966287103
 30
0.0
 11
-180.8604151755576
 21
150.1520520162885
 31
0.0
  0
LINE
  5
126
330
2F
100
AcDbEntity
  8
-15N-THT. THIẾT BỊ ĐÓNG MỞ
100
AcDbLine
 10
-183.6481934650796
 20
156.0430447681883
 30
0.0
 11
-183.3991887378506
 21
156.0398193969176
 31
0.0
  0
LINE
  5
127
330
2F
100
AcDbEntity
  8
-15N-THT. THIẾT BỊ ĐÓNG MỞ
100
AcDbLine
 10
-180.8604151755576
 20
150.7424309494108
 30
0.0
 11
-183.3991887378506
 21
150.7867454069201
 31
0.0
  0
LINE
  5
128
330
2F
100
AcDbEntity
  8
-15N-THT. THIẾT BỊ ĐÓNG MỞ
100
AcDbLine
 10
-180.8604151755576
 20
157.1779937701085
 30
0.0
 11
-183.3991887378506
 21
157.1336793128866
 31
0.0
  0
LINE
  5
129
330
2F
100
AcDbEntity
  8
-15N-THT. THIẾT BỊ ĐÓNG MỞ
100
AcDbLine
 10
-180.8627397250375
 20
157.7698805681157
 30
0.0
 11
-181.7867592549873
 21
157.7652028790344
 31
0.0
  0
LINE
  5
12A
330
2F
100
AcDbEntity
  8
-15N-THT. THIẾT BỊ ĐÓNG MỞ
100
AcDbLine
 10
-181.7867592549873
 20
157.7652028790344
 30
0.0
 11
-183.6481934650796
 21
157.7635000738974
 31
0.0
  0
LINE
  5
12B
330
2F
100
AcDbEntity
  8
-15N-THT. THIẾT BỊ ĐÓNG MỞ
100
AcDbLine
 10
-53.98188399895798
 20
162.8181081992807
 30
0.0
 11
4.547e-13
 21
162.834552856395
 31
0.0
  0
LINE
  5
12C
330
2F
100
AcDbEntity
  8
-15N-THT. THIẾT BỊ ĐÓNG MỞ
100
AcDbLine
 10
-73.95760416798203
 20
157.4668501717115
 30
0.0
 11
-68.21371532604053
 21
157.4668501717115
 31
0.0
  0
LINE
  5
12D
330
2F
100
AcDbEntity
  8
-15N-THT. THIẾT BỊ ĐÓNG MỞ
100
AcDbLine
 10
-180.7273636916652
 20
157.9014241878176
 30
0.0
 11
-183.7861175783914
 21
157.9014241878176
 31
0.0
  0
LINE
  5
12E
330
2F
100
AcDbEntity
  8
-15N-THT. THIẾT BỊ ĐÓNG MỞ
100
AcDbLine
 10
-175.2570708305575
 20
163.2267358626141
 30
0.0
 11
-65.26452306192277
 21
163.2267358626141
 31
0.0
  0
LINE
  5
12F
330
2F
100
AcDbEntity
  8
-15N-THT. THIẾT BỊ ĐÓNG MỞ
100
AcDbLine
 10
-176.7803349676533
 20
164.3691839656112
 30
0.0
 11
-63.20644045015751
 21
164.3691839656112
 31
0.0
  0
LINE
  5
130
330
2F
100
AcDbEntity
  8
-15N-THT. THIẾT BỊ ĐÓNG MỞ
100
AcDbLine
 10
-183.6481934650796
 20
156.6417378433998
 30
0.0
 11
-183.3991887378506
 21
156.6386545026053
 31
0.0
  0
LINE
  5
131
330
2F
100
AcDbEntity
  8
-15N-THT. THIẾT BỊ ĐÓNG MỞ
100
AcDbLine
 10
-20.69100453425062
 20
-83.50924600357757
 30
0.0
 11
-20.69100453425062
 21
-47.96641613010069
 31
0.0
  0
LINE
  5
132
330
2F
100
AcDbEntity
  8
-15N-THT. THIẾT BỊ ĐÓNG MỞ
100
AcDbLine
 10
-22.8380767959161
 20
-151.4325157247021
 30
0.0
 11
-22.80464760470841
 21
-149.5173586256824
 31
0.0
  0
LINE
  5
133
330
2F
100
AcDbEntity
  8
-15N-THT. THIẾT BỊ ĐÓNG MỞ
100
AcDbLine
 10
-189.9999999999995
 20
164.7500000000018
 30
0.0
 11
4.547e-13
 21
164.7500000000018
 31
0.0
  0
LINE
  5
134
330
2F
100
AcDbEntity
  8
-15N-THT. THIẾT BỊ ĐÓNG MỞ
100
AcDbLine
 10
-10.36323589784842
 20
-47.96641613010069
 30
0.0
 11
-10.36323589784842
 21
-83.50924600357757
 31
0.0
  0
LINE
  5
135
330
2F
100
AcDbEntity
  8
-15N-THT. THIẾT BỊ ĐÓNG MỞ
100
AcDbLine
 10
-9.901216893921628
 20
-83.53222155529875
 30
0.0
 11
-9.901216893921628
 21
-47.9434405783777
 31
0.0
  0
LINE
  5
136
330
2F
100
AcDbEntity
  8
-15N-THT. THIẾT BỊ ĐÓNG MỞ
100
AcDbLine
 10
-5.077547125050386
 20
-125.3660639847767
 30
0.0
 11
-5.077547125050386
 21
-146.2977471318991
 31
0.0
  0
LINE
  5
137
330
2F
100
AcDbEntity
  8
-15N-THT. THIẾT BỊ ĐÓNG MỞ
100
AcDbLine
 10
-4.833817610051028
 20
-121.3800657222109
 30
0.0
 11
-4.833817610051028
 21
-146.339347313502
 31
0.0
  0
LINE
  5
138
330
2F
100
AcDbEntity
  8
-15N-THT. THIẾT BỊ ĐÓNG MỞ
100
AcDbLine
 10
-12.69386781193225
 20
-148.2479718444774
 30
0.0
 11
-12.75423591770004
 21
-148.9379824472089
 31
0.0
  0
LINE
  5
139
330
2F
100
AcDbEntity
  8
-15N-THT. THIẾT BỊ ĐÓNG MỞ
100
AcDbLine
 10
4.547e-13
 20
-148.2479718444774
 30
0.0
 11
4.547e-13
 21
164.7500000000018
 31
0.0
  0
CIRCLE
  5
13A
330
2F
100
AcDbEntity
  8
-15N-THT. THIẾT BỊ ĐÓNG MỞ
100
AcDbCircle
 10
-182.0028632786125
 20
-70.18068480101101
 30
0.0
 40
1.269386781194373
  0
ARC
  5
13B
330
2F
100
AcDbEntity
  8
-15N-THT. THIẾT BỊ ĐÓNG MỞ
100
AcDbCircle
 10
-182.0028632786125
 20
-69.41905273228986
 30
0.0
 40
1.269386781194373
100
AcDbArc
 50
0.0
 51
90.0
  0
ARC
  5
13C
330
2F
100
AcDbEntity
  8
-15N-THT. THIẾT BỊ ĐÓNG MỞ
100
AcDbCircle
 10
-182.0028632786125
 20
-70.9423168697067
 30
0.0
 40
1.269386781194373
100
AcDbArc
 50
270.0
 51
0.0
  0
CIRCLE
  5
13D
330
2F
100
AcDbEntity
  8
-15N-THT. THIẾT BỊ ĐÓNG MỞ
100
AcDbCircle
 10
-182.0028632786125
 20
-70.18068480101101
 30
0.0
 40
0.8885706176124877
  0
ARC
  5
13E
330
2F
100
AcDbEntity
  8
-15N-THT. THIẾT BỊ ĐÓNG MỞ
100
AcDbCircle
 10
-62.96158434776453
 20
-157.1336793127957
 30
0.0
 40
15.22616083404045
100
AcDbArc
 50
184.0635842214736
 51
191.7858068787603
  0
ARC
  5
13F
330
2F
100
AcDbEntity
  8
-15N-THT. THIẾT BỊ ĐÓNG MỞ
100
AcDbCircle
 10
-62.96158434776453
 20
-157.1336793127957
 30
0.0
 40
14.91178319583372
100
AcDbArc
 50
178.2926626462766
 51
181.7073373537233
  0
ARC
  5
140
330
2F
100
AcDbEntity
  8
-15N-THT. THIẾT BỊ ĐÓNG MỞ
100
AcDbCircle
 10
-62.96158434776453
 20
-157.1336793127957
 30
0.0
 40
15.22616083404045
100
AcDbArc
 50
168.2141931212397
 51
175.9364157785263
  0
ARC
  5
141
330
2F
100
AcDbEntity
  8
-15N-THT. THIẾT BỊ ĐÓNG MỞ
100
AcDbCircle
 10
-75.68344122404051
 20
-153.607038574084
 30
0.0
 40
2.031018849910998
100
AcDbArc
 50
94.99999998974639
 51
164.5060325030756
  0
ARC
  5
142
330
2F
100
AcDbEntity
  8
-15N-THT. THIẾT BỊ ĐÓNG MỞ
100
AcDbCircle
 10
-75.68344122404051
 20
-160.660320051591
 30
0.0
 40
2.031018849910998
100
AcDbArc
 50
195.4939674969244
 51
265.0000000102536
  0
ARC
  5
143
330
2F
100
AcDbEntity
  8
-15N-THT. THIẾT BỊ ĐÓNG MỞ
100
AcDbCircle
 10
-45.00527783110647
 20
-148.8826652351072
 30
0.0
 40
0.6346933905971872
100
AcDbArc
 50
185.0000034632641
 51
270.0
  0
ARC
  5
144
330
2F
100
AcDbEntity
  8
-15N-THT. THIẾT BỊ ĐÓNG MỞ
100
AcDbCircle
 10
-13.38651410490138
 20
-148.8826652351072
 30
0.0
 40
0.6346933905971872
100
AcDbArc
 50
270.0
 51
354.9999965367359
  0
ARC
  5
145
330
2F
100
AcDbEntity
  8
-15N-THT. THIẾT BỊ ĐÓNG MỞ
100
AcDbCircle
 10
-34.9191184160286
 20
-151.4214387974898
 30
0.0
 40
0.6346933905971872
100
AcDbArc
 50
180.9999999997673
 51
270.0
  0
ARC
  5
146
330
2F
100
AcDbEntity
  8
-15N-THT. THIẾT BỊ ĐÓNG MỞ
100
AcDbCircle
 10
-23.47267351997925
 20
-151.4214387974898
 30
0.0
 40
0.6346933905971872
100
AcDbArc
 50
270.0
 51
359.0000000002327
  0
ARC
  5
147
330
2F
100
AcDbEntity
  8
-15N-THT. THIẾT BỊ ĐÓNG MỞ
100
AcDbCircle
 10
-69.56240231916263
 20
-129.8213828315147
 30
0.0
 40
0.3808160343583123
100
AcDbArc
 50
267.0097491714259
 51
359.9994898235556
  0
ARC
  5
148
330
2F
100
AcDbEntity
  8
-15N-THT. THIẾT BỊ ĐÓNG MỞ
100
AcDbCircle
 10
-67.27749940426929
 20
-150.7647815415057
 30
0.0
 40
1.269386781194373
100
AcDbArc
 50
90.99999998817044
 51
180.0
  0
ARC
  5
149
330
2F
100
AcDbEntity
  8
-15N-THT. THIẾT BỊ ĐÓNG MỞ
100
AcDbCircle
 10
-67.27749940426929
 20
-163.3253192549127
 30
0.0
 40
1.269386781194373
100
AcDbArc
 50
180.0
 51
269.0000000118035
  0
ARC
  5
14A
330
2F
100
AcDbEntity
  8
-15N-THT. THIẾT BỊ ĐÓNG MỞ
100
AcDbCircle
 10
-63.47593611342836
 20
-148.1384612005877
 30
0.0
 40
1.290201462383987
100
AcDbArc
 50
271.2768868461609
 51
355.1309493788399
  0
ARC
  5
14B
330
2F
100
AcDbEntity
  8
-15N-THT. THIẾT BỊ ĐÓNG MỞ
100
AcDbCircle
 10
-72.60892388503862
 20
-123.4211943704831
 30
0.0
 40
0.3808160343583123
100
AcDbArc
 50
92.99999999374234
 51
180.0
  0
ARC
  5
14C
330
2F
100
AcDbEntity
  8
-15N-THT. THIẾT BỊ ĐÓNG MỞ
100
AcDbCircle
 10
-72.60892388503862
 20
-129.6617214017842
 30
0.0
 40
0.3808160343583123
100
AcDbArc
 50
180.0
 51
267.0000000062576
  0
ARC
  5
14D
330
2F
100
AcDbEntity
  8
-15N-THT. THIẾT BỊ ĐÓNG MỞ
100
AcDbCircle
 10
-182.0028632786125
 20
-65.35701503240487
 30
0.0
 40
1.588025859612029
100
AcDbArc
 50
0.0
 51
180.0
  0
ARC
  5
14E
330
2F
100
AcDbEntity
  8
-15N-THT. THIẾT BỊ ĐÓNG MỞ
100
AcDbCircle
 10
-182.0028632786125
 20
-65.35701503240487
 30
0.0
 40
1.967366508817398
100
AcDbArc
 50
0.0
 51
180.0
  0
ARC
  5
14F
330
2F
100
AcDbEntity
  8
-15N-THT. THIẾT BỊ ĐÓNG MỞ
100
AcDbCircle
 10
-182.0028632786125
 20
-71.06925554791269
 30
0.0
 40
1.588025859612029
100
AcDbArc
 50
180.0
 51
0.0
  0
ARC
  5
150
330
2F
100
AcDbEntity
  8
-15N-THT. THIẾT BỊ ĐÓNG MỞ
100
AcDbCircle
 10
-182.0028632786125
 20
-71.06925554791269
 30
0.0
 40
1.967366508817398
100
AcDbArc
 50
180.0
 51
0.0
  0
ARC
  5
151
330
2F
100
AcDbEntity
  8
-15N-THT. THIẾT BỊ ĐÓNG MỞ
100
AcDbCircle
 10
-147.5004241876304
 20
-70.18068480101101
 30
0.0
 40
37.07512217565643
100
AcDbArc
 50
143.7566356024867
 51
166.1168016590042
  0
ARC
  5
152
330
2F
100
AcDbEntity
  8
-15N-THT. THIẾT BỊ ĐÓNG MỞ
100
AcDbCircle
 10
-147.5004241876304
 20
-70.18068480101101
 30
0.0
 40
37.07511526498785
100
AcDbArc
 50
189.7216204042632
 51
216.2433643975133
  0
ARC
  5
153
330
2F
100
AcDbEntity
  8
-15N-THT. THIẾT BỊ ĐÓNG MỞ
100
AcDbCircle
 10
-147.5004241876304
 20
-70.18068480101101
 30
0.0
 40
35.01703265274051
100
AcDbArc
 50
190.0037503390769
 51
216.6043336746799
  0
ARC
  5
154
330
2F
100
AcDbEntity
  8
-15N-THT. THIẾT BỊ ĐÓNG MỞ
100
AcDbCircle
 10
-147.5004241876304
 20
-70.18068480101101
 30
0.0
 40
35.01703265274051
100
AcDbArc
 50
143.39566632532
 51
164.6242768796875
  0
LINE
  5
155
330
2F
100
AcDbEntity
  8
-15N-THT. THIẾT BỊ ĐÓNG MỞ
100
AcDbLine
 10
-62.44079960929139
 20
-149.4464896001118
 30
0.0
 11
-62.73861142108171
 21
-149.917171155419
 31
0.0
  0
LINE
  5
156
330
2F
100
AcDbEntity
  8
-15N-THT. THIẾT BỊ ĐÓNG MỞ
100
AcDbLine
 10
-62.73861142108171
 20
-149.917171155419
 30
0.0
 11
-63.08702235296323
 21
-150.3279223669633
 31
0.0
  0
LINE
  5
157
330
2F
100
AcDbEntity
  8
-15N-THT. THIẾT BỊ ĐÓNG MỞ
100
AcDbLine
 10
-63.08702235296323
 20
-150.3279223669633
 30
0.0
 11
-63.44717959407671
 21
-150.6975363634938
 31
0.0
  0
LINE
  5
158
330
2F
100
AcDbEntity
  8
-15N-THT. THIẾT BỊ ĐÓNG MỞ
100
AcDbLine
 10
-53.9824639558783
 20
164.7218983701896
 30
0.0
 11
-54.96603146428242
 21
164.7193435637746
 31
0.0
  0
LINE
  5
159
330
2F
100
AcDbEntity
  8
-15N-THT. THIẾT BỊ ĐÓNG MỞ
100
AcDbLine
 10
-54.96603146428242
 20
164.7193435637746
 30
0.0
 11
-55.8737683938807
 21
164.7125446283917
 31
0.0
  0
LINE
  5
15A
330
2F
100
AcDbEntity
  8
-15N-THT. THIẾT BỊ ĐÓNG MỞ
100
AcDbLine
 10
-55.8737683938807
 20
164.7125446283917
 30
0.0
 11
-56.65180501993654
 21
164.7020234474057
 31
0.0
  0
LINE
  5
15B
330
2F
100
AcDbEntity
  8
-15N-THT. THIẾT BỊ ĐÓNG MỞ
100
AcDbLine
 10
-56.65180501993654
 20
164.7020234474057
 30
0.0
 11
-57.25445499503985
 21
164.6884413633106
 31
0.0
  0
LINE
  5
15C
330
2F
100
AcDbEntity
  8
-15N-THT. THIẾT BỊ ĐÓNG MỞ
100
AcDbLine
 10
-57.25445499503985
 20
164.6884413633106
 30
0.0
 11
-57.64368465775397
 21
164.6726048608852
 31
0.0
  0
LINE
  5
15D
330
2F
100
AcDbEntity
  8
-15N-THT. THIẾT BỊ ĐÓNG MỞ
100
AcDbLine
 10
-57.64368465775397
 20
164.6726048608852
 30
0.0
 11
-57.79004429932547
 21
164.6554368081852
 31
0.0
  0
LINE
  5
15E
330
2F
100
AcDbEntity
  8
-15N-THT. THIẾT BỊ ĐÓNG MỞ
100
AcDbLine
 10
-78.14946697093455
 20
-157.5779646862011
 30
0.0
 11
-78.15726557699827
 21
-157.5897125063875
 31
0.0
  0
LINE
  5
15F
330
2F
100
AcDbEntity
  8
-15N-THT. THIẾT BỊ ĐÓNG MỞ
100
AcDbLine
 10
-78.15726557699827
 20
-157.5897125063875
 30
0.0
 11
-78.16275928588448
 21
-157.6213125706072
 31
0.0
  0
LINE
  5
160
330
2F
100
AcDbEntity
  8
-15N-THT. THIẾT BỊ ĐÓNG MỞ
100
AcDbLine
 10
-78.16275928588448
 20
-157.6213125706072
 30
0.0
 11
-78.16624034196047
 21
-157.668617884914
 31
0.0
  0
LINE
  5
161
330
2F
100
AcDbEntity
  8
-15N-THT. THIẾT BỊ ĐÓNG MỞ
100
AcDbLine
 10
-78.16624034196047
 20
-157.668617884914
 30
0.0
 11
-78.16792628494795
 21
-157.7292398869722
 31
0.0
  0
LINE
  5
162
330
2F
100
AcDbEntity
  8
-15N-THT. THIẾT BỊ ĐÓNG MỞ
100
AcDbLine
 10
-78.16792628494795
 20
-157.7292398869722
 30
0.0
 11
-78.16792628494795
 21
-157.8013886349745
 31
0.0
  0
LINE
  5
163
330
2F
100
AcDbEntity
  8
-15N-THT. THIẾT BỊ ĐÓNG MỞ
100
AcDbLine
 10
-78.16792628494795
 20
-157.8013886349745
 30
0.0
 11
-78.16624034196047
 21
-157.8857697631119
 31
0.0
  0
LINE
  5
164
330
2F
100
AcDbEntity
  8
-15N-THT. THIẾT BỊ ĐÓNG MỞ
100
AcDbLine
 10
-78.16624034196047
 20
-157.8857697631119
 30
0.0
 11
-78.16275928588448
 21
-157.9821234976061
 31
0.0
  0
LINE
  5
165
330
2F
100
AcDbEntity
  8
-15N-THT. THIẾT BỊ ĐÓNG MỞ
100
AcDbLine
 10
-78.16275928588448
 20
-157.9821234976061
 30
0.0
 11
-78.15726557699827
 21
-158.0911076088032
 31
0.0
  0
LINE
  5
166
330
2F
100
AcDbEntity
  8
-15N-THT. THIẾT BỊ ĐÓNG MỞ
100
AcDbLine
 10
-78.15726557699827
 20
-158.0911076088032
 30
0.0
 11
-78.14946697093455
 21
-158.2126580768927
 31
0.0
  0
LINE
  5
167
330
2F
100
AcDbEntity
  8
-15N-THT. THIẾT BỊ ĐÓNG MỞ
100
AcDbLine
 10
-62.44068890297649
 20
-149.4464915324897
 30
0.0
 11
-62.31877800077018
 21
-149.1883491958106
 31
0.0
  0
LINE
  5
168
330
2F
100
AcDbEntity
  8
-15N-THT. THIẾT BỊ ĐÓNG MỞ
100
AcDbLine
 10
-62.31877800077018
 20
-149.1883491958106
 30
0.0
 11
-62.23062633583277
 21
-148.9250733418976
 31
0.0
  0
LINE
  5
169
330
2F
100
AcDbEntity
  8
-15N-THT. THIẾT BỊ ĐÓNG MỞ
100
AcDbLine
 10
-62.23062633583277
 20
-148.9250733418976
 30
0.0
 11
-62.21251207137811
 21
-148.2479718444774
 31
0.0
  0
LINE
  5
16A
330
2F
100
AcDbEntity
  8
-15N-THT. THIẾT BỊ ĐÓNG MỞ
100
AcDbLine
 10
-70.00222186511336
 20
-122.9032442606058
 30
0.0
 11
-70.12144245113996
 21
-122.9584242288201
 31
0.0
  0
LINE
  5
16B
330
2F
100
AcDbEntity
  8
-15N-THT. THIẾT BỊ ĐÓNG MỞ
100
AcDbLine
 10
-70.12144245113996
 20
-122.9584242288201
 30
0.0
 11
-70.20495465909926
 21
-123.0970460152839
 31
0.0
  0
LINE
  5
16C
330
2F
100
AcDbEntity
  8
-15N-THT. THIẾT BỊ ĐÓNG MỞ
100
AcDbLine
 10
-70.20495465909926
 20
-123.0970460152839
 30
0.0
 11
-70.23131930595173
 21
-123.2835384010068
 31
0.0
  0
LINE
  5
16D
330
2F
100
AcDbEntity
  8
-15N-THT. THIẾT BỊ ĐÓNG MỞ
100
AcDbLine
 10
-72.6288542561224
 20
-123.0409002311898
 30
0.0
 11
-72.74807877791955
 21
-123.0960841694868
 31
0.0
  0
LINE
  5
16E
330
2F
100
AcDbEntity
  8
-15N-THT. THIẾT BỊ ĐÓNG MỞ
100
AcDbLine
 10
-72.74807877791955
 20
-123.0960841694868
 30
0.0
 11
-72.83158893091422
 21
-123.2347082621072
 31
0.0
  0
LINE
  5
16F
330
2F
100
AcDbEntity
  8
-15N-THT. THIẾT BỊ ĐÓNG MỞ
100
AcDbLine
 10
-72.83158893091422
 20
-123.2347082621072
 30
0.0
 11
-72.85795167507558
 21
-123.4211943704831
 31
0.0
  0
LINE
  5
170
330
2F
100
AcDbEntity
  8
-15N-THT. THIẾT BỊ ĐÓNG MỞ
100
AcDbLine
 10
-69.17936244094653
 20
-129.9736579290729
 30
0.0
 11
-69.26703007426022
 21
-130.0993497192921
 31
0.0
  0
LINE
  5
171
330
2F
100
AcDbEntity
  8
-15N-THT. THIẾT BỊ ĐÓNG MỞ
100
AcDbLine
 10
-69.26703007426022
 20
-130.0993497192921
 30
0.0
 11
-69.39715738594487
 21
-130.1803163466938
 31
0.0
  0
LINE
  5
172
330
2F
100
AcDbEntity
  8
-15N-THT. THIẾT BỊ ĐÓNG MỞ
100
AcDbLine
 10
-64.36693106079338
 20
-136.2049207849723
 30
0.0
 11
-64.58722820086268
 21
-136.6100089254287
 31
0.0
  0
LINE
  5
173
330
2F
100
AcDbEntity
  8
-15N-THT. THIẾT BỊ ĐÓNG MỞ
100
AcDbLine
 10
-64.58722820086268
 20
-136.6100089254287
 30
0.0
 11
-64.90082526020613
 21
-136.9592946481953
 31
0.0
  0
LINE
  5
174
330
2F
100
AcDbEntity
  8
-15N-THT. THIẾT BỊ ĐÓNG MỞ
100
AcDbLine
 10
-64.90082526020613
 20
-136.9592946481953
 30
0.0
 11
-65.26452306192277
 21
-137.2046625284965
 31
0.0
  0
LINE
  5
175
330
2F
100
AcDbEntity
  8
-15N-THT. THIẾT BỊ ĐÓNG MỞ
100
AcDbLine
 10
-63.21116958279072
 20
-136.8888221372872
 30
0.0
 11
-63.278218423015
 21
-137.2843931469797
 31
0.0
  0
LINE
  5
176
330
2F
100
AcDbEntity
  8
-15N-THT. THIẾT BỊ ĐÓNG MỞ
100
AcDbLine
 10
-63.278218423015
 20
-137.2843931469797
 30
0.0
 11
-63.39839954022227
 21
-137.6852492486905
 31
0.0
  0
LINE
  5
177
330
2F
100
AcDbEntity
  8
-15N-THT. THIẾT BỊ ĐÓNG MỞ
100
AcDbLine
 10
-63.39839954022227
 20
-137.6852492486905
 30
0.0
 11
-63.56134086800557
 21
-138.0629424944018
 31
0.0
  0
LINE
  5
178
330
2F
100
AcDbEntity
  8
-15N-THT. THIẾT BỊ ĐÓNG MỞ
100
AcDbLine
 10
-63.56134086800557
 20
-138.0629424944018
 30
0.0
 11
-63.75155071215522
 21
-138.3884347526127
 31
0.0
  0
LINE
  5
179
330
2F
100
AcDbEntity
  8
-15N-THT. THIẾT BỊ ĐÓNG MỞ
100
AcDbLine
 10
-58.00111810490398
 20
151.1768392358226
 30
0.0
 11
-57.92527338396666
 21
150.420628286085
 31
0.0
  0
LINE
  5
17A
330
2F
100
AcDbEntity
  8
-15N-THT. THIẾT BỊ ĐÓNG MỞ
100
AcDbLine
 10
-57.92527338396666
 20
150.420628286085
 30
0.0
 11
-57.66186064015937
 21
149.6055973199272
 31
0.0
  0
LINE
  5
17B
330
2F
100
AcDbEntity
  8
-15N-THT. THIẾT BỊ ĐÓNG MỞ
100
AcDbLine
 10
-57.66186064015937
 20
149.6055973199272
 30
0.0
 11
-57.18803985789236
 21
148.824963802821
 31
0.0
  0
LINE
  5
17C
330
2F
100
AcDbEntity
  8
-15N-THT. THIẾT BỊ ĐÓNG MỞ
100
AcDbLine
 10
-57.18803985789236
 20
148.824963802821
 30
0.0
 11
-56.52894963091148
 21
148.1694755174976
 31
0.0
  0
LINE
  5
17D
330
2F
100
AcDbEntity
  8
-15N-THT. THIẾT BỊ ĐÓNG MỞ
100
AcDbLine
 10
-56.52894963091148
 20
148.1694755174976
 30
0.0
 11
-55.74860650300843
 21
147.7012277928024
 31
0.0
  0
LINE
  5
17E
330
2F
100
AcDbEntity
  8
-15N-THT. THIẾT BỊ ĐÓNG MỞ
100
AcDbLine
 10
-55.74860650300843
 20
147.7012277928024
 30
0.0
 11
-54.93920692987604
 21
147.4429751762945
 31
0.0
  0
LINE
  5
17F
330
2F
100
AcDbEntity
  8
-15N-THT. THIẾT BỊ ĐÓNG MỞ
100
AcDbLine
 10
-54.93920692987604
 20
147.4429751762945
 30
0.0
 11
-54.19353776192156
 21
147.3692588935082
 31
0.0
  0
LINE
  5
180
330
2F
100
AcDbEntity
  8
-15N-THT. THIẾT BỊ ĐÓNG MỞ
100
AcDbLine
 10
-63.20946095185354
 20
162.8459198281944
 30
0.0
 11
-63.20716857304751
 21
162.7948817192828
 31
0.0
  0
LINE
  5
181
330
2F
100
AcDbEntity
  8
-15N-THT. THIẾT BỊ ĐÓNG MỞ
100
AcDbLine
 10
-63.20716857304751
 20
162.7948817192828
 30
0.0
 11
-63.20644045015751
 21
162.7449973956991
 31
0.0
  0
LINE
  5
182
330
2F
100
AcDbEntity
  8
-15N-THT. THIẾT BỊ ĐÓNG MỞ
100
AcDbLine
 10
-67.29965325770763
 20
-163.3253192549127
 30
0.0
 11
-67.30639776494263
 21
-163.8066839533803
 31
0.0
  0
LINE
  5
183
330
2F
100
AcDbEntity
  8
-15N-THT. THIẾT BỊ ĐÓNG MỞ
100
AcDbLine
 10
-67.30639776494263
 20
-163.8066839533803
 30
0.0
 11
-67.30882483208416
 21
-164.2205741435118
 31
0.0
  0
LINE
  5
184
330
2F
100
AcDbEntity
  8
-15N-THT. THIẾT BỊ ĐÓNG MỞ
100
AcDbLine
 10
-67.30882483208416
 20
-164.2205741435118
 30
0.0
 11
-67.30645690206347
 21
-164.497156162799
 31
0.0
  0
LINE
  5
185
330
2F
100
AcDbEntity
  8
-15N-THT. THIẾT BỊ ĐÓNG MỞ
100
AcDbLine
 10
-67.30645690206347
 20
-164.497156162799
 30
0.0
 11
-67.29965325770763
 21
-164.594512702397
 31
0.0
  0
LINE
  5
186
330
2F
100
AcDbEntity
  8
-15N-THT. THIẾT BỊ ĐÓNG MỞ
100
AcDbLine
 10
-63.20644045015751
 20
-136.7617623106871
 30
0.0
 11
-63.20716789923517
 21
-136.8257227410758
 31
0.0
  0
LINE
  5
187
330
2F
100
AcDbEntity
  8
-15N-THT. THIẾT BỊ ĐÓNG MỞ
100
AcDbLine
 10
-63.20716789923517
 20
-136.8257227410758
 30
0.0
 11
-63.21116958279072
 21
-136.8888221372872
 31
0.0
  0
LINE
  5
188
330
2F
100
AcDbEntity
  8
-15N-THT. THIẾT BỊ ĐÓNG MỞ
100
AcDbLine
 10
-63.64630674105047
 20
-136.8559223808079
 30
0.0
 11
-63.64366397308049
 21
-137.3814737140164
 31
0.0
  0
LINE
  5
189
330
2F
100
AcDbEntity
  8
-15N-THT. THIẾT BỊ ĐÓNG MỞ
100
AcDbLine
 10
-63.64366397308049
 20
-137.3814737140164
 30
0.0
 11
-63.68415415193749
 21
-137.9148198520943
 31
0.0
  0
LINE
  5
18A
330
2F
100
AcDbEntity
  8
-15N-THT. THIẾT BỊ ĐÓNG MỞ
100
AcDbLine
 10
-63.68415415193749
 20
-137.9148198520943
 30
0.0
 11
-63.75155085278584
 21
-138.3884367779192
 31
0.0
  0
LINE
  5
18B
330
2F
100
AcDbEntity
  8
-15N-THT. THIẾT BỊ ĐÓNG MỞ
100
AcDbLine
 10
-67.29965325770763
 20
-150.7647815415057
 30
0.0
 11
-67.30645690206347
 21
-150.2776444717856
 31
0.0
  0
LINE
  5
18C
330
2F
100
AcDbEntity
  8
-15N-THT. THIẾT BỊ ĐÓNG MỞ
100
AcDbLine
 10
-67.30645690206347
 20
-150.2776444717856
 30
0.0
 11
-67.30882483208416
 21
-149.8654038665081
 31
0.0
  0
LINE
  5
18D
330
2F
100
AcDbEntity
  8
-15N-THT. THIẾT BỊ ĐÓNG MỞ
100
AcDbLine
 10
-67.30882483208416
 20
-149.8654038665081
 30
0.0
 11
-67.30639776494263
 21
-149.5905602199163
 31
0.0
  0
LINE
  5
18E
330
2F
100
AcDbEntity
  8
-15N-THT. THIẾT BỊ ĐÓNG MỞ
100
AcDbLine
 10
-67.30639776494263
 20
-149.5905602199163
 30
0.0
 11
-67.29965325770763
 21
-149.4955880940215
 31
0.0
  0
LINE
  5
18F
330
2F
100
AcDbEntity
  8
-15N-THT. THIẾT BỊ ĐÓNG MỞ
100
AcDbLine
 10
-55.91794350696545
 20
-139.0852887381861
 30
0.0
 11
-55.90466369921251
 21
-139.2300508779826
 31
0.0
  0
LINE
  5
190
330
2F
100
AcDbEntity
  8
-15N-THT. THIẾT BỊ ĐÓNG MỞ
100
AcDbLine
 10
-55.90466369921251
 20
-139.2300508779826
 30
0.0
 11
-55.89263078523754
 21
-139.6032168373021
 31
0.0
  0
LINE
  5
191
330
2F
100
AcDbEntity
  8
-15N-THT. THIẾT BỊ ĐÓNG MỞ
100
AcDbLine
 10
-55.89263078523754
 20
-139.6032168373021
 30
0.0
 11
-55.88332598423448
 21
-140.1552541748915
 31
0.0
  0
LINE
  5
192
330
2F
100
AcDbEntity
  8
-15N-THT. THIẾT BỊ ĐÓNG MỞ
100
AcDbLine
 10
-55.88332598423448
 20
-140.1552541748915
 30
0.0
 11
-55.87723691901146
 21
-140.8572211693936
 31
0.0
  0
LINE
  5
193
330
2F
100
AcDbEntity
  8
-15N-THT. THIẾT BỊ ĐÓNG MỞ
100
AcDbLine
 10
-55.87723691901146
 20
-140.8572211693936
 30
0.0
 11
-55.8751756018014
 21
-141.6225157483968
 31
0.0
  0
LINE
  5
194
330
2F
100
AcDbEntity
  8
-15N-THT. THIẾT BỊ ĐÓNG MỞ
100
AcDbLine
 10
-63.65523645002259
 20
-136.7617623106871
 30
0.0
 11
-63.64972338406232
 21
-136.8092156726016
 31
0.0
  0
LINE
  5
195
330
2F
100
AcDbEntity
  8
-15N-THT. THIẾT BỊ ĐÓNG MỞ
100
AcDbLine
 10
-63.64972338406232
 20
-136.8092156726016
 30
0.0
 11
-63.64630674105047
 21
-136.8559223808079
 31
0.0
  0
LINE
  5
196
330
2F
100
AcDbEntity
  8
-15N-THT. THIẾT BỊ ĐÓNG MỞ
100
AcDbLine
 10
-63.44718520715741
 20
-149.4283430140003
 30
0.0
 11
-63.44238419504745
 21
-149.467928299473
 31
0.0
  0
LINE
  5
197
330
2F
100
AcDbEntity
  8
-15N-THT. THIẾT BỊ ĐÓNG MỞ
100
AcDbLine
 10
-63.44238419504745
 20
-149.467928299473
 30
0.0
 11
-63.43916906183494
 21
-149.5913822013772
 31
0.0
  0
LINE
  5
198
330
2F
100
AcDbEntity
  8
-15N-THT. THIẾT BỊ ĐÓNG MỞ
100
AcDbLine
 10
-63.43916906183494
 20
-149.5913822013772
 30
0.0
 11
-63.43801493197497
 21
-149.7958080397766
 31
0.0
  0
LINE
  5
199
330
2F
100
AcDbEntity
  8
-15N-THT. THIẾT BỊ ĐÓNG MỞ
100
AcDbLine
 10
-63.43801493197497
 20
-149.7958080397766
 30
0.0
 11
-63.43910633586256
 21
-150.0659577965216
 31
0.0
  0
LINE
  5
19A
330
2F
100
AcDbEntity
  8
-15N-THT. THIẾT BỊ ĐÓNG MỞ
100
AcDbLine
 10
-63.43910633586256
 20
-150.0659577965216
 30
0.0
 11
-63.44231694703876
 21
-150.3773906071983
 31
0.0
  0
LINE
  5
19B
330
2F
100
AcDbEntity
  8
-15N-THT. THIẾT BỊ ĐÓNG MỞ
100
AcDbLine
 10
-63.44231694703876
 20
-150.3773906071983
 30
0.0
 11
-63.44717959407671
 21
-150.6975363634938
 31
0.0
  0
LINE
  5
19C
330
2F
100
AcDbEntity
  8
-15N-THT. THIẾT BỊ ĐÓNG MỞ
100
AcDbLine
 10
-78.14946697093455
 20
-156.0547005488133
 30
0.0
 11
-78.15726557699827
 21
-156.176251016901
 31
0.0
  0
LINE
  5
19D
330
2F
100
AcDbEntity
  8
-15N-THT. THIẾT BỊ ĐÓNG MỞ
100
AcDbLine
 10
-78.15726557699827
 20
-156.176251016901
 30
0.0
 11
-78.16275928588448
 21
-156.2852351279816
 31
0.0
  0
LINE
  5
19E
330
2F
100
AcDbEntity
  8
-15N-THT. THIẾT BỊ ĐÓNG MỞ
100
AcDbLine
 10
-78.16275928588448
 20
-156.2852351279816
 30
0.0
 11
-78.16624034196047
 21
-156.3815888625922
 31
0.0
  0
LINE
  5
19F
330
2F
100
AcDbEntity
  8
-15N-THT. THIẾT BỊ ĐÓNG MỞ
100
AcDbLine
 10
-78.16624034196047
 20
-156.3815888625922
 30
0.0
 11
-78.16792628494795
 21
-156.4659699907006
 31
0.0
  0
LINE
  5
1A0
330
2F
100
AcDbEntity
  8
-15N-THT. THIẾT BỊ ĐÓNG MỞ
100
AcDbLine
 10
-78.16792628494795
 20
-156.4659699907006
 30
0.0
 11
-78.16792628494795
 21
-156.5381187388211
 31
0.0
  0
LINE
  5
1A1
330
2F
100
AcDbEntity
  8
-15N-THT. THIẾT BỊ ĐÓNG MỞ
100
AcDbLine
 10
-78.16792628494795
 20
-156.5381187388211
 30
0.0
 11
-78.16624034196047
 21
-156.5987407407901
 31
0.0
  0
LINE
  5
1A2
330
2F
100
AcDbEntity
  8
-15N-THT. THIẾT BỊ ĐÓNG MỞ
100
AcDbLine
 10
-78.16624034196047
 20
-156.5987407407901
 30
0.0
 11
-78.16275928588448
 21
-156.6460460551843
 31
0.0
  0
LINE
  5
1A3
330
2F
100
AcDbEntity
  8
-15N-THT. THIẾT BỊ ĐÓNG MỞ
100
AcDbLine
 10
-78.16275928588448
 20
-156.6460460551843
 30
0.0
 11
-78.15726557699827
 21
-156.6776461192894
 31
0.0
  0
LINE
  5
1A4
330
2F
100
AcDbEntity
  8
-15N-THT. THIẾT BỊ ĐÓNG MỞ
100
AcDbLine
 10
-78.15726557699827
 20
-156.6776461192894
 30
0.0
 11
-78.14946697093455
 21
-156.6893939393867
 31
0.0
  0
LINE
  5
1A5
330
2F
100
AcDbEntity
  8
-15N-THT. THIẾT BỊ ĐÓNG MỞ
100
AcDbLine
 10
-108.9172054328951
 20
-139.1083870199181
 30
0.0
 11
-108.9531608051607
 21
-139.3097107617013
 31
0.0
  0
LINE
  5
1A6
330
2F
100
AcDbEntity
  8
-15N-THT. THIẾT BỊ ĐÓNG MỞ
100
AcDbLine
 10
-108.9531608051607
 20
-139.3097107617013
 30
0.0
 11
-108.9850134849534
 21
-139.7033650506891
 31
0.0
  0
LINE
  5
1A7
330
2F
100
AcDbEntity
  8
-15N-THT. THIẾT BỊ ĐÓNG MỞ
100
AcDbLine
 10
-108.9850134849534
 20
-139.7033650506891
 30
0.0
 11
-109.0093658100795
 21
-140.2443497230961
 31
0.0
  0
LINE
  5
1A8
330
2F
100
AcDbEntity
  8
-15N-THT. THIẾT BỊ ĐÓNG MỞ
100
AcDbLine
 10
-109.0093658100795
 20
-140.2443497230961
 30
0.0
 11
-109.0251116929566
 21
-140.9079185936971
 31
0.0
  0
LINE
  5
1A9
330
2F
100
AcDbEntity
  8
-15N-THT. THIẾT BỊ ĐÓNG MỞ
100
AcDbLine
 10
-109.0251116929566
 20
-140.9079185936971
 30
0.0
 11
-109.0304287690655
 21
-141.6225157483968
 31
0.0
  0
LINE
  5
1AA
330
2F
100
AcDbEntity
  8
-15N-THT. THIẾT BỊ ĐÓNG MỞ
100
AcDbLine
 10
-182.1854040957987
 20
-62.95420140240094
 30
0.0
 11
-182.5651983534912
 21
-62.92110253267674
 31
0.0
  0
LINE
  5
1AB
330
2F
100
AcDbEntity
  8
-15N-THT. THIẾT BỊ ĐÓNG MỞ
100
AcDbLine
 10
-182.5651983534912
 20
-62.92110253267674
 30
0.0
 11
-182.8977604308161
 21
-62.82056440659835
 31
0.0
  0
LINE
  5
1AC
330
2F
100
AcDbEntity
  8
-15N-THT. THIẾT BỊ ĐÓNG MỞ
100
AcDbLine
 10
-182.8977604308161
 20
-62.82056440659835
 30
0.0
 11
-183.1721986266789
 21
-62.65145045329337
 31
0.0
  0
LINE
  5
1AD
330
2F
100
AcDbEntity
  8
-15N-THT. THIẾT BỊ ĐÓNG MỞ
100
AcDbLine
 10
-183.1721986266789
 20
-62.65145045329337
 30
0.0
 11
-183.3854585718354
 21
-62.4039623724766
 31
0.0
  0
LINE
  5
1AE
330
2F
100
AcDbEntity
  8
-15N-THT. THIẾT BỊ ĐÓNG MỞ
100
AcDbLine
 10
-183.3854585718354
 20
-62.4039623724766
 30
0.0
 11
-183.5188524005934
 21
-62.07802105939117
 31
0.0
  0
LINE
  5
1AF
330
2F
100
AcDbEntity
  8
-15N-THT. THIẾT BỊ ĐÓNG MỞ
100
AcDbLine
 10
-183.5188524005934
 20
-62.07802105939117
 30
0.0
 11
-183.5530035947445
 21
-61.69589048338275
 31
0.0
  0
LINE
  5
1B0
330
2F
100
AcDbEntity
  8
-15N-THT. THIẾT BỊ ĐÓNG MỞ
100
AcDbLine
 10
-183.5530035947445
 20
-61.69589048338275
 30
0.0
 11
-183.4924598834477
 21
-61.28475650579821
 31
0.0
  0
LINE
  5
1B1
330
2F
100
AcDbEntity
  8
-15N-THT. THIẾT BỊ ĐÓNG MỞ
100
AcDbLine
 10
-182.0028632786125
 20
-68.8266722344797
 30
0.0
 11
-182.2104269587434
 21
-68.83931413510618
 31
0.0
  0
LINE
  5
1B2
330
2F
100
AcDbEntity
  8
-15N-THT. THIẾT BỊ ĐÓNG MỞ
100
AcDbLine
 10
-182.2104269587434
 20
-68.83931413510618
 30
0.0
 11
-182.4178691497072
 21
-68.87788627331246
 31
0.0
  0
LINE
  5
1B3
330
2F
100
AcDbEntity
  8
-15N-THT. THIẾT BỊ ĐÓNG MỞ
100
AcDbLine
 10
-182.4178691497072
 20
-68.87788627331246
 30
0.0
 11
-182.6232906226064
 21
-68.9440708783186
 31
0.0
  0
LINE
  5
1B4
330
2F
100
AcDbEntity
  8
-15N-THT. THIẾT BỊ ĐÓNG MỞ
100
AcDbLine
 10
-182.6232906226064
 20
-68.9440708783186
 30
0.0
 11
-182.8221831885166
 21
-69.03921501189689
 31
0.0
  0
LINE
  5
1B5
330
2F
100
AcDbEntity
  8
-15N-THT. THIẾT BỊ ĐÓNG MỞ
100
AcDbLine
 10
-182.8221831885166
 20
-69.03921501189689
 30
0.0
 11
-183.0026444536634
 21
-69.15912591921551
 31
0.0
  0
LINE
  5
1B6
330
2F
100
AcDbEntity
  8
-15N-THT. THIẾT BỊ ĐÓNG MỞ
100
AcDbLine
 10
-183.0026444536634
 20
-69.15912591921551
 30
0.0
 11
-183.1535790725606
 21
-69.29348697579917
 31
0.0
  0
LINE
  5
1B7
330
2F
100
AcDbEntity
  8
-15N-THT. THIẾT BỊ ĐÓNG MỞ
100
AcDbLine
 10
-183.1535790725606
 20
-69.29348697579917
 30
0.0
 11
-183.2722500609238
 21
-69.43221666858335
 31
0.0
  0
LINE
  5
1B8
330
2F
100
AcDbEntity
  8
-15N-THT. THIẾT BỊ ĐÓNG MỞ
100
AcDbLine
 10
-180.0488456487656
 20
-73.47206917812218
 30
0.0
 11
-179.9351610126905
 21
-73.46149059210074
 31
0.0
  0
LINE
  5
1B9
330
2F
100
AcDbEntity
  8
-15N-THT. THIẾT BỊ ĐÓNG MỞ
100
AcDbLine
 10
-179.9351610126905
 20
-73.46149059210074
 30
0.0
 11
-179.8218507315036
 21
-73.4239694324151
 31
0.0
  0
LINE
  5
1BA
330
2F
100
AcDbEntity
  8
-15N-THT. THIẾT BỊ ĐÓNG MỞ
100
AcDbLine
 10
-179.8218507315036
 20
-73.4239694324151
 30
0.0
 11
-179.7219718405977
 21
-73.35346664740973
 31
0.0
  0
LINE
  5
1BB
330
2F
100
AcDbEntity
  8
-15N-THT. THIẾT BỊ ĐÓNG MỞ
100
AcDbLine
 10
-179.7219718405977
 20
-73.35346664740973
 30
0.0
 11
-179.6500740768388
 21
-73.25410145319802
 31
0.0
  0
LINE
  5
1BC
330
2F
100
AcDbEntity
  8
-15N-THT. THIẾT BỊ ĐÓNG MỞ
100
AcDbLine
 10
-179.6500740768388
 20
-73.25410145319802
 30
0.0
 11
-179.6111476998776
 21
-73.1395579091004
 31
0.0
  0
LINE
  5
1BD
330
2F
100
AcDbEntity
  8
-15N-THT. THIẾT BỊ ĐÓNG MỞ
100
AcDbLine
 10
-179.6111476998776
 20
-73.1395579091004
 30
0.0
 11
-179.6000496484334
 21
-73.02327317767231
 31
0.0
  0
LINE
  5
1BE
330
2F
100
AcDbEntity
  8
-15N-THT. THIẾT BỊ ĐÓNG MỞ
100
AcDbLine
 10
-182.0028632786125
 20
-71.53469736768784
 30
0.0
 11
-181.7729838700029
 21
-71.5132373483757
 31
0.0
  0
LINE
  5
1BF
330
2F
100
AcDbEntity
  8
-15N-THT. THIẾT BỊ ĐÓNG MỞ
100
AcDbLine
 10
-181.7729838700029
 20
-71.5132373483757
 30
0.0
 11
-181.5495120706032
 21
-71.44903516739942
 31
0.0
  0
LINE
  5
1C0
330
2F
100
AcDbEntity
  8
-15N-THT. THIẾT BỊ ĐÓNG MỞ
100
AcDbLine
 10
-181.5495120706032
 20
-71.44903516739942
 30
0.0
 11
-181.3397316387854
 21
-71.34310727368029
 31
0.0
  0
LINE
  5
1C1
330
2F
100
AcDbEntity
  8
-15N-THT. THIẾT BỊ ĐÓNG MỞ
100
AcDbLine
 10
-181.3397316387854
 20
-71.34310727368029
 30
0.0
 11
-181.1497127786274
 21
-71.19639228281083
 31
0.0
  0
LINE
  5
1C2
330
2F
100
AcDbEntity
  8
-15N-THT. THIẾT BỊ ĐÓNG MỞ
100
AcDbLine
 10
-181.1497127786274
 20
-71.19639228281083
 30
0.0
 11
-180.9934058324434
 21
-71.01988821650775
 31
0.0
  0
LINE
  5
1C3
330
2F
100
AcDbEntity
  8
-15N-THT. THIẾT BỊ ĐÓNG MỞ
100
AcDbLine
 10
-180.9934058324434
 20
-71.01988821650775
 30
0.0
 11
-180.8847249937248
 21
-70.84334345691241
 31
0.0
  0
LINE
  5
1C4
330
2F
100
AcDbEntity
  8
-15N-THT. THIẾT BỊ ĐÓNG MỞ
100
AcDbLine
 10
-180.8847249937248
 20
-70.84334345691241
 30
0.0
 11
-180.8147721337154
 21
-70.68010907948519
 31
0.0
  0
LINE
  5
1C5
330
2F
100
AcDbEntity
  8
-15N-THT. THIẾT BỊ ĐÓNG MỞ
100
AcDbLine
 10
-180.8147721337154
 20
-70.68010907948519
 30
0.0
 11
-180.7716875215992
 21
-70.53136922380872
 31
0.0
  0
LINE
  5
1C6
330
2F
100
AcDbEntity
  8
-15N-THT. THIẾT BỊ ĐÓNG MỞ
100
AcDbLine
 10
-180.7716875215992
 20
-70.53136922380872
 30
0.0
 11
-180.7476645265706
 21
-70.39910108388904
 31
0.0
  0
LINE
  5
1C7
330
2F
100
AcDbEntity
  8
-15N-THT. THIẾT BỊ ĐÓNG MỞ
100
AcDbLine
 10
-180.7476645265706
 20
-70.39910108388904
 30
0.0
 11
-180.7364431577739
 21
-70.2826806332996
 31
0.0
  0
LINE
  5
1C8
330
2F
100
AcDbEntity
  8
-15N-THT. THIẾT BỊ ĐÓNG MỞ
100
AcDbLine
 10
-180.7364431577739
 20
-70.2826806332996
 30
0.0
 11
-180.7334764967668
 21
-70.18068480101101
 31
0.0
  0
LINE
  5
1C9
330
2F
100
AcDbEntity
  8
-15N-THT. THIẾT BỊ ĐÓNG MỞ
100
AcDbLine
 10
-109.1832241439251
 20
-139.3775436310061
 30
0.0
 11
-109.1949420729643
 21
-140.0779134629956
 31
0.0
  0
LINE
  5
1CA
330
2F
100
AcDbEntity
  8
-15N-THT. THIẾT BỊ ĐÓNG MỞ
100
AcDbLine
 10
-109.1949420729643
 20
-140.0779134629956
 30
0.0
 11
-109.2020460008639
 21
-140.8009498961874
 31
0.0
  0
LINE
  5
1CB
330
2F
100
AcDbEntity
  8
-15N-THT. THIẾT BỊ ĐÓNG MỞ
100
AcDbLine
 10
-109.2020460008639
 20
-140.8009498961874
 30
0.0
 11
-109.2044264748674
 21
-141.5354073169837
 31
0.0
  0
LINE
  5
1CC
330
2F
100
AcDbEntity
  8
-15N-THT. THIẾT BỊ ĐÓNG MỞ
100
AcDbLine
 10
-179.3371510384595
 20
-75.53015179029353
 30
0.0
 11
-179.0451550246212
 21
-75.51337545696515
 31
0.0
  0
LINE
  5
1CD
330
2F
100
AcDbEntity
  8
-15N-THT. THIẾT BỊ ĐÓNG MỞ
100
AcDbLine
 10
-179.0451550246212
 20
-75.51337545696515
 30
0.0
 11
-178.7248463374558
 21
-75.45032540338616
 31
0.0
  0
LINE
  5
1CE
330
2F
100
AcDbEntity
  8
-15N-THT. THIẾT BỊ ĐÓNG MỞ
100
AcDbLine
 10
-178.7248463374558
 20
-75.45032540338616
 30
0.0
 11
-178.3834634097297
 21
-75.31433706278949
 31
0.0
  0
LINE
  5
1CF
330
2F
100
AcDbEntity
  8
-15N-THT. THIẾT BỊ ĐÓNG MỞ
100
AcDbLine
 10
-178.3834634097297
 20
-75.31433706278949
 30
0.0
 11
-178.0572064346634
 21
-75.08159309249822
 31
0.0
  0
LINE
  5
1D0
330
2F
100
AcDbEntity
  8
-15N-THT. THIẾT BỊ ĐÓNG MỞ
100
AcDbLine
 10
-178.0572064346634
 20
-75.08159309249822
 30
0.0
 11
-177.7986175785777
 21
-74.76093417041739
 31
0.0
  0
LINE
  5
1D1
330
2F
100
AcDbEntity
  8
-15N-THT. THIẾT BỊ ĐÓNG MỞ
100
AcDbLine
 10
-177.7986175785777
 20
-74.76093417041739
 30
0.0
 11
-177.6370566724808
 21
-74.39862826908575
 31
0.0
  0
LINE
  5
1D2
330
2F
100
AcDbEntity
  8
-15N-THT. THIẾT BỊ ĐÓNG MỞ
100
AcDbLine
 10
-177.6370566724808
 20
-74.39862826908575
 30
0.0
 11
-177.5616645566183
 21
-74.0505204510664
 31
0.0
  0
LINE
  5
1D3
330
2F
100
AcDbEntity
  8
-15N-THT. THIẾT BỊ ĐÓNG MỞ
100
AcDbLine
 10
-177.5616645566183
 20
-74.0505204510664
 30
0.0
 11
-177.5419670366677
 21
-73.73496778838671
 31
0.0
  0
LINE
  5
1D4
330
2F
100
AcDbEntity
  8
-15N-THT. THIẾT BỊ ĐÓNG MỞ
100
AcDbLine
 10
-118.0279635400493
 20
-139.3863970501934
 30
0.0
 11
-118.0164130590847
 21
-140.0851210919754
 31
0.0
  0
LINE
  5
1D5
330
2F
100
AcDbEntity
  8
-15N-THT. THIẾT BỊ ĐÓNG MỞ
100
AcDbLine
 10
-118.0164130590847
 20
-140.0851210919754
 30
0.0
 11
-118.0094153471277
 21
-140.8049498819691
 31
0.0
  0
LINE
  5
1D6
330
2F
100
AcDbEntity
  8
-15N-THT. THIẾT BỊ ĐÓNG MỞ
100
AcDbLine
 10
-118.0094153471277
 20
-140.8049498819691
 30
0.0
 11
-118.0070712408032
 21
-141.5354073169837
 31
0.0
  0
LINE
  5
1D7
330
2F
100
AcDbEntity
  8
-15N-THT. THIẾT BỊ ĐÓNG MỞ
100
AcDbLine
 10
-69.38358612777529
 20
-122.9252900408719
 30
0.0
 11
-69.23596689198075
 21
-123.0653957440772
 31
0.0
  0
LINE
  5
1D8
330
2F
100
AcDbEntity
  8
-15N-THT. THIẾT BỊ ĐÓNG MỞ
100
AcDbLine
 10
-69.23596689198075
 20
-123.0653957440772
 30
0.0
 11
-69.18157957587209
 21
-123.2615295492815
 31
0.0
  0
LINE
  5
1D9
330
2F
100
AcDbEntity
  8
-15N-THT. THIẾT BỊ ĐÓNG MỞ
100
AcDbLine
 10
-118.3092152029266
 20
-139.1083870199181
 30
0.0
 11
-118.2724105902002
 21
-139.3097186949999
 31
0.0
  0
LINE
  5
1DA
330
2F
100
AcDbEntity
  8
-15N-THT. THIẾT BỊ ĐÓNG MỞ
100
AcDbLine
 10
-118.2724105902002
 20
-139.3097186949999
 30
0.0
 11
-118.2398062599818
 21
-139.7033824169739
 31
0.0
  0
LINE
  5
1DB
330
2F
100
AcDbEntity
  8
-15N-THT. THIẾT BỊ ĐÓNG MỞ
100
AcDbLine
 10
-118.2398062599818
 20
-139.7033824169739
 30
0.0
 11
-118.2148796571405
 21
-140.244372669893
 31
0.0
  0
LINE
  5
1DC
330
2F
100
AcDbEntity
  8
-15N-THT. THIẾT BỊ ĐÓNG MỞ
100
AcDbLine
 10
-118.2148796571405
 20
-140.244372669893
 30
0.0
 11
-118.1987627469921
 21
-140.9079388113987
 31
0.0
  0
LINE
  5
1DD
330
2F
100
AcDbEntity
  8
-15N-THT. THIẾT BỊ ĐÓNG MỞ
100
AcDbLine
 10
-118.1987627469921
 20
-140.9079388113987
 30
0.0
 11
-118.1933205369841
 21
-141.6225157483968
 31
0.0
  0
LINE
  5
1DE
330
2F
100
AcDbEntity
  8
-15N-THT. THIẾT BỊ ĐÓNG MỞ
100
AcDbLine
 10
-69.39715738594487
 20
-122.9025994254862
 30
0.0
 11
-69.26703007426022
 21
-122.9835660527988
 31
0.0
  0
LINE
  5
1DF
330
2F
100
AcDbEntity
  8
-15N-THT. THIẾT BỊ ĐÓNG MỞ
100
AcDbLine
 10
-69.26703007426022
 20
-122.9835660527988
 30
0.0
 11
-69.17936244094653
 21
-123.1092578431089
 31
0.0
  0
LINE
  5
1E0
330
2F
100
AcDbEntity
  8
-15N-THT. THIẾT BỊ ĐÓNG MỞ
100
AcDbLine
 10
-153.9518327307883
 20
-139.1083870199181
 30
0.0
 11
-153.9877881025895
 21
-139.3097107617013
 31
0.0
  0
LINE
  5
1E1
330
2F
100
AcDbEntity
  8
-15N-THT. THIẾT BỊ ĐÓNG MỞ
100
AcDbLine
 10
-153.9877881025895
 20
-139.3097107617013
 30
0.0
 11
-154.0196407837798
 21
-139.7033650506891
 31
0.0
  0
LINE
  5
1E2
330
2F
100
AcDbEntity
  8
-15N-THT. THIẾT BỊ ĐÓNG MỞ
100
AcDbLine
 10
-154.0196407837798
 20
-139.7033650506891
 30
0.0
 11
-154.0439931084388
 21
-140.2443497230961
 31
0.0
  0
LINE
  5
1E3
330
2F
100
AcDbEntity
  8
-15N-THT. THIẾT BỊ ĐÓNG MỞ
100
AcDbLine
 10
-154.0439931084388
 20
-140.2443497230961
 30
0.0
 11
-154.0597389908503
 21
-140.9079185936971
 31
0.0
  0
LINE
  5
1E4
330
2F
100
AcDbEntity
  8
-15N-THT. THIẾT BỊ ĐÓNG MỞ
100
AcDbLine
 10
-154.0597389908503
 20
-140.9079185936971
 30
0.0
 11
-154.065056066494
 21
-141.6225157483968
 31
0.0
  0
LINE
  5
1E5
330
2F
100
AcDbEntity
  8
-15N-THT. THIẾT BỊ ĐÓNG MỞ
100
AcDbLine
 10
-70.00222186511336
 20
-130.1796715116907
 30
0.0
 11
-70.12144638923792
 21
-130.1244875735101
 31
0.0
  0
LINE
  5
1E6
330
2F
100
AcDbEntity
  8
-15N-THT. THIẾT BỊ ĐÓNG MỞ
100
AcDbLine
 10
-70.12144638923792
 20
-130.1244875735101
 30
0.0
 11
-70.20495654689012
 21
-129.9858634814973
 31
0.0
  0
LINE
  5
1E7
330
2F
100
AcDbEntity
  8
-15N-THT. THIẾT BỊ ĐÓNG MỞ
100
AcDbLine
 10
-70.20495654689012
 20
-129.9858634814973
 30
0.0
 11
-70.23131928266866
 21
-129.799377372281
 31
0.0
  0
LINE
  5
1E8
330
2F
100
AcDbEntity
  8
-15N-THT. THIẾT BỊ ĐÓNG MỞ
100
AcDbLine
 10
-72.6288542561224
 20
-130.0420155409901
 30
0.0
 11
-72.74807877791955
 21
-129.9868316026077
 31
0.0
  0
LINE
  5
1E9
330
2F
100
AcDbEntity
  8
-15N-THT. THIẾT BỊ ĐÓNG MỞ
100
AcDbLine
 10
-72.74807877791955
 20
-129.9868316026077
 30
0.0
 11
-72.83158893091422
 21
-129.8482075101001
 31
0.0
  0
LINE
  5
1EA
330
2F
100
AcDbEntity
  8
-15N-THT. THIẾT BỊ ĐÓNG MỞ
100
AcDbLine
 10
-72.83158893091422
 20
-129.8482075101001
 30
0.0
 11
-72.85795167507558
 21
-129.6617214017842
 31
0.0
  0
LINE
  5
1EB
330
2F
100
AcDbEntity
  8
-15N-THT. THIẾT BỊ ĐÓNG MỞ
100
AcDbLine
 10
-173.6605020747511
 20
-146.3438916726682
 30
0.0
 11
-173.7690378199336
 21
-146.87937266062
 31
0.0
  0
LINE
  5
1EC
330
2F
100
AcDbEntity
  8
-15N-THT. THIẾT BỊ ĐÓNG MỞ
100
AcDbLine
 10
-173.7690378199336
 20
-146.87937266062
 30
0.0
 11
-174.0764136156063
 21
-147.3986098081186
 31
0.0
  0
LINE
  5
1ED
330
2F
100
AcDbEntity
  8
-15N-THT. THIẾT BỊ ĐÓNG MỞ
100
AcDbLine
 10
-174.0764136156063
 20
-147.3986098081186
 30
0.0
 11
-174.5371518637985
 21
-147.8272869229222
 31
0.0
  0
LINE
  5
1EE
330
2F
100
AcDbEntity
  8
-15N-THT. THIẾT BỊ ĐÓNG MỞ
100
AcDbLine
 10
-174.5371518637985
 20
-147.8272869229222
 30
0.0
 11
-175.1379370950153
 21
-148.1324031867807
 31
0.0
  0
LINE
  5
1EF
330
2F
100
AcDbEntity
  8
-15N-THT. THIẾT BỊ ĐÓNG MỞ
100
AcDbLine
 10
-175.1379370950153
 20
-148.1324031867807
 30
0.0
 11
-175.8371819807216
 21
-148.2479718444774
 31
0.0
  0
LINE
  5
1F0
330
2F
100
AcDbEntity
  8
-15N-THT. THIẾT BỊ ĐÓNG MỞ
100
AcDbLine
 10
-174.1343730478543
 20
-146.3438916726682
 30
0.0
 11
-174.2792114750487
 21
-147.0725208047897
 31
0.0
  0
LINE
  5
1F1
330
2F
100
AcDbEntity
  8
-15N-THT. THIẾT BỊ ĐÓNG MỞ
100
AcDbLine
 10
-174.2792114750487
 20
-147.0725208047897
 30
0.0
 11
-174.6916905087419
 21
-147.6902446740951
 31
0.0
  0
LINE
  5
1F2
330
2F
100
AcDbEntity
  8
-15N-THT. THIẾT BỊ ĐÓNG MỞ
100
AcDbLine
 10
-174.6916905087419
 20
-147.6902446740951
 30
0.0
 11
-175.3090418800702
 21
-148.1030177124157
 31
0.0
  0
LINE
  5
1F3
330
2F
100
AcDbEntity
  8
-15N-THT. THIẾT BỊ ĐÓNG MỞ
100
AcDbLine
 10
-175.3090418800702
 20
-148.1030177124157
 30
0.0
 11
-176.0372933037574
 21
-148.2479718444774
 31
0.0
  0
LINE
  5
1F4
330
2F
100
AcDbEntity
  8
-15N-THT. THIẾT BỊ ĐÓNG MỞ
100
AcDbLine
 10
-154.2614438366145
 20
-139.4216502317831
 30
0.0
 11
-154.2713021999229
 21
-140.1125679256183
 31
0.0
  0
LINE
  5
1F5
330
2F
100
AcDbEntity
  8
-15N-THT. THIẾT BỊ ĐÓNG MỞ
100
AcDbLine
 10
-154.2713021999229
 20
-140.1125679256183
 30
0.0
 11
-154.2772627156223
 21
-140.8198684169874
 31
0.0
  0
LINE
  5
1F6
330
2F
100
AcDbEntity
  8
-15N-THT. THIẾT BỊ ĐÓNG MỞ
100
AcDbLine
 10
-154.2772627156223
 20
-140.8198684169874
 30
0.0
 11
-154.2792574027553
 21
-141.5354073169837
 31
0.0
  0
LINE
  5
1F7
330
2F
100
AcDbEntity
  8
-15N-THT. THIẾT BỊ ĐÓNG MỞ
100
AcDbLine
 10
-54.16030192002563
 20
-121.3800657222109
 30
0.0
 11
-54.90597106190262
 21
-121.4537821329977
 31
0.0
  0
LINE
  5
1F8
330
2F
100
AcDbEntity
  8
-15N-THT. THIẾT BỊ ĐÓNG MỞ
100
AcDbLine
 10
-54.90597106190262
 20
-121.4537821329977
 30
0.0
 11
-55.71537067415147
 21
-121.712034592605
 31
0.0
  0
LINE
  5
1F9
330
2F
100
AcDbEntity
  8
-15N-THT. THIẾT BỊ ĐÓNG MỞ
100
AcDbLine
 10
-55.71537067415147
 20
-121.712034592605
 30
0.0
 11
-56.49571379087638
 21
-122.1802823430007
 31
0.0
  0
LINE
  5
1FA
330
2F
100
AcDbEntity
  8
-15N-THT. THIẾT BỊ ĐÓNG MỞ
100
AcDbLine
 10
-56.49571379087638
 20
-122.1802823430007
 30
0.0
 11
-57.15480402484309
 21
-122.8357706232
 31
0.0
  0
LINE
  5
1FB
330
2F
100
AcDbEntity
  8
-15N-THT. THIẾT BỊ ĐÓNG MỞ
100
AcDbLine
 10
-57.15480402484309
 20
-122.8357706232
 30
0.0
 11
-57.62862471770404
 21
-123.6164041840784
 31
0.0
  0
LINE
  5
1FC
330
2F
100
AcDbEntity
  8
-15N-THT. THIẾT BỊ ĐÓNG MỞ
100
AcDbLine
 10
-57.62862471770404
 20
-123.6164041840784
 30
0.0
 11
-57.89203775999931
 21
-124.4314350706936
 31
0.0
  0
LINE
  5
1FD
330
2F
100
AcDbEntity
  8
-15N-THT. THIẾT BỊ ĐÓNG MỞ
100
AcDbLine
 10
-57.89203775999931
 20
-124.4314350706936
 30
0.0
 11
-57.96788226207628
 21
-125.1876460644089
 31
0.0
  0
LINE
  5
1FE
330
2F
100
AcDbEntity
  8
-15N-THT. THIẾT BỊ ĐÓNG MỞ
100
AcDbLine
 10
-172.2528432584367
 20
-139.0852887381861
 30
0.0
 11
-172.9805245017623
 21
-139.2308045601785
 31
0.0
  0
LINE
  5
1FF
330
2F
100
AcDbEntity
  8
-15N-THT. THIẾT BỊ ĐÓNG MỞ
100
AcDbLine
 10
-172.9805245017623
 20
-139.2308045601785
 30
0.0
 11
-173.5975923924702
 21
-139.6434598649157
 31
0.0
  0
LINE
  5
200
330
2F
100
AcDbEntity
  8
-15N-THT. THIẾT BỊ ĐÓNG MỞ
100
AcDbLine
 10
-173.5975923924702
 20
-139.6434598649157
 30
0.0
 11
-174.0102476957254
 21
-140.2605277557977
 31
0.0
  0
LINE
  5
201
330
2F
100
AcDbEntity
  8
-15N-THT. THIẾT BỊ ĐÓNG MỞ
100
AcDbLine
 10
-174.0102476957254
 20
-140.2605277557977
 30
0.0
 11
-174.1557635175991
 21
-140.9882089958937
 31
0.0
  0
LINE
  5
202
330
2F
100
AcDbEntity
  8
-15N-THT. THIẾT BỊ ĐÓNG MỞ
100
AcDbLine
 10
-174.4493098608218
 20
-146.3438916726682
 30
0.0
 11
-174.5424454067838
 21
-146.932284804463
 31
0.0
  0
LINE
  5
203
330
2F
100
AcDbEntity
  8
-15N-THT. THIẾT BỊ ĐÓNG MỞ
100
AcDbLine
 10
-174.5424454067838
 20
-146.932284804463
 30
0.0
 11
-174.8127352907327
 21
-147.4630819169069
 31
0.0
  0
LINE
  5
204
330
2F
100
AcDbEntity
  8
-15N-THT. THIẾT BỊ ĐÓNG MỞ
100
AcDbLine
 10
-174.8127352907327
 20
-147.4630819169069
 30
0.0
 11
-175.2337216548621
 21
-147.8843248904122
 31
0.0
  0
LINE
  5
205
330
2F
100
AcDbEntity
  8
-15N-THT. THIẾT BỊ ĐÓNG MỞ
100
AcDbLine
 10
-175.2337216548621
 20
-147.8843248904122
 30
0.0
 11
-175.7641954198475
 21
-148.1547795276801
 31
0.0
  0
LINE
  5
206
330
2F
100
AcDbEntity
  8
-15N-THT. THIẾT BỊ ĐÓNG MỞ
100
AcDbLine
 10
-175.7641954198475
 20
-148.1547795276801
 30
0.0
 11
-176.3522301185871
 21
-148.2479718444774
 31
0.0
  0
LINE
  5
207
330
2F
100
AcDbEntity
  8
-15N-THT. THIẾT BỊ ĐÓNG MỞ
100
AcDbLine
 10
-163.0210804748344
 20
-139.4302339332007
 30
0.0
 11
-163.0113249435085
 21
-140.1191341169724
 31
0.0
  0
LINE
  5
208
330
2F
100
AcDbEntity
  8
-15N-THT. THIẾT BỊ ĐÓNG MỞ
100
AcDbLine
 10
-163.0113249435085
 20
-140.1191341169724
 30
0.0
 11
-163.0054292087447
 21
-140.8234068247202
 31
0.0
  0
LINE
  5
209
330
2F
100
AcDbEntity
  8
-15N-THT. THIẾT BỊ ĐÓNG MỞ
100
AcDbLine
 10
-163.0054292087447
 20
-140.8234068247202
 30
0.0
 11
-163.0034566284157
 21
-141.5354073169837
 31
0.0
  0
LINE
  5
20A
330
2F
100
AcDbEntity
  8
-15N-THT. THIẾT BỊ ĐÓNG MỞ
100
AcDbLine
 10
-163.3466801634054
 20
-139.1083870199181
 30
0.0
 11
-163.3098755516116
 21
-139.3097186949999
 31
0.0
  0
LINE
  5
20B
330
2F
100
AcDbEntity
  8
-15N-THT. THIẾT BỊ ĐÓNG MỞ
100
AcDbLine
 10
-163.3098755516116
 20
-139.3097186949999
 30
0.0
 11
-163.2772712218575
 21
-139.7033824169739
 31
0.0
  0
LINE
  5
20C
330
2F
100
AcDbEntity
  8
-15N-THT. THIẾT BỊ ĐÓNG MỞ
100
AcDbLine
 10
-163.2772712218575
 20
-139.7033824169739
 30
0.0
 11
-163.2523446185514
 21
-140.244372669893
 31
0.0
  0
LINE
  5
20D
330
2F
100
AcDbEntity
  8
-15N-THT. THIẾT BỊ ĐÓNG MỞ
100
AcDbLine
 10
-163.2523446185514
 20
-140.244372669893
 30
0.0
 11
-163.2362277084025
 21
-140.9079388113987
 31
0.0
  0
LINE
  5
20E
330
2F
100
AcDbEntity
  8
-15N-THT. THIẾT BỊ ĐÓNG MỞ
100
AcDbLine
 10
-163.2362277084025
 20
-140.9079388113987
 30
0.0
 11
-163.2307854983955
 21
-141.6225157483968
 31
0.0
  0
LINE
  5
20F
330
2F
100
AcDbEntity
  8
-15N-THT. THIẾT BỊ ĐÓNG MỞ
100
AcDbLine
 10
-183.3002537977882
 20
-71.60571877268012
 30
0.0
 11
-182.9963574167341
 21
-72.06055846559684
 31
0.0
  0
LINE
  5
210
330
2F
100
AcDbEntity
  8
-15N-THT. THIẾT BỊ ĐÓNG MỞ
100
AcDbLine
 10
-182.9963574167341
 20
-72.06055846559684
 30
0.0
 11
-182.541504845954
 21
-72.3644883795896
 31
0.0
  0
LINE
  5
211
330
2F
100
AcDbEntity
  8
-15N-THT. THIẾT BỊ ĐÓNG MỞ
100
AcDbLine
 10
-182.541504845954
 20
-72.3644883795896
 30
0.0
 11
-182.0049278587107
 21
-72.47120430817631
 31
0.0
  0
LINE
  5
212
330
2F
100
AcDbEntity
  8
-15N-THT. THIẾT BỊ ĐÓNG MỞ
100
AcDbLine
 10
-182.0049278587107
 20
-72.47120430817631
 30
0.0
 11
-181.4684327649888
 21
-72.36445903419553
 31
0.0
  0
LINE
  5
213
330
2F
100
AcDbEntity
  8
-15N-THT. THIẾT BỊ ĐÓNG MỞ
100
AcDbLine
 10
-181.4684327649888
 20
-72.36445903419553
 30
0.0
 11
-181.0135634588077
 21
-72.06047087741536
 31
0.0
  0
LINE
  5
214
330
2F
100
AcDbEntity
  8
-15N-THT. THIẾT BỊ ĐÓNG MỞ
100
AcDbLine
 10
-181.0135634588077
 20
-72.06047087741536
 30
0.0
 11
-180.7097415635353
 21
-71.60568716670423
 31
0.0
  0
LINE
  5
215
330
2F
100
AcDbEntity
  8
-15N-THT. THIẾT BỊ ĐÓNG MỞ
100
AcDbLine
 10
-180.7097415635353
 20
-71.60568716670423
 30
0.0
 11
-180.6030538287
 21
-71.06925554791269
 31
0.0
  0
LINE
  5
216
330
2F
100
AcDbEntity
  8
-15N-THT. THIẾT BỊ ĐÓNG MỞ
100
AcDbLine
 10
-183.2722500609238
 20
-70.92914340857169
 30
0.0
 11
-183.1036443756888
 21
-71.11660230790949
 31
0.0
  0
LINE
  5
217
330
2F
100
AcDbEntity
  8
-15N-THT. THIẾT BỊ ĐÓNG MỞ
100
AcDbLine
 10
-183.1036443756888
 20
-71.11660230790949
 30
0.0
 11
-182.8986061247992
 21
-71.27585913639086
 31
0.0
  0
LINE
  5
218
330
2F
100
AcDbEntity
  8
-15N-THT. THIẾT BỊ ĐÓNG MỞ
100
AcDbLine
 10
-182.8986061247992
 20
-71.27585913639086
 30
0.0
 11
-182.6738460217607
 21
-71.39627527119046
 31
0.0
  0
LINE
  5
219
330
2F
100
AcDbEntity
  8
-15N-THT. THIẾT BỊ ĐÓNG MỞ
100
AcDbLine
 10
-182.6738460217607
 20
-71.39627527119046
 30
0.0
 11
-182.4453297057184
 21
-71.47632229330702
 31
0.0
  0
LINE
  5
21A
330
2F
100
AcDbEntity
  8
-15N-THT. THIẾT BỊ ĐÓNG MỞ
100
AcDbLine
 10
-182.4453297057184
 20
-71.47632229330702
 30
0.0
 11
-182.2212183028459
 21
-71.5206910181987
 31
0.0
  0
LINE
  5
21B
330
2F
100
AcDbEntity
  8
-15N-THT. THIẾT BỊ ĐÓNG MỞ
100
AcDbLine
 10
-182.2212183028459
 20
-71.5206910181987
 30
0.0
 11
-182.0028632786125
 21
-71.53469736768784
 31
0.0
  0
LINE
  5
21C
330
2F
100
AcDbEntity
  8
-15N-THT. THIẾT BỊ ĐÓNG MỞ
100
AcDbLine
 10
-172.5463896025908
 20
-138.7917423949948
 30
0.0
 11
-172.9247574037876
 21
-138.8292031474957
 31
0.0
  0
LINE
  5
21D
330
2F
100
AcDbEntity
  8
-15N-THT. THIẾT BỊ ĐÓNG MỞ
100
AcDbLine
 10
-172.9247574037876
 20
-138.8292031474957
 30
0.0
 11
-173.3328010598197
 21
-138.9606211516911
 31
0.0
  0
LINE
  5
21E
330
2F
100
AcDbEntity
  8
-15N-THT. THIẾT BỊ ĐÓNG MỞ
100
AcDbLine
 10
-173.3328010598197
 20
-138.9606211516911
 30
0.0
 11
-173.7234354228712
 21
-139.1975345547216
 31
0.0
  0
LINE
  5
21F
330
2F
100
AcDbEntity
  8
-15N-THT. THIẾT BỊ ĐÓNG MỞ
100
AcDbLine
 10
-173.7234354228712
 20
-139.1975345547216
 30
0.0
 11
-174.0510161616835
 21
-139.5272265708154
 31
0.0
  0
LINE
  5
220
330
2F
100
AcDbEntity
  8
-15N-THT. THIẾT BỊ ĐÓNG MỞ
100
AcDbLine
 10
-174.0510161616835
 20
-139.5272265708154
 30
0.0
 11
-174.2845966257155
 21
-139.9175312810657
 31
0.0
  0
LINE
  5
221
330
2F
100
AcDbEntity
  8
-15N-THT. THIẾT BỊ ĐÓNG MỞ
100
AcDbLine
 10
-174.2845966257155
 20
-139.9175312810657
 30
0.0
 11
-174.4130310188047
 21
-140.3222142126142
 31
0.0
  0
LINE
  5
222
330
2F
100
AcDbEntity
  8
-15N-THT. THIẾT BỊ ĐÓNG MỞ
100
AcDbLine
 10
-174.4130310188047
 20
-140.3222142126142
 30
0.0
 11
-174.4493098608218
 21
-140.694662652615
 31
0.0
  0
LINE
  5
223
330
2F
100
AcDbEntity
  8
-15N-THT. THIẾT BỊ ĐÓNG MỞ
100
AcDbLine
 10
-175.6111307046376
 20
-49.30053262441106
 30
0.0
 11
-175.4141198517759
 21
-48.96632334228525
 31
0.0
  0
LINE
  5
224
330
2F
100
AcDbEntity
  8
-15N-THT. THIẾT BỊ ĐÓNG MỞ
100
AcDbLine
 10
-175.4141198517759
 20
-48.96632334228525
 30
0.0
 11
-175.2980561535805
 21
-48.61579099267874
 31
0.0
  0
LINE
  5
225
330
2F
100
AcDbEntity
  8
-15N-THT. THIẾT BỊ ĐÓNG MỞ
100
AcDbLine
 10
-175.2980561535805
 20
-48.61579099267874
 30
0.0
 11
-175.2570708305575
 21
-48.23009026239197
 31
0.0
  0
LINE
  5
226
330
2F
100
AcDbEntity
  8
-15N-THT. THIẾT BỊ ĐÓNG MỞ
100
AcDbLine
 10
-177.4019895978267
 20
-48.26127427068058
 30
0.0
 11
-177.3541118428102
 21
-48.17941040856749
 31
0.0
  0
LINE
  5
227
330
2F
100
AcDbEntity
  8
-15N-THT. THIẾT BỊ ĐÓNG MỞ
100
AcDbLine
 10
-177.3541118428102
 20
-48.17941040856749
 30
0.0
 11
-177.3250022726138
 21
-48.09056805548244
 31
0.0
  0
LINE
  5
228
330
2F
100
AcDbEntity
  8
-15N-THT. THIẾT BỊ ĐÓNG MỞ
100
AcDbLine
 10
-177.3250022726138
 20
-48.09056805548244
 30
0.0
 11
-177.3151534427884
 21
-47.99593878298219
 31
0.0
  0
LINE
  5
229
330
2F
100
AcDbEntity
  8
-15N-THT. THIẾT BỊ ĐÓNG MỞ
100
AcDbLine
 10
-172.2314527896223
 20
-141.6225157483968
 30
0.0
 11
-172.2321739178146
 21
-140.9796530199201
 31
0.0
  0
LINE
  5
22A
330
2F
100
AcDbEntity
  8
-15N-THT. THIẾT BỊ ĐÓNG MỞ
100
AcDbLine
 10
-172.2321739178146
 20
-140.9796530199201
 30
0.0
 11
-172.2342895078477
 21
-140.3787309399013
 31
0.0
  0
LINE
  5
22B
330
2F
100
AcDbEntity
  8
-15N-THT. THIẾT BỊ ĐÓNG MỞ
100
AcDbLine
 10
-172.2342895078477
 20
-140.3787309399013
 30
0.0
 11
-172.2376751857805
 21
-139.8589450190138
 31
0.0
  0
LINE
  5
22C
330
2F
100
AcDbEntity
  8
-15N-THT. THIẾT BỊ ĐÓNG MỞ
100
AcDbLine
 10
-172.2376751857805
 20
-139.8589450190138
 30
0.0
 11
-172.2421031007548
 21
-139.4540587936899
 31
0.0
  0
LINE
  5
22D
330
2F
100
AcDbEntity
  8
-15N-THT. THIẾT BỊ ĐÓNG MỞ
100
AcDbLine
 10
-172.2421031007548
 20
-139.4540587936899
 30
0.0
 11
-172.2472652248102
 21
-139.1904200992685
 31
0.0
  0
LINE
  5
22E
330
2F
100
AcDbEntity
  8
-15N-THT. THIẾT BỊ ĐÓNG MỞ
100
AcDbLine
 10
-172.2472652248102
 20
-139.1904200992685
 30
0.0
 11
-172.2528432584367
 21
-139.0852887381861
 31
0.0
  0
LINE
  5
22F
330
2F
100
AcDbEntity
  8
-15N-THT. THIẾT BỊ ĐÓNG MỞ
100
AcDbLine
 10
-174.1343730478543
 20
-141.6225157483968
 30
0.0
 11
-174.1350863706325
 21
-141.4627895984995
 31
0.0
  0
LINE
  5
230
330
2F
100
AcDbEntity
  8
-15N-THT. THIẾT BỊ ĐÓNG MỞ
100
AcDbLine
 10
-174.1350863706325
 20
-141.4627895984995
 30
0.0
 11
-174.1372041208674
 21
-141.3121434398017
 31
0.0
  0
LINE
  5
231
330
2F
100
AcDbEntity
  8
-15N-THT. THIẾT BỊ ĐÓNG MỞ
100
AcDbLine
 10
-174.1372041208674
 20
-141.3121434398017
 30
0.0
 11
-174.1405946747391
 21
-141.1815888163055
 31
0.0
  0
LINE
  5
232
330
2F
100
AcDbEntity
  8
-15N-THT. THIẾT BỊ ĐÓNG MỞ
100
AcDbLine
 10
-174.1405946747391
 20
-141.1815888163055
 30
0.0
 11
-174.145030307583
 21
-141.0800685214017
 31
0.0
  0
LINE
  5
233
330
2F
100
AcDbEntity
  8
-15N-THT. THIẾT BỊ ĐÓNG MỞ
100
AcDbLine
 10
-174.145030307583
 20
-141.0800685214017
 30
0.0
 11
-174.1502116858023
 21
-141.0142190039005
 31
0.0
  0
LINE
  5
234
330
2F
100
AcDbEntity
  8
-15N-THT. THIẾT BỊ ĐÓNG MỞ
100
AcDbLine
 10
-174.1502116858023
 20
-141.0142190039005
 30
0.0
 11
-174.1557635175991
 21
-140.9882089958937
 31
0.0
  0
LINE
  5
235
330
2F
100
AcDbEntity
  8
-15N-THT. THIẾT BỊ ĐÓNG MỞ
100
AcDbLine
 10
-177.5419670366677
 20
-62.69130279199089
 30
0.0
 11
-177.5587433697651
 21
-62.39930677881966
 31
0.0
  0
LINE
  5
236
330
2F
100
AcDbEntity
  8
-15N-THT. THIẾT BỊ ĐÓNG MỞ
100
AcDbLine
 10
-177.5587433697651
 20
-62.39930677881966
 30
0.0
 11
-177.6217934237784
 21
-62.07899809177252
 31
0.0
  0
LINE
  5
237
330
2F
100
AcDbEntity
  8
-15N-THT. THIẾT BỊ ĐÓNG MỞ
100
AcDbLine
 10
-177.6217934237784
 20
-62.07899809177252
 30
0.0
 11
-177.7577817649576
 21
-61.73761516299601
 31
0.0
  0
LINE
  5
238
330
2F
100
AcDbEntity
  8
-15N-THT. THIẾT BỊ ĐÓNG MỞ
100
AcDbLine
 10
-177.7577817649576
 20
-61.73761516299601
 30
0.0
 11
-177.99052573368
 21
-61.41135818900875
 31
0.0
  0
LINE
  5
239
330
2F
100
AcDbEntity
  8
-15N-THT. THIẾT BỊ ĐÓNG MỞ
100
AcDbLine
 10
-177.99052573368
 20
-61.41135818900875
 30
0.0
 11
-178.3111846568058
 21
-61.15276933228051
 31
0.0
  0
LINE
  5
23A
330
2F
100
AcDbEntity
  8
-15N-THT. THIẾT BỊ ĐÓNG MỞ
100
AcDbLine
 10
-178.3111846568058
 20
-61.15276933228051
 30
0.0
 11
-178.6734905578196
 21
-60.99120842629964
 31
0.0
  0
LINE
  5
23B
330
2F
100
AcDbEntity
  8
-15N-THT. THIẾT BỊ ĐÓNG MỞ
100
AcDbLine
 10
-178.6734905578196
 20
-60.99120842629964
 30
0.0
 11
-179.0215983758676
 21
-60.91581631029476
 31
0.0
  0
LINE
  5
23C
330
2F
100
AcDbEntity
  8
-15N-THT. THIẾT BỊ ĐÓNG MỞ
100
AcDbLine
 10
-179.0215983758676
 20
-60.91581631029476
 30
0.0
 11
-179.3371510384595
 21
-60.89611879016956
 31
0.0
  0
LINE
  5
23D
330
2F
100
AcDbEntity
  8
-15N-THT. THIẾT BỊ ĐÓNG MỞ
100
AcDbLine
 10
-180.6030538287
 20
-65.35701503240487
 30
0.0
 11
-180.7097415635353
 21
-64.82058341369884
 31
0.0
  0
LINE
  5
23E
330
2F
100
AcDbEntity
  8
-15N-THT. THIẾT BỊ ĐÓNG MỞ
100
AcDbLine
 10
-180.7097415635353
 20
-64.82058341369884
 30
0.0
 11
-181.0135634588077
 21
-64.36579970310777
 31
0.0
  0
LINE
  5
23F
330
2F
100
AcDbEntity
  8
-15N-THT. THIẾT BỊ ĐÓNG MỞ
100
AcDbLine
 10
-181.0135634588077
 20
-64.36579970310777
 30
0.0
 11
-181.4684327649888
 21
-64.06181154632395
 31
0.0
  0
LINE
  5
240
330
2F
100
AcDbEntity
  8
-15N-THT. THIẾT BỊ ĐÓNG MỞ
100
AcDbLine
 10
-181.4684327649888
 20
-64.06181154632395
 30
0.0
 11
-182.0049278587107
 21
-63.95506627228678
 31
0.0
  0
LINE
  5
241
330
2F
100
AcDbEntity
  8
-15N-THT. THIẾT BỊ ĐÓNG MỞ
100
AcDbLine
 10
-182.0049278587107
 20
-63.95506627228678
 30
0.0
 11
-182.541504845954
 21
-64.06178220081529
 31
0.0
  0
LINE
  5
242
330
2F
100
AcDbEntity
  8
-15N-THT. THIẾT BỊ ĐÓNG MỞ
100
AcDbLine
 10
-182.541504845954
 20
-64.06178220081529
 30
0.0
 11
-182.9963574167341
 21
-64.36571211498449
 31
0.0
  0
LINE
  5
243
330
2F
100
AcDbEntity
  8
-15N-THT. THIẾT BỊ ĐÓNG MỞ
100
AcDbLine
 10
-182.9963574167341
 20
-64.36571211498449
 30
0.0
 11
-183.3002537977882
 21
-64.82055180761017
 31
0.0
  0
LINE
  5
244
330
2F
100
AcDbEntity
  8
-15N-THT. THIẾT BỊ ĐÓNG MỞ
100
AcDbLine
 10
-175.7956989235244
 20
-138.1259648467767
 30
0.0
 11
-176.0187194328755
 21
-138.1152216535065
 31
0.0
  0
LINE
  5
245
330
2F
100
AcDbEntity
  8
-15N-THT. THIẾT BỊ ĐÓNG MỞ
100
AcDbLine
 10
-176.0187194328755
 20
-138.1152216535065
 30
0.0
 11
-176.2641935325223
 21
-138.0754180244075
 31
0.0
  0
LINE
  5
246
330
2F
100
AcDbEntity
  8
-15N-THT. THIẾT BỊ ĐÓNG MỞ
100
AcDbLine
 10
-176.2641935325223
 20
-138.0754180244075
 30
0.0
 11
-176.5311450348231
 21
-137.9899773203033
 31
0.0
  0
LINE
  5
247
330
2F
100
AcDbEntity
  8
-15N-THT. THIẾT BỊ ĐÓNG MỞ
100
AcDbLine
 10
-176.5311450348231
 20
-137.9899773203033
 30
0.0
 11
-176.8085529818195
 21
-137.8341997837069
 31
0.0
  0
LINE
  5
248
330
2F
100
AcDbEntity
  8
-15N-THT. THIẾT BỊ ĐÓNG MỞ
100
AcDbLine
 10
-176.8085529818195
 20
-137.8341997837069
 30
0.0
 11
-177.0663507324634
 21
-137.5772105377946
 31
0.0
  0
LINE
  5
249
330
2F
100
AcDbEntity
  8
-15N-THT. THIẾT BỊ ĐÓNG MỞ
100
AcDbLine
 10
-177.0663507324634
 20
-137.5772105377946
 30
0.0
 11
-177.2494248035368
 21
-137.2125511794838
 31
0.0
  0
LINE
  5
24A
330
2F
100
AcDbEntity
  8
-15N-THT. THIẾT BỊ ĐÓNG MỞ
100
AcDbLine
 10
-177.2494248035368
 20
-137.2125511794838
 30
0.0
 11
-177.3151534427884
 21
-136.7617623106871
 31
0.0
  0
LINE
  5
24B
330
2F
100
AcDbEntity
  8
-15N-THT. THIẾT BỊ ĐÓNG MỞ
100
AcDbLine
 10
-180.7197154560121
 20
-66.41929483759668
 30
0.0
 11
-180.7244879300706
 21
-66.45670570490802
 31
0.0
  0
LINE
  5
24C
330
2F
100
AcDbEntity
  8
-15N-THT. THIẾT BỊ ĐÓNG MỞ
100
AcDbLine
 10
-180.7244879300706
 20
-66.45670570490802
 30
0.0
 11
-180.7289072936391
 21
-66.56632276068194
 31
0.0
  0
LINE
  5
24D
330
2F
100
AcDbEntity
  8
-15N-THT. THIẾT BỊ ĐÓNG MỞ
100
AcDbLine
 10
-180.7289072936391
 20
-66.56632276068194
 30
0.0
 11
-180.7326476625167
 21
-66.74003299389369
 31
0.0
  0
LINE
  5
24E
330
2F
100
AcDbEntity
  8
-15N-THT. THIẾT BỊ ĐÓNG MỞ
100
AcDbLine
 10
-184.0429033827963
 20
-74.81845717940632
 30
0.0
 11
-184.0010114167812
 21
-74.4293790410702
 31
0.0
  0
LINE
  5
24F
330
2F
100
AcDbEntity
  8
-15N-THT. THIẾT BỊ ĐÓNG MỞ
100
AcDbLine
 10
-184.0010114167812
 20
-74.4293790410702
 30
0.0
 11
-183.8754492648872
 21
-74.09299759589703
 31
0.0
  0
LINE
  5
250
330
2F
100
AcDbEntity
  8
-15N-THT. THIẾT BỊ ĐÓNG MỞ
100
AcDbLine
 10
-183.8754492648872
 20
-74.09299759589703
 30
0.0
 11
-183.6765425135372
 21
-73.8273651442687
 31
0.0
  0
LINE
  5
251
330
2F
100
AcDbEntity
  8
-15N-THT. THIẾT BỊ ĐÓNG MỞ
100
AcDbLine
 10
-183.6765425135372
 20
-73.8273651442687
 30
0.0
 11
-183.4100787574421
 21
-73.63338242901591
 31
0.0
  0
LINE
  5
252
330
2F
100
AcDbEntity
  8
-15N-THT. THIẾT BỊ ĐÓNG MỞ
100
AcDbLine
 10
-183.4100787574421
 20
-73.63338242901591
 30
0.0
 11
-183.0783843137323
 21
-73.51214419581447
 31
0.0
  0
LINE
  5
253
330
2F
100
AcDbEntity
  8
-15N-THT. THIẾT BỊ ĐÓNG MỞ
100
AcDbLine
 10
-183.0783843137323
 20
-73.51214419581447
 30
0.0
 11
-182.6965153818028
 21
-73.47206917812218
 31
0.0
  0
LINE
  5
254
330
2F
100
AcDbEntity
  8
-15N-THT. THIẾT BỊ ĐÓNG MỞ
100
AcDbLine
 10
-183.3398921526968
 20
-68.44269182331846
 30
0.0
 11
-183.3500251956284
 21
-68.59899763049543
 31
0.0
  0
LINE
  5
255
330
2F
100
AcDbEntity
  8
-15N-THT. THIẾT BỊ ĐÓNG MỞ
100
AcDbLine
 10
-183.3500251956284
 20
-68.59899763049543
 30
0.0
 11
-183.3586307759387
 21
-68.94302608188809
 31
0.0
  0
LINE
  5
256
330
2F
100
AcDbEntity
  8
-15N-THT. THIẾT BỊ ĐÓNG MỞ
100
AcDbLine
 10
-177.3151534427884
 20
162.7449973956991
 30
0.0
 11
-177.3144251597114
 21
162.7948852526042
 31
0.0
  0
LINE
  5
257
330
2F
100
AcDbEntity
  8
-15N-THT. THIẾT BỊ ĐÓNG MỞ
100
AcDbLine
 10
-177.3144251597114
 20
162.7948852526042
 30
0.0
 11
-177.3121329396963
 21
162.8459198281944
 31
0.0
  0
LINE
  5
258
330
2F
100
AcDbEntity
  8
-15N-THT. THIẾT BỊ ĐÓNG MỞ
100
AcDbLine
 10
-180.7541907886043
 20
-69.2087370002937
 30
0.0
 11
-180.7522443849593
 21
-68.65121657339841
 31
0.0
  0
LINE
  5
259
330
2F
100
AcDbEntity
  8
-15N-THT. THIẾT BỊ ĐÓNG MỞ
100
AcDbLine
 10
-180.7522443849593
 20
-68.65121657339841
 30
0.0
 11
-180.7442798716947
 21
-67.6304181235846
 31
0.0
  0
LINE
  5
25A
330
2F
100
AcDbEntity
  8
-15N-THT. THIẾT BỊ ĐÓNG MỞ
100
AcDbLine
 10
-180.7442798716947
 20
-67.6304181235846
 30
0.0
 11
-180.7326476625167
 21
-66.74003299389369
 31
0.0
  0
LINE
  5
25B
330
2F
100
AcDbEntity
  8
-15N-THT. THIẾT BỊ ĐÓNG MỞ
100
AcDbLine
 10
-180.8627397250375
 20
157.7698805681157
 30
0.0
 11
-180.8600799827836
 21
155.2449590687774
 31
0.0
  0
LINE
  5
25C
330
2F
100
AcDbEntity
  8
-15N-THT. THIẾT BỊ ĐÓNG MỞ
100
AcDbLine
 10
-180.8600799827836
 20
155.2449590687774
 30
0.0
 11
-180.8597447900106
 21
152.6909784569016
 31
0.0
  0
LINE
  5
25D
330
2F
100
AcDbEntity
  8
-15N-THT. THIẾT BỊ ĐÓNG MỞ
100
AcDbLine
 10
-183.2579041034914
 20
-68.14956475980216
 30
0.0
 11
-183.2646981799044
 21
-67.3809752890902
 31
0.0
  0
LINE
  5
25E
330
2F
100
AcDbEntity
  8
-15N-THT. THIẾT BỊ ĐÓNG MỞ
100
AcDbLine
 10
-183.2646981799044
 20
-67.3809752890902
 30
0.0
 11
-183.2789956387123
 21
-66.44342758928178
 31
0.0
  0
LINE
  5
25F
330
2F
100
AcDbEntity
  8
-15N-THT. THIẾT BỊ ĐÓNG MỞ
100
AcDbLine
 10
-180.7334764967668
 20
-70.18068480101101
 30
0.0
 11
-180.7364036217323
 21
-70.07935792087846
 31
0.0
  0
LINE
  5
260
330
2F
100
AcDbEntity
  8
-15N-THT. THIẾT BỊ ĐÓNG MỞ
100
AcDbLine
 10
-180.7364036217323
 20
-70.07935792087846
 30
0.0
 11
-180.7474693674589
 21
-69.96372179971877
 31
0.0
  0
LINE
  5
261
330
2F
100
AcDbEntity
  8
-15N-THT. THIẾT BỊ ĐÓNG MỞ
100
AcDbLine
 10
-180.7474693674589
 20
-69.96372179971877
 30
0.0
 11
-180.7711569014936
 21
-69.8323138360829
 31
0.0
  0
LINE
  5
262
330
2F
100
AcDbEntity
  8
-15N-THT. THIẾT BỊ ĐÓNG MỞ
100
AcDbLine
 10
-180.7711569014936
 20
-69.8323138360829
 30
0.0
 11
-180.8136440827506
 21
-69.6844784067016
 31
0.0
  0
LINE
  5
263
330
2F
100
AcDbEntity
  8
-15N-THT. THIẾT BỊ ĐÓNG MỞ
100
AcDbLine
 10
-180.8136440827506
 20
-69.6844784067016
 30
0.0
 11
-180.8826787709254
 21
-69.52205156150194
 31
0.0
  0
LINE
  5
264
330
2F
100
AcDbEntity
  8
-15N-THT. THIẾT BỊ ĐÓNG MỞ
100
AcDbLine
 10
-180.8826787709254
 20
-69.52205156150194
 30
0.0
 11
-180.9898899625986
 21
-69.34630471228957
 31
0.0
  0
LINE
  5
265
330
2F
100
AcDbEntity
  8
-15N-THT. THIẾT BỊ ĐÓNG MỞ
100
AcDbLine
 10
-180.9898899625986
 20
-69.34630471228957
 30
0.0
 11
-181.1451453934428
 21
-69.16927904696422
 31
0.0
  0
LINE
  5
266
330
2F
100
AcDbEntity
  8
-15N-THT. THIẾT BỊ ĐÓNG MỞ
100
AcDbLine
 10
-181.1451453934428
 20
-69.16927904696422
 30
0.0
 11
-181.3357774927272
 21
-69.02076134498566
 31
0.0
  0
LINE
  5
267
330
2F
100
AcDbEntity
  8
-15N-THT. THIẾT BỊ ĐÓNG MỞ
100
AcDbLine
 10
-181.3357774927272
 20
-69.02076134498566
 30
0.0
 11
-181.5466164946556
 21
-68.9134726755965
 31
0.0
  0
LINE
  5
268
330
2F
100
AcDbEntity
  8
-15N-THT. THIẾT BỊ ĐÓNG MỞ
100
AcDbLine
 10
-181.5466164946556
 20
-68.9134726755965
 30
0.0
 11
-181.7714252648875
 21
-68.8484268006232
 31
0.0
  0
LINE
  5
269
330
2F
100
AcDbEntity
  8
-15N-THT. THIẾT BỊ ĐÓNG MỞ
100
AcDbLine
 10
-181.7714252648875
 20
-68.8484268006232
 30
0.0
 11
-182.0028632786125
 21
-68.8266722344797
 31
0.0
  0
LINE
  5
26A
330
2F
100
AcDbEntity
  8
-15N-THT. THIẾT BỊ ĐÓNG MỞ
100
AcDbLine
 10
-183.3279126766133
 20
-68.53260344368391
 30
0.0
 11
-183.3294345666654
 21
-68.4926722294731
 31
0.0
  0
LINE
  5
26B
330
2F
100
AcDbEntity
  8
-15N-THT. THIẾT BỊ ĐÓNG MỞ
100
AcDbLine
 10
-183.3294345666654
 20
-68.4926722294731
 30
0.0
 11
-183.3371681999415
 21
-68.43599115989673
 31
0.0
  0
LINE
  5
26C
330
2F
100
AcDbEntity
  8
-15N-THT. THIẾT BỊ ĐÓNG MỞ
100
AcDbLine
 10
-179.6000496484334
 20
-63.40299740279078
 30
0.0
 11
-179.6106282346882
 21
-63.28931276607545
 31
0.0
  0
LINE
  5
26D
330
2F
100
AcDbEntity
  8
-15N-THT. THIẾT BỊ ĐÓNG MỞ
100
AcDbLine
 10
-179.6106282346882
 20
-63.28931276607545
 30
0.0
 11
-179.6481493934989
 21
-63.17600248549751
 31
0.0
  0
LINE
  5
26E
330
2F
100
AcDbEntity
  8
-15N-THT. THIẾT BỊ ĐÓNG MỞ
100
AcDbLine
 10
-179.6481493934989
 20
-63.17600248549751
 30
0.0
 11
-179.7186521785334
 21
-63.07612359471022
 31
0.0
  0
LINE
  5
26F
330
2F
100
AcDbEntity
  8
-15N-THT. THIẾT BỊ ĐÓNG MỞ
100
AcDbLine
 10
-179.7186521785334
 20
-63.07612359471022
 30
0.0
 11
-179.8180173737923
 21
-63.00422583042745
 31
0.0
  0
LINE
  5
270
330
2F
100
AcDbEntity
  8
-15N-THT. THIẾT BỊ ĐÓNG MỞ
100
AcDbLine
 10
-179.8180173737923
 20
-63.00422583042745
 30
0.0
 11
-179.9325609174557
 21
-62.9652994535827
 31
0.0
  0
LINE
  5
271
330
2F
100
AcDbEntity
  8
-15N-THT. THIẾT BỊ ĐÓNG MỞ
100
AcDbLine
 10
-179.9325609174557
 20
-62.9652994535827
 30
0.0
 11
-180.0488456487656
 21
-62.95420140240094
 31
0.0
  0
LINE
  5
272
330
2F
100
AcDbEntity
  8
-15N-THT. THIẾT BỊ ĐÓNG MỞ
100
AcDbLine
 10
-177.3151534427884
 20
-92.36543081979652
 30
0.0
 11
-177.324923374691
 21
-92.27117408837694
 31
0.0
  0
LINE
  5
273
330
2F
100
AcDbEntity
  8
-15N-THT. THIẾT BỊ ĐÓNG MỞ
100
AcDbLine
 10
-177.324923374691
 20
-92.27117408837694
 30
0.0
 11
-177.3539561969223
 21
-92.18230578157274
 31
0.0
  0
LINE
  5
274
330
2F
100
AcDbEntity
  8
-15N-THT. THIẾT BỊ ĐÓNG MỞ
100
AcDbLine
 10
-177.3539561969223
 20
-92.18230578157274
 30
0.0
 11
-177.4019895978267
 21
-92.10009533198354
 31
0.0
  0
LINE
  5
275
330
2F
100
AcDbEntity
  8
-15N-THT. THIẾT BỊ ĐÓNG MỞ
100
AcDbLine
 10
-175.2570708305575
 20
-92.13127933998112
 30
0.0
 11
-175.2982446216042
 21
-91.74545876791854
 31
0.0
  0
LINE
  5
276
330
2F
100
AcDbEntity
  8
-15N-THT. THIẾT BỊ ĐÓNG MỞ
100
AcDbLine
 10
-175.2982446216042
 20
-91.74545876791854
 30
0.0
 11
-175.4141778456974
 21
-91.39455406760317
 31
0.0
  0
LINE
  5
277
330
2F
100
AcDbEntity
  8
-15N-THT. THIẾT BỊ ĐÓNG MỞ
100
AcDbLine
 10
-175.4141778456974
 20
-91.39455406760317
 30
0.0
 11
-175.6111307046376
 21
-91.06083697798931
 31
0.0
  0
LINE
  5
278
330
2F
100
AcDbEntity
  8
-15N-THT. THIẾT BỊ ĐÓNG MỞ
100
AcDbLine
 10
-172.5463896049186
 20
-138.3884404381042
 30
0.0
 11
-173.2003694758741
 21
-138.195036393121
 31
0.0
  0
LINE
  5
279
330
2F
100
AcDbEntity
  8
-15N-THT. THIẾT BỊ ĐÓNG MỞ
100
AcDbLine
 10
-173.2003694758741
 20
-138.195036393121
 30
0.0
 11
-173.8106498406264
 21
-138.0965663208881
 31
0.0
  0
LINE
  5
27A
330
2F
100
AcDbEntity
  8
-15N-THT. THIẾT BỊ ĐÓNG MỞ
100
AcDbLine
 10
-173.8106498406264
 20
-138.0965663208881
 30
0.0
 11
-174.3734766775746
 21
-138.0630985280968
 31
0.0
  0
LINE
  5
27B
330
2F
100
AcDbEntity
  8
-15N-THT. THIẾT BỊ ĐÓNG MỞ
100
AcDbLine
 10
-174.3734766775746
 20
-138.0630985280968
 30
0.0
 11
-174.8881096555842
 21
-138.0767422101889
 31
0.0
  0
LINE
  5
27C
330
2F
100
AcDbEntity
  8
-15N-THT. THIẾT BỊ ĐÓNG MỞ
100
AcDbLine
 10
-174.8881096555842
 20
-138.0767422101889
 30
0.0
 11
-175.3549969168384
 21
-138.1259911779143
 31
0.0
  0
LINE
  5
27D
330
2F
100
AcDbEntity
  8
-15N-THT. THIẾT BỊ ĐÓNG MỞ
100
AcDbLine
 10
-177.3121329396963
 20
162.8459198281944
 30
0.0
 11
-177.2176288734194
 21
163.3862835883046
 31
0.0
  0
LINE
  5
27E
330
2F
100
AcDbEntity
  8
-15N-THT. THIẾT BỊ ĐÓNG MỞ
100
AcDbLine
 10
-177.2176288734194
 20
163.3862835883046
 30
0.0
 11
-177.0292269559572
 21
163.9193115219259
 31
0.0
  0
LINE
  5
27F
330
2F
100
AcDbEntity
  8
-15N-THT. THIẾT BỊ ĐÓNG MỞ
100
AcDbLine
 10
-177.0292269559572
 20
163.9193115219259
 30
0.0
 11
-176.7803349676533
 21
164.3691839656112
 31
0.0
  0
LINE
  5
280
330
2F
100
AcDbEntity
  8
-15N-THT. THIẾT BỊ ĐÓNG MỞ
100
AcDbLine
 10
-176.1546628307546
 20
162.211226437621
 30
0.0
 11
-175.9364166627647
 21
162.6246387134033
 31
0.0
  0
LINE
  5
281
330
2F
100
AcDbEntity
  8
-15N-THT. THIẾT BỊ ĐÓNG MỞ
100
AcDbLine
 10
-175.9364166627647
 20
162.6246387134033
 30
0.0
 11
-175.6224791100248
 21
162.9798185090185
 31
0.0
  0
LINE
  5
282
330
2F
100
AcDbEntity
  8
-15N-THT. THIẾT BỊ ĐÓNG MỞ
100
AcDbLine
 10
-175.6224791100248
 20
162.9798185090185
 30
0.0
 11
-175.2570708305575
 21
163.2267358626141
 31
0.0
  0
LINE
  5
283
330
2F
100
AcDbEntity
  8
-15N-THT. THIẾT BỊ ĐÓNG MỞ
100
AcDbLine
 10
-189.9999999999995
 20
-148.2479718444774
 30
0.0
 11
-189.9999999999995
 21
164.7500000000018
 31
0.0
  0
LINE
  5
284
330
2F
100
AcDbEntity
  8
--8N-THT. FIXING HOLE
100
AcDbLine
 10
2.0
 20
-137.2500000000564
 30
0.0
 11
-2.0
 21
-137.2500000000564
 31
0.0
  0
LINE
  5
285
330
2F
100
AcDbEntity
  8
--8N-THT. FIXING HOLE
100
AcDbLine
 10
2.0
 20
157.7499999999436
 30
0.0
 11
-2.0
 21
157.7499999999436
 31
0.0
  0
MTEXT
  5
286
330
2F
100
AcDbEntity
  8
-15N-THT. THIẾT BỊ ĐÓNG MỞ
 62
3
100
AcDbMText
 10
-108.4232105290211
 20
-20.0
 30
0.0
 40
6.4
 41
37.98914491708723
 46
0.0
 71
5
 72
5
  1
ATV212HD15~18N4
  7
- 04.0
  0
LINE
  5
287
330
2F
100
AcDbEntity
  8
-15N-THT. THIẾT BỊ ĐÓNG MỞ
  6
DASHED
 62
6
100
AcDbLine
 10
0.0
 20
0.0
 30
0.0
 11
-189.9999999999995
 21
1.819e-12
 31
0.0
  0
LINE
  5
288
330
2F
100
AcDbEntity
  8
-15N-THT. THIẾT BỊ ĐÓNG MỞ
  6
DASHED
 62
6
100
AcDbLine
 10
-95.0
 20
-164.7499999999982
 30
0.0
 11
-95.0
 21
164.7500000000018
 31
0.0
  0
ENDBLK
  5
31
330
2F
100
AcDbEntity
  8
0
100
AcDbBlockEnd
  0
ENDSEC
  0
SECTION
  2
ENTITIES
  0
INSERT
  5
28D
330
17
100
AcDbEntity
  8
0
100
AcDbBlockReference
  2
06 - N - SC VSD CHIẾU HÔNG ATV212HD15~18N4
 10
189.9999999999995
 20
164.7499999999982
 30
0.0
  0
ENDSEC
  0
SECTION
  2
OBJECTS
  0
DICTIONARY
  5
A
330
0
100
AcDbDictionary
281
1
  3
ACAD_COLOR
350
B
  3
ACAD_GROUP
350
C
  3
ACAD_LAYOUT
350
D
  3
ACAD_MATERIAL
350
E
  3
ACAD_MLEADERSTYLE
350
F
  3
ACAD_MLINESTYLE
350
10
  3
ACAD_PLOTSETTINGS
350
11
  3
ACAD_PLOTSTYLENAME
350
12
  3
ACAD_SCALELIST
350
14
  3
ACAD_TABLESTYLE
350
15
  3
ACAD_VISUALSTYLE
350
16
  3
EZDXF_META
350
2D
  0
DICTIONARY
  5
B
330
A
100
AcDbDictionary
281
1
  0
DICTIONARY
  5
C
330
A
100
AcDbDictionary
281
1
  0
DICTIONARY
  5
D
330
A
100
AcDbDictionary
281
1
  3
Model
350
1A
  3
Layout1
350
1E
  0
DICTIONARY
  5
E
330
A
100
AcDbDictionary
281
1
  3
ByBlock
350
1F
  3
ByLayer
350
20
  3
Global
350
21
  0
DICTIONARY
  5
F
330
A
100
AcDbDictionary
281
1
  3
Standard
350
2C
  0
DICTIONARY
  5
10
330
A
100
AcDbDictionary
281
1
  3
Standard
350
22
  0
DICTIONARY
  5
11
330
A
100
AcDbDictionary
281
1
  0
ACDBDICTIONARYWDFLT
  5
12
330
A
100
AcDbDictionary
281
1
  3
Normal
350
13
100
AcDbDictionaryWithDefault
340
13
  0
ACDBPLACEHOLDER
  5
13
330
12
  0
DICTIONARY
  5
14
330
A
100
AcDbDictionary
281
1
  0
DICTIONARY
  5
15
330
A
100
AcDbDictionary
281
1
  0
DICTIONARY
  5
16
330
A
100
AcDbDictionary
281
1
  0
LAYOUT
  5
1A
330
D
100
AcDbPlotSettings
  1

  4
A3
  6

 40
7.5
 41
20.0
 42
7.5
 43
20.0
 44
420.0
 45
297.0
 46
0.0
 47
0.0
 48
0.0
 49
0.0
140
0.0
141
0.0
142
1.0
143
1.0
 70
1024
 72
1
 73
0
 74
5
  7

 75
16
 76
0
 77
2
 78
300
147
1.0
148
0.0
149
0.0
100
AcDbLayout
  1
Model
 70
1
 71
0
 10
0.0
 20
0.0
 11
420.0
 21
297.0
 12
0.0
 22
0.0
 32
0.0
 14
1e+20
 24
1e+20
 34
1e+20
 15
-1e+20
 25
-1e+20
 35
-1e+20
146
0.0
 13
0.0
 23
0.0
 33
0.0
 16
1.0
 26
0.0
 36
0.0
 17
0.0
 27
1.0
 37
0.0
 76
1
330
17
  0
LAYOUT
  5
1E
330
D
100
AcDbPlotSettings
  1

  4
A3
  6

 40
7.5
 41
20.0
 42
7.5
 43
20.0
 44
420.0
 45
297.0
 46
0.0
 47
0.0
 48
0.0
 49
0.0
140
0.0
141
0.0
142
1.0
143
1.0
 70
0
 72
1
 73
0
 74
5
  7

 75
16
 76
0
 77
2
 78
300
147
1.0
148
0.0
149
0.0
100
AcDbLayout
  1
Layout1
 70
1
 71
1
 10
0.0
 20
0.0
 11
420.0
 21
297.0
 12
0.0
 22
0.0
 32
0.0
 14
1e+20
 24
1e+20
 34
1e+20
 15
-1e+20
 25
-1e+20
 35
-1e+20
146
0.0
 13
0.0
 23
0.0
 33
0.0
 16
1.0
 26
0.0
 36
0.0
 17
0.0
 27
1.0
 37
0.0
 76
1
330
1B
  0
MATERIAL
  5
1F
102
{ACAD_REACTORS
330
E
102
}
330
E
100
AcDbMaterial
  1
ByBlock
  2

 70
0
 40
1.0
 71
1
 41
1.0
 91
-1023410177
 42
1.0
 72
1
  3

 73
1
 74
1
 75
1
 44
0.5
 73
0
 45
1.0
 46
1.0
 77
1
  4

 78
1
 79
1
170
1
 48
1.0
171
1
  6

172
1
173
1
174
1
140
1.0
141
1.0
175
1
  7

176
1
177
1
178
1
143
1.0
179
1
  8

270
1
271
1
272
1
145
1.0
146
1.0
273
1
  9

274
1
275
1
276
1
 42
1.0
 72
1
  3

 73
1
 74
1
 75
1
 94
63
  0
MATERIAL
  5
20
102
{ACAD_REACTORS
330
E
102
}
330
E
100
AcDbMaterial
  1
ByLayer
  2

 70
0
 40
1.0
 71
1
 41
1.0
 91
-1023410177
 42
1.0
 72
1
  3

 73
1
 74
1
 75
1
 44
0.5
 73
0
 45
1.0
 46
1.0
 77
1
  4

 78
1
 79
1
170
1
 48
1.0
171
1
  6

172
1
173
1
174
1
140
1.0
141
1.0
175
1
  7

176
1
177
1
178
1
143
1.0
179
1
  8

270
1
271
1
272
1
145
1.0
146
1.0
273
1
  9

274
1
275
1
276
1
 42
1.0
 72
1
  3

 73
1
 74
1
 75
1
 94
63
  0
MATERIAL
  5
21
102
{ACAD_REACTORS
330
E
102
}
330
E
100
AcDbMaterial
  1
Global
  2

 70
0
 40
1.0
 71
1
 41
1.0
 91
-1023410177
 42
1.0
 72
1
  3

 73
1
 74
1
 75
1
 44
0.5
 73
0
 45
1.0
 46
1.0
 77
1
  4

 78
1
 79
1
170
1
 48
1.0
171
1
  6

172
1
173
1
174
1
140
1.0
141
1.0
175
1
  7

176
1
177
1
178
1
143
1.0
179
1
  8

270
1
271
1
272
1
145
1.0
146
1.0
273
1
  9

274
1
275
1
276
1
 42
1.0
 72
1
  3

 73
1
 74
1
 75
1
 94
63
  0
MLINESTYLE
  5
22
102
{ACAD_REACTORS
330
10
102
}
330
10
100
AcDbMlineStyle
  2
Standard
 70
0
  3

 62
256
 51
90.0
 52
90.0
 71
2
 49
0.5
 62
256
  6
BYLAYER
 49
-0.5
 62
256
  6
BYLAYER
  0
MLEADERSTYLE
  5
2C
102
{ACAD_REACTORS
330
F
102
}
330
F
100
AcDbMLeaderStyle
179
2
170
2
171
1
172
0
 90
2
 40
0.0
 41
0.0
173
1
 91
-1056964608
 92
-2
290
1
 42
2.0
291
1
 43
8.0
  3
Standard
 44
4.0
300

342
29
174
1
175
1
176
0
178
1
 93
-1056964608
 45
4.0
292
0
297
0
 46
4.0
 94
-1056964608
 47
1.0
 49
1.0
140
1.0
294
1
141
0.0
177
0
142
1.0
295
0
296
0
143
3.75
271
0
272
9
273
9
  0
DICTIONARY
  5
2D
330
A
100
AcDbDictionary
280
1
281
1
  3
CREATED_BY_EZDXF
350
2E
  3
WRITTEN_BY_EZDXF
350
291
  0
DICTIONARYVAR
  5
2E
330
2D
100
DictionaryVariables
280
0
  1
1.4.4 @ 2026-09-23T12:54:21.646404+00:00
  0
DICTIONARYVAR
  5
291
330
2D
100
DictionaryVariables
280
0
  1
1.4.4 @ 2026-09-23T12:54:21.731556+00:00
  0
ENDSEC
  0
EOF
