  0
SECTION
  2
HEADER
  9
$ACADVER
  1
AC1032
  9
$ACADMAINTVER
 90
4
  9
$DWGCODEPAGE
  3
ANSI_1252
  9
$LASTSAVEDBY
  1
ezdxf
  9
$REQUIREDVERSIONS
160
0
  9
$INSBASE
 10
0.0
 20
0.0
 30
0.0
  9
$EXTMIN
 10
1e+20
 20
1e+20
 30
1e+20
  9
$EXTMAX
 10
-1e+20
 20
-1e+20
 30
-1e+20
  9
$LIMMIN
 10
0.0
 20
0.0
  9
$LIMMAX
 10
420.0
 20
297.0
  9
$ORTHOMODE
 70
0
  9
$REGENMODE
 70
1
  9
$FILLMODE
 70
1
  9
$QTEXTMODE
 70
0
  9
$MIRRTEXT
 70
1
  9
$LTSCALE
 40
1.0
  9
$ATTMODE
 70
1
  9
$TEXTSIZE
 40
2.5
  9
$TRACEWID
 40
1.0
  9
$TEXTSTYLE
  7
Standard
  9
$CLAYER
  8
0
  9
$CELTYPE
  6
ByLayer
  9
$CECOLOR
 62
256
  9
$CELTSCALE
 40
1.0
  9
$DISPSILH
 70
0
  9
$DIMSCALE
 40
1.0
  9
$DIMASZ
 40
2.5
  9
$DIMEXO
 40
0.625
  9
$DIMDLI
 40
3.75
  9
$DIMRND
 40
0.0
  9
$DIMDLE
 40
0.0
  9
$DIMEXE
 40
1.25
  9
$DIMTP
 40
0.0
  9
$DIMTM
 40
0.0
  9
$DIMTXT
 40
2.5
  9
$DIMCEN
 40
2.5
  9
$DIMTSZ
 40
0.0
  9
$DIMTOL
 70
0
  9
$DIMLIM
 70
0
  9
$DIMTIH
 70
0
  9
$DIMTOH
 70
0
  9
$DIMSE1
 70
0
  9
$DIMSE2
 70
0
  9
$DIMTAD
 70
1
  9
$DIMZIN
 70
8
  9
$DIMBLK
  1

  9
$DIMASO
 70
1
  9
$DIMSHO
 70
1
  9
$DIMPOST
  1

  9
$DIMAPOST
  1

  9
$DIMALT
 70
0
  9
$DIMALTD
 70
3
  9
$DIMALTF
 40
0.03937007874
  9
$DIMLFAC
 40
1.0
  9
$DIMTOFL
 70
1
  9
$DIMTVP
 40
0.0
  9
$DIMTIX
 70
0
  9
$DIMSOXD
 70
0
  9
$DIMSAH
 70
0
  9
$DIMBLK1
  1

  9
$DIMBLK2
  1

  9
$DIMSTYLE
  2
ISO-25
  9
$DIMCLRD
 70
0
  9
$DIMCLRE
 70
0
  9
$DIMCLRT
 70
0
  9
$DIMTFAC
 40
1.0
  9
$DIMGAP
 40
0.625
  9
$DIMJUST
 70
0
  9
$DIMSD1
 70
0
  9
$DIMSD2
 70
0
  9
$DIMTOLJ
 70
0
  9
$DIMTZIN
 70
8
  9
$DIMALTZ
 70
0
  9
$DIMALTTZ
 70
0
  9
$DIMUPT
 70
0
  9
$DIMDEC
 70
2
  9
$DIMTDEC
 70
2
  9
$DIMALTU
 70
2
  9
$DIMALTTD
 70
3
  9
$DIMTXSTY
  7
Standard
  9
$DIMAUNIT
 70
0
  9
$DIMADEC
 70
0
  9
$DIMALTRND
 40
0.0
  9
$DIMAZIN
 70
0
  9
$DIMDSEP
 70
44
  9
$DIMATFIT
 70
3
  9
$DIMFRAC
 70
0
  9
$DIMLDRBLK
  1

  9
$DIMLUNIT
 70
2
  9
$DIMLWD
 70
-2
  9
$DIMLWE
 70
-2
  9
$DIMTMOVE
 70
0
  9
$DIMFXL
 40
1.0
  9
$DIMFXLON
 70
0
  9
$DIMJOGANG
 40
0.785398163397
  9
$DIMTFILL
 70
0
  9
$DIMTFILLCLR
 70
0
  9
$DIMARCSYM
 70
0
  9
$DIMLTYPE
  6

  9
$DIMLTEX1
  6

  9
$DIMLTEX2
  6

  9
$DIMTXTDIRECTION
 70
0
  9
$LUNITS
 70
2
  9
$LUPREC
 70
4
  9
$SKETCHINC
 40
1.0
  9
$FILLETRAD
 40
10.0
  9
$AUNITS
 70
0
  9
$AUPREC
 70
2
  9
$MENU
  1
.
  9
$ELEVATION
 40
0.0
  9
$PELEVATION
 40
0.0
  9
$THICKNESS
 40
0.0
  9
$LIMCHECK
 70
0
  9
$CHAMFERA
 40
0.0
  9
$CHAMFERB
 40
0.0
  9
$CHAMFERC
 40
0.0
  9
$CHAMFERD
 40
0.0
  9
$SKPOLY
 70
0
  9
$TDCREATE
 40
2461307.829976852
  9
$TDUCREATE
 40
2458532.153996898
  9
$TDUPDATE
 40
2461307.829988426
  9
$TDUUPDATE
 40
2458532.1544311
  9
$TDINDWG
 40
0.0
  9
$TDUSRTIMER
 40
0.0
  9
$USRTIMER
 70
1
  9
$ANGBASE
 50
0.0
  9
$ANGDIR
 70
0
  9
$PDMODE
 70
0
  9
$PDSIZE
 40
0.0
  9
$PLINEWID
 40
0.0
  9
$SPLFRAME
 70
0
  9
$SPLINETYPE
 70
6
  9
$SPLINESEGS
 70
8
  9
$HANDSEED
  5
120
  9
$SURFTAB1
 70
6
  9
$SURFTAB2
 70
6
  9
$SURFTYPE
 70
6
  9
$SURFU
 70
6
  9
$SURFV
 70
6
  9
$UCSBASE
  2

  9
$UCSNAME
  2

  9
$UCSORG
 10
0.0
 20
0.0
 30
0.0
  9
$UCSXDIR
 10
1.0
 20
0.0
 30
0.0
  9
$UCSYDIR
 10
0.0
 20
1.0
 30
0.0
  9
$UCSORTHOREF
  2

  9
$UCSORTHOVIEW
 70
0
  9
$UCSORGTOP
 10
0.0
 20
0.0
 30
0.0
  9
$UCSORGBOTTOM
 10
0.0
 20
0.0
 30
0.0
  9
$UCSORGLEFT
 10
0.0
 20
0.0
 30
0.0
  9
$UCSORGRIGHT
 10
0.0
 20
0.0
 30
0.0
  9
$UCSORGFRONT
 10
0.0
 20
0.0
 30
0.0
  9
$UCSORGBACK
 10
0.0
 20
0.0
 30
0.0
  9
$PUCSBASE
  2

  9
$PUCSNAME
  2

  9
$PUCSORG
 10
0.0
 20
0.0
 30
0.0
  9
$PUCSXDIR
 10
1.0
 20
0.0
 30
0.0
  9
$PUCSYDIR
 10
0.0
 20
1.0
 30
0.0
  9
$PUCSORTHOREF
  2

  9
$PUCSORTHOVIEW
 70
0
  9
$PUCSORGTOP
 10
0.0
 20
0.0
 30
0.0
  9
$PUCSORGBOTTOM
 10
0.0
 20
0.0
 30
0.0
  9
$PUCSORGLEFT
 10
0.0
 20
0.0
 30
0.0
  9
$PUCSORGRIGHT
 10
0.0
 20
0.0
 30
0.0
  9
$PUCSORGFRONT
 10
0.0
 20
0.0
 30
0.0
  9
$PUCSORGBACK
 10
0.0
 20
0.0
 30
0.0
  9
$USERI1
 70
0
  9
$USERI2
 70
0
  9
$USERI3
 70
0
  9
$USERI4
 70
0
  9
$USERI5
 70
0
  9
$USERR1
 40
0.0
  9
$USERR2
 40
0.0
  9
$USERR3
 40
0.0
  9
$USERR4
 40
0.0
  9
$USERR5
 40
0.0
  9
$WORLDVIEW
 70
1
  9
$SHADEDGE
 70
3
  9
$SHADEDIF
 70
70
  9
$TILEMODE
 70
1
  9
$MAXACTVP
 70
64
  9
$PINSBASE
 10
0.0
 20
0.0
 30
0.0
  9
$PLIMCHECK
 70
0
  9
$PEXTMIN
 10
1e+20
 20
1e+20
 30
1e+20
  9
$PEXTMAX
 10
-1e+20
 20
-1e+20
 30
-1e+20
  9
$PLIMMIN
 10
0.0
 20
0.0
  9
$PLIMMAX
 10
420.0
 20
297.0
  9
$UNITMODE
 70
0
  9
$VISRETAIN
 70
1
  9
$PLINEGEN
 70
0
  9
$PSLTSCALE
 70
1
  9
$TREEDEPTH
 70
3020
  9
$CMLSTYLE
  2
Standard
  9
$CMLJUST
 70
0
  9
$CMLSCALE
 40
20.0
  9
$PROXYGRAPHICS
 70
1
  9
$MEASUREMENT
 70
1
  9
$CELWEIGHT
370
-1
  9
$ENDCAPS
280
0
  9
$JOINSTYLE
280
0
  9
$LWDISPLAY
290
0
  9
$INSUNITS
 70
0
  9
$HYPERLINKBASE
  1

  9
$STYLESHEET
  1

  9
$XEDIT
290
1
  9
$CEPSNTYPE
380
0
  9
$PSTYLEMODE
290
1
  9
$FINGERPRINTGUID
  2
{06561B04-AD50-46CE-A1B4-6E64A58229EA}
  9
$VERSIONGUID
  2
{AB35AB25-C282-4C33-AEB0-BF89CD24F6AF}
  9
$EXTNAMES
290
1
  9
$PSVPSCALE
 40
0.0
  9
$OLESTARTUP
290
0
  9
$SORTENTS
280
127
  9
$INDEXCTL
280
0
  9
$HIDETEXT
280
1
  9
$XCLIPFRAME
280
1
  9
$HALOGAP
280
0
  9
$OBSCOLOR
 70
257
  9
$OBSLTYPE
280
0
  9
$INTERSECTIONDISPLAY
280
0
  9
$INTERSECTIONCOLOR
 70
257
  9
$DIMASSOC
280
2
  9
$PROJECTNAME
  1

  9
$CAMERADISPLAY
290
0
  9
$LENSLENGTH
 40
50.0
  9
$CAMERAHEIGHT
 40
0.0
  9
$STEPSPERSEC
 40
24.0
  9
$STEPSIZE
 40
100.0
  9
$3DDWFPREC
 40
2.0
  9
$PSOLWIDTH
 40
0.005
  9
$PSOLHEIGHT
 40
0.08
  9
$LOFTANG1
 40
1.570796326795
  9
$LOFTANG2
 40
1.570796326795
  9
$LOFTMAG1
 40
0.0
  9
$LOFTMAG2
 40
0.0
  9
$LOFTPARAM
 70
7
  9
$LOFTNORMALS
280
1
  9
$LATITUDE
 40
37.795
  9
$LONGITUDE
 40
-122.394
  9
$NORTHDIRECTION
 40
0.0
  9
$TIMEZONE
 70
-8000
  9
$LIGHTGLYPHDISPLAY
280
1
  9
$TILEMODELIGHTSYNCH
280
1
  9
$CMATERIAL
347
20
  9
$SOLIDHIST
280
0
  9
$SHOWHIST
280
1
  9
$DWFFRAME
280
2
  9
$DGNFRAME
280
2
  9
$REALWORLDSCALE
290
1
  9
$INTERFERECOLOR
 62
256
  9
$CSHADOW
280
0
  9
$SHADOWPLANELOCATION
 40
0.0
  0
ENDSEC
  0
SECTION
  2
CLASSES
  0
CLASS
  1
ACDBDICTIONARYWDFLT
  2
AcDbDictionaryWithDefault
  3
ObjectDBX Classes
 90
0
 91
0
280
0
281
0
  0
CLASS
  1
SUN
  2
AcDbSun
  3
SCENEOE
 90
1153
 91
0
280
0
281
0
  0
CLASS
  1
VISUALSTYLE
  2
AcDbVisualStyle
  3
ObjectDBX Classes
 90
4095
 91
0
280
0
281
0
  0
CLASS
  1
MATERIAL
  2
AcDbMaterial
  3
ObjectDBX Classes
 90
1153
 91
0
280
0
281
0
  0
CLASS
  1
SCALE
  2
AcDbScale
  3
ObjectDBX Classes
 90
1153
 91
0
280
0
281
0
  0
CLASS
  1
TABLESTYLE
  2
AcDbTableStyle
  3
ObjectDBX Classes
 90
4095
 91
0
280
0
281
0
  0
CLASS
  1
MLEADERSTYLE
  2
AcDbMLeaderStyle
  3
ACDB_MLEADERSTYLE_CLASS
 90
4095
 91
0
280
0
281
0
  0
CLASS
  1
DICTIONARYVAR
  2
AcDbDictionaryVar
  3
ObjectDBX Classes
 90
0
 91
0
280
0
281
0
  0
CLASS
  1
CELLSTYLEMAP
  2
AcDbCellStyleMap
  3
ObjectDBX Classes
 90
1152
 91
0
280
0
281
0
  0
CLASS
  1
MENTALRAYRENDERSETTINGS
  2
AcDbMentalRayRenderSettings
  3
SCENEOE
 90
1024
 91
0
280
0
281
0
  0
CLASS
  1
ACDBDETAILVIEWSTYLE
  2
AcDbDetailViewStyle
  3
ObjectDBX Classes
 90
1025
 91
0
280
0
281
0
  0
CLASS
  1
ACDBSECTIONVIEWSTYLE
  2
AcDbSectionViewStyle
  3
ObjectDBX Classes
 90
1025
 91
0
280
0
281
0
  0
CLASS
  1
RASTERVARIABLES
  2
AcDbRasterVariables
  3
ISM
 90
0
 91
0
280
0
281
0
  0
CLASS
  1
LAYOUT
  2
AcDbLayout
  3
ObjectDBX Classes
 90
0
 91
0
280
0
281
0
  0
CLASS
  1
ACDBPLACEHOLDER
  2
AcDbPlaceHolder
  3
ObjectDBX Classes
 90
0
 91
0
280
0
281
0
  0
ENDSEC
  0
SECTION
  2
TABLES
  0
TABLE
  2
VPORT
  5
8
330
0
100
AcDbSymbolTable
 70
1
  0
VPORT
  5
23
330
8
100
AcDbSymbolTableRecord
100
AcDbViewportTableRecord
  2
*Active
 70
0
 10
0.0
 20
0.0
 11
1.0
 21
1.0
 12
0.0
 22
0.0
 13
0.0
 23
0.0
 14
0.5
 24
0.5
 15
0.5
 25
0.5
 16
0.0
 26
0.0
 36
1.0
 17
0.0
 27
0.0
 37
0.0
 40
1000.0
 41
1.34
 42
50.0
 43
0.0
 44
0.0
 50
0.0
 51
0.0
 71
0
 72
1000
 73
1
 74
3
 75
0
 76
0
 77
0
 78
0
281
0
 65
0
146
0.0
  0
ENDTAB
  0
TABLE
  2
LTYPE
  5
2
330
0
100
AcDbSymbolTable
 70
3
  0
LTYPE
  5
24
330
2
100
AcDbSymbolTableRecord
100
AcDbLinetypeTableRecord
  2
ByBlock
 70
0
  3

 72
65
 73
0
 40
0.0
  0
LTYPE
  5
25
330
2
100
AcDbSymbolTableRecord
100
AcDbLinetypeTableRecord
  2
ByLayer
 70
0
  3

 72
65
 73
0
 40
0.0
  0
LTYPE
  5
26
330
2
100
AcDbSymbolTableRecord
100
AcDbLinetypeTableRecord
  2
Continuous
 70
0
  3

 72
65
 73
0
 40
0.0
  0
ENDTAB
  0
TABLE
  2
LAYER
  5
1
330
0
100
AcDbSymbolTable
 70
2
  0
LAYER
  5
27
330
1
100
AcDbSymbolTableRecord
100
AcDbLayerTableRecord
  2
0
 70
0
 62
7
  6
Continuous
370
-3
390
13
347
21
  0
LAYER
  5
28
330
1
100
AcDbSymbolTableRecord
100
AcDbLayerTableRecord
  2
Defpoints
 70
0
 62
7
  6
Continuous
290
0
370
-3
390
13
347
21
  0
ENDTAB
  0
TABLE
  2
STYLE
  5
5
330
0
100
AcDbSymbolTable
 70
1
  0
STYLE
  5
29
330
5
100
AcDbSymbolTableRecord
100
AcDbTextStyleTableRecord
  2
Standard
 70
0
 40
0.0
 41
1.0
 50
0.0
 71
0
 42
2.5
  3
txt
  4

  0
ENDTAB
  0
TABLE
  2
VIEW
  5
7
330
0
100
AcDbSymbolTable
 70
0
  0
ENDTAB
  0
TABLE
  2
UCS
  5
6
330
0
100
AcDbSymbolTable
 70
0
  0
ENDTAB
  0
TABLE
  2
APPID
  5
3
330
0
100
AcDbSymbolTable
 70
3
  0
APPID
  5
2A
330
3
100
AcDbSymbolTableRecord
100
AcDbRegAppTableRecord
  2
ACAD
 70
0
  0
APPID
  5
11D
330
3
100
AcDbSymbolTableRecord
100
AcDbRegAppTableRecord
  2
HATCHBACKGROUNDCOLOR
 70
0
  0
APPID
  5
11E
330
3
100
AcDbSymbolTableRecord
100
AcDbRegAppTableRecord
  2
EZDXF
 70
0
  0
ENDTAB
  0
TABLE
  2
DIMSTYLE
  5
4
330
0
100
AcDbSymbolTable
 70
1
100
AcDbDimStyleTable
  0
DIMSTYLE
105
2B
330
4
100
AcDbSymbolTableRecord
100
AcDbDimStyleTableRecord
  2
Standard
 70
0
 40
1.0
 41
2.5
 42
0.625
 43
3.75
 44
1.25
 45
0.0
 46
0.0
 47
0.0
 48
0.0
 49
2.5
140
2.5
141
2.5
142
0.0
143
0.03937007874
144
1.0
145
0.0
146
1.0
147
0.625
148
0.0
 69
0
 70
0
 71
0
 72
0
 73
0
 74
0
 75
0
 76
0
 77
1
 78
8
 79
3
170
0
171
3
172
1
173
0
174
0
175
0
176
0
177
0
178
0
179
2
271
2
272
2
273
2
274
3
275
0
276
0
277
2
278
44
279
0
280
0
281
0
282
0
283
0
284
8
285
0
286
0
288
0
289
3
290
0
371
-2
372
-2
  0
ENDTAB
  0
TABLE
  2
BLOCK_RECORD
  5
9
330
0
100
AcDbSymbolTable
 70
3
  0
BLOCK_RECORD
  5
17
330
9
100
AcDbSymbolTableRecord
100
AcDbBlockTableRecord
  2
*Model_Space
340
1A
 70
0
280
1
281
0
  0
BLOCK_RECORD
  5
1B
330
9
100
AcDbSymbolTableRecord
100
AcDbBlockTableRecord
  2
*Paper_Space
340
1E
 70
0
280
1
281
0
  0
BLOCK_RECORD
  5
2F
330
9
100
AcDbSymbolTableRecord
100
AcDbBlockTableRecord
  2
NS-1
340
0
 70
0
280
1
281
0
  0
ENDTAB
  0
ENDSEC
  0
SECTION
  2
BLOCKS
  0
BLOCK
  5
18
330
17
100
AcDbEntity
  8
0
100
AcDbBlockBegin
  2
*Model_Space
 70
0
 10
0.0
 20
0.0
 30
0.0
  3
*Model_Space
  1

  0
ENDBLK
  5
19
330
17
100
AcDbEntity
  8
0
100
AcDbBlockEnd
  0
BLOCK
  5
1C
330
1B
100
AcDbEntity
  8
0
100
AcDbBlockBegin
  2
*Paper_Space
 70
0
 10
0.0
 20
0.0
 30
0.0
  3
*Paper_Space
  1

  0
ENDBLK
  5
1D
330
1B
100
AcDbEntity
  8
0
100
AcDbBlockEnd
  0
BLOCK
  5
30
330
2F
100
AcDbEntity
  8
0
100
AcDbBlockBegin
  2
NS-1
 70
0
 10
0.0
 20
0.0
 30
0.0
  3
NS-1
  1

  0
LWPOLYLINE
  5
32
330
2F
100
AcDbEntity
  8
0
100
AcDbPolyline
 90
23
 70
128
 10
-24973.81560648565
 20
27787.54349080351
 10
-24983.5409807473
 20
27787.54349080351
 10
-24984.14881663866
 20
27787.54349080351
 10
-24984.14881663866
 20
27565.43310509258
 10
-24975.63911415972
 20
27565.43310509258
 10
-24971.99209881159
 20
27563.60959741853
 10
-24926.97648779904
 20
27563.60959741853
 10
-24923.32947245091
 20
27565.43310509258
 10
-24905.09439571032
 20
27565.43310509258
 10
-24902.05521625355
 20
27563.60959741853
 10
-24900.23170857949
 20
27563.60959741853
 10
-24903.87872392761
 20
27566.04094098394
 10
-24901.4473803622
 20
27564.82526920123
 10
-24899.01603679678
 20
27564.82526920123
 10
-24902.66305214491
 20
27566.04094098394
 10
-24900.83954447084
 20
27566.04094098394
 10
-24899.01603679678
 20
27564.82526920123
 10
-24899.62387268814
 20
27563.60959741853
 10
-24900.23170857949
 20
27563.60959741853
 10
-24901.4473803622
 20
27564.82526920123
 10
-24902.66305214491
 20
27566.04094098394
 10
-24903.87872392761
 20
27566.04094098394
 10
-24905.09439571032
 20
27565.43310509258
  0
LWPOLYLINE
  5
33
330
2F
100
AcDbEntity
  8
0
100
AcDbPolyline
 90
9
 70
128
 10
-24783.45570733482
 20
27565.43310509258
 10
-24787.10272268294
 20
27563.60959741853
 10
-24832.11833369551
 20
27563.60959741853
 10
-24835.15751315227
 20
27565.43310509258
 10
-24853.39258989287
 20
27565.43310509258
 10
-24854.60826167558
 20
27566.04094098394
 10
-24858.25527702369
 20
27563.60959741853
 10
-24857.03960524098
 20
27563.60959741853
 10
-24853.39258989287
 20
27565.43310509258
  0
LWPOLYLINE
  5
34
330
2F
100
AcDbEntity
  8
0
100
AcDbPolyline
 90
2
 70
128
 10
-24775.55384074723
 20
27787.54349080351
 10
-24784.67137911753
 20
27787.54349080351
  0
LWPOLYLINE
  5
35
330
2F
100
AcDbEntity
  8
0
100
AcDbPolyline
 90
2
 70
129
 10
-24784.67137911753
 20
27579.44908564614
 10
-24784.67137911753
 20
27570.29579222341
  0
LWPOLYLINE
  5
36
330
2F
100
AcDbEntity
  8
0
100
AcDbPolyline
 90
12
 70
129
 10
-24782.24003555212
 20
27575.19423440667
 10
-24782.84787144347
 20
27576.40990618937
 10
-24782.24003555212
 20
27577.62557797208
 10
-24781.63219966076
 20
27578.84124975479
 10
-24779.80869198671
 20
27579.44908564614
 10
-24778.593020204
 20
27578.84124975479
 10
-24777.37734842129
 20
27577.62557797208
 10
-24777.37734842129
 20
27576.40990618937
 10
-24777.37734842129
 20
27575.19423440667
 10
-24778.593020204
 20
27573.97856262396
 10
-24779.80869198671
 20
27573.37072673261
 10
-24781.63219966076
 20
27573.97856262396
  0
LWPOLYLINE
  5
37
330
2F
100
AcDbEntity
  8
0
100
AcDbPolyline
 90
3
 70
128
 10
-24775.55384074723
 20
27588.56662401643
 10
-24775.55384074723
 20
27570.29579222341
 10
-24784.67137911753
 20
27570.29579222341
  0
LWPOLYLINE
  5
38
330
2F
100
AcDbEntity
  8
0
100
AcDbPolyline
 90
2
 70
129
 10
-24973.81560648565
 20
27570.29579222341
 10
-24983.5409807473
 20
27570.29579222341
  0
LWPOLYLINE
  5
39
330
2F
100
AcDbEntity
  8
0
100
AcDbPolyline
 90
2
 70
128
 10
-24983.5409807473
 20
27566.64877687529
 10
-24973.81560648565
 20
27566.64877687529
  0
LWPOLYLINE
  5
3A
330
2F
100
AcDbEntity
  8
0
100
AcDbPolyline
 90
2
 70
128
 10
-24784.67137911753
 20
27566.64877687529
 10
-24775.55384074723
 20
27566.64877687529
  0
LWPOLYLINE
  5
3B
330
2F
100
AcDbEntity
  8
0
100
AcDbPolyline
 90
2
 70
129
 10
-24973.81560648565
 20
27782.68080367268
 10
-24983.5409807473
 20
27782.68080367268
  0
LWPOLYLINE
  5
3C
330
2F
100
AcDbEntity
  8
0
100
AcDbPolyline
 90
12
 70
129
 10
-24981.10963718189
 20
27741.92004389959
 10
-24981.10963718189
 20
27742.52787979094
 10
-24980.50180129053
 20
27743.1357156823
 10
-24979.28612950783
 20
27743.1357156823
 10
-24978.67829361648
 20
27743.1357156823
 10
-24978.07045772512
 20
27742.52787979094
 10
-24978.07045772512
 20
27741.92004389959
 10
-24978.07045772512
 20
27740.70437211688
 10
-24978.67829361648
 20
27740.09653622553
 10
-24979.28612950783
 20
27740.09653622553
 10
-24980.50180129053
 20
27740.09653622553
 10
-24981.10963718189
 20
27740.70437211688
  0
LWPOLYLINE
  5
3D
330
2F
100
AcDbEntity
  8
0
100
AcDbPolyline
 90
12
 70
129
 10
-24979.28612950783
 20
27601.33117773485
 10
-24980.50180129053
 20
27601.33117773485
 10
-24981.10963718189
 20
27601.93901362621
 10
-24981.10963718189
 20
27603.15468540891
 10
-24981.10963718189
 20
27603.76252130027
 10
-24980.50180129053
 20
27604.40611224405
 10
-24979.28612950783
 20
27604.40611224405
 10
-24978.67829361648
 20
27604.40611224405
 10
-24978.07045772512
 20
27603.76252130027
 10
-24978.07045772512
 20
27603.15468540891
 10
-24978.07045772512
 20
27601.93901362621
 10
-24978.67829361648
 20
27601.33117773485
  0
LWPOLYLINE
  5
3E
330
2F
100
AcDbEntity
  8
0
100
AcDbPolyline
 90
12
 70
129
 10
-24781.02436376941
 20
27603.15468540891
 10
-24781.02436376941
 20
27603.76252130027
 10
-24780.41652787806
 20
27604.40611224405
 10
-24779.20085609535
 20
27604.40611224405
 10
-24778.593020204
 20
27604.40611224405
 10
-24777.98518431264
 20
27603.76252130027
 10
-24777.98518431264
 20
27603.15468540891
 10
-24777.98518431264
 20
27601.93901362621
 10
-24778.593020204
 20
27601.33117773485
 10
-24779.20085609535
 20
27601.33117773485
 10
-24780.41652787806
 20
27601.33117773485
 10
-24781.02436376941
 20
27601.93901362621
  0
LWPOLYLINE
  5
3F
330
2F
100
AcDbEntity
  8
0
100
AcDbPolyline
 90
12
 70
129
 10
-24781.02436376941
 20
27741.92004389959
 10
-24781.02436376941
 20
27742.52787979094
 10
-24780.41652787806
 20
27743.1357156823
 10
-24779.20085609535
 20
27743.1357156823
 10
-24778.593020204
 20
27743.1357156823
 10
-24777.98518431264
 20
27742.52787979094
 10
-24777.98518431264
 20
27741.92004389959
 10
-24777.98518431264
 20
27740.70437211688
 10
-24778.593020204
 20
27740.09653622553
 10
-24779.20085609535
 20
27740.09653622553
 10
-24780.41652787806
 20
27740.09653622553
 10
-24781.02436376941
 20
27740.70437211688
  0
LWPOLYLINE
  5
40
330
2F
100
AcDbEntity
  8
0
100
AcDbPolyline
 90
2
 70
128
 10
-24983.5409807473
 20
27764.40997187965
 10
-24983.5409807473
 20
27782.68080367268
  0
LWPOLYLINE
  5
41
330
2F
100
AcDbEntity
  8
0
100
AcDbPolyline
 90
2
 70
128
 10
-24983.5409807473
 20
27570.29579222341
 10
-24983.5409807473
 20
27588.56662401643
  0
LWPOLYLINE
  5
42
330
2F
100
AcDbEntity
  8
0
100
AcDbPolyline
 90
3
 70
128
 10
-24984.14881663866
 20
27565.43310509258
 10
-24983.5409807473
 20
27566.64877687529
 10
-24983.5409807473
 20
27570.29579222341
  0
LWPOLYLINE
  5
43
330
2F
100
AcDbEntity
  8
0
100
AcDbPolyline
 90
2
 70
128
 10
-24983.5409807473
 20
27782.68080367268
 10
-24983.5409807473
 20
27787.54349080351
  0
LWPOLYLINE
  5
44
330
2F
100
AcDbEntity
  8
0
100
AcDbPolyline
 90
12
 70
129
 10
-24981.10963718189
 20
27575.19423440667
 10
-24981.71747307325
 20
27576.40990618937
 10
-24981.10963718189
 20
27577.62557797208
 10
-24980.50180129053
 20
27578.84124975479
 10
-24978.67829361648
 20
27579.44908564614
 10
-24977.46262183377
 20
27578.84124975479
 10
-24976.24695005106
 20
27577.62557797208
 10
-24976.24695005106
 20
27576.40990618937
 10
-24976.24695005106
 20
27575.19423440667
 10
-24977.46262183377
 20
27573.97856262396
 10
-24978.67829361648
 20
27573.37072673261
 10
-24980.50180129053
 20
27573.97856262396
  0
LWPOLYLINE
  5
45
330
2F
100
AcDbEntity
  8
0
100
AcDbPolyline
 90
12
 70
129
 10
-24977.46262183377
 20
27573.97856262396
 10
-24978.67829361648
 20
27573.37072673261
 10
-24980.50180129053
 20
27573.97856262396
 10
-24981.10963718189
 20
27575.19423440667
 10
-24981.71747307325
 20
27576.40990618937
 10
-24981.10963718189
 20
27577.62557797208
 10
-24980.50180129053
 20
27578.84124975479
 10
-24978.67829361648
 20
27579.44908564614
 10
-24977.46262183377
 20
27578.84124975479
 10
-24976.24695005106
 20
27577.62557797208
 10
-24976.24695005106
 20
27576.40990618937
 10
-24976.24695005106
 20
27575.19423440667
  0
LWPOLYLINE
  5
46
330
2F
100
AcDbEntity
  8
0
100
AcDbPolyline
 90
4
 70
128
 10
-24975.63911415972
 20
27565.43310509258
 10
-24973.81560648565
 20
27566.04094098394
 10
-24973.2077705943
 20
27566.04094098394
 10
-24970.77642702889
 20
27566.04094098394
  0
LWPOLYLINE
  5
47
330
2F
100
AcDbEntity
  8
0
100
AcDbPolyline
 90
15
 70
128
 10
-24968.34508346347
 20
27563.60959741853
 10
-24969.56075524618
 20
27563.60959741853
 10
-24971.38426292024
 20
27564.82526920123
 10
-24968.95291935483
 20
27564.82526920123
 10
-24973.2077705943
 20
27566.04094098394
 10
-24971.38426292024
 20
27564.82526920123
 10
-24970.77642702889
 20
27563.60959741853
 10
-24969.56075524618
 20
27563.60959741853
 10
-24968.95291935483
 20
27564.82526920123
 10
-24970.77642702889
 20
27566.04094098394
 10
-24967.12941168077
 20
27566.04094098394
 10
-24963.44664128022
 20
27566.04094098394
 10
-24935.48619027797
 20
27566.04094098394
 10
-24931.83917492985
 20
27566.04094098394
 10
-24928.19215958173
 20
27566.04094098394
  0
LWPOLYLINE
  5
48
330
2F
100
AcDbEntity
  8
0
100
AcDbPolyline
 90
6
 70
128
 10
-24900.83954447084
 20
27566.04094098394
 10
-24897.19252912272
 20
27566.04094098394
 10
-24893.54551377461
 20
27566.04094098394
 10
-24865.54930771993
 20
27566.04094098394
 10
-24861.29445648046
 20
27566.04094098394
 10
-24858.25527702369
 20
27566.04094098394
  0
LWPOLYLINE
  5
49
330
2F
100
AcDbEntity
  8
0
100
AcDbPolyline
 90
6
 70
128
 10
-24830.9026619128
 20
27566.04094098394
 10
-24827.25564656468
 20
27566.04094098394
 10
-24823.60863121656
 20
27566.04094098394
 10
-24795.61242516189
 20
27566.04094098394
 10
-24791.96540981376
 20
27566.04094098394
 10
-24788.31839446565
 20
27566.04094098394
  0
LWPOLYLINE
  5
4A
330
2F
100
AcDbEntity
  8
0
100
AcDbPolyline
 90
8
 70
128
 10
-24835.15751315227
 20
27565.43310509258
 10
-24833.94184136956
 20
27566.04094098394
 10
-24833.33400547822
 20
27566.04094098394
 10
-24830.9026619128
 20
27566.04094098394
 10
-24829.68699013009
 20
27564.82526920123
 10
-24833.33400547822
 20
27566.04094098394
 10
-24832.11833369551
 20
27564.82526920123
 10
-24829.68699013009
 20
27564.82526920123
  0
LWPOLYLINE
  5
4B
330
2F
100
AcDbEntity
  8
0
100
AcDbPolyline
 90
4
 70
128
 10
-24923.32947245091
 20
27565.43310509258
 10
-24925.15298012497
 20
27566.04094098394
 10
-24928.19215958173
 20
27563.60959741853
 10
-24926.97648779904
 20
27563.60959741853
  0
LWPOLYLINE
  5
4C
330
2F
100
AcDbEntity
  8
0
100
AcDbPolyline
 90
14
 70
128
 10
-24925.76081601632
 20
27566.04094098394
 10
-24928.19215958173
 20
27566.04094098394
 10
-24929.40783136444
 20
27564.82526920123
 10
-24925.76081601632
 20
27566.04094098394
 10
-24926.97648779904
 20
27564.82526920123
 10
-24929.40783136444
 20
27564.82526920123
 10
-24928.79999547309
 20
27563.60959741853
 10
-24926.97648779904
 20
27564.82526920123
 10
-24925.76081601632
 20
27566.04094098394
 10
-24925.15298012497
 20
27566.04094098394
 10
-24926.97648779904
 20
27564.82526920123
 10
-24928.19215958173
 20
27563.60959741853
 10
-24928.79999547309
 20
27563.60959741853
 10
-24930.62350314715
 20
27563.60959741853
  0
LWPOLYLINE
  5
4D
330
2F
100
AcDbEntity
  8
0
100
AcDbPolyline
 90
3
 70
129
 10
-24933.05484671256
 20
27564.21743330988
 10
-24929.40783136444
 20
27564.82526920123
 10
-24930.62350314715
 20
27563.60959741853
  0
LWPOLYLINE
  5
4E
330
2F
100
AcDbEntity
  8
0
100
AcDbPolyline
 90
4
 70
128
 10
-24933.05484671256
 20
27564.21743330988
 10
-24935.48619027797
 20
27564.21743330988
 10
-24963.44664128022
 20
27564.21743330988
 10
-24965.87798484563
 20
27564.21743330988
  0
LWPOLYLINE
  5
4F
330
2F
100
AcDbEntity
  8
0
100
AcDbPolyline
 90
4
 70
128
 10
-24971.99209881159
 20
27563.60959741853
 10
-24970.77642702889
 20
27563.60959741853
 10
-24973.81560648565
 20
27566.04094098394
 10
-24971.38426292024
 20
27564.82526920123
  0
LWPOLYLINE
  5
50
330
2F
100
AcDbEntity
  8
0
100
AcDbPolyline
 90
4
 70
129
 10
-24968.34508346347
 20
27563.60959741853
 10
-24968.95291935483
 20
27564.82526920123
 10
-24965.87798484563
 20
27564.21743330988
 10
-24968.34508346347
 20
27563.60959741853
  0
LWPOLYLINE
  5
51
330
2F
100
AcDbEntity
  8
0
100
AcDbPolyline
 90
11
 70
128
 10
-24967.12941168077
 20
27566.04094098394
 10
-24968.95291935483
 20
27564.82526920123
 10
-24965.27014895427
 20
27564.82526920123
 10
-24965.87798484563
 20
27564.21743330988
 10
-24964.66231306293
 20
27564.82526920123
 10
-24963.44664128022
 20
27566.04094098394
 10
-24963.44664128022
 20
27564.21743330988
 10
-24964.66231306293
 20
27564.82526920123
 10
-24965.27014895427
 20
27564.82526920123
 10
-24967.12941168077
 20
27566.04094098394
 10
-24964.66231306293
 20
27564.82526920123
  0
LWPOLYLINE
  5
52
330
2F
100
AcDbEntity
  8
0
100
AcDbPolyline
 90
5
 70
128
 10
-24933.05484671256
 20
27564.21743330988
 10
-24933.05484671256
 20
27564.82526920123
 10
-24935.48619027797
 20
27564.21743330988
 10
-24935.48619027797
 20
27566.04094098394
 10
-24933.05484671256
 20
27564.82526920123
  0
LWPOLYLINE
  5
53
330
2F
100
AcDbEntity
  8
0
100
AcDbPolyline
 90
3
 70
129
 10
-24931.83917492985
 20
27566.04094098394
 10
-24929.40783136444
 20
27564.82526920123
 10
-24933.05484671256
 20
27564.82526920123
  0
LWPOLYLINE
  5
54
330
2F
100
AcDbEntity
  8
0
100
AcDbPolyline
 90
4
 70
128
 10
-24787.10272268294
 20
27563.60959741853
 10
-24788.31839446565
 20
27563.60959741853
 10
-24788.926230357
 20
27563.60959741853
 10
-24790.74973803106
 20
27563.60959741853
  0
LWPOLYLINE
  5
55
330
2F
100
AcDbEntity
  8
0
100
AcDbPolyline
 90
2
 70
128
 10
-24828.4713183474
 20
27563.60959741853
 10
-24829.68699013009
 20
27563.60959741853
  0
LWPOLYLINE
  5
56
330
2F
100
AcDbEntity
  8
0
100
AcDbPolyline
 90
21
 70
128
 10
-24784.67137911753
 20
27570.29579222341
 10
-24775.55384074723
 20
27570.29579222341
 10
-24775.55384074723
 20
27566.64877687529
 10
-24774.33816896453
 20
27565.43310509258
 10
-24783.45570733482
 20
27565.43310509258
 10
-24785.27921500888
 20
27566.04094098394
 10
-24788.31839446565
 20
27563.60959741853
 10
-24787.10272268294
 20
27564.82526920123
 10
-24785.27921500888
 20
27566.04094098394
 10
-24785.88705090023
 20
27566.04094098394
 10
-24788.31839446565
 20
27566.04094098394
 10
-24789.53406624835
 20
27564.82526920123
 10
-24790.74973803106
 20
27563.60959741853
 10
-24793.18108159648
 20
27564.21743330988
 10
-24795.61242516189
 20
27564.21743330988
 10
-24823.00079532521
 20
27564.21743330988
 10
-24826.03997478197
 20
27564.21743330988
 10
-24826.03997478197
 20
27564.82526920123
 10
-24827.25564656468
 20
27566.04094098394
 10
-24829.68699013009
 20
27564.82526920123
 10
-24829.68699013009
 20
27563.60959741853
  0
LWPOLYLINE
  5
57
330
2F
100
AcDbEntity
  8
0
100
AcDbPolyline
 90
5
 70
128
 10
-24832.11833369551
 20
27563.60959741853
 10
-24830.29482602145
 20
27563.60959741853
 10
-24833.94184136956
 20
27566.04094098394
 10
-24832.11833369551
 20
27564.82526920123
 10
-24833.33400547822
 20
27566.04094098394
  0
LWPOLYLINE
  5
58
330
2F
100
AcDbEntity
  8
0
100
AcDbPolyline
 90
3
 70
128
 10
-24829.68699013009
 20
27563.60959741853
 10
-24830.29482602145
 20
27563.60959741853
 10
-24832.11833369551
 20
27564.82526920123
  0
LWPOLYLINE
  5
59
330
2F
100
AcDbEntity
  8
0
100
AcDbPolyline
 90
2
 70
129
 10
-24832.11833369551
 20
27564.82526920123
 10
-24829.68699013009
 20
27563.60959741853
  0
LWPOLYLINE
  5
5A
330
2F
100
AcDbEntity
  8
0
100
AcDbPolyline
 90
3
 70
129
 10
-24829.68699013009
 20
27564.82526920123
 10
-24826.03997478197
 20
27564.21743330988
 10
-24828.4713183474
 20
27563.60959741853
  0
LWPOLYLINE
  5
5B
330
2F
100
AcDbEntity
  8
0
100
AcDbPolyline
 90
2
 70
128
 10
-24826.03997478197
 20
27564.82526920123
 10
-24829.68699013009
 20
27564.82526920123
  0
LWPOLYLINE
  5
5C
330
2F
100
AcDbEntity
  8
0
100
AcDbPolyline
 90
3
 70
129
 10
-24823.60863121656
 20
27566.04094098394
 10
-24823.00079532521
 20
27564.21743330988
 10
-24826.03997478197
 20
27564.82526920123
  0
LWPOLYLINE
  5
5D
330
2F
100
AcDbEntity
  8
0
100
AcDbPolyline
 90
6
 70
129
 10
-24793.78891748782
 20
27564.82526920123
 10
-24793.18108159648
 20
27564.82526920123
 10
-24793.18108159648
 20
27564.21743330988
 10
-24793.78891748782
 20
27564.82526920123
 10
-24795.61242516189
 20
27564.21743330988
 10
-24795.61242516189
 20
27566.04094098394
  0
LWPOLYLINE
  5
5E
330
2F
100
AcDbEntity
  8
0
100
AcDbPolyline
 90
2
 70
128
 10
-24793.78891748782
 20
27564.82526920123
 10
-24791.96540981376
 20
27566.04094098394
  0
LWPOLYLINE
  5
5F
330
2F
100
AcDbEntity
  8
0
100
AcDbPolyline
 90
4
 70
129
 10
-24788.926230357
 20
27563.60959741853
 10
-24789.53406624835
 20
27564.82526920123
 10
-24787.10272268294
 20
27564.82526920123
 10
-24788.926230357
 20
27563.60959741853
  0
LWPOLYLINE
  5
60
330
2F
100
AcDbEntity
  8
0
100
AcDbPolyline
 90
7
 70
128
 10
-24787.10272268294
 20
27564.82526920123
 10
-24785.88705090023
 20
27566.04094098394
 10
-24789.53406624835
 20
27564.82526920123
 10
-24791.96540981376
 20
27566.04094098394
 10
-24793.18108159648
 20
27564.82526920123
 10
-24789.53406624835
 20
27564.82526920123
 10
-24793.18108159648
 20
27564.21743330988
  0
LWPOLYLINE
  5
61
330
2F
100
AcDbEntity
  8
0
100
AcDbPolyline
 90
14
 70
128
 10
-24855.82393345828
 20
27566.04094098394
 10
-24858.25527702369
 20
27566.04094098394
 10
-24859.4709488064
 20
27564.82526920123
 10
-24855.82393345828
 20
27566.04094098394
 10
-24857.03960524098
 20
27564.82526920123
 10
-24859.4709488064
 20
27564.82526920123
 10
-24858.86311291505
 20
27563.60959741853
 10
-24857.03960524098
 20
27564.82526920123
 10
-24855.82393345828
 20
27566.04094098394
 10
-24854.60826167558
 20
27566.04094098394
 10
-24857.03960524098
 20
27564.82526920123
 10
-24858.25527702369
 20
27563.60959741853
 10
-24858.86311291505
 20
27563.60959741853
 10
-24860.6866205891
 20
27563.60959741853
  0
LWPOLYLINE
  5
62
330
2F
100
AcDbEntity
  8
0
100
AcDbPolyline
 90
3
 70
128
 10
-24898.40820090543
 20
27563.60959741853
 10
-24899.62387268814
 20
27563.60959741853
 10
-24901.4473803622
 20
27564.82526920123
  0
LWPOLYLINE
  5
63
330
2F
100
AcDbEntity
  8
0
100
AcDbPolyline
 90
3
 70
129
 10
-24863.11796415452
 20
27564.21743330988
 10
-24859.4709488064
 20
27564.82526920123
 10
-24860.6866205891
 20
27563.60959741853
  0
LWPOLYLINE
  5
64
330
2F
100
AcDbEntity
  8
0
100
AcDbPolyline
 90
4
 70
128
 10
-24863.11796415452
 20
27564.21743330988
 10
-24865.54930771993
 20
27564.21743330988
 10
-24893.54551377461
 20
27564.21743330988
 10
-24895.97685734002
 20
27564.21743330988
  0
LWPOLYLINE
  5
65
330
2F
100
AcDbEntity
  8
0
100
AcDbPolyline
 90
4
 70
129
 10
-24898.40820090543
 20
27563.60959741853
 10
-24899.01603679678
 20
27564.82526920123
 10
-24895.97685734002
 20
27564.21743330988
 10
-24898.40820090543
 20
27563.60959741853
  0
LWPOLYLINE
  5
66
330
2F
100
AcDbEntity
  8
0
100
AcDbPolyline
 90
11
 70
128
 10
-24897.19252912272
 20
27566.04094098394
 10
-24899.01603679678
 20
27564.82526920123
 10
-24895.36902144867
 20
27564.82526920123
 10
-24895.97685734002
 20
27564.21743330988
 10
-24894.76118555731
 20
27564.82526920123
 10
-24893.54551377461
 20
27566.04094098394
 10
-24893.54551377461
 20
27564.21743330988
 10
-24894.76118555731
 20
27564.82526920123
 10
-24895.36902144867
 20
27564.82526920123
 10
-24897.19252912272
 20
27566.04094098394
 10
-24894.76118555731
 20
27564.82526920123
  0
LWPOLYLINE
  5
67
330
2F
100
AcDbEntity
  8
0
100
AcDbPolyline
 90
5
 70
128
 10
-24863.11796415452
 20
27564.21743330988
 10
-24863.11796415452
 20
27564.82526920123
 10
-24865.54930771993
 20
27564.21743330988
 10
-24865.54930771993
 20
27566.04094098394
 10
-24863.11796415452
 20
27564.82526920123
  0
LWPOLYLINE
  5
68
330
2F
100
AcDbEntity
  8
0
100
AcDbPolyline
 90
3
 70
129
 10
-24861.29445648046
 20
27566.04094098394
 10
-24859.4709488064
 20
27564.82526920123
 10
-24863.11796415452
 20
27564.82526920123
  0
LWPOLYLINE
  5
69
330
2F
100
AcDbEntity
  8
0
100
AcDbPolyline
 90
12
 70
129
 10
-24980.50180129053
 20
27774.17110119374
 10
-24981.10963718189
 20
27775.38677297644
 10
-24981.71747307325
 20
27776.60244475915
 10
-24981.10963718189
 20
27777.81811654186
 10
-24980.50180129053
 20
27779.03378832456
 10
-24978.67829361648
 20
27779.64162421592
 10
-24977.46262183377
 20
27779.03378832456
 10
-24976.24695005106
 20
27777.81811654186
 10
-24976.24695005106
 20
27776.60244475915
 10
-24976.24695005106
 20
27775.38677297644
 10
-24977.46262183377
 20
27774.17110119374
 10
-24978.67829361648
 20
27773.56326530239
  0
LWPOLYLINE
  5
6A
330
2F
100
AcDbEntity
  8
0
100
AcDbPolyline
 90
12
 70
129
 10
-24977.46262183377
 20
27774.17110119374
 10
-24978.67829361648
 20
27773.56326530239
 10
-24980.50180129053
 20
27774.17110119374
 10
-24981.10963718189
 20
27775.38677297644
 10
-24981.71747307325
 20
27776.60244475915
 10
-24981.10963718189
 20
27777.81811654186
 10
-24980.50180129053
 20
27779.03378832456
 10
-24978.67829361648
 20
27779.64162421592
 10
-24977.46262183377
 20
27779.03378832456
 10
-24976.24695005106
 20
27777.81811654186
 10
-24976.24695005106
 20
27776.60244475915
 10
-24976.24695005106
 20
27775.38677297644
  0
LWPOLYLINE
  5
6B
330
2F
100
AcDbEntity
  8
0
100
AcDbPolyline
 90
6
 70
128
 10
-24774.33816896453
 20
27787.54349080351
 10
-24775.55384074723
 20
27787.54349080351
 10
-24775.55384074723
 20
27782.68080367268
 10
-24784.67137911753
 20
27782.68080367268
 10
-24775.55384074723
 20
27782.68080367268
 10
-24775.55384074723
 20
27764.40997187965
  0
LWPOLYLINE
  5
6C
330
2F
100
AcDbEntity
  8
0
100
AcDbPolyline
 90
2
 70
129
 10
-24784.67137911753
 20
27782.68080367268
 10
-24784.67137911753
 20
27773.56326530239
  0
LWPOLYLINE
  5
6D
330
2F
100
AcDbEntity
  8
0
100
AcDbPolyline
 90
12
 70
129
 10
-24782.84787144347
 20
27776.60244475915
 10
-24782.24003555212
 20
27777.81811654186
 10
-24781.63219966076
 20
27779.03378832456
 10
-24779.80869198671
 20
27779.64162421592
 10
-24778.593020204
 20
27779.03378832456
 10
-24777.37734842129
 20
27777.81811654186
 10
-24777.37734842129
 20
27776.60244475915
 10
-24777.37734842129
 20
27775.38677297644
 10
-24778.593020204
 20
27774.17110119374
 10
-24779.80869198671
 20
27773.56326530239
 10
-24781.63219966076
 20
27774.17110119374
 10
-24782.24003555212
 20
27775.38677297644
  0
LWPOLYLINE
  5
6E
330
2F
100
AcDbEntity
  8
0
100
AcDbPolyline
 90
12
 70
129
 10
-24778.593020204
 20
27774.17110119374
 10
-24779.80869198671
 20
27773.56326530239
 10
-24781.63219966076
 20
27774.17110119374
 10
-24782.24003555212
 20
27775.38677297644
 10
-24782.84787144347
 20
27776.60244475915
 10
-24782.24003555212
 20
27777.81811654186
 10
-24781.63219966076
 20
27779.03378832456
 10
-24779.80869198671
 20
27779.64162421592
 10
-24778.593020204
 20
27779.03378832456
 10
-24777.37734842129
 20
27777.81811654186
 10
-24777.37734842129
 20
27776.60244475915
 10
-24777.37734842129
 20
27775.38677297644
  0
LWPOLYLINE
  5
6F
330
2F
100
AcDbEntity
  8
0
100
AcDbPolyline
 90
12
 70
129
 10
-24978.67829361648
 20
27740.09653622553
 10
-24979.28612950783
 20
27740.09653622553
 10
-24980.50180129053
 20
27740.09653622553
 10
-24981.10963718189
 20
27740.70437211688
 10
-24981.10963718189
 20
27741.92004389959
 10
-24981.10963718189
 20
27742.52787979094
 10
-24980.50180129053
 20
27743.1357156823
 10
-24979.28612950783
 20
27743.1357156823
 10
-24978.67829361648
 20
27743.1357156823
 10
-24978.07045772512
 20
27742.52787979094
 10
-24978.07045772512
 20
27741.92004389959
 10
-24978.07045772512
 20
27740.70437211688
  0
LWPOLYLINE
  5
70
330
2F
100
AcDbEntity
  8
0
100
AcDbPolyline
 90
12
 70
129
 10
-24978.67829361648
 20
27601.33117773485
 10
-24979.28612950783
 20
27601.33117773485
 10
-24980.50180129053
 20
27601.33117773485
 10
-24981.10963718189
 20
27601.93901362621
 10
-24981.10963718189
 20
27603.15468540891
 10
-24981.10963718189
 20
27603.76252130027
 10
-24980.50180129053
 20
27604.40611224405
 10
-24979.28612950783
 20
27604.40611224405
 10
-24978.67829361648
 20
27604.40611224405
 10
-24978.07045772512
 20
27603.76252130027
 10
-24978.07045772512
 20
27603.15468540891
 10
-24978.07045772512
 20
27601.93901362621
  0
LWPOLYLINE
  5
71
330
2F
100
AcDbEntity
  8
0
100
AcDbPolyline
 90
12
 70
129
 10
-24778.593020204
 20
27740.09653622553
 10
-24779.20085609535
 20
27740.09653622553
 10
-24780.41652787806
 20
27740.09653622553
 10
-24781.02436376941
 20
27740.70437211688
 10
-24781.02436376941
 20
27741.92004389959
 10
-24781.02436376941
 20
27742.52787979094
 10
-24780.41652787806
 20
27743.1357156823
 10
-24779.20085609535
 20
27743.1357156823
 10
-24778.593020204
 20
27743.1357156823
 10
-24777.98518431264
 20
27742.52787979094
 10
-24777.98518431264
 20
27741.92004389959
 10
-24777.98518431264
 20
27740.70437211688
  0
LWPOLYLINE
  5
72
330
2F
100
AcDbEntity
  8
0
100
AcDbPolyline
 90
12
 70
129
 10
-24778.593020204
 20
27601.33117773485
 10
-24779.20085609535
 20
27601.33117773485
 10
-24780.41652787806
 20
27601.33117773485
 10
-24781.02436376941
 20
27601.93901362621
 10
-24781.02436376941
 20
27603.15468540891
 10
-24781.02436376941
 20
27603.76252130027
 10
-24780.41652787806
 20
27604.40611224405
 10
-24779.20085609535
 20
27604.40611224405
 10
-24778.593020204
 20
27604.40611224405
 10
-24777.98518431264
 20
27603.76252130027
 10
-24777.98518431264
 20
27603.15468540891
 10
-24777.98518431264
 20
27601.93901362621
  0
LWPOLYLINE
  5
73
330
2F
100
AcDbEntity
  8
0
100
AcDbPolyline
 90
12
 70
129
 10
-24778.593020204
 20
27573.97856262396
 10
-24779.80869198671
 20
27573.37072673261
 10
-24781.63219966076
 20
27573.97856262396
 10
-24782.24003555212
 20
27575.19423440667
 10
-24782.84787144347
 20
27576.40990618937
 10
-24782.24003555212
 20
27577.62557797208
 10
-24781.63219966076
 20
27578.84124975479
 10
-24779.80869198671
 20
27579.44908564614
 10
-24778.593020204
 20
27578.84124975479
 10
-24777.37734842129
 20
27577.62557797208
 10
-24777.37734842129
 20
27576.40990618937
 10
-24777.37734842129
 20
27575.19423440667
  0
LWPOLYLINE
  5
74
330
2F
100
AcDbEntity
  8
0
100
AcDbPolyline
 90
3
 70
128
 10
-24975.63911415972
 20
27565.43310509258
 10
-24971.99209881159
 20
27563.60959741853
 10
-24926.97648779904
 20
27563.60959741853
  0
LWPOLYLINE
  5
75
330
2F
100
AcDbEntity
  8
0
100
AcDbPolyline
 90
2
 70
128
 10
-24902.05521625355
 20
27563.60959741853
 10
-24857.03960524098
 20
27563.60959741853
  0
LWPOLYLINE
  5
76
330
2F
100
AcDbEntity
  8
0
100
AcDbPolyline
 90
3
 70
128
 10
-24832.11833369551
 20
27563.60959741853
 10
-24787.10272268294
 20
27563.60959741853
 10
-24783.45570733482
 20
27565.43310509258
  0
LWPOLYLINE
  5
77
330
2F
100
AcDbEntity
  8
0
100
AcDbPolyline
 90
3
 70
128
 10
-24774.33816896453
 20
27565.43310509258
 10
-24774.33816896453
 20
27787.54349080351
 10
-24774.94600485588
 20
27787.54349080351
  0
LWPOLYLINE
  5
78
330
2F
100
AcDbEntity
  8
0
100
AcDbPolyline
 90
12
 70
129
 10
-24967.73724757212
 20
27777.2102806505
 10
-24967.73724757212
 20
27776.60244475915
 10
-24968.34508346347
 20
27775.9946088678
 10
-24968.95291935483
 20
27775.9946088678
 10
-24969.56075524618
 20
27775.9946088678
 10
-24970.16859113753
 20
27776.60244475915
 10
-24970.16859113753
 20
27777.2102806505
 10
-24970.16859113753
 20
27777.81811654186
 10
-24969.56075524618
 20
27778.42595243321
 10
-24968.95291935483
 20
27778.42595243321
 10
-24968.34508346347
 20
27778.42595243321
 10
-24967.73724757212
 20
27777.81811654186
  0
LWPOLYLINE
  5
79
330
2F
100
AcDbEntity
  8
0
100
AcDbPolyline
 90
2
 70
128
 10
-24972.59993470295
 20
27572.1550549499
 10
-24786.49488679159
 20
27572.1550549499
  0
LWPOLYLINE
  5
7A
330
2F
100
AcDbEntity
  8
0
100
AcDbPolyline
 90
12
 70
129
 10
-24969.56075524618
 20
27574.58639851531
 10
-24970.16859113753
 20
27575.19423440667
 10
-24970.16859113753
 20
27575.80207029802
 10
-24970.16859113753
 20
27576.40990618937
 10
-24969.56075524618
 20
27577.01774208074
 10
-24968.95291935483
 20
27577.01774208074
 10
-24968.34508346347
 20
27577.01774208074
 10
-24967.73724757212
 20
27576.40990618937
 10
-24967.73724757212
 20
27575.80207029802
 10
-24967.73724757212
 20
27575.19423440667
 10
-24968.34508346347
 20
27574.58639851531
 10
-24968.95291935483
 20
27574.58639851531
  0
LWPOLYLINE
  5
7B
330
2F
100
AcDbEntity
  8
0
100
AcDbPolyline
 90
2
 70
128
 10
-24791.96540981376
 20
27774.17110119374
 10
-24791.96540981376
 20
27578.84124975479
  0
LWPOLYLINE
  5
7C
330
2F
100
AcDbEntity
  8
0
100
AcDbPolyline
 90
12
 70
129
 10
-24790.14190213971
 20
27775.9946088678
 10
-24790.74973803106
 20
27775.9946088678
 10
-24791.35757392242
 20
27776.60244475915
 10
-24791.35757392242
 20
27777.2102806505
 10
-24791.35757392242
 20
27777.81811654186
 10
-24790.74973803106
 20
27778.42595243321
 10
-24790.14190213971
 20
27778.42595243321
 10
-24789.53406624835
 20
27778.42595243321
 10
-24788.926230357
 20
27777.81811654186
 10
-24788.926230357
 20
27777.2102806505
 10
-24788.926230357
 20
27776.60244475915
 10
-24789.53406624835
 20
27775.9946088678
  0
LWPOLYLINE
  5
7D
330
2F
100
AcDbEntity
  8
0
100
AcDbPolyline
 90
6
 70
128
 10
-24972.59993470295
 20
27780.85729599862
 10
-24786.49488679159
 20
27780.85729599862
 10
-24785.27921500888
 20
27781.46513188997
 10
-24785.27921500888
 20
27571.54721905854
 10
-24786.49488679159
 20
27572.1550549499
 10
-24786.49488679159
 20
27780.85729599862
  0
LWPOLYLINE
  5
7E
330
2F
100
AcDbEntity
  8
0
100
AcDbPolyline
 90
12
 70
129
 10
-24791.35757392242
 20
27575.80207029802
 10
-24791.35757392242
 20
27576.40990618937
 10
-24790.74973803106
 20
27577.01774208074
 10
-24790.14190213971
 20
27577.01774208074
 10
-24789.53406624835
 20
27577.01774208074
 10
-24788.926230357
 20
27576.40990618937
 10
-24788.926230357
 20
27575.80207029802
 10
-24788.926230357
 20
27575.19423440667
 10
-24789.53406624835
 20
27574.58639851531
 10
-24790.14190213971
 20
27574.58639851531
 10
-24790.74973803106
 20
27574.58639851531
 10
-24791.35757392242
 20
27575.19423440667
  0
LWPOLYLINE
  5
7F
330
2F
100
AcDbEntity
  8
0
100
AcDbPolyline
 90
2
 70
128
 10
-24973.2077705943
 20
27571.54721905854
 10
-24785.27921500888
 20
27571.54721905854
  0
LWPOLYLINE
  5
80
330
2F
100
AcDbEntity
  8
0
100
AcDbPolyline
 90
4
 70
129
 10
-24972.59993470295
 20
27780.85729599862
 10
-24972.59993470295
 20
27572.1550549499
 10
-24973.2077705943
 20
27571.54721905854
 10
-24973.2077705943
 20
27781.46513188997
  0
LWPOLYLINE
  5
81
330
2F
100
AcDbEntity
  8
0
100
AcDbPolyline
 90
10
 70
128
 10
-24784.67137911753
 20
27787.54349080351
 10
-24973.81560648565
 20
27787.54349080351
 10
-24973.81560648565
 20
27773.56326530239
 10
-24981.71747307325
 20
27764.40997187965
 10
-24983.5409807473
 20
27764.40997187965
 10
-24983.5409807473
 20
27588.56662401643
 10
-24981.71747307325
 20
27588.56662401643
 10
-24973.81560648565
 20
27579.44908564614
 10
-24973.81560648565
 20
27566.64877687529
 10
-24784.67137911753
 20
27566.64877687529
  0
LWPOLYLINE
  5
82
330
2F
100
AcDbEntity
  8
0
100
AcDbPolyline
 90
12
 70
129
 10
-24979.28612950783
 20
27601.33117773485
 10
-24980.50180129053
 20
27601.33117773485
 10
-24981.10963718189
 20
27601.93901362621
 10
-24981.10963718189
 20
27603.15468540891
 10
-24981.10963718189
 20
27603.76252130027
 10
-24980.50180129053
 20
27604.40611224405
 10
-24979.28612950783
 20
27605.0139481354
 10
-24978.67829361648
 20
27604.40611224405
 10
-24978.07045772512
 20
27603.76252130027
 10
-24977.46262183377
 20
27603.15468540891
 10
-24978.07045772512
 20
27601.93901362621
 10
-24978.67829361648
 20
27601.33117773485
  0
LWPOLYLINE
  5
83
330
2F
100
AcDbEntity
  8
0
100
AcDbPolyline
 90
12
 70
129
 10
-24981.10963718189
 20
27741.92004389959
 10
-24981.10963718189
 20
27742.52787979094
 10
-24980.50180129053
 20
27743.1357156823
 10
-24979.28612950783
 20
27743.74355157365
 10
-24978.67829361648
 20
27743.1357156823
 10
-24978.07045772512
 20
27742.52787979094
 10
-24977.46262183377
 20
27741.92004389959
 10
-24978.07045772512
 20
27740.70437211688
 10
-24978.67829361648
 20
27740.09653622553
 10
-24979.28612950783
 20
27740.09653622553
 10
-24980.50180129053
 20
27740.09653622553
 10
-24981.10963718189
 20
27740.70437211688
  0
LWPOLYLINE
  5
84
330
2F
100
AcDbEntity
  8
0
100
AcDbPolyline
 90
2
 70
128
 10
-24973.2077705943
 20
27781.46513188997
 10
-24785.27921500888
 20
27781.46513188997
  0
LWPOLYLINE
  5
85
330
2F
100
AcDbEntity
  8
0
100
AcDbPolyline
 90
14
 70
128
 10
-24784.67137911753
 20
27773.56326530239
 10
-24784.67137911753
 20
27787.54349080351
 10
-24973.81560648565
 20
27787.54349080351
 10
-24973.81560648565
 20
27773.56326530239
 10
-24981.71747307325
 20
27764.40997187965
 10
-24983.5409807473
 20
27764.40997187965
 10
-24983.5409807473
 20
27588.56662401643
 10
-24981.71747307325
 20
27588.56662401643
 10
-24973.81560648565
 20
27579.44908564614
 10
-24973.81560648565
 20
27566.64877687529
 10
-24784.67137911753
 20
27566.64877687529
 10
-24784.67137911753
 20
27579.44908564614
 10
-24784.67137911753
 20
27566.64877687529
 10
-24784.67137911753
 20
27579.44908564614
  0
LWPOLYLINE
  5
86
330
2F
100
AcDbEntity
  8
0
100
AcDbPolyline
 90
6
 70
129
 10
-24775.55384074723
 20
27588.56662401643
 10
-24775.55384074723
 20
27764.40997187965
 10
-24775.55384074723
 20
27588.56662401643
 10
-24777.37734842129
 20
27588.56662401643
 10
-24784.67137911753
 20
27579.44908564614
 10
-24777.37734842129
 20
27588.56662401643
  0
LWPOLYLINE
  5
87
330
2F
100
AcDbEntity
  8
0
100
AcDbPolyline
 90
6
 70
129
 10
-24784.67137911753
 20
27773.56326530239
 10
-24784.67137911753
 20
27787.54349080351
 10
-24784.67137911753
 20
27773.56326530239
 10
-24777.37734842129
 20
27764.40997187965
 10
-24775.55384074723
 20
27764.40997187965
 10
-24777.37734842129
 20
27764.40997187965
  0
LWPOLYLINE
  5
88
330
2F
100
AcDbEntity
  8
0
100
AcDbPolyline
 90
12
 70
129
 10
-24781.02436376941
 20
27603.15468540891
 10
-24781.02436376941
 20
27603.76252130027
 10
-24780.41652787806
 20
27604.40611224405
 10
-24779.20085609535
 20
27605.0139481354
 10
-24778.593020204
 20
27604.40611224405
 10
-24777.98518431264
 20
27603.76252130027
 10
-24777.37734842129
 20
27603.15468540891
 10
-24777.98518431264
 20
27601.93901362621
 10
-24778.593020204
 20
27601.33117773485
 10
-24779.20085609535
 20
27601.33117773485
 10
-24780.41652787806
 20
27601.33117773485
 10
-24781.02436376941
 20
27601.93901362621
  0
LWPOLYLINE
  5
89
330
2F
100
AcDbEntity
  8
0
100
AcDbPolyline
 90
12
 70
129
 10
-24781.02436376941
 20
27741.92004389959
 10
-24781.02436376941
 20
27742.52787979094
 10
-24780.41652787806
 20
27743.1357156823
 10
-24779.20085609535
 20
27743.74355157365
 10
-24778.593020204
 20
27743.1357156823
 10
-24777.98518431264
 20
27742.52787979094
 10
-24777.37734842129
 20
27741.92004389959
 10
-24777.98518431264
 20
27740.70437211688
 10
-24778.593020204
 20
27740.09653622553
 10
-24779.20085609535
 20
27740.09653622553
 10
-24780.41652787806
 20
27740.09653622553
 10
-24781.02436376941
 20
27740.70437211688
  0
LWPOLYLINE
  5
8A
330
2F
100
AcDbEntity
  8
0
100
AcDbPolyline
 90
2
 70
128
 10
-24775.55384074723
 20
27588.56662401643
 10
-24775.55384074723
 20
27764.40997187965
  0
LWPOLYLINE
  5
8B
330
2F
100
AcDbEntity
  8
0
100
AcDbPolyline
 90
12
 70
129
 10
-24777.98518431264
 20
27740.70437211688
 10
-24778.593020204
 20
27740.09653622553
 10
-24779.20085609535
 20
27740.09653622553
 10
-24780.41652787806
 20
27740.09653622553
 10
-24781.02436376941
 20
27740.70437211688
 10
-24781.02436376941
 20
27741.92004389959
 10
-24781.02436376941
 20
27742.52787979094
 10
-24780.41652787806
 20
27743.1357156823
 10
-24779.20085609535
 20
27743.74355157365
 10
-24778.593020204
 20
27743.1357156823
 10
-24777.98518431264
 20
27742.52787979094
 10
-24777.37734842129
 20
27741.92004389959
  0
LWPOLYLINE
  5
8C
330
2F
100
AcDbEntity
  8
0
100
AcDbPolyline
 90
12
 70
129
 10
-24777.98518431264
 20
27601.93901362621
 10
-24778.593020204
 20
27601.33117773485
 10
-24779.20085609535
 20
27601.33117773485
 10
-24780.41652787806
 20
27601.33117773485
 10
-24781.02436376941
 20
27601.93901362621
 10
-24781.02436376941
 20
27603.15468540891
 10
-24781.02436376941
 20
27603.76252130027
 10
-24780.41652787806
 20
27604.40611224405
 10
-24779.20085609535
 20
27605.0139481354
 10
-24778.593020204
 20
27604.40611224405
 10
-24777.98518431264
 20
27603.76252130027
 10
-24777.37734842129
 20
27603.15468540891
  0
LWPOLYLINE
  5
8D
330
2F
100
AcDbEntity
  8
0
100
AcDbPolyline
 90
12
 70
129
 10
-24978.07045772512
 20
27601.93901362621
 10
-24978.67829361648
 20
27601.33117773485
 10
-24979.28612950783
 20
27601.33117773485
 10
-24980.50180129053
 20
27601.33117773485
 10
-24981.10963718189
 20
27601.93901362621
 10
-24981.10963718189
 20
27603.15468540891
 10
-24981.10963718189
 20
27603.76252130027
 10
-24980.50180129053
 20
27604.40611224405
 10
-24979.28612950783
 20
27605.0139481354
 10
-24978.67829361648
 20
27604.40611224405
 10
-24978.07045772512
 20
27603.76252130027
 10
-24977.46262183377
 20
27603.15468540891
  0
LWPOLYLINE
  5
8E
330
2F
100
AcDbEntity
  8
0
100
AcDbPolyline
 90
12
 70
129
 10
-24978.07045772512
 20
27740.70437211688
 10
-24978.67829361648
 20
27740.09653622553
 10
-24979.28612950783
 20
27740.09653622553
 10
-24980.50180129053
 20
27740.09653622553
 10
-24981.10963718189
 20
27740.70437211688
 10
-24981.10963718189
 20
27741.92004389959
 10
-24981.10963718189
 20
27742.52787979094
 10
-24980.50180129053
 20
27743.1357156823
 10
-24979.28612950783
 20
27743.74355157365
 10
-24978.67829361648
 20
27743.1357156823
 10
-24978.07045772512
 20
27742.52787979094
 10
-24977.46262183377
 20
27741.92004389959
  0
LWPOLYLINE
  5
8F
330
2F
100
AcDbEntity
  8
0
100
AcDbPolyline
 90
12
 70
129
 10
-24968.34508346347
 20
27775.9946088678
 10
-24968.95291935483
 20
27775.9946088678
 10
-24969.56075524618
 20
27775.9946088678
 10
-24970.16859113753
 20
27776.60244475915
 10
-24970.16859113753
 20
27777.2102806505
 10
-24970.16859113753
 20
27777.81811654186
 10
-24969.56075524618
 20
27778.42595243321
 10
-24968.95291935483
 20
27778.42595243321
 10
-24968.34508346347
 20
27778.42595243321
 10
-24967.73724757212
 20
27777.81811654186
 10
-24967.73724757212
 20
27777.2102806505
 10
-24967.73724757212
 20
27776.60244475915
  0
LWPOLYLINE
  5
90
330
2F
100
AcDbEntity
  8
0
100
AcDbPolyline
 90
12
 70
129
 10
-24968.34508346347
 20
27574.58639851531
 10
-24968.95291935483
 20
27574.58639851531
 10
-24969.56075524618
 20
27574.58639851531
 10
-24970.16859113753
 20
27575.19423440667
 10
-24970.16859113753
 20
27575.80207029802
 10
-24970.16859113753
 20
27576.40990618937
 10
-24969.56075524618
 20
27577.01774208074
 10
-24968.95291935483
 20
27577.01774208074
 10
-24968.34508346347
 20
27577.01774208074
 10
-24967.73724757212
 20
27576.40990618937
 10
-24967.73724757212
 20
27575.80207029802
 10
-24967.73724757212
 20
27575.19423440667
  0
LWPOLYLINE
  5
91
330
2F
100
AcDbEntity
  8
0
100
AcDbPolyline
 90
12
 70
129
 10
-24789.53406624835
 20
27574.58639851531
 10
-24790.14190213971
 20
27574.58639851531
 10
-24790.74973803106
 20
27574.58639851531
 10
-24791.35757392242
 20
27575.19423440667
 10
-24791.35757392242
 20
27575.80207029802
 10
-24791.35757392242
 20
27576.40990618937
 10
-24790.74973803106
 20
27577.01774208074
 10
-24790.14190213971
 20
27577.01774208074
 10
-24789.53406624835
 20
27577.01774208074
 10
-24788.926230357
 20
27576.40990618937
 10
-24788.926230357
 20
27575.80207029802
 10
-24788.926230357
 20
27575.19423440667
  0
LWPOLYLINE
  5
92
330
2F
100
AcDbEntity
  8
0
100
AcDbPolyline
 90
12
 70
129
 10
-24789.53406624835
 20
27775.9946088678
 10
-24790.14190213971
 20
27775.9946088678
 10
-24790.74973803106
 20
27775.9946088678
 10
-24791.35757392242
 20
27776.60244475915
 10
-24791.35757392242
 20
27777.2102806505
 10
-24791.35757392242
 20
27777.81811654186
 10
-24790.74973803106
 20
27778.42595243321
 10
-24790.14190213971
 20
27778.42595243321
 10
-24789.53406624835
 20
27778.42595243321
 10
-24788.926230357
 20
27777.81811654186
 10
-24788.926230357
 20
27777.2102806505
 10
-24788.926230357
 20
27776.60244475915
  0
LWPOLYLINE
  5
93
330
2F
100
AcDbEntity
  8
0
100
AcDbPolyline
 90
4
 70
129
 10
-24791.96540981376
 20
27578.84124975479
 10
-24791.96540981376
 20
27774.17110119374
 10
-24967.73724757212
 20
27774.17110119374
 10
-24967.73724757212
 20
27578.84124975479
  0
LWPOLYLINE
  5
94
330
2F
100
AcDbEntity
  8
0
100
AcDbPolyline
 90
5
 70
129
 10
-24791.96540981376
 20
27774.17110119374
 10
-24967.73724757212
 20
27774.17110119374
 10
-24967.73724757212
 20
27578.84124975479
 10
-24791.96540981376
 20
27578.84124975479
 10
-24791.96540981376
 20
27774.17110119374
  0
LINE
  5
95
330
2F
100
AcDbEntity
  8
0
100
AcDbLine
 10
-24846.70639508798
 20
27602.54684951755
 30
0.0
 11
-24846.70639508798
 21
27583.70393688561
 31
0.0
  0
LINE
  5
96
330
2F
100
AcDbEntity
  8
0
100
AcDbLine
 10
-24846.70639508798
 20
27583.70393688561
 30
0.0
 11
-24846.70639508798
 21
27602.54684951755
 31
0.0
  0
LINE
  5
97
330
2F
100
AcDbEntity
  8
0
100
AcDbLine
 10
-24846.70639508798
 20
27602.54684951755
 30
0.0
 11
-24846.70639508798
 21
27621.42551720194
 31
0.0
  0
LINE
  5
98
330
2F
100
AcDbEntity
  8
0
100
AcDbLine
 10
-24846.70639508798
 20
27621.42551720194
 30
0.0
 11
-24846.70639508798
 21
27640.30418488632
 31
0.0
  0
LINE
  5
99
330
2F
100
AcDbEntity
  8
0
100
AcDbLine
 10
-24846.70639508798
 20
27640.30418488632
 30
0.0
 11
-24846.70639508798
 21
27659.14709751827
 31
0.0
  0
LINE
  5
9A
330
2F
100
AcDbEntity
  8
0
100
AcDbLine
 10
-24846.70639508798
 20
27659.14709751827
 30
0.0
 11
-24846.70639508798
 21
27678.02576520264
 31
0.0
  0
LINE
  5
9B
330
2F
100
AcDbEntity
  8
0
100
AcDbLine
 10
-24846.70639508798
 20
27678.02576520264
 30
0.0
 11
-24846.70639508798
 21
27696.86867783459
 31
0.0
  0
LINE
  5
9C
330
2F
100
AcDbEntity
  8
0
100
AcDbLine
 10
-24846.70639508798
 20
27696.86867783459
 30
0.0
 11
-24911.7805905152
 21
27696.86867783459
 31
0.0
  0
LINE
  5
9D
330
2F
100
AcDbEntity
  8
0
100
AcDbLine
 10
-24911.7805905152
 20
27696.86867783459
 30
0.0
 11
-24911.7805905152
 21
27678.02576520264
 31
0.0
  0
LINE
  5
9E
330
2F
100
AcDbEntity
  8
0
100
AcDbLine
 10
-24911.7805905152
 20
27678.02576520264
 30
0.0
 11
-24911.7805905152
 21
27659.14709751827
 31
0.0
  0
LINE
  5
9F
330
2F
100
AcDbEntity
  8
0
100
AcDbLine
 10
-24911.7805905152
 20
27659.14709751827
 30
0.0
 11
-24911.7805905152
 21
27640.30418488632
 31
0.0
  0
LINE
  5
A0
330
2F
100
AcDbEntity
  8
0
100
AcDbLine
 10
-24911.7805905152
 20
27640.30418488632
 30
0.0
 11
-24911.7805905152
 21
27621.42551720194
 31
0.0
  0
LINE
  5
A1
330
2F
100
AcDbEntity
  8
0
100
AcDbLine
 10
-24911.7805905152
 20
27621.42551720194
 30
0.0
 11
-24911.7805905152
 21
27602.54684951755
 31
0.0
  0
LINE
  5
A2
330
2F
100
AcDbEntity
  8
0
100
AcDbLine
 10
-24911.7805905152
 20
27602.54684951755
 30
0.0
 11
-24911.7805905152
 21
27583.70393688561
 31
0.0
  0
LINE
  5
A3
330
2F
100
AcDbEntity
  8
0
100
AcDbLine
 10
-24911.7805905152
 20
27583.70393688561
 30
0.0
 11
-24846.70639508798
 21
27583.70393688561
 31
0.0
  0
LINE
  5
A4
330
2F
100
AcDbEntity
  8
0
100
AcDbLine
 10
-24911.7805905152
 20
27583.70393688561
 30
0.0
 11
-24911.7805905152
 21
27602.54684951755
 31
0.0
  0
LINE
  5
A5
330
2F
100
AcDbEntity
  8
0
100
AcDbLine
 10
-24911.7805905152
 20
27621.42551720194
 30
0.0
 11
-24911.7805905152
 21
27602.54684951755
 31
0.0
  0
LINE
  5
A6
330
2F
100
AcDbEntity
  8
0
100
AcDbLine
 10
-24911.7805905152
 20
27583.70393688561
 30
0.0
 11
-24846.70639508798
 21
27583.70393688561
 31
0.0
  0
LINE
  5
A7
330
2F
100
AcDbEntity
  8
0
100
AcDbLine
 10
-24858.25527702369
 20
27598.89983416944
 30
0.0
 11
-24900.23170857949
 21
27598.89983416944
 31
0.0
  0
LINE
  5
A8
330
2F
100
AcDbEntity
  8
0
100
AcDbLine
 10
-24900.23170857949
 20
27598.89983416944
 30
0.0
 11
-24900.23170857949
 21
27625.68036844141
 31
0.0
  0
LINE
  5
A9
330
2F
100
AcDbEntity
  8
0
100
AcDbLine
 10
-24911.7805905152
 20
27640.30418488632
 30
0.0
 11
-24911.7805905152
 21
27621.42551720194
 31
0.0
  0
LINE
  5
AA
330
2F
100
AcDbEntity
  8
0
100
AcDbLine
 10
-24900.23170857949
 20
27627.50387611547
 30
0.0
 11
-24900.23170857949
 21
27625.68036844141
 31
0.0
  0
LINE
  5
AB
330
2F
100
AcDbEntity
  8
0
100
AcDbLine
 10
-24900.23170857949
 20
27625.68036844141
 30
0.0
 11
-24900.23170857949
 21
27627.50387611547
 31
0.0
  0
LINE
  5
AC
330
2F
100
AcDbEntity
  8
0
100
AcDbLine
 10
-24900.23170857949
 20
27651.85306682203
 30
0.0
 11
-24900.23170857949
 21
27645.77470790849
 31
0.0
  0
LINE
  5
AD
330
2F
100
AcDbEntity
  8
0
100
AcDbLine
 10
-24900.23170857949
 20
27645.77470790849
 30
0.0
 11
-24900.23170857949
 21
27651.85306682203
 31
0.0
  0
LINE
  5
AE
330
2F
100
AcDbEntity
  8
0
100
AcDbLine
 10
-24911.7805905152
 20
27659.14709751827
 30
0.0
 11
-24911.7805905152
 21
27640.30418488632
 31
0.0
  0
LINE
  5
AF
330
2F
100
AcDbEntity
  8
0
100
AcDbLine
 10
-24900.23170857949
 20
27651.85306682203
 30
0.0
 11
-24900.23170857949
 21
27678.02576520264
 31
0.0
  0
LINE
  5
B0
330
2F
100
AcDbEntity
  8
0
100
AcDbLine
 10
-24911.7805905152
 20
27678.02576520264
 30
0.0
 11
-24911.7805905152
 21
27659.14709751827
 31
0.0
  0
LINE
  5
B1
330
2F
100
AcDbEntity
  8
0
100
AcDbLine
 10
-24900.23170857949
 20
27678.02576520264
 30
0.0
 11
-24858.25527702369
 21
27678.02576520264
 31
0.0
  0
LINE
  5
B2
330
2F
100
AcDbEntity
  8
0
100
AcDbLine
 10
-24846.70639508798
 20
27678.02576520264
 30
0.0
 11
-24846.70639508798
 21
27696.86867783459
 31
0.0
  0
LINE
  5
B3
330
2F
100
AcDbEntity
  8
0
100
AcDbLine
 10
-24846.70639508798
 20
27696.86867783459
 30
0.0
 11
-24911.7805905152
 21
27696.86867783459
 31
0.0
  0
LINE
  5
B4
330
2F
100
AcDbEntity
  8
0
100
AcDbLine
 10
-24911.7805905152
 20
27678.02576520264
 30
0.0
 11
-24911.7805905152
 21
27696.86867783459
 31
0.0
  0
LINE
  5
B5
330
2F
100
AcDbEntity
  8
0
100
AcDbLine
 10
-24846.70639508798
 20
27678.02576520264
 30
0.0
 11
-24846.70639508798
 21
27659.14709751827
 31
0.0
  0
LINE
  5
B6
330
2F
100
AcDbEntity
  8
0
100
AcDbLine
 10
-24858.25527702369
 20
27665.22545643181
 30
0.0
 11
-24858.25527702369
 21
27678.02576520264
 31
0.0
  0
LINE
  5
B7
330
2F
100
AcDbEntity
  8
0
100
AcDbLine
 10
-24858.25527702369
 20
27678.02576520264
 30
0.0
 11
-24858.25527702369
 21
27665.22545643181
 31
0.0
  0
LINE
  5
B8
330
2F
100
AcDbEntity
  8
0
100
AcDbLine
 10
-24858.25527702369
 20
27598.89983416944
 30
0.0
 11
-24858.25527702369
 21
27612.915814723
 31
0.0
  0
LINE
  5
B9
330
2F
100
AcDbEntity
  8
0
100
AcDbLine
 10
-24858.25527702369
 20
27612.915814723
 30
0.0
 11
-24858.25527702369
 21
27598.89983416944
 31
0.0
  0
LINE
  5
BA
330
2F
100
AcDbEntity
  8
0
100
AcDbLine
 10
-24846.70639508798
 20
27602.54684951755
 30
0.0
 11
-24846.70639508798
 21
27621.42551720194
 31
0.0
  0
LINE
  5
BB
330
2F
100
AcDbEntity
  8
0
100
AcDbLine
 10
-24858.25527702369
 20
27665.22545643181
 30
0.0
 11
-24858.25527702369
 21
27653.06873860473
 31
0.0
  0
LINE
  5
BC
330
2F
100
AcDbEntity
  8
0
100
AcDbLine
 10
-24846.70639508798
 20
27659.14709751827
 30
0.0
 11
-24846.70639508798
 21
27640.30418488632
 31
0.0
  0
LINE
  5
BD
330
2F
100
AcDbEntity
  8
0
100
AcDbLine
 10
-24858.25527702369
 20
27653.06873860473
 30
0.0
 11
-24858.25527702369
 21
27640.30418488632
 31
0.0
  0
LINE
  5
BE
330
2F
100
AcDbEntity
  8
0
100
AcDbLine
 10
-24858.25527702369
 20
27640.30418488632
 30
0.0
 11
-24858.25527702369
 21
27626.89604022412
 31
0.0
  0
LINE
  5
BF
330
2F
100
AcDbEntity
  8
0
100
AcDbLine
 10
-24846.70639508798
 20
27640.30418488632
 30
0.0
 11
-24846.70639508798
 21
27621.42551720194
 31
0.0
  0
LINE
  5
C0
330
2F
100
AcDbEntity
  8
0
100
AcDbLine
 10
-24858.25527702369
 20
27626.89604022412
 30
0.0
 11
-24858.25527702369
 21
27612.915814723
 31
0.0
  0
LINE
  5
C1
330
2F
100
AcDbEntity
  8
0
100
AcDbLine
 10
-24858.25527702369
 20
27627.50387611547
 30
0.0
 11
-24858.25527702369
 21
27626.89604022412
 31
0.0
  0
LINE
  5
C2
330
2F
100
AcDbEntity
  8
0
100
AcDbLine
 10
-24858.25527702369
 20
27626.89604022412
 30
0.0
 11
-24858.25527702369
 21
27612.915814723
 31
0.0
  0
LINE
  5
C3
330
2F
100
AcDbEntity
  8
0
100
AcDbLine
 10
-24858.25527702369
 20
27665.22545643181
 30
0.0
 11
-24858.25527702369
 21
27653.06873860473
 31
0.0
  0
LINE
  5
C4
330
2F
100
AcDbEntity
  8
0
100
AcDbLine
 10
-24858.25527702369
 20
27653.06873860473
 30
0.0
 11
-24858.25527702369
 21
27645.77470790849
 31
0.0
  0
LINE
  5
C5
330
2F
100
AcDbEntity
  8
0
100
AcDbLine
 10
-24858.25527702369
 20
27605.0139481354
 30
0.0
 11
-24900.23170857949
 21
27605.0139481354
 31
0.0
  0
LINE
  5
C6
330
2F
100
AcDbEntity
  8
0
100
AcDbLine
 10
-24900.23170857949
 20
27605.0139481354
 30
0.0
 11
-24900.23170857949
 21
27598.89983416944
 31
0.0
  0
LINE
  5
C7
330
2F
100
AcDbEntity
  8
0
100
AcDbLine
 10
-24900.23170857949
 20
27598.89983416944
 30
0.0
 11
-24900.23170857949
 21
27625.68036844141
 31
0.0
  0
LINE
  5
C8
330
2F
100
AcDbEntity
  8
0
100
AcDbLine
 10
-24900.23170857949
 20
27651.85306682203
 30
0.0
 11
-24900.23170857949
 21
27678.02576520264
 31
0.0
  0
LINE
  5
C9
330
2F
100
AcDbEntity
  8
0
100
AcDbLine
 10
-24900.23170857949
 20
27678.02576520264
 30
0.0
 11
-24900.23170857949
 21
27671.94740628911
 31
0.0
  0
LINE
  5
CA
330
2F
100
AcDbEntity
  8
0
100
AcDbLine
 10
-24900.23170857949
 20
27671.94740628911
 30
0.0
 11
-24858.25527702369
 21
27671.94740628911
 31
0.0
  0
LINE
  5
CB
330
2F
100
AcDbEntity
  8
0
100
AcDbLine
 10
-24858.25527702369
 20
27630.54305557223
 30
0.0
 11
-24858.25527702369
 21
27642.73552845173
 31
0.0
  0
LINE
  5
CC
330
2F
100
AcDbEntity
  8
0
100
AcDbLine
 10
-24858.25527702369
 20
27642.73552845173
 30
0.0
 11
-24858.25527702369
 21
27645.77470790849
 31
0.0
  0
LINE
  5
CD
330
2F
100
AcDbEntity
  8
0
100
AcDbLine
 10
-24858.25527702369
 20
27645.77470790849
 30
0.0
 11
-24900.23170857949
 21
27645.77470790849
 31
0.0
  0
LINE
  5
CE
330
2F
100
AcDbEntity
  8
0
100
AcDbLine
 10
-24900.23170857949
 20
27645.77470790849
 30
0.0
 11
-24900.23170857949
 21
27642.73552845173
 31
0.0
  0
LINE
  5
CF
330
2F
100
AcDbEntity
  8
0
100
AcDbLine
 10
-24900.23170857949
 20
27642.73552845173
 30
0.0
 11
-24900.23170857949
 21
27630.54305557223
 31
0.0
  0
LINE
  5
D0
330
2F
100
AcDbEntity
  8
0
100
AcDbLine
 10
-24900.23170857949
 20
27630.54305557223
 30
0.0
 11
-24900.23170857949
 21
27627.50387611547
 31
0.0
  0
LINE
  5
D1
330
2F
100
AcDbEntity
  8
0
100
AcDbLine
 10
-24900.23170857949
 20
27627.50387611547
 30
0.0
 11
-24900.23170857949
 21
27630.54305557223
 31
0.0
  0
LINE
  5
D2
330
2F
100
AcDbEntity
  8
0
100
AcDbLine
 10
-24900.23170857949
 20
27630.54305557223
 30
0.0
 11
-24858.25527702369
 21
27630.54305557223
 31
0.0
  0
LINE
  5
D3
330
2F
100
AcDbEntity
  8
0
100
AcDbLine
 10
-24858.25527702369
 20
27630.54305557223
 30
0.0
 11
-24858.25527702369
 21
27627.50387611547
 31
0.0
  0
LINE
  5
D4
330
2F
100
AcDbEntity
  8
0
100
AcDbLine
 10
-24858.25527702369
 20
27627.50387611547
 30
0.0
 11
-24858.25527702369
 21
27630.54305557223
 31
0.0
  0
LINE
  5
D5
330
2F
100
AcDbEntity
  8
0
100
AcDbLine
 10
-24900.23170857949
 20
27645.77470790849
 30
0.0
 11
-24900.23170857949
 21
27662.79411286638
 31
0.0
  0
LINE
  5
D6
330
2F
100
AcDbEntity
  8
0
100
AcDbLine
 10
-24858.25527702369
 20
27662.79411286638
 30
0.0
 11
-24858.25527702369
 21
27662.79411286638
 31
0.0
  0
LINE
  5
D7
330
2F
100
AcDbEntity
  8
0
100
AcDbLine
 10
-24900.23170857949
 20
27671.94740628911
 30
0.0
 11
-24900.23170857949
 21
27662.79411286638
 31
0.0
  0
LINE
  5
D8
330
2F
100
AcDbEntity
  8
0
100
AcDbLine
 10
-24900.23170857949
 20
27605.0139481354
 30
0.0
 11
-24900.23170857949
 21
27608.05312759217
 31
0.0
  0
LINE
  5
D9
330
2F
100
AcDbEntity
  8
0
100
AcDbLine
 10
-24900.23170857949
 20
27608.05312759217
 30
0.0
 11
-24900.23170857949
 21
27627.50387611547
 31
0.0
  0
LINE
  5
DA
330
2F
100
AcDbEntity
  8
0
100
AcDbLine
 10
-24900.23170857949
 20
27627.50387611547
 30
0.0
 11
-24858.25527702369
 21
27627.50387611547
 31
0.0
  0
LINE
  5
DB
330
2F
100
AcDbEntity
  8
0
100
AcDbLine
 10
-24900.23170857949
 20
27642.73552845173
 30
0.0
 11
-24900.23170857949
 21
27630.54305557223
 31
0.0
  0
LINE
  5
DC
330
2F
100
AcDbEntity
  8
0
100
AcDbLine
 10
-24858.25527702369
 20
27630.54305557223
 30
0.0
 11
-24858.25527702369
 21
27642.73552845173
 31
0.0
  0
LINE
  5
DD
330
2F
100
AcDbEntity
  8
0
100
AcDbLine
 10
-24858.25527702369
 20
27642.73552845173
 30
0.0
 11
-24900.23170857949
 21
27642.73552845173
 31
0.0
  0
LINE
  5
DE
330
2F
100
AcDbEntity
  8
0
100
AcDbLine
 10
-24900.23170857949
 20
27642.73552845173
 30
0.0
 11
-24900.23170857949
 21
27645.77470790849
 31
0.0
  0
LWPOLYLINE
  5
DF
330
2F
100
AcDbEntity
  8
0
100
AcDbPolyline
 90
15
 70
128
 10
-24774.33816896453
 20
27787.54349080351
 10
-24775.55384074723
 20
27787.54349080351
 10
-24774.33816896453
 20
27787.54349080351
 10
-24774.33816896453
 20
27833.77477359878
 10
-24779.20085609535
 20
27833.77477359878
 10
-24779.20085609535
 20
27787.54349080351
 10
-24779.20085609535
 20
27833.77477359878
 10
-24779.20085609535
 20
27839.28105167339
 10
-24979.89396539919
 20
27839.28105167339
 10
-24979.89396539919
 20
27787.54349080351
 10
-24979.89396539919
 20
27833.77477359878
 10
-24984.14881663866
 20
27833.77477359878
 10
-24984.14881663866
 20
27787.54349080351
 10
-24983.5409807473
 20
27787.54349080351
 10
-24984.14881663866
 20
27787.54349080351
  0
LWPOLYLINE
  5
E0
330
2F
100
AcDbEntity
  8
0
100
AcDbPolyline
 90
2
 70
128
 10
-24774.33816896453
 20
27833.77477359878
 10
-24774.33816896453
 20
27839.28105167339
  0
LWPOLYLINE
  5
E1
330
2F
100
AcDbEntity
  8
0
100
AcDbPolyline
 90
14
 70
128
 10
-24972.59993470295
 20
27813.71618918413
 10
-24964.05447717157
 20
27822.22589166307
 10
-24931.83917492985
 20
27822.22589166307
 10
-24928.79999547309
 20
27821.01021988036
 10
-24926.97648779904
 20
27819.1867122063
 10
-24926.36865190767
 20
27816.75536864089
 10
-24926.36865190767
 20
27787.54349080351
 10
-24926.36865190767
 20
27816.75536864089
 10
-24926.97648779904
 20
27819.1867122063
 10
-24928.79999547309
 20
27821.01021988036
 10
-24931.83917492985
 20
27822.22589166307
 10
-24964.05447717157
 20
27822.22589166307
 10
-24972.59993470295
 20
27813.71618918413
 10
-24972.59993470295
 20
27787.54349080351
  0
LWPOLYLINE
  5
E2
330
2F
100
AcDbEntity
  8
0
100
AcDbPolyline
 90
3
 70
128
 10
-24977.46262183377
 20
27779.03378832456
 10
-24979.89396539919
 20
27779.03378832456
 10
-24978.07045772512
 20
27779.03378832456
  0
LWPOLYLINE
  5
E3
330
2F
100
AcDbEntity
  8
0
100
AcDbPolyline
 90
2
 70
129
 10
-24972.59993470295
 20
27787.54349080351
 10
-24972.59993470295
 20
27813.71618918413
  0
LWPOLYLINE
  5
E4
330
2F
100
AcDbEntity
  8
0
100
AcDbPolyline
 90
14
 70
128
 10
-24902.66305214491
 20
27813.71618918413
 10
-24894.15334966596
 20
27822.22589166307
 10
-24861.90229237181
 20
27822.22589166307
 10
-24858.86311291505
 20
27821.01021988036
 10
-24857.03960524098
 20
27819.1867122063
 10
-24856.43176934963
 20
27816.75536864089
 10
-24856.43176934963
 20
27787.54349080351
 10
-24856.43176934963
 20
27816.75536864089
 10
-24857.03960524098
 20
27819.1867122063
 10
-24858.86311291505
 20
27821.01021988036
 10
-24861.90229237181
 20
27822.22589166307
 10
-24894.15334966596
 20
27822.22589166307
 10
-24902.66305214491
 20
27813.71618918413
 10
-24902.66305214491
 20
27787.54349080351
  0
LWPOLYLINE
  5
E5
330
2F
100
AcDbEntity
  8
0
100
AcDbPolyline
 90
2
 70
129
 10
-24902.66305214491
 20
27787.54349080351
 10
-24902.66305214491
 20
27813.71618918413
  0
LWPOLYLINE
  5
E6
330
2F
100
AcDbEntity
  8
0
100
AcDbPolyline
 90
14
 70
128
 10
-24832.72616958686
 20
27813.71618918413
 10
-24824.21646710792
 20
27822.22589166307
 10
-24791.35757392242
 20
27822.22589166307
 10
-24788.926230357
 20
27821.01021988036
 10
-24787.10272268294
 20
27819.1867122063
 10
-24785.88705090023
 20
27816.75536864089
 10
-24785.88705090023
 20
27787.54349080351
 10
-24785.88705090023
 20
27816.75536864089
 10
-24787.10272268294
 20
27819.1867122063
 10
-24788.926230357
 20
27821.01021988036
 10
-24791.35757392242
 20
27822.22589166307
 10
-24824.21646710792
 20
27822.22589166307
 10
-24832.72616958686
 20
27813.71618918413
 10
-24832.72616958686
 20
27787.54349080351
  0
LWPOLYLINE
  5
E7
330
2F
100
AcDbEntity
  8
0
100
AcDbPolyline
 90
2
 70
129
 10
-24832.72616958686
 20
27787.54349080351
 10
-24832.72616958686
 20
27813.71618918413
  0
LWPOLYLINE
  5
E8
330
2F
100
AcDbEntity
  8
0
100
AcDbPolyline
 90
3
 70
128
 10
-24781.02436376941
 20
27779.03378832456
 10
-24779.20085609535
 20
27779.03378832456
 10
-24781.63219966076
 20
27779.03378832456
  0
LWPOLYLINE
  5
E9
330
2F
100
AcDbEntity
  8
0
100
AcDbPolyline
 90
2
 70
128
 10
-24984.14881663866
 20
27839.28105167339
 10
-24984.14881663866
 20
27833.77477359878
  0
LWPOLYLINE
  5
EA
330
2F
100
AcDbEntity
  8
0
100
AcDbPolyline
 90
9
 70
128
 10
-24779.20085609535
 20
27833.77477359878
 10
-24779.20085609535
 20
27839.28105167339
 10
-24774.33816896453
 20
27839.28105167339
 10
-24775.55384074723
 20
27839.88888756474
 10
-24983.5409807473
 20
27839.88888756474
 10
-24984.14881663866
 20
27839.28105167339
 10
-24979.89396539919
 20
27839.28105167339
 10
-24979.89396539919
 20
27833.77477359878
 10
-24979.89396539919
 20
27787.54349080351
  0
LWPOLYLINE
  5
EB
330
2F
100
AcDbEntity
  8
0
100
AcDbPolyline
 90
2
 70
128
 10
-24979.89396539919
 20
27833.77477359878
 10
-24979.89396539919
 20
27839.28105167339
  0
LWPOLYLINE
  5
EC
330
2F
100
AcDbEntity
  8
0
100
AcDbPolyline
 90
13
 70
128
 10
-24984.14881663866
 20
27565.43310509258
 10
-24984.14881663866
 20
27519.20182229731
 10
-24979.89396539919
 20
27519.20182229731
 10
-24979.89396539919
 20
27565.43310509258
 10
-24979.89396539919
 20
27519.20182229731
 10
-24979.89396539919
 20
27513.73129927515
 10
-24779.20085609535
 20
27513.73129927515
 10
-24779.20085609535
 20
27519.20182229731
 10
-24779.20085609535
 20
27565.43310509258
 10
-24779.20085609535
 20
27519.20182229731
 10
-24779.20085609535
 20
27513.73129927515
 10
-24774.33816896453
 20
27513.73129927515
 10
-24774.33816896453
 20
27519.20182229731
  0
LWPOLYLINE
  5
ED
330
2F
100
AcDbEntity
  8
0
100
AcDbPolyline
 90
2
 70
128
 10
-24984.14881663866
 20
27519.20182229731
 10
-24984.14881663866
 20
27513.73129927515
  0
LWPOLYLINE
  5
EE
330
2F
100
AcDbEntity
  8
0
100
AcDbPolyline
 90
6
 70
128
 10
-24979.89396539919
 20
27565.43310509258
 10
-24979.89396539919
 20
27513.73129927515
 10
-24984.14881663866
 20
27513.73129927515
 10
-24983.5409807473
 20
27513.12346338378
 10
-24775.55384074723
 20
27513.12346338378
 10
-24774.33816896453
 20
27513.73129927515
  0
LWPOLYLINE
  5
EF
330
2F
100
AcDbEntity
  8
0
100
AcDbPolyline
 90
2
 70
128
 10
-24979.89396539919
 20
27513.73129927515
 10
-24979.89396539919
 20
27519.20182229731
  0
LWPOLYLINE
  5
F0
330
2F
100
AcDbEntity
  8
0
100
AcDbPolyline
 90
6
 70
129
 10
-24897.19252912272
 20
27531.35854012437
 10
-24864.33363593723
 20
27531.35854012437
 10
-24856.43176934963
 20
27539.2961617644
 10
-24856.43176934963
 20
27564.21743330988
 10
-24856.43176934963
 20
27539.2961617644
 10
-24864.33363593723
 20
27531.35854012437
  0
LWPOLYLINE
  5
F1
330
2F
100
AcDbEntity
  8
0
100
AcDbPolyline
 90
14
 70
128
 10
-24972.59993470295
 20
27536.82906314655
 10
-24971.99209881159
 20
27533.78988368979
 10
-24970.16859113753
 20
27531.96637601573
 10
-24967.12941168077
 20
27531.35854012437
 10
-24934.27051849526
 20
27531.35854012437
 10
-24926.36865190767
 20
27539.2961617644
 10
-24926.36865190767
 20
27564.21743330988
 10
-24926.36865190767
 20
27539.2961617644
 10
-24934.27051849526
 20
27531.35854012437
 10
-24967.12941168077
 20
27531.35854012437
 10
-24970.16859113753
 20
27531.96637601573
 10
-24971.99209881159
 20
27533.78988368979
 10
-24972.59993470295
 20
27536.82906314655
 10
-24972.59993470295
 20
27564.21743330988
  0
LWPOLYLINE
  5
F2
330
2F
100
AcDbEntity
  8
0
100
AcDbPolyline
 90
3
 70
128
 10
-24978.07045772512
 20
27573.97856262396
 10
-24979.89396539919
 20
27573.97856262396
 10
-24977.46262183377
 20
27573.97856262396
  0
LWPOLYLINE
  5
F3
330
2F
100
AcDbEntity
  8
0
100
AcDbPolyline
 90
5
 70
128
 10
-24897.19252912272
 20
27531.35854012437
 10
-24900.23170857949
 20
27531.96637601573
 10
-24902.05521625355
 20
27533.78988368979
 10
-24902.66305214491
 20
27536.82906314655
 10
-24902.66305214491
 20
27564.21743330988
  0
LWPOLYLINE
  5
F4
330
2F
100
AcDbEntity
  8
0
100
AcDbPolyline
 90
5
 70
128
 10
-24827.25564656468
 20
27531.35854012437
 10
-24830.29482602145
 20
27531.96637601573
 10
-24832.11833369551
 20
27533.78988368979
 10
-24832.72616958686
 20
27536.82906314655
 10
-24832.72616958686
 20
27564.21743330988
  0
LWPOLYLINE
  5
F5
330
2F
100
AcDbEntity
  8
0
100
AcDbPolyline
 90
6
 70
129
 10
-24827.25564656468
 20
27531.35854012437
 10
-24794.39675337918
 20
27531.35854012437
 10
-24785.88705090023
 20
27539.2961617644
 10
-24785.88705090023
 20
27564.21743330988
 10
-24785.88705090023
 20
27539.2961617644
 10
-24794.39675337918
 20
27531.35854012437
  0
LWPOLYLINE
  5
F6
330
2F
100
AcDbEntity
  8
0
100
AcDbPolyline
 90
3
 70
128
 10
-24781.63219966076
 20
27573.97856262396
 10
-24779.20085609535
 20
27573.97856262396
 10
-24781.02436376941
 20
27573.97856262396
  0
LWPOLYLINE
  5
F7
330
2F
100
AcDbEntity
  8
0
100
AcDbPolyline
 90
2
 70
129
 10
-24972.59993470295
 20
27564.21743330988
 10
-24972.59993470295
 20
27536.82906314655
  0
LWPOLYLINE
  5
F8
330
2F
100
AcDbEntity
  8
0
100
AcDbPolyline
 90
2
 70
129
 10
-24902.66305214491
 20
27564.21743330988
 10
-24902.66305214491
 20
27536.82906314655
  0
LWPOLYLINE
  5
F9
330
2F
100
AcDbEntity
  8
0
100
AcDbPolyline
 90
2
 70
129
 10
-24832.72616958686
 20
27564.21743330988
 10
-24832.72616958686
 20
27536.82906314655
  0
LWPOLYLINE
  5
FA
330
2F
100
AcDbEntity
  8
0
100
AcDbPolyline
 90
3
 70
128
 10
-24779.20085609535
 20
27519.20182229731
 10
-24774.33816896453
 20
27519.20182229731
 10
-24774.33816896453
 20
27565.43310509258
  0
LWPOLYLINE
  5
FB
330
2F
100
AcDbEntity
  8
0
100
AcDbPolyline
 90
4
 70
128
 10
-24827.25564656468
 20
27531.35854012437
 10
-24830.29482602145
 20
27531.96637601573
 10
-24832.11833369551
 20
27533.78988368979
 10
-24832.72616958686
 20
27536.82906314655
  0
LWPOLYLINE
  5
FC
330
2F
100
AcDbEntity
  8
0
100
AcDbPolyline
 90
4
 70
128
 10
-24897.19252912272
 20
27531.35854012437
 10
-24900.23170857949
 20
27531.96637601573
 10
-24902.05521625355
 20
27533.78988368979
 10
-24902.66305214491
 20
27536.82906314655
  0
LWPOLYLINE
  5
FD
330
2F
100
AcDbEntity
  8
0
100
AcDbPolyline
 90
22
 70
129
 10
-24790.74973803106
 20
27790.58267026027
 10
-24787.71055857429
 20
27790.58267026027
 10
-24787.71055857429
 20
27815.53969685818
 10
-24788.31839446565
 20
27817.9710404236
 10
-24790.14190213971
 20
27819.79454809766
 10
-24792.57324570512
 20
27821.01021988036
 10
-24824.21646710792
 20
27821.01021988036
 10
-24831.51049780415
 20
27813.71618918413
 10
-24831.51049780415
 20
27790.58267026027
 10
-24827.86348245604
 20
27790.58267026027
 10
-24827.86348245604
 20
27787.54349080351
 10
-24827.86348245604
 20
27790.58267026027
 10
-24831.51049780415
 20
27790.58267026027
 10
-24831.51049780415
 20
27813.71618918413
 10
-24824.21646710792
 20
27821.01021988036
 10
-24792.57324570512
 20
27821.01021988036
 10
-24790.14190213971
 20
27819.79454809766
 10
-24788.31839446565
 20
27817.9710404236
 10
-24787.71055857429
 20
27815.53969685818
 10
-24787.71055857429
 20
27790.58267026027
 10
-24790.74973803106
 20
27790.58267026027
 10
-24790.74973803106
 20
27787.54349080351
  0
LWPOLYLINE
  5
FE
330
2F
100
AcDbEntity
  8
0
100
AcDbPolyline
 90
12
 70
129
 10
-24827.25564656468
 20
27805.81432259653
 10
-24826.64781067333
 20
27808.24566616194
 10
-24824.82430299927
 20
27810.67700972736
 10
-24821.7851235425
 20
27811.28484561871
 10
-24819.31802492466
 20
27810.67700972736
 10
-24816.88668135925
 20
27808.24566616194
 10
-24816.27884546789
 20
27805.81432259653
 10
-24816.88668135925
 20
27802.73938808734
 10
-24819.31802492466
 20
27800.91588041328
 10
-24821.7851235425
 20
27800.30804452192
 10
-24824.82430299927
 20
27800.91588041328
 10
-24826.64781067333
 20
27802.73938808734
  0
LWPOLYLINE
  5
FF
330
2F
100
AcDbEntity
  8
0
100
AcDbPolyline
 90
12
 70
129
 10
-24802.29861996677
 20
27805.81432259653
 10
-24801.69078407542
 20
27808.24566616194
 10
-24799.86727640136
 20
27810.67700972736
 10
-24796.82809694459
 20
27811.28484561871
 10
-24794.39675337918
 20
27810.67700972736
 10
-24791.96540981376
 20
27808.24566616194
 10
-24791.35757392242
 20
27805.81432259653
 10
-24791.96540981376
 20
27802.73938808734
 10
-24794.39675337918
 20
27800.91588041328
 10
-24796.82809694459
 20
27800.30804452192
 10
-24799.86727640136
 20
27800.91588041328
 10
-24801.69078407542
 20
27802.73938808734
  0
LWPOLYLINE
  5
100
330
2F
100
AcDbEntity
  8
0
100
AcDbPolyline
 90
12
 70
129
 10
-24791.96540981376
 20
27802.73938808734
 10
-24794.39675337918
 20
27800.91588041328
 10
-24796.82809694459
 20
27800.30804452192
 10
-24799.86727640136
 20
27800.91588041328
 10
-24801.69078407542
 20
27802.73938808734
 10
-24802.29861996677
 20
27805.81432259653
 10
-24801.69078407542
 20
27808.24566616194
 10
-24799.86727640136
 20
27810.67700972736
 10
-24796.82809694459
 20
27811.28484561871
 10
-24794.39675337918
 20
27810.67700972736
 10
-24791.96540981376
 20
27808.24566616194
 10
-24791.35757392242
 20
27805.81432259653
  0
LWPOLYLINE
  5
101
330
2F
100
AcDbEntity
  8
0
100
AcDbPolyline
 90
12
 70
129
 10
-24816.88668135925
 20
27802.73938808734
 10
-24819.31802492466
 20
27800.91588041328
 10
-24821.7851235425
 20
27800.30804452192
 10
-24824.82430299927
 20
27800.91588041328
 10
-24826.64781067333
 20
27802.73938808734
 10
-24827.25564656468
 20
27805.81432259653
 10
-24826.64781067333
 20
27808.24566616194
 10
-24824.82430299927
 20
27810.67700972736
 10
-24821.7851235425
 20
27811.28484561871
 10
-24819.31802492466
 20
27810.67700972736
 10
-24816.88668135925
 20
27808.24566616194
 10
-24816.27884546789
 20
27805.81432259653
  0
LWPOLYLINE
  5
102
330
2F
100
AcDbEntity
  8
0
100
AcDbPolyline
 90
22
 70
129
 10
-24860.6866205891
 20
27790.58267026027
 10
-24857.64744113234
 20
27790.58267026027
 10
-24857.64744113234
 20
27815.53969685818
 10
-24858.25527702369
 20
27817.9710404236
 10
-24860.07878469775
 20
27819.79454809766
 10
-24862.51012826316
 20
27821.01021988036
 10
-24894.76118555731
 20
27821.01021988036
 10
-24901.4473803622
 20
27813.71618918413
 10
-24901.4473803622
 20
27790.58267026027
 10
-24897.80036501408
 20
27790.58267026027
 10
-24897.80036501408
 20
27787.54349080351
 10
-24897.80036501408
 20
27790.58267026027
 10
-24901.4473803622
 20
27790.58267026027
 10
-24901.4473803622
 20
27813.71618918413
 10
-24894.76118555731
 20
27821.01021988036
 10
-24862.51012826316
 20
27821.01021988036
 10
-24860.07878469775
 20
27819.79454809766
 10
-24858.25527702369
 20
27817.9710404236
 10
-24857.64744113234
 20
27815.53969685818
 10
-24857.64744113234
 20
27790.58267026027
 10
-24860.6866205891
 20
27790.58267026027
 10
-24860.6866205891
 20
27787.54349080351
  0
LWPOLYLINE
  5
103
330
2F
100
AcDbEntity
  8
0
100
AcDbPolyline
 90
12
 70
129
 10
-24897.19252912272
 20
27805.81432259653
 10
-24896.58469323137
 20
27808.24566616194
 10
-24894.76118555731
 20
27810.67700972736
 10
-24891.68625104812
 20
27811.28484561871
 10
-24889.2549074827
 20
27810.67700972736
 10
-24887.43139980865
 20
27808.24566616194
 10
-24886.21572802593
 20
27805.81432259653
 10
-24887.43139980865
 20
27802.73938808734
 10
-24889.2549074827
 20
27800.91588041328
 10
-24891.68625104812
 20
27800.30804452192
 10
-24894.76118555731
 20
27800.91588041328
 10
-24896.58469323137
 20
27802.73938808734
  0
LWPOLYLINE
  5
104
330
2F
100
AcDbEntity
  8
0
100
AcDbPolyline
 90
12
 70
129
 10
-24872.23550252481
 20
27805.81432259653
 10
-24871.62766663346
 20
27808.24566616194
 10
-24869.8041589594
 20
27810.67700972736
 10
-24866.76497950263
 20
27811.28484561871
 10
-24864.33363593723
 20
27810.67700972736
 10
-24861.90229237181
 20
27808.24566616194
 10
-24861.29445648046
 20
27805.81432259653
 10
-24861.90229237181
 20
27802.73938808734
 10
-24864.33363593723
 20
27800.91588041328
 10
-24866.76497950263
 20
27800.30804452192
 10
-24869.8041589594
 20
27800.91588041328
 10
-24871.62766663346
 20
27802.73938808734
  0
LWPOLYLINE
  5
105
330
2F
100
AcDbEntity
  8
0
100
AcDbPolyline
 90
12
 70
129
 10
-24861.90229237181
 20
27802.73938808734
 10
-24864.33363593723
 20
27800.91588041328
 10
-24866.76497950263
 20
27800.30804452192
 10
-24869.8041589594
 20
27800.91588041328
 10
-24871.62766663346
 20
27802.73938808734
 10
-24872.23550252481
 20
27805.81432259653
 10
-24871.62766663346
 20
27808.24566616194
 10
-24869.8041589594
 20
27810.67700972736
 10
-24866.76497950263
 20
27811.28484561871
 10
-24864.33363593723
 20
27810.67700972736
 10
-24861.90229237181
 20
27808.24566616194
 10
-24861.29445648046
 20
27805.81432259653
  0
LWPOLYLINE
  5
106
330
2F
100
AcDbEntity
  8
0
100
AcDbPolyline
 90
12
 70
129
 10
-24887.43139980865
 20
27802.73938808734
 10
-24889.2549074827
 20
27800.91588041328
 10
-24891.68625104812
 20
27800.30804452192
 10
-24894.76118555731
 20
27800.91588041328
 10
-24896.58469323137
 20
27802.73938808734
 10
-24897.19252912272
 20
27805.81432259653
 10
-24896.58469323137
 20
27808.24566616194
 10
-24894.76118555731
 20
27810.67700972736
 10
-24891.68625104812
 20
27811.28484561871
 10
-24889.2549074827
 20
27810.67700972736
 10
-24887.43139980865
 20
27808.24566616194
 10
-24886.21572802593
 20
27805.81432259653
  0
LWPOLYLINE
  5
107
330
2F
100
AcDbEntity
  8
0
100
AcDbPolyline
 90
22
 70
129
 10
-24931.2313390385
 20
27790.58267026027
 10
-24927.58432369038
 20
27790.58267026027
 10
-24927.58432369038
 20
27815.53969685818
 10
-24928.19215958173
 20
27817.9710404236
 10
-24930.01566725579
 20
27819.79454809766
 10
-24932.44701082121
 20
27821.01021988036
 10
-24964.66231306293
 20
27821.01021988036
 10
-24971.38426292024
 20
27813.71618918413
 10
-24971.38426292024
 20
27790.58267026027
 10
-24967.73724757212
 20
27790.58267026027
 10
-24967.73724757212
 20
27787.54349080351
 10
-24967.73724757212
 20
27790.58267026027
 10
-24971.38426292024
 20
27790.58267026027
 10
-24971.38426292024
 20
27813.71618918413
 10
-24964.66231306293
 20
27821.01021988036
 10
-24932.44701082121
 20
27821.01021988036
 10
-24930.01566725579
 20
27819.79454809766
 10
-24928.19215958173
 20
27817.9710404236
 10
-24927.58432369038
 20
27815.53969685818
 10
-24927.58432369038
 20
27790.58267026027
 10
-24931.2313390385
 20
27790.58267026027
 10
-24931.2313390385
 20
27787.54349080351
  0
LWPOLYLINE
  5
108
330
2F
100
AcDbEntity
  8
0
100
AcDbPolyline
 90
12
 70
129
 10
-24967.73724757212
 20
27805.81432259653
 10
-24966.52157578941
 20
27808.24566616194
 10
-24964.66231306293
 20
27810.67700972736
 10
-24961.62313360616
 20
27811.28484561871
 10
-24959.19179004074
 20
27810.67700972736
 10
-24957.36828236668
 20
27808.24566616194
 10
-24956.15261058398
 20
27805.81432259653
 10
-24957.36828236668
 20
27802.73938808734
 10
-24959.19179004074
 20
27800.91588041328
 10
-24961.62313360616
 20
27800.30804452192
 10
-24964.66231306293
 20
27800.91588041328
 10
-24966.52157578941
 20
27802.73938808734
  0
LWPOLYLINE
  5
109
330
2F
100
AcDbEntity
  8
0
100
AcDbPolyline
 90
12
 70
129
 10
-24942.17238508286
 20
27805.81432259653
 10
-24941.5645491915
 20
27808.24566616194
 10
-24939.74104151746
 20
27810.67700972736
 10
-24936.70186206069
 20
27811.28484561871
 10
-24934.27051849526
 20
27810.67700972736
 10
-24932.44701082121
 20
27808.24566616194
 10
-24931.2313390385
 20
27805.81432259653
 10
-24932.44701082121
 20
27802.73938808734
 10
-24934.27051849526
 20
27800.91588041328
 10
-24936.70186206069
 20
27800.30804452192
 10
-24939.74104151746
 20
27800.91588041328
 10
-24941.5645491915
 20
27802.73938808734
  0
LWPOLYLINE
  5
10A
330
2F
100
AcDbEntity
  8
0
100
AcDbPolyline
 90
12
 70
129
 10
-24932.44701082121
 20
27802.73938808734
 10
-24934.27051849526
 20
27800.91588041328
 10
-24936.70186206069
 20
27800.30804452192
 10
-24939.74104151746
 20
27800.91588041328
 10
-24941.5645491915
 20
27802.73938808734
 10
-24942.17238508286
 20
27805.81432259653
 10
-24941.5645491915
 20
27808.24566616194
 10
-24939.74104151746
 20
27810.67700972736
 10
-24936.70186206069
 20
27811.28484561871
 10
-24934.27051849526
 20
27810.67700972736
 10
-24932.44701082121
 20
27808.24566616194
 10
-24931.2313390385
 20
27805.81432259653
  0
LWPOLYLINE
  5
10B
330
2F
100
AcDbEntity
  8
0
100
AcDbPolyline
 90
12
 70
129
 10
-24957.36828236668
 20
27802.73938808734
 10
-24959.19179004074
 20
27800.91588041328
 10
-24961.62313360616
 20
27800.30804452192
 10
-24964.66231306293
 20
27800.91588041328
 10
-24966.52157578941
 20
27802.73938808734
 10
-24967.73724757212
 20
27805.81432259653
 10
-24966.52157578941
 20
27808.24566616194
 10
-24964.66231306293
 20
27810.67700972736
 10
-24961.62313360616
 20
27811.28484561871
 10
-24959.19179004074
 20
27810.67700972736
 10
-24957.36828236668
 20
27808.24566616194
 10
-24956.15261058398
 20
27805.81432259653
  0
LWPOLYLINE
  5
10C
330
2F
100
AcDbEntity
  8
0
100
AcDbPolyline
 90
22
 70
129
 10
-24790.74973803106
 20
27563.60959741853
 10
-24790.74973803106
 20
27562.39392563582
 10
-24787.71055857429
 20
27562.39392563582
 10
-24787.71055857429
 20
27539.2961617644
 10
-24794.39675337918
 20
27532.57421190708
 10
-24826.64781067333
 20
27532.57421190708
 10
-24829.07915423874
 20
27533.18204779844
 10
-24830.9026619128
 20
27535.00555547249
 10
-24831.51049780415
 20
27537.43689903791
 10
-24831.51049780415
 20
27562.39392563582
 10
-24827.86348245604
 20
27562.39392563582
 10
-24827.86348245604
 20
27563.60959741853
 10
-24827.86348245604
 20
27562.39392563582
 10
-24831.51049780415
 20
27562.39392563582
 10
-24831.51049780415
 20
27537.43689903791
 10
-24830.9026619128
 20
27535.00555547249
 10
-24829.07915423874
 20
27533.18204779844
 10
-24826.64781067333
 20
27532.57421190708
 10
-24794.39675337918
 20
27532.57421190708
 10
-24787.71055857429
 20
27539.2961617644
 10
-24787.71055857429
 20
27562.39392563582
 10
-24790.74973803106
 20
27562.39392563582
  0
LWPOLYLINE
  5
10D
330
2F
100
AcDbEntity
  8
0
100
AcDbPolyline
 90
12
 70
129
 10
-24827.25564656468
 20
27547.19802835199
 10
-24826.64781067333
 20
27550.23720780875
 10
-24824.82430299927
 20
27552.06071548281
 10
-24821.7851235425
 20
27552.66855137417
 10
-24819.31802492466
 20
27552.06071548281
 10
-24816.88668135925
 20
27550.23720780875
 10
-24816.27884546789
 20
27547.19802835199
 10
-24816.88668135925
 20
27544.76668478658
 10
-24819.31802492466
 20
27542.94317711252
 10
-24821.7851235425
 20
27541.72750532981
 10
-24824.82430299927
 20
27542.94317711252
 10
-24826.64781067333
 20
27544.76668478658
  0
LWPOLYLINE
  5
10E
330
2F
100
AcDbEntity
  8
0
100
AcDbPolyline
 90
12
 70
129
 10
-24802.29861996677
 20
27547.19802835199
 10
-24801.69078407542
 20
27550.23720780875
 10
-24799.86727640136
 20
27552.06071548281
 10
-24796.82809694459
 20
27552.66855137417
 10
-24794.39675337918
 20
27552.06071548281
 10
-24791.96540981376
 20
27550.23720780875
 10
-24791.35757392242
 20
27547.19802835199
 10
-24791.96540981376
 20
27544.76668478658
 10
-24794.39675337918
 20
27542.94317711252
 10
-24796.82809694459
 20
27541.72750532981
 10
-24799.86727640136
 20
27542.94317711252
 10
-24801.69078407542
 20
27544.76668478658
  0
LWPOLYLINE
  5
10F
330
2F
100
AcDbEntity
  8
0
100
AcDbPolyline
 90
12
 70
129
 10
-24819.31802492466
 20
27542.94317711252
 10
-24821.7851235425
 20
27541.72750532981
 10
-24824.82430299927
 20
27542.94317711252
 10
-24826.64781067333
 20
27544.76668478658
 10
-24827.25564656468
 20
27547.19802835199
 10
-24826.64781067333
 20
27550.23720780875
 10
-24824.82430299927
 20
27552.06071548281
 10
-24821.7851235425
 20
27552.66855137417
 10
-24819.31802492466
 20
27552.06071548281
 10
-24816.88668135925
 20
27550.23720780875
 10
-24816.27884546789
 20
27547.19802835199
 10
-24816.88668135925
 20
27544.76668478658
  0
LWPOLYLINE
  5
110
330
2F
100
AcDbEntity
  8
0
100
AcDbPolyline
 90
12
 70
129
 10
-24794.39675337918
 20
27542.94317711252
 10
-24796.82809694459
 20
27541.72750532981
 10
-24799.86727640136
 20
27542.94317711252
 10
-24801.69078407542
 20
27544.76668478658
 10
-24802.29861996677
 20
27547.19802835199
 10
-24801.69078407542
 20
27550.23720780875
 10
-24799.86727640136
 20
27552.06071548281
 10
-24796.82809694459
 20
27552.66855137417
 10
-24794.39675337918
 20
27552.06071548281
 10
-24791.96540981376
 20
27550.23720780875
 10
-24791.35757392242
 20
27547.19802835199
 10
-24791.96540981376
 20
27544.76668478658
  0
LWPOLYLINE
  5
111
330
2F
100
AcDbEntity
  8
0
100
AcDbPolyline
 90
22
 70
129
 10
-24860.6866205891
 20
27563.60959741853
 10
-24860.6866205891
 20
27562.39392563582
 10
-24857.64744113234
 20
27562.39392563582
 10
-24857.64744113234
 20
27539.2961617644
 10
-24864.33363593723
 20
27532.57421190708
 10
-24896.58469323137
 20
27532.57421190708
 10
-24899.01603679678
 20
27533.18204779844
 10
-24900.83954447084
 20
27535.00555547249
 10
-24901.4473803622
 20
27537.43689903791
 10
-24901.4473803622
 20
27562.39392563582
 10
-24897.80036501408
 20
27562.39392563582
 10
-24897.80036501408
 20
27563.60959741853
 10
-24897.80036501408
 20
27562.39392563582
 10
-24901.4473803622
 20
27562.39392563582
 10
-24901.4473803622
 20
27537.43689903791
 10
-24900.83954447084
 20
27535.00555547249
 10
-24899.01603679678
 20
27533.18204779844
 10
-24896.58469323137
 20
27532.57421190708
 10
-24864.33363593723
 20
27532.57421190708
 10
-24857.64744113234
 20
27539.2961617644
 10
-24857.64744113234
 20
27562.39392563582
 10
-24860.6866205891
 20
27562.39392563582
  0
LWPOLYLINE
  5
112
330
2F
100
AcDbEntity
  8
0
100
AcDbPolyline
 90
12
 70
129
 10
-24897.19252912272
 20
27547.19802835199
 10
-24896.58469323137
 20
27550.23720780875
 10
-24894.76118555731
 20
27552.06071548281
 10
-24891.68625104812
 20
27552.66855137417
 10
-24889.2549074827
 20
27552.06071548281
 10
-24887.43139980865
 20
27550.23720780875
 10
-24886.21572802593
 20
27547.19802835199
 10
-24887.43139980865
 20
27544.76668478658
 10
-24889.2549074827
 20
27542.94317711252
 10
-24891.68625104812
 20
27541.72750532981
 10
-24894.76118555731
 20
27542.94317711252
 10
-24896.58469323137
 20
27544.76668478658
  0
LWPOLYLINE
  5
113
330
2F
100
AcDbEntity
  8
0
100
AcDbPolyline
 90
12
 70
129
 10
-24872.23550252481
 20
27547.19802835199
 10
-24871.62766663346
 20
27550.23720780875
 10
-24869.8041589594
 20
27552.06071548281
 10
-24866.76497950263
 20
27552.66855137417
 10
-24864.33363593723
 20
27552.06071548281
 10
-24861.90229237181
 20
27550.23720780875
 10
-24861.29445648046
 20
27547.19802835199
 10
-24861.90229237181
 20
27544.76668478658
 10
-24864.33363593723
 20
27542.94317711252
 10
-24866.76497950263
 20
27541.72750532981
 10
-24869.8041589594
 20
27542.94317711252
 10
-24871.62766663346
 20
27544.76668478658
  0
LWPOLYLINE
  5
114
330
2F
100
AcDbEntity
  8
0
100
AcDbPolyline
 90
12
 70
129
 10
-24889.2549074827
 20
27542.94317711252
 10
-24891.68625104812
 20
27541.72750532981
 10
-24894.76118555731
 20
27542.94317711252
 10
-24896.58469323137
 20
27544.76668478658
 10
-24897.19252912272
 20
27547.19802835199
 10
-24896.58469323137
 20
27550.23720780875
 10
-24894.76118555731
 20
27552.06071548281
 10
-24891.68625104812
 20
27552.66855137417
 10
-24889.2549074827
 20
27552.06071548281
 10
-24887.43139980865
 20
27550.23720780875
 10
-24886.21572802593
 20
27547.19802835199
 10
-24887.43139980865
 20
27544.76668478658
  0
LWPOLYLINE
  5
115
330
2F
100
AcDbEntity
  8
0
100
AcDbPolyline
 90
12
 70
129
 10
-24864.33363593723
 20
27542.94317711252
 10
-24866.76497950263
 20
27541.72750532981
 10
-24869.8041589594
 20
27542.94317711252
 10
-24871.62766663346
 20
27544.76668478658
 10
-24872.23550252481
 20
27547.19802835199
 10
-24871.62766663346
 20
27550.23720780875
 10
-24869.8041589594
 20
27552.06071548281
 10
-24866.76497950263
 20
27552.66855137417
 10
-24864.33363593723
 20
27552.06071548281
 10
-24861.90229237181
 20
27550.23720780875
 10
-24861.29445648046
 20
27547.19802835199
 10
-24861.90229237181
 20
27544.76668478658
  0
LWPOLYLINE
  5
116
330
2F
100
AcDbEntity
  8
0
100
AcDbPolyline
 90
22
 70
129
 10
-24931.2313390385
 20
27563.60959741853
 10
-24931.2313390385
 20
27562.39392563582
 10
-24927.58432369038
 20
27562.39392563582
 10
-24927.58432369038
 20
27539.2961617644
 10
-24934.27051849526
 20
27532.57421190708
 10
-24966.52157578941
 20
27532.57421190708
 10
-24968.95291935483
 20
27533.18204779844
 10
-24970.77642702889
 20
27535.00555547249
 10
-24971.38426292024
 20
27537.43689903791
 10
-24971.38426292024
 20
27562.39392563582
 10
-24967.73724757212
 20
27562.39392563582
 10
-24967.73724757212
 20
27563.60959741853
 10
-24967.73724757212
 20
27562.39392563582
 10
-24971.38426292024
 20
27562.39392563582
 10
-24971.38426292024
 20
27537.43689903791
 10
-24970.77642702889
 20
27535.00555547249
 10
-24968.95291935483
 20
27533.18204779844
 10
-24966.52157578941
 20
27532.57421190708
 10
-24934.27051849526
 20
27532.57421190708
 10
-24927.58432369038
 20
27539.2961617644
 10
-24927.58432369038
 20
27562.39392563582
 10
-24931.2313390385
 20
27562.39392563582
  0
LWPOLYLINE
  5
117
330
2F
100
AcDbEntity
  8
0
100
AcDbPolyline
 90
12
 70
129
 10
-24967.73724757212
 20
27547.19802835199
 10
-24966.52157578941
 20
27550.23720780875
 10
-24964.66231306293
 20
27552.06071548281
 10
-24961.62313360616
 20
27552.66855137417
 10
-24959.19179004074
 20
27552.06071548281
 10
-24957.36828236668
 20
27550.23720780875
 10
-24956.15261058398
 20
27547.19802835199
 10
-24957.36828236668
 20
27544.76668478658
 10
-24959.19179004074
 20
27542.94317711252
 10
-24961.62313360616
 20
27541.72750532981
 10
-24964.66231306293
 20
27542.94317711252
 10
-24966.52157578941
 20
27544.76668478658
  0
LWPOLYLINE
  5
118
330
2F
100
AcDbEntity
  8
0
100
AcDbPolyline
 90
12
 70
129
 10
-24942.17238508286
 20
27547.19802835199
 10
-24941.5645491915
 20
27550.23720780875
 10
-24939.74104151746
 20
27552.06071548281
 10
-24936.70186206069
 20
27552.66855137417
 10
-24934.27051849526
 20
27552.06071548281
 10
-24932.44701082121
 20
27550.23720780875
 10
-24931.2313390385
 20
27547.19802835199
 10
-24932.44701082121
 20
27544.76668478658
 10
-24934.27051849526
 20
27542.94317711252
 10
-24936.70186206069
 20
27541.72750532981
 10
-24939.74104151746
 20
27542.94317711252
 10
-24941.5645491915
 20
27544.76668478658
  0
LWPOLYLINE
  5
119
330
2F
100
AcDbEntity
  8
0
100
AcDbPolyline
 90
12
 70
129
 10
-24959.19179004074
 20
27542.94317711252
 10
-24961.62313360616
 20
27541.72750532981
 10
-24964.66231306293
 20
27542.94317711252
 10
-24966.52157578941
 20
27544.76668478658
 10
-24967.73724757212
 20
27547.19802835199
 10
-24966.52157578941
 20
27550.23720780875
 10
-24964.66231306293
 20
27552.06071548281
 10
-24961.62313360616
 20
27552.66855137417
 10
-24959.19179004074
 20
27552.06071548281
 10
-24957.36828236668
 20
27550.23720780875
 10
-24956.15261058398
 20
27547.19802835199
 10
-24957.36828236668
 20
27544.76668478658
  0
LWPOLYLINE
  5
11A
330
2F
100
AcDbEntity
  8
0
100
AcDbPolyline
 90
12
 70
129
 10
-24934.27051849526
 20
27542.94317711252
 10
-24936.70186206069
 20
27541.72750532981
 10
-24939.74104151746
 20
27542.94317711252
 10
-24941.5645491915
 20
27544.76668478658
 10
-24942.17238508286
 20
27547.19802835199
 10
-24941.5645491915
 20
27550.23720780875
 10
-24939.74104151746
 20
27552.06071548281
 10
-24936.70186206069
 20
27552.66855137417
 10
-24934.27051849526
 20
27552.06071548281
 10
-24932.44701082121
 20
27550.23720780875
 10
-24931.2313390385
 20
27547.19802835199
 10
-24932.44701082121
 20
27544.76668478658
  0
ENDBLK
  5
31
330
2F
100
AcDbEntity
  8
0
100
AcDbBlockEnd
  0
ENDSEC
  0
SECTION
  2
ENTITIES
  0
INSERT
  5
11B
330
17
100
AcDbEntity
  8
0
100
AcDbBlockReference
  2
NS-1
 10
24984.14881663866
 20
-27513.12346338378
 30
0.0
  0
ENDSEC
  0
SECTION
  2
OBJECTS
  0
DICTIONARY
  5
A
330
0
100
AcDbDictionary
281
1
  3
ACAD_COLOR
350
B
  3
ACAD_GROUP
350
C
  3
ACAD_LAYOUT
350
D
  3
ACAD_MATERIAL
350
E
  3
ACAD_MLEADERSTYLE
350
F
  3
ACAD_MLINESTYLE
350
10
  3
ACAD_PLOTSETTINGS
350
11
  3
ACAD_PLOTSTYLENAME
350
12
  3
ACAD_SCALELIST
350
14
  3
ACAD_TABLESTYLE
350
15
  3
ACAD_VISUALSTYLE
350
16
  3
EZDXF_META
350
2D
  0
DICTIONARY
  5
B
330
A
100
AcDbDictionary
281
1
  0
DICTIONARY
  5
C
330
A
100
AcDbDictionary
281
1
  0
DICTIONARY
  5
D
330
A
100
AcDbDictionary
281
1
  3
Model
350
1A
  3
Layout1
350
1E
  0
DICTIONARY
  5
E
330
A
100
AcDbDictionary
281
1
  3
ByBlock
350
1F
  3
ByLayer
350
20
  3
Global
350
21
  0
DICTIONARY
  5
F
330
A
100
AcDbDictionary
281
1
  3
Standard
350
2C
  0
DICTIONARY
  5
10
330
A
100
AcDbDictionary
281
1
  3
Standard
350
22
  0
DICTIONARY
  5
11
330
A
100
AcDbDictionary
281
1
  0
ACDBDICTIONARYWDFLT
  5
12
330
A
100
AcDbDictionary
281
1
  3
Normal
350
13
100
AcDbDictionaryWithDefault
340
13
  0
ACDBPLACEHOLDER
  5
13
330
12
  0
DICTIONARY
  5
14
330
A
100
AcDbDictionary
281
1
  0
DICTIONARY
  5
15
330
A
100
AcDbDictionary
281
1
  0
DICTIONARY
  5
16
330
A
100
AcDbDictionary
281
1
  0
LAYOUT
  5
1A
330
D
100
AcDbPlotSettings
  1

  4
A3
  6

 40
7.5
 41
20.0
 42
7.5
 43
20.0
 44
420.0
 45
297.0
 46
0.0
 47
0.0
 48
0.0
 49
0.0
140
0.0
141
0.0
142
1.0
143
1.0
 70
1024
 72
1
 73
0
 74
5
  7

 75
16
 76
0
 77
2
 78
300
147
1.0
148
0.0
149
0.0
100
AcDbLayout
  1
Model
 70
1
 71
0
 10
0.0
 20
0.0
 11
420.0
 21
297.0
 12
0.0
 22
0.0
 32
0.0
 14
1e+20
 24
1e+20
 34
1e+20
 15
-1e+20
 25
-1e+20
 35
-1e+20
146
0.0
 13
0.0
 23
0.0
 33
0.0
 16
1.0
 26
0.0
 36
0.0
 17
0.0
 27
1.0
 37
0.0
 76
1
330
17
  0
LAYOUT
  5
1E
330
D
100
AcDbPlotSettings
  1

  4
A3
  6

 40
7.5
 41
20.0
 42
7.5
 43
20.0
 44
420.0
 45
297.0
 46
0.0
 47
0.0
 48
0.0
 49
0.0
140
0.0
141
0.0
142
1.0
143
1.0
 70
0
 72
1
 73
0
 74
5
  7

 75
16
 76
0
 77
2
 78
300
147
1.0
148
0.0
149
0.0
100
AcDbLayout
  1
Layout1
 70
1
 71
1
 10
0.0
 20
0.0
 11
420.0
 21
297.0
 12
0.0
 22
0.0
 32
0.0
 14
1e+20
 24
1e+20
 34
1e+20
 15
-1e+20
 25
-1e+20
 35
-1e+20
146
0.0
 13
0.0
 23
0.0
 33
0.0
 16
1.0
 26
0.0
 36
0.0
 17
0.0
 27
1.0
 37
0.0
 76
1
330
1B
  0
MATERIAL
  5
1F
102
{ACAD_REACTORS
330
E
102
}
330
E
100
AcDbMaterial
  1
ByBlock
  2

 70
0
 40
1.0
 71
1
 41
1.0
 91
-1023410177
 42
1.0
 72
1
  3

 73
1
 74
1
 75
1
 44
0.5
 73
0
 45
1.0
 46
1.0
 77
1
  4

 78
1
 79
1
170
1
 48
1.0
171
1
  6

172
1
173
1
174
1
140
1.0
141
1.0
175
1
  7

176
1
177
1
178
1
143
1.0
179
1
  8

270
1
271
1
272
1
145
1.0
146
1.0
273
1
  9

274
1
275
1
276
1
 42
1.0
 72
1
  3

 73
1
 74
1
 75
1
 94
63
  0
MATERIAL
  5
20
102
{ACAD_REACTORS
330
E
102
}
330
E
100
AcDbMaterial
  1
ByLayer
  2

 70
0
 40
1.0
 71
1
 41
1.0
 91
-1023410177
 42
1.0
 72
1
  3

 73
1
 74
1
 75
1
 44
0.5
 73
0
 45
1.0
 46
1.0
 77
1
  4

 78
1
 79
1
170
1
 48
1.0
171
1
  6

172
1
173
1
174
1
140
1.0
141
1.0
175
1
  7

176
1
177
1
178
1
143
1.0
179
1
  8

270
1
271
1
272
1
145
1.0
146
1.0
273
1
  9

274
1
275
1
276
1
 42
1.0
 72
1
  3

 73
1
 74
1
 75
1
 94
63
  0
MATERIAL
  5
21
102
{ACAD_REACTORS
330
E
102
}
330
E
100
AcDbMaterial
  1
Global
  2

 70
0
 40
1.0
 71
1
 41
1.0
 91
-1023410177
 42
1.0
 72
1
  3

 73
1
 74
1
 75
1
 44
0.5
 73
0
 45
1.0
 46
1.0
 77
1
  4

 78
1
 79
1
170
1
 48
1.0
171
1
  6

172
1
173
1
174
1
140
1.0
141
1.0
175
1
  7

176
1
177
1
178
1
143
1.0
179
1
  8

270
1
271
1
272
1
145
1.0
146
1.0
273
1
  9

274
1
275
1
276
1
 42
1.0
 72
1
  3

 73
1
 74
1
 75
1
 94
63
  0
MLINESTYLE
  5
22
102
{ACAD_REACTORS
330
10
102
}
330
10
100
AcDbMlineStyle
  2
Standard
 70
0
  3

 62
256
 51
90.0
 52
90.0
 71
2
 49
0.5
 62
256
  6
BYLAYER
 49
-0.5
 62
256
  6
BYLAYER
  0
MLEADERSTYLE
  5
2C
102
{ACAD_REACTORS
330
F
102
}
330
F
100
AcDbMLeaderStyle
179
2
170
2
171
1
172
0
 90
2
 40
0.0
 41
0.0
173
1
 91
-1056964608
 92
-2
290
1
 42
2.0
291
1
 43
8.0
  3
Standard
 44
4.0
300

342
29
174
1
175
1
176
0
178
1
 93
-1056964608
 45
4.0
292
0
297
0
 46
4.0
 94
-1056964608
 47
1.0
 49
1.0
140
1.0
294
1
141
0.0
177
0
142
1.0
295
0
296
0
143
3.75
271
0
272
9
273
9
  0
DICTIONARY
  5
2D
330
A
100
AcDbDictionary
280
1
281
1
  3
CREATED_BY_EZDXF
350
2E
  3
WRITTEN_BY_EZDXF
350
11F
  0
DICTIONARYVAR
  5
2E
330
2D
100
DictionaryVariables
280
0
  1
1.4.4 @ 2026-09-23T12:55:10.968574+00:00
  0
DICTIONARYVAR
  5
11F
330
2D
100
DictionaryVariables
280
0
  1
1.4.4 @ 2026-09-23T12:55:11.056904+00:00
  0
ENDSEC
  0
EOF
