  0
SECTION
  2
HEADER
  9
$ACADVER
  1
AC1032
  9
$ACADMAINTVER
 90
4
  9
$DWGCODEPAGE
  3
ANSI_1252
  9
$LASTSAVEDBY
  1
ezdxf
  9
$REQUIREDVERSIONS
160
0
  9
$INSBASE
 10
0.0
 20
0.0
 30
0.0
  9
$EXTMIN
 10
1e+20
 20
1e+20
 30
1e+20
  9
$EXTMAX
 10
-1e+20
 20
-1e+20
 30
-1e+20
  9
$LIMMIN
 10
0.0
 20
0.0
  9
$LIMMAX
 10
420.0
 20
297.0
  9
$ORTHOMODE
 70
0
  9
$REGENMODE
 70
1
  9
$FILLMODE
 70
1
  9
$QTEXTMODE
 70
0
  9
$MIRRTEXT
 70
1
  9
$LTSCALE
 40
1.0
  9
$ATTMODE
 70
1
  9
$TEXTSIZE
 40
2.5
  9
$TRACEWID
 40
1.0
  9
$TEXTSTYLE
  7
Standard
  9
$CLAYER
  8
0
  9
$CELTYPE
  6
ByLayer
  9
$CECOLOR
 62
256
  9
$CELTSCALE
 40
1.0
  9
$DISPSILH
 70
0
  9
$DIMSCALE
 40
1.0
  9
$DIMASZ
 40
2.5
  9
$DIMEXO
 40
0.625
  9
$DIMDLI
 40
3.75
  9
$DIMRND
 40
0.0
  9
$DIMDLE
 40
0.0
  9
$DIMEXE
 40
1.25
  9
$DIMTP
 40
0.0
  9
$DIMTM
 40
0.0
  9
$DIMTXT
 40
2.5
  9
$DIMCEN
 40
2.5
  9
$DIMTSZ
 40
0.0
  9
$DIMTOL
 70
0
  9
$DIMLIM
 70
0
  9
$DIMTIH
 70
0
  9
$DIMTOH
 70
0
  9
$DIMSE1
 70
0
  9
$DIMSE2
 70
0
  9
$DIMTAD
 70
1
  9
$DIMZIN
 70
8
  9
$DIMBLK
  1

  9
$DIMASO
 70
1
  9
$DIMSHO
 70
1
  9
$DIMPOST
  1

  9
$DIMAPOST
  1

  9
$DIMALT
 70
0
  9
$DIMALTD
 70
3
  9
$DIMALTF
 40
0.03937007874
  9
$DIMLFAC
 40
1.0
  9
$DIMTOFL
 70
1
  9
$DIMTVP
 40
0.0
  9
$DIMTIX
 70
0
  9
$DIMSOXD
 70
0
  9
$DIMSAH
 70
0
  9
$DIMBLK1
  1

  9
$DIMBLK2
  1

  9
$DIMSTYLE
  2
ISO-25
  9
$DIMCLRD
 70
0
  9
$DIMCLRE
 70
0
  9
$DIMCLRT
 70
0
  9
$DIMTFAC
 40
1.0
  9
$DIMGAP
 40
0.625
  9
$DIMJUST
 70
0
  9
$DIMSD1
 70
0
  9
$DIMSD2
 70
0
  9
$DIMTOLJ
 70
0
  9
$DIMTZIN
 70
8
  9
$DIMALTZ
 70
0
  9
$DIMALTTZ
 70
0
  9
$DIMUPT
 70
0
  9
$DIMDEC
 70
2
  9
$DIMTDEC
 70
2
  9
$DIMALTU
 70
2
  9
$DIMALTTD
 70
3
  9
$DIMTXSTY
  7
Standard
  9
$DIMAUNIT
 70
0
  9
$DIMADEC
 70
0
  9
$DIMALTRND
 40
0.0
  9
$DIMAZIN
 70
0
  9
$DIMDSEP
 70
44
  9
$DIMATFIT
 70
3
  9
$DIMFRAC
 70
0
  9
$DIMLDRBLK
  1

  9
$DIMLUNIT
 70
2
  9
$DIMLWD
 70
-2
  9
$DIMLWE
 70
-2
  9
$DIMTMOVE
 70
0
  9
$DIMFXL
 40
1.0
  9
$DIMFXLON
 70
0
  9
$DIMJOGANG
 40
0.785398163397
  9
$DIMTFILL
 70
0
  9
$DIMTFILLCLR
 70
0
  9
$DIMARCSYM
 70
0
  9
$DIMLTYPE
  6

  9
$DIMLTEX1
  6

  9
$DIMLTEX2
  6

  9
$DIMTXTDIRECTION
 70
0
  9
$LUNITS
 70
2
  9
$LUPREC
 70
4
  9
$SKETCHINC
 40
1.0
  9
$FILLETRAD
 40
10.0
  9
$AUNITS
 70
0
  9
$AUPREC
 70
2
  9
$MENU
  1
.
  9
$ELEVATION
 40
0.0
  9
$PELEVATION
 40
0.0
  9
$THICKNESS
 40
0.0
  9
$LIMCHECK
 70
0
  9
$CHAMFERA
 40
0.0
  9
$CHAMFERB
 40
0.0
  9
$CHAMFERC
 40
0.0
  9
$CHAMFERD
 40
0.0
  9
$SKPOLY
 70
0
  9
$TDCREATE
 40
2461307.83
  9
$TDUCREATE
 40
2458532.153996898
  9
$TDUPDATE
 40
2461307.830011574
  9
$TDUUPDATE
 40
2458532.1544311
  9
$TDINDWG
 40
0.0
  9
$TDUSRTIMER
 40
0.0
  9
$USRTIMER
 70
1
  9
$ANGBASE
 50
0.0
  9
$ANGDIR
 70
0
  9
$PDMODE
 70
0
  9
$PDSIZE
 40
0.0
  9
$PLINEWID
 40
0.0
  9
$SPLFRAME
 70
0
  9
$SPLINETYPE
 70
6
  9
$SPLINESEGS
 70
8
  9
$HANDSEED
  5
104
  9
$SURFTAB1
 70
6
  9
$SURFTAB2
 70
6
  9
$SURFTYPE
 70
6
  9
$SURFU
 70
6
  9
$SURFV
 70
6
  9
$UCSBASE
  2

  9
$UCSNAME
  2

  9
$UCSORG
 10
0.0
 20
0.0
 30
0.0
  9
$UCSXDIR
 10
1.0
 20
0.0
 30
0.0
  9
$UCSYDIR
 10
0.0
 20
1.0
 30
0.0
  9
$UCSORTHOREF
  2

  9
$UCSORTHOVIEW
 70
0
  9
$UCSORGTOP
 10
0.0
 20
0.0
 30
0.0
  9
$UCSORGBOTTOM
 10
0.0
 20
0.0
 30
0.0
  9
$UCSORGLEFT
 10
0.0
 20
0.0
 30
0.0
  9
$UCSORGRIGHT
 10
0.0
 20
0.0
 30
0.0
  9
$UCSORGFRONT
 10
0.0
 20
0.0
 30
0.0
  9
$UCSORGBACK
 10
0.0
 20
0.0
 30
0.0
  9
$PUCSBASE
  2

  9
$PUCSNAME
  2

  9
$PUCSORG
 10
0.0
 20
0.0
 30
0.0
  9
$PUCSXDIR
 10
1.0
 20
0.0
 30
0.0
  9
$PUCSYDIR
 10
0.0
 20
1.0
 30
0.0
  9
$PUCSORTHOREF
  2

  9
$PUCSORTHOVIEW
 70
0
  9
$PUCSORGTOP
 10
0.0
 20
0.0
 30
0.0
  9
$PUCSORGBOTTOM
 10
0.0
 20
0.0
 30
0.0
  9
$PUCSORGLEFT
 10
0.0
 20
0.0
 30
0.0
  9
$PUCSORGRIGHT
 10
0.0
 20
0.0
 30
0.0
  9
$PUCSORGFRONT
 10
0.0
 20
0.0
 30
0.0
  9
$PUCSORGBACK
 10
0.0
 20
0.0
 30
0.0
  9
$USERI1
 70
0
  9
$USERI2
 70
0
  9
$USERI3
 70
0
  9
$USERI4
 70
0
  9
$USERI5
 70
0
  9
$USERR1
 40
0.0
  9
$USERR2
 40
0.0
  9
$USERR3
 40
0.0
  9
$USERR4
 40
0.0
  9
$USERR5
 40
0.0
  9
$WORLDVIEW
 70
1
  9
$SHADEDGE
 70
3
  9
$SHADEDIF
 70
70
  9
$TILEMODE
 70
1
  9
$MAXACTVP
 70
64
  9
$PINSBASE
 10
0.0
 20
0.0
 30
0.0
  9
$PLIMCHECK
 70
0
  9
$PEXTMIN
 10
1e+20
 20
1e+20
 30
1e+20
  9
$PEXTMAX
 10
-1e+20
 20
-1e+20
 30
-1e+20
  9
$PLIMMIN
 10
0.0
 20
0.0
  9
$PLIMMAX
 10
420.0
 20
297.0
  9
$UNITMODE
 70
0
  9
$VISRETAIN
 70
1
  9
$PLINEGEN
 70
0
  9
$PSLTSCALE
 70
1
  9
$TREEDEPTH
 70
3020
  9
$CMLSTYLE
  2
Standard
  9
$CMLJUST
 70
0
  9
$CMLSCALE
 40
20.0
  9
$PROXYGRAPHICS
 70
1
  9
$MEASUREMENT
 70
1
  9
$CELWEIGHT
370
-1
  9
$ENDCAPS
280
0
  9
$JOINSTYLE
280
0
  9
$LWDISPLAY
290
0
  9
$INSUNITS
 70
0
  9
$HYPERLINKBASE
  1

  9
$STYLESHEET
  1

  9
$XEDIT
290
1
  9
$CEPSNTYPE
380
0
  9
$PSTYLEMODE
290
1
  9
$FINGERPRINTGUID
  2
{A961AE73-23F9-4F14-B810-06E4CBB18CA7}
  9
$VERSIONGUID
  2
{FA4C573E-40E7-416E-AFAF-ACA2D9C57DB7}
  9
$EXTNAMES
290
1
  9
$PSVPSCALE
 40
0.0
  9
$OLESTARTUP
290
0
  9
$SORTENTS
280
127
  9
$INDEXCTL
280
0
  9
$HIDETEXT
280
1
  9
$XCLIPFRAME
280
1
  9
$HALOGAP
280
0
  9
$OBSCOLOR
 70
257
  9
$OBSLTYPE
280
0
  9
$INTERSECTIONDISPLAY
280
0
  9
$INTERSECTIONCOLOR
 70
257
  9
$DIMASSOC
280
2
  9
$PROJECTNAME
  1

  9
$CAMERADISPLAY
290
0
  9
$LENSLENGTH
 40
50.0
  9
$CAMERAHEIGHT
 40
0.0
  9
$STEPSPERSEC
 40
24.0
  9
$STEPSIZE
 40
100.0
  9
$3DDWFPREC
 40
2.0
  9
$PSOLWIDTH
 40
0.005
  9
$PSOLHEIGHT
 40
0.08
  9
$LOFTANG1
 40
1.570796326795
  9
$LOFTANG2
 40
1.570796326795
  9
$LOFTMAG1
 40
0.0
  9
$LOFTMAG2
 40
0.0
  9
$LOFTPARAM
 70
7
  9
$LOFTNORMALS
280
1
  9
$LATITUDE
 40
37.795
  9
$LONGITUDE
 40
-122.394
  9
$NORTHDIRECTION
 40
0.0
  9
$TIMEZONE
 70
-8000
  9
$LIGHTGLYPHDISPLAY
280
1
  9
$TILEMODELIGHTSYNCH
280
1
  9
$CMATERIAL
347
20
  9
$SOLIDHIST
280
0
  9
$SHOWHIST
280
1
  9
$DWFFRAME
280
2
  9
$DGNFRAME
280
2
  9
$REALWORLDSCALE
290
1
  9
$INTERFERECOLOR
 62
256
  9
$CSHADOW
280
0
  9
$SHADOWPLANELOCATION
 40
0.0
  0
ENDSEC
  0
SECTION
  2
CLASSES
  0
CLASS
  1
ACDBDICTIONARYWDFLT
  2
AcDbDictionaryWithDefault
  3
ObjectDBX Classes
 90
0
 91
0
280
0
281
0
  0
CLASS
  1
SUN
  2
AcDbSun
  3
SCENEOE
 90
1153
 91
0
280
0
281
0
  0
CLASS
  1
VISUALSTYLE
  2
AcDbVisualStyle
  3
ObjectDBX Classes
 90
4095
 91
0
280
0
281
0
  0
CLASS
  1
MATERIAL
  2
AcDbMaterial
  3
ObjectDBX Classes
 90
1153
 91
0
280
0
281
0
  0
CLASS
  1
SCALE
  2
AcDbScale
  3
ObjectDBX Classes
 90
1153
 91
0
280
0
281
0
  0
CLASS
  1
TABLESTYLE
  2
AcDbTableStyle
  3
ObjectDBX Classes
 90
4095
 91
0
280
0
281
0
  0
CLASS
  1
MLEADERSTYLE
  2
AcDbMLeaderStyle
  3
ACDB_MLEADERSTYLE_CLASS
 90
4095
 91
0
280
0
281
0
  0
CLASS
  1
DICTIONARYVAR
  2
AcDbDictionaryVar
  3
ObjectDBX Classes
 90
0
 91
0
280
0
281
0
  0
CLASS
  1
CELLSTYLEMAP
  2
AcDbCellStyleMap
  3
ObjectDBX Classes
 90
1152
 91
0
280
0
281
0
  0
CLASS
  1
MENTALRAYRENDERSETTINGS
  2
AcDbMentalRayRenderSettings
  3
SCENEOE
 90
1024
 91
0
280
0
281
0
  0
CLASS
  1
ACDBDETAILVIEWSTYLE
  2
AcDbDetailViewStyle
  3
ObjectDBX Classes
 90
1025
 91
0
280
0
281
0
  0
CLASS
  1
ACDBSECTIONVIEWSTYLE
  2
AcDbSectionViewStyle
  3
ObjectDBX Classes
 90
1025
 91
0
280
0
281
0
  0
CLASS
  1
RASTERVARIABLES
  2
AcDbRasterVariables
  3
ISM
 90
0
 91
0
280
0
281
0
  0
CLASS
  1
LAYOUT
  2
AcDbLayout
  3
ObjectDBX Classes
 90
0
 91
0
280
0
281
0
  0
CLASS
  1
ACDBPLACEHOLDER
  2
AcDbPlaceHolder
  3
ObjectDBX Classes
 90
0
 91
0
280
0
281
0
  0
ENDSEC
  0
SECTION
  2
TABLES
  0
TABLE
  2
VPORT
  5
8
330
0
100
AcDbSymbolTable
 70
1
  0
VPORT
  5
23
330
8
100
AcDbSymbolTableRecord
100
AcDbViewportTableRecord
  2
*Active
 70
0
 10
0.0
 20
0.0
 11
1.0
 21
1.0
 12
0.0
 22
0.0
 13
0.0
 23
0.0
 14
0.5
 24
0.5
 15
0.5
 25
0.5
 16
0.0
 26
0.0
 36
1.0
 17
0.0
 27
0.0
 37
0.0
 40
1000.0
 41
1.34
 42
50.0
 43
0.0
 44
0.0
 50
0.0
 51
0.0
 71
0
 72
1000
 73
1
 74
3
 75
0
 76
0
 77
0
 78
0
281
0
 65
0
146
0.0
  0
ENDTAB
  0
TABLE
  2
LTYPE
  5
2
330
0
100
AcDbSymbolTable
 70
3
  0
LTYPE
  5
24
330
2
100
AcDbSymbolTableRecord
100
AcDbLinetypeTableRecord
  2
ByBlock
 70
0
  3

 72
65
 73
0
 40
0.0
  0
LTYPE
  5
25
330
2
100
AcDbSymbolTableRecord
100
AcDbLinetypeTableRecord
  2
ByLayer
 70
0
  3

 72
65
 73
0
 40
0.0
  0
LTYPE
  5
26
330
2
100
AcDbSymbolTableRecord
100
AcDbLinetypeTableRecord
  2
Continuous
 70
0
  3

 72
65
 73
0
 40
0.0
  0
ENDTAB
  0
TABLE
  2
LAYER
  5
1
330
0
100
AcDbSymbolTable
 70
3
  0
LAYER
  5
27
330
1
100
AcDbSymbolTableRecord
100
AcDbLayerTableRecord
  2
0
 70
0
 62
7
  6
Continuous
370
-3
390
13
347
21
  0
LAYER
  5
28
330
1
100
AcDbSymbolTableRecord
100
AcDbLayerTableRecord
  2
Defpoints
 70
0
 62
7
  6
Continuous
290
0
370
-3
390
13
347
21
  0
LAYER
  5
FE
330
1
100
AcDbSymbolTableRecord
100
AcDbLayerTableRecord
  2
ALPHA
 70
0
 62
255
  6
CONTINUOUS
370
-3
390
13
347
21
  0
ENDTAB
  0
TABLE
  2
STYLE
  5
5
330
0
100
AcDbSymbolTable
 70
1
  0
STYLE
  5
29
330
5
100
AcDbSymbolTableRecord
100
AcDbTextStyleTableRecord
  2
Standard
 70
0
 40
0.0
 41
1.0
 50
0.0
 71
0
 42
2.5
  3
txt
  4

  0
ENDTAB
  0
TABLE
  2
VIEW
  5
7
330
0
100
AcDbSymbolTable
 70
0
  0
ENDTAB
  0
TABLE
  2
UCS
  5
6
330
0
100
AcDbSymbolTable
 70
0
  0
ENDTAB
  0
TABLE
  2
APPID
  5
3
330
0
100
AcDbSymbolTable
 70
3
  0
APPID
  5
2A
330
3
100
AcDbSymbolTableRecord
100
AcDbRegAppTableRecord
  2
ACAD
 70
0
  0
APPID
  5
101
330
3
100
AcDbSymbolTableRecord
100
AcDbRegAppTableRecord
  2
HATCHBACKGROUNDCOLOR
 70
0
  0
APPID
  5
102
330
3
100
AcDbSymbolTableRecord
100
AcDbRegAppTableRecord
  2
EZDXF
 70
0
  0
ENDTAB
  0
TABLE
  2
DIMSTYLE
  5
4
330
0
100
AcDbSymbolTable
 70
1
100
AcDbDimStyleTable
  0
DIMSTYLE
105
2B
330
4
100
AcDbSymbolTableRecord
100
AcDbDimStyleTableRecord
  2
Standard
 70
0
 40
1.0
 41
2.5
 42
0.625
 43
3.75
 44
1.25
 45
0.0
 46
0.0
 47
0.0
 48
0.0
 49
2.5
140
2.5
141
2.5
142
0.0
143
0.03937007874
144
1.0
145
0.0
146
1.0
147
0.625
148
0.0
 69
0
 70
0
 71
0
 72
0
 73
0
 74
0
 75
0
 76
0
 77
1
 78
8
 79
3
170
0
171
3
172
1
173
0
174
0
175
0
176
0
177
0
178
0
179
2
271
2
272
2
273
2
274
3
275
0
276
0
277
2
278
44
279
0
280
0
281
0
282
0
283
0
284
8
285
0
286
0
288
0
289
3
290
0
371
-2
372
-2
  0
ENDTAB
  0
TABLE
  2
BLOCK_RECORD
  5
9
330
0
100
AcDbSymbolTable
 70
3
  0
BLOCK_RECORD
  5
17
330
9
100
AcDbSymbolTableRecord
100
AcDbBlockTableRecord
  2
*Model_Space
340
1A
 70
0
280
1
281
0
  0
BLOCK_RECORD
  5
1B
330
9
100
AcDbSymbolTableRecord
100
AcDbBlockTableRecord
  2
*Paper_Space
340
1E
 70
0
280
1
281
0
  0
BLOCK_RECORD
  5
2F
330
9
100
AcDbSymbolTableRecord
100
AcDbBlockTableRecord
  2
RTYHTUJH54TGT
340
0
 70
0
280
1
281
0
  0
ENDTAB
  0
ENDSEC
  0
SECTION
  2
BLOCKS
  0
BLOCK
  5
18
330
17
100
AcDbEntity
  8
0
100
AcDbBlockBegin
  2
*Model_Space
 70
0
 10
0.0
 20
0.0
 30
0.0
  3
*Model_Space
  1

  0
ENDBLK
  5
19
330
17
100
AcDbEntity
  8
0
100
AcDbBlockEnd
  0
BLOCK
  5
1C
330
1B
100
AcDbEntity
  8
0
100
AcDbBlockBegin
  2
*Paper_Space
 70
0
 10
0.0
 20
0.0
 30
0.0
  3
*Paper_Space
  1

  0
ENDBLK
  5
1D
330
1B
100
AcDbEntity
  8
0
100
AcDbBlockEnd
  0
BLOCK
  5
30
330
2F
100
AcDbEntity
  8
0
100
AcDbBlockBegin
  2
RTYHTUJH54TGT
 70
0
 10
0.0
 20
0.0
 30
0.0
  3
RTYHTUJH54TGT
  1

  0
LINE
  5
32
330
2F
100
AcDbEntity
  8
ALPHA
100
AcDbLine
 10
85264.48813475946
 20
-23517.94582243764
 30
0.0
 11
85257.48811875947
 21
-23524.94583743764
 31
0.0
  0
LINE
  5
33
330
2F
100
AcDbEntity
  8
ALPHA
100
AcDbLine
 10
85257.48808875945
 20
-23616.94584943764
 30
0.0
 11
85264.48808875946
 21
-23623.94584943764
 31
0.0
  0
LINE
  5
34
330
2F
100
AcDbEntity
  8
ALPHA
100
AcDbLine
 10
85264.48811875947
 20
-23513.24585243764
 30
0.0
 11
85255.18811575945
 21
-23513.24585243764
 31
0.0
  0
LINE
  5
35
330
2F
100
AcDbEntity
  8
ALPHA
100
AcDbLine
 10
85257.15318875946
 20
-23568.52502343764
 30
0.0
 11
85266.93808575947
 21
-23568.69581943764
 31
0.0
  0
LINE
  5
36
330
2F
100
AcDbEntity
  8
ALPHA
100
AcDbLine
 10
85257.15320375947
 20
-23573.36666043764
 30
0.0
 11
85266.93814675946
 21
-23573.19586443765
 31
0.0
  0
LINE
  5
37
330
2F
100
AcDbEntity
  8
ALPHA
100
AcDbLine
 10
85220.18813175947
 20
-23623.94578843765
 30
0.0
 11
85315.98808575945
 21
-23623.94578843765
 31
0.0
  0
LINE
  5
38
330
2F
100
AcDbEntity
  8
ALPHA
100
AcDbLine
 10
85220.18813175947
 20
-23517.94591043764
 30
0.0
 11
85315.98808575945
 21
-23517.94591043764
 31
0.0
  0
LINE
  5
39
330
2F
100
AcDbEntity
  8
ALPHA
100
AcDbLine
 10
85255.18811575945
 20
-23513.24585243764
 30
0.0
 11
85255.18811575945
 21
-23623.94584943764
 31
0.0
  0
LINE
  5
3A
330
2F
100
AcDbEntity
  8
ALPHA
100
AcDbLine
 10
85220.18813175947
 20
-23509.44586443764
 30
0.0
 11
85220.18813175947
 21
-23626.44586443764
 31
0.0
  0
LINE
  5
3B
330
2F
100
AcDbEntity
  8
ALPHA
100
AcDbLine
 10
85217.88808275945
 20
-23562.02870443764
 30
0.0
 11
85217.88808275945
 21
-23579.86302443764
 31
0.0
  0
LINE
  5
3C
330
2F
100
AcDbEntity
  8
ALPHA
100
AcDbLine
 10
85215.88808275947
 20
-23561.20027443764
 30
0.0
 11
85215.88808275947
 21
-23586.94586443764
 31
0.0
  0
ARC
  5
3D
330
2F
100
AcDbEntity
  8
ALPHA
100
AcDbCircle
 10
85216.68813175947
 20
-23608.24585243764
 30
0.0
 40
3.5
100
AcDbArc
 50
270.0000830003054
 51
3.69999151364e-05
  0
ARC
  5
3E
330
2F
100
AcDbEntity
  8
ALPHA
100
AcDbCircle
 10
85214.18813175947
 20
-23613.74585243764
 30
0.0
 40
2.0
100
AcDbArc
 50
89.99998199988354
 51
179.999964000184
  0
ARC
  5
3F
330
2F
100
AcDbEntity
  8
ALPHA
100
AcDbCircle
 10
85214.18813175947
 20
-23613.74585243764
 30
0.0
 40
4.0
100
AcDbArc
 50
89.99998199988354
 51
179.999964000184
  0
LINE
  5
40
330
2F
100
AcDbEntity
  8
ALPHA
100
AcDbLine
 10
85244.18811575946
 20
-23606.94581843764
 30
0.0
 11
85244.18811575946
 21
-23616.94584943764
 31
0.0
  0
LINE
  5
41
330
2F
100
AcDbEntity
  8
ALPHA
100
AcDbLine
 10
85210.68813175947
 20
-23607.90889243764
 30
0.0
 11
85210.68813175947
 21
-23611.80935943764
 31
0.0
  0
LINE
  5
42
330
2F
100
AcDbEntity
  8
ALPHA
100
AcDbLine
 10
85218.18813175947
 20
-23583.07431343764
 30
0.0
 11
85218.18813175947
 21
-23630.94586443764
 31
0.0
  0
LINE
  5
43
330
2F
100
AcDbEntity
  8
ALPHA
100
AcDbLine
 10
85220.18813175947
 20
-23616.94586443764
 30
0.0
 11
85218.18813175947
 21
-23616.94586443764
 31
0.0
  0
ARC
  5
44
330
2F
100
AcDbEntity
  8
ALPHA
100
AcDbCircle
 10
85216.68813175947
 20
-23626.44586443764
 30
0.0
 40
3.5
100
AcDbArc
 50
295.376966999559
 51
3.69999151364e-05
  0
LINE
  5
45
330
2F
100
AcDbEntity
  8
ALPHA
100
AcDbLine
 10
85220.18813175947
 20
-23626.44584943764
 30
0.0
 11
85218.18813175947
 21
-23626.44584943764
 31
0.0
  0
LINE
  5
46
330
2F
100
AcDbEntity
  8
ALPHA
100
AcDbLine
 10
85210.18813175947
 20
-23613.74585243764
 30
0.0
 11
85210.18813175947
 21
-23625.94589543765
 31
0.0
  0
LINE
  5
47
330
2F
100
AcDbEntity
  8
ALPHA
100
AcDbLine
 10
85212.18813175947
 20
-23613.74585243764
 30
0.0
 11
85212.18813175947
 21
-23625.88345643764
 31
0.0
  0
LINE
  5
48
330
2F
100
AcDbEntity
  8
ALPHA
100
AcDbLine
 10
85210.68813175947
 20
-23630.94586443764
 30
0.0
 11
85212.69203775947
 21
-23630.94586443764
 31
0.0
  0
LINE
  5
49
330
2F
100
AcDbEntity
  8
ALPHA
100
AcDbLine
 10
85210.18828375947
 20
-23625.94585343764
 30
0.0
 11
85210.68828375947
 21
-23630.94587543765
 31
0.0
  0
LINE
  5
4A
330
2F
100
AcDbEntity
  8
ALPHA
100
AcDbLine
 10
85212.18438575946
 20
-23625.82109743764
 30
0.0
 11
85212.69218275946
 21
-23630.94587543765
 31
0.0
  0
LINE
  5
4B
330
2F
100
AcDbEntity
  8
ALPHA
100
AcDbLine
 10
85217.68813175947
 20
-23631.44586443764
 30
0.0
 11
85212.18813175947
 21
-23631.44586443764
 31
0.0
  0
LINE
  5
4C
330
2F
100
AcDbEntity
  8
ALPHA
100
AcDbLine
 10
85212.44219075947
 20
-23629.94586443764
 30
0.0
 11
85218.18813175947
 21
-23629.94586443764
 31
0.0
  0
LINE
  5
4D
330
2F
100
AcDbEntity
  8
ALPHA
100
AcDbLine
 10
85212.18813175947
 20
-23630.94586443764
 30
0.0
 11
85212.18813175947
 21
-23631.44586443764
 31
0.0
  0
ARC
  5
4E
330
2F
100
AcDbEntity
  8
ALPHA
100
AcDbCircle
 10
85217.68813175947
 20
-23630.94586443764
 30
0.0
 40
0.5
100
AcDbArc
 50
270.0000280002738
 51
359.9999550001257
  0
LINE
  5
4F
330
2F
100
AcDbEntity
  8
ALPHA
100
AcDbLine
 10
85214.18813175947
 20
-23611.74585243764
 30
0.0
 11
85216.68813175947
 21
-23611.74585243764
 31
0.0
  0
LINE
  5
50
330
2F
100
AcDbEntity
  8
ALPHA
100
AcDbLine
 10
85257.48811875947
 20
-23616.94584943764
 30
0.0
 11
85244.18811575946
 21
-23616.94584943764
 31
0.0
  0
LINE
  5
51
330
2F
100
AcDbEntity
  8
ALPHA
100
AcDbLine
 10
85228.18813175947
 20
-23589.44577243764
 30
0.0
 11
85255.18813175947
 21
-23589.44577243764
 31
0.0
  0
LINE
  5
52
330
2F
100
AcDbEntity
  8
ALPHA
100
AcDbLine
 10
85220.18813175947
 20
-23598.44578843764
 30
0.0
 11
85255.18813175947
 21
-23598.44578843764
 31
0.0
  0
LINE
  5
53
330
2F
100
AcDbEntity
  8
ALPHA
100
AcDbLine
 10
85242.18813175947
 20
-23580.94578843764
 30
0.0
 11
85222.18813175947
 21
-23580.94578843764
 31
0.0
  0
LINE
  5
54
330
2F
100
AcDbEntity
  8
ALPHA
100
AcDbLine
 10
85242.18813175947
 20
-23585.44580343764
 30
0.0
 11
85230.18813175947
 21
-23585.44580343764
 31
0.0
  0
LINE
  5
55
330
2F
100
AcDbEntity
  8
ALPHA
100
AcDbLine
 10
85244.18811575946
 20
-23606.94586443764
 30
0.0
 11
85218.18813175947
 21
-23606.94586443764
 31
0.0
  0
ARC
  5
56
330
2F
100
AcDbEntity
  8
ALPHA
100
AcDbCircle
 10
85230.18813175947
 20
-23587.44580343764
 30
0.0
 40
2.0
100
AcDbArc
 50
89.99998199988354
 51
180.0000189997986
  0
ARC
  5
57
330
2F
100
AcDbEntity
  8
ALPHA
100
AcDbCircle
 10
85216.88808275945
 20
-23586.94586443764
 30
0.0
 40
1.0
100
AcDbArc
 50
179.999964000184
 51
233.1304209997397
  0
LINE
  5
58
330
2F
100
AcDbEntity
  8
ALPHA
100
AcDbLine
 10
85214.30378575946
 20
-23586.14066243764
 30
0.0
 11
85214.74433675948
 21
-23587.35108043764
 31
0.0
  0
LINE
  5
59
330
2F
100
AcDbEntity
  8
ALPHA
100
AcDbLine
 10
85213.73993475948
 20
-23585.74587943764
 30
0.0
 11
85211.04532475947
 21
-23588.00689543764
 31
0.0
  0
ARC
  5
5A
330
2F
100
AcDbEntity
  8
ALPHA
100
AcDbCircle
 10
85216.68813175947
 20
-23608.24585243764
 30
0.0
 40
1.5
100
AcDbArc
 50
270.0000830003054
 51
3.69999151364e-05
  0
ARC
  5
5B
330
2F
100
AcDbEntity
  8
ALPHA
100
AcDbCircle
 10
85217.18813175947
 20
-23591.74586743764
 30
0.0
 40
1.0
100
AcDbArc
 50
359.9999829999827
 51
89.99999200004088
  0
ARC
  5
5C
330
2F
100
AcDbEntity
  8
ALPHA
100
AcDbCircle
 10
85217.18813175947
 20
-23588.74586743764
 30
0.0
 40
1.0
100
AcDbArc
 50
359.9999829999827
 51
89.99999200004088
  0
LINE
  5
5D
330
2F
100
AcDbEntity
  8
ALPHA
100
AcDbLine
 10
85215.98818075946
 20
-23596.86006443765
 30
0.0
 11
85215.98818075946
 21
-23604.03163443764
 31
0.0
  0
LINE
  5
5E
330
2F
100
AcDbEntity
  8
ALPHA
100
AcDbLine
 10
85211.83549275946
 20
-23606.47982243764
 30
0.0
 11
85211.04532475947
 21
-23607.14285543764
 31
0.0
  0
ARC
  5
5F
330
2F
100
AcDbEntity
  8
ALPHA
100
AcDbCircle
 10
85211.68813175947
 20
-23607.90889243764
 30
0.0
 40
1.0
100
AcDbArc
 50
129.9999190001237
 51
179.999854999803
  0
LINE
  5
60
330
2F
100
AcDbEntity
  8
ALPHA
100
AcDbLine
 10
85216.28107275946
 20
-23604.73874543764
 30
0.0
 11
85218.18813875945
 21
-23606.64580843764
 31
0.0
  0
LINE
  5
61
330
2F
100
AcDbEntity
  8
ALPHA
100
AcDbLine
 10
85216.18813175947
 20
-23604.64580443764
 30
0.0
 11
85216.18813175947
 21
-23607.74586743764
 31
0.0
  0
LINE
  5
62
330
2F
100
AcDbEntity
  8
ALPHA
100
AcDbLine
 10
85214.18813175947
 20
-23609.74585243764
 30
0.0
 11
85216.68813175947
 21
-23609.74585243764
 31
0.0
  0
LINE
  5
63
330
2F
100
AcDbEntity
  8
ALPHA
100
AcDbLine
 10
85215.68813175947
 20
-23608.24586743764
 30
0.0
 11
85213.57179875947
 21
-23608.24586743764
 31
0.0
  0
ARC
  5
64
330
2F
100
AcDbEntity
  8
ALPHA
100
AcDbCircle
 10
85212.47829275946
 20
-23607.24586743764
 30
0.0
 40
1.0
100
AcDbArc
 50
94.56118199974152
 51
130.0000290004617
  0
LINE
  5
65
330
2F
100
AcDbEntity
  8
ALPHA
100
AcDbLine
 10
85213.08882675947
 20
-23607.87526943764
 30
0.0
 11
85212.71240775946
 21
-23606.47043443764
 31
0.0
  0
ARC
  5
66
330
2F
100
AcDbEntity
  8
ALPHA
100
AcDbCircle
 10
85212.42262875946
 20
-23606.54808343764
 30
0.0
 40
0.3
100
AcDbArc
 50
15.00033499982014
 51
94.56118199974152
  0
ARC
  5
67
330
2F
100
AcDbEntity
  8
ALPHA
100
AcDbCircle
 10
85213.57179875947
 20
-23607.74586743764
 30
0.0
 40
0.5
100
AcDbArc
 50
195.0000019998716
 51
269.9999730002422
  0
ARC
  5
68
330
2F
100
AcDbEntity
  8
ALPHA
100
AcDbCircle
 10
85215.68813175947
 20
-23607.74586743764
 30
0.0
 40
0.5
100
AcDbArc
 50
270.0000280002738
 51
359.9999550001257
  0
ARC
  5
69
330
2F
100
AcDbEntity
  8
ALPHA
100
AcDbCircle
 10
85216.98818075946
 20
-23604.03163443764
 30
0.0
 40
1.0
100
AcDbArc
 50
179.9999090001523
 51
224.9999820003001
  0
ARC
  5
6A
330
2F
100
AcDbEntity
  8
ALPHA
100
AcDbCircle
 10
85211.68813175947
 20
-23588.76674143764
 30
0.0
 40
1.0
100
AcDbArc
 50
129.5506570003036
 51
281.5341140003439
  0
LINE
  5
6B
330
2F
100
AcDbEntity
  8
ALPHA
100
AcDbLine
 10
85210.68813175947
 20
-23588.76674143764
 30
0.0
 11
85210.68813175947
 21
-23588.77292143764
 31
0.0
  0
ARC
  5
6C
330
2F
100
AcDbEntity
  8
ALPHA
100
AcDbCircle
 10
85211.18813175947
 20
-23594.74586743764
 30
0.0
 40
5.0
100
AcDbArc
 50
359.9999829999827
 51
53.1301120003808
  0
LINE
  5
6D
330
2F
100
AcDbEntity
  8
ALPHA
100
AcDbLine
 10
85218.18814675946
 20
-23594.24590743764
 30
0.0
 11
85216.28108775947
 21
-23596.15296843764
 31
0.0
  0
ARC
  5
6E
330
2F
100
AcDbEntity
  8
ALPHA
100
AcDbCircle
 10
85216.98818075946
 20
-23596.86006443765
 30
0.0
 40
1.0
100
AcDbArc
 50
135.0000000004421
 51
180.0000189997986
  0
LINE
  5
6F
330
2F
100
AcDbEntity
  8
ALPHA
100
AcDbLine
 10
85216.18813175947
 20
-23594.74586743764
 30
0.0
 11
85216.18813175947
 21
-23596.24591943764
 31
0.0
  0
LINE
  5
70
330
2F
100
AcDbEntity
  8
ALPHA
100
AcDbLine
 10
85211.88808275947
 20
-23588.74586743764
 30
0.0
 11
85217.18813175947
 21
-23588.74586743764
 31
0.0
  0
LINE
  5
71
330
2F
100
AcDbEntity
  8
ALPHA
100
AcDbLine
 10
85211.88808275947
 20
-23590.74586743764
 30
0.0
 11
85217.18813175947
 21
-23590.74586743764
 31
0.0
  0
ARC
  5
72
330
2F
100
AcDbEntity
  8
ALPHA
100
AcDbCircle
 10
85215.30817275945
 20
-23587.14586143764
 30
0.0
 40
0.6
100
AcDbArc
 50
199.9998100000631
 51
269.9994270003227
  0
LINE
  5
73
330
2F
100
AcDbEntity
  8
ALPHA
100
AcDbLine
 10
85211.88808275947
 20
-23588.74586743764
 30
0.0
 11
85211.88808275947
 21
-23590.74586743764
 31
0.0
  0
ARC
  5
74
330
2F
100
AcDbEntity
  8
ALPHA
100
AcDbCircle
 10
85211.18813175947
 20
-23594.74586743764
 30
0.0
 40
5.0
100
AcDbArc
 50
81.95270799970677
 51
85.2197790000207
  0
ARC
  5
75
330
2F
100
AcDbEntity
  8
ALPHA
100
AcDbCircle
 10
85217.18813175947
 20
-23591.74586743764
 30
0.0
 40
3.0
100
AcDbArc
 50
70.52880699966222
 51
89.99998199988354
  0
LINE
  5
76
330
2F
100
AcDbEntity
  8
ALPHA
100
AcDbLine
 10
85217.18813175947
 20
-23587.74586743764
 30
0.0
 11
85215.30817275945
 21
-23587.74586743764
 31
0.0
  0
LINE
  5
77
330
2F
100
AcDbEntity
  8
ALPHA
100
AcDbLine
 10
85220.18813175947
 20
-23587.44591043764
 30
0.0
 11
85228.18813175947
 21
-23587.44591043764
 31
0.0
  0
LINE
  5
78
330
2F
100
AcDbEntity
  8
ALPHA
100
AcDbLine
 10
85228.18813175947
 20
-23587.44580343764
 30
0.0
 11
85228.18813175947
 21
-23589.44578843764
 31
0.0
  0
LINE
  5
79
330
2F
100
AcDbEntity
  8
ALPHA
100
AcDbLine
 10
85218.18813175947
 20
-23586.94586443764
 30
0.0
 11
85220.18813175947
 21
-23586.94586443764
 31
0.0
  0
LINE
  5
7A
330
2F
100
AcDbEntity
  8
ALPHA
100
AcDbLine
 10
85217.94676075947
 20
-23580.00450643764
 30
0.0
 11
85220.12953775947
 21
-23582.18728543764
 31
0.0
  0
LINE
  5
7B
330
2F
100
AcDbEntity
  8
ALPHA
100
AcDbLine
 10
85215.94665375946
 20
-23580.83278043764
 30
0.0
 11
85218.18812375946
 21
-23583.07425343764
 31
0.0
  0
ARC
  5
7C
330
2F
100
AcDbEntity
  8
ALPHA
100
AcDbCircle
 10
85213.73996575947
 20
-23586.34587343764
 30
0.0
 40
0.6
100
AcDbArc
 50
20.00014300031395
 51
90.00014600029606
  0
ARC
  5
7D
330
2F
100
AcDbEntity
  8
ALPHA
100
AcDbCircle
 10
85217.98818075946
 20
-23583.15713743764
 30
0.0
 40
0.2
100
AcDbArc
 50
359.9999829999827
 51
45.0000009994511
  0
ARC
  5
7E
330
2F
100
AcDbEntity
  8
ALPHA
100
AcDbCircle
 10
85216.08803375947
 20
-23580.69145443764
 30
0.0
 40
0.2
100
AcDbArc
 50
180.0000319998364
 51
225.0000510000094
  0
ARC
  5
7F
330
2F
100
AcDbEntity
  8
ALPHA
100
AcDbCircle
 10
85218.08803375947
 20
-23579.86302443764
 30
0.0
 40
0.2
100
AcDbArc
 50
179.999964000184
 51
224.9999820003001
  0
LINE
  5
80
330
2F
100
AcDbEntity
  8
ALPHA
100
AcDbLine
 10
85214.68813175947
 20
-23568.29587043764
 30
0.0
 11
85214.68813175947
 21
-23573.59585843764
 31
0.0
  0
LINE
  5
81
330
2F
100
AcDbEntity
  8
ALPHA
100
AcDbLine
 10
85215.88808275947
 20
-23573.59585843764
 30
0.0
 11
85214.68813175947
 21
-23573.59585843764
 31
0.0
  0
LINE
  5
82
330
2F
100
AcDbEntity
  8
ALPHA
100
AcDbLine
 10
85217.88808275945
 20
-23569.94581843765
 30
0.0
 11
85215.98818075946
 21
-23569.94581843765
 31
0.0
  0
LINE
  5
83
330
2F
100
AcDbEntity
  8
ALPHA
100
AcDbLine
 10
85215.88808275947
 20
-23568.29587043764
 30
0.0
 11
85214.68813175947
 21
-23568.29587043764
 31
0.0
  0
LINE
  5
84
330
2F
100
AcDbEntity
  8
ALPHA
100
AcDbLine
 10
85217.88808275945
 20
-23564.94581843764
 30
0.0
 11
85215.98818075946
 21
-23564.94581843764
 31
0.0
  0
ARC
  5
85
330
2F
100
AcDbEntity
  8
ALPHA
100
AcDbCircle
 10
85222.18813175947
 20
-23578.94578843764
 30
0.0
 40
2.0
100
AcDbArc
 50
180.0000319998364
 51
270.0000280002738
  0
LINE
  5
86
330
2F
100
AcDbEntity
  8
ALPHA
100
AcDbLine
 10
85260.38809775947
 20
-23586.69586743764
 30
0.0
 11
85259.88809775947
 21
-23587.19586843764
 31
0.0
  0
LINE
  5
87
330
2F
100
AcDbEntity
  8
ALPHA
100
AcDbLine
 10
85255.67069075946
 20
-23590.11061143764
 30
0.0
 11
85259.90558475949
 21
-23589.96272743764
 31
0.0
  0
ARC
  5
88
330
2F
100
AcDbEntity
  8
ALPHA
100
AcDbCircle
 10
85255.68811575945
 20
-23590.61027743764
 30
0.0
 40
0.5
100
AcDbArc
 50
91.99997100010302
 51
179.9996360001926
  0
LINE
  5
89
330
2F
100
AcDbEntity
  8
ALPHA
100
AcDbLine
 10
85259.88809775947
 20
-23587.19586843764
 30
0.0
 11
85260.38809775947
 21
-23587.69586843764
 31
0.0
  0
LINE
  5
8A
330
2F
100
AcDbEntity
  8
ALPHA
100
AcDbLine
 10
85260.38811275947
 20
-23587.69584943764
 30
0.0
 11
85260.38811275947
 21
-23589.46301543764
 31
0.0
  0
ARC
  5
8B
330
2F
100
AcDbEntity
  8
ALPHA
100
AcDbCircle
 10
85259.88811275947
 20
-23589.46301543764
 30
0.0
 40
0.5
100
AcDbArc
 50
272.0000170001611
 51
359.9995999999598
  0
LINE
  5
8C
330
2F
100
AcDbEntity
  8
ALPHA
100
AcDbLine
 10
85242.18813175947
 20
-23580.94578843764
 30
0.0
 11
85242.18813175947
 21
-23585.44578843764
 31
0.0
  0
ARC
  5
8D
330
2F
100
AcDbEntity
  8
ALPHA
100
AcDbCircle
 10
85257.18811575948
 20
-23575.36633543764
 30
0.0
 40
2.0
100
AcDbArc
 50
90.99997599967335
 51
179.9999090001523
  0
LINE
  5
8E
330
2F
100
AcDbEntity
  8
ALPHA
100
AcDbLine
 10
85255.67069075946
 20
-23584.28109243764
 30
0.0
 11
85259.90558475949
 21
-23584.42897843764
 31
0.0
  0
ARC
  5
8F
330
2F
100
AcDbEntity
  8
ALPHA
100
AcDbCircle
 10
85255.68811575945
 20
-23583.78142043764
 30
0.0
 40
0.5
100
AcDbArc
 50
179.999854999803
 51
268.0000119999482
  0
LINE
  5
90
330
2F
100
AcDbEntity
  8
ALPHA
100
AcDbLine
 10
85260.38811275947
 20
-23584.92869843764
 30
0.0
 11
85260.38811275947
 21
-23586.69586443765
 31
0.0
  0
ARC
  5
91
330
2F
100
AcDbEntity
  8
ALPHA
100
AcDbCircle
 10
85259.88811275947
 20
-23584.92869843764
 30
0.0
 40
0.5
100
AcDbArc
 50
359.9999829999827
 51
88.00000299982602
  0
LINE
  5
92
330
2F
100
AcDbEntity
  8
ALPHA
100
AcDbLine
 10
85257.08810975947
 20
-23568.52391343764
 30
0.0
 11
85257.08810975947
 21
-23573.36777043764
 31
0.0
  0
ARC
  5
93
330
2F
100
AcDbEntity
  8
ALPHA
100
AcDbCircle
 10
85257.18811575948
 20
-23566.52534743764
 30
0.0
 40
2.0
100
AcDbArc
 50
179.9999090001523
 51
269.0000059999704
  0
LINE
  5
94
330
2F
100
AcDbEntity
  8
ALPHA
100
AcDbLine
 10
85212.18813175947
 20
-23509.44586443764
 30
0.0
 11
85212.18813175947
 21
-23514.94586443764
 31
0.0
  0
LINE
  5
95
330
2F
100
AcDbEntity
  8
ALPHA
100
AcDbLine
 10
85210.18813175947
 20
-23509.44586443764
 30
0.0
 11
85210.18813175947
 21
-23524.94586443764
 31
0.0
  0
LINE
  5
96
330
2F
100
AcDbEntity
  8
ALPHA
100
AcDbLine
 10
85218.18813175947
 20
-23509.44586443764
 30
0.0
 11
85218.18813175947
 21
-23558.81750743764
 31
0.0
  0
LINE
  5
97
330
2F
100
AcDbEntity
  8
ALPHA
100
AcDbLine
 10
85257.48810375946
 20
-23524.94584943764
 30
0.0
 11
85220.18813175947
 21
-23524.94584943764
 31
0.0
  0
LINE
  5
98
330
2F
100
AcDbEntity
  8
ALPHA
100
AcDbLine
 10
85228.18813175947
 20
-23552.44591043764
 30
0.0
 11
85255.18813175947
 21
-23552.44591043764
 31
0.0
  0
LINE
  5
99
330
2F
100
AcDbEntity
  8
ALPHA
100
AcDbLine
 10
85222.18813175947
 20
-23560.94591043764
 30
0.0
 11
85242.18813175947
 21
-23560.94591043764
 31
0.0
  0
LINE
  5
9A
330
2F
100
AcDbEntity
  8
ALPHA
100
AcDbLine
 10
85230.18813175947
 20
-23556.44589543764
 30
0.0
 11
85242.18813175947
 21
-23556.44589543764
 31
0.0
  0
LINE
  5
9B
330
2F
100
AcDbEntity
  8
ALPHA
100
AcDbLine
 10
85220.18813175947
 20
-23543.44589543764
 30
0.0
 11
85255.18813175947
 21
-23543.44589543764
 31
0.0
  0
LINE
  5
9C
330
2F
100
AcDbEntity
  8
ALPHA
100
AcDbLine
 10
85220.18813175947
 20
-23515.94591043764
 30
0.0
 11
85240.18813175947
 21
-23515.94591043764
 31
0.0
  0
LINE
  5
9D
330
2F
100
AcDbEntity
  8
ALPHA
100
AcDbLine
 10
85217.71753475947
 20
-23538.56350543764
 30
0.0
 11
85218.18812375946
 21
-23540.44586843764
 31
0.0
  0
LINE
  5
9E
330
2F
100
AcDbEntity
  8
ALPHA
100
AcDbLine
 10
85218.18813175947
 20
-23554.94586443764
 30
0.0
 11
85220.18813175947
 21
-23554.94586443764
 31
0.0
  0
LINE
  5
9F
330
2F
100
AcDbEntity
  8
ALPHA
100
AcDbLine
 10
85220.12965175947
 20
-23559.70442043764
 30
0.0
 11
85217.94670675947
 21
-23561.88737043764
 31
0.0
  0
ARC
  5
A0
330
2F
100
AcDbEntity
  8
ALPHA
100
AcDbCircle
 10
85217.18813175947
 20
-23550.14586143764
 30
0.0
 40
1.0
100
AcDbArc
 50
270.0000280002738
 51
359.9999550001257
  0
ARC
  5
A1
330
2F
100
AcDbEntity
  8
ALPHA
100
AcDbCircle
 10
85215.23818075946
 20
-23553.64586143764
 30
0.0
 40
2.5
100
AcDbArc
 50
89.99992699985195
 51
159.9999679997994
  0
LINE
  5
A2
330
2F
100
AcDbEntity
  8
ALPHA
100
AcDbLine
 10
85215.88808275947
 20
-23554.94586443764
 30
0.0
 11
85215.88808275947
 21
-23561.11743443764
 31
0.0
  0
LINE
  5
A3
330
2F
100
AcDbEntity
  8
ALPHA
100
AcDbLine
 10
85218.18813175947
 20
-23558.81751643764
 30
0.0
 11
85215.94674475947
 21
-23561.05890243764
 31
0.0
  0
ARC
  5
A4
330
2F
100
AcDbEntity
  8
ALPHA
100
AcDbCircle
 10
85216.08803375947
 20
-23561.20027443764
 30
0.0
 40
0.2
100
AcDbArc
 50
134.9999460003108
 51
179.999964000184
  0
ARC
  5
A5
330
2F
100
AcDbEntity
  8
ALPHA
100
AcDbCircle
 10
85218.08803375947
 20
-23562.02870443764
 30
0.0
 40
0.2
100
AcDbArc
 50
135.0000000004421
 51
180.0000189997986
  0
ARC
  5
A6
330
2F
100
AcDbEntity
  8
ALPHA
100
AcDbCircle
 10
85217.98818075946
 20
-23558.73459143764
 30
0.0
 40
0.2
100
AcDbArc
 50
314.999992000117
 51
359.9999550001257
  0
ARC
  5
A7
330
2F
100
AcDbEntity
  8
ALPHA
100
AcDbCircle
 10
85215.23818075946
 20
-23553.64586143764
 30
0.0
 40
0.5
100
AcDbArc
 50
89.99970899992383
 51
159.999912999693
  0
LINE
  5
A8
330
2F
100
AcDbEntity
  8
ALPHA
100
AcDbLine
 10
85214.76849975948
 20
-23553.47487743765
 30
0.0
 11
85213.86218075946
 21
-23555.96497143764
 31
0.0
  0
LINE
  5
A9
330
2F
100
AcDbEntity
  8
ALPHA
100
AcDbLine
 10
85212.88911275947
 20
-23552.79083743764
 30
0.0
 11
85211.98279375945
 21
-23555.28093143764
 31
0.0
  0
LINE
  5
AA
330
2F
100
AcDbEntity
  8
ALPHA
100
AcDbLine
 10
85213.86218075946
 20
-23555.96497143764
 30
0.0
 11
85211.98279375945
 21
-23555.28093143764
 31
0.0
  0
LINE
  5
AB
330
2F
100
AcDbEntity
  8
ALPHA
100
AcDbLine
 10
85216.88808275945
 20
-23553.14586143764
 30
0.0
 11
85216.88808275945
 21
-23553.94586443764
 31
0.0
  0
ARC
  5
AC
330
2F
100
AcDbEntity
  8
ALPHA
100
AcDbCircle
 10
85216.88808275945
 20
-23554.94586443764
 30
0.0
 40
1.0
100
AcDbArc
 50
89.99998199988354
 51
179.9999090001523
  0
LINE
  5
AD
330
2F
100
AcDbEntity
  8
ALPHA
100
AcDbLine
 10
85217.18813175947
 20
-23553.14586143764
 30
0.0
 11
85215.23818075946
 21
-23553.14586143764
 31
0.0
  0
ARC
  5
AE
330
2F
100
AcDbEntity
  8
ALPHA
100
AcDbCircle
 10
85217.18813175947
 20
-23550.14586143764
 30
0.0
 40
3.0
100
AcDbArc
 50
270.0000280002738
 51
289.471202999599
  0
LINE
  5
AF
330
2F
100
AcDbEntity
  8
ALPHA
100
AcDbLine
 10
85217.18813175947
 20
-23551.14586143765
 30
0.0
 11
85215.23818075946
 21
-23551.14586143765
 31
0.0
  0
LINE
  5
B0
330
2F
100
AcDbEntity
  8
ALPHA
100
AcDbLine
 10
85220.18813175947
 20
-23554.44591043764
 30
0.0
 11
85228.18813175947
 21
-23554.44591043764
 31
0.0
  0
ARC
  5
B1
330
2F
100
AcDbEntity
  8
ALPHA
100
AcDbCircle
 10
85222.18813175947
 20
-23562.94591043764
 30
0.0
 40
2.0
100
AcDbArc
 50
89.99998199988354
 51
179.999964000184
  0
ARC
  5
B2
330
2F
100
AcDbEntity
  8
ALPHA
100
AcDbCircle
 10
85230.18813175947
 20
-23554.44589543764
 30
0.0
 40
2.0
100
AcDbArc
 50
179.999964000184
 51
270.0000009996823
  0
LINE
  5
B3
330
2F
100
AcDbEntity
  8
ALPHA
100
AcDbLine
 10
85228.18813175947
 20
-23552.44591043764
 30
0.0
 11
85228.18813175947
 21
-23554.44589543764
 31
0.0
  0
ARC
  5
B4
330
2F
100
AcDbEntity
  8
ALPHA
100
AcDbCircle
 10
85216.18813175947
 20
-23520.94586443764
 30
0.0
 40
2.0
100
AcDbArc
 50
359.9999829999827
 51
89.9999370000093
  0
ARC
  5
B5
330
2F
100
AcDbEntity
  8
ALPHA
100
AcDbCircle
 10
85216.18813175947
 20
-23529.14584643764
 30
0.0
 40
2.0
100
AcDbArc
 50
266.8479780002138
 51
359.9999550001257
  0
ARC
  5
B6
330
2F
100
AcDbEntity
  8
ALPHA
100
AcDbCircle
 10
85216.18813175947
 20
-23529.14584643764
 30
0.0
 40
4.0
100
AcDbArc
 50
270.0000280002738
 51
300.0000219997803
  0
ARC
  5
B7
330
2F
100
AcDbEntity
  8
ALPHA
100
AcDbCircle
 10
85215.94069475947
 20
-23533.63904043764
 30
0.0
 40
2.5
100
AcDbArc
 50
86.84896999964806
 51
160.0002959999771
  0
LINE
  5
B8
330
2F
100
AcDbEntity
  8
ALPHA
100
AcDbLine
 10
85215.58816375947
 20
-23533.14583443764
 30
0.0
 11
85214.22008375949
 21
-23536.90460843764
 31
0.0
  0
LINE
  5
B9
330
2F
100
AcDbEntity
  8
ALPHA
100
AcDbLine
 10
85213.59150475946
 20
-23532.78399943764
 30
0.0
 11
85212.34069675946
 21
-23536.22056843764
 31
0.0
  0
LINE
  5
BA
330
2F
100
AcDbEntity
  8
ALPHA
100
AcDbLine
 10
85214.22008375949
 20
-23536.90460843764
 30
0.0
 11
85212.34069675946
 21
-23536.22056843764
 31
0.0
  0
LINE
  5
BB
330
2F
100
AcDbEntity
  8
ALPHA
100
AcDbLine
 10
85216.18813175947
 20
-23533.14584643764
 30
0.0
 11
85215.58815575945
 21
-23533.14584643764
 31
0.0
  0
LINE
  5
BC
330
2F
100
AcDbEntity
  8
ALPHA
100
AcDbLine
 10
85218.18815475947
 20
-23538.44585343764
 30
0.0
 11
85217.71753475947
 21
-23538.56350543764
 31
0.0
  0
LINE
  5
BD
330
2F
100
AcDbEntity
  8
ALPHA
100
AcDbLine
 10
85212.18813175947
 20
-23524.94586443764
 30
0.0
 11
85210.18813175947
 21
-23524.94586443764
 31
0.0
  0
ARC
  5
BE
330
2F
100
AcDbEntity
  8
ALPHA
100
AcDbCircle
 10
85214.18813175947
 20
-23514.94586443764
 30
0.0
 40
4.0
100
AcDbArc
 50
179.999964000184
 51
269.9999459996507
  0
LINE
  5
BF
330
2F
100
AcDbEntity
  8
ALPHA
100
AcDbLine
 10
85212.18813175947
 20
-23518.40996043764
 30
0.0
 11
85212.18813175947
 21
-23524.94586443764
 31
0.0
  0
LINE
  5
C0
330
2F
100
AcDbEntity
  8
ALPHA
100
AcDbLine
 10
85216.18813175947
 20
-23516.94586443763
 30
0.0
 11
85214.18813175947
 21
-23516.94586443763
 31
0.0
  0
LINE
  5
C1
330
2F
100
AcDbEntity
  8
ALPHA
100
AcDbLine
 10
85216.18813175947
 20
-23518.94586443764
 30
0.0
 11
85214.18813175947
 21
-23518.94586443764
 31
0.0
  0
ARC
  5
C2
330
2F
100
AcDbEntity
  8
ALPHA
100
AcDbCircle
 10
85214.18813175947
 20
-23514.94586443764
 30
0.0
 40
2.0
100
AcDbArc
 50
179.999964000184
 51
269.9999459996507
  0
ARC
  5
C3
330
2F
100
AcDbEntity
  8
ALPHA
100
AcDbCircle
 10
85216.18813175947
 20
-23520.94586443764
 30
0.0
 40
4.0
100
AcDbArc
 50
59.99998800029853
 51
90.00003699991514
  0
LINE
  5
C4
330
2F
100
AcDbEntity
  8
ALPHA
100
AcDbLine
 10
85242.18813175947
 20
-23556.44589543764
 30
0.0
 11
85242.18813175947
 21
-23560.94591043764
 31
0.0
  0
LINE
  5
C5
330
2F
100
AcDbEntity
  8
ALPHA
100
AcDbLine
 10
85260.38811275947
 20
-23555.19584943764
 30
0.0
 11
85260.38811275947
 21
-23556.96300043764
 31
0.0
  0
LINE
  5
C6
330
2F
100
AcDbEntity
  8
ALPHA
100
AcDbLine
 10
85255.67067575947
 20
-23557.61060543764
 30
0.0
 11
85259.90558475949
 21
-23557.46271843764
 31
0.0
  0
ARC
  5
C7
330
2F
100
AcDbEntity
  8
ALPHA
100
AcDbCircle
 10
85255.68811575945
 20
-23558.11027743764
 30
0.0
 40
0.5
100
AcDbArc
 50
91.99997100010302
 51
179.9996360001926
  0
ARC
  5
C8
330
2F
100
AcDbEntity
  8
ALPHA
100
AcDbCircle
 10
85259.88811275947
 20
-23556.96300043764
 30
0.0
 40
0.5
100
AcDbArc
 50
272.0000170001611
 51
359.9995999999598
  0
LINE
  5
C9
330
2F
100
AcDbEntity
  8
ALPHA
100
AcDbLine
 10
85255.67069075946
 20
-23551.78108443764
 30
0.0
 11
85259.90558475949
 21
-23551.92897143764
 31
0.0
  0
ARC
  5
CA
330
2F
100
AcDbEntity
  8
ALPHA
100
AcDbCircle
 10
85255.68811575945
 20
-23551.28140543764
 30
0.0
 40
0.5
100
AcDbArc
 50
179.999854999803
 51
268.0000119999482
  0
LINE
  5
CB
330
2F
100
AcDbEntity
  8
ALPHA
100
AcDbLine
 10
85260.38811275947
 20
-23552.42868343764
 30
0.0
 11
85260.38811275947
 21
-23554.19584943764
 31
0.0
  0
LINE
  5
CC
330
2F
100
AcDbEntity
  8
ALPHA
100
AcDbLine
 10
85259.88812875947
 20
-23554.69584343764
 30
0.0
 11
85260.38812875947
 21
-23555.19584443764
 31
0.0
  0
LINE
  5
CD
330
2F
100
AcDbEntity
  8
ALPHA
100
AcDbLine
 10
85260.38812875947
 20
-23554.19584343764
 30
0.0
 11
85259.88812875947
 21
-23554.69584343764
 31
0.0
  0
ARC
  5
CE
330
2F
100
AcDbEntity
  8
ALPHA
100
AcDbCircle
 10
85259.88811275947
 20
-23552.42868343764
 30
0.0
 40
0.5
100
AcDbArc
 50
359.9999829999827
 51
88.00000299982602
  0
LINE
  5
CF
330
2F
100
AcDbEntity
  8
ALPHA
100
AcDbLine
 10
85240.18805475946
 20
-23515.94587943764
 30
0.0
 11
85242.18801675946
 21
-23517.94583743764
 31
0.0
  0
LINE
  5
D0
330
2F
100
AcDbEntity
  8
ALPHA
100
AcDbLine
 10
85258.02811275946
 20
-23517.94586443765
 30
0.0
 11
85258.54782675947
 21
-23523.88615643764
 31
0.0
  0
LINE
  5
D1
330
2F
100
AcDbEntity
  8
ALPHA
100
AcDbLine
 10
85220.18813175947
 20
-23509.44586443764
 30
0.0
 11
85218.18813175947
 21
-23509.44586443764
 31
0.0
  0
LINE
  5
D2
330
2F
100
AcDbEntity
  8
ALPHA
100
AcDbLine
 10
85212.18813175947
 20
-23509.44586443764
 30
0.0
 11
85210.18813175947
 21
-23509.44586443764
 31
0.0
  0
LINE
  5
D3
330
2F
100
AcDbEntity
  8
ALPHA
100
AcDbLine
 10
85310.48807075947
 20
-23542.94586443764
 30
0.0
 11
85310.48807075947
 21
-23598.94583443764
 31
0.0
  0
LINE
  5
D4
330
2F
100
AcDbEntity
  8
ALPHA
100
AcDbLine
 10
85309.48807075947
 20
-23538.94584943764
 30
0.0
 11
85309.48807075947
 21
-23602.94584943764
 31
0.0
  0
LINE
  5
D5
330
2F
100
AcDbEntity
  8
ALPHA
100
AcDbLine
 10
85279.68807075945
 20
-23538.94584943764
 30
0.0
 11
85279.68807075945
 21
-23602.94584943764
 31
0.0
  0
LINE
  5
D6
330
2F
100
AcDbEntity
  8
ALPHA
100
AcDbLine
 10
85330.18807041088
 20
-23540.79734669834
 30
0.0
 11
85330.18807041088
 21
-23566.24584919834
 31
0.0
  0
LINE
  5
D7
330
2F
100
AcDbEntity
  8
ALPHA
100
AcDbLine
 10
85327.68806987547
 20
-23540.05420477415
 30
0.0
 11
85327.68807044617
 21
-23601.83749366155
 31
0.0
  0
LINE
  5
D8
330
2F
100
AcDbEntity
  8
ALPHA
100
AcDbLine
 10
85317.98807041088
 20
-23602.34584919834
 30
0.0
 11
85317.98807041088
 21
-23539.54584919834
 31
0.0
  0
LINE
  5
D9
330
2F
100
AcDbEntity
  8
ALPHA
100
AcDbLine
 10
85324.98807075947
 20
-23617.74582143764
 30
0.0
 11
85317.98807075947
 21
-23617.74582143764
 31
0.0
  0
LINE
  5
DA
330
2F
100
AcDbEntity
  8
ALPHA
100
AcDbLine
 10
85329.5720264109
 20
-23601.73875969834
 30
0.0
 11
85317.98807041088
 21
-23602.34584919834
 31
0.0
  0
LINE
  5
DB
330
2F
100
AcDbEntity
  8
ALPHA
100
AcDbLine
 10
85317.98807075947
 20
-23605.94586043764
 30
0.0
 11
85322.69739075947
 21
-23605.94586043764
 31
0.0
  0
LINE
  5
DC
330
2F
100
AcDbEntity
  8
ALPHA
100
AcDbLine
 10
85317.98807075947
 20
-23621.94581843764
 30
0.0
 11
85317.98807075947
 21
-23598.94583443764
 31
0.0
  0
LINE
  5
DD
330
2F
100
AcDbEntity
  8
ALPHA
100
AcDbLine
 10
85315.98810075947
 20
-23623.94591443764
 30
0.0
 11
85317.98813175948
 21
-23621.94588743764
 31
0.0
  0
LINE
  5
DE
330
2F
100
AcDbEntity
  8
ALPHA
100
AcDbLine
 10
85281.68807075945
 20
-23604.94584943764
 30
0.0
 11
85307.48807075949
 21
-23604.94584943764
 31
0.0
  0
ARC
  5
DF
330
2F
100
AcDbEntity
  8
ALPHA
100
AcDbCircle
 10
85281.68807075945
 20
-23602.94584943764
 30
0.0
 40
2.0
100
AcDbArc
 50
180.0000319998364
 51
270.0000280002738
  0
ARC
  5
E0
330
2F
100
AcDbEntity
  8
ALPHA
100
AcDbCircle
 10
85266.93807075947
 20
-23570.94584943764
 30
0.0
 40
2.25
100
AcDbArc
 50
270.0000280002738
 51
89.99999200004088
  0
LINE
  5
E1
330
2F
100
AcDbEntity
  8
ALPHA
100
AcDbLine
 10
85265.78812275946
 20
-23568.67576843765
 30
0.0
 11
85265.78812275946
 21
-23573.21591443764
 31
0.0
  0
LINE
  5
E2
330
2F
100
AcDbEntity
  8
ALPHA
100
AcDbLine
 10
85268.48811875947
 20
-23569.31494443764
 30
0.0
 11
85268.48811875947
 21
-23572.57675443764
 31
0.0
  0
ARC
  5
E3
330
2F
100
AcDbEntity
  8
ALPHA
100
AcDbCircle
 10
85307.48807075949
 20
-23602.94584943764
 30
0.0
 40
2.0
100
AcDbArc
 50
270.0000280002738
 51
1.00001573371e-05
  0
LINE
  5
E4
330
2F
100
AcDbEntity
  8
ALPHA
100
AcDbLine
 10
85317.98807075947
 20
-23598.94583443764
 30
0.0
 11
85310.48807075947
 21
-23598.94583443764
 31
0.0
  0
LINE
  5
E5
330
2F
100
AcDbEntity
  8
ALPHA
100
AcDbLine
 10
85325.98807075947
 20
-23602.39337843764
 30
0.0
 11
85325.98710875947
 21
-23616.74582543764
 31
0.0
  0
LINE
  5
E6
330
2F
100
AcDbEntity
  8
ALPHA
100
AcDbLine
 10
85322.69739075947
 20
-23602.09904343764
 30
0.0
 11
85322.69739075947
 21
-23617.74582143764
 31
0.0
  0
ARC
  5
E7
330
2F
100
AcDbEntity
  8
ALPHA
100
AcDbCircle
 10
85324.98807075947
 20
-23616.74582143764
 30
0.0
 40
1.0
100
AcDbArc
 50
270.0000009996823
 51
1.00001573371e-05
  0
LINE
  5
E8
330
2F
100
AcDbEntity
  8
ALPHA
100
AcDbLine
 10
85330.18807041088
 20
-23584.14584919835
 30
0.0
 11
85330.18807041088
 21
-23601.09435169834
 31
0.0
  0
ARC
  5
E9
330
2F
100
AcDbEntity
  8
ALPHA
100
AcDbCircle
 10
85325.48807075947
 20
-23602.39337843764
 30
0.0
 40
0.5
100
AcDbArc
 50
359.9999829999827
 51
84.80555100022598
  0
ARC
  5
EA
330
2F
100
AcDbEntity
  8
ALPHA
100
AcDbCircle
 10
85329.53805791088
 20
-23601.08964819834
 30
0.0
 40
0.65
100
AcDbArc
 50
273.0000122176268
 51
0.0
  0
LINE
  5
EB
330
2F
100
AcDbEntity
  8
ALPHA
100
AcDbLine
 10
85330.02050591086
 20
-23566.24584919834
 30
0.0
 11
85330.02050591086
 21
-23575.64584919834
 31
0.0
  0
LINE
  5
EC
330
2F
100
AcDbEntity
  8
ALPHA
100
AcDbLine
 10
85327.68807041088
 20
-23584.14584919835
 30
0.0
 11
85330.18807041088
 21
-23584.14584919835
 31
0.0
  0
LINE
  5
ED
330
2F
100
AcDbEntity
  8
ALPHA
100
AcDbLine
 10
85330.02050591086
 20
-23575.64584919834
 30
0.0
 11
85327.68807041088
 21
-23575.64584919834
 31
0.0
  0
LINE
  5
EE
330
2F
100
AcDbEntity
  8
ALPHA
100
AcDbLine
 10
85329.88807041087
 20
-23584.14584919835
 30
0.0
 11
85329.88807041087
 21
-23575.64584919834
 31
0.0
  0
LINE
  5
EF
330
2F
100
AcDbEntity
  8
ALPHA
100
AcDbLine
 10
85330.02050591086
 20
-23566.24584919834
 30
0.0
 11
85330.18806991087
 21
-23566.24584919834
 31
0.0
  0
LINE
  5
F0
330
2F
100
AcDbEntity
  8
ALPHA
100
AcDbLine
 10
85329.57215841088
 20
-23540.15294569834
 30
0.0
 11
85317.98807041088
 21
-23539.54584919834
 31
0.0
  0
LINE
  5
F1
330
2F
100
AcDbEntity
  8
ALPHA
100
AcDbLine
 10
85324.98807075947
 20
-23524.14587643764
 30
0.0
 11
85317.98807075947
 21
-23524.14587643764
 31
0.0
  0
LINE
  5
F2
330
2F
100
AcDbEntity
  8
ALPHA
100
AcDbLine
 10
85317.98807075947
 20
-23535.94583743764
 30
0.0
 11
85322.69739075947
 21
-23535.94583743764
 31
0.0
  0
LINE
  5
F3
330
2F
100
AcDbEntity
  8
ALPHA
100
AcDbLine
 10
85264.48811875947
 20
-23513.24585243764
 30
0.0
 11
85264.48811875947
 21
-23517.94584943764
 31
0.0
  0
LINE
  5
F4
330
2F
100
AcDbEntity
  8
ALPHA
100
AcDbLine
 10
85281.68807075945
 20
-23536.94584943764
 30
0.0
 11
85307.48807075949
 21
-23536.94584943764
 31
0.0
  0
ARC
  5
F5
330
2F
100
AcDbEntity
  8
ALPHA
100
AcDbCircle
 10
85281.68807075945
 20
-23538.94584943764
 30
0.0
 40
2.0
100
AcDbArc
 50
89.99998199988354
 51
180.0000189997986
  0
LINE
  5
F6
330
2F
100
AcDbEntity
  8
ALPHA
100
AcDbLine
 10
85317.98807075947
 20
-23519.94587943764
 30
0.0
 11
85317.98807075947
 21
-23542.94586443764
 31
0.0
  0
ARC
  5
F7
330
2F
100
AcDbEntity
  8
ALPHA
100
AcDbCircle
 10
85307.48807075949
 20
-23538.94584943764
 30
0.0
 40
2.0
100
AcDbArc
 50
1.00180832486e-05
 51
89.99999200004088
  0
LINE
  5
F8
330
2F
100
AcDbEntity
  8
ALPHA
100
AcDbLine
 10
85317.98807075947
 20
-23542.90846543764
 30
0.0
 11
85310.48807075947
 21
-23542.90846543764
 31
0.0
  0
LINE
  5
F9
330
2F
100
AcDbEntity
  8
ALPHA
100
AcDbLine
 10
85315.98805475947
 20
-23517.94583443764
 30
0.0
 11
85317.98808575947
 21
-23519.94586843764
 31
0.0
  0
LINE
  5
FA
330
2F
100
AcDbEntity
  8
ALPHA
100
AcDbLine
 10
85322.69739075947
 20
-23539.79265443765
 30
0.0
 11
85322.69739075947
 21
-23524.14587643764
 31
0.0
  0
LINE
  5
FB
330
2F
100
AcDbEntity
  8
ALPHA
100
AcDbLine
 10
85325.98807075947
 20
-23525.14587243764
 30
0.0
 11
85325.98807075947
 21
-23539.96511143764
 31
0.0
  0
ARC
  5
FC
330
2F
100
AcDbEntity
  8
ALPHA
100
AcDbCircle
 10
85329.53805791088
 20
-23540.80205069834
 30
0.0
 40
0.6500003087
100
AcDbArc
 50
0.0
 51
86.99999008838782
  0
ARC
  5
FD
330
2F
100
AcDbEntity
  8
ALPHA
100
AcDbCircle
 10
85324.98807075947
 20
-23525.14587643764
 30
0.0
 40
1.0
100
AcDbArc
 50
1.73026734315e-05
 51
90.00000299988045
  0
ENDBLK
  5
31
330
2F
100
AcDbEntity
  8
0
100
AcDbBlockEnd
  0
ENDSEC
  0
SECTION
  2
ENTITIES
  0
INSERT
  5
FF
330
17
100
AcDbEntity
  8
0
100
AcDbBlockReference
  2
RTYHTUJH54TGT
 10
-85210.18813175947
 20
23631.44586443764
 30
0.0
  0
ENDSEC
  0
SECTION
  2
OBJECTS
  0
DICTIONARY
  5
A
330
0
100
AcDbDictionary
281
1
  3
ACAD_COLOR
350
B
  3
ACAD_GROUP
350
C
  3
ACAD_LAYOUT
350
D
  3
ACAD_MATERIAL
350
E
  3
ACAD_MLEADERSTYLE
350
F
  3
ACAD_MLINESTYLE
350
10
  3
ACAD_PLOTSETTINGS
350
11
  3
ACAD_PLOTSTYLENAME
350
12
  3
ACAD_SCALELIST
350
14
  3
ACAD_TABLESTYLE
350
15
  3
ACAD_VISUALSTYLE
350
16
  3
EZDXF_META
350
2D
  0
DICTIONARY
  5
B
330
A
100
AcDbDictionary
281
1
  0
DICTIONARY
  5
C
330
A
100
AcDbDictionary
281
1
  0
DICTIONARY
  5
D
330
A
100
AcDbDictionary
281
1
  3
Model
350
1A
  3
Layout1
350
1E
  0
DICTIONARY
  5
E
330
A
100
AcDbDictionary
281
1
  3
ByBlock
350
1F
  3
ByLayer
350
20
  3
Global
350
21
  0
DICTIONARY
  5
F
330
A
100
AcDbDictionary
281
1
  3
Standard
350
2C
  0
DICTIONARY
  5
10
330
A
100
AcDbDictionary
281
1
  3
Standard
350
22
  0
DICTIONARY
  5
11
330
A
100
AcDbDictionary
281
1
  0
ACDBDICTIONARYWDFLT
  5
12
330
A
100
AcDbDictionary
281
1
  3
Normal
350
13
100
AcDbDictionaryWithDefault
340
13
  0
ACDBPLACEHOLDER
  5
13
330
12
  0
DICTIONARY
  5
14
330
A
100
AcDbDictionary
281
1
  0
DICTIONARY
  5
15
330
A
100
AcDbDictionary
281
1
  0
DICTIONARY
  5
16
330
A
100
AcDbDictionary
281
1
  0
LAYOUT
  5
1A
330
D
100
AcDbPlotSettings
  1

  4
A3
  6

 40
7.5
 41
20.0
 42
7.5
 43
20.0
 44
420.0
 45
297.0
 46
0.0
 47
0.0
 48
0.0
 49
0.0
140
0.0
141
0.0
142
1.0
143
1.0
 70
1024
 72
1
 73
0
 74
5
  7

 75
16
 76
0
 77
2
 78
300
147
1.0
148
0.0
149
0.0
100
AcDbLayout
  1
Model
 70
1
 71
0
 10
0.0
 20
0.0
 11
420.0
 21
297.0
 12
0.0
 22
0.0
 32
0.0
 14
1e+20
 24
1e+20
 34
1e+20
 15
-1e+20
 25
-1e+20
 35
-1e+20
146
0.0
 13
0.0
 23
0.0
 33
0.0
 16
1.0
 26
0.0
 36
0.0
 17
0.0
 27
1.0
 37
0.0
 76
1
330
17
  0
LAYOUT
  5
1E
330
D
100
AcDbPlotSettings
  1

  4
A3
  6

 40
7.5
 41
20.0
 42
7.5
 43
20.0
 44
420.0
 45
297.0
 46
0.0
 47
0.0
 48
0.0
 49
0.0
140
0.0
141
0.0
142
1.0
143
1.0
 70
0
 72
1
 73
0
 74
5
  7

 75
16
 76
0
 77
2
 78
300
147
1.0
148
0.0
149
0.0
100
AcDbLayout
  1
Layout1
 70
1
 71
1
 10
0.0
 20
0.0
 11
420.0
 21
297.0
 12
0.0
 22
0.0
 32
0.0
 14
1e+20
 24
1e+20
 34
1e+20
 15
-1e+20
 25
-1e+20
 35
-1e+20
146
0.0
 13
0.0
 23
0.0
 33
0.0
 16
1.0
 26
0.0
 36
0.0
 17
0.0
 27
1.0
 37
0.0
 76
1
330
1B
  0
MATERIAL
  5
1F
102
{ACAD_REACTORS
330
E
102
}
330
E
100
AcDbMaterial
  1
ByBlock
  2

 70
0
 40
1.0
 71
1
 41
1.0
 91
-1023410177
 42
1.0
 72
1
  3

 73
1
 74
1
 75
1
 44
0.5
 73
0
 45
1.0
 46
1.0
 77
1
  4

 78
1
 79
1
170
1
 48
1.0
171
1
  6

172
1
173
1
174
1
140
1.0
141
1.0
175
1
  7

176
1
177
1
178
1
143
1.0
179
1
  8

270
1
271
1
272
1
145
1.0
146
1.0
273
1
  9

274
1
275
1
276
1
 42
1.0
 72
1
  3

 73
1
 74
1
 75
1
 94
63
  0
MATERIAL
  5
20
102
{ACAD_REACTORS
330
E
102
}
330
E
100
AcDbMaterial
  1
ByLayer
  2

 70
0
 40
1.0
 71
1
 41
1.0
 91
-1023410177
 42
1.0
 72
1
  3

 73
1
 74
1
 75
1
 44
0.5
 73
0
 45
1.0
 46
1.0
 77
1
  4

 78
1
 79
1
170
1
 48
1.0
171
1
  6

172
1
173
1
174
1
140
1.0
141
1.0
175
1
  7

176
1
177
1
178
1
143
1.0
179
1
  8

270
1
271
1
272
1
145
1.0
146
1.0
273
1
  9

274
1
275
1
276
1
 42
1.0
 72
1
  3

 73
1
 74
1
 75
1
 94
63
  0
MATERIAL
  5
21
102
{ACAD_REACTORS
330
E
102
}
330
E
100
AcDbMaterial
  1
Global
  2

 70
0
 40
1.0
 71
1
 41
1.0
 91
-1023410177
 42
1.0
 72
1
  3

 73
1
 74
1
 75
1
 44
0.5
 73
0
 45
1.0
 46
1.0
 77
1
  4

 78
1
 79
1
170
1
 48
1.0
171
1
  6

172
1
173
1
174
1
140
1.0
141
1.0
175
1
  7

176
1
177
1
178
1
143
1.0
179
1
  8

270
1
271
1
272
1
145
1.0
146
1.0
273
1
  9

274
1
275
1
276
1
 42
1.0
 72
1
  3

 73
1
 74
1
 75
1
 94
63
  0
MLINESTYLE
  5
22
102
{ACAD_REACTORS
330
10
102
}
330
10
100
AcDbMlineStyle
  2
Standard
 70
0
  3

 62
256
 51
90.0
 52
90.0
 71
2
 49
0.5
 62
256
  6
BYLAYER
 49
-0.5
 62
256
  6
BYLAYER
  0
MLEADERSTYLE
  5
2C
102
{ACAD_REACTORS
330
F
102
}
330
F
100
AcDbMLeaderStyle
179
2
170
2
171
1
172
0
 90
2
 40
0.0
 41
0.0
173
1
 91
-1056964608
 92
-2
290
1
 42
2.0
291
1
 43
8.0
  3
Standard
 44
4.0
300

342
29
174
1
175
1
176
0
178
1
 93
-1056964608
 45
4.0
292
0
297
0
 46
4.0
 94
-1056964608
 47
1.0
 49
1.0
140
1.0
294
1
141
0.0
177
0
142
1.0
295
0
296
0
143
3.75
271
0
272
9
273
9
  0
DICTIONARY
  5
2D
330
A
100
AcDbDictionary
280
1
281
1
  3
CREATED_BY_EZDXF
350
2E
  3
WRITTEN_BY_EZDXF
350
103
  0
DICTIONARYVAR
  5
2E
330
2D
100
DictionaryVariables
280
0
  1
1.4.4 @ 2026-09-23T12:55:12.968009+00:00
  0
DICTIONARYVAR
  5
103
330
2D
100
DictionaryVariables
280
0
  1
1.4.4 @ 2026-09-23T12:55:13.000025+00:00
  0
ENDSEC
  0
EOF
