  0
SECTION
  2
HEADER
  9
$ACADVER
  1
AC1032
  9
$ACADMAINTVER
 90
4
  9
$DWGCODEPAGE
  3
ANSI_1252
  9
$LASTSAVEDBY
  1
ezdxf
  9
$REQUIREDVERSIONS
160
0
  9
$INSBASE
 10
0.0
 20
0.0
 30
0.0
  9
$EXTMIN
 10
1e+20
 20
1e+20
 30
1e+20
  9
$EXTMAX
 10
-1e+20
 20
-1e+20
 30
-1e+20
  9
$LIMMIN
 10
0.0
 20
0.0
  9
$LIMMAX
 10
420.0
 20
297.0
  9
$ORTHOMODE
 70
0
  9
$REGENMODE
 70
1
  9
$FILLMODE
 70
1
  9
$QTEXTMODE
 70
0
  9
$MIRRTEXT
 70
1
  9
$LTSCALE
 40
1.0
  9
$ATTMODE
 70
1
  9
$TEXTSIZE
 40
2.5
  9
$TRACEWID
 40
1.0
  9
$TEXTSTYLE
  7
Standard
  9
$CLAYER
  8
0
  9
$CELTYPE
  6
ByLayer
  9
$CECOLOR
 62
256
  9
$CELTSCALE
 40
1.0
  9
$DISPSILH
 70
0
  9
$DIMSCALE
 40
1.0
  9
$DIMASZ
 40
2.5
  9
$DIMEXO
 40
0.625
  9
$DIMDLI
 40
3.75
  9
$DIMRND
 40
0.0
  9
$DIMDLE
 40
0.0
  9
$DIMEXE
 40
1.25
  9
$DIMTP
 40
0.0
  9
$DIMTM
 40
0.0
  9
$DIMTXT
 40
2.5
  9
$DIMCEN
 40
2.5
  9
$DIMTSZ
 40
0.0
  9
$DIMTOL
 70
0
  9
$DIMLIM
 70
0
  9
$DIMTIH
 70
0
  9
$DIMTOH
 70
0
  9
$DIMSE1
 70
0
  9
$DIMSE2
 70
0
  9
$DIMTAD
 70
1
  9
$DIMZIN
 70
8
  9
$DIMBLK
  1

  9
$DIMASO
 70
1
  9
$DIMSHO
 70
1
  9
$DIMPOST
  1

  9
$DIMAPOST
  1

  9
$DIMALT
 70
0
  9
$DIMALTD
 70
3
  9
$DIMALTF
 40
0.03937007874
  9
$DIMLFAC
 40
1.0
  9
$DIMTOFL
 70
1
  9
$DIMTVP
 40
0.0
  9
$DIMTIX
 70
0
  9
$DIMSOXD
 70
0
  9
$DIMSAH
 70
0
  9
$DIMBLK1
  1

  9
$DIMBLK2
  1

  9
$DIMSTYLE
  2
ISO-25
  9
$DIMCLRD
 70
0
  9
$DIMCLRE
 70
0
  9
$DIMCLRT
 70
0
  9
$DIMTFAC
 40
1.0
  9
$DIMGAP
 40
0.625
  9
$DIMJUST
 70
0
  9
$DIMSD1
 70
0
  9
$DIMSD2
 70
0
  9
$DIMTOLJ
 70
0
  9
$DIMTZIN
 70
8
  9
$DIMALTZ
 70
0
  9
$DIMALTTZ
 70
0
  9
$DIMUPT
 70
0
  9
$DIMDEC
 70
2
  9
$DIMTDEC
 70
2
  9
$DIMALTU
 70
2
  9
$DIMALTTD
 70
3
  9
$DIMTXSTY
  7
Standard
  9
$DIMAUNIT
 70
0
  9
$DIMADEC
 70
0
  9
$DIMALTRND
 40
0.0
  9
$DIMAZIN
 70
0
  9
$DIMDSEP
 70
44
  9
$DIMATFIT
 70
3
  9
$DIMFRAC
 70
0
  9
$DIMLDRBLK
  1

  9
$DIMLUNIT
 70
2
  9
$DIMLWD
 70
-2
  9
$DIMLWE
 70
-2
  9
$DIMTMOVE
 70
0
  9
$DIMFXL
 40
1.0
  9
$DIMFXLON
 70
0
  9
$DIMJOGANG
 40
0.785398163397
  9
$DIMTFILL
 70
0
  9
$DIMTFILLCLR
 70
0
  9
$DIMARCSYM
 70
0
  9
$DIMLTYPE
  6

  9
$DIMLTEX1
  6

  9
$DIMLTEX2
  6

  9
$DIMTXTDIRECTION
 70
0
  9
$LUNITS
 70
2
  9
$LUPREC
 70
4
  9
$SKETCHINC
 40
1.0
  9
$FILLETRAD
 40
10.0
  9
$AUNITS
 70
0
  9
$AUPREC
 70
2
  9
$MENU
  1
.
  9
$ELEVATION
 40
0.0
  9
$PELEVATION
 40
0.0
  9
$THICKNESS
 40
0.0
  9
$LIMCHECK
 70
0
  9
$CHAMFERA
 40
0.0
  9
$CHAMFERB
 40
0.0
  9
$CHAMFERC
 40
0.0
  9
$CHAMFERD
 40
0.0
  9
$SKPOLY
 70
0
  9
$TDCREATE
 40
2461307.828865741
  9
$TDUCREATE
 40
2458532.153996898
  9
$TDUPDATE
 40
2461307.828865741
  9
$TDUUPDATE
 40
2458532.1544311
  9
$TDINDWG
 40
0.0
  9
$TDUSRTIMER
 40
0.0
  9
$USRTIMER
 70
1
  9
$ANGBASE
 50
0.0
  9
$ANGDIR
 70
0
  9
$PDMODE
 70
0
  9
$PDSIZE
 40
0.0
  9
$PLINEWID
 40
0.0
  9
$SPLFRAME
 70
0
  9
$SPLINETYPE
 70
6
  9
$SPLINESEGS
 70
8
  9
$HANDSEED
  5
E2
  9
$SURFTAB1
 70
6
  9
$SURFTAB2
 70
6
  9
$SURFTYPE
 70
6
  9
$SURFU
 70
6
  9
$SURFV
 70
6
  9
$UCSBASE
  2

  9
$UCSNAME
  2

  9
$UCSORG
 10
0.0
 20
0.0
 30
0.0
  9
$UCSXDIR
 10
1.0
 20
0.0
 30
0.0
  9
$UCSYDIR
 10
0.0
 20
1.0
 30
0.0
  9
$UCSORTHOREF
  2

  9
$UCSORTHOVIEW
 70
0
  9
$UCSORGTOP
 10
0.0
 20
0.0
 30
0.0
  9
$UCSORGBOTTOM
 10
0.0
 20
0.0
 30
0.0
  9
$UCSORGLEFT
 10
0.0
 20
0.0
 30
0.0
  9
$UCSORGRIGHT
 10
0.0
 20
0.0
 30
0.0
  9
$UCSORGFRONT
 10
0.0
 20
0.0
 30
0.0
  9
$UCSORGBACK
 10
0.0
 20
0.0
 30
0.0
  9
$PUCSBASE
  2

  9
$PUCSNAME
  2

  9
$PUCSORG
 10
0.0
 20
0.0
 30
0.0
  9
$PUCSXDIR
 10
1.0
 20
0.0
 30
0.0
  9
$PUCSYDIR
 10
0.0
 20
1.0
 30
0.0
  9
$PUCSORTHOREF
  2

  9
$PUCSORTHOVIEW
 70
0
  9
$PUCSORGTOP
 10
0.0
 20
0.0
 30
0.0
  9
$PUCSORGBOTTOM
 10
0.0
 20
0.0
 30
0.0
  9
$PUCSORGLEFT
 10
0.0
 20
0.0
 30
0.0
  9
$PUCSORGRIGHT
 10
0.0
 20
0.0
 30
0.0
  9
$PUCSORGFRONT
 10
0.0
 20
0.0
 30
0.0
  9
$PUCSORGBACK
 10
0.0
 20
0.0
 30
0.0
  9
$USERI1
 70
0
  9
$USERI2
 70
0
  9
$USERI3
 70
0
  9
$USERI4
 70
0
  9
$USERI5
 70
0
  9
$USERR1
 40
0.0
  9
$USERR2
 40
0.0
  9
$USERR3
 40
0.0
  9
$USERR4
 40
0.0
  9
$USERR5
 40
0.0
  9
$WORLDVIEW
 70
1
  9
$SHADEDGE
 70
3
  9
$SHADEDIF
 70
70
  9
$TILEMODE
 70
1
  9
$MAXACTVP
 70
64
  9
$PINSBASE
 10
0.0
 20
0.0
 30
0.0
  9
$PLIMCHECK
 70
0
  9
$PEXTMIN
 10
1e+20
 20
1e+20
 30
1e+20
  9
$PEXTMAX
 10
-1e+20
 20
-1e+20
 30
-1e+20
  9
$PLIMMIN
 10
0.0
 20
0.0
  9
$PLIMMAX
 10
420.0
 20
297.0
  9
$UNITMODE
 70
0
  9
$VISRETAIN
 70
1
  9
$PLINEGEN
 70
0
  9
$PSLTSCALE
 70
1
  9
$TREEDEPTH
 70
3020
  9
$CMLSTYLE
  2
Standard
  9
$CMLJUST
 70
0
  9
$CMLSCALE
 40
20.0
  9
$PROXYGRAPHICS
 70
1
  9
$MEASUREMENT
 70
1
  9
$CELWEIGHT
370
-1
  9
$ENDCAPS
280
0
  9
$JOINSTYLE
280
0
  9
$LWDISPLAY
290
0
  9
$INSUNITS
 70
0
  9
$HYPERLINKBASE
  1

  9
$STYLESHEET
  1

  9
$XEDIT
290
1
  9
$CEPSNTYPE
380
0
  9
$PSTYLEMODE
290
1
  9
$FINGERPRINTGUID
  2
{14BC9E54-05DE-40EE-85CF-4E23D6F8C939}
  9
$VERSIONGUID
  2
{09F97FBE-60B8-4303-97BB-E18380CC7EF2}
  9
$EXTNAMES
290
1
  9
$PSVPSCALE
 40
0.0
  9
$OLESTARTUP
290
0
  9
$SORTENTS
280
127
  9
$INDEXCTL
280
0
  9
$HIDETEXT
280
1
  9
$XCLIPFRAME
280
1
  9
$HALOGAP
280
0
  9
$OBSCOLOR
 70
257
  9
$OBSLTYPE
280
0
  9
$INTERSECTIONDISPLAY
280
0
  9
$INTERSECTIONCOLOR
 70
257
  9
$DIMASSOC
280
2
  9
$PROJECTNAME
  1

  9
$CAMERADISPLAY
290
0
  9
$LENSLENGTH
 40
50.0
  9
$CAMERAHEIGHT
 40
0.0
  9
$STEPSPERSEC
 40
24.0
  9
$STEPSIZE
 40
100.0
  9
$3DDWFPREC
 40
2.0
  9
$PSOLWIDTH
 40
0.005
  9
$PSOLHEIGHT
 40
0.08
  9
$LOFTANG1
 40
1.570796326795
  9
$LOFTANG2
 40
1.570796326795
  9
$LOFTMAG1
 40
0.0
  9
$LOFTMAG2
 40
0.0
  9
$LOFTPARAM
 70
7
  9
$LOFTNORMALS
280
1
  9
$LATITUDE
 40
37.795
  9
$LONGITUDE
 40
-122.394
  9
$NORTHDIRECTION
 40
0.0
  9
$TIMEZONE
 70
-8000
  9
$LIGHTGLYPHDISPLAY
280
1
  9
$TILEMODELIGHTSYNCH
280
1
  9
$CMATERIAL
347
20
  9
$SOLIDHIST
280
0
  9
$SHOWHIST
280
1
  9
$DWFFRAME
280
2
  9
$DGNFRAME
280
2
  9
$REALWORLDSCALE
290
1
  9
$INTERFERECOLOR
 62
256
  9
$CSHADOW
280
0
  9
$SHADOWPLANELOCATION
 40
0.0
  0
ENDSEC
  0
SECTION
  2
CLASSES
  0
CLASS
  1
ACDBDICTIONARYWDFLT
  2
AcDbDictionaryWithDefault
  3
ObjectDBX Classes
 90
0
 91
0
280
0
281
0
  0
CLASS
  1
SUN
  2
AcDbSun
  3
SCENEOE
 90
1153
 91
0
280
0
281
0
  0
CLASS
  1
VISUALSTYLE
  2
AcDbVisualStyle
  3
ObjectDBX Classes
 90
4095
 91
0
280
0
281
0
  0
CLASS
  1
MATERIAL
  2
AcDbMaterial
  3
ObjectDBX Classes
 90
1153
 91
0
280
0
281
0
  0
CLASS
  1
SCALE
  2
AcDbScale
  3
ObjectDBX Classes
 90
1153
 91
0
280
0
281
0
  0
CLASS
  1
TABLESTYLE
  2
AcDbTableStyle
  3
ObjectDBX Classes
 90
4095
 91
0
280
0
281
0
  0
CLASS
  1
MLEADERSTYLE
  2
AcDbMLeaderStyle
  3
ACDB_MLEADERSTYLE_CLASS
 90
4095
 91
0
280
0
281
0
  0
CLASS
  1
DICTIONARYVAR
  2
AcDbDictionaryVar
  3
ObjectDBX Classes
 90
0
 91
0
280
0
281
0
  0
CLASS
  1
CELLSTYLEMAP
  2
AcDbCellStyleMap
  3
ObjectDBX Classes
 90
1152
 91
0
280
0
281
0
  0
CLASS
  1
MENTALRAYRENDERSETTINGS
  2
AcDbMentalRayRenderSettings
  3
SCENEOE
 90
1024
 91
0
280
0
281
0
  0
CLASS
  1
ACDBDETAILVIEWSTYLE
  2
AcDbDetailViewStyle
  3
ObjectDBX Classes
 90
1025
 91
0
280
0
281
0
  0
CLASS
  1
ACDBSECTIONVIEWSTYLE
  2
AcDbSectionViewStyle
  3
ObjectDBX Classes
 90
1025
 91
0
280
0
281
0
  0
CLASS
  1
RASTERVARIABLES
  2
AcDbRasterVariables
  3
ISM
 90
0
 91
0
280
0
281
0
  0
CLASS
  1
LAYOUT
  2
AcDbLayout
  3
ObjectDBX Classes
 90
0
 91
0
280
0
281
0
  0
CLASS
  1
ACDBPLACEHOLDER
  2
AcDbPlaceHolder
  3
ObjectDBX Classes
 90
0
 91
0
280
0
281
0
  0
ENDSEC
  0
SECTION
  2
TABLES
  0
TABLE
  2
VPORT
  5
8
330
0
100
AcDbSymbolTable
 70
1
  0
VPORT
  5
23
330
8
100
AcDbSymbolTableRecord
100
AcDbViewportTableRecord
  2
*Active
 70
0
 10
0.0
 20
0.0
 11
1.0
 21
1.0
 12
0.0
 22
0.0
 13
0.0
 23
0.0
 14
0.5
 24
0.5
 15
0.5
 25
0.5
 16
0.0
 26
0.0
 36
1.0
 17
0.0
 27
0.0
 37
0.0
 40
1000.0
 41
1.34
 42
50.0
 43
0.0
 44
0.0
 50
0.0
 51
0.0
 71
0
 72
1000
 73
1
 74
3
 75
0
 76
0
 77
0
 78
0
281
0
 65
0
146
0.0
  0
ENDTAB
  0
TABLE
  2
LTYPE
  5
2
330
0
100
AcDbSymbolTable
 70
4
  0
LTYPE
  5
24
330
2
100
AcDbSymbolTableRecord
100
AcDbLinetypeTableRecord
  2
ByBlock
 70
0
  3

 72
65
 73
0
 40
0.0
  0
LTYPE
  5
25
330
2
100
AcDbSymbolTableRecord
100
AcDbLinetypeTableRecord
  2
ByLayer
 70
0
  3

 72
65
 73
0
 40
0.0
  0
LTYPE
  5
26
330
2
100
AcDbSymbolTableRecord
100
AcDbLinetypeTableRecord
  2
Continuous
 70
0
  3

 72
65
 73
0
 40
0.0
  0
LTYPE
  5
DB
330
2
100
AcDbSymbolTableRecord
100
AcDbLinetypeTableRecord
  2
DASHED
 70
0
  3
Dashed __ __ __ __ __ __ __ __ __ __ __ __ __ _
 72
65
 73
2
 40
0.75
 49
0.5
 74
0
 49
-0.25
 74
0
  0
ENDTAB
  0
TABLE
  2
LAYER
  5
1
330
0
100
AcDbSymbolTable
 70
4
  0
LAYER
  5
27
330
1
100
AcDbSymbolTableRecord
100
AcDbLayerTableRecord
  2
0
 70
0
 62
7
  6
Continuous
370
-3
390
13
347
21
  0
LAYER
  5
28
330
1
100
AcDbSymbolTableRecord
100
AcDbLayerTableRecord
  2
Defpoints
 70
0
 62
7
  6
Continuous
290
0
370
-3
390
13
347
21
  0
LAYER
  5
D9
330
1
100
AcDbSymbolTableRecord
100
AcDbLayerTableRecord
  2
--8N-THT. FIXING HOLE
 70
0
 62
4
  6
CONTINUOUS
370
-3
390
13
347
21
  0
LAYER
  5
DA
330
1
100
AcDbSymbolTableRecord
100
AcDbLayerTableRecord
  2
--4N-THT. MCB-MCCB-ACB
 70
0
 62
124
  6
CONTINUOUS
370
-3
390
13
347
21
  0
ENDTAB
  0
TABLE
  2
STYLE
  5
5
330
0
100
AcDbSymbolTable
 70
2
  0
STYLE
  5
29
330
5
100
AcDbSymbolTableRecord
100
AcDbTextStyleTableRecord
  2
Standard
 70
0
 40
0.0
 41
1.0
 50
0.0
 71
0
 42
2.5
  3
txt
  4

  0
STYLE
  5
DC
330
5
100
AcDbSymbolTableRecord
100
AcDbTextStyleTableRecord
  2
VNI-TNR-DIM
 70
0
 40
0.0
 41
1.0
 50
0.0
 71
0
 42
500.0
  3
times.ttf
  4

  0
ENDTAB
  0
TABLE
  2
VIEW
  5
7
330
0
100
AcDbSymbolTable
 70
0
  0
ENDTAB
  0
TABLE
  2
UCS
  5
6
330
0
100
AcDbSymbolTable
 70
0
  0
ENDTAB
  0
TABLE
  2
APPID
  5
3
330
0
100
AcDbSymbolTable
 70
3
  0
APPID
  5
2A
330
3
100
AcDbSymbolTableRecord
100
AcDbRegAppTableRecord
  2
ACAD
 70
0
  0
APPID
  5
DF
330
3
100
AcDbSymbolTableRecord
100
AcDbRegAppTableRecord
  2
HATCHBACKGROUNDCOLOR
 70
0
  0
APPID
  5
E0
330
3
100
AcDbSymbolTableRecord
100
AcDbRegAppTableRecord
  2
EZDXF
 70
0
  0
ENDTAB
  0
TABLE
  2
DIMSTYLE
  5
4
330
0
100
AcDbSymbolTable
 70
1
100
AcDbDimStyleTable
  0
DIMSTYLE
105
2B
330
4
100
AcDbSymbolTableRecord
100
AcDbDimStyleTableRecord
  2
Standard
 70
0
 40
1.0
 41
2.5
 42
0.625
 43
3.75
 44
1.25
 45
0.0
 46
0.0
 47
0.0
 48
0.0
 49
2.5
140
2.5
141
2.5
142
0.0
143
0.03937007874
144
1.0
145
0.0
146
1.0
147
0.625
148
0.0
 69
0
 70
0
 71
0
 72
0
 73
0
 74
0
 75
0
 76
0
 77
1
 78
8
 79
3
170
0
171
3
172
1
173
0
174
0
175
0
176
0
177
0
178
0
179
2
271
2
272
2
273
2
274
3
275
0
276
0
277
2
278
44
279
0
280
0
281
0
282
0
283
0
284
8
285
0
286
0
288
0
289
3
290
0
371
-2
372
-2
  0
ENDTAB
  0
TABLE
  2
BLOCK_RECORD
  5
9
330
0
100
AcDbSymbolTable
 70
3
  0
BLOCK_RECORD
  5
17
330
9
100
AcDbSymbolTableRecord
100
AcDbBlockTableRecord
  2
*Model_Space
340
1A
 70
0
280
1
281
0
  0
BLOCK_RECORD
  5
1B
330
9
100
AcDbSymbolTableRecord
100
AcDbBlockTableRecord
  2
*Paper_Space
340
1E
 70
0
280
1
281
0
  0
BLOCK_RECORD
  5
2F
330
9
100
AcDbSymbolTableRecord
100
AcDbBlockTableRecord
  2
06 - N - SC MCCB NS06b~160N4M2 4 PHASE
340
0
 70
0
280
1
281
0
  0
ENDTAB
  0
ENDSEC
  0
SECTION
  2
BLOCKS
  0
BLOCK
  5
18
330
17
100
AcDbEntity
  8
0
100
AcDbBlockBegin
  2
*Model_Space
 70
0
 10
0.0
 20
0.0
 30
0.0
  3
*Model_Space
  1

  0
ENDBLK
  5
19
330
17
100
AcDbEntity
  8
0
100
AcDbBlockEnd
  0
BLOCK
  5
1C
330
1B
100
AcDbEntity
  8
0
100
AcDbBlockBegin
  2
*Paper_Space
 70
0
 10
0.0
 20
0.0
 30
0.0
  3
*Paper_Space
  1

  0
ENDBLK
  5
1D
330
1B
100
AcDbEntity
  8
0
100
AcDbBlockEnd
  0
BLOCK
  5
30
330
2F
100
AcDbEntity
  8
0
100
AcDbBlockBegin
  2
06 - N - SC MCCB NS06b~160N4M2 4 PHASE
 70
2
 10
0.0
 20
0.0
 30
0.0
  3
06 - N - SC MCCB NS06b~160N4M2 4 PHASE
  1

  0
CIRCLE
  5
32
330
2F
100
AcDbEntity
  8
--4N-THT. MCB-MCCB-ACB
100
AcDbCircle
 10
117.5003649999786
 20
129.0000690000088
 30
0.0
 40
5.499988999998777
  0
CIRCLE
  5
33
330
2F
100
AcDbEntity
  8
--4N-THT. MCB-MCCB-ACB
100
AcDbCircle
 10
117.5003649999786
 20
129.0000690000088
 30
0.0
 40
4.999989999998887
  0
CIRCLE
  5
34
330
2F
100
AcDbEntity
  8
--4N-THT. MCB-MCCB-ACB
100
AcDbCircle
 10
92.50041499998102
 20
129.0000690000088
 30
0.0
 40
5.499988999998777
  0
CIRCLE
  5
35
330
2F
100
AcDbEntity
  8
--4N-THT. MCB-MCCB-ACB
100
AcDbCircle
 10
22.50055499999931
 20
129.0000690000088
 30
0.0
 40
5.499988999998777
  0
LINE
  5
36
330
2F
100
AcDbEntity
  8
--4N-THT. MCB-MCCB-ACB
100
AcDbLine
 10
13.00057399999664
 20
144.0000390000059
 30
0.0
 11
13.00057399999664
 21
110.0001070000144
 31
0.0
210
5e-16
220
1.0
230
-2e-16
  0
LINE
  5
37
330
2F
100
AcDbEntity
  8
--4N-THT. MCB-MCCB-ACB
100
AcDbLine
 10
57.00048599998322
 20
144.0000390000059
 30
0.0
 11
13.00057399999664
 21
144.0000390000059
 31
0.0
210
5e-16
220
1.0
230
-2e-16
  0
LINE
  5
38
330
2F
100
AcDbEntity
  8
--4N-THT. MCB-MCCB-ACB
100
AcDbLine
 10
57.00048599998322
 20
110.0001070000144
 30
0.0
 11
57.00048599998322
 21
144.0000390000059
 31
0.0
210
5e-16
220
1.0
230
-2e-16
  0
CIRCLE
  5
39
330
2F
100
AcDbEntity
  8
--4N-THT. MCB-MCCB-ACB
100
AcDbCircle
 10
47.50050499999693
 20
129.0000690000088
 30
0.0
 40
5.499988999998777
  0
CIRCLE
  5
3A
330
2F
100
AcDbEntity
  8
--4N-THT. MCB-MCCB-ACB
100
AcDbCircle
 10
22.50055499999931
 20
129.0000690000088
 30
0.0
 40
4.999989999998887
  0
CIRCLE
  5
3B
330
2F
100
AcDbEntity
  8
--4N-THT. MCB-MCCB-ACB
100
AcDbCircle
 10
47.50050499999693
 20
129.0000690000088
 30
0.0
 40
4.999989999998887
  0
CIRCLE
  5
3C
330
2F
100
AcDbEntity
  8
--4N-THT. MCB-MCCB-ACB
100
AcDbCircle
 10
92.50041499998102
 20
129.0000690000088
 30
0.0
 40
4.999989999998887
  0
LINE
  5
3D
330
2F
100
AcDbEntity
  8
--4N-THT. MCB-MCCB-ACB
100
AcDbLine
 10
83.00043399998017
 20
144.0000390000059
 30
0.0
 11
83.00043399998017
 21
110.0001070000144
 31
0.0
210
5e-16
220
1.0
230
-2e-16
  0
LINE
  5
3E
330
2F
100
AcDbEntity
  8
--4N-THT. MCB-MCCB-ACB
100
AcDbLine
 10
127.0003459999795
 20
144.0000390000059
 30
0.0
 11
83.00043399998017
 21
144.0000390000059
 31
0.0
210
5e-16
220
1.0
230
-2e-16
  0
LINE
  5
3F
330
2F
100
AcDbEntity
  8
--4N-THT. MCB-MCCB-ACB
100
AcDbLine
 10
127.0003459999795
 20
110.0001070000144
 30
0.0
 11
127.0003459999795
 21
144.0000390000059
 31
0.0
210
5e-16
220
1.0
230
-2e-16
  0
LINE
  5
40
330
2F
100
AcDbEntity
  8
--4N-THT. MCB-MCCB-ACB
100
AcDbLine
 10
-56.99988599998324
 20
144.0000390000059
 30
0.0
 11
-56.99988599998324
 21
110.0001070000144
 31
0.0
210
5e-16
220
1.0
230
-2e-16
  0
LINE
  5
41
330
2F
100
AcDbEntity
  8
--4N-THT. MCB-MCCB-ACB
100
AcDbLine
 10
-12.99997399999847
 20
144.0000390000059
 30
0.0
 11
-56.99988599998324
 21
144.0000390000059
 31
0.0
210
5e-16
220
1.0
230
-2e-16
  0
LINE
  5
42
330
2F
100
AcDbEntity
  8
--4N-THT. MCB-MCCB-ACB
100
AcDbLine
 10
-12.99997399999847
 20
110.0001070000144
 30
0.0
 11
-12.99997399999847
 21
144.0000390000059
 31
0.0
210
5e-16
220
1.0
230
-2e-16
  0
CIRCLE
  5
43
330
2F
100
AcDbEntity
  8
--4N-THT. MCB-MCCB-ACB
100
AcDbCircle
 10
-47.49990499998239
 20
129.0000690000088
 30
0.0
 40
5.499988999998777
  0
CIRCLE
  5
44
330
2F
100
AcDbEntity
  8
--4N-THT. MCB-MCCB-ACB
100
AcDbCircle
 10
-22.49995499999932
 20
129.0000690000088
 30
0.0
 40
5.499988999998777
  0
CIRCLE
  5
45
330
2F
100
AcDbEntity
  8
--4N-THT. MCB-MCCB-ACB
100
AcDbCircle
 10
-47.49990499998239
 20
129.0000690000088
 30
0.0
 40
4.999989999998887
  0
CIRCLE
  5
46
330
2F
100
AcDbEntity
  8
--4N-THT. MCB-MCCB-ACB
100
AcDbCircle
 10
-22.49995499999932
 20
129.0000690000088
 30
0.0
 40
4.999989999998887
  0
CIRCLE
  5
47
330
2F
100
AcDbEntity
  8
--4N-THT. MCB-MCCB-ACB
100
AcDbCircle
 10
-92.49981499998103
 20
129.0000690000088
 30
0.0
 40
4.999989999998887
  0
LINE
  5
48
330
2F
100
AcDbEntity
  8
--4N-THT. MCB-MCCB-ACB
100
AcDbLine
 10
-126.9997459999649
 20
144.0000390000059
 30
0.0
 11
-126.9997459999649
 21
110.0001070000144
 31
0.0
210
5e-16
220
1.0
230
-2e-16
  0
LINE
  5
49
330
2F
100
AcDbEntity
  8
--4N-THT. MCB-MCCB-ACB
100
AcDbLine
 10
-82.99983399998017
 20
144.0000390000059
 30
0.0
 11
-126.9997459999649
 21
144.0000390000059
 31
0.0
210
5e-16
220
1.0
230
-2e-16
  0
LINE
  5
4A
330
2F
100
AcDbEntity
  8
--4N-THT. MCB-MCCB-ACB
100
AcDbLine
 10
-82.99983399998017
 20
110.0001070000144
 30
0.0
 11
-82.99983399998017
 21
144.0000390000059
 31
0.0
210
5e-16
220
1.0
230
-2e-16
  0
CIRCLE
  5
4B
330
2F
100
AcDbEntity
  8
--4N-THT. MCB-MCCB-ACB
100
AcDbCircle
 10
-117.4997649999786
 20
129.0000690000088
 30
0.0
 40
4.999989999998887
  0
LINE
  5
4C
330
2F
100
AcDbEntity
  8
--4N-THT. MCB-MCCB-ACB
100
AcDbLine
 10
140.0003199999707
 20
163.5
 30
0.0
 11
-139.9997199999707
 21
163.5
 31
0.0
210
5e-16
220
1.0
230
-2e-16
  0
LINE
  5
4D
330
2F
100
AcDbEntity
  8
--4N-THT. MCB-MCCB-ACB
100
AcDbLine
 10
129.0003419999781
 20
110.0001070000144
 30
0.0
 11
129.0003419999781
 21
146.0000350000045
 31
0.0
210
5e-16
220
1.0
230
-2e-16
  0
LINE
  5
4E
330
2F
100
AcDbEntity
  8
--4N-THT. MCB-MCCB-ACB
100
AcDbLine
 10
129.0003419999781
 20
146.0000350000045
 30
0.0
 11
81.00043799998151
 21
146.0000350000045
 31
0.0
210
5e-16
220
1.0
230
-2e-16
  0
LINE
  5
4F
330
2F
100
AcDbEntity
  8
--4N-THT. MCB-MCCB-ACB
100
AcDbLine
 10
81.00043799998151
 20
146.0000350000045
 30
0.0
 11
81.00043799998151
 21
110.0001070000144
 31
0.0
210
5e-16
220
1.0
230
-2e-16
  0
LINE
  5
50
330
2F
100
AcDbEntity
  8
--4N-THT. MCB-MCCB-ACB
100
AcDbLine
 10
59.00048199998187
 20
110.0001070000144
 30
0.0
 11
59.00048199998187
 21
146.0000350000045
 31
0.0
210
5e-16
220
1.0
230
-2e-16
  0
LINE
  5
51
330
2F
100
AcDbEntity
  8
--4N-THT. MCB-MCCB-ACB
100
AcDbLine
 10
59.00048199998187
 20
146.0000350000045
 30
0.0
 11
11.00057799999982
 21
146.0000350000045
 31
0.0
210
5e-16
220
1.0
230
-2e-16
  0
LINE
  5
52
330
2F
100
AcDbEntity
  8
--4N-THT. MCB-MCCB-ACB
100
AcDbLine
 10
11.00057799999982
 20
146.0000350000045
 30
0.0
 11
11.00057799999982
 21
110.0001070000144
 31
0.0
210
5e-16
220
1.0
230
-2e-16
  0
LINE
  5
53
330
2F
100
AcDbEntity
  8
--4N-THT. MCB-MCCB-ACB
100
AcDbLine
 10
-10.99997799999983
 20
110.0001070000144
 30
0.0
 11
-10.99997799999983
 21
146.0000350000045
 31
0.0
210
5e-16
220
1.0
230
-2e-16
  0
LINE
  5
54
330
2F
100
AcDbEntity
  8
--4N-THT. MCB-MCCB-ACB
100
AcDbLine
 10
-10.99997799999983
 20
146.0000350000045
 30
0.0
 11
-58.99988199998188
 21
146.0000350000045
 31
0.0
210
5e-16
220
1.0
230
-2e-16
  0
LINE
  5
55
330
2F
100
AcDbEntity
  8
--4N-THT. MCB-MCCB-ACB
100
AcDbLine
 10
-58.99988199998188
 20
146.0000350000045
 30
0.0
 11
-58.99988199998188
 21
110.0001070000144
 31
0.0
210
5e-16
220
1.0
230
-2e-16
  0
LINE
  5
56
330
2F
100
AcDbEntity
  8
--4N-THT. MCB-MCCB-ACB
100
AcDbLine
 10
-80.99983799998154
 20
110.0001070000144
 30
0.0
 11
-80.99983799998154
 21
146.0000350000045
 31
0.0
210
5e-16
220
1.0
230
-2e-16
  0
LINE
  5
57
330
2F
100
AcDbEntity
  8
--4N-THT. MCB-MCCB-ACB
100
AcDbLine
 10
-80.99983799998154
 20
146.0000350000045
 30
0.0
 11
-128.9997419999636
 21
146.0000350000045
 31
0.0
210
5e-16
220
1.0
230
-2e-16
  0
LINE
  5
58
330
2F
100
AcDbEntity
  8
--4N-THT. MCB-MCCB-ACB
100
AcDbLine
 10
-128.9997419999636
 20
146.0000350000045
 30
0.0
 11
-128.9997419999636
 21
110.0001070000144
 31
0.0
210
5e-16
220
1.0
230
-2e-16
  0
LINE
  5
59
330
2F
100
AcDbEntity
  8
--4N-THT. MCB-MCCB-ACB
100
AcDbLine
 10
-74.99984999998559
 20
163.5
 30
0.0
 11
-74.99984999998559
 21
110.0001070000144
 31
0.0
210
5e-16
220
1.0
230
-2e-16
  0
LINE
  5
5A
330
2F
100
AcDbEntity
  8
--4N-THT. MCB-MCCB-ACB
100
AcDbLine
 10
-64.99986999997782
 20
158.5000100000034
 30
0.0
 11
-74.99984999998559
 21
158.5000100000034
 31
0.0
210
5e-16
220
1.0
230
-2e-16
  0
LINE
  5
5B
330
2F
100
AcDbEntity
  8
--4N-THT. MCB-MCCB-ACB
100
AcDbLine
 10
-64.99986999997782
 20
110.0001070000144
 30
0.0
 11
-64.99986999997782
 21
163.5
 31
0.0
210
5e-16
220
1.0
230
-2e-16
  0
LINE
  5
5C
330
2F
100
AcDbEntity
  8
--4N-THT. MCB-MCCB-ACB
100
AcDbLine
 10
-72.49985499998002
 20
155.0000170000057
 30
0.0
 11
-72.49985499998002
 21
110.0001070000144
 31
0.0
210
5e-16
220
1.0
230
-2e-16
  0
LINE
  5
5D
330
2F
100
AcDbEntity
  8
--4N-THT. MCB-MCCB-ACB
100
AcDbLine
 10
-67.4998649999834
 20
155.0000170000057
 30
0.0
 11
-72.49985499998002
 21
155.0000170000057
 31
0.0
210
5e-16
220
1.0
230
-2e-16
  0
LINE
  5
5E
330
2F
100
AcDbEntity
  8
--4N-THT. MCB-MCCB-ACB
100
AcDbLine
 10
-67.4998649999834
 20
110.0001070000144
 30
0.0
 11
-67.4998649999834
 21
155.0000170000057
 31
0.0
210
5e-16
220
1.0
230
-2e-16
  0
LINE
  5
5F
330
2F
100
AcDbEntity
  8
--4N-THT. MCB-MCCB-ACB
100
AcDbLine
 10
-4.99999000000389
 20
163.5
 30
0.0
 11
-4.99999000000389
 21
110.0001070000144
 31
0.0
210
5e-16
220
1.0
230
-2e-16
  0
LINE
  5
60
330
2F
100
AcDbEntity
  8
--4N-THT. MCB-MCCB-ACB
100
AcDbLine
 10
5.000590000003882
 20
158.5000100000034
 30
0.0
 11
-4.99999000000389
 21
158.5000100000034
 31
0.0
210
5e-16
220
1.0
230
-2e-16
  0
LINE
  5
61
330
2F
100
AcDbEntity
  8
--4N-THT. MCB-MCCB-ACB
100
AcDbLine
 10
5.000590000003882
 20
110.0001070000144
 30
0.0
 11
5.000590000003882
 21
163.5
 31
0.0
210
5e-16
220
1.0
230
-2e-16
  0
LINE
  5
62
330
2F
100
AcDbEntity
  8
--4N-THT. MCB-MCCB-ACB
100
AcDbLine
 10
-2.499994999998307
 20
155.0000170000057
 30
0.0
 11
-2.499994999998307
 21
110.0001070000144
 31
0.0
210
5e-16
220
1.0
230
-2e-16
  0
LINE
  5
63
330
2F
100
AcDbEntity
  8
--4N-THT. MCB-MCCB-ACB
100
AcDbLine
 10
2.500594999998298
 20
155.0000170000057
 30
0.0
 11
-2.499994999998307
 21
155.0000170000057
 31
0.0
210
5e-16
220
1.0
230
-2e-16
  0
LINE
  5
64
330
2F
100
AcDbEntity
  8
--4N-THT. MCB-MCCB-ACB
100
AcDbLine
 10
2.500594999998298
 20
110.0001070000144
 30
0.0
 11
2.500594999998298
 21
155.0000170000057
 31
0.0
210
5e-16
220
1.0
230
-2e-16
  0
LINE
  5
65
330
2F
100
AcDbEntity
  8
--4N-THT. MCB-MCCB-ACB
100
AcDbLine
 10
65.00046999999236
 20
163.5
 30
0.0
 11
65.00046999999236
 21
110.0001070000144
 31
0.0
210
5e-16
220
1.0
230
-2e-16
  0
LINE
  5
66
330
2F
100
AcDbEntity
  8
--4N-THT. MCB-MCCB-ACB
100
AcDbLine
 10
75.00044999998559
 20
158.5000100000034
 30
0.0
 11
65.00046999999236
 21
158.5000100000034
 31
0.0
210
5e-16
220
1.0
230
-2e-16
  0
LINE
  5
67
330
2F
100
AcDbEntity
  8
--4N-THT. MCB-MCCB-ACB
100
AcDbLine
 10
75.00044999998559
 20
110.0001070000144
 30
0.0
 11
75.00044999998559
 21
163.5
 31
0.0
210
5e-16
220
1.0
230
-2e-16
  0
LINE
  5
68
330
2F
100
AcDbEntity
  8
--4N-THT. MCB-MCCB-ACB
100
AcDbLine
 10
67.5004649999834
 20
155.0000170000057
 30
0.0
 11
67.5004649999834
 21
110.0001070000144
 31
0.0
210
5e-16
220
1.0
230
-2e-16
  0
LINE
  5
69
330
2F
100
AcDbEntity
  8
--4N-THT. MCB-MCCB-ACB
100
AcDbLine
 10
72.50045499998001
 20
155.0000170000057
 30
0.0
 11
67.5004649999834
 21
155.0000170000057
 31
0.0
210
5e-16
220
1.0
230
-2e-16
  0
LINE
  5
6A
330
2F
100
AcDbEntity
  8
--4N-THT. MCB-MCCB-ACB
100
AcDbLine
 10
72.50045499998001
 20
110.0001070000144
 30
0.0
 11
72.50045499998001
 21
155.0000170000057
 31
0.0
210
5e-16
220
1.0
230
-2e-16
  0
CIRCLE
  5
6B
330
2F
100
AcDbEntity
  8
--4N-THT. MCB-MCCB-ACB
100
AcDbCircle
 10
117.5003649999786
 20
-129.0001149999329
 30
0.0
 40
5.499988999998777
  0
CIRCLE
  5
6C
330
2F
100
AcDbEntity
  8
--4N-THT. MCB-MCCB-ACB
100
AcDbCircle
 10
117.5003649999786
 20
-129.0001149999329
 30
0.0
 40
4.999989999998887
  0
CIRCLE
  5
6D
330
2F
100
AcDbEntity
  8
--4N-THT. MCB-MCCB-ACB
100
AcDbCircle
 10
92.50041499998102
 20
-129.0001149999329
 30
0.0
 40
5.499988999998777
  0
CIRCLE
  5
6E
330
2F
100
AcDbEntity
  8
--4N-THT. MCB-MCCB-ACB
100
AcDbCircle
 10
22.50055499999931
 20
-129.0001149999329
 30
0.0
 40
5.499988999998777
  0
LINE
  5
6F
330
2F
100
AcDbEntity
  8
--4N-THT. MCB-MCCB-ACB
100
AcDbLine
 10
13.00057399999664
 20
-144.00008499993
 30
0.0
 11
57.00048599998322
 21
-144.00008499993
 31
0.0
210
5e-16
220
1.0
230
-2e-16
  0
LINE
  5
70
330
2F
100
AcDbEntity
  8
--4N-THT. MCB-MCCB-ACB
100
AcDbLine
 10
13.00057399999664
 20
-110.0001529999385
 30
0.0
 11
13.00057399999664
 21
-144.00008499993
 31
0.0
210
5e-16
220
1.0
230
-2e-16
  0
LINE
  5
71
330
2F
100
AcDbEntity
  8
--4N-THT. MCB-MCCB-ACB
100
AcDbLine
 10
57.00048599998322
 20
-144.00008499993
 30
0.0
 11
57.00048599998322
 21
-110.0001529999385
 31
0.0
210
5e-16
220
1.0
230
-2e-16
  0
CIRCLE
  5
72
330
2F
100
AcDbEntity
  8
--4N-THT. MCB-MCCB-ACB
100
AcDbCircle
 10
47.50050499999693
 20
-129.0001149999329
 30
0.0
 40
5.499988999998777
  0
CIRCLE
  5
73
330
2F
100
AcDbEntity
  8
--4N-THT. MCB-MCCB-ACB
100
AcDbCircle
 10
92.50041499998102
 20
-129.0001149999329
 30
0.0
 40
4.999989999998887
  0
CIRCLE
  5
74
330
2F
100
AcDbEntity
  8
--4N-THT. MCB-MCCB-ACB
100
AcDbCircle
 10
47.50050499999693
 20
-129.0001149999329
 30
0.0
 40
4.999989999998887
  0
CIRCLE
  5
75
330
2F
100
AcDbEntity
  8
--4N-THT. MCB-MCCB-ACB
100
AcDbCircle
 10
22.50055499999931
 20
-129.0001149999329
 30
0.0
 40
4.999989999998887
  0
LINE
  5
76
330
2F
100
AcDbEntity
  8
--4N-THT. MCB-MCCB-ACB
100
AcDbLine
 10
83.00043399998017
 20
-144.00008499993
 30
0.0
 11
127.0003459999795
 21
-144.00008499993
 31
0.0
210
5e-16
220
1.0
230
-2e-16
  0
LINE
  5
77
330
2F
100
AcDbEntity
  8
--4N-THT. MCB-MCCB-ACB
100
AcDbLine
 10
83.00043399998017
 20
-110.0001529999385
 30
0.0
 11
83.00043399998017
 21
-144.00008499993
 31
0.0
210
5e-16
220
1.0
230
-2e-16
  0
LINE
  5
78
330
2F
100
AcDbEntity
  8
--4N-THT. MCB-MCCB-ACB
100
AcDbLine
 10
127.0003459999795
 20
-144.00008499993
 30
0.0
 11
127.0003459999795
 21
-110.0001529999385
 31
0.0
210
5e-16
220
1.0
230
-2e-16
  0
LINE
  5
79
330
2F
100
AcDbEntity
  8
--4N-THT. MCB-MCCB-ACB
100
AcDbLine
 10
-56.99988599998324
 20
-144.00008499993
 30
0.0
 11
-12.99997399999847
 21
-144.00008499993
 31
0.0
210
5e-16
220
1.0
230
-2e-16
  0
LINE
  5
7A
330
2F
100
AcDbEntity
  8
--4N-THT. MCB-MCCB-ACB
100
AcDbLine
 10
-56.99988599998324
 20
-110.0001529999385
 30
0.0
 11
-56.99988599998324
 21
-144.00008499993
 31
0.0
210
5e-16
220
1.0
230
-2e-16
  0
LINE
  5
7B
330
2F
100
AcDbEntity
  8
--4N-THT. MCB-MCCB-ACB
100
AcDbLine
 10
-12.99997399999847
 20
-144.00008499993
 30
0.0
 11
-12.99997399999847
 21
-110.0001529999385
 31
0.0
210
5e-16
220
1.0
230
-2e-16
  0
CIRCLE
  5
7C
330
2F
100
AcDbEntity
  8
--4N-THT. MCB-MCCB-ACB
100
AcDbCircle
 10
-22.49995499999932
 20
-129.0001149999329
 30
0.0
 40
5.499988999998777
  0
CIRCLE
  5
7D
330
2F
100
AcDbEntity
  8
--4N-THT. MCB-MCCB-ACB
100
AcDbCircle
 10
-47.49990499998239
 20
-129.0001149999329
 30
0.0
 40
5.499988999998777
  0
CIRCLE
  5
7E
330
2F
100
AcDbEntity
  8
--4N-THT. MCB-MCCB-ACB
100
AcDbCircle
 10
-92.49981499998103
 20
-129.0001149999329
 30
0.0
 40
5.499988999998777
  0
CIRCLE
  5
7F
330
2F
100
AcDbEntity
  8
--4N-THT. MCB-MCCB-ACB
100
AcDbCircle
 10
-22.49995499999932
 20
-129.0001149999329
 30
0.0
 40
4.999989999998887
  0
CIRCLE
  5
80
330
2F
100
AcDbEntity
  8
--4N-THT. MCB-MCCB-ACB
100
AcDbCircle
 10
-47.49990499998239
 20
-129.0001149999329
 30
0.0
 40
4.999989999998887
  0
CIRCLE
  5
81
330
2F
100
AcDbEntity
  8
--4N-THT. MCB-MCCB-ACB
100
AcDbCircle
 10
-92.49981499998103
 20
-129.0001149999329
 30
0.0
 40
4.999989999998887
  0
LINE
  5
82
330
2F
100
AcDbEntity
  8
--4N-THT. MCB-MCCB-ACB
100
AcDbLine
 10
-126.9997459999649
 20
-144.00008499993
 30
0.0
 11
-82.99983399998017
 21
-144.00008499993
 31
0.0
210
5e-16
220
1.0
230
-2e-16
  0
LINE
  5
83
330
2F
100
AcDbEntity
  8
--4N-THT. MCB-MCCB-ACB
100
AcDbLine
 10
-126.9997459999649
 20
-110.0001529999385
 30
0.0
 11
-126.9997459999649
 21
-144.00008499993
 31
0.0
210
5e-16
220
1.0
230
-2e-16
  0
LINE
  5
84
330
2F
100
AcDbEntity
  8
--4N-THT. MCB-MCCB-ACB
100
AcDbLine
 10
-82.99983399998017
 20
-144.00008499993
 30
0.0
 11
-82.99983399998017
 21
-110.0001529999385
 31
0.0
210
5e-16
220
1.0
230
-2e-16
  0
CIRCLE
  5
85
330
2F
100
AcDbEntity
  8
--4N-THT. MCB-MCCB-ACB
100
AcDbCircle
 10
-117.4997649999786
 20
-129.0001149999329
 30
0.0
 40
4.999989999998887
  0
CIRCLE
  5
86
330
2F
100
AcDbEntity
  8
--4N-THT. MCB-MCCB-ACB
100
AcDbCircle
 10
-117.4997649999786
 20
-129.0001149999329
 30
0.0
 40
5.499988999998777
  0
LINE
  5
87
330
2F
100
AcDbEntity
  8
--4N-THT. MCB-MCCB-ACB
100
AcDbLine
 10
140.0003199999707
 20
-163.5000459999241
 30
0.0
 11
-139.9997199999707
 21
-163.5000459999241
 31
0.0
210
5e-16
220
1.0
230
-2e-16
  0
LINE
  5
88
330
2F
100
AcDbEntity
  8
--4N-THT. MCB-MCCB-ACB
100
AcDbLine
 10
-139.9997199999707
 20
-163.5000459999241
 30
0.0
 11
-139.9997199999707
 21
163.5
 31
0.0
210
5e-16
220
1.0
230
-2e-16
  0
LINE
  5
89
330
2F
100
AcDbEntity
  8
--4N-THT. MCB-MCCB-ACB
100
AcDbLine
 10
140.0003199999707
 20
163.5
 30
0.0
 11
140.0003199999707
 21
-163.5000459999241
 31
0.0
210
5e-16
220
1.0
230
-2e-16
  0
LINE
  5
8A
330
2F
100
AcDbEntity
  8
--4N-THT. MCB-MCCB-ACB
100
AcDbLine
 10
75.00044999998559
 20
-163.5000459999241
 30
0.0
 11
75.00044999998559
 21
-110.0001529999385
 31
0.0
210
5e-16
220
1.0
230
-2e-16
  0
LINE
  5
8B
330
2F
100
AcDbEntity
  8
--4N-THT. MCB-MCCB-ACB
100
AcDbLine
 10
81.00043799998151
 20
-146.0000809999287
 30
0.0
 11
129.0003419999781
 21
-146.0000809999287
 31
0.0
210
5e-16
220
1.0
230
-2e-16
  0
LINE
  5
8C
330
2F
100
AcDbEntity
  8
--4N-THT. MCB-MCCB-ACB
100
AcDbLine
 10
129.0003419999781
 20
-146.0000809999287
 30
0.0
 11
129.0003419999781
 21
-110.0001529999385
 31
0.0
210
5e-16
220
1.0
230
-2e-16
  0
LINE
  5
8D
330
2F
100
AcDbEntity
  8
--4N-THT. MCB-MCCB-ACB
100
AcDbLine
 10
81.00043799998151
 20
-110.0001529999385
 30
0.0
 11
81.00043799998151
 21
-146.0000809999287
 31
0.0
210
5e-16
220
1.0
230
-2e-16
  0
LINE
  5
8E
330
2F
100
AcDbEntity
  8
--4N-THT. MCB-MCCB-ACB
100
AcDbLine
 10
5.000590000003882
 20
-163.5000459999241
 30
0.0
 11
5.000590000003882
 21
-110.0001529999385
 31
0.0
210
5e-16
220
1.0
230
-2e-16
  0
LINE
  5
8F
330
2F
100
AcDbEntity
  8
--4N-THT. MCB-MCCB-ACB
100
AcDbLine
 10
11.00057799999982
 20
-146.0000809999287
 30
0.0
 11
59.00048199998187
 21
-146.0000809999287
 31
0.0
210
5e-16
220
1.0
230
-2e-16
  0
LINE
  5
90
330
2F
100
AcDbEntity
  8
--4N-THT. MCB-MCCB-ACB
100
AcDbLine
 10
59.00048199998187
 20
-146.0000809999287
 30
0.0
 11
59.00048199998187
 21
-110.0001529999385
 31
0.0
210
5e-16
220
1.0
230
-2e-16
  0
LINE
  5
91
330
2F
100
AcDbEntity
  8
--4N-THT. MCB-MCCB-ACB
100
AcDbLine
 10
11.00057799999982
 20
-110.0001529999385
 30
0.0
 11
11.00057799999982
 21
-146.0000809999287
 31
0.0
210
5e-16
220
1.0
230
-2e-16
  0
LINE
  5
92
330
2F
100
AcDbEntity
  8
--4N-THT. MCB-MCCB-ACB
100
AcDbLine
 10
65.00046999999236
 20
-110.0001529999385
 30
0.0
 11
65.00046999999236
 21
-163.5000459999241
 31
0.0
210
5e-16
220
1.0
230
-2e-16
  0
LINE
  5
93
330
2F
100
AcDbEntity
  8
--4N-THT. MCB-MCCB-ACB
100
AcDbLine
 10
-64.99986999997782
 20
-163.5000459999241
 30
0.0
 11
-64.99986999997782
 21
-110.0001529999385
 31
0.0
210
5e-16
220
1.0
230
-2e-16
  0
LINE
  5
94
330
2F
100
AcDbEntity
  8
--4N-THT. MCB-MCCB-ACB
100
AcDbLine
 10
-58.99988199998188
 20
-146.0000809999287
 30
0.0
 11
-10.99997799999983
 21
-146.0000809999287
 31
0.0
210
5e-16
220
1.0
230
-2e-16
  0
LINE
  5
95
330
2F
100
AcDbEntity
  8
--4N-THT. MCB-MCCB-ACB
100
AcDbLine
 10
-10.99997799999983
 20
-146.0000809999287
 30
0.0
 11
-10.99997799999983
 21
-110.0001529999385
 31
0.0
210
5e-16
220
1.0
230
-2e-16
  0
LINE
  5
96
330
2F
100
AcDbEntity
  8
--4N-THT. MCB-MCCB-ACB
100
AcDbLine
 10
-58.99988199998188
 20
-110.0001529999385
 30
0.0
 11
-58.99988199998188
 21
-146.0000809999287
 31
0.0
210
5e-16
220
1.0
230
-2e-16
  0
LINE
  5
97
330
2F
100
AcDbEntity
  8
--4N-THT. MCB-MCCB-ACB
100
AcDbLine
 10
-4.99999000000389
 20
-110.0001529999385
 30
0.0
 11
-4.99999000000389
 21
-163.5000459999241
 31
0.0
210
5e-16
220
1.0
230
-2e-16
  0
LINE
  5
98
330
2F
100
AcDbEntity
  8
--4N-THT. MCB-MCCB-ACB
100
AcDbLine
 10
-128.9997419999636
 20
-146.0000809999287
 30
0.0
 11
-80.99983799998154
 21
-146.0000809999287
 31
0.0
210
5e-16
220
1.0
230
-2e-16
  0
LINE
  5
99
330
2F
100
AcDbEntity
  8
--4N-THT. MCB-MCCB-ACB
100
AcDbLine
 10
-80.99983799998154
 20
-146.0000809999287
 30
0.0
 11
-80.99983799998154
 21
-110.0001529999385
 31
0.0
210
5e-16
220
1.0
230
-2e-16
  0
LINE
  5
9A
330
2F
100
AcDbEntity
  8
--4N-THT. MCB-MCCB-ACB
100
AcDbLine
 10
-128.9997419999636
 20
-110.0001529999385
 30
0.0
 11
-128.9997419999636
 21
-146.0000809999287
 31
0.0
210
5e-16
220
1.0
230
-2e-16
  0
LINE
  5
9B
330
2F
100
AcDbEntity
  8
--4N-THT. MCB-MCCB-ACB
100
AcDbLine
 10
-74.99984999998559
 20
-110.0001529999385
 30
0.0
 11
-74.99984999998559
 21
-163.5000459999241
 31
0.0
210
5e-16
220
1.0
230
-2e-16
  0
LINE
  5
9C
330
2F
100
AcDbEntity
  8
--4N-THT. MCB-MCCB-ACB
100
AcDbLine
 10
-64.99986999997782
 20
-158.5000559999275
 30
0.0
 11
-74.99984999998559
 21
-158.5000559999275
 31
0.0
210
5e-16
220
1.0
230
-2e-16
  0
LINE
  5
9D
330
2F
100
AcDbEntity
  8
--4N-THT. MCB-MCCB-ACB
100
AcDbLine
 10
-67.4998649999834
 20
-155.0000629999298
 30
0.0
 11
-72.49985499998002
 21
-155.0000629999298
 31
0.0
210
5e-16
220
1.0
230
-2e-16
  0
LINE
  5
9E
330
2F
100
AcDbEntity
  8
--4N-THT. MCB-MCCB-ACB
100
AcDbLine
 10
-72.49985499998002
 20
-155.0000629999298
 30
0.0
 11
-72.49985499998002
 21
-110.0001529999385
 31
0.0
210
5e-16
220
1.0
230
-2e-16
  0
LINE
  5
9F
330
2F
100
AcDbEntity
  8
--4N-THT. MCB-MCCB-ACB
100
AcDbLine
 10
-67.4998649999834
 20
-110.0001529999385
 30
0.0
 11
-67.4998649999834
 21
-155.0000629999298
 31
0.0
210
5e-16
220
1.0
230
-2e-16
  0
LINE
  5
A0
330
2F
100
AcDbEntity
  8
--4N-THT. MCB-MCCB-ACB
100
AcDbLine
 10
5.000590000003882
 20
-158.5000559999275
 30
0.0
 11
-4.99999000000389
 21
-158.5000559999275
 31
0.0
210
5e-16
220
1.0
230
-2e-16
  0
LINE
  5
A1
330
2F
100
AcDbEntity
  8
--4N-THT. MCB-MCCB-ACB
100
AcDbLine
 10
2.500594999998298
 20
-155.0000629999298
 30
0.0
 11
-2.499994999998307
 21
-155.0000629999298
 31
0.0
210
5e-16
220
1.0
230
-2e-16
  0
LINE
  5
A2
330
2F
100
AcDbEntity
  8
--4N-THT. MCB-MCCB-ACB
100
AcDbLine
 10
-2.499994999998307
 20
-155.0000629999298
 30
0.0
 11
-2.499994999998307
 21
-110.0001529999385
 31
0.0
210
5e-16
220
1.0
230
-2e-16
  0
LINE
  5
A3
330
2F
100
AcDbEntity
  8
--4N-THT. MCB-MCCB-ACB
100
AcDbLine
 10
2.500594999998298
 20
-110.0001529999385
 30
0.0
 11
2.500594999998298
 21
-155.0000629999298
 31
0.0
210
5e-16
220
1.0
230
-2e-16
  0
LINE
  5
A4
330
2F
100
AcDbEntity
  8
--4N-THT. MCB-MCCB-ACB
100
AcDbLine
 10
75.00044999998559
 20
-158.5000559999275
 30
0.0
 11
65.00046999999236
 21
-158.5000559999275
 31
0.0
210
5e-16
220
1.0
230
-2e-16
  0
LINE
  5
A5
330
2F
100
AcDbEntity
  8
--4N-THT. MCB-MCCB-ACB
100
AcDbLine
 10
72.50045499998001
 20
-155.0000629999298
 30
0.0
 11
67.5004649999834
 21
-155.0000629999298
 31
0.0
210
5e-16
220
1.0
230
-2e-16
  0
LINE
  5
A6
330
2F
100
AcDbEntity
  8
--4N-THT. MCB-MCCB-ACB
100
AcDbLine
 10
67.5004649999834
 20
-155.0000629999298
 30
0.0
 11
67.5004649999834
 21
-110.0001529999385
 31
0.0
210
5e-16
220
1.0
230
-2e-16
  0
LINE
  5
A7
330
2F
100
AcDbEntity
  8
--4N-THT. MCB-MCCB-ACB
100
AcDbLine
 10
72.50045499998001
 20
-110.0001529999385
 30
0.0
 11
72.50045499998001
 21
-155.0000629999298
 31
0.0
210
5e-16
220
1.0
230
-2e-16
  0
LINE
  5
A8
330
2F
100
AcDbEntity
  8
--4N-THT. MCB-MCCB-ACB
100
AcDbLine
 10
140.0003199999707
 20
-110.0001529999385
 30
0.0
 11
-139.9997199999707
 21
-110.0001529999385
 31
0.0
210
5e-16
220
1.0
230
-2e-16
  0
LINE
  5
A9
330
2F
100
AcDbEntity
  8
--4N-THT. MCB-MCCB-ACB
100
AcDbLine
 10
-139.9997199999707
 20
110.0001070000144
 30
0.0
 11
140.0003199999707
 21
110.0001070000144
 31
0.0
210
5e-16
220
1.0
230
-2e-16
  0
LINE
  5
AA
330
2F
100
AcDbEntity
  8
--4N-THT. MCB-MCCB-ACB
100
AcDbLine
 10
-131.9997359999761
 20
-105.5001619999415
 30
0.0
 11
-139.9997199999707
 21
-105.5001619999415
 31
0.0
210
5e-16
220
1.0
230
-2e-16
  0
LINE
  5
AB
330
2F
100
AcDbEntity
  8
--4N-THT. MCB-MCCB-ACB
100
AcDbLine
 10
-139.9997199999707
 20
-87.00019899993951
 30
0.0
 11
-138.4022606181315
 21
-87.00019899993951
 31
0.0
210
5e-16
220
1.0
230
-2e-16
  0
CIRCLE
  5
AC
330
2F
100
AcDbEntity
  8
--8N-THT. FIXING HOLE
100
AcDbCircle
 10
-134.4997309999671
 20
-100.000172999938
 30
0.0
 40
3.249993499999277
  0
ARC
  5
AD
330
2F
100
AcDbEntity
  8
--4N-THT. MCB-MCCB-ACB
100
AcDbCircle
 10
132.0003359999761
 20
-96.25638956718781
 30
0.0
 40
1.99999599999954
100
AcDbArc
 50
138.5763343745744
 51
180.0
  0
LINE
  5
AE
330
2F
100
AcDbEntity
  8
--4N-THT. MCB-MCCB-ACB
100
AcDbLine
 10
130.0003399999774
 20
-103.5001659999356
 30
0.0
 11
130.0003399999774
 21
-96.25638956718781
 31
0.0
210
5e-16
220
1.0
230
-2e-16
  0
ARC
  5
AF
330
2F
100
AcDbEntity
  8
--4N-THT. MCB-MCCB-ACB
100
AcDbCircle
 10
132.0003359999761
 20
-103.5001659999356
 30
0.0
 40
1.999995999999555
100
AcDbArc
 50
180.0
 51
270.0
  0
LINE
  5
B0
330
2F
100
AcDbEntity
  8
--4N-THT. MCB-MCCB-ACB
100
AcDbLine
 10
140.0003199999707
 20
-105.5001619999415
 30
0.0
 11
132.0003359999761
 21
-105.5001619999415
 31
0.0
210
5e-16
220
1.0
230
-2e-16
  0
ARC
  5
B1
330
2F
100
AcDbEntity
  8
--4N-THT. MCB-MCCB-ACB
100
AcDbCircle
 10
-131.9997359999761
 20
-103.5001659999356
 30
0.0
 40
1.999995999999555
100
AcDbArc
 50
270.0
 51
0.0
  0
LINE
  5
B2
330
2F
100
AcDbEntity
  8
--4N-THT. MCB-MCCB-ACB
100
AcDbLine
 10
-129.9997399999774
 20
-96.25638956718781
 30
0.0
 11
-129.9997399999774
 21
-103.5001659999356
 31
0.0
210
5e-16
220
1.0
230
-2e-16
  0
ARC
  5
B3
330
2F
100
AcDbEntity
  8
--4N-THT. MCB-MCCB-ACB
100
AcDbCircle
 10
-131.9997359999761
 20
-96.25638956718781
 30
0.0
 40
1.99999599999954
100
AcDbArc
 50
0.0
 51
41.42366562542557
  0
LINE
  5
B4
330
2F
100
AcDbEntity
  8
--4N-THT. MCB-MCCB-ACB
100
AcDbLine
 10
-136.9025879067558
 20
-87.67695437225797
 30
0.0
 11
-130.5000632885858
 21
-94.93314893950031
 31
0.0
210
5e-16
220
1.0
230
-2e-16
  0
ARC
  5
B5
330
2F
100
AcDbEntity
  8
--4N-THT. MCB-MCCB-ACB
100
AcDbCircle
 10
-138.4022606181315
 20
-89.00019499994545
 30
0.0
 40
1.999995999999549
100
AcDbArc
 50
41.42366562542557
 51
90.0
  0
CIRCLE
  5
B6
330
2F
100
AcDbEntity
  8
--8N-THT. FIXING HOLE
100
AcDbCircle
 10
134.5003309999671
 20
-100.000172999938
 30
0.0
 40
3.249993499999277
  0
LINE
  5
B7
330
2F
100
AcDbEntity
  8
--4N-THT. MCB-MCCB-ACB
100
AcDbLine
 10
138.4028606181315
 20
-87.00019899993951
 30
0.0
 11
140.0003199999707
 21
-87.00019899993951
 31
0.0
210
5e-16
220
1.0
230
-2e-16
  0
ARC
  5
B8
330
2F
100
AcDbEntity
  8
--4N-THT. MCB-MCCB-ACB
100
AcDbCircle
 10
138.4028606181315
 20
-89.00019499994545
 30
0.0
 40
1.999995999999549
100
AcDbArc
 50
90.0
 51
138.5763343745744
  0
LINE
  5
B9
330
2F
100
AcDbEntity
  8
--4N-THT. MCB-MCCB-ACB
100
AcDbLine
 10
130.5006632886003
 20
-94.93314893950031
 30
0.0
 11
136.9031879067558
 21
-87.67695437225797
 31
0.0
210
5e-16
220
1.0
230
-2e-16
  0
LINE
  5
BA
330
2F
100
AcDbEntity
  8
--4N-THT. MCB-MCCB-ACB
100
AcDbLine
 10
-130.5000632885858
 20
94.9331029395762
 30
0.0
 11
-136.9025879067558
 21
87.67690837233386
 31
0.0
210
5e-16
220
1.0
230
-2e-16
  0
ARC
  5
BB
330
2F
100
AcDbEntity
  8
--4N-THT. MCB-MCCB-ACB
100
AcDbCircle
 10
-131.9997359999761
 20
96.25634356726368
 30
0.0
 40
1.99999599999954
100
AcDbArc
 50
318.5763343745744
 51
0.0
  0
LINE
  5
BC
330
2F
100
AcDbEntity
  8
--4N-THT. MCB-MCCB-ACB
100
AcDbLine
 10
-129.9997399999774
 20
103.5001200000115
 30
0.0
 11
-129.9997399999774
 21
96.25634356726368
 31
0.0
210
5e-16
220
1.0
230
-2e-16
  0
ARC
  5
BD
330
2F
100
AcDbEntity
  8
--4N-THT. MCB-MCCB-ACB
100
AcDbCircle
 10
-131.9997359999761
 20
103.5001200000115
 30
0.0
 40
1.999995999999555
100
AcDbArc
 50
0.0
 51
90.0
  0
LINE
  5
BE
330
2F
100
AcDbEntity
  8
--4N-THT. MCB-MCCB-ACB
100
AcDbLine
 10
140.0003199999707
 20
87.00015300001542
 30
0.0
 11
138.4028606181315
 21
87.00015300001542
 31
0.0
210
5e-16
220
1.0
230
-2e-16
  0
ARC
  5
BF
330
2F
100
AcDbEntity
  8
--4N-THT. MCB-MCCB-ACB
100
AcDbCircle
 10
138.4028606181315
 20
89.00014900002132
 30
0.0
 40
1.999995999999549
100
AcDbArc
 50
221.4236656254256
 51
270.0
  0
CIRCLE
  5
C0
330
2F
100
AcDbEntity
  8
--8N-THT. FIXING HOLE
100
AcDbCircle
 10
134.5003309999671
 20
100.0001270000139
 30
0.0
 40
3.249993499999277
  0
LINE
  5
C1
330
2F
100
AcDbEntity
  8
--4N-THT. MCB-MCCB-ACB
100
AcDbLine
 10
-139.9997199999707
 20
105.5001160000174
 30
0.0
 11
-131.9997359999761
 21
105.5001160000174
 31
0.0
210
5e-16
220
1.0
230
-2e-16
  0
CIRCLE
  5
C2
330
2F
100
AcDbEntity
  8
--8N-THT. FIXING HOLE
100
AcDbCircle
 10
-134.4997309999671
 20
100.0001270000139
 30
0.0
 40
3.249993499999277
  0
LINE
  5
C3
330
2F
100
AcDbEntity
  8
--4N-THT. MCB-MCCB-ACB
100
AcDbLine
 10
-138.4022606181315
 20
87.00015300001542
 30
0.0
 11
-139.9997199999707
 21
87.00015300001542
 31
0.0
210
5e-16
220
1.0
230
-2e-16
  0
ARC
  5
C4
330
2F
100
AcDbEntity
  8
--4N-THT. MCB-MCCB-ACB
100
AcDbCircle
 10
-138.4022606181315
 20
89.00014900002132
 30
0.0
 40
1.999995999999549
100
AcDbArc
 50
270.0
 51
318.5763343745744
  0
LINE
  5
C5
330
2F
100
AcDbEntity
  8
--4N-THT. MCB-MCCB-ACB
100
AcDbLine
 10
132.0003359999761
 20
105.5001160000174
 30
0.0
 11
140.0003199999707
 21
105.5001160000174
 31
0.0
210
5e-16
220
1.0
230
-2e-16
  0
ARC
  5
C6
330
2F
100
AcDbEntity
  8
--4N-THT. MCB-MCCB-ACB
100
AcDbCircle
 10
132.0003359999761
 20
103.5001200000115
 30
0.0
 40
1.999995999999555
100
AcDbArc
 50
90.0
 51
180.0
  0
LINE
  5
C7
330
2F
100
AcDbEntity
  8
--4N-THT. MCB-MCCB-ACB
100
AcDbLine
 10
130.0003399999774
 20
96.25634356726368
 30
0.0
 11
130.0003399999774
 21
103.5001200000115
 31
0.0
210
5e-16
220
1.0
230
-2e-16
  0
ARC
  5
C8
330
2F
100
AcDbEntity
  8
--4N-THT. MCB-MCCB-ACB
100
AcDbCircle
 10
132.0003359999761
 20
96.25634356726368
 30
0.0
 40
1.99999599999954
100
AcDbArc
 50
180.0
 51
221.4236656254256
  0
LINE
  5
C9
330
2F
100
AcDbEntity
  8
--4N-THT. MCB-MCCB-ACB
100
AcDbLine
 10
136.9031879067558
 20
87.67690837233386
 30
0.0
 11
130.5006632886003
 21
94.9331029395762
 31
0.0
210
5e-16
220
1.0
230
-2e-16
  0
LWPOLYLINE
  5
CA
330
2F
100
AcDbEntity
  8
--4N-THT. MCB-MCCB-ACB
100
AcDbPolyline
 90
4
 70
1
 10
-52.50007000000187
 20
-97.50037299996205
 10
122.5005299999981
 20
-97.50037299996205
 10
122.5005299999981
 20
97.50032700003794
 10
-52.50007000000187
 20
97.50032700003794
  0
LWPOLYLINE
  5
CB
330
2F
100
AcDbEntity
  8
--4N-THT. MCB-MCCB-ACB
100
AcDbPolyline
 90
4
 70
1
 10
-59.00007000000186
 20
-105.000372999962
 10
129.0005299999981
 20
-105.000372999962
 10
129.0005299999981
 20
105.0003270000379
 10
-59.00007000000186
 20
105.0003270000379
  0
LWPOLYLINE
  5
CC
330
2F
100
AcDbEntity
  8
--4N-THT. MCB-MCCB-ACB
 62
1
100
AcDbPolyline
 90
4
 70
1
 10
2.500529999998121
 20
-93.00037299996205
 10
67.50052999999812
 20
-93.00037299996205
 10
67.50052999999812
 20
20.99962700003795
 10
2.500529999998121
 20
20.99962700003795
  0
LWPOLYLINE
  5
CD
330
2F
100
AcDbEntity
  8
--4N-THT. MCB-MCCB-ACB
100
AcDbPolyline
 90
4
 70
1
 10
12.50052999999812
 20
-82.50037299996205
 10
57.50052999999812
 20
-82.50037299996205
 10
57.50052999999812
 20
1.005687331117368
 10
12.50052999999812
 20
1.005687331117368
  0
LWPOLYLINE
  5
CE
330
2F
100
AcDbEntity
  8
--4N-THT. MCB-MCCB-ACB
100
AcDbPolyline
 90
2
 70
0
 10
57.50052999999812
 20
-33.81950320542041
 10
12.50052999999812
 20
-33.81950320542041
  0
CIRCLE
  5
CF
330
2F
100
AcDbEntity
  8
--4N-THT. MCB-MCCB-ACB
100
AcDbCircle
 10
34.6937338687882
 20
-47.54949795666601
 30
0.0
 40
4.123704754158096
  0
LINE
  5
D0
330
2F
100
AcDbEntity
  8
--4N-THT. MCB-MCCB-ACB
100
AcDbLine
 10
12.50052999999812
 20
-21.03661718115786
 30
0.0
 11
57.50052999999812
 21
-21.03661718115786
 31
0.0
  0
LWPOLYLINE
  5
D1
330
2F
100
AcDbEntity
  8
--4N-THT. MCB-MCCB-ACB
100
AcDbPolyline
 90
2
 70
0
 10
12.50052999999812
 20
-59.90649632019034
 10
57.50052999999812
 20
-59.90649632019034
  0
LINE
  5
D2
330
2F
100
AcDbEntity
  8
--4N-THT. MCB-MCCB-ACB
  6
DASHED
 62
6
100
AcDbLine
 10
-139.9997199999725
 20
-0.0006999999999984
 30
0.0
 11
140.0003199999725
 21
-0.0006999999999984
 31
0.0
  0
LINE
  5
D3
330
2F
100
AcDbEntity
  8
--4N-THT. MCB-MCCB-ACB
  6
DASHED
 62
6
100
AcDbLine
 10
0.0
 20
-163.5007000000018
 30
0.0
 11
0.0
 21
163.5
 31
0.0
  0
TEXT
  5
D4
330
2F
100
AcDbEntity
  8
--4N-THT. MCB-MCCB-ACB
 62
3
100
AcDbText
 10
-92.00361181589388
 20
64.45667147885433
 30
0.0
 40
3.0
  1
MCCB 4P
  7
VNI-TNR-DIM
 72
1
 11
-82.70945175821544
 21
65.95667147885433
 31
0.0
100
AcDbText
 73
2
  0
TEXT
  5
D5
330
2F
100
AcDbEntity
  8
--4N-THT. MCB-MCCB-ACB
 62
3
100
AcDbText
 10
-86.93451212051764
 20
49.45809445152372
 30
0.0
 40
3.0
  1
50kA
  7
VNI-TNR-DIM
 72
1
 11
-82.01273850840516
 21
50.95809445152372
 31
0.0
100
AcDbText
 73
2
  0
ATTDEF
  5
D6
330
2F
100
AcDbEntity
  8
--4N-THT. MCB-MCCB-ACB
 62
3
100
AcDbText
 10
-82.70945175821544
 20
59.45667147885433
 30
0.0
 40
3.0
  1

  7
VNI-TNR-DIM
 72
1
 11
-82.70945175821544
 21
60.95667147885433
 31
0.0
100
AcDbAttributeDefinition
  3
630~1600A
  2
630~1600A
 70
0
 74
2
280
1
 71
1
 72
0
 11
-82.70945175821544
 21
60.95667147885433
 31
0.0
  0
ATTDEF
  5
D7
330
2F
100
AcDbEntity
  8
--4N-THT. MCB-MCCB-ACB
 62
3
100
AcDbText
 10
-82.01273850840516
 20
54.45809445152372
 30
0.0
 40
3.0
  1

  7
VNI-TNR-DIM
 72
1
 11
-82.01273850840516
 21
55.95809445152372
 31
0.0
100
AcDbAttributeDefinition
  3
NS06b~160N4M2
  2
NS06B~160N4M2
 70
0
 74
2
280
1
 71
1
 72
0
 11
-82.01273850840516
 21
55.95809445152372
 31
0.0
  0
MTEXT
  5
D8
330
2F
100
AcDbEntity
  8
--4N-THT. MCB-MCCB-ACB
 62
3
100
AcDbMText
 10
35.00052999999812
 20
25.99962700003795
 30
0.0
 40
3.0
 41
16.05239991518829
 46
0.0
 71
5
 72
5
  1
W280xH327xD146
  7
VNI-TNR-DIM
101
Embedded Object
 70
1
 10
1.0
 20
0.0
 30
0.0
 11
35.00052999999812
 21
25.99962700003795
 31
0.0
 40
16.05239991518829
 41
0.0
 42
16.05239991518829
 43
0.0
 71
2
 72
1
 44
16.05239991518829
 45
15.0
 73
0
 74
0
 46
0.0
  0
ENDBLK
  5
31
330
2F
100
AcDbEntity
  8
0
100
AcDbBlockEnd
  0
ENDSEC
  0
SECTION
  2
ENTITIES
  0
INSERT
  5
DD
330
17
100
AcDbEntity
  8
0
100
AcDbBlockReference
  2
06 - N - SC MCCB NS06b~160N4M2 4 PHASE
 10
139.9997199999725
 20
163.5007000000018
 30
0.0
  0
ENDSEC
  0
SECTION
  2
OBJECTS
  0
DICTIONARY
  5
A
330
0
100
AcDbDictionary
281
1
  3
ACAD_COLOR
350
B
  3
ACAD_GROUP
350
C
  3
ACAD_LAYOUT
350
D
  3
ACAD_MATERIAL
350
E
  3
ACAD_MLEADERSTYLE
350
F
  3
ACAD_MLINESTYLE
350
10
  3
ACAD_PLOTSETTINGS
350
11
  3
ACAD_PLOTSTYLENAME
350
12
  3
ACAD_SCALELIST
350
14
  3
ACAD_TABLESTYLE
350
15
  3
ACAD_VISUALSTYLE
350
16
  3
EZDXF_META
350
2D
  0
DICTIONARY
  5
B
330
A
100
AcDbDictionary
281
1
  0
DICTIONARY
  5
C
330
A
100
AcDbDictionary
281
1
  0
DICTIONARY
  5
D
330
A
100
AcDbDictionary
281
1
  3
Model
350
1A
  3
Layout1
350
1E
  0
DICTIONARY
  5
E
330
A
100
AcDbDictionary
281
1
  3
ByBlock
350
1F
  3
ByLayer
350
20
  3
Global
350
21
  0
DICTIONARY
  5
F
330
A
100
AcDbDictionary
281
1
  3
Standard
350
2C
  0
DICTIONARY
  5
10
330
A
100
AcDbDictionary
281
1
  3
Standard
350
22
  0
DICTIONARY
  5
11
330
A
100
AcDbDictionary
281
1
  0
ACDBDICTIONARYWDFLT
  5
12
330
A
100
AcDbDictionary
281
1
  3
Normal
350
13
100
AcDbDictionaryWithDefault
340
13
  0
ACDBPLACEHOLDER
  5
13
330
12
  0
DICTIONARY
  5
14
330
A
100
AcDbDictionary
281
1
  0
DICTIONARY
  5
15
330
A
100
AcDbDictionary
281
1
  0
DICTIONARY
  5
16
330
A
100
AcDbDictionary
281
1
  0
LAYOUT
  5
1A
330
D
100
AcDbPlotSettings
  1

  4
A3
  6

 40
7.5
 41
20.0
 42
7.5
 43
20.0
 44
420.0
 45
297.0
 46
0.0
 47
0.0
 48
0.0
 49
0.0
140
0.0
141
0.0
142
1.0
143
1.0
 70
1024
 72
1
 73
0
 74
5
  7

 75
16
 76
0
 77
2
 78
300
147
1.0
148
0.0
149
0.0
100
AcDbLayout
  1
Model
 70
1
 71
0
 10
0.0
 20
0.0
 11
420.0
 21
297.0
 12
0.0
 22
0.0
 32
0.0
 14
1e+20
 24
1e+20
 34
1e+20
 15
-1e+20
 25
-1e+20
 35
-1e+20
146
0.0
 13
0.0
 23
0.0
 33
0.0
 16
1.0
 26
0.0
 36
0.0
 17
0.0
 27
1.0
 37
0.0
 76
1
330
17
  0
LAYOUT
  5
1E
330
D
100
AcDbPlotSettings
  1

  4
A3
  6

 40
7.5
 41
20.0
 42
7.5
 43
20.0
 44
420.0
 45
297.0
 46
0.0
 47
0.0
 48
0.0
 49
0.0
140
0.0
141
0.0
142
1.0
143
1.0
 70
0
 72
1
 73
0
 74
5
  7

 75
16
 76
0
 77
2
 78
300
147
1.0
148
0.0
149
0.0
100
AcDbLayout
  1
Layout1
 70
1
 71
1
 10
0.0
 20
0.0
 11
420.0
 21
297.0
 12
0.0
 22
0.0
 32
0.0
 14
1e+20
 24
1e+20
 34
1e+20
 15
-1e+20
 25
-1e+20
 35
-1e+20
146
0.0
 13
0.0
 23
0.0
 33
0.0
 16
1.0
 26
0.0
 36
0.0
 17
0.0
 27
1.0
 37
0.0
 76
1
330
1B
  0
MATERIAL
  5
1F
102
{ACAD_REACTORS
330
E
102
}
330
E
100
AcDbMaterial
  1
ByBlock
  2

 70
0
 40
1.0
 71
1
 41
1.0
 91
-1023410177
 42
1.0
 72
1
  3

 73
1
 74
1
 75
1
 44
0.5
 73
0
 45
1.0
 46
1.0
 77
1
  4

 78
1
 79
1
170
1
 48
1.0
171
1
  6

172
1
173
1
174
1
140
1.0
141
1.0
175
1
  7

176
1
177
1
178
1
143
1.0
179
1
  8

270
1
271
1
272
1
145
1.0
146
1.0
273
1
  9

274
1
275
1
276
1
 42
1.0
 72
1
  3

 73
1
 74
1
 75
1
 94
63
  0
MATERIAL
  5
20
102
{ACAD_REACTORS
330
E
102
}
330
E
100
AcDbMaterial
  1
ByLayer
  2

 70
0
 40
1.0
 71
1
 41
1.0
 91
-1023410177
 42
1.0
 72
1
  3

 73
1
 74
1
 75
1
 44
0.5
 73
0
 45
1.0
 46
1.0
 77
1
  4

 78
1
 79
1
170
1
 48
1.0
171
1
  6

172
1
173
1
174
1
140
1.0
141
1.0
175
1
  7

176
1
177
1
178
1
143
1.0
179
1
  8

270
1
271
1
272
1
145
1.0
146
1.0
273
1
  9

274
1
275
1
276
1
 42
1.0
 72
1
  3

 73
1
 74
1
 75
1
 94
63
  0
MATERIAL
  5
21
102
{ACAD_REACTORS
330
E
102
}
330
E
100
AcDbMaterial
  1
Global
  2

 70
0
 40
1.0
 71
1
 41
1.0
 91
-1023410177
 42
1.0
 72
1
  3

 73
1
 74
1
 75
1
 44
0.5
 73
0
 45
1.0
 46
1.0
 77
1
  4

 78
1
 79
1
170
1
 48
1.0
171
1
  6

172
1
173
1
174
1
140
1.0
141
1.0
175
1
  7

176
1
177
1
178
1
143
1.0
179
1
  8

270
1
271
1
272
1
145
1.0
146
1.0
273
1
  9

274
1
275
1
276
1
 42
1.0
 72
1
  3

 73
1
 74
1
 75
1
 94
63
  0
MLINESTYLE
  5
22
102
{ACAD_REACTORS
330
10
102
}
330
10
100
AcDbMlineStyle
  2
Standard
 70
0
  3

 62
256
 51
90.0
 52
90.0
 71
2
 49
0.5
 62
256
  6
BYLAYER
 49
-0.5
 62
256
  6
BYLAYER
  0
MLEADERSTYLE
  5
2C
102
{ACAD_REACTORS
330
F
102
}
330
F
100
AcDbMLeaderStyle
179
2
170
2
171
1
172
0
 90
2
 40
0.0
 41
0.0
173
1
 91
-1056964608
 92
-2
290
1
 42
2.0
291
1
 43
8.0
  3
Standard
 44
4.0
300

342
29
174
1
175
1
176
0
178
1
 93
-1056964608
 45
4.0
292
0
297
0
 46
4.0
 94
-1056964608
 47
1.0
 49
1.0
140
1.0
294
1
141
0.0
177
0
142
1.0
295
0
296
0
143
3.75
271
0
272
9
273
9
  0
DICTIONARY
  5
2D
330
A
100
AcDbDictionary
280
1
281
1
  3
CREATED_BY_EZDXF
350
2E
  3
WRITTEN_BY_EZDXF
350
E1
  0
DICTIONARYVAR
  5
2E
330
2D
100
DictionaryVariables
280
0
  1
1.4.4 @ 2026-09-23T12:53:34.689585+00:00
  0
DICTIONARYVAR
  5
E1
330
2D
100
DictionaryVariables
280
0
  1
1.4.4 @ 2026-09-23T12:53:34.733475+00:00
  0
ENDSEC
  0
EOF
