  0
SECTION
  2
HEADER
  9
$ACADVER
  1
AC1032
  9
$ACADMAINTVER
 90
4
  9
$DWGCODEPAGE
  3
ANSI_1252
  9
$LASTSAVEDBY
  1
ezdxf
  9
$REQUIREDVERSIONS
160
0
  9
$INSBASE
 10
0.0
 20
0.0
 30
0.0
  9
$EXTMIN
 10
1e+20
 20
1e+20
 30
1e+20
  9
$EXTMAX
 10
-1e+20
 20
-1e+20
 30
-1e+20
  9
$LIMMIN
 10
0.0
 20
0.0
  9
$LIMMAX
 10
420.0
 20
297.0
  9
$ORTHOMODE
 70
0
  9
$REGENMODE
 70
1
  9
$FILLMODE
 70
1
  9
$QTEXTMODE
 70
0
  9
$MIRRTEXT
 70
1
  9
$LTSCALE
 40
1.0
  9
$ATTMODE
 70
1
  9
$TEXTSIZE
 40
2.5
  9
$TRACEWID
 40
1.0
  9
$TEXTSTYLE
  7
Standard
  9
$CLAYER
  8
0
  9
$CELTYPE
  6
ByLayer
  9
$CECOLOR
 62
256
  9
$CELTSCALE
 40
1.0
  9
$DISPSILH
 70
0
  9
$DIMSCALE
 40
1.0
  9
$DIMASZ
 40
2.5
  9
$DIMEXO
 40
0.625
  9
$DIMDLI
 40
3.75
  9
$DIMRND
 40
0.0
  9
$DIMDLE
 40
0.0
  9
$DIMEXE
 40
1.25
  9
$DIMTP
 40
0.0
  9
$DIMTM
 40
0.0
  9
$DIMTXT
 40
2.5
  9
$DIMCEN
 40
2.5
  9
$DIMTSZ
 40
0.0
  9
$DIMTOL
 70
0
  9
$DIMLIM
 70
0
  9
$DIMTIH
 70
0
  9
$DIMTOH
 70
0
  9
$DIMSE1
 70
0
  9
$DIMSE2
 70
0
  9
$DIMTAD
 70
1
  9
$DIMZIN
 70
8
  9
$DIMBLK
  1

  9
$DIMASO
 70
1
  9
$DIMSHO
 70
1
  9
$DIMPOST
  1

  9
$DIMAPOST
  1

  9
$DIMALT
 70
0
  9
$DIMALTD
 70
3
  9
$DIMALTF
 40
0.03937007874
  9
$DIMLFAC
 40
1.0
  9
$DIMTOFL
 70
1
  9
$DIMTVP
 40
0.0
  9
$DIMTIX
 70
0
  9
$DIMSOXD
 70
0
  9
$DIMSAH
 70
0
  9
$DIMBLK1
  1

  9
$DIMBLK2
  1

  9
$DIMSTYLE
  2
ISO-25
  9
$DIMCLRD
 70
0
  9
$DIMCLRE
 70
0
  9
$DIMCLRT
 70
0
  9
$DIMTFAC
 40
1.0
  9
$DIMGAP
 40
0.625
  9
$DIMJUST
 70
0
  9
$DIMSD1
 70
0
  9
$DIMSD2
 70
0
  9
$DIMTOLJ
 70
0
  9
$DIMTZIN
 70
8
  9
$DIMALTZ
 70
0
  9
$DIMALTTZ
 70
0
  9
$DIMUPT
 70
0
  9
$DIMDEC
 70
2
  9
$DIMTDEC
 70
2
  9
$DIMALTU
 70
2
  9
$DIMALTTD
 70
3
  9
$DIMTXSTY
  7
Standard
  9
$DIMAUNIT
 70
0
  9
$DIMADEC
 70
0
  9
$DIMALTRND
 40
0.0
  9
$DIMAZIN
 70
0
  9
$DIMDSEP
 70
44
  9
$DIMATFIT
 70
3
  9
$DIMFRAC
 70
0
  9
$DIMLDRBLK
  1

  9
$DIMLUNIT
 70
2
  9
$DIMLWD
 70
-2
  9
$DIMLWE
 70
-2
  9
$DIMTMOVE
 70
0
  9
$DIMFXL
 40
1.0
  9
$DIMFXLON
 70
0
  9
$DIMJOGANG
 40
0.785398163397
  9
$DIMTFILL
 70
0
  9
$DIMTFILLCLR
 70
0
  9
$DIMARCSYM
 70
0
  9
$DIMLTYPE
  6

  9
$DIMLTEX1
  6

  9
$DIMLTEX2
  6

  9
$DIMTXTDIRECTION
 70
0
  9
$LUNITS
 70
2
  9
$LUPREC
 70
4
  9
$SKETCHINC
 40
1.0
  9
$FILLETRAD
 40
10.0
  9
$AUNITS
 70
0
  9
$AUPREC
 70
2
  9
$MENU
  1
.
  9
$ELEVATION
 40
0.0
  9
$PELEVATION
 40
0.0
  9
$THICKNESS
 40
0.0
  9
$LIMCHECK
 70
0
  9
$CHAMFERA
 40
0.0
  9
$CHAMFERB
 40
0.0
  9
$CHAMFERC
 40
0.0
  9
$CHAMFERD
 40
0.0
  9
$SKPOLY
 70
0
  9
$TDCREATE
 40
2461307.828761574
  9
$TDUCREATE
 40
2458532.153996898
  9
$TDUPDATE
 40
2461307.828761574
  9
$TDUUPDATE
 40
2458532.1544311
  9
$TDINDWG
 40
0.0
  9
$TDUSRTIMER
 40
0.0
  9
$USRTIMER
 70
1
  9
$ANGBASE
 50
0.0
  9
$ANGDIR
 70
0
  9
$PDMODE
 70
0
  9
$PDSIZE
 40
0.0
  9
$PLINEWID
 40
0.0
  9
$SPLFRAME
 70
0
  9
$SPLINETYPE
 70
6
  9
$SPLINESEGS
 70
8
  9
$HANDSEED
  5
181
  9
$SURFTAB1
 70
6
  9
$SURFTAB2
 70
6
  9
$SURFTYPE
 70
6
  9
$SURFU
 70
6
  9
$SURFV
 70
6
  9
$UCSBASE
  2

  9
$UCSNAME
  2

  9
$UCSORG
 10
0.0
 20
0.0
 30
0.0
  9
$UCSXDIR
 10
1.0
 20
0.0
 30
0.0
  9
$UCSYDIR
 10
0.0
 20
1.0
 30
0.0
  9
$UCSORTHOREF
  2

  9
$UCSORTHOVIEW
 70
0
  9
$UCSORGTOP
 10
0.0
 20
0.0
 30
0.0
  9
$UCSORGBOTTOM
 10
0.0
 20
0.0
 30
0.0
  9
$UCSORGLEFT
 10
0.0
 20
0.0
 30
0.0
  9
$UCSORGRIGHT
 10
0.0
 20
0.0
 30
0.0
  9
$UCSORGFRONT
 10
0.0
 20
0.0
 30
0.0
  9
$UCSORGBACK
 10
0.0
 20
0.0
 30
0.0
  9
$PUCSBASE
  2

  9
$PUCSNAME
  2

  9
$PUCSORG
 10
0.0
 20
0.0
 30
0.0
  9
$PUCSXDIR
 10
1.0
 20
0.0
 30
0.0
  9
$PUCSYDIR
 10
0.0
 20
1.0
 30
0.0
  9
$PUCSORTHOREF
  2

  9
$PUCSORTHOVIEW
 70
0
  9
$PUCSORGTOP
 10
0.0
 20
0.0
 30
0.0
  9
$PUCSORGBOTTOM
 10
0.0
 20
0.0
 30
0.0
  9
$PUCSORGLEFT
 10
0.0
 20
0.0
 30
0.0
  9
$PUCSORGRIGHT
 10
0.0
 20
0.0
 30
0.0
  9
$PUCSORGFRONT
 10
0.0
 20
0.0
 30
0.0
  9
$PUCSORGBACK
 10
0.0
 20
0.0
 30
0.0
  9
$USERI1
 70
0
  9
$USERI2
 70
0
  9
$USERI3
 70
0
  9
$USERI4
 70
0
  9
$USERI5
 70
0
  9
$USERR1
 40
0.0
  9
$USERR2
 40
0.0
  9
$USERR3
 40
0.0
  9
$USERR4
 40
0.0
  9
$USERR5
 40
0.0
  9
$WORLDVIEW
 70
1
  9
$SHADEDGE
 70
3
  9
$SHADEDIF
 70
70
  9
$TILEMODE
 70
1
  9
$MAXACTVP
 70
64
  9
$PINSBASE
 10
0.0
 20
0.0
 30
0.0
  9
$PLIMCHECK
 70
0
  9
$PEXTMIN
 10
1e+20
 20
1e+20
 30
1e+20
  9
$PEXTMAX
 10
-1e+20
 20
-1e+20
 30
-1e+20
  9
$PLIMMIN
 10
0.0
 20
0.0
  9
$PLIMMAX
 10
420.0
 20
297.0
  9
$UNITMODE
 70
0
  9
$VISRETAIN
 70
1
  9
$PLINEGEN
 70
0
  9
$PSLTSCALE
 70
1
  9
$TREEDEPTH
 70
3020
  9
$CMLSTYLE
  2
Standard
  9
$CMLJUST
 70
0
  9
$CMLSCALE
 40
20.0
  9
$PROXYGRAPHICS
 70
1
  9
$MEASUREMENT
 70
1
  9
$CELWEIGHT
370
-1
  9
$ENDCAPS
280
0
  9
$JOINSTYLE
280
0
  9
$LWDISPLAY
290
0
  9
$INSUNITS
 70
0
  9
$HYPERLINKBASE
  1

  9
$STYLESHEET
  1

  9
$XEDIT
290
1
  9
$CEPSNTYPE
380
0
  9
$PSTYLEMODE
290
1
  9
$FINGERPRINTGUID
  2
{D51CB86E-44C8-438A-BC06-10DE3247018D}
  9
$VERSIONGUID
  2
{BFBDDDC9-5CE1-4CB7-AE9C-BD29AF4A0B10}
  9
$EXTNAMES
290
1
  9
$PSVPSCALE
 40
0.0
  9
$OLESTARTUP
290
0
  9
$SORTENTS
280
127
  9
$INDEXCTL
280
0
  9
$HIDETEXT
280
1
  9
$XCLIPFRAME
280
1
  9
$HALOGAP
280
0
  9
$OBSCOLOR
 70
257
  9
$OBSLTYPE
280
0
  9
$INTERSECTIONDISPLAY
280
0
  9
$INTERSECTIONCOLOR
 70
257
  9
$DIMASSOC
280
2
  9
$PROJECTNAME
  1

  9
$CAMERADISPLAY
290
0
  9
$LENSLENGTH
 40
50.0
  9
$CAMERAHEIGHT
 40
0.0
  9
$STEPSPERSEC
 40
24.0
  9
$STEPSIZE
 40
100.0
  9
$3DDWFPREC
 40
2.0
  9
$PSOLWIDTH
 40
0.005
  9
$PSOLHEIGHT
 40
0.08
  9
$LOFTANG1
 40
1.570796326795
  9
$LOFTANG2
 40
1.570796326795
  9
$LOFTMAG1
 40
0.0
  9
$LOFTMAG2
 40
0.0
  9
$LOFTPARAM
 70
7
  9
$LOFTNORMALS
280
1
  9
$LATITUDE
 40
37.795
  9
$LONGITUDE
 40
-122.394
  9
$NORTHDIRECTION
 40
0.0
  9
$TIMEZONE
 70
-8000
  9
$LIGHTGLYPHDISPLAY
280
1
  9
$TILEMODELIGHTSYNCH
280
1
  9
$CMATERIAL
347
20
  9
$SOLIDHIST
280
0
  9
$SHOWHIST
280
1
  9
$DWFFRAME
280
2
  9
$DGNFRAME
280
2
  9
$REALWORLDSCALE
290
1
  9
$INTERFERECOLOR
 62
256
  9
$CSHADOW
280
0
  9
$SHADOWPLANELOCATION
 40
0.0
  0
ENDSEC
  0
SECTION
  2
CLASSES
  0
CLASS
  1
ACDBDICTIONARYWDFLT
  2
AcDbDictionaryWithDefault
  3
ObjectDBX Classes
 90
0
 91
0
280
0
281
0
  0
CLASS
  1
SUN
  2
AcDbSun
  3
SCENEOE
 90
1153
 91
0
280
0
281
0
  0
CLASS
  1
VISUALSTYLE
  2
AcDbVisualStyle
  3
ObjectDBX Classes
 90
4095
 91
0
280
0
281
0
  0
CLASS
  1
MATERIAL
  2
AcDbMaterial
  3
ObjectDBX Classes
 90
1153
 91
0
280
0
281
0
  0
CLASS
  1
SCALE
  2
AcDbScale
  3
ObjectDBX Classes
 90
1153
 91
0
280
0
281
0
  0
CLASS
  1
TABLESTYLE
  2
AcDbTableStyle
  3
ObjectDBX Classes
 90
4095
 91
0
280
0
281
0
  0
CLASS
  1
MLEADERSTYLE
  2
AcDbMLeaderStyle
  3
ACDB_MLEADERSTYLE_CLASS
 90
4095
 91
0
280
0
281
0
  0
CLASS
  1
DICTIONARYVAR
  2
AcDbDictionaryVar
  3
ObjectDBX Classes
 90
0
 91
0
280
0
281
0
  0
CLASS
  1
CELLSTYLEMAP
  2
AcDbCellStyleMap
  3
ObjectDBX Classes
 90
1152
 91
0
280
0
281
0
  0
CLASS
  1
MENTALRAYRENDERSETTINGS
  2
AcDbMentalRayRenderSettings
  3
SCENEOE
 90
1024
 91
0
280
0
281
0
  0
CLASS
  1
ACDBDETAILVIEWSTYLE
  2
AcDbDetailViewStyle
  3
ObjectDBX Classes
 90
1025
 91
0
280
0
281
0
  0
CLASS
  1
ACDBSECTIONVIEWSTYLE
  2
AcDbSectionViewStyle
  3
ObjectDBX Classes
 90
1025
 91
0
280
0
281
0
  0
CLASS
  1
RASTERVARIABLES
  2
AcDbRasterVariables
  3
ISM
 90
0
 91
0
280
0
281
0
  0
CLASS
  1
LAYOUT
  2
AcDbLayout
  3
ObjectDBX Classes
 90
0
 91
0
280
0
281
0
  0
CLASS
  1
ACDBPLACEHOLDER
  2
AcDbPlaceHolder
  3
ObjectDBX Classes
 90
0
 91
0
280
0
281
0
  0
ENDSEC
  0
SECTION
  2
TABLES
  0
TABLE
  2
VPORT
  5
8
330
0
100
AcDbSymbolTable
 70
1
  0
VPORT
  5
23
330
8
100
AcDbSymbolTableRecord
100
AcDbViewportTableRecord
  2
*Active
 70
0
 10
0.0
 20
0.0
 11
1.0
 21
1.0
 12
0.0
 22
0.0
 13
0.0
 23
0.0
 14
0.5
 24
0.5
 15
0.5
 25
0.5
 16
0.0
 26
0.0
 36
1.0
 17
0.0
 27
0.0
 37
0.0
 40
1000.0
 41
1.34
 42
50.0
 43
0.0
 44
0.0
 50
0.0
 51
0.0
 71
0
 72
1000
 73
1
 74
3
 75
0
 76
0
 77
0
 78
0
281
0
 65
0
146
0.0
  0
ENDTAB
  0
TABLE
  2
LTYPE
  5
2
330
0
100
AcDbSymbolTable
 70
4
  0
LTYPE
  5
24
330
2
100
AcDbSymbolTableRecord
100
AcDbLinetypeTableRecord
  2
ByBlock
 70
0
  3

 72
65
 73
0
 40
0.0
  0
LTYPE
  5
25
330
2
100
AcDbSymbolTableRecord
100
AcDbLinetypeTableRecord
  2
ByLayer
 70
0
  3

 72
65
 73
0
 40
0.0
  0
LTYPE
  5
26
330
2
100
AcDbSymbolTableRecord
100
AcDbLinetypeTableRecord
  2
Continuous
 70
0
  3

 72
65
 73
0
 40
0.0
  0
LTYPE
  5
17B
330
2
100
AcDbSymbolTableRecord
100
AcDbLinetypeTableRecord
  2
DASHED
 70
0
  3
Dashed __ __ __ __ __ __ __ __ __ __ __ __ __ _
 72
65
 73
2
 40
0.75
 49
0.5
 74
0
 49
-0.25
 74
0
  0
ENDTAB
  0
TABLE
  2
LAYER
  5
1
330
0
100
AcDbSymbolTable
 70
3
  0
LAYER
  5
27
330
1
100
AcDbSymbolTableRecord
100
AcDbLayerTableRecord
  2
0
 70
0
 62
7
  6
Continuous
370
-3
390
13
347
21
  0
LAYER
  5
28
330
1
100
AcDbSymbolTableRecord
100
AcDbLayerTableRecord
  2
Defpoints
 70
0
 62
7
  6
Continuous
290
0
370
-3
390
13
347
21
  0
LAYER
  5
17A
330
1
100
AcDbSymbolTableRecord
100
AcDbLayerTableRecord
  2
-15N-THT. THIẾT BỊ ĐÓNG MỞ
 70
0
 62
40
  6
CONTINUOUS
370
-3
390
13
347
21
  0
ENDTAB
  0
TABLE
  2
STYLE
  5
5
330
0
100
AcDbSymbolTable
 70
1
  0
STYLE
  5
29
330
5
100
AcDbSymbolTableRecord
100
AcDbTextStyleTableRecord
  2
Standard
 70
0
 40
0.0
 41
1.0
 50
0.0
 71
0
 42
2.5
  3
txt
  4

  0
ENDTAB
  0
TABLE
  2
VIEW
  5
7
330
0
100
AcDbSymbolTable
 70
0
  0
ENDTAB
  0
TABLE
  2
UCS
  5
6
330
0
100
AcDbSymbolTable
 70
0
  0
ENDTAB
  0
TABLE
  2
APPID
  5
3
330
0
100
AcDbSymbolTable
 70
3
  0
APPID
  5
2A
330
3
100
AcDbSymbolTableRecord
100
AcDbRegAppTableRecord
  2
ACAD
 70
0
  0
APPID
  5
17E
330
3
100
AcDbSymbolTableRecord
100
AcDbRegAppTableRecord
  2
HATCHBACKGROUNDCOLOR
 70
0
  0
APPID
  5
17F
330
3
100
AcDbSymbolTableRecord
100
AcDbRegAppTableRecord
  2
EZDXF
 70
0
  0
ENDTAB
  0
TABLE
  2
DIMSTYLE
  5
4
330
0
100
AcDbSymbolTable
 70
1
100
AcDbDimStyleTable
  0
DIMSTYLE
105
2B
330
4
100
AcDbSymbolTableRecord
100
AcDbDimStyleTableRecord
  2
Standard
 70
0
 40
1.0
 41
2.5
 42
0.625
 43
3.75
 44
1.25
 45
0.0
 46
0.0
 47
0.0
 48
0.0
 49
2.5
140
2.5
141
2.5
142
0.0
143
0.03937007874
144
1.0
145
0.0
146
1.0
147
0.625
148
0.0
 69
0
 70
0
 71
0
 72
0
 73
0
 74
0
 75
0
 76
0
 77
1
 78
8
 79
3
170
0
171
3
172
1
173
0
174
0
175
0
176
0
177
0
178
0
179
2
271
2
272
2
273
2
274
3
275
0
276
0
277
2
278
44
279
0
280
0
281
0
282
0
283
0
284
8
285
0
286
0
288
0
289
3
290
0
371
-2
372
-2
  0
ENDTAB
  0
TABLE
  2
BLOCK_RECORD
  5
9
330
0
100
AcDbSymbolTable
 70
3
  0
BLOCK_RECORD
  5
17
330
9
100
AcDbSymbolTableRecord
100
AcDbBlockTableRecord
  2
*Model_Space
340
1A
 70
0
280
1
281
0
  0
BLOCK_RECORD
  5
1B
330
9
100
AcDbSymbolTableRecord
100
AcDbBlockTableRecord
  2
*Paper_Space
340
1E
 70
0
280
1
281
0
  0
BLOCK_RECORD
  5
2F
330
9
100
AcDbSymbolTableRecord
100
AcDbBlockTableRecord
  2
06 - N - SC CTT CHIẾU HÔNG LC1D600
340
0
 70
0
280
1
281
0
  0
ENDTAB
  0
ENDSEC
  0
SECTION
  2
BLOCKS
  0
BLOCK
  5
18
330
17
100
AcDbEntity
  8
0
100
AcDbBlockBegin
  2
*Model_Space
 70
0
 10
0.0
 20
0.0
 30
0.0
  3
*Model_Space
  1

  0
ENDBLK
  5
19
330
17
100
AcDbEntity
  8
0
100
AcDbBlockEnd
  0
BLOCK
  5
1C
330
1B
100
AcDbEntity
  8
0
100
AcDbBlockBegin
  2
*Paper_Space
 70
0
 10
0.0
 20
0.0
 30
0.0
  3
*Paper_Space
  1

  0
ENDBLK
  5
1D
330
1B
100
AcDbEntity
  8
0
100
AcDbBlockEnd
  0
BLOCK
  5
30
330
2F
100
AcDbEntity
  8
0
100
AcDbBlockBegin
  2
06 - N - SC CTT CHIẾU HÔNG LC1D600
 70
0
 10
0.0
 20
0.0
 30
0.0
  3
06 - N - SC CTT CHIẾU HÔNG LC1D600
  1

  0
LINE
  5
32
330
2F
100
AcDbEntity
  8
-15N-THT. THIẾT BỊ ĐÓNG MỞ
100
AcDbLine
 10
-143.8500980000026
 20
19.00000000000045
 30
0.0
 11
-143.8500980000026
 21
30.49999999999954
 31
0.0
  0
LINE
  5
33
330
2F
100
AcDbEntity
  8
-15N-THT. THIẾT BỊ ĐÓNG MỞ
100
AcDbLine
 10
-158.6484380000001
 20
34.99999999999955
 30
0.0
 11
-125.9782720000003
 21
34.99999999999955
 31
0.0
  0
LINE
  5
34
330
2F
100
AcDbEntity
  8
-15N-THT. THIẾT BỊ ĐÓNG MỞ
100
AcDbLine
 10
-143.8499760000013
 20
51.00006899999925
 30
0.0
 11
-143.3499760000013
 21
51.50001499999916
 31
0.0
  0
LINE
  5
35
330
2F
100
AcDbEntity
  8
-15N-THT. THIẾT BỊ ĐÓNG MỞ
100
AcDbLine
 10
-143.8502200000002
 20
18.99995399999943
 30
0.0
 11
-143.3502200000002
 21
18.49999999999954
 31
0.0
  0
LINE
  5
36
330
2F
100
AcDbEntity
  8
-15N-THT. THIẾT BỊ ĐÓNG MỞ
100
AcDbLine
 10
-143.3500980000026
 20
51.49999999999955
 30
0.0
 11
-143.3500980000026
 21
58.50000000000045
 31
0.0
  0
LINE
  5
37
330
2F
100
AcDbEntity
  8
-15N-THT. THIẾT BỊ ĐÓNG MỞ
100
AcDbLine
 10
-148.8500980000026
 20
19.00000000000045
 30
0.0
 11
-143.8500980000026
 21
19.00000000000045
 31
0.0
  0
LINE
  5
38
330
2F
100
AcDbEntity
  8
-15N-THT. THIẾT BỊ ĐÓNG MỞ
100
AcDbLine
 10
-148.4499510000023
 20
51.00000000000045
 30
0.0
 11
-143.8500980000026
 21
51.00000000000045
 31
0.0
  0
LINE
  5
39
330
2F
100
AcDbEntity
  8
-15N-THT. THIẾT BỊ ĐÓNG MỞ
100
AcDbLine
 10
-150.3500980000026
 20
29.99999999999955
 30
0.0
 11
-143.8500980000026
 21
29.99999999999955
 31
0.0
  0
LINE
  5
3A
330
2F
100
AcDbEntity
  8
-15N-THT. THIẾT BỊ ĐÓNG MỞ
100
AcDbLine
 10
-148.4499510000023
 20
39.99999999999955
 30
0.0
 11
-143.8500980000026
 21
39.99999999999955
 31
0.0
  0
LINE
  5
3B
330
2F
100
AcDbEntity
  8
-15N-THT. THIẾT BỊ ĐÓNG MỞ
100
AcDbLine
 10
-148.4499510000023
 20
39.99999999999955
 30
0.0
 11
-148.4499510000023
 21
51.00000000000045
 31
0.0
  0
LINE
  5
3C
330
2F
100
AcDbEntity
  8
-15N-THT. THIẾT BỊ ĐÓNG MỞ
100
AcDbLine
 10
-148.8500980000026
 20
19.00000000000045
 30
0.0
 11
-148.8500980000026
 21
29.99999999999955
 31
0.0
  0
LINE
  5
3D
330
2F
100
AcDbEntity
  8
-15N-THT. THIẾT BỊ ĐÓNG MỞ
100
AcDbLine
 10
-150.3500980000026
 20
28.00000000000046
 30
0.0
 11
-150.3500980000026
 21
29.99999999999955
 31
0.0
  0
LINE
  5
3E
330
2F
100
AcDbEntity
  8
-15N-THT. THIẾT BỊ ĐÓNG MỞ
100
AcDbLine
 10
-150.3500980000026
 20
28.00000000000046
 30
0.0
 11
-148.8500980000026
 21
28.00000000000046
 31
0.0
  0
LINE
  5
3F
330
2F
100
AcDbEntity
  8
-15N-THT. THIẾT BỊ ĐÓNG MỞ
100
AcDbLine
 10
-145.9499510000023
 20
19.00000000000045
 30
0.0
 11
-145.9499510000023
 21
28.49999999999955
 31
0.0
  0
LINE
  5
40
330
2F
100
AcDbEntity
  8
-15N-THT. THIẾT BỊ ĐÓNG MỞ
100
AcDbLine
 10
-145.9499510000023
 20
42.49999999999954
 30
0.0
 11
-145.9499510000023
 21
51.00000000000045
 31
0.0
  0
LINE
  5
41
330
2F
100
AcDbEntity
  8
-15N-THT. THIẾT BỊ ĐÓNG MỞ
100
AcDbLine
 10
-142.8500980000026
 20
32.23205599999938
 30
0.0
 11
-142.8500980000026
 21
37.76794400000063
 31
0.0
  0
LINE
  5
42
330
2F
100
AcDbEntity
  8
-15N-THT. THIẾT BỊ ĐÓNG MỞ
100
AcDbLine
 10
-142.8497320000024
 20
37.76810499999965
 30
0.0
 11
-143.8497320000024
 21
39.5001529999995
 31
0.0
  0
LINE
  5
43
330
2F
100
AcDbEntity
  8
-15N-THT. THIẾT BỊ ĐÓNG MỞ
100
AcDbLine
 10
-143.8499150000025
 20
30.49990099999968
 30
0.0
 11
-142.8499150000025
 21
32.23194899999953
 31
0.0
  0
LINE
  5
44
330
2F
100
AcDbEntity
  8
-15N-THT. THIẾT BỊ ĐÓNG MỞ
100
AcDbLine
 10
-143.8500980000026
 20
39.49999999999955
 30
0.0
 11
-143.8500980000026
 21
51.00000000000045
 31
0.0
  0
LINE
  5
45
330
2F
100
AcDbEntity
  8
-15N-THT. THIẾT BỊ ĐÓNG MỞ
100
AcDbLine
 10
-145.9499510000023
 20
28.49999999999955
 30
0.0
 11
-148.8500980000026
 21
28.49999999999955
 31
0.0
  0
LINE
  5
46
330
2F
100
AcDbEntity
  8
-15N-THT. THIẾT BỊ ĐÓNG MỞ
100
AcDbLine
 10
-143.8500980000026
 20
42.49999999999954
 30
0.0
 11
-145.9499510000023
 21
42.49999999999954
 31
0.0
  0
LINE
  5
47
330
2F
100
AcDbEntity
  8
-15N-THT. THIẾT BỊ ĐÓNG MỞ
100
AcDbLine
 10
-143.3500980000026
 20
58.50000000000045
 30
0.0
 11
-140.8500980000026
 21
58.50000000000045
 31
0.0
  0
LINE
  5
48
330
2F
100
AcDbEntity
  8
-15N-THT. THIẾT BỊ ĐÓNG MỞ
100
AcDbLine
 10
-140.8500370000001
 20
58.50002299999824
 30
0.0
 11
-130.3500370000001
 21
78.60004399999934
 31
0.0
  0
LINE
  5
49
330
2F
100
AcDbEntity
  8
-15N-THT. THIẾT BỊ ĐÓNG MỞ
100
AcDbLine
 10
-130.3500980000026
 20
78.60000599999921
 30
0.0
 11
-86.5
 21
78.60000599999921
 31
0.0
  0
LINE
  5
4A
330
2F
100
AcDbEntity
  8
-15N-THT. THIẾT BỊ ĐÓNG MỞ
100
AcDbLine
 10
-86.97393800000282
 20
8.180922999999439
 30
0.0
 11
-96.026001000002
 21
4.886229999999613
 31
0.0
  0
ARC
  5
4B
330
2F
100
AcDbEntity
  8
-15N-THT. THIẾT BỊ ĐÓNG MỞ
100
AcDbCircle
 10
-88.0
 20
11.00000000000045
 30
0.0
 40
3.0
100
AcDbArc
 50
290.0000240000431
 51
3.70000193568e-05
  0
ARC
  5
4C
330
2F
100
AcDbEntity
  8
-15N-THT. THIẾT BỊ ĐÓNG MỞ
100
AcDbCircle
 10
-95.0
 20
2.067138999999315
 30
0.0
 40
3.0
100
AcDbArc
 50
109.9999779999591
 51
179.9999639999755
  0
LINE
  5
4D
330
2F
100
AcDbEntity
  8
-15N-THT. THIẾT BỊ ĐÓNG MỞ
100
AcDbLine
 10
-114.4511720000009
 20
56.10000599999921
 30
0.0
 11
-91.9680180000032
 21
56.10000599999921
 31
0.0
  0
LINE
  5
4E
330
2F
100
AcDbEntity
  8
-15N-THT. THIẾT BỊ ĐÓNG MỞ
100
AcDbLine
 10
-103.0
 20
42.82275399999934
 30
0.0
 11
-103.0
 21
68.87294000000065
 31
0.0
  0
LINE
  5
4F
330
2F
100
AcDbEntity
  8
-15N-THT. THIẾT BỊ ĐÓNG MỞ
100
AcDbLine
 10
-119.0
 20
36.22914099999935
 30
0.0
 11
-119.0
 21
48.98400899999933
 31
0.0
  0
CIRCLE
  5
50
330
2F
100
AcDbEntity
  8
-15N-THT. THIẾT BỊ ĐÓNG MỞ
100
AcDbCircle
 10
-103.0
 20
56.10000599999921
 30
0.0
 40
9.0
  0
LINE
  5
51
330
2F
100
AcDbEntity
  8
-15N-THT. THIẾT BỊ ĐÓNG MỞ
100
AcDbLine
 10
-103.5
 20
65.08610499999804
 30
0.0
 11
-103.5
 21
78.60000599999921
 31
0.0
  0
LINE
  5
52
330
2F
100
AcDbEntity
  8
-15N-THT. THIẾT BỊ ĐÓNG MỞ
100
AcDbLine
 10
-139.3500980000026
 20
32.23205599999938
 30
0.0
 11
-139.3500980000026
 21
37.76794400000063
 31
0.0
  0
LINE
  5
53
330
2F
100
AcDbEntity
  8
-15N-THT. THIẾT BỊ ĐÓNG MỞ
100
AcDbLine
 10
-135.3500980000026
 20
32.23205599999938
 30
0.0
 11
-135.3500980000026
 21
37.76794400000063
 31
0.0
  0
LINE
  5
54
330
2F
100
AcDbEntity
  8
-15N-THT. THIẾT BỊ ĐÓNG MỞ
100
AcDbLine
 10
-139.3500980000026
 20
32.23205599999938
 30
0.0
 11
-135.3500980000026
 21
32.23205599999938
 31
0.0
  0
LINE
  5
55
330
2F
100
AcDbEntity
  8
-15N-THT. THIẾT BỊ ĐÓNG MỞ
100
AcDbLine
 10
-139.3500980000026
 20
37.76794400000063
 30
0.0
 11
-135.3500980000026
 21
37.76794400000063
 31
0.0
  0
LINE
  5
56
330
2F
100
AcDbEntity
  8
-15N-THT. THIẾT BỊ ĐÓNG MỞ
100
AcDbLine
 10
-127.538330000003
 20
42.10000600000012
 30
0.0
 11
-108.9738770000003
 21
42.10000600000012
 31
0.0
  0
LINE
  5
57
330
2F
100
AcDbEntity
  8
-15N-THT. THIẾT BỊ ĐÓNG MỞ
100
AcDbLine
 10
-127.538330000003
 20
43.10000599999921
 30
0.0
 11
-109.1325690000012
 21
43.10000599999921
 31
0.0
  0
ARC
  5
58
330
2F
100
AcDbEntity
  8
-15N-THT. THIẾT BỊ ĐÓNG MỞ
100
AcDbCircle
 10
-119.0
 20
43.10000599999921
 30
0.0
 40
2.0
100
AcDbArc
 50
90.00003700001935
 51
180.0000190000071
  0
ARC
  5
59
330
2F
100
AcDbEntity
  8
-15N-THT. THIẾT BỊ ĐÓNG MỞ
100
AcDbCircle
 10
-119.0
 20
42.10000600000012
 30
0.0
 40
2.0
100
AcDbArc
 50
179.9999639999755
 51
359.9999829999827
  0
ARC
  5
5A
330
2F
100
AcDbEntity
  8
-15N-THT. THIẾT BỊ ĐÓNG MỞ
100
AcDbCircle
 10
-119.0
 20
43.10000599999921
 30
0.0
 40
2.0
100
AcDbArc
 50
3.0508494428e-05
 51
89.99998199998775
  0
LINE
  5
5B
330
2F
100
AcDbEntity
  8
-15N-THT. THIẾT BỊ ĐÓNG MỞ
100
AcDbLine
 10
-121.0
 20
43.10000599999921
 30
0.0
 11
-121.0
 21
42.10000600000012
 31
0.0
  0
LINE
  5
5C
330
2F
100
AcDbEntity
  8
-15N-THT. THIẾT BỊ ĐÓNG MỞ
100
AcDbLine
 10
-117.0
 20
43.10000599999921
 30
0.0
 11
-117.0
 21
42.10000600000012
 31
0.0
  0
ARC
  5
5D
330
2F
100
AcDbEntity
  8
-15N-THT. THIẾT BỊ ĐÓNG MỞ
100
AcDbCircle
 10
-119.0
 20
43.10000599999921
 30
0.0
 40
4.5
100
AcDbArc
 50
90.00003700001935
 51
180.0000190000071
  0
ARC
  5
5E
330
2F
100
AcDbEntity
  8
-15N-THT. THIẾT BỊ ĐÓNG MỞ
100
AcDbCircle
 10
-119.0
 20
42.10000600000012
 30
0.0
 40
4.5
100
AcDbArc
 50
179.9999639999755
 51
359.9999829999827
  0
ARC
  5
5F
330
2F
100
AcDbEntity
  8
-15N-THT. THIẾT BỊ ĐÓNG MỞ
100
AcDbCircle
 10
-119.0
 20
43.10000599999921
 30
0.0
 40
4.5
100
AcDbArc
 50
3.0508494428e-05
 51
89.99998199998775
  0
LINE
  5
60
330
2F
100
AcDbEntity
  8
-15N-THT. THIẾT BỊ ĐÓNG MỞ
100
AcDbLine
 10
-123.5
 20
43.10000599999921
 30
0.0
 11
-123.5
 21
42.10000600000012
 31
0.0
  0
LINE
  5
61
330
2F
100
AcDbEntity
  8
-15N-THT. THIẾT BỊ ĐÓNG MỞ
100
AcDbLine
 10
-114.5
 20
43.10000599999921
 30
0.0
 11
-114.5
 21
42.10000600000012
 31
0.0
  0
ARC
  5
62
330
2F
100
AcDbEntity
  8
-15N-THT. THIẾT BỊ ĐÓNG MỞ
100
AcDbCircle
 10
-141.1999510000023
 20
-4.547e-13
 30
0.0
 40
7.849999999999998
100
AcDbArc
 50
110.8505820000101
 51
179.9999639999755
  0
ARC
  5
63
330
2F
100
AcDbEntity
  8
-15N-THT. THIẾT BỊ ĐÓNG MỞ
100
AcDbCircle
 10
-144.3500980000026
 20
8.270431999997982
 30
0.0
 40
1.0
100
AcDbArc
 50
290.850573999951
 51
3.70000193568e-05
  0
LINE
  5
64
330
2F
100
AcDbEntity
  8
-15N-THT. THIẾT BỊ ĐÓNG MỞ
100
AcDbLine
 10
-141.1999510000023
 20
-15.70137000000113
 30
0.0
 11
-141.1999510000023
 21
15.70136999999931
 31
0.0
  0
LINE
  5
65
330
2F
100
AcDbEntity
  8
-15N-THT. THIẾT BỊ ĐÓNG MỞ
100
AcDbLine
 10
-143.8500980000026
 20
-30.50000000000046
 30
0.0
 11
-143.8500980000026
 21
-19.00000000000045
 31
0.0
  0
LINE
  5
66
330
2F
100
AcDbEntity
  8
-15N-THT. THIẾT BỊ ĐÓNG MỞ
100
AcDbLine
 10
-125.9782720000003
 20
-35.00000000000046
 30
0.0
 11
-158.6484380000001
 21
-35.00000000000046
 31
0.0
  0
LINE
  5
67
330
2F
100
AcDbEntity
  8
-15N-THT. THIẾT BỊ ĐÓNG MỞ
100
AcDbLine
 10
-143.3500980000026
 20
-18.50000000000045
 30
0.0
 11
-143.3500980000026
 21
18.49999999999954
 31
0.0
  0
LINE
  5
68
330
2F
100
AcDbEntity
  8
-15N-THT. THIẾT BỊ ĐÓNG MỞ
100
AcDbLine
 10
-143.3501590000014
 20
-51.49999999999955
 30
0.0
 11
-143.8500980000026
 21
-51.00004600000056
 31
0.0
  0
LINE
  5
69
330
2F
100
AcDbEntity
  8
-15N-THT. THIẾT BỊ ĐÓNG MỞ
100
AcDbLine
 10
-143.3500980000026
 20
-18.49998500000083
 30
0.0
 11
-143.8500370000001
 21
-18.99992400000201
 31
0.0
  0
LINE
  5
6A
330
2F
100
AcDbEntity
  8
-15N-THT. THIẾT BỊ ĐÓNG MỞ
100
AcDbLine
 10
-143.3500980000026
 20
-58.50000000000045
 30
0.0
 11
-143.3500980000026
 21
-51.49999999999955
 31
0.0
  0
LINE
  5
6B
330
2F
100
AcDbEntity
  8
-15N-THT. THIẾT BỊ ĐÓNG MỞ
100
AcDbLine
 10
-143.8500980000026
 20
-51.00000000000045
 30
0.0
 11
-148.8500980000026
 21
-51.00000000000045
 31
0.0
  0
LINE
  5
6C
330
2F
100
AcDbEntity
  8
-15N-THT. THIẾT BỊ ĐÓNG MỞ
100
AcDbLine
 10
-143.8500980000026
 20
-19.00000000000045
 30
0.0
 11
-148.4499510000023
 21
-19.00000000000045
 31
0.0
  0
LINE
  5
6D
330
2F
100
AcDbEntity
  8
-15N-THT. THIẾT BỊ ĐÓNG MỞ
100
AcDbLine
 10
-143.8500980000026
 20
-40.00000000000045
 30
0.0
 11
-150.3500980000026
 21
-40.00000000000045
 31
0.0
  0
LINE
  5
6E
330
2F
100
AcDbEntity
  8
-15N-THT. THIẾT BỊ ĐÓNG MỞ
100
AcDbLine
 10
-143.8500980000026
 20
-30.00000000000046
 30
0.0
 11
-148.4499510000023
 21
-30.00000000000046
 31
0.0
  0
LINE
  5
6F
330
2F
100
AcDbEntity
  8
-15N-THT. THIẾT BỊ ĐÓNG MỞ
100
AcDbLine
 10
-148.4499510000023
 20
-19.00000000000045
 30
0.0
 11
-148.4499510000023
 21
-30.00000000000046
 31
0.0
  0
LINE
  5
70
330
2F
100
AcDbEntity
  8
-15N-THT. THIẾT BỊ ĐÓNG MỞ
100
AcDbLine
 10
-148.8500980000026
 20
-40.00000000000045
 30
0.0
 11
-148.8500980000026
 21
-51.00000000000045
 31
0.0
  0
LINE
  5
71
330
2F
100
AcDbEntity
  8
-15N-THT. THIẾT BỊ ĐÓNG MỞ
100
AcDbLine
 10
-150.3500980000026
 20
-40.00000000000045
 30
0.0
 11
-150.3500980000026
 21
-41.99999999999954
 31
0.0
  0
LINE
  5
72
330
2F
100
AcDbEntity
  8
-15N-THT. THIẾT BỊ ĐÓNG MỞ
100
AcDbLine
 10
-148.8500980000026
 20
-41.99999999999954
 30
0.0
 11
-150.3500980000026
 21
-41.99999999999954
 31
0.0
  0
LINE
  5
73
330
2F
100
AcDbEntity
  8
-15N-THT. THIẾT BỊ ĐÓNG MỞ
100
AcDbLine
 10
-145.9499510000023
 20
-41.50000000000045
 30
0.0
 11
-145.9499510000023
 21
-51.00000000000045
 31
0.0
  0
LINE
  5
74
330
2F
100
AcDbEntity
  8
-15N-THT. THIẾT BỊ ĐÓNG MỞ
100
AcDbLine
 10
-145.9499510000023
 20
-19.00000000000045
 30
0.0
 11
-145.9499510000023
 21
-27.50000000000046
 31
0.0
  0
LINE
  5
75
330
2F
100
AcDbEntity
  8
-15N-THT. THIẾT BỊ ĐÓNG MỞ
100
AcDbLine
 10
-142.8500980000026
 20
-37.76794400000063
 30
0.0
 11
-142.8500980000026
 21
-32.23205599999938
 31
0.0
  0
LINE
  5
76
330
2F
100
AcDbEntity
  8
-15N-THT. THIẾT BỊ ĐÓNG MỞ
100
AcDbLine
 10
-143.8499150000025
 20
-39.50013700000045
 30
0.0
 11
-142.8499150000025
 21
-37.76809699999967
 31
0.0
  0
LINE
  5
77
330
2F
100
AcDbEntity
  8
-15N-THT. THIẾT BỊ ĐÓNG MỞ
100
AcDbLine
 10
-142.8497320000024
 20
-32.23193400000082
 30
0.0
 11
-143.8497320000024
 21
-30.49987800000099
 31
0.0
  0
LINE
  5
78
330
2F
100
AcDbEntity
  8
-15N-THT. THIẾT BỊ ĐÓNG MỞ
100
AcDbLine
 10
-143.8500980000026
 20
-51.00000000000045
 30
0.0
 11
-143.8500980000026
 21
-39.50000000000045
 31
0.0
  0
LINE
  5
79
330
2F
100
AcDbEntity
  8
-15N-THT. THIẾT BỊ ĐÓNG MỞ
100
AcDbLine
 10
-148.8500980000026
 20
-41.50000000000045
 30
0.0
 11
-145.9499510000023
 21
-41.50000000000045
 31
0.0
  0
LINE
  5
7A
330
2F
100
AcDbEntity
  8
-15N-THT. THIẾT BỊ ĐÓNG MỞ
100
AcDbLine
 10
-145.9499510000023
 20
-27.50000000000046
 30
0.0
 11
-143.8500980000026
 21
-27.50000000000046
 31
0.0
  0
LINE
  5
7B
330
2F
100
AcDbEntity
  8
-15N-THT. THIẾT BỊ ĐÓNG MỞ
100
AcDbLine
 10
-140.8500980000026
 20
-58.50001500000098
 30
0.0
 11
-140.8500980000026
 21
58.50001499999826
 31
0.0
  0
LINE
  5
7C
330
2F
100
AcDbEntity
  8
-15N-THT. THIẾT BỊ ĐÓNG MỞ
100
AcDbLine
 10
-140.8500980000026
 20
-58.50000000000045
 30
0.0
 11
-143.3500980000026
 21
-58.50000000000045
 31
0.0
  0
LINE
  5
7D
330
2F
100
AcDbEntity
  8
-15N-THT. THIẾT BỊ ĐÓNG MỞ
100
AcDbLine
 10
-130.3500980000026
 20
-78.60000600000103
 30
0.0
 11
-130.3500980000026
 21
78.60000599999921
 31
0.0
  0
LINE
  5
7E
330
2F
100
AcDbEntity
  8
-15N-THT. THIẾT BỊ ĐÓNG MỞ
100
AcDbLine
 10
-130.349854
 20
-78.59997600000179
 30
0.0
 11
-140.8499150000025
 21
-58.49996900000087
 31
0.0
  0
LINE
  5
7F
330
2F
100
AcDbEntity
  8
-15N-THT. THIẾT BỊ ĐÓNG MỞ
100
AcDbLine
 10
-86.5
 20
-78.60000600000103
 30
0.0
 11
-130.3500980000026
 21
-78.60000600000103
 31
0.0
  0
LINE
  5
80
330
2F
100
AcDbEntity
  8
-15N-THT. THIẾT BỊ ĐÓNG MỞ
100
AcDbLine
 10
-78.5
 20
-70.60000600000194
 30
0.0
 11
-78.5
 21
-38.99999999999955
 31
0.0
  0
ARC
  5
81
330
2F
100
AcDbEntity
  8
-15N-THT. THIẾT BỊ ĐÓNG MỞ
100
AcDbCircle
 10
-86.5
 20
-70.60000600000194
 30
0.0
 40
8.0
100
AcDbArc
 50
269.9999730000338
 51
359.9999829999827
  0
LINE
  5
82
330
2F
100
AcDbEntity
  8
-15N-THT. THIẾT BỊ ĐÓNG MỞ
100
AcDbLine
 10
-78.5
 20
-38.99999999999955
 30
0.0
 11
-82.0
 21
-38.99999999999955
 31
0.0
  0
LINE
  5
83
330
2F
100
AcDbEntity
  8
-15N-THT. THIẾT BỊ ĐÓNG MỞ
100
AcDbLine
 10
-85.0
 20
-11.00000000000045
 30
0.0
 11
-85.0
 21
-35.99999999999955
 31
0.0
  0
ARC
  5
84
330
2F
100
AcDbEntity
  8
-15N-THT. THIẾT BỊ ĐÓNG MỞ
100
AcDbCircle
 10
-82.0
 20
-35.99999999999955
 30
0.0
 40
3.0
100
AcDbArc
 50
180.0000460000254
 51
270.0000279999611
  0
LINE
  5
85
330
2F
100
AcDbEntity
  8
-15N-THT. THIẾT BỊ ĐÓNG MỞ
100
AcDbLine
 10
-96.02606200000082
 20
-4.886215000000902
 30
0.0
 11
-86.97393800000282
 21
-8.180923000000348
 31
0.0
  0
ARC
  5
86
330
2F
100
AcDbEntity
  8
-15N-THT. THIẾT BỊ ĐÓNG MỞ
100
AcDbCircle
 10
-88.0
 20
-11.00000000000045
 30
0.0
 40
3.0
100
AcDbArc
 50
359.9999829999827
 51
69.9999959999632
  0
LINE
  5
87
330
2F
100
AcDbEntity
  8
-15N-THT. THIẾT BỊ ĐÓNG MỞ
100
AcDbLine
 10
-98.0
 20
-2.067138999999315
 30
0.0
 11
-98.0
 21
2.067138999999315
 31
0.0
  0
ARC
  5
88
330
2F
100
AcDbEntity
  8
-15N-THT. THIẾT BỊ ĐÓNG MỞ
100
AcDbCircle
 10
-95.0
 20
-2.067138999999315
 30
0.0
 40
3.0
100
AcDbArc
 50
180.0000460000254
 51
250.000032000044
  0
LINE
  5
89
330
2F
100
AcDbEntity
  8
-15N-THT. THIẾT BỊ ĐÓNG MỞ
100
AcDbLine
 10
-86.08374100000219
 20
-56.10000600000103
 30
0.0
 11
-119.8652350000011
 21
-56.10000600000103
 31
0.0
  0
LINE
  5
8A
330
2F
100
AcDbEntity
  8
-15N-THT. THIẾT BỊ ĐÓNG MỞ
100
AcDbLine
 10
-103.0
 20
-71.45637500000203
 30
0.0
 11
-103.0
 21
-40.99852000000055
 31
0.0
  0
LINE
  5
8B
330
2F
100
AcDbEntity
  8
-15N-THT. THIẾT BỊ ĐÓNG MỞ
100
AcDbLine
 10
-103.5
 20
-42.60926800000061
 30
0.0
 11
-103.5
 21
47.11390699999947
 31
0.0
  0
LINE
  5
8C
330
2F
100
AcDbEntity
  8
-15N-THT. THIẾT BỊ ĐÓNG MỞ
100
AcDbLine
 10
-119.0
 20
-48.98400900000115
 30
0.0
 11
-119.0
 21
-36.22914099999935
 31
0.0
  0
LINE
  5
8D
330
2F
100
AcDbEntity
  8
-15N-THT. THIẾT BỊ ĐÓNG MỞ
100
AcDbLine
 10
-103.5
 20
-78.60000600000103
 30
0.0
 11
-103.5
 21
-69.59074400000236
 31
0.0
  0
LINE
  5
8E
330
2F
100
AcDbEntity
  8
-15N-THT. THIẾT BỊ ĐÓNG MỞ
100
AcDbLine
 10
-139.3500980000026
 20
-37.76794400000063
 30
0.0
 11
-139.3500980000026
 21
-32.23205599999938
 31
0.0
  0
LINE
  5
8F
330
2F
100
AcDbEntity
  8
-15N-THT. THIẾT BỊ ĐÓNG MỞ
100
AcDbLine
 10
-135.3500980000026
 20
-37.76794400000063
 30
0.0
 11
-135.3500980000026
 21
-32.23205599999938
 31
0.0
  0
LINE
  5
90
330
2F
100
AcDbEntity
  8
-15N-THT. THIẾT BỊ ĐÓNG MỞ
100
AcDbLine
 10
-135.3500980000026
 20
-32.23205599999938
 30
0.0
 11
-139.3500980000026
 21
-32.23205599999938
 31
0.0
  0
LINE
  5
91
330
2F
100
AcDbEntity
  8
-15N-THT. THIẾT BỊ ĐÓNG MỞ
100
AcDbLine
 10
-135.3500980000026
 20
-37.76794400000063
 30
0.0
 11
-139.3500980000026
 21
-37.76794400000063
 31
0.0
  0
LINE
  5
92
330
2F
100
AcDbEntity
  8
-15N-THT. THIẾT BỊ ĐÓNG MỞ
100
AcDbLine
 10
-108.9738770000003
 20
-42.10000600000194
 30
0.0
 11
-127.538330000003
 21
-42.10000600000194
 31
0.0
  0
LINE
  5
93
330
2F
100
AcDbEntity
  8
-15N-THT. THIẾT BỊ ĐÓNG MỞ
100
AcDbLine
 10
-109.1325690000012
 20
-43.10000600000194
 30
0.0
 11
-127.538330000003
 21
-43.10000600000194
 31
0.0
  0
ARC
  5
94
330
2F
100
AcDbEntity
  8
-15N-THT. THIẾT BỊ ĐÓNG MỞ
100
AcDbCircle
 10
-119.0
 20
-42.10000600000194
 30
0.0
 40
2.0
100
AcDbArc
 50
3.0508494428e-05
 51
180.0000729999917
  0
ARC
  5
95
330
2F
100
AcDbEntity
  8
-15N-THT. THIẾT BỊ ĐÓNG MỞ
100
AcDbCircle
 10
-119.0
 20
-43.10000600000194
 30
0.0
 40
2.0
100
AcDbArc
 50
180.0000460000254
 51
359.9999829999827
  0
LINE
  5
96
330
2F
100
AcDbEntity
  8
-15N-THT. THIẾT BỊ ĐÓNG MỞ
100
AcDbLine
 10
-121.0
 20
-42.10000600000194
 30
0.0
 11
-121.0
 21
-43.10000600000194
 31
0.0
  0
LINE
  5
97
330
2F
100
AcDbEntity
  8
-15N-THT. THIẾT BỊ ĐÓNG MỞ
100
AcDbLine
 10
-117.0
 20
-42.10000600000194
 30
0.0
 11
-117.0
 21
-43.10000600000194
 31
0.0
  0
ARC
  5
98
330
2F
100
AcDbEntity
  8
-15N-THT. THIẾT BỊ ĐÓNG MỞ
100
AcDbCircle
 10
-119.0
 20
-42.10000600000194
 30
0.0
 40
4.5
100
AcDbArc
 50
3.0508494428e-05
 51
180.0000729999917
  0
ARC
  5
99
330
2F
100
AcDbEntity
  8
-15N-THT. THIẾT BỊ ĐÓNG MỞ
100
AcDbCircle
 10
-119.0
 20
-43.10000600000194
 30
0.0
 40
4.5
100
AcDbArc
 50
180.0000460000254
 51
359.9999829999827
  0
LINE
  5
9A
330
2F
100
AcDbEntity
  8
-15N-THT. THIẾT BỊ ĐÓNG MỞ
100
AcDbLine
 10
-123.5
 20
-42.10000600000194
 30
0.0
 11
-123.5
 21
-43.10000600000194
 31
0.0
  0
LINE
  5
9B
330
2F
100
AcDbEntity
  8
-15N-THT. THIẾT BỊ ĐÓNG MỞ
100
AcDbLine
 10
-114.5
 20
-42.10000600000194
 30
0.0
 11
-114.5
 21
-43.10000600000194
 31
0.0
  0
ARC
  5
9C
330
2F
100
AcDbEntity
  8
-15N-THT. THIẾT BỊ ĐÓNG MỞ
100
AcDbCircle
 10
-141.1999510000023
 20
-4.547e-13
 30
0.0
 40
7.849999999999998
100
AcDbArc
 50
180.0000460000254
 51
249.149428000008
  0
ARC
  5
9D
330
2F
100
AcDbEntity
  8
-15N-THT. THIẾT BỊ ĐÓNG MỞ
100
AcDbCircle
 10
-144.3500980000026
 20
-8.27043200000071
 30
0.0
 40
1.0
100
AcDbArc
 50
359.9999829999827
 51
69.14944599996001
  0
CIRCLE
  5
9E
330
2F
100
AcDbEntity
  8
-15N-THT. THIẾT BỊ ĐÓNG MỞ
100
AcDbCircle
 10
-103.0
 20
-56.10000600000103
 30
0.0
 40
7.5
  0
ARC
  5
9F
330
2F
100
AcDbEntity
  8
-15N-THT. THIẾT BỊ ĐÓNG MỞ
100
AcDbCircle
 10
-103.0
 20
-56.10000600000103
 30
0.0
 40
12.5
100
AcDbArc
 50
90.00003700001935
 51
115.2588960000342
  0
ARC
  5
A0
330
2F
100
AcDbEntity
  8
-15N-THT. THIẾT BỊ ĐÓNG MỞ
100
AcDbCircle
 10
-103.0
 20
-56.10000600000103
 30
0.0
 40
13.5
100
AcDbArc
 50
90.00003700001935
 51
117.602306000035
  0
ARC
  5
A1
330
2F
100
AcDbEntity
  8
-15N-THT. THIẾT BỊ ĐÓNG MỞ
100
AcDbCircle
 10
-103.0
 20
-56.10000600000103
 30
0.0
 40
13.5
100
AcDbArc
 50
225.0000099999643
 51
314.9999920000065
  0
ARC
  5
A2
330
2F
100
AcDbEntity
  8
-15N-THT. THIẾT BỊ ĐÓNG MỞ
100
AcDbCircle
 10
-103.0
 20
-56.10000600000103
 30
0.0
 40
12.5
100
AcDbArc
 50
225.0000099999643
 51
314.9999920000065
  0
ARC
  5
A3
330
2F
100
AcDbEntity
  8
-15N-THT. THIẾT BỊ ĐÓNG MỞ
100
AcDbCircle
 10
-119.0
 20
-43.10000600000194
 30
0.0
 40
10.8
100
AcDbArc
 50
277.9835360000028
 51
350.9697079999822
  0
ARC
  5
A4
330
2F
100
AcDbEntity
  8
-15N-THT. THIẾT BỊ ĐÓNG MỞ
100
AcDbCircle
 10
-119.0
 20
-43.10000600000194
 30
0.0
 40
9.8
100
AcDbArc
 50
272.9244959999833
 51
353.9287639999993
  0
LINE
  5
A5
330
2F
100
AcDbEntity
  8
-15N-THT. THIẾT BỊ ĐÓNG MỞ
100
AcDbLine
 10
-87.5
 20
-52.50810200000114
 30
0.0
 11
-93.45398000000205
 21
-46.5541530000005
 31
0.0
  0
LINE
  5
A6
330
2F
100
AcDbEntity
  8
-15N-THT. THIẾT BỊ ĐÓNG MỞ
100
AcDbLine
 10
-88.49987800000235
 20
-52.92242400000077
 30
0.0
 11
-94.1610720000026
 21
-47.26126100000192
 31
0.0
  0
LINE
  5
A7
330
2F
100
AcDbEntity
  8
-15N-THT. THIẾT BỊ ĐÓNG MỞ
100
AcDbLine
 10
-112.5458380000018
 20
-65.64602699999932
 30
0.0
 11
-118.4999390000011
 21
-59.69189500000038
 31
0.0
  0
LINE
  5
A8
330
2F
100
AcDbEntity
  8
-15N-THT. THIẾT BỊ ĐÓNG MỞ
100
AcDbLine
 10
-111.8387450000009
 20
-64.93893400000115
 30
0.0
 11
-117.4998780000023
 21
-59.27775600000178
 31
0.0
  0
LINE
  5
A9
330
2F
100
AcDbEntity
  8
-15N-THT. THIẾT BỊ ĐÓNG MỞ
100
AcDbLine
 10
-94.1610720000026
 20
-64.93893400000115
 30
0.0
 11
-88.49987800000235
 21
-59.27775600000178
 31
0.0
  0
LINE
  5
AA
330
2F
100
AcDbEntity
  8
-15N-THT. THIẾT BỊ ĐÓNG MỞ
100
AcDbLine
 10
-93.45398000000205
 20
-65.64602699999932
 30
0.0
 11
-87.4998169999999
 21
-59.69189500000038
 31
0.0
  0
LINE
  5
AB
330
2F
100
AcDbEntity
  8
-15N-THT. THIẾT BỊ ĐÓNG MỞ
100
AcDbLine
 10
-117.5
 20
-59.27766400000064
 30
0.0
 11
-117.5
 21
-53.79533400000173
 31
0.0
  0
LINE
  5
AC
330
2F
100
AcDbEntity
  8
-15N-THT. THIẾT BỊ ĐÓNG MỞ
100
AcDbLine
 10
-118.5
 20
-59.69187900000043
 30
0.0
 11
-118.5
 21
-52.8872380000007
 31
0.0
  0
LINE
  5
AD
330
2F
100
AcDbEntity
  8
-15N-THT. THIẾT BỊ ĐÓNG MỞ
100
AcDbLine
 10
-88.49999999999999
 20
-59.27767900000026
 30
0.0
 11
-88.49999999999999
 21
-52.92233300000089
 31
0.0
  0
LINE
  5
AE
330
2F
100
AcDbEntity
  8
-15N-THT. THIẾT BỊ ĐÓNG MỞ
100
AcDbLine
 10
-87.5
 20
-59.69189500000038
 30
0.0
 11
-87.5
 21
-52.50811800000111
 31
0.0
  0
ARC
  5
AF
330
2F
100
AcDbEntity
  8
-15N-THT. THIẾT BỊ ĐÓNG MỞ
100
AcDbCircle
 10
-103.0
 20
-56.10000600000103
 30
0.0
 40
12.5
100
AcDbArc
 50
44.99999400001406
 51
89.99998199998775
  0
ARC
  5
B0
330
2F
100
AcDbEntity
  8
-15N-THT. THIẾT BỊ ĐÓNG MỞ
100
AcDbCircle
 10
-103.0
 20
-56.10000600000103
 30
0.0
 40
13.5
100
AcDbArc
 50
44.99999400001406
 51
89.99998199998775
  0
LINE
  5
B1
330
2F
100
AcDbEntity
  8
-15N-THT. THIẾT BỊ ĐÓNG MỞ
100
AcDbLine
 10
-88.49999999999999
 20
-59.27758800000038
 30
0.0
 11
-87.49987800000235
 21
-59.69184900000027
 31
0.0
  0
LINE
  5
B2
330
2F
100
AcDbEntity
  8
-15N-THT. THIẾT BỊ ĐÓNG MỞ
100
AcDbLine
 10
-88.49987800000235
 20
-52.92228700000078
 30
0.0
 11
-87.5
 21
-52.50811800000111
 31
0.0
  0
LINE
  5
B3
330
2F
100
AcDbEntity
  8
-15N-THT. THIẾT BỊ ĐÓNG MỞ
100
AcDbLine
 10
-109.2548830000014
 20
-44.13664200000084
 30
0.0
 11
-108.333802000001
 21
-44.79527300000199
 31
0.0
  0
LINE
  5
B4
330
2F
100
AcDbEntity
  8
-15N-THT. THIẾT BỊ ĐÓNG MỞ
100
AcDbLine
 10
-118.4999390000011
 20
-52.88710000000037
 30
0.0
 11
-117.4998780000023
 21
-53.79522700000098
 31
0.0
  0
LINE
  5
B5
330
2F
100
AcDbEntity
  8
-15N-THT. THIẾT BỊ ĐÓNG MỞ
100
AcDbLine
 10
-118.5000610000024
 20
-59.69189500000038
 30
0.0
 11
-117.4999390000011
 21
-59.27764900000102
 31
0.0
  0
LINE
  5
B6
330
2F
100
AcDbEntity
  8
-15N-THT. THIẾT BỊ ĐÓNG MỞ
100
AcDbLine
 10
-116.5
 20
-57.85000600000103
 30
0.0
 11
-116.5
 21
-54.35000600000103
 31
0.0
  0
LINE
  5
B7
330
2F
100
AcDbEntity
  8
-15N-THT. THIẾT BỊ ĐÓNG MỞ
100
AcDbLine
 10
-113.1000980000026
 20
-57.85000600000103
 30
0.0
 11
-113.1000980000026
 21
-54.35000600000103
 31
0.0
  0
LINE
  5
B8
330
2F
100
AcDbEntity
  8
-15N-THT. THIẾT BỊ ĐÓNG MỞ
100
AcDbLine
 10
-116.5
 20
-57.85000600000103
 30
0.0
 11
-111.6000980000026
 21
-57.85000600000103
 31
0.0
  0
LINE
  5
B9
330
2F
100
AcDbEntity
  8
-15N-THT. THIẾT BỊ ĐÓNG MỞ
100
AcDbLine
 10
-116.5
 20
-54.35000600000103
 30
0.0
 11
-111.6000980000026
 21
-54.35000600000103
 31
0.0
  0
LINE
  5
BA
330
2F
100
AcDbEntity
  8
-15N-THT. THIẾT BỊ ĐÓNG MỞ
100
AcDbLine
 10
-111.6000980000026
 20
-57.85000600000103
 30
0.0
 11
-111.6000980000026
 21
-54.35000600000103
 31
0.0
  0
LINE
  5
BB
330
2F
100
AcDbEntity
  8
-15N-THT. THIẾT BỊ ĐÓNG MỞ
100
AcDbLine
 10
-89.50000000000001
 20
-54.35000600000103
 30
0.0
 11
-89.50000000000001
 21
-57.85000600000103
 31
0.0
  0
LINE
  5
BC
330
2F
100
AcDbEntity
  8
-15N-THT. THIẾT BỊ ĐÓNG MỞ
100
AcDbLine
 10
-92.89990300000136
 20
-54.35000600000103
 30
0.0
 11
-92.89990300000136
 21
-57.85000600000103
 31
0.0
  0
LINE
  5
BD
330
2F
100
AcDbEntity
  8
-15N-THT. THIẾT BỊ ĐÓNG MỞ
100
AcDbLine
 10
-94.39990300000136
 20
-57.85000600000103
 30
0.0
 11
-89.50000000000001
 21
-57.85000600000103
 31
0.0
  0
LINE
  5
BE
330
2F
100
AcDbEntity
  8
-15N-THT. THIẾT BỊ ĐÓNG MỞ
100
AcDbLine
 10
-94.39990300000136
 20
-54.35000600000103
 30
0.0
 11
-89.50000000000001
 21
-54.35000600000103
 31
0.0
  0
LINE
  5
BF
330
2F
100
AcDbEntity
  8
-15N-THT. THIẾT BỊ ĐÓNG MỞ
100
AcDbLine
 10
-94.39990300000136
 20
-54.35000600000103
 30
0.0
 11
-94.39990300000136
 21
-57.85000600000103
 31
0.0
  0
LINE
  5
C0
330
2F
100
AcDbEntity
  8
-15N-THT. THIẾT BỊ ĐÓNG MỞ
100
AcDbLine
 10
-78.5
 20
70.60000599999921
 30
0.0
 11
-78.5
 21
38.99999999999955
 31
0.0
  0
ARC
  5
C1
330
2F
100
AcDbEntity
  8
-15N-THT. THIẾT BỊ ĐÓNG MỞ
100
AcDbCircle
 10
-86.5
 20
70.60000599999921
 30
0.0
 40
8.0
100
AcDbArc
 50
3.0508494428e-05
 51
90.00003700001935
  0
LINE
  5
C2
330
2F
100
AcDbEntity
  8
-15N-THT. THIẾT BỊ ĐÓNG MỞ
100
AcDbLine
 10
-78.5
 20
38.99999999999955
 30
0.0
 11
-82.0
 21
38.99999999999955
 31
0.0
  0
LINE
  5
C3
330
2F
100
AcDbEntity
  8
-15N-THT. THIẾT BỊ ĐÓNG MỞ
100
AcDbLine
 10
-85.0
 20
11.00000000000045
 30
0.0
 11
-85.0
 21
35.99999999999955
 31
0.0
  0
ARC
  5
C4
330
2F
100
AcDbEntity
  8
-15N-THT. THIẾT BỊ ĐÓNG MỞ
100
AcDbCircle
 10
-82.0
 20
35.99999999999955
 30
0.0
 40
3.0
100
AcDbArc
 50
89.99998199998775
 51
180.0000190000071
  0
LINE
  5
C5
330
2F
100
AcDbEntity
  8
-15N-THT. THIẾT BỊ ĐÓNG MỞ
100
AcDbLine
 10
-20.19995100000233
 20
-36.10000600000103
 30
0.0
 11
-20.19995100000233
 21
-43.60000600000103
 31
0.0
  0
LINE
  5
C6
330
2F
100
AcDbEntity
  8
-15N-THT. THIẾT BỊ ĐÓNG MỞ
100
AcDbLine
 10
-78.5
 20
-57.85000600000103
 30
0.0
 11
-33.14965800000209
 21
-57.85000600000103
 31
0.0
  0
LINE
  5
C7
330
2F
100
AcDbEntity
  8
-15N-THT. THIẾT BỊ ĐÓNG MỞ
100
AcDbLine
 10
-78.5
 20
-54.35025000000087
 30
0.0
 11
-33.14965800000209
 21
-54.35025000000087
 31
0.0
  0
LINE
  5
C8
330
2F
100
AcDbEntity
  8
-15N-THT. THIẾT BỊ ĐÓNG MỞ
100
AcDbLine
 10
-16.99975600000107
 20
-48.85000600000103
 30
0.0
 11
-16.99975600000107
 21
-52.50015300000041
 31
0.0
  0
LINE
  5
C9
330
2F
100
AcDbEntity
  8
-15N-THT. THIẾT BỊ ĐÓNG MỞ
100
AcDbLine
 10
-16.5
 20
-53.0001530000004
 30
0.0
 11
-14.49975600000107
 21
-53.0001530000004
 31
0.0
  0
LINE
  5
CA
330
2F
100
AcDbEntity
  8
-15N-THT. THIẾT BỊ ĐÓNG MỞ
100
AcDbLine
 10
-16.5
 20
-59.20010400000092
 30
0.0
 11
-14.49975600000107
 21
-59.20010400000092
 31
0.0
  0
LINE
  5
CB
330
2F
100
AcDbEntity
  8
-15N-THT. THIẾT BỊ ĐÓNG MỞ
100
AcDbLine
 10
-16.99975600000107
 20
-59.70010400000091
 30
0.0
 11
-16.99975600000107
 21
-63.35000600000194
 31
0.0
  0
ARC
  5
CC
330
2F
100
AcDbEntity
  8
-15N-THT. THIẾT BỊ ĐÓNG MỞ
100
AcDbCircle
 10
-14.49975600000107
 20
-59.70010400000091
 30
0.0
 40
0.5
100
AcDbArc
 50
359.9999829999827
 51
90.00004699996825
  0
ARC
  5
CD
330
2F
100
AcDbEntity
  8
-15N-THT. THIẾT BỊ ĐÓNG MỞ
100
AcDbCircle
 10
-16.5
 20
-59.70010400000091
 30
0.0
 40
0.5
100
AcDbArc
 50
90.00003700001935
 51
180.0000190000071
  0
ARC
  5
CE
330
2F
100
AcDbEntity
  8
-15N-THT. THIẾT BỊ ĐÓNG MỞ
100
AcDbCircle
 10
-14.49975600000107
 20
-52.50015300000041
 30
0.0
 40
0.5
100
AcDbArc
 50
269.9999730000338
 51
359.9999829999827
  0
ARC
  5
CF
330
2F
100
AcDbEntity
  8
-15N-THT. THIẾT BỊ ĐÓNG MỞ
100
AcDbCircle
 10
-16.5
 20
-52.50015300000041
 30
0.0
 40
0.5
100
AcDbArc
 50
180.0000460000254
 51
269.9999730000338
  0
LINE
  5
D0
330
2F
100
AcDbEntity
  8
-15N-THT. THIẾT BỊ ĐÓNG MỞ
100
AcDbLine
 10
-22.5
 20
-63.85000600000103
 30
0.0
 11
-17.5
 21
-63.85000600000103
 31
0.0
  0
LINE
  5
D1
330
2F
100
AcDbEntity
  8
-15N-THT. THIẾT BỊ ĐÓNG MỞ
100
AcDbLine
 10
-22.5
 20
-48.35000600000194
 30
0.0
 11
-17.5
 21
-48.35000600000194
 31
0.0
  0
ARC
  5
D2
330
2F
100
AcDbEntity
  8
-15N-THT. THIẾT BỊ ĐÓNG MỞ
100
AcDbCircle
 10
-17.5
 20
-48.85000600000103
 30
0.0
 40
0.5
100
AcDbArc
 50
359.9999829999827
 51
90.00004699996825
  0
ARC
  5
D3
330
2F
100
AcDbEntity
  8
-15N-THT. THIẾT BỊ ĐÓNG MỞ
100
AcDbCircle
 10
-17.5
 20
-63.35000600000194
 30
0.0
 40
0.5
100
AcDbArc
 50
269.9999730000338
 51
359.9999829999827
  0
LINE
  5
D4
330
2F
100
AcDbEntity
  8
-15N-THT. THIẾT BỊ ĐÓNG MỞ
100
AcDbLine
 10
-22.69995100000233
 20
-35.10000600000194
 30
0.0
 11
-21.19995100000233
 21
-35.10000600000194
 31
0.0
  0
LINE
  5
D5
330
2F
100
AcDbEntity
  8
-15N-THT. THIẾT BỊ ĐÓNG MỞ
100
AcDbLine
 10
-24.63378900000317
 20
-67.10000600000194
 30
0.0
 11
-15.49975600000107
 21
-67.10000600000194
 31
0.0
  0
ARC
  5
D6
330
2F
100
AcDbEntity
  8
-15N-THT. THIẾT BỊ ĐÓNG MỞ
100
AcDbCircle
 10
-15.49975600000107
 20
-65.60025000000178
 30
0.0
 40
1.5
100
AcDbArc
 50
269.9999730000338
 51
359.9999829999827
  0
LINE
  5
D7
330
2F
100
AcDbEntity
  8
-15N-THT. THIẾT BỊ ĐÓNG MỞ
100
AcDbLine
 10
-22.99975600000107
 20
-59.20010400000092
 30
0.0
 11
-22.99975600000107
 21
-63.35000600000194
 31
0.0
  0
LINE
  5
D8
330
2F
100
AcDbEntity
  8
-15N-THT. THIẾT BỊ ĐÓNG MỞ
100
AcDbLine
 10
-22.99975600000107
 20
-48.85000600000103
 30
0.0
 11
-22.99975600000107
 21
-52.50015300000041
 31
0.0
  0
ARC
  5
D9
330
2F
100
AcDbEntity
  8
-15N-THT. THIẾT BỊ ĐÓNG MỞ
100
AcDbCircle
 10
-22.5
 20
-63.35000600000194
 30
0.0
 40
0.5
100
AcDbArc
 50
180.0000460000254
 51
269.9999730000338
  0
ARC
  5
DA
330
2F
100
AcDbEntity
  8
-15N-THT. THIẾT BỊ ĐÓNG MỞ
100
AcDbCircle
 10
-22.5
 20
-48.85000600000103
 30
0.0
 40
0.5
100
AcDbArc
 50
90.00003700001935
 51
180.0000190000071
  0
LINE
  5
DB
330
2F
100
AcDbEntity
  8
-15N-THT. THIẾT BỊ ĐÓNG MỞ
100
AcDbLine
 10
-24.49975600000107
 20
-53.0001530000004
 30
0.0
 11
-24.49975600000107
 21
-54.83023100000036
 31
0.0
  0
LINE
  5
DC
330
2F
100
AcDbEntity
  8
-15N-THT. THIẾT BỊ ĐÓNG MỞ
100
AcDbLine
 10
-24.49975600000107
 20
-59.20010400000092
 30
0.0
 11
-22.99975600000107
 21
-59.20010400000092
 31
0.0
  0
LINE
  5
DD
330
2F
100
AcDbEntity
  8
-15N-THT. THIẾT BỊ ĐÓNG MỞ
100
AcDbLine
 10
-24.49975600000107
 20
-53.0001530000004
 30
0.0
 11
-23.49975600000107
 21
-53.0001530000004
 31
0.0
  0
ARC
  5
DE
330
2F
100
AcDbEntity
  8
-15N-THT. THIẾT BỊ ĐÓNG MỞ
100
AcDbCircle
 10
-23.49975600000107
 20
-52.50015300000041
 30
0.0
 40
0.5
100
AcDbArc
 50
269.9999730000338
 51
359.9999829999827
  0
LINE
  5
DF
330
2F
100
AcDbEntity
  8
-15N-THT. THIẾT BỊ ĐÓNG MỞ
100
AcDbLine
 10
-25.93325800000093
 20
-66.34994500000039
 30
0.0
 11
-29.68606600000203
 21
-59.84989900000027
 31
0.0
  0
ARC
  5
E0
330
2F
100
AcDbEntity
  8
-15N-THT. THIẾT BỊ ĐÓNG MỞ
100
AcDbCircle
 10
-33.14965800000209
 20
-61.85025000000087
 30
0.0
 40
4.0
100
AcDbArc
 50
29.99997000001336
 51
90.00009099995184
  0
ARC
  5
E1
330
2F
100
AcDbEntity
  8
-15N-THT. THIẾT BỊ ĐÓNG MỞ
100
AcDbCircle
 10
-24.63378900000317
 20
-65.60025000000178
 30
0.0
 40
1.5
100
AcDbArc
 50
209.9999849999893
 51
269.9998090000381
  0
LINE
  5
E2
330
2F
100
AcDbEntity
  8
-15N-THT. THIẾT BỊ ĐÓNG MỞ
100
AcDbLine
 10
-18.69995100000233
 20
-45.10000600000103
 30
0.0
 11
-15.49975600000107
 21
-45.10000600000103
 31
0.0
  0
ARC
  5
E3
330
2F
100
AcDbEntity
  8
-15N-THT. THIẾT BỊ ĐÓNG MỞ
100
AcDbCircle
 10
-15.49975600000107
 20
-46.60000600000103
 30
0.0
 40
1.5
100
AcDbArc
 50
359.9999829999827
 51
90.00004699996825
  0
ARC
  5
E4
330
2F
100
AcDbEntity
  8
-15N-THT. THIẾT BỊ ĐÓNG MỞ
100
AcDbCircle
 10
-18.69995100000233
 20
-43.60000600000103
 30
0.0
 40
1.5
100
AcDbArc
 50
180.0000460000254
 51
269.9999730000338
  0
ARC
  5
E5
330
2F
100
AcDbEntity
  8
-15N-THT. THIẾT BỊ ĐÓNG MỞ
100
AcDbCircle
 10
-21.19995100000233
 20
-36.10000600000103
 30
0.0
 40
1.0
100
AcDbArc
 50
359.9999829999827
 51
90.00004699996825
  0
LINE
  5
E6
330
2F
100
AcDbEntity
  8
-15N-THT. THIẾT BỊ ĐÓNG MỞ
100
AcDbLine
 10
-23.69995100000233
 20
-36.10000600000103
 30
0.0
 11
-23.69995100000233
 21
-43.65396100000043
 31
0.0
  0
ARC
  5
E7
330
2F
100
AcDbEntity
  8
-15N-THT. THIẾT BỊ ĐÓNG MỞ
100
AcDbCircle
 10
-22.69995100000233
 20
-36.10000600000103
 30
0.0
 40
1.0
100
AcDbArc
 50
90.00003700001935
 51
180.0000190000071
  0
LINE
  5
E8
330
2F
100
AcDbEntity
  8
-15N-THT. THIẾT BỊ ĐÓNG MỞ
100
AcDbLine
 10
-25.93316700000287
 20
-45.8497310000007
 30
0.0
 11
-29.68609600000127
 21
-52.35000600000194
 31
0.0
  0
ARC
  5
E9
330
2F
100
AcDbEntity
  8
-15N-THT. THIẾT BỊ ĐÓNG MỞ
100
AcDbCircle
 10
-33.14965800000209
 20
-50.35000600000103
 30
0.0
 40
4.0
100
AcDbArc
 50
269.9999189999971
 51
329.9999339999887
  0
ARC
  5
EA
330
2F
100
AcDbEntity
  8
-15N-THT. THIẾT BỊ ĐÓNG MỞ
100
AcDbCircle
 10
-24.63378900000317
 20
-46.60000600000103
 30
0.0
 40
1.5
100
AcDbArc
 50
100.8754460000325
 51
150.00013400001
  0
ARC
  5
EB
330
2F
100
AcDbEntity
  8
-15N-THT. THIẾT BỊ ĐÓNG MỞ
100
AcDbCircle
 10
-25.19995100000233
 20
-43.65396100000043
 30
0.0
 40
1.5
100
AcDbArc
 50
280.8754380000067
 51
359.9999829999827
  0
LINE
  5
EC
330
2F
100
AcDbEntity
  8
-15N-THT. THIẾT BỊ ĐÓNG MỞ
100
AcDbLine
 10
-24.49975600000107
 20
-57.36953700000185
 30
0.0
 11
-24.49975600000107
 21
-59.20010400000092
 31
0.0
  0
LINE
  5
ED
330
2F
100
AcDbEntity
  8
-15N-THT. THIẾT BỊ ĐÓNG MỞ
100
AcDbLine
 10
-26.50012200000129
 20
-58.14968900000031
 30
0.0
 11
-26.9403080000011
 21
-57.74182100000098
 31
0.0
  0
LINE
  5
EE
330
2F
100
AcDbEntity
  8
-15N-THT. THIẾT BỊ ĐÓNG MỞ
100
AcDbLine
 10
-26.50039700000343
 20
-58.14939899999945
 30
0.0
 11
-26.06039500000043
 21
-57.7416990000006
 31
0.0
  0
LINE
  5
EF
330
2F
100
AcDbEntity
  8
-15N-THT. THIẾT BỊ ĐÓNG MỞ
100
AcDbLine
 10
-27.52496400000018
 20
-57.87493900000072
 30
0.0
 11
-27.70217899999989
 21
-57.30186500000172
 31
0.0
  0
LINE
  5
F0
330
2F
100
AcDbEntity
  8
-15N-THT. THIẾT BỊ ĐÓNG MỞ
100
AcDbLine
 10
-27.52539100000286
 20
-57.87495400000034
 30
0.0
 11
-26.94024700000227
 21
-57.74180600000045
 31
0.0
  0
LINE
  5
F1
330
2F
100
AcDbEntity
  8
-15N-THT. THIẾT BỊ ĐÓNG MỞ
100
AcDbLine
 10
-28.27523800000199
 20
-57.124741000001
 30
0.0
 11
-28.14215100000001
 21
-56.53984100000116
 31
0.0
  0
LINE
  5
F2
330
2F
100
AcDbEntity
  8
-15N-THT. THIẾT BỊ ĐÓNG MỞ
100
AcDbLine
 10
-28.27526900000157
 20
-57.12487800000099
 30
0.0
 11
-27.70193500000096
 21
-57.30215500000077
 31
0.0
  0
LINE
  5
F3
330
2F
100
AcDbEntity
  8
-15N-THT. THIẾT BỊ ĐÓNG MỞ
100
AcDbLine
 10
-28.5504460000011
 20
-56.09979200000044
 30
0.0
 11
-28.14273099999991
 21
-55.65979000000107
 31
0.0
  0
LINE
  5
F4
330
2F
100
AcDbEntity
  8
-15N-THT. THIẾT BỊ ĐÓNG MỞ
100
AcDbLine
 10
-28.55017100000259
 20
-56.09928900000113
 30
0.0
 11
-28.14230400000088
 21
-56.5394590000019
 31
0.0
  0
LINE
  5
F5
330
2F
100
AcDbEntity
  8
-15N-THT. THIẾT BỊ ĐÓNG MỞ
100
AcDbLine
 10
-28.27560500000254
 20
-55.0747380000007
 30
0.0
 11
-27.70227100000193
 21
-54.89746100000184
 31
0.0
  0
LINE
  5
F6
330
2F
100
AcDbEntity
  8
-15N-THT. THIẾT BỊ ĐÓNG MỞ
100
AcDbLine
 10
-28.2755130000005
 20
-55.0746150000009
 30
0.0
 11
-28.14236500000334
 21
-55.65976000000091
 31
0.0
  0
LINE
  5
F7
330
2F
100
AcDbEntity
  8
-15N-THT. THIẾT BỊ ĐÓNG MỞ
100
AcDbLine
 10
-27.52520800000275
 20
-54.32438700000102
 30
0.0
 11
-26.94006400000217
 21
-54.45752000000038
 31
0.0
  0
LINE
  5
F8
330
2F
100
AcDbEntity
  8
-15N-THT. THIẾT BỊ ĐÓNG MỞ
100
AcDbLine
 10
-27.52462800000285
 20
-54.32443200000079
 30
0.0
 11
-27.70190500000172
 21
-54.89773600000035
 31
0.0
  0
LINE
  5
F9
330
2F
100
AcDbEntity
  8
-15N-THT. THIẾT BỊ ĐÓNG MỞ
100
AcDbLine
 10
-25.47488400000293
 20
-57.87478600000167
 30
0.0
 11
-26.05981500000053
 21
-57.74171400000113
 31
0.0
  0
LINE
  5
FA
330
2F
100
AcDbEntity
  8
-15N-THT. THIẾT BỊ ĐÓNG MỞ
100
AcDbLine
 10
-25.4747320000024
 20
-57.87527500000078
 30
0.0
 11
-25.28173900000183
 21
-57.25109900000052
 31
0.0
  0
LINE
  5
FB
330
2F
100
AcDbEntity
  8
-15N-THT. THIẾT BỊ ĐÓNG MỞ
100
AcDbLine
 10
-26.50051900000108
 20
-54.04980500000101
 30
0.0
 11
-26.06051700000171
 21
-54.4574890000008
 31
0.0
  0
LINE
  5
FC
330
2F
100
AcDbEntity
  8
-15N-THT. THIẾT BỊ ĐÓNG MỞ
100
AcDbLine
 10
-26.50006100000246
 20
-54.04949999999963
 30
0.0
 11
-26.94024700000227
 21
-54.45738200000096
 31
0.0
  0
LINE
  5
FD
330
2F
100
AcDbEntity
  8
-15N-THT. THIẾT BỊ ĐÓNG MỞ
100
AcDbLine
 10
-25.47540300000037
 20
-54.32412700000032
 30
0.0
 11
-25.28228800000216
 21
-54.94850899999938
 31
0.0
  0
LINE
  5
FE
330
2F
100
AcDbEntity
  8
-15N-THT. THIẾT BỊ ĐÓNG MỞ
100
AcDbLine
 10
-25.47515900000144
 20
-54.32449300000053
 30
0.0
 11
-26.06005900000309
 21
-54.45758100000102
 31
0.0
  0
ARC
  5
FF
330
2F
100
AcDbEntity
  8
-15N-THT. THIẾT BỊ ĐÓNG MỞ
100
AcDbCircle
 10
-24.89990300000136
 20
-54.83023100000036
 30
0.0
 40
0.4
100
AcDbArc
 50
197.1829440000144
 51
359.9996000000118
  0
ARC
  5
100
330
2F
100
AcDbEntity
  8
-15N-THT. THIẾT BỊ ĐÓNG MỞ
100
AcDbCircle
 10
-24.89990300000136
 20
-57.36953700000185
 30
0.0
 40
0.4
100
AcDbArc
 50
0.0010140559955136
 51
162.817831000027
  0
LINE
  5
101
330
2F
100
AcDbEntity
  8
-15N-THT. THIẾT BỊ ĐÓNG MỞ
100
AcDbLine
 10
-20.19995100000233
 20
36.10000599999921
 30
0.0
 11
-20.19995100000233
 21
43.60000600000012
 31
0.0
  0
LINE
  5
102
330
2F
100
AcDbEntity
  8
-15N-THT. THIẾT BỊ ĐÓNG MỞ
100
AcDbLine
 10
-78.5
 20
57.85000599999921
 30
0.0
 11
-33.14965800000209
 21
57.85000599999921
 31
0.0
  0
LINE
  5
103
330
2F
100
AcDbEntity
  8
-15N-THT. THIẾT BỊ ĐÓNG MỞ
100
AcDbLine
 10
-78.5
 20
54.35024999999905
 30
0.0
 11
-33.14965800000209
 21
54.35024999999905
 31
0.0
  0
LINE
  5
104
330
2F
100
AcDbEntity
  8
-15N-THT. THIẾT BỊ ĐÓNG MỞ
100
AcDbLine
 10
-16.99975600000107
 20
48.85000599999921
 30
0.0
 11
-16.99975600000107
 21
52.5001529999995
 31
0.0
  0
LINE
  5
105
330
2F
100
AcDbEntity
  8
-15N-THT. THIẾT BỊ ĐÓNG MỞ
100
AcDbLine
 10
-16.5
 20
53.0001530000004
 30
0.0
 11
-14.49975600000107
 21
53.0001530000004
 31
0.0
  0
LINE
  5
106
330
2F
100
AcDbEntity
  8
-15N-THT. THIẾT BỊ ĐÓNG MỞ
100
AcDbLine
 10
-16.5
 20
59.2001039999991
 30
0.0
 11
-14.49975600000107
 21
59.2001039999991
 31
0.0
  0
LINE
  5
107
330
2F
100
AcDbEntity
  8
-15N-THT. THIẾT BỊ ĐÓNG MỞ
100
AcDbLine
 10
-16.99975600000107
 20
59.7001039999991
 30
0.0
 11
-16.99975600000107
 21
63.35000599999921
 31
0.0
  0
ARC
  5
108
330
2F
100
AcDbEntity
  8
-15N-THT. THIẾT BỊ ĐÓNG MỞ
100
AcDbCircle
 10
-14.49975600000107
 20
59.7001039999991
 30
0.0
 40
0.5
100
AcDbArc
 50
269.9999730000338
 51
3.70000193568e-05
  0
ARC
  5
109
330
2F
100
AcDbEntity
  8
-15N-THT. THIẾT BỊ ĐÓNG MỞ
100
AcDbCircle
 10
-16.5
 20
59.7001039999991
 30
0.0
 40
0.5
100
AcDbArc
 50
179.9999639999755
 51
269.9999459999633
  0
ARC
  5
10A
330
2F
100
AcDbEntity
  8
-15N-THT. THIẾT BỊ ĐÓNG MỞ
100
AcDbCircle
 10
-14.49975600000107
 20
52.5001529999995
 30
0.0
 40
0.5
100
AcDbArc
 50
3.0508494428e-05
 51
90.00003700001935
  0
ARC
  5
10B
330
2F
100
AcDbEntity
  8
-15N-THT. THIẾT BỊ ĐÓNG MỞ
100
AcDbCircle
 10
-16.5
 20
52.5001529999995
 30
0.0
 40
0.5
100
AcDbArc
 50
90.00003700001935
 51
179.9999639999755
  0
LINE
  5
10C
330
2F
100
AcDbEntity
  8
-15N-THT. THIẾT BỊ ĐÓNG MỞ
100
AcDbLine
 10
-22.5
 20
63.85000599999921
 30
0.0
 11
-17.5
 21
63.85000599999921
 31
0.0
  0
LINE
  5
10D
330
2F
100
AcDbEntity
  8
-15N-THT. THIẾT BỊ ĐÓNG MỞ
100
AcDbLine
 10
-22.5
 20
48.35000599999921
 30
0.0
 11
-17.5
 21
48.35000599999921
 31
0.0
  0
ARC
  5
10E
330
2F
100
AcDbEntity
  8
-15N-THT. THIẾT BỊ ĐÓNG MỞ
100
AcDbCircle
 10
-17.5
 20
48.85000599999921
 30
0.0
 40
0.5
100
AcDbArc
 50
269.9999730000338
 51
3.70000193568e-05
  0
ARC
  5
10F
330
2F
100
AcDbEntity
  8
-15N-THT. THIẾT BỊ ĐÓNG MỞ
100
AcDbCircle
 10
-17.5
 20
63.35000599999921
 30
0.0
 40
0.5
100
AcDbArc
 50
3.0508494428e-05
 51
90.00003700001935
  0
LINE
  5
110
330
2F
100
AcDbEntity
  8
-15N-THT. THIẾT BỊ ĐÓNG MỞ
100
AcDbLine
 10
-22.69995100000233
 20
35.10000599999921
 30
0.0
 11
-21.19995100000233
 21
35.10000599999921
 31
0.0
  0
LINE
  5
111
330
2F
100
AcDbEntity
  8
-15N-THT. THIẾT BỊ ĐÓNG MỞ
100
AcDbLine
 10
-24.63378900000317
 20
67.10000599999921
 30
0.0
 11
-15.49975600000107
 21
67.10000599999921
 31
0.0
  0
ARC
  5
112
330
2F
100
AcDbEntity
  8
-15N-THT. THIẾT BỊ ĐÓNG MỞ
100
AcDbCircle
 10
-15.49975600000107
 20
65.60024999999905
 30
0.0
 40
1.5
100
AcDbArc
 50
3.0508494428e-05
 51
90.00003700001935
  0
LINE
  5
113
330
2F
100
AcDbEntity
  8
-15N-THT. THIẾT BỊ ĐÓNG MỞ
100
AcDbLine
 10
-22.99975600000107
 20
59.2001039999991
 30
0.0
 11
-22.99975600000107
 21
63.35000599999921
 31
0.0
  0
LINE
  5
114
330
2F
100
AcDbEntity
  8
-15N-THT. THIẾT BỊ ĐÓNG MỞ
100
AcDbLine
 10
-22.99975600000107
 20
48.85000599999921
 30
0.0
 11
-22.99975600000107
 21
52.5001529999995
 31
0.0
  0
ARC
  5
115
330
2F
100
AcDbEntity
  8
-15N-THT. THIẾT BỊ ĐÓNG MỞ
100
AcDbCircle
 10
-22.5
 20
63.35000599999921
 30
0.0
 40
0.5
100
AcDbArc
 50
90.00003700001935
 51
179.9999639999755
  0
ARC
  5
116
330
2F
100
AcDbEntity
  8
-15N-THT. THIẾT BỊ ĐÓNG MỞ
100
AcDbCircle
 10
-22.5
 20
48.85000599999921
 30
0.0
 40
0.5
100
AcDbArc
 50
179.9999639999755
 51
269.9999459999633
  0
LINE
  5
117
330
2F
100
AcDbEntity
  8
-15N-THT. THIẾT BỊ ĐÓNG MỞ
100
AcDbLine
 10
-24.49975600000107
 20
53.0001530000004
 30
0.0
 11
-24.49975600000107
 21
54.83023099999946
 31
0.0
  0
LINE
  5
118
330
2F
100
AcDbEntity
  8
-15N-THT. THIẾT BỊ ĐÓNG MỞ
100
AcDbLine
 10
-24.49975600000107
 20
59.2001039999991
 30
0.0
 11
-22.99975600000107
 21
59.2001039999991
 31
0.0
  0
LINE
  5
119
330
2F
100
AcDbEntity
  8
-15N-THT. THIẾT BỊ ĐÓNG MỞ
100
AcDbLine
 10
-24.49975600000107
 20
53.0001530000004
 30
0.0
 11
-23.49975600000107
 21
53.0001530000004
 31
0.0
  0
ARC
  5
11A
330
2F
100
AcDbEntity
  8
-15N-THT. THIẾT BỊ ĐÓNG MỞ
100
AcDbCircle
 10
-23.49975600000107
 20
52.5001529999995
 30
0.0
 40
0.5
100
AcDbArc
 50
3.0508494428e-05
 51
90.00003700001935
  0
LINE
  5
11B
330
2F
100
AcDbEntity
  8
-15N-THT. THIẾT BỊ ĐÓNG MỞ
100
AcDbLine
 10
-25.93319700000211
 20
66.34992199999806
 30
0.0
 11
-29.6860050000032
 21
59.84986899999831
 31
0.0
  0
ARC
  5
11C
330
2F
100
AcDbEntity
  8
-15N-THT. THIẾT BỊ ĐÓNG MỞ
100
AcDbCircle
 10
-33.14965800000209
 20
61.85024999999905
 30
0.0
 40
4.0
100
AcDbArc
 50
269.9999189999971
 51
330.0000430000204
  0
ARC
  5
11D
330
2F
100
AcDbEntity
  8
-15N-THT. THIẾT BỊ ĐÓNG MỞ
100
AcDbCircle
 10
-24.63378900000317
 20
65.60024999999905
 30
0.0
 40
1.5
100
AcDbArc
 50
90.00020100001501
 51
150.0000249999923
  0
LINE
  5
11E
330
2F
100
AcDbEntity
  8
-15N-THT. THIẾT BỊ ĐÓNG MỞ
100
AcDbLine
 10
-18.69995100000233
 20
45.10000599999921
 30
0.0
 11
-15.49975600000107
 21
45.10000599999921
 31
0.0
  0
ARC
  5
11F
330
2F
100
AcDbEntity
  8
-15N-THT. THIẾT BỊ ĐÓNG MỞ
100
AcDbCircle
 10
-15.49975600000107
 20
46.60000599999921
 30
0.0
 40
1.5
100
AcDbArc
 50
269.9999730000338
 51
3.70000193568e-05
  0
ARC
  5
120
330
2F
100
AcDbEntity
  8
-15N-THT. THIẾT BỊ ĐÓNG MỞ
100
AcDbCircle
 10
-18.69995100000233
 20
43.60000600000012
 30
0.0
 40
1.5
100
AcDbArc
 50
90.00003700001935
 51
179.9999639999755
  0
ARC
  5
121
330
2F
100
AcDbEntity
  8
-15N-THT. THIẾT BỊ ĐÓNG MỞ
100
AcDbCircle
 10
-21.19995100000233
 20
36.10000599999921
 30
0.0
 40
1.0
100
AcDbArc
 50
269.9999730000338
 51
3.70000193568e-05
  0
LINE
  5
122
330
2F
100
AcDbEntity
  8
-15N-THT. THIẾT BỊ ĐÓNG MỞ
100
AcDbLine
 10
-23.69995100000233
 20
36.10000599999921
 30
0.0
 11
-23.69995100000233
 21
43.65396099999952
 31
0.0
  0
ARC
  5
123
330
2F
100
AcDbEntity
  8
-15N-THT. THIẾT BỊ ĐÓNG MỞ
100
AcDbCircle
 10
-22.69995100000233
 20
36.10000599999921
 30
0.0
 40
1.0
100
AcDbArc
 50
179.9999639999755
 51
269.9999459999633
  0
LINE
  5
124
330
2F
100
AcDbEntity
  8
-15N-THT. THIẾT BỊ ĐÓNG MỞ
100
AcDbLine
 10
-25.93316700000287
 20
45.84962499999938
 30
0.0
 11
-29.68609600000127
 21
52.34988399999884
 31
0.0
  0
ARC
  5
125
330
2F
100
AcDbEntity
  8
-15N-THT. THIẾT BỊ ĐÓNG MỞ
100
AcDbCircle
 10
-33.14965800000209
 20
50.35000599999921
 30
0.0
 40
4.0
100
AcDbArc
 50
30.00007899999987
 51
90.00009099995184
  0
ARC
  5
126
330
2F
100
AcDbEntity
  8
-15N-THT. THIẾT BỊ ĐÓNG MỞ
100
AcDbCircle
 10
-24.63378900000317
 20
46.60000599999921
 30
0.0
 40
1.5
100
AcDbArc
 50
209.9998760000167
 51
259.1245639999499
  0
ARC
  5
127
330
2F
100
AcDbEntity
  8
-15N-THT. THIẾT BỊ ĐÓNG MỞ
100
AcDbCircle
 10
-25.19995100000233
 20
43.65396099999952
 30
0.0
 40
1.5
100
AcDbArc
 50
3.0508494428e-05
 51
79.12457199997581
  0
LINE
  5
128
330
2F
100
AcDbEntity
  8
-15N-THT. THIẾT BỊ ĐÓNG MỞ
100
AcDbLine
 10
-24.49975600000107
 20
57.36953699999912
 30
0.0
 11
-24.49975600000107
 21
59.2001039999991
 31
0.0
  0
LINE
  5
129
330
2F
100
AcDbEntity
  8
-15N-THT. THIẾT BỊ ĐÓNG MỞ
100
AcDbLine
 10
-26.49993900000118
 20
58.1496349999993
 30
0.0
 11
-26.94012500000099
 21
57.74176799999941
 31
0.0
  0
LINE
  5
12A
330
2F
100
AcDbEntity
  8
-15N-THT. THIẾT BỊ ĐÓNG MỞ
100
AcDbLine
 10
-26.50021400000333
 20
58.14935299999934
 30
0.0
 11
-26.06021099999998
 21
57.74164599999903
 31
0.0
  0
LINE
  5
12B
330
2F
100
AcDbEntity
  8
-15N-THT. THIẾT BỊ ĐÓNG MỞ
100
AcDbLine
 10
-27.52496400000018
 20
57.87493899999891
 30
0.0
 11
-27.70217899999989
 21
57.30184899999904
 31
0.0
  0
LINE
  5
12C
330
2F
100
AcDbEntity
  8
-15N-THT. THIẾT BỊ ĐÓNG MỞ
100
AcDbLine
 10
-27.52536000000328
 20
57.87493899999891
 30
0.0
 11
-26.94021600000269
 21
57.74179099999901
 31
0.0
  0
LINE
  5
12D
330
2F
100
AcDbEntity
  8
-15N-THT. THIẾT BỊ ĐÓNG MỞ
100
AcDbLine
 10
-28.27526900000157
 20
57.1247329999992
 30
0.0
 11
-28.14221200000247
 21
56.53982499999938
 31
0.0
  0
LINE
  5
12E
330
2F
100
AcDbEntity
  8
-15N-THT. THIẾT BỊ ĐÓNG MỞ
100
AcDbLine
 10
-28.27526900000157
 20
57.12486999999919
 30
0.0
 11
-27.70196600000054
 21
57.30213899999808
 31
0.0
  0
LINE
  5
12F
330
2F
100
AcDbEntity
  8
-15N-THT. THIẾT BỊ ĐÓNG MỞ
100
AcDbLine
 10
-28.5504460000011
 20
56.09956400000055
 30
0.0
 11
-28.14276200000313
 21
55.65956099999903
 31
0.0
  0
LINE
  5
130
330
2F
100
AcDbEntity
  8
-15N-THT. THIẾT BỊ ĐÓNG MỞ
100
AcDbLine
 10
-28.54998800000249
 20
56.09924299999921
 30
0.0
 11
-28.14212100000077
 21
56.53942899999811
 31
0.0
  0
LINE
  5
131
330
2F
100
AcDbEntity
  8
-15N-THT. THIẾT BỊ ĐÓNG MỞ
100
AcDbLine
 10
-28.27560500000254
 20
55.0747299999989
 30
0.0
 11
-27.70227100000193
 21
54.89744599999949
 31
0.0
  0
LINE
  5
132
330
2F
100
AcDbEntity
  8
-15N-THT. THIẾT BỊ ĐÓNG MỞ
100
AcDbLine
 10
-28.27545200000168
 20
55.07459999999946
 30
0.0
 11
-28.14233400000012
 21
55.65974399999823
 31
0.0
  0
LINE
  5
133
330
2F
100
AcDbEntity
  8
-15N-THT. THIẾT BỊ ĐÓNG MỞ
100
AcDbLine
 10
-27.52523800000199
 20
54.32437099999834
 30
0.0
 11
-26.94009400000141
 21
54.45750400000043
 31
0.0
  0
LINE
  5
134
330
2F
100
AcDbEntity
  8
-15N-THT. THIẾT BỊ ĐÓNG MỞ
100
AcDbLine
 10
-27.52462800000285
 20
54.32441699999936
 30
0.0
 11
-27.70190500000172
 21
54.89773599999944
 31
0.0
  0
LINE
  5
135
330
2F
100
AcDbEntity
  8
-15N-THT. THIẾT BỊ ĐÓNG MỞ
100
AcDbLine
 10
-25.47491500000251
 20
57.87477899999931
 30
0.0
 11
-26.05981500000053
 21
57.7416989999997
 31
0.0
  0
LINE
  5
136
330
2F
100
AcDbEntity
  8
-15N-THT. THIẾT BỊ ĐÓNG MỞ
100
AcDbLine
 10
-25.4747320000024
 20
57.87526699999898
 30
0.0
 11
-25.28173900000183
 21
57.25109900000052
 31
0.0
  0
LINE
  5
137
330
2F
100
AcDbEntity
  8
-15N-THT. THIẾT BỊ ĐÓNG MỞ
100
AcDbLine
 10
-26.50055000000066
 20
54.04957599999807
 30
0.0
 11
-26.06054700000095
 21
54.45727499999839
 31
0.0
  0
LINE
  5
138
330
2F
100
AcDbEntity
  8
-15N-THT. THIẾT BỊ ĐÓNG MỞ
100
AcDbLine
 10
-26.49987800000236
 20
54.04946099999915
 30
0.0
 11
-26.94006400000217
 21
54.45733599999903
 31
0.0
  0
LINE
  5
139
330
2F
100
AcDbEntity
  8
-15N-THT. THIẾT BỊ ĐÓNG MỞ
100
AcDbLine
 10
-25.47540300000037
 20
54.32411199999797
 30
0.0
 11
-25.28228800000216
 21
54.94849799999929
 31
0.0
  0
LINE
  5
13A
330
2F
100
AcDbEntity
  8
-15N-THT. THIẾT BỊ ĐÓNG MỞ
100
AcDbLine
 10
-25.47512800000186
 20
54.32448599999907
 30
0.0
 11
-26.06002799999988
 21
54.4575809999992
 31
0.0
  0
ARC
  5
13B
330
2F
100
AcDbEntity
  8
-15N-THT. THIẾT BỊ ĐÓNG MỞ
100
AcDbCircle
 10
-24.89990300000136
 20
54.83023099999946
 30
0.0
 40
0.4
100
AcDbArc
 50
0.0004129990879521
 51
162.817121000011
  0
ARC
  5
13C
330
2F
100
AcDbEntity
  8
-15N-THT. THIẾT BỊ ĐÓNG MỞ
100
AcDbCircle
 10
-24.89990300000136
 20
57.36953699999912
 30
0.0
 40
0.4
100
AcDbArc
 50
197.1822339999822
 51
359.9989990000086
  0
LINE
  5
13D
330
2F
100
AcDbEntity
  8
-15N-THT. THIẾT BỊ ĐÓNG MỞ
100
AcDbLine
 10
-126.0
 20
-94.34175100000039
 30
0.0
 11
-126.0
 21
-78.60000600000103
 31
0.0
  0
LINE
  5
13E
330
2F
100
AcDbEntity
  8
-15N-THT. THIẾT BỊ ĐÓNG MỞ
100
AcDbLine
 10
-155.0
 20
-152.0000000000004
 30
0.0
 11
-147.0
 21
-152.0000000000004
 31
0.0
  0
LINE
  5
13F
330
2F
100
AcDbEntity
  8
-15N-THT. THIẾT BỊ ĐÓNG MỞ
100
AcDbLine
 10
-155.0
 20
151.9999999999995
 30
0.0
 11
-147.0
 21
151.9999999999995
 31
0.0
  0
LINE
  5
140
330
2F
100
AcDbEntity
  8
-15N-THT. THIẾT BỊ ĐÓNG MỞ
100
AcDbLine
 10
-249.7999880000025
 20
-99.34175099999948
 30
0.0
 11
-131.0
 21
-99.34175099999948
 31
0.0
  0
LINE
  5
141
330
2F
100
AcDbEntity
  8
-15N-THT. THIẾT BỊ ĐÓNG MỞ
100
AcDbLine
 10
-249.7999880000025
 20
99.34175099999948
 30
0.0
 11
-131.0
 21
99.34175099999948
 31
0.0
  0
ARC
  5
142
330
2F
100
AcDbEntity
  8
-15N-THT. THIẾT BỊ ĐÓNG MỞ
100
AcDbCircle
 10
-131.0
 20
94.34175099999948
 30
0.0
 40
5.0
100
AcDbArc
 50
359.9999829999827
 51
90.00004699996825
  0
ARC
  5
143
330
2F
100
AcDbEntity
  8
-15N-THT. THIẾT BỊ ĐÓNG MỞ
100
AcDbCircle
 10
-131.0
 20
-94.34175100000039
 30
0.0
 40
5.0
100
AcDbArc
 50
270.0000279999611
 51
359.9999829999827
  0
LINE
  5
144
330
2F
100
AcDbEntity
  8
-15N-THT. THIẾT BỊ ĐÓNG MỞ
100
AcDbLine
 10
-147.0
 20
-152.0000000000004
 30
0.0
 11
-147.0
 21
-99.34175099999948
 31
0.0
  0
LINE
  5
145
330
2F
100
AcDbEntity
  8
-15N-THT. THIẾT BỊ ĐÓNG MỞ
100
AcDbLine
 10
-147.0
 20
99.34175099999948
 30
0.0
 11
-147.0
 21
151.9999999999995
 31
0.0
  0
LINE
  5
146
330
2F
100
AcDbEntity
  8
-15N-THT. THIẾT BỊ ĐÓNG MỞ
100
AcDbLine
 10
-215.0
 20
-99.34175099999948
 30
0.0
 11
-215.0
 21
99.34175099999948
 31
0.0
  0
LINE
  5
147
330
2F
100
AcDbEntity
  8
-15N-THT. THIẾT BỊ ĐÓNG MỞ
100
AcDbLine
 10
-126.0
 20
78.60000599999921
 30
0.0
 11
-126.0
 21
94.34175099999948
 31
0.0
  0
LINE
  5
148
330
2F
100
AcDbEntity
  8
-15N-THT. THIẾT BỊ ĐÓNG MỞ
100
AcDbLine
 10
-155.0
 20
-152.0000000000004
 30
0.0
 11
-155.0
 21
151.9999999999995
 31
0.0
  0
ARC
  5
149
330
2F
100
AcDbEntity
  8
-15N-THT. THIẾT BỊ ĐÓNG MỞ
100
AcDbCircle
 10
-6.0
 20
46.19998199999963
 30
0.0
 40
4.0
100
AcDbArc
 50
179.9999639999755
 51
228.1896809999606
  0
ARC
  5
14A
330
2F
100
AcDbEntity
  8
-15N-THT. THIẾT BỊ ĐÓNG MỞ
100
AcDbCircle
 10
-6.0
 20
66.19998199999964
 30
0.0
 40
8.0
100
AcDbArc
 50
99.5941030000369
 51
179.9999639999755
  0
ARC
  5
14B
330
2F
100
AcDbEntity
  8
-15N-THT. THIẾT BỊ ĐÓNG MỞ
100
AcDbCircle
 10
-8.0
 20
78.0321349999981
 30
0.0
 40
4.0
100
AcDbArc
 50
279.5940939999984
 51
359.9999829999827
  0
ARC
  5
14C
330
2F
100
AcDbEntity
  8
-15N-THT. THIẾT BỊ ĐÓNG MỞ
100
AcDbCircle
 10
-8.0
 20
78.0321349999981
 30
0.0
 40
8.0
100
AcDbArc
 50
279.5940939999984
 51
359.9999829999827
  0
ARC
  5
14D
330
2F
100
AcDbEntity
  8
-15N-THT. THIẾT BỊ ĐÓNG MỞ
100
AcDbCircle
 10
-6.0
 20
66.19998199999964
 30
0.0
 40
4.0
100
AcDbArc
 50
99.5941030000369
 51
179.9999639999755
  0
ARC
  5
14E
330
2F
100
AcDbEntity
  8
-15N-THT. THIẾT BỊ ĐÓNG MỞ
100
AcDbCircle
 10
-8.0
 20
-103.600006000001
 30
0.0
 40
4.0
100
AcDbArc
 50
269.9999730000338
 51
359.9999829999827
  0
LINE
  5
14F
330
2F
100
AcDbEntity
  8
-15N-THT. THIẾT BỊ ĐÓNG MỞ
100
AcDbLine
 10
-12.0
 20
-107.600006000001
 30
0.0
 11
-8.0
 21
-107.600006000001
 31
0.0
  0
LINE
  5
150
330
2F
100
AcDbEntity
  8
-15N-THT. THIẾT BỊ ĐÓNG MỞ
100
AcDbLine
 10
-20.0
 20
-138.600006000001
 30
0.0
 11
-20.0
 21
-115.6000060000019
 31
0.0
  0
ARC
  5
151
330
2F
100
AcDbEntity
  8
-15N-THT. THIẾT BỊ ĐÓNG MỞ
100
AcDbCircle
 10
-12.0
 20
-115.6000060000019
 30
0.0
 40
8.0
100
AcDbArc
 50
90.00003700001935
 51
180.0
  0
LINE
  5
152
330
2F
100
AcDbEntity
  8
-15N-THT. THIẾT BỊ ĐÓNG MỞ
100
AcDbLine
 10
-16.0
 20
-138.600006000001
 30
0.0
 11
-16.0
 21
-115.6000060000019
 31
0.0
  0
ARC
  5
153
330
2F
100
AcDbEntity
  8
-15N-THT. THIẾT BỊ ĐÓNG MỞ
100
AcDbCircle
 10
-12.0
 20
-115.6000060000019
 30
0.0
 40
4.0
100
AcDbArc
 50
90.00003700001935
 51
179.9999639999755
  0
LINE
  5
154
330
2F
100
AcDbEntity
  8
-15N-THT. THIẾT BỊ ĐÓNG MỞ
100
AcDbLine
 10
-12.0
 20
-111.600006000001
 30
0.0
 11
-8.0
 21
-111.600006000001
 31
0.0
  0
ARC
  5
155
330
2F
100
AcDbEntity
  8
-15N-THT. THIẾT BỊ ĐÓNG MỞ
100
AcDbCircle
 10
-8.0
 20
-103.600006000001
 30
0.0
 40
8.0
100
AcDbArc
 50
269.9999730000338
 51
299.9999670000454
  0
LINE
  5
156
330
2F
100
AcDbEntity
  8
-15N-THT. THIẾT BỊ ĐÓNG MỞ
100
AcDbLine
 10
-20.0
 20
-138.600006000001
 30
0.0
 11
-16.0
 21
-138.600006000001
 31
0.0
  0
LINE
  5
157
330
2F
100
AcDbEntity
  8
-15N-THT. THIẾT BỊ ĐÓNG MỞ
100
AcDbLine
 10
-10.0
 20
37.25573699999904
 30
0.0
 11
-10.0
 21
-37.15573100000029
 31
0.0
  0
LINE
  5
158
330
2F
100
AcDbEntity
  8
-15N-THT. THIẾT BỊ ĐÓNG MỞ
100
AcDbLine
 10
-14.0
 20
66.20007299999952
 30
0.0
 11
-14.0
 21
46.19998199999963
 31
0.0
  0
ARC
  5
159
330
2F
100
AcDbEntity
  8
-15N-THT. THIẾT BỊ ĐÓNG MỞ
100
AcDbCircle
 10
-6.0
 20
46.20007299999952
 30
0.0
 40
8.0
100
AcDbArc
 50
179.9999639999755
 51
228.1897079999969
  0
ARC
  5
15A
330
2F
100
AcDbEntity
  8
-15N-THT. THIẾT BỊ ĐÓNG MỞ
100
AcDbCircle
 10
-14.0
 20
37.25573699999904
 30
0.0
 40
4.0
100
AcDbArc
 50
359.9999280000032
 51
48.18969899994733
  0
LINE
  5
15B
330
2F
100
AcDbEntity
  8
-15N-THT. THIẾT BỊ ĐÓNG MỞ
100
AcDbLine
 10
-10.0
 20
66.20007299999952
 30
0.0
 11
-10.0
 21
46.19998199999963
 31
0.0
  0
ARC
  5
15C
330
2F
100
AcDbEntity
  8
-15N-THT. THIẾT BỊ ĐÓNG MỞ
100
AcDbCircle
 10
-6.0
 20
-46.10000600000193
 30
0.0
 40
4.0
100
AcDbArc
 50
131.8103019999823
 51
180.0000190000071
  0
ARC
  5
15D
330
2F
100
AcDbEntity
  8
-15N-THT. THIẾT BỊ ĐÓNG MỞ
100
AcDbCircle
 10
-6.0
 20
-46.10000600000193
 30
0.0
 40
8.0
100
AcDbArc
 50
131.8103019999823
 51
180.0000190000071
  0
ARC
  5
15E
330
2F
100
AcDbEntity
  8
-15N-THT. THIẾT BỊ ĐÓNG MỞ
100
AcDbCircle
 10
-14.0
 20
-37.15573100000029
 30
0.0
 40
4.0
100
AcDbArc
 50
311.8102930000451
 51
9.19999988372e-05
  0
ARC
  5
15F
330
2F
100
AcDbEntity
  8
-15N-THT. THIẾT BỊ ĐÓNG MỞ
100
AcDbCircle
 10
-14.0
 20
-37.15573100000029
 30
0.0
 40
8.0
100
AcDbArc
 50
311.8102930000451
 51
359.9999829999827
  0
LINE
  5
160
330
2F
100
AcDbEntity
  8
-15N-THT. THIẾT BỊ ĐÓNG MỞ
100
AcDbLine
 10
-10.0
 20
-46.10000600000193
 30
0.0
 11
-10.0
 21
-66.10000600000194
 31
0.0
  0
LINE
  5
161
330
2F
100
AcDbEntity
  8
-15N-THT. THIẾT BỊ ĐÓNG MỞ
100
AcDbLine
 10
-4.0
 20
-77.93215900000041
 30
0.0
 11
-4.0
 21
-111.8000180000003
 31
0.0
  0
ARC
  5
162
330
2F
100
AcDbEntity
  8
-15N-THT. THIẾT BỊ ĐÓNG MỞ
100
AcDbCircle
 10
-6.0
 20
-66.10000600000194
 30
0.0
 40
8.0
100
AcDbArc
 50
179.9999639999755
 51
260.4059070000186
  0
ARC
  5
163
330
2F
100
AcDbEntity
  8
-15N-THT. THIẾT BỊ ĐÓNG MỞ
100
AcDbCircle
 10
-8.0
 20
-77.93215900000041
 30
0.0
 40
4.0
100
AcDbArc
 50
3.0508494428e-05
 51
80.40591599995437
  0
ARC
  5
164
330
2F
100
AcDbEntity
  8
-15N-THT. THIẾT BỊ ĐÓNG MỞ
100
AcDbCircle
 10
-8.0
 20
-77.93215900000041
 30
0.0
 40
8.0
100
AcDbArc
 50
3.0508494428e-05
 51
80.40591599995437
  0
ARC
  5
165
330
2F
100
AcDbEntity
  8
-15N-THT. THIẾT BỊ ĐÓNG MỞ
100
AcDbCircle
 10
-6.0
 20
-66.10000600000194
 30
0.0
 40
4.0
100
AcDbArc
 50
179.9999639999755
 51
260.4059070000186
  0
LINE
  5
166
330
2F
100
AcDbEntity
  8
-15N-THT. THIẾT BỊ ĐÓNG MỞ
100
AcDbLine
 10
-4.0
 20
103.7000729999995
 30
0.0
 11
-4.0
 21
78.0321349999981
 31
0.0
  0
ARC
  5
167
330
2F
100
AcDbEntity
  8
-15N-THT. THIẾT BỊ ĐÓNG MỞ
100
AcDbCircle
 10
-8.0
 20
103.7000729999995
 30
0.0
 40
4.0
100
AcDbArc
 50
3.0508494428e-05
 51
90.00003700001935
  0
LINE
  5
168
330
2F
100
AcDbEntity
  8
-15N-THT. THIẾT BỊ ĐÓNG MỞ
100
AcDbLine
 10
0.0
 20
103.7000729999995
 30
0.0
 11
0.0
 21
78.0321349999981
 31
0.0
  0
LINE
  5
169
330
2F
100
AcDbEntity
  8
-15N-THT. THIẾT BỊ ĐÓNG MỞ
100
AcDbLine
 10
-12.0
 20
107.7000729999995
 30
0.0
 11
-8.0
 21
107.7000729999995
 31
0.0
  0
LINE
  5
16A
330
2F
100
AcDbEntity
  8
-15N-THT. THIẾT BỊ ĐÓNG MỞ
100
AcDbLine
 10
-20.0
 20
138.7000429999993
 30
0.0
 11
-20.0
 21
115.7000730000004
 31
0.0
  0
ARC
  5
16B
330
2F
100
AcDbEntity
  8
-15N-THT. THIẾT BỊ ĐÓNG MỞ
100
AcDbCircle
 10
-12.0
 20
115.7000730000004
 30
0.0
 40
8.0
100
AcDbArc
 50
180.0
 51
269.9999730000338
  0
LINE
  5
16C
330
2F
100
AcDbEntity
  8
-15N-THT. THIẾT BỊ ĐÓNG MỞ
100
AcDbLine
 10
-16.0
 20
138.7000429999993
 30
0.0
 11
-16.0
 21
115.7000730000004
 31
0.0
  0
ARC
  5
16D
330
2F
100
AcDbEntity
  8
-15N-THT. THIẾT BỊ ĐÓNG MỞ
100
AcDbCircle
 10
-12.0
 20
115.7000730000004
 30
0.0
 40
4.0
100
AcDbArc
 50
180.0000460000254
 51
269.9999730000338
  0
LINE
  5
16E
330
2F
100
AcDbEntity
  8
-15N-THT. THIẾT BỊ ĐÓNG MỞ
100
AcDbLine
 10
-12.0
 20
111.7000729999995
 30
0.0
 11
-8.0
 21
111.7000729999995
 31
0.0
  0
ARC
  5
16F
330
2F
100
AcDbEntity
  8
-15N-THT. THIẾT BỊ ĐÓNG MỞ
100
AcDbCircle
 10
-8.0
 20
103.7000729999995
 30
0.0
 40
8.0
100
AcDbArc
 50
0.0
 51
90.00003700001935
  0
LINE
  5
170
330
2F
100
AcDbEntity
  8
-15N-THT. THIẾT BỊ ĐÓNG MỞ
100
AcDbLine
 10
0.0
 20
-77.93215900000041
 30
0.0
 11
0.0
 21
-111.8000180000003
 31
0.0
  0
LINE
  5
171
330
2F
100
AcDbEntity
  8
-15N-THT. THIẾT BỊ ĐÓNG MỞ
100
AcDbLine
 10
-14.0
 20
-46.10000600000193
 30
0.0
 11
-14.0
 21
-66.10000600000194
 31
0.0
  0
LINE
  5
172
330
2F
100
AcDbEntity
  8
-15N-THT. THIẾT BỊ ĐÓNG MỞ
100
AcDbLine
 10
-20.0
 20
138.7000429999993
 30
0.0
 11
-16.0
 21
138.7000429999993
 31
0.0
  0
LINE
  5
173
330
2F
100
AcDbEntity
  8
-15N-THT. THIẾT BỊ ĐÓNG MỞ
100
AcDbLine
 10
-4.0
 20
-111.8000180000003
 30
0.0
 11
0.0
 21
-111.8000180000003
 31
0.0
  0
ARC
  5
174
330
2F
100
AcDbEntity
  8
-15N-THT. THIẾT BỊ ĐÓNG MỞ
100
AcDbCircle
 10
-14.0
 20
37.25570699999798
 30
0.0
 40
8.0
100
AcDbArc
 50
359.9999829999827
 51
48.18969899994733
  0
LINE
  5
175
330
2F
100
AcDbEntity
  8
-15N-THT. THIẾT BỊ ĐÓNG MỞ
100
AcDbLine
 10
-6.0
 20
-37.15573100000029
 30
0.0
 11
-6.0
 21
37.25570699999798
 31
0.0
  0
LINE
  5
176
330
2F
100
AcDbEntity
  8
-15N-THT. THIẾT BỊ ĐÓNG MỞ
100
AcDbLine
 10
-254.7999880000025
 20
-94.34175100000039
 30
0.0
 11
-254.7999880000025
 21
94.34175099999948
 31
0.0
  0
ARC
  5
177
330
2F
100
AcDbEntity
  8
-15N-THT. THIẾT BỊ ĐÓNG MỞ
100
AcDbCircle
 10
-249.7999880000025
 20
94.34175099999948
 30
0.0
 40
5.0
100
AcDbArc
 50
90.00000299998466
 51
180.0000049999744
  0
ARC
  5
178
330
2F
100
AcDbEntity
  8
-15N-THT. THIẾT BỊ ĐÓNG MỞ
100
AcDbCircle
 10
-249.7999880000025
 20
-94.34175100000039
 30
0.0
 40
5.0
100
AcDbArc
 50
180.0000049999744
 51
270.0000009999949
  0
LINE
  5
179
330
2F
100
AcDbEntity
  8
-15N-THT. THIẾT BỊ ĐÓNG MỞ
  6
DASHED
 62
6
100
AcDbLine
 10
-254.7999880000025
 20
-4.547e-13
 30
0.0
 11
0.0
 21
0.0
 31
0.0
  0
ENDBLK
  5
31
330
2F
100
AcDbEntity
  8
0
100
AcDbBlockEnd
  0
ENDSEC
  0
SECTION
  2
ENTITIES
  0
INSERT
  5
17C
330
17
100
AcDbEntity
  8
0
100
AcDbBlockReference
  2
06 - N - SC CTT CHIẾU HÔNG LC1D600
 10
254.7999880000025
 20
152.0000000000004
 30
0.0
  0
ENDSEC
  0
SECTION
  2
OBJECTS
  0
DICTIONARY
  5
A
330
0
100
AcDbDictionary
281
1
  3
ACAD_COLOR
350
B
  3
ACAD_GROUP
350
C
  3
ACAD_LAYOUT
350
D
  3
ACAD_MATERIAL
350
E
  3
ACAD_MLEADERSTYLE
350
F
  3
ACAD_MLINESTYLE
350
10
  3
ACAD_PLOTSETTINGS
350
11
  3
ACAD_PLOTSTYLENAME
350
12
  3
ACAD_SCALELIST
350
14
  3
ACAD_TABLESTYLE
350
15
  3
ACAD_VISUALSTYLE
350
16
  3
EZDXF_META
350
2D
  0
DICTIONARY
  5
B
330
A
100
AcDbDictionary
281
1
  0
DICTIONARY
  5
C
330
A
100
AcDbDictionary
281
1
  0
DICTIONARY
  5
D
330
A
100
AcDbDictionary
281
1
  3
Model
350
1A
  3
Layout1
350
1E
  0
DICTIONARY
  5
E
330
A
100
AcDbDictionary
281
1
  3
ByBlock
350
1F
  3
ByLayer
350
20
  3
Global
350
21
  0
DICTIONARY
  5
F
330
A
100
AcDbDictionary
281
1
  3
Standard
350
2C
  0
DICTIONARY
  5
10
330
A
100
AcDbDictionary
281
1
  3
Standard
350
22
  0
DICTIONARY
  5
11
330
A
100
AcDbDictionary
281
1
  0
ACDBDICTIONARYWDFLT
  5
12
330
A
100
AcDbDictionary
281
1
  3
Normal
350
13
100
AcDbDictionaryWithDefault
340
13
  0
ACDBPLACEHOLDER
  5
13
330
12
  0
DICTIONARY
  5
14
330
A
100
AcDbDictionary
281
1
  0
DICTIONARY
  5
15
330
A
100
AcDbDictionary
281
1
  0
DICTIONARY
  5
16
330
A
100
AcDbDictionary
281
1
  0
LAYOUT
  5
1A
330
D
100
AcDbPlotSettings
  1

  4
A3
  6

 40
7.5
 41
20.0
 42
7.5
 43
20.0
 44
420.0
 45
297.0
 46
0.0
 47
0.0
 48
0.0
 49
0.0
140
0.0
141
0.0
142
1.0
143
1.0
 70
1024
 72
1
 73
0
 74
5
  7

 75
16
 76
0
 77
2
 78
300
147
1.0
148
0.0
149
0.0
100
AcDbLayout
  1
Model
 70
1
 71
0
 10
0.0
 20
0.0
 11
420.0
 21
297.0
 12
0.0
 22
0.0
 32
0.0
 14
1e+20
 24
1e+20
 34
1e+20
 15
-1e+20
 25
-1e+20
 35
-1e+20
146
0.0
 13
0.0
 23
0.0
 33
0.0
 16
1.0
 26
0.0
 36
0.0
 17
0.0
 27
1.0
 37
0.0
 76
1
330
17
  0
LAYOUT
  5
1E
330
D
100
AcDbPlotSettings
  1

  4
A3
  6

 40
7.5
 41
20.0
 42
7.5
 43
20.0
 44
420.0
 45
297.0
 46
0.0
 47
0.0
 48
0.0
 49
0.0
140
0.0
141
0.0
142
1.0
143
1.0
 70
0
 72
1
 73
0
 74
5
  7

 75
16
 76
0
 77
2
 78
300
147
1.0
148
0.0
149
0.0
100
AcDbLayout
  1
Layout1
 70
1
 71
1
 10
0.0
 20
0.0
 11
420.0
 21
297.0
 12
0.0
 22
0.0
 32
0.0
 14
1e+20
 24
1e+20
 34
1e+20
 15
-1e+20
 25
-1e+20
 35
-1e+20
146
0.0
 13
0.0
 23
0.0
 33
0.0
 16
1.0
 26
0.0
 36
0.0
 17
0.0
 27
1.0
 37
0.0
 76
1
330
1B
  0
MATERIAL
  5
1F
102
{ACAD_REACTORS
330
E
102
}
330
E
100
AcDbMaterial
  1
ByBlock
  2

 70
0
 40
1.0
 71
1
 41
1.0
 91
-1023410177
 42
1.0
 72
1
  3

 73
1
 74
1
 75
1
 44
0.5
 73
0
 45
1.0
 46
1.0
 77
1
  4

 78
1
 79
1
170
1
 48
1.0
171
1
  6

172
1
173
1
174
1
140
1.0
141
1.0
175
1
  7

176
1
177
1
178
1
143
1.0
179
1
  8

270
1
271
1
272
1
145
1.0
146
1.0
273
1
  9

274
1
275
1
276
1
 42
1.0
 72
1
  3

 73
1
 74
1
 75
1
 94
63
  0
MATERIAL
  5
20
102
{ACAD_REACTORS
330
E
102
}
330
E
100
AcDbMaterial
  1
ByLayer
  2

 70
0
 40
1.0
 71
1
 41
1.0
 91
-1023410177
 42
1.0
 72
1
  3

 73
1
 74
1
 75
1
 44
0.5
 73
0
 45
1.0
 46
1.0
 77
1
  4

 78
1
 79
1
170
1
 48
1.0
171
1
  6

172
1
173
1
174
1
140
1.0
141
1.0
175
1
  7

176
1
177
1
178
1
143
1.0
179
1
  8

270
1
271
1
272
1
145
1.0
146
1.0
273
1
  9

274
1
275
1
276
1
 42
1.0
 72
1
  3

 73
1
 74
1
 75
1
 94
63
  0
MATERIAL
  5
21
102
{ACAD_REACTORS
330
E
102
}
330
E
100
AcDbMaterial
  1
Global
  2

 70
0
 40
1.0
 71
1
 41
1.0
 91
-1023410177
 42
1.0
 72
1
  3

 73
1
 74
1
 75
1
 44
0.5
 73
0
 45
1.0
 46
1.0
 77
1
  4

 78
1
 79
1
170
1
 48
1.0
171
1
  6

172
1
173
1
174
1
140
1.0
141
1.0
175
1
  7

176
1
177
1
178
1
143
1.0
179
1
  8

270
1
271
1
272
1
145
1.0
146
1.0
273
1
  9

274
1
275
1
276
1
 42
1.0
 72
1
  3

 73
1
 74
1
 75
1
 94
63
  0
MLINESTYLE
  5
22
102
{ACAD_REACTORS
330
10
102
}
330
10
100
AcDbMlineStyle
  2
Standard
 70
0
  3

 62
256
 51
90.0
 52
90.0
 71
2
 49
0.5
 62
256
  6
BYLAYER
 49
-0.5
 62
256
  6
BYLAYER
  0
MLEADERSTYLE
  5
2C
102
{ACAD_REACTORS
330
F
102
}
330
F
100
AcDbMLeaderStyle
179
2
170
2
171
1
172
0
 90
2
 40
0.0
 41
0.0
173
1
 91
-1056964608
 92
-2
290
1
 42
2.0
291
1
 43
8.0
  3
Standard
 44
4.0
300

342
29
174
1
175
1
176
0
178
1
 93
-1056964608
 45
4.0
292
0
297
0
 46
4.0
 94
-1056964608
 47
1.0
 49
1.0
140
1.0
294
1
141
0.0
177
0
142
1.0
295
0
296
0
143
3.75
271
0
272
9
273
9
  0
DICTIONARY
  5
2D
330
A
100
AcDbDictionary
280
1
281
1
  3
CREATED_BY_EZDXF
350
2E
  3
WRITTEN_BY_EZDXF
350
180
  0
DICTIONARYVAR
  5
2E
330
2D
100
DictionaryVariables
280
0
  1
1.4.4 @ 2026-09-23T12:53:25.826041+00:00
  0
DICTIONARYVAR
  5
180
330
2D
100
DictionaryVariables
280
0
  1
1.4.4 @ 2026-09-23T12:53:25.891066+00:00
  0
ENDSEC
  0
EOF
