  0
SECTION
  2
HEADER
  9
$ACADVER
  1
AC1032
  9
$ACADMAINTVER
 90
4
  9
$DWGCODEPAGE
  3
ANSI_1252
  9
$LASTSAVEDBY
  1
ezdxf
  9
$REQUIREDVERSIONS
160
0
  9
$INSBASE
 10
0.0
 20
0.0
 30
0.0
  9
$EXTMIN
 10
1e+20
 20
1e+20
 30
1e+20
  9
$EXTMAX
 10
-1e+20
 20
-1e+20
 30
-1e+20
  9
$LIMMIN
 10
0.0
 20
0.0
  9
$LIMMAX
 10
420.0
 20
297.0
  9
$ORTHOMODE
 70
0
  9
$REGENMODE
 70
1
  9
$FILLMODE
 70
1
  9
$QTEXTMODE
 70
0
  9
$MIRRTEXT
 70
1
  9
$LTSCALE
 40
1.0
  9
$ATTMODE
 70
1
  9
$TEXTSIZE
 40
2.5
  9
$TRACEWID
 40
1.0
  9
$TEXTSTYLE
  7
Standard
  9
$CLAYER
  8
0
  9
$CELTYPE
  6
ByLayer
  9
$CECOLOR
 62
256
  9
$CELTSCALE
 40
1.0
  9
$DISPSILH
 70
0
  9
$DIMSCALE
 40
1.0
  9
$DIMASZ
 40
2.5
  9
$DIMEXO
 40
0.625
  9
$DIMDLI
 40
3.75
  9
$DIMRND
 40
0.0
  9
$DIMDLE
 40
0.0
  9
$DIMEXE
 40
1.25
  9
$DIMTP
 40
0.0
  9
$DIMTM
 40
0.0
  9
$DIMTXT
 40
2.5
  9
$DIMCEN
 40
2.5
  9
$DIMTSZ
 40
0.0
  9
$DIMTOL
 70
0
  9
$DIMLIM
 70
0
  9
$DIMTIH
 70
0
  9
$DIMTOH
 70
0
  9
$DIMSE1
 70
0
  9
$DIMSE2
 70
0
  9
$DIMTAD
 70
1
  9
$DIMZIN
 70
8
  9
$DIMBLK
  1

  9
$DIMASO
 70
1
  9
$DIMSHO
 70
1
  9
$DIMPOST
  1

  9
$DIMAPOST
  1

  9
$DIMALT
 70
0
  9
$DIMALTD
 70
3
  9
$DIMALTF
 40
0.03937007874
  9
$DIMLFAC
 40
1.0
  9
$DIMTOFL
 70
1
  9
$DIMTVP
 40
0.0
  9
$DIMTIX
 70
0
  9
$DIMSOXD
 70
0
  9
$DIMSAH
 70
0
  9
$DIMBLK1
  1

  9
$DIMBLK2
  1

  9
$DIMSTYLE
  2
ISO-25
  9
$DIMCLRD
 70
0
  9
$DIMCLRE
 70
0
  9
$DIMCLRT
 70
0
  9
$DIMTFAC
 40
1.0
  9
$DIMGAP
 40
0.625
  9
$DIMJUST
 70
0
  9
$DIMSD1
 70
0
  9
$DIMSD2
 70
0
  9
$DIMTOLJ
 70
0
  9
$DIMTZIN
 70
8
  9
$DIMALTZ
 70
0
  9
$DIMALTTZ
 70
0
  9
$DIMUPT
 70
0
  9
$DIMDEC
 70
2
  9
$DIMTDEC
 70
2
  9
$DIMALTU
 70
2
  9
$DIMALTTD
 70
3
  9
$DIMTXSTY
  7
Standard
  9
$DIMAUNIT
 70
0
  9
$DIMADEC
 70
0
  9
$DIMALTRND
 40
0.0
  9
$DIMAZIN
 70
0
  9
$DIMDSEP
 70
44
  9
$DIMATFIT
 70
3
  9
$DIMFRAC
 70
0
  9
$DIMLDRBLK
  1

  9
$DIMLUNIT
 70
2
  9
$DIMLWD
 70
-2
  9
$DIMLWE
 70
-2
  9
$DIMTMOVE
 70
0
  9
$DIMFXL
 40
1.0
  9
$DIMFXLON
 70
0
  9
$DIMJOGANG
 40
0.785398163397
  9
$DIMTFILL
 70
0
  9
$DIMTFILLCLR
 70
0
  9
$DIMARCSYM
 70
0
  9
$DIMLTYPE
  6

  9
$DIMLTEX1
  6

  9
$DIMLTEX2
  6

  9
$DIMTXTDIRECTION
 70
0
  9
$LUNITS
 70
2
  9
$LUPREC
 70
4
  9
$SKETCHINC
 40
1.0
  9
$FILLETRAD
 40
10.0
  9
$AUNITS
 70
0
  9
$AUPREC
 70
2
  9
$MENU
  1
.
  9
$ELEVATION
 40
0.0
  9
$PELEVATION
 40
0.0
  9
$THICKNESS
 40
0.0
  9
$LIMCHECK
 70
0
  9
$CHAMFERA
 40
0.0
  9
$CHAMFERB
 40
0.0
  9
$CHAMFERC
 40
0.0
  9
$CHAMFERD
 40
0.0
  9
$SKPOLY
 70
0
  9
$TDCREATE
 40
2461307.878449074
  9
$TDUCREATE
 40
2458532.153996898
  9
$TDUPDATE
 40
2461307.878449074
  9
$TDUUPDATE
 40
2458532.1544311
  9
$TDINDWG
 40
0.0
  9
$TDUSRTIMER
 40
0.0
  9
$USRTIMER
 70
1
  9
$ANGBASE
 50
0.0
  9
$ANGDIR
 70
0
  9
$PDMODE
 70
0
  9
$PDSIZE
 40
0.0
  9
$PLINEWID
 40
0.0
  9
$SPLFRAME
 70
0
  9
$SPLINETYPE
 70
6
  9
$SPLINESEGS
 70
8
  9
$HANDSEED
  5
12E
  9
$SURFTAB1
 70
6
  9
$SURFTAB2
 70
6
  9
$SURFTYPE
 70
6
  9
$SURFU
 70
6
  9
$SURFV
 70
6
  9
$UCSBASE
  2

  9
$UCSNAME
  2

  9
$UCSORG
 10
0.0
 20
0.0
 30
0.0
  9
$UCSXDIR
 10
1.0
 20
0.0
 30
0.0
  9
$UCSYDIR
 10
0.0
 20
1.0
 30
0.0
  9
$UCSORTHOREF
  2

  9
$UCSORTHOVIEW
 70
0
  9
$UCSORGTOP
 10
0.0
 20
0.0
 30
0.0
  9
$UCSORGBOTTOM
 10
0.0
 20
0.0
 30
0.0
  9
$UCSORGLEFT
 10
0.0
 20
0.0
 30
0.0
  9
$UCSORGRIGHT
 10
0.0
 20
0.0
 30
0.0
  9
$UCSORGFRONT
 10
0.0
 20
0.0
 30
0.0
  9
$UCSORGBACK
 10
0.0
 20
0.0
 30
0.0
  9
$PUCSBASE
  2

  9
$PUCSNAME
  2

  9
$PUCSORG
 10
0.0
 20
0.0
 30
0.0
  9
$PUCSXDIR
 10
1.0
 20
0.0
 30
0.0
  9
$PUCSYDIR
 10
0.0
 20
1.0
 30
0.0
  9
$PUCSORTHOREF
  2

  9
$PUCSORTHOVIEW
 70
0
  9
$PUCSORGTOP
 10
0.0
 20
0.0
 30
0.0
  9
$PUCSORGBOTTOM
 10
0.0
 20
0.0
 30
0.0
  9
$PUCSORGLEFT
 10
0.0
 20
0.0
 30
0.0
  9
$PUCSORGRIGHT
 10
0.0
 20
0.0
 30
0.0
  9
$PUCSORGFRONT
 10
0.0
 20
0.0
 30
0.0
  9
$PUCSORGBACK
 10
0.0
 20
0.0
 30
0.0
  9
$USERI1
 70
0
  9
$USERI2
 70
0
  9
$USERI3
 70
0
  9
$USERI4
 70
0
  9
$USERI5
 70
0
  9
$USERR1
 40
0.0
  9
$USERR2
 40
0.0
  9
$USERR3
 40
0.0
  9
$USERR4
 40
0.0
  9
$USERR5
 40
0.0
  9
$WORLDVIEW
 70
1
  9
$SHADEDGE
 70
3
  9
$SHADEDIF
 70
70
  9
$TILEMODE
 70
1
  9
$MAXACTVP
 70
64
  9
$PINSBASE
 10
0.0
 20
0.0
 30
0.0
  9
$PLIMCHECK
 70
0
  9
$PEXTMIN
 10
1e+20
 20
1e+20
 30
1e+20
  9
$PEXTMAX
 10
-1e+20
 20
-1e+20
 30
-1e+20
  9
$PLIMMIN
 10
0.0
 20
0.0
  9
$PLIMMAX
 10
420.0
 20
297.0
  9
$UNITMODE
 70
0
  9
$VISRETAIN
 70
1
  9
$PLINEGEN
 70
0
  9
$PSLTSCALE
 70
1
  9
$TREEDEPTH
 70
3020
  9
$CMLSTYLE
  2
Standard
  9
$CMLJUST
 70
0
  9
$CMLSCALE
 40
20.0
  9
$PROXYGRAPHICS
 70
1
  9
$MEASUREMENT
 70
1
  9
$CELWEIGHT
370
-1
  9
$ENDCAPS
280
0
  9
$JOINSTYLE
280
0
  9
$LWDISPLAY
290
0
  9
$INSUNITS
 70
4
  9
$HYPERLINKBASE
  1

  9
$STYLESHEET
  1

  9
$XEDIT
290
1
  9
$CEPSNTYPE
380
0
  9
$PSTYLEMODE
290
1
  9
$FINGERPRINTGUID
  2
{62114C20-5A05-4430-BD71-355A9EBB0C5D}
  9
$VERSIONGUID
  2
{72845F6D-EC2A-43F2-BA99-7DD0C01A95BD}
  9
$EXTNAMES
290
1
  9
$PSVPSCALE
 40
0.0
  9
$OLESTARTUP
290
0
  9
$SORTENTS
280
127
  9
$INDEXCTL
280
0
  9
$HIDETEXT
280
1
  9
$XCLIPFRAME
280
1
  9
$HALOGAP
280
0
  9
$OBSCOLOR
 70
257
  9
$OBSLTYPE
280
0
  9
$INTERSECTIONDISPLAY
280
0
  9
$INTERSECTIONCOLOR
 70
257
  9
$DIMASSOC
280
2
  9
$PROJECTNAME
  1

  9
$CAMERADISPLAY
290
0
  9
$LENSLENGTH
 40
50.0
  9
$CAMERAHEIGHT
 40
0.0
  9
$STEPSPERSEC
 40
24.0
  9
$STEPSIZE
 40
100.0
  9
$3DDWFPREC
 40
2.0
  9
$PSOLWIDTH
 40
0.005
  9
$PSOLHEIGHT
 40
0.08
  9
$LOFTANG1
 40
1.570796326795
  9
$LOFTANG2
 40
1.570796326795
  9
$LOFTMAG1
 40
0.0
  9
$LOFTMAG2
 40
0.0
  9
$LOFTPARAM
 70
7
  9
$LOFTNORMALS
280
1
  9
$LATITUDE
 40
37.795
  9
$LONGITUDE
 40
-122.394
  9
$NORTHDIRECTION
 40
0.0
  9
$TIMEZONE
 70
-8000
  9
$LIGHTGLYPHDISPLAY
280
1
  9
$TILEMODELIGHTSYNCH
280
1
  9
$CMATERIAL
347
20
  9
$SOLIDHIST
280
0
  9
$SHOWHIST
280
1
  9
$DWFFRAME
280
2
  9
$DGNFRAME
280
2
  9
$REALWORLDSCALE
290
1
  9
$INTERFERECOLOR
 62
256
  9
$CSHADOW
280
0
  9
$SHADOWPLANELOCATION
 40
0.0
  0
ENDSEC
  0
SECTION
  2
CLASSES
  0
CLASS
  1
ACDBDICTIONARYWDFLT
  2
AcDbDictionaryWithDefault
  3
ObjectDBX Classes
 90
0
 91
0
280
0
281
0
  0
CLASS
  1
SUN
  2
AcDbSun
  3
SCENEOE
 90
1153
 91
0
280
0
281
0
  0
CLASS
  1
VISUALSTYLE
  2
AcDbVisualStyle
  3
ObjectDBX Classes
 90
4095
 91
0
280
0
281
0
  0
CLASS
  1
MATERIAL
  2
AcDbMaterial
  3
ObjectDBX Classes
 90
1153
 91
0
280
0
281
0
  0
CLASS
  1
SCALE
  2
AcDbScale
  3
ObjectDBX Classes
 90
1153
 91
0
280
0
281
0
  0
CLASS
  1
TABLESTYLE
  2
AcDbTableStyle
  3
ObjectDBX Classes
 90
4095
 91
0
280
0
281
0
  0
CLASS
  1
MLEADERSTYLE
  2
AcDbMLeaderStyle
  3
ACDB_MLEADERSTYLE_CLASS
 90
4095
 91
0
280
0
281
0
  0
CLASS
  1
DICTIONARYVAR
  2
AcDbDictionaryVar
  3
ObjectDBX Classes
 90
0
 91
0
280
0
281
0
  0
CLASS
  1
CELLSTYLEMAP
  2
AcDbCellStyleMap
  3
ObjectDBX Classes
 90
1152
 91
0
280
0
281
0
  0
CLASS
  1
MENTALRAYRENDERSETTINGS
  2
AcDbMentalRayRenderSettings
  3
SCENEOE
 90
1024
 91
0
280
0
281
0
  0
CLASS
  1
ACDBDETAILVIEWSTYLE
  2
AcDbDetailViewStyle
  3
ObjectDBX Classes
 90
1025
 91
0
280
0
281
0
  0
CLASS
  1
ACDBSECTIONVIEWSTYLE
  2
AcDbSectionViewStyle
  3
ObjectDBX Classes
 90
1025
 91
0
280
0
281
0
  0
CLASS
  1
RASTERVARIABLES
  2
AcDbRasterVariables
  3
ISM
 90
0
 91
0
280
0
281
0
  0
CLASS
  1
LAYOUT
  2
AcDbLayout
  3
ObjectDBX Classes
 90
0
 91
0
280
0
281
0
  0
CLASS
  1
ACDBPLACEHOLDER
  2
AcDbPlaceHolder
  3
ObjectDBX Classes
 90
0
 91
0
280
0
281
0
  0
ENDSEC
  0
SECTION
  2
TABLES
  0
TABLE
  2
VPORT
  5
8
330
0
100
AcDbSymbolTable
 70
1
  0
VPORT
  5
23
330
8
100
AcDbSymbolTableRecord
100
AcDbViewportTableRecord
  2
*Active
 70
0
 10
0.0
 20
0.0
 11
1.0
 21
1.0
 12
0.0
 22
0.0
 13
0.0
 23
0.0
 14
0.5
 24
0.5
 15
0.5
 25
0.5
 16
0.0
 26
0.0
 36
1.0
 17
0.0
 27
0.0
 37
0.0
 40
1000.0
 41
1.34
 42
50.0
 43
0.0
 44
0.0
 50
0.0
 51
0.0
 71
0
 72
1000
 73
1
 74
3
 75
0
 76
0
 77
0
 78
0
281
0
 65
0
146
0.0
  0
ENDTAB
  0
TABLE
  2
LTYPE
  5
2
330
0
100
AcDbSymbolTable
 70
4
  0
LTYPE
  5
24
330
2
100
AcDbSymbolTableRecord
100
AcDbLinetypeTableRecord
  2
ByBlock
 70
0
  3

 72
65
 73
0
 40
0.0
  0
LTYPE
  5
25
330
2
100
AcDbSymbolTableRecord
100
AcDbLinetypeTableRecord
  2
ByLayer
 70
0
  3

 72
65
 73
0
 40
0.0
  0
LTYPE
  5
26
330
2
100
AcDbSymbolTableRecord
100
AcDbLinetypeTableRecord
  2
Continuous
 70
0
  3

 72
65
 73
0
 40
0.0
  0
LTYPE
  5
12A
330
2
100
AcDbSymbolTableRecord
100
AcDbLinetypeTableRecord
  2
ASVLTYPE
 70
0
  3
__ __ __ __ __ __ __ __ __ __ __ __ __ __ __ __ __ __ __ __ __
 72
65
 73
2
 40
0.75
 49
0.5
 74
0
 49
-0.25
 74
0
  0
ENDTAB
  0
TABLE
  2
LAYER
  5
1
330
0
100
AcDbSymbolTable
 70
2
  0
LAYER
  5
27
330
1
100
AcDbSymbolTableRecord
100
AcDbLayerTableRecord
  2
0
 70
0
 62
7
  6
Continuous
370
-3
390
13
347
21
  0
LAYER
  5
28
330
1
100
AcDbSymbolTableRecord
100
AcDbLayerTableRecord
  2
Defpoints
 70
0
 62
7
  6
Continuous
290
0
370
-3
390
13
347
21
  0
ENDTAB
  0
TABLE
  2
STYLE
  5
5
330
0
100
AcDbSymbolTable
 70
1
  0
STYLE
  5
29
330
5
100
AcDbSymbolTableRecord
100
AcDbTextStyleTableRecord
  2
Standard
 70
0
 40
0.0
 41
1.0
 50
0.0
 71
0
 42
2.5
  3
txt
  4

  0
ENDTAB
  0
TABLE
  2
VIEW
  5
7
330
0
100
AcDbSymbolTable
 70
0
  0
ENDTAB
  0
TABLE
  2
UCS
  5
6
330
0
100
AcDbSymbolTable
 70
0
  0
ENDTAB
  0
TABLE
  2
APPID
  5
3
330
0
100
AcDbSymbolTable
 70
3
  0
APPID
  5
2A
330
3
100
AcDbSymbolTableRecord
100
AcDbRegAppTableRecord
  2
ACAD
 70
0
  0
APPID
  5
12B
330
3
100
AcDbSymbolTableRecord
100
AcDbRegAppTableRecord
  2
HATCHBACKGROUNDCOLOR
 70
0
  0
APPID
  5
12C
330
3
100
AcDbSymbolTableRecord
100
AcDbRegAppTableRecord
  2
EZDXF
 70
0
  0
ENDTAB
  0
TABLE
  2
DIMSTYLE
  5
4
330
0
100
AcDbSymbolTable
 70
1
100
AcDbDimStyleTable
  0
DIMSTYLE
105
2B
330
4
100
AcDbSymbolTableRecord
100
AcDbDimStyleTableRecord
  2
Standard
 70
0
 40
1.0
 41
2.5
 42
0.625
 43
3.75
 44
1.25
 45
0.0
 46
0.0
 47
0.0
 48
0.0
 49
2.5
140
2.5
141
2.5
142
0.0
143
0.03937007874
144
1.0
145
0.0
146
1.0
147
0.625
148
0.0
 69
0
 70
0
 71
0
 72
0
 73
0
 74
0
 75
0
 76
0
 77
1
 78
8
 79
3
170
0
171
3
172
1
173
0
174
0
175
0
176
0
177
0
178
0
179
2
271
2
272
2
273
2
274
3
275
0
276
0
277
2
278
44
279
0
280
0
281
0
282
0
283
0
284
8
285
0
286
0
288
0
289
3
290
0
371
-2
372
-2
  0
ENDTAB
  0
TABLE
  2
BLOCK_RECORD
  5
9
330
0
100
AcDbSymbolTable
 70
18
  0
BLOCK_RECORD
  5
17
330
9
100
AcDbSymbolTableRecord
100
AcDbBlockTableRecord
  2
*Model_Space
340
1A
 70
0
280
1
281
0
  0
BLOCK_RECORD
  5
1B
330
9
100
AcDbSymbolTableRecord
100
AcDbBlockTableRecord
  2
*Paper_Space
340
1E
 70
0
280
1
281
0
  0
BLOCK_RECORD
  5
52
330
9
100
AcDbSymbolTableRecord
100
AcDbBlockTableRecord
  2
CML400A-1
340
0
 70
0
280
1
281
0
  0
BLOCK_RECORD
  5
64
330
9
100
AcDbSymbolTableRecord
100
AcDbBlockTableRecord
  2
CML400A-2
340
0
 70
0
280
1
281
0
  0
BLOCK_RECORD
  5
6E
330
9
100
AcDbSymbolTableRecord
100
AcDbBlockTableRecord
  2
CML400A-3
340
0
 70
0
280
1
281
0
  0
BLOCK_RECORD
  5
7E
330
9
100
AcDbSymbolTableRecord
100
AcDbBlockTableRecord
  2
CML500A-1
340
0
 70
0
280
1
281
0
  0
BLOCK_RECORD
  5
90
330
9
100
AcDbSymbolTableRecord
100
AcDbBlockTableRecord
  2
CML500A-2
340
0
 70
0
280
1
281
0
  0
BLOCK_RECORD
  5
9A
330
9
100
AcDbSymbolTableRecord
100
AcDbBlockTableRecord
  2
CML500A-3
340
0
 70
0
280
1
281
0
  0
BLOCK_RECORD
  5
AA
330
9
100
AcDbSymbolTableRecord
100
AcDbBlockTableRecord
  2
CML800A-1
340
0
 70
0
280
1
281
0
  0
BLOCK_RECORD
  5
BC
330
9
100
AcDbSymbolTableRecord
100
AcDbBlockTableRecord
  2
CML800A-2
340
0
 70
0
280
1
281
0
  0
BLOCK_RECORD
  5
C6
330
9
100
AcDbSymbolTableRecord
100
AcDbBlockTableRecord
  2
CML800A-3
340
0
 70
0
280
1
281
0
  0
BLOCK_RECORD
  5
D0
330
9
100
AcDbSymbolTableRecord
100
AcDbBlockTableRecord
  2
CML3200A-1
340
0
 70
0
280
1
281
0
  0
BLOCK_RECORD
  5
E2
330
9
100
AcDbSymbolTableRecord
100
AcDbBlockTableRecord
  2
CML3200A-2
340
0
 70
0
280
1
281
0
  0
BLOCK_RECORD
  5
EC
330
9
100
AcDbSymbolTableRecord
100
AcDbBlockTableRecord
  2
CML3200A-3
340
0
 70
0
280
1
281
0
  0
BLOCK_RECORD
  5
F6
330
9
100
AcDbSymbolTableRecord
100
AcDbBlockTableRecord
  2
CML250A-1
340
0
 70
0
280
1
281
0
  0
BLOCK_RECORD
  5
108
330
9
100
AcDbSymbolTableRecord
100
AcDbBlockTableRecord
  2
CML250A-2
340
0
 70
0
280
1
281
0
  0
BLOCK_RECORD
  5
112
330
9
100
AcDbSymbolTableRecord
100
AcDbBlockTableRecord
  2
CML250A-3
340
0
 70
0
280
1
281
0
  0
BLOCK_RECORD
  5
124
330
9
100
AcDbSymbolTableRecord
100
AcDbBlockTableRecord
  2
A$C3D6C2CD6
340
0
 70
0
280
1
281
0
  0
ENDTAB
  0
ENDSEC
  0
SECTION
  2
BLOCKS
  0
BLOCK
  5
18
330
17
100
AcDbEntity
  8
0
100
AcDbBlockBegin
  2
*Model_Space
 70
0
 10
0.0
 20
0.0
 30
0.0
  3
*Model_Space
  1

  0
ENDBLK
  5
19
330
17
100
AcDbEntity
  8
0
100
AcDbBlockEnd
  0
BLOCK
  5
1C
330
1B
100
AcDbEntity
  8
0
100
AcDbBlockBegin
  2
*Paper_Space
 70
0
 10
0.0
 20
0.0
 30
0.0
  3
*Paper_Space
  1

  0
ENDBLK
  5
1D
330
1B
100
AcDbEntity
  8
0
100
AcDbBlockEnd
  0
BLOCK
  5
53
330
52
100
AcDbEntity
  8
0
100
AcDbBlockBegin
  2
CML400A-1
 70
0
 10
0.0
 20
0.0
 30
0.0
  3
CML400A-1
  1

  0
CIRCLE
  5
55
330
52
100
AcDbEntity
  8
0
 62
85
100
AcDbCircle
 10
54.50000000001455
 20
66.0
 30
0.0
 40
29.5
  0
CIRCLE
  5
56
330
52
100
AcDbEntity
  8
0
 62
85
100
AcDbCircle
 10
54.50000000001455
 20
66.0
 30
0.0
 40
50.0
  0
LWPOLYLINE
  5
57
330
52
100
AcDbEntity
  8
0
 62
85
100
AcDbPolyline
 90
4
 70
0
 10
82.75000000001452
 20
2.0
 10
109.0
 20
2.0
 10
109.0
 20
0.0
 10
81.81751761051419
 20
0.0
  0
LWPOLYLINE
  5
58
330
52
100
AcDbEntity
  8
0
 62
85
100
AcDbPolyline
 90
4
 70
0
 10
25.93248238948581
 20
0.0
 10
0.0
 20
0.0
 10
0.0
 20
2.0
 10
24.99999999998545
 20
2.0
  0
LINE
  5
59
330
52
100
AcDbEntity
  8
0
 62
85
100
AcDbLine
 10
38.00000000001455
 20
16.0
 30
0.0
 11
71.00000000001454
 21
16.0
 31
0.0
  0
LINE
  5
5A
330
52
100
AcDbEntity
  8
0
 62
85
100
AcDbLine
 10
70.06751761052874
 20
14.0
 30
0.0
 11
38.93248238948582
 21
14.0
 31
0.0
  0
HATCH
  5
5B
330
52
100
AcDbEntity
  8
0
 62
85
100
AcDbHatch
 10
0.0
 20
0.0
 30
0.0
210
0.0
220
0.0
230
1.0
  2
ANSI31
 70
0
 71
0
 91
1
 92
7
 72
0
 73
1
 93
4
 10
91.0
 20
2.0
 10
91.0
 20
0.0
 10
109.0
 20
0.0
 10
109.0
 20
2.0
 97
1
330
5A4
 75
0
 76
1
 52
0.0
 41
0.5
 77
0
 78
1
 53
45.0
 43
-80580.8663978648
 44
-41784.72830941116
 45
-1.122532015133643
 46
1.122532015133643
 79
0
 47
0.0891282895374719
 98
1
 10
101.2261881902959
 20
1.475025129468121
  0
LWPOLYLINE
  5
5C
330
52
100
AcDbEntity
  8
0
 62
85
100
AcDbPolyline
 90
4
 70
1
 10
91.0
 20
2.0
 10
109.0
 20
2.0
 10
109.0
 20
0.0
 10
91.0
 20
0.0
  0
HATCH
  5
5D
330
52
100
AcDbEntity
  8
0
 62
85
100
AcDbHatch
 10
0.0
 20
0.0
 30
0.0
210
0.0
220
0.0
230
1.0
  2
ANSI31
 70
0
 71
0
 91
1
 92
7
 72
0
 73
1
 93
4
 10
0.0
 20
2.0
 10
0.0
 20
0.0
 10
18.0
 20
0.0
 10
18.0
 20
2.0
 97
1
330
5A6
 75
0
 76
1
 52
0.0
 41
0.5
 77
0
 78
1
 53
135.0
 43
80689.86639786475
 44
-41784.72830941116
 45
1.122532015133643
 46
1.122532015133643
 79
0
 47
0.0891282895374719
 98
1
 10
7.773811809704056
 20
1.475025129468121
  0
LWPOLYLINE
  5
5E
330
52
100
AcDbEntity
  8
0
 62
85
100
AcDbPolyline
 90
4
 70
1
 10
18.0
 20
2.0
 10
0.0
 20
2.0
 10
0.0
 20
0.0
 10
18.0
 20
0.0
  0
LINE
  5
5F
330
52
100
AcDbEntity
  8
0
 62
85
100
AcDbLine
 10
82.75000000001452
 20
2.0
 30
0.0
 11
71.00000000001454
 21
16.0
 31
0.0
  0
LINE
  5
60
330
52
100
AcDbEntity
  8
0
 62
85
100
AcDbLine
 10
81.81751761051419
 20
0.0
 30
0.0
 11
70.06751761052874
 21
14.0
 31
0.0
  0
LINE
  5
61
330
52
100
AcDbEntity
  8
0
 62
85
100
AcDbLine
 10
24.99999999998545
 20
2.0
 30
0.0
 11
38.0
 21
16.0
 31
0.0
  0
LINE
  5
62
330
52
100
AcDbEntity
  8
0
 62
85
100
AcDbLine
 10
25.93248238948581
 20
0.0
 30
0.0
 11
38.93248238948582
 21
14.0
 31
0.0
  0
MTEXT
  5
63
330
52
100
AcDbEntity
  8
0
 62
85
100
AcDbMText
 10
54.50000000001455
 20
27.79424751830084
 30
0.0
 40
5.0
 41
0.0
 46
0.0
 71
5
 72
5
  1
{\fArial|b0|i0|c0|p34;CML 400/5A}
  0
ENDBLK
  5
54
330
52
100
AcDbEntity
  8
0
100
AcDbBlockEnd
  0
BLOCK
  5
65
330
64
100
AcDbEntity
  8
0
100
AcDbBlockBegin
  2
CML400A-2
 70
0
 10
0.0
 20
0.0
 30
0.0
  3
CML400A-2
  1

  0
LWPOLYLINE
  5
67
330
64
100
AcDbEntity
  8
0
 62
85
100
AcDbPolyline
 90
4
 70
1
 10
-5.5
 20
116.0
 10
50.5
 20
116.0
 10
50.5
 20
16.0
 10
-5.5
 20
16.0
  0
LWPOLYLINE
  5
68
330
64
100
AcDbEntity
  8
0
 62
85
100
AcDbPolyline
 90
4
 70
1
 10
0.0
 20
2.0
 10
45.0
 20
2.0
 10
45.0
 20
0.0
 10
0.0
 20
0.0
  0
LWPOLYLINE
  5
69
330
64
100
AcDbEntity
  8
0
 62
85
100
AcDbPolyline
 90
4
 70
1
 10
0.0
 20
16.0
 10
45.0
 20
16.0
 10
45.0
 20
2.0
 10
0.0
 20
2.0
  0
LINE
  5
6A
330
64
100
AcDbEntity
  8
0
 62
85
100
AcDbLine
 10
26.75
 20
2.0
 30
0.0
 11
26.75
 21
0.0
 31
0.0
  0
LINE
  5
6B
330
64
100
AcDbEntity
  8
0
 62
85
100
AcDbLine
 10
18.25
 20
2.0
 30
0.0
 11
18.25
 21
0.0
 31
0.0
  0
LINE
  5
6C
330
64
100
AcDbEntity
  8
0
  6
ASVLTYPE
 62
85
 48
10.0
100
AcDbLine
 10
-5.5
 20
95.5
 30
0.0
 11
50.5
 21
95.5
 31
0.0
  0
LINE
  5
6D
330
64
100
AcDbEntity
  8
0
  6
ASVLTYPE
 62
85
 48
10.0
100
AcDbLine
 10
-5.5
 20
36.5
 30
0.0
 11
50.5
 21
36.5
 31
0.0
  0
ENDBLK
  5
66
330
64
100
AcDbEntity
  8
0
100
AcDbBlockEnd
  0
BLOCK
  5
6F
330
6E
100
AcDbEntity
  8
0
100
AcDbBlockBegin
  2
CML400A-3
 70
0
 10
0.0
 20
0.0
 30
0.0
  3
CML400A-3
  1

  0
LWPOLYLINE
  5
71
330
6E
100
AcDbEntity
  8
0
 62
85
100
AcDbPolyline
 90
4
 70
1
 10
80637.8520773735
 20
41946.02421417005
 10
80637.8520773735
 20
42002.02421417003
 10
80737.8520773735
 20
42002.02421417003
 10
80737.8520773735
 20
41946.02421417005
  0
LINE
  5
72
330
6E
100
AcDbEntity
  8
0
  6
ASVLTYPE
 62
85
 48
10.0
100
AcDbLine
 10
80658.35207737352
 20
41946.02421417005
 30
0.0
 11
80658.35207737352
 21
42002.02421417003
 31
0.0
  0
LINE
  5
73
330
6E
100
AcDbEntity
  8
0
  6
ASVLTYPE
 62
85
 48
10.0
100
AcDbLine
 10
80717.35207737352
 20
41946.02421417005
 30
0.0
 11
80717.35207737352
 21
42002.02421417003
 31
0.0
  0
LWPOLYLINE
  5
74
330
6E
100
AcDbEntity
  8
0
 62
85
100
AcDbPolyline
 90
6
 70
0
 10
80742.35207737348
 20
41969.77421417003
 10
80742.35207737348
 20
41951.52421417003
 10
80737.8520773735
 20
41951.52421417003
 10
80737.8520773735
 20
41996.52421417003
 10
80742.35207737348
 20
41996.52421417003
 10
80742.35207737348
 20
41978.27421417003
  0
LINE
  5
75
330
6E
100
AcDbEntity
  8
0
 62
85
100
AcDbLine
 10
80742.35207737348
 20
41978.27421417003
 30
0.0
 11
80737.8520773735
 21
41978.27421417003
 31
0.0
  0
LINE
  5
76
330
6E
100
AcDbEntity
  8
0
 62
85
100
AcDbLine
 10
80742.35207737348
 20
41969.77421417003
 30
0.0
 11
80737.8520773735
 21
41969.77421417003
 31
0.0
  0
INSERT
  5
77
330
6E
100
AcDbEntity
  8
0
 62
85
100
AcDbBlockReference
  2
A$C3D6C2CD6
 10
80724.35205890024
 20
41969.77421609058
 30
0.0
  0
LWPOLYLINE
  5
79
330
6E
100
AcDbEntity
  8
0
 62
85
100
AcDbPolyline
 90
6
 70
0
 10
80633.35207737354
 20
41969.77421417003
 10
80633.35207737354
 20
41951.52421417003
 10
80637.8520773735
 20
41951.52421417003
 10
80637.8520773735
 20
41996.52421417003
 10
80633.35207737354
 20
41996.52421417003
 10
80633.35207737354
 20
41978.27421417003
  0
LINE
  5
7A
330
6E
100
AcDbEntity
  8
0
 62
85
100
AcDbLine
 10
80633.35207737354
 20
41978.27421417003
 30
0.0
 11
80637.8520773735
 21
41978.27421417003
 31
0.0
  0
LINE
  5
7B
330
6E
100
AcDbEntity
  8
0
 62
85
100
AcDbLine
 10
80633.35207737354
 20
41969.77421417003
 30
0.0
 11
80637.8520773735
 21
41969.77421417003
 31
0.0
  0
INSERT
  5
7C
330
6E
100
AcDbEntity
  8
0
 62
85
100
AcDbBlockReference
  2
A$C3D6C2CD6
 10
80651.35209584679
 20
41969.77421609058
 30
0.0
 41
-1.0
  0
ENDBLK
  5
70
330
6E
100
AcDbEntity
  8
0
100
AcDbBlockEnd
  0
BLOCK
  5
7F
330
7E
100
AcDbEntity
  8
0
100
AcDbBlockBegin
  2
CML500A-1
 70
0
 10
0.0
 20
0.0
 30
0.0
  3
CML500A-1
  1

  0
CIRCLE
  5
81
330
7E
100
AcDbEntity
  8
0
 62
85
100
AcDbCircle
 10
53.25
 20
68.0
 30
0.0
 40
30.0
  0
CIRCLE
  5
82
330
7E
100
AcDbEntity
  8
0
 62
85
100
AcDbCircle
 10
53.25
 20
68.0
 30
0.0
 40
52.0
  0
LWPOLYLINE
  5
83
330
7E
100
AcDbEntity
  8
0
 62
85
100
AcDbPolyline
 90
4
 70
0
 10
81.5
 20
2.0
 10
106.5
 20
2.0
 10
106.5
 20
0.0
 10
80.56751761049964
 20
0.0
  0
LWPOLYLINE
  5
84
330
7E
100
AcDbEntity
  8
0
 62
85
100
AcDbPolyline
 90
4
 70
0
 10
25.93248238948581
 20
0.0
 10
0.0
 20
0.0
 10
0.0
 20
2.0
 10
24.99999999998545
 20
2.0
  0
LINE
  5
85
330
7E
100
AcDbEntity
  8
0
 62
85
100
AcDbLine
 10
36.75
 20
16.0
 30
0.0
 11
69.75
 21
16.0
 31
0.0
  0
LINE
  5
86
330
7E
100
AcDbEntity
  8
0
 62
85
100
AcDbLine
 10
68.81751761051417
 20
14.0
 30
0.0
 11
37.68248238947126
 21
14.0
 31
0.0
  0
HATCH
  5
87
330
7E
100
AcDbEntity
  8
0
 62
85
100
AcDbHatch
 10
0.0
 20
0.0
 30
0.0
210
0.0
220
0.0
230
1.0
  2
ANSI31
 70
0
 71
0
 91
1
 92
7
 72
0
 73
1
 93
4
 10
88.49999999999999
 20
2.0
 10
88.49999999999999
 20
0.0
 10
106.5
 20
0.0
 10
106.5
 20
2.0
 97
0
 75
0
 76
1
 52
0.0
 41
0.5
 77
0
 78
1
 53
45.0
 43
-80583.36639786483
 44
-41784.72830941116
 45
-1.122532015133643
 46
1.122532015133643
 79
0
 47
0.0891282895374719
 98
1
 10
98.72618819029594
 20
1.475025129468121
  0
LWPOLYLINE
  5
88
330
7E
100
AcDbEntity
  8
0
 62
85
100
AcDbPolyline
 90
4
 70
1
 10
88.49999999999999
 20
2.0
 10
106.5
 20
2.0
 10
106.5
 20
0.0
 10
88.49999999999999
 20
0.0
  0
HATCH
  5
89
330
7E
100
AcDbEntity
  8
0
 62
85
100
AcDbHatch
 10
0.0
 20
0.0
 30
0.0
210
0.0
220
0.0
230
1.0
  2
ANSI31
 70
0
 71
0
 91
1
 92
7
 72
0
 73
1
 93
4
 10
0.0
 20
2.0
 10
0.0
 20
0.0
 10
18.0
 20
0.0
 10
18.0
 20
2.0
 97
0
 75
0
 76
1
 52
0.0
 41
0.5
 77
0
 78
1
 53
135.0
 43
80689.86639786475
 44
-41784.72830941116
 45
1.122532015133643
 46
1.122532015133643
 79
0
 47
0.0891282895374719
 98
1
 10
7.773811809704056
 20
1.475025129468121
  0
LWPOLYLINE
  5
8A
330
7E
100
AcDbEntity
  8
0
 62
85
100
AcDbPolyline
 90
4
 70
1
 10
18.0
 20
2.0
 10
0.0
 20
2.0
 10
0.0
 20
0.0
 10
18.0
 20
0.0
  0
LINE
  5
8B
330
7E
100
AcDbEntity
  8
0
 62
85
100
AcDbLine
 10
81.5
 20
2.0
 30
0.0
 11
69.75
 21
16.0
 31
0.0
  0
LINE
  5
8C
330
7E
100
AcDbEntity
  8
0
 62
85
100
AcDbLine
 10
80.56751761049964
 20
0.0
 30
0.0
 11
68.81751761051417
 21
14.0
 31
0.0
  0
LINE
  5
8D
330
7E
100
AcDbEntity
  8
0
 62
85
100
AcDbLine
 10
24.99999999998545
 20
2.0
 30
0.0
 11
36.74999999998546
 21
16.0
 31
0.0
  0
LINE
  5
8E
330
7E
100
AcDbEntity
  8
0
 62
85
100
AcDbLine
 10
25.93248238948581
 20
0.0
 30
0.0
 11
37.68248238947126
 21
14.0
 31
0.0
  0
MTEXT
  5
8F
330
7E
100
AcDbEntity
  8
0
 62
85
100
AcDbMText
 10
53.25
 20
29.29424751830083
 30
0.0
 40
5.0
 41
0.0
 46
0.0
 71
5
 72
5
  1
{\fArial|b0|i0|c0|p34;CML 500/5A}
  0
ENDBLK
  5
80
330
7E
100
AcDbEntity
  8
0
100
AcDbBlockEnd
  0
BLOCK
  5
91
330
90
100
AcDbEntity
  8
0
100
AcDbBlockBegin
  2
CML500A-2
 70
0
 10
0.0
 20
0.0
 30
0.0
  3
CML500A-2
  1

  0
LWPOLYLINE
  5
93
330
90
100
AcDbEntity
  8
0
 62
85
100
AcDbPolyline
 90
4
 70
1
 10
-5.5
 20
120.0
 10
50.5
 20
120.0
 10
50.5
 20
16.0
 10
-5.5
 20
16.0
  0
LWPOLYLINE
  5
94
330
90
100
AcDbEntity
  8
0
 62
85
100
AcDbPolyline
 90
4
 70
1
 10
0.0
 20
2.0
 10
45.0
 20
2.0
 10
45.0
 20
0.0
 10
0.0
 20
0.0
  0
LWPOLYLINE
  5
95
330
90
100
AcDbEntity
  8
0
 62
85
100
AcDbPolyline
 90
4
 70
1
 10
0.0
 20
16.0
 10
45.0
 20
16.0
 10
45.0
 20
2.0
 10
0.0
 20
2.0
  0
LINE
  5
96
330
90
100
AcDbEntity
  8
0
 62
85
100
AcDbLine
 10
26.5
 20
2.0
 30
0.0
 11
26.5
 21
0.0
 31
0.0
  0
LINE
  5
97
330
90
100
AcDbEntity
  8
0
 62
85
100
AcDbLine
 10
18.5
 20
2.0
 30
0.0
 11
18.5
 21
0.0
 31
0.0
  0
LINE
  5
98
330
90
100
AcDbEntity
  8
0
  6
ASVLTYPE
 62
85
 48
10.0
100
AcDbLine
 10
-5.5
 20
98.0
 30
0.0
 11
50.5
 21
98.0
 31
0.0
  0
LINE
  5
99
330
90
100
AcDbEntity
  8
0
  6
ASVLTYPE
 62
85
 48
10.0
100
AcDbLine
 10
-5.5
 20
38.0
 30
0.0
 11
50.5
 21
38.0
 31
0.0
  0
ENDBLK
  5
92
330
90
100
AcDbEntity
  8
0
100
AcDbBlockEnd
  0
BLOCK
  5
9B
330
9A
100
AcDbEntity
  8
0
100
AcDbBlockBegin
  2
CML500A-3
 70
0
 10
0.0
 20
0.0
 30
0.0
  3
CML500A-3
  1

  0
LWPOLYLINE
  5
9D
330
9A
100
AcDbEntity
  8
0
 62
85
100
AcDbPolyline
 90
4
 70
1
 10
0.0
 20
0.0
 10
0.0
 20
56.0
 10
104.0
 20
56.0
 10
104.0
 20
0.0
  0
LINE
  5
9E
330
9A
100
AcDbEntity
  8
0
  6
ASVLTYPE
 62
85
 48
10.0
100
AcDbLine
 10
22.0
 20
0.0
 30
0.0
 11
22.0
 21
56.0
 31
0.0
  0
LINE
  5
9F
330
9A
100
AcDbEntity
  8
0
  6
ASVLTYPE
 62
85
 48
10.0
100
AcDbLine
 10
82.0
 20
0.0
 30
0.0
 11
82.0
 21
56.0
 31
0.0
  0
LWPOLYLINE
  5
A0
330
9A
100
AcDbEntity
  8
0
 62
85
100
AcDbPolyline
 90
6
 70
0
 10
105.25
 20
23.74599999999919
 10
105.25
 20
5.5
 10
104.0
 20
5.5
 10
104.0
 20
50.5
 10
105.25
 20
50.5
 10
105.25
 20
32.25
  0
LINE
  5
A1
330
9A
100
AcDbEntity
  8
0
 62
85
100
AcDbLine
 10
105.25
 20
32.25
 30
0.0
 11
104.0
 21
32.25
 31
0.0
  0
LINE
  5
A2
330
9A
100
AcDbEntity
  8
0
 62
85
100
AcDbLine
 10
105.25
 20
23.74599999999919
 30
0.0
 11
104.0
 21
23.74599999999919
 31
0.0
  0
INSERT
  5
A3
330
9A
100
AcDbEntity
  8
0
 62
85
100
AcDbBlockReference
  2
A$C3D6C2CD6
 10
87.2499815267365
 20
23.75000192053994
 30
0.0
  0
LWPOLYLINE
  5
A5
330
9A
100
AcDbEntity
  8
0
 62
85
100
AcDbPolyline
 90
6
 70
0
 10
-1.249999999985447
 20
23.74599999999919
 10
-1.249999999985447
 20
5.5
 10
1.45519e-11
 20
5.5
 10
1.45519e-11
 20
50.5
 10
-1.249999999985447
 20
50.5
 10
-1.249999999985447
 20
32.25
  0
LINE
  5
A6
330
9A
100
AcDbEntity
  8
0
 62
85
100
AcDbLine
 10
-1.249999999985447
 20
32.25
 30
0.0
 11
1.45519e-11
 21
32.25
 31
0.0
  0
LINE
  5
A7
330
9A
100
AcDbEntity
  8
0
 62
85
100
AcDbLine
 10
-1.249999999985447
 20
23.74599999999919
 30
0.0
 11
1.45519e-11
 21
23.74599999999919
 31
0.0
  0
INSERT
  5
A8
330
9A
100
AcDbEntity
  8
0
 62
85
100
AcDbBlockReference
  2
A$C3D6C2CD6
 10
16.75001847327803
 20
23.75000192053994
 30
0.0
 41
-1.0
  0
ENDBLK
  5
9C
330
9A
100
AcDbEntity
  8
0
100
AcDbBlockEnd
  0
BLOCK
  5
AB
330
AA
100
AcDbEntity
  8
0
100
AcDbBlockBegin
  2
CML800A-1
 70
0
 10
0.0
 20
0.0
 30
0.0
  3
CML800A-1
  1

  0
LWPOLYLINE
  5
AD
330
AA
100
AcDbEntity
  8
0
 62
85
100
AcDbPolyline
 90
4
 70
0
 10
83.0
 20
2.0
 10
108.0
 20
2.0
 10
108.0
 20
0.0
 10
82.06751761049964
 20
0.0
  0
LWPOLYLINE
  5
AE
330
AA
100
AcDbEntity
  8
0
 62
85
100
AcDbPolyline
 90
4
 70
0
 10
25.93248238948581
 20
0.0
 10
0.0
 20
0.0
 10
0.0
 20
2.0
 10
24.99999999998545
 20
2.0
  0
LINE
  5
AF
330
AA
100
AcDbEntity
  8
0
 62
85
100
AcDbLine
 10
37.5
 20
16.0
 30
0.0
 11
70.5
 21
16.0
 31
0.0
  0
LINE
  5
B0
330
AA
100
AcDbEntity
  8
0
 62
85
100
AcDbLine
 10
69.56751761051417
 20
14.0
 30
0.0
 11
38.43248238947126
 21
14.0
 31
0.0
  0
HATCH
  5
B1
330
AA
100
AcDbEntity
  8
0
 62
85
100
AcDbHatch
 10
0.0
 20
0.0
 30
0.0
210
0.0
220
0.0
230
1.0
  2
ANSI31
 70
0
 71
0
 91
1
 92
7
 72
0
 73
1
 93
4
 10
90.0
 20
2.0
 10
90.0
 20
0.0
 10
108.0
 20
0.0
 10
108.0
 20
2.0
 97
0
 75
0
 76
1
 52
0.0
 41
0.5
 77
0
 78
1
 53
45.0
 43
-80581.8663978648
 44
-41784.72830941116
 45
-1.122532015133643
 46
1.122532015133643
 79
0
 47
0.0891282895374719
 98
1
 10
100.2261881902959
 20
1.475025129468121
  0
LWPOLYLINE
  5
B2
330
AA
100
AcDbEntity
  8
0
 62
85
100
AcDbPolyline
 90
4
 70
1
 10
90.0
 20
2.0
 10
108.0
 20
2.0
 10
108.0
 20
0.0
 10
90.0
 20
0.0
  0
HATCH
  5
B3
330
AA
100
AcDbEntity
  8
0
 62
85
100
AcDbHatch
 10
0.0
 20
0.0
 30
0.0
210
0.0
220
0.0
230
1.0
  2
ANSI31
 70
0
 71
0
 91
1
 92
7
 72
0
 73
1
 93
4
 10
0.0
 20
2.0
 10
0.0
 20
0.0
 10
18.0
 20
0.0
 10
18.0
 20
2.0
 97
0
 75
0
 76
1
 52
0.0
 41
0.5
 77
0
 78
1
 53
135.0
 43
80689.86639786475
 44
-41784.72830941116
 45
1.122532015133643
 46
1.122532015133643
 79
0
 47
0.0891282895374719
 98
1
 10
7.773811809704056
 20
1.475025129468121
  0
LWPOLYLINE
  5
B4
330
AA
100
AcDbEntity
  8
0
 62
85
100
AcDbPolyline
 90
4
 70
1
 10
18.0
 20
2.0
 10
0.0
 20
2.0
 10
0.0
 20
0.0
 10
18.0
 20
0.0
  0
LINE
  5
B5
330
AA
100
AcDbEntity
  8
0
 62
85
100
AcDbLine
 10
83.0
 20
2.0
 30
0.0
 11
70.5
 21
16.0
 31
0.0
  0
LINE
  5
B6
330
AA
100
AcDbEntity
  8
0
 62
85
100
AcDbLine
 10
82.06751761049964
 20
0.0
 30
0.0
 11
69.56751761051417
 21
14.0
 31
0.0
  0
LINE
  5
B7
330
AA
100
AcDbEntity
  8
0
 62
85
100
AcDbLine
 10
24.99999999998545
 20
2.0
 30
0.0
 11
37.49999999998546
 21
16.0
 31
0.0
  0
LINE
  5
B8
330
AA
100
AcDbEntity
  8
0
 62
85
100
AcDbLine
 10
25.93248238948581
 20
0.0
 30
0.0
 11
38.43248238947126
 21
14.0
 31
0.0
  0
MTEXT
  5
B9
330
AA
100
AcDbEntity
  8
0
 62
85
100
AcDbMText
 10
54.0
 20
29.78596196911531
 30
0.0
 40
5.0
 41
0.0
 46
0.0
 71
5
 72
5
  1
{\fArial|b0|i0|c0|p34;CML 800/5A}
  0
CIRCLE
  5
BA
330
AA
100
AcDbEntity
  8
0
 62
85
100
AcDbCircle
 10
54.0
 20
83.0
 30
0.0
 40
45.49999999999999
  0
CIRCLE
  5
BB
330
AA
100
AcDbEntity
  8
0
 62
85
100
AcDbCircle
 10
54.0
 20
83.0
 30
0.0
 40
67.0
  0
ENDBLK
  5
AC
330
AA
100
AcDbEntity
  8
0
100
AcDbBlockEnd
  0
BLOCK
  5
BD
330
BC
100
AcDbEntity
  8
0
100
AcDbBlockBegin
  2
CML800A-2
 70
0
 10
0.0
 20
0.0
 30
0.0
  3
CML800A-2
  1

  0
LWPOLYLINE
  5
BF
330
BC
100
AcDbEntity
  8
0
 62
85
100
AcDbPolyline
 90
4
 70
1
 10
-2.0
 20
150.0
 10
40.0
 20
150.0
 10
40.0
 20
16.0
 10
-2.0
 20
16.0
  0
LINE
  5
C0
330
BC
100
AcDbEntity
  8
0
  6
ASVLTYPE
 62
85
 48
10.0
100
AcDbLine
 10
-2.0
 20
37.5
 30
0.0
 11
40.0
 21
37.5
 31
0.0
  0
LINE
  5
C1
330
BC
100
AcDbEntity
  8
0
  6
ASVLTYPE
 62
85
 48
10.0
100
AcDbLine
 10
-2.0
 20
128.5
 30
0.0
 11
40.0
 21
128.5
 31
0.0
  0
LWPOLYLINE
  5
C2
330
BC
100
AcDbEntity
  8
0
 62
85
100
AcDbPolyline
 90
4
 70
1
 10
0.0
 20
16.0
 10
38.0
 20
16.0
 10
38.0
 20
0.0
 10
0.0
 20
0.0
  0
LINE
  5
C3
330
BC
100
AcDbEntity
  8
0
 62
85
100
AcDbLine
 10
0.0
 20
2.0
 30
0.0
 11
38.0
 21
2.0
 31
0.0
  0
LINE
  5
C4
330
BC
100
AcDbEntity
  8
0
 62
85
100
AcDbLine
 10
23.25
 20
2.0
 30
0.0
 11
23.25
 21
0.0
 31
0.0
  0
LINE
  5
C5
330
BC
100
AcDbEntity
  8
0
 62
85
100
AcDbLine
 10
14.75
 20
2.0
 30
0.0
 11
14.75
 21
0.0
 31
0.0
  0
ENDBLK
  5
BE
330
BC
100
AcDbEntity
  8
0
100
AcDbBlockEnd
  0
BLOCK
  5
C7
330
C6
100
AcDbEntity
  8
0
100
AcDbBlockBegin
  2
CML800A-3
 70
0
 10
0.0
 20
0.0
 30
0.0
  3
CML800A-3
  1

  0
LWPOLYLINE
  5
C9
330
C6
100
AcDbEntity
  8
0
 62
85
100
AcDbPolyline
 90
4
 70
1
 10
0.0
 20
0.0
 10
0.0
 20
42.0
 10
134.0
 20
42.0
 10
134.0
 20
0.0
  0
LINE
  5
CA
330
C6
100
AcDbEntity
  8
0
  6
ASVLTYPE
 62
85
 48
10.0
100
AcDbLine
 10
112.5
 20
0.0
 30
0.0
 11
112.5
 21
42.0
 31
0.0
  0
LINE
  5
CB
330
C6
100
AcDbEntity
  8
0
  6
ASVLTYPE
 62
85
 48
10.0
100
AcDbLine
 10
21.5
 20
0.0
 30
0.0
 11
21.5
 21
42.0
 31
0.0
  0
INSERT
  5
CC
330
C6
100
AcDbEntity
  8
0
 62
85
100
AcDbBlockReference
  2
A$C3D6C2CD6
 10
102.9999815267365
 20
16.75000192053994
 30
0.0
  0
INSERT
  5
CE
330
C6
100
AcDbEntity
  8
0
 62
85
100
AcDbBlockReference
  2
A$C3D6C2CD6
 10
31.00001847324893
 20
16.75000192053994
 30
0.0
 41
-1.0
  0
ENDBLK
  5
C8
330
C6
100
AcDbEntity
  8
0
100
AcDbBlockEnd
  0
BLOCK
  5
D1
330
D0
100
AcDbEntity
  8
0
100
AcDbBlockBegin
  2
CML3200A-1
 70
0
 10
0.0
 20
0.0
 30
0.0
  3
CML3200A-1
  1

  0
CIRCLE
  5
D3
330
D0
100
AcDbEntity
  8
0
 62
85
100
AcDbCircle
 10
54.0
 20
96.0
 30
0.0
 40
55.0
  0
CIRCLE
  5
D4
330
D0
100
AcDbEntity
  8
0
 62
85
100
AcDbCircle
 10
54.0
 20
96.0
 30
0.0
 40
80.0
  0
LWPOLYLINE
  5
D5
330
D0
100
AcDbEntity
  8
0
 62
85
100
AcDbPolyline
 90
4
 70
0
 10
83.0
 20
2.0
 10
108.0
 20
2.0
 10
108.0
 20
0.0
 10
82.06751761049964
 20
0.0
  0
LWPOLYLINE
  5
D6
330
D0
100
AcDbEntity
  8
0
 62
85
100
AcDbPolyline
 90
4
 70
0
 10
25.93248238948581
 20
0.0
 10
0.0
 20
0.0
 10
0.0
 20
2.0
 10
24.99999999998545
 20
2.0
  0
LINE
  5
D7
330
D0
100
AcDbEntity
  8
0
 62
85
100
AcDbLine
 10
37.5
 20
16.0
 30
0.0
 11
70.5
 21
16.0
 31
0.0
  0
LINE
  5
D8
330
D0
100
AcDbEntity
  8
0
 62
85
100
AcDbLine
 10
69.56751761051417
 20
14.0
 30
0.0
 11
38.43248238947126
 21
14.0
 31
0.0
  0
HATCH
  5
D9
330
D0
100
AcDbEntity
  8
0
 62
85
100
AcDbHatch
 10
0.0
 20
0.0
 30
0.0
210
0.0
220
0.0
230
1.0
  2
ANSI31
 70
0
 71
0
 91
1
 92
7
 72
0
 73
1
 93
4
 10
90.0
 20
2.0
 10
90.0
 20
0.0
 10
108.0
 20
0.0
 10
108.0
 20
2.0
 97
0
 75
0
 76
1
 52
0.0
 41
0.5
 77
0
 78
1
 53
45.0
 43
-80581.8663978648
 44
-41784.72830941116
 45
-1.122532015133643
 46
1.122532015133643
 79
0
 47
0.0891282895374719
 98
1
 10
100.2261881902959
 20
1.475025129468121
  0
LWPOLYLINE
  5
DA
330
D0
100
AcDbEntity
  8
0
 62
85
100
AcDbPolyline
 90
4
 70
1
 10
90.0
 20
2.0
 10
108.0
 20
2.0
 10
108.0
 20
0.0
 10
90.0
 20
0.0
  0
HATCH
  5
DB
330
D0
100
AcDbEntity
  8
0
 62
85
100
AcDbHatch
 10
0.0
 20
0.0
 30
0.0
210
0.0
220
0.0
230
1.0
  2
ANSI31
 70
0
 71
0
 91
1
 92
7
 72
0
 73
1
 93
4
 10
0.0
 20
2.0
 10
0.0
 20
0.0
 10
18.0
 20
0.0
 10
18.0
 20
2.0
 97
0
 75
0
 76
1
 52
0.0
 41
0.5
 77
0
 78
1
 53
135.0
 43
80689.86639786475
 44
-41784.72830941116
 45
1.122532015133643
 46
1.122532015133643
 79
0
 47
0.0891282895374719
 98
1
 10
7.773811809704056
 20
1.475025129468121
  0
LWPOLYLINE
  5
DC
330
D0
100
AcDbEntity
  8
0
 62
85
100
AcDbPolyline
 90
4
 70
1
 10
18.0
 20
2.0
 10
0.0
 20
2.0
 10
0.0
 20
0.0
 10
18.0
 20
0.0
  0
LINE
  5
DD
330
D0
100
AcDbEntity
  8
0
 62
85
100
AcDbLine
 10
83.0
 20
2.0
 30
0.0
 11
70.5
 21
16.0
 31
0.0
  0
LINE
  5
DE
330
D0
100
AcDbEntity
  8
0
 62
85
100
AcDbLine
 10
82.06751761049964
 20
0.0
 30
0.0
 11
69.56751761051417
 21
14.0
 31
0.0
  0
LINE
  5
DF
330
D0
100
AcDbEntity
  8
0
 62
85
100
AcDbLine
 10
24.99999999998545
 20
2.0
 30
0.0
 11
37.49999999998546
 21
16.0
 31
0.0
  0
LINE
  5
E0
330
D0
100
AcDbEntity
  8
0
 62
85
100
AcDbLine
 10
25.93248238948581
 20
0.0
 30
0.0
 11
38.43248238947126
 21
14.0
 31
0.0
  0
MTEXT
  5
E1
330
D0
100
AcDbEntity
  8
0
 62
85
100
AcDbMText
 10
54.0
 20
30.01124621567579
 30
0.0
 40
5.0
 41
0.0
 46
0.0
 71
5
 72
5
  1
{\fArial|b0|i0|c0|p34;CML 3200/5A}
  0
ENDBLK
  5
D2
330
D0
100
AcDbEntity
  8
0
100
AcDbBlockEnd
  0
BLOCK
  5
E3
330
E2
100
AcDbEntity
  8
0
100
AcDbBlockBegin
  2
CML3200A-2
 70
0
 10
0.0
 20
0.0
 30
0.0
  3
CML3200A-2
  1

  0
LWPOLYLINE
  5
E5
330
E2
100
AcDbEntity
  8
0
 62
85
100
AcDbPolyline
 90
4
 70
1
 10
-2.0
 20
176.0
 10
40.0
 20
176.0
 10
40.0
 20
16.0
 10
-2.0
 20
16.0
  0
LINE
  5
E6
330
E2
100
AcDbEntity
  8
0
  6
ASVLTYPE
 62
85
 48
10.0
100
AcDbLine
 10
-2.0
 20
41.0
 30
0.0
 11
40.0
 21
41.0
 31
0.0
  0
LINE
  5
E7
330
E2
100
AcDbEntity
  8
0
  6
ASVLTYPE
 62
85
 48
10.0
100
AcDbLine
 10
-2.0
 20
151.0
 30
0.0
 11
40.0
 21
151.0
 31
0.0
  0
LWPOLYLINE
  5
E8
330
E2
100
AcDbEntity
  8
0
 62
85
100
AcDbPolyline
 90
4
 70
1
 10
0.0
 20
16.0
 10
38.0
 20
16.0
 10
38.0
 20
0.0
 10
0.0
 20
0.0
  0
LINE
  5
E9
330
E2
100
AcDbEntity
  8
0
 62
85
100
AcDbLine
 10
0.0
 20
2.0
 30
0.0
 11
38.0
 21
2.0
 31
0.0
  0
LINE
  5
EA
330
E2
100
AcDbEntity
  8
0
 62
85
100
AcDbLine
 10
23.0
 20
2.0
 30
0.0
 11
23.0
 21
0.0
 31
0.0
  0
LINE
  5
EB
330
E2
100
AcDbEntity
  8
0
 62
85
100
AcDbLine
 10
15.0
 20
2.0
 30
0.0
 11
15.0
 21
0.0
 31
0.0
  0
ENDBLK
  5
E4
330
E2
100
AcDbEntity
  8
0
100
AcDbBlockEnd
  0
BLOCK
  5
ED
330
EC
100
AcDbEntity
  8
0
100
AcDbBlockBegin
  2
CML3200A-3
 70
0
 10
0.0
 20
0.0
 30
0.0
  3
CML3200A-3
  1

  0
LWPOLYLINE
  5
EF
330
EC
100
AcDbEntity
  8
0
 62
85
100
AcDbPolyline
 90
4
 70
1
 10
0.0
 20
0.0
 10
0.0
 20
42.0
 10
160.0
 20
42.0
 10
160.0
 20
0.0
  0
LINE
  5
F0
330
EC
100
AcDbEntity
  8
0
  6
ASVLTYPE
 62
85
 48
10.0
100
AcDbLine
 10
135.0
 20
0.0
 30
0.0
 11
135.0
 21
42.0
 31
0.0
  0
LINE
  5
F1
330
EC
100
AcDbEntity
  8
0
  6
ASVLTYPE
 62
85
 48
10.0
100
AcDbLine
 10
25.0
 20
0.0
 30
0.0
 11
25.0
 21
42.0
 31
0.0
  0
INSERT
  5
F2
330
EC
100
AcDbEntity
  8
0
 62
85
100
AcDbBlockReference
  2
A$C3D6C2CD6
 10
115.9999815267365
 20
16.75000192054722
 30
0.0
  0
INSERT
  5
F4
330
EC
100
AcDbEntity
  8
0
 62
85
100
AcDbBlockReference
  2
A$C3D6C2CD6
 10
44.00001847327803
 20
16.75000192054722
 30
0.0
 41
-1.0
  0
ENDBLK
  5
EE
330
EC
100
AcDbEntity
  8
0
100
AcDbBlockEnd
  0
BLOCK
  5
F7
330
F6
100
AcDbEntity
  8
0
100
AcDbBlockBegin
  2
CML250A-1
 70
0
 10
0.0
 20
0.0
 30
0.0
  3
CML250A-1
  1

  0
LWPOLYLINE
  5
F9
330
F6
100
AcDbEntity
  8
0
 62
85
100
AcDbPolyline
 90
4
 70
0
 10
77.0
 20
2.0
 10
95.0
 20
2.0
 10
95.0
 20
0.0
 10
76.06751761049962
 20
0.0
  0
LWPOLYLINE
  5
FA
330
F6
100
AcDbEntity
  8
0
 62
85
100
AcDbPolyline
 90
4
 70
0
 10
18.93248238950036
 20
0.0
 10
0.0
 20
0.0
 10
0.0
 20
2.0
 10
18.0
 20
2.0
  0
LINE
  5
FB
330
F6
100
AcDbEntity
  8
0
 62
85
100
AcDbLine
 10
26.56751761052874
 20
14.0
 30
0.0
 11
68.43248238948581
 21
14.0
 31
0.0
  0
LINE
  5
FC
330
F6
100
AcDbEntity
  8
0
 62
85
100
AcDbLine
 10
67.5
 20
12.0
 30
0.0
 11
27.5
 21
12.0
 31
0.0
  0
HATCH
  5
FD
330
F6
100
AcDbEntity
  8
0
 62
85
100
AcDbHatch
 10
0.0
 20
0.0
 30
0.0
210
0.0
220
0.0
230
1.0
  2
ANSI31
 70
0
 71
0
 91
1
 92
7
 72
0
 73
1
 93
4
 10
82.0
 20
2.0
 10
82.0
 20
0.0
 10
95.0
 20
0.0
 10
95.0
 20
2.0
 97
1
330
BDE
 75
0
 76
1
 52
0.0
 41
0.5
 77
0
 78
1
 53
45.0
 43
-80594.86639786477
 44
-41784.72830941116
 45
-1.122532015133643
 46
1.122532015133643
 79
0
 47
0.0891282895374719
 98
1
 10
87.22618819029594
 20
1.475025129468121
  0
LWPOLYLINE
  5
FE
330
F6
100
AcDbEntity
  8
0
 62
85
100
AcDbPolyline
 90
4
 70
1
 10
82.0
 20
2.0
 10
95.0
 20
2.0
 10
95.0
 20
0.0
 10
82.0
 20
0.0
  0
LWPOLYLINE
  5
FF
330
F6
100
AcDbEntity
  8
0
 62
85
100
AcDbPolyline
 90
4
 70
1
 10
12.99999999998545
 20
2.0
 10
0.0
 20
2.0
 10
0.0
 20
0.0
 10
12.99999999998545
 20
0.0
  0
LINE
  5
100
330
F6
100
AcDbEntity
  8
0
 62
85
100
AcDbLine
 10
77.0
 20
2.0
 30
0.0
 11
68.43248238948581
 21
14.0
 31
0.0
  0
LINE
  5
101
330
F6
100
AcDbEntity
  8
0
 62
85
100
AcDbLine
 10
76.06751761049962
 20
0.0
 30
0.0
 11
67.5
 21
12.0
 31
0.0
  0
LINE
  5
102
330
F6
100
AcDbEntity
  8
0
 62
85
100
AcDbLine
 10
18.0
 20
2.0
 30
0.0
 11
26.56751761051419
 21
14.0
 31
0.0
  0
LINE
  5
103
330
F6
100
AcDbEntity
  8
0
 62
85
100
AcDbLine
 10
18.93248238950036
 20
0.0
 30
0.0
 11
27.5
 21
12.0
 31
0.0
  0
MTEXT
  5
104
330
F6
100
AcDbEntity
  8
0
 62
85
100
AcDbMText
 10
47.5
 20
28.14111573810078
 30
0.0
 40
5.0
 41
0.0
 46
0.0
 71
5
 72
5
  1
{\fArial|b0|i0|c0|p34;CML 250/5A}
  0
CIRCLE
  5
105
330
F6
100
AcDbEntity
  8
0
 62
85
100
AcDbCircle
 10
47.5
 20
54.0
 30
0.0
 40
17.5
  0
CIRCLE
  5
106
330
F6
100
AcDbEntity
  8
0
 62
85
100
AcDbCircle
 10
47.5
 20
54.0
 30
0.0
 40
40.0
  0
HATCH
  5
107
330
F6
100
AcDbEntity
  8
0
 62
85
100
AcDbHatch
 10
0.0
 20
0.0
 30
0.0
210
0.0
220
0.0
230
1.0
  2
ANSI31
 70
0
 71
0
 91
1
 92
7
 72
0
 73
1
 93
4
 10
13.00000000001455
 20
2.0
 10
13.00000000001455
 20
0.0
 10
1.45519e-11
 20
0.0
 10
1.45519e-11
 20
2.0
 97
0
 75
0
 76
1
 52
0.0
 41
0.5
 77
0
 78
1
 53
135.0
 43
80689.86639786484
 44
-41784.72830941116
 45
1.122532015133643
 46
1.122532015133643
 79
0
 47
0.0891282895374719
 98
1
 10
7.773811809718607
 20
1.475025129468121
  0
ENDBLK
  5
F8
330
F6
100
AcDbEntity
  8
0
100
AcDbBlockEnd
  0
BLOCK
  5
109
330
108
100
AcDbEntity
  8
0
100
AcDbBlockBegin
  2
CML250A-2
 70
0
 10
0.0
 20
0.0
 30
0.0
  3
CML250A-2
  1

  0
LWPOLYLINE
  5
10B
330
108
100
AcDbEntity
  8
0
 62
85
100
AcDbPolyline
 90
4
 70
1
 10
-4.0
 20
96.0
 10
49.0
 20
96.0
 10
49.0
 20
16.0
 10
-4.0
 20
16.0
  0
LWPOLYLINE
  5
10C
330
108
100
AcDbEntity
  8
0
 62
85
100
AcDbPolyline
 90
4
 70
1
 10
0.0
 20
2.0
 10
45.0
 20
2.0
 10
45.0
 20
0.0
 10
0.0
 20
0.0
  0
LWPOLYLINE
  5
10D
330
108
100
AcDbEntity
  8
0
 62
85
100
AcDbPolyline
 90
4
 70
1
 10
0.0
 20
16.0
 10
45.0
 20
16.0
 10
45.0
 20
2.0
 10
0.0
 20
2.0
  0
LINE
  5
10E
330
108
100
AcDbEntity
  8
0
 62
85
100
AcDbLine
 10
26.75
 20
2.0
 30
0.0
 11
26.75
 21
0.0
 31
0.0
  0
LINE
  5
10F
330
108
100
AcDbEntity
  8
0
 62
85
100
AcDbLine
 10
18.25
 20
2.0
 30
0.0
 11
18.25
 21
0.0
 31
0.0
  0
LINE
  5
110
330
108
100
AcDbEntity
  8
0
  6
ASVLTYPE
 62
85
 48
10.0
100
AcDbLine
 10
-4.0
 20
73.5
 30
0.0
 11
49.0
 21
73.5
 31
0.0
  0
LINE
  5
111
330
108
100
AcDbEntity
  8
0
  6
ASVLTYPE
 62
85
 48
10.0
100
AcDbLine
 10
-4.0
 20
38.5
 30
0.0
 11
49.0
 21
38.5
 31
0.0
  0
ENDBLK
  5
10A
330
108
100
AcDbEntity
  8
0
100
AcDbBlockEnd
  0
BLOCK
  5
113
330
112
100
AcDbEntity
  8
0
100
AcDbBlockBegin
  2
CML250A-3
 70
0
 10
0.0
 20
0.0
 30
0.0
  3
CML250A-3
  1

  0
LWPOLYLINE
  5
115
330
112
100
AcDbEntity
  8
0
 62
85
100
AcDbPolyline
 90
4
 70
1
 10
0.0
 20
0.0
 10
0.0
 20
53.0
 10
80.0
 20
53.0
 10
80.0
 20
0.0
  0
LINE
  5
116
330
112
100
AcDbEntity
  8
0
  6
ASVLTYPE
 62
85
 48
10.0
100
AcDbLine
 10
22.5
 20
0.0
 30
0.0
 11
22.5
 21
53.0
 31
0.0
  0
LINE
  5
117
330
112
100
AcDbEntity
  8
0
  6
ASVLTYPE
 62
85
 48
10.0
100
AcDbLine
 10
57.5
 20
0.0
 30
0.0
 11
57.5
 21
53.0
 31
0.0
  0
LWPOLYLINE
  5
118
330
112
100
AcDbEntity
  8
0
 62
85
100
AcDbPolyline
 90
6
 70
0
 10
87.5
 20
22.25
 10
87.5
 20
4.0
 10
80.0
 20
4.0
 10
80.0
 20
49.0
 10
87.5
 20
49.0
 10
87.5
 20
30.75
  0
ARC
  5
119
330
112
100
AcDbEntity
  8
0
  6
ASVLTYPE
 62
85
 48
4.0
100
AcDbCircle
 10
78.75
 20
26.49999999999272
 30
0.0
 40
4.25
100
AcDbArc
 50
90.0
 51
270.0
  0
LINE
  5
11A
330
112
100
AcDbEntity
  8
0
  6
ASVLTYPE
 62
85
 48
4.0
100
AcDbLine
 10
78.75
 20
22.24999999999273
 30
0.0
 11
80.0
 21
22.24999999999273
 31
0.0
  0
LINE
  5
11B
330
112
100
AcDbEntity
  8
0
  6
ASVLTYPE
 62
85
 48
4.0
100
AcDbLine
 10
78.75
 20
30.75
 30
0.0
 11
80.0
 21
30.75
 31
0.0
  0
LWPOLYLINE
  5
11C
330
112
100
AcDbEntity
  8
0
 62
85
100
AcDbPolyline
 90
6
 70
0
 10
-7.5
 20
22.25
 10
-7.5
 20
4.0
 10
-1.45519e-11
 20
4.0
 10
-1.45519e-11
 20
49.0
 10
-7.5
 20
49.0
 10
-7.5
 20
30.75
  0
ARC
  5
11D
330
112
100
AcDbEntity
  8
0
  6
ASVLTYPE
 62
85
 48
4.0
100
AcDbCircle
 10
1.249999999985447
 20
26.49999999999272
 30
0.0
 40
4.25
100
AcDbArc
 50
270.0
 51
90.0
  0
LINE
  5
11E
330
112
100
AcDbEntity
  8
0
  6
ASVLTYPE
 62
85
 48
4.0
100
AcDbLine
 10
1.249999999985447
 20
22.24999999999273
 30
0.0
 11
0.0
 21
22.24999999999273
 31
0.0
  0
LINE
  5
11F
330
112
100
AcDbEntity
  8
0
  6
ASVLTYPE
 62
85
 48
4.0
100
AcDbLine
 10
1.249999999985447
 20
30.75
 30
0.0
 11
0.0
 21
30.75
 31
0.0
  0
LINE
  5
120
330
112
100
AcDbEntity
  8
0
 62
85
100
AcDbLine
 10
-7.5
 20
30.75
 30
0.0
 11
0.0
 21
30.75
 31
0.0
  0
LINE
  5
121
330
112
100
AcDbEntity
  8
0
 62
85
100
AcDbLine
 10
-7.5
 20
22.25
 30
0.0
 11
-1.45519e-11
 21
22.25
 31
0.0
  0
LINE
  5
122
330
112
100
AcDbEntity
  8
0
 62
85
100
AcDbLine
 10
87.5
 20
30.75
 30
0.0
 11
80.0
 21
30.75
 31
0.0
  0
LINE
  5
123
330
112
100
AcDbEntity
  8
0
 62
85
100
AcDbLine
 10
87.5
 20
22.25
 30
0.0
 11
80.00000000001454
 21
22.25
 31
0.0
  0
ENDBLK
  5
114
330
112
100
AcDbEntity
  8
0
100
AcDbBlockEnd
  0
BLOCK
  5
125
330
124
100
AcDbEntity
  8
0
100
AcDbBlockBegin
  2
A$C3D6C2CD6
 70
0
 10
0.0
 20
0.0
 30
0.0
  3
A$C3D6C2CD6
  1

  0
ARC
  5
127
330
124
100
AcDbEntity
  8
0
  6
ASVLTYPE
 62
85
 48
4.0
100
AcDbCircle
 10
4.250018473263479
 20
4.24999807945278
 30
0.0
 40
4.25
100
AcDbArc
 50
90.0
 51
270.0
  0
LINE
  5
128
330
124
100
AcDbEntity
  8
0
  6
ASVLTYPE
 62
85
 48
4.0
100
AcDbLine
 10
4.250018473263479
 20
-1.9205472199e-06
 30
0.0
 11
18.00001847326348
 21
-1.9205472199e-06
 31
0.0
  0
LINE
  5
129
330
124
100
AcDbEntity
  8
0
  6
ASVLTYPE
 62
85
 48
4.0
100
AcDbLine
 10
4.250018473263479
 20
8.499998079460058
 30
0.0
 11
18.00001847326348
 21
8.499998079460058
 31
0.0
  0
ENDBLK
  5
126
330
124
100
AcDbEntity
  8
0
100
AcDbBlockEnd
  0
ENDSEC
  0
SECTION
  2
ENTITIES
  0
MTEXT
  5
2F
330
17
100
AcDbEntity
  8
0
 62
7
100
AcDbMText
 10
747.704717930593
 20
442.63713971877223
 30
0.0
 40
20.0
 41
0.0
 46
0.0
 71
5
 72
5
  1
{\fArial|b0|i0|c0|p34;500/5A}
  0
MTEXT
  5
30
330
17
100
AcDbEntity
  8
0
 62
7
100
AcDbMText
 10
1336.288579485056
 20
442.63713971877223
 30
0.0
 40
20.0
 41
0.0
 46
0.0
 71
5
 72
5
  1
{\fArial|b0|i0|c0|p34;3200/5A}
  0
MTEXT
  5
31
330
17
100
AcDbEntity
  8
0
 62
7
100
AcDbMText
 10
490.18836576941
 20
442.63713971877223
 30
0.0
 40
20.0
 41
0.0
 46
0.0
 71
5
 72
5
  1
{\fArial|b0|i0|c0|p34;400/5A\P600/5A}
  0
MTEXT
  5
32
330
17
100
AcDbEntity
  8
0
 62
7
100
AcDbMText
 10
1039.975332591782
 20
442.63713971877223
 30
0.0
 40
20.0
 41
0.0
 46
0.0
 71
5
 72
5
  1
{\fArial|b0|i0|c0|p34;800/5A\P2000/5A}
  0
INSERT
  5
33
330
17
100
AcDbEntity
  8
0
 62
7
100
AcDbBlockReference
  2
CML400A-1
 10
436.6858062119693
 20
153.2111735181952
 30
0.0
  0
INSERT
  5
35
330
17
100
AcDbEntity
  8
0
 62
7
100
AcDbBlockReference
  2
CML400A-2
 10
576.3535917727829
 20
153.2111735181952
 30
0.0
  0
INSERT
  5
37
330
17
100
AcDbEntity
  8
0
 62
7
100
AcDbBlockReference
  2
CML400A-3
 10
-80196.66627116152
 20
-41654.324742974655
 30
0.0
  0
INSERT
  5
39
330
17
100
AcDbEntity
  8
0
 62
7
100
AcDbBlockReference
  2
CML500A-1
 10
694.9339365247113
 20
153.2111735181952
 30
0.0
  0
INSERT
  5
3B
330
17
100
AcDbEntity
  8
0
 62
7
100
AcDbBlockReference
  2
CML500A-2
 10
844.5771909779112
 20
153.2111735181952
 30
0.0
  0
INSERT
  5
3D
330
17
100
AcDbEntity
  8
0
 62
7
100
AcDbBlockReference
  2
CML500A-3
 10
696.1839365247113
 20
296.85892780828544
 30
0.0
  0
INSERT
  5
3F
330
17
100
AcDbEntity
  8
0
 62
7
100
AcDbBlockReference
  2
CML800A-1
 10
988.8792223065223
 20
153.2111735181952
 30
0.0
  0
INSERT
  5
41
330
17
100
AcDbEntity
  8
0
 62
7
100
AcDbBlockReference
  2
CML800A-2
 10
1145.7527042607082
 20
153.2111735181952
 30
0.0
  0
INSERT
  5
43
330
17
100
AcDbEntity
  8
0
 62
7
100
AcDbBlockReference
  2
CML800A-3
 10
975.8792223065082
 20
336.3752079868991
 30
0.0
  0
INSERT
  5
45
330
17
100
AcDbEntity
  8
0
 62
7
100
AcDbBlockReference
  2
CML3200A-1
 10
1285.1924691998113
 20
153.2111735181952
 30
0.0
  0
INSERT
  5
47
330
17
100
AcDbEntity
  8
0
 62
7
100
AcDbBlockReference
  2
CML3200A-2
 10
1459.784172596552
 20
153.2111735181952
 30
0.0
  0
INSERT
  5
49
330
17
100
AcDbEntity
  8
0
 62
7
100
AcDbBlockReference
  2
CML3200A-3
 10
1259.1924691997822
 20
361.75176831008866
 30
0.0
  0
MTEXT
  5
4B
330
17
100
AcDbEntity
  8
0
 62
7
100
AcDbMText
 10
211.6010719409362
 20
442.63713971877223
 30
0.0
 40
20.0
 41
0.0
 46
0.0
 71
5
 72
5
  1
{\fArial|b0|i0|c0|p34;250/5A}
  0
INSERT
  5
4C
330
17
100
AcDbEntity
  8
0
 62
1
100
AcDbBlockReference
  2
CML250A-1
 10
165.09851238349506
 20
165.21117351818793
 30
0.0
  0
INSERT
  5
4E
330
17
100
AcDbEntity
  8
0
 62
1
100
AcDbBlockReference
  2
CML250A-2
 10
297.76629794429505
 20
163.21117351818611
 30
0.0
  0
INSERT
  5
50
330
17
100
AcDbEntity
  8
0
 62
1
100
AcDbBlockReference
  2
CML250A-3
 10
172.59851238349506
 20
293.19947119538665
 30
0.0
  0
ENDSEC
  0
SECTION
  2
OBJECTS
  0
DICTIONARY
  5
A
330
0
100
AcDbDictionary
281
1
  3
ACAD_COLOR
350
B
  3
ACAD_GROUP
350
C
  3
ACAD_LAYOUT
350
D
  3
ACAD_MATERIAL
350
E
  3
ACAD_MLEADERSTYLE
350
F
  3
ACAD_MLINESTYLE
350
10
  3
ACAD_PLOTSETTINGS
350
11
  3
ACAD_PLOTSTYLENAME
350
12
  3
ACAD_SCALELIST
350
14
  3
ACAD_TABLESTYLE
350
15
  3
ACAD_VISUALSTYLE
350
16
  3
EZDXF_META
350
2D
  0
DICTIONARY
  5
B
330
A
100
AcDbDictionary
281
1
  0
DICTIONARY
  5
C
330
A
100
AcDbDictionary
281
1
  0
DICTIONARY
  5
D
330
A
100
AcDbDictionary
281
1
  3
Model
350
1A
  3
Layout1
350
1E
  0
DICTIONARY
  5
E
330
A
100
AcDbDictionary
281
1
  3
ByBlock
350
1F
  3
ByLayer
350
20
  3
Global
350
21
  0
DICTIONARY
  5
F
330
A
100
AcDbDictionary
281
1
  3
Standard
350
2C
  0
DICTIONARY
  5
10
330
A
100
AcDbDictionary
281
1
  3
Standard
350
22
  0
DICTIONARY
  5
11
330
A
100
AcDbDictionary
281
1
  0
ACDBDICTIONARYWDFLT
  5
12
330
A
100
AcDbDictionary
281
1
  3
Normal
350
13
100
AcDbDictionaryWithDefault
340
13
  0
ACDBPLACEHOLDER
  5
13
330
12
  0
DICTIONARY
  5
14
330
A
100
AcDbDictionary
281
1
  0
DICTIONARY
  5
15
330
A
100
AcDbDictionary
281
1
  0
DICTIONARY
  5
16
330
A
100
AcDbDictionary
281
1
  0
LAYOUT
  5
1A
330
D
100
AcDbPlotSettings
  1

  4
A3
  6

 40
7.5
 41
20.0
 42
7.5
 43
20.0
 44
420.0
 45
297.0
 46
0.0
 47
0.0
 48
0.0
 49
0.0
140
0.0
141
0.0
142
1.0
143
1.0
 70
1024
 72
1
 73
0
 74
5
  7

 75
16
 76
0
 77
2
 78
300
147
1.0
148
0.0
149
0.0
100
AcDbLayout
  1
Model
 70
1
 71
0
 10
0.0
 20
0.0
 11
420.0
 21
297.0
 12
0.0
 22
0.0
 32
0.0
 14
1e+20
 24
1e+20
 34
1e+20
 15
-1e+20
 25
-1e+20
 35
-1e+20
146
0.0
 13
0.0
 23
0.0
 33
0.0
 16
1.0
 26
0.0
 36
0.0
 17
0.0
 27
1.0
 37
0.0
 76
1
330
17
  0
LAYOUT
  5
1E
330
D
100
AcDbPlotSettings
  1

  4
A3
  6

 40
7.5
 41
20.0
 42
7.5
 43
20.0
 44
420.0
 45
297.0
 46
0.0
 47
0.0
 48
0.0
 49
0.0
140
0.0
141
0.0
142
1.0
143
1.0
 70
0
 72
1
 73
0
 74
5
  7

 75
16
 76
0
 77
2
 78
300
147
1.0
148
0.0
149
0.0
100
AcDbLayout
  1
Layout1
 70
1
 71
1
 10
0.0
 20
0.0
 11
420.0
 21
297.0
 12
0.0
 22
0.0
 32
0.0
 14
1e+20
 24
1e+20
 34
1e+20
 15
-1e+20
 25
-1e+20
 35
-1e+20
146
0.0
 13
0.0
 23
0.0
 33
0.0
 16
1.0
 26
0.0
 36
0.0
 17
0.0
 27
1.0
 37
0.0
 76
1
330
1B
  0
MATERIAL
  5
1F
102
{ACAD_REACTORS
330
E
102
}
330
E
100
AcDbMaterial
  1
ByBlock
  2

 70
0
 40
1.0
 71
1
 41
1.0
 91
-1023410177
 42
1.0
 72
1
  3

 73
1
 74
1
 75
1
 44
0.5
 73
0
 45
1.0
 46
1.0
 77
1
  4

 78
1
 79
1
170
1
 48
1.0
171
1
  6

172
1
173
1
174
1
140
1.0
141
1.0
175
1
  7

176
1
177
1
178
1
143
1.0
179
1
  8

270
1
271
1
272
1
145
1.0
146
1.0
273
1
  9

274
1
275
1
276
1
 42
1.0
 72
1
  3

 73
1
 74
1
 75
1
 94
63
  0
MATERIAL
  5
20
102
{ACAD_REACTORS
330
E
102
}
330
E
100
AcDbMaterial
  1
ByLayer
  2

 70
0
 40
1.0
 71
1
 41
1.0
 91
-1023410177
 42
1.0
 72
1
  3

 73
1
 74
1
 75
1
 44
0.5
 73
0
 45
1.0
 46
1.0
 77
1
  4

 78
1
 79
1
170
1
 48
1.0
171
1
  6

172
1
173
1
174
1
140
1.0
141
1.0
175
1
  7

176
1
177
1
178
1
143
1.0
179
1
  8

270
1
271
1
272
1
145
1.0
146
1.0
273
1
  9

274
1
275
1
276
1
 42
1.0
 72
1
  3

 73
1
 74
1
 75
1
 94
63
  0
MATERIAL
  5
21
102
{ACAD_REACTORS
330
E
102
}
330
E
100
AcDbMaterial
  1
Global
  2

 70
0
 40
1.0
 71
1
 41
1.0
 91
-1023410177
 42
1.0
 72
1
  3

 73
1
 74
1
 75
1
 44
0.5
 73
0
 45
1.0
 46
1.0
 77
1
  4

 78
1
 79
1
170
1
 48
1.0
171
1
  6

172
1
173
1
174
1
140
1.0
141
1.0
175
1
  7

176
1
177
1
178
1
143
1.0
179
1
  8

270
1
271
1
272
1
145
1.0
146
1.0
273
1
  9

274
1
275
1
276
1
 42
1.0
 72
1
  3

 73
1
 74
1
 75
1
 94
63
  0
MLINESTYLE
  5
22
102
{ACAD_REACTORS
330
10
102
}
330
10
100
AcDbMlineStyle
  2
Standard
 70
0
  3

 62
256
 51
90.0
 52
90.0
 71
2
 49
0.5
 62
256
  6
BYLAYER
 49
-0.5
 62
256
  6
BYLAYER
  0
MLEADERSTYLE
  5
2C
102
{ACAD_REACTORS
330
F
102
}
330
F
100
AcDbMLeaderStyle
179
2
170
2
171
1
172
0
 90
2
 40
0.0
 41
0.0
173
1
 91
-1056964608
 92
-2
290
1
 42
2.0
291
1
 43
8.0
  3
Standard
 44
4.0
300

342
29
174
1
175
1
176
0
178
1
 93
-1056964608
 45
4.0
292
0
297
0
 46
4.0
 94
-1056964608
 47
1.0
 49
1.0
140
1.0
294
1
141
0.0
177
0
142
1.0
295
0
296
0
143
3.75
271
0
272
9
273
9
  0
DICTIONARY
  5
2D
330
A
100
AcDbDictionary
280
1
281
1
  3
CREATED_BY_EZDXF
350
2E
  3
WRITTEN_BY_EZDXF
350
12D
  0
DICTIONARYVAR
  5
2E
330
2D
100
DictionaryVariables
280
0
  1
1.4.4 @ 2026-09-23T14:04:58.643579+00:00
  0
DICTIONARYVAR
  5
12D
330
2D
100
DictionaryVariables
280
0
  1
1.4.4 @ 2026-09-23T14:04:58.813673+00:00
  0
ENDSEC
  0
EOF
