  0
SECTION
  2
HEADER
  9
$ACADVER
  1
AC1032
  9
$ACADMAINTVER
 90
4
  9
$DWGCODEPAGE
  3
ANSI_1252
  9
$LASTSAVEDBY
  1
ezdxf
  9
$REQUIREDVERSIONS
160
0
  9
$INSBASE
 10
0.0
 20
0.0
 30
0.0
  9
$EXTMIN
 10
1e+20
 20
1e+20
 30
1e+20
  9
$EXTMAX
 10
-1e+20
 20
-1e+20
 30
-1e+20
  9
$LIMMIN
 10
0.0
 20
0.0
  9
$LIMMAX
 10
420.0
 20
297.0
  9
$ORTHOMODE
 70
0
  9
$REGENMODE
 70
1
  9
$FILLMODE
 70
1
  9
$QTEXTMODE
 70
0
  9
$MIRRTEXT
 70
1
  9
$LTSCALE
 40
1.0
  9
$ATTMODE
 70
1
  9
$TEXTSIZE
 40
2.5
  9
$TRACEWID
 40
1.0
  9
$TEXTSTYLE
  7
Standard
  9
$CLAYER
  8
0
  9
$CELTYPE
  6
ByLayer
  9
$CECOLOR
 62
256
  9
$CELTSCALE
 40
1.0
  9
$DISPSILH
 70
0
  9
$DIMSCALE
 40
1.0
  9
$DIMASZ
 40
2.5
  9
$DIMEXO
 40
0.625
  9
$DIMDLI
 40
3.75
  9
$DIMRND
 40
0.0
  9
$DIMDLE
 40
0.0
  9
$DIMEXE
 40
1.25
  9
$DIMTP
 40
0.0
  9
$DIMTM
 40
0.0
  9
$DIMTXT
 40
2.5
  9
$DIMCEN
 40
2.5
  9
$DIMTSZ
 40
0.0
  9
$DIMTOL
 70
0
  9
$DIMLIM
 70
0
  9
$DIMTIH
 70
0
  9
$DIMTOH
 70
0
  9
$DIMSE1
 70
0
  9
$DIMSE2
 70
0
  9
$DIMTAD
 70
1
  9
$DIMZIN
 70
8
  9
$DIMBLK
  1

  9
$DIMASO
 70
1
  9
$DIMSHO
 70
1
  9
$DIMPOST
  1

  9
$DIMAPOST
  1

  9
$DIMALT
 70
0
  9
$DIMALTD
 70
3
  9
$DIMALTF
 40
0.03937007874
  9
$DIMLFAC
 40
1.0
  9
$DIMTOFL
 70
1
  9
$DIMTVP
 40
0.0
  9
$DIMTIX
 70
0
  9
$DIMSOXD
 70
0
  9
$DIMSAH
 70
0
  9
$DIMBLK1
  1

  9
$DIMBLK2
  1

  9
$DIMSTYLE
  2
ISO-25
  9
$DIMCLRD
 70
0
  9
$DIMCLRE
 70
0
  9
$DIMCLRT
 70
0
  9
$DIMTFAC
 40
1.0
  9
$DIMGAP
 40
0.625
  9
$DIMJUST
 70
0
  9
$DIMSD1
 70
0
  9
$DIMSD2
 70
0
  9
$DIMTOLJ
 70
0
  9
$DIMTZIN
 70
8
  9
$DIMALTZ
 70
0
  9
$DIMALTTZ
 70
0
  9
$DIMUPT
 70
0
  9
$DIMDEC
 70
2
  9
$DIMTDEC
 70
2
  9
$DIMALTU
 70
2
  9
$DIMALTTD
 70
3
  9
$DIMTXSTY
  7
Standard
  9
$DIMAUNIT
 70
0
  9
$DIMADEC
 70
0
  9
$DIMALTRND
 40
0.0
  9
$DIMAZIN
 70
0
  9
$DIMDSEP
 70
44
  9
$DIMATFIT
 70
3
  9
$DIMFRAC
 70
0
  9
$DIMLDRBLK
  1

  9
$DIMLUNIT
 70
2
  9
$DIMLWD
 70
-2
  9
$DIMLWE
 70
-2
  9
$DIMTMOVE
 70
0
  9
$DIMFXL
 40
1.0
  9
$DIMFXLON
 70
0
  9
$DIMJOGANG
 40
0.785398163397
  9
$DIMTFILL
 70
0
  9
$DIMTFILLCLR
 70
0
  9
$DIMARCSYM
 70
0
  9
$DIMLTYPE
  6

  9
$DIMLTEX1
  6

  9
$DIMLTEX2
  6

  9
$DIMTXTDIRECTION
 70
0
  9
$LUNITS
 70
2
  9
$LUPREC
 70
4
  9
$SKETCHINC
 40
1.0
  9
$FILLETRAD
 40
10.0
  9
$AUNITS
 70
0
  9
$AUPREC
 70
2
  9
$MENU
  1
.
  9
$ELEVATION
 40
0.0
  9
$PELEVATION
 40
0.0
  9
$THICKNESS
 40
0.0
  9
$LIMCHECK
 70
0
  9
$CHAMFERA
 40
0.0
  9
$CHAMFERB
 40
0.0
  9
$CHAMFERC
 40
0.0
  9
$CHAMFERD
 40
0.0
  9
$SKPOLY
 70
0
  9
$TDCREATE
 40
2461307.8771990743
  9
$TDUCREATE
 40
2458532.153996898
  9
$TDUPDATE
 40
2461307.8771990743
  9
$TDUUPDATE
 40
2458532.1544311
  9
$TDINDWG
 40
0.0
  9
$TDUSRTIMER
 40
0.0
  9
$USRTIMER
 70
1
  9
$ANGBASE
 50
0.0
  9
$ANGDIR
 70
0
  9
$PDMODE
 70
0
  9
$PDSIZE
 40
0.0
  9
$PLINEWID
 40
0.0
  9
$SPLFRAME
 70
0
  9
$SPLINETYPE
 70
6
  9
$SPLINESEGS
 70
8
  9
$HANDSEED
  5
8E
  9
$SURFTAB1
 70
6
  9
$SURFTAB2
 70
6
  9
$SURFTYPE
 70
6
  9
$SURFU
 70
6
  9
$SURFV
 70
6
  9
$UCSBASE
  2

  9
$UCSNAME
  2

  9
$UCSORG
 10
0.0
 20
0.0
 30
0.0
  9
$UCSXDIR
 10
1.0
 20
0.0
 30
0.0
  9
$UCSYDIR
 10
0.0
 20
1.0
 30
0.0
  9
$UCSORTHOREF
  2

  9
$UCSORTHOVIEW
 70
0
  9
$UCSORGTOP
 10
0.0
 20
0.0
 30
0.0
  9
$UCSORGBOTTOM
 10
0.0
 20
0.0
 30
0.0
  9
$UCSORGLEFT
 10
0.0
 20
0.0
 30
0.0
  9
$UCSORGRIGHT
 10
0.0
 20
0.0
 30
0.0
  9
$UCSORGFRONT
 10
0.0
 20
0.0
 30
0.0
  9
$UCSORGBACK
 10
0.0
 20
0.0
 30
0.0
  9
$PUCSBASE
  2

  9
$PUCSNAME
  2

  9
$PUCSORG
 10
0.0
 20
0.0
 30
0.0
  9
$PUCSXDIR
 10
1.0
 20
0.0
 30
0.0
  9
$PUCSYDIR
 10
0.0
 20
1.0
 30
0.0
  9
$PUCSORTHOREF
  2

  9
$PUCSORTHOVIEW
 70
0
  9
$PUCSORGTOP
 10
0.0
 20
0.0
 30
0.0
  9
$PUCSORGBOTTOM
 10
0.0
 20
0.0
 30
0.0
  9
$PUCSORGLEFT
 10
0.0
 20
0.0
 30
0.0
  9
$PUCSORGRIGHT
 10
0.0
 20
0.0
 30
0.0
  9
$PUCSORGFRONT
 10
0.0
 20
0.0
 30
0.0
  9
$PUCSORGBACK
 10
0.0
 20
0.0
 30
0.0
  9
$USERI1
 70
0
  9
$USERI2
 70
0
  9
$USERI3
 70
0
  9
$USERI4
 70
0
  9
$USERI5
 70
0
  9
$USERR1
 40
0.0
  9
$USERR2
 40
0.0
  9
$USERR3
 40
0.0
  9
$USERR4
 40
0.0
  9
$USERR5
 40
0.0
  9
$WORLDVIEW
 70
1
  9
$SHADEDGE
 70
3
  9
$SHADEDIF
 70
70
  9
$TILEMODE
 70
1
  9
$MAXACTVP
 70
64
  9
$PINSBASE
 10
0.0
 20
0.0
 30
0.0
  9
$PLIMCHECK
 70
0
  9
$PEXTMIN
 10
1e+20
 20
1e+20
 30
1e+20
  9
$PEXTMAX
 10
-1e+20
 20
-1e+20
 30
-1e+20
  9
$PLIMMIN
 10
0.0
 20
0.0
  9
$PLIMMAX
 10
420.0
 20
297.0
  9
$UNITMODE
 70
0
  9
$VISRETAIN
 70
1
  9
$PLINEGEN
 70
0
  9
$PSLTSCALE
 70
1
  9
$TREEDEPTH
 70
3020
  9
$CMLSTYLE
  2
Standard
  9
$CMLJUST
 70
0
  9
$CMLSCALE
 40
20.0
  9
$PROXYGRAPHICS
 70
1
  9
$MEASUREMENT
 70
1
  9
$CELWEIGHT
370
-1
  9
$ENDCAPS
280
0
  9
$JOINSTYLE
280
0
  9
$LWDISPLAY
290
0
  9
$INSUNITS
 70
4
  9
$HYPERLINKBASE
  1

  9
$STYLESHEET
  1

  9
$XEDIT
290
1
  9
$CEPSNTYPE
380
0
  9
$PSTYLEMODE
290
1
  9
$FINGERPRINTGUID
  2
{24021095-F5B8-491D-B7C9-F2B97B12E282}
  9
$VERSIONGUID
  2
{4539DC60-B4AC-4DEE-892A-D61A9DD7F4F6}
  9
$EXTNAMES
290
1
  9
$PSVPSCALE
 40
0.0
  9
$OLESTARTUP
290
0
  9
$SORTENTS
280
127
  9
$INDEXCTL
280
0
  9
$HIDETEXT
280
1
  9
$XCLIPFRAME
280
1
  9
$HALOGAP
280
0
  9
$OBSCOLOR
 70
257
  9
$OBSLTYPE
280
0
  9
$INTERSECTIONDISPLAY
280
0
  9
$INTERSECTIONCOLOR
 70
257
  9
$DIMASSOC
280
2
  9
$PROJECTNAME
  1

  9
$CAMERADISPLAY
290
0
  9
$LENSLENGTH
 40
50.0
  9
$CAMERAHEIGHT
 40
0.0
  9
$STEPSPERSEC
 40
24.0
  9
$STEPSIZE
 40
100.0
  9
$3DDWFPREC
 40
2.0
  9
$PSOLWIDTH
 40
0.005
  9
$PSOLHEIGHT
 40
0.08
  9
$LOFTANG1
 40
1.570796326795
  9
$LOFTANG2
 40
1.570796326795
  9
$LOFTMAG1
 40
0.0
  9
$LOFTMAG2
 40
0.0
  9
$LOFTPARAM
 70
7
  9
$LOFTNORMALS
280
1
  9
$LATITUDE
 40
37.795
  9
$LONGITUDE
 40
-122.394
  9
$NORTHDIRECTION
 40
0.0
  9
$TIMEZONE
 70
-8000
  9
$LIGHTGLYPHDISPLAY
280
1
  9
$TILEMODELIGHTSYNCH
280
1
  9
$CMATERIAL
347
20
  9
$SOLIDHIST
280
0
  9
$SHOWHIST
280
1
  9
$DWFFRAME
280
2
  9
$DGNFRAME
280
2
  9
$REALWORLDSCALE
290
1
  9
$INTERFERECOLOR
 62
256
  9
$CSHADOW
280
0
  9
$SHADOWPLANELOCATION
 40
0.0
  0
ENDSEC
  0
SECTION
  2
CLASSES
  0
CLASS
  1
ACDBDICTIONARYWDFLT
  2
AcDbDictionaryWithDefault
  3
ObjectDBX Classes
 90
0
 91
0
280
0
281
0
  0
CLASS
  1
SUN
  2
AcDbSun
  3
SCENEOE
 90
1153
 91
0
280
0
281
0
  0
CLASS
  1
VISUALSTYLE
  2
AcDbVisualStyle
  3
ObjectDBX Classes
 90
4095
 91
0
280
0
281
0
  0
CLASS
  1
MATERIAL
  2
AcDbMaterial
  3
ObjectDBX Classes
 90
1153
 91
0
280
0
281
0
  0
CLASS
  1
SCALE
  2
AcDbScale
  3
ObjectDBX Classes
 90
1153
 91
0
280
0
281
0
  0
CLASS
  1
TABLESTYLE
  2
AcDbTableStyle
  3
ObjectDBX Classes
 90
4095
 91
0
280
0
281
0
  0
CLASS
  1
MLEADERSTYLE
  2
AcDbMLeaderStyle
  3
ACDB_MLEADERSTYLE_CLASS
 90
4095
 91
0
280
0
281
0
  0
CLASS
  1
DICTIONARYVAR
  2
AcDbDictionaryVar
  3
ObjectDBX Classes
 90
0
 91
0
280
0
281
0
  0
CLASS
  1
CELLSTYLEMAP
  2
AcDbCellStyleMap
  3
ObjectDBX Classes
 90
1152
 91
0
280
0
281
0
  0
CLASS
  1
MENTALRAYRENDERSETTINGS
  2
AcDbMentalRayRenderSettings
  3
SCENEOE
 90
1024
 91
0
280
0
281
0
  0
CLASS
  1
ACDBDETAILVIEWSTYLE
  2
AcDbDetailViewStyle
  3
ObjectDBX Classes
 90
1025
 91
0
280
0
281
0
  0
CLASS
  1
ACDBSECTIONVIEWSTYLE
  2
AcDbSectionViewStyle
  3
ObjectDBX Classes
 90
1025
 91
0
280
0
281
0
  0
CLASS
  1
RASTERVARIABLES
  2
AcDbRasterVariables
  3
ISM
 90
0
 91
0
280
0
281
0
  0
CLASS
  1
LAYOUT
  2
AcDbLayout
  3
ObjectDBX Classes
 90
0
 91
0
280
0
281
0
  0
CLASS
  1
ACDBPLACEHOLDER
  2
AcDbPlaceHolder
  3
ObjectDBX Classes
 90
0
 91
0
280
0
281
0
  0
ENDSEC
  0
SECTION
  2
TABLES
  0
TABLE
  2
VPORT
  5
8
330
0
100
AcDbSymbolTable
 70
1
  0
VPORT
  5
23
330
8
100
AcDbSymbolTableRecord
100
AcDbViewportTableRecord
  2
*Active
 70
0
 10
0.0
 20
0.0
 11
1.0
 21
1.0
 12
0.0
 22
0.0
 13
0.0
 23
0.0
 14
0.5
 24
0.5
 15
0.5
 25
0.5
 16
0.0
 26
0.0
 36
1.0
 17
0.0
 27
0.0
 37
0.0
 40
1000.0
 41
1.34
 42
50.0
 43
0.0
 44
0.0
 50
0.0
 51
0.0
 71
0
 72
1000
 73
1
 74
3
 75
0
 76
0
 77
0
 78
0
281
0
 65
0
146
0.0
  0
ENDTAB
  0
TABLE
  2
LTYPE
  5
2
330
0
100
AcDbSymbolTable
 70
3
  0
LTYPE
  5
24
330
2
100
AcDbSymbolTableRecord
100
AcDbLinetypeTableRecord
  2
ByBlock
 70
0
  3

 72
65
 73
0
 40
0.0
  0
LTYPE
  5
25
330
2
100
AcDbSymbolTableRecord
100
AcDbLinetypeTableRecord
  2
ByLayer
 70
0
  3

 72
65
 73
0
 40
0.0
  0
LTYPE
  5
26
330
2
100
AcDbSymbolTableRecord
100
AcDbLinetypeTableRecord
  2
Continuous
 70
0
  3

 72
65
 73
0
 40
0.0
  0
ENDTAB
  0
TABLE
  2
LAYER
  5
1
330
0
100
AcDbSymbolTable
 70
4
  0
LAYER
  5
27
330
1
100
AcDbSymbolTableRecord
100
AcDbLayerTableRecord
  2
0
 70
0
 62
7
  6
Continuous
370
-3
390
13
347
21
  0
LAYER
  5
28
330
1
100
AcDbSymbolTableRecord
100
AcDbLayerTableRecord
  2
Defpoints
 70
0
 62
7
  6
Continuous
290
0
370
-3
390
13
347
21
  0
LAYER
  5
88
330
1
100
AcDbSymbolTableRecord
100
AcDbLayerTableRecord
  2
THIET BI DIEN
 70
0
 62
5
  6
Continuous
370
-3
390
13
347
21
  0
LAYER
  5
89
330
1
100
AcDbSymbolTableRecord
100
AcDbLayerTableRecord
  2
DIM1
 70
0
 62
11
  6
Continuous
370
-3
390
13
347
21
  0
ENDTAB
  0
TABLE
  2
STYLE
  5
5
330
0
100
AcDbSymbolTable
 70
2
  0
STYLE
  5
29
330
5
100
AcDbSymbolTableRecord
100
AcDbTextStyleTableRecord
  2
Standard
 70
0
 40
0.0
 41
1.0
 50
0.0
 71
0
 42
2.5
  3
txt
  4

  0
STYLE
  5
8A
330
5
100
AcDbSymbolTableRecord
100
AcDbTextStyleTableRecord
  2
T
 70
0
 40
0.0
 41
1.0
 50
0.0
 71
0
 42
240.0
  3

  4

  0
ENDTAB
  0
TABLE
  2
VIEW
  5
7
330
0
100
AcDbSymbolTable
 70
0
  0
ENDTAB
  0
TABLE
  2
UCS
  5
6
330
0
100
AcDbSymbolTable
 70
0
  0
ENDTAB
  0
TABLE
  2
APPID
  5
3
330
0
100
AcDbSymbolTable
 70
3
  0
APPID
  5
2A
330
3
100
AcDbSymbolTableRecord
100
AcDbRegAppTableRecord
  2
ACAD
 70
0
  0
APPID
  5
8B
330
3
100
AcDbSymbolTableRecord
100
AcDbRegAppTableRecord
  2
HATCHBACKGROUNDCOLOR
 70
0
  0
APPID
  5
8C
330
3
100
AcDbSymbolTableRecord
100
AcDbRegAppTableRecord
  2
EZDXF
 70
0
  0
ENDTAB
  0
TABLE
  2
DIMSTYLE
  5
4
330
0
100
AcDbSymbolTable
 70
1
100
AcDbDimStyleTable
  0
DIMSTYLE
105
2B
330
4
100
AcDbSymbolTableRecord
100
AcDbDimStyleTableRecord
  2
Standard
 70
0
 40
1.0
 41
2.5
 42
0.625
 43
3.75
 44
1.25
 45
0.0
 46
0.0
 47
0.0
 48
0.0
 49
2.5
140
2.5
141
2.5
142
0.0
143
0.03937007874
144
1.0
145
0.0
146
1.0
147
0.625
148
0.0
 69
0
 70
0
 71
0
 72
0
 73
0
 74
0
 75
0
 76
0
 77
1
 78
8
 79
3
170
0
171
3
172
1
173
0
174
0
175
0
176
0
177
0
178
0
179
2
271
2
272
2
273
2
274
3
275
0
276
0
277
2
278
44
279
0
280
0
281
0
282
0
283
0
284
8
285
0
286
0
288
0
289
3
290
0
371
-2
372
-2
  0
ENDTAB
  0
TABLE
  2
BLOCK_RECORD
  5
9
330
0
100
AcDbSymbolTable
 70
2
  0
BLOCK_RECORD
  5
17
330
9
100
AcDbSymbolTableRecord
100
AcDbBlockTableRecord
  2
*Model_Space
340
1A
 70
0
280
1
281
0
  0
BLOCK_RECORD
  5
1B
330
9
100
AcDbSymbolTableRecord
100
AcDbBlockTableRecord
  2
*Paper_Space
340
1E
 70
0
280
1
281
0
  0
ENDTAB
  0
ENDSEC
  0
SECTION
  2
BLOCKS
  0
BLOCK
  5
18
330
17
100
AcDbEntity
  8
0
100
AcDbBlockBegin
  2
*Model_Space
 70
0
 10
0.0
 20
0.0
 30
0.0
  3
*Model_Space
  1

  0
ENDBLK
  5
19
330
17
100
AcDbEntity
  8
0
100
AcDbBlockEnd
  0
BLOCK
  5
1C
330
1B
100
AcDbEntity
  8
0
100
AcDbBlockBegin
  2
*Paper_Space
 70
0
 10
0.0
 20
0.0
 30
0.0
  3
*Paper_Space
  1

  0
ENDBLK
  5
1D
330
1B
100
AcDbEntity
  8
0
100
AcDbBlockEnd
  0
ENDSEC
  0
SECTION
  2
ENTITIES
  0
ARC
  5
2F
330
17
100
AcDbEntity
  8
THIET BI DIEN
 48
15.0
100
AcDbCircle
 10
458.0595066570843
 20
283.700177995961
 30
0.0
 40
44.97854852404464
100
AcDbArc
 50
279.1890831181359
 51
328.5309784648899
  0
ARC
  5
30
330
17
100
AcDbEntity
  8
THIET BI DIEN
 48
15.0
100
AcDbCircle
 10
456.8022944812699
 20
292.71997107936113
 30
0.0
 40
44.97854852404464
100
AcDbArc
 50
219.1890831189876
 51
268.5309784674108
  0
LINE
  5
31
330
17
100
AcDbEntity
  8
THIET BI DIEN
 48
15.0
100
AcDbLine
 10
483.54826603752394
 20
294.8945545184815
 30
0.0
 11
506.015791116997
 21
301.7623362561917
 31
0.0
  0
LINE
  5
32
330
17
100
AcDbEntity
  8
THIET BI DIEN
 48
15.0
100
AcDbLine
 10
481.8198462491471
 20
298.86992003175146
 30
0.0
 11
508.54354070553495
 21
314.29885221989207
 31
0.0
  0
ARC
  5
33
330
17
100
AcDbEntity
  8
THIET BI DIEN
 48
15.0
100
AcDbCircle
 10
473.682246551283
 20
285.8777333604321
 30
0.0
 40
44.97854852404464
100
AcDbArc
 50
39.18908311898764
 51
88.53097846741078
  0
LINE
  5
34
330
17
100
AcDbEntity
  8
THIET BI DIEN
 48
15.0
100
AcDbLine
 10
451.2432524130829
 20
302.35445823352165
 30
0.0
 11
434.06181642082925
 21
318.37801484369265
 31
0.0
  0
LINE
  5
35
330
17
100
AcDbEntity
  8
THIET BI DIEN
 48
15.0
100
AcDbLine
 10
448.66469478346403
 20
298.86992003175146
 30
0.0
 11
421.94100032707615
 21
314.29885221989207
 31
0.0
  0
LINE
  5
36
330
17
100
AcDbEntity
  8
THIET BI DIEN
 48
15.0
100
AcDbLine
 10
469.54924793430905
 20
307.9501605321311
 30
0.0
 11
474.8353370215202
 21
330.8414988799814
 31
0.0
  0
LINE
  5
37
330
17
100
AcDbEntity
  8
THIET BI DIEN
 48
15.0
100
AcDbLine
 10
465.242270516306
 20
308.44098784362177
 30
0.0
 11
465.242270516306
 21
339.29885221989207
 31
0.0
  0
ARC
  5
38
330
17
100
AcDbEntity
  8
THIET BI DIEN
 48
15.0
100
AcDbCircle
 10
472.42503437547
 20
294.89752644383225
 30
0.0
 40
44.97854852404464
100
AcDbArc
 50
99.18908311813588
 51
148.5309784648898
  0
LINE
  5
39
330
17
100
AcDbEntity
  8
THIET BI DIEN
 48
15.0
100
AcDbLine
 10
446.936274995089
 20
283.7031499213026
 30
0.0
 11
424.4687499155559
 21
276.83536818359244
 31
0.0
  0
ARC
  5
3A
330
17
100
AcDbEntity
  8
THIET BI DIEN
 48
15.0
100
AcDbCircle
 10
463.9850583404352
 20
298.3186453032922
 30
0.0
 40
44.97854852404464
100
AcDbArc
 50
159.1890831188126
 51
208.5309784656502
  0
LINE
  5
3B
330
17
100
AcDbEntity
  8
THIET BI DIEN
 48
15.0
100
AcDbLine
 10
481.8198462491471
 20
279.7277844080327
 30
0.0
 11
508.54354070553495
 21
264.29885221989207
 31
0.0
  0
CIRCLE
  5
3C
330
17
100
AcDbEntity
  8
0
 62
8
100
AcDbCircle
 10
465.242270516306
 20
289.29885221989207
 30
0.0
 40
51.0
  0
ARC
  5
3D
330
17
100
AcDbEntity
  8
THIET BI DIEN
 48
15.0
100
AcDbCircle
 10
466.49948269211905
 20
280.279059136501
 30
0.0
 40
44.97854852404464
100
AcDbArc
 50
339.1890831188126
 51
28.53097846565017
  0
LINE
  5
3E
330
17
100
AcDbEntity
  8
THIET BI DIEN
 48
15.0
100
AcDbLine
 10
465.242270516306
 20
270.15671659616237
 30
0.0
 11
465.242270516306
 21
239.29885221989207
 31
0.0
  0
LINE
  5
3F
330
17
100
AcDbEntity
  8
THIET BI DIEN
 48
15.0
100
AcDbLine
 10
460.93529309829296
 20
270.6475439076621
 30
0.0
 11
455.64920401103313
 21
247.75620555980277
 31
0.0
  0
LINE
  5
40
330
17
100
AcDbEntity
  8
THIET BI DIEN
 48
15.0
100
AcDbLine
 10
448.66469478346403
 20
279.7277844080327
 30
0.0
 11
421.94100032707615
 21
264.29885221989207
 31
0.0
  0
LINE
  5
41
330
17
100
AcDbEntity
  8
THIET BI DIEN
 48
15.0
100
AcDbLine
 10
479.24128861948907
 20
276.24324620623156
 30
0.0
 11
496.4227246117241
 21
260.2196895961024
 31
0.0
  0
LWPOLYLINE
  5
42
330
17
100
AcDbEntity
  8
0
 62
8
100
AcDbPolyline
 90
8
 70
1
 10
410.2422705163051
 20
229.29885221989207
 10
520.2422705163051
 20
229.29885221989207
 42
0.4142135623730951
 10
525.242270516306
 20
234.29885221989207
 10
525.242270516306
 20
344.29885221989207
 42
0.4142135623730951
 10
520.2422705163051
 20
349.29885221989207
 10
410.2422705163051
 20
349.29885221989207
 42
0.4142135623730951
 10
405.242270516306
 20
344.29885221989207
 10
405.242270516306
 20
234.29885221989207
 42
0.4142135623730951
  0
CIRCLE
  5
43
330
17
100
AcDbEntity
  8
THIET BI DIEN
 62
2
 48
80.0
100
AcDbCircle
 10
517.5261202255363
 20
237.01500251065227
 30
0.0
 40
2.052631578947368
  0
CIRCLE
  5
44
330
17
100
AcDbEntity
  8
THIET BI DIEN
 62
2
 48
80.0
100
AcDbCircle
 10
412.95842080713305
 20
237.01500251065227
 30
0.0
 40
2.052631578947368
  0
CIRCLE
  5
45
330
17
100
AcDbEntity
  8
THIET BI DIEN
 62
2
 48
80.0
100
AcDbCircle
 10
517.5261202255363
 20
341.58270192908276
 30
0.0
 40
2.052631578947368
  0
CIRCLE
  5
46
330
17
100
AcDbEntity
  8
THIET BI DIEN
 62
2
 48
80.0
100
AcDbCircle
 10
412.95842080713305
 20
341.58270192908276
 30
0.0
 40
2.052631578947368
  0
ARC
  5
47
330
17
100
AcDbEntity
  8
THIET BI DIEN
 48
15.0
100
AcDbCircle
 10
121.218667381361
 20
285.56640273727135
 30
0.0
 40
29.98569901602976
100
AcDbArc
 50
279.1890831181428
 51
328.5309784648856
  0
ARC
  5
48
330
17
100
AcDbEntity
  8
THIET BI DIEN
 48
15.0
100
AcDbCircle
 10
120.38052593081898
 20
291.57959812620174
 30
0.0
 40
29.98569901602976
100
AcDbArc
 50
219.1890831189968
 51
268.530978467411
  0
LINE
  5
49
330
17
100
AcDbEntity
  8
THIET BI DIEN
 48
15.0
100
AcDbLine
 10
144.5866362552672
 20
294.9781459170117
 30
0.0
 11
153.18952368797022
 21
297.6078415774318
 31
0.0
  0
LINE
  5
4A
330
17
100
AcDbEntity
  8
THIET BI DIEN
 48
15.0
100
AcDbLine
 10
142.83239646796596
 20
299.01289742780136
 30
0.0
 11
154.87469008032826
 21
305.96551888656177
 31
0.0
  0
ARC
  5
4B
330
17
100
AcDbEntity
  8
THIET BI DIEN
 48
15.0
100
AcDbCircle
 10
131.63382731082606
 20
287.0181063135824
 30
0.0
 40
29.98569901602976
100
AcDbArc
 50
39.18908311899685
 51
88.53097846741105
  0
LINE
  5
4C
330
17
100
AcDbEntity
  8
THIET BI DIEN
 48
15.0
100
AcDbLine
 10
111.79903418636627
 20
302.5494894033327
 30
0.0
 11
105.2202072238581
 21
308.68496063576276
 31
0.0
  0
LINE
  5
4D
330
17
100
AcDbEntity
  8
THIET BI DIEN
 48
15.0
100
AcDbLine
 10
109.18195677371818
 20
299.01289742780136
 30
0.0
 11
97.13966316135497
 21
305.96551888656177
 31
0.0
  0
LINE
  5
4E
330
17
100
AcDbEntity
  8
THIET BI DIEN
 48
15.0
100
AcDbLine
 10
130.35263266575498
 20
308.1167917132225
 30
0.0
 11
132.4025542909851
 21
316.9939499932916
 31
0.0
  0
LINE
  5
4F
330
17
100
AcDbEntity
  8
THIET BI DIEN
 48
15.0
100
AcDbLine
 10
126.0071766208423
 20
308.7269426357125
 30
0.0
 11
126.0071766208423
 21
322.63218555323147
 31
0.0
  0
ARC
  5
50
330
17
100
AcDbEntity
  8
THIET BI DIEN
 48
15.0
100
AcDbCircle
 10
130.79568586028404
 20
293.0313017025219
 30
0.0
 40
29.98569901602976
100
AcDbArc
 50
99.1890831181428
 51
148.5309784648856
  0
LINE
  5
51
330
17
100
AcDbEntity
  8
THIET BI DIEN
 48
15.0
100
AcDbLine
 10
107.42771698641513
 20
283.6195585227815
 30
0.0
 11
98.82482955367618
 21
280.9898628623614
 31
0.0
  0
ARC
  5
52
330
17
100
AcDbEntity
  8
THIET BI DIEN
 48
15.0
100
AcDbCircle
 10
125.16903517026117
 20
295.31204760882247
 30
0.0
 40
29.98569901602976
100
AcDbArc
 50
159.1890831187937
 51
208.5309784656421
  0
LINE
  5
53
330
17
100
AcDbEntity
  8
THIET BI DIEN
 48
15.0
100
AcDbLine
 10
142.83239646796505
 20
279.58480701199187
 30
0.0
 11
154.87469008032826
 21
272.63218555323147
 31
0.0
  0
CIRCLE
  5
54
330
17
100
AcDbEntity
  8
0
 62
8
100
AcDbCircle
 10
126.0071766208423
 20
289.29885221989207
 30
0.0
 40
34.0
  0
ARC
  5
55
330
17
100
AcDbEntity
  8
THIET BI DIEN
 48
15.0
100
AcDbCircle
 10
126.84531807138387
 20
283.28565683096167
 30
0.0
 40
29.98569901602976
100
AcDbArc
 50
339.1890831187938
 51
28.53097846564214
  0
LINE
  5
56
330
17
100
AcDbEntity
  8
THIET BI DIEN
 48
15.0
100
AcDbLine
 10
126.0071766208423
 20
269.87076180407166
 30
0.0
 11
126.0071766208423
 21
255.96551888656177
 31
0.0
  0
LINE
  5
57
330
17
100
AcDbEntity
  8
THIET BI DIEN
 48
15.0
100
AcDbLine
 10
121.63585942087616
 20
270.3689213393427
 30
0.0
 11
119.61179895065993
 21
261.6037544465016
 31
0.0
  0
LINE
  5
58
330
17
100
AcDbEntity
  8
THIET BI DIEN
 48
15.0
100
AcDbLine
 10
109.18195677371818
 20
279.58480701199187
 30
0.0
 11
97.13966316135497
 21
272.63218555323147
 31
0.0
  0
LINE
  5
59
330
17
100
AcDbEntity
  8
THIET BI DIEN
 48
15.0
100
AcDbLine
 10
140.21531905529423
 20
276.04821503643143
 30
0.0
 11
146.79414601778694
 21
269.9127438040323
 31
0.0
  0
LWPOLYLINE
  5
5A
330
17
100
AcDbEntity
  8
0
 62
8
100
AcDbPolyline
 90
8
 70
1
 10
89.3405099541751
 20
249.29885221989207
 10
162.6738432875079
 20
249.29885221989207
 42
0.4142135623730951
 10
166.0071766208423
 20
252.63218555323147
 10
166.0071766208423
 20
325.96551888656177
 42
0.4142135623730951
 10
162.6738432875079
 20
329.29885221989207
 10
89.3405099541751
 20
329.29885221989207
 42
0.4142135623730951
 10
86.00717662084207
 20
325.96551888656177
 10
86.00717662084207
 20
252.63218555323147
 42
0.4142135623730951
  0
CIRCLE
  5
5B
330
17
100
AcDbEntity
  8
0
 62
2
100
AcDbCircle
 10
161.76110514058223
 20
324.7949105607222
 30
0.0
 40
2.0
  0
CIRCLE
  5
5C
330
17
100
AcDbEntity
  8
0
 62
2
100
AcDbCircle
 10
161.76110514058223
 20
253.7949105607222
 30
0.0
 40
2.0
  0
CIRCLE
  5
5D
330
17
100
AcDbEntity
  8
0
 62
2
100
AcDbCircle
 10
90.261105140582
 20
253.7949105607222
 30
0.0
 40
2.0
  0
CIRCLE
  5
5E
330
17
100
AcDbEntity
  8
0
 62
2
100
AcDbCircle
 10
90.261105140582
 20
324.7949105607222
 30
0.0
 40
2.0
  0
CIRCLE
  5
5F
330
17
100
AcDbEntity
  8
0
 62
2
100
AcDbCircle
 10
161.76110514058223
 20
324.7949105607222
 30
0.0
 40
2.0
  0
CIRCLE
  5
60
330
17
100
AcDbEntity
  8
THIET BI DIEN
 48
15.0
100
AcDbCircle
 10
465.242270516306
 20
289.29885221989207
 30
0.0
 40
19.14213562373095
  0
LWPOLYLINE
  5
61
330
17
100
AcDbEntity
  8
DIM1
 48
15.0
100
AcDbPolyline
 90
2
 70
0
 10
212.60408787168285
 20
292.089868708832
 10
182.31484779832795
 20
292.089868708832
  0
LWPOLYLINE
  5
62
330
17
100
AcDbEntity
  8
DIM1
 48
15.0
100
AcDbPolyline
 90
3
 70
0
 10
182.31484779832795
 20
292.089868708832
 10
195.52520723211114
 20
297.06922059613134
 10
193.0770225538961
 20
292.089868708832
  0
LWPOLYLINE
  5
63
330
17
100
AcDbEntity
  8
DIM1
 48
15.0
100
AcDbPolyline
 90
3
 70
0
 10
182.31484779832795
 20
292.089868708832
 10
195.52520723211114
 20
287.1105168214617
 10
193.0770225538961
 20
292.089868708832
  0
LWPOLYLINE
  5
64
330
17
100
AcDbEntity
  8
DIM1
 48
15.0
100
AcDbPolyline
 90
2
 70
0
 10
212.60408787168285
 20
292.089868708832
 10
182.31484779832795
 20
292.089868708832
  0
LWPOLYLINE
  5
65
330
17
100
AcDbEntity
  8
DIM1
 48
15.0
100
AcDbPolyline
 90
2
 70
0
 10
227.74870790838918
 20
308.1167917132225
 10
197.45946783503518
 20
308.1167917132225
  0
LWPOLYLINE
  5
66
330
17
100
AcDbEntity
  8
DIM1
 48
15.0
100
AcDbPolyline
 90
3
 70
0
 10
197.45946783503518
 20
308.1167917132225
 10
210.66982726881702
 20
313.0961436005218
 10
208.22164259060196
 20
308.1167917132225
  0
LWPOLYLINE
  5
67
330
17
100
AcDbEntity
  8
DIM1
 48
15.0
100
AcDbPolyline
 90
3
 70
0
 10
197.45946783503518
 20
308.1167917132225
 10
210.66982726881702
 20
303.1374398258522
 10
208.22164259060196
 20
308.1167917132225
  0
LWPOLYLINE
  5
68
330
17
100
AcDbEntity
  8
DIM1
 48
15.0
100
AcDbPolyline
 90
2
 70
0
 10
227.74870790838918
 20
308.1167917132225
 10
197.45946783503518
 20
308.1167917132225
  0
LWPOLYLINE
  5
69
330
17
100
AcDbEntity
  8
DIM1
 48
15.0
100
AcDbPolyline
 90
2
 70
0
 10
227.74870790838918
 20
276.0629457044324
 10
197.45946783503518
 20
276.0629457044324
  0
LWPOLYLINE
  5
6A
330
17
100
AcDbEntity
  8
DIM1
 48
15.0
100
AcDbPolyline
 90
3
 70
0
 10
197.45946783503518
 20
276.0629457044324
 10
210.66982726881702
 20
281.0422975917427
 10
208.22164259060196
 20
276.0629457044324
  0
LWPOLYLINE
  5
6B
330
17
100
AcDbEntity
  8
DIM1
 48
15.0
100
AcDbPolyline
 90
3
 70
0
 10
197.45946783503518
 20
276.0629457044324
 10
210.66982726881702
 20
271.08359381707123
 10
208.22164259060196
 20
276.0629457044324
  0
LWPOLYLINE
  5
6C
330
17
100
AcDbEntity
  8
DIM1
 48
15.0
100
AcDbPolyline
 90
2
 70
0
 10
227.74870790838918
 20
276.0629457044324
 10
197.45946783503518
 20
276.0629457044324
  0
LWPOLYLINE
  5
6D
330
17
100
AcDbEntity
  8
THIET BI DIEN
 48
15.0
100
AcDbPolyline
 90
8
 70
1
 10
255.36858238247828
 20
295.68723697499263
 10
258.77770801622114
 20
295.68723697499263
 42
-0.4142135623730925
 10
260.96258196576787
 20
293.5023630253927
 10
260.96258196576787
 20
285.0953414145424
 42
-0.4142135623730951
 10
258.77770801622114
 20
282.9104674649716
 10
255.36858238247828
 20
282.9104674649716
 42
-0.4142135623730966
 10
253.1837084328829
 20
285.0953414145424
 10
253.1837084328829
 20
293.5023630253927
 42
-0.4142135623730951
  0
SPLINE
  5
6E
330
17
100
AcDbEntity
  8
THIET BI DIEN
 48
15.0
100
AcDbSpline
 70
8
 71
3
 72
16
 73
12
 74
0
 42
1e-09
 40
0.7848023245379574
 40
0.7848023245379574
 40
0.7848023245379574
 40
0.7848023245379574
 40
12.82026912203879
 40
23.81295198483546
 40
33.55563468139725
 40
48.08800703905927
 40
58.82321605120473
 40
65.48965214597038
 40
75.48672519319835
 40
85.9665221551744
 40
89.1894349344785
 40
89.1894349344785
 40
89.1894349344785
 40
89.1894349344785
 10
255.00257872507996
 20
282.9104674649716
 30
0.0
 10
253.38249167409617
 20
281.21748549352196
 30
0.0
 10
252.1363877572851
 20
274.78417844532123
 30
0.0
 10
250.07765410061916
 20
267.6820052073617
 30
0.0
 10
252.517493242952
 20
259.60524530553266
 30
0.0
 10
256.10496151974326
 20
258.1273691507522
 30
0.0
 10
263.82957814530596
 20
259.46191239054133
 30
0.0
 10
264.63911297706613
 20
266.33240363973164
 30
0.0
 10
259.88265811699625
 20
270.52233496080225
 30
0.0
 10
260.99127181554627
 20
280.5840455290927
 30
0.0
 10
258.6961413030101
 20
282.4722827636724
 30
0.0
 10
258.1442061742389
 20
282.9104674649716
 30
0.0
  0
LINE
  5
6F
330
17
100
AcDbEntity
  8
0
 62
8
100
AcDbLine
 10
246.72431114178812
 20
253.79491056057122
 30
0.0
 11
269.5554799731283
 21
253.7949105607222
 31
0.0
  0
LWPOLYLINE
  5
70
330
17
100
AcDbEntity
  8
0
 62
8
100
AcDbPolyline
 90
6
 70
0
 10
246.72431114183496
 20
292.4105405317623
 10
246.7243111417381
 20
329.2988522199412
 10
269.555479973126
 20
329.29885221984114
 10
269.5554799731751
 20
249.29885221992117
 10
246.72431114188498
 20
249.29885221987206
 10
246.72431114183496
 20
292.4105405317623
  0
SPLINE
  5
71
330
17
100
AcDbEntity
  8
THIET BI DIEN
 48
15.0
100
AcDbSpline
 70
8
 71
3
 72
16
 73
12
 74
0
 42
1e-09
 40
0.7848023245379574
 40
0.7848023245379574
 40
0.7848023245379574
 40
0.7848023245379574
 40
12.82026912203879
 40
23.81295198483546
 40
33.55563468139725
 40
48.08800703905927
 40
58.82321605120473
 40
65.48965214597038
 40
75.48672519319835
 40
85.9665221551744
 40
89.1894349344785
 40
89.1894349344785
 40
89.1894349344785
 40
89.1894349344785
 10
259.14371167357126
 20
295.68723697499263
 30
0.0
 10
260.76379872460416
 20
297.38021894642225
 30
0.0
 10
262.0099026414139
 20
303.81352599464117
 30
0.0
 10
264.0686362980789
 20
310.9156992325825
 30
0.0
 10
261.6287971556992
 20
318.99245913442246
 30
0.0
 10
258.04132887890705
 20
320.470335289212
 30
0.0
 10
250.316712253393
 20
319.13579204939197
 30
0.0
 10
249.5071774216342
 20
312.2653008002326
 30
0.0
 10
254.26363228170317
 20
308.07536947916196
 30
0.0
 10
253.15501858310404
 20
298.01365891086243
 30
0.0
 10
255.45014909568886
 20
296.1254216762918
 30
0.0
 10
256.00208422441096
 20
295.68723697499263
 30
0.0
  0
LINE
  5
72
330
17
100
AcDbEntity
  8
0
 62
8
100
AcDbLine
 10
246.7243111417872
 20
324.79491056086226
 30
0.0
 11
269.555479973126
 21
324.7949105607222
 31
0.0
  0
LWPOLYLINE
  5
73
330
17
100
AcDbEntity
  8
0
 62
8
100
AcDbPolyline
 90
6
 70
0
 10
649.009941015798
 20
289.7096938017312
 10
649.0099410157452
 20
349.2988522199721
 10
685.891274806944
 20
349.29885221981203
 10
685.8912748069981
 20
229.28976131174204
 10
649.0099410158521
 20
229.2897613116911
 10
649.009941015798
 20
289.7096938017312
  0
LWPOLYLINE
  5
74
330
17
100
AcDbEntity
  8
DIM1
 48
15.0
100
AcDbPolyline
 90
2
 70
0
 10
631.071687774079
 20
257.40678757660135
 10
581.473057153971
 20
257.40678757660135
  0
LWPOLYLINE
  5
75
330
17
100
AcDbEntity
  8
DIM1
 48
15.0
100
AcDbPolyline
 90
3
 70
0
 10
581.473057153971
 20
257.40678757660135
 10
603.1050207267851
 20
249.25309886106152
 10
599.0961183161569
 20
257.40678757660135
  0
LWPOLYLINE
  5
76
330
17
100
AcDbEntity
  8
DIM1
 48
15.0
100
AcDbPolyline
 90
3
 70
0
 10
581.473057153971
 20
257.40678757660135
 10
603.1050207267851
 20
265.56047629208115
 10
599.0961183161569
 20
257.40678757660135
  0
LWPOLYLINE
  5
77
330
17
100
AcDbEntity
  8
DIM1
 48
15.0
100
AcDbPolyline
 90
2
 70
0
 10
631.071687774079
 20
257.40678757660135
 10
581.473057153971
 20
257.40678757660135
  0
LWPOLYLINE
  5
78
330
17
100
AcDbEntity
  8
DIM1
 48
15.0
100
AcDbPolyline
 90
2
 70
0
 10
631.071687774079
 20
309.8949604159916
 10
581.473057153971
 20
309.8949604159916
  0
LWPOLYLINE
  5
79
330
17
100
AcDbEntity
  8
DIM1
 48
15.0
100
AcDbPolyline
 90
3
 70
0
 10
581.473057153971
 20
309.8949604159916
 10
603.1050207267851
 20
301.74127170045176
 10
599.0961183161569
 20
309.8949604159916
  0
LWPOLYLINE
  5
7A
330
17
100
AcDbEntity
  8
DIM1
 48
15.0
100
AcDbPolyline
 90
3
 70
0
 10
581.473057153971
 20
309.8949604159916
 10
603.1050207267851
 20
318.0486491314714
 10
599.0961183161569
 20
309.8949604159916
  0
LWPOLYLINE
  5
7B
330
17
100
AcDbEntity
  8
DIM1
 48
15.0
100
AcDbPolyline
 90
2
 70
0
 10
631.071687774079
 20
309.8949604159916
 10
581.473057153971
 20
309.8949604159916
  0
LWPOLYLINE
  5
7C
330
17
100
AcDbEntity
  8
DIM1
 48
15.0
100
AcDbPolyline
 90
2
 70
0
 10
606.2723724640539
 20
283.6508739962919
 10
556.6737418438872
 20
283.6508739962919
  0
LWPOLYLINE
  5
7D
330
17
100
AcDbEntity
  8
DIM1
 48
15.0
100
AcDbPolyline
 90
3
 70
0
 10
556.6737418438872
 20
283.6508739962919
 10
578.3057054167009
 20
275.4971852807612
 10
574.2968030061322
 20
283.6508739962919
  0
LWPOLYLINE
  5
7E
330
17
100
AcDbEntity
  8
DIM1
 48
15.0
100
AcDbPolyline
 90
3
 70
0
 10
556.6737418438872
 20
283.6508739962919
 10
578.3057054167009
 20
291.8045627117717
 10
574.2968030061322
 20
283.6508739962919
  0
LWPOLYLINE
  5
7F
330
17
100
AcDbEntity
  8
DIM1
 48
15.0
100
AcDbPolyline
 90
2
 70
0
 10
606.2723724640539
 20
283.6508739962919
 10
556.6737418438872
 20
283.6508739962919
  0
LINE
  5
80
330
17
100
AcDbEntity
  8
0
 62
8
100
AcDbLine
 10
649.0099410157452
 20
237.01500251041216
 30
0.0
 11
685.8912748069449
 21
237.01500251065227
 31
0.0
  0
LINE
  5
81
330
17
100
AcDbEntity
  8
0
 62
8
100
AcDbLine
 10
649.0099410157429
 20
341.58270192932105
 30
0.0
 11
685.8912748069431
 21
341.58270192908276
 31
0.0
  0
SPLINE
  5
82
330
17
100
AcDbEntity
  8
THIET BI DIEN
 48
15.0
100
AcDbSpline
 70
8
 71
3
 72
16
 73
12
 74
0
 42
1e-09
 40
0.7848023245379574
 40
0.7848023245379574
 40
0.7848023245379574
 40
0.7848023245379574
 40
12.82026912203879
 40
23.81295198483546
 40
33.55563468139725
 40
48.08800703905927
 40
58.82321605120473
 40
65.48965214597038
 40
75.48672519319835
 40
85.9665221551744
 40
89.1894349344785
 40
89.1894349344785
 40
89.1894349344785
 40
89.1894349344785
 10
662.382605035227
 20
298.87693973688147
 30
0.0
 10
659.7655260875201
 20
301.6117727036926
 30
0.0
 10
657.7525772615979
 20
309.1580609211014
 30
0.0
 10
654.4269112065701
 20
320.6308691582326
 30
0.0
 10
658.3682127873369
 20
333.67801887234236
 30
0.0
 10
664.1633876187109
 20
336.065371187462
 30
0.0
 10
676.641687187154
 20
333.9095580072826
 30
0.0
 10
677.9494049201151
 20
322.8110074713022
 30
0.0
 10
670.2658561429291
 20
316.0426174359018
 30
0.0
 10
672.0567040913459
 20
302.6350278395821
 30
0.0
 10
668.3491639670099
 20
299.5847806866823
 30
0.0
 10
667.4575712559943
 20
298.87693973688147
 30
0.0
  0
SPLINE
  5
83
330
17
100
AcDbEntity
  8
THIET BI DIEN
 48
15.0
100
AcDbSpline
 70
8
 71
3
 72
16
 73
12
 74
0
 42
1e-09
 40
0.7848023245379574
 40
0.7848023245379574
 40
0.7848023245379574
 40
0.7848023245379574
 40
12.82026912203879
 40
23.81295198483546
 40
33.55563468139725
 40
48.08800703905927
 40
58.82321605120473
 40
65.48965214597038
 40
75.48672519319835
 40
85.9665221551744
 40
89.1894349344785
 40
89.1894349344785
 40
89.1894349344785
 40
89.1894349344785
 10
669.0721664709229
 20
279.7116737946817
 30
0.0
 10
671.6892454186311
 20
276.97684082783235
 30
0.0
 10
673.7021942445529
 20
269.43055261046175
 30
0.0
 10
677.0278602995261
 20
257.9577443733324
 30
0.0
 10
673.0865587187589
 20
244.9105946591917
 30
0.0
 10
667.2913838874399
 20
242.52324234407206
 30
0.0
 10
654.8130843189972
 20
244.67905552428238
 30
0.0
 10
653.5053665859812
 20
255.77760606026277
 30
0.0
 10
661.1889153632221
 20
262.5459960956323
 30
0.0
 10
659.3980674147513
 20
275.95358569195196
 30
0.0
 10
663.10560753914
 20
279.0038328448627
 30
0.0
 10
663.9972002501561
 20
279.7116737946817
 30
0.0
  0
LWPOLYLINE
  5
84
330
17
100
AcDbEntity
  8
THIET BI DIEN
 48
15.0
100
AcDbPolyline
 90
8
 70
1
 10
662.973845157693
 20
298.87693973688147
 10
668.4809263484583
 20
298.87693973688147
 42
-0.4142135623730925
 10
672.010358679375
 20
295.34750740594245
 10
672.010358679375
 20
283.24110612562254
 42
-0.4142135623730951
 10
668.4809263484583
 20
279.7116737946817
 10
662.973845157693
 20
279.7116737946817
 42
-0.4142135623730966
 10
659.4444128267749
 20
283.24110612562254
 10
659.4444128267749
 20
295.34750740594245
 42
-0.4142135623730951
  0
TEXT
  5
85
330
17
100
AcDbEntity
  8
0
100
AcDbText
 10
429.05184469954725
 20
93.41859196047153
 30
-3962.491520787424
 40
18.0
  1
FAN %%222120
  7
T
100
AcDbText
  0
TEXT
  5
86
330
17
100
AcDbEntity
  8
0
100
AcDbText
 10
98.57552969249014
 20
91.48514632860133
 30
0.0
 40
18.0
  1
FAN %%22280
  7
T
100
AcDbText
  0
CIRCLE
  5
87
330
17
100
AcDbEntity
  8
THIET BI DIEN
 48
15.0
100
AcDbCircle
 10
126.0071766208423
 20
289.29885221989207
 30
0.0
 40
19.42809041582112
  0
ENDSEC
  0
SECTION
  2
OBJECTS
  0
DICTIONARY
  5
A
330
0
100
AcDbDictionary
281
1
  3
ACAD_COLOR
350
B
  3
ACAD_GROUP
350
C
  3
ACAD_LAYOUT
350
D
  3
ACAD_MATERIAL
350
E
  3
ACAD_MLEADERSTYLE
350
F
  3
ACAD_MLINESTYLE
350
10
  3
ACAD_PLOTSETTINGS
350
11
  3
ACAD_PLOTSTYLENAME
350
12
  3
ACAD_SCALELIST
350
14
  3
ACAD_TABLESTYLE
350
15
  3
ACAD_VISUALSTYLE
350
16
  3
EZDXF_META
350
2D
  0
DICTIONARY
  5
B
330
A
100
AcDbDictionary
281
1
  0
DICTIONARY
  5
C
330
A
100
AcDbDictionary
281
1
  0
DICTIONARY
  5
D
330
A
100
AcDbDictionary
281
1
  3
Model
350
1A
  3
Layout1
350
1E
  0
DICTIONARY
  5
E
330
A
100
AcDbDictionary
281
1
  3
ByBlock
350
1F
  3
ByLayer
350
20
  3
Global
350
21
  0
DICTIONARY
  5
F
330
A
100
AcDbDictionary
281
1
  3
Standard
350
2C
  0
DICTIONARY
  5
10
330
A
100
AcDbDictionary
281
1
  3
Standard
350
22
  0
DICTIONARY
  5
11
330
A
100
AcDbDictionary
281
1
  0
ACDBDICTIONARYWDFLT
  5
12
330
A
100
AcDbDictionary
281
1
  3
Normal
350
13
100
AcDbDictionaryWithDefault
340
13
  0
ACDBPLACEHOLDER
  5
13
330
12
  0
DICTIONARY
  5
14
330
A
100
AcDbDictionary
281
1
  0
DICTIONARY
  5
15
330
A
100
AcDbDictionary
281
1
  0
DICTIONARY
  5
16
330
A
100
AcDbDictionary
281
1
  0
LAYOUT
  5
1A
330
D
100
AcDbPlotSettings
  1

  4
A3
  6

 40
7.5
 41
20.0
 42
7.5
 43
20.0
 44
420.0
 45
297.0
 46
0.0
 47
0.0
 48
0.0
 49
0.0
140
0.0
141
0.0
142
1.0
143
1.0
 70
1024
 72
1
 73
0
 74
5
  7

 75
16
 76
0
 77
2
 78
300
147
1.0
148
0.0
149
0.0
100
AcDbLayout
  1
Model
 70
1
 71
0
 10
0.0
 20
0.0
 11
420.0
 21
297.0
 12
0.0
 22
0.0
 32
0.0
 14
1e+20
 24
1e+20
 34
1e+20
 15
-1e+20
 25
-1e+20
 35
-1e+20
146
0.0
 13
0.0
 23
0.0
 33
0.0
 16
1.0
 26
0.0
 36
0.0
 17
0.0
 27
1.0
 37
0.0
 76
1
330
17
  0
LAYOUT
  5
1E
330
D
100
AcDbPlotSettings
  1

  4
A3
  6

 40
7.5
 41
20.0
 42
7.5
 43
20.0
 44
420.0
 45
297.0
 46
0.0
 47
0.0
 48
0.0
 49
0.0
140
0.0
141
0.0
142
1.0
143
1.0
 70
0
 72
1
 73
0
 74
5
  7

 75
16
 76
0
 77
2
 78
300
147
1.0
148
0.0
149
0.0
100
AcDbLayout
  1
Layout1
 70
1
 71
1
 10
0.0
 20
0.0
 11
420.0
 21
297.0
 12
0.0
 22
0.0
 32
0.0
 14
1e+20
 24
1e+20
 34
1e+20
 15
-1e+20
 25
-1e+20
 35
-1e+20
146
0.0
 13
0.0
 23
0.0
 33
0.0
 16
1.0
 26
0.0
 36
0.0
 17
0.0
 27
1.0
 37
0.0
 76
1
330
1B
  0
MATERIAL
  5
1F
102
{ACAD_REACTORS
330
E
102
}
330
E
100
AcDbMaterial
  1
ByBlock
  2

 70
0
 40
1.0
 71
1
 41
1.0
 91
-1023410177
 42
1.0
 72
1
  3

 73
1
 74
1
 75
1
 44
0.5
 73
0
 45
1.0
 46
1.0
 77
1
  4

 78
1
 79
1
170
1
 48
1.0
171
1
  6

172
1
173
1
174
1
140
1.0
141
1.0
175
1
  7

176
1
177
1
178
1
143
1.0
179
1
  8

270
1
271
1
272
1
145
1.0
146
1.0
273
1
  9

274
1
275
1
276
1
 42
1.0
 72
1
  3

 73
1
 74
1
 75
1
 94
63
  0
MATERIAL
  5
20
102
{ACAD_REACTORS
330
E
102
}
330
E
100
AcDbMaterial
  1
ByLayer
  2

 70
0
 40
1.0
 71
1
 41
1.0
 91
-1023410177
 42
1.0
 72
1
  3

 73
1
 74
1
 75
1
 44
0.5
 73
0
 45
1.0
 46
1.0
 77
1
  4

 78
1
 79
1
170
1
 48
1.0
171
1
  6

172
1
173
1
174
1
140
1.0
141
1.0
175
1
  7

176
1
177
1
178
1
143
1.0
179
1
  8

270
1
271
1
272
1
145
1.0
146
1.0
273
1
  9

274
1
275
1
276
1
 42
1.0
 72
1
  3

 73
1
 74
1
 75
1
 94
63
  0
MATERIAL
  5
21
102
{ACAD_REACTORS
330
E
102
}
330
E
100
AcDbMaterial
  1
Global
  2

 70
0
 40
1.0
 71
1
 41
1.0
 91
-1023410177
 42
1.0
 72
1
  3

 73
1
 74
1
 75
1
 44
0.5
 73
0
 45
1.0
 46
1.0
 77
1
  4

 78
1
 79
1
170
1
 48
1.0
171
1
  6

172
1
173
1
174
1
140
1.0
141
1.0
175
1
  7

176
1
177
1
178
1
143
1.0
179
1
  8

270
1
271
1
272
1
145
1.0
146
1.0
273
1
  9

274
1
275
1
276
1
 42
1.0
 72
1
  3

 73
1
 74
1
 75
1
 94
63
  0
MLINESTYLE
  5
22
102
{ACAD_REACTORS
330
10
102
}
330
10
100
AcDbMlineStyle
  2
Standard
 70
0
  3

 62
256
 51
90.0
 52
90.0
 71
2
 49
0.5
 62
256
  6
BYLAYER
 49
-0.5
 62
256
  6
BYLAYER
  0
MLEADERSTYLE
  5
2C
102
{ACAD_REACTORS
330
F
102
}
330
F
100
AcDbMLeaderStyle
179
2
170
2
171
1
172
0
 90
2
 40
0.0
 41
0.0
173
1
 91
-1056964608
 92
-2
290
1
 42
2.0
291
1
 43
8.0
  3
Standard
 44
4.0
300

342
29
174
1
175
1
176
0
178
1
 93
-1056964608
 45
4.0
292
0
297
0
 46
4.0
 94
-1056964608
 47
1.0
 49
1.0
140
1.0
294
1
141
0.0
177
0
142
1.0
295
0
296
0
143
3.75
271
0
272
9
273
9
  0
DICTIONARY
  5
2D
330
A
100
AcDbDictionary
280
1
281
1
  3
CREATED_BY_EZDXF
350
2E
  3
WRITTEN_BY_EZDXF
350
8D
  0
DICTIONARYVAR
  5
2E
330
2D
100
DictionaryVariables
280
0
  1
1.4.4 @ 2026-09-23T14:03:10.915759+00:00
  0
DICTIONARYVAR
  5
8D
330
2D
100
DictionaryVariables
280
0
  1
1.4.4 @ 2026-09-23T14:03:10.947006+00:00
  0
ENDSEC
  0
EOF
