  0
SECTION
  2
HEADER
  9
$ACADVER
  1
AC1032
  9
$ACADMAINTVER
 90
4
  9
$DWGCODEPAGE
  3
ANSI_1252
  9
$LASTSAVEDBY
  1
ezdxf
  9
$REQUIREDVERSIONS
160
0
  9
$INSBASE
 10
0.0
 20
0.0
 30
0.0
  9
$EXTMIN
 10
1e+20
 20
1e+20
 30
1e+20
  9
$EXTMAX
 10
-1e+20
 20
-1e+20
 30
-1e+20
  9
$LIMMIN
 10
0.0
 20
0.0
  9
$LIMMAX
 10
420.0
 20
297.0
  9
$ORTHOMODE
 70
0
  9
$REGENMODE
 70
1
  9
$FILLMODE
 70
1
  9
$QTEXTMODE
 70
0
  9
$MIRRTEXT
 70
1
  9
$LTSCALE
 40
1.0
  9
$ATTMODE
 70
1
  9
$TEXTSIZE
 40
2.5
  9
$TRACEWID
 40
1.0
  9
$TEXTSTYLE
  7
Standard
  9
$CLAYER
  8
0
  9
$CELTYPE
  6
ByLayer
  9
$CECOLOR
 62
256
  9
$CELTSCALE
 40
1.0
  9
$DISPSILH
 70
0
  9
$DIMSCALE
 40
1.0
  9
$DIMASZ
 40
2.5
  9
$DIMEXO
 40
0.625
  9
$DIMDLI
 40
3.75
  9
$DIMRND
 40
0.0
  9
$DIMDLE
 40
0.0
  9
$DIMEXE
 40
1.25
  9
$DIMTP
 40
0.0
  9
$DIMTM
 40
0.0
  9
$DIMTXT
 40
2.5
  9
$DIMCEN
 40
2.5
  9
$DIMTSZ
 40
0.0
  9
$DIMTOL
 70
0
  9
$DIMLIM
 70
0
  9
$DIMTIH
 70
0
  9
$DIMTOH
 70
0
  9
$DIMSE1
 70
0
  9
$DIMSE2
 70
0
  9
$DIMTAD
 70
1
  9
$DIMZIN
 70
8
  9
$DIMBLK
  1

  9
$DIMASO
 70
1
  9
$DIMSHO
 70
1
  9
$DIMPOST
  1

  9
$DIMAPOST
  1

  9
$DIMALT
 70
0
  9
$DIMALTD
 70
3
  9
$DIMALTF
 40
0.03937007874
  9
$DIMLFAC
 40
1.0
  9
$DIMTOFL
 70
1
  9
$DIMTVP
 40
0.0
  9
$DIMTIX
 70
0
  9
$DIMSOXD
 70
0
  9
$DIMSAH
 70
0
  9
$DIMBLK1
  1

  9
$DIMBLK2
  1

  9
$DIMSTYLE
  2
ISO-25
  9
$DIMCLRD
 70
0
  9
$DIMCLRE
 70
0
  9
$DIMCLRT
 70
0
  9
$DIMTFAC
 40
1.0
  9
$DIMGAP
 40
0.625
  9
$DIMJUST
 70
0
  9
$DIMSD1
 70
0
  9
$DIMSD2
 70
0
  9
$DIMTOLJ
 70
0
  9
$DIMTZIN
 70
8
  9
$DIMALTZ
 70
0
  9
$DIMALTTZ
 70
0
  9
$DIMUPT
 70
0
  9
$DIMDEC
 70
2
  9
$DIMTDEC
 70
2
  9
$DIMALTU
 70
2
  9
$DIMALTTD
 70
3
  9
$DIMTXSTY
  7
Standard
  9
$DIMAUNIT
 70
0
  9
$DIMADEC
 70
0
  9
$DIMALTRND
 40
0.0
  9
$DIMAZIN
 70
0
  9
$DIMDSEP
 70
44
  9
$DIMATFIT
 70
3
  9
$DIMFRAC
 70
0
  9
$DIMLDRBLK
  1

  9
$DIMLUNIT
 70
2
  9
$DIMLWD
 70
-2
  9
$DIMLWE
 70
-2
  9
$DIMTMOVE
 70
0
  9
$DIMFXL
 40
1.0
  9
$DIMFXLON
 70
0
  9
$DIMJOGANG
 40
0.785398163397
  9
$DIMTFILL
 70
0
  9
$DIMTFILLCLR
 70
0
  9
$DIMARCSYM
 70
0
  9
$DIMLTYPE
  6

  9
$DIMLTEX1
  6

  9
$DIMLTEX2
  6

  9
$DIMTXTDIRECTION
 70
0
  9
$LUNITS
 70
2
  9
$LUPREC
 70
4
  9
$SKETCHINC
 40
1.0
  9
$FILLETRAD
 40
10.0
  9
$AUNITS
 70
0
  9
$AUPREC
 70
2
  9
$MENU
  1
.
  9
$ELEVATION
 40
0.0
  9
$PELEVATION
 40
0.0
  9
$THICKNESS
 40
0.0
  9
$LIMCHECK
 70
0
  9
$CHAMFERA
 40
0.0
  9
$CHAMFERB
 40
0.0
  9
$CHAMFERC
 40
0.0
  9
$CHAMFERD
 40
0.0
  9
$SKPOLY
 70
0
  9
$TDCREATE
 40
2461308.5684375
  9
$TDUCREATE
 40
2458532.153996898
  9
$TDUPDATE
 40
2461308.5684375
  9
$TDUUPDATE
 40
2458532.1544311
  9
$TDINDWG
 40
0.0
  9
$TDUSRTIMER
 40
0.0
  9
$USRTIMER
 70
1
  9
$ANGBASE
 50
0.0
  9
$ANGDIR
 70
0
  9
$PDMODE
 70
0
  9
$PDSIZE
 40
0.0
  9
$PLINEWID
 40
0.0
  9
$SPLFRAME
 70
0
  9
$SPLINETYPE
 70
6
  9
$SPLINESEGS
 70
8
  9
$HANDSEED
  5
4E4
  9
$SURFTAB1
 70
6
  9
$SURFTAB2
 70
6
  9
$SURFTYPE
 70
6
  9
$SURFU
 70
6
  9
$SURFV
 70
6
  9
$UCSBASE
  2

  9
$UCSNAME
  2

  9
$UCSORG
 10
0.0
 20
0.0
 30
0.0
  9
$UCSXDIR
 10
1.0
 20
0.0
 30
0.0
  9
$UCSYDIR
 10
0.0
 20
1.0
 30
0.0
  9
$UCSORTHOREF
  2

  9
$UCSORTHOVIEW
 70
0
  9
$UCSORGTOP
 10
0.0
 20
0.0
 30
0.0
  9
$UCSORGBOTTOM
 10
0.0
 20
0.0
 30
0.0
  9
$UCSORGLEFT
 10
0.0
 20
0.0
 30
0.0
  9
$UCSORGRIGHT
 10
0.0
 20
0.0
 30
0.0
  9
$UCSORGFRONT
 10
0.0
 20
0.0
 30
0.0
  9
$UCSORGBACK
 10
0.0
 20
0.0
 30
0.0
  9
$PUCSBASE
  2

  9
$PUCSNAME
  2

  9
$PUCSORG
 10
0.0
 20
0.0
 30
0.0
  9
$PUCSXDIR
 10
1.0
 20
0.0
 30
0.0
  9
$PUCSYDIR
 10
0.0
 20
1.0
 30
0.0
  9
$PUCSORTHOREF
  2

  9
$PUCSORTHOVIEW
 70
0
  9
$PUCSORGTOP
 10
0.0
 20
0.0
 30
0.0
  9
$PUCSORGBOTTOM
 10
0.0
 20
0.0
 30
0.0
  9
$PUCSORGLEFT
 10
0.0
 20
0.0
 30
0.0
  9
$PUCSORGRIGHT
 10
0.0
 20
0.0
 30
0.0
  9
$PUCSORGFRONT
 10
0.0
 20
0.0
 30
0.0
  9
$PUCSORGBACK
 10
0.0
 20
0.0
 30
0.0
  9
$USERI1
 70
0
  9
$USERI2
 70
0
  9
$USERI3
 70
0
  9
$USERI4
 70
0
  9
$USERI5
 70
0
  9
$USERR1
 40
0.0
  9
$USERR2
 40
0.0
  9
$USERR3
 40
0.0
  9
$USERR4
 40
0.0
  9
$USERR5
 40
0.0
  9
$WORLDVIEW
 70
1
  9
$SHADEDGE
 70
3
  9
$SHADEDIF
 70
70
  9
$TILEMODE
 70
1
  9
$MAXACTVP
 70
64
  9
$PINSBASE
 10
0.0
 20
0.0
 30
0.0
  9
$PLIMCHECK
 70
0
  9
$PEXTMIN
 10
1e+20
 20
1e+20
 30
1e+20
  9
$PEXTMAX
 10
-1e+20
 20
-1e+20
 30
-1e+20
  9
$PLIMMIN
 10
0.0
 20
0.0
  9
$PLIMMAX
 10
420.0
 20
297.0
  9
$UNITMODE
 70
0
  9
$VISRETAIN
 70
1
  9
$PLINEGEN
 70
0
  9
$PSLTSCALE
 70
1
  9
$TREEDEPTH
 70
3020
  9
$CMLSTYLE
  2
Standard
  9
$CMLJUST
 70
0
  9
$CMLSCALE
 40
20.0
  9
$PROXYGRAPHICS
 70
1
  9
$MEASUREMENT
 70
1
  9
$CELWEIGHT
370
-1
  9
$ENDCAPS
280
0
  9
$JOINSTYLE
280
0
  9
$LWDISPLAY
290
0
  9
$INSUNITS
 70
4
  9
$HYPERLINKBASE
  1

  9
$STYLESHEET
  1

  9
$XEDIT
290
1
  9
$CEPSNTYPE
380
0
  9
$PSTYLEMODE
290
1
  9
$FINGERPRINTGUID
  2
{92DAB3D7-FF14-415D-BB45-A8C507340BC8}
  9
$VERSIONGUID
  2
{600EE8E3-2E97-4BC6-ADFD-7A29CBDDB6CB}
  9
$EXTNAMES
290
1
  9
$PSVPSCALE
 40
0.0
  9
$OLESTARTUP
290
0
  9
$SORTENTS
280
127
  9
$INDEXCTL
280
0
  9
$HIDETEXT
280
1
  9
$XCLIPFRAME
280
1
  9
$HALOGAP
280
0
  9
$OBSCOLOR
 70
257
  9
$OBSLTYPE
280
0
  9
$INTERSECTIONDISPLAY
280
0
  9
$INTERSECTIONCOLOR
 70
257
  9
$DIMASSOC
280
2
  9
$PROJECTNAME
  1

  9
$CAMERADISPLAY
290
0
  9
$LENSLENGTH
 40
50.0
  9
$CAMERAHEIGHT
 40
0.0
  9
$STEPSPERSEC
 40
24.0
  9
$STEPSIZE
 40
100.0
  9
$3DDWFPREC
 40
2.0
  9
$PSOLWIDTH
 40
0.005
  9
$PSOLHEIGHT
 40
0.08
  9
$LOFTANG1
 40
1.570796326795
  9
$LOFTANG2
 40
1.570796326795
  9
$LOFTMAG1
 40
0.0
  9
$LOFTMAG2
 40
0.0
  9
$LOFTPARAM
 70
7
  9
$LOFTNORMALS
280
1
  9
$LATITUDE
 40
37.795
  9
$LONGITUDE
 40
-122.394
  9
$NORTHDIRECTION
 40
0.0
  9
$TIMEZONE
 70
-8000
  9
$LIGHTGLYPHDISPLAY
280
1
  9
$TILEMODELIGHTSYNCH
280
1
  9
$CMATERIAL
347
20
  9
$SOLIDHIST
280
0
  9
$SHOWHIST
280
1
  9
$DWFFRAME
280
2
  9
$DGNFRAME
280
2
  9
$REALWORLDSCALE
290
1
  9
$INTERFERECOLOR
 62
256
  9
$CSHADOW
280
0
  9
$SHADOWPLANELOCATION
 40
0.0
  0
ENDSEC
  0
SECTION
  2
CLASSES
  0
CLASS
  1
ACDBDICTIONARYWDFLT
  2
AcDbDictionaryWithDefault
  3
ObjectDBX Classes
 90
0
 91
0
280
0
281
0
  0
CLASS
  1
SUN
  2
AcDbSun
  3
SCENEOE
 90
1153
 91
0
280
0
281
0
  0
CLASS
  1
VISUALSTYLE
  2
AcDbVisualStyle
  3
ObjectDBX Classes
 90
4095
 91
0
280
0
281
0
  0
CLASS
  1
MATERIAL
  2
AcDbMaterial
  3
ObjectDBX Classes
 90
1153
 91
0
280
0
281
0
  0
CLASS
  1
SCALE
  2
AcDbScale
  3
ObjectDBX Classes
 90
1153
 91
0
280
0
281
0
  0
CLASS
  1
TABLESTYLE
  2
AcDbTableStyle
  3
ObjectDBX Classes
 90
4095
 91
0
280
0
281
0
  0
CLASS
  1
MLEADERSTYLE
  2
AcDbMLeaderStyle
  3
ACDB_MLEADERSTYLE_CLASS
 90
4095
 91
0
280
0
281
0
  0
CLASS
  1
DICTIONARYVAR
  2
AcDbDictionaryVar
  3
ObjectDBX Classes
 90
0
 91
0
280
0
281
0
  0
CLASS
  1
CELLSTYLEMAP
  2
AcDbCellStyleMap
  3
ObjectDBX Classes
 90
1152
 91
0
280
0
281
0
  0
CLASS
  1
MENTALRAYRENDERSETTINGS
  2
AcDbMentalRayRenderSettings
  3
SCENEOE
 90
1024
 91
0
280
0
281
0
  0
CLASS
  1
ACDBDETAILVIEWSTYLE
  2
AcDbDetailViewStyle
  3
ObjectDBX Classes
 90
1025
 91
0
280
0
281
0
  0
CLASS
  1
ACDBSECTIONVIEWSTYLE
  2
AcDbSectionViewStyle
  3
ObjectDBX Classes
 90
1025
 91
0
280
0
281
0
  0
CLASS
  1
RASTERVARIABLES
  2
AcDbRasterVariables
  3
ISM
 90
0
 91
0
280
0
281
0
  0
CLASS
  1
ACDBPLACEHOLDER
  2
AcDbPlaceHolder
  3
ObjectDBX Classes
 90
0
 91
0
280
0
281
0
  0
CLASS
  1
LAYOUT
  2
AcDbLayout
  3
ObjectDBX Classes
 90
0
 91
0
280
0
281
0
  0
ENDSEC
  0
SECTION
  2
TABLES
  0
TABLE
  2
VPORT
  5
8
330
0
100
AcDbSymbolTable
 70
1
  0
VPORT
  5
23
330
8
100
AcDbSymbolTableRecord
100
AcDbViewportTableRecord
  2
*Active
 70
0
 10
0.0
 20
0.0
 11
1.0
 21
1.0
 12
0.0
 22
0.0
 13
0.0
 23
0.0
 14
0.5
 24
0.5
 15
0.5
 25
0.5
 16
0.0
 26
0.0
 36
1.0
 17
0.0
 27
0.0
 37
0.0
 40
1000.0
 41
1.34
 42
50.0
 43
0.0
 44
0.0
 50
0.0
 51
0.0
 71
0
 72
1000
 73
1
 74
3
 75
0
 76
0
 77
0
 78
0
281
0
 65
0
146
0.0
  0
ENDTAB
  0
TABLE
  2
LTYPE
  5
2
330
0
100
AcDbSymbolTable
 70
3
  0
LTYPE
  5
24
330
2
100
AcDbSymbolTableRecord
100
AcDbLinetypeTableRecord
  2
ByBlock
 70
0
  3

 72
65
 73
0
 40
0.0
  0
LTYPE
  5
25
330
2
100
AcDbSymbolTableRecord
100
AcDbLinetypeTableRecord
  2
ByLayer
 70
0
  3

 72
65
 73
0
 40
0.0
  0
LTYPE
  5
26
330
2
100
AcDbSymbolTableRecord
100
AcDbLinetypeTableRecord
  2
Continuous
 70
0
  3

 72
65
 73
0
 40
0.0
  0
ENDTAB
  0
TABLE
  2
LAYER
  5
1
330
0
100
AcDbSymbolTable
 70
4
  0
LAYER
  5
27
330
1
100
AcDbSymbolTableRecord
100
AcDbLayerTableRecord
  2
0
 70
0
 62
7
  6
Continuous
370
-3
390
13
347
21
  0
LAYER
  5
28
330
1
100
AcDbSymbolTableRecord
100
AcDbLayerTableRecord
  2
Defpoints
 70
0
 62
7
  6
Continuous
290
0
370
-3
390
13
347
21
  0
LAYER
  5
2A4
330
1
100
AcDbSymbolTableRecord
100
AcDbLayerTableRecord
  2
CNC
 70
0
 62
7
  6
Continuous
370
-3
390
13
347
21
  0
LAYER
  5
2A5
330
1
100
AcDbSymbolTableRecord
100
AcDbLayerTableRecord
  2
DIM
 70
0
 62
253
  6
Continuous
370
-3
390
13
347
21
  0
ENDTAB
  0
TABLE
  2
STYLE
  5
5
330
0
100
AcDbSymbolTable
 70
2
  0
STYLE
  5
29
330
5
100
AcDbSymbolTableRecord
100
AcDbTextStyleTableRecord
  2
Standard
 70
0
 40
0.0
 41
1.0
 50
0.0
 71
0
 42
2.5
  3
txt
  4

  0
STYLE
  5
2A6
330
5
100
AcDbSymbolTableRecord
100
AcDbTextStyleTableRecord
  2
Arial
 70
0
 40
0.0
 41
1.0
 50
0.0
 71
0
 42
0.2
  3
arial.ttf
  4

  0
ENDTAB
  0
TABLE
  2
VIEW
  5
7
330
0
100
AcDbSymbolTable
 70
0
  0
ENDTAB
  0
TABLE
  2
UCS
  5
6
330
0
100
AcDbSymbolTable
 70
0
  0
ENDTAB
  0
TABLE
  2
APPID
  5
3
330
0
100
AcDbSymbolTable
 70
3
  0
APPID
  5
2A
330
3
100
AcDbSymbolTableRecord
100
AcDbRegAppTableRecord
  2
ACAD
 70
0
  0
APPID
  5
2AB
330
3
100
AcDbSymbolTableRecord
100
AcDbRegAppTableRecord
  2
HATCHBACKGROUNDCOLOR
 70
0
  0
APPID
  5
2AC
330
3
100
AcDbSymbolTableRecord
100
AcDbRegAppTableRecord
  2
EZDXF
 70
0
  0
ENDTAB
  0
TABLE
  2
DIMSTYLE
  5
4
330
0
100
AcDbSymbolTable
 70
4
100
AcDbDimStyleTable
  0
DIMSTYLE
105
2B
330
4
100
AcDbSymbolTableRecord
100
AcDbDimStyleTableRecord
  2
Standard
 70
0
 40
1.0
 41
2.5
 42
0.625
 43
3.75
 44
1.25
 45
0.0
 46
0.0
 47
0.0
 48
0.0
 49
2.5
140
2.5
141
2.5
142
0.0
143
0.03937007874
144
1.0
145
0.0
146
1.0
147
0.625
148
0.0
 69
0
 70
0
 71
0
 72
0
 73
0
 74
0
 75
0
 76
0
 77
1
 78
8
 79
3
170
0
171
3
172
1
173
0
174
0
175
0
176
0
177
0
178
0
179
2
271
2
272
2
273
2
274
3
275
0
276
0
277
2
278
44
279
0
280
0
281
0
282
0
283
0
284
8
285
0
286
0
288
0
289
3
290
0
371
-2
372
-2
  0
DIMSTYLE
105
2A1
330
4
100
AcDbSymbolTableRecord
100
AcDbDimStyleTableRecord
  2
Dim-33
 70
0
 40
1.0
 41
12.0
 42
25.0
 43
3.75
 44
15.0
 45
0.0
 46
0.0
 47
0.0
 48
0.0
 49
2.5
140
33.0
141
10.0
142
0.0
143
0.03937007874016
144
1.0
145
0.0
146
1.0
147
15.0
148
0.0
 69
0
 70
0
 71
0
 72
0
 73
0
 74
0
 75
0
 76
0
 77
1
 78
8
 79
3
170
0
171
3
172
1
173
0
174
0
175
0
176
5
177
5
178
3
179
2
271
0
272
0
273
2
274
3
275
0
276
0
277
2
278
44
279
0
280
0
281
0
282
0
283
0
284
8
285
0
286
0
288
0
289
3
290
0
340
29
341
1DA
342
3A
345
25
346
25
347
25
371
9
372
9
  0
DIMSTYLE
105
2A2
330
4
100
AcDbSymbolTableRecord
100
AcDbDimStyleTableRecord
  2
Dim-25
 70
0
 40
1.0
 41
8.0
 42
15.0
 43
3.75
 44
10.0
 45
0.0
 46
0.0
 47
0.0
 48
0.0
 49
2.5
140
25.0
141
10.0
142
0.0
143
0.03937007874016
144
1.0
145
0.0
146
1.0
147
10.0
148
0.0
 69
0
 70
0
 71
0
 72
0
 73
0
 74
0
 75
0
 76
0
 77
1
 78
8
 79
3
170
0
171
3
172
1
173
0
174
0
175
0
176
5
177
5
178
3
179
2
271
0
272
0
273
2
274
3
275
0
276
0
277
2
278
44
279
0
280
0
281
0
282
0
283
0
284
8
285
0
286
0
288
0
289
3
290
0
340
29
341
3A
342
3A
345
25
346
25
347
25
371
9
372
9
  0
DIMSTYLE
105
2A3
330
4
100
AcDbSymbolTableRecord
100
AcDbDimStyleTableRecord
  2
CNC
 70
0
 40
1.0
 41
5.0
 42
15.0
 43
3.75
 44
5.0
 45
0.0
 46
0.0
 47
0.0
 48
0.0
 49
2.5
140
50.0
141
10.0
142
0.0
143
0.03937007874016
144
1.0
145
0.0
146
1.0
147
10.0
148
0.0
 69
0
 70
0
 71
0
 72
0
 73
0
 74
0
 75
0
 76
0
 77
1
 78
8
 79
3
170
0
171
3
172
1
173
0
174
0
175
0
176
5
177
5
178
3
179
2
271
0
272
0
273
2
274
3
275
0
276
0
277
2
278
44
279
0
280
0
281
0
282
0
283
0
284
8
285
0
286
0
288
0
289
3
290
0
340
29
341
2A7
342
1DA
345
25
346
25
347
25
371
9
372
9
  0
ENDTAB
  0
TABLE
  2
BLOCK_RECORD
  5
9
330
0
100
AcDbSymbolTable
 70
42
  0
BLOCK_RECORD
  5
17
330
9
100
AcDbSymbolTableRecord
100
AcDbBlockTableRecord
  2
*Model_Space
340
1A
 70
0
280
1
281
0
  0
BLOCK_RECORD
  5
1B
330
9
100
AcDbSymbolTableRecord
100
AcDbBlockTableRecord
  2
*Paper_Space
340
1E
 70
0
280
1
281
0
  0
BLOCK_RECORD
  5
3A
330
9
100
AcDbSymbolTableRecord
100
AcDbBlockTableRecord
  2
_Oblique
340
0
 70
0
280
1
281
0
  0
BLOCK_RECORD
  5
1DA
330
9
100
AcDbSymbolTableRecord
100
AcDbBlockTableRecord
  2
_Open30
340
0
 70
0
280
1
281
0
  0
BLOCK_RECORD
  5
26E
330
9
100
AcDbSymbolTableRecord
100
AcDbBlockTableRecord
  2
ovan8.5x20
340
0
 70
0
280
1
281
0
  0
BLOCK_RECORD
  5
275
330
9
100
AcDbSymbolTableRecord
100
AcDbBlockTableRecord
  2
f3daunguoc
340
0
 70
0
280
1
281
0
  0
BLOCK_RECORD
  5
279
330
9
100
AcDbSymbolTableRecord
100
AcDbBlockTableRecord
  2
KHUNG CHUẨN
340
0
 70
0
280
1
281
0
  0
BLOCK_RECORD
  5
2A7
330
9
100
AcDbSymbolTableRecord
100
AcDbBlockTableRecord
  2
_ArchTick
340
0
 70
0
280
1
281
0
  0
BLOCK_RECORD
  5
336
330
9
100
AcDbSymbolTableRecord
100
AcDbBlockTableRecord
  2
*D1
340
0
 70
0
280
1
281
0
  0
BLOCK_RECORD
  5
342
330
9
100
AcDbSymbolTableRecord
100
AcDbBlockTableRecord
  2
*D2
340
0
 70
0
280
1
281
0
  0
BLOCK_RECORD
  5
34E
330
9
100
AcDbSymbolTableRecord
100
AcDbBlockTableRecord
  2
*D3
340
0
 70
0
280
1
281
0
  0
BLOCK_RECORD
  5
35A
330
9
100
AcDbSymbolTableRecord
100
AcDbBlockTableRecord
  2
*D4
340
0
 70
0
280
1
281
0
  0
BLOCK_RECORD
  5
367
330
9
100
AcDbSymbolTableRecord
100
AcDbBlockTableRecord
  2
*D5
340
0
 70
0
280
1
281
0
  0
BLOCK_RECORD
  5
374
330
9
100
AcDbSymbolTableRecord
100
AcDbBlockTableRecord
  2
*D6
340
0
 70
0
280
1
281
0
  0
BLOCK_RECORD
  5
382
330
9
100
AcDbSymbolTableRecord
100
AcDbBlockTableRecord
  2
*D7
340
0
 70
0
280
1
281
0
  0
BLOCK_RECORD
  5
38E
330
9
100
AcDbSymbolTableRecord
100
AcDbBlockTableRecord
  2
*D8
340
0
 70
0
280
1
281
0
  0
BLOCK_RECORD
  5
39C
330
9
100
AcDbSymbolTableRecord
100
AcDbBlockTableRecord
  2
*D9
340
0
 70
0
280
1
281
0
  0
BLOCK_RECORD
  5
3A8
330
9
100
AcDbSymbolTableRecord
100
AcDbBlockTableRecord
  2
*D10
340
0
 70
0
280
1
281
0
  0
BLOCK_RECORD
  5
3B6
330
9
100
AcDbSymbolTableRecord
100
AcDbBlockTableRecord
  2
*D11
340
0
 70
0
280
1
281
0
  0
BLOCK_RECORD
  5
3C4
330
9
100
AcDbSymbolTableRecord
100
AcDbBlockTableRecord
  2
*D12
340
0
 70
0
280
1
281
0
  0
BLOCK_RECORD
  5
3D0
330
9
100
AcDbSymbolTableRecord
100
AcDbBlockTableRecord
  2
*D13
340
0
 70
0
280
1
281
0
  0
BLOCK_RECORD
  5
3DC
330
9
100
AcDbSymbolTableRecord
100
AcDbBlockTableRecord
  2
*D14
340
0
 70
0
280
1
281
0
  0
BLOCK_RECORD
  5
3E8
330
9
100
AcDbSymbolTableRecord
100
AcDbBlockTableRecord
  2
*D15
340
0
 70
0
280
1
281
0
  0
BLOCK_RECORD
  5
3F4
330
9
100
AcDbSymbolTableRecord
100
AcDbBlockTableRecord
  2
*D16
340
0
 70
0
280
1
281
0
  0
BLOCK_RECORD
  5
400
330
9
100
AcDbSymbolTableRecord
100
AcDbBlockTableRecord
  2
*D17
340
0
 70
0
280
1
281
0
  0
BLOCK_RECORD
  5
40C
330
9
100
AcDbSymbolTableRecord
100
AcDbBlockTableRecord
  2
*D18
340
0
 70
0
280
1
281
0
  0
BLOCK_RECORD
  5
418
330
9
100
AcDbSymbolTableRecord
100
AcDbBlockTableRecord
  2
*D19
340
0
 70
0
280
1
281
0
  0
BLOCK_RECORD
  5
426
330
9
100
AcDbSymbolTableRecord
100
AcDbBlockTableRecord
  2
*D20
340
0
 70
0
280
1
281
0
  0
BLOCK_RECORD
  5
433
330
9
100
AcDbSymbolTableRecord
100
AcDbBlockTableRecord
  2
*D21
340
0
 70
0
280
1
281
0
  0
BLOCK_RECORD
  5
43F
330
9
100
AcDbSymbolTableRecord
100
AcDbBlockTableRecord
  2
*D22
340
0
 70
0
280
1
281
0
  0
BLOCK_RECORD
  5
44B
330
9
100
AcDbSymbolTableRecord
100
AcDbBlockTableRecord
  2
*D23
340
0
 70
0
280
1
281
0
  0
BLOCK_RECORD
  5
457
330
9
100
AcDbSymbolTableRecord
100
AcDbBlockTableRecord
  2
*D24
340
0
 70
0
280
1
281
0
  0
BLOCK_RECORD
  5
464
330
9
100
AcDbSymbolTableRecord
100
AcDbBlockTableRecord
  2
*D25
340
0
 70
0
280
1
281
0
  0
BLOCK_RECORD
  5
471
330
9
100
AcDbSymbolTableRecord
100
AcDbBlockTableRecord
  2
*D26
340
0
 70
0
280
1
281
0
  0
BLOCK_RECORD
  5
47E
330
9
100
AcDbSymbolTableRecord
100
AcDbBlockTableRecord
  2
*D27
340
0
 70
0
280
1
281
0
  0
BLOCK_RECORD
  5
48A
330
9
100
AcDbSymbolTableRecord
100
AcDbBlockTableRecord
  2
*D28
340
0
 70
0
280
1
281
0
  0
BLOCK_RECORD
  5
496
330
9
100
AcDbSymbolTableRecord
100
AcDbBlockTableRecord
  2
*D29
340
0
 70
0
280
1
281
0
  0
BLOCK_RECORD
  5
4A2
330
9
100
AcDbSymbolTableRecord
100
AcDbBlockTableRecord
  2
*D30
340
0
 70
0
280
1
281
0
  0
BLOCK_RECORD
  5
4AE
330
9
100
AcDbSymbolTableRecord
100
AcDbBlockTableRecord
  2
*D31
340
0
 70
0
280
1
281
0
  0
BLOCK_RECORD
  5
4BE
330
9
100
AcDbSymbolTableRecord
100
AcDbBlockTableRecord
  2
*D32
340
0
 70
0
280
1
281
0
  0
BLOCK_RECORD
  5
4CC
330
9
100
AcDbSymbolTableRecord
100
AcDbBlockTableRecord
  2
*D33
340
0
 70
0
280
1
281
0
  0
BLOCK_RECORD
  5
4D8
330
9
100
AcDbSymbolTableRecord
100
AcDbBlockTableRecord
  2
*D34
340
0
 70
0
280
1
281
0
  0
ENDTAB
  0
ENDSEC
  0
SECTION
  2
BLOCKS
  0
BLOCK
  5
18
330
17
100
AcDbEntity
  8
0
100
AcDbBlockBegin
  2
*Model_Space
 70
0
 10
0.0
 20
0.0
 30
0.0
  3
*Model_Space
  1

  0
ENDBLK
  5
19
330
17
100
AcDbEntity
  8
0
100
AcDbBlockEnd
  0
BLOCK
  5
1C
330
1B
100
AcDbEntity
  8
0
100
AcDbBlockBegin
  2
*Paper_Space
 70
0
 10
0.0
 20
0.0
 30
0.0
  3
*Paper_Space
  1

  0
ENDBLK
  5
1D
330
1B
100
AcDbEntity
  8
0
100
AcDbBlockEnd
  0
BLOCK
  5
3B
330
3A
100
AcDbEntity
  8
0
100
AcDbBlockBegin
  2
_Oblique
 70
0
 10
0.0
 20
0.0
 30
0.0
  3
_Oblique
  1

  0
LINE
  5
3D
330
3A
100
AcDbEntity
  8
0
  6
ByBlock
 62
0
370
-2
100
AcDbLine
 10
-0.5
 20
-0.5
 30
0.0
 11
0.5
 21
0.5
 31
0.0
  0
ENDBLK
  5
3C
330
3A
100
AcDbEntity
  8
0
100
AcDbBlockEnd
  0
BLOCK
  5
1DB
330
1DA
100
AcDbEntity
  8
0
100
AcDbBlockBegin
  2
_Open30
 70
0
 10
0.0
 20
0.0
 30
0.0
  3
_Open30
  1

  0
LINE
  5
1DD
330
1DA
100
AcDbEntity
  8
0
  6
ByBlock
 62
0
370
-2
100
AcDbLine
 10
-1.0
 20
0.26794919
 30
0.0
 11
0.0
 21
0.0
 31
0.0
  0
LINE
  5
1DE
330
1DA
100
AcDbEntity
  8
0
  6
ByBlock
 62
0
370
-2
100
AcDbLine
 10
0.0
 20
0.0
 30
0.0
 11
-1.0
 21
-0.26794919
 31
0.0
  0
LINE
  5
1DF
330
1DA
100
AcDbEntity
  8
0
  6
ByBlock
 62
0
370
-2
100
AcDbLine
 10
0.0
 20
0.0
 30
0.0
 11
-1.0
 21
0.0
 31
0.0
  0
ENDBLK
  5
1DC
330
1DA
100
AcDbEntity
  8
0
100
AcDbBlockEnd
  0
BLOCK
  5
26F
330
26E
100
AcDbEntity
  8
0
100
AcDbBlockBegin
  2
ovan8.5x20
 70
0
 10
0.0
 20
0.0
 30
0.0
  3
ovan8.5x20
  1

  0
ARC
  5
271
330
26E
100
AcDbEntity
  8
CNC
 62
2
370
-3
100
AcDbCircle
 10
-5.750000000007275
 20
0.0
 30
0.0
 40
4.25
100
AcDbArc
 50
90.0
 51
270.0
  0
ARC
  5
272
330
26E
100
AcDbEntity
  8
CNC
 62
2
370
-3
100
AcDbCircle
 10
5.749999999992724
 20
0.0
 30
0.0
 40
4.25
100
AcDbArc
 50
270.0
 51
90.0
  0
LINE
  5
273
330
26E
100
AcDbEntity
  8
CNC
 62
2
370
-3
100
AcDbLine
 10
5.749999999992724
 20
4.25
 30
0.0
 11
-5.750000000007275
 21
4.25
 31
0.0
  0
LINE
  5
274
330
26E
100
AcDbEntity
  8
CNC
 62
2
370
-3
100
AcDbLine
 10
-5.750000000007275
 20
-4.25
 30
0.0
 11
5.749999999992724
 21
-4.25
 31
0.0
  0
ENDBLK
  5
270
330
26E
100
AcDbEntity
  8
0
100
AcDbBlockEnd
  0
BLOCK
  5
276
330
275
100
AcDbEntity
  8
0
100
AcDbBlockBegin
  2
f3daunguoc
 70
0
 10
0.0
 20
0.0
 30
0.0
  3
f3daunguoc
  1

  0
CIRCLE
  5
278
330
275
100
AcDbEntity
  8
CNC
 62
2
370
-3
100
AcDbCircle
 10
0.0
 20
0.0
 30
0.0
 40
1.5
  0
ENDBLK
  5
277
330
275
100
AcDbEntity
  8
0
100
AcDbBlockEnd
  0
BLOCK
  5
27A
330
279
100
AcDbEntity
  8
0
100
AcDbBlockBegin
  2
KHUNG CHUẨN
 70
2
 10
0.0
 20
0.0
 30
0.0
  3
KHUNG CHUẨN
  1

  0
LWPOLYLINE
  5
27C
330
279
100
AcDbEntity
  8
0
 62
7
100
AcDbPolyline
 90
4
 70
1
 10
16919.24922090965
 20
-26555.15926993403
 10
19889.24922091007
 20
-26555.15926993403
 10
19889.24922091007
 20
-28655.15926993435
 10
16919.24922090965
 20
-28655.15926993435
  0
LINE
  5
27D
330
279
100
AcDbEntity
  8
0
 62
7
100
AcDbLine
 10
18939.24922090965
 20
-28595.15926993434
 30
0.0
 11
16919.24922090965
 21
-28595.15926993434
 31
0.0
  0
LINE
  5
27E
330
279
100
AcDbEntity
  8
0
 62
7
100
AcDbLine
 10
19889.24922091007
 20
-28535.15926993435
 30
0.0
 11
16919.24922090965
 21
-28535.15926993435
 31
0.0
  0
LINE
  5
27F
330
279
100
AcDbEntity
  8
0
 62
7
100
AcDbLine
 10
17239.24922090965
 20
-28535.15926993435
 30
0.0
 11
17239.24922090965
 21
-28595.15926993434
 31
0.0
  0
LINE
  5
280
330
279
100
AcDbEntity
  8
0
 62
7
100
AcDbLine
 10
17809.24922090965
 20
-28535.15926993435
 30
0.0
 11
17809.24922090965
 21
-28655.15926993435
 31
0.0
  0
LINE
  5
281
330
279
100
AcDbEntity
  8
0
 62
7
100
AcDbLine
 10
18599.24922090965
 20
-28535.15926993435
 30
0.0
 11
18599.24922090965
 21
-28655.15926993435
 31
0.0
  0
LINE
  5
282
330
279
100
AcDbEntity
  8
0
 62
7
100
AcDbLine
 10
18939.24922090965
 20
-28535.15926993435
 30
0.0
 11
18939.24922090965
 21
-28655.15926993435
 31
0.0
  0
LINE
  5
283
330
279
100
AcDbEntity
  8
0
 62
7
100
AcDbLine
 10
19779.24922091007
 20
-28535.15926993435
 30
0.0
 11
19779.24922091007
 21
-28655.15926993435
 31
0.0
  0
MTEXT
  5
284
330
279
100
AcDbEntity
  8
0
 62
2
100
AcDbMText
 10
16919.24922090965
 20
-28565.15926993435
 30
0.0
 40
20.0
 41
917.6339389950801
 46
60.00000000000113
 71
4
 72
5
  1
  Thiết kế :
  7
Arial
  0
MTEXT
  5
285
330
279
100
AcDbEntity
  8
0
 62
2
100
AcDbMText
 10
16919.24922090965
 20
-28625.15926993435
 30
0.0
 40
20.0
 41
917.6339389950801
 46
60.00000000000113
 71
4
 72
5
  1
  CNC :
  7
Arial
  0
MTEXT
  5
286
330
279
100
AcDbEntity
  8
0
 62
2
100
AcDbMText
 10
17239.24922090965
 20
-28565.15926993435
 30
0.0
 40
20.0
 41
917.6339389950801
 46
60.00000000000113
 71
4
 72
5
  1
  Khách hàng :
  7
Arial
  0
MTEXT
  5
287
330
279
100
AcDbEntity
  8
0
 62
2
100
AcDbMText
 10
17466.28942955682
 20
-28625.15926993435
 30
0.0
 40
20.0
 41
556.6509010178333
 46
60.00000000000113
 71
4
 72
5
  1
  Ngày giao:
  7
Arial
  0
MTEXT
  5
288
330
279
100
AcDbEntity
  8
0
 62
2
100
AcDbMText
 10
17809.24922090965
 20
-28565.15926993435
 30
0.0
 40
20.0
 41
917.6339389950801
 46
60.00000000000113
 71
4
 72
5
  1
  Tên sản phẩm :
  7
Arial
  0
MTEXT
  5
289
330
279
100
AcDbEntity
  8
0
 62
2
100
AcDbMText
 10
17809.24922090965
 20
-28625.15926993435
 30
0.0
 40
20.0
 41
917.6339389950801
 46
60.00000000000113
 71
4
 72
5
  1
  Kích thước :
  7
Arial
  0
MTEXT
  5
28A
330
279
100
AcDbEntity
  8
0
 62
2
100
AcDbMText
 10
18599.24922090965
 20
-28565.15926993435
 30
0.0
 40
20.0
 41
917.6339389950801
 46
60.00000000000113
 71
4
 72
5
  1
  Số lượng :
  7
Arial
  0
MTEXT
  5
28B
330
279
100
AcDbEntity
  8
0
 62
2
100
AcDbMText
 10
18599.24922090965
 20
-28625.15926993435
 30
0.0
 40
20.0
 41
917.6339389950801
 46
60.00000000000113
 71
4
 72
5
  1
  Loại tôn :
  7
Arial
  0
MTEXT
  5
28C
330
279
100
AcDbEntity
  8
0
 62
2
100
AcDbMText
 10
18993.40450252067
 20
-28595.15926993434
 30
0.0
 40
20.0
 41
108.3105632220314
 46
120.0000000000011
 71
5
 72
5
  1
Thông\Ptin :
  7
Arial
  0
MTEXT
  5
28D
330
279
100
AcDbEntity
  8
0
 62
2
100
AcDbMText
 10
19834.24922091007
 20
-28565.15926993435
 30
0.0
 40
20.0
 41
110.0000000000065
 46
60.00000000000113
 71
5
 72
5
  1
Tờ
  7
Arial
  0
LINE
  5
28E
330
279
100
AcDbEntity
  8
0
 62
7
100
AcDbLine
 10
19047.55978413167
 20
-28560.15926993435
 30
0.0
 11
19047.55978413167
 21
-28630.15926993435
 31
0.0
  0
MTEXT
  5
28F
330
279
100
AcDbEntity
  8
0
 62
2
100
AcDbMText
 10
18548.56684883467
 20
-28625.15926993435
 30
0.0
 40
20.0
 41
73.8305401162098
 46
60.00000000000113
 71
4
 72
5
  1
mm
  7
Arial
  0
MTEXT
  5
290
330
279
100
AcDbEntity
  8
0
 62
2
100
AcDbMText
 10
18897.93889973559
 20
-28565.15926993435
 30
0.0
 40
20.0
 41
63.51722131864801
 46
60.00000000000113
 71
4
 72
5
  1
cái
  7
Arial
  0
MTEXT
  5
291
330
279
100
AcDbEntity
  8
0
 62
2
100
AcDbMText
 10
18889.20613294428
 20
-28625.15926993435
 30
0.0
 40
20.0
 41
917.6339389950801
 46
60.00000000000113
 71
4
 72
5
  1
mm
  7
Arial
  0
LINE
  5
292
330
279
100
AcDbEntity
  8
0
 62
7
100
AcDbLine
 10
17139.24922090965
 20
-28595.15926993434
 30
0.0
 11
17139.24922090965
 21
-28655.15926993435
 31
0.0
  0
MTEXT
  5
293
330
279
100
AcDbEntity
  8
0
 62
2
100
AcDbMText
 10
17134.01855837237
 20
-28625.15926993435
 30
0.0
 40
20.0
 41
556.6509010178333
 46
60.00000000000113
 71
4
 72
5
  1
  Ngày nhận :
  7
Arial
  0
LINE
  5
294
330
279
100
AcDbEntity
  8
0
 62
7
100
AcDbLine
 10
17474.24922090965
 20
-28595.15926993434
 30
0.0
 11
17474.24922090965
 21
-28655.15926993435
 31
0.0
  0
ATTDEF
  5
295
330
279
100
AcDbEntity
  8
0
 62
3
100
AcDbText
 10
18030.57595183183
 20
-28580.1015331953
 30
0.0
 40
20.0
  1
............
  7
Arial
100
AcDbAttributeDefinition
  3
SẢN PHẨM
  2
#03
 70
0
280
1
 71
1
 72
0
  0
ATTDEF
  5
296
330
279
100
AcDbEntity
  8
0
 62
3
100
AcDbText
 10
18002.0078672091
 20
-28634.73750821321
 30
0.0
 40
20.0
  1

  7
Arial
100
AcDbAttributeDefinition
  3
KÍCH THƯỚC
  2
#07
 70
0
280
1
 71
1
 72
0
  0
ATTDEF
  5
297
330
279
100
AcDbEntity
  8
0
 62
3
100
AcDbText
 10
18751.69842633112
 20
-28580.1015331953
 30
0.0
 40
20.0
  1

  7
Arial
100
AcDbAttributeDefinition
  3
SỐ LƯỢNG
  2
#08
 70
0
280
1
 71
1
 72
0
  0
ATTDEF
  5
298
330
279
100
AcDbEntity
  8
0
 62
3
100
AcDbText
 10
18753.84501617292
 20
-28632.59717057646
 30
0.0
 40
20.0
  1

  7
Arial
100
AcDbAttributeDefinition
  3
LOẠI TÔN
  2
#09
 70
0
280
1
 71
1
 72
0
  0
ATTDEF
  5
299
330
279
100
AcDbEntity
  8
0
 62
3
100
AcDbText
 10
19064.78379112245
 20
-28580.1015331953
 30
0.0
 40
20.0
  1

  7
Arial
100
AcDbAttributeDefinition
  3
CHÚ Ý 1
  2
#10
 70
0
280
1
 71
1
 72
0
  0
ATTDEF
  5
29A
330
279
100
AcDbEntity
  8
0
 62
3
100
AcDbText
 10
19060.29593417999
 20
-28625.68604652386
 30
0.0
 40
20.0
  1

  7
Arial
100
AcDbAttributeDefinition
  3
CHÚ Ý 2
  2
#11
 70
0
280
1
 71
1
 72
0
  0
ATTDEF
  5
29B
330
279
100
AcDbEntity
  8
0
 62
3
100
AcDbText
 10
17431.39468632692
 20
-28580.1015331953
 30
0.0
 40
20.0
  1

  7
Arial
100
AcDbAttributeDefinition
  3
KHÁCH HÀNG
  2
#02
 70
0
280
1
 71
1
 72
0
  0
ATTDEF
  5
29C
330
279
100
AcDbEntity
  8
0
 62
3
100
AcDbText
 10
17308.45246357222
 20
-28633.02044838126
 30
0.0
 40
20.0
  1

  7
Arial
100
AcDbAttributeDefinition
  3
NGÀY NHẬN
  2
#05
 70
0
280
1
 71
1
 72
0
  0
ATTDEF
  5
29D
330
279
100
AcDbEntity
  8
0
 62
3
100
AcDbText
 10
17632.65306459898
 20
-28633.73138801003
 30
0.0
 40
20.0
  1

  7
Arial
100
AcDbAttributeDefinition
  3
NGÀY GIAO
  2
#06
 70
0
280
1
 71
1
 72
0
  0
ATTDEF
  5
29E
330
279
100
AcDbEntity
  8
0
 62
3
100
AcDbText
 10
17055.57441422327
 20
-28580.1015331953
 30
0.0
 40
20.0
  1

  7
Arial
100
AcDbAttributeDefinition
  3
THIẾT KẾ
  2
#01
 70
0
280
1
 71
1
 72
0
  0
ATTDEF
  5
29F
330
279
100
AcDbEntity
  8
0
 62
3
100
AcDbText
 10
17024.76529237577
 20
-28634.61999292788
 30
0.0
 40
20.0
  1

  7
Arial
100
AcDbAttributeDefinition
  3
CNC
  2
#04
 70
0
280
1
 71
1
 72
0
  0
ATTDEF
  5
2A0
330
279
100
AcDbEntity
  8
0
 62
3
100
AcDbText
 10
19806.4585301708
 20
-28628.91186895216
 30
0.0
 40
20.0
  1

  7
Arial
100
AcDbAttributeDefinition
  3
TỜ
  2
#12
 70
0
280
1
 71
1
 72
0
  0
ENDBLK
  5
27B
330
279
100
AcDbEntity
  8
0
100
AcDbBlockEnd
  0
BLOCK
  5
2A8
330
2A7
100
AcDbEntity
  8
0
100
AcDbBlockBegin
  2
_ArchTick
 70
0
 10
0.0
 20
0.0
 30
0.0
  3
_ArchTick
  1

  0
LWPOLYLINE
  5
2AA
330
2A7
100
AcDbEntity
  8
0
 62
0
100
AcDbPolyline
 90
2
 70
0
 43
0.15
 10
-0.5
 20
-0.5
 10
0.5
 20
0.5
  0
ENDBLK
  5
2A9
330
2A7
100
AcDbEntity
  8
0
100
AcDbBlockEnd
  0
BLOCK
  5
337
330
336
100
AcDbEntity
  8
0
100
AcDbBlockBegin
  2
*D1
 70
1
 10
0.0
 20
0.0
 30
0.0
  3
*D1
  1

  0
LINE
  5
339
330
336
100
AcDbEntity
  8
DIM
 62
5
370
9
440
16777216
100
AcDbLine
 10
1399.4290952447045
 20
883.2182390748712
 30
0.0
 11
1517.2611974840984
 21
883.2182390748712
 31
0.0
  0
LINE
  5
33A
330
336
100
AcDbEntity
  8
DIM
 62
5
370
9
440
16777216
100
AcDbLine
 10
1399.4290952447045
 20
683.2182390748712
 30
0.0
 11
1517.2611974840984
 21
683.2182390748712
 31
0.0
  0
LINE
  5
33B
330
336
100
AcDbEntity
  8
DIM
 62
5
370
9
440
16777216
100
AcDbLine
 10
1502.2611974840984
 20
883.2182390748712
 30
0.0
 11
1502.2611974840984
 21
683.2182390748712
 31
0.0
  0
LINE
  5
33C
330
336
100
AcDbEntity
  8
0
  6
ByBlock
 62
0
370
-2
100
AcDbLine
 10
1508.2611974840984
 20
877.2182390748712
 30
0.0
 11
1496.2611974840984
 21
889.2182390748712
 31
0.0
  0
LINE
  5
33D
330
336
100
AcDbEntity
  8
0
  6
ByBlock
 62
0
370
-2
100
AcDbLine
 10
1496.2611974840984
 20
689.2182390748712
 30
0.0
 11
1508.2611974840984
 21
677.2182390748712
 31
0.0
  0
MTEXT
  5
33E
330
336
100
AcDbEntity
  8
DIM
 62
3
440
16777216
100
AcDbMText
 10
1470.412288889289
 20
783.2182390749003
 30
0.0
 40
33.0
 41
0.0
 46
0.0
 71
5
  1
200
 11
1e-16
 21
1.0
 31
0.0
  0
POINT
  5
33F
330
336
100
AcDbEntity
  8
Defpoints
 62
0
440
16777216
100
AcDbPoint
 10
1374.4290952447045
 20
883.2182390748712
 30
0.0
  0
POINT
  5
340
330
336
100
AcDbEntity
  8
Defpoints
 62
0
440
16777216
100
AcDbPoint
 10
1374.4290952447045
 20
683.2182390748712
 30
0.0
  0
POINT
  5
341
330
336
100
AcDbEntity
  8
Defpoints
 62
0
440
16777216
100
AcDbPoint
 10
1502.2611974840984
 20
683.2182390748712
 30
0.0
  0
ENDBLK
  5
338
330
336
100
AcDbEntity
  8
0
100
AcDbBlockEnd
  0
BLOCK
  5
343
330
342
100
AcDbEntity
  8
0
100
AcDbBlockBegin
  2
*D2
 70
1
 10
0.0
 20
0.0
 30
0.0
  3
*D2
  1

  0
LINE
  5
345
330
342
100
AcDbEntity
  8
DIM
 62
5
370
9
440
16777216
100
AcDbLine
 10
228.4290952447045
 20
708.2182390748712
 30
0.0
 11
228.4290952447045
 21
589.0746904440457
 31
0.0
  0
LINE
  5
346
330
342
100
AcDbEntity
  8
DIM
 62
5
370
9
440
16777216
100
AcDbLine
 10
1424.4290952447045
 20
708.2182390748712
 30
0.0
 11
1424.4290952447045
 21
589.0746904440457
 31
0.0
  0
LINE
  5
347
330
342
100
AcDbEntity
  8
DIM
 62
5
370
9
440
16777216
100
AcDbLine
 10
228.4290952447045
 20
604.0746904440457
 30
0.0
 11
1424.4290952447045
 21
604.0746904440457
 31
0.0
  0
LINE
  5
348
330
342
100
AcDbEntity
  8
0
  6
ByBlock
 62
0
370
-2
100
AcDbLine
 10
234.4290952447045
 20
610.0746904440457
 30
0.0
 11
222.4290952447045
 21
598.0746904440457
 31
0.0
  0
LINE
  5
349
330
342
100
AcDbEntity
  8
0
  6
ByBlock
 62
0
370
-2
100
AcDbLine
 10
1418.4290952447045
 20
598.0746904440457
 30
0.0
 11
1430.4290952447045
 21
610.0746904440457
 31
0.0
  0
MTEXT
  5
34A
330
342
100
AcDbEntity
  8
DIM
 62
3
440
16777216
100
AcDbMText
 10
826.4290952447045
 20
635.9235990388697
 30
0.0
 40
33.0
 41
0.0
 46
0.0
 71
5
  1
1196
  0
POINT
  5
34B
330
342
100
AcDbEntity
  8
Defpoints
 62
0
440
16777216
100
AcDbPoint
 10
228.4290952447045
 20
733.2182390748712
 30
0.0
  0
POINT
  5
34C
330
342
100
AcDbEntity
  8
Defpoints
 62
0
440
16777216
100
AcDbPoint
 10
1424.4290952447045
 20
733.2182390748712
 30
0.0
  0
POINT
  5
34D
330
342
100
AcDbEntity
  8
Defpoints
 62
0
440
16777216
100
AcDbPoint
 10
1424.4290952447045
 20
604.0746904440457
 30
0.0
  0
ENDBLK
  5
344
330
342
100
AcDbEntity
  8
0
100
AcDbBlockEnd
  0
BLOCK
  5
34F
330
34E
100
AcDbEntity
  8
0
100
AcDbBlockBegin
  2
*D3
 70
1
 10
0.0
 20
0.0
 30
0.0
  3
*D3
  1

  0
LINE
  5
351
330
34E
100
AcDbEntity
  8
DIM
 62
5
370
9
440
16777216
100
AcDbLine
 10
203.4290952447045
 20
833.2182390748712
 30
0.0
 11
168.49243236889015
 21
833.2182390748712
 31
0.0
  0
LINE
  5
352
330
34E
100
AcDbEntity
  8
DIM
 62
5
370
9
440
16777216
100
AcDbLine
 10
203.4290952447045
 20
733.2182390748712
 30
0.0
 11
168.49243236889015
 21
733.2182390748712
 31
0.0
  0
LINE
  5
353
330
34E
100
AcDbEntity
  8
DIM
 62
5
370
9
440
16777216
100
AcDbLine
 10
183.49243236889015
 20
833.2182390748712
 30
0.0
 11
183.49243236889015
 21
733.2182390748712
 31
0.0
  0
LINE
  5
354
330
34E
100
AcDbEntity
  8
0
  6
ByBlock
 62
0
370
-2
100
AcDbLine
 10
189.49243236889015
 20
827.2182390748712
 30
0.0
 11
177.49243236889015
 21
839.2182390748712
 31
0.0
  0
LINE
  5
355
330
34E
100
AcDbEntity
  8
0
  6
ByBlock
 62
0
370
-2
100
AcDbLine
 10
177.49243236889015
 20
739.2182390748712
 30
0.0
 11
189.49243236889015
 21
727.2182390748712
 31
0.0
  0
MTEXT
  5
356
330
34E
100
AcDbEntity
  8
DIM
 62
3
440
16777216
100
AcDbMText
 10
151.64352377410978
 20
783.2182390749003
 30
0.0
 40
33.0
 41
0.0
 46
0.0
 71
5
  1
100
 11
1e-16
 21
1.0
 31
0.0
  0
POINT
  5
357
330
34E
100
AcDbEntity
  8
Defpoints
 62
0
440
16777216
100
AcDbPoint
 10
228.4290952447045
 20
833.2182390748712
 30
0.0
  0
POINT
  5
358
330
34E
100
AcDbEntity
  8
Defpoints
 62
0
440
16777216
100
AcDbPoint
 10
228.4290952447045
 20
733.2182390748712
 30
0.0
  0
POINT
  5
359
330
34E
100
AcDbEntity
  8
Defpoints
 62
0
440
16777216
100
AcDbPoint
 10
183.49243236889015
 20
733.2182390748712
 30
0.0
  0
ENDBLK
  5
350
330
34E
100
AcDbEntity
  8
0
100
AcDbBlockEnd
  0
BLOCK
  5
35B
330
35A
100
AcDbEntity
  8
0
100
AcDbBlockBegin
  2
*D4
 70
1
 10
0.0
 20
0.0
 30
0.0
  3
*D4
  1

  0
LINE
  5
35D
330
35A
100
AcDbEntity
  8
DIM
 62
5
370
9
440
16777216
100
AcDbLine
 10
203.4290952447045
 20
833.2182390748712
 30
0.0
 11
168.49243236889015
 21
833.2182390748712
 31
0.0
  0
LINE
  5
35E
330
35A
100
AcDbEntity
  8
DIM
 62
5
370
9
440
16777216
100
AcDbLine
 10
253.4290952447045
 20
883.2182390748712
 30
0.0
 11
168.49243236889015
 21
883.2182390748712
 31
0.0
  0
LINE
  5
35F
330
35A
100
AcDbEntity
  8
DIM
 62
5
370
9
440
16777216
100
AcDbLine
 10
183.49243236889015
 20
833.2182390748712
 30
0.0
 11
183.49243236889015
 21
883.2182390748712
 31
0.0
  0
LINE
  5
360
330
35A
100
AcDbEntity
  8
DIM
 62
5
370
9
440
16777216
100
AcDbLine
 10
183.49243236889015
 20
883.2182390748712
 30
0.0
 11
183.49243236889015
 21
972.3771749548105
 31
0.0
  0
LINE
  5
361
330
35A
100
AcDbEntity
  8
0
  6
ByBlock
 62
0
370
-2
100
AcDbLine
 10
177.49243236889015
 20
839.2182390748712
 30
0.0
 11
189.49243236889015
 21
827.2182390748712
 31
0.0
  0
LINE
  5
362
330
35A
100
AcDbEntity
  8
0
  6
ByBlock
 62
0
370
-2
100
AcDbLine
 10
189.49243236889015
 20
877.2182390748712
 30
0.0
 11
177.49243236889015
 21
889.2182390748712
 31
0.0
  0
MTEXT
  5
363
330
35A
100
AcDbEntity
  8
DIM
 62
3
440
16777216
100
AcDbMText
 10
151.64352377410978
 20
933.79770701487
 30
0.0
 40
33.0
 41
0.0
 46
0.0
 71
5
  1
50
 11
1e-16
 21
1.0
 31
0.0
  0
POINT
  5
364
330
35A
100
AcDbEntity
  8
Defpoints
 62
0
440
16777216
100
AcDbPoint
 10
228.4290952447045
 20
833.2182390748712
 30
0.0
  0
POINT
  5
365
330
35A
100
AcDbEntity
  8
Defpoints
 62
0
440
16777216
100
AcDbPoint
 10
278.4290952447045
 20
883.2182390748712
 30
0.0
  0
POINT
  5
366
330
35A
100
AcDbEntity
  8
Defpoints
 62
0
440
16777216
100
AcDbPoint
 10
183.49243236889015
 20
883.2182390748712
 30
0.0
  0
ENDBLK
  5
35C
330
35A
100
AcDbEntity
  8
0
100
AcDbBlockEnd
  0
BLOCK
  5
368
330
367
100
AcDbEntity
  8
0
100
AcDbBlockBegin
  2
*D5
 70
1
 10
0.0
 20
0.0
 30
0.0
  3
*D5
  1

  0
LINE
  5
36A
330
367
100
AcDbEntity
  8
DIM
 62
5
370
9
440
16777216
100
AcDbLine
 10
203.4290952447045
 20
733.2182390748712
 30
0.0
 11
168.49243236889015
 21
733.2182390748712
 31
0.0
  0
LINE
  5
36B
330
367
100
AcDbEntity
  8
DIM
 62
5
370
9
440
16777216
100
AcDbLine
 10
253.4290952447045
 20
683.2182390748712
 30
0.0
 11
168.49243236889015
 21
683.2182390748712
 31
0.0
  0
LINE
  5
36C
330
367
100
AcDbEntity
  8
DIM
 62
5
370
9
440
16777216
100
AcDbLine
 10
183.49243236889015
 20
733.2182390748712
 30
0.0
 11
183.49243236889015
 21
683.2182390748712
 31
0.0
  0
LINE
  5
36D
330
367
100
AcDbEntity
  8
DIM
 62
5
370
9
440
16777216
100
AcDbLine
 10
183.49243236889015
 20
683.2182390748712
 30
0.0
 11
183.49243236889015
 21
594.0593031949174
 31
0.0
  0
LINE
  5
36E
330
367
100
AcDbEntity
  8
0
  6
ByBlock
 62
0
370
-2
100
AcDbLine
 10
189.49243236889015
 20
727.2182390748712
 30
0.0
 11
177.49243236889015
 21
739.2182390748712
 31
0.0
  0
LINE
  5
36F
330
367
100
AcDbEntity
  8
0
  6
ByBlock
 62
0
370
-2
100
AcDbLine
 10
177.49243236889015
 20
689.2182390748712
 30
0.0
 11
189.49243236889015
 21
677.2182390748712
 31
0.0
  0
MTEXT
  5
370
330
367
100
AcDbEntity
  8
DIM
 62
3
440
16777216
100
AcDbMText
 10
151.64352377410978
 20
632.6387711349307
 30
0.0
 40
33.0
 41
0.0
 46
0.0
 71
5
  1
50
 11
1e-16
 21
1.0
 31
0.0
  0
POINT
  5
371
330
367
100
AcDbEntity
  8
Defpoints
 62
0
440
16777216
100
AcDbPoint
 10
228.4290952447045
 20
733.2182390748712
 30
0.0
  0
POINT
  5
372
330
367
100
AcDbEntity
  8
Defpoints
 62
0
440
16777216
100
AcDbPoint
 10
278.4290952447045
 20
683.2182390748712
 30
0.0
  0
POINT
  5
373
330
367
100
AcDbEntity
  8
Defpoints
 62
0
440
16777216
100
AcDbPoint
 10
183.49243236889015
 20
683.2182390748712
 30
0.0
  0
ENDBLK
  5
369
330
367
100
AcDbEntity
  8
0
100
AcDbBlockEnd
  0
BLOCK
  5
375
330
374
100
AcDbEntity
  8
0
100
AcDbBlockBegin
  2
*D6
 70
1
 10
0.0
 20
0.0
 30
0.0
  3
*D6
  1

  0
LINE
  5
377
330
374
100
AcDbEntity
  8
DIM
 62
5
370
9
440
16777216
100
AcDbLine
 10
1740.9719421617046
 20
2994.174703867531
 30
0.0
 11
1740.9719421617046
 21
3084.528373934336
 31
0.0
  0
LINE
  5
378
330
374
100
AcDbEntity
  8
DIM
 62
5
370
9
440
16777216
100
AcDbLine
 10
1761.9719421617046
 20
2973.174703867531
 30
0.0
 11
1761.9719421617046
 21
3084.528373934336
 31
0.0
  0
LINE
  5
379
330
374
100
AcDbEntity
  8
DIM
 62
5
370
9
440
16777216
100
AcDbLine
 10
1740.9719421617046
 20
3069.5283739343286
 30
0.0
 11
1728.9719421617046
 21
3069.5283739343286
 31
0.0
  0
LINE
  5
37A
330
374
100
AcDbEntity
  8
DIM
 62
5
370
9
440
16777216
100
AcDbLine
 10
1761.9719421617046
 20
3069.5283739343286
 30
0.0
 11
1857.4357893650013
 21
3069.5283739343286
 31
0.0
  0
LINE
  5
37B
330
374
100
AcDbEntity
  8
DIM
 62
5
370
9
440
16777216
100
AcDbLine
 10
1740.9719421617046
 20
3069.5283739343286
 30
0.0
 11
1761.9719421617046
 21
3069.5283739343286
 31
0.0
  0
LINE
  5
37C
330
374
100
AcDbEntity
  8
0
  6
ByBlock
 62
0
370
-2
100
AcDbLine
 10
1734.9719421617046
 20
3063.5283739343286
 30
0.0
 11
1746.9719421617046
 21
3075.5283739343286
 31
0.0
  0
LINE
  5
37D
330
374
100
AcDbEntity
  8
0
  6
ByBlock
 62
0
370
-2
100
AcDbLine
 10
1767.9719421617046
 20
3075.5283739343286
 30
0.0
 11
1755.9719421617046
 21
3063.5283739343286
 31
0.0
  0
MTEXT
  5
37E
330
374
100
AcDbEntity
  8
DIM
 62
3
440
16777216
100
AcDbMText
 10
1821.7038657634112
 20
3101.095904630107
 30
0.0
 40
33.0
 41
0.0
 46
0.0
 71
5
  1
21
  0
POINT
  5
37F
330
374
100
AcDbEntity
  8
Defpoints
 62
0
440
16777216
100
AcDbPoint
 10
1740.9719421617046
 20
2969.174703867531
 30
0.0
  0
POINT
  5
380
330
374
100
AcDbEntity
  8
Defpoints
 62
0
440
16777216
100
AcDbPoint
 10
1761.9719421617046
 20
2948.174703867531
 30
0.0
  0
POINT
  5
381
330
374
100
AcDbEntity
  8
Defpoints
 62
0
440
16777216
100
AcDbPoint
 10
1761.9719421617046
 20
3069.5283739343286
 30
0.0
  0
ENDBLK
  5
376
330
374
100
AcDbEntity
  8
0
100
AcDbBlockEnd
  0
BLOCK
  5
383
330
382
100
AcDbEntity
  8
0
100
AcDbBlockBegin
  2
*D7
 70
1
 10
0.0
 20
0.0
 30
0.0
  3
*D7
  1

  0
LINE
  5
385
330
382
100
AcDbEntity
  8
DIM
 62
5
370
9
440
16777216
100
AcDbLine
 10
1740.9719421617046
 20
2994.174703867531
 30
0.0
 11
1740.9719421617046
 21
3084.528373934336
 31
0.0
  0
LINE
  5
386
330
382
100
AcDbEntity
  8
DIM
 62
5
370
9
440
16777216
100
AcDbLine
 10
1145.9719421617046
 20
2994.174703867531
 30
0.0
 11
1145.9719421617046
 21
3084.528373934336
 31
0.0
  0
LINE
  5
387
330
382
100
AcDbEntity
  8
DIM
 62
5
370
9
440
16777216
100
AcDbLine
 10
1740.9719421617046
 20
3069.5283739343286
 30
0.0
 11
1145.9719421617046
 21
3069.5283739343286
 31
0.0
  0
LINE
  5
388
330
382
100
AcDbEntity
  8
0
  6
ByBlock
 62
0
370
-2
100
AcDbLine
 10
1734.9719421617046
 20
3063.5283739343286
 30
0.0
 11
1746.9719421617046
 21
3075.5283739343286
 31
0.0
  0
LINE
  5
389
330
382
100
AcDbEntity
  8
0
  6
ByBlock
 62
0
370
-2
100
AcDbLine
 10
1151.9719421617046
 20
3075.5283739343286
 30
0.0
 11
1139.9719421617046
 21
3063.5283739343286
 31
0.0
  0
MTEXT
  5
38A
330
382
100
AcDbEntity
  8
DIM
 62
3
440
16777216
100
AcDbMText
 10
1443.4719421617046
 20
3101.3772825291453
 30
0.0
 40
33.0
 41
0.0
 46
0.0
 71
5
  1
595
  0
POINT
  5
38B
330
382
100
AcDbEntity
  8
Defpoints
 62
0
440
16777216
100
AcDbPoint
 10
1740.9719421617046
 20
2969.174703867531
 30
0.0
  0
POINT
  5
38C
330
382
100
AcDbEntity
  8
Defpoints
 62
0
440
16777216
100
AcDbPoint
 10
1145.9719421617046
 20
2969.174703867531
 30
0.0
  0
POINT
  5
38D
330
382
100
AcDbEntity
  8
Defpoints
 62
0
440
16777216
100
AcDbPoint
 10
1145.9719421617046
 20
3069.5283739343286
 30
0.0
  0
ENDBLK
  5
384
330
382
100
AcDbEntity
  8
0
100
AcDbBlockEnd
  0
BLOCK
  5
38F
330
38E
100
AcDbEntity
  8
0
100
AcDbBlockBegin
  2
*D8
 70
1
 10
0.0
 20
0.0
 30
0.0
  3
*D8
  1

  0
LINE
  5
391
330
38E
100
AcDbEntity
  8
DIM
 62
5
370
9
440
16777216
100
AcDbLine
 10
1099.9719421617046
 20
1617.1747038665999
 30
0.0
 11
1039.8672414020111
 21
1617.1747038665999
 31
0.0
  0
LINE
  5
392
330
38E
100
AcDbEntity
  8
DIM
 62
5
370
9
440
16777216
100
AcDbLine
 10
1099.9719421617046
 20
1588.1747038665853
 30
0.0
 11
1039.8672414020111
 21
1588.1747038665853
 31
0.0
  0
LINE
  5
393
330
38E
100
AcDbEntity
  8
DIM
 62
5
370
9
440
16777216
100
AcDbLine
 10
1054.8672414020111
 20
1617.1747038665999
 30
0.0
 11
1054.8672414020111
 21
1629.1747038665853
 31
0.0
  0
LINE
  5
394
330
38E
100
AcDbEntity
  8
DIM
 62
5
370
9
440
16777216
100
AcDbLine
 10
1054.8672414020111
 20
1588.1747038665853
 30
0.0
 11
1054.8672414020111
 21
1486.2729303331653
 31
0.0
  0
LINE
  5
395
330
38E
100
AcDbEntity
  8
DIM
 62
5
370
9
440
16777216
100
AcDbLine
 10
1054.8672414020111
 20
1617.1747038665999
 30
0.0
 11
1054.8672414020111
 21
1588.1747038665853
 31
0.0
  0
LINE
  5
396
330
38E
100
AcDbEntity
  8
0
  6
ByBlock
 62
0
370
-2
100
AcDbLine
 10
1048.8672414020111
 20
1623.1747038665999
 30
0.0
 11
1060.8672414020111
 21
1611.1747038665999
 31
0.0
  0
LINE
  5
397
330
38E
100
AcDbEntity
  8
0
  6
ByBlock
 62
0
370
-2
100
AcDbLine
 10
1060.8672414020111
 20
1582.1747038665853
 30
0.0
 11
1048.8672414020111
 21
1594.1747038665853
 31
0.0
  0
MTEXT
  5
398
330
38E
100
AcDbEntity
  8
DIM
 62
3
440
16777216
100
AcDbMText
 10
1023.0183328072017
 20
1525.223817099919
 30
0.0
 40
33.0
 41
0.0
 46
0.0
 71
5
  1
29
 11
1e-16
 21
1.0
 31
0.0
  0
POINT
  5
399
330
38E
100
AcDbEntity
  8
Defpoints
 62
0
440
16777216
100
AcDbPoint
 10
1124.9719421617046
 20
1617.1747038665999
 30
0.0
  0
POINT
  5
39A
330
38E
100
AcDbEntity
  8
Defpoints
 62
0
440
16777216
100
AcDbPoint
 10
1124.9719421617046
 20
1588.1747038665853
 30
0.0
  0
POINT
  5
39B
330
38E
100
AcDbEntity
  8
Defpoints
 62
0
440
16777216
100
AcDbPoint
 10
1054.8672414020111
 20
1588.1747038665853
 30
0.0
  0
ENDBLK
  5
390
330
38E
100
AcDbEntity
  8
0
100
AcDbBlockEnd
  0
BLOCK
  5
39D
330
39C
100
AcDbEntity
  8
0
100
AcDbBlockBegin
  2
*D9
 70
1
 10
0.0
 20
0.0
 30
0.0
  3
*D9
  1

  0
LINE
  5
39F
330
39C
100
AcDbEntity
  8
DIM
 62
5
370
9
440
16777216
100
AcDbLine
 10
1112.9719421617046
 20
1575.1747038666217
 30
0.0
 11
1112.9719421617046
 21
1461.5369954567577
 31
0.0
  0
LINE
  5
3A0
330
39C
100
AcDbEntity
  8
DIM
 62
5
370
9
440
16777216
100
AcDbLine
 10
1773.9719421617046
 20
1575.1747038666217
 30
0.0
 11
1773.9719421617046
 21
1461.5369954567577
 31
0.0
  0
LINE
  5
3A1
330
39C
100
AcDbEntity
  8
DIM
 62
5
370
9
440
16777216
100
AcDbLine
 10
1112.9719421617046
 20
1476.5369954567577
 30
0.0
 11
1773.9719421617046
 21
1476.5369954567577
 31
0.0
  0
LINE
  5
3A2
330
39C
100
AcDbEntity
  8
0
  6
ByBlock
 62
0
370
-2
100
AcDbLine
 10
1118.9719421617046
 20
1482.5369954567577
 30
0.0
 11
1106.9719421617046
 21
1470.5369954567577
 31
0.0
  0
LINE
  5
3A3
330
39C
100
AcDbEntity
  8
0
  6
ByBlock
 62
0
370
-2
100
AcDbLine
 10
1767.9719421617046
 20
1470.5369954567577
 30
0.0
 11
1779.9719421617046
 21
1482.5369954567577
 31
0.0
  0
MTEXT
  5
3A4
330
39C
100
AcDbEntity
  8
DIM
 62
3
440
16777216
100
AcDbMText
 10
1443.4719421617046
 20
1508.3859040515817
 30
0.0
 40
33.0
 41
0.0
 46
0.0
 71
5
  1
661
  0
POINT
  5
3A5
330
39C
100
AcDbEntity
  8
Defpoints
 62
0
440
16777216
100
AcDbPoint
 10
1112.9719421617046
 20
1600.174703866629
 30
0.0
  0
POINT
  5
3A6
330
39C
100
AcDbEntity
  8
Defpoints
 62
0
440
16777216
100
AcDbPoint
 10
1773.9719421617046
 20
1600.174703866629
 30
0.0
  0
POINT
  5
3A7
330
39C
100
AcDbEntity
  8
Defpoints
 62
0
440
16777216
100
AcDbPoint
 10
1773.9719421617046
 20
1476.5369954567577
 30
0.0
  0
ENDBLK
  5
39E
330
39C
100
AcDbEntity
  8
0
100
AcDbBlockEnd
  0
BLOCK
  5
3A9
330
3A8
100
AcDbEntity
  8
0
100
AcDbBlockBegin
  2
*D10
 70
1
 10
0.0
 20
0.0
 30
0.0
  3
*D10
  1

  0
LINE
  5
3AB
330
3A8
100
AcDbEntity
  8
DIM
 62
5
370
9
440
16777216
100
AcDbLine
 10
3476.2148114221927
 20
2910.174703867531
 30
0.0
 11
3476.2148114221927
 21
2953.3426646780863
 31
0.0
  0
LINE
  5
3AC
330
3A8
100
AcDbEntity
  8
DIM
 62
5
370
9
440
16777216
100
AcDbLine
 10
3488.2148114221927
 20
2898.174703867531
 30
0.0
 11
3488.2148114221927
 21
2953.3426646780863
 31
0.0
  0
LINE
  5
3AD
330
3A8
100
AcDbEntity
  8
DIM
 62
5
370
9
440
16777216
100
AcDbLine
 10
3476.2148114221927
 20
2943.3426646780863
 30
0.0
 11
3468.2148114221927
 21
2943.3426646780863
 31
0.0
  0
LINE
  5
3AE
330
3A8
100
AcDbEntity
  8
DIM
 62
5
370
9
440
16777216
100
AcDbLine
 10
3488.2148114221927
 20
2943.3426646780863
 30
0.0
 11
3557.417403509491
 21
2943.3426646780863
 31
0.0
  0
LINE
  5
3AF
330
3A8
100
AcDbEntity
  8
DIM
 62
5
370
9
440
16777216
100
AcDbLine
 10
3476.2148114221927
 20
2943.3426646780863
 30
0.0
 11
3488.2148114221927
 21
2943.3426646780863
 31
0.0
  0
LINE
  5
3B0
330
3A8
100
AcDbEntity
  8
0
  6
ByBlock
 62
0
370
-2
100
AcDbLine
 10
3472.2148114221927
 20
2939.3426646780863
 30
0.0
 11
3480.2148114221927
 21
2947.3426646780863
 31
0.0
  0
LINE
  5
3B1
330
3A8
100
AcDbEntity
  8
0
  6
ByBlock
 62
0
370
-2
100
AcDbLine
 10
3492.2148114221927
 20
2947.3426646780863
 30
0.0
 11
3484.2148114221927
 21
2939.3426646780863
 31
0.0
  0
MTEXT
  5
3B2
330
3A8
100
AcDbEntity
  8
DIM
 62
3
440
16777216
100
AcDbMText
 10
3530.8161074658856
 20
2965.8938242961012
 30
0.0
 40
25.0
 41
0.0
 46
0.0
 71
5
  1
12
  0
POINT
  5
3B3
330
3A8
100
AcDbEntity
  8
Defpoints
 62
0
440
16777216
100
AcDbPoint
 10
3476.2148114221927
 20
2895.174703867531
 30
0.0
  0
POINT
  5
3B4
330
3A8
100
AcDbEntity
  8
Defpoints
 62
0
440
16777216
100
AcDbPoint
 10
3488.2148114221927
 20
2883.174703867531
 30
0.0
  0
POINT
  5
3B5
330
3A8
100
AcDbEntity
  8
Defpoints
 62
0
440
16777216
100
AcDbPoint
 10
3488.2148114221927
 20
2943.3426646780863
 30
0.0
  0
ENDBLK
  5
3AA
330
3A8
100
AcDbEntity
  8
0
100
AcDbBlockEnd
  0
BLOCK
  5
3B7
330
3B6
100
AcDbEntity
  8
0
100
AcDbBlockBegin
  2
*D11
 70
1
 10
0.0
 20
0.0
 30
0.0
  3
*D11
  1

  0
LINE
  5
3B9
330
3B6
100
AcDbEntity
  8
DIM
 62
5
370
9
440
16777216
100
AcDbLine
 10
3460.214811422309
 20
2926.1747038675167
 30
0.0
 11
3460.214811422309
 21
2998.0875038896556
 31
0.0
  0
LINE
  5
3BA
330
3B6
100
AcDbEntity
  8
DIM
 62
5
370
9
440
16777216
100
AcDbLine
 10
3476.2148114221927
 20
2910.174703867531
 30
0.0
 11
3476.2148114221927
 21
2998.0875038896556
 31
0.0
  0
LINE
  5
3BB
330
3B6
100
AcDbEntity
  8
DIM
 62
5
370
9
440
16777216
100
AcDbLine
 10
3460.214811422309
 20
2988.08750388967
 30
0.0
 11
3452.2148114221927
 21
2988.08750388967
 31
0.0
  0
LINE
  5
3BC
330
3B6
100
AcDbEntity
  8
DIM
 62
5
370
9
440
16777216
100
AcDbLine
 10
3476.2148114221927
 20
2988.08750388967
 30
0.0
 11
3545.6561483936093
 21
2988.08750388967
 31
0.0
  0
LINE
  5
3BD
330
3B6
100
AcDbEntity
  8
DIM
 62
5
370
9
440
16777216
100
AcDbLine
 10
3460.214811422309
 20
2988.08750388967
 30
0.0
 11
3476.2148114221927
 21
2988.08750388967
 31
0.0
  0
LINE
  5
3BE
330
3B6
100
AcDbEntity
  8
0
  6
ByBlock
 62
0
370
-2
100
AcDbLine
 10
3456.214811422309
 20
2984.08750388967
 30
0.0
 11
3464.214811422309
 21
2992.08750388967
 31
0.0
  0
LINE
  5
3BF
330
3B6
100
AcDbEntity
  8
0
  6
ByBlock
 62
0
370
-2
100
AcDbLine
 10
3480.2148114221927
 20
2992.08750388967
 30
0.0
 11
3472.2148114221927
 21
2984.08750388967
 31
0.0
  0
MTEXT
  5
3C0
330
3B6
100
AcDbEntity
  8
DIM
 62
3
440
16777216
100
AcDbMText
 10
3518.935479907901
 20
3010.8518285827085
 30
0.0
 40
25.0
 41
0.0
 46
0.0
 71
5
  1
16
  0
POINT
  5
3C1
330
3B6
100
AcDbEntity
  8
Defpoints
 62
0
440
16777216
100
AcDbPoint
 10
3460.214811422309
 20
2911.1747038675167
 30
0.0
  0
POINT
  5
3C2
330
3B6
100
AcDbEntity
  8
Defpoints
 62
0
440
16777216
100
AcDbPoint
 10
3476.2148114221927
 20
2895.174703867531
 30
0.0
  0
POINT
  5
3C3
330
3B6
100
AcDbEntity
  8
Defpoints
 62
0
440
16777216
100
AcDbPoint
 10
3476.2148114221927
 20
2988.08750388967
 30
0.0
  0
ENDBLK
  5
3B8
330
3B6
100
AcDbEntity
  8
0
100
AcDbBlockEnd
  0
BLOCK
  5
3C5
330
3C4
100
AcDbEntity
  8
0
100
AcDbBlockBegin
  2
*D12
 70
1
 10
0.0
 20
0.0
 30
0.0
  3
*D12
  1

  0
LINE
  5
3C7
330
3C4
100
AcDbEntity
  8
DIM
 62
5
370
9
440
16777216
100
AcDbLine
 10
3460.214811422309
 20
2926.1747038675167
 30
0.0
 11
3460.214811422309
 21
2998.0875038896556
 31
0.0
  0
LINE
  5
3C8
330
3C4
100
AcDbEntity
  8
DIM
 62
5
370
9
440
16777216
100
AcDbLine
 10
2371.2148114221927
 20
2926.1747038675167
 30
0.0
 11
2371.2148114221927
 21
2998.0875038896556
 31
0.0
  0
LINE
  5
3C9
330
3C4
100
AcDbEntity
  8
DIM
 62
5
370
9
440
16777216
100
AcDbLine
 10
3460.214811422309
 20
2988.08750388967
 30
0.0
 11
2371.2148114221927
 21
2988.08750388967
 31
0.0
  0
LINE
  5
3CA
330
3C4
100
AcDbEntity
  8
0
  6
ByBlock
 62
0
370
-2
100
AcDbLine
 10
3456.214811422309
 20
2984.08750388967
 30
0.0
 11
3464.214811422309
 21
2992.08750388967
 31
0.0
  0
LINE
  5
3CB
330
3C4
100
AcDbEntity
  8
0
  6
ByBlock
 62
0
370
-2
100
AcDbLine
 10
2375.2148114221927
 20
2992.08750388967
 30
0.0
 11
2367.2148114221927
 21
2984.08750388967
 31
0.0
  0
MTEXT
  5
3CC
330
3C4
100
AcDbEntity
  8
DIM
 62
3
440
16777216
100
AcDbMText
 10
2915.714811422309
 20
3010.8518285827085
 30
0.0
 40
25.0
 41
0.0
 46
0.0
 71
5
  1
1089
  0
POINT
  5
3CD
330
3C4
100
AcDbEntity
  8
Defpoints
 62
0
440
16777216
100
AcDbPoint
 10
3460.214811422309
 20
2911.1747038675167
 30
0.0
  0
POINT
  5
3CE
330
3C4
100
AcDbEntity
  8
Defpoints
 62
0
440
16777216
100
AcDbPoint
 10
2371.2148114221927
 20
2911.1747038675167
 30
0.0
  0
POINT
  5
3CF
330
3C4
100
AcDbEntity
  8
Defpoints
 62
0
440
16777216
100
AcDbPoint
 10
2371.2148114221927
 20
2988.08750388967
 30
0.0
  0
ENDBLK
  5
3C6
330
3C4
100
AcDbEntity
  8
0
100
AcDbBlockEnd
  0
BLOCK
  5
3D1
330
3D0
100
AcDbEntity
  8
0
100
AcDbBlockBegin
  2
*D13
 70
1
 10
0.0
 20
0.0
 30
0.0
  3
*D13
  1

  0
LINE
  5
3D3
330
3D0
100
AcDbEntity
  8
DIM
 62
5
370
9
440
16777216
100
AcDbLine
 10
2368.2148114221927
 20
2923.174703867531
 30
0.0
 11
2200.141640169488
 21
2923.174703867531
 31
0.0
  0
LINE
  5
3D4
330
3D0
100
AcDbEntity
  8
DIM
 62
5
370
9
440
16777216
100
AcDbLine
 10
2368.2148114221927
 20
1613.1747038675312
 30
0.0
 11
2200.141640169488
 21
1613.1747038675312
 31
0.0
  0
LINE
  5
3D5
330
3D0
100
AcDbEntity
  8
DIM
 62
5
370
9
440
16777216
100
AcDbLine
 10
2210.141640169488
 20
2923.174703867531
 30
0.0
 11
2210.141640169488
 21
1613.1747038675312
 31
0.0
  0
LINE
  5
3D6
330
3D0
100
AcDbEntity
  8
0
  6
ByBlock
 62
0
370
-2
100
AcDbLine
 10
2214.141640169488
 20
2919.174703867531
 30
0.0
 11
2206.141640169488
 21
2927.174703867531
 31
0.0
  0
LINE
  5
3D7
330
3D0
100
AcDbEntity
  8
0
  6
ByBlock
 62
0
370
-2
100
AcDbLine
 10
2206.141640169488
 20
1617.1747038675312
 30
0.0
 11
2214.141640169488
 21
1609.1747038675312
 31
0.0
  0
MTEXT
  5
3D8
330
3D0
100
AcDbEntity
  8
DIM
 62
3
440
16777216
100
AcDbMText
 10
2187.3687888733984
 20
2268.1747038675603
 30
0.0
 40
25.0
 41
0.0
 46
0.0
 71
5
  1
1310
 11
1e-16
 21
1.0
 31
0.0
  0
POINT
  5
3D9
330
3D0
100
AcDbEntity
  8
Defpoints
 62
0
440
16777216
100
AcDbPoint
 10
2383.2148114221927
 20
2923.174703867531
 30
0.0
  0
POINT
  5
3DA
330
3D0
100
AcDbEntity
  8
Defpoints
 62
0
440
16777216
100
AcDbPoint
 10
2383.2148114221927
 20
1613.1747038675312
 30
0.0
  0
POINT
  5
3DB
330
3D0
100
AcDbEntity
  8
Defpoints
 62
0
440
16777216
100
AcDbPoint
 10
2210.141640169488
 20
1613.1747038675312
 30
0.0
  0
ENDBLK
  5
3D2
330
3D0
100
AcDbEntity
  8
0
100
AcDbBlockEnd
  0
BLOCK
  5
3DD
330
3DC
100
AcDbEntity
  8
0
100
AcDbBlockBegin
  2
*D14
 70
1
 10
0.0
 20
0.0
 30
0.0
  3
*D14
  1

  0
LINE
  5
3DF
330
3DC
100
AcDbEntity
  8
DIM
 62
5
370
9
440
16777216
100
AcDbLine
 10
2340.2148114221927
 20
1641.1747038675312
 30
0.0
 11
2290.2925201623875
 21
1641.1747038675312
 31
0.0
  0
LINE
  5
3E0
330
3DC
100
AcDbEntity
  8
DIM
 62
5
370
9
440
16777216
100
AcDbLine
 10
2340.2148114221927
 20
2895.174703867531
 30
0.0
 11
2290.2925201623875
 21
2895.174703867531
 31
0.0
  0
LINE
  5
3E1
330
3DC
100
AcDbEntity
  8
DIM
 62
5
370
9
440
16777216
100
AcDbLine
 10
2300.2925201623875
 20
1641.1747038675312
 30
0.0
 11
2300.2925201623875
 21
2895.174703867531
 31
0.0
  0
LINE
  5
3E2
330
3DC
100
AcDbEntity
  8
0
  6
ByBlock
 62
0
370
-2
100
AcDbLine
 10
2296.2925201623875
 20
1645.1747038675312
 30
0.0
 11
2304.2925201623875
 21
1637.1747038675312
 31
0.0
  0
LINE
  5
3E3
330
3DC
100
AcDbEntity
  8
0
  6
ByBlock
 62
0
370
-2
100
AcDbLine
 10
2304.2925201623875
 20
2891.174703867531
 30
0.0
 11
2296.2925201623875
 21
2899.174703867531
 31
0.0
  0
MTEXT
  5
3E4
330
3DC
100
AcDbEntity
  8
DIM
 62
3
440
16777216
100
AcDbMText
 10
2277.5281954694074
 20
2268.1747038675603
 30
0.0
 40
25.0
 41
0.0
 46
0.0
 71
5
  1
1254
 11
1e-16
 21
1.0
 31
0.0
  0
POINT
  5
3E5
330
3DC
100
AcDbEntity
  8
Defpoints
 62
0
440
16777216
100
AcDbPoint
 10
2355.2148114221927
 20
1641.1747038675312
 30
0.0
  0
POINT
  5
3E6
330
3DC
100
AcDbEntity
  8
Defpoints
 62
0
440
16777216
100
AcDbPoint
 10
2355.2148114221927
 20
2895.174703867531
 30
0.0
  0
POINT
  5
3E7
330
3DC
100
AcDbEntity
  8
Defpoints
 62
0
440
16777216
100
AcDbPoint
 10
2300.2925201623875
 20
2895.174703867531
 30
0.0
  0
ENDBLK
  5
3DE
330
3DC
100
AcDbEntity
  8
0
100
AcDbBlockEnd
  0
BLOCK
  5
3E9
330
3E8
100
AcDbEntity
  8
0
100
AcDbBlockBegin
  2
*D15
 70
1
 10
0.0
 20
0.0
 30
0.0
  3
*D15
  1

  0
LINE
  5
3EB
330
3E8
100
AcDbEntity
  8
DIM
 62
5
370
9
 48
3.0
440
16777216
100
AcDbLine
 10
3685.619989537983
 20
2926.4247038675167
 30
0.0
 11
3685.619989537983
 21
2996.6699969806723
 31
0.0
  0
LINE
  5
3EC
330
3E8
100
AcDbEntity
  8
DIM
 62
5
370
9
 48
3.0
440
16777216
100
AcDbLine
 10
3765.619989537983
 20
2926.4247038675167
 30
0.0
 11
3765.619989537983
 21
2996.6699969806723
 31
0.0
  0
LINE
  5
3ED
330
3E8
100
AcDbEntity
  8
DIM
 62
5
370
9
 48
3.0
440
16777216
100
AcDbLine
 10
3685.619989537983
 20
2981.6699969806723
 30
0.0
 11
3765.619989537983
 21
2981.6699969806723
 31
0.0
  0
LINE
  5
3EE
330
3E8
100
AcDbEntity
  8
0
  6
ByBlock
 62
0
370
-2
100
AcDbLine
 10
3691.619989537983
 20
2987.6699969806723
 30
0.0
 11
3679.619989537983
 21
2975.6699969806723
 31
0.0
  0
LINE
  5
3EF
330
3E8
100
AcDbEntity
  8
0
  6
ByBlock
 62
0
370
-2
100
AcDbLine
 10
3759.619989537983
 20
2975.6699969806723
 30
0.0
 11
3771.619989537983
 21
2987.6699969806723
 31
0.0
  0
MTEXT
  5
3F0
330
3E8
100
AcDbEntity
  8
DIM
 62
3
 48
3.0
440
16777216
100
AcDbMText
 10
3725.619989537896
 20
3013.518905575489
 30
0.0
 40
33.0
 41
0.0
 46
0.0
 71
5
  1
80
  0
POINT
  5
3F1
330
3E8
100
AcDbEntity
  8
Defpoints
 62
0
 48
3.0
440
16777216
100
AcDbPoint
 10
3685.619989537983
 20
2901.424703867531
 30
0.0
  0
POINT
  5
3F2
330
3E8
100
AcDbEntity
  8
Defpoints
 62
0
 48
3.0
440
16777216
100
AcDbPoint
 10
3765.619989537983
 20
2901.424703867531
 30
0.0
  0
POINT
  5
3F3
330
3E8
100
AcDbEntity
  8
Defpoints
 62
0
 48
3.0
440
16777216
100
AcDbPoint
 10
3765.619989537983
 20
2981.6699969806723
 30
0.0
  0
ENDBLK
  5
3EA
330
3E8
100
AcDbEntity
  8
0
100
AcDbBlockEnd
  0
BLOCK
  5
3F5
330
3F4
100
AcDbEntity
  8
0
100
AcDbBlockBegin
  2
*D16
 70
1
 10
0.0
 20
0.0
 30
0.0
  3
*D16
  1

  0
LINE
  5
3F7
330
3F4
100
AcDbEntity
  8
DIM
 62
5
370
9
 48
3.0
440
16777216
100
AcDbLine
 10
3660.619989537983
 20
2901.424703867531
 30
0.0
 11
3605.4917809155886
 21
2901.424703867531
 31
0.0
  0
LINE
  5
3F8
330
3F4
100
AcDbEntity
  8
DIM
 62
5
370
9
 48
3.0
440
16777216
100
AcDbLine
 10
3660.619989537983
 20
1619.9247038675312
 30
0.0
 11
3605.4917809155886
 21
1619.9247038675312
 31
0.0
  0
LINE
  5
3F9
330
3F4
100
AcDbEntity
  8
DIM
 62
5
370
9
 48
3.0
440
16777216
100
AcDbLine
 10
3620.4917809155886
 20
2901.424703867531
 30
0.0
 11
3620.4917809155886
 21
1619.9247038675312
 31
0.0
  0
LINE
  5
3FA
330
3F4
100
AcDbEntity
  8
0
  6
ByBlock
 62
0
370
-2
100
AcDbLine
 10
3626.4917809155886
 20
2895.424703867531
 30
0.0
 11
3614.4917809155886
 21
2907.424703867531
 31
0.0
  0
LINE
  5
3FB
330
3F4
100
AcDbEntity
  8
0
  6
ByBlock
 62
0
370
-2
100
AcDbLine
 10
3614.4917809155886
 20
1625.9247038675312
 30
0.0
 11
3626.4917809155886
 21
1613.9247038675312
 31
0.0
  0
MTEXT
  5
3FC
330
3F4
100
AcDbEntity
  8
DIM
 62
3
 48
3.0
440
16777216
100
AcDbMText
 10
3588.6428723208082
 20
2260.6747038675603
 30
0.0
 40
33.0
 41
0.0
 46
0.0
 71
5
  1
1282
 11
1e-16
 21
1.0
 31
0.0
  0
POINT
  5
3FD
330
3F4
100
AcDbEntity
  8
Defpoints
 62
0
 48
3.0
440
16777216
100
AcDbPoint
 10
3685.619989537983
 20
2901.424703867531
 30
0.0
  0
POINT
  5
3FE
330
3F4
100
AcDbEntity
  8
Defpoints
 62
0
 48
3.0
440
16777216
100
AcDbPoint
 10
3685.619989537983
 20
1619.9247038675312
 30
0.0
  0
POINT
  5
3FF
330
3F4
100
AcDbEntity
  8
Defpoints
 62
0
 48
3.0
440
16777216
100
AcDbPoint
 10
3620.4917809155886
 20
1619.9247038675312
 30
0.0
  0
ENDBLK
  5
3F6
330
3F4
100
AcDbEntity
  8
0
100
AcDbBlockEnd
  0
BLOCK
  5
401
330
400
100
AcDbEntity
  8
0
100
AcDbBlockBegin
  2
*D17
 70
1
 10
0.0
 20
0.0
 30
0.0
  3
*D17
  1

  0
LINE
  5
403
330
400
100
AcDbEntity
  8
DIM
 62
5
370
9
 48
3.0
440
16777216
100
AcDbLine
 10
3954.703895868588
 20
1620.474168466637
 30
0.0
 11
3934.0865893583104
 21
1620.474168466637
 31
0.0
  0
LINE
  5
404
330
400
100
AcDbEntity
  8
DIM
 62
5
370
9
 48
3.0
440
16777216
100
AcDbLine
 10
3954.703895868588
 20
2740.474168466637
 30
0.0
 11
3934.0865893583104
 21
2740.474168466637
 31
0.0
  0
LINE
  5
405
330
400
100
AcDbEntity
  8
DIM
 62
5
370
9
 48
3.0
440
16777216
100
AcDbLine
 10
3949.0865893583104
 20
1620.474168466637
 30
0.0
 11
3949.0865893583104
 21
2740.474168466637
 31
0.0
  0
LINE
  5
406
330
400
100
AcDbEntity
  8
0
  6
ByBlock
 62
0
370
-2
100
AcDbLine
 10
3943.0865893583104
 20
1626.474168466637
 30
0.0
 11
3955.0865893583104
 21
1614.474168466637
 31
0.0
  0
LINE
  5
407
330
400
100
AcDbEntity
  8
0
  6
ByBlock
 62
0
370
-2
100
AcDbLine
 10
3955.0865893583104
 20
2734.474168466637
 30
0.0
 11
3943.0865893583104
 21
2746.474168466637
 31
0.0
  0
MTEXT
  5
408
330
400
100
AcDbEntity
  8
DIM
 62
3
 48
3.0
440
16777216
100
AcDbMText
 10
3917.237680763501
 20
2180.4741684666587
 30
0.0
 40
33.0
 41
0.0
 46
0.0
 71
5
  1
1120
 11
1e-16
 21
1.0
 31
0.0
  0
POINT
  5
409
330
400
100
AcDbEntity
  8
Defpoints
 62
0
 48
3.0
440
16777216
100
AcDbPoint
 10
3979.703895868588
 20
1620.474168466637
 30
0.0
  0
POINT
  5
40A
330
400
100
AcDbEntity
  8
Defpoints
 62
0
 48
3.0
440
16777216
100
AcDbPoint
 10
3979.703895868588
 20
2740.474168466637
 30
0.0
  0
POINT
  5
40B
330
400
100
AcDbEntity
  8
Defpoints
 62
0
 48
3.0
440
16777216
100
AcDbPoint
 10
3949.0865893583104
 20
2740.474168466637
 30
0.0
  0
ENDBLK
  5
402
330
400
100
AcDbEntity
  8
0
100
AcDbBlockEnd
  0
BLOCK
  5
40D
330
40C
100
AcDbEntity
  8
0
100
AcDbBlockBegin
  2
*D18
 70
1
 10
0.0
 20
0.0
 30
0.0
  3
*D18
  1

  0
LINE
  5
40F
330
40C
100
AcDbEntity
  8
DIM
 62
5
370
9
 48
3.0
440
16777216
100
AcDbLine
 10
3979.703895868588
 20
1595.474168466637
 30
0.0
 11
3979.703895868588
 21
1515.5706893976312
 31
0.0
  0
LINE
  5
410
330
40C
100
AcDbEntity
  8
DIM
 62
5
370
9
 48
3.0
440
16777216
100
AcDbLine
 10
4055.7038958687044
 20
1595.474168466637
 30
0.0
 11
4055.7038958687044
 21
1515.5706893976312
 31
0.0
  0
LINE
  5
411
330
40C
100
AcDbEntity
  8
DIM
 62
5
370
9
 48
3.0
440
16777216
100
AcDbLine
 10
3979.703895868588
 20
1530.5706893976385
 30
0.0
 11
4055.7038958687044
 21
1530.5706893976385
 31
0.0
  0
LINE
  5
412
330
40C
100
AcDbEntity
  8
0
  6
ByBlock
 62
0
370
-2
100
AcDbLine
 10
3985.703895868588
 20
1536.5706893976385
 30
0.0
 11
3973.703895868588
 21
1524.5706893976385
 31
0.0
  0
LINE
  5
413
330
40C
100
AcDbEntity
  8
0
  6
ByBlock
 62
0
370
-2
100
AcDbLine
 10
4049.7038958687044
 20
1524.5706893976385
 30
0.0
 11
4061.7038958687044
 21
1536.5706893976385
 31
0.0
  0
MTEXT
  5
414
330
40C
100
AcDbEntity
  8
DIM
 62
3
 48
3.0
440
16777216
100
AcDbMText
 10
4017.703895868588
 20
1562.419597992448
 30
0.0
 40
33.0
 41
0.0
 46
0.0
 71
5
  1
76
  0
POINT
  5
415
330
40C
100
AcDbEntity
  8
Defpoints
 62
0
 48
3.0
440
16777216
100
AcDbPoint
 10
3979.703895868588
 20
1620.474168466637
 30
0.0
  0
POINT
  5
416
330
40C
100
AcDbEntity
  8
Defpoints
 62
0
 48
3.0
440
16777216
100
AcDbPoint
 10
4055.7038958687044
 20
1620.474168466637
 30
0.0
  0
POINT
  5
417
330
40C
100
AcDbEntity
  8
Defpoints
 62
0
 48
3.0
440
16777216
100
AcDbPoint
 10
4055.7038958687044
 20
1530.5706893976385
 30
0.0
  0
ENDBLK
  5
40E
330
40C
100
AcDbEntity
  8
0
100
AcDbBlockEnd
  0
BLOCK
  5
419
330
418
100
AcDbEntity
  8
0
100
AcDbBlockBegin
  2
*D19
 70
1
 10
0.0
 20
0.0
 30
0.0
  3
*D19
  1

  0
LINE
  5
41B
330
418
100
AcDbEntity
  8
DIM
 62
5
370
9
 48
3.0
440
16777216
100
AcDbLine
 10
3994.7038958687044
 20
2765.474168466637
 30
0.0
 11
3994.7038958687044
 21
2882.2492450813297
 31
0.0
  0
LINE
  5
41C
330
418
100
AcDbEntity
  8
DIM
 62
5
370
9
 48
3.0
440
16777216
100
AcDbLine
 10
3979.703895868588
 20
2765.474168466637
 30
0.0
 11
3979.703895868588
 21
2882.2492450813297
 31
0.0
  0
LINE
  5
41D
330
418
100
AcDbEntity
  8
DIM
 62
5
370
9
 48
3.0
440
16777216
100
AcDbLine
 10
3994.7038958687044
 20
2867.2492450813297
 30
0.0
 11
4006.703895868588
 21
2867.2492450813297
 31
0.0
  0
LINE
  5
41E
330
418
100
AcDbEntity
  8
DIM
 62
5
370
9
 48
3.0
440
16777216
100
AcDbLine
 10
3979.703895868588
 20
2867.2492450813297
 30
0.0
 11
3881.2912082833936
 21
2867.2492450813297
 31
0.0
  0
LINE
  5
41F
330
418
100
AcDbEntity
  8
DIM
 62
5
370
9
 48
3.0
440
16777216
100
AcDbLine
 10
3994.7038958687044
 20
2867.2492450813297
 30
0.0
 11
3979.703895868588
 21
2867.2492450813297
 31
0.0
  0
LINE
  5
420
330
418
100
AcDbEntity
  8
0
  6
ByBlock
 62
0
370
-2
100
AcDbLine
 10
4000.7038958687044
 20
2873.2492450813297
 30
0.0
 11
3988.7038958687044
 21
2861.2492450813297
 31
0.0
  0
LINE
  5
421
330
418
100
AcDbEntity
  8
0
  6
ByBlock
 62
0
370
-2
100
AcDbLine
 10
3973.703895868588
 20
2861.2492450813297
 30
0.0
 11
3985.703895868588
 21
2873.2492450813297
 31
0.0
  0
MTEXT
  5
422
330
418
100
AcDbEntity
  8
DIM
 62
3
 48
3.0
440
16777216
100
AcDbMText
 10
3918.4975520760054
 20
2899.0981536761465
 30
0.0
 40
33.0
 41
0.0
 46
0.0
 71
5
  1
15
  0
POINT
  5
423
330
418
100
AcDbEntity
  8
Defpoints
 62
0
 48
3.0
440
16777216
100
AcDbPoint
 10
3994.7038958687044
 20
2740.474168466637
 30
0.0
  0
POINT
  5
424
330
418
100
AcDbEntity
  8
Defpoints
 62
0
 48
3.0
440
16777216
100
AcDbPoint
 10
3979.703895868588
 20
2740.474168466637
 30
0.0
  0
POINT
  5
425
330
418
100
AcDbEntity
  8
Defpoints
 62
0
 48
3.0
440
16777216
100
AcDbPoint
 10
3979.703895868588
 20
2867.2492450813297
 30
0.0
  0
ENDBLK
  5
41A
330
418
100
AcDbEntity
  8
0
100
AcDbBlockEnd
  0
BLOCK
  5
427
330
426
100
AcDbEntity
  8
0
100
AcDbBlockBegin
  2
*D20
 70
1
 10
0.0
 20
0.0
 30
0.0
  3
*D20
  1

  0
LINE
  5
429
330
426
100
AcDbEntity
  8
DIM
 62
5
370
9
 48
3.0
440
16777216
100
AcDbLine
 10
3994.7038958687044
 20
2765.474168466637
 30
0.0
 11
3994.7038958687044
 21
2882.2492450813297
 31
0.0
  0
LINE
  5
42A
330
426
100
AcDbEntity
  8
DIM
 62
5
370
9
 48
3.0
440
16777216
100
AcDbLine
 10
4044.703895868588
 20
2765.474168466637
 30
0.0
 11
4044.703895868588
 21
2882.2492450813297
 31
0.0
  0
LINE
  5
42B
330
426
100
AcDbEntity
  8
DIM
 62
5
370
9
 48
3.0
440
16777216
100
AcDbLine
 10
3994.7038958687044
 20
2867.2492450813297
 30
0.0
 11
4044.703895868588
 21
2867.2492450813297
 31
0.0
  0
LINE
  5
42C
330
426
100
AcDbEntity
  8
DIM
 62
5
370
9
 48
3.0
440
16777216
100
AcDbLine
 10
4044.703895868588
 20
2867.2492450813297
 30
0.0
 11
4133.862831748585
 21
2867.2492450813297
 31
0.0
  0
LINE
  5
42D
330
426
100
AcDbEntity
  8
0
  6
ByBlock
 62
0
370
-2
100
AcDbLine
 10
4000.7038958687044
 20
2873.2492450813297
 30
0.0
 11
3988.7038958687044
 21
2861.2492450813297
 31
0.0
  0
LINE
  5
42E
330
426
100
AcDbEntity
  8
0
  6
ByBlock
 62
0
370
-2
100
AcDbLine
 10
4038.703895868588
 20
2861.2492450813297
 30
0.0
 11
4050.703895868588
 21
2873.2492450813297
 31
0.0
  0
MTEXT
  5
42F
330
426
100
AcDbEntity
  8
DIM
 62
3
 48
3.0
440
16777216
100
AcDbMText
 10
4095.2833638085867
 20
2899.0981536761465
 30
0.0
 40
33.0
 41
0.0
 46
0.0
 71
5
  1
50
  0
POINT
  5
430
330
426
100
AcDbEntity
  8
Defpoints
 62
0
 48
3.0
440
16777216
100
AcDbPoint
 10
3994.7038958687044
 20
2740.474168466637
 30
0.0
  0
POINT
  5
431
330
426
100
AcDbEntity
  8
Defpoints
 62
0
 48
3.0
440
16777216
100
AcDbPoint
 10
4044.703895868588
 20
2740.474168466637
 30
0.0
  0
POINT
  5
432
330
426
100
AcDbEntity
  8
Defpoints
 62
0
 48
3.0
440
16777216
100
AcDbPoint
 10
4044.703895868588
 20
2867.2492450813297
 30
0.0
  0
ENDBLK
  5
428
330
426
100
AcDbEntity
  8
0
100
AcDbBlockEnd
  0
BLOCK
  5
434
330
433
100
AcDbEntity
  8
0
100
AcDbBlockBegin
  2
*D21
 70
1
 10
0.0
 20
0.0
 30
0.0
  3
*D21
  1

  0
LINE
  5
436
330
433
100
AcDbEntity
  8
DIM
 62
5
370
9
440
16777216
100
AcDbLine
 10
2089.847984531283
 20
896.9059500104122
 30
0.0
 11
2269.6282024018874
 21
896.9059500104122
 31
0.0
  0
LINE
  5
437
330
433
100
AcDbEntity
  8
DIM
 62
5
370
9
440
16777216
100
AcDbLine
 10
2089.847984531283
 20
696.9059500104195
 30
0.0
 11
2269.6282024018874
 21
696.9059500104195
 31
0.0
  0
LINE
  5
438
330
433
100
AcDbEntity
  8
DIM
 62
5
370
9
440
16777216
100
AcDbLine
 10
2254.6282024018874
 20
896.9059500104122
 30
0.0
 11
2254.6282024018874
 21
696.9059500104195
 31
0.0
  0
LINE
  5
439
330
433
100
AcDbEntity
  8
0
  6
ByBlock
 62
0
370
-2
100
AcDbLine
 10
2260.6282024018874
 20
890.9059500104122
 30
0.0
 11
2248.6282024018874
 21
902.9059500104122
 31
0.0
  0
LINE
  5
43A
330
433
100
AcDbEntity
  8
0
  6
ByBlock
 62
0
370
-2
100
AcDbLine
 10
2248.6282024018874
 20
702.9059500104195
 30
0.0
 11
2260.6282024018874
 21
690.9059500104195
 31
0.0
  0
MTEXT
  5
43B
330
433
100
AcDbEntity
  8
DIM
 62
3
440
16777216
100
AcDbMText
 10
2222.779293807107
 20
796.9059500104413
 30
0.0
 40
33.0
 41
0.0
 46
0.0
 71
5
  1
200
 11
1e-16
 21
1.0
 31
0.0
  0
POINT
  5
43C
330
433
100
AcDbEntity
  8
Defpoints
 62
0
440
16777216
100
AcDbPoint
 10
2064.847984531196
 20
896.9059500104122
 30
0.0
  0
POINT
  5
43D
330
433
100
AcDbEntity
  8
Defpoints
 62
0
440
16777216
100
AcDbPoint
 10
2064.847984531196
 20
696.9059500104195
 30
0.0
  0
POINT
  5
43E
330
433
100
AcDbEntity
  8
Defpoints
 62
0
440
16777216
100
AcDbPoint
 10
2254.6282024018874
 20
696.9059500104195
 30
0.0
  0
ENDBLK
  5
435
330
433
100
AcDbEntity
  8
0
100
AcDbBlockEnd
  0
BLOCK
  5
440
330
43F
100
AcDbEntity
  8
0
100
AcDbBlockBegin
  2
*D22
 70
1
 10
0.0
 20
0.0
 30
0.0
  3
*D22
  1

  0
LINE
  5
442
330
43F
100
AcDbEntity
  8
DIM
 62
5
370
9
440
16777216
100
AcDbLine
 10
1742.8479845311958
 20
721.9059500104122
 30
0.0
 11
1742.8479845311958
 21
589.1747952754667
 31
0.0
  0
LINE
  5
443
330
43F
100
AcDbEntity
  8
DIM
 62
5
370
9
440
16777216
100
AcDbLine
 10
2114.847984531283
 20
721.9059500104122
 30
0.0
 11
2114.847984531283
 21
589.1747952754667
 31
0.0
  0
LINE
  5
444
330
43F
100
AcDbEntity
  8
DIM
 62
5
370
9
440
16777216
100
AcDbLine
 10
1742.8479845311958
 20
604.1747952754667
 30
0.0
 11
2114.847984531283
 21
604.1747952754667
 31
0.0
  0
LINE
  5
445
330
43F
100
AcDbEntity
  8
0
  6
ByBlock
 62
0
370
-2
100
AcDbLine
 10
1748.8479845311958
 20
610.1747952754667
 30
0.0
 11
1736.8479845311958
 21
598.1747952754667
 31
0.0
  0
LINE
  5
446
330
43F
100
AcDbEntity
  8
0
  6
ByBlock
 62
0
370
-2
100
AcDbLine
 10
2108.847984531283
 20
598.1747952754667
 30
0.0
 11
2120.847984531283
 21
610.1747952754667
 31
0.0
  0
MTEXT
  5
447
330
43F
100
AcDbEntity
  8
DIM
 62
3
440
16777216
100
AcDbMText
 10
1928.8479845311958
 20
636.0349589862599
 30
0.0
 40
33.0
 41
0.0
 46
0.0
 71
5
  1
372
  0
POINT
  5
448
330
43F
100
AcDbEntity
  8
Defpoints
 62
0
440
16777216
100
AcDbPoint
 10
1742.8479845311958
 20
746.9059500104195
 30
0.0
  0
POINT
  5
449
330
43F
100
AcDbEntity
  8
Defpoints
 62
0
440
16777216
100
AcDbPoint
 10
2114.847984531283
 20
746.9059500104195
 30
0.0
  0
POINT
  5
44A
330
43F
100
AcDbEntity
  8
Defpoints
 62
0
440
16777216
100
AcDbPoint
 10
2114.847984531283
 20
604.1747952754667
 30
0.0
  0
ENDBLK
  5
441
330
43F
100
AcDbEntity
  8
0
100
AcDbBlockEnd
  0
BLOCK
  5
44C
330
44B
100
AcDbEntity
  8
0
100
AcDbBlockBegin
  2
*D23
 70
1
 10
0.0
 20
0.0
 30
0.0
  3
*D23
  1

  0
LINE
  5
44E
330
44B
100
AcDbEntity
  8
DIM
 62
5
370
9
440
16777216
100
AcDbLine
 10
1717.8479845311958
 20
846.9059500104122
 30
0.0
 11
1682.9113216554106
 21
846.9059500104122
 31
0.0
  0
LINE
  5
44F
330
44B
100
AcDbEntity
  8
DIM
 62
5
370
9
440
16777216
100
AcDbLine
 10
1717.8479845311958
 20
746.9059500104195
 30
0.0
 11
1682.9113216554106
 21
746.9059500104195
 31
0.0
  0
LINE
  5
450
330
44B
100
AcDbEntity
  8
DIM
 62
5
370
9
440
16777216
100
AcDbLine
 10
1697.9113216554106
 20
846.9059500104122
 30
0.0
 11
1697.9113216554106
 21
746.9059500104195
 31
0.0
  0
LINE
  5
451
330
44B
100
AcDbEntity
  8
0
  6
ByBlock
 62
0
370
-2
100
AcDbLine
 10
1703.9113216554106
 20
840.9059500104122
 30
0.0
 11
1691.9113216554106
 21
852.9059500104122
 31
0.0
  0
LINE
  5
452
330
44B
100
AcDbEntity
  8
0
  6
ByBlock
 62
0
370
-2
100
AcDbLine
 10
1691.9113216554106
 20
752.9059500104195
 30
0.0
 11
1703.9113216554106
 21
740.9059500104195
 31
0.0
  0
MTEXT
  5
453
330
44B
100
AcDbEntity
  8
DIM
 62
3
440
16777216
100
AcDbMText
 10
1666.062413060601
 20
796.9059500104413
 30
0.0
 40
33.0
 41
0.0
 46
0.0
 71
5
  1
100
 11
1e-16
 21
1.0
 31
0.0
  0
POINT
  5
454
330
44B
100
AcDbEntity
  8
Defpoints
 62
0
440
16777216
100
AcDbPoint
 10
1742.8479845311958
 20
846.9059500104122
 30
0.0
  0
POINT
  5
455
330
44B
100
AcDbEntity
  8
Defpoints
 62
0
440
16777216
100
AcDbPoint
 10
1742.8479845311958
 20
746.9059500104195
 30
0.0
  0
POINT
  5
456
330
44B
100
AcDbEntity
  8
Defpoints
 62
0
440
16777216
100
AcDbPoint
 10
1697.9113216554106
 20
746.9059500104195
 30
0.0
  0
ENDBLK
  5
44D
330
44B
100
AcDbEntity
  8
0
100
AcDbBlockEnd
  0
BLOCK
  5
458
330
457
100
AcDbEntity
  8
0
100
AcDbBlockBegin
  2
*D24
 70
1
 10
0.0
 20
0.0
 30
0.0
  3
*D24
  1

  0
LINE
  5
45A
330
457
100
AcDbEntity
  8
DIM
 62
5
370
9
440
16777216
100
AcDbLine
 10
1717.8479845311958
 20
846.9059500104122
 30
0.0
 11
1682.9113216554106
 21
846.9059500104122
 31
0.0
  0
LINE
  5
45B
330
457
100
AcDbEntity
  8
DIM
 62
5
370
9
440
16777216
100
AcDbLine
 10
1767.8479845312831
 20
896.9059500104122
 30
0.0
 11
1682.9113216554106
 21
896.9059500104122
 31
0.0
  0
LINE
  5
45C
330
457
100
AcDbEntity
  8
DIM
 62
5
370
9
440
16777216
100
AcDbLine
 10
1697.9113216554106
 20
846.9059500104122
 30
0.0
 11
1697.9113216554106
 21
896.9059500104122
 31
0.0
  0
LINE
  5
45D
330
457
100
AcDbEntity
  8
DIM
 62
5
370
9
440
16777216
100
AcDbLine
 10
1697.9113216554106
 20
896.9059500104122
 30
0.0
 11
1697.9113216554106
 21
986.0648858903587
 31
0.0
  0
LINE
  5
45E
330
457
100
AcDbEntity
  8
0
  6
ByBlock
 62
0
370
-2
100
AcDbLine
 10
1691.9113216554106
 20
852.9059500104122
 30
0.0
 11
1703.9113216554106
 21
840.9059500104122
 31
0.0
  0
LINE
  5
45F
330
457
100
AcDbEntity
  8
0
  6
ByBlock
 62
0
370
-2
100
AcDbLine
 10
1703.9113216554106
 20
890.9059500104122
 30
0.0
 11
1691.9113216554106
 21
902.9059500104122
 31
0.0
  0
MTEXT
  5
460
330
457
100
AcDbEntity
  8
DIM
 62
3
440
16777216
100
AcDbMText
 10
1666.062413060601
 20
947.4854179504182
 30
0.0
 40
33.0
 41
0.0
 46
0.0
 71
5
  1
50
 11
1e-16
 21
1.0
 31
0.0
  0
POINT
  5
461
330
457
100
AcDbEntity
  8
Defpoints
 62
0
440
16777216
100
AcDbPoint
 10
1742.8479845311958
 20
846.9059500104122
 30
0.0
  0
POINT
  5
462
330
457
100
AcDbEntity
  8
Defpoints
 62
0
440
16777216
100
AcDbPoint
 10
1792.8479845311958
 20
896.9059500104122
 30
0.0
  0
POINT
  5
463
330
457
100
AcDbEntity
  8
Defpoints
 62
0
440
16777216
100
AcDbPoint
 10
1697.9113216554106
 20
896.9059500104122
 30
0.0
  0
ENDBLK
  5
459
330
457
100
AcDbEntity
  8
0
100
AcDbBlockEnd
  0
BLOCK
  5
465
330
464
100
AcDbEntity
  8
0
100
AcDbBlockBegin
  2
*D25
 70
1
 10
0.0
 20
0.0
 30
0.0
  3
*D25
  1

  0
LINE
  5
467
330
464
100
AcDbEntity
  8
DIM
 62
5
370
9
440
16777216
100
AcDbLine
 10
1717.8479845311958
 20
746.9059500104195
 30
0.0
 11
1682.9113216554106
 21
746.9059500104195
 31
0.0
  0
LINE
  5
468
330
464
100
AcDbEntity
  8
DIM
 62
5
370
9
440
16777216
100
AcDbLine
 10
1767.8479845312831
 20
696.9059500104195
 30
0.0
 11
1682.9113216554106
 21
696.9059500104195
 31
0.0
  0
LINE
  5
469
330
464
100
AcDbEntity
  8
DIM
 62
5
370
9
440
16777216
100
AcDbLine
 10
1697.9113216554106
 20
746.9059500104195
 30
0.0
 11
1697.9113216554106
 21
696.9059500104195
 31
0.0
  0
LINE
  5
46A
330
464
100
AcDbEntity
  8
DIM
 62
5
370
9
440
16777216
100
AcDbLine
 10
1697.9113216554106
 20
696.9059500104195
 30
0.0
 11
1697.9113216554106
 21
607.7470141304657
 31
0.0
  0
LINE
  5
46B
330
464
100
AcDbEntity
  8
0
  6
ByBlock
 62
0
370
-2
100
AcDbLine
 10
1703.9113216554106
 20
740.9059500104195
 30
0.0
 11
1691.9113216554106
 21
752.9059500104195
 31
0.0
  0
LINE
  5
46C
330
464
100
AcDbEntity
  8
0
  6
ByBlock
 62
0
370
-2
100
AcDbLine
 10
1691.9113216554106
 20
702.9059500104195
 30
0.0
 11
1703.9113216554106
 21
690.9059500104195
 31
0.0
  0
MTEXT
  5
46D
330
464
100
AcDbEntity
  8
DIM
 62
3
440
16777216
100
AcDbMText
 10
1666.062413060601
 20
646.3264820704717
 30
0.0
 40
33.0
 41
0.0
 46
0.0
 71
5
  1
50
 11
1e-16
 21
1.0
 31
0.0
  0
POINT
  5
46E
330
464
100
AcDbEntity
  8
Defpoints
 62
0
440
16777216
100
AcDbPoint
 10
1742.8479845311958
 20
746.9059500104195
 30
0.0
  0
POINT
  5
46F
330
464
100
AcDbEntity
  8
Defpoints
 62
0
440
16777216
100
AcDbPoint
 10
1792.8479845311958
 20
696.9059500104195
 30
0.0
  0
POINT
  5
470
330
464
100
AcDbEntity
  8
Defpoints
 62
0
440
16777216
100
AcDbPoint
 10
1697.9113216554106
 20
696.9059500104195
 30
0.0
  0
ENDBLK
  5
466
330
464
100
AcDbEntity
  8
0
100
AcDbBlockEnd
  0
BLOCK
  5
472
330
471
100
AcDbEntity
  8
0
100
AcDbBlockBegin
  2
*D26
 70
1
 10
0.0
 20
0.0
 30
0.0
  3
*D26
  1

  0
LINE
  5
474
330
471
100
AcDbEntity
  8
DIM
 62
5
370
9
440
16777216
100
AcDbLine
 10
4150.466020507301
 20
998.8338780687554
 30
0.0
 11
4238.786871594086
 21
998.8338780687554
 31
0.0
  0
LINE
  5
475
330
471
100
AcDbEntity
  8
DIM
 62
5
370
9
440
16777216
100
AcDbLine
 10
4110.466020507301
 20
1038.8338780687482
 30
0.0
 11
4238.786871594086
 21
1038.8338780687482
 31
0.0
  0
LINE
  5
476
330
471
100
AcDbEntity
  8
DIM
 62
5
370
9
440
16777216
100
AcDbLine
 10
4223.786871594086
 20
998.8338780687554
 30
0.0
 11
4223.786871594086
 21
1038.8338780687482
 31
0.0
  0
LINE
  5
477
330
471
100
AcDbEntity
  8
DIM
 62
5
370
9
440
16777216
100
AcDbLine
 10
4223.786871594086
 20
1038.8338780687482
 30
0.0
 11
4223.786871594086
 21
1129.3209176321907
 31
0.0
  0
LINE
  5
478
330
471
100
AcDbEntity
  8
0
  6
ByBlock
 62
0
370
-2
100
AcDbLine
 10
4217.786871594086
 20
1004.8338780687554
 30
0.0
 11
4229.786871594086
 21
992.8338780687554
 31
0.0
  0
LINE
  5
479
330
471
100
AcDbEntity
  8
0
  6
ByBlock
 62
0
370
-2
100
AcDbLine
 10
4229.786871594086
 20
1032.8338780687482
 30
0.0
 11
4217.786871594086
 21
1044.8338780687482
 31
0.0
  0
MTEXT
  5
47A
330
471
100
AcDbEntity
  8
DIM
 62
3
440
16777216
100
AcDbMText
 10
4191.9379629993055
 20
1090.0773978504876
 30
0.0
 40
33.0
 41
0.0
 46
0.0
 71
5
  1
40
 11
1e-16
 21
1.0
 31
0.0
  0
POINT
  5
47B
330
471
100
AcDbEntity
  8
Defpoints
 62
0
440
16777216
100
AcDbPoint
 10
4125.466020507301
 20
998.8338780687554
 30
0.0
  0
POINT
  5
47C
330
471
100
AcDbEntity
  8
Defpoints
 62
0
440
16777216
100
AcDbPoint
 10
4085.4660205073014
 20
1038.8338780687482
 30
0.0
  0
POINT
  5
47D
330
471
100
AcDbEntity
  8
Defpoints
 62
0
440
16777216
100
AcDbPoint
 10
4223.786871594086
 20
1038.8338780687482
 30
0.0
  0
ENDBLK
  5
473
330
471
100
AcDbEntity
  8
0
100
AcDbBlockEnd
  0
BLOCK
  5
47F
330
47E
100
AcDbEntity
  8
0
100
AcDbBlockBegin
  2
*D27
 70
1
 10
0.0
 20
0.0
 30
0.0
  3
*D27
  1

  0
LINE
  5
481
330
47E
100
AcDbEntity
  8
DIM
 62
5
370
9
440
16777216
100
AcDbLine
 10
2857.4660205073014
 20
1038.8338780687482
 30
0.0
 11
2804.3200565915904
 21
1038.8338780687482
 31
0.0
  0
LINE
  5
482
330
47E
100
AcDbEntity
  8
DIM
 62
5
370
9
440
16777216
100
AcDbLine
 10
2857.4660205073014
 20
538.0632895249582
 30
0.0
 11
2804.3200565915904
 21
538.0632895249582
 31
0.0
  0
LINE
  5
483
330
47E
100
AcDbEntity
  8
DIM
 62
5
370
9
440
16777216
100
AcDbLine
 10
2819.3200565915904
 20
1038.8338780687482
 30
0.0
 11
2819.3200565915904
 21
538.0632895249582
 31
0.0
  0
LINE
  5
484
330
47E
100
AcDbEntity
  8
0
  6
ByBlock
 62
0
370
-2
100
AcDbLine
 10
2825.3200565915904
 20
1032.8338780687482
 30
0.0
 11
2813.3200565915904
 21
1044.8338780687482
 31
0.0
  0
LINE
  5
485
330
47E
100
AcDbEntity
  8
0
  6
ByBlock
 62
0
370
-2
100
AcDbLine
 10
2813.3200565915904
 20
544.0632895249582
 30
0.0
 11
2825.3200565915904
 21
532.0632895249582
 31
0.0
  0
MTEXT
  5
486
330
47E
100
AcDbEntity
  8
DIM
 62
3
440
16777216
100
AcDbMText
 10
2787.47114799681
 20
788.4485837968823
 30
0.0
 40
33.0
 41
0.0
 46
0.0
 71
5
  1
501
 11
1e-16
 21
1.0
 31
0.0
  0
POINT
  5
487
330
47E
100
AcDbEntity
  8
Defpoints
 62
0
440
16777216
100
AcDbPoint
 10
2882.466020507185
 20
1038.8338780687482
 30
0.0
  0
POINT
  5
488
330
47E
100
AcDbEntity
  8
Defpoints
 62
0
440
16777216
100
AcDbPoint
 10
2882.466020507185
 20
538.0632895249582
 30
0.0
  0
POINT
  5
489
330
47E
100
AcDbEntity
  8
Defpoints
 62
0
440
16777216
100
AcDbPoint
 10
2819.3200565915904
 20
538.0632895249582
 30
0.0
  0
ENDBLK
  5
480
330
47E
100
AcDbEntity
  8
0
100
AcDbBlockEnd
  0
BLOCK
  5
48B
330
48A
100
AcDbEntity
  8
0
100
AcDbBlockBegin
  2
*D28
 70
1
 10
0.0
 20
0.0
 30
0.0
  3
*D28
  1

  0
LINE
  5
48D
330
48A
100
AcDbEntity
  8
DIM
 62
5
370
9
440
16777216
100
AcDbLine
 10
2842.4660205073014
 20
1023.8338780687482
 30
0.0
 11
2842.4660205073014
 21
1100.0389057788489
 31
0.0
  0
LINE
  5
48E
330
48A
100
AcDbEntity
  8
DIM
 62
5
370
9
440
16777216
100
AcDbLine
 10
4125.466020507301
 20
1023.8338780687482
 30
0.0
 11
4125.466020507301
 21
1100.0389057788489
 31
0.0
  0
LINE
  5
48F
330
48A
100
AcDbEntity
  8
DIM
 62
5
370
9
440
16777216
100
AcDbLine
 10
2842.4660205073014
 20
1085.0389057788489
 30
0.0
 11
4125.466020507301
 21
1085.0389057788489
 31
0.0
  0
LINE
  5
490
330
48A
100
AcDbEntity
  8
0
  6
ByBlock
 62
0
370
-2
100
AcDbLine
 10
2848.4660205073014
 20
1091.0389057788489
 30
0.0
 11
2836.4660205073014
 21
1079.0389057788489
 31
0.0
  0
LINE
  5
491
330
48A
100
AcDbEntity
  8
0
  6
ByBlock
 62
0
370
-2
100
AcDbLine
 10
4119.466020507301
 20
1079.0389057788489
 30
0.0
 11
4131.466020507301
 21
1091.0389057788489
 31
0.0
  0
MTEXT
  5
492
330
48A
100
AcDbEntity
  8
DIM
 62
3
440
16777216
100
AcDbMText
 10
3483.9660205073014
 20
1116.8990694896202
 30
0.0
 40
33.0
 41
0.0
 46
0.0
 71
5
  1
1283
  0
POINT
  5
493
330
48A
100
AcDbEntity
  8
Defpoints
 62
0
440
16777216
100
AcDbPoint
 10
2842.4660205073014
 20
998.8338780687554
 30
0.0
  0
POINT
  5
494
330
48A
100
AcDbEntity
  8
Defpoints
 62
0
440
16777216
100
AcDbPoint
 10
4125.466020507301
 20
998.8338780687554
 30
0.0
  0
POINT
  5
495
330
48A
100
AcDbEntity
  8
Defpoints
 62
0
440
16777216
100
AcDbPoint
 10
4125.466020507301
 20
1085.0389057788489
 30
0.0
  0
ENDBLK
  5
48C
330
48A
100
AcDbEntity
  8
0
100
AcDbBlockEnd
  0
BLOCK
  5
497
330
496
100
AcDbEntity
  8
0
100
AcDbBlockBegin
  2
*D29
 70
1
 10
0.0
 20
0.0
 30
0.0
  3
*D29
  1

  0
LINE
  5
499
330
496
100
AcDbEntity
  8
DIM
 62
5
370
9
440
16777216
100
AcDbLine
 10
4110.466020507301
 20
737.5632895249655
 30
0.0
 11
4238.786871594086
 21
737.5632895249655
 31
0.0
  0
LINE
  5
49A
330
496
100
AcDbEntity
  8
DIM
 62
5
370
9
440
16777216
100
AcDbLine
 10
4150.466020507301
 20
998.8338780687554
 30
0.0
 11
4238.786871594086
 21
998.8338780687554
 31
0.0
  0
LINE
  5
49B
330
496
100
AcDbEntity
  8
DIM
 62
5
370
9
440
16777216
100
AcDbLine
 10
4223.786871594086
 20
737.5632895249655
 30
0.0
 11
4223.786871594086
 21
998.8338780687554
 31
0.0
  0
LINE
  5
49C
330
496
100
AcDbEntity
  8
0
  6
ByBlock
 62
0
370
-2
100
AcDbLine
 10
4217.786871594086
 20
743.5632895249655
 30
0.0
 11
4229.786871594086
 21
731.5632895249655
 31
0.0
  0
LINE
  5
49D
330
496
100
AcDbEntity
  8
0
  6
ByBlock
 62
0
370
-2
100
AcDbLine
 10
4229.786871594086
 20
992.8338780687554
 30
0.0
 11
4217.786871594086
 21
1004.8338780687554
 31
0.0
  0
MTEXT
  5
49E
330
496
100
AcDbEntity
  8
DIM
 62
3
440
16777216
100
AcDbMText
 10
4191.9379629993055
 20
868.1985837968823
 30
0.0
 40
33.0
 41
0.0
 46
0.0
 71
5
  1
261
 11
1e-16
 21
1.0
 31
0.0
  0
POINT
  5
49F
330
496
100
AcDbEntity
  8
Defpoints
 62
0
440
16777216
100
AcDbPoint
 10
4085.4660205073014
 20
737.5632895249655
 30
0.0
  0
POINT
  5
4A0
330
496
100
AcDbEntity
  8
Defpoints
 62
0
440
16777216
100
AcDbPoint
 10
4125.466020507301
 20
998.8338780687554
 30
0.0
  0
POINT
  5
4A1
330
496
100
AcDbEntity
  8
Defpoints
 62
0
440
16777216
100
AcDbPoint
 10
4223.786871594086
 20
998.8338780687554
 30
0.0
  0
ENDBLK
  5
498
330
496
100
AcDbEntity
  8
0
100
AcDbBlockEnd
  0
BLOCK
  5
4A3
330
4A2
100
AcDbEntity
  8
0
100
AcDbBlockBegin
  2
*D30
 70
1
 10
0.0
 20
0.0
 30
0.0
  3
*D30
  1

  0
LINE
  5
4A5
330
4A2
100
AcDbEntity
  8
0
 62
5
370
9
 48
3.0
440
16777216
100
AcDbLine
 10
2882.466020507185
 20
523.0632895249582
 30
0.0
 11
2882.466020507185
 21
403.7665463690064
 31
0.0
  0
LINE
  5
4A6
330
4A2
100
AcDbEntity
  8
0
 62
5
370
9
 48
3.0
440
16777216
100
AcDbLine
 10
4085.4660205073014
 20
523.0632895249582
 30
0.0
 11
4085.4660205073014
 21
403.7665463690064
 31
0.0
  0
LINE
  5
4A7
330
4A2
100
AcDbEntity
  8
0
 62
5
370
9
 48
3.0
440
16777216
100
AcDbLine
 10
2882.466020507185
 20
413.7665463690064
 30
0.0
 11
4085.4660205073014
 21
413.7665463690064
 31
0.0
  0
LINE
  5
4A8
330
4A2
100
AcDbEntity
  8
0
  6
ByBlock
 62
0
370
-2
100
AcDbLine
 10
2886.466020507185
 20
417.7665463690064
 30
0.0
 11
2878.466020507185
 21
409.7665463690064
 31
0.0
  0
LINE
  5
4A9
330
4A2
100
AcDbEntity
  8
0
  6
ByBlock
 62
0
370
-2
100
AcDbLine
 10
4081.4660205073014
 20
409.7665463690064
 30
0.0
 11
4089.4660205073014
 21
417.7665463690064
 31
0.0
  0
MTEXT
  5
4AA
330
4A2
100
AcDbEntity
  8
0
 62
3
 48
3.0
440
16777216
100
AcDbMText
 10
3483.9660205073014
 20
436.5393976650521
 30
0.0
 40
25.0
 41
0.0
 46
0.0
 71
5
  1
1203
  0
POINT
  5
4AB
330
4A2
100
AcDbEntity
  8
Defpoints
 62
0
 48
3.0
440
16777216
100
AcDbPoint
 10
2882.466020507185
 20
538.0632895249582
 30
0.0
  0
POINT
  5
4AC
330
4A2
100
AcDbEntity
  8
Defpoints
 62
0
 48
3.0
440
16777216
100
AcDbPoint
 10
4085.4660205073014
 20
538.0632895249582
 30
0.0
  0
POINT
  5
4AD
330
4A2
100
AcDbEntity
  8
Defpoints
 62
0
 48
3.0
440
16777216
100
AcDbPoint
 10
4085.4660205073014
 20
413.7665463690064
 30
0.0
  0
ENDBLK
  5
4A4
330
4A2
100
AcDbEntity
  8
0
100
AcDbBlockEnd
  0
BLOCK
  5
4AF
330
4AE
100
AcDbEntity
  8
0
100
AcDbBlockBegin
  2
*D31
 70
1
 10
0.0
 20
0.0
 30
0.0
  3
*D31
  1

  0
LINE
  5
4B1
330
4AE
100
AcDbEntity
  8
0
 62
5
370
9
 48
3.0
440
16777216
100
AcDbLine
 10
2343.2148114221927
 20
1638.1747038675167
 30
0.0
 11
2343.2148114221927
 21
1506.558885606857
 31
0.0
  0
LINE
  5
4B2
330
4AE
100
AcDbEntity
  8
0
 62
5
370
9
 48
3.0
440
16777216
100
AcDbLine
 10
3488.2148114221927
 20
1638.1747038675167
 30
0.0
 11
3488.2148114221927
 21
1506.558885606857
 31
0.0
  0
LINE
  5
4B3
330
4AE
100
AcDbEntity
  8
0
 62
5
370
9
 48
3.0
440
16777216
100
AcDbLine
 10
2348.2148114221927
 20
1511.5588856068498
 30
0.0
 11
3483.2148114221927
 21
1511.5588856068498
 31
0.0
  0
LINE
  5
4B4
330
4AE
100
AcDbEntity
  8
0
  6
ByBlock
 62
0
370
-2
100
AcDbLine
 10
2348.2148114221927
 20
1510.2191396568523
 30
0.0
 11
2343.2148114221927
 21
1511.5588856068498
 31
0.0
  0
LINE
  5
4B5
330
4AE
100
AcDbEntity
  8
0
  6
ByBlock
 62
0
370
-2
100
AcDbLine
 10
2343.2148114221927
 20
1511.5588856068498
 30
0.0
 11
2348.2148114221927
 21
1512.8986315568472
 31
0.0
  0
LINE
  5
4B6
330
4AE
100
AcDbEntity
  8
0
  6
ByBlock
 62
0
370
-2
100
AcDbLine
 10
2343.2148114221927
 20
1511.5588856068498
 30
0.0
 11
2348.2148114221927
 21
1511.5588856068498
 31
0.0
  0
LINE
  5
4B7
330
4AE
100
AcDbEntity
  8
0
  6
ByBlock
 62
0
370
-2
100
AcDbLine
 10
3483.2148114221927
 20
1512.8986315568472
 30
0.0
 11
3488.2148114221927
 21
1511.5588856068498
 31
0.0
  0
LINE
  5
4B8
330
4AE
100
AcDbEntity
  8
0
  6
ByBlock
 62
0
370
-2
100
AcDbLine
 10
3488.2148114221927
 20
1511.5588856068498
 30
0.0
 11
3483.2148114221927
 21
1510.2191396568523
 31
0.0
  0
LINE
  5
4B9
330
4AE
100
AcDbEntity
  8
0
  6
ByBlock
 62
0
370
-2
100
AcDbLine
 10
3488.2148114221927
 20
1511.5588856068498
 30
0.0
 11
3483.2148114221927
 21
1511.5588856068498
 31
0.0
  0
MTEXT
  5
4BA
330
4AE
100
AcDbEntity
  8
0
 62
3
 48
3.0
440
16777216
100
AcDbMText
 10
2915.7148114221927
 20
1547.0875349929265
 30
0.0
 40
50.0
 41
0.0
 46
0.0
 71
5
  1
1145
  0
POINT
  5
4BB
330
4AE
100
AcDbEntity
  8
Defpoints
 62
0
 48
3.0
440
16777216
100
AcDbPoint
 10
2343.2148114221927
 20
1653.1747038675167
 30
0.0
  0
POINT
  5
4BC
330
4AE
100
AcDbEntity
  8
Defpoints
 62
0
 48
3.0
440
16777216
100
AcDbPoint
 10
3488.2148114221927
 20
1653.1747038675167
 30
0.0
  0
POINT
  5
4BD
330
4AE
100
AcDbEntity
  8
Defpoints
 62
0
 48
3.0
440
16777216
100
AcDbPoint
 10
3488.2148114221927
 20
1511.5588856068498
 30
0.0
  0
ENDBLK
  5
4B0
330
4AE
100
AcDbEntity
  8
0
100
AcDbBlockEnd
  0
BLOCK
  5
4BF
330
4BE
100
AcDbEntity
  8
0
100
AcDbBlockBegin
  2
*D32
 70
1
 10
0.0
 20
0.0
 30
0.0
  3
*D32
  1

  0
LINE
  5
4C1
330
4BE
100
AcDbEntity
  8
DIM
 62
5
370
9
440
16777216
100
AcDbLine
 10
244.16737816520617
 20
2994.174703867531
 30
0.0
 11
244.16737816520617
 21
3084.528373934336
 31
0.0
  0
LINE
  5
4C2
330
4BE
100
AcDbEntity
  8
DIM
 62
5
370
9
440
16777216
100
AcDbLine
 10
223.16737816520617
 20
2973.174703867531
 30
0.0
 11
223.16737816520617
 21
3084.528373934336
 31
0.0
  0
LINE
  5
4C3
330
4BE
100
AcDbEntity
  8
DIM
 62
5
370
9
440
16777216
100
AcDbLine
 10
244.16737816520617
 20
3069.5283739343286
 30
0.0
 11
256.1673781652062
 21
3069.5283739343286
 31
0.0
  0
LINE
  5
4C4
330
4BE
100
AcDbEntity
  8
DIM
 62
5
370
9
440
16777216
100
AcDbLine
 10
223.16737816520617
 20
3069.5283739343286
 30
0.0
 11
127.70353096190956
 21
3069.5283739343286
 31
0.0
  0
LINE
  5
4C5
330
4BE
100
AcDbEntity
  8
DIM
 62
5
370
9
440
16777216
100
AcDbLine
 10
244.16737816520617
 20
3069.5283739343286
 30
0.0
 11
223.16737816520617
 21
3069.5283739343286
 31
0.0
  0
LINE
  5
4C6
330
4BE
100
AcDbEntity
  8
0
  6
ByBlock
 62
0
370
-2
100
AcDbLine
 10
250.16737816520617
 20
3075.5283739343286
 30
0.0
 11
238.16737816520617
 21
3063.5283739343286
 31
0.0
  0
LINE
  5
4C7
330
4BE
100
AcDbEntity
  8
0
  6
ByBlock
 62
0
370
-2
100
AcDbLine
 10
217.16737816520617
 20
3063.5283739343286
 30
0.0
 11
229.16737816520617
 21
3075.5283739343286
 31
0.0
  0
MTEXT
  5
4C8
330
4BE
100
AcDbEntity
  8
DIM
 62
3
440
16777216
100
AcDbMText
 10
163.43545456358697
 20
3101.095904630107
 30
0.0
 40
33.0
 41
0.0
 46
0.0
 71
5
  1
21
  0
POINT
  5
4C9
330
4BE
100
AcDbEntity
  8
Defpoints
 62
0
440
16777216
100
AcDbPoint
 10
244.16737816520617
 20
2969.174703867531
 30
0.0
  0
POINT
  5
4CA
330
4BE
100
AcDbEntity
  8
Defpoints
 62
0
440
16777216
100
AcDbPoint
 10
223.16737816520617
 20
2948.174703867531
 30
0.0
  0
POINT
  5
4CB
330
4BE
100
AcDbEntity
  8
Defpoints
 62
0
440
16777216
100
AcDbPoint
 10
223.16737816520617
 20
3069.5283739343286
 30
0.0
  0
ENDBLK
  5
4C0
330
4BE
100
AcDbEntity
  8
0
100
AcDbBlockEnd
  0
BLOCK
  5
4CD
330
4CC
100
AcDbEntity
  8
0
100
AcDbBlockBegin
  2
*D33
 70
1
 10
0.0
 20
0.0
 30
0.0
  3
*D33
  1

  0
LINE
  5
4CF
330
4CC
100
AcDbEntity
  8
DIM
 62
5
370
9
440
16777216
100
AcDbLine
 10
244.16737816520617
 20
2994.174703867531
 30
0.0
 11
244.16737816520617
 21
3084.528373934336
 31
0.0
  0
LINE
  5
4D0
330
4CC
100
AcDbEntity
  8
DIM
 62
5
370
9
440
16777216
100
AcDbLine
 10
839.1673781652062
 20
2994.174703867531
 30
0.0
 11
839.1673781652062
 21
3084.528373934336
 31
0.0
  0
LINE
  5
4D1
330
4CC
100
AcDbEntity
  8
DIM
 62
5
370
9
440
16777216
100
AcDbLine
 10
244.16737816520617
 20
3069.5283739343286
 30
0.0
 11
839.1673781652062
 21
3069.5283739343286
 31
0.0
  0
LINE
  5
4D2
330
4CC
100
AcDbEntity
  8
0
  6
ByBlock
 62
0
370
-2
100
AcDbLine
 10
250.16737816520617
 20
3075.5283739343286
 30
0.0
 11
238.16737816520617
 21
3063.5283739343286
 31
0.0
  0
LINE
  5
4D3
330
4CC
100
AcDbEntity
  8
0
  6
ByBlock
 62
0
370
-2
100
AcDbLine
 10
833.1673781652062
 20
3063.5283739343286
 30
0.0
 11
845.1673781652062
 21
3075.5283739343286
 31
0.0
  0
MTEXT
  5
4D4
330
4CC
100
AcDbEntity
  8
DIM
 62
3
440
16777216
100
AcDbMText
 10
541.6673781652062
 20
3101.3772825291453
 30
0.0
 40
33.0
 41
0.0
 46
0.0
 71
5
  1
595
  0
POINT
  5
4D5
330
4CC
100
AcDbEntity
  8
Defpoints
 62
0
440
16777216
100
AcDbPoint
 10
244.16737816520617
 20
2969.174703867531
 30
0.0
  0
POINT
  5
4D6
330
4CC
100
AcDbEntity
  8
Defpoints
 62
0
440
16777216
100
AcDbPoint
 10
839.1673781652062
 20
2969.174703867531
 30
0.0
  0
POINT
  5
4D7
330
4CC
100
AcDbEntity
  8
Defpoints
 62
0
440
16777216
100
AcDbPoint
 10
839.1673781652062
 20
3069.5283739343286
 30
0.0
  0
ENDBLK
  5
4CE
330
4CC
100
AcDbEntity
  8
0
100
AcDbBlockEnd
  0
BLOCK
  5
4D9
330
4D8
100
AcDbEntity
  8
0
100
AcDbBlockBegin
  2
*D34
 70
1
 10
0.0
 20
0.0
 30
0.0
  3
*D34
  1

  0
LINE
  5
4DB
330
4D8
100
AcDbEntity
  8
DIM
 62
5
370
9
440
16777216
100
AcDbLine
 10
897.1673781652062
 20
1613.6747038665999
 30
0.0
 11
897.1673781652062
 21
1490.5369954567286
 31
0.0
  0
LINE
  5
4DC
330
4D8
100
AcDbEntity
  8
DIM
 62
5
370
9
440
16777216
100
AcDbLine
 10
211.16737816520617
 20
1592.1747038665853
 30
0.0
 11
211.16737816520617
 21
1490.5369954567286
 31
0.0
  0
LINE
  5
4DD
330
4D8
100
AcDbEntity
  8
DIM
 62
5
370
9
440
16777216
100
AcDbLine
 10
897.1673781652062
 20
1505.5369954567286
 30
0.0
 11
211.16737816520617
 21
1505.5369954567286
 31
0.0
  0
LINE
  5
4DE
330
4D8
100
AcDbEntity
  8
0
  6
ByBlock
 62
0
370
-2
100
AcDbLine
 10
891.1673781652062
 20
1499.5369954567286
 30
0.0
 11
903.1673781652062
 21
1511.5369954567286
 31
0.0
  0
LINE
  5
4DF
330
4D8
100
AcDbEntity
  8
0
  6
ByBlock
 62
0
370
-2
100
AcDbLine
 10
217.16737816520617
 20
1511.5369954567286
 30
0.0
 11
205.16737816520617
 21
1499.5369954567286
 31
0.0
  0
MTEXT
  5
4E0
330
4D8
100
AcDbEntity
  8
DIM
 62
3
440
16777216
100
AcDbMText
 10
554.1673781652062
 20
1537.3859040515454
 30
0.0
 40
33.0
 41
0.0
 46
0.0
 71
5
  1
686
  0
POINT
  5
4E1
330
4D8
100
AcDbEntity
  8
Defpoints
 62
0
440
16777216
100
AcDbPoint
 10
897.1673781652062
 20
1638.6747038665999
 30
0.0
  0
POINT
  5
4E2
330
4D8
100
AcDbEntity
  8
Defpoints
 62
0
440
16777216
100
AcDbPoint
 10
211.16737816520617
 20
1617.1747038665999
 30
0.0
  0
POINT
  5
4E3
330
4D8
100
AcDbEntity
  8
Defpoints
 62
0
440
16777216
100
AcDbPoint
 10
211.16737816520617
 20
1505.5369954567286
 30
0.0
  0
ENDBLK
  5
4DA
330
4D8
100
AcDbEntity
  8
0
100
AcDbBlockEnd
  0
ENDSEC
  0
SECTION
  2
ENTITIES
  0
LINE
  5
2F
330
17
100
AcDbEntity
  8
0
 62
7
100
AcDbLine
 10
278.4290952447045
 20
883.2182390748712
 30
0.0
 11
1374.4290952447045
 21
883.2182390748712
 31
0.0
  0
LINE
  5
30
330
17
100
AcDbEntity
  8
0
 62
7
100
AcDbLine
 10
228.4290952447045
 20
833.2182390748712
 30
0.0
 11
1424.4290952447045
 21
833.2182390748712
 31
0.0
  0
LINE
  5
31
330
17
100
AcDbEntity
  8
0
 62
7
100
AcDbLine
 10
1424.4290952447045
 20
833.2182390748712
 30
0.0
 11
1424.4290952447045
 21
733.2182390748712
 31
0.0
  0
LINE
  5
32
330
17
100
AcDbEntity
  8
0
 62
7
100
AcDbLine
 10
1374.4290952447045
 20
683.2182390748712
 30
0.0
 11
278.4290952447045
 21
683.2182390748712
 31
0.0
  0
LINE
  5
33
330
17
100
AcDbEntity
  8
0
 62
7
100
AcDbLine
 10
1424.4290952447045
 20
733.2182390748712
 30
0.0
 11
228.4290952447045
 21
733.2182390748712
 31
0.0
  0
LINE
  5
34
330
17
100
AcDbEntity
  8
0
 62
7
100
AcDbLine
 10
228.4290952447045
 20
733.2182390748712
 30
0.0
 11
228.4290952447045
 21
833.2182390748712
 31
0.0
  0
LINE
  5
35
330
17
100
AcDbEntity
  8
0
 62
7
100
AcDbLine
 10
228.4290952447045
 20
733.2182390748712
 30
0.0
 11
278.4290952447045
 21
683.2182390748712
 31
0.0
  0
LINE
  5
36
330
17
100
AcDbEntity
  8
0
 62
7
100
AcDbLine
 10
228.4290952447045
 20
833.2182390748712
 30
0.0
 11
278.4290952447045
 21
883.2182390748712
 31
0.0
  0
LINE
  5
37
330
17
100
AcDbEntity
  8
0
 62
7
100
AcDbLine
 10
1374.4290952447045
 20
883.2182390748712
 30
0.0
 11
1424.4290952447045
 21
833.2182390748712
 31
0.0
  0
LINE
  5
38
330
17
100
AcDbEntity
  8
0
 62
7
100
AcDbLine
 10
1424.4290952447045
 20
733.2182390748712
 30
0.0
 11
1374.4290952447045
 21
683.2182390748712
 31
0.0
  0
DIMENSION
  5
39
330
17
100
AcDbEntity
  8
DIM
 62
7
100
AcDbDimension
280
0
  2
*D1
  3
Dim-33
 10
1502.2611974840984
 20
683.2182390748712
 30
0.0
 11
1470.412288889289
 21
783.2182390749003
 31
0.0
 70
32
 71
5
 42
200.0
 73
0
 74
0
 75
0
100
AcDbAlignedDimension
 13
1374.4290952447045
 23
883.2182390748712
 33
0.0
 14
1374.4290952447045
 24
683.2182390748712
 34
0.0
 50
90.0
100
AcDbRotatedDimension
  0
DIMENSION
  5
3E
330
17
100
AcDbEntity
  8
DIM
 62
7
100
AcDbDimension
280
0
  2
*D2
  3
Dim-33
 10
1424.4290952447045
 20
604.0746904440457
 30
0.0
 11
826.4290952447045
 21
635.9235990388697
 31
0.0
 70
32
 71
5
 42
1196.0
 73
0
 74
0
 75
0
100
AcDbAlignedDimension
 13
228.4290952447045
 23
733.2182390748712
 33
0.0
 14
1424.4290952447045
 24
733.2182390748712
 34
0.0
 50
0.0
100
AcDbRotatedDimension
  0
DIMENSION
  5
3F
330
17
100
AcDbEntity
  8
DIM
 62
7
100
AcDbDimension
280
0
  2
*D3
  3
Dim-33
 10
183.49243236889015
 20
733.2182390748712
 30
0.0
 11
151.64352377410978
 21
783.2182390749003
 31
0.0
 70
32
 71
5
 42
100.0
 73
0
 74
0
 75
0
100
AcDbAlignedDimension
 13
228.4290952447045
 23
833.2182390748712
 33
0.0
 14
228.4290952447045
 24
733.2182390748712
 34
0.0
 50
90.0
100
AcDbRotatedDimension
  0
DIMENSION
  5
40
330
17
100
AcDbEntity
  8
DIM
 62
7
100
AcDbDimension
280
0
  2
*D4
  3
Dim-33
 10
183.49243236889015
 20
883.2182390748712
 30
0.0
 11
151.64352377410978
 21
933.79770701487
 31
0.0
 70
32
 71
5
 42
50.0
 73
0
 74
0
 75
0
100
AcDbAlignedDimension
 13
228.4290952447045
 23
833.2182390748712
 33
0.0
 14
278.4290952447045
 24
883.2182390748712
 34
0.0
 50
90.0
100
AcDbRotatedDimension
  0
DIMENSION
  5
41
330
17
100
AcDbEntity
  8
DIM
 62
7
100
AcDbDimension
280
0
  2
*D5
  3
Dim-33
 10
183.49243236889015
 20
683.2182390748712
 30
0.0
 11
151.64352377410978
 21
632.6387711349307
 31
0.0
 70
32
 71
5
 42
50.0
 73
0
 74
0
 75
0
100
AcDbAlignedDimension
 13
228.4290952447045
 23
733.2182390748712
 33
0.0
 14
278.4290952447045
 24
683.2182390748712
 34
0.0
 50
90.0
100
AcDbRotatedDimension
  0
INSERT
  5
42
330
17
100
AcDbEntity
  8
CNC
370
-3
100
AcDbBlockReference
  2
ovan8.5x20
 10
326.4290952447045
 20
858.2182390748712
 30
0.0
 50
180.0
  0
INSERT
  5
44
330
17
100
AcDbEntity
  8
CNC
370
-3
100
AcDbBlockReference
  2
ovan8.5x20
 10
326.4290952447045
 20
708.2182390748712
 30
0.0
 41
-1.0
  0
INSERT
  5
46
330
17
100
AcDbEntity
  8
0
370
-3
100
AcDbBlockReference
  2
f3daunguoc
 10
243.4290952447045
 20
833.2182390748712
 30
0.0
 50
270.0
  0
INSERT
  5
48
330
17
100
AcDbEntity
  8
0
370
-3
100
AcDbBlockReference
  2
f3daunguoc
 10
243.4290952447045
 20
733.2182390748712
 30
0.0
 50
270.0
  0
INSERT
  5
4A
330
17
100
AcDbEntity
  8
0
370
-3
100
AcDbBlockReference
  2
f3daunguoc
 10
1409.4290952447045
 20
833.2182390748712
 30
0.0
 41
-1.0
 50
90.0
  0
INSERT
  5
4C
330
17
100
AcDbEntity
  8
0
370
-3
100
AcDbBlockReference
  2
f3daunguoc
 10
1409.4290952447045
 20
733.2182390748712
 30
0.0
 41
-1.0
 50
90.0
  0
INSERT
  5
4E
330
17
100
AcDbEntity
  8
CNC
370
-3
100
AcDbBlockReference
  2
ovan8.5x20
 10
1326.4290952447045
 20
858.2182390748712
 30
0.0
 41
-1.0
 50
180.0
  0
INSERT
  5
50
330
17
100
AcDbEntity
  8
CNC
370
-3
100
AcDbBlockReference
  2
ovan8.5x20
 10
1326.4290952447045
 20
708.2182390748712
 30
0.0
  0
MTEXT
  5
52
330
17
100
AcDbEntity
  8
0
 62
2
100
AcDbMText
 10
868.3661592491844
 20
551.6118269927392
 30
0.0
 40
36.0
 41
1225.000000000014
 46
177.6045738206836
 71
5
 72
5
  1
Đế tủ : 2 tấm
  0
LWPOLYLINE
  5
53
330
17
100
AcDbEntity
  8
0
 62
7
100
AcDbPolyline
 90
4
 70
1
 10
1145.9719421617046
 20
2948.174703867531
 10
1740.9719421617046
 20
2948.174703867531
 10
1740.9719421617046
 20
1588.1747038665853
 10
1145.9719421617046
 20
1588.1747038665853
  0
LWPOLYLINE
  5
54
330
17
100
AcDbEntity
  8
0
 62
7
100
AcDbPolyline
 90
12
 70
0
 10
1773.9719421617046
 20
1663.1747038675312
 10
1773.9719421617046
 20
1600.1747038665999
 10
1761.9719421617046
 20
1588.1747038665853
 10
1740.9719421617046
 20
1588.1747038665853
 10
1740.9719421617046
 20
1567.1747038665999
 10
1728.9719421617046
 20
1555.1747038665999
 10
1157.9719421617046
 20
1555.1747038665999
 10
1145.9719421617046
 20
1567.1747038665999
 10
1145.9719421617046
 20
1588.1747038665853
 10
1124.9719421617046
 20
1588.1747038665853
 10
1112.9719421617046
 20
1600.174703866629
 10
1112.9719421617046
 20
1617.1747038665999
  0
LWPOLYLINE
  5
55
330
17
100
AcDbEntity
  8
0
 62
7
100
AcDbPolyline
 90
2
 70
0
 10
1761.9719421617046
 20
2948.174703867531
 10
1761.9719421617046
 20
2873.1747038675167
  0
LWPOLYLINE
  5
56
330
17
100
AcDbEntity
  8
0
 62
7
100
AcDbPolyline
 90
2
 70
0
 10
1761.9719421617046
 20
1663.1747038675312
 10
1761.9719421617046
 20
1588.1747038665853
  0
LWPOLYLINE
  5
57
330
17
100
AcDbEntity
  8
0
 62
7
100
AcDbPolyline
 90
2
 70
0
 10
1740.9719421617046
 20
1567.1747038665999
 10
1145.9719421617046
 20
1567.1747038665999
  0
LWPOLYLINE
  5
58
330
17
100
AcDbEntity
  8
0
 62
7
100
AcDbPolyline
 90
2
 70
0
 10
1124.9719421617046
 20
1588.1747038665853
 10
1124.9719421617046
 20
1617.1747038665999
  0
LWPOLYLINE
  5
59
330
17
100
AcDbEntity
  8
0
 62
7
100
AcDbPolyline
 90
2
 70
0
 10
1145.9719421617046
 20
2969.174703867531
 10
1740.9719421617046
 20
2969.174703867531
  0
LWPOLYLINE
  5
5A
330
17
100
AcDbEntity
  8
0
 62
2
100
AcDbPolyline
 90
4
 70
0
 10
1773.9719421617046
 20
2793.1747038675167
 10
1758.971942161792
 20
2793.1747038675167
 10
1758.971942161792
 20
2873.1747038675167
 10
1773.9719421617046
 20
2873.1747038675167
  0
LWPOLYLINE
  5
5B
330
17
100
AcDbEntity
  8
0
 62
2
100
AcDbPolyline
 90
4
 70
0
 10
1773.9719421617046
 20
1743.1747038675312
 10
1758.971942161792
 20
1743.1747038675312
 10
1758.971942161792
 20
1663.1747038675312
 10
1773.9719421617046
 20
1663.1747038675312
  0
INSERT
  5
5C
330
17
100
AcDbEntity
  8
0
370
-3
100
AcDbBlockReference
  2
f3daunguoc
 10
1160.9719421617046
 20
2948.174703867531
 30
0.0
 41
-1.0
 50
180.0
  0
INSERT
  5
5E
330
17
100
AcDbEntity
  8
0
370
-3
100
AcDbBlockReference
  2
f3daunguoc
 10
1145.9719421617046
 20
2933.174703867531
 30
0.0
 41
-1.0
 50
180.0
  0
INSERT
  5
60
330
17
100
AcDbEntity
  8
0
370
-3
100
AcDbBlockReference
  2
f3daunguoc
 10
1160.9719421617046
 20
2969.174703867531
 30
0.0
 41
-1.0
 50
180.0
  0
INSERT
  5
62
330
17
100
AcDbEntity
  8
0
370
-3
100
AcDbBlockReference
  2
f3daunguoc
 10
1124.9719421617046
 20
2933.174703867531
 30
0.0
 41
-1.0
 50
180.0
  0
INSERT
  5
64
330
17
100
AcDbEntity
  8
0
370
-3
100
AcDbBlockReference
  2
f3daunguoc
 10
1210.9719421617046
 20
2948.174703867531
 30
0.0
 41
-1.0
 50
180.0
  0
INSERT
  5
66
330
17
100
AcDbEntity
  8
0
370
-3
100
AcDbBlockReference
  2
f3daunguoc
 10
1210.9719421617046
 20
2969.174703867531
 30
0.0
 41
-1.0
 50
180.0
  0
INSERT
  5
68
330
17
100
AcDbEntity
  8
0
370
-3
100
AcDbBlockReference
  2
f3daunguoc
 10
1725.9719421617046
 20
2948.174703867531
 30
0.0
 50
180.0
  0
INSERT
  5
6A
330
17
100
AcDbEntity
  8
0
370
-3
100
AcDbBlockReference
  2
f3daunguoc
 10
1740.9719421617046
 20
2933.174703867531
 30
0.0
 50
180.0
  0
INSERT
  5
6C
330
17
100
AcDbEntity
  8
0
370
-3
100
AcDbBlockReference
  2
f3daunguoc
 10
1725.9719421617046
 20
2969.174703867531
 30
0.0
 50
180.0
  0
INSERT
  5
6E
330
17
100
AcDbEntity
  8
0
370
-3
100
AcDbBlockReference
  2
f3daunguoc
 10
1761.9719421617046
 20
2933.174703867531
 30
0.0
 50
180.0
  0
INSERT
  5
70
330
17
100
AcDbEntity
  8
0
370
-3
100
AcDbBlockReference
  2
f3daunguoc
 10
1675.9719421617046
 20
2948.174703867531
 30
0.0
 50
180.0
  0
INSERT
  5
72
330
17
100
AcDbEntity
  8
0
370
-3
100
AcDbBlockReference
  2
f3daunguoc
 10
1675.9719421617046
 20
2969.174703867531
 30
0.0
 50
180.0
  0
INSERT
  5
74
330
17
100
AcDbEntity
  8
0
370
-3
100
AcDbBlockReference
  2
f3daunguoc
 10
1160.9719421617046
 20
1588.174703866629
 30
0.0
  0
INSERT
  5
76
330
17
100
AcDbEntity
  8
0
370
-3
100
AcDbBlockReference
  2
f3daunguoc
 10
1145.9719421617046
 20
1603.174703866629
 30
0.0
  0
INSERT
  5
78
330
17
100
AcDbEntity
  8
0
370
-3
100
AcDbBlockReference
  2
f3daunguoc
 10
1160.9719421617046
 20
1567.1747038666217
 30
0.0
  0
INSERT
  5
7A
330
17
100
AcDbEntity
  8
0
370
-3
100
AcDbBlockReference
  2
f3daunguoc
 10
1124.9719421617046
 20
1603.174703866629
 30
0.0
  0
INSERT
  5
7C
330
17
100
AcDbEntity
  8
0
370
-3
100
AcDbBlockReference
  2
f3daunguoc
 10
1210.9719421617046
 20
1588.174703866629
 30
0.0
  0
INSERT
  5
7E
330
17
100
AcDbEntity
  8
0
370
-3
100
AcDbBlockReference
  2
f3daunguoc
 10
1210.9719421617046
 20
1568.1747038666217
 30
0.0
  0
INSERT
  5
80
330
17
100
AcDbEntity
  8
0
370
-3
100
AcDbBlockReference
  2
f3daunguoc
 10
1725.9719421617046
 20
1588.174703866629
 30
0.0
 41
-1.0
  0
INSERT
  5
82
330
17
100
AcDbEntity
  8
0
370
-3
100
AcDbBlockReference
  2
f3daunguoc
 10
1740.9719421617046
 20
1603.174703866629
 30
0.0
 41
-1.0
  0
INSERT
  5
84
330
17
100
AcDbEntity
  8
0
370
-3
100
AcDbBlockReference
  2
f3daunguoc
 10
1725.9719421617046
 20
1567.1747038666217
 30
0.0
 41
-1.0
  0
INSERT
  5
86
330
17
100
AcDbEntity
  8
0
370
-3
100
AcDbBlockReference
  2
f3daunguoc
 10
1761.9719421617046
 20
1603.174703866629
 30
0.0
 41
-1.0
  0
INSERT
  5
88
330
17
100
AcDbEntity
  8
0
370
-3
100
AcDbBlockReference
  2
f3daunguoc
 10
1675.9719421617046
 20
1588.174703866629
 30
0.0
 41
-1.0
  0
INSERT
  5
8A
330
17
100
AcDbEntity
  8
0
370
-3
100
AcDbBlockReference
  2
f3daunguoc
 10
1675.9719421617046
 20
1568.1747038666217
 30
0.0
 41
-1.0
  0
DIMENSION
  5
8C
330
17
100
AcDbEntity
  8
DIM
100
AcDbDimension
280
0
  2
*D6
  3
Dim-33
 10
1761.9719421617046
 20
3069.5283739343286
 30
0.0
 11
1821.7038657634112
 21
3101.095904630107
 31
0.0
 70
32
 71
5
 42
21.0
 73
0
 74
0
 75
0
100
AcDbAlignedDimension
 13
1740.9719421617046
 23
2969.174703867531
 33
0.0
 14
1761.9719421617046
 24
2948.174703867531
 34
0.0
 50
0.0
100
AcDbRotatedDimension
  0
DIMENSION
  5
8D
330
17
100
AcDbEntity
  8
DIM
100
AcDbDimension
280
0
  2
*D7
  3
Dim-33
 10
1145.9719421617046
 20
3069.5283739343286
 30
0.0
 11
1443.4719421617046
 21
3101.3772825291453
 31
0.0
 70
32
 71
5
 42
595.0
 73
0
 74
0
 75
0
100
AcDbAlignedDimension
 13
1740.9719421617046
 23
2969.174703867531
 33
0.0
 14
1145.9719421617046
 24
2969.174703867531
 34
0.0
 50
0.0
100
AcDbRotatedDimension
  0
DIMENSION
  5
8E
330
17
100
AcDbEntity
  8
DIM
100
AcDbDimension
280
0
  2
*D8
  3
Dim-33
 10
1054.8672414020111
 20
1588.1747038665853
 30
0.0
 11
1023.0183328072017
 21
1525.223817099919
 31
0.0
 70
32
 71
5
 42
29.0
 73
0
 74
0
 75
0
100
AcDbAlignedDimension
 13
1124.9719421617046
 23
1617.1747038665999
 33
0.0
 14
1124.9719421617046
 24
1588.1747038665853
 34
0.0
 50
90.0
100
AcDbRotatedDimension
  0
DIMENSION
  5
8F
330
17
100
AcDbEntity
  8
DIM
100
AcDbDimension
280
0
  2
*D9
  3
Dim-33
 10
1773.9719421617046
 20
1476.5369954567577
 30
0.0
 11
1443.4719421617046
 21
1508.3859040515817
 31
0.0
 70
32
 71
5
 42
661.0
 73
0
 74
0
 75
0
100
AcDbAlignedDimension
 13
1112.9719421617046
 23
1600.174703866629
 33
0.0
 14
1773.9719421617046
 24
1600.174703866629
 34
0.0
 50
0.0
100
AcDbRotatedDimension
  0
MTEXT
  5
90
330
17
100
AcDbEntity
  8
0
 62
2
100
AcDbMText
 10
1427.5781332628976
 20
1428.1196147952287
 30
0.0
 40
36.0
 41
575.9741820581402
 46
100.0000000000031
 71
5
 72
5
  1
Cánh ngoài: 1 tấm
  0
LWPOLYLINE
  5
91
330
17
100
AcDbEntity
  8
0
 62
7
100
AcDbPolyline
 90
4
 70
1
 10
2371.2148114221927
 20
2895.174703867531
 10
3460.214811422309
 20
2895.174703867531
 10
3460.214811422309
 20
1641.1747038675312
 10
2371.2148114221927
 20
1641.1747038675312
  0
LWPOLYLINE
  5
92
330
17
100
AcDbEntity
  8
0
 62
7
100
AcDbPolyline
 90
22
 70
0
 10
3488.2148114221927
 20
1653.1747038675167
 10
3488.2148114221927
 20
1653.1747038675167
 10
3476.2148114221927
 20
1641.1747038675312
 10
3460.214811422309
 20
1641.1747038675312
 10
3460.214811422309
 20
1625.1747038675312
 10
3448.2148114221927
 20
1613.1747038675312
 10
2383.2148114221927
 20
1613.1747038675312
 10
2371.2148114221927
 20
1625.1747038675312
 10
2371.2148114221927
 20
1641.1747038675312
 10
2355.2148114221927
 20
1641.1747038675312
 10
2343.2148114221927
 20
1653.1747038675167
 10
2343.2148114221927
 20
2883.174703867531
 10
2355.2148114221927
 20
2895.174703867531
 10
2371.2148114221927
 20
2895.174703867531
 10
2371.2148114221927
 20
2911.1747038675167
 10
2383.2148114221927
 20
2923.174703867531
 10
3448.2148114221927
 20
2923.174703867531
 10
3460.214811422309
 20
2911.1747038675167
 10
3460.214811422309
 20
2895.174703867531
 10
3476.2148114221927
 20
2895.174703867531
 10
3488.2148114221927
 20
2883.174703867531
 10
3488.2148114221927
 20
2819.4247038675167
  0
LWPOLYLINE
  5
93
330
17
100
AcDbEntity
  8
0
 62
7
100
AcDbPolyline
 90
2
 70
0
 10
3476.2148114221927
 20
2895.174703867531
 10
3476.2148114221927
 20
2819.4247038675167
  0
LWPOLYLINE
  5
94
330
17
100
AcDbEntity
  8
0
 62
7
100
AcDbPolyline
 90
2
 70
0
 10
3476.2148114221927
 20
2765.424703867531
 10
3476.2148114221927
 20
2295.174703867531
  0
LWPOLYLINE
  5
95
330
17
100
AcDbEntity
  8
0
 62
7
100
AcDbPolyline
 90
2
 70
0
 10
3476.2148114221927
 20
1716.9247038675312
 10
3476.2148114221927
 20
1641.1747038675312
  0
LWPOLYLINE
  5
96
330
17
100
AcDbEntity
  8
0
 62
7
100
AcDbPolyline
 90
2
 70
0
 10
3460.214811422309
 20
1625.1747038675312
 10
2371.2148114221927
 20
1625.1747038675312
  0
LWPOLYLINE
  5
97
330
17
100
AcDbEntity
  8
0
 62
7
100
AcDbPolyline
 90
2
 70
0
 10
2355.2148114221927
 20
1641.1747038675312
 10
2355.2148114221927
 20
2895.174703867531
  0
LWPOLYLINE
  5
98
330
17
100
AcDbEntity
  8
0
 62
7
100
AcDbPolyline
 90
2
 70
0
 10
2371.2148114221927
 20
2911.1747038675167
 10
3460.214811422309
 20
2911.1747038675167
  0
LWPOLYLINE
  5
99
330
17
100
AcDbEntity
  8
0
 62
2
100
AcDbPolyline
 90
4
 70
0
 10
3488.2148114221927
 20
2765.424703867531
 10
3473.2148114221927
 20
2765.424703867531
 10
3473.2148114221927
 20
2819.4247038675167
 10
3488.2148114221927
 20
2819.4247038675167
  0
INSERT
  5
9A
330
17
100
AcDbEntity
  8
0
370
-3
100
AcDbBlockReference
  2
f3daunguoc
 10
2386.2148114221927
 20
2895.174703867531
 30
0.0
 41
-1.0
 50
180.0
  0
INSERT
  5
9C
330
17
100
AcDbEntity
  8
0
370
-3
100
AcDbBlockReference
  2
f3daunguoc
 10
2371.2148114221927
 20
2880.1747038675167
 30
0.0
 41
-1.0
 50
180.0
  0
INSERT
  5
9E
330
17
100
AcDbEntity
  8
0
370
-3
100
AcDbBlockReference
  2
f3daunguoc
 10
2386.2148114221927
 20
2911.1747038675167
 30
0.0
 41
-1.0
 50
180.0
  0
INSERT
  5
A0
330
17
100
AcDbEntity
  8
0
370
-3
100
AcDbBlockReference
  2
f3daunguoc
 10
2355.2148114221927
 20
2880.1747038675167
 30
0.0
 41
-1.0
 50
180.0
  0
INSERT
  5
A2
330
17
100
AcDbEntity
  8
0
370
-3
100
AcDbBlockReference
  2
f3daunguoc
 10
2436.2148114221927
 20
2895.174703867531
 30
0.0
 41
-1.0
 50
180.0
  0
INSERT
  5
A4
330
17
100
AcDbEntity
  8
0
370
-3
100
AcDbBlockReference
  2
f3daunguoc
 10
2436.2148114221927
 20
2911.1747038675167
 30
0.0
 41
-1.0
 50
180.0
  0
INSERT
  5
A6
330
17
100
AcDbEntity
  8
0
370
-3
100
AcDbBlockReference
  2
f3daunguoc
 10
3445.2148114221927
 20
2895.174703867531
 30
0.0
 50
180.0
  0
INSERT
  5
A8
330
17
100
AcDbEntity
  8
0
370
-3
100
AcDbBlockReference
  2
f3daunguoc
 10
3460.214811422309
 20
2880.1747038675167
 30
0.0
 50
180.0
  0
INSERT
  5
AA
330
17
100
AcDbEntity
  8
0
370
-3
100
AcDbBlockReference
  2
f3daunguoc
 10
3445.2148114221927
 20
2911.1747038675167
 30
0.0
 50
180.0
  0
INSERT
  5
AC
330
17
100
AcDbEntity
  8
0
370
-3
100
AcDbBlockReference
  2
f3daunguoc
 10
3476.2148114221927
 20
2880.1747038675167
 30
0.0
 50
180.0
  0
INSERT
  5
AE
330
17
100
AcDbEntity
  8
0
370
-3
100
AcDbBlockReference
  2
f3daunguoc
 10
3395.2148114221927
 20
2895.174703867531
 30
0.0
 50
180.0
  0
INSERT
  5
B0
330
17
100
AcDbEntity
  8
0
370
-3
100
AcDbBlockReference
  2
f3daunguoc
 10
3395.2148114221927
 20
2911.1747038675167
 30
0.0
 50
180.0
  0
INSERT
  5
B2
330
17
100
AcDbEntity
  8
0
370
-3
100
AcDbBlockReference
  2
f3daunguoc
 10
2386.2148114221927
 20
1641.1747038675312
 30
0.0
  0
INSERT
  5
B4
330
17
100
AcDbEntity
  8
0
370
-3
100
AcDbBlockReference
  2
f3daunguoc
 10
2371.2148114221927
 20
1656.1747038675312
 30
0.0
  0
INSERT
  5
B6
330
17
100
AcDbEntity
  8
0
370
-3
100
AcDbBlockReference
  2
f3daunguoc
 10
2386.2148114221927
 20
1625.1747038675312
 30
0.0
  0
INSERT
  5
B8
330
17
100
AcDbEntity
  8
0
370
-3
100
AcDbBlockReference
  2
f3daunguoc
 10
2355.2148114221927
 20
1656.1747038675312
 30
0.0
  0
INSERT
  5
BA
330
17
100
AcDbEntity
  8
0
370
-3
100
AcDbBlockReference
  2
f3daunguoc
 10
2436.2148114221927
 20
1641.1747038675312
 30
0.0
  0
INSERT
  5
BC
330
17
100
AcDbEntity
  8
0
370
-3
100
AcDbBlockReference
  2
f3daunguoc
 10
2436.2148114221927
 20
1625.1747038675312
 30
0.0
  0
INSERT
  5
BE
330
17
100
AcDbEntity
  8
0
370
-3
100
AcDbBlockReference
  2
f3daunguoc
 10
3445.2148114221927
 20
1641.1747038675312
 30
0.0
 41
-1.0
  0
INSERT
  5
C0
330
17
100
AcDbEntity
  8
0
370
-3
100
AcDbBlockReference
  2
f3daunguoc
 10
3460.214811422309
 20
1656.1747038675312
 30
0.0
 41
-1.0
  0
INSERT
  5
C2
330
17
100
AcDbEntity
  8
0
370
-3
100
AcDbBlockReference
  2
f3daunguoc
 10
3445.2148114221927
 20
1625.1747038675312
 30
0.0
 41
-1.0
  0
INSERT
  5
C4
330
17
100
AcDbEntity
  8
0
370
-3
100
AcDbBlockReference
  2
f3daunguoc
 10
3476.2148114221927
 20
1656.1747038675312
 30
0.0
 41
-1.0
  0
INSERT
  5
C6
330
17
100
AcDbEntity
  8
0
370
-3
100
AcDbBlockReference
  2
f3daunguoc
 10
3395.2148114221927
 20
1641.1747038675312
 30
0.0
 41
-1.0
  0
INSERT
  5
C8
330
17
100
AcDbEntity
  8
0
370
-3
100
AcDbBlockReference
  2
f3daunguoc
 10
3395.2148114221927
 20
1625.1747038675312
 30
0.0
 41
-1.0
  0
DIMENSION
  5
CA
330
17
100
AcDbEntity
  8
DIM
100
AcDbDimension
280
0
  2
*D10
  3
Dim-25
 10
3488.2148114221927
 20
2943.3426646780863
 30
0.0
 11
3530.8161074658856
 21
2965.8938242961012
 31
0.0
 70
32
 71
5
 42
11.99999999997089
 73
0
 74
0
 75
0
100
AcDbAlignedDimension
 13
3476.2148114221927
 23
2895.174703867531
 33
0.0
 14
3488.2148114221927
 24
2883.174703867531
 34
0.0
 50
0.0
100
AcDbRotatedDimension
  0
DIMENSION
  5
CB
330
17
100
AcDbEntity
  8
DIM
100
AcDbDimension
280
0
  2
*D11
  3
Dim-25
 10
3476.2148114221927
 20
2988.08750388967
 30
0.0
 11
3518.935479907901
 21
3010.8518285827085
 31
0.0
 70
32
 71
5
 42
16.0
 73
0
 74
0
 75
0
100
AcDbAlignedDimension
 13
3460.214811422309
 23
2911.1747038675167
 33
0.0
 14
3476.2148114221927
 24
2895.174703867531
 34
0.0
 50
0.0
100
AcDbRotatedDimension
  0
DIMENSION
  5
CC
330
17
100
AcDbEntity
  8
DIM
100
AcDbDimension
280
0
  2
*D12
  3
Dim-25
 10
2371.2148114221927
 20
2988.08750388967
 30
0.0
 11
2915.714811422309
 21
3010.8518285827085
 31
0.0
 70
32
 71
5
 42
1089.0
 73
0
 74
0
 75
0
100
AcDbAlignedDimension
 13
3460.214811422309
 23
2911.1747038675167
 33
0.0
 14
2371.2148114221927
 24
2911.1747038675167
 34
0.0
 50
0.0
100
AcDbRotatedDimension
  0
DIMENSION
  5
CD
330
17
100
AcDbEntity
  8
DIM
100
AcDbDimension
280
0
  2
*D13
  3
Dim-25
 10
2210.141640169488
 20
1613.1747038675312
 30
0.0
 11
2187.3687888733984
 21
2268.1747038675603
 31
0.0
 70
32
 71
5
 42
1310.0
 73
0
 74
0
 75
0
100
AcDbAlignedDimension
 13
2383.2148114221927
 23
2923.174703867531
 33
0.0
 14
2383.2148114221927
 24
1613.1747038675312
 34
0.0
 50
90.0
100
AcDbRotatedDimension
  0
DIMENSION
  5
CE
330
17
100
AcDbEntity
  8
DIM
100
AcDbDimension
280
0
  2
*D14
  3
Dim-25
 10
2300.2925201623875
 20
2895.174703867531
 30
0.0
 11
2277.5281954694074
 21
2268.1747038675603
 31
0.0
 70
32
 71
5
 42
1254.0
 73
0
 74
0
 75
0
100
AcDbAlignedDimension
 13
2355.2148114221927
 23
1641.1747038675312
 33
0.0
 14
2355.2148114221927
 24
2895.174703867531
 34
0.0
 50
90.0
100
AcDbRotatedDimension
  0
MTEXT
  5
CF
330
17
100
AcDbEntity
  8
0
 62
2
100
AcDbMText
 10
2805.6405459108064
 20
1427.0948270051158
 30
0.0
 40
36.0
 41
775.0000000000146
 46
100.0000000000031
 71
5
 72
5
  1
Cánh trong : 1 tấm
  0
LINE
  5
D0
330
17
100
AcDbEntity
  8
0
 48
3.0
100
AcDbLine
 10
3488.2148114221927
 20
1653.1747038675167
 30
0.0
 11
3488.2148114221927
 21
1716.9247038675312
 31
0.0
  0
LINE
  5
D1
330
17
100
AcDbEntity
  8
0
 48
3.0
100
AcDbLine
 10
3488.2148114221927
 20
1770.9247038675312
 30
0.0
 11
3488.2148114221927
 21
2241.174703867531
 31
0.0
  0
LWPOLYLINE
  5
D2
330
17
100
AcDbEntity
  8
0
 62
2
100
AcDbPolyline
 90
4
 70
0
 10
3488.2148114221927
 20
1716.9247038675312
 10
3473.2148114221927
 20
1716.9247038675312
 10
3473.2148114221927
 20
1770.9247038675312
 10
3488.2148114221927
 20
1770.9247038675312
  0
LWPOLYLINE
  5
D3
330
17
100
AcDbEntity
  8
0
 62
2
 48
3.0
100
AcDbPolyline
 90
4
 70
1
 10
2410.4648114221054
 20
2826.9247038675167
 10
2430.9648114221054
 20
2826.9247038675167
 10
2430.9648114221054
 20
2806.424703867531
 10
2410.4648114221054
 20
2806.424703867531
  0
LWPOLYLINE
  5
D4
330
17
100
AcDbEntity
  8
0
 62
2
 48
3.0
100
AcDbPolyline
 90
4
 70
1
 10
2410.4648114221054
 20
1709.4247038675312
 10
2430.9648114221054
 20
1709.4247038675312
 10
2430.9648114221054
 20
1729.9247038675167
 10
2410.4648114221054
 20
1729.9247038675167
  0
LWPOLYLINE
  5
D5
330
17
100
AcDbEntity
  8
0
 62
7
100
AcDbPolyline
 90
4
 70
1
 10
3685.619989537983
 20
2901.424703867531
 10
3765.619989537983
 20
2901.424703867531
 10
3765.619989537983
 20
1619.9247038675312
 10
3685.619989537983
 20
1619.9247038675312
  0
LINE
  5
D6
330
17
100
AcDbEntity
  8
0
 62
7
100
AcDbLine
 10
3725.619989537896
 20
2901.424703867531
 30
0.0
 11
3725.619989537896
 21
1619.9247038675312
 31
0.0
  0
DIMENSION
  5
D7
330
17
100
AcDbEntity
  8
DIM
 48
3.0
100
AcDbDimension
280
0
  2
*D15
  3
Dim-33
 10
3765.619989537983
 20
2981.6699969806723
 30
0.0
 11
3725.619989537896
 21
3013.518905575489
 31
0.0
 70
32
 71
5
 42
80.0
 73
0
 74
0
 75
0
100
AcDbAlignedDimension
 13
3685.619989537983
 23
2901.424703867531
 33
0.0
 14
3765.619989537983
 24
2901.424703867531
 34
0.0
 50
0.0
100
AcDbRotatedDimension
  0
LWPOLYLINE
  5
D8
330
17
100
AcDbEntity
  8
0
 62
2
 48
0.5
100
AcDbPolyline
 90
4
 70
1
 10
3709.869989537983
 20
2891.7247038674905
 10
3709.869989537983
 20
2880.2247038674905
 42
-0.9999999999999998
 10
3701.369989537896
 20
2880.2247038674905
 10
3701.369989537896
 20
2891.7247038674905
 42
-0.9999999999999998
  0
LWPOLYLINE
  5
D9
330
17
100
AcDbEntity
  8
0
 62
2
 48
0.5
100
AcDbPolyline
 90
4
 70
1
 10
3741.3699895374884
 20
2891.7247038674905
 10
3741.3699895374884
 20
2880.2247038674905
 42
0.9999999999999998
 10
3749.8699895374884
 20
2880.2247038674905
 10
3749.8699895374884
 20
2891.7247038674905
 42
0.9999999999999998
  0
CIRCLE
  5
DA
330
17
100
AcDbEntity
  8
0
 62
2
 48
3.0
100
AcDbCircle
 10
3725.619989537896
 20
1624.9247038675312
 30
0.0
 40
1.5
  0
CIRCLE
  5
DB
330
17
100
AcDbEntity
  8
0
 62
2
 48
3.0
100
AcDbCircle
 10
3725.619989537896
 20
2896.424703867531
 30
0.0
 40
1.5
  0
MTEXT
  5
DC
330
17
100
AcDbEntity
  8
0
 62
2
100
AcDbMText
 10
3731.9013043709856
 20
1513.4197623994623
 30
0.0
 40
36.0
 41
775.0000000000146
 46
100.0000000000031
 71
5
 72
5
  1
V\P : 2 tấm
  0
DIMENSION
  5
DD
330
17
100
AcDbEntity
  8
DIM
 48
3.0
100
AcDbDimension
280
0
  2
*D16
  3
Dim-33
 10
3620.4917809155886
 20
1619.9247038675312
 30
0.0
 11
3588.6428723208082
 21
2260.6747038675603
 31
0.0
 70
32
 71
5
 42
1281.5
 73
0
 74
0
 75
0
100
AcDbAlignedDimension
 13
3685.619989537983
 23
2901.424703867531
 33
0.0
 14
3685.619989537983
 24
1619.9247038675312
 34
0.0
 50
90.0
100
AcDbRotatedDimension
  0
LWPOLYLINE
  5
DE
330
17
100
AcDbEntity
  8
0
 62
2
 48
0.5
100
AcDbPolyline
 90
4
 70
1
 10
3709.869989537983
 20
2416.424703867502
 10
3709.869989537983
 20
2404.924703867502
 42
-0.9999999999999998
 10
3701.369989537896
 20
2404.924703867502
 10
3701.369989537896
 20
2416.424703867502
 42
-0.9999999999999998
  0
LWPOLYLINE
  5
DF
330
17
100
AcDbEntity
  8
0
 62
2
 48
0.5
100
AcDbPolyline
 90
4
 70
1
 10
3741.3699895374884
 20
2416.424703867502
 10
3741.3699895374884
 20
2404.924703867502
 42
0.9999999999999998
 10
3749.8699895374884
 20
2404.924703867502
 10
3749.8699895374884
 20
2416.424703867502
 42
0.9999999999999998
  0
LWPOLYLINE
  5
E0
330
17
100
AcDbEntity
  8
0
 62
2
 48
0.5
100
AcDbPolyline
 90
4
 70
1
 10
3709.869989537983
 20
2391.424703867502
 10
3709.869989537983
 20
2379.924703867502
 42
-0.9999999999999998
 10
3701.369989537896
 20
2379.924703867502
 10
3701.369989537896
 20
2391.424703867502
 42
-0.9999999999999998
  0
LWPOLYLINE
  5
E1
330
17
100
AcDbEntity
  8
0
 62
2
 48
0.5
100
AcDbPolyline
 90
4
 70
1
 10
3741.3699895374884
 20
2391.424703867502
 10
3741.3699895374884
 20
2379.924703867502
 42
0.9999999999999998
 10
3749.8699895374884
 20
2379.924703867502
 10
3749.8699895374884
 20
2391.424703867502
 42
0.9999999999999998
  0
LWPOLYLINE
  5
E2
330
17
100
AcDbEntity
  8
0
 62
2
 48
0.5
100
AcDbPolyline
 90
4
 70
1
 10
3709.869989537983
 20
2366.424703867502
 10
3709.869989537983
 20
2354.924703867502
 42
-0.9999999999999998
 10
3701.369989537896
 20
2354.924703867502
 10
3701.369989537896
 20
2366.424703867502
 42
-0.9999999999999998
  0
LWPOLYLINE
  5
E3
330
17
100
AcDbEntity
  8
0
 62
2
 48
0.5
100
AcDbPolyline
 90
4
 70
1
 10
3741.3699895374884
 20
2366.424703867502
 10
3741.3699895374884
 20
2354.924703867502
 42
0.9999999999999998
 10
3749.8699895374884
 20
2354.924703867502
 10
3749.8699895374884
 20
2366.424703867502
 42
0.9999999999999998
  0
LWPOLYLINE
  5
E4
330
17
100
AcDbEntity
  8
0
 62
2
 48
0.5
100
AcDbPolyline
 90
4
 70
1
 10
3709.869989537983
 20
2341.424703867502
 10
3709.869989537983
 20
2329.924703867502
 42
-0.9999999999999998
 10
3701.369989537896
 20
2329.924703867502
 10
3701.369989537896
 20
2341.424703867502
 42
-0.9999999999999998
  0
LWPOLYLINE
  5
E5
330
17
100
AcDbEntity
  8
0
 62
2
 48
0.5
100
AcDbPolyline
 90
4
 70
1
 10
3741.3699895374884
 20
2341.424703867502
 10
3741.3699895374884
 20
2329.924703867502
 42
0.9999999999999998
 10
3749.8699895374884
 20
2329.924703867502
 10
3749.8699895374884
 20
2341.424703867502
 42
0.9999999999999998
  0
LWPOLYLINE
  5
E6
330
17
100
AcDbEntity
  8
0
 62
2
 48
0.5
100
AcDbPolyline
 90
4
 70
1
 10
3709.869989537983
 20
2316.424703867502
 10
3709.869989537983
 20
2304.924703867502
 42
-0.9999999999999998
 10
3701.369989537896
 20
2304.924703867502
 10
3701.369989537896
 20
2316.424703867502
 42
-0.9999999999999998
  0
LWPOLYLINE
  5
E7
330
17
100
AcDbEntity
  8
0
 62
2
 48
0.5
100
AcDbPolyline
 90
4
 70
1
 10
3741.3699895374884
 20
2316.424703867502
 10
3741.3699895374884
 20
2304.924703867502
 42
0.9999999999999998
 10
3749.8699895374884
 20
2304.924703867502
 10
3749.8699895374884
 20
2316.424703867502
 42
0.9999999999999998
  0
LWPOLYLINE
  5
E8
330
17
100
AcDbEntity
  8
0
 62
2
 48
0.5
100
AcDbPolyline
 90
4
 70
1
 10
3709.869989537983
 20
2291.424703867502
 10
3709.869989537983
 20
2279.924703867502
 42
-0.9999999999999998
 10
3701.369989537896
 20
2279.924703867502
 10
3701.369989537896
 20
2291.424703867502
 42
-0.9999999999999998
  0
LWPOLYLINE
  5
E9
330
17
100
AcDbEntity
  8
0
 62
2
 48
0.5
100
AcDbPolyline
 90
4
 70
1
 10
3741.3699895374884
 20
2291.424703867502
 10
3741.3699895374884
 20
2279.924703867502
 42
0.9999999999999998
 10
3749.8699895374884
 20
2279.924703867502
 10
3749.8699895374884
 20
2291.424703867502
 42
0.9999999999999998
  0
LWPOLYLINE
  5
EA
330
17
100
AcDbEntity
  8
0
 62
2
 48
0.5
100
AcDbPolyline
 90
4
 70
1
 10
3709.869989537983
 20
2266.424703867502
 10
3709.869989537983
 20
2254.924703867502
 42
-0.9999999999999998
 10
3701.369989537896
 20
2254.924703867502
 10
3701.369989537896
 20
2266.424703867502
 42
-0.9999999999999998
  0
LWPOLYLINE
  5
EB
330
17
100
AcDbEntity
  8
0
 62
2
 48
0.5
100
AcDbPolyline
 90
4
 70
1
 10
3741.3699895374884
 20
2266.424703867502
 10
3741.3699895374884
 20
2254.924703867502
 42
0.9999999999999998
 10
3749.8699895374884
 20
2254.924703867502
 10
3749.8699895374884
 20
2266.424703867502
 42
0.9999999999999998
  0
LWPOLYLINE
  5
EC
330
17
100
AcDbEntity
  8
0
 62
2
 48
0.5
100
AcDbPolyline
 90
4
 70
1
 10
3709.869989537983
 20
2241.4247038674876
 10
3709.869989537983
 20
2229.9247038674876
 42
-0.9999999999999998
 10
3701.369989537896
 20
2229.9247038674876
 10
3701.369989537896
 20
2241.4247038674876
 42
-0.9999999999999998
  0
LWPOLYLINE
  5
ED
330
17
100
AcDbEntity
  8
0
 62
2
 48
0.5
100
AcDbPolyline
 90
4
 70
1
 10
3741.3699895374884
 20
2241.4247038674876
 10
3741.3699895374884
 20
2229.9247038674876
 42
0.9999999999999998
 10
3749.8699895374884
 20
2229.9247038674876
 10
3749.8699895374884
 20
2241.4247038674876
 42
0.9999999999999998
  0
LWPOLYLINE
  5
EE
330
17
100
AcDbEntity
  8
0
 62
2
 48
0.5
100
AcDbPolyline
 90
4
 70
1
 10
3709.869989537983
 20
2216.424703867502
 10
3709.869989537983
 20
2204.924703867502
 42
-0.9999999999999998
 10
3701.369989537896
 20
2204.924703867502
 10
3701.369989537896
 20
2216.424703867502
 42
-0.9999999999999998
  0
LWPOLYLINE
  5
EF
330
17
100
AcDbEntity
  8
0
 62
2
 48
0.5
100
AcDbPolyline
 90
4
 70
1
 10
3741.3699895374884
 20
2216.424703867502
 10
3741.3699895374884
 20
2204.924703867502
 42
0.9999999999999998
 10
3749.8699895374884
 20
2204.924703867502
 10
3749.8699895374884
 20
2216.424703867502
 42
0.9999999999999998
  0
LWPOLYLINE
  5
F0
330
17
100
AcDbEntity
  8
0
 62
2
 48
0.5
100
AcDbPolyline
 90
4
 70
1
 10
3709.869989537983
 20
2191.424703867502
 10
3709.869989537983
 20
2179.924703867502
 42
-0.9999999999999998
 10
3701.369989537896
 20
2179.924703867502
 10
3701.369989537896
 20
2191.424703867502
 42
-0.9999999999999998
  0
LWPOLYLINE
  5
F1
330
17
100
AcDbEntity
  8
0
 62
2
 48
0.5
100
AcDbPolyline
 90
4
 70
1
 10
3741.3699895374884
 20
2191.424703867502
 10
3741.3699895374884
 20
2179.924703867502
 42
0.9999999999999998
 10
3749.8699895374884
 20
2179.924703867502
 10
3749.8699895374884
 20
2191.424703867502
 42
0.9999999999999998
  0
LWPOLYLINE
  5
F2
330
17
100
AcDbEntity
  8
0
 62
2
 48
0.5
100
AcDbPolyline
 90
4
 70
1
 10
3709.869989537983
 20
2166.424703867502
 10
3709.869989537983
 20
2154.924703867502
 42
-0.9999999999999998
 10
3701.369989537896
 20
2154.924703867502
 10
3701.369989537896
 20
2166.424703867502
 42
-0.9999999999999998
  0
LWPOLYLINE
  5
F3
330
17
100
AcDbEntity
  8
0
 62
2
 48
0.5
100
AcDbPolyline
 90
4
 70
1
 10
3741.3699895374884
 20
2166.424703867502
 10
3741.3699895374884
 20
2154.924703867502
 42
0.9999999999999998
 10
3749.8699895374884
 20
2154.924703867502
 10
3749.8699895374884
 20
2166.424703867502
 42
0.9999999999999998
  0
LWPOLYLINE
  5
F4
330
17
100
AcDbEntity
  8
0
 62
2
 48
0.5
100
AcDbPolyline
 90
4
 70
1
 10
3709.869989537983
 20
2141.424703867502
 10
3709.869989537983
 20
2129.924703867502
 42
-0.9999999999999998
 10
3701.369989537896
 20
2129.924703867502
 10
3701.369989537896
 20
2141.424703867502
 42
-0.9999999999999998
  0
LWPOLYLINE
  5
F5
330
17
100
AcDbEntity
  8
0
 62
2
 48
0.5
100
AcDbPolyline
 90
4
 70
1
 10
3741.3699895374884
 20
2141.424703867502
 10
3741.3699895374884
 20
2129.924703867502
 42
0.9999999999999998
 10
3749.8699895374884
 20
2129.924703867502
 10
3749.8699895374884
 20
2141.424703867502
 42
0.9999999999999998
  0
LWPOLYLINE
  5
F6
330
17
100
AcDbEntity
  8
0
 62
2
 48
0.5
100
AcDbPolyline
 90
4
 70
1
 10
3709.869989537983
 20
2116.424703867502
 10
3709.869989537983
 20
2104.924703867502
 42
-0.9999999999999998
 10
3701.369989537896
 20
2104.924703867502
 10
3701.369989537896
 20
2116.424703867502
 42
-0.9999999999999998
  0
LWPOLYLINE
  5
F7
330
17
100
AcDbEntity
  8
0
 62
2
 48
0.5
100
AcDbPolyline
 90
4
 70
1
 10
3741.3699895374884
 20
2116.424703867502
 10
3741.3699895374884
 20
2104.924703867502
 42
0.9999999999999998
 10
3749.8699895374884
 20
2104.924703867502
 10
3749.8699895374884
 20
2116.424703867502
 42
0.9999999999999998
  0
LWPOLYLINE
  5
F8
330
17
100
AcDbEntity
  8
0
 62
2
 48
0.5
100
AcDbPolyline
 90
4
 70
1
 10
3709.869989537983
 20
2091.424703867502
 10
3709.869989537983
 20
2079.924703867502
 42
-0.9999999999999998
 10
3701.369989537896
 20
2079.924703867502
 10
3701.369989537896
 20
2091.424703867502
 42
-0.9999999999999998
  0
LWPOLYLINE
  5
F9
330
17
100
AcDbEntity
  8
0
 62
2
 48
0.5
100
AcDbPolyline
 90
4
 70
1
 10
3741.3699895374884
 20
2091.424703867502
 10
3741.3699895374884
 20
2079.924703867502
 42
0.9999999999999998
 10
3749.8699895374884
 20
2079.924703867502
 10
3749.8699895374884
 20
2091.424703867502
 42
0.9999999999999998
  0
LWPOLYLINE
  5
FA
330
17
100
AcDbEntity
  8
0
 62
2
 48
0.5
100
AcDbPolyline
 90
4
 70
1
 10
3709.869989537983
 20
2066.4247038674876
 10
3709.869989537983
 20
2054.9247038674876
 42
-0.9999999999999998
 10
3701.369989537896
 20
2054.9247038674876
 10
3701.369989537896
 20
2066.4247038674876
 42
-0.9999999999999998
  0
LWPOLYLINE
  5
FB
330
17
100
AcDbEntity
  8
0
 62
2
 48
0.5
100
AcDbPolyline
 90
4
 70
1
 10
3741.3699895374884
 20
2066.4247038674876
 10
3741.3699895374884
 20
2054.9247038674876
 42
0.9999999999999998
 10
3749.8699895374884
 20
2054.9247038674876
 10
3749.8699895374884
 20
2066.4247038674876
 42
0.9999999999999998
  0
LWPOLYLINE
  5
FC
330
17
100
AcDbEntity
  8
0
 62
2
 48
0.5
100
AcDbPolyline
 90
4
 70
1
 10
3709.869989537983
 20
2041.424703867502
 10
3709.869989537983
 20
2029.924703867502
 42
-0.9999999999999998
 10
3701.369989537896
 20
2029.924703867502
 10
3701.369989537896
 20
2041.424703867502
 42
-0.9999999999999998
  0
LWPOLYLINE
  5
FD
330
17
100
AcDbEntity
  8
0
 62
2
 48
0.5
100
AcDbPolyline
 90
4
 70
1
 10
3741.3699895374884
 20
2041.424703867502
 10
3741.3699895374884
 20
2029.924703867502
 42
0.9999999999999998
 10
3749.8699895374884
 20
2029.924703867502
 10
3749.8699895374884
 20
2041.424703867502
 42
0.9999999999999998
  0
LWPOLYLINE
  5
FE
330
17
100
AcDbEntity
  8
0
 62
2
 48
0.5
100
AcDbPolyline
 90
4
 70
1
 10
3709.869989537983
 20
2016.424703867502
 10
3709.869989537983
 20
2004.924703867502
 42
-0.9999999999999998
 10
3701.369989537896
 20
2004.924703867502
 10
3701.369989537896
 20
2016.424703867502
 42
-0.9999999999999998
  0
LWPOLYLINE
  5
FF
330
17
100
AcDbEntity
  8
0
 62
2
 48
0.5
100
AcDbPolyline
 90
4
 70
1
 10
3741.3699895374884
 20
2016.424703867502
 10
3741.3699895374884
 20
2004.924703867502
 42
0.9999999999999998
 10
3749.8699895374884
 20
2004.924703867502
 10
3749.8699895374884
 20
2016.424703867502
 42
0.9999999999999998
  0
LWPOLYLINE
  5
100
330
17
100
AcDbEntity
  8
0
 62
2
 48
0.5
100
AcDbPolyline
 90
4
 70
1
 10
3709.869989537983
 20
1991.424703867502
 10
3709.869989537983
 20
1979.924703867502
 42
-0.9999999999999998
 10
3701.369989537896
 20
1979.924703867502
 10
3701.369989537896
 20
1991.424703867502
 42
-0.9999999999999998
  0
LWPOLYLINE
  5
101
330
17
100
AcDbEntity
  8
0
 62
2
 48
0.5
100
AcDbPolyline
 90
4
 70
1
 10
3741.3699895374884
 20
1991.424703867502
 10
3741.3699895374884
 20
1979.924703867502
 42
0.9999999999999998
 10
3749.8699895374884
 20
1979.924703867502
 10
3749.8699895374884
 20
1991.424703867502
 42
0.9999999999999998
  0
LWPOLYLINE
  5
102
330
17
100
AcDbEntity
  8
0
 62
2
 48
0.5
100
AcDbPolyline
 90
4
 70
1
 10
3709.869989537983
 20
1966.424703867502
 10
3709.869989537983
 20
1954.924703867502
 42
-0.9999999999999998
 10
3701.369989537896
 20
1954.924703867502
 10
3701.369989537896
 20
1966.424703867502
 42
-0.9999999999999998
  0
LWPOLYLINE
  5
103
330
17
100
AcDbEntity
  8
0
 62
2
 48
0.5
100
AcDbPolyline
 90
4
 70
1
 10
3741.3699895374884
 20
1966.424703867502
 10
3741.3699895374884
 20
1954.924703867502
 42
0.9999999999999998
 10
3749.8699895374884
 20
1954.924703867502
 10
3749.8699895374884
 20
1966.424703867502
 42
0.9999999999999998
  0
LWPOLYLINE
  5
104
330
17
100
AcDbEntity
  8
0
 62
2
 48
0.5
100
AcDbPolyline
 90
4
 70
1
 10
3709.869989537983
 20
1941.424703867502
 10
3709.869989537983
 20
1929.924703867502
 42
-0.9999999999999998
 10
3701.369989537896
 20
1929.924703867502
 10
3701.369989537896
 20
1941.424703867502
 42
-0.9999999999999998
  0
LWPOLYLINE
  5
105
330
17
100
AcDbEntity
  8
0
 62
2
 48
0.5
100
AcDbPolyline
 90
4
 70
1
 10
3741.3699895374884
 20
1941.424703867502
 10
3741.3699895374884
 20
1929.924703867502
 42
0.9999999999999998
 10
3749.8699895374884
 20
1929.924703867502
 10
3749.8699895374884
 20
1941.424703867502
 42
0.9999999999999998
  0
LWPOLYLINE
  5
106
330
17
100
AcDbEntity
  8
0
 62
2
 48
0.5
100
AcDbPolyline
 90
4
 70
1
 10
3709.869989537983
 20
1916.424703867502
 10
3709.869989537983
 20
1904.924703867502
 42
-0.9999999999999998
 10
3701.369989537896
 20
1904.924703867502
 10
3701.369989537896
 20
1916.424703867502
 42
-0.9999999999999998
  0
LWPOLYLINE
  5
107
330
17
100
AcDbEntity
  8
0
 62
2
 48
0.5
100
AcDbPolyline
 90
4
 70
1
 10
3741.3699895374884
 20
1916.424703867502
 10
3741.3699895374884
 20
1904.924703867502
 42
0.9999999999999998
 10
3749.8699895374884
 20
1904.924703867502
 10
3749.8699895374884
 20
1916.424703867502
 42
0.9999999999999998
  0
LWPOLYLINE
  5
108
330
17
100
AcDbEntity
  8
0
 62
2
 48
0.5
100
AcDbPolyline
 90
4
 70
1
 10
3709.869989537983
 20
1891.424703867502
 10
3709.869989537983
 20
1879.924703867502
 42
-0.9999999999999998
 10
3701.369989537896
 20
1879.924703867502
 10
3701.369989537896
 20
1891.424703867502
 42
-0.9999999999999998
  0
LWPOLYLINE
  5
109
330
17
100
AcDbEntity
  8
0
 62
2
 48
0.5
100
AcDbPolyline
 90
4
 70
1
 10
3741.3699895374884
 20
1891.424703867502
 10
3741.3699895374884
 20
1879.924703867502
 42
0.9999999999999998
 10
3749.8699895374884
 20
1879.924703867502
 10
3749.8699895374884
 20
1891.424703867502
 42
0.9999999999999998
  0
LWPOLYLINE
  5
10A
330
17
100
AcDbEntity
  8
0
 62
2
 48
0.5
100
AcDbPolyline
 90
4
 70
1
 10
3709.869989537983
 20
1866.424703867502
 10
3709.869989537983
 20
1854.924703867502
 42
-0.9999999999999998
 10
3701.369989537896
 20
1854.924703867502
 10
3701.369989537896
 20
1866.424703867502
 42
-0.9999999999999998
  0
LWPOLYLINE
  5
10B
330
17
100
AcDbEntity
  8
0
 62
2
 48
0.5
100
AcDbPolyline
 90
4
 70
1
 10
3741.3699895374884
 20
1866.424703867502
 10
3741.3699895374884
 20
1854.924703867502
 42
0.9999999999999998
 10
3749.8699895374884
 20
1854.924703867502
 10
3749.8699895374884
 20
1866.424703867502
 42
0.9999999999999998
  0
LWPOLYLINE
  5
10C
330
17
100
AcDbEntity
  8
0
 62
2
 48
0.5
100
AcDbPolyline
 90
4
 70
1
 10
3709.869989537983
 20
1841.4247038674876
 10
3709.869989537983
 20
1829.9247038674876
 42
-0.9999999999999998
 10
3701.369989537896
 20
1829.9247038674876
 10
3701.369989537896
 20
1841.4247038674876
 42
-0.9999999999999998
  0
LWPOLYLINE
  5
10D
330
17
100
AcDbEntity
  8
0
 62
2
 48
0.5
100
AcDbPolyline
 90
4
 70
1
 10
3741.3699895374884
 20
1841.4247038674876
 10
3741.3699895374884
 20
1829.9247038674876
 42
0.9999999999999998
 10
3749.8699895374884
 20
1829.9247038674876
 10
3749.8699895374884
 20
1841.4247038674876
 42
0.9999999999999998
  0
LWPOLYLINE
  5
10E
330
17
100
AcDbEntity
  8
0
 62
2
 48
0.5
100
AcDbPolyline
 90
4
 70
1
 10
3709.869989537983
 20
1816.424703867502
 10
3709.869989537983
 20
1804.924703867502
 42
-0.9999999999999998
 10
3701.369989537896
 20
1804.924703867502
 10
3701.369989537896
 20
1816.424703867502
 42
-0.9999999999999998
  0
LWPOLYLINE
  5
10F
330
17
100
AcDbEntity
  8
0
 62
2
 48
0.5
100
AcDbPolyline
 90
4
 70
1
 10
3741.3699895374884
 20
1816.424703867502
 10
3741.3699895374884
 20
1804.924703867502
 42
0.9999999999999998
 10
3749.8699895374884
 20
1804.924703867502
 10
3749.8699895374884
 20
1816.424703867502
 42
0.9999999999999998
  0
LWPOLYLINE
  5
110
330
17
100
AcDbEntity
  8
0
 62
2
 48
0.5
100
AcDbPolyline
 90
4
 70
1
 10
3709.869989537983
 20
1791.424703867502
 10
3709.869989537983
 20
1779.924703867502
 42
-0.9999999999999998
 10
3701.369989537896
 20
1779.924703867502
 10
3701.369989537896
 20
1791.424703867502
 42
-0.9999999999999998
  0
LWPOLYLINE
  5
111
330
17
100
AcDbEntity
  8
0
 62
2
 48
0.5
100
AcDbPolyline
 90
4
 70
1
 10
3741.3699895374884
 20
1791.424703867502
 10
3741.3699895374884
 20
1779.924703867502
 42
0.9999999999999998
 10
3749.8699895374884
 20
1779.924703867502
 10
3749.8699895374884
 20
1791.424703867502
 42
0.9999999999999998
  0
LWPOLYLINE
  5
112
330
17
100
AcDbEntity
  8
0
 62
2
 48
0.5
100
AcDbPolyline
 90
4
 70
1
 10
3709.869989537983
 20
2891.424703867502
 10
3709.869989537983
 20
2879.924703867502
 42
-0.9999999999999998
 10
3701.369989537896
 20
2879.924703867502
 10
3701.369989537896
 20
2891.424703867502
 42
-0.9999999999999998
  0
LWPOLYLINE
  5
113
330
17
100
AcDbEntity
  8
0
 62
2
 48
0.5
100
AcDbPolyline
 90
4
 70
1
 10
3741.3699895374884
 20
2891.424703867502
 10
3741.3699895374884
 20
2879.924703867502
 42
0.9999999999999998
 10
3749.8699895374884
 20
2879.924703867502
 10
3749.8699895374884
 20
2891.424703867502
 42
0.9999999999999998
  0
LWPOLYLINE
  5
114
330
17
100
AcDbEntity
  8
0
 62
2
 48
0.5
100
AcDbPolyline
 90
4
 70
1
 10
3709.869989537983
 20
2866.4247038674876
 10
3709.869989537983
 20
2854.9247038674876
 42
-0.9999999999999998
 10
3701.369989537896
 20
2854.9247038674876
 10
3701.369989537896
 20
2866.4247038674876
 42
-0.9999999999999998
  0
LWPOLYLINE
  5
115
330
17
100
AcDbEntity
  8
0
 62
2
 48
0.5
100
AcDbPolyline
 90
4
 70
1
 10
3741.3699895374884
 20
2866.4247038674876
 10
3741.3699895374884
 20
2854.9247038674876
 42
0.9999999999999998
 10
3749.8699895374884
 20
2854.9247038674876
 10
3749.8699895374884
 20
2866.4247038674876
 42
0.9999999999999998
  0
LWPOLYLINE
  5
116
330
17
100
AcDbEntity
  8
0
 62
2
 48
0.5
100
AcDbPolyline
 90
4
 70
1
 10
3709.869989537983
 20
2841.424703867502
 10
3709.869989537983
 20
2829.924703867502
 42
-0.9999999999999998
 10
3701.369989537896
 20
2829.924703867502
 10
3701.369989537896
 20
2841.424703867502
 42
-0.9999999999999998
  0
LWPOLYLINE
  5
117
330
17
100
AcDbEntity
  8
0
 62
2
 48
0.5
100
AcDbPolyline
 90
4
 70
1
 10
3741.3699895374884
 20
2841.424703867502
 10
3741.3699895374884
 20
2829.924703867502
 42
0.9999999999999998
 10
3749.8699895374884
 20
2829.924703867502
 10
3749.8699895374884
 20
2841.424703867502
 42
0.9999999999999998
  0
LWPOLYLINE
  5
118
330
17
100
AcDbEntity
  8
0
 62
2
 48
0.5
100
AcDbPolyline
 90
4
 70
1
 10
3709.869989537983
 20
2816.424703867502
 10
3709.869989537983
 20
2804.924703867502
 42
-0.9999999999999998
 10
3701.369989537896
 20
2804.924703867502
 10
3701.369989537896
 20
2816.424703867502
 42
-0.9999999999999998
  0
LWPOLYLINE
  5
119
330
17
100
AcDbEntity
  8
0
 62
2
 48
0.5
100
AcDbPolyline
 90
4
 70
1
 10
3741.3699895374884
 20
2816.424703867502
 10
3741.3699895374884
 20
2804.924703867502
 42
0.9999999999999998
 10
3749.8699895374884
 20
2804.924703867502
 10
3749.8699895374884
 20
2816.424703867502
 42
0.9999999999999998
  0
LWPOLYLINE
  5
11A
330
17
100
AcDbEntity
  8
0
 62
2
 48
0.5
100
AcDbPolyline
 90
4
 70
1
 10
3709.869989537983
 20
2791.424703867502
 10
3709.869989537983
 20
2779.924703867502
 42
-0.9999999999999998
 10
3701.369989537896
 20
2779.924703867502
 10
3701.369989537896
 20
2791.424703867502
 42
-0.9999999999999998
  0
LWPOLYLINE
  5
11B
330
17
100
AcDbEntity
  8
0
 62
2
 48
0.5
100
AcDbPolyline
 90
4
 70
1
 10
3741.3699895374884
 20
2791.424703867502
 10
3741.3699895374884
 20
2779.924703867502
 42
0.9999999999999998
 10
3749.8699895374884
 20
2779.924703867502
 10
3749.8699895374884
 20
2791.424703867502
 42
0.9999999999999998
  0
LWPOLYLINE
  5
11C
330
17
100
AcDbEntity
  8
0
 62
2
 48
0.5
100
AcDbPolyline
 90
4
 70
1
 10
3709.869989537983
 20
2766.424703867502
 10
3709.869989537983
 20
2754.924703867502
 42
-0.9999999999999998
 10
3701.369989537896
 20
2754.924703867502
 10
3701.369989537896
 20
2766.424703867502
 42
-0.9999999999999998
  0
LWPOLYLINE
  5
11D
330
17
100
AcDbEntity
  8
0
 62
2
 48
0.5
100
AcDbPolyline
 90
4
 70
1
 10
3741.3699895374884
 20
2766.424703867502
 10
3741.3699895374884
 20
2754.924703867502
 42
0.9999999999999998
 10
3749.8699895374884
 20
2754.924703867502
 10
3749.8699895374884
 20
2766.424703867502
 42
0.9999999999999998
  0
LWPOLYLINE
  5
11E
330
17
100
AcDbEntity
  8
0
 62
2
 48
0.5
100
AcDbPolyline
 90
4
 70
1
 10
3709.869989537983
 20
2741.424703867502
 10
3709.869989537983
 20
2729.924703867502
 42
-0.9999999999999998
 10
3701.369989537896
 20
2729.924703867502
 10
3701.369989537896
 20
2741.424703867502
 42
-0.9999999999999998
  0
LWPOLYLINE
  5
11F
330
17
100
AcDbEntity
  8
0
 62
2
 48
0.5
100
AcDbPolyline
 90
4
 70
1
 10
3741.3699895374884
 20
2741.424703867502
 10
3741.3699895374884
 20
2729.924703867502
 42
0.9999999999999998
 10
3749.8699895374884
 20
2729.924703867502
 10
3749.8699895374884
 20
2741.424703867502
 42
0.9999999999999998
  0
LWPOLYLINE
  5
120
330
17
100
AcDbEntity
  8
0
 62
2
 48
0.5
100
AcDbPolyline
 90
4
 70
1
 10
3709.869989537983
 20
2716.424703867502
 10
3709.869989537983
 20
2704.924703867502
 42
-0.9999999999999998
 10
3701.369989537896
 20
2704.924703867502
 10
3701.369989537896
 20
2716.424703867502
 42
-0.9999999999999998
  0
LWPOLYLINE
  5
121
330
17
100
AcDbEntity
  8
0
 62
2
 48
0.5
100
AcDbPolyline
 90
4
 70
1
 10
3741.3699895374884
 20
2716.424703867502
 10
3741.3699895374884
 20
2704.924703867502
 42
0.9999999999999998
 10
3749.8699895374884
 20
2704.924703867502
 10
3749.8699895374884
 20
2716.424703867502
 42
0.9999999999999998
  0
LWPOLYLINE
  5
122
330
17
100
AcDbEntity
  8
0
 62
2
 48
0.5
100
AcDbPolyline
 90
4
 70
1
 10
3709.869989537983
 20
2691.4247038674876
 10
3709.869989537983
 20
2679.9247038674876
 42
-0.9999999999999998
 10
3701.369989537896
 20
2679.9247038674876
 10
3701.369989537896
 20
2691.4247038674876
 42
-0.9999999999999998
  0
LWPOLYLINE
  5
123
330
17
100
AcDbEntity
  8
0
 62
2
 48
0.5
100
AcDbPolyline
 90
4
 70
1
 10
3741.3699895374884
 20
2691.4247038674876
 10
3741.3699895374884
 20
2679.9247038674876
 42
0.9999999999999998
 10
3749.8699895374884
 20
2679.9247038674876
 10
3749.8699895374884
 20
2691.4247038674876
 42
0.9999999999999998
  0
LWPOLYLINE
  5
124
330
17
100
AcDbEntity
  8
0
 62
2
 48
0.5
100
AcDbPolyline
 90
4
 70
1
 10
3709.869989537983
 20
2666.424703867502
 10
3709.869989537983
 20
2654.924703867502
 42
-0.9999999999999998
 10
3701.369989537896
 20
2654.924703867502
 10
3701.369989537896
 20
2666.424703867502
 42
-0.9999999999999998
  0
LWPOLYLINE
  5
125
330
17
100
AcDbEntity
  8
0
 62
2
 48
0.5
100
AcDbPolyline
 90
4
 70
1
 10
3741.3699895374884
 20
2666.424703867502
 10
3741.3699895374884
 20
2654.924703867502
 42
0.9999999999999998
 10
3749.8699895374884
 20
2654.924703867502
 10
3749.8699895374884
 20
2666.424703867502
 42
0.9999999999999998
  0
LWPOLYLINE
  5
126
330
17
100
AcDbEntity
  8
0
 62
2
 48
0.5
100
AcDbPolyline
 90
4
 70
1
 10
3709.869989537983
 20
2641.424703867502
 10
3709.869989537983
 20
2629.924703867502
 42
-0.9999999999999998
 10
3701.369989537896
 20
2629.924703867502
 10
3701.369989537896
 20
2641.424703867502
 42
-0.9999999999999998
  0
LWPOLYLINE
  5
127
330
17
100
AcDbEntity
  8
0
 62
2
 48
0.5
100
AcDbPolyline
 90
4
 70
1
 10
3741.3699895374884
 20
2641.424703867502
 10
3741.3699895374884
 20
2629.924703867502
 42
0.9999999999999998
 10
3749.8699895374884
 20
2629.924703867502
 10
3749.8699895374884
 20
2641.424703867502
 42
0.9999999999999998
  0
LWPOLYLINE
  5
128
330
17
100
AcDbEntity
  8
0
 62
2
 48
0.5
100
AcDbPolyline
 90
4
 70
1
 10
3709.869989537983
 20
2616.424703867502
 10
3709.869989537983
 20
2604.924703867502
 42
-0.9999999999999998
 10
3701.369989537896
 20
2604.924703867502
 10
3701.369989537896
 20
2616.424703867502
 42
-0.9999999999999998
  0
LWPOLYLINE
  5
129
330
17
100
AcDbEntity
  8
0
 62
2
 48
0.5
100
AcDbPolyline
 90
4
 70
1
 10
3741.3699895374884
 20
2616.424703867502
 10
3741.3699895374884
 20
2604.924703867502
 42
0.9999999999999998
 10
3749.8699895374884
 20
2604.924703867502
 10
3749.8699895374884
 20
2616.424703867502
 42
0.9999999999999998
  0
LWPOLYLINE
  5
12A
330
17
100
AcDbEntity
  8
0
 62
2
 48
0.5
100
AcDbPolyline
 90
4
 70
1
 10
3709.869989537983
 20
2591.424703867502
 10
3709.869989537983
 20
2579.924703867502
 42
-0.9999999999999998
 10
3701.369989537896
 20
2579.924703867502
 10
3701.369989537896
 20
2591.424703867502
 42
-0.9999999999999998
  0
LWPOLYLINE
  5
12B
330
17
100
AcDbEntity
  8
0
 62
2
 48
0.5
100
AcDbPolyline
 90
4
 70
1
 10
3741.3699895374884
 20
2591.424703867502
 10
3741.3699895374884
 20
2579.924703867502
 42
0.9999999999999998
 10
3749.8699895374884
 20
2579.924703867502
 10
3749.8699895374884
 20
2591.424703867502
 42
0.9999999999999998
  0
LWPOLYLINE
  5
12C
330
17
100
AcDbEntity
  8
0
 62
2
 48
0.5
100
AcDbPolyline
 90
4
 70
1
 10
3709.869989537983
 20
2566.424703867502
 10
3709.869989537983
 20
2554.924703867502
 42
-0.9999999999999998
 10
3701.369989537896
 20
2554.924703867502
 10
3701.369989537896
 20
2566.424703867502
 42
-0.9999999999999998
  0
LWPOLYLINE
  5
12D
330
17
100
AcDbEntity
  8
0
 62
2
 48
0.5
100
AcDbPolyline
 90
4
 70
1
 10
3741.3699895374884
 20
2566.424703867502
 10
3741.3699895374884
 20
2554.924703867502
 42
0.9999999999999998
 10
3749.8699895374884
 20
2554.924703867502
 10
3749.8699895374884
 20
2566.424703867502
 42
0.9999999999999998
  0
LWPOLYLINE
  5
12E
330
17
100
AcDbEntity
  8
0
 62
2
 48
0.5
100
AcDbPolyline
 90
4
 70
1
 10
3709.869989537983
 20
2541.424703867502
 10
3709.869989537983
 20
2529.924703867502
 42
-0.9999999999999998
 10
3701.369989537896
 20
2529.924703867502
 10
3701.369989537896
 20
2541.424703867502
 42
-0.9999999999999998
  0
LWPOLYLINE
  5
12F
330
17
100
AcDbEntity
  8
0
 62
2
 48
0.5
100
AcDbPolyline
 90
4
 70
1
 10
3741.3699895374884
 20
2541.424703867502
 10
3741.3699895374884
 20
2529.924703867502
 42
0.9999999999999998
 10
3749.8699895374884
 20
2529.924703867502
 10
3749.8699895374884
 20
2541.424703867502
 42
0.9999999999999998
  0
LWPOLYLINE
  5
130
330
17
100
AcDbEntity
  8
0
 62
2
 48
0.5
100
AcDbPolyline
 90
4
 70
1
 10
3709.869989537983
 20
2516.424703867502
 10
3709.869989537983
 20
2504.924703867502
 42
-0.9999999999999998
 10
3701.369989537896
 20
2504.924703867502
 10
3701.369989537896
 20
2516.424703867502
 42
-0.9999999999999998
  0
LWPOLYLINE
  5
131
330
17
100
AcDbEntity
  8
0
 62
2
 48
0.5
100
AcDbPolyline
 90
4
 70
1
 10
3741.3699895374884
 20
2516.424703867502
 10
3741.3699895374884
 20
2504.924703867502
 42
0.9999999999999998
 10
3749.8699895374884
 20
2504.924703867502
 10
3749.8699895374884
 20
2516.424703867502
 42
0.9999999999999998
  0
LWPOLYLINE
  5
132
330
17
100
AcDbEntity
  8
0
 62
2
 48
0.5
100
AcDbPolyline
 90
4
 70
1
 10
3709.869989537983
 20
2491.424703867502
 10
3709.869989537983
 20
2479.924703867502
 42
-0.9999999999999998
 10
3701.369989537896
 20
2479.924703867502
 10
3701.369989537896
 20
2491.424703867502
 42
-0.9999999999999998
  0
LWPOLYLINE
  5
133
330
17
100
AcDbEntity
  8
0
 62
2
 48
0.5
100
AcDbPolyline
 90
4
 70
1
 10
3741.3699895374884
 20
2491.424703867502
 10
3741.3699895374884
 20
2479.924703867502
 42
0.9999999999999998
 10
3749.8699895374884
 20
2479.924703867502
 10
3749.8699895374884
 20
2491.424703867502
 42
0.9999999999999998
  0
LWPOLYLINE
  5
134
330
17
100
AcDbEntity
  8
0
 62
2
 48
0.5
100
AcDbPolyline
 90
4
 70
1
 10
3709.869989537983
 20
2466.4247038674876
 10
3709.869989537983
 20
2454.9247038674876
 42
-0.9999999999999998
 10
3701.369989537896
 20
2454.9247038674876
 10
3701.369989537896
 20
2466.4247038674876
 42
-0.9999999999999998
  0
LWPOLYLINE
  5
135
330
17
100
AcDbEntity
  8
0
 62
2
 48
0.5
100
AcDbPolyline
 90
4
 70
1
 10
3741.3699895374884
 20
2466.4247038674876
 10
3741.3699895374884
 20
2454.9247038674876
 42
0.9999999999999998
 10
3749.8699895374884
 20
2454.9247038674876
 10
3749.8699895374884
 20
2466.4247038674876
 42
0.9999999999999998
  0
LWPOLYLINE
  5
136
330
17
100
AcDbEntity
  8
0
 62
2
 48
0.5
100
AcDbPolyline
 90
4
 70
1
 10
3709.869989537983
 20
2441.424703867502
 10
3709.869989537983
 20
2429.924703867502
 42
-0.9999999999999998
 10
3701.369989537896
 20
2429.924703867502
 10
3701.369989537896
 20
2441.424703867502
 42
-0.9999999999999998
  0
LWPOLYLINE
  5
137
330
17
100
AcDbEntity
  8
0
 62
2
 48
0.5
100
AcDbPolyline
 90
4
 70
1
 10
3741.3699895374884
 20
2441.424703867502
 10
3741.3699895374884
 20
2429.924703867502
 42
0.9999999999999998
 10
3749.8699895374884
 20
2429.924703867502
 10
3749.8699895374884
 20
2441.424703867502
 42
0.9999999999999998
  0
LWPOLYLINE
  5
138
330
17
100
AcDbEntity
  8
0
 48
3.0
100
AcDbPolyline
 90
4
 70
1
 10
4044.703895868588
 20
1620.474168466637
 10
4044.703895868588
 20
2740.474168466637
 10
3994.7038958687044
 20
2740.474168466637
 10
3994.7038958687044
 20
1620.474168466637
  0
INSERT
  5
139
330
17
100
AcDbEntity
  8
CNC
370
-3
100
AcDbBlockReference
  2
ovan8.5x20
 10
4007.203895868588
 20
1635.724168466637
 30
0.0
 41
-1.0
 50
270.0
  0
INSERT
  5
13B
330
17
100
AcDbEntity
  8
CNC
370
-3
100
AcDbBlockReference
  2
ovan8.5x20
 10
4032.2038958687044
 20
1635.724168466637
 30
0.0
 50
90.0
  0
INSERT
  5
13D
330
17
100
AcDbEntity
  8
CNC
370
-3
100
AcDbBlockReference
  2
ovan8.5x20
 10
4007.203895868588
 20
2725.224168466637
 30
0.0
 50
270.0
  0
INSERT
  5
13F
330
17
100
AcDbEntity
  8
CNC
370
-3
100
AcDbBlockReference
  2
ovan8.5x20
 10
4032.2038958687044
 20
2725.224168466637
 30
0.0
 41
-1.0
 50
90.0
  0
LINE
  5
141
330
17
100
AcDbEntity
  8
0
 48
3.0
100
AcDbLine
 10
3979.703895868588
 20
1620.474168466637
 30
0.0
 11
3979.703895868588
 21
2740.474168466637
 31
0.0
  0
LINE
  5
142
330
17
100
AcDbEntity
  8
0
 48
3.0
100
AcDbLine
 10
4055.7038958687044
 20
1620.474168466637
 30
0.0
 11
4055.7038958687044
 21
2740.474168466637
 31
0.0
  0
LWPOLYLINE
  5
143
330
17
100
AcDbEntity
  8
0
 48
3.0
100
AcDbPolyline
 90
4
 70
1
 10
3979.703895868588
 20
1620.474168466637
 10
3979.703895868588
 20
2740.474168466637
 10
4055.7038958687044
 20
2740.474168466637
 10
4055.7038958687044
 20
1620.474168466637
  0
CIRCLE
  5
144
330
17
100
AcDbEntity
  8
0
 48
3.0
100
AcDbCircle
 10
3994.7038958687044
 20
1626.474168466637
 30
0.0
 40
1.5
  0
CIRCLE
  5
145
330
17
100
AcDbEntity
  8
0
 48
3.0
100
AcDbCircle
 10
4044.703895868588
 20
1626.474168466637
 30
0.0
 40
1.5
  0
CIRCLE
  5
146
330
17
100
AcDbEntity
  8
0
 48
3.0
100
AcDbCircle
 10
3994.7038958687044
 20
2734.474168466637
 30
0.0
 40
1.5
  0
CIRCLE
  5
147
330
17
100
AcDbEntity
  8
0
 48
3.0
100
AcDbCircle
 10
4044.703895868588
 20
2734.474168466637
 30
0.0
 40
1.5
  0
DIMENSION
  5
148
330
17
100
AcDbEntity
  8
DIM
 48
3.0
100
AcDbDimension
280
0
  2
*D17
  3
Dim-33
 10
3949.0865893583104
 20
2740.474168466637
 30
0.0
 11
3917.237680763501
 21
2180.4741684666587
 31
0.0
 70
32
 71
5
 42
1120.0
 73
0
 74
0
 75
0
100
AcDbAlignedDimension
 13
3979.703895868588
 23
1620.474168466637
 33
0.0
 14
3979.703895868588
 24
2740.474168466637
 34
0.0
 50
90.0
100
AcDbRotatedDimension
  0
DIMENSION
  5
149
330
17
100
AcDbEntity
  8
DIM
 48
3.0
100
AcDbDimension
280
0
  2
*D18
  3
Dim-33
 10
4055.7038958687044
 20
1530.5706893976385
 30
0.0
 11
4017.703895868588
 21
1530.5706893976385
 31
0.0
 70
160
 71
5
 42
76.0
 73
0
 74
0
 75
0
100
AcDbAlignedDimension
 13
3979.703895868588
 23
1620.474168466637
 33
0.0
 14
4055.7038958687044
 24
1620.474168466637
 34
0.0
 50
180.0
100
AcDbRotatedDimension
  0
DIMENSION
  5
14A
330
17
100
AcDbEntity
  8
DIM
 48
3.0
100
AcDbDimension
280
0
  2
*D19
  3
Dim-33
 10
3979.703895868588
 20
2867.2492450813297
 30
0.0
 11
3918.4975520760054
 21
2899.0981536761465
 31
0.0
 70
32
 71
5
 42
15.0
 73
0
 74
0
 75
0
100
AcDbAlignedDimension
 13
3994.7038958687044
 23
2740.474168466637
 33
0.0
 14
3979.703895868588
 24
2740.474168466637
 34
0.0
 50
180.0
100
AcDbRotatedDimension
  0
DIMENSION
  5
14B
330
17
100
AcDbEntity
  8
DIM
 48
3.0
100
AcDbDimension
280
0
  2
*D20
  3
Dim-33
 10
4044.703895868588
 20
2867.2492450813297
 30
0.0
 11
4095.2833638085867
 21
2899.0981536761465
 31
0.0
 70
32
 71
5
 42
50.0
 73
0
 74
0
 75
0
100
AcDbAlignedDimension
 13
3994.7038958687044
 23
2740.474168466637
 33
0.0
 14
4044.703895868588
 24
2740.474168466637
 34
0.0
 50
180.0
100
AcDbRotatedDimension
  0
INSERT
  5
14C
330
17
100
AcDbEntity
  8
CNC
370
-3
100
AcDbBlockReference
  2
ovan8.5x20
 10
4019.703895868588
 20
1980.474168466637
 30
0.0
 41
-1.0
 50
270.0
  0
INSERT
  5
14E
330
17
100
AcDbEntity
  8
CNC
370
-3
100
AcDbBlockReference
  2
ovan8.5x20
 10
4019.703895868588
 20
2005.474168466637
 30
0.0
 41
-1.0
 50
270.0
  0
INSERT
  5
150
330
17
100
AcDbEntity
  8
CNC
370
-3
100
AcDbBlockReference
  2
ovan8.5x20
 10
4019.703895868588
 20
2030.474168466637
 30
0.0
 41
-1.0
 50
270.0
  0
INSERT
  5
152
330
17
100
AcDbEntity
  8
CNC
370
-3
100
AcDbBlockReference
  2
ovan8.5x20
 10
4019.703895868588
 20
2055.474168466637
 30
0.0
 41
-1.0
 50
270.0
  0
INSERT
  5
154
330
17
100
AcDbEntity
  8
CNC
370
-3
100
AcDbBlockReference
  2
ovan8.5x20
 10
4019.703895868588
 20
2080.474168466637
 30
0.0
 41
-1.0
 50
270.0
  0
INSERT
  5
156
330
17
100
AcDbEntity
  8
CNC
370
-3
100
AcDbBlockReference
  2
ovan8.5x20
 10
4019.703895868588
 20
2105.474168466637
 30
0.0
 41
-1.0
 50
270.0
  0
INSERT
  5
158
330
17
100
AcDbEntity
  8
CNC
370
-3
100
AcDbBlockReference
  2
ovan8.5x20
 10
4019.703895868588
 20
2130.474168466637
 30
0.0
 41
-1.0
 50
270.0
  0
INSERT
  5
15A
330
17
100
AcDbEntity
  8
CNC
370
-3
100
AcDbBlockReference
  2
ovan8.5x20
 10
4019.703895868588
 20
2155.474168466637
 30
0.0
 41
-1.0
 50
270.0
  0
INSERT
  5
15C
330
17
100
AcDbEntity
  8
CNC
370
-3
100
AcDbBlockReference
  2
ovan8.5x20
 10
4019.703895868588
 20
2180.474168466637
 30
0.0
 41
-1.0
 50
270.0
  0
INSERT
  5
15E
330
17
100
AcDbEntity
  8
CNC
370
-3
100
AcDbBlockReference
  2
ovan8.5x20
 10
4019.703895868588
 20
2205.474168466637
 30
0.0
 41
-1.0
 50
270.0
  0
INSERT
  5
160
330
17
100
AcDbEntity
  8
CNC
370
-3
100
AcDbBlockReference
  2
ovan8.5x20
 10
4019.703895868588
 20
2230.474168466637
 30
0.0
 41
-1.0
 50
270.0
  0
INSERT
  5
162
330
17
100
AcDbEntity
  8
CNC
370
-3
100
AcDbBlockReference
  2
ovan8.5x20
 10
4019.703895868588
 20
2255.474168466637
 30
0.0
 41
-1.0
 50
270.0
  0
INSERT
  5
164
330
17
100
AcDbEntity
  8
CNC
370
-3
100
AcDbBlockReference
  2
ovan8.5x20
 10
4019.703895868588
 20
1955.474168466637
 30
0.0
 50
270.0
  0
INSERT
  5
166
330
17
100
AcDbEntity
  8
CNC
370
-3
100
AcDbBlockReference
  2
ovan8.5x20
 10
4019.703895868588
 20
1930.474168466637
 30
0.0
 50
270.0
  0
INSERT
  5
168
330
17
100
AcDbEntity
  8
CNC
370
-3
100
AcDbBlockReference
  2
ovan8.5x20
 10
4019.703895868588
 20
1905.474168466637
 30
0.0
 50
270.0
  0
INSERT
  5
16A
330
17
100
AcDbEntity
  8
CNC
370
-3
100
AcDbBlockReference
  2
ovan8.5x20
 10
4019.703895868588
 20
1880.474168466637
 30
0.0
 50
270.0
  0
INSERT
  5
16C
330
17
100
AcDbEntity
  8
CNC
370
-3
100
AcDbBlockReference
  2
ovan8.5x20
 10
4019.703895868588
 20
1855.474168466637
 30
0.0
 50
270.0
  0
INSERT
  5
16E
330
17
100
AcDbEntity
  8
CNC
370
-3
100
AcDbBlockReference
  2
ovan8.5x20
 10
4019.703895868588
 20
1830.474168466637
 30
0.0
 50
270.0
  0
INSERT
  5
170
330
17
100
AcDbEntity
  8
CNC
370
-3
100
AcDbBlockReference
  2
ovan8.5x20
 10
4019.703895868588
 20
1805.474168466637
 30
0.0
 50
270.0
  0
INSERT
  5
172
330
17
100
AcDbEntity
  8
CNC
370
-3
100
AcDbBlockReference
  2
ovan8.5x20
 10
4019.703895868588
 20
1780.474168466637
 30
0.0
 50
270.0
  0
INSERT
  5
174
330
17
100
AcDbEntity
  8
CNC
370
-3
100
AcDbBlockReference
  2
ovan8.5x20
 10
4019.703895868588
 20
1755.474168466637
 30
0.0
 50
270.0
  0
INSERT
  5
176
330
17
100
AcDbEntity
  8
CNC
370
-3
100
AcDbBlockReference
  2
ovan8.5x20
 10
4019.703895868588
 20
1730.474168466637
 30
0.0
 50
270.0
  0
INSERT
  5
178
330
17
100
AcDbEntity
  8
CNC
370
-3
100
AcDbBlockReference
  2
ovan8.5x20
 10
4019.703895868588
 20
1705.474168466637
 30
0.0
 50
270.0
  0
INSERT
  5
17A
330
17
100
AcDbEntity
  8
CNC
370
-3
100
AcDbBlockReference
  2
ovan8.5x20
 10
4019.703895868588
 20
1680.474168466637
 30
0.0
 50
270.0
  0
INSERT
  5
17C
330
17
100
AcDbEntity
  8
CNC
370
-3
100
AcDbBlockReference
  2
ovan8.5x20
 10
4019.703895868588
 20
1655.474168466637
 30
0.0
 50
270.0
  0
MTEXT
  5
17E
330
17
100
AcDbEntity
  8
0
 62
2
100
AcDbMText
 10
3990.4154915754916
 20
1448.1435329560481
 30
0.0
 40
36.0
 41
775.0000000000146
 46
177.6045738206836
 71
5
 72
5
  1
Thanh U \P: 4 tấm
  0
LINE
  5
17F
330
17
100
AcDbEntity
  8
0
 62
7
100
AcDbLine
 10
1792.8479845311958
 20
896.9059500104122
 30
0.0
 11
2064.847984531196
 21
896.9059500104122
 31
0.0
  0
LINE
  5
180
330
17
100
AcDbEntity
  8
0
 62
7
100
AcDbLine
 10
1742.8479845311958
 20
846.9059500104122
 30
0.0
 11
2114.847984531283
 21
846.9059500104122
 31
0.0
  0
LINE
  5
181
330
17
100
AcDbEntity
  8
0
 62
7
100
AcDbLine
 10
2114.847984531283
 20
846.9059500104122
 30
0.0
 11
2114.847984531283
 21
746.9059500104195
 31
0.0
  0
LINE
  5
182
330
17
100
AcDbEntity
  8
0
 62
7
100
AcDbLine
 10
2064.847984531196
 20
696.9059500104195
 30
0.0
 11
1792.8479845311958
 21
696.9059500104195
 31
0.0
  0
LINE
  5
183
330
17
100
AcDbEntity
  8
0
 62
7
100
AcDbLine
 10
2114.847984531283
 20
746.9059500104195
 30
0.0
 11
1742.8479845311958
 21
746.9059500104195
 31
0.0
  0
LINE
  5
184
330
17
100
AcDbEntity
  8
0
 62
7
100
AcDbLine
 10
1742.8479845311958
 20
746.9059500104195
 30
0.0
 11
1742.8479845311958
 21
846.9059500104122
 31
0.0
  0
LINE
  5
185
330
17
100
AcDbEntity
  8
0
 62
7
100
AcDbLine
 10
1742.8479845311958
 20
746.9059500104195
 30
0.0
 11
1792.8479845311958
 21
696.9059500104195
 31
0.0
  0
LINE
  5
186
330
17
100
AcDbEntity
  8
0
 62
7
100
AcDbLine
 10
1742.8479845311958
 20
846.9059500104122
 30
0.0
 11
1792.8479845311958
 21
896.9059500104122
 31
0.0
  0
LINE
  5
187
330
17
100
AcDbEntity
  8
0
 62
7
100
AcDbLine
 10
2064.847984531196
 20
896.9059500104122
 30
0.0
 11
2114.847984531283
 21
846.9059500104122
 31
0.0
  0
LINE
  5
188
330
17
100
AcDbEntity
  8
0
 62
7
100
AcDbLine
 10
2114.847984531283
 20
746.9059500104195
 30
0.0
 11
2064.847984531196
 21
696.9059500104195
 31
0.0
  0
DIMENSION
  5
189
330
17
100
AcDbEntity
  8
DIM
 62
7
100
AcDbDimension
280
0
  2
*D21
  3
Dim-33
 10
2254.6282024018874
 20
696.9059500104195
 30
0.0
 11
2222.779293807107
 21
796.9059500104413
 31
0.0
 70
32
 71
5
 42
200.0
 73
0
 74
0
 75
0
100
AcDbAlignedDimension
 13
2064.847984531196
 23
896.9059500104122
 33
0.0
 14
2064.847984531196
 24
696.9059500104195
 34
0.0
 50
90.0
100
AcDbRotatedDimension
  0
DIMENSION
  5
18A
330
17
100
AcDbEntity
  8
DIM
 62
7
100
AcDbDimension
280
0
  2
*D22
  3
Dim-33
 10
2114.847984531283
 20
604.1747952754667
 30
0.0
 11
1928.8479845311958
 21
636.0349589862599
 31
0.0
 70
32
 71
5
 42
372.0
 73
0
 74
0
 75
0
100
AcDbAlignedDimension
 13
1742.8479845311958
 23
746.9059500104195
 33
0.0
 14
2114.847984531283
 24
746.9059500104195
 34
0.0
 50
0.0
100
AcDbRotatedDimension
  0
DIMENSION
  5
18B
330
17
100
AcDbEntity
  8
DIM
 62
7
100
AcDbDimension
280
0
  2
*D23
  3
Dim-33
 10
1697.9113216554106
 20
746.9059500104195
 30
0.0
 11
1666.062413060601
 21
796.9059500104413
 31
0.0
 70
32
 71
5
 42
100.0
 73
0
 74
0
 75
0
100
AcDbAlignedDimension
 13
1742.8479845311958
 23
846.9059500104122
 33
0.0
 14
1742.8479845311958
 24
746.9059500104195
 34
0.0
 50
90.0
100
AcDbRotatedDimension
  0
DIMENSION
  5
18C
330
17
100
AcDbEntity
  8
DIM
 62
7
100
AcDbDimension
280
0
  2
*D24
  3
Dim-33
 10
1697.9113216554106
 20
896.9059500104122
 30
0.0
 11
1666.062413060601
 21
947.4854179504182
 31
0.0
 70
32
 71
5
 42
50.0
 73
0
 74
0
 75
0
100
AcDbAlignedDimension
 13
1742.8479845311958
 23
846.9059500104122
 33
0.0
 14
1792.8479845311958
 24
896.9059500104122
 34
0.0
 50
90.0
100
AcDbRotatedDimension
  0
DIMENSION
  5
18D
330
17
100
AcDbEntity
  8
DIM
 62
7
100
AcDbDimension
280
0
  2
*D25
  3
Dim-33
 10
1697.9113216554106
 20
696.9059500104195
 30
0.0
 11
1666.062413060601
 21
646.3264820704717
 31
0.0
 70
32
 71
5
 42
50.0
 73
0
 74
0
 75
0
100
AcDbAlignedDimension
 13
1742.8479845311958
 23
746.9059500104195
 33
0.0
 14
1792.8479845311958
 24
696.9059500104195
 34
0.0
 50
90.0
100
AcDbRotatedDimension
  0
INSERT
  5
18E
330
17
100
AcDbEntity
  8
0
370
-3
100
AcDbBlockReference
  2
f3daunguoc
 10
1757.8479845311958
 20
846.9059500104122
 30
0.0
 50
270.0
  0
INSERT
  5
190
330
17
100
AcDbEntity
  8
0
370
-3
100
AcDbBlockReference
  2
f3daunguoc
 10
1757.8479845311958
 20
746.9059500104195
 30
0.0
 50
270.0
  0
INSERT
  5
192
330
17
100
AcDbEntity
  8
0
370
-3
100
AcDbBlockReference
  2
f3daunguoc
 10
2099.847984531196
 20
846.9059500104122
 30
0.0
 41
-1.0
 50
90.0
  0
INSERT
  5
194
330
17
100
AcDbEntity
  8
0
370
-3
100
AcDbBlockReference
  2
f3daunguoc
 10
2099.847984531196
 20
746.9059500104195
 30
0.0
 41
-1.0
 50
90.0
  0
MTEXT
  5
196
330
17
100
AcDbEntity
  8
0
 62
2
100
AcDbMText
 10
2041.1642895953846
 20
560.1136162335024
 30
0.0
 40
36.0
 41
875.0000000000146
 46
177.6045738206836
 71
5
 72
5
  1
Đế tủ : 2 tấm
  0
LINE
  5
197
330
17
100
AcDbEntity
  8
0
100
AcDbLine
 10
2842.4660205073014
 20
998.8338780687554
 30
0.0
 11
4125.466020507301
 21
998.8338780687554
 31
0.0
  0
LINE
  5
198
330
17
100
AcDbEntity
  8
0
100
AcDbLine
 10
2882.466020507185
 20
737.5632895249655
 30
0.0
 11
4085.4660205073014
 21
737.5632895249655
 31
0.0
  0
LINE
  5
199
330
17
100
AcDbEntity
  8
0
100
AcDbLine
 10
2882.466020507185
 20
568.0632895249582
 30
0.0
 11
4085.4660205073014
 21
568.0632895249582
 31
0.0
  0
LINE
  5
19A
330
17
100
AcDbEntity
  8
0
100
AcDbLine
 10
2882.466020507185
 20
548.0632895249582
 30
0.0
 11
4085.4660205073014
 21
548.0632895249582
 31
0.0
  0
LINE
  5
19B
330
17
100
AcDbEntity
  8
0
100
AcDbLine
 10
2882.466020507185
 20
538.0632895249582
 30
0.0
 11
4085.4660205073014
 21
538.0632895249582
 31
0.0
  0
LINE
  5
19C
330
17
100
AcDbEntity
  8
0
100
AcDbLine
 10
2882.466020507185
 20
1038.8338780687482
 30
0.0
 11
4085.4660205073014
 21
1038.8338780687482
 31
0.0
  0
LWPOLYLINE
  5
19D
330
17
100
AcDbEntity
  8
0
100
AcDbPolyline
 90
4
 70
1
 10
2882.466020507185
 20
1038.8338780687482
 10
4085.4660205073014
 20
1038.8338780687482
 10
4085.4660205073014
 20
538.0632895249582
 10
2882.466020507185
 20
538.0632895249582
  0
DIMENSION
  5
19E
330
17
100
AcDbEntity
  8
DIM
100
AcDbDimension
280
0
  2
*D26
  3
Dim-33
 10
4223.786871594086
 20
1038.8338780687482
 30
0.0
 11
4191.9379629993055
 21
1090.0773978504876
 31
0.0
 70
32
 71
5
 42
40.0
 73
0
 74
0
 75
0
100
AcDbAlignedDimension
 13
4125.466020507301
 23
998.8338780687554
 33
0.0
 14
4085.4660205073014
 24
1038.8338780687482
 34
0.0
 50
90.0
100
AcDbRotatedDimension
  0
DIMENSION
  5
19F
330
17
100
AcDbEntity
  8
DIM
100
AcDbDimension
280
0
  2
*D27
  3
Dim-33
 10
2819.3200565915904
 20
538.0632895249582
 30
0.0
 11
2787.47114799681
 21
788.4485837968823
 31
0.0
 70
32
 71
5
 42
500.7705885437899
 73
0
 74
0
 75
0
100
AcDbAlignedDimension
 13
2882.466020507185
 23
1038.8338780687482
 33
0.0
 14
2882.466020507185
 24
538.0632895249582
 34
0.0
 50
90.0
100
AcDbRotatedDimension
  0
CIRCLE
  5
1A0
330
17
100
AcDbEntity
  8
0
 62
2
100
AcDbCircle
 10
4080.4660205073014
 20
998.8338780687554
 30
0.0
 40
1.5
  0
CIRCLE
  5
1A1
330
17
100
AcDbEntity
  8
0
 62
2
100
AcDbCircle
 10
4070.4660205073014
 20
737.5632895249655
 30
0.0
 40
1.5
  0
CIRCLE
  5
1A2
330
17
100
AcDbEntity
  8
0
 62
2
100
AcDbCircle
 10
4080.4660205073014
 20
568.0632895249582
 30
0.0
 40
1.5
  0
CIRCLE
  5
1A3
330
17
100
AcDbEntity
  8
0
 62
2
100
AcDbCircle
 10
4080.4660205073014
 20
548.0632895249582
 30
0.0
 40
1.5
  0
CIRCLE
  5
1A4
330
17
100
AcDbEntity
  8
0
 62
2
100
AcDbCircle
 10
2887.4660205073014
 20
998.8338780687554
 30
0.0
 40
1.5
  0
CIRCLE
  5
1A5
330
17
100
AcDbEntity
  8
0
 62
2
100
AcDbCircle
 10
2897.4660205073014
 20
737.5632895249655
 30
0.0
 40
1.5
  0
CIRCLE
  5
1A6
330
17
100
AcDbEntity
  8
0
 62
2
100
AcDbCircle
 10
2887.4660205073014
 20
568.0632895249582
 30
0.0
 40
1.5
  0
CIRCLE
  5
1A7
330
17
100
AcDbEntity
  8
0
 62
2
100
AcDbCircle
 10
2887.4660205073014
 20
548.0632895249582
 30
0.0
 40
1.5
  0
LINE
  5
1A8
330
17
100
AcDbEntity
  8
0
100
AcDbLine
 10
4125.466020507301
 20
998.8338780687554
 30
0.0
 11
4125.466020507301
 21
569.0632895249582
 31
0.0
  0
CIRCLE
  5
1A9
330
17
100
AcDbEntity
  8
0
 62
2
100
AcDbCircle
 10
2882.466020507185
 20
993.8338780687482
 30
0.0
 40
1.5
  0
CIRCLE
  5
1AA
330
17
100
AcDbEntity
  8
0
 62
2
100
AcDbCircle
 10
2882.466020507185
 20
943.8338780687482
 30
0.0
 40
1.5
  0
CIRCLE
  5
1AB
330
17
100
AcDbEntity
  8
0
 62
2
100
AcDbCircle
 10
2882.466020507185
 20
752.5632895249582
 30
0.0
 40
1.5
  0
CIRCLE
  5
1AC
330
17
100
AcDbEntity
  8
0
 62
2
100
AcDbCircle
 10
4085.4660205073014
 20
993.8338780687482
 30
0.0
 40
1.5
  0
CIRCLE
  5
1AD
330
17
100
AcDbEntity
  8
0
 62
2
100
AcDbCircle
 10
4085.4660205073014
 20
943.8338780687482
 30
0.0
 40
1.5
  0
CIRCLE
  5
1AE
330
17
100
AcDbEntity
  8
0
 62
2
100
AcDbCircle
 10
4085.4660205073014
 20
752.5632895249582
 30
0.0
 40
1.5
  0
DIMENSION
  5
1AF
330
17
100
AcDbEntity
  8
DIM
100
AcDbDimension
280
0
  2
*D28
  3
Dim-33
 10
4125.466020507301
 20
1085.0389057788489
 30
0.0
 11
3483.9660205073014
 21
1116.8990694896202
 31
0.0
 70
32
 71
5
 42
1283.0
 73
0
 74
0
 75
0
100
AcDbAlignedDimension
 13
2842.4660205073014
 23
998.8338780687554
 33
0.0
 14
4125.466020507301
 24
998.8338780687554
 34
0.0
 50
0.0
100
AcDbRotatedDimension
  0
DIMENSION
  5
1B0
330
17
100
AcDbEntity
  8
DIM
100
AcDbDimension
280
0
  2
*D29
  3
Dim-33
 10
4223.786871594086
 20
998.8338780687554
 30
0.0
 11
4191.9379629993055
 21
868.1985837968823
 31
0.0
 70
32
 71
5
 42
261.2705885437899
 73
0
 74
0
 75
0
100
AcDbAlignedDimension
 13
4085.4660205073014
 23
737.5632895249655
 33
0.0
 14
4125.466020507301
 24
998.8338780687554
 34
0.0
 50
90.0
100
AcDbRotatedDimension
  0
LWPOLYLINE
  5
1B1
330
17
100
AcDbEntity
  8
0
  6
Continuous
 62
7
100
AcDbPolyline
 90
5
 70
1
 10
2842.4660205073014
 20
568.0632895249582
 10
2842.4660205073014
 20
998.8338780687554
 10
2882.466020507185
 20
998.8338780687554
 10
2882.466020507185
 20
737.5632895249655
 10
2862.4660205073014
 20
568.0632895249582
  0
LWPOLYLINE
  5
1B2
330
17
100
AcDbEntity
  8
0
  6
Continuous
 62
7
100
AcDbPolyline
 90
5
 70
1
 10
4125.466020507301
 20
568.0632895249582
 10
4125.466020507301
 20
998.8338780687554
 10
4085.4660205073014
 20
998.8338780687554
 10
4085.4660205073014
 20
737.5632895249655
 10
4105.466020507301
 20
568.0632895249582
  0
CIRCLE
  5
1B3
330
17
100
AcDbEntity
  8
0
 62
2
 48
3.0
100
AcDbCircle
 10
4085.4660205073014
 20
737.5632895249655
 30
0.0
 40
2.5
  0
CIRCLE
  5
1B4
330
17
100
AcDbEntity
  8
0
 62
2
 48
3.0
100
AcDbCircle
 10
2882.466020507185
 20
737.5632895249655
 30
0.0
 40
2.5
  0
CIRCLE
  5
1B5
330
17
100
AcDbEntity
  8
0
 62
2
 48
3.0
100
AcDbCircle
 10
3683.9660205073014
 20
1028.8338780687482
 30
0.0
 40
3.0
  0
CIRCLE
  5
1B6
330
17
100
AcDbEntity
  8
0
 62
2
 48
3.0
100
AcDbCircle
 10
3553.9660205073014
 20
1028.8338780687482
 30
0.0
 40
3.0
  0
CIRCLE
  5
1B7
330
17
100
AcDbEntity
  8
0
 62
2
 48
3.0
100
AcDbCircle
 10
3473.9660205073014
 20
1028.8338780687482
 30
0.0
 40
3.0
  0
CIRCLE
  5
1B8
330
17
100
AcDbEntity
  8
0
 62
2
 48
3.0
100
AcDbCircle
 10
2943.9660205073014
 20
1028.8338780687482
 30
0.0
 40
3.0
  0
CIRCLE
  5
1B9
330
17
100
AcDbEntity
  8
0
 62
2
 48
3.0
100
AcDbCircle
 10
3863.9660205073014
 20
1028.8338780687482
 30
0.0
 40
3.0
  0
CIRCLE
  5
1BA
330
17
100
AcDbEntity
  8
0
 62
2
 48
3.0
100
AcDbCircle
 10
3943.9660205073014
 20
1028.8338780687482
 30
0.0
 40
3.0
  0
CIRCLE
  5
1BB
330
17
100
AcDbEntity
  8
0
 62
2
 48
3.0
100
AcDbCircle
 10
4023.9660205073014
 20
1028.8338780687482
 30
0.0
 40
3.0
  0
CIRCLE
  5
1BC
330
17
100
AcDbEntity
  8
0
 62
2
 48
3.0
100
AcDbCircle
 10
2852.466020507185
 20
887.3338780687482
 30
0.0
 40
3.0
  0
CIRCLE
  5
1BD
330
17
100
AcDbEntity
  8
0
 62
2
 48
3.0
100
AcDbCircle
 10
2852.466020507185
 20
967.3338780687482
 30
0.0
 40
3.0
  0
CIRCLE
  5
1BE
330
17
100
AcDbEntity
  8
0
 62
2
 48
3.0
100
AcDbCircle
 10
4115.466020507301
 20
887.3338780687482
 30
0.0
 40
3.0
  0
CIRCLE
  5
1BF
330
17
100
AcDbEntity
  8
0
 62
2
 48
3.0
100
AcDbCircle
 10
4115.466020507301
 20
967.3338780687482
 30
0.0
 40
3.0
  0
MTEXT
  5
1C0
330
17
100
AcDbEntity
  8
0
 62
2
100
AcDbMText
 10
3448.952055226284
 20
355.4392558482723
 30
0.0
 40
39.0
 41
974.0000000000146
 46
100.0000000000031
 71
5
 72
5
  1
Nóc : 1 tấm
  0
CIRCLE
  5
1C1
330
17
100
AcDbEntity
  8
0
 62
2
 48
3.0
100
AcDbCircle
 10
2852.466020507185
 20
765.0632895249582
 30
0.0
 40
3.0
  0
CIRCLE
  5
1C2
330
17
100
AcDbEntity
  8
0
 62
2
 48
3.0
100
AcDbCircle
 10
4115.466020507301
 20
765.0632895249582
 30
0.0
 40
3.0
  0
CIRCLE
  5
1C3
330
17
100
AcDbEntity
  8
0
 62
2
 48
3.0
100
AcDbCircle
 10
2852.466020507185
 20
685.0632895249582
 30
0.0
 40
3.0
  0
CIRCLE
  5
1C4
330
17
100
AcDbEntity
  8
0
 62
2
 48
3.0
100
AcDbCircle
 10
4115.466020507301
 20
685.0632895249582
 30
0.0
 40
3.0
  0
DIMENSION
  5
1C5
330
17
100
AcDbEntity
  8
0
 62
2
 48
3.0
100
AcDbDimension
280
0
  2
*D30
  3
Dim-25
 10
4085.4660205073014
 20
413.7665463690064
 30
0.0
 11
3483.9660205073014
 21
436.5393976650521
 31
0.0
 70
32
 71
5
 42
1203.0
 73
0
 74
0
 75
0
100
AcDbAlignedDimension
 13
2882.466020507185
 23
538.0632895249582
 33
0.0
 14
4085.4660205073014
 24
538.0632895249582
 34
0.0
 50
0.0
100
AcDbRotatedDimension
  0
INSERT
  5
1C6
330
17
100
AcDbEntity
  8
0
 62
3
100
AcDbBlockReference
 66
1
  2
KHUNG CHUẨN
 10
-26329.152535955596
 20
44592.17129018923
 30
0.0
 41
1.556165536199841
 42
1.556165536199841
 43
1.556165536199841
  0
ATTRIB
  5
1C7
330
1C6
100
AcDbEntity
  8
0
 62
3
100
AcDbText
 10
1729.4083581216983
 20
116.80226313389721
 30
0.0
 40
31.123310724
  1
VÕ TỦ
  7
Arial
100
AcDbAttribute
  2
#03
 70
0
280
1
 71
1
 72
0
  0
ATTRIB
  5
1C8
330
1C6
100
AcDbEntity
  8
0
 62
3
100
AcDbText
 10
1684.9516893966065
 20
31.779641774395714
 30
0.0
 40
31.123310724
  1
1500x1200x400
  7
Arial
100
AcDbAttribute
  2
#07
 70
0
280
1
 71
1
 72
0
  0
ATTRIB
  5
1C9
330
1C6
100
AcDbEntity
  8
0
 62
3
100
AcDbText
 10
2851.594300316705
 20
116.80226313389721
 30
0.0
 40
31.123310724
  1
1
  7
Arial
100
AcDbAttribute
  2
#08
 70
0
280
1
 71
1
 72
0
  0
ATTRIB
  5
1CA
330
1C6
100
AcDbEntity
  8
0
 62
3
100
AcDbText
 10
2854.9347494489048
 20
35.11036144050013
 30
0.0
 40
31.123310724
  1
1.5
  7
Arial
100
AcDbAttribute
  2
#09
 70
0
280
1
 71
1
 72
0
  0
ATTRIB
  5
1CB
330
1C6
100
AcDbEntity
  8
0
 62
3
100
AcDbText
 10
3338.8069548936037
 20
116.80226313389721
 30
0.0
 40
31.123310724
  1

  7
Arial
100
AcDbAttribute
  2
#10
 70
0
280
1
 71
1
 72
0
  0
ATTRIB
  5
1CC
330
1C6
100
AcDbEntity
  8
0
 62
3
100
AcDbText
 10
3331.823106588301
 20
45.86521450757573
 30
0.0
 40
31.123310724
  1
TỦ NGOÀI TRỜI 2 LỚP CÁNH
  7
Arial
100
AcDbAttribute
  2
#11
 70
0
280
1
 71
1
 72
0
  0
ATTRIB
  5
1CD
330
1C6
100
AcDbEntity
  8
0
 62
3
100
AcDbText
 10
796.9831228062103
 20
116.80226313389721
 30
0.0
 40
31.123310724
  1
MINH LÂM
  7
Arial
100
AcDbAttribute
  2
#02
 70
0
280
1
 71
1
 72
0
  0
ATTRIB
  5
1CE
330
1C6
100
AcDbEntity
  8
0
 62
3
100
AcDbText
 10
605.6646728114865
 20
34.45167110843613
 30
0.0
 40
31.123310724
  1
11.07.2022
  7
Arial
100
AcDbAttribute
  2
#05
 70
0
280
1
 71
1
 72
0
  0
ATTRIB
  5
1CF
330
1C6
100
AcDbEntity
  8
0
 62
3
100
AcDbText
 10
1110.1744749447098
 20
33.34533135980746
 30
0.0
 40
31.123310724
  1
16.07.2022
  7
Arial
100
AcDbAttribute
  2
#06
 70
0
280
1
 71
1
 72
0
  0
ATTRIB
  5
1D0
330
1C6
100
AcDbEntity
  8
0
 62
3
100
AcDbText
 10
212.1445675531868
 20
116.80226313389721
 30
0.0
 40
31.123310724
  1
PHÚC
  7
Arial
100
AcDbAttribute
  2
#01
 70
0
280
1
 71
1
 72
0
  0
ATTRIB
  5
1D1
330
1C6
100
AcDbEntity
  8
0
 62
3
100
AcDbText
 10
164.20047393350978
 20
31.962515011269716
 30
0.0
 40
31.123310724
  1
............
  7
Arial
100
AcDbAttribute
  2
#04
 70
0
280
1
 71
1
 72
0
  0
ATTRIB
  5
1D2
330
1C6
100
AcDbEntity
  8
0
 62
3
100
AcDbText
 10
4492.975622870697
 20
40.845300818778924
 30
0.0
 40
31.123310724
  1
.......
  7
Arial
100
AcDbAttribute
  2
#12
 70
0
280
1
 71
1
 72
0
  0
SEQEND
  5
1D3
330
17
100
AcDbEntity
  8
0
 62
3
  0
LWPOLYLINE
  5
1D4
330
17
100
AcDbEntity
  8
0
 62
7
100
AcDbPolyline
 90
2
 70
0
 10
1773.9719421617046
 20
2793.1747038675167
 10
1773.9719421617046
 20
1743.1747038675312
  0
LWPOLYLINE
  5
1D5
330
17
100
AcDbEntity
  8
0
 62
7
100
AcDbPolyline
 90
2
 70
0
 10
1761.9719421617046
 20
2793.1747038675167
 10
1761.9719421617046
 20
1743.1747038675312
  0
LWPOLYLINE
  5
1D6
330
17
100
AcDbEntity
  8
0
 62
2
100
AcDbPolyline
 90
4
 70
0
 10
3488.2148114221927
 20
2241.174703867531
 10
3473.2148114221927
 20
2241.174703867531
 10
3473.2148114221927
 20
2295.174703867531
 10
3488.2148114221927
 20
2295.174703867531
  0
LWPOLYLINE
  5
1D7
330
17
100
AcDbEntity
  8
0
 62
7
100
AcDbPolyline
 90
2
 70
0
 10
3476.2148114221927
 20
2241.174703867531
 10
3476.2148114221927
 20
1770.9247038675312
  0
LINE
  5
1D8
330
17
100
AcDbEntity
  8
0
 48
3.0
100
AcDbLine
 10
3488.2148114221927
 20
2295.174703867531
 30
0.0
 11
3488.2148114221927
 21
2765.424703867531
 31
0.0
  0
DIMENSION
  5
1D9
330
17
100
AcDbEntity
  8
0
 48
3.0
100
AcDbDimension
280
0
  2
*D31
  3
CNC
 10
3488.2148114221927
 20
1511.5588856068498
 30
0.0
 11
2915.7148114221927
 21
1547.0875349929265
 31
0.0
 70
32
 71
5
 42
1145.0
 73
0
 74
0
 75
0
100
AcDbAlignedDimension
 13
2343.2148114221927
 23
1653.1747038675167
 33
0.0
 14
3488.2148114221927
 24
1653.1747038675167
 34
0.0
 50
0.0
100
AcDbRotatedDimension
  0
LWPOLYLINE
  5
1E0
330
17
100
AcDbEntity
  8
0
 62
2
 48
0.5
100
AcDbPolyline
 90
4
 70
1
 10
3709.869989537983
 20
1766.424703867502
 10
3709.869989537983
 20
1754.924703867502
 42
-0.9999999999999998
 10
3701.369989537896
 20
1754.924703867502
 10
3701.369989537896
 20
1766.424703867502
 42
-0.9999999999999998
  0
LWPOLYLINE
  5
1E1
330
17
100
AcDbEntity
  8
0
 62
2
 48
0.5
100
AcDbPolyline
 90
4
 70
1
 10
3741.3699895374884
 20
1766.424703867502
 10
3741.3699895374884
 20
1754.924703867502
 42
0.9999999999999998
 10
3749.8699895374884
 20
1754.924703867502
 10
3749.8699895374884
 20
1766.424703867502
 42
0.9999999999999998
  0
LWPOLYLINE
  5
1E2
330
17
100
AcDbEntity
  8
0
 62
2
 48
0.5
100
AcDbPolyline
 90
4
 70
1
 10
3709.869989537983
 20
1741.424703867502
 10
3709.869989537983
 20
1729.924703867502
 42
-0.9999999999999998
 10
3701.369989537896
 20
1729.924703867502
 10
3701.369989537896
 20
1741.424703867502
 42
-0.9999999999999998
  0
LWPOLYLINE
  5
1E3
330
17
100
AcDbEntity
  8
0
 62
2
 48
0.5
100
AcDbPolyline
 90
4
 70
1
 10
3741.3699895374884
 20
1741.424703867502
 10
3741.3699895374884
 20
1729.924703867502
 42
0.9999999999999998
 10
3749.8699895374884
 20
1729.924703867502
 10
3749.8699895374884
 20
1741.424703867502
 42
0.9999999999999998
  0
LWPOLYLINE
  5
1E4
330
17
100
AcDbEntity
  8
0
 62
2
 48
0.5
100
AcDbPolyline
 90
4
 70
1
 10
3709.869989537983
 20
1716.424703867502
 10
3709.869989537983
 20
1704.924703867502
 42
-0.9999999999999998
 10
3701.369989537896
 20
1704.924703867502
 10
3701.369989537896
 20
1716.424703867502
 42
-0.9999999999999998
  0
LWPOLYLINE
  5
1E5
330
17
100
AcDbEntity
  8
0
 62
2
 48
0.5
100
AcDbPolyline
 90
4
 70
1
 10
3741.3699895374884
 20
1716.424703867502
 10
3741.3699895374884
 20
1704.924703867502
 42
0.9999999999999998
 10
3749.8699895374884
 20
1704.924703867502
 10
3749.8699895374884
 20
1716.424703867502
 42
0.9999999999999998
  0
LWPOLYLINE
  5
1E6
330
17
100
AcDbEntity
  8
0
 62
2
 48
0.5
100
AcDbPolyline
 90
4
 70
1
 10
3709.869989537983
 20
1691.424703867502
 10
3709.869989537983
 20
1679.924703867502
 42
-0.9999999999999998
 10
3701.369989537896
 20
1679.924703867502
 10
3701.369989537896
 20
1691.424703867502
 42
-0.9999999999999998
  0
LWPOLYLINE
  5
1E7
330
17
100
AcDbEntity
  8
0
 62
2
 48
0.5
100
AcDbPolyline
 90
4
 70
1
 10
3741.3699895374884
 20
1691.424703867502
 10
3741.3699895374884
 20
1679.924703867502
 42
0.9999999999999998
 10
3749.8699895374884
 20
1679.924703867502
 10
3749.8699895374884
 20
1691.424703867502
 42
0.9999999999999998
  0
LWPOLYLINE
  5
1E8
330
17
100
AcDbEntity
  8
0
 62
2
 48
0.5
100
AcDbPolyline
 90
4
 70
1
 10
3709.869989537983
 20
1666.424703867502
 10
3709.869989537983
 20
1654.924703867502
 42
-0.9999999999999998
 10
3701.369989537896
 20
1654.924703867502
 10
3701.369989537896
 20
1666.424703867502
 42
-0.9999999999999998
  0
LWPOLYLINE
  5
1E9
330
17
100
AcDbEntity
  8
0
 62
2
 48
0.5
100
AcDbPolyline
 90
4
 70
1
 10
3741.3699895374884
 20
1666.424703867502
 10
3741.3699895374884
 20
1654.924703867502
 42
0.9999999999999998
 10
3749.8699895374884
 20
1654.924703867502
 10
3749.8699895374884
 20
1666.424703867502
 42
0.9999999999999998
  0
LWPOLYLINE
  5
1EA
330
17
100
AcDbEntity
  8
0
 62
2
 48
0.5
100
AcDbPolyline
 90
4
 70
1
 10
3709.869989537983
 20
1641.424703867502
 10
3709.869989537983
 20
1629.924703867502
 42
-0.9999999999999998
 10
3701.369989537896
 20
1629.924703867502
 10
3701.369989537896
 20
1641.424703867502
 42
-0.9999999999999998
  0
LWPOLYLINE
  5
1EB
330
17
100
AcDbEntity
  8
0
 62
2
 48
0.5
100
AcDbPolyline
 90
4
 70
1
 10
3741.3699895374884
 20
1641.424703867502
 10
3741.3699895374884
 20
1629.924703867502
 42
0.9999999999999998
 10
3749.8699895374884
 20
1629.924703867502
 10
3749.8699895374884
 20
1641.424703867502
 42
0.9999999999999998
  0
INSERT
  5
1EC
330
17
100
AcDbEntity
  8
CNC
370
-3
100
AcDbBlockReference
  2
ovan8.5x20
 10
4019.703895868588
 20
2280.4741684666296
 30
0.0
 41
-1.0
 50
270.0
  0
INSERT
  5
1EE
330
17
100
AcDbEntity
  8
CNC
370
-3
100
AcDbBlockReference
  2
ovan8.5x20
 10
4019.703895868588
 20
2305.4741684666224
 30
0.0
 41
-1.0
 50
270.0
  0
INSERT
  5
1F0
330
17
100
AcDbEntity
  8
CNC
370
-3
100
AcDbBlockReference
  2
ovan8.5x20
 10
4019.703895868588
 20
2330.4741684666296
 30
0.0
 41
-1.0
 50
270.0
  0
INSERT
  5
1F2
330
17
100
AcDbEntity
  8
CNC
370
-3
100
AcDbBlockReference
  2
ovan8.5x20
 10
4019.703895868588
 20
2355.4741684666224
 30
0.0
 41
-1.0
 50
270.0
  0
INSERT
  5
1F4
330
17
100
AcDbEntity
  8
CNC
370
-3
100
AcDbBlockReference
  2
ovan8.5x20
 10
4019.703895868588
 20
2380.4741684666296
 30
0.0
 41
-1.0
 50
270.0
  0
INSERT
  5
1F6
330
17
100
AcDbEntity
  8
CNC
370
-3
100
AcDbBlockReference
  2
ovan8.5x20
 10
4019.703895868588
 20
2405.4741684666224
 30
0.0
 41
-1.0
 50
270.0
  0
INSERT
  5
1F8
330
17
100
AcDbEntity
  8
CNC
370
-3
100
AcDbBlockReference
  2
ovan8.5x20
 10
4019.703895868588
 20
2430.4741684666296
 30
0.0
 41
-1.0
 50
270.0
  0
INSERT
  5
1FA
330
17
100
AcDbEntity
  8
CNC
370
-3
100
AcDbBlockReference
  2
ovan8.5x20
 10
4019.703895868588
 20
2455.4741684666296
 30
0.0
 41
-1.0
 50
270.0
  0
INSERT
  5
1FC
330
17
100
AcDbEntity
  8
CNC
370
-3
100
AcDbBlockReference
  2
ovan8.5x20
 10
4019.703895868588
 20
2480.4741684666296
 30
0.0
 41
-1.0
 50
270.0
  0
INSERT
  5
1FE
330
17
100
AcDbEntity
  8
CNC
370
-3
100
AcDbBlockReference
  2
ovan8.5x20
 10
4019.703895868588
 20
2505.4741684666296
 30
0.0
 41
-1.0
 50
270.0
  0
INSERT
  5
200
330
17
100
AcDbEntity
  8
CNC
370
-3
100
AcDbBlockReference
  2
ovan8.5x20
 10
4019.703895868588
 20
2530.4741684666224
 30
0.0
 41
-1.0
 50
270.0
  0
INSERT
  5
202
330
17
100
AcDbEntity
  8
CNC
370
-3
100
AcDbBlockReference
  2
ovan8.5x20
 10
4019.703895868588
 20
2555.4741684666296
 30
0.0
 41
-1.0
 50
270.0
  0
INSERT
  5
204
330
17
100
AcDbEntity
  8
CNC
370
-3
100
AcDbBlockReference
  2
ovan8.5x20
 10
4019.703895868588
 20
2580.474168466608
 30
0.0
 41
-1.0
 50
270.0
  0
INSERT
  5
206
330
17
100
AcDbEntity
  8
CNC
370
-3
100
AcDbBlockReference
  2
ovan8.5x20
 10
4019.703895868588
 20
2605.474168466608
 30
0.0
 41
-1.0
 50
270.0
  0
INSERT
  5
208
330
17
100
AcDbEntity
  8
CNC
370
-3
100
AcDbBlockReference
  2
ovan8.5x20
 10
4019.703895868588
 20
2630.474168466608
 30
0.0
 41
-1.0
 50
270.0
  0
INSERT
  5
20A
330
17
100
AcDbEntity
  8
CNC
370
-3
100
AcDbBlockReference
  2
ovan8.5x20
 10
4019.703895868588
 20
2655.474168466608
 30
0.0
 41
-1.0
 50
270.0
  0
INSERT
  5
20C
330
17
100
AcDbEntity
  8
CNC
370
-3
100
AcDbBlockReference
  2
ovan8.5x20
 10
4019.703895868588
 20
2680.474168466608
 30
0.0
 41
-1.0
 50
270.0
  0
INSERT
  5
20E
330
17
100
AcDbEntity
  8
CNC
370
-3
100
AcDbBlockReference
  2
ovan8.5x20
 10
4019.703895868588
 20
2705.474168466608
 30
0.0
 41
-1.0
 50
270.0
  0
CIRCLE
  5
210
330
17
100
AcDbEntity
  8
0
 62
2
100
AcDbCircle
 10
1181.4719421617046
 20
2343.1747038670583
 30
0.0
 40
12.5
  0
CIRCLE
  5
211
330
17
100
AcDbEntity
  8
0
 62
2
100
AcDbCircle
 10
1181.4719421617046
 20
2360.1747038670583
 30
0.0
 40
3.0
  0
CIRCLE
  5
212
330
17
100
AcDbEntity
  8
0
 62
2
100
AcDbCircle
 10
1181.4719421617046
 20
2326.1747038670583
 30
0.0
 40
3.0
  0
LINE
  5
213
330
17
100
AcDbEntity
  8
0
 48
3.0
100
AcDbLine
 10
1112.9719421617046
 20
2919.174703867531
 30
0.0
 11
1145.9719421617046
 21
2919.174703867531
 31
0.0
  0
LWPOLYLINE
  5
214
330
17
100
AcDbEntity
  8
0
 62
7
100
AcDbPolyline
 90
2
 70
0
 10
1124.9719421617046
 20
2919.174703867531
 10
1124.9719421617046
 20
2948.174703867531
  0
LWPOLYLINE
  5
215
330
17
100
AcDbEntity
  8
0
 62
7
100
AcDbPolyline
 90
12
 70
0
 10
1112.9719421617046
 20
2919.174703867531
 10
1112.9719421617046
 20
2936.174703867531
 10
1124.9719421617046
 20
2948.174703867531
 10
1145.9719421617046
 20
2948.174703867531
 10
1145.9719421617046
 20
2969.174703867531
 10
1157.9719421617046
 20
2981.174703867531
 10
1728.9719421617046
 20
2981.174703867531
 10
1740.9719421617046
 20
2969.174703867531
 10
1740.9719421617046
 20
2948.174703867531
 10
1761.9719421617046
 20
2948.174703867531
 10
1773.9719421617046
 20
2936.1747038675458
 10
1773.9719421617046
 20
2873.1747038675167
  0
LINE
  5
216
330
17
100
AcDbEntity
  8
0
 48
3.0
100
AcDbLine
 10
1112.9719421617046
 20
2897.674703867531
 30
0.0
 11
1145.9719421617046
 21
2897.674703867531
 31
0.0
  0
LINE
  5
217
330
17
100
AcDbEntity
  8
0
 48
3.0
100
AcDbLine
 10
1112.9719421617046
 20
1617.1747038665999
 30
0.0
 11
1145.9719421617046
 21
1617.1747038665999
 31
0.0
  0
LINE
  5
218
330
17
100
AcDbEntity
  8
0
 48
3.0
100
AcDbLine
 10
1112.9719421617046
 20
1638.6747038665999
 30
0.0
 11
1145.9719421617046
 21
1638.6747038665999
 31
0.0
  0
LWPOLYLINE
  5
219
330
17
100
AcDbEntity
  8
0
 62
7
100
AcDbPolyline
 90
2
 70
0
 10
1124.9719421617046
 20
1638.6747038665999
 10
1124.9719421617046
 20
2897.674703867531
  0
LWPOLYLINE
  5
21A
330
17
100
AcDbEntity
  8
0
 62
7
100
AcDbPolyline
 90
2
 70
0
 10
1112.9719421617046
 20
1638.6747038665999
 10
1112.9719421617046
 20
2897.674703867531
  0
INSERT
  5
21B
330
17
100
AcDbEntity
  8
0
370
-3
100
AcDbBlockReference
  2
f3daunguoc
 10
1145.9719421617046
 20
1653.674703866629
 30
0.0
  0
INSERT
  5
21D
330
17
100
AcDbEntity
  8
0
370
-3
100
AcDbBlockReference
  2
f3daunguoc
 10
1124.9719421617046
 20
1653.674703866629
 30
0.0
  0
INSERT
  5
21F
330
17
100
AcDbEntity
  8
0
370
-3
100
AcDbBlockReference
  2
f3daunguoc
 10
1145.9719421617046
 20
2882.674703867531
 30
0.0
 41
-1.0
 50
180.0
  0
INSERT
  5
221
330
17
100
AcDbEntity
  8
0
370
-3
100
AcDbBlockReference
  2
f3daunguoc
 10
1124.9719421617046
 20
2882.674703867531
 30
0.0
 41
-1.0
 50
180.0
  0
LWPOLYLINE
  5
223
330
17
100
AcDbEntity
  8
0
 62
7
100
AcDbPolyline
 90
4
 70
1
 10
839.1673781652062
 20
2948.174703867531
 10
244.16737816520617
 20
2948.174703867531
 10
244.16737816520617
 20
1588.1747038665853
 10
839.1673781652062
 20
1588.1747038665853
  0
LWPOLYLINE
  5
224
330
17
100
AcDbEntity
  8
0
 62
7
100
AcDbPolyline
 90
12
 70
0
 10
211.16737816520617
 20
1663.1747038675312
 10
211.16737816520617
 20
1600.1747038665999
 10
223.16737816520617
 20
1588.1747038665853
 10
244.16737816520617
 20
1588.1747038665853
 10
244.16737816520617
 20
1567.1747038665999
 10
256.1673781652062
 20
1555.1747038665999
 10
827.1673781652062
 20
1555.1747038665999
 10
839.1673781652062
 20
1567.1747038665999
 10
839.1673781652062
 20
1588.1747038665853
 10
861.6673781652062
 20
1588.1747038665853
 10
861.6673781652062
 20
1588.174703866629
 10
861.6673781652062
 20
1617.1747038665999
  0
LWPOLYLINE
  5
225
330
17
100
AcDbEntity
  8
0
 62
7
100
AcDbPolyline
 90
2
 70
0
 10
211.16737816520617
 20
2793.1747038675167
 10
211.16737816520617
 20
1743.1747038675312
  0
LWPOLYLINE
  5
226
330
17
100
AcDbEntity
  8
0
 62
7
100
AcDbPolyline
 90
2
 70
0
 10
223.16737816520617
 20
2948.174703867531
 10
223.16737816520617
 20
2873.1747038675167
  0
LWPOLYLINE
  5
227
330
17
100
AcDbEntity
  8
0
 62
7
100
AcDbPolyline
 90
2
 70
0
 10
223.16737816520617
 20
2793.1747038675167
 10
223.16737816520617
 20
1743.1747038675312
  0
LWPOLYLINE
  5
228
330
17
100
AcDbEntity
  8
0
 62
7
100
AcDbPolyline
 90
2
 70
0
 10
223.16737816520617
 20
1663.1747038675312
 10
223.16737816520617
 20
1588.1747038665853
  0
LWPOLYLINE
  5
229
330
17
100
AcDbEntity
  8
0
 62
7
100
AcDbPolyline
 90
2
 70
0
 10
244.16737816520617
 20
1567.1747038665999
 10
839.1673781652062
 20
1567.1747038665999
  0
LWPOLYLINE
  5
22A
330
17
100
AcDbEntity
  8
0
 62
7
100
AcDbPolyline
 90
2
 70
0
 10
862.1673781652062
 20
1638.6747038665999
 10
862.1673781652062
 20
2897.674703867531
  0
LWPOLYLINE
  5
22B
330
17
100
AcDbEntity
  8
0
 62
7
100
AcDbPolyline
 90
2
 70
0
 10
861.6673781652062
 20
2919.174703867531
 10
861.6673781652062
 20
2948.174703867531
  0
LWPOLYLINE
  5
22C
330
17
100
AcDbEntity
  8
0
 62
7
100
AcDbPolyline
 90
2
 70
0
 10
839.1673781652062
 20
2969.174703867531
 10
244.16737816520617
 20
2969.174703867531
  0
LWPOLYLINE
  5
22D
330
17
100
AcDbEntity
  8
0
 62
2
100
AcDbPolyline
 90
4
 70
0
 10
211.16737816520617
 20
2793.1747038675167
 10
226.16737816520617
 20
2793.1747038675167
 10
226.16737816520617
 20
2873.1747038675167
 10
211.16737816520617
 20
2873.1747038675167
  0
LWPOLYLINE
  5
22E
330
17
100
AcDbEntity
  8
0
 62
2
100
AcDbPolyline
 90
4
 70
0
 10
211.16737816520617
 20
1743.1747038675312
 10
226.16737816520617
 20
1743.1747038675312
 10
226.16737816520617
 20
1663.1747038675312
 10
211.16737816520617
 20
1663.1747038675312
  0
INSERT
  5
22F
330
17
100
AcDbEntity
  8
0
370
-3
100
AcDbBlockReference
  2
f3daunguoc
 10
824.1673781652062
 20
2948.174703867531
 30
0.0
 50
180.0
  0
INSERT
  5
231
330
17
100
AcDbEntity
  8
0
370
-3
100
AcDbBlockReference
  2
f3daunguoc
 10
839.1673781652062
 20
2933.174703867531
 30
0.0
 50
180.0
  0
INSERT
  5
233
330
17
100
AcDbEntity
  8
0
370
-3
100
AcDbBlockReference
  2
f3daunguoc
 10
824.1673781652062
 20
2969.174703867531
 30
0.0
 50
180.0
  0
INSERT
  5
235
330
17
100
AcDbEntity
  8
0
370
-3
100
AcDbBlockReference
  2
f3daunguoc
 10
774.1673781652062
 20
2948.174703867531
 30
0.0
 50
180.0
  0
INSERT
  5
237
330
17
100
AcDbEntity
  8
0
370
-3
100
AcDbBlockReference
  2
f3daunguoc
 10
774.1673781652062
 20
2969.174703867531
 30
0.0
 50
180.0
  0
INSERT
  5
239
330
17
100
AcDbEntity
  8
0
370
-3
100
AcDbBlockReference
  2
f3daunguoc
 10
259.1673781652062
 20
2948.174703867531
 30
0.0
 41
-1.0
 50
180.0
  0
INSERT
  5
23B
330
17
100
AcDbEntity
  8
0
370
-3
100
AcDbBlockReference
  2
f3daunguoc
 10
244.16737816520617
 20
2933.174703867531
 30
0.0
 41
-1.0
 50
180.0
  0
INSERT
  5
23D
330
17
100
AcDbEntity
  8
0
370
-3
100
AcDbBlockReference
  2
f3daunguoc
 10
259.1673781652062
 20
2969.174703867531
 30
0.0
 41
-1.0
 50
180.0
  0
INSERT
  5
23F
330
17
100
AcDbEntity
  8
0
370
-3
100
AcDbBlockReference
  2
f3daunguoc
 10
223.16737816520617
 20
2933.174703867531
 30
0.0
 41
-1.0
 50
180.0
  0
INSERT
  5
241
330
17
100
AcDbEntity
  8
0
370
-3
100
AcDbBlockReference
  2
f3daunguoc
 10
309.1673781652062
 20
2948.174703867531
 30
0.0
 41
-1.0
 50
180.0
  0
INSERT
  5
243
330
17
100
AcDbEntity
  8
0
370
-3
100
AcDbBlockReference
  2
f3daunguoc
 10
309.1673781652062
 20
2969.174703867531
 30
0.0
 41
-1.0
 50
180.0
  0
INSERT
  5
245
330
17
100
AcDbEntity
  8
0
370
-3
100
AcDbBlockReference
  2
f3daunguoc
 10
824.1673781652062
 20
1588.174703866629
 30
0.0
 41
-1.0
  0
INSERT
  5
247
330
17
100
AcDbEntity
  8
0
370
-3
100
AcDbBlockReference
  2
f3daunguoc
 10
839.1673781652062
 20
1603.174703866629
 30
0.0
 41
-1.0
  0
INSERT
  5
249
330
17
100
AcDbEntity
  8
0
370
-3
100
AcDbBlockReference
  2
f3daunguoc
 10
824.1673781652062
 20
1567.1747038666217
 30
0.0
 41
-1.0
  0
INSERT
  5
24B
330
17
100
AcDbEntity
  8
0
370
-3
100
AcDbBlockReference
  2
f3daunguoc
 10
774.1673781652062
 20
1588.174703866629
 30
0.0
 41
-1.0
  0
INSERT
  5
24D
330
17
100
AcDbEntity
  8
0
370
-3
100
AcDbBlockReference
  2
f3daunguoc
 10
774.1673781652062
 20
1568.1747038666217
 30
0.0
 41
-1.0
  0
INSERT
  5
24F
330
17
100
AcDbEntity
  8
0
370
-3
100
AcDbBlockReference
  2
f3daunguoc
 10
259.1673781652062
 20
1588.174703866629
 30
0.0
  0
INSERT
  5
251
330
17
100
AcDbEntity
  8
0
370
-3
100
AcDbBlockReference
  2
f3daunguoc
 10
244.16737816520617
 20
1603.174703866629
 30
0.0
  0
INSERT
  5
253
330
17
100
AcDbEntity
  8
0
370
-3
100
AcDbBlockReference
  2
f3daunguoc
 10
259.1673781652062
 20
1567.1747038666217
 30
0.0
  0
INSERT
  5
255
330
17
100
AcDbEntity
  8
0
370
-3
100
AcDbBlockReference
  2
f3daunguoc
 10
223.16737816520617
 20
1603.174703866629
 30
0.0
  0
INSERT
  5
257
330
17
100
AcDbEntity
  8
0
370
-3
100
AcDbBlockReference
  2
f3daunguoc
 10
309.1673781652062
 20
1588.174703866629
 30
0.0
  0
INSERT
  5
259
330
17
100
AcDbEntity
  8
0
370
-3
100
AcDbBlockReference
  2
f3daunguoc
 10
309.1673781652062
 20
1568.1747038666217
 30
0.0
  0
DIMENSION
  5
25B
330
17
100
AcDbEntity
  8
DIM
100
AcDbDimension
280
0
  2
*D32
  3
Dim-33
 10
223.16737816520617
 20
3069.5283739343286
 30
0.0
 11
163.43545456358697
 21
3101.095904630107
 31
0.0
 70
32
 71
5
 42
21.0
 73
0
 74
0
 75
0
100
AcDbAlignedDimension
 13
244.16737816520617
 23
2969.174703867531
 33
0.0
 14
223.16737816520617
 24
2948.174703867531
 34
0.0
 50
180.0
100
AcDbRotatedDimension
  0
DIMENSION
  5
25C
330
17
100
AcDbEntity
  8
DIM
100
AcDbDimension
280
0
  2
*D33
  3
Dim-33
 10
839.1673781652062
 20
3069.5283739343286
 30
0.0
 11
541.6673781652062
 21
3101.3772825291453
 31
0.0
 70
32
 71
5
 42
595.0
 73
0
 74
0
 75
0
100
AcDbAlignedDimension
 13
244.16737816520617
 23
2969.174703867531
 33
0.0
 14
839.1673781652062
 24
2969.174703867531
 34
0.0
 50
180.0
100
AcDbRotatedDimension
  0
DIMENSION
  5
25D
330
17
100
AcDbEntity
  8
DIM
100
AcDbDimension
280
0
  2
*D34
  3
Dim-33
 10
211.16737816520617
 20
1505.5369954567286
 30
0.0
 11
554.1673781652062
 21
1537.3859040515454
 31
0.0
 70
32
 71
5
 42
686.0
 73
0
 74
0
 75
0
100
AcDbAlignedDimension
 13
897.1673781652062
 23
1638.6747038665999
 33
0.0
 14
211.16737816520617
 24
1617.1747038665999
 34
0.0
 50
180.0
100
AcDbRotatedDimension
  0
MTEXT
  5
25E
330
17
100
AcDbEntity
  8
0
 62
2
100
AcDbMText
 10
557.5611870641005
 20
1428.1196147952287
 30
0.0
 40
36.0
 41
575.9741820581402
 46
100.0000000000031
 71
5
 72
5
  1
Cánh ngoài: 1 tấm
  0
LINE
  5
25F
330
17
100
AcDbEntity
  8
0
 48
3.0
100
AcDbLine
 10
861.6673781652062
 20
2919.174703867531
 30
0.0
 11
839.1673781652062
 21
2919.174703867531
 31
0.0
  0
LINE
  5
260
330
17
100
AcDbEntity
  8
0
 48
3.0
100
AcDbLine
 10
897.1673781652062
 20
2897.674703867531
 30
0.0
 11
839.1673781652062
 21
2897.674703867531
 31
0.0
  0
LINE
  5
261
330
17
100
AcDbEntity
  8
0
 48
3.0
100
AcDbLine
 10
861.6673781652062
 20
1617.1747038665999
 30
0.0
 11
839.1673781652062
 21
1617.1747038665999
 31
0.0
  0
INSERT
  5
262
330
17
100
AcDbEntity
  8
0
370
-3
100
AcDbBlockReference
  2
f3daunguoc
 10
839.1673781652062
 20
1653.674703866629
 30
0.0
 41
-1.0
  0
INSERT
  5
264
330
17
100
AcDbEntity
  8
0
370
-3
100
AcDbBlockReference
  2
f3daunguoc
 10
839.1673781652062
 20
2882.674703867531
 30
0.0
 50
180.0
  0
LINE
  5
266
330
17
100
AcDbEntity
  8
0
 62
7
100
AcDbLine
 10
839.1673781652062
 20
1638.6747038665999
 30
0.0
 11
897.1673781652062
 21
1638.6747038665999
 31
0.0
  0
LINE
  5
267
330
17
100
AcDbEntity
  8
0
 62
7
100
AcDbLine
 10
887.1673781652062
 20
1638.6747038665999
 30
0.0
 11
887.1673781652062
 21
2897.674703867531
 31
0.0
  0
LINE
  5
268
330
17
100
AcDbEntity
  8
0
 62
7
100
AcDbLine
 10
897.1673781652062
 20
1638.6747038665999
 30
0.0
 11
897.1673781652062
 21
2897.674703867531
 31
0.0
  0
LWPOLYLINE
  5
269
330
17
100
AcDbEntity
  8
0
 62
7
100
AcDbPolyline
 90
10
 70
0
 10
861.6673781652062
 20
2948.174703867531
 10
839.1673781652062
 20
2948.174703867531
 10
839.1673781652062
 20
2969.174703867531
 10
827.1673781652062
 20
2981.174703867531
 10
256.1673781652062
 20
2981.174703867531
 10
244.16737816520617
 20
2969.174703867531
 10
244.16737816520617
 20
2948.174703867531
 10
223.16737816520617
 20
2948.174703867531
 10
211.16737816520617
 20
2936.1747038675458
 10
211.16737816520617
 20
2873.1747038675167
  0
CIRCLE
  5
26A
330
17
100
AcDbEntity
  8
0
 62
2
 48
3.0
100
AcDbCircle
 10
887.1673781652062
 20
1653.6747038665999
 30
0.0
 40
1.0
  0
CIRCLE
  5
26B
330
17
100
AcDbEntity
  8
0
 62
2
 48
3.0
100
AcDbCircle
 10
862.1673781652062
 20
1653.6747038665999
 30
0.0
 40
1.0
  0
CIRCLE
  5
26C
330
17
100
AcDbEntity
  8
0
 62
2
 48
3.0
100
AcDbCircle
 10
887.1673781652062
 20
2882.674703867531
 30
0.0
 40
1.0
  0
CIRCLE
  5
26D
330
17
100
AcDbEntity
  8
0
 62
2
 48
3.0
100
AcDbCircle
 10
862.1673781652062
 20
2882.674703867531
 30
0.0
 40
1.0
  0
ENDSEC
  0
SECTION
  2
OBJECTS
  0
DICTIONARY
  5
A
330
0
100
AcDbDictionary
281
1
  3
ACAD_COLOR
350
B
  3
ACAD_GROUP
350
C
  3
ACAD_LAYOUT
350
D
  3
ACAD_MATERIAL
350
E
  3
ACAD_MLEADERSTYLE
350
F
  3
ACAD_MLINESTYLE
350
10
  3
ACAD_PLOTSETTINGS
350
11
  3
ACAD_PLOTSTYLENAME
350
12
  3
ACAD_SCALELIST
350
14
  3
ACAD_TABLESTYLE
350
15
  3
ACAD_VISUALSTYLE
350
16
  3
EZDXF_META
350
2D
  0
DICTIONARY
  5
B
330
A
100
AcDbDictionary
281
1
  0
DICTIONARY
  5
C
330
A
100
AcDbDictionary
281
1
  0
DICTIONARY
  5
D
330
A
100
AcDbDictionary
281
1
  3
Model
350
1A
  3
Layout1
350
1E
  0
DICTIONARY
  5
E
330
A
100
AcDbDictionary
281
1
  3
ByBlock
350
1F
  3
ByLayer
350
20
  3
Global
350
21
  0
DICTIONARY
  5
F
330
A
100
AcDbDictionary
281
1
  3
Standard
350
2C
  0
DICTIONARY
  5
10
330
A
100
AcDbDictionary
281
1
  3
Standard
350
22
  0
DICTIONARY
  5
11
330
A
100
AcDbDictionary
281
1
  0
ACDBDICTIONARYWDFLT
  5
12
330
A
100
AcDbDictionary
281
1
  3
Normal
350
13
100
AcDbDictionaryWithDefault
340
13
  0
ACDBPLACEHOLDER
  5
13
330
12
  0
DICTIONARY
  5
14
330
A
100
AcDbDictionary
281
1
  0
DICTIONARY
  5
15
330
A
100
AcDbDictionary
281
1
  0
DICTIONARY
  5
16
330
A
100
AcDbDictionary
281
1
  0
LAYOUT
  5
1A
330
D
100
AcDbPlotSettings
  1

  4
A3
  6

 40
7.5
 41
20.0
 42
7.5
 43
20.0
 44
420.0
 45
297.0
 46
0.0
 47
0.0
 48
0.0
 49
0.0
140
0.0
141
0.0
142
1.0
143
1.0
 70
1024
 72
1
 73
0
 74
5
  7

 75
16
 76
0
 77
2
 78
300
147
1.0
148
0.0
149
0.0
100
AcDbLayout
  1
Model
 70
1
 71
0
 10
0.0
 20
0.0
 11
420.0
 21
297.0
 12
0.0
 22
0.0
 32
0.0
 14
1e+20
 24
1e+20
 34
1e+20
 15
-1e+20
 25
-1e+20
 35
-1e+20
146
0.0
 13
0.0
 23
0.0
 33
0.0
 16
1.0
 26
0.0
 36
0.0
 17
0.0
 27
1.0
 37
0.0
 76
1
330
17
  0
LAYOUT
  5
1E
330
D
100
AcDbPlotSettings
  1

  4
A3
  6

 40
7.5
 41
20.0
 42
7.5
 43
20.0
 44
420.0
 45
297.0
 46
0.0
 47
0.0
 48
0.0
 49
0.0
140
0.0
141
0.0
142
1.0
143
1.0
 70
0
 72
1
 73
0
 74
5
  7

 75
16
 76
0
 77
2
 78
300
147
1.0
148
0.0
149
0.0
100
AcDbLayout
  1
Layout1
 70
1
 71
1
 10
0.0
 20
0.0
 11
420.0
 21
297.0
 12
0.0
 22
0.0
 32
0.0
 14
1e+20
 24
1e+20
 34
1e+20
 15
-1e+20
 25
-1e+20
 35
-1e+20
146
0.0
 13
0.0
 23
0.0
 33
0.0
 16
1.0
 26
0.0
 36
0.0
 17
0.0
 27
1.0
 37
0.0
 76
1
330
1B
  0
MATERIAL
  5
1F
102
{ACAD_REACTORS
330
E
102
}
330
E
100
AcDbMaterial
  1
ByBlock
  2

 70
0
 40
1.0
 71
1
 41
1.0
 91
-1023410177
 42
1.0
 72
1
  3

 73
1
 74
1
 75
1
 44
0.5
 73
0
 45
1.0
 46
1.0
 77
1
  4

 78
1
 79
1
170
1
 48
1.0
171
1
  6

172
1
173
1
174
1
140
1.0
141
1.0
175
1
  7

176
1
177
1
178
1
143
1.0
179
1
  8

270
1
271
1
272
1
145
1.0
146
1.0
273
1
  9

274
1
275
1
276
1
 42
1.0
 72
1
  3

 73
1
 74
1
 75
1
 94
63
  0
MATERIAL
  5
20
102
{ACAD_REACTORS
330
E
102
}
330
E
100
AcDbMaterial
  1
ByLayer
  2

 70
0
 40
1.0
 71
1
 41
1.0
 91
-1023410177
 42
1.0
 72
1
  3

 73
1
 74
1
 75
1
 44
0.5
 73
0
 45
1.0
 46
1.0
 77
1
  4

 78
1
 79
1
170
1
 48
1.0
171
1
  6

172
1
173
1
174
1
140
1.0
141
1.0
175
1
  7

176
1
177
1
178
1
143
1.0
179
1
  8

270
1
271
1
272
1
145
1.0
146
1.0
273
1
  9

274
1
275
1
276
1
 42
1.0
 72
1
  3

 73
1
 74
1
 75
1
 94
63
  0
MATERIAL
  5
21
102
{ACAD_REACTORS
330
E
102
}
330
E
100
AcDbMaterial
  1
Global
  2

 70
0
 40
1.0
 71
1
 41
1.0
 91
-1023410177
 42
1.0
 72
1
  3

 73
1
 74
1
 75
1
 44
0.5
 73
0
 45
1.0
 46
1.0
 77
1
  4

 78
1
 79
1
170
1
 48
1.0
171
1
  6

172
1
173
1
174
1
140
1.0
141
1.0
175
1
  7

176
1
177
1
178
1
143
1.0
179
1
  8

270
1
271
1
272
1
145
1.0
146
1.0
273
1
  9

274
1
275
1
276
1
 42
1.0
 72
1
  3

 73
1
 74
1
 75
1
 94
63
  0
MLINESTYLE
  5
22
102
{ACAD_REACTORS
330
10
102
}
330
10
100
AcDbMlineStyle
  2
Standard
 70
0
  3

 62
256
 51
90.0
 52
90.0
 71
2
 49
0.5
 62
256
  6
BYLAYER
 49
-0.5
 62
256
  6
BYLAYER
  0
MLEADERSTYLE
  5
2C
102
{ACAD_REACTORS
330
F
102
}
330
F
100
AcDbMLeaderStyle
179
2
170
2
171
1
172
0
 90
2
 40
0.0
 41
0.0
173
1
 91
-1056964608
 92
-2
290
1
 42
2.0
291
1
 43
8.0
  3
Standard
 44
4.0
300

342
29
174
1
175
1
176
0
178
1
 93
-1056964608
 45
4.0
292
0
297
0
 46
4.0
 94
-1056964608
 47
1.0
 49
1.0
140
1.0
294
1
141
0.0
177
0
142
1.0
295
0
296
0
143
3.75
271
0
272
9
273
9
  0
DICTIONARY
  5
2D
330
A
100
AcDbDictionary
280
1
281
1
  3
CREATED_BY_EZDXF
350
2E
  3
WRITTEN_BY_EZDXF
350
2AD
  0
DICTIONARYVAR
  5
2E
330
2D
100
DictionaryVariables
280
0
  1
1.4.4 @ 2026-09-24T06:32:43.966478+00:00
  0
DICTIONARYVAR
  5
2AD
330
2D
100
DictionaryVariables
280
0
  1
1.4.4 @ 2026-09-24T06:38:33.328979+00:00
  0
ENDSEC
  0
EOF
