  0
SECTION
  2
HEADER
  9
$ACADVER
  1
AC1032
  9
$ACADMAINTVER
 90
4
  9
$DWGCODEPAGE
  3
ANSI_1252
  9
$LASTSAVEDBY
  1
ezdxf
  9
$REQUIREDVERSIONS
160
0
  9
$INSBASE
 10
0.0
 20
0.0
 30
0.0
  9
$EXTMIN
 10
1e+20
 20
1e+20
 30
1e+20
  9
$EXTMAX
 10
-1e+20
 20
-1e+20
 30
-1e+20
  9
$LIMMIN
 10
0.0
 20
0.0
  9
$LIMMAX
 10
420.0
 20
297.0
  9
$ORTHOMODE
 70
0
  9
$REGENMODE
 70
1
  9
$FILLMODE
 70
1
  9
$QTEXTMODE
 70
0
  9
$MIRRTEXT
 70
1
  9
$LTSCALE
 40
1.0
  9
$ATTMODE
 70
1
  9
$TEXTSIZE
 40
2.5
  9
$TRACEWID
 40
1.0
  9
$TEXTSTYLE
  7
Standard
  9
$CLAYER
  8
0
  9
$CELTYPE
  6
ByLayer
  9
$CECOLOR
 62
256
  9
$CELTSCALE
 40
1.0
  9
$DISPSILH
 70
0
  9
$DIMSCALE
 40
1.0
  9
$DIMASZ
 40
2.5
  9
$DIMEXO
 40
0.625
  9
$DIMDLI
 40
3.75
  9
$DIMRND
 40
0.0
  9
$DIMDLE
 40
0.0
  9
$DIMEXE
 40
1.25
  9
$DIMTP
 40
0.0
  9
$DIMTM
 40
0.0
  9
$DIMTXT
 40
2.5
  9
$DIMCEN
 40
2.5
  9
$DIMTSZ
 40
0.0
  9
$DIMTOL
 70
0
  9
$DIMLIM
 70
0
  9
$DIMTIH
 70
0
  9
$DIMTOH
 70
0
  9
$DIMSE1
 70
0
  9
$DIMSE2
 70
0
  9
$DIMTAD
 70
1
  9
$DIMZIN
 70
8
  9
$DIMBLK
  1

  9
$DIMASO
 70
1
  9
$DIMSHO
 70
1
  9
$DIMPOST
  1

  9
$DIMAPOST
  1

  9
$DIMALT
 70
0
  9
$DIMALTD
 70
3
  9
$DIMALTF
 40
0.03937007874
  9
$DIMLFAC
 40
1.0
  9
$DIMTOFL
 70
1
  9
$DIMTVP
 40
0.0
  9
$DIMTIX
 70
0
  9
$DIMSOXD
 70
0
  9
$DIMSAH
 70
0
  9
$DIMBLK1
  1

  9
$DIMBLK2
  1

  9
$DIMSTYLE
  2
ISO-25
  9
$DIMCLRD
 70
0
  9
$DIMCLRE
 70
0
  9
$DIMCLRT
 70
0
  9
$DIMTFAC
 40
1.0
  9
$DIMGAP
 40
0.625
  9
$DIMJUST
 70
0
  9
$DIMSD1
 70
0
  9
$DIMSD2
 70
0
  9
$DIMTOLJ
 70
0
  9
$DIMTZIN
 70
8
  9
$DIMALTZ
 70
0
  9
$DIMALTTZ
 70
0
  9
$DIMUPT
 70
0
  9
$DIMDEC
 70
2
  9
$DIMTDEC
 70
2
  9
$DIMALTU
 70
2
  9
$DIMALTTD
 70
3
  9
$DIMTXSTY
  7
Standard
  9
$DIMAUNIT
 70
0
  9
$DIMADEC
 70
0
  9
$DIMALTRND
 40
0.0
  9
$DIMAZIN
 70
0
  9
$DIMDSEP
 70
44
  9
$DIMATFIT
 70
3
  9
$DIMFRAC
 70
0
  9
$DIMLDRBLK
  1

  9
$DIMLUNIT
 70
2
  9
$DIMLWD
 70
-2
  9
$DIMLWE
 70
-2
  9
$DIMTMOVE
 70
0
  9
$DIMFXL
 40
1.0
  9
$DIMFXLON
 70
0
  9
$DIMJOGANG
 40
0.785398163397
  9
$DIMTFILL
 70
0
  9
$DIMTFILLCLR
 70
0
  9
$DIMARCSYM
 70
0
  9
$DIMLTYPE
  6

  9
$DIMLTEX1
  6

  9
$DIMLTEX2
  6

  9
$DIMTXTDIRECTION
 70
0
  9
$LUNITS
 70
2
  9
$LUPREC
 70
4
  9
$SKETCHINC
 40
1.0
  9
$FILLETRAD
 40
10.0
  9
$AUNITS
 70
0
  9
$AUPREC
 70
2
  9
$MENU
  1
.
  9
$ELEVATION
 40
0.0
  9
$PELEVATION
 40
0.0
  9
$THICKNESS
 40
0.0
  9
$LIMCHECK
 70
0
  9
$CHAMFERA
 40
0.0
  9
$CHAMFERB
 40
0.0
  9
$CHAMFERC
 40
0.0
  9
$CHAMFERD
 40
0.0
  9
$SKPOLY
 70
0
  9
$TDCREATE
 40
2461308.567858796
  9
$TDUCREATE
 40
2458532.153996898
  9
$TDUPDATE
 40
2461308.567858796
  9
$TDUUPDATE
 40
2458532.1544311
  9
$TDINDWG
 40
0.0
  9
$TDUSRTIMER
 40
0.0
  9
$USRTIMER
 70
1
  9
$ANGBASE
 50
0.0
  9
$ANGDIR
 70
0
  9
$PDMODE
 70
0
  9
$PDSIZE
 40
0.0
  9
$PLINEWID
 40
0.0
  9
$SPLFRAME
 70
0
  9
$SPLINETYPE
 70
6
  9
$SPLINESEGS
 70
8
  9
$HANDSEED
  5
1DB
  9
$SURFTAB1
 70
6
  9
$SURFTAB2
 70
6
  9
$SURFTYPE
 70
6
  9
$SURFU
 70
6
  9
$SURFV
 70
6
  9
$UCSBASE
  2

  9
$UCSNAME
  2

  9
$UCSORG
 10
0.0
 20
0.0
 30
0.0
  9
$UCSXDIR
 10
1.0
 20
0.0
 30
0.0
  9
$UCSYDIR
 10
0.0
 20
1.0
 30
0.0
  9
$UCSORTHOREF
  2

  9
$UCSORTHOVIEW
 70
0
  9
$UCSORGTOP
 10
0.0
 20
0.0
 30
0.0
  9
$UCSORGBOTTOM
 10
0.0
 20
0.0
 30
0.0
  9
$UCSORGLEFT
 10
0.0
 20
0.0
 30
0.0
  9
$UCSORGRIGHT
 10
0.0
 20
0.0
 30
0.0
  9
$UCSORGFRONT
 10
0.0
 20
0.0
 30
0.0
  9
$UCSORGBACK
 10
0.0
 20
0.0
 30
0.0
  9
$PUCSBASE
  2

  9
$PUCSNAME
  2

  9
$PUCSORG
 10
0.0
 20
0.0
 30
0.0
  9
$PUCSXDIR
 10
1.0
 20
0.0
 30
0.0
  9
$PUCSYDIR
 10
0.0
 20
1.0
 30
0.0
  9
$PUCSORTHOREF
  2

  9
$PUCSORTHOVIEW
 70
0
  9
$PUCSORGTOP
 10
0.0
 20
0.0
 30
0.0
  9
$PUCSORGBOTTOM
 10
0.0
 20
0.0
 30
0.0
  9
$PUCSORGLEFT
 10
0.0
 20
0.0
 30
0.0
  9
$PUCSORGRIGHT
 10
0.0
 20
0.0
 30
0.0
  9
$PUCSORGFRONT
 10
0.0
 20
0.0
 30
0.0
  9
$PUCSORGBACK
 10
0.0
 20
0.0
 30
0.0
  9
$USERI1
 70
0
  9
$USERI2
 70
0
  9
$USERI3
 70
0
  9
$USERI4
 70
0
  9
$USERI5
 70
0
  9
$USERR1
 40
0.0
  9
$USERR2
 40
0.0
  9
$USERR3
 40
0.0
  9
$USERR4
 40
0.0
  9
$USERR5
 40
0.0
  9
$WORLDVIEW
 70
1
  9
$SHADEDGE
 70
3
  9
$SHADEDIF
 70
70
  9
$TILEMODE
 70
1
  9
$MAXACTVP
 70
64
  9
$PINSBASE
 10
0.0
 20
0.0
 30
0.0
  9
$PLIMCHECK
 70
0
  9
$PEXTMIN
 10
1e+20
 20
1e+20
 30
1e+20
  9
$PEXTMAX
 10
-1e+20
 20
-1e+20
 30
-1e+20
  9
$PLIMMIN
 10
0.0
 20
0.0
  9
$PLIMMAX
 10
420.0
 20
297.0
  9
$UNITMODE
 70
0
  9
$VISRETAIN
 70
1
  9
$PLINEGEN
 70
0
  9
$PSLTSCALE
 70
1
  9
$TREEDEPTH
 70
3020
  9
$CMLSTYLE
  2
Standard
  9
$CMLJUST
 70
0
  9
$CMLSCALE
 40
20.0
  9
$PROXYGRAPHICS
 70
1
  9
$MEASUREMENT
 70
1
  9
$CELWEIGHT
370
-1
  9
$ENDCAPS
280
0
  9
$JOINSTYLE
280
0
  9
$LWDISPLAY
290
0
  9
$INSUNITS
 70
4
  9
$HYPERLINKBASE
  1

  9
$STYLESHEET
  1

  9
$XEDIT
290
1
  9
$CEPSNTYPE
380
0
  9
$PSTYLEMODE
290
1
  9
$FINGERPRINTGUID
  2
{4F095342-6085-4E94-960B-6B4927AA1A90}
  9
$VERSIONGUID
  2
{51831E53-C4B2-4218-A691-DCEFE933623E}
  9
$EXTNAMES
290
1
  9
$PSVPSCALE
 40
0.0
  9
$OLESTARTUP
290
0
  9
$SORTENTS
280
127
  9
$INDEXCTL
280
0
  9
$HIDETEXT
280
1
  9
$XCLIPFRAME
280
1
  9
$HALOGAP
280
0
  9
$OBSCOLOR
 70
257
  9
$OBSLTYPE
280
0
  9
$INTERSECTIONDISPLAY
280
0
  9
$INTERSECTIONCOLOR
 70
257
  9
$DIMASSOC
280
2
  9
$PROJECTNAME
  1

  9
$CAMERADISPLAY
290
0
  9
$LENSLENGTH
 40
50.0
  9
$CAMERAHEIGHT
 40
0.0
  9
$STEPSPERSEC
 40
24.0
  9
$STEPSIZE
 40
100.0
  9
$3DDWFPREC
 40
2.0
  9
$PSOLWIDTH
 40
0.005
  9
$PSOLHEIGHT
 40
0.08
  9
$LOFTANG1
 40
1.570796326795
  9
$LOFTANG2
 40
1.570796326795
  9
$LOFTMAG1
 40
0.0
  9
$LOFTMAG2
 40
0.0
  9
$LOFTPARAM
 70
7
  9
$LOFTNORMALS
280
1
  9
$LATITUDE
 40
37.795
  9
$LONGITUDE
 40
-122.394
  9
$NORTHDIRECTION
 40
0.0
  9
$TIMEZONE
 70
-8000
  9
$LIGHTGLYPHDISPLAY
280
1
  9
$TILEMODELIGHTSYNCH
280
1
  9
$CMATERIAL
347
20
  9
$SOLIDHIST
280
0
  9
$SHOWHIST
280
1
  9
$DWFFRAME
280
2
  9
$DGNFRAME
280
2
  9
$REALWORLDSCALE
290
1
  9
$INTERFERECOLOR
 62
256
  9
$CSHADOW
280
0
  9
$SHADOWPLANELOCATION
 40
0.0
  0
ENDSEC
  0
SECTION
  2
CLASSES
  0
CLASS
  1
ACDBDICTIONARYWDFLT
  2
AcDbDictionaryWithDefault
  3
ObjectDBX Classes
 90
0
 91
0
280
0
281
0
  0
CLASS
  1
SUN
  2
AcDbSun
  3
SCENEOE
 90
1153
 91
0
280
0
281
0
  0
CLASS
  1
VISUALSTYLE
  2
AcDbVisualStyle
  3
ObjectDBX Classes
 90
4095
 91
0
280
0
281
0
  0
CLASS
  1
MATERIAL
  2
AcDbMaterial
  3
ObjectDBX Classes
 90
1153
 91
0
280
0
281
0
  0
CLASS
  1
SCALE
  2
AcDbScale
  3
ObjectDBX Classes
 90
1153
 91
0
280
0
281
0
  0
CLASS
  1
TABLESTYLE
  2
AcDbTableStyle
  3
ObjectDBX Classes
 90
4095
 91
0
280
0
281
0
  0
CLASS
  1
MLEADERSTYLE
  2
AcDbMLeaderStyle
  3
ACDB_MLEADERSTYLE_CLASS
 90
4095
 91
0
280
0
281
0
  0
CLASS
  1
DICTIONARYVAR
  2
AcDbDictionaryVar
  3
ObjectDBX Classes
 90
0
 91
0
280
0
281
0
  0
CLASS
  1
CELLSTYLEMAP
  2
AcDbCellStyleMap
  3
ObjectDBX Classes
 90
1152
 91
0
280
0
281
0
  0
CLASS
  1
MENTALRAYRENDERSETTINGS
  2
AcDbMentalRayRenderSettings
  3
SCENEOE
 90
1024
 91
0
280
0
281
0
  0
CLASS
  1
ACDBDETAILVIEWSTYLE
  2
AcDbDetailViewStyle
  3
ObjectDBX Classes
 90
1025
 91
0
280
0
281
0
  0
CLASS
  1
ACDBSECTIONVIEWSTYLE
  2
AcDbSectionViewStyle
  3
ObjectDBX Classes
 90
1025
 91
0
280
0
281
0
  0
CLASS
  1
RASTERVARIABLES
  2
AcDbRasterVariables
  3
ISM
 90
0
 91
0
280
0
281
0
  0
CLASS
  1
ACDBPLACEHOLDER
  2
AcDbPlaceHolder
  3
ObjectDBX Classes
 90
0
 91
0
280
0
281
0
  0
CLASS
  1
LAYOUT
  2
AcDbLayout
  3
ObjectDBX Classes
 90
0
 91
0
280
0
281
0
  0
ENDSEC
  0
SECTION
  2
TABLES
  0
TABLE
  2
VPORT
  5
8
330
0
100
AcDbSymbolTable
 70
1
  0
VPORT
  5
23
330
8
100
AcDbSymbolTableRecord
100
AcDbViewportTableRecord
  2
*Active
 70
0
 10
0.0
 20
0.0
 11
1.0
 21
1.0
 12
0.0
 22
0.0
 13
0.0
 23
0.0
 14
0.5
 24
0.5
 15
0.5
 25
0.5
 16
0.0
 26
0.0
 36
1.0
 17
0.0
 27
0.0
 37
0.0
 40
1000.0
 41
1.34
 42
50.0
 43
0.0
 44
0.0
 50
0.0
 51
0.0
 71
0
 72
1000
 73
1
 74
3
 75
0
 76
0
 77
0
 78
0
281
0
 65
0
146
0.0
  0
ENDTAB
  0
TABLE
  2
LTYPE
  5
2
330
0
100
AcDbSymbolTable
 70
5
  0
LTYPE
  5
24
330
2
100
AcDbSymbolTableRecord
100
AcDbLinetypeTableRecord
  2
ByBlock
 70
0
  3

 72
65
 73
0
 40
0.0
  0
LTYPE
  5
25
330
2
100
AcDbSymbolTableRecord
100
AcDbLinetypeTableRecord
  2
ByLayer
 70
0
  3

 72
65
 73
0
 40
0.0
  0
LTYPE
  5
26
330
2
100
AcDbSymbolTableRecord
100
AcDbLinetypeTableRecord
  2
Continuous
 70
0
  3

 72
65
 73
0
 40
0.0
  0
LTYPE
  5
172
330
2
100
AcDbSymbolTableRecord
100
AcDbLinetypeTableRecord
  2
HIDDEN
 70
0
  3
Hidden __ __ __ __ __ __ __ __ __ __ __ __ __ _
 72
65
 73
2
 40
9.524999999999997
 49
6.349999999999997
 74
0
 49
-3.174999999999998
 74
0
  0
LTYPE
  5
173
330
2
100
AcDbSymbolTableRecord
100
AcDbLinetypeTableRecord
  2
HIDDEN2
 70
0
  3
Hidden (.5x) _ _ _ _ _ _ _ _ _ _ _ _ _ _ _ _ _
 72
65
 73
2
 40
4.762499999999998
 49
3.174999999999998
 74
0
 49
-1.587499999999999
 74
0
  0
ENDTAB
  0
TABLE
  2
LAYER
  5
1
330
0
100
AcDbSymbolTable
 70
4
  0
LAYER
  5
27
330
1
100
AcDbSymbolTableRecord
100
AcDbLayerTableRecord
  2
0
 70
0
 62
7
  6
Continuous
370
-3
390
13
347
21
  0
LAYER
  5
28
330
1
100
AcDbSymbolTableRecord
100
AcDbLayerTableRecord
  2
Defpoints
 70
0
 62
7
  6
Continuous
290
0
370
-3
390
13
347
21
  0
LAYER
  5
170
330
1
100
AcDbSymbolTableRecord
100
AcDbLayerTableRecord
  2
HEATER
 70
0
 62
1
  6
Continuous
370
-3
390
13
347
21
  0
LAYER
  5
171
330
1
100
AcDbSymbolTableRecord
100
AcDbLayerTableRecord
  2
DIM
 70
0
 62
253
  6
Continuous
370
-3
390
13
347
21
  0
ENDTAB
  0
TABLE
  2
STYLE
  5
5
330
0
100
AcDbSymbolTable
 70
2
  0
STYLE
  5
29
330
5
100
AcDbSymbolTableRecord
100
AcDbTextStyleTableRecord
  2
Standard
 70
0
 40
0.0
 41
1.0
 50
0.0
 71
0
 42
2.5
  3
txt
  4

  0
STYLE
  5
174
330
5
100
AcDbSymbolTableRecord
100
AcDbTextStyleTableRecord
  2
Arial
 70
0
 40
0.0
 41
1.0
 50
0.0
 71
0
 42
0.2
  3
arial.ttf
  4

  0
ENDTAB
  0
TABLE
  2
VIEW
  5
7
330
0
100
AcDbSymbolTable
 70
0
  0
ENDTAB
  0
TABLE
  2
UCS
  5
6
330
0
100
AcDbSymbolTable
 70
0
  0
ENDTAB
  0
TABLE
  2
APPID
  5
3
330
0
100
AcDbSymbolTable
 70
3
  0
APPID
  5
2A
330
3
100
AcDbSymbolTableRecord
100
AcDbRegAppTableRecord
  2
ACAD
 70
0
  0
APPID
  5
175
330
3
100
AcDbSymbolTableRecord
100
AcDbRegAppTableRecord
  2
HATCHBACKGROUNDCOLOR
 70
0
  0
APPID
  5
176
330
3
100
AcDbSymbolTableRecord
100
AcDbRegAppTableRecord
  2
EZDXF
 70
0
  0
ENDTAB
  0
TABLE
  2
DIMSTYLE
  5
4
330
0
100
AcDbSymbolTable
 70
2
100
AcDbDimStyleTable
  0
DIMSTYLE
105
2B
330
4
100
AcDbSymbolTableRecord
100
AcDbDimStyleTableRecord
  2
Standard
 70
0
 40
1.0
 41
2.5
 42
0.625
 43
3.75
 44
1.25
 45
0.0
 46
0.0
 47
0.0
 48
0.0
 49
2.5
140
2.5
141
2.5
142
0.0
143
0.03937007874
144
1.0
145
0.0
146
1.0
147
0.625
148
0.0
 69
0
 70
0
 71
0
 72
0
 73
0
 74
0
 75
0
 76
0
 77
1
 78
8
 79
3
170
0
171
3
172
1
173
0
174
0
175
0
176
0
177
0
178
0
179
2
271
2
272
2
273
2
274
3
275
0
276
0
277
2
278
44
279
0
280
0
281
0
282
0
283
0
284
8
285
0
286
0
288
0
289
3
290
0
371
-2
372
-2
  0
DIMSTYLE
105
16F
330
4
100
AcDbSymbolTableRecord
100
AcDbDimStyleTableRecord
  2
Dim-25
 70
0
 40
1.0
 41
8.0
 42
15.0
 43
3.75
 44
10.0
 45
0.0
 46
0.0
 47
0.0
 48
0.0
 49
2.5
140
25.0
141
10.0
142
0.0
143
0.03937007874016
144
1.0
145
0.0
146
1.0
147
10.0
148
0.0
 69
0
 70
0
 71
0
 72
0
 73
0
 74
0
 75
0
 76
0
 77
1
 78
8
 79
3
170
0
171
3
172
1
173
0
174
0
175
0
176
5
177
5
178
3
179
2
271
0
272
0
273
2
274
3
275
0
276
0
277
2
278
44
279
0
280
0
281
0
282
0
283
0
284
8
285
0
286
0
288
0
289
3
290
0
340
29
341
38
342
38
345
25
346
25
347
25
371
9
372
9
  0
ENDTAB
  0
TABLE
  2
BLOCK_RECORD
  5
9
330
0
100
AcDbSymbolTable
 70
19
  0
BLOCK_RECORD
  5
17
330
9
100
AcDbSymbolTableRecord
100
AcDbBlockTableRecord
  2
*Model_Space
340
1A
 70
0
280
1
281
0
  0
BLOCK_RECORD
  5
1B
330
9
100
AcDbSymbolTableRecord
100
AcDbBlockTableRecord
  2
*Paper_Space
340
1E
 70
0
280
1
281
0
  0
BLOCK_RECORD
  5
38
330
9
100
AcDbSymbolTableRecord
100
AcDbBlockTableRecord
  2
_Oblique
340
0
 70
0
280
1
281
0
  0
BLOCK_RECORD
  5
BF
330
9
100
AcDbSymbolTableRecord
100
AcDbBlockTableRecord
  2
HL044-1.3-C
340
0
 70
0
280
1
281
0
  0
BLOCK_RECORD
  5
CF
330
9
100
AcDbSymbolTableRecord
100
AcDbBlockTableRecord
  2
AB301-2-1
340
0
 70
0
280
1
281
0
  0
BLOCK_RECORD
  5
E2
330
9
100
AcDbSymbolTableRecord
100
AcDbBlockTableRecord
  2
MS722
340
0
 70
0
280
1
281
0
  0
BLOCK_RECORD
  5
E9
330
9
100
AcDbSymbolTableRecord
100
AcDbBlockTableRecord
  2
HL003-2-3
340
0
 70
0
280
1
281
0
  0
BLOCK_RECORD
  5
FE
330
9
100
AcDbSymbolTableRecord
100
AcDbBlockTableRecord
  2
HL044-1.3-B
340
0
 70
0
280
1
281
0
  0
BLOCK_RECORD
  5
11D
330
9
100
AcDbSymbolTableRecord
100
AcDbBlockTableRecord
  2
HL003-2-2
340
0
 70
0
280
1
281
0
  0
BLOCK_RECORD
  5
127
330
9
100
AcDbSymbolTableRecord
100
AcDbBlockTableRecord
  2
KHUNG CHUẨN
340
0
 70
0
280
1
281
0
  0
BLOCK_RECORD
  5
14F
330
9
100
AcDbSymbolTableRecord
100
AcDbBlockTableRecord
  2
SDGFGHGHG
340
0
 70
0
280
1
281
0
  0
BLOCK_RECORD
  5
164
330
9
100
AcDbSymbolTableRecord
100
AcDbBlockTableRecord
  2
SĐFHGGH
340
0
 70
0
280
1
281
0
  0
BLOCK_RECORD
  5
187
330
9
100
AcDbSymbolTableRecord
100
AcDbBlockTableRecord
  2
*D1
340
0
 70
0
280
1
281
0
  0
BLOCK_RECORD
  5
193
330
9
100
AcDbSymbolTableRecord
100
AcDbBlockTableRecord
  2
*D2
340
0
 70
0
280
1
281
0
  0
BLOCK_RECORD
  5
19F
330
9
100
AcDbSymbolTableRecord
100
AcDbBlockTableRecord
  2
*D3
340
0
 70
0
280
1
281
0
  0
BLOCK_RECORD
  5
1AB
330
9
100
AcDbSymbolTableRecord
100
AcDbBlockTableRecord
  2
*D4
340
0
 70
0
280
1
281
0
  0
BLOCK_RECORD
  5
1B7
330
9
100
AcDbSymbolTableRecord
100
AcDbBlockTableRecord
  2
*D5
340
0
 70
0
280
1
281
0
  0
BLOCK_RECORD
  5
1C3
330
9
100
AcDbSymbolTableRecord
100
AcDbBlockTableRecord
  2
*D6
340
0
 70
0
280
1
281
0
  0
BLOCK_RECORD
  5
1CF
330
9
100
AcDbSymbolTableRecord
100
AcDbBlockTableRecord
  2
*D7
340
0
 70
0
280
1
281
0
  0
ENDTAB
  0
ENDSEC
  0
SECTION
  2
BLOCKS
  0
BLOCK
  5
18
330
17
100
AcDbEntity
  8
0
100
AcDbBlockBegin
  2
*Model_Space
 70
0
 10
0.0
 20
0.0
 30
0.0
  3
*Model_Space
  1

  0
ENDBLK
  5
19
330
17
100
AcDbEntity
  8
0
100
AcDbBlockEnd
  0
BLOCK
  5
1C
330
1B
100
AcDbEntity
  8
0
100
AcDbBlockBegin
  2
*Paper_Space
 70
0
 10
0.0
 20
0.0
 30
0.0
  3
*Paper_Space
  1

  0
ENDBLK
  5
1D
330
1B
100
AcDbEntity
  8
0
100
AcDbBlockEnd
  0
BLOCK
  5
39
330
38
100
AcDbEntity
  8
0
100
AcDbBlockBegin
  2
_Oblique
 70
0
 10
0.0
 20
0.0
 30
0.0
  3
_Oblique
  1

  0
LINE
  5
3B
330
38
100
AcDbEntity
  8
0
  6
ByBlock
 62
0
370
-2
100
AcDbLine
 10
-0.5
 20
-0.5
 30
0.0
 11
0.5
 21
0.5
 31
0.0
  0
ENDBLK
  5
3A
330
38
100
AcDbEntity
  8
0
100
AcDbBlockEnd
  0
BLOCK
  5
C0
330
BF
100
AcDbEntity
  8
0
100
AcDbBlockBegin
  2
HL044-1.3-C
 70
0
 10
0.0
 20
0.0
 30
0.0
  3
HL044-1.3-C
  1

  0
LWPOLYLINE
  5
C2
330
BF
100
AcDbEntity
  8
0
 62
1
100
AcDbPolyline
 90
4
 70
1
 10
-46.0
 20
40.0
 10
0.0
 20
40.0
 10
0.0
 20
0.0
 10
-46.0
 20
0.0
  0
LINE
  5
C3
330
BF
100
AcDbEntity
  8
0
 62
1
100
AcDbLine
 10
-12.0
 20
29.0
 30
0.0
 11
0.0
 21
29.0
 31
0.0
  0
LINE
  5
C4
330
BF
100
AcDbEntity
  8
0
 62
1
100
AcDbLine
 10
-11.0
 20
28.50000000000728
 30
0.0
 11
0.0
 21
28.5
 31
0.0
  0
LINE
  5
C5
330
BF
100
AcDbEntity
  8
0
 62
1
100
AcDbLine
 10
0.0
 20
11.0
 30
0.0
 11
-12.0
 21
11.0
 31
0.0
  0
LINE
  5
C6
330
BF
100
AcDbEntity
  8
0
 62
1
100
AcDbLine
 10
0.0
 20
11.5
 30
0.0
 11
-11.0
 21
11.50000000000727
 31
0.0
  0
LINE
  5
C7
330
BF
100
AcDbEntity
  8
0
 62
1
100
AcDbLine
 10
-12.0
 20
11.0
 30
0.0
 11
-12.0
 21
29.0
 31
0.0
  0
CIRCLE
  5
C8
330
BF
100
AcDbEntity
  8
0
  6
HIDDEN2
 62
1
 48
0.5
100
AcDbCircle
 10
-25.0
 20
14.0
 30
0.0
 40
4.0
  0
CIRCLE
  5
C9
330
BF
100
AcDbEntity
  8
0
  6
HIDDEN2
 62
1
 48
0.5
100
AcDbCircle
 10
-25.0
 20
26.0
 30
0.0
 40
4.0
  0
CIRCLE
  5
CA
330
BF
100
AcDbEntity
  8
0
  6
HIDDEN2
 62
1
 48
0.5
100
AcDbCircle
 10
-15.5
 20
32.5
 30
0.0
 40
3.0
  0
CIRCLE
  5
CB
330
BF
100
AcDbEntity
  8
0
  6
HIDDEN2
 62
1
 48
0.5
100
AcDbCircle
 10
-15.5
 20
7.500000000007275
 30
0.0
 40
3.0
  0
LINE
  5
CC
330
BF
100
AcDbEntity
  8
0
  6
HIDDEN2
 62
1
 48
0.5
100
AcDbLine
 10
-25.0
 20
40.0
 30
0.0
 11
-25.0
 21
0.0
 31
0.0
  0
LINE
  5
CD
330
BF
100
AcDbEntity
  8
0
  6
HIDDEN2
 62
1
 48
0.5
100
AcDbLine
 10
-3.0
 20
7.276e-12
 30
0.0
 11
-3.0
 21
40.0
 31
0.0
  0
LINE
  5
CE
330
BF
100
AcDbEntity
  8
0
 62
1
100
AcDbLine
 10
-11.0
 20
28.5
 30
0.0
 11
-11.0
 21
11.5
 31
0.0
  0
ENDBLK
  5
C1
330
BF
100
AcDbEntity
  8
0
100
AcDbBlockEnd
  0
BLOCK
  5
D0
330
CF
100
AcDbEntity
  8
0
100
AcDbBlockBegin
  2
AB301-2-1
 70
0
 10
0.0
 20
0.0
 30
0.0
  3
AB301-2-1
  1

  0
LWPOLYLINE
  5
D2
330
CF
100
AcDbEntity
  8
0
  6
Continuous
 62
1
100
AcDbPolyline
 90
8
 70
1
 10
-1.45519e-11
 20
25.00000000000728
 10
-1.45519e-11
 20
25.00000000000728
 42
-0.4142135623730951
 10
14.99999999998545
 20
10.00000000000727
 10
14.99999999998545
 20
-80.49999999999272
 42
-0.4142135623730951
 10
-1.45519e-11
 20
-95.49999999999272
 10
-1.45519e-11
 20
-95.49999999999272
 42
-0.4142135623730951
 10
-15.00000000001455
 20
-80.49999999999272
 10
-15.00000000001455
 20
10.00000000000727
 42
-0.4142135623730951
  0
LWPOLYLINE
  5
D3
330
CF
100
AcDbEntity
  8
0
  6
Continuous
 62
1
100
AcDbPolyline
 90
6
 70
1
 10
-1.45519e-11
 20
10.00000000000727
 42
-0.4142135623730951
 10
9.999999999985448
 20
7.276e-12
 10
9.999999999985448
 20
-80.49999999999272
 42
-0.4142135623730951
 10
-1.45519e-11
 20
-90.49999999999272
 42
-0.4142135623730951
 10
-10.00000000001455
 20
-80.49999999999272
 10
-10.00000000001455
 20
7.276e-12
 42
-0.4142135623730951
  0
HATCH
  5
D4
330
CF
100
AcDbEntity
  8
0
  6
Continuous
 62
1
100
AcDbHatch
 10
0.0
 20
0.0
 30
0.0
210
0.0
220
0.0
230
1.0
  2
ACAD_ISO09W100
 70
0
 71
0
 91
1
 92
7
 72
1
 73
1
 93
5
 10
-4.08737554690669
 20
-88.5183141082494
 42
0.1184039893890922
 10
-1.45519e-11
 20
-89.49999999999272
 42
0.1184039893890922
 10
4.087375546877586
 20
-88.5183141082494
 42
0.0
 10
6.999999999985446
 20
-71.99999999999272
 42
0.0
 10
-7.000000000014551
 20
-71.99999999999272
 42
0.0
 97
0
 75
1
 76
1
 52
0.0
 41
0.2
 77
0
 78
1
 53
0.0
 43
-368.0181415297993
 44
398.3813967279711
 45
0.0
 46
1.0
 79
6
 49
4.799999999999998
 49
-0.6000000000000001
 49
1.199999999999999
 49
-0.6000000000000001
 49
1.199999999999999
 49
-0.6000000000000001
 47
0.1010447066433967
 98
1
 10
-1.464316444500582
 20
-79.25328255711065
  0
LWPOLYLINE
  5
D5
330
CF
100
AcDbEntity
  8
0
  6
Continuous
 62
1
100
AcDbPolyline
 90
7
 70
1
 10
8.999999999985448
 20
-72.49999999999272
 10
8.999999999985448
 20
-80.49999999999272
 42
-0.4142135623730951
 10
-1.45519e-11
 20
-89.49999999999272
 42
-0.4142135623730951
 10
-9.00000000001455
 20
-80.49999999999272
 10
-9.00000000001455
 20
-72.49999999999272
 42
-0.4142135623730951
 10
-7.000000000014551
 20
-70.49999999999272
 10
6.999999999985448
 20
-70.49999999999272
 42
-0.4142135623730951
  0
LINE
  5
D6
330
CF
100
AcDbEntity
  8
0
  6
Continuous
 62
1
100
AcDbLine
 10
-10.00000000001455
 20
-50.49999999999272
 30
0.0
 11
9.999999999985448
 21
-50.49999999999272
 31
0.0
  0
LINE
  5
D7
330
CF
100
AcDbEntity
  8
0
  6
Continuous
 62
1
100
AcDbLine
 10
-7.000000000014551
 20
-71.99999999999272
 30
0.0
 11
6.999999999985448
 21
-71.99999999999272
 31
0.0
  0
LINE
  5
D8
330
CF
100
AcDbEntity
  8
0
  6
Continuous
 62
1
100
AcDbLine
 10
-7.000000000014551
 20
-71.99999999999272
 30
0.0
 11
-4.087375546907423
 21
-88.51831410824525
 31
0.0
  0
LINE
  5
D9
330
CF
100
AcDbEntity
  8
0
  6
Continuous
 62
1
100
AcDbLine
 10
6.999999999985448
 20
-71.99999999999272
 30
0.0
 11
4.08737554687832
 21
-88.51831410824525
 31
0.0
  0
CIRCLE
  5
DA
330
CF
100
AcDbEntity
  8
0
  6
Continuous
 62
1
100
AcDbCircle
 10
-1.45519e-11
 20
-60.49999999999272
 30
0.0
 40
8.0
  0
LWPOLYLINE
  5
DB
330
CF
100
AcDbEntity
  8
0
  6
Continuous
 62
1
100
AcDbPolyline
 90
4
 70
1
 10
-1.000000000014551
 20
-55.49999999999272
 10
0.999999999985448
 20
-55.49999999999272
 10
0.999999999985448
 20
-65.49999999999272
 10
-1.000000000014551
 20
-65.49999999999272
  0
LWPOLYLINE
  5
DC
330
CF
100
AcDbEntity
  8
0
  6
Continuous
 62
1
100
AcDbPolyline
 90
8
 70
0
 10
-15.00000000001455
 20
-12.49999999999272
 10
-57.50000000001455
 20
-12.49999999999272
 42
-0.4142135623730951
 10
-65.00000000001455
 20
-4.999999999992724
 10
-65.00000000001455
 20
5.000000000007275
 42
-0.4142135623730951
 10
-57.50000000001455
 20
12.50000000000727
 10
-30.73832970146032
 20
12.50000000000727
 42
0.4142135623730951
 10
-24.73832970146032
 20
18.50000000000727
 10
-24.73832970146032
 20
18.73832970144576
  0
LWPOLYLINE
  5
DD
330
CF
100
AcDbEntity
  8
0
  6
Continuous
 62
1
100
AcDbPolyline
 90
5
 70
0
 10
-24.73832970146032
 20
18.73832970144576
 42
-0.1989123673796609
 10
-22.98097038858395
 20
22.98097038856941
 10
-22.98097038858395
 20
22.98097038856941
 42
-0.4142135623730951
 10
-14.49568901433667
 20
22.98097038856941
 10
-11.33688703729422
 20
19.82216841151967
  0
LWPOLYLINE
  5
DE
330
CF
100
AcDbEntity
  8
0
  6
Continuous
 62
1
100
AcDbPolyline
 90
5
 70
0
 10
14.99999999998545
 20
-6.51471862575272
 10
22.98097038855485
 20
-14.49568901431485
 42
-0.4142135623730951
 10
22.98097038855485
 20
-22.98097038855485
 10
22.98097038855485
 20
-22.98097038855485
 42
-0.381560762960909
 10
14.99999999998545
 20
-23.43139810529828
 42
-0.381560762960909
  0
LWPOLYLINE
  5
DF
330
CF
100
AcDbEntity
  8
0
  6
Continuous
 62
2
100
AcDbPolyline
 90
4
 70
1
 10
-12.00000000001455
 20
13.25000000000727
 10
11.99999999998545
 20
13.25000000000727
 10
11.99999999998545
 20
-83.74999999999272
 10
-12.00000000001455
 20
-83.74999999999272
  0
CIRCLE
  5
E0
330
CF
100
AcDbEntity
  8
0
  6
Continuous
 62
1
100
AcDbCircle
 10
-18.73832970146031
 20
18.73832970144576
 30
0.0
 40
2.5
  0
CIRCLE
  5
E1
330
CF
100
AcDbEntity
  8
0
  6
Continuous
 62
1
100
AcDbCircle
 10
18.73832970143121
 20
-18.73832970143121
 30
0.0
 40
2.5
  0
ENDBLK
  5
D1
330
CF
100
AcDbEntity
  8
0
100
AcDbBlockEnd
  0
BLOCK
  5
E3
330
E2
100
AcDbEntity
  8
0
100
AcDbBlockBegin
  2
MS722
 70
0
 10
0.0
 20
0.0
 30
0.0
  3
MS722
  1

  0
INSERT
  5
E5
330
E2
100
AcDbEntity
  8
0
100
AcDbBlockReference
  2
SDGFGHGHG
 10
-860940.444367795
 20
-570770.5213009797
 30
0.0
  0
INSERT
  5
E7
330
E2
100
AcDbEntity
  8
0
100
AcDbBlockReference
  2
SĐFHGGH
 10
-860940.444367795
 20
-570705.4118046993
 30
0.0
  0
ENDBLK
  5
E4
330
E2
100
AcDbEntity
  8
0
100
AcDbBlockEnd
  0
BLOCK
  5
EA
330
E9
100
AcDbEntity
  8
0
100
AcDbBlockBegin
  2
HL003-2-3
 70
0
 10
0.0
 20
0.0
 30
0.0
  3
HL003-2-3
  1

  0
LINE
  5
EC
330
E9
100
AcDbEntity
  8
0
 62
1
100
AcDbLine
 10
0.0
 20
22.0
 30
0.0
 11
17.0
 21
22.0
 31
0.0
  0
LINE
  5
ED
330
E9
100
AcDbEntity
  8
0
 62
1
100
AcDbLine
 10
0.0
 20
20.0
 30
0.0
 11
15.0
 21
20.0
 31
0.0
  0
LINE
  5
EE
330
E9
100
AcDbEntity
  8
0
 62
1
100
AcDbLine
 10
17.0
 20
22.0
 30
0.0
 11
17.0
 21
3.0
 31
0.0
  0
LINE
  5
EF
330
E9
100
AcDbEntity
  8
0
 62
1
100
AcDbLine
 10
15.0
 20
20.0
 30
0.0
 11
15.0
 21
3.0
 31
0.0
  0
LINE
  5
F0
330
E9
100
AcDbEntity
  8
0
 62
1
100
AcDbLine
 10
0.0
 20
20.0
 30
0.0
 11
0.0
 21
22.0
 31
0.0
  0
LINE
  5
F1
330
E9
100
AcDbEntity
  8
0
 62
1
100
AcDbLine
 10
4.0
 20
20.0
 30
0.0
 11
4.0
 21
18.0
 31
0.0
  0
LINE
  5
F2
330
E9
100
AcDbEntity
  8
0
 62
1
100
AcDbLine
 10
4.0
 20
18.0
 30
0.0
 11
0.0
 21
18.0
 31
0.0
  0
CIRCLE
  5
F3
330
E9
100
AcDbEntity
  8
0
 62
1
100
AcDbCircle
 10
10.0
 20
16.0
 30
0.0
 40
3.0
  0
LINE
  5
F4
330
E9
100
AcDbEntity
  8
0
 62
1
100
AcDbLine
 10
17.0
 20
3.0
 30
0.0
 11
8.0
 21
3.0
 31
0.0
  0
LINE
  5
F5
330
E9
100
AcDbEntity
  8
0
 62
1
100
AcDbLine
 10
0.0
 20
10.0
 30
0.0
 11
0.0
 21
18.0
 31
0.0
  0
LINE
  5
F6
330
E9
100
AcDbEntity
  8
0
 62
1
100
AcDbLine
 10
0.0
 20
10.0
 30
0.0
 11
8.0
 21
3.0
 31
0.0
  0
LINE
  5
F7
330
E9
100
AcDbEntity
  8
0
 62
1
100
AcDbLine
 10
16.0
 20
3.0
 30
0.0
 11
16.0
 21
0.0
 31
0.0
  0
LINE
  5
F8
330
E9
100
AcDbEntity
  8
0
 62
1
100
AcDbLine
 10
16.0
 20
0.0
 30
0.0
 11
0.0
 21
0.0
 31
0.0
  0
LINE
  5
F9
330
E9
100
AcDbEntity
  8
0
 62
1
100
AcDbLine
 10
0.0
 20
0.0
 30
0.0
 11
0.0
 21
4.0
 31
0.0
  0
LINE
  5
FA
330
E9
100
AcDbEntity
  8
0
 62
1
100
AcDbLine
 10
0.0
 20
4.0
 30
0.0
 11
3.428571428579743
 21
7.0
 31
0.0
  0
CIRCLE
  5
FB
330
E9
100
AcDbEntity
  8
0
 62
1
100
AcDbCircle
 10
10.0
 20
16.0
 30
0.0
 40
3.0
  0
HATCH
  5
FC
330
E9
100
AcDbEntity
  8
0
 62
2
100
AcDbHatch
 10
0.0
 20
0.0
 30
0.0
210
0.0
220
0.0
230
1.0
  2
ANSI31
 70
0
 71
0
 91
1
 92
7
 72
0
 73
1
 93
4
 10
11.0
 20
10.0
 10
5.0
 20
10.0
 10
5.0
 20
0.0
 10
11.0
 20
0.0
 97
0
 75
0
 76
1
 52
0.0
 41
0.5
 77
0
 78
1
 53
45.0
 43
8435.407079138444
 44
86016.96644780628
 45
-1.122532015133643
 46
1.122532015133643
 79
0
 47
0.0298277246703574
 98
1
 10
8.80767606885638
 20
4.97684244980337
  0
LWPOLYLINE
  5
FD
330
E9
100
AcDbEntity
  8
0
 62
2
100
AcDbPolyline
 90
4
 70
1
 10
5.0
 20
10.0
 10
11.0
 20
10.0
 10
11.0
 20
0.0
 10
5.0
 20
0.0
  0
ENDBLK
  5
EB
330
E9
100
AcDbEntity
  8
0
100
AcDbBlockEnd
  0
BLOCK
  5
FF
330
FE
100
AcDbEntity
  8
0
100
AcDbBlockBegin
  2
HL044-1.3-B
 70
0
 10
0.0
 20
0.0
 30
0.0
  3
HL044-1.3-B
  1

  0
HATCH
  5
101
330
FE
100
AcDbEntity
  8
0
 62
1
100
AcDbHatch
 10
0.0
 20
0.0
 30
0.0
210
0.0
220
0.0
230
1.0
  2
ANSI31
 70
0
 71
0
 91
1
 92
7
 72
0
 73
1
 93
4
 10
-15.5
 20
27.0
 10
-15.5
 20
24.0
 10
-9.5
 20
24.0
 10
-9.5
 20
27.0
 97
4
330
33933
330
33935
330
33930
330
33936
 75
0
 76
1
 52
0.0
 41
0.3
 77
0
 78
1
 53
45.0
 43
-80982.3192505066
 44
-42991.26475357953
 45
-0.6735192090801864
 46
0.6735192090801866
 79
0
 47
0.0787477369447478
 98
1
 10
-12.63045961401076
 20
25.65454838844016
  0
LINE
  5
102
330
FE
100
AcDbEntity
  8
0
 62
1
100
AcDbLine
 10
-1.0
 20
24.0
 30
0.0
 11
-22.0
 21
24.0
 31
0.0
  0
ARC
  5
103
330
FE
100
AcDbEntity
  8
0
 62
1
100
AcDbCircle
 10
-1.0
 20
23.0
 30
0.0
 40
1.0
100
AcDbArc
 50
0.0
 51
90.0
  0
LINE
  5
104
330
FE
100
AcDbEntity
  8
0
 62
1
100
AcDbLine
 10
-22.0
 20
24.0
 30
0.0
 11
-22.0
 21
27.0
 31
0.0
  0
LINE
  5
105
330
FE
100
AcDbEntity
  8
0
 62
1
100
AcDbLine
 10
-22.0
 20
27.0
 30
0.0
 11
1.0
 21
27.0
 31
0.0
  0
ARC
  5
106
330
FE
100
AcDbEntity
  8
0
 62
1
100
AcDbCircle
 10
1.0
 20
25.0
 30
0.0
 40
2.0
100
AcDbArc
 50
0.0
 51
90.0
  0
LINE
  5
107
330
FE
100
AcDbEntity
  8
0
 62
1
100
AcDbLine
 10
-15.5
 20
24.0
 30
0.0
 11
-15.5
 21
27.0
 31
0.0
  0
LINE
  5
108
330
FE
100
AcDbEntity
  8
0
 62
1
100
AcDbLine
 10
-9.5
 20
24.0
 30
0.0
 11
-9.5
 21
27.0
 31
0.0
  0
LINE
  5
109
330
FE
100
AcDbEntity
  8
0
 62
1
100
AcDbLine
 10
3.0
 20
25.0
 30
0.0
 11
3.0
 21
0.0
 31
0.0
  0
LINE
  5
10A
330
FE
100
AcDbEntity
  8
0
 62
1
100
AcDbLine
 10
0.0
 20
23.0
 30
0.0
 11
0.0
 21
0.0
 31
0.0
  0
ARC
  5
10B
330
FE
100
AcDbEntity
  8
0
 62
1
100
AcDbCircle
 10
-2.5
 20
-6.5
 30
0.0
 40
5.5
100
AcDbArc
 50
270.0
 51
0.0
  0
LINE
  5
10C
330
FE
100
AcDbEntity
  8
0
 62
1
100
AcDbLine
 10
0.0
 20
0.0
 30
0.0
 11
-43.0
 21
0.0
 31
0.0
  0
LINE
  5
10D
330
FE
100
AcDbEntity
  8
0
 62
1
100
AcDbLine
 10
-43.0
 20
0.0
 30
0.0
 11
-43.0
 21
-2.0
 31
0.0
  0
LINE
  5
10E
330
FE
100
AcDbEntity
  8
0
 62
1
100
AcDbLine
 10
3.0
 20
-6.5
 30
0.0
 11
3.0
 21
0.0
 31
0.0
  0
LWPOLYLINE
  5
10F
330
FE
100
AcDbEntity
  8
0
 62
1
100
AcDbPolyline
 90
4
 70
1
 10
-26.0
 20
6.5
 10
-18.0
 20
6.5
 10
-18.0
 20
0.0
 10
-26.0
 20
0.0
  0
LINE
  5
110
330
FE
100
AcDbEntity
  8
0
 62
1
100
AcDbLine
 10
-19.0
 20
6.5
 30
0.0
 11
-19.0
 21
0.0
 31
0.0
  0
LINE
  5
111
330
FE
100
AcDbEntity
  8
0
 62
1
100
AcDbLine
 10
-25.0
 20
6.5
 30
0.0
 11
-25.0
 21
0.0
 31
0.0
  0
LINE
  5
112
330
FE
100
AcDbEntity
  8
0
 62
1
100
AcDbLine
 10
-25.0
 20
6.5
 30
0.0
 11
-19.0
 21
5.934058110346086
 31
0.0
  0
LINE
  5
113
330
FE
100
AcDbEntity
  8
0
 62
1
100
AcDbLine
 10
-25.0
 20
5.5
 30
0.0
 11
-19.0
 21
4.934058110346086
 31
0.0
  0
LINE
  5
114
330
FE
100
AcDbEntity
  8
0
 62
1
100
AcDbLine
 10
-25.0
 20
4.5
 30
0.0
 11
-19.0
 21
3.934058110346086
 31
0.0
  0
LINE
  5
115
330
FE
100
AcDbEntity
  8
0
 62
1
100
AcDbLine
 10
-25.0
 20
3.5
 30
0.0
 11
-19.0
 21
2.934058110346086
 31
0.0
  0
LINE
  5
116
330
FE
100
AcDbEntity
  8
0
 62
1
100
AcDbLine
 10
-25.0
 20
2.5
 30
0.0
 11
-19.0
 21
1.934058110346086
 31
0.0
  0
LINE
  5
117
330
FE
100
AcDbEntity
  8
0
 62
1
100
AcDbLine
 10
-25.0
 20
1.5
 30
0.0
 11
-19.0
 21
0.9340581103460863
 31
0.0
  0
LINE
  5
118
330
FE
100
AcDbEntity
  8
0
 62
1
100
AcDbLine
 10
-25.0
 20
0.5
 30
0.0
 11
-19.69910240812169
 21
0.0
 31
0.0
  0
CIRCLE
  5
119
330
FE
100
AcDbEntity
  8
0
 62
1
100
AcDbCircle
 10
-2.30000000000291
 20
-7.0
 30
0.0
 40
2.55000000000291
  0
LINE
  5
11A
330
FE
100
AcDbEntity
  8
0
 62
1
100
AcDbLine
 10
0.0
 20
6.0
 30
0.0
 11
3.0
 21
6.0
 31
0.0
  0
LINE
  5
11B
330
FE
100
AcDbEntity
  8
0
 62
1
100
AcDbLine
 10
0.0
 20
7.5
 30
0.0
 11
3.0
 21
7.5
 31
0.0
  0
ARC
  5
11C
330
FE
100
AcDbEntity
  8
0
 62
1
100
AcDbCircle
 10
15.4356101804733
 20
147.6517212310209
 30
0.0
 40
160.6560244888795
100
AcDbArc
 50
248.6704799579358
 51
263.5901471651879
  0
ENDBLK
  5
100
330
FE
100
AcDbEntity
  8
0
100
AcDbBlockEnd
  0
BLOCK
  5
11E
330
11D
100
AcDbEntity
  8
0
100
AcDbBlockBegin
  2
HL003-2-2
 70
0
 10
0.0
 20
0.0
 30
0.0
  3
HL003-2-2
  1

  0
CIRCLE
  5
120
330
11D
100
AcDbEntity
  8
0
 62
1
100
AcDbCircle
 10
8.0
 20
6.0
 30
0.0
 40
3.0
  0
LWPOLYLINE
  5
121
330
11D
100
AcDbEntity
  8
0
 62
1
100
AcDbPolyline
 90
4
 70
1
 10
0.0
 20
12.0
 10
16.0
 20
12.0
 10
16.0
 20
0.0
 10
0.0
 20
0.0
  0
LWPOLYLINE
  5
122
330
11D
100
AcDbEntity
  8
0
 62
1
100
AcDbPolyline
 90
6
 70
0
 10
17.0
 20
0.0
 10
17.0
 20
-9.0
 10
0.0
 20
-9.0
 10
0.0
 20
21.0
 10
17.0
 20
21.0
 10
17.0
 20
12.0
  0
LINE
  5
123
330
11D
100
AcDbEntity
  8
0
 62
1
100
AcDbLine
 10
16.0
 20
0.0
 30
0.0
 11
17.0
 21
0.0
 31
0.0
  0
LINE
  5
124
330
11D
100
AcDbEntity
  8
0
 62
1
100
AcDbLine
 10
16.0
 20
12.0
 30
0.0
 11
17.0
 21
12.0
 31
0.0
  0
LINE
  5
125
330
11D
100
AcDbEntity
  8
0
 62
1
100
AcDbLine
 10
15.0
 20
21.0
 30
0.0
 11
15.0
 21
12.0
 31
0.0
  0
LINE
  5
126
330
11D
100
AcDbEntity
  8
0
 62
1
100
AcDbLine
 10
15.0
 20
-9.0
 30
0.0
 11
15.0
 21
1.8e-15
 31
0.0
  0
ENDBLK
  5
11F
330
11D
100
AcDbEntity
  8
0
100
AcDbBlockEnd
  0
BLOCK
  5
128
330
127
100
AcDbEntity
  8
0
100
AcDbBlockBegin
  2
KHUNG CHUẨN
 70
2
 10
0.0
 20
0.0
 30
0.0
  3
KHUNG CHUẨN
  1

  0
LWPOLYLINE
  5
12A
330
127
100
AcDbEntity
  8
0
 62
7
100
AcDbPolyline
 90
4
 70
1
 10
16919.24922090965
 20
-26555.15926993403
 10
19889.24922091007
 20
-26555.15926993403
 10
19889.24922091007
 20
-28655.15926993435
 10
16919.24922090965
 20
-28655.15926993435
  0
LINE
  5
12B
330
127
100
AcDbEntity
  8
0
 62
7
100
AcDbLine
 10
18939.24922090965
 20
-28595.15926993434
 30
0.0
 11
16919.24922090965
 21
-28595.15926993434
 31
0.0
  0
LINE
  5
12C
330
127
100
AcDbEntity
  8
0
 62
7
100
AcDbLine
 10
19889.24922091007
 20
-28535.15926993435
 30
0.0
 11
16919.24922090965
 21
-28535.15926993435
 31
0.0
  0
LINE
  5
12D
330
127
100
AcDbEntity
  8
0
 62
7
100
AcDbLine
 10
17239.24922090965
 20
-28535.15926993435
 30
0.0
 11
17239.24922090965
 21
-28595.15926993434
 31
0.0
  0
LINE
  5
12E
330
127
100
AcDbEntity
  8
0
 62
7
100
AcDbLine
 10
17809.24922090965
 20
-28535.15926993435
 30
0.0
 11
17809.24922090965
 21
-28655.15926993435
 31
0.0
  0
LINE
  5
12F
330
127
100
AcDbEntity
  8
0
 62
7
100
AcDbLine
 10
18599.24922090965
 20
-28535.15926993435
 30
0.0
 11
18599.24922090965
 21
-28655.15926993435
 31
0.0
  0
LINE
  5
130
330
127
100
AcDbEntity
  8
0
 62
7
100
AcDbLine
 10
18939.24922090965
 20
-28535.15926993435
 30
0.0
 11
18939.24922090965
 21
-28655.15926993435
 31
0.0
  0
LINE
  5
131
330
127
100
AcDbEntity
  8
0
 62
7
100
AcDbLine
 10
19779.24922091007
 20
-28535.15926993435
 30
0.0
 11
19779.24922091007
 21
-28655.15926993435
 31
0.0
  0
MTEXT
  5
132
330
127
100
AcDbEntity
  8
0
 62
2
100
AcDbMText
 10
16919.24922090965
 20
-28565.15926993435
 30
0.0
 40
20.0
 41
917.6339389950801
 46
60.00000000000113
 71
4
 72
5
  1
  Thiết kế :
  7
Arial
  0
MTEXT
  5
133
330
127
100
AcDbEntity
  8
0
 62
2
100
AcDbMText
 10
16919.24922090965
 20
-28625.15926993435
 30
0.0
 40
20.0
 41
917.6339389950801
 46
60.00000000000113
 71
4
 72
5
  1
  CNC :
  7
Arial
  0
MTEXT
  5
134
330
127
100
AcDbEntity
  8
0
 62
2
100
AcDbMText
 10
17239.24922090965
 20
-28565.15926993435
 30
0.0
 40
20.0
 41
917.6339389950801
 46
60.00000000000113
 71
4
 72
5
  1
  Khách hàng :
  7
Arial
  0
MTEXT
  5
135
330
127
100
AcDbEntity
  8
0
 62
2
100
AcDbMText
 10
17466.28942955682
 20
-28625.15926993435
 30
0.0
 40
20.0
 41
556.6509010178333
 46
60.00000000000113
 71
4
 72
5
  1
  Ngày giao:
  7
Arial
  0
MTEXT
  5
136
330
127
100
AcDbEntity
  8
0
 62
2
100
AcDbMText
 10
17809.24922090965
 20
-28565.15926993435
 30
0.0
 40
20.0
 41
917.6339389950801
 46
60.00000000000113
 71
4
 72
5
  1
  Tên sản phẩm :
  7
Arial
  0
MTEXT
  5
137
330
127
100
AcDbEntity
  8
0
 62
2
100
AcDbMText
 10
17809.24922090965
 20
-28625.15926993435
 30
0.0
 40
20.0
 41
917.6339389950801
 46
60.00000000000113
 71
4
 72
5
  1
  Kích thước :
  7
Arial
  0
MTEXT
  5
138
330
127
100
AcDbEntity
  8
0
 62
2
100
AcDbMText
 10
18599.24922090965
 20
-28565.15926993435
 30
0.0
 40
20.0
 41
917.6339389950801
 46
60.00000000000113
 71
4
 72
5
  1
  Số lượng :
  7
Arial
  0
MTEXT
  5
139
330
127
100
AcDbEntity
  8
0
 62
2
100
AcDbMText
 10
18599.24922090965
 20
-28625.15926993435
 30
0.0
 40
20.0
 41
917.6339389950801
 46
60.00000000000113
 71
4
 72
5
  1
  Loại tôn :
  7
Arial
  0
MTEXT
  5
13A
330
127
100
AcDbEntity
  8
0
 62
2
100
AcDbMText
 10
18993.40450252067
 20
-28595.15926993434
 30
0.0
 40
20.0
 41
108.3105632220314
 46
120.0000000000011
 71
5
 72
5
  1
Thông\Ptin :
  7
Arial
  0
MTEXT
  5
13B
330
127
100
AcDbEntity
  8
0
 62
2
100
AcDbMText
 10
19834.24922091007
 20
-28565.15926993435
 30
0.0
 40
20.0
 41
110.0000000000065
 46
60.00000000000113
 71
5
 72
5
  1
Tờ
  7
Arial
  0
LINE
  5
13C
330
127
100
AcDbEntity
  8
0
 62
7
100
AcDbLine
 10
19047.55978413167
 20
-28560.15926993435
 30
0.0
 11
19047.55978413167
 21
-28630.15926993435
 31
0.0
  0
MTEXT
  5
13D
330
127
100
AcDbEntity
  8
0
 62
2
100
AcDbMText
 10
18548.56684883467
 20
-28625.15926993435
 30
0.0
 40
20.0
 41
73.8305401162098
 46
60.00000000000113
 71
4
 72
5
  1
mm
  7
Arial
  0
MTEXT
  5
13E
330
127
100
AcDbEntity
  8
0
 62
2
100
AcDbMText
 10
18897.93889973559
 20
-28565.15926993435
 30
0.0
 40
20.0
 41
63.51722131864801
 46
60.00000000000113
 71
4
 72
5
  1
cái
  7
Arial
  0
MTEXT
  5
13F
330
127
100
AcDbEntity
  8
0
 62
2
100
AcDbMText
 10
18889.20613294428
 20
-28625.15926993435
 30
0.0
 40
20.0
 41
917.6339389950801
 46
60.00000000000113
 71
4
 72
5
  1
mm
  7
Arial
  0
LINE
  5
140
330
127
100
AcDbEntity
  8
0
 62
7
100
AcDbLine
 10
17139.24922090965
 20
-28595.15926993434
 30
0.0
 11
17139.24922090965
 21
-28655.15926993435
 31
0.0
  0
MTEXT
  5
141
330
127
100
AcDbEntity
  8
0
 62
2
100
AcDbMText
 10
17134.01855837237
 20
-28625.15926993435
 30
0.0
 40
20.0
 41
556.6509010178333
 46
60.00000000000113
 71
4
 72
5
  1
  Ngày nhận :
  7
Arial
  0
LINE
  5
142
330
127
100
AcDbEntity
  8
0
 62
7
100
AcDbLine
 10
17474.24922090965
 20
-28595.15926993434
 30
0.0
 11
17474.24922090965
 21
-28655.15926993435
 31
0.0
  0
ATTDEF
  5
143
330
127
100
AcDbEntity
  8
0
 62
3
100
AcDbText
 10
18030.57595183183
 20
-28580.1015331953
 30
0.0
 40
20.0
  1
............
  7
Arial
100
AcDbAttributeDefinition
  3
SẢN PHẨM
  2
#03
 70
0
280
1
 71
1
 72
0
  0
ATTDEF
  5
144
330
127
100
AcDbEntity
  8
0
 62
3
100
AcDbText
 10
18002.0078672091
 20
-28634.73750821321
 30
0.0
 40
20.0
  1

  7
Arial
100
AcDbAttributeDefinition
  3
KÍCH THƯỚC
  2
#07
 70
0
280
1
 71
1
 72
0
  0
ATTDEF
  5
145
330
127
100
AcDbEntity
  8
0
 62
3
100
AcDbText
 10
18751.69842633112
 20
-28580.1015331953
 30
0.0
 40
20.0
  1

  7
Arial
100
AcDbAttributeDefinition
  3
SỐ LƯỢNG
  2
#08
 70
0
280
1
 71
1
 72
0
  0
ATTDEF
  5
146
330
127
100
AcDbEntity
  8
0
 62
3
100
AcDbText
 10
18753.84501617292
 20
-28632.59717057646
 30
0.0
 40
20.0
  1

  7
Arial
100
AcDbAttributeDefinition
  3
LOẠI TÔN
  2
#09
 70
0
280
1
 71
1
 72
0
  0
ATTDEF
  5
147
330
127
100
AcDbEntity
  8
0
 62
3
100
AcDbText
 10
19064.78379112245
 20
-28580.1015331953
 30
0.0
 40
20.0
  1

  7
Arial
100
AcDbAttributeDefinition
  3
CHÚ Ý 1
  2
#10
 70
0
280
1
 71
1
 72
0
  0
ATTDEF
  5
148
330
127
100
AcDbEntity
  8
0
 62
3
100
AcDbText
 10
19060.29593417999
 20
-28625.68604652386
 30
0.0
 40
20.0
  1

  7
Arial
100
AcDbAttributeDefinition
  3
CHÚ Ý 2
  2
#11
 70
0
280
1
 71
1
 72
0
  0
ATTDEF
  5
149
330
127
100
AcDbEntity
  8
0
 62
3
100
AcDbText
 10
17431.39468632692
 20
-28580.1015331953
 30
0.0
 40
20.0
  1

  7
Arial
100
AcDbAttributeDefinition
  3
KHÁCH HÀNG
  2
#02
 70
0
280
1
 71
1
 72
0
  0
ATTDEF
  5
14A
330
127
100
AcDbEntity
  8
0
 62
3
100
AcDbText
 10
17308.45246357222
 20
-28633.02044838126
 30
0.0
 40
20.0
  1

  7
Arial
100
AcDbAttributeDefinition
  3
NGÀY NHẬN
  2
#05
 70
0
280
1
 71
1
 72
0
  0
ATTDEF
  5
14B
330
127
100
AcDbEntity
  8
0
 62
3
100
AcDbText
 10
17632.65306459898
 20
-28633.73138801003
 30
0.0
 40
20.0
  1

  7
Arial
100
AcDbAttributeDefinition
  3
NGÀY GIAO
  2
#06
 70
0
280
1
 71
1
 72
0
  0
ATTDEF
  5
14C
330
127
100
AcDbEntity
  8
0
 62
3
100
AcDbText
 10
17055.57441422327
 20
-28580.1015331953
 30
0.0
 40
20.0
  1

  7
Arial
100
AcDbAttributeDefinition
  3
THIẾT KẾ
  2
#01
 70
0
280
1
 71
1
 72
0
  0
ATTDEF
  5
14D
330
127
100
AcDbEntity
  8
0
 62
3
100
AcDbText
 10
17024.76529237577
 20
-28634.61999292788
 30
0.0
 40
20.0
  1

  7
Arial
100
AcDbAttributeDefinition
  3
CNC
  2
#04
 70
0
280
1
 71
1
 72
0
  0
ATTDEF
  5
14E
330
127
100
AcDbEntity
  8
0
 62
3
100
AcDbText
 10
19806.4585301708
 20
-28628.91186895216
 30
0.0
 40
20.0
  1

  7
Arial
100
AcDbAttributeDefinition
  3
TỜ
  2
#12
 70
0
280
1
 71
1
 72
0
  0
ENDBLK
  5
129
330
127
100
AcDbEntity
  8
0
100
AcDbBlockEnd
  0
BLOCK
  5
150
330
14F
100
AcDbEntity
  8
0
100
AcDbBlockBegin
  2
SDGFGHGHG
 70
0
 10
0.0
 20
0.0
 30
0.0
  3
SDGFGHGHG
  1

  0
LINE
  5
152
330
14F
100
AcDbEntity
  8
HEATER
100
AcDbLine
 10
860892.9443677951
 20
570760.5213009797
 30
0.0
 11
860892.9443677951
 21
570780.5213009797
 31
0.0
  0
LINE
  5
153
330
14F
100
AcDbEntity
  8
HEATER
100
AcDbLine
 10
860935.944367795
 20
570742.0213009797
 30
0.0
 11
860935.944367795
 21
570784.3053497317
 31
0.0
  0
LINE
  5
154
330
14F
100
AcDbEntity
  8
HEATER
100
AcDbLine
 10
860944.944367795
 20
570742.0213009797
 30
0.0
 11
860944.944367795
 21
570784.3053497317
 31
0.0
  0
ARC
  5
155
330
14F
100
AcDbEntity
  8
HEATER
100
AcDbCircle
 10
860940.444367795
 20
570770.5213009797
 30
0.0
 40
14.5
100
AcDbArc
 50
288.0800126249186
 51
251.9199873760986
  0
LINE
  5
156
330
14F
100
AcDbEntity
  8
HEATER
100
AcDbLine
 10
860935.944367795
 20
570742.0213009797
 30
0.0
 11
860944.944367795
 21
570742.0213009797
 31
0.0
  0
LINE
  5
157
330
14F
100
AcDbEntity
  8
HEATER
100
AcDbLine
 10
860892.9443677951
 20
570780.5213009797
 30
0.0
 11
860931.5694281411
 21
570781.9880113245
 31
0.0
  0
LINE
  5
158
330
14F
100
AcDbEntity
  8
HEATER
100
AcDbLine
 10
860892.9443677951
 20
570760.5213009797
 30
0.0
 11
860931.5694281411
 21
570759.0545906347
 31
0.0
  0
LINE
  5
159
330
14F
100
AcDbEntity
  8
HEATER
100
AcDbLine
 10
860892.9443677951
 20
570771.8975213168
 30
0.0
 11
860906.3296893912
 21
570778.6620310972
 31
0.0
  0
LINE
  5
15A
330
14F
100
AcDbEntity
  8
HEATER
100
AcDbLine
 10
860892.9443677951
 20
570769.1450806425
 30
0.0
 11
860906.3296893912
 21
570762.380570862
 31
0.0
  0
CIRCLE
  5
15B
330
14F
100
AcDbEntity
  8
HEATER
100
AcDbCircle
 10
860940.444367795
 20
570770.5213009797
 30
0.0
 40
3.078158209494111
  0
LINE
  5
15C
330
14F
100
AcDbEntity
  8
HEATER
100
AcDbLine
 10
860939.5447235582
 20
570773.4650567796
 30
0.0
 11
860939.5447235582
 21
570771.2753346086
 31
0.0
  0
LINE
  5
15D
330
14F
100
AcDbEntity
  8
HEATER
100
AcDbLine
 10
860939.5447235582
 20
570769.7672673506
 30
0.0
 11
860939.5447235582
 21
570767.5775451798
 31
0.0
  0
LINE
  5
15E
330
14F
100
AcDbEntity
  8
HEATER
100
AcDbLine
 10
860941.3440120325
 20
570773.4650567796
 30
0.0
 11
860941.3440120325
 21
570771.2753346086
 31
0.0
  0
LINE
  5
15F
330
14F
100
AcDbEntity
  8
HEATER
100
AcDbLine
 10
860941.3440120325
 20
570769.7672673506
 30
0.0
 11
860941.3440120325
 21
570767.5775451798
 31
0.0
  0
LINE
  5
160
330
14F
100
AcDbEntity
  8
HEATER
100
AcDbLine
 10
860937.4599932797
 20
570771.2753346086
 30
0.0
 11
860939.5447235582
 21
570771.2753346086
 31
0.0
  0
LINE
  5
161
330
14F
100
AcDbEntity
  8
HEATER
100
AcDbLine
 10
860941.3440120325
 20
570771.2753346086
 30
0.0
 11
860943.4287423106
 21
570771.2753346086
 31
0.0
  0
LINE
  5
162
330
14F
100
AcDbEntity
  8
HEATER
100
AcDbLine
 10
860937.4599932797
 20
570769.7672673506
 30
0.0
 11
860939.5447235582
 21
570769.7672673506
 31
0.0
  0
LINE
  5
163
330
14F
100
AcDbEntity
  8
HEATER
100
AcDbLine
 10
860941.3440120325
 20
570769.7672673506
 30
0.0
 11
860943.4287423106
 21
570769.7672673506
 31
0.0
  0
ENDBLK
  5
151
330
14F
100
AcDbEntity
  8
0
100
AcDbBlockEnd
  0
BLOCK
  5
165
330
164
100
AcDbEntity
  8
0
100
AcDbBlockBegin
  2
SĐFHGGH
 70
0
 10
0.0
 20
0.0
 30
0.0
  3
SĐFHGGH
  1

  0
ARC
  5
167
330
164
100
AcDbEntity
  8
HEATER
100
AcDbCircle
 10
860940.444367795
 20
570705.4118046993
 30
0.0
 40
12.0
100
AcDbArc
 50
104.4775121859967
 51
165.5224878140032
  0
ARC
  5
168
330
164
100
AcDbEntity
  8
HEATER
100
AcDbCircle
 10
860940.444367795
 20
570705.4118046993
 30
0.0
 40
12.0
100
AcDbArc
 50
194.4775121859968
 51
255.5224878140033
  0
ARC
  5
169
330
164
100
AcDbEntity
  8
HEATER
100
AcDbCircle
 10
860940.444367795
 20
570705.4118046993
 30
0.0
 40
12.0
100
AcDbArc
 50
284.4775121859968
 51
345.5224878140032
  0
ARC
  5
16A
330
164
100
AcDbEntity
  8
HEATER
100
AcDbCircle
 10
860940.444367795
 20
570705.4118046993
 30
0.0
 40
12.0
100
AcDbArc
 50
14.47751218599677
 51
75.52248781400324
  0
LWPOLYLINE
  5
16B
330
164
100
AcDbEntity
  8
HEATER
100
AcDbPolyline
 90
4
 70
0
 10
860943.4443677953
 20
570717.0307547379
 10
860943.4443677953
 20
570718.4118046995
 10
860937.4443677955
 20
570718.4118046995
 10
860937.4443677955
 20
570717.0307547379
  0
LWPOLYLINE
  5
16C
330
164
100
AcDbEntity
  8
HEATER
100
AcDbPolyline
 90
4
 70
0
 10
860943.4443677953
 20
570693.7928546608
 10
860943.4443677953
 20
570692.4118046995
 10
860937.4443677955
 20
570692.4118046995
 10
860937.4443677955
 20
570693.7928546608
  0
LWPOLYLINE
  5
16D
330
164
100
AcDbEntity
  8
HEATER
100
AcDbPolyline
 90
4
 70
0
 10
860952.0633178339
 20
570702.4118046995
 10
860953.4443677956
 20
570702.4118046995
 10
860953.4443677956
 20
570708.4118046993
 10
860952.0633178339
 20
570708.4118046993
  0
LWPOLYLINE
  5
16E
330
164
100
AcDbEntity
  8
HEATER
100
AcDbPolyline
 90
4
 70
0
 10
860928.8254177567
 20
570702.4118046995
 10
860927.4443677953
 20
570702.4118046995
 10
860927.4443677953
 20
570708.4118046993
 10
860928.8254177567
 20
570708.4118046993
  0
ENDBLK
  5
166
330
164
100
AcDbEntity
  8
0
100
AcDbBlockEnd
  0
BLOCK
  5
188
330
187
100
AcDbEntity
  8
0
100
AcDbBlockBegin
  2
*D1
 70
1
 10
0.0
 20
0.0
 30
0.0
  3
*D1
  1

  0
LINE
  5
18A
330
187
100
AcDbEntity
  8
DIM
 62
5
370
9
440
16777216
100
AcDbLine
 10
508.6137630698722
 20
2507.1343310501543
 30
0.0
 11
403.73903797659295
 21
2507.1343310501543
 31
0.0
  0
LINE
  5
18B
330
187
100
AcDbEntity
  8
DIM
 62
5
370
9
440
16777216
100
AcDbLine
 10
508.6137630698722
 20
1307.1343310501543
 30
0.0
 11
403.73903797659295
 21
1307.1343310501543
 31
0.0
  0
LINE
  5
18C
330
187
100
AcDbEntity
  8
DIM
 62
5
370
9
440
16777216
100
AcDbLine
 10
413.7390379765857
 20
2507.1343310501543
 30
0.0
 11
413.7390379765857
 21
1307.1343310501543
 31
0.0
  0
LINE
  5
18D
330
187
100
AcDbEntity
  8
0
  6
ByBlock
 62
0
370
-2
100
AcDbLine
 10
417.7390379765857
 20
2503.1343310501543
 30
0.0
 11
409.7390379765857
 21
2511.1343310501543
 31
0.0
  0
LINE
  5
18E
330
187
100
AcDbEntity
  8
0
  6
ByBlock
 62
0
370
-2
100
AcDbLine
 10
409.7390379765857
 20
1311.1343310501543
 30
0.0
 11
417.7390379765857
 21
1303.1343310501543
 31
0.0
  0
MTEXT
  5
18F
330
187
100
AcDbEntity
  8
DIM
 62
3
440
16777216
100
AcDbMText
 10
390.97471328356187
 20
1907.1343310501543
 30
0.0
 40
25.0
 41
0.0
 46
0.0
 71
5
  1
1200
 11
1e-16
 21
1.0
 31
0.0
  0
POINT
  5
190
330
187
100
AcDbEntity
  8
Defpoints
 62
0
440
16777216
100
AcDbPoint
 10
523.6137630698722
 20
2507.1343310501543
 30
0.0
  0
POINT
  5
191
330
187
100
AcDbEntity
  8
Defpoints
 62
0
440
16777216
100
AcDbPoint
 10
523.6137630698722
 20
1307.1343310501543
 30
0.0
  0
POINT
  5
192
330
187
100
AcDbEntity
  8
Defpoints
 62
0
440
16777216
100
AcDbPoint
 10
413.7390379765857
 20
1307.1343310501543
 30
0.0
  0
ENDBLK
  5
189
330
187
100
AcDbEntity
  8
0
100
AcDbBlockEnd
  0
BLOCK
  5
194
330
193
100
AcDbEntity
  8
0
100
AcDbBlockBegin
  2
*D2
 70
1
 10
0.0
 20
0.0
 30
0.0
  3
*D2
  1

  0
LINE
  5
196
330
193
100
AcDbEntity
  8
0
 62
5
370
9
 48
3.0
440
16777216
100
AcDbLine
 10
523.6137630698722
 20
2522.1343310501543
 30
0.0
 11
523.6137630698722
 21
2565.522354558547
 31
0.0
  0
LINE
  5
197
330
193
100
AcDbEntity
  8
0
 62
5
370
9
 48
3.0
440
16777216
100
AcDbLine
 10
1323.613763069865
 20
2522.1343310501543
 30
0.0
 11
1323.613763069865
 21
2565.522354558547
 31
0.0
  0
LINE
  5
198
330
193
100
AcDbEntity
  8
0
 62
5
370
9
 48
3.0
440
16777216
100
AcDbLine
 10
523.6137630698722
 20
2555.522354558547
 30
0.0
 11
1323.613763069865
 21
2555.522354558547
 31
0.0
  0
LINE
  5
199
330
193
100
AcDbEntity
  8
0
  6
ByBlock
 62
0
370
-2
100
AcDbLine
 10
527.6137630698722
 20
2559.522354558547
 30
0.0
 11
519.6137630698722
 21
2551.522354558547
 31
0.0
  0
LINE
  5
19A
330
193
100
AcDbEntity
  8
0
  6
ByBlock
 62
0
370
-2
100
AcDbLine
 10
1319.613763069865
 20
2551.522354558547
 30
0.0
 11
1327.613763069865
 21
2559.522354558547
 31
0.0
  0
MTEXT
  5
19B
330
193
100
AcDbEntity
  8
0
 62
3
 48
3.0
440
16777216
100
AcDbMText
 10
923.613763069865
 20
2578.286679251556
 30
0.0
 40
25.0
 41
0.0
 46
0.0
 71
5
  1
800
  0
POINT
  5
19C
330
193
100
AcDbEntity
  8
Defpoints
 62
0
 48
3.0
440
16777216
100
AcDbPoint
 10
523.6137630698722
 20
2507.1343310501543
 30
0.0
  0
POINT
  5
19D
330
193
100
AcDbEntity
  8
Defpoints
 62
0
 48
3.0
440
16777216
100
AcDbPoint
 10
1323.613763069865
 20
2507.1343310501543
 30
0.0
  0
POINT
  5
19E
330
193
100
AcDbEntity
  8
Defpoints
 62
0
 48
3.0
440
16777216
100
AcDbPoint
 10
1323.613763069865
 20
2555.522354558547
 30
0.0
  0
ENDBLK
  5
195
330
193
100
AcDbEntity
  8
0
100
AcDbBlockEnd
  0
BLOCK
  5
1A0
330
19F
100
AcDbEntity
  8
0
100
AcDbBlockBegin
  2
*D3
 70
1
 10
0.0
 20
0.0
 30
0.0
  3
*D3
  1

  0
LINE
  5
1A2
330
19F
100
AcDbEntity
  8
0
 62
5
370
9
 48
3.0
440
16777216
100
AcDbLine
 10
1539.587485957003
 20
2522.1343310501543
 30
0.0
 11
1539.587485957003
 21
2568.807458330266
 31
0.0
  0
LINE
  5
1A3
330
19F
100
AcDbEntity
  8
0
 62
5
370
9
 48
3.0
440
16777216
100
AcDbLine
 10
2339.5874859570104
 20
2522.1343310501543
 30
0.0
 11
2339.5874859570104
 21
2568.807458330266
 31
0.0
  0
LINE
  5
1A4
330
19F
100
AcDbEntity
  8
0
 62
5
370
9
 48
3.0
440
16777216
100
AcDbLine
 10
1539.587485957003
 20
2558.807458330266
 30
0.0
 11
2339.5874859570104
 21
2558.807458330266
 31
0.0
  0
LINE
  5
1A5
330
19F
100
AcDbEntity
  8
0
  6
ByBlock
 62
0
370
-2
100
AcDbLine
 10
1543.587485957003
 20
2562.807458330266
 30
0.0
 11
1535.587485957003
 21
2554.807458330266
 31
0.0
  0
LINE
  5
1A6
330
19F
100
AcDbEntity
  8
0
  6
ByBlock
 62
0
370
-2
100
AcDbLine
 10
2335.5874859570104
 20
2554.807458330266
 30
0.0
 11
2343.5874859570104
 21
2562.807458330266
 31
0.0
  0
MTEXT
  5
1A7
330
19F
100
AcDbEntity
  8
0
 62
3
 48
3.0
440
16777216
100
AcDbMText
 10
1939.5874859570104
 20
2581.5717830233625
 30
0.0
 40
25.0
 41
0.0
 46
0.0
 71
5
  1
800
  0
POINT
  5
1A8
330
19F
100
AcDbEntity
  8
Defpoints
 62
0
 48
3.0
440
16777216
100
AcDbPoint
 10
1539.587485957003
 20
2507.1343310501543
 30
0.0
  0
POINT
  5
1A9
330
19F
100
AcDbEntity
  8
Defpoints
 62
0
 48
3.0
440
16777216
100
AcDbPoint
 10
2339.5874859570104
 20
2507.1343310501543
 30
0.0
  0
POINT
  5
1AA
330
19F
100
AcDbEntity
  8
Defpoints
 62
0
 48
3.0
440
16777216
100
AcDbPoint
 10
2339.5874859570104
 20
2558.807458330266
 30
0.0
  0
ENDBLK
  5
1A1
330
19F
100
AcDbEntity
  8
0
100
AcDbBlockEnd
  0
BLOCK
  5
1AC
330
1AB
100
AcDbEntity
  8
0
100
AcDbBlockBegin
  2
*D4
 70
1
 10
0.0
 20
0.0
 30
0.0
  3
*D4
  1

  0
LINE
  5
1AE
330
1AB
100
AcDbEntity
  8
0
 62
5
370
9
 48
3.0
440
16777216
100
AcDbLine
 10
3196.8847140614453
 20
2522.1343310501543
 30
0.0
 11
3196.8847140614453
 21
2582.852041875449
 31
0.0
  0
LINE
  5
1AF
330
1AB
100
AcDbEntity
  8
0
 62
5
370
9
 48
3.0
440
16777216
100
AcDbLine
 10
3596.8847140614453
 20
2522.1343310501543
 30
0.0
 11
3596.8847140614453
 21
2582.852041875449
 31
0.0
  0
LINE
  5
1B0
330
1AB
100
AcDbEntity
  8
0
 62
5
370
9
 48
3.0
440
16777216
100
AcDbLine
 10
3196.8847140614453
 20
2572.852041875449
 30
0.0
 11
3596.8847140614453
 21
2572.852041875449
 31
0.0
  0
LINE
  5
1B1
330
1AB
100
AcDbEntity
  8
0
  6
ByBlock
 62
0
370
-2
100
AcDbLine
 10
3200.8847140614453
 20
2576.852041875449
 30
0.0
 11
3192.8847140614453
 21
2568.852041875449
 31
0.0
  0
LINE
  5
1B2
330
1AB
100
AcDbEntity
  8
0
  6
ByBlock
 62
0
370
-2
100
AcDbLine
 10
3592.8847140614453
 20
2568.852041875449
 30
0.0
 11
3600.8847140614453
 21
2576.852041875449
 31
0.0
  0
MTEXT
  5
1B3
330
1AB
100
AcDbEntity
  8
0
 62
3
 48
3.0
440
16777216
100
AcDbMText
 10
3396.8847140614307
 20
2595.616366568458
 30
0.0
 40
25.0
 41
0.0
 46
0.0
 71
5
  1
400
  0
POINT
  5
1B4
330
1AB
100
AcDbEntity
  8
Defpoints
 62
0
 48
3.0
440
16777216
100
AcDbPoint
 10
3196.8847140614453
 20
2507.1343310501543
 30
0.0
  0
POINT
  5
1B5
330
1AB
100
AcDbEntity
  8
Defpoints
 62
0
 48
3.0
440
16777216
100
AcDbPoint
 10
3596.8847140614453
 20
2507.1343310501543
 30
0.0
  0
POINT
  5
1B6
330
1AB
100
AcDbEntity
  8
Defpoints
 62
0
 48
3.0
440
16777216
100
AcDbPoint
 10
3596.8847140614453
 20
2572.852041875449
 30
0.0
  0
ENDBLK
  5
1AD
330
1AB
100
AcDbEntity
  8
0
100
AcDbBlockEnd
  0
BLOCK
  5
1B8
330
1B7
100
AcDbEntity
  8
0
100
AcDbBlockBegin
  2
*D5
 70
1
 10
0.0
 20
0.0
 30
0.0
  3
*D5
  1

  0
LINE
  5
1BA
330
1B7
100
AcDbEntity
  8
0
 62
5
370
9
 48
3.0
440
16777216
100
AcDbLine
 10
2354.5874859570104
 20
663.3662386176584
 30
0.0
 11
2425.9767621937717
 21
663.3662386176584
 31
0.0
  0
LINE
  5
1BB
330
1B7
100
AcDbEntity
  8
0
 62
5
370
9
 48
3.0
440
16777216
100
AcDbLine
 10
2351.628758392806
 20
733.3662386176584
 30
0.0
 11
2425.9767621937717
 21
733.3662386176584
 31
0.0
  0
LINE
  5
1BC
330
1B7
100
AcDbEntity
  8
0
 62
5
370
9
 48
3.0
440
16777216
100
AcDbLine
 10
2415.9767621937644
 20
663.3662386176584
 30
0.0
 11
2415.9767621937644
 21
733.3662386176584
 31
0.0
  0
LINE
  5
1BD
330
1B7
100
AcDbEntity
  8
0
  6
ByBlock
 62
0
370
-2
100
AcDbLine
 10
2411.9767621937644
 20
667.3662386176584
 30
0.0
 11
2419.9767621937644
 21
659.3662386176584
 31
0.0
  0
LINE
  5
1BE
330
1B7
100
AcDbEntity
  8
0
  6
ByBlock
 62
0
370
-2
100
AcDbLine
 10
2419.9767621937644
 20
729.3662386176584
 30
0.0
 11
2411.9767621937644
 21
737.3662386176584
 31
0.0
  0
MTEXT
  5
1BF
330
1B7
100
AcDbEntity
  8
0
 62
3
 48
3.0
440
16777216
100
AcDbMText
 10
2393.2124375007406
 20
698.3662386177457
 30
0.0
 40
25.0
 41
0.0
 46
0.0
 71
5
  1
70
 11
1e-16
 21
1.0
 31
0.0
  0
POINT
  5
1C0
330
1B7
100
AcDbEntity
  8
Defpoints
 62
0
 48
3.0
440
16777216
100
AcDbPoint
 10
2339.5874859570104
 20
663.3662386176584
 30
0.0
  0
POINT
  5
1C1
330
1B7
100
AcDbEntity
  8
Defpoints
 62
0
 48
3.0
440
16777216
100
AcDbPoint
 10
2336.628758392806
 20
733.3662386176584
 30
0.0
  0
POINT
  5
1C2
330
1B7
100
AcDbEntity
  8
Defpoints
 62
0
 48
3.0
440
16777216
100
AcDbPoint
 10
2415.9767621937644
 20
733.3662386176584
 30
0.0
  0
ENDBLK
  5
1B9
330
1B7
100
AcDbEntity
  8
0
100
AcDbBlockEnd
  0
BLOCK
  5
1C4
330
1C3
100
AcDbEntity
  8
0
100
AcDbBlockBegin
  2
*D6
 70
1
 10
0.0
 20
0.0
 30
0.0
  3
*D6
  1

  0
LINE
  5
1C6
330
1C3
100
AcDbEntity
  8
0
 62
5
370
9
 48
3.0
440
16777216
100
AcDbLine
 10
2575.592743299254
 20
2522.1343310501543
 30
0.0
 11
2575.592743299254
 21
2582.852041875449
 31
0.0
  0
LINE
  5
1C7
330
1C3
100
AcDbEntity
  8
0
 62
5
370
9
 48
3.0
440
16777216
100
AcDbLine
 10
2975.592743299254
 20
2522.1343310501543
 30
0.0
 11
2975.592743299254
 21
2582.852041875449
 31
0.0
  0
LINE
  5
1C8
330
1C3
100
AcDbEntity
  8
0
 62
5
370
9
 48
3.0
440
16777216
100
AcDbLine
 10
2575.592743299254
 20
2572.852041875449
 30
0.0
 11
2975.592743299254
 21
2572.852041875449
 31
0.0
  0
LINE
  5
1C9
330
1C3
100
AcDbEntity
  8
0
  6
ByBlock
 62
0
370
-2
100
AcDbLine
 10
2579.592743299254
 20
2576.852041875449
 30
0.0
 11
2571.592743299254
 21
2568.852041875449
 31
0.0
  0
LINE
  5
1CA
330
1C3
100
AcDbEntity
  8
0
  6
ByBlock
 62
0
370
-2
100
AcDbLine
 10
2971.592743299254
 20
2568.852041875449
 30
0.0
 11
2979.592743299254
 21
2576.852041875449
 31
0.0
  0
MTEXT
  5
1CB
330
1C3
100
AcDbEntity
  8
0
 62
3
 48
3.0
440
16777216
100
AcDbMText
 10
2775.5927432992394
 20
2595.616366568458
 30
0.0
 40
25.0
 41
0.0
 46
0.0
 71
5
  1
400
  0
POINT
  5
1CC
330
1C3
100
AcDbEntity
  8
Defpoints
 62
0
 48
3.0
440
16777216
100
AcDbPoint
 10
2575.592743299254
 20
2507.1343310501543
 30
0.0
  0
POINT
  5
1CD
330
1C3
100
AcDbEntity
  8
Defpoints
 62
0
 48
3.0
440
16777216
100
AcDbPoint
 10
2975.592743299254
 20
2507.1343310501543
 30
0.0
  0
POINT
  5
1CE
330
1C3
100
AcDbEntity
  8
Defpoints
 62
0
 48
3.0
440
16777216
100
AcDbPoint
 10
2975.592743299254
 20
2572.852041875449
 30
0.0
  0
ENDBLK
  5
1C5
330
1C3
100
AcDbEntity
  8
0
100
AcDbBlockEnd
  0
BLOCK
  5
1D0
330
1CF
100
AcDbEntity
  8
0
100
AcDbBlockBegin
  2
*D7
 70
1
 10
0.0
 20
0.0
 30
0.0
  3
*D7
  1

  0
LINE
  5
1D2
330
1CF
100
AcDbEntity
  8
0
 62
5
370
9
 48
3.0
440
16777216
100
AcDbLine
 10
508.6137630698722
 20
1036.3662386177457
 30
0.0
 11
451.5337377649703
 21
1036.3662386177457
 31
0.0
  0
LINE
  5
1D3
330
1CF
100
AcDbEntity
  8
0
 62
5
370
9
 48
3.0
440
16777216
100
AcDbLine
 10
508.6137630698722
 20
636.3662386176584
 30
0.0
 11
451.5337377649703
 21
636.3662386176584
 31
0.0
  0
LINE
  5
1D4
330
1CF
100
AcDbEntity
  8
0
 62
5
370
9
 48
3.0
440
16777216
100
AcDbLine
 10
461.5337377649703
 20
1036.3662386177457
 30
0.0
 11
461.5337377649703
 21
636.3662386176584
 31
0.0
  0
LINE
  5
1D5
330
1CF
100
AcDbEntity
  8
0
  6
ByBlock
 62
0
370
-2
100
AcDbLine
 10
465.5337377649703
 20
1032.3662386177457
 30
0.0
 11
457.5337377649703
 21
1040.3662386177457
 31
0.0
  0
LINE
  5
1D6
330
1CF
100
AcDbEntity
  8
0
  6
ByBlock
 62
0
370
-2
100
AcDbLine
 10
457.5337377649703
 20
640.3662386176584
 30
0.0
 11
465.5337377649703
 21
632.3662386176584
 31
0.0
  0
MTEXT
  5
1D7
330
1CF
100
AcDbEntity
  8
0
 62
3
 48
3.0
440
16777216
100
AcDbMText
 10
438.76941307195375
 20
836.3662386177457
 30
0.0
 40
25.0
 41
0.0
 46
0.0
 71
5
  1
400
 11
1e-16
 21
1.0
 31
0.0
  0
POINT
  5
1D8
330
1CF
100
AcDbEntity
  8
Defpoints
 62
0
 48
3.0
440
16777216
100
AcDbPoint
 10
523.6137630698722
 20
1036.3662386177457
 30
0.0
  0
POINT
  5
1D9
330
1CF
100
AcDbEntity
  8
Defpoints
 62
0
 48
3.0
440
16777216
100
AcDbPoint
 10
523.6137630698722
 20
636.3662386176584
 30
0.0
  0
POINT
  5
1DA
330
1CF
100
AcDbEntity
  8
Defpoints
 62
0
 48
3.0
440
16777216
100
AcDbPoint
 10
461.5337377649703
 20
636.3662386176584
 30
0.0
  0
ENDBLK
  5
1D1
330
1CF
100
AcDbEntity
  8
0
100
AcDbBlockEnd
  0
ENDSEC
  0
SECTION
  2
ENTITIES
  0
LWPOLYLINE
  5
2F
330
17
100
AcDbEntity
  8
0
 62
7
100
AcDbPolyline
 90
4
 70
1
 10
1539.587485957003
 20
2507.1343310501543
 10
2339.5874859570104
 20
2507.1343310501543
 10
2339.5874859570104
 20
1307.1343310501543
 10
1539.587485957003
 20
1307.1343310501543
  0
LWPOLYLINE
  5
30
330
17
100
AcDbEntity
  8
0
 62
7
100
AcDbPolyline
 90
4
 70
1
 10
1577.5874859570104
 20
2469.1343310501543
 10
2301.5874859570104
 20
2469.1343310501543
 10
2301.5874859570104
 20
1345.1343310501543
 10
1577.5874859570104
 20
1345.1343310501543
  0
LWPOLYLINE
  5
31
330
17
100
AcDbEntity
  8
0
  6
HIDDEN2
 62
6
100
AcDbPolyline
 90
4
 70
1
 10
1585.0874859570104
 20
2461.6343310501543
 10
2294.087485957003
 20
2461.6343310501543
 10
2294.087485957003
 20
1352.6343310501543
 10
1585.0874859570104
 20
1352.6343310501543
  0
LWPOLYLINE
  5
32
330
17
100
AcDbEntity
  8
0
 62
6
100
AcDbPolyline
 90
4
 70
1
 10
1583.587485957003
 20
2463.1343310501543
 10
2295.587485957003
 20
2463.1343310501543
 10
2295.587485957003
 20
1351.1343310501543
 10
1583.587485957003
 20
1351.1343310501543
  0
LWPOLYLINE
  5
33
330
17
100
AcDbEntity
  8
0
 62
3
100
AcDbPolyline
 90
4
 70
1
 10
1604.0874859570104
 20
2442.6343310501543
 10
2275.087485957003
 20
2442.6343310501543
 10
2275.087485957003
 20
1371.6343310501543
 10
1604.0874859570104
 20
1371.6343310501543
  0
LWPOLYLINE
  5
34
330
17
100
AcDbEntity
  8
0
  6
HIDDEN2
 62
7
100
AcDbPolyline
 90
4
 70
1
 10
1541.087485957003
 20
2505.6343310501543
 10
2338.087485957003
 20
2505.6343310501543
 10
2338.087485957003
 20
1308.6343310501543
 10
1541.087485957003
 20
1308.6343310501543
  0
LWPOLYLINE
  5
35
330
17
100
AcDbEntity
  8
0
 62
7
100
AcDbPolyline
 90
4
 70
1
 10
523.6137630698722
 20
2507.1343310501543
 10
1323.613763069865
 20
2507.1343310501543
 10
1323.613763069865
 20
1307.1343310501543
 10
523.6137630698722
 20
1307.1343310501543
  0
LWPOLYLINE
  5
36
330
17
100
AcDbEntity
  8
0
  6
HIDDEN2
 62
7
100
AcDbPolyline
 90
4
 70
1
 10
525.1137630698722
 20
2505.6343310501543
 10
1322.113763069865
 20
2505.6343310501543
 10
1322.113763069865
 20
1308.6343310501543
 10
525.1137630698722
 20
1308.6343310501543
  0
DIMENSION
  5
37
330
17
100
AcDbEntity
  8
DIM
 62
7
100
AcDbDimension
280
0
  2
*D1
  3
Dim-25
 10
413.7390379765857
 20
1307.1343310501543
 30
0.0
 11
390.97471328356187
 21
1907.1343310501543
 31
0.0
 70
32
 71
5
 42
1200.0
 73
0
 74
0
 75
0
100
AcDbAlignedDimension
 13
523.6137630698722
 23
2507.1343310501543
 33
0.0
 14
523.6137630698722
 24
1307.1343310501543
 34
0.0
 50
90.0
100
AcDbRotatedDimension
  0
LWPOLYLINE
  5
3C
330
17
100
AcDbEntity
  8
0
 62
2
100
AcDbPolyline
 90
4
 70
1
 10
2317.587485956996
 20
2424.1343310501543
 10
2330.587485956996
 20
2424.1343310501543
 10
2330.587485956996
 20
2415.1343310501543
 10
2317.587485956996
 20
2415.1343310501543
  0
LWPOLYLINE
  5
3D
330
17
100
AcDbEntity
  8
0
 62
2
100
AcDbPolyline
 90
4
 70
1
 10
2317.587485956996
 20
2399.1343310501543
 10
2330.587485956996
 20
2399.1343310501543
 10
2330.587485956996
 20
2390.1343310501543
 10
2317.587485956996
 20
2390.1343310501543
  0
INSERT
  5
3E
330
17
100
AcDbEntity
  8
0
 62
7
100
AcDbBlockReference
  2
HL044-1.3-C
 10
2340.587485956996
 20
2387.1343310501543
 30
0.0
  0
LWPOLYLINE
  5
40
330
17
100
AcDbEntity
  8
0
 62
2
100
AcDbPolyline
 90
4
 70
1
 10
2317.587485956996
 20
1390.1343310501543
 10
2330.587485956996
 20
1390.1343310501543
 10
2330.587485956996
 20
1399.1343310501543
 10
2317.587485956996
 20
1399.1343310501543
  0
LWPOLYLINE
  5
41
330
17
100
AcDbEntity
  8
0
 62
2
100
AcDbPolyline
 90
4
 70
1
 10
2317.587485956996
 20
1415.1343310501543
 10
2330.587485956996
 20
1415.1343310501543
 10
2330.587485956996
 20
1424.1343310501543
 10
2317.587485956996
 20
1424.1343310501543
  0
INSERT
  5
42
330
17
100
AcDbEntity
  8
0
 62
7
100
AcDbBlockReference
  2
HL044-1.3-C
 10
2340.587485956996
 20
1427.1343310501543
 30
0.0
 41
-1.0
 50
180.0
  0
INSERT
  5
44
330
17
100
AcDbEntity
  8
0
 62
7
100
AcDbBlockReference
  2
AB301-2-1
 10
605.6137630698795
 20
1942.3843310501543
 30
0.0
  0
INSERT
  5
46
330
17
100
AcDbEntity
  8
0
 62
7
100
AcDbBlockReference
  2
HL044-1.3-C
 10
1324.6137630698504
 20
2387.1343310501543
 30
0.0
  0
INSERT
  5
48
330
17
100
AcDbEntity
  8
0
 62
7
100
AcDbBlockReference
  2
HL044-1.3-C
 10
1324.6137630698504
 20
1427.1343310501543
 30
0.0
 41
-1.0
 50
180.0
  0
CIRCLE
  5
4A
330
17
100
AcDbEntity
  8
0
 62
2
100
AcDbCircle
 10
1635.0874859569958
 20
2381.6343310501543
 30
0.0
 40
11.0
  0
INSERT
  5
4B
330
17
100
AcDbEntity
  8
0
 62
7
100
AcDbBlockReference
  2
MS722
 10
1635.087485957003
 20
2381.6343310501543
 30
0.0
  0
CIRCLE
  5
4D
330
17
100
AcDbEntity
  8
0
 62
2
100
AcDbCircle
 10
1635.0874859569958
 20
1432.6343310502416
 30
0.0
 40
11.0
  0
INSERT
  5
4E
330
17
100
AcDbEntity
  8
0
 62
7
100
AcDbBlockReference
  2
MS722
 10
1635.087485957003
 20
1432.6343310501543
 30
0.0
  0
LWPOLYLINE
  5
50
330
17
100
AcDbEntity
  8
0
 62
7
100
AcDbPolyline
 90
18
 70
0
 10
1576.087485957003
 20
1034.8662386176584
 10
1541.087485957003
 20
1034.8662386176584
 10
1541.087485957003
 20
664.8662386177457
 10
1576.087485957003
 20
664.8662386177457
 10
1576.087485957003
 20
679.8662386176584
 10
1577.5874859570104
 20
679.8662386176584
 10
1577.5874859570104
 20
663.3662386176584
 10
1539.587485957003
 20
663.3662386176584
 10
1539.587485957003
 20
1036.3662386177457
 10
2339.5874859570104
 20
1036.3662386177457
 10
2339.5874859570104
 20
663.3662386176584
 10
2301.5874859570104
 20
663.3662386176584
 10
2301.5874859570104
 20
679.8662386176584
 10
2303.087485957003
 20
679.8662386176584
 10
2303.087485957003
 20
664.8662386177457
 10
2338.087485957003
 20
664.8662386177457
 10
2338.087485957003
 20
1034.8662386176584
 10
2303.087485957003
 20
1034.8662386176584
  0
LWPOLYLINE
  5
51
330
17
100
AcDbEntity
  8
0
 62
3
100
AcDbPolyline
 90
8
 70
1
 10
1542.5874859570104
 20
749.8662386176584
 10
1542.5874859570104
 20
734.8662386176584
 10
1602.587485957003
 20
734.8662386176584
 10
1602.587485957003
 20
749.8662386176584
 10
1604.0874859570104
 20
749.8662386176584
 10
1604.0874859570104
 20
733.3662386176584
 10
1541.087485957003
 20
733.3662386176584
 10
1541.087485957003
 20
749.8662386176584
  0
LWPOLYLINE
  5
52
330
17
100
AcDbEntity
  8
0
 62
3
100
AcDbPolyline
 90
8
 70
1
 10
2336.587485957003
 20
749.8662386176584
 10
2336.587485957003
 20
734.8662386176584
 10
2276.587485957003
 20
734.8662386176584
 10
2276.587485957003
 20
749.8662386176584
 10
2275.087485957003
 20
749.8662386176584
 10
2275.087485957003
 20
733.3662386176584
 10
2338.087485957003
 20
733.3662386176584
 10
2338.087485957003
 20
749.8662386176584
  0
LWPOLYLINE
  5
53
330
17
100
AcDbEntity
  8
0
 62
6
100
AcDbPolyline
 90
12
 70
1
 10
2284.087485957003
 20
730.8662386177457
 10
2294.087485957003
 20
730.8662386177457
 10
2294.087485957003
 20
714.8662386176584
 10
1585.0874859570104
 20
714.8662386176584
 10
1585.0874859570104
 20
730.8662386177457
 10
1595.087485957003
 20
730.8662386177457
 10
1595.087485957003
 20
732.3662386177457
 10
1583.587485957003
 20
732.3662386177457
 10
1583.587485957003
 20
713.3662386177457
 10
2295.587485957003
 20
713.3662386177457
 10
2295.587485957003
 20
732.3662386177457
 10
2284.087485957003
 20
732.3662386177457
  0
INSERT
  5
54
330
17
100
AcDbEntity
  8
0
 62
7
100
AcDbBlockReference
  2
HL003-2-3
 10
2280.587485957003
 20
733.3662386176584
 30
0.0
 41
-1.0
 50
180.0
  0
LWPOLYLINE
  5
56
330
17
100
AcDbEntity
  8
0
 62
7
100
AcDbPolyline
 90
12
 70
1
 10
2324.0874859570104
 20
660.8662386177457
 10
2336.087485957003
 20
660.8662386177457
 10
2336.087485957003
 20
637.8662386176584
 10
1541.087485957003
 20
637.8662386176584
 10
1541.087485957003
 20
660.8662386177457
 10
1553.087485957003
 20
660.8662386177457
 10
1553.087485957003
 20
662.3662386176584
 10
1539.587485957003
 20
662.3662386176584
 10
1539.587485957003
 20
636.3662386176584
 10
2337.587485957003
 20
636.3662386176584
 10
2337.587485957003
 20
662.3662386176584
 10
2324.0874859570104
 20
662.3662386176584
  0
INSERT
  5
57
330
17
100
AcDbEntity
  8
0
 62
7
100
AcDbBlockReference
  2
HL044-1.3-B
 10
2337.587485957003
 20
636.3662386176584
 30
0.0
  0
LWPOLYLINE
  5
59
330
17
100
AcDbEntity
  8
0
 62
7
100
AcDbPolyline
 90
16
 70
1
 10
3556.3847140614307
 20
2470.6343310501543
 10
3568.3847140614453
 20
2470.6343310501543
 10
3568.3847140614453
 20
2505.6343310501543
 10
3198.3847140614307
 20
2505.6343310501543
 10
3198.3847140614307
 20
1308.6343310501543
 10
3568.3847140614453
 20
1308.6343310501543
 10
3568.3847140614453
 20
1343.6343310501543
 10
3556.3847140614307
 20
1343.6343310501543
 10
3556.3847140614307
 20
1345.1343310501543
 10
3569.8847140614453
 20
1345.1343310501543
 10
3569.8847140614453
 20
1307.1343310501543
 10
3196.8847140614453
 20
1307.1343310501543
 10
3196.8847140614453
 20
2507.1343310501543
 10
3569.8847140614453
 20
2507.1343310501543
 10
3569.8847140614453
 20
2469.1343310501543
 10
3556.3847140614307
 20
2469.1343310501543
  0
LWPOLYLINE
  5
5A
330
17
100
AcDbEntity
  8
0
 62
8
100
AcDbPolyline
 90
4
 70
1
 10
3194.8847140614307
 20
1357.1343310501543
 10
3194.8847140614307
 20
1307.1343310501543
 10
3196.8847140614453
 20
1307.1343310501543
 10
3196.8847140614453
 20
1357.1343310501543
  0
LWPOLYLINE
  5
5B
330
17
100
AcDbEntity
  8
0
 62
7
100
AcDbPolyline
 90
12
 70
1
 10
3572.3847140614453
 20
2493.6343310501543
 10
3572.3847140614453
 20
2505.6343310501543
 10
3595.3847140614453
 20
2505.6343310501543
 10
3595.3847140614453
 20
1308.6343310501543
 10
3572.3847140614453
 20
1308.6343310501543
 10
3572.3847140614453
 20
1320.6343310501543
 10
3570.8847140614453
 20
1320.6343310501543
 10
3570.8847140614453
 20
1307.1343310501543
 10
3596.8847140614453
 20
1307.1343310501543
 10
3596.8847140614453
 20
2507.1343310501543
 10
3570.8847140614453
 20
2507.1343310501543
 10
3570.8847140614453
 20
2493.6343310501543
  0
LWPOLYLINE
  5
5C
330
17
100
AcDbEntity
  8
0
 62
2
100
AcDbPolyline
 90
4
 70
1
 10
2294.087485957054
 20
2366.1343310501543
 10
2283.0874859570613
 20
2366.1343310501543
 10
2283.0874859570613
 20
2357.1343310501543
 10
2294.087485957054
 20
2357.1343310501543
  0
INSERT
  5
5D
330
17
100
AcDbEntity
  8
0
 62
7
100
AcDbBlockReference
  2
HL003-2-2
 10
2280.587485957003
 20
2355.6343310501543
 30
0.0
  0
LWPOLYLINE
  5
5F
330
17
100
AcDbEntity
  8
0
 62
2
100
AcDbPolyline
 90
4
 70
1
 10
2294.087485957054
 20
1448.1343310501543
 10
2283.0874859570613
 20
1448.1343310501543
 10
2283.0874859570613
 20
1457.1343310501543
 10
2294.087485957054
 20
1457.1343310501543
  0
INSERT
  5
60
330
17
100
AcDbEntity
  8
0
 62
7
100
AcDbBlockReference
  2
HL003-2-2
 10
2280.587485957003
 20
1458.6343310501543
 30
0.0
 41
-1.0
 50
180.0
  0
INSERT
  5
62
330
17
100
AcDbEntity
  8
0
 62
3
100
AcDbBlockReference
 66
1
  2
KHUNG CHUẨN
 10
-23598.721902337813
 20
39967.79797076725
 30
0.0
 41
1.394785406504524
 42
1.394785406504524
 43
1.394785406504524
  0
ATTRIB
  5
63
330
62
100
AcDbEntity
  8
0
 62
3
100
AcDbText
 10
1550.0623064277243
 20
104.68943540655891
 30
0.0
 40
27.89570813040001
  1
VÕ TỦ
  7
Arial
100
AcDbAttribute
  2
#03
 70
0
280
1
 71
1
 72
0
  0
ATTRIB
  5
64
330
62
100
AcDbEntity
  8
0
 62
3
100
AcDbText
 10
1510.2159589037256
 20
28.483974780654535
 30
0.0
 40
27.89570813040001
  1
1200x800x400
  7
Arial
100
AcDbAttribute
  2
#07
 70
0
280
1
 71
1
 72
0
  0
ATTRIB
  5
65
330
62
100
AcDbEntity
  8
0
 62
3
100
AcDbText
 10
2555.8734101728915
 20
104.68943540655891
 30
0.0
 40
27.89570813040001
  1
3
  7
Arial
100
AcDbAttribute
  2
#08
 70
0
280
1
 71
1
 72
0
  0
ATTRIB
  5
66
330
62
100
AcDbEntity
  8
0
 62
3
100
AcDbText
 10
2558.8674423580524
 20
31.469286481355084
 30
0.0
 40
27.89570813040001
  1
1.5
  7
Arial
100
AcDbAttribute
  2
#09
 70
0
280
1
 71
1
 72
0
  0
ATTRIB
  5
67
330
62
100
AcDbEntity
  8
0
 62
3
100
AcDbText
 10
2992.5603079788416
 20
104.68943540655891
 30
0.0
 40
27.89570813040001
  1
THANH GÁ, KHÔNG ĐẾ
  7
Arial
100
AcDbAttribute
  2
#10
 70
0
280
1
 71
1
 72
0
  0
ATTRIB
  5
68
330
62
100
AcDbEntity
  8
0
 62
3
100
AcDbText
 10
2986.3007106089644
 20
41.10882145256619
 30
0.0
 40
27.89570813040001
  1
TỦ trong nhà 2 LỚP CÁNH
  7
Arial
100
AcDbAttribute
  2
#11
 70
0
280
1
 71
1
 72
0
  0
ATTRIB
  5
69
330
62
100
AcDbEntity
  8
0
 62
3
100
AcDbText
 10
714.3330214412708
 20
104.68943540655891
 30
0.0
 40
27.89570813040001
  1

  7
Arial
100
AcDbAttribute
  2
#02
 70
0
280
1
 71
1
 72
0
  0
ATTRIB
  5
6A
330
62
100
AcDbEntity
  8
0
 62
3
100
AcDbText
 10
542.8550032978892
 20
30.878904776240233
 30
0.0
 40
27.89570813040001
  1

  7
Arial
100
AcDbAttribute
  2
#05
 70
0
280
1
 71
1
 72
0
  0
ATTRIB
  5
6B
330
62
100
AcDbEntity
  8
0
 62
3
100
AcDbText
 10
995.0452703950214
 20
29.887296557164518
 30
0.0
 40
27.89570813040001
  1

  7
Arial
100
AcDbAttribute
  2
#06
 70
0
280
1
 71
1
 72
0
  0
ATTRIB
  5
6C
330
62
100
AcDbEntity
  8
0
 62
3
100
AcDbText
 10
190.14439043674065
 20
104.68943540655891
 30
0.0
 40
27.89570813040001
  1

  7
Arial
100
AcDbAttribute
  2
#01
 70
0
280
1
 71
1
 72
0
  0
ATTRIB
  5
6D
330
62
100
AcDbEntity
  8
0
 62
3
100
AcDbText
 10
147.17227689614083
 20
28.647883385565365
 30
0.0
 40
27.89570813040001
  1
............
  7
Arial
100
AcDbAttribute
  2
#04
 70
0
280
1
 71
1
 72
0
  0
ATTRIB
  5
6E
330
62
100
AcDbEntity
  8
0
 62
3
100
AcDbText
 10
4027.0374103880313
 20
36.60949140554294
 30
0.0
 40
27.89570813040001
  1
.......
  7
Arial
100
AcDbAttribute
  2
#12
 70
0
280
1
 71
1
 72
0
  0
SEQEND
  5
6F
330
17
100
AcDbEntity
  8
0
 62
3
  0
DIMENSION
  5
70
330
17
100
AcDbEntity
  8
0
 62
2
 48
3.0
100
AcDbDimension
280
0
  2
*D2
  3
Dim-25
 10
1323.613763069865
 20
2555.522354558547
 30
0.0
 11
923.613763069865
 21
2578.286679251556
 31
0.0
 70
32
 71
5
 42
800.0
 73
0
 74
0
 75
0
100
AcDbAlignedDimension
 13
523.6137630698722
 23
2507.1343310501543
 33
0.0
 14
1323.613763069865
 24
2507.1343310501543
 34
0.0
 50
0.0
100
AcDbRotatedDimension
  0
DIMENSION
  5
71
330
17
100
AcDbEntity
  8
0
 62
2
 48
3.0
100
AcDbDimension
280
0
  2
*D3
  3
Dim-25
 10
2339.5874859570104
 20
2558.807458330266
 30
0.0
 11
1939.5874859570104
 21
2581.5717830233625
 31
0.0
 70
32
 71
5
 42
800.0
 73
0
 74
0
 75
0
100
AcDbAlignedDimension
 13
1539.587485957003
 23
2507.1343310501543
 33
0.0
 14
2339.5874859570104
 24
2507.1343310501543
 34
0.0
 50
0.0
100
AcDbRotatedDimension
  0
DIMENSION
  5
72
330
17
100
AcDbEntity
  8
0
 62
2
 48
3.0
100
AcDbDimension
280
0
  2
*D4
  3
Dim-25
 10
3596.8847140614453
 20
2572.852041875449
 30
0.0
 11
3396.8847140614307
 21
2595.616366568458
 31
0.0
 70
32
 71
5
 42
400.0
 73
0
 74
0
 75
0
100
AcDbAlignedDimension
 13
3196.8847140614453
 23
2507.1343310501543
 33
0.0
 14
3596.8847140614453
 24
2507.1343310501543
 34
0.0
 50
0.0
100
AcDbRotatedDimension
  0
DIMENSION
  5
73
330
17
100
AcDbEntity
  8
0
 62
2
 48
3.0
100
AcDbDimension
280
0
  2
*D5
  3
Dim-25
 10
2415.9767621937644
 20
733.3662386176584
 30
0.0
 11
2393.2124375007406
 21
698.3662386177457
 31
0.0
 70
32
 71
5
 42
70.0
 73
0
 74
0
 75
0
100
AcDbAlignedDimension
 13
2339.5874859570104
 23
663.3662386176584
 33
0.0
 14
2336.628758392806
 24
733.3662386176584
 34
0.0
 50
90.0
100
AcDbRotatedDimension
  0
LWPOLYLINE
  5
74
330
17
100
AcDbEntity
  8
0
 62
8
100
AcDbPolyline
 90
4
 70
1
 10
1541.087485957003
 20
1018.3662386177457
 10
1574.087485957003
 20
1018.3662386177457
 10
1574.087485957003
 20
749.8662386176584
 10
1541.087485957003
 20
749.8662386176584
  0
LWPOLYLINE
  5
75
330
17
100
AcDbEntity
  8
0
 62
8
100
AcDbPolyline
 90
6
 70
1
 10
1615.5874859570104
 20
821.5188870361599
 10
1574.087485957003
 20
821.5188870361599
 10
1574.087485957003
 20
913.0188870361599
 10
1575.587485957003
 20
913.0188870361599
 10
1575.587485957003
 20
823.0188870361599
 10
1615.5874859570104
 20
823.0188870361599
  0
LWPOLYLINE
  5
76
330
17
100
AcDbEntity
  8
0
 62
8
100
AcDbPolyline
 90
4
 70
1
 10
1579.587485957003
 20
838.0188870361599
 10
2299.587485957003
 20
838.0188870361599
 10
2299.587485957003
 20
823.0188870361599
 10
1579.587485957003
 20
823.0188870361599
  0
LWPOLYLINE
  5
77
330
17
100
AcDbEntity
  8
0
 62
8
100
AcDbPolyline
 90
4
 70
1
 10
2338.087485957003
 20
1018.3662386177457
 10
2305.0874859570104
 20
1018.3662386177457
 10
2305.0874859570104
 20
749.8662386176584
 10
2338.087485957003
 20
749.8662386176584
  0
LWPOLYLINE
  5
78
330
17
100
AcDbEntity
  8
0
 62
8
100
AcDbPolyline
 90
6
 70
1
 10
2263.587485957003
 20
821.5188870361599
 10
2305.0874859570104
 20
821.5188870361599
 10
2305.0874859570104
 20
913.0188870361599
 10
2303.587485957003
 20
913.0188870361599
 10
2303.587485957003
 20
823.0188870361599
 10
2263.587485957003
 20
823.0188870361599
  0
LINE
  5
79
330
17
100
AcDbEntity
  8
0
 62
7
100
AcDbLine
 10
1576.087485957003
 20
1034.8662386176584
 30
0.0
 11
1576.087485957003
 21
1024.8662386176584
 31
0.0
  0
LINE
  5
7A
330
17
100
AcDbEntity
  8
0
 62
7
100
AcDbLine
 10
1577.5874859570104
 20
1036.3662386177457
 30
0.0
 11
1577.5874859570104
 21
1024.8662386176584
 31
0.0
  0
LINE
  5
7B
330
17
100
AcDbEntity
  8
0
 62
7
100
AcDbLine
 10
1579.087485957003
 20
1034.8662386176584
 30
0.0
 11
1579.087485957003
 21
1024.8662386176584
 31
0.0
  0
LINE
  5
7C
330
17
100
AcDbEntity
  8
0
 62
7
100
AcDbLine
 10
1576.087485957003
 20
1024.8662386176584
 30
0.0
 11
1579.087485957003
 21
1024.8662386176584
 31
0.0
  0
LINE
  5
7D
330
17
100
AcDbEntity
  8
0
 62
7
100
AcDbLine
 10
2303.087485957003
 20
1034.8662386176584
 30
0.0
 11
2303.087485957003
 21
1024.8662386176584
 31
0.0
  0
LINE
  5
7E
330
17
100
AcDbEntity
  8
0
 62
7
100
AcDbLine
 10
2301.5874859570104
 20
1036.3662386177457
 30
0.0
 11
2301.5874859570104
 21
1024.8662386176584
 31
0.0
  0
LINE
  5
7F
330
17
100
AcDbEntity
  8
0
 62
7
100
AcDbLine
 10
2300.087485957003
 20
1034.8662386176584
 30
0.0
 11
2300.087485957003
 21
1024.8662386176584
 31
0.0
  0
LINE
  5
80
330
17
100
AcDbEntity
  8
0
 62
7
100
AcDbLine
 10
2303.087485957003
 20
1024.8662386176584
 30
0.0
 11
2300.087485957003
 21
1024.8662386176584
 31
0.0
  0
LWPOLYLINE
  5
81
330
17
100
AcDbEntity
  8
0
 62
7
100
AcDbPolyline
 90
2
 70
0
 10
2300.087485957003
 20
1034.8662386176584
 10
1579.087485957003
 20
1034.8662386176584
  0
LWPOLYLINE
  5
82
330
17
100
AcDbEntity
  8
0
 62
7
100
AcDbPolyline
 90
18
 70
0
 10
560.113763069865
 20
1034.8662386176584
 10
525.1137630698722
 20
1034.8662386176584
 10
525.1137630698722
 20
664.8662386177457
 10
560.113763069865
 20
664.8662386177457
 10
560.113763069865
 20
679.8662386176584
 10
561.613763069865
 20
679.8662386176584
 10
561.613763069865
 20
663.3662386176584
 10
523.6137630698722
 20
663.3662386176584
 10
523.6137630698722
 20
1036.3662386177457
 10
1323.613763069865
 20
1036.3662386177457
 10
1323.613763069865
 20
663.3662386176584
 10
1285.613763069865
 20
663.3662386176584
 10
1285.613763069865
 20
679.8662386176584
 10
1287.1137630698722
 20
679.8662386176584
 10
1287.1137630698722
 20
664.8662386177457
 10
1322.113763069865
 20
664.8662386177457
 10
1322.113763069865
 20
1034.8662386176584
 10
1287.1137630698722
 20
1034.8662386176584
  0
LWPOLYLINE
  5
83
330
17
100
AcDbEntity
  8
0
 62
7
100
AcDbPolyline
 90
2
 70
0
 10
1284.113763069865
 20
1034.8662386176584
 10
563.1137630698722
 20
1034.8662386176584
  0
LWPOLYLINE
  5
84
330
17
100
AcDbEntity
  8
0
 62
7
100
AcDbPolyline
 90
12
 70
1
 10
1308.113763069865
 20
660.8662386177457
 10
1320.1137630698722
 20
660.8662386177457
 10
1320.1137630698722
 20
637.8662386176584
 10
525.1137630698722
 20
637.8662386176584
 10
525.1137630698722
 20
660.8662386177457
 10
537.113763069865
 20
660.8662386177457
 10
537.113763069865
 20
662.3662386176584
 10
523.6137630698722
 20
662.3662386176584
 10
523.6137630698722
 20
636.3662386176584
 10
1321.6137630698722
 20
636.3662386176584
 10
1321.6137630698722
 20
662.3662386176584
 10
1308.113763069865
 20
662.3662386176584
  0
INSERT
  5
85
330
17
100
AcDbEntity
  8
0
 62
7
100
AcDbBlockReference
  2
HL044-1.3-B
 10
1321.6137630698722
 20
636.3662386176584
 30
0.0
  0
LINE
  5
87
330
17
100
AcDbEntity
  8
0
 62
7
100
AcDbLine
 10
560.113763069865
 20
1034.8662386176584
 30
0.0
 11
560.113763069865
 21
1024.8662386176584
 31
0.0
  0
LINE
  5
88
330
17
100
AcDbEntity
  8
0
 62
7
100
AcDbLine
 10
561.613763069865
 20
1036.3662386177457
 30
0.0
 11
561.613763069865
 21
1024.8662386176584
 31
0.0
  0
LINE
  5
89
330
17
100
AcDbEntity
  8
0
 62
7
100
AcDbLine
 10
563.1137630698722
 20
1034.8662386176584
 30
0.0
 11
563.1137630698722
 21
1024.8662386176584
 31
0.0
  0
LINE
  5
8A
330
17
100
AcDbEntity
  8
0
 62
7
100
AcDbLine
 10
560.113763069865
 20
1024.8662386176584
 30
0.0
 11
563.1137630698722
 21
1024.8662386176584
 31
0.0
  0
LINE
  5
8B
330
17
100
AcDbEntity
  8
0
 62
7
100
AcDbLine
 10
1287.1137630698722
 20
1034.8662386176584
 30
0.0
 11
1287.1137630698722
 21
1024.8662386176584
 31
0.0
  0
LINE
  5
8C
330
17
100
AcDbEntity
  8
0
 62
7
100
AcDbLine
 10
1285.613763069865
 20
1036.3662386177457
 30
0.0
 11
1285.613763069865
 21
1024.8662386176584
 31
0.0
  0
LINE
  5
8D
330
17
100
AcDbEntity
  8
0
 62
7
100
AcDbLine
 10
1284.113763069865
 20
1034.8662386176584
 30
0.0
 11
1284.113763069865
 21
1024.8662386176584
 31
0.0
  0
LINE
  5
8E
330
17
100
AcDbEntity
  8
0
 62
7
100
AcDbLine
 10
1287.1137630698722
 20
1024.8662386176584
 30
0.0
 11
1284.113763069865
 21
1024.8662386176584
 31
0.0
  0
LWPOLYLINE
  5
8F
330
17
100
AcDbEntity
  8
0
 62
7
100
AcDbPolyline
 90
4
 70
1
 10
1321.6137630698722
 20
662.3662386176584
 10
523.6137630698722
 20
662.3662386176584
 10
523.6137630698722
 20
636.3662386176584
 10
1321.6137630698722
 20
636.3662386176584
  0
LWPOLYLINE
  5
90
330
17
100
AcDbEntity
  8
0
  6
HIDDEN
 62
2
100
AcDbPolyline
 90
4
 70
1
 10
773.613763069865
 20
947.8662386176584
 10
773.613763069865
 20
807.8662386176584
 10
1073.6137630698722
 20
807.8662386176584
 10
1073.6137630698722
 20
947.8662386176584
  0
LWPOLYLINE
  5
91
330
17
100
AcDbEntity
  8
0
100
AcDbPolyline
 90
4
 70
1
 10
758.613763069865
 20
962.8662386176584
 10
758.613763069865
 20
792.8662386176584
 10
1088.6137630698722
 20
792.8662386176584
 10
1088.6137630698722
 20
962.8662386176584
  0
LWPOLYLINE
  5
92
330
17
100
AcDbEntity
  8
0
 62
2
100
AcDbPolyline
 90
4
 70
1
 10
770.512624402174
 20
950.9673772853566
 10
761.5126244021812
 20
950.9673772853566
 10
761.5126244021812
 20
959.967377285444
 10
770.512624402174
 20
959.967377285444
  0
CIRCLE
  5
93
330
17
100
AcDbEntity
  8
0
 62
7
100
AcDbCircle
 10
766.012624402174
 20
955.4673772853566
 30
0.0
 40
4.0
  0
LWPOLYLINE
  5
94
330
17
100
AcDbEntity
  8
0
 62
2
100
AcDbPolyline
 90
4
 70
1
 10
770.512624402174
 20
804.7650999500474
 10
761.5126244021812
 20
804.7650999500474
 10
761.5126244021812
 20
795.7650999499601
 10
770.512624402174
 20
795.7650999499601
  0
CIRCLE
  5
95
330
17
100
AcDbEntity
  8
0
 62
7
100
AcDbCircle
 10
766.012624402174
 20
800.2650999500474
 30
0.0
 40
4.0
  0
LWPOLYLINE
  5
96
330
17
100
AcDbEntity
  8
0
 62
2
100
AcDbPolyline
 90
4
 70
1
 10
1076.714901737556
 20
950.9673772853566
 10
1085.714901737556
 20
950.9673772853566
 10
1085.714901737556
 20
959.967377285444
 10
1076.714901737556
 20
959.967377285444
  0
CIRCLE
  5
97
330
17
100
AcDbEntity
  8
0
 62
7
100
AcDbCircle
 10
1081.214901737556
 20
955.4673772853566
 30
0.0
 40
4.0
  0
LWPOLYLINE
  5
98
330
17
100
AcDbEntity
  8
0
 62
2
100
AcDbPolyline
 90
4
 70
1
 10
1076.714901737556
 20
804.7650999500474
 10
1085.714901737556
 20
804.7650999500474
 10
1085.714901737556
 20
795.7650999499601
 10
1076.714901737556
 20
795.7650999499601
  0
CIRCLE
  5
99
330
17
100
AcDbEntity
  8
0
 62
7
100
AcDbCircle
 10
1081.214901737556
 20
800.2650999500474
 30
0.0
 40
4.0
  0
LWPOLYLINE
  5
9A
330
17
100
AcDbEntity
  8
0
 62
2
100
AcDbPolyline
 90
6
 70
1
 10
3355.3847140614453
 20
2374.6343310501543
 10
3291.3847140614453
 20
2374.6343310501543
 42
0.4142135623730951
 10
3283.3847140614453
 20
2366.6343310501543
 10
3283.3847140614453
 20
2363.6343310501543
 10
3363.3847140614453
 20
2363.6343310501543
 10
3363.3847140614453
 20
2366.6343310501543
 42
0.4142135623730951
  0
LWPOLYLINE
  5
9B
330
17
100
AcDbEntity
  8
0
 62
2
100
AcDbPolyline
 90
6
 70
1
 10
3355.3847140614453
 20
2343.6343310501543
 10
3291.3847140614453
 20
2343.6343310501543
 42
0.4142135623730951
 10
3283.3847140614453
 20
2335.6343310501543
 10
3283.3847140614453
 20
2332.6343310501543
 10
3363.3847140614453
 20
2332.6343310501543
 10
3363.3847140614453
 20
2335.6343310501543
 42
0.4142135623730951
  0
LWPOLYLINE
  5
9C
330
17
100
AcDbEntity
  8
0
 62
2
100
AcDbPolyline
 90
6
 70
1
 10
3355.3847140614453
 20
2405.6343310501543
 10
3291.3847140614453
 20
2405.6343310501543
 42
0.4142135623730951
 10
3283.3847140614453
 20
2397.6343310501543
 10
3283.3847140614453
 20
2394.6343310501543
 10
3363.3847140614453
 20
2394.6343310501543
 10
3363.3847140614453
 20
2397.6343310501543
 42
0.4142135623730951
  0
LWPOLYLINE
  5
9D
330
17
100
AcDbEntity
  8
0
 62
2
100
AcDbPolyline
 90
6
 70
1
 10
3355.3847140614453
 20
2312.6343310501543
 10
3291.3847140614453
 20
2312.6343310501543
 42
0.4142135623730951
 10
3283.3847140614453
 20
2304.6343310501543
 10
3283.3847140614453
 20
2301.6343310501543
 10
3363.3847140614453
 20
2301.6343310501543
 10
3363.3847140614453
 20
2304.6343310501543
 42
0.4142135623730951
  0
LWPOLYLINE
  5
9E
330
17
100
AcDbEntity
  8
0
 62
2
100
AcDbPolyline
 90
6
 70
1
 10
3355.3847140614453
 20
2281.6343310501543
 10
3291.3847140614453
 20
2281.6343310501543
 42
0.4142135623730951
 10
3283.3847140614453
 20
2273.6343310501543
 10
3283.3847140614453
 20
2270.6343310501543
 10
3363.3847140614453
 20
2270.6343310501543
 10
3363.3847140614453
 20
2273.6343310501543
 42
0.4142135623730951
  0
LWPOLYLINE
  5
9F
330
17
100
AcDbEntity
  8
0
 62
2
100
AcDbPolyline
 90
6
 70
1
 10
3355.3847140614453
 20
2250.6343310501543
 10
3291.3847140614453
 20
2250.6343310501543
 42
0.4142135623730951
 10
3283.3847140614453
 20
2242.6343310501543
 10
3283.3847140614453
 20
2239.6343310501543
 10
3363.3847140614453
 20
2239.6343310501543
 10
3363.3847140614453
 20
2242.6343310501543
 42
0.4142135623730951
  0
LWPOLYLINE
  5
A0
330
17
100
AcDbEntity
  8
0
 62
2
100
AcDbPolyline
 90
6
 70
1
 10
3475.3847140614453
 20
2374.6343310501543
 10
3411.3847140614453
 20
2374.6343310501543
 42
0.4142135623730951
 10
3403.3847140614453
 20
2366.6343310501543
 10
3403.3847140614453
 20
2363.6343310501543
 10
3483.3847140614453
 20
2363.6343310501543
 10
3483.3847140614453
 20
2366.6343310501543
 42
0.4142135623730951
  0
LWPOLYLINE
  5
A1
330
17
100
AcDbEntity
  8
0
 62
2
100
AcDbPolyline
 90
6
 70
1
 10
3475.3847140614453
 20
2343.6343310501543
 10
3411.3847140614453
 20
2343.6343310501543
 42
0.4142135623730951
 10
3403.3847140614453
 20
2335.6343310501543
 10
3403.3847140614453
 20
2332.6343310501543
 10
3483.3847140614453
 20
2332.6343310501543
 10
3483.3847140614453
 20
2335.6343310501543
 42
0.4142135623730951
  0
LWPOLYLINE
  5
A2
330
17
100
AcDbEntity
  8
0
 62
2
100
AcDbPolyline
 90
6
 70
1
 10
3475.3847140614453
 20
2405.6343310501543
 10
3411.3847140614453
 20
2405.6343310501543
 42
0.4142135623730951
 10
3403.3847140614453
 20
2397.6343310501543
 10
3403.3847140614453
 20
2394.6343310501543
 10
3483.3847140614453
 20
2394.6343310501543
 10
3483.3847140614453
 20
2397.6343310501543
 42
0.4142135623730951
  0
LWPOLYLINE
  5
A3
330
17
100
AcDbEntity
  8
0
 62
2
100
AcDbPolyline
 90
6
 70
1
 10
3475.3847140614453
 20
2312.6343310501543
 10
3411.3847140614453
 20
2312.6343310501543
 42
0.4142135623730951
 10
3403.3847140614453
 20
2304.6343310501543
 10
3403.3847140614453
 20
2301.6343310501543
 10
3483.3847140614453
 20
2301.6343310501543
 10
3483.3847140614453
 20
2304.6343310501543
 42
0.4142135623730951
  0
LWPOLYLINE
  5
A4
330
17
100
AcDbEntity
  8
0
 62
2
100
AcDbPolyline
 90
6
 70
1
 10
3475.3847140614453
 20
2281.6343310501543
 10
3411.3847140614453
 20
2281.6343310501543
 42
0.4142135623730951
 10
3403.3847140614453
 20
2273.6343310501543
 10
3403.3847140614453
 20
2270.6343310501543
 10
3483.3847140614453
 20
2270.6343310501543
 10
3483.3847140614453
 20
2273.6343310501543
 42
0.4142135623730951
  0
LWPOLYLINE
  5
A5
330
17
100
AcDbEntity
  8
0
 62
2
100
AcDbPolyline
 90
6
 70
1
 10
3475.3847140614453
 20
2250.6343310501543
 10
3411.3847140614453
 20
2250.6343310501543
 42
0.4142135623730951
 10
3403.3847140614453
 20
2242.6343310501543
 10
3403.3847140614453
 20
2239.6343310501543
 10
3483.3847140614453
 20
2239.6343310501543
 10
3483.3847140614453
 20
2242.6343310501543
 42
0.4142135623730951
  0
LWPOLYLINE
  5
A6
330
17
100
AcDbEntity
  8
0
 62
2
100
AcDbPolyline
 90
6
 70
1
 10
3355.3847140614453
 20
1542.1343310501543
 10
3291.3847140614453
 20
1542.1343310501543
 42
0.4142135623730951
 10
3283.3847140614453
 20
1534.1343310501543
 10
3283.3847140614453
 20
1531.1343310501543
 10
3363.3847140614453
 20
1531.1343310501543
 10
3363.3847140614453
 20
1534.1343310501543
 42
0.4142135623730951
  0
LWPOLYLINE
  5
A7
330
17
100
AcDbEntity
  8
0
 62
2
100
AcDbPolyline
 90
6
 70
1
 10
3355.3847140614453
 20
1511.1343310501543
 10
3291.3847140614453
 20
1511.1343310501543
 42
0.4142135623730951
 10
3283.3847140614453
 20
1503.1343310501543
 10
3283.3847140614453
 20
1500.1343310501543
 10
3363.3847140614453
 20
1500.1343310501543
 10
3363.3847140614453
 20
1503.1343310501543
 42
0.4142135623730951
  0
LWPOLYLINE
  5
A8
330
17
100
AcDbEntity
  8
0
 62
2
100
AcDbPolyline
 90
6
 70
1
 10
3355.3847140614453
 20
1573.1343310501543
 10
3291.3847140614453
 20
1573.1343310501543
 42
0.4142135623730951
 10
3283.3847140614453
 20
1565.1343310501543
 10
3283.3847140614453
 20
1562.1343310501543
 10
3363.3847140614453
 20
1562.1343310501543
 10
3363.3847140614453
 20
1565.1343310501543
 42
0.4142135623730951
  0
LWPOLYLINE
  5
A9
330
17
100
AcDbEntity
  8
0
 62
2
100
AcDbPolyline
 90
6
 70
1
 10
3355.3847140614453
 20
1480.1343310501543
 10
3291.3847140614453
 20
1480.1343310501543
 42
0.4142135623730951
 10
3283.3847140614453
 20
1472.1343310501543
 10
3283.3847140614453
 20
1469.1343310501543
 10
3363.3847140614453
 20
1469.1343310501543
 10
3363.3847140614453
 20
1472.1343310501543
 42
0.4142135623730951
  0
LWPOLYLINE
  5
AA
330
17
100
AcDbEntity
  8
0
 62
2
100
AcDbPolyline
 90
6
 70
1
 10
3355.3847140614453
 20
1449.1343310501543
 10
3291.3847140614453
 20
1449.1343310501543
 42
0.4142135623730951
 10
3283.3847140614453
 20
1441.1343310501543
 10
3283.3847140614453
 20
1438.1343310501543
 10
3363.3847140614453
 20
1438.1343310501543
 10
3363.3847140614453
 20
1441.1343310501543
 42
0.4142135623730951
  0
LWPOLYLINE
  5
AB
330
17
100
AcDbEntity
  8
0
 62
2
100
AcDbPolyline
 90
6
 70
1
 10
3355.3847140614453
 20
1418.1343310501543
 10
3291.3847140614453
 20
1418.1343310501543
 42
0.4142135623730951
 10
3283.3847140614453
 20
1410.1343310501543
 10
3283.3847140614453
 20
1407.1343310501543
 10
3363.3847140614453
 20
1407.1343310501543
 10
3363.3847140614453
 20
1410.1343310501543
 42
0.4142135623730951
  0
LWPOLYLINE
  5
AC
330
17
100
AcDbEntity
  8
0
 62
2
100
AcDbPolyline
 90
6
 70
1
 10
3475.3847140614453
 20
1542.1343310501543
 10
3411.3847140614453
 20
1542.1343310501543
 42
0.4142135623730951
 10
3403.3847140614453
 20
1534.1343310501543
 10
3403.3847140614453
 20
1531.1343310501543
 10
3483.3847140614453
 20
1531.1343310501543
 10
3483.3847140614453
 20
1534.1343310501543
 42
0.4142135623730951
  0
LWPOLYLINE
  5
AD
330
17
100
AcDbEntity
  8
0
 62
2
100
AcDbPolyline
 90
6
 70
1
 10
3475.3847140614453
 20
1511.1343310501543
 10
3411.3847140614453
 20
1511.1343310501543
 42
0.4142135623730951
 10
3403.3847140614453
 20
1503.1343310501543
 10
3403.3847140614453
 20
1500.1343310501543
 10
3483.3847140614453
 20
1500.1343310501543
 10
3483.3847140614453
 20
1503.1343310501543
 42
0.4142135623730951
  0
LWPOLYLINE
  5
AE
330
17
100
AcDbEntity
  8
0
 62
2
100
AcDbPolyline
 90
6
 70
1
 10
3475.3847140614453
 20
1573.1343310501543
 10
3411.3847140614453
 20
1573.1343310501543
 42
0.4142135623730951
 10
3403.3847140614453
 20
1565.1343310501543
 10
3403.3847140614453
 20
1562.1343310501543
 10
3483.3847140614453
 20
1562.1343310501543
 10
3483.3847140614453
 20
1565.1343310501543
 42
0.4142135623730951
  0
LWPOLYLINE
  5
AF
330
17
100
AcDbEntity
  8
0
 62
2
100
AcDbPolyline
 90
6
 70
1
 10
3475.3847140614453
 20
1480.1343310501543
 10
3411.3847140614453
 20
1480.1343310501543
 42
0.4142135623730951
 10
3403.3847140614453
 20
1472.1343310501543
 10
3403.3847140614453
 20
1469.1343310501543
 10
3483.3847140614453
 20
1469.1343310501543
 10
3483.3847140614453
 20
1472.1343310501543
 42
0.4142135623730951
  0
LWPOLYLINE
  5
B0
330
17
100
AcDbEntity
  8
0
 62
2
100
AcDbPolyline
 90
6
 70
1
 10
3475.3847140614453
 20
1449.1343310501543
 10
3411.3847140614453
 20
1449.1343310501543
 42
0.4142135623730951
 10
3403.3847140614453
 20
1441.1343310501543
 10
3403.3847140614453
 20
1438.1343310501543
 10
3483.3847140614453
 20
1438.1343310501543
 10
3483.3847140614453
 20
1441.1343310501543
 42
0.4142135623730951
  0
LWPOLYLINE
  5
B1
330
17
100
AcDbEntity
  8
0
 62
2
100
AcDbPolyline
 90
6
 70
1
 10
3475.3847140614453
 20
1418.1343310501543
 10
3411.3847140614453
 20
1418.1343310501543
 42
0.4142135623730951
 10
3403.3847140614453
 20
1410.1343310501543
 10
3403.3847140614453
 20
1407.1343310501543
 10
3483.3847140614453
 20
1407.1343310501543
 10
3483.3847140614453
 20
1410.1343310501543
 42
0.4142135623730951
  0
LWPOLYLINE
  5
B2
330
17
100
AcDbEntity
  8
0
 62
7
100
AcDbPolyline
 90
16
 70
1
 10
2935.0927432992394
 20
2470.6343310501543
 10
2947.0927432992394
 20
2470.6343310501543
 10
2947.0927432992394
 20
2505.6343310501543
 10
2577.0927432992394
 20
2505.6343310501543
 10
2577.0927432992394
 20
1308.6343310501543
 10
2947.0927432992394
 20
1308.6343310501543
 10
2947.0927432992394
 20
1343.6343310501543
 10
2935.0927432992394
 20
1343.6343310501543
 10
2935.0927432992394
 20
1345.1343310501543
 10
2948.592743299254
 20
1345.1343310501543
 10
2948.592743299254
 20
1307.1343310501543
 10
2575.592743299254
 20
1307.1343310501543
 10
2575.592743299254
 20
2507.1343310501543
 10
2948.592743299254
 20
2507.1343310501543
 10
2948.592743299254
 20
2469.1343310501543
 10
2935.0927432992394
 20
2469.1343310501543
  0
LWPOLYLINE
  5
B3
330
17
100
AcDbEntity
  8
0
 62
3
100
AcDbPolyline
 90
8
 70
1
 10
2865.092743299254
 20
1310.1343310501543
 10
2877.092743299254
 20
1310.1343310501543
 10
2877.092743299254
 20
1370.1343310501543
 10
2865.092743299254
 20
1370.1343310501543
 10
2865.092743299254
 20
1371.6343310501543
 10
2878.5927432992394
 20
1371.6343310501543
 10
2878.5927432992394
 20
1308.6343310501543
 10
2865.092743299254
 20
1308.6343310501543
  0
LWPOLYLINE
  5
B4
330
17
100
AcDbEntity
  8
0
 62
3
100
AcDbPolyline
 90
8
 70
1
 10
2865.092743299254
 20
2504.1343310501543
 10
2877.092743299254
 20
2504.1343310501543
 10
2877.092743299254
 20
2444.1343310501543
 10
2865.092743299254
 20
2444.1343310501543
 10
2865.092743299254
 20
2442.6343310501543
 10
2878.5927432992394
 20
2442.6343310501543
 10
2878.5927432992394
 20
2505.6343310501543
 10
2865.092743299254
 20
2505.6343310501543
  0
LWPOLYLINE
  5
B5
330
17
100
AcDbEntity
  8
0
 62
6
100
AcDbPolyline
 90
12
 70
1
 10
2881.092743299254
 20
2451.6343310501543
 10
2881.092743299254
 20
2461.6343310501543
 10
2897.0927432992394
 20
2461.6343310501543
 10
2897.0927432992394
 20
1352.6343310501543
 10
2881.092743299254
 20
1352.6343310501543
 10
2881.092743299254
 20
1362.6343310501543
 10
2879.592743299254
 20
1362.6343310501543
 10
2879.592743299254
 20
1351.1343310501543
 10
2898.592743299254
 20
1351.1343310501543
 10
2898.592743299254
 20
2463.1343310501543
 10
2879.592743299254
 20
2463.1343310501543
 10
2879.592743299254
 20
2451.6343310501543
  0
LWPOLYLINE
  5
B6
330
17
100
AcDbEntity
  8
0
 62
7
100
AcDbPolyline
 90
12
 70
1
 10
2951.0927432992394
 20
2493.6343310501543
 10
2951.0927432992394
 20
2505.6343310501543
 10
2974.0927432992394
 20
2505.6343310501543
 10
2974.0927432992394
 20
1308.6343310501543
 10
2951.0927432992394
 20
1308.6343310501543
 10
2951.0927432992394
 20
1320.6343310501543
 10
2949.592743299254
 20
1320.6343310501543
 10
2949.592743299254
 20
1307.1343310501543
 10
2975.592743299254
 20
1307.1343310501543
 10
2975.592743299254
 20
2507.1343310501543
 10
2949.592743299254
 20
2507.1343310501543
 10
2949.592743299254
 20
2493.6343310501543
  0
DIMENSION
  5
B7
330
17
100
AcDbEntity
  8
0
 62
2
 48
3.0
100
AcDbDimension
280
0
  2
*D6
  3
Dim-25
 10
2975.592743299254
 20
2572.852041875449
 30
0.0
 11
2775.5927432992394
 21
2595.616366568458
 31
0.0
 70
32
 71
5
 42
400.0
 73
0
 74
0
 75
0
100
AcDbAlignedDimension
 13
2575.592743299254
 23
2507.1343310501543
 33
0.0
 14
2975.592743299254
 24
2507.1343310501543
 34
0.0
 50
0.0
100
AcDbRotatedDimension
  0
MTEXT
  5
B8
330
17
100
AcDbEntity
  8
0
 62
2
100
AcDbMText
 10
951.486147719479
 20
1245.3697693565628
 30
0.0
 40
39.0
 41
1025.000000000014
 46
100.0000000000031
 71
5
 72
5
  1
Mặt cánh ngoài
  0
MTEXT
  5
B9
330
17
100
AcDbEntity
  8
0
 62
2
100
AcDbMText
 10
1961.5765892784548
 20
1258.361571119167
 30
0.0
 40
39.0
 41
775.0000000000146
 46
100.0000000000031
 71
5
 72
5
  1
mặt cánh trong
  0
MTEXT
  5
BA
330
17
100
AcDbEntity
  8
0
 62
2
100
AcDbMText
 10
2768.169674387711
 20
1241.450873467751
 30
0.0
 40
39.0
 41
975.0000000000146
 46
100.0000000000031
 71
5
 72
5
  1
mặt cắt đứng
  0
MTEXT
  5
BB
330
17
100
AcDbEntity
  8
0
 62
2
100
AcDbMText
 10
3407.84294414788
 20
1214.2109253715607
 30
0.0
 40
39.0
 41
775.0000000000146
 46
100.0000000000031
 71
5
 72
5
  1
Hông tủ
  0
MTEXT
  5
BC
330
17
100
AcDbEntity
  8
0
 62
2
100
AcDbMText
 10
944.2570024272936
 20
550.4533115332597
 30
0.0
 40
39.0
 41
775.0000000000146
 46
100.0000000000031
 71
5
 72
5
  1
Mặt nóc, đáy
  0
MTEXT
  5
BD
330
17
100
AcDbEntity
  8
0
 62
2
100
AcDbMText
 10
1991.6429814228832
 20
563.8849053044396
 30
0.0
 40
39.0
 41
775.0000000000146
 46
100.0000000000031
 71
5
 72
5
  1
Mặt cắt ngang
  0
DIMENSION
  5
BE
330
17
100
AcDbEntity
  8
0
 62
2
 48
3.0
100
AcDbDimension
280
0
  2
*D7
  3
Dim-25
 10
461.5337377649703
 20
636.3662386176584
 30
0.0
 11
438.76941307195375
 21
836.3662386177457
 31
0.0
 70
32
 71
5
 42
400.0
 73
0
 74
0
 75
0
100
AcDbAlignedDimension
 13
523.6137630698722
 23
1036.3662386177457
 33
0.0
 14
523.6137630698722
 24
636.3662386176584
 34
0.0
 50
90.0
100
AcDbRotatedDimension
  0
ENDSEC
  0
SECTION
  2
OBJECTS
  0
DICTIONARY
  5
A
330
0
100
AcDbDictionary
281
1
  3
ACAD_COLOR
350
B
  3
ACAD_GROUP
350
C
  3
ACAD_LAYOUT
350
D
  3
ACAD_MATERIAL
350
E
  3
ACAD_MLEADERSTYLE
350
F
  3
ACAD_MLINESTYLE
350
10
  3
ACAD_PLOTSETTINGS
350
11
  3
ACAD_PLOTSTYLENAME
350
12
  3
ACAD_SCALELIST
350
14
  3
ACAD_TABLESTYLE
350
15
  3
ACAD_VISUALSTYLE
350
16
  3
EZDXF_META
350
2D
  0
DICTIONARY
  5
B
330
A
100
AcDbDictionary
281
1
  0
DICTIONARY
  5
C
330
A
100
AcDbDictionary
281
1
  0
DICTIONARY
  5
D
330
A
100
AcDbDictionary
281
1
  3
Model
350
1A
  3
Layout1
350
1E
  0
DICTIONARY
  5
E
330
A
100
AcDbDictionary
281
1
  3
ByBlock
350
1F
  3
ByLayer
350
20
  3
Global
350
21
  0
DICTIONARY
  5
F
330
A
100
AcDbDictionary
281
1
  3
Standard
350
2C
  0
DICTIONARY
  5
10
330
A
100
AcDbDictionary
281
1
  3
Standard
350
22
  0
DICTIONARY
  5
11
330
A
100
AcDbDictionary
281
1
  0
ACDBDICTIONARYWDFLT
  5
12
330
A
100
AcDbDictionary
281
1
  3
Normal
350
13
100
AcDbDictionaryWithDefault
340
13
  0
ACDBPLACEHOLDER
  5
13
330
12
  0
DICTIONARY
  5
14
330
A
100
AcDbDictionary
281
1
  0
DICTIONARY
  5
15
330
A
100
AcDbDictionary
281
1
  0
DICTIONARY
  5
16
330
A
100
AcDbDictionary
281
1
  0
LAYOUT
  5
1A
330
D
100
AcDbPlotSettings
  1

  4
A3
  6

 40
7.5
 41
20.0
 42
7.5
 43
20.0
 44
420.0
 45
297.0
 46
0.0
 47
0.0
 48
0.0
 49
0.0
140
0.0
141
0.0
142
1.0
143
1.0
 70
1024
 72
1
 73
0
 74
5
  7

 75
16
 76
0
 77
2
 78
300
147
1.0
148
0.0
149
0.0
100
AcDbLayout
  1
Model
 70
1
 71
0
 10
0.0
 20
0.0
 11
420.0
 21
297.0
 12
0.0
 22
0.0
 32
0.0
 14
1e+20
 24
1e+20
 34
1e+20
 15
-1e+20
 25
-1e+20
 35
-1e+20
146
0.0
 13
0.0
 23
0.0
 33
0.0
 16
1.0
 26
0.0
 36
0.0
 17
0.0
 27
1.0
 37
0.0
 76
1
330
17
  0
LAYOUT
  5
1E
330
D
100
AcDbPlotSettings
  1

  4
A3
  6

 40
7.5
 41
20.0
 42
7.5
 43
20.0
 44
420.0
 45
297.0
 46
0.0
 47
0.0
 48
0.0
 49
0.0
140
0.0
141
0.0
142
1.0
143
1.0
 70
0
 72
1
 73
0
 74
5
  7

 75
16
 76
0
 77
2
 78
300
147
1.0
148
0.0
149
0.0
100
AcDbLayout
  1
Layout1
 70
1
 71
1
 10
0.0
 20
0.0
 11
420.0
 21
297.0
 12
0.0
 22
0.0
 32
0.0
 14
1e+20
 24
1e+20
 34
1e+20
 15
-1e+20
 25
-1e+20
 35
-1e+20
146
0.0
 13
0.0
 23
0.0
 33
0.0
 16
1.0
 26
0.0
 36
0.0
 17
0.0
 27
1.0
 37
0.0
 76
1
330
1B
  0
MATERIAL
  5
1F
102
{ACAD_REACTORS
330
E
102
}
330
E
100
AcDbMaterial
  1
ByBlock
  2

 70
0
 40
1.0
 71
1
 41
1.0
 91
-1023410177
 42
1.0
 72
1
  3

 73
1
 74
1
 75
1
 44
0.5
 73
0
 45
1.0
 46
1.0
 77
1
  4

 78
1
 79
1
170
1
 48
1.0
171
1
  6

172
1
173
1
174
1
140
1.0
141
1.0
175
1
  7

176
1
177
1
178
1
143
1.0
179
1
  8

270
1
271
1
272
1
145
1.0
146
1.0
273
1
  9

274
1
275
1
276
1
 42
1.0
 72
1
  3

 73
1
 74
1
 75
1
 94
63
  0
MATERIAL
  5
20
102
{ACAD_REACTORS
330
E
102
}
330
E
100
AcDbMaterial
  1
ByLayer
  2

 70
0
 40
1.0
 71
1
 41
1.0
 91
-1023410177
 42
1.0
 72
1
  3

 73
1
 74
1
 75
1
 44
0.5
 73
0
 45
1.0
 46
1.0
 77
1
  4

 78
1
 79
1
170
1
 48
1.0
171
1
  6

172
1
173
1
174
1
140
1.0
141
1.0
175
1
  7

176
1
177
1
178
1
143
1.0
179
1
  8

270
1
271
1
272
1
145
1.0
146
1.0
273
1
  9

274
1
275
1
276
1
 42
1.0
 72
1
  3

 73
1
 74
1
 75
1
 94
63
  0
MATERIAL
  5
21
102
{ACAD_REACTORS
330
E
102
}
330
E
100
AcDbMaterial
  1
Global
  2

 70
0
 40
1.0
 71
1
 41
1.0
 91
-1023410177
 42
1.0
 72
1
  3

 73
1
 74
1
 75
1
 44
0.5
 73
0
 45
1.0
 46
1.0
 77
1
  4

 78
1
 79
1
170
1
 48
1.0
171
1
  6

172
1
173
1
174
1
140
1.0
141
1.0
175
1
  7

176
1
177
1
178
1
143
1.0
179
1
  8

270
1
271
1
272
1
145
1.0
146
1.0
273
1
  9

274
1
275
1
276
1
 42
1.0
 72
1
  3

 73
1
 74
1
 75
1
 94
63
  0
MLINESTYLE
  5
22
102
{ACAD_REACTORS
330
10
102
}
330
10
100
AcDbMlineStyle
  2
Standard
 70
0
  3

 62
256
 51
90.0
 52
90.0
 71
2
 49
0.5
 62
256
  6
BYLAYER
 49
-0.5
 62
256
  6
BYLAYER
  0
MLEADERSTYLE
  5
2C
102
{ACAD_REACTORS
330
F
102
}
330
F
100
AcDbMLeaderStyle
179
2
170
2
171
1
172
0
 90
2
 40
0.0
 41
0.0
173
1
 91
-1056964608
 92
-2
290
1
 42
2.0
291
1
 43
8.0
  3
Standard
 44
4.0
300

342
29
174
1
175
1
176
0
178
1
 93
-1056964608
 45
4.0
292
0
297
0
 46
4.0
 94
-1056964608
 47
1.0
 49
1.0
140
1.0
294
1
141
0.0
177
0
142
1.0
295
0
296
0
143
3.75
271
0
272
9
273
9
  0
DICTIONARY
  5
2D
330
A
100
AcDbDictionary
280
1
281
1
  3
CREATED_BY_EZDXF
350
2E
  3
WRITTEN_BY_EZDXF
350
177
  0
DICTIONARYVAR
  5
2E
330
2D
100
DictionaryVariables
280
0
  1
1.4.4 @ 2026-09-24T06:32:13.844152+00:00
  0
DICTIONARYVAR
  5
177
330
2D
100
DictionaryVariables
280
0
  1
1.4.4 @ 2026-09-24T06:37:43.265272+00:00
  0
ENDSEC
  0
EOF
