  0
SECTION
  2
HEADER
  9
$ACADVER
  1
AC1032
  9
$ACADMAINTVER
 90
4
  9
$DWGCODEPAGE
  3
ANSI_1252
  9
$LASTSAVEDBY
  1
ezdxf
  9
$REQUIREDVERSIONS
160
0
  9
$INSBASE
 10
0.0
 20
0.0
 30
0.0
  9
$EXTMIN
 10
1e+20
 20
1e+20
 30
1e+20
  9
$EXTMAX
 10
-1e+20
 20
-1e+20
 30
-1e+20
  9
$LIMMIN
 10
0.0
 20
0.0
  9
$LIMMAX
 10
420.0
 20
297.0
  9
$ORTHOMODE
 70
0
  9
$REGENMODE
 70
1
  9
$FILLMODE
 70
1
  9
$QTEXTMODE
 70
0
  9
$MIRRTEXT
 70
1
  9
$LTSCALE
 40
1.0
  9
$ATTMODE
 70
1
  9
$TEXTSIZE
 40
2.5
  9
$TRACEWID
 40
1.0
  9
$TEXTSTYLE
  7
Standard
  9
$CLAYER
  8
0
  9
$CELTYPE
  6
ByLayer
  9
$CECOLOR
 62
256
  9
$CELTSCALE
 40
1.0
  9
$DISPSILH
 70
0
  9
$DIMSCALE
 40
1.0
  9
$DIMASZ
 40
2.5
  9
$DIMEXO
 40
0.625
  9
$DIMDLI
 40
3.75
  9
$DIMRND
 40
0.0
  9
$DIMDLE
 40
0.0
  9
$DIMEXE
 40
1.25
  9
$DIMTP
 40
0.0
  9
$DIMTM
 40
0.0
  9
$DIMTXT
 40
2.5
  9
$DIMCEN
 40
2.5
  9
$DIMTSZ
 40
0.0
  9
$DIMTOL
 70
0
  9
$DIMLIM
 70
0
  9
$DIMTIH
 70
0
  9
$DIMTOH
 70
0
  9
$DIMSE1
 70
0
  9
$DIMSE2
 70
0
  9
$DIMTAD
 70
1
  9
$DIMZIN
 70
8
  9
$DIMBLK
  1

  9
$DIMASO
 70
1
  9
$DIMSHO
 70
1
  9
$DIMPOST
  1

  9
$DIMAPOST
  1

  9
$DIMALT
 70
0
  9
$DIMALTD
 70
3
  9
$DIMALTF
 40
0.03937007874
  9
$DIMLFAC
 40
1.0
  9
$DIMTOFL
 70
1
  9
$DIMTVP
 40
0.0
  9
$DIMTIX
 70
0
  9
$DIMSOXD
 70
0
  9
$DIMSAH
 70
0
  9
$DIMBLK1
  1

  9
$DIMBLK2
  1

  9
$DIMSTYLE
  2
ISO-25
  9
$DIMCLRD
 70
0
  9
$DIMCLRE
 70
0
  9
$DIMCLRT
 70
0
  9
$DIMTFAC
 40
1.0
  9
$DIMGAP
 40
0.625
  9
$DIMJUST
 70
0
  9
$DIMSD1
 70
0
  9
$DIMSD2
 70
0
  9
$DIMTOLJ
 70
0
  9
$DIMTZIN
 70
8
  9
$DIMALTZ
 70
0
  9
$DIMALTTZ
 70
0
  9
$DIMUPT
 70
0
  9
$DIMDEC
 70
2
  9
$DIMTDEC
 70
2
  9
$DIMALTU
 70
2
  9
$DIMALTTD
 70
3
  9
$DIMTXSTY
  7
Standard
  9
$DIMAUNIT
 70
0
  9
$DIMADEC
 70
0
  9
$DIMALTRND
 40
0.0
  9
$DIMAZIN
 70
0
  9
$DIMDSEP
 70
44
  9
$DIMATFIT
 70
3
  9
$DIMFRAC
 70
0
  9
$DIMLDRBLK
  1

  9
$DIMLUNIT
 70
2
  9
$DIMLWD
 70
-2
  9
$DIMLWE
 70
-2
  9
$DIMTMOVE
 70
0
  9
$DIMFXL
 40
1.0
  9
$DIMFXLON
 70
0
  9
$DIMJOGANG
 40
0.785398163397
  9
$DIMTFILL
 70
0
  9
$DIMTFILLCLR
 70
0
  9
$DIMARCSYM
 70
0
  9
$DIMLTYPE
  6

  9
$DIMLTEX1
  6

  9
$DIMLTEX2
  6

  9
$DIMTXTDIRECTION
 70
0
  9
$LUNITS
 70
2
  9
$LUPREC
 70
4
  9
$SKETCHINC
 40
1.0
  9
$FILLETRAD
 40
10.0
  9
$AUNITS
 70
0
  9
$AUPREC
 70
2
  9
$MENU
  1
.
  9
$ELEVATION
 40
0.0
  9
$PELEVATION
 40
0.0
  9
$THICKNESS
 40
0.0
  9
$LIMCHECK
 70
0
  9
$CHAMFERA
 40
0.0
  9
$CHAMFERB
 40
0.0
  9
$CHAMFERC
 40
0.0
  9
$CHAMFERD
 40
0.0
  9
$SKPOLY
 70
0
  9
$TDCREATE
 40
2461308.5682986113
  9
$TDUCREATE
 40
2458532.153996898
  9
$TDUPDATE
 40
2461308.5682986113
  9
$TDUUPDATE
 40
2458532.1544311
  9
$TDINDWG
 40
0.0
  9
$TDUSRTIMER
 40
0.0
  9
$USRTIMER
 70
1
  9
$ANGBASE
 50
0.0
  9
$ANGDIR
 70
0
  9
$PDMODE
 70
0
  9
$PDSIZE
 40
0.0
  9
$PLINEWID
 40
0.0
  9
$SPLFRAME
 70
0
  9
$SPLINETYPE
 70
6
  9
$SPLINESEGS
 70
8
  9
$HANDSEED
  5
37E
  9
$SURFTAB1
 70
6
  9
$SURFTAB2
 70
6
  9
$SURFTYPE
 70
6
  9
$SURFU
 70
6
  9
$SURFV
 70
6
  9
$UCSBASE
  2

  9
$UCSNAME
  2

  9
$UCSORG
 10
0.0
 20
0.0
 30
0.0
  9
$UCSXDIR
 10
1.0
 20
0.0
 30
0.0
  9
$UCSYDIR
 10
0.0
 20
1.0
 30
0.0
  9
$UCSORTHOREF
  2

  9
$UCSORTHOVIEW
 70
0
  9
$UCSORGTOP
 10
0.0
 20
0.0
 30
0.0
  9
$UCSORGBOTTOM
 10
0.0
 20
0.0
 30
0.0
  9
$UCSORGLEFT
 10
0.0
 20
0.0
 30
0.0
  9
$UCSORGRIGHT
 10
0.0
 20
0.0
 30
0.0
  9
$UCSORGFRONT
 10
0.0
 20
0.0
 30
0.0
  9
$UCSORGBACK
 10
0.0
 20
0.0
 30
0.0
  9
$PUCSBASE
  2

  9
$PUCSNAME
  2

  9
$PUCSORG
 10
0.0
 20
0.0
 30
0.0
  9
$PUCSXDIR
 10
1.0
 20
0.0
 30
0.0
  9
$PUCSYDIR
 10
0.0
 20
1.0
 30
0.0
  9
$PUCSORTHOREF
  2

  9
$PUCSORTHOVIEW
 70
0
  9
$PUCSORGTOP
 10
0.0
 20
0.0
 30
0.0
  9
$PUCSORGBOTTOM
 10
0.0
 20
0.0
 30
0.0
  9
$PUCSORGLEFT
 10
0.0
 20
0.0
 30
0.0
  9
$PUCSORGRIGHT
 10
0.0
 20
0.0
 30
0.0
  9
$PUCSORGFRONT
 10
0.0
 20
0.0
 30
0.0
  9
$PUCSORGBACK
 10
0.0
 20
0.0
 30
0.0
  9
$USERI1
 70
0
  9
$USERI2
 70
0
  9
$USERI3
 70
0
  9
$USERI4
 70
0
  9
$USERI5
 70
0
  9
$USERR1
 40
0.0
  9
$USERR2
 40
0.0
  9
$USERR3
 40
0.0
  9
$USERR4
 40
0.0
  9
$USERR5
 40
0.0
  9
$WORLDVIEW
 70
1
  9
$SHADEDGE
 70
3
  9
$SHADEDIF
 70
70
  9
$TILEMODE
 70
1
  9
$MAXACTVP
 70
64
  9
$PINSBASE
 10
0.0
 20
0.0
 30
0.0
  9
$PLIMCHECK
 70
0
  9
$PEXTMIN
 10
1e+20
 20
1e+20
 30
1e+20
  9
$PEXTMAX
 10
-1e+20
 20
-1e+20
 30
-1e+20
  9
$PLIMMIN
 10
0.0
 20
0.0
  9
$PLIMMAX
 10
420.0
 20
297.0
  9
$UNITMODE
 70
0
  9
$VISRETAIN
 70
1
  9
$PLINEGEN
 70
0
  9
$PSLTSCALE
 70
1
  9
$TREEDEPTH
 70
3020
  9
$CMLSTYLE
  2
Standard
  9
$CMLJUST
 70
0
  9
$CMLSCALE
 40
20.0
  9
$PROXYGRAPHICS
 70
1
  9
$MEASUREMENT
 70
1
  9
$CELWEIGHT
370
-1
  9
$ENDCAPS
280
0
  9
$JOINSTYLE
280
0
  9
$LWDISPLAY
290
0
  9
$INSUNITS
 70
4
  9
$HYPERLINKBASE
  1

  9
$STYLESHEET
  1

  9
$XEDIT
290
1
  9
$CEPSNTYPE
380
0
  9
$PSTYLEMODE
290
1
  9
$FINGERPRINTGUID
  2
{26297564-1E64-493B-A183-2450CEB1A61D}
  9
$VERSIONGUID
  2
{794B6B4F-4A93-4614-979E-7EB1E5C7F356}
  9
$EXTNAMES
290
1
  9
$PSVPSCALE
 40
0.0
  9
$OLESTARTUP
290
0
  9
$SORTENTS
280
127
  9
$INDEXCTL
280
0
  9
$HIDETEXT
280
1
  9
$XCLIPFRAME
280
1
  9
$HALOGAP
280
0
  9
$OBSCOLOR
 70
257
  9
$OBSLTYPE
280
0
  9
$INTERSECTIONDISPLAY
280
0
  9
$INTERSECTIONCOLOR
 70
257
  9
$DIMASSOC
280
2
  9
$PROJECTNAME
  1

  9
$CAMERADISPLAY
290
0
  9
$LENSLENGTH
 40
50.0
  9
$CAMERAHEIGHT
 40
0.0
  9
$STEPSPERSEC
 40
24.0
  9
$STEPSIZE
 40
100.0
  9
$3DDWFPREC
 40
2.0
  9
$PSOLWIDTH
 40
0.005
  9
$PSOLHEIGHT
 40
0.08
  9
$LOFTANG1
 40
1.570796326795
  9
$LOFTANG2
 40
1.570796326795
  9
$LOFTMAG1
 40
0.0
  9
$LOFTMAG2
 40
0.0
  9
$LOFTPARAM
 70
7
  9
$LOFTNORMALS
280
1
  9
$LATITUDE
 40
37.795
  9
$LONGITUDE
 40
-122.394
  9
$NORTHDIRECTION
 40
0.0
  9
$TIMEZONE
 70
-8000
  9
$LIGHTGLYPHDISPLAY
280
1
  9
$TILEMODELIGHTSYNCH
280
1
  9
$CMATERIAL
347
20
  9
$SOLIDHIST
280
0
  9
$SHOWHIST
280
1
  9
$DWFFRAME
280
2
  9
$DGNFRAME
280
2
  9
$REALWORLDSCALE
290
1
  9
$INTERFERECOLOR
 62
256
  9
$CSHADOW
280
0
  9
$SHADOWPLANELOCATION
 40
0.0
  0
ENDSEC
  0
SECTION
  2
CLASSES
  0
CLASS
  1
ACDBDICTIONARYWDFLT
  2
AcDbDictionaryWithDefault
  3
ObjectDBX Classes
 90
0
 91
0
280
0
281
0
  0
CLASS
  1
SUN
  2
AcDbSun
  3
SCENEOE
 90
1153
 91
0
280
0
281
0
  0
CLASS
  1
VISUALSTYLE
  2
AcDbVisualStyle
  3
ObjectDBX Classes
 90
4095
 91
0
280
0
281
0
  0
CLASS
  1
MATERIAL
  2
AcDbMaterial
  3
ObjectDBX Classes
 90
1153
 91
0
280
0
281
0
  0
CLASS
  1
SCALE
  2
AcDbScale
  3
ObjectDBX Classes
 90
1153
 91
0
280
0
281
0
  0
CLASS
  1
TABLESTYLE
  2
AcDbTableStyle
  3
ObjectDBX Classes
 90
4095
 91
0
280
0
281
0
  0
CLASS
  1
MLEADERSTYLE
  2
AcDbMLeaderStyle
  3
ACDB_MLEADERSTYLE_CLASS
 90
4095
 91
0
280
0
281
0
  0
CLASS
  1
DICTIONARYVAR
  2
AcDbDictionaryVar
  3
ObjectDBX Classes
 90
0
 91
0
280
0
281
0
  0
CLASS
  1
CELLSTYLEMAP
  2
AcDbCellStyleMap
  3
ObjectDBX Classes
 90
1152
 91
0
280
0
281
0
  0
CLASS
  1
MENTALRAYRENDERSETTINGS
  2
AcDbMentalRayRenderSettings
  3
SCENEOE
 90
1024
 91
0
280
0
281
0
  0
CLASS
  1
ACDBDETAILVIEWSTYLE
  2
AcDbDetailViewStyle
  3
ObjectDBX Classes
 90
1025
 91
0
280
0
281
0
  0
CLASS
  1
ACDBSECTIONVIEWSTYLE
  2
AcDbSectionViewStyle
  3
ObjectDBX Classes
 90
1025
 91
0
280
0
281
0
  0
CLASS
  1
RASTERVARIABLES
  2
AcDbRasterVariables
  3
ISM
 90
0
 91
0
280
0
281
0
  0
CLASS
  1
ACDBPLACEHOLDER
  2
AcDbPlaceHolder
  3
ObjectDBX Classes
 90
0
 91
0
280
0
281
0
  0
CLASS
  1
LAYOUT
  2
AcDbLayout
  3
ObjectDBX Classes
 90
0
 91
0
280
0
281
0
  0
ENDSEC
  0
SECTION
  2
TABLES
  0
TABLE
  2
VPORT
  5
8
330
0
100
AcDbSymbolTable
 70
1
  0
VPORT
  5
23
330
8
100
AcDbSymbolTableRecord
100
AcDbViewportTableRecord
  2
*Active
 70
0
 10
0.0
 20
0.0
 11
1.0
 21
1.0
 12
0.0
 22
0.0
 13
0.0
 23
0.0
 14
0.5
 24
0.5
 15
0.5
 25
0.5
 16
0.0
 26
0.0
 36
1.0
 17
0.0
 27
0.0
 37
0.0
 40
1000.0
 41
1.34
 42
50.0
 43
0.0
 44
0.0
 50
0.0
 51
0.0
 71
0
 72
1000
 73
1
 74
3
 75
0
 76
0
 77
0
 78
0
281
0
 65
0
146
0.0
  0
ENDTAB
  0
TABLE
  2
LTYPE
  5
2
330
0
100
AcDbSymbolTable
 70
6
  0
LTYPE
  5
24
330
2
100
AcDbSymbolTableRecord
100
AcDbLinetypeTableRecord
  2
ByBlock
 70
0
  3

 72
65
 73
0
 40
0.0
  0
LTYPE
  5
25
330
2
100
AcDbSymbolTableRecord
100
AcDbLinetypeTableRecord
  2
ByLayer
 70
0
  3

 72
65
 73
0
 40
0.0
  0
LTYPE
  5
26
330
2
100
AcDbSymbolTableRecord
100
AcDbLinetypeTableRecord
  2
Continuous
 70
0
  3

 72
65
 73
0
 40
0.0
  0
LTYPE
  5
269
330
2
100
AcDbSymbolTableRecord
100
AcDbLinetypeTableRecord
  2
HIDDEN
 70
0
  3
Hidden __ __ __ __ __ __ __ __ __ __ __ __ __ _
 72
65
 73
2
 40
9.524999999999997
 49
6.349999999999997
 74
0
 49
-3.174999999999998
 74
0
  0
LTYPE
  5
26A
330
2
100
AcDbSymbolTableRecord
100
AcDbLinetypeTableRecord
  2
HIDDEN2
 70
0
  3
Hidden (.5x) _ _ _ _ _ _ _ _ _ _ _ _ _ _ _ _ _
 72
65
 73
2
 40
4.762499999999998
 49
3.174999999999998
 74
0
 49
-1.587499999999999
 74
0
  0
LTYPE
  5
26B
330
2
100
AcDbSymbolTableRecord
100
AcDbLinetypeTableRecord
  2
HIDDENX2
 70
0
  3
Hidden (2x) ____ ____ ____ ____ ____ ____ ____
 72
65
 73
2
 40
19.05
 49
12.7
 74
0
 49
-6.349999999999999
 74
0
  0
ENDTAB
  0
TABLE
  2
LAYER
  5
1
330
0
100
AcDbSymbolTable
 70
6
  0
LAYER
  5
27
330
1
100
AcDbSymbolTableRecord
100
AcDbLayerTableRecord
  2
0
 70
0
 62
7
  6
Continuous
370
-3
390
13
347
21
  0
LAYER
  5
28
330
1
100
AcDbSymbolTableRecord
100
AcDbLayerTableRecord
  2
Defpoints
 70
0
 62
7
  6
Continuous
290
0
370
-3
390
13
347
21
  0
LAYER
  5
265
330
1
100
AcDbSymbolTableRecord
100
AcDbLayerTableRecord
  2
HEATER
 70
0
 62
1
  6
Continuous
370
-3
390
13
347
21
  0
LAYER
  5
266
330
1
100
AcDbSymbolTableRecord
100
AcDbLayerTableRecord
  2
DIM
 70
0
 62
253
  6
Continuous
370
-3
390
13
347
21
  0
LAYER
  5
267
330
1
100
AcDbSymbolTableRecord
100
AcDbLayerTableRecord
  2
FIRE PROTECTION
 70
0
 62
1
  6
Continuous
370
-3
390
13
347
21
  0
LAYER
  5
268
330
1
100
AcDbSymbolTableRecord
100
AcDbLayerTableRecord
  2
Ghi chu
 70
0
 62
7
  6
Continuous
370
-3
390
13
347
21
  0
ENDTAB
  0
TABLE
  2
STYLE
  5
5
330
0
100
AcDbSymbolTable
 70
2
  0
STYLE
  5
29
330
5
100
AcDbSymbolTableRecord
100
AcDbTextStyleTableRecord
  2
Standard
 70
0
 40
0.0
 41
1.0
 50
0.0
 71
0
 42
2.5
  3
txt
  4

  0
STYLE
  5
26C
330
5
100
AcDbSymbolTableRecord
100
AcDbTextStyleTableRecord
  2
Arial
 70
0
 40
0.0
 41
1.0
 50
0.0
 71
0
 42
0.2
  3
arial.ttf
  4

  0
ENDTAB
  0
TABLE
  2
VIEW
  5
7
330
0
100
AcDbSymbolTable
 70
0
  0
ENDTAB
  0
TABLE
  2
UCS
  5
6
330
0
100
AcDbSymbolTable
 70
0
  0
ENDTAB
  0
TABLE
  2
APPID
  5
3
330
0
100
AcDbSymbolTable
 70
3
  0
APPID
  5
2A
330
3
100
AcDbSymbolTableRecord
100
AcDbRegAppTableRecord
  2
ACAD
 70
0
  0
APPID
  5
271
330
3
100
AcDbSymbolTableRecord
100
AcDbRegAppTableRecord
  2
HATCHBACKGROUNDCOLOR
 70
0
  0
APPID
  5
272
330
3
100
AcDbSymbolTableRecord
100
AcDbRegAppTableRecord
  2
EZDXF
 70
0
  0
ENDTAB
  0
TABLE
  2
DIMSTYLE
  5
4
330
0
100
AcDbSymbolTable
 70
2
100
AcDbDimStyleTable
  0
DIMSTYLE
105
2B
330
4
100
AcDbSymbolTableRecord
100
AcDbDimStyleTableRecord
  2
Standard
 70
0
 40
1.0
 41
2.5
 42
0.625
 43
3.75
 44
1.25
 45
0.0
 46
0.0
 47
0.0
 48
0.0
 49
2.5
140
2.5
141
2.5
142
0.0
143
0.03937007874
144
1.0
145
0.0
146
1.0
147
0.625
148
0.0
 69
0
 70
0
 71
0
 72
0
 73
0
 74
0
 75
0
 76
0
 77
1
 78
8
 79
3
170
0
171
3
172
1
173
0
174
0
175
0
176
0
177
0
178
0
179
2
271
2
272
2
273
2
274
3
275
0
276
0
277
2
278
44
279
0
280
0
281
0
282
0
283
0
284
8
285
0
286
0
288
0
289
3
290
0
371
-2
372
-2
  0
DIMSTYLE
105
264
330
4
100
AcDbSymbolTableRecord
100
AcDbDimStyleTableRecord
  2
CNC
 70
0
 40
1.0
 41
5.0
 42
15.0
 43
3.75
 44
5.0
 45
0.0
 46
0.0
 47
0.0
 48
0.0
 49
2.5
140
50.0
141
10.0
142
0.0
143
0.03937007874016
144
1.0
145
0.0
146
1.0
147
10.0
148
0.0
 69
0
 70
0
 71
0
 72
0
 73
0
 74
0
 75
0
 76
0
 77
1
 78
8
 79
3
170
0
171
3
172
1
173
0
174
0
175
0
176
5
177
5
178
3
179
2
271
0
272
0
273
2
274
3
275
0
276
0
277
2
278
44
279
0
280
0
281
0
282
0
283
0
284
8
285
0
286
0
288
0
289
3
290
0
340
29
341
26D
342
34
345
25
346
25
347
25
371
9
372
9
  0
ENDTAB
  0
TABLE
  2
BLOCK_RECORD
  5
9
330
0
100
AcDbSymbolTable
 70
31
  0
BLOCK_RECORD
  5
17
330
9
100
AcDbSymbolTableRecord
100
AcDbBlockTableRecord
  2
*Model_Space
340
1A
 70
0
280
1
281
0
  0
BLOCK_RECORD
  5
1B
330
9
100
AcDbSymbolTableRecord
100
AcDbBlockTableRecord
  2
*Paper_Space
340
1E
 70
0
280
1
281
0
  0
BLOCK_RECORD
  5
34
330
9
100
AcDbSymbolTableRecord
100
AcDbBlockTableRecord
  2
_Open30
340
0
 70
0
280
1
281
0
  0
BLOCK_RECORD
  5
13E
330
9
100
AcDbSymbolTableRecord
100
AcDbBlockTableRecord
  2
ovan6x9
340
0
 70
0
280
1
281
0
  0
BLOCK_RECORD
  5
145
330
9
100
AcDbSymbolTableRecord
100
AcDbBlockTableRecord
  2
HL036-1-1
340
0
 70
0
280
1
281
0
  0
BLOCK_RECORD
  5
14F
330
9
100
AcDbSymbolTableRecord
100
AcDbBlockTableRecord
  2
HL011-1-6
340
0
 70
0
280
1
281
0
  0
BLOCK_RECORD
  5
17F
330
9
100
AcDbSymbolTableRecord
100
AcDbBlockTableRecord
  2
MS308-2-1
340
0
 70
0
280
1
281
0
  0
BLOCK_RECORD
  5
190
330
9
100
AcDbSymbolTableRecord
100
AcDbBlockTableRecord
  2
HL011-1-3
340
0
 70
0
280
1
281
0
  0
BLOCK_RECORD
  5
1BF
330
9
100
AcDbSymbolTableRecord
100
AcDbBlockTableRecord
  2
MS722
340
0
 70
0
280
1
281
0
  0
BLOCK_RECORD
  5
1C6
330
9
100
AcDbSymbolTableRecord
100
AcDbBlockTableRecord
  2
om cot
340
0
 70
0
280
1
281
0
  0
BLOCK_RECORD
  5
1D1
330
9
100
AcDbSymbolTableRecord
100
AcDbBlockTableRecord
  2
KHUNG CHUẨN
340
0
 70
0
280
1
281
0
  0
BLOCK_RECORD
  5
1F9
330
9
100
AcDbSymbolTableRecord
100
AcDbBlockTableRecord
  2
HL011-1-4
340
0
 70
0
280
1
281
0
  0
BLOCK_RECORD
  5
208
330
9
100
AcDbSymbolTableRecord
100
AcDbBlockTableRecord
  2
HL036-1-2
340
0
 70
0
280
1
281
0
  0
BLOCK_RECORD
  5
21D
330
9
100
AcDbSymbolTableRecord
100
AcDbBlockTableRecord
  2
2565
340
0
 70
0
280
1
281
0
  0
BLOCK_RECORD
  5
244
330
9
100
AcDbSymbolTableRecord
100
AcDbBlockTableRecord
  2
SDGFGHGHG
340
0
 70
0
280
1
281
0
  0
BLOCK_RECORD
  5
259
330
9
100
AcDbSymbolTableRecord
100
AcDbBlockTableRecord
  2
SĐFHGGH
340
0
 70
0
280
1
281
0
  0
BLOCK_RECORD
  5
26D
330
9
100
AcDbSymbolTableRecord
100
AcDbBlockTableRecord
  2
_ArchTick
340
0
 70
0
280
1
281
0
  0
BLOCK_RECORD
  5
29C
330
9
100
AcDbSymbolTableRecord
100
AcDbBlockTableRecord
  2
*D1
340
0
 70
0
280
1
281
0
  0
BLOCK_RECORD
  5
2AC
330
9
100
AcDbSymbolTableRecord
100
AcDbBlockTableRecord
  2
*D2
340
0
 70
0
280
1
281
0
  0
BLOCK_RECORD
  5
2BC
330
9
100
AcDbSymbolTableRecord
100
AcDbBlockTableRecord
  2
*D3
340
0
 70
0
280
1
281
0
  0
BLOCK_RECORD
  5
2CC
330
9
100
AcDbSymbolTableRecord
100
AcDbBlockTableRecord
  2
*D4
340
0
 70
0
280
1
281
0
  0
BLOCK_RECORD
  5
2DC
330
9
100
AcDbSymbolTableRecord
100
AcDbBlockTableRecord
  2
*D5
340
0
 70
0
280
1
281
0
  0
BLOCK_RECORD
  5
2ED
330
9
100
AcDbSymbolTableRecord
100
AcDbBlockTableRecord
  2
*D6
340
0
 70
0
280
1
281
0
  0
BLOCK_RECORD
  5
2FD
330
9
100
AcDbSymbolTableRecord
100
AcDbBlockTableRecord
  2
*D7
340
0
 70
0
280
1
281
0
  0
BLOCK_RECORD
  5
30E
330
9
100
AcDbSymbolTableRecord
100
AcDbBlockTableRecord
  2
*D8
340
0
 70
0
280
1
281
0
  0
BLOCK_RECORD
  5
31E
330
9
100
AcDbSymbolTableRecord
100
AcDbBlockTableRecord
  2
*D9
340
0
 70
0
280
1
281
0
  0
BLOCK_RECORD
  5
32E
330
9
100
AcDbSymbolTableRecord
100
AcDbBlockTableRecord
  2
*D10
340
0
 70
0
280
1
281
0
  0
BLOCK_RECORD
  5
33E
330
9
100
AcDbSymbolTableRecord
100
AcDbBlockTableRecord
  2
*D11
340
0
 70
0
280
1
281
0
  0
BLOCK_RECORD
  5
34E
330
9
100
AcDbSymbolTableRecord
100
AcDbBlockTableRecord
  2
*D12
340
0
 70
0
280
1
281
0
  0
BLOCK_RECORD
  5
35E
330
9
100
AcDbSymbolTableRecord
100
AcDbBlockTableRecord
  2
*D13
340
0
 70
0
280
1
281
0
  0
BLOCK_RECORD
  5
36E
330
9
100
AcDbSymbolTableRecord
100
AcDbBlockTableRecord
  2
*D14
340
0
 70
0
280
1
281
0
  0
ENDTAB
  0
ENDSEC
  0
SECTION
  2
BLOCKS
  0
BLOCK
  5
18
330
17
100
AcDbEntity
  8
0
100
AcDbBlockBegin
  2
*Model_Space
 70
0
 10
0.0
 20
0.0
 30
0.0
  3
*Model_Space
  1

  0
ENDBLK
  5
19
330
17
100
AcDbEntity
  8
0
100
AcDbBlockEnd
  0
BLOCK
  5
1C
330
1B
100
AcDbEntity
  8
0
100
AcDbBlockBegin
  2
*Paper_Space
 70
0
 10
0.0
 20
0.0
 30
0.0
  3
*Paper_Space
  1

  0
ENDBLK
  5
1D
330
1B
100
AcDbEntity
  8
0
100
AcDbBlockEnd
  0
BLOCK
  5
35
330
34
100
AcDbEntity
  8
0
100
AcDbBlockBegin
  2
_Open30
 70
0
 10
0.0
 20
0.0
 30
0.0
  3
_Open30
  1

  0
LINE
  5
37
330
34
100
AcDbEntity
  8
0
  6
ByBlock
 62
0
370
-2
100
AcDbLine
 10
-1.0
 20
0.26794919
 30
0.0
 11
0.0
 21
0.0
 31
0.0
  0
LINE
  5
38
330
34
100
AcDbEntity
  8
0
  6
ByBlock
 62
0
370
-2
100
AcDbLine
 10
0.0
 20
0.0
 30
0.0
 11
-1.0
 21
-0.26794919
 31
0.0
  0
LINE
  5
39
330
34
100
AcDbEntity
  8
0
  6
ByBlock
 62
0
370
-2
100
AcDbLine
 10
0.0
 20
0.0
 30
0.0
 11
-1.0
 21
0.0
 31
0.0
  0
ENDBLK
  5
36
330
34
100
AcDbEntity
  8
0
100
AcDbBlockEnd
  0
BLOCK
  5
13F
330
13E
100
AcDbEntity
  8
0
100
AcDbBlockBegin
  2
ovan6x9
 70
0
 10
0.0
 20
0.0
 30
0.0
  3
ovan6x9
  1

  0
ARC
  5
141
330
13E
100
AcDbEntity
  8
0
 62
2
100
AcDbCircle
 10
7.999940003966912
 20
2.999987423216225
 30
0.0
 40
3.0
100
AcDbArc
 50
270.0
 51
90.0
  0
ARC
  5
142
330
13E
100
AcDbEntity
  8
0
 62
2
100
AcDbCircle
 10
1.999940003966912
 20
2.999987423216225
 30
0.0
 40
3.0
100
AcDbArc
 50
90.0
 51
270.0
  0
LINE
  5
143
330
13E
100
AcDbEntity
  8
0
 62
2
100
AcDbLine
 10
1.999940003966912
 20
-1.25767837744e-05
 30
0.0
 11
7.999940003966912
 21
-1.25767837744e-05
 31
0.0
  0
LINE
  5
144
330
13E
100
AcDbEntity
  8
0
 62
2
100
AcDbLine
 10
1.999940003966912
 20
5.999987423216225
 30
0.0
 11
7.999940003966912
 21
5.999987423216225
 31
0.0
  0
ENDBLK
  5
140
330
13E
100
AcDbEntity
  8
0
100
AcDbBlockEnd
  0
BLOCK
  5
146
330
145
100
AcDbEntity
  8
0
100
AcDbBlockBegin
  2
HL036-1-1
 70
0
 10
0.0
 20
0.0
 30
0.0
  3
HL036-1-1
  1

  0
LWPOLYLINE
  5
148
330
145
100
AcDbEntity
  8
0
 62
1
100
AcDbPolyline
 90
4
 70
1
 10
-2.5
 20
12.25
 10
17.5
 20
12.25
 10
17.5
 20
36.25
 10
-2.5
 20
36.25
  0
CIRCLE
  5
149
330
145
100
AcDbEntity
  8
0
 62
1
100
AcDbCircle
 10
3.5
 20
31.75
 30
0.0
 40
2.0
  0
CIRCLE
  5
14A
330
145
100
AcDbEntity
  8
0
 62
1
100
AcDbCircle
 10
3.5
 20
16.75
 30
0.0
 40
2.0
  0
LINE
  5
14B
330
145
100
AcDbEntity
  8
0
 62
1
100
AcDbLine
 10
9.5
 20
36.25
 30
0.0
 11
9.5
 21
12.25
 31
0.0
  0
LWPOLYLINE
  5
14C
330
145
100
AcDbEntity
  8
0
 62
1
100
AcDbPolyline
 90
4
 70
1
 10
0.0
 20
48.5
 10
17.5
 20
48.5
 10
17.5
 20
0.0
 10
0.0
 20
0.0
  0
CIRCLE
  5
14D
330
145
100
AcDbEntity
  8
0
 62
1
100
AcDbCircle
 10
12.70000000018626
 20
16.0
 30
0.0
 40
2.5
  0
CIRCLE
  5
14E
330
145
100
AcDbEntity
  8
0
 62
1
100
AcDbCircle
 10
12.70000000018626
 20
32.5
 30
0.0
 40
2.5
  0
ENDBLK
  5
147
330
145
100
AcDbEntity
  8
0
100
AcDbBlockEnd
  0
BLOCK
  5
150
330
14F
100
AcDbEntity
  8
0
100
AcDbBlockBegin
  2
HL011-1-6
 70
0
 10
0.0
 20
0.0
 30
0.0
  3
HL011-1-6
  1

  0
LWPOLYLINE
  5
152
330
14F
100
AcDbEntity
  8
0
 62
1
100
AcDbPolyline
 90
2
 70
0
 10
32.0
 20
42.5
 10
32.0
 20
32.5
  0
LWPOLYLINE
  5
153
330
14F
100
AcDbEntity
  8
0
 62
1
100
AcDbPolyline
 90
6
 70
0
 10
32.0
 20
28.0
 10
32.0
 20
21.0
 10
3.0
 20
21.0
 10
3.0
 20
54.0
 10
32.0
 20
54.0
 10
32.0
 20
47.0
  0
LINE
  5
154
330
14F
100
AcDbEntity
  8
0
 62
1
100
AcDbLine
 10
20.0
 20
54.0
 30
0.0
 11
20.0
 21
21.0
 31
0.0
  0
LINE
  5
155
330
14F
100
AcDbEntity
  8
0
 62
1
100
AcDbLine
 10
20.0
 20
47.0
 30
0.0
 11
32.0
 21
47.0
 31
0.0
  0
LINE
  5
156
330
14F
100
AcDbEntity
  8
0
 62
1
100
AcDbLine
 10
20.0
 20
28.0
 30
0.0
 11
32.0
 21
28.0
 31
0.0
  0
LINE
  5
157
330
14F
100
AcDbEntity
  8
0
 62
1
100
AcDbLine
 10
32.0
 20
42.5
 30
0.0
 11
20.0
 21
42.5
 31
0.0
  0
LINE
  5
158
330
14F
100
AcDbEntity
  8
0
 62
1
100
AcDbLine
 10
32.0
 20
32.5
 30
0.0
 11
20.0
 21
32.5
 31
0.0
  0
LWPOLYLINE
  5
159
330
14F
100
AcDbEntity
  8
0
 62
1
100
AcDbPolyline
 90
6
 70
0
 10
32.0
 20
19.0
 10
32.0
 20
0.0
 10
0.0
 20
0.0
 10
0.0
 20
75.0
 10
32.0
 20
75.0
 10
32.0
 20
56.0
  0
CIRCLE
  5
15A
330
14F
100
AcDbEntity
  8
0
 62
1
100
AcDbCircle
 10
5.5
 20
62.5
 30
0.0
 40
3.0
  0
CIRCLE
  5
15B
330
14F
100
AcDbEntity
  8
0
 62
1
100
AcDbCircle
 10
5.5
 20
37.5
 30
0.0
 40
3.0
  0
CIRCLE
  5
15C
330
14F
100
AcDbEntity
  8
0
 62
1
100
AcDbCircle
 10
5.5
 20
12.5
 30
0.0
 40
3.0
  0
LINE
  5
15D
330
14F
100
AcDbEntity
  8
0
 62
1
100
AcDbLine
 10
11.0
 20
56.0
 30
0.0
 11
11.0
 21
54.0
 31
0.0
  0
LINE
  5
15E
330
14F
100
AcDbEntity
  8
0
 62
1
100
AcDbLine
 10
11.00000000001455
 20
21.0
 30
0.0
 11
11.00000000001455
 21
19.0
 31
0.0
  0
LINE
  5
15F
330
14F
100
AcDbEntity
  8
0
 62
1
100
AcDbLine
 10
11.0
 20
56.0
 30
0.0
 11
32.0
 21
56.0
 31
0.0
  0
LINE
  5
160
330
14F
100
AcDbEntity
  8
0
 62
1
100
AcDbLine
 10
11.0
 20
19.0
 30
0.0
 11
32.0
 21
19.0
 31
0.0
  0
LWPOLYLINE
  5
161
330
14F
100
AcDbEntity
  8
0
 62
1
100
AcDbPolyline
 90
4
 70
1
 10
10.0
 20
67.0
 10
32.0
 20
67.0
 10
32.0
 20
65.0
 10
10.0
 20
65.0
  0
LWPOLYLINE
  5
162
330
14F
100
AcDbEntity
  8
0
 62
1
100
AcDbPolyline
 90
4
 70
1
 10
10.0
 20
8.0
 10
32.0
 20
8.0
 10
32.0
 20
10.0
 10
10.0
 20
10.0
  0
LINE
  5
163
330
14F
100
AcDbEntity
  8
0
 62
1
100
AcDbLine
 10
29.5
 20
21.0
 30
0.0
 11
29.5
 21
19.0
 31
0.0
  0
LINE
  5
164
330
14F
100
AcDbEntity
  8
0
 62
1
100
AcDbLine
 10
29.5
 20
-3.0
 30
0.0
 11
29.5
 21
-6.0
 31
0.0
  0
LINE
  5
165
330
14F
100
AcDbEntity
  8
0
 62
1
100
AcDbLine
 10
29.5
 20
-6.0
 30
0.0
 11
22.5
 21
-6.0
 31
0.0
  0
LINE
  5
166
330
14F
100
AcDbEntity
  8
0
 62
1
100
AcDbLine
 10
22.5
 20
-6.0
 30
0.0
 11
22.5
 21
-3.0
 31
0.0
  0
LINE
  5
167
330
14F
100
AcDbEntity
  8
0
 62
1
100
AcDbLine
 10
22.5
 20
19.0
 30
0.0
 11
22.5
 21
21.0
 31
0.0
  0
LINE
  5
168
330
14F
100
AcDbEntity
  8
0
 62
1
100
AcDbLine
 10
29.5
 20
-3.0
 30
0.0
 11
28.5
 21
-2.999999999992724
 31
0.0
  0
LINE
  5
169
330
14F
100
AcDbEntity
  8
0
 62
1
100
AcDbLine
 10
23.5
 20
-2.999999999992724
 30
0.0
 11
22.5
 21
-3.0
 31
0.0
  0
LINE
  5
16A
330
14F
100
AcDbEntity
  8
0
 62
1
100
AcDbLine
 10
23.5
 20
0.0
 30
0.0
 11
23.5
 21
-3.0
 31
0.0
  0
LINE
  5
16B
330
14F
100
AcDbEntity
  8
0
 62
1
100
AcDbLine
 10
28.5
 20
0.0
 30
0.0
 11
28.5
 21
-3.0
 31
0.0
  0
LINE
  5
16C
330
14F
100
AcDbEntity
  8
0
 62
1
100
AcDbLine
 10
23.5
 20
0.0
 30
0.0
 11
22.5
 21
0.0
 31
0.0
  0
LINE
  5
16D
330
14F
100
AcDbEntity
  8
0
 62
1
100
AcDbLine
 10
28.5
 20
0.0
 30
0.0
 11
29.5
 21
0.0
 31
0.0
  0
LINE
  5
16E
330
14F
100
AcDbEntity
  8
0
 62
1
100
AcDbLine
 10
24.0
 20
31.0
 30
0.0
 11
28.0
 21
31.0
 31
0.0
  0
LINE
  5
16F
330
14F
100
AcDbEntity
  8
0
 62
1
100
AcDbLine
 10
28.90000000000873
 20
28.0
 30
0.0
 11
28.0
 21
31.0
 31
0.0
  0
LINE
  5
170
330
14F
100
AcDbEntity
  8
0
 62
1
100
AcDbLine
 10
23.09999999999127
 20
28.0
 30
0.0
 11
24.0
 21
31.0
 31
0.0
  0
LINE
  5
171
330
14F
100
AcDbEntity
  8
0
 62
1
100
AcDbLine
 10
29.5
 20
54.0
 30
0.0
 11
29.5
 21
56.0
 31
0.0
  0
LINE
  5
172
330
14F
100
AcDbEntity
  8
0
 62
1
100
AcDbLine
 10
29.5
 20
78.0
 30
0.0
 11
29.5
 21
81.0
 31
0.0
  0
LINE
  5
173
330
14F
100
AcDbEntity
  8
0
 62
1
100
AcDbLine
 10
29.5
 20
81.0
 30
0.0
 11
22.5
 21
81.0
 31
0.0
  0
LINE
  5
174
330
14F
100
AcDbEntity
  8
0
 62
1
100
AcDbLine
 10
22.5
 20
81.0
 30
0.0
 11
22.5
 21
78.0
 31
0.0
  0
LINE
  5
175
330
14F
100
AcDbEntity
  8
0
 62
1
100
AcDbLine
 10
22.5
 20
56.0
 30
0.0
 11
22.5
 21
54.0
 31
0.0
  0
LINE
  5
176
330
14F
100
AcDbEntity
  8
0
 62
1
100
AcDbLine
 10
29.5
 20
78.0
 30
0.0
 11
28.5
 21
77.99999999999272
 31
0.0
  0
LINE
  5
177
330
14F
100
AcDbEntity
  8
0
 62
1
100
AcDbLine
 10
23.5
 20
77.99999999999272
 30
0.0
 11
22.5
 21
78.0
 31
0.0
  0
LINE
  5
178
330
14F
100
AcDbEntity
  8
0
 62
1
100
AcDbLine
 10
23.5
 20
75.0
 30
0.0
 11
23.5
 21
78.0
 31
0.0
  0
LINE
  5
179
330
14F
100
AcDbEntity
  8
0
 62
1
100
AcDbLine
 10
28.5
 20
75.0
 30
0.0
 11
28.5
 21
78.0
 31
0.0
  0
LINE
  5
17A
330
14F
100
AcDbEntity
  8
0
 62
1
100
AcDbLine
 10
23.5
 20
75.0
 30
0.0
 11
22.5
 21
75.0
 31
0.0
  0
LINE
  5
17B
330
14F
100
AcDbEntity
  8
0
 62
1
100
AcDbLine
 10
28.5
 20
75.0
 30
0.0
 11
29.5
 21
75.0
 31
0.0
  0
LINE
  5
17C
330
14F
100
AcDbEntity
  8
0
 62
1
100
AcDbLine
 10
24.0
 20
44.0
 30
0.0
 11
28.0
 21
44.0
 31
0.0
  0
LINE
  5
17D
330
14F
100
AcDbEntity
  8
0
 62
1
100
AcDbLine
 10
28.89999999999418
 20
47.0
 30
0.0
 11
28.0
 21
44.0
 31
0.0
  0
LINE
  5
17E
330
14F
100
AcDbEntity
  8
0
 62
1
100
AcDbLine
 10
23.10000000000582
 20
47.0
 30
0.0
 11
24.0
 21
44.0
 31
0.0
  0
ENDBLK
  5
151
330
14F
100
AcDbEntity
  8
0
100
AcDbBlockEnd
  0
BLOCK
  5
180
330
17F
100
AcDbEntity
  8
0
100
AcDbBlockBegin
  2
MS308-2-1
 70
0
 10
0.0
 20
0.0
 30
0.0
  3
MS308-2-1
  1

  0
ELLIPSE
  5
182
330
17F
100
AcDbEntity
  8
0
 62
1
100
AcDbEllipse
 10
0.0
 20
0.0
 30
0.0
 11
0.0
 21
21.0
 31
0.0
 40
0.8571428571428544
 41
3.972003137538834
 42
8.594367476820336
  0
ARC
  5
183
330
17F
100
AcDbEntity
  8
0
 62
1
100
AcDbCircle
 10
0.0
 20
-95.0
 30
0.0
 40
4.0
100
AcDbArc
 50
180.0
 51
0.0
  0
ARC
  5
184
330
17F
100
AcDbEntity
  8
0
 62
1
100
AcDbCircle
 10
0.0
 20
6.712249977186728
 30
0.0
 40
13.28775002279326
100
AcDbArc
 50
0.0
 51
180.0
  0
LINE
  5
185
330
17F
100
AcDbEntity
  8
0
 62
1
100
AcDbLine
 10
12.28775002280599
 20
6.712249977186728
 30
0.0
 11
12.28775002280599
 21
-6.869241408494416
 31
0.0
  0
LINE
  5
186
330
17F
100
AcDbEntity
  8
0
 62
1
100
AcDbLine
 10
-12.28775002280599
 20
6.712249977186728
 30
0.0
 11
-12.28775002280599
 21
-6.869241408494416
 31
0.0
  0
ARC
  5
187
330
17F
100
AcDbEntity
  8
0
 62
1
100
AcDbCircle
 10
0.0
 20
5.937164051661966
 30
0.0
 40
17.74803711493563
100
AcDbArc
 50
226.1840421250448
 51
313.8159578749552
  0
ARC
  5
188
330
17F
100
AcDbEntity
  8
0
 62
1
100
AcDbCircle
 10
0.0
 20
6.712249977186728
 30
0.0
 40
12.28775002279326
100
AcDbArc
 50
0.0
 51
180.0
  0
LINE
  5
189
330
17F
100
AcDbEntity
  8
0
 62
1
100
AcDbLine
 10
13.28775002279144
 20
-14.16602867902838
 30
0.0
 11
4.0
 21
-95.0
 31
0.0
  0
LINE
  5
18A
330
17F
100
AcDbEntity
  8
0
 62
1
100
AcDbLine
 10
-4.0
 20
-95.0
 30
0.0
 11
-13.28775002280599
 21
-14.16602867902838
 31
0.0
  0
LINE
  5
18B
330
17F
100
AcDbEntity
  8
0
 62
1
100
AcDbLine
 10
-13.28775002280599
 20
-14.16602867902838
 30
0.0
 11
-13.28775002280599
 21
6.712249977186728
 31
0.0
  0
LINE
  5
18C
330
17F
100
AcDbEntity
  8
0
 62
1
100
AcDbLine
 10
13.28775002279144
 20
6.712249977186728
 30
0.0
 11
13.28775002279144
 21
-14.16602867902838
 31
0.0
  0
LWPOLYLINE
  5
18D
330
17F
100
AcDbEntity
  8
0
 62
1
100
AcDbPolyline
 90
4
 70
0
 10
-15.82815883938747
 20
-10.0
 10
-53.0
 20
-10.0
 10
-53.0
 20
10.0
 10
-15.82815883938747
 20
10.0
  0
LINE
  5
18E
330
17F
100
AcDbEntity
  8
0
 62
1
100
AcDbLine
 10
-53.0
 20
4.646649645350406
 30
0.0
 11
-46.02962448445032
 21
10.0
 31
0.0
  0
LINE
  5
18F
330
17F
100
AcDbEntity
  8
0
 62
1
100
AcDbLine
 10
-53.0
 20
-4.646649645350406
 30
0.0
 11
-46.02962448445032
 21
-10.0
 31
0.0
  0
ENDBLK
  5
181
330
17F
100
AcDbEntity
  8
0
100
AcDbBlockEnd
  0
BLOCK
  5
191
330
190
100
AcDbEntity
  8
0
100
AcDbBlockBegin
  2
HL011-1-3
 70
0
 10
0.0
 20
0.0
 30
0.0
  3
HL011-1-3
  1

  0
LWPOLYLINE
  5
193
330
190
100
AcDbEntity
  8
0
 62
1
100
AcDbPolyline
 90
2
 70
0
 10
32.0
 20
42.5
 10
32.0
 20
32.5
  0
LWPOLYLINE
  5
194
330
190
100
AcDbEntity
  8
0
 62
1
100
AcDbPolyline
 90
6
 70
0
 10
32.0
 20
28.0
 10
32.0
 20
21.0
 10
3.0
 20
21.0
 10
3.0
 20
54.0
 10
32.0
 20
54.0
 10
32.0
 20
47.0
  0
LINE
  5
195
330
190
100
AcDbEntity
  8
0
 62
1
100
AcDbLine
 10
20.0
 20
54.0
 30
0.0
 11
20.0
 21
21.0
 31
0.0
  0
LINE
  5
196
330
190
100
AcDbEntity
  8
0
 62
1
100
AcDbLine
 10
20.0
 20
47.0
 30
0.0
 11
32.0
 21
47.0
 31
0.0
  0
LINE
  5
197
330
190
100
AcDbEntity
  8
0
 62
1
100
AcDbLine
 10
20.0
 20
28.0
 30
0.0
 11
32.0
 21
28.0
 31
0.0
  0
LINE
  5
198
330
190
100
AcDbEntity
  8
0
 62
1
100
AcDbLine
 10
32.0
 20
42.5
 30
0.0
 11
20.0
 21
42.5
 31
0.0
  0
LINE
  5
199
330
190
100
AcDbEntity
  8
0
 62
1
100
AcDbLine
 10
32.0
 20
32.5
 30
0.0
 11
20.0
 21
32.5
 31
0.0
  0
LWPOLYLINE
  5
19A
330
190
100
AcDbEntity
  8
0
 62
1
100
AcDbPolyline
 90
6
 70
0
 10
32.0
 20
19.0
 10
32.0
 20
0.0
 10
0.0
 20
0.0
 10
0.0
 20
75.0
 10
32.0
 20
75.0
 10
32.0
 20
56.0
  0
CIRCLE
  5
19B
330
190
100
AcDbEntity
  8
0
 62
1
100
AcDbCircle
 10
5.5
 20
62.5
 30
0.0
 40
3.0
  0
CIRCLE
  5
19C
330
190
100
AcDbEntity
  8
0
 62
1
100
AcDbCircle
 10
5.5
 20
37.5
 30
0.0
 40
3.0
  0
CIRCLE
  5
19D
330
190
100
AcDbEntity
  8
0
 62
1
100
AcDbCircle
 10
5.5
 20
12.5
 30
0.0
 40
3.0
  0
LINE
  5
19E
330
190
100
AcDbEntity
  8
0
 62
1
100
AcDbLine
 10
11.0
 20
56.0
 30
0.0
 11
11.00000000001455
 21
19.0
 31
0.0
  0
LINE
  5
19F
330
190
100
AcDbEntity
  8
0
 62
1
100
AcDbLine
 10
11.0
 20
56.0
 30
0.0
 11
32.0
 21
56.0
 31
0.0
  0
LINE
  5
1A0
330
190
100
AcDbEntity
  8
0
 62
1
100
AcDbLine
 10
11.0
 20
19.0
 30
0.0
 11
32.0
 21
19.0
 31
0.0
  0
LWPOLYLINE
  5
1A1
330
190
100
AcDbEntity
  8
0
 62
1
100
AcDbPolyline
 90
4
 70
1
 10
10.0
 20
67.0
 10
32.0
 20
67.0
 10
32.0
 20
65.0
 10
10.0
 20
65.0
  0
LWPOLYLINE
  5
1A2
330
190
100
AcDbEntity
  8
0
 62
1
100
AcDbPolyline
 90
4
 70
1
 10
10.0
 20
8.0
 10
32.0
 20
8.0
 10
32.0
 20
10.0
 10
10.0
 20
10.0
  0
LINE
  5
1A3
330
190
100
AcDbEntity
  8
0
 62
1
100
AcDbLine
 10
29.5
 20
48.99999999997817
 30
0.0
 11
29.5
 21
75.0
 31
0.0
  0
LINE
  5
1A4
330
190
100
AcDbEntity
  8
0
 62
1
100
AcDbLine
 10
29.5
 20
78.0
 30
0.0
 11
29.5
 21
81.0
 31
0.0
  0
LINE
  5
1A5
330
190
100
AcDbEntity
  8
0
 62
1
100
AcDbLine
 10
29.5
 20
81.0
 30
0.0
 11
22.5
 21
81.0
 31
0.0
  0
LINE
  5
1A6
330
190
100
AcDbEntity
  8
0
 62
1
100
AcDbLine
 10
22.5
 20
81.0
 30
0.0
 11
22.5
 21
78.0
 31
0.0
  0
LINE
  5
1A7
330
190
100
AcDbEntity
  8
0
 62
1
100
AcDbLine
 10
22.5
 20
75.0
 30
0.0
 11
22.5
 21
49.00000000000727
 31
0.0
  0
LINE
  5
1A8
330
190
100
AcDbEntity
  8
0
 62
1
100
AcDbLine
 10
29.5
 20
78.0
 30
0.0
 11
28.5
 21
77.99999999999272
 31
0.0
  0
LINE
  5
1A9
330
190
100
AcDbEntity
  8
0
 62
1
100
AcDbLine
 10
23.5
 20
77.99999999999272
 30
0.0
 11
22.5
 21
78.0
 31
0.0
  0
LINE
  5
1AA
330
190
100
AcDbEntity
  8
0
 62
1
100
AcDbLine
 10
23.5
 20
75.0
 30
0.0
 11
23.5
 21
78.0
 31
0.0
  0
LINE
  5
1AB
330
190
100
AcDbEntity
  8
0
 62
1
100
AcDbLine
 10
28.5
 20
75.0
 30
0.0
 11
28.5
 21
78.0
 31
0.0
  0
LINE
  5
1AC
330
190
100
AcDbEntity
  8
0
 62
1
100
AcDbLine
 10
23.5
 20
75.0
 30
0.0
 11
22.5
 21
75.0
 31
0.0
  0
LINE
  5
1AD
330
190
100
AcDbEntity
  8
0
 62
1
100
AcDbLine
 10
28.5
 20
75.0
 30
0.0
 11
29.5
 21
75.0
 31
0.0
  0
LINE
  5
1AE
330
190
100
AcDbEntity
  8
0
 62
1
100
AcDbLine
 10
24.0
 20
44.0
 30
0.0
 11
28.0
 21
44.0
 31
0.0
  0
LINE
  5
1AF
330
190
100
AcDbEntity
  8
0
 62
1
100
AcDbLine
 10
29.5
 20
49.0
 30
0.0
 11
28.0
 21
44.0
 31
0.0
  0
LINE
  5
1B0
330
190
100
AcDbEntity
  8
0
 62
1
100
AcDbLine
 10
22.5
 20
49.0
 30
0.0
 11
24.0
 21
44.0
 31
0.0
  0
LINE
  5
1B1
330
190
100
AcDbEntity
  8
0
 62
1
100
AcDbLine
 10
29.5
 20
26.00000000002183
 30
0.0
 11
29.5
 21
0.0
 31
0.0
  0
LINE
  5
1B2
330
190
100
AcDbEntity
  8
0
 62
1
100
AcDbLine
 10
29.5
 20
-3.0
 30
0.0
 11
29.5
 21
-6.0
 31
0.0
  0
LINE
  5
1B3
330
190
100
AcDbEntity
  8
0
 62
1
100
AcDbLine
 10
29.5
 20
-6.0
 30
0.0
 11
22.5
 21
-6.0
 31
0.0
  0
LINE
  5
1B4
330
190
100
AcDbEntity
  8
0
 62
1
100
AcDbLine
 10
22.5
 20
-6.0
 30
0.0
 11
22.5
 21
-3.0
 31
0.0
  0
LINE
  5
1B5
330
190
100
AcDbEntity
  8
0
 62
1
100
AcDbLine
 10
22.5
 20
0.0
 30
0.0
 11
22.5
 21
25.99999999999273
 31
0.0
  0
LINE
  5
1B6
330
190
100
AcDbEntity
  8
0
 62
1
100
AcDbLine
 10
29.5
 20
-3.0
 30
0.0
 11
28.5
 21
-2.999999999992724
 31
0.0
  0
LINE
  5
1B7
330
190
100
AcDbEntity
  8
0
 62
1
100
AcDbLine
 10
23.5
 20
-2.999999999992724
 30
0.0
 11
22.5
 21
-3.0
 31
0.0
  0
LINE
  5
1B8
330
190
100
AcDbEntity
  8
0
 62
1
100
AcDbLine
 10
23.5
 20
0.0
 30
0.0
 11
23.5
 21
-3.0
 31
0.0
  0
LINE
  5
1B9
330
190
100
AcDbEntity
  8
0
 62
1
100
AcDbLine
 10
28.5
 20
0.0
 30
0.0
 11
28.5
 21
-3.0
 31
0.0
  0
LINE
  5
1BA
330
190
100
AcDbEntity
  8
0
 62
1
100
AcDbLine
 10
23.5
 20
0.0
 30
0.0
 11
22.5
 21
0.0
 31
0.0
  0
LINE
  5
1BB
330
190
100
AcDbEntity
  8
0
 62
1
100
AcDbLine
 10
28.5
 20
0.0
 30
0.0
 11
29.5
 21
0.0
 31
0.0
  0
LINE
  5
1BC
330
190
100
AcDbEntity
  8
0
 62
1
100
AcDbLine
 10
24.0
 20
31.0
 30
0.0
 11
28.0
 21
31.0
 31
0.0
  0
LINE
  5
1BD
330
190
100
AcDbEntity
  8
0
 62
1
100
AcDbLine
 10
29.5
 20
26.0
 30
0.0
 11
28.0
 21
31.0
 31
0.0
  0
LINE
  5
1BE
330
190
100
AcDbEntity
  8
0
 62
1
100
AcDbLine
 10
22.5
 20
26.0
 30
0.0
 11
24.0
 21
31.0
 31
0.0
  0
ENDBLK
  5
192
330
190
100
AcDbEntity
  8
0
100
AcDbBlockEnd
  0
BLOCK
  5
1C0
330
1BF
100
AcDbEntity
  8
0
100
AcDbBlockBegin
  2
MS722
 70
0
 10
0.0
 20
0.0
 30
0.0
  3
MS722
  1

  0
INSERT
  5
1C2
330
1BF
100
AcDbEntity
  8
0
100
AcDbBlockReference
  2
SDGFGHGHG
 10
-860940.444367795
 20
-570770.5213009797
 30
0.0
  0
INSERT
  5
1C4
330
1BF
100
AcDbEntity
  8
0
100
AcDbBlockReference
  2
SĐFHGGH
 10
-860940.444367795
 20
-570705.4118046993
 30
0.0
  0
ENDBLK
  5
1C1
330
1BF
100
AcDbEntity
  8
0
100
AcDbBlockEnd
  0
BLOCK
  5
1C7
330
1C6
100
AcDbEntity
  8
0
100
AcDbBlockBegin
  2
om cot
 70
0
 10
0.0
 20
0.0
 30
0.0
  3
om cot
  1

  0
LWPOLYLINE
  5
1C9
330
1C6
100
AcDbEntity
  8
0
 62
5
100
AcDbPolyline
 90
4
 70
1
 10
98410.52016021528
 20
36994.67509739332
 10
98412.52016021527
 20
36994.67509739332
 10
98412.52016021527
 20
36944.67509739332
 10
98410.52016021528
 20
36944.67509739332
  0
LWPOLYLINE
  5
1CA
330
1C6
100
AcDbEntity
  8
0
 62
5
100
AcDbPolyline
 90
4
 70
1
 10
98413.52016021527
 20
36994.67509739332
 10
98415.5201602153
 20
36994.67509739332
 10
98415.5201602153
 20
36944.67509739332
 10
98413.52016021527
 20
36944.67509739332
  0
LWPOLYLINE
  5
1CB
330
1C6
100
AcDbEntity
  8
0
 62
5
100
AcDbPolyline
 90
4
 70
0
 10
98313.52016021527
 20
36944.67509739332
 10
98410.52016021528
 20
36944.67509739332
 10
98410.52016021528
 20
36994.67509739332
 10
98313.52016021527
 20
36994.67509739332
  0
LWPOLYLINE
  5
1CC
330
1C6
100
AcDbEntity
  8
0
 62
5
100
AcDbPolyline
 90
4
 70
0
 10
98308.52016021527
 20
36994.67509739332
 10
98211.52016021522
 20
36994.67509739332
 10
98211.52016021522
 20
36944.67509739332
 10
98308.52016021527
 20
36944.67509739332
  0
LINE
  5
1CD
330
1C6
100
AcDbEntity
  8
0
 62
2
100
AcDbLine
 10
98403.02016021528
 20
36969.67509739332
 30
0.0
 11
98423.0201602153
 21
36969.67509739332
 31
0.0
  0
LWPOLYLINE
  5
1CE
330
1C6
100
AcDbEntity
  8
0
 62
5
100
AcDbPolyline
 90
4
 70
1
 10
98313.52016021527
 20
36994.67509739332
 10
98315.52016021527
 20
36994.67509739332
 10
98315.52016021527
 20
36944.67509739332
 10
98313.52016021527
 20
36944.67509739332
  0
LWPOLYLINE
  5
1CF
330
1C6
100
AcDbEntity
  8
0
 62
5
100
AcDbPolyline
 90
4
 70
1
 10
98306.52016021527
 20
36994.67509739332
 10
98308.52016021527
 20
36994.67509739332
 10
98308.52016021527
 20
36944.67509739332
 10
98306.52016021527
 20
36944.67509739332
  0
LINE
  5
1D0
330
1C6
100
AcDbEntity
  8
0
 62
2
100
AcDbLine
 10
98294.52176977955
 20
36969.67509739332
 30
0.0
 11
98327.51855065097
 21
36969.67509739332
 31
0.0
  0
ENDBLK
  5
1C8
330
1C6
100
AcDbEntity
  8
0
100
AcDbBlockEnd
  0
BLOCK
  5
1D2
330
1D1
100
AcDbEntity
  8
0
100
AcDbBlockBegin
  2
KHUNG CHUẨN
 70
2
 10
0.0
 20
0.0
 30
0.0
  3
KHUNG CHUẨN
  1

  0
LWPOLYLINE
  5
1D4
330
1D1
100
AcDbEntity
  8
0
 62
7
100
AcDbPolyline
 90
4
 70
1
 10
16919.24922090965
 20
-26555.15926993403
 10
19889.24922091007
 20
-26555.15926993403
 10
19889.24922091007
 20
-28655.15926993435
 10
16919.24922090965
 20
-28655.15926993435
  0
LINE
  5
1D5
330
1D1
100
AcDbEntity
  8
0
 62
7
100
AcDbLine
 10
18939.24922090965
 20
-28595.15926993434
 30
0.0
 11
16919.24922090965
 21
-28595.15926993434
 31
0.0
  0
LINE
  5
1D6
330
1D1
100
AcDbEntity
  8
0
 62
7
100
AcDbLine
 10
19889.24922091007
 20
-28535.15926993435
 30
0.0
 11
16919.24922090965
 21
-28535.15926993435
 31
0.0
  0
LINE
  5
1D7
330
1D1
100
AcDbEntity
  8
0
 62
7
100
AcDbLine
 10
17239.24922090965
 20
-28535.15926993435
 30
0.0
 11
17239.24922090965
 21
-28595.15926993434
 31
0.0
  0
LINE
  5
1D8
330
1D1
100
AcDbEntity
  8
0
 62
7
100
AcDbLine
 10
17809.24922090965
 20
-28535.15926993435
 30
0.0
 11
17809.24922090965
 21
-28655.15926993435
 31
0.0
  0
LINE
  5
1D9
330
1D1
100
AcDbEntity
  8
0
 62
7
100
AcDbLine
 10
18599.24922090965
 20
-28535.15926993435
 30
0.0
 11
18599.24922090965
 21
-28655.15926993435
 31
0.0
  0
LINE
  5
1DA
330
1D1
100
AcDbEntity
  8
0
 62
7
100
AcDbLine
 10
18939.24922090965
 20
-28535.15926993435
 30
0.0
 11
18939.24922090965
 21
-28655.15926993435
 31
0.0
  0
LINE
  5
1DB
330
1D1
100
AcDbEntity
  8
0
 62
7
100
AcDbLine
 10
19779.24922091007
 20
-28535.15926993435
 30
0.0
 11
19779.24922091007
 21
-28655.15926993435
 31
0.0
  0
MTEXT
  5
1DC
330
1D1
100
AcDbEntity
  8
0
 62
2
100
AcDbMText
 10
16919.24922090965
 20
-28565.15926993435
 30
0.0
 40
20.0
 41
917.6339389950801
 46
60.00000000000113
 71
4
 72
5
  1
  Thiết kế :
  7
Arial
  0
MTEXT
  5
1DD
330
1D1
100
AcDbEntity
  8
0
 62
2
100
AcDbMText
 10
16919.24922090965
 20
-28625.15926993435
 30
0.0
 40
20.0
 41
917.6339389950801
 46
60.00000000000113
 71
4
 72
5
  1
  CNC :
  7
Arial
  0
MTEXT
  5
1DE
330
1D1
100
AcDbEntity
  8
0
 62
2
100
AcDbMText
 10
17239.24922090965
 20
-28565.15926993435
 30
0.0
 40
20.0
 41
917.6339389950801
 46
60.00000000000113
 71
4
 72
5
  1
  Khách hàng :
  7
Arial
  0
MTEXT
  5
1DF
330
1D1
100
AcDbEntity
  8
0
 62
2
100
AcDbMText
 10
17466.28942955682
 20
-28625.15926993435
 30
0.0
 40
20.0
 41
556.6509010178333
 46
60.00000000000113
 71
4
 72
5
  1
  Ngày giao:
  7
Arial
  0
MTEXT
  5
1E0
330
1D1
100
AcDbEntity
  8
0
 62
2
100
AcDbMText
 10
17809.24922090965
 20
-28565.15926993435
 30
0.0
 40
20.0
 41
917.6339389950801
 46
60.00000000000113
 71
4
 72
5
  1
  Tên sản phẩm :
  7
Arial
  0
MTEXT
  5
1E1
330
1D1
100
AcDbEntity
  8
0
 62
2
100
AcDbMText
 10
17809.24922090965
 20
-28625.15926993435
 30
0.0
 40
20.0
 41
917.6339389950801
 46
60.00000000000113
 71
4
 72
5
  1
  Kích thước :
  7
Arial
  0
MTEXT
  5
1E2
330
1D1
100
AcDbEntity
  8
0
 62
2
100
AcDbMText
 10
18599.24922090965
 20
-28565.15926993435
 30
0.0
 40
20.0
 41
917.6339389950801
 46
60.00000000000113
 71
4
 72
5
  1
  Số lượng :
  7
Arial
  0
MTEXT
  5
1E3
330
1D1
100
AcDbEntity
  8
0
 62
2
100
AcDbMText
 10
18599.24922090965
 20
-28625.15926993435
 30
0.0
 40
20.0
 41
917.6339389950801
 46
60.00000000000113
 71
4
 72
5
  1
  Loại tôn :
  7
Arial
  0
MTEXT
  5
1E4
330
1D1
100
AcDbEntity
  8
0
 62
2
100
AcDbMText
 10
18993.40450252067
 20
-28595.15926993434
 30
0.0
 40
20.0
 41
108.3105632220314
 46
120.0000000000011
 71
5
 72
5
  1
Thông\Ptin :
  7
Arial
  0
MTEXT
  5
1E5
330
1D1
100
AcDbEntity
  8
0
 62
2
100
AcDbMText
 10
19834.24922091007
 20
-28565.15926993435
 30
0.0
 40
20.0
 41
110.0000000000065
 46
60.00000000000113
 71
5
 72
5
  1
Tờ
  7
Arial
  0
LINE
  5
1E6
330
1D1
100
AcDbEntity
  8
0
 62
7
100
AcDbLine
 10
19047.55978413167
 20
-28560.15926993435
 30
0.0
 11
19047.55978413167
 21
-28630.15926993435
 31
0.0
  0
MTEXT
  5
1E7
330
1D1
100
AcDbEntity
  8
0
 62
2
100
AcDbMText
 10
18548.56684883467
 20
-28625.15926993435
 30
0.0
 40
20.0
 41
73.8305401162098
 46
60.00000000000113
 71
4
 72
5
  1
mm
  7
Arial
  0
MTEXT
  5
1E8
330
1D1
100
AcDbEntity
  8
0
 62
2
100
AcDbMText
 10
18897.93889973559
 20
-28565.15926993435
 30
0.0
 40
20.0
 41
63.51722131864801
 46
60.00000000000113
 71
4
 72
5
  1
cái
  7
Arial
  0
MTEXT
  5
1E9
330
1D1
100
AcDbEntity
  8
0
 62
2
100
AcDbMText
 10
18889.20613294428
 20
-28625.15926993435
 30
0.0
 40
20.0
 41
917.6339389950801
 46
60.00000000000113
 71
4
 72
5
  1
mm
  7
Arial
  0
LINE
  5
1EA
330
1D1
100
AcDbEntity
  8
0
 62
7
100
AcDbLine
 10
17139.24922090965
 20
-28595.15926993434
 30
0.0
 11
17139.24922090965
 21
-28655.15926993435
 31
0.0
  0
MTEXT
  5
1EB
330
1D1
100
AcDbEntity
  8
0
 62
2
100
AcDbMText
 10
17134.01855837237
 20
-28625.15926993435
 30
0.0
 40
20.0
 41
556.6509010178333
 46
60.00000000000113
 71
4
 72
5
  1
  Ngày nhận :
  7
Arial
  0
LINE
  5
1EC
330
1D1
100
AcDbEntity
  8
0
 62
7
100
AcDbLine
 10
17474.24922090965
 20
-28595.15926993434
 30
0.0
 11
17474.24922090965
 21
-28655.15926993435
 31
0.0
  0
ATTDEF
  5
1ED
330
1D1
100
AcDbEntity
  8
0
 62
3
100
AcDbText
 10
18030.57595183183
 20
-28580.1015331953
 30
0.0
 40
20.0
  1
............
  7
Arial
100
AcDbAttributeDefinition
  3
SẢN PHẨM
  2
#03
 70
0
280
1
 71
1
 72
0
  0
ATTDEF
  5
1EE
330
1D1
100
AcDbEntity
  8
0
 62
3
100
AcDbText
 10
18002.0078672091
 20
-28634.73750821321
 30
0.0
 40
20.0
  1

  7
Arial
100
AcDbAttributeDefinition
  3
KÍCH THƯỚC
  2
#07
 70
0
280
1
 71
1
 72
0
  0
ATTDEF
  5
1EF
330
1D1
100
AcDbEntity
  8
0
 62
3
100
AcDbText
 10
18751.69842633112
 20
-28580.1015331953
 30
0.0
 40
20.0
  1

  7
Arial
100
AcDbAttributeDefinition
  3
SỐ LƯỢNG
  2
#08
 70
0
280
1
 71
1
 72
0
  0
ATTDEF
  5
1F0
330
1D1
100
AcDbEntity
  8
0
 62
3
100
AcDbText
 10
18753.84501617292
 20
-28632.59717057646
 30
0.0
 40
20.0
  1

  7
Arial
100
AcDbAttributeDefinition
  3
LOẠI TÔN
  2
#09
 70
0
280
1
 71
1
 72
0
  0
ATTDEF
  5
1F1
330
1D1
100
AcDbEntity
  8
0
 62
3
100
AcDbText
 10
19064.78379112245
 20
-28580.1015331953
 30
0.0
 40
20.0
  1

  7
Arial
100
AcDbAttributeDefinition
  3
CHÚ Ý 1
  2
#10
 70
0
280
1
 71
1
 72
0
  0
ATTDEF
  5
1F2
330
1D1
100
AcDbEntity
  8
0
 62
3
100
AcDbText
 10
19060.29593417999
 20
-28625.68604652386
 30
0.0
 40
20.0
  1

  7
Arial
100
AcDbAttributeDefinition
  3
CHÚ Ý 2
  2
#11
 70
0
280
1
 71
1
 72
0
  0
ATTDEF
  5
1F3
330
1D1
100
AcDbEntity
  8
0
 62
3
100
AcDbText
 10
17431.39468632692
 20
-28580.1015331953
 30
0.0
 40
20.0
  1

  7
Arial
100
AcDbAttributeDefinition
  3
KHÁCH HÀNG
  2
#02
 70
0
280
1
 71
1
 72
0
  0
ATTDEF
  5
1F4
330
1D1
100
AcDbEntity
  8
0
 62
3
100
AcDbText
 10
17308.45246357222
 20
-28633.02044838126
 30
0.0
 40
20.0
  1

  7
Arial
100
AcDbAttributeDefinition
  3
NGÀY NHẬN
  2
#05
 70
0
280
1
 71
1
 72
0
  0
ATTDEF
  5
1F5
330
1D1
100
AcDbEntity
  8
0
 62
3
100
AcDbText
 10
17632.65306459898
 20
-28633.73138801003
 30
0.0
 40
20.0
  1

  7
Arial
100
AcDbAttributeDefinition
  3
NGÀY GIAO
  2
#06
 70
0
280
1
 71
1
 72
0
  0
ATTDEF
  5
1F6
330
1D1
100
AcDbEntity
  8
0
 62
3
100
AcDbText
 10
17055.57441422327
 20
-28580.1015331953
 30
0.0
 40
20.0
  1

  7
Arial
100
AcDbAttributeDefinition
  3
THIẾT KẾ
  2
#01
 70
0
280
1
 71
1
 72
0
  0
ATTDEF
  5
1F7
330
1D1
100
AcDbEntity
  8
0
 62
3
100
AcDbText
 10
17024.76529237577
 20
-28634.61999292788
 30
0.0
 40
20.0
  1

  7
Arial
100
AcDbAttributeDefinition
  3
CNC
  2
#04
 70
0
280
1
 71
1
 72
0
  0
ATTDEF
  5
1F8
330
1D1
100
AcDbEntity
  8
0
 62
3
100
AcDbText
 10
19806.4585301708
 20
-28628.91186895216
 30
0.0
 40
20.0
  1

  7
Arial
100
AcDbAttributeDefinition
  3
TỜ
  2
#12
 70
0
280
1
 71
1
 72
0
  0
ENDBLK
  5
1D3
330
1D1
100
AcDbEntity
  8
0
100
AcDbBlockEnd
  0
BLOCK
  5
1FA
330
1F9
100
AcDbEntity
  8
0
100
AcDbBlockBegin
  2
HL011-1-4
 70
0
 10
0.0
 20
0.0
 30
0.0
  3
HL011-1-4
  1

  0
CIRCLE
  5
1FC
330
1F9
100
AcDbEntity
  8
0
 62
1
100
AcDbCircle
 10
26.0
 20
17.5
 30
0.0
 40
3.5
  0
ARC
  5
1FD
330
1F9
100
AcDbEntity
  8
0
 62
1
100
AcDbCircle
 10
26.0
 20
17.5
 30
0.0
 40
6.0
100
AcDbArc
 50
216.8698976456773
 51
90.0
  0
LINE
  5
1FE
330
1F9
100
AcDbEntity
  8
0
 62
1
100
AcDbLine
 10
7.0
 20
23.5
 30
0.0
 11
26.0
 21
23.5
 31
0.0
  0
LINE
  5
1FF
330
1F9
100
AcDbEntity
  8
0
 62
1
100
AcDbLine
 10
11.00000000001455
 20
0.0
 30
0.0
 11
0.0
 21
0.0
 31
0.0
  0
LINE
  5
200
330
1F9
100
AcDbEntity
  8
0
 62
1
100
AcDbLine
 10
11.0
 20
0.0
 30
0.0
 11
11.0
 21
19.49999999999272
 31
0.0
  0
LWPOLYLINE
  5
201
330
1F9
100
AcDbEntity
  8
0
 62
2
100
AcDbPolyline
 90
4
 70
0
 10
2.5
 20
0.0
 10
2.5
 20
12.0
 10
8.5
 20
12.0
 10
8.5
 20
0.0
  0
LINE
  5
202
330
1F9
100
AcDbEntity
  8
0
 62
1
100
AcDbLine
 10
11.0
 20
19.5
 30
0.0
 11
17.0
 21
19.5
 31
0.0
  0
LINE
  5
203
330
1F9
100
AcDbEntity
  8
0
 62
1
100
AcDbLine
 10
17.0
 20
19.5
 30
0.0
 11
21.19999999999709
 21
13.90000000000145
 31
0.0
  0
LINE
  5
204
330
1F9
100
AcDbEntity
  8
0
 62
1
100
AcDbLine
 10
0.0
 20
0.0
 30
0.0
 11
0.0
 21
10.0
 31
0.0
  0
LINE
  5
205
330
1F9
100
AcDbEntity
  8
0
 62
1
100
AcDbLine
 10
7.0
 20
23.5
 30
0.0
 11
0.0
 21
10.0
 31
0.0
  0
LWPOLYLINE
  5
206
330
1F9
100
AcDbEntity
  8
0
 62
1
100
AcDbPolyline
 90
4
 70
0
 10
5.703703703708015
 20
21.0
 10
3.0
 20
21.0
 10
3.0
 20
23.5
 10
7.0
 20
23.5
  0
HATCH
  5
207
330
1F9
100
AcDbEntity
  8
0
 62
2
100
AcDbHatch
 10
0.0
 20
0.0
 30
0.0
210
0.0
220
0.0
230
1.0
  2
ANSI31
 70
0
 71
0
 91
1
 92
7
 72
0
 73
1
 93
4
 10
2.5
 20
0.0
 10
8.5
 20
0.0
 10
8.5
 20
12.0
 10
2.5
 20
12.0
 97
0
 75
0
 76
1
 52
0.0
 41
0.5
 77
0
 78
1
 53
45.0
 43
0.0
 44
0.0
 45
-1.122532015133643
 46
1.122532015133644
 79
0
 47
0.0382113821138211
 98
1
 10
5.083665481544052
 20
8.387398371310882
  0
ENDBLK
  5
1FB
330
1F9
100
AcDbEntity
  8
0
100
AcDbBlockEnd
  0
BLOCK
  5
209
330
208
100
AcDbEntity
  8
0
100
AcDbBlockBegin
  2
HL036-1-2
 70
0
 10
0.0
 20
0.0
 30
0.0
  3
HL036-1-2
  1

  0
LINE
  5
20B
330
208
100
AcDbEntity
  8
Ghi chu
 62
1
100
AcDbLine
 10
0.0
 20
0.0
 30
0.0
 11
-15.39999999999418
 21
0.0
 31
0.0
  0
LINE
  5
20C
330
208
100
AcDbEntity
  8
Ghi chu
 62
1
100
AcDbLine
 10
0.0
 20
1.999999999992724
 30
0.0
 11
-13.39999999999418
 21
1.999999999992724
 31
0.0
  0
ARC
  5
20D
330
208
100
AcDbEntity
  8
Ghi chu
 62
1
100
AcDbCircle
 10
-13.39999999999418
 20
3.0
 30
0.0
 40
1.0
100
AcDbArc
 50
180.0
 51
270.0
  0
LINE
  5
20E
330
208
100
AcDbEntity
  8
Ghi chu
 62
1
100
AcDbLine
 10
0.0
 20
0.0
 30
0.0
 11
0.0
 21
1.999999999992724
 31
0.0
  0
ARC
  5
20F
330
208
100
AcDbEntity
  8
Ghi chu
 62
1
100
AcDbCircle
 10
-15.39999999999418
 20
0.999999999992724
 30
0.0
 40
1.0
100
AcDbArc
 50
180.0
 51
270.0
  0
LINE
  5
210
330
208
100
AcDbEntity
  8
Ghi chu
 62
1
100
AcDbLine
 10
-14.39999999999418
 20
3.0
 30
0.0
 11
-14.39999999999418
 21
11.86544318653614
 31
0.0
  0
ARC
  5
211
330
208
100
AcDbEntity
  8
Ghi chu
 62
1
100
AcDbCircle
 10
-13.39999999999418
 20
11.86544318653614
 30
0.0
 40
1.0
100
AcDbArc
 50
71.32539173677213
 51
180.0
  0
CIRCLE
  5
212
330
208
100
AcDbEntity
  8
Ghi chu
 62
1
100
AcDbCircle
 10
-3.0
 20
13.69999999998981
 30
0.0
 40
2.1
  0
CIRCLE
  5
213
330
208
100
AcDbEntity
  8
Ghi chu
 62
1
100
AcDbCircle
 10
-3.0
 20
13.69999999998981
 30
0.0
 40
4.099999999999998
  0
LINE
  5
214
330
208
100
AcDbEntity
  8
Ghi chu
 62
1
100
AcDbLine
 10
-13.07980681549816
 20
12.81279545714642
 30
0.0
 11
-4.312792056429316
 21
9.815855690547323
 31
0.0
  0
LINE
  5
215
330
208
100
AcDbEntity
  8
Ghi chu
 62
1
100
AcDbLine
 10
-16.39999999999418
 20
0.999999999992724
 30
0.0
 11
-16.39999999999418
 21
14.00401710374717
 31
0.0
  0
ARC
  5
216
330
208
100
AcDbEntity
  8
Ghi chu
 62
1
100
AcDbCircle
 10
-15.39999999999418
 20
14.00401710374717
 30
0.0
 40
1.0
100
AcDbArc
 50
102.961620726614
 51
180.0
  0
LINE
  5
217
330
208
100
AcDbEntity
  8
Ghi chu
 62
1
100
AcDbLine
 10
-15.6242983273114
 20
14.97853763219609
 30
0.0
 11
-3.919623141991905
 21
17.69553416663257
 31
0.0
  0
LINE
  5
218
330
208
100
AcDbEntity
  8
Ghi chu
 62
1
100
AcDbLine
 10
-3.0
 20
17.80000000000291
 30
0.0
 11
-18.89999999999418
 21
17.80000000000291
 31
0.0
  0
LINE
  5
219
330
208
100
AcDbEntity
  8
Ghi chu
 62
1
100
AcDbLine
 10
-12.05524834657262
 20
15.80000000000291
 30
0.0
 11
-18.89999999999418
 21
15.80000000000291
 31
0.0
  0
LINE
  5
21A
330
208
100
AcDbEntity
  8
Ghi chu
 62
1
100
AcDbLine
 10
-18.89999999999418
 20
15.80000000000291
 30
0.0
 11
-18.89999999999418
 21
17.80000000000291
 31
0.0
  0
LINE
  5
21B
330
208
100
AcDbEntity
  8
Ghi chu
 62
1
100
AcDbLine
 10
-1.199999999999999
 20
1.999999999992724
 30
0.0
 11
-1.199999999999999
 21
0.0
 31
0.0
  0
LINE
  5
21C
330
208
100
AcDbEntity
  8
Ghi chu
 62
1
100
AcDbLine
 10
-6.199999999999999
 20
1.999999999992724
 30
0.0
 11
-6.199999999999999
 21
0.0
 31
0.0
  0
ENDBLK
  5
20A
330
208
100
AcDbEntity
  8
0
100
AcDbBlockEnd
  0
BLOCK
  5
21E
330
21D
100
AcDbEntity
  8
0
100
AcDbBlockBegin
  2
2565
 70
0
 10
0.0
 20
0.0
 30
0.0
  3
2565
  1

  0
LINE
  5
220
330
21D
100
AcDbEntity
  8
0
 62
5
100
AcDbLine
 10
168377.0473067406
 20
-2431.165782173921
 30
0.0
 11
168377.0473067406
 21
-2429.090401780733
 31
0.0
  0
LINE
  5
221
330
21D
100
AcDbEntity
  8
0
 62
5
100
AcDbLine
 10
168377.0473067406
 20
-2429.090401780733
 30
0.0
 11
168428.9318165708
 21
-2429.090401780733
 31
0.0
  0
ARC
  5
222
330
21D
100
AcDbEntity
  8
0
 62
5
100
AcDbCircle
 10
168529.5663676927
 20
-2431.165782173892
 30
0.0
 40
100.6559490705173
100
AcDbArc
 50
1.181439999006779
 51
178.8185600009932
  0
LINE
  5
223
330
21D
100
AcDbEntity
  8
0
 62
5
100
AcDbLine
 10
168630.2009188146
 20
-2429.090401780733
 30
0.0
 11
168682.0854286448
 21
-2429.090401780733
 31
0.0
  0
LINE
  5
224
330
21D
100
AcDbEntity
  8
0
 62
5
100
AcDbLine
 10
168682.0854286448
 20
-2429.090401780733
 30
0.0
 11
168682.0854286448
 21
-2431.165782173921
 31
0.0
  0
LINE
  5
225
330
21D
100
AcDbEntity
  8
0
 62
5
100
AcDbLine
 10
168682.0854286448
 20
-2431.165782173921
 30
0.0
 11
168628.14693637
 21
-2431.165782173921
 31
0.0
  0
ARC
  5
226
330
21D
100
AcDbEntity
  8
0
 62
5
100
AcDbCircle
 10
168529.5663676927
 20
-2431.165782173921
 30
0.0
 40
98.58056867731173
100
AcDbArc
 50
0.0
 51
180.0
  0
LINE
  5
227
330
21D
100
AcDbEntity
  8
0
 62
5
100
AcDbLine
 10
168430.9857990154
 20
-2431.165782173921
 30
0.0
 11
168377.0473067406
 21
-2431.165782173921
 31
0.0
  0
LINE
  5
228
330
21D
100
AcDbEntity
  8
0
 62
5
100
AcDbLine
 10
168377.0473067406
 20
-2436.354233156948
 30
0.0
 11
168377.0473067406
 21
-2438.429613550165
 31
0.0
  0
LINE
  5
229
330
21D
100
AcDbEntity
  8
0
 62
5
100
AcDbLine
 10
168377.0473067406
 20
-2438.429613550165
 30
0.0
 11
168428.9318165708
 21
-2438.429613550165
 31
0.0
  0
ARC
  5
22A
330
21D
100
AcDbEntity
  8
0
 62
5
100
AcDbCircle
 10
168529.5663676927
 20
-2436.354233156977
 30
0.0
 40
100.6559490705173
100
AcDbArc
 50
181.1814399990067
 51
358.8185600009932
  0
LINE
  5
22B
330
21D
100
AcDbEntity
  8
0
 62
5
100
AcDbLine
 10
168630.2009188146
 20
-2438.429613550165
 30
0.0
 11
168682.0854286448
 21
-2438.429613550165
 31
0.0
  0
LINE
  5
22C
330
21D
100
AcDbEntity
  8
0
 62
5
100
AcDbLine
 10
168682.0854286448
 20
-2438.429613550165
 30
0.0
 11
168682.0854286448
 21
-2436.354233156948
 31
0.0
  0
LINE
  5
22D
330
21D
100
AcDbEntity
  8
0
 62
5
100
AcDbLine
 10
168682.0854286448
 20
-2436.354233156948
 30
0.0
 11
168628.14693637
 21
-2436.354233156948
 31
0.0
  0
ARC
  5
22E
330
21D
100
AcDbEntity
  8
0
 62
5
100
AcDbCircle
 10
168529.5663676927
 20
-2436.354233156948
 30
0.0
 40
98.58056867731173
100
AcDbArc
 50
180.0
 51
0.0
  0
LINE
  5
22F
330
21D
100
AcDbEntity
  8
0
 62
5
100
AcDbLine
 10
168430.9857990154
 20
-2436.354233156948
 30
0.0
 11
168377.0473067406
 21
-2436.354233156948
 31
0.0
  0
LINE
  5
230
330
21D
100
AcDbEntity
  8
0
 62
5
100
AcDbLine
 10
168373.9128382022
 20
-2537.010182227503
 30
0.0
 11
168685.2198971832
 21
-2537.010182227503
 31
0.0
  0
LINE
  5
231
330
21D
100
AcDbEntity
  8
0
 62
5
100
AcDbLine
 10
168685.2198971832
 20
-2537.010182227503
 30
0.0
 11
168685.2198971832
 21
-2539.085562620661
 31
0.0
  0
LINE
  5
232
330
21D
100
AcDbEntity
  8
0
 62
5
100
AcDbLine
 10
168685.2198971832
 20
-2539.085562620661
 30
0.0
 11
168373.9128382022
 21
-2539.085562620661
 31
0.0
  0
LINE
  5
233
330
21D
100
AcDbEntity
  8
0
 62
5
100
AcDbLine
 10
168373.9128382022
 20
-2539.085562620661
 30
0.0
 11
168373.9128382022
 21
-2537.010182227503
 31
0.0
  0
LINE
  5
234
330
21D
100
AcDbEntity
  8
0
 62
2
100
AcDbLine
 10
168656.1431737297
 20
-2416.639789650566
 30
0.0
 11
168656.1431737297
 21
-2450.880225680303
 31
0.0
  0
LINE
  5
235
330
21D
100
AcDbEntity
  8
0
 62
2
100
AcDbLine
 10
168402.9895616557
 20
-2416.639789650566
 30
0.0
 11
168402.9895616557
 21
-2450.880225680303
 31
0.0
  0
LINE
  5
236
330
21D
100
AcDbEntity
  8
0
 62
5
100
AcDbLine
 10
168613.0746058182
 20
-2492.504610019358
 30
0.0
 11
168614.8546060424
 21
-2491.437462898059
 31
0.0
  0
LINE
  5
237
330
21D
100
AcDbEntity
  8
0
 62
5
100
AcDbLine
 10
168614.8546060424
 20
-2491.437462898059
 30
0.0
 11
168641.5332840746
 21
-2535.937468502176
 31
0.0
  0
LINE
  5
238
330
21D
100
AcDbEntity
  8
0
 62
5
100
AcDbLine
 10
168641.5332840746
 20
-2535.937468502176
 30
0.0
 11
168639.7532838505
 21
-2537.004615623475
 31
0.0
  0
LINE
  5
239
330
21D
100
AcDbEntity
  8
0
 62
5
100
AcDbLine
 10
168639.7532838505
 20
-2537.004615623475
 30
0.0
 11
168613.0746058182
 21
-2492.504610019358
 31
0.0
  0
LINE
  5
23A
330
21D
100
AcDbEntity
  8
0
 62
5
100
AcDbLine
 10
168446.0581295671
 20
-2492.504610019358
 30
0.0
 11
168444.278129343
 21
-2491.437462898059
 31
0.0
  0
LINE
  5
23B
330
21D
100
AcDbEntity
  8
0
 62
5
100
AcDbLine
 10
168444.278129343
 20
-2491.437462898059
 30
0.0
 11
168417.5994513107
 21
-2535.937468502176
 31
0.0
  0
LINE
  5
23C
330
21D
100
AcDbEntity
  8
0
 62
5
100
AcDbLine
 10
168417.5994513107
 20
-2535.937468502176
 30
0.0
 11
168419.3794515349
 21
-2537.004615623475
 31
0.0
  0
LINE
  5
23D
330
21D
100
AcDbEntity
  8
0
 62
5
100
AcDbLine
 10
168419.3794515349
 20
-2537.004615623475
 30
0.0
 11
168446.0581295671
 21
-2492.504610019358
 31
0.0
  0
LINE
  5
23E
330
21D
100
AcDbEntity
  8
0
 62
5
100
AcDbLine
 10
168373.9128382022
 20
-2540.123252817284
 30
0.0
 11
168685.2198971832
 21
-2540.123252817284
 31
0.0
  0
LINE
  5
23F
330
21D
100
AcDbEntity
  8
0
 62
5
100
AcDbLine
 10
168685.2198971832
 20
-2540.123252817284
 30
0.0
 11
168685.2198971832
 21
-2542.198633210501
 31
0.0
  0
LINE
  5
240
330
21D
100
AcDbEntity
  8
0
 62
5
100
AcDbLine
 10
168685.2198971832
 20
-2542.198633210501
 30
0.0
 11
168373.9128382022
 21
-2542.198633210501
 31
0.0
  0
LINE
  5
241
330
21D
100
AcDbEntity
  8
0
 62
5
100
AcDbLine
 10
168373.9128382022
 20
-2542.198633210501
 30
0.0
 11
168373.9128382022
 21
-2540.123252817284
 31
0.0
  0
LINE
  5
242
330
21D
100
AcDbEntity
  8
0
 62
2
100
AcDbLine
 10
168664.4660932511
 20
-2529.227505752962
 30
0.0
 11
168664.4660932511
 21
-2549.981309685041
 31
0.0
  0
LINE
  5
243
330
21D
100
AcDbEntity
  8
0
 62
2
100
AcDbLine
 10
168394.6666421343
 20
-2529.227505752962
 30
0.0
 11
168394.6666421343
 21
-2549.981309685041
 31
0.0
  0
ENDBLK
  5
21F
330
21D
100
AcDbEntity
  8
0
100
AcDbBlockEnd
  0
BLOCK
  5
245
330
244
100
AcDbEntity
  8
0
100
AcDbBlockBegin
  2
SDGFGHGHG
 70
0
 10
0.0
 20
0.0
 30
0.0
  3
SDGFGHGHG
  1

  0
LINE
  5
247
330
244
100
AcDbEntity
  8
HEATER
100
AcDbLine
 10
860892.9443677951
 20
570760.5213009797
 30
0.0
 11
860892.9443677951
 21
570780.5213009797
 31
0.0
  0
LINE
  5
248
330
244
100
AcDbEntity
  8
HEATER
100
AcDbLine
 10
860935.944367795
 20
570742.0213009797
 30
0.0
 11
860935.944367795
 21
570784.3053497317
 31
0.0
  0
LINE
  5
249
330
244
100
AcDbEntity
  8
HEATER
100
AcDbLine
 10
860944.944367795
 20
570742.0213009797
 30
0.0
 11
860944.944367795
 21
570784.3053497317
 31
0.0
  0
ARC
  5
24A
330
244
100
AcDbEntity
  8
HEATER
100
AcDbCircle
 10
860940.444367795
 20
570770.5213009797
 30
0.0
 40
14.5
100
AcDbArc
 50
288.0800126249186
 51
251.9199873760986
  0
LINE
  5
24B
330
244
100
AcDbEntity
  8
HEATER
100
AcDbLine
 10
860935.944367795
 20
570742.0213009797
 30
0.0
 11
860944.944367795
 21
570742.0213009797
 31
0.0
  0
LINE
  5
24C
330
244
100
AcDbEntity
  8
HEATER
100
AcDbLine
 10
860892.9443677951
 20
570780.5213009797
 30
0.0
 11
860931.5694281411
 21
570781.9880113245
 31
0.0
  0
LINE
  5
24D
330
244
100
AcDbEntity
  8
HEATER
100
AcDbLine
 10
860892.9443677951
 20
570760.5213009797
 30
0.0
 11
860931.5694281411
 21
570759.0545906347
 31
0.0
  0
LINE
  5
24E
330
244
100
AcDbEntity
  8
HEATER
100
AcDbLine
 10
860892.9443677951
 20
570771.8975213168
 30
0.0
 11
860906.3296893912
 21
570778.6620310972
 31
0.0
  0
LINE
  5
24F
330
244
100
AcDbEntity
  8
HEATER
100
AcDbLine
 10
860892.9443677951
 20
570769.1450806425
 30
0.0
 11
860906.3296893912
 21
570762.380570862
 31
0.0
  0
CIRCLE
  5
250
330
244
100
AcDbEntity
  8
HEATER
100
AcDbCircle
 10
860940.444367795
 20
570770.5213009797
 30
0.0
 40
3.078158209494111
  0
LINE
  5
251
330
244
100
AcDbEntity
  8
HEATER
100
AcDbLine
 10
860939.5447235582
 20
570773.4650567796
 30
0.0
 11
860939.5447235582
 21
570771.2753346086
 31
0.0
  0
LINE
  5
252
330
244
100
AcDbEntity
  8
HEATER
100
AcDbLine
 10
860939.5447235582
 20
570769.7672673506
 30
0.0
 11
860939.5447235582
 21
570767.5775451798
 31
0.0
  0
LINE
  5
253
330
244
100
AcDbEntity
  8
HEATER
100
AcDbLine
 10
860941.3440120325
 20
570773.4650567796
 30
0.0
 11
860941.3440120325
 21
570771.2753346086
 31
0.0
  0
LINE
  5
254
330
244
100
AcDbEntity
  8
HEATER
100
AcDbLine
 10
860941.3440120325
 20
570769.7672673506
 30
0.0
 11
860941.3440120325
 21
570767.5775451798
 31
0.0
  0
LINE
  5
255
330
244
100
AcDbEntity
  8
HEATER
100
AcDbLine
 10
860937.4599932797
 20
570771.2753346086
 30
0.0
 11
860939.5447235582
 21
570771.2753346086
 31
0.0
  0
LINE
  5
256
330
244
100
AcDbEntity
  8
HEATER
100
AcDbLine
 10
860941.3440120325
 20
570771.2753346086
 30
0.0
 11
860943.4287423106
 21
570771.2753346086
 31
0.0
  0
LINE
  5
257
330
244
100
AcDbEntity
  8
HEATER
100
AcDbLine
 10
860937.4599932797
 20
570769.7672673506
 30
0.0
 11
860939.5447235582
 21
570769.7672673506
 31
0.0
  0
LINE
  5
258
330
244
100
AcDbEntity
  8
HEATER
100
AcDbLine
 10
860941.3440120325
 20
570769.7672673506
 30
0.0
 11
860943.4287423106
 21
570769.7672673506
 31
0.0
  0
ENDBLK
  5
246
330
244
100
AcDbEntity
  8
0
100
AcDbBlockEnd
  0
BLOCK
  5
25A
330
259
100
AcDbEntity
  8
0
100
AcDbBlockBegin
  2
SĐFHGGH
 70
0
 10
0.0
 20
0.0
 30
0.0
  3
SĐFHGGH
  1

  0
ARC
  5
25C
330
259
100
AcDbEntity
  8
HEATER
100
AcDbCircle
 10
860940.444367795
 20
570705.4118046993
 30
0.0
 40
12.0
100
AcDbArc
 50
104.4775121859967
 51
165.5224878140032
  0
ARC
  5
25D
330
259
100
AcDbEntity
  8
HEATER
100
AcDbCircle
 10
860940.444367795
 20
570705.4118046993
 30
0.0
 40
12.0
100
AcDbArc
 50
194.4775121859968
 51
255.5224878140033
  0
ARC
  5
25E
330
259
100
AcDbEntity
  8
HEATER
100
AcDbCircle
 10
860940.444367795
 20
570705.4118046993
 30
0.0
 40
12.0
100
AcDbArc
 50
284.4775121859968
 51
345.5224878140032
  0
ARC
  5
25F
330
259
100
AcDbEntity
  8
HEATER
100
AcDbCircle
 10
860940.444367795
 20
570705.4118046993
 30
0.0
 40
12.0
100
AcDbArc
 50
14.47751218599677
 51
75.52248781400324
  0
LWPOLYLINE
  5
260
330
259
100
AcDbEntity
  8
HEATER
100
AcDbPolyline
 90
4
 70
0
 10
860943.4443677953
 20
570717.0307547379
 10
860943.4443677953
 20
570718.4118046995
 10
860937.4443677955
 20
570718.4118046995
 10
860937.4443677955
 20
570717.0307547379
  0
LWPOLYLINE
  5
261
330
259
100
AcDbEntity
  8
HEATER
100
AcDbPolyline
 90
4
 70
0
 10
860943.4443677953
 20
570693.7928546608
 10
860943.4443677953
 20
570692.4118046995
 10
860937.4443677955
 20
570692.4118046995
 10
860937.4443677955
 20
570693.7928546608
  0
LWPOLYLINE
  5
262
330
259
100
AcDbEntity
  8
HEATER
100
AcDbPolyline
 90
4
 70
0
 10
860952.0633178339
 20
570702.4118046995
 10
860953.4443677956
 20
570702.4118046995
 10
860953.4443677956
 20
570708.4118046993
 10
860952.0633178339
 20
570708.4118046993
  0
LWPOLYLINE
  5
263
330
259
100
AcDbEntity
  8
HEATER
100
AcDbPolyline
 90
4
 70
0
 10
860928.8254177567
 20
570702.4118046995
 10
860927.4443677953
 20
570702.4118046995
 10
860927.4443677953
 20
570708.4118046993
 10
860928.8254177567
 20
570708.4118046993
  0
ENDBLK
  5
25B
330
259
100
AcDbEntity
  8
0
100
AcDbBlockEnd
  0
BLOCK
  5
26E
330
26D
100
AcDbEntity
  8
0
100
AcDbBlockBegin
  2
_ArchTick
 70
0
 10
0.0
 20
0.0
 30
0.0
  3
_ArchTick
  1

  0
LWPOLYLINE
  5
270
330
26D
100
AcDbEntity
  8
0
 62
0
100
AcDbPolyline
 90
2
 70
0
 43
0.15
 10
-0.5
 20
-0.5
 10
0.5
 20
0.5
  0
ENDBLK
  5
26F
330
26D
100
AcDbEntity
  8
0
100
AcDbBlockEnd
  0
BLOCK
  5
29D
330
29C
100
AcDbEntity
  8
0
100
AcDbBlockBegin
  2
*D1
 70
1
 10
0.0
 20
0.0
 30
0.0
  3
*D1
  1

  0
LINE
  5
29F
330
29C
100
AcDbEntity
  8
0
 62
5
370
9
 48
3.0
440
16777216
100
AcDbLine
 10
2697.8477275216137
 20
3334.924911707043
 30
0.0
 11
2697.8477275216137
 21
3424.8093601788714
 31
0.0
  0
LINE
  5
2A0
330
29C
100
AcDbEntity
  8
0
 62
5
370
9
 48
3.0
440
16777216
100
AcDbLine
 10
3497.8477275216137
 20
3334.924911707043
 30
0.0
 11
3497.8477275216137
 21
3424.8093601788714
 31
0.0
  0
LINE
  5
2A1
330
29C
100
AcDbEntity
  8
0
 62
5
370
9
 48
3.0
440
16777216
100
AcDbLine
 10
2702.8477275216137
 20
3419.8093601788605
 30
0.0
 11
3492.8477275216137
 21
3419.8093601788605
 31
0.0
  0
LINE
  5
2A2
330
29C
100
AcDbEntity
  8
0
  6
ByBlock
 62
0
370
-2
100
AcDbLine
 10
2702.8477275216137
 20
3418.4696142288594
 30
0.0
 11
2697.8477275216137
 21
3419.8093601788605
 31
0.0
  0
LINE
  5
2A3
330
29C
100
AcDbEntity
  8
0
  6
ByBlock
 62
0
370
-2
100
AcDbLine
 10
2697.8477275216137
 20
3419.8093601788605
 30
0.0
 11
2702.8477275216137
 21
3421.1491061288616
 31
0.0
  0
LINE
  5
2A4
330
29C
100
AcDbEntity
  8
0
  6
ByBlock
 62
0
370
-2
100
AcDbLine
 10
2697.8477275216137
 20
3419.8093601788605
 30
0.0
 11
2702.8477275216137
 21
3419.8093601788605
 31
0.0
  0
LINE
  5
2A5
330
29C
100
AcDbEntity
  8
0
  6
ByBlock
 62
0
370
-2
100
AcDbLine
 10
3492.8477275216137
 20
3421.1491061288616
 30
0.0
 11
3497.8477275216137
 21
3419.8093601788605
 31
0.0
  0
LINE
  5
2A6
330
29C
100
AcDbEntity
  8
0
  6
ByBlock
 62
0
370
-2
100
AcDbLine
 10
3497.8477275216137
 20
3419.8093601788605
 30
0.0
 11
3492.8477275216137
 21
3418.4696142288594
 31
0.0
  0
LINE
  5
2A7
330
29C
100
AcDbEntity
  8
0
  6
ByBlock
 62
0
370
-2
100
AcDbLine
 10
3497.8477275216137
 20
3419.8093601788605
 30
0.0
 11
3492.8477275216137
 21
3419.8093601788605
 31
0.0
  0
MTEXT
  5
2A8
330
29C
100
AcDbEntity
  8
0
 62
3
 48
3.0
440
16777216
100
AcDbMText
 10
3097.8477275216137
 20
3455.338009564952
 30
0.0
 40
50.0
 41
0.0
 46
0.0
 71
5
  1
800
  0
POINT
  5
2A9
330
29C
100
AcDbEntity
  8
Defpoints
 62
0
 48
3.0
440
16777216
100
AcDbPoint
 10
2697.8477275216137
 20
3319.924911707032
 30
0.0
  0
POINT
  5
2AA
330
29C
100
AcDbEntity
  8
Defpoints
 62
0
 48
3.0
440
16777216
100
AcDbPoint
 10
3497.8477275216137
 20
3319.924911707032
 30
0.0
  0
POINT
  5
2AB
330
29C
100
AcDbEntity
  8
Defpoints
 62
0
 48
3.0
440
16777216
100
AcDbPoint
 10
3497.8477275216137
 20
3419.8093601788605
 30
0.0
  0
ENDBLK
  5
29E
330
29C
100
AcDbEntity
  8
0
100
AcDbBlockEnd
  0
BLOCK
  5
2AD
330
2AC
100
AcDbEntity
  8
0
100
AcDbBlockBegin
  2
*D2
 70
1
 10
0.0
 20
0.0
 30
0.0
  3
*D2
  1

  0
LINE
  5
2AF
330
2AC
100
AcDbEntity
  8
0
 62
5
370
9
 48
3.0
440
16777216
100
AcDbLine
 10
2682.8477275216137
 20
3319.924911707032
 30
0.0
 11
2523.0120388565992
 21
3319.924911707032
 31
0.0
  0
LINE
  5
2B0
330
2AC
100
AcDbEntity
  8
0
 62
5
370
9
 48
3.0
440
16777216
100
AcDbLine
 10
2682.8477275216137
 20
1819.924911707043
 30
0.0
 11
2523.0120388565992
 21
1819.924911707043
 31
0.0
  0
LINE
  5
2B1
330
2AC
100
AcDbEntity
  8
0
 62
5
370
9
 48
3.0
440
16777216
100
AcDbLine
 10
2528.0120388565992
 20
3314.924911707043
 30
0.0
 11
2528.0120388565992
 21
1824.924911707043
 31
0.0
  0
LINE
  5
2B2
330
2AC
100
AcDbEntity
  8
0
  6
ByBlock
 62
0
370
-2
100
AcDbLine
 10
2526.6722929065872
 20
3314.924911707032
 30
0.0
 11
2528.0120388565992
 21
3319.924911707032
 31
0.0
  0
LINE
  5
2B3
330
2AC
100
AcDbEntity
  8
0
  6
ByBlock
 62
0
370
-2
100
AcDbLine
 10
2528.0120388565992
 20
3319.924911707032
 30
0.0
 11
2529.3517848066112
 21
3314.924911707032
 31
0.0
  0
LINE
  5
2B4
330
2AC
100
AcDbEntity
  8
0
  6
ByBlock
 62
0
370
-2
100
AcDbLine
 10
2528.0120388565992
 20
3319.924911707032
 30
0.0
 11
2528.0120388565992
 21
3314.924911707032
 31
0.0
  0
LINE
  5
2B5
330
2AC
100
AcDbEntity
  8
0
  6
ByBlock
 62
0
370
-2
100
AcDbLine
 10
2529.3517848066112
 20
1824.924911707043
 30
0.0
 11
2528.0120388565992
 21
1819.924911707043
 31
0.0
  0
LINE
  5
2B6
330
2AC
100
AcDbEntity
  8
0
  6
ByBlock
 62
0
370
-2
100
AcDbLine
 10
2528.0120388565992
 20
1819.924911707043
 30
0.0
 11
2526.6722929065872
 21
1824.924911707043
 31
0.0
  0
LINE
  5
2B7
330
2AC
100
AcDbEntity
  8
0
  6
ByBlock
 62
0
370
-2
100
AcDbLine
 10
2528.0120388565992
 20
1819.924911707043
 30
0.0
 11
2528.0120388565992
 21
1824.924911707043
 31
0.0
  0
MTEXT
  5
2B8
330
2AC
100
AcDbEntity
  8
0
 62
3
 48
3.0
440
16777216
100
AcDbMText
 10
2492.4833894704934
 20
2569.9249117070613
 30
0.0
 40
50.0
 41
0.0
 46
0.0
 71
5
  1
1500
 11
1e-16
 21
1.0
 31
0.0
  0
POINT
  5
2B9
330
2AC
100
AcDbEntity
  8
Defpoints
 62
0
 48
3.0
440
16777216
100
AcDbPoint
 10
2697.8477275216137
 20
3319.924911707032
 30
0.0
  0
POINT
  5
2BA
330
2AC
100
AcDbEntity
  8
Defpoints
 62
0
 48
3.0
440
16777216
100
AcDbPoint
 10
2697.8477275216137
 20
1819.924911707043
 30
0.0
  0
POINT
  5
2BB
330
2AC
100
AcDbEntity
  8
Defpoints
 62
0
 48
3.0
440
16777216
100
AcDbPoint
 10
2528.0120388565992
 20
1819.924911707043
 30
0.0
  0
ENDBLK
  5
2AE
330
2AC
100
AcDbEntity
  8
0
100
AcDbBlockEnd
  0
BLOCK
  5
2BD
330
2BC
100
AcDbEntity
  8
0
100
AcDbBlockBegin
  2
*D3
 70
1
 10
0.0
 20
0.0
 30
0.0
  3
*D3
  1

  0
LINE
  5
2BF
330
2BC
100
AcDbEntity
  8
0
 62
5
370
9
 48
3.0
440
16777216
100
AcDbLine
 10
1519.8156384855101
 20
3334.924911707043
 30
0.0
 11
1519.8156384855101
 21
3424.8093601788714
 31
0.0
  0
LINE
  5
2C0
330
2BC
100
AcDbEntity
  8
0
 62
5
370
9
 48
3.0
440
16777216
100
AcDbLine
 10
2319.8156384853937
 20
3334.924911707043
 30
0.0
 11
2319.8156384853937
 21
3424.8093601788714
 31
0.0
  0
LINE
  5
2C1
330
2BC
100
AcDbEntity
  8
0
 62
5
370
9
 48
3.0
440
16777216
100
AcDbLine
 10
1524.8156384855101
 20
3419.8093601788605
 30
0.0
 11
2314.8156384853937
 21
3419.8093601788605
 31
0.0
  0
LINE
  5
2C2
330
2BC
100
AcDbEntity
  8
0
  6
ByBlock
 62
0
370
-2
100
AcDbLine
 10
1524.8156384855101
 20
3418.4696142288594
 30
0.0
 11
1519.8156384855101
 21
3419.8093601788605
 31
0.0
  0
LINE
  5
2C3
330
2BC
100
AcDbEntity
  8
0
  6
ByBlock
 62
0
370
-2
100
AcDbLine
 10
1519.8156384855101
 20
3419.8093601788605
 30
0.0
 11
1524.8156384855101
 21
3421.1491061288616
 31
0.0
  0
LINE
  5
2C4
330
2BC
100
AcDbEntity
  8
0
  6
ByBlock
 62
0
370
-2
100
AcDbLine
 10
1519.8156384855101
 20
3419.8093601788605
 30
0.0
 11
1524.8156384855101
 21
3419.8093601788605
 31
0.0
  0
LINE
  5
2C5
330
2BC
100
AcDbEntity
  8
0
  6
ByBlock
 62
0
370
-2
100
AcDbLine
 10
2314.8156384853937
 20
3421.1491061288616
 30
0.0
 11
2319.8156384853937
 21
3419.8093601788605
 31
0.0
  0
LINE
  5
2C6
330
2BC
100
AcDbEntity
  8
0
  6
ByBlock
 62
0
370
-2
100
AcDbLine
 10
2319.8156384853937
 20
3419.8093601788605
 30
0.0
 11
2314.8156384853937
 21
3418.4696142288594
 31
0.0
  0
LINE
  5
2C7
330
2BC
100
AcDbEntity
  8
0
  6
ByBlock
 62
0
370
-2
100
AcDbLine
 10
2319.8156384853937
 20
3419.8093601788605
 30
0.0
 11
2314.8156384853937
 21
3419.8093601788605
 31
0.0
  0
MTEXT
  5
2C8
330
2BC
100
AcDbEntity
  8
0
 62
3
 48
3.0
440
16777216
100
AcDbMText
 10
1919.8156384855101
 20
3455.338009564952
 30
0.0
 40
50.0
 41
0.0
 46
0.0
 71
5
  1
800
  0
POINT
  5
2C9
330
2BC
100
AcDbEntity
  8
Defpoints
 62
0
 48
3.0
440
16777216
100
AcDbPoint
 10
1519.8156384855101
 20
3319.924911707032
 30
0.0
  0
POINT
  5
2CA
330
2BC
100
AcDbEntity
  8
Defpoints
 62
0
 48
3.0
440
16777216
100
AcDbPoint
 10
2319.8156384853937
 20
3319.924911707032
 30
0.0
  0
POINT
  5
2CB
330
2BC
100
AcDbEntity
  8
Defpoints
 62
0
 48
3.0
440
16777216
100
AcDbPoint
 10
2319.8156384853937
 20
3419.8093601788605
 30
0.0
  0
ENDBLK
  5
2BE
330
2BC
100
AcDbEntity
  8
0
100
AcDbBlockEnd
  0
BLOCK
  5
2CD
330
2CC
100
AcDbEntity
  8
0
100
AcDbBlockBegin
  2
*D4
 70
1
 10
0.0
 20
0.0
 30
0.0
  3
*D4
  1

  0
LINE
  5
2CF
330
2CC
100
AcDbEntity
  8
0
 62
5
370
9
 48
3.0
440
16777216
100
AcDbLine
 10
1504.8156384855101
 20
3319.924911707032
 30
0.0
 11
1344.9799498204084
 21
3319.924911707032
 31
0.0
  0
LINE
  5
2D0
330
2CC
100
AcDbEntity
  8
0
 62
5
370
9
 48
3.0
440
16777216
100
AcDbLine
 10
1504.8156384855101
 20
1819.924911707043
 30
0.0
 11
1344.9799498204084
 21
1819.924911707043
 31
0.0
  0
LINE
  5
2D1
330
2CC
100
AcDbEntity
  8
0
 62
5
370
9
 48
3.0
440
16777216
100
AcDbLine
 10
1349.9799498204084
 20
3314.924911707043
 30
0.0
 11
1349.9799498204084
 21
1824.924911707043
 31
0.0
  0
LINE
  5
2D2
330
2CC
100
AcDbEntity
  8
0
  6
ByBlock
 62
0
370
-2
100
AcDbLine
 10
1348.6402038703964
 20
3314.924911707032
 30
0.0
 11
1349.9799498204084
 21
3319.924911707032
 31
0.0
  0
LINE
  5
2D3
330
2CC
100
AcDbEntity
  8
0
  6
ByBlock
 62
0
370
-2
100
AcDbLine
 10
1349.9799498204084
 20
3319.924911707032
 30
0.0
 11
1351.3196957704204
 21
3314.924911707032
 31
0.0
  0
LINE
  5
2D4
330
2CC
100
AcDbEntity
  8
0
  6
ByBlock
 62
0
370
-2
100
AcDbLine
 10
1349.9799498204084
 20
3319.924911707032
 30
0.0
 11
1349.9799498204084
 21
3314.924911707032
 31
0.0
  0
LINE
  5
2D5
330
2CC
100
AcDbEntity
  8
0
  6
ByBlock
 62
0
370
-2
100
AcDbLine
 10
1351.3196957704204
 20
1824.924911707043
 30
0.0
 11
1349.9799498204084
 21
1819.924911707043
 31
0.0
  0
LINE
  5
2D6
330
2CC
100
AcDbEntity
  8
0
  6
ByBlock
 62
0
370
-2
100
AcDbLine
 10
1349.9799498204084
 20
1819.924911707043
 30
0.0
 11
1348.6402038703964
 21
1824.924911707043
 31
0.0
  0
LINE
  5
2D7
330
2CC
100
AcDbEntity
  8
0
  6
ByBlock
 62
0
370
-2
100
AcDbLine
 10
1349.9799498204084
 20
1819.924911707043
 30
0.0
 11
1349.9799498204084
 21
1824.924911707043
 31
0.0
  0
MTEXT
  5
2D8
330
2CC
100
AcDbEntity
  8
0
 62
3
 48
3.0
440
16777216
100
AcDbMText
 10
1314.4513004343025
 20
2569.9249117070613
 30
0.0
 40
50.0
 41
0.0
 46
0.0
 71
5
  1
1500
 11
1e-16
 21
1.0
 31
0.0
  0
POINT
  5
2D9
330
2CC
100
AcDbEntity
  8
Defpoints
 62
0
 48
3.0
440
16777216
100
AcDbPoint
 10
1519.8156384855101
 20
3319.924911707032
 30
0.0
  0
POINT
  5
2DA
330
2CC
100
AcDbEntity
  8
Defpoints
 62
0
 48
3.0
440
16777216
100
AcDbPoint
 10
1519.8156384855101
 20
1819.924911707043
 30
0.0
  0
POINT
  5
2DB
330
2CC
100
AcDbEntity
  8
Defpoints
 62
0
 48
3.0
440
16777216
100
AcDbPoint
 10
1349.9799498204084
 20
1819.924911707043
 30
0.0
  0
ENDBLK
  5
2CE
330
2CC
100
AcDbEntity
  8
0
100
AcDbBlockEnd
  0
BLOCK
  5
2DD
330
2DC
100
AcDbEntity
  8
0
100
AcDbBlockBegin
  2
*D5
 70
1
 10
0.0
 20
0.0
 30
0.0
  3
*D5
  1

  0
LINE
  5
2DF
330
2DC
100
AcDbEntity
  8
0
 62
5
370
9
 48
3.0
440
16777216
100
AcDbLine
 10
2334.81563848551
 20
3319.924911707032
 30
0.0
 11
2426.339371469221
 21
3319.924911707032
 31
0.0
  0
LINE
  5
2E0
330
2DC
100
AcDbEntity
  8
0
 62
5
370
9
 48
3.0
440
16777216
100
AcDbLine
 10
2301.215638485417
 20
3219.924911707043
 30
0.0
 11
2426.339371469221
 21
3219.924911707043
 31
0.0
  0
LINE
  5
2E1
330
2DC
100
AcDbEntity
  8
0
 62
5
370
9
 48
3.0
440
16777216
100
AcDbLine
 10
2421.339371469221
 20
3314.924911707043
 30
0.0
 11
2421.339371469221
 21
3224.924911707043
 31
0.0
  0
LINE
  5
2E2
330
2DC
100
AcDbEntity
  8
0
 62
5
370
9
 48
3.0
440
16777216
100
AcDbLine
 10
2421.339371469221
 20
3219.924911707043
 30
0.0
 11
2421.339371469221
 21
3089.3314601381426
 31
0.0
  0
LINE
  5
2E3
330
2DC
100
AcDbEntity
  8
0
  6
ByBlock
 62
0
370
-2
100
AcDbLine
 10
2419.999625519209
 20
3314.924911707032
 30
0.0
 11
2421.339371469221
 21
3319.924911707032
 31
0.0
  0
LINE
  5
2E4
330
2DC
100
AcDbEntity
  8
0
  6
ByBlock
 62
0
370
-2
100
AcDbLine
 10
2421.339371469221
 20
3319.924911707032
 30
0.0
 11
2422.679117419233
 21
3314.924911707032
 31
0.0
  0
LINE
  5
2E5
330
2DC
100
AcDbEntity
  8
0
  6
ByBlock
 62
0
370
-2
100
AcDbLine
 10
2421.339371469221
 20
3319.924911707032
 30
0.0
 11
2421.339371469221
 21
3314.924911707032
 31
0.0
  0
LINE
  5
2E6
330
2DC
100
AcDbEntity
  8
0
  6
ByBlock
 62
0
370
-2
100
AcDbLine
 10
2422.679117419233
 20
3224.924911707043
 30
0.0
 11
2421.339371469221
 21
3219.924911707043
 31
0.0
  0
LINE
  5
2E7
330
2DC
100
AcDbEntity
  8
0
  6
ByBlock
 62
0
370
-2
100
AcDbLine
 10
2421.339371469221
 20
3219.924911707043
 30
0.0
 11
2419.999625519209
 21
3224.924911707043
 31
0.0
  0
LINE
  5
2E8
330
2DC
100
AcDbEntity
  8
0
  6
ByBlock
 62
0
370
-2
100
AcDbLine
 10
2421.339371469221
 20
3219.924911707043
 30
0.0
 11
2421.339371469221
 21
3224.924911707043
 31
0.0
  0
MTEXT
  5
2E9
330
2DC
100
AcDbEntity
  8
0
 62
3
 48
3.0
440
16777216
100
AcDbMText
 10
2385.8107220831153
 20
3152.128185922622
 30
0.0
 40
50.0
 41
0.0
 46
0.0
 71
5
  1
100
 11
1e-16
 21
1.0
 31
0.0
  0
POINT
  5
2EA
330
2DC
100
AcDbEntity
  8
Defpoints
 62
0
 48
3.0
440
16777216
100
AcDbPoint
 10
2319.8156384853937
 20
3319.924911707032
 30
0.0
  0
POINT
  5
2EB
330
2DC
100
AcDbEntity
  8
Defpoints
 62
0
 48
3.0
440
16777216
100
AcDbPoint
 10
2286.215638485417
 20
3219.924911707043
 30
0.0
  0
POINT
  5
2EC
330
2DC
100
AcDbEntity
  8
Defpoints
 62
0
 48
3.0
440
16777216
100
AcDbPoint
 10
2421.339371469221
 20
3219.924911707043
 30
0.0
  0
ENDBLK
  5
2DE
330
2DC
100
AcDbEntity
  8
0
100
AcDbBlockEnd
  0
BLOCK
  5
2EE
330
2ED
100
AcDbEntity
  8
0
100
AcDbBlockBegin
  2
*D6
 70
1
 10
0.0
 20
0.0
 30
0.0
  3
*D6
  1

  0
LINE
  5
2F0
330
2ED
100
AcDbEntity
  8
0
 62
5
370
9
 48
3.0
440
16777216
100
AcDbLine
 10
2301.215638485417
 20
3219.924911707043
 30
0.0
 11
2426.339371469221
 21
3219.924911707043
 31
0.0
  0
LINE
  5
2F1
330
2ED
100
AcDbEntity
  8
0
 62
5
370
9
 48
3.0
440
16777216
100
AcDbLine
 10
2301.215638485417
 20
2894.924911707043
 30
0.0
 11
2426.339371469221
 21
2894.924911707043
 31
0.0
  0
LINE
  5
2F2
330
2ED
100
AcDbEntity
  8
0
 62
5
370
9
 48
3.0
440
16777216
100
AcDbLine
 10
2421.339371469221
 20
3214.924911707043
 30
0.0
 11
2421.339371469221
 21
2899.924911707043
 31
0.0
  0
LINE
  5
2F3
330
2ED
100
AcDbEntity
  8
0
  6
ByBlock
 62
0
370
-2
100
AcDbLine
 10
2419.999625519209
 20
3214.924911707043
 30
0.0
 11
2421.339371469221
 21
3219.924911707043
 31
0.0
  0
LINE
  5
2F4
330
2ED
100
AcDbEntity
  8
0
  6
ByBlock
 62
0
370
-2
100
AcDbLine
 10
2421.339371469221
 20
3219.924911707043
 30
0.0
 11
2422.679117419233
 21
3214.924911707043
 31
0.0
  0
LINE
  5
2F5
330
2ED
100
AcDbEntity
  8
0
  6
ByBlock
 62
0
370
-2
100
AcDbLine
 10
2421.339371469221
 20
3219.924911707043
 30
0.0
 11
2421.339371469221
 21
3214.924911707043
 31
0.0
  0
LINE
  5
2F6
330
2ED
100
AcDbEntity
  8
0
  6
ByBlock
 62
0
370
-2
100
AcDbLine
 10
2422.679117419233
 20
2899.924911707043
 30
0.0
 11
2421.339371469221
 21
2894.924911707043
 31
0.0
  0
LINE
  5
2F7
330
2ED
100
AcDbEntity
  8
0
  6
ByBlock
 62
0
370
-2
100
AcDbLine
 10
2421.339371469221
 20
2894.924911707043
 30
0.0
 11
2419.999625519209
 21
2899.924911707043
 31
0.0
  0
LINE
  5
2F8
330
2ED
100
AcDbEntity
  8
0
  6
ByBlock
 62
0
370
-2
100
AcDbLine
 10
2421.339371469221
 20
2894.924911707043
 30
0.0
 11
2421.339371469221
 21
2899.924911707043
 31
0.0
  0
MTEXT
  5
2F9
330
2ED
100
AcDbEntity
  8
0
 62
3
 48
3.0
440
16777216
100
AcDbMText
 10
2385.7936688771006
 20
3057.4249117070613
 30
0.0
 40
50.0
 41
0.0
 46
0.0
 71
5
  1
325
 11
1e-16
 21
1.0
 31
0.0
  0
POINT
  5
2FA
330
2ED
100
AcDbEntity
  8
Defpoints
 62
0
 48
3.0
440
16777216
100
AcDbPoint
 10
2286.215638485417
 20
3219.924911707043
 30
0.0
  0
POINT
  5
2FB
330
2ED
100
AcDbEntity
  8
Defpoints
 62
0
 48
3.0
440
16777216
100
AcDbPoint
 10
2286.215638485417
 20
2894.924911707043
 30
0.0
  0
POINT
  5
2FC
330
2ED
100
AcDbEntity
  8
Defpoints
 62
0
 48
3.0
440
16777216
100
AcDbPoint
 10
2421.339371469221
 20
2894.924911707043
 30
0.0
  0
ENDBLK
  5
2EF
330
2ED
100
AcDbEntity
  8
0
100
AcDbBlockEnd
  0
BLOCK
  5
2FE
330
2FD
100
AcDbEntity
  8
0
100
AcDbBlockBegin
  2
*D7
 70
1
 10
0.0
 20
0.0
 30
0.0
  3
*D7
  1

  0
LINE
  5
300
330
2FD
100
AcDbEntity
  8
0
 62
5
370
9
 48
3.0
440
16777216
100
AcDbLine
 10
2334.81563848551
 20
1819.924911707043
 30
0.0
 11
2419.7200879507
 21
1819.924911707043
 31
0.0
  0
LINE
  5
301
330
2FD
100
AcDbEntity
  8
0
 62
5
370
9
 48
3.0
440
16777216
100
AcDbLine
 10
2301.215638485417
 20
1869.9249117070322
 30
0.0
 11
2419.7200879507
 21
1869.9249117070322
 31
0.0
  0
LINE
  5
302
330
2FD
100
AcDbEntity
  8
0
 62
5
370
9
 48
3.0
440
16777216
100
AcDbLine
 10
2414.7200879507
 20
1864.924911707043
 30
0.0
 11
2414.7200879507
 21
1824.924911707043
 31
0.0
  0
LINE
  5
303
330
2FD
100
AcDbEntity
  8
0
 62
5
370
9
 48
3.0
440
16777216
100
AcDbLine
 10
2414.7200879507
 20
1819.924911707043
 30
0.0
 11
2414.7200879507
 21
1719.0440289385115
 31
0.0
  0
LINE
  5
304
330
2FD
100
AcDbEntity
  8
0
  6
ByBlock
 62
0
370
-2
100
AcDbLine
 10
2413.380342000688
 20
1864.9249117070322
 30
0.0
 11
2414.7200879507
 21
1869.9249117070322
 31
0.0
  0
LINE
  5
305
330
2FD
100
AcDbEntity
  8
0
  6
ByBlock
 62
0
370
-2
100
AcDbLine
 10
2414.7200879507
 20
1869.9249117070322
 30
0.0
 11
2416.059833900712
 21
1864.9249117070322
 31
0.0
  0
LINE
  5
306
330
2FD
100
AcDbEntity
  8
0
  6
ByBlock
 62
0
370
-2
100
AcDbLine
 10
2414.7200879507
 20
1869.9249117070322
 30
0.0
 11
2414.7200879507
 21
1864.9249117070322
 31
0.0
  0
LINE
  5
307
330
2FD
100
AcDbEntity
  8
0
  6
ByBlock
 62
0
370
-2
100
AcDbLine
 10
2416.059833900712
 20
1824.924911707043
 30
0.0
 11
2414.7200879507
 21
1819.924911707043
 31
0.0
  0
LINE
  5
308
330
2FD
100
AcDbEntity
  8
0
  6
ByBlock
 62
0
370
-2
100
AcDbLine
 10
2414.7200879507
 20
1819.924911707043
 30
0.0
 11
2413.380342000688
 21
1824.924911707043
 31
0.0
  0
LINE
  5
309
330
2FD
100
AcDbEntity
  8
0
  6
ByBlock
 62
0
370
-2
100
AcDbLine
 10
2414.7200879507
 20
1819.924911707043
 30
0.0
 11
2414.7200879507
 21
1824.924911707043
 31
0.0
  0
MTEXT
  5
30A
330
2FD
100
AcDbEntity
  8
0
 62
3
 48
3.0
440
16777216
100
AcDbMText
 10
2379.191438564594
 20
1764.7704955142508
 30
0.0
 40
50.0
 41
0.0
 46
0.0
 71
5
  1
50
 11
1e-16
 21
1.0
 31
0.0
  0
POINT
  5
30B
330
2FD
100
AcDbEntity
  8
Defpoints
 62
0
 48
3.0
440
16777216
100
AcDbPoint
 10
2319.8156384853937
 20
1819.924911707043
 30
0.0
  0
POINT
  5
30C
330
2FD
100
AcDbEntity
  8
Defpoints
 62
0
 48
3.0
440
16777216
100
AcDbPoint
 10
2286.215638485417
 20
1869.9249117070322
 30
0.0
  0
POINT
  5
30D
330
2FD
100
AcDbEntity
  8
Defpoints
 62
0
 48
3.0
440
16777216
100
AcDbPoint
 10
2414.7200879507
 20
1869.9249117070322
 30
0.0
  0
ENDBLK
  5
2FF
330
2FD
100
AcDbEntity
  8
0
100
AcDbBlockEnd
  0
BLOCK
  5
30F
330
30E
100
AcDbEntity
  8
0
100
AcDbBlockBegin
  2
*D8
 70
1
 10
0.0
 20
0.0
 30
0.0
  3
*D8
  1

  0
LINE
  5
311
330
30E
100
AcDbEntity
  8
0
 62
5
370
9
 48
3.0
440
16777216
100
AcDbLine
 10
2301.215638485417
 20
1869.9249117070322
 30
0.0
 11
2419.7200879507
 21
1869.9249117070322
 31
0.0
  0
LINE
  5
312
330
30E
100
AcDbEntity
  8
0
 62
5
370
9
 48
3.0
440
16777216
100
AcDbLine
 10
2301.215638485417
 20
2771.924911707043
 30
0.0
 11
2419.7200879507
 21
2771.924911707043
 31
0.0
  0
LINE
  5
313
330
30E
100
AcDbEntity
  8
0
 62
5
370
9
 48
3.0
440
16777216
100
AcDbLine
 10
2414.7200879507
 20
1874.924911707043
 30
0.0
 11
2414.7200879507
 21
2766.924911707043
 31
0.0
  0
LINE
  5
314
330
30E
100
AcDbEntity
  8
0
  6
ByBlock
 62
0
370
-2
100
AcDbLine
 10
2416.059833900712
 20
1874.9249117070322
 30
0.0
 11
2414.7200879507
 21
1869.9249117070322
 31
0.0
  0
LINE
  5
315
330
30E
100
AcDbEntity
  8
0
  6
ByBlock
 62
0
370
-2
100
AcDbLine
 10
2414.7200879507
 20
1869.9249117070322
 30
0.0
 11
2413.380342000688
 21
1874.9249117070322
 31
0.0
  0
LINE
  5
316
330
30E
100
AcDbEntity
  8
0
  6
ByBlock
 62
0
370
-2
100
AcDbLine
 10
2414.7200879507
 20
1869.9249117070322
 30
0.0
 11
2414.7200879507
 21
1874.9249117070322
 31
0.0
  0
LINE
  5
317
330
30E
100
AcDbEntity
  8
0
  6
ByBlock
 62
0
370
-2
100
AcDbLine
 10
2413.380342000688
 20
2766.924911707043
 30
0.0
 11
2414.7200879507
 21
2771.924911707043
 31
0.0
  0
LINE
  5
318
330
30E
100
AcDbEntity
  8
0
  6
ByBlock
 62
0
370
-2
100
AcDbLine
 10
2414.7200879507
 20
2771.924911707043
 30
0.0
 11
2416.059833900712
 21
2766.924911707043
 31
0.0
  0
LINE
  5
319
330
30E
100
AcDbEntity
  8
0
  6
ByBlock
 62
0
370
-2
100
AcDbLine
 10
2414.7200879507
 20
2771.924911707043
 30
0.0
 11
2414.7200879507
 21
2766.924911707043
 31
0.0
  0
MTEXT
  5
31A
330
30E
100
AcDbEntity
  8
0
 62
3
 48
3.0
440
16777216
100
AcDbMText
 10
2379.191438564594
 20
2320.9249117070613
 30
0.0
 40
50.0
 41
0.0
 46
0.0
 71
5
  1
902
 11
1e-16
 21
1.0
 31
0.0
  0
POINT
  5
31B
330
30E
100
AcDbEntity
  8
Defpoints
 62
0
 48
3.0
440
16777216
100
AcDbPoint
 10
2286.215638485417
 20
1869.9249117070322
 30
0.0
  0
POINT
  5
31C
330
30E
100
AcDbEntity
  8
Defpoints
 62
0
 48
3.0
440
16777216
100
AcDbPoint
 10
2286.215638485417
 20
2771.924911707043
 30
0.0
  0
POINT
  5
31D
330
30E
100
AcDbEntity
  8
Defpoints
 62
0
 48
3.0
440
16777216
100
AcDbPoint
 10
2414.7200879507
 20
2771.924911707043
 30
0.0
  0
ENDBLK
  5
310
330
30E
100
AcDbEntity
  8
0
100
AcDbBlockEnd
  0
BLOCK
  5
31F
330
31E
100
AcDbEntity
  8
0
100
AcDbBlockBegin
  2
*D9
 70
1
 10
0.0
 20
0.0
 30
0.0
  3
*D9
  1

  0
LINE
  5
321
330
31E
100
AcDbEntity
  8
DIM
 62
5
370
9
440
16777216
100
AcDbLine
 10
318.519295357808
 20
3334.924911707043
 30
0.0
 11
318.519295357808
 21
3415.9084593452026
 31
0.0
  0
LINE
  5
322
330
31E
100
AcDbEntity
  8
DIM
 62
5
370
9
440
16777216
100
AcDbLine
 10
1118.519295357808
 20
3334.924911707043
 30
0.0
 11
1118.519295357808
 21
3415.9084593452026
 31
0.0
  0
LINE
  5
323
330
31E
100
AcDbEntity
  8
DIM
 62
5
370
9
440
16777216
100
AcDbLine
 10
323.519295357808
 20
3410.9084593452135
 30
0.0
 11
1113.5192953577207
 21
3410.9084593452135
 31
0.0
  0
LINE
  5
324
330
31E
100
AcDbEntity
  8
0
  6
ByBlock
 62
0
370
-2
100
AcDbLine
 10
323.519295357808
 20
3409.5687133952124
 30
0.0
 11
318.519295357808
 21
3410.9084593452135
 31
0.0
  0
LINE
  5
325
330
31E
100
AcDbEntity
  8
0
  6
ByBlock
 62
0
370
-2
100
AcDbLine
 10
318.519295357808
 20
3410.9084593452135
 30
0.0
 11
323.519295357808
 21
3412.2482052952146
 31
0.0
  0
LINE
  5
326
330
31E
100
AcDbEntity
  8
0
  6
ByBlock
 62
0
370
-2
100
AcDbLine
 10
318.519295357808
 20
3410.9084593452135
 30
0.0
 11
323.519295357808
 21
3410.9084593452135
 31
0.0
  0
LINE
  5
327
330
31E
100
AcDbEntity
  8
0
  6
ByBlock
 62
0
370
-2
100
AcDbLine
 10
1113.519295357808
 20
3412.2482052952146
 30
0.0
 11
1118.519295357808
 21
3410.9084593452135
 31
0.0
  0
LINE
  5
328
330
31E
100
AcDbEntity
  8
0
  6
ByBlock
 62
0
370
-2
100
AcDbLine
 10
1118.519295357808
 20
3410.9084593452135
 30
0.0
 11
1113.519295357808
 21
3409.5687133952124
 31
0.0
  0
LINE
  5
329
330
31E
100
AcDbEntity
  8
0
  6
ByBlock
 62
0
370
-2
100
AcDbLine
 10
1118.519295357808
 20
3410.9084593452135
 30
0.0
 11
1113.519295357808
 21
3410.9084593452135
 31
0.0
  0
MTEXT
  5
32A
330
31E
100
AcDbEntity
  8
DIM
 62
3
440
16777216
100
AcDbMText
 10
718.5192953577207
 20
3446.437108731294
 30
0.0
 40
50.0
 41
0.0
 46
0.0
 71
5
  1
800
  0
POINT
  5
32B
330
31E
100
AcDbEntity
  8
Defpoints
 62
0
440
16777216
100
AcDbPoint
 10
318.519295357808
 20
3319.924911707032
 30
0.0
  0
POINT
  5
32C
330
31E
100
AcDbEntity
  8
Defpoints
 62
0
440
16777216
100
AcDbPoint
 10
1118.519295357808
 20
3319.924911707032
 30
0.0
  0
POINT
  5
32D
330
31E
100
AcDbEntity
  8
Defpoints
 62
0
440
16777216
100
AcDbPoint
 10
1118.519295357808
 20
3410.9084593452135
 30
0.0
  0
ENDBLK
  5
320
330
31E
100
AcDbEntity
  8
0
100
AcDbBlockEnd
  0
BLOCK
  5
32F
330
32E
100
AcDbEntity
  8
0
100
AcDbBlockBegin
  2
*D10
 70
1
 10
0.0
 20
0.0
 30
0.0
  3
*D10
  1

  0
LINE
  5
331
330
32E
100
AcDbEntity
  8
DIM
 62
5
370
9
440
16777216
100
AcDbLine
 10
303.5192953577207
 20
3319.924911707032
 30
0.0
 11
195.51661132631125
 21
3319.924911707032
 31
0.0
  0
LINE
  5
332
330
32E
100
AcDbEntity
  8
DIM
 62
5
370
9
440
16777216
100
AcDbLine
 10
303.5192953577207
 20
1819.924911707043
 30
0.0
 11
195.51661132631125
 21
1819.924911707043
 31
0.0
  0
LINE
  5
333
330
32E
100
AcDbEntity
  8
DIM
 62
5
370
9
440
16777216
100
AcDbLine
 10
200.51661132639856
 20
3314.924911707043
 30
0.0
 11
200.51661132639856
 21
1824.924911707043
 31
0.0
  0
LINE
  5
334
330
32E
100
AcDbEntity
  8
0
  6
ByBlock
 62
0
370
-2
100
AcDbLine
 10
199.17686537638656
 20
3314.924911707032
 30
0.0
 11
200.51661132639856
 21
3319.924911707032
 31
0.0
  0
LINE
  5
335
330
32E
100
AcDbEntity
  8
0
  6
ByBlock
 62
0
370
-2
100
AcDbLine
 10
200.51661132639856
 20
3319.924911707032
 30
0.0
 11
201.85635727641056
 21
3314.924911707032
 31
0.0
  0
LINE
  5
336
330
32E
100
AcDbEntity
  8
0
  6
ByBlock
 62
0
370
-2
100
AcDbLine
 10
200.51661132639856
 20
3319.924911707032
 30
0.0
 11
200.51661132639856
 21
3314.924911707032
 31
0.0
  0
LINE
  5
337
330
32E
100
AcDbEntity
  8
0
  6
ByBlock
 62
0
370
-2
100
AcDbLine
 10
201.85635727641056
 20
1824.924911707043
 30
0.0
 11
200.51661132639856
 21
1819.924911707043
 31
0.0
  0
LINE
  5
338
330
32E
100
AcDbEntity
  8
0
  6
ByBlock
 62
0
370
-2
100
AcDbLine
 10
200.51661132639856
 20
1819.924911707043
 30
0.0
 11
199.17686537638656
 21
1824.924911707043
 31
0.0
  0
LINE
  5
339
330
32E
100
AcDbEntity
  8
0
  6
ByBlock
 62
0
370
-2
100
AcDbLine
 10
200.51661132639856
 20
1819.924911707043
 30
0.0
 11
200.51661132639856
 21
1824.924911707043
 31
0.0
  0
MTEXT
  5
33A
330
32E
100
AcDbEntity
  8
DIM
 62
3
440
16777216
100
AcDbMText
 10
164.98796194029273
 20
2569.9249117070613
 30
0.0
 40
50.0
 41
0.0
 46
0.0
 71
5
  1
1500
 11
1e-16
 21
1.0
 31
0.0
  0
POINT
  5
33B
330
32E
100
AcDbEntity
  8
Defpoints
 62
0
440
16777216
100
AcDbPoint
 10
318.519295357808
 20
3319.924911707032
 30
0.0
  0
POINT
  5
33C
330
32E
100
AcDbEntity
  8
Defpoints
 62
0
440
16777216
100
AcDbPoint
 10
318.519295357808
 20
1819.924911707043
 30
0.0
  0
POINT
  5
33D
330
32E
100
AcDbEntity
  8
Defpoints
 62
0
440
16777216
100
AcDbPoint
 10
200.51661132639856
 20
1819.924911707043
 30
0.0
  0
ENDBLK
  5
330
330
32E
100
AcDbEntity
  8
0
100
AcDbBlockEnd
  0
BLOCK
  5
33F
330
33E
100
AcDbEntity
  8
0
100
AcDbBlockBegin
  2
*D11
 70
1
 10
0.0
 20
0.0
 30
0.0
  3
*D11
  1

  0
LINE
  5
341
330
33E
100
AcDbEntity
  8
0
 62
5
370
9
 48
3.0
440
16777216
100
AcDbLine
 10
3795.5482303702156
 20
3319.924911707032
 30
0.0
 11
3692.5196213925956
 21
3319.924911707032
 31
0.0
  0
LINE
  5
342
330
33E
100
AcDbEntity
  8
0
 62
5
370
9
 48
3.0
440
16777216
100
AcDbLine
 10
3796.748230370198
 20
2819.924911707043
 30
0.0
 11
3692.5196213925956
 21
2819.924911707043
 31
0.0
  0
LINE
  5
343
330
33E
100
AcDbEntity
  8
0
 62
5
370
9
 48
3.0
440
16777216
100
AcDbLine
 10
3697.5196213925956
 20
3314.924911707043
 30
0.0
 11
3697.5196213925956
 21
2824.924911707043
 31
0.0
  0
LINE
  5
344
330
33E
100
AcDbEntity
  8
0
  6
ByBlock
 62
0
370
-2
100
AcDbLine
 10
3696.1798754425836
 20
3314.924911707032
 30
0.0
 11
3697.5196213925956
 21
3319.924911707032
 31
0.0
  0
LINE
  5
345
330
33E
100
AcDbEntity
  8
0
  6
ByBlock
 62
0
370
-2
100
AcDbLine
 10
3697.5196213925956
 20
3319.924911707032
 30
0.0
 11
3698.8593673426076
 21
3314.924911707032
 31
0.0
  0
LINE
  5
346
330
33E
100
AcDbEntity
  8
0
  6
ByBlock
 62
0
370
-2
100
AcDbLine
 10
3697.5196213925956
 20
3319.924911707032
 30
0.0
 11
3697.5196213925956
 21
3314.924911707032
 31
0.0
  0
LINE
  5
347
330
33E
100
AcDbEntity
  8
0
  6
ByBlock
 62
0
370
-2
100
AcDbLine
 10
3698.8593673426076
 20
2824.924911707043
 30
0.0
 11
3697.5196213925956
 21
2819.924911707043
 31
0.0
  0
LINE
  5
348
330
33E
100
AcDbEntity
  8
0
  6
ByBlock
 62
0
370
-2
100
AcDbLine
 10
3697.5196213925956
 20
2819.924911707043
 30
0.0
 11
3696.1798754425836
 21
2824.924911707043
 31
0.0
  0
LINE
  5
349
330
33E
100
AcDbEntity
  8
0
  6
ByBlock
 62
0
370
-2
100
AcDbLine
 10
3697.5196213925956
 20
2819.924911707043
 30
0.0
 11
3697.5196213925956
 21
2824.924911707043
 31
0.0
  0
MTEXT
  5
34A
330
33E
100
AcDbEntity
  8
0
 62
3
 48
3.0
440
16777216
100
AcDbMText
 10
3661.990972006519
 20
3069.9249117070613
 30
0.0
 40
50.0
 41
0.0
 46
0.0
 71
5
  1
500
 11
1e-16
 21
1.0
 31
0.0
  0
POINT
  5
34B
330
33E
100
AcDbEntity
  8
Defpoints
 62
0
 48
3.0
440
16777216
100
AcDbPoint
 10
3810.5482303702156
 20
3319.924911707032
 30
0.0
  0
POINT
  5
34C
330
33E
100
AcDbEntity
  8
Defpoints
 62
0
 48
3.0
440
16777216
100
AcDbPoint
 10
3811.748230370198
 20
2819.924911707043
 30
0.0
  0
POINT
  5
34D
330
33E
100
AcDbEntity
  8
Defpoints
 62
0
 48
3.0
440
16777216
100
AcDbPoint
 10
3697.5196213925956
 20
2819.924911707043
 30
0.0
  0
ENDBLK
  5
340
330
33E
100
AcDbEntity
  8
0
100
AcDbBlockEnd
  0
BLOCK
  5
34F
330
34E
100
AcDbEntity
  8
0
100
AcDbBlockBegin
  2
*D12
 70
1
 10
0.0
 20
0.0
 30
0.0
  3
*D12
  1

  0
LINE
  5
351
330
34E
100
AcDbEntity
  8
DIM
 62
5
370
9
440
16777216
100
AcDbLine
 10
303.5192953577207
 20
1306.7546433088428
 30
0.0
 11
264.2385869571008
 21
1306.7546433088428
 31
0.0
  0
LINE
  5
352
330
34E
100
AcDbEntity
  8
DIM
 62
5
370
9
440
16777216
100
AcDbLine
 10
304.5192953568185
 20
856.7546433088428
 30
0.0
 11
264.2385869571008
 21
856.7546433088428
 31
0.0
  0
LINE
  5
353
330
34E
100
AcDbEntity
  8
DIM
 62
5
370
9
440
16777216
100
AcDbLine
 10
269.2385869571008
 20
1301.7546433088537
 30
0.0
 11
269.2385869571008
 21
861.7546433088537
 31
0.0
  0
LINE
  5
354
330
34E
100
AcDbEntity
  8
0
  6
ByBlock
 62
0
370
-2
100
AcDbLine
 10
267.8988410070888
 20
1301.7546433088428
 30
0.0
 11
269.2385869571008
 21
1306.7546433088428
 31
0.0
  0
LINE
  5
355
330
34E
100
AcDbEntity
  8
0
  6
ByBlock
 62
0
370
-2
100
AcDbLine
 10
269.2385869571008
 20
1306.7546433088428
 30
0.0
 11
270.5783329071128
 21
1301.7546433088428
 31
0.0
  0
LINE
  5
356
330
34E
100
AcDbEntity
  8
0
  6
ByBlock
 62
0
370
-2
100
AcDbLine
 10
269.2385869571008
 20
1306.7546433088428
 30
0.0
 11
269.2385869571008
 21
1301.7546433088428
 31
0.0
  0
LINE
  5
357
330
34E
100
AcDbEntity
  8
0
  6
ByBlock
 62
0
370
-2
100
AcDbLine
 10
270.5783329071128
 20
861.7546433088428
 30
0.0
 11
269.2385869571008
 21
856.7546433088428
 31
0.0
  0
LINE
  5
358
330
34E
100
AcDbEntity
  8
0
  6
ByBlock
 62
0
370
-2
100
AcDbLine
 10
269.2385869571008
 20
856.7546433088428
 30
0.0
 11
267.8988410070888
 21
861.7546433088428
 31
0.0
  0
LINE
  5
359
330
34E
100
AcDbEntity
  8
0
  6
ByBlock
 62
0
370
-2
100
AcDbLine
 10
269.2385869571008
 20
856.7546433088428
 30
0.0
 11
269.2385869571008
 21
861.7546433088428
 31
0.0
  0
MTEXT
  5
35A
330
34E
100
AcDbEntity
  8
DIM
 62
3
440
16777216
100
AcDbMText
 10
233.70993757111137
 20
1081.754643308872
 30
0.0
 40
50.0
 41
0.0
 46
0.0
 71
5
  1
450
 11
1e-16
 21
1.0
 31
0.0
  0
POINT
  5
35B
330
34E
100
AcDbEntity
  8
Defpoints
 62
0
440
16777216
100
AcDbPoint
 10
318.519295357808
 20
1306.7546433088428
 30
0.0
  0
POINT
  5
35C
330
34E
100
AcDbEntity
  8
Defpoints
 62
0
440
16777216
100
AcDbPoint
 10
319.5192953568185
 20
856.7546433088428
 30
0.0
  0
POINT
  5
35D
330
34E
100
AcDbEntity
  8
Defpoints
 62
0
440
16777216
100
AcDbPoint
 10
269.2385869571008
 20
856.7546433088428
 30
0.0
  0
ENDBLK
  5
350
330
34E
100
AcDbEntity
  8
0
100
AcDbBlockEnd
  0
BLOCK
  5
35F
330
35E
100
AcDbEntity
  8
0
100
AcDbBlockBegin
  2
*D13
 70
1
 10
0.0
 20
0.0
 30
0.0
  3
*D13
  1

  0
LINE
  5
361
330
35E
100
AcDbEntity
  8
DIM
 62
5
370
9
440
16777216
100
AcDbLine
 10
1504.8156384855101
 20
1306.7546433088428
 30
0.0
 11
1465.5349300849193
 21
1306.7546433088428
 31
0.0
  0
LINE
  5
362
330
35E
100
AcDbEntity
  8
DIM
 62
5
370
9
440
16777216
100
AcDbLine
 10
1505.8156384845206
 20
856.7546433088428
 30
0.0
 11
1465.5349300849193
 21
856.7546433088428
 31
0.0
  0
LINE
  5
363
330
35E
100
AcDbEntity
  8
DIM
 62
5
370
9
440
16777216
100
AcDbLine
 10
1470.534930084803
 20
1301.7546433088537
 30
0.0
 11
1470.534930084803
 21
861.7546433088537
 31
0.0
  0
LINE
  5
364
330
35E
100
AcDbEntity
  8
0
  6
ByBlock
 62
0
370
-2
100
AcDbLine
 10
1469.195184134791
 20
1301.7546433088428
 30
0.0
 11
1470.534930084803
 21
1306.7546433088428
 31
0.0
  0
LINE
  5
365
330
35E
100
AcDbEntity
  8
0
  6
ByBlock
 62
0
370
-2
100
AcDbLine
 10
1470.534930084803
 20
1306.7546433088428
 30
0.0
 11
1471.874676034815
 21
1301.7546433088428
 31
0.0
  0
LINE
  5
366
330
35E
100
AcDbEntity
  8
0
  6
ByBlock
 62
0
370
-2
100
AcDbLine
 10
1470.534930084803
 20
1306.7546433088428
 30
0.0
 11
1470.534930084803
 21
1301.7546433088428
 31
0.0
  0
LINE
  5
367
330
35E
100
AcDbEntity
  8
0
  6
ByBlock
 62
0
370
-2
100
AcDbLine
 10
1471.874676034815
 20
861.7546433088428
 30
0.0
 11
1470.534930084803
 21
856.7546433088428
 31
0.0
  0
LINE
  5
368
330
35E
100
AcDbEntity
  8
0
  6
ByBlock
 62
0
370
-2
100
AcDbLine
 10
1470.534930084803
 20
856.7546433088428
 30
0.0
 11
1469.195184134791
 21
861.7546433088428
 31
0.0
  0
LINE
  5
369
330
35E
100
AcDbEntity
  8
0
  6
ByBlock
 62
0
370
-2
100
AcDbLine
 10
1470.534930084803
 20
856.7546433088428
 30
0.0
 11
1470.534930084803
 21
861.7546433088428
 31
0.0
  0
MTEXT
  5
36A
330
35E
100
AcDbEntity
  8
DIM
 62
3
440
16777216
100
AcDbMText
 10
1435.0062806988135
 20
1081.754643308872
 30
0.0
 40
50.0
 41
0.0
 46
0.0
 71
5
  1
450
 11
1e-16
 21
1.0
 31
0.0
  0
POINT
  5
36B
330
35E
100
AcDbEntity
  8
Defpoints
 62
0
440
16777216
100
AcDbPoint
 10
1519.8156384855101
 20
1306.7546433088428
 30
0.0
  0
POINT
  5
36C
330
35E
100
AcDbEntity
  8
Defpoints
 62
0
440
16777216
100
AcDbPoint
 10
1520.8156384845206
 20
856.7546433088428
 30
0.0
  0
POINT
  5
36D
330
35E
100
AcDbEntity
  8
Defpoints
 62
0
440
16777216
100
AcDbPoint
 10
1470.534930084803
 20
856.7546433088428
 30
0.0
  0
ENDBLK
  5
360
330
35E
100
AcDbEntity
  8
0
100
AcDbBlockEnd
  0
BLOCK
  5
36F
330
36E
100
AcDbEntity
  8
0
100
AcDbBlockBegin
  2
*D14
 70
1
 10
0.0
 20
0.0
 30
0.0
  3
*D14
  1

  0
LINE
  5
371
330
36E
100
AcDbEntity
  8
DIM
 62
5
370
9
440
16777216
100
AcDbLine
 10
2682.8477275216137
 20
1306.7546433088428
 30
0.0
 11
2643.567019120994
 21
1306.7546433088428
 31
0.0
  0
LINE
  5
372
330
36E
100
AcDbEntity
  8
DIM
 62
5
370
9
440
16777216
100
AcDbLine
 10
2683.8477275207115
 20
856.7546433088428
 30
0.0
 11
2643.567019120994
 21
856.7546433088428
 31
0.0
  0
LINE
  5
373
330
36E
100
AcDbEntity
  8
DIM
 62
5
370
9
440
16777216
100
AcDbLine
 10
2648.567019120994
 20
1301.7546433088537
 30
0.0
 11
2648.567019120994
 21
861.7546433088537
 31
0.0
  0
LINE
  5
374
330
36E
100
AcDbEntity
  8
0
  6
ByBlock
 62
0
370
-2
100
AcDbLine
 10
2647.227273170982
 20
1301.7546433088428
 30
0.0
 11
2648.567019120994
 21
1306.7546433088428
 31
0.0
  0
LINE
  5
375
330
36E
100
AcDbEntity
  8
0
  6
ByBlock
 62
0
370
-2
100
AcDbLine
 10
2648.567019120994
 20
1306.7546433088428
 30
0.0
 11
2649.906765071006
 21
1301.7546433088428
 31
0.0
  0
LINE
  5
376
330
36E
100
AcDbEntity
  8
0
  6
ByBlock
 62
0
370
-2
100
AcDbLine
 10
2648.567019120994
 20
1306.7546433088428
 30
0.0
 11
2648.567019120994
 21
1301.7546433088428
 31
0.0
  0
LINE
  5
377
330
36E
100
AcDbEntity
  8
0
  6
ByBlock
 62
0
370
-2
100
AcDbLine
 10
2649.906765071006
 20
861.7546433088428
 30
0.0
 11
2648.567019120994
 21
856.7546433088428
 31
0.0
  0
LINE
  5
378
330
36E
100
AcDbEntity
  8
0
  6
ByBlock
 62
0
370
-2
100
AcDbLine
 10
2648.567019120994
 20
856.7546433088428
 30
0.0
 11
2647.227273170982
 21
861.7546433088428
 31
0.0
  0
LINE
  5
379
330
36E
100
AcDbEntity
  8
0
  6
ByBlock
 62
0
370
-2
100
AcDbLine
 10
2648.567019120994
 20
856.7546433088428
 30
0.0
 11
2648.567019120994
 21
861.7546433088428
 31
0.0
  0
MTEXT
  5
37A
330
36E
100
AcDbEntity
  8
DIM
 62
3
440
16777216
100
AcDbMText
 10
2613.038369734917
 20
1081.754643308872
 30
0.0
 40
50.0
 41
0.0
 46
0.0
 71
5
  1
450
 11
1e-16
 21
1.0
 31
0.0
  0
POINT
  5
37B
330
36E
100
AcDbEntity
  8
Defpoints
 62
0
440
16777216
100
AcDbPoint
 10
2697.8477275216137
 20
1306.7546433088428
 30
0.0
  0
POINT
  5
37C
330
36E
100
AcDbEntity
  8
Defpoints
 62
0
440
16777216
100
AcDbPoint
 10
2698.8477275207115
 20
856.7546433088428
 30
0.0
  0
POINT
  5
37D
330
36E
100
AcDbEntity
  8
Defpoints
 62
0
440
16777216
100
AcDbPoint
 10
2648.567019120994
 20
856.7546433088428
 30
0.0
  0
ENDBLK
  5
370
330
36E
100
AcDbEntity
  8
0
100
AcDbBlockEnd
  0
ENDSEC
  0
SECTION
  2
ENTITIES
  0
LWPOLYLINE
  5
2F
330
17
100
AcDbEntity
  8
0
 48
3.0
100
AcDbPolyline
 90
4
 70
1
 10
2697.8477275216137
 20
3319.924911707032
 10
3497.8477275216137
 20
3319.924911707032
 10
3497.8477275216137
 20
1819.924911707043
 10
2697.8477275216137
 20
1819.924911707043
  0
LWPOLYLINE
  5
30
330
17
100
AcDbEntity
  8
0
  6
HIDDENX2
 48
3.0
100
AcDbPolyline
 90
4
 70
1
 10
2699.0477275215962
 20
3318.7249117070423
 10
3496.647727521602
 20
3318.7249117070423
 10
3496.647727521602
 20
1821.1249117070438
 10
2699.0477275215962
 20
1821.1249117070438
  0
LWPOLYLINE
  5
31
330
17
100
AcDbEntity
  8
0
 48
3.0
100
AcDbPolyline
 90
4
 70
1
 10
2745.247727521608
 20
3237.5249117070416
 10
3450.4477275216195
 20
3237.5249117070416
 10
3450.4477275216195
 20
1867.3249117070409
 10
2745.247727521608
 20
1867.3249117070409
  0
LWPOLYLINE
  5
32
330
17
100
AcDbEntity
  8
0
 62
3
 48
3.0
100
AcDbPolyline
 90
4
 70
1
 10
2771.4477275216195
 20
3211.324911707041
 10
3424.247727521608
 20
3211.324911707041
 10
3424.247727521608
 20
1893.5249117070416
 10
2771.4477275216195
 20
1893.5249117070416
  0
DIMENSION
  5
33
330
17
100
AcDbEntity
  8
0
 48
3.0
100
AcDbDimension
280
0
  2
*D1
  3
CNC
 10
3497.8477275216137
 20
3419.8093601788605
 30
0.0
 11
3097.8477275216137
 21
3455.338009564952
 31
0.0
 70
32
 71
5
 42
800.0
 73
0
 74
0
 75
0
100
AcDbAlignedDimension
 13
2697.8477275216137
 23
3319.924911707032
 33
0.0
 14
3497.8477275216137
 24
3319.924911707032
 34
0.0
 50
0.0
100
AcDbRotatedDimension
  0
DIMENSION
  5
3A
330
17
100
AcDbEntity
  8
0
 48
3.0
100
AcDbDimension
280
0
  2
*D2
  3
CNC
 10
2528.0120388565992
 20
1819.924911707043
 30
0.0
 11
2492.4833894704934
 21
2569.9249117070613
 31
0.0
 70
32
 71
5
 42
1500.0
 73
0
 74
0
 75
0
100
AcDbAlignedDimension
 13
2697.8477275216137
 23
3319.924911707032
 33
0.0
 14
2697.8477275216137
 24
1819.924911707043
 34
0.0
 50
90.0
100
AcDbRotatedDimension
  0
INSERT
  5
3B
330
17
100
AcDbEntity
  8
0
 62
7
100
AcDbBlockReference
  2
ovan6x9
 10
3433.457943373709
 20
3132.5249242838217
 30
0.0
  0
INSERT
  5
3D
330
17
100
AcDbEntity
  8
0
 62
7
100
AcDbBlockReference
  2
ovan6x9
 10
3433.457943373709
 20
3116.0249242838217
 30
0.0
  0
INSERT
  5
3F
330
17
100
AcDbEntity
  8
0
 62
7
100
AcDbBlockReference
  2
HL036-1-1
 10
3425.7578833774023
 20
3103.0249117070416
 30
0.0
  0
LWPOLYLINE
  5
41
330
17
100
AcDbEntity
  8
0
 62
7
100
AcDbPolyline
 90
18
 70
1
 10
4255.048230370216
 20
1858.1249117070329
 10
4255.048230370216
 20
1867.3249117070336
 10
4234.648230370192
 20
1867.3249117070336
 10
4234.648230370192
 20
1821.1249117070329
 10
3811.748230370198
 20
1821.1249117070329
 10
3811.748230370198
 20
1866.1249117070329
 10
3837.94823037021
 20
1866.1249117070329
 10
3837.94823037021
 20
1897.3249117070336
 10
3836.748230370198
 20
1897.3249117070336
 10
3836.748230370198
 20
1897.3249117070336
 10
3836.748230370198
 20
1897.3249117070336
 10
3836.748230370198
 20
1867.3249117070336
 10
3810.5482303702156
 20
1867.3249117070336
 10
3810.5482303702156
 20
1819.924911707043
 10
4235.848230370204
 20
1819.924911707043
 10
4235.848230370204
 20
1866.1249117070329
 10
4253.848230370204
 20
1866.1249117070329
 10
4253.848230370204
 20
1858.1249117070329
  0
LWPOLYLINE
  5
42
330
17
100
AcDbEntity
  8
0
 62
7
100
AcDbPolyline
 90
12
 70
1
 10
4238.348230370204
 20
3270.7249117070423
 10
4238.348230370204
 20
3282.7249117070423
 10
4259.348230370204
 20
3282.7249117070423
 10
4259.348230370204
 20
1822.1249117070329
 10
4238.348230370204
 20
1822.1249117070329
 10
4238.348230370204
 20
1834.1249117070438
 10
4237.148230370192
 20
1834.1249117070438
 10
4237.148230370192
 20
1820.924911707043
 10
4260.548230370216
 20
1820.924911707043
 10
4260.548230370216
 20
3283.924911707032
 10
4237.148230370192
 20
3283.924911707032
 10
4237.148230370192
 20
3270.7249117070423
  0
LWPOLYLINE
  5
43
330
17
100
AcDbEntity
  8
0
 62
7
100
AcDbPolyline
 90
18
 70
1
 10
4255.048230370216
 20
3246.7249117070423
 10
4255.048230370216
 20
3237.5249117070416
 10
4234.648230370192
 20
3237.5249117070416
 10
4234.648230370192
 20
3318.7249117070423
 10
3811.748230370198
 20
3318.7249117070423
 10
3811.748230370198
 20
3273.7249117070423
 10
3837.94823037021
 20
3273.7249117070423
 10
3837.94823037021
 20
3247.5249117070416
 10
3836.748230370198
 20
3247.5249117070416
 10
3836.748230370198
 20
3247.5249117070416
 10
3836.748230370198
 20
3247.5249117070416
 10
3836.748230370198
 20
3272.5249117070416
 10
3810.5482303702156
 20
3272.5249117070416
 10
3810.5482303702156
 20
3319.924911707032
 10
4235.848230370204
 20
3319.924911707032
 10
4235.848230370204
 20
3238.7249117070423
 10
4253.848230370204
 20
3238.7249117070423
 10
4253.848230370204
 20
3246.7249117070423
  0
LWPOLYLINE
  5
44
330
17
100
AcDbEntity
  8
0
 62
7
100
AcDbPolyline
 90
8
 70
1
 10
3835.748230370198
 20
3269.824911707041
 10
3811.748230370198
 20
3269.824911707041
 10
3811.748230370198
 20
1870.0249117070307
 10
3835.748230370198
 20
1870.0249117070307
 10
3835.748230370198
 20
1868.8249117070336
 10
3810.5482303702156
 20
1868.8249117070336
 10
3810.5482303702156
 20
3271.0249117070416
 10
3835.748230370198
 20
3271.0249117070416
  0
LWPOLYLINE
  5
45
330
17
100
AcDbEntity
  8
0
 62
3
100
AcDbPolyline
 90
8
 70
1
 10
4172.648230370192
 20
1892.3249117070336
 10
4184.648230370192
 20
1892.3249117070336
 10
4184.648230370192
 20
1822.3249117070336
 10
4172.648230370192
 20
1822.3249117070336
 10
4172.648230370192
 20
1821.1249117070329
 10
4185.848230370204
 20
1821.1249117070329
 10
4185.848230370204
 20
1893.5249117070307
 10
4172.648230370192
 20
1893.5249117070307
  0
LWPOLYLINE
  5
46
330
17
100
AcDbEntity
  8
0
 62
3
100
AcDbPolyline
 90
8
 70
1
 10
4172.648230370192
 20
3212.5249117070416
 10
4184.648230370192
 20
3212.5249117070416
 10
4184.648230370192
 20
3317.5249117070416
 10
4172.648230370192
 20
3317.5249117070416
 10
4172.648230370192
 20
3318.7249117070423
 10
4185.848230370204
 20
3318.7249117070423
 10
4185.848230370204
 20
3211.324911707052
 10
4172.648230370192
 20
3211.324911707052
  0
LWPOLYLINE
  5
47
330
17
100
AcDbEntity
  8
0
 62
6
100
AcDbPolyline
 90
12
 70
1
 10
4187.648230370192
 20
3220.324911707041
 10
4187.648230370192
 20
3230.324911707052
 10
4203.648230370192
 20
3230.324911707052
 10
4203.648230370192
 20
2849.3249117070336
 10
4187.648230370192
 20
2849.3249117070336
 10
4187.648230370192
 20
2859.3249117070336
 10
4186.44823037021
 20
2859.3249117070336
 10
4186.44823037021
 20
2848.124911707033
 10
4204.848230370204
 20
2848.124911707033
 10
4204.848230370204
 20
3231.5249117070416
 10
4186.44823037021
 20
3231.5249117070416
 10
4186.44823037021
 20
3220.324911707041
  0
LWPOLYLINE
  5
48
330
17
100
AcDbEntity
  8
FIRE PROTECTION
  6
Continuous
100
AcDbPolyline
 90
5
 70
1
 10
4290.548230370216
 20
3293.924911707043
 10
3810.5482303702156
 20
3293.924911707043
 10
3810.5482303702156
 20
3328.924911707043
 10
4171.748230370198
 20
3328.924911707043
 10
4290.548230370216
 20
3313.924911707043
  0
LWPOLYLINE
  5
49
330
17
100
AcDbEntity
  8
0
 62
6
100
AcDbPolyline
 90
12
 70
1
 10
4187.048230370216
 20
2832.924911707043
 10
4187.048230370216
 20
2842.924911707043
 10
4203.048230370216
 20
2842.924911707043
 10
4203.048230370216
 20
1874.5249117070307
 10
4187.048230370216
 20
1874.5249117070307
 10
4187.048230370216
 20
1884.5249117070307
 10
4185.848230370204
 20
1884.5249117070307
 10
4185.848230370204
 20
1873.3249117070336
 10
4204.248230370198
 20
1873.3249117070336
 10
4204.248230370198
 20
2844.124911707044
 10
4185.848230370204
 20
2844.124911707044
 10
4185.848230370204
 20
2832.924911707043
  0
LWPOLYLINE
  5
4A
330
17
100
AcDbEntity
  8
0
 62
3
100
AcDbPolyline
 90
12
 70
1
 10
3811.748230370198
 20
2821.124911707044
 10
3811.748230370198
 20
2821.124911707044
 10
3811.748230370198
 20
2821.124911707044
 10
4184.648230370192
 20
2821.124911707044
 10
4184.648230370192
 20
2871.124911707033
 10
4172.648230370192
 20
2871.124911707033
 10
4172.648230370192
 20
2872.3249117070336
 10
4185.848230370204
 20
2872.3249117070336
 10
4185.848230370204
 20
2819.924911707043
 10
3811.748230370198
 20
2819.924911707043
 10
3811.748230370198
 20
2821.124911707044
 10
3811.748230370198
 20
2821.124911707044
  0
LWPOLYLINE
  5
4B
330
17
100
AcDbEntity
  8
0
 62
3
 48
3.0
100
AcDbPolyline
 90
4
 70
1
 10
2771.4477275216195
 20
2819.924911707043
 10
3424.247727521608
 20
2819.924911707043
 10
3424.247727521608
 20
2872.3249117070336
 10
2771.4477275216195
 20
2872.3249117070336
  0
INSERT
  5
4C
330
17
100
AcDbEntity
  8
0
 62
7
100
AcDbBlockReference
  2
ovan6x9
 10
3433.457943373709
 20
2947.1248991302637
 30
0.0
 41
-1.0
 50
180.0
  0
INSERT
  5
4E
330
17
100
AcDbEntity
  8
0
 62
7
100
AcDbBlockReference
  2
ovan6x9
 10
3433.457943373709
 20
2963.6248991302527
 30
0.0
 41
-1.0
 50
180.0
  0
INSERT
  5
50
330
17
100
AcDbEntity
  8
0
 62
7
100
AcDbBlockReference
  2
HL036-1-1
 10
3425.7578833774023
 20
2976.624911707044
 30
0.0
 41
-1.0
 50
180.0
  0
LWPOLYLINE
  5
52
330
17
100
AcDbEntity
  8
0
 48
3.0
100
AcDbPolyline
 90
4
 70
1
 10
1519.8156384855101
 20
3319.924911707032
 10
2319.8156384853937
 20
3319.924911707032
 10
2319.8156384853937
 20
1819.924911707043
 10
1519.8156384855101
 20
1819.924911707043
  0
LWPOLYLINE
  5
53
330
17
100
AcDbEntity
  8
0
  6
HIDDENX2
 48
3.0
100
AcDbPolyline
 90
4
 70
1
 10
1521.0156384854927
 20
3318.7249117070423
 10
2318.615638485411
 20
3318.7249117070423
 10
2318.615638485411
 20
1821.1249117070438
 10
1521.0156384854927
 20
1821.1249117070438
  0
LWPOLYLINE
  5
54
330
17
100
AcDbEntity
  8
0
 48
3.0
100
AcDbPolyline
 90
4
 70
1
 10
1567.215638485417
 20
3237.5249117070416
 10
2272.4156384853995
 20
3237.5249117070416
 10
2272.4156384853995
 20
1867.3249117070409
 10
1567.215638485417
 20
1867.3249117070409
  0
LWPOLYLINE
  5
55
330
17
100
AcDbEntity
  8
0
 62
6
 48
3.0
100
AcDbPolyline
 90
4
 70
1
 10
1573.215638485417
 20
3231.5249117070416
 10
2266.4156384853995
 20
3231.5249117070416
 10
2266.4156384853995
 20
2848.124911707033
 10
1573.215638485417
 20
2848.124911707033
  0
LWPOLYLINE
  5
56
330
17
100
AcDbEntity
  8
0
  6
HIDDEN2
 62
6
 48
3.0
100
AcDbPolyline
 90
4
 70
1
 10
1574.4156384853995
 20
3230.324911707041
 10
2265.215638485417
 20
3230.324911707041
 10
2265.215638485417
 20
2849.3249117070336
 10
1574.4156384853995
 20
2849.3249117070336
  0
LWPOLYLINE
  5
57
330
17
100
AcDbEntity
  8
0
 62
3
 48
3.0
100
AcDbPolyline
 90
4
 70
1
 10
1593.4156384853995
 20
3211.324911707041
 10
2246.2156384855043
 20
3211.324911707041
 10
2246.2156384855043
 20
1893.5249117070416
 10
1593.4156384853995
 20
1893.5249117070416
  0
DIMENSION
  5
58
330
17
100
AcDbEntity
  8
0
 48
3.0
100
AcDbDimension
280
0
  2
*D3
  3
CNC
 10
2319.8156384853937
 20
3419.8093601788605
 30
0.0
 11
1919.8156384855101
 21
3455.338009564952
 31
0.0
 70
32
 71
5
 42
800.0
 73
0
 74
0
 75
0
100
AcDbAlignedDimension
 13
1519.8156384855101
 23
3319.924911707032
 33
0.0
 14
2319.8156384853937
 24
3319.924911707032
 34
0.0
 50
0.0
100
AcDbRotatedDimension
  0
DIMENSION
  5
59
330
17
100
AcDbEntity
  8
0
 48
3.0
100
AcDbDimension
280
0
  2
*D4
  3
CNC
 10
1349.9799498204084
 20
1819.924911707043
 30
0.0
 11
1314.4513004343025
 21
2569.9249117070613
 31
0.0
 70
32
 71
5
 42
1500.0
 73
0
 74
0
 75
0
100
AcDbAlignedDimension
 13
1519.8156384855101
 23
3319.924911707032
 33
0.0
 14
1519.8156384855101
 24
1819.924911707043
 34
0.0
 50
90.0
100
AcDbRotatedDimension
  0
INSERT
  5
5A
330
17
100
AcDbEntity
  8
0
 62
7
100
AcDbBlockReference
  2
ovan6x9
 10
2255.425854337518
 20
3132.5249242838217
 30
0.0
  0
INSERT
  5
5C
330
17
100
AcDbEntity
  8
0
 62
7
100
AcDbBlockReference
  2
ovan6x9
 10
2255.425854337518
 20
3116.0249242838217
 30
0.0
  0
INSERT
  5
5E
330
17
100
AcDbEntity
  8
0
 62
7
100
AcDbBlockReference
  2
HL036-1-1
 10
2247.7257943412988
 20
3103.0249117070416
 30
0.0
  0
INSERT
  5
60
330
17
100
AcDbEntity
  8
0
 62
7
100
AcDbBlockReference
  2
ovan6x9
 10
2255.425854337518
 20
1972.3248991302535
 30
0.0
 41
-1.0
 50
180.0
  0
INSERT
  5
62
330
17
100
AcDbEntity
  8
0
 62
7
100
AcDbBlockReference
  2
ovan6x9
 10
2255.425854337518
 20
1988.8248991302535
 30
0.0
 41
-1.0
 50
180.0
  0
INSERT
  5
64
330
17
100
AcDbEntity
  8
0
 62
7
100
AcDbBlockReference
  2
HL036-1-1
 10
2247.7257943412988
 20
2001.8249117070336
 30
0.0
 41
-1.0
 50
180.0
  0
LWPOLYLINE
  5
66
330
17
100
AcDbEntity
  8
0
 62
3
 48
3.0
100
AcDbPolyline
 90
4
 70
1
 10
1593.4156384853995
 20
2819.924911707043
 10
2246.2156384855043
 20
2819.924911707043
 10
2246.2156384855043
 20
2872.3249117070336
 10
1593.4156384853995
 20
2872.3249117070336
  0
LWPOLYLINE
  5
67
330
17
100
AcDbEntity
  8
0
 62
6
 48
3.0
100
AcDbPolyline
 90
4
 70
1
 10
1573.215638485417
 20
2844.124911707044
 10
2266.4156384853995
 20
2844.124911707044
 10
2266.4156384853995
 20
1873.3249117070409
 10
1573.215638485417
 20
1873.3249117070409
  0
LWPOLYLINE
  5
68
330
17
100
AcDbEntity
  8
0
  6
HIDDEN2
 62
6
 48
3.0
100
AcDbPolyline
 90
4
 70
1
 10
1574.4156384853995
 20
2842.924911707032
 10
2265.215638485417
 20
2842.924911707032
 10
2265.215638485417
 20
1874.5249117070416
 10
1574.4156384853995
 20
1874.5249117070416
  0
INSERT
  5
69
330
17
100
AcDbEntity
  8
0
 62
7
100
AcDbBlockReference
  2
ovan6x9
 10
2255.425854337518
 20
2947.1248991302637
 30
0.0
 41
-1.0
 50
180.0
  0
INSERT
  5
6B
330
17
100
AcDbEntity
  8
0
 62
7
100
AcDbBlockReference
  2
ovan6x9
 10
2255.425854337518
 20
2963.6248991302527
 30
0.0
 41
-1.0
 50
180.0
  0
INSERT
  5
6D
330
17
100
AcDbEntity
  8
0
 62
7
100
AcDbBlockReference
  2
HL036-1-1
 10
2247.7257943412988
 20
2976.624911707044
 30
0.0
 41
-1.0
 50
180.0
  0
INSERT
  5
6F
330
17
100
AcDbEntity
  8
0
 62
7
100
AcDbBlockReference
  2
ovan6x9
 10
2255.425854337518
 20
2745.124924283813
 30
0.0
  0
INSERT
  5
71
330
17
100
AcDbEntity
  8
0
 62
7
100
AcDbBlockReference
  2
ovan6x9
 10
2255.425854337518
 20
2728.624924283813
 30
0.0
  0
INSERT
  5
73
330
17
100
AcDbEntity
  8
0
 62
7
100
AcDbBlockReference
  2
HL036-1-1
 10
2247.7257943412988
 20
2715.624911707033
 30
0.0
  0
LWPOLYLINE
  5
75
330
17
100
AcDbEntity
  8
0
 62
8
100
AcDbPolyline
 90
8
 70
1
 10
1552.215638485417
 20
3204.324911707041
 10
1552.215638485417
 20
3234.324911707041
 10
1521.0156384854927
 20
3234.324911707041
 10
1521.0156384854927
 20
3250.5249117070307
 10
1522.215638485417
 20
3250.5249117070307
 10
1522.215638485417
 20
3235.5249117070416
 10
1553.4156384853995
 20
3235.5249117070416
 10
1553.4156384853995
 20
3204.324911707041
  0
LWPOLYLINE
  5
76
330
17
100
AcDbEntity
  8
0
 62
8
100
AcDbPolyline
 90
8
 70
1
 10
2287.4156384853995
 20
3204.324911707041
 10
2287.4156384853995
 20
3234.324911707041
 10
2318.615638485411
 20
3234.324911707041
 10
2318.615638485411
 20
3250.5249117070307
 10
2317.4156384853995
 20
3250.5249117070307
 10
2317.4156384853995
 20
3235.5249117070416
 10
2286.215638485417
 20
3235.5249117070416
 10
2286.215638485417
 20
3204.324911707041
  0
LWPOLYLINE
  5
77
330
17
100
AcDbEntity
  8
0
 62
8
100
AcDbPolyline
 90
8
 70
1
 10
2287.4156384853995
 20
2910.5249117070416
 10
2287.4156384853995
 20
2880.5249117070307
 10
2318.615638485411
 20
2880.5249117070307
 10
2318.615638485411
 20
2864.324911707041
 10
2317.4156384853995
 20
2864.324911707041
 10
2317.4156384853995
 20
2879.324911707041
 10
2286.215638485417
 20
2879.324911707041
 10
2286.215638485417
 20
2910.5249117070416
  0
LWPOLYLINE
  5
78
330
17
100
AcDbEntity
  8
0
 62
8
100
AcDbPolyline
 90
8
 70
1
 10
1552.215638485417
 20
2910.5249117070416
 10
1552.215638485417
 20
2880.5249117070307
 10
1521.0156384854927
 20
2880.5249117070307
 10
1521.0156384854927
 20
2864.324911707041
 10
1522.215638485417
 20
2864.324911707041
 10
1522.215638485417
 20
2879.324911707041
 10
1553.4156384853995
 20
2879.324911707041
 10
1553.4156384853995
 20
2910.5249117070416
  0
DIMENSION
  5
79
330
17
100
AcDbEntity
  8
0
 48
3.0
100
AcDbDimension
280
0
  2
*D5
  3
CNC
 10
2421.339371469221
 20
3219.924911707043
 30
0.0
 11
2385.8107220831153
 21
3152.128185922622
 31
0.0
 70
32
 71
5
 42
100.0
 73
0
 74
0
 75
0
100
AcDbAlignedDimension
 13
2319.8156384853937
 23
3319.924911707032
 33
0.0
 14
2286.215638485417
 24
3219.924911707043
 34
0.0
 50
90.0
100
AcDbRotatedDimension
  0
DIMENSION
  5
7A
330
17
100
AcDbEntity
  8
0
 48
3.0
100
AcDbDimension
280
0
  2
*D6
  3
CNC
 10
2421.339371469221
 20
2894.924911707043
 30
0.0
 11
2385.7936688771006
 21
3057.4249117070613
 31
0.0
 70
32
 71
5
 42
325.0
 73
0
 74
0
 75
0
100
AcDbAlignedDimension
 13
2286.215638485417
 23
3219.924911707043
 33
0.0
 14
2286.215638485417
 24
2894.924911707043
 34
0.0
 50
90.0
100
AcDbRotatedDimension
  0
LWPOLYLINE
  5
7B
330
17
100
AcDbEntity
  8
0
 62
8
100
AcDbPolyline
 90
8
 70
1
 10
2287.4156384853995
 20
1885.5249117070307
 10
2287.4156384853995
 20
1855.5249117070307
 10
2318.615638485411
 20
1855.5249117070307
 10
2318.615638485411
 20
1839.3249117070409
 10
2317.4156384853995
 20
1839.3249117070409
 10
2317.4156384853995
 20
1854.3249117070409
 10
2286.215638485417
 20
1854.3249117070409
 10
2286.215638485417
 20
1885.5249117070307
  0
LWPOLYLINE
  5
7C
330
17
100
AcDbEntity
  8
0
 62
8
100
AcDbPolyline
 90
8
 70
1
 10
1552.215638485417
 20
1885.5249117070307
 10
1552.215638485417
 20
1855.5249117070307
 10
1521.0156384854927
 20
1855.5249117070307
 10
1521.0156384854927
 20
1839.3249117070409
 10
1522.215638485417
 20
1839.3249117070409
 10
1522.215638485417
 20
1854.3249117070409
 10
1553.4156384853995
 20
1854.3249117070409
 10
1553.4156384853995
 20
1885.5249117070307
  0
DIMENSION
  5
7D
330
17
100
AcDbEntity
  8
0
 48
3.0
100
AcDbDimension
280
0
  2
*D7
  3
CNC
 10
2414.7200879507
 20
1869.9249117070322
 30
0.0
 11
2414.7200879507
 21
1764.7704955142508
 31
0.0
 70
160
 71
5
 42
50.0
 73
0
 74
0
 75
0
100
AcDbAlignedDimension
 13
2319.8156384853937
 23
1819.924911707043
 33
0.0
 14
2286.215638485417
 24
1869.9249117070322
 34
0.0
 50
90.0
100
AcDbRotatedDimension
  0
LWPOLYLINE
  5
7E
330
17
100
AcDbEntity
  8
0
 62
8
100
AcDbPolyline
 90
8
 70
1
 10
2287.4156384853995
 20
2756.324911707041
 10
2287.4156384853995
 20
2786.324911707041
 10
2318.615638485411
 20
2786.324911707041
 10
2318.615638485411
 20
2802.5249117070307
 10
2317.4156384853995
 20
2802.5249117070307
 10
2317.4156384853995
 20
2787.5249117070307
 10
2286.215638485417
 20
2787.5249117070307
 10
2286.215638485417
 20
2756.324911707041
  0
LWPOLYLINE
  5
7F
330
17
100
AcDbEntity
  8
0
 62
8
100
AcDbPolyline
 90
8
 70
1
 10
1552.215638485417
 20
2756.324911707041
 10
1552.215638485417
 20
2786.324911707041
 10
1521.0156384854927
 20
2786.324911707041
 10
1521.0156384854927
 20
2802.5249117070307
 10
1522.215638485417
 20
2802.5249117070307
 10
1522.215638485417
 20
2787.5249117070307
 10
1553.4156384853995
 20
2787.5249117070307
 10
1553.4156384853995
 20
2756.324911707041
  0
DIMENSION
  5
80
330
17
100
AcDbEntity
  8
0
 48
3.0
100
AcDbDimension
280
0
  2
*D8
  3
CNC
 10
2414.7200879507
 20
2771.924911707043
 30
0.0
 11
2379.191438564594
 21
2320.9249117070613
 31
0.0
 70
32
 71
5
 42
902.0
 73
0
 74
0
 75
0
100
AcDbAlignedDimension
 13
2286.215638485417
 23
1869.9249117070322
 33
0.0
 14
2286.215638485417
 24
2771.924911707043
 34
0.0
 50
90.0
100
AcDbRotatedDimension
  0
INSERT
  5
81
330
17
100
AcDbEntity
  8
0
 62
7
100
AcDbBlockReference
  2
HL011-1-6
 10
2285.6156384854985
 20
1974.9249117070322
 30
0.0
 41
-1.0
 50
180.0
  0
LWPOLYLINE
  5
83
330
17
100
AcDbEntity
  8
0
 62
2
100
AcDbPolyline
 90
4
 70
1
 10
2288.6156384854985
 20
1916.424911707043
 42
0.9999999999999998
 10
2288.6156384854985
 20
1908.424911707043
 10
2293.615638485411
 20
1908.424911707043
 42
0.9999999999999998
 10
2293.615638485411
 20
1916.424911707043
  0
LWPOLYLINE
  5
84
330
17
100
AcDbEntity
  8
0
 62
2
100
AcDbPolyline
 90
4
 70
1
 10
2288.6156384854985
 20
1941.424911707043
 42
0.9999999999999998
 10
2288.6156384854985
 20
1933.424911707043
 10
2293.615638485411
 20
1933.424911707043
 42
0.9999999999999998
 10
2293.615638485411
 20
1941.424911707043
  0
LWPOLYLINE
  5
85
330
17
100
AcDbEntity
  8
0
 62
2
100
AcDbPolyline
 90
4
 70
1
 10
2288.6156384854985
 20
1966.424911707043
 42
0.9999999999999998
 10
2288.6156384854985
 20
1958.424911707043
 10
2293.615638485411
 20
1958.424911707043
 42
0.9999999999999998
 10
2293.615638485411
 20
1966.424911707043
  0
INSERT
  5
86
330
17
100
AcDbEntity
  8
0
 62
7
100
AcDbBlockReference
  2
HL011-1-6
 10
2285.6156384854985
 20
3129.924911707043
 30
0.0
  0
LWPOLYLINE
  5
88
330
17
100
AcDbEntity
  8
0
 62
2
100
AcDbPolyline
 90
4
 70
1
 10
2288.6156384854985
 20
3188.424911707032
 42
-0.9999999999999998
 10
2288.6156384854985
 20
3196.424911707043
 10
2293.615638485411
 20
3196.424911707043
 42
-0.9999999999999998
 10
2293.615638485411
 20
3188.424911707032
  0
LWPOLYLINE
  5
89
330
17
100
AcDbEntity
  8
0
 62
2
100
AcDbPolyline
 90
4
 70
1
 10
2288.6156384854985
 20
3163.424911707043
 42
-0.9999999999999998
 10
2288.6156384854985
 20
3171.424911707032
 10
2293.615638485411
 20
3171.424911707032
 42
-0.9999999999999998
 10
2293.615638485411
 20
3163.424911707043
  0
LWPOLYLINE
  5
8A
330
17
100
AcDbEntity
  8
0
 62
2
100
AcDbPolyline
 90
4
 70
1
 10
2288.6156384854985
 20
3138.424911707043
 42
-0.9999999999999998
 10
2288.6156384854985
 20
3146.424911707043
 10
2293.615638485411
 20
3146.424911707043
 42
-0.9999999999999998
 10
2293.615638485411
 20
3138.424911707043
  0
INSERT
  5
8B
330
17
100
AcDbEntity
  8
0
 62
7
100
AcDbBlockReference
  2
HL011-1-6
 10
3463.647727521602
 20
1974.9249117070322
 30
0.0
 41
-1.0
 50
180.0
  0
LWPOLYLINE
  5
8D
330
17
100
AcDbEntity
  8
0
 62
2
100
AcDbPolyline
 90
4
 70
1
 10
3466.647727521602
 20
1916.424911707043
 42
0.9999999999999998
 10
3466.647727521602
 20
1908.424911707043
 10
3471.647727521602
 20
1908.424911707043
 42
0.9999999999999998
 10
3471.647727521602
 20
1916.424911707043
  0
LWPOLYLINE
  5
8E
330
17
100
AcDbEntity
  8
0
 62
2
100
AcDbPolyline
 90
4
 70
1
 10
3466.647727521602
 20
1941.424911707043
 42
0.9999999999999998
 10
3466.647727521602
 20
1933.424911707043
 10
3471.647727521602
 20
1933.424911707043
 42
0.9999999999999998
 10
3471.647727521602
 20
1941.424911707043
  0
LWPOLYLINE
  5
8F
330
17
100
AcDbEntity
  8
0
 62
2
100
AcDbPolyline
 90
4
 70
1
 10
3466.647727521602
 20
1966.424911707043
 42
0.9999999999999998
 10
3466.647727521602
 20
1958.424911707043
 10
3471.647727521602
 20
1958.424911707043
 42
0.9999999999999998
 10
3471.647727521602
 20
1966.424911707043
  0
INSERT
  5
90
330
17
100
AcDbEntity
  8
0
 62
7
100
AcDbBlockReference
  2
HL011-1-6
 10
3463.647727521602
 20
3129.924911707043
 30
0.0
  0
LWPOLYLINE
  5
92
330
17
100
AcDbEntity
  8
0
 62
2
100
AcDbPolyline
 90
4
 70
1
 10
3466.647727521602
 20
3188.424911707032
 42
-0.9999999999999998
 10
3466.647727521602
 20
3196.424911707043
 10
3471.647727521602
 20
3196.424911707043
 42
-0.9999999999999998
 10
3471.647727521602
 20
3188.424911707032
  0
LWPOLYLINE
  5
93
330
17
100
AcDbEntity
  8
0
 62
2
100
AcDbPolyline
 90
4
 70
1
 10
3466.647727521602
 20
3163.424911707043
 42
-0.9999999999999998
 10
3466.647727521602
 20
3171.424911707032
 10
3471.647727521602
 20
3171.424911707032
 42
-0.9999999999999998
 10
3471.647727521602
 20
3163.424911707043
  0
LWPOLYLINE
  5
94
330
17
100
AcDbEntity
  8
0
 62
2
100
AcDbPolyline
 90
4
 70
1
 10
3466.647727521602
 20
3138.424911707043
 42
-0.9999999999999998
 10
3466.647727521602
 20
3146.424911707043
 10
3471.647727521602
 20
3146.424911707043
 42
-0.9999999999999998
 10
3471.647727521602
 20
3138.424911707043
  0
LWPOLYLINE
  5
95
330
17
100
AcDbEntity
  8
0
100
AcDbPolyline
 90
4
 70
1
 10
318.519295357808
 20
1819.924911707043
 10
1118.519295357808
 20
1819.924911707043
 10
1118.519295357808
 20
3319.924911707032
 10
318.519295357808
 20
3319.924911707032
  0
DIMENSION
  5
96
330
17
100
AcDbEntity
  8
DIM
100
AcDbDimension
280
0
  2
*D9
  3
CNC
 10
1118.519295357808
 20
3410.9084593452135
 30
0.0
 11
718.5192953577207
 21
3446.437108731294
 31
0.0
 70
32
 71
5
 42
800.0
 73
0
 74
0
 75
0
  1
<>
100
AcDbAlignedDimension
 13
318.519295357808
 23
3319.924911707032
 33
0.0
 14
1118.519295357808
 24
3319.924911707032
 34
0.0
 50
0.0
100
AcDbRotatedDimension
  0
DIMENSION
  5
97
330
17
100
AcDbEntity
  8
DIM
100
AcDbDimension
280
0
  2
*D10
  3
CNC
 10
200.51661132639856
 20
1819.924911707043
 30
0.0
 11
200.51661132639856
 21
2569.9249117070613
 31
0.0
 70
160
 71
5
 42
1500.0
 73
0
 74
0
 75
0
100
AcDbAlignedDimension
 13
318.519295357808
 23
3319.924911707032
 33
0.0
 14
318.519295357808
 24
1819.924911707043
 34
0.0
 50
90.0
100
AcDbRotatedDimension
  0
CIRCLE
  5
98
330
17
100
AcDbEntity
  8
0
 62
2
100
AcDbCircle
 10
401.519295357808
 20
2652.4249117065738
 30
0.0
 40
12.5
  0
CIRCLE
  5
99
330
17
100
AcDbEntity
  8
0
 62
2
100
AcDbCircle
 10
401.519295357808
 20
2669.4249117065738
 30
0.0
 40
3.0
  0
CIRCLE
  5
9A
330
17
100
AcDbEntity
  8
0
 62
2
100
AcDbCircle
 10
401.519295357808
 20
2635.4249117065738
 30
0.0
 40
3.0
  0
INSERT
  5
9B
330
17
100
AcDbEntity
  8
0
 62
7
100
AcDbBlockReference
  2
MS308-2-1
 10
401.519295357808
 20
2652.4249117065738
 30
0.0
  0
INSERT
  5
9D
330
17
100
AcDbEntity
  8
0
 62
7
100
AcDbBlockReference
  2
HL011-1-3
 10
1084.019295357808
 20
1899.924911707043
 30
0.0
  0
LWPOLYLINE
  5
9F
330
17
100
AcDbEntity
  8
0
 62
2
100
AcDbPolyline
 90
4
 70
1
 10
1087.0192953577207
 20
1958.424911707043
 42
-0.9999999999999998
 10
1087.0192953577207
 20
1966.424911707043
 10
1092.0192953577207
 20
1966.424911707043
 42
-0.9999999999999998
 10
1092.0192953577207
 20
1958.424911707043
  0
LWPOLYLINE
  5
A0
330
17
100
AcDbEntity
  8
0
 62
2
100
AcDbPolyline
 90
4
 70
1
 10
1087.0192953577207
 20
1933.424911707043
 42
-0.9999999999999998
 10
1087.0192953577207
 20
1941.424911707043
 10
1092.0192953577207
 20
1941.424911707043
 42
-0.9999999999999998
 10
1092.0192953577207
 20
1933.424911707043
  0
LWPOLYLINE
  5
A1
330
17
100
AcDbEntity
  8
0
 62
2
100
AcDbPolyline
 90
4
 70
1
 10
1087.0192953577207
 20
1908.424911707043
 42
-0.9999999999999998
 10
1087.0192953577207
 20
1916.424911707043
 10
1092.0192953577207
 20
1916.424911707043
 42
-0.9999999999999998
 10
1092.0192953577207
 20
1908.424911707043
  0
INSERT
  5
A2
330
17
100
AcDbEntity
  8
0
 62
7
100
AcDbBlockReference
  2
HL011-1-3
 10
1084.019295357808
 20
3209.924911707043
 30
0.0
 41
-1.0
 50
180.0
  0
LWPOLYLINE
  5
A4
330
17
100
AcDbEntity
  8
0
 62
2
100
AcDbPolyline
 90
4
 70
1
 10
1087.0192953577207
 20
3151.424911707043
 42
0.9999999999999998
 10
1087.0192953577207
 20
3143.424911707043
 10
1092.0192953577207
 20
3143.424911707043
 42
0.9999999999999998
 10
1092.0192953577207
 20
3151.424911707043
  0
LWPOLYLINE
  5
A5
330
17
100
AcDbEntity
  8
0
 62
2
100
AcDbPolyline
 90
4
 70
1
 10
1087.0192953577207
 20
3176.424911707043
 42
0.9999999999999998
 10
1087.0192953577207
 20
3168.424911707043
 10
1092.0192953577207
 20
3168.424911707043
 42
0.9999999999999998
 10
1092.0192953577207
 20
3176.424911707043
  0
LWPOLYLINE
  5
A6
330
17
100
AcDbEntity
  8
0
 62
2
100
AcDbPolyline
 90
4
 70
1
 10
1087.0192953577207
 20
3201.424911707043
 42
0.9999999999999998
 10
1087.0192953577207
 20
3193.424911707043
 10
1092.0192953577207
 20
3193.424911707043
 42
0.9999999999999998
 10
1092.0192953577207
 20
3201.424911707043
  0
MTEXT
  5
A7
330
17
100
AcDbEntity
  8
0
 62
2
100
AcDbMText
 10
785.5431621673051
 20
1754.1104577331425
 30
0.0
 40
39.0
 41
425.0000000000145
 46
100.0000000000031
 71
5
 72
5
  1
Mặt cánh ngoài
  0
CIRCLE
  5
A8
330
17
100
AcDbEntity
  8
0
 62
2
100
AcDbCircle
 10
1624.9156384853122
 20
2708.7249117070205
 30
0.0
 40
11.0
  0
INSERT
  5
A9
330
17
100
AcDbEntity
  8
0
 62
7
100
AcDbBlockReference
  2
MS722
 10
1624.9156384853122
 20
2708.7249117070533
 30
0.0
 41
-1.0
 50
180.0
  0
LWPOLYLINE
  5
AB
330
17
100
AcDbEntity
  8
0
 62
2
 48
3.0
100
AcDbPolyline
 90
4
 70
1
 10
1614.6656384853122
 20
2698.4749117071005
 10
1635.1656384853122
 20
2698.4749117071005
 10
1635.1656384853122
 20
2718.9749117071115
 10
1614.6656384853122
 20
2718.9749117071115
  0
CIRCLE
  5
AC
330
17
100
AcDbEntity
  8
0
 62
2
100
AcDbCircle
 10
1624.9156384853122
 20
2008.7249117070533
 30
0.0
 40
11.0
  0
INSERT
  5
AD
330
17
100
AcDbEntity
  8
0
 62
7
100
AcDbBlockReference
  2
MS722
 10
1624.9156384853122
 20
2008.7249117070205
 30
0.0
  0
LWPOLYLINE
  5
AF
330
17
100
AcDbEntity
  8
0
 62
2
 48
3.0
100
AcDbPolyline
 90
4
 70
1
 10
1614.6656384853122
 20
2018.9749117069732
 10
1635.1656384853122
 20
2018.9749117069732
 10
1635.1656384853122
 20
1998.4749117069732
 10
1614.6656384853122
 20
1998.4749117069732
  0
CIRCLE
  5
B0
330
17
100
AcDbEntity
  8
0
 62
2
100
AcDbCircle
 10
1624.9156384853122
 20
2934.3249117070227
 30
0.0
 40
11.0
  0
INSERT
  5
B1
330
17
100
AcDbEntity
  8
0
 62
7
100
AcDbBlockReference
  2
MS722
 10
1624.9156384853122
 20
2934.324911707052
 30
0.0
 41
-1.0
 50
180.0
  0
CIRCLE
  5
B3
330
17
100
AcDbEntity
  8
0
 62
2
100
AcDbCircle
 10
1624.9156384853122
 20
3145.324911707052
 30
0.0
 40
11.0
  0
INSERT
  5
B4
330
17
100
AcDbEntity
  8
0
 62
7
100
AcDbBlockReference
  2
MS722
 10
1624.9156384853122
 20
3145.3249117070227
 30
0.0
  0
LWPOLYLINE
  5
B6
330
17
100
AcDbEntity
  8
0
 62
2
 48
3.0
100
AcDbPolyline
 90
4
 70
1
 10
1590.9156384853995
 20
3059.824911707041
 10
1599.9156384853995
 20
3059.824911707041
 10
1599.9156384853995
 20
3019.824911707041
 10
1590.9156384853995
 20
3019.824911707041
  0
HATCH
  5
B7
330
17
100
AcDbEntity
  8
0
 48
3.0
100
AcDbHatch
 10
0.0
 20
0.0
 30
0.0
210
0.0
220
0.0
230
1.0
  2
ANSI31
 70
0
 71
0
 91
1
 92
1
 93
4
 72
1
 10
1593.4156384853995
 20
3054.824911707041
 11
1595.4156384853995
 21
3054.824911707041
 72
1
 10
1595.4156384853995
 20
3054.824911707041
 11
1595.4156384853995
 21
3024.824911707041
 72
1
 10
1595.4156384853995
 20
3024.824911707041
 11
1593.4156384853995
 21
3024.824911707041
 72
1
 10
1593.4156384853995
 20
3024.824911707041
 11
1593.4156384853995
 21
3054.824911707041
 97
1
330
27F50A
 75
0
 76
1
 52
0.0
 41
1.0
 77
0
 78
1
 53
45.0
 43
239267.5758172632
 44
-57687.4133298322
 45
-0.0883883476
 46
0.0883883476
 79
0
 98
1
 10
239267.5758172632
 20
-57687.41332983218
  0
LWPOLYLINE
  5
B8
330
17
100
AcDbEntity
  8
0
 48
3.0
100
AcDbPolyline
 90
4
 70
1
 10
1593.4156384853995
 20
3054.824911707041
 10
1595.4156384853995
 20
3054.824911707041
 10
1595.4156384853995
 20
3024.824911707041
 10
1593.4156384853995
 20
3024.824911707041
  0
DIMENSION
  5
B9
330
17
100
AcDbEntity
  8
0
 48
3.0
100
AcDbDimension
280
0
  2
*D11
  3
CNC
 10
3697.5196213925956
 20
2819.924911707043
 30
0.0
 11
3661.990972006519
 21
3069.9249117070613
 31
0.0
 70
32
 71
5
 42
500.0
 73
0
 74
0
 75
0
100
AcDbAlignedDimension
 13
3810.5482303702156
 23
3319.924911707032
 33
0.0
 14
3811.748230370198
 24
2819.924911707043
 34
0.0
 50
90.0
100
AcDbRotatedDimension
  0
MTEXT
  5
BA
330
17
100
AcDbEntity
  8
0
 62
2
100
AcDbMText
 10
1983.1828605119954
 20
1754.1104577331425
 30
0.0
 40
39.0
 41
425.0000000000145
 46
100.0000000000031
 71
5
 72
5
  1
Mặt cánh trong
  0
MTEXT
  5
BB
330
17
100
AcDbEntity
  8
0
 62
2
100
AcDbMText
 10
3162.4153115886147
 20
1740.7275204858524
 30
0.0
 40
39.0
 41
425.0000000000145
 46
100.0000000000031
 71
5
 72
5
  1
trong tủ
  0
MTEXT
  5
BC
330
17
100
AcDbEntity
  8
0
 62
2
100
AcDbMText
 10
4068.2870299927017
 20
1740.7275204858524
 30
0.0
 40
39.0
 41
325.0000000000146
 46
100.0000000000031
 71
5
 72
5
  1
Hông tủ
  0
LWPOLYLINE
  5
BD
330
17
100
AcDbEntity
  8
0
 62
7
100
AcDbPolyline
 90
12
 70
1
 10
4959.545780505199
 20
1831.4249117061008
 10
4959.545780505199
 20
1819.9249117061008
 10
4983.545780505199
 20
1819.9249117061008
 10
4983.545780505199
 20
3282.924911707043
 10
4959.545780505199
 20
3282.924911707043
 10
4959.545780505199
 20
3269.424911707043
 10
4961.045780505199
 20
3269.424911707043
 10
4961.045780505199
 20
3281.424911707043
 10
4982.045780505199
 20
3281.424911707043
 10
4982.045780505199
 20
1821.4249117061008
 10
4961.045780505199
 20
1821.4249117061008
 10
4961.045780505199
 20
1831.4249117061008
  0
LWPOLYLINE
  5
BE
330
17
100
AcDbEntity
  8
0
 62
7
100
AcDbPolyline
 90
8
 70
1
 10
4535.045780505199
 20
1820.4249117070322
 10
4535.045780505199
 20
1820.4249117070322
 10
4535.045780505199
 20
3317.424911707043
 10
4535.045780505199
 20
3317.424911707043
 10
4535.045780505199
 20
3317.424911707043
 10
4533.545780505199
 20
3318.924911707043
 10
4533.545780505199
 20
1818.924911707043
 10
4535.045780505199
 20
1820.4249117070322
  0
LWPOLYLINE
  5
BF
330
17
100
AcDbEntity
  8
0
 62
7
100
AcDbPolyline
 90
14
 70
1
 10
4976.045780505199
 20
1855.424911707043
 10
4976.045780505199
 20
1866.924911707043
 10
4957.045780505199
 20
1866.924911707043
 10
4957.045780505199
 20
1820.4249117070322
 10
4535.045780505199
 20
1820.4249117070322
 10
4535.045780505199
 20
1820.4249117070322
 10
4545.045780505199
 20
1820.4249117070322
 10
4545.045780505199
 20
1820.4249117070322
 10
4535.045780505199
 20
1820.4249117070322
 10
4533.545780505199
 20
1818.924911707043
 10
4958.545780505199
 20
1818.924911707043
 10
4958.545780505199
 20
1865.424911707043
 10
4974.545780505199
 20
1865.424911707043
 10
4974.545780505199
 20
1855.424911707043
  0
LWPOLYLINE
  5
C0
330
17
100
AcDbEntity
  8
0
 62
7
100
AcDbPolyline
 90
14
 70
1
 10
4976.045780505199
 20
3247.424911707043
 10
4976.045780505199
 20
3235.924911707043
 10
4957.045780505199
 20
3235.924911707043
 10
4957.045780505199
 20
3317.424911707043
 10
4535.045780505199
 20
3317.424911707043
 10
4535.045780505199
 20
3317.424911707043
 10
4535.045780505199
 20
3317.424911707043
 10
4535.045780505199
 20
3317.424911707043
 10
4533.545780505199
 20
3318.924911707043
 10
4533.545780505199
 20
3318.924911707043
 10
4958.545780505199
 20
3318.924911707043
 10
4958.545780505199
 20
3237.424911707043
 10
4974.545780505199
 20
3237.424911707043
 10
4974.545780505199
 20
3247.424911707043
  0
LWPOLYLINE
  5
C1
330
17
100
AcDbEntity
  8
FIRE PROTECTION
  6
Continuous
100
AcDbPolyline
 90
5
 70
1
 10
5013.616369049007
 20
3293.924911707043
 10
4533.545780505199
 20
3293.924911707043
 10
4533.545780505199
 20
3333.924911707043
 10
4844.816369049018
 20
3333.924911707043
 10
5013.616369049007
 20
3313.924911707043
  0
LWPOLYLINE
  5
C2
330
17
100
AcDbEntity
  8
0
 62
2
100
AcDbPolyline
 90
6
 70
1
 10
4880.545780505199
 20
3136.424911707043
 10
4816.545780505199
 20
3136.424911707043
 42
0.4142135623730951
 10
4808.545780505199
 20
3128.424911707043
 10
4808.545780505199
 20
3125.424911707043
 10
4888.545780505199
 20
3125.424911707043
 10
4888.545780505199
 20
3128.424911707043
 42
0.4142135623730951
  0
LWPOLYLINE
  5
C3
330
17
100
AcDbEntity
  8
0
 62
2
100
AcDbPolyline
 90
6
 70
1
 10
4880.545780505199
 20
3105.424911707043
 10
4816.545780505199
 20
3105.424911707043
 42
0.4142135623730951
 10
4808.545780505199
 20
3097.424911707043
 10
4808.545780505199
 20
3094.424911707043
 10
4888.545780505199
 20
3094.424911707043
 10
4888.545780505199
 20
3097.424911707043
 42
0.4142135623730951
  0
LWPOLYLINE
  5
C4
330
17
100
AcDbEntity
  8
0
 62
2
100
AcDbPolyline
 90
6
 70
1
 10
4880.545780505199
 20
3167.424911707043
 10
4816.545780505199
 20
3167.424911707043
 42
0.4142135623730951
 10
4808.545780505199
 20
3159.424911707043
 10
4808.545780505199
 20
3156.424911707043
 10
4888.545780505199
 20
3156.424911707043
 10
4888.545780505199
 20
3159.424911707043
 42
0.4142135623730951
  0
LWPOLYLINE
  5
C5
330
17
100
AcDbEntity
  8
0
 62
2
100
AcDbPolyline
 90
6
 70
1
 10
4880.545780505199
 20
3074.424911707043
 10
4816.545780505199
 20
3074.424911707043
 42
0.4142135623730951
 10
4808.545780505199
 20
3066.424911707043
 10
4808.545780505199
 20
3063.424911707043
 10
4888.545780505199
 20
3063.424911707043
 10
4888.545780505199
 20
3066.424911707043
 42
0.4142135623730951
  0
LWPOLYLINE
  5
C6
330
17
100
AcDbEntity
  8
0
 62
2
100
AcDbPolyline
 90
6
 70
1
 10
4880.545780505199
 20
3043.424911707043
 10
4816.545780505199
 20
3043.424911707043
 42
0.4142135623730951
 10
4808.545780505199
 20
3035.424911707043
 10
4808.545780505199
 20
3032.424911707032
 10
4888.545780505199
 20
3032.424911707032
 10
4888.545780505199
 20
3035.424911707043
 42
0.4142135623730951
  0
LWPOLYLINE
  5
C7
330
17
100
AcDbEntity
  8
0
 62
2
100
AcDbPolyline
 90
6
 70
1
 10
4880.545780505199
 20
3012.424911707043
 10
4816.545780505199
 20
3012.424911707043
 42
0.4142135623730951
 10
4808.545780505199
 20
3004.424911707043
 10
4808.545780505199
 20
3001.424911707043
 10
4888.545780505199
 20
3001.424911707043
 10
4888.545780505199
 20
3004.424911707043
 42
0.4142135623730951
  0
LWPOLYLINE
  5
C8
330
17
100
AcDbEntity
  8
0
 62
2
100
AcDbPolyline
 90
6
 70
1
 10
4660.545780505199
 20
3136.424911707043
 10
4596.545780505199
 20
3136.424911707043
 42
0.4142135623730951
 10
4588.545780505199
 20
3128.424911707043
 10
4588.545780505199
 20
3125.424911707043
 10
4668.545780505199
 20
3125.424911707043
 10
4668.545780505199
 20
3128.424911707043
 42
0.4142135623730951
  0
LWPOLYLINE
  5
C9
330
17
100
AcDbEntity
  8
0
 62
2
100
AcDbPolyline
 90
6
 70
1
 10
4660.545780505199
 20
3105.424911707043
 10
4596.545780505199
 20
3105.424911707043
 42
0.4142135623730951
 10
4588.545780505199
 20
3097.424911707043
 10
4588.545780505199
 20
3094.424911707043
 10
4668.545780505199
 20
3094.424911707043
 10
4668.545780505199
 20
3097.424911707043
 42
0.4142135623730951
  0
LWPOLYLINE
  5
CA
330
17
100
AcDbEntity
  8
0
 62
2
100
AcDbPolyline
 90
6
 70
1
 10
4660.545780505199
 20
3167.424911707043
 10
4596.545780505199
 20
3167.424911707043
 42
0.4142135623730951
 10
4588.545780505199
 20
3159.424911707043
 10
4588.545780505199
 20
3156.424911707043
 10
4668.545780505199
 20
3156.424911707043
 10
4668.545780505199
 20
3159.424911707043
 42
0.4142135623730951
  0
LWPOLYLINE
  5
CB
330
17
100
AcDbEntity
  8
0
 62
2
100
AcDbPolyline
 90
6
 70
1
 10
4660.545780505199
 20
3074.424911707043
 10
4596.545780505199
 20
3074.424911707043
 42
0.4142135623730951
 10
4588.545780505199
 20
3066.424911707043
 10
4588.545780505199
 20
3063.424911707043
 10
4668.545780505199
 20
3063.424911707043
 10
4668.545780505199
 20
3066.424911707043
 42
0.4142135623730951
  0
LWPOLYLINE
  5
CC
330
17
100
AcDbEntity
  8
0
 62
2
100
AcDbPolyline
 90
6
 70
1
 10
4660.545780505199
 20
3043.424911707043
 10
4596.545780505199
 20
3043.424911707043
 42
0.4142135623730951
 10
4588.545780505199
 20
3035.424911707043
 10
4588.545780505199
 20
3032.424911707032
 10
4668.545780505199
 20
3032.424911707032
 10
4668.545780505199
 20
3035.424911707043
 42
0.4142135623730951
  0
LWPOLYLINE
  5
CD
330
17
100
AcDbEntity
  8
0
 62
2
100
AcDbPolyline
 90
6
 70
1
 10
4660.545780505199
 20
3012.424911707043
 10
4596.545780505199
 20
3012.424911707043
 42
0.4142135623730951
 10
4588.545780505199
 20
3004.424911707043
 10
4588.545780505199
 20
3001.424911707043
 10
4668.545780505199
 20
3001.424911707043
 10
4668.545780505199
 20
3004.424911707043
 42
0.4142135623730951
  0
LWPOLYLINE
  5
CE
330
17
100
AcDbEntity
  8
0
 62
2
100
AcDbPolyline
 90
6
 70
1
 10
4880.545780505199
 20
2103.924911707043
 10
4816.545780505199
 20
2103.924911707043
 42
0.4142135623730951
 10
4808.545780505199
 20
2095.924911707043
 10
4808.545780505199
 20
2092.924911707032
 10
4888.545780505199
 20
2092.924911707032
 10
4888.545780505199
 20
2095.924911707043
 42
0.4142135623730951
  0
LWPOLYLINE
  5
CF
330
17
100
AcDbEntity
  8
0
 62
2
100
AcDbPolyline
 90
6
 70
1
 10
4880.545780505199
 20
2072.924911707043
 10
4816.545780505199
 20
2072.924911707043
 42
0.4142135623730951
 10
4808.545780505199
 20
2064.924911707043
 10
4808.545780505199
 20
2061.924911707043
 10
4888.545780505199
 20
2061.924911707043
 10
4888.545780505199
 20
2064.924911707043
 42
0.4142135623730951
  0
LWPOLYLINE
  5
D0
330
17
100
AcDbEntity
  8
0
 62
2
100
AcDbPolyline
 90
6
 70
1
 10
4880.545780505199
 20
2134.924911707032
 10
4816.545780505199
 20
2134.924911707032
 42
0.4142135623730951
 10
4808.545780505199
 20
2126.924911707043
 10
4808.545780505199
 20
2123.924911707043
 10
4888.545780505199
 20
2123.924911707043
 10
4888.545780505199
 20
2126.924911707043
 42
0.4142135623730951
  0
LWPOLYLINE
  5
D1
330
17
100
AcDbEntity
  8
0
 62
2
100
AcDbPolyline
 90
6
 70
1
 10
4880.545780505199
 20
2041.924911707043
 10
4816.545780505199
 20
2041.924911707043
 42
0.4142135623730951
 10
4808.545780505199
 20
2033.9249117070322
 10
4808.545780505199
 20
2030.924911707043
 10
4888.545780505199
 20
2030.924911707043
 10
4888.545780505199
 20
2033.9249117070322
 42
0.4142135623730951
  0
LWPOLYLINE
  5
D2
330
17
100
AcDbEntity
  8
0
 62
2
100
AcDbPolyline
 90
6
 70
1
 10
4880.545780505199
 20
2010.9249117070322
 10
4816.545780505199
 20
2010.9249117070322
 42
0.4142135623730951
 10
4808.545780505199
 20
2002.924911707043
 10
4808.545780505199
 20
1999.924911707043
 10
4888.545780505199
 20
1999.924911707043
 10
4888.545780505199
 20
2002.924911707043
 42
0.4142135623730951
  0
LWPOLYLINE
  5
D3
330
17
100
AcDbEntity
  8
0
 62
2
100
AcDbPolyline
 90
6
 70
1
 10
4880.545780505199
 20
1979.924911707043
 10
4816.545780505199
 20
1979.924911707043
 42
0.4142135623730951
 10
4808.545780505199
 20
1971.924911707043
 10
4808.545780505199
 20
1968.9249117070322
 10
4888.545780505199
 20
1968.9249117070322
 10
4888.545780505199
 20
1971.924911707043
 42
0.4142135623730951
  0
LWPOLYLINE
  5
D4
330
17
100
AcDbEntity
  8
0
 62
2
100
AcDbPolyline
 90
6
 70
1
 10
4660.545780505199
 20
2103.924911707043
 10
4596.545780505199
 20
2103.924911707043
 42
0.4142135623730951
 10
4588.545780505199
 20
2095.924911707043
 10
4588.545780505199
 20
2092.924911707032
 10
4668.545780505199
 20
2092.924911707032
 10
4668.545780505199
 20
2095.924911707043
 42
0.4142135623730951
  0
LWPOLYLINE
  5
D5
330
17
100
AcDbEntity
  8
0
 62
2
100
AcDbPolyline
 90
6
 70
1
 10
4660.545780505199
 20
2072.924911707043
 10
4596.545780505199
 20
2072.924911707043
 42
0.4142135623730951
 10
4588.545780505199
 20
2064.924911707043
 10
4588.545780505199
 20
2061.924911707043
 10
4668.545780505199
 20
2061.924911707043
 10
4668.545780505199
 20
2064.924911707043
 42
0.4142135623730951
  0
LWPOLYLINE
  5
D6
330
17
100
AcDbEntity
  8
0
 62
2
100
AcDbPolyline
 90
6
 70
1
 10
4660.545780505199
 20
2134.924911707032
 10
4596.545780505199
 20
2134.924911707032
 42
0.4142135623730951
 10
4588.545780505199
 20
2126.924911707043
 10
4588.545780505199
 20
2123.924911707043
 10
4668.545780505199
 20
2123.924911707043
 10
4668.545780505199
 20
2126.924911707043
 42
0.4142135623730951
  0
LWPOLYLINE
  5
D7
330
17
100
AcDbEntity
  8
0
 62
2
100
AcDbPolyline
 90
6
 70
1
 10
4660.545780505199
 20
2041.924911707043
 10
4596.545780505199
 20
2041.924911707043
 42
0.4142135623730951
 10
4588.545780505199
 20
2033.9249117070322
 10
4588.545780505199
 20
2030.924911707043
 10
4668.545780505199
 20
2030.924911707043
 10
4668.545780505199
 20
2033.9249117070322
 42
0.4142135623730951
  0
LWPOLYLINE
  5
D8
330
17
100
AcDbEntity
  8
0
 62
2
100
AcDbPolyline
 90
6
 70
1
 10
4660.545780505199
 20
2010.9249117070322
 10
4596.545780505199
 20
2010.9249117070322
 42
0.4142135623730951
 10
4588.545780505199
 20
2002.924911707043
 10
4588.545780505199
 20
1999.924911707043
 10
4668.545780505199
 20
1999.924911707043
 10
4668.545780505199
 20
2002.924911707043
 42
0.4142135623730951
  0
LWPOLYLINE
  5
D9
330
17
100
AcDbEntity
  8
0
 62
2
100
AcDbPolyline
 90
6
 70
1
 10
4660.545780505199
 20
1979.924911707043
 10
4596.545780505199
 20
1979.924911707043
 42
0.4142135623730951
 10
4588.545780505199
 20
1971.924911707043
 10
4588.545780505199
 20
1968.9249117070322
 10
4668.545780505199
 20
1968.9249117070322
 10
4668.545780505199
 20
1971.924911707043
 42
0.4142135623730951
  0
INSERT
  5
DA
330
17
100
AcDbEntity
  8
0
 62
7
100
AcDbBlockReference
  2
om cot
 10
-93880.47437971004
 20
-34550.750185686265
 30
0.0
  0
INSERT
  5
DC
330
17
100
AcDbEntity
  8
0
 62
7
100
AcDbBlockReference
  2
om cot
 10
-93880.47437971004
 20
40088.600009100344
 30
0.0
 41
-1.0
 50
180.0
  0
LWPOLYLINE
  5
DE
330
17
100
AcDbEntity
  8
0
 62
2
100
AcDbPolyline
 90
6
 70
1
 10
4778.045780505199
 20
3136.424911707043
 10
4714.045780505199
 20
3136.424911707043
 42
0.4142135623730951
 10
4706.045780505199
 20
3128.424911707043
 10
4706.045780505199
 20
3125.424911707043
 10
4786.045780505199
 20
3125.424911707043
 10
4786.045780505199
 20
3128.424911707043
 42
0.4142135623730951
  0
LWPOLYLINE
  5
DF
330
17
100
AcDbEntity
  8
0
 62
2
100
AcDbPolyline
 90
6
 70
1
 10
4778.045780505199
 20
3105.424911707043
 10
4714.045780505199
 20
3105.424911707043
 42
0.4142135623730951
 10
4706.045780505199
 20
3097.424911707043
 10
4706.045780505199
 20
3094.424911707043
 10
4786.045780505199
 20
3094.424911707043
 10
4786.045780505199
 20
3097.424911707043
 42
0.4142135623730951
  0
LWPOLYLINE
  5
E0
330
17
100
AcDbEntity
  8
0
 62
2
100
AcDbPolyline
 90
6
 70
1
 10
4778.045780505199
 20
3167.424911707043
 10
4714.045780505199
 20
3167.424911707043
 42
0.4142135623730951
 10
4706.045780505199
 20
3159.424911707043
 10
4706.045780505199
 20
3156.424911707043
 10
4786.045780505199
 20
3156.424911707043
 10
4786.045780505199
 20
3159.424911707043
 42
0.4142135623730951
  0
LWPOLYLINE
  5
E1
330
17
100
AcDbEntity
  8
0
 62
2
100
AcDbPolyline
 90
6
 70
1
 10
4778.045780505199
 20
3074.424911707043
 10
4714.045780505199
 20
3074.424911707043
 42
0.4142135623730951
 10
4706.045780505199
 20
3066.424911707043
 10
4706.045780505199
 20
3063.424911707043
 10
4786.045780505199
 20
3063.424911707043
 10
4786.045780505199
 20
3066.424911707043
 42
0.4142135623730951
  0
LWPOLYLINE
  5
E2
330
17
100
AcDbEntity
  8
0
 62
2
100
AcDbPolyline
 90
6
 70
1
 10
4778.045780505199
 20
3043.424911707043
 10
4714.045780505199
 20
3043.424911707043
 42
0.4142135623730951
 10
4706.045780505199
 20
3035.424911707043
 10
4706.045780505199
 20
3032.424911707032
 10
4786.045780505199
 20
3032.424911707032
 10
4786.045780505199
 20
3035.424911707043
 42
0.4142135623730951
  0
LWPOLYLINE
  5
E3
330
17
100
AcDbEntity
  8
0
 62
2
100
AcDbPolyline
 90
6
 70
1
 10
4778.045780505199
 20
3012.424911707043
 10
4714.045780505199
 20
3012.424911707043
 42
0.4142135623730951
 10
4706.045780505199
 20
3004.424911707043
 10
4706.045780505199
 20
3001.424911707043
 10
4786.045780505199
 20
3001.424911707043
 10
4786.045780505199
 20
3004.424911707043
 42
0.4142135623730951
  0
LWPOLYLINE
  5
E4
330
17
100
AcDbEntity
  8
0
 62
2
100
AcDbPolyline
 90
6
 70
1
 10
4778.045780505199
 20
2103.924911707043
 10
4714.045780505199
 20
2103.924911707043
 42
0.4142135623730951
 10
4706.045780505199
 20
2095.924911707043
 10
4706.045780505199
 20
2092.924911707032
 10
4786.045780505199
 20
2092.924911707032
 10
4786.045780505199
 20
2095.924911707043
 42
0.4142135623730951
  0
LWPOLYLINE
  5
E5
330
17
100
AcDbEntity
  8
0
 62
2
100
AcDbPolyline
 90
6
 70
1
 10
4778.045780505199
 20
2072.924911707043
 10
4714.045780505199
 20
2072.924911707043
 42
0.4142135623730951
 10
4706.045780505199
 20
2064.924911707043
 10
4706.045780505199
 20
2061.924911707043
 10
4786.045780505199
 20
2061.924911707043
 10
4786.045780505199
 20
2064.924911707043
 42
0.4142135623730951
  0
LWPOLYLINE
  5
E6
330
17
100
AcDbEntity
  8
0
 62
2
100
AcDbPolyline
 90
6
 70
1
 10
4778.045780505199
 20
2134.924911707032
 10
4714.045780505199
 20
2134.924911707032
 42
0.4142135623730951
 10
4706.045780505199
 20
2126.924911707043
 10
4706.045780505199
 20
2123.924911707043
 10
4786.045780505199
 20
2123.924911707043
 10
4786.045780505199
 20
2126.924911707043
 42
0.4142135623730951
  0
LWPOLYLINE
  5
E7
330
17
100
AcDbEntity
  8
0
 62
2
100
AcDbPolyline
 90
6
 70
1
 10
4778.045780505199
 20
2041.924911707043
 10
4714.045780505199
 20
2041.924911707043
 42
0.4142135623730951
 10
4706.045780505199
 20
2033.9249117070322
 10
4706.045780505199
 20
2030.924911707043
 10
4786.045780505199
 20
2030.924911707043
 10
4786.045780505199
 20
2033.9249117070322
 42
0.4142135623730951
  0
LWPOLYLINE
  5
E8
330
17
100
AcDbEntity
  8
0
 62
2
100
AcDbPolyline
 90
6
 70
1
 10
4778.045780505199
 20
2010.9249117070322
 10
4714.045780505199
 20
2010.9249117070322
 42
0.4142135623730951
 10
4706.045780505199
 20
2002.924911707043
 10
4706.045780505199
 20
1999.924911707043
 10
4786.045780505199
 20
1999.924911707043
 10
4786.045780505199
 20
2002.924911707043
 42
0.4142135623730951
  0
LWPOLYLINE
  5
E9
330
17
100
AcDbEntity
  8
0
 62
2
100
AcDbPolyline
 90
6
 70
1
 10
4778.045780505199
 20
1979.924911707043
 10
4714.045780505199
 20
1979.924911707043
 42
0.4142135623730951
 10
4706.045780505199
 20
1971.924911707043
 10
4706.045780505199
 20
1968.9249117070322
 10
4786.045780505199
 20
1968.9249117070322
 10
4786.045780505199
 20
1971.924911707043
 42
0.4142135623730951
  0
INSERT
  5
EA
330
17
100
AcDbEntity
  8
0
 62
3
100
AcDbBlockReference
 66
1
  2
KHUNG CHUẨN
 10
-28842.88232544888
 20
48849.53085378547
 30
0.0
 41
1.704737719082913
 42
1.704737719082913
 43
1.704737719082913
  0
ATTRIB
  5
EB
330
EA
100
AcDbEntity
  8
0
 62
3
100
AcDbText
 10
1894.520596375718
 20
127.95375501127273
 30
0.0
 40
34.09475438160001
  1
VÕ TỦ
  7
Arial
100
AcDbAttribute
  2
#03
 70
0
280
1
 71
1
 72
0
  0
ATTRIB
  5
EC
330
EA
100
AcDbEntity
  8
0
 62
3
100
AcDbText
 10
1845.8195049574133
 20
34.81374757959202
 30
0.0
 40
34.09475438160001
  1
1500x700x450
  7
Arial
100
AcDbAttribute
  2
#07
 70
0
280
1
 71
1
 72
0
  0
ATTRIB
  5
ED
330
EA
100
AcDbEntity
  8
0
 62
3
100
AcDbText
 10
3123.845278730907
 20
127.95375501127273
 30
0.0
 40
34.09475438160001
  1
2
  7
Arial
100
AcDbAttribute
  2
#08
 70
0
280
1
 71
1
 72
0
  0
ATTRIB
  5
EE
330
EA
100
AcDbEntity
  8
0
 62
3
100
AcDbText
 10
3127.5046514015994
 20
38.46246188047371
 30
0.0
 40
34.09475438160001
  1
1.2
  7
Arial
100
AcDbAttribute
  2
#09
 70
0
280
1
 71
1
 72
0
  0
ATTRIB
  5
EF
330
EA
100
AcDbEntity
  8
0
 62
3
100
AcDbText
 10
3657.5737093826174
 20
127.95375501127273
 30
0.0
 40
34.09475438160001
  1
TREO CỘT
  7
Arial
100
AcDbAttribute
  2
#10
 70
0
280
1
 71
1
 72
0
  0
ATTRIB
  5
F0
330
EA
100
AcDbEntity
  8
0
 62
3
100
AcDbText
 10
3649.9230903749994
 20
50.24411573420366
 30
0.0
 40
34.09475438160001
  1
TỦ NGOÀI TRỜI 2 LỚP CÁNH
  7
Arial
100
AcDbAttribute
  2
#11
 70
0
280
1
 71
1
 72
0
  0
ATTRIB
  5
F1
330
EA
100
AcDbEntity
  8
0
 62
3
100
AcDbText
 10
873.0736925034143
 20
127.95375501127273
 30
0.0
 40
34.09475438160001
  1

  7
Arial
100
AcDbAttribute
  2
#02
 70
0
280
1
 71
1
 72
0
  0
ATTRIB
  5
F2
330
EA
100
AcDbEntity
  8
0
 62
3
100
AcDbText
 10
663.4894481059164
 20
37.74088424099318
 30
0.0
 40
34.09475438160001
  1

  7
Arial
100
AcDbAttribute
  2
#05
 70
0
280
1
 71
1
 72
0
  0
ATTRIB
  5
F3
330
EA
100
AcDbEntity
  8
0
 62
3
100
AcDbText
 10
1216.1664412246027
 20
36.52891863982222
 30
0.0
 40
34.09475438160001
  1

  7
Arial
100
AcDbAttribute
  2
#06
 70
0
280
1
 71
1
 72
0
  0
ATTRIB
  5
F4
330
EA
100
AcDbEntity
  8
0
 62
3
100
AcDbText
 10
232.39869905341766
 20
127.95375501127273
 30
0.0
 40
34.09475438160001
  1

  7
Arial
100
AcDbAttribute
  2
#01
 70
0
280
1
 71
1
 72
0
  0
ATTRIB
  5
F5
330
EA
100
AcDbEntity
  8
0
 62
3
100
AcDbText
 10
179.8772269480978
 20
35.01408031891333
 30
0.0
 40
34.09475438160001
  1
............
  7
Arial
100
AcDbAttribute
  2
#04
 70
0
280
1
 71
1
 72
0
  0
ATTRIB
  5
F6
330
EA
100
AcDbEntity
  8
0
 62
3
100
AcDbText
 10
4921.934612327197
 20
44.74493456565324
 30
0.0
 40
34.09475438160001
  1
.......
  7
Arial
100
AcDbAttribute
  2
#12
 70
0
280
1
 71
1
 72
0
  0
SEQEND
  5
F7
330
17
100
AcDbEntity
  8
0
 62
3
  0
DIMENSION
  5
F8
330
17
100
AcDbEntity
  8
DIM
100
AcDbDimension
280
0
  2
*D12
  3
CNC
 10
269.2385869571008
 20
856.7546433088428
 30
0.0
 11
233.70993757111137
 21
1081.754643308872
 31
0.0
 70
32
 71
5
 42
450.0
 73
0
 74
0
 75
0
100
AcDbAlignedDimension
 13
318.519295357808
 23
1306.7546433088428
 33
0.0
 14
319.5192953568185
 24
856.7546433088428
 34
0.0
 50
90.0
100
AcDbRotatedDimension
  0
LWPOLYLINE
  5
F9
330
17
100
AcDbEntity
  8
0
  6
HIDDEN
 62
2
100
AcDbPolyline
 90
4
 70
1
 10
543.519295357808
 20
1216.7546433088428
 10
543.519295357808
 20
1116.7546433088428
 10
893.519295357808
 20
1116.7546433088428
 10
893.519295357808
 20
1216.7546433088428
  0
HATCH
  5
FA
330
17
100
AcDbEntity
  8
0
 48
3.0
100
AcDbHatch
 10
0.0
 20
0.0
 30
0.0
210
0.0
220
0.0
230
1.0
  2
ANSI31
 70
0
 71
0
 91
2
 92
16
 93
4
 72
1
 10
528.5192953577207
 20
1231.7546433088428
 11
528.5192953577207
 21
1101.7546433088537
 72
1
 10
528.5192953577207
 20
1101.7546433088537
 11
908.5192953577207
 21
1101.7546433088537
 72
1
 10
908.5192953577207
 20
1101.7546433088537
 11
908.5192953577207
 21
1231.7546433088428
 72
1
 10
908.5192953577207
 20
1231.7546433088428
 11
528.5192953577207
 21
1231.7546433088428
 97
1
330
27F54E
 92
1
 93
4
 72
1
 10
318.519295357808
 20
1306.7546433088428
 11
1118.519295357808
 21
1306.7546433088428
 72
1
 10
1118.519295357808
 20
1306.7546433088428
 11
1118.519295357808
 21
881.7546433088428
 72
1
 10
1118.519295357808
 20
881.7546433088428
 11
318.519295357808
 21
881.7546433088428
 72
1
 10
318.519295357808
 20
881.7546433088428
 11
318.519295357808
 21
1306.7546433088428
 97
1
330
27F561
 75
0
 76
1
 52
0.0
 41
200.0
 77
0
 78
1
 53
45.0
 43
26817775.51547178
 44
23329523.34939902
 45
-3535.5339059327
 46
3535.5339059327
 79
0
 98
11
 10
166154.3254678218
 20
-27195.10513762063
 10
166154.3254678218
 20
-27195.10513762063
 10
166154.3254678218
 20
-27195.10513762063
 10
166154.3254678218
 20
-27195.10513762063
 10
166154.3254678218
 20
-27195.10513762063
 10
166154.3254678218
 20
-27195.10513762063
 10
166154.3254678218
 20
-27195.10513762063
 10
166154.3254678218
 20
-27195.10513762063
 10
166154.3254678218
 20
-27195.10513762063
 10
166154.3254678218
 20
-27195.10513762063
 10
166154.3254678218
 20
-27195.10513762063
  0
HATCH
  5
FB
330
17
100
AcDbEntity
  8
0
 48
3.0
100
AcDbHatch
 10
0.0
 20
0.0
 30
0.0
210
0.0
220
0.0
230
1.0
  2
ANSI31
 70
0
 71
0
 91
1
 92
1
 93
4
 72
1
 10
528.5192953577207
 20
1231.7546433088428
 11
528.5192953577207
 21
1101.7546433088537
 72
1
 10
528.5192953577207
 20
1101.7546433088537
 11
908.5192953577207
 21
1101.7546433088537
 72
1
 10
908.5192953577207
 20
1101.7546433088537
 11
908.5192953577207
 21
1231.7546433088428
 72
1
 10
908.5192953577207
 20
1231.7546433088428
 11
528.5192953577207
 21
1231.7546433088428
 97
1
330
27F54E
 75
0
 76
1
 52
75.0
 41
100.0
 77
0
 78
1
 53
195.0
 43
-7798760.176593365
 44
15963809.02130545
 45
323.5238063782
 46
-1207.4072828613
 79
0
 98
1
 10
134013.8775773589
 20
116647.6167469951
  0
LWPOLYLINE
  5
FC
330
17
100
AcDbEntity
  8
0
100
AcDbPolyline
 90
4
 70
1
 10
528.5192953577207
 20
1231.7546433088428
 10
528.5192953577207
 20
1101.7546433088537
 10
908.5192953577207
 20
1101.7546433088537
 10
908.5192953577207
 20
1231.7546433088428
  0
LWPOLYLINE
  5
FD
330
17
100
AcDbEntity
  8
0
 62
2
100
AcDbPolyline
 90
4
 70
1
 10
540.4181566901098
 20
1219.855781976541
 10
531.4181566901098
 20
1219.855781976541
 10
531.4181566901098
 20
1228.855781976541
 10
540.4181566901098
 20
1228.855781976541
  0
CIRCLE
  5
FE
330
17
100
AcDbEntity
  8
0
 62
7
100
AcDbCircle
 10
535.9181566901098
 20
1224.355781976541
 30
0.0
 40
4.0
  0
LWPOLYLINE
  5
FF
330
17
100
AcDbEntity
  8
0
 62
2
100
AcDbPolyline
 90
4
 70
1
 10
540.4181566901098
 20
1113.6535046411518
 10
531.4181566901098
 20
1113.6535046411518
 10
531.4181566901098
 20
1104.653504641141
 10
540.4181566901098
 20
1104.653504641141
  0
CIRCLE
  5
100
330
17
100
AcDbEntity
  8
0
 62
7
100
AcDbCircle
 10
535.9181566901098
 20
1109.1535046411518
 30
0.0
 40
4.0
  0
LWPOLYLINE
  5
101
330
17
100
AcDbEntity
  8
0
 62
2
100
AcDbPolyline
 90
4
 70
1
 10
896.620434025419
 20
1219.855781976541
 10
905.620434025419
 20
1219.855781976541
 10
905.620434025419
 20
1228.855781976541
 10
896.620434025419
 20
1228.855781976541
  0
CIRCLE
  5
102
330
17
100
AcDbEntity
  8
0
 62
7
100
AcDbCircle
 10
901.120434025419
 20
1224.355781976541
 30
0.0
 40
4.0
  0
LWPOLYLINE
  5
103
330
17
100
AcDbEntity
  8
0
 62
2
100
AcDbPolyline
 90
4
 70
1
 10
896.620434025419
 20
1113.6535046411518
 10
905.620434025419
 20
1113.6535046411518
 10
905.620434025419
 20
1104.653504641141
 10
896.620434025419
 20
1104.653504641141
  0
CIRCLE
  5
104
330
17
100
AcDbEntity
  8
0
 62
7
100
AcDbCircle
 10
901.120434025419
 20
1109.1535046411518
 30
0.0
 40
4.0
  0
MTEXT
  5
105
330
17
100
AcDbEntity
  8
0
 62
2
100
AcDbMText
 10
728.6376810352958
 20
792.6490102538737
 30
0.0
 40
39.0
 41
875.0000000000146
 46
100.0000000000031
 71
5
 72
5
  1
Đáy tủ
  0
LWPOLYLINE
  5
106
330
17
100
AcDbEntity
  8
0
 62
7
100
AcDbPolyline
 90
12
 70
1
 10
1534.3156384845206
 20
880.7546433088537
 10
1520.8156384845206
 20
880.7546433088537
 10
1520.8156384845206
 20
856.7546433088428
 10
2318.81563848551
 20
856.7546433088428
 10
2318.81563848551
 20
880.7546433088537
 10
2305.31563848551
 20
880.7546433088537
 10
2305.31563848551
 20
879.2546433088428
 10
2317.31563848551
 20
879.2546433088428
 10
2317.31563848551
 20
858.2546433088428
 10
1522.3156384845206
 20
858.2546433088428
 10
1522.3156384845206
 20
879.2546433088428
 10
1534.3156384845206
 20
879.2546433088428
  0
LWPOLYLINE
  5
107
330
17
100
AcDbEntity
  8
0
 62
7
100
AcDbPolyline
 90
8
 70
1
 10
1559.3156384855101
 20
1295.2546433088428
 10
1559.3156384855101
 20
1305.2546433088428
 10
2280.3156384853937
 20
1305.2546433088428
 10
2280.3156384853937
 20
1295.2546433088428
 10
2281.81563848551
 20
1295.2546433088428
 10
2281.81563848551
 20
1306.7546433088428
 10
1557.8156384853937
 20
1306.7546433088428
 10
1557.8156384853937
 20
1295.2546433088428
  0
DIMENSION
  5
108
330
17
100
AcDbEntity
  8
DIM
100
AcDbDimension
280
0
  2
*D13
  3
CNC
 10
1470.534930084803
 20
856.7546433088428
 30
0.0
 11
1435.0062806988135
 21
1081.754643308872
 31
0.0
 70
32
 71
5
 42
450.0
 73
0
 74
0
 75
0
100
AcDbAlignedDimension
 13
1519.8156384855101
 23
1306.7546433088428
 33
0.0
 14
1520.8156384845206
 24
856.7546433088428
 34
0.0
 50
90.0
100
AcDbRotatedDimension
  0
LWPOLYLINE
  5
109
330
17
100
AcDbEntity
  8
0
 62
7
100
AcDbPolyline
 90
14
 70
1
 10
1554.3156384855101
 20
862.2546433088428
 10
1567.8156384855101
 20
862.2546433088428
 10
1567.8156384855101
 20
883.2546433088428
 10
1521.3156384855101
 20
883.2546433088428
 10
1521.3156384855101
 20
1305.2546433088428
 10
1556.3156384855101
 20
1305.2546433088428
 10
1556.3156384855101
 20
1295.2546433088428
 10
1557.8156384853937
 20
1295.2546433088428
 10
1557.8156384853937
 20
1306.7546433088428
 10
1519.8156384855101
 20
1306.7546433088428
 10
1519.8156384855101
 20
881.7546433088428
 10
1566.3156384855101
 20
881.7546433088428
 10
1566.3156384855101
 20
863.7546433088428
 10
1554.3156384855101
 20
863.7546433088428
  0
LWPOLYLINE
  5
10A
330
17
100
AcDbEntity
  8
0
 62
7
100
AcDbPolyline
 90
14
 70
1
 10
2285.31563848551
 20
862.2546433088428
 10
2271.81563848551
 20
862.2546433088428
 10
2271.81563848551
 20
883.2546433088428
 10
2318.31563848551
 20
883.2546433088428
 10
2318.31563848551
 20
1305.2546433088428
 10
2283.31563848551
 20
1305.2546433088428
 10
2283.31563848551
 20
1295.2546433088428
 10
2281.81563848551
 20
1295.2546433088428
 10
2281.81563848551
 20
1306.7546433088428
 10
2319.8156384853937
 20
1306.7546433088428
 10
2319.8156384853937
 20
881.7546433088428
 10
2273.31563848551
 20
881.7546433088428
 10
2273.31563848551
 20
863.7546433088428
 10
2285.31563848551
 20
863.7546433088428
  0
INSERT
  5
10B
330
17
100
AcDbEntity
  8
0
 62
7
100
AcDbBlockReference
  2
HL011-1-4
 10
2285.31563848551
 20
881.7546433088428
 30
0.0
 41
-1.0
 50
180.0
  0
MTEXT
  5
10D
330
17
100
AcDbEntity
  8
0
 62
2
100
AcDbMText
 10
2022.1101889859128
 20
743.0434729105618
 30
0.0
 40
39.0
 41
775.0000000000146
 46
100.0000000000031
 71
5
 72
5
  1
Mặt cắt ngang \Pngăn chống tổn thất
  0
LWPOLYLINE
  5
10E
330
17
100
AcDbEntity
  8
0
 48
3.0
100
AcDbPolyline
 90
4
 70
1
 10
318.519295357808
 20
1306.7546433088428
 10
1118.519295357808
 20
1306.7546433088428
 10
1118.519295357808
 20
881.7546433088428
 10
318.519295357808
 20
881.7546433088428
  0
HATCH
  5
10F
330
17
100
AcDbEntity
  8
0
 48
3.0
100
AcDbHatch
 10
0.0
 20
0.0
 30
0.0
210
0.0
220
0.0
230
1.0
  2
ANSI31
 70
0
 71
0
 91
1
 92
1
 93
4
 72
1
 10
1117.519295357808
 20
880.7546433088537
 11
319.5192953568185
 21
880.7546433088537
 72
1
 10
319.5192953568185
 20
880.7546433088537
 11
319.5192953568185
 21
856.7546433088428
 72
1
 10
319.5192953568185
 20
856.7546433088428
 11
1117.519295357808
 21
856.7546433088428
 72
1
 10
1117.519295357808
 20
856.7546433088428
 11
1117.519295357808
 21
880.7546433088537
 97
1
330
27F563
 75
0
 76
1
 52
90.0
 41
50.0
 77
0
 78
1
 53
225.0
 43
-5829880.837349754
 44
6704443.878867946
 45
220.9708691208
 46
-220.9708691208
 79
0
 98
1
 10
134088.8775773589
 20
116597.6167469951
  0
LWPOLYLINE
  5
110
330
17
100
AcDbEntity
  8
0
 48
3.0
100
AcDbPolyline
 90
4
 70
1
 10
1117.519295357808
 20
880.7546433088537
 10
319.5192953568185
 20
880.7546433088537
 10
319.5192953568185
 20
856.7546433088428
 10
1117.519295357808
 20
856.7546433088428
  0
LWPOLYLINE
  5
111
330
17
100
AcDbEntity
  8
0
 62
3
100
AcDbPolyline
 90
8
 70
1
 10
1522.8156384855101
 20
965.2546433088428
 10
1522.8156384855101
 20
953.2546433088428
 10
1592.8156384855101
 20
953.2546433088428
 10
1592.8156384855101
 20
965.2546433088428
 10
1594.3156384855101
 20
965.2546433088428
 10
1594.3156384855101
 20
951.7546433088428
 10
1521.3156384855101
 20
951.7546433088428
 10
1521.3156384855101
 20
965.2546433088428
  0
LWPOLYLINE
  5
112
330
17
100
AcDbEntity
  8
0
 62
3
100
AcDbPolyline
 90
8
 70
1
 10
2316.81563848551
 20
965.2546433088428
 10
2316.81563848551
 20
953.2546433088428
 10
2246.81563848551
 20
953.2546433088428
 10
2246.81563848551
 20
965.2546433088428
 10
2245.31563848551
 20
965.2546433088428
 10
2245.31563848551
 20
951.7546433088428
 10
2318.31563848551
 20
951.7546433088428
 10
2318.31563848551
 20
965.2546433088428
  0
LWPOLYLINE
  5
113
330
17
100
AcDbEntity
  8
0
 62
6
100
AcDbPolyline
 90
12
 70
1
 10
2254.31563848551
 20
949.9546433088435
 10
2264.31563848551
 20
949.9546433088435
 10
2264.31563848551
 20
933.9546433088435
 10
1575.3156384855101
 20
933.9546433088435
 10
1575.3156384855101
 20
949.9546433088435
 10
1585.3156384855101
 20
949.9546433088435
 10
1585.3156384855101
 20
951.4546433088435
 10
1573.8156384853937
 20
951.4546433088435
 10
1573.8156384853937
 20
932.4546433088435
 10
2265.81563848551
 20
932.4546433088435
 10
2265.81563848551
 20
951.4546433088435
 10
2254.31563848551
 20
951.4546433088435
  0
INSERT
  5
114
330
17
100
AcDbEntity
  8
0
 62
7
100
AcDbBlockReference
  2
HL036-1-2
 10
2263.2156384855043
 20
951.7546433088428
 30
0.0
 41
-1.0
 50
180.0
  0
LWPOLYLINE
  5
116
330
17
100
AcDbEntity
  8
0
 62
3
 48
3.0
100
AcDbPolyline
 90
17
 70
0
 10
1521.3156384855101
 20
971.7546433088428
 10
1594.3156384855101
 20
971.7546433088428
 10
1594.3156384855101
 20
951.7546433088428
 10
2245.31563848551
 20
951.7546433088428
 10
2245.31563848551
 20
971.7546433088428
 10
2318.31563848551
 20
971.7546433088428
 10
2318.31563848551
 20
1305.2546433088428
 10
2288.31563848551
 20
1305.2546433088428
 10
2288.31563848551
 20
1288.7546433088428
 10
2275.31563848551
 20
1288.7546433088428
 10
2275.31563848551
 20
1305.2546433088428
 10
1562.8156384855101
 20
1305.2546433088428
 10
1562.8156384855101
 20
1288.7546433088428
 10
1552.8156384855101
 20
1288.7546433088428
 10
1552.8156384855101
 20
1305.2546433088428
 10
1521.3156384855101
 20
1305.2546433088428
 10
1521.3156384855101
 20
971.7546433088428
  0
LWPOLYLINE
  5
117
330
17
100
AcDbEntity
  8
0
 62
3
 48
3.0
100
AcDbPolyline
 90
16
 70
1
 10
1522.8156384855101
 20
971.7546433088428
 10
1594.3156384855101
 20
971.7546433088428
 10
1594.3156384855101
 20
953.2546433088428
 10
2245.31563848551
 20
953.2546433088428
 10
2245.31563848551
 20
971.7546433088428
 10
2316.81563848551
 20
971.7546433088428
 10
2316.81563848551
 20
1303.7546433088537
 10
2288.31563848551
 20
1303.7546433088537
 10
2288.31563848551
 20
1288.7546433088428
 10
2275.31563848551
 20
1288.7546433088428
 10
2275.31563848551
 20
1303.7546433088537
 10
1562.8156384855101
 20
1303.7546433088537
 10
1562.8156384855101
 20
1288.7546433088428
 10
1552.8156384855101
 20
1288.7546433088428
 10
1552.8156384855101
 20
1303.7546433088537
 10
1522.8156384855101
 20
1303.7546433088537
  0
LWPOLYLINE
  5
118
330
17
100
AcDbEntity
  8
0
 62
2
 48
3.0
100
AcDbPolyline
 90
4
 70
1
 10
1619.8156384855101
 20
1235.2546433088428
 10
2219.81563848551
 20
1235.2546433088428
 10
2219.81563848551
 20
1155.2546433088428
 10
1619.8156384855101
 20
1155.2546433088428
  0
LWPOLYLINE
  5
119
330
17
100
AcDbEntity
  8
0
 62
44
100
AcDbPolyline
 90
4
 70
1
 10
1521.3156384855101
 20
1288.7546433088428
 10
1554.3156384855101
 20
1288.7546433088428
 10
1554.3156384855101
 20
965.2546433088428
 10
1521.3156384855101
 20
965.2546433088428
  0
LWPOLYLINE
  5
11A
330
17
100
AcDbEntity
  8
0
 62
44
100
AcDbPolyline
 90
6
 70
1
 10
1595.8156384855101
 20
1060.7546433088428
 10
1554.3156384855101
 20
1060.7546433088428
 10
1554.3156384855101
 20
1102.2546433088428
 10
1555.8156384855101
 20
1102.2546433088428
 10
1555.8156384855101
 20
1062.2546433088428
 10
1595.8156384855101
 20
1062.2546433088428
  0
LWPOLYLINE
  5
11B
330
17
100
AcDbEntity
  8
0
 62
44
100
AcDbPolyline
 90
6
 70
1
 10
2243.81563848551
 20
1060.7546433088428
 10
2285.31563848551
 20
1060.7546433088428
 10
2285.31563848551
 20
1102.2546433088428
 10
2283.81563848551
 20
1102.2546433088428
 10
2283.81563848551
 20
1062.2546433088428
 10
2243.81563848551
 20
1062.2546433088428
  0
LWPOLYLINE
  5
11C
330
17
100
AcDbEntity
  8
0
 62
44
100
AcDbPolyline
 90
4
 70
1
 10
1559.8156384853937
 20
1077.2546433088428
 10
2279.81563848551
 20
1077.2546433088428
 10
2279.81563848551
 20
1062.2546433088428
 10
1559.8156384853937
 20
1062.2546433088428
  0
LWPOLYLINE
  5
11D
330
17
100
AcDbEntity
  8
0
 62
44
100
AcDbPolyline
 90
4
 70
1
 10
2318.3156384853937
 20
1288.7546433088428
 10
2285.3156384853937
 20
1288.7546433088428
 10
2285.31563848551
 20
965.2546433088428
 10
2318.31563848551
 20
965.2546433088428
  0
INSERT
  5
11E
330
17
100
AcDbEntity
  8
0
100
AcDbBlockReference
  2
2565
 10
-166609.7507292072
 20
3848.9532765193435
 30
0.0
  0
LWPOLYLINE
  5
120
330
17
100
AcDbEntity
  8
0
 62
7
100
AcDbPolyline
 90
12
 70
1
 10
2712.3477275207115
 20
880.7546433088537
 10
2698.8477275207115
 20
880.7546433088537
 10
2698.8477275207115
 20
856.7546433088428
 10
3496.8477275216137
 20
856.7546433088428
 10
3496.8477275216137
 20
880.7546433088537
 10
3483.3477275216137
 20
880.7546433088537
 10
3483.3477275216137
 20
879.2546433088428
 10
3495.3477275216137
 20
879.2546433088428
 10
3495.3477275216137
 20
858.2546433088428
 10
2700.3477275207115
 20
858.2546433088428
 10
2700.3477275207115
 20
879.2546433088428
 10
2712.3477275207115
 20
879.2546433088428
  0
LWPOLYLINE
  5
121
330
17
100
AcDbEntity
  8
0
 62
7
100
AcDbPolyline
 90
8
 70
1
 10
2737.3477275216137
 20
1295.2546433088428
 10
2737.3477275216137
 20
1305.2546433088428
 10
3458.3477275216137
 20
1305.2546433088428
 10
3458.3477275216137
 20
1295.2546433088428
 10
3459.8477275216137
 20
1295.2546433088428
 10
3459.8477275216137
 20
1306.7546433088428
 10
2735.8477275216137
 20
1306.7546433088428
 10
2735.8477275216137
 20
1295.2546433088428
  0
DIMENSION
  5
122
330
17
100
AcDbEntity
  8
DIM
100
AcDbDimension
280
0
  2
*D14
  3
CNC
 10
2648.567019120994
 20
856.7546433088428
 30
0.0
 11
2613.038369734917
 21
1081.754643308872
 31
0.0
 70
32
 71
5
 42
450.0
 73
0
 74
0
 75
0
100
AcDbAlignedDimension
 13
2697.8477275216137
 23
1306.7546433088428
 33
0.0
 14
2698.8477275207115
 24
856.7546433088428
 34
0.0
 50
90.0
100
AcDbRotatedDimension
  0
LWPOLYLINE
  5
123
330
17
100
AcDbEntity
  8
0
 62
7
100
AcDbPolyline
 90
14
 70
1
 10
2732.3477275216137
 20
862.2546433088428
 10
2745.8477275216137
 20
862.2546433088428
 10
2745.8477275216137
 20
883.2546433088428
 10
2699.3477275216137
 20
883.2546433088428
 10
2699.3477275216137
 20
1305.2546433088428
 10
2734.3477275216137
 20
1305.2546433088428
 10
2734.3477275216137
 20
1295.2546433088428
 10
2735.8477275216137
 20
1295.2546433088428
 10
2735.8477275216137
 20
1306.7546433088428
 10
2697.8477275216137
 20
1306.7546433088428
 10
2697.8477275216137
 20
881.7546433088428
 10
2744.3477275216137
 20
881.7546433088428
 10
2744.3477275216137
 20
863.7546433088428
 10
2732.3477275216137
 20
863.7546433088428
  0
LWPOLYLINE
  5
124
330
17
100
AcDbEntity
  8
0
 62
7
100
AcDbPolyline
 90
14
 70
1
 10
3463.3477275216137
 20
862.2546433088428
 10
3449.8477275216137
 20
862.2546433088428
 10
3449.8477275216137
 20
883.2546433088428
 10
3496.3477275216137
 20
883.2546433088428
 10
3496.3477275216137
 20
1305.2546433088428
 10
3461.3477275216137
 20
1305.2546433088428
 10
3461.3477275216137
 20
1295.2546433088428
 10
3459.8477275216137
 20
1295.2546433088428
 10
3459.8477275216137
 20
1306.7546433088428
 10
3497.8477275216137
 20
1306.7546433088428
 10
3497.8477275216137
 20
881.7546433088428
 10
3451.3477275216137
 20
881.7546433088428
 10
3451.3477275216137
 20
863.7546433088428
 10
3463.3477275216137
 20
863.7546433088428
  0
INSERT
  5
125
330
17
100
AcDbEntity
  8
0
 62
7
100
AcDbBlockReference
  2
HL011-1-4
 10
3463.3477275216137
 20
881.7546433088428
 30
0.0
 41
-1.0
 50
180.0
  0
LWPOLYLINE
  5
127
330
17
100
AcDbEntity
  8
0
 62
3
100
AcDbPolyline
 90
8
 70
1
 10
2700.8477275216137
 20
965.2546433088428
 10
2700.8477275216137
 20
953.2546433088428
 10
2770.8477275216137
 20
953.2546433088428
 10
2770.8477275216137
 20
965.2546433088428
 10
2772.3477275216137
 20
965.2546433088428
 10
2772.3477275216137
 20
951.7546433088428
 10
2699.3477275216137
 20
951.7546433088428
 10
2699.3477275216137
 20
965.2546433088428
  0
LWPOLYLINE
  5
128
330
17
100
AcDbEntity
  8
0
 62
3
100
AcDbPolyline
 90
8
 70
1
 10
3494.8477275216137
 20
965.2546433088428
 10
3494.8477275216137
 20
953.2546433088428
 10
3424.8477275216137
 20
953.2546433088428
 10
3424.8477275216137
 20
965.2546433088428
 10
3423.3477275216137
 20
965.2546433088428
 10
3423.3477275216137
 20
951.7546433088428
 10
3496.3477275216137
 20
951.7546433088428
 10
3496.3477275216137
 20
965.2546433088428
  0
LWPOLYLINE
  5
129
330
17
100
AcDbEntity
  8
0
 62
6
100
AcDbPolyline
 90
12
 70
1
 10
3432.3477275216137
 20
949.9546433088435
 10
3442.3477275216137
 20
949.9546433088435
 10
3442.3477275216137
 20
933.9546433088435
 10
2753.3477275216137
 20
933.9546433088435
 10
2753.3477275216137
 20
949.9546433088435
 10
2763.3477275216137
 20
949.9546433088435
 10
2763.3477275216137
 20
951.4546433088435
 10
2751.8477275216137
 20
951.4546433088435
 10
2751.8477275216137
 20
932.4546433088435
 10
3443.8477275216137
 20
932.4546433088435
 10
3443.8477275216137
 20
951.4546433088435
 10
3432.3477275216137
 20
951.4546433088435
  0
INSERT
  5
12A
330
17
100
AcDbEntity
  8
0
 62
7
100
AcDbBlockReference
  2
HL036-1-2
 10
3441.247727521608
 20
951.7546433088428
 30
0.0
 41
-1.0
 50
180.0
  0
LWPOLYLINE
  5
12C
330
17
100
AcDbEntity
  8
0
 62
44
100
AcDbPolyline
 90
4
 70
1
 10
2699.347727521701
 20
1288.7546433088428
 10
2732.347727521701
 20
1288.7546433088428
 10
2732.3477275216137
 20
965.2546433088428
 10
2699.3477275216137
 20
965.2546433088428
  0
LWPOLYLINE
  5
12D
330
17
100
AcDbEntity
  8
0
 62
44
100
AcDbPolyline
 90
6
 70
1
 10
2773.8477275216137
 20
1060.7546433088428
 10
2732.3477275216137
 20
1060.7546433088428
 10
2732.3477275216137
 20
1102.2546433088428
 10
2733.8477275216137
 20
1102.2546433088428
 10
2733.8477275216137
 20
1062.2546433088428
 10
2773.8477275216137
 20
1062.2546433088428
  0
LWPOLYLINE
  5
12E
330
17
100
AcDbEntity
  8
0
 62
44
100
AcDbPolyline
 90
6
 70
1
 10
3421.8477275216137
 20
1060.7546433088428
 10
3463.3477275216137
 20
1060.7546433088428
 10
3463.3477275216137
 20
1102.2546433088428
 10
3461.8477275216137
 20
1102.2546433088428
 10
3461.8477275216137
 20
1062.2546433088428
 10
3421.8477275216137
 20
1062.2546433088428
  0
LWPOLYLINE
  5
12F
330
17
100
AcDbEntity
  8
0
 62
44
100
AcDbPolyline
 90
4
 70
1
 10
2737.8477275216137
 20
1077.2546433088428
 10
3457.8477275216137
 20
1077.2546433088428
 10
3457.8477275216137
 20
1062.2546433088428
 10
2737.8477275216137
 20
1062.2546433088428
  0
LWPOLYLINE
  5
130
330
17
100
AcDbEntity
  8
0
 62
44
100
AcDbPolyline
 90
4
 70
1
 10
3496.3477275216137
 20
1288.7546433088428
 10
3463.3477275216137
 20
1288.7546433088428
 10
3463.3477275216137
 20
965.2546433088428
 10
3496.3477275216137
 20
965.2546433088428
  0
INSERT
  5
131
330
17
100
AcDbEntity
  8
0
100
AcDbBlockReference
  2
2565
 10
-165431.71864017105
 20
3848.9532765193435
 30
0.0
  0
LWPOLYLINE
  5
133
330
17
100
AcDbEntity
  8
0
  6
HIDDEN
 62
2
100
AcDbPolyline
 90
4
 70
1
 10
2922.8477275216137
 20
1216.7546433088428
 10
2922.8477275216137
 20
1116.7546433088428
 10
3272.8477275216137
 20
1116.7546433088428
 10
3272.8477275216137
 20
1216.7546433088428
  0
LWPOLYLINE
  5
134
330
17
100
AcDbEntity
  8
0
100
AcDbPolyline
 90
4
 70
1
 10
2907.8477275216137
 20
1231.7546433088428
 10
2907.8477275216137
 20
1101.7546433088537
 10
3287.8477275216137
 20
1101.7546433088537
 10
3287.8477275216137
 20
1231.7546433088428
  0
LWPOLYLINE
  5
135
330
17
100
AcDbEntity
  8
0
 62
2
100
AcDbPolyline
 90
4
 70
1
 10
2919.7465888539155
 20
1219.855781976541
 10
2910.7465888539155
 20
1219.855781976541
 10
2910.7465888539155
 20
1228.855781976541
 10
2919.7465888539155
 20
1228.855781976541
  0
CIRCLE
  5
136
330
17
100
AcDbEntity
  8
0
 62
7
100
AcDbCircle
 10
2915.2465888539155
 20
1224.355781976541
 30
0.0
 40
4.0
  0
LWPOLYLINE
  5
137
330
17
100
AcDbEntity
  8
0
 62
2
100
AcDbPolyline
 90
4
 70
1
 10
2919.7465888539155
 20
1113.6535046411518
 10
2910.7465888539155
 20
1113.6535046411518
 10
2910.7465888539155
 20
1104.653504641141
 10
2919.7465888539155
 20
1104.653504641141
  0
CIRCLE
  5
138
330
17
100
AcDbEntity
  8
0
 62
7
100
AcDbCircle
 10
2915.2465888539155
 20
1109.1535046411518
 30
0.0
 40
4.0
  0
LWPOLYLINE
  5
139
330
17
100
AcDbEntity
  8
0
 62
2
100
AcDbPolyline
 90
4
 70
1
 10
3275.948866189312
 20
1219.855781976541
 10
3284.948866189312
 20
1219.855781976541
 10
3284.948866189312
 20
1228.855781976541
 10
3275.948866189312
 20
1228.855781976541
  0
CIRCLE
  5
13A
330
17
100
AcDbEntity
  8
0
 62
7
100
AcDbCircle
 10
3280.448866189312
 20
1224.355781976541
 30
0.0
 40
4.0
  0
LWPOLYLINE
  5
13B
330
17
100
AcDbEntity
  8
0
 62
2
100
AcDbPolyline
 90
4
 70
1
 10
3275.948866189312
 20
1113.6535046411518
 10
3284.948866189312
 20
1113.6535046411518
 10
3284.948866189312
 20
1104.653504641141
 10
3275.948866189312
 20
1104.653504641141
  0
CIRCLE
  5
13C
330
17
100
AcDbEntity
  8
0
 62
7
100
AcDbCircle
 10
3280.448866189312
 20
1109.1535046411518
 30
0.0
 40
4.0
  0
MTEXT
  5
13D
330
17
100
AcDbEntity
  8
0
 62
2
100
AcDbMText
 10
3118.782057252596
 20
743.0434729105618
 30
0.0
 40
39.0
 41
675.0000000000146
 46
100.0000000000031
 71
5
 72
5
  1
Mặt cắt ngang \Pngăn dưới
  0
ENDSEC
  0
SECTION
  2
OBJECTS
  0
DICTIONARY
  5
A
330
0
100
AcDbDictionary
281
1
  3
ACAD_COLOR
350
B
  3
ACAD_GROUP
350
C
  3
ACAD_LAYOUT
350
D
  3
ACAD_MATERIAL
350
E
  3
ACAD_MLEADERSTYLE
350
F
  3
ACAD_MLINESTYLE
350
10
  3
ACAD_PLOTSETTINGS
350
11
  3
ACAD_PLOTSTYLENAME
350
12
  3
ACAD_SCALELIST
350
14
  3
ACAD_TABLESTYLE
350
15
  3
ACAD_VISUALSTYLE
350
16
  3
EZDXF_META
350
2D
  0
DICTIONARY
  5
B
330
A
100
AcDbDictionary
281
1
  0
DICTIONARY
  5
C
330
A
100
AcDbDictionary
281
1
  0
DICTIONARY
  5
D
330
A
100
AcDbDictionary
281
1
  3
Model
350
1A
  3
Layout1
350
1E
  0
DICTIONARY
  5
E
330
A
100
AcDbDictionary
281
1
  3
ByBlock
350
1F
  3
ByLayer
350
20
  3
Global
350
21
  0
DICTIONARY
  5
F
330
A
100
AcDbDictionary
281
1
  3
Standard
350
2C
  0
DICTIONARY
  5
10
330
A
100
AcDbDictionary
281
1
  3
Standard
350
22
  0
DICTIONARY
  5
11
330
A
100
AcDbDictionary
281
1
  0
ACDBDICTIONARYWDFLT
  5
12
330
A
100
AcDbDictionary
281
1
  3
Normal
350
13
100
AcDbDictionaryWithDefault
340
13
  0
ACDBPLACEHOLDER
  5
13
330
12
  0
DICTIONARY
  5
14
330
A
100
AcDbDictionary
281
1
  0
DICTIONARY
  5
15
330
A
100
AcDbDictionary
281
1
  0
DICTIONARY
  5
16
330
A
100
AcDbDictionary
281
1
  0
LAYOUT
  5
1A
330
D
100
AcDbPlotSettings
  1

  4
A3
  6

 40
7.5
 41
20.0
 42
7.5
 43
20.0
 44
420.0
 45
297.0
 46
0.0
 47
0.0
 48
0.0
 49
0.0
140
0.0
141
0.0
142
1.0
143
1.0
 70
1024
 72
1
 73
0
 74
5
  7

 75
16
 76
0
 77
2
 78
300
147
1.0
148
0.0
149
0.0
100
AcDbLayout
  1
Model
 70
1
 71
0
 10
0.0
 20
0.0
 11
420.0
 21
297.0
 12
0.0
 22
0.0
 32
0.0
 14
1e+20
 24
1e+20
 34
1e+20
 15
-1e+20
 25
-1e+20
 35
-1e+20
146
0.0
 13
0.0
 23
0.0
 33
0.0
 16
1.0
 26
0.0
 36
0.0
 17
0.0
 27
1.0
 37
0.0
 76
1
330
17
  0
LAYOUT
  5
1E
330
D
100
AcDbPlotSettings
  1

  4
A3
  6

 40
7.5
 41
20.0
 42
7.5
 43
20.0
 44
420.0
 45
297.0
 46
0.0
 47
0.0
 48
0.0
 49
0.0
140
0.0
141
0.0
142
1.0
143
1.0
 70
0
 72
1
 73
0
 74
5
  7

 75
16
 76
0
 77
2
 78
300
147
1.0
148
0.0
149
0.0
100
AcDbLayout
  1
Layout1
 70
1
 71
1
 10
0.0
 20
0.0
 11
420.0
 21
297.0
 12
0.0
 22
0.0
 32
0.0
 14
1e+20
 24
1e+20
 34
1e+20
 15
-1e+20
 25
-1e+20
 35
-1e+20
146
0.0
 13
0.0
 23
0.0
 33
0.0
 16
1.0
 26
0.0
 36
0.0
 17
0.0
 27
1.0
 37
0.0
 76
1
330
1B
  0
MATERIAL
  5
1F
102
{ACAD_REACTORS
330
E
102
}
330
E
100
AcDbMaterial
  1
ByBlock
  2

 70
0
 40
1.0
 71
1
 41
1.0
 91
-1023410177
 42
1.0
 72
1
  3

 73
1
 74
1
 75
1
 44
0.5
 73
0
 45
1.0
 46
1.0
 77
1
  4

 78
1
 79
1
170
1
 48
1.0
171
1
  6

172
1
173
1
174
1
140
1.0
141
1.0
175
1
  7

176
1
177
1
178
1
143
1.0
179
1
  8

270
1
271
1
272
1
145
1.0
146
1.0
273
1
  9

274
1
275
1
276
1
 42
1.0
 72
1
  3

 73
1
 74
1
 75
1
 94
63
  0
MATERIAL
  5
20
102
{ACAD_REACTORS
330
E
102
}
330
E
100
AcDbMaterial
  1
ByLayer
  2

 70
0
 40
1.0
 71
1
 41
1.0
 91
-1023410177
 42
1.0
 72
1
  3

 73
1
 74
1
 75
1
 44
0.5
 73
0
 45
1.0
 46
1.0
 77
1
  4

 78
1
 79
1
170
1
 48
1.0
171
1
  6

172
1
173
1
174
1
140
1.0
141
1.0
175
1
  7

176
1
177
1
178
1
143
1.0
179
1
  8

270
1
271
1
272
1
145
1.0
146
1.0
273
1
  9

274
1
275
1
276
1
 42
1.0
 72
1
  3

 73
1
 74
1
 75
1
 94
63
  0
MATERIAL
  5
21
102
{ACAD_REACTORS
330
E
102
}
330
E
100
AcDbMaterial
  1
Global
  2

 70
0
 40
1.0
 71
1
 41
1.0
 91
-1023410177
 42
1.0
 72
1
  3

 73
1
 74
1
 75
1
 44
0.5
 73
0
 45
1.0
 46
1.0
 77
1
  4

 78
1
 79
1
170
1
 48
1.0
171
1
  6

172
1
173
1
174
1
140
1.0
141
1.0
175
1
  7

176
1
177
1
178
1
143
1.0
179
1
  8

270
1
271
1
272
1
145
1.0
146
1.0
273
1
  9

274
1
275
1
276
1
 42
1.0
 72
1
  3

 73
1
 74
1
 75
1
 94
63
  0
MLINESTYLE
  5
22
102
{ACAD_REACTORS
330
10
102
}
330
10
100
AcDbMlineStyle
  2
Standard
 70
0
  3

 62
256
 51
90.0
 52
90.0
 71
2
 49
0.5
 62
256
  6
BYLAYER
 49
-0.5
 62
256
  6
BYLAYER
  0
MLEADERSTYLE
  5
2C
102
{ACAD_REACTORS
330
F
102
}
330
F
100
AcDbMLeaderStyle
179
2
170
2
171
1
172
0
 90
2
 40
0.0
 41
0.0
173
1
 91
-1056964608
 92
-2
290
1
 42
2.0
291
1
 43
8.0
  3
Standard
 44
4.0
300

342
29
174
1
175
1
176
0
178
1
 93
-1056964608
 45
4.0
292
0
297
0
 46
4.0
 94
-1056964608
 47
1.0
 49
1.0
140
1.0
294
1
141
0.0
177
0
142
1.0
295
0
296
0
143
3.75
271
0
272
9
273
9
  0
DICTIONARY
  5
2D
330
A
100
AcDbDictionary
280
1
281
1
  3
CREATED_BY_EZDXF
350
2E
  3
WRITTEN_BY_EZDXF
350
273
  0
DICTIONARYVAR
  5
2E
330
2D
100
DictionaryVariables
280
0
  1
1.4.4 @ 2026-09-24T06:32:36.217532+00:00
  0
DICTIONARYVAR
  5
273
330
2D
100
DictionaryVariables
280
0
  1
1.4.4 @ 2026-09-24T06:38:21.361281+00:00
  0
ENDSEC
  0
EOF
