  0
SECTION
  2
HEADER
  9
$ACADVER
  1
AC1032
  9
$ACADMAINTVER
 90
4
  9
$DWGCODEPAGE
  3
ANSI_1252
  9
$LASTSAVEDBY
  1
ezdxf
  9
$REQUIREDVERSIONS
160
0
  9
$INSBASE
 10
0.0
 20
0.0
 30
0.0
  9
$EXTMIN
 10
1e+20
 20
1e+20
 30
1e+20
  9
$EXTMAX
 10
-1e+20
 20
-1e+20
 30
-1e+20
  9
$LIMMIN
 10
0.0
 20
0.0
  9
$LIMMAX
 10
420.0
 20
297.0
  9
$ORTHOMODE
 70
0
  9
$REGENMODE
 70
1
  9
$FILLMODE
 70
1
  9
$QTEXTMODE
 70
0
  9
$MIRRTEXT
 70
1
  9
$LTSCALE
 40
1.0
  9
$ATTMODE
 70
1
  9
$TEXTSIZE
 40
2.5
  9
$TRACEWID
 40
1.0
  9
$TEXTSTYLE
  7
Standard
  9
$CLAYER
  8
0
  9
$CELTYPE
  6
ByLayer
  9
$CECOLOR
 62
256
  9
$CELTSCALE
 40
1.0
  9
$DISPSILH
 70
0
  9
$DIMSCALE
 40
1.0
  9
$DIMASZ
 40
2.5
  9
$DIMEXO
 40
0.625
  9
$DIMDLI
 40
3.75
  9
$DIMRND
 40
0.0
  9
$DIMDLE
 40
0.0
  9
$DIMEXE
 40
1.25
  9
$DIMTP
 40
0.0
  9
$DIMTM
 40
0.0
  9
$DIMTXT
 40
2.5
  9
$DIMCEN
 40
2.5
  9
$DIMTSZ
 40
0.0
  9
$DIMTOL
 70
0
  9
$DIMLIM
 70
0
  9
$DIMTIH
 70
0
  9
$DIMTOH
 70
0
  9
$DIMSE1
 70
0
  9
$DIMSE2
 70
0
  9
$DIMTAD
 70
1
  9
$DIMZIN
 70
8
  9
$DIMBLK
  1

  9
$DIMASO
 70
1
  9
$DIMSHO
 70
1
  9
$DIMPOST
  1

  9
$DIMAPOST
  1

  9
$DIMALT
 70
0
  9
$DIMALTD
 70
3
  9
$DIMALTF
 40
0.03937007874
  9
$DIMLFAC
 40
1.0
  9
$DIMTOFL
 70
1
  9
$DIMTVP
 40
0.0
  9
$DIMTIX
 70
0
  9
$DIMSOXD
 70
0
  9
$DIMSAH
 70
0
  9
$DIMBLK1
  1

  9
$DIMBLK2
  1

  9
$DIMSTYLE
  2
ISO-25
  9
$DIMCLRD
 70
0
  9
$DIMCLRE
 70
0
  9
$DIMCLRT
 70
0
  9
$DIMTFAC
 40
1.0
  9
$DIMGAP
 40
0.625
  9
$DIMJUST
 70
0
  9
$DIMSD1
 70
0
  9
$DIMSD2
 70
0
  9
$DIMTOLJ
 70
0
  9
$DIMTZIN
 70
8
  9
$DIMALTZ
 70
0
  9
$DIMALTTZ
 70
0
  9
$DIMUPT
 70
0
  9
$DIMDEC
 70
2
  9
$DIMTDEC
 70
2
  9
$DIMALTU
 70
2
  9
$DIMALTTD
 70
3
  9
$DIMTXSTY
  7
Standard
  9
$DIMAUNIT
 70
0
  9
$DIMADEC
 70
0
  9
$DIMALTRND
 40
0.0
  9
$DIMAZIN
 70
0
  9
$DIMDSEP
 70
44
  9
$DIMATFIT
 70
3
  9
$DIMFRAC
 70
0
  9
$DIMLDRBLK
  1

  9
$DIMLUNIT
 70
2
  9
$DIMLWD
 70
-2
  9
$DIMLWE
 70
-2
  9
$DIMTMOVE
 70
0
  9
$DIMFXL
 40
1.0
  9
$DIMFXLON
 70
0
  9
$DIMJOGANG
 40
0.785398163397
  9
$DIMTFILL
 70
0
  9
$DIMTFILLCLR
 70
0
  9
$DIMARCSYM
 70
0
  9
$DIMLTYPE
  6

  9
$DIMLTEX1
  6

  9
$DIMLTEX2
  6

  9
$DIMTXTDIRECTION
 70
0
  9
$LUNITS
 70
2
  9
$LUPREC
 70
4
  9
$SKETCHINC
 40
1.0
  9
$FILLETRAD
 40
10.0
  9
$AUNITS
 70
0
  9
$AUPREC
 70
2
  9
$MENU
  1
.
  9
$ELEVATION
 40
0.0
  9
$PELEVATION
 40
0.0
  9
$THICKNESS
 40
0.0
  9
$LIMCHECK
 70
0
  9
$CHAMFERA
 40
0.0
  9
$CHAMFERB
 40
0.0
  9
$CHAMFERC
 40
0.0
  9
$CHAMFERD
 40
0.0
  9
$SKPOLY
 70
0
  9
$TDCREATE
 40
2461308.567662037
  9
$TDUCREATE
 40
2458532.153996898
  9
$TDUPDATE
 40
2461308.567662037
  9
$TDUUPDATE
 40
2458532.1544311
  9
$TDINDWG
 40
0.0
  9
$TDUSRTIMER
 40
0.0
  9
$USRTIMER
 70
1
  9
$ANGBASE
 50
0.0
  9
$ANGDIR
 70
0
  9
$PDMODE
 70
0
  9
$PDSIZE
 40
0.0
  9
$PLINEWID
 40
0.0
  9
$SPLFRAME
 70
0
  9
$SPLINETYPE
 70
6
  9
$SPLINESEGS
 70
8
  9
$HANDSEED
  5
21C
  9
$SURFTAB1
 70
6
  9
$SURFTAB2
 70
6
  9
$SURFTYPE
 70
6
  9
$SURFU
 70
6
  9
$SURFV
 70
6
  9
$UCSBASE
  2

  9
$UCSNAME
  2

  9
$UCSORG
 10
0.0
 20
0.0
 30
0.0
  9
$UCSXDIR
 10
1.0
 20
0.0
 30
0.0
  9
$UCSYDIR
 10
0.0
 20
1.0
 30
0.0
  9
$UCSORTHOREF
  2

  9
$UCSORTHOVIEW
 70
0
  9
$UCSORGTOP
 10
0.0
 20
0.0
 30
0.0
  9
$UCSORGBOTTOM
 10
0.0
 20
0.0
 30
0.0
  9
$UCSORGLEFT
 10
0.0
 20
0.0
 30
0.0
  9
$UCSORGRIGHT
 10
0.0
 20
0.0
 30
0.0
  9
$UCSORGFRONT
 10
0.0
 20
0.0
 30
0.0
  9
$UCSORGBACK
 10
0.0
 20
0.0
 30
0.0
  9
$PUCSBASE
  2

  9
$PUCSNAME
  2

  9
$PUCSORG
 10
0.0
 20
0.0
 30
0.0
  9
$PUCSXDIR
 10
1.0
 20
0.0
 30
0.0
  9
$PUCSYDIR
 10
0.0
 20
1.0
 30
0.0
  9
$PUCSORTHOREF
  2

  9
$PUCSORTHOVIEW
 70
0
  9
$PUCSORGTOP
 10
0.0
 20
0.0
 30
0.0
  9
$PUCSORGBOTTOM
 10
0.0
 20
0.0
 30
0.0
  9
$PUCSORGLEFT
 10
0.0
 20
0.0
 30
0.0
  9
$PUCSORGRIGHT
 10
0.0
 20
0.0
 30
0.0
  9
$PUCSORGFRONT
 10
0.0
 20
0.0
 30
0.0
  9
$PUCSORGBACK
 10
0.0
 20
0.0
 30
0.0
  9
$USERI1
 70
0
  9
$USERI2
 70
0
  9
$USERI3
 70
0
  9
$USERI4
 70
0
  9
$USERI5
 70
0
  9
$USERR1
 40
0.0
  9
$USERR2
 40
0.0
  9
$USERR3
 40
0.0
  9
$USERR4
 40
0.0
  9
$USERR5
 40
0.0
  9
$WORLDVIEW
 70
1
  9
$SHADEDGE
 70
3
  9
$SHADEDIF
 70
70
  9
$TILEMODE
 70
1
  9
$MAXACTVP
 70
64
  9
$PINSBASE
 10
0.0
 20
0.0
 30
0.0
  9
$PLIMCHECK
 70
0
  9
$PEXTMIN
 10
1e+20
 20
1e+20
 30
1e+20
  9
$PEXTMAX
 10
-1e+20
 20
-1e+20
 30
-1e+20
  9
$PLIMMIN
 10
0.0
 20
0.0
  9
$PLIMMAX
 10
420.0
 20
297.0
  9
$UNITMODE
 70
0
  9
$VISRETAIN
 70
1
  9
$PLINEGEN
 70
0
  9
$PSLTSCALE
 70
1
  9
$TREEDEPTH
 70
3020
  9
$CMLSTYLE
  2
Standard
  9
$CMLJUST
 70
0
  9
$CMLSCALE
 40
20.0
  9
$PROXYGRAPHICS
 70
1
  9
$MEASUREMENT
 70
1
  9
$CELWEIGHT
370
-1
  9
$ENDCAPS
280
0
  9
$JOINSTYLE
280
0
  9
$LWDISPLAY
290
0
  9
$INSUNITS
 70
4
  9
$HYPERLINKBASE
  1

  9
$STYLESHEET
  1

  9
$XEDIT
290
1
  9
$CEPSNTYPE
380
0
  9
$PSTYLEMODE
290
1
  9
$FINGERPRINTGUID
  2
{0E5A1448-C206-4A1D-89F1-4FECA3581938}
  9
$VERSIONGUID
  2
{0CD5B819-E39E-4543-ABF1-8DFEDFFF0614}
  9
$EXTNAMES
290
1
  9
$PSVPSCALE
 40
0.0
  9
$OLESTARTUP
290
0
  9
$SORTENTS
280
127
  9
$INDEXCTL
280
0
  9
$HIDETEXT
280
1
  9
$XCLIPFRAME
280
1
  9
$HALOGAP
280
0
  9
$OBSCOLOR
 70
257
  9
$OBSLTYPE
280
0
  9
$INTERSECTIONDISPLAY
280
0
  9
$INTERSECTIONCOLOR
 70
257
  9
$DIMASSOC
280
2
  9
$PROJECTNAME
  1

  9
$CAMERADISPLAY
290
0
  9
$LENSLENGTH
 40
50.0
  9
$CAMERAHEIGHT
 40
0.0
  9
$STEPSPERSEC
 40
24.0
  9
$STEPSIZE
 40
100.0
  9
$3DDWFPREC
 40
2.0
  9
$PSOLWIDTH
 40
0.005
  9
$PSOLHEIGHT
 40
0.08
  9
$LOFTANG1
 40
1.570796326795
  9
$LOFTANG2
 40
1.570796326795
  9
$LOFTMAG1
 40
0.0
  9
$LOFTMAG2
 40
0.0
  9
$LOFTPARAM
 70
7
  9
$LOFTNORMALS
280
1
  9
$LATITUDE
 40
37.795
  9
$LONGITUDE
 40
-122.394
  9
$NORTHDIRECTION
 40
0.0
  9
$TIMEZONE
 70
-8000
  9
$LIGHTGLYPHDISPLAY
280
1
  9
$TILEMODELIGHTSYNCH
280
1
  9
$CMATERIAL
347
20
  9
$SOLIDHIST
280
0
  9
$SHOWHIST
280
1
  9
$DWFFRAME
280
2
  9
$DGNFRAME
280
2
  9
$REALWORLDSCALE
290
1
  9
$INTERFERECOLOR
 62
256
  9
$CSHADOW
280
0
  9
$SHADOWPLANELOCATION
 40
0.0
  0
ENDSEC
  0
SECTION
  2
CLASSES
  0
CLASS
  1
ACDBDICTIONARYWDFLT
  2
AcDbDictionaryWithDefault
  3
ObjectDBX Classes
 90
0
 91
0
280
0
281
0
  0
CLASS
  1
SUN
  2
AcDbSun
  3
SCENEOE
 90
1153
 91
0
280
0
281
0
  0
CLASS
  1
VISUALSTYLE
  2
AcDbVisualStyle
  3
ObjectDBX Classes
 90
4095
 91
0
280
0
281
0
  0
CLASS
  1
MATERIAL
  2
AcDbMaterial
  3
ObjectDBX Classes
 90
1153
 91
0
280
0
281
0
  0
CLASS
  1
SCALE
  2
AcDbScale
  3
ObjectDBX Classes
 90
1153
 91
0
280
0
281
0
  0
CLASS
  1
TABLESTYLE
  2
AcDbTableStyle
  3
ObjectDBX Classes
 90
4095
 91
0
280
0
281
0
  0
CLASS
  1
MLEADERSTYLE
  2
AcDbMLeaderStyle
  3
ACDB_MLEADERSTYLE_CLASS
 90
4095
 91
0
280
0
281
0
  0
CLASS
  1
DICTIONARYVAR
  2
AcDbDictionaryVar
  3
ObjectDBX Classes
 90
0
 91
0
280
0
281
0
  0
CLASS
  1
CELLSTYLEMAP
  2
AcDbCellStyleMap
  3
ObjectDBX Classes
 90
1152
 91
0
280
0
281
0
  0
CLASS
  1
MENTALRAYRENDERSETTINGS
  2
AcDbMentalRayRenderSettings
  3
SCENEOE
 90
1024
 91
0
280
0
281
0
  0
CLASS
  1
ACDBDETAILVIEWSTYLE
  2
AcDbDetailViewStyle
  3
ObjectDBX Classes
 90
1025
 91
0
280
0
281
0
  0
CLASS
  1
ACDBSECTIONVIEWSTYLE
  2
AcDbSectionViewStyle
  3
ObjectDBX Classes
 90
1025
 91
0
280
0
281
0
  0
CLASS
  1
RASTERVARIABLES
  2
AcDbRasterVariables
  3
ISM
 90
0
 91
0
280
0
281
0
  0
CLASS
  1
ACDBPLACEHOLDER
  2
AcDbPlaceHolder
  3
ObjectDBX Classes
 90
0
 91
0
280
0
281
0
  0
CLASS
  1
LAYOUT
  2
AcDbLayout
  3
ObjectDBX Classes
 90
0
 91
0
280
0
281
0
  0
ENDSEC
  0
SECTION
  2
TABLES
  0
TABLE
  2
VPORT
  5
8
330
0
100
AcDbSymbolTable
 70
1
  0
VPORT
  5
23
330
8
100
AcDbSymbolTableRecord
100
AcDbViewportTableRecord
  2
*Active
 70
0
 10
0.0
 20
0.0
 11
1.0
 21
1.0
 12
0.0
 22
0.0
 13
0.0
 23
0.0
 14
0.5
 24
0.5
 15
0.5
 25
0.5
 16
0.0
 26
0.0
 36
1.0
 17
0.0
 27
0.0
 37
0.0
 40
1000.0
 41
1.34
 42
50.0
 43
0.0
 44
0.0
 50
0.0
 51
0.0
 71
0
 72
1000
 73
1
 74
3
 75
0
 76
0
 77
0
 78
0
281
0
 65
0
146
0.0
  0
ENDTAB
  0
TABLE
  2
LTYPE
  5
2
330
0
100
AcDbSymbolTable
 70
3
  0
LTYPE
  5
24
330
2
100
AcDbSymbolTableRecord
100
AcDbLinetypeTableRecord
  2
ByBlock
 70
0
  3

 72
65
 73
0
 40
0.0
  0
LTYPE
  5
25
330
2
100
AcDbSymbolTableRecord
100
AcDbLinetypeTableRecord
  2
ByLayer
 70
0
  3

 72
65
 73
0
 40
0.0
  0
LTYPE
  5
26
330
2
100
AcDbSymbolTableRecord
100
AcDbLinetypeTableRecord
  2
Continuous
 70
0
  3

 72
65
 73
0
 40
0.0
  0
ENDTAB
  0
TABLE
  2
LAYER
  5
1
330
0
100
AcDbSymbolTable
 70
3
  0
LAYER
  5
27
330
1
100
AcDbSymbolTableRecord
100
AcDbLayerTableRecord
  2
0
 70
0
 62
7
  6
Continuous
370
-3
390
13
347
21
  0
LAYER
  5
28
330
1
100
AcDbSymbolTableRecord
100
AcDbLayerTableRecord
  2
Defpoints
 70
0
 62
7
  6
Continuous
290
0
370
-3
390
13
347
21
  0
LAYER
  5
101
330
1
100
AcDbSymbolTableRecord
100
AcDbLayerTableRecord
  2
CNC
 70
0
 62
7
  6
Continuous
370
-3
390
13
347
21
  0
ENDTAB
  0
TABLE
  2
STYLE
  5
5
330
0
100
AcDbSymbolTable
 70
3
  0
STYLE
  5
29
330
5
100
AcDbSymbolTableRecord
100
AcDbTextStyleTableRecord
  2
Standard
 70
0
 40
0.0
 41
1.0
 50
0.0
 71
0
 42
2.5
  3
txt
  4

  0
STYLE
  5
102
330
5
100
AcDbSymbolTableRecord
100
AcDbTextStyleTableRecord
  2
Tahoma (Input Text)
 70
0
 40
0.0
 41
1.0
 50
0.0
 71
0
 42
25.0
  3
tahoma.ttf
  4

  0
STYLE
  5
103
330
5
100
AcDbSymbolTableRecord
100
AcDbTextStyleTableRecord
  2
Arial
 70
0
 40
0.0
 41
1.0
 50
0.0
 71
0
 42
0.2
  3
arial.ttf
  4

  0
ENDTAB
  0
TABLE
  2
VIEW
  5
7
330
0
100
AcDbSymbolTable
 70
0
  0
ENDTAB
  0
TABLE
  2
UCS
  5
6
330
0
100
AcDbSymbolTable
 70
0
  0
ENDTAB
  0
TABLE
  2
APPID
  5
3
330
0
100
AcDbSymbolTable
 70
3
  0
APPID
  5
2A
330
3
100
AcDbSymbolTableRecord
100
AcDbRegAppTableRecord
  2
ACAD
 70
0
  0
APPID
  5
10A
330
3
100
AcDbSymbolTableRecord
100
AcDbRegAppTableRecord
  2
HATCHBACKGROUNDCOLOR
 70
0
  0
APPID
  5
10B
330
3
100
AcDbSymbolTableRecord
100
AcDbRegAppTableRecord
  2
EZDXF
 70
0
  0
ENDTAB
  0
TABLE
  2
DIMSTYLE
  5
4
330
0
100
AcDbSymbolTable
 70
3
100
AcDbDimStyleTable
  0
DIMSTYLE
105
2B
330
4
100
AcDbSymbolTableRecord
100
AcDbDimStyleTableRecord
  2
Standard
 70
0
 40
1.0
 41
2.5
 42
0.625
 43
3.75
 44
1.25
 45
0.0
 46
0.0
 47
0.0
 48
0.0
 49
2.5
140
2.5
141
2.5
142
0.0
143
0.03937007874
144
1.0
145
0.0
146
1.0
147
0.625
148
0.0
 69
0
 70
0
 71
0
 72
0
 73
0
 74
0
 75
0
 76
0
 77
1
 78
8
 79
3
170
0
171
3
172
1
173
0
174
0
175
0
176
0
177
0
178
0
179
2
271
2
272
2
273
2
274
3
275
0
276
0
277
2
278
44
279
0
280
0
281
0
282
0
283
0
284
8
285
0
286
0
288
0
289
3
290
0
371
-2
372
-2
  0
DIMSTYLE
105
FF
330
4
100
AcDbSymbolTableRecord
100
AcDbDimStyleTableRecord
  2
Dim-33
 70
0
 40
1.0
 41
12.0
 42
25.0
 43
3.75
 44
15.0
 45
0.0
 46
0.0
 47
0.0
 48
0.0
 49
2.5
140
33.0
141
10.0
142
0.0
143
0.03937007874016
144
1.0
145
0.0
146
1.0
147
15.0
148
0.0
 69
0
 70
0
 71
0
 72
0
 73
0
 74
0
 75
0
 76
0
 77
1
 78
8
 79
3
170
0
171
3
172
1
173
0
174
0
175
0
176
5
177
5
178
3
179
2
271
0
272
0
273
2
274
3
275
0
276
0
277
2
278
44
279
0
280
0
281
0
282
0
283
0
284
8
285
0
286
0
288
0
289
3
290
0
340
29
341
104
342
AF
345
25
346
25
347
25
371
9
372
9
  0
DIMSTYLE
105
100
330
4
100
AcDbSymbolTableRecord
100
AcDbDimStyleTableRecord
  2
Dim-25
 70
0
 40
1.0
 41
8.0
 42
15.0
 43
3.75
 44
10.0
 45
0.0
 46
0.0
 47
0.0
 48
0.0
 49
2.5
140
25.0
141
10.0
142
0.0
143
0.03937007874016
144
1.0
145
0.0
146
1.0
147
10.0
148
0.0
 69
0
 70
0
 71
0
 72
0
 73
0
 74
0
 75
0
 76
0
 77
1
 78
8
 79
3
170
0
171
3
172
1
173
0
174
0
175
0
176
5
177
5
178
3
179
2
271
0
272
0
273
2
274
3
275
0
276
0
277
2
278
44
279
0
280
0
281
0
282
0
283
0
284
8
285
0
286
0
288
0
289
3
290
0
340
29
341
AF
342
AF
345
25
346
25
347
25
371
9
372
9
  0
ENDTAB
  0
TABLE
  2
BLOCK_RECORD
  5
9
330
0
100
AcDbSymbolTable
 70
26
  0
BLOCK_RECORD
  5
17
330
9
100
AcDbSymbolTableRecord
100
AcDbBlockTableRecord
  2
*Model_Space
340
1A
 70
0
280
1
281
0
  0
BLOCK_RECORD
  5
1B
330
9
100
AcDbSymbolTableRecord
100
AcDbBlockTableRecord
  2
*Paper_Space
340
1E
 70
0
280
1
281
0
  0
BLOCK_RECORD
  5
AF
330
9
100
AcDbSymbolTableRecord
100
AcDbBlockTableRecord
  2
_Oblique
340
0
 70
0
280
1
281
0
  0
BLOCK_RECORD
  5
D4
330
9
100
AcDbSymbolTableRecord
100
AcDbBlockTableRecord
  2
khungtenAsean2
340
0
 70
0
280
1
281
0
  0
BLOCK_RECORD
  5
F8
330
9
100
AcDbSymbolTableRecord
100
AcDbBlockTableRecord
  2
ovan8.5x20
340
0
 70
0
280
1
281
0
  0
BLOCK_RECORD
  5
104
330
9
100
AcDbSymbolTableRecord
100
AcDbBlockTableRecord
  2
_Open30
340
0
 70
0
280
1
281
0
  0
BLOCK_RECORD
  5
128
330
9
100
AcDbSymbolTableRecord
100
AcDbBlockTableRecord
  2
*D1
340
0
 70
0
280
1
281
0
  0
BLOCK_RECORD
  5
134
330
9
100
AcDbSymbolTableRecord
100
AcDbBlockTableRecord
  2
*D2
340
0
 70
0
280
1
281
0
  0
BLOCK_RECORD
  5
141
330
9
100
AcDbSymbolTableRecord
100
AcDbBlockTableRecord
  2
*D3
340
0
 70
0
280
1
281
0
  0
BLOCK_RECORD
  5
14D
330
9
100
AcDbSymbolTableRecord
100
AcDbBlockTableRecord
  2
*D4
340
0
 70
0
280
1
281
0
  0
BLOCK_RECORD
  5
159
330
9
100
AcDbSymbolTableRecord
100
AcDbBlockTableRecord
  2
*D5
340
0
 70
0
280
1
281
0
  0
BLOCK_RECORD
  5
165
330
9
100
AcDbSymbolTableRecord
100
AcDbBlockTableRecord
  2
*D6
340
0
 70
0
280
1
281
0
  0
BLOCK_RECORD
  5
172
330
9
100
AcDbSymbolTableRecord
100
AcDbBlockTableRecord
  2
*D7
340
0
 70
0
280
1
281
0
  0
BLOCK_RECORD
  5
17E
330
9
100
AcDbSymbolTableRecord
100
AcDbBlockTableRecord
  2
*D8
340
0
 70
0
280
1
281
0
  0
BLOCK_RECORD
  5
18A
330
9
100
AcDbSymbolTableRecord
100
AcDbBlockTableRecord
  2
*D9
340
0
 70
0
280
1
281
0
  0
BLOCK_RECORD
  5
197
330
9
100
AcDbSymbolTableRecord
100
AcDbBlockTableRecord
  2
*D10
340
0
 70
0
280
1
281
0
  0
BLOCK_RECORD
  5
1A3
330
9
100
AcDbSymbolTableRecord
100
AcDbBlockTableRecord
  2
*D11
340
0
 70
0
280
1
281
0
  0
BLOCK_RECORD
  5
1AF
330
9
100
AcDbSymbolTableRecord
100
AcDbBlockTableRecord
  2
*D12
340
0
 70
0
280
1
281
0
  0
BLOCK_RECORD
  5
1BB
330
9
100
AcDbSymbolTableRecord
100
AcDbBlockTableRecord
  2
*D13
340
0
 70
0
280
1
281
0
  0
BLOCK_RECORD
  5
1C8
330
9
100
AcDbSymbolTableRecord
100
AcDbBlockTableRecord
  2
*D14
340
0
 70
0
280
1
281
0
  0
BLOCK_RECORD
  5
1D4
330
9
100
AcDbSymbolTableRecord
100
AcDbBlockTableRecord
  2
*D15
340
0
 70
0
280
1
281
0
  0
BLOCK_RECORD
  5
1E0
330
9
100
AcDbSymbolTableRecord
100
AcDbBlockTableRecord
  2
*D16
340
0
 70
0
280
1
281
0
  0
BLOCK_RECORD
  5
1EC
330
9
100
AcDbSymbolTableRecord
100
AcDbBlockTableRecord
  2
*D17
340
0
 70
0
280
1
281
0
  0
BLOCK_RECORD
  5
1F8
330
9
100
AcDbSymbolTableRecord
100
AcDbBlockTableRecord
  2
*D18
340
0
 70
0
280
1
281
0
  0
BLOCK_RECORD
  5
204
330
9
100
AcDbSymbolTableRecord
100
AcDbBlockTableRecord
  2
*D19
340
0
 70
0
280
1
281
0
  0
BLOCK_RECORD
  5
210
330
9
100
AcDbSymbolTableRecord
100
AcDbBlockTableRecord
  2
*D20
340
0
 70
0
280
1
281
0
  0
ENDTAB
  0
ENDSEC
  0
SECTION
  2
BLOCKS
  0
BLOCK
  5
18
330
17
100
AcDbEntity
  8
0
100
AcDbBlockBegin
  2
*Model_Space
 70
0
 10
0.0
 20
0.0
 30
0.0
  3
*Model_Space
  1

  0
ENDBLK
  5
19
330
17
100
AcDbEntity
  8
0
100
AcDbBlockEnd
  0
BLOCK
  5
1C
330
1B
100
AcDbEntity
  8
0
100
AcDbBlockBegin
  2
*Paper_Space
 70
0
 10
0.0
 20
0.0
 30
0.0
  3
*Paper_Space
  1

  0
ENDBLK
  5
1D
330
1B
100
AcDbEntity
  8
0
100
AcDbBlockEnd
  0
BLOCK
  5
B0
330
AF
100
AcDbEntity
  8
0
100
AcDbBlockBegin
  2
_Oblique
 70
0
 10
0.0
 20
0.0
 30
0.0
  3
_Oblique
  1

  0
LINE
  5
B2
330
AF
100
AcDbEntity
  8
0
  6
ByBlock
 62
0
370
-2
100
AcDbLine
 10
-0.5
 20
-0.5
 30
0.0
 11
0.5
 21
0.5
 31
0.0
  0
ENDBLK
  5
B1
330
AF
100
AcDbEntity
  8
0
100
AcDbBlockEnd
  0
BLOCK
  5
D5
330
D4
100
AcDbEntity
  8
0
100
AcDbBlockBegin
  2
khungtenAsean2
 70
2
 10
0.0
 20
0.0
 30
0.0
  3
khungtenAsean2
  1

  0
LWPOLYLINE
  5
D7
330
D4
100
AcDbEntity
  8
0
 62
7
100
AcDbPolyline
 90
4
 70
1
 10
0.0
 20
0.0
 10
2970.000000000422
 20
0.0
 10
2970.000000000422
 20
-2100.00000000032
 10
0.0
 20
-2100.00000000032
  0
LINE
  5
D8
330
D4
100
AcDbEntity
  8
0
 62
7
100
AcDbLine
 10
2020.0
 20
-2040.00000000032
 30
0.0
 11
0.0
 21
-2040.00000000032
 31
0.0
  0
LINE
  5
D9
330
D4
100
AcDbEntity
  8
0
 62
7
100
AcDbLine
 10
2970.000000000422
 20
-1980.00000000032
 30
0.0
 11
0.0
 21
-1980.00000000032
 31
0.0
  0
LINE
  5
DA
330
D4
100
AcDbEntity
  8
0
 62
7
100
AcDbLine
 10
320.0
 20
-1980.00000000032
 30
0.0
 11
320.0
 21
-2100.00000000032
 31
0.0
  0
LINE
  5
DB
330
D4
100
AcDbEntity
  8
0
 62
7
100
AcDbLine
 10
890.0
 20
-1980.00000000032
 30
0.0
 11
890.0
 21
-2100.00000000032
 31
0.0
  0
LINE
  5
DC
330
D4
100
AcDbEntity
  8
0
 62
7
100
AcDbLine
 10
1680.0
 20
-1980.00000000032
 30
0.0
 11
1680.0
 21
-2100.00000000032
 31
0.0
  0
LINE
  5
DD
330
D4
100
AcDbEntity
  8
0
 62
7
100
AcDbLine
 10
2020.0
 20
-1980.00000000032
 30
0.0
 11
2020.0
 21
-2100.00000000032
 31
0.0
  0
LINE
  5
DE
330
D4
100
AcDbEntity
  8
0
 62
7
100
AcDbLine
 10
2860.000000000422
 20
-1980.00000000032
 30
0.0
 11
2860.000000000422
 21
-2100.00000000032
 31
0.0
  0
MTEXT
  5
DF
330
D4
100
AcDbEntity
  8
0
 62
2
100
AcDbMText
 10
0.0
 20
-2010.00000000032
 30
0.0
 40
20.0
 41
917.6339389950801
 46
60.00000000000113
 71
4
 72
5
  1
  Thiết kế :
  7
Arial
  0
MTEXT
  5
E0
330
D4
100
AcDbEntity
  8
0
 62
2
100
AcDbMText
 10
0.0
 20
-2070.00000000032
 30
0.0
 40
20.0
 41
917.6339389950801
 46
60.00000000000113
 71
4
 72
5
  1
  CNC :
  7
Arial
  0
MTEXT
  5
E1
330
D4
100
AcDbEntity
  8
0
 62
2
100
AcDbMText
 10
320.0
 20
-2010.00000000032
 30
0.0
 40
20.0
 41
917.6339389950801
 46
60.00000000000113
 71
4
 72
5
  1
  Khách hàng :
  7
Arial
  0
MTEXT
  5
E2
330
D4
100
AcDbEntity
  8
0
 62
2
100
AcDbMText
 10
320.0
 20
-2070.00000000032
 30
0.0
 40
20.0
 41
917.6339389950801
 46
60.00000000000113
 71
4
 72
5
  1
  Giao hàng :
  7
Arial
  0
MTEXT
  5
E3
330
D4
100
AcDbEntity
  8
0
 62
2
100
AcDbMText
 10
890.0
 20
-2010.00000000032
 30
0.0
 40
20.0
 41
917.6339389950801
 46
60.00000000000113
 71
4
 72
5
  1
  Tên sản phẩm :
  7
Arial
  0
MTEXT
  5
E4
330
D4
100
AcDbEntity
  8
0
 62
2
100
AcDbMText
 10
890.0
 20
-2070.00000000032
 30
0.0
 40
20.0
 41
917.6339389950801
 46
60.00000000000113
 71
4
 72
5
  1
  Kích thước :
  7
Arial
  0
MTEXT
  5
E5
330
D4
100
AcDbEntity
  8
0
 62
2
100
AcDbMText
 10
1680.0
 20
-2010.00000000032
 30
0.0
 40
20.0
 41
917.6339389950801
 46
60.00000000000113
 71
4
 72
5
  1
  Số lượng :
  7
Arial
  0
MTEXT
  5
E6
330
D4
100
AcDbEntity
  8
0
 62
2
100
AcDbMText
 10
1680.0
 20
-2070.00000000032
 30
0.0
 40
20.0
 41
917.6339389950801
 46
60.00000000000113
 71
4
 72
5
  1
  Loại tôn :
  7
Arial
  0
MTEXT
  5
E7
330
D4
100
AcDbEntity
  8
0
 62
2
100
AcDbMText
 10
2074.15528161102
 20
-2040.00000000032
 30
0.0
 40
20.0
 41
108.3105632220314
 46
120.0000000000011
 71
5
 72
5
  1
Thông\Ptin :
  7
Arial
  0
MTEXT
  5
E8
330
D4
100
AcDbEntity
  8
0
 62
2
100
AcDbMText
 10
2915.000000000422
 20
-2010.00000000032
 30
0.0
 40
20.0
 41
110.0000000000065
 46
60.00000000000113
 71
5
 72
5
  1
Tờ
  7
Arial
  0
LINE
  5
E9
330
D4
100
AcDbEntity
  8
0
 62
7
100
AcDbLine
 10
2128.310563222025
 20
-2005.00000000032
 30
0.0
 11
2128.310563222025
 21
-2075.00000000032
 31
0.0
  0
MTEXT
  5
EA
330
D4
100
AcDbEntity
  8
0
 62
2
100
AcDbMText
 10
1382.285678836575
 20
-2070.00000000032
 30
0.0
 40
20.0
 41
917.6339389950801
 46
60.00000000000113
 71
4
 72
5
  1
mm
  7
Arial
  0
MTEXT
  5
EB
330
D4
100
AcDbEntity
  8
0
 62
2
100
AcDbMText
 10
1947.610064813329
 20
-2010.00000000032
 30
0.0
 40
20.0
 41
917.6339389950801
 46
60.00000000000113
 71
4
 72
5
  1
cái
  7
Arial
  0
MTEXT
  5
EC
330
D4
100
AcDbEntity
  8
0
 62
2
100
AcDbMText
 10
1936.880410494836
 20
-2070.00000000032
 30
0.0
 40
20.0
 41
917.6339389950801
 46
60.00000000000113
 71
4
 72
5
  1
mm
  7
Arial
  0
ATTDEF
  5
ED
330
D4
100
AcDbEntity
  8
0
 62
1
100
AcDbText
 10
2883.764212945627
 20
-2067.347800104843
 30
0.0
 40
25.0
  1
......
  7
Tahoma (Input Text)
 72
1
 11
2914.993225705868
 21
-2067.347800104843
 31
0.0
100
AcDbAttributeDefinition
  3
Số trang
  2
#11
 70
8
 71
1
 72
0
 11
2914.993225705868
 21
-2067.347800104843
 31
0.0
  0
ATTDEF
  5
EE
330
D4
100
AcDbEntity
  8
0
 62
1
100
AcDbText
 10
2146.716977487464
 20
-2021.275211692002
 30
0.0
 40
25.0
  1
......
  7
Tahoma (Input Text)
100
AcDbAttributeDefinition
  3
Thông tin 1
  2
#09
 70
8
 71
1
 72
0
  0
ATTDEF
  5
EF
330
D4
100
AcDbEntity
  8
0
 62
1
100
AcDbText
 10
2146.716977487464
 20
-2081.275211692002
 30
0.0
 40
25.0
  1
......
  7
Tahoma (Input Text)
100
AcDbAttributeDefinition
  3
Thông tin 2
  2
#10
 70
8
 71
1
 72
0
  0
ATTDEF
  5
F0
330
D4
100
AcDbEntity
  8
0
 62
1
100
AcDbText
 10
1817.447765733334
 20
-2081.275211692002
 30
0.0
 40
25.0
  1
......
  7
Tahoma (Input Text)
100
AcDbAttributeDefinition
  3
Loại tôn
  2
#08
 70
8
 71
1
 72
0
  0
ATTDEF
  5
F1
330
D4
100
AcDbEntity
  8
0
 62
1
100
AcDbText
 10
1834.68151032555
 20
-2021.275211692002
 30
0.0
 40
25.0
  1
......
  7
Tahoma (Input Text)
100
AcDbAttributeDefinition
  3
Số lượng
  2
#07
 70
8
 71
1
 72
0
  0
ATTDEF
  5
F2
330
D4
100
AcDbEntity
  8
0
 62
1
100
AcDbText
 10
1065.330889143646
 20
-2081.275211692002
 30
0.0
 40
25.0
  1
......
  7
Tahoma (Input Text)
100
AcDbAttributeDefinition
  3
Kích thước
  2
#06
 70
8
 71
1
 72
0
  0
ATTDEF
  5
F3
330
D4
100
AcDbEntity
  8
0
 62
1
100
AcDbText
 10
1106.628177122154
 20
-2021.275211692002
 30
0.0
 40
25.0
  1
......
  7
Tahoma (Input Text)
100
AcDbAttributeDefinition
  3
Tên s.phẩm
  2
#05
 70
8
 71
1
 72
0
  0
ATTDEF
  5
F4
330
D4
100
AcDbEntity
  8
0
 62
1
100
AcDbText
 10
486.1050270054984
 20
-2081.275211692002
 30
0.0
 40
25.0
  1
......
  7
Tahoma (Input Text)
100
AcDbAttributeDefinition
  3
Giao hàng
  2
#04
 70
8
 71
1
 72
0
  0
ATTDEF
  5
F5
330
D4
100
AcDbEntity
  8
0
 62
1
100
AcDbText
 10
506.5707489467022
 20
-2019.301600489707
 30
0.0
 40
25.0
  1
......
  7
Tahoma (Input Text)
100
AcDbAttributeDefinition
  3
Khách hàng
  2
#03
 70
8
 71
1
 72
0
  0
ATTDEF
  5
F6
330
D4
100
AcDbEntity
  8
0
 62
1
100
AcDbText
 10
98.45672450316488
 20
-2081.275211692002
 30
0.0
 40
25.0
  1
......
  7
Tahoma (Input Text)
100
AcDbAttributeDefinition
  3
CNC
  2
#02
 70
8
 71
1
 72
0
  0
ATTDEF
  5
F7
330
D4
100
AcDbEntity
  8
0
 62
1
100
AcDbText
 10
137.0535078375105
 20
-2021.275211692002
 30
0.0
 40
25.0
  1
......
  7
Tahoma (Input Text)
100
AcDbAttributeDefinition
  3
Thiết kế
  2
#01
 70
8
 71
1
 72
0
  0
ENDBLK
  5
D6
330
D4
100
AcDbEntity
  8
0
100
AcDbBlockEnd
  0
BLOCK
  5
F9
330
F8
100
AcDbEntity
  8
0
100
AcDbBlockBegin
  2
ovan8.5x20
 70
0
 10
0.0
 20
0.0
 30
0.0
  3
ovan8.5x20
  1

  0
ARC
  5
FB
330
F8
100
AcDbEntity
  8
CNC
 62
2
370
-3
100
AcDbCircle
 10
-5.750000000007275
 20
0.0
 30
0.0
 40
4.25
100
AcDbArc
 50
90.0
 51
270.0
  0
ARC
  5
FC
330
F8
100
AcDbEntity
  8
CNC
 62
2
370
-3
100
AcDbCircle
 10
5.749999999992724
 20
0.0
 30
0.0
 40
4.25
100
AcDbArc
 50
270.0
 51
90.0
  0
LINE
  5
FD
330
F8
100
AcDbEntity
  8
CNC
 62
2
370
-3
100
AcDbLine
 10
5.749999999992724
 20
4.25
 30
0.0
 11
-5.750000000007275
 21
4.25
 31
0.0
  0
LINE
  5
FE
330
F8
100
AcDbEntity
  8
CNC
 62
2
370
-3
100
AcDbLine
 10
-5.750000000007275
 20
-4.25
 30
0.0
 11
5.749999999992724
 21
-4.25
 31
0.0
  0
ENDBLK
  5
FA
330
F8
100
AcDbEntity
  8
0
100
AcDbBlockEnd
  0
BLOCK
  5
105
330
104
100
AcDbEntity
  8
0
100
AcDbBlockBegin
  2
_Open30
 70
0
 10
0.0
 20
0.0
 30
0.0
  3
_Open30
  1

  0
LINE
  5
107
330
104
100
AcDbEntity
  8
0
  6
ByBlock
 62
0
370
-2
100
AcDbLine
 10
-1.0
 20
0.26794919
 30
0.0
 11
0.0
 21
0.0
 31
0.0
  0
LINE
  5
108
330
104
100
AcDbEntity
  8
0
  6
ByBlock
 62
0
370
-2
100
AcDbLine
 10
0.0
 20
0.0
 30
0.0
 11
-1.0
 21
-0.26794919
 31
0.0
  0
LINE
  5
109
330
104
100
AcDbEntity
  8
0
  6
ByBlock
 62
0
370
-2
100
AcDbLine
 10
0.0
 20
0.0
 30
0.0
 11
-1.0
 21
0.0
 31
0.0
  0
ENDBLK
  5
106
330
104
100
AcDbEntity
  8
0
100
AcDbBlockEnd
  0
BLOCK
  5
129
330
128
100
AcDbEntity
  8
0
100
AcDbBlockBegin
  2
*D1
 70
1
 10
0.0
 20
0.0
 30
0.0
  3
*D1
  1

  0
LINE
  5
12B
330
128
100
AcDbEntity
  8
0
 62
5
370
9
440
16777216
100
AcDbLine
 10
787.5581667632941
 20
1712.9917898898439
 30
0.0
 11
881.303426147002
 21
1712.9917898898439
 31
0.0
  0
LINE
  5
12C
330
128
100
AcDbEntity
  8
0
 62
5
370
9
440
16777216
100
AcDbLine
 10
787.5581667632941
 20
987.7917898898468
 30
0.0
 11
881.303426147002
 21
987.7917898898468
 31
0.0
  0
LINE
  5
12D
330
128
100
AcDbEntity
  8
0
 62
5
370
9
440
16777216
100
AcDbLine
 10
866.303426147002
 20
1712.9917898898439
 30
0.0
 11
866.303426147002
 21
987.7917898898468
 31
0.0
  0
LINE
  5
12E
330
128
100
AcDbEntity
  8
0
  6
ByBlock
 62
0
370
-2
100
AcDbLine
 10
872.303426147002
 20
1706.9917898898439
 30
0.0
 11
860.303426147002
 21
1718.9917898898439
 31
0.0
  0
LINE
  5
12F
330
128
100
AcDbEntity
  8
0
  6
ByBlock
 62
0
370
-2
100
AcDbLine
 10
860.303426147002
 20
993.7917898898468
 30
0.0
 11
872.303426147002
 21
981.7917898898468
 31
0.0
  0
MTEXT
  5
130
330
128
100
AcDbEntity
  8
0
 62
3
440
16777216
100
AcDbMText
 10
834.4545175521926
 20
1350.3917898898653
 30
0.0
 40
33.0
 41
0.0
 46
0.0
 71
5
  1
725
 11
1e-16
 21
1.0
 31
0.0
  0
POINT
  5
131
330
128
100
AcDbEntity
  8
Defpoints
 62
0
440
16777216
100
AcDbPoint
 10
762.5581667632941
 20
1712.9917898898439
 30
0.0
  0
POINT
  5
132
330
128
100
AcDbEntity
  8
Defpoints
 62
0
440
16777216
100
AcDbPoint
 10
762.5581667632941
 20
987.7917898898468
 30
0.0
  0
POINT
  5
133
330
128
100
AcDbEntity
  8
Defpoints
 62
0
440
16777216
100
AcDbPoint
 10
866.303426147002
 20
987.7917898898468
 30
0.0
  0
ENDBLK
  5
12A
330
128
100
AcDbEntity
  8
0
100
AcDbBlockEnd
  0
BLOCK
  5
135
330
134
100
AcDbEntity
  8
0
100
AcDbBlockBegin
  2
*D2
 70
1
 10
0.0
 20
0.0
 30
0.0
  3
*D2
  1

  0
LINE
  5
137
330
134
100
AcDbEntity
  8
0
 62
5
370
9
440
16777216
100
AcDbLine
 10
1157.5157916940952
 20
1693.4140634923433
 30
0.0
 11
1087.4313544995966
 21
1693.4140634923433
 31
0.0
  0
LINE
  5
138
330
134
100
AcDbEntity
  8
0
 62
5
370
9
440
16777216
100
AcDbLine
 10
1157.5157916940952
 20
1718.4140634923424
 30
0.0
 11
1087.4313544995966
 21
1718.4140634923424
 31
0.0
  0
LINE
  5
139
330
134
100
AcDbEntity
  8
0
 62
5
370
9
440
16777216
100
AcDbLine
 10
1097.4313544995966
 20
1693.4140634923433
 30
0.0
 11
1097.4313544995966
 21
1718.4140634923424
 31
0.0
  0
LINE
  5
13A
330
134
100
AcDbEntity
  8
0
 62
5
370
9
440
16777216
100
AcDbLine
 10
1097.4313544995966
 20
1718.4140634923424
 30
0.0
 11
1097.4313544995966
 21
1782.8397115141697
 31
0.0
  0
LINE
  5
13B
330
134
100
AcDbEntity
  8
0
  6
ByBlock
 62
0
370
-2
100
AcDbLine
 10
1093.4313544995966
 20
1697.4140634923433
 30
0.0
 11
1101.4313544995966
 21
1689.4140634923433
 31
0.0
  0
LINE
  5
13C
330
134
100
AcDbEntity
  8
0
  6
ByBlock
 62
0
370
-2
100
AcDbLine
 10
1101.4313544995966
 20
1714.4140634923424
 30
0.0
 11
1093.4313544995966
 21
1722.4140634923424
 31
0.0
  0
MTEXT
  5
13D
330
134
100
AcDbEntity
  8
0
 62
3
440
16777216
100
AcDbMText
 10
1074.6670298065
 20
1754.626887503222
 30
0.0
 40
25.0
 41
0.0
 46
0.0
 71
5
  1
25
 11
1e-16
 21
1.0
 31
0.0
  0
POINT
  5
13E
330
134
100
AcDbEntity
  8
Defpoints
 62
0
440
16777216
100
AcDbPoint
 10
1172.515791694197
 20
1693.4140634923433
 30
0.0
  0
POINT
  5
13F
330
134
100
AcDbEntity
  8
Defpoints
 62
0
440
16777216
100
AcDbPoint
 10
1172.515791694197
 20
1718.4140634923424
 30
0.0
  0
POINT
  5
140
330
134
100
AcDbEntity
  8
Defpoints
 62
0
440
16777216
100
AcDbPoint
 10
1097.4313544995966
 20
1718.4140634923424
 30
0.0
  0
ENDBLK
  5
136
330
134
100
AcDbEntity
  8
0
100
AcDbBlockEnd
  0
BLOCK
  5
142
330
141
100
AcDbEntity
  8
0
100
AcDbBlockBegin
  2
*D3
 70
1
 10
0.0
 20
0.0
 30
0.0
  3
*D3
  1

  0
LINE
  5
144
330
141
100
AcDbEntity
  8
0
 62
5
370
9
440
16777216
100
AcDbLine
 10
1157.5157916940952
 20
1693.4140634923433
 30
0.0
 11
1087.4313544994948
 21
1693.4140634923433
 31
0.0
  0
LINE
  5
145
330
141
100
AcDbEntity
  8
0
 62
5
370
9
440
16777216
100
AcDbLine
 10
1157.5157916940952
 20
1652.4140634923424
 30
0.0
 11
1087.4313544994948
 21
1652.4140634923424
 31
0.0
  0
LINE
  5
146
330
141
100
AcDbEntity
  8
0
 62
5
370
9
440
16777216
100
AcDbLine
 10
1097.4313544994948
 20
1693.4140634923433
 30
0.0
 11
1097.4313544994948
 21
1652.4140634923424
 31
0.0
  0
LINE
  5
147
330
141
100
AcDbEntity
  8
0
  6
ByBlock
 62
0
370
-2
100
AcDbLine
 10
1101.4313544994948
 20
1689.4140634923433
 30
0.0
 11
1093.4313544994948
 21
1697.4140634923433
 31
0.0
  0
LINE
  5
148
330
141
100
AcDbEntity
  8
0
  6
ByBlock
 62
0
370
-2
100
AcDbLine
 10
1093.4313544994948
 20
1656.4140634923424
 30
0.0
 11
1101.4313544994948
 21
1648.4140634923424
 31
0.0
  0
MTEXT
  5
149
330
141
100
AcDbEntity
  8
0
 62
3
440
16777216
100
AcDbMText
 10
1074.8801948813925
 20
1672.9140634923078
 30
0.0
 40
25.0
 41
0.0
 46
0.0
 71
5
  1
41
 11
1e-16
 21
1.0
 31
0.0
  0
POINT
  5
14A
330
141
100
AcDbEntity
  8
Defpoints
 62
0
440
16777216
100
AcDbPoint
 10
1172.515791694197
 20
1693.4140634923433
 30
0.0
  0
POINT
  5
14B
330
141
100
AcDbEntity
  8
Defpoints
 62
0
440
16777216
100
AcDbPoint
 10
1172.515791694197
 20
1652.4140634923424
 30
0.0
  0
POINT
  5
14C
330
141
100
AcDbEntity
  8
Defpoints
 62
0
440
16777216
100
AcDbPoint
 10
1097.4313544994948
 20
1652.4140634923424
 30
0.0
  0
ENDBLK
  5
143
330
141
100
AcDbEntity
  8
0
100
AcDbBlockEnd
  0
BLOCK
  5
14E
330
14D
100
AcDbEntity
  8
0
100
AcDbBlockBegin
  2
*D4
 70
1
 10
0.0
 20
0.0
 30
0.0
  3
*D4
  1

  0
LINE
  5
150
330
14D
100
AcDbEntity
  8
0
 62
5
370
9
440
16777216
100
AcDbLine
 10
1157.5157916940952
 20
1652.4140634923424
 30
0.0
 11
1087.4313544995966
 21
1652.4140634923424
 31
0.0
  0
LINE
  5
151
330
14D
100
AcDbEntity
  8
0
 62
5
370
9
440
16777216
100
AcDbLine
 10
1157.5157916940952
 20
1490.4140634923424
 30
0.0
 11
1087.4313544995966
 21
1490.4140634923424
 31
0.0
  0
LINE
  5
152
330
14D
100
AcDbEntity
  8
0
 62
5
370
9
440
16777216
100
AcDbLine
 10
1097.4313544995966
 20
1652.4140634923424
 30
0.0
 11
1097.4313544995966
 21
1490.4140634923424
 31
0.0
  0
LINE
  5
153
330
14D
100
AcDbEntity
  8
0
  6
ByBlock
 62
0
370
-2
100
AcDbLine
 10
1101.4313544995966
 20
1648.4140634923424
 30
0.0
 11
1093.4313544995966
 21
1656.4140634923424
 31
0.0
  0
LINE
  5
154
330
14D
100
AcDbEntity
  8
0
  6
ByBlock
 62
0
370
-2
100
AcDbLine
 10
1093.4313544995966
 20
1494.4140634923424
 30
0.0
 11
1101.4313544995966
 21
1486.4140634923424
 31
0.0
  0
MTEXT
  5
155
330
14D
100
AcDbEntity
  8
0
 62
3
440
16777216
100
AcDbMText
 10
1074.6670298065
 20
1571.4140634923078
 30
0.0
 40
25.0
 41
0.0
 46
0.0
 71
5
  1
162
 11
1e-16
 21
1.0
 31
0.0
  0
POINT
  5
156
330
14D
100
AcDbEntity
  8
Defpoints
 62
0
440
16777216
100
AcDbPoint
 10
1172.515791694197
 20
1652.4140634923424
 30
0.0
  0
POINT
  5
157
330
14D
100
AcDbEntity
  8
Defpoints
 62
0
440
16777216
100
AcDbPoint
 10
1172.515791694197
 20
1490.4140634923424
 30
0.0
  0
POINT
  5
158
330
14D
100
AcDbEntity
  8
Defpoints
 62
0
440
16777216
100
AcDbPoint
 10
1097.4313544995966
 20
1490.4140634923424
 30
0.0
  0
ENDBLK
  5
14F
330
14D
100
AcDbEntity
  8
0
100
AcDbBlockEnd
  0
BLOCK
  5
15A
330
159
100
AcDbEntity
  8
0
100
AcDbBlockBegin
  2
*D5
 70
1
 10
0.0
 20
0.0
 30
0.0
  3
*D5
  1

  0
LINE
  5
15C
330
159
100
AcDbEntity
  8
0
 62
5
370
9
440
16777216
100
AcDbLine
 10
1157.5157916940952
 20
1490.4140634923424
 30
0.0
 11
1087.4313544994948
 21
1490.4140634923424
 31
0.0
  0
LINE
  5
15D
330
159
100
AcDbEntity
  8
0
 62
5
370
9
440
16777216
100
AcDbLine
 10
1157.5157916940952
 20
1449.4140634923424
 30
0.0
 11
1087.4313544994948
 21
1449.4140634923424
 31
0.0
  0
LINE
  5
15E
330
159
100
AcDbEntity
  8
0
 62
5
370
9
440
16777216
100
AcDbLine
 10
1097.4313544994948
 20
1490.4140634923424
 30
0.0
 11
1097.4313544994948
 21
1449.4140634923424
 31
0.0
  0
LINE
  5
15F
330
159
100
AcDbEntity
  8
0
  6
ByBlock
 62
0
370
-2
100
AcDbLine
 10
1101.4313544994948
 20
1486.4140634923424
 30
0.0
 11
1093.4313544994948
 21
1494.4140634923424
 31
0.0
  0
LINE
  5
160
330
159
100
AcDbEntity
  8
0
  6
ByBlock
 62
0
370
-2
100
AcDbLine
 10
1093.4313544994948
 20
1453.4140634923424
 30
0.0
 11
1101.4313544994948
 21
1445.4140634923424
 31
0.0
  0
MTEXT
  5
161
330
159
100
AcDbEntity
  8
0
 62
3
440
16777216
100
AcDbMText
 10
1074.8801948813925
 20
1469.9140634923078
 30
0.0
 40
25.0
 41
0.0
 46
0.0
 71
5
  1
41
 11
1e-16
 21
1.0
 31
0.0
  0
POINT
  5
162
330
159
100
AcDbEntity
  8
Defpoints
 62
0
440
16777216
100
AcDbPoint
 10
1172.515791694197
 20
1490.4140634923424
 30
0.0
  0
POINT
  5
163
330
159
100
AcDbEntity
  8
Defpoints
 62
0
440
16777216
100
AcDbPoint
 10
1172.515791694197
 20
1449.4140634923424
 30
0.0
  0
POINT
  5
164
330
159
100
AcDbEntity
  8
Defpoints
 62
0
440
16777216
100
AcDbPoint
 10
1097.4313544994948
 20
1449.4140634923424
 30
0.0
  0
ENDBLK
  5
15B
330
159
100
AcDbEntity
  8
0
100
AcDbBlockEnd
  0
BLOCK
  5
166
330
165
100
AcDbEntity
  8
0
100
AcDbBlockBegin
  2
*D6
 70
1
 10
0.0
 20
0.0
 30
0.0
  3
*D6
  1

  0
LINE
  5
168
330
165
100
AcDbEntity
  8
0
 62
5
370
9
440
16777216
100
AcDbLine
 10
1157.5157916940952
 20
1449.4140634923424
 30
0.0
 11
1087.4313544995966
 21
1449.4140634923424
 31
0.0
  0
LINE
  5
169
330
165
100
AcDbEntity
  8
0
 62
5
370
9
440
16777216
100
AcDbLine
 10
1157.5157916940952
 20
1424.4140634923424
 30
0.0
 11
1087.4313544995966
 21
1424.4140634923424
 31
0.0
  0
LINE
  5
16A
330
165
100
AcDbEntity
  8
0
 62
5
370
9
440
16777216
100
AcDbLine
 10
1097.4313544995966
 20
1449.4140634923424
 30
0.0
 11
1097.4313544995966
 21
1424.4140634923424
 31
0.0
  0
LINE
  5
16B
330
165
100
AcDbEntity
  8
0
 62
5
370
9
440
16777216
100
AcDbLine
 10
1097.4313544995966
 20
1424.4140634923424
 30
0.0
 11
1097.4313544995966
 21
1359.9884154705142
 31
0.0
  0
LINE
  5
16C
330
165
100
AcDbEntity
  8
0
  6
ByBlock
 62
0
370
-2
100
AcDbLine
 10
1101.4313544995966
 20
1445.4140634923424
 30
0.0
 11
1093.4313544995966
 21
1453.4140634923424
 31
0.0
  0
LINE
  5
16D
330
165
100
AcDbEntity
  8
0
  6
ByBlock
 62
0
370
-2
100
AcDbLine
 10
1093.4313544995966
 20
1428.4140634923424
 30
0.0
 11
1101.4313544995966
 21
1420.4140634923424
 31
0.0
  0
MTEXT
  5
16E
330
165
100
AcDbEntity
  8
0
 62
3
440
16777216
100
AcDbMText
 10
1074.6670298065
 20
1388.2012394813928
 30
0.0
 40
25.0
 41
0.0
 46
0.0
 71
5
  1
25
 11
1e-16
 21
1.0
 31
0.0
  0
POINT
  5
16F
330
165
100
AcDbEntity
  8
Defpoints
 62
0
440
16777216
100
AcDbPoint
 10
1172.515791694197
 20
1449.4140634923424
 30
0.0
  0
POINT
  5
170
330
165
100
AcDbEntity
  8
Defpoints
 62
0
440
16777216
100
AcDbPoint
 10
1172.515791694197
 20
1424.4140634923424
 30
0.0
  0
POINT
  5
171
330
165
100
AcDbEntity
  8
Defpoints
 62
0
440
16777216
100
AcDbPoint
 10
1097.4313544995966
 20
1424.4140634923424
 30
0.0
  0
ENDBLK
  5
167
330
165
100
AcDbEntity
  8
0
100
AcDbBlockEnd
  0
BLOCK
  5
173
330
172
100
AcDbEntity
  8
0
100
AcDbBlockBegin
  2
*D7
 70
1
 10
0.0
 20
0.0
 30
0.0
  3
*D7
  1

  0
LINE
  5
175
330
172
100
AcDbEntity
  8
0
 62
5
370
9
440
16777216
100
AcDbLine
 10
1381.131696291195
 20
1652.4140634923424
 30
0.0
 11
1436.5873014554963
 21
1652.4140634923424
 31
0.0
  0
LINE
  5
176
330
172
100
AcDbEntity
  8
0
 62
5
370
9
440
16777216
100
AcDbLine
 10
1381.131696291195
 20
1490.4140634923424
 30
0.0
 11
1436.5873014554963
 21
1490.4140634923424
 31
0.0
  0
LINE
  5
177
330
172
100
AcDbEntity
  8
0
 62
5
370
9
440
16777216
100
AcDbLine
 10
1426.5873014554963
 20
1652.4140634923424
 30
0.0
 11
1426.5873014554963
 21
1490.4140634923424
 31
0.0
  0
LINE
  5
178
330
172
100
AcDbEntity
  8
0
  6
ByBlock
 62
0
370
-2
100
AcDbLine
 10
1430.5873014554963
 20
1648.4140634923424
 30
0.0
 11
1422.5873014554963
 21
1656.4140634923424
 31
0.0
  0
LINE
  5
179
330
172
100
AcDbEntity
  8
0
  6
ByBlock
 62
0
370
-2
100
AcDbLine
 10
1422.5873014554963
 20
1494.4140634923424
 30
0.0
 11
1430.5873014554963
 21
1486.4140634923424
 31
0.0
  0
MTEXT
  5
17A
330
172
100
AcDbEntity
  8
0
 62
3
440
16777216
100
AcDbMText
 10
1403.8229767623998
 20
1571.4140634923078
 30
0.0
 40
25.0
 41
0.0
 46
0.0
 71
5
  1
162
 11
1e-16
 21
1.0
 31
0.0
  0
POINT
  5
17B
330
172
100
AcDbEntity
  8
Defpoints
 62
0
440
16777216
100
AcDbPoint
 10
1366.131696291297
 20
1652.4140634923424
 30
0.0
  0
POINT
  5
17C
330
172
100
AcDbEntity
  8
Defpoints
 62
0
440
16777216
100
AcDbPoint
 10
1366.131696291297
 20
1490.4140634923424
 30
0.0
  0
POINT
  5
17D
330
172
100
AcDbEntity
  8
Defpoints
 62
0
440
16777216
100
AcDbPoint
 10
1426.5873014554963
 20
1490.4140634923424
 30
0.0
  0
ENDBLK
  5
174
330
172
100
AcDbEntity
  8
0
100
AcDbBlockEnd
  0
BLOCK
  5
17F
330
17E
100
AcDbEntity
  8
0
100
AcDbBlockBegin
  2
*D8
 70
1
 10
0.0
 20
0.0
 30
0.0
  3
*D8
  1

  0
LINE
  5
181
330
17E
100
AcDbEntity
  8
0
 62
5
370
9
440
16777216
100
AcDbLine
 10
1381.131696291195
 20
1718.4140634923424
 30
0.0
 11
1495.3148772439017
 21
1718.4140634923424
 31
0.0
  0
LINE
  5
182
330
17E
100
AcDbEntity
  8
0
 62
5
370
9
440
16777216
100
AcDbLine
 10
1381.131696291195
 20
1424.4140634923424
 30
0.0
 11
1495.3148772439017
 21
1424.4140634923424
 31
0.0
  0
LINE
  5
183
330
17E
100
AcDbEntity
  8
0
 62
5
370
9
440
16777216
100
AcDbLine
 10
1485.3148772439017
 20
1718.4140634923424
 30
0.0
 11
1485.3148772439017
 21
1424.4140634923424
 31
0.0
  0
LINE
  5
184
330
17E
100
AcDbEntity
  8
0
  6
ByBlock
 62
0
370
-2
100
AcDbLine
 10
1489.3148772439017
 20
1714.4140634923424
 30
0.0
 11
1481.3148772439017
 21
1722.4140634923424
 31
0.0
  0
LINE
  5
185
330
17E
100
AcDbEntity
  8
0
  6
ByBlock
 62
0
370
-2
100
AcDbLine
 10
1481.3148772439017
 20
1428.4140634923424
 30
0.0
 11
1489.3148772439017
 21
1420.4140634923424
 31
0.0
  0
MTEXT
  5
186
330
17E
100
AcDbEntity
  8
0
 62
3
440
16777216
100
AcDbMText
 10
1462.5505525507906
 20
1571.4140634923078
 30
0.0
 40
25.0
 41
0.0
 46
0.0
 71
5
  1
294
 11
1e-16
 21
1.0
 31
0.0
  0
POINT
  5
187
330
17E
100
AcDbEntity
  8
Defpoints
 62
0
440
16777216
100
AcDbPoint
 10
1366.131696291297
 20
1718.4140634923424
 30
0.0
  0
POINT
  5
188
330
17E
100
AcDbEntity
  8
Defpoints
 62
0
440
16777216
100
AcDbPoint
 10
1366.131696291297
 20
1424.4140634923424
 30
0.0
  0
POINT
  5
189
330
17E
100
AcDbEntity
  8
Defpoints
 62
0
440
16777216
100
AcDbPoint
 10
1485.3148772439017
 20
1424.4140634923424
 30
0.0
  0
ENDBLK
  5
180
330
17E
100
AcDbEntity
  8
0
100
AcDbBlockEnd
  0
BLOCK
  5
18B
330
18A
100
AcDbEntity
  8
0
100
AcDbBlockBegin
  2
*D9
 70
1
 10
0.0
 20
0.0
 30
0.0
  3
*D9
  1

  0
LINE
  5
18D
330
18A
100
AcDbEntity
  8
0
 62
5
370
9
440
16777216
100
AcDbLine
 10
1172.503546668304
 20
1037.4984316190712
 30
0.0
 11
1107.4049112976936
 21
1037.4984316190712
 31
0.0
  0
LINE
  5
18E
330
18A
100
AcDbEntity
  8
0
 62
5
370
9
440
16777216
100
AcDbLine
 10
1172.503546668304
 20
1062.4984316190712
 30
0.0
 11
1107.4049112976936
 21
1062.4984316190712
 31
0.0
  0
LINE
  5
18F
330
18A
100
AcDbEntity
  8
0
 62
5
370
9
440
16777216
100
AcDbLine
 10
1117.4049112975918
 20
1037.4984316190712
 30
0.0
 11
1117.4049112975918
 21
1062.4984316190712
 31
0.0
  0
LINE
  5
190
330
18A
100
AcDbEntity
  8
0
 62
5
370
9
440
16777216
100
AcDbLine
 10
1117.4049112975918
 20
1062.4984316190712
 30
0.0
 11
1117.4049112975918
 21
1126.9240796409003
 31
0.0
  0
LINE
  5
191
330
18A
100
AcDbEntity
  8
0
  6
ByBlock
 62
0
370
-2
100
AcDbLine
 10
1113.4049112975918
 20
1041.4984316190712
 30
0.0
 11
1121.4049112975918
 21
1033.4984316190712
 31
0.0
  0
LINE
  5
192
330
18A
100
AcDbEntity
  8
0
  6
ByBlock
 62
0
370
-2
100
AcDbLine
 10
1121.4049112975918
 20
1058.4984316190712
 30
0.0
 11
1113.4049112975918
 21
1066.4984316190712
 31
0.0
  0
MTEXT
  5
193
330
18A
100
AcDbEntity
  8
0
 62
3
440
16777216
100
AcDbMText
 10
1094.640586604597
 20
1098.7112556299508
 30
0.0
 40
25.0
 41
0.0
 46
0.0
 71
5
  1
25
 11
1e-16
 21
1.0
 31
0.0
  0
POINT
  5
194
330
18A
100
AcDbEntity
  8
Defpoints
 62
0
440
16777216
100
AcDbPoint
 10
1187.503546668304
 20
1037.4984316190712
 30
0.0
  0
POINT
  5
195
330
18A
100
AcDbEntity
  8
Defpoints
 62
0
440
16777216
100
AcDbPoint
 10
1187.503546668304
 20
1062.4984316190712
 30
0.0
  0
POINT
  5
196
330
18A
100
AcDbEntity
  8
Defpoints
 62
0
440
16777216
100
AcDbPoint
 10
1117.4049112975918
 20
1062.4984316190712
 30
0.0
  0
ENDBLK
  5
18C
330
18A
100
AcDbEntity
  8
0
100
AcDbBlockEnd
  0
BLOCK
  5
198
330
197
100
AcDbEntity
  8
0
100
AcDbBlockBegin
  2
*D10
 70
1
 10
0.0
 20
0.0
 30
0.0
  3
*D10
  1

  0
LINE
  5
19A
330
197
100
AcDbEntity
  8
0
 62
5
370
9
440
16777216
100
AcDbLine
 10
1172.503546668304
 20
1037.4984316190712
 30
0.0
 11
1107.4049112975918
 21
1037.4984316190712
 31
0.0
  0
LINE
  5
19B
330
197
100
AcDbEntity
  8
0
 62
5
370
9
440
16777216
100
AcDbLine
 10
1172.503546668304
 20
1000.4984316190712
 30
0.0
 11
1107.4049112975918
 21
1000.4984316190712
 31
0.0
  0
LINE
  5
19C
330
197
100
AcDbEntity
  8
0
 62
5
370
9
440
16777216
100
AcDbLine
 10
1117.4049112975918
 20
1037.4984316190712
 30
0.0
 11
1117.4049112975918
 21
1000.4984316190712
 31
0.0
  0
LINE
  5
19D
330
197
100
AcDbEntity
  8
0
  6
ByBlock
 62
0
370
-2
100
AcDbLine
 10
1121.4049112975918
 20
1033.4984316190712
 30
0.0
 11
1113.4049112975918
 21
1041.4984316190712
 31
0.0
  0
LINE
  5
19E
330
197
100
AcDbEntity
  8
0
  6
ByBlock
 62
0
370
-2
100
AcDbLine
 10
1113.4049112975918
 20
1004.4984316190712
 30
0.0
 11
1121.4049112975918
 21
996.4984316190712
 31
0.0
  0
MTEXT
  5
19F
330
197
100
AcDbEntity
  8
0
 62
3
440
16777216
100
AcDbMText
 10
1094.6320600015024
 20
1018.9984316190357
 30
0.0
 40
25.0
 41
0.0
 46
0.0
 71
5
  1
37
 11
1e-16
 21
1.0
 31
0.0
  0
POINT
  5
1A0
330
197
100
AcDbEntity
  8
Defpoints
 62
0
440
16777216
100
AcDbPoint
 10
1187.503546668304
 20
1037.4984316190712
 30
0.0
  0
POINT
  5
1A1
330
197
100
AcDbEntity
  8
Defpoints
 62
0
440
16777216
100
AcDbPoint
 10
1187.503546668304
 20
1000.4984316190712
 30
0.0
  0
POINT
  5
1A2
330
197
100
AcDbEntity
  8
Defpoints
 62
0
440
16777216
100
AcDbPoint
 10
1117.4049112975918
 20
1000.4984316190712
 30
0.0
  0
ENDBLK
  5
199
330
197
100
AcDbEntity
  8
0
100
AcDbBlockEnd
  0
BLOCK
  5
1A4
330
1A3
100
AcDbEntity
  8
0
100
AcDbBlockBegin
  2
*D11
 70
1
 10
0.0
 20
0.0
 30
0.0
  3
*D11
  1

  0
LINE
  5
1A6
330
1A3
100
AcDbEntity
  8
0
 62
5
370
9
440
16777216
100
AcDbLine
 10
1172.503546668304
 20
1000.4984316190712
 30
0.0
 11
1107.4049112976936
 21
1000.4984316190712
 31
0.0
  0
LINE
  5
1A7
330
1A3
100
AcDbEntity
  8
0
 62
5
370
9
440
16777216
100
AcDbLine
 10
1172.503546668304
 20
873.4984316190721
 30
0.0
 11
1107.4049112976936
 21
873.4984316190721
 31
0.0
  0
LINE
  5
1A8
330
1A3
100
AcDbEntity
  8
0
 62
5
370
9
440
16777216
100
AcDbLine
 10
1117.4049112975918
 20
1000.4984316190712
 30
0.0
 11
1117.4049112975918
 21
873.4984316190721
 31
0.0
  0
LINE
  5
1A9
330
1A3
100
AcDbEntity
  8
0
  6
ByBlock
 62
0
370
-2
100
AcDbLine
 10
1121.4049112975918
 20
996.4984316190712
 30
0.0
 11
1113.4049112975918
 21
1004.4984316190712
 31
0.0
  0
LINE
  5
1AA
330
1A3
100
AcDbEntity
  8
0
  6
ByBlock
 62
0
370
-2
100
AcDbLine
 10
1113.4049112975918
 20
877.4984316190721
 30
0.0
 11
1121.4049112975918
 21
869.4984316190721
 31
0.0
  0
MTEXT
  5
1AB
330
1A3
100
AcDbEntity
  8
0
 62
3
440
16777216
100
AcDbMText
 10
1094.8537516795914
 20
936.9984316190366
 30
0.0
 40
25.0
 41
0.0
 46
0.0
 71
5
  1
127
 11
1e-16
 21
1.0
 31
0.0
  0
POINT
  5
1AC
330
1A3
100
AcDbEntity
  8
Defpoints
 62
0
440
16777216
100
AcDbPoint
 10
1187.503546668304
 20
1000.4984316190712
 30
0.0
  0
POINT
  5
1AD
330
1A3
100
AcDbEntity
  8
Defpoints
 62
0
440
16777216
100
AcDbPoint
 10
1187.503546668304
 20
873.4984316190721
 30
0.0
  0
POINT
  5
1AE
330
1A3
100
AcDbEntity
  8
Defpoints
 62
0
440
16777216
100
AcDbPoint
 10
1117.4049112975918
 20
873.4984316190721
 30
0.0
  0
ENDBLK
  5
1A5
330
1A3
100
AcDbEntity
  8
0
100
AcDbBlockEnd
  0
BLOCK
  5
1B0
330
1AF
100
AcDbEntity
  8
0
100
AcDbBlockBegin
  2
*D12
 70
1
 10
0.0
 20
0.0
 30
0.0
  3
*D12
  1

  0
LINE
  5
1B2
330
1AF
100
AcDbEntity
  8
0
 62
5
370
9
440
16777216
100
AcDbLine
 10
1172.503546668304
 20
873.4984316190721
 30
0.0
 11
1107.4049112975918
 21
873.4984316190721
 31
0.0
  0
LINE
  5
1B3
330
1AF
100
AcDbEntity
  8
0
 62
5
370
9
440
16777216
100
AcDbLine
 10
1172.503546668304
 20
836.4984316190712
 30
0.0
 11
1107.4049112975918
 21
836.4984316190712
 31
0.0
  0
LINE
  5
1B4
330
1AF
100
AcDbEntity
  8
0
 62
5
370
9
440
16777216
100
AcDbLine
 10
1117.4049112975918
 20
873.4984316190721
 30
0.0
 11
1117.4049112975918
 21
836.4984316190712
 31
0.0
  0
LINE
  5
1B5
330
1AF
100
AcDbEntity
  8
0
  6
ByBlock
 62
0
370
-2
100
AcDbLine
 10
1121.4049112975918
 20
869.4984316190721
 30
0.0
 11
1113.4049112975918
 21
877.4984316190721
 31
0.0
  0
LINE
  5
1B6
330
1AF
100
AcDbEntity
  8
0
  6
ByBlock
 62
0
370
-2
100
AcDbLine
 10
1113.4049112975918
 20
840.4984316190712
 30
0.0
 11
1121.4049112975918
 21
832.4984316190712
 31
0.0
  0
MTEXT
  5
1B7
330
1AF
100
AcDbEntity
  8
0
 62
3
440
16777216
100
AcDbMText
 10
1094.6320600015024
 20
854.9984316190366
 30
0.0
 40
25.0
 41
0.0
 46
0.0
 71
5
  1
37
 11
1e-16
 21
1.0
 31
0.0
  0
POINT
  5
1B8
330
1AF
100
AcDbEntity
  8
Defpoints
 62
0
440
16777216
100
AcDbPoint
 10
1187.503546668304
 20
873.4984316190721
 30
0.0
  0
POINT
  5
1B9
330
1AF
100
AcDbEntity
  8
Defpoints
 62
0
440
16777216
100
AcDbPoint
 10
1187.503546668304
 20
836.4984316190712
 30
0.0
  0
POINT
  5
1BA
330
1AF
100
AcDbEntity
  8
Defpoints
 62
0
440
16777216
100
AcDbPoint
 10
1117.4049112975918
 20
836.4984316190712
 30
0.0
  0
ENDBLK
  5
1B1
330
1AF
100
AcDbEntity
  8
0
100
AcDbBlockEnd
  0
BLOCK
  5
1BC
330
1BB
100
AcDbEntity
  8
0
100
AcDbBlockBegin
  2
*D13
 70
1
 10
0.0
 20
0.0
 30
0.0
  3
*D13
  1

  0
LINE
  5
1BE
330
1BB
100
AcDbEntity
  8
0
 62
5
370
9
440
16777216
100
AcDbLine
 10
1172.503546668304
 20
836.4984316190712
 30
0.0
 11
1107.4049112976936
 21
836.4984316190712
 31
0.0
  0
LINE
  5
1BF
330
1BB
100
AcDbEntity
  8
0
 62
5
370
9
440
16777216
100
AcDbLine
 10
1172.503546668304
 20
811.4984316190712
 30
0.0
 11
1107.4049112976936
 21
811.4984316190712
 31
0.0
  0
LINE
  5
1C0
330
1BB
100
AcDbEntity
  8
0
 62
5
370
9
440
16777216
100
AcDbLine
 10
1117.4049112975918
 20
836.4984316190712
 30
0.0
 11
1117.4049112975918
 21
811.4984316190712
 31
0.0
  0
LINE
  5
1C1
330
1BB
100
AcDbEntity
  8
0
 62
5
370
9
440
16777216
100
AcDbLine
 10
1117.4049112975918
 20
811.4984316190712
 30
0.0
 11
1117.4049112975918
 21
747.072783597242
 31
0.0
  0
LINE
  5
1C2
330
1BB
100
AcDbEntity
  8
0
  6
ByBlock
 62
0
370
-2
100
AcDbLine
 10
1121.4049112975918
 20
832.4984316190712
 30
0.0
 11
1113.4049112975918
 21
840.4984316190712
 31
0.0
  0
LINE
  5
1C3
330
1BB
100
AcDbEntity
  8
0
  6
ByBlock
 62
0
370
-2
100
AcDbLine
 10
1113.4049112975918
 20
815.4984316190712
 30
0.0
 11
1121.4049112975918
 21
807.4984316190712
 31
0.0
  0
MTEXT
  5
1C4
330
1BB
100
AcDbEntity
  8
0
 62
3
440
16777216
100
AcDbMText
 10
1094.640586604597
 20
775.2856076081216
 30
0.0
 40
25.0
 41
0.0
 46
0.0
 71
5
  1
25
 11
1e-16
 21
1.0
 31
0.0
  0
POINT
  5
1C5
330
1BB
100
AcDbEntity
  8
Defpoints
 62
0
440
16777216
100
AcDbPoint
 10
1187.503546668304
 20
836.4984316190712
 30
0.0
  0
POINT
  5
1C6
330
1BB
100
AcDbEntity
  8
Defpoints
 62
0
440
16777216
100
AcDbPoint
 10
1187.503546668304
 20
811.4984316190712
 30
0.0
  0
POINT
  5
1C7
330
1BB
100
AcDbEntity
  8
Defpoints
 62
0
440
16777216
100
AcDbPoint
 10
1117.4049112975918
 20
811.4984316190712
 30
0.0
  0
ENDBLK
  5
1BD
330
1BB
100
AcDbEntity
  8
0
100
AcDbBlockEnd
  0
BLOCK
  5
1C9
330
1C8
100
AcDbEntity
  8
0
100
AcDbBlockBegin
  2
*D14
 70
1
 10
0.0
 20
0.0
 30
0.0
  3
*D14
  1

  0
LINE
  5
1CB
330
1C8
100
AcDbEntity
  8
0
 62
5
370
9
440
16777216
100
AcDbLine
 10
1452.503546668304
 20
1000.4984316190712
 30
0.0
 11
1525.3053384692903
 21
1000.4984316190712
 31
0.0
  0
LINE
  5
1CC
330
1C8
100
AcDbEntity
  8
0
 62
5
370
9
440
16777216
100
AcDbLine
 10
1452.503546668304
 20
873.4984316190721
 30
0.0
 11
1525.3053384692903
 21
873.4984316190721
 31
0.0
  0
LINE
  5
1CD
330
1C8
100
AcDbEntity
  8
0
 62
5
370
9
440
16777216
100
AcDbLine
 10
1515.3053384692903
 20
1000.4984316190712
 30
0.0
 11
1515.3053384692903
 21
873.4984316190721
 31
0.0
  0
LINE
  5
1CE
330
1C8
100
AcDbEntity
  8
0
  6
ByBlock
 62
0
370
-2
100
AcDbLine
 10
1519.3053384692903
 20
996.4984316190712
 30
0.0
 11
1511.3053384692903
 21
1004.4984316190712
 31
0.0
  0
LINE
  5
1CF
330
1C8
100
AcDbEntity
  8
0
  6
ByBlock
 62
0
370
-2
100
AcDbLine
 10
1511.3053384692903
 20
877.4984316190721
 30
0.0
 11
1519.3053384692903
 21
869.4984316190721
 31
0.0
  0
MTEXT
  5
1D0
330
1C8
100
AcDbEntity
  8
0
 62
3
440
16777216
100
AcDbMText
 10
1492.7541788512026
 20
936.9984316190366
 30
0.0
 40
25.0
 41
0.0
 46
0.0
 71
5
  1
127
 11
1e-16
 21
1.0
 31
0.0
  0
POINT
  5
1D1
330
1C8
100
AcDbEntity
  8
Defpoints
 62
0
440
16777216
100
AcDbPoint
 10
1437.503546668304
 20
1000.4984316190712
 30
0.0
  0
POINT
  5
1D2
330
1C8
100
AcDbEntity
  8
Defpoints
 62
0
440
16777216
100
AcDbPoint
 10
1437.503546668304
 20
873.4984316190721
 30
0.0
  0
POINT
  5
1D3
330
1C8
100
AcDbEntity
  8
Defpoints
 62
0
440
16777216
100
AcDbPoint
 10
1515.3053384692903
 20
873.4984316190721
 30
0.0
  0
ENDBLK
  5
1CA
330
1C8
100
AcDbEntity
  8
0
100
AcDbBlockEnd
  0
BLOCK
  5
1D5
330
1D4
100
AcDbEntity
  8
0
100
AcDbBlockBegin
  2
*D15
 70
1
 10
0.0
 20
0.0
 30
0.0
  3
*D15
  1

  0
LINE
  5
1D7
330
1D4
100
AcDbEntity
  8
0
 62
5
370
9
440
16777216
100
AcDbLine
 10
1452.503546668304
 20
1062.4984316190712
 30
0.0
 11
1601.8238922430028
 21
1062.4984316190712
 31
0.0
  0
LINE
  5
1D8
330
1D4
100
AcDbEntity
  8
0
 62
5
370
9
440
16777216
100
AcDbLine
 10
1452.503546668304
 20
811.4984316190712
 30
0.0
 11
1601.8238922430028
 21
811.4984316190712
 31
0.0
  0
LINE
  5
1D9
330
1D4
100
AcDbEntity
  8
0
 62
5
370
9
440
16777216
100
AcDbLine
 10
1591.8238922430028
 20
1062.4984316190712
 30
0.0
 11
1591.8238922430028
 21
811.4984316190712
 31
0.0
  0
LINE
  5
1DA
330
1D4
100
AcDbEntity
  8
0
  6
ByBlock
 62
0
370
-2
100
AcDbLine
 10
1595.8238922430028
 20
1058.4984316190712
 30
0.0
 11
1587.8238922430028
 21
1066.4984316190712
 31
0.0
  0
LINE
  5
1DB
330
1D4
100
AcDbEntity
  8
0
  6
ByBlock
 62
0
370
-2
100
AcDbLine
 10
1587.8238922430028
 20
815.4984316190712
 30
0.0
 11
1595.8238922430028
 21
807.4984316190712
 31
0.0
  0
MTEXT
  5
1DC
330
1D4
100
AcDbEntity
  8
0
 62
3
440
16777216
100
AcDbMText
 10
1569.0595675498917
 20
936.9984316190366
 30
0.0
 40
25.0
 41
0.0
 46
0.0
 71
5
  1
251
 11
1e-16
 21
1.0
 31
0.0
  0
POINT
  5
1DD
330
1D4
100
AcDbEntity
  8
Defpoints
 62
0
440
16777216
100
AcDbPoint
 10
1437.503546668304
 20
1062.4984316190712
 30
0.0
  0
POINT
  5
1DE
330
1D4
100
AcDbEntity
  8
Defpoints
 62
0
440
16777216
100
AcDbPoint
 10
1437.503546668304
 20
811.4984316190712
 30
0.0
  0
POINT
  5
1DF
330
1D4
100
AcDbEntity
  8
Defpoints
 62
0
440
16777216
100
AcDbPoint
 10
1591.8238922430028
 20
811.4984316190712
 30
0.0
  0
ENDBLK
  5
1D6
330
1D4
100
AcDbEntity
  8
0
100
AcDbBlockEnd
  0
BLOCK
  5
1E1
330
1E0
100
AcDbEntity
  8
0
100
AcDbBlockBegin
  2
*D16
 70
1
 10
0.0
 20
0.0
 30
0.0
  3
*D16
  1

  0
LINE
  5
1E3
330
1E0
100
AcDbEntity
  8
0
 62
5
370
9
440
16777216
100
AcDbLine
 10
1172.5157916940952
 20
1409.4140634923415
 30
0.0
 11
1172.5157916940952
 21
1317.5654548311604
 31
0.0
  0
LINE
  5
1E4
330
1E0
100
AcDbEntity
  8
0
 62
5
370
9
440
16777216
100
AcDbLine
 10
1366.131696291195
 20
1409.4140634923415
 30
0.0
 11
1366.131696291195
 21
1317.5654548311604
 31
0.0
  0
LINE
  5
1E5
330
1E0
100
AcDbEntity
  8
0
 62
5
370
9
440
16777216
100
AcDbLine
 10
1172.5157916940952
 20
1327.5654548311586
 30
0.0
 11
1366.131696291195
 21
1327.5654548311586
 31
0.0
  0
LINE
  5
1E6
330
1E0
100
AcDbEntity
  8
0
  6
ByBlock
 62
0
370
-2
100
AcDbLine
 10
1176.5157916940952
 20
1331.5654548311586
 30
0.0
 11
1168.5157916940952
 21
1323.5654548311586
 31
0.0
  0
LINE
  5
1E7
330
1E0
100
AcDbEntity
  8
0
  6
ByBlock
 62
0
370
-2
100
AcDbLine
 10
1362.131696291195
 20
1323.5654548311586
 30
0.0
 11
1370.131696291195
 21
1331.5654548311586
 31
0.0
  0
MTEXT
  5
1E8
330
1E0
100
AcDbEntity
  8
0
 62
3
440
16777216
100
AcDbMText
 10
1269.3237439926015
 20
1350.3297795242006
 30
0.0
 40
25.0
 41
0.0
 46
0.0
 71
5
  1
194
  0
POINT
  5
1E9
330
1E0
100
AcDbEntity
  8
Defpoints
 62
0
440
16777216
100
AcDbPoint
 10
1172.5157916940952
 20
1424.4140634923415
 30
0.0
  0
POINT
  5
1EA
330
1E0
100
AcDbEntity
  8
Defpoints
 62
0
440
16777216
100
AcDbPoint
 10
1366.131696291195
 20
1424.4140634923415
 30
0.0
  0
POINT
  5
1EB
330
1E0
100
AcDbEntity
  8
Defpoints
 62
0
440
16777216
100
AcDbPoint
 10
1366.131696291195
 20
1327.5654548311586
 30
0.0
  0
ENDBLK
  5
1E2
330
1E0
100
AcDbEntity
  8
0
100
AcDbBlockEnd
  0
BLOCK
  5
1ED
330
1EC
100
AcDbEntity
  8
0
100
AcDbBlockBegin
  2
*D17
 70
1
 10
0.0
 20
0.0
 30
0.0
  3
*D17
  1

  0
LINE
  5
1EF
330
1EC
100
AcDbEntity
  8
0
 62
5
370
9
440
16777216
100
AcDbLine
 10
1187.503546668202
 20
796.4984316190694
 30
0.0
 11
1187.503546668202
 21
693.2216763732595
 31
0.0
  0
LINE
  5
1F0
330
1EC
100
AcDbEntity
  8
0
 62
5
370
9
440
16777216
100
AcDbLine
 10
1437.503546668202
 20
796.4984316190694
 30
0.0
 11
1437.503546668202
 21
693.2216763732595
 31
0.0
  0
LINE
  5
1F1
330
1EC
100
AcDbEntity
  8
0
 62
5
370
9
440
16777216
100
AcDbLine
 10
1187.503546668202
 20
703.2216763732604
 30
0.0
 11
1437.503546668202
 21
703.2216763732604
 31
0.0
  0
LINE
  5
1F2
330
1EC
100
AcDbEntity
  8
0
  6
ByBlock
 62
0
370
-2
100
AcDbLine
 10
1191.503546668202
 20
707.2216763732604
 30
0.0
 11
1183.503546668202
 21
699.2216763732604
 31
0.0
  0
LINE
  5
1F3
330
1EC
100
AcDbEntity
  8
0
  6
ByBlock
 62
0
370
-2
100
AcDbLine
 10
1433.503546668202
 20
699.2216763732604
 30
0.0
 11
1441.503546668202
 21
707.2216763732604
 31
0.0
  0
MTEXT
  5
1F4
330
1EC
100
AcDbEntity
  8
0
 62
3
440
16777216
100
AcDbMText
 10
1312.503546668202
 20
725.9860010663024
 30
0.0
 40
25.0
 41
0.0
 46
0.0
 71
5
  1
250
  0
POINT
  5
1F5
330
1EC
100
AcDbEntity
  8
Defpoints
 62
0
440
16777216
100
AcDbPoint
 10
1187.503546668202
 20
811.4984316190703
 30
0.0
  0
POINT
  5
1F6
330
1EC
100
AcDbEntity
  8
Defpoints
 62
0
440
16777216
100
AcDbPoint
 10
1437.503546668202
 20
811.4984316190703
 30
0.0
  0
POINT
  5
1F7
330
1EC
100
AcDbEntity
  8
Defpoints
 62
0
440
16777216
100
AcDbPoint
 10
1437.503546668202
 20
703.2216763732604
 30
0.0
  0
ENDBLK
  5
1EE
330
1EC
100
AcDbEntity
  8
0
100
AcDbBlockEnd
  0
BLOCK
  5
1F9
330
1F8
100
AcDbEntity
  8
0
100
AcDbBlockBegin
  2
*D18
 70
1
 10
0.0
 20
0.0
 30
0.0
  3
*D18
  1

  0
LINE
  5
1FB
330
1F8
100
AcDbEntity
  8
0
 62
5
370
9
440
16777216
100
AcDbLine
 10
767.5581667632941
 20
1732.9917898898439
 30
0.0
 11
976.1178285878996
 21
1732.9917898898439
 31
0.0
  0
LINE
  5
1FC
330
1F8
100
AcDbEntity
  8
0
 62
5
370
9
440
16777216
100
AcDbLine
 10
767.5581667632941
 20
967.7917898898468
 30
0.0
 11
976.1178285878996
 21
967.7917898898468
 31
0.0
  0
LINE
  5
1FD
330
1F8
100
AcDbEntity
  8
0
 62
5
370
9
440
16777216
100
AcDbLine
 10
961.1178285878996
 20
1732.9917898898439
 30
0.0
 11
961.1178285878996
 21
967.7917898898468
 31
0.0
  0
LINE
  5
1FE
330
1F8
100
AcDbEntity
  8
0
  6
ByBlock
 62
0
370
-2
100
AcDbLine
 10
967.1178285878996
 20
1726.9917898898439
 30
0.0
 11
955.1178285878996
 21
1738.9917898898439
 31
0.0
  0
LINE
  5
1FF
330
1F8
100
AcDbEntity
  8
0
  6
ByBlock
 62
0
370
-2
100
AcDbLine
 10
955.1178285878996
 20
973.7917898898468
 30
0.0
 11
967.1178285878996
 21
961.7917898898468
 31
0.0
  0
MTEXT
  5
200
330
1F8
100
AcDbEntity
  8
0
 62
3
440
16777216
100
AcDbMText
 10
929.2689199931046
 20
1350.3917898898653
 30
0.0
 40
33.0
 41
0.0
 46
0.0
 71
5
  1
765
 11
1e-16
 21
1.0
 31
0.0
  0
POINT
  5
201
330
1F8
100
AcDbEntity
  8
Defpoints
 62
0
440
16777216
100
AcDbPoint
 10
742.5581667632941
 20
1732.9917898898439
 30
0.0
  0
POINT
  5
202
330
1F8
100
AcDbEntity
  8
Defpoints
 62
0
440
16777216
100
AcDbPoint
 10
742.5581667632941
 20
967.7917898898468
 30
0.0
  0
POINT
  5
203
330
1F8
100
AcDbEntity
  8
Defpoints
 62
0
440
16777216
100
AcDbPoint
 10
961.1178285878996
 20
967.7917898898468
 30
0.0
  0
ENDBLK
  5
1FA
330
1F8
100
AcDbEntity
  8
0
100
AcDbBlockEnd
  0
BLOCK
  5
205
330
204
100
AcDbEntity
  8
0
100
AcDbBlockBegin
  2
*D19
 70
1
 10
0.0
 20
0.0
 30
0.0
  3
*D19
  1

  0
LINE
  5
207
330
204
100
AcDbEntity
  8
0
 62
5
370
9
440
16777216
100
AcDbLine
 10
217.35816676329705
 20
942.7917898898468
 30
0.0
 11
217.35816676329705
 21
879.5415775263855
 31
0.0
  0
LINE
  5
208
330
204
100
AcDbEntity
  8
0
 62
5
370
9
440
16777216
100
AcDbLine
 10
742.5581667632941
 20
942.7917898898468
 30
0.0
 11
742.5581667632941
 21
879.5415775263855
 31
0.0
  0
LINE
  5
209
330
204
100
AcDbEntity
  8
0
 62
5
370
9
440
16777216
100
AcDbLine
 10
217.35816676329705
 20
894.5415775263837
 30
0.0
 11
742.5581667632941
 21
894.5415775263837
 31
0.0
  0
LINE
  5
20A
330
204
100
AcDbEntity
  8
0
  6
ByBlock
 62
0
370
-2
100
AcDbLine
 10
223.35816676329705
 20
900.5415775263837
 30
0.0
 11
211.35816676329705
 21
888.5415775263837
 31
0.0
  0
LINE
  5
20B
330
204
100
AcDbEntity
  8
0
  6
ByBlock
 62
0
370
-2
100
AcDbLine
 10
736.5581667632941
 20
888.5415775263837
 30
0.0
 11
748.5581667632941
 21
900.5415775263837
 31
0.0
  0
MTEXT
  5
20C
330
204
100
AcDbEntity
  8
0
 62
3
440
16777216
100
AcDbMText
 10
479.95816676330287
 20
926.3904861212004
 30
0.0
 40
33.0
 41
0.0
 46
0.0
 71
5
  1
525
  0
POINT
  5
20D
330
204
100
AcDbEntity
  8
Defpoints
 62
0
440
16777216
100
AcDbPoint
 10
217.35816676329705
 20
967.7917898898468
 30
0.0
  0
POINT
  5
20E
330
204
100
AcDbEntity
  8
Defpoints
 62
0
440
16777216
100
AcDbPoint
 10
742.5581667632941
 20
967.7917898898468
 30
0.0
  0
POINT
  5
20F
330
204
100
AcDbEntity
  8
Defpoints
 62
0
440
16777216
100
AcDbPoint
 10
742.5581667632941
 20
894.5415775263837
 30
0.0
  0
ENDBLK
  5
206
330
204
100
AcDbEntity
  8
0
100
AcDbBlockEnd
  0
BLOCK
  5
211
330
210
100
AcDbEntity
  8
0
100
AcDbBlockBegin
  2
*D20
 70
1
 10
0.0
 20
0.0
 30
0.0
  3
*D20
  1

  0
LINE
  5
213
330
210
100
AcDbEntity
  8
0
 62
5
370
9
440
16777216
100
AcDbLine
 10
197.35816676329705
 20
962.7917898898468
 30
0.0
 11
197.35816676329705
 21
803.5523584405764
 31
0.0
  0
LINE
  5
214
330
210
100
AcDbEntity
  8
0
 62
5
370
9
440
16777216
100
AcDbLine
 10
762.5581667632941
 20
962.7917898898468
 30
0.0
 11
762.5581667632941
 21
803.5523584405764
 31
0.0
  0
LINE
  5
215
330
210
100
AcDbEntity
  8
0
 62
5
370
9
440
16777216
100
AcDbLine
 10
197.35816676329705
 20
818.5523584405764
 30
0.0
 11
762.5581667632941
 21
818.5523584405764
 31
0.0
  0
LINE
  5
216
330
210
100
AcDbEntity
  8
0
  6
ByBlock
 62
0
370
-2
100
AcDbLine
 10
203.35816676329705
 20
824.5523584405764
 30
0.0
 11
191.35816676329705
 21
812.5523584405764
 31
0.0
  0
LINE
  5
217
330
210
100
AcDbEntity
  8
0
  6
ByBlock
 62
0
370
-2
100
AcDbLine
 10
756.5581667632941
 20
812.5523584405764
 30
0.0
 11
768.5581667632941
 21
824.5523584405764
 31
0.0
  0
MTEXT
  5
218
330
210
100
AcDbEntity
  8
0
 62
3
440
16777216
100
AcDbMText
 10
479.95816676330287
 20
850.4012670353923
 30
0.0
 40
33.0
 41
0.0
 46
0.0
 71
5
  1
565
  0
POINT
  5
219
330
210
100
AcDbEntity
  8
Defpoints
 62
0
440
16777216
100
AcDbPoint
 10
197.35816676329705
 20
987.7917898898468
 30
0.0
  0
POINT
  5
21A
330
210
100
AcDbEntity
  8
Defpoints
 62
0
440
16777216
100
AcDbPoint
 10
762.5581667632941
 20
987.7917898898468
 30
0.0
  0
POINT
  5
21B
330
210
100
AcDbEntity
  8
Defpoints
 62
0
440
16777216
100
AcDbPoint
 10
762.5581667632941
 20
818.5523584405764
 30
0.0
  0
ENDBLK
  5
212
330
210
100
AcDbEntity
  8
0
100
AcDbBlockEnd
  0
ENDSEC
  0
SECTION
  2
ENTITIES
  0
INSERT
  5
2F
330
17
100
AcDbEntity
  8
0
 62
7
100
AcDbBlockReference
 66
1
  2
khungtenAsean2
 10
0.0
 20
2015.3992320413981
 30
0.0
 41
0.959713920019567
 42
0.959713920019567
 43
0.959713920019567
  0
ATTRIB
  5
30
330
2F
100
AcDbEntity
  8
0
 62
1
100
AcDbText
 10
2782.5741163029015
 20
31.33677080182133
 30
0.0
 40
23.99284799997077
  1
...
  7
Tahoma (Input Text)
 41
1.000000000006254
 72
1
 11
2797.5595754297974
 21
31.33677080182133
 31
0.0
100
AcDbAttribute
  2
#11
 70
0
 71
1
 72
0
 11
2797.5595754297974
 21
31.33677080182133
 31
0.0
  0
ATTRIB
  5
31
330
2F
100
AcDbEntity
  8
0
 62
1
100
AcDbText
 10
2060.2341656053904
 20
75.5532752320014
 30
0.0
 40
23.99284799997077
  1
Tủ điện trong nhà, 2 lớp cánh, Panel
  7
Tahoma (Input Text)
 41
1.000000000006254
100
AcDbAttribute
  2
#09
 70
0
 71
1
 72
0
  0
ATTRIB
  5
32
330
2F
100
AcDbEntity
  8
0
 62
1
100
AcDbText
 10
2060.2341656053904
 20
17.970440032070655
 30
0.0
 40
23.99284799997077
  1
Sơn tĩnh điện màu GHI SẦN
  7
Tahoma (Input Text)
 41
1.000000000006254
100
AcDbAttribute
  2
#10
 70
0
 71
1
 72
0
  0
ATTRIB
  5
33
330
2F
100
AcDbEntity
  8
0
 62
1
100
AcDbText
 10
1744.2299196559907
 20
17.970440032070655
 30
0.0
 40
23.99284799997077
  1
1.2
  7
Tahoma (Input Text)
 41
1.000000000006254
100
AcDbAttribute
  2
#08
 70
0
 71
1
 72
0
  0
ATTRIB
  5
34
330
2F
100
AcDbEntity
  8
0
 62
1
100
AcDbText
 10
1760.7693842349981
 20
75.5532752320014
 30
0.0
 40
23.99284799997077
  1
01
  7
Tahoma (Input Text)
 41
1.000000000006254
100
AcDbAttribute
  2
#07
 70
0
 71
1
 72
0
  0
ATTRIB
  5
35
330
2F
100
AcDbEntity
  8
0
 62
1
100
AcDbText
 10
1022.4128837222961
 20
17.970440032070655
 30
0.0
 40
23.99284799997077
  1
700X500X200
  7
Tahoma (Input Text)
 41
1.000000000006254
100
AcDbAttribute
  2
#06
 70
0
 71
1
 72
0
  0
ATTRIB
  5
36
330
2F
100
AcDbEntity
  8
0
 62
1
100
AcDbText
 10
1062.0464658536948
 20
75.5532752320014
 30
0.0
 40
23.99284799997077
  1

  7
Tahoma (Input Text)
 41
1.000000000006254
100
AcDbAttribute
  2
#05
 70
0
 71
1
 72
0
  0
ATTRIB
  5
37
330
2F
100
AcDbEntity
  8
0
 62
1
100
AcDbText
 10
466.52176100159704
 20
17.970440032070655
 30
0.0
 40
23.99284799997077
  1

  7
Tahoma (Input Text)
 41
1.000000000006254
100
AcDbAttribute
  2
#04
 70
0
 71
1
 72
0
  0
ATTRIB
  5
38
330
2F
100
AcDbEntity
  8
0
 62
1
100
AcDbText
 10
486.16299923149927
 20
77.4473773755044
 30
0.0
 40
23.99284799997077
  1
AE HÔNG
  7
Tahoma (Input Text)
 41
1.000000000006254
100
AcDbAttribute
  2
#03
 70
0
 71
1
 72
0
  0
ATTRIB
  5
39
330
2F
100
AcDbEntity
  8
0
 62
1
100
AcDbText
 10
94.49028902380087
 20
17.970440032070655
 30
0.0
 40
23.99284799997077
  1
......
  7
Tahoma (Input Text)
 41
1.000000000006254
100
AcDbAttribute
  2
#02
 70
0
 71
1
 72
0
  0
ATTRIB
  5
3A
330
2F
100
AcDbEntity
  8
0
 62
1
100
AcDbText
 10
131.53215925719996
 20
75.5532752320014
 30
0.0
 40
23.99284799997077
  1
THIÊN
  7
Tahoma (Input Text)
 41
1.000000000006254
100
AcDbAttribute
  2
#01
 70
0
 71
1
 72
0
  0
SEQEND
  5
3B
330
17
100
AcDbEntity
  8
0
 62
7
  0
LWPOLYLINE
  5
3C
330
17
100
AcDbEntity
  8
0
 62
7
100
AcDbPolyline
 90
4
 70
1
 10
217.35816676329705
 20
1712.9917898898439
 10
742.5581667632941
 20
1712.9917898898439
 10
742.5581667632941
 20
987.7917898898468
 10
217.35816676329705
 20
987.7917898898468
  0
LWPOLYLINE
  5
3D
330
17
100
AcDbEntity
  8
0
 62
7
100
AcDbPolyline
 90
2
 70
0
 10
762.5581667632941
 20
1712.9917898898439
 10
762.5581667632941
 20
987.7917898898468
  0
LWPOLYLINE
  5
3E
330
17
100
AcDbEntity
  8
0
 62
7
100
AcDbPolyline
 90
2
 70
0
 10
742.5581667632941
 20
967.7917898898468
 10
217.35816676329705
 20
967.7917898898468
  0
LWPOLYLINE
  5
3F
330
17
100
AcDbEntity
  8
0
 62
7
100
AcDbPolyline
 90
2
 70
0
 10
197.35816676329705
 20
987.7917898898468
 10
197.35816676329705
 20
1712.9917898898439
  0
LWPOLYLINE
  5
40
330
17
100
AcDbEntity
  8
0
 62
7
100
AcDbPolyline
 90
2
 70
0
 10
217.35816676329705
 20
1732.9917898898439
 10
742.5581667632941
 20
1732.9917898898439
  0
CIRCLE
  5
41
330
17
100
AcDbEntity
  8
0
 62
2
100
AcDbCircle
 10
237.35816676329705
 20
1692.9917898898439
 30
0.0
 40
5.0
  0
CIRCLE
  5
42
330
17
100
AcDbEntity
  8
0
 62
2
100
AcDbCircle
 10
722.5581667632941
 20
1692.9917898898439
 30
0.0
 40
5.0
  0
CIRCLE
  5
43
330
17
100
AcDbEntity
  8
0
 62
2
100
AcDbCircle
 10
237.35816676329705
 20
1007.7917898898459
 30
0.0
 40
5.0
  0
CIRCLE
  5
44
330
17
100
AcDbEntity
  8
0
 62
2
100
AcDbCircle
 10
722.5581667632941
 20
1007.7917898898459
 30
0.0
 40
5.0
  0
CIRCLE
  5
45
330
17
100
AcDbEntity
  8
0
 62
2
100
AcDbCircle
 10
722.5581667632941
 20
1692.9917898898439
 30
0.0
 40
5.0
  0
CIRCLE
  5
46
330
17
100
AcDbEntity
  8
0
 62
2
100
AcDbCircle
 10
722.5581667632941
 20
1007.7917898898459
 30
0.0
 40
5.0
  0
CIRCLE
  5
47
330
17
100
AcDbEntity
  8
0
 62
2
100
AcDbCircle
 10
237.35816676329705
 20
1007.7917898898459
 30
0.0
 40
5.0
  0
LWPOLYLINE
  5
48
330
17
100
AcDbEntity
  8
0
 62
2
100
AcDbPolyline
 90
3
 70
0
 10
742.5581667632941
 20
1732.9917898898439
 10
742.5581667632941
 20
1712.9917898898439
 10
762.5581667632941
 20
1712.9917898898439
  0
LWPOLYLINE
  5
49
330
17
100
AcDbEntity
  8
0
 62
2
100
AcDbPolyline
 90
3
 70
0
 10
217.35816676329705
 20
1732.9917898898439
 10
217.35816676329705
 20
1712.9917898898439
 10
197.35816676329705
 20
1712.9917898898439
  0
LWPOLYLINE
  5
4A
330
17
100
AcDbEntity
  8
0
 62
2
100
AcDbPolyline
 90
3
 70
0
 10
742.5581667632941
 20
967.7917898898468
 10
742.5581667632941
 20
987.7917898898468
 10
762.5581667632941
 20
987.7917898898468
  0
LWPOLYLINE
  5
4B
330
17
100
AcDbEntity
  8
0
 62
2
100
AcDbPolyline
 90
3
 70
0
 10
217.35816676329705
 20
967.7917898898468
 10
217.35816676329705
 20
987.7917898898468
 10
197.35816676329705
 20
987.7917898898468
  0
INSERT
  5
4C
330
17
100
AcDbEntity
  8
CNC
370
-3
100
AcDbBlockReference
  2
ovan8.5x20
 10
427.95816676330287
 20
1036.7917898898459
 30
0.0
 41
-1.0
 50
180.0
  0
INSERT
  5
4E
330
17
100
AcDbEntity
  8
CNC
370
-3
100
AcDbBlockReference
  2
ovan8.5x20
 10
462.95816676330287
 20
1036.7917898898459
 30
0.0
 41
-1.0
 50
180.0
  0
INSERT
  5
50
330
17
100
AcDbEntity
  8
CNC
370
-3
100
AcDbBlockReference
  2
ovan8.5x20
 10
497.95816676330287
 20
1036.7917898898459
 30
0.0
 41
-1.0
 50
180.0
  0
INSERT
  5
52
330
17
100
AcDbEntity
  8
CNC
370
-3
100
AcDbBlockReference
  2
ovan8.5x20
 10
532.9581667633029
 20
1036.7917898898459
 30
0.0
 41
-1.0
 50
180.0
  0
INSERT
  5
54
330
17
100
AcDbEntity
  8
CNC
370
-3
100
AcDbBlockReference
  2
ovan8.5x20
 10
532.9581667633029
 20
1338.9439632288277
 30
0.0
 41
-1.0
 50
180.0
  0
INSERT
  5
56
330
17
100
AcDbEntity
  8
CNC
370
-3
100
AcDbBlockReference
  2
ovan8.5x20
 10
666.4581667633029
 20
1551.0075387145644
 30
0.0
 41
-1.0
 50
180.0
  0
CIRCLE
  5
58
330
17
100
AcDbEntity
  8
0
 62
2
100
AcDbCircle
 10
332.10934172589623
 20
1581.7917898898468
 30
0.0
 40
5.0
  0
CIRCLE
  5
59
330
17
100
AcDbEntity
  8
0
 62
2
100
AcDbCircle
 10
332.10934172589623
 20
1366.7917898898468
 30
0.0
 40
5.0
  0
INSERT
  5
5A
330
17
100
AcDbEntity
  8
CNC
370
-3
100
AcDbBlockReference
  2
ovan8.5x20
 10
435.458166763201
 20
1414.291789889854
 30
0.0
 41
-1.0
 50
270.0
  0
INSERT
  5
5C
330
17
100
AcDbEntity
  8
CNC
370
-3
100
AcDbBlockReference
  2
ovan8.5x20
 10
579.0740713603009
 20
1414.291789889854
 30
0.0
 50
90.0
  0
INSERT
  5
5E
330
17
100
AcDbEntity
  8
CNC
370
-3
100
AcDbBlockReference
  2
ovan8.5x20
 10
435.458166763201
 20
1604.2917898898404
 30
0.0
 50
270.0
  0
INSERT
  5
60
330
17
100
AcDbEntity
  8
CNC
370
-3
100
AcDbBlockReference
  2
ovan8.5x20
 10
579.0740713603009
 20
1604.2917898898404
 30
0.0
 41
-1.0
 50
90.0
  0
LWPOLYLINE
  5
62
330
17
100
AcDbEntity
  8
0
 62
7
100
AcDbPolyline
 90
4
 70
1
 10
1172.5157916940952
 20
1652.4140634923415
 10
1366.131696291195
 20
1652.4140634923415
 10
1366.131696291195
 20
1490.4140634923415
 10
1172.5157916940952
 20
1490.4140634923415
  0
LWPOLYLINE
  5
63
330
17
100
AcDbEntity
  8
0
 62
7
100
AcDbPolyline
 90
4
 70
1
 10
1172.5157916940952
 20
1424.4140634923415
 10
1366.131696291195
 20
1424.4140634923415
 10
1366.131696291195
 20
1449.4140634923397
 10
1172.5157916940952
 20
1449.4140634923397
  0
INSERT
  5
64
330
17
100
AcDbEntity
  8
CNC
370
-3
100
AcDbBlockReference
  2
ovan8.5x20
 10
1197.5157916940952
 20
1436.9140634923415
 30
0.0
 41
-1.0
 50
180.0
  0
INSERT
  5
66
330
17
100
AcDbEntity
  8
CNC
370
-3
100
AcDbBlockReference
  2
ovan8.5x20
 10
1341.1316962910932
 20
1436.9140634923415
 30
0.0
 50
180.0
  0
LWPOLYLINE
  5
68
330
17
100
AcDbEntity
  8
0
 62
7
100
AcDbPolyline
 90
4
 70
1
 10
1172.5157916940952
 20
1718.4140634923397
 10
1366.131696291195
 20
1718.4140634923397
 10
1366.131696291195
 20
1693.4140634923397
 10
1172.5157916940952
 20
1693.4140634923397
  0
INSERT
  5
69
330
17
100
AcDbEntity
  8
CNC
370
-3
100
AcDbBlockReference
  2
ovan8.5x20
 10
1197.5157916940952
 20
1705.9140634923397
 30
0.0
  0
INSERT
  5
6B
330
17
100
AcDbEntity
  8
CNC
370
-3
100
AcDbBlockReference
  2
ovan8.5x20
 10
1341.1316962910932
 20
1705.9140634923397
 30
0.0
 41
-1.0
  0
CIRCLE
  5
6D
330
17
100
AcDbEntity
  8
0
 62
2
100
AcDbCircle
 10
1323.740825585497
 20
1634.447945778129
 30
0.0
 40
11.5
  0
CIRCLE
  5
6E
330
17
100
AcDbEntity
  8
0
 62
2
100
AcDbCircle
 10
1323.740825585497
 20
1508.3801812065522
 30
0.0
 40
11.5
  0
CIRCLE
  5
6F
330
17
100
AcDbEntity
  8
0
 62
2
100
AcDbCircle
 10
1207.5157916940952
 20
1634.4140634923415
 30
0.0
 40
3.0
  0
CIRCLE
  5
70
330
17
100
AcDbEntity
  8
0
 62
2
100
AcDbCircle
 10
1242.5157916940952
 20
1634.4140634923415
 30
0.0
 40
3.0
  0
CIRCLE
  5
71
330
17
100
AcDbEntity
  8
0
 62
2
100
AcDbCircle
 10
1242.5157916940952
 20
1508.4140634923415
 30
0.0
 40
3.0
  0
CIRCLE
  5
72
330
17
100
AcDbEntity
  8
0
 62
2
100
AcDbCircle
 10
1207.5157916940952
 20
1508.4140634923415
 30
0.0
 40
3.0
  0
INSERT
  5
73
330
17
100
AcDbEntity
  8
CNC
370
-3
100
AcDbBlockReference
  2
ovan8.5x20
 10
400.45816676330287
 20
1093.9872255335022
 30
0.0
 41
-1.0
 50
180.0
  0
INSERT
  5
75
330
17
100
AcDbEntity
  8
CNC
370
-3
100
AcDbBlockReference
  2
ovan8.5x20
 10
400.45816676330287
 20
1293.9872255335022
 30
0.0
  0
INSERT
  5
77
330
17
100
AcDbEntity
  8
CNC
370
-3
100
AcDbBlockReference
  2
ovan8.5x20
 10
245.458166763201
 20
1093.9872255335022
 30
0.0
 50
180.0
  0
INSERT
  5
79
330
17
100
AcDbEntity
  8
CNC
370
-3
100
AcDbBlockReference
  2
ovan8.5x20
 10
245.458166763201
 20
1293.9872255335022
 30
0.0
 41
-1.0
  0
INSERT
  5
7B
330
17
100
AcDbEntity
  8
CNC
370
-3
100
AcDbBlockReference
  2
ovan8.5x20
 10
715.4581667633029
 20
1093.9872255335022
 30
0.0
 41
-1.0
 50
180.0
  0
INSERT
  5
7D
330
17
100
AcDbEntity
  8
CNC
370
-3
100
AcDbBlockReference
  2
ovan8.5x20
 10
715.4581667633029
 20
1293.9872255335022
 30
0.0
  0
INSERT
  5
7F
330
17
100
AcDbEntity
  8
CNC
370
-3
100
AcDbBlockReference
  2
ovan8.5x20
 10
560.458166763201
 20
1093.9872255335022
 30
0.0
 50
180.0
  0
INSERT
  5
81
330
17
100
AcDbEntity
  8
CNC
370
-3
100
AcDbBlockReference
  2
ovan8.5x20
 10
560.458166763201
 20
1293.9872255335022
 30
0.0
 41
-1.0
  0
LWPOLYLINE
  5
83
330
17
100
AcDbEntity
  8
0
 62
7
100
AcDbPolyline
 90
4
 70
1
 10
1437.503546668202
 20
1037.4984316190703
 10
1437.503546668202
 20
1062.4984316190694
 10
1187.503546668202
 20
1062.4984316190694
 10
1187.503546668202
 20
1037.4984316190703
  0
INSERT
  5
84
330
17
100
AcDbEntity
  8
CNC
370
-3
100
AcDbBlockReference
  2
ovan8.5x20
 10
1412.503546668202
 20
1049.9984316190694
 30
0.0
 41
-1.0
  0
INSERT
  5
86
330
17
100
AcDbEntity
  8
CNC
370
-3
100
AcDbBlockReference
  2
ovan8.5x20
 10
1212.503546668202
 20
1049.9984316190694
 30
0.0
  0
LWPOLYLINE
  5
88
330
17
100
AcDbEntity
  8
0
 62
7
100
AcDbPolyline
 90
4
 70
1
 10
1437.503546668202
 20
836.4984316190694
 10
1437.503546668202
 20
811.4984316190703
 10
1187.503546668202
 20
811.4984316190703
 10
1187.503546668202
 20
836.4984316190694
  0
INSERT
  5
89
330
17
100
AcDbEntity
  8
CNC
370
-3
100
AcDbBlockReference
  2
ovan8.5x20
 10
1412.503546668202
 20
823.9984316190703
 30
0.0
 50
180.0
  0
INSERT
  5
8B
330
17
100
AcDbEntity
  8
CNC
370
-3
100
AcDbBlockReference
  2
ovan8.5x20
 10
1212.503546668202
 20
823.9984316190703
 30
0.0
 41
-1.0
 50
180.0
  0
LWPOLYLINE
  5
8D
330
17
100
AcDbEntity
  8
0
 62
7
100
AcDbPolyline
 90
4
 70
1
 10
1187.503546668202
 20
873.4984316190694
 10
1187.503546668202
 20
1000.4984316190703
 10
1437.503546668202
 20
1000.4984316190703
 10
1437.503546668202
 20
873.4984316190694
  0
CIRCLE
  5
8E
330
17
100
AcDbEntity
  8
0
 62
2
100
AcDbCircle
 10
1212.503546668202
 20
881.7484316190694
 30
0.0
 40
3.0
  0
CIRCLE
  5
8F
330
17
100
AcDbEntity
  8
0
 62
2
100
AcDbCircle
 10
1212.503546668202
 20
992.2484316190694
 30
0.0
 40
3.0
  0
CIRCLE
  5
90
330
17
100
AcDbEntity
  8
0
 62
2
100
AcDbCircle
 10
1262.503546668202
 20
881.7484316190694
 30
0.0
 40
3.0
  0
CIRCLE
  5
91
330
17
100
AcDbEntity
  8
0
 62
2
100
AcDbCircle
 10
1262.503546668202
 20
992.2484316190694
 30
0.0
 40
3.0
  0
CIRCLE
  5
92
330
17
100
AcDbEntity
  8
0
 62
2
100
AcDbCircle
 10
1312.503546668202
 20
881.7484316190694
 30
0.0
 40
3.0
  0
CIRCLE
  5
93
330
17
100
AcDbEntity
  8
0
 62
2
100
AcDbCircle
 10
1312.503546668202
 20
992.2484316190694
 30
0.0
 40
3.0
  0
CIRCLE
  5
94
330
17
100
AcDbEntity
  8
0
 62
2
100
AcDbCircle
 10
1362.503546668202
 20
881.7484316190694
 30
0.0
 40
3.0
  0
CIRCLE
  5
95
330
17
100
AcDbEntity
  8
0
 62
2
100
AcDbCircle
 10
1362.503546668202
 20
992.2484316190694
 30
0.0
 40
3.0
  0
CIRCLE
  5
96
330
17
100
AcDbEntity
  8
0
 62
2
100
AcDbCircle
 10
1412.503546668202
 20
881.7484316190694
 30
0.0
 40
3.0
  0
CIRCLE
  5
97
330
17
100
AcDbEntity
  8
0
 62
2
100
AcDbCircle
 10
1412.503546668202
 20
992.2484316190694
 30
0.0
 40
3.0
  0
LWPOLYLINE
  5
98
330
17
100
AcDbEntity
  8
0
 62
7
100
AcDbPolyline
 90
4
 70
1
 10
1172.5157916940952
 20
1693.4140634923397
 10
1366.131696291195
 20
1693.4140634923397
 10
1366.131696291195
 20
1652.4140634923415
 10
1172.5157916940952
 20
1652.4140634923415
  0
LWPOLYLINE
  5
99
330
17
100
AcDbEntity
  8
0
 62
7
100
AcDbPolyline
 90
4
 70
1
 10
1172.5157916940952
 20
1490.4140634923415
 10
1366.131696291195
 20
1490.4140634923415
 10
1366.131696291195
 20
1449.4140634923397
 10
1172.5157916940952
 20
1449.4140634923397
  0
LWPOLYLINE
  5
9A
330
17
100
AcDbEntity
  8
0
 62
7
100
AcDbPolyline
 90
4
 70
1
 10
1187.503546668202
 20
1000.4984316190703
 10
1187.503546668202
 20
1037.4984316190703
 10
1437.503546668202
 20
1037.4984316190703
 10
1437.503546668202
 20
1000.4984316190703
  0
LWPOLYLINE
  5
9B
330
17
100
AcDbEntity
  8
0
 62
7
100
AcDbPolyline
 90
4
 70
1
 10
1187.503546668202
 20
873.4984316190694
 10
1187.503546668202
 20
836.4984316190694
 10
1437.503546668202
 20
836.4984316190694
 10
1437.503546668202
 20
873.4984316190694
  0
CIRCLE
  5
9C
330
17
100
AcDbEntity
  8
0
 62
2
100
AcDbCircle
 10
1182.5157916940952
 20
1693.4140634923397
 30
0.0
 40
1.0
  0
CIRCLE
  5
9D
330
17
100
AcDbEntity
  8
0
 62
2
100
AcDbCircle
 10
1182.5157916940952
 20
1652.4140634923415
 30
0.0
 40
1.5
  0
CIRCLE
  5
9E
330
17
100
AcDbEntity
  8
0
 62
2
100
AcDbCircle
 10
1356.131696291195
 20
1693.4140634923397
 30
0.0
 40
1.0
  0
CIRCLE
  5
9F
330
17
100
AcDbEntity
  8
0
 62
2
100
AcDbCircle
 10
1356.131696291195
 20
1652.4140634923415
 30
0.0
 40
1.5
  0
CIRCLE
  5
A0
330
17
100
AcDbEntity
  8
0
 62
2
100
AcDbCircle
 10
1225.9584899374022
 20
1671.9087278803217
 30
0.0
 40
11.5
  0
CIRCLE
  5
A1
330
17
100
AcDbEntity
  8
0
 62
2
100
AcDbCircle
 10
1182.5157916940952
 20
1449.4140634923397
 30
0.0
 40
1.0
  0
CIRCLE
  5
A2
330
17
100
AcDbEntity
  8
0
 62
2
100
AcDbCircle
 10
1182.5157916940952
 20
1490.4140634923415
 30
0.0
 40
1.5
  0
CIRCLE
  5
A3
330
17
100
AcDbEntity
  8
0
 62
2
100
AcDbCircle
 10
1356.131696291195
 20
1449.4140634923397
 30
0.0
 40
1.0
  0
CIRCLE
  5
A4
330
17
100
AcDbEntity
  8
0
 62
2
100
AcDbCircle
 10
1356.131696291195
 20
1490.4140634923415
 30
0.0
 40
1.5
  0
CIRCLE
  5
A5
330
17
100
AcDbEntity
  8
0
 62
2
100
AcDbCircle
 10
1197.503546668202
 20
836.4984316190694
 30
0.0
 40
1.0
  0
CIRCLE
  5
A6
330
17
100
AcDbEntity
  8
0
 62
2
100
AcDbCircle
 10
1197.503546668202
 20
873.4984316190694
 30
0.0
 40
1.5
  0
CIRCLE
  5
A7
330
17
100
AcDbEntity
  8
0
 62
2
100
AcDbCircle
 10
1427.503546668202
 20
836.4984316190694
 30
0.0
 40
1.0
  0
CIRCLE
  5
A8
330
17
100
AcDbEntity
  8
0
 62
2
100
AcDbCircle
 10
1427.503546668202
 20
873.4984316190694
 30
0.0
 40
1.5
  0
LWPOLYLINE
  5
A9
330
17
100
AcDbEntity
  8
0
 62
7
100
AcDbPolyline
 90
4
 70
1
 10
1187.503546668202
 20
1000.4984316190703
 10
1187.503546668202
 20
1037.4984316190703
 10
1437.503546668202
 20
1037.4984316190703
 10
1437.503546668202
 20
1000.4984316190703
  0
CIRCLE
  5
AA
330
17
100
AcDbEntity
  8
0
 62
2
100
AcDbCircle
 10
1197.503546668202
 20
1037.4984316190703
 30
0.0
 40
1.0
  0
CIRCLE
  5
AB
330
17
100
AcDbEntity
  8
0
 62
2
100
AcDbCircle
 10
1197.503546668202
 20
1000.4984316190703
 30
0.0
 40
1.5
  0
CIRCLE
  5
AC
330
17
100
AcDbEntity
  8
0
 62
2
100
AcDbCircle
 10
1427.503546668202
 20
1037.4984316190703
 30
0.0
 40
1.0
  0
CIRCLE
  5
AD
330
17
100
AcDbEntity
  8
0
 62
2
100
AcDbCircle
 10
1427.503546668202
 20
1000.4984316190703
 30
0.0
 40
1.5
  0
DIMENSION
  5
AE
330
17
100
AcDbEntity
  8
0
 62
7
100
AcDbDimension
280
0
  2
*D1
  3
Dim-33
 10
866.303426147002
 20
987.7917898898468
 30
0.0
 11
834.4545175521926
 21
1350.3917898898653
 31
0.0
 70
32
 71
5
 42
725.1999999999971
 73
0
 74
0
 75
0
100
AcDbAlignedDimension
 13
762.5581667632941
 23
1712.9917898898439
 33
0.0
 14
762.5581667632941
 24
987.7917898898468
 34
0.0
 50
90.0
100
AcDbRotatedDimension
  0
DIMENSION
  5
B3
330
17
100
AcDbEntity
  8
0
 62
7
100
AcDbDimension
280
0
  2
*D2
  3
Dim-25
 10
1097.4313544995966
 20
1718.4140634923424
 30
0.0
 11
1074.6670298065
 21
1754.626887503222
 31
0.0
 70
32
 71
5
 42
25.0
 73
0
 74
0
 75
0
100
AcDbAlignedDimension
 13
1172.5157916940952
 23
1693.4140634923397
 33
0.0
 14
1172.5157916940952
 24
1718.4140634923397
 34
0.0
 50
90.0
100
AcDbRotatedDimension
  0
DIMENSION
  5
B4
330
17
100
AcDbEntity
  8
0
 62
7
100
AcDbDimension
280
0
  2
*D3
  3
Dim-25
 10
1097.4313544994948
 20
1652.4140634923424
 30
0.0
 11
1097.431354499393
 21
1672.9140634923078
 31
0.0
 70
160
 71
5
 42
41.0
 73
0
 74
0
 75
0
100
AcDbAlignedDimension
 13
1172.5157916940952
 23
1693.4140634923397
 33
0.0
 14
1172.5157916940952
 24
1652.4140634923415
 34
0.0
 50
90.0
100
AcDbRotatedDimension
  0
DIMENSION
  5
B5
330
17
100
AcDbEntity
  8
0
 62
7
100
AcDbDimension
280
0
  2
*D4
  3
Dim-25
 10
1097.4313544995966
 20
1490.4140634923424
 30
0.0
 11
1074.6670298065
 21
1571.4140634923078
 31
0.0
 70
32
 71
5
 42
162.0
 73
0
 74
0
 75
0
100
AcDbAlignedDimension
 13
1172.5157916940952
 23
1652.4140634923415
 33
0.0
 14
1172.5157916940952
 24
1490.4140634923415
 34
0.0
 50
90.0
100
AcDbRotatedDimension
  0
DIMENSION
  5
B6
330
17
100
AcDbEntity
  8
0
 62
7
100
AcDbDimension
280
0
  2
*D5
  3
Dim-25
 10
1097.4313544994948
 20
1449.4140634923424
 30
0.0
 11
1097.431354499393
 21
1469.9140634923078
 31
0.0
 70
160
 71
5
 42
41.0
 73
0
 74
0
 75
0
100
AcDbAlignedDimension
 13
1172.5157916940952
 23
1490.4140634923415
 33
0.0
 14
1172.5157916940952
 24
1449.4140634923397
 34
0.0
 50
90.0
100
AcDbRotatedDimension
  0
DIMENSION
  5
B7
330
17
100
AcDbEntity
  8
0
 62
7
100
AcDbDimension
280
0
  2
*D6
  3
Dim-25
 10
1097.4313544995966
 20
1424.4140634923424
 30
0.0
 11
1074.6670298065
 21
1388.2012394813928
 31
0.0
 70
32
 71
5
 42
25.0
 73
0
 74
0
 75
0
100
AcDbAlignedDimension
 13
1172.5157916940952
 23
1449.4140634923397
 33
0.0
 14
1172.5157916940952
 24
1424.4140634923415
 34
0.0
 50
90.0
100
AcDbRotatedDimension
  0
DIMENSION
  5
B8
330
17
100
AcDbEntity
  8
0
 62
7
100
AcDbDimension
280
0
  2
*D7
  3
Dim-25
 10
1426.5873014554963
 20
1490.4140634923424
 30
0.0
 11
1403.8229767623998
 21
1571.4140634923078
 31
0.0
 70
32
 71
5
 42
162.0
 73
0
 74
0
 75
0
100
AcDbAlignedDimension
 13
1366.131696291195
 23
1652.4140634923415
 33
0.0
 14
1366.131696291195
 24
1490.4140634923415
 34
0.0
 50
90.0
100
AcDbRotatedDimension
  0
DIMENSION
  5
B9
330
17
100
AcDbEntity
  8
0
 62
7
100
AcDbDimension
280
0
  2
*D8
  3
Dim-25
 10
1485.3148772439017
 20
1424.4140634923424
 30
0.0
 11
1462.5505525507906
 21
1571.4140634923078
 31
0.0
 70
32
 71
5
 42
294.0
 73
0
 74
0
 75
0
100
AcDbAlignedDimension
 13
1366.131696291195
 23
1718.4140634923397
 33
0.0
 14
1366.131696291195
 24
1424.4140634923415
 34
0.0
 50
90.0
100
AcDbRotatedDimension
  0
DIMENSION
  5
BA
330
17
100
AcDbEntity
  8
0
 62
7
100
AcDbDimension
280
0
  2
*D9
  3
Dim-25
 10
1117.4049112975918
 20
1062.4984316190712
 30
0.0
 11
1094.640586604597
 21
1098.7112556299508
 31
0.0
 70
32
 71
5
 42
25.0
 73
0
 74
0
 75
0
100
AcDbAlignedDimension
 13
1187.503546668202
 23
1037.4984316190703
 33
0.0
 14
1187.503546668202
 24
1062.4984316190694
 34
0.0
 50
90.0
100
AcDbRotatedDimension
  0
DIMENSION
  5
BB
330
17
100
AcDbEntity
  8
0
 62
7
100
AcDbDimension
280
0
  2
*D10
  3
Dim-25
 10
1117.4049112975918
 20
1000.4984316190712
 30
0.0
 11
1117.4049112975044
 21
1018.9984316190357
 31
0.0
 70
160
 71
5
 42
37.0
 73
0
 74
0
 75
0
100
AcDbAlignedDimension
 13
1187.503546668202
 23
1037.4984316190703
 33
0.0
 14
1187.503546668202
 24
1000.4984316190703
 34
0.0
 50
90.0
100
AcDbRotatedDimension
  0
DIMENSION
  5
BC
330
17
100
AcDbEntity
  8
0
 62
7
100
AcDbDimension
280
0
  2
*D11
  3
Dim-25
 10
1117.4049112975918
 20
873.4984316190721
 30
0.0
 11
1094.8537516795914
 21
936.9984316190366
 31
0.0
 70
32
 71
5
 42
127.0
 73
0
 74
0
 75
0
100
AcDbAlignedDimension
 13
1187.503546668202
 23
1000.4984316190703
 33
0.0
 14
1187.503546668202
 24
873.4984316190694
 34
0.0
 50
90.0
100
AcDbRotatedDimension
  0
DIMENSION
  5
BD
330
17
100
AcDbEntity
  8
0
 62
7
100
AcDbDimension
280
0
  2
*D12
  3
Dim-25
 10
1117.4049112975918
 20
836.4984316190712
 30
0.0
 11
1117.4049112975044
 21
854.9984316190366
 31
0.0
 70
160
 71
5
 42
37.0
 73
0
 74
0
 75
0
100
AcDbAlignedDimension
 13
1187.503546668202
 23
873.4984316190694
 33
0.0
 14
1187.503546668202
 24
836.4984316190694
 34
0.0
 50
90.0
100
AcDbRotatedDimension
  0
DIMENSION
  5
BE
330
17
100
AcDbEntity
  8
0
 62
7
100
AcDbDimension
280
0
  2
*D13
  3
Dim-25
 10
1117.4049112975918
 20
811.4984316190712
 30
0.0
 11
1094.640586604597
 21
775.2856076081216
 31
0.0
 70
32
 71
5
 42
25.0
 73
0
 74
0
 75
0
100
AcDbAlignedDimension
 13
1187.503546668202
 23
836.4984316190694
 33
0.0
 14
1187.503546668202
 24
811.4984316190703
 34
0.0
 50
90.0
100
AcDbRotatedDimension
  0
DIMENSION
  5
BF
330
17
100
AcDbEntity
  8
0
 62
7
100
AcDbDimension
280
0
  2
*D14
  3
Dim-25
 10
1515.3053384692903
 20
873.4984316190721
 30
0.0
 11
1492.7541788512026
 21
936.9984316190366
 31
0.0
 70
32
 71
5
 42
127.0
 73
0
 74
0
 75
0
100
AcDbAlignedDimension
 13
1437.503546668202
 23
1000.4984316190703
 33
0.0
 14
1437.503546668202
 24
873.4984316190694
 34
0.0
 50
90.0
100
AcDbRotatedDimension
  0
DIMENSION
  5
C0
330
17
100
AcDbEntity
  8
0
 62
7
100
AcDbDimension
280
0
  2
*D15
  3
Dim-25
 10
1591.8238922430028
 20
811.4984316190712
 30
0.0
 11
1569.0595675498917
 21
936.9984316190366
 31
0.0
 70
32
 71
5
 42
251.0
 73
0
 74
0
 75
0
100
AcDbAlignedDimension
 13
1437.503546668202
 23
1062.4984316190694
 33
0.0
 14
1437.503546668202
 24
811.4984316190703
 34
0.0
 50
90.0
100
AcDbRotatedDimension
  0
DIMENSION
  5
C1
330
17
100
AcDbEntity
  8
0
 62
7
100
AcDbDimension
280
0
  2
*D16
  3
Dim-25
 10
1366.131696291195
 20
1327.5654548311586
 30
0.0
 11
1269.3237439926015
 21
1350.3297795242006
 31
0.0
 70
32
 71
5
 42
193.6159045970999
 73
0
 74
0
 75
0
100
AcDbAlignedDimension
 13
1172.5157916940952
 23
1424.4140634923415
 33
0.0
 14
1366.131696291195
 24
1424.4140634923415
 34
0.0
 50
0.0
100
AcDbRotatedDimension
  0
DIMENSION
  5
C2
330
17
100
AcDbEntity
  8
0
 62
7
100
AcDbDimension
280
0
  2
*D17
  3
Dim-25
 10
1437.503546668202
 20
703.2216763732604
 30
0.0
 11
1312.503546668202
 21
725.9860010663024
 31
0.0
 70
32
 71
5
 42
250.0
 73
0
 74
0
 75
0
100
AcDbAlignedDimension
 13
1187.503546668202
 23
811.4984316190703
 33
0.0
 14
1437.503546668202
 24
811.4984316190703
 34
0.0
 50
0.0
100
AcDbRotatedDimension
  0
DIMENSION
  5
C3
330
17
100
AcDbEntity
  8
0
 62
7
100
AcDbDimension
280
0
  2
*D18
  3
Dim-33
 10
961.1178285878996
 20
967.7917898898468
 30
0.0
 11
929.2689199931046
 21
1350.3917898898653
 31
0.0
 70
32
 71
5
 42
765.199999999997
 73
0
 74
0
 75
0
100
AcDbAlignedDimension
 13
742.5581667632941
 23
1732.9917898898439
 33
0.0
 14
742.5581667632941
 24
967.7917898898468
 34
0.0
 50
90.0
100
AcDbRotatedDimension
  0
DIMENSION
  5
C4
330
17
100
AcDbEntity
  8
0
 62
7
100
AcDbDimension
280
0
  2
*D19
  3
Dim-33
 10
742.5581667632941
 20
894.5415775263837
 30
0.0
 11
479.95816676330287
 21
926.3904861212004
 31
0.0
 70
32
 71
5
 42
525.2000000000116
 73
0
 74
0
 75
0
100
AcDbAlignedDimension
 13
217.35816676329705
 23
967.7917898898468
 33
0.0
 14
742.5581667632941
 24
967.7917898898468
 34
0.0
 50
0.0
100
AcDbRotatedDimension
  0
DIMENSION
  5
C5
330
17
100
AcDbEntity
  8
0
 62
7
100
AcDbDimension
280
0
  2
*D20
  3
Dim-33
 10
762.5581667632941
 20
818.5523584405764
 30
0.0
 11
479.95816676330287
 21
850.4012670353923
 31
0.0
 70
32
 71
5
 42
565.2000000000116
 73
0
 74
0
 75
0
100
AcDbAlignedDimension
 13
197.35816676329705
 23
987.7917898898468
 33
0.0
 14
762.5581667632941
 24
987.7917898898468
 34
0.0
 50
0.0
100
AcDbRotatedDimension
  0
CIRCLE
  5
C6
330
17
100
AcDbEntity
  8
0
 62
2
100
AcDbCircle
 10
217.35816676329705
 20
997.7917898898459
 30
0.0
 40
1.5
  0
CIRCLE
  5
C7
330
17
100
AcDbEntity
  8
0
 62
2
100
AcDbCircle
 10
227.35816676329705
 20
987.7917898898468
 30
0.0
 40
1.5
  0
CIRCLE
  5
C8
330
17
100
AcDbEntity
  8
0
 62
2
100
AcDbCircle
 10
277.35816676329705
 20
987.7917898898468
 30
0.0
 40
1.5
  0
CIRCLE
  5
C9
330
17
100
AcDbEntity
  8
0
 62
2
100
AcDbCircle
 10
742.5581667632941
 20
997.7917898898459
 30
0.0
 40
1.5
  0
CIRCLE
  5
CA
330
17
100
AcDbEntity
  8
0
 62
2
100
AcDbCircle
 10
732.5581667632941
 20
987.7917898898468
 30
0.0
 40
1.5
  0
CIRCLE
  5
CB
330
17
100
AcDbEntity
  8
0
 62
2
100
AcDbCircle
 10
682.5581667632941
 20
987.7917898898468
 30
0.0
 40
1.5
  0
CIRCLE
  5
CC
330
17
100
AcDbEntity
  8
0
 62
2
100
AcDbCircle
 10
217.35816676329705
 20
1702.991789889843
 30
0.0
 40
1.5
  0
CIRCLE
  5
CD
330
17
100
AcDbEntity
  8
0
 62
2
100
AcDbCircle
 10
227.35816676329705
 20
1712.9917898898439
 30
0.0
 40
1.5
  0
CIRCLE
  5
CE
330
17
100
AcDbEntity
  8
0
 62
2
100
AcDbCircle
 10
277.35816676329705
 20
1712.9917898898439
 30
0.0
 40
1.5
  0
CIRCLE
  5
CF
330
17
100
AcDbEntity
  8
0
 62
2
100
AcDbCircle
 10
742.5581667632941
 20
1702.991789889843
 30
0.0
 40
1.5
  0
CIRCLE
  5
D0
330
17
100
AcDbEntity
  8
0
 62
2
100
AcDbCircle
 10
732.5581667632941
 20
1712.9917898898439
 30
0.0
 40
1.5
  0
CIRCLE
  5
D1
330
17
100
AcDbEntity
  8
0
 62
2
100
AcDbCircle
 10
682.5581667632941
 20
1712.9917898898439
 30
0.0
 40
1.5
  0
MTEXT
  5
D2
330
17
100
AcDbEntity
  8
0
 62
7
100
AcDbMText
 10
1259.7939632082998
 20
1910.7061107228383
 30
0.0
 40
30.0
 41
1125.000000000014
 46
100.0000000000031
 71
5
 72
5
  1
Tấm Đố : 02 tấm
  0
MTEXT
  5
D3
330
17
100
AcDbEntity
  8
0
 62
7
100
AcDbMText
 10
1259.7939632082998
 20
1214.739073659077
 30
0.0
 40
30.0
 41
1125.000000000014
 46
100.0000000000031
 71
5
 72
5
  1
Tấm Đố : 02 tấm
  0
ENDSEC
  0
SECTION
  2
OBJECTS
  0
DICTIONARY
  5
A
330
0
100
AcDbDictionary
281
1
  3
ACAD_COLOR
350
B
  3
ACAD_GROUP
350
C
  3
ACAD_LAYOUT
350
D
  3
ACAD_MATERIAL
350
E
  3
ACAD_MLEADERSTYLE
350
F
  3
ACAD_MLINESTYLE
350
10
  3
ACAD_PLOTSETTINGS
350
11
  3
ACAD_PLOTSTYLENAME
350
12
  3
ACAD_SCALELIST
350
14
  3
ACAD_TABLESTYLE
350
15
  3
ACAD_VISUALSTYLE
350
16
  3
EZDXF_META
350
2D
  0
DICTIONARY
  5
B
330
A
100
AcDbDictionary
281
1
  0
DICTIONARY
  5
C
330
A
100
AcDbDictionary
281
1
  0
DICTIONARY
  5
D
330
A
100
AcDbDictionary
281
1
  3
Model
350
1A
  3
Layout1
350
1E
  0
DICTIONARY
  5
E
330
A
100
AcDbDictionary
281
1
  3
ByBlock
350
1F
  3
ByLayer
350
20
  3
Global
350
21
  0
DICTIONARY
  5
F
330
A
100
AcDbDictionary
281
1
  3
Standard
350
2C
  0
DICTIONARY
  5
10
330
A
100
AcDbDictionary
281
1
  3
Standard
350
22
  0
DICTIONARY
  5
11
330
A
100
AcDbDictionary
281
1
  0
ACDBDICTIONARYWDFLT
  5
12
330
A
100
AcDbDictionary
281
1
  3
Normal
350
13
100
AcDbDictionaryWithDefault
340
13
  0
ACDBPLACEHOLDER
  5
13
330
12
  0
DICTIONARY
  5
14
330
A
100
AcDbDictionary
281
1
  0
DICTIONARY
  5
15
330
A
100
AcDbDictionary
281
1
  0
DICTIONARY
  5
16
330
A
100
AcDbDictionary
281
1
  0
LAYOUT
  5
1A
330
D
100
AcDbPlotSettings
  1

  4
A3
  6

 40
7.5
 41
20.0
 42
7.5
 43
20.0
 44
420.0
 45
297.0
 46
0.0
 47
0.0
 48
0.0
 49
0.0
140
0.0
141
0.0
142
1.0
143
1.0
 70
1024
 72
1
 73
0
 74
5
  7

 75
16
 76
0
 77
2
 78
300
147
1.0
148
0.0
149
0.0
100
AcDbLayout
  1
Model
 70
1
 71
0
 10
0.0
 20
0.0
 11
420.0
 21
297.0
 12
0.0
 22
0.0
 32
0.0
 14
1e+20
 24
1e+20
 34
1e+20
 15
-1e+20
 25
-1e+20
 35
-1e+20
146
0.0
 13
0.0
 23
0.0
 33
0.0
 16
1.0
 26
0.0
 36
0.0
 17
0.0
 27
1.0
 37
0.0
 76
1
330
17
  0
LAYOUT
  5
1E
330
D
100
AcDbPlotSettings
  1

  4
A3
  6

 40
7.5
 41
20.0
 42
7.5
 43
20.0
 44
420.0
 45
297.0
 46
0.0
 47
0.0
 48
0.0
 49
0.0
140
0.0
141
0.0
142
1.0
143
1.0
 70
0
 72
1
 73
0
 74
5
  7

 75
16
 76
0
 77
2
 78
300
147
1.0
148
0.0
149
0.0
100
AcDbLayout
  1
Layout1
 70
1
 71
1
 10
0.0
 20
0.0
 11
420.0
 21
297.0
 12
0.0
 22
0.0
 32
0.0
 14
1e+20
 24
1e+20
 34
1e+20
 15
-1e+20
 25
-1e+20
 35
-1e+20
146
0.0
 13
0.0
 23
0.0
 33
0.0
 16
1.0
 26
0.0
 36
0.0
 17
0.0
 27
1.0
 37
0.0
 76
1
330
1B
  0
MATERIAL
  5
1F
102
{ACAD_REACTORS
330
E
102
}
330
E
100
AcDbMaterial
  1
ByBlock
  2

 70
0
 40
1.0
 71
1
 41
1.0
 91
-1023410177
 42
1.0
 72
1
  3

 73
1
 74
1
 75
1
 44
0.5
 73
0
 45
1.0
 46
1.0
 77
1
  4

 78
1
 79
1
170
1
 48
1.0
171
1
  6

172
1
173
1
174
1
140
1.0
141
1.0
175
1
  7

176
1
177
1
178
1
143
1.0
179
1
  8

270
1
271
1
272
1
145
1.0
146
1.0
273
1
  9

274
1
275
1
276
1
 42
1.0
 72
1
  3

 73
1
 74
1
 75
1
 94
63
  0
MATERIAL
  5
20
102
{ACAD_REACTORS
330
E
102
}
330
E
100
AcDbMaterial
  1
ByLayer
  2

 70
0
 40
1.0
 71
1
 41
1.0
 91
-1023410177
 42
1.0
 72
1
  3

 73
1
 74
1
 75
1
 44
0.5
 73
0
 45
1.0
 46
1.0
 77
1
  4

 78
1
 79
1
170
1
 48
1.0
171
1
  6

172
1
173
1
174
1
140
1.0
141
1.0
175
1
  7

176
1
177
1
178
1
143
1.0
179
1
  8

270
1
271
1
272
1
145
1.0
146
1.0
273
1
  9

274
1
275
1
276
1
 42
1.0
 72
1
  3

 73
1
 74
1
 75
1
 94
63
  0
MATERIAL
  5
21
102
{ACAD_REACTORS
330
E
102
}
330
E
100
AcDbMaterial
  1
Global
  2

 70
0
 40
1.0
 71
1
 41
1.0
 91
-1023410177
 42
1.0
 72
1
  3

 73
1
 74
1
 75
1
 44
0.5
 73
0
 45
1.0
 46
1.0
 77
1
  4

 78
1
 79
1
170
1
 48
1.0
171
1
  6

172
1
173
1
174
1
140
1.0
141
1.0
175
1
  7

176
1
177
1
178
1
143
1.0
179
1
  8

270
1
271
1
272
1
145
1.0
146
1.0
273
1
  9

274
1
275
1
276
1
 42
1.0
 72
1
  3

 73
1
 74
1
 75
1
 94
63
  0
MLINESTYLE
  5
22
102
{ACAD_REACTORS
330
10
102
}
330
10
100
AcDbMlineStyle
  2
Standard
 70
0
  3

 62
256
 51
90.0
 52
90.0
 71
2
 49
0.5
 62
256
  6
BYLAYER
 49
-0.5
 62
256
  6
BYLAYER
  0
MLEADERSTYLE
  5
2C
102
{ACAD_REACTORS
330
F
102
}
330
F
100
AcDbMLeaderStyle
179
2
170
2
171
1
172
0
 90
2
 40
0.0
 41
0.0
173
1
 91
-1056964608
 92
-2
290
1
 42
2.0
291
1
 43
8.0
  3
Standard
 44
4.0
300

342
29
174
1
175
1
176
0
178
1
 93
-1056964608
 45
4.0
292
0
297
0
 46
4.0
 94
-1056964608
 47
1.0
 49
1.0
140
1.0
294
1
141
0.0
177
0
142
1.0
295
0
296
0
143
3.75
271
0
272
9
273
9
  0
DICTIONARY
  5
2D
330
A
100
AcDbDictionary
280
1
281
1
  3
CREATED_BY_EZDXF
350
2E
  3
WRITTEN_BY_EZDXF
350
10C
  0
DICTIONARYVAR
  5
2E
330
2D
100
DictionaryVariables
280
0
  1
1.4.4 @ 2026-09-24T06:32:06.963943+00:00
  0
DICTIONARYVAR
  5
10C
330
2D
100
DictionaryVariables
280
0
  1
1.4.4 @ 2026-09-24T06:37:26.307159+00:00
  0
ENDSEC
  0
EOF
