  0
SECTION
  2
HEADER
  9
$ACADVER
  1
AC1032
  9
$ACADMAINTVER
 90
4
  9
$DWGCODEPAGE
  3
ANSI_1252
  9
$LASTSAVEDBY
  1
ezdxf
  9
$REQUIREDVERSIONS
160
0
  9
$INSBASE
 10
0.0
 20
0.0
 30
0.0
  9
$EXTMIN
 10
1e+20
 20
1e+20
 30
1e+20
  9
$EXTMAX
 10
-1e+20
 20
-1e+20
 30
-1e+20
  9
$LIMMIN
 10
0.0
 20
0.0
  9
$LIMMAX
 10
420.0
 20
297.0
  9
$ORTHOMODE
 70
0
  9
$REGENMODE
 70
1
  9
$FILLMODE
 70
1
  9
$QTEXTMODE
 70
0
  9
$MIRRTEXT
 70
1
  9
$LTSCALE
 40
1.0
  9
$ATTMODE
 70
1
  9
$TEXTSIZE
 40
2.5
  9
$TRACEWID
 40
1.0
  9
$TEXTSTYLE
  7
Standard
  9
$CLAYER
  8
0
  9
$CELTYPE
  6
ByLayer
  9
$CECOLOR
 62
256
  9
$CELTSCALE
 40
1.0
  9
$DISPSILH
 70
0
  9
$DIMSCALE
 40
1.0
  9
$DIMASZ
 40
2.5
  9
$DIMEXO
 40
0.625
  9
$DIMDLI
 40
3.75
  9
$DIMRND
 40
0.0
  9
$DIMDLE
 40
0.0
  9
$DIMEXE
 40
1.25
  9
$DIMTP
 40
0.0
  9
$DIMTM
 40
0.0
  9
$DIMTXT
 40
2.5
  9
$DIMCEN
 40
2.5
  9
$DIMTSZ
 40
0.0
  9
$DIMTOL
 70
0
  9
$DIMLIM
 70
0
  9
$DIMTIH
 70
0
  9
$DIMTOH
 70
0
  9
$DIMSE1
 70
0
  9
$DIMSE2
 70
0
  9
$DIMTAD
 70
1
  9
$DIMZIN
 70
8
  9
$DIMBLK
  1

  9
$DIMASO
 70
1
  9
$DIMSHO
 70
1
  9
$DIMPOST
  1

  9
$DIMAPOST
  1

  9
$DIMALT
 70
0
  9
$DIMALTD
 70
3
  9
$DIMALTF
 40
0.03937007874
  9
$DIMLFAC
 40
1.0
  9
$DIMTOFL
 70
1
  9
$DIMTVP
 40
0.0
  9
$DIMTIX
 70
0
  9
$DIMSOXD
 70
0
  9
$DIMSAH
 70
0
  9
$DIMBLK1
  1

  9
$DIMBLK2
  1

  9
$DIMSTYLE
  2
ISO-25
  9
$DIMCLRD
 70
0
  9
$DIMCLRE
 70
0
  9
$DIMCLRT
 70
0
  9
$DIMTFAC
 40
1.0
  9
$DIMGAP
 40
0.625
  9
$DIMJUST
 70
0
  9
$DIMSD1
 70
0
  9
$DIMSD2
 70
0
  9
$DIMTOLJ
 70
0
  9
$DIMTZIN
 70
8
  9
$DIMALTZ
 70
0
  9
$DIMALTTZ
 70
0
  9
$DIMUPT
 70
0
  9
$DIMDEC
 70
2
  9
$DIMTDEC
 70
2
  9
$DIMALTU
 70
2
  9
$DIMALTTD
 70
3
  9
$DIMTXSTY
  7
Standard
  9
$DIMAUNIT
 70
0
  9
$DIMADEC
 70
0
  9
$DIMALTRND
 40
0.0
  9
$DIMAZIN
 70
0
  9
$DIMDSEP
 70
44
  9
$DIMATFIT
 70
3
  9
$DIMFRAC
 70
0
  9
$DIMLDRBLK
  1

  9
$DIMLUNIT
 70
2
  9
$DIMLWD
 70
-2
  9
$DIMLWE
 70
-2
  9
$DIMTMOVE
 70
0
  9
$DIMFXL
 40
1.0
  9
$DIMFXLON
 70
0
  9
$DIMJOGANG
 40
0.785398163397
  9
$DIMTFILL
 70
0
  9
$DIMTFILLCLR
 70
0
  9
$DIMARCSYM
 70
0
  9
$DIMLTYPE
  6

  9
$DIMLTEX1
  6

  9
$DIMLTEX2
  6

  9
$DIMTXTDIRECTION
 70
0
  9
$LUNITS
 70
2
  9
$LUPREC
 70
4
  9
$SKETCHINC
 40
1.0
  9
$FILLETRAD
 40
10.0
  9
$AUNITS
 70
0
  9
$AUPREC
 70
2
  9
$MENU
  1
.
  9
$ELEVATION
 40
0.0
  9
$PELEVATION
 40
0.0
  9
$THICKNESS
 40
0.0
  9
$LIMCHECK
 70
0
  9
$CHAMFERA
 40
0.0
  9
$CHAMFERB
 40
0.0
  9
$CHAMFERC
 40
0.0
  9
$CHAMFERD
 40
0.0
  9
$SKPOLY
 70
0
  9
$TDCREATE
 40
2461308.5675925924
  9
$TDUCREATE
 40
2458532.153996898
  9
$TDUPDATE
 40
2461308.5675925924
  9
$TDUUPDATE
 40
2458532.1544311
  9
$TDINDWG
 40
0.0
  9
$TDUSRTIMER
 40
0.0
  9
$USRTIMER
 70
1
  9
$ANGBASE
 50
0.0
  9
$ANGDIR
 70
0
  9
$PDMODE
 70
0
  9
$PDSIZE
 40
0.0
  9
$PLINEWID
 40
0.0
  9
$SPLFRAME
 70
0
  9
$SPLINETYPE
 70
6
  9
$SPLINESEGS
 70
8
  9
$HANDSEED
  5
2B2
  9
$SURFTAB1
 70
6
  9
$SURFTAB2
 70
6
  9
$SURFTYPE
 70
6
  9
$SURFU
 70
6
  9
$SURFV
 70
6
  9
$UCSBASE
  2

  9
$UCSNAME
  2

  9
$UCSORG
 10
0.0
 20
0.0
 30
0.0
  9
$UCSXDIR
 10
1.0
 20
0.0
 30
0.0
  9
$UCSYDIR
 10
0.0
 20
1.0
 30
0.0
  9
$UCSORTHOREF
  2

  9
$UCSORTHOVIEW
 70
0
  9
$UCSORGTOP
 10
0.0
 20
0.0
 30
0.0
  9
$UCSORGBOTTOM
 10
0.0
 20
0.0
 30
0.0
  9
$UCSORGLEFT
 10
0.0
 20
0.0
 30
0.0
  9
$UCSORGRIGHT
 10
0.0
 20
0.0
 30
0.0
  9
$UCSORGFRONT
 10
0.0
 20
0.0
 30
0.0
  9
$UCSORGBACK
 10
0.0
 20
0.0
 30
0.0
  9
$PUCSBASE
  2

  9
$PUCSNAME
  2

  9
$PUCSORG
 10
0.0
 20
0.0
 30
0.0
  9
$PUCSXDIR
 10
1.0
 20
0.0
 30
0.0
  9
$PUCSYDIR
 10
0.0
 20
1.0
 30
0.0
  9
$PUCSORTHOREF
  2

  9
$PUCSORTHOVIEW
 70
0
  9
$PUCSORGTOP
 10
0.0
 20
0.0
 30
0.0
  9
$PUCSORGBOTTOM
 10
0.0
 20
0.0
 30
0.0
  9
$PUCSORGLEFT
 10
0.0
 20
0.0
 30
0.0
  9
$PUCSORGRIGHT
 10
0.0
 20
0.0
 30
0.0
  9
$PUCSORGFRONT
 10
0.0
 20
0.0
 30
0.0
  9
$PUCSORGBACK
 10
0.0
 20
0.0
 30
0.0
  9
$USERI1
 70
0
  9
$USERI2
 70
0
  9
$USERI3
 70
0
  9
$USERI4
 70
0
  9
$USERI5
 70
0
  9
$USERR1
 40
0.0
  9
$USERR2
 40
0.0
  9
$USERR3
 40
0.0
  9
$USERR4
 40
0.0
  9
$USERR5
 40
0.0
  9
$WORLDVIEW
 70
1
  9
$SHADEDGE
 70
3
  9
$SHADEDIF
 70
70
  9
$TILEMODE
 70
1
  9
$MAXACTVP
 70
64
  9
$PINSBASE
 10
0.0
 20
0.0
 30
0.0
  9
$PLIMCHECK
 70
0
  9
$PEXTMIN
 10
1e+20
 20
1e+20
 30
1e+20
  9
$PEXTMAX
 10
-1e+20
 20
-1e+20
 30
-1e+20
  9
$PLIMMIN
 10
0.0
 20
0.0
  9
$PLIMMAX
 10
420.0
 20
297.0
  9
$UNITMODE
 70
0
  9
$VISRETAIN
 70
1
  9
$PLINEGEN
 70
0
  9
$PSLTSCALE
 70
1
  9
$TREEDEPTH
 70
3020
  9
$CMLSTYLE
  2
Standard
  9
$CMLJUST
 70
0
  9
$CMLSCALE
 40
20.0
  9
$PROXYGRAPHICS
 70
1
  9
$MEASUREMENT
 70
1
  9
$CELWEIGHT
370
-1
  9
$ENDCAPS
280
0
  9
$JOINSTYLE
280
0
  9
$LWDISPLAY
290
0
  9
$INSUNITS
 70
4
  9
$HYPERLINKBASE
  1

  9
$STYLESHEET
  1

  9
$XEDIT
290
1
  9
$CEPSNTYPE
380
0
  9
$PSTYLEMODE
290
1
  9
$FINGERPRINTGUID
  2
{47BB2D0A-EE30-4BD8-9C65-B799CA95FACC}
  9
$VERSIONGUID
  2
{5598F4D2-D6B5-401D-8EA6-9028C0B58071}
  9
$EXTNAMES
290
1
  9
$PSVPSCALE
 40
0.0
  9
$OLESTARTUP
290
0
  9
$SORTENTS
280
127
  9
$INDEXCTL
280
0
  9
$HIDETEXT
280
1
  9
$XCLIPFRAME
280
1
  9
$HALOGAP
280
0
  9
$OBSCOLOR
 70
257
  9
$OBSLTYPE
280
0
  9
$INTERSECTIONDISPLAY
280
0
  9
$INTERSECTIONCOLOR
 70
257
  9
$DIMASSOC
280
2
  9
$PROJECTNAME
  1

  9
$CAMERADISPLAY
290
0
  9
$LENSLENGTH
 40
50.0
  9
$CAMERAHEIGHT
 40
0.0
  9
$STEPSPERSEC
 40
24.0
  9
$STEPSIZE
 40
100.0
  9
$3DDWFPREC
 40
2.0
  9
$PSOLWIDTH
 40
0.005
  9
$PSOLHEIGHT
 40
0.08
  9
$LOFTANG1
 40
1.570796326795
  9
$LOFTANG2
 40
1.570796326795
  9
$LOFTMAG1
 40
0.0
  9
$LOFTMAG2
 40
0.0
  9
$LOFTPARAM
 70
7
  9
$LOFTNORMALS
280
1
  9
$LATITUDE
 40
37.795
  9
$LONGITUDE
 40
-122.394
  9
$NORTHDIRECTION
 40
0.0
  9
$TIMEZONE
 70
-8000
  9
$LIGHTGLYPHDISPLAY
280
1
  9
$TILEMODELIGHTSYNCH
280
1
  9
$CMATERIAL
347
20
  9
$SOLIDHIST
280
0
  9
$SHOWHIST
280
1
  9
$DWFFRAME
280
2
  9
$DGNFRAME
280
2
  9
$REALWORLDSCALE
290
1
  9
$INTERFERECOLOR
 62
256
  9
$CSHADOW
280
0
  9
$SHADOWPLANELOCATION
 40
0.0
  0
ENDSEC
  0
SECTION
  2
CLASSES
  0
CLASS
  1
ACDBDICTIONARYWDFLT
  2
AcDbDictionaryWithDefault
  3
ObjectDBX Classes
 90
0
 91
0
280
0
281
0
  0
CLASS
  1
SUN
  2
AcDbSun
  3
SCENEOE
 90
1153
 91
0
280
0
281
0
  0
CLASS
  1
VISUALSTYLE
  2
AcDbVisualStyle
  3
ObjectDBX Classes
 90
4095
 91
0
280
0
281
0
  0
CLASS
  1
MATERIAL
  2
AcDbMaterial
  3
ObjectDBX Classes
 90
1153
 91
0
280
0
281
0
  0
CLASS
  1
SCALE
  2
AcDbScale
  3
ObjectDBX Classes
 90
1153
 91
0
280
0
281
0
  0
CLASS
  1
TABLESTYLE
  2
AcDbTableStyle
  3
ObjectDBX Classes
 90
4095
 91
0
280
0
281
0
  0
CLASS
  1
MLEADERSTYLE
  2
AcDbMLeaderStyle
  3
ACDB_MLEADERSTYLE_CLASS
 90
4095
 91
0
280
0
281
0
  0
CLASS
  1
DICTIONARYVAR
  2
AcDbDictionaryVar
  3
ObjectDBX Classes
 90
0
 91
0
280
0
281
0
  0
CLASS
  1
CELLSTYLEMAP
  2
AcDbCellStyleMap
  3
ObjectDBX Classes
 90
1152
 91
0
280
0
281
0
  0
CLASS
  1
MENTALRAYRENDERSETTINGS
  2
AcDbMentalRayRenderSettings
  3
SCENEOE
 90
1024
 91
0
280
0
281
0
  0
CLASS
  1
ACDBDETAILVIEWSTYLE
  2
AcDbDetailViewStyle
  3
ObjectDBX Classes
 90
1025
 91
0
280
0
281
0
  0
CLASS
  1
ACDBSECTIONVIEWSTYLE
  2
AcDbSectionViewStyle
  3
ObjectDBX Classes
 90
1025
 91
0
280
0
281
0
  0
CLASS
  1
RASTERVARIABLES
  2
AcDbRasterVariables
  3
ISM
 90
0
 91
0
280
0
281
0
  0
CLASS
  1
ACDBPLACEHOLDER
  2
AcDbPlaceHolder
  3
ObjectDBX Classes
 90
0
 91
0
280
0
281
0
  0
CLASS
  1
LAYOUT
  2
AcDbLayout
  3
ObjectDBX Classes
 90
0
 91
0
280
0
281
0
  0
ENDSEC
  0
SECTION
  2
TABLES
  0
TABLE
  2
VPORT
  5
8
330
0
100
AcDbSymbolTable
 70
1
  0
VPORT
  5
23
330
8
100
AcDbSymbolTableRecord
100
AcDbViewportTableRecord
  2
*Active
 70
0
 10
0.0
 20
0.0
 11
1.0
 21
1.0
 12
0.0
 22
0.0
 13
0.0
 23
0.0
 14
0.5
 24
0.5
 15
0.5
 25
0.5
 16
0.0
 26
0.0
 36
1.0
 17
0.0
 27
0.0
 37
0.0
 40
1000.0
 41
1.34
 42
50.0
 43
0.0
 44
0.0
 50
0.0
 51
0.0
 71
0
 72
1000
 73
1
 74
3
 75
0
 76
0
 77
0
 78
0
281
0
 65
0
146
0.0
  0
ENDTAB
  0
TABLE
  2
LTYPE
  5
2
330
0
100
AcDbSymbolTable
 70
3
  0
LTYPE
  5
24
330
2
100
AcDbSymbolTableRecord
100
AcDbLinetypeTableRecord
  2
ByBlock
 70
0
  3

 72
65
 73
0
 40
0.0
  0
LTYPE
  5
25
330
2
100
AcDbSymbolTableRecord
100
AcDbLinetypeTableRecord
  2
ByLayer
 70
0
  3

 72
65
 73
0
 40
0.0
  0
LTYPE
  5
26
330
2
100
AcDbSymbolTableRecord
100
AcDbLinetypeTableRecord
  2
Continuous
 70
0
  3

 72
65
 73
0
 40
0.0
  0
ENDTAB
  0
TABLE
  2
LAYER
  5
1
330
0
100
AcDbSymbolTable
 70
4
  0
LAYER
  5
27
330
1
100
AcDbSymbolTableRecord
100
AcDbLayerTableRecord
  2
0
 70
0
 62
7
  6
Continuous
370
-3
390
13
347
21
  0
LAYER
  5
28
330
1
100
AcDbSymbolTableRecord
100
AcDbLayerTableRecord
  2
Defpoints
 70
0
 62
7
  6
Continuous
290
0
370
-3
390
13
347
21
  0
LAYER
  5
148
330
1
100
AcDbSymbolTableRecord
100
AcDbLayerTableRecord
  2
CNC
 70
0
 62
7
  6
Continuous
370
-3
390
13
347
21
  0
LAYER
  5
149
330
1
100
AcDbSymbolTableRecord
100
AcDbLayerTableRecord
  2
DIM
 70
0
 62
253
  6
Continuous
370
-3
390
13
347
21
  0
ENDTAB
  0
TABLE
  2
STYLE
  5
5
330
0
100
AcDbSymbolTable
 70
3
  0
STYLE
  5
29
330
5
100
AcDbSymbolTableRecord
100
AcDbTextStyleTableRecord
  2
Standard
 70
0
 40
0.0
 41
1.0
 50
0.0
 71
0
 42
2.5
  3
txt
  4

  0
STYLE
  5
14A
330
5
100
AcDbSymbolTableRecord
100
AcDbTextStyleTableRecord
  2
Tahoma (Input Text)
 70
0
 40
0.0
 41
1.0
 50
0.0
 71
0
 42
25.0
  3
tahoma.ttf
  4

  0
STYLE
  5
14B
330
5
100
AcDbSymbolTableRecord
100
AcDbTextStyleTableRecord
  2
Arial
 70
0
 40
0.0
 41
1.0
 50
0.0
 71
0
 42
0.2
  3
arial.ttf
  4

  0
ENDTAB
  0
TABLE
  2
VIEW
  5
7
330
0
100
AcDbSymbolTable
 70
0
  0
ENDTAB
  0
TABLE
  2
UCS
  5
6
330
0
100
AcDbSymbolTable
 70
0
  0
ENDTAB
  0
TABLE
  2
APPID
  5
3
330
0
100
AcDbSymbolTable
 70
3
  0
APPID
  5
2A
330
3
100
AcDbSymbolTableRecord
100
AcDbRegAppTableRecord
  2
ACAD
 70
0
  0
APPID
  5
14C
330
3
100
AcDbSymbolTableRecord
100
AcDbRegAppTableRecord
  2
HATCHBACKGROUNDCOLOR
 70
0
  0
APPID
  5
14D
330
3
100
AcDbSymbolTableRecord
100
AcDbRegAppTableRecord
  2
EZDXF
 70
0
  0
ENDTAB
  0
TABLE
  2
DIMSTYLE
  5
4
330
0
100
AcDbSymbolTable
 70
3
100
AcDbDimStyleTable
  0
DIMSTYLE
105
2B
330
4
100
AcDbSymbolTableRecord
100
AcDbDimStyleTableRecord
  2
Standard
 70
0
 40
1.0
 41
2.5
 42
0.625
 43
3.75
 44
1.25
 45
0.0
 46
0.0
 47
0.0
 48
0.0
 49
2.5
140
2.5
141
2.5
142
0.0
143
0.03937007874
144
1.0
145
0.0
146
1.0
147
0.625
148
0.0
 69
0
 70
0
 71
0
 72
0
 73
0
 74
0
 75
0
 76
0
 77
1
 78
8
 79
3
170
0
171
3
172
1
173
0
174
0
175
0
176
0
177
0
178
0
179
2
271
2
272
2
273
2
274
3
275
0
276
0
277
2
278
44
279
0
280
0
281
0
282
0
283
0
284
8
285
0
286
0
288
0
289
3
290
0
371
-2
372
-2
  0
DIMSTYLE
105
146
330
4
100
AcDbSymbolTableRecord
100
AcDbDimStyleTableRecord
  2
Dim-25
 70
0
 40
1.0
 41
8.0
 42
15.0
 43
3.75
 44
10.0
 45
0.0
 46
0.0
 47
0.0
 48
0.0
 49
2.5
140
25.0
141
10.0
142
0.0
143
0.03937007874016
144
1.0
145
0.0
146
1.0
147
10.0
148
0.0
 69
0
 70
0
 71
0
 72
0
 73
0
 74
0
 75
0
 76
0
 77
1
 78
8
 79
3
170
0
171
3
172
1
173
0
174
0
175
0
176
5
177
5
178
3
179
2
271
0
272
0
273
2
274
3
275
0
276
0
277
2
278
44
279
0
280
0
281
0
282
0
283
0
284
8
285
0
286
0
288
0
289
3
290
0
340
29
341
43
342
43
345
25
346
25
347
25
371
9
372
9
  0
DIMSTYLE
105
147
330
4
100
AcDbSymbolTableRecord
100
AcDbDimStyleTableRecord
  2
Dim-15
 70
0
 40
1.0
 41
5.0
 42
8.0
 43
3.75
 44
5.0
 45
0.0
 46
0.0
 47
0.0
 48
0.0
 49
2.5
140
15.0
141
10.0
142
0.0
143
0.03937007874016
144
1.0
145
0.0
146
1.0
147
5.0
148
0.0
 69
0
 70
0
 71
0
 72
0
 73
0
 74
0
 75
0
 76
0
 77
1
 78
8
 79
3
170
0
171
3
172
1
173
0
174
0
175
0
176
5
177
5
178
3
179
2
271
0
272
0
273
2
274
3
275
0
276
0
277
2
278
44
279
0
280
0
281
0
282
0
283
0
284
8
285
0
286
0
288
0
289
3
290
0
340
29
341
43
342
43
345
25
346
25
347
25
371
9
372
9
  0
ENDTAB
  0
TABLE
  2
BLOCK_RECORD
  5
9
330
0
100
AcDbSymbolTable
 70
30
  0
BLOCK_RECORD
  5
17
330
9
100
AcDbSymbolTableRecord
100
AcDbBlockTableRecord
  2
*Model_Space
340
1A
 70
0
280
1
281
0
  0
BLOCK_RECORD
  5
1B
330
9
100
AcDbSymbolTableRecord
100
AcDbBlockTableRecord
  2
*Paper_Space
340
1E
 70
0
280
1
281
0
  0
BLOCK_RECORD
  5
43
330
9
100
AcDbSymbolTableRecord
100
AcDbBlockTableRecord
  2
_Oblique
340
0
 70
0
280
1
281
0
  0
BLOCK_RECORD
  5
113
330
9
100
AcDbSymbolTableRecord
100
AcDbBlockTableRecord
  2
khungtenAsean2
340
0
 70
0
280
1
281
0
  0
BLOCK_RECORD
  5
137
330
9
100
AcDbSymbolTableRecord
100
AcDbBlockTableRecord
  2
f3daunguoc
340
0
 70
0
280
1
281
0
  0
BLOCK_RECORD
  5
13B
330
9
100
AcDbSymbolTableRecord
100
AcDbBlockTableRecord
  2
f2dauxuoi
340
0
 70
0
280
1
281
0
  0
BLOCK_RECORD
  5
13F
330
9
100
AcDbSymbolTableRecord
100
AcDbBlockTableRecord
  2
ovan8.5x20
340
0
 70
0
280
1
281
0
  0
BLOCK_RECORD
  5
190
330
9
100
AcDbSymbolTableRecord
100
AcDbBlockTableRecord
  2
*D1
340
0
 70
0
280
1
281
0
  0
BLOCK_RECORD
  5
19C
330
9
100
AcDbSymbolTableRecord
100
AcDbBlockTableRecord
  2
*D2
340
0
 70
0
280
1
281
0
  0
BLOCK_RECORD
  5
1A8
330
9
100
AcDbSymbolTableRecord
100
AcDbBlockTableRecord
  2
*D3
340
0
 70
0
280
1
281
0
  0
BLOCK_RECORD
  5
1B4
330
9
100
AcDbSymbolTableRecord
100
AcDbBlockTableRecord
  2
*D4
340
0
 70
0
280
1
281
0
  0
BLOCK_RECORD
  5
1C2
330
9
100
AcDbSymbolTableRecord
100
AcDbBlockTableRecord
  2
*D5
340
0
 70
0
280
1
281
0
  0
BLOCK_RECORD
  5
1CE
330
9
100
AcDbSymbolTableRecord
100
AcDbBlockTableRecord
  2
*D6
340
0
 70
0
280
1
281
0
  0
BLOCK_RECORD
  5
1DA
330
9
100
AcDbSymbolTableRecord
100
AcDbBlockTableRecord
  2
*D7
340
0
 70
0
280
1
281
0
  0
BLOCK_RECORD
  5
1E6
330
9
100
AcDbSymbolTableRecord
100
AcDbBlockTableRecord
  2
*D8
340
0
 70
0
280
1
281
0
  0
BLOCK_RECORD
  5
1F4
330
9
100
AcDbSymbolTableRecord
100
AcDbBlockTableRecord
  2
*D9
340
0
 70
0
280
1
281
0
  0
BLOCK_RECORD
  5
202
330
9
100
AcDbSymbolTableRecord
100
AcDbBlockTableRecord
  2
*D10
340
0
 70
0
280
1
281
0
  0
BLOCK_RECORD
  5
210
330
9
100
AcDbSymbolTableRecord
100
AcDbBlockTableRecord
  2
*D11
340
0
 70
0
280
1
281
0
  0
BLOCK_RECORD
  5
21C
330
9
100
AcDbSymbolTableRecord
100
AcDbBlockTableRecord
  2
*D12
340
0
 70
0
280
1
281
0
  0
BLOCK_RECORD
  5
228
330
9
100
AcDbSymbolTableRecord
100
AcDbBlockTableRecord
  2
*D13
340
0
 70
0
280
1
281
0
  0
BLOCK_RECORD
  5
234
330
9
100
AcDbSymbolTableRecord
100
AcDbBlockTableRecord
  2
*D14
340
0
 70
0
280
1
281
0
  0
BLOCK_RECORD
  5
240
330
9
100
AcDbSymbolTableRecord
100
AcDbBlockTableRecord
  2
*D15
340
0
 70
0
280
1
281
0
  0
BLOCK_RECORD
  5
24C
330
9
100
AcDbSymbolTableRecord
100
AcDbBlockTableRecord
  2
*D16
340
0
 70
0
280
1
281
0
  0
BLOCK_RECORD
  5
259
330
9
100
AcDbSymbolTableRecord
100
AcDbBlockTableRecord
  2
*D17
340
0
 70
0
280
1
281
0
  0
BLOCK_RECORD
  5
266
330
9
100
AcDbSymbolTableRecord
100
AcDbBlockTableRecord
  2
*D18
340
0
 70
0
280
1
281
0
  0
BLOCK_RECORD
  5
274
330
9
100
AcDbSymbolTableRecord
100
AcDbBlockTableRecord
  2
*D19
340
0
 70
0
280
1
281
0
  0
BLOCK_RECORD
  5
280
330
9
100
AcDbSymbolTableRecord
100
AcDbBlockTableRecord
  2
*D20
340
0
 70
0
280
1
281
0
  0
BLOCK_RECORD
  5
28C
330
9
100
AcDbSymbolTableRecord
100
AcDbBlockTableRecord
  2
*D21
340
0
 70
0
280
1
281
0
  0
BLOCK_RECORD
  5
298
330
9
100
AcDbSymbolTableRecord
100
AcDbBlockTableRecord
  2
*D22
340
0
 70
0
280
1
281
0
  0
BLOCK_RECORD
  5
2A5
330
9
100
AcDbSymbolTableRecord
100
AcDbBlockTableRecord
  2
*D23
340
0
 70
0
280
1
281
0
  0
ENDTAB
  0
ENDSEC
  0
SECTION
  2
BLOCKS
  0
BLOCK
  5
18
330
17
100
AcDbEntity
  8
0
100
AcDbBlockBegin
  2
*Model_Space
 70
0
 10
0.0
 20
0.0
 30
0.0
  3
*Model_Space
  1

  0
ENDBLK
  5
19
330
17
100
AcDbEntity
  8
0
100
AcDbBlockEnd
  0
BLOCK
  5
1C
330
1B
100
AcDbEntity
  8
0
100
AcDbBlockBegin
  2
*Paper_Space
 70
0
 10
0.0
 20
0.0
 30
0.0
  3
*Paper_Space
  1

  0
ENDBLK
  5
1D
330
1B
100
AcDbEntity
  8
0
100
AcDbBlockEnd
  0
BLOCK
  5
44
330
43
100
AcDbEntity
  8
0
100
AcDbBlockBegin
  2
_Oblique
 70
0
 10
0.0
 20
0.0
 30
0.0
  3
_Oblique
  1

  0
LINE
  5
46
330
43
100
AcDbEntity
  8
0
  6
ByBlock
 62
0
370
-2
100
AcDbLine
 10
-0.5
 20
-0.5
 30
0.0
 11
0.5
 21
0.5
 31
0.0
  0
ENDBLK
  5
45
330
43
100
AcDbEntity
  8
0
100
AcDbBlockEnd
  0
BLOCK
  5
114
330
113
100
AcDbEntity
  8
0
100
AcDbBlockBegin
  2
khungtenAsean2
 70
2
 10
0.0
 20
0.0
 30
0.0
  3
khungtenAsean2
  1

  0
LWPOLYLINE
  5
116
330
113
100
AcDbEntity
  8
0
 62
7
100
AcDbPolyline
 90
4
 70
1
 10
0.0
 20
0.0
 10
2970.000000000422
 20
0.0
 10
2970.000000000422
 20
-2100.00000000032
 10
0.0
 20
-2100.00000000032
  0
LINE
  5
117
330
113
100
AcDbEntity
  8
0
 62
7
100
AcDbLine
 10
2020.0
 20
-2040.00000000032
 30
0.0
 11
0.0
 21
-2040.00000000032
 31
0.0
  0
LINE
  5
118
330
113
100
AcDbEntity
  8
0
 62
7
100
AcDbLine
 10
2970.000000000422
 20
-1980.00000000032
 30
0.0
 11
0.0
 21
-1980.00000000032
 31
0.0
  0
LINE
  5
119
330
113
100
AcDbEntity
  8
0
 62
7
100
AcDbLine
 10
320.0
 20
-1980.00000000032
 30
0.0
 11
320.0
 21
-2100.00000000032
 31
0.0
  0
LINE
  5
11A
330
113
100
AcDbEntity
  8
0
 62
7
100
AcDbLine
 10
890.0
 20
-1980.00000000032
 30
0.0
 11
890.0
 21
-2100.00000000032
 31
0.0
  0
LINE
  5
11B
330
113
100
AcDbEntity
  8
0
 62
7
100
AcDbLine
 10
1680.0
 20
-1980.00000000032
 30
0.0
 11
1680.0
 21
-2100.00000000032
 31
0.0
  0
LINE
  5
11C
330
113
100
AcDbEntity
  8
0
 62
7
100
AcDbLine
 10
2020.0
 20
-1980.00000000032
 30
0.0
 11
2020.0
 21
-2100.00000000032
 31
0.0
  0
LINE
  5
11D
330
113
100
AcDbEntity
  8
0
 62
7
100
AcDbLine
 10
2860.000000000422
 20
-1980.00000000032
 30
0.0
 11
2860.000000000422
 21
-2100.00000000032
 31
0.0
  0
MTEXT
  5
11E
330
113
100
AcDbEntity
  8
0
 62
2
100
AcDbMText
 10
0.0
 20
-2010.00000000032
 30
0.0
 40
20.0
 41
917.6339389950801
 46
60.00000000000113
 71
4
 72
5
  1
  Thiết kế :
  7
Arial
  0
MTEXT
  5
11F
330
113
100
AcDbEntity
  8
0
 62
2
100
AcDbMText
 10
0.0
 20
-2070.00000000032
 30
0.0
 40
20.0
 41
917.6339389950801
 46
60.00000000000113
 71
4
 72
5
  1
  CNC :
  7
Arial
  0
MTEXT
  5
120
330
113
100
AcDbEntity
  8
0
 62
2
100
AcDbMText
 10
320.0
 20
-2010.00000000032
 30
0.0
 40
20.0
 41
917.6339389950801
 46
60.00000000000113
 71
4
 72
5
  1
  Khách hàng :
  7
Arial
  0
MTEXT
  5
121
330
113
100
AcDbEntity
  8
0
 62
2
100
AcDbMText
 10
320.0
 20
-2070.00000000032
 30
0.0
 40
20.0
 41
917.6339389950801
 46
60.00000000000113
 71
4
 72
5
  1
  Giao hàng :
  7
Arial
  0
MTEXT
  5
122
330
113
100
AcDbEntity
  8
0
 62
2
100
AcDbMText
 10
890.0
 20
-2010.00000000032
 30
0.0
 40
20.0
 41
917.6339389950801
 46
60.00000000000113
 71
4
 72
5
  1
  Tên sản phẩm :
  7
Arial
  0
MTEXT
  5
123
330
113
100
AcDbEntity
  8
0
 62
2
100
AcDbMText
 10
890.0
 20
-2070.00000000032
 30
0.0
 40
20.0
 41
917.6339389950801
 46
60.00000000000113
 71
4
 72
5
  1
  Kích thước :
  7
Arial
  0
MTEXT
  5
124
330
113
100
AcDbEntity
  8
0
 62
2
100
AcDbMText
 10
1680.0
 20
-2010.00000000032
 30
0.0
 40
20.0
 41
917.6339389950801
 46
60.00000000000113
 71
4
 72
5
  1
  Số lượng :
  7
Arial
  0
MTEXT
  5
125
330
113
100
AcDbEntity
  8
0
 62
2
100
AcDbMText
 10
1680.0
 20
-2070.00000000032
 30
0.0
 40
20.0
 41
917.6339389950801
 46
60.00000000000113
 71
4
 72
5
  1
  Loại tôn :
  7
Arial
  0
MTEXT
  5
126
330
113
100
AcDbEntity
  8
0
 62
2
100
AcDbMText
 10
2074.15528161102
 20
-2040.00000000032
 30
0.0
 40
20.0
 41
108.3105632220314
 46
120.0000000000011
 71
5
 72
5
  1
Thông\Ptin :
  7
Arial
  0
MTEXT
  5
127
330
113
100
AcDbEntity
  8
0
 62
2
100
AcDbMText
 10
2915.000000000422
 20
-2010.00000000032
 30
0.0
 40
20.0
 41
110.0000000000065
 46
60.00000000000113
 71
5
 72
5
  1
Tờ
  7
Arial
  0
LINE
  5
128
330
113
100
AcDbEntity
  8
0
 62
7
100
AcDbLine
 10
2128.310563222025
 20
-2005.00000000032
 30
0.0
 11
2128.310563222025
 21
-2075.00000000032
 31
0.0
  0
MTEXT
  5
129
330
113
100
AcDbEntity
  8
0
 62
2
100
AcDbMText
 10
1382.285678836575
 20
-2070.00000000032
 30
0.0
 40
20.0
 41
917.6339389950801
 46
60.00000000000113
 71
4
 72
5
  1
mm
  7
Arial
  0
MTEXT
  5
12A
330
113
100
AcDbEntity
  8
0
 62
2
100
AcDbMText
 10
1947.610064813329
 20
-2010.00000000032
 30
0.0
 40
20.0
 41
917.6339389950801
 46
60.00000000000113
 71
4
 72
5
  1
cái
  7
Arial
  0
MTEXT
  5
12B
330
113
100
AcDbEntity
  8
0
 62
2
100
AcDbMText
 10
1936.880410494836
 20
-2070.00000000032
 30
0.0
 40
20.0
 41
917.6339389950801
 46
60.00000000000113
 71
4
 72
5
  1
mm
  7
Arial
  0
ATTDEF
  5
12C
330
113
100
AcDbEntity
  8
0
 62
1
100
AcDbText
 10
2883.764212945627
 20
-2067.347800104843
 30
0.0
 40
25.0
  1
......
  7
Tahoma (Input Text)
 72
1
 11
2914.993225705868
 21
-2067.347800104843
 31
0.0
100
AcDbAttributeDefinition
  3
Số trang
  2
#11
 70
8
 71
1
 72
0
 11
2914.993225705868
 21
-2067.347800104843
 31
0.0
  0
ATTDEF
  5
12D
330
113
100
AcDbEntity
  8
0
 62
1
100
AcDbText
 10
2146.716977487464
 20
-2021.275211692002
 30
0.0
 40
25.0
  1
......
  7
Tahoma (Input Text)
100
AcDbAttributeDefinition
  3
Thông tin 1
  2
#09
 70
8
 71
1
 72
0
  0
ATTDEF
  5
12E
330
113
100
AcDbEntity
  8
0
 62
1
100
AcDbText
 10
2146.716977487464
 20
-2081.275211692002
 30
0.0
 40
25.0
  1
......
  7
Tahoma (Input Text)
100
AcDbAttributeDefinition
  3
Thông tin 2
  2
#10
 70
8
 71
1
 72
0
  0
ATTDEF
  5
12F
330
113
100
AcDbEntity
  8
0
 62
1
100
AcDbText
 10
1817.447765733334
 20
-2081.275211692002
 30
0.0
 40
25.0
  1
......
  7
Tahoma (Input Text)
100
AcDbAttributeDefinition
  3
Loại tôn
  2
#08
 70
8
 71
1
 72
0
  0
ATTDEF
  5
130
330
113
100
AcDbEntity
  8
0
 62
1
100
AcDbText
 10
1834.68151032555
 20
-2021.275211692002
 30
0.0
 40
25.0
  1
......
  7
Tahoma (Input Text)
100
AcDbAttributeDefinition
  3
Số lượng
  2
#07
 70
8
 71
1
 72
0
  0
ATTDEF
  5
131
330
113
100
AcDbEntity
  8
0
 62
1
100
AcDbText
 10
1065.330889143646
 20
-2081.275211692002
 30
0.0
 40
25.0
  1
......
  7
Tahoma (Input Text)
100
AcDbAttributeDefinition
  3
Kích thước
  2
#06
 70
8
 71
1
 72
0
  0
ATTDEF
  5
132
330
113
100
AcDbEntity
  8
0
 62
1
100
AcDbText
 10
1106.628177122154
 20
-2021.275211692002
 30
0.0
 40
25.0
  1
......
  7
Tahoma (Input Text)
100
AcDbAttributeDefinition
  3
Tên s.phẩm
  2
#05
 70
8
 71
1
 72
0
  0
ATTDEF
  5
133
330
113
100
AcDbEntity
  8
0
 62
1
100
AcDbText
 10
486.1050270054984
 20
-2081.275211692002
 30
0.0
 40
25.0
  1
......
  7
Tahoma (Input Text)
100
AcDbAttributeDefinition
  3
Giao hàng
  2
#04
 70
8
 71
1
 72
0
  0
ATTDEF
  5
134
330
113
100
AcDbEntity
  8
0
 62
1
100
AcDbText
 10
506.5707489467022
 20
-2019.301600489707
 30
0.0
 40
25.0
  1
......
  7
Tahoma (Input Text)
100
AcDbAttributeDefinition
  3
Khách hàng
  2
#03
 70
8
 71
1
 72
0
  0
ATTDEF
  5
135
330
113
100
AcDbEntity
  8
0
 62
1
100
AcDbText
 10
98.45672450316488
 20
-2081.275211692002
 30
0.0
 40
25.0
  1
......
  7
Tahoma (Input Text)
100
AcDbAttributeDefinition
  3
CNC
  2
#02
 70
8
 71
1
 72
0
  0
ATTDEF
  5
136
330
113
100
AcDbEntity
  8
0
 62
1
100
AcDbText
 10
137.0535078375105
 20
-2021.275211692002
 30
0.0
 40
25.0
  1
......
  7
Tahoma (Input Text)
100
AcDbAttributeDefinition
  3
Thiết kế
  2
#01
 70
8
 71
1
 72
0
  0
ENDBLK
  5
115
330
113
100
AcDbEntity
  8
0
100
AcDbBlockEnd
  0
BLOCK
  5
138
330
137
100
AcDbEntity
  8
0
100
AcDbBlockBegin
  2
f3daunguoc
 70
0
 10
0.0
 20
0.0
 30
0.0
  3
f3daunguoc
  1

  0
CIRCLE
  5
13A
330
137
100
AcDbEntity
  8
CNC
 62
2
370
-3
100
AcDbCircle
 10
0.0
 20
0.0
 30
0.0
 40
1.5
  0
ENDBLK
  5
139
330
137
100
AcDbEntity
  8
0
100
AcDbBlockEnd
  0
BLOCK
  5
13C
330
13B
100
AcDbEntity
  8
0
100
AcDbBlockBegin
  2
f2dauxuoi
 70
0
 10
0.0
 20
0.0
 30
0.0
  3
f2dauxuoi
  1

  0
CIRCLE
  5
13E
330
13B
100
AcDbEntity
  8
CNC
 62
2
370
-3
100
AcDbCircle
 10
0.0
 20
0.0
 30
0.0
 40
1.0
  0
ENDBLK
  5
13D
330
13B
100
AcDbEntity
  8
0
100
AcDbBlockEnd
  0
BLOCK
  5
140
330
13F
100
AcDbEntity
  8
0
100
AcDbBlockBegin
  2
ovan8.5x20
 70
0
 10
0.0
 20
0.0
 30
0.0
  3
ovan8.5x20
  1

  0
ARC
  5
142
330
13F
100
AcDbEntity
  8
CNC
 62
2
370
-3
100
AcDbCircle
 10
-5.750000000007275
 20
0.0
 30
0.0
 40
4.25
100
AcDbArc
 50
90.0
 51
270.0
  0
ARC
  5
143
330
13F
100
AcDbEntity
  8
CNC
 62
2
370
-3
100
AcDbCircle
 10
5.749999999992724
 20
0.0
 30
0.0
 40
4.25
100
AcDbArc
 50
270.0
 51
90.0
  0
LINE
  5
144
330
13F
100
AcDbEntity
  8
CNC
 62
2
370
-3
100
AcDbLine
 10
5.749999999992724
 20
4.25
 30
0.0
 11
-5.750000000007275
 21
4.25
 31
0.0
  0
LINE
  5
145
330
13F
100
AcDbEntity
  8
CNC
 62
2
370
-3
100
AcDbLine
 10
-5.750000000007275
 20
-4.25
 30
0.0
 11
5.749999999992724
 21
-4.25
 31
0.0
  0
ENDBLK
  5
141
330
13F
100
AcDbEntity
  8
0
100
AcDbBlockEnd
  0
BLOCK
  5
191
330
190
100
AcDbEntity
  8
0
100
AcDbBlockBegin
  2
*D1
 70
1
 10
0.0
 20
0.0
 30
0.0
  3
*D1
  1

  0
LINE
  5
193
330
190
100
AcDbEntity
  8
DIM
 62
5
370
9
440
16777216
100
AcDbLine
 10
384.0141734429926
 20
2778.55806841955
 30
0.0
 11
446.20412833080627
 21
2778.55806841955
 31
0.0
  0
LINE
  5
194
330
190
100
AcDbEntity
  8
DIM
 62
5
370
9
440
16777216
100
AcDbLine
 10
384.0141734429926
 20
1383.5580684195465
 30
0.0
 11
446.20412833080627
 21
1383.5580684195465
 31
0.0
  0
LINE
  5
195
330
190
100
AcDbEntity
  8
DIM
 62
5
370
9
440
16777216
100
AcDbLine
 10
436.20412833080627
 20
2778.55806841955
 30
0.0
 11
436.20412833080627
 21
1383.5580684195465
 31
0.0
  0
LINE
  5
196
330
190
100
AcDbEntity
  8
0
  6
ByBlock
 62
0
370
-2
100
AcDbLine
 10
440.20412833080627
 20
2774.55806841955
 30
0.0
 11
432.20412833080627
 21
2782.55806841955
 31
0.0
  0
LINE
  5
197
330
190
100
AcDbEntity
  8
0
  6
ByBlock
 62
0
370
-2
100
AcDbLine
 10
432.20412833080627
 20
1387.5580684195465
 30
0.0
 11
440.20412833080627
 21
1379.5580684195465
 31
0.0
  0
MTEXT
  5
198
330
190
100
AcDbEntity
  8
DIM
 62
3
440
16777216
100
AcDbMText
 10
413.4312770348042
 20
2081.0580684195593
 30
0.0
 40
25.0
 41
0.0
 46
0.0
 71
5
  1
1395
 11
1e-16
 21
1.0
 31
0.0
  0
POINT
  5
199
330
190
100
AcDbEntity
  8
Defpoints
 62
0
440
16777216
100
AcDbPoint
 10
369.0141734429926
 20
2778.55806841955
 30
0.0
  0
POINT
  5
19A
330
190
100
AcDbEntity
  8
Defpoints
 62
0
440
16777216
100
AcDbPoint
 10
369.0141734429926
 20
1383.5580684195465
 30
0.0
  0
POINT
  5
19B
330
190
100
AcDbEntity
  8
Defpoints
 62
0
440
16777216
100
AcDbPoint
 10
436.20412833080627
 20
1383.5580684195465
 30
0.0
  0
ENDBLK
  5
192
330
190
100
AcDbEntity
  8
0
100
AcDbBlockEnd
  0
BLOCK
  5
19D
330
19C
100
AcDbEntity
  8
0
100
AcDbBlockBegin
  2
*D2
 70
1
 10
0.0
 20
0.0
 30
0.0
  3
*D2
  1

  0
LINE
  5
19F
330
19C
100
AcDbEntity
  8
DIM
 62
5
370
9
440
16777216
100
AcDbLine
 10
274.0141734429926
 20
1368.5580684195465
 30
0.0
 11
274.0141734429926
 21
1312.3610035816982
 31
0.0
  0
LINE
  5
1A0
330
19C
100
AcDbEntity
  8
DIM
 62
5
370
9
440
16777216
100
AcDbLine
 10
369.0141734429926
 20
1368.5580684195465
 30
0.0
 11
369.0141734429926
 21
1312.3610035816982
 31
0.0
  0
LINE
  5
1A1
330
19C
100
AcDbEntity
  8
DIM
 62
5
370
9
440
16777216
100
AcDbLine
 10
274.0141734429926
 20
1322.3610035816964
 30
0.0
 11
369.0141734429926
 21
1322.3610035816964
 31
0.0
  0
LINE
  5
1A2
330
19C
100
AcDbEntity
  8
0
  6
ByBlock
 62
0
370
-2
100
AcDbLine
 10
278.0141734429926
 20
1326.3610035816964
 30
0.0
 11
270.0141734429926
 21
1318.3610035816964
 31
0.0
  0
LINE
  5
1A3
330
19C
100
AcDbEntity
  8
0
  6
ByBlock
 62
0
370
-2
100
AcDbLine
 10
365.0141734429926
 20
1318.3610035816964
 30
0.0
 11
373.0141734429926
 21
1326.3610035816964
 31
0.0
  0
MTEXT
  5
1A4
330
19C
100
AcDbEntity
  8
DIM
 62
3
440
16777216
100
AcDbMText
 10
321.5141734429926
 20
1345.1253282747402
 30
0.0
 40
25.0
 41
0.0
 46
0.0
 71
5
  1
95
  0
POINT
  5
1A5
330
19C
100
AcDbEntity
  8
Defpoints
 62
0
440
16777216
100
AcDbPoint
 10
274.0141734429926
 20
1383.5580684195465
 30
0.0
  0
POINT
  5
1A6
330
19C
100
AcDbEntity
  8
Defpoints
 62
0
440
16777216
100
AcDbPoint
 10
369.0141734429926
 20
1383.5580684195465
 30
0.0
  0
POINT
  5
1A7
330
19C
100
AcDbEntity
  8
Defpoints
 62
0
440
16777216
100
AcDbPoint
 10
369.0141734429926
 20
1322.3610035816964
 30
0.0
  0
ENDBLK
  5
19E
330
19C
100
AcDbEntity
  8
0
100
AcDbBlockEnd
  0
BLOCK
  5
1A9
330
1A8
100
AcDbEntity
  8
0
100
AcDbBlockBegin
  2
*D3
 70
1
 10
0.0
 20
0.0
 30
0.0
  3
*D3
  1

  0
LINE
  5
1AB
330
1A8
100
AcDbEntity
  8
DIM
 62
5
370
9
440
16777216
100
AcDbLine
 10
289.0141734429926
 20
2793.5580684195393
 30
0.0
 11
289.0141734429926
 21
2833.0753512476094
 31
0.0
  0
LINE
  5
1AC
330
1A8
100
AcDbEntity
  8
DIM
 62
5
370
9
440
16777216
100
AcDbLine
 10
354.0141734429926
 20
2793.5580684195393
 30
0.0
 11
354.0141734429926
 21
2833.0753512476094
 31
0.0
  0
LINE
  5
1AD
330
1A8
100
AcDbEntity
  8
DIM
 62
5
370
9
440
16777216
100
AcDbLine
 10
289.0141734429926
 20
2823.0753512476094
 30
0.0
 11
354.0141734429926
 21
2823.0753512476094
 31
0.0
  0
LINE
  5
1AE
330
1A8
100
AcDbEntity
  8
0
  6
ByBlock
 62
0
370
-2
100
AcDbLine
 10
293.0141734429926
 20
2827.0753512476094
 30
0.0
 11
285.0141734429926
 21
2819.0753512476094
 31
0.0
  0
LINE
  5
1AF
330
1A8
100
AcDbEntity
  8
0
  6
ByBlock
 62
0
370
-2
100
AcDbLine
 10
350.0141734429926
 20
2819.0753512476094
 30
0.0
 11
358.0141734429926
 21
2827.0753512476094
 31
0.0
  0
MTEXT
  5
1B0
330
1A8
100
AcDbEntity
  8
DIM
 62
3
440
16777216
100
AcDbMText
 10
321.5141734429926
 20
2845.8396759406496
 30
0.0
 40
25.0
 41
0.0
 46
0.0
 71
5
  1
65
  0
POINT
  5
1B1
330
1A8
100
AcDbEntity
  8
Defpoints
 62
0
440
16777216
100
AcDbPoint
 10
289.0141734429926
 20
2778.55806841955
 30
0.0
  0
POINT
  5
1B2
330
1A8
100
AcDbEntity
  8
Defpoints
 62
0
440
16777216
100
AcDbPoint
 10
354.0141734429926
 20
2778.55806841955
 30
0.0
  0
POINT
  5
1B3
330
1A8
100
AcDbEntity
  8
Defpoints
 62
0
440
16777216
100
AcDbPoint
 10
354.0141734429926
 20
2823.0753512476094
 30
0.0
  0
ENDBLK
  5
1AA
330
1A8
100
AcDbEntity
  8
0
100
AcDbBlockEnd
  0
BLOCK
  5
1B5
330
1B4
100
AcDbEntity
  8
0
100
AcDbBlockBegin
  2
*D4
 70
1
 10
0.0
 20
0.0
 30
0.0
  3
*D4
  1

  0
LINE
  5
1B7
330
1B4
100
AcDbEntity
  8
DIM
 62
5
370
9
440
16777216
100
AcDbLine
 10
354.0141734429926
 20
2793.5580684195393
 30
0.0
 11
354.0141734429926
 21
2833.0753512476094
 31
0.0
  0
LINE
  5
1B8
330
1B4
100
AcDbEntity
  8
DIM
 62
5
370
9
440
16777216
100
AcDbLine
 10
369.0141734429926
 20
2793.5580684195393
 30
0.0
 11
369.0141734429926
 21
2833.0753512476094
 31
0.0
  0
LINE
  5
1B9
330
1B4
100
AcDbEntity
  8
DIM
 62
5
370
9
440
16777216
100
AcDbLine
 10
354.0141734429926
 20
2823.0753512476094
 30
0.0
 11
346.0141734429926
 21
2823.0753512476094
 31
0.0
  0
LINE
  5
1BA
330
1B4
100
AcDbEntity
  8
DIM
 62
5
370
9
440
16777216
100
AcDbLine
 10
369.0141734429926
 20
2823.0753512476094
 30
0.0
 11
438.6601488863962
 21
2823.0753512476094
 31
0.0
  0
LINE
  5
1BB
330
1B4
100
AcDbEntity
  8
DIM
 62
5
370
9
440
16777216
100
AcDbLine
 10
354.0141734429926
 20
2823.0753512476094
 30
0.0
 11
369.0141734429926
 21
2823.0753512476094
 31
0.0
  0
LINE
  5
1BC
330
1B4
100
AcDbEntity
  8
0
  6
ByBlock
 62
0
370
-2
100
AcDbLine
 10
350.0141734429926
 20
2819.0753512476094
 30
0.0
 11
358.0141734429926
 21
2827.0753512476094
 31
0.0
  0
LINE
  5
1BD
330
1B4
100
AcDbEntity
  8
0
  6
ByBlock
 62
0
370
-2
100
AcDbLine
 10
373.0141734429926
 20
2827.0753512476094
 30
0.0
 11
365.0141734429926
 21
2819.0753512476094
 31
0.0
  0
MTEXT
  5
1BE
330
1B4
100
AcDbEntity
  8
DIM
 62
3
440
16777216
100
AcDbMText
 10
411.8371611647017
 20
2845.8396759406496
 30
0.0
 40
25.0
 41
0.0
 46
0.0
 71
5
  1
15
  0
POINT
  5
1BF
330
1B4
100
AcDbEntity
  8
Defpoints
 62
0
440
16777216
100
AcDbPoint
 10
354.0141734429926
 20
2778.55806841955
 30
0.0
  0
POINT
  5
1C0
330
1B4
100
AcDbEntity
  8
Defpoints
 62
0
440
16777216
100
AcDbPoint
 10
369.0141734429926
 20
2778.55806841955
 30
0.0
  0
POINT
  5
1C1
330
1B4
100
AcDbEntity
  8
Defpoints
 62
0
440
16777216
100
AcDbPoint
 10
369.0141734429926
 20
2823.0753512476094
 30
0.0
  0
ENDBLK
  5
1B6
330
1B4
100
AcDbEntity
  8
0
100
AcDbBlockEnd
  0
BLOCK
  5
1C3
330
1C2
100
AcDbEntity
  8
0
100
AcDbBlockBegin
  2
*D5
 70
1
 10
0.0
 20
0.0
 30
0.0
  3
*D5
  1

  0
LINE
  5
1C5
330
1C2
100
AcDbEntity
  8
DIM
 62
5
370
9
440
16777216
100
AcDbLine
 10
700.6636226628034
 20
2778.55806841955
 30
0.0
 11
762.8535775506025
 21
2778.55806841955
 31
0.0
  0
LINE
  5
1C6
330
1C2
100
AcDbEntity
  8
DIM
 62
5
370
9
440
16777216
100
AcDbLine
 10
700.6636226628034
 20
1383.5580684195465
 30
0.0
 11
762.8535775506025
 21
1383.5580684195465
 31
0.0
  0
LINE
  5
1C7
330
1C2
100
AcDbEntity
  8
DIM
 62
5
370
9
440
16777216
100
AcDbLine
 10
752.8535775506025
 20
2778.55806841955
 30
0.0
 11
752.8535775506025
 21
1383.5580684195465
 31
0.0
  0
LINE
  5
1C8
330
1C2
100
AcDbEntity
  8
0
  6
ByBlock
 62
0
370
-2
100
AcDbLine
 10
756.8535775506025
 20
2774.55806841955
 30
0.0
 11
748.8535775506025
 21
2782.55806841955
 31
0.0
  0
LINE
  5
1C9
330
1C2
100
AcDbEntity
  8
0
  6
ByBlock
 62
0
370
-2
100
AcDbLine
 10
748.8535775506025
 20
1387.5580684195465
 30
0.0
 11
756.8535775506025
 21
1379.5580684195465
 31
0.0
  0
MTEXT
  5
1CA
330
1C2
100
AcDbEntity
  8
DIM
 62
3
440
16777216
100
AcDbMText
 10
730.0807262544986
 20
2081.0580684195593
 30
0.0
 40
25.0
 41
0.0
 46
0.0
 71
5
  1
1395
 11
1e-16
 21
1.0
 31
0.0
  0
POINT
  5
1CB
330
1C2
100
AcDbEntity
  8
Defpoints
 62
0
440
16777216
100
AcDbPoint
 10
685.6636226628034
 20
2778.55806841955
 30
0.0
  0
POINT
  5
1CC
330
1C2
100
AcDbEntity
  8
Defpoints
 62
0
440
16777216
100
AcDbPoint
 10
685.6636226628034
 20
1383.5580684195465
 30
0.0
  0
POINT
  5
1CD
330
1C2
100
AcDbEntity
  8
Defpoints
 62
0
440
16777216
100
AcDbPoint
 10
752.8535775506025
 20
1383.5580684195465
 30
0.0
  0
ENDBLK
  5
1C4
330
1C2
100
AcDbEntity
  8
0
100
AcDbBlockEnd
  0
BLOCK
  5
1CF
330
1CE
100
AcDbEntity
  8
0
100
AcDbBlockBegin
  2
*D6
 70
1
 10
0.0
 20
0.0
 30
0.0
  3
*D6
  1

  0
LINE
  5
1D1
330
1CE
100
AcDbEntity
  8
DIM
 62
5
370
9
440
16777216
100
AcDbLine
 10
590.6636226628034
 20
1368.5580684195465
 30
0.0
 11
590.6636226628034
 21
1312.3610035816982
 31
0.0
  0
LINE
  5
1D2
330
1CE
100
AcDbEntity
  8
DIM
 62
5
370
9
440
16777216
100
AcDbLine
 10
685.6636226628034
 20
1368.5580684195465
 30
0.0
 11
685.6636226628034
 21
1312.3610035816982
 31
0.0
  0
LINE
  5
1D3
330
1CE
100
AcDbEntity
  8
DIM
 62
5
370
9
440
16777216
100
AcDbLine
 10
590.6636226628034
 20
1322.3610035816964
 30
0.0
 11
685.6636226628034
 21
1322.3610035816964
 31
0.0
  0
LINE
  5
1D4
330
1CE
100
AcDbEntity
  8
0
  6
ByBlock
 62
0
370
-2
100
AcDbLine
 10
594.6636226628034
 20
1326.3610035816964
 30
0.0
 11
586.6636226628034
 21
1318.3610035816964
 31
0.0
  0
LINE
  5
1D5
330
1CE
100
AcDbEntity
  8
0
  6
ByBlock
 62
0
370
-2
100
AcDbLine
 10
681.6636226628034
 20
1318.3610035816964
 30
0.0
 11
689.6636226628034
 21
1326.3610035816964
 31
0.0
  0
MTEXT
  5
1D6
330
1CE
100
AcDbEntity
  8
DIM
 62
3
440
16777216
100
AcDbMText
 10
638.1636226628034
 20
1345.1253282747402
 30
0.0
 40
25.0
 41
0.0
 46
0.0
 71
5
  1
95
  0
POINT
  5
1D7
330
1CE
100
AcDbEntity
  8
Defpoints
 62
0
440
16777216
100
AcDbPoint
 10
590.6636226628034
 20
1383.5580684195465
 30
0.0
  0
POINT
  5
1D8
330
1CE
100
AcDbEntity
  8
Defpoints
 62
0
440
16777216
100
AcDbPoint
 10
685.6636226628034
 20
1383.5580684195465
 30
0.0
  0
POINT
  5
1D9
330
1CE
100
AcDbEntity
  8
Defpoints
 62
0
440
16777216
100
AcDbPoint
 10
685.6636226628034
 20
1322.3610035816964
 30
0.0
  0
ENDBLK
  5
1D0
330
1CE
100
AcDbEntity
  8
0
100
AcDbBlockEnd
  0
BLOCK
  5
1DB
330
1DA
100
AcDbEntity
  8
0
100
AcDbBlockBegin
  2
*D7
 70
1
 10
0.0
 20
0.0
 30
0.0
  3
*D7
  1

  0
LINE
  5
1DD
330
1DA
100
AcDbEntity
  8
DIM
 62
5
370
9
440
16777216
100
AcDbLine
 10
605.6636226628034
 20
2793.5580684195393
 30
0.0
 11
605.6636226628034
 21
2833.0753512476094
 31
0.0
  0
LINE
  5
1DE
330
1DA
100
AcDbEntity
  8
DIM
 62
5
370
9
440
16777216
100
AcDbLine
 10
670.6636226628034
 20
2793.5580684195393
 30
0.0
 11
670.6636226628034
 21
2833.0753512476094
 31
0.0
  0
LINE
  5
1DF
330
1DA
100
AcDbEntity
  8
DIM
 62
5
370
9
440
16777216
100
AcDbLine
 10
605.6636226628034
 20
2823.0753512476094
 30
0.0
 11
670.6636226628034
 21
2823.0753512476094
 31
0.0
  0
LINE
  5
1E0
330
1DA
100
AcDbEntity
  8
0
  6
ByBlock
 62
0
370
-2
100
AcDbLine
 10
609.6636226628034
 20
2827.0753512476094
 30
0.0
 11
601.6636226628034
 21
2819.0753512476094
 31
0.0
  0
LINE
  5
1E1
330
1DA
100
AcDbEntity
  8
0
  6
ByBlock
 62
0
370
-2
100
AcDbLine
 10
666.6636226628034
 20
2819.0753512476094
 30
0.0
 11
674.6636226628034
 21
2827.0753512476094
 31
0.0
  0
MTEXT
  5
1E2
330
1DA
100
AcDbEntity
  8
DIM
 62
3
440
16777216
100
AcDbMText
 10
638.1636226628034
 20
2845.8396759406496
 30
0.0
 40
25.0
 41
0.0
 46
0.0
 71
5
  1
65
  0
POINT
  5
1E3
330
1DA
100
AcDbEntity
  8
Defpoints
 62
0
440
16777216
100
AcDbPoint
 10
605.6636226628034
 20
2778.55806841955
 30
0.0
  0
POINT
  5
1E4
330
1DA
100
AcDbEntity
  8
Defpoints
 62
0
440
16777216
100
AcDbPoint
 10
670.6636226628034
 20
2778.55806841955
 30
0.0
  0
POINT
  5
1E5
330
1DA
100
AcDbEntity
  8
Defpoints
 62
0
440
16777216
100
AcDbPoint
 10
670.6636226628034
 20
2823.0753512476094
 30
0.0
  0
ENDBLK
  5
1DC
330
1DA
100
AcDbEntity
  8
0
100
AcDbBlockEnd
  0
BLOCK
  5
1E7
330
1E6
100
AcDbEntity
  8
0
100
AcDbBlockBegin
  2
*D8
 70
1
 10
0.0
 20
0.0
 30
0.0
  3
*D8
  1

  0
LINE
  5
1E9
330
1E6
100
AcDbEntity
  8
DIM
 62
5
370
9
440
16777216
100
AcDbLine
 10
670.6636226628034
 20
2793.5580684195393
 30
0.0
 11
670.6636226628034
 21
2833.0753512476094
 31
0.0
  0
LINE
  5
1EA
330
1E6
100
AcDbEntity
  8
DIM
 62
5
370
9
440
16777216
100
AcDbLine
 10
685.6636226628034
 20
2793.5580684195393
 30
0.0
 11
685.6636226628034
 21
2833.0753512476094
 31
0.0
  0
LINE
  5
1EB
330
1E6
100
AcDbEntity
  8
DIM
 62
5
370
9
440
16777216
100
AcDbLine
 10
670.6636226628034
 20
2823.0753512476094
 30
0.0
 11
662.6636226628034
 21
2823.0753512476094
 31
0.0
  0
LINE
  5
1EC
330
1E6
100
AcDbEntity
  8
DIM
 62
5
370
9
440
16777216
100
AcDbLine
 10
685.6636226628034
 20
2823.0753512476094
 30
0.0
 11
755.3095981061924
 21
2823.0753512476094
 31
0.0
  0
LINE
  5
1ED
330
1E6
100
AcDbEntity
  8
DIM
 62
5
370
9
440
16777216
100
AcDbLine
 10
670.6636226628034
 20
2823.0753512476094
 30
0.0
 11
685.6636226628034
 21
2823.0753512476094
 31
0.0
  0
LINE
  5
1EE
330
1E6
100
AcDbEntity
  8
0
  6
ByBlock
 62
0
370
-2
100
AcDbLine
 10
666.6636226628034
 20
2819.0753512476094
 30
0.0
 11
674.6636226628034
 21
2827.0753512476094
 31
0.0
  0
LINE
  5
1EF
330
1E6
100
AcDbEntity
  8
0
  6
ByBlock
 62
0
370
-2
100
AcDbLine
 10
689.6636226628034
 20
2827.0753512476094
 30
0.0
 11
681.6636226628034
 21
2819.0753512476094
 31
0.0
  0
MTEXT
  5
1F0
330
1E6
100
AcDbEntity
  8
DIM
 62
3
440
16777216
100
AcDbMText
 10
728.4866103844979
 20
2845.8396759406496
 30
0.0
 40
25.0
 41
0.0
 46
0.0
 71
5
  1
15
  0
POINT
  5
1F1
330
1E6
100
AcDbEntity
  8
Defpoints
 62
0
440
16777216
100
AcDbPoint
 10
670.6636226628034
 20
2778.55806841955
 30
0.0
  0
POINT
  5
1F2
330
1E6
100
AcDbEntity
  8
Defpoints
 62
0
440
16777216
100
AcDbPoint
 10
685.6636226628034
 20
2778.55806841955
 30
0.0
  0
POINT
  5
1F3
330
1E6
100
AcDbEntity
  8
Defpoints
 62
0
440
16777216
100
AcDbPoint
 10
685.6636226628034
 20
2823.0753512476094
 30
0.0
  0
ENDBLK
  5
1E8
330
1E6
100
AcDbEntity
  8
0
100
AcDbBlockEnd
  0
BLOCK
  5
1F5
330
1F4
100
AcDbEntity
  8
0
100
AcDbBlockBegin
  2
*D9
 70
1
 10
0.0
 20
0.0
 30
0.0
  3
*D9
  1

  0
LINE
  5
1F7
330
1F4
100
AcDbEntity
  8
DIM
 62
5
370
9
 48
3.0
440
16777216
100
AcDbLine
 10
1539.8965973790037
 20
2745.5580684195393
 30
0.0
 11
1539.8965973790037
 21
2781.1546152597894
 31
0.0
  0
LINE
  5
1F8
330
1F4
100
AcDbEntity
  8
DIM
 62
5
370
9
 48
3.0
440
16777216
100
AcDbLine
 10
1549.8965973789018
 20
2735.5580684195393
 30
0.0
 11
1549.8965973789018
 21
2781.1546152597894
 31
0.0
  0
LINE
  5
1F9
330
1F4
100
AcDbEntity
  8
DIM
 62
5
370
9
 48
3.0
440
16777216
100
AcDbLine
 10
1539.8965973790037
 20
2771.1546152597894
 30
0.0
 11
1531.8965973789018
 21
2771.1546152597894
 31
0.0
  0
LINE
  5
1FA
330
1F4
100
AcDbEntity
  8
DIM
 62
5
370
9
 48
3.0
440
16777216
100
AcDbLine
 10
1549.8965973789018
 20
2771.1546152597894
 30
0.0
 11
1619.2697215263033
 21
2771.1546152597894
 31
0.0
  0
LINE
  5
1FB
330
1F4
100
AcDbEntity
  8
DIM
 62
5
370
9
 48
3.0
440
16777216
100
AcDbLine
 10
1539.8965973790037
 20
2771.1546152597894
 30
0.0
 11
1549.8965973789018
 21
2771.1546152597894
 31
0.0
  0
LINE
  5
1FC
330
1F4
100
AcDbEntity
  8
0
  6
ByBlock
 62
0
370
-2
100
AcDbLine
 10
1535.8965973790037
 20
2767.1546152597894
 30
0.0
 11
1543.8965973790037
 21
2775.1546152597894
 31
0.0
  0
LINE
  5
1FD
330
1F4
100
AcDbEntity
  8
0
  6
ByBlock
 62
0
370
-2
100
AcDbLine
 10
1553.8965973789018
 20
2775.1546152597894
 30
0.0
 11
1545.8965973789018
 21
2767.1546152597894
 31
0.0
  0
MTEXT
  5
1FE
330
1F4
100
AcDbEntity
  8
DIM
 62
3
 48
3.0
440
16777216
100
AcDbMText
 10
1592.5831594525953
 20
2793.9189399528295
 30
0.0
 40
25.0
 41
0.0
 46
0.0
 71
5
  1
10
  0
POINT
  5
1FF
330
1F4
100
AcDbEntity
  8
Defpoints
 62
0
 48
3.0
440
16777216
100
AcDbPoint
 10
1539.8965973790037
 20
2730.5580684195393
 30
0.0
  0
POINT
  5
200
330
1F4
100
AcDbEntity
  8
Defpoints
 62
0
 48
3.0
440
16777216
100
AcDbPoint
 10
1549.8965973789018
 20
2720.55806841955
 30
0.0
  0
POINT
  5
201
330
1F4
100
AcDbEntity
  8
Defpoints
 62
0
 48
3.0
440
16777216
100
AcDbPoint
 10
1549.8965973789018
 20
2771.1546152597894
 30
0.0
  0
ENDBLK
  5
1F6
330
1F4
100
AcDbEntity
  8
0
100
AcDbBlockEnd
  0
BLOCK
  5
203
330
202
100
AcDbEntity
  8
0
100
AcDbBlockBegin
  2
*D10
 70
1
 10
0.0
 20
0.0
 30
0.0
  3
*D10
  1

  0
LINE
  5
205
330
202
100
AcDbEntity
  8
DIM
 62
5
370
9
 48
3.0
440
16777216
100
AcDbLine
 10
1523.8965973789018
 20
2761.55806841955
 30
0.0
 11
1523.8965973789018
 21
2825.8815500851797
 31
0.0
  0
LINE
  5
206
330
202
100
AcDbEntity
  8
DIM
 62
5
370
9
 48
3.0
440
16777216
100
AcDbLine
 10
1539.8965973790037
 20
2745.5580684195393
 30
0.0
 11
1539.8965973790037
 21
2825.8815500851797
 31
0.0
  0
LINE
  5
207
330
202
100
AcDbEntity
  8
DIM
 62
5
370
9
 48
3.0
440
16777216
100
AcDbLine
 10
1523.8965973789018
 20
2815.8815500851797
 30
0.0
 11
1515.8965973789018
 21
2815.8815500851797
 31
0.0
  0
LINE
  5
208
330
202
100
AcDbEntity
  8
DIM
 62
5
370
9
 48
3.0
440
16777216
100
AcDbLine
 10
1539.8965973790037
 20
2815.8815500851797
 30
0.0
 11
1609.3379343503038
 21
2815.8815500851797
 31
0.0
  0
LINE
  5
209
330
202
100
AcDbEntity
  8
DIM
 62
5
370
9
 48
3.0
440
16777216
100
AcDbLine
 10
1523.8965973789018
 20
2815.8815500851797
 30
0.0
 11
1539.8965973790037
 21
2815.8815500851797
 31
0.0
  0
LINE
  5
20A
330
202
100
AcDbEntity
  8
0
  6
ByBlock
 62
0
370
-2
100
AcDbLine
 10
1519.8965973789018
 20
2811.8815500851797
 30
0.0
 11
1527.8965973789018
 21
2819.8815500851797
 31
0.0
  0
LINE
  5
20B
330
202
100
AcDbEntity
  8
0
  6
ByBlock
 62
0
370
-2
100
AcDbLine
 10
1543.8965973790037
 20
2819.8815500851797
 30
0.0
 11
1535.8965973790037
 21
2811.8815500851797
 31
0.0
  0
MTEXT
  5
20C
330
202
100
AcDbEntity
  8
DIM
 62
3
 48
3.0
440
16777216
100
AcDbMText
 10
1582.6172658645955
 20
2838.64587477822
 30
0.0
 40
25.0
 41
0.0
 46
0.0
 71
5
  1
16
  0
POINT
  5
20D
330
202
100
AcDbEntity
  8
Defpoints
 62
0
 48
3.0
440
16777216
100
AcDbPoint
 10
1523.8965973789018
 20
2746.5580684195393
 30
0.0
  0
POINT
  5
20E
330
202
100
AcDbEntity
  8
Defpoints
 62
0
 48
3.0
440
16777216
100
AcDbPoint
 10
1539.8965973790037
 20
2730.5580684195393
 30
0.0
  0
POINT
  5
20F
330
202
100
AcDbEntity
  8
Defpoints
 62
0
 48
3.0
440
16777216
100
AcDbPoint
 10
1539.8965973790037
 20
2815.8815500851797
 30
0.0
  0
ENDBLK
  5
204
330
202
100
AcDbEntity
  8
0
100
AcDbBlockEnd
  0
BLOCK
  5
211
330
210
100
AcDbEntity
  8
0
100
AcDbBlockBegin
  2
*D11
 70
1
 10
0.0
 20
0.0
 30
0.0
  3
*D11
  1

  0
LINE
  5
213
330
210
100
AcDbEntity
  8
DIM
 62
5
370
9
 48
3.0
440
16777216
100
AcDbLine
 10
1523.8965973789018
 20
2761.55806841955
 30
0.0
 11
1523.8965973789018
 21
2825.8815500851797
 31
0.0
  0
LINE
  5
214
330
210
100
AcDbEntity
  8
DIM
 62
5
370
9
 48
3.0
440
16777216
100
AcDbLine
 10
1024.8965973789018
 20
2761.405437384179
 30
0.0
 11
1024.8965973789018
 21
2825.8815500851797
 31
0.0
  0
LINE
  5
215
330
210
100
AcDbEntity
  8
DIM
 62
5
370
9
 48
3.0
440
16777216
100
AcDbLine
 10
1523.8965973789018
 20
2815.8815500851797
 30
0.0
 11
1024.8965973789018
 21
2815.8815500851797
 31
0.0
  0
LINE
  5
216
330
210
100
AcDbEntity
  8
0
  6
ByBlock
 62
0
370
-2
100
AcDbLine
 10
1519.8965973789018
 20
2811.8815500851797
 30
0.0
 11
1527.8965973789018
 21
2819.8815500851797
 31
0.0
  0
LINE
  5
217
330
210
100
AcDbEntity
  8
0
  6
ByBlock
 62
0
370
-2
100
AcDbLine
 10
1028.8965973789018
 20
2819.8815500851797
 30
0.0
 11
1020.8965973789018
 21
2811.8815500851797
 31
0.0
  0
MTEXT
  5
218
330
210
100
AcDbEntity
  8
DIM
 62
3
 48
3.0
440
16777216
100
AcDbMText
 10
1274.3965973789018
 20
2838.64587477822
 30
0.0
 40
25.0
 41
0.0
 46
0.0
 71
5
  1
499
  0
POINT
  5
219
330
210
100
AcDbEntity
  8
Defpoints
 62
0
 48
3.0
440
16777216
100
AcDbPoint
 10
1523.8965973789018
 20
2746.5580684195393
 30
0.0
  0
POINT
  5
21A
330
210
100
AcDbEntity
  8
Defpoints
 62
0
 48
3.0
440
16777216
100
AcDbPoint
 10
1024.8965973789018
 20
2746.405437384179
 30
0.0
  0
POINT
  5
21B
330
210
100
AcDbEntity
  8
Defpoints
 62
0
 48
3.0
440
16777216
100
AcDbPoint
 10
1024.8965973789018
 20
2815.8815500851797
 30
0.0
  0
ENDBLK
  5
212
330
210
100
AcDbEntity
  8
0
100
AcDbBlockEnd
  0
BLOCK
  5
21D
330
21C
100
AcDbEntity
  8
0
100
AcDbBlockBegin
  2
*D12
 70
1
 10
0.0
 20
0.0
 30
0.0
  3
*D12
  1

  0
LINE
  5
21F
330
21C
100
AcDbEntity
  8
DIM
 62
5
370
9
 48
3.0
440
16777216
100
AcDbLine
 10
1019.8965973789018
 20
2756.55806841955
 30
0.0
 11
876.4623478415015
 21
2756.55806841955
 31
0.0
  0
LINE
  5
220
330
21C
100
AcDbEntity
  8
DIM
 62
5
370
9
 48
3.0
440
16777216
100
AcDbLine
 10
1019.8965973789018
 20
1405.5580684195465
 30
0.0
 11
876.4623478415015
 21
1405.5580684195465
 31
0.0
  0
LINE
  5
221
330
21C
100
AcDbEntity
  8
DIM
 62
5
370
9
 48
3.0
440
16777216
100
AcDbLine
 10
886.4623478415015
 20
2756.55806841955
 30
0.0
 11
886.4623478415015
 21
1405.5580684195465
 31
0.0
  0
LINE
  5
222
330
21C
100
AcDbEntity
  8
0
  6
ByBlock
 62
0
370
-2
100
AcDbLine
 10
890.4623478415015
 20
2752.55806841955
 30
0.0
 11
882.4623478415015
 21
2760.55806841955
 31
0.0
  0
LINE
  5
223
330
21C
100
AcDbEntity
  8
0
  6
ByBlock
 62
0
370
-2
100
AcDbLine
 10
882.4623478415015
 20
1409.5580684195465
 30
0.0
 11
890.4623478415015
 21
1401.5580684195465
 31
0.0
  0
MTEXT
  5
224
330
21C
100
AcDbEntity
  8
DIM
 62
3
 48
3.0
440
16777216
100
AcDbMText
 10
863.6894965454994
 20
2081.05806841955
 30
0.0
 40
25.0
 41
0.0
 46
0.0
 71
5
  1
1351
 11
1e-16
 21
1.0
 31
0.0
  0
POINT
  5
225
330
21C
100
AcDbEntity
  8
Defpoints
 62
0
 48
3.0
440
16777216
100
AcDbPoint
 10
1034.8965973789018
 20
2756.55806841955
 30
0.0
  0
POINT
  5
226
330
21C
100
AcDbEntity
  8
Defpoints
 62
0
 48
3.0
440
16777216
100
AcDbPoint
 10
1034.8965973789018
 20
1405.5580684195465
 30
0.0
  0
POINT
  5
227
330
21C
100
AcDbEntity
  8
Defpoints
 62
0
 48
3.0
440
16777216
100
AcDbPoint
 10
886.4623478415015
 20
1405.5580684195465
 30
0.0
  0
ENDBLK
  5
21E
330
21C
100
AcDbEntity
  8
0
100
AcDbBlockEnd
  0
BLOCK
  5
229
330
228
100
AcDbEntity
  8
0
100
AcDbBlockBegin
  2
*D13
 70
1
 10
0.0
 20
0.0
 30
0.0
  3
*D13
  1

  0
LINE
  5
22B
330
228
100
AcDbEntity
  8
DIM
 62
5
370
9
 48
3.0
440
16777216
100
AcDbLine
 10
993.8965973790037
 20
2730.5580684195393
 30
0.0
 11
942.0193332796043
 21
2730.5580684195393
 31
0.0
  0
LINE
  5
22C
330
228
100
AcDbEntity
  8
DIM
 62
5
370
9
 48
3.0
440
16777216
100
AcDbLine
 10
993.8965973790037
 20
1431.5580684195484
 30
0.0
 11
942.0193332796043
 21
1431.5580684195484
 31
0.0
  0
LINE
  5
22D
330
228
100
AcDbEntity
  8
DIM
 62
5
370
9
 48
3.0
440
16777216
100
AcDbLine
 10
952.0193332796043
 20
2730.5580684195393
 30
0.0
 11
952.0193332796043
 21
1431.5580684195484
 31
0.0
  0
LINE
  5
22E
330
228
100
AcDbEntity
  8
0
  6
ByBlock
 62
0
370
-2
100
AcDbLine
 10
956.0193332796043
 20
2726.5580684195393
 30
0.0
 11
948.0193332796043
 21
2734.5580684195393
 31
0.0
  0
LINE
  5
22F
330
228
100
AcDbEntity
  8
0
  6
ByBlock
 62
0
370
-2
100
AcDbLine
 10
948.0193332796043
 20
1435.5580684195484
 30
0.0
 11
956.0193332796043
 21
1427.5580684195484
 31
0.0
  0
MTEXT
  5
230
330
228
100
AcDbEntity
  8
DIM
 62
3
 48
3.0
440
16777216
100
AcDbMText
 10
929.2550085865951
 20
2081.0580684195593
 30
0.0
 40
25.0
 41
0.0
 46
0.0
 71
5
  1
1299
 11
1e-16
 21
1.0
 31
0.0
  0
POINT
  5
231
330
228
100
AcDbEntity
  8
Defpoints
 62
0
 48
3.0
440
16777216
100
AcDbPoint
 10
1008.8965973789018
 20
2730.5580684195393
 30
0.0
  0
POINT
  5
232
330
228
100
AcDbEntity
  8
Defpoints
 62
0
 48
3.0
440
16777216
100
AcDbPoint
 10
1008.8965973789018
 20
1431.5580684195484
 30
0.0
  0
POINT
  5
233
330
228
100
AcDbEntity
  8
Defpoints
 62
0
 48
3.0
440
16777216
100
AcDbPoint
 10
952.0193332796043
 20
1431.5580684195484
 30
0.0
  0
ENDBLK
  5
22A
330
228
100
AcDbEntity
  8
0
100
AcDbBlockEnd
  0
BLOCK
  5
235
330
234
100
AcDbEntity
  8
0
100
AcDbBlockBegin
  2
*D14
 70
1
 10
0.0
 20
0.0
 30
0.0
  3
*D14
  1

  0
LINE
  5
237
330
234
100
AcDbEntity
  8
DIM
 62
5
370
9
 48
3.0
440
16777216
100
AcDbLine
 10
998.8965973789018
 20
1426.5580684195465
 30
0.0
 11
998.8965973789018
 21
1344.3685971243867
 31
0.0
  0
LINE
  5
238
330
234
100
AcDbEntity
  8
DIM
 62
5
370
9
 48
3.0
440
16777216
100
AcDbLine
 10
1549.8965973789018
 20
1426.5580684195174
 30
0.0
 11
1549.8965973789018
 21
1344.3685971243867
 31
0.0
  0
LINE
  5
239
330
234
100
AcDbEntity
  8
DIM
 62
5
370
9
 48
3.0
440
16777216
100
AcDbLine
 10
998.8965973789018
 20
1354.368597124385
 30
0.0
 11
1549.8965973789018
 21
1354.368597124385
 31
0.0
  0
LINE
  5
23A
330
234
100
AcDbEntity
  8
0
  6
ByBlock
 62
0
370
-2
100
AcDbLine
 10
1002.8965973789018
 20
1358.368597124385
 30
0.0
 11
994.8965973789018
 21
1350.368597124385
 31
0.0
  0
LINE
  5
23B
330
234
100
AcDbEntity
  8
0
  6
ByBlock
 62
0
370
-2
100
AcDbLine
 10
1545.8965973789018
 20
1350.368597124385
 30
0.0
 11
1553.8965973789018
 21
1358.368597124385
 31
0.0
  0
MTEXT
  5
23C
330
234
100
AcDbEntity
  8
DIM
 62
3
 48
3.0
440
16777216
100
AcDbMText
 10
1274.3965973789018
 20
1377.132921817427
 30
0.0
 40
25.0
 41
0.0
 46
0.0
 71
5
  1
551
  0
POINT
  5
23D
330
234
100
AcDbEntity
  8
Defpoints
 62
0
 48
3.0
440
16777216
100
AcDbPoint
 10
998.8965973789018
 20
1441.5580684195465
 30
0.0
  0
POINT
  5
23E
330
234
100
AcDbEntity
  8
Defpoints
 62
0
 48
3.0
440
16777216
100
AcDbPoint
 10
1549.8965973789018
 20
1441.5580684195174
 30
0.0
  0
POINT
  5
23F
330
234
100
AcDbEntity
  8
Defpoints
 62
0
 48
3.0
440
16777216
100
AcDbPoint
 10
1549.8965973789018
 20
1354.368597124385
 30
0.0
  0
ENDBLK
  5
236
330
234
100
AcDbEntity
  8
0
100
AcDbBlockEnd
  0
BLOCK
  5
241
330
240
100
AcDbEntity
  8
0
100
AcDbBlockBegin
  2
*D15
 70
1
 10
0.0
 20
0.0
 30
0.0
  3
*D15
  1

  0
LINE
  5
243
330
240
100
AcDbEntity
  8
DIM
 62
5
370
9
 48
3.0
440
16777216
100
AcDbLine
 10
139.1135459333018
 20
657.7590488389851
 30
0.0
 11
107.82356993629946
 21
657.7590488389851
 31
0.0
  0
LINE
  5
244
330
240
100
AcDbEntity
  8
DIM
 62
5
370
9
 48
3.0
440
16777216
100
AcDbLine
 10
139.1135459333018
 20
387.7590488389851
 30
0.0
 11
107.82356993629946
 21
387.7590488389851
 31
0.0
  0
LINE
  5
245
330
240
100
AcDbEntity
  8
DIM
 62
5
370
9
 48
3.0
440
16777216
100
AcDbLine
 10
117.82356993629946
 20
657.7590488389851
 30
0.0
 11
117.82356993629946
 21
387.7590488389851
 31
0.0
  0
LINE
  5
246
330
240
100
AcDbEntity
  8
0
  6
ByBlock
 62
0
370
-2
100
AcDbLine
 10
121.82356993629946
 20
653.7590488389851
 30
0.0
 11
113.82356993629946
 21
661.7590488389851
 31
0.0
  0
LINE
  5
247
330
240
100
AcDbEntity
  8
0
  6
ByBlock
 62
0
370
-2
100
AcDbLine
 10
113.82356993629946
 20
391.7590488389851
 30
0.0
 11
121.82356993629946
 21
383.7590488389851
 31
0.0
  0
MTEXT
  5
248
330
240
100
AcDbEntity
  8
DIM
 62
3
 48
3.0
440
16777216
100
AcDbMText
 10
95.05924524330476
 20
522.7590488390051
 30
0.0
 40
25.0
 41
0.0
 46
0.0
 71
5
  1
270
 11
1e-16
 21
1.0
 31
0.0
  0
POINT
  5
249
330
240
100
AcDbEntity
  8
Defpoints
 62
0
 48
3.0
440
16777216
100
AcDbPoint
 10
154.1135459333018
 20
657.7590488389851
 30
0.0
  0
POINT
  5
24A
330
240
100
AcDbEntity
  8
Defpoints
 62
0
 48
3.0
440
16777216
100
AcDbPoint
 10
154.1135459333018
 20
387.7590488389851
 30
0.0
  0
POINT
  5
24B
330
240
100
AcDbEntity
  8
Defpoints
 62
0
 48
3.0
440
16777216
100
AcDbPoint
 10
117.82356993629946
 20
387.7590488389851
 30
0.0
  0
ENDBLK
  5
242
330
240
100
AcDbEntity
  8
0
100
AcDbBlockEnd
  0
BLOCK
  5
24D
330
24C
100
AcDbEntity
  8
0
100
AcDbBlockBegin
  2
*D16
 70
1
 10
0.0
 20
0.0
 30
0.0
  3
*D16
  1

  0
LINE
  5
24F
330
24C
100
AcDbEntity
  8
DIM
 62
5
370
9
 48
3.0
440
16777216
100
AcDbLine
 10
199.1135459333018
 20
672.7590488389851
 30
0.0
 11
199.1135459333018
 21
710.6381706576394
 31
0.0
  0
LINE
  5
250
330
24C
100
AcDbEntity
  8
DIM
 62
5
370
9
 48
3.0
440
16777216
100
AcDbLine
 10
229.1135459333018
 20
672.7590488389851
 30
0.0
 11
229.1135459333018
 21
710.6381706576394
 31
0.0
  0
LINE
  5
251
330
24C
100
AcDbEntity
  8
DIM
 62
5
370
9
 48
3.0
440
16777216
100
AcDbLine
 10
199.1135459333018
 20
700.6381706576394
 30
0.0
 11
229.1135459333018
 21
700.6381706576394
 31
0.0
  0
LINE
  5
252
330
24C
100
AcDbEntity
  8
DIM
 62
5
370
9
 48
3.0
440
16777216
100
AcDbLine
 10
229.1135459333018
 20
700.6381706576394
 30
0.0
 11
292.82295930299733
 21
700.6381706576394
 31
0.0
  0
LINE
  5
253
330
24C
100
AcDbEntity
  8
0
  6
ByBlock
 62
0
370
-2
100
AcDbLine
 10
203.1135459333018
 20
704.6381706576394
 30
0.0
 11
195.1135459333018
 21
696.6381706576394
 31
0.0
  0
LINE
  5
254
330
24C
100
AcDbEntity
  8
0
  6
ByBlock
 62
0
370
-2
100
AcDbLine
 10
225.1135459333018
 20
696.6381706576394
 30
0.0
 11
233.1135459333018
 21
704.6381706576394
 31
0.0
  0
MTEXT
  5
255
330
24C
100
AcDbEntity
  8
DIM
 62
3
 48
3.0
440
16777216
100
AcDbMText
 10
264.96825261809863
 20
723.4110219536815
 30
0.0
 40
25.0
 41
0.0
 46
0.0
 71
5
  1
30
  0
POINT
  5
256
330
24C
100
AcDbEntity
  8
Defpoints
 62
0
 48
3.0
440
16777216
100
AcDbPoint
 10
199.1135459333018
 20
657.7590488389851
 30
0.0
  0
POINT
  5
257
330
24C
100
AcDbEntity
  8
Defpoints
 62
0
 48
3.0
440
16777216
100
AcDbPoint
 10
229.1135459333018
 20
657.7590488389851
 30
0.0
  0
POINT
  5
258
330
24C
100
AcDbEntity
  8
Defpoints
 62
0
 48
3.0
440
16777216
100
AcDbPoint
 10
229.1135459333018
 20
700.6381706576394
 30
0.0
  0
ENDBLK
  5
24E
330
24C
100
AcDbEntity
  8
0
100
AcDbBlockEnd
  0
BLOCK
  5
25A
330
259
100
AcDbEntity
  8
0
100
AcDbBlockBegin
  2
*D17
 70
1
 10
0.0
 20
0.0
 30
0.0
  3
*D17
  1

  0
LINE
  5
25C
330
259
100
AcDbEntity
  8
DIM
 62
5
370
9
 48
3.0
440
16777216
100
AcDbLine
 10
199.1135459333018
 20
672.7590488389851
 30
0.0
 11
199.1135459333018
 21
710.6381706576394
 31
0.0
  0
LINE
  5
25D
330
259
100
AcDbEntity
  8
DIM
 62
5
370
9
 48
3.0
440
16777216
100
AcDbLine
 10
169.1135459333018
 20
672.7590488389851
 30
0.0
 11
169.1135459333018
 21
710.6381706576394
 31
0.0
  0
LINE
  5
25E
330
259
100
AcDbEntity
  8
DIM
 62
5
370
9
 48
3.0
440
16777216
100
AcDbLine
 10
199.1135459333018
 20
700.6381706576394
 30
0.0
 11
169.1135459333018
 21
700.6381706576394
 31
0.0
  0
LINE
  5
25F
330
259
100
AcDbEntity
  8
DIM
 62
5
370
9
 48
3.0
440
16777216
100
AcDbLine
 10
169.1135459333018
 20
700.6381706576394
 30
0.0
 11
105.40413256360625
 21
700.6381706576394
 31
0.0
  0
LINE
  5
260
330
259
100
AcDbEntity
  8
0
  6
ByBlock
 62
0
370
-2
100
AcDbLine
 10
195.1135459333018
 20
696.6381706576394
 30
0.0
 11
203.1135459333018
 21
704.6381706576394
 31
0.0
  0
LINE
  5
261
330
259
100
AcDbEntity
  8
0
  6
ByBlock
 62
0
370
-2
100
AcDbLine
 10
173.1135459333018
 20
704.6381706576394
 30
0.0
 11
165.1135459333018
 21
696.6381706576394
 31
0.0
  0
MTEXT
  5
262
330
259
100
AcDbEntity
  8
DIM
 62
3
 48
3.0
440
16777216
100
AcDbMText
 10
133.2588392484031
 20
723.4110219536815
 30
0.0
 40
25.0
 41
0.0
 46
0.0
 71
5
  1
30
  0
POINT
  5
263
330
259
100
AcDbEntity
  8
Defpoints
 62
0
 48
3.0
440
16777216
100
AcDbPoint
 10
199.1135459333018
 20
657.7590488389851
 30
0.0
  0
POINT
  5
264
330
259
100
AcDbEntity
  8
Defpoints
 62
0
 48
3.0
440
16777216
100
AcDbPoint
 10
169.1135459333018
 20
657.7590488389851
 30
0.0
  0
POINT
  5
265
330
259
100
AcDbEntity
  8
Defpoints
 62
0
 48
3.0
440
16777216
100
AcDbPoint
 10
169.1135459333018
 20
700.6381706576394
 30
0.0
  0
ENDBLK
  5
25B
330
259
100
AcDbEntity
  8
0
100
AcDbBlockEnd
  0
BLOCK
  5
267
330
266
100
AcDbEntity
  8
0
100
AcDbBlockBegin
  2
*D18
 70
1
 10
0.0
 20
0.0
 30
0.0
  3
*D18
  1

  0
LINE
  5
269
330
266
100
AcDbEntity
  8
DIM
 62
5
370
9
 48
3.0
440
16777216
100
AcDbLine
 10
169.1135459333018
 20
642.7590488389851
 30
0.0
 11
169.1135459333018
 21
645.4447361967941
 31
0.0
  0
LINE
  5
26A
330
266
100
AcDbEntity
  8
DIM
 62
5
370
9
 48
3.0
440
16777216
100
AcDbLine
 10
154.1135459333018
 20
642.7590488389851
 30
0.0
 11
154.1135459333018
 21
645.4447361967941
 31
0.0
  0
LINE
  5
26B
330
266
100
AcDbEntity
  8
DIM
 62
5
370
9
 48
3.0
440
16777216
100
AcDbLine
 10
169.1135459333018
 20
655.4447361967923
 30
0.0
 11
177.1135459333018
 21
655.4447361967923
 31
0.0
  0
LINE
  5
26C
330
266
100
AcDbEntity
  8
DIM
 62
5
370
9
 48
3.0
440
16777216
100
AcDbLine
 10
154.1135459333018
 20
655.4447361967923
 30
0.0
 11
84.46757048989821
 21
655.4447361967923
 31
0.0
  0
LINE
  5
26D
330
266
100
AcDbEntity
  8
DIM
 62
5
370
9
 48
3.0
440
16777216
100
AcDbLine
 10
169.1135459333018
 20
655.4447361967923
 30
0.0
 11
154.1135459333018
 21
655.4447361967923
 31
0.0
  0
LINE
  5
26E
330
266
100
AcDbEntity
  8
0
  6
ByBlock
 62
0
370
-2
100
AcDbLine
 10
173.1135459333018
 20
659.4447361967923
 30
0.0
 11
165.1135459333018
 21
651.4447361967923
 31
0.0
  0
LINE
  5
26F
330
266
100
AcDbEntity
  8
0
  6
ByBlock
 62
0
370
-2
100
AcDbLine
 10
150.1135459333018
 20
651.4447361967923
 30
0.0
 11
158.1135459333018
 21
659.4447361967923
 31
0.0
  0
MTEXT
  5
270
330
266
100
AcDbEntity
  8
DIM
 62
3
 48
3.0
440
16777216
100
AcDbMText
 10
111.29055821159272
 20
678.2090608898343
 30
0.0
 40
25.0
 41
0.0
 46
0.0
 71
5
  1
15
  0
POINT
  5
271
330
266
100
AcDbEntity
  8
Defpoints
 62
0
 48
3.0
440
16777216
100
AcDbPoint
 10
169.1135459333018
 20
657.7590488389851
 30
0.0
  0
POINT
  5
272
330
266
100
AcDbEntity
  8
Defpoints
 62
0
 48
3.0
440
16777216
100
AcDbPoint
 10
154.1135459333018
 20
657.7590488389851
 30
0.0
  0
POINT
  5
273
330
266
100
AcDbEntity
  8
Defpoints
 62
0
 48
3.0
440
16777216
100
AcDbPoint
 10
154.1135459333018
 20
655.4447361967923
 30
0.0
  0
ENDBLK
  5
268
330
266
100
AcDbEntity
  8
0
100
AcDbBlockEnd
  0
BLOCK
  5
275
330
274
100
AcDbEntity
  8
0
100
AcDbBlockBegin
  2
*D19
 70
1
 10
0.0
 20
0.0
 30
0.0
  3
*D19
  1

  0
LINE
  5
277
330
274
100
AcDbEntity
  8
DIM
 62
5
370
9
440
16777216
100
AcDbLine
 10
952.6533562140976
 20
350.36221624442624
 30
0.0
 11
952.6533562140976
 21
312.2921846045665
 31
0.0
  0
LINE
  5
278
330
274
100
AcDbEntity
  8
DIM
 62
5
370
9
440
16777216
100
AcDbLine
 10
432.6533562140976
 20
350.36221624442624
 30
0.0
 11
432.6533562140976
 21
312.2921846045665
 31
0.0
  0
LINE
  5
279
330
274
100
AcDbEntity
  8
DIM
 62
5
370
9
440
16777216
100
AcDbLine
 10
952.6533562140976
 20
317.2921846045683
 30
0.0
 11
432.6533562140976
 21
317.2921846045683
 31
0.0
  0
LINE
  5
27A
330
274
100
AcDbEntity
  8
0
  6
ByBlock
 62
0
370
-2
100
AcDbLine
 10
950.1533562140976
 20
314.7921846045683
 30
0.0
 11
955.1533562140976
 21
319.7921846045683
 31
0.0
  0
LINE
  5
27B
330
274
100
AcDbEntity
  8
0
  6
ByBlock
 62
0
370
-2
100
AcDbLine
 10
435.1533562140976
 20
319.7921846045683
 30
0.0
 11
430.1533562140976
 21
314.7921846045683
 31
0.0
  0
MTEXT
  5
27C
330
274
100
AcDbEntity
  8
DIM
 62
3
440
16777216
100
AcDbMText
 10
692.6533562140976
 20
329.950779420391
 30
0.0
 40
15.0
 41
0.0
 46
0.0
 71
5
  1
520
  0
POINT
  5
27D
330
274
100
AcDbEntity
  8
Defpoints
 62
0
440
16777216
100
AcDbPoint
 10
952.6533562140976
 20
358.3622162444244
 30
0.0
  0
POINT
  5
27E
330
274
100
AcDbEntity
  8
Defpoints
 62
0
440
16777216
100
AcDbPoint
 10
432.6533562140976
 20
358.3622162444244
 30
0.0
  0
POINT
  5
27F
330
274
100
AcDbEntity
  8
Defpoints
 62
0
440
16777216
100
AcDbPoint
 10
432.6533562140976
 20
317.2921846045683
 30
0.0
  0
ENDBLK
  5
276
330
274
100
AcDbEntity
  8
0
100
AcDbBlockEnd
  0
BLOCK
  5
281
330
280
100
AcDbEntity
  8
0
100
AcDbBlockBegin
  2
*D20
 70
1
 10
0.0
 20
0.0
 30
0.0
  3
*D20
  1

  0
LINE
  5
283
330
280
100
AcDbEntity
  8
DIM
 62
5
370
9
440
16777216
100
AcDbLine
 10
960.6533562140976
 20
438.3622162444244
 30
0.0
 11
994.5387996310019
 21
438.3622162444244
 31
0.0
  0
LINE
  5
284
330
280
100
AcDbEntity
  8
DIM
 62
5
370
9
440
16777216
100
AcDbLine
 10
960.6533562140976
 20
358.3622162444244
 30
0.0
 11
994.5387996310019
 21
358.3622162444244
 31
0.0
  0
LINE
  5
285
330
280
100
AcDbEntity
  8
DIM
 62
5
370
9
440
16777216
100
AcDbLine
 10
989.5387996310019
 20
438.3622162444244
 30
0.0
 11
989.5387996310019
 21
358.3622162444244
 31
0.0
  0
LINE
  5
286
330
280
100
AcDbEntity
  8
0
  6
ByBlock
 62
0
370
-2
100
AcDbLine
 10
992.0387996310019
 20
435.8622162444244
 30
0.0
 11
987.0387996310019
 21
440.8622162444244
 31
0.0
  0
LINE
  5
287
330
280
100
AcDbEntity
  8
0
  6
ByBlock
 62
0
370
-2
100
AcDbLine
 10
987.0387996310019
 20
360.8622162444244
 30
0.0
 11
992.0387996310019
 21
355.8622162444244
 31
0.0
  0
MTEXT
  5
288
330
280
100
AcDbEntity
  8
DIM
 62
3
440
16777216
100
AcDbMText
 10
976.8802048151992
 20
398.3622162444426
 30
0.0
 40
15.0
 41
0.0
 46
0.0
 71
5
  1
80
 11
1e-16
 21
1.0
 31
0.0
  0
POINT
  5
289
330
280
100
AcDbEntity
  8
Defpoints
 62
0
440
16777216
100
AcDbPoint
 10
952.6533562140976
 20
438.3622162444244
 30
0.0
  0
POINT
  5
28A
330
280
100
AcDbEntity
  8
Defpoints
 62
0
440
16777216
100
AcDbPoint
 10
952.6533562140976
 20
358.3622162444244
 30
0.0
  0
POINT
  5
28B
330
280
100
AcDbEntity
  8
Defpoints
 62
0
440
16777216
100
AcDbPoint
 10
989.5387996310019
 20
358.3622162444244
 30
0.0
  0
ENDBLK
  5
282
330
280
100
AcDbEntity
  8
0
100
AcDbBlockEnd
  0
BLOCK
  5
28D
330
28C
100
AcDbEntity
  8
0
100
AcDbBlockBegin
  2
*D21
 70
1
 10
0.0
 20
0.0
 30
0.0
  3
*D21
  1

  0
LINE
  5
28F
330
28C
100
AcDbEntity
  8
DIM
 62
5
370
9
440
16777216
100
AcDbLine
 10
424.6533562140976
 20
423.3622162444244
 30
0.0
 11
395.2319160679035
 21
423.3622162444244
 31
0.0
  0
LINE
  5
290
330
28C
100
AcDbEntity
  8
DIM
 62
5
370
9
440
16777216
100
AcDbLine
 10
424.6533562140976
 20
373.3622162444226
 30
0.0
 11
395.2319160679035
 21
373.3622162444226
 31
0.0
  0
LINE
  5
291
330
28C
100
AcDbEntity
  8
DIM
 62
5
370
9
440
16777216
100
AcDbLine
 10
400.2319160679035
 20
423.3622162444244
 30
0.0
 11
400.2319160679035
 21
373.3622162444226
 31
0.0
  0
LINE
  5
292
330
28C
100
AcDbEntity
  8
0
  6
ByBlock
 62
0
370
-2
100
AcDbLine
 10
402.7319160679035
 20
420.8622162444244
 30
0.0
 11
397.7319160679035
 21
425.8622162444244
 31
0.0
  0
LINE
  5
293
330
28C
100
AcDbEntity
  8
0
  6
ByBlock
 62
0
370
-2
100
AcDbLine
 10
397.7319160679035
 20
375.8622162444226
 30
0.0
 11
402.7319160679035
 21
370.8622162444226
 31
0.0
  0
MTEXT
  5
294
330
28C
100
AcDbEntity
  8
DIM
 62
3
440
16777216
100
AcDbMText
 10
387.57332125210087
 20
398.3622162444426
 30
0.0
 40
15.0
 41
0.0
 46
0.0
 71
5
  1
50
 11
1e-16
 21
1.0
 31
0.0
  0
POINT
  5
295
330
28C
100
AcDbEntity
  8
Defpoints
 62
0
440
16777216
100
AcDbPoint
 10
432.6533562140976
 20
423.3622162444244
 30
0.0
  0
POINT
  5
296
330
28C
100
AcDbEntity
  8
Defpoints
 62
0
440
16777216
100
AcDbPoint
 10
432.6533562140976
 20
373.3622162444226
 30
0.0
  0
POINT
  5
297
330
28C
100
AcDbEntity
  8
Defpoints
 62
0
440
16777216
100
AcDbPoint
 10
400.2319160679035
 20
373.3622162444226
 30
0.0
  0
ENDBLK
  5
28E
330
28C
100
AcDbEntity
  8
0
100
AcDbBlockEnd
  0
BLOCK
  5
299
330
298
100
AcDbEntity
  8
0
100
AcDbBlockBegin
  2
*D22
 70
1
 10
0.0
 20
0.0
 30
0.0
  3
*D22
  1

  0
LINE
  5
29B
330
298
100
AcDbEntity
  8
DIM
 62
5
370
9
440
16777216
100
AcDbLine
 10
424.6533562140976
 20
423.3622162444244
 30
0.0
 11
395.2319160679035
 21
423.3622162444244
 31
0.0
  0
LINE
  5
29C
330
298
100
AcDbEntity
  8
DIM
 62
5
370
9
440
16777216
100
AcDbLine
 10
424.6533562140976
 20
438.3622162444244
 30
0.0
 11
395.2319160679035
 21
438.3622162444244
 31
0.0
  0
LINE
  5
29D
330
298
100
AcDbEntity
  8
DIM
 62
5
370
9
440
16777216
100
AcDbLine
 10
400.2319160679035
 20
423.3622162444244
 30
0.0
 11
400.2319160679035
 21
438.3622162444244
 31
0.0
  0
LINE
  5
29E
330
298
100
AcDbEntity
  8
DIM
 62
5
370
9
440
16777216
100
AcDbLine
 10
400.2319160679035
 20
438.3622162444244
 30
0.0
 11
400.2319160679035
 21
473.5498015104549
 31
0.0
  0
LINE
  5
29F
330
298
100
AcDbEntity
  8
0
  6
ByBlock
 62
0
370
-2
100
AcDbLine
 10
397.7319160679035
 20
425.8622162444244
 30
0.0
 11
402.7319160679035
 21
420.8622162444244
 31
0.0
  0
LINE
  5
2A0
330
298
100
AcDbEntity
  8
0
  6
ByBlock
 62
0
370
-2
100
AcDbLine
 10
402.7319160679035
 20
435.8622162444244
 30
0.0
 11
397.7319160679035
 21
440.8622162444244
 31
0.0
  0
MTEXT
  5
2A1
330
298
100
AcDbEntity
  8
DIM
 62
3
440
16777216
100
AcDbMText
 10
387.573321251999
 20
458.45600887745786
 30
0.0
 40
15.0
 41
0.0
 46
0.0
 71
5
  1
15
 11
1e-16
 21
1.0
 31
0.0
  0
POINT
  5
2A2
330
298
100
AcDbEntity
  8
Defpoints
 62
0
440
16777216
100
AcDbPoint
 10
432.6533562140976
 20
423.3622162444244
 30
0.0
  0
POINT
  5
2A3
330
298
100
AcDbEntity
  8
Defpoints
 62
0
440
16777216
100
AcDbPoint
 10
432.6533562140976
 20
438.3622162444244
 30
0.0
  0
POINT
  5
2A4
330
298
100
AcDbEntity
  8
Defpoints
 62
0
440
16777216
100
AcDbPoint
 10
400.2319160679035
 20
438.3622162444244
 30
0.0
  0
ENDBLK
  5
29A
330
298
100
AcDbEntity
  8
0
100
AcDbBlockEnd
  0
BLOCK
  5
2A6
330
2A5
100
AcDbEntity
  8
0
100
AcDbBlockBegin
  2
*D23
 70
1
 10
0.0
 20
0.0
 30
0.0
  3
*D23
  1

  0
LINE
  5
2A8
330
2A5
100
AcDbEntity
  8
DIM
 62
5
370
9
440
16777216
100
AcDbLine
 10
424.6533562140976
 20
373.3622162444226
 30
0.0
 11
395.2319160679035
 21
373.3622162444226
 31
0.0
  0
LINE
  5
2A9
330
2A5
100
AcDbEntity
  8
DIM
 62
5
370
9
440
16777216
100
AcDbLine
 10
424.6533562140976
 20
358.3622162444244
 30
0.0
 11
395.2319160679035
 21
358.3622162444244
 31
0.0
  0
LINE
  5
2AA
330
2A5
100
AcDbEntity
  8
DIM
 62
5
370
9
440
16777216
100
AcDbLine
 10
400.2319160679035
 20
373.3622162444226
 30
0.0
 11
400.2319160679035
 21
358.3622162444244
 31
0.0
  0
LINE
  5
2AB
330
2A5
100
AcDbEntity
  8
DIM
 62
5
370
9
440
16777216
100
AcDbLine
 10
400.2319160679035
 20
358.3622162444244
 30
0.0
 11
400.2319160679035
 21
323.1746309783921
 31
0.0
  0
LINE
  5
2AC
330
2A5
100
AcDbEntity
  8
0
  6
ByBlock
 62
0
370
-2
100
AcDbLine
 10
402.7319160679035
 20
370.8622162444226
 30
0.0
 11
397.7319160679035
 21
375.8622162444226
 31
0.0
  0
LINE
  5
2AD
330
2A5
100
AcDbEntity
  8
0
  6
ByBlock
 62
0
370
-2
100
AcDbLine
 10
397.7319160679035
 20
360.8622162444244
 30
0.0
 11
402.7319160679035
 21
355.8622162444244
 31
0.0
  0
MTEXT
  5
2AE
330
2A5
100
AcDbEntity
  8
DIM
 62
3
440
16777216
100
AcDbMText
 10
387.57332125210087
 20
338.26842361142735
 30
0.0
 40
15.0
 41
0.0
 46
0.0
 71
5
  1
15
 11
1e-16
 21
1.0
 31
0.0
  0
POINT
  5
2AF
330
2A5
100
AcDbEntity
  8
Defpoints
 62
0
440
16777216
100
AcDbPoint
 10
432.6533562140976
 20
373.3622162444226
 30
0.0
  0
POINT
  5
2B0
330
2A5
100
AcDbEntity
  8
Defpoints
 62
0
440
16777216
100
AcDbPoint
 10
432.6533562140976
 20
358.3622162444244
 30
0.0
  0
POINT
  5
2B1
330
2A5
100
AcDbEntity
  8
Defpoints
 62
0
440
16777216
100
AcDbPoint
 10
400.2319160679035
 20
358.3622162444244
 30
0.0
  0
ENDBLK
  5
2A7
330
2A5
100
AcDbEntity
  8
0
100
AcDbBlockEnd
  0
ENDSEC
  0
SECTION
  2
ENTITIES
  0
INSERT
  5
2F
330
17
100
AcDbEntity
  8
0
 62
7
100
AcDbBlockReference
 66
1
  2
khungtenAsean2
 10
0.0
 20
3074.60999999504
 30
0.0
 41
1.464099999997415
 42
1.464099999997415
 43
1.464099999997415
  0
ATTRIB
  5
30
330
2F
100
AcDbEntity
  8
0
 62
1
100
AcDbText
 10
4222.119184173702
 20
47.80608586152357
 30
0.0
 40
36.60250000000002
  1
......
  7
Tahoma (Input Text)
 72
1
 11
4267.841581756002
 21
47.80608586152357
 31
0.0
100
AcDbAttribute
  2
#11
 70
0
 71
1
 72
0
 11
4267.841581756002
 21
47.80608586152357
 31
0.0
  0
ATTRIB
  5
31
330
2F
100
AcDbEntity
  8
0
 62
1
100
AcDbText
 10
3143.008326739393
 20
115.26096255677294
 30
0.0
 40
36.60250000000002
  1
......
  7
Tahoma (Input Text)
100
AcDbAttribute
  2
#09
 70
0
 71
1
 72
0
  0
ATTRIB
  5
32
330
2F
100
AcDbEntity
  8
0
 62
1
100
AcDbText
 10
3143.008326739393
 20
27.414962556782484
 30
0.0
 40
36.60250000000002
  1
......
  7
Tahoma (Input Text)
100
AcDbAttribute
  2
#10
 70
0
 71
1
 72
0
  0
ATTRIB
  5
33
330
2F
100
AcDbEntity
  8
0
 62
1
100
AcDbText
 10
2660.925273810193
 20
27.414962556782484
 30
0.0
 40
36.60250000000002
  1
......
  7
Tahoma (Input Text)
100
AcDbAttribute
  2
#08
 70
0
 71
1
 72
0
  0
ATTRIB
  5
34
330
2F
100
AcDbEntity
  8
0
 62
1
100
AcDbText
 10
2686.1571992676036
 20
115.26096255677294
 30
0.0
 40
36.60250000000002
  1
......
  7
Tahoma (Input Text)
100
AcDbAttribute
  2
#07
 70
0
 71
1
 72
0
  0
ATTRIB
  5
35
330
2F
100
AcDbEntity
  8
0
 62
1
100
AcDbText
 10
1559.7509547951922
 20
27.414962556782484
 30
0.0
 40
36.60250000000002
  1
......
  7
Tahoma (Input Text)
100
AcDbAttribute
  2
#06
 70
0
 71
1
 72
0
  0
ATTRIB
  5
36
330
2F
100
AcDbEntity
  8
0
 62
1
100
AcDbText
 10
1620.2143141246052
 20
115.26096255677294
 30
0.0
 40
36.60250000000002
  1
......
  7
Tahoma (Input Text)
100
AcDbAttribute
  2
#05
 70
0
 71
1
 72
0
  0
ATTRIB
  5
37
330
2F
100
AcDbEntity
  8
0
 62
1
100
AcDbText
 10
711.7063700387953
 20
27.414962556782484
 30
0.0
 40
36.60250000000002
  1
......
  7
Tahoma (Input Text)
100
AcDbAttribute
  2
#04
 70
0
 71
1
 72
0
  0
ATTRIB
  5
38
330
2F
100
AcDbEntity
  8
0
 62
1
100
AcDbText
 10
741.6702335329028
 20
118.15052671804915
 30
0.0
 40
36.60250000000002
  1
......
  7
Tahoma (Input Text)
100
AcDbAttribute
  2
#03
 70
0
 71
1
 72
0
  0
ATTRIB
  5
39
330
2F
100
AcDbEntity
  8
0
 62
1
100
AcDbText
 10
144.15049034509866
 20
27.414962556782484
 30
0.0
 40
36.60250000000002
  1
......
  7
Tahoma (Input Text)
100
AcDbAttribute
  2
#02
 70
0
 71
1
 72
0
  0
ATTRIB
  5
3A
330
2F
100
AcDbEntity
  8
0
 62
1
100
AcDbText
 10
200.66004082489235
 20
115.26096255677294
 30
0.0
 40
36.60250000000002
  1
......
  7
Tahoma (Input Text)
100
AcDbAttribute
  2
#01
 70
0
 71
1
 72
0
  0
SEQEND
  5
3B
330
17
100
AcDbEntity
  8
0
 62
7
  0
LINE
  5
3C
330
17
100
AcDbEntity
  8
0
 62
7
100
AcDbLine
 10
274.0141734429926
 20
2778.55806841955
 30
0.0
 11
369.0141734429926
 21
2778.55806841955
 31
0.0
  0
LINE
  5
3D
330
17
100
AcDbEntity
  8
0
 62
7
100
AcDbLine
 10
369.0141734429926
 20
2778.55806841955
 30
0.0
 11
369.0141734429926
 21
1383.5580684195465
 31
0.0
  0
LINE
  5
3E
330
17
100
AcDbEntity
  8
0
 62
7
100
AcDbLine
 10
354.0141734429926
 20
2778.55806841955
 30
0.0
 11
354.0141734429926
 21
1383.5580684195465
 31
0.0
  0
LINE
  5
3F
330
17
100
AcDbEntity
  8
0
 62
7
100
AcDbLine
 10
369.0141734429926
 20
1383.5580684195465
 30
0.0
 11
274.0141734429926
 21
1383.5580684195465
 31
0.0
  0
LINE
  5
40
330
17
100
AcDbEntity
  8
0
 62
7
100
AcDbLine
 10
274.0141734429926
 20
1383.5580684195465
 30
0.0
 11
274.0141734429926
 21
2778.55806841955
 31
0.0
  0
LINE
  5
41
330
17
100
AcDbEntity
  8
0
 62
7
100
AcDbLine
 10
289.0141734429926
 20
1383.5580684195465
 30
0.0
 11
289.0141734429926
 21
2778.55806841955
 31
0.0
  0
DIMENSION
  5
42
330
17
100
AcDbEntity
  8
DIM
 62
7
100
AcDbDimension
280
0
  2
*D1
  3
Dim-25
 10
436.20412833080627
 20
1383.5580684195465
 30
0.0
 11
413.4312770348042
 21
2081.0580684195593
 31
0.0
 70
32
 71
5
 42
1395.0
 73
0
 74
0
 75
0
100
AcDbAlignedDimension
 13
369.0141734429926
 23
2778.55806841955
 33
0.0
 14
369.0141734429926
 24
1383.5580684195465
 34
0.0
 50
90.0
100
AcDbRotatedDimension
  0
DIMENSION
  5
47
330
17
100
AcDbEntity
  8
DIM
 62
7
100
AcDbDimension
280
0
  2
*D2
  3
Dim-25
 10
369.0141734429926
 20
1322.3610035816964
 30
0.0
 11
321.5141734429926
 21
1345.1253282747402
 31
0.0
 70
32
 71
5
 42
95.0
 73
0
 74
0
 75
0
100
AcDbAlignedDimension
 13
274.0141734429926
 23
1383.5580684195465
 33
0.0
 14
369.0141734429926
 24
1383.5580684195465
 34
0.0
 50
0.0
100
AcDbRotatedDimension
  0
DIMENSION
  5
48
330
17
100
AcDbEntity
  8
DIM
 62
7
100
AcDbDimension
280
0
  2
*D3
  3
Dim-25
 10
354.0141734429926
 20
2823.0753512476094
 30
0.0
 11
321.5141734429926
 21
2845.8396759406496
 31
0.0
 70
32
 71
5
 42
65.0
 73
0
 74
0
 75
0
100
AcDbAlignedDimension
 13
289.0141734429926
 23
2778.55806841955
 33
0.0
 14
354.0141734429926
 24
2778.55806841955
 34
0.0
 50
0.0
100
AcDbRotatedDimension
  0
DIMENSION
  5
49
330
17
100
AcDbEntity
  8
DIM
 62
7
100
AcDbDimension
280
0
  2
*D4
  3
Dim-25
 10
369.0141734429926
 20
2823.0753512476094
 30
0.0
 11
411.8371611647017
 21
2845.8396759406496
 31
0.0
 70
32
 71
5
 42
15.0
 73
0
 74
0
 75
0
100
AcDbAlignedDimension
 13
354.0141734429926
 23
2778.55806841955
 33
0.0
 14
369.0141734429926
 24
2778.55806841955
 34
0.0
 50
0.0
100
AcDbRotatedDimension
  0
MTEXT
  5
4A
330
17
100
AcDbEntity
  8
0
 62
7
100
AcDbMText
 10
664.904930775403
 20
1212.9220435474435
 30
0.0
 40
40.0
 41
915.0000000000146
 46
100.0000000000031
 71
5
 72
5
  1
Hèm phải:\P01 tấm
  0
LINE
  5
4B
330
17
100
AcDbEntity
  8
0
 62
7
100
AcDbLine
 10
590.6636226628034
 20
2778.55806841955
 30
0.0
 11
685.6636226628034
 21
2778.55806841955
 31
0.0
  0
LINE
  5
4C
330
17
100
AcDbEntity
  8
0
 62
7
100
AcDbLine
 10
685.6636226628034
 20
2778.55806841955
 30
0.0
 11
685.6636226628034
 21
1383.5580684195465
 31
0.0
  0
LINE
  5
4D
330
17
100
AcDbEntity
  8
0
 62
7
100
AcDbLine
 10
670.6636226628034
 20
2778.55806841955
 30
0.0
 11
670.6636226628034
 21
1383.5580684195465
 31
0.0
  0
LINE
  5
4E
330
17
100
AcDbEntity
  8
0
 62
7
100
AcDbLine
 10
685.6636226628034
 20
1383.5580684195465
 30
0.0
 11
590.6636226628034
 21
1383.5580684195465
 31
0.0
  0
LINE
  5
4F
330
17
100
AcDbEntity
  8
0
 62
7
100
AcDbLine
 10
590.6636226628034
 20
1383.5580684195465
 30
0.0
 11
590.6636226628034
 21
2778.55806841955
 31
0.0
  0
LINE
  5
50
330
17
100
AcDbEntity
  8
0
 62
7
100
AcDbLine
 10
605.6636226628034
 20
1383.5580684195465
 30
0.0
 11
605.6636226628034
 21
2778.55806841955
 31
0.0
  0
DIMENSION
  5
51
330
17
100
AcDbEntity
  8
DIM
 62
7
100
AcDbDimension
280
0
  2
*D5
  3
Dim-25
 10
752.8535775506025
 20
1383.5580684195465
 30
0.0
 11
730.0807262544986
 21
2081.0580684195593
 31
0.0
 70
32
 71
5
 42
1395.0
 73
0
 74
0
 75
0
100
AcDbAlignedDimension
 13
685.6636226628034
 23
2778.55806841955
 33
0.0
 14
685.6636226628034
 24
1383.5580684195465
 34
0.0
 50
90.0
100
AcDbRotatedDimension
  0
DIMENSION
  5
52
330
17
100
AcDbEntity
  8
DIM
 62
7
100
AcDbDimension
280
0
  2
*D6
  3
Dim-25
 10
685.6636226628034
 20
1322.3610035816964
 30
0.0
 11
638.1636226628034
 21
1345.1253282747402
 31
0.0
 70
32
 71
5
 42
95.0
 73
0
 74
0
 75
0
100
AcDbAlignedDimension
 13
590.6636226628034
 23
1383.5580684195465
 33
0.0
 14
685.6636226628034
 24
1383.5580684195465
 34
0.0
 50
0.0
100
AcDbRotatedDimension
  0
DIMENSION
  5
53
330
17
100
AcDbEntity
  8
DIM
 62
7
100
AcDbDimension
280
0
  2
*D7
  3
Dim-25
 10
670.6636226628034
 20
2823.0753512476094
 30
0.0
 11
638.1636226628034
 21
2845.8396759406496
 31
0.0
 70
32
 71
5
 42
65.0
 73
0
 74
0
 75
0
100
AcDbAlignedDimension
 13
605.6636226628034
 23
2778.55806841955
 33
0.0
 14
670.6636226628034
 24
2778.55806841955
 34
0.0
 50
0.0
100
AcDbRotatedDimension
  0
DIMENSION
  5
54
330
17
100
AcDbEntity
  8
DIM
 62
7
100
AcDbDimension
280
0
  2
*D8
  3
Dim-25
 10
685.6636226628034
 20
2823.0753512476094
 30
0.0
 11
728.4866103844979
 21
2845.8396759406496
 31
0.0
 70
32
 71
5
 42
15.0
 73
0
 74
0
 75
0
100
AcDbAlignedDimension
 13
670.6636226628034
 23
2778.55806841955
 33
0.0
 14
685.6636226628034
 24
2778.55806841955
 34
0.0
 50
0.0
100
AcDbRotatedDimension
  0
INSERT
  5
55
330
17
100
AcDbEntity
  8
0
370
-3
100
AcDbBlockReference
  2
f3daunguoc
 10
289.0141734429926
 20
2763.5580684195393
 30
0.0
 41
-1.0
 50
90.0
  0
INSERT
  5
57
330
17
100
AcDbEntity
  8
0
370
-3
100
AcDbBlockReference
  2
f3daunguoc
 10
354.0141734429926
 20
2763.5580684195393
 30
0.0
 50
270.0
  0
INSERT
  5
59
330
17
100
AcDbEntity
  8
0
370
-3
100
AcDbBlockReference
  2
f3daunguoc
 10
605.6636226628034
 20
2763.5580684195393
 30
0.0
 41
-1.0
 50
90.0
  0
INSERT
  5
5B
330
17
100
AcDbEntity
  8
0
370
-3
100
AcDbBlockReference
  2
f3daunguoc
 10
670.6636226628034
 20
2763.5580684195393
 30
0.0
 50
270.0
  0
INSERT
  5
5D
330
17
100
AcDbEntity
  8
0
370
-3
100
AcDbBlockReference
  2
f3daunguoc
 10
289.0141734429926
 20
1398.5580684195465
 30
0.0
 50
90.0
  0
INSERT
  5
5F
330
17
100
AcDbEntity
  8
0
370
-3
100
AcDbBlockReference
  2
f3daunguoc
 10
354.0141734429926
 20
1398.5580684195465
 30
0.0
 41
-1.0
 50
270.0
  0
INSERT
  5
61
330
17
100
AcDbEntity
  8
0
370
-3
100
AcDbBlockReference
  2
f3daunguoc
 10
605.6636226628034
 20
1398.5580684195465
 30
0.0
 50
90.0
  0
INSERT
  5
63
330
17
100
AcDbEntity
  8
0
370
-3
100
AcDbBlockReference
  2
f3daunguoc
 10
670.6636226628034
 20
1398.5580684195465
 30
0.0
 41
-1.0
 50
270.0
  0
LWPOLYLINE
  5
65
330
17
100
AcDbEntity
  8
0
 62
2
100
AcDbPolyline
 90
4
 70
1
 10
624.1636226628034
 20
1529.5580684195465
 10
611.1636226628034
 20
1529.5580684195465
 10
611.1636226628034
 20
1520.5580684195465
 10
624.1636226628034
 20
1520.5580684195465
  0
LWPOLYLINE
  5
66
330
17
100
AcDbEntity
  8
0
 62
2
100
AcDbPolyline
 90
4
 70
1
 10
624.1636226628034
 20
2632.5580684195393
 10
611.1636226628034
 20
2632.5580684195393
 10
611.1636226628034
 20
2641.5580684195393
 10
624.1636226628034
 20
2641.5580684195393
  0
CIRCLE
  5
67
330
17
100
AcDbEntity
  8
0
 62
2
 48
3.0
100
AcDbCircle
 10
654.2020984698029
 20
2582.5580684195393
 30
0.0
 40
11.5
  0
LWPOLYLINE
  5
68
330
17
100
AcDbEntity
  8
0
 62
7
100
AcDbPolyline
 90
6
 70
0
 10
1523.8965973789018
 20
1515.0580684195465
 10
1523.8965973789018
 20
1431.5580684195484
 10
1024.8965973789018
 20
1431.5580684195484
 10
1024.8965973789018
 20
2730.5580684195393
 10
1523.8965973789018
 20
2730.5580684195393
 10
1523.8965973789018
 20
2647.05806841955
  0
LWPOLYLINE
  5
69
330
17
100
AcDbEntity
  8
0
 62
7
100
AcDbPolyline
 90
2
 70
0
 10
1523.8965973789018
 20
2627.05806841955
 10
1523.8965973789018
 20
1535.0580684195465
  0
LWPOLYLINE
  5
6A
330
17
100
AcDbEntity
  8
0
 62
7
100
AcDbPolyline
 90
22
 70
0
 10
1549.8965973789018
 20
1515.0580684195465
 10
1549.8965973789018
 20
1441.5580684195174
 10
1539.8965973790037
 20
1431.5580684195484
 10
1523.8965973789018
 20
1431.5580684195484
 10
1523.8965973789018
 20
1415.5580684195465
 10
1513.8965973789018
 20
1405.5580684195465
 10
1034.8965973789018
 20
1405.5580684195465
 10
1024.8965973789018
 20
1415.5580684195465
 10
1024.8965973789018
 20
1431.5580684195484
 10
1008.8965973789018
 20
1431.5580684195484
 10
998.8965973789018
 20
1441.5580684195465
 10
998.8965973789018
 20
2720.55806841955
 10
1008.8965973789018
 20
2730.5580684195393
 10
1024.8965973789018
 20
2730.5580684195393
 10
1024.8965973789018
 20
2746.5580684195393
 10
1034.8965973789018
 20
2756.55806841955
 10
1513.8965973789018
 20
2756.55806841955
 10
1523.8965973789018
 20
2746.5580684195393
 10
1523.8965973789018
 20
2730.5580684195393
 10
1539.8965973790037
 20
2730.5580684195393
 10
1549.8965973789018
 20
2720.55806841955
 10
1549.8965973789018
 20
2647.05806841955
  0
LWPOLYLINE
  5
6B
330
17
100
AcDbEntity
  8
0
 62
7
100
AcDbPolyline
 90
2
 70
0
 10
1549.8965973789018
 20
2627.05806841955
 10
1549.8965973789018
 20
1535.0580684195465
  0
LWPOLYLINE
  5
6C
330
17
100
AcDbEntity
  8
0
 62
7
100
AcDbPolyline
 90
2
 70
0
 10
1539.8965973790037
 20
2730.5580684195393
 10
1539.8965973790037
 20
2647.05806841955
  0
LWPOLYLINE
  5
6D
330
17
100
AcDbEntity
  8
0
 62
7
100
AcDbPolyline
 90
2
 70
0
 10
1539.8965973790037
 20
2627.05806841955
 10
1539.8965973790037
 20
1535.0580684195465
  0
LWPOLYLINE
  5
6E
330
17
100
AcDbEntity
  8
0
 62
7
100
AcDbPolyline
 90
2
 70
0
 10
1539.8965973790037
 20
1515.0580684195465
 10
1539.8965973790037
 20
1431.5580684195484
  0
LWPOLYLINE
  5
6F
330
17
100
AcDbEntity
  8
0
 62
7
100
AcDbPolyline
 90
2
 70
0
 10
1523.8965973789018
 20
1415.5580684195465
 10
1024.8965973789018
 20
1415.5580684195465
  0
LWPOLYLINE
  5
70
330
17
100
AcDbEntity
  8
0
 62
7
100
AcDbPolyline
 90
2
 70
0
 10
1008.8965973789018
 20
1431.5580684195484
 10
1008.8965973789018
 20
2730.5580684195393
  0
LWPOLYLINE
  5
71
330
17
100
AcDbEntity
  8
0
 62
7
100
AcDbPolyline
 90
2
 70
0
 10
1024.8965973789018
 20
2746.5580684195393
 10
1523.8965973789018
 20
2746.5580684195393
  0
LWPOLYLINE
  5
72
330
17
100
AcDbEntity
  8
0
 62
2
100
AcDbPolyline
 90
4
 70
0
 10
1549.8965973789018
 20
2627.05806841955
 10
1512.8965973789018
 20
2627.05806841955
 10
1512.8965973789018
 20
2647.05806841955
 10
1549.8965973789018
 20
2647.05806841955
  0
LWPOLYLINE
  5
73
330
17
100
AcDbEntity
  8
0
 62
2
100
AcDbPolyline
 90
4
 70
0
 10
1549.8965973789018
 20
1535.0580684195465
 10
1512.8965973789018
 20
1535.0580684195465
 10
1512.8965973789018
 20
1515.0580684195465
 10
1549.8965973789018
 20
1515.0580684195465
  0
INSERT
  5
74
330
17
100
AcDbEntity
  8
0
370
-3
100
AcDbBlockReference
  2
f3daunguoc
 10
1039.8965973789018
 20
2730.5580684195393
 30
0.0
 41
-1.0
 50
180.0
  0
INSERT
  5
76
330
17
100
AcDbEntity
  8
0
370
-3
100
AcDbBlockReference
  2
f3daunguoc
 10
1024.8965973789018
 20
2715.55806841955
 30
0.0
 41
-1.0
 50
180.0
  0
INSERT
  5
78
330
17
100
AcDbEntity
  8
0
370
-3
100
AcDbBlockReference
  2
f3daunguoc
 10
1039.8965973789018
 20
2746.5580684195393
 30
0.0
 41
-1.0
 50
180.0
  0
INSERT
  5
7A
330
17
100
AcDbEntity
  8
0
370
-3
100
AcDbBlockReference
  2
f3daunguoc
 10
1008.8965973789018
 20
2715.55806841955
 30
0.0
 41
-1.0
 50
180.0
  0
INSERT
  5
7C
330
17
100
AcDbEntity
  8
0
370
-3
100
AcDbBlockReference
  2
f3daunguoc
 10
1089.8965973790037
 20
2730.5580684195393
 30
0.0
 41
-1.0
 50
180.0
  0
INSERT
  5
7E
330
17
100
AcDbEntity
  8
0
370
-3
100
AcDbBlockReference
  2
f3daunguoc
 10
1089.8965973790037
 20
2746.5580684195393
 30
0.0
 41
-1.0
 50
180.0
  0
INSERT
  5
80
330
17
100
AcDbEntity
  8
0
370
-3
100
AcDbBlockReference
  2
f3daunguoc
 10
1508.8965973789018
 20
2730.5580684195393
 30
0.0
 50
180.0
  0
INSERT
  5
82
330
17
100
AcDbEntity
  8
0
370
-3
100
AcDbBlockReference
  2
f3daunguoc
 10
1523.8965973789018
 20
2715.55806841955
 30
0.0
 50
180.0
  0
INSERT
  5
84
330
17
100
AcDbEntity
  8
0
370
-3
100
AcDbBlockReference
  2
f3daunguoc
 10
1508.8965973789018
 20
2746.5580684195393
 30
0.0
 50
180.0
  0
INSERT
  5
86
330
17
100
AcDbEntity
  8
0
370
-3
100
AcDbBlockReference
  2
f3daunguoc
 10
1539.8965973790037
 20
2715.55806841955
 30
0.0
 50
180.0
  0
INSERT
  5
88
330
17
100
AcDbEntity
  8
0
370
-3
100
AcDbBlockReference
  2
f3daunguoc
 10
1458.8965973789018
 20
2730.5580684195393
 30
0.0
 50
180.0
  0
INSERT
  5
8A
330
17
100
AcDbEntity
  8
0
370
-3
100
AcDbBlockReference
  2
f3daunguoc
 10
1458.8965973789018
 20
2746.5580684195393
 30
0.0
 50
180.0
  0
INSERT
  5
8C
330
17
100
AcDbEntity
  8
0
370
-3
100
AcDbBlockReference
  2
f3daunguoc
 10
1039.8965973789018
 20
1431.5580684195484
 30
0.0
  0
INSERT
  5
8E
330
17
100
AcDbEntity
  8
0
370
-3
100
AcDbBlockReference
  2
f3daunguoc
 10
1024.8965973789018
 20
1446.5580684195465
 30
0.0
  0
INSERT
  5
90
330
17
100
AcDbEntity
  8
0
370
-3
100
AcDbBlockReference
  2
f3daunguoc
 10
1039.8965973789018
 20
1415.5580684195465
 30
0.0
  0
INSERT
  5
92
330
17
100
AcDbEntity
  8
0
370
-3
100
AcDbBlockReference
  2
f3daunguoc
 10
1008.8965973789018
 20
1446.5580684195465
 30
0.0
  0
INSERT
  5
94
330
17
100
AcDbEntity
  8
0
370
-3
100
AcDbBlockReference
  2
f3daunguoc
 10
1089.8965973790037
 20
1431.5580684195484
 30
0.0
  0
INSERT
  5
96
330
17
100
AcDbEntity
  8
0
370
-3
100
AcDbBlockReference
  2
f3daunguoc
 10
1089.8965973790037
 20
1415.5580684195465
 30
0.0
  0
INSERT
  5
98
330
17
100
AcDbEntity
  8
0
370
-3
100
AcDbBlockReference
  2
f3daunguoc
 10
1508.8965973789018
 20
1431.5580684195484
 30
0.0
 41
-1.0
  0
INSERT
  5
9A
330
17
100
AcDbEntity
  8
0
370
-3
100
AcDbBlockReference
  2
f3daunguoc
 10
1523.8965973789018
 20
1446.5580684195465
 30
0.0
 41
-1.0
  0
INSERT
  5
9C
330
17
100
AcDbEntity
  8
0
370
-3
100
AcDbBlockReference
  2
f3daunguoc
 10
1508.8965973789018
 20
1415.5580684195465
 30
0.0
 41
-1.0
  0
INSERT
  5
9E
330
17
100
AcDbEntity
  8
0
370
-3
100
AcDbBlockReference
  2
f3daunguoc
 10
1539.8965973790037
 20
1446.5580684195465
 30
0.0
 41
-1.0
  0
INSERT
  5
A0
330
17
100
AcDbEntity
  8
0
370
-3
100
AcDbBlockReference
  2
f3daunguoc
 10
1458.8965973789018
 20
1431.5580684195484
 30
0.0
 41
-1.0
  0
INSERT
  5
A2
330
17
100
AcDbEntity
  8
0
370
-3
100
AcDbBlockReference
  2
f3daunguoc
 10
1458.8965973789018
 20
1415.5580684195465
 30
0.0
 41
-1.0
  0
LWPOLYLINE
  5
A4
330
17
100
AcDbEntity
  8
0
 62
2
 48
3.0
100
AcDbPolyline
 90
4
 70
1
 10
1181.8965973789018
 20
2333.0580684195393
 10
1384.8965973789018
 20
2333.0580684195393
 10
1384.8965973789018
 20
2279.0580684195393
 10
1181.8965973789018
 20
2279.0580684195393
  0
LWPOLYLINE
  5
A5
330
17
100
AcDbEntity
  8
0
 62
2
 48
3.0
100
AcDbPolyline
 90
4
 70
1
 10
1217.8965973789018
 20
2558.4568650214205
 10
1384.8965973789018
 20
2558.4568650214205
 10
1384.8965973789018
 20
2503.9568650214296
 10
1217.8965973789018
 20
2503.9568650214296
  0
CIRCLE
  5
A6
330
17
100
AcDbEntity
  8
0
 62
2
100
AcDbCircle
 10
1074.3965973788
 20
2630.55806841957
 30
0.0
 40
11.0
  0
CIRCLE
  5
A7
330
17
100
AcDbEntity
  8
0
 62
2
100
AcDbCircle
 10
1074.3965973788
 20
1531.5580684195174
 30
0.0
 40
11.0
  0
DIMENSION
  5
A8
330
17
100
AcDbEntity
  8
DIM
 62
2
 48
3.0
100
AcDbDimension
280
0
  2
*D9
  3
Dim-25
 10
1549.8965973789018
 20
2771.1546152597894
 30
0.0
 11
1592.5831594525953
 21
2793.9189399528295
 31
0.0
 70
32
 71
5
 42
9.999999999985448
 73
0
 74
0
 75
0
100
AcDbAlignedDimension
 13
1539.8965973790037
 23
2730.5580684195393
 33
0.0
 14
1549.8965973789018
 24
2720.55806841955
 34
0.0
 50
0.0
100
AcDbRotatedDimension
  0
DIMENSION
  5
A9
330
17
100
AcDbEntity
  8
DIM
 62
2
 48
3.0
100
AcDbDimension
280
0
  2
*D10
  3
Dim-25
 10
1539.8965973790037
 20
2815.8815500851797
 30
0.0
 11
1582.6172658645955
 21
2838.64587477822
 31
0.0
 70
32
 71
5
 42
16.0
 73
0
 74
0
 75
0
100
AcDbAlignedDimension
 13
1523.8965973789018
 23
2746.5580684195393
 33
0.0
 14
1539.8965973790037
 24
2730.5580684195393
 34
0.0
 50
0.0
100
AcDbRotatedDimension
  0
DIMENSION
  5
AA
330
17
100
AcDbEntity
  8
DIM
 62
2
 48
3.0
100
AcDbDimension
280
0
  2
*D11
  3
Dim-25
 10
1024.8965973789018
 20
2815.8815500851797
 30
0.0
 11
1274.3965973789018
 21
2838.64587477822
 31
0.0
 70
32
 71
5
 42
499.0
 73
0
 74
0
 75
0
100
AcDbAlignedDimension
 13
1523.8965973789018
 23
2746.5580684195393
 33
0.0
 14
1024.8965973789018
 24
2746.405437384179
 34
0.0
 50
0.0
100
AcDbRotatedDimension
  0
DIMENSION
  5
AB
330
17
100
AcDbEntity
  8
DIM
 62
2
 48
3.0
100
AcDbDimension
280
0
  2
*D12
  3
Dim-25
 10
886.4623478415015
 20
1405.5580684195465
 30
0.0
 11
886.4623478415015
 21
2081.05806841955
 31
0.0
 70
160
 71
5
 42
1351.0
 73
0
 74
0
 75
0
100
AcDbAlignedDimension
 13
1034.8965973789018
 23
2756.55806841955
 33
0.0
 14
1034.8965973789018
 24
1405.5580684195465
 34
0.0
 50
90.0
100
AcDbRotatedDimension
  0
DIMENSION
  5
AC
330
17
100
AcDbEntity
  8
DIM
 62
2
 48
3.0
100
AcDbDimension
280
0
  2
*D13
  3
Dim-25
 10
952.0193332796043
 20
1431.5580684195484
 30
0.0
 11
929.2550085865951
 21
2081.0580684195593
 31
0.0
 70
32
 71
5
 42
1299.0
 73
0
 74
0
 75
0
100
AcDbAlignedDimension
 13
1008.8965973789018
 23
2730.5580684195393
 33
0.0
 14
1008.8965973789018
 24
1431.5580684195484
 34
0.0
 50
90.0
100
AcDbRotatedDimension
  0
DIMENSION
  5
AD
330
17
100
AcDbEntity
  8
DIM
 62
2
 48
3.0
100
AcDbDimension
280
0
  2
*D14
  3
Dim-25
 10
1549.8965973789018
 20
1354.368597124385
 30
0.0
 11
1274.3965973789018
 21
1377.132921817427
 31
0.0
 70
32
 71
5
 42
551.0
 73
0
 74
0
 75
0
100
AcDbAlignedDimension
 13
998.8965973789018
 23
1441.5580684195465
 33
0.0
 14
1549.8965973789018
 24
1441.5580684195174
 34
0.0
 50
0.0
100
AcDbRotatedDimension
  0
MTEXT
  5
AE
330
17
100
AcDbEntity
  8
0
 62
7
100
AcDbMText
 10
1306.6187630823988
 20
1212.9220435474435
 30
0.0
 40
40.0
 41
915.0000000000146
 46
100.0000000000031
 71
5
 72
5
  1
Cánh trong\P01 tấm
  0
LINE
  5
AF
330
17
100
AcDbEntity
  8
0
 62
7
100
AcDbLine
 10
154.1135459333018
 20
657.7590488389851
 30
0.0
 11
229.1135459333018
 21
657.7590488389851
 31
0.0
  0
LINE
  5
B0
330
17
100
AcDbEntity
  8
0
 62
7
100
AcDbLine
 10
229.1135459333018
 20
657.7590488389851
 30
0.0
 11
229.1135459333018
 21
387.7590488389851
 31
0.0
  0
LINE
  5
B1
330
17
100
AcDbEntity
  8
0
 62
7
100
AcDbLine
 10
229.1135459333018
 20
387.7590488389851
 30
0.0
 11
154.1135459333018
 21
387.7590488389851
 31
0.0
  0
LINE
  5
B2
330
17
100
AcDbEntity
  8
0
 62
7
100
AcDbLine
 10
154.1135459333018
 20
387.7590488389851
 30
0.0
 11
154.1135459333018
 21
657.7590488389851
 31
0.0
  0
LINE
  5
B3
330
17
100
AcDbEntity
  8
0
 62
7
100
AcDbLine
 10
169.1135459333018
 20
387.7590488389851
 30
0.0
 11
169.1135459333018
 21
657.7590488389851
 31
0.0
  0
LINE
  5
B4
330
17
100
AcDbEntity
  8
0
 62
7
100
AcDbLine
 10
199.1135459333018
 20
387.7590488389851
 30
0.0
 11
199.1135459333018
 21
657.7590488389851
 31
0.0
  0
CIRCLE
  5
B5
330
17
100
AcDbEntity
  8
0
 62
2
100
AcDbCircle
 10
161.6135459333018
 20
523.7090488389968
 30
0.0
 40
3.0
  0
CIRCLE
  5
B6
330
17
100
AcDbEntity
  8
0
 62
2
100
AcDbCircle
 10
161.6135459333018
 20
483.70904883899493
 30
0.0
 40
3.0
  0
CIRCLE
  5
B7
330
17
100
AcDbEntity
  8
0
 62
2
100
AcDbCircle
 10
161.6135459333018
 20
443.70904883899675
 30
0.0
 40
3.0
  0
CIRCLE
  5
B8
330
17
100
AcDbEntity
  8
0
 62
2
100
AcDbCircle
 10
161.6135459333018
 20
407.95904883899675
 30
0.0
 40
3.0
  0
INSERT
  5
B9
330
17
100
AcDbEntity
  8
0
370
-3
100
AcDbBlockReference
  2
f3daunguoc
 10
199.1135459333018
 20
397.7590488389851
 30
0.0
 41
-1.0
 50
270.0
  0
INSERT
  5
BB
330
17
100
AcDbEntity
  8
0
370
-3
100
AcDbBlockReference
  2
f2dauxuoi
 10
169.11354593319993
 20
397.7590488389851
 30
0.0
 50
180.0
  0
INSERT
  5
BD
330
17
100
AcDbEntity
  8
0
370
-3
100
AcDbBlockReference
  2
f3daunguoc
 10
199.1135459333018
 20
647.7590488389978
 30
0.0
 50
270.0
  0
INSERT
  5
BF
330
17
100
AcDbEntity
  8
0
370
-3
100
AcDbBlockReference
  2
f2dauxuoi
 10
169.11354593319993
 20
647.7590488389978
 30
0.0
 41
-1.0
  0
INSERT
  5
C1
330
17
100
AcDbEntity
  8
0
370
-3
100
AcDbBlockReference
  2
f3daunguoc
 10
199.1135459333018
 20
647.7590488389978
 30
0.0
 50
270.0
  0
LWPOLYLINE
  5
C3
330
17
100
AcDbEntity
  8
0
 62
2
100
AcDbPolyline
 90
4
 70
1
 10
209.6135459333018
 20
417.5090488389851
 10
218.6135459333018
 20
417.5090488389851
 10
218.6135459333018
 20
392.5090488389851
 10
209.6135459333018
 20
392.5090488389851
  0
CIRCLE
  5
C4
330
17
100
AcDbEntity
  8
0
 62
2
100
AcDbCircle
 10
161.6135459333018
 20
562.2090488389949
 30
0.0
 40
3.0
  0
CIRCLE
  5
C5
330
17
100
AcDbEntity
  8
0
 62
2
100
AcDbCircle
 10
161.6135459333018
 20
602.2090488389968
 30
0.0
 40
3.0
  0
DIMENSION
  5
C6
330
17
100
AcDbEntity
  8
DIM
 62
7
 48
3.0
100
AcDbDimension
280
0
  2
*D15
  3
Dim-25
 10
117.82356993629946
 20
387.7590488389851
 30
0.0
 11
95.05924524330476
 21
522.7590488390051
 31
0.0
 70
32
 71
5
 42
270.0
 73
0
 74
0
 75
0
100
AcDbAlignedDimension
 13
154.1135459333018
 23
657.7590488389851
 33
0.0
 14
154.1135459333018
 24
387.7590488389851
 34
0.0
 50
90.0
100
AcDbRotatedDimension
  0
LWPOLYLINE
  5
C7
330
17
100
AcDbEntity
  8
0
 62
2
100
AcDbPolyline
 90
4
 70
1
 10
209.6135459333018
 20
452.5090488389851
 10
218.6135459333018
 20
452.5090488389851
 10
218.6135459333018
 20
422.5090488389851
 10
209.6135459333018
 20
422.5090488389851
  0
LWPOLYLINE
  5
C8
330
17
100
AcDbEntity
  8
0
 62
2
100
AcDbPolyline
 90
4
 70
1
 10
209.6135459333018
 20
487.5090488389851
 10
218.6135459333018
 20
487.5090488389851
 10
218.6135459333018
 20
457.5090488389851
 10
209.6135459333018
 20
457.5090488389851
  0
LWPOLYLINE
  5
C9
330
17
100
AcDbEntity
  8
0
 62
2
100
AcDbPolyline
 90
4
 70
1
 10
209.6135459333018
 20
520.0090488389851
 10
218.6135459333018
 20
520.0090488389851
 10
218.6135459333018
 20
492.5090488389833
 10
209.6135459333018
 20
492.5090488389833
  0
DIMENSION
  5
CA
330
17
100
AcDbEntity
  8
DIM
 62
7
 48
3.0
100
AcDbDimension
280
0
  2
*D16
  3
Dim-25
 10
229.1135459333018
 20
700.6381706576394
 30
0.0
 11
264.96825261809863
 21
723.4110219536815
 31
0.0
 70
32
 71
5
 42
30.0
 73
0
 74
0
 75
0
100
AcDbAlignedDimension
 13
199.1135459333018
 23
657.7590488389851
 33
0.0
 14
229.1135459333018
 24
657.7590488389851
 34
0.0
 50
0.0
100
AcDbRotatedDimension
  0
DIMENSION
  5
CB
330
17
100
AcDbEntity
  8
DIM
 62
7
 48
3.0
100
AcDbDimension
280
0
  2
*D17
  3
Dim-25
 10
169.1135459333018
 20
700.6381706576394
 30
0.0
 11
133.2588392484031
 21
723.4110219536815
 31
0.0
 70
32
 71
5
 42
30.0
 73
0
 74
0
 75
0
100
AcDbAlignedDimension
 13
199.1135459333018
 23
657.7590488389851
 33
0.0
 14
169.1135459333018
 24
657.7590488389851
 34
0.0
 50
0.0
100
AcDbRotatedDimension
  0
DIMENSION
  5
CC
330
17
100
AcDbEntity
  8
DIM
 62
7
 48
3.0
100
AcDbDimension
280
0
  2
*D18
  3
Dim-25
 10
154.1135459333018
 20
655.4447361967923
 30
0.0
 11
111.29055821159272
 21
678.2090608898343
 31
0.0
 70
32
 71
5
 42
15.0
 73
0
 74
0
 75
0
100
AcDbAlignedDimension
 13
169.1135459333018
 23
657.7590488389851
 33
0.0
 14
154.1135459333018
 24
657.7590488389851
 34
0.0
 50
0.0
100
AcDbRotatedDimension
  0
LWPOLYLINE
  5
CD
330
17
100
AcDbEntity
  8
0
 62
2
100
AcDbPolyline
 90
4
 70
1
 10
209.6135459333018
 20
628.0090488389851
 10
218.6135459333018
 20
628.0090488389851
 10
218.6135459333018
 20
653.0090488389851
 10
209.6135459333018
 20
653.0090488389851
  0
LWPOLYLINE
  5
CE
330
17
100
AcDbEntity
  8
0
 62
2
100
AcDbPolyline
 90
4
 70
1
 10
209.6135459333018
 20
593.0090488389869
 10
218.6135459333018
 20
593.0090488389869
 10
218.6135459333018
 20
623.0090488389851
 10
209.6135459333018
 20
623.0090488389851
  0
LWPOLYLINE
  5
CF
330
17
100
AcDbEntity
  8
0
 62
2
100
AcDbPolyline
 90
4
 70
1
 10
209.6135459333018
 20
558.0090488389851
 10
218.6135459333018
 20
558.0090488389851
 10
218.6135459333018
 20
588.0090488389851
 10
209.6135459333018
 20
588.0090488389851
  0
LWPOLYLINE
  5
D0
330
17
100
AcDbEntity
  8
0
 62
2
100
AcDbPolyline
 90
4
 70
1
 10
209.6135459333018
 20
525.5090488389851
 10
218.6135459333018
 20
525.5090488389851
 10
218.6135459333018
 20
553.0090488389851
 10
209.6135459333018
 20
553.0090488389851
  0
LINE
  5
D1
330
17
100
AcDbEntity
  8
0
 62
7
100
AcDbLine
 10
432.6533562140976
 20
438.3622162444244
 30
0.0
 11
952.6533562140976
 21
438.3622162444244
 31
0.0
  0
LINE
  5
D2
330
17
100
AcDbEntity
  8
0
 62
7
100
AcDbLine
 10
432.6533562140976
 20
423.3622162444244
 30
0.0
 11
952.6533562140976
 21
423.3622162444244
 31
0.0
  0
LINE
  5
D3
330
17
100
AcDbEntity
  8
0
 62
7
100
AcDbLine
 10
952.6533562140976
 20
438.3622162444244
 30
0.0
 11
952.6533562140976
 21
358.3622162444244
 31
0.0
  0
LINE
  5
D4
330
17
100
AcDbEntity
  8
0
 62
7
100
AcDbLine
 10
952.6533562140976
 20
358.3622162444244
 30
0.0
 11
432.6533562140976
 21
358.3622162444244
 31
0.0
  0
LINE
  5
D5
330
17
100
AcDbEntity
  8
0
 62
7
100
AcDbLine
 10
952.6533562140976
 20
373.3622162444226
 30
0.0
 11
432.6533562140976
 21
373.3622162444226
 31
0.0
  0
LINE
  5
D6
330
17
100
AcDbEntity
  8
0
 62
7
100
AcDbLine
 10
432.6533562140976
 20
358.3622162444244
 30
0.0
 11
432.6533562140976
 21
438.3622162444244
 31
0.0
  0
DIMENSION
  5
D7
330
17
100
AcDbEntity
  8
DIM
 62
7
100
AcDbDimension
280
0
  2
*D19
  3
Dim-15
 10
432.6533562140976
 20
317.2921846045683
 30
0.0
 11
692.6533562140976
 21
329.950779420391
 31
0.0
 70
32
 71
5
 42
520.0
 73
0
 74
0
 75
0
100
AcDbAlignedDimension
 13
952.6533562140976
 23
358.3622162444244
 33
0.0
 14
432.6533562140976
 24
358.3622162444244
 34
0.0
 50
0.0
100
AcDbRotatedDimension
  0
DIMENSION
  5
D8
330
17
100
AcDbEntity
  8
DIM
 62
7
100
AcDbDimension
280
0
  2
*D20
  3
Dim-15
 10
989.5387996310019
 20
358.3622162444244
 30
0.0
 11
976.8802048151992
 21
398.3622162444426
 31
0.0
 70
32
 71
5
 42
80.0
 73
0
 74
0
 75
0
100
AcDbAlignedDimension
 13
952.6533562140976
 23
438.3622162444244
 33
0.0
 14
952.6533562140976
 24
358.3622162444244
 34
0.0
 50
90.0
100
AcDbRotatedDimension
  0
DIMENSION
  5
D9
330
17
100
AcDbEntity
  8
DIM
 62
7
100
AcDbDimension
280
0
  2
*D21
  3
Dim-15
 10
400.2319160679035
 20
373.3622162444226
 30
0.0
 11
387.57332125210087
 21
398.3622162444426
 31
0.0
 70
32
 71
5
 42
50.0
 73
0
 74
0
 75
0
100
AcDbAlignedDimension
 13
432.6533562140976
 23
423.3622162444244
 33
0.0
 14
432.6533562140976
 24
373.3622162444226
 34
0.0
 50
90.0
100
AcDbRotatedDimension
  0
DIMENSION
  5
DA
330
17
100
AcDbEntity
  8
DIM
 62
7
100
AcDbDimension
280
0
  2
*D22
  3
Dim-15
 10
400.2319160679035
 20
438.3622162444244
 30
0.0
 11
387.573321251999
 21
458.45600887745786
 31
0.0
 70
32
 71
5
 42
15.0
 73
0
 74
0
 75
0
100
AcDbAlignedDimension
 13
432.6533562140976
 23
423.3622162444244
 33
0.0
 14
432.6533562140976
 24
438.3622162444244
 34
0.0
 50
90.0
100
AcDbRotatedDimension
  0
DIMENSION
  5
DB
330
17
100
AcDbEntity
  8
DIM
 62
7
100
AcDbDimension
280
0
  2
*D23
  3
Dim-15
 10
400.2319160679035
 20
358.3622162444244
 30
0.0
 11
387.57332125210087
 21
338.26842361142735
 31
0.0
 70
32
 71
5
 42
15.0
 73
0
 74
0
 75
0
100
AcDbAlignedDimension
 13
432.6533562140976
 23
373.3622162444226
 33
0.0
 14
432.6533562140976
 24
358.3622162444244
 34
0.0
 50
90.0
100
AcDbRotatedDimension
  0
MTEXT
  5
DC
330
17
100
AcDbEntity
  8
0
 62
2
100
AcDbMText
 10
684.078389135102
 20
284.5968630597363
 30
0.0
 40
25.0
 41
775.0000000000146
 46
100.0000000000031
 71
5
 72
5
  1
Thanh U: 3 tấm
  0
INSERT
  5
DD
330
17
100
AcDbEntity
  8
CNC
370
-3
100
AcDbBlockReference
  2
ovan8.5x20
 10
448.4033562140976
 20
410.8622162444244
 30
0.0
 50
180.0
  0
INSERT
  5
DF
330
17
100
AcDbEntity
  8
CNC
370
-3
100
AcDbBlockReference
  2
ovan8.5x20
 10
448.4033562140976
 20
385.8622162444244
 30
0.0
 50
180.0
  0
INSERT
  5
E1
330
17
100
AcDbEntity
  8
CNC
370
-3
100
AcDbBlockReference
  2
ovan8.5x20
 10
936.9033562140976
 20
410.8622162444244
 30
0.0
 41
-1.0
 50
180.0
  0
INSERT
  5
E3
330
17
100
AcDbEntity
  8
CNC
370
-3
100
AcDbBlockReference
  2
ovan8.5x20
 10
936.9033562140976
 20
385.8622162444244
 30
0.0
 41
-1.0
 50
180.0
  0
INSERT
  5
E5
330
17
100
AcDbEntity
  8
CNC
370
-3
100
AcDbBlockReference
  2
ovan8.5x20
 10
818.1533562140976
 20
398.3622162444244
 30
0.0
 41
-1.0
 50
180.0
  0
INSERT
  5
E7
330
17
100
AcDbEntity
  8
CNC
370
-3
100
AcDbBlockReference
  2
ovan8.5x20
 10
793.1533562140976
 20
398.3622162444244
 30
0.0
 41
-1.0
 50
180.0
  0
INSERT
  5
E9
330
17
100
AcDbEntity
  8
CNC
370
-3
100
AcDbBlockReference
  2
ovan8.5x20
 10
768.1533562140976
 20
398.3622162444244
 30
0.0
 41
-1.0
 50
180.0
  0
INSERT
  5
EB
330
17
100
AcDbEntity
  8
CNC
370
-3
100
AcDbBlockReference
  2
ovan8.5x20
 10
743.1533562140976
 20
398.3622162444244
 30
0.0
 41
-1.0
 50
180.0
  0
INSERT
  5
ED
330
17
100
AcDbEntity
  8
CNC
370
-3
100
AcDbBlockReference
  2
ovan8.5x20
 10
718.1533562140976
 20
398.3622162444244
 30
0.0
 41
-1.0
 50
180.0
  0
INSERT
  5
EF
330
17
100
AcDbEntity
  8
CNC
370
-3
100
AcDbBlockReference
  2
ovan8.5x20
 10
693.1533562140976
 20
398.3622162444244
 30
0.0
 41
-1.0
 50
180.0
  0
INSERT
  5
F1
330
17
100
AcDbEntity
  8
CNC
370
-3
100
AcDbBlockReference
  2
ovan8.5x20
 10
668.1533562140976
 20
398.3622162444244
 30
0.0
 41
-1.0
 50
180.0
  0
INSERT
  5
F3
330
17
100
AcDbEntity
  8
CNC
370
-3
100
AcDbBlockReference
  2
ovan8.5x20
 10
643.1533562140976
 20
398.3622162444244
 30
0.0
 41
-1.0
 50
180.0
  0
INSERT
  5
F5
330
17
100
AcDbEntity
  8
CNC
370
-3
100
AcDbBlockReference
  2
ovan8.5x20
 10
618.1533562140976
 20
398.3622162444244
 30
0.0
 41
-1.0
 50
180.0
  0
INSERT
  5
F7
330
17
100
AcDbEntity
  8
CNC
370
-3
100
AcDbBlockReference
  2
ovan8.5x20
 10
593.1533562140976
 20
398.3622162444244
 30
0.0
 41
-1.0
 50
180.0
  0
INSERT
  5
F9
330
17
100
AcDbEntity
  8
CNC
370
-3
100
AcDbBlockReference
  2
ovan8.5x20
 10
568.1533562140976
 20
398.3622162444244
 30
0.0
 41
-1.0
 50
180.0
  0
INSERT
  5
FB
330
17
100
AcDbEntity
  8
CNC
370
-3
100
AcDbBlockReference
  2
ovan8.5x20
 10
543.1533562140976
 20
398.3622162444244
 30
0.0
 41
-1.0
 50
180.0
  0
INSERT
  5
FD
330
17
100
AcDbEntity
  8
CNC
370
-3
100
AcDbBlockReference
  2
ovan8.5x20
 10
518.1533562140976
 20
398.3622162444244
 30
0.0
 41
-1.0
 50
180.0
  0
INSERT
  5
FF
330
17
100
AcDbEntity
  8
CNC
370
-3
100
AcDbBlockReference
  2
ovan8.5x20
 10
493.1533562140976
 20
398.3622162444244
 30
0.0
 41
-1.0
 50
180.0
  0
INSERT
  5
101
330
17
100
AcDbEntity
  8
CNC
370
-3
100
AcDbBlockReference
  2
ovan8.5x20
 10
468.1533562140976
 20
398.3622162444244
 30
0.0
 41
-1.0
 50
180.0
  0
INSERT
  5
103
330
17
100
AcDbEntity
  8
0
370
-3
100
AcDbBlockReference
  2
f3daunguoc
 10
448.1533562140976
 20
423.3622162444244
 30
0.0
 50
270.0
  0
INSERT
  5
105
330
17
100
AcDbEntity
  8
0
370
-3
100
AcDbBlockReference
  2
f3daunguoc
 10
448.1533562140976
 20
373.3622162444226
 30
0.0
 50
270.0
  0
INSERT
  5
107
330
17
100
AcDbEntity
  8
0
370
-3
100
AcDbBlockReference
  2
f3daunguoc
 10
937.1533562140976
 20
423.3622162444244
 30
0.0
 41
-1.0
 50
90.0
  0
INSERT
  5
109
330
17
100
AcDbEntity
  8
0
370
-3
100
AcDbBlockReference
  2
f3daunguoc
 10
937.1533562140976
 20
373.3622162444226
 30
0.0
 41
-1.0
 50
90.0
  0
INSERT
  5
10B
330
17
100
AcDbEntity
  8
CNC
370
-3
100
AcDbBlockReference
  2
ovan8.5x20
 10
918.1533562140976
 20
398.3622162444244
 30
0.0
 41
-1.0
 50
180.0
  0
INSERT
  5
10D
330
17
100
AcDbEntity
  8
CNC
370
-3
100
AcDbBlockReference
  2
ovan8.5x20
 10
893.1533562140976
 20
398.3622162444244
 30
0.0
 41
-1.0
 50
180.0
  0
INSERT
  5
10F
330
17
100
AcDbEntity
  8
CNC
370
-3
100
AcDbBlockReference
  2
ovan8.5x20
 10
868.1533562140976
 20
398.3622162444244
 30
0.0
 41
-1.0
 50
180.0
  0
INSERT
  5
111
330
17
100
AcDbEntity
  8
CNC
370
-3
100
AcDbBlockReference
  2
ovan8.5x20
 10
843.1533562140976
 20
398.3622162444244
 30
0.0
 41
-1.0
 50
180.0
  0
ENDSEC
  0
SECTION
  2
OBJECTS
  0
DICTIONARY
  5
A
330
0
100
AcDbDictionary
281
1
  3
ACAD_COLOR
350
B
  3
ACAD_GROUP
350
C
  3
ACAD_LAYOUT
350
D
  3
ACAD_MATERIAL
350
E
  3
ACAD_MLEADERSTYLE
350
F
  3
ACAD_MLINESTYLE
350
10
  3
ACAD_PLOTSETTINGS
350
11
  3
ACAD_PLOTSTYLENAME
350
12
  3
ACAD_SCALELIST
350
14
  3
ACAD_TABLESTYLE
350
15
  3
ACAD_VISUALSTYLE
350
16
  3
EZDXF_META
350
2D
  0
DICTIONARY
  5
B
330
A
100
AcDbDictionary
281
1
  0
DICTIONARY
  5
C
330
A
100
AcDbDictionary
281
1
  0
DICTIONARY
  5
D
330
A
100
AcDbDictionary
281
1
  3
Model
350
1A
  3
Layout1
350
1E
  0
DICTIONARY
  5
E
330
A
100
AcDbDictionary
281
1
  3
ByBlock
350
1F
  3
ByLayer
350
20
  3
Global
350
21
  0
DICTIONARY
  5
F
330
A
100
AcDbDictionary
281
1
  3
Standard
350
2C
  0
DICTIONARY
  5
10
330
A
100
AcDbDictionary
281
1
  3
Standard
350
22
  0
DICTIONARY
  5
11
330
A
100
AcDbDictionary
281
1
  0
ACDBDICTIONARYWDFLT
  5
12
330
A
100
AcDbDictionary
281
1
  3
Normal
350
13
100
AcDbDictionaryWithDefault
340
13
  0
ACDBPLACEHOLDER
  5
13
330
12
  0
DICTIONARY
  5
14
330
A
100
AcDbDictionary
281
1
  0
DICTIONARY
  5
15
330
A
100
AcDbDictionary
281
1
  0
DICTIONARY
  5
16
330
A
100
AcDbDictionary
281
1
  0
LAYOUT
  5
1A
330
D
100
AcDbPlotSettings
  1

  4
A3
  6

 40
7.5
 41
20.0
 42
7.5
 43
20.0
 44
420.0
 45
297.0
 46
0.0
 47
0.0
 48
0.0
 49
0.0
140
0.0
141
0.0
142
1.0
143
1.0
 70
1024
 72
1
 73
0
 74
5
  7

 75
16
 76
0
 77
2
 78
300
147
1.0
148
0.0
149
0.0
100
AcDbLayout
  1
Model
 70
1
 71
0
 10
0.0
 20
0.0
 11
420.0
 21
297.0
 12
0.0
 22
0.0
 32
0.0
 14
1e+20
 24
1e+20
 34
1e+20
 15
-1e+20
 25
-1e+20
 35
-1e+20
146
0.0
 13
0.0
 23
0.0
 33
0.0
 16
1.0
 26
0.0
 36
0.0
 17
0.0
 27
1.0
 37
0.0
 76
1
330
17
  0
LAYOUT
  5
1E
330
D
100
AcDbPlotSettings
  1

  4
A3
  6

 40
7.5
 41
20.0
 42
7.5
 43
20.0
 44
420.0
 45
297.0
 46
0.0
 47
0.0
 48
0.0
 49
0.0
140
0.0
141
0.0
142
1.0
143
1.0
 70
0
 72
1
 73
0
 74
5
  7

 75
16
 76
0
 77
2
 78
300
147
1.0
148
0.0
149
0.0
100
AcDbLayout
  1
Layout1
 70
1
 71
1
 10
0.0
 20
0.0
 11
420.0
 21
297.0
 12
0.0
 22
0.0
 32
0.0
 14
1e+20
 24
1e+20
 34
1e+20
 15
-1e+20
 25
-1e+20
 35
-1e+20
146
0.0
 13
0.0
 23
0.0
 33
0.0
 16
1.0
 26
0.0
 36
0.0
 17
0.0
 27
1.0
 37
0.0
 76
1
330
1B
  0
MATERIAL
  5
1F
102
{ACAD_REACTORS
330
E
102
}
330
E
100
AcDbMaterial
  1
ByBlock
  2

 70
0
 40
1.0
 71
1
 41
1.0
 91
-1023410177
 42
1.0
 72
1
  3

 73
1
 74
1
 75
1
 44
0.5
 73
0
 45
1.0
 46
1.0
 77
1
  4

 78
1
 79
1
170
1
 48
1.0
171
1
  6

172
1
173
1
174
1
140
1.0
141
1.0
175
1
  7

176
1
177
1
178
1
143
1.0
179
1
  8

270
1
271
1
272
1
145
1.0
146
1.0
273
1
  9

274
1
275
1
276
1
 42
1.0
 72
1
  3

 73
1
 74
1
 75
1
 94
63
  0
MATERIAL
  5
20
102
{ACAD_REACTORS
330
E
102
}
330
E
100
AcDbMaterial
  1
ByLayer
  2

 70
0
 40
1.0
 71
1
 41
1.0
 91
-1023410177
 42
1.0
 72
1
  3

 73
1
 74
1
 75
1
 44
0.5
 73
0
 45
1.0
 46
1.0
 77
1
  4

 78
1
 79
1
170
1
 48
1.0
171
1
  6

172
1
173
1
174
1
140
1.0
141
1.0
175
1
  7

176
1
177
1
178
1
143
1.0
179
1
  8

270
1
271
1
272
1
145
1.0
146
1.0
273
1
  9

274
1
275
1
276
1
 42
1.0
 72
1
  3

 73
1
 74
1
 75
1
 94
63
  0
MATERIAL
  5
21
102
{ACAD_REACTORS
330
E
102
}
330
E
100
AcDbMaterial
  1
Global
  2

 70
0
 40
1.0
 71
1
 41
1.0
 91
-1023410177
 42
1.0
 72
1
  3

 73
1
 74
1
 75
1
 44
0.5
 73
0
 45
1.0
 46
1.0
 77
1
  4

 78
1
 79
1
170
1
 48
1.0
171
1
  6

172
1
173
1
174
1
140
1.0
141
1.0
175
1
  7

176
1
177
1
178
1
143
1.0
179
1
  8

270
1
271
1
272
1
145
1.0
146
1.0
273
1
  9

274
1
275
1
276
1
 42
1.0
 72
1
  3

 73
1
 74
1
 75
1
 94
63
  0
MLINESTYLE
  5
22
102
{ACAD_REACTORS
330
10
102
}
330
10
100
AcDbMlineStyle
  2
Standard
 70
0
  3

 62
256
 51
90.0
 52
90.0
 71
2
 49
0.5
 62
256
  6
BYLAYER
 49
-0.5
 62
256
  6
BYLAYER
  0
MLEADERSTYLE
  5
2C
102
{ACAD_REACTORS
330
F
102
}
330
F
100
AcDbMLeaderStyle
179
2
170
2
171
1
172
0
 90
2
 40
0.0
 41
0.0
173
1
 91
-1056964608
 92
-2
290
1
 42
2.0
291
1
 43
8.0
  3
Standard
 44
4.0
300

342
29
174
1
175
1
176
0
178
1
 93
-1056964608
 45
4.0
292
0
297
0
 46
4.0
 94
-1056964608
 47
1.0
 49
1.0
140
1.0
294
1
141
0.0
177
0
142
1.0
295
0
296
0
143
3.75
271
0
272
9
273
9
  0
DICTIONARY
  5
2D
330
A
100
AcDbDictionary
280
1
281
1
  3
CREATED_BY_EZDXF
350
2E
  3
WRITTEN_BY_EZDXF
350
14E
  0
DICTIONARYVAR
  5
2E
330
2D
100
DictionaryVariables
280
0
  1
1.4.4 @ 2026-09-24T06:32:04.108523+00:00
  0
DICTIONARYVAR
  5
14E
330
2D
100
DictionaryVariables
280
0
  1
1.4.4 @ 2026-09-24T06:37:20.968089+00:00
  0
ENDSEC
  0
EOF
