  0
SECTION
  2
HEADER
  9
$ACADVER
  1
AC1032
  9
$ACADMAINTVER
 90
4
  9
$DWGCODEPAGE
  3
ANSI_1252
  9
$LASTSAVEDBY
  1
ezdxf
  9
$REQUIREDVERSIONS
160
0
  9
$INSBASE
 10
0.0
 20
0.0
 30
0.0
  9
$EXTMIN
 10
1e+20
 20
1e+20
 30
1e+20
  9
$EXTMAX
 10
-1e+20
 20
-1e+20
 30
-1e+20
  9
$LIMMIN
 10
0.0
 20
0.0
  9
$LIMMAX
 10
420.0
 20
297.0
  9
$ORTHOMODE
 70
0
  9
$REGENMODE
 70
1
  9
$FILLMODE
 70
1
  9
$QTEXTMODE
 70
0
  9
$MIRRTEXT
 70
1
  9
$LTSCALE
 40
1.0
  9
$ATTMODE
 70
1
  9
$TEXTSIZE
 40
2.5
  9
$TRACEWID
 40
1.0
  9
$TEXTSTYLE
  7
Standard
  9
$CLAYER
  8
0
  9
$CELTYPE
  6
ByLayer
  9
$CECOLOR
 62
256
  9
$CELTSCALE
 40
1.0
  9
$DISPSILH
 70
0
  9
$DIMSCALE
 40
1.0
  9
$DIMASZ
 40
2.5
  9
$DIMEXO
 40
0.625
  9
$DIMDLI
 40
3.75
  9
$DIMRND
 40
0.0
  9
$DIMDLE
 40
0.0
  9
$DIMEXE
 40
1.25
  9
$DIMTP
 40
0.0
  9
$DIMTM
 40
0.0
  9
$DIMTXT
 40
2.5
  9
$DIMCEN
 40
2.5
  9
$DIMTSZ
 40
0.0
  9
$DIMTOL
 70
0
  9
$DIMLIM
 70
0
  9
$DIMTIH
 70
0
  9
$DIMTOH
 70
0
  9
$DIMSE1
 70
0
  9
$DIMSE2
 70
0
  9
$DIMTAD
 70
1
  9
$DIMZIN
 70
8
  9
$DIMBLK
  1

  9
$DIMASO
 70
1
  9
$DIMSHO
 70
1
  9
$DIMPOST
  1

  9
$DIMAPOST
  1

  9
$DIMALT
 70
0
  9
$DIMALTD
 70
3
  9
$DIMALTF
 40
0.03937007874
  9
$DIMLFAC
 40
1.0
  9
$DIMTOFL
 70
1
  9
$DIMTVP
 40
0.0
  9
$DIMTIX
 70
0
  9
$DIMSOXD
 70
0
  9
$DIMSAH
 70
0
  9
$DIMBLK1
  1

  9
$DIMBLK2
  1

  9
$DIMSTYLE
  2
ISO-25
  9
$DIMCLRD
 70
0
  9
$DIMCLRE
 70
0
  9
$DIMCLRT
 70
0
  9
$DIMTFAC
 40
1.0
  9
$DIMGAP
 40
0.625
  9
$DIMJUST
 70
0
  9
$DIMSD1
 70
0
  9
$DIMSD2
 70
0
  9
$DIMTOLJ
 70
0
  9
$DIMTZIN
 70
8
  9
$DIMALTZ
 70
0
  9
$DIMALTTZ
 70
0
  9
$DIMUPT
 70
0
  9
$DIMDEC
 70
2
  9
$DIMTDEC
 70
2
  9
$DIMALTU
 70
2
  9
$DIMALTTD
 70
3
  9
$DIMTXSTY
  7
Standard
  9
$DIMAUNIT
 70
0
  9
$DIMADEC
 70
0
  9
$DIMALTRND
 40
0.0
  9
$DIMAZIN
 70
0
  9
$DIMDSEP
 70
44
  9
$DIMATFIT
 70
3
  9
$DIMFRAC
 70
0
  9
$DIMLDRBLK
  1

  9
$DIMLUNIT
 70
2
  9
$DIMLWD
 70
-2
  9
$DIMLWE
 70
-2
  9
$DIMTMOVE
 70
0
  9
$DIMFXL
 40
1.0
  9
$DIMFXLON
 70
0
  9
$DIMJOGANG
 40
0.785398163397
  9
$DIMTFILL
 70
0
  9
$DIMTFILLCLR
 70
0
  9
$DIMARCSYM
 70
0
  9
$DIMLTYPE
  6

  9
$DIMLTEX1
  6

  9
$DIMLTEX2
  6

  9
$DIMTXTDIRECTION
 70
0
  9
$LUNITS
 70
2
  9
$LUPREC
 70
4
  9
$SKETCHINC
 40
1.0
  9
$FILLETRAD
 40
10.0
  9
$AUNITS
 70
0
  9
$AUPREC
 70
2
  9
$MENU
  1
.
  9
$ELEVATION
 40
0.0
  9
$PELEVATION
 40
0.0
  9
$THICKNESS
 40
0.0
  9
$LIMCHECK
 70
0
  9
$CHAMFERA
 40
0.0
  9
$CHAMFERB
 40
0.0
  9
$CHAMFERC
 40
0.0
  9
$CHAMFERD
 40
0.0
  9
$SKPOLY
 70
0
  9
$TDCREATE
 40
2461308.567986111
  9
$TDUCREATE
 40
2458532.153996898
  9
$TDUPDATE
 40
2461308.567986111
  9
$TDUUPDATE
 40
2458532.1544311
  9
$TDINDWG
 40
0.0
  9
$TDUSRTIMER
 40
0.0
  9
$USRTIMER
 70
1
  9
$ANGBASE
 50
0.0
  9
$ANGDIR
 70
0
  9
$PDMODE
 70
0
  9
$PDSIZE
 40
0.0
  9
$PLINEWID
 40
0.0
  9
$SPLFRAME
 70
0
  9
$SPLINETYPE
 70
6
  9
$SPLINESEGS
 70
8
  9
$HANDSEED
  5
375
  9
$SURFTAB1
 70
6
  9
$SURFTAB2
 70
6
  9
$SURFTYPE
 70
6
  9
$SURFU
 70
6
  9
$SURFV
 70
6
  9
$UCSBASE
  2

  9
$UCSNAME
  2

  9
$UCSORG
 10
0.0
 20
0.0
 30
0.0
  9
$UCSXDIR
 10
1.0
 20
0.0
 30
0.0
  9
$UCSYDIR
 10
0.0
 20
1.0
 30
0.0
  9
$UCSORTHOREF
  2

  9
$UCSORTHOVIEW
 70
0
  9
$UCSORGTOP
 10
0.0
 20
0.0
 30
0.0
  9
$UCSORGBOTTOM
 10
0.0
 20
0.0
 30
0.0
  9
$UCSORGLEFT
 10
0.0
 20
0.0
 30
0.0
  9
$UCSORGRIGHT
 10
0.0
 20
0.0
 30
0.0
  9
$UCSORGFRONT
 10
0.0
 20
0.0
 30
0.0
  9
$UCSORGBACK
 10
0.0
 20
0.0
 30
0.0
  9
$PUCSBASE
  2

  9
$PUCSNAME
  2

  9
$PUCSORG
 10
0.0
 20
0.0
 30
0.0
  9
$PUCSXDIR
 10
1.0
 20
0.0
 30
0.0
  9
$PUCSYDIR
 10
0.0
 20
1.0
 30
0.0
  9
$PUCSORTHOREF
  2

  9
$PUCSORTHOVIEW
 70
0
  9
$PUCSORGTOP
 10
0.0
 20
0.0
 30
0.0
  9
$PUCSORGBOTTOM
 10
0.0
 20
0.0
 30
0.0
  9
$PUCSORGLEFT
 10
0.0
 20
0.0
 30
0.0
  9
$PUCSORGRIGHT
 10
0.0
 20
0.0
 30
0.0
  9
$PUCSORGFRONT
 10
0.0
 20
0.0
 30
0.0
  9
$PUCSORGBACK
 10
0.0
 20
0.0
 30
0.0
  9
$USERI1
 70
0
  9
$USERI2
 70
0
  9
$USERI3
 70
0
  9
$USERI4
 70
0
  9
$USERI5
 70
0
  9
$USERR1
 40
0.0
  9
$USERR2
 40
0.0
  9
$USERR3
 40
0.0
  9
$USERR4
 40
0.0
  9
$USERR5
 40
0.0
  9
$WORLDVIEW
 70
1
  9
$SHADEDGE
 70
3
  9
$SHADEDIF
 70
70
  9
$TILEMODE
 70
1
  9
$MAXACTVP
 70
64
  9
$PINSBASE
 10
0.0
 20
0.0
 30
0.0
  9
$PLIMCHECK
 70
0
  9
$PEXTMIN
 10
1e+20
 20
1e+20
 30
1e+20
  9
$PEXTMAX
 10
-1e+20
 20
-1e+20
 30
-1e+20
  9
$PLIMMIN
 10
0.0
 20
0.0
  9
$PLIMMAX
 10
420.0
 20
297.0
  9
$UNITMODE
 70
0
  9
$VISRETAIN
 70
1
  9
$PLINEGEN
 70
0
  9
$PSLTSCALE
 70
1
  9
$TREEDEPTH
 70
3020
  9
$CMLSTYLE
  2
Standard
  9
$CMLJUST
 70
0
  9
$CMLSCALE
 40
20.0
  9
$PROXYGRAPHICS
 70
1
  9
$MEASUREMENT
 70
1
  9
$CELWEIGHT
370
-1
  9
$ENDCAPS
280
0
  9
$JOINSTYLE
280
0
  9
$LWDISPLAY
290
0
  9
$INSUNITS
 70
4
  9
$HYPERLINKBASE
  1

  9
$STYLESHEET
  1

  9
$XEDIT
290
1
  9
$CEPSNTYPE
380
0
  9
$PSTYLEMODE
290
1
  9
$FINGERPRINTGUID
  2
{8A347D20-65DB-454E-819A-8E064334F185}
  9
$VERSIONGUID
  2
{126EC279-D961-4609-B4B5-976BA81B1860}
  9
$EXTNAMES
290
1
  9
$PSVPSCALE
 40
0.0
  9
$OLESTARTUP
290
0
  9
$SORTENTS
280
127
  9
$INDEXCTL
280
0
  9
$HIDETEXT
280
1
  9
$XCLIPFRAME
280
1
  9
$HALOGAP
280
0
  9
$OBSCOLOR
 70
257
  9
$OBSLTYPE
280
0
  9
$INTERSECTIONDISPLAY
280
0
  9
$INTERSECTIONCOLOR
 70
257
  9
$DIMASSOC
280
2
  9
$PROJECTNAME
  1

  9
$CAMERADISPLAY
290
0
  9
$LENSLENGTH
 40
50.0
  9
$CAMERAHEIGHT
 40
0.0
  9
$STEPSPERSEC
 40
24.0
  9
$STEPSIZE
 40
100.0
  9
$3DDWFPREC
 40
2.0
  9
$PSOLWIDTH
 40
0.005
  9
$PSOLHEIGHT
 40
0.08
  9
$LOFTANG1
 40
1.570796326795
  9
$LOFTANG2
 40
1.570796326795
  9
$LOFTMAG1
 40
0.0
  9
$LOFTMAG2
 40
0.0
  9
$LOFTPARAM
 70
7
  9
$LOFTNORMALS
280
1
  9
$LATITUDE
 40
37.795
  9
$LONGITUDE
 40
-122.394
  9
$NORTHDIRECTION
 40
0.0
  9
$TIMEZONE
 70
-8000
  9
$LIGHTGLYPHDISPLAY
280
1
  9
$TILEMODELIGHTSYNCH
280
1
  9
$CMATERIAL
347
20
  9
$SOLIDHIST
280
0
  9
$SHOWHIST
280
1
  9
$DWFFRAME
280
2
  9
$DGNFRAME
280
2
  9
$REALWORLDSCALE
290
1
  9
$INTERFERECOLOR
 62
256
  9
$CSHADOW
280
0
  9
$SHADOWPLANELOCATION
 40
0.0
  0
ENDSEC
  0
SECTION
  2
CLASSES
  0
CLASS
  1
ACDBDICTIONARYWDFLT
  2
AcDbDictionaryWithDefault
  3
ObjectDBX Classes
 90
0
 91
0
280
0
281
0
  0
CLASS
  1
SUN
  2
AcDbSun
  3
SCENEOE
 90
1153
 91
0
280
0
281
0
  0
CLASS
  1
VISUALSTYLE
  2
AcDbVisualStyle
  3
ObjectDBX Classes
 90
4095
 91
0
280
0
281
0
  0
CLASS
  1
MATERIAL
  2
AcDbMaterial
  3
ObjectDBX Classes
 90
1153
 91
0
280
0
281
0
  0
CLASS
  1
SCALE
  2
AcDbScale
  3
ObjectDBX Classes
 90
1153
 91
0
280
0
281
0
  0
CLASS
  1
TABLESTYLE
  2
AcDbTableStyle
  3
ObjectDBX Classes
 90
4095
 91
0
280
0
281
0
  0
CLASS
  1
MLEADERSTYLE
  2
AcDbMLeaderStyle
  3
ACDB_MLEADERSTYLE_CLASS
 90
4095
 91
0
280
0
281
0
  0
CLASS
  1
DICTIONARYVAR
  2
AcDbDictionaryVar
  3
ObjectDBX Classes
 90
0
 91
0
280
0
281
0
  0
CLASS
  1
CELLSTYLEMAP
  2
AcDbCellStyleMap
  3
ObjectDBX Classes
 90
1152
 91
0
280
0
281
0
  0
CLASS
  1
MENTALRAYRENDERSETTINGS
  2
AcDbMentalRayRenderSettings
  3
SCENEOE
 90
1024
 91
0
280
0
281
0
  0
CLASS
  1
ACDBDETAILVIEWSTYLE
  2
AcDbDetailViewStyle
  3
ObjectDBX Classes
 90
1025
 91
0
280
0
281
0
  0
CLASS
  1
ACDBSECTIONVIEWSTYLE
  2
AcDbSectionViewStyle
  3
ObjectDBX Classes
 90
1025
 91
0
280
0
281
0
  0
CLASS
  1
RASTERVARIABLES
  2
AcDbRasterVariables
  3
ISM
 90
0
 91
0
280
0
281
0
  0
CLASS
  1
ACDBPLACEHOLDER
  2
AcDbPlaceHolder
  3
ObjectDBX Classes
 90
0
 91
0
280
0
281
0
  0
CLASS
  1
LAYOUT
  2
AcDbLayout
  3
ObjectDBX Classes
 90
0
 91
0
280
0
281
0
  0
ENDSEC
  0
SECTION
  2
TABLES
  0
TABLE
  2
VPORT
  5
8
330
0
100
AcDbSymbolTable
 70
1
  0
VPORT
  5
23
330
8
100
AcDbSymbolTableRecord
100
AcDbViewportTableRecord
  2
*Active
 70
0
 10
0.0
 20
0.0
 11
1.0
 21
1.0
 12
0.0
 22
0.0
 13
0.0
 23
0.0
 14
0.5
 24
0.5
 15
0.5
 25
0.5
 16
0.0
 26
0.0
 36
1.0
 17
0.0
 27
0.0
 37
0.0
 40
1000.0
 41
1.34
 42
50.0
 43
0.0
 44
0.0
 50
0.0
 51
0.0
 71
0
 72
1000
 73
1
 74
3
 75
0
 76
0
 77
0
 78
0
281
0
 65
0
146
0.0
  0
ENDTAB
  0
TABLE
  2
LTYPE
  5
2
330
0
100
AcDbSymbolTable
 70
5
  0
LTYPE
  5
24
330
2
100
AcDbSymbolTableRecord
100
AcDbLinetypeTableRecord
  2
ByBlock
 70
0
  3

 72
65
 73
0
 40
0.0
  0
LTYPE
  5
25
330
2
100
AcDbSymbolTableRecord
100
AcDbLinetypeTableRecord
  2
ByLayer
 70
0
  3

 72
65
 73
0
 40
0.0
  0
LTYPE
  5
26
330
2
100
AcDbSymbolTableRecord
100
AcDbLinetypeTableRecord
  2
Continuous
 70
0
  3

 72
65
 73
0
 40
0.0
  0
LTYPE
  5
2EF
330
2
100
AcDbSymbolTableRecord
100
AcDbLinetypeTableRecord
  2
HIDDEN2
 70
0
  3
Hidden (.5x) _ _ _ _ _ _ _ _ _ _ _ _ _ _ _ _ _
 72
65
 73
2
 40
4.762499999999998
 49
3.174999999999998
 74
0
 49
-1.587499999999999
 74
0
  0
LTYPE
  5
2F0
330
2
100
AcDbSymbolTableRecord
100
AcDbLinetypeTableRecord
  2
HIDDENX2
 70
0
  3
Hidden (2x) ____ ____ ____ ____ ____ ____ ____
 72
65
 73
2
 40
19.05
 49
12.7
 74
0
 49
-6.349999999999999
 74
0
  0
ENDTAB
  0
TABLE
  2
LAYER
  5
1
330
0
100
AcDbSymbolTable
 70
8
  0
LAYER
  5
27
330
1
100
AcDbSymbolTableRecord
100
AcDbLayerTableRecord
  2
0
 70
0
 62
7
  6
Continuous
370
-3
390
13
347
21
  0
LAYER
  5
28
330
1
100
AcDbSymbolTableRecord
100
AcDbLayerTableRecord
  2
Defpoints
 70
0
 62
7
  6
Continuous
290
0
370
-3
390
13
347
21
  0
LAYER
  5
2E9
330
1
100
AcDbSymbolTableRecord
100
AcDbLayerTableRecord
  2
07
 70
0
 62
5
  6
Continuous
370
5
390
13
347
21
  0
LAYER
  5
2EA
330
1
100
AcDbSymbolTableRecord
100
AcDbLayerTableRecord
  2
HEATER
 70
0
 62
1
  6
Continuous
370
-3
390
13
347
21
  0
LAYER
  5
2EB
330
1
100
AcDbSymbolTableRecord
100
AcDbLayerTableRecord
  2
0 TĂNG CỨNG
 70
0
 62
7
  6
Continuous
370
15
390
13
347
21
  0
LAYER
  5
2EC
330
1
100
AcDbSymbolTableRecord
100
AcDbLayerTableRecord
  2
DIM
 70
0
 62
253
  6
Continuous
370
-3
390
13
347
21
  0
LAYER
  5
2ED
330
1
100
AcDbSymbolTableRecord
100
AcDbLayerTableRecord
  2
01
 70
0
 62
7
  6
HIDDEN2
370
-3
390
13
347
21
  0
LAYER
  5
2EE
330
1
100
AcDbSymbolTableRecord
100
AcDbLayerTableRecord
  2
E_Electrical Equipment
 70
0
 62
35
  6
Continuous
370
5
390
13
347
21
  0
ENDTAB
  0
TABLE
  2
STYLE
  5
5
330
0
100
AcDbSymbolTable
 70
3
  0
STYLE
  5
29
330
5
100
AcDbSymbolTableRecord
100
AcDbTextStyleTableRecord
  2
Standard
 70
0
 40
0.0
 41
1.0
 50
0.0
 71
0
 42
2.5
  3
txt
  4

  0
STYLE
  5
2F1
330
5
100
AcDbSymbolTableRecord
100
AcDbTextStyleTableRecord
  2
Arial
 70
0
 40
0.0
 41
1.0
 50
0.0
 71
0
 42
0.2
  3
arial.ttf
  4

  0
STYLE
  5
2F2
330
5
100
AcDbSymbolTableRecord
100
AcDbTextStyleTableRecord
  2
Arial-Black
 70
0
 40
0.0
 41
1.0
 50
0.0
 71
0
 42
2.0
  3

  4

  0
ENDTAB
  0
TABLE
  2
VIEW
  5
7
330
0
100
AcDbSymbolTable
 70
0
  0
ENDTAB
  0
TABLE
  2
UCS
  5
6
330
0
100
AcDbSymbolTable
 70
0
  0
ENDTAB
  0
TABLE
  2
APPID
  5
3
330
0
100
AcDbSymbolTable
 70
3
  0
APPID
  5
2A
330
3
100
AcDbSymbolTableRecord
100
AcDbRegAppTableRecord
  2
ACAD
 70
0
  0
APPID
  5
2F3
330
3
100
AcDbSymbolTableRecord
100
AcDbRegAppTableRecord
  2
HATCHBACKGROUNDCOLOR
 70
0
  0
APPID
  5
2F4
330
3
100
AcDbSymbolTableRecord
100
AcDbRegAppTableRecord
  2
EZDXF
 70
0
  0
ENDTAB
  0
TABLE
  2
DIMSTYLE
  5
4
330
0
100
AcDbSymbolTable
 70
2
100
AcDbDimStyleTable
  0
DIMSTYLE
105
2B
330
4
100
AcDbSymbolTableRecord
100
AcDbDimStyleTableRecord
  2
Standard
 70
0
 40
1.0
 41
2.5
 42
0.625
 43
3.75
 44
1.25
 45
0.0
 46
0.0
 47
0.0
 48
0.0
 49
2.5
140
2.5
141
2.5
142
0.0
143
0.03937007874
144
1.0
145
0.0
146
1.0
147
0.625
148
0.0
 69
0
 70
0
 71
0
 72
0
 73
0
 74
0
 75
0
 76
0
 77
1
 78
8
 79
3
170
0
171
3
172
1
173
0
174
0
175
0
176
0
177
0
178
0
179
2
271
2
272
2
273
2
274
3
275
0
276
0
277
2
278
44
279
0
280
0
281
0
282
0
283
0
284
8
285
0
286
0
288
0
289
3
290
0
371
-2
372
-2
  0
DIMSTYLE
105
2E8
330
4
100
AcDbSymbolTableRecord
100
AcDbDimStyleTableRecord
  2
Dim-25
 70
0
 40
1.0
 41
8.0
 42
15.0
 43
3.75
 44
10.0
 45
0.0
 46
0.0
 47
0.0
 48
0.0
 49
2.5
140
25.0
141
10.0
142
0.0
143
0.03937007874016
144
1.0
145
0.0
146
1.0
147
10.0
148
0.0
 69
0
 70
0
 71
0
 72
0
 73
0
 74
0
 75
0
 76
0
 77
1
 78
8
 79
3
170
0
171
3
172
1
173
0
174
0
175
0
176
5
177
5
178
3
179
2
271
0
272
0
273
2
274
3
275
0
276
0
277
2
278
44
279
0
280
0
281
0
282
0
283
0
284
8
285
0
286
0
288
0
289
3
290
0
340
29
341
56
342
56
345
25
346
25
347
25
371
9
372
9
  0
ENDTAB
  0
TABLE
  2
BLOCK_RECORD
  5
9
330
0
100
AcDbSymbolTable
 70
26
  0
BLOCK_RECORD
  5
17
330
9
100
AcDbSymbolTableRecord
100
AcDbBlockTableRecord
  2
*Model_Space
340
1A
 70
0
280
1
281
0
  0
BLOCK_RECORD
  5
1B
330
9
100
AcDbSymbolTableRecord
100
AcDbBlockTableRecord
  2
*Paper_Space
340
1E
 70
0
280
1
281
0
  0
BLOCK_RECORD
  5
56
330
9
100
AcDbSymbolTableRecord
100
AcDbBlockTableRecord
  2
_Oblique
340
0
 70
0
280
1
281
0
  0
BLOCK_RECORD
  5
104
330
9
100
AcDbSymbolTableRecord
100
AcDbBlockTableRecord
  2
KHUNG CHUẨN
340
0
 70
0
280
1
281
0
  0
BLOCK_RECORD
  5
12C
330
9
100
AcDbSymbolTableRecord
100
AcDbBlockTableRecord
  2
HL003-2-2
340
0
 70
0
280
1
281
0
  0
BLOCK_RECORD
  5
136
330
9
100
AcDbSymbolTableRecord
100
AcDbBlockTableRecord
  2
AB301-3-1
340
0
 70
0
280
1
281
0
  0
BLOCK_RECORD
  5
148
330
9
100
AcDbSymbolTableRecord
100
AcDbBlockTableRecord
  2
BKN 1P
340
0
 70
0
280
1
281
0
  0
BLOCK_RECORD
  5
170
330
9
100
AcDbSymbolTableRecord
100
AcDbBlockTableRecord
  2
MS722
340
0
 70
0
280
1
281
0
  0
BLOCK_RECORD
  5
177
330
9
100
AcDbSymbolTableRecord
100
AcDbBlockTableRecord
  2
BKN 2P
340
0
 70
0
280
1
281
0
  0
BLOCK_RECORD
  5
1A4
330
9
100
AcDbSymbolTableRecord
100
AcDbBlockTableRecord
  2
Den XANH
340
0
 70
0
280
1
281
0
  0
BLOCK_RECORD
  5
1B1
330
9
100
AcDbSymbolTableRecord
100
AcDbBlockTableRecord
  2
Den DO
340
0
 70
0
280
1
281
0
  0
BLOCK_RECORD
  5
1BE
330
9
100
AcDbSymbolTableRecord
100
AcDbBlockTableRecord
  2
Den VANG
340
0
 70
0
280
1
281
0
  0
BLOCK_RECORD
  5
1CB
330
9
100
AcDbSymbolTableRecord
100
AcDbBlockTableRecord
  2
BKN 3P
340
0
 70
0
280
1
281
0
  0
BLOCK_RECORD
  5
232
330
9
100
AcDbSymbolTableRecord
100
AcDbBlockTableRecord
  2
HCC BKN
340
0
 70
0
280
1
281
0
  0
BLOCK_RECORD
  5
254
330
9
100
AcDbSymbolTableRecord
100
AcDbBlockTableRecord
  2
HL003-2-3
340
0
 70
0
280
1
281
0
  0
BLOCK_RECORD
  5
269
330
9
100
AcDbSymbolTableRecord
100
AcDbBlockTableRecord
  2
LS 100AF 3P
340
0
 70
0
280
1
281
0
  0
BLOCK_RECORD
  5
27F
330
9
100
AcDbSymbolTableRecord
100
AcDbBlockTableRecord
  2
SDGFGHGHG
340
0
 70
0
280
1
281
0
  0
BLOCK_RECORD
  5
294
330
9
100
AcDbSymbolTableRecord
100
AcDbBlockTableRecord
  2
SĐFHGGH
340
0
 70
0
280
1
281
0
  0
BLOCK_RECORD
  5
29F
330
9
100
AcDbSymbolTableRecord
100
AcDbBlockTableRecord
  2
CB LS 30AF 3P
340
0
 70
0
280
1
281
0
  0
BLOCK_RECORD
  5
321
330
9
100
AcDbSymbolTableRecord
100
AcDbBlockTableRecord
  2
*D1
340
0
 70
0
280
1
281
0
  0
BLOCK_RECORD
  5
32D
330
9
100
AcDbSymbolTableRecord
100
AcDbBlockTableRecord
  2
*D2
340
0
 70
0
280
1
281
0
  0
BLOCK_RECORD
  5
339
330
9
100
AcDbSymbolTableRecord
100
AcDbBlockTableRecord
  2
*D3
340
0
 70
0
280
1
281
0
  0
BLOCK_RECORD
  5
345
330
9
100
AcDbSymbolTableRecord
100
AcDbBlockTableRecord
  2
*D4
340
0
 70
0
280
1
281
0
  0
BLOCK_RECORD
  5
351
330
9
100
AcDbSymbolTableRecord
100
AcDbBlockTableRecord
  2
*D5
340
0
 70
0
280
1
281
0
  0
BLOCK_RECORD
  5
35D
330
9
100
AcDbSymbolTableRecord
100
AcDbBlockTableRecord
  2
*D6
340
0
 70
0
280
1
281
0
  0
BLOCK_RECORD
  5
369
330
9
100
AcDbSymbolTableRecord
100
AcDbBlockTableRecord
  2
*D7
340
0
 70
0
280
1
281
0
  0
ENDTAB
  0
ENDSEC
  0
SECTION
  2
BLOCKS
  0
BLOCK
  5
18
330
17
100
AcDbEntity
  8
0
100
AcDbBlockBegin
  2
*Model_Space
 70
0
 10
0.0
 20
0.0
 30
0.0
  3
*Model_Space
  1

  0
ENDBLK
  5
19
330
17
100
AcDbEntity
  8
0
100
AcDbBlockEnd
  0
BLOCK
  5
1C
330
1B
100
AcDbEntity
  8
0
100
AcDbBlockBegin
  2
*Paper_Space
 70
0
 10
0.0
 20
0.0
 30
0.0
  3
*Paper_Space
  1

  0
ENDBLK
  5
1D
330
1B
100
AcDbEntity
  8
0
100
AcDbBlockEnd
  0
BLOCK
  5
57
330
56
100
AcDbEntity
  8
0
100
AcDbBlockBegin
  2
_Oblique
 70
0
 10
0.0
 20
0.0
 30
0.0
  3
_Oblique
  1

  0
LINE
  5
59
330
56
100
AcDbEntity
  8
0
  6
ByBlock
 62
0
370
-2
100
AcDbLine
 10
-0.5
 20
-0.5
 30
0.0
 11
0.5
 21
0.5
 31
0.0
  0
ENDBLK
  5
58
330
56
100
AcDbEntity
  8
0
100
AcDbBlockEnd
  0
BLOCK
  5
105
330
104
100
AcDbEntity
  8
0
100
AcDbBlockBegin
  2
KHUNG CHUẨN
 70
2
 10
0.0
 20
0.0
 30
0.0
  3
KHUNG CHUẨN
  1

  0
LWPOLYLINE
  5
107
330
104
100
AcDbEntity
  8
0
 62
7
100
AcDbPolyline
 90
4
 70
1
 10
16919.24922090965
 20
-26555.15926993403
 10
19889.24922091007
 20
-26555.15926993403
 10
19889.24922091007
 20
-28655.15926993435
 10
16919.24922090965
 20
-28655.15926993435
  0
LINE
  5
108
330
104
100
AcDbEntity
  8
0
 62
7
100
AcDbLine
 10
18939.24922090965
 20
-28595.15926993434
 30
0.0
 11
16919.24922090965
 21
-28595.15926993434
 31
0.0
  0
LINE
  5
109
330
104
100
AcDbEntity
  8
0
 62
7
100
AcDbLine
 10
19889.24922091007
 20
-28535.15926993435
 30
0.0
 11
16919.24922090965
 21
-28535.15926993435
 31
0.0
  0
LINE
  5
10A
330
104
100
AcDbEntity
  8
0
 62
7
100
AcDbLine
 10
17239.24922090965
 20
-28535.15926993435
 30
0.0
 11
17239.24922090965
 21
-28595.15926993434
 31
0.0
  0
LINE
  5
10B
330
104
100
AcDbEntity
  8
0
 62
7
100
AcDbLine
 10
17809.24922090965
 20
-28535.15926993435
 30
0.0
 11
17809.24922090965
 21
-28655.15926993435
 31
0.0
  0
LINE
  5
10C
330
104
100
AcDbEntity
  8
0
 62
7
100
AcDbLine
 10
18599.24922090965
 20
-28535.15926993435
 30
0.0
 11
18599.24922090965
 21
-28655.15926993435
 31
0.0
  0
LINE
  5
10D
330
104
100
AcDbEntity
  8
0
 62
7
100
AcDbLine
 10
18939.24922090965
 20
-28535.15926993435
 30
0.0
 11
18939.24922090965
 21
-28655.15926993435
 31
0.0
  0
LINE
  5
10E
330
104
100
AcDbEntity
  8
0
 62
7
100
AcDbLine
 10
19779.24922091007
 20
-28535.15926993435
 30
0.0
 11
19779.24922091007
 21
-28655.15926993435
 31
0.0
  0
MTEXT
  5
10F
330
104
100
AcDbEntity
  8
0
 62
2
100
AcDbMText
 10
16919.24922090965
 20
-28565.15926993435
 30
0.0
 40
20.0
 41
917.6339389950801
 46
60.00000000000113
 71
4
 72
5
  1
  Thiết kế :
  7
Arial
  0
MTEXT
  5
110
330
104
100
AcDbEntity
  8
0
 62
2
100
AcDbMText
 10
16919.24922090965
 20
-28625.15926993435
 30
0.0
 40
20.0
 41
917.6339389950801
 46
60.00000000000113
 71
4
 72
5
  1
  CNC :
  7
Arial
  0
MTEXT
  5
111
330
104
100
AcDbEntity
  8
0
 62
2
100
AcDbMText
 10
17239.24922090965
 20
-28565.15926993435
 30
0.0
 40
20.0
 41
917.6339389950801
 46
60.00000000000113
 71
4
 72
5
  1
  Khách hàng :
  7
Arial
  0
MTEXT
  5
112
330
104
100
AcDbEntity
  8
0
 62
2
100
AcDbMText
 10
17466.28942955682
 20
-28625.15926993435
 30
0.0
 40
20.0
 41
556.6509010178333
 46
60.00000000000113
 71
4
 72
5
  1
  Ngày giao:
  7
Arial
  0
MTEXT
  5
113
330
104
100
AcDbEntity
  8
0
 62
2
100
AcDbMText
 10
17809.24922090965
 20
-28565.15926993435
 30
0.0
 40
20.0
 41
917.6339389950801
 46
60.00000000000113
 71
4
 72
5
  1
  Tên sản phẩm :
  7
Arial
  0
MTEXT
  5
114
330
104
100
AcDbEntity
  8
0
 62
2
100
AcDbMText
 10
17809.24922090965
 20
-28625.15926993435
 30
0.0
 40
20.0
 41
917.6339389950801
 46
60.00000000000113
 71
4
 72
5
  1
  Kích thước :
  7
Arial
  0
MTEXT
  5
115
330
104
100
AcDbEntity
  8
0
 62
2
100
AcDbMText
 10
18599.24922090965
 20
-28565.15926993435
 30
0.0
 40
20.0
 41
917.6339389950801
 46
60.00000000000113
 71
4
 72
5
  1
  Số lượng :
  7
Arial
  0
MTEXT
  5
116
330
104
100
AcDbEntity
  8
0
 62
2
100
AcDbMText
 10
18599.24922090965
 20
-28625.15926993435
 30
0.0
 40
20.0
 41
917.6339389950801
 46
60.00000000000113
 71
4
 72
5
  1
  Loại tôn :
  7
Arial
  0
MTEXT
  5
117
330
104
100
AcDbEntity
  8
0
 62
2
100
AcDbMText
 10
18993.40450252067
 20
-28595.15926993434
 30
0.0
 40
20.0
 41
108.3105632220314
 46
120.0000000000011
 71
5
 72
5
  1
Thông\Ptin :
  7
Arial
  0
MTEXT
  5
118
330
104
100
AcDbEntity
  8
0
 62
2
100
AcDbMText
 10
19834.24922091007
 20
-28565.15926993435
 30
0.0
 40
20.0
 41
110.0000000000065
 46
60.00000000000113
 71
5
 72
5
  1
Tờ
  7
Arial
  0
LINE
  5
119
330
104
100
AcDbEntity
  8
0
 62
7
100
AcDbLine
 10
19047.55978413167
 20
-28560.15926993435
 30
0.0
 11
19047.55978413167
 21
-28630.15926993435
 31
0.0
  0
MTEXT
  5
11A
330
104
100
AcDbEntity
  8
0
 62
2
100
AcDbMText
 10
18548.56684883467
 20
-28625.15926993435
 30
0.0
 40
20.0
 41
73.8305401162098
 46
60.00000000000113
 71
4
 72
5
  1
mm
  7
Arial
  0
MTEXT
  5
11B
330
104
100
AcDbEntity
  8
0
 62
2
100
AcDbMText
 10
18897.93889973559
 20
-28565.15926993435
 30
0.0
 40
20.0
 41
63.51722131864801
 46
60.00000000000113
 71
4
 72
5
  1
cái
  7
Arial
  0
MTEXT
  5
11C
330
104
100
AcDbEntity
  8
0
 62
2
100
AcDbMText
 10
18889.20613294428
 20
-28625.15926993435
 30
0.0
 40
20.0
 41
917.6339389950801
 46
60.00000000000113
 71
4
 72
5
  1
mm
  7
Arial
  0
LINE
  5
11D
330
104
100
AcDbEntity
  8
0
 62
7
100
AcDbLine
 10
17139.24922090965
 20
-28595.15926993434
 30
0.0
 11
17139.24922090965
 21
-28655.15926993435
 31
0.0
  0
MTEXT
  5
11E
330
104
100
AcDbEntity
  8
0
 62
2
100
AcDbMText
 10
17134.01855837237
 20
-28625.15926993435
 30
0.0
 40
20.0
 41
556.6509010178333
 46
60.00000000000113
 71
4
 72
5
  1
  Ngày nhận :
  7
Arial
  0
LINE
  5
11F
330
104
100
AcDbEntity
  8
0
 62
7
100
AcDbLine
 10
17474.24922090965
 20
-28595.15926993434
 30
0.0
 11
17474.24922090965
 21
-28655.15926993435
 31
0.0
  0
ATTDEF
  5
120
330
104
100
AcDbEntity
  8
0
 62
3
100
AcDbText
 10
18030.57595183183
 20
-28580.1015331953
 30
0.0
 40
20.0
  1
............
  7
Arial
100
AcDbAttributeDefinition
  3
SẢN PHẨM
  2
#03
 70
0
280
1
 71
1
 72
0
  0
ATTDEF
  5
121
330
104
100
AcDbEntity
  8
0
 62
3
100
AcDbText
 10
18002.0078672091
 20
-28634.73750821321
 30
0.0
 40
20.0
  1

  7
Arial
100
AcDbAttributeDefinition
  3
KÍCH THƯỚC
  2
#07
 70
0
280
1
 71
1
 72
0
  0
ATTDEF
  5
122
330
104
100
AcDbEntity
  8
0
 62
3
100
AcDbText
 10
18751.69842633112
 20
-28580.1015331953
 30
0.0
 40
20.0
  1

  7
Arial
100
AcDbAttributeDefinition
  3
SỐ LƯỢNG
  2
#08
 70
0
280
1
 71
1
 72
0
  0
ATTDEF
  5
123
330
104
100
AcDbEntity
  8
0
 62
3
100
AcDbText
 10
18753.84501617292
 20
-28632.59717057646
 30
0.0
 40
20.0
  1

  7
Arial
100
AcDbAttributeDefinition
  3
LOẠI TÔN
  2
#09
 70
0
280
1
 71
1
 72
0
  0
ATTDEF
  5
124
330
104
100
AcDbEntity
  8
0
 62
3
100
AcDbText
 10
19064.78379112245
 20
-28580.1015331953
 30
0.0
 40
20.0
  1

  7
Arial
100
AcDbAttributeDefinition
  3
CHÚ Ý 1
  2
#10
 70
0
280
1
 71
1
 72
0
  0
ATTDEF
  5
125
330
104
100
AcDbEntity
  8
0
 62
3
100
AcDbText
 10
19060.29593417999
 20
-28625.68604652386
 30
0.0
 40
20.0
  1

  7
Arial
100
AcDbAttributeDefinition
  3
CHÚ Ý 2
  2
#11
 70
0
280
1
 71
1
 72
0
  0
ATTDEF
  5
126
330
104
100
AcDbEntity
  8
0
 62
3
100
AcDbText
 10
17431.39468632692
 20
-28580.1015331953
 30
0.0
 40
20.0
  1

  7
Arial
100
AcDbAttributeDefinition
  3
KHÁCH HÀNG
  2
#02
 70
0
280
1
 71
1
 72
0
  0
ATTDEF
  5
127
330
104
100
AcDbEntity
  8
0
 62
3
100
AcDbText
 10
17308.45246357222
 20
-28633.02044838126
 30
0.0
 40
20.0
  1

  7
Arial
100
AcDbAttributeDefinition
  3
NGÀY NHẬN
  2
#05
 70
0
280
1
 71
1
 72
0
  0
ATTDEF
  5
128
330
104
100
AcDbEntity
  8
0
 62
3
100
AcDbText
 10
17632.65306459898
 20
-28633.73138801003
 30
0.0
 40
20.0
  1

  7
Arial
100
AcDbAttributeDefinition
  3
NGÀY GIAO
  2
#06
 70
0
280
1
 71
1
 72
0
  0
ATTDEF
  5
129
330
104
100
AcDbEntity
  8
0
 62
3
100
AcDbText
 10
17055.57441422327
 20
-28580.1015331953
 30
0.0
 40
20.0
  1

  7
Arial
100
AcDbAttributeDefinition
  3
THIẾT KẾ
  2
#01
 70
0
280
1
 71
1
 72
0
  0
ATTDEF
  5
12A
330
104
100
AcDbEntity
  8
0
 62
3
100
AcDbText
 10
17024.76529237577
 20
-28634.61999292788
 30
0.0
 40
20.0
  1

  7
Arial
100
AcDbAttributeDefinition
  3
CNC
  2
#04
 70
0
280
1
 71
1
 72
0
  0
ATTDEF
  5
12B
330
104
100
AcDbEntity
  8
0
 62
3
100
AcDbText
 10
19806.4585301708
 20
-28628.91186895216
 30
0.0
 40
20.0
  1

  7
Arial
100
AcDbAttributeDefinition
  3
TỜ
  2
#12
 70
0
280
1
 71
1
 72
0
  0
ENDBLK
  5
106
330
104
100
AcDbEntity
  8
0
100
AcDbBlockEnd
  0
BLOCK
  5
12D
330
12C
100
AcDbEntity
  8
0
100
AcDbBlockBegin
  2
HL003-2-2
 70
0
 10
0.0
 20
0.0
 30
0.0
  3
HL003-2-2
  1

  0
CIRCLE
  5
12F
330
12C
100
AcDbEntity
  8
0
 62
1
100
AcDbCircle
 10
8.0
 20
6.0
 30
0.0
 40
3.0
  0
LWPOLYLINE
  5
130
330
12C
100
AcDbEntity
  8
0
 62
1
100
AcDbPolyline
 90
4
 70
1
 10
0.0
 20
12.0
 10
16.0
 20
12.0
 10
16.0
 20
0.0
 10
0.0
 20
0.0
  0
LWPOLYLINE
  5
131
330
12C
100
AcDbEntity
  8
0
 62
1
100
AcDbPolyline
 90
6
 70
0
 10
17.0
 20
0.0
 10
17.0
 20
-9.0
 10
0.0
 20
-9.0
 10
0.0
 20
21.0
 10
17.0
 20
21.0
 10
17.0
 20
12.0
  0
LINE
  5
132
330
12C
100
AcDbEntity
  8
0
 62
1
100
AcDbLine
 10
16.0
 20
0.0
 30
0.0
 11
17.0
 21
0.0
 31
0.0
  0
LINE
  5
133
330
12C
100
AcDbEntity
  8
0
 62
1
100
AcDbLine
 10
16.0
 20
12.0
 30
0.0
 11
17.0
 21
12.0
 31
0.0
  0
LINE
  5
134
330
12C
100
AcDbEntity
  8
0
 62
1
100
AcDbLine
 10
15.0
 20
21.0
 30
0.0
 11
15.0
 21
12.0
 31
0.0
  0
LINE
  5
135
330
12C
100
AcDbEntity
  8
0
 62
1
100
AcDbLine
 10
15.0
 20
-9.0
 30
0.0
 11
15.0
 21
1.8e-15
 31
0.0
  0
ENDBLK
  5
12E
330
12C
100
AcDbEntity
  8
0
100
AcDbBlockEnd
  0
BLOCK
  5
137
330
136
100
AcDbEntity
  8
0
100
AcDbBlockBegin
  2
AB301-3-1
 70
0
 10
0.0
 20
0.0
 30
0.0
  3
AB301-3-1
  1

  0
LWPOLYLINE
  5
139
330
136
100
AcDbEntity
  8
0
  6
Continuous
 62
1
100
AcDbPolyline
 90
6
 70
1
 10
1.45519e-11
 20
10.00000000000727
 42
-0.4142135623730951
 10
10.00000000001455
 20
7.276e-12
 10
10.00000000001455
 20
-46.99999999999272
 42
-0.4142135623730951
 10
1.45519e-11
 20
-56.99999999999272
 42
-0.4142135623730951
 10
-9.999999999985448
 20
-46.99999999999272
 10
-9.999999999985448
 20
7.276e-12
 42
-0.4142135623730951
  0
HATCH
  5
13A
330
136
100
AcDbEntity
  8
0
  6
Continuous
 62
1
100
AcDbHatch
 10
0.0
 20
0.0
 30
0.0
210
0.0
220
0.0
230
1.0
  2
ACAD_ISO09W100
 70
0
 71
0
 91
1
 92
7
 72
1
 73
1
 93
5
 10
-4.087375546877586
 20
-55.01831410824941
 42
0.1184039893890922
 10
1.45519e-11
 20
-55.99999999999273
 42
0.1184039893890922
 10
4.08737554690669
 20
-55.01831410824941
 42
0.0
 10
7.000000000014551
 20
-38.49999999999273
 42
0.0
 10
-6.999999999985448
 20
-38.49999999999273
 42
0.0
 97
0
 75
1
 76
1
 52
0.0
 41
0.2
 77
0
 78
1
 53
0.0
 43
-368.0181415297702
 44
431.8813967279711
 45
0.0
 46
1.0
 79
6
 49
4.799999999999998
 49
-0.6000000000000001
 49
1.199999999999999
 49
-0.6000000000000001
 49
1.199999999999999
 49
-0.6000000000000001
 47
0.1010447066433967
 98
1
 10
-1.464316444471478
 20
-45.75328255711065
  0
LWPOLYLINE
  5
13B
330
136
100
AcDbEntity
  8
0
  6
Continuous
 62
1
100
AcDbPolyline
 90
7
 70
1
 10
9.00000000001455
 20
-38.99999999999272
 10
9.00000000001455
 20
-46.99999999999272
 42
-0.4142135623730951
 10
1.45519e-11
 20
-55.99999999999273
 42
-0.4142135623730951
 10
-8.999999999985448
 20
-46.99999999999272
 10
-8.999999999985448
 20
-38.99999999999272
 42
-0.4142135623730951
 10
-6.999999999985448
 20
-36.99999999999273
 10
7.000000000014551
 20
-36.99999999999273
 42
-0.4142135623730951
  0
LINE
  5
13C
330
136
100
AcDbEntity
  8
0
  6
Continuous
 62
1
100
AcDbLine
 10
-9.999999999985448
 20
-24.99999999999273
 30
0.0
 11
10.00000000001455
 21
-24.99999999999273
 31
0.0
  0
LINE
  5
13D
330
136
100
AcDbEntity
  8
0
  6
Continuous
 62
1
100
AcDbLine
 10
-6.999999999985448
 20
-38.49999999999273
 30
0.0
 11
7.000000000014551
 21
-38.49999999999273
 31
0.0
  0
LINE
  5
13E
330
136
100
AcDbEntity
  8
0
  6
Continuous
 62
1
100
AcDbLine
 10
-6.999999999985448
 20
-38.49999999999273
 30
0.0
 11
-4.08737554687832
 21
-55.01831410824525
 31
0.0
  0
LINE
  5
13F
330
136
100
AcDbEntity
  8
0
  6
Continuous
 62
1
100
AcDbLine
 10
7.000000000014551
 20
-38.49999999999273
 30
0.0
 11
4.087375546907423
 21
-55.01831410824525
 31
0.0
  0
LWPOLYLINE
  5
140
330
136
100
AcDbEntity
  8
0
  6
Continuous
 62
1
100
AcDbPolyline
 90
8
 70
0
 10
-13.99999999998545
 20
-12.49999999999272
 10
-57.49999999998545
 20
-12.49999999999272
 42
-0.4142135623730951
 10
-64.99999999998545
 20
-4.999999999992724
 10
-64.99999999998545
 20
5.000000000007275
 42
-0.4142135623730951
 10
-57.49999999998545
 20
12.50000000000727
 10
-30.73832970143121
 20
12.50000000000727
 42
0.4142135623730951
 10
-24.73832970143121
 20
18.50000000000727
 10
-24.73832970143121
 20
18.73832970144576
  0
LWPOLYLINE
  5
141
330
136
100
AcDbEntity
  8
0
  6
Continuous
 62
1
100
AcDbPolyline
 90
5
 70
0
 10
-24.73832970143121
 20
18.73832970144576
 42
-0.1989123673796609
 10
-22.98097038855485
 20
22.98097038856941
 10
-22.98097038855485
 20
22.98097038856941
 42
-0.4142135623730951
 10
-14.49568901430757
 20
22.98097038856941
 10
-11.04035664445837
 20
19.52563801870565
  0
LWPOLYLINE
  5
142
330
136
100
AcDbEntity
  8
0
  6
Continuous
 62
1
100
AcDbPolyline
 90
5
 70
0
 10
14.00000000001455
 20
-5.51471862575272
 10
22.98097038858395
 20
-14.49568901431485
 42
-0.4142135623730951
 10
22.98097038858395
 20
-22.98097038855485
 10
22.98097038858395
 20
-22.98097038855485
 42
-0.4513046088409411
 10
14.00000000001455
 20
-22.41912195860641
 42
-0.381560762960909
  0
CIRCLE
  5
143
330
136
100
AcDbEntity
  8
0
  6
Continuous
 62
1
100
AcDbCircle
 10
1.45519e-11
 20
-30.99999999999273
 30
0.0
 40
4.0
  0
LWPOLYLINE
  5
144
330
136
100
AcDbEntity
  8
0
  6
Continuous
 62
1
100
AcDbPolyline
 90
4
 70
1
 10
-0.999999999985448
 20
-27.99999999999272
 10
1.000000000014551
 20
-27.99999999999272
 10
1.000000000014551
 20
-33.99999999999272
 10
-0.999999999985448
 20
-33.99999999999272
  0
CIRCLE
  5
145
330
136
100
AcDbEntity
  8
0
  6
Continuous
 62
1
100
AcDbCircle
 10
18.73832970146031
 20
-18.73832970143121
 30
0.0
 40
2.5
  0
CIRCLE
  5
146
330
136
100
AcDbEntity
  8
0
  6
Continuous
 62
1
100
AcDbCircle
 10
-18.73832970143121
 20
18.73832970144576
 30
0.0
 40
2.5
  0
LWPOLYLINE
  5
147
330
136
100
AcDbEntity
  8
0
  6
Continuous
 62
1
100
AcDbPolyline
 90
8
 70
1
 10
1.45519e-11
 20
25.00000000000728
 10
1.45519e-11
 20
25.00000000000728
 42
-0.4282422612923717
 10
14.00000000001455
 20
10.00000000000727
 10
14.00000000001455
 20
-46.99999999999272
 42
-0.4282422612923717
 10
1.45519e-11
 20
-61.99999999999272
 10
1.45519e-11
 20
-61.99999999999272
 42
-0.4282422612923717
 10
-13.99999999998545
 20
-46.99999999999272
 10
-13.99999999998545
 20
10.00000000000727
 42
-0.4282422612923717
  0
ENDBLK
  5
138
330
136
100
AcDbEntity
  8
0
100
AcDbBlockEnd
  0
BLOCK
  5
149
330
148
100
AcDbEntity
  8
0
100
AcDbBlockBegin
  2
BKN 1P
 70
0
 10
0.0
 20
0.0
 30
0.0
  3
BKN 1P
  1

  0
LWPOLYLINE
  5
14B
330
148
100
AcDbEntity
  8
0
 62
7
100
AcDbPolyline
 90
4
 70
1
 10
0.0
 20
0.0
 10
18.0
 20
0.0
 10
18.0
 20
-80.99999999999909
 10
0.0
 20
-80.99999999999909
  0
CIRCLE
  5
14C
330
148
100
AcDbEntity
  8
0
 62
7
100
AcDbCircle
 10
9.0
 20
-9.0
 30
0.0
 40
4.016952738884153
  0
LINE
  5
14D
330
148
100
AcDbEntity
  8
0
 62
7
100
AcDbLine
 10
9.0
 20
-4.983047261115643
 30
0.0
 11
9.0
 21
0.0
 31
0.0
  0
LINE
  5
14E
330
148
100
AcDbEntity
  8
0
 62
7
100
AcDbLine
 10
0.0
 20
-18.0
 30
0.0
 11
18.0
 21
-18.0
 31
0.0
  0
CIRCLE
  5
14F
330
148
100
AcDbEntity
  8
0
 62
7
100
AcDbCircle
 10
9.0
 20
-72.0
 30
0.0
 40
4.016952738884153
  0
LINE
  5
150
330
148
100
AcDbEntity
  8
0
 62
7
100
AcDbLine
 10
0.0
 20
-62.99999999999909
 30
0.0
 11
18.0
 21
-62.99999999999909
 31
0.0
  0
MTEXT
  5
151
330
148
100
AcDbEntity
  8
0
100
AcDbMText
 10
8.63569863484372
 20
-28.45178017311901
 30
0.0
 40
4.0
 41
17.27139726968767
 46
0.0
 71
5
 72
5
  1
{\C1;BKN\P1P}
101
Embedded Object
 70
1
 10
1.0
 20
0.0
 30
0.0
 11
8.63569863484372
 21
-28.45178017311901
 31
0.0
 40
17.27139726968767
 41
0.0
 42
17.27139726968767
 43
0.0
 71
2
 72
1
 44
17.27139726968767
 45
1.0
 73
0
 74
0
 46
0.0
  0
LWPOLYLINE
  5
152
330
148
100
AcDbEntity
  8
0
 62
1
100
AcDbPolyline
 90
4
 70
1
 10
5.0
 20
0.0
 10
13.0
 20
0.0
 10
13.0
 20
-12.0
 10
5.0
 20
-12.0
  0
LWPOLYLINE
  5
153
330
148
100
AcDbEntity
  8
0
 62
1
100
AcDbPolyline
 90
4
 70
1
 10
5.0
 20
-81.0
 10
13.0
 20
-81.0
 10
13.0
 20
-69.0
 10
5.0
 20
-69.0
  0
LINE
  5
154
330
148
100
AcDbEntity
  8
0
 62
7
100
AcDbLine
 10
12.1755814613507
 20
-69.54000168927814
 30
0.0
 11
9.707106781186665
 21
-72.00847636944216
 31
0.0
  0
LINE
  5
155
330
148
100
AcDbEntity
  8
0
 62
7
100
AcDbLine
 10
9.000000000000455
 20
-72.71558315062885
 30
0.0
 11
6.540001689278142
 21
-75.1755814613507
 31
0.0
  0
LINE
  5
156
330
148
100
AcDbEntity
  8
0
 62
7
100
AcDbLine
 10
11.46953802552525
 20
-68.83183156273026
 30
0.0
 11
9.0
 21
-71.30136958825551
 31
0.0
  0
LINE
  5
157
330
148
100
AcDbEntity
  8
0
 62
7
100
AcDbLine
 10
8.292893218813333
 20
-72.00847636944216
 30
0.0
 11
5.831831562729803
 21
-74.46953802552525
 31
0.0
  0
LINE
  5
158
330
148
100
AcDbEntity
  8
0
 62
7
100
AcDbLine
 10
5.824418538649297
 20
-69.54000168927814
 30
0.0
 11
8.292893218813333
 21
-72.00847636944216
 31
0.0
  0
LINE
  5
159
330
148
100
AcDbEntity
  8
0
 62
7
100
AcDbLine
 10
9.0
 20
-72.71558315062885
 30
0.0
 11
11.45999831072185
 21
-75.1755814613507
 31
0.0
  0
LINE
  5
15A
330
148
100
AcDbEntity
  8
0
 62
7
100
AcDbLine
 10
6.530461974474292
 20
-68.83183156273026
 30
0.0
 11
9.0
 21
-71.30136958825551
 31
0.0
  0
LINE
  5
15B
330
148
100
AcDbEntity
  8
0
 62
7
100
AcDbLine
 10
9.707106781186665
 20
-72.00847636944216
 30
0.0
 11
12.16816843726974
 21
-74.46953802552525
 31
0.0
  0
LINE
  5
15C
330
148
100
AcDbEntity
  8
0
 62
7
100
AcDbLine
 10
12.1755814613507
 20
-11.45999831072095
 30
0.0
 11
9.707106781186665
 21
-8.991523630556912
 31
0.0
  0
LINE
  5
15D
330
148
100
AcDbEntity
  8
0
 62
7
100
AcDbLine
 10
9.000000000000455
 20
-8.284416849370245
 30
0.0
 11
6.540001689278142
 21
-5.824418538648387
 31
0.0
  0
LINE
  5
15E
330
148
100
AcDbEntity
  8
0
 62
7
100
AcDbLine
 10
11.46953802552525
 20
-12.16816843726883
 30
0.0
 11
9.0
 21
-9.69863041174358
 31
0.0
  0
LINE
  5
15F
330
148
100
AcDbEntity
  8
0
 62
7
100
AcDbLine
 10
8.292893218813333
 20
-8.991523630556912
 30
0.0
 11
5.831831562729803
 21
-6.530461974473837
 31
0.0
  0
LINE
  5
160
330
148
100
AcDbEntity
  8
0
 62
7
100
AcDbLine
 10
5.824418538649297
 20
-11.45999831072095
 30
0.0
 11
8.292893218813333
 21
-8.991523630556912
 31
0.0
  0
LINE
  5
161
330
148
100
AcDbEntity
  8
0
 62
7
100
AcDbLine
 10
9.0
 20
-8.284416849370245
 30
0.0
 11
11.45999831072185
 21
-5.824418538648387
 31
0.0
  0
LINE
  5
162
330
148
100
AcDbEntity
  8
0
 62
7
100
AcDbLine
 10
6.530461974474292
 20
-12.16816843726883
 30
0.0
 11
9.0
 21
-9.69863041174358
 31
0.0
  0
LINE
  5
163
330
148
100
AcDbEntity
  8
0
 62
7
100
AcDbLine
 10
9.707106781186665
 20
-8.991523630556912
 30
0.0
 11
12.16816843726974
 21
-6.530461974473837
 31
0.0
  0
LWPOLYLINE
  5
164
330
148
100
AcDbEntity
  8
0
 62
7
100
AcDbPolyline
 90
4
 70
1
 10
14.0
 20
-42.49999999999909
 10
16.0
 20
-42.49999999999909
 10
16.0
 20
-52.47585922747567
 10
14.0
 20
-52.47585922747567
  0
LWPOLYLINE
  5
165
330
148
100
AcDbEntity
  8
0
 62
7
100
AcDbPolyline
 90
4
 70
1
 10
4.000000000000454
 20
-42.49999999999909
 10
2.000000000000454
 20
-42.49999999999909
 10
2.000000000000454
 20
-52.47585922747567
 10
4.000000000000454
 20
-52.47585922747567
  0
LINE
  5
166
330
148
100
AcDbEntity
  8
0
 62
7
100
AcDbLine
 10
4.000000000000454
 20
-42.49999999999909
 30
0.0
 11
14.0
 21
-42.49999999999909
 31
0.0
  0
LINE
  5
167
330
148
100
AcDbEntity
  8
0
 62
7
100
AcDbLine
 10
4.000000000000454
 20
-43.99999999999908
 30
0.0
 11
14.0
 21
-43.99999999999908
 31
0.0
  0
LWPOLYLINE
  5
168
330
148
100
AcDbEntity
  8
0
 62
7
100
AcDbPolyline
 90
4
 70
1
 10
1.0
 20
-52.47585922747567
 10
17.0
 20
-52.47585922747567
 10
17.0
 20
-58.61894905500412
 10
1.0
 20
-58.61894905500412
  0
LINE
  5
169
330
148
100
AcDbEntity
  8
0
 62
7
100
AcDbLine
 10
13.5
 20
-52.47585922747567
 30
0.0
 11
13.5
 21
-50.47585922747567
 31
0.0
  0
LINE
  5
16A
330
148
100
AcDbEntity
  8
0
 62
7
100
AcDbLine
 10
4.499999999999545
 20
-52.47585922747567
 30
0.0
 11
4.499999999999545
 21
-50.47585922747567
 31
0.0
  0
LINE
  5
16B
330
148
100
AcDbEntity
  8
0
 62
7
100
AcDbLine
 10
4.499999999999545
 20
-50.47585922747567
 30
0.0
 11
13.5
 21
-50.47585922747567
 31
0.0
  0
LINE
  5
16C
330
148
100
AcDbEntity
  8
0
 62
7
100
AcDbLine
 10
1.0
 20
-58.61894905500412
 30
0.0
 11
17.0
 21
-58.61894905500412
 31
0.0
  0
LINE
  5
16D
330
148
100
AcDbEntity
  8
0
 62
7
100
AcDbLine
 10
1.0
 20
-58.11894905500412
 30
0.0
 11
17.0
 21
-58.11894905500412
 31
0.0
  0
LINE
  5
16E
330
148
100
AcDbEntity
  8
0
 62
7
100
AcDbLine
 10
1.0
 20
-57.61894905500412
 30
0.0
 11
17.0
 21
-57.61894905500412
 31
0.0
  0
LINE
  5
16F
330
148
100
AcDbEntity
  8
0
 62
7
100
AcDbLine
 10
1.0
 20
-57.11894905500412
 30
0.0
 11
17.0
 21
-57.11894905500412
 31
0.0
  0
ENDBLK
  5
14A
330
148
100
AcDbEntity
  8
0
100
AcDbBlockEnd
  0
BLOCK
  5
171
330
170
100
AcDbEntity
  8
0
100
AcDbBlockBegin
  2
MS722
 70
0
 10
0.0
 20
0.0
 30
0.0
  3
MS722
  1

  0
INSERT
  5
173
330
170
100
AcDbEntity
  8
0
100
AcDbBlockReference
  2
SDGFGHGHG
 10
-860940.444367795
 20
-570770.5213009797
 30
0.0
  0
INSERT
  5
175
330
170
100
AcDbEntity
  8
0
100
AcDbBlockReference
  2
SĐFHGGH
 10
-860940.444367795
 20
-570705.4118046993
 30
0.0
  0
ENDBLK
  5
172
330
170
100
AcDbEntity
  8
0
100
AcDbBlockEnd
  0
BLOCK
  5
178
330
177
100
AcDbEntity
  8
0
100
AcDbBlockBegin
  2
BKN 2P
 70
0
 10
0.0
 20
0.0
 30
0.0
  3
BKN 2P
  1

  0
LWPOLYLINE
  5
17A
330
177
100
AcDbEntity
  8
0
 62
7
100
AcDbPolyline
 90
6
 70
0
 10
17.52064402058647
 20
-39.15633740075465
 10
17.52064402058647
 20
-81.99482699753662
 10
0.0
 20
-81.99482699753662
 10
0.0
 20
0.0
 10
17.52064402058647
 20
0.0
 10
17.52064402058647
 20
-18.80945401257395
  0
CIRCLE
  5
17B
330
177
100
AcDbEntity
  8
0
 62
7
100
AcDbCircle
 10
8.806637468582492
 20
-9.744556909830864
 30
0.0
 40
4.016952738884153
  0
LINE
  5
17C
330
177
100
AcDbEntity
  8
0
 62
7
100
AcDbLine
 10
5.638893078332785
 20
-7.27447497101366
 30
0.0
 11
11.44234534760323
 21
-12.77588554310296
 31
0.0
  0
LINE
  5
17D
330
177
100
AcDbEntity
  8
0
 62
7
100
AcDbLine
 10
6.334456434604701
 20
-6.578450429992699
 30
0.0
 11
12.0268998685334
 21
-12.14576897499501
 31
0.0
  0
LINE
  5
17E
330
177
100
AcDbEntity
  8
0
 62
7
100
AcDbLine
 10
5.485899119297528
 20
-12.00477949223659
 30
0.0
 11
11.27120038074065
 21
-6.572516721174906
 31
0.0
  0
LINE
  5
17F
330
177
100
AcDbEntity
  8
0
 62
7
100
AcDbLine
 10
6.137275911331357
 20
-12.74629277147778
 30
0.0
 11
11.94558637623265
 21
-7.237983738828005
 31
0.0
  0
LINE
  5
180
330
177
100
AcDbEntity
  8
0
 62
7
100
AcDbLine
 10
8.806637468582492
 20
-5.727604170946506
 30
0.0
 11
8.806637468582492
 21
0.0
 31
0.0
  0
LWPOLYLINE
  5
181
330
177
100
AcDbEntity
  8
0
 62
7
100
AcDbPolyline
 90
4
 70
1
 10
2.121990372450909
 20
-41.88923219733442
 10
15.17085691756176
 20
-41.88923219733442
 10
15.17085691756176
 20
-57.72440176451164
 10
2.121990372450909
 20
-57.72440176451164
  0
LINE
  5
182
330
177
100
AcDbEntity
  8
0
 62
7
100
AcDbLine
 10
2.121990372450909
 20
-55.2264390333239
 30
0.0
 11
15.17085691756176
 21
-55.2264390333239
 31
0.0
  0
LINE
  5
183
330
177
100
AcDbEntity
  8
0
 62
7
100
AcDbLine
 10
4.143220762130681
 20
-41.88923219733442
 30
0.0
 11
4.143220762130681
 21
-55.2264390333239
 31
0.0
  0
LINE
  5
184
330
177
100
AcDbEntity
  8
0
 62
7
100
AcDbLine
 10
13.1496265278821
 20
-41.88923219733442
 30
0.0
 11
13.1496265278821
 21
-55.2264390333239
 31
0.0
  0
LINE
  5
185
330
177
100
AcDbEntity
  8
0
 62
7
100
AcDbLine
 10
4.143220762130681
 20
-43.33336121643424
 30
0.0
 11
13.1496265278821
 21
-43.33336121643424
 31
0.0
  0
LINE
  5
186
330
177
100
AcDbEntity
  8
0
 62
7
100
AcDbLine
 10
4.143220762130681
 20
-52.37775683715518
 30
0.0
 11
13.1496265278821
 21
-52.37775683715518
 31
0.0
  0
LINE
  5
187
330
177
100
AcDbEntity
  8
0
 62
7
100
AcDbLine
 10
0.0
 20
-18.80945401257395
 30
0.0
 11
17.52064402058647
 21
-18.80945401257395
 31
0.0
  0
CIRCLE
  5
188
330
177
100
AcDbEntity
  8
0
 62
7
100
AcDbCircle
 10
8.806637468582492
 20
-72.25027008770576
 30
0.0
 40
4.016952738884153
  0
LINE
  5
189
330
177
100
AcDbEntity
  8
0
 62
7
100
AcDbLine
 10
5.638893078332785
 20
-74.72035202652295
 30
0.0
 11
11.44234534760323
 21
-69.21894145443366
 31
0.0
  0
LINE
  5
18A
330
177
100
AcDbEntity
  8
0
 62
7
100
AcDbLine
 10
6.334456434604701
 20
-75.41637656754392
 30
0.0
 11
12.0268998685334
 21
-69.84905802254161
 31
0.0
  0
LINE
  5
18B
330
177
100
AcDbEntity
  8
0
 62
7
100
AcDbLine
 10
5.485899119297528
 20
-69.99004750530003
 30
0.0
 11
11.27120038074065
 21
-75.4223102763608
 31
0.0
  0
LINE
  5
18C
330
177
100
AcDbEntity
  8
0
 62
7
100
AcDbLine
 10
6.137275911331357
 20
-69.24853422605885
 30
0.0
 11
11.94558637623265
 21
-74.75684325870861
 31
0.0
  0
LINE
  5
18D
330
177
100
AcDbEntity
  8
0
 62
7
100
AcDbLine
 10
0.0
 20
-63.18537298496265
 30
0.0
 11
17.52064402058647
 21
-63.18537298496265
 31
0.0
  0
MTEXT
  5
18E
330
177
100
AcDbEntity
  8
0
100
AcDbMText
 10
10.54243557661539
 20
-23.60767479967217
 30
0.0
 40
5.0
 41
17.27139726968767
 46
0.0
 71
1
 72
5
  1
\pi1.99689;{\C1;BKN\P\pi4.61796;2P}
101
Embedded Object
 70
1
 10
1.0
 20
0.0
 30
0.0
 11
10.54243557661539
 21
-23.60767479967217
 31
0.0
 40
17.27139726968767
 41
0.0
 42
17.27139726968767
 43
0.0
 71
2
 72
1
 44
17.27139726968767
 45
1.0
 73
0
 74
0
 46
0.0
  0
LWPOLYLINE
  5
18F
330
177
100
AcDbEntity
  8
0
 62
7
100
AcDbPolyline
 90
6
 70
0
 10
17.52064402058647
 20
-18.80945401257395
 10
17.52064402058647
 20
0.0
 10
35.04128804117295
 20
0.0
 10
35.04128804117295
 20
-81.99482699753662
 10
17.52064402058647
 20
-81.99482699753662
 10
17.52064402058647
 20
-39.15633740075465
  0
CIRCLE
  5
190
330
177
100
AcDbEntity
  8
0
 62
7
100
AcDbCircle
 10
26.32728148916897
 20
-9.744556909830864
 30
0.0
 40
4.016952738884153
  0
LINE
  5
191
330
177
100
AcDbEntity
  8
0
 62
7
100
AcDbLine
 10
23.15953709891926
 20
-7.27447497101366
 30
0.0
 11
28.96298936818971
 21
-12.77588554310296
 31
0.0
  0
LINE
  5
192
330
177
100
AcDbEntity
  8
0
 62
7
100
AcDbLine
 10
23.85510045519118
 20
-6.578450429992699
 30
0.0
 11
29.54754388911988
 21
-12.14576897499501
 31
0.0
  0
LINE
  5
193
330
177
100
AcDbEntity
  8
0
 62
7
100
AcDbLine
 10
23.006543139884
 20
-12.00477949223659
 30
0.0
 11
28.79184440132713
 21
-6.572516721174906
 31
0.0
  0
LINE
  5
194
330
177
100
AcDbEntity
  8
0
 62
7
100
AcDbLine
 10
23.65791993191783
 20
-12.74629277147778
 30
0.0
 11
29.46623039681913
 21
-7.237983738828005
 31
0.0
  0
LINE
  5
195
330
177
100
AcDbEntity
  8
0
 62
7
100
AcDbLine
 10
26.32728148916897
 20
-5.727604170946506
 30
0.0
 11
26.32728148916897
 21
0.0
 31
0.0
  0
LWPOLYLINE
  5
196
330
177
100
AcDbEntity
  8
0
 62
7
100
AcDbPolyline
 90
4
 70
1
 10
19.64263439303738
 20
-41.88923219733442
 10
32.69150093814824
 20
-41.88923219733442
 10
32.69150093814824
 20
-57.72440176451164
 10
19.64263439303738
 20
-57.72440176451164
  0
LINE
  5
197
330
177
100
AcDbEntity
  8
0
 62
7
100
AcDbLine
 10
19.64263439303738
 20
-55.2264390333239
 30
0.0
 11
32.69150093814824
 21
-55.2264390333239
 31
0.0
  0
LINE
  5
198
330
177
100
AcDbEntity
  8
0
 62
7
100
AcDbLine
 10
21.66386478271716
 20
-41.88923219733442
 30
0.0
 11
21.66386478271716
 21
-55.2264390333239
 31
0.0
  0
LINE
  5
199
330
177
100
AcDbEntity
  8
0
 62
7
100
AcDbLine
 10
30.67027054846858
 20
-41.88923219733442
 30
0.0
 11
30.67027054846858
 21
-55.2264390333239
 31
0.0
  0
LINE
  5
19A
330
177
100
AcDbEntity
  8
0
 62
7
100
AcDbLine
 10
21.66386478271716
 20
-43.33336121643424
 30
0.0
 11
30.67027054846858
 21
-43.33336121643424
 31
0.0
  0
LINE
  5
19B
330
177
100
AcDbEntity
  8
0
 62
7
100
AcDbLine
 10
21.66386478271716
 20
-52.37775683715518
 30
0.0
 11
30.67027054846858
 21
-52.37775683715518
 31
0.0
  0
LINE
  5
19C
330
177
100
AcDbEntity
  8
0
 62
7
100
AcDbLine
 10
17.52064402058647
 20
-18.80945401257395
 30
0.0
 11
35.04128804117295
 21
-18.80945401257395
 31
0.0
  0
CIRCLE
  5
19D
330
177
100
AcDbEntity
  8
0
 62
7
100
AcDbCircle
 10
26.32728148916897
 20
-72.25027008770576
 30
0.0
 40
4.016952738884153
  0
LINE
  5
19E
330
177
100
AcDbEntity
  8
0
 62
7
100
AcDbLine
 10
23.15953709891926
 20
-74.72035202652295
 30
0.0
 11
28.96298936818971
 21
-69.21894145443366
 31
0.0
  0
LINE
  5
19F
330
177
100
AcDbEntity
  8
0
 62
7
100
AcDbLine
 10
23.85510045519118
 20
-75.41637656754392
 30
0.0
 11
29.54754388911988
 21
-69.84905802254161
 31
0.0
  0
LINE
  5
1A0
330
177
100
AcDbEntity
  8
0
 62
7
100
AcDbLine
 10
23.006543139884
 20
-69.99004750530003
 30
0.0
 11
28.79184440132713
 21
-75.4223102763608
 31
0.0
  0
LINE
  5
1A1
330
177
100
AcDbEntity
  8
0
 62
7
100
AcDbLine
 10
23.65791993191783
 20
-69.24853422605885
 30
0.0
 11
29.46623039681913
 21
-74.75684325870861
 31
0.0
  0
LINE
  5
1A2
330
177
100
AcDbEntity
  8
0
 62
7
100
AcDbLine
 10
17.52064402058647
 20
-63.18537298496265
 30
0.0
 11
35.04128804117295
 21
-63.18537298496265
 31
0.0
  0
LINE
  5
1A3
330
177
100
AcDbEntity
  8
0
100
AcDbLine
 10
0.0
 20
-39.15633740075465
 30
0.0
 11
35.04128804117295
 21
-39.15633740075465
 31
0.0
  0
ENDBLK
  5
179
330
177
100
AcDbEntity
  8
0
100
AcDbBlockEnd
  0
BLOCK
  5
1A5
330
1A4
100
AcDbEntity
  8
0
100
AcDbBlockBegin
  2
Den XANH
 70
2
 10
0.0
 20
0.0
 30
0.0
  3
Den XANH
  1

  0
CIRCLE
  5
1A7
330
1A4
100
AcDbEntity
  8
0
 62
7
100
AcDbCircle
 10
14.99995469494024
 20
14.99998362692713
 30
0.0
 40
15.0
  0
LINE
  5
1A8
330
1A4
100
AcDbEntity
  8
0
 62
7
100
AcDbLine
 10
-4.53050597571e-05
 20
44.99998362692713
 30
0.0
 11
29.99995469494024
 21
44.99998362692713
 31
0.0
  0
LINE
  5
1A9
330
1A4
100
AcDbEntity
  8
0
 62
7
100
AcDbLine
 10
29.99995469494024
 20
14.99998362692713
 30
0.0
 11
29.99995469494024
 21
44.99998362692713
 31
0.0
  0
LINE
  5
1AA
330
1A4
100
AcDbEntity
  8
0
 62
7
100
AcDbLine
 10
-4.53050597571e-05
 20
44.99998362692713
 30
0.0
 11
-4.53050597571e-05
 21
14.99998362692713
 31
0.0
  0
LWPOLYLINE
  5
1AB
330
1A4
100
AcDbEntity
  8
0
 62
7
100
AcDbPolyline
 90
4
 70
1
 10
1.999954694940242
 20
42.99998362692713
 10
27.99995469494025
 20
42.99998362692713
 10
27.99995469494025
 20
32.99998362692714
 10
1.999954694940242
 20
32.99998362692714
  0
CIRCLE
  5
1AC
330
1A4
100
AcDbEntity
  8
07
  6
Continuous
 62
5
370
5
 48
3.0
100
AcDbCircle
 10
14.99995469494024
 20
14.99998362692713
 30
0.0
 40
11.0
  0
LINE
  5
1AD
330
1A4
100
AcDbEntity
  8
07
  6
Continuous
 62
5
370
5
 48
3.0
100
AcDbLine
 10
22.77812928799226
 20
22.77815821997915
 30
0.0
 11
7.221780101888218
 21
7.221809033875111
 31
0.0
  0
ATTDEF
  5
1AE
330
1A4
100
AcDbEntity
  8
01
  6
Continuous
 62
2
370
5
100
AcDbText
 10
5.913620722195252
 20
35.96791798923368
 30
0.0
 40
2.400000000139697
  1
R - PHASE
  7
Arial-Black
 41
1.000000000291038
 72
1
 11
15.22630830800335
 21
35.96791798923368
 31
0.0
100
AcDbAttributeDefinition
  3
Ten San Pham
  2
T-SP
 70
0
 71
1
 72
0
 11
15.22630830800335
 21
35.96791798923368
 31
0.0
  0
LINE
  5
1AF
330
1A4
100
AcDbEntity
  8
07
  6
Continuous
 62
5
370
5
 48
3.0
100
AcDbLine
 10
7.221780101888221
 20
22.77815821997915
 30
0.0
 11
22.77812928799226
 21
7.221809033875111
 31
0.0
  0
HATCH
  5
1B0
330
1A4
100
AcDbEntity
  8
0
 62
5
100
AcDbHatch
 10
0.0
 20
0.0
 30
0.0
210
0.0
220
0.0
230
1.0
  2
SOLID
 70
1
 71
0
 91
2
 92
7
 72
1
 73
1
 93
4
 10
14.99995469494024
 20
14.99998362692713
 42
0.0
 10
22.77812928799226
 20
7.221809033875109
 42
0.198912367379658
 10
25.99995469494024
 20
14.99998362692713
 42
0.198912367379658
 10
22.77812928799226
 20
22.77815821997915
 42
0.0
 97
0
 92
7
 72
1
 73
1
 93
4
 10
14.99995469494024
 20
14.99998362692713
 42
0.0
 10
7.22178010188822
 20
22.77815821997915
 42
0.198912367379658
 10
3.999954694940242
 20
14.99998362692713
 42
0.198912367379658
 10
7.221780101888218
 20
7.221809033875111
 42
0.0
 97
0
 75
0
 76
1
 47
0.0525107572166409
 98
2
 10
18.9324140735632
 20
15.03356113590959
 10
10.16203061267177
 20
14.71849664825233
450
0
451
0
460
0.0
461
0.0
452
1
462
1.0
453
2
463
0
 63
5
421
255
463
1
 63
7
421
16777215
470
LINEAR
  0
ENDBLK
  5
1A6
330
1A4
100
AcDbEntity
  8
0
100
AcDbBlockEnd
  0
BLOCK
  5
1B2
330
1B1
100
AcDbEntity
  8
0
100
AcDbBlockBegin
  2
Den DO
 70
2
 10
0.0
 20
0.0
 30
0.0
  3
Den DO
  1

  0
CIRCLE
  5
1B4
330
1B1
100
AcDbEntity
  8
0
 62
7
100
AcDbCircle
 10
14.99995469492569
 20
14.99998362692713
 30
0.0
 40
15.0
  0
LINE
  5
1B5
330
1B1
100
AcDbEntity
  8
0
 62
7
100
AcDbLine
 10
-4.5305074309e-05
 20
44.99998362692713
 30
0.0
 11
29.99995469492569
 21
44.99998362692713
 31
0.0
  0
LINE
  5
1B6
330
1B1
100
AcDbEntity
  8
0
 62
7
100
AcDbLine
 10
29.99995469492569
 20
14.99998362692713
 30
0.0
 11
29.99995469492569
 21
44.99998362692713
 31
0.0
  0
LINE
  5
1B7
330
1B1
100
AcDbEntity
  8
0
 62
7
100
AcDbLine
 10
-4.5305074309e-05
 20
44.99998362692713
 30
0.0
 11
-4.5305074309e-05
 21
14.99998362692713
 31
0.0
  0
LWPOLYLINE
  5
1B8
330
1B1
100
AcDbEntity
  8
0
 62
7
100
AcDbPolyline
 90
4
 70
1
 10
1.999954694925691
 20
42.99998362692713
 10
27.99995469492569
 20
42.99998362692713
 10
27.99995469492569
 20
32.99998362692714
 10
1.999954694925691
 20
32.99998362692714
  0
CIRCLE
  5
1B9
330
1B1
100
AcDbEntity
  8
07
  6
Continuous
 62
1
370
5
 48
3.0
100
AcDbCircle
 10
14.99995469492569
 20
14.99998362692713
 30
0.0
 40
11.0
  0
LINE
  5
1BA
330
1B1
100
AcDbEntity
  8
07
  6
Continuous
 62
1
370
5
 48
3.0
100
AcDbLine
 10
22.77812928797771
 20
22.77815821997915
 30
0.0
 11
7.221780101873667
 21
7.22180903387511
 31
0.0
  0
ATTDEF
  5
1BB
330
1B1
100
AcDbEntity
  8
01
  6
Continuous
 62
2
370
5
100
AcDbText
 10
5.913620722180702
 20
35.96791798923368
 30
0.0
 40
2.400000000139697
  1
R - PHASE
  7
Arial-Black
 41
1.000000000291038
 72
1
 11
15.2263083079888
 21
35.96791798923368
 31
0.0
100
AcDbAttributeDefinition
  3
Ten San Pham
  2
T-SP
 70
0
 71
1
 72
0
 11
15.2263083079888
 21
35.96791798923368
 31
0.0
  0
LINE
  5
1BC
330
1B1
100
AcDbEntity
  8
07
  6
Continuous
 62
1
370
5
 48
3.0
100
AcDbLine
 10
7.221780101873664
 20
22.77815821997915
 30
0.0
 11
22.77812928797771
 21
7.22180903387511
 31
0.0
  0
HATCH
  5
1BD
330
1B1
100
AcDbEntity
  8
0
 62
1
100
AcDbHatch
 10
0.0
 20
0.0
 30
0.0
210
0.0
220
0.0
230
1.0
  2
SOLID
 70
1
 71
0
 91
2
 92
7
 72
1
 73
1
 93
4
 10
7.221780101873663
 20
7.221809033875108
 42
0.0
 10
14.99995469492568
 20
14.99998362692713
 42
0.0
 10
7.221780101873665
 20
22.77815821997915
 42
0.198912367379658
 10
3.999954694925689
 20
14.99998362692713
 42
0.198912367379658
 97
3
330
D598
330
D595
330
D596
 92
7
 72
1
 73
1
 93
4
 10
25.99995469492569
 20
14.99998362692713
 42
0.1989123673796581
 10
22.77812928797771
 20
22.77815821997915
 42
0.0
 10
14.99995469492569
 20
14.99998362692713
 42
0.0
 10
22.77812928797771
 20
7.221809033875105
 42
0.198912367379658
 97
3
330
D596
330
D598
330
D595
 75
0
 76
1
 47
0.0656445470910299
 98
2
 10
7.997749462102762
 20
14.8782926211432
 10
18.63348435022064
 20
15.46909361714745
450
0
451
0
460
0.0
461
0.0
452
1
462
1.0
453
2
463
0
 63
5
421
255
463
1
 63
7
421
16777215
470
LINEAR
  0
ENDBLK
  5
1B3
330
1B1
100
AcDbEntity
  8
0
100
AcDbBlockEnd
  0
BLOCK
  5
1BF
330
1BE
100
AcDbEntity
  8
0
100
AcDbBlockBegin
  2
Den VANG
 70
2
 10
0.0
 20
0.0
 30
0.0
  3
Den VANG
  1

  0
CIRCLE
  5
1C1
330
1BE
100
AcDbEntity
  8
0
 62
7
100
AcDbCircle
 10
14.99995469492569
 20
14.99998362692713
 30
0.0
 40
15.0
  0
LINE
  5
1C2
330
1BE
100
AcDbEntity
  8
0
 62
7
100
AcDbLine
 10
-4.5305074309e-05
 20
44.99998362692713
 30
0.0
 11
29.99995469492569
 21
44.99998362692713
 31
0.0
  0
LINE
  5
1C3
330
1BE
100
AcDbEntity
  8
0
 62
7
100
AcDbLine
 10
29.99995469492569
 20
14.99998362692713
 30
0.0
 11
29.99995469492569
 21
44.99998362692713
 31
0.0
  0
LINE
  5
1C4
330
1BE
100
AcDbEntity
  8
0
 62
7
100
AcDbLine
 10
-4.5305074309e-05
 20
44.99998362692713
 30
0.0
 11
-4.5305074309e-05
 21
14.99998362692713
 31
0.0
  0
LWPOLYLINE
  5
1C5
330
1BE
100
AcDbEntity
  8
0
 62
7
100
AcDbPolyline
 90
4
 70
1
 10
1.999954694925691
 20
42.99998362692713
 10
27.99995469492569
 20
42.99998362692713
 10
27.99995469492569
 20
32.99998362692714
 10
1.999954694925691
 20
32.99998362692714
  0
CIRCLE
  5
1C6
330
1BE
100
AcDbEntity
  8
07
  6
Continuous
 62
2
370
5
 48
3.0
100
AcDbCircle
 10
14.99995469492569
 20
14.99998362692713
 30
0.0
 40
11.0
  0
LINE
  5
1C7
330
1BE
100
AcDbEntity
  8
07
  6
Continuous
 62
2
370
5
 48
3.0
100
AcDbLine
 10
22.77812928797771
 20
22.77815821997915
 30
0.0
 11
7.221780101873667
 21
7.22180903387511
 31
0.0
  0
ATTDEF
  5
1C8
330
1BE
100
AcDbEntity
  8
01
  6
Continuous
 62
2
370
5
100
AcDbText
 10
5.913620722180702
 20
35.96791798923368
 30
0.0
 40
2.400000000139697
  1
R - PHASE
  7
Arial-Black
 41
1.000000000291038
 72
1
 11
15.2263083079888
 21
35.96791798923368
 31
0.0
100
AcDbAttributeDefinition
  3
Ten San Pham
  2
T-SP
 70
0
 71
1
 72
0
 11
15.2263083079888
 21
35.96791798923368
 31
0.0
  0
LINE
  5
1C9
330
1BE
100
AcDbEntity
  8
07
  6
Continuous
 62
2
370
5
 48
3.0
100
AcDbLine
 10
7.221780101873666
 20
22.77815821997915
 30
0.0
 11
22.77812928797771
 21
7.22180903387511
 31
0.0
  0
HATCH
  5
1CA
330
1BE
100
AcDbEntity
  8
0
 62
2
100
AcDbHatch
 10
0.0
 20
0.0
 30
0.0
210
0.0
220
0.0
230
1.0
  2
SOLID
 70
1
 71
0
 91
2
 92
7
 72
1
 73
1
 93
4
 10
22.77812928797771
 20
7.221809033875107
 42
0.198912367379658
 10
25.99995469492569
 20
14.99998362692713
 42
0.198912367379658
 10
22.77812928797771
 20
22.77815821997915
 42
0.0
 10
14.99995469492569
 20
14.99998362692713
 42
0.0
 97
3
330
D5A4
330
D5A5
330
D5A7
 92
7
 72
1
 73
1
 93
4
 10
7.221780101873662
 20
7.221809033875109
 42
0.0
 10
14.99995469492569
 20
14.99998362692713
 42
0.0
 10
7.221780101873665
 20
22.77815821997915
 42
0.198912367379658
 10
3.999954694925687
 20
14.99998362692713
 42
0.198912367379658
 97
3
330
D5A4
330
D5A5
330
D5A7
 75
0
 76
1
 47
0.0589378639461505
 98
2
 10
21.62975384444046
 20
14.44012329072172
 10
8.426035661991923
 20
15.02950197730397
450
0
451
0
460
0.0
461
0.0
452
1
462
1.0
453
2
463
0
 63
5
421
255
463
1
 63
7
421
16777215
470
LINEAR
  0
ENDBLK
  5
1C0
330
1BE
100
AcDbEntity
  8
0
100
AcDbBlockEnd
  0
BLOCK
  5
1CC
330
1CB
100
AcDbEntity
  8
0
100
AcDbBlockBegin
  2
BKN 3P
 70
0
 10
0.0
 20
0.0
 30
0.0
  3
BKN 3P
  1

  0
LWPOLYLINE
  5
1CE
330
1CB
100
AcDbEntity
  8
0
 62
7
100
AcDbPolyline
 90
6
 70
0
 10
18.0
 20
-62.99999999999909
 10
18.0
 20
-80.99999999999909
 10
0.0
 20
-80.99999999999909
 10
0.0
 20
0.0
 10
18.0
 20
0.0
 10
18.0
 20
-18.0
  0
CIRCLE
  5
1CF
330
1CB
100
AcDbEntity
  8
0
 62
7
100
AcDbCircle
 10
9.0
 20
-9.0
 30
0.0
 40
4.016952738884153
  0
LINE
  5
1D0
330
1CB
100
AcDbEntity
  8
0
 62
7
100
AcDbLine
 10
9.0
 20
-4.983047261115643
 30
0.0
 11
9.0
 21
0.0
 31
0.0
  0
LINE
  5
1D1
330
1CB
100
AcDbEntity
  8
0
 62
7
100
AcDbLine
 10
0.0
 20
-18.0
 30
0.0
 11
18.0
 21
-18.0
 31
0.0
  0
CIRCLE
  5
1D2
330
1CB
100
AcDbEntity
  8
0
 62
7
100
AcDbCircle
 10
9.0
 20
-72.0
 30
0.0
 40
4.016952738884153
  0
LINE
  5
1D3
330
1CB
100
AcDbEntity
  8
0
 62
7
100
AcDbLine
 10
0.0
 20
-62.99999999999909
 30
0.0
 11
18.0
 21
-62.99999999999909
 31
0.0
  0
MTEXT
  5
1D4
330
1CB
100
AcDbEntity
  8
0
100
AcDbMText
 10
8.635698634843834
 20
-29.78715989117245
 30
0.0
 40
4.0
 41
17.27139726968767
 46
0.0
 71
5
 72
5
  1
{\C1;BKN\P\pi1.598;3P}
101
Embedded Object
 70
1
 10
1.0
 20
0.0
 30
0.0
 11
8.635698634843834
 21
-29.78715989117245
 31
0.0
 40
17.27139726968767
 41
0.0
 42
17.27139726968767
 43
0.0
 71
2
 72
1
 44
17.27139726968767
 45
1.0
 73
0
 74
0
 46
0.0
  0
LWPOLYLINE
  5
1D5
330
1CB
100
AcDbEntity
  8
0
 62
1
100
AcDbPolyline
 90
4
 70
1
 10
5.0
 20
0.0
 10
13.0
 20
0.0
 10
13.0
 20
-12.0
 10
5.0
 20
-12.0
  0
LWPOLYLINE
  5
1D6
330
1CB
100
AcDbEntity
  8
0
 62
1
100
AcDbPolyline
 90
4
 70
1
 10
5.0
 20
-81.0
 10
13.0
 20
-81.0
 10
13.0
 20
-69.0
 10
5.0
 20
-69.0
  0
LINE
  5
1D7
330
1CB
100
AcDbEntity
  8
0
 62
7
100
AcDbLine
 10
12.1755814613507
 20
-69.54000168927814
 30
0.0
 11
9.707106781186665
 21
-72.00847636944216
 31
0.0
  0
LINE
  5
1D8
330
1CB
100
AcDbEntity
  8
0
 62
7
100
AcDbLine
 10
9.000000000000455
 20
-72.71558315062885
 30
0.0
 11
6.540001689278142
 21
-75.1755814613507
 31
0.0
  0
LINE
  5
1D9
330
1CB
100
AcDbEntity
  8
0
 62
7
100
AcDbLine
 10
11.46953802552525
 20
-68.83183156273026
 30
0.0
 11
9.0
 21
-71.30136958825551
 31
0.0
  0
LINE
  5
1DA
330
1CB
100
AcDbEntity
  8
0
 62
7
100
AcDbLine
 10
8.292893218813333
 20
-72.00847636944216
 30
0.0
 11
5.831831562729803
 21
-74.46953802552525
 31
0.0
  0
LINE
  5
1DB
330
1CB
100
AcDbEntity
  8
0
 62
7
100
AcDbLine
 10
5.824418538649297
 20
-69.54000168927814
 30
0.0
 11
8.292893218813333
 21
-72.00847636944216
 31
0.0
  0
LINE
  5
1DC
330
1CB
100
AcDbEntity
  8
0
 62
7
100
AcDbLine
 10
9.0
 20
-72.71558315062885
 30
0.0
 11
11.45999831072185
 21
-75.1755814613507
 31
0.0
  0
LINE
  5
1DD
330
1CB
100
AcDbEntity
  8
0
 62
7
100
AcDbLine
 10
6.530461974474292
 20
-68.83183156273026
 30
0.0
 11
9.0
 21
-71.30136958825551
 31
0.0
  0
LINE
  5
1DE
330
1CB
100
AcDbEntity
  8
0
 62
7
100
AcDbLine
 10
9.707106781186665
 20
-72.00847636944216
 30
0.0
 11
12.16816843726974
 21
-74.46953802552525
 31
0.0
  0
LINE
  5
1DF
330
1CB
100
AcDbEntity
  8
0
 62
7
100
AcDbLine
 10
12.1755814613507
 20
-11.45999831072095
 30
0.0
 11
9.707106781186665
 21
-8.991523630556912
 31
0.0
  0
LINE
  5
1E0
330
1CB
100
AcDbEntity
  8
0
 62
7
100
AcDbLine
 10
9.000000000000455
 20
-8.284416849370245
 30
0.0
 11
6.540001689278142
 21
-5.824418538648387
 31
0.0
  0
LINE
  5
1E1
330
1CB
100
AcDbEntity
  8
0
 62
7
100
AcDbLine
 10
11.46953802552525
 20
-12.16816843726883
 30
0.0
 11
9.0
 21
-9.69863041174358
 31
0.0
  0
LINE
  5
1E2
330
1CB
100
AcDbEntity
  8
0
 62
7
100
AcDbLine
 10
8.292893218813333
 20
-8.991523630556912
 30
0.0
 11
5.831831562729803
 21
-6.530461974473837
 31
0.0
  0
LINE
  5
1E3
330
1CB
100
AcDbEntity
  8
0
 62
7
100
AcDbLine
 10
5.824418538649297
 20
-11.45999831072095
 30
0.0
 11
8.292893218813333
 21
-8.991523630556912
 31
0.0
  0
LINE
  5
1E4
330
1CB
100
AcDbEntity
  8
0
 62
7
100
AcDbLine
 10
9.0
 20
-8.284416849370245
 30
0.0
 11
11.45999831072185
 21
-5.824418538648387
 31
0.0
  0
LINE
  5
1E5
330
1CB
100
AcDbEntity
  8
0
 62
7
100
AcDbLine
 10
6.530461974474292
 20
-12.16816843726883
 30
0.0
 11
9.0
 21
-9.69863041174358
 31
0.0
  0
LINE
  5
1E6
330
1CB
100
AcDbEntity
  8
0
 62
7
100
AcDbLine
 10
9.707106781186665
 20
-8.991523630556912
 30
0.0
 11
12.16816843726974
 21
-6.530461974473837
 31
0.0
  0
LWPOLYLINE
  5
1E7
330
1CB
100
AcDbEntity
  8
0
 62
7
100
AcDbPolyline
 90
4
 70
1
 10
14.0
 20
-42.49999999999909
 10
16.0
 20
-42.49999999999909
 10
16.0
 20
-52.47585922747567
 10
14.0
 20
-52.47585922747567
  0
LWPOLYLINE
  5
1E8
330
1CB
100
AcDbEntity
  8
0
 62
7
100
AcDbPolyline
 90
4
 70
1
 10
4.000000000000454
 20
-42.49999999999909
 10
2.000000000000454
 20
-42.49999999999909
 10
2.000000000000454
 20
-52.47585922747567
 10
4.000000000000454
 20
-52.47585922747567
  0
LINE
  5
1E9
330
1CB
100
AcDbEntity
  8
0
 62
7
100
AcDbLine
 10
4.000000000000454
 20
-42.49999999999909
 30
0.0
 11
14.0
 21
-42.49999999999909
 31
0.0
  0
LINE
  5
1EA
330
1CB
100
AcDbEntity
  8
0
 62
7
100
AcDbLine
 10
4.000000000000454
 20
-43.99999999999908
 30
0.0
 11
14.0
 21
-43.99999999999908
 31
0.0
  0
LWPOLYLINE
  5
1EB
330
1CB
100
AcDbEntity
  8
0
 62
7
100
AcDbPolyline
 90
4
 70
1
 10
1.0
 20
-52.47585922747567
 10
53.0
 20
-52.47585922747567
 10
53.0
 20
-58.61894905500412
 10
1.0
 20
-58.61894905500412
  0
LINE
  5
1EC
330
1CB
100
AcDbEntity
  8
0
 62
7
100
AcDbLine
 10
13.5
 20
-52.47585922747567
 30
0.0
 11
13.5
 21
-50.47585922747567
 31
0.0
  0
LINE
  5
1ED
330
1CB
100
AcDbEntity
  8
0
 62
7
100
AcDbLine
 10
4.499999999999545
 20
-52.47585922747567
 30
0.0
 11
4.499999999999545
 21
-50.47585922747567
 31
0.0
  0
LINE
  5
1EE
330
1CB
100
AcDbEntity
  8
0
 62
7
100
AcDbLine
 10
4.499999999999545
 20
-50.47585922747567
 30
0.0
 11
13.5
 21
-50.47585922747567
 31
0.0
  0
LINE
  5
1EF
330
1CB
100
AcDbEntity
  8
0
 62
7
100
AcDbLine
 10
1.0
 20
-58.61894905500412
 30
0.0
 11
53.0
 21
-58.61894905500412
 31
0.0
  0
LINE
  5
1F0
330
1CB
100
AcDbEntity
  8
0
 62
7
100
AcDbLine
 10
1.0
 20
-58.11894905500412
 30
0.0
 11
53.0
 21
-58.11894905500412
 31
0.0
  0
LINE
  5
1F1
330
1CB
100
AcDbEntity
  8
0
 62
7
100
AcDbLine
 10
1.0
 20
-57.61894905500412
 30
0.0
 11
53.0
 21
-57.61894905500412
 31
0.0
  0
LINE
  5
1F2
330
1CB
100
AcDbEntity
  8
0
 62
7
100
AcDbLine
 10
1.0
 20
-57.11894905500412
 30
0.0
 11
53.0
 21
-57.11894905500412
 31
0.0
  0
LWPOLYLINE
  5
1F3
330
1CB
100
AcDbEntity
  8
0
 62
7
100
AcDbPolyline
 90
4
 70
0
 10
36.0
 20
-62.99999999999909
 10
36.0
 20
-80.99999999999909
 10
18.0
 20
-80.99999999999909
 10
18.0
 20
-62.99999999999909
  0
LWPOLYLINE
  5
1F4
330
1CB
100
AcDbEntity
  8
0
 62
7
100
AcDbPolyline
 90
4
 70
0
 10
18.0
 20
-18.0
 10
18.0
 20
0.0
 10
36.0
 20
0.0
 10
36.0
 20
-18.0
  0
CIRCLE
  5
1F5
330
1CB
100
AcDbEntity
  8
0
 62
7
100
AcDbCircle
 10
27.0
 20
-9.0
 30
0.0
 40
4.016952738884153
  0
LINE
  5
1F6
330
1CB
100
AcDbEntity
  8
0
 62
7
100
AcDbLine
 10
27.0
 20
-4.983047261115643
 30
0.0
 11
27.0
 21
0.0
 31
0.0
  0
LINE
  5
1F7
330
1CB
100
AcDbEntity
  8
0
 62
7
100
AcDbLine
 10
18.0
 20
-18.0
 30
0.0
 11
36.0
 21
-18.0
 31
0.0
  0
CIRCLE
  5
1F8
330
1CB
100
AcDbEntity
  8
0
 62
7
100
AcDbCircle
 10
27.0
 20
-72.0
 30
0.0
 40
4.016952738884153
  0
LINE
  5
1F9
330
1CB
100
AcDbEntity
  8
0
 62
7
100
AcDbLine
 10
18.0
 20
-62.99999999999909
 30
0.0
 11
36.0
 21
-62.99999999999909
 31
0.0
  0
LWPOLYLINE
  5
1FA
330
1CB
100
AcDbEntity
  8
0
 62
1
100
AcDbPolyline
 90
4
 70
1
 10
23.0
 20
0.0
 10
31.0
 20
0.0
 10
31.0
 20
-12.0
 10
23.0
 20
-12.0
  0
LWPOLYLINE
  5
1FB
330
1CB
100
AcDbEntity
  8
0
 62
1
100
AcDbPolyline
 90
4
 70
1
 10
23.0
 20
-81.0
 10
31.0
 20
-81.0
 10
31.0
 20
-69.0
 10
23.0
 20
-69.0
  0
LINE
  5
1FC
330
1CB
100
AcDbEntity
  8
0
 62
7
100
AcDbLine
 10
30.1755814613507
 20
-69.54000168927814
 30
0.0
 11
27.70710678118667
 21
-72.00847636944216
 31
0.0
  0
LINE
  5
1FD
330
1CB
100
AcDbEntity
  8
0
 62
7
100
AcDbLine
 10
27.00000000000045
 20
-72.71558315062885
 30
0.0
 11
24.54000168927815
 21
-75.1755814613507
 31
0.0
  0
LINE
  5
1FE
330
1CB
100
AcDbEntity
  8
0
 62
7
100
AcDbLine
 10
29.46953802552526
 20
-68.83183156273026
 30
0.0
 11
27.0
 21
-71.30136958825551
 31
0.0
  0
LINE
  5
1FF
330
1CB
100
AcDbEntity
  8
0
 62
7
100
AcDbLine
 10
26.29289321881334
 20
-72.00847636944216
 30
0.0
 11
23.83183156272981
 21
-74.46953802552525
 31
0.0
  0
LINE
  5
200
330
1CB
100
AcDbEntity
  8
0
 62
7
100
AcDbLine
 10
23.8244185386493
 20
-69.54000168927814
 30
0.0
 11
26.29289321881334
 21
-72.00847636944216
 31
0.0
  0
LINE
  5
201
330
1CB
100
AcDbEntity
  8
0
 62
7
100
AcDbLine
 10
27.0
 20
-72.71558315062885
 30
0.0
 11
29.45999831072186
 21
-75.1755814613507
 31
0.0
  0
LINE
  5
202
330
1CB
100
AcDbEntity
  8
0
 62
7
100
AcDbLine
 10
24.5304619744743
 20
-68.83183156273026
 30
0.0
 11
27.0
 21
-71.30136958825551
 31
0.0
  0
LINE
  5
203
330
1CB
100
AcDbEntity
  8
0
 62
7
100
AcDbLine
 10
27.70710678118667
 20
-72.00847636944216
 30
0.0
 11
30.16816843726974
 21
-74.46953802552525
 31
0.0
  0
LINE
  5
204
330
1CB
100
AcDbEntity
  8
0
 62
7
100
AcDbLine
 10
30.1755814613507
 20
-11.45999831072095
 30
0.0
 11
27.70710678118667
 21
-8.991523630556912
 31
0.0
  0
LINE
  5
205
330
1CB
100
AcDbEntity
  8
0
 62
7
100
AcDbLine
 10
27.00000000000045
 20
-8.284416849370245
 30
0.0
 11
24.54000168927815
 21
-5.824418538648387
 31
0.0
  0
LINE
  5
206
330
1CB
100
AcDbEntity
  8
0
 62
7
100
AcDbLine
 10
29.46953802552526
 20
-12.16816843726883
 30
0.0
 11
27.0
 21
-9.69863041174358
 31
0.0
  0
LINE
  5
207
330
1CB
100
AcDbEntity
  8
0
 62
7
100
AcDbLine
 10
26.29289321881334
 20
-8.991523630556912
 30
0.0
 11
23.83183156272981
 21
-6.530461974473837
 31
0.0
  0
LINE
  5
208
330
1CB
100
AcDbEntity
  8
0
 62
7
100
AcDbLine
 10
23.8244185386493
 20
-11.45999831072095
 30
0.0
 11
26.29289321881334
 21
-8.991523630556912
 31
0.0
  0
LINE
  5
209
330
1CB
100
AcDbEntity
  8
0
 62
7
100
AcDbLine
 10
27.0
 20
-8.284416849370245
 30
0.0
 11
29.45999831072186
 21
-5.824418538648387
 31
0.0
  0
LINE
  5
20A
330
1CB
100
AcDbEntity
  8
0
 62
7
100
AcDbLine
 10
24.5304619744743
 20
-12.16816843726883
 30
0.0
 11
27.0
 21
-9.69863041174358
 31
0.0
  0
LINE
  5
20B
330
1CB
100
AcDbEntity
  8
0
 62
7
100
AcDbLine
 10
27.70710678118667
 20
-8.991523630556912
 30
0.0
 11
30.16816843726974
 21
-6.530461974473837
 31
0.0
  0
LWPOLYLINE
  5
20C
330
1CB
100
AcDbEntity
  8
0
 62
7
100
AcDbPolyline
 90
4
 70
1
 10
32.0
 20
-42.49999999999909
 10
34.0
 20
-42.49999999999909
 10
34.0
 20
-52.47585922747567
 10
32.0
 20
-52.47585922747567
  0
LWPOLYLINE
  5
20D
330
1CB
100
AcDbEntity
  8
0
 62
7
100
AcDbPolyline
 90
4
 70
1
 10
22.00000000000045
 20
-42.49999999999909
 10
20.00000000000046
 20
-42.49999999999909
 10
20.00000000000046
 20
-52.47585922747567
 10
22.00000000000045
 20
-52.47585922747567
  0
LINE
  5
20E
330
1CB
100
AcDbEntity
  8
0
 62
7
100
AcDbLine
 10
22.00000000000045
 20
-42.49999999999909
 30
0.0
 11
32.0
 21
-42.49999999999909
 31
0.0
  0
LINE
  5
20F
330
1CB
100
AcDbEntity
  8
0
 62
7
100
AcDbLine
 10
22.00000000000045
 20
-43.99999999999908
 30
0.0
 11
32.0
 21
-43.99999999999908
 31
0.0
  0
LINE
  5
210
330
1CB
100
AcDbEntity
  8
0
 62
7
100
AcDbLine
 10
31.5
 20
-52.47585922747567
 30
0.0
 11
31.5
 21
-50.47585922747567
 31
0.0
  0
LINE
  5
211
330
1CB
100
AcDbEntity
  8
0
 62
7
100
AcDbLine
 10
22.49999999999955
 20
-52.47585922747567
 30
0.0
 11
22.49999999999955
 21
-50.47585922747567
 31
0.0
  0
LINE
  5
212
330
1CB
100
AcDbEntity
  8
0
 62
7
100
AcDbLine
 10
22.49999999999955
 20
-50.47585922747567
 30
0.0
 11
31.5
 21
-50.47585922747567
 31
0.0
  0
LWPOLYLINE
  5
213
330
1CB
100
AcDbEntity
  8
0
 62
7
100
AcDbPolyline
 90
6
 70
0
 10
36.0
 20
-18.0
 10
36.0
 20
0.0
 10
54.0
 20
0.0
 10
54.0
 20
-80.99999999999909
 10
36.0
 20
-80.99999999999909
 10
36.0
 20
-62.99999999999909
  0
CIRCLE
  5
214
330
1CB
100
AcDbEntity
  8
0
 62
7
100
AcDbCircle
 10
45.0
 20
-9.0
 30
0.0
 40
4.016952738884153
  0
LINE
  5
215
330
1CB
100
AcDbEntity
  8
0
 62
7
100
AcDbLine
 10
45.0
 20
-4.983047261115643
 30
0.0
 11
45.0
 21
0.0
 31
0.0
  0
LINE
  5
216
330
1CB
100
AcDbEntity
  8
0
 62
7
100
AcDbLine
 10
36.0
 20
-18.0
 30
0.0
 11
54.0
 21
-18.0
 31
0.0
  0
CIRCLE
  5
217
330
1CB
100
AcDbEntity
  8
0
 62
7
100
AcDbCircle
 10
45.0
 20
-72.0
 30
0.0
 40
4.016952738884153
  0
LINE
  5
218
330
1CB
100
AcDbEntity
  8
0
 62
7
100
AcDbLine
 10
36.0
 20
-62.99999999999909
 30
0.0
 11
54.0
 21
-62.99999999999909
 31
0.0
  0
LWPOLYLINE
  5
219
330
1CB
100
AcDbEntity
  8
0
 62
1
100
AcDbPolyline
 90
4
 70
1
 10
41.0
 20
0.0
 10
49.0
 20
0.0
 10
49.0
 20
-12.0
 10
41.0
 20
-12.0
  0
LWPOLYLINE
  5
21A
330
1CB
100
AcDbEntity
  8
0
 62
1
100
AcDbPolyline
 90
4
 70
1
 10
41.0
 20
-81.0
 10
49.0
 20
-81.0
 10
49.0
 20
-69.0
 10
41.0
 20
-69.0
  0
LINE
  5
21B
330
1CB
100
AcDbEntity
  8
0
 62
7
100
AcDbLine
 10
48.1755814613507
 20
-69.54000168927814
 30
0.0
 11
45.70710678118667
 21
-72.00847636944216
 31
0.0
  0
LINE
  5
21C
330
1CB
100
AcDbEntity
  8
0
 62
7
100
AcDbLine
 10
45.00000000000045
 20
-72.71558315062885
 30
0.0
 11
42.54000168927814
 21
-75.1755814613507
 31
0.0
  0
LINE
  5
21D
330
1CB
100
AcDbEntity
  8
0
 62
7
100
AcDbLine
 10
47.46953802552525
 20
-68.83183156273026
 30
0.0
 11
45.0
 21
-71.30136958825551
 31
0.0
  0
LINE
  5
21E
330
1CB
100
AcDbEntity
  8
0
 62
7
100
AcDbLine
 10
44.29289321881333
 20
-72.00847636944216
 30
0.0
 11
41.8318315627298
 21
-74.46953802552525
 31
0.0
  0
LINE
  5
21F
330
1CB
100
AcDbEntity
  8
0
 62
7
100
AcDbLine
 10
41.82441853864929
 20
-69.54000168927814
 30
0.0
 11
44.29289321881333
 21
-72.00847636944216
 31
0.0
  0
LINE
  5
220
330
1CB
100
AcDbEntity
  8
0
 62
7
100
AcDbLine
 10
45.0
 20
-72.71558315062885
 30
0.0
 11
47.45999831072185
 21
-75.1755814613507
 31
0.0
  0
LINE
  5
221
330
1CB
100
AcDbEntity
  8
0
 62
7
100
AcDbLine
 10
42.53046197447429
 20
-68.83183156273026
 30
0.0
 11
45.0
 21
-71.30136958825551
 31
0.0
  0
LINE
  5
222
330
1CB
100
AcDbEntity
  8
0
 62
7
100
AcDbLine
 10
45.70710678118667
 20
-72.00847636944216
 30
0.0
 11
48.16816843726974
 21
-74.46953802552525
 31
0.0
  0
LINE
  5
223
330
1CB
100
AcDbEntity
  8
0
 62
7
100
AcDbLine
 10
48.1755814613507
 20
-11.45999831072095
 30
0.0
 11
45.70710678118667
 21
-8.991523630556912
 31
0.0
  0
LINE
  5
224
330
1CB
100
AcDbEntity
  8
0
 62
7
100
AcDbLine
 10
45.00000000000045
 20
-8.284416849370245
 30
0.0
 11
42.54000168927814
 21
-5.824418538648387
 31
0.0
  0
LINE
  5
225
330
1CB
100
AcDbEntity
  8
0
 62
7
100
AcDbLine
 10
47.46953802552525
 20
-12.16816843726883
 30
0.0
 11
45.0
 21
-9.69863041174358
 31
0.0
  0
LINE
  5
226
330
1CB
100
AcDbEntity
  8
0
 62
7
100
AcDbLine
 10
44.29289321881333
 20
-8.991523630556912
 30
0.0
 11
41.8318315627298
 21
-6.530461974473837
 31
0.0
  0
LINE
  5
227
330
1CB
100
AcDbEntity
  8
0
 62
7
100
AcDbLine
 10
41.82441853864929
 20
-11.45999831072095
 30
0.0
 11
44.29289321881333
 21
-8.991523630556912
 31
0.0
  0
LINE
  5
228
330
1CB
100
AcDbEntity
  8
0
 62
7
100
AcDbLine
 10
45.0
 20
-8.284416849370245
 30
0.0
 11
47.45999831072185
 21
-5.824418538648387
 31
0.0
  0
LINE
  5
229
330
1CB
100
AcDbEntity
  8
0
 62
7
100
AcDbLine
 10
42.53046197447429
 20
-12.16816843726883
 30
0.0
 11
45.0
 21
-9.69863041174358
 31
0.0
  0
LINE
  5
22A
330
1CB
100
AcDbEntity
  8
0
 62
7
100
AcDbLine
 10
45.70710678118667
 20
-8.991523630556912
 30
0.0
 11
48.16816843726974
 21
-6.530461974473837
 31
0.0
  0
LWPOLYLINE
  5
22B
330
1CB
100
AcDbEntity
  8
0
 62
7
100
AcDbPolyline
 90
4
 70
1
 10
50.0
 20
-42.49999999999909
 10
52.0
 20
-42.49999999999909
 10
52.0
 20
-52.47585922747567
 10
50.0
 20
-52.47585922747567
  0
LWPOLYLINE
  5
22C
330
1CB
100
AcDbEntity
  8
0
 62
7
100
AcDbPolyline
 90
4
 70
1
 10
40.00000000000045
 20
-42.49999999999909
 10
38.00000000000046
 20
-42.49999999999909
 10
38.00000000000046
 20
-52.47585922747567
 10
40.00000000000045
 20
-52.47585922747567
  0
LINE
  5
22D
330
1CB
100
AcDbEntity
  8
0
 62
7
100
AcDbLine
 10
40.00000000000045
 20
-42.49999999999909
 30
0.0
 11
50.0
 21
-42.49999999999909
 31
0.0
  0
LINE
  5
22E
330
1CB
100
AcDbEntity
  8
0
 62
7
100
AcDbLine
 10
40.00000000000045
 20
-43.99999999999908
 30
0.0
 11
50.0
 21
-43.99999999999908
 31
0.0
  0
LINE
  5
22F
330
1CB
100
AcDbEntity
  8
0
 62
7
100
AcDbLine
 10
49.5
 20
-52.47585922747567
 30
0.0
 11
49.5
 21
-50.47585922747567
 31
0.0
  0
LINE
  5
230
330
1CB
100
AcDbEntity
  8
0
 62
7
100
AcDbLine
 10
40.49999999999954
 20
-52.47585922747567
 30
0.0
 11
40.49999999999954
 21
-50.47585922747567
 31
0.0
  0
LINE
  5
231
330
1CB
100
AcDbEntity
  8
0
 62
7
100
AcDbLine
 10
40.49999999999954
 20
-50.47585922747567
 30
0.0
 11
49.5
 21
-50.47585922747567
 31
0.0
  0
ENDBLK
  5
1CD
330
1CB
100
AcDbEntity
  8
0
100
AcDbBlockEnd
  0
BLOCK
  5
233
330
232
100
AcDbEntity
  8
0
100
AcDbBlockBegin
  2
HCC BKN
 70
0
 10
0.0
 20
0.0
 30
0.0
  3
HCC BKN
  1

  0
LINE
  5
235
330
232
100
AcDbEntity
  8
0
100
AcDbLine
 10
5.0
 20
-21.97445470381717
 30
0.0
 11
5.0
 21
-59.02554529618282
 31
0.0
  0
LINE
  5
236
330
232
100
AcDbEntity
  8
0
100
AcDbLine
 10
5.0
 20
-59.02554529618282
 30
0.0
 11
1.0
 21
-59.02554529618282
 31
0.0
  0
ARC
  5
237
330
232
100
AcDbEntity
  8
0
100
AcDbCircle
 10
1.0
 20
-60.02554529618283
 30
0.0
 40
1.0
100
AcDbArc
 50
90.0
 51
180.0
  0
LINE
  5
238
330
232
100
AcDbEntity
  8
0
100
AcDbLine
 10
0.0
 20
-60.02554529618283
 30
0.0
 11
0.0
 21
-80.99999999999909
 31
0.0
  0
LINE
  5
239
330
232
100
AcDbEntity
  8
0
100
AcDbLine
 10
0.0
 20
-80.99999999999909
 30
0.0
 11
49.0
 21
-80.99999999999909
 31
0.0
  0
LINE
  5
23A
330
232
100
AcDbEntity
  8
0
100
AcDbLine
 10
50.0
 20
-79.99999999999909
 30
0.0
 11
50.0
 21
-63.00543726483283
 31
0.0
  0
ARC
  5
23B
330
232
100
AcDbEntity
  8
0
100
AcDbCircle
 10
49.0
 20
-79.99999999999909
 30
0.0
 40
1.0
100
AcDbArc
 50
270.0
 51
0.0
  0
LINE
  5
23C
330
232
100
AcDbEntity
  8
0
100
AcDbLine
 10
5.0
 20
-21.97445470381717
 30
0.0
 11
1.559919880382039
 21
-24.78654640136119
 31
0.0
  0
ARC
  5
23D
330
232
100
AcDbEntity
  8
0
100
AcDbCircle
 10
0.9125536451183506
 20
-23.74003280385569
 30
0.0
 40
1.230558309192808
100
AcDbArc
 50
222.1340809384286
 51
301.7406548862816
  0
LINE
  5
23E
330
232
100
AcDbEntity
  8
0
100
AcDbLine
 10
0.0
 20
-24.5655748058789
 30
0.0
 11
0.0
 21
-12.07028046292998
 31
0.0
  0
ARC
  5
23F
330
232
100
AcDbEntity
  8
0
100
AcDbCircle
 10
-0.4633143612591084
 20
-10.90983438974581
 30
0.0
 40
1.249518021525703
100
AcDbArc
 50
291.764622088229
 51
68.23537791177095
  0
LINE
  5
240
330
232
100
AcDbEntity
  8
0
100
AcDbLine
 10
0.0
 20
-9.749388316561635
 30
0.0
 11
0.0
 21
0.0
 31
0.0
  0
LINE
  5
241
330
232
100
AcDbEntity
  8
0
100
AcDbLine
 10
0.0
 20
0.0
 30
0.0
 11
49.0
 21
0.0
 31
0.0
  0
LINE
  5
242
330
232
100
AcDbEntity
  8
0
100
AcDbLine
 10
50.0
 20
-1.0
 30
0.0
 11
50.0
 21
-18.0
 31
0.0
  0
ARC
  5
243
330
232
100
AcDbEntity
  8
0
100
AcDbCircle
 10
49.0
 20
-1.0
 30
0.0
 40
1.0
100
AcDbArc
 50
0.0
 51
90.0
  0
ARC
  5
244
330
232
100
AcDbEntity
  8
0
100
AcDbCircle
 10
61.84338687457375
 20
-48.99999999999909
 30
0.0
 40
7.225939829780847
100
AcDbArc
 50
295.9027297609567
 51
64.09727023904331
  0
LINE
  5
245
330
232
100
AcDbEntity
  8
0
100
AcDbLine
 10
68.17841718660702
 20
-52.47585922747567
 30
0.0
 11
72.99002622340413
 21
-56.27916909035684
 31
0.0
  0
LINE
  5
246
330
232
100
AcDbEntity
  8
0
100
AcDbLine
 10
72.99002622340413
 20
-56.27916909035684
 30
0.0
 11
71.14056003684163
 21
-58.61894905500412
 31
0.0
  0
LINE
  5
247
330
232
100
AcDbEntity
  8
0
100
AcDbLine
 10
71.14056003684163
 20
-58.61894905500412
 30
0.0
 11
66.17684870891662
 21
-54.78232781446149
 31
0.0
  0
CIRCLE
  5
248
330
232
100
AcDbEntity
  8
0
100
AcDbCircle
 10
9.580582432181473
 20
-10.89335207562089
 30
0.0
 40
1.256930166924623
  0
CIRCLE
  5
249
330
232
100
AcDbEntity
  8
0
100
AcDbCircle
 10
9.580582432181473
 20
-10.89335207562089
 30
0.0
 40
2.971168876220671
  0
CIRCLE
  5
24A
330
232
100
AcDbEntity
  8
0
100
AcDbCircle
 10
9.57344617986928
 20
-57.67208215094069
 30
0.0
 40
1.256930166924623
  0
CIRCLE
  5
24B
330
232
100
AcDbEntity
  8
0
100
AcDbCircle
 10
9.57344617986928
 20
-57.67208215094069
 30
0.0
 40
2.971168876220671
  0
MTEXT
  5
24C
330
232
100
AcDbEntity
  8
0
 62
1
100
AcDbMText
 10
18.44921946859176
 20
-36.35827313289701
 30
0.0
 40
6.0
 41
0.0
 46
13.37611513729585
 71
1
 72
5
  1
\A1;BKN 
  0
LINE
  5
24D
330
232
100
AcDbEntity
  8
0
100
AcDbLine
 10
9.580582432181473
 20
-6.903281432637413
 30
0.0
 11
9.580582432181473
 21
-14.88342271860529
 31
0.0
  0
LINE
  5
24E
330
232
100
AcDbEntity
  8
0
100
AcDbLine
 10
5.58479953132155
 20
-10.89335207562089
 30
0.0
 11
13.39835615737956
 21
-10.89335207562089
 31
0.0
  0
LINE
  5
24F
330
232
100
AcDbEntity
  8
0
100
AcDbLine
 10
9.57344617986928
 20
-53.68201150795721
 30
0.0
 11
9.57344617986928
 21
-61.66215279392417
 31
0.0
  0
LINE
  5
250
330
232
100
AcDbEntity
  8
0
100
AcDbLine
 10
5.26912038156388
 20
-57.67208215094069
 30
0.0
 11
13.39121990506737
 21
-57.67208215094069
 31
0.0
  0
LWPOLYLINE
  5
251
330
232
100
AcDbEntity
  8
0
 62
1
100
AcDbPolyline
 90
4
 70
1
 10
19.0
 20
0.0
 10
27.0
 20
0.0
 10
27.0
 20
-12.0
 10
19.0
 20
-12.0
  0
LWPOLYLINE
  5
252
330
232
100
AcDbEntity
  8
0
 62
1
100
AcDbPolyline
 90
4
 70
1
 10
19.0
 20
-81.0
 10
27.0
 20
-81.0
 10
27.0
 20
-69.0
 10
19.0
 20
-69.0
  0
LWPOLYLINE
  5
253
330
232
100
AcDbEntity
  8
0
 62
7
100
AcDbPolyline
 90
6
 70
0
 10
50.0
 20
-18.0
 10
63.0
 20
-18.0
 42
-0.4142135623730951
 10
65.0
 20
-20.0
 10
65.0
 20
-61.0
 42
-0.4142135623730951
 10
63.0
 20
-63.0
 10
50.0
 20
-63.0
  0
ENDBLK
  5
234
330
232
100
AcDbEntity
  8
0
100
AcDbBlockEnd
  0
BLOCK
  5
255
330
254
100
AcDbEntity
  8
0
100
AcDbBlockBegin
  2
HL003-2-3
 70
0
 10
0.0
 20
0.0
 30
0.0
  3
HL003-2-3
  1

  0
LINE
  5
257
330
254
100
AcDbEntity
  8
0
 62
1
100
AcDbLine
 10
0.0
 20
22.0
 30
0.0
 11
17.0
 21
22.0
 31
0.0
  0
LINE
  5
258
330
254
100
AcDbEntity
  8
0
 62
1
100
AcDbLine
 10
0.0
 20
20.0
 30
0.0
 11
15.0
 21
20.0
 31
0.0
  0
LINE
  5
259
330
254
100
AcDbEntity
  8
0
 62
1
100
AcDbLine
 10
17.0
 20
22.0
 30
0.0
 11
17.0
 21
3.0
 31
0.0
  0
LINE
  5
25A
330
254
100
AcDbEntity
  8
0
 62
1
100
AcDbLine
 10
15.0
 20
20.0
 30
0.0
 11
15.0
 21
3.0
 31
0.0
  0
LINE
  5
25B
330
254
100
AcDbEntity
  8
0
 62
1
100
AcDbLine
 10
0.0
 20
20.0
 30
0.0
 11
0.0
 21
22.0
 31
0.0
  0
LINE
  5
25C
330
254
100
AcDbEntity
  8
0
 62
1
100
AcDbLine
 10
4.0
 20
20.0
 30
0.0
 11
4.0
 21
18.0
 31
0.0
  0
LINE
  5
25D
330
254
100
AcDbEntity
  8
0
 62
1
100
AcDbLine
 10
4.0
 20
18.0
 30
0.0
 11
0.0
 21
18.0
 31
0.0
  0
CIRCLE
  5
25E
330
254
100
AcDbEntity
  8
0
 62
1
100
AcDbCircle
 10
10.0
 20
16.0
 30
0.0
 40
3.0
  0
LINE
  5
25F
330
254
100
AcDbEntity
  8
0
 62
1
100
AcDbLine
 10
17.0
 20
3.0
 30
0.0
 11
8.0
 21
3.0
 31
0.0
  0
LINE
  5
260
330
254
100
AcDbEntity
  8
0
 62
1
100
AcDbLine
 10
0.0
 20
10.0
 30
0.0
 11
0.0
 21
18.0
 31
0.0
  0
LINE
  5
261
330
254
100
AcDbEntity
  8
0
 62
1
100
AcDbLine
 10
0.0
 20
10.0
 30
0.0
 11
8.0
 21
3.0
 31
0.0
  0
LINE
  5
262
330
254
100
AcDbEntity
  8
0
 62
1
100
AcDbLine
 10
16.0
 20
3.0
 30
0.0
 11
16.0
 21
0.0
 31
0.0
  0
LINE
  5
263
330
254
100
AcDbEntity
  8
0
 62
1
100
AcDbLine
 10
16.0
 20
0.0
 30
0.0
 11
0.0
 21
0.0
 31
0.0
  0
LINE
  5
264
330
254
100
AcDbEntity
  8
0
 62
1
100
AcDbLine
 10
0.0
 20
0.0
 30
0.0
 11
0.0
 21
4.0
 31
0.0
  0
LINE
  5
265
330
254
100
AcDbEntity
  8
0
 62
1
100
AcDbLine
 10
0.0
 20
4.0
 30
0.0
 11
3.428571428579743
 21
7.0
 31
0.0
  0
CIRCLE
  5
266
330
254
100
AcDbEntity
  8
0
 62
1
100
AcDbCircle
 10
10.0
 20
16.0
 30
0.0
 40
3.0
  0
HATCH
  5
267
330
254
100
AcDbEntity
  8
0
 62
2
100
AcDbHatch
 10
0.0
 20
0.0
 30
0.0
210
0.0
220
0.0
230
1.0
  2
ANSI31
 70
0
 71
0
 91
1
 92
7
 72
0
 73
1
 93
4
 10
11.0
 20
10.0
 10
5.0
 20
10.0
 10
5.0
 20
0.0
 10
11.0
 20
0.0
 97
0
 75
0
 76
1
 52
0.0
 41
0.5
 77
0
 78
1
 53
45.0
 43
8435.407079138444
 44
86016.96644780628
 45
-1.122532015133643
 46
1.122532015133643
 79
0
 47
0.0298277246703574
 98
1
 10
8.80767606885638
 20
4.97684244980337
  0
LWPOLYLINE
  5
268
330
254
100
AcDbEntity
  8
0
 62
2
100
AcDbPolyline
 90
4
 70
1
 10
5.0
 20
10.0
 10
11.0
 20
10.0
 10
11.0
 20
0.0
 10
5.0
 20
0.0
  0
ENDBLK
  5
256
330
254
100
AcDbEntity
  8
0
100
AcDbBlockEnd
  0
BLOCK
  5
26A
330
269
100
AcDbEntity
  8
0
100
AcDbBlockBegin
  2
LS 100AF 3P
 70
0
 10
0.0
 20
0.0
 30
0.0
  3
LS 100AF 3P
  1

  0
INSERT
  5
26C
330
269
100
AcDbEntity
  8
0
100
AcDbBlockReference
  2
CB LS 30AF 3P
 10
0.0
 20
0.0
 30
0.0
  0
CIRCLE
  5
26E
330
269
100
AcDbEntity
  8
0
 62
1
100
AcDbCircle
 10
12.5
 20
-7.5
 30
0.0
 40
4.5
  0
CIRCLE
  5
26F
330
269
100
AcDbEntity
  8
0
 62
2
100
AcDbCircle
 10
37.5
 20
-7.5
 30
0.0
 40
4.5
  0
CIRCLE
  5
270
330
269
100
AcDbEntity
  8
0
 62
5
100
AcDbCircle
 10
62.5
 20
-7.5
 30
0.0
 40
4.5
  0
CIRCLE
  5
271
330
269
100
AcDbEntity
  8
0
 62
1
100
AcDbCircle
 10
12.5
 20
-122.5
 30
0.0
 40
4.5
  0
CIRCLE
  5
272
330
269
100
AcDbEntity
  8
0
 62
2
100
AcDbCircle
 10
37.5
 20
-122.5
 30
0.0
 40
4.5
  0
CIRCLE
  5
273
330
269
100
AcDbEntity
  8
0
 62
5
100
AcDbCircle
 10
62.5
 20
-122.5
 30
0.0
 40
4.5
  0
CIRCLE
  5
274
330
269
100
AcDbEntity
  8
0
 62
4
100
AcDbCircle
 10
25.0
 20
-9.75
 30
0.0
 40
2.5
  0
CIRCLE
  5
275
330
269
100
AcDbEntity
  8
0
 62
4
100
AcDbCircle
 10
50.0
 20
-120.25
 30
0.0
 40
2.5
  0
LWPOLYLINE
  5
276
330
269
100
AcDbEntity
  8
0
 62
1
100
AcDbPolyline
 90
4
 70
1
 10
4.999999999999089
 20
4.547e-13
 10
19.99999999999909
 20
4.547e-13
 10
19.99999999999909
 20
-14.0
 10
4.999999999999089
 20
-14.0
  0
LWPOLYLINE
  5
277
330
269
100
AcDbEntity
  8
0
 62
2
100
AcDbPolyline
 90
4
 70
1
 10
29.99999999999909
 20
4.547e-13
 10
44.99999999999909
 20
4.547e-13
 10
44.99999999999909
 20
-14.0
 10
29.99999999999909
 20
-14.0
  0
LWPOLYLINE
  5
278
330
269
100
AcDbEntity
  8
0
 62
5
100
AcDbPolyline
 90
4
 70
1
 10
54.99999999999909
 20
4.547e-13
 10
69.99999999999909
 20
4.547e-13
 10
69.99999999999909
 20
-14.0
 10
54.99999999999909
 20
-14.0
  0
LWPOLYLINE
  5
279
330
269
100
AcDbEntity
  8
0
 62
1
100
AcDbPolyline
 90
4
 70
1
 10
4.999999999999089
 20
-130.0000000000004
 10
19.99999999999909
 20
-130.0000000000004
 10
19.99999999999909
 20
-116.0
 10
4.999999999999089
 20
-116.0
  0
LWPOLYLINE
  5
27A
330
269
100
AcDbEntity
  8
0
 62
2
100
AcDbPolyline
 90
4
 70
1
 10
29.99999999999909
 20
-130.0000000000004
 10
44.99999999999909
 20
-130.0000000000004
 10
44.99999999999909
 20
-116.0
 10
29.99999999999909
 20
-116.0
  0
LWPOLYLINE
  5
27B
330
269
100
AcDbEntity
  8
0
 62
5
100
AcDbPolyline
 90
4
 70
1
 10
54.99999999999909
 20
-130.0000000000004
 10
69.99999999999909
 20
-130.0000000000004
 10
69.99999999999909
 20
-116.0
 10
54.99999999999909
 20
-116.0
  0
MTEXT
  5
27C
330
269
100
AcDbEntity
  8
0
100
AcDbMText
 10
42.70118472301237
 20
-59.51036465541483
 30
0.0
 40
3.5
 41
37.68671622717443
 46
0.0
 71
1
 72
5
  1
\pi8.28487;{\C1;LS MCCB\P\pi14.01713;ABN\P\pi10.11007;103c-3P}
101
Embedded Object
 70
1
 10
1.0
 20
0.0
 30
0.0
 11
42.70118472301237
 21
-59.51036465541483
 31
0.0
 40
37.68671622717443
 41
0.0
 42
37.68671622717443
 43
0.0
 71
2
 72
1
 44
37.68671622717443
 45
1.0
 73
0
 74
0
 46
0.0
  0
CIRCLE
  5
27D
330
269
100
AcDbEntity
  8
0
 62
4
100
AcDbCircle
 10
50.0
 20
-9.75
 30
0.0
 40
2.5
  0
CIRCLE
  5
27E
330
269
100
AcDbEntity
  8
0
 62
4
100
AcDbCircle
 10
25.0
 20
-120.25
 30
0.0
 40
2.5
  0
ENDBLK
  5
26B
330
269
100
AcDbEntity
  8
0
100
AcDbBlockEnd
  0
BLOCK
  5
280
330
27F
100
AcDbEntity
  8
0
100
AcDbBlockBegin
  2
SDGFGHGHG
 70
0
 10
0.0
 20
0.0
 30
0.0
  3
SDGFGHGHG
  1

  0
LINE
  5
282
330
27F
100
AcDbEntity
  8
HEATER
100
AcDbLine
 10
860892.9443677951
 20
570760.5213009797
 30
0.0
 11
860892.9443677951
 21
570780.5213009797
 31
0.0
  0
LINE
  5
283
330
27F
100
AcDbEntity
  8
HEATER
100
AcDbLine
 10
860935.944367795
 20
570742.0213009797
 30
0.0
 11
860935.944367795
 21
570784.3053497317
 31
0.0
  0
LINE
  5
284
330
27F
100
AcDbEntity
  8
HEATER
100
AcDbLine
 10
860944.944367795
 20
570742.0213009797
 30
0.0
 11
860944.944367795
 21
570784.3053497317
 31
0.0
  0
ARC
  5
285
330
27F
100
AcDbEntity
  8
HEATER
100
AcDbCircle
 10
860940.444367795
 20
570770.5213009797
 30
0.0
 40
14.5
100
AcDbArc
 50
288.0800126249186
 51
251.9199873760986
  0
LINE
  5
286
330
27F
100
AcDbEntity
  8
HEATER
100
AcDbLine
 10
860935.944367795
 20
570742.0213009797
 30
0.0
 11
860944.944367795
 21
570742.0213009797
 31
0.0
  0
LINE
  5
287
330
27F
100
AcDbEntity
  8
HEATER
100
AcDbLine
 10
860892.9443677951
 20
570780.5213009797
 30
0.0
 11
860931.5694281411
 21
570781.9880113245
 31
0.0
  0
LINE
  5
288
330
27F
100
AcDbEntity
  8
HEATER
100
AcDbLine
 10
860892.9443677951
 20
570760.5213009797
 30
0.0
 11
860931.5694281411
 21
570759.0545906347
 31
0.0
  0
LINE
  5
289
330
27F
100
AcDbEntity
  8
HEATER
100
AcDbLine
 10
860892.9443677951
 20
570771.8975213168
 30
0.0
 11
860906.3296893912
 21
570778.6620310972
 31
0.0
  0
LINE
  5
28A
330
27F
100
AcDbEntity
  8
HEATER
100
AcDbLine
 10
860892.9443677951
 20
570769.1450806425
 30
0.0
 11
860906.3296893912
 21
570762.380570862
 31
0.0
  0
CIRCLE
  5
28B
330
27F
100
AcDbEntity
  8
HEATER
100
AcDbCircle
 10
860940.444367795
 20
570770.5213009797
 30
0.0
 40
3.078158209494111
  0
LINE
  5
28C
330
27F
100
AcDbEntity
  8
HEATER
100
AcDbLine
 10
860939.5447235582
 20
570773.4650567796
 30
0.0
 11
860939.5447235582
 21
570771.2753346086
 31
0.0
  0
LINE
  5
28D
330
27F
100
AcDbEntity
  8
HEATER
100
AcDbLine
 10
860939.5447235582
 20
570769.7672673506
 30
0.0
 11
860939.5447235582
 21
570767.5775451798
 31
0.0
  0
LINE
  5
28E
330
27F
100
AcDbEntity
  8
HEATER
100
AcDbLine
 10
860941.3440120325
 20
570773.4650567796
 30
0.0
 11
860941.3440120325
 21
570771.2753346086
 31
0.0
  0
LINE
  5
28F
330
27F
100
AcDbEntity
  8
HEATER
100
AcDbLine
 10
860941.3440120325
 20
570769.7672673506
 30
0.0
 11
860941.3440120325
 21
570767.5775451798
 31
0.0
  0
LINE
  5
290
330
27F
100
AcDbEntity
  8
HEATER
100
AcDbLine
 10
860937.4599932797
 20
570771.2753346086
 30
0.0
 11
860939.5447235582
 21
570771.2753346086
 31
0.0
  0
LINE
  5
291
330
27F
100
AcDbEntity
  8
HEATER
100
AcDbLine
 10
860941.3440120325
 20
570771.2753346086
 30
0.0
 11
860943.4287423106
 21
570771.2753346086
 31
0.0
  0
LINE
  5
292
330
27F
100
AcDbEntity
  8
HEATER
100
AcDbLine
 10
860937.4599932797
 20
570769.7672673506
 30
0.0
 11
860939.5447235582
 21
570769.7672673506
 31
0.0
  0
LINE
  5
293
330
27F
100
AcDbEntity
  8
HEATER
100
AcDbLine
 10
860941.3440120325
 20
570769.7672673506
 30
0.0
 11
860943.4287423106
 21
570769.7672673506
 31
0.0
  0
ENDBLK
  5
281
330
27F
100
AcDbEntity
  8
0
100
AcDbBlockEnd
  0
BLOCK
  5
295
330
294
100
AcDbEntity
  8
0
100
AcDbBlockBegin
  2
SĐFHGGH
 70
0
 10
0.0
 20
0.0
 30
0.0
  3
SĐFHGGH
  1

  0
ARC
  5
297
330
294
100
AcDbEntity
  8
HEATER
100
AcDbCircle
 10
860940.444367795
 20
570705.4118046993
 30
0.0
 40
12.0
100
AcDbArc
 50
104.4775121859967
 51
165.5224878140032
  0
ARC
  5
298
330
294
100
AcDbEntity
  8
HEATER
100
AcDbCircle
 10
860940.444367795
 20
570705.4118046993
 30
0.0
 40
12.0
100
AcDbArc
 50
194.4775121859968
 51
255.5224878140033
  0
ARC
  5
299
330
294
100
AcDbEntity
  8
HEATER
100
AcDbCircle
 10
860940.444367795
 20
570705.4118046993
 30
0.0
 40
12.0
100
AcDbArc
 50
284.4775121859968
 51
345.5224878140032
  0
ARC
  5
29A
330
294
100
AcDbEntity
  8
HEATER
100
AcDbCircle
 10
860940.444367795
 20
570705.4118046993
 30
0.0
 40
12.0
100
AcDbArc
 50
14.47751218599677
 51
75.52248781400324
  0
LWPOLYLINE
  5
29B
330
294
100
AcDbEntity
  8
HEATER
100
AcDbPolyline
 90
4
 70
0
 10
860943.4443677953
 20
570717.0307547379
 10
860943.4443677953
 20
570718.4118046995
 10
860937.4443677955
 20
570718.4118046995
 10
860937.4443677955
 20
570717.0307547379
  0
LWPOLYLINE
  5
29C
330
294
100
AcDbEntity
  8
HEATER
100
AcDbPolyline
 90
4
 70
0
 10
860943.4443677953
 20
570693.7928546608
 10
860943.4443677953
 20
570692.4118046995
 10
860937.4443677955
 20
570692.4118046995
 10
860937.4443677955
 20
570693.7928546608
  0
LWPOLYLINE
  5
29D
330
294
100
AcDbEntity
  8
HEATER
100
AcDbPolyline
 90
4
 70
0
 10
860952.0633178339
 20
570702.4118046995
 10
860953.4443677956
 20
570702.4118046995
 10
860953.4443677956
 20
570708.4118046993
 10
860952.0633178339
 20
570708.4118046993
  0
LWPOLYLINE
  5
29E
330
294
100
AcDbEntity
  8
HEATER
100
AcDbPolyline
 90
4
 70
0
 10
860928.8254177567
 20
570702.4118046995
 10
860927.4443677953
 20
570702.4118046995
 10
860927.4443677953
 20
570708.4118046993
 10
860928.8254177567
 20
570708.4118046993
  0
ENDBLK
  5
296
330
294
100
AcDbEntity
  8
0
100
AcDbBlockEnd
  0
BLOCK
  5
2A0
330
29F
100
AcDbEntity
  8
0
100
AcDbBlockBegin
  2
CB LS 30AF 3P
 70
0
 10
0.0
 20
0.0
 30
0.0
  3
CB LS 30AF 3P
  1

  0
MTEXT
  5
2A2
330
29F
100
AcDbEntity
  8
0
100
AcDbMText
 10
55.5
 20
-27.0
 30
0.0
 40
4.0
 41
14.07753558144964
 46
0.0
 71
1
 72
5
  1
LINE
101
Embedded Object
 70
1
 10
1.0
 20
0.0
 30
0.0
 11
55.5
 21
-27.0
 31
0.0
 40
14.07753558144964
 41
0.0
 42
14.07753558144964
 43
0.0
 71
2
 72
1
 44
14.07753558144964
 45
1.0
 73
0
 74
0
 46
0.0
  0
MTEXT
  5
2A3
330
29F
100
AcDbEntity
  8
0
100
AcDbMText
 10
5.0
 20
-27.0
 30
0.0
 40
4.0
 41
14.07753558144964
 46
0.0
 71
1
 72
5
  1
MCCB
101
Embedded Object
 70
1
 10
1.0
 20
0.0
 30
0.0
 11
5.0
 21
-27.0
 31
0.0
 40
14.07753558144964
 41
0.0
 42
14.07753558144964
 43
0.0
 71
2
 72
1
 44
14.07753558144964
 45
1.0
 73
0
 74
0
 46
0.0
  0
LWPOLYLINE
  5
2A4
330
29F
100
AcDbEntity
  8
0
370
30
100
AcDbPolyline
 90
2
 70
0
 10
21.5
 20
-130.0
 10
28.5
 20
-130.0
  0
LWPOLYLINE
  5
2A5
330
29F
100
AcDbEntity
  8
0
370
30
100
AcDbPolyline
 90
2
 70
0
 10
28.5
 20
0.0
 10
21.5
 20
0.0
  0
LWPOLYLINE
  5
2A6
330
29F
100
AcDbEntity
  8
0
370
30
100
AcDbPolyline
 90
4
 70
0
 10
3.5
 20
0.0
 10
0.0
 20
0.0
 10
0.0
 20
-130.0
 10
3.5
 20
-130.0
  0
LINE
  5
2A7
330
29F
100
AcDbEntity
  8
E_Electrical Equipment
 62
0
100
AcDbLine
 10
21.5
 20
0.0
 30
0.0
 11
28.5
 21
0.0
 31
0.0
  0
LWPOLYLINE
  5
2A8
330
29F
100
AcDbEntity
  8
0
370
30
100
AcDbPolyline
 90
4
 70
0
 10
28.5
 20
0.0
 10
28.5
 20
-14.0
 10
46.5
 20
-14.0
 10
46.5
 20
0.0
  0
CIRCLE
  5
2A9
330
29F
100
AcDbEntity
  8
E_Electrical Equipment
 62
0
100
AcDbCircle
 10
37.5
 20
-7.5
 30
0.0
 40
2.5
  0
LWPOLYLINE
  5
2AA
330
29F
100
AcDbEntity
  8
0
370
30
100
AcDbPolyline
 90
4
 70
0
 10
3.5
 20
0.0
 10
3.5
 20
-14.0
 10
21.5
 20
-14.0
 10
21.5
 20
0.0
  0
CIRCLE
  5
2AB
330
29F
100
AcDbEntity
  8
E_Electrical Equipment
 62
0
100
AcDbCircle
 10
12.5
 20
-7.5
 30
0.0
 40
2.5
  0
LINE
  5
2AC
330
29F
100
AcDbEntity
  8
E_Electrical Equipment
 62
0
100
AcDbLine
 10
21.5
 20
-130.0
 30
0.0
 11
28.5
 21
-130.0
 31
0.0
  0
LWPOLYLINE
  5
2AD
330
29F
100
AcDbEntity
  8
0
370
30
100
AcDbPolyline
 90
4
 70
0
 10
28.5
 20
-130.0
 10
28.5
 20
-116.0
 10
46.5
 20
-116.0
 10
46.5
 20
-130.0
  0
CIRCLE
  5
2AE
330
29F
100
AcDbEntity
  8
E_Electrical Equipment
 62
0
100
AcDbCircle
 10
37.5
 20
-122.5
 30
0.0
 40
2.5
  0
LWPOLYLINE
  5
2AF
330
29F
100
AcDbEntity
  8
0
370
30
100
AcDbPolyline
 90
4
 70
0
 10
3.5
 20
-130.0
 10
3.5
 20
-116.0
 10
21.5
 20
-116.0
 10
21.5
 20
-130.0
  0
CIRCLE
  5
2B0
330
29F
100
AcDbEntity
  8
E_Electrical Equipment
 62
0
100
AcDbCircle
 10
12.5
 20
-122.5
 30
0.0
 40
2.5
  0
LINE
  5
2B1
330
29F
100
AcDbEntity
  8
E_Electrical Equipment
 62
0
100
AcDbLine
 10
75.0
 20
-107.0
 30
0.0
 11
0.0
 21
-107.0
 31
0.0
  0
LINE
  5
2B2
330
29F
100
AcDbEntity
  8
E_Electrical Equipment
 62
0
100
AcDbLine
 10
75.0
 20
-23.0
 30
0.0
 11
0.0
 21
-23.0
 31
0.0
  0
LINE
  5
2B3
330
29F
100
AcDbEntity
  8
0
100
AcDbLine
 10
26.5
 20
-40.0
 30
0.0
 11
48.5
 21
-40.0
 31
0.0
  0
LINE
  5
2B4
330
29F
100
AcDbEntity
  8
0
100
AcDbLine
 10
48.5
 20
-39.08777657859991
 30
0.0
 11
48.5
 21
-90.91222342140007
 31
0.0
  0
ARC
  5
2B5
330
29F
100
AcDbEntity
  8
0
100
AcDbCircle
 10
46.5
 20
-39.08777657859991
 30
0.0
 40
2.0
100
AcDbArc
 50
0.0
 51
90.0
  0
ARC
  5
2B6
330
29F
100
AcDbEntity
  8
0
100
AcDbCircle
 10
46.5
 20
-90.91222342140007
 30
0.0
 40
2.0
100
AcDbArc
 50
270.0
 51
0.0
  0
LINE
  5
2B7
330
29F
100
AcDbEntity
  8
0
100
AcDbLine
 10
30.0
 20
-44.29388828929996
 30
0.0
 11
45.0
 21
-44.29388828929996
 31
0.0
  0
LINE
  5
2B8
330
29F
100
AcDbEntity
  8
0
100
AcDbLine
 10
45.0
 20
-44.29388828929996
 30
0.0
 11
45.0
 21
-85.70611171069962
 31
0.0
  0
LINE
  5
2B9
330
29F
100
AcDbEntity
  8
0
100
AcDbLine
 10
45.0
 20
-85.70611171069962
 30
0.0
 11
30.0
 21
-85.70611171069962
 31
0.0
  0
LINE
  5
2BA
330
29F
100
AcDbEntity
  8
0
100
AcDbLine
 10
30.0
 20
-85.70611171069962
 30
0.0
 11
30.0
 21
-44.29388828929996
 31
0.0
  0
LINE
  5
2BB
330
29F
100
AcDbEntity
  8
0
100
AcDbLine
 10
31.5
 20
-45.91222342140008
 30
0.0
 11
43.5
 21
-45.91222342140008
 31
0.0
  0
LINE
  5
2BC
330
29F
100
AcDbEntity
  8
0
100
AcDbLine
 10
43.5
 20
-45.91222342140008
 30
0.0
 11
43.5
 21
-53.41222342140008
 31
0.0
  0
LINE
  5
2BD
330
29F
100
AcDbEntity
  8
0
100
AcDbLine
 10
43.5
 20
-53.41222342140008
 30
0.0
 11
31.5
 21
-53.41222342140008
 31
0.0
  0
LINE
  5
2BE
330
29F
100
AcDbEntity
  8
0
100
AcDbLine
 10
31.5
 20
-53.41222342140008
 30
0.0
 11
31.5
 21
-45.91222342140008
 31
0.0
  0
LINE
  5
2BF
330
29F
100
AcDbEntity
  8
0
100
AcDbLine
 10
31.5
 20
-76.41222342140009
 30
0.0
 11
43.5
 21
-76.41222342140009
 31
0.0
  0
LINE
  5
2C0
330
29F
100
AcDbEntity
  8
0
100
AcDbLine
 10
43.5
 20
-76.41222342140009
 30
0.0
 11
43.5
 21
-83.91222342140009
 31
0.0
  0
LINE
  5
2C1
330
29F
100
AcDbEntity
  8
0
100
AcDbLine
 10
43.5
 20
-83.91222342140009
 30
0.0
 11
31.5
 21
-83.91222342140009
 31
0.0
  0
LINE
  5
2C2
330
29F
100
AcDbEntity
  8
0
100
AcDbLine
 10
31.5
 20
-83.91222342140009
 30
0.0
 11
31.5
 21
-76.41222342140009
 31
0.0
  0
LINE
  5
2C3
330
29F
100
AcDbEntity
  8
0
100
AcDbLine
 10
28.5
 20
-92.91222342140009
 30
0.0
 11
46.5
 21
-92.91222342140009
 31
0.0
  0
ARC
  5
2C4
330
29F
100
AcDbEntity
  8
0
100
AcDbCircle
 10
28.5
 20
-90.91222342140007
 30
0.0
 40
2.0
100
AcDbArc
 50
180.0
 51
270.0
  0
LINE
  5
2C5
330
29F
100
AcDbEntity
  8
0
100
AcDbLine
 10
28.5
 20
-37.08777657859992
 30
0.0
 11
46.5
 21
-37.08777657859992
 31
0.0
  0
TEXT
  5
2C6
330
29F
100
AcDbEntity
  8
0
100
AcDbText
 10
33.79740791268705
 20
-80.96542942412815
 30
0.0
 40
3.0
  1
ON
100
AcDbText
  0
LINE
  5
2C7
330
29F
100
AcDbEntity
  8
0
100
AcDbLine
 10
75.0
 20
-90.0
 30
0.0
 11
0.0
 21
-90.0
 31
0.0
  0
LINE
  5
2C8
330
29F
100
AcDbEntity
  8
0
100
AcDbLine
 10
75.0
 20
-40.0
 30
0.0
 11
0.0
 21
-40.0
 31
0.0
  0
ARC
  5
2C9
330
29F
100
AcDbEntity
  8
0
100
AcDbCircle
 10
48.5
 20
-84.0
 30
0.0
 40
2.5
100
AcDbArc
 50
270.0
 51
90.0
  0
MTEXT
  5
2CA
330
29F
100
AcDbEntity
  8
0
100
AcDbMText
 10
49.5
 20
-78.0
 30
0.0
 40
2.5
 41
37.65752100187298
 46
0.0
 71
1
 72
5
  1
PUSH TO TRIP
101
Embedded Object
 70
1
 10
1.0
 20
0.0
 30
0.0
 11
49.5
 21
-78.0
 31
0.0
 40
37.65752100187298
 41
0.0
 42
37.65752100187298
 43
0.0
 71
2
 72
1
 44
37.65752100187298
 45
1.0
 73
0
 74
0
 46
0.0
  0
MTEXT
  5
2CB
330
29F
100
AcDbEntity
  8
0
100
AcDbMText
 10
5.5
 20
-101.0
 30
0.0
 40
4.0
 41
14.07753558144964
 46
0.0
 71
1
 72
5
  1
LOAD
101
Embedded Object
 70
1
 10
1.0
 20
0.0
 30
0.0
 11
5.5
 21
-101.0
 31
0.0
 40
14.07753558144964
 41
0.0
 42
14.07753558144964
 43
0.0
 71
2
 72
1
 44
14.07753558144964
 45
1.0
 73
0
 74
0
 46
0.0
  0
LWPOLYLINE
  5
2CC
330
29F
100
AcDbEntity
  8
0
370
30
100
AcDbPolyline
 90
2
 70
0
 10
46.5
 20
-130.0
 10
53.5
 20
-130.0
  0
LWPOLYLINE
  5
2CD
330
29F
100
AcDbEntity
  8
0
370
30
100
AcDbPolyline
 90
4
 70
0
 10
71.5
 20
-130.0
 10
75.0
 20
-130.0
 10
75.0
 20
0.0
 10
71.5
 20
0.0
  0
LWPOLYLINE
  5
2CE
330
29F
100
AcDbEntity
  8
0
370
30
100
AcDbPolyline
 90
4
 70
0
 10
53.5
 20
0.0
 10
53.5
 20
-14.0
 10
71.5
 20
-14.0
 10
71.5
 20
0.0
  0
CIRCLE
  5
2CF
330
29F
100
AcDbEntity
  8
E_Electrical Equipment
 62
0
100
AcDbCircle
 10
62.5
 20
-7.5
 30
0.0
 40
2.5
  0
LINE
  5
2D0
330
29F
100
AcDbEntity
  8
E_Electrical Equipment
 62
0
100
AcDbLine
 10
46.5
 20
-130.0
 30
0.0
 11
53.5
 21
-130.0
 31
0.0
  0
LWPOLYLINE
  5
2D1
330
29F
100
AcDbEntity
  8
0
370
30
100
AcDbPolyline
 90
4
 70
0
 10
53.5
 20
-130.0
 10
53.5
 20
-116.0
 10
71.5
 20
-116.0
 10
71.5
 20
-130.0
  0
CIRCLE
  5
2D2
330
29F
100
AcDbEntity
  8
E_Electrical Equipment
 62
0
100
AcDbCircle
 10
62.5
 20
-122.5
 30
0.0
 40
2.5
  0
LINE
  5
2D3
330
29F
100
AcDbEntity
  8
0
370
30
100
AcDbLine
 10
46.5
 20
0.0
 30
0.0
 11
53.5
 21
0.0
 31
0.0
  0
LINE
  5
2D4
330
29F
100
AcDbEntity
  8
0
100
AcDbLine
 10
26.5
 20
-39.08777657859991
 30
0.0
 11
26.5
 21
-90.91222342140007
 31
0.0
  0
ARC
  5
2D5
330
29F
100
AcDbEntity
  8
0
100
AcDbCircle
 10
28.5
 20
-39.08777657859991
 30
0.0
 40
2.0
100
AcDbArc
 50
90.0
 51
180.0
  0
MTEXT
  5
2D6
330
29F
100
AcDbEntity
  8
0
 62
3
100
AcDbMText
 10
11.31355705976602
 20
-6.627689218647446
 30
0.0
 40
1.5
 41
4.338467422284111
 46
0.0
 71
1
 72
5
  1
{\C7;M5}
101
Embedded Object
 70
1
 10
1.0
 20
0.0
 30
0.0
 11
11.31355705976602
 21
-6.627689218647446
 31
0.0
 40
4.338467422284111
 41
0.0
 42
4.338467422284111
 43
0.0
 71
2
 72
1
 44
4.338467422284111
 45
1.0
 73
0
 74
0
 46
0.0
  0
MTEXT
  5
2D7
330
29F
100
AcDbEntity
  8
0
 62
3
100
AcDbMText
 10
61.31355705976602
 20
-6.627689218647446
 30
0.0
 40
1.5
 41
4.338467422284111
 46
0.0
 71
1
 72
5
  1
{\C7;M5}
101
Embedded Object
 70
1
 10
1.0
 20
0.0
 30
0.0
 11
61.31355705976602
 21
-6.627689218647446
 31
0.0
 40
4.338467422284111
 41
0.0
 42
4.338467422284111
 43
0.0
 71
2
 72
1
 44
4.338467422284111
 45
1.0
 73
0
 74
0
 46
0.0
  0
MTEXT
  5
2D8
330
29F
100
AcDbEntity
  8
0
 62
3
100
AcDbMText
 10
11.31355705976602
 20
-121.6276892186474
 30
0.0
 40
1.5
 41
4.338467422284111
 46
0.0
 71
1
 72
5
  1
{\C7;M5}
101
Embedded Object
 70
1
 10
1.0
 20
0.0
 30
0.0
 11
11.31355705976602
 21
-121.6276892186474
 31
0.0
 40
4.338467422284111
 41
0.0
 42
4.338467422284111
 43
0.0
 71
2
 72
1
 44
4.338467422284111
 45
1.0
 73
0
 74
0
 46
0.0
  0
MTEXT
  5
2D9
330
29F
100
AcDbEntity
  8
0
 62
3
100
AcDbMText
 10
61.31355705976602
 20
-121.6276892186474
 30
0.0
 40
1.5
 41
4.338467422284111
 46
0.0
 71
1
 72
5
  1
{\C7;M5}
101
Embedded Object
 70
1
 10
1.0
 20
0.0
 30
0.0
 11
61.31355705976602
 21
-121.6276892186474
 31
0.0
 40
4.338467422284111
 41
0.0
 42
4.338467422284111
 43
0.0
 71
2
 72
1
 44
4.338467422284111
 45
1.0
 73
0
 74
0
 46
0.0
  0
MTEXT
  5
2DA
330
29F
100
AcDbEntity
  8
0
 62
3
100
AcDbMText
 10
36.31355705976603
 20
-6.627689218647446
 30
0.0
 40
1.5
 41
4.338467422284111
 46
0.0
 71
1
 72
5
  1
{\C7;M5}
101
Embedded Object
 70
1
 10
1.0
 20
0.0
 30
0.0
 11
36.31355705976603
 21
-6.627689218647446
 31
0.0
 40
4.338467422284111
 41
0.0
 42
4.338467422284111
 43
0.0
 71
2
 72
1
 44
4.338467422284111
 45
1.0
 73
0
 74
0
 46
0.0
  0
MTEXT
  5
2DB
330
29F
100
AcDbEntity
  8
0
 62
1
100
AcDbMText
 10
23.81355705976603
 20
-8.758884425832093
 30
0.0
 40
1.5
 41
4.338467422284111
 46
0.0
 71
1
 72
5
  1
M5
101
Embedded Object
 70
1
 10
1.0
 20
0.0
 30
0.0
 11
23.81355705976603
 21
-8.758884425832093
 31
0.0
 40
4.338467422284111
 41
0.0
 42
4.338467422284111
 43
0.0
 71
2
 72
1
 44
4.338467422284111
 45
1.0
 73
0
 74
0
 46
0.0
  0
LINE
  5
2DC
330
29F
100
AcDbEntity
  8
0
 62
4
100
AcDbLine
 10
23.0
 20
-9.75
 30
0.0
 11
27.0
 21
-9.75
 31
0.0
  0
LINE
  5
2DD
330
29F
100
AcDbEntity
  8
0
 62
4
100
AcDbLine
 10
25.0
 20
-7.75
 30
0.0
 11
25.0
 21
-11.75
 31
0.0
  0
MTEXT
  5
2DE
330
29F
100
AcDbEntity
  8
0
 62
1
100
AcDbMText
 10
48.81355705976602
 20
-119.2588844258321
 30
0.0
 40
1.5
 41
4.338467422284111
 46
0.0
 71
1
 72
5
  1
M5
101
Embedded Object
 70
1
 10
1.0
 20
0.0
 30
0.0
 11
48.81355705976602
 21
-119.2588844258321
 31
0.0
 40
4.338467422284111
 41
0.0
 42
4.338467422284111
 43
0.0
 71
2
 72
1
 44
4.338467422284111
 45
1.0
 73
0
 74
0
 46
0.0
  0
LINE
  5
2DF
330
29F
100
AcDbEntity
  8
0
 62
4
100
AcDbLine
 10
48.0
 20
-120.25
 30
0.0
 11
52.0
 21
-120.25
 31
0.0
  0
LINE
  5
2E0
330
29F
100
AcDbEntity
  8
0
 62
4
100
AcDbLine
 10
50.0
 20
-118.25
 30
0.0
 11
50.0
 21
-122.25
 31
0.0
  0
MTEXT
  5
2E1
330
29F
100
AcDbEntity
  8
0
 62
1
100
AcDbMText
 10
51.18644294023397
 20
-8.758884425832093
 30
0.0
 40
1.5
 41
4.338467422284111
 46
0.0
 71
3
 72
5
  1
M5
101
Embedded Object
 70
1
 10
1.0
 20
0.0
 30
0.0
 11
51.18644294023397
 21
-8.758884425832093
 31
0.0
 40
4.338467422284111
 41
0.0
 42
4.338467422284111
 43
0.0
 71
2
 72
1
 44
4.338467422284111
 45
1.0
 73
0
 74
0
 46
0.0
  0
LINE
  5
2E2
330
29F
100
AcDbEntity
  8
0
 62
4
100
AcDbLine
 10
52.0
 20
-9.75
 30
0.0
 11
48.0
 21
-9.75
 31
0.0
  0
LINE
  5
2E3
330
29F
100
AcDbEntity
  8
0
 62
4
100
AcDbLine
 10
50.0
 20
-7.75
 30
0.0
 11
50.0
 21
-11.75
 31
0.0
  0
MTEXT
  5
2E4
330
29F
100
AcDbEntity
  8
0
 62
1
100
AcDbMText
 10
26.18644294023397
 20
-119.2588844258321
 30
0.0
 40
1.5
 41
4.338467422284111
 46
0.0
 71
3
 72
5
  1
M5
101
Embedded Object
 70
1
 10
1.0
 20
0.0
 30
0.0
 11
26.18644294023397
 21
-119.2588844258321
 31
0.0
 40
4.338467422284111
 41
0.0
 42
4.338467422284111
 43
0.0
 71
2
 72
1
 44
4.338467422284111
 45
1.0
 73
0
 74
0
 46
0.0
  0
LINE
  5
2E5
330
29F
100
AcDbEntity
  8
0
 62
4
100
AcDbLine
 10
27.0
 20
-120.25
 30
0.0
 11
23.0
 21
-120.25
 31
0.0
  0
LINE
  5
2E6
330
29F
100
AcDbEntity
  8
0
 62
4
100
AcDbLine
 10
25.0
 20
-118.25
 30
0.0
 11
25.0
 21
-122.25
 31
0.0
  0
MTEXT
  5
2E7
330
29F
100
AcDbEntity
  8
0
 62
3
100
AcDbMText
 10
36.31355705976603
 20
-121.6276892186474
 30
0.0
 40
1.5
 41
4.338467422284111
 46
0.0
 71
1
 72
5
  1
{\C7;M5}
101
Embedded Object
 70
1
 10
1.0
 20
0.0
 30
0.0
 11
36.31355705976603
 21
-121.6276892186474
 31
0.0
 40
4.338467422284111
 41
0.0
 42
4.338467422284111
 43
0.0
 71
2
 72
1
 44
4.338467422284111
 45
1.0
 73
0
 74
0
 46
0.0
  0
ENDBLK
  5
2A1
330
29F
100
AcDbEntity
  8
0
100
AcDbBlockEnd
  0
BLOCK
  5
322
330
321
100
AcDbEntity
  8
0
100
AcDbBlockBegin
  2
*D1
 70
1
 10
0.0
 20
0.0
 30
0.0
  3
*D1
  1

  0
LINE
  5
324
330
321
100
AcDbEntity
  8
DIM
 62
5
370
9
440
16777216
100
AcDbLine
 10
187.61520344040764
 20
1595.5004503385426
 30
0.0
 11
82.74047834711382
 21
1595.5004503385426
 31
0.0
  0
LINE
  5
325
330
321
100
AcDbEntity
  8
DIM
 62
5
370
9
440
16777216
100
AcDbLine
 10
187.61520344040764
 20
895.5004503385353
 30
0.0
 11
82.74047834711382
 21
895.5004503385353
 31
0.0
  0
LINE
  5
326
330
321
100
AcDbEntity
  8
DIM
 62
5
370
9
440
16777216
100
AcDbLine
 10
92.74047834711382
 20
1595.5004503385426
 30
0.0
 11
92.74047834711382
 21
895.5004503385353
 31
0.0
  0
LINE
  5
327
330
321
100
AcDbEntity
  8
0
  6
ByBlock
 62
0
370
-2
100
AcDbLine
 10
96.74047834711382
 20
1591.5004503385426
 30
0.0
 11
88.74047834711382
 21
1599.5004503385426
 31
0.0
  0
LINE
  5
328
330
321
100
AcDbEntity
  8
0
  6
ByBlock
 62
0
370
-2
100
AcDbLine
 10
88.74047834711382
 20
899.5004503385353
 30
0.0
 11
96.74047834711382
 21
891.5004503385353
 31
0.0
  0
MTEXT
  5
329
330
321
100
AcDbEntity
  8
DIM
 62
3
440
16777216
100
AcDbMText
 10
69.97615365410456
 20
1245.5004503385571
 30
0.0
 40
25.0
 41
0.0
 46
0.0
 71
5
  1
700
 11
1e-16
 21
1.0
 31
0.0
  0
POINT
  5
32A
330
321
100
AcDbEntity
  8
Defpoints
 62
0
440
16777216
100
AcDbPoint
 10
202.61520344040764
 20
1595.5004503385426
 30
0.0
  0
POINT
  5
32B
330
321
100
AcDbEntity
  8
Defpoints
 62
0
440
16777216
100
AcDbPoint
 10
202.61520344040764
 20
895.5004503385353
 30
0.0
  0
POINT
  5
32C
330
321
100
AcDbEntity
  8
Defpoints
 62
0
440
16777216
100
AcDbPoint
 10
92.74047834711382
 20
895.5004503385353
 30
0.0
  0
ENDBLK
  5
323
330
321
100
AcDbEntity
  8
0
100
AcDbBlockEnd
  0
BLOCK
  5
32E
330
32D
100
AcDbEntity
  8
0
100
AcDbBlockBegin
  2
*D2
 70
1
 10
0.0
 20
0.0
 30
0.0
  3
*D2
  1

  0
LINE
  5
330
330
32D
100
AcDbEntity
  8
DIM
 62
5
370
9
440
16777216
100
AcDbLine
 10
202.61520344040764
 20
880.5004503385353
 30
0.0
 11
202.61520344040764
 21
813.4189760246445
 31
0.0
  0
LINE
  5
331
330
32D
100
AcDbEntity
  8
DIM
 62
5
370
9
440
16777216
100
AcDbLine
 10
702.6152034404076
 20
880.5004503385353
 30
0.0
 11
702.6152034404076
 21
813.4189760246445
 31
0.0
  0
LINE
  5
332
330
32D
100
AcDbEntity
  8
DIM
 62
5
370
9
440
16777216
100
AcDbLine
 10
202.61520344040764
 20
823.4189760246445
 30
0.0
 11
702.6152034404076
 21
823.4189760246445
 31
0.0
  0
LINE
  5
333
330
32D
100
AcDbEntity
  8
0
  6
ByBlock
 62
0
370
-2
100
AcDbLine
 10
206.61520344040764
 20
827.4189760246445
 30
0.0
 11
198.61520344040764
 21
819.4189760246445
 31
0.0
  0
LINE
  5
334
330
32D
100
AcDbEntity
  8
0
  6
ByBlock
 62
0
370
-2
100
AcDbLine
 10
698.6152034404076
 20
819.4189760246445
 30
0.0
 11
706.6152034404076
 21
827.4189760246445
 31
0.0
  0
MTEXT
  5
335
330
32D
100
AcDbEntity
  8
DIM
 62
3
440
16777216
100
AcDbMText
 10
452.61520344040764
 20
846.1833007176974
 30
0.0
 40
25.0
 41
0.0
 46
0.0
 71
5
  1
500
  0
POINT
  5
336
330
32D
100
AcDbEntity
  8
Defpoints
 62
0
440
16777216
100
AcDbPoint
 10
202.61520344040764
 20
895.5004503385353
 30
0.0
  0
POINT
  5
337
330
32D
100
AcDbEntity
  8
Defpoints
 62
0
440
16777216
100
AcDbPoint
 10
702.6152034404076
 20
895.5004503385353
 30
0.0
  0
POINT
  5
338
330
32D
100
AcDbEntity
  8
Defpoints
 62
0
440
16777216
100
AcDbPoint
 10
702.6152034404076
 20
823.4189760246445
 30
0.0
  0
ENDBLK
  5
32F
330
32D
100
AcDbEntity
  8
0
100
AcDbBlockEnd
  0
BLOCK
  5
33A
330
339
100
AcDbEntity
  8
0
100
AcDbBlockBegin
  2
*D3
 70
1
 10
0.0
 20
0.0
 30
0.0
  3
*D3
  1

  0
LINE
  5
33C
330
339
100
AcDbEntity
  8
0
 62
5
370
9
 48
3.0
440
16777216
100
AcDbLine
 10
2379.3893639604066
 20
1609.3004503385455
 30
0.0
 11
2379.3893639604066
 21
1650.7005576095762
 31
0.0
  0
LINE
  5
33D
330
339
100
AcDbEntity
  8
0
 62
5
370
9
 48
3.0
440
16777216
100
AcDbLine
 10
2449.3893639604066
 20
1610.5004503385353
 30
0.0
 11
2449.3893639604066
 21
1650.7005576095762
 31
0.0
  0
LINE
  5
33E
330
339
100
AcDbEntity
  8
0
 62
5
370
9
 48
3.0
440
16777216
100
AcDbLine
 10
2379.3893639604066
 20
1640.7005576095762
 30
0.0
 11
2449.3893639604066
 21
1640.7005576095762
 31
0.0
  0
LINE
  5
33F
330
339
100
AcDbEntity
  8
0
  6
ByBlock
 62
0
370
-2
100
AcDbLine
 10
2383.3893639604066
 20
1644.7005576095762
 30
0.0
 11
2375.3893639604066
 21
1636.7005576095762
 31
0.0
  0
LINE
  5
340
330
339
100
AcDbEntity
  8
0
  6
ByBlock
 62
0
370
-2
100
AcDbLine
 10
2445.3893639604066
 20
1636.7005576095762
 30
0.0
 11
2453.3893639604066
 21
1644.7005576095762
 31
0.0
  0
MTEXT
  5
341
330
339
100
AcDbEntity
  8
0
 62
3
 48
3.0
440
16777216
100
AcDbMText
 10
2414.3893639604066
 20
1663.4648823026146
 30
0.0
 40
25.0
 41
0.0
 46
0.0
 71
5
  1
70
  0
POINT
  5
342
330
339
100
AcDbEntity
  8
Defpoints
 62
0
 48
3.0
440
16777216
100
AcDbPoint
 10
2379.3893639604066
 20
1594.3004503385455
 30
0.0
  0
POINT
  5
343
330
339
100
AcDbEntity
  8
Defpoints
 62
0
 48
3.0
440
16777216
100
AcDbPoint
 10
2449.3893639604066
 20
1595.5004503385426
 30
0.0
  0
POINT
  5
344
330
339
100
AcDbEntity
  8
Defpoints
 62
0
 48
3.0
440
16777216
100
AcDbPoint
 10
2449.3893639604066
 20
1640.7005576095762
 30
0.0
  0
ENDBLK
  5
33B
330
339
100
AcDbEntity
  8
0
100
AcDbBlockEnd
  0
BLOCK
  5
346
330
345
100
AcDbEntity
  8
0
100
AcDbBlockBegin
  2
*D4
 70
1
 10
0.0
 20
0.0
 30
0.0
  3
*D4
  1

  0
LINE
  5
348
330
345
100
AcDbEntity
  8
0
 62
5
370
9
 48
3.0
440
16777216
100
AcDbLine
 10
187.61520344040764
 20
737.2622689136551
 30
0.0
 11
173.38998548670497
 21
737.2622689136551
 31
0.0
  0
LINE
  5
349
330
345
100
AcDbEntity
  8
0
 62
5
370
9
 48
3.0
440
16777216
100
AcDbLine
 10
187.61520344040764
 20
527.2622689136551
 30
0.0
 11
173.38998548670497
 21
527.2622689136551
 31
0.0
  0
LINE
  5
34A
330
345
100
AcDbEntity
  8
0
 62
5
370
9
 48
3.0
440
16777216
100
AcDbLine
 10
183.38998548670497
 20
737.2622689136551
 30
0.0
 11
183.38998548670497
 21
527.2622689136551
 31
0.0
  0
LINE
  5
34B
330
345
100
AcDbEntity
  8
0
  6
ByBlock
 62
0
370
-2
100
AcDbLine
 10
187.38998548670497
 20
733.2622689136551
 30
0.0
 11
179.38998548670497
 21
741.2622689136551
 31
0.0
  0
LINE
  5
34C
330
345
100
AcDbEntity
  8
0
  6
ByBlock
 62
0
370
-2
100
AcDbLine
 10
179.38998548670497
 20
531.2622689136551
 30
0.0
 11
187.38998548670497
 21
523.2622689136551
 31
0.0
  0
MTEXT
  5
34D
330
345
100
AcDbEntity
  8
0
 62
3
 48
3.0
440
16777216
100
AcDbMText
 10
160.62566079371027
 20
632.262268913677
 30
0.0
 40
25.0
 41
0.0
 46
0.0
 71
5
  1
210
 11
1e-16
 21
1.0
 31
0.0
  0
POINT
  5
34E
330
345
100
AcDbEntity
  8
Defpoints
 62
0
 48
3.0
440
16777216
100
AcDbPoint
 10
202.61520344040764
 20
737.2622689136551
 30
0.0
  0
POINT
  5
34F
330
345
100
AcDbEntity
  8
Defpoints
 62
0
 48
3.0
440
16777216
100
AcDbPoint
 10
202.61520344040764
 20
527.2622689136551
 30
0.0
  0
POINT
  5
350
330
345
100
AcDbEntity
  8
Defpoints
 62
0
 48
3.0
440
16777216
100
AcDbPoint
 10
183.38998548670497
 20
527.2622689136551
 30
0.0
  0
ENDBLK
  5
347
330
345
100
AcDbEntity
  8
0
100
AcDbBlockEnd
  0
BLOCK
  5
352
330
351
100
AcDbEntity
  8
0
100
AcDbBlockBegin
  2
*D5
 70
1
 10
0.0
 20
0.0
 30
0.0
  3
*D5
  1

  0
LINE
  5
354
330
351
100
AcDbEntity
  8
0
 62
5
370
9
 48
3.0
440
16777216
100
AcDbLine
 10
717.6152034404076
 20
547.2622689136551
 30
0.0
 11
769.2573073374078
 21
547.2622689136551
 31
0.0
  0
LINE
  5
355
330
351
100
AcDbEntity
  8
0
 62
5
370
9
 48
3.0
440
16777216
100
AcDbLine
 10
716.4152034404106
 20
617.2622689136624
 30
0.0
 11
769.2573073374078
 21
617.2622689136624
 31
0.0
  0
LINE
  5
356
330
351
100
AcDbEntity
  8
0
 62
5
370
9
 48
3.0
440
16777216
100
AcDbLine
 10
759.2573073374078
 20
547.2622689136551
 30
0.0
 11
759.2573073374078
 21
617.2622689136624
 31
0.0
  0
LINE
  5
357
330
351
100
AcDbEntity
  8
0
  6
ByBlock
 62
0
370
-2
100
AcDbLine
 10
755.2573073374078
 20
551.2622689136551
 30
0.0
 11
763.2573073374078
 21
543.2622689136551
 31
0.0
  0
LINE
  5
358
330
351
100
AcDbEntity
  8
0
  6
ByBlock
 62
0
370
-2
100
AcDbLine
 10
763.2573073374078
 20
613.2622689136624
 30
0.0
 11
755.2573073374078
 21
621.2622689136624
 31
0.0
  0
MTEXT
  5
359
330
351
100
AcDbEntity
  8
0
 62
3
 48
3.0
440
16777216
100
AcDbMText
 10
736.4929826444131
 20
582.262268913677
 30
0.0
 40
25.0
 41
0.0
 46
0.0
 71
5
  1
70
 11
1e-16
 21
1.0
 31
0.0
  0
POINT
  5
35A
330
351
100
AcDbEntity
  8
Defpoints
 62
0
 48
3.0
440
16777216
100
AcDbPoint
 10
702.6152034404076
 20
547.2622689136551
 30
0.0
  0
POINT
  5
35B
330
351
100
AcDbEntity
  8
Defpoints
 62
0
 48
3.0
440
16777216
100
AcDbPoint
 10
701.4152034404106
 20
617.2622689136624
 30
0.0
  0
POINT
  5
35C
330
351
100
AcDbEntity
  8
Defpoints
 62
0
 48
3.0
440
16777216
100
AcDbPoint
 10
759.2573073374078
 20
617.2622689136624
 30
0.0
  0
ENDBLK
  5
353
330
351
100
AcDbEntity
  8
0
100
AcDbBlockEnd
  0
BLOCK
  5
35E
330
35D
100
AcDbEntity
  8
0
100
AcDbBlockBegin
  2
*D6
 70
1
 10
0.0
 20
0.0
 30
0.0
  3
*D6
  1

  0
LINE
  5
360
330
35D
100
AcDbEntity
  8
0
 62
5
370
9
 48
3.0
440
16777216
100
AcDbLine
 10
798.7429350871098
 20
737.2622689136551
 30
0.0
 11
784.5177171334071
 21
737.2622689136551
 31
0.0
  0
LINE
  5
361
330
35D
100
AcDbEntity
  8
0
 62
5
370
9
 48
3.0
440
16777216
100
AcDbLine
 10
798.7429350871098
 20
527.2622689136551
 30
0.0
 11
784.5177171334071
 21
527.2622689136551
 31
0.0
  0
LINE
  5
362
330
35D
100
AcDbEntity
  8
0
 62
5
370
9
 48
3.0
440
16777216
100
AcDbLine
 10
794.5177171334071
 20
737.2622689136551
 30
0.0
 11
794.5177171334071
 21
527.2622689136551
 31
0.0
  0
LINE
  5
363
330
35D
100
AcDbEntity
  8
0
  6
ByBlock
 62
0
370
-2
100
AcDbLine
 10
798.5177171334071
 20
733.2622689136551
 30
0.0
 11
790.5177171334071
 21
741.2622689136551
 31
0.0
  0
LINE
  5
364
330
35D
100
AcDbEntity
  8
0
  6
ByBlock
 62
0
370
-2
100
AcDbLine
 10
790.5177171334071
 20
531.2622689136551
 30
0.0
 11
798.5177171334071
 21
523.2622689136551
 31
0.0
  0
MTEXT
  5
365
330
35D
100
AcDbEntity
  8
0
 62
3
 48
3.0
440
16777216
100
AcDbMText
 10
771.7533924404124
 20
632.262268913677
 30
0.0
 40
25.0
 41
0.0
 46
0.0
 71
5
  1
210
 11
1e-16
 21
1.0
 31
0.0
  0
POINT
  5
366
330
35D
100
AcDbEntity
  8
Defpoints
 62
0
 48
3.0
440
16777216
100
AcDbPoint
 10
813.7429350871098
 20
737.2622689136551
 30
0.0
  0
POINT
  5
367
330
35D
100
AcDbEntity
  8
Defpoints
 62
0
 48
3.0
440
16777216
100
AcDbPoint
 10
813.7429350871098
 20
527.2622689136551
 30
0.0
  0
POINT
  5
368
330
35D
100
AcDbEntity
  8
Defpoints
 62
0
 48
3.0
440
16777216
100
AcDbPoint
 10
794.5177171334071
 20
527.2622689136551
 30
0.0
  0
ENDBLK
  5
35F
330
35D
100
AcDbEntity
  8
0
100
AcDbBlockEnd
  0
BLOCK
  5
36A
330
369
100
AcDbEntity
  8
0
100
AcDbBlockBegin
  2
*D7
 70
1
 10
0.0
 20
0.0
 30
0.0
  3
*D7
  1

  0
LINE
  5
36C
330
369
100
AcDbEntity
  8
0
 62
5
370
9
 48
3.0
440
16777216
100
AcDbLine
 10
1328.7429350871098
 20
547.2622689136551
 30
0.0
 11
1380.38503898411
 21
547.2622689136551
 31
0.0
  0
LINE
  5
36D
330
369
100
AcDbEntity
  8
0
 62
5
370
9
 48
3.0
440
16777216
100
AcDbLine
 10
1327.5429350871127
 20
617.2622689136624
 30
0.0
 11
1380.38503898411
 21
617.2622689136624
 31
0.0
  0
LINE
  5
36E
330
369
100
AcDbEntity
  8
0
 62
5
370
9
 48
3.0
440
16777216
100
AcDbLine
 10
1370.38503898411
 20
547.2622689136551
 30
0.0
 11
1370.38503898411
 21
617.2622689136624
 31
0.0
  0
LINE
  5
36F
330
369
100
AcDbEntity
  8
0
  6
ByBlock
 62
0
370
-2
100
AcDbLine
 10
1366.38503898411
 20
551.2622689136551
 30
0.0
 11
1374.38503898411
 21
543.2622689136551
 31
0.0
  0
LINE
  5
370
330
369
100
AcDbEntity
  8
0
  6
ByBlock
 62
0
370
-2
100
AcDbLine
 10
1374.38503898411
 20
613.2622689136624
 30
0.0
 11
1366.38503898411
 21
621.2622689136624
 31
0.0
  0
MTEXT
  5
371
330
369
100
AcDbEntity
  8
0
 62
3
 48
3.0
440
16777216
100
AcDbMText
 10
1347.6207142911007
 20
582.262268913677
 30
0.0
 40
25.0
 41
0.0
 46
0.0
 71
5
  1
70
 11
1e-16
 21
1.0
 31
0.0
  0
POINT
  5
372
330
369
100
AcDbEntity
  8
Defpoints
 62
0
 48
3.0
440
16777216
100
AcDbPoint
 10
1313.7429350871098
 20
547.2622689136551
 30
0.0
  0
POINT
  5
373
330
369
100
AcDbEntity
  8
Defpoints
 62
0
 48
3.0
440
16777216
100
AcDbPoint
 10
1312.5429350871127
 20
617.2622689136624
 30
0.0
  0
POINT
  5
374
330
369
100
AcDbEntity
  8
Defpoints
 62
0
 48
3.0
440
16777216
100
AcDbPoint
 10
1370.38503898411
 20
617.2622689136624
 30
0.0
  0
ENDBLK
  5
36B
330
369
100
AcDbEntity
  8
0
100
AcDbBlockEnd
  0
ENDSEC
  0
SECTION
  2
ENTITIES
  0
INSERT
  5
2F
330
17
100
AcDbEntity
  8
0
 62
3
100
AcDbBlockReference
 66
1
  2
KHUNG CHUẨN
 10
-14412.493256390342
 20
24409.610872586676
 30
0.0
 41
0.8518400000029942
 42
0.8518400000029942
 43
0.8518400000029942
  0
ATTRIB
  5
30
330
2F
100
AcDbEntity
  8
0
 62
3
100
AcDbText
 10
946.6725624181126
 20
63.93718254959094
 30
0.0
 40
17.03680000000001
  1
TỦ ĐIỆN ĐẤU NỐI
  7
Arial
100
AcDbAttribute
  2
#03
 70
0
280
1
 71
1
 72
0
  0
ATTRIB
  5
31
330
2F
100
AcDbEntity
  8
0
 62
3
100
AcDbText
 10
922.3371252130019
 20
17.39607359033107
 30
0.0
 40
17.03680000000001
  1
700X500X210
  7
Arial
100
AcDbAttribute
  2
#07
 70
0
280
1
 71
1
 72
0
  0
ATTRIB
  5
32
330
2F
100
AcDbEntity
  8
0
 62
3
100
AcDbText
 10
1560.9535310955107
 20
63.93718254959094
 30
0.0
 40
17.03680000000001
  1
3
  7
Arial
100
AcDbAttribute
  2
#08
 70
0
280
1
 71
1
 72
0
  0
ATTRIB
  5
33
330
2F
100
AcDbEntity
  8
0
 62
3
100
AcDbText
 10
1562.7820821864007
 20
19.219298802832782
 30
0.0
 40
17.03680000000001
  1
1.2
  7
Arial
100
AcDbAttribute
  2
#09
 70
0
280
1
 71
1
 72
0
  0
ATTRIB
  5
34
330
2F
100
AcDbEntity
  8
0
 62
3
100
AcDbText
 10
1827.6521682394086
 20
63.93718254959094
 30
0.0
 40
17.03680000000001
  1
SƠN MÀU SẦN TỐI
  7
Arial
100
AcDbAttribute
  2
#10
 70
0
280
1
 71
1
 72
0
  0
ATTRIB
  5
35
330
2F
100
AcDbEntity
  8
0
 62
3
100
AcDbText
 10
1823.8292321815097
 20
25.106470715792966
 30
0.0
 40
17.03680000000001
  1
TỦ TRONG NHÀ 2 LỚP CÁNH
  7
Arial
100
AcDbAttribute
  2
#11
 70
0
280
1
 71
1
 72
0
  0
ATTRIB
  5
36
330
2F
100
AcDbEntity
  8
0
 62
3
100
AcDbText
 10
436.2659932104143
 20
63.93718254959094
 30
0.0
 40
17.03680000000001
  1
VINH TẤN
  7
Arial
100
AcDbAttribute
  2
#02
 70
0
280
1
 71
1
 72
0
  0
ATTRIB
  5
37
330
2F
100
AcDbEntity
  8
0
 62
3
100
AcDbText
 10
331.53889017901383
 20
18.85873383758735
 30
0.0
 40
17.03680000000001
  1
07.03.2022
  7
Arial
100
AcDbAttribute
  2
#05
 70
0
280
1
 71
1
 72
0
  0
ATTRIB
  5
38
330
2F
100
AcDbEntity
  8
0
 62
3
100
AcDbText
 10
607.7059301576082
 20
18.25312702422525
 30
0.0
 40
17.03680000000001
  1
13.03.2022
  7
Arial
100
AcDbAttribute
  2
#06
 70
0
280
1
 71
1
 72
0
  0
ATTRIB
  5
39
330
2F
100
AcDbEntity
  8
0
 62
3
100
AcDbText
 10
116.1272526216053
 20
63.93718254959094
 30
0.0
 40
17.03680000000001
  1
PHÚC
  7
Arial
100
AcDbAttribute
  2
#01
 70
0
280
1
 71
1
 72
0
  0
ATTRIB
  5
3A
330
2F
100
AcDbEntity
  8
0
 62
3
100
AcDbText
 10
89.88281026700861
 20
17.496177810993686
 30
0.0
 40
17.03680000000001
  1
............
  7
Arial
100
AcDbAttribute
  2
#04
 70
0
280
1
 71
1
 72
0
  0
ATTRIB
  5
3B
330
2F
100
AcDbEntity
  8
0
 62
3
100
AcDbText
 10
2459.4403779503045
 20
22.358586138470855
 30
0.0
 40
17.03680000000001
  1
.......
  7
Arial
100
AcDbAttribute
  2
#12
 70
0
280
1
 71
1
 72
0
  0
SEQEND
  5
3C
330
17
100
AcDbEntity
  8
0
 62
3
  0
LWPOLYLINE
  5
3D
330
17
100
AcDbEntity
  8
0
 62
7
100
AcDbPolyline
 90
4
 70
1
 10
813.7429350871098
 20
1595.5004503385426
 10
1313.7429350871098
 20
1595.5004503385426
 10
1313.7429350871098
 20
895.5004503385353
 10
813.7429350871098
 20
895.5004503385353
  0
LWPOLYLINE
  5
3E
330
17
100
AcDbEntity
  8
0
 62
7
100
AcDbPolyline
 90
4
 70
1
 10
841.142935087104
 20
1568.1004503385411
 10
1286.342935087101
 20
1568.1004503385411
 10
1286.342935087101
 20
922.9004503385513
 10
841.142935087104
 20
922.9004503385513
  0
LWPOLYLINE
  5
3F
330
17
100
AcDbEntity
  8
0
  6
HIDDEN2
 62
6
100
AcDbPolyline
 90
4
 70
1
 10
848.642935087104
 20
1560.6004503385411
 10
1278.842935087101
 20
1560.6004503385411
 10
1278.842935087101
 20
930.4004503385513
 10
848.642935087104
 20
930.4004503385513
  0
LWPOLYLINE
  5
40
330
17
100
AcDbEntity
  8
0
 62
6
100
AcDbPolyline
 90
4
 70
1
 10
847.4429350871069
 20
1561.800450338531
 10
1280.0429350871127
 20
1561.800450338531
 10
1280.0429350871127
 20
929.2004503385542
 10
847.4429350871069
 20
929.2004503385542
  0
LWPOLYLINE
  5
41
330
17
100
AcDbEntity
  8
0
 62
3
100
AcDbPolyline
 90
4
 70
1
 10
867.3429350871011
 20
1541.900450338544
 10
1260.142935087104
 20
1541.900450338544
 10
1260.142935087104
 20
949.1004503385411
 10
867.3429350871011
 20
949.1004503385411
  0
LWPOLYLINE
  5
42
330
17
100
AcDbEntity
  8
0
 62
1
100
AcDbPolyline
 90
4
 70
1
 10
870.3429350871011
 20
1538.900450338544
 10
1257.142935087104
 20
1538.900450338544
 10
1257.142935087104
 20
952.1004503385411
 10
870.3429350871011
 20
952.1004503385411
  0
LWPOLYLINE
  5
43
330
17
100
AcDbEntity
  8
0
  6
HIDDEN2
 62
7
100
AcDbPolyline
 90
4
 70
1
 10
814.9429350871069
 20
1594.3004503385455
 10
1312.5429350871127
 20
1594.3004503385455
 10
1312.5429350871127
 20
896.7004503385324
 10
814.9429350871069
 20
896.7004503385324
  0
LWPOLYLINE
  5
44
330
17
100
AcDbEntity
  8
0
 62
2
100
AcDbPolyline
 90
4
 70
1
 10
1310.2429350871098
 20
1520.0004503385426
 10
1299.2429350871098
 20
1520.0004503385426
 10
1299.2429350871098
 20
1511.0004503385353
 10
1310.2429350871098
 20
1511.0004503385353
  0
INSERT
  5
45
330
17
100
AcDbEntity
  8
0
 62
7
100
AcDbBlockReference
  2
HL003-2-2
 10
1296.7429350871098
 20
1509.5004503385353
 30
0.0
  0
LWPOLYLINE
  5
47
330
17
100
AcDbEntity
  8
0
 62
2
100
AcDbPolyline
 90
4
 70
1
 10
1310.2429350871098
 20
971.0004503385571
 10
1299.2429350871098
 20
971.0004503385571
 10
1299.2429350871098
 20
980.0004503385353
 10
1310.2429350871098
 20
980.0004503385353
  0
INSERT
  5
48
330
17
100
AcDbEntity
  8
0
 62
7
100
AcDbBlockReference
  2
HL003-2-2
 10
1296.7429350871098
 20
981.5004503385353
 30
0.0
 41
-1.0
 50
180.0
  0
LWPOLYLINE
  5
4A
330
17
100
AcDbEntity
  8
0
 62
7
100
AcDbPolyline
 90
4
 70
1
 10
202.61520344040764
 20
1595.5004503385426
 10
702.6152034404076
 20
1595.5004503385426
 10
702.6152034404076
 20
895.5004503385353
 10
202.61520344040764
 20
895.5004503385353
  0
LWPOLYLINE
  5
4B
330
17
100
AcDbEntity
  8
0
  6
HIDDEN2
 62
7
100
AcDbPolyline
 90
4
 70
1
 10
203.81520344040473
 20
1594.3004503385455
 10
701.4152034404106
 20
1594.3004503385455
 10
701.4152034404106
 20
896.7004503385324
 10
203.81520344040473
 20
896.7004503385324
  0
LWPOLYLINE
  5
4C
330
17
100
AcDbEntity
  8
0
 62
2
100
AcDbPolyline
 90
4
 70
1
 10
699.1152034404076
 20
1520.0004503385426
 10
688.1152034405095
 20
1520.0004503385426
 10
688.1152034405095
 20
1511.0004503385353
 10
699.1152034404076
 20
1511.0004503385353
  0
INSERT
  5
4D
330
17
100
AcDbEntity
  8
0
 62
7
100
AcDbBlockReference
  2
HL003-2-2
 10
685.6152034404076
 20
1509.5004503385353
 30
0.0
  0
LWPOLYLINE
  5
4F
330
17
100
AcDbEntity
  8
0
 62
2
100
AcDbPolyline
 90
4
 70
1
 10
699.1152034404076
 20
971.0004503385571
 10
688.1152034405095
 20
971.0004503385571
 10
688.1152034405095
 20
980.0004503385353
 10
699.1152034404076
 20
980.0004503385353
  0
INSERT
  5
50
330
17
100
AcDbEntity
  8
0
 62
7
100
AcDbBlockReference
  2
HL003-2-2
 10
685.6152034404076
 20
981.5004503385353
 30
0.0
 41
-1.0
 50
180.0
  0
LWPOLYLINE
  5
52
330
17
100
AcDbEntity
  8
0
  6
Continuous
 62
2
100
AcDbPolyline
 90
4
 70
1
 10
262.61520344040764
 20
1277.2504503385353
 10
286.61520344040764
 20
1277.2504503385353
 10
286.61520344040764
 20
1213.7504503385353
 10
262.61520344040764
 20
1213.7504503385353
  0
INSERT
  5
53
330
17
100
AcDbEntity
  8
0
 62
7
100
AcDbBlockReference
  2
AB301-3-1
 10
274.61520344040764
 20
1264.0004503385426
 30
0.0
  0
DIMENSION
  5
55
330
17
100
AcDbEntity
  8
DIM
 62
7
100
AcDbDimension
280
0
  2
*D1
  3
Dim-25
 10
92.74047834711382
 20
895.5004503385353
 30
0.0
 11
69.97615365410456
 21
1245.5004503385571
 31
0.0
 70
32
 71
5
 42
700.0
 73
0
 74
0
 75
0
100
AcDbAlignedDimension
 13
202.61520344040764
 23
1595.5004503385426
 33
0.0
 14
202.61520344040764
 24
895.5004503385353
 34
0.0
 50
90.0
100
AcDbRotatedDimension
  0
DIMENSION
  5
5A
330
17
100
AcDbEntity
  8
DIM
 62
7
100
AcDbDimension
280
0
  2
*D2
  3
Dim-25
 10
702.6152034404076
 20
823.4189760246445
 30
0.0
 11
452.61520344040764
 21
846.1833007176974
 31
0.0
 70
32
 71
5
 42
500.0
 73
0
 74
0
 75
0
100
AcDbAlignedDimension
 13
202.61520344040764
 23
895.5004503385353
 33
0.0
 14
702.6152034404076
 24
895.5004503385353
 34
0.0
 50
0.0
100
AcDbRotatedDimension
  0
LWPOLYLINE
  5
5B
330
17
100
AcDbEntity
  8
0
 62
2
100
AcDbPolyline
 90
4
 70
1
 10
1278.5429350871127
 20
1485.1004503385338
 10
1267.5429350871127
 20
1485.1004503385338
 10
1267.5429350871127
 20
1476.1004503385411
 10
1278.5429350871127
 20
1476.1004503385411
  0
INSERT
  5
5C
330
17
100
AcDbEntity
  8
0
 62
7
100
AcDbBlockReference
  2
HL003-2-2
 10
1265.0429350871127
 20
1474.6004503385411
 30
0.0
  0
LWPOLYLINE
  5
5E
330
17
100
AcDbEntity
  8
0
 62
2
100
AcDbPolyline
 90
4
 70
1
 10
1278.5429350871127
 20
1005.900450338544
 10
1267.5429350871127
 20
1005.900450338544
 10
1267.5429350871127
 20
1014.900450338544
 10
1278.5429350871127
 20
1014.900450338544
  0
INSERT
  5
5F
330
17
100
AcDbEntity
  8
0
 62
7
100
AcDbBlockReference
  2
HL003-2-2
 10
1265.0429350871127
 20
1016.400450338544
 30
0.0
 41
-1.0
 50
180.0
  0
INSERT
  5
61
330
17
100
AcDbEntity
  8
0
 62
7
100
AcDbBlockReference
  2
BKN 1P
 10
1195.147765241505
 20
1204.0030368397638
 30
0.0
  0
INSERT
  5
63
330
17
100
AcDbEntity
  8
0
100
AcDbBlockReference
  2
MS722
 10
898.5673990426003
 20
1470.4963828166728
 30
0.0
 41
-1.0
 50
180.0
  0
LWPOLYLINE
  5
65
330
17
100
AcDbEntity
  8
0
 62
2
100
AcDbPolyline
 90
4
 70
1
 10
888.3173990426003
 20
1480.7463828166874
 10
908.8173990426003
 20
1480.7463828166874
 10
908.8173990426003
 20
1460.2463828166874
 10
888.3173990426003
 20
1460.2463828166874
  0
INSERT
  5
66
330
17
100
AcDbEntity
  8
0
 62
7
100
AcDbBlockReference
  2
BKN 2P
 10
949.8587489533093
 20
1204.5004503385353
 30
0.0
  0
MTEXT
  5
68
330
17
100
AcDbEntity
  8
0
 62
2
100
AcDbMText
 10
1061.0963367334043
 20
1695.3630562515755
 30
0.0
 40
100.0
 41
1000.0
 46
647.1644973081675
 71
5
 72
5
  1
T2-T3
  0
INSERT
  5
69
330
17
100
AcDbEntity
  8
0
 62
7
100
AcDbBlockReference
 66
1
  2
Den XANH
 10
507.6152487454092
 20
1480.5004667116154
 30
0.0
  0
ATTRIB
  5
6A
330
69
100
AcDbEntity
  8
01
  6
Continuous
 62
2
370
5
100
AcDbText
 10
521.1348721967079
 20
1516.4683847008419
 30
0.0
 40
4.0
  1
T
  7
Arial
 72
1
 11
522.8415570534125
 21
1516.4683847008419
 31
0.0
100
AcDbAttribute
  2
T-SP
 70
0
 71
1
 72
0
 11
522.8415570534125
 21
1516.4683847008419
 31
0.0
  0
SEQEND
  5
6B
330
17
100
AcDbEntity
  8
0
 62
7
  0
INSERT
  5
6C
330
17
100
AcDbEntity
  8
0
 62
7
100
AcDbBlockReference
 66
1
  2
Den DO
 10
367.61524874551105
 20
1480.5004667116154
 30
0.0
  0
ATTRIB
  5
6D
330
6C
100
AcDbEntity
  8
01
  6
Continuous
 62
2
370
5
100
AcDbText
 10
380.823821719212
 20
1516.4683847008419
 30
0.0
 40
4.0
  1
R
  7
Arial
 72
1
 11
382.84155705341254
 21
1516.4683847008419
 31
0.0
100
AcDbAttribute
  2
T-SP
 70
0
 71
1
 72
0
 11
382.84155705341254
 21
1516.4683847008419
 31
0.0
  0
SEQEND
  5
6E
330
17
100
AcDbEntity
  8
0
 62
7
  0
INSERT
  5
6F
330
17
100
AcDbEntity
  8
0
 62
7
100
AcDbBlockReference
 66
1
  2
Den VANG
 10
437.61524874551105
 20
1480.5004667116154
 30
0.0
  0
ATTRIB
  5
70
330
6F
100
AcDbEntity
  8
01
  6
Continuous
 62
2
370
5
100
AcDbText
 10
450.97798270141357
 20
1516.4683847008419
 30
0.0
 40
4.0
  1
S
  7
Arial
 72
1
 11
452.84155705341254
 21
1516.4683847008419
 31
0.0
100
AcDbAttribute
  2
T-SP
 70
0
 71
1
 72
0
 11
452.84155705341254
 21
1516.4683847008419
 31
0.0
  0
SEQEND
  5
71
330
17
100
AcDbEntity
  8
0
 62
7
  0
CIRCLE
  5
72
330
17
100
AcDbEntity
  8
0
 62
2
 48
3.0
100
AcDbCircle
 10
885.3429350871011
 20
1523.900450338544
 30
0.0
 40
2.0
  0
CIRCLE
  5
73
330
17
100
AcDbEntity
  8
0
 62
2
 48
3.0
100
AcDbCircle
 10
885.3429350871011
 20
1523.900450338544
 30
0.0
 40
5.0
  0
CIRCLE
  5
74
330
17
100
AcDbEntity
  8
0
 62
2
 48
3.0
100
AcDbCircle
 10
1242.142935087104
 20
1523.900450338544
 30
0.0
 40
2.0
  0
CIRCLE
  5
75
330
17
100
AcDbEntity
  8
0
 62
2
 48
3.0
100
AcDbCircle
 10
1242.142935087104
 20
1523.900450338544
 30
0.0
 40
5.0
  0
CIRCLE
  5
76
330
17
100
AcDbEntity
  8
0
 62
2
 48
3.0
100
AcDbCircle
 10
885.3429350871011
 20
967.1004503385411
 30
0.0
 40
2.0
  0
CIRCLE
  5
77
330
17
100
AcDbEntity
  8
0
 62
2
 48
3.0
100
AcDbCircle
 10
885.3429350871011
 20
967.1004503385411
 30
0.0
 40
5.0
  0
CIRCLE
  5
78
330
17
100
AcDbEntity
  8
0
 62
2
 48
3.0
100
AcDbCircle
 10
1242.142935087104
 20
967.1004503385411
 30
0.0
 40
2.0
  0
CIRCLE
  5
79
330
17
100
AcDbEntity
  8
0
 62
2
 48
3.0
100
AcDbCircle
 10
1242.142935087104
 20
967.1004503385411
 30
0.0
 40
5.0
  0
INSERT
  5
7A
330
17
100
AcDbEntity
  8
0
100
AcDbBlockReference
  2
MS722
 10
898.5673990426003
 20
1020.5045178604123
 30
0.0
  0
LWPOLYLINE
  5
7C
330
17
100
AcDbEntity
  8
0
 62
2
100
AcDbPolyline
 90
4
 70
1
 10
888.3173990426003
 20
1010.254517860405
 10
908.8173990426003
 20
1010.254517860405
 10
908.8173990426003
 20
1030.7545178604123
 10
888.3173990426003
 20
1030.7545178604123
  0
INSERT
  5
7D
330
17
100
AcDbEntity
  8
0
 62
7
100
AcDbBlockReference
  2
BKN 3P
 10
1036.7429350871098
 20
1445.5004503385353
 30
0.0
  0
INSERT
  5
7F
330
17
100
AcDbEntity
  8
0
 62
7
100
AcDbBlockReference
  2
BKN 2P
 10
984.9000369944115
 20
1204.5004503385353
 30
0.0
  0
INSERT
  5
81
330
17
100
AcDbEntity
  8
0
 62
7
100
AcDbBlockReference
  2
BKN 2P
 10
1019.941325035601
 20
1204.5004503385353
 30
0.0
  0
INSERT
  5
83
330
17
100
AcDbEntity
  8
0
 62
7
100
AcDbBlockReference
  2
BKN 2P
 10
1054.9826130768051
 20
1204.5004503385353
 30
0.0
  0
INSERT
  5
85
330
17
100
AcDbEntity
  8
0
 62
7
100
AcDbBlockReference
  2
BKN 2P
 10
1090.0239011180092
 20
1204.5004503385353
 30
0.0
  0
INSERT
  5
87
330
17
100
AcDbEntity
  8
0
 62
7
100
AcDbBlockReference
  2
BKN 2P
 10
1125.0651891591115
 20
1204.5004503385353
 30
0.0
  0
INSERT
  5
89
330
17
100
AcDbEntity
  8
0
 62
7
100
AcDbBlockReference
  2
BKN 2P
 10
1160.106477200301
 20
1204.5004503385353
 30
0.0
  0
INSERT
  5
8B
330
17
100
AcDbEntity
  8
0
 62
7
100
AcDbBlockReference
  2
BKN 2P
 10
914.8174609121052
 20
1204.5004503385353
 30
0.0
  0
LWPOLYLINE
  5
8D
330
17
100
AcDbEntity
  8
0
 62
7
100
AcDbPolyline
 90
16
 70
1
 10
2436.1893639604095
 20
1569.300450338531
 10
2448.1893639604095
 20
1569.300450338531
 10
2448.1893639604095
 20
1594.3004503385455
 10
2260.5893639604037
 20
1594.3004503385455
 10
2260.5893639604037
 20
896.7004503385324
 10
2448.1893639604095
 20
896.7004503385324
 10
2448.1893639604095
 20
921.7004503385324
 10
2436.1893639604095
 20
921.7004503385324
 10
2436.1893639604095
 20
922.9004503385368
 10
2449.3893639604066
 20
922.9004503385368
 10
2449.3893639604066
 20
895.5004503385353
 10
2259.3893639604066
 20
895.5004503385353
 10
2259.3893639604066
 20
1595.5004503385426
 10
2449.3893639604066
 20
1595.5004503385426
 10
2449.3893639604066
 20
1568.1004503385411
 10
2436.1893639604095
 20
1568.1004503385411
  0
LWPOLYLINE
  5
8E
330
17
100
AcDbEntity
  8
0
 62
7
100
AcDbPolyline
 90
12
 70
1
 10
2452.1893639604095
 20
1584.3004503385455
 10
2452.1893639604095
 20
1594.3004503385455
 10
2468.1893639604095
 20
1594.3004503385455
 10
2468.1893639604095
 20
896.7004503385324
 10
2452.1893639604095
 20
896.7004503385324
 10
2452.1893639604095
 20
906.7004503385324
 10
2450.9893639604124
 20
906.7004503385324
 10
2450.9893639604124
 20
895.5004503385353
 10
2469.3893639604066
 20
895.5004503385353
 10
2469.3893639604066
 20
1595.5004503385426
 10
2450.9893639604124
 20
1595.5004503385426
 10
2450.9893639604124
 20
1584.3004503385455
  0
LWPOLYLINE
  5
8F
330
17
100
AcDbEntity
  8
0
 62
3
100
AcDbPolyline
 90
8
 70
1
 10
2366.1893639604095
 20
897.9004503385222
 10
2378.1893639604095
 20
897.9004503385222
 10
2378.1893639604095
 20
947.9004503385368
 10
2366.1893639604095
 20
947.9004503385368
 10
2366.1893639604095
 20
949.1004503385266
 10
2379.3893639604066
 20
949.1004503385266
 10
2379.3893639604066
 20
896.7004503385324
 10
2366.1893639604095
 20
896.7004503385324
  0
LWPOLYLINE
  5
90
330
17
100
AcDbEntity
  8
0
 62
3
100
AcDbPolyline
 90
8
 70
1
 10
2366.1893639604095
 20
1593.1004503385411
 10
2378.1893639604095
 20
1593.1004503385411
 10
2378.1893639604095
 20
1543.1004503385411
 10
2366.1893639604095
 20
1543.1004503385411
 10
2366.1893639604095
 20
1541.900450338544
 10
2379.3893639604066
 20
1541.900450338544
 10
2379.3893639604066
 20
1594.3004503385455
 10
2366.1893639604095
 20
1594.3004503385455
  0
LWPOLYLINE
  5
91
330
17
100
AcDbEntity
  8
0
 62
6
100
AcDbPolyline
 90
12
 70
1
 10
2382.1893639604095
 20
1550.6004503385411
 10
2382.1893639604095
 20
1560.6004503385411
 10
2398.1893639604095
 20
1560.6004503385411
 10
2398.1893639604095
 20
930.4004503385368
 10
2382.1893639604095
 20
930.4004503385368
 10
2382.1893639604095
 20
940.4004503385368
 10
2380.9893639604124
 20
940.4004503385368
 10
2380.9893639604124
 20
929.2004503385324
 10
2399.3893639604066
 20
929.2004503385324
 10
2399.3893639604066
 20
1561.800450338531
 10
2380.9893639604124
 20
1561.800450338531
 10
2380.9893639604124
 20
1550.6004503385411
  0
LWPOLYLINE
  5
92
330
17
100
AcDbEntity
  8
0
 62
1
100
AcDbPolyline
 90
8
 70
1
 10
2260.5893639604037
 20
953.0004503385207
 10
2275.5893639604037
 20
953.0004503385207
 10
2275.5893639604037
 20
1538.0004503385571
 10
2260.5893639604037
 20
1538.0004503385571
 10
2260.5893639604037
 20
1539.2004503385542
 10
2276.789363960401
 20
1539.2004503385542
 10
2276.789363960401
 20
951.8004503385309
 10
2260.5893639604037
 20
951.8004503385309
  0
INSERT
  5
93
330
17
100
AcDbEntity
  8
0
 62
7
100
AcDbBlockReference
  2
HCC BKN
 10
2340.70546603181
 20
1073.5004503385426
 30
0.0
 41
-1.0
 50
180.0
  0
LWPOLYLINE
  5
95
330
17
100
AcDbEntity
  8
0
 62
8
100
AcDbPolyline
 90
12
 70
1
 10
2277.9893639604124
 20
1295.0004503385426
 10
2277.9893639604124
 20
1320.0004503385353
 10
2337.705466031708
 20
1320.0004503385353
 10
2337.705466031708
 20
1450.0004503385353
 10
2277.9893639604124
 20
1450.0004503385353
 10
2277.9893639604124
 20
1475.0004503385353
 10
2276.789363960401
 20
1475.0004503385353
 10
2276.789363960401
 20
1448.8004503385455
 10
2336.505466031813
 20
1448.8004503385455
 10
2336.505466031813
 20
1321.2004503385324
 10
2276.789363960401
 20
1321.2004503385324
 10
2276.789363960401
 20
1295.0004503385426
  0
LWPOLYLINE
  5
96
330
17
100
AcDbEntity
  8
0
 62
8
100
AcDbPolyline
 90
12
 70
1
 10
2277.9893639604124
 20
1048.5004503385353
 10
2277.9893639604124
 20
1073.5004503385426
 10
2337.705466031708
 20
1073.5004503385426
 10
2337.705466031708
 20
1154.5004503385426
 10
2277.9893639604124
 20
1154.5004503385426
 10
2277.9893639604124
 20
1179.5004503385353
 10
2276.789363960401
 20
1179.5004503385353
 10
2276.789363960401
 20
1153.3004503385455
 10
2336.505466031813
 20
1153.3004503385455
 10
2336.505466031813
 20
1074.7004503385324
 10
2276.789363960401
 20
1074.7004503385324
 10
2276.789363960401
 20
1048.5004503385353
  0
DIMENSION
  5
97
330
17
100
AcDbEntity
  8
0
 62
2
 48
3.0
100
AcDbDimension
280
0
  2
*D3
  3
Dim-25
 10
2449.3893639604066
 20
1640.7005576095762
 30
0.0
 11
2414.3893639604066
 21
1663.4648823026146
 31
0.0
 70
32
 71
5
 42
70.0
 73
0
 74
0
 75
0
100
AcDbAlignedDimension
 13
2379.3893639604066
 23
1594.3004503385455
 33
0.0
 14
2449.3893639604066
 24
1595.5004503385426
 34
0.0
 50
0.0
100
AcDbRotatedDimension
  0
LWPOLYLINE
  5
98
330
17
100
AcDbEntity
  8
0
 62
7
100
AcDbPolyline
 90
16
 70
1
 10
676.4152034404106
 20
560.4622689136522
 10
676.4152034404106
 20
548.4622689136522
 10
701.4152034404106
 20
548.4622689136522
 10
701.4152034404106
 20
736.0622689136508
 10
203.81520344040473
 20
736.0622689136508
 10
203.81520344040473
 20
548.4622689136522
 10
228.81520344040473
 20
548.4622689136522
 10
228.81520344040473
 20
560.4622689136522
 10
230.01520344040182
 20
560.4622689136522
 10
230.01520344040182
 20
547.2622689136551
 10
202.61520344040764
 20
547.2622689136551
 10
202.61520344040764
 20
737.2622689136551
 10
702.6152034404076
 20
737.2622689136551
 10
702.6152034404076
 20
547.2622689136551
 10
675.2152034404135
 20
547.2622689136551
 10
675.2152034404135
 20
560.4622689136522
  0
INSERT
  5
99
330
17
100
AcDbEntity
  8
0
 62
7
100
AcDbBlockReference
  2
HL003-2-3
 10
685.6152034404076
 20
547.2622689136551
 30
0.0
 41
-1.0
 50
180.0
  0
LWPOLYLINE
  5
9B
330
17
100
AcDbEntity
  8
0
 62
7
100
AcDbPolyline
 90
12
 70
1
 10
689.4152034404106
 20
544.4622689136522
 10
699.4152034404106
 20
544.4622689136522
 10
699.4152034404106
 20
528.4622689136522
 10
203.81520344040473
 20
528.4622689136522
 10
203.81520344040473
 20
544.4622689136522
 10
213.81520344040473
 20
544.4622689136522
 10
213.81520344040473
 20
545.6622689136566
 10
202.61520344040764
 20
545.6622689136566
 10
202.61520344040764
 20
527.2622689136551
 10
700.6152034404076
 20
527.2622689136551
 10
700.6152034404076
 20
545.6622689136566
 10
689.4152034404106
 20
545.6622689136566
  0
LWPOLYLINE
  5
9C
330
17
100
AcDbEntity
  8
0
 62
3
100
AcDbPolyline
 90
8
 70
1
 10
205.01520344040182
 20
630.4622689136522
 10
205.01520344040182
 20
618.4622689136522
 10
255.01520344040182
 20
618.4622689136522
 10
255.01520344040182
 20
630.4622689136522
 10
256.21520344041346
 20
630.4622689136522
 10
256.21520344041346
 20
617.2622689136624
 10
203.81520344040473
 20
617.2622689136624
 10
203.81520344040473
 20
630.4622689136522
  0
LWPOLYLINE
  5
9D
330
17
100
AcDbEntity
  8
0
 62
3
100
AcDbPolyline
 90
8
 70
1
 10
700.2152034404135
 20
630.4622689136522
 10
700.2152034404135
 20
618.4622689136522
 10
650.2152034404135
 20
618.4622689136522
 10
650.2152034404135
 20
630.4622689136522
 10
649.0152034404018
 20
630.4622689136522
 10
649.0152034404018
 20
617.2622689136624
 10
701.4152034404106
 20
617.2622689136624
 10
701.4152034404106
 20
630.4622689136522
  0
INSERT
  5
9E
330
17
100
AcDbEntity
  8
0
 62
7
100
AcDbBlockReference
  2
HL003-2-3
 10
653.9152034404106
 20
617.2622689136624
 30
0.0
 41
-1.0
 50
180.0
  0
LWPOLYLINE
  5
A0
330
17
100
AcDbEntity
  8
0
 62
6
100
AcDbPolyline
 90
12
 70
1
 10
657.7152034404135
 20
614.4622689136522
 10
667.7152034404135
 20
614.4622689136522
 10
667.7152034404135
 20
598.4622689136522
 10
237.51520344040182
 20
598.4622689136522
 10
237.51520344040182
 20
614.4622689136522
 10
247.51520344040182
 20
614.4622689136522
 10
247.51520344040182
 20
615.6622689136566
 10
236.31520344040473
 20
615.6622689136566
 10
236.31520344040473
 20
597.2622689136551
 10
668.9152034404106
 20
597.2622689136551
 10
668.9152034404106
 20
615.6622689136566
 10
657.7152034404135
 20
615.6622689136566
  0
LWPOLYLINE
  5
A1
330
17
100
AcDbEntity
  8
0
 62
1
100
AcDbPolyline
 90
8
 70
1
 10
260.11520344040764
 20
736.0622689136508
 10
260.11520344040764
 20
721.0622689136508
 10
645.1152034404076
 20
721.0622689136508
 10
645.1152034404076
 20
736.0622689136508
 10
646.3152034404047
 20
736.0622689136508
 10
646.3152034404047
 20
719.862268913661
 10
258.91520344041055
 20
719.862268913661
 10
258.91520344041055
 20
736.0622689136508
  0
DIMENSION
  5
A2
330
17
100
AcDbEntity
  8
0
 62
2
 48
3.0
100
AcDbDimension
280
0
  2
*D4
  3
Dim-25
 10
183.38998548670497
 20
527.2622689136551
 30
0.0
 11
160.62566079371027
 21
632.262268913677
 31
0.0
 70
32
 71
5
 42
210.0
 73
0
 74
0
 75
0
100
AcDbAlignedDimension
 13
202.61520344040764
 23
737.2622689136551
 33
0.0
 14
202.61520344040764
 24
527.2622689136551
 34
0.0
 50
90.0
100
AcDbRotatedDimension
  0
DIMENSION
  5
A3
330
17
100
AcDbEntity
  8
0
 62
2
 48
3.0
100
AcDbDimension
280
0
  2
*D5
  3
Dim-25
 10
759.2573073374078
 20
617.2622689136624
 30
0.0
 11
736.4929826444131
 21
582.262268913677
 31
0.0
 70
32
 71
5
 42
70.0
 73
0
 74
0
 75
0
100
AcDbAlignedDimension
 13
702.6152034404076
 23
547.2622689136551
 33
0.0
 14
701.4152034404106
 24
617.2622689136624
 34
0.0
 50
90.0
100
AcDbRotatedDimension
  0
LWPOLYLINE
  5
A4
330
17
100
AcDbEntity
  8
0
 62
7
100
AcDbPolyline
 90
16
 70
1
 10
1287.5429350871127
 20
560.4622689136522
 10
1287.5429350871127
 20
548.4622689136522
 10
1312.5429350871127
 20
548.4622689136522
 10
1312.5429350871127
 20
736.0622689136508
 10
814.9429350871069
 20
736.0622689136508
 10
814.9429350871069
 20
548.4622689136522
 10
839.9429350871069
 20
548.4622689136522
 10
839.9429350871069
 20
560.4622689136522
 10
841.142935087104
 20
560.4622689136522
 10
841.142935087104
 20
547.2622689136551
 10
813.7429350871098
 20
547.2622689136551
 10
813.7429350871098
 20
737.2622689136551
 10
1313.7429350871098
 20
737.2622689136551
 10
1313.7429350871098
 20
547.2622689136551
 10
1286.342935087101
 20
547.2622689136551
 10
1286.342935087101
 20
560.4622689136522
  0
INSERT
  5
A5
330
17
100
AcDbEntity
  8
0
 62
7
100
AcDbBlockReference
  2
HL003-2-3
 10
1296.7429350871098
 20
547.2622689136551
 30
0.0
 41
-1.0
 50
180.0
  0
LWPOLYLINE
  5
A7
330
17
100
AcDbEntity
  8
0
 62
7
100
AcDbPolyline
 90
12
 70
1
 10
1300.5429350871127
 20
544.4622689136522
 10
1310.5429350871127
 20
544.4622689136522
 10
1310.5429350871127
 20
528.4622689136522
 10
814.9429350871069
 20
528.4622689136522
 10
814.9429350871069
 20
544.4622689136522
 10
824.9429350871069
 20
544.4622689136522
 10
824.9429350871069
 20
545.6622689136566
 10
813.7429350871098
 20
545.6622689136566
 10
813.7429350871098
 20
527.2622689136551
 10
1311.7429350871098
 20
527.2622689136551
 10
1311.7429350871098
 20
545.6622689136566
 10
1300.5429350871127
 20
545.6622689136566
  0
LWPOLYLINE
  5
A8
330
17
100
AcDbEntity
  8
0
 62
3
100
AcDbPolyline
 90
8
 70
1
 10
816.142935087104
 20
630.4622689136522
 10
816.142935087104
 20
618.4622689136522
 10
866.142935087104
 20
618.4622689136522
 10
866.142935087104
 20
630.4622689136522
 10
867.3429350871011
 20
630.4622689136522
 10
867.3429350871011
 20
617.2622689136624
 10
814.9429350871069
 20
617.2622689136624
 10
814.9429350871069
 20
630.4622689136522
  0
LWPOLYLINE
  5
A9
330
17
100
AcDbEntity
  8
0
 62
3
100
AcDbPolyline
 90
8
 70
1
 10
1311.342935087101
 20
630.4622689136522
 10
1311.342935087101
 20
618.4622689136522
 10
1261.342935087101
 20
618.4622689136522
 10
1261.342935087101
 20
630.4622689136522
 10
1260.142935087104
 20
630.4622689136522
 10
1260.142935087104
 20
617.2622689136624
 10
1312.5429350871127
 20
617.2622689136624
 10
1312.5429350871127
 20
630.4622689136522
  0
INSERT
  5
AA
330
17
100
AcDbEntity
  8
0
 62
7
100
AcDbBlockReference
  2
HL003-2-3
 10
1265.0429350871127
 20
617.2622689136624
 30
0.0
 41
-1.0
 50
180.0
  0
LWPOLYLINE
  5
AC
330
17
100
AcDbEntity
  8
0
 62
6
100
AcDbPolyline
 90
12
 70
1
 10
1268.842935087101
 20
614.4622689136522
 10
1278.842935087101
 20
614.4622689136522
 10
1278.842935087101
 20
598.4622689136522
 10
848.642935087104
 20
598.4622689136522
 10
848.642935087104
 20
614.4622689136522
 10
858.642935087104
 20
614.4622689136522
 10
858.642935087104
 20
615.6622689136566
 10
847.4429350871069
 20
615.6622689136566
 10
847.4429350871069
 20
597.2622689136551
 10
1280.0429350871127
 20
597.2622689136551
 10
1280.0429350871127
 20
615.6622689136566
 10
1268.842935087101
 20
615.6622689136566
  0
LWPOLYLINE
  5
AD
330
17
100
AcDbEntity
  8
0
 62
1
100
AcDbPolyline
 90
8
 70
1
 10
871.2429350871098
 20
736.0622689136508
 10
871.2429350871098
 20
721.0622689136508
 10
1256.2429350871098
 20
721.0622689136508
 10
1256.2429350871098
 20
736.0622689136508
 10
1257.442935087107
 20
736.0622689136508
 10
1257.442935087107
 20
719.862268913661
 10
870.0429350871127
 20
719.862268913661
 10
870.0429350871127
 20
736.0622689136508
  0
DIMENSION
  5
AE
330
17
100
AcDbEntity
  8
0
 62
2
 48
3.0
100
AcDbDimension
280
0
  2
*D6
  3
Dim-25
 10
794.5177171334071
 20
527.2622689136551
 30
0.0
 11
771.7533924404124
 21
632.262268913677
 31
0.0
 70
32
 71
5
 42
210.0
 73
0
 74
0
 75
0
100
AcDbAlignedDimension
 13
813.7429350871098
 23
737.2622689136551
 33
0.0
 14
813.7429350871098
 24
527.2622689136551
 34
0.0
 50
90.0
100
AcDbRotatedDimension
  0
DIMENSION
  5
AF
330
17
100
AcDbEntity
  8
0
 62
2
 48
3.0
100
AcDbDimension
280
0
  2
*D7
  3
Dim-25
 10
1370.38503898411
 20
617.2622689136624
 30
0.0
 11
1347.6207142911007
 21
582.262268913677
 31
0.0
 70
32
 71
5
 42
70.0
 73
0
 74
0
 75
0
100
AcDbAlignedDimension
 13
1313.7429350871098
 23
547.2622689136551
 33
0.0
 14
1312.5429350871127
 24
617.2622689136624
 34
0.0
 50
90.0
100
AcDbRotatedDimension
  0
LWPOLYLINE
  5
B0
330
17
100
AcDbEntity
  8
0
 62
7
100
AcDbPolyline
 90
4
 70
1
 10
1565.2464118738135
 20
1595.5004503385426
 10
2065.2464118738135
 20
1595.5004503385426
 10
2065.2464118738135
 20
895.5004503385353
 10
1565.2464118738135
 20
895.5004503385353
  0
LWPOLYLINE
  5
B1
330
17
100
AcDbEntity
  8
0
 62
7
100
AcDbPolyline
 90
4
 70
1
 10
1592.6464118738077
 20
1568.1004503385411
 10
2037.8464118738048
 20
1568.1004503385411
 10
2037.8464118738048
 20
922.9004503385513
 10
1592.6464118738077
 20
922.9004503385513
  0
LWPOLYLINE
  5
B2
330
17
100
AcDbEntity
  8
0
  6
HIDDEN2
 62
6
100
AcDbPolyline
 90
4
 70
1
 10
1600.1464118738077
 20
1560.6004503385411
 10
2030.3464118738048
 20
1560.6004503385411
 10
2030.3464118738048
 20
930.4004503385513
 10
1600.1464118738077
 20
930.4004503385513
  0
LWPOLYLINE
  5
B3
330
17
100
AcDbEntity
  8
0
 62
6
100
AcDbPolyline
 90
4
 70
1
 10
1598.9464118738106
 20
1561.800450338531
 10
2031.5464118738018
 20
1561.800450338531
 10
2031.5464118738018
 20
929.2004503385542
 10
1598.9464118738106
 20
929.2004503385542
  0
LWPOLYLINE
  5
B4
330
17
100
AcDbEntity
  8
0
 62
3
100
AcDbPolyline
 90
4
 70
1
 10
1618.8464118738048
 20
1541.900450338544
 10
2011.6464118738077
 20
1541.900450338544
 10
2011.6464118738077
 20
949.1004503385411
 10
1618.8464118738048
 20
949.1004503385411
  0
LWPOLYLINE
  5
B5
330
17
100
AcDbEntity
  8
0
 62
1
100
AcDbPolyline
 90
4
 70
1
 10
1621.8464118738048
 20
1538.900450338544
 10
2008.6464118738077
 20
1538.900450338544
 10
2008.6464118738077
 20
952.1004503385411
 10
1621.8464118738048
 20
952.1004503385411
  0
LWPOLYLINE
  5
B6
330
17
100
AcDbEntity
  8
0
  6
HIDDEN2
 62
7
100
AcDbPolyline
 90
4
 70
1
 10
1566.4464118738106
 20
1594.3004503385455
 10
2064.046411873802
 20
1594.3004503385455
 10
2064.046411873802
 20
896.7004503385324
 10
1566.4464118738106
 20
896.7004503385324
  0
LWPOLYLINE
  5
B7
330
17
100
AcDbEntity
  8
0
 62
2
100
AcDbPolyline
 90
4
 70
1
 10
2061.7464118738135
 20
1520.0004503385426
 10
2050.7464118738135
 20
1520.0004503385426
 10
2050.7464118738135
 20
1511.0004503385353
 10
2061.7464118738135
 20
1511.0004503385353
  0
INSERT
  5
B8
330
17
100
AcDbEntity
  8
0
 62
7
100
AcDbBlockReference
  2
HL003-2-2
 10
2048.2464118738135
 20
1509.5004503385353
 30
0.0
  0
LWPOLYLINE
  5
BA
330
17
100
AcDbEntity
  8
0
 62
2
100
AcDbPolyline
 90
4
 70
1
 10
2061.7464118738135
 20
971.0004503385571
 10
2050.7464118738135
 20
971.0004503385571
 10
2050.7464118738135
 20
980.0004503385353
 10
2061.7464118738135
 20
980.0004503385353
  0
INSERT
  5
BB
330
17
100
AcDbEntity
  8
0
 62
7
100
AcDbBlockReference
  2
HL003-2-2
 10
2048.2464118738135
 20
981.5004503385353
 30
0.0
 41
-1.0
 50
180.0
  0
LWPOLYLINE
  5
BD
330
17
100
AcDbEntity
  8
0
 62
2
100
AcDbPolyline
 90
4
 70
1
 10
2030.0464118738018
 20
1485.1004503385338
 10
2019.0464118739037
 20
1485.1004503385338
 10
2019.0464118739037
 20
1476.1004503385411
 10
2030.0464118738018
 20
1476.1004503385411
  0
INSERT
  5
BE
330
17
100
AcDbEntity
  8
0
 62
7
100
AcDbBlockReference
  2
HL003-2-2
 10
2016.5464118738018
 20
1474.6004503385411
 30
0.0
  0
LWPOLYLINE
  5
C0
330
17
100
AcDbEntity
  8
0
 62
2
100
AcDbPolyline
 90
4
 70
1
 10
2030.0464118738018
 20
1005.900450338544
 10
2019.0464118739037
 20
1005.900450338544
 10
2019.0464118739037
 20
1014.900450338544
 10
2030.0464118738018
 20
1014.900450338544
  0
INSERT
  5
C1
330
17
100
AcDbEntity
  8
0
 62
7
100
AcDbBlockReference
  2
HL003-2-2
 10
2016.5464118738018
 20
1016.400450338544
 30
0.0
 41
-1.0
 50
180.0
  0
INSERT
  5
C3
330
17
100
AcDbEntity
  8
0
 62
7
100
AcDbBlockReference
  2
BKN 1P
 10
1806.2464118738135
 20
1184.0030368397638
 30
0.0
  0
INSERT
  5
C5
330
17
100
AcDbEntity
  8
0
100
AcDbBlockReference
  2
MS722
 10
1650.070875829304
 20
1470.4963828166728
 30
0.0
 41
-1.0
 50
180.0
  0
LWPOLYLINE
  5
C7
330
17
100
AcDbEntity
  8
0
 62
2
100
AcDbPolyline
 90
4
 70
1
 10
1639.820875829304
 20
1480.7463828166874
 10
1660.320875829304
 20
1480.7463828166874
 10
1660.320875829304
 20
1460.2463828166874
 10
1639.820875829304
 20
1460.2463828166874
  0
CIRCLE
  5
C8
330
17
100
AcDbEntity
  8
0
 62
2
 48
3.0
100
AcDbCircle
 10
1636.8464118738048
 20
1523.900450338544
 30
0.0
 40
2.0
  0
CIRCLE
  5
C9
330
17
100
AcDbEntity
  8
0
 62
2
 48
3.0
100
AcDbCircle
 10
1636.8464118738048
 20
1523.900450338544
 30
0.0
 40
5.0
  0
CIRCLE
  5
CA
330
17
100
AcDbEntity
  8
0
 62
2
 48
3.0
100
AcDbCircle
 10
1993.6464118738077
 20
1523.900450338544
 30
0.0
 40
2.0
  0
CIRCLE
  5
CB
330
17
100
AcDbEntity
  8
0
 62
2
 48
3.0
100
AcDbCircle
 10
1993.6464118738077
 20
1523.900450338544
 30
0.0
 40
5.0
  0
CIRCLE
  5
CC
330
17
100
AcDbEntity
  8
0
 62
2
 48
3.0
100
AcDbCircle
 10
1636.8464118738048
 20
967.1004503385411
 30
0.0
 40
2.0
  0
CIRCLE
  5
CD
330
17
100
AcDbEntity
  8
0
 62
2
 48
3.0
100
AcDbCircle
 10
1636.8464118738048
 20
967.1004503385411
 30
0.0
 40
5.0
  0
CIRCLE
  5
CE
330
17
100
AcDbEntity
  8
0
 62
2
 48
3.0
100
AcDbCircle
 10
1993.6464118738077
 20
967.1004503385411
 30
0.0
 40
2.0
  0
CIRCLE
  5
CF
330
17
100
AcDbEntity
  8
0
 62
2
 48
3.0
100
AcDbCircle
 10
1993.6464118738077
 20
967.1004503385411
 30
0.0
 40
5.0
  0
INSERT
  5
D0
330
17
100
AcDbEntity
  8
0
100
AcDbBlockReference
  2
MS722
 10
1650.070875829304
 20
1020.5045178604123
 30
0.0
  0
LWPOLYLINE
  5
D2
330
17
100
AcDbEntity
  8
0
 62
2
100
AcDbPolyline
 90
4
 70
1
 10
1639.820875829304
 20
1010.254517860405
 10
1660.320875829304
 20
1010.254517860405
 10
1660.320875829304
 20
1030.7545178604123
 10
1639.820875829304
 20
1030.7545178604123
  0
INSERT
  5
D3
330
17
100
AcDbEntity
  8
0
 62
7
100
AcDbBlockReference
  2
BKN 3P
 10
1752.2464118738135
 20
1184.0030368397638
 30
0.0
  0
INSERT
  5
D5
330
17
100
AcDbEntity
  8
0
100
AcDbBlockReference
  2
LS 100AF 3P
 10
1777.7464118738135
 20
1450.0004503385353
 30
0.0
  0
LWPOLYLINE
  5
D7
330
17
100
AcDbEntity
  8
0
 62
2
 48
3.0
100
AcDbPolyline
 90
4
 70
1
 10
1801.2464118738135
 20
1413.0004503385426
 10
1829.2464118738135
 20
1413.0004503385426
 10
1829.2464118738135
 20
1357.0004503385353
 10
1801.2464118738135
 20
1357.0004503385353
  0
INSERT
  5
D8
330
17
100
AcDbEntity
  8
0
 62
7
100
AcDbBlockReference
  2
BKN 1P
 10
1824.2464118738135
 20
1184.0030368397638
 30
0.0
  0
INSERT
  5
DA
330
17
100
AcDbEntity
  8
0
 62
7
100
AcDbBlockReference
  2
BKN 1P
 10
1842.2464118738135
 20
1184.0030368397638
 30
0.0
  0
INSERT
  5
DC
330
17
100
AcDbEntity
  8
0
 62
7
100
AcDbBlockReference
  2
BKN 1P
 10
1860.2464118738135
 20
1184.0030368397638
 30
0.0
  0
MTEXT
  5
DE
330
17
100
AcDbEntity
  8
0
 62
2
100
AcDbMText
 10
1827.7317870952102
 20
1695.3630562515755
 30
0.0
 40
100.0
 41
1000.0
 46
647.1644973081675
 71
5
 72
5
  1
NTD2
  0
MTEXT
  5
DF
330
17
100
AcDbEntity
  8
0
 62
2
100
AcDbMText
 10
1335.623399437609
 20
386.68700246293156
 30
0.0
 40
100.0
 41
1000.0
 46
647.1644973081675
 71
5
 72
5
  1
TDNTT
  0
LWPOLYLINE
  5
E0
330
17
100
AcDbEntity
  8
0
 62
2
100
AcDbPolyline
 90
4
 70
1
 10
342.61520344040764
 20
707.2622689136551
 10
562.6152034404076
 20
707.2622689136551
 10
562.6152034404076
 20
652.2622689136624
 10
342.61520344040764
 20
652.2622689136624
  0
LWPOLYLINE
  5
E1
330
17
100
AcDbEntity
  8
0
 62
7
100
AcDbPolyline
 90
4
 70
1
 10
322.61520344040764
 20
717.2622689136624
 10
582.6152034404076
 20
717.2622689136624
 10
582.6152034404076
 20
642.2622689136551
 10
322.61520344040764
 20
642.2622689136551
  0
LWPOLYLINE
  5
E2
330
17
100
AcDbEntity
  8
0
 62
2
100
AcDbPolyline
 90
4
 70
1
 10
567.3652034404076
 20
675.2622689136624
 10
576.3652034404076
 20
675.2622689136624
 10
576.3652034404076
 20
684.2622689136551
 10
567.3652034404076
 20
684.2622689136551
  0
LWPOLYLINE
  5
E3
330
17
100
AcDbEntity
  8
0
 62
2
100
AcDbPolyline
 90
4
 70
1
 10
337.86520344040764
 20
675.2622689136624
 10
328.86520344040764
 20
675.2622689136624
 10
328.86520344040764
 20
684.2622689136551
 10
337.86520344040764
 20
684.2622689136551
  0
CIRCLE
  5
E4
330
17
100
AcDbEntity
  8
0
 62
7
100
AcDbCircle
 10
571.8652034404076
 20
679.7622689136551
 30
0.0
 40
4.0
  0
CIRCLE
  5
E5
330
17
100
AcDbEntity
  8
0
 62
7
100
AcDbCircle
 10
333.36520344040764
 20
679.7622689136551
 30
0.0
 40
4.0
  0
LWPOLYLINE
  5
E6
330
17
100
AcDbEntity
  8
0
 62
2
100
AcDbPolyline
 90
4
 70
1
 10
953.7429350871098
 20
707.2622689136551
 10
1173.7429350871098
 20
707.2622689136551
 10
1173.7429350871098
 20
652.2622689136624
 10
953.7429350871098
 20
652.2622689136624
  0
LWPOLYLINE
  5
E7
330
17
100
AcDbEntity
  8
0
 62
7
100
AcDbPolyline
 90
4
 70
1
 10
933.7429350871098
 20
717.2622689136624
 10
1193.7429350871098
 20
717.2622689136624
 10
1193.7429350871098
 20
642.2622689136551
 10
933.7429350871098
 20
642.2622689136551
  0
LWPOLYLINE
  5
E8
330
17
100
AcDbEntity
  8
0
 62
2
100
AcDbPolyline
 90
4
 70
1
 10
1178.4929350871098
 20
675.2622689136624
 10
1187.4929350871098
 20
675.2622689136624
 10
1187.4929350871098
 20
684.2622689136551
 10
1178.4929350871098
 20
684.2622689136551
  0
LWPOLYLINE
  5
E9
330
17
100
AcDbEntity
  8
0
 62
2
100
AcDbPolyline
 90
4
 70
1
 10
948.9929350871098
 20
675.2622689136624
 10
939.9929350871098
 20
675.2622689136624
 10
939.9929350871098
 20
684.2622689136551
 10
948.9929350871098
 20
684.2622689136551
  0
CIRCLE
  5
EA
330
17
100
AcDbEntity
  8
0
 62
7
100
AcDbCircle
 10
1182.9929350871098
 20
679.7622689136551
 30
0.0
 40
4.0
  0
CIRCLE
  5
EB
330
17
100
AcDbEntity
  8
0
 62
7
100
AcDbCircle
 10
944.4929350871098
 20
679.7622689136551
 30
0.0
 40
4.0
  0
LWPOLYLINE
  5
EC
330
17
100
AcDbEntity
  8
0 TĂNG CỨNG
100
AcDbPolyline
 90
6
 70
1
 10
242.61520344040764
 20
1595.5004503385426
 10
202.61520344040764
 20
1595.5004503385426
 10
202.61520344040764
 20
1640.5004503385353
 42
-0.4142135623730951
 10
207.61520344040764
 20
1645.5004503385353
 10
237.61520344040764
 20
1645.5004503385353
 42
-0.4142135623730951
 10
242.61520344040764
 20
1640.5004503385353
  0
CIRCLE
  5
ED
330
17
100
AcDbEntity
  8
0 TĂNG CỨNG
100
AcDbCircle
 10
222.61520344040764
 20
1625.5004503385353
 30
0.0
 40
6.5
  0
LINE
  5
EE
330
17
100
AcDbEntity
  8
0 TĂNG CỨNG
100
AcDbLine
 10
242.61520344040764
 20
1605.5004503385207
 30
0.0
 11
202.61520344040764
 21
1605.5004503385207
 31
0.0
  0
HATCH
  5
EF
330
17
100
AcDbEntity
  8
0 TĂNG CỨNG
100
AcDbHatch
 10
0.0
 20
0.0
 30
0.0
210
0.0
220
0.0
230
1.0
  2
JIS_WOOD
 70
0
 71
0
 91
1
 92
1
 93
4
 72
1
 10
242.61520344040764
 20
1605.5004503385207
 11
202.61520344040764
 21
1605.5004503385207
 72
1
 10
202.61520344040764
 20
1605.5004503385207
 11
202.61520344040764
 21
1595.5004503385426
 72
1
 10
202.61520344040764
 20
1595.5004503385426
 11
242.61520344040764
 21
1595.5004503385426
 72
1
 10
242.61520344040764
 20
1595.5004503385426
 11
242.61520344040764
 21
1605.5004503385207
 97
1
330
1921E3
 75
0
 76
1
 52
0.0
 41
1.0
 77
0
 78
1
 53
135.0
 43
159116.4827401467
 44
-25246.5578373338
 45
0.4999999992
 46
0.4999999992
 79
0
 98
1
 10
159116.4827401467
 20
-25246.55783733377
  0
LWPOLYLINE
  5
F0
330
17
100
AcDbEntity
  8
0 TĂNG CỨNG
100
AcDbPolyline
 90
4
 70
1
 10
242.61520344040764
 20
1605.5004503385207
 10
202.61520344040764
 20
1605.5004503385207
 10
202.61520344040764
 20
1595.5004503385426
 10
242.61520344040764
 20
1595.5004503385426
  0
LWPOLYLINE
  5
F1
330
17
100
AcDbEntity
  8
0 TĂNG CỨNG
100
AcDbPolyline
 90
6
 70
1
 10
662.6152034404076
 20
1595.5004503385426
 10
702.6152034404076
 20
1595.5004503385426
 10
702.6152034404076
 20
1640.5004503385353
 42
0.4142135623730951
 10
697.6152034404076
 20
1645.5004503385353
 10
667.6152034404076
 20
1645.5004503385353
 42
0.4142135623730951
 10
662.6152034404076
 20
1640.5004503385353
  0
CIRCLE
  5
F2
330
17
100
AcDbEntity
  8
0 TĂNG CỨNG
100
AcDbCircle
 10
682.6152034404076
 20
1625.5004503385353
 30
0.0
 40
6.5
  0
LINE
  5
F3
330
17
100
AcDbEntity
  8
0 TĂNG CỨNG
100
AcDbLine
 10
662.6152034404076
 20
1605.5004503385207
 30
0.0
 11
702.6152034404076
 21
1605.5004503385207
 31
0.0
  0
HATCH
  5
F4
330
17
100
AcDbEntity
  8
0 TĂNG CỨNG
100
AcDbHatch
 10
0.0
 20
0.0
 30
0.0
210
0.0
220
0.0
230
1.0
  2
JIS_WOOD
 70
0
 71
0
 91
1
 92
1
 93
4
 72
1
 10
662.6152034404076
 20
1605.5004503385207
 11
702.6152034404076
 21
1605.5004503385207
 72
1
 10
702.6152034404076
 20
1605.5004503385207
 11
702.6152034404076
 21
1595.5004503385426
 72
1
 10
702.6152034404076
 20
1595.5004503385426
 11
662.6152034404076
 21
1595.5004503385426
 72
1
 10
662.6152034404076
 20
1595.5004503385426
 11
662.6152034404076
 21
1605.5004503385207
 97
1
330
1921E8
 75
0
 76
1
 52
0.0
 41
1.0
 77
0
 78
1
 53
45.0
 43
53918.7138003373
 44
-25246.5578373338
 45
-0.4999999992
 46
0.4999999992
 79
0
 98
1
 10
53918.71380033728
 20
-25246.55783733377
  0
LWPOLYLINE
  5
F5
330
17
100
AcDbEntity
  8
0 TĂNG CỨNG
100
AcDbPolyline
 90
4
 70
1
 10
662.6152034404076
 20
1605.5004503385207
 10
702.6152034404076
 20
1605.5004503385207
 10
702.6152034404076
 20
1595.5004503385426
 10
662.6152034404076
 20
1595.5004503385426
  0
LWPOLYLINE
  5
F6
330
17
100
AcDbEntity
  8
0 TĂNG CỨNG
100
AcDbPolyline
 90
6
 70
1
 10
242.61520344040764
 20
895.5004503385353
 10
202.61520344040764
 20
895.5004503385353
 10
202.61520344040764
 20
850.5004503385426
 42
0.4142135623730951
 10
207.61520344040764
 20
845.5004503385426
 10
237.61520344040764
 20
845.5004503385426
 42
0.4142135623730951
 10
242.61520344040764
 20
850.5004503385426
  0
CIRCLE
  5
F7
330
17
100
AcDbEntity
  8
0 TĂNG CỨNG
100
AcDbCircle
 10
222.61520344040764
 20
865.5004503385426
 30
0.0
 40
6.5
  0
LINE
  5
F8
330
17
100
AcDbEntity
  8
0 TĂNG CỨNG
100
AcDbLine
 10
242.61520344040764
 20
885.5004503385426
 30
0.0
 11
202.61520344040764
 21
885.5004503385426
 31
0.0
  0
HATCH
  5
F9
330
17
100
AcDbEntity
  8
0 TĂNG CỨNG
100
AcDbHatch
 10
0.0
 20
0.0
 30
0.0
210
0.0
220
0.0
230
1.0
  2
JIS_WOOD
 70
0
 71
0
 91
1
 92
1
 93
4
 72
1
 10
242.61520344040764
 20
885.5004503385426
 11
202.61520344040764
 21
885.5004503385426
 72
1
 10
202.61520344040764
 20
885.5004503385426
 11
202.61520344040764
 21
895.5004503385353
 72
1
 10
202.61520344040764
 20
895.5004503385353
 11
242.61520344040764
 21
895.5004503385353
 72
1
 10
242.61520344040764
 20
895.5004503385353
 11
242.61520344040764
 21
885.5004503385426
 97
1
330
1921ED
 75
0
 76
1
 52
0.0
 41
1.0
 77
0
 78
1
 53
225.0
 43
159116.4827401467
 44
-60692.7323340253
 45
0.4999999992
 46
-0.4999999992
 79
0
 98
1
 10
159116.4827401467
 20
-60692.73233402532
  0
LWPOLYLINE
  5
FA
330
17
100
AcDbEntity
  8
0 TĂNG CỨNG
100
AcDbPolyline
 90
4
 70
1
 10
242.61520344040764
 20
885.5004503385426
 10
202.61520344040764
 20
885.5004503385426
 10
202.61520344040764
 20
895.5004503385353
 10
242.61520344040764
 20
895.5004503385353
  0
LWPOLYLINE
  5
FB
330
17
100
AcDbEntity
  8
0 TĂNG CỨNG
100
AcDbPolyline
 90
6
 70
1
 10
662.6152034404076
 20
895.5004503385353
 10
702.6152034404076
 20
895.5004503385353
 10
702.6152034404076
 20
850.5004503385426
 42
-0.4142135623730951
 10
697.6152034404076
 20
845.5004503385426
 10
667.6152034404076
 20
845.5004503385426
 42
-0.4142135623730951
 10
662.6152034404076
 20
850.5004503385426
  0
CIRCLE
  5
FC
330
17
100
AcDbEntity
  8
0 TĂNG CỨNG
100
AcDbCircle
 10
682.6152034404076
 20
865.5004503385426
 30
0.0
 40
6.5
  0
LINE
  5
FD
330
17
100
AcDbEntity
  8
0 TĂNG CỨNG
100
AcDbLine
 10
662.6152034404076
 20
885.5004503385426
 30
0.0
 11
702.6152034404076
 21
885.5004503385426
 31
0.0
  0
HATCH
  5
FE
330
17
100
AcDbEntity
  8
0 TĂNG CỨNG
100
AcDbHatch
 10
0.0
 20
0.0
 30
0.0
210
0.0
220
0.0
230
1.0
  2
JIS_WOOD
 70
0
 71
0
 91
1
 92
1
 93
4
 72
1
 10
662.6152034404076
 20
885.5004503385426
 11
702.6152034404076
 21
885.5004503385426
 72
1
 10
702.6152034404076
 20
885.5004503385426
 11
702.6152034404076
 21
895.5004503385353
 72
1
 10
702.6152034404076
 20
895.5004503385353
 11
662.6152034404076
 21
895.5004503385353
 72
1
 10
662.6152034404076
 20
895.5004503385353
 11
662.6152034404076
 21
885.5004503385426
 97
1
330
1921F2
 75
0
 76
1
 52
0.0
 41
1.0
 77
0
 78
1
 53
315.0
 43
53918.7138003373
 44
-60692.7323340253
 45
-0.4999999992
 46
-0.4999999992
 79
0
 98
1
 10
53918.71380033728
 20
-60692.73233402532
  0
LWPOLYLINE
  5
FF
330
17
100
AcDbEntity
  8
0 TĂNG CỨNG
100
AcDbPolyline
 90
4
 70
1
 10
662.6152034404076
 20
885.5004503385426
 10
702.6152034404076
 20
885.5004503385426
 10
702.6152034404076
 20
895.5004503385353
 10
662.6152034404076
 20
895.5004503385353
  0
LWPOLYLINE
  5
100
330
17
100
AcDbEntity
  8
0
  6
HIDDENX2
 62
1
100
AcDbPolyline
 90
4
 70
1
 10
871.5429350871127
 20
1537.7004503385542
 10
1255.942935087107
 20
1537.7004503385542
 10
1255.942935087107
 20
953.3004503385455
 10
871.5429350871127
 20
953.3004503385455
  0
LWPOLYLINE
  5
101
330
17
100
AcDbEntity
  8
0
 62
2
 48
3.0
100
AcDbPolyline
 90
4
 70
1
 10
911.8174609121052
 20
1188.6909963259677
 10
1216.147765241505
 20
1188.6909963259677
 10
1216.147765241505
 20
1138.0030368397638
 10
911.8174609121052
 20
1138.0030368397638
  0
LWPOLYLINE
  5
102
330
17
100
AcDbEntity
  8
0
 62
2
 48
3.0
100
AcDbPolyline
 90
4
 70
1
 10
1033.7429350871098
 20
1430.5004503385353
 10
1093.7429350871098
 20
1430.5004503385353
 10
1093.7429350871098
 20
1379.5004503385353
 10
1033.7429350871098
 20
1379.5004503385353
  0
LWPOLYLINE
  5
103
330
17
100
AcDbEntity
  8
0
 62
2
 48
3.0
100
AcDbPolyline
 90
4
 70
1
 10
1749.2464118738135
 20
1169.0030368397638
 10
1881.2464118738135
 20
1169.0030368397638
 10
1881.2464118738135
 20
1118.0030368397638
 10
1749.2464118738135
 20
1118.0030368397638
  0
ENDSEC
  0
SECTION
  2
OBJECTS
  0
DICTIONARY
  5
A
330
0
100
AcDbDictionary
281
1
  3
ACAD_COLOR
350
B
  3
ACAD_GROUP
350
C
  3
ACAD_LAYOUT
350
D
  3
ACAD_MATERIAL
350
E
  3
ACAD_MLEADERSTYLE
350
F
  3
ACAD_MLINESTYLE
350
10
  3
ACAD_PLOTSETTINGS
350
11
  3
ACAD_PLOTSTYLENAME
350
12
  3
ACAD_SCALELIST
350
14
  3
ACAD_TABLESTYLE
350
15
  3
ACAD_VISUALSTYLE
350
16
  3
EZDXF_META
350
2D
  0
DICTIONARY
  5
B
330
A
100
AcDbDictionary
281
1
  0
DICTIONARY
  5
C
330
A
100
AcDbDictionary
281
1
  0
DICTIONARY
  5
D
330
A
100
AcDbDictionary
281
1
  3
Model
350
1A
  3
Layout1
350
1E
  0
DICTIONARY
  5
E
330
A
100
AcDbDictionary
281
1
  3
ByBlock
350
1F
  3
ByLayer
350
20
  3
Global
350
21
  0
DICTIONARY
  5
F
330
A
100
AcDbDictionary
281
1
  3
Standard
350
2C
  0
DICTIONARY
  5
10
330
A
100
AcDbDictionary
281
1
  3
Standard
350
22
  0
DICTIONARY
  5
11
330
A
100
AcDbDictionary
281
1
  0
ACDBDICTIONARYWDFLT
  5
12
330
A
100
AcDbDictionary
281
1
  3
Normal
350
13
100
AcDbDictionaryWithDefault
340
13
  0
ACDBPLACEHOLDER
  5
13
330
12
  0
DICTIONARY
  5
14
330
A
100
AcDbDictionary
281
1
  0
DICTIONARY
  5
15
330
A
100
AcDbDictionary
281
1
  0
DICTIONARY
  5
16
330
A
100
AcDbDictionary
281
1
  0
LAYOUT
  5
1A
330
D
100
AcDbPlotSettings
  1

  4
A3
  6

 40
7.5
 41
20.0
 42
7.5
 43
20.0
 44
420.0
 45
297.0
 46
0.0
 47
0.0
 48
0.0
 49
0.0
140
0.0
141
0.0
142
1.0
143
1.0
 70
1024
 72
1
 73
0
 74
5
  7

 75
16
 76
0
 77
2
 78
300
147
1.0
148
0.0
149
0.0
100
AcDbLayout
  1
Model
 70
1
 71
0
 10
0.0
 20
0.0
 11
420.0
 21
297.0
 12
0.0
 22
0.0
 32
0.0
 14
1e+20
 24
1e+20
 34
1e+20
 15
-1e+20
 25
-1e+20
 35
-1e+20
146
0.0
 13
0.0
 23
0.0
 33
0.0
 16
1.0
 26
0.0
 36
0.0
 17
0.0
 27
1.0
 37
0.0
 76
1
330
17
  0
LAYOUT
  5
1E
330
D
100
AcDbPlotSettings
  1

  4
A3
  6

 40
7.5
 41
20.0
 42
7.5
 43
20.0
 44
420.0
 45
297.0
 46
0.0
 47
0.0
 48
0.0
 49
0.0
140
0.0
141
0.0
142
1.0
143
1.0
 70
0
 72
1
 73
0
 74
5
  7

 75
16
 76
0
 77
2
 78
300
147
1.0
148
0.0
149
0.0
100
AcDbLayout
  1
Layout1
 70
1
 71
1
 10
0.0
 20
0.0
 11
420.0
 21
297.0
 12
0.0
 22
0.0
 32
0.0
 14
1e+20
 24
1e+20
 34
1e+20
 15
-1e+20
 25
-1e+20
 35
-1e+20
146
0.0
 13
0.0
 23
0.0
 33
0.0
 16
1.0
 26
0.0
 36
0.0
 17
0.0
 27
1.0
 37
0.0
 76
1
330
1B
  0
MATERIAL
  5
1F
102
{ACAD_REACTORS
330
E
102
}
330
E
100
AcDbMaterial
  1
ByBlock
  2

 70
0
 40
1.0
 71
1
 41
1.0
 91
-1023410177
 42
1.0
 72
1
  3

 73
1
 74
1
 75
1
 44
0.5
 73
0
 45
1.0
 46
1.0
 77
1
  4

 78
1
 79
1
170
1
 48
1.0
171
1
  6

172
1
173
1
174
1
140
1.0
141
1.0
175
1
  7

176
1
177
1
178
1
143
1.0
179
1
  8

270
1
271
1
272
1
145
1.0
146
1.0
273
1
  9

274
1
275
1
276
1
 42
1.0
 72
1
  3

 73
1
 74
1
 75
1
 94
63
  0
MATERIAL
  5
20
102
{ACAD_REACTORS
330
E
102
}
330
E
100
AcDbMaterial
  1
ByLayer
  2

 70
0
 40
1.0
 71
1
 41
1.0
 91
-1023410177
 42
1.0
 72
1
  3

 73
1
 74
1
 75
1
 44
0.5
 73
0
 45
1.0
 46
1.0
 77
1
  4

 78
1
 79
1
170
1
 48
1.0
171
1
  6

172
1
173
1
174
1
140
1.0
141
1.0
175
1
  7

176
1
177
1
178
1
143
1.0
179
1
  8

270
1
271
1
272
1
145
1.0
146
1.0
273
1
  9

274
1
275
1
276
1
 42
1.0
 72
1
  3

 73
1
 74
1
 75
1
 94
63
  0
MATERIAL
  5
21
102
{ACAD_REACTORS
330
E
102
}
330
E
100
AcDbMaterial
  1
Global
  2

 70
0
 40
1.0
 71
1
 41
1.0
 91
-1023410177
 42
1.0
 72
1
  3

 73
1
 74
1
 75
1
 44
0.5
 73
0
 45
1.0
 46
1.0
 77
1
  4

 78
1
 79
1
170
1
 48
1.0
171
1
  6

172
1
173
1
174
1
140
1.0
141
1.0
175
1
  7

176
1
177
1
178
1
143
1.0
179
1
  8

270
1
271
1
272
1
145
1.0
146
1.0
273
1
  9

274
1
275
1
276
1
 42
1.0
 72
1
  3

 73
1
 74
1
 75
1
 94
63
  0
MLINESTYLE
  5
22
102
{ACAD_REACTORS
330
10
102
}
330
10
100
AcDbMlineStyle
  2
Standard
 70
0
  3

 62
256
 51
90.0
 52
90.0
 71
2
 49
0.5
 62
256
  6
BYLAYER
 49
-0.5
 62
256
  6
BYLAYER
  0
MLEADERSTYLE
  5
2C
102
{ACAD_REACTORS
330
F
102
}
330
F
100
AcDbMLeaderStyle
179
2
170
2
171
1
172
0
 90
2
 40
0.0
 41
0.0
173
1
 91
-1056964608
 92
-2
290
1
 42
2.0
291
1
 43
8.0
  3
Standard
 44
4.0
300

342
29
174
1
175
1
176
0
178
1
 93
-1056964608
 45
4.0
292
0
297
0
 46
4.0
 94
-1056964608
 47
1.0
 49
1.0
140
1.0
294
1
141
0.0
177
0
142
1.0
295
0
296
0
143
3.75
271
0
272
9
273
9
  0
DICTIONARY
  5
2D
330
A
100
AcDbDictionary
280
1
281
1
  3
CREATED_BY_EZDXF
350
2E
  3
WRITTEN_BY_EZDXF
350
2F5
  0
DICTIONARYVAR
  5
2E
330
2D
100
DictionaryVariables
280
0
  1
1.4.4 @ 2026-09-24T06:32:19.151773+00:00
  0
DICTIONARYVAR
  5
2F5
330
2D
100
DictionaryVariables
280
0
  1
1.4.4 @ 2026-09-24T06:37:54.022277+00:00
  0
ENDSEC
  0
EOF
