  0
SECTION
  2
HEADER
  9
$ACADVER
  1
AC1032
  9
$ACADMAINTVER
 90
4
  9
$DWGCODEPAGE
  3
ANSI_1252
  9
$LASTSAVEDBY
  1
ezdxf
  9
$REQUIREDVERSIONS
160
0
  9
$INSBASE
 10
0.0
 20
0.0
 30
0.0
  9
$EXTMIN
 10
1e+20
 20
1e+20
 30
1e+20
  9
$EXTMAX
 10
-1e+20
 20
-1e+20
 30
-1e+20
  9
$LIMMIN
 10
0.0
 20
0.0
  9
$LIMMAX
 10
420.0
 20
297.0
  9
$ORTHOMODE
 70
0
  9
$REGENMODE
 70
1
  9
$FILLMODE
 70
1
  9
$QTEXTMODE
 70
0
  9
$MIRRTEXT
 70
1
  9
$LTSCALE
 40
1.0
  9
$ATTMODE
 70
1
  9
$TEXTSIZE
 40
2.5
  9
$TRACEWID
 40
1.0
  9
$TEXTSTYLE
  7
Standard
  9
$CLAYER
  8
0
  9
$CELTYPE
  6
ByLayer
  9
$CECOLOR
 62
256
  9
$CELTSCALE
 40
1.0
  9
$DISPSILH
 70
0
  9
$DIMSCALE
 40
1.0
  9
$DIMASZ
 40
2.5
  9
$DIMEXO
 40
0.625
  9
$DIMDLI
 40
3.75
  9
$DIMRND
 40
0.0
  9
$DIMDLE
 40
0.0
  9
$DIMEXE
 40
1.25
  9
$DIMTP
 40
0.0
  9
$DIMTM
 40
0.0
  9
$DIMTXT
 40
2.5
  9
$DIMCEN
 40
2.5
  9
$DIMTSZ
 40
0.0
  9
$DIMTOL
 70
0
  9
$DIMLIM
 70
0
  9
$DIMTIH
 70
0
  9
$DIMTOH
 70
0
  9
$DIMSE1
 70
0
  9
$DIMSE2
 70
0
  9
$DIMTAD
 70
1
  9
$DIMZIN
 70
8
  9
$DIMBLK
  1

  9
$DIMASO
 70
1
  9
$DIMSHO
 70
1
  9
$DIMPOST
  1

  9
$DIMAPOST
  1

  9
$DIMALT
 70
0
  9
$DIMALTD
 70
3
  9
$DIMALTF
 40
0.03937007874
  9
$DIMLFAC
 40
1.0
  9
$DIMTOFL
 70
1
  9
$DIMTVP
 40
0.0
  9
$DIMTIX
 70
0
  9
$DIMSOXD
 70
0
  9
$DIMSAH
 70
0
  9
$DIMBLK1
  1

  9
$DIMBLK2
  1

  9
$DIMSTYLE
  2
ISO-25
  9
$DIMCLRD
 70
0
  9
$DIMCLRE
 70
0
  9
$DIMCLRT
 70
0
  9
$DIMTFAC
 40
1.0
  9
$DIMGAP
 40
0.625
  9
$DIMJUST
 70
0
  9
$DIMSD1
 70
0
  9
$DIMSD2
 70
0
  9
$DIMTOLJ
 70
0
  9
$DIMTZIN
 70
8
  9
$DIMALTZ
 70
0
  9
$DIMALTTZ
 70
0
  9
$DIMUPT
 70
0
  9
$DIMDEC
 70
2
  9
$DIMTDEC
 70
2
  9
$DIMALTU
 70
2
  9
$DIMALTTD
 70
3
  9
$DIMTXSTY
  7
Standard
  9
$DIMAUNIT
 70
0
  9
$DIMADEC
 70
0
  9
$DIMALTRND
 40
0.0
  9
$DIMAZIN
 70
0
  9
$DIMDSEP
 70
44
  9
$DIMATFIT
 70
3
  9
$DIMFRAC
 70
0
  9
$DIMLDRBLK
  1

  9
$DIMLUNIT
 70
2
  9
$DIMLWD
 70
-2
  9
$DIMLWE
 70
-2
  9
$DIMTMOVE
 70
0
  9
$DIMFXL
 40
1.0
  9
$DIMFXLON
 70
0
  9
$DIMJOGANG
 40
0.785398163397
  9
$DIMTFILL
 70
0
  9
$DIMTFILLCLR
 70
0
  9
$DIMARCSYM
 70
0
  9
$DIMLTYPE
  6

  9
$DIMLTEX1
  6

  9
$DIMLTEX2
  6

  9
$DIMTXTDIRECTION
 70
0
  9
$LUNITS
 70
2
  9
$LUPREC
 70
4
  9
$SKETCHINC
 40
1.0
  9
$FILLETRAD
 40
10.0
  9
$AUNITS
 70
0
  9
$AUPREC
 70
2
  9
$MENU
  1
.
  9
$ELEVATION
 40
0.0
  9
$PELEVATION
 40
0.0
  9
$THICKNESS
 40
0.0
  9
$LIMCHECK
 70
0
  9
$CHAMFERA
 40
0.0
  9
$CHAMFERB
 40
0.0
  9
$CHAMFERC
 40
0.0
  9
$CHAMFERD
 40
0.0
  9
$SKPOLY
 70
0
  9
$TDCREATE
 40
2461308.567627315
  9
$TDUCREATE
 40
2458532.153996898
  9
$TDUPDATE
 40
2461308.567627315
  9
$TDUUPDATE
 40
2458532.1544311
  9
$TDINDWG
 40
0.0
  9
$TDUSRTIMER
 40
0.0
  9
$USRTIMER
 70
1
  9
$ANGBASE
 50
0.0
  9
$ANGDIR
 70
0
  9
$PDMODE
 70
0
  9
$PDSIZE
 40
0.0
  9
$PLINEWID
 40
0.0
  9
$SPLFRAME
 70
0
  9
$SPLINETYPE
 70
6
  9
$SPLINESEGS
 70
8
  9
$HANDSEED
  5
2A2
  9
$SURFTAB1
 70
6
  9
$SURFTAB2
 70
6
  9
$SURFTYPE
 70
6
  9
$SURFU
 70
6
  9
$SURFV
 70
6
  9
$UCSBASE
  2

  9
$UCSNAME
  2

  9
$UCSORG
 10
0.0
 20
0.0
 30
0.0
  9
$UCSXDIR
 10
1.0
 20
0.0
 30
0.0
  9
$UCSYDIR
 10
0.0
 20
1.0
 30
0.0
  9
$UCSORTHOREF
  2

  9
$UCSORTHOVIEW
 70
0
  9
$UCSORGTOP
 10
0.0
 20
0.0
 30
0.0
  9
$UCSORGBOTTOM
 10
0.0
 20
0.0
 30
0.0
  9
$UCSORGLEFT
 10
0.0
 20
0.0
 30
0.0
  9
$UCSORGRIGHT
 10
0.0
 20
0.0
 30
0.0
  9
$UCSORGFRONT
 10
0.0
 20
0.0
 30
0.0
  9
$UCSORGBACK
 10
0.0
 20
0.0
 30
0.0
  9
$PUCSBASE
  2

  9
$PUCSNAME
  2

  9
$PUCSORG
 10
0.0
 20
0.0
 30
0.0
  9
$PUCSXDIR
 10
1.0
 20
0.0
 30
0.0
  9
$PUCSYDIR
 10
0.0
 20
1.0
 30
0.0
  9
$PUCSORTHOREF
  2

  9
$PUCSORTHOVIEW
 70
0
  9
$PUCSORGTOP
 10
0.0
 20
0.0
 30
0.0
  9
$PUCSORGBOTTOM
 10
0.0
 20
0.0
 30
0.0
  9
$PUCSORGLEFT
 10
0.0
 20
0.0
 30
0.0
  9
$PUCSORGRIGHT
 10
0.0
 20
0.0
 30
0.0
  9
$PUCSORGFRONT
 10
0.0
 20
0.0
 30
0.0
  9
$PUCSORGBACK
 10
0.0
 20
0.0
 30
0.0
  9
$USERI1
 70
0
  9
$USERI2
 70
0
  9
$USERI3
 70
0
  9
$USERI4
 70
0
  9
$USERI5
 70
0
  9
$USERR1
 40
0.0
  9
$USERR2
 40
0.0
  9
$USERR3
 40
0.0
  9
$USERR4
 40
0.0
  9
$USERR5
 40
0.0
  9
$WORLDVIEW
 70
1
  9
$SHADEDGE
 70
3
  9
$SHADEDIF
 70
70
  9
$TILEMODE
 70
1
  9
$MAXACTVP
 70
64
  9
$PINSBASE
 10
0.0
 20
0.0
 30
0.0
  9
$PLIMCHECK
 70
0
  9
$PEXTMIN
 10
1e+20
 20
1e+20
 30
1e+20
  9
$PEXTMAX
 10
-1e+20
 20
-1e+20
 30
-1e+20
  9
$PLIMMIN
 10
0.0
 20
0.0
  9
$PLIMMAX
 10
420.0
 20
297.0
  9
$UNITMODE
 70
0
  9
$VISRETAIN
 70
1
  9
$PLINEGEN
 70
0
  9
$PSLTSCALE
 70
1
  9
$TREEDEPTH
 70
3020
  9
$CMLSTYLE
  2
Standard
  9
$CMLJUST
 70
0
  9
$CMLSCALE
 40
20.0
  9
$PROXYGRAPHICS
 70
1
  9
$MEASUREMENT
 70
1
  9
$CELWEIGHT
370
-1
  9
$ENDCAPS
280
0
  9
$JOINSTYLE
280
0
  9
$LWDISPLAY
290
0
  9
$INSUNITS
 70
4
  9
$HYPERLINKBASE
  1

  9
$STYLESHEET
  1

  9
$XEDIT
290
1
  9
$CEPSNTYPE
380
0
  9
$PSTYLEMODE
290
1
  9
$FINGERPRINTGUID
  2
{5646FB6D-4677-4981-9AF9-C7AD5C0956E9}
  9
$VERSIONGUID
  2
{ACEAA441-57ED-43FE-A358-EEBB59AE5BDE}
  9
$EXTNAMES
290
1
  9
$PSVPSCALE
 40
0.0
  9
$OLESTARTUP
290
0
  9
$SORTENTS
280
127
  9
$INDEXCTL
280
0
  9
$HIDETEXT
280
1
  9
$XCLIPFRAME
280
1
  9
$HALOGAP
280
0
  9
$OBSCOLOR
 70
257
  9
$OBSLTYPE
280
0
  9
$INTERSECTIONDISPLAY
280
0
  9
$INTERSECTIONCOLOR
 70
257
  9
$DIMASSOC
280
2
  9
$PROJECTNAME
  1

  9
$CAMERADISPLAY
290
0
  9
$LENSLENGTH
 40
50.0
  9
$CAMERAHEIGHT
 40
0.0
  9
$STEPSPERSEC
 40
24.0
  9
$STEPSIZE
 40
100.0
  9
$3DDWFPREC
 40
2.0
  9
$PSOLWIDTH
 40
0.005
  9
$PSOLHEIGHT
 40
0.08
  9
$LOFTANG1
 40
1.570796326795
  9
$LOFTANG2
 40
1.570796326795
  9
$LOFTMAG1
 40
0.0
  9
$LOFTMAG2
 40
0.0
  9
$LOFTPARAM
 70
7
  9
$LOFTNORMALS
280
1
  9
$LATITUDE
 40
37.795
  9
$LONGITUDE
 40
-122.394
  9
$NORTHDIRECTION
 40
0.0
  9
$TIMEZONE
 70
-8000
  9
$LIGHTGLYPHDISPLAY
280
1
  9
$TILEMODELIGHTSYNCH
280
1
  9
$CMATERIAL
347
20
  9
$SOLIDHIST
280
0
  9
$SHOWHIST
280
1
  9
$DWFFRAME
280
2
  9
$DGNFRAME
280
2
  9
$REALWORLDSCALE
290
1
  9
$INTERFERECOLOR
 62
256
  9
$CSHADOW
280
0
  9
$SHADOWPLANELOCATION
 40
0.0
  0
ENDSEC
  0
SECTION
  2
CLASSES
  0
CLASS
  1
ACDBDICTIONARYWDFLT
  2
AcDbDictionaryWithDefault
  3
ObjectDBX Classes
 90
0
 91
0
280
0
281
0
  0
CLASS
  1
SUN
  2
AcDbSun
  3
SCENEOE
 90
1153
 91
0
280
0
281
0
  0
CLASS
  1
VISUALSTYLE
  2
AcDbVisualStyle
  3
ObjectDBX Classes
 90
4095
 91
0
280
0
281
0
  0
CLASS
  1
MATERIAL
  2
AcDbMaterial
  3
ObjectDBX Classes
 90
1153
 91
0
280
0
281
0
  0
CLASS
  1
SCALE
  2
AcDbScale
  3
ObjectDBX Classes
 90
1153
 91
0
280
0
281
0
  0
CLASS
  1
TABLESTYLE
  2
AcDbTableStyle
  3
ObjectDBX Classes
 90
4095
 91
0
280
0
281
0
  0
CLASS
  1
MLEADERSTYLE
  2
AcDbMLeaderStyle
  3
ACDB_MLEADERSTYLE_CLASS
 90
4095
 91
0
280
0
281
0
  0
CLASS
  1
DICTIONARYVAR
  2
AcDbDictionaryVar
  3
ObjectDBX Classes
 90
0
 91
0
280
0
281
0
  0
CLASS
  1
CELLSTYLEMAP
  2
AcDbCellStyleMap
  3
ObjectDBX Classes
 90
1152
 91
0
280
0
281
0
  0
CLASS
  1
MENTALRAYRENDERSETTINGS
  2
AcDbMentalRayRenderSettings
  3
SCENEOE
 90
1024
 91
0
280
0
281
0
  0
CLASS
  1
ACDBDETAILVIEWSTYLE
  2
AcDbDetailViewStyle
  3
ObjectDBX Classes
 90
1025
 91
0
280
0
281
0
  0
CLASS
  1
ACDBSECTIONVIEWSTYLE
  2
AcDbSectionViewStyle
  3
ObjectDBX Classes
 90
1025
 91
0
280
0
281
0
  0
CLASS
  1
RASTERVARIABLES
  2
AcDbRasterVariables
  3
ISM
 90
0
 91
0
280
0
281
0
  0
CLASS
  1
ACDBPLACEHOLDER
  2
AcDbPlaceHolder
  3
ObjectDBX Classes
 90
0
 91
0
280
0
281
0
  0
CLASS
  1
LAYOUT
  2
AcDbLayout
  3
ObjectDBX Classes
 90
0
 91
0
280
0
281
0
  0
ENDSEC
  0
SECTION
  2
TABLES
  0
TABLE
  2
VPORT
  5
8
330
0
100
AcDbSymbolTable
 70
1
  0
VPORT
  5
23
330
8
100
AcDbSymbolTableRecord
100
AcDbViewportTableRecord
  2
*Active
 70
0
 10
0.0
 20
0.0
 11
1.0
 21
1.0
 12
0.0
 22
0.0
 13
0.0
 23
0.0
 14
0.5
 24
0.5
 15
0.5
 25
0.5
 16
0.0
 26
0.0
 36
1.0
 17
0.0
 27
0.0
 37
0.0
 40
1000.0
 41
1.34
 42
50.0
 43
0.0
 44
0.0
 50
0.0
 51
0.0
 71
0
 72
1000
 73
1
 74
3
 75
0
 76
0
 77
0
 78
0
281
0
 65
0
146
0.0
  0
ENDTAB
  0
TABLE
  2
LTYPE
  5
2
330
0
100
AcDbSymbolTable
 70
5
  0
LTYPE
  5
24
330
2
100
AcDbSymbolTableRecord
100
AcDbLinetypeTableRecord
  2
ByBlock
 70
0
  3

 72
65
 73
0
 40
0.0
  0
LTYPE
  5
25
330
2
100
AcDbSymbolTableRecord
100
AcDbLinetypeTableRecord
  2
ByLayer
 70
0
  3

 72
65
 73
0
 40
0.0
  0
LTYPE
  5
26
330
2
100
AcDbSymbolTableRecord
100
AcDbLinetypeTableRecord
  2
Continuous
 70
0
  3

 72
65
 73
0
 40
0.0
  0
LTYPE
  5
191
330
2
100
AcDbSymbolTableRecord
100
AcDbLinetypeTableRecord
  2
HIDDEN2
 70
0
  3
Hidden (.5x) _ _ _ _ _ _ _ _ _ _ _ _ _ _ _ _ _
 72
65
 73
2
 40
4.762499999999998
 49
3.174999999999998
 74
0
 49
-1.587499999999999
 74
0
  0
LTYPE
  5
192
330
2
100
AcDbSymbolTableRecord
100
AcDbLinetypeTableRecord
  2
HIDDENX2
 70
0
  3
Hidden (2x) ____ ____ ____ ____ ____ ____ ____
 72
65
 73
2
 40
19.05
 49
12.7
 74
0
 49
-6.349999999999999
 74
0
  0
ENDTAB
  0
TABLE
  2
LAYER
  5
1
330
0
100
AcDbSymbolTable
 70
5
  0
LAYER
  5
27
330
1
100
AcDbSymbolTableRecord
100
AcDbLayerTableRecord
  2
0
 70
0
 62
7
  6
Continuous
370
-3
390
13
347
21
  0
LAYER
  5
28
330
1
100
AcDbSymbolTableRecord
100
AcDbLayerTableRecord
  2
Defpoints
 70
0
 62
7
  6
Continuous
290
0
370
-3
390
13
347
21
  0
LAYER
  5
18E
330
1
100
AcDbSymbolTableRecord
100
AcDbLayerTableRecord
  2
BAOCHAY
 70
0
 62
1
  6
Continuous
370
-3
390
13
347
21
  0
LAYER
  5
18F
330
1
100
AcDbSymbolTableRecord
100
AcDbLayerTableRecord
  2
S-CONCRETE
 70
0
 62
3
  6
Continuous
370
5
390
13
347
21
  0
LAYER
  5
190
330
1
100
AcDbSymbolTableRecord
100
AcDbLayerTableRecord
  2
DIM
 70
0
 62
253
  6
Continuous
370
-3
390
13
347
21
  0
ENDTAB
  0
TABLE
  2
STYLE
  5
5
330
0
100
AcDbSymbolTable
 70
3
  0
STYLE
  5
29
330
5
100
AcDbSymbolTableRecord
100
AcDbTextStyleTableRecord
  2
Standard
 70
0
 40
0.0
 41
1.0
 50
0.0
 71
0
 42
2.5
  3
txt
  4

  0
STYLE
  5
193
330
5
100
AcDbSymbolTableRecord
100
AcDbTextStyleTableRecord
  2
Tahoma (Input Text)
 70
0
 40
0.0
 41
1.0
 50
0.0
 71
0
 42
25.0
  3
tahoma.ttf
  4

  0
STYLE
  5
194
330
5
100
AcDbSymbolTableRecord
100
AcDbTextStyleTableRecord
  2
Arial
 70
0
 40
0.0
 41
1.0
 50
0.0
 71
0
 42
0.2
  3
arial.ttf
  4

  0
ENDTAB
  0
TABLE
  2
VIEW
  5
7
330
0
100
AcDbSymbolTable
 70
0
  0
ENDTAB
  0
TABLE
  2
UCS
  5
6
330
0
100
AcDbSymbolTable
 70
0
  0
ENDTAB
  0
TABLE
  2
APPID
  5
3
330
0
100
AcDbSymbolTable
 70
3
  0
APPID
  5
2A
330
3
100
AcDbSymbolTableRecord
100
AcDbRegAppTableRecord
  2
ACAD
 70
0
  0
APPID
  5
199
330
3
100
AcDbSymbolTableRecord
100
AcDbRegAppTableRecord
  2
HATCHBACKGROUNDCOLOR
 70
0
  0
APPID
  5
19A
330
3
100
AcDbSymbolTableRecord
100
AcDbRegAppTableRecord
  2
EZDXF
 70
0
  0
ENDTAB
  0
TABLE
  2
DIMSTYLE
  5
4
330
0
100
AcDbSymbolTable
 70
3
100
AcDbDimStyleTable
  0
DIMSTYLE
105
2B
330
4
100
AcDbSymbolTableRecord
100
AcDbDimStyleTableRecord
  2
Standard
 70
0
 40
1.0
 41
2.5
 42
0.625
 43
3.75
 44
1.25
 45
0.0
 46
0.0
 47
0.0
 48
0.0
 49
2.5
140
2.5
141
2.5
142
0.0
143
0.03937007874
144
1.0
145
0.0
146
1.0
147
0.625
148
0.0
 69
0
 70
0
 71
0
 72
0
 73
0
 74
0
 75
0
 76
0
 77
1
 78
8
 79
3
170
0
171
3
172
1
173
0
174
0
175
0
176
0
177
0
178
0
179
2
271
2
272
2
273
2
274
3
275
0
276
0
277
2
278
44
279
0
280
0
281
0
282
0
283
0
284
8
285
0
286
0
288
0
289
3
290
0
371
-2
372
-2
  0
DIMSTYLE
105
18C
330
4
100
AcDbSymbolTableRecord
100
AcDbDimStyleTableRecord
  2
CNC
 70
0
 40
1.0
 41
5.0
 42
15.0
 43
3.75
 44
5.0
 45
0.0
 46
0.0
 47
0.0
 48
0.0
 49
2.5
140
50.0
141
10.0
142
0.0
143
0.03937007874016
144
1.0
145
0.0
146
1.0
147
10.0
148
0.0
 69
0
 70
0
 71
0
 72
0
 73
0
 74
0
 75
0
 76
0
 77
1
 78
8
 79
3
170
0
171
3
172
1
173
0
174
0
175
0
176
5
177
5
178
3
179
2
271
0
272
0
273
2
274
3
275
0
276
0
277
2
278
44
279
0
280
0
281
0
282
0
283
0
284
8
285
0
286
0
288
0
289
3
290
0
340
29
341
195
342
3E
345
25
346
25
347
25
371
9
372
9
  0
DIMSTYLE
105
18D
330
4
100
AcDbSymbolTableRecord
100
AcDbDimStyleTableRecord
  2
Dim-25
 70
0
 40
1.0
 41
8.0
 42
15.0
 43
3.75
 44
10.0
 45
0.0
 46
0.0
 47
0.0
 48
0.0
 49
2.5
140
25.0
141
10.0
142
0.0
143
0.03937007874016
144
1.0
145
0.0
146
1.0
147
10.0
148
0.0
 69
0
 70
0
 71
0
 72
0
 73
0
 74
0
 75
0
 76
0
 77
1
 78
8
 79
3
170
0
171
3
172
1
173
0
174
0
175
0
176
5
177
5
178
3
179
2
271
0
272
0
273
2
274
3
275
0
276
0
277
2
278
44
279
0
280
0
281
0
282
0
283
0
284
8
285
0
286
0
288
0
289
3
290
0
340
29
341
4D
342
4D
345
25
346
25
347
25
371
9
372
9
  0
ENDTAB
  0
TABLE
  2
BLOCK_RECORD
  5
9
330
0
100
AcDbSymbolTable
 70
28
  0
BLOCK_RECORD
  5
17
330
9
100
AcDbSymbolTableRecord
100
AcDbBlockTableRecord
  2
*Model_Space
340
1A
 70
0
280
1
281
0
  0
BLOCK_RECORD
  5
1B
330
9
100
AcDbSymbolTableRecord
100
AcDbBlockTableRecord
  2
*Paper_Space
340
1E
 70
0
280
1
281
0
  0
BLOCK_RECORD
  5
3E
330
9
100
AcDbSymbolTableRecord
100
AcDbBlockTableRecord
  2
_Open30
340
0
 70
0
280
1
281
0
  0
BLOCK_RECORD
  5
4D
330
9
100
AcDbSymbolTableRecord
100
AcDbBlockTableRecord
  2
_Oblique
340
0
 70
0
280
1
281
0
  0
BLOCK_RECORD
  5
101
330
9
100
AcDbSymbolTableRecord
100
AcDbBlockTableRecord
  2
khungtenAsean2
340
0
 70
0
280
1
281
0
  0
BLOCK_RECORD
  5
125
330
9
100
AcDbSymbolTableRecord
100
AcDbBlockTableRecord
  2
HL003-2-2
340
0
 70
0
280
1
281
0
  0
BLOCK_RECORD
  5
12F
330
9
100
AcDbSymbolTableRecord
100
AcDbBlockTableRecord
  2
HL003-2-3
340
0
 70
0
280
1
281
0
  0
BLOCK_RECORD
  5
144
330
9
100
AcDbSymbolTableRecord
100
AcDbBlockTableRecord
  2
khoado
340
0
 70
0
280
1
281
0
  0
BLOCK_RECORD
  5
156
330
9
100
AcDbSymbolTableRecord
100
AcDbBlockTableRecord
  2
gg
340
0
 70
0
280
1
281
0
  0
BLOCK_RECORD
  5
195
330
9
100
AcDbSymbolTableRecord
100
AcDbBlockTableRecord
  2
_ArchTick
340
0
 70
0
280
1
281
0
  0
BLOCK_RECORD
  5
1AA
330
9
100
AcDbSymbolTableRecord
100
AcDbBlockTableRecord
  2
*D1
340
0
 70
0
280
1
281
0
  0
BLOCK_RECORD
  5
1BA
330
9
100
AcDbSymbolTableRecord
100
AcDbBlockTableRecord
  2
*D2
340
0
 70
0
280
1
281
0
  0
BLOCK_RECORD
  5
1CA
330
9
100
AcDbSymbolTableRecord
100
AcDbBlockTableRecord
  2
*D3
340
0
 70
0
280
1
281
0
  0
BLOCK_RECORD
  5
1D6
330
9
100
AcDbSymbolTableRecord
100
AcDbBlockTableRecord
  2
*D4
340
0
 70
0
280
1
281
0
  0
BLOCK_RECORD
  5
1E2
330
9
100
AcDbSymbolTableRecord
100
AcDbBlockTableRecord
  2
*D5
340
0
 70
0
280
1
281
0
  0
BLOCK_RECORD
  5
1F2
330
9
100
AcDbSymbolTableRecord
100
AcDbBlockTableRecord
  2
*D6
340
0
 70
0
280
1
281
0
  0
BLOCK_RECORD
  5
202
330
9
100
AcDbSymbolTableRecord
100
AcDbBlockTableRecord
  2
*D7
340
0
 70
0
280
1
281
0
  0
BLOCK_RECORD
  5
212
330
9
100
AcDbSymbolTableRecord
100
AcDbBlockTableRecord
  2
*D8
340
0
 70
0
280
1
281
0
  0
BLOCK_RECORD
  5
222
330
9
100
AcDbSymbolTableRecord
100
AcDbBlockTableRecord
  2
*D9
340
0
 70
0
280
1
281
0
  0
BLOCK_RECORD
  5
22E
330
9
100
AcDbSymbolTableRecord
100
AcDbBlockTableRecord
  2
*D10
340
0
 70
0
280
1
281
0
  0
BLOCK_RECORD
  5
23A
330
9
100
AcDbSymbolTableRecord
100
AcDbBlockTableRecord
  2
*D11
340
0
 70
0
280
1
281
0
  0
BLOCK_RECORD
  5
246
330
9
100
AcDbSymbolTableRecord
100
AcDbBlockTableRecord
  2
*D12
340
0
 70
0
280
1
281
0
  0
BLOCK_RECORD
  5
252
330
9
100
AcDbSymbolTableRecord
100
AcDbBlockTableRecord
  2
*D13
340
0
 70
0
280
1
281
0
  0
BLOCK_RECORD
  5
25E
330
9
100
AcDbSymbolTableRecord
100
AcDbBlockTableRecord
  2
*D14
340
0
 70
0
280
1
281
0
  0
BLOCK_RECORD
  5
26E
330
9
100
AcDbSymbolTableRecord
100
AcDbBlockTableRecord
  2
*D15
340
0
 70
0
280
1
281
0
  0
BLOCK_RECORD
  5
27E
330
9
100
AcDbSymbolTableRecord
100
AcDbBlockTableRecord
  2
*D16
340
0
 70
0
280
1
281
0
  0
BLOCK_RECORD
  5
28A
330
9
100
AcDbSymbolTableRecord
100
AcDbBlockTableRecord
  2
*D17
340
0
 70
0
280
1
281
0
  0
BLOCK_RECORD
  5
296
330
9
100
AcDbSymbolTableRecord
100
AcDbBlockTableRecord
  2
*D18
340
0
 70
0
280
1
281
0
  0
ENDTAB
  0
ENDSEC
  0
SECTION
  2
BLOCKS
  0
BLOCK
  5
18
330
17
100
AcDbEntity
  8
0
100
AcDbBlockBegin
  2
*Model_Space
 70
0
 10
0.0
 20
0.0
 30
0.0
  3
*Model_Space
  1

  0
ENDBLK
  5
19
330
17
100
AcDbEntity
  8
0
100
AcDbBlockEnd
  0
BLOCK
  5
1C
330
1B
100
AcDbEntity
  8
0
100
AcDbBlockBegin
  2
*Paper_Space
 70
0
 10
0.0
 20
0.0
 30
0.0
  3
*Paper_Space
  1

  0
ENDBLK
  5
1D
330
1B
100
AcDbEntity
  8
0
100
AcDbBlockEnd
  0
BLOCK
  5
3F
330
3E
100
AcDbEntity
  8
0
100
AcDbBlockBegin
  2
_Open30
 70
0
 10
0.0
 20
0.0
 30
0.0
  3
_Open30
  1

  0
LINE
  5
41
330
3E
100
AcDbEntity
  8
0
  6
ByBlock
 62
0
370
-2
100
AcDbLine
 10
-1.0
 20
0.26794919
 30
0.0
 11
0.0
 21
0.0
 31
0.0
  0
LINE
  5
42
330
3E
100
AcDbEntity
  8
0
  6
ByBlock
 62
0
370
-2
100
AcDbLine
 10
0.0
 20
0.0
 30
0.0
 11
-1.0
 21
-0.26794919
 31
0.0
  0
LINE
  5
43
330
3E
100
AcDbEntity
  8
0
  6
ByBlock
 62
0
370
-2
100
AcDbLine
 10
0.0
 20
0.0
 30
0.0
 11
-1.0
 21
0.0
 31
0.0
  0
ENDBLK
  5
40
330
3E
100
AcDbEntity
  8
0
100
AcDbBlockEnd
  0
BLOCK
  5
4E
330
4D
100
AcDbEntity
  8
0
100
AcDbBlockBegin
  2
_Oblique
 70
0
 10
0.0
 20
0.0
 30
0.0
  3
_Oblique
  1

  0
LINE
  5
50
330
4D
100
AcDbEntity
  8
0
  6
ByBlock
 62
0
370
-2
100
AcDbLine
 10
-0.5
 20
-0.5
 30
0.0
 11
0.5
 21
0.5
 31
0.0
  0
ENDBLK
  5
4F
330
4D
100
AcDbEntity
  8
0
100
AcDbBlockEnd
  0
BLOCK
  5
102
330
101
100
AcDbEntity
  8
0
100
AcDbBlockBegin
  2
khungtenAsean2
 70
2
 10
0.0
 20
0.0
 30
0.0
  3
khungtenAsean2
  1

  0
LWPOLYLINE
  5
104
330
101
100
AcDbEntity
  8
0
 62
7
100
AcDbPolyline
 90
4
 70
1
 10
0.0
 20
0.0
 10
2970.000000000422
 20
0.0
 10
2970.000000000422
 20
-2100.00000000032
 10
0.0
 20
-2100.00000000032
  0
LINE
  5
105
330
101
100
AcDbEntity
  8
0
 62
7
100
AcDbLine
 10
2020.0
 20
-2040.00000000032
 30
0.0
 11
0.0
 21
-2040.00000000032
 31
0.0
  0
LINE
  5
106
330
101
100
AcDbEntity
  8
0
 62
7
100
AcDbLine
 10
2970.000000000422
 20
-1980.00000000032
 30
0.0
 11
0.0
 21
-1980.00000000032
 31
0.0
  0
LINE
  5
107
330
101
100
AcDbEntity
  8
0
 62
7
100
AcDbLine
 10
320.0
 20
-1980.00000000032
 30
0.0
 11
320.0
 21
-2100.00000000032
 31
0.0
  0
LINE
  5
108
330
101
100
AcDbEntity
  8
0
 62
7
100
AcDbLine
 10
890.0
 20
-1980.00000000032
 30
0.0
 11
890.0
 21
-2100.00000000032
 31
0.0
  0
LINE
  5
109
330
101
100
AcDbEntity
  8
0
 62
7
100
AcDbLine
 10
1680.0
 20
-1980.00000000032
 30
0.0
 11
1680.0
 21
-2100.00000000032
 31
0.0
  0
LINE
  5
10A
330
101
100
AcDbEntity
  8
0
 62
7
100
AcDbLine
 10
2020.0
 20
-1980.00000000032
 30
0.0
 11
2020.0
 21
-2100.00000000032
 31
0.0
  0
LINE
  5
10B
330
101
100
AcDbEntity
  8
0
 62
7
100
AcDbLine
 10
2860.000000000422
 20
-1980.00000000032
 30
0.0
 11
2860.000000000422
 21
-2100.00000000032
 31
0.0
  0
MTEXT
  5
10C
330
101
100
AcDbEntity
  8
0
 62
2
100
AcDbMText
 10
0.0
 20
-2010.00000000032
 30
0.0
 40
20.0
 41
917.6339389950801
 46
60.00000000000113
 71
4
 72
5
  1
  Thiết kế :
  7
Arial
  0
MTEXT
  5
10D
330
101
100
AcDbEntity
  8
0
 62
2
100
AcDbMText
 10
0.0
 20
-2070.00000000032
 30
0.0
 40
20.0
 41
917.6339389950801
 46
60.00000000000113
 71
4
 72
5
  1
  CNC :
  7
Arial
  0
MTEXT
  5
10E
330
101
100
AcDbEntity
  8
0
 62
2
100
AcDbMText
 10
320.0
 20
-2010.00000000032
 30
0.0
 40
20.0
 41
917.6339389950801
 46
60.00000000000113
 71
4
 72
5
  1
  Khách hàng :
  7
Arial
  0
MTEXT
  5
10F
330
101
100
AcDbEntity
  8
0
 62
2
100
AcDbMText
 10
320.0
 20
-2070.00000000032
 30
0.0
 40
20.0
 41
917.6339389950801
 46
60.00000000000113
 71
4
 72
5
  1
  Giao hàng :
  7
Arial
  0
MTEXT
  5
110
330
101
100
AcDbEntity
  8
0
 62
2
100
AcDbMText
 10
890.0
 20
-2010.00000000032
 30
0.0
 40
20.0
 41
917.6339389950801
 46
60.00000000000113
 71
4
 72
5
  1
  Tên sản phẩm :
  7
Arial
  0
MTEXT
  5
111
330
101
100
AcDbEntity
  8
0
 62
2
100
AcDbMText
 10
890.0
 20
-2070.00000000032
 30
0.0
 40
20.0
 41
917.6339389950801
 46
60.00000000000113
 71
4
 72
5
  1
  Kích thước :
  7
Arial
  0
MTEXT
  5
112
330
101
100
AcDbEntity
  8
0
 62
2
100
AcDbMText
 10
1680.0
 20
-2010.00000000032
 30
0.0
 40
20.0
 41
917.6339389950801
 46
60.00000000000113
 71
4
 72
5
  1
  Số lượng :
  7
Arial
  0
MTEXT
  5
113
330
101
100
AcDbEntity
  8
0
 62
2
100
AcDbMText
 10
1680.0
 20
-2070.00000000032
 30
0.0
 40
20.0
 41
917.6339389950801
 46
60.00000000000113
 71
4
 72
5
  1
  Loại tôn :
  7
Arial
  0
MTEXT
  5
114
330
101
100
AcDbEntity
  8
0
 62
2
100
AcDbMText
 10
2074.15528161102
 20
-2040.00000000032
 30
0.0
 40
20.0
 41
108.3105632220314
 46
120.0000000000011
 71
5
 72
5
  1
Thông\Ptin :
  7
Arial
  0
MTEXT
  5
115
330
101
100
AcDbEntity
  8
0
 62
2
100
AcDbMText
 10
2915.000000000422
 20
-2010.00000000032
 30
0.0
 40
20.0
 41
110.0000000000065
 46
60.00000000000113
 71
5
 72
5
  1
Tờ
  7
Arial
  0
LINE
  5
116
330
101
100
AcDbEntity
  8
0
 62
7
100
AcDbLine
 10
2128.310563222025
 20
-2005.00000000032
 30
0.0
 11
2128.310563222025
 21
-2075.00000000032
 31
0.0
  0
MTEXT
  5
117
330
101
100
AcDbEntity
  8
0
 62
2
100
AcDbMText
 10
1382.285678836575
 20
-2070.00000000032
 30
0.0
 40
20.0
 41
917.6339389950801
 46
60.00000000000113
 71
4
 72
5
  1
mm
  7
Arial
  0
MTEXT
  5
118
330
101
100
AcDbEntity
  8
0
 62
2
100
AcDbMText
 10
1947.610064813329
 20
-2010.00000000032
 30
0.0
 40
20.0
 41
917.6339389950801
 46
60.00000000000113
 71
4
 72
5
  1
cái
  7
Arial
  0
MTEXT
  5
119
330
101
100
AcDbEntity
  8
0
 62
2
100
AcDbMText
 10
1936.880410494836
 20
-2070.00000000032
 30
0.0
 40
20.0
 41
917.6339389950801
 46
60.00000000000113
 71
4
 72
5
  1
mm
  7
Arial
  0
ATTDEF
  5
11A
330
101
100
AcDbEntity
  8
0
 62
1
100
AcDbText
 10
2883.764212945627
 20
-2067.347800104843
 30
0.0
 40
25.0
  1
......
  7
Tahoma (Input Text)
 72
1
 11
2914.993225705868
 21
-2067.347800104843
 31
0.0
100
AcDbAttributeDefinition
  3
Số trang
  2
#11
 70
8
 71
1
 72
0
 11
2914.993225705868
 21
-2067.347800104843
 31
0.0
  0
ATTDEF
  5
11B
330
101
100
AcDbEntity
  8
0
 62
1
100
AcDbText
 10
2146.716977487464
 20
-2021.275211692002
 30
0.0
 40
25.0
  1
......
  7
Tahoma (Input Text)
100
AcDbAttributeDefinition
  3
Thông tin 1
  2
#09
 70
8
 71
1
 72
0
  0
ATTDEF
  5
11C
330
101
100
AcDbEntity
  8
0
 62
1
100
AcDbText
 10
2146.716977487464
 20
-2081.275211692002
 30
0.0
 40
25.0
  1
......
  7
Tahoma (Input Text)
100
AcDbAttributeDefinition
  3
Thông tin 2
  2
#10
 70
8
 71
1
 72
0
  0
ATTDEF
  5
11D
330
101
100
AcDbEntity
  8
0
 62
1
100
AcDbText
 10
1817.447765733334
 20
-2081.275211692002
 30
0.0
 40
25.0
  1
......
  7
Tahoma (Input Text)
100
AcDbAttributeDefinition
  3
Loại tôn
  2
#08
 70
8
 71
1
 72
0
  0
ATTDEF
  5
11E
330
101
100
AcDbEntity
  8
0
 62
1
100
AcDbText
 10
1834.68151032555
 20
-2021.275211692002
 30
0.0
 40
25.0
  1
......
  7
Tahoma (Input Text)
100
AcDbAttributeDefinition
  3
Số lượng
  2
#07
 70
8
 71
1
 72
0
  0
ATTDEF
  5
11F
330
101
100
AcDbEntity
  8
0
 62
1
100
AcDbText
 10
1065.330889143646
 20
-2081.275211692002
 30
0.0
 40
25.0
  1
......
  7
Tahoma (Input Text)
100
AcDbAttributeDefinition
  3
Kích thước
  2
#06
 70
8
 71
1
 72
0
  0
ATTDEF
  5
120
330
101
100
AcDbEntity
  8
0
 62
1
100
AcDbText
 10
1106.628177122154
 20
-2021.275211692002
 30
0.0
 40
25.0
  1
......
  7
Tahoma (Input Text)
100
AcDbAttributeDefinition
  3
Tên s.phẩm
  2
#05
 70
8
 71
1
 72
0
  0
ATTDEF
  5
121
330
101
100
AcDbEntity
  8
0
 62
1
100
AcDbText
 10
486.1050270054984
 20
-2081.275211692002
 30
0.0
 40
25.0
  1
......
  7
Tahoma (Input Text)
100
AcDbAttributeDefinition
  3
Giao hàng
  2
#04
 70
8
 71
1
 72
0
  0
ATTDEF
  5
122
330
101
100
AcDbEntity
  8
0
 62
1
100
AcDbText
 10
506.5707489467022
 20
-2019.301600489707
 30
0.0
 40
25.0
  1
......
  7
Tahoma (Input Text)
100
AcDbAttributeDefinition
  3
Khách hàng
  2
#03
 70
8
 71
1
 72
0
  0
ATTDEF
  5
123
330
101
100
AcDbEntity
  8
0
 62
1
100
AcDbText
 10
98.45672450316488
 20
-2081.275211692002
 30
0.0
 40
25.0
  1
......
  7
Tahoma (Input Text)
100
AcDbAttributeDefinition
  3
CNC
  2
#02
 70
8
 71
1
 72
0
  0
ATTDEF
  5
124
330
101
100
AcDbEntity
  8
0
 62
1
100
AcDbText
 10
137.0535078375105
 20
-2021.275211692002
 30
0.0
 40
25.0
  1
......
  7
Tahoma (Input Text)
100
AcDbAttributeDefinition
  3
Thiết kế
  2
#01
 70
8
 71
1
 72
0
  0
ENDBLK
  5
103
330
101
100
AcDbEntity
  8
0
100
AcDbBlockEnd
  0
BLOCK
  5
126
330
125
100
AcDbEntity
  8
0
100
AcDbBlockBegin
  2
HL003-2-2
 70
0
 10
0.0
 20
0.0
 30
0.0
  3
HL003-2-2
  1

  0
CIRCLE
  5
128
330
125
100
AcDbEntity
  8
0
 62
1
100
AcDbCircle
 10
8.0
 20
6.0
 30
0.0
 40
3.0
  0
LWPOLYLINE
  5
129
330
125
100
AcDbEntity
  8
0
 62
1
100
AcDbPolyline
 90
4
 70
1
 10
0.0
 20
12.0
 10
16.0
 20
12.0
 10
16.0
 20
0.0
 10
0.0
 20
0.0
  0
LWPOLYLINE
  5
12A
330
125
100
AcDbEntity
  8
0
 62
1
100
AcDbPolyline
 90
6
 70
0
 10
17.0
 20
0.0
 10
17.0
 20
-9.0
 10
0.0
 20
-9.0
 10
0.0
 20
21.0
 10
17.0
 20
21.0
 10
17.0
 20
12.0
  0
LINE
  5
12B
330
125
100
AcDbEntity
  8
0
 62
1
100
AcDbLine
 10
16.0
 20
0.0
 30
0.0
 11
17.0
 21
0.0
 31
0.0
  0
LINE
  5
12C
330
125
100
AcDbEntity
  8
0
 62
1
100
AcDbLine
 10
16.0
 20
12.0
 30
0.0
 11
17.0
 21
12.0
 31
0.0
  0
LINE
  5
12D
330
125
100
AcDbEntity
  8
0
 62
1
100
AcDbLine
 10
15.0
 20
21.0
 30
0.0
 11
15.0
 21
12.0
 31
0.0
  0
LINE
  5
12E
330
125
100
AcDbEntity
  8
0
 62
1
100
AcDbLine
 10
15.0
 20
-9.0
 30
0.0
 11
15.0
 21
1.8e-15
 31
0.0
  0
ENDBLK
  5
127
330
125
100
AcDbEntity
  8
0
100
AcDbBlockEnd
  0
BLOCK
  5
130
330
12F
100
AcDbEntity
  8
0
100
AcDbBlockBegin
  2
HL003-2-3
 70
0
 10
0.0
 20
0.0
 30
0.0
  3
HL003-2-3
  1

  0
LINE
  5
132
330
12F
100
AcDbEntity
  8
0
 62
1
100
AcDbLine
 10
0.0
 20
22.0
 30
0.0
 11
17.0
 21
22.0
 31
0.0
  0
LINE
  5
133
330
12F
100
AcDbEntity
  8
0
 62
1
100
AcDbLine
 10
0.0
 20
20.0
 30
0.0
 11
15.0
 21
20.0
 31
0.0
  0
LINE
  5
134
330
12F
100
AcDbEntity
  8
0
 62
1
100
AcDbLine
 10
17.0
 20
22.0
 30
0.0
 11
17.0
 21
3.0
 31
0.0
  0
LINE
  5
135
330
12F
100
AcDbEntity
  8
0
 62
1
100
AcDbLine
 10
15.0
 20
20.0
 30
0.0
 11
15.0
 21
3.0
 31
0.0
  0
LINE
  5
136
330
12F
100
AcDbEntity
  8
0
 62
1
100
AcDbLine
 10
0.0
 20
20.0
 30
0.0
 11
0.0
 21
22.0
 31
0.0
  0
LINE
  5
137
330
12F
100
AcDbEntity
  8
0
 62
1
100
AcDbLine
 10
4.0
 20
20.0
 30
0.0
 11
4.0
 21
18.0
 31
0.0
  0
LINE
  5
138
330
12F
100
AcDbEntity
  8
0
 62
1
100
AcDbLine
 10
4.0
 20
18.0
 30
0.0
 11
0.0
 21
18.0
 31
0.0
  0
CIRCLE
  5
139
330
12F
100
AcDbEntity
  8
0
 62
1
100
AcDbCircle
 10
10.0
 20
16.0
 30
0.0
 40
3.0
  0
LINE
  5
13A
330
12F
100
AcDbEntity
  8
0
 62
1
100
AcDbLine
 10
17.0
 20
3.0
 30
0.0
 11
8.0
 21
3.0
 31
0.0
  0
LINE
  5
13B
330
12F
100
AcDbEntity
  8
0
 62
1
100
AcDbLine
 10
0.0
 20
10.0
 30
0.0
 11
0.0
 21
18.0
 31
0.0
  0
LINE
  5
13C
330
12F
100
AcDbEntity
  8
0
 62
1
100
AcDbLine
 10
0.0
 20
10.0
 30
0.0
 11
8.0
 21
3.0
 31
0.0
  0
LINE
  5
13D
330
12F
100
AcDbEntity
  8
0
 62
1
100
AcDbLine
 10
16.0
 20
3.0
 30
0.0
 11
16.0
 21
0.0
 31
0.0
  0
LINE
  5
13E
330
12F
100
AcDbEntity
  8
0
 62
1
100
AcDbLine
 10
16.0
 20
0.0
 30
0.0
 11
0.0
 21
0.0
 31
0.0
  0
LINE
  5
13F
330
12F
100
AcDbEntity
  8
0
 62
1
100
AcDbLine
 10
0.0
 20
0.0
 30
0.0
 11
0.0
 21
4.0
 31
0.0
  0
LINE
  5
140
330
12F
100
AcDbEntity
  8
0
 62
1
100
AcDbLine
 10
0.0
 20
4.0
 30
0.0
 11
3.428571428579743
 21
7.0
 31
0.0
  0
CIRCLE
  5
141
330
12F
100
AcDbEntity
  8
0
 62
1
100
AcDbCircle
 10
10.0
 20
16.0
 30
0.0
 40
3.0
  0
HATCH
  5
142
330
12F
100
AcDbEntity
  8
0
 62
2
100
AcDbHatch
 10
0.0
 20
0.0
 30
0.0
210
0.0
220
0.0
230
1.0
  2
ANSI31
 70
0
 71
0
 91
1
 92
7
 72
0
 73
1
 93
4
 10
11.0
 20
10.0
 10
5.0
 20
10.0
 10
5.0
 20
0.0
 10
11.0
 20
0.0
 97
0
 75
0
 76
1
 52
0.0
 41
0.5
 77
0
 78
1
 53
45.0
 43
8435.407079138444
 44
86016.96644780628
 45
-1.122532015133643
 46
1.122532015133643
 79
0
 47
0.0298277246703574
 98
1
 10
8.80767606885638
 20
4.97684244980337
  0
LWPOLYLINE
  5
143
330
12F
100
AcDbEntity
  8
0
 62
2
100
AcDbPolyline
 90
4
 70
1
 10
5.0
 20
10.0
 10
11.0
 20
10.0
 10
11.0
 20
0.0
 10
5.0
 20
0.0
  0
ENDBLK
  5
131
330
12F
100
AcDbEntity
  8
0
100
AcDbBlockEnd
  0
BLOCK
  5
145
330
144
100
AcDbEntity
  8
0
100
AcDbBlockBegin
  2
khoado
 70
0
 10
0.0
 20
0.0
 30
0.0
  3
khoado
  1

  0
LINE
  5
147
330
144
100
AcDbEntity
  8
0
 62
1
370
-3
100
AcDbLine
 10
26.99999999994179
 20
0.9999999999781721
 30
0.0
 11
28.00000000011642
 21
-2.18279e-11
 31
0.0
  0
LINE
  5
148
330
144
100
AcDbEntity
  8
0
 62
1
370
-3
100
AcDbLine
 10
13.00000000011641
 20
45.85410196636803
 30
0.0
 11
13.00000000011641
 21
39.14589803372655
 31
0.0
  0
LINE
  5
149
330
144
100
AcDbEntity
  8
0
 62
1
370
-3
100
AcDbLine
 10
15.00000000010186
 20
45.85410196636803
 30
0.0
 11
15.00000000010186
 21
39.14589803372655
 31
0.0
  0
MTEXT
  5
14A
330
144
100
AcDbEntity
  8
0
 62
1
370
-3
100
AcDbMText
 10
13.99999999994179
 20
29.57152855547611
 30
0.0
 40
2.5
 41
15.0
 46
0.0
 71
5
 72
5
  1
{\f.VnArial|b0|i0|c0|p34;PUSH}
  0
LINE
  5
14B
330
144
100
AcDbEntity
  8
0
 62
1
370
-3
100
AcDbLine
 10
6.500000000101863
 20
25.44116287013458
 30
0.0
 11
21.49999999994179
 21
25.44116287013458
 31
0.0
  0
LINE
  5
14C
330
144
100
AcDbEntity
  8
0
 62
1
370
-3
100
AcDbLine
 10
6.500000000101863
 20
23.73926862991357
 30
0.0
 11
21.49999999994179
 21
23.73926862991357
 31
0.0
  0
LINE
  5
14D
330
144
100
AcDbEntity
  8
0
 62
1
370
-3
100
AcDbLine
 10
6.500000000101863
 20
22.03737438970711
 30
0.0
 11
21.49999999994179
 21
22.03737438970711
 31
0.0
  0
LINE
  5
14E
330
144
100
AcDbEntity
  8
0
 62
1
370
-3
100
AcDbLine
 10
6.500000000101863
 20
20.33548014936969
 30
0.0
 11
21.49999999994179
 21
20.33548014936969
 31
0.0
  0
LINE
  5
14F
330
144
100
AcDbEntity
  8
0
 62
1
370
-3
100
AcDbLine
 10
6.500000000101863
 20
18.63358590915595
 30
0.0
 11
21.49999999994179
 21
18.63358590915595
 31
0.0
  0
ARC
  5
150
330
144
100
AcDbEntity
  8
0
 62
1
100
AcDbCircle
 10
-38.0
 20
56.0
 30
0.0
 40
4.0
100
AcDbArc
 50
104.5563430055459
 51
270.0
  0
LINE
  5
151
330
144
100
AcDbEntity
  8
0
 62
1
100
AcDbLine
 10
0.0
 20
70.0
 30
0.0
 11
-39.00532772445877
 21
59.87160382353613
 31
0.0
  0
LINE
  5
152
330
144
100
AcDbEntity
  8
0
 62
1
100
AcDbLine
 10
0.0
 20
52.0
 30
0.0
 11
-38.0
 21
52.0
 31
0.0
  0
ARC
  5
153
330
144
100
AcDbEntity
  8
0
  6
HIDDEN2
 62
1
100
AcDbCircle
 10
-14.0
 20
12.0
 30
0.0
 40
4.0
100
AcDbArc
 50
146.782334932432
 51
312.2259919269746
  0
LINE
  5
154
330
144
100
AcDbEntity
  8
0
  6
HIDDEN2
 62
1
100
AcDbLine
 10
0.0
 20
40.68150559886999
 30
0.0
 11
-17.34638181004266
 21
14.19128473308228
 31
0.0
  0
LINE
  5
155
330
144
100
AcDbEntity
  8
0
  6
HIDDEN2
 62
1
100
AcDbLine
 10
0.0
 20
19.30424528071307
 30
0.0
 11
-11.31177367089549
 21
9.038000809669027
 31
0.0
  0
ENDBLK
  5
146
330
144
100
AcDbEntity
  8
0
100
AcDbBlockEnd
  0
BLOCK
  5
157
330
156
100
AcDbEntity
  8
0
100
AcDbBlockBegin
  2
gg
 70
0
 10
0.0
 20
0.0
 30
0.0
  3
gg
  1

  0
ARC
  5
159
330
156
100
AcDbEntity
  8
BAOCHAY
 62
7
 48
2000.0
100
AcDbCircle
 10
-10836.60281779594
 20
-34154.34228962194
 30
0.0
 40
1.080449368030645
100
AcDbArc
 50
180.0
 51
270.0
  0
ARC
  5
15A
330
156
100
AcDbEntity
  8
BAOCHAY
 62
7
 48
2000.0
100
AcDbCircle
 10
-10836.60281779594
 20
-34154.34228962194
 30
0.0
 40
1.080449368030645
100
AcDbArc
 50
90.0
 51
180.0
  0
ARC
  5
15B
330
156
100
AcDbEntity
  8
BAOCHAY
 62
7
 48
2000.0
100
AcDbCircle
 10
-10834.44191905833
 20
-34159.20431177807
 30
0.0
 40
2.160898736061288
100
AcDbArc
 50
180.0
 51
270.0
  0
LINE
  5
15C
330
156
100
AcDbEntity
  8
BAOCHAY
 62
7
 48
2000.0
100
AcDbLine
 10
-10836.60281779594
 20
-34155.42273899005
 30
0.0
 11
-10836.60281779594
 21
-34159.20431177807
 31
0.0
  0
LINE
  5
15D
330
156
100
AcDbEntity
  8
BAOCHAY
 62
7
 48
2000.0
100
AcDbLine
 10
-10807.22902549966
 20
-34154.34228962194
 30
0.0
 11
-10807.22902549966
 21
-34154.34228962194
 31
0.0
  0
ARC
  5
15E
330
156
100
AcDbEntity
  8
BAOCHAY
 62
7
 48
2000.0
100
AcDbCircle
 10
-10808.30947486846
 20
-34154.34228962194
 30
0.0
 40
1.080449368030645
100
AcDbArc
 50
270.0
 51
7e-15
  0
ARC
  5
15F
330
156
100
AcDbEntity
  8
BAOCHAY
 62
7
 48
2000.0
100
AcDbCircle
 10
-10808.30947486846
 20
-34154.34228962194
 30
0.0
 40
1.080449368030645
100
AcDbArc
 50
7e-15
 51
90.0
  0
LINE
  5
160
330
156
100
AcDbEntity
  8
BAOCHAY
 62
7
 48
2000.0
100
AcDbLine
 10
-10808.30947486846
 20
-34155.42273899005
 30
0.0
 11
-10808.30947486846
 21
-34159.20431177807
 31
0.0
  0
ARC
  5
161
330
156
100
AcDbEntity
  8
BAOCHAY
 62
7
 48
2000.0
100
AcDbCircle
 10
-10810.47037360421
 20
-34159.20431177807
 30
0.0
 40
2.160898736061288
100
AcDbArc
 50
270.0
 51
7e-15
  0
LINE
  5
162
330
156
100
AcDbEntity
  8
BAOCHAY
 62
7
 48
2000.0
100
AcDbLine
 10
-10808.30947486846
 20
-34153.26184025384
 30
0.0
 11
-10836.60281779594
 21
-34153.26184025384
 31
0.0
  0
LINE
  5
163
330
156
100
AcDbEntity
  8
BAOCHAY
 62
7
 48
2000.0
100
AcDbLine
 10
-10810.47037360421
 20
-34161.36521051428
 30
0.0
 11
-10834.44191905833
 21
-34161.36521051428
 31
0.0
  0
LINE
  5
164
330
156
100
AcDbEntity
  8
BAOCHAY
 62
7
 48
2000.0
100
AcDbLine
 10
-10808.30947486846
 20
-34155.42273899005
 30
0.0
 11
-10836.60281779594
 21
-34155.42273899005
 31
0.0
  0
LINE
  5
165
330
156
100
AcDbEntity
  8
BAOCHAY
 62
7
 48
2000.0
100
AcDbLine
 10
-10817.05389949097
 20
-34203.16696149064
 30
0.0
 11
-10811.65165265067
 21
-34161.36521051428
 31
0.0
  0
LINE
  5
166
330
156
100
AcDbEntity
  8
BAOCHAY
 62
7
 48
2000.0
100
AcDbLine
 10
-10827.85839317157
 20
-34203.16696149064
 30
0.0
 11
-10833.26064001187
 21
-34161.36521051428
 31
0.0
  0
LINE
  5
167
330
156
100
AcDbEntity
  8
BAOCHAY
 62
7
 48
2000.0
100
AcDbLine
 10
-10844.06513369246
 20
-34052.23982434324
 30
0.0
 11
-10844.06513369246
 21
-34049.26858858089
 31
0.0
  0
LINE
  5
168
330
156
100
AcDbEntity
  8
BAOCHAY
 62
7
 48
2000.0
100
AcDbLine
 10
-10842.98468432366
 20
-34058.72252055118
 30
0.0
 11
-10842.98468432366
 21
-34053.32027371112
 31
0.0
  0
LINE
  5
169
330
156
100
AcDbEntity
  8
BAOCHAY
 62
7
 48
2000.0
100
AcDbLine
 10
-10844.06513369246
 20
-34049.26858858089
 30
0.0
 11
-10847.84670648048
 21
-34049.26858858089
 31
0.0
  0
LINE
  5
16A
330
156
100
AcDbEntity
  8
BAOCHAY
 62
7
 48
2000.0
100
AcDbLine
 10
-10847.84670648048
 20
-34049.26858858089
 30
0.0
 11
-10842.98468432366
 21
-34058.72252055118
 31
0.0
  0
ARC
  5
16B
330
156
100
AcDbEntity
  8
BAOCHAY
 62
7
 48
2000.0
100
AcDbCircle
 10
-10842.98468432366
 20
-34052.23982434324
 30
0.0
 40
1.080449368030645
100
AcDbArc
 50
180.0
 51
270.0
  0
LINE
  5
16C
330
156
100
AcDbEntity
  8
BAOCHAY
 62
7
 48
2000.0
100
AcDbLine
 10
-10844.06513369246
 20
-34041.97555534681
 30
0.0
 11
-10846.22603242821
 21
-34041.97555534681
 31
0.0
  0
LINE
  5
16D
330
156
100
AcDbEntity
  8
BAOCHAY
 62
7
 48
2000.0
100
AcDbLine
 10
-10843.79502135026
 20
-34059.53285757732
 30
0.0
 11
-10843.79502135026
 21
-34059.53285757732
 31
0.0
  0
ARC
  5
16E
330
156
100
AcDbEntity
  8
BAOCHAY
 62
7
 48
2000.0
100
AcDbCircle
 10
-10842.98468432366
 20
-34059.53285757732
 30
0.0
 40
0.8103370260229841
100
AcDbArc
 50
180.0
 51
270.0
  0
ARC
  5
16F
330
156
100
AcDbEntity
  8
BAOCHAY
 62
7
 48
2000.0
100
AcDbCircle
 10
-10842.98468432366
 20
-34059.53285757732
 30
0.0
 40
0.8103370260229841
100
AcDbArc
 50
90.0
 51
180.0
  0
LINE
  5
170
330
156
100
AcDbEntity
  8
BAOCHAY
 62
7
 48
2000.0
100
AcDbLine
 10
-10801.92760833888
 20
-34053.32027371112
 30
0.0
 11
-10842.98468432366
 21
-34053.32027371112
 31
0.0
  0
LINE
  5
171
330
156
100
AcDbEntity
  8
BAOCHAY
 62
7
 48
2000.0
100
AcDbLine
 10
-10801.92760833888
 20
-34058.72252055118
 30
0.0
 11
-10842.98468432366
 21
-34058.72252055118
 31
0.0
  0
LINE
  5
172
330
156
100
AcDbEntity
  8
BAOCHAY
 62
7
 48
2000.0
100
AcDbLine
 10
-10801.92760833888
 20
-34060.34319460322
 30
0.0
 11
-10842.98468432366
 21
-34060.34319460322
 31
0.0
  0
LINE
  5
173
330
156
100
AcDbEntity
  8
BAOCHAY
 62
7
 48
2000.0
100
AcDbLine
 10
-10798.68626023526
 20
-34045.2169034509
 30
0.0
 11
-10846.22603242821
 21
-34045.2169034509
 31
0.0
  0
LINE
  5
174
330
156
100
AcDbEntity
  8
BAOCHAY
 62
7
 48
2000.0
100
AcDbLine
 10
-10811.65165265067
 20
-34153.26184025384
 30
0.0
 11
-10806.28063267073
 21
-34060.34319460322
 31
0.0
  0
LINE
  5
175
330
156
100
AcDbEntity
  8
BAOCHAY
 62
7
 48
2000.0
100
AcDbLine
 10
-10833.26064001187
 20
-34153.26184025384
 30
0.0
 11
-10838.6316599918
 21
-34060.34319460322
 31
0.0
  0
LINE
  5
176
330
156
100
AcDbEntity
  8
BAOCHAY
 62
7
 48
2000.0
100
AcDbLine
 10
-10844.06513369246
 20
-34039.8146566106
 30
0.0
 11
-10847.84670648048
 21
-34039.8146566106
 31
0.0
  0
LINE
  5
177
330
156
100
AcDbEntity
  8
BAOCHAY
 62
7
 48
2000.0
100
AcDbLine
 10
-10844.06513369246
 20
-34041.97555534681
 30
0.0
 11
-10844.06513369246
 21
-34039.8146566106
 31
0.0
  0
ARC
  5
178
330
156
100
AcDbEntity
  8
BAOCHAY
 62
7
 48
2000.0
100
AcDbCircle
 10
-10847.84670647955
 20
-34047.64791452885
 30
0.0
 40
1.620674052045968
100
AcDbArc
 50
180.0
 51
270.0
  0
ARC
  5
179
330
156
100
AcDbEntity
  8
BAOCHAY
 62
7
 48
2000.0
100
AcDbCircle
 10
-10847.84670647955
 20
-34041.43533066264
 30
0.0
 40
1.620674052045968
100
AcDbArc
 50
90.0
 51
180.0
  0
LINE
  5
17A
330
156
100
AcDbEntity
  8
BAOCHAY
 62
7
 48
2000.0
100
AcDbLine
 10
-10849.4673805309
 20
-34047.64791452885
 30
0.0
 11
-10849.4673805309
 21
-34041.43533066264
 31
0.0
  0
LINE
  5
17B
330
156
100
AcDbEntity
  8
BAOCHAY
 62
7
 48
2000.0
100
AcDbLine
 10
-10846.22603242821
 20
-34045.2169034509
 30
0.0
 11
-10846.22603242821
 21
-34041.97555534681
 31
0.0
  0
LINE
  5
17C
330
156
100
AcDbEntity
  8
BAOCHAY
 62
7
 48
2000.0
100
AcDbLine
 10
-10800.84715897101
 20
-34052.23982434324
 30
0.0
 11
-10800.84715897101
 21
-34049.26858858089
 31
0.0
  0
LINE
  5
17D
330
156
100
AcDbEntity
  8
BAOCHAY
 62
7
 48
2000.0
100
AcDbLine
 10
-10801.92760833981
 20
-34058.72252055118
 30
0.0
 11
-10801.92760833981
 21
-34053.32027371112
 31
0.0
  0
LINE
  5
17E
330
156
100
AcDbEntity
  8
BAOCHAY
 62
7
 48
2000.0
100
AcDbLine
 10
-10800.84715897101
 20
-34049.26858858089
 30
0.0
 11
-10797.06558618299
 21
-34049.26858858089
 31
0.0
  0
LINE
  5
17F
330
156
100
AcDbEntity
  8
BAOCHAY
 62
7
 48
2000.0
100
AcDbLine
 10
-10797.06558618299
 20
-34049.26858858089
 30
0.0
 11
-10801.92760833981
 21
-34058.72252055118
 31
0.0
  0
ARC
  5
180
330
156
100
AcDbEntity
  8
BAOCHAY
 62
7
 48
2000.0
100
AcDbCircle
 10
-10801.92760833981
 20
-34052.23982434324
 30
0.0
 40
1.080449368030645
100
AcDbArc
 50
270.0
 51
7e-15
  0
LINE
  5
181
330
156
100
AcDbEntity
  8
BAOCHAY
 62
7
 48
2000.0
100
AcDbLine
 10
-10800.84715897101
 20
-34041.97555534681
 30
0.0
 11
-10798.68626023526
 21
-34041.97555534681
 31
0.0
  0
LINE
  5
182
330
156
100
AcDbEntity
  8
BAOCHAY
 62
7
 48
2000.0
100
AcDbLine
 10
-10801.11727131321
 20
-34059.53285757732
 30
0.0
 11
-10801.11727131321
 21
-34059.53285757732
 31
0.0
  0
ARC
  5
183
330
156
100
AcDbEntity
  8
BAOCHAY
 62
7
 48
2000.0
100
AcDbCircle
 10
-10801.92760833981
 20
-34059.53285757732
 30
0.0
 40
0.8103370260229841
100
AcDbArc
 50
270.0
 51
7e-15
  0
ARC
  5
184
330
156
100
AcDbEntity
  8
BAOCHAY
 62
7
 48
2000.0
100
AcDbCircle
 10
-10801.92760833981
 20
-34059.53285757732
 30
0.0
 40
0.8103370260229841
100
AcDbArc
 50
7e-15
 51
90.0
  0
LINE
  5
185
330
156
100
AcDbEntity
  8
BAOCHAY
 62
7
 48
2000.0
100
AcDbLine
 10
-10800.84715897101
 20
-34039.8146566106
 30
0.0
 11
-10797.06558618299
 21
-34039.8146566106
 31
0.0
  0
LINE
  5
186
330
156
100
AcDbEntity
  8
BAOCHAY
 62
7
 48
2000.0
100
AcDbLine
 10
-10800.84715897101
 20
-34041.97555534681
 30
0.0
 11
-10800.84715897101
 21
-34039.8146566106
 31
0.0
  0
ARC
  5
187
330
156
100
AcDbEntity
  8
BAOCHAY
 62
7
 48
2000.0
100
AcDbCircle
 10
-10797.06558618392
 20
-34047.64791452885
 30
0.0
 40
1.620674052045968
100
AcDbArc
 50
270.0
 51
7e-15
  0
ARC
  5
188
330
156
100
AcDbEntity
  8
BAOCHAY
 62
7
 48
2000.0
100
AcDbCircle
 10
-10797.06558618392
 20
-34041.43533066264
 30
0.0
 40
1.620674052045968
100
AcDbArc
 50
7e-15
 51
90.0
  0
LINE
  5
189
330
156
100
AcDbEntity
  8
BAOCHAY
 62
7
 48
2000.0
100
AcDbLine
 10
-10795.44491213257
 20
-34047.64791452885
 30
0.0
 11
-10795.44491213257
 21
-34041.43533066264
 31
0.0
  0
LINE
  5
18A
330
156
100
AcDbEntity
  8
BAOCHAY
 62
7
 48
2000.0
100
AcDbLine
 10
-10798.68626023526
 20
-34045.2169034509
 30
0.0
 11
-10798.68626023526
 21
-34041.97555534681
 31
0.0
  0
LINE
  5
18B
330
156
100
AcDbEntity
  8
0
 62
7
100
AcDbLine
 10
-10817.05389949097
 20
-34203.16696149064
 30
0.0
 11
-10827.85839317157
 21
-34203.16696149064
 31
0.0
  0
ENDBLK
  5
158
330
156
100
AcDbEntity
  8
0
100
AcDbBlockEnd
  0
BLOCK
  5
196
330
195
100
AcDbEntity
  8
0
100
AcDbBlockBegin
  2
_ArchTick
 70
0
 10
0.0
 20
0.0
 30
0.0
  3
_ArchTick
  1

  0
LWPOLYLINE
  5
198
330
195
100
AcDbEntity
  8
0
 62
0
100
AcDbPolyline
 90
2
 70
0
 43
0.15
 10
-0.5
 20
-0.5
 10
0.5
 20
0.5
  0
ENDBLK
  5
197
330
195
100
AcDbEntity
  8
0
100
AcDbBlockEnd
  0
BLOCK
  5
1AB
330
1AA
100
AcDbEntity
  8
0
100
AcDbBlockBegin
  2
*D1
 70
1
 10
0.0
 20
0.0
 30
0.0
  3
*D1
  1

  0
LINE
  5
1AD
330
1AA
100
AcDbEntity
  8
DIM
 62
5
370
9
440
16777216
100
AcDbLine
 10
369.0008495477905
 20
2245.95261389852
 30
0.0
 11
369.0008495477905
 21
2303.9448307932507
 31
0.0
  0
LINE
  5
1AE
330
1AA
100
AcDbEntity
  8
DIM
 62
5
370
9
440
16777216
100
AcDbLine
 10
919.0008495477905
 20
2245.95261389852
 30
0.0
 11
919.0008495477905
 21
2303.9448307932507
 31
0.0
  0
LINE
  5
1AF
330
1AA
100
AcDbEntity
  8
DIM
 62
5
370
9
440
16777216
100
AcDbLine
 10
374.0008495477905
 20
2298.9448307932507
 30
0.0
 11
914.0008495477905
 21
2298.9448307932507
 31
0.0
  0
LINE
  5
1B0
330
1AA
100
AcDbEntity
  8
0
  6
ByBlock
 62
0
370
-2
100
AcDbLine
 10
374.0008495477905
 20
2297.6050848432496
 30
0.0
 11
369.0008495477905
 21
2298.9448307932507
 31
0.0
  0
LINE
  5
1B1
330
1AA
100
AcDbEntity
  8
0
  6
ByBlock
 62
0
370
-2
100
AcDbLine
 10
369.0008495477905
 20
2298.9448307932507
 30
0.0
 11
374.0008495477905
 21
2300.284576743252
 31
0.0
  0
LINE
  5
1B2
330
1AA
100
AcDbEntity
  8
0
  6
ByBlock
 62
0
370
-2
100
AcDbLine
 10
369.0008495477905
 20
2298.9448307932507
 30
0.0
 11
374.0008495477905
 21
2298.9448307932507
 31
0.0
  0
LINE
  5
1B3
330
1AA
100
AcDbEntity
  8
0
  6
ByBlock
 62
0
370
-2
100
AcDbLine
 10
914.0008495477905
 20
2300.284576743252
 30
0.0
 11
919.0008495477905
 21
2298.9448307932507
 31
0.0
  0
LINE
  5
1B4
330
1AA
100
AcDbEntity
  8
0
  6
ByBlock
 62
0
370
-2
100
AcDbLine
 10
919.0008495477905
 20
2298.9448307932507
 30
0.0
 11
914.0008495477905
 21
2297.6050848432496
 31
0.0
  0
LINE
  5
1B5
330
1AA
100
AcDbEntity
  8
0
  6
ByBlock
 62
0
370
-2
100
AcDbLine
 10
919.0008495477905
 20
2298.9448307932507
 30
0.0
 11
914.0008495477905
 21
2298.9448307932507
 31
0.0
  0
MTEXT
  5
1B6
330
1AA
100
AcDbEntity
  8
DIM
 62
3
440
16777216
100
AcDbMText
 10
644.0008495477905
 20
2334.473480179331
 30
0.0
 40
50.0
 41
0.0
 46
0.0
 71
5
  1
550
  0
POINT
  5
1B7
330
1AA
100
AcDbEntity
  8
Defpoints
 62
0
440
16777216
100
AcDbPoint
 10
369.0008495477905
 20
2230.95261389852
 30
0.0
  0
POINT
  5
1B8
330
1AA
100
AcDbEntity
  8
Defpoints
 62
0
440
16777216
100
AcDbPoint
 10
919.0008495477905
 20
2230.95261389852
 30
0.0
  0
POINT
  5
1B9
330
1AA
100
AcDbEntity
  8
Defpoints
 62
0
440
16777216
100
AcDbPoint
 10
919.0008495477905
 20
2298.9448307932507
 30
0.0
  0
ENDBLK
  5
1AC
330
1AA
100
AcDbEntity
  8
0
100
AcDbBlockEnd
  0
BLOCK
  5
1BB
330
1BA
100
AcDbEntity
  8
0
100
AcDbBlockBegin
  2
*D2
 70
1
 10
0.0
 20
0.0
 30
0.0
  3
*D2
  1

  0
LINE
  5
1BD
330
1BA
100
AcDbEntity
  8
DIM
 62
5
370
9
440
16777216
100
AcDbLine
 10
354.0008495477905
 20
2230.95261389852
 30
0.0
 11
291.7613343787398
 21
2230.95261389852
 31
0.0
  0
LINE
  5
1BE
330
1BA
100
AcDbEntity
  8
DIM
 62
5
370
9
440
16777216
100
AcDbLine
 10
354.0008495477905
 20
830.9526138985311
 30
0.0
 11
291.7613343787398
 21
830.9526138985311
 31
0.0
  0
LINE
  5
1BF
330
1BA
100
AcDbEntity
  8
DIM
 62
5
370
9
440
16777216
100
AcDbLine
 10
296.7613343787307
 20
2225.952613898531
 30
0.0
 11
296.7613343787307
 21
835.9526138985202
 31
0.0
  0
LINE
  5
1C0
330
1BA
100
AcDbEntity
  8
0
  6
ByBlock
 62
0
370
-2
100
AcDbLine
 10
295.4215884287314
 20
2225.95261389852
 30
0.0
 11
296.7613343787307
 21
2230.95261389852
 31
0.0
  0
LINE
  5
1C1
330
1BA
100
AcDbEntity
  8
0
  6
ByBlock
 62
0
370
-2
100
AcDbLine
 10
296.7613343787307
 20
2230.95261389852
 30
0.0
 11
298.10108032872995
 21
2225.95261389852
 31
0.0
  0
LINE
  5
1C2
330
1BA
100
AcDbEntity
  8
0
  6
ByBlock
 62
0
370
-2
100
AcDbLine
 10
296.7613343787307
 20
2230.95261389852
 30
0.0
 11
296.7613343787307
 21
2225.95261389852
 31
0.0
  0
LINE
  5
1C3
330
1BA
100
AcDbEntity
  8
0
  6
ByBlock
 62
0
370
-2
100
AcDbLine
 10
298.10108032872995
 20
835.9526138985311
 30
0.0
 11
296.7613343787307
 21
830.9526138985311
 31
0.0
  0
LINE
  5
1C4
330
1BA
100
AcDbEntity
  8
0
  6
ByBlock
 62
0
370
-2
100
AcDbLine
 10
296.7613343787307
 20
830.9526138985311
 30
0.0
 11
295.4215884287314
 21
835.9526138985311
 31
0.0
  0
LINE
  5
1C5
330
1BA
100
AcDbEntity
  8
0
  6
ByBlock
 62
0
370
-2
100
AcDbLine
 10
296.7613343787307
 20
830.9526138985311
 30
0.0
 11
296.7613343787307
 21
835.9526138985311
 31
0.0
  0
MTEXT
  5
1C6
330
1BA
100
AcDbEntity
  8
DIM
 62
3
440
16777216
100
AcDbMText
 10
261.2326849926594
 20
1530.9526138985202
 30
0.0
 40
50.0
 41
0.0
 46
0.0
 71
5
  1
1400
 11
1e-16
 21
1.0
 31
0.0
  0
POINT
  5
1C7
330
1BA
100
AcDbEntity
  8
Defpoints
 62
0
440
16777216
100
AcDbPoint
 10
369.0008495477905
 20
2230.95261389852
 30
0.0
  0
POINT
  5
1C8
330
1BA
100
AcDbEntity
  8
Defpoints
 62
0
440
16777216
100
AcDbPoint
 10
369.0008495477905
 20
830.9526138985311
 30
0.0
  0
POINT
  5
1C9
330
1BA
100
AcDbEntity
  8
Defpoints
 62
0
440
16777216
100
AcDbPoint
 10
296.7613343787307
 20
830.9526138985311
 30
0.0
  0
ENDBLK
  5
1BC
330
1BA
100
AcDbEntity
  8
0
100
AcDbBlockEnd
  0
BLOCK
  5
1CB
330
1CA
100
AcDbEntity
  8
0
100
AcDbBlockBegin
  2
*D3
 70
1
 10
0.0
 20
0.0
 30
0.0
  3
*D3
  1

  0
LINE
  5
1CD
330
1CA
100
AcDbEntity
  8
DIM
 62
5
370
9
440
16777216
100
AcDbLine
 10
369.0008495477905
 20
587.6000502369716
 30
0.0
 11
369.0008495477905
 21
641.5772391459432
 31
0.0
  0
LINE
  5
1CE
330
1CA
100
AcDbEntity
  8
DIM
 62
5
370
9
440
16777216
100
AcDbLine
 10
919.0008495477905
 20
587.6000502369716
 30
0.0
 11
919.0008495477905
 21
641.5772391459432
 31
0.0
  0
LINE
  5
1CF
330
1CA
100
AcDbEntity
  8
DIM
 62
5
370
9
440
16777216
100
AcDbLine
 10
369.0008495477905
 20
631.5772391459432
 30
0.0
 11
919.0008495477905
 21
631.5772391459432
 31
0.0
  0
LINE
  5
1D0
330
1CA
100
AcDbEntity
  8
0
  6
ByBlock
 62
0
370
-2
100
AcDbLine
 10
373.0008495477905
 20
635.5772391459432
 30
0.0
 11
365.0008495477905
 21
627.5772391459432
 31
0.0
  0
LINE
  5
1D1
330
1CA
100
AcDbEntity
  8
0
  6
ByBlock
 62
0
370
-2
100
AcDbLine
 10
915.0008495477905
 20
627.5772391459432
 30
0.0
 11
923.0008495477905
 21
635.5772391459432
 31
0.0
  0
MTEXT
  5
1D2
330
1CA
100
AcDbEntity
  8
DIM
 62
3
440
16777216
100
AcDbMText
 10
644.0008495477905
 20
654.3415638389815
 30
0.0
 40
25.0
 41
0.0
 46
0.0
 71
5
  1
550
  0
POINT
  5
1D3
330
1CA
100
AcDbEntity
  8
Defpoints
 62
0
440
16777216
100
AcDbPoint
 10
369.0008495477905
 20
572.6000502369716
 30
0.0
  0
POINT
  5
1D4
330
1CA
100
AcDbEntity
  8
Defpoints
 62
0
440
16777216
100
AcDbPoint
 10
919.0008495477905
 20
572.6000502369716
 30
0.0
  0
POINT
  5
1D5
330
1CA
100
AcDbEntity
  8
Defpoints
 62
0
440
16777216
100
AcDbPoint
 10
919.0008495477905
 20
631.5772391459432
 30
0.0
  0
ENDBLK
  5
1CC
330
1CA
100
AcDbEntity
  8
0
100
AcDbBlockEnd
  0
BLOCK
  5
1D7
330
1D6
100
AcDbEntity
  8
0
100
AcDbBlockBegin
  2
*D4
 70
1
 10
0.0
 20
0.0
 30
0.0
  3
*D4
  1

  0
LINE
  5
1D9
330
1D6
100
AcDbEntity
  8
DIM
 62
5
370
9
440
16777216
100
AcDbLine
 10
354.0008495477796
 20
572.6000502369607
 30
0.0
 11
284.7730761880903
 21
572.6000502369607
 31
0.0
  0
LINE
  5
1DA
330
1D6
100
AcDbEntity
  8
DIM
 62
5
370
9
440
16777216
100
AcDbLine
 10
355.0008495477905
 20
272.60005023696067
 30
0.0
 11
284.7730761880903
 21
272.60005023696067
 31
0.0
  0
LINE
  5
1DB
330
1D6
100
AcDbEntity
  8
DIM
 62
5
370
9
440
16777216
100
AcDbLine
 10
294.7730761880903
 20
572.6000502369607
 30
0.0
 11
294.7730761880903
 21
272.60005023696067
 31
0.0
  0
LINE
  5
1DC
330
1D6
100
AcDbEntity
  8
0
  6
ByBlock
 62
0
370
-2
100
AcDbLine
 10
298.7730761880903
 20
568.6000502369607
 30
0.0
 11
290.7730761880903
 21
576.6000502369607
 31
0.0
  0
LINE
  5
1DD
330
1D6
100
AcDbEntity
  8
0
  6
ByBlock
 62
0
370
-2
100
AcDbLine
 10
290.7730761880903
 20
276.60005023696067
 30
0.0
 11
298.7730761880903
 21
268.60005023696067
 31
0.0
  0
MTEXT
  5
1DE
330
1D6
100
AcDbEntity
  8
DIM
 62
3
440
16777216
100
AcDbMText
 10
272.0002248920391
 20
422.6000502369716
 30
0.0
 40
25.0
 41
0.0
 46
0.0
 71
5
  1
300
 11
1e-16
 21
1.0
 31
0.0
  0
POINT
  5
1DF
330
1D6
100
AcDbEntity
  8
Defpoints
 62
0
440
16777216
100
AcDbPoint
 10
369.0008495477905
 20
572.6000502369607
 30
0.0
  0
POINT
  5
1E0
330
1D6
100
AcDbEntity
  8
Defpoints
 62
0
440
16777216
100
AcDbPoint
 10
370.0008495477796
 20
272.60005023696067
 30
0.0
  0
POINT
  5
1E1
330
1D6
100
AcDbEntity
  8
Defpoints
 62
0
440
16777216
100
AcDbPoint
 10
294.7730761880903
 20
272.60005023696067
 30
0.0
  0
ENDBLK
  5
1D8
330
1D6
100
AcDbEntity
  8
0
100
AcDbBlockEnd
  0
BLOCK
  5
1E3
330
1E2
100
AcDbEntity
  8
0
100
AcDbBlockBegin
  2
*D5
 70
1
 10
0.0
 20
0.0
 30
0.0
  3
*D5
  1

  0
LINE
  5
1E5
330
1E2
100
AcDbEntity
  8
DIM
 62
5
370
9
440
16777216
100
AcDbLine
 10
2151.432616333879
 20
830.9526138985311
 30
0.0
 11
1947.0415882791804
 21
830.9526138985311
 31
0.0
  0
LINE
  5
1E6
330
1E2
100
AcDbEntity
  8
DIM
 62
5
370
9
440
16777216
100
AcDbLine
 10
2151.432616333879
 20
2230.95261389852
 30
0.0
 11
1947.0415882791804
 21
2230.95261389852
 31
0.0
  0
LINE
  5
1E7
330
1E2
100
AcDbEntity
  8
DIM
 62
5
370
9
440
16777216
100
AcDbLine
 10
1952.0415882791804
 20
835.9526138985202
 30
0.0
 11
1952.0415882791804
 21
2225.952613898531
 31
0.0
  0
LINE
  5
1E8
330
1E2
100
AcDbEntity
  8
0
  6
ByBlock
 62
0
370
-2
100
AcDbLine
 10
1953.3813342291796
 20
835.9526138985311
 30
0.0
 11
1952.0415882791804
 21
830.9526138985311
 31
0.0
  0
LINE
  5
1E9
330
1E2
100
AcDbEntity
  8
0
  6
ByBlock
 62
0
370
-2
100
AcDbLine
 10
1952.0415882791804
 20
830.9526138985311
 30
0.0
 11
1950.701842329181
 21
835.9526138985311
 31
0.0
  0
LINE
  5
1EA
330
1E2
100
AcDbEntity
  8
0
  6
ByBlock
 62
0
370
-2
100
AcDbLine
 10
1952.0415882791804
 20
830.9526138985311
 30
0.0
 11
1952.0415882791804
 21
835.9526138985311
 31
0.0
  0
LINE
  5
1EB
330
1E2
100
AcDbEntity
  8
0
  6
ByBlock
 62
0
370
-2
100
AcDbLine
 10
1950.701842329181
 20
2225.95261389852
 30
0.0
 11
1952.0415882791804
 21
2230.95261389852
 31
0.0
  0
LINE
  5
1EC
330
1E2
100
AcDbEntity
  8
0
  6
ByBlock
 62
0
370
-2
100
AcDbLine
 10
1952.0415882791804
 20
2230.95261389852
 30
0.0
 11
1953.3813342291796
 21
2225.95261389852
 31
0.0
  0
LINE
  5
1ED
330
1E2
100
AcDbEntity
  8
0
  6
ByBlock
 62
0
370
-2
100
AcDbLine
 10
1952.0415882791804
 20
2230.95261389852
 30
0.0
 11
1952.0415882791804
 21
2225.95261389852
 31
0.0
  0
MTEXT
  5
1EE
330
1E2
100
AcDbEntity
  8
DIM
 62
3
440
16777216
100
AcDbMText
 10
1916.5129388931
 20
1530.9526138985202
 30
0.0
 40
50.0
 41
0.0
 46
0.0
 71
5
  1
1400
 11
1e-16
 21
1.0
 31
0.0
  0
POINT
  5
1EF
330
1E2
100
AcDbEntity
  8
Defpoints
 62
0
440
16777216
100
AcDbPoint
 10
2166.432616333879
 20
830.9526138985311
 30
0.0
  0
POINT
  5
1F0
330
1E2
100
AcDbEntity
  8
Defpoints
 62
0
440
16777216
100
AcDbPoint
 10
2166.432616333879
 20
2230.95261389852
 30
0.0
  0
POINT
  5
1F1
330
1E2
100
AcDbEntity
  8
Defpoints
 62
0
440
16777216
100
AcDbPoint
 10
1952.0415882791804
 20
2230.95261389852
 30
0.0
  0
ENDBLK
  5
1E4
330
1E2
100
AcDbEntity
  8
0
100
AcDbBlockEnd
  0
BLOCK
  5
1F3
330
1F2
100
AcDbEntity
  8
0
100
AcDbBlockBegin
  2
*D6
 70
1
 10
0.0
 20
0.0
 30
0.0
  3
*D6
  1

  0
LINE
  5
1F5
330
1F2
100
AcDbEntity
  8
DIM
 62
5
370
9
440
16777216
100
AcDbLine
 10
2166.432616333879
 20
2245.95261389852
 30
0.0
 11
2166.432616333879
 21
2311.940931960533
 31
0.0
  0
LINE
  5
1F6
330
1F2
100
AcDbEntity
  8
DIM
 62
5
370
9
440
16777216
100
AcDbLine
 10
2466.432616333879
 20
2245.95261389852
 30
0.0
 11
2466.432616333879
 21
2311.940931960533
 31
0.0
  0
LINE
  5
1F7
330
1F2
100
AcDbEntity
  8
DIM
 62
5
370
9
440
16777216
100
AcDbLine
 10
2171.432616333879
 20
2306.940931960533
 30
0.0
 11
2461.432616333879
 21
2306.940931960533
 31
0.0
  0
LINE
  5
1F8
330
1F2
100
AcDbEntity
  8
0
  6
ByBlock
 62
0
370
-2
100
AcDbLine
 10
2171.432616333879
 20
2305.601186010532
 30
0.0
 11
2166.432616333879
 21
2306.940931960533
 31
0.0
  0
LINE
  5
1F9
330
1F2
100
AcDbEntity
  8
0
  6
ByBlock
 62
0
370
-2
100
AcDbLine
 10
2166.432616333879
 20
2306.940931960533
 30
0.0
 11
2171.432616333879
 21
2308.280677910534
 31
0.0
  0
LINE
  5
1FA
330
1F2
100
AcDbEntity
  8
0
  6
ByBlock
 62
0
370
-2
100
AcDbLine
 10
2166.432616333879
 20
2306.940931960533
 30
0.0
 11
2171.432616333879
 21
2306.940931960533
 31
0.0
  0
LINE
  5
1FB
330
1F2
100
AcDbEntity
  8
0
  6
ByBlock
 62
0
370
-2
100
AcDbLine
 10
2461.432616333879
 20
2308.280677910534
 30
0.0
 11
2466.432616333879
 21
2306.940931960533
 31
0.0
  0
LINE
  5
1FC
330
1F2
100
AcDbEntity
  8
0
  6
ByBlock
 62
0
370
-2
100
AcDbLine
 10
2466.432616333879
 20
2306.940931960533
 30
0.0
 11
2461.432616333879
 21
2305.601186010532
 31
0.0
  0
LINE
  5
1FD
330
1F2
100
AcDbEntity
  8
0
  6
ByBlock
 62
0
370
-2
100
AcDbLine
 10
2466.432616333879
 20
2306.940931960533
 30
0.0
 11
2461.432616333879
 21
2306.940931960533
 31
0.0
  0
MTEXT
  5
1FE
330
1F2
100
AcDbEntity
  8
DIM
 62
3
440
16777216
100
AcDbMText
 10
2316.432616333879
 20
2342.4866345526207
 30
0.0
 40
50.0
 41
0.0
 46
0.0
 71
5
  1
300
  0
POINT
  5
1FF
330
1F2
100
AcDbEntity
  8
Defpoints
 62
0
440
16777216
100
AcDbPoint
 10
2166.432616333879
 20
2230.95261389852
 30
0.0
  0
POINT
  5
200
330
1F2
100
AcDbEntity
  8
Defpoints
 62
0
440
16777216
100
AcDbPoint
 10
2466.432616333879
 20
2230.95261389852
 30
0.0
  0
POINT
  5
201
330
1F2
100
AcDbEntity
  8
Defpoints
 62
0
440
16777216
100
AcDbPoint
 10
2466.432616333879
 20
2306.940931960533
 30
0.0
  0
ENDBLK
  5
1F4
330
1F2
100
AcDbEntity
  8
0
100
AcDbBlockEnd
  0
BLOCK
  5
203
330
202
100
AcDbEntity
  8
0
100
AcDbBlockBegin
  2
*D7
 70
1
 10
0.0
 20
0.0
 30
0.0
  3
*D7
  1

  0
LINE
  5
205
330
202
100
AcDbEntity
  8
DIM
 62
5
370
9
440
16777216
100
AcDbLine
 10
1196.0689938207997
 20
2245.95261389852
 30
0.0
 11
1196.0689938207997
 21
2303.9448307932507
 31
0.0
  0
LINE
  5
206
330
202
100
AcDbEntity
  8
DIM
 62
5
370
9
440
16777216
100
AcDbLine
 10
1746.0689938208106
 20
2245.95261389852
 30
0.0
 11
1746.0689938208106
 21
2303.9448307932507
 31
0.0
  0
LINE
  5
207
330
202
100
AcDbEntity
  8
DIM
 62
5
370
9
440
16777216
100
AcDbLine
 10
1201.0689938208106
 20
2298.9448307932507
 30
0.0
 11
1741.0689938207997
 21
2298.9448307932507
 31
0.0
  0
LINE
  5
208
330
202
100
AcDbEntity
  8
0
  6
ByBlock
 62
0
370
-2
100
AcDbLine
 10
1201.0689938207997
 20
2297.6050848432496
 30
0.0
 11
1196.0689938207997
 21
2298.9448307932507
 31
0.0
  0
LINE
  5
209
330
202
100
AcDbEntity
  8
0
  6
ByBlock
 62
0
370
-2
100
AcDbLine
 10
1196.0689938207997
 20
2298.9448307932507
 30
0.0
 11
1201.0689938207997
 21
2300.284576743252
 31
0.0
  0
LINE
  5
20A
330
202
100
AcDbEntity
  8
0
  6
ByBlock
 62
0
370
-2
100
AcDbLine
 10
1196.0689938207997
 20
2298.9448307932507
 30
0.0
 11
1201.0689938207997
 21
2298.9448307932507
 31
0.0
  0
LINE
  5
20B
330
202
100
AcDbEntity
  8
0
  6
ByBlock
 62
0
370
-2
100
AcDbLine
 10
1741.0689938208106
 20
2300.284576743252
 30
0.0
 11
1746.0689938208106
 21
2298.9448307932507
 31
0.0
  0
LINE
  5
20C
330
202
100
AcDbEntity
  8
0
  6
ByBlock
 62
0
370
-2
100
AcDbLine
 10
1746.0689938208106
 20
2298.9448307932507
 30
0.0
 11
1741.0689938208106
 21
2297.6050848432496
 31
0.0
  0
LINE
  5
20D
330
202
100
AcDbEntity
  8
0
  6
ByBlock
 62
0
370
-2
100
AcDbLine
 10
1746.0689938208106
 20
2298.9448307932507
 30
0.0
 11
1741.0689938208106
 21
2298.9448307932507
 31
0.0
  0
MTEXT
  5
20E
330
202
100
AcDbEntity
  8
DIM
 62
3
440
16777216
100
AcDbMText
 10
1471.0689938208106
 20
2334.473480179331
 30
0.0
 40
50.0
 41
0.0
 46
0.0
 71
5
  1
550
  0
POINT
  5
20F
330
202
100
AcDbEntity
  8
Defpoints
 62
0
440
16777216
100
AcDbPoint
 10
1196.0689938207997
 20
2230.95261389852
 30
0.0
  0
POINT
  5
210
330
202
100
AcDbEntity
  8
Defpoints
 62
0
440
16777216
100
AcDbPoint
 10
1746.0689938208106
 20
2230.95261389852
 30
0.0
  0
POINT
  5
211
330
202
100
AcDbEntity
  8
Defpoints
 62
0
440
16777216
100
AcDbPoint
 10
1746.0689938208106
 20
2298.9448307932507
 30
0.0
  0
ENDBLK
  5
204
330
202
100
AcDbEntity
  8
0
100
AcDbBlockEnd
  0
BLOCK
  5
213
330
212
100
AcDbEntity
  8
0
100
AcDbBlockBegin
  2
*D8
 70
1
 10
0.0
 20
0.0
 30
0.0
  3
*D8
  1

  0
LINE
  5
215
330
212
100
AcDbEntity
  8
DIM
 62
5
370
9
440
16777216
100
AcDbLine
 10
1181.0689938208106
 20
2230.95261389852
 30
0.0
 11
1118.829478651749
 21
2230.95261389852
 31
0.0
  0
LINE
  5
216
330
212
100
AcDbEntity
  8
DIM
 62
5
370
9
440
16777216
100
AcDbLine
 10
1181.0689938208106
 20
830.9526138985311
 30
0.0
 11
1118.829478651749
 21
830.9526138985311
 31
0.0
  0
LINE
  5
217
330
212
100
AcDbEntity
  8
DIM
 62
5
370
9
440
16777216
100
AcDbLine
 10
1123.829478651749
 20
2225.952613898531
 30
0.0
 11
1123.829478651749
 21
835.9526138985202
 31
0.0
  0
LINE
  5
218
330
212
100
AcDbEntity
  8
0
  6
ByBlock
 62
0
370
-2
100
AcDbLine
 10
1122.4897327017497
 20
2225.95261389852
 30
0.0
 11
1123.829478651749
 21
2230.95261389852
 31
0.0
  0
LINE
  5
219
330
212
100
AcDbEntity
  8
0
  6
ByBlock
 62
0
370
-2
100
AcDbLine
 10
1123.829478651749
 20
2230.95261389852
 30
0.0
 11
1125.1692246017483
 21
2225.95261389852
 31
0.0
  0
LINE
  5
21A
330
212
100
AcDbEntity
  8
0
  6
ByBlock
 62
0
370
-2
100
AcDbLine
 10
1123.829478651749
 20
2230.95261389852
 30
0.0
 11
1123.829478651749
 21
2225.95261389852
 31
0.0
  0
LINE
  5
21B
330
212
100
AcDbEntity
  8
0
  6
ByBlock
 62
0
370
-2
100
AcDbLine
 10
1125.1692246017483
 20
835.9526138985311
 30
0.0
 11
1123.829478651749
 21
830.9526138985311
 31
0.0
  0
LINE
  5
21C
330
212
100
AcDbEntity
  8
0
  6
ByBlock
 62
0
370
-2
100
AcDbLine
 10
1123.829478651749
 20
830.9526138985311
 30
0.0
 11
1122.4897327017497
 21
835.9526138985311
 31
0.0
  0
LINE
  5
21D
330
212
100
AcDbEntity
  8
0
  6
ByBlock
 62
0
370
-2
100
AcDbLine
 10
1123.829478651749
 20
830.9526138985311
 30
0.0
 11
1123.829478651749
 21
835.9526138985311
 31
0.0
  0
MTEXT
  5
21E
330
212
100
AcDbEntity
  8
DIM
 62
3
440
16777216
100
AcDbMText
 10
1088.3008292656705
 20
1530.9526138985202
 30
0.0
 40
50.0
 41
0.0
 46
0.0
 71
5
  1
1400
 11
1e-16
 21
1.0
 31
0.0
  0
POINT
  5
21F
330
212
100
AcDbEntity
  8
Defpoints
 62
0
440
16777216
100
AcDbPoint
 10
1196.0689938207997
 20
2230.95261389852
 30
0.0
  0
POINT
  5
220
330
212
100
AcDbEntity
  8
Defpoints
 62
0
440
16777216
100
AcDbPoint
 10
1196.0689938207997
 20
830.9526138985311
 30
0.0
  0
POINT
  5
221
330
212
100
AcDbEntity
  8
Defpoints
 62
0
440
16777216
100
AcDbPoint
 10
1123.829478651749
 20
830.9526138985311
 30
0.0
  0
ENDBLK
  5
214
330
212
100
AcDbEntity
  8
0
100
AcDbBlockEnd
  0
BLOCK
  5
223
330
222
100
AcDbEntity
  8
0
100
AcDbBlockBegin
  2
*D9
 70
1
 10
0.0
 20
0.0
 30
0.0
  3
*D9
  1

  0
LINE
  5
225
330
222
100
AcDbEntity
  8
DIM
 62
5
370
9
 48
3.0
440
16777216
100
AcDbLine
 10
2151.432616333879
 20
2230.95261389852
 30
0.0
 11
2075.87612118572
 21
2230.95261389852
 31
0.0
  0
LINE
  5
226
330
222
100
AcDbEntity
  8
DIM
 62
5
370
9
 48
3.0
440
16777216
100
AcDbLine
 10
2431.432616333879
 20
1530.9526138985202
 30
0.0
 11
2075.87612118572
 21
1530.9526138985202
 31
0.0
  0
LINE
  5
227
330
222
100
AcDbEntity
  8
DIM
 62
5
370
9
 48
3.0
440
16777216
100
AcDbLine
 10
2085.87612118572
 20
2230.95261389852
 30
0.0
 11
2085.87612118572
 21
1530.9526138985202
 31
0.0
  0
LINE
  5
228
330
222
100
AcDbEntity
  8
0
  6
ByBlock
 62
0
370
-2
100
AcDbLine
 10
2089.87612118572
 20
2226.95261389852
 30
0.0
 11
2081.87612118572
 21
2234.95261389852
 31
0.0
  0
LINE
  5
229
330
222
100
AcDbEntity
  8
0
  6
ByBlock
 62
0
370
-2
100
AcDbLine
 10
2081.87612118572
 20
1534.9526138985202
 30
0.0
 11
2089.87612118572
 21
1526.9526138985202
 31
0.0
  0
MTEXT
  5
22A
330
222
100
AcDbEntity
  8
DIM
 62
3
 48
3.0
440
16777216
100
AcDbMText
 10
2063.11179649268
 20
1880.9526138985202
 30
0.0
 40
25.0
 41
0.0
 46
0.0
 71
5
  1
700
 11
1e-16
 21
1.0
 31
0.0
  0
POINT
  5
22B
330
222
100
AcDbEntity
  8
Defpoints
 62
0
 48
3.0
440
16777216
100
AcDbPoint
 10
2166.432616333879
 20
2230.95261389852
 30
0.0
  0
POINT
  5
22C
330
222
100
AcDbEntity
  8
Defpoints
 62
0
 48
3.0
440
16777216
100
AcDbPoint
 10
2446.432616333879
 20
1530.9526138985202
 30
0.0
  0
POINT
  5
22D
330
222
100
AcDbEntity
  8
Defpoints
 62
0
 48
3.0
440
16777216
100
AcDbPoint
 10
2085.87612118572
 20
1530.9526138985202
 30
0.0
  0
ENDBLK
  5
224
330
222
100
AcDbEntity
  8
0
100
AcDbBlockEnd
  0
BLOCK
  5
22F
330
22E
100
AcDbEntity
  8
0
100
AcDbBlockBegin
  2
*D10
 70
1
 10
0.0
 20
0.0
 30
0.0
  3
*D10
  1

  0
LINE
  5
231
330
22E
100
AcDbEntity
  8
DIM
 62
5
370
9
 48
3.0
440
16777216
100
AcDbLine
 10
2431.432616333879
 20
1530.9526138985202
 30
0.0
 11
2075.87612118572
 21
1530.9526138985202
 31
0.0
  0
LINE
  5
232
330
22E
100
AcDbEntity
  8
DIM
 62
5
370
9
 48
3.0
440
16777216
100
AcDbLine
 10
2151.432616333879
 20
830.9526138985311
 30
0.0
 11
2075.87612118572
 21
830.9526138985311
 31
0.0
  0
LINE
  5
233
330
22E
100
AcDbEntity
  8
DIM
 62
5
370
9
 48
3.0
440
16777216
100
AcDbLine
 10
2085.87612118572
 20
1530.9526138985202
 30
0.0
 11
2085.87612118572
 21
830.9526138985311
 31
0.0
  0
LINE
  5
234
330
22E
100
AcDbEntity
  8
0
  6
ByBlock
 62
0
370
-2
100
AcDbLine
 10
2089.87612118572
 20
1526.9526138985202
 30
0.0
 11
2081.87612118572
 21
1534.9526138985202
 31
0.0
  0
LINE
  5
235
330
22E
100
AcDbEntity
  8
0
  6
ByBlock
 62
0
370
-2
100
AcDbLine
 10
2081.87612118572
 20
834.9526138985311
 30
0.0
 11
2089.87612118572
 21
826.9526138985311
 31
0.0
  0
MTEXT
  5
236
330
22E
100
AcDbEntity
  8
DIM
 62
3
 48
3.0
440
16777216
100
AcDbMText
 10
2063.11179649268
 20
1180.9526138985202
 30
0.0
 40
25.0
 41
0.0
 46
0.0
 71
5
  1
700
 11
1e-16
 21
1.0
 31
0.0
  0
POINT
  5
237
330
22E
100
AcDbEntity
  8
Defpoints
 62
0
 48
3.0
440
16777216
100
AcDbPoint
 10
2446.432616333879
 20
1530.9526138985202
 30
0.0
  0
POINT
  5
238
330
22E
100
AcDbEntity
  8
Defpoints
 62
0
 48
3.0
440
16777216
100
AcDbPoint
 10
2166.432616333879
 20
830.9526138985311
 30
0.0
  0
POINT
  5
239
330
22E
100
AcDbEntity
  8
Defpoints
 62
0
 48
3.0
440
16777216
100
AcDbPoint
 10
2085.87612118572
 20
830.9526138985311
 30
0.0
  0
ENDBLK
  5
230
330
22E
100
AcDbEntity
  8
0
100
AcDbBlockEnd
  0
BLOCK
  5
23B
330
23A
100
AcDbEntity
  8
0
100
AcDbBlockBegin
  2
*D11
 70
1
 10
0.0
 20
0.0
 30
0.0
  3
*D11
  1

  0
LINE
  5
23D
330
23A
100
AcDbEntity
  8
DIM
 62
5
370
9
 48
3.0
440
16777216
100
AcDbLine
 10
1761.0689938207997
 20
2230.95261389852
 30
0.0
 11
1831.4256372891796
 21
2230.95261389852
 31
0.0
  0
LINE
  5
23E
330
23A
100
AcDbEntity
  8
DIM
 62
5
370
9
 48
3.0
440
16777216
100
AcDbLine
 10
1761.0689938207997
 20
2060.95261389852
 30
0.0
 11
1831.4256372891796
 21
2060.95261389852
 31
0.0
  0
LINE
  5
23F
330
23A
100
AcDbEntity
  8
DIM
 62
5
370
9
 48
3.0
440
16777216
100
AcDbLine
 10
1821.4256372891796
 20
2230.95261389852
 30
0.0
 11
1821.4256372891796
 21
2060.95261389852
 31
0.0
  0
LINE
  5
240
330
23A
100
AcDbEntity
  8
0
  6
ByBlock
 62
0
370
-2
100
AcDbLine
 10
1825.4256372891796
 20
2226.95261389852
 30
0.0
 11
1817.4256372891796
 21
2234.95261389852
 31
0.0
  0
LINE
  5
241
330
23A
100
AcDbEntity
  8
0
  6
ByBlock
 62
0
370
-2
100
AcDbLine
 10
1817.4256372891796
 20
2064.95261389852
 30
0.0
 11
1825.4256372891796
 21
2056.95261389852
 31
0.0
  0
MTEXT
  5
242
330
23A
100
AcDbEntity
  8
DIM
 62
3
 48
3.0
440
16777216
100
AcDbMText
 10
1798.6613125961394
 20
2145.95261389852
 30
0.0
 40
25.0
 41
0.0
 46
0.0
 71
5
  1
170
 11
1e-16
 21
1.0
 31
0.0
  0
POINT
  5
243
330
23A
100
AcDbEntity
  8
Defpoints
 62
0
 48
3.0
440
16777216
100
AcDbPoint
 10
1746.0689938208106
 20
2230.95261389852
 30
0.0
  0
POINT
  5
244
330
23A
100
AcDbEntity
  8
Defpoints
 62
0
 48
3.0
440
16777216
100
AcDbPoint
 10
1746.0689938208106
 20
2060.95261389852
 30
0.0
  0
POINT
  5
245
330
23A
100
AcDbEntity
  8
Defpoints
 62
0
 48
3.0
440
16777216
100
AcDbPoint
 10
1821.4256372891796
 20
2060.95261389852
 30
0.0
  0
ENDBLK
  5
23C
330
23A
100
AcDbEntity
  8
0
100
AcDbBlockEnd
  0
BLOCK
  5
247
330
246
100
AcDbEntity
  8
0
100
AcDbBlockBegin
  2
*D12
 70
1
 10
0.0
 20
0.0
 30
0.0
  3
*D12
  1

  0
LINE
  5
249
330
246
100
AcDbEntity
  8
DIM
 62
5
370
9
 48
3.0
440
16777216
100
AcDbLine
 10
469.05640736725945
 20
1392.2393230760208
 30
0.0
 11
469.05640736725945
 21
1490.2535008512532
 31
0.0
  0
LINE
  5
24A
330
246
100
AcDbEntity
  8
DIM
 62
5
370
9
 48
3.0
440
16777216
100
AcDbLine
 10
818.9452917283306
 20
1392.2393230760208
 30
0.0
 11
818.9452917283306
 21
1490.2535008512532
 31
0.0
  0
LINE
  5
24B
330
246
100
AcDbEntity
  8
DIM
 62
5
370
9
 48
3.0
440
16777216
100
AcDbLine
 10
469.05640736725945
 20
1480.2535008512532
 30
0.0
 11
818.9452917283306
 21
1480.2535008512532
 31
0.0
  0
LINE
  5
24C
330
246
100
AcDbEntity
  8
0
  6
ByBlock
 62
0
370
-2
100
AcDbLine
 10
473.05640736725945
 20
1484.2535008512532
 30
0.0
 11
465.05640736725945
 21
1476.2535008512532
 31
0.0
  0
LINE
  5
24D
330
246
100
AcDbEntity
  8
0
  6
ByBlock
 62
0
370
-2
100
AcDbLine
 10
814.9452917283306
 20
1476.2535008512532
 30
0.0
 11
822.9452917283306
 21
1484.2535008512532
 31
0.0
  0
MTEXT
  5
24E
330
246
100
AcDbEntity
  8
DIM
 62
3
 48
3.0
440
16777216
100
AcDbMText
 10
644.0008495477905
 20
1503.0263521472916
 30
0.0
 40
25.0
 41
0.0
 46
0.0
 71
5
  1
350
  0
POINT
  5
24F
330
246
100
AcDbEntity
  8
Defpoints
 62
0
 48
3.0
440
16777216
100
AcDbPoint
 10
469.05640736725945
 20
1377.2393230760208
 30
0.0
  0
POINT
  5
250
330
246
100
AcDbEntity
  8
Defpoints
 62
0
 48
3.0
440
16777216
100
AcDbPoint
 10
818.9452917283306
 20
1377.2393230760208
 30
0.0
  0
POINT
  5
251
330
246
100
AcDbEntity
  8
Defpoints
 62
0
 48
3.0
440
16777216
100
AcDbPoint
 10
818.9452917283306
 20
1480.2535008512532
 30
0.0
  0
ENDBLK
  5
248
330
246
100
AcDbEntity
  8
0
100
AcDbBlockEnd
  0
BLOCK
  5
253
330
252
100
AcDbEntity
  8
0
100
AcDbBlockBegin
  2
*D13
 70
1
 10
0.0
 20
0.0
 30
0.0
  3
*D13
  1

  0
LINE
  5
255
330
252
100
AcDbEntity
  8
DIM
 62
5
370
9
 48
3.0
440
16777216
100
AcDbLine
 10
780.0599951387994
 20
1409.4526138985202
 30
0.0
 11
882.4351250529398
 21
1409.4526138985202
 31
0.0
  0
LINE
  5
256
330
252
100
AcDbEntity
  8
DIM
 62
5
370
9
 48
3.0
440
16777216
100
AcDbLine
 10
780.0599951388103
 20
963.9526138985311
 30
0.0
 11
882.4351250529398
 21
963.9526138985311
 31
0.0
  0
LINE
  5
257
330
252
100
AcDbEntity
  8
DIM
 62
5
370
9
 48
3.0
440
16777216
100
AcDbLine
 10
872.4351250529398
 20
1409.4526138985202
 30
0.0
 11
872.4351250529398
 21
963.9526138985311
 31
0.0
  0
LINE
  5
258
330
252
100
AcDbEntity
  8
0
  6
ByBlock
 62
0
370
-2
100
AcDbLine
 10
876.4351250529398
 20
1405.4526138985202
 30
0.0
 11
868.4351250529398
 21
1413.4526138985202
 31
0.0
  0
LINE
  5
259
330
252
100
AcDbEntity
  8
0
  6
ByBlock
 62
0
370
-2
100
AcDbLine
 10
868.4351250529398
 20
967.9526138985311
 30
0.0
 11
876.4351250529398
 21
959.9526138985311
 31
0.0
  0
MTEXT
  5
25A
330
252
100
AcDbEntity
  8
DIM
 62
3
 48
3.0
440
16777216
100
AcDbMText
 10
849.6708003599106
 20
1186.7026138985202
 30
0.0
 40
25.0
 41
0.0
 46
0.0
 71
5
  1
446
 11
1e-16
 21
1.0
 31
0.0
  0
POINT
  5
25B
330
252
100
AcDbEntity
  8
Defpoints
 62
0
 48
3.0
440
16777216
100
AcDbPoint
 10
765.0599951387994
 20
1409.4526138985202
 30
0.0
  0
POINT
  5
25C
330
252
100
AcDbEntity
  8
Defpoints
 62
0
 48
3.0
440
16777216
100
AcDbPoint
 10
765.0599951388103
 20
963.9526138985311
 30
0.0
  0
POINT
  5
25D
330
252
100
AcDbEntity
  8
Defpoints
 62
0
 48
3.0
440
16777216
100
AcDbPoint
 10
872.4351250529398
 20
963.9526138985311
 30
0.0
  0
ENDBLK
  5
254
330
252
100
AcDbEntity
  8
0
100
AcDbBlockEnd
  0
BLOCK
  5
25F
330
25E
100
AcDbEntity
  8
0
100
AcDbBlockBegin
  2
*D14
 70
1
 10
0.0
 20
0.0
 30
0.0
  3
*D14
  1

  0
LINE
  5
261
330
25E
100
AcDbEntity
  8
DIM
 62
5
370
9
440
16777216
100
AcDbLine
 10
2939.5313241226195
 20
830.9526138985311
 30
0.0
 11
3143.9223521773147
 21
830.9526138985311
 31
0.0
  0
LINE
  5
262
330
25E
100
AcDbEntity
  8
DIM
 62
5
370
9
440
16777216
100
AcDbLine
 10
2939.5313241226195
 20
2230.95261389852
 30
0.0
 11
3143.9223521773147
 21
2230.95261389852
 31
0.0
  0
LINE
  5
263
330
25E
100
AcDbEntity
  8
DIM
 62
5
370
9
440
16777216
100
AcDbLine
 10
3138.922352177313
 20
835.9526138985202
 30
0.0
 11
3138.922352177313
 21
2225.952613898531
 31
0.0
  0
LINE
  5
264
330
25E
100
AcDbEntity
  8
0
  6
ByBlock
 62
0
370
-2
100
AcDbLine
 10
3140.262098127312
 20
835.9526138985311
 30
0.0
 11
3138.922352177313
 21
830.9526138985311
 31
0.0
  0
LINE
  5
265
330
25E
100
AcDbEntity
  8
0
  6
ByBlock
 62
0
370
-2
100
AcDbLine
 10
3138.922352177313
 20
830.9526138985311
 30
0.0
 11
3137.5826062273136
 21
835.9526138985311
 31
0.0
  0
LINE
  5
266
330
25E
100
AcDbEntity
  8
0
  6
ByBlock
 62
0
370
-2
100
AcDbLine
 10
3138.922352177313
 20
830.9526138985311
 30
0.0
 11
3138.922352177313
 21
835.9526138985311
 31
0.0
  0
LINE
  5
267
330
25E
100
AcDbEntity
  8
0
  6
ByBlock
 62
0
370
-2
100
AcDbLine
 10
3137.5826062273136
 20
2225.95261389852
 30
0.0
 11
3138.922352177313
 21
2230.95261389852
 31
0.0
  0
LINE
  5
268
330
25E
100
AcDbEntity
  8
0
  6
ByBlock
 62
0
370
-2
100
AcDbLine
 10
3138.922352177313
 20
2230.95261389852
 30
0.0
 11
3140.262098127312
 21
2225.95261389852
 31
0.0
  0
LINE
  5
269
330
25E
100
AcDbEntity
  8
0
  6
ByBlock
 62
0
370
-2
100
AcDbLine
 10
3138.922352177313
 20
2230.95261389852
 30
0.0
 11
3138.922352177313
 21
2225.95261389852
 31
0.0
  0
MTEXT
  5
26A
330
25E
100
AcDbEntity
  8
DIM
 62
3
440
16777216
100
AcDbMText
 10
3103.3937027912343
 20
1530.9526138985202
 30
0.0
 40
50.0
 41
0.0
 46
0.0
 71
5
  1
1400
 11
1e-16
 21
1.0
 31
0.0
  0
POINT
  5
26B
330
25E
100
AcDbEntity
  8
Defpoints
 62
0
440
16777216
100
AcDbPoint
 10
2924.5313241226195
 20
830.9526138985311
 30
0.0
  0
POINT
  5
26C
330
25E
100
AcDbEntity
  8
Defpoints
 62
0
440
16777216
100
AcDbPoint
 10
2924.5313241226195
 20
2230.95261389852
 30
0.0
  0
POINT
  5
26D
330
25E
100
AcDbEntity
  8
Defpoints
 62
0
440
16777216
100
AcDbPoint
 10
3138.922352177313
 20
2230.95261389852
 30
0.0
  0
ENDBLK
  5
260
330
25E
100
AcDbEntity
  8
0
100
AcDbBlockEnd
  0
BLOCK
  5
26F
330
26E
100
AcDbEntity
  8
0
100
AcDbBlockBegin
  2
*D15
 70
1
 10
0.0
 20
0.0
 30
0.0
  3
*D15
  1

  0
LINE
  5
271
330
26E
100
AcDbEntity
  8
DIM
 62
5
370
9
440
16777216
100
AcDbLine
 10
2924.5313241226195
 20
2245.95261389852
 30
0.0
 11
2924.5313241226195
 21
2311.940931960533
 31
0.0
  0
LINE
  5
272
330
26E
100
AcDbEntity
  8
DIM
 62
5
370
9
440
16777216
100
AcDbLine
 10
2624.5313241226195
 20
2245.95261389852
 30
0.0
 11
2624.5313241226195
 21
2311.940931960533
 31
0.0
  0
LINE
  5
273
330
26E
100
AcDbEntity
  8
DIM
 62
5
370
9
440
16777216
100
AcDbLine
 10
2919.5313241226195
 20
2306.940931960533
 30
0.0
 11
2629.5313241226195
 21
2306.940931960533
 31
0.0
  0
LINE
  5
274
330
26E
100
AcDbEntity
  8
0
  6
ByBlock
 62
0
370
-2
100
AcDbLine
 10
2919.5313241226195
 20
2308.280677910534
 30
0.0
 11
2924.5313241226195
 21
2306.940931960533
 31
0.0
  0
LINE
  5
275
330
26E
100
AcDbEntity
  8
0
  6
ByBlock
 62
0
370
-2
100
AcDbLine
 10
2924.5313241226195
 20
2306.940931960533
 30
0.0
 11
2919.5313241226195
 21
2305.601186010532
 31
0.0
  0
LINE
  5
276
330
26E
100
AcDbEntity
  8
0
  6
ByBlock
 62
0
370
-2
100
AcDbLine
 10
2924.5313241226195
 20
2306.940931960533
 30
0.0
 11
2919.5313241226195
 21
2306.940931960533
 31
0.0
  0
LINE
  5
277
330
26E
100
AcDbEntity
  8
0
  6
ByBlock
 62
0
370
-2
100
AcDbLine
 10
2629.5313241226195
 20
2305.601186010532
 30
0.0
 11
2624.5313241226195
 21
2306.940931960533
 31
0.0
  0
LINE
  5
278
330
26E
100
AcDbEntity
  8
0
  6
ByBlock
 62
0
370
-2
100
AcDbLine
 10
2624.5313241226195
 20
2306.940931960533
 30
0.0
 11
2629.5313241226195
 21
2308.280677910534
 31
0.0
  0
LINE
  5
279
330
26E
100
AcDbEntity
  8
0
  6
ByBlock
 62
0
370
-2
100
AcDbLine
 10
2624.5313241226195
 20
2306.940931960533
 30
0.0
 11
2629.5313241226195
 21
2306.940931960533
 31
0.0
  0
MTEXT
  5
27A
330
26E
100
AcDbEntity
  8
DIM
 62
3
440
16777216
100
AcDbMText
 10
2774.5313241226195
 20
2342.4866345526207
 30
0.0
 40
50.0
 41
0.0
 46
0.0
 71
5
  1
300
  0
POINT
  5
27B
330
26E
100
AcDbEntity
  8
Defpoints
 62
0
440
16777216
100
AcDbPoint
 10
2924.5313241226195
 20
2230.95261389852
 30
0.0
  0
POINT
  5
27C
330
26E
100
AcDbEntity
  8
Defpoints
 62
0
440
16777216
100
AcDbPoint
 10
2624.5313241226195
 20
2230.95261389852
 30
0.0
  0
POINT
  5
27D
330
26E
100
AcDbEntity
  8
Defpoints
 62
0
440
16777216
100
AcDbPoint
 10
2624.5313241226195
 20
2306.940931960533
 30
0.0
  0
ENDBLK
  5
270
330
26E
100
AcDbEntity
  8
0
100
AcDbBlockEnd
  0
BLOCK
  5
27F
330
27E
100
AcDbEntity
  8
0
100
AcDbBlockBegin
  2
*D16
 70
1
 10
0.0
 20
0.0
 30
0.0
  3
*D16
  1

  0
LINE
  5
281
330
27E
100
AcDbEntity
  8
DIM
 62
5
370
9
 48
3.0
440
16777216
100
AcDbLine
 10
2939.5313241226195
 20
2230.95261389852
 30
0.0
 11
3015.0878192707823
 21
2230.95261389852
 31
0.0
  0
LINE
  5
282
330
27E
100
AcDbEntity
  8
DIM
 62
5
370
9
 48
3.0
440
16777216
100
AcDbLine
 10
2659.5313241226195
 20
1530.9526138985202
 30
0.0
 11
3015.0878192707823
 21
1530.9526138985202
 31
0.0
  0
LINE
  5
283
330
27E
100
AcDbEntity
  8
DIM
 62
5
370
9
 48
3.0
440
16777216
100
AcDbLine
 10
3005.087819270784
 20
2230.95261389852
 30
0.0
 11
3005.087819270784
 21
1530.9526138985202
 31
0.0
  0
LINE
  5
284
330
27E
100
AcDbEntity
  8
0
  6
ByBlock
 62
0
370
-2
100
AcDbLine
 10
3009.087819270784
 20
2226.95261389852
 30
0.0
 11
3001.087819270784
 21
2234.95261389852
 31
0.0
  0
LINE
  5
285
330
27E
100
AcDbEntity
  8
0
  6
ByBlock
 62
0
370
-2
100
AcDbLine
 10
3001.087819270784
 20
1534.9526138985202
 30
0.0
 11
3009.087819270784
 21
1526.9526138985202
 31
0.0
  0
MTEXT
  5
286
330
27E
100
AcDbEntity
  8
DIM
 62
3
 48
3.0
440
16777216
100
AcDbMText
 10
2982.3234945777476
 20
1880.9526138985202
 30
0.0
 40
25.0
 41
0.0
 46
0.0
 71
5
  1
700
 11
1e-16
 21
1.0
 31
0.0
  0
POINT
  5
287
330
27E
100
AcDbEntity
  8
Defpoints
 62
0
 48
3.0
440
16777216
100
AcDbPoint
 10
2924.5313241226195
 20
2230.95261389852
 30
0.0
  0
POINT
  5
288
330
27E
100
AcDbEntity
  8
Defpoints
 62
0
 48
3.0
440
16777216
100
AcDbPoint
 10
2644.5313241226195
 20
1530.9526138985202
 30
0.0
  0
POINT
  5
289
330
27E
100
AcDbEntity
  8
Defpoints
 62
0
 48
3.0
440
16777216
100
AcDbPoint
 10
3005.087819270784
 20
1530.9526138985202
 30
0.0
  0
ENDBLK
  5
280
330
27E
100
AcDbEntity
  8
0
100
AcDbBlockEnd
  0
BLOCK
  5
28B
330
28A
100
AcDbEntity
  8
0
100
AcDbBlockBegin
  2
*D17
 70
1
 10
0.0
 20
0.0
 30
0.0
  3
*D17
  1

  0
LINE
  5
28D
330
28A
100
AcDbEntity
  8
DIM
 62
5
370
9
 48
3.0
440
16777216
100
AcDbLine
 10
2659.5313241226195
 20
1530.9526138985202
 30
0.0
 11
3015.0878192707823
 21
1530.9526138985202
 31
0.0
  0
LINE
  5
28E
330
28A
100
AcDbEntity
  8
DIM
 62
5
370
9
 48
3.0
440
16777216
100
AcDbLine
 10
2939.5313241226195
 20
830.9526138985311
 30
0.0
 11
3015.0878192707823
 21
830.9526138985311
 31
0.0
  0
LINE
  5
28F
330
28A
100
AcDbEntity
  8
DIM
 62
5
370
9
 48
3.0
440
16777216
100
AcDbLine
 10
3005.087819270784
 20
1530.9526138985202
 30
0.0
 11
3005.087819270784
 21
830.9526138985311
 31
0.0
  0
LINE
  5
290
330
28A
100
AcDbEntity
  8
0
  6
ByBlock
 62
0
370
-2
100
AcDbLine
 10
3009.087819270784
 20
1526.9526138985202
 30
0.0
 11
3001.087819270784
 21
1534.9526138985202
 31
0.0
  0
LINE
  5
291
330
28A
100
AcDbEntity
  8
0
  6
ByBlock
 62
0
370
-2
100
AcDbLine
 10
3001.087819270784
 20
834.9526138985311
 30
0.0
 11
3009.087819270784
 21
826.9526138985311
 31
0.0
  0
MTEXT
  5
292
330
28A
100
AcDbEntity
  8
DIM
 62
3
 48
3.0
440
16777216
100
AcDbMText
 10
2982.3234945777476
 20
1180.9526138985202
 30
0.0
 40
25.0
 41
0.0
 46
0.0
 71
5
  1
700
 11
1e-16
 21
1.0
 31
0.0
  0
POINT
  5
293
330
28A
100
AcDbEntity
  8
Defpoints
 62
0
 48
3.0
440
16777216
100
AcDbPoint
 10
2644.5313241226195
 20
1530.9526138985202
 30
0.0
  0
POINT
  5
294
330
28A
100
AcDbEntity
  8
Defpoints
 62
0
 48
3.0
440
16777216
100
AcDbPoint
 10
2924.5313241226195
 20
830.9526138985311
 30
0.0
  0
POINT
  5
295
330
28A
100
AcDbEntity
  8
Defpoints
 62
0
 48
3.0
440
16777216
100
AcDbPoint
 10
3005.087819270784
 20
830.9526138985311
 30
0.0
  0
ENDBLK
  5
28C
330
28A
100
AcDbEntity
  8
0
100
AcDbBlockEnd
  0
BLOCK
  5
297
330
296
100
AcDbEntity
  8
0
100
AcDbBlockBegin
  2
*D18
 70
1
 10
0.0
 20
0.0
 30
0.0
  3
*D18
  1

  0
LINE
  5
299
330
296
100
AcDbEntity
  8
DIM
 62
5
370
9
 48
3.0
440
16777216
100
AcDbLine
 10
780.0599951387994
 20
2097.95261389852
 30
0.0
 11
882.4351250529398
 21
2097.95261389852
 31
0.0
  0
LINE
  5
29A
330
296
100
AcDbEntity
  8
DIM
 62
5
370
9
 48
3.0
440
16777216
100
AcDbLine
 10
780.0599951388103
 20
1652.4526138985311
 30
0.0
 11
882.4351250529398
 21
1652.4526138985311
 31
0.0
  0
LINE
  5
29B
330
296
100
AcDbEntity
  8
DIM
 62
5
370
9
 48
3.0
440
16777216
100
AcDbLine
 10
872.4351250529398
 20
2097.95261389852
 30
0.0
 11
872.4351250529398
 21
1652.4526138985311
 31
0.0
  0
LINE
  5
29C
330
296
100
AcDbEntity
  8
0
  6
ByBlock
 62
0
370
-2
100
AcDbLine
 10
876.4351250529398
 20
2093.95261389852
 30
0.0
 11
868.4351250529398
 21
2101.95261389852
 31
0.0
  0
LINE
  5
29D
330
296
100
AcDbEntity
  8
0
  6
ByBlock
 62
0
370
-2
100
AcDbLine
 10
868.4351250529398
 20
1656.4526138985311
 30
0.0
 11
876.4351250529398
 21
1648.4526138985311
 31
0.0
  0
MTEXT
  5
29E
330
296
100
AcDbEntity
  8
DIM
 62
3
 48
3.0
440
16777216
100
AcDbMText
 10
849.6708003599106
 20
1875.2026138985202
 30
0.0
 40
25.0
 41
0.0
 46
0.0
 71
5
  1
446
 11
1e-16
 21
1.0
 31
0.0
  0
POINT
  5
29F
330
296
100
AcDbEntity
  8
Defpoints
 62
0
 48
3.0
440
16777216
100
AcDbPoint
 10
765.0599951387994
 20
2097.95261389852
 30
0.0
  0
POINT
  5
2A0
330
296
100
AcDbEntity
  8
Defpoints
 62
0
 48
3.0
440
16777216
100
AcDbPoint
 10
765.0599951388103
 20
1652.4526138985311
 30
0.0
  0
POINT
  5
2A1
330
296
100
AcDbEntity
  8
Defpoints
 62
0
 48
3.0
440
16777216
100
AcDbPoint
 10
872.4351250529398
 20
1652.4526138985311
 30
0.0
  0
ENDBLK
  5
298
330
296
100
AcDbEntity
  8
0
100
AcDbBlockEnd
  0
ENDSEC
  0
SECTION
  2
ENTITIES
  0
INSERT
  5
2F
330
17
100
AcDbEntity
  8
0
 62
7
100
AcDbBlockReference
 66
1
  2
khungtenAsean2
 10
0.0
 20
2456.999999648142
 30
0.0
 41
1.16999999983227
 42
1.16999999983227
 43
1.16999999983227
  0
ATTRIB
  5
30
330
2F
100
AcDbEntity
  8
0
 62
1
100
AcDbText
 10
3374.0041291462258
 20
38.20307352551026
 30
0.0
 40
29.25
  1
......
  7
Tahoma (Input Text)
 72
1
 11
3410.542074075709
 21
38.20307352551026
 31
0.0
100
AcDbAttribute
  2
#11
 70
0
 71
1
 72
0
 11
3410.542074075709
 21
38.20307352551026
 31
0.0
  0
ATTRIB
  5
31
330
2F
100
AcDbEntity
  8
0
 62
1
100
AcDbText
 10
2511.65886366041
 20
92.10800196853234
 30
0.0
 40
29.25
  1
Sơn màu đỏ
  7
Tahoma (Input Text)
100
AcDbAttribute
  2
#09
 70
0
 71
1
 72
0
  0
ATTRIB
  5
32
330
2F
100
AcDbEntity
  8
0
 62
1
100
AcDbText
 10
2511.65886366041
 20
21.908001968520693
 30
0.0
 40
29.25
  1
Tủ trong nhà, 1 lớp cánh
  7
Tahoma (Input Text)
100
AcDbAttribute
  2
#10
 70
0
 71
1
 72
0
  0
ATTRIB
  5
33
330
2F
100
AcDbEntity
  8
0
 62
1
100
AcDbText
 10
2126.4138859078303
 20
21.908001968520693
 30
0.0
 40
29.25
  1
1.5
  7
Tahoma (Input Text)
100
AcDbAttribute
  2
#08
 70
0
 71
1
 72
0
  0
ATTRIB
  5
34
330
2F
100
AcDbEntity
  8
0
 62
1
100
AcDbText
 10
2146.5773670810195
 20
92.10800196853234
 30
0.0
 40
29.25
  1
30
  7
Tahoma (Input Text)
100
AcDbAttribute
  2
#07
 70
0
 71
1
 72
0
  0
ATTRIB
  5
35
330
2F
100
AcDbEntity
  8
0
 62
1
100
AcDbText
 10
1246.4371402985398
 20
21.908001968520693
 30
0.0
 40
29.25
  1
1400x550x300
  7
Tahoma (Input Text)
100
AcDbAttribute
  2
#06
 70
0
 71
1
 72
0
  0
ATTRIB
  5
36
330
2F
100
AcDbEntity
  8
0
 62
1
100
AcDbText
 10
1294.7549672330697
 20
92.10800196853234
 30
0.0
 40
29.25
  1
Vỏ tủ cứu hỏa
  7
Tahoma (Input Text)
100
AcDbAttribute
  2
#05
 70
0
 71
1
 72
0
  0
ATTRIB
  5
37
330
2F
100
AcDbEntity
  8
0
 62
1
100
AcDbText
 10
568.7428815962703
 20
21.908001968520693
 30
0.0
 40
29.25
  1
......
  7
Tahoma (Input Text)
100
AcDbAttribute
  2
#04
 70
0
 71
1
 72
0
  0
ATTRIB
  5
38
330
2F
100
AcDbEntity
  8
0
 62
1
100
AcDbText
 10
592.6877762678105
 20
94.41712707520128
 30
0.0
 40
29.25
  1
Tuấn Báo  Cháy
  7
Tahoma (Input Text)
100
AcDbAttribute
  2
#03
 70
0
 71
1
 72
0
  0
ATTRIB
  5
39
330
2F
100
AcDbEntity
  8
0
 62
1
100
AcDbText
 10
115.19436766868057
 20
21.908001968520693
 30
0.0
 40
29.25
  1
......
  7
Tahoma (Input Text)
100
AcDbAttribute
  2
#02
 70
0
 71
1
 72
0
  0
ATTRIB
  5
3A
330
2F
100
AcDbEntity
  8
0
 62
1
100
AcDbText
 10
160.352604170419
 20
92.10800196853234
 30
0.0
 40
29.25
  1
Phúc
  7
Tahoma (Input Text)
100
AcDbAttribute
  2
#01
 70
0
 71
1
 72
0
  0
SEQEND
  5
3B
330
17
100
AcDbEntity
  8
0
 62
7
  0
LWPOLYLINE
  5
3C
330
17
100
AcDbEntity
  8
0
100
AcDbPolyline
 90
4
 70
1
 10
369.0008495477905
 20
2230.95261389852
 10
919.0008495477905
 20
2230.95261389852
 10
919.0008495477905
 20
830.9526138985311
 10
369.0008495477905
 20
830.9526138985311
  0
DIMENSION
  5
3D
330
17
100
AcDbEntity
  8
DIM
100
AcDbDimension
280
0
  2
*D1
  3
CNC
 10
919.0008495477905
 20
2298.9448307932507
 30
0.0
 11
644.0008495477905
 21
2334.473480179331
 31
0.0
 70
32
 71
5
 42
550.0
 73
0
 74
0
 75
0
100
AcDbAlignedDimension
 13
369.0008495477905
 23
2230.95261389852
 33
0.0
 14
919.0008495477905
 24
2230.95261389852
 34
0.0
 50
0.0
100
AcDbRotatedDimension
  0
DIMENSION
  5
44
330
17
100
AcDbEntity
  8
DIM
100
AcDbDimension
280
0
  2
*D2
  3
CNC
 10
296.7613343787307
 20
830.9526138985311
 30
0.0
 11
261.2326849926594
 21
1530.9526138985202
 31
0.0
 70
32
 71
5
 42
1400.0
 73
0
 74
0
 75
0
100
AcDbAlignedDimension
 13
369.0008495477905
 23
2230.95261389852
 33
0.0
 14
369.0008495477905
 24
830.9526138985311
 34
0.0
 50
90.0
100
AcDbRotatedDimension
  0
LWPOLYLINE
  5
45
330
17
100
AcDbEntity
  8
0
 62
2
100
AcDbPolyline
 90
4
 70
1
 10
915.5008495477905
 20
2150.20261389852
 10
904.5008495477905
 20
2150.20261389852
 10
904.5008495477905
 20
2141.702613898531
 10
915.5008495477905
 20
2141.702613898531
  0
INSERT
  5
46
330
17
100
AcDbEntity
  8
0
 62
7
100
AcDbBlockReference
  2
HL003-2-2
 10
902.0008495477905
 20
2139.952613898531
 30
0.0
  0
LWPOLYLINE
  5
48
330
17
100
AcDbEntity
  8
0
 62
2
100
AcDbPolyline
 90
4
 70
1
 10
916.5008495477905
 20
910.7026138985311
 10
905.5008495477905
 20
910.7026138985311
 10
905.5008495477905
 20
919.2026138985202
 10
916.5008495477905
 20
919.2026138985202
  0
INSERT
  5
49
330
17
100
AcDbEntity
  8
0
 62
7
100
AcDbBlockReference
  2
HL003-2-2
 10
903.0008495477905
 20
920.9526138985311
 30
0.0
 41
-1.0
 50
180.0
  0
LWPOLYLINE
  5
4B
330
17
100
AcDbEntity
  8
0
 62
7
100
AcDbPolyline
 90
8
 70
1
 10
891.0008495477905
 20
561.6000502369716
 10
891.0008495477905
 20
571.6000502369716
 10
397.0008495477905
 20
571.6000502369716
 10
397.0008495477905
 20
561.6000502369716
 10
396.0008495477905
 20
561.6000502369716
 10
396.0008495477905
 20
572.6000502369716
 10
892.0008495477905
 20
572.6000502369716
 10
892.0008495477905
 20
561.6000502369716
  0
DIMENSION
  5
4C
330
17
100
AcDbEntity
  8
DIM
 62
7
100
AcDbDimension
280
0
  2
*D3
  3
Dim-25
 10
919.0008495477905
 20
631.5772391459432
 30
0.0
 11
644.0008495477905
 21
654.3415638389815
 31
0.0
 70
32
 71
5
 42
550.0
 73
0
 74
0
 75
0
100
AcDbAlignedDimension
 13
369.0008495477905
 23
572.6000502369716
 33
0.0
 14
919.0008495477905
 24
572.6000502369716
 34
0.0
 50
0.0
100
AcDbRotatedDimension
  0
DIMENSION
  5
51
330
17
100
AcDbEntity
  8
DIM
 62
7
100
AcDbDimension
280
0
  2
*D4
  3
Dim-25
 10
294.7730761880903
 20
272.60005023696067
 30
0.0
 11
272.0002248920391
 21
422.6000502369716
 31
0.0
 70
32
 71
5
 42
300.0
 73
0
 74
0
 75
0
100
AcDbAlignedDimension
 13
369.0008495477905
 23
572.6000502369716
 33
0.0
 14
370.0008495477905
 24
272.6000502369716
 34
0.0
 50
90.0
100
AcDbRotatedDimension
  0
LWPOLYLINE
  5
52
330
17
100
AcDbEntity
  8
0
 62
7
100
AcDbPolyline
 90
12
 70
1
 10
907.0008495477905
 20
290.6000502369716
 10
917.0008495477905
 20
290.6000502369716
 10
917.0008495477905
 20
273.6000502369716
 10
371.0008495477905
 20
273.6000502369716
 10
371.0008495477905
 20
290.6000502369716
 10
381.0008495477905
 20
290.6000502369716
 10
381.0008495477905
 20
291.6000502369716
 10
370.0008495477905
 20
291.6000502369716
 10
370.0008495477905
 20
272.6000502369716
 10
918.0008495477905
 20
272.6000502369716
 10
918.0008495477905
 20
291.6000502369716
 10
907.0008495477905
 20
291.6000502369716
  0
LWPOLYLINE
  5
53
330
17
100
AcDbEntity
  8
0
 62
7
100
AcDbPolyline
 90
12
 70
1
 10
893.0008495477905
 20
561.6000502369716
 10
893.0008495477905
 20
571.6000502369716
 10
918.0008495477905
 20
571.6000502369716
 10
918.0008495477905
 20
293.6000502369716
 10
893.0008495477905
 20
293.6000502369716
 10
893.0008495477905
 20
303.6000502369716
 10
892.0008495477905
 20
303.6000502369716
 10
892.0008495477905
 20
292.6000502369716
 10
919.0008495477905
 20
292.6000502369716
 10
919.0008495477905
 20
572.6000502369716
 10
892.0008495477905
 20
572.6000502369716
 10
892.0008495477905
 20
561.6000502369716
  0
INSERT
  5
54
330
17
100
AcDbEntity
  8
0
 62
7
100
AcDbBlockReference
  2
HL003-2-3
 10
903.0008495477905
 20
292.6000502369716
 30
0.0
 41
-1.0
 50
180.0
  0
LWPOLYLINE
  5
56
330
17
100
AcDbEntity
  8
0
 62
7
100
AcDbPolyline
 90
12
 70
1
 10
395.0008495477905
 20
561.6000502369716
 10
395.0008495477905
 20
571.6000502369716
 10
370.0008495477905
 20
571.6000502369716
 10
370.0008495477905
 20
293.6000502369716
 10
395.0008495477905
 20
293.6000502369716
 10
395.0008495477905
 20
303.6000502369716
 10
396.0008495477905
 20
303.6000502369716
 10
396.0008495477905
 20
292.6000502369716
 10
369.0008495477905
 20
292.6000502369716
 10
369.0008495477905
 20
572.6000502369716
 10
396.0008495477905
 20
572.6000502369716
 10
396.0008495477905
 20
561.6000502369716
  0
LWPOLYLINE
  5
57
330
17
100
AcDbEntity
  8
0
 62
7
100
AcDbPolyline
 90
3
 70
0
 10
2166.432616333879
 20
831.9526138985202
 10
2166.432616333879
 20
2230.95261389852
 10
2177.432616333879
 20
2230.95261389852
  0
LWPOLYLINE
  5
58
330
17
100
AcDbEntity
  8
0
 62
7
100
AcDbPolyline
 90
6
 70
0
 10
2177.432616333879
 20
2229.952613898531
 10
2167.432616333879
 20
2229.952613898531
 10
2167.432616333879
 20
831.9526138985202
 10
2177.432616333879
 20
831.9526138985202
 10
2177.432616333879
 20
831.9526138985202
 10
2167.432616333879
 20
831.9526138985202
  0
DIMENSION
  5
59
330
17
100
AcDbEntity
  8
DIM
 62
7
100
AcDbDimension
280
0
  2
*D5
  3
CNC
 10
1952.0415882791804
 20
2230.95261389852
 30
0.0
 11
1952.0415882791804
 21
1530.9526138985202
 31
0.0
 70
160
 71
5
 42
1400.0
 73
0
 74
0
 75
0
100
AcDbAlignedDimension
 13
2166.432616333879
 23
830.9526138985311
 33
0.0
 14
2166.432616333879
 24
2230.95261389852
 34
0.0
 50
90.0
100
AcDbRotatedDimension
  0
LWPOLYLINE
  5
5A
330
17
100
AcDbEntity
  8
0
 62
7
100
AcDbPolyline
 90
12
 70
1
 10
2448.432616333879
 20
2218.95261389852
 10
2448.432616333879
 20
2228.95261389852
 10
2465.432616333879
 20
2228.95261389852
 10
2465.432616333879
 20
1533.9526138985311
 10
2448.432616333879
 20
1533.9526138985311
 10
2448.432616333879
 20
1543.9526138985311
 10
2447.432616333879
 20
1543.9526138985311
 10
2447.432616333879
 20
1532.9526138985202
 10
2466.432616333879
 20
1532.9526138985202
 10
2466.432616333879
 20
2229.952613898531
 10
2447.432616333879
 20
2229.952613898531
 10
2447.432616333879
 20
2218.95261389852
  0
LWPOLYLINE
  5
5B
330
17
100
AcDbEntity
  8
0
 62
7
100
AcDbPolyline
 90
11
 70
0
 10
2167.432616333879
 20
2229.952613898531
 10
2445.432616333879
 20
2229.952613898531
 10
2445.432616333879
 20
2204.952613898531
 10
2435.432616333879
 20
2204.952613898531
 10
2435.432616333879
 20
2203.95261389852
 10
2446.432616333879
 20
2203.95261389852
 10
2446.432616333879
 20
2230.95261389852
 10
2166.432616333879
 20
2230.95261389852
 10
2166.432616333879
 20
2230.95261389852
 10
2177.432616333879
 20
2230.95261389852
 10
2167.432616333879
 20
2230.95261389852
  0
LWPOLYLINE
  5
5C
330
17
100
AcDbEntity
  8
0
 62
7
100
AcDbPolyline
 90
9
 70
0
 10
2167.432616333879
 20
831.9526138985202
 10
2445.432616333879
 20
831.9526138985202
 10
2445.432616333879
 20
856.9526138985202
 10
2435.432616333879
 20
856.9526138985202
 10
2435.432616333879
 20
857.9526138985311
 10
2446.432616333879
 20
857.9526138985311
 10
2446.432616333879
 20
830.9526138985311
 10
2166.432616333879
 20
830.9526138985311
 10
2166.432616333879
 20
831.9526138985202
  0
LWPOLYLINE
  5
5D
330
17
100
AcDbEntity
  8
0
 62
7
100
AcDbPolyline
 90
2
 70
0
 10
2167.432616333879
 20
831.9526138985202
 10
2177.432616333879
 20
831.9526138985202
  0
LWPOLYLINE
  5
5E
330
17
100
AcDbEntity
  8
0
 62
7
100
AcDbPolyline
 90
2
 70
0
 10
2177.432616333879
 20
830.9526138985311
 10
2167.432616333879
 20
830.9526138985311
  0
DIMENSION
  5
5F
330
17
100
AcDbEntity
  8
DIM
100
AcDbDimension
280
0
  2
*D6
  3
CNC
 10
2466.432616333879
 20
2306.940931960533
 30
0.0
 11
2316.432616333879
 21
2342.4866345526207
 31
0.0
 70
32
 71
5
 42
300.0
 73
0
 74
0
 75
0
100
AcDbAlignedDimension
 13
2166.432616333879
 23
2230.95261389852
 33
0.0
 14
2466.432616333879
 24
2230.95261389852
 34
0.0
 50
0.0
100
AcDbRotatedDimension
  0
LWPOLYLINE
  5
60
330
17
100
AcDbEntity
  8
0
 62
3
100
AcDbPolyline
 90
4
 70
0
 10
2167.432616333879
 20
1514.4526138985202
 10
2446.432616333879
 20
1514.4526138985202
 10
2446.432616333879
 20
1547.4526138985311
 10
2436.432616333879
 20
1547.4526138985311
  0
LWPOLYLINE
  5
61
330
17
100
AcDbEntity
  8
0
 62
3
100
AcDbPolyline
 90
4
 70
0
 10
2167.432616333879
 20
1515.4526138985311
 10
2445.432616333879
 20
1515.4526138985311
 10
2445.432616333879
 20
1546.4526138985202
 10
2436.432616333879
 20
1546.4526138985202
  0
LWPOLYLINE
  5
62
330
17
100
AcDbEntity
  8
0
 62
2
100
AcDbPolyline
 90
4
 70
1
 10
421.5008495477905
 20
1906.7026138985202
 10
444.5008495477905
 20
1906.7026138985202
 10
444.5008495477905
 20
1843.7026138985202
 10
421.5008495477905
 20
1843.7026138985202
  0
CIRCLE
  5
63
330
17
100
AcDbEntity
  8
0
 62
2
100
AcDbCircle
 10
433.0008495478196
 20
1910.7026138985202
 30
0.0
 40
4.0
  0
CIRCLE
  5
64
330
17
100
AcDbEntity
  8
0
 62
2
100
AcDbCircle
 10
433.0008495478196
 20
1839.7026138985202
 30
0.0
 40
4.0
  0
INSERT
  5
65
330
17
100
AcDbEntity
  8
0
 62
7
100
AcDbBlockReference
  2
khoado
 10
419.0008495477905
 20
1832.7026138985202
 30
0.0
  0
LWPOLYLINE
  5
67
330
17
100
AcDbEntity
  8
0
 62
7
100
AcDbPolyline
 90
12
 70
1
 10
2448.432616333879
 20
842.9526138985202
 10
2448.432616333879
 20
832.9526138985311
 10
2465.432616333879
 20
832.9526138985311
 10
2465.432616333879
 20
1527.9526138985202
 10
2448.432616333879
 20
1527.9526138985202
 10
2448.432616333879
 20
1517.9526138985202
 10
2447.432616333879
 20
1517.9526138985202
 10
2447.432616333879
 20
1528.9526138985202
 10
2466.432616333879
 20
1528.9526138985202
 10
2466.432616333879
 20
831.9526138985202
 10
2447.432616333879
 20
831.9526138985202
 10
2447.432616333879
 20
842.9526138985202
  0
LWPOLYLINE
  5
68
330
17
100
AcDbEntity
  8
0
100
AcDbPolyline
 90
4
 70
1
 10
370.5008495477905
 20
2229.452613898531
 10
917.5008495477905
 20
2229.452613898531
 10
917.5008495477905
 20
832.4526138985202
 10
370.5008495477905
 20
832.4526138985202
  0
LWPOLYLINE
  5
69
330
17
100
AcDbEntity
  8
0
 62
2
100
AcDbPolyline
 90
4
 70
1
 10
915.5008495477905
 20
1600.2026138985202
 10
904.5008495477905
 20
1600.2026138985202
 10
904.5008495477905
 20
1608.7026138985311
 10
915.5008495477905
 20
1608.7026138985311
  0
INSERT
  5
6A
330
17
100
AcDbEntity
  8
0
 62
7
100
AcDbBlockReference
  2
HL003-2-2
 10
902.0008495477905
 20
1610.4526138985311
 30
0.0
 41
-1.0
 50
180.0
  0
LWPOLYLINE
  5
6C
330
17
100
AcDbEntity
  8
0
 62
2
100
AcDbPolyline
 90
4
 70
1
 10
915.5008495477905
 20
911.7026138985202
 10
904.5008495477905
 20
911.7026138985202
 10
904.5008495477905
 20
920.2026138985202
 10
915.5008495477905
 20
920.2026138985202
  0
INSERT
  5
6D
330
17
100
AcDbEntity
  8
0
 62
7
100
AcDbBlockReference
  2
HL003-2-2
 10
902.0008495477905
 20
921.9526138985202
 30
0.0
 41
-1.0
 50
180.0
  0
LWPOLYLINE
  5
6F
330
17
100
AcDbEntity
  8
0
 62
2
100
AcDbPolyline
 90
4
 70
1
 10
915.5008495477905
 20
1461.7026138985311
 10
904.5008495477905
 20
1461.7026138985311
 10
904.5008495477905
 20
1453.2026138985202
 10
915.5008495477905
 20
1453.2026138985202
  0
INSERT
  5
70
330
17
100
AcDbEntity
  8
0
 62
7
100
AcDbBlockReference
  2
HL003-2-2
 10
902.0008495477905
 20
1451.4526138985202
 30
0.0
  0
LWPOLYLINE
  5
72
330
17
100
AcDbEntity
  8
0
  6
HIDDENX2
100
AcDbPolyline
 90
3
 70
0
 10
428.94529172833063
 20
1048.9526138985202
 10
428.94529172833063
 20
923.9526138985202
 10
553.9452917283306
 20
923.9526138985202
  0
LWPOLYLINE
  5
73
330
17
100
AcDbEntity
  8
0
  6
HIDDENX2
100
AcDbPolyline
 90
3
 70
0
 10
453.94529172833063
 20
1048.9526138985202
 10
453.94529172833063
 20
948.9526138985311
 10
553.9452917283306
 20
948.9526138985311
  0
LWPOLYLINE
  5
74
330
17
100
AcDbEntity
  8
0
 62
2
100
AcDbPolyline
 90
8
 70
1
 10
503.94529172833063
 20
963.9526138985202
 10
783.9452917283306
 20
963.9526138985311
 42
0.4142135623730951
 10
818.9452917283306
 20
998.9526138985311
 10
818.9452917283306
 20
1374.4526138985202
 42
0.4142135623731023
 10
783.9452917283306
 20
1409.4526138985202
 10
503.94529172833063
 20
1409.4526138985202
 42
0.4142135623730964
 10
468.94529172833063
 20
1374.4526138985202
 10
468.94529172833063
 20
998.9526138985311
 42
0.4142135623730951
  0
HATCH
  5
75
330
17
100
AcDbEntity
  8
0
 62
4
 48
3.0
100
AcDbHatch
 10
0.0
 20
0.0
 30
0.0
210
0.0
220
0.0
230
1.0
  2
ANSI31
 70
0
 71
0
 91
1
 92
1
 93
4
 72
1
 10
457.94529172833063
 20
952.9526138985311
 11
829.9452917283306
 21
952.9526138985311
 72
1
 10
829.9452917283306
 20
952.9526138985311
 11
829.9452917283306
 21
1420.4526138985202
 72
1
 10
829.9452917283306
 20
1420.4526138985202
 11
457.94529172833063
 21
1420.4526138985202
 72
1
 10
457.94529172833063
 20
1420.4526138985202
 11
457.94529172833063
 21
952.9526138985311
 97
1
330
DDECE
 75
0
 76
1
 52
0.0
 41
100.0
 77
0
 78
1
 53
315.0
 43
-2205.5557819465
 44
-7013083.375038617
 45
-883.8834764832
 46
-883.8834764832
 79
0
 98
1
 10
-22.05555781946532
 20
-70130.83375038617
  0
LWPOLYLINE
  5
76
330
17
100
AcDbEntity
  8
0
 62
4
100
AcDbPolyline
 90
4
 70
1
 10
457.94529172833063
 20
952.9526138985311
 10
829.9452917283306
 20
952.9526138985311
 10
829.9452917283306
 20
1420.4526138985202
 10
457.94529172833063
 20
1420.4526138985202
  0
LWPOLYLINE
  5
77
330
17
100
AcDbEntity
  8
0
 62
2
100
AcDbPolyline
 90
4
 70
1
 10
421.5008495477905
 20
1218.2026138985311
 10
444.5008495477905
 20
1218.2026138985311
 10
444.5008495477905
 20
1155.2026138985311
 10
421.5008495477905
 20
1155.2026138985311
  0
CIRCLE
  5
78
330
17
100
AcDbEntity
  8
0
 62
2
100
AcDbCircle
 10
433.0008495478196
 20
1222.2026138985202
 30
0.0
 40
4.0
  0
CIRCLE
  5
79
330
17
100
AcDbEntity
  8
0
 62
2
100
AcDbCircle
 10
433.0008495478196
 20
1151.2026138985311
 30
0.0
 40
4.0
  0
INSERT
  5
7A
330
17
100
AcDbEntity
  8
0
 62
7
100
AcDbBlockReference
  2
khoado
 10
419.0008495477905
 20
1144.2026138985202
 30
0.0
  0
LINE
  5
7C
330
17
100
AcDbEntity
  8
0
  6
HIDDENX2
 62
7
 48
3.0
100
AcDbLine
 10
428.94529172833063
 20
923.9526138985202
 30
0.0
 11
453.94529172833063
 21
948.9526138985311
 31
0.0
  0
LINE
  5
7D
330
17
100
AcDbEntity
  8
0
  6
HIDDENX2
 62
7
 48
3.0
100
AcDbLine
 10
833.9452917283306
 20
948.9526138985311
 30
0.0
 11
858.9452917283306
 21
923.9526138985202
 31
0.0
  0
LINE
  5
7E
330
17
100
AcDbEntity
  8
0
  6
HIDDENX2
 62
7
 48
3.0
100
AcDbLine
 10
833.9452917283306
 20
1424.4526138985202
 30
0.0
 11
858.9452917283306
 21
1449.4526138985202
 31
0.0
  0
LINE
  5
7F
330
17
100
AcDbEntity
  8
0
  6
HIDDENX2
 62
7
 48
3.0
100
AcDbLine
 10
453.94529172833063
 20
1424.4526138985202
 30
0.0
 11
428.94529172833063
 21
1449.4526138985202
 31
0.0
  0
LWPOLYLINE
  5
80
330
17
100
AcDbEntity
  8
0
100
AcDbPolyline
 90
4
 70
1
 10
1196.0689938207997
 20
2230.95261389852
 10
1746.0689938208106
 20
2230.95261389852
 10
1746.0689938208106
 20
830.9526138985311
 10
1196.0689938207997
 20
830.9526138985311
  0
LWPOLYLINE
  5
81
330
17
100
AcDbEntity
  8
0
100
AcDbPolyline
 90
4
 70
1
 10
1197.5689938208106
 20
2229.452613898531
 10
1744.5689938208106
 20
2229.452613898531
 10
1744.5689938208106
 20
832.4526138985202
 10
1197.5689938208106
 20
832.4526138985202
  0
LWPOLYLINE
  5
82
330
17
100
AcDbEntity
  8
0
100
AcDbPolyline
 90
4
 70
1
 10
1224.0689938208106
 20
2202.952613898531
 10
1718.0689938208106
 20
2202.952613898531
 10
1718.0689938208106
 20
1547.4526138985311
 10
1224.0689938208106
 20
1547.4526138985311
  0
DIMENSION
  5
83
330
17
100
AcDbEntity
  8
DIM
100
AcDbDimension
280
0
  2
*D7
  3
CNC
 10
1746.0689938208106
 20
2298.9448307932507
 30
0.0
 11
1471.0689938208106
 21
2334.473480179331
 31
0.0
 70
32
 71
5
 42
550.0
 73
0
 74
0
 75
0
100
AcDbAlignedDimension
 13
1196.0689938207997
 23
2230.95261389852
 33
0.0
 14
1746.0689938208106
 24
2230.95261389852
 34
0.0
 50
0.0
100
AcDbRotatedDimension
  0
DIMENSION
  5
84
330
17
100
AcDbEntity
  8
DIM
100
AcDbDimension
280
0
  2
*D8
  3
CNC
 10
1123.829478651749
 20
830.9526138985311
 30
0.0
 11
1088.3008292656705
 21
1530.9526138985202
 31
0.0
 70
32
 71
5
 42
1400.0
 73
0
 74
0
 75
0
100
AcDbAlignedDimension
 13
1196.0689938207997
 23
2230.95261389852
 33
0.0
 14
1196.0689938207997
 24
830.9526138985311
 34
0.0
 50
90.0
100
AcDbRotatedDimension
  0
LWPOLYLINE
  5
85
330
17
100
AcDbEntity
  8
0
 62
2
100
AcDbPolyline
 90
4
 70
1
 10
1742.5689938208106
 20
2150.20261389852
 10
1731.5689938207997
 20
2150.20261389852
 10
1731.5689938207997
 20
2141.702613898531
 10
1742.5689938208106
 20
2141.702613898531
  0
INSERT
  5
86
330
17
100
AcDbEntity
  8
0
 62
7
100
AcDbBlockReference
  2
HL003-2-2
 10
1729.0689938208106
 20
2139.952613898531
 30
0.0
  0
LWPOLYLINE
  5
88
330
17
100
AcDbEntity
  8
0
100
AcDbPolyline
 90
4
 70
1
 10
1224.0689938208106
 20
858.9526138985202
 10
1718.0689938208106
 20
858.9526138985202
 10
1718.0689938208106
 20
1514.4526138985202
 10
1224.0689938208106
 20
1514.4526138985202
  0
LINE
  5
89
330
17
100
AcDbEntity
  8
0
 62
7
 48
3.0
100
AcDbLine
 10
1196.0689938207997
 20
2230.95261389852
 30
0.0
 11
1224.0689938208106
 21
2202.952613898531
 31
0.0
  0
LINE
  5
8A
330
17
100
AcDbEntity
  8
0
 62
7
 48
3.0
100
AcDbLine
 10
1718.0689938208106
 20
2202.952613898531
 30
0.0
 11
1746.0689938208106
 21
2230.95261389852
 31
0.0
  0
LINE
  5
8B
330
17
100
AcDbEntity
  8
0
 62
7
 48
3.0
100
AcDbLine
 10
1224.0689938208106
 20
858.9526138985202
 30
0.0
 11
1196.0689938207997
 21
830.9526138985311
 31
0.0
  0
LINE
  5
8C
330
17
100
AcDbEntity
  8
0
 62
7
 48
3.0
100
AcDbLine
 10
1718.0689938208106
 20
858.9526138985202
 30
0.0
 11
1746.0689938208106
 21
830.9526138985311
 31
0.0
  0
DIMENSION
  5
8D
330
17
100
AcDbEntity
  8
DIM
 62
7
 48
3.0
100
AcDbDimension
280
0
  2
*D9
  3
Dim-25
 10
2085.87612118572
 20
1530.9526138985202
 30
0.0
 11
2063.11179649268
 21
1880.9526138985202
 31
0.0
 70
32
 71
5
 42
700.0
 73
0
 74
0
 75
0
100
AcDbAlignedDimension
 13
2166.432616333879
 23
2230.95261389852
 33
0.0
 14
2446.432616333879
 24
1530.9526138985202
 34
0.0
 50
90.0
100
AcDbRotatedDimension
  0
DIMENSION
  5
8E
330
17
100
AcDbEntity
  8
DIM
 62
7
 48
3.0
100
AcDbDimension
280
0
  2
*D10
  3
Dim-25
 10
2085.87612118572
 20
830.9526138985311
 30
0.0
 11
2063.11179649268
 21
1180.9526138985202
 31
0.0
 70
32
 71
5
 42
700.0
 73
0
 74
0
 75
0
100
AcDbAlignedDimension
 13
2446.432616333879
 23
1530.9526138985202
 33
0.0
 14
2166.432616333879
 24
830.9526138985311
 34
0.0
 50
90.0
100
AcDbRotatedDimension
  0
LINE
  5
8F
330
17
100
AcDbEntity
  8
S-CONCRETE
 62
8
100
AcDbLine
 10
1745.0689938208106
 20
2060.95261389852
 30
0.0
 11
1644.0689938208106
 21
2060.95261389852
 31
0.0
  0
LINE
  5
90
330
17
100
AcDbEntity
  8
S-CONCRETE
 62
8
100
AcDbLine
 10
1745.0689938208106
 20
2059.45261389852
 30
0.0
 11
1647.6689938213694
 21
2059.45261389852
 31
0.0
  0
LINE
  5
91
330
17
100
AcDbEntity
  8
S-CONCRETE
 62
8
100
AcDbLine
 10
1644.0689938208106
 20
2060.95261389852
 30
0.0
 11
1745.0689938208106
 21
2018.8692805651917
 31
0.0
  0
INSERT
  5
92
330
17
100
AcDbEntity
  8
0
 62
7
100
AcDbBlockReference
  2
gg
 10
12517.02514015254
 20
36144.16173321192
 30
0.0
  0
DIMENSION
  5
94
330
17
100
AcDbEntity
  8
DIM
 62
7
 48
3.0
100
AcDbDimension
280
0
  2
*D11
  3
Dim-25
 10
1821.4256372891796
 20
2060.95261389852
 30
0.0
 11
1798.6613125961394
 21
2145.95261389852
 31
0.0
 70
32
 71
5
 42
170.0
 73
0
 74
0
 75
0
100
AcDbAlignedDimension
 13
1746.0689938208106
 23
2230.95261389852
 33
0.0
 14
1746.0689938208106
 24
2060.95261389852
 34
0.0
 50
90.0
100
AcDbRotatedDimension
  0
DIMENSION
  5
95
330
17
100
AcDbEntity
  8
DIM
 62
7
 48
3.0
100
AcDbDimension
280
0
  2
*D12
  3
Dim-25
 10
818.9452917283306
 20
1480.2535008512532
 30
0.0
 11
644.0008495477905
 21
1503.0263521472916
 31
0.0
 70
32
 71
5
 42
349.8888843610694
 73
0
 74
0
 75
0
100
AcDbAlignedDimension
 13
469.05640736725945
 23
1377.2393230760208
 33
0.0
 14
818.9452917283306
 24
1377.2393230760208
 34
0.0
 50
0.0
100
AcDbRotatedDimension
  0
DIMENSION
  5
96
330
17
100
AcDbEntity
  8
DIM
 62
7
 48
3.0
100
AcDbDimension
280
0
  2
*D13
  3
Dim-25
 10
872.4351250529398
 20
963.9526138985311
 30
0.0
 11
849.6708003599106
 21
1186.7026138985202
 31
0.0
 70
32
 71
5
 42
445.4999999999854
 73
0
 74
0
 75
0
100
AcDbAlignedDimension
 13
765.0599951387994
 23
1409.4526138985202
 33
0.0
 14
765.0599951388103
 24
963.9526138985311
 34
0.0
 50
90.0
100
AcDbRotatedDimension
  0
MTEXT
  5
97
330
17
100
AcDbEntity
  8
0
 62
2
100
AcDbMText
 10
657.1462036017292
 20
747.7538829056102
 30
0.0
 40
25.0
 41
575.0000000000146
 46
100.0000000000031
 71
5
 72
5
  1
Mặt ngoài tủ
  0
MTEXT
  5
98
330
17
100
AcDbEntity
  8
0
 62
2
100
AcDbMText
 10
1517.6588614522407
 20
761.6509904153936
 30
0.0
 40
25.0
 41
575.0000000000146
 46
100.0000000000031
 71
5
 72
5
  1
Mặt trong tủ
  0
MTEXT
  5
99
330
17
100
AcDbEntity
  8
0
 62
2
100
AcDbMText
 10
2313.7070628809706
 20
739.5234946031414
 30
0.0
 40
25.0
 41
775.0000000000146
 46
100.0000000000031
 71
5
 72
5
  1
Hông trái
  0
LWPOLYLINE
  5
9A
330
17
100
AcDbEntity
  8
0
 62
7
100
AcDbPolyline
 90
3
 70
0
 10
2924.5313241226195
 20
831.9526138985202
 10
2924.5313241226195
 20
2230.95261389852
 10
2913.5313241226195
 20
2230.95261389852
  0
LWPOLYLINE
  5
9B
330
17
100
AcDbEntity
  8
0
 62
7
100
AcDbPolyline
 90
6
 70
0
 10
2913.5313241226195
 20
2229.952613898531
 10
2923.5313241226195
 20
2229.952613898531
 10
2923.5313241226195
 20
831.9526138985202
 10
2913.5313241226195
 20
831.9526138985202
 10
2913.5313241226195
 20
831.9526138985202
 10
2923.5313241226195
 20
831.9526138985202
  0
DIMENSION
  5
9C
330
17
100
AcDbEntity
  8
DIM
 62
7
100
AcDbDimension
280
0
  2
*D14
  3
CNC
 10
3138.922352177313
 20
2230.95261389852
 30
0.0
 11
3138.9223521773183
 21
1530.9526138985202
 31
0.0
 70
160
 71
5
 42
1400.0
 73
0
 74
0
 75
0
100
AcDbAlignedDimension
 13
2924.5313241226195
 23
830.9526138985311
 33
0.0
 14
2924.5313241226195
 24
2230.95261389852
 34
0.0
 50
90.0
100
AcDbRotatedDimension
  0
LWPOLYLINE
  5
9D
330
17
100
AcDbEntity
  8
0
 62
7
100
AcDbPolyline
 90
12
 70
1
 10
2642.5313241226195
 20
2218.95261389852
 10
2642.5313241226195
 20
2228.95261389852
 10
2625.5313241226195
 20
2228.95261389852
 10
2625.5313241226195
 20
1533.9526138985311
 10
2642.5313241226195
 20
1533.9526138985311
 10
2642.5313241226195
 20
1543.9526138985311
 10
2643.5313241226195
 20
1543.9526138985311
 10
2643.5313241226195
 20
1532.9526138985202
 10
2624.5313241226195
 20
1532.9526138985202
 10
2624.5313241226195
 20
2229.952613898531
 10
2643.5313241226195
 20
2229.952613898531
 10
2643.5313241226195
 20
2218.95261389852
  0
LWPOLYLINE
  5
9E
330
17
100
AcDbEntity
  8
0
 62
7
100
AcDbPolyline
 90
11
 70
0
 10
2923.5313241226195
 20
2229.952613898531
 10
2645.5313241226195
 20
2229.952613898531
 10
2645.5313241226195
 20
2204.952613898531
 10
2655.5313241226195
 20
2204.952613898531
 10
2655.5313241226195
 20
2203.95261389852
 10
2644.5313241226195
 20
2203.95261389852
 10
2644.5313241226195
 20
2230.95261389852
 10
2924.5313241226195
 20
2230.95261389852
 10
2924.5313241226195
 20
2230.95261389852
 10
2913.5313241226195
 20
2230.95261389852
 10
2923.5313241226195
 20
2230.95261389852
  0
LWPOLYLINE
  5
9F
330
17
100
AcDbEntity
  8
0
 62
7
100
AcDbPolyline
 90
9
 70
0
 10
2923.5313241226195
 20
831.9526138985202
 10
2645.5313241226195
 20
831.9526138985202
 10
2645.5313241226195
 20
856.9526138985202
 10
2655.5313241226195
 20
856.9526138985202
 10
2655.5313241226195
 20
857.9526138985311
 10
2644.5313241226195
 20
857.9526138985311
 10
2644.5313241226195
 20
830.9526138985311
 10
2924.5313241226195
 20
830.9526138985311
 10
2924.5313241226195
 20
831.9526138985202
  0
LWPOLYLINE
  5
A0
330
17
100
AcDbEntity
  8
0
 62
7
100
AcDbPolyline
 90
2
 70
0
 10
2923.5313241226195
 20
831.9526138985202
 10
2913.5313241226195
 20
831.9526138985202
  0
LWPOLYLINE
  5
A1
330
17
100
AcDbEntity
  8
0
 62
7
100
AcDbPolyline
 90
2
 70
0
 10
2913.5313241226195
 20
830.9526138985311
 10
2923.5313241226195
 20
830.9526138985311
  0
DIMENSION
  5
A2
330
17
100
AcDbEntity
  8
DIM
100
AcDbDimension
280
0
  2
*D15
  3
CNC
 10
2624.5313241226195
 20
2306.940931960533
 30
0.0
 11
2774.5313241226195
 21
2342.4866345526207
 31
0.0
 70
32
 71
5
 42
300.0
 73
0
 74
0
 75
0
100
AcDbAlignedDimension
 13
2924.5313241226195
 23
2230.95261389852
 33
0.0
 14
2624.5313241226195
 24
2230.95261389852
 34
0.0
 50
180.0
100
AcDbRotatedDimension
  0
LWPOLYLINE
  5
A3
330
17
100
AcDbEntity
  8
0
 62
3
100
AcDbPolyline
 90
4
 70
0
 10
2923.5313241226195
 20
1514.4526138985202
 10
2644.5313241226195
 20
1514.4526138985202
 10
2644.5313241226195
 20
1547.4526138985311
 10
2654.5313241226195
 20
1547.4526138985311
  0
LWPOLYLINE
  5
A4
330
17
100
AcDbEntity
  8
0
 62
3
100
AcDbPolyline
 90
4
 70
0
 10
2923.5313241226195
 20
1515.4526138985311
 10
2645.5313241226195
 20
1515.4526138985311
 10
2645.5313241226195
 20
1546.4526138985202
 10
2654.5313241226195
 20
1546.4526138985202
  0
LWPOLYLINE
  5
A5
330
17
100
AcDbEntity
  8
0
 62
7
100
AcDbPolyline
 90
12
 70
1
 10
2642.5313241226195
 20
842.9526138985202
 10
2642.5313241226195
 20
832.9526138985311
 10
2625.5313241226195
 20
832.9526138985311
 10
2625.5313241226195
 20
1527.9526138985202
 10
2642.5313241226195
 20
1527.9526138985202
 10
2642.5313241226195
 20
1517.9526138985202
 10
2643.5313241226195
 20
1517.9526138985202
 10
2643.5313241226195
 20
1528.9526138985202
 10
2624.5313241226195
 20
1528.9526138985202
 10
2624.5313241226195
 20
831.9526138985202
 10
2643.5313241226195
 20
831.9526138985202
 10
2643.5313241226195
 20
842.9526138985202
  0
DIMENSION
  5
A6
330
17
100
AcDbEntity
  8
DIM
 62
7
 48
3.0
100
AcDbDimension
280
0
  2
*D16
  3
Dim-25
 10
3005.087819270784
 20
1530.9526138985202
 30
0.0
 11
2982.3234945777476
 21
1880.9526138985202
 31
0.0
 70
32
 71
5
 42
700.0
 73
0
 74
0
 75
0
100
AcDbAlignedDimension
 13
2924.5313241226195
 23
2230.95261389852
 33
0.0
 14
2644.5313241226195
 24
1530.9526138985202
 34
0.0
 50
90.0
100
AcDbRotatedDimension
  0
DIMENSION
  5
A7
330
17
100
AcDbEntity
  8
DIM
 62
7
 48
3.0
100
AcDbDimension
280
0
  2
*D17
  3
Dim-25
 10
3005.087819270784
 20
830.9526138985311
 30
0.0
 11
2982.3234945777476
 21
1180.9526138985202
 31
0.0
 70
32
 71
5
 42
700.0
 73
0
 74
0
 75
0
100
AcDbAlignedDimension
 13
2644.5313241226195
 23
1530.9526138985202
 33
0.0
 14
2924.5313241226195
 24
830.9526138985311
 34
0.0
 50
90.0
100
AcDbRotatedDimension
  0
MTEXT
  5
A8
330
17
100
AcDbEntity
  8
0
 62
2
100
AcDbMText
 10
2773.2006501548403
 20
739.5234946031414
 30
0.0
 40
25.0
 41
775.0000000000146
 46
100.0000000000031
 71
5
 72
5
  1
Hông phải 
  0
MTEXT
  5
A9
330
17
100
AcDbEntity
  8
0
 62
2
100
AcDbMText
 10
657.1462036017292
 20
193.79080325566247
 30
0.0
 40
25.0
 41
575.0000000000146
 46
100.0000000000031
 71
5
 72
5
  1
Mặt cắt ngang
  0
LWPOLYLINE
  5
AA
330
17
100
AcDbEntity
  8
0
  6
HIDDENX2
100
AcDbPolyline
 90
3
 70
0
 10
858.9452917283306
 20
1324.4526138985311
 10
858.9452917283306
 20
1449.4526138985202
 10
734.0564073672504
 20
1449.4526138985202
  0
LWPOLYLINE
  5
AB
330
17
100
AcDbEntity
  8
0
  6
HIDDENX2
100
AcDbPolyline
 90
3
 70
0
 10
833.9452917283306
 20
1324.4526138985311
 10
833.9452917283306
 20
1424.4526138985202
 10
734.0564073672504
 20
1424.4526138985202
  0
LWPOLYLINE
  5
AC
330
17
100
AcDbEntity
  8
0
  6
HIDDENX2
100
AcDbPolyline
 90
3
 70
0
 10
553.9452917283306
 20
1449.4526138985202
 10
428.94529172833063
 20
1449.4526138985202
 10
428.94529172833063
 20
1324.4526138985311
  0
LWPOLYLINE
  5
AD
330
17
100
AcDbEntity
  8
0
  6
HIDDENX2
100
AcDbPolyline
 90
3
 70
0
 10
553.9452917283306
 20
1424.4526138985202
 10
453.94529172833063
 20
1424.4526138985202
 10
453.94529172833063
 20
1324.4526138985311
  0
LWPOLYLINE
  5
AE
330
17
100
AcDbEntity
  8
0
  6
HIDDENX2
100
AcDbPolyline
 90
3
 70
0
 10
734.0564073672504
 20
923.9526138985202
 10
858.9452917283306
 20
923.9526138985202
 10
858.9452917283306
 20
1048.9526138985202
  0
LWPOLYLINE
  5
AF
330
17
100
AcDbEntity
  8
0
  6
HIDDENX2
100
AcDbPolyline
 90
3
 70
0
 10
734.0564073672504
 20
948.9526138985311
 10
833.9452917283306
 20
948.9526138985311
 10
833.9452917283306
 20
1048.9526138985202
  0
LINE
  5
B0
330
17
100
AcDbEntity
  8
0
  6
HIDDENX2
100
AcDbLine
 10
553.9452917283306
 20
1449.4526138985202
 30
0.0
 11
553.9452917283306
 21
1424.4526138985202
 31
0.0
  0
LINE
  5
B1
330
17
100
AcDbEntity
  8
0
  6
HIDDENX2
100
AcDbLine
 10
734.0564073672504
 20
1449.4526138985202
 30
0.0
 11
734.0564073672504
 21
1424.4526138985202
 31
0.0
  0
LINE
  5
B2
330
17
100
AcDbEntity
  8
0
  6
HIDDENX2
100
AcDbLine
 10
833.9452917283306
 20
1324.4526138985311
 30
0.0
 11
858.9452917283306
 21
1324.4526138985311
 31
0.0
  0
LINE
  5
B3
330
17
100
AcDbEntity
  8
0
  6
HIDDENX2
100
AcDbLine
 10
428.94529172833063
 20
1324.4526138985311
 30
0.0
 11
453.94529172833063
 21
1324.4526138985311
 31
0.0
  0
LINE
  5
B4
330
17
100
AcDbEntity
  8
0
 62
7
 48
3.0
100
AcDbLine
 10
428.94529172833063
 20
1048.9526138985202
 30
0.0
 11
453.94529172833063
 21
1048.9526138985202
 31
0.0
  0
LINE
  5
B5
330
17
100
AcDbEntity
  8
0
  6
HIDDENX2
100
AcDbLine
 10
553.9452917283306
 20
948.9526138985311
 30
0.0
 11
553.9452917283306
 21
923.9526138985202
 31
0.0
  0
LINE
  5
B6
330
17
100
AcDbEntity
  8
0
  6
HIDDENX2
100
AcDbLine
 10
734.0564073672504
 20
948.9526138985311
 30
0.0
 11
734.0564073672504
 21
923.9526138985202
 31
0.0
  0
LINE
  5
B7
330
17
100
AcDbEntity
  8
0
  6
HIDDENX2
100
AcDbLine
 10
833.9452917283306
 20
1048.9526138985202
 30
0.0
 11
858.9452917283306
 21
1048.9526138985202
 31
0.0
  0
LWPOLYLINE
  5
B8
330
17
100
AcDbEntity
  8
0
  6
HIDDENX2
100
AcDbPolyline
 90
3
 70
0
 10
428.94529172833063
 20
1737.4526138985202
 10
428.94529172833063
 20
1612.4526138985311
 10
553.9452917283306
 20
1612.4526138985311
  0
LWPOLYLINE
  5
B9
330
17
100
AcDbEntity
  8
0
  6
HIDDENX2
100
AcDbPolyline
 90
3
 70
0
 10
734.0564073672504
 20
1612.4526138985311
 10
858.9452917283306
 20
1612.4526138985311
 10
858.9452917283306
 20
1737.4526138985202
  0
LWPOLYLINE
  5
BA
330
17
100
AcDbEntity
  8
0
  6
HIDDENX2
100
AcDbPolyline
 90
3
 70
0
 10
858.9452917283306
 20
2012.9526138985202
 10
858.9452917283306
 20
2137.952613898531
 10
734.0564073672504
 20
2137.952613898531
  0
LWPOLYLINE
  5
BB
330
17
100
AcDbEntity
  8
0
  6
HIDDENX2
100
AcDbPolyline
 90
3
 70
0
 10
553.9452917283306
 20
2137.952613898531
 10
428.94529172833063
 20
2137.952613898531
 10
428.94529172833063
 20
2012.9526138985202
  0
LWPOLYLINE
  5
BC
330
17
100
AcDbEntity
  8
0
  6
HIDDENX2
100
AcDbPolyline
 90
3
 70
0
 10
453.94529172833063
 20
1737.4526138985202
 10
453.94529172833063
 20
1637.4526138985311
 10
553.9452917283306
 20
1637.4526138985311
  0
LWPOLYLINE
  5
BD
330
17
100
AcDbEntity
  8
0
  6
HIDDENX2
100
AcDbPolyline
 90
3
 70
0
 10
734.0564073672504
 20
1637.4526138985311
 10
833.9452917283306
 20
1637.4526138985311
 10
833.9452917283306
 20
1737.4526138985202
  0
LWPOLYLINE
  5
BE
330
17
100
AcDbEntity
  8
0
  6
HIDDENX2
100
AcDbPolyline
 90
3
 70
0
 10
833.9452917283306
 20
2012.9526138985202
 10
833.9452917283306
 20
2112.95261389852
 10
734.0564073672504
 20
2112.95261389852
  0
LWPOLYLINE
  5
BF
330
17
100
AcDbEntity
  8
0
  6
HIDDENX2
100
AcDbPolyline
 90
3
 70
0
 10
553.9452917283306
 20
2112.95261389852
 10
453.94529172833063
 20
2112.95261389852
 10
453.94529172833063
 20
2012.9526138985202
  0
LWPOLYLINE
  5
C0
330
17
100
AcDbEntity
  8
0
 62
2
100
AcDbPolyline
 90
8
 70
1
 10
503.94529172833063
 20
1652.4526138985311
 10
783.9452917283306
 20
1652.4526138985311
 42
0.4142135623730951
 10
818.9452917283306
 20
1687.4526138985311
 10
818.9452917283306
 20
2062.95261389852
 42
0.4142135623731023
 10
783.9452917283306
 20
2097.95261389852
 10
503.94529172833063
 20
2097.95261389852
 42
0.4142135623730964
 10
468.94529172833063
 20
2062.95261389852
 10
468.94529172833063
 20
1687.4526138985202
 42
0.4142135623730951
  0
HATCH
  5
C1
330
17
100
AcDbEntity
  8
0
 62
4
 48
3.0
100
AcDbHatch
 10
0.0
 20
0.0
 30
0.0
210
0.0
220
0.0
230
1.0
  2
ANSI31
 70
0
 71
0
 91
1
 92
1
 93
4
 72
1
 10
457.94529172833063
 20
1641.4526138985202
 11
829.9452917283306
 21
1641.4526138985202
 72
1
 10
829.9452917283306
 20
1641.4526138985202
 11
829.9452917283306
 21
2108.95261389852
 72
1
 10
829.9452917283306
 20
2108.95261389852
 11
457.94529172833063
 21
2108.95261389852
 72
1
 10
457.94529172833063
 20
2108.95261389852
 11
457.94529172833063
 21
1641.4526138985202
 97
1
330
DE217
 75
0
 76
1
 52
0.0
 41
100.0
 77
0
 78
1
 53
315.0
 43
-2205.5557819465
 44
-6944233.375038617
 45
-883.8834764832
 46
-883.8834764832
 79
0
 98
1
 10
-22.05555781946532
 20
-69442.33375038617
  0
LWPOLYLINE
  5
C2
330
17
100
AcDbEntity
  8
0
 62
4
100
AcDbPolyline
 90
4
 70
1
 10
457.94529172833063
 20
1641.4526138985202
 10
829.9452917283306
 20
1641.4526138985202
 10
829.9452917283306
 20
2108.95261389852
 10
457.94529172833063
 20
2108.95261389852
  0
LINE
  5
C3
330
17
100
AcDbEntity
  8
0
  6
HIDDENX2
 62
7
 48
3.0
100
AcDbLine
 10
428.94529172833063
 20
1612.4526138985311
 30
0.0
 11
453.94529172833063
 21
1637.4526138985311
 31
0.0
  0
LINE
  5
C4
330
17
100
AcDbEntity
  8
0
  6
HIDDENX2
 62
7
 48
3.0
100
AcDbLine
 10
833.9452917283306
 20
1637.4526138985311
 30
0.0
 11
858.9452917283306
 21
1612.4526138985311
 31
0.0
  0
LINE
  5
C5
330
17
100
AcDbEntity
  8
0
  6
HIDDENX2
 62
7
 48
3.0
100
AcDbLine
 10
833.9452917283306
 20
2112.95261389852
 30
0.0
 11
858.9452917283306
 21
2137.952613898531
 31
0.0
  0
LINE
  5
C6
330
17
100
AcDbEntity
  8
0
  6
HIDDENX2
 62
7
 48
3.0
100
AcDbLine
 10
453.94529172833063
 20
2112.95261389852
 30
0.0
 11
428.94529172833063
 21
2137.952613898531
 31
0.0
  0
DIMENSION
  5
C7
330
17
100
AcDbEntity
  8
DIM
 62
7
 48
3.0
100
AcDbDimension
280
0
  2
*D18
  3
Dim-25
 10
872.4351250529398
 20
1652.4526138985311
 30
0.0
 11
849.6708003599106
 21
1875.2026138985202
 31
0.0
 70
32
 71
5
 42
445.4999999999854
 73
0
 74
0
 75
0
100
AcDbAlignedDimension
 13
765.0599951387994
 23
2097.95261389852
 33
0.0
 14
765.0599951388103
 24
1652.4526138985311
 34
0.0
 50
90.0
100
AcDbRotatedDimension
  0
LINE
  5
C8
330
17
100
AcDbEntity
  8
0
  6
HIDDENX2
100
AcDbLine
 10
553.9452917283306
 20
2137.952613898531
 30
0.0
 11
553.9452917283306
 21
2112.95261389852
 31
0.0
  0
LINE
  5
C9
330
17
100
AcDbEntity
  8
0
  6
HIDDENX2
100
AcDbLine
 10
734.0564073672504
 20
2137.952613898531
 30
0.0
 11
734.0564073672504
 21
2112.95261389852
 31
0.0
  0
LINE
  5
CA
330
17
100
AcDbEntity
  8
0
  6
HIDDENX2
100
AcDbLine
 10
833.9452917283306
 20
2012.9526138985202
 30
0.0
 11
858.9452917283306
 21
2012.9526138985202
 31
0.0
  0
LINE
  5
CB
330
17
100
AcDbEntity
  8
0
  6
HIDDENX2
100
AcDbLine
 10
428.94529172833063
 20
2012.9526138985202
 30
0.0
 11
453.94529172833063
 21
2012.9526138985202
 31
0.0
  0
LINE
  5
CC
330
17
100
AcDbEntity
  8
0
 62
7
 48
3.0
100
AcDbLine
 10
428.94529172833063
 20
1737.4526138985202
 30
0.0
 11
453.94529172833063
 21
1737.4526138985202
 31
0.0
  0
LINE
  5
CD
330
17
100
AcDbEntity
  8
0
  6
HIDDENX2
100
AcDbLine
 10
553.9452917283306
 20
1637.4526138985311
 30
0.0
 11
553.9452917283306
 21
1612.4526138985311
 31
0.0
  0
LINE
  5
CE
330
17
100
AcDbEntity
  8
0
  6
HIDDENX2
100
AcDbLine
 10
734.0564073672504
 20
1637.4526138985311
 30
0.0
 11
734.0564073672504
 21
1612.4526138985311
 31
0.0
  0
LINE
  5
CF
330
17
100
AcDbEntity
  8
0
  6
HIDDENX2
100
AcDbLine
 10
833.9452917283306
 20
1737.4526138985202
 30
0.0
 11
858.9452917283306
 21
1737.4526138985202
 31
0.0
  0
CIRCLE
  5
D0
330
17
100
AcDbEntity
  8
0
 62
2
 48
3.0
100
AcDbCircle
 10
453.94529172833063
 20
2112.95261389852
 30
0.0
 40
1.5
  0
CIRCLE
  5
D1
330
17
100
AcDbEntity
  8
0
 62
2
 48
3.0
100
AcDbCircle
 10
473.94529172833063
 20
2112.95261389852
 30
0.0
 40
1.5
  0
CIRCLE
  5
D2
330
17
100
AcDbEntity
  8
0
 62
2
 48
3.0
100
AcDbCircle
 10
543.9452917283306
 20
2112.95261389852
 30
0.0
 40
1.5
  0
CIRCLE
  5
D3
330
17
100
AcDbEntity
  8
0
 62
2
 48
3.0
100
AcDbCircle
 10
453.94529172833063
 20
2092.95261389852
 30
0.0
 40
1.5
  0
CIRCLE
  5
D4
330
17
100
AcDbEntity
  8
0
 62
2
 48
3.0
100
AcDbCircle
 10
453.94529172833063
 20
2022.9526138985202
 30
0.0
 40
1.5
  0
CIRCLE
  5
D5
330
17
100
AcDbEntity
  8
0
 62
2
 48
3.0
100
AcDbCircle
 10
834.0564073672595
 20
2112.95261389852
 30
0.0
 40
1.5
  0
CIRCLE
  5
D6
330
17
100
AcDbEntity
  8
0
 62
2
 48
3.0
100
AcDbCircle
 10
814.0564073672595
 20
2112.95261389852
 30
0.0
 40
1.5
  0
CIRCLE
  5
D7
330
17
100
AcDbEntity
  8
0
 62
2
 48
3.0
100
AcDbCircle
 10
744.0564073672595
 20
2112.95261389852
 30
0.0
 40
1.5
  0
CIRCLE
  5
D8
330
17
100
AcDbEntity
  8
0
 62
2
 48
3.0
100
AcDbCircle
 10
834.0564073672595
 20
2092.95261389852
 30
0.0
 40
1.5
  0
CIRCLE
  5
D9
330
17
100
AcDbEntity
  8
0
 62
2
 48
3.0
100
AcDbCircle
 10
834.0564073672595
 20
2022.9526138985202
 30
0.0
 40
1.5
  0
CIRCLE
  5
DA
330
17
100
AcDbEntity
  8
0
 62
2
 48
3.0
100
AcDbCircle
 10
453.94529172833063
 20
1637.4526138985311
 30
0.0
 40
1.5
  0
CIRCLE
  5
DB
330
17
100
AcDbEntity
  8
0
 62
2
 48
3.0
100
AcDbCircle
 10
473.94529172833063
 20
1637.4526138985311
 30
0.0
 40
1.5
  0
CIRCLE
  5
DC
330
17
100
AcDbEntity
  8
0
 62
2
 48
3.0
100
AcDbCircle
 10
543.9452917283306
 20
1637.4526138985311
 30
0.0
 40
1.5
  0
CIRCLE
  5
DD
330
17
100
AcDbEntity
  8
0
 62
2
 48
3.0
100
AcDbCircle
 10
453.94529172833063
 20
1657.4526138985202
 30
0.0
 40
1.5
  0
CIRCLE
  5
DE
330
17
100
AcDbEntity
  8
0
 62
2
 48
3.0
100
AcDbCircle
 10
453.94529172833063
 20
1727.4526138985202
 30
0.0
 40
1.5
  0
CIRCLE
  5
DF
330
17
100
AcDbEntity
  8
0
 62
2
 48
3.0
100
AcDbCircle
 10
834.0564073672595
 20
1637.4526138985311
 30
0.0
 40
1.5
  0
CIRCLE
  5
E0
330
17
100
AcDbEntity
  8
0
 62
2
 48
3.0
100
AcDbCircle
 10
814.0564073672595
 20
1637.4526138985311
 30
0.0
 40
1.5
  0
CIRCLE
  5
E1
330
17
100
AcDbEntity
  8
0
 62
2
 48
3.0
100
AcDbCircle
 10
744.0564073672595
 20
1637.4526138985311
 30
0.0
 40
1.5
  0
CIRCLE
  5
E2
330
17
100
AcDbEntity
  8
0
 62
2
 48
3.0
100
AcDbCircle
 10
834.0564073672595
 20
1657.4526138985202
 30
0.0
 40
1.5
  0
CIRCLE
  5
E3
330
17
100
AcDbEntity
  8
0
 62
2
 48
3.0
100
AcDbCircle
 10
834.0564073672595
 20
1727.4526138985202
 30
0.0
 40
1.5
  0
CIRCLE
  5
E4
330
17
100
AcDbEntity
  8
0
 62
2
 48
3.0
100
AcDbCircle
 10
453.94529172833063
 20
1424.4526138985202
 30
0.0
 40
1.5
  0
CIRCLE
  5
E5
330
17
100
AcDbEntity
  8
0
 62
2
 48
3.0
100
AcDbCircle
 10
473.94529172833063
 20
1424.4526138985202
 30
0.0
 40
1.5
  0
CIRCLE
  5
E6
330
17
100
AcDbEntity
  8
0
 62
2
 48
3.0
100
AcDbCircle
 10
543.9452917283306
 20
1424.4526138985202
 30
0.0
 40
1.5
  0
CIRCLE
  5
E7
330
17
100
AcDbEntity
  8
0
 62
2
 48
3.0
100
AcDbCircle
 10
453.94529172833063
 20
1404.4526138985311
 30
0.0
 40
1.5
  0
CIRCLE
  5
E8
330
17
100
AcDbEntity
  8
0
 62
2
 48
3.0
100
AcDbCircle
 10
453.94529172833063
 20
1334.4526138985311
 30
0.0
 40
1.5
  0
CIRCLE
  5
E9
330
17
100
AcDbEntity
  8
0
 62
2
 48
3.0
100
AcDbCircle
 10
834.0564073672595
 20
1424.4526138985202
 30
0.0
 40
1.5
  0
CIRCLE
  5
EA
330
17
100
AcDbEntity
  8
0
 62
2
 48
3.0
100
AcDbCircle
 10
814.0564073672595
 20
1424.4526138985202
 30
0.0
 40
1.5
  0
CIRCLE
  5
EB
330
17
100
AcDbEntity
  8
0
 62
2
 48
3.0
100
AcDbCircle
 10
744.0564073672595
 20
1424.4526138985202
 30
0.0
 40
1.5
  0
CIRCLE
  5
EC
330
17
100
AcDbEntity
  8
0
 62
2
 48
3.0
100
AcDbCircle
 10
834.0564073672595
 20
1404.4526138985311
 30
0.0
 40
1.5
  0
CIRCLE
  5
ED
330
17
100
AcDbEntity
  8
0
 62
2
 48
3.0
100
AcDbCircle
 10
834.0564073672595
 20
1334.4526138985311
 30
0.0
 40
1.5
  0
CIRCLE
  5
EE
330
17
100
AcDbEntity
  8
0
 62
2
 48
3.0
100
AcDbCircle
 10
453.94529172833063
 20
948.9526138985311
 30
0.0
 40
1.5
  0
CIRCLE
  5
EF
330
17
100
AcDbEntity
  8
0
 62
2
 48
3.0
100
AcDbCircle
 10
473.94529172833063
 20
948.9526138985311
 30
0.0
 40
1.5
  0
CIRCLE
  5
F0
330
17
100
AcDbEntity
  8
0
 62
2
 48
3.0
100
AcDbCircle
 10
543.9452917283306
 20
948.9526138985311
 30
0.0
 40
1.5
  0
CIRCLE
  5
F1
330
17
100
AcDbEntity
  8
0
 62
2
 48
3.0
100
AcDbCircle
 10
453.94529172833063
 20
968.9526138985202
 30
0.0
 40
1.5
  0
CIRCLE
  5
F2
330
17
100
AcDbEntity
  8
0
 62
2
 48
3.0
100
AcDbCircle
 10
453.94529172833063
 20
1038.9526138985311
 30
0.0
 40
1.5
  0
CIRCLE
  5
F3
330
17
100
AcDbEntity
  8
0
 62
2
 48
3.0
100
AcDbCircle
 10
834.0564073672595
 20
948.9526138985311
 30
0.0
 40
1.5
  0
CIRCLE
  5
F4
330
17
100
AcDbEntity
  8
0
 62
2
 48
3.0
100
AcDbCircle
 10
814.0564073672595
 20
948.9526138985311
 30
0.0
 40
1.5
  0
CIRCLE
  5
F5
330
17
100
AcDbEntity
  8
0
 62
2
 48
3.0
100
AcDbCircle
 10
744.0564073672595
 20
948.9526138985311
 30
0.0
 40
1.5
  0
CIRCLE
  5
F6
330
17
100
AcDbEntity
  8
0
 62
2
 48
3.0
100
AcDbCircle
 10
834.0564073672595
 20
968.9526138985202
 30
0.0
 40
1.5
  0
CIRCLE
  5
F7
330
17
100
AcDbEntity
  8
0
 62
2
 48
3.0
100
AcDbCircle
 10
834.0564073672595
 20
1038.9526138985311
 30
0.0
 40
1.5
  0
LWPOLYLINE
  5
F8
330
17
100
AcDbEntity
  8
0
 62
2
100
AcDbPolyline
 90
4
 70
1
 10
1742.5689938208106
 20
1612.7026138985202
 10
1731.5689938207997
 20
1612.7026138985202
 10
1731.5689938207997
 20
1621.2026138985202
 10
1742.5689938208106
 20
1621.2026138985202
  0
INSERT
  5
F9
330
17
100
AcDbEntity
  8
0
 62
7
100
AcDbBlockReference
  2
HL003-2-2
 10
1729.0689938208106
 20
1622.9526138985202
 30
0.0
 41
-1.0
 50
180.0
  0
LWPOLYLINE
  5
FB
330
17
100
AcDbEntity
  8
0
 62
2
100
AcDbPolyline
 90
4
 70
1
 10
1742.5689938208106
 20
911.7026138985202
 10
1731.5689938207997
 20
911.7026138985202
 10
1731.5689938207997
 20
920.2026138985202
 10
1742.5689938208106
 20
920.2026138985202
  0
INSERT
  5
FC
330
17
100
AcDbEntity
  8
0
 62
7
100
AcDbBlockReference
  2
HL003-2-2
 10
1729.0689938208106
 20
921.9526138985202
 30
0.0
 41
-1.0
 50
180.0
  0
LWPOLYLINE
  5
FE
330
17
100
AcDbEntity
  8
0
 62
2
100
AcDbPolyline
 90
4
 70
1
 10
1742.5689938208106
 20
1449.2026138985202
 10
1731.5689938207997
 20
1449.2026138985202
 10
1731.5689938207997
 20
1440.7026138985311
 10
1742.5689938208106
 20
1440.7026138985311
  0
INSERT
  5
FF
330
17
100
AcDbEntity
  8
0
 62
7
100
AcDbBlockReference
  2
HL003-2-2
 10
1729.0689938208106
 20
1438.9526138985311
 30
0.0
  0
ENDSEC
  0
SECTION
  2
OBJECTS
  0
DICTIONARY
  5
A
330
0
100
AcDbDictionary
281
1
  3
ACAD_COLOR
350
B
  3
ACAD_GROUP
350
C
  3
ACAD_LAYOUT
350
D
  3
ACAD_MATERIAL
350
E
  3
ACAD_MLEADERSTYLE
350
F
  3
ACAD_MLINESTYLE
350
10
  3
ACAD_PLOTSETTINGS
350
11
  3
ACAD_PLOTSTYLENAME
350
12
  3
ACAD_SCALELIST
350
14
  3
ACAD_TABLESTYLE
350
15
  3
ACAD_VISUALSTYLE
350
16
  3
EZDXF_META
350
2D
  0
DICTIONARY
  5
B
330
A
100
AcDbDictionary
281
1
  0
DICTIONARY
  5
C
330
A
100
AcDbDictionary
281
1
  0
DICTIONARY
  5
D
330
A
100
AcDbDictionary
281
1
  3
Model
350
1A
  3
Layout1
350
1E
  0
DICTIONARY
  5
E
330
A
100
AcDbDictionary
281
1
  3
ByBlock
350
1F
  3
ByLayer
350
20
  3
Global
350
21
  0
DICTIONARY
  5
F
330
A
100
AcDbDictionary
281
1
  3
Standard
350
2C
  0
DICTIONARY
  5
10
330
A
100
AcDbDictionary
281
1
  3
Standard
350
22
  0
DICTIONARY
  5
11
330
A
100
AcDbDictionary
281
1
  0
ACDBDICTIONARYWDFLT
  5
12
330
A
100
AcDbDictionary
281
1
  3
Normal
350
13
100
AcDbDictionaryWithDefault
340
13
  0
ACDBPLACEHOLDER
  5
13
330
12
  0
DICTIONARY
  5
14
330
A
100
AcDbDictionary
281
1
  0
DICTIONARY
  5
15
330
A
100
AcDbDictionary
281
1
  0
DICTIONARY
  5
16
330
A
100
AcDbDictionary
281
1
  0
LAYOUT
  5
1A
330
D
100
AcDbPlotSettings
  1

  4
A3
  6

 40
7.5
 41
20.0
 42
7.5
 43
20.0
 44
420.0
 45
297.0
 46
0.0
 47
0.0
 48
0.0
 49
0.0
140
0.0
141
0.0
142
1.0
143
1.0
 70
1024
 72
1
 73
0
 74
5
  7

 75
16
 76
0
 77
2
 78
300
147
1.0
148
0.0
149
0.0
100
AcDbLayout
  1
Model
 70
1
 71
0
 10
0.0
 20
0.0
 11
420.0
 21
297.0
 12
0.0
 22
0.0
 32
0.0
 14
1e+20
 24
1e+20
 34
1e+20
 15
-1e+20
 25
-1e+20
 35
-1e+20
146
0.0
 13
0.0
 23
0.0
 33
0.0
 16
1.0
 26
0.0
 36
0.0
 17
0.0
 27
1.0
 37
0.0
 76
1
330
17
  0
LAYOUT
  5
1E
330
D
100
AcDbPlotSettings
  1

  4
A3
  6

 40
7.5
 41
20.0
 42
7.5
 43
20.0
 44
420.0
 45
297.0
 46
0.0
 47
0.0
 48
0.0
 49
0.0
140
0.0
141
0.0
142
1.0
143
1.0
 70
0
 72
1
 73
0
 74
5
  7

 75
16
 76
0
 77
2
 78
300
147
1.0
148
0.0
149
0.0
100
AcDbLayout
  1
Layout1
 70
1
 71
1
 10
0.0
 20
0.0
 11
420.0
 21
297.0
 12
0.0
 22
0.0
 32
0.0
 14
1e+20
 24
1e+20
 34
1e+20
 15
-1e+20
 25
-1e+20
 35
-1e+20
146
0.0
 13
0.0
 23
0.0
 33
0.0
 16
1.0
 26
0.0
 36
0.0
 17
0.0
 27
1.0
 37
0.0
 76
1
330
1B
  0
MATERIAL
  5
1F
102
{ACAD_REACTORS
330
E
102
}
330
E
100
AcDbMaterial
  1
ByBlock
  2

 70
0
 40
1.0
 71
1
 41
1.0
 91
-1023410177
 42
1.0
 72
1
  3

 73
1
 74
1
 75
1
 44
0.5
 73
0
 45
1.0
 46
1.0
 77
1
  4

 78
1
 79
1
170
1
 48
1.0
171
1
  6

172
1
173
1
174
1
140
1.0
141
1.0
175
1
  7

176
1
177
1
178
1
143
1.0
179
1
  8

270
1
271
1
272
1
145
1.0
146
1.0
273
1
  9

274
1
275
1
276
1
 42
1.0
 72
1
  3

 73
1
 74
1
 75
1
 94
63
  0
MATERIAL
  5
20
102
{ACAD_REACTORS
330
E
102
}
330
E
100
AcDbMaterial
  1
ByLayer
  2

 70
0
 40
1.0
 71
1
 41
1.0
 91
-1023410177
 42
1.0
 72
1
  3

 73
1
 74
1
 75
1
 44
0.5
 73
0
 45
1.0
 46
1.0
 77
1
  4

 78
1
 79
1
170
1
 48
1.0
171
1
  6

172
1
173
1
174
1
140
1.0
141
1.0
175
1
  7

176
1
177
1
178
1
143
1.0
179
1
  8

270
1
271
1
272
1
145
1.0
146
1.0
273
1
  9

274
1
275
1
276
1
 42
1.0
 72
1
  3

 73
1
 74
1
 75
1
 94
63
  0
MATERIAL
  5
21
102
{ACAD_REACTORS
330
E
102
}
330
E
100
AcDbMaterial
  1
Global
  2

 70
0
 40
1.0
 71
1
 41
1.0
 91
-1023410177
 42
1.0
 72
1
  3

 73
1
 74
1
 75
1
 44
0.5
 73
0
 45
1.0
 46
1.0
 77
1
  4

 78
1
 79
1
170
1
 48
1.0
171
1
  6

172
1
173
1
174
1
140
1.0
141
1.0
175
1
  7

176
1
177
1
178
1
143
1.0
179
1
  8

270
1
271
1
272
1
145
1.0
146
1.0
273
1
  9

274
1
275
1
276
1
 42
1.0
 72
1
  3

 73
1
 74
1
 75
1
 94
63
  0
MLINESTYLE
  5
22
102
{ACAD_REACTORS
330
10
102
}
330
10
100
AcDbMlineStyle
  2
Standard
 70
0
  3

 62
256
 51
90.0
 52
90.0
 71
2
 49
0.5
 62
256
  6
BYLAYER
 49
-0.5
 62
256
  6
BYLAYER
  0
MLEADERSTYLE
  5
2C
102
{ACAD_REACTORS
330
F
102
}
330
F
100
AcDbMLeaderStyle
179
2
170
2
171
1
172
0
 90
2
 40
0.0
 41
0.0
173
1
 91
-1056964608
 92
-2
290
1
 42
2.0
291
1
 43
8.0
  3
Standard
 44
4.0
300

342
29
174
1
175
1
176
0
178
1
 93
-1056964608
 45
4.0
292
0
297
0
 46
4.0
 94
-1056964608
 47
1.0
 49
1.0
140
1.0
294
1
141
0.0
177
0
142
1.0
295
0
296
0
143
3.75
271
0
272
9
273
9
  0
DICTIONARY
  5
2D
330
A
100
AcDbDictionary
280
1
281
1
  3
CREATED_BY_EZDXF
350
2E
  3
WRITTEN_BY_EZDXF
350
19B
  0
DICTIONARYVAR
  5
2E
330
2D
100
DictionaryVariables
280
0
  1
1.4.4 @ 2026-09-24T06:32:05.631076+00:00
  0
DICTIONARYVAR
  5
19B
330
2D
100
DictionaryVariables
280
0
  1
1.4.4 @ 2026-09-24T06:37:23.324969+00:00
  0
ENDSEC
  0
EOF
