  0
SECTION
  2
HEADER
  9
$ACADVER
  1
AC1032
  9
$ACADMAINTVER
 90
4
  9
$DWGCODEPAGE
  3
ANSI_1252
  9
$LASTSAVEDBY
  1
ezdxf
  9
$REQUIREDVERSIONS
160
0
  9
$INSBASE
 10
0.0
 20
0.0
 30
0.0
  9
$EXTMIN
 10
1e+20
 20
1e+20
 30
1e+20
  9
$EXTMAX
 10
-1e+20
 20
-1e+20
 30
-1e+20
  9
$LIMMIN
 10
0.0
 20
0.0
  9
$LIMMAX
 10
420.0
 20
297.0
  9
$ORTHOMODE
 70
0
  9
$REGENMODE
 70
1
  9
$FILLMODE
 70
1
  9
$QTEXTMODE
 70
0
  9
$MIRRTEXT
 70
1
  9
$LTSCALE
 40
1.0
  9
$ATTMODE
 70
1
  9
$TEXTSIZE
 40
2.5
  9
$TRACEWID
 40
1.0
  9
$TEXTSTYLE
  7
Standard
  9
$CLAYER
  8
0
  9
$CELTYPE
  6
ByLayer
  9
$CECOLOR
 62
256
  9
$CELTSCALE
 40
1.0
  9
$DISPSILH
 70
0
  9
$DIMSCALE
 40
1.0
  9
$DIMASZ
 40
2.5
  9
$DIMEXO
 40
0.625
  9
$DIMDLI
 40
3.75
  9
$DIMRND
 40
0.0
  9
$DIMDLE
 40
0.0
  9
$DIMEXE
 40
1.25
  9
$DIMTP
 40
0.0
  9
$DIMTM
 40
0.0
  9
$DIMTXT
 40
2.5
  9
$DIMCEN
 40
2.5
  9
$DIMTSZ
 40
0.0
  9
$DIMTOL
 70
0
  9
$DIMLIM
 70
0
  9
$DIMTIH
 70
0
  9
$DIMTOH
 70
0
  9
$DIMSE1
 70
0
  9
$DIMSE2
 70
0
  9
$DIMTAD
 70
1
  9
$DIMZIN
 70
8
  9
$DIMBLK
  1

  9
$DIMASO
 70
1
  9
$DIMSHO
 70
1
  9
$DIMPOST
  1

  9
$DIMAPOST
  1

  9
$DIMALT
 70
0
  9
$DIMALTD
 70
3
  9
$DIMALTF
 40
0.03937007874
  9
$DIMLFAC
 40
1.0
  9
$DIMTOFL
 70
1
  9
$DIMTVP
 40
0.0
  9
$DIMTIX
 70
0
  9
$DIMSOXD
 70
0
  9
$DIMSAH
 70
0
  9
$DIMBLK1
  1

  9
$DIMBLK2
  1

  9
$DIMSTYLE
  2
ISO-25
  9
$DIMCLRD
 70
0
  9
$DIMCLRE
 70
0
  9
$DIMCLRT
 70
0
  9
$DIMTFAC
 40
1.0
  9
$DIMGAP
 40
0.625
  9
$DIMJUST
 70
0
  9
$DIMSD1
 70
0
  9
$DIMSD2
 70
0
  9
$DIMTOLJ
 70
0
  9
$DIMTZIN
 70
8
  9
$DIMALTZ
 70
0
  9
$DIMALTTZ
 70
0
  9
$DIMUPT
 70
0
  9
$DIMDEC
 70
2
  9
$DIMTDEC
 70
2
  9
$DIMALTU
 70
2
  9
$DIMALTTD
 70
3
  9
$DIMTXSTY
  7
Standard
  9
$DIMAUNIT
 70
0
  9
$DIMADEC
 70
0
  9
$DIMALTRND
 40
0.0
  9
$DIMAZIN
 70
0
  9
$DIMDSEP
 70
44
  9
$DIMATFIT
 70
3
  9
$DIMFRAC
 70
0
  9
$DIMLDRBLK
  1

  9
$DIMLUNIT
 70
2
  9
$DIMLWD
 70
-2
  9
$DIMLWE
 70
-2
  9
$DIMTMOVE
 70
0
  9
$DIMFXL
 40
1.0
  9
$DIMFXLON
 70
0
  9
$DIMJOGANG
 40
0.785398163397
  9
$DIMTFILL
 70
0
  9
$DIMTFILLCLR
 70
0
  9
$DIMARCSYM
 70
0
  9
$DIMLTYPE
  6

  9
$DIMLTEX1
  6

  9
$DIMLTEX2
  6

  9
$DIMTXTDIRECTION
 70
0
  9
$LUNITS
 70
2
  9
$LUPREC
 70
4
  9
$SKETCHINC
 40
1.0
  9
$FILLETRAD
 40
10.0
  9
$AUNITS
 70
0
  9
$AUPREC
 70
2
  9
$MENU
  1
.
  9
$ELEVATION
 40
0.0
  9
$PELEVATION
 40
0.0
  9
$THICKNESS
 40
0.0
  9
$LIMCHECK
 70
0
  9
$CHAMFERA
 40
0.0
  9
$CHAMFERB
 40
0.0
  9
$CHAMFERC
 40
0.0
  9
$CHAMFERD
 40
0.0
  9
$SKPOLY
 70
0
  9
$TDCREATE
 40
2461308.5673032408
  9
$TDUCREATE
 40
2458532.153996898
  9
$TDUPDATE
 40
2461308.5673032408
  9
$TDUUPDATE
 40
2458532.1544311
  9
$TDINDWG
 40
0.0
  9
$TDUSRTIMER
 40
0.0
  9
$USRTIMER
 70
1
  9
$ANGBASE
 50
0.0
  9
$ANGDIR
 70
0
  9
$PDMODE
 70
0
  9
$PDSIZE
 40
0.0
  9
$PLINEWID
 40
0.0
  9
$SPLFRAME
 70
0
  9
$SPLINETYPE
 70
6
  9
$SPLINESEGS
 70
8
  9
$HANDSEED
  5
28A
  9
$SURFTAB1
 70
6
  9
$SURFTAB2
 70
6
  9
$SURFTYPE
 70
6
  9
$SURFU
 70
6
  9
$SURFV
 70
6
  9
$UCSBASE
  2

  9
$UCSNAME
  2

  9
$UCSORG
 10
0.0
 20
0.0
 30
0.0
  9
$UCSXDIR
 10
1.0
 20
0.0
 30
0.0
  9
$UCSYDIR
 10
0.0
 20
1.0
 30
0.0
  9
$UCSORTHOREF
  2

  9
$UCSORTHOVIEW
 70
0
  9
$UCSORGTOP
 10
0.0
 20
0.0
 30
0.0
  9
$UCSORGBOTTOM
 10
0.0
 20
0.0
 30
0.0
  9
$UCSORGLEFT
 10
0.0
 20
0.0
 30
0.0
  9
$UCSORGRIGHT
 10
0.0
 20
0.0
 30
0.0
  9
$UCSORGFRONT
 10
0.0
 20
0.0
 30
0.0
  9
$UCSORGBACK
 10
0.0
 20
0.0
 30
0.0
  9
$PUCSBASE
  2

  9
$PUCSNAME
  2

  9
$PUCSORG
 10
0.0
 20
0.0
 30
0.0
  9
$PUCSXDIR
 10
1.0
 20
0.0
 30
0.0
  9
$PUCSYDIR
 10
0.0
 20
1.0
 30
0.0
  9
$PUCSORTHOREF
  2

  9
$PUCSORTHOVIEW
 70
0
  9
$PUCSORGTOP
 10
0.0
 20
0.0
 30
0.0
  9
$PUCSORGBOTTOM
 10
0.0
 20
0.0
 30
0.0
  9
$PUCSORGLEFT
 10
0.0
 20
0.0
 30
0.0
  9
$PUCSORGRIGHT
 10
0.0
 20
0.0
 30
0.0
  9
$PUCSORGFRONT
 10
0.0
 20
0.0
 30
0.0
  9
$PUCSORGBACK
 10
0.0
 20
0.0
 30
0.0
  9
$USERI1
 70
0
  9
$USERI2
 70
0
  9
$USERI3
 70
0
  9
$USERI4
 70
0
  9
$USERI5
 70
0
  9
$USERR1
 40
0.0
  9
$USERR2
 40
0.0
  9
$USERR3
 40
0.0
  9
$USERR4
 40
0.0
  9
$USERR5
 40
0.0
  9
$WORLDVIEW
 70
1
  9
$SHADEDGE
 70
3
  9
$SHADEDIF
 70
70
  9
$TILEMODE
 70
1
  9
$MAXACTVP
 70
64
  9
$PINSBASE
 10
0.0
 20
0.0
 30
0.0
  9
$PLIMCHECK
 70
0
  9
$PEXTMIN
 10
1e+20
 20
1e+20
 30
1e+20
  9
$PEXTMAX
 10
-1e+20
 20
-1e+20
 30
-1e+20
  9
$PLIMMIN
 10
0.0
 20
0.0
  9
$PLIMMAX
 10
420.0
 20
297.0
  9
$UNITMODE
 70
0
  9
$VISRETAIN
 70
1
  9
$PLINEGEN
 70
0
  9
$PSLTSCALE
 70
1
  9
$TREEDEPTH
 70
3020
  9
$CMLSTYLE
  2
Standard
  9
$CMLJUST
 70
0
  9
$CMLSCALE
 40
20.0
  9
$PROXYGRAPHICS
 70
1
  9
$MEASUREMENT
 70
1
  9
$CELWEIGHT
370
-1
  9
$ENDCAPS
280
0
  9
$JOINSTYLE
280
0
  9
$LWDISPLAY
290
0
  9
$INSUNITS
 70
4
  9
$HYPERLINKBASE
  1

  9
$STYLESHEET
  1

  9
$XEDIT
290
1
  9
$CEPSNTYPE
380
0
  9
$PSTYLEMODE
290
1
  9
$FINGERPRINTGUID
  2
{3BA413C0-22FF-422B-ACB7-8EAE156B4F47}
  9
$VERSIONGUID
  2
{C3DE5C11-4EF5-41FC-9B5D-9A5690A67F48}
  9
$EXTNAMES
290
1
  9
$PSVPSCALE
 40
0.0
  9
$OLESTARTUP
290
0
  9
$SORTENTS
280
127
  9
$INDEXCTL
280
0
  9
$HIDETEXT
280
1
  9
$XCLIPFRAME
280
1
  9
$HALOGAP
280
0
  9
$OBSCOLOR
 70
257
  9
$OBSLTYPE
280
0
  9
$INTERSECTIONDISPLAY
280
0
  9
$INTERSECTIONCOLOR
 70
257
  9
$DIMASSOC
280
2
  9
$PROJECTNAME
  1

  9
$CAMERADISPLAY
290
0
  9
$LENSLENGTH
 40
50.0
  9
$CAMERAHEIGHT
 40
0.0
  9
$STEPSPERSEC
 40
24.0
  9
$STEPSIZE
 40
100.0
  9
$3DDWFPREC
 40
2.0
  9
$PSOLWIDTH
 40
0.005
  9
$PSOLHEIGHT
 40
0.08
  9
$LOFTANG1
 40
1.570796326795
  9
$LOFTANG2
 40
1.570796326795
  9
$LOFTMAG1
 40
0.0
  9
$LOFTMAG2
 40
0.0
  9
$LOFTPARAM
 70
7
  9
$LOFTNORMALS
280
1
  9
$LATITUDE
 40
37.795
  9
$LONGITUDE
 40
-122.394
  9
$NORTHDIRECTION
 40
0.0
  9
$TIMEZONE
 70
-8000
  9
$LIGHTGLYPHDISPLAY
280
1
  9
$TILEMODELIGHTSYNCH
280
1
  9
$CMATERIAL
347
20
  9
$SOLIDHIST
280
0
  9
$SHOWHIST
280
1
  9
$DWFFRAME
280
2
  9
$DGNFRAME
280
2
  9
$REALWORLDSCALE
290
1
  9
$INTERFERECOLOR
 62
256
  9
$CSHADOW
280
0
  9
$SHADOWPLANELOCATION
 40
0.0
  0
ENDSEC
  0
SECTION
  2
CLASSES
  0
CLASS
  1
ACDBDICTIONARYWDFLT
  2
AcDbDictionaryWithDefault
  3
ObjectDBX Classes
 90
0
 91
0
280
0
281
0
  0
CLASS
  1
SUN
  2
AcDbSun
  3
SCENEOE
 90
1153
 91
0
280
0
281
0
  0
CLASS
  1
VISUALSTYLE
  2
AcDbVisualStyle
  3
ObjectDBX Classes
 90
4095
 91
0
280
0
281
0
  0
CLASS
  1
MATERIAL
  2
AcDbMaterial
  3
ObjectDBX Classes
 90
1153
 91
0
280
0
281
0
  0
CLASS
  1
SCALE
  2
AcDbScale
  3
ObjectDBX Classes
 90
1153
 91
0
280
0
281
0
  0
CLASS
  1
TABLESTYLE
  2
AcDbTableStyle
  3
ObjectDBX Classes
 90
4095
 91
0
280
0
281
0
  0
CLASS
  1
MLEADERSTYLE
  2
AcDbMLeaderStyle
  3
ACDB_MLEADERSTYLE_CLASS
 90
4095
 91
0
280
0
281
0
  0
CLASS
  1
DICTIONARYVAR
  2
AcDbDictionaryVar
  3
ObjectDBX Classes
 90
0
 91
0
280
0
281
0
  0
CLASS
  1
CELLSTYLEMAP
  2
AcDbCellStyleMap
  3
ObjectDBX Classes
 90
1152
 91
0
280
0
281
0
  0
CLASS
  1
MENTALRAYRENDERSETTINGS
  2
AcDbMentalRayRenderSettings
  3
SCENEOE
 90
1024
 91
0
280
0
281
0
  0
CLASS
  1
ACDBDETAILVIEWSTYLE
  2
AcDbDetailViewStyle
  3
ObjectDBX Classes
 90
1025
 91
0
280
0
281
0
  0
CLASS
  1
ACDBSECTIONVIEWSTYLE
  2
AcDbSectionViewStyle
  3
ObjectDBX Classes
 90
1025
 91
0
280
0
281
0
  0
CLASS
  1
RASTERVARIABLES
  2
AcDbRasterVariables
  3
ISM
 90
0
 91
0
280
0
281
0
  0
CLASS
  1
ACDBPLACEHOLDER
  2
AcDbPlaceHolder
  3
ObjectDBX Classes
 90
0
 91
0
280
0
281
0
  0
CLASS
  1
LAYOUT
  2
AcDbLayout
  3
ObjectDBX Classes
 90
0
 91
0
280
0
281
0
  0
ENDSEC
  0
SECTION
  2
TABLES
  0
TABLE
  2
VPORT
  5
8
330
0
100
AcDbSymbolTable
 70
1
  0
VPORT
  5
23
330
8
100
AcDbSymbolTableRecord
100
AcDbViewportTableRecord
  2
*Active
 70
0
 10
0.0
 20
0.0
 11
1.0
 21
1.0
 12
0.0
 22
0.0
 13
0.0
 23
0.0
 14
0.5
 24
0.5
 15
0.5
 25
0.5
 16
0.0
 26
0.0
 36
1.0
 17
0.0
 27
0.0
 37
0.0
 40
1000.0
 41
1.34
 42
50.0
 43
0.0
 44
0.0
 50
0.0
 51
0.0
 71
0
 72
1000
 73
1
 74
3
 75
0
 76
0
 77
0
 78
0
281
0
 65
0
146
0.0
  0
ENDTAB
  0
TABLE
  2
LTYPE
  5
2
330
0
100
AcDbSymbolTable
 70
3
  0
LTYPE
  5
24
330
2
100
AcDbSymbolTableRecord
100
AcDbLinetypeTableRecord
  2
ByBlock
 70
0
  3

 72
65
 73
0
 40
0.0
  0
LTYPE
  5
25
330
2
100
AcDbSymbolTableRecord
100
AcDbLinetypeTableRecord
  2
ByLayer
 70
0
  3

 72
65
 73
0
 40
0.0
  0
LTYPE
  5
26
330
2
100
AcDbSymbolTableRecord
100
AcDbLinetypeTableRecord
  2
Continuous
 70
0
  3

 72
65
 73
0
 40
0.0
  0
ENDTAB
  0
TABLE
  2
LAYER
  5
1
330
0
100
AcDbSymbolTable
 70
5
  0
LAYER
  5
27
330
1
100
AcDbSymbolTableRecord
100
AcDbLayerTableRecord
  2
0
 70
0
 62
7
  6
Continuous
370
-3
390
13
347
21
  0
LAYER
  5
28
330
1
100
AcDbSymbolTableRecord
100
AcDbLayerTableRecord
  2
Defpoints
 70
0
 62
7
  6
Continuous
290
0
370
-3
390
13
347
21
  0
LAYER
  5
140
330
1
100
AcDbSymbolTableRecord
100
AcDbLayerTableRecord
  2
00
 70
0
 62
7
  6
Continuous
370
0
390
F
347
98
  0
LAYER
  5
141
330
1
100
AcDbSymbolTableRecord
100
AcDbLayerTableRecord
  2
DIM
 70
0
 62
253
  6
Continuous
370
-3
390
13
347
21
  0
LAYER
  5
142
330
1
100
AcDbSymbolTableRecord
100
AcDbLayerTableRecord
  2
CNC
 70
0
 62
7
  6
Continuous
370
-3
390
13
347
21
  0
ENDTAB
  0
TABLE
  2
STYLE
  5
5
330
0
100
AcDbSymbolTable
 70
3
  0
STYLE
  5
29
330
5
100
AcDbSymbolTableRecord
100
AcDbTextStyleTableRecord
  2
Standard
 70
0
 40
0.0
 41
1.0
 50
0.0
 71
0
 42
2.5
  3
txt
  4

  0
STYLE
  5
143
330
5
100
AcDbSymbolTableRecord
100
AcDbTextStyleTableRecord
  2
Tahoma (Input Text)
 70
0
 40
0.0
 41
1.0
 50
0.0
 71
0
 42
25.0
  3
tahoma.ttf
  4

  0
STYLE
  5
144
330
5
100
AcDbSymbolTableRecord
100
AcDbTextStyleTableRecord
  2
Arial
 70
0
 40
0.0
 41
1.0
 50
0.0
 71
0
 42
0.2
  3
arial.ttf
  4

  0
ENDTAB
  0
TABLE
  2
VIEW
  5
7
330
0
100
AcDbSymbolTable
 70
0
  0
ENDTAB
  0
TABLE
  2
UCS
  5
6
330
0
100
AcDbSymbolTable
 70
0
  0
ENDTAB
  0
TABLE
  2
APPID
  5
3
330
0
100
AcDbSymbolTable
 70
3
  0
APPID
  5
2A
330
3
100
AcDbSymbolTableRecord
100
AcDbRegAppTableRecord
  2
ACAD
 70
0
  0
APPID
  5
149
330
3
100
AcDbSymbolTableRecord
100
AcDbRegAppTableRecord
  2
HATCHBACKGROUNDCOLOR
 70
0
  0
APPID
  5
14A
330
3
100
AcDbSymbolTableRecord
100
AcDbRegAppTableRecord
  2
EZDXF
 70
0
  0
ENDTAB
  0
TABLE
  2
DIMSTYLE
  5
4
330
0
100
AcDbSymbolTable
 70
3
100
AcDbDimStyleTable
  0
DIMSTYLE
105
2B
330
4
100
AcDbSymbolTableRecord
100
AcDbDimStyleTableRecord
  2
Standard
 70
0
 40
1.0
 41
2.5
 42
0.625
 43
3.75
 44
1.25
 45
0.0
 46
0.0
 47
0.0
 48
0.0
 49
2.5
140
2.5
141
2.5
142
0.0
143
0.03937007874
144
1.0
145
0.0
146
1.0
147
0.625
148
0.0
 69
0
 70
0
 71
0
 72
0
 73
0
 74
0
 75
0
 76
0
 77
1
 78
8
 79
3
170
0
171
3
172
1
173
0
174
0
175
0
176
0
177
0
178
0
179
2
271
2
272
2
273
2
274
3
275
0
276
0
277
2
278
44
279
0
280
0
281
0
282
0
283
0
284
8
285
0
286
0
288
0
289
3
290
0
371
-2
372
-2
  0
DIMSTYLE
105
13E
330
4
100
AcDbSymbolTableRecord
100
AcDbDimStyleTableRecord
  2
Dim-25
 70
0
 40
1.0
 41
8.0
 42
15.0
 43
3.75
 44
10.0
 45
0.0
 46
0.0
 47
0.0
 48
0.0
 49
2.5
140
25.0
141
10.0
142
0.0
143
0.03937007874016
144
1.0
145
0.0
146
1.0
147
10.0
148
0.0
 69
0
 70
0
 71
0
 72
0
 73
0
 74
0
 75
0
 76
0
 77
1
 78
8
 79
3
170
0
171
3
172
1
173
0
174
0
175
0
176
5
177
5
178
3
179
2
271
0
272
0
273
2
274
3
275
0
276
0
277
2
278
44
279
0
280
0
281
0
282
0
283
0
284
8
285
0
286
0
288
0
289
3
290
0
340
29
341
6C
342
6C
345
25
346
25
347
25
371
9
372
9
  0
DIMSTYLE
105
13F
330
4
100
AcDbSymbolTableRecord
100
AcDbDimStyleTableRecord
  2
CNC
 70
0
 40
1.0
 41
5.0
 42
15.0
 43
3.75
 44
5.0
 45
0.0
 46
0.0
 47
0.0
 48
0.0
 49
2.5
140
50.0
141
10.0
142
0.0
143
0.03937007874016
144
1.0
145
0.0
146
1.0
147
10.0
148
0.0
 69
0
 70
0
 71
0
 72
0
 73
0
 74
0
 75
0
 76
0
 77
1
 78
8
 79
3
170
0
171
3
172
1
173
0
174
0
175
0
176
5
177
5
178
3
179
2
271
0
272
0
273
2
274
3
275
0
276
0
277
2
278
44
279
0
280
0
281
0
282
0
283
0
284
8
285
0
286
0
288
0
289
3
290
0
340
29
341
145
342
F5
345
25
346
25
347
25
371
9
372
9
  0
ENDTAB
  0
TABLE
  2
BLOCK_RECORD
  5
9
330
0
100
AcDbSymbolTable
 70
27
  0
BLOCK_RECORD
  5
17
330
9
100
AcDbSymbolTableRecord
100
AcDbBlockTableRecord
  2
*Model_Space
340
1A
 70
0
280
1
281
0
  0
BLOCK_RECORD
  5
1B
330
9
100
AcDbSymbolTableRecord
100
AcDbBlockTableRecord
  2
*Paper_Space
340
1E
 70
0
280
1
281
0
  0
BLOCK_RECORD
  5
6C
330
9
100
AcDbSymbolTableRecord
100
AcDbBlockTableRecord
  2
_Oblique
340
0
 70
0
280
1
281
0
  0
BLOCK_RECORD
  5
F5
330
9
100
AcDbSymbolTableRecord
100
AcDbBlockTableRecord
  2
_Open30
340
0
 70
0
280
1
281
0
  0
BLOCK_RECORD
  5
10F
330
9
100
AcDbSymbolTableRecord
100
AcDbBlockTableRecord
  2
f3daunguoc
340
0
 70
0
280
1
281
0
  0
BLOCK_RECORD
  5
113
330
9
100
AcDbSymbolTableRecord
100
AcDbBlockTableRecord
  2
ovan8.5x20
340
0
 70
0
280
1
281
0
  0
BLOCK_RECORD
  5
11A
330
9
100
AcDbSymbolTableRecord
100
AcDbBlockTableRecord
  2
khungtenAsean2
340
0
 70
0
280
1
281
0
  0
BLOCK_RECORD
  5
145
330
9
100
AcDbSymbolTableRecord
100
AcDbBlockTableRecord
  2
_ArchTick
340
0
 70
0
280
1
281
0
  0
BLOCK_RECORD
  5
18C
330
9
100
AcDbSymbolTableRecord
100
AcDbBlockTableRecord
  2
*D1
340
0
 70
0
280
1
281
0
  0
BLOCK_RECORD
  5
19A
330
9
100
AcDbSymbolTableRecord
100
AcDbBlockTableRecord
  2
*D2
340
0
 70
0
280
1
281
0
  0
BLOCK_RECORD
  5
1A8
330
9
100
AcDbSymbolTableRecord
100
AcDbBlockTableRecord
  2
*D3
340
0
 70
0
280
1
281
0
  0
BLOCK_RECORD
  5
1B4
330
9
100
AcDbSymbolTableRecord
100
AcDbBlockTableRecord
  2
*D4
340
0
 70
0
280
1
281
0
  0
BLOCK_RECORD
  5
1C0
330
9
100
AcDbSymbolTableRecord
100
AcDbBlockTableRecord
  2
*D5
340
0
 70
0
280
1
281
0
  0
BLOCK_RECORD
  5
1CC
330
9
100
AcDbSymbolTableRecord
100
AcDbBlockTableRecord
  2
*D6
340
0
 70
0
280
1
281
0
  0
BLOCK_RECORD
  5
1D8
330
9
100
AcDbSymbolTableRecord
100
AcDbBlockTableRecord
  2
*D7
340
0
 70
0
280
1
281
0
  0
BLOCK_RECORD
  5
1E4
330
9
100
AcDbSymbolTableRecord
100
AcDbBlockTableRecord
  2
*D8
340
0
 70
0
280
1
281
0
  0
BLOCK_RECORD
  5
1F0
330
9
100
AcDbSymbolTableRecord
100
AcDbBlockTableRecord
  2
*D9
340
0
 70
0
280
1
281
0
  0
BLOCK_RECORD
  5
1FD
330
9
100
AcDbSymbolTableRecord
100
AcDbBlockTableRecord
  2
*D10
340
0
 70
0
280
1
281
0
  0
BLOCK_RECORD
  5
209
330
9
100
AcDbSymbolTableRecord
100
AcDbBlockTableRecord
  2
*D11
340
0
 70
0
280
1
281
0
  0
BLOCK_RECORD
  5
215
330
9
100
AcDbSymbolTableRecord
100
AcDbBlockTableRecord
  2
*D12
340
0
 70
0
280
1
281
0
  0
BLOCK_RECORD
  5
223
330
9
100
AcDbSymbolTableRecord
100
AcDbBlockTableRecord
  2
*D13
340
0
 70
0
280
1
281
0
  0
BLOCK_RECORD
  5
230
330
9
100
AcDbSymbolTableRecord
100
AcDbBlockTableRecord
  2
*D14
340
0
 70
0
280
1
281
0
  0
BLOCK_RECORD
  5
23C
330
9
100
AcDbSymbolTableRecord
100
AcDbBlockTableRecord
  2
*D15
340
0
 70
0
280
1
281
0
  0
BLOCK_RECORD
  5
248
330
9
100
AcDbSymbolTableRecord
100
AcDbBlockTableRecord
  2
*D16
340
0
 70
0
280
1
281
0
  0
BLOCK_RECORD
  5
25A
330
9
100
AcDbSymbolTableRecord
100
AcDbBlockTableRecord
  2
*D17
340
0
 70
0
280
1
281
0
  0
BLOCK_RECORD
  5
26A
330
9
100
AcDbSymbolTableRecord
100
AcDbBlockTableRecord
  2
*D18
340
0
 70
0
280
1
281
0
  0
BLOCK_RECORD
  5
27A
330
9
100
AcDbSymbolTableRecord
100
AcDbBlockTableRecord
  2
*D19
340
0
 70
0
280
1
281
0
  0
ENDTAB
  0
ENDSEC
  0
SECTION
  2
BLOCKS
  0
BLOCK
  5
18
330
17
100
AcDbEntity
  8
0
100
AcDbBlockBegin
  2
*Model_Space
 70
0
 10
0.0
 20
0.0
 30
0.0
  3
*Model_Space
  1

  0
ENDBLK
  5
19
330
17
100
AcDbEntity
  8
0
100
AcDbBlockEnd
  0
BLOCK
  5
1C
330
1B
100
AcDbEntity
  8
0
100
AcDbBlockBegin
  2
*Paper_Space
 70
0
 10
0.0
 20
0.0
 30
0.0
  3
*Paper_Space
  1

  0
ENDBLK
  5
1D
330
1B
100
AcDbEntity
  8
0
100
AcDbBlockEnd
  0
BLOCK
  5
6D
330
6C
100
AcDbEntity
  8
0
100
AcDbBlockBegin
  2
_Oblique
 70
0
 10
0.0
 20
0.0
 30
0.0
  3
_Oblique
  1

  0
LINE
  5
6F
330
6C
100
AcDbEntity
  8
0
  6
ByBlock
 62
0
370
-2
100
AcDbLine
 10
-0.5
 20
-0.5
 30
0.0
 11
0.5
 21
0.5
 31
0.0
  0
ENDBLK
  5
6E
330
6C
100
AcDbEntity
  8
0
100
AcDbBlockEnd
  0
BLOCK
  5
F6
330
F5
100
AcDbEntity
  8
0
100
AcDbBlockBegin
  2
_Open30
 70
0
 10
0.0
 20
0.0
 30
0.0
  3
_Open30
  1

  0
LINE
  5
F8
330
F5
100
AcDbEntity
  8
0
  6
ByBlock
 62
0
370
-2
100
AcDbLine
 10
-1.0
 20
0.26794919
 30
0.0
 11
0.0
 21
0.0
 31
0.0
  0
LINE
  5
F9
330
F5
100
AcDbEntity
  8
0
  6
ByBlock
 62
0
370
-2
100
AcDbLine
 10
0.0
 20
0.0
 30
0.0
 11
-1.0
 21
-0.26794919
 31
0.0
  0
LINE
  5
FA
330
F5
100
AcDbEntity
  8
0
  6
ByBlock
 62
0
370
-2
100
AcDbLine
 10
0.0
 20
0.0
 30
0.0
 11
-1.0
 21
0.0
 31
0.0
  0
ENDBLK
  5
F7
330
F5
100
AcDbEntity
  8
0
100
AcDbBlockEnd
  0
BLOCK
  5
110
330
10F
100
AcDbEntity
  8
0
100
AcDbBlockBegin
  2
f3daunguoc
 70
0
 10
0.0
 20
0.0
 30
0.0
  3
f3daunguoc
  1

  0
CIRCLE
  5
112
330
10F
100
AcDbEntity
  8
CNC
 62
2
370
-3
100
AcDbCircle
 10
0.0
 20
0.0
 30
0.0
 40
1.5
  0
ENDBLK
  5
111
330
10F
100
AcDbEntity
  8
0
100
AcDbBlockEnd
  0
BLOCK
  5
114
330
113
100
AcDbEntity
  8
0
100
AcDbBlockBegin
  2
ovan8.5x20
 70
0
 10
0.0
 20
0.0
 30
0.0
  3
ovan8.5x20
  1

  0
ARC
  5
116
330
113
100
AcDbEntity
  8
CNC
 62
2
370
-3
100
AcDbCircle
 10
-5.750000000007275
 20
0.0
 30
0.0
 40
4.25
100
AcDbArc
 50
90.0
 51
270.0
  0
ARC
  5
117
330
113
100
AcDbEntity
  8
CNC
 62
2
370
-3
100
AcDbCircle
 10
5.749999999992724
 20
0.0
 30
0.0
 40
4.25
100
AcDbArc
 50
270.0
 51
90.0
  0
LINE
  5
118
330
113
100
AcDbEntity
  8
CNC
 62
2
370
-3
100
AcDbLine
 10
5.749999999992724
 20
4.25
 30
0.0
 11
-5.750000000007275
 21
4.25
 31
0.0
  0
LINE
  5
119
330
113
100
AcDbEntity
  8
CNC
 62
2
370
-3
100
AcDbLine
 10
-5.750000000007275
 20
-4.25
 30
0.0
 11
5.749999999992724
 21
-4.25
 31
0.0
  0
ENDBLK
  5
115
330
113
100
AcDbEntity
  8
0
100
AcDbBlockEnd
  0
BLOCK
  5
11B
330
11A
100
AcDbEntity
  8
0
100
AcDbBlockBegin
  2
khungtenAsean2
 70
2
 10
0.0
 20
0.0
 30
0.0
  3
khungtenAsean2
  1

  0
LWPOLYLINE
  5
11D
330
11A
100
AcDbEntity
  8
0
 62
7
100
AcDbPolyline
 90
4
 70
1
 10
0.0
 20
0.0
 10
2970.000000000422
 20
0.0
 10
2970.000000000422
 20
-2100.00000000032
 10
0.0
 20
-2100.00000000032
  0
LINE
  5
11E
330
11A
100
AcDbEntity
  8
0
 62
7
100
AcDbLine
 10
2020.0
 20
-2040.00000000032
 30
0.0
 11
0.0
 21
-2040.00000000032
 31
0.0
  0
LINE
  5
11F
330
11A
100
AcDbEntity
  8
0
 62
7
100
AcDbLine
 10
2970.000000000422
 20
-1980.00000000032
 30
0.0
 11
0.0
 21
-1980.00000000032
 31
0.0
  0
LINE
  5
120
330
11A
100
AcDbEntity
  8
0
 62
7
100
AcDbLine
 10
320.0
 20
-1980.00000000032
 30
0.0
 11
320.0
 21
-2100.00000000032
 31
0.0
  0
LINE
  5
121
330
11A
100
AcDbEntity
  8
0
 62
7
100
AcDbLine
 10
890.0
 20
-1980.00000000032
 30
0.0
 11
890.0
 21
-2100.00000000032
 31
0.0
  0
LINE
  5
122
330
11A
100
AcDbEntity
  8
0
 62
7
100
AcDbLine
 10
1680.0
 20
-1980.00000000032
 30
0.0
 11
1680.0
 21
-2100.00000000032
 31
0.0
  0
LINE
  5
123
330
11A
100
AcDbEntity
  8
0
 62
7
100
AcDbLine
 10
2020.0
 20
-1980.00000000032
 30
0.0
 11
2020.0
 21
-2100.00000000032
 31
0.0
  0
LINE
  5
124
330
11A
100
AcDbEntity
  8
0
 62
7
100
AcDbLine
 10
2860.000000000422
 20
-1980.00000000032
 30
0.0
 11
2860.000000000422
 21
-2100.00000000032
 31
0.0
  0
MTEXT
  5
125
330
11A
100
AcDbEntity
  8
0
 62
2
100
AcDbMText
 10
0.0
 20
-2010.00000000032
 30
0.0
 40
20.0
 41
917.6339389950801
 46
60.00000000000113
 71
4
 72
5
  1
  Thiết kế :
  7
Arial
  0
MTEXT
  5
126
330
11A
100
AcDbEntity
  8
0
 62
2
100
AcDbMText
 10
0.0
 20
-2070.00000000032
 30
0.0
 40
20.0
 41
917.6339389950801
 46
60.00000000000113
 71
4
 72
5
  1
  CNC :
  7
Arial
  0
MTEXT
  5
127
330
11A
100
AcDbEntity
  8
0
 62
2
100
AcDbMText
 10
320.0
 20
-2010.00000000032
 30
0.0
 40
20.0
 41
917.6339389950801
 46
60.00000000000113
 71
4
 72
5
  1
  Khách hàng :
  7
Arial
  0
MTEXT
  5
128
330
11A
100
AcDbEntity
  8
0
 62
2
100
AcDbMText
 10
320.0
 20
-2070.00000000032
 30
0.0
 40
20.0
 41
917.6339389950801
 46
60.00000000000113
 71
4
 72
5
  1
  Giao hàng :
  7
Arial
  0
MTEXT
  5
129
330
11A
100
AcDbEntity
  8
0
 62
2
100
AcDbMText
 10
890.0
 20
-2010.00000000032
 30
0.0
 40
20.0
 41
917.6339389950801
 46
60.00000000000113
 71
4
 72
5
  1
  Tên sản phẩm :
  7
Arial
  0
MTEXT
  5
12A
330
11A
100
AcDbEntity
  8
0
 62
2
100
AcDbMText
 10
890.0
 20
-2070.00000000032
 30
0.0
 40
20.0
 41
917.6339389950801
 46
60.00000000000113
 71
4
 72
5
  1
  Kích thước :
  7
Arial
  0
MTEXT
  5
12B
330
11A
100
AcDbEntity
  8
0
 62
2
100
AcDbMText
 10
1680.0
 20
-2010.00000000032
 30
0.0
 40
20.0
 41
917.6339389950801
 46
60.00000000000113
 71
4
 72
5
  1
  Số lượng :
  7
Arial
  0
MTEXT
  5
12C
330
11A
100
AcDbEntity
  8
0
 62
2
100
AcDbMText
 10
1680.0
 20
-2070.00000000032
 30
0.0
 40
20.0
 41
917.6339389950801
 46
60.00000000000113
 71
4
 72
5
  1
  Loại tôn :
  7
Arial
  0
MTEXT
  5
12D
330
11A
100
AcDbEntity
  8
0
 62
2
100
AcDbMText
 10
2074.15528161102
 20
-2040.00000000032
 30
0.0
 40
20.0
 41
108.3105632220314
 46
120.0000000000011
 71
5
 72
5
  1
Thông\Ptin :
  7
Arial
  0
MTEXT
  5
12E
330
11A
100
AcDbEntity
  8
0
 62
2
100
AcDbMText
 10
2915.000000000422
 20
-2010.00000000032
 30
0.0
 40
20.0
 41
110.0000000000065
 46
60.00000000000113
 71
5
 72
5
  1
Tờ
  7
Arial
  0
LINE
  5
12F
330
11A
100
AcDbEntity
  8
0
 62
7
100
AcDbLine
 10
2128.310563222025
 20
-2005.00000000032
 30
0.0
 11
2128.310563222025
 21
-2075.00000000032
 31
0.0
  0
MTEXT
  5
130
330
11A
100
AcDbEntity
  8
0
 62
2
100
AcDbMText
 10
1382.285678836575
 20
-2070.00000000032
 30
0.0
 40
20.0
 41
917.6339389950801
 46
60.00000000000113
 71
4
 72
5
  1
mm
  7
Arial
  0
MTEXT
  5
131
330
11A
100
AcDbEntity
  8
0
 62
2
100
AcDbMText
 10
1947.610064813329
 20
-2010.00000000032
 30
0.0
 40
20.0
 41
917.6339389950801
 46
60.00000000000113
 71
4
 72
5
  1
cái
  7
Arial
  0
MTEXT
  5
132
330
11A
100
AcDbEntity
  8
0
 62
2
100
AcDbMText
 10
1936.880410494836
 20
-2070.00000000032
 30
0.0
 40
20.0
 41
917.6339389950801
 46
60.00000000000113
 71
4
 72
5
  1
mm
  7
Arial
  0
ATTDEF
  5
133
330
11A
100
AcDbEntity
  8
0
 62
1
100
AcDbText
 10
2883.764212945627
 20
-2067.347800104843
 30
0.0
 40
25.0
  1
......
  7
Tahoma (Input Text)
 72
1
 11
2914.993225705868
 21
-2067.347800104843
 31
0.0
100
AcDbAttributeDefinition
  3
Số trang
  2
#11
 70
8
 71
1
 72
0
 11
2914.993225705868
 21
-2067.347800104843
 31
0.0
  0
ATTDEF
  5
134
330
11A
100
AcDbEntity
  8
0
 62
1
100
AcDbText
 10
2146.716977487464
 20
-2021.275211692002
 30
0.0
 40
25.0
  1
......
  7
Tahoma (Input Text)
100
AcDbAttributeDefinition
  3
Thông tin 1
  2
#09
 70
8
 71
1
 72
0
  0
ATTDEF
  5
135
330
11A
100
AcDbEntity
  8
0
 62
1
100
AcDbText
 10
2146.716977487464
 20
-2081.275211692002
 30
0.0
 40
25.0
  1
......
  7
Tahoma (Input Text)
100
AcDbAttributeDefinition
  3
Thông tin 2
  2
#10
 70
8
 71
1
 72
0
  0
ATTDEF
  5
136
330
11A
100
AcDbEntity
  8
0
 62
1
100
AcDbText
 10
1817.447765733334
 20
-2081.275211692002
 30
0.0
 40
25.0
  1
......
  7
Tahoma (Input Text)
100
AcDbAttributeDefinition
  3
Loại tôn
  2
#08
 70
8
 71
1
 72
0
  0
ATTDEF
  5
137
330
11A
100
AcDbEntity
  8
0
 62
1
100
AcDbText
 10
1834.68151032555
 20
-2021.275211692002
 30
0.0
 40
25.0
  1
......
  7
Tahoma (Input Text)
100
AcDbAttributeDefinition
  3
Số lượng
  2
#07
 70
8
 71
1
 72
0
  0
ATTDEF
  5
138
330
11A
100
AcDbEntity
  8
0
 62
1
100
AcDbText
 10
1065.330889143646
 20
-2081.275211692002
 30
0.0
 40
25.0
  1
......
  7
Tahoma (Input Text)
100
AcDbAttributeDefinition
  3
Kích thước
  2
#06
 70
8
 71
1
 72
0
  0
ATTDEF
  5
139
330
11A
100
AcDbEntity
  8
0
 62
1
100
AcDbText
 10
1106.628177122154
 20
-2021.275211692002
 30
0.0
 40
25.0
  1
......
  7
Tahoma (Input Text)
100
AcDbAttributeDefinition
  3
Tên s.phẩm
  2
#05
 70
8
 71
1
 72
0
  0
ATTDEF
  5
13A
330
11A
100
AcDbEntity
  8
0
 62
1
100
AcDbText
 10
486.1050270054984
 20
-2081.275211692002
 30
0.0
 40
25.0
  1
......
  7
Tahoma (Input Text)
100
AcDbAttributeDefinition
  3
Giao hàng
  2
#04
 70
8
 71
1
 72
0
  0
ATTDEF
  5
13B
330
11A
100
AcDbEntity
  8
0
 62
1
100
AcDbText
 10
506.5707489467022
 20
-2019.301600489707
 30
0.0
 40
25.0
  1
......
  7
Tahoma (Input Text)
100
AcDbAttributeDefinition
  3
Khách hàng
  2
#03
 70
8
 71
1
 72
0
  0
ATTDEF
  5
13C
330
11A
100
AcDbEntity
  8
0
 62
1
100
AcDbText
 10
98.45672450316488
 20
-2081.275211692002
 30
0.0
 40
25.0
  1
......
  7
Tahoma (Input Text)
100
AcDbAttributeDefinition
  3
CNC
  2
#02
 70
8
 71
1
 72
0
  0
ATTDEF
  5
13D
330
11A
100
AcDbEntity
  8
0
 62
1
100
AcDbText
 10
137.0535078375105
 20
-2021.275211692002
 30
0.0
 40
25.0
  1
......
  7
Tahoma (Input Text)
100
AcDbAttributeDefinition
  3
Thiết kế
  2
#01
 70
8
 71
1
 72
0
  0
ENDBLK
  5
11C
330
11A
100
AcDbEntity
  8
0
100
AcDbBlockEnd
  0
BLOCK
  5
146
330
145
100
AcDbEntity
  8
0
100
AcDbBlockBegin
  2
_ArchTick
 70
0
 10
0.0
 20
0.0
 30
0.0
  3
_ArchTick
  1

  0
LWPOLYLINE
  5
148
330
145
100
AcDbEntity
  8
0
 62
0
100
AcDbPolyline
 90
2
 70
0
 43
0.15
 10
-0.5
 20
-0.5
 10
0.5
 20
0.5
  0
ENDBLK
  5
147
330
145
100
AcDbEntity
  8
0
100
AcDbBlockEnd
  0
BLOCK
  5
18D
330
18C
100
AcDbEntity
  8
0
100
AcDbBlockBegin
  2
*D1
 70
1
 10
0.0
 20
0.0
 30
0.0
  3
*D1
  1

  0
LINE
  5
18F
330
18C
100
AcDbEntity
  8
DIM
 62
5
370
9
440
16777216
100
AcDbLine
 10
832.705605865267
 20
2093.9959623088216
 30
0.0
 11
832.705605865267
 21
2148.0970450224922
 31
0.0
  0
LINE
  5
190
330
18C
100
AcDbEntity
  8
DIM
 62
5
370
9
440
16777216
100
AcDbLine
 10
842.7056058652379
 20
2083.9959623088216
 30
0.0
 11
842.7056058652379
 21
2148.0970450224922
 31
0.0
  0
LINE
  5
191
330
18C
100
AcDbEntity
  8
DIM
 62
5
370
9
440
16777216
100
AcDbLine
 10
832.705605865267
 20
2138.0970450224922
 30
0.0
 11
824.705605865267
 21
2138.0970450224922
 31
0.0
  0
LINE
  5
192
330
18C
100
AcDbEntity
  8
DIM
 62
5
370
9
440
16777216
100
AcDbLine
 10
842.7056058652379
 20
2138.0970450224922
 30
0.0
 11
912.0787300125812
 21
2138.0970450224922
 31
0.0
  0
LINE
  5
193
330
18C
100
AcDbEntity
  8
DIM
 62
5
370
9
440
16777216
100
AcDbLine
 10
832.705605865267
 20
2138.0970450224922
 30
0.0
 11
842.7056058652379
 21
2138.0970450224922
 31
0.0
  0
LINE
  5
194
330
18C
100
AcDbEntity
  8
0
  6
ByBlock
 62
0
370
-2
100
AcDbLine
 10
828.705605865267
 20
2134.0970450224922
 30
0.0
 11
836.705605865267
 21
2142.0970450224922
 31
0.0
  0
LINE
  5
195
330
18C
100
AcDbEntity
  8
0
  6
ByBlock
 62
0
370
-2
100
AcDbLine
 10
846.7056058652379
 20
2142.0970450224922
 30
0.0
 11
838.7056058652379
 21
2134.0970450224922
 31
0.0
  0
MTEXT
  5
196
330
18C
100
AcDbEntity
  8
DIM
 62
3
440
16777216
100
AcDbMText
 10
885.3921679389096
 20
2160.8613697155306
 30
0.0
 40
25.0
 41
0.0
 46
0.0
 71
5
  1
10
  0
POINT
  5
197
330
18C
100
AcDbEntity
  8
Defpoints
 62
0
440
16777216
100
AcDbPoint
 10
832.705605865267
 20
2078.9959623088216
 30
0.0
  0
POINT
  5
198
330
18C
100
AcDbEntity
  8
Defpoints
 62
0
440
16777216
100
AcDbPoint
 10
842.7056058652379
 20
2068.9959623088216
 30
0.0
  0
POINT
  5
199
330
18C
100
AcDbEntity
  8
Defpoints
 62
0
440
16777216
100
AcDbPoint
 10
842.7056058652379
 20
2138.0970450224922
 30
0.0
  0
ENDBLK
  5
18E
330
18C
100
AcDbEntity
  8
0
100
AcDbBlockEnd
  0
BLOCK
  5
19B
330
19A
100
AcDbEntity
  8
0
100
AcDbBlockBegin
  2
*D2
 70
1
 10
0.0
 20
0.0
 30
0.0
  3
*D2
  1

  0
LINE
  5
19D
330
19A
100
AcDbEntity
  8
DIM
 62
5
370
9
440
16777216
100
AcDbLine
 10
816.705605865267
 20
2109.9959623088216
 30
0.0
 11
816.705605865267
 21
2184.1599898233326
 31
0.0
  0
LINE
  5
19E
330
19A
100
AcDbEntity
  8
DIM
 62
5
370
9
440
16777216
100
AcDbLine
 10
832.705605865267
 20
2093.9959623088216
 30
0.0
 11
832.705605865267
 21
2184.1599898233326
 31
0.0
  0
LINE
  5
19F
330
19A
100
AcDbEntity
  8
DIM
 62
5
370
9
440
16777216
100
AcDbLine
 10
816.705605865267
 20
2174.1599898233326
 30
0.0
 11
808.705605865267
 21
2174.1599898233326
 31
0.0
  0
LINE
  5
1A0
330
19A
100
AcDbEntity
  8
DIM
 62
5
370
9
440
16777216
100
AcDbLine
 10
832.705605865267
 20
2174.1599898233326
 30
0.0
 11
902.1469428366181
 21
2174.1599898233326
 31
0.0
  0
LINE
  5
1A1
330
19A
100
AcDbEntity
  8
DIM
 62
5
370
9
440
16777216
100
AcDbLine
 10
816.705605865267
 20
2174.1599898233326
 30
0.0
 11
832.705605865267
 21
2174.1599898233326
 31
0.0
  0
LINE
  5
1A2
330
19A
100
AcDbEntity
  8
0
  6
ByBlock
 62
0
370
-2
100
AcDbLine
 10
812.705605865267
 20
2170.1599898233326
 30
0.0
 11
820.705605865267
 21
2178.1599898233326
 31
0.0
  0
LINE
  5
1A3
330
19A
100
AcDbEntity
  8
0
  6
ByBlock
 62
0
370
-2
100
AcDbLine
 10
836.705605865267
 20
2178.1599898233326
 30
0.0
 11
828.705605865267
 21
2170.1599898233326
 31
0.0
  0
MTEXT
  5
1A4
330
19A
100
AcDbEntity
  8
DIM
 62
3
440
16777216
100
AcDbMText
 10
875.4262743509389
 20
2196.924314516371
 30
0.0
 40
25.0
 41
0.0
 46
0.0
 71
5
  1
16
  0
POINT
  5
1A5
330
19A
100
AcDbEntity
  8
Defpoints
 62
0
440
16777216
100
AcDbPoint
 10
816.705605865267
 20
2094.9959623088216
 30
0.0
  0
POINT
  5
1A6
330
19A
100
AcDbEntity
  8
Defpoints
 62
0
440
16777216
100
AcDbPoint
 10
832.705605865267
 20
2078.9959623088216
 30
0.0
  0
POINT
  5
1A7
330
19A
100
AcDbEntity
  8
Defpoints
 62
0
440
16777216
100
AcDbPoint
 10
832.705605865267
 20
2174.1599898233326
 30
0.0
  0
ENDBLK
  5
19C
330
19A
100
AcDbEntity
  8
0
100
AcDbBlockEnd
  0
BLOCK
  5
1A9
330
1A8
100
AcDbEntity
  8
0
100
AcDbBlockBegin
  2
*D3
 70
1
 10
0.0
 20
0.0
 30
0.0
  3
*D3
  1

  0
LINE
  5
1AB
330
1A8
100
AcDbEntity
  8
DIM
 62
5
370
9
440
16777216
100
AcDbLine
 10
816.705605865267
 20
2109.9959623088216
 30
0.0
 11
816.705605865267
 21
2184.1599898233326
 31
0.0
  0
LINE
  5
1AC
330
1A8
100
AcDbEntity
  8
DIM
 62
5
370
9
440
16777216
100
AcDbLine
 10
317.705605865267
 20
2109.9959623088216
 30
0.0
 11
317.705605865267
 21
2184.1599898233326
 31
0.0
  0
LINE
  5
1AD
330
1A8
100
AcDbEntity
  8
DIM
 62
5
370
9
440
16777216
100
AcDbLine
 10
816.705605865267
 20
2174.1599898233326
 30
0.0
 11
317.705605865267
 21
2174.1599898233326
 31
0.0
  0
LINE
  5
1AE
330
1A8
100
AcDbEntity
  8
0
  6
ByBlock
 62
0
370
-2
100
AcDbLine
 10
812.705605865267
 20
2170.1599898233326
 30
0.0
 11
820.705605865267
 21
2178.1599898233326
 31
0.0
  0
LINE
  5
1AF
330
1A8
100
AcDbEntity
  8
0
  6
ByBlock
 62
0
370
-2
100
AcDbLine
 10
321.705605865267
 20
2178.1599898233326
 30
0.0
 11
313.705605865267
 21
2170.1599898233326
 31
0.0
  0
MTEXT
  5
1B0
330
1A8
100
AcDbEntity
  8
DIM
 62
3
440
16777216
100
AcDbMText
 10
567.205605865267
 20
2196.924314516371
 30
0.0
 40
25.0
 41
0.0
 46
0.0
 71
5
  1
499
  0
POINT
  5
1B1
330
1A8
100
AcDbEntity
  8
Defpoints
 62
0
440
16777216
100
AcDbPoint
 10
816.705605865267
 20
2094.9959623088216
 30
0.0
  0
POINT
  5
1B2
330
1A8
100
AcDbEntity
  8
Defpoints
 62
0
440
16777216
100
AcDbPoint
 10
317.705605865267
 20
2094.9959623088216
 30
0.0
  0
POINT
  5
1B3
330
1A8
100
AcDbEntity
  8
Defpoints
 62
0
440
16777216
100
AcDbPoint
 10
317.705605865267
 20
2174.1599898233326
 30
0.0
  0
ENDBLK
  5
1AA
330
1A8
100
AcDbEntity
  8
0
100
AcDbBlockEnd
  0
BLOCK
  5
1B5
330
1B4
100
AcDbEntity
  8
0
100
AcDbBlockBegin
  2
*D4
 70
1
 10
0.0
 20
0.0
 30
0.0
  3
*D4
  1

  0
LINE
  5
1B7
330
1B4
100
AcDbEntity
  8
DIM
 62
5
370
9
440
16777216
100
AcDbLine
 10
286.705605865267
 20
2078.9959623088216
 30
0.0
 11
231.41347433163173
 21
2078.9959623088216
 31
0.0
  0
LINE
  5
1B8
330
1B4
100
AcDbEntity
  8
DIM
 62
5
370
9
440
16777216
100
AcDbLine
 10
286.705605865267
 20
1409.9959623088216
 30
0.0
 11
231.41347433163173
 21
1409.9959623088216
 31
0.0
  0
LINE
  5
1B9
330
1B4
100
AcDbEntity
  8
DIM
 62
5
370
9
440
16777216
100
AcDbLine
 10
241.41347433163173
 20
2078.9959623088216
 30
0.0
 11
241.41347433163173
 21
1409.9959623088216
 31
0.0
  0
LINE
  5
1BA
330
1B4
100
AcDbEntity
  8
0
  6
ByBlock
 62
0
370
-2
100
AcDbLine
 10
245.41347433163173
 20
2074.9959623088216
 30
0.0
 11
237.41347433163173
 21
2082.9959623088216
 31
0.0
  0
LINE
  5
1BB
330
1B4
100
AcDbEntity
  8
0
  6
ByBlock
 62
0
370
-2
100
AcDbLine
 10
237.41347433163173
 20
1413.9959623088216
 30
0.0
 11
245.41347433163173
 21
1405.9959623088216
 31
0.0
  0
MTEXT
  5
1BC
330
1B4
100
AcDbEntity
  8
DIM
 62
3
440
16777216
100
AcDbMText
 10
218.64914963857154
 20
1744.4959623088216
 30
0.0
 40
25.0
 41
0.0
 46
0.0
 71
5
  1
669
 11
1e-16
 21
1.0
 31
0.0
  0
POINT
  5
1BD
330
1B4
100
AcDbEntity
  8
Defpoints
 62
0
440
16777216
100
AcDbPoint
 10
301.705605865267
 20
2078.9959623088216
 30
0.0
  0
POINT
  5
1BE
330
1B4
100
AcDbEntity
  8
Defpoints
 62
0
440
16777216
100
AcDbPoint
 10
301.705605865267
 20
1409.9959623088216
 30
0.0
  0
POINT
  5
1BF
330
1B4
100
AcDbEntity
  8
Defpoints
 62
0
440
16777216
100
AcDbPoint
 10
241.41347433163173
 20
1409.9959623088216
 30
0.0
  0
ENDBLK
  5
1B6
330
1B4
100
AcDbEntity
  8
0
100
AcDbBlockEnd
  0
BLOCK
  5
1C1
330
1C0
100
AcDbEntity
  8
0
100
AcDbBlockBegin
  2
*D5
 70
1
 10
0.0
 20
0.0
 30
0.0
  3
*D5
  1

  0
LINE
  5
1C3
330
1C0
100
AcDbEntity
  8
DIM
 62
5
370
9
440
16777216
100
AcDbLine
 10
312.705605865267
 20
2104.9959623088107
 30
0.0
 11
155.78410105638613
 21
2104.9959623088107
 31
0.0
  0
LINE
  5
1C4
330
1C0
100
AcDbEntity
  8
DIM
 62
5
370
9
440
16777216
100
AcDbLine
 10
312.7056058652961
 20
1383.9959623088216
 30
0.0
 11
155.78410105638613
 21
1383.9959623088216
 31
0.0
  0
LINE
  5
1C5
330
1C0
100
AcDbEntity
  8
DIM
 62
5
370
9
440
16777216
100
AcDbLine
 10
165.78410105638613
 20
2104.9959623088107
 30
0.0
 11
165.78410105638613
 21
1383.9959623088216
 31
0.0
  0
LINE
  5
1C6
330
1C0
100
AcDbEntity
  8
0
  6
ByBlock
 62
0
370
-2
100
AcDbLine
 10
169.78410105638613
 20
2100.9959623088107
 30
0.0
 11
161.78410105638613
 21
2108.9959623088107
 31
0.0
  0
LINE
  5
1C7
330
1C0
100
AcDbEntity
  8
0
  6
ByBlock
 62
0
370
-2
100
AcDbLine
 10
161.78410105638613
 20
1387.9959623088216
 30
0.0
 11
169.78410105638613
 21
1379.9959623088216
 31
0.0
  0
MTEXT
  5
1C8
330
1C0
100
AcDbEntity
  8
DIM
 62
3
440
16777216
100
AcDbMText
 10
143.2329414383712
 20
1744.4959623088216
 30
0.0
 40
25.0
 41
0.0
 46
0.0
 71
5
  1
721
 11
1e-16
 21
1.0
 31
0.0
  0
POINT
  5
1C9
330
1C0
100
AcDbEntity
  8
Defpoints
 62
0
440
16777216
100
AcDbPoint
 10
327.705605865267
 20
2104.9959623088107
 30
0.0
  0
POINT
  5
1CA
330
1C0
100
AcDbEntity
  8
Defpoints
 62
0
440
16777216
100
AcDbPoint
 10
327.7056058652961
 20
1383.9959623088216
 30
0.0
  0
POINT
  5
1CB
330
1C0
100
AcDbEntity
  8
Defpoints
 62
0
440
16777216
100
AcDbPoint
 10
165.78410105638613
 20
1383.9959623088216
 30
0.0
  0
ENDBLK
  5
1C2
330
1C0
100
AcDbEntity
  8
0
100
AcDbBlockEnd
  0
BLOCK
  5
1CD
330
1CC
100
AcDbEntity
  8
0
100
AcDbBlockBegin
  2
*D6
 70
1
 10
0.0
 20
0.0
 30
0.0
  3
*D6
  1

  0
LINE
  5
1CF
330
1CC
100
AcDbEntity
  8
DIM
 62
5
370
9
440
16777216
100
AcDbLine
 10
291.7056058652379
 20
1404.9959623088216
 30
0.0
 11
291.7056058652379
 21
1310.7174092374698
 31
0.0
  0
LINE
  5
1D0
330
1CC
100
AcDbEntity
  8
DIM
 62
5
370
9
440
16777216
100
AcDbLine
 10
842.7056058652379
 20
1404.9959623088216
 30
0.0
 11
842.7056058652379
 21
1310.7174092374698
 31
0.0
  0
LINE
  5
1D1
330
1CC
100
AcDbEntity
  8
DIM
 62
5
370
9
440
16777216
100
AcDbLine
 10
291.7056058652379
 20
1320.7174092374698
 30
0.0
 11
842.7056058652379
 21
1320.7174092374698
 31
0.0
  0
LINE
  5
1D2
330
1CC
100
AcDbEntity
  8
0
  6
ByBlock
 62
0
370
-2
100
AcDbLine
 10
295.7056058652379
 20
1324.7174092374698
 30
0.0
 11
287.7056058652379
 21
1316.7174092374698
 31
0.0
  0
LINE
  5
1D3
330
1CC
100
AcDbEntity
  8
0
  6
ByBlock
 62
0
370
-2
100
AcDbLine
 10
838.7056058652379
 20
1316.7174092374698
 30
0.0
 11
846.7056058652379
 21
1324.7174092374698
 31
0.0
  0
MTEXT
  5
1D4
330
1CC
100
AcDbEntity
  8
DIM
 62
3
440
16777216
100
AcDbMText
 10
567.2056058652379
 20
1343.4817339305118
 30
0.0
 40
25.0
 41
0.0
 46
0.0
 71
5
  1
551
  0
POINT
  5
1D5
330
1CC
100
AcDbEntity
  8
Defpoints
 62
0
440
16777216
100
AcDbPoint
 10
291.7056058652379
 20
1419.9959623088216
 30
0.0
  0
POINT
  5
1D6
330
1CC
100
AcDbEntity
  8
Defpoints
 62
0
440
16777216
100
AcDbPoint
 10
842.7056058652379
 20
1419.9959623088216
 30
0.0
  0
POINT
  5
1D7
330
1CC
100
AcDbEntity
  8
Defpoints
 62
0
440
16777216
100
AcDbPoint
 10
842.7056058652379
 20
1320.7174092374698
 30
0.0
  0
ENDBLK
  5
1CE
330
1CC
100
AcDbEntity
  8
0
100
AcDbBlockEnd
  0
BLOCK
  5
1D9
330
1D8
100
AcDbEntity
  8
0
100
AcDbBlockBegin
  2
*D7
 70
1
 10
0.0
 20
0.0
 30
0.0
  3
*D7
  1

  0
LINE
  5
1DB
330
1D8
100
AcDbEntity
  8
DIM
 62
5
370
9
440
16777216
100
AcDbLine
 10
493.7480937210494
 20
526.4878815354423
 30
0.0
 11
493.7480937210494
 21
476.7870750199327
 31
0.0
  0
LINE
  5
1DC
330
1D8
100
AcDbEntity
  8
DIM
 62
5
370
9
440
16777216
100
AcDbLine
 10
1096.7480937210494
 20
526.4878815354423
 30
0.0
 11
1096.7480937210494
 21
476.7870750199327
 31
0.0
  0
LINE
  5
1DD
330
1D8
100
AcDbEntity
  8
DIM
 62
5
370
9
440
16777216
100
AcDbLine
 10
493.7480937210494
 20
486.7870750199327
 30
0.0
 11
1096.7480937210494
 21
486.7870750199327
 31
0.0
  0
LINE
  5
1DE
330
1D8
100
AcDbEntity
  8
0
  6
ByBlock
 62
0
370
-2
100
AcDbLine
 10
497.7480937210494
 20
490.7870750199327
 30
0.0
 11
489.7480937210494
 21
482.7870750199327
 31
0.0
  0
LINE
  5
1DF
330
1D8
100
AcDbEntity
  8
0
  6
ByBlock
 62
0
370
-2
100
AcDbLine
 10
1092.7480937210494
 20
482.7870750199327
 30
0.0
 11
1100.7480937210494
 21
490.7870750199327
 31
0.0
  0
MTEXT
  5
1E0
330
1D8
100
AcDbEntity
  8
DIM
 62
3
440
16777216
100
AcDbMText
 10
795.2480937210494
 20
509.5599263159711
 30
0.0
 40
25.0
 41
0.0
 46
0.0
 71
5
  1
603
  0
POINT
  5
1E1
330
1D8
100
AcDbEntity
  8
Defpoints
 62
0
440
16777216
100
AcDbPoint
 10
493.7480937210494
 20
541.4878815354423
 30
0.0
  0
POINT
  5
1E2
330
1D8
100
AcDbEntity
  8
Defpoints
 62
0
440
16777216
100
AcDbPoint
 10
1096.7480937210494
 20
541.4878815354423
 30
0.0
  0
POINT
  5
1E3
330
1D8
100
AcDbEntity
  8
Defpoints
 62
0
440
16777216
100
AcDbPoint
 10
1096.7480937210494
 20
486.7870750199327
 30
0.0
  0
ENDBLK
  5
1DA
330
1D8
100
AcDbEntity
  8
0
100
AcDbBlockEnd
  0
BLOCK
  5
1E5
330
1E4
100
AcDbEntity
  8
0
100
AcDbBlockBegin
  2
*D8
 70
1
 10
0.0
 20
0.0
 30
0.0
  3
*D8
  1

  0
LINE
  5
1E7
330
1E4
100
AcDbEntity
  8
DIM
 62
5
370
9
440
16777216
100
AcDbLine
 10
1111.7480937210494
 20
956.4878815354314
 30
0.0
 11
1204.3570827716321
 21
956.4878815354314
 31
0.0
  0
LINE
  5
1E8
330
1E4
100
AcDbEntity
  8
DIM
 62
5
370
9
440
16777216
100
AcDbLine
 10
1111.7480937210494
 20
541.4878815354423
 30
0.0
 11
1204.3570827716321
 21
541.4878815354423
 31
0.0
  0
LINE
  5
1E9
330
1E4
100
AcDbEntity
  8
DIM
 62
5
370
9
440
16777216
100
AcDbLine
 10
1194.3570827716394
 20
956.4878815354314
 30
0.0
 11
1194.3570827716394
 21
541.4878815354423
 31
0.0
  0
LINE
  5
1EA
330
1E4
100
AcDbEntity
  8
0
  6
ByBlock
 62
0
370
-2
100
AcDbLine
 10
1198.3570827716394
 20
952.4878815354314
 30
0.0
 11
1190.3570827716394
 21
960.4878815354314
 31
0.0
  0
LINE
  5
1EB
330
1E4
100
AcDbEntity
  8
0
  6
ByBlock
 62
0
370
-2
100
AcDbLine
 10
1190.3570827716394
 20
545.4878815354423
 30
0.0
 11
1198.3570827716394
 21
537.4878815354423
 31
0.0
  0
MTEXT
  5
1EC
330
1E4
100
AcDbEntity
  8
DIM
 62
3
440
16777216
100
AcDbMText
 10
1171.5927580785792
 20
842.4878815354532
 30
0.0
 40
25.0
 41
0.0
 46
0.0
 71
5
  1
415
 11
1e-16
 21
1.0
 31
0.0
  0
POINT
  5
1ED
330
1E4
100
AcDbEntity
  8
Defpoints
 62
0
440
16777216
100
AcDbPoint
 10
1096.7480937210494
 20
956.4878815354314
 30
0.0
  0
POINT
  5
1EE
330
1E4
100
AcDbEntity
  8
Defpoints
 62
0
440
16777216
100
AcDbPoint
 10
1096.7480937210494
 20
541.4878815354423
 30
0.0
  0
POINT
  5
1EF
330
1E4
100
AcDbEntity
  8
Defpoints
 62
0
440
16777216
100
AcDbPoint
 10
1194.3570827716394
 20
541.4878815354423
 30
0.0
  0
ENDBLK
  5
1E6
330
1E4
100
AcDbEntity
  8
0
100
AcDbBlockEnd
  0
BLOCK
  5
1F1
330
1F0
100
AcDbEntity
  8
0
100
AcDbBlockBegin
  2
*D9
 70
1
 10
0.0
 20
0.0
 30
0.0
  3
*D9
  1

  0
LINE
  5
1F3
330
1F0
100
AcDbEntity
  8
DIM
 62
5
370
9
440
16777216
100
AcDbLine
 10
478.7480937210494
 20
956.4878815354314
 30
0.0
 11
393.3601926231131
 21
956.4878815354314
 31
0.0
  0
LINE
  5
1F4
330
1F0
100
AcDbEntity
  8
DIM
 62
5
370
9
440
16777216
100
AcDbLine
 10
428.7480937210494
 20
906.4878815354314
 30
0.0
 11
393.3601926231131
 21
906.4878815354314
 31
0.0
  0
LINE
  5
1F5
330
1F0
100
AcDbEntity
  8
DIM
 62
5
370
9
440
16777216
100
AcDbLine
 10
403.3601926231131
 20
956.4878815354314
 30
0.0
 11
403.3601926231131
 21
906.4878815354314
 31
0.0
  0
LINE
  5
1F6
330
1F0
100
AcDbEntity
  8
DIM
 62
5
370
9
440
16777216
100
AcDbLine
 10
403.3601926231131
 20
906.4878815354314
 30
0.0
 11
403.3601926231131
 21
842.7614149597212
 31
0.0
  0
LINE
  5
1F7
330
1F0
100
AcDbEntity
  8
0
  6
ByBlock
 62
0
370
-2
100
AcDbLine
 10
407.3601926231131
 20
952.4878815354314
 30
0.0
 11
399.3601926231131
 21
960.4878815354314
 31
0.0
  0
LINE
  5
1F8
330
1F0
100
AcDbEntity
  8
0
  6
ByBlock
 62
0
370
-2
100
AcDbLine
 10
399.3601926231131
 20
910.4878815354314
 30
0.0
 11
407.3601926231131
 21
902.4878815354314
 31
0.0
  0
MTEXT
  5
1F9
330
1F0
100
AcDbEntity
  8
DIM
 62
3
440
16777216
100
AcDbMText
 10
380.5958679300602
 20
870.6246482475799
 30
0.0
 40
25.0
 41
0.0
 46
0.0
 71
5
  1
50
 11
1e-16
 21
1.0
 31
0.0
  0
POINT
  5
1FA
330
1F0
100
AcDbEntity
  8
Defpoints
 62
0
440
16777216
100
AcDbPoint
 10
493.7480937210494
 20
956.4878815354314
 30
0.0
  0
POINT
  5
1FB
330
1F0
100
AcDbEntity
  8
Defpoints
 62
0
440
16777216
100
AcDbPoint
 10
443.7480937210494
 20
906.4878815354314
 30
0.0
  0
POINT
  5
1FC
330
1F0
100
AcDbEntity
  8
Defpoints
 62
0
440
16777216
100
AcDbPoint
 10
403.3601926231131
 20
906.4878815354314
 30
0.0
  0
ENDBLK
  5
1F2
330
1F0
100
AcDbEntity
  8
0
100
AcDbBlockEnd
  0
BLOCK
  5
1FE
330
1FD
100
AcDbEntity
  8
0
100
AcDbBlockBegin
  2
*D10
 70
1
 10
0.0
 20
0.0
 30
0.0
  3
*D10
  1

  0
LINE
  5
200
330
1FD
100
AcDbEntity
  8
DIM
 62
5
370
9
440
16777216
100
AcDbLine
 10
428.7480937210494
 20
906.4878815354314
 30
0.0
 11
393.3601926230476
 21
906.4878815354314
 31
0.0
  0
LINE
  5
201
330
1FD
100
AcDbEntity
  8
DIM
 62
5
370
9
440
16777216
100
AcDbLine
 10
456.7480937210494
 20
571.4878815354314
 30
0.0
 11
393.3601926230476
 21
571.4878815354314
 31
0.0
  0
LINE
  5
202
330
1FD
100
AcDbEntity
  8
DIM
 62
5
370
9
440
16777216
100
AcDbLine
 10
403.3601926230476
 20
906.4878815354314
 30
0.0
 11
403.3601926230476
 21
571.4878815354314
 31
0.0
  0
LINE
  5
203
330
1FD
100
AcDbEntity
  8
0
  6
ByBlock
 62
0
370
-2
100
AcDbLine
 10
407.3601926230476
 20
902.4878815354314
 30
0.0
 11
399.3601926230476
 21
910.4878815354314
 31
0.0
  0
LINE
  5
204
330
1FD
100
AcDbEntity
  8
0
  6
ByBlock
 62
0
370
-2
100
AcDbLine
 10
399.3601926230476
 20
575.4878815354314
 30
0.0
 11
407.3601926230476
 21
567.4878815354314
 31
0.0
  0
MTEXT
  5
205
330
1FD
100
AcDbEntity
  8
DIM
 62
3
440
16777216
100
AcDbMText
 10
380.5873413270019
 20
738.9878815354423
 30
0.0
 40
25.0
 41
0.0
 46
0.0
 71
5
  1
335
 11
1e-16
 21
1.0
 31
0.0
  0
POINT
  5
206
330
1FD
100
AcDbEntity
  8
Defpoints
 62
0
440
16777216
100
AcDbPoint
 10
443.7480937210494
 20
906.4878815354314
 30
0.0
  0
POINT
  5
207
330
1FD
100
AcDbEntity
  8
Defpoints
 62
0
440
16777216
100
AcDbPoint
 10
471.7480937210494
 20
571.4878815354314
 30
0.0
  0
POINT
  5
208
330
1FD
100
AcDbEntity
  8
Defpoints
 62
0
440
16777216
100
AcDbPoint
 10
403.3601926230476
 20
571.4878815354314
 30
0.0
  0
ENDBLK
  5
1FF
330
1FD
100
AcDbEntity
  8
0
100
AcDbBlockEnd
  0
BLOCK
  5
20A
330
209
100
AcDbEntity
  8
0
100
AcDbBlockBegin
  2
*D11
 70
1
 10
0.0
 20
0.0
 30
0.0
  3
*D11
  1

  0
LINE
  5
20C
330
209
100
AcDbEntity
  8
DIM
 62
5
370
9
440
16777216
100
AcDbLine
 10
456.7480937210494
 20
571.4878815354314
 30
0.0
 11
393.3601926231713
 21
571.4878815354314
 31
0.0
  0
LINE
  5
20D
330
209
100
AcDbEntity
  8
DIM
 62
5
370
9
440
16777216
100
AcDbLine
 10
478.7480937210494
 20
551.4878815354314
 30
0.0
 11
393.3601926231713
 21
551.4878815354314
 31
0.0
  0
LINE
  5
20E
330
209
100
AcDbEntity
  8
DIM
 62
5
370
9
440
16777216
100
AcDbLine
 10
403.3601926231713
 20
571.4878815354314
 30
0.0
 11
403.3601926231713
 21
551.4878815354314
 31
0.0
  0
LINE
  5
20F
330
209
100
AcDbEntity
  8
0
  6
ByBlock
 62
0
370
-2
100
AcDbLine
 10
407.3601926231713
 20
567.4878815354314
 30
0.0
 11
399.3601926231713
 21
575.4878815354314
 31
0.0
  0
LINE
  5
210
330
209
100
AcDbEntity
  8
0
  6
ByBlock
 62
0
370
-2
100
AcDbLine
 10
399.3601926231713
 20
555.4878815354314
 30
0.0
 11
407.3601926231713
 21
547.4878815354314
 31
0.0
  0
MTEXT
  5
211
330
209
100
AcDbEntity
  8
DIM
 62
3
440
16777216
100
AcDbMText
 10
380.5958679301184
 20
561.4878815354423
 30
0.0
 40
25.0
 41
0.0
 46
0.0
 71
5
  1
20
 11
1e-16
 21
1.0
 31
0.0
  0
POINT
  5
212
330
209
100
AcDbEntity
  8
Defpoints
 62
0
440
16777216
100
AcDbPoint
 10
471.7480937210494
 20
571.4878815354314
 30
0.0
  0
POINT
  5
213
330
209
100
AcDbEntity
  8
Defpoints
 62
0
440
16777216
100
AcDbPoint
 10
493.7480937210494
 20
551.4878815354314
 30
0.0
  0
POINT
  5
214
330
209
100
AcDbEntity
  8
Defpoints
 62
0
440
16777216
100
AcDbPoint
 10
403.3601926231713
 20
551.4878815354314
 30
0.0
  0
ENDBLK
  5
20B
330
209
100
AcDbEntity
  8
0
100
AcDbBlockEnd
  0
BLOCK
  5
216
330
215
100
AcDbEntity
  8
0
100
AcDbBlockBegin
  2
*D12
 70
1
 10
0.0
 20
0.0
 30
0.0
  3
*D12
  1

  0
LINE
  5
218
330
215
100
AcDbEntity
  8
DIM
 62
5
370
9
440
16777216
100
AcDbLine
 10
478.7480937210494
 20
551.4878815354314
 30
0.0
 11
393.3601926230185
 21
551.4878815354314
 31
0.0
  0
LINE
  5
219
330
215
100
AcDbEntity
  8
DIM
 62
5
370
9
440
16777216
100
AcDbLine
 10
478.7480937210494
 20
541.4878815354423
 30
0.0
 11
393.3601926230185
 21
541.4878815354423
 31
0.0
  0
LINE
  5
21A
330
215
100
AcDbEntity
  8
DIM
 62
5
370
9
440
16777216
100
AcDbLine
 10
403.3601926230185
 20
551.4878815354314
 30
0.0
 11
403.3601926230185
 21
559.4878815354314
 31
0.0
  0
LINE
  5
21B
330
215
100
AcDbEntity
  8
DIM
 62
5
370
9
440
16777216
100
AcDbLine
 10
403.3601926230185
 20
541.4878815354423
 30
0.0
 11
403.3601926230185
 21
472.1147573880917
 31
0.0
  0
LINE
  5
21C
330
215
100
AcDbEntity
  8
DIM
 62
5
370
9
440
16777216
100
AcDbLine
 10
403.3601926230185
 20
551.4878815354314
 30
0.0
 11
403.3601926230185
 21
541.4878815354423
 31
0.0
  0
LINE
  5
21D
330
215
100
AcDbEntity
  8
0
  6
ByBlock
 62
0
370
-2
100
AcDbLine
 10
399.3601926230185
 20
555.4878815354314
 30
0.0
 11
407.3601926230185
 21
547.4878815354314
 31
0.0
  0
LINE
  5
21E
330
215
100
AcDbEntity
  8
0
  6
ByBlock
 62
0
370
-2
100
AcDbLine
 10
407.3601926230185
 20
537.4878815354423
 30
0.0
 11
399.3601926230185
 21
545.4878815354423
 31
0.0
  0
MTEXT
  5
21F
330
215
100
AcDbEntity
  8
DIM
 62
3
440
16777216
100
AcDbMText
 10
380.5958679299729
 20
498.8013194617706
 30
0.0
 40
25.0
 41
0.0
 46
0.0
 71
5
  1
10
 11
1e-16
 21
1.0
 31
0.0
  0
POINT
  5
220
330
215
100
AcDbEntity
  8
Defpoints
 62
0
440
16777216
100
AcDbPoint
 10
493.7480937210494
 20
551.4878815354314
 30
0.0
  0
POINT
  5
221
330
215
100
AcDbEntity
  8
Defpoints
 62
0
440
16777216
100
AcDbPoint
 10
493.7480937210494
 20
541.4878815354423
 30
0.0
  0
POINT
  5
222
330
215
100
AcDbEntity
  8
Defpoints
 62
0
440
16777216
100
AcDbPoint
 10
403.3601926230185
 20
541.4878815354423
 30
0.0
  0
ENDBLK
  5
217
330
215
100
AcDbEntity
  8
0
100
AcDbBlockEnd
  0
BLOCK
  5
224
330
223
100
AcDbEntity
  8
0
100
AcDbBlockBegin
  2
*D13
 70
1
 10
0.0
 20
0.0
 30
0.0
  3
*D13
  1

  0
LINE
  5
226
330
223
100
AcDbEntity
  8
DIM
 62
5
370
9
440
16777216
100
AcDbLine
 10
443.7480937210494
 20
921.4878815354314
 30
0.0
 11
443.7480937210494
 21
999.2018111085927
 31
0.0
  0
LINE
  5
227
330
223
100
AcDbEntity
  8
DIM
 62
5
370
9
440
16777216
100
AcDbLine
 10
493.7480937210494
 20
971.4878815354314
 30
0.0
 11
493.7480937210494
 21
999.2018111085927
 31
0.0
  0
LINE
  5
228
330
223
100
AcDbEntity
  8
DIM
 62
5
370
9
440
16777216
100
AcDbLine
 10
443.7480937210494
 20
989.2018111085927
 30
0.0
 11
493.7480937210494
 21
989.2018111085927
 31
0.0
  0
LINE
  5
229
330
223
100
AcDbEntity
  8
DIM
 62
5
370
9
440
16777216
100
AcDbLine
 10
493.7480937210494
 20
989.2018111085927
 30
0.0
 11
557.4745602967669
 21
989.2018111085927
 31
0.0
  0
LINE
  5
22A
330
223
100
AcDbEntity
  8
0
  6
ByBlock
 62
0
370
-2
100
AcDbLine
 10
447.7480937210494
 20
993.2018111085927
 30
0.0
 11
439.7480937210494
 21
985.2018111085927
 31
0.0
  0
LINE
  5
22B
330
223
100
AcDbEntity
  8
0
  6
ByBlock
 62
0
370
-2
100
AcDbLine
 10
489.7480937210494
 20
985.2018111085927
 30
0.0
 11
497.7480937210494
 21
993.2018111085927
 31
0.0
  0
MTEXT
  5
22C
330
223
100
AcDbEntity
  8
DIM
 62
3
440
16777216
100
AcDbMText
 10
529.6113270089118
 20
1011.966135801631
 30
0.0
 40
25.0
 41
0.0
 46
0.0
 71
5
  1
50
  0
POINT
  5
22D
330
223
100
AcDbEntity
  8
Defpoints
 62
0
440
16777216
100
AcDbPoint
 10
443.7480937210494
 20
906.4878815354314
 30
0.0
  0
POINT
  5
22E
330
223
100
AcDbEntity
  8
Defpoints
 62
0
440
16777216
100
AcDbPoint
 10
493.7480937210494
 20
956.4878815354314
 30
0.0
  0
POINT
  5
22F
330
223
100
AcDbEntity
  8
Defpoints
 62
0
440
16777216
100
AcDbPoint
 10
493.7480937210494
 20
989.2018111085927
 30
0.0
  0
ENDBLK
  5
225
330
223
100
AcDbEntity
  8
0
100
AcDbBlockEnd
  0
BLOCK
  5
231
330
230
100
AcDbEntity
  8
0
100
AcDbBlockBegin
  2
*D14
 70
1
 10
0.0
 20
0.0
 30
0.0
  3
*D14
  1

  0
LINE
  5
233
330
230
100
AcDbEntity
  8
DIM
 62
5
370
9
440
16777216
100
AcDbLine
 10
493.7480937210494
 20
971.4878815354314
 30
0.0
 11
493.7480937210494
 21
999.2018111085927
 31
0.0
  0
LINE
  5
234
330
230
100
AcDbEntity
  8
DIM
 62
5
370
9
440
16777216
100
AcDbLine
 10
1096.7480937210494
 20
971.4878815354314
 30
0.0
 11
1096.7480937210494
 21
999.2018111085927
 31
0.0
  0
LINE
  5
235
330
230
100
AcDbEntity
  8
DIM
 62
5
370
9
440
16777216
100
AcDbLine
 10
493.7480937210494
 20
989.2018111085927
 30
0.0
 11
1096.7480937210494
 21
989.2018111085927
 31
0.0
  0
LINE
  5
236
330
230
100
AcDbEntity
  8
0
  6
ByBlock
 62
0
370
-2
100
AcDbLine
 10
497.7480937210494
 20
993.2018111085927
 30
0.0
 11
489.7480937210494
 21
985.2018111085927
 31
0.0
  0
LINE
  5
237
330
230
100
AcDbEntity
  8
0
  6
ByBlock
 62
0
370
-2
100
AcDbLine
 10
1092.7480937210494
 20
985.2018111085927
 30
0.0
 11
1100.7480937210494
 21
993.2018111085927
 31
0.0
  0
MTEXT
  5
238
330
230
100
AcDbEntity
  8
DIM
 62
3
440
16777216
100
AcDbMText
 10
795.2480937210494
 20
1011.9746624046311
 30
0.0
 40
25.0
 41
0.0
 46
0.0
 71
5
  1
603
  0
POINT
  5
239
330
230
100
AcDbEntity
  8
Defpoints
 62
0
440
16777216
100
AcDbPoint
 10
493.7480937210494
 20
956.4878815354314
 30
0.0
  0
POINT
  5
23A
330
230
100
AcDbEntity
  8
Defpoints
 62
0
440
16777216
100
AcDbPoint
 10
1096.7480937210494
 20
956.4878815354314
 30
0.0
  0
POINT
  5
23B
330
230
100
AcDbEntity
  8
Defpoints
 62
0
440
16777216
100
AcDbPoint
 10
1096.7480937210494
 20
989.2018111085927
 30
0.0
  0
ENDBLK
  5
232
330
230
100
AcDbEntity
  8
0
100
AcDbBlockEnd
  0
BLOCK
  5
23D
330
23C
100
AcDbEntity
  8
0
100
AcDbBlockBegin
  2
*D15
 70
1
 10
0.0
 20
0.0
 30
0.0
  3
*D15
  1

  0
LINE
  5
23F
330
23C
100
AcDbEntity
  8
DIM
 62
5
370
9
440
16777216
100
AcDbLine
 10
1146.7480937210494
 20
921.4878815354314
 30
0.0
 11
1146.7480937210494
 21
1039.6145576200834
 31
0.0
  0
LINE
  5
240
330
23C
100
AcDbEntity
  8
DIM
 62
5
370
9
440
16777216
100
AcDbLine
 10
443.7480937210494
 20
921.4878815354314
 30
0.0
 11
443.7480937210494
 21
1039.6145576200834
 31
0.0
  0
LINE
  5
241
330
23C
100
AcDbEntity
  8
DIM
 62
5
370
9
440
16777216
100
AcDbLine
 10
1146.7480937210494
 20
1029.6145576200834
 30
0.0
 11
443.7480937210494
 21
1029.6145576200834
 31
0.0
  0
LINE
  5
242
330
23C
100
AcDbEntity
  8
0
  6
ByBlock
 62
0
370
-2
100
AcDbLine
 10
1142.7480937210494
 20
1025.6145576200834
 30
0.0
 11
1150.7480937210494
 21
1033.6145576200834
 31
0.0
  0
LINE
  5
243
330
23C
100
AcDbEntity
  8
0
  6
ByBlock
 62
0
370
-2
100
AcDbLine
 10
447.7480937210494
 20
1033.6145576200834
 30
0.0
 11
439.7480937210494
 21
1025.6145576200834
 31
0.0
  0
MTEXT
  5
244
330
23C
100
AcDbEntity
  8
DIM
 62
3
440
16777216
100
AcDbMText
 10
795.2480937210494
 20
1052.3874089161327
 30
0.0
 40
25.0
 41
0.0
 46
0.0
 71
5
  1
703
  0
POINT
  5
245
330
23C
100
AcDbEntity
  8
Defpoints
 62
0
440
16777216
100
AcDbPoint
 10
1146.7480937210494
 20
906.4878815354314
 30
0.0
  0
POINT
  5
246
330
23C
100
AcDbEntity
  8
Defpoints
 62
0
440
16777216
100
AcDbPoint
 10
443.7480937210494
 20
906.4878815354314
 30
0.0
  0
POINT
  5
247
330
23C
100
AcDbEntity
  8
Defpoints
 62
0
440
16777216
100
AcDbPoint
 10
443.7480937210494
 20
1029.6145576200834
 30
0.0
  0
ENDBLK
  5
23E
330
23C
100
AcDbEntity
  8
0
100
AcDbBlockEnd
  0
BLOCK
  5
249
330
248
100
AcDbEntity
  8
0
100
AcDbBlockBegin
  2
*D16
 70
1
 10
0.0
 20
0.0
 30
0.0
  3
*D16
  1

  0
LINE
  5
24B
330
248
100
AcDbEntity
  8
DIM
 62
5
370
9
440
16777216
100
AcDbLine
 10
1561.8194073884079
 20
2089.9959623088216
 30
0.0
 11
1561.8194073884079
 21
2172.4469743621303
 31
0.0
  0
LINE
  5
24C
330
248
100
AcDbEntity
  8
DIM
 62
5
370
9
440
16777216
100
AcDbLine
 10
1581.8194073884006
 20
2069.9959623088216
 30
0.0
 11
1581.8194073884006
 21
2172.4469743621303
 31
0.0
  0
LINE
  5
24D
330
248
100
AcDbEntity
  8
DIM
 62
5
370
9
440
16777216
100
AcDbLine
 10
1556.8194073884079
 20
2167.446974362123
 30
0.0
 11
1551.8194073884006
 21
2167.446974362123
 31
0.0
  0
LINE
  5
24E
330
248
100
AcDbEntity
  8
DIM
 62
5
370
9
440
16777216
100
AcDbLine
 10
1586.8194073884079
 20
2167.446974362123
 30
0.0
 11
1684.1250008399802
 21
2167.446974362123
 31
0.0
  0
LINE
  5
24F
330
248
100
AcDbEntity
  8
DIM
 62
5
370
9
440
16777216
100
AcDbLine
 10
1561.8194073884079
 20
2167.446974362123
 30
0.0
 11
1581.8194073884006
 21
2167.446974362123
 31
0.0
  0
LINE
  5
250
330
248
100
AcDbEntity
  8
0
  6
ByBlock
 62
0
370
-2
100
AcDbLine
 10
1556.8194073884079
 20
2168.786720312124
 30
0.0
 11
1561.8194073884079
 21
2167.446974362123
 31
0.0
  0
LINE
  5
251
330
248
100
AcDbEntity
  8
0
  6
ByBlock
 62
0
370
-2
100
AcDbLine
 10
1561.8194073884079
 20
2167.446974362123
 30
0.0
 11
1556.8194073884079
 21
2166.107228412122
 31
0.0
  0
LINE
  5
252
330
248
100
AcDbEntity
  8
0
  6
ByBlock
 62
0
370
-2
100
AcDbLine
 10
1561.8194073884079
 20
2167.446974362123
 30
0.0
 11
1556.8194073884079
 21
2167.446974362123
 31
0.0
  0
LINE
  5
253
330
248
100
AcDbEntity
  8
0
  6
ByBlock
 62
0
370
-2
100
AcDbLine
 10
1586.8194073884006
 20
2166.107228412122
 30
0.0
 11
1581.8194073884006
 21
2167.446974362123
 31
0.0
  0
LINE
  5
254
330
248
100
AcDbEntity
  8
0
  6
ByBlock
 62
0
370
-2
100
AcDbLine
 10
1581.8194073884006
 20
2167.446974362123
 30
0.0
 11
1586.8194073884006
 21
2168.786720312124
 31
0.0
  0
LINE
  5
255
330
248
100
AcDbEntity
  8
0
  6
ByBlock
 62
0
370
-2
100
AcDbLine
 10
1581.8194073884006
 20
2167.446974362123
 30
0.0
 11
1586.8194073884006
 21
2167.446974362123
 31
0.0
  0
MTEXT
  5
256
330
248
100
AcDbEntity
  8
DIM
 62
3
440
16777216
100
AcDbMText
 10
1637.9722041141868
 20
2202.9756237482106
 30
0.0
 40
50.0
 41
0.0
 46
0.0
 71
5
  1
20
  0
POINT
  5
257
330
248
100
AcDbEntity
  8
Defpoints
 62
0
440
16777216
100
AcDbPoint
 10
1561.8194073884079
 20
2074.9959623088216
 30
0.0
  0
POINT
  5
258
330
248
100
AcDbEntity
  8
Defpoints
 62
0
440
16777216
100
AcDbPoint
 10
1581.8194073884006
 20
2054.9959623088216
 30
0.0
  0
POINT
  5
259
330
248
100
AcDbEntity
  8
Defpoints
 62
0
440
16777216
100
AcDbPoint
 10
1581.8194073884006
 20
2167.446974362123
 30
0.0
  0
ENDBLK
  5
24A
330
248
100
AcDbEntity
  8
0
100
AcDbBlockEnd
  0
BLOCK
  5
25B
330
25A
100
AcDbEntity
  8
0
100
AcDbBlockBegin
  2
*D17
 70
1
 10
0.0
 20
0.0
 30
0.0
  3
*D17
  1

  0
LINE
  5
25D
330
25A
100
AcDbEntity
  8
DIM
 62
5
370
9
440
16777216
100
AcDbLine
 10
1110.8194073884079
 20
2089.9959623088216
 30
0.0
 11
1110.8194073884079
 21
2172.4469743621303
 31
0.0
  0
LINE
  5
25E
330
25A
100
AcDbEntity
  8
DIM
 62
5
370
9
440
16777216
100
AcDbLine
 10
1561.8194073884079
 20
2089.9959623088216
 30
0.0
 11
1561.8194073884079
 21
2172.4469743621303
 31
0.0
  0
LINE
  5
25F
330
25A
100
AcDbEntity
  8
DIM
 62
5
370
9
440
16777216
100
AcDbLine
 10
1115.8194073884079
 20
2167.446974362123
 30
0.0
 11
1556.8194073884079
 21
2167.446974362123
 31
0.0
  0
LINE
  5
260
330
25A
100
AcDbEntity
  8
0
  6
ByBlock
 62
0
370
-2
100
AcDbLine
 10
1115.8194073884079
 20
2166.107228412122
 30
0.0
 11
1110.8194073884079
 21
2167.446974362123
 31
0.0
  0
LINE
  5
261
330
25A
100
AcDbEntity
  8
0
  6
ByBlock
 62
0
370
-2
100
AcDbLine
 10
1110.8194073884079
 20
2167.446974362123
 30
0.0
 11
1115.8194073884079
 21
2168.786720312124
 31
0.0
  0
LINE
  5
262
330
25A
100
AcDbEntity
  8
0
  6
ByBlock
 62
0
370
-2
100
AcDbLine
 10
1110.8194073884079
 20
2167.446974362123
 30
0.0
 11
1115.8194073884079
 21
2167.446974362123
 31
0.0
  0
LINE
  5
263
330
25A
100
AcDbEntity
  8
0
  6
ByBlock
 62
0
370
-2
100
AcDbLine
 10
1556.8194073884079
 20
2168.786720312124
 30
0.0
 11
1561.8194073884079
 21
2167.446974362123
 31
0.0
  0
LINE
  5
264
330
25A
100
AcDbEntity
  8
0
  6
ByBlock
 62
0
370
-2
100
AcDbLine
 10
1561.8194073884079
 20
2167.446974362123
 30
0.0
 11
1556.8194073884079
 21
2166.107228412122
 31
0.0
  0
LINE
  5
265
330
25A
100
AcDbEntity
  8
0
  6
ByBlock
 62
0
370
-2
100
AcDbLine
 10
1561.8194073884079
 20
2167.446974362123
 30
0.0
 11
1556.8194073884079
 21
2167.446974362123
 31
0.0
  0
MTEXT
  5
266
330
25A
100
AcDbEntity
  8
DIM
 62
3
440
16777216
100
AcDbMText
 10
1336.3194073884079
 20
2202.9756237482106
 30
0.0
 40
50.0
 41
0.0
 46
0.0
 71
5
  1
451
  0
POINT
  5
267
330
25A
100
AcDbEntity
  8
Defpoints
 62
0
440
16777216
100
AcDbPoint
 10
1110.8194073884079
 20
2074.9959623088216
 30
0.0
  0
POINT
  5
268
330
25A
100
AcDbEntity
  8
Defpoints
 62
0
440
16777216
100
AcDbPoint
 10
1561.8194073884079
 20
2074.9959623088216
 30
0.0
  0
POINT
  5
269
330
25A
100
AcDbEntity
  8
Defpoints
 62
0
440
16777216
100
AcDbPoint
 10
1561.8194073884079
 20
2167.446974362123
 30
0.0
  0
ENDBLK
  5
25C
330
25A
100
AcDbEntity
  8
0
100
AcDbBlockEnd
  0
BLOCK
  5
26B
330
26A
100
AcDbEntity
  8
0
100
AcDbBlockBegin
  2
*D18
 70
1
 10
0.0
 20
0.0
 30
0.0
  3
*D18
  1

  0
LINE
  5
26D
330
26A
100
AcDbEntity
  8
DIM
 62
5
370
9
440
16777216
100
AcDbLine
 10
1095.8194073884297
 20
2074.9959623088325
 30
0.0
 11
948.8626908860315
 21
2074.9959623088325
 31
0.0
  0
LINE
  5
26E
330
26A
100
AcDbEntity
  8
DIM
 62
5
370
9
440
16777216
100
AcDbLine
 10
1095.8194073884297
 20
1413.9959623088216
 30
0.0
 11
948.8626908860315
 21
1413.9959623088216
 31
0.0
  0
LINE
  5
26F
330
26A
100
AcDbEntity
  8
DIM
 62
5
370
9
440
16777216
100
AcDbLine
 10
953.8626908860315
 20
2069.9959623088216
 30
0.0
 11
953.8626908860315
 21
1418.9959623088325
 31
0.0
  0
LINE
  5
270
330
26A
100
AcDbEntity
  8
0
  6
ByBlock
 62
0
370
-2
100
AcDbLine
 10
952.522944936034
 20
2069.9959623088325
 30
0.0
 11
953.8626908860315
 21
2074.9959623088325
 31
0.0
  0
LINE
  5
271
330
26A
100
AcDbEntity
  8
0
  6
ByBlock
 62
0
370
-2
100
AcDbLine
 10
953.8626908860315
 20
2074.9959623088325
 30
0.0
 11
955.2024368360289
 21
2069.9959623088325
 31
0.0
  0
LINE
  5
272
330
26A
100
AcDbEntity
  8
0
  6
ByBlock
 62
0
370
-2
100
AcDbLine
 10
953.8626908860315
 20
2074.9959623088325
 30
0.0
 11
953.8626908860315
 21
2069.9959623088325
 31
0.0
  0
LINE
  5
273
330
26A
100
AcDbEntity
  8
0
  6
ByBlock
 62
0
370
-2
100
AcDbLine
 10
955.2024368360289
 20
1418.9959623088216
 30
0.0
 11
953.8626908860315
 21
1413.9959623088216
 31
0.0
  0
LINE
  5
274
330
26A
100
AcDbEntity
  8
0
  6
ByBlock
 62
0
370
-2
100
AcDbLine
 10
953.8626908860315
 20
1413.9959623088216
 30
0.0
 11
952.522944936034
 21
1418.9959623088216
 31
0.0
  0
LINE
  5
275
330
26A
100
AcDbEntity
  8
0
  6
ByBlock
 62
0
370
-2
100
AcDbLine
 10
953.8626908860315
 20
1413.9959623088216
 30
0.0
 11
953.8626908860315
 21
1418.9959623088216
 31
0.0
  0
MTEXT
  5
276
330
26A
100
AcDbEntity
  8
DIM
 62
3
440
16777216
100
AcDbMText
 10
918.3340414999475
 20
1744.4959623088325
 30
0.0
 40
50.0
 41
0.0
 46
0.0
 71
5
  1
661
 11
1e-16
 21
1.0
 31
0.0
  0
POINT
  5
277
330
26A
100
AcDbEntity
  8
Defpoints
 62
0
440
16777216
100
AcDbPoint
 10
1110.8194073884224
 20
2074.9959623088325
 30
0.0
  0
POINT
  5
278
330
26A
100
AcDbEntity
  8
Defpoints
 62
0
440
16777216
100
AcDbPoint
 10
1110.8194073884224
 20
1413.9959623088216
 30
0.0
  0
POINT
  5
279
330
26A
100
AcDbEntity
  8
Defpoints
 62
0
440
16777216
100
AcDbPoint
 10
953.8626908860315
 20
1413.9959623088216
 30
0.0
  0
ENDBLK
  5
26C
330
26A
100
AcDbEntity
  8
0
100
AcDbBlockEnd
  0
BLOCK
  5
27B
330
27A
100
AcDbEntity
  8
0
100
AcDbBlockBegin
  2
*D19
 70
1
 10
0.0
 20
0.0
 30
0.0
  3
*D19
  1

  0
LINE
  5
27D
330
27A
100
AcDbEntity
  8
DIM
 62
5
370
9
440
16777216
100
AcDbLine
 10
1075.8194073884224
 20
2054.9959623088216
 30
0.0
 11
1044.9364153635906
 21
2054.9959623088216
 31
0.0
  0
LINE
  5
27E
330
27A
100
AcDbEntity
  8
DIM
 62
5
370
9
440
16777216
100
AcDbLine
 10
1075.8194073884224
 20
1433.9959623088216
 30
0.0
 11
1044.9364153635906
 21
1433.9959623088216
 31
0.0
  0
LINE
  5
27F
330
27A
100
AcDbEntity
  8
DIM
 62
5
370
9
440
16777216
100
AcDbLine
 10
1049.936415363576
 20
2049.9959623088325
 30
0.0
 11
1049.936415363576
 21
1438.9959623088216
 31
0.0
  0
LINE
  5
280
330
27A
100
AcDbEntity
  8
0
  6
ByBlock
 62
0
370
-2
100
AcDbLine
 10
1048.5966694135786
 20
2049.9959623088216
 30
0.0
 11
1049.936415363576
 21
2054.9959623088216
 31
0.0
  0
LINE
  5
281
330
27A
100
AcDbEntity
  8
0
  6
ByBlock
 62
0
370
-2
100
AcDbLine
 10
1049.936415363576
 20
2054.9959623088216
 30
0.0
 11
1051.2761613135735
 21
2049.9959623088216
 31
0.0
  0
LINE
  5
282
330
27A
100
AcDbEntity
  8
0
  6
ByBlock
 62
0
370
-2
100
AcDbLine
 10
1049.936415363576
 20
2054.9959623088216
 30
0.0
 11
1049.936415363576
 21
2049.9959623088216
 31
0.0
  0
LINE
  5
283
330
27A
100
AcDbEntity
  8
0
  6
ByBlock
 62
0
370
-2
100
AcDbLine
 10
1051.2761613135735
 20
1438.9959623088216
 30
0.0
 11
1049.936415363576
 21
1433.9959623088216
 31
0.0
  0
LINE
  5
284
330
27A
100
AcDbEntity
  8
0
  6
ByBlock
 62
0
370
-2
100
AcDbLine
 10
1049.936415363576
 20
1433.9959623088216
 30
0.0
 11
1048.5966694135786
 21
1438.9959623088216
 31
0.0
  0
LINE
  5
285
330
27A
100
AcDbEntity
  8
0
  6
ByBlock
 62
0
370
-2
100
AcDbLine
 10
1049.936415363576
 20
1433.9959623088216
 30
0.0
 11
1049.936415363576
 21
1438.9959623088216
 31
0.0
  0
MTEXT
  5
286
330
27A
100
AcDbEntity
  8
DIM
 62
3
440
16777216
100
AcDbMText
 10
1014.4077659774994
 20
1744.4959623088107
 30
0.0
 40
50.0
 41
0.0
 46
0.0
 71
5
  1
621
 11
1e-16
 21
1.0
 31
0.0
  0
POINT
  5
287
330
27A
100
AcDbEntity
  8
Defpoints
 62
0
440
16777216
100
AcDbPoint
 10
1090.8194073884224
 20
2054.9959623088216
 30
0.0
  0
POINT
  5
288
330
27A
100
AcDbEntity
  8
Defpoints
 62
0
440
16777216
100
AcDbPoint
 10
1090.8194073884224
 20
1433.9959623088216
 30
0.0
  0
POINT
  5
289
330
27A
100
AcDbEntity
  8
Defpoints
 62
0
440
16777216
100
AcDbPoint
 10
1049.936415363576
 20
1433.9959623088216
 30
0.0
  0
ENDBLK
  5
27C
330
27A
100
AcDbEntity
  8
0
100
AcDbBlockEnd
  0
ENDSEC
  0
SECTION
  2
ENTITIES
  0
MTEXT
  5
2F
330
17
100
AcDbEntity
  8
0
 62
2
100
AcDbMText
 10
559.2207874034502
 20
1277.5721822582418
 30
0.0
 40
25.0
 41
975.0000000000146
 46
100.0000000000031
 71
5
 72
5
  1
Cánh trong : 3 tấm
  0
LWPOLYLINE
  5
30
330
17
100
AcDbEntity
  8
0
 62
7
100
AcDbPolyline
 90
4
 70
1
 10
317.705605865267
 20
2078.9959623088216
 10
816.705605865267
 20
2078.9959623088216
 10
816.705605865267
 20
1409.9959623088216
 10
317.705605865267
 20
1409.9959623088216
  0
LWPOLYLINE
  5
31
330
17
100
AcDbEntity
  8
0
 62
7
100
AcDbPolyline
 90
22
 70
0
 10
842.7056058652379
 20
1475.7459623088216
 10
842.7056058652379
 20
1419.9959623087925
 10
832.705605865267
 20
1409.9959623088216
 10
816.705605865267
 20
1409.9959623088216
 10
816.705605865267
 20
1393.9959623088216
 10
806.705605865267
 20
1383.9959623088216
 10
327.705605865267
 20
1383.9959623088216
 10
317.705605865267
 20
1393.9959623088216
 10
317.705605865267
 20
1409.9959623088216
 10
301.705605865267
 20
1409.9959623088216
 10
291.7056058652379
 20
1419.9959623088216
 10
291.705605865267
 20
2068.9959623088216
 10
301.705605865267
 20
2078.9959623088216
 10
317.705605865267
 20
2078.9959623088216
 10
317.705605865267
 20
2094.9959623088216
 10
327.705605865267
 20
2104.9959623088107
 10
806.705605865267
 20
2104.9959623088107
 10
816.705605865267
 20
2094.9959623088216
 10
816.705605865267
 20
2078.9959623088216
 10
832.705605865267
 20
2078.9959623088216
 10
842.7056058652379
 20
2068.9959623088216
 10
842.7056058652379
 20
2013.2459623088216
  0
LWPOLYLINE
  5
32
330
17
100
AcDbEntity
  8
0
 62
7
100
AcDbPolyline
 90
2
 70
0
 10
842.7056058652379
 20
1959.2459623088216
 10
842.7056058652379
 20
1529.7459623088216
  0
LWPOLYLINE
  5
33
330
17
100
AcDbEntity
  8
0
 62
7
100
AcDbPolyline
 90
2
 70
0
 10
832.705605865267
 20
2078.9959623088216
 10
832.705605865267
 20
2013.2459623088216
  0
LWPOLYLINE
  5
34
330
17
100
AcDbEntity
  8
0
 62
7
100
AcDbPolyline
 90
2
 70
0
 10
832.705605865267
 20
1959.2459623088216
 10
832.705605865267
 20
1529.7459623088216
  0
LWPOLYLINE
  5
35
330
17
100
AcDbEntity
  8
0
 62
7
100
AcDbPolyline
 90
2
 70
0
 10
832.705605865267
 20
1475.7459623088216
 10
832.705605865267
 20
1409.9959623088216
  0
LWPOLYLINE
  5
36
330
17
100
AcDbEntity
  8
0
 62
7
100
AcDbPolyline
 90
2
 70
0
 10
816.705605865267
 20
1393.9959623088216
 10
317.705605865267
 20
1393.9959623088216
  0
LWPOLYLINE
  5
37
330
17
100
AcDbEntity
  8
0
 62
7
100
AcDbPolyline
 90
2
 70
0
 10
301.705605865267
 20
1409.9959623088216
 10
301.705605865267
 20
2078.9959623088216
  0
LWPOLYLINE
  5
38
330
17
100
AcDbEntity
  8
0
 62
7
100
AcDbPolyline
 90
2
 70
0
 10
317.705605865267
 20
2094.9959623088216
 10
816.705605865267
 20
2094.9959623088216
  0
LWPOLYLINE
  5
39
330
17
100
AcDbEntity
  8
0
 62
2
100
AcDbPolyline
 90
4
 70
0
 10
842.7056058652379
 20
1959.2459623088216
 10
829.7056058652379
 20
1959.2459623088216
 10
829.7056058652379
 20
2013.2459623088216
 10
842.7056058652379
 20
2013.2459623088216
  0
LWPOLYLINE
  5
3A
330
17
100
AcDbEntity
  8
0
 62
2
100
AcDbPolyline
 90
4
 70
0
 10
842.7056058652379
 20
1529.7459623088216
 10
829.7056058652379
 20
1529.7459623088216
 10
829.7056058652379
 20
1475.7459623088216
 10
842.7056058652379
 20
1475.7459623088216
  0
INSERT
  5
3B
330
17
100
AcDbEntity
  8
0
370
-3
100
AcDbBlockReference
  2
f3daunguoc
 10
332.705605865267
 20
2078.9959623088216
 30
0.0
 41
-1.0
 50
180.0
  0
INSERT
  5
3D
330
17
100
AcDbEntity
  8
0
370
-3
100
AcDbBlockReference
  2
f3daunguoc
 10
317.705605865267
 20
2063.9959623088216
 30
0.0
 41
-1.0
 50
180.0
  0
INSERT
  5
3F
330
17
100
AcDbEntity
  8
0
370
-3
100
AcDbBlockReference
  2
f3daunguoc
 10
332.705605865267
 20
2094.9959623088216
 30
0.0
 41
-1.0
 50
180.0
  0
INSERT
  5
41
330
17
100
AcDbEntity
  8
0
370
-3
100
AcDbBlockReference
  2
f3daunguoc
 10
301.705605865267
 20
2063.9959623088216
 30
0.0
 41
-1.0
 50
180.0
  0
INSERT
  5
43
330
17
100
AcDbEntity
  8
0
370
-3
100
AcDbBlockReference
  2
f3daunguoc
 10
382.705605865267
 20
2078.9959623088216
 30
0.0
 41
-1.0
 50
180.0
  0
INSERT
  5
45
330
17
100
AcDbEntity
  8
0
370
-3
100
AcDbBlockReference
  2
f3daunguoc
 10
382.705605865267
 20
2094.9959623088216
 30
0.0
 41
-1.0
 50
180.0
  0
INSERT
  5
47
330
17
100
AcDbEntity
  8
0
370
-3
100
AcDbBlockReference
  2
f3daunguoc
 10
801.705605865267
 20
2078.9959623088216
 30
0.0
 50
180.0
  0
INSERT
  5
49
330
17
100
AcDbEntity
  8
0
370
-3
100
AcDbBlockReference
  2
f3daunguoc
 10
816.705605865267
 20
2063.9959623088216
 30
0.0
 50
180.0
  0
INSERT
  5
4B
330
17
100
AcDbEntity
  8
0
370
-3
100
AcDbBlockReference
  2
f3daunguoc
 10
801.705605865267
 20
2094.9959623088216
 30
0.0
 50
180.0
  0
INSERT
  5
4D
330
17
100
AcDbEntity
  8
0
370
-3
100
AcDbBlockReference
  2
f3daunguoc
 10
832.705605865267
 20
2063.9959623088216
 30
0.0
 50
180.0
  0
INSERT
  5
4F
330
17
100
AcDbEntity
  8
0
370
-3
100
AcDbBlockReference
  2
f3daunguoc
 10
751.705605865267
 20
2078.9959623088216
 30
0.0
 50
180.0
  0
INSERT
  5
51
330
17
100
AcDbEntity
  8
0
370
-3
100
AcDbBlockReference
  2
f3daunguoc
 10
751.705605865267
 20
2094.9959623088216
 30
0.0
 50
180.0
  0
INSERT
  5
53
330
17
100
AcDbEntity
  8
0
370
-3
100
AcDbBlockReference
  2
f3daunguoc
 10
332.705605865267
 20
1409.9959623088216
 30
0.0
  0
INSERT
  5
55
330
17
100
AcDbEntity
  8
0
370
-3
100
AcDbBlockReference
  2
f3daunguoc
 10
317.705605865267
 20
1424.9959623088216
 30
0.0
  0
INSERT
  5
57
330
17
100
AcDbEntity
  8
0
370
-3
100
AcDbBlockReference
  2
f3daunguoc
 10
332.705605865267
 20
1393.9959623088216
 30
0.0
  0
INSERT
  5
59
330
17
100
AcDbEntity
  8
0
370
-3
100
AcDbBlockReference
  2
f3daunguoc
 10
301.705605865267
 20
1424.9959623088216
 30
0.0
  0
INSERT
  5
5B
330
17
100
AcDbEntity
  8
0
370
-3
100
AcDbBlockReference
  2
f3daunguoc
 10
382.705605865267
 20
1409.9959623088216
 30
0.0
  0
INSERT
  5
5D
330
17
100
AcDbEntity
  8
0
370
-3
100
AcDbBlockReference
  2
f3daunguoc
 10
382.705605865267
 20
1393.9959623088216
 30
0.0
  0
INSERT
  5
5F
330
17
100
AcDbEntity
  8
0
370
-3
100
AcDbBlockReference
  2
f3daunguoc
 10
801.705605865267
 20
1409.9959623088216
 30
0.0
 41
-1.0
  0
INSERT
  5
61
330
17
100
AcDbEntity
  8
0
370
-3
100
AcDbBlockReference
  2
f3daunguoc
 10
816.705605865267
 20
1424.9959623088216
 30
0.0
 41
-1.0
  0
INSERT
  5
63
330
17
100
AcDbEntity
  8
0
370
-3
100
AcDbBlockReference
  2
f3daunguoc
 10
801.705605865267
 20
1393.9959623088216
 30
0.0
 41
-1.0
  0
INSERT
  5
65
330
17
100
AcDbEntity
  8
0
370
-3
100
AcDbBlockReference
  2
f3daunguoc
 10
832.705605865267
 20
1424.9959623088216
 30
0.0
 41
-1.0
  0
INSERT
  5
67
330
17
100
AcDbEntity
  8
0
370
-3
100
AcDbBlockReference
  2
f3daunguoc
 10
751.705605865267
 20
1409.9959623088216
 30
0.0
 41
-1.0
  0
INSERT
  5
69
330
17
100
AcDbEntity
  8
0
370
-3
100
AcDbBlockReference
  2
f3daunguoc
 10
751.705605865267
 20
1393.9959623088216
 30
0.0
 41
-1.0
  0
DIMENSION
  5
6B
330
17
100
AcDbEntity
  8
DIM
 62
2
100
AcDbDimension
280
0
  2
*D1
  3
Dim-25
 10
842.7056058652379
 20
2138.0970450224922
 30
0.0
 11
885.3921679389096
 21
2160.8613697155306
 31
0.0
 70
32
 71
5
 42
9.999999999970896
 73
0
 74
0
 75
0
100
AcDbAlignedDimension
 13
832.705605865267
 23
2078.9959623088216
 33
0.0
 14
842.7056058652379
 24
2068.9959623088216
 34
0.0
 50
0.0
100
AcDbRotatedDimension
  0
DIMENSION
  5
70
330
17
100
AcDbEntity
  8
DIM
 62
2
100
AcDbDimension
280
0
  2
*D2
  3
Dim-25
 10
832.705605865267
 20
2174.1599898233326
 30
0.0
 11
875.4262743509389
 21
2196.924314516371
 31
0.0
 70
32
 71
5
 42
16.0
 73
0
 74
0
 75
0
100
AcDbAlignedDimension
 13
816.705605865267
 23
2094.9959623088216
 33
0.0
 14
832.705605865267
 24
2078.9959623088216
 34
0.0
 50
0.0
100
AcDbRotatedDimension
  0
DIMENSION
  5
71
330
17
100
AcDbEntity
  8
DIM
 62
2
100
AcDbDimension
280
0
  2
*D3
  3
Dim-25
 10
317.705605865267
 20
2174.1599898233326
 30
0.0
 11
567.205605865267
 21
2196.924314516371
 31
0.0
 70
32
 71
5
 42
499.0
 73
0
 74
0
 75
0
100
AcDbAlignedDimension
 13
816.705605865267
 23
2094.9959623088216
 33
0.0
 14
317.705605865267
 24
2094.9959623088216
 34
0.0
 50
0.0
100
AcDbRotatedDimension
  0
DIMENSION
  5
72
330
17
100
AcDbEntity
  8
DIM
 62
2
100
AcDbDimension
280
0
  2
*D4
  3
Dim-25
 10
241.41347433163173
 20
1409.9959623088216
 30
0.0
 11
218.64914963857154
 21
1744.4959623088216
 31
0.0
 70
32
 71
5
 42
669.0
 73
0
 74
0
 75
0
100
AcDbAlignedDimension
 13
301.705605865267
 23
2078.9959623088216
 33
0.0
 14
301.705605865267
 24
1409.9959623088216
 34
0.0
 50
90.0
100
AcDbRotatedDimension
  0
DIMENSION
  5
73
330
17
100
AcDbEntity
  8
DIM
 62
2
100
AcDbDimension
280
0
  2
*D5
  3
Dim-25
 10
165.78410105638613
 20
1383.9959623088216
 30
0.0
 11
143.2329414383712
 21
1744.4959623088216
 31
0.0
 70
32
 71
5
 42
720.9999999999927
 73
0
 74
0
 75
0
100
AcDbAlignedDimension
 13
327.705605865267
 23
2104.9959623088107
 33
0.0
 14
327.7056058652961
 24
1383.9959623088216
 34
0.0
 50
90.0
100
AcDbRotatedDimension
  0
DIMENSION
  5
74
330
17
100
AcDbEntity
  8
DIM
 62
2
100
AcDbDimension
280
0
  2
*D6
  3
Dim-25
 10
842.7056058652379
 20
1320.7174092374698
 30
0.0
 11
567.2056058652379
 21
1343.4817339305118
 31
0.0
 70
32
 71
5
 42
551.0
 73
0
 74
0
 75
0
100
AcDbAlignedDimension
 13
291.7056058652379
 23
1419.9959623088216
 33
0.0
 14
842.7056058652379
 24
1419.9959623088216
 34
0.0
 50
0.0
100
AcDbRotatedDimension
  0
CIRCLE
  5
75
330
17
100
AcDbEntity
  8
0
 62
2
100
AcDbCircle
 10
370.7056058651506
 20
1511.4959623087925
 30
0.0
 40
11.0
  0
CIRCLE
  5
76
330
17
100
AcDbEntity
  8
0
 62
2
100
AcDbCircle
 10
370.7056058651506
 20
1977.4959623088507
 30
0.0
 40
11.0
  0
LINE
  5
77
330
17
100
AcDbEntity
  8
0
 62
7
100
AcDbLine
 10
493.7480937210494
 20
906.4878815354314
 30
0.0
 11
1096.7480937210494
 21
906.4878815354314
 31
0.0
  0
LINE
  5
78
330
17
100
AcDbEntity
  8
0
 62
7
100
AcDbLine
 10
493.7480937210494
 20
956.4878815354314
 30
0.0
 11
1096.7480937210494
 21
956.4878815354314
 31
0.0
  0
LINE
  5
79
330
17
100
AcDbEntity
  8
0
 62
7
100
AcDbLine
 10
1096.7480937210494
 20
906.4878815354314
 30
0.0
 11
1096.7480937210494
 21
571.4878815354314
 31
0.0
  0
LINE
  5
7A
330
17
100
AcDbEntity
  8
0
 62
7
100
AcDbLine
 10
1146.7480937210494
 20
906.4878815354314
 30
0.0
 11
1118.7480937210494
 21
571.4878815354314
 31
0.0
  0
LINE
  5
7B
330
17
100
AcDbEntity
  8
0
 62
7
100
AcDbLine
 10
1096.7480937210494
 20
571.4878815354314
 30
0.0
 11
493.7480937210494
 21
571.4878815354314
 31
0.0
  0
LINE
  5
7C
330
17
100
AcDbEntity
  8
0
 62
7
100
AcDbLine
 10
1096.7480937210494
 20
551.4878815354314
 30
0.0
 11
493.7480937210494
 21
551.4878815354314
 31
0.0
  0
LINE
  5
7D
330
17
100
AcDbEntity
  8
0
 62
7
100
AcDbLine
 10
1096.7480937210494
 20
541.4878815354423
 30
0.0
 11
493.7480937210494
 21
541.4878815354423
 31
0.0
  0
LINE
  5
7E
330
17
100
AcDbEntity
  8
0
 62
7
100
AcDbLine
 10
493.7480937210494
 20
571.4878815354314
 30
0.0
 11
493.7480937210494
 21
906.4878815354314
 31
0.0
  0
LINE
  5
7F
330
17
100
AcDbEntity
  8
0
 62
7
100
AcDbLine
 10
443.7480937210494
 20
906.4878815354314
 30
0.0
 11
471.7480937210494
 21
571.4878815354314
 31
0.0
  0
LINE
  5
80
330
17
100
AcDbEntity
  8
0
 62
7
100
AcDbLine
 10
1096.7480937210494
 20
956.4878815354314
 30
0.0
 11
1096.7480937210494
 21
906.4878815354314
 31
0.0
  0
LINE
  5
81
330
17
100
AcDbEntity
  8
0
 62
7
100
AcDbLine
 10
1096.7480937210494
 20
906.4878815354314
 30
0.0
 11
1146.7480937210494
 21
906.4878815354314
 31
0.0
  0
LINE
  5
82
330
17
100
AcDbEntity
  8
0
 62
7
100
AcDbLine
 10
493.7480937210494
 20
956.4878815354314
 30
0.0
 11
493.7480937210494
 21
906.4878815354314
 31
0.0
  0
LINE
  5
83
330
17
100
AcDbEntity
  8
0
 62
7
100
AcDbLine
 10
493.7480937210494
 20
906.4878815354314
 30
0.0
 11
443.7480937210494
 21
906.4878815354314
 31
0.0
  0
LINE
  5
84
330
17
100
AcDbEntity
  8
0
 62
7
100
AcDbLine
 10
471.7480937210494
 20
571.4878815354314
 30
0.0
 11
493.7480937210494
 21
571.4878815354314
 31
0.0
  0
LINE
  5
85
330
17
100
AcDbEntity
  8
0
 62
7
100
AcDbLine
 10
493.7480937210494
 20
571.4878815354314
 30
0.0
 11
493.7480937210494
 21
541.4878815354423
 31
0.0
  0
LINE
  5
86
330
17
100
AcDbEntity
  8
0
 62
7
100
AcDbLine
 10
1096.7480937210494
 20
541.4878815354423
 30
0.0
 11
1096.7480937210494
 21
571.4878815354314
 31
0.0
  0
LINE
  5
87
330
17
100
AcDbEntity
  8
0
 62
7
100
AcDbLine
 10
1096.7480937210494
 20
571.4878815354314
 30
0.0
 11
1118.7480937210494
 21
571.4878815354314
 31
0.0
  0
DIMENSION
  5
88
330
17
100
AcDbEntity
  8
DIM
 62
7
100
AcDbDimension
280
0
  2
*D7
  3
Dim-25
 10
1096.7480937210494
 20
486.7870750199327
 30
0.0
 11
795.2480937210494
 21
509.5599263159711
 31
0.0
 70
32
 71
5
 42
603.0
 73
0
 74
0
 75
0
100
AcDbAlignedDimension
 13
493.7480937210494
 23
541.4878815354423
 33
0.0
 14
1096.7480937210494
 24
541.4878815354423
 34
0.0
 50
0.0
100
AcDbRotatedDimension
  0
DIMENSION
  5
89
330
17
100
AcDbEntity
  8
DIM
 62
7
100
AcDbDimension
280
0
  2
*D8
  3
Dim-25
 10
1194.3570827716394
 20
541.4878815354423
 30
0.0
 11
1194.3570827716321
 21
842.4878815354532
 31
0.0
 70
160
 71
5
 42
415.0
 73
0
 74
0
 75
0
100
AcDbAlignedDimension
 13
1096.7480937210494
 23
956.4878815354314
 33
0.0
 14
1096.7480937210494
 24
541.4878815354423
 34
0.0
 50
90.0
100
AcDbRotatedDimension
  0
DIMENSION
  5
8A
330
17
100
AcDbEntity
  8
DIM
 62
7
100
AcDbDimension
280
0
  2
*D9
  3
Dim-25
 10
403.3601926231131
 20
906.4878815354314
 30
0.0
 11
380.5958679300602
 21
870.6246482475799
 31
0.0
 70
32
 71
5
 42
50.0
 73
0
 74
0
 75
0
100
AcDbAlignedDimension
 13
493.7480937210494
 23
956.4878815354314
 33
0.0
 14
443.7480937210494
 24
906.4878815354314
 34
0.0
 50
90.0
100
AcDbRotatedDimension
  0
DIMENSION
  5
8B
330
17
100
AcDbEntity
  8
DIM
 62
7
100
AcDbDimension
280
0
  2
*D10
  3
Dim-25
 10
403.3601926230476
 20
571.4878815354314
 30
0.0
 11
380.5873413270019
 21
738.9878815354423
 31
0.0
 70
32
 71
5
 42
335.0
 73
0
 74
0
 75
0
100
AcDbAlignedDimension
 13
443.7480937210494
 23
906.4878815354314
 33
0.0
 14
471.7480937210494
 24
571.4878815354314
 34
0.0
 50
90.0
100
AcDbRotatedDimension
  0
DIMENSION
  5
8C
330
17
100
AcDbEntity
  8
DIM
 62
7
100
AcDbDimension
280
0
  2
*D11
  3
Dim-25
 10
403.3601926231713
 20
551.4878815354314
 30
0.0
 11
403.36019262315676
 21
561.4878815354423
 31
0.0
 70
160
 71
5
 42
20.0
 73
0
 74
0
 75
0
100
AcDbAlignedDimension
 13
471.7480937210494
 23
571.4878815354314
 33
0.0
 14
493.7480937210494
 24
551.4878815354314
 34
0.0
 50
90.0
100
AcDbRotatedDimension
  0
DIMENSION
  5
8D
330
17
100
AcDbEntity
  8
DIM
 62
7
100
AcDbDimension
280
0
  2
*D12
  3
Dim-25
 10
403.3601926230185
 20
541.4878815354423
 30
0.0
 11
380.5958679299729
 21
498.8013194617706
 31
0.0
 70
32
 71
5
 42
10.0
 73
0
 74
0
 75
0
100
AcDbAlignedDimension
 13
493.7480937210494
 23
551.4878815354314
 33
0.0
 14
493.7480937210494
 24
541.4878815354423
 34
0.0
 50
90.0
100
AcDbRotatedDimension
  0
DIMENSION
  5
8E
330
17
100
AcDbEntity
  8
DIM
 62
7
100
AcDbDimension
280
0
  2
*D13
  3
Dim-25
 10
493.7480937210494
 20
989.2018111085927
 30
0.0
 11
529.6113270089118
 21
1011.966135801631
 31
0.0
 70
32
 71
5
 42
50.0
 73
0
 74
0
 75
0
100
AcDbAlignedDimension
 13
443.7480937210494
 23
906.4878815354314
 33
0.0
 14
493.7480937210494
 24
956.4878815354314
 34
0.0
 50
0.0
100
AcDbRotatedDimension
  0
DIMENSION
  5
8F
330
17
100
AcDbEntity
  8
DIM
 62
7
100
AcDbDimension
280
0
  2
*D14
  3
Dim-25
 10
1096.7480937210494
 20
989.2018111085927
 30
0.0
 11
795.2480937210494
 21
1011.9746624046311
 31
0.0
 70
32
 71
5
 42
603.0
 73
0
 74
0
 75
0
100
AcDbAlignedDimension
 13
493.7480937210494
 23
956.4878815354314
 33
0.0
 14
1096.7480937210494
 24
956.4878815354314
 34
0.0
 50
0.0
100
AcDbRotatedDimension
  0
DIMENSION
  5
90
330
17
100
AcDbEntity
  8
DIM
 62
7
100
AcDbDimension
280
0
  2
*D15
  3
Dim-25
 10
443.7480937210494
 20
1029.6145576200834
 30
0.0
 11
795.2480937210494
 21
1052.3874089161327
 31
0.0
 70
32
 71
5
 42
703.0
 73
0
 74
0
 75
0
100
AcDbAlignedDimension
 13
1146.7480937210494
 23
906.4878815354314
 33
0.0
 14
443.7480937210494
 24
906.4878815354314
 34
0.0
 50
0.0
100
AcDbRotatedDimension
  0
MTEXT
  5
91
330
17
100
AcDbEntity
  8
0
 62
2
100
AcDbMText
 10
810.1494507428724
 20
456.3783560243901
 30
0.0
 40
39.0
 41
775.0000000000146
 46
100.0000000000031
 71
5
 72
5
  1
Tấm nóc : 3 tấm
  0
CIRCLE
  5
92
330
17
100
AcDbEntity
  8
00
 62
2
100
AcDbCircle
 10
545.2480937210494
 20
946.4878815354314
 30
0.0
 40
3.0
  0
CIRCLE
  5
93
330
17
100
AcDbEntity
  8
00
 62
2
100
AcDbCircle
 10
615.2480937210494
 20
946.4878815354314
 30
0.0
 40
3.0
  0
CIRCLE
  5
94
330
17
100
AcDbEntity
  8
00
 62
2
100
AcDbCircle
 10
735.2480937210494
 20
946.4878815354314
 30
0.0
 40
3.0
  0
CIRCLE
  5
95
330
17
100
AcDbEntity
  8
00
 62
2
100
AcDbCircle
 10
855.2480937210494
 20
946.4878815354314
 30
0.0
 40
3.0
  0
CIRCLE
  5
96
330
17
100
AcDbEntity
  8
00
 62
2
100
AcDbCircle
 10
975.2480937210494
 20
946.4878815354314
 30
0.0
 40
3.0
  0
CIRCLE
  5
97
330
17
100
AcDbEntity
  8
00
 62
2
100
AcDbCircle
 10
1045.2480937210494
 20
946.4878815354314
 30
0.0
 40
3.0
  0
INSERT
  5
98
330
17
100
AcDbEntity
  8
0
370
-3
100
AcDbBlockReference
  2
f3daunguoc
 10
508.7480937210494
 20
906.4878815354314
 30
0.0
 50
270.0
  0
INSERT
  5
9A
330
17
100
AcDbEntity
  8
0
370
-3
100
AcDbBlockReference
  2
f3daunguoc
 10
508.7480937210494
 20
571.4878815354314
 30
0.0
 50
270.0
  0
INSERT
  5
9C
330
17
100
AcDbEntity
  8
0
370
-3
100
AcDbBlockReference
  2
f3daunguoc
 10
493.7480937210494
 20
576.4878815354314
 30
0.0
 50
270.0
  0
INSERT
  5
9E
330
17
100
AcDbEntity
  8
0
370
-3
100
AcDbBlockReference
  2
f3daunguoc
 10
493.7480937210494
 20
631.4878815354314
 30
0.0
 50
270.0
  0
INSERT
  5
A0
330
17
100
AcDbEntity
  8
0
370
-3
100
AcDbBlockReference
  2
f3daunguoc
 10
498.7480937210494
 20
551.4878815354314
 30
0.0
 50
270.0
  0
INSERT
  5
A2
330
17
100
AcDbEntity
  8
0
370
-3
100
AcDbBlockReference
  2
f3daunguoc
 10
548.7480937210494
 20
551.4878815354314
 30
0.0
 50
270.0
  0
INSERT
  5
A4
330
17
100
AcDbEntity
  8
0
370
-3
100
AcDbBlockReference
  2
f3daunguoc
 10
563.7480937210494
 20
571.4878815354314
 30
0.0
 50
270.0
  0
INSERT
  5
A6
330
17
100
AcDbEntity
  8
0
370
-3
100
AcDbBlockReference
  2
f3daunguoc
 10
1081.7480937210494
 20
571.4878815354314
 30
0.0
 41
-1.0
 50
90.0
  0
INSERT
  5
A8
330
17
100
AcDbEntity
  8
0
370
-3
100
AcDbBlockReference
  2
f3daunguoc
 10
1096.7480937210494
 20
576.4878815354314
 30
0.0
 41
-1.0
 50
90.0
  0
INSERT
  5
AA
330
17
100
AcDbEntity
  8
0
370
-3
100
AcDbBlockReference
  2
f3daunguoc
 10
1096.7480937210494
 20
631.4878815354314
 30
0.0
 41
-1.0
 50
90.0
  0
INSERT
  5
AC
330
17
100
AcDbEntity
  8
0
370
-3
100
AcDbBlockReference
  2
f3daunguoc
 10
1091.7480937210494
 20
551.4878815354314
 30
0.0
 41
-1.0
 50
90.0
  0
INSERT
  5
AE
330
17
100
AcDbEntity
  8
0
370
-3
100
AcDbBlockReference
  2
f3daunguoc
 10
1041.7480937210494
 20
551.4878815354314
 30
0.0
 41
-1.0
 50
90.0
  0
INSERT
  5
B0
330
17
100
AcDbEntity
  8
0
370
-3
100
AcDbBlockReference
  2
f3daunguoc
 10
1026.7480937210494
 20
571.4878815354314
 30
0.0
 41
-1.0
 50
90.0
  0
INSERT
  5
B2
330
17
100
AcDbEntity
  8
0
370
-3
100
AcDbBlockReference
  2
f3daunguoc
 10
1081.7480937210494
 20
906.4878815354314
 30
0.0
 41
-1.0
 50
90.0
  0
INSERT
  5
B4
330
17
100
AcDbEntity
  8
0
370
-3
100
AcDbBlockReference
  2
f3daunguoc
 10
1026.7480937210494
 20
906.4878815354314
 30
0.0
 41
-1.0
 50
90.0
  0
INSERT
  5
B6
330
17
100
AcDbEntity
  8
0
370
-3
100
AcDbBlockReference
  2
f3daunguoc
 10
1096.7480937210494
 20
901.4878815354314
 30
0.0
 50
90.0
  0
INSERT
  5
B8
330
17
100
AcDbEntity
  8
0
370
-3
100
AcDbBlockReference
  2
f3daunguoc
 10
1096.7480937210494
 20
856.4878815354314
 30
0.0
 50
90.0
  0
INSERT
  5
BA
330
17
100
AcDbEntity
  8
0
370
-3
100
AcDbBlockReference
  2
f3daunguoc
 10
493.7480937210494
 20
901.4878815354314
 30
0.0
 41
-1.0
 50
270.0
  0
INSERT
  5
BC
330
17
100
AcDbEntity
  8
0
370
-3
100
AcDbBlockReference
  2
f3daunguoc
 10
493.7480937210494
 20
856.4878815354314
 30
0.0
 41
-1.0
 50
270.0
  0
CIRCLE
  5
BE
330
17
100
AcDbEntity
  8
00
 62
2
100
AcDbCircle
 10
455.8973738728819
 20
880.773279718971
 30
0.0
 40
2.999999999999999
  0
CIRCLE
  5
BF
330
17
100
AcDbEntity
  8
00
 62
2
100
AcDbCircle
 10
462.5607066380617
 20
801.0512627069911
 30
0.0
 40
2.999999999999998
  0
CIRCLE
  5
C0
330
17
100
AcDbEntity
  8
00
 62
2
100
AcDbCircle
 10
469.2240394032124
 20
721.3292456949821
 30
0.0
 40
2.999999999999998
  0
CIRCLE
  5
C1
330
17
100
AcDbEntity
  8
00
 62
2
100
AcDbCircle
 10
475.8873721684213
 20
641.6072286829913
 30
0.0
 40
2.999999999999998
  0
MTEXT
  5
C2
330
17
100
AcDbEntity
  8
0
 62
2
100
AcDbMText
 10
1310.838303610777
 20
1289.6532237541833
 30
0.0
 40
39.0
 41
775.0000000000146
 46
100.0000000000031
 71
5
 72
5
  1
Panel: 3 Tấm
  0
LWPOLYLINE
  5
C3
330
17
100
AcDbEntity
  8
0
 62
7
100
AcDbPolyline
 90
4
 70
1
 10
1110.8194073884079
 20
1433.9959623088216
 10
1561.8194073884079
 20
1433.9959623088216
 10
1561.8194073884079
 20
2054.9959623088216
 10
1110.8194073884079
 20
2054.9959623088216
  0
INSERT
  5
C4
330
17
100
AcDbEntity
  8
CNC
370
-3
100
AcDbBlockReference
  2
ovan8.5x20
 10
1130.8194073884297
 20
1448.9959623087998
 30
0.0
  0
INSERT
  5
C6
330
17
100
AcDbEntity
  8
CNC
370
-3
100
AcDbBlockReference
  2
ovan8.5x20
 10
1541.8194073884079
 20
1448.9959623087998
 30
0.0
 41
-1.0
  0
INSERT
  5
C8
330
17
100
AcDbEntity
  8
CNC
370
-3
100
AcDbBlockReference
  2
ovan8.5x20
 10
1130.8194073884297
 20
2039.9959623088325
 30
0.0
 41
-1.0
 50
180.0
  0
INSERT
  5
CA
330
17
100
AcDbEntity
  8
CNC
370
-3
100
AcDbBlockReference
  2
ovan8.5x20
 10
1541.8194073884079
 20
2039.9959623088325
 30
0.0
 50
180.0
  0
LWPOLYLINE
  5
CC
330
17
100
AcDbEntity
  8
0
 62
2
100
AcDbPolyline
 90
3
 70
0
 10
1561.8194073884079
 20
2074.9959623088216
 10
1561.8194073884079
 20
2054.9959623088216
 10
1581.8194073884006
 20
2054.9959623088216
  0
INSERT
  5
CD
330
17
100
AcDbEntity
  8
0
370
-3
100
AcDbBlockReference
  2
f3daunguoc
 10
1546.8194073884006
 20
2054.9959623088216
 30
0.0
 41
-1.0
 50
90.0
  0
INSERT
  5
CF
330
17
100
AcDbEntity
  8
0
370
-3
100
AcDbBlockReference
  2
f3daunguoc
 10
1561.8194073884079
 20
2049.9959623088216
 30
0.0
 50
90.0
  0
INSERT
  5
D1
330
17
100
AcDbEntity
  8
0
370
-3
100
AcDbBlockReference
  2
f3daunguoc
 10
1561.8194073884079
 20
2004.9959623088216
 30
0.0
 50
90.0
  0
INSERT
  5
D3
330
17
100
AcDbEntity
  8
0
370
-3
100
AcDbBlockReference
  2
f3daunguoc
 10
1496.8194073884079
 20
2054.9959623088216
 30
0.0
 41
-1.0
 50
90.0
  0
LWPOLYLINE
  5
D5
330
17
100
AcDbEntity
  8
0
 62
2
100
AcDbPolyline
 90
3
 70
0
 10
1110.8194073884079
 20
2074.9959623088216
 10
1110.8194073884079
 20
2054.9959623088216
 10
1090.8194073884079
 20
2054.9959623088216
  0
INSERT
  5
D6
330
17
100
AcDbEntity
  8
0
370
-3
100
AcDbBlockReference
  2
f3daunguoc
 10
1125.8194073884079
 20
2054.9959623088216
 30
0.0
 50
270.0
  0
INSERT
  5
D8
330
17
100
AcDbEntity
  8
0
370
-3
100
AcDbBlockReference
  2
f3daunguoc
 10
1110.8194073884079
 20
2049.9959623088216
 30
0.0
 41
-1.0
 50
270.0
  0
INSERT
  5
DA
330
17
100
AcDbEntity
  8
0
370
-3
100
AcDbBlockReference
  2
f3daunguoc
 10
1110.8194073884079
 20
2004.9959623088216
 30
0.0
 41
-1.0
 50
270.0
  0
INSERT
  5
DC
330
17
100
AcDbEntity
  8
0
370
-3
100
AcDbBlockReference
  2
f3daunguoc
 10
1175.8194073884079
 20
2054.9959623088216
 30
0.0
 50
270.0
  0
LWPOLYLINE
  5
DE
330
17
100
AcDbEntity
  8
0
 62
2
100
AcDbPolyline
 90
3
 70
0
 10
1110.8194073884079
 20
1413.9959623088216
 10
1110.8194073884079
 20
1433.9959623088216
 10
1090.8194073884079
 20
1433.9959623088216
  0
INSERT
  5
DF
330
17
100
AcDbEntity
  8
0
370
-3
100
AcDbBlockReference
  2
f3daunguoc
 10
1125.8194073884079
 20
1433.9959623088216
 30
0.0
 41
-1.0
 50
270.0
  0
INSERT
  5
E1
330
17
100
AcDbEntity
  8
0
370
-3
100
AcDbBlockReference
  2
f3daunguoc
 10
1110.8194073884079
 20
1438.9959623088216
 30
0.0
 50
270.0
  0
INSERT
  5
E3
330
17
100
AcDbEntity
  8
0
370
-3
100
AcDbBlockReference
  2
f3daunguoc
 10
1110.8194073884079
 20
1483.9959623088216
 30
0.0
 50
270.0
  0
INSERT
  5
E5
330
17
100
AcDbEntity
  8
0
370
-3
100
AcDbBlockReference
  2
f3daunguoc
 10
1175.8194073884079
 20
1433.9959623088216
 30
0.0
 41
-1.0
 50
270.0
  0
LWPOLYLINE
  5
E7
330
17
100
AcDbEntity
  8
0
 62
2
100
AcDbPolyline
 90
3
 70
0
 10
1561.8194073884079
 20
1413.9959623088216
 10
1561.8194073884079
 20
1433.9959623088216
 10
1581.8194073884006
 20
1433.9959623088216
  0
INSERT
  5
E8
330
17
100
AcDbEntity
  8
0
370
-3
100
AcDbBlockReference
  2
f3daunguoc
 10
1546.8194073884006
 20
1433.9959623088216
 30
0.0
 50
90.0
  0
INSERT
  5
EA
330
17
100
AcDbEntity
  8
0
370
-3
100
AcDbBlockReference
  2
f3daunguoc
 10
1561.8194073884079
 20
1438.9959623088216
 30
0.0
 41
-1.0
 50
90.0
  0
INSERT
  5
EC
330
17
100
AcDbEntity
  8
0
370
-3
100
AcDbBlockReference
  2
f3daunguoc
 10
1561.8194073884079
 20
1483.9959623088216
 30
0.0
 41
-1.0
 50
90.0
  0
INSERT
  5
EE
330
17
100
AcDbEntity
  8
0
370
-3
100
AcDbBlockReference
  2
f3daunguoc
 10
1496.8194073884079
 20
1433.9959623088216
 30
0.0
 50
90.0
  0
LINE
  5
F0
330
17
100
AcDbEntity
  8
0
 62
7
100
AcDbLine
 10
1581.8194073884006
 20
1433.9959623088216
 30
0.0
 11
1581.8194073884006
 21
2054.9959623088216
 31
0.0
  0
LINE
  5
F1
330
17
100
AcDbEntity
  8
0
 62
7
100
AcDbLine
 10
1561.8194073884079
 20
2074.9959623088216
 30
0.0
 11
1110.8194073884079
 21
2074.9959623088216
 31
0.0
  0
LINE
  5
F2
330
17
100
AcDbEntity
  8
0
 62
7
100
AcDbLine
 10
1090.8194073884079
 20
2054.9959623088216
 30
0.0
 11
1090.8194073884079
 21
1433.9959623088216
 31
0.0
  0
LINE
  5
F3
330
17
100
AcDbEntity
  8
0
 62
7
100
AcDbLine
 10
1110.8194073884079
 20
1413.9959623088216
 30
0.0
 11
1561.8194073884079
 21
1413.9959623088216
 31
0.0
  0
DIMENSION
  5
F4
330
17
100
AcDbEntity
  8
DIM
 62
2
100
AcDbDimension
280
0
  2
*D16
  3
CNC
 10
1581.8194073884006
 20
2167.446974362123
 30
0.0
 11
1637.9722041141868
 21
2202.9756237482106
 31
0.0
 70
32
 71
5
 42
20.0
 73
0
 74
0
 75
0
100
AcDbAlignedDimension
 13
1561.8194073884079
 23
2074.9959623088216
 33
0.0
 14
1581.8194073884006
 24
2054.9959623088216
 34
0.0
 50
0.0
100
AcDbRotatedDimension
  0
DIMENSION
  5
FB
330
17
100
AcDbEntity
  8
DIM
 62
2
100
AcDbDimension
280
0
  2
*D17
  3
CNC
 10
1561.8194073884079
 20
2167.446974362123
 30
0.0
 11
1336.3194073884079
 21
2202.9756237482106
 31
0.0
 70
32
 71
5
 42
451.0
 73
0
 74
0
 75
0
100
AcDbAlignedDimension
 13
1110.8194073884079
 23
2074.9959623088216
 33
0.0
 14
1561.8194073884079
 24
2074.9959623088216
 34
0.0
 50
0.0
100
AcDbRotatedDimension
  0
DIMENSION
  5
FC
330
17
100
AcDbEntity
  8
DIM
 62
2
100
AcDbDimension
280
0
  2
*D18
  3
CNC
 10
953.8626908860315
 20
1413.9959623088216
 30
0.0
 11
953.8626908860315
 21
1744.4959623088325
 31
0.0
 70
160
 71
5
 42
661.0
 73
0
 74
0
 75
0
100
AcDbAlignedDimension
 13
1110.8194073884079
 23
2074.9959623088216
 33
0.0
 14
1110.8194073884079
 24
1413.9959623088216
 34
0.0
 50
90.0
100
AcDbRotatedDimension
  0
DIMENSION
  5
FD
330
17
100
AcDbEntity
  8
DIM
 62
2
100
AcDbDimension
280
0
  2
*D19
  3
CNC
 10
1049.936415363576
 20
1433.9959623088216
 30
0.0
 11
1014.4077659774994
 21
1744.4959623088107
 31
0.0
 70
32
 71
5
 42
621.0
 73
0
 74
0
 75
0
100
AcDbAlignedDimension
 13
1090.8194073884079
 23
2054.9959623088216
 33
0.0
 14
1090.8194073884079
 24
1433.9959623088216
 34
0.0
 50
90.0
100
AcDbRotatedDimension
  0
CIRCLE
  5
FE
330
17
100
AcDbEntity
  8
00
 62
2
100
AcDbCircle
 10
1134.5988135692096
 20
880.773279718971
 30
0.0
 40
2.999999999999999
  0
CIRCLE
  5
FF
330
17
100
AcDbEntity
  8
00
 62
2
100
AcDbCircle
 10
1127.9354808040298
 20
801.0512627069911
 30
0.0
 40
2.999999999999998
  0
CIRCLE
  5
100
330
17
100
AcDbEntity
  8
00
 62
2
100
AcDbCircle
 10
1121.2721480388864
 20
721.3292456949821
 30
0.0
 40
2.999999999999998
  0
CIRCLE
  5
101
330
17
100
AcDbEntity
  8
00
 62
2
100
AcDbCircle
 10
1114.6088152736775
 20
641.6072286829913
 30
0.0
 40
2.999999999999998
  0
INSERT
  5
102
330
17
100
AcDbEntity
  8
0
 62
7
100
AcDbBlockReference
 66
1
  2
khungtenAsean2
 10
0.0
 20
2519.99999999427
 30
0.0
 41
1.199999999997089
 42
1.199999999997089
 43
1.199999999997089
  0
ATTRIB
  5
103
330
102
100
AcDbEntity
  8
0
 62
1
100
AcDbText
 10
3460.517055534743
 20
39.18263986846068
 30
0.0
 40
30.0
  1
......
  7
Tahoma (Input Text)
 72
1
 11
3497.9918708470286
 21
39.18263986846068
 31
0.0
100
AcDbAttribute
  2
#11
 70
0
 71
1
 72
0
 11
3497.9918708470286
 21
39.18263986846068
 31
0.0
  0
ATTRIB
  5
104
330
102
100
AcDbEntity
  8
0
 62
1
100
AcDbText
 10
2576.060372984968
 20
94.46974596387008
 30
0.0
 40
30.0
  1
tủ ngoài trời 2 lớp cánh
  7
Tahoma (Input Text)
100
AcDbAttribute
  2
#09
 70
0
 71
1
 72
0
  0
ATTRIB
  5
105
330
102
100
AcDbEntity
  8
0
 62
1
100
AcDbText
 10
2576.060372984968
 20
22.469745963862806
 30
0.0
 40
30.0
  1

  7
Tahoma (Input Text)
100
AcDbAttribute
  2
#10
 70
0
 71
1
 72
0
  0
ATTRIB
  5
106
330
102
100
AcDbEntity
  8
0
 62
1
100
AcDbText
 10
2180.9373188800164
 20
22.469745963862806
 30
0.0
 40
30.0
  1
1.5
  7
Tahoma (Input Text)
100
AcDbAttribute
  2
#08
 70
0
 71
1
 72
0
  0
ATTRIB
  5
107
330
102
100
AcDbEntity
  8
0
 62
1
100
AcDbText
 10
2201.617812390672
 20
94.46974596387008
 30
0.0
 40
30.0
  1
3
  7
Tahoma (Input Text)
100
AcDbAttribute
  2
#07
 70
0
 71
1
 72
0
  0
ATTRIB
  5
108
330
102
100
AcDbEntity
  8
0
 62
1
100
AcDbText
 10
1278.397066972393
 20
22.469745963862806
 30
0.0
 40
30.0
  1
800x600x300
  7
Tahoma (Input Text)
100
AcDbAttribute
  2
#06
 70
0
 71
1
 72
0
  0
ATTRIB
  5
109
330
102
100
AcDbEntity
  8
0
 62
1
100
AcDbText
 10
1327.9538125465915
 20
94.46974596387008
 30
0.0
 40
30.0
  1
Võ tủ điện
  7
Tahoma (Input Text)
100
AcDbAttribute
  2
#05
 70
0
 71
1
 72
0
  0
ATTRIB
  5
10A
330
102
100
AcDbEntity
  8
0
 62
1
100
AcDbText
 10
583.3260324065923
 20
22.469745963862806
 30
0.0
 40
30.0
  1
06/10/2020
  7
Tahoma (Input Text)
100
AcDbAttribute
  2
#04
 70
0
 71
1
 72
0
  0
ATTRIB
  5
10B
330
102
100
AcDbEntity
  8
0
 62
1
100
AcDbText
 10
607.884898736047
 20
96.83807940662155
 30
0.0
 40
30.0
  1
a sỹ
  7
Tahoma (Input Text)
100
AcDbAttribute
  2
#03
 70
0
 71
1
 72
0
  0
ATTRIB
  5
10C
330
102
100
AcDbEntity
  8
0
 62
1
100
AcDbText
 10
118.1480694037964
 20
22.469745963862806
 30
0.0
 40
30.0
  1
......
  7
Tahoma (Input Text)
100
AcDbAttribute
  2
#02
 70
0
 71
1
 72
0
  0
ATTRIB
  5
10D
330
102
100
AcDbEntity
  8
0
 62
1
100
AcDbText
 10
164.46420940500684
 20
94.46974596387008
 30
0.0
 40
30.0
  1
Phúc
  7
Tahoma (Input Text)
100
AcDbAttribute
  2
#01
 70
0
 71
1
 72
0
  0
SEQEND
  5
10E
330
17
100
AcDbEntity
  8
0
 62
7
  0
ENDSEC
  0
SECTION
  2
OBJECTS
  0
DICTIONARY
  5
A
330
0
100
AcDbDictionary
281
1
  3
ACAD_COLOR
350
B
  3
ACAD_GROUP
350
C
  3
ACAD_LAYOUT
350
D
  3
ACAD_MATERIAL
350
E
  3
ACAD_MLEADERSTYLE
350
F
  3
ACAD_MLINESTYLE
350
10
  3
ACAD_PLOTSETTINGS
350
11
  3
ACAD_PLOTSTYLENAME
350
12
  3
ACAD_SCALELIST
350
14
  3
ACAD_TABLESTYLE
350
15
  3
ACAD_VISUALSTYLE
350
16
  3
EZDXF_META
350
2D
  0
DICTIONARY
  5
B
330
A
100
AcDbDictionary
281
1
  0
DICTIONARY
  5
C
330
A
100
AcDbDictionary
281
1
  0
DICTIONARY
  5
D
330
A
100
AcDbDictionary
281
1
  3
Model
350
1A
  3
Layout1
350
1E
  0
DICTIONARY
  5
E
330
A
100
AcDbDictionary
281
1
  3
ByBlock
350
1F
  3
ByLayer
350
20
  3
Global
350
21
  0
DICTIONARY
  5
F
330
A
100
AcDbDictionary
281
1
  3
Standard
350
2C
  0
DICTIONARY
  5
10
330
A
100
AcDbDictionary
281
1
  3
Standard
350
22
  0
DICTIONARY
  5
11
330
A
100
AcDbDictionary
281
1
  0
ACDBDICTIONARYWDFLT
  5
12
330
A
100
AcDbDictionary
281
1
  3
Normal
350
13
100
AcDbDictionaryWithDefault
340
13
  0
ACDBPLACEHOLDER
  5
13
330
12
  0
DICTIONARY
  5
14
330
A
100
AcDbDictionary
281
1
  0
DICTIONARY
  5
15
330
A
100
AcDbDictionary
281
1
  0
DICTIONARY
  5
16
330
A
100
AcDbDictionary
281
1
  0
LAYOUT
  5
1A
330
D
100
AcDbPlotSettings
  1

  4
A3
  6

 40
7.5
 41
20.0
 42
7.5
 43
20.0
 44
420.0
 45
297.0
 46
0.0
 47
0.0
 48
0.0
 49
0.0
140
0.0
141
0.0
142
1.0
143
1.0
 70
1024
 72
1
 73
0
 74
5
  7

 75
16
 76
0
 77
2
 78
300
147
1.0
148
0.0
149
0.0
100
AcDbLayout
  1
Model
 70
1
 71
0
 10
0.0
 20
0.0
 11
420.0
 21
297.0
 12
0.0
 22
0.0
 32
0.0
 14
1e+20
 24
1e+20
 34
1e+20
 15
-1e+20
 25
-1e+20
 35
-1e+20
146
0.0
 13
0.0
 23
0.0
 33
0.0
 16
1.0
 26
0.0
 36
0.0
 17
0.0
 27
1.0
 37
0.0
 76
1
330
17
  0
LAYOUT
  5
1E
330
D
100
AcDbPlotSettings
  1

  4
A3
  6

 40
7.5
 41
20.0
 42
7.5
 43
20.0
 44
420.0
 45
297.0
 46
0.0
 47
0.0
 48
0.0
 49
0.0
140
0.0
141
0.0
142
1.0
143
1.0
 70
0
 72
1
 73
0
 74
5
  7

 75
16
 76
0
 77
2
 78
300
147
1.0
148
0.0
149
0.0
100
AcDbLayout
  1
Layout1
 70
1
 71
1
 10
0.0
 20
0.0
 11
420.0
 21
297.0
 12
0.0
 22
0.0
 32
0.0
 14
1e+20
 24
1e+20
 34
1e+20
 15
-1e+20
 25
-1e+20
 35
-1e+20
146
0.0
 13
0.0
 23
0.0
 33
0.0
 16
1.0
 26
0.0
 36
0.0
 17
0.0
 27
1.0
 37
0.0
 76
1
330
1B
  0
MATERIAL
  5
1F
102
{ACAD_REACTORS
330
E
102
}
330
E
100
AcDbMaterial
  1
ByBlock
  2

 70
0
 40
1.0
 71
1
 41
1.0
 91
-1023410177
 42
1.0
 72
1
  3

 73
1
 74
1
 75
1
 44
0.5
 73
0
 45
1.0
 46
1.0
 77
1
  4

 78
1
 79
1
170
1
 48
1.0
171
1
  6

172
1
173
1
174
1
140
1.0
141
1.0
175
1
  7

176
1
177
1
178
1
143
1.0
179
1
  8

270
1
271
1
272
1
145
1.0
146
1.0
273
1
  9

274
1
275
1
276
1
 42
1.0
 72
1
  3

 73
1
 74
1
 75
1
 94
63
  0
MATERIAL
  5
20
102
{ACAD_REACTORS
330
E
102
}
330
E
100
AcDbMaterial
  1
ByLayer
  2

 70
0
 40
1.0
 71
1
 41
1.0
 91
-1023410177
 42
1.0
 72
1
  3

 73
1
 74
1
 75
1
 44
0.5
 73
0
 45
1.0
 46
1.0
 77
1
  4

 78
1
 79
1
170
1
 48
1.0
171
1
  6

172
1
173
1
174
1
140
1.0
141
1.0
175
1
  7

176
1
177
1
178
1
143
1.0
179
1
  8

270
1
271
1
272
1
145
1.0
146
1.0
273
1
  9

274
1
275
1
276
1
 42
1.0
 72
1
  3

 73
1
 74
1
 75
1
 94
63
  0
MATERIAL
  5
21
102
{ACAD_REACTORS
330
E
102
}
330
E
100
AcDbMaterial
  1
Global
  2

 70
0
 40
1.0
 71
1
 41
1.0
 91
-1023410177
 42
1.0
 72
1
  3

 73
1
 74
1
 75
1
 44
0.5
 73
0
 45
1.0
 46
1.0
 77
1
  4

 78
1
 79
1
170
1
 48
1.0
171
1
  6

172
1
173
1
174
1
140
1.0
141
1.0
175
1
  7

176
1
177
1
178
1
143
1.0
179
1
  8

270
1
271
1
272
1
145
1.0
146
1.0
273
1
  9

274
1
275
1
276
1
 42
1.0
 72
1
  3

 73
1
 74
1
 75
1
 94
63
  0
MLINESTYLE
  5
22
102
{ACAD_REACTORS
330
10
102
}
330
10
100
AcDbMlineStyle
  2
Standard
 70
0
  3

 62
256
 51
90.0
 52
90.0
 71
2
 49
0.5
 62
256
  6
BYLAYER
 49
-0.5
 62
256
  6
BYLAYER
  0
MLEADERSTYLE
  5
2C
102
{ACAD_REACTORS
330
F
102
}
330
F
100
AcDbMLeaderStyle
179
2
170
2
171
1
172
0
 90
2
 40
0.0
 41
0.0
173
1
 91
-1056964608
 92
-2
290
1
 42
2.0
291
1
 43
8.0
  3
Standard
 44
4.0
300

342
29
174
1
175
1
176
0
178
1
 93
-1056964608
 45
4.0
292
0
297
0
 46
4.0
 94
-1056964608
 47
1.0
 49
1.0
140
1.0
294
1
141
0.0
177
0
142
1.0
295
0
296
0
143
3.75
271
0
272
9
273
9
  0
DICTIONARY
  5
2D
330
A
100
AcDbDictionary
280
1
281
1
  3
CREATED_BY_EZDXF
350
2E
  3
WRITTEN_BY_EZDXF
350
14B
  0
DICTIONARYVAR
  5
2E
330
2D
100
DictionaryVariables
280
0
  1
1.4.4 @ 2026-09-24T06:31:49.392618+00:00
  0
DICTIONARYVAR
  5
14B
330
2D
100
DictionaryVariables
280
0
  1
1.4.4 @ 2026-09-24T06:36:55.114615+00:00
  0
ENDSEC
  0
EOF
