  0
SECTION
  2
HEADER
  9
$ACADVER
  1
AC1032
  9
$ACADMAINTVER
 90
4
  9
$DWGCODEPAGE
  3
ANSI_1252
  9
$LASTSAVEDBY
  1
ezdxf
  9
$REQUIREDVERSIONS
160
0
  9
$INSBASE
 10
0.0
 20
0.0
 30
0.0
  9
$EXTMIN
 10
1e+20
 20
1e+20
 30
1e+20
  9
$EXTMAX
 10
-1e+20
 20
-1e+20
 30
-1e+20
  9
$LIMMIN
 10
0.0
 20
0.0
  9
$LIMMAX
 10
420.0
 20
297.0
  9
$ORTHOMODE
 70
0
  9
$REGENMODE
 70
1
  9
$FILLMODE
 70
1
  9
$QTEXTMODE
 70
0
  9
$MIRRTEXT
 70
1
  9
$LTSCALE
 40
1.0
  9
$ATTMODE
 70
1
  9
$TEXTSIZE
 40
2.5
  9
$TRACEWID
 40
1.0
  9
$TEXTSTYLE
  7
Standard
  9
$CLAYER
  8
0
  9
$CELTYPE
  6
ByLayer
  9
$CECOLOR
 62
256
  9
$CELTSCALE
 40
1.0
  9
$DISPSILH
 70
0
  9
$DIMSCALE
 40
1.0
  9
$DIMASZ
 40
2.5
  9
$DIMEXO
 40
0.625
  9
$DIMDLI
 40
3.75
  9
$DIMRND
 40
0.0
  9
$DIMDLE
 40
0.0
  9
$DIMEXE
 40
1.25
  9
$DIMTP
 40
0.0
  9
$DIMTM
 40
0.0
  9
$DIMTXT
 40
2.5
  9
$DIMCEN
 40
2.5
  9
$DIMTSZ
 40
0.0
  9
$DIMTOL
 70
0
  9
$DIMLIM
 70
0
  9
$DIMTIH
 70
0
  9
$DIMTOH
 70
0
  9
$DIMSE1
 70
0
  9
$DIMSE2
 70
0
  9
$DIMTAD
 70
1
  9
$DIMZIN
 70
8
  9
$DIMBLK
  1

  9
$DIMASO
 70
1
  9
$DIMSHO
 70
1
  9
$DIMPOST
  1

  9
$DIMAPOST
  1

  9
$DIMALT
 70
0
  9
$DIMALTD
 70
3
  9
$DIMALTF
 40
0.03937007874
  9
$DIMLFAC
 40
1.0
  9
$DIMTOFL
 70
1
  9
$DIMTVP
 40
0.0
  9
$DIMTIX
 70
0
  9
$DIMSOXD
 70
0
  9
$DIMSAH
 70
0
  9
$DIMBLK1
  1

  9
$DIMBLK2
  1

  9
$DIMSTYLE
  2
ISO-25
  9
$DIMCLRD
 70
0
  9
$DIMCLRE
 70
0
  9
$DIMCLRT
 70
0
  9
$DIMTFAC
 40
1.0
  9
$DIMGAP
 40
0.625
  9
$DIMJUST
 70
0
  9
$DIMSD1
 70
0
  9
$DIMSD2
 70
0
  9
$DIMTOLJ
 70
0
  9
$DIMTZIN
 70
8
  9
$DIMALTZ
 70
0
  9
$DIMALTTZ
 70
0
  9
$DIMUPT
 70
0
  9
$DIMDEC
 70
2
  9
$DIMTDEC
 70
2
  9
$DIMALTU
 70
2
  9
$DIMALTTD
 70
3
  9
$DIMTXSTY
  7
Standard
  9
$DIMAUNIT
 70
0
  9
$DIMADEC
 70
0
  9
$DIMALTRND
 40
0.0
  9
$DIMAZIN
 70
0
  9
$DIMDSEP
 70
44
  9
$DIMATFIT
 70
3
  9
$DIMFRAC
 70
0
  9
$DIMLDRBLK
  1

  9
$DIMLUNIT
 70
2
  9
$DIMLWD
 70
-2
  9
$DIMLWE
 70
-2
  9
$DIMTMOVE
 70
0
  9
$DIMFXL
 40
1.0
  9
$DIMFXLON
 70
0
  9
$DIMJOGANG
 40
0.785398163397
  9
$DIMTFILL
 70
0
  9
$DIMTFILLCLR
 70
0
  9
$DIMARCSYM
 70
0
  9
$DIMLTYPE
  6

  9
$DIMLTEX1
  6

  9
$DIMLTEX2
  6

  9
$DIMTXTDIRECTION
 70
0
  9
$LUNITS
 70
2
  9
$LUPREC
 70
4
  9
$SKETCHINC
 40
1.0
  9
$FILLETRAD
 40
10.0
  9
$AUNITS
 70
0
  9
$AUPREC
 70
2
  9
$MENU
  1
.
  9
$ELEVATION
 40
0.0
  9
$PELEVATION
 40
0.0
  9
$THICKNESS
 40
0.0
  9
$LIMCHECK
 70
0
  9
$CHAMFERA
 40
0.0
  9
$CHAMFERB
 40
0.0
  9
$CHAMFERC
 40
0.0
  9
$CHAMFERD
 40
0.0
  9
$SKPOLY
 70
0
  9
$TDCREATE
 40
2461308.568449074
  9
$TDUCREATE
 40
2458532.153996898
  9
$TDUPDATE
 40
2461308.568449074
  9
$TDUUPDATE
 40
2458532.1544311
  9
$TDINDWG
 40
0.0
  9
$TDUSRTIMER
 40
0.0
  9
$USRTIMER
 70
1
  9
$ANGBASE
 50
0.0
  9
$ANGDIR
 70
0
  9
$PDMODE
 70
0
  9
$PDSIZE
 40
0.0
  9
$PLINEWID
 40
0.0
  9
$SPLFRAME
 70
0
  9
$SPLINETYPE
 70
6
  9
$SPLINESEGS
 70
8
  9
$HANDSEED
  5
474
  9
$SURFTAB1
 70
6
  9
$SURFTAB2
 70
6
  9
$SURFTYPE
 70
6
  9
$SURFU
 70
6
  9
$SURFV
 70
6
  9
$UCSBASE
  2

  9
$UCSNAME
  2

  9
$UCSORG
 10
0.0
 20
0.0
 30
0.0
  9
$UCSXDIR
 10
1.0
 20
0.0
 30
0.0
  9
$UCSYDIR
 10
0.0
 20
1.0
 30
0.0
  9
$UCSORTHOREF
  2

  9
$UCSORTHOVIEW
 70
0
  9
$UCSORGTOP
 10
0.0
 20
0.0
 30
0.0
  9
$UCSORGBOTTOM
 10
0.0
 20
0.0
 30
0.0
  9
$UCSORGLEFT
 10
0.0
 20
0.0
 30
0.0
  9
$UCSORGRIGHT
 10
0.0
 20
0.0
 30
0.0
  9
$UCSORGFRONT
 10
0.0
 20
0.0
 30
0.0
  9
$UCSORGBACK
 10
0.0
 20
0.0
 30
0.0
  9
$PUCSBASE
  2

  9
$PUCSNAME
  2

  9
$PUCSORG
 10
0.0
 20
0.0
 30
0.0
  9
$PUCSXDIR
 10
1.0
 20
0.0
 30
0.0
  9
$PUCSYDIR
 10
0.0
 20
1.0
 30
0.0
  9
$PUCSORTHOREF
  2

  9
$PUCSORTHOVIEW
 70
0
  9
$PUCSORGTOP
 10
0.0
 20
0.0
 30
0.0
  9
$PUCSORGBOTTOM
 10
0.0
 20
0.0
 30
0.0
  9
$PUCSORGLEFT
 10
0.0
 20
0.0
 30
0.0
  9
$PUCSORGRIGHT
 10
0.0
 20
0.0
 30
0.0
  9
$PUCSORGFRONT
 10
0.0
 20
0.0
 30
0.0
  9
$PUCSORGBACK
 10
0.0
 20
0.0
 30
0.0
  9
$USERI1
 70
0
  9
$USERI2
 70
0
  9
$USERI3
 70
0
  9
$USERI4
 70
0
  9
$USERI5
 70
0
  9
$USERR1
 40
0.0
  9
$USERR2
 40
0.0
  9
$USERR3
 40
0.0
  9
$USERR4
 40
0.0
  9
$USERR5
 40
0.0
  9
$WORLDVIEW
 70
1
  9
$SHADEDGE
 70
3
  9
$SHADEDIF
 70
70
  9
$TILEMODE
 70
1
  9
$MAXACTVP
 70
64
  9
$PINSBASE
 10
0.0
 20
0.0
 30
0.0
  9
$PLIMCHECK
 70
0
  9
$PEXTMIN
 10
1e+20
 20
1e+20
 30
1e+20
  9
$PEXTMAX
 10
-1e+20
 20
-1e+20
 30
-1e+20
  9
$PLIMMIN
 10
0.0
 20
0.0
  9
$PLIMMAX
 10
420.0
 20
297.0
  9
$UNITMODE
 70
0
  9
$VISRETAIN
 70
1
  9
$PLINEGEN
 70
0
  9
$PSLTSCALE
 70
1
  9
$TREEDEPTH
 70
3020
  9
$CMLSTYLE
  2
Standard
  9
$CMLJUST
 70
0
  9
$CMLSCALE
 40
20.0
  9
$PROXYGRAPHICS
 70
1
  9
$MEASUREMENT
 70
1
  9
$CELWEIGHT
370
-1
  9
$ENDCAPS
280
0
  9
$JOINSTYLE
280
0
  9
$LWDISPLAY
290
0
  9
$INSUNITS
 70
4
  9
$HYPERLINKBASE
  1

  9
$STYLESHEET
  1

  9
$XEDIT
290
1
  9
$CEPSNTYPE
380
0
  9
$PSTYLEMODE
290
1
  9
$FINGERPRINTGUID
  2
{B226E1DA-933E-4124-84E1-0D323F5F684D}
  9
$VERSIONGUID
  2
{A25AFE4B-3E72-4A31-AD06-FB992AE3AB1E}
  9
$EXTNAMES
290
1
  9
$PSVPSCALE
 40
0.0
  9
$OLESTARTUP
290
0
  9
$SORTENTS
280
127
  9
$INDEXCTL
280
0
  9
$HIDETEXT
280
1
  9
$XCLIPFRAME
280
1
  9
$HALOGAP
280
0
  9
$OBSCOLOR
 70
257
  9
$OBSLTYPE
280
0
  9
$INTERSECTIONDISPLAY
280
0
  9
$INTERSECTIONCOLOR
 70
257
  9
$DIMASSOC
280
2
  9
$PROJECTNAME
  1

  9
$CAMERADISPLAY
290
0
  9
$LENSLENGTH
 40
50.0
  9
$CAMERAHEIGHT
 40
0.0
  9
$STEPSPERSEC
 40
24.0
  9
$STEPSIZE
 40
100.0
  9
$3DDWFPREC
 40
2.0
  9
$PSOLWIDTH
 40
0.005
  9
$PSOLHEIGHT
 40
0.08
  9
$LOFTANG1
 40
1.570796326795
  9
$LOFTANG2
 40
1.570796326795
  9
$LOFTMAG1
 40
0.0
  9
$LOFTMAG2
 40
0.0
  9
$LOFTPARAM
 70
7
  9
$LOFTNORMALS
280
1
  9
$LATITUDE
 40
37.795
  9
$LONGITUDE
 40
-122.394
  9
$NORTHDIRECTION
 40
0.0
  9
$TIMEZONE
 70
-8000
  9
$LIGHTGLYPHDISPLAY
280
1
  9
$TILEMODELIGHTSYNCH
280
1
  9
$CMATERIAL
347
20
  9
$SOLIDHIST
280
0
  9
$SHOWHIST
280
1
  9
$DWFFRAME
280
2
  9
$DGNFRAME
280
2
  9
$REALWORLDSCALE
290
1
  9
$INTERFERECOLOR
 62
256
  9
$CSHADOW
280
0
  9
$SHADOWPLANELOCATION
 40
0.0
  0
ENDSEC
  0
SECTION
  2
CLASSES
  0
CLASS
  1
ACDBDICTIONARYWDFLT
  2
AcDbDictionaryWithDefault
  3
ObjectDBX Classes
 90
0
 91
0
280
0
281
0
  0
CLASS
  1
SUN
  2
AcDbSun
  3
SCENEOE
 90
1153
 91
0
280
0
281
0
  0
CLASS
  1
VISUALSTYLE
  2
AcDbVisualStyle
  3
ObjectDBX Classes
 90
4095
 91
0
280
0
281
0
  0
CLASS
  1
MATERIAL
  2
AcDbMaterial
  3
ObjectDBX Classes
 90
1153
 91
0
280
0
281
0
  0
CLASS
  1
SCALE
  2
AcDbScale
  3
ObjectDBX Classes
 90
1153
 91
0
280
0
281
0
  0
CLASS
  1
TABLESTYLE
  2
AcDbTableStyle
  3
ObjectDBX Classes
 90
4095
 91
0
280
0
281
0
  0
CLASS
  1
MLEADERSTYLE
  2
AcDbMLeaderStyle
  3
ACDB_MLEADERSTYLE_CLASS
 90
4095
 91
0
280
0
281
0
  0
CLASS
  1
DICTIONARYVAR
  2
AcDbDictionaryVar
  3
ObjectDBX Classes
 90
0
 91
0
280
0
281
0
  0
CLASS
  1
CELLSTYLEMAP
  2
AcDbCellStyleMap
  3
ObjectDBX Classes
 90
1152
 91
0
280
0
281
0
  0
CLASS
  1
MENTALRAYRENDERSETTINGS
  2
AcDbMentalRayRenderSettings
  3
SCENEOE
 90
1024
 91
0
280
0
281
0
  0
CLASS
  1
ACDBDETAILVIEWSTYLE
  2
AcDbDetailViewStyle
  3
ObjectDBX Classes
 90
1025
 91
0
280
0
281
0
  0
CLASS
  1
ACDBSECTIONVIEWSTYLE
  2
AcDbSectionViewStyle
  3
ObjectDBX Classes
 90
1025
 91
0
280
0
281
0
  0
CLASS
  1
RASTERVARIABLES
  2
AcDbRasterVariables
  3
ISM
 90
0
 91
0
280
0
281
0
  0
CLASS
  1
ACDBPLACEHOLDER
  2
AcDbPlaceHolder
  3
ObjectDBX Classes
 90
0
 91
0
280
0
281
0
  0
CLASS
  1
LAYOUT
  2
AcDbLayout
  3
ObjectDBX Classes
 90
0
 91
0
280
0
281
0
  0
ENDSEC
  0
SECTION
  2
TABLES
  0
TABLE
  2
VPORT
  5
8
330
0
100
AcDbSymbolTable
 70
1
  0
VPORT
  5
23
330
8
100
AcDbSymbolTableRecord
100
AcDbViewportTableRecord
  2
*Active
 70
0
 10
0.0
 20
0.0
 11
1.0
 21
1.0
 12
0.0
 22
0.0
 13
0.0
 23
0.0
 14
0.5
 24
0.5
 15
0.5
 25
0.5
 16
0.0
 26
0.0
 36
1.0
 17
0.0
 27
0.0
 37
0.0
 40
1000.0
 41
1.34
 42
50.0
 43
0.0
 44
0.0
 50
0.0
 51
0.0
 71
0
 72
1000
 73
1
 74
3
 75
0
 76
0
 77
0
 78
0
281
0
 65
0
146
0.0
  0
ENDTAB
  0
TABLE
  2
LTYPE
  5
2
330
0
100
AcDbSymbolTable
 70
3
  0
LTYPE
  5
24
330
2
100
AcDbSymbolTableRecord
100
AcDbLinetypeTableRecord
  2
ByBlock
 70
0
  3

 72
65
 73
0
 40
0.0
  0
LTYPE
  5
25
330
2
100
AcDbSymbolTableRecord
100
AcDbLinetypeTableRecord
  2
ByLayer
 70
0
  3

 72
65
 73
0
 40
0.0
  0
LTYPE
  5
26
330
2
100
AcDbSymbolTableRecord
100
AcDbLinetypeTableRecord
  2
Continuous
 70
0
  3

 72
65
 73
0
 40
0.0
  0
ENDTAB
  0
TABLE
  2
LAYER
  5
1
330
0
100
AcDbSymbolTable
 70
4
  0
LAYER
  5
27
330
1
100
AcDbSymbolTableRecord
100
AcDbLayerTableRecord
  2
0
 70
0
 62
7
  6
Continuous
370
-3
390
13
347
21
  0
LAYER
  5
28
330
1
100
AcDbSymbolTableRecord
100
AcDbLayerTableRecord
  2
Defpoints
 70
0
 62
7
  6
Continuous
290
0
370
-3
390
13
347
21
  0
LAYER
  5
1D3
330
1
100
AcDbSymbolTableRecord
100
AcDbLayerTableRecord
  2
CNC
 70
0
 62
7
  6
Continuous
370
-3
390
13
347
21
  0
LAYER
  5
1D4
330
1
100
AcDbSymbolTableRecord
100
AcDbLayerTableRecord
  2
DIM
 70
0
 62
253
  6
Continuous
370
-3
390
13
347
21
  0
ENDTAB
  0
TABLE
  2
STYLE
  5
5
330
0
100
AcDbSymbolTable
 70
3
  0
STYLE
  5
29
330
5
100
AcDbSymbolTableRecord
100
AcDbTextStyleTableRecord
  2
Standard
 70
0
 40
0.0
 41
1.0
 50
0.0
 71
0
 42
2.5
  3
txt
  4

  0
STYLE
  5
1D5
330
5
100
AcDbSymbolTableRecord
100
AcDbTextStyleTableRecord
  2
Tahoma (Input Text)
 70
0
 40
0.0
 41
1.0
 50
0.0
 71
0
 42
25.0
  3
tahoma.ttf
  4

  0
STYLE
  5
1D6
330
5
100
AcDbSymbolTableRecord
100
AcDbTextStyleTableRecord
  2
Arial
 70
0
 40
0.0
 41
1.0
 50
0.0
 71
0
 42
0.2
  3
arial.ttf
  4

  0
ENDTAB
  0
TABLE
  2
VIEW
  5
7
330
0
100
AcDbSymbolTable
 70
0
  0
ENDTAB
  0
TABLE
  2
UCS
  5
6
330
0
100
AcDbSymbolTable
 70
0
  0
ENDTAB
  0
TABLE
  2
APPID
  5
3
330
0
100
AcDbSymbolTable
 70
3
  0
APPID
  5
2A
330
3
100
AcDbSymbolTableRecord
100
AcDbRegAppTableRecord
  2
ACAD
 70
0
  0
APPID
  5
1D7
330
3
100
AcDbSymbolTableRecord
100
AcDbRegAppTableRecord
  2
HATCHBACKGROUNDCOLOR
 70
0
  0
APPID
  5
1D8
330
3
100
AcDbSymbolTableRecord
100
AcDbRegAppTableRecord
  2
EZDXF
 70
0
  0
ENDTAB
  0
TABLE
  2
DIMSTYLE
  5
4
330
0
100
AcDbSymbolTable
 70
2
100
AcDbDimStyleTable
  0
DIMSTYLE
105
2B
330
4
100
AcDbSymbolTableRecord
100
AcDbDimStyleTableRecord
  2
Standard
 70
0
 40
1.0
 41
2.5
 42
0.625
 43
3.75
 44
1.25
 45
0.0
 46
0.0
 47
0.0
 48
0.0
 49
2.5
140
2.5
141
2.5
142
0.0
143
0.03937007874
144
1.0
145
0.0
146
1.0
147
0.625
148
0.0
 69
0
 70
0
 71
0
 72
0
 73
0
 74
0
 75
0
 76
0
 77
1
 78
8
 79
3
170
0
171
3
172
1
173
0
174
0
175
0
176
0
177
0
178
0
179
2
271
2
272
2
273
2
274
3
275
0
276
0
277
2
278
44
279
0
280
0
281
0
282
0
283
0
284
8
285
0
286
0
288
0
289
3
290
0
371
-2
372
-2
  0
DIMSTYLE
105
1D2
330
4
100
AcDbSymbolTableRecord
100
AcDbDimStyleTableRecord
  2
Dim-25
 70
0
 40
1.0
 41
8.0
 42
15.0
 43
3.75
 44
10.0
 45
0.0
 46
0.0
 47
0.0
 48
0.0
 49
2.5
140
25.0
141
10.0
142
0.0
143
0.03937007874016
144
1.0
145
0.0
146
1.0
147
10.0
148
0.0
 69
0
 70
0
 71
0
 72
0
 73
0
 74
0
 75
0
 76
0
 77
1
 78
8
 79
3
170
0
171
3
172
1
173
0
174
0
175
0
176
5
177
5
178
3
179
2
271
0
272
0
273
2
274
3
275
0
276
0
277
2
278
44
279
0
280
0
281
0
282
0
283
0
284
8
285
0
286
0
288
0
289
3
290
0
340
29
341
45
342
45
345
25
346
25
347
25
371
9
372
9
  0
ENDTAB
  0
TABLE
  2
BLOCK_RECORD
  5
9
330
0
100
AcDbSymbolTable
 70
53
  0
BLOCK_RECORD
  5
17
330
9
100
AcDbSymbolTableRecord
100
AcDbBlockTableRecord
  2
*Model_Space
340
1A
 70
0
280
1
281
0
  0
BLOCK_RECORD
  5
1B
330
9
100
AcDbSymbolTableRecord
100
AcDbBlockTableRecord
  2
*Paper_Space
340
1E
 70
0
280
1
281
0
  0
BLOCK_RECORD
  5
45
330
9
100
AcDbSymbolTableRecord
100
AcDbBlockTableRecord
  2
_Oblique
340
0
 70
0
280
1
281
0
  0
BLOCK_RECORD
  5
1A3
330
9
100
AcDbSymbolTableRecord
100
AcDbBlockTableRecord
  2
khungtenAsean2
340
0
 70
0
280
1
281
0
  0
BLOCK_RECORD
  5
1C7
330
9
100
AcDbSymbolTableRecord
100
AcDbBlockTableRecord
  2
f3daunguoc
340
0
 70
0
280
1
281
0
  0
BLOCK_RECORD
  5
1CB
330
9
100
AcDbSymbolTableRecord
100
AcDbBlockTableRecord
  2
ovan8.5x20
340
0
 70
0
280
1
281
0
  0
BLOCK_RECORD
  5
22B
330
9
100
AcDbSymbolTableRecord
100
AcDbBlockTableRecord
  2
*D1
340
0
 70
0
280
1
281
0
  0
BLOCK_RECORD
  5
237
330
9
100
AcDbSymbolTableRecord
100
AcDbBlockTableRecord
  2
*D2
340
0
 70
0
280
1
281
0
  0
BLOCK_RECORD
  5
243
330
9
100
AcDbSymbolTableRecord
100
AcDbBlockTableRecord
  2
*D3
340
0
 70
0
280
1
281
0
  0
BLOCK_RECORD
  5
251
330
9
100
AcDbSymbolTableRecord
100
AcDbBlockTableRecord
  2
*D4
340
0
 70
0
280
1
281
0
  0
BLOCK_RECORD
  5
25D
330
9
100
AcDbSymbolTableRecord
100
AcDbBlockTableRecord
  2
*D5
340
0
 70
0
280
1
281
0
  0
BLOCK_RECORD
  5
269
330
9
100
AcDbSymbolTableRecord
100
AcDbBlockTableRecord
  2
*D6
340
0
 70
0
280
1
281
0
  0
BLOCK_RECORD
  5
277
330
9
100
AcDbSymbolTableRecord
100
AcDbBlockTableRecord
  2
*D7
340
0
 70
0
280
1
281
0
  0
BLOCK_RECORD
  5
283
330
9
100
AcDbSymbolTableRecord
100
AcDbBlockTableRecord
  2
*D8
340
0
 70
0
280
1
281
0
  0
BLOCK_RECORD
  5
28F
330
9
100
AcDbSymbolTableRecord
100
AcDbBlockTableRecord
  2
*D9
340
0
 70
0
280
1
281
0
  0
BLOCK_RECORD
  5
29B
330
9
100
AcDbSymbolTableRecord
100
AcDbBlockTableRecord
  2
*D10
340
0
 70
0
280
1
281
0
  0
BLOCK_RECORD
  5
2A9
330
9
100
AcDbSymbolTableRecord
100
AcDbBlockTableRecord
  2
*D11
340
0
 70
0
280
1
281
0
  0
BLOCK_RECORD
  5
2B5
330
9
100
AcDbSymbolTableRecord
100
AcDbBlockTableRecord
  2
*D12
340
0
 70
0
280
1
281
0
  0
BLOCK_RECORD
  5
2C1
330
9
100
AcDbSymbolTableRecord
100
AcDbBlockTableRecord
  2
*D13
340
0
 70
0
280
1
281
0
  0
BLOCK_RECORD
  5
2CF
330
9
100
AcDbSymbolTableRecord
100
AcDbBlockTableRecord
  2
*D14
340
0
 70
0
280
1
281
0
  0
BLOCK_RECORD
  5
2DB
330
9
100
AcDbSymbolTableRecord
100
AcDbBlockTableRecord
  2
*D15
340
0
 70
0
280
1
281
0
  0
BLOCK_RECORD
  5
2E7
330
9
100
AcDbSymbolTableRecord
100
AcDbBlockTableRecord
  2
*D16
340
0
 70
0
280
1
281
0
  0
BLOCK_RECORD
  5
2F5
330
9
100
AcDbSymbolTableRecord
100
AcDbBlockTableRecord
  2
*D17
340
0
 70
0
280
1
281
0
  0
BLOCK_RECORD
  5
301
330
9
100
AcDbSymbolTableRecord
100
AcDbBlockTableRecord
  2
*D18
340
0
 70
0
280
1
281
0
  0
BLOCK_RECORD
  5
30E
330
9
100
AcDbSymbolTableRecord
100
AcDbBlockTableRecord
  2
*D19
340
0
 70
0
280
1
281
0
  0
BLOCK_RECORD
  5
31A
330
9
100
AcDbSymbolTableRecord
100
AcDbBlockTableRecord
  2
*D20
340
0
 70
0
280
1
281
0
  0
BLOCK_RECORD
  5
326
330
9
100
AcDbSymbolTableRecord
100
AcDbBlockTableRecord
  2
*D21
340
0
 70
0
280
1
281
0
  0
BLOCK_RECORD
  5
332
330
9
100
AcDbSymbolTableRecord
100
AcDbBlockTableRecord
  2
*D22
340
0
 70
0
280
1
281
0
  0
BLOCK_RECORD
  5
33E
330
9
100
AcDbSymbolTableRecord
100
AcDbBlockTableRecord
  2
*D23
340
0
 70
0
280
1
281
0
  0
BLOCK_RECORD
  5
34A
330
9
100
AcDbSymbolTableRecord
100
AcDbBlockTableRecord
  2
*D24
340
0
 70
0
280
1
281
0
  0
BLOCK_RECORD
  5
356
330
9
100
AcDbSymbolTableRecord
100
AcDbBlockTableRecord
  2
*D25
340
0
 70
0
280
1
281
0
  0
BLOCK_RECORD
  5
362
330
9
100
AcDbSymbolTableRecord
100
AcDbBlockTableRecord
  2
*D26
340
0
 70
0
280
1
281
0
  0
BLOCK_RECORD
  5
36F
330
9
100
AcDbSymbolTableRecord
100
AcDbBlockTableRecord
  2
*D27
340
0
 70
0
280
1
281
0
  0
BLOCK_RECORD
  5
37C
330
9
100
AcDbSymbolTableRecord
100
AcDbBlockTableRecord
  2
*D28
340
0
 70
0
280
1
281
0
  0
BLOCK_RECORD
  5
388
330
9
100
AcDbSymbolTableRecord
100
AcDbBlockTableRecord
  2
*D29
340
0
 70
0
280
1
281
0
  0
BLOCK_RECORD
  5
394
330
9
100
AcDbSymbolTableRecord
100
AcDbBlockTableRecord
  2
*D30
340
0
 70
0
280
1
281
0
  0
BLOCK_RECORD
  5
3A1
330
9
100
AcDbSymbolTableRecord
100
AcDbBlockTableRecord
  2
*D31
340
0
 70
0
280
1
281
0
  0
BLOCK_RECORD
  5
3AD
330
9
100
AcDbSymbolTableRecord
100
AcDbBlockTableRecord
  2
*D32
340
0
 70
0
280
1
281
0
  0
BLOCK_RECORD
  5
3B9
330
9
100
AcDbSymbolTableRecord
100
AcDbBlockTableRecord
  2
*D33
340
0
 70
0
280
1
281
0
  0
BLOCK_RECORD
  5
3C5
330
9
100
AcDbSymbolTableRecord
100
AcDbBlockTableRecord
  2
*D34
340
0
 70
0
280
1
281
0
  0
BLOCK_RECORD
  5
3D3
330
9
100
AcDbSymbolTableRecord
100
AcDbBlockTableRecord
  2
*D35
340
0
 70
0
280
1
281
0
  0
BLOCK_RECORD
  5
3DF
330
9
100
AcDbSymbolTableRecord
100
AcDbBlockTableRecord
  2
*D36
340
0
 70
0
280
1
281
0
  0
BLOCK_RECORD
  5
3EB
330
9
100
AcDbSymbolTableRecord
100
AcDbBlockTableRecord
  2
*D37
340
0
 70
0
280
1
281
0
  0
BLOCK_RECORD
  5
3F7
330
9
100
AcDbSymbolTableRecord
100
AcDbBlockTableRecord
  2
*D38
340
0
 70
0
280
1
281
0
  0
BLOCK_RECORD
  5
403
330
9
100
AcDbSymbolTableRecord
100
AcDbBlockTableRecord
  2
*D39
340
0
 70
0
280
1
281
0
  0
BLOCK_RECORD
  5
411
330
9
100
AcDbSymbolTableRecord
100
AcDbBlockTableRecord
  2
*D40
340
0
 70
0
280
1
281
0
  0
BLOCK_RECORD
  5
41D
330
9
100
AcDbSymbolTableRecord
100
AcDbBlockTableRecord
  2
*D41
340
0
 70
0
280
1
281
0
  0
BLOCK_RECORD
  5
429
330
9
100
AcDbSymbolTableRecord
100
AcDbBlockTableRecord
  2
*D42
340
0
 70
0
280
1
281
0
  0
BLOCK_RECORD
  5
437
330
9
100
AcDbSymbolTableRecord
100
AcDbBlockTableRecord
  2
*D43
340
0
 70
0
280
1
281
0
  0
BLOCK_RECORD
  5
444
330
9
100
AcDbSymbolTableRecord
100
AcDbBlockTableRecord
  2
*D44
340
0
 70
0
280
1
281
0
  0
BLOCK_RECORD
  5
450
330
9
100
AcDbSymbolTableRecord
100
AcDbBlockTableRecord
  2
*D45
340
0
 70
0
280
1
281
0
  0
BLOCK_RECORD
  5
45C
330
9
100
AcDbSymbolTableRecord
100
AcDbBlockTableRecord
  2
*D46
340
0
 70
0
280
1
281
0
  0
BLOCK_RECORD
  5
468
330
9
100
AcDbSymbolTableRecord
100
AcDbBlockTableRecord
  2
*D47
340
0
 70
0
280
1
281
0
  0
ENDTAB
  0
ENDSEC
  0
SECTION
  2
BLOCKS
  0
BLOCK
  5
18
330
17
100
AcDbEntity
  8
0
100
AcDbBlockBegin
  2
*Model_Space
 70
0
 10
0.0
 20
0.0
 30
0.0
  3
*Model_Space
  1

  0
ENDBLK
  5
19
330
17
100
AcDbEntity
  8
0
100
AcDbBlockEnd
  0
BLOCK
  5
1C
330
1B
100
AcDbEntity
  8
0
100
AcDbBlockBegin
  2
*Paper_Space
 70
0
 10
0.0
 20
0.0
 30
0.0
  3
*Paper_Space
  1

  0
ENDBLK
  5
1D
330
1B
100
AcDbEntity
  8
0
100
AcDbBlockEnd
  0
BLOCK
  5
46
330
45
100
AcDbEntity
  8
0
100
AcDbBlockBegin
  2
_Oblique
 70
0
 10
0.0
 20
0.0
 30
0.0
  3
_Oblique
  1

  0
LINE
  5
48
330
45
100
AcDbEntity
  8
0
  6
ByBlock
 62
0
370
-2
100
AcDbLine
 10
-0.5
 20
-0.5
 30
0.0
 11
0.5
 21
0.5
 31
0.0
  0
ENDBLK
  5
47
330
45
100
AcDbEntity
  8
0
100
AcDbBlockEnd
  0
BLOCK
  5
1A4
330
1A3
100
AcDbEntity
  8
0
100
AcDbBlockBegin
  2
khungtenAsean2
 70
2
 10
0.0
 20
0.0
 30
0.0
  3
khungtenAsean2
  1

  0
LWPOLYLINE
  5
1A6
330
1A3
100
AcDbEntity
  8
0
 62
7
100
AcDbPolyline
 90
4
 70
1
 10
0.0
 20
0.0
 10
2970.000000000422
 20
0.0
 10
2970.000000000422
 20
-2100.00000000032
 10
0.0
 20
-2100.00000000032
  0
LINE
  5
1A7
330
1A3
100
AcDbEntity
  8
0
 62
7
100
AcDbLine
 10
2020.0
 20
-2040.00000000032
 30
0.0
 11
0.0
 21
-2040.00000000032
 31
0.0
  0
LINE
  5
1A8
330
1A3
100
AcDbEntity
  8
0
 62
7
100
AcDbLine
 10
2970.000000000422
 20
-1980.00000000032
 30
0.0
 11
0.0
 21
-1980.00000000032
 31
0.0
  0
LINE
  5
1A9
330
1A3
100
AcDbEntity
  8
0
 62
7
100
AcDbLine
 10
320.0
 20
-1980.00000000032
 30
0.0
 11
320.0
 21
-2100.00000000032
 31
0.0
  0
LINE
  5
1AA
330
1A3
100
AcDbEntity
  8
0
 62
7
100
AcDbLine
 10
890.0
 20
-1980.00000000032
 30
0.0
 11
890.0
 21
-2100.00000000032
 31
0.0
  0
LINE
  5
1AB
330
1A3
100
AcDbEntity
  8
0
 62
7
100
AcDbLine
 10
1680.0
 20
-1980.00000000032
 30
0.0
 11
1680.0
 21
-2100.00000000032
 31
0.0
  0
LINE
  5
1AC
330
1A3
100
AcDbEntity
  8
0
 62
7
100
AcDbLine
 10
2020.0
 20
-1980.00000000032
 30
0.0
 11
2020.0
 21
-2100.00000000032
 31
0.0
  0
LINE
  5
1AD
330
1A3
100
AcDbEntity
  8
0
 62
7
100
AcDbLine
 10
2860.000000000422
 20
-1980.00000000032
 30
0.0
 11
2860.000000000422
 21
-2100.00000000032
 31
0.0
  0
MTEXT
  5
1AE
330
1A3
100
AcDbEntity
  8
0
 62
2
100
AcDbMText
 10
0.0
 20
-2010.00000000032
 30
0.0
 40
20.0
 41
917.6339389950801
 46
60.00000000000113
 71
4
 72
5
  1
  Thiết kế :
  7
Arial
  0
MTEXT
  5
1AF
330
1A3
100
AcDbEntity
  8
0
 62
2
100
AcDbMText
 10
0.0
 20
-2070.00000000032
 30
0.0
 40
20.0
 41
917.6339389950801
 46
60.00000000000113
 71
4
 72
5
  1
  CNC :
  7
Arial
  0
MTEXT
  5
1B0
330
1A3
100
AcDbEntity
  8
0
 62
2
100
AcDbMText
 10
320.0
 20
-2010.00000000032
 30
0.0
 40
20.0
 41
917.6339389950801
 46
60.00000000000113
 71
4
 72
5
  1
  Khách hàng :
  7
Arial
  0
MTEXT
  5
1B1
330
1A3
100
AcDbEntity
  8
0
 62
2
100
AcDbMText
 10
320.0
 20
-2070.00000000032
 30
0.0
 40
20.0
 41
917.6339389950801
 46
60.00000000000113
 71
4
 72
5
  1
  Giao hàng :
  7
Arial
  0
MTEXT
  5
1B2
330
1A3
100
AcDbEntity
  8
0
 62
2
100
AcDbMText
 10
890.0
 20
-2010.00000000032
 30
0.0
 40
20.0
 41
917.6339389950801
 46
60.00000000000113
 71
4
 72
5
  1
  Tên sản phẩm :
  7
Arial
  0
MTEXT
  5
1B3
330
1A3
100
AcDbEntity
  8
0
 62
2
100
AcDbMText
 10
890.0
 20
-2070.00000000032
 30
0.0
 40
20.0
 41
917.6339389950801
 46
60.00000000000113
 71
4
 72
5
  1
  Kích thước :
  7
Arial
  0
MTEXT
  5
1B4
330
1A3
100
AcDbEntity
  8
0
 62
2
100
AcDbMText
 10
1680.0
 20
-2010.00000000032
 30
0.0
 40
20.0
 41
917.6339389950801
 46
60.00000000000113
 71
4
 72
5
  1
  Số lượng :
  7
Arial
  0
MTEXT
  5
1B5
330
1A3
100
AcDbEntity
  8
0
 62
2
100
AcDbMText
 10
1680.0
 20
-2070.00000000032
 30
0.0
 40
20.0
 41
917.6339389950801
 46
60.00000000000113
 71
4
 72
5
  1
  Loại tôn :
  7
Arial
  0
MTEXT
  5
1B6
330
1A3
100
AcDbEntity
  8
0
 62
2
100
AcDbMText
 10
2074.15528161102
 20
-2040.00000000032
 30
0.0
 40
20.0
 41
108.3105632220314
 46
120.0000000000011
 71
5
 72
5
  1
Thông\Ptin :
  7
Arial
  0
MTEXT
  5
1B7
330
1A3
100
AcDbEntity
  8
0
 62
2
100
AcDbMText
 10
2915.000000000422
 20
-2010.00000000032
 30
0.0
 40
20.0
 41
110.0000000000065
 46
60.00000000000113
 71
5
 72
5
  1
Tờ
  7
Arial
  0
LINE
  5
1B8
330
1A3
100
AcDbEntity
  8
0
 62
7
100
AcDbLine
 10
2128.310563222025
 20
-2005.00000000032
 30
0.0
 11
2128.310563222025
 21
-2075.00000000032
 31
0.0
  0
MTEXT
  5
1B9
330
1A3
100
AcDbEntity
  8
0
 62
2
100
AcDbMText
 10
1382.285678836575
 20
-2070.00000000032
 30
0.0
 40
20.0
 41
917.6339389950801
 46
60.00000000000113
 71
4
 72
5
  1
mm
  7
Arial
  0
MTEXT
  5
1BA
330
1A3
100
AcDbEntity
  8
0
 62
2
100
AcDbMText
 10
1947.610064813329
 20
-2010.00000000032
 30
0.0
 40
20.0
 41
917.6339389950801
 46
60.00000000000113
 71
4
 72
5
  1
cái
  7
Arial
  0
MTEXT
  5
1BB
330
1A3
100
AcDbEntity
  8
0
 62
2
100
AcDbMText
 10
1936.880410494836
 20
-2070.00000000032
 30
0.0
 40
20.0
 41
917.6339389950801
 46
60.00000000000113
 71
4
 72
5
  1
mm
  7
Arial
  0
ATTDEF
  5
1BC
330
1A3
100
AcDbEntity
  8
0
 62
1
100
AcDbText
 10
2883.764212945627
 20
-2067.347800104843
 30
0.0
 40
25.0
  1
......
  7
Tahoma (Input Text)
 72
1
 11
2914.993225705868
 21
-2067.347800104843
 31
0.0
100
AcDbAttributeDefinition
  3
Số trang
  2
#11
 70
8
 71
1
 72
0
 11
2914.993225705868
 21
-2067.347800104843
 31
0.0
  0
ATTDEF
  5
1BD
330
1A3
100
AcDbEntity
  8
0
 62
1
100
AcDbText
 10
2146.716977487464
 20
-2021.275211692002
 30
0.0
 40
25.0
  1
......
  7
Tahoma (Input Text)
100
AcDbAttributeDefinition
  3
Thông tin 1
  2
#09
 70
8
 71
1
 72
0
  0
ATTDEF
  5
1BE
330
1A3
100
AcDbEntity
  8
0
 62
1
100
AcDbText
 10
2146.716977487464
 20
-2081.275211692002
 30
0.0
 40
25.0
  1
......
  7
Tahoma (Input Text)
100
AcDbAttributeDefinition
  3
Thông tin 2
  2
#10
 70
8
 71
1
 72
0
  0
ATTDEF
  5
1BF
330
1A3
100
AcDbEntity
  8
0
 62
1
100
AcDbText
 10
1817.447765733334
 20
-2081.275211692002
 30
0.0
 40
25.0
  1
......
  7
Tahoma (Input Text)
100
AcDbAttributeDefinition
  3
Loại tôn
  2
#08
 70
8
 71
1
 72
0
  0
ATTDEF
  5
1C0
330
1A3
100
AcDbEntity
  8
0
 62
1
100
AcDbText
 10
1834.68151032555
 20
-2021.275211692002
 30
0.0
 40
25.0
  1
......
  7
Tahoma (Input Text)
100
AcDbAttributeDefinition
  3
Số lượng
  2
#07
 70
8
 71
1
 72
0
  0
ATTDEF
  5
1C1
330
1A3
100
AcDbEntity
  8
0
 62
1
100
AcDbText
 10
1065.330889143646
 20
-2081.275211692002
 30
0.0
 40
25.0
  1
......
  7
Tahoma (Input Text)
100
AcDbAttributeDefinition
  3
Kích thước
  2
#06
 70
8
 71
1
 72
0
  0
ATTDEF
  5
1C2
330
1A3
100
AcDbEntity
  8
0
 62
1
100
AcDbText
 10
1106.628177122154
 20
-2021.275211692002
 30
0.0
 40
25.0
  1
......
  7
Tahoma (Input Text)
100
AcDbAttributeDefinition
  3
Tên s.phẩm
  2
#05
 70
8
 71
1
 72
0
  0
ATTDEF
  5
1C3
330
1A3
100
AcDbEntity
  8
0
 62
1
100
AcDbText
 10
486.1050270054984
 20
-2081.275211692002
 30
0.0
 40
25.0
  1
......
  7
Tahoma (Input Text)
100
AcDbAttributeDefinition
  3
Giao hàng
  2
#04
 70
8
 71
1
 72
0
  0
ATTDEF
  5
1C4
330
1A3
100
AcDbEntity
  8
0
 62
1
100
AcDbText
 10
506.5707489467022
 20
-2019.301600489707
 30
0.0
 40
25.0
  1
......
  7
Tahoma (Input Text)
100
AcDbAttributeDefinition
  3
Khách hàng
  2
#03
 70
8
 71
1
 72
0
  0
ATTDEF
  5
1C5
330
1A3
100
AcDbEntity
  8
0
 62
1
100
AcDbText
 10
98.45672450316488
 20
-2081.275211692002
 30
0.0
 40
25.0
  1
......
  7
Tahoma (Input Text)
100
AcDbAttributeDefinition
  3
CNC
  2
#02
 70
8
 71
1
 72
0
  0
ATTDEF
  5
1C6
330
1A3
100
AcDbEntity
  8
0
 62
1
100
AcDbText
 10
137.0535078375105
 20
-2021.275211692002
 30
0.0
 40
25.0
  1
......
  7
Tahoma (Input Text)
100
AcDbAttributeDefinition
  3
Thiết kế
  2
#01
 70
8
 71
1
 72
0
  0
ENDBLK
  5
1A5
330
1A3
100
AcDbEntity
  8
0
100
AcDbBlockEnd
  0
BLOCK
  5
1C8
330
1C7
100
AcDbEntity
  8
0
100
AcDbBlockBegin
  2
f3daunguoc
 70
0
 10
0.0
 20
0.0
 30
0.0
  3
f3daunguoc
  1

  0
CIRCLE
  5
1CA
330
1C7
100
AcDbEntity
  8
CNC
 62
2
370
-3
100
AcDbCircle
 10
0.0
 20
0.0
 30
0.0
 40
1.5
  0
ENDBLK
  5
1C9
330
1C7
100
AcDbEntity
  8
0
100
AcDbBlockEnd
  0
BLOCK
  5
1CC
330
1CB
100
AcDbEntity
  8
0
100
AcDbBlockBegin
  2
ovan8.5x20
 70
0
 10
0.0
 20
0.0
 30
0.0
  3
ovan8.5x20
  1

  0
ARC
  5
1CE
330
1CB
100
AcDbEntity
  8
CNC
 62
2
370
-3
100
AcDbCircle
 10
-5.750000000007275
 20
0.0
 30
0.0
 40
4.25
100
AcDbArc
 50
90.0
 51
270.0
  0
ARC
  5
1CF
330
1CB
100
AcDbEntity
  8
CNC
 62
2
370
-3
100
AcDbCircle
 10
5.749999999992724
 20
0.0
 30
0.0
 40
4.25
100
AcDbArc
 50
270.0
 51
90.0
  0
LINE
  5
1D0
330
1CB
100
AcDbEntity
  8
CNC
 62
2
370
-3
100
AcDbLine
 10
5.749999999992724
 20
4.25
 30
0.0
 11
-5.750000000007275
 21
4.25
 31
0.0
  0
LINE
  5
1D1
330
1CB
100
AcDbEntity
  8
CNC
 62
2
370
-3
100
AcDbLine
 10
-5.750000000007275
 20
-4.25
 30
0.0
 11
5.749999999992724
 21
-4.25
 31
0.0
  0
ENDBLK
  5
1CD
330
1CB
100
AcDbEntity
  8
0
100
AcDbBlockEnd
  0
BLOCK
  5
22C
330
22B
100
AcDbEntity
  8
0
100
AcDbBlockBegin
  2
*D1
 70
1
 10
0.0
 20
0.0
 30
0.0
  3
*D1
  1

  0
LINE
  5
22E
330
22B
100
AcDbEntity
  8
DIM
 62
5
370
9
440
16777216
100
AcDbLine
 10
381.6501066727069
 20
2794.5580684195447
 30
0.0
 11
381.6501066727069
 21
2856.9722210555046
 31
0.0
  0
LINE
  5
22F
330
22B
100
AcDbEntity
  8
DIM
 62
5
370
9
440
16777216
100
AcDbLine
 10
751.6501066727069
 20
2794.5580684195447
 30
0.0
 11
751.6501066727069
 21
2856.9722210555046
 31
0.0
  0
LINE
  5
230
330
22B
100
AcDbEntity
  8
DIM
 62
5
370
9
440
16777216
100
AcDbLine
 10
381.6501066727069
 20
2846.9722210555046
 30
0.0
 11
751.6501066727069
 21
2846.9722210555046
 31
0.0
  0
LINE
  5
231
330
22B
100
AcDbEntity
  8
0
  6
ByBlock
 62
0
370
-2
100
AcDbLine
 10
385.6501066727069
 20
2850.9722210555046
 30
0.0
 11
377.6501066727069
 21
2842.9722210555046
 31
0.0
  0
LINE
  5
232
330
22B
100
AcDbEntity
  8
0
  6
ByBlock
 62
0
370
-2
100
AcDbLine
 10
747.6501066727069
 20
2842.9722210555046
 30
0.0
 11
755.6501066727069
 21
2850.9722210555046
 31
0.0
  0
MTEXT
  5
233
330
22B
100
AcDbEntity
  8
DIM
 62
3
440
16777216
100
AcDbMText
 10
616.6501066727069
 20
2869.7450723515503
 30
0.0
 40
25.0
 41
0.0
 46
0.0
 71
5
  1
370
  0
POINT
  5
234
330
22B
100
AcDbEntity
  8
Defpoints
 62
0
440
16777216
100
AcDbPoint
 10
381.6501066727069
 20
2779.5580684195593
 30
0.0
  0
POINT
  5
235
330
22B
100
AcDbEntity
  8
Defpoints
 62
0
440
16777216
100
AcDbPoint
 10
751.6501066727069
 20
2779.5580684195593
 30
0.0
  0
POINT
  5
236
330
22B
100
AcDbEntity
  8
Defpoints
 62
0
440
16777216
100
AcDbPoint
 10
751.6501066727069
 20
2846.9722210555046
 30
0.0
  0
ENDBLK
  5
22D
330
22B
100
AcDbEntity
  8
0
100
AcDbBlockEnd
  0
BLOCK
  5
238
330
237
100
AcDbEntity
  8
0
100
AcDbBlockBegin
  2
*D2
 70
1
 10
0.0
 20
0.0
 30
0.0
  3
*D2
  1

  0
LINE
  5
23A
330
237
100
AcDbEntity
  8
DIM
 62
5
370
9
440
16777216
100
AcDbLine
 10
751.6501066727069
 20
2794.5580684195447
 30
0.0
 11
751.6501066727069
 21
2856.9722210555046
 31
0.0
  0
LINE
  5
23B
330
237
100
AcDbEntity
  8
DIM
 62
5
370
9
440
16777216
100
AcDbLine
 10
791.6501066727069
 20
2754.5580684195447
 30
0.0
 11
791.6501066727069
 21
2856.9722210555046
 31
0.0
  0
LINE
  5
23C
330
237
100
AcDbEntity
  8
DIM
 62
5
370
9
440
16777216
100
AcDbLine
 10
751.6501066727069
 20
2846.9722210555046
 30
0.0
 11
791.6501066727069
 21
2846.9722210555046
 31
0.0
  0
LINE
  5
23D
330
237
100
AcDbEntity
  8
0
  6
ByBlock
 62
0
370
-2
100
AcDbLine
 10
755.6501066727069
 20
2850.9722210555046
 30
0.0
 11
747.6501066727069
 21
2842.9722210555046
 31
0.0
  0
LINE
  5
23E
330
237
100
AcDbEntity
  8
0
  6
ByBlock
 62
0
370
-2
100
AcDbLine
 10
787.6501066727069
 20
2842.9722210555046
 30
0.0
 11
795.6501066727069
 21
2850.9722210555046
 31
0.0
  0
MTEXT
  5
23F
330
237
100
AcDbEntity
  8
DIM
 62
3
440
16777216
100
AcDbMText
 10
771.6501066727069
 20
2869.736545748543
 30
0.0
 40
25.0
 41
0.0
 46
0.0
 71
5
  1
40
  0
POINT
  5
240
330
237
100
AcDbEntity
  8
Defpoints
 62
0
440
16777216
100
AcDbPoint
 10
751.6501066727069
 20
2779.5580684195593
 30
0.0
  0
POINT
  5
241
330
237
100
AcDbEntity
  8
Defpoints
 62
0
440
16777216
100
AcDbPoint
 10
791.6501066727069
 20
2739.5580684195447
 30
0.0
  0
POINT
  5
242
330
237
100
AcDbEntity
  8
Defpoints
 62
0
440
16777216
100
AcDbPoint
 10
791.6501066727069
 20
2846.9722210555046
 30
0.0
  0
ENDBLK
  5
239
330
237
100
AcDbEntity
  8
0
100
AcDbBlockEnd
  0
BLOCK
  5
244
330
243
100
AcDbEntity
  8
0
100
AcDbBlockBegin
  2
*D3
 70
1
 10
0.0
 20
0.0
 30
0.0
  3
*D3
  1

  0
LINE
  5
246
330
243
100
AcDbEntity
  8
DIM
 62
5
370
9
440
16777216
100
AcDbLine
 10
791.6501066727069
 20
2754.5580684195447
 30
0.0
 11
791.6501066727069
 21
2856.9722210555046
 31
0.0
  0
LINE
  5
247
330
243
100
AcDbEntity
  8
DIM
 62
5
370
9
440
16777216
100
AcDbLine
 10
803.6501066727069
 20
2754.5580684195447
 30
0.0
 11
803.6501066727069
 21
2856.9722210555046
 31
0.0
  0
LINE
  5
248
330
243
100
AcDbEntity
  8
DIM
 62
5
370
9
440
16777216
100
AcDbLine
 10
791.6501066727069
 20
2846.9722210555046
 30
0.0
 11
783.6501066727069
 21
2846.9722210555046
 31
0.0
  0
LINE
  5
249
330
243
100
AcDbEntity
  8
DIM
 62
5
370
9
440
16777216
100
AcDbLine
 10
803.6501066727069
 20
2846.9722210555046
 30
0.0
 11
872.8526987600053
 21
2846.9722210555046
 31
0.0
  0
LINE
  5
24A
330
243
100
AcDbEntity
  8
DIM
 62
5
370
9
440
16777216
100
AcDbLine
 10
791.6501066727069
 20
2846.9722210555046
 30
0.0
 11
803.6501066727069
 21
2846.9722210555046
 31
0.0
  0
LINE
  5
24B
330
243
100
AcDbEntity
  8
0
  6
ByBlock
 62
0
370
-2
100
AcDbLine
 10
787.6501066727069
 20
2842.9722210555046
 30
0.0
 11
795.6501066727069
 21
2850.9722210555046
 31
0.0
  0
LINE
  5
24C
330
243
100
AcDbEntity
  8
0
  6
ByBlock
 62
0
370
-2
100
AcDbLine
 10
807.6501066727069
 20
2850.9722210555046
 30
0.0
 11
799.6501066727069
 21
2842.9722210555046
 31
0.0
  0
MTEXT
  5
24D
330
243
100
AcDbEntity
  8
DIM
 62
3
440
16777216
100
AcDbMText
 10
846.2514027163998
 20
2869.5233806735196
 30
0.0
 40
25.0
 41
0.0
 46
0.0
 71
5
  1
12
  0
POINT
  5
24E
330
243
100
AcDbEntity
  8
Defpoints
 62
0
440
16777216
100
AcDbPoint
 10
791.6501066727069
 20
2739.5580684195447
 30
0.0
  0
POINT
  5
24F
330
243
100
AcDbEntity
  8
Defpoints
 62
0
440
16777216
100
AcDbPoint
 10
803.6501066727069
 20
2739.5580684195447
 30
0.0
  0
POINT
  5
250
330
243
100
AcDbEntity
  8
Defpoints
 62
0
440
16777216
100
AcDbPoint
 10
803.6501066727069
 20
2846.9722210555046
 30
0.0
  0
ENDBLK
  5
245
330
243
100
AcDbEntity
  8
0
100
AcDbBlockEnd
  0
BLOCK
  5
252
330
251
100
AcDbEntity
  8
0
100
AcDbBlockBegin
  2
*D4
 70
1
 10
0.0
 20
0.0
 30
0.0
  3
*D4
  1

  0
LINE
  5
254
330
251
100
AcDbEntity
  8
DIM
 62
5
370
9
440
16777216
100
AcDbLine
 10
336.6501066727069
 20
1367.5580684195447
 30
0.0
 11
336.6501066727069
 21
1306.3319493597664
 31
0.0
  0
LINE
  5
255
330
251
100
AcDbEntity
  8
DIM
 62
5
370
9
440
16777216
100
AcDbLine
 10
803.6501066727069
 20
1407.5580684195593
 30
0.0
 11
803.6501066727069
 21
1306.3319493597664
 31
0.0
  0
LINE
  5
256
330
251
100
AcDbEntity
  8
DIM
 62
5
370
9
440
16777216
100
AcDbLine
 10
336.6501066727069
 20
1316.331949359781
 30
0.0
 11
803.6501066727069
 21
1316.331949359781
 31
0.0
  0
LINE
  5
257
330
251
100
AcDbEntity
  8
0
  6
ByBlock
 62
0
370
-2
100
AcDbLine
 10
340.6501066727069
 20
1320.331949359781
 30
0.0
 11
332.6501066727069
 21
1312.331949359781
 31
0.0
  0
LINE
  5
258
330
251
100
AcDbEntity
  8
0
  6
ByBlock
 62
0
370
-2
100
AcDbLine
 10
799.6501066727069
 20
1312.331949359781
 30
0.0
 11
807.6501066727069
 21
1320.331949359781
 31
0.0
  0
MTEXT
  5
259
330
251
100
AcDbEntity
  8
DIM
 62
3
440
16777216
100
AcDbMText
 10
570.1501066727069
 20
1339.0962740528048
 30
0.0
 40
25.0
 41
0.0
 46
0.0
 71
5
  1
467
  0
POINT
  5
25A
330
251
100
AcDbEntity
  8
Defpoints
 62
0
440
16777216
100
AcDbPoint
 10
336.6501066727069
 20
1382.5580684195447
 30
0.0
  0
POINT
  5
25B
330
251
100
AcDbEntity
  8
Defpoints
 62
0
440
16777216
100
AcDbPoint
 10
803.6501066727069
 20
1422.5580684195447
 30
0.0
  0
POINT
  5
25C
330
251
100
AcDbEntity
  8
Defpoints
 62
0
440
16777216
100
AcDbPoint
 10
803.6501066727069
 20
1316.331949359781
 30
0.0
  0
ENDBLK
  5
253
330
251
100
AcDbEntity
  8
0
100
AcDbBlockEnd
  0
BLOCK
  5
25E
330
25D
100
AcDbEntity
  8
0
100
AcDbBlockBegin
  2
*D5
 70
1
 10
0.0
 20
0.0
 30
0.0
  3
*D5
  1

  0
LINE
  5
260
330
25D
100
AcDbEntity
  8
DIM
 62
5
370
9
440
16777216
100
AcDbLine
 10
381.6501066727069
 20
2794.5580684195447
 30
0.0
 11
381.6501066727069
 21
2856.9722210555046
 31
0.0
  0
LINE
  5
261
330
25D
100
AcDbEntity
  8
DIM
 62
5
370
9
440
16777216
100
AcDbLine
 10
346.6501066727069
 20
2794.5580684195447
 30
0.0
 11
346.6501066727069
 21
2856.9722210555046
 31
0.0
  0
LINE
  5
262
330
25D
100
AcDbEntity
  8
DIM
 62
5
370
9
440
16777216
100
AcDbLine
 10
381.6501066727069
 20
2846.9722210555046
 30
0.0
 11
346.6501066727069
 21
2846.9722210555046
 31
0.0
  0
LINE
  5
263
330
25D
100
AcDbEntity
  8
0
  6
ByBlock
 62
0
370
-2
100
AcDbLine
 10
377.6501066727069
 20
2842.9722210555046
 30
0.0
 11
385.6501066727069
 21
2850.9722210555046
 31
0.0
  0
LINE
  5
264
330
25D
100
AcDbEntity
  8
0
  6
ByBlock
 62
0
370
-2
100
AcDbLine
 10
350.6501066727069
 20
2850.9722210555046
 30
0.0
 11
342.6501066727069
 21
2842.9722210555046
 31
0.0
  0
MTEXT
  5
265
330
25D
100
AcDbEntity
  8
DIM
 62
3
440
16777216
100
AcDbMText
 10
364.1501066727069
 20
2869.7450723515503
 30
0.0
 40
25.0
 41
0.0
 46
0.0
 71
5
  1
35
  0
POINT
  5
266
330
25D
100
AcDbEntity
  8
Defpoints
 62
0
440
16777216
100
AcDbPoint
 10
381.6501066727069
 20
2779.5580684195593
 30
0.0
  0
POINT
  5
267
330
25D
100
AcDbEntity
  8
Defpoints
 62
0
440
16777216
100
AcDbPoint
 10
346.6501066727069
 20
2779.5580684195593
 30
0.0
  0
POINT
  5
268
330
25D
100
AcDbEntity
  8
Defpoints
 62
0
440
16777216
100
AcDbPoint
 10
346.6501066727069
 20
2846.9722210555046
 30
0.0
  0
ENDBLK
  5
25F
330
25D
100
AcDbEntity
  8
0
100
AcDbBlockEnd
  0
BLOCK
  5
26A
330
269
100
AcDbEntity
  8
0
100
AcDbBlockBegin
  2
*D6
 70
1
 10
0.0
 20
0.0
 30
0.0
  3
*D6
  1

  0
LINE
  5
26C
330
269
100
AcDbEntity
  8
DIM
 62
5
370
9
440
16777216
100
AcDbLine
 10
346.6501066727069
 20
2794.5580684195447
 30
0.0
 11
346.6501066727069
 21
2856.9722210555046
 31
0.0
  0
LINE
  5
26D
330
269
100
AcDbEntity
  8
DIM
 62
5
370
9
440
16777216
100
AcDbLine
 10
336.6501066727069
 20
2794.5580684195447
 30
0.0
 11
336.6501066727069
 21
2856.9722210555046
 31
0.0
  0
LINE
  5
26E
330
269
100
AcDbEntity
  8
DIM
 62
5
370
9
440
16777216
100
AcDbLine
 10
346.6501066727069
 20
2846.9722210555046
 30
0.0
 11
354.6501066727069
 21
2846.9722210555046
 31
0.0
  0
LINE
  5
26F
330
269
100
AcDbEntity
  8
DIM
 62
5
370
9
440
16777216
100
AcDbLine
 10
336.6501066727069
 20
2846.9722210555046
 30
0.0
 11
267.2769825254072
 21
2846.9722210555046
 31
0.0
  0
LINE
  5
270
330
269
100
AcDbEntity
  8
DIM
 62
5
370
9
440
16777216
100
AcDbLine
 10
346.6501066727069
 20
2846.9722210555046
 30
0.0
 11
336.6501066727069
 21
2846.9722210555046
 31
0.0
  0
LINE
  5
271
330
269
100
AcDbEntity
  8
0
  6
ByBlock
 62
0
370
-2
100
AcDbLine
 10
350.6501066727069
 20
2850.9722210555046
 30
0.0
 11
342.6501066727069
 21
2842.9722210555046
 31
0.0
  0
LINE
  5
272
330
269
100
AcDbEntity
  8
0
  6
ByBlock
 62
0
370
-2
100
AcDbLine
 10
332.6501066727069
 20
2842.9722210555046
 30
0.0
 11
340.6501066727069
 21
2850.9722210555046
 31
0.0
  0
MTEXT
  5
273
330
269
100
AcDbEntity
  8
DIM
 62
3
440
16777216
100
AcDbMText
 10
293.96354459899885
 20
2869.736545748543
 30
0.0
 40
25.0
 41
0.0
 46
0.0
 71
5
  1
10
  0
POINT
  5
274
330
269
100
AcDbEntity
  8
Defpoints
 62
0
440
16777216
100
AcDbPoint
 10
346.6501066727069
 20
2779.5580684195593
 30
0.0
  0
POINT
  5
275
330
269
100
AcDbEntity
  8
Defpoints
 62
0
440
16777216
100
AcDbPoint
 10
336.6501066727069
 20
2779.5580684195593
 30
0.0
  0
POINT
  5
276
330
269
100
AcDbEntity
  8
Defpoints
 62
0
440
16777216
100
AcDbPoint
 10
336.6501066727069
 20
2846.9722210555046
 30
0.0
  0
ENDBLK
  5
26B
330
269
100
AcDbEntity
  8
0
100
AcDbBlockEnd
  0
BLOCK
  5
278
330
277
100
AcDbEntity
  8
0
100
AcDbBlockBegin
  2
*D7
 70
1
 10
0.0
 20
0.0
 30
0.0
  3
*D7
  1

  0
LINE
  5
27A
330
277
100
AcDbEntity
  8
DIM
 62
5
370
9
 48
3.0
440
16777216
100
AcDbLine
 10
321.6501066727069
 20
2779.5580684195593
 30
0.0
 11
256.02399904660706
 21
2779.5580684195593
 31
0.0
  0
LINE
  5
27B
330
277
100
AcDbEntity
  8
DIM
 62
5
370
9
 48
3.0
440
16777216
100
AcDbLine
 10
321.6501066727069
 20
1382.5580684195447
 30
0.0
 11
256.02399904660706
 21
1382.5580684195447
 31
0.0
  0
LINE
  5
27C
330
277
100
AcDbEntity
  8
DIM
 62
5
370
9
 48
3.0
440
16777216
100
AcDbLine
 10
266.02399904660706
 20
2779.5580684195593
 30
0.0
 11
266.02399904660706
 21
1382.5580684195447
 31
0.0
  0
LINE
  5
27D
330
277
100
AcDbEntity
  8
0
  6
ByBlock
 62
0
370
-2
100
AcDbLine
 10
270.02399904660706
 20
2775.5580684195593
 30
0.0
 11
262.02399904660706
 21
2783.5580684195593
 31
0.0
  0
LINE
  5
27E
330
277
100
AcDbEntity
  8
0
  6
ByBlock
 62
0
370
-2
100
AcDbLine
 10
262.02399904660706
 20
1386.5580684195447
 30
0.0
 11
270.02399904660706
 21
1378.5580684195447
 31
0.0
  0
MTEXT
  5
27F
330
277
100
AcDbEntity
  8
DIM
 62
3
 48
3.0
440
16777216
100
AcDbMText
 10
243.251147750605
 20
2081.0580684195884
 30
0.0
 40
25.0
 41
0.0
 46
0.0
 71
5
  1
1397
 11
1e-16
 21
1.0
 31
0.0
  0
POINT
  5
280
330
277
100
AcDbEntity
  8
Defpoints
 62
0
 48
3.0
440
16777216
100
AcDbPoint
 10
336.6501066727069
 20
2779.5580684195593
 30
0.0
  0
POINT
  5
281
330
277
100
AcDbEntity
  8
Defpoints
 62
0
 48
3.0
440
16777216
100
AcDbPoint
 10
336.6501066727069
 20
1382.5580684195447
 30
0.0
  0
POINT
  5
282
330
277
100
AcDbEntity
  8
Defpoints
 62
0
 48
3.0
440
16777216
100
AcDbPoint
 10
266.02399904660706
 20
1382.5580684195447
 30
0.0
  0
ENDBLK
  5
279
330
277
100
AcDbEntity
  8
0
100
AcDbBlockEnd
  0
BLOCK
  5
284
330
283
100
AcDbEntity
  8
0
100
AcDbBlockBegin
  2
*D8
 70
1
 10
0.0
 20
0.0
 30
0.0
  3
*D8
  1

  0
LINE
  5
286
330
283
100
AcDbEntity
  8
DIM
 62
5
370
9
440
16777216
100
AcDbLine
 10
2183.2528384362085
 20
2794.5580684195447
 30
0.0
 11
2183.2528384362085
 21
2856.9722210555046
 31
0.0
  0
LINE
  5
287
330
283
100
AcDbEntity
  8
DIM
 62
5
370
9
440
16777216
100
AcDbLine
 10
1813.2528384362085
 20
2794.5580684195447
 30
0.0
 11
1813.2528384362085
 21
2856.9722210555046
 31
0.0
  0
LINE
  5
288
330
283
100
AcDbEntity
  8
DIM
 62
5
370
9
440
16777216
100
AcDbLine
 10
2183.2528384362085
 20
2846.9722210555046
 30
0.0
 11
1813.2528384362085
 21
2846.9722210555046
 31
0.0
  0
LINE
  5
289
330
283
100
AcDbEntity
  8
0
  6
ByBlock
 62
0
370
-2
100
AcDbLine
 10
2179.2528384362085
 20
2842.9722210555046
 30
0.0
 11
2187.2528384362085
 21
2850.9722210555046
 31
0.0
  0
LINE
  5
28A
330
283
100
AcDbEntity
  8
0
  6
ByBlock
 62
0
370
-2
100
AcDbLine
 10
1817.2528384362085
 20
2850.9722210555046
 30
0.0
 11
1809.2528384362085
 21
2842.9722210555046
 31
0.0
  0
MTEXT
  5
28B
330
283
100
AcDbEntity
  8
DIM
 62
3
440
16777216
100
AcDbMText
 10
1948.2528384362085
 20
2869.7450723515503
 30
0.0
 40
25.0
 41
0.0
 46
0.0
 71
5
  1
370
  0
POINT
  5
28C
330
283
100
AcDbEntity
  8
Defpoints
 62
0
440
16777216
100
AcDbPoint
 10
2183.2528384362085
 20
2779.5580684195593
 30
0.0
  0
POINT
  5
28D
330
283
100
AcDbEntity
  8
Defpoints
 62
0
440
16777216
100
AcDbPoint
 10
1813.2528384362085
 20
2779.5580684195593
 30
0.0
  0
POINT
  5
28E
330
283
100
AcDbEntity
  8
Defpoints
 62
0
440
16777216
100
AcDbPoint
 10
1813.2528384362085
 20
2846.9722210555046
 30
0.0
  0
ENDBLK
  5
285
330
283
100
AcDbEntity
  8
0
100
AcDbBlockEnd
  0
BLOCK
  5
290
330
28F
100
AcDbEntity
  8
0
100
AcDbBlockBegin
  2
*D9
 70
1
 10
0.0
 20
0.0
 30
0.0
  3
*D9
  1

  0
LINE
  5
292
330
28F
100
AcDbEntity
  8
DIM
 62
5
370
9
440
16777216
100
AcDbLine
 10
1813.2528384362085
 20
2794.5580684195447
 30
0.0
 11
1813.2528384362085
 21
2856.9722210555046
 31
0.0
  0
LINE
  5
293
330
28F
100
AcDbEntity
  8
DIM
 62
5
370
9
440
16777216
100
AcDbLine
 10
1773.2528384362085
 20
2754.5580684195447
 30
0.0
 11
1773.2528384362085
 21
2856.9722210555046
 31
0.0
  0
LINE
  5
294
330
28F
100
AcDbEntity
  8
DIM
 62
5
370
9
440
16777216
100
AcDbLine
 10
1813.2528384362085
 20
2846.9722210555046
 30
0.0
 11
1773.2528384362085
 21
2846.9722210555046
 31
0.0
  0
LINE
  5
295
330
28F
100
AcDbEntity
  8
0
  6
ByBlock
 62
0
370
-2
100
AcDbLine
 10
1809.2528384362085
 20
2842.9722210555046
 30
0.0
 11
1817.2528384362085
 21
2850.9722210555046
 31
0.0
  0
LINE
  5
296
330
28F
100
AcDbEntity
  8
0
  6
ByBlock
 62
0
370
-2
100
AcDbLine
 10
1777.2528384362085
 20
2850.9722210555046
 30
0.0
 11
1769.2528384362085
 21
2842.9722210555046
 31
0.0
  0
MTEXT
  5
297
330
28F
100
AcDbEntity
  8
DIM
 62
3
440
16777216
100
AcDbMText
 10
1793.2528384362085
 20
2869.736545748543
 30
0.0
 40
25.0
 41
0.0
 46
0.0
 71
5
  1
40
  0
POINT
  5
298
330
28F
100
AcDbEntity
  8
Defpoints
 62
0
440
16777216
100
AcDbPoint
 10
1813.2528384362085
 20
2779.5580684195593
 30
0.0
  0
POINT
  5
299
330
28F
100
AcDbEntity
  8
Defpoints
 62
0
440
16777216
100
AcDbPoint
 10
1773.2528384362085
 20
2739.5580684195447
 30
0.0
  0
POINT
  5
29A
330
28F
100
AcDbEntity
  8
Defpoints
 62
0
440
16777216
100
AcDbPoint
 10
1773.2528384362085
 20
2846.9722210555046
 30
0.0
  0
ENDBLK
  5
291
330
28F
100
AcDbEntity
  8
0
100
AcDbBlockEnd
  0
BLOCK
  5
29C
330
29B
100
AcDbEntity
  8
0
100
AcDbBlockBegin
  2
*D10
 70
1
 10
0.0
 20
0.0
 30
0.0
  3
*D10
  1

  0
LINE
  5
29E
330
29B
100
AcDbEntity
  8
DIM
 62
5
370
9
440
16777216
100
AcDbLine
 10
1773.2528384362085
 20
2754.5580684195447
 30
0.0
 11
1773.2528384362085
 21
2856.9722210555046
 31
0.0
  0
LINE
  5
29F
330
29B
100
AcDbEntity
  8
DIM
 62
5
370
9
440
16777216
100
AcDbLine
 10
1761.2528384362085
 20
2754.5580684195447
 30
0.0
 11
1761.2528384362085
 21
2856.9722210555046
 31
0.0
  0
LINE
  5
2A0
330
29B
100
AcDbEntity
  8
DIM
 62
5
370
9
440
16777216
100
AcDbLine
 10
1773.2528384362085
 20
2846.9722210555046
 30
0.0
 11
1781.2528384362085
 21
2846.9722210555046
 31
0.0
  0
LINE
  5
2A1
330
29B
100
AcDbEntity
  8
DIM
 62
5
370
9
440
16777216
100
AcDbLine
 10
1761.2528384362085
 20
2846.9722210555046
 30
0.0
 11
1692.0502463489102
 21
2846.9722210555046
 31
0.0
  0
LINE
  5
2A2
330
29B
100
AcDbEntity
  8
DIM
 62
5
370
9
440
16777216
100
AcDbLine
 10
1773.2528384362085
 20
2846.9722210555046
 30
0.0
 11
1761.2528384362085
 21
2846.9722210555046
 31
0.0
  0
LINE
  5
2A3
330
29B
100
AcDbEntity
  8
0
  6
ByBlock
 62
0
370
-2
100
AcDbLine
 10
1777.2528384362085
 20
2850.9722210555046
 30
0.0
 11
1769.2528384362085
 21
2842.9722210555046
 31
0.0
  0
LINE
  5
2A4
330
29B
100
AcDbEntity
  8
0
  6
ByBlock
 62
0
370
-2
100
AcDbLine
 10
1757.2528384362085
 20
2842.9722210555046
 30
0.0
 11
1765.2528384362085
 21
2850.9722210555046
 31
0.0
  0
MTEXT
  5
2A5
330
29B
100
AcDbEntity
  8
DIM
 62
3
440
16777216
100
AcDbMText
 10
1718.651542392603
 20
2869.5233806735196
 30
0.0
 40
25.0
 41
0.0
 46
0.0
 71
5
  1
12
  0
POINT
  5
2A6
330
29B
100
AcDbEntity
  8
Defpoints
 62
0
440
16777216
100
AcDbPoint
 10
1773.2528384362085
 20
2739.5580684195447
 30
0.0
  0
POINT
  5
2A7
330
29B
100
AcDbEntity
  8
Defpoints
 62
0
440
16777216
100
AcDbPoint
 10
1761.2528384362085
 20
2739.5580684195447
 30
0.0
  0
POINT
  5
2A8
330
29B
100
AcDbEntity
  8
Defpoints
 62
0
440
16777216
100
AcDbPoint
 10
1761.2528384362085
 20
2846.9722210555046
 30
0.0
  0
ENDBLK
  5
29D
330
29B
100
AcDbEntity
  8
0
100
AcDbBlockEnd
  0
BLOCK
  5
2AA
330
2A9
100
AcDbEntity
  8
0
100
AcDbBlockBegin
  2
*D11
 70
1
 10
0.0
 20
0.0
 30
0.0
  3
*D11
  1

  0
LINE
  5
2AC
330
2A9
100
AcDbEntity
  8
DIM
 62
5
370
9
440
16777216
100
AcDbLine
 10
2228.2528384362085
 20
1367.5580684195447
 30
0.0
 11
2228.2528384362085
 21
1306.3319493597664
 31
0.0
  0
LINE
  5
2AD
330
2A9
100
AcDbEntity
  8
DIM
 62
5
370
9
440
16777216
100
AcDbLine
 10
1761.2528384362085
 20
1407.5580684195593
 30
0.0
 11
1761.2528384362085
 21
1306.3319493597664
 31
0.0
  0
LINE
  5
2AE
330
2A9
100
AcDbEntity
  8
DIM
 62
5
370
9
440
16777216
100
AcDbLine
 10
2228.2528384362085
 20
1316.331949359781
 30
0.0
 11
1761.2528384362085
 21
1316.331949359781
 31
0.0
  0
LINE
  5
2AF
330
2A9
100
AcDbEntity
  8
0
  6
ByBlock
 62
0
370
-2
100
AcDbLine
 10
2224.2528384362085
 20
1312.331949359781
 30
0.0
 11
2232.2528384362085
 21
1320.331949359781
 31
0.0
  0
LINE
  5
2B0
330
2A9
100
AcDbEntity
  8
0
  6
ByBlock
 62
0
370
-2
100
AcDbLine
 10
1765.2528384362085
 20
1320.331949359781
 30
0.0
 11
1757.2528384362085
 21
1312.331949359781
 31
0.0
  0
MTEXT
  5
2B1
330
2A9
100
AcDbEntity
  8
DIM
 62
3
440
16777216
100
AcDbMText
 10
1994.7528384362085
 20
1339.0962740528048
 30
0.0
 40
25.0
 41
0.0
 46
0.0
 71
5
  1
467
  0
POINT
  5
2B2
330
2A9
100
AcDbEntity
  8
Defpoints
 62
0
440
16777216
100
AcDbPoint
 10
2228.2528384362085
 20
1382.5580684195447
 30
0.0
  0
POINT
  5
2B3
330
2A9
100
AcDbEntity
  8
Defpoints
 62
0
440
16777216
100
AcDbPoint
 10
1761.2528384362085
 20
1422.5580684195447
 30
0.0
  0
POINT
  5
2B4
330
2A9
100
AcDbEntity
  8
Defpoints
 62
0
440
16777216
100
AcDbPoint
 10
1761.2528384362085
 20
1316.331949359781
 30
0.0
  0
ENDBLK
  5
2AB
330
2A9
100
AcDbEntity
  8
0
100
AcDbBlockEnd
  0
BLOCK
  5
2B6
330
2B5
100
AcDbEntity
  8
0
100
AcDbBlockBegin
  2
*D12
 70
1
 10
0.0
 20
0.0
 30
0.0
  3
*D12
  1

  0
LINE
  5
2B8
330
2B5
100
AcDbEntity
  8
DIM
 62
5
370
9
440
16777216
100
AcDbLine
 10
2183.2528384362085
 20
2794.5580684195447
 30
0.0
 11
2183.2528384362085
 21
2856.9722210555046
 31
0.0
  0
LINE
  5
2B9
330
2B5
100
AcDbEntity
  8
DIM
 62
5
370
9
440
16777216
100
AcDbLine
 10
2218.2528384362085
 20
2794.5580684195447
 30
0.0
 11
2218.2528384362085
 21
2856.9722210555046
 31
0.0
  0
LINE
  5
2BA
330
2B5
100
AcDbEntity
  8
DIM
 62
5
370
9
440
16777216
100
AcDbLine
 10
2183.2528384362085
 20
2846.9722210555046
 30
0.0
 11
2218.2528384362085
 21
2846.9722210555046
 31
0.0
  0
LINE
  5
2BB
330
2B5
100
AcDbEntity
  8
0
  6
ByBlock
 62
0
370
-2
100
AcDbLine
 10
2187.2528384362085
 20
2850.9722210555046
 30
0.0
 11
2179.2528384362085
 21
2842.9722210555046
 31
0.0
  0
LINE
  5
2BC
330
2B5
100
AcDbEntity
  8
0
  6
ByBlock
 62
0
370
-2
100
AcDbLine
 10
2214.2528384362085
 20
2842.9722210555046
 30
0.0
 11
2222.2528384362085
 21
2850.9722210555046
 31
0.0
  0
MTEXT
  5
2BD
330
2B5
100
AcDbEntity
  8
DIM
 62
3
440
16777216
100
AcDbMText
 10
2200.7528384362085
 20
2869.7450723515503
 30
0.0
 40
25.0
 41
0.0
 46
0.0
 71
5
  1
35
  0
POINT
  5
2BE
330
2B5
100
AcDbEntity
  8
Defpoints
 62
0
440
16777216
100
AcDbPoint
 10
2183.2528384362085
 20
2779.5580684195593
 30
0.0
  0
POINT
  5
2BF
330
2B5
100
AcDbEntity
  8
Defpoints
 62
0
440
16777216
100
AcDbPoint
 10
2218.2528384362085
 20
2779.5580684195593
 30
0.0
  0
POINT
  5
2C0
330
2B5
100
AcDbEntity
  8
Defpoints
 62
0
440
16777216
100
AcDbPoint
 10
2218.2528384362085
 20
2846.9722210555046
 30
0.0
  0
ENDBLK
  5
2B7
330
2B5
100
AcDbEntity
  8
0
100
AcDbBlockEnd
  0
BLOCK
  5
2C2
330
2C1
100
AcDbEntity
  8
0
100
AcDbBlockBegin
  2
*D13
 70
1
 10
0.0
 20
0.0
 30
0.0
  3
*D13
  1

  0
LINE
  5
2C4
330
2C1
100
AcDbEntity
  8
DIM
 62
5
370
9
440
16777216
100
AcDbLine
 10
2218.2528384362085
 20
2794.5580684195447
 30
0.0
 11
2218.2528384362085
 21
2856.9722210555046
 31
0.0
  0
LINE
  5
2C5
330
2C1
100
AcDbEntity
  8
DIM
 62
5
370
9
440
16777216
100
AcDbLine
 10
2228.2528384362085
 20
2794.5580684195447
 30
0.0
 11
2228.2528384362085
 21
2856.9722210555046
 31
0.0
  0
LINE
  5
2C6
330
2C1
100
AcDbEntity
  8
DIM
 62
5
370
9
440
16777216
100
AcDbLine
 10
2218.2528384362085
 20
2846.9722210555046
 30
0.0
 11
2210.2528384362085
 21
2846.9722210555046
 31
0.0
  0
LINE
  5
2C7
330
2C1
100
AcDbEntity
  8
DIM
 62
5
370
9
440
16777216
100
AcDbLine
 10
2228.2528384362085
 20
2846.9722210555046
 30
0.0
 11
2297.62596258361
 21
2846.9722210555046
 31
0.0
  0
LINE
  5
2C8
330
2C1
100
AcDbEntity
  8
DIM
 62
5
370
9
440
16777216
100
AcDbLine
 10
2218.2528384362085
 20
2846.9722210555046
 30
0.0
 11
2228.2528384362085
 21
2846.9722210555046
 31
0.0
  0
LINE
  5
2C9
330
2C1
100
AcDbEntity
  8
0
  6
ByBlock
 62
0
370
-2
100
AcDbLine
 10
2214.2528384362085
 20
2842.9722210555046
 30
0.0
 11
2222.2528384362085
 21
2850.9722210555046
 31
0.0
  0
LINE
  5
2CA
330
2C1
100
AcDbEntity
  8
0
  6
ByBlock
 62
0
370
-2
100
AcDbLine
 10
2232.2528384362085
 20
2850.9722210555046
 30
0.0
 11
2224.2528384362085
 21
2842.9722210555046
 31
0.0
  0
MTEXT
  5
2CB
330
2C1
100
AcDbEntity
  8
DIM
 62
3
440
16777216
100
AcDbMText
 10
2270.939400509902
 20
2869.736545748543
 30
0.0
 40
25.0
 41
0.0
 46
0.0
 71
5
  1
10
  0
POINT
  5
2CC
330
2C1
100
AcDbEntity
  8
Defpoints
 62
0
440
16777216
100
AcDbPoint
 10
2218.2528384362085
 20
2779.5580684195593
 30
0.0
  0
POINT
  5
2CD
330
2C1
100
AcDbEntity
  8
Defpoints
 62
0
440
16777216
100
AcDbPoint
 10
2228.2528384362085
 20
2779.5580684195593
 30
0.0
  0
POINT
  5
2CE
330
2C1
100
AcDbEntity
  8
Defpoints
 62
0
440
16777216
100
AcDbPoint
 10
2228.2528384362085
 20
2846.9722210555046
 30
0.0
  0
ENDBLK
  5
2C3
330
2C1
100
AcDbEntity
  8
0
100
AcDbBlockEnd
  0
BLOCK
  5
2D0
330
2CF
100
AcDbEntity
  8
0
100
AcDbBlockBegin
  2
*D14
 70
1
 10
0.0
 20
0.0
 30
0.0
  3
*D14
  1

  0
LINE
  5
2D2
330
2CF
100
AcDbEntity
  8
DIM
 62
5
370
9
 48
3.0
440
16777216
100
AcDbLine
 10
2243.2528384362085
 20
2779.5580684195593
 30
0.0
 11
2308.8789460623084
 21
2779.5580684195593
 31
0.0
  0
LINE
  5
2D3
330
2CF
100
AcDbEntity
  8
DIM
 62
5
370
9
 48
3.0
440
16777216
100
AcDbLine
 10
2243.2528384362085
 20
1382.5580684195447
 30
0.0
 11
2308.8789460623084
 21
1382.5580684195447
 31
0.0
  0
LINE
  5
2D4
330
2CF
100
AcDbEntity
  8
DIM
 62
5
370
9
 48
3.0
440
16777216
100
AcDbLine
 10
2298.8789460623084
 20
2779.5580684195593
 30
0.0
 11
2298.8789460623084
 21
1382.5580684195447
 31
0.0
  0
LINE
  5
2D5
330
2CF
100
AcDbEntity
  8
0
  6
ByBlock
 62
0
370
-2
100
AcDbLine
 10
2302.8789460623084
 20
2775.5580684195593
 30
0.0
 11
2294.8789460623084
 21
2783.5580684195593
 31
0.0
  0
LINE
  5
2D6
330
2CF
100
AcDbEntity
  8
0
  6
ByBlock
 62
0
370
-2
100
AcDbLine
 10
2294.8789460623084
 20
1386.5580684195447
 30
0.0
 11
2302.8789460623084
 21
1378.5580684195447
 31
0.0
  0
MTEXT
  5
2D7
330
2CF
100
AcDbEntity
  8
DIM
 62
3
 48
3.0
440
16777216
100
AcDbMText
 10
2276.1060947662045
 20
2081.0580684195884
 30
0.0
 40
25.0
 41
0.0
 46
0.0
 71
5
  1
1397
 11
1e-16
 21
1.0
 31
0.0
  0
POINT
  5
2D8
330
2CF
100
AcDbEntity
  8
Defpoints
 62
0
 48
3.0
440
16777216
100
AcDbPoint
 10
2228.2528384362085
 20
2779.5580684195593
 30
0.0
  0
POINT
  5
2D9
330
2CF
100
AcDbEntity
  8
Defpoints
 62
0
 48
3.0
440
16777216
100
AcDbPoint
 10
2228.2528384362085
 20
1382.5580684195447
 30
0.0
  0
POINT
  5
2DA
330
2CF
100
AcDbEntity
  8
Defpoints
 62
0
 48
3.0
440
16777216
100
AcDbPoint
 10
2298.8789460623084
 20
1382.5580684195447
 30
0.0
  0
ENDBLK
  5
2D1
330
2CF
100
AcDbEntity
  8
0
100
AcDbBlockEnd
  0
BLOCK
  5
2DC
330
2DB
100
AcDbEntity
  8
0
100
AcDbBlockBegin
  2
*D15
 70
1
 10
0.0
 20
0.0
 30
0.0
  3
*D15
  1

  0
LINE
  5
2DE
330
2DB
100
AcDbEntity
  8
DIM
 62
5
370
9
 48
3.0
440
16777216
100
AcDbLine
 10
1064.7839721240016
 20
2794.5580684195447
 30
0.0
 11
1064.7839721240016
 21
2856.79024698188
 31
0.0
  0
LINE
  5
2DF
330
2DB
100
AcDbEntity
  8
DIM
 62
5
370
9
 48
3.0
440
16777216
100
AcDbLine
 10
1584.7839721240016
 20
2794.5580684195447
 30
0.0
 11
1584.7839721240016
 21
2856.79024698188
 31
0.0
  0
LINE
  5
2E0
330
2DB
100
AcDbEntity
  8
DIM
 62
5
370
9
 48
3.0
440
16777216
100
AcDbLine
 10
1064.7839721240016
 20
2846.7902469818655
 30
0.0
 11
1584.7839721240016
 21
2846.7902469818655
 31
0.0
  0
LINE
  5
2E1
330
2DB
100
AcDbEntity
  8
0
  6
ByBlock
 62
0
370
-2
100
AcDbLine
 10
1068.7839721240016
 20
2850.7902469818655
 30
0.0
 11
1060.7839721240016
 21
2842.7902469818655
 31
0.0
  0
LINE
  5
2E2
330
2DB
100
AcDbEntity
  8
0
  6
ByBlock
 62
0
370
-2
100
AcDbLine
 10
1580.7839721240016
 20
2842.7902469818655
 30
0.0
 11
1588.7839721240016
 21
2850.7902469818655
 31
0.0
  0
MTEXT
  5
2E3
330
2DB
100
AcDbEntity
  8
DIM
 62
3
 48
3.0
440
16777216
100
AcDbMText
 10
1324.7839721240016
 20
2869.554571674904
 30
0.0
 40
25.0
 41
0.0
 46
0.0
 71
5
  1
520
  0
POINT
  5
2E4
330
2DB
100
AcDbEntity
  8
Defpoints
 62
0
 48
3.0
440
16777216
100
AcDbPoint
 10
1064.7839721240016
 20
2779.5580684195593
 30
0.0
  0
POINT
  5
2E5
330
2DB
100
AcDbEntity
  8
Defpoints
 62
0
 48
3.0
440
16777216
100
AcDbPoint
 10
1584.7839721240016
 20
2779.5580684195593
 30
0.0
  0
POINT
  5
2E6
330
2DB
100
AcDbEntity
  8
Defpoints
 62
0
 48
3.0
440
16777216
100
AcDbPoint
 10
1584.7839721240016
 20
2846.7902469818655
 30
0.0
  0
ENDBLK
  5
2DD
330
2DB
100
AcDbEntity
  8
0
100
AcDbBlockEnd
  0
BLOCK
  5
2E8
330
2E7
100
AcDbEntity
  8
0
100
AcDbBlockBegin
  2
*D16
 70
1
 10
0.0
 20
0.0
 30
0.0
  3
*D16
  1

  0
LINE
  5
2EA
330
2E7
100
AcDbEntity
  8
DIM
 62
5
370
9
 48
3.0
440
16777216
100
AcDbLine
 10
1584.7839721240016
 20
2794.5580684195447
 30
0.0
 11
1584.7839721240016
 21
2856.79024698188
 31
0.0
  0
LINE
  5
2EB
330
2E7
100
AcDbEntity
  8
DIM
 62
5
370
9
 48
3.0
440
16777216
100
AcDbLine
 10
1594.7839721240016
 20
2794.5580684195447
 30
0.0
 11
1594.7839721240016
 21
2856.79024698188
 31
0.0
  0
LINE
  5
2EC
330
2E7
100
AcDbEntity
  8
DIM
 62
5
370
9
 48
3.0
440
16777216
100
AcDbLine
 10
1584.7839721240016
 20
2846.7902469818655
 30
0.0
 11
1576.7839721240016
 21
2846.7902469818655
 31
0.0
  0
LINE
  5
2ED
330
2E7
100
AcDbEntity
  8
DIM
 62
5
370
9
 48
3.0
440
16777216
100
AcDbLine
 10
1594.7839721240016
 20
2846.7902469818655
 30
0.0
 11
1664.1570962713013
 21
2846.7902469818655
 31
0.0
  0
LINE
  5
2EE
330
2E7
100
AcDbEntity
  8
DIM
 62
5
370
9
 48
3.0
440
16777216
100
AcDbLine
 10
1584.7839721240016
 20
2846.7902469818655
 30
0.0
 11
1594.7839721240016
 21
2846.7902469818655
 31
0.0
  0
LINE
  5
2EF
330
2E7
100
AcDbEntity
  8
0
  6
ByBlock
 62
0
370
-2
100
AcDbLine
 10
1580.7839721240016
 20
2842.7902469818655
 30
0.0
 11
1588.7839721240016
 21
2850.7902469818655
 31
0.0
  0
LINE
  5
2F0
330
2E7
100
AcDbEntity
  8
0
  6
ByBlock
 62
0
370
-2
100
AcDbLine
 10
1598.7839721240016
 20
2850.7902469818655
 30
0.0
 11
1590.7839721240016
 21
2842.7902469818655
 31
0.0
  0
MTEXT
  5
2F1
330
2E7
100
AcDbEntity
  8
DIM
 62
3
 48
3.0
440
16777216
100
AcDbMText
 10
1637.4705341976078
 20
2869.554571674904
 30
0.0
 40
25.0
 41
0.0
 46
0.0
 71
5
  1
10
  0
POINT
  5
2F2
330
2E7
100
AcDbEntity
  8
Defpoints
 62
0
 48
3.0
440
16777216
100
AcDbPoint
 10
1584.7839721240016
 20
2779.5580684195593
 30
0.0
  0
POINT
  5
2F3
330
2E7
100
AcDbEntity
  8
Defpoints
 62
0
 48
3.0
440
16777216
100
AcDbPoint
 10
1594.7839721240016
 20
2779.5580684195593
 30
0.0
  0
POINT
  5
2F4
330
2E7
100
AcDbEntity
  8
Defpoints
 62
0
 48
3.0
440
16777216
100
AcDbPoint
 10
1594.7839721240016
 20
2846.7902469818655
 30
0.0
  0
ENDBLK
  5
2E9
330
2E7
100
AcDbEntity
  8
0
100
AcDbBlockEnd
  0
BLOCK
  5
2F6
330
2F5
100
AcDbEntity
  8
0
100
AcDbBlockBegin
  2
*D17
 70
1
 10
0.0
 20
0.0
 30
0.0
  3
*D17
  1

  0
LINE
  5
2F8
330
2F5
100
AcDbEntity
  8
DIM
 62
5
370
9
 48
3.0
440
16777216
100
AcDbLine
 10
1039.7839721240016
 20
2779.5580684195593
 30
0.0
 11
971.8316841195046
 21
2779.5580684195593
 31
0.0
  0
LINE
  5
2F9
330
2F5
100
AcDbEntity
  8
DIM
 62
5
370
9
 48
3.0
440
16777216
100
AcDbLine
 10
1039.7839721240016
 20
1382.5580684195447
 30
0.0
 11
971.8316841195046
 21
1382.5580684195447
 31
0.0
  0
LINE
  5
2FA
330
2F5
100
AcDbEntity
  8
DIM
 62
5
370
9
 48
3.0
440
16777216
100
AcDbLine
 10
981.8316841195046
 20
2779.5580684195593
 30
0.0
 11
981.8316841195046
 21
1382.5580684195447
 31
0.0
  0
LINE
  5
2FB
330
2F5
100
AcDbEntity
  8
0
  6
ByBlock
 62
0
370
-2
100
AcDbLine
 10
985.8316841195046
 20
2775.5580684195593
 30
0.0
 11
977.8316841195046
 21
2783.5580684195593
 31
0.0
  0
LINE
  5
2FC
330
2F5
100
AcDbEntity
  8
0
  6
ByBlock
 62
0
370
-2
100
AcDbLine
 10
977.8316841195046
 20
1386.5580684195447
 30
0.0
 11
985.8316841195046
 21
1378.5580684195447
 31
0.0
  0
MTEXT
  5
2FD
330
2F5
100
AcDbEntity
  8
DIM
 62
3
 48
3.0
440
16777216
100
AcDbMText
 10
959.0588328235026
 20
2081.0580684195884
 30
0.0
 40
25.0
 41
0.0
 46
0.0
 71
5
  1
1397
 11
1e-16
 21
1.0
 31
0.0
  0
POINT
  5
2FE
330
2F5
100
AcDbEntity
  8
Defpoints
 62
0
 48
3.0
440
16777216
100
AcDbPoint
 10
1054.7839721240016
 20
2779.5580684195593
 30
0.0
  0
POINT
  5
2FF
330
2F5
100
AcDbEntity
  8
Defpoints
 62
0
 48
3.0
440
16777216
100
AcDbPoint
 10
1054.7839721240016
 20
1382.5580684195447
 30
0.0
  0
POINT
  5
300
330
2F5
100
AcDbEntity
  8
Defpoints
 62
0
 48
3.0
440
16777216
100
AcDbPoint
 10
981.8316841195046
 20
1382.5580684195447
 30
0.0
  0
ENDBLK
  5
2F7
330
2F5
100
AcDbEntity
  8
0
100
AcDbBlockEnd
  0
BLOCK
  5
302
330
301
100
AcDbEntity
  8
0
100
AcDbBlockBegin
  2
*D18
 70
1
 10
0.0
 20
0.0
 30
0.0
  3
*D18
  1

  0
LINE
  5
304
330
301
100
AcDbEntity
  8
DIM
 62
5
370
9
 48
3.0
440
16777216
100
AcDbLine
 10
3046.6655499179033
 20
2740.0580684195447
 30
0.0
 11
3046.6655499179033
 21
2816.8340838552394
 31
0.0
  0
LINE
  5
305
330
301
100
AcDbEntity
  8
DIM
 62
5
370
9
 48
3.0
440
16777216
100
AcDbLine
 10
3066.6655499179033
 20
2720.0580684195447
 30
0.0
 11
3066.6655499179033
 21
2816.8340838552394
 31
0.0
  0
LINE
  5
306
330
301
100
AcDbEntity
  8
DIM
 62
5
370
9
 48
3.0
440
16777216
100
AcDbLine
 10
3046.6655499179033
 20
2806.8340838552394
 30
0.0
 11
3066.6655499179033
 21
2806.8340838552394
 31
0.0
  0
LINE
  5
307
330
301
100
AcDbEntity
  8
DIM
 62
5
370
9
 48
3.0
440
16777216
100
AcDbLine
 10
3066.6655499179033
 20
2806.8340838552394
 30
0.0
 11
3130.818346643704
 21
2806.8340838552394
 31
0.0
  0
LINE
  5
308
330
301
100
AcDbEntity
  8
0
  6
ByBlock
 62
0
370
-2
100
AcDbLine
 10
3050.6655499179033
 20
2810.8340838552394
 30
0.0
 11
3042.6655499179033
 21
2802.8340838552394
 31
0.0
  0
LINE
  5
309
330
301
100
AcDbEntity
  8
0
  6
ByBlock
 62
0
370
-2
100
AcDbLine
 10
3062.6655499179033
 20
2802.8340838552394
 30
0.0
 11
3070.6655499179033
 21
2810.8340838552394
 31
0.0
  0
MTEXT
  5
30A
330
301
100
AcDbEntity
  8
DIM
 62
3
 48
3.0
440
16777216
100
AcDbMText
 10
3102.7419482808036
 20
2829.598408548278
 30
0.0
 40
25.0
 41
0.0
 46
0.0
 71
5
  1
20
  0
POINT
  5
30B
330
301
100
AcDbEntity
  8
Defpoints
 62
0
 48
3.0
440
16777216
100
AcDbPoint
 10
3046.6655499179033
 20
2725.0580684195447
 30
0.0
  0
POINT
  5
30C
330
301
100
AcDbEntity
  8
Defpoints
 62
0
 48
3.0
440
16777216
100
AcDbPoint
 10
3066.6655499179033
 20
2705.0580684195447
 30
0.0
  0
POINT
  5
30D
330
301
100
AcDbEntity
  8
Defpoints
 62
0
 48
3.0
440
16777216
100
AcDbPoint
 10
3066.6655499179033
 20
2806.8340838552394
 30
0.0
  0
ENDBLK
  5
303
330
301
100
AcDbEntity
  8
0
100
AcDbBlockEnd
  0
BLOCK
  5
30F
330
30E
100
AcDbEntity
  8
0
100
AcDbBlockBegin
  2
*D19
 70
1
 10
0.0
 20
0.0
 30
0.0
  3
*D19
  1

  0
LINE
  5
311
330
30E
100
AcDbEntity
  8
DIM
 62
5
370
9
 48
3.0
440
16777216
100
AcDbLine
 10
3046.6655499179033
 20
2740.0580684195447
 30
0.0
 11
3046.6655499179033
 21
2816.8340838552394
 31
0.0
  0
LINE
  5
312
330
30E
100
AcDbEntity
  8
DIM
 62
5
370
9
 48
3.0
440
16777216
100
AcDbLine
 10
2598.6655499179033
 20
2740.0580684195447
 30
0.0
 11
2598.6655499179033
 21
2816.8340838552394
 31
0.0
  0
LINE
  5
313
330
30E
100
AcDbEntity
  8
DIM
 62
5
370
9
 48
3.0
440
16777216
100
AcDbLine
 10
3046.6655499179033
 20
2806.8340838552394
 30
0.0
 11
2598.6655499179033
 21
2806.8340838552394
 31
0.0
  0
LINE
  5
314
330
30E
100
AcDbEntity
  8
0
  6
ByBlock
 62
0
370
-2
100
AcDbLine
 10
3042.6655499179033
 20
2802.8340838552394
 30
0.0
 11
3050.6655499179033
 21
2810.8340838552394
 31
0.0
  0
LINE
  5
315
330
30E
100
AcDbEntity
  8
0
  6
ByBlock
 62
0
370
-2
100
AcDbLine
 10
2602.6655499179033
 20
2810.8340838552394
 30
0.0
 11
2594.6655499179033
 21
2802.8340838552394
 31
0.0
  0
MTEXT
  5
316
330
30E
100
AcDbEntity
  8
DIM
 62
3
 48
3.0
440
16777216
100
AcDbMText
 10
2822.6655499179033
 20
2829.598408548278
 30
0.0
 40
25.0
 41
0.0
 46
0.0
 71
5
  1
448
  0
POINT
  5
317
330
30E
100
AcDbEntity
  8
Defpoints
 62
0
 48
3.0
440
16777216
100
AcDbPoint
 10
3046.6655499179033
 20
2725.0580684195447
 30
0.0
  0
POINT
  5
318
330
30E
100
AcDbEntity
  8
Defpoints
 62
0
 48
3.0
440
16777216
100
AcDbPoint
 10
2598.6655499179033
 20
2725.0580684195447
 30
0.0
  0
POINT
  5
319
330
30E
100
AcDbEntity
  8
Defpoints
 62
0
 48
3.0
440
16777216
100
AcDbPoint
 10
2598.6655499179033
 20
2806.8340838552394
 30
0.0
  0
ENDBLK
  5
310
330
30E
100
AcDbEntity
  8
0
100
AcDbBlockEnd
  0
BLOCK
  5
31B
330
31A
100
AcDbEntity
  8
0
100
AcDbBlockBegin
  2
*D20
 70
1
 10
0.0
 20
0.0
 30
0.0
  3
*D20
  1

  0
LINE
  5
31D
330
31A
100
AcDbEntity
  8
DIM
 62
5
370
9
 48
3.0
440
16777216
100
AcDbLine
 10
2583.6655499179033
 20
2725.0580684195447
 30
0.0
 11
2444.0364383913984
 21
2725.0580684195447
 31
0.0
  0
LINE
  5
31E
330
31A
100
AcDbEntity
  8
DIM
 62
5
370
9
 48
3.0
440
16777216
100
AcDbLine
 10
2583.6655499179033
 20
1437.0580684195447
 30
0.0
 11
2444.0364383913984
 21
1437.0580684195447
 31
0.0
  0
LINE
  5
31F
330
31A
100
AcDbEntity
  8
DIM
 62
5
370
9
 48
3.0
440
16777216
100
AcDbLine
 10
2454.0364383913984
 20
2725.0580684195447
 30
0.0
 11
2454.0364383913984
 21
1437.0580684195447
 31
0.0
  0
LINE
  5
320
330
31A
100
AcDbEntity
  8
0
  6
ByBlock
 62
0
370
-2
100
AcDbLine
 10
2458.0364383913984
 20
2721.0580684195447
 30
0.0
 11
2450.0364383913984
 21
2729.0580684195447
 31
0.0
  0
LINE
  5
321
330
31A
100
AcDbEntity
  8
0
  6
ByBlock
 62
0
370
-2
100
AcDbLine
 10
2450.0364383913984
 20
1441.0580684195447
 30
0.0
 11
2458.0364383913984
 21
1433.0580684195447
 31
0.0
  0
MTEXT
  5
322
330
31A
100
AcDbEntity
  8
DIM
 62
3
 48
3.0
440
16777216
100
AcDbMText
 10
2431.272113698302
 20
2081.0580684195884
 30
0.0
 40
25.0
 41
0.0
 46
0.0
 71
5
  1
1288
 11
1e-16
 21
1.0
 31
0.0
  0
POINT
  5
323
330
31A
100
AcDbEntity
  8
Defpoints
 62
0
 48
3.0
440
16777216
100
AcDbPoint
 10
2598.6655499179033
 20
2725.0580684195447
 30
0.0
  0
POINT
  5
324
330
31A
100
AcDbEntity
  8
Defpoints
 62
0
 48
3.0
440
16777216
100
AcDbPoint
 10
2598.6655499179033
 20
1437.0580684195447
 30
0.0
  0
POINT
  5
325
330
31A
100
AcDbEntity
  8
Defpoints
 62
0
 48
3.0
440
16777216
100
AcDbPoint
 10
2454.0364383913984
 20
1437.0580684195447
 30
0.0
  0
ENDBLK
  5
31C
330
31A
100
AcDbEntity
  8
0
100
AcDbBlockEnd
  0
BLOCK
  5
327
330
326
100
AcDbEntity
  8
0
100
AcDbBlockBegin
  2
*D21
 70
1
 10
0.0
 20
0.0
 30
0.0
  3
*D21
  1

  0
LINE
  5
329
330
326
100
AcDbEntity
  8
DIM
 62
5
370
9
 48
3.0
440
16777216
100
AcDbLine
 10
2563.6655499179033
 20
1457.0580684195447
 30
0.0
 11
2511.528652420704
 21
1457.0580684195447
 31
0.0
  0
LINE
  5
32A
330
326
100
AcDbEntity
  8
DIM
 62
5
370
9
 48
3.0
440
16777216
100
AcDbLine
 10
2563.6655499179033
 20
2705.0580684195447
 30
0.0
 11
2511.528652420704
 21
2705.0580684195447
 31
0.0
  0
LINE
  5
32B
330
326
100
AcDbEntity
  8
DIM
 62
5
370
9
 48
3.0
440
16777216
100
AcDbLine
 10
2521.528652420704
 20
1457.0580684195447
 30
0.0
 11
2521.528652420704
 21
2705.0580684195447
 31
0.0
  0
LINE
  5
32C
330
326
100
AcDbEntity
  8
0
  6
ByBlock
 62
0
370
-2
100
AcDbLine
 10
2517.528652420704
 20
1461.0580684195447
 30
0.0
 11
2525.528652420704
 21
1453.0580684195447
 31
0.0
  0
LINE
  5
32D
330
326
100
AcDbEntity
  8
0
  6
ByBlock
 62
0
370
-2
100
AcDbLine
 10
2525.528652420704
 20
2701.0580684195447
 30
0.0
 11
2517.528652420704
 21
2709.0580684195447
 31
0.0
  0
MTEXT
  5
32E
330
326
100
AcDbEntity
  8
DIM
 62
3
 48
3.0
440
16777216
100
AcDbMText
 10
2498.7643277277093
 20
2081.0580684195884
 30
0.0
 40
25.0
 41
0.0
 46
0.0
 71
5
  1
1248
 11
1e-16
 21
1.0
 31
0.0
  0
POINT
  5
32F
330
326
100
AcDbEntity
  8
Defpoints
 62
0
 48
3.0
440
16777216
100
AcDbPoint
 10
2578.6655499179033
 20
1457.0580684195447
 30
0.0
  0
POINT
  5
330
330
326
100
AcDbEntity
  8
Defpoints
 62
0
 48
3.0
440
16777216
100
AcDbPoint
 10
2578.6655499179033
 20
2705.0580684195447
 30
0.0
  0
POINT
  5
331
330
326
100
AcDbEntity
  8
Defpoints
 62
0
 48
3.0
440
16777216
100
AcDbPoint
 10
2521.528652420704
 20
2705.0580684195447
 30
0.0
  0
ENDBLK
  5
328
330
326
100
AcDbEntity
  8
0
100
AcDbBlockEnd
  0
BLOCK
  5
333
330
332
100
AcDbEntity
  8
0
100
AcDbBlockBegin
  2
*D22
 70
1
 10
0.0
 20
0.0
 30
0.0
  3
*D22
  1

  0
LINE
  5
335
330
332
100
AcDbEntity
  8
DIM
 62
5
370
9
 48
3.0
440
16777216
100
AcDbLine
 10
2578.6655499179033
 20
1442.0580684195593
 30
0.0
 11
2578.6655499179033
 21
1366.3486655588204
 31
0.0
  0
LINE
  5
336
330
332
100
AcDbEntity
  8
DIM
 62
5
370
9
 48
3.0
440
16777216
100
AcDbLine
 10
3066.6655499179033
 20
1442.0580684195593
 30
0.0
 11
3066.6655499179033
 21
1366.3486655588204
 31
0.0
  0
LINE
  5
337
330
332
100
AcDbEntity
  8
DIM
 62
5
370
9
 48
3.0
440
16777216
100
AcDbLine
 10
2578.6655499179033
 20
1376.3486655588204
 30
0.0
 11
3066.6655499179033
 21
1376.3486655588204
 31
0.0
  0
LINE
  5
338
330
332
100
AcDbEntity
  8
0
  6
ByBlock
 62
0
370
-2
100
AcDbLine
 10
2582.6655499179033
 20
1380.3486655588204
 30
0.0
 11
2574.6655499179033
 21
1372.3486655588204
 31
0.0
  0
LINE
  5
339
330
332
100
AcDbEntity
  8
0
  6
ByBlock
 62
0
370
-2
100
AcDbLine
 10
3062.6655499179033
 20
1372.3486655588204
 30
0.0
 11
3070.6655499179033
 21
1380.3486655588204
 31
0.0
  0
MTEXT
  5
33A
330
332
100
AcDbEntity
  8
DIM
 62
3
 48
3.0
440
16777216
100
AcDbMText
 10
2822.6655499179033
 20
1399.1129902518587
 30
0.0
 40
25.0
 41
0.0
 46
0.0
 71
5
  1
488
  0
POINT
  5
33B
330
332
100
AcDbEntity
  8
Defpoints
 62
0
 48
3.0
440
16777216
100
AcDbPoint
 10
2578.6655499179033
 20
1457.0580684195447
 30
0.0
  0
POINT
  5
33C
330
332
100
AcDbEntity
  8
Defpoints
 62
0
 48
3.0
440
16777216
100
AcDbPoint
 10
3066.6655499179033
 20
1457.0580684195447
 30
0.0
  0
POINT
  5
33D
330
332
100
AcDbEntity
  8
Defpoints
 62
0
 48
3.0
440
16777216
100
AcDbPoint
 10
3066.6655499179033
 20
1376.3486655588204
 30
0.0
  0
ENDBLK
  5
334
330
332
100
AcDbEntity
  8
0
100
AcDbBlockEnd
  0
BLOCK
  5
33F
330
33E
100
AcDbEntity
  8
0
100
AcDbBlockBegin
  2
*D23
 70
1
 10
0.0
 20
0.0
 30
0.0
  3
*D23
  1

  0
LINE
  5
341
330
33E
100
AcDbEntity
  8
DIM
 62
5
370
9
440
16777216
100
AcDbLine
 10
2554.1626295845053
 20
985.4451124963816
 30
0.0
 11
2652.014589948303
 21
985.4451124963816
 31
0.0
  0
LINE
  5
342
330
33E
100
AcDbEntity
  8
DIM
 62
5
370
9
440
16777216
100
AcDbLine
 10
2554.1626295845053
 20
785.4451124963816
 30
0.0
 11
2652.014589948303
 21
785.4451124963816
 31
0.0
  0
LINE
  5
343
330
33E
100
AcDbEntity
  8
DIM
 62
5
370
9
440
16777216
100
AcDbLine
 10
2642.014589948303
 20
985.4451124963816
 30
0.0
 11
2642.014589948303
 21
785.4451124963816
 31
0.0
  0
LINE
  5
344
330
33E
100
AcDbEntity
  8
0
  6
ByBlock
 62
0
370
-2
100
AcDbLine
 10
2646.014589948303
 20
981.4451124963816
 30
0.0
 11
2638.014589948303
 21
989.4451124963816
 31
0.0
  0
LINE
  5
345
330
33E
100
AcDbEntity
  8
0
  6
ByBlock
 62
0
370
-2
100
AcDbLine
 10
2638.014589948303
 20
789.4451124963816
 30
0.0
 11
2646.014589948303
 21
781.4451124963816
 31
0.0
  0
MTEXT
  5
346
330
33E
100
AcDbEntity
  8
DIM
 62
3
440
16777216
100
AcDbMText
 10
2619.2502652553085
 20
885.4451124964107
 30
0.0
 40
25.0
 41
0.0
 46
0.0
 71
5
  1
200
 11
1e-16
 21
1.0
 31
0.0
  0
POINT
  5
347
330
33E
100
AcDbEntity
  8
Defpoints
 62
0
440
16777216
100
AcDbPoint
 10
2539.1626295845053
 20
985.4451124963816
 30
0.0
  0
POINT
  5
348
330
33E
100
AcDbEntity
  8
Defpoints
 62
0
440
16777216
100
AcDbPoint
 10
2539.1626295845053
 20
785.4451124963816
 30
0.0
  0
POINT
  5
349
330
33E
100
AcDbEntity
  8
Defpoints
 62
0
440
16777216
100
AcDbPoint
 10
2642.014589948303
 20
785.4451124963816
 30
0.0
  0
ENDBLK
  5
340
330
33E
100
AcDbEntity
  8
0
100
AcDbBlockEnd
  0
BLOCK
  5
34B
330
34A
100
AcDbEntity
  8
0
100
AcDbBlockBegin
  2
*D24
 70
1
 10
0.0
 20
0.0
 30
0.0
  3
*D24
  1

  0
LINE
  5
34D
330
34A
100
AcDbEntity
  8
DIM
 62
5
370
9
440
16777216
100
AcDbLine
 10
2219.1626295845053
 20
820.4451124963816
 30
0.0
 11
2219.1626295845053
 21
707.6785004701378
 31
0.0
  0
LINE
  5
34E
330
34A
100
AcDbEntity
  8
DIM
 62
5
370
9
440
16777216
100
AcDbLine
 10
2589.1626295845053
 20
820.4451124963816
 30
0.0
 11
2589.1626295845053
 21
707.6785004701378
 31
0.0
  0
LINE
  5
34F
330
34A
100
AcDbEntity
  8
DIM
 62
5
370
9
440
16777216
100
AcDbLine
 10
2219.1626295845053
 20
717.6785004701378
 30
0.0
 11
2589.1626295845053
 21
717.6785004701378
 31
0.0
  0
LINE
  5
350
330
34A
100
AcDbEntity
  8
0
  6
ByBlock
 62
0
370
-2
100
AcDbLine
 10
2223.1626295845053
 20
721.6785004701378
 30
0.0
 11
2215.1626295845053
 21
713.6785004701378
 31
0.0
  0
LINE
  5
351
330
34A
100
AcDbEntity
  8
0
  6
ByBlock
 62
0
370
-2
100
AcDbLine
 10
2585.1626295845053
 20
713.6785004701378
 30
0.0
 11
2593.1626295845053
 21
721.6785004701378
 31
0.0
  0
MTEXT
  5
352
330
34A
100
AcDbEntity
  8
DIM
 62
3
440
16777216
100
AcDbMText
 10
2404.1626295845053
 20
740.4513517661835
 30
0.0
 40
25.0
 41
0.0
 46
0.0
 71
5
  1
370
  0
POINT
  5
353
330
34A
100
AcDbEntity
  8
Defpoints
 62
0
440
16777216
100
AcDbPoint
 10
2219.1626295845053
 20
835.4451124963816
 30
0.0
  0
POINT
  5
354
330
34A
100
AcDbEntity
  8
Defpoints
 62
0
440
16777216
100
AcDbPoint
 10
2589.1626295845053
 20
835.4451124963816
 30
0.0
  0
POINT
  5
355
330
34A
100
AcDbEntity
  8
Defpoints
 62
0
440
16777216
100
AcDbPoint
 10
2589.1626295845053
 20
717.6785004701378
 30
0.0
  0
ENDBLK
  5
34C
330
34A
100
AcDbEntity
  8
0
100
AcDbBlockEnd
  0
BLOCK
  5
357
330
356
100
AcDbEntity
  8
0
100
AcDbBlockBegin
  2
*D25
 70
1
 10
0.0
 20
0.0
 30
0.0
  3
*D25
  1

  0
LINE
  5
359
330
356
100
AcDbEntity
  8
DIM
 62
5
370
9
440
16777216
100
AcDbLine
 10
2204.1626295845053
 20
935.4451124963816
 30
0.0
 11
2164.2259667087055
 21
935.4451124963816
 31
0.0
  0
LINE
  5
35A
330
356
100
AcDbEntity
  8
DIM
 62
5
370
9
440
16777216
100
AcDbLine
 10
2204.1626295845053
 20
835.4451124963816
 30
0.0
 11
2164.2259667087055
 21
835.4451124963816
 31
0.0
  0
LINE
  5
35B
330
356
100
AcDbEntity
  8
DIM
 62
5
370
9
440
16777216
100
AcDbLine
 10
2174.2259667087055
 20
935.4451124963816
 30
0.0
 11
2174.2259667087055
 21
835.4451124963816
 31
0.0
  0
LINE
  5
35C
330
356
100
AcDbEntity
  8
0
  6
ByBlock
 62
0
370
-2
100
AcDbLine
 10
2178.2259667087055
 20
931.4451124963816
 30
0.0
 11
2170.2259667087055
 21
939.4451124963816
 31
0.0
  0
LINE
  5
35D
330
356
100
AcDbEntity
  8
0
  6
ByBlock
 62
0
370
-2
100
AcDbLine
 10
2170.2259667087055
 20
839.4451124963816
 30
0.0
 11
2178.2259667087055
 21
831.4451124963816
 31
0.0
  0
MTEXT
  5
35E
330
356
100
AcDbEntity
  8
DIM
 62
3
440
16777216
100
AcDbMText
 10
2151.461642015609
 20
885.4451124964107
 30
0.0
 40
25.0
 41
0.0
 46
0.0
 71
5
  1
100
 11
1e-16
 21
1.0
 31
0.0
  0
POINT
  5
35F
330
356
100
AcDbEntity
  8
Defpoints
 62
0
440
16777216
100
AcDbPoint
 10
2219.1626295845053
 20
935.4451124963816
 30
0.0
  0
POINT
  5
360
330
356
100
AcDbEntity
  8
Defpoints
 62
0
440
16777216
100
AcDbPoint
 10
2219.1626295845053
 20
835.4451124963816
 30
0.0
  0
POINT
  5
361
330
356
100
AcDbEntity
  8
Defpoints
 62
0
440
16777216
100
AcDbPoint
 10
2174.2259667087055
 20
835.4451124963816
 30
0.0
  0
ENDBLK
  5
358
330
356
100
AcDbEntity
  8
0
100
AcDbBlockEnd
  0
BLOCK
  5
363
330
362
100
AcDbEntity
  8
0
100
AcDbBlockBegin
  2
*D26
 70
1
 10
0.0
 20
0.0
 30
0.0
  3
*D26
  1

  0
LINE
  5
365
330
362
100
AcDbEntity
  8
DIM
 62
5
370
9
440
16777216
100
AcDbLine
 10
2204.1626295845053
 20
935.4451124963816
 30
0.0
 11
2164.2259667086037
 21
935.4451124963816
 31
0.0
  0
LINE
  5
366
330
362
100
AcDbEntity
  8
DIM
 62
5
370
9
440
16777216
100
AcDbLine
 10
2254.1626295845053
 20
985.4451124963816
 30
0.0
 11
2164.2259667086037
 21
985.4451124963816
 31
0.0
  0
LINE
  5
367
330
362
100
AcDbEntity
  8
DIM
 62
5
370
9
440
16777216
100
AcDbLine
 10
2174.2259667086037
 20
935.4451124963816
 30
0.0
 11
2174.2259667086037
 21
985.4451124963816
 31
0.0
  0
LINE
  5
368
330
362
100
AcDbEntity
  8
DIM
 62
5
370
9
440
16777216
100
AcDbLine
 10
2174.2259667086037
 20
985.4451124963816
 30
0.0
 11
2174.2259667086037
 21
1049.1715790720918
 31
0.0
  0
LINE
  5
369
330
362
100
AcDbEntity
  8
0
  6
ByBlock
 62
0
370
-2
100
AcDbLine
 10
2170.2259667086037
 20
939.4451124963816
 30
0.0
 11
2178.2259667086037
 21
931.4451124963816
 31
0.0
  0
LINE
  5
36A
330
362
100
AcDbEntity
  8
0
  6
ByBlock
 62
0
370
-2
100
AcDbLine
 10
2178.2259667086037
 20
981.4451124963816
 30
0.0
 11
2170.2259667086037
 21
989.4451124963816
 31
0.0
  0
MTEXT
  5
36B
330
362
100
AcDbEntity
  8
DIM
 62
3
440
16777216
100
AcDbMText
 10
2151.461642015609
 20
1021.3083457842731
 30
0.0
 40
25.0
 41
0.0
 46
0.0
 71
5
  1
50
 11
1e-16
 21
1.0
 31
0.0
  0
POINT
  5
36C
330
362
100
AcDbEntity
  8
Defpoints
 62
0
440
16777216
100
AcDbPoint
 10
2219.1626295845053
 20
935.4451124963816
 30
0.0
  0
POINT
  5
36D
330
362
100
AcDbEntity
  8
Defpoints
 62
0
440
16777216
100
AcDbPoint
 10
2269.1626295845053
 20
985.4451124963816
 30
0.0
  0
POINT
  5
36E
330
362
100
AcDbEntity
  8
Defpoints
 62
0
440
16777216
100
AcDbPoint
 10
2174.2259667086037
 20
985.4451124963816
 30
0.0
  0
ENDBLK
  5
364
330
362
100
AcDbEntity
  8
0
100
AcDbBlockEnd
  0
BLOCK
  5
370
330
36F
100
AcDbEntity
  8
0
100
AcDbBlockBegin
  2
*D27
 70
1
 10
0.0
 20
0.0
 30
0.0
  3
*D27
  1

  0
LINE
  5
372
330
36F
100
AcDbEntity
  8
DIM
 62
5
370
9
440
16777216
100
AcDbLine
 10
2204.1626295845053
 20
835.4451124963816
 30
0.0
 11
2164.2259667086037
 21
835.4451124963816
 31
0.0
  0
LINE
  5
373
330
36F
100
AcDbEntity
  8
DIM
 62
5
370
9
440
16777216
100
AcDbLine
 10
2254.1626295845053
 20
785.4451124963816
 30
0.0
 11
2164.2259667086037
 21
785.4451124963816
 31
0.0
  0
LINE
  5
374
330
36F
100
AcDbEntity
  8
DIM
 62
5
370
9
440
16777216
100
AcDbLine
 10
2174.2259667086037
 20
835.4451124963816
 30
0.0
 11
2174.2259667086037
 21
785.4451124963816
 31
0.0
  0
LINE
  5
375
330
36F
100
AcDbEntity
  8
DIM
 62
5
370
9
440
16777216
100
AcDbLine
 10
2174.2259667086037
 20
785.4451124963816
 30
0.0
 11
2174.2259667086037
 21
721.7186459206714
 31
0.0
  0
LINE
  5
376
330
36F
100
AcDbEntity
  8
0
  6
ByBlock
 62
0
370
-2
100
AcDbLine
 10
2178.2259667086037
 20
831.4451124963816
 30
0.0
 11
2170.2259667086037
 21
839.4451124963816
 31
0.0
  0
LINE
  5
377
330
36F
100
AcDbEntity
  8
0
  6
ByBlock
 62
0
370
-2
100
AcDbLine
 10
2170.2259667086037
 20
789.4451124963816
 30
0.0
 11
2178.2259667086037
 21
781.4451124963816
 31
0.0
  0
MTEXT
  5
378
330
36F
100
AcDbEntity
  8
DIM
 62
3
440
16777216
100
AcDbMText
 10
2151.461642015609
 20
749.5818792085483
 30
0.0
 40
25.0
 41
0.0
 46
0.0
 71
5
  1
50
 11
1e-16
 21
1.0
 31
0.0
  0
POINT
  5
379
330
36F
100
AcDbEntity
  8
Defpoints
 62
0
440
16777216
100
AcDbPoint
 10
2219.1626295845053
 20
835.4451124963816
 30
0.0
  0
POINT
  5
37A
330
36F
100
AcDbEntity
  8
Defpoints
 62
0
440
16777216
100
AcDbPoint
 10
2269.1626295845053
 20
785.4451124963816
 30
0.0
  0
POINT
  5
37B
330
36F
100
AcDbEntity
  8
Defpoints
 62
0
440
16777216
100
AcDbPoint
 10
2174.2259667086037
 20
785.4451124963816
 30
0.0
  0
ENDBLK
  5
371
330
36F
100
AcDbEntity
  8
0
100
AcDbBlockEnd
  0
BLOCK
  5
37D
330
37C
100
AcDbEntity
  8
0
100
AcDbBlockBegin
  2
*D28
 70
1
 10
0.0
 20
0.0
 30
0.0
  3
*D28
  1

  0
LINE
  5
37F
330
37C
100
AcDbEntity
  8
DIM
 62
5
370
9
440
16777216
100
AcDbLine
 10
2172.055857273299
 20
480.31054412791855
 30
0.0
 11
2172.055857273299
 21
365.02805279329186
 31
0.0
  0
LINE
  5
380
330
37C
100
AcDbEntity
  8
DIM
 62
5
370
9
440
16777216
100
AcDbLine
 10
2769.0558572734008
 20
480.31054412791855
 30
0.0
 11
2769.0558572734008
 21
365.02805279329186
 31
0.0
  0
LINE
  5
381
330
37C
100
AcDbEntity
  8
DIM
 62
5
370
9
440
16777216
100
AcDbLine
 10
2172.055857273299
 20
375.02805279329186
 30
0.0
 11
2769.0558572734008
 21
375.02805279329186
 31
0.0
  0
LINE
  5
382
330
37C
100
AcDbEntity
  8
0
  6
ByBlock
 62
0
370
-2
100
AcDbLine
 10
2176.055857273299
 20
379.02805279329186
 30
0.0
 11
2168.055857273299
 21
371.02805279329186
 31
0.0
  0
LINE
  5
383
330
37C
100
AcDbEntity
  8
0
  6
ByBlock
 62
0
370
-2
100
AcDbLine
 10
2765.0558572734008
 20
371.02805279329186
 30
0.0
 11
2773.0558572734008
 21
379.02805279329186
 31
0.0
  0
MTEXT
  5
384
330
37C
100
AcDbEntity
  8
DIM
 62
3
440
16777216
100
AcDbMText
 10
2470.5558572734008
 20
397.7923774863302
 30
0.0
 40
25.0
 41
0.0
 46
0.0
 71
5
  1
597
  0
POINT
  5
385
330
37C
100
AcDbEntity
  8
Defpoints
 62
0
440
16777216
100
AcDbPoint
 10
2172.055857273299
 20
495.31054412791855
 30
0.0
  0
POINT
  5
386
330
37C
100
AcDbEntity
  8
Defpoints
 62
0
440
16777216
100
AcDbPoint
 10
2769.0558572734008
 20
495.31054412791855
 30
0.0
  0
POINT
  5
387
330
37C
100
AcDbEntity
  8
Defpoints
 62
0
440
16777216
100
AcDbPoint
 10
2769.0558572734008
 20
375.02805279329186
 30
0.0
  0
ENDBLK
  5
37E
330
37C
100
AcDbEntity
  8
0
100
AcDbBlockEnd
  0
BLOCK
  5
389
330
388
100
AcDbEntity
  8
0
100
AcDbBlockBegin
  2
*D29
 70
1
 10
0.0
 20
0.0
 30
0.0
  3
*D29
  1

  0
LINE
  5
38B
330
388
100
AcDbEntity
  8
DIM
 62
5
370
9
440
16777216
100
AcDbLine
 10
2157.0558572734008
 20
595.3105441279185
 30
0.0
 11
2117.119194397601
 21
595.3105441279185
 31
0.0
  0
LINE
  5
38C
330
388
100
AcDbEntity
  8
DIM
 62
5
370
9
440
16777216
100
AcDbLine
 10
2157.0558572734008
 20
495.31054412791855
 30
0.0
 11
2117.119194397601
 21
495.31054412791855
 31
0.0
  0
LINE
  5
38D
330
388
100
AcDbEntity
  8
DIM
 62
5
370
9
440
16777216
100
AcDbLine
 10
2127.119194397601
 20
595.3105441279185
 30
0.0
 11
2127.119194397601
 21
495.31054412791855
 31
0.0
  0
LINE
  5
38E
330
388
100
AcDbEntity
  8
0
  6
ByBlock
 62
0
370
-2
100
AcDbLine
 10
2131.119194397601
 20
591.3105441279185
 30
0.0
 11
2123.119194397601
 21
599.3105441279185
 31
0.0
  0
LINE
  5
38F
330
388
100
AcDbEntity
  8
0
  6
ByBlock
 62
0
370
-2
100
AcDbLine
 10
2123.119194397601
 20
499.31054412791855
 30
0.0
 11
2131.119194397601
 21
491.31054412791855
 31
0.0
  0
MTEXT
  5
390
330
388
100
AcDbEntity
  8
DIM
 62
3
440
16777216
100
AcDbMText
 10
2104.3548697045044
 20
545.3105441279477
 30
0.0
 40
25.0
 41
0.0
 46
0.0
 71
5
  1
100
 11
1e-16
 21
1.0
 31
0.0
  0
POINT
  5
391
330
388
100
AcDbEntity
  8
Defpoints
 62
0
440
16777216
100
AcDbPoint
 10
2172.055857273299
 20
595.3105441279185
 30
0.0
  0
POINT
  5
392
330
388
100
AcDbEntity
  8
Defpoints
 62
0
440
16777216
100
AcDbPoint
 10
2172.055857273299
 20
495.31054412791855
 30
0.0
  0
POINT
  5
393
330
388
100
AcDbEntity
  8
Defpoints
 62
0
440
16777216
100
AcDbPoint
 10
2127.119194397601
 20
495.31054412791855
 30
0.0
  0
ENDBLK
  5
38A
330
388
100
AcDbEntity
  8
0
100
AcDbBlockEnd
  0
BLOCK
  5
395
330
394
100
AcDbEntity
  8
0
100
AcDbBlockBegin
  2
*D30
 70
1
 10
0.0
 20
0.0
 30
0.0
  3
*D30
  1

  0
LINE
  5
397
330
394
100
AcDbEntity
  8
DIM
 62
5
370
9
440
16777216
100
AcDbLine
 10
2157.0558572734008
 20
495.31054412791855
 30
0.0
 11
2117.119194397499
 21
495.31054412791855
 31
0.0
  0
LINE
  5
398
330
394
100
AcDbEntity
  8
DIM
 62
5
370
9
440
16777216
100
AcDbLine
 10
2207.0558572734008
 20
445.31054412791855
 30
0.0
 11
2117.119194397499
 21
445.31054412791855
 31
0.0
  0
LINE
  5
399
330
394
100
AcDbEntity
  8
DIM
 62
5
370
9
440
16777216
100
AcDbLine
 10
2127.119194397499
 20
495.31054412791855
 30
0.0
 11
2127.119194397499
 21
445.31054412791855
 31
0.0
  0
LINE
  5
39A
330
394
100
AcDbEntity
  8
DIM
 62
5
370
9
440
16777216
100
AcDbLine
 10
2127.119194397499
 20
445.31054412791855
 30
0.0
 11
2127.119194397499
 21
381.5840775522083
 31
0.0
  0
LINE
  5
39B
330
394
100
AcDbEntity
  8
0
  6
ByBlock
 62
0
370
-2
100
AcDbLine
 10
2131.119194397499
 20
491.31054412791855
 30
0.0
 11
2123.119194397499
 21
499.31054412791855
 31
0.0
  0
LINE
  5
39C
330
394
100
AcDbEntity
  8
0
  6
ByBlock
 62
0
370
-2
100
AcDbLine
 10
2123.119194397499
 20
449.31054412791855
 30
0.0
 11
2131.119194397499
 21
441.31054412791855
 31
0.0
  0
MTEXT
  5
39D
330
394
100
AcDbEntity
  8
DIM
 62
3
440
16777216
100
AcDbMText
 10
2104.3548697045044
 20
409.44731084008527
 30
0.0
 40
25.0
 41
0.0
 46
0.0
 71
5
  1
50
 11
1e-16
 21
1.0
 31
0.0
  0
POINT
  5
39E
330
394
100
AcDbEntity
  8
Defpoints
 62
0
440
16777216
100
AcDbPoint
 10
2172.055857273299
 20
495.31054412791855
 30
0.0
  0
POINT
  5
39F
330
394
100
AcDbEntity
  8
Defpoints
 62
0
440
16777216
100
AcDbPoint
 10
2222.0558572734008
 20
445.31054412791855
 30
0.0
  0
POINT
  5
3A0
330
394
100
AcDbEntity
  8
Defpoints
 62
0
440
16777216
100
AcDbPoint
 10
2127.119194397499
 20
445.31054412791855
 30
0.0
  0
ENDBLK
  5
396
330
394
100
AcDbEntity
  8
0
100
AcDbBlockEnd
  0
BLOCK
  5
3A2
330
3A1
100
AcDbEntity
  8
0
100
AcDbBlockBegin
  2
*D31
 70
1
 10
0.0
 20
0.0
 30
0.0
  3
*D31
  1

  0
LINE
  5
3A4
330
3A1
100
AcDbEntity
  8
DIM
 62
5
370
9
 48
3.0
440
16777216
100
AcDbLine
 10
2734.0558572734008
 20
445.31054412791855
 30
0.0
 11
2883.387465458407
 21
445.31054412791855
 31
0.0
  0
LINE
  5
3A5
330
3A1
100
AcDbEntity
  8
DIM
 62
5
370
9
 48
3.0
440
16777216
100
AcDbLine
 10
2734.0558572734008
 20
645.3105441279185
 30
0.0
 11
2883.387465458407
 21
645.3105441279185
 31
0.0
  0
LINE
  5
3A6
330
3A1
100
AcDbEntity
  8
DIM
 62
5
370
9
 48
3.0
440
16777216
100
AcDbLine
 10
2873.387465458407
 20
445.31054412791855
 30
0.0
 11
2873.387465458407
 21
645.3105441279185
 31
0.0
  0
LINE
  5
3A7
330
3A1
100
AcDbEntity
  8
0
  6
ByBlock
 62
0
370
-2
100
AcDbLine
 10
2869.387465458407
 20
449.31054412791855
 30
0.0
 11
2877.387465458407
 21
441.31054412791855
 31
0.0
  0
LINE
  5
3A8
330
3A1
100
AcDbEntity
  8
0
  6
ByBlock
 62
0
370
-2
100
AcDbLine
 10
2877.387465458407
 20
641.3105441279185
 30
0.0
 11
2869.387465458407
 21
649.3105441279185
 31
0.0
  0
MTEXT
  5
3A9
330
3A1
100
AcDbEntity
  8
DIM
 62
3
 48
3.0
440
16777216
100
AcDbMText
 10
2850.6231407653977
 20
545.3105441279477
 30
0.0
 40
25.0
 41
0.0
 46
0.0
 71
5
  1
200
 11
1e-16
 21
1.0
 31
0.0
  0
POINT
  5
3AA
330
3A1
100
AcDbEntity
  8
Defpoints
 62
0
 48
3.0
440
16777216
100
AcDbPoint
 10
2719.0558572734008
 20
445.31054412791855
 30
0.0
  0
POINT
  5
3AB
330
3A1
100
AcDbEntity
  8
Defpoints
 62
0
 48
3.0
440
16777216
100
AcDbPoint
 10
2719.0558572734008
 20
645.3105441279185
 30
0.0
  0
POINT
  5
3AC
330
3A1
100
AcDbEntity
  8
Defpoints
 62
0
 48
3.0
440
16777216
100
AcDbPoint
 10
2873.387465458407
 20
645.3105441279185
 30
0.0
  0
ENDBLK
  5
3A3
330
3A1
100
AcDbEntity
  8
0
100
AcDbBlockEnd
  0
BLOCK
  5
3AE
330
3AD
100
AcDbEntity
  8
0
100
AcDbBlockBegin
  2
*D32
 70
1
 10
0.0
 20
0.0
 30
0.0
  3
*D32
  1

  0
LINE
  5
3B0
330
3AD
100
AcDbEntity
  8
DIM
 62
5
370
9
440
16777216
100
AcDbLine
 10
207.143531145397
 20
888.4296608123404
 30
0.0
 11
144.72937850940798
 21
888.4296608123404
 31
0.0
  0
LINE
  5
3B1
330
3AD
100
AcDbEntity
  8
DIM
 62
5
370
9
440
16777216
100
AcDbLine
 10
207.143531145397
 20
517.4296608123404
 30
0.0
 11
144.72937850940798
 21
517.4296608123404
 31
0.0
  0
LINE
  5
3B2
330
3AD
100
AcDbEntity
  8
DIM
 62
5
370
9
440
16777216
100
AcDbLine
 10
154.72937850940798
 20
888.4296608123404
 30
0.0
 11
154.72937850940798
 21
517.4296608123404
 31
0.0
  0
LINE
  5
3B3
330
3AD
100
AcDbEntity
  8
0
  6
ByBlock
 62
0
370
-2
100
AcDbLine
 10
158.72937850940798
 20
884.4296608123404
 30
0.0
 11
150.72937850940798
 21
892.4296608123404
 31
0.0
  0
LINE
  5
3B4
330
3AD
100
AcDbEntity
  8
0
  6
ByBlock
 62
0
370
-2
100
AcDbLine
 10
150.72937850940798
 20
521.4296608123404
 30
0.0
 11
158.72937850940798
 21
513.4296608123404
 31
0.0
  0
MTEXT
  5
3B5
330
3AD
100
AcDbEntity
  8
DIM
 62
3
440
16777216
100
AcDbMText
 10
131.95652721340593
 20
653.4296608123404
 30
0.0
 40
25.0
 41
0.0
 46
0.0
 71
5
  1
371
 11
1e-16
 21
1.0
 31
0.0
  0
POINT
  5
3B6
330
3AD
100
AcDbEntity
  8
Defpoints
 62
0
440
16777216
100
AcDbPoint
 10
222.143531145397
 20
888.4296608123404
 30
0.0
  0
POINT
  5
3B7
330
3AD
100
AcDbEntity
  8
Defpoints
 62
0
440
16777216
100
AcDbPoint
 10
222.143531145397
 20
517.4296608123404
 30
0.0
  0
POINT
  5
3B8
330
3AD
100
AcDbEntity
  8
Defpoints
 62
0
440
16777216
100
AcDbPoint
 10
154.72937850940798
 20
517.4296608123404
 30
0.0
  0
ENDBLK
  5
3AF
330
3AD
100
AcDbEntity
  8
0
100
AcDbBlockEnd
  0
BLOCK
  5
3BA
330
3B9
100
AcDbEntity
  8
0
100
AcDbBlockBegin
  2
*D33
 70
1
 10
0.0
 20
0.0
 30
0.0
  3
*D33
  1

  0
LINE
  5
3BC
330
3B9
100
AcDbEntity
  8
DIM
 62
5
370
9
440
16777216
100
AcDbLine
 10
207.143531145397
 20
517.4296608123404
 30
0.0
 11
144.72937850940798
 21
517.4296608123404
 31
0.0
  0
LINE
  5
3BD
330
3B9
100
AcDbEntity
  8
DIM
 62
5
370
9
440
16777216
100
AcDbLine
 10
247.143531145397
 20
477.42966081234044
 30
0.0
 11
144.72937850940798
 21
477.42966081234044
 31
0.0
  0
LINE
  5
3BE
330
3B9
100
AcDbEntity
  8
DIM
 62
5
370
9
440
16777216
100
AcDbLine
 10
154.72937850940798
 20
517.4296608123404
 30
0.0
 11
154.72937850940798
 21
477.42966081234044
 31
0.0
  0
LINE
  5
3BF
330
3B9
100
AcDbEntity
  8
0
  6
ByBlock
 62
0
370
-2
100
AcDbLine
 10
158.72937850940798
 20
513.4296608123404
 30
0.0
 11
150.72937850940798
 21
521.4296608123404
 31
0.0
  0
LINE
  5
3C0
330
3B9
100
AcDbEntity
  8
0
  6
ByBlock
 62
0
370
-2
100
AcDbLine
 10
150.72937850940798
 20
481.42966081234044
 30
0.0
 11
158.72937850940798
 21
473.42966081234044
 31
0.0
  0
MTEXT
  5
3C1
330
3B9
100
AcDbEntity
  8
DIM
 62
3
440
16777216
100
AcDbMText
 10
131.96505381639872
 20
497.42966081236955
 30
0.0
 40
25.0
 41
0.0
 46
0.0
 71
5
  1
40
 11
1e-16
 21
1.0
 31
0.0
  0
POINT
  5
3C2
330
3B9
100
AcDbEntity
  8
Defpoints
 62
0
440
16777216
100
AcDbPoint
 10
222.143531145397
 20
517.4296608123404
 30
0.0
  0
POINT
  5
3C3
330
3B9
100
AcDbEntity
  8
Defpoints
 62
0
440
16777216
100
AcDbPoint
 10
262.143531145397
 20
477.42966081234044
 30
0.0
  0
POINT
  5
3C4
330
3B9
100
AcDbEntity
  8
Defpoints
 62
0
440
16777216
100
AcDbPoint
 10
154.72937850940798
 20
477.42966081234044
 30
0.0
  0
ENDBLK
  5
3BB
330
3B9
100
AcDbEntity
  8
0
100
AcDbBlockEnd
  0
BLOCK
  5
3C6
330
3C5
100
AcDbEntity
  8
0
100
AcDbBlockBegin
  2
*D34
 70
1
 10
0.0
 20
0.0
 30
0.0
  3
*D34
  1

  0
LINE
  5
3C8
330
3C5
100
AcDbEntity
  8
DIM
 62
5
370
9
440
16777216
100
AcDbLine
 10
247.143531145397
 20
477.42966081234044
 30
0.0
 11
144.72937850940798
 21
477.42966081234044
 31
0.0
  0
LINE
  5
3C9
330
3C5
100
AcDbEntity
  8
DIM
 62
5
370
9
440
16777216
100
AcDbLine
 10
247.143531145397
 20
465.42966081234044
 30
0.0
 11
144.72937850940798
 21
465.42966081234044
 31
0.0
  0
LINE
  5
3CA
330
3C5
100
AcDbEntity
  8
DIM
 62
5
370
9
440
16777216
100
AcDbLine
 10
154.72937850950984
 20
477.42966081234044
 30
0.0
 11
154.72937850950984
 21
485.42966081234044
 31
0.0
  0
LINE
  5
3CB
330
3C5
100
AcDbEntity
  8
DIM
 62
5
370
9
440
16777216
100
AcDbLine
 10
154.72937850950984
 20
465.42966081234044
 30
0.0
 11
154.72937850950984
 21
396.2270687250275
 31
0.0
  0
LINE
  5
3CC
330
3C5
100
AcDbEntity
  8
DIM
 62
5
370
9
440
16777216
100
AcDbLine
 10
154.72937850950984
 20
477.42966081234044
 30
0.0
 11
154.72937850950984
 21
465.42966081234044
 31
0.0
  0
LINE
  5
3CD
330
3C5
100
AcDbEntity
  8
0
  6
ByBlock
 62
0
370
-2
100
AcDbLine
 10
150.72937850950984
 20
481.42966081234044
 30
0.0
 11
158.72937850950984
 21
473.42966081234044
 31
0.0
  0
LINE
  5
3CE
330
3C5
100
AcDbEntity
  8
0
  6
ByBlock
 62
0
370
-2
100
AcDbLine
 10
158.72937850950984
 20
461.42966081234044
 30
0.0
 11
150.72937850950984
 21
469.42966081234044
 31
0.0
  0
MTEXT
  5
3CF
330
3C5
100
AcDbEntity
  8
DIM
 62
3
440
16777216
100
AcDbMText
 10
132.17821889150946
 20
422.82836476872035
 30
0.0
 40
25.0
 41
0.0
 46
0.0
 71
5
  1
12
 11
1e-16
 21
1.0
 31
0.0
  0
POINT
  5
3D0
330
3C5
100
AcDbEntity
  8
Defpoints
 62
0
440
16777216
100
AcDbPoint
 10
262.143531145397
 20
477.42966081234044
 30
0.0
  0
POINT
  5
3D1
330
3C5
100
AcDbEntity
  8
Defpoints
 62
0
440
16777216
100
AcDbPoint
 10
262.143531145397
 20
465.42966081234044
 30
0.0
  0
POINT
  5
3D2
330
3C5
100
AcDbEntity
  8
Defpoints
 62
0
440
16777216
100
AcDbPoint
 10
154.72937850950984
 20
465.42966081234044
 30
0.0
  0
ENDBLK
  5
3C7
330
3C5
100
AcDbEntity
  8
0
100
AcDbBlockEnd
  0
BLOCK
  5
3D4
330
3D3
100
AcDbEntity
  8
0
100
AcDbBlockBegin
  2
*D35
 70
1
 10
0.0
 20
0.0
 30
0.0
  3
*D35
  1

  0
LINE
  5
3D6
330
3D3
100
AcDbEntity
  8
DIM
 62
5
370
9
440
16777216
100
AcDbLine
 10
837.143531145397
 20
888.4296608123404
 30
0.0
 11
898.3696502052044
 21
888.4296608123404
 31
0.0
  0
LINE
  5
3D7
330
3D3
100
AcDbEntity
  8
DIM
 62
5
370
9
440
16777216
100
AcDbLine
 10
797.143531145397
 20
465.42966081234044
 30
0.0
 11
898.3696502052044
 21
465.42966081234044
 31
0.0
  0
LINE
  5
3D8
330
3D3
100
AcDbEntity
  8
DIM
 62
5
370
9
440
16777216
100
AcDbLine
 10
888.3696502052044
 20
888.4296608123404
 30
0.0
 11
888.3696502052044
 21
465.42966081234044
 31
0.0
  0
LINE
  5
3D9
330
3D3
100
AcDbEntity
  8
0
  6
ByBlock
 62
0
370
-2
100
AcDbLine
 10
892.3696502052044
 20
884.4296608123404
 30
0.0
 11
884.3696502052044
 21
892.4296608123404
 31
0.0
  0
LINE
  5
3DA
330
3D3
100
AcDbEntity
  8
0
  6
ByBlock
 62
0
370
-2
100
AcDbLine
 10
884.3696502052044
 20
469.42966081234044
 30
0.0
 11
892.3696502052044
 21
461.42966081234044
 31
0.0
  0
MTEXT
  5
3DB
330
3D3
100
AcDbEntity
  8
DIM
 62
3
440
16777216
100
AcDbMText
 10
865.5967989092023
 20
676.9296608123695
 30
0.0
 40
25.0
 41
0.0
 46
0.0
 71
5
  1
423
 11
1e-16
 21
1.0
 31
0.0
  0
POINT
  5
3DC
330
3D3
100
AcDbEntity
  8
Defpoints
 62
0
440
16777216
100
AcDbPoint
 10
822.143531145397
 20
888.4296608123404
 30
0.0
  0
POINT
  5
3DD
330
3D3
100
AcDbEntity
  8
Defpoints
 62
0
440
16777216
100
AcDbPoint
 10
782.143531145397
 20
465.42966081234044
 30
0.0
  0
POINT
  5
3DE
330
3D3
100
AcDbEntity
  8
Defpoints
 62
0
440
16777216
100
AcDbPoint
 10
888.3696502052044
 20
465.42966081234044
 30
0.0
  0
ENDBLK
  5
3D5
330
3D3
100
AcDbEntity
  8
0
100
AcDbBlockEnd
  0
BLOCK
  5
3E0
330
3DF
100
AcDbEntity
  8
0
100
AcDbBlockBegin
  2
*D36
 70
1
 10
0.0
 20
0.0
 30
0.0
  3
*D36
  1

  0
LINE
  5
3E2
330
3DF
100
AcDbEntity
  8
DIM
 62
5
370
9
 48
3.0
440
16777216
100
AcDbLine
 10
222.143531145397
 20
903.4296608123404
 30
0.0
 11
222.143531145397
 21
969.0557684384112
 31
0.0
  0
LINE
  5
3E3
330
3DF
100
AcDbEntity
  8
DIM
 62
5
370
9
 48
3.0
440
16777216
100
AcDbLine
 10
822.143531145397
 20
903.4296608123404
 30
0.0
 11
822.143531145397
 21
969.0557684384112
 31
0.0
  0
LINE
  5
3E4
330
3DF
100
AcDbEntity
  8
DIM
 62
5
370
9
 48
3.0
440
16777216
100
AcDbLine
 10
222.143531145397
 20
959.0557684384112
 30
0.0
 11
822.143531145397
 21
959.0557684384112
 31
0.0
  0
LINE
  5
3E5
330
3DF
100
AcDbEntity
  8
0
  6
ByBlock
 62
0
370
-2
100
AcDbLine
 10
226.143531145397
 20
963.0557684384112
 30
0.0
 11
218.143531145397
 21
955.0557684384112
 31
0.0
  0
LINE
  5
3E6
330
3DF
100
AcDbEntity
  8
0
  6
ByBlock
 62
0
370
-2
100
AcDbLine
 10
818.143531145397
 20
955.0557684384112
 30
0.0
 11
826.143531145397
 21
963.0557684384112
 31
0.0
  0
MTEXT
  5
3E7
330
3DF
100
AcDbEntity
  8
DIM
 62
3
 48
3.0
440
16777216
100
AcDbMText
 10
522.143531145397
 20
981.8200931314495
 30
0.0
 40
25.0
 41
0.0
 46
0.0
 71
5
  1
600
  0
POINT
  5
3E8
330
3DF
100
AcDbEntity
  8
Defpoints
 62
0
 48
3.0
440
16777216
100
AcDbPoint
 10
222.143531145397
 20
888.4296608123404
 30
0.0
  0
POINT
  5
3E9
330
3DF
100
AcDbEntity
  8
Defpoints
 62
0
 48
3.0
440
16777216
100
AcDbPoint
 10
822.143531145397
 20
888.4296608123404
 30
0.0
  0
POINT
  5
3EA
330
3DF
100
AcDbEntity
  8
Defpoints
 62
0
 48
3.0
440
16777216
100
AcDbPoint
 10
822.143531145397
 20
959.0557684384112
 30
0.0
  0
ENDBLK
  5
3E1
330
3DF
100
AcDbEntity
  8
0
100
AcDbBlockEnd
  0
BLOCK
  5
3EC
330
3EB
100
AcDbEntity
  8
0
100
AcDbBlockBegin
  2
*D37
 70
1
 10
0.0
 20
0.0
 30
0.0
  3
*D37
  1

  0
LINE
  5
3EE
330
3EB
100
AcDbEntity
  8
DIM
 62
5
370
9
440
16777216
100
AcDbLine
 10
1164.8337465576042
 20
888.4296608123404
 30
0.0
 11
1102.4195939216006
 21
888.4296608123404
 31
0.0
  0
LINE
  5
3EF
330
3EB
100
AcDbEntity
  8
DIM
 62
5
370
9
440
16777216
100
AcDbLine
 10
1164.8337465576042
 20
517.4296608123404
 30
0.0
 11
1102.4195939216006
 21
517.4296608123404
 31
0.0
  0
LINE
  5
3F0
330
3EB
100
AcDbEntity
  8
DIM
 62
5
370
9
440
16777216
100
AcDbLine
 10
1112.4195939216006
 20
888.4296608123404
 30
0.0
 11
1112.4195939216006
 21
517.4296608123404
 31
0.0
  0
LINE
  5
3F1
330
3EB
100
AcDbEntity
  8
0
  6
ByBlock
 62
0
370
-2
100
AcDbLine
 10
1116.4195939216006
 20
884.4296608123404
 30
0.0
 11
1108.4195939216006
 21
892.4296608123404
 31
0.0
  0
LINE
  5
3F2
330
3EB
100
AcDbEntity
  8
0
  6
ByBlock
 62
0
370
-2
100
AcDbLine
 10
1108.4195939216006
 20
521.4296608123404
 30
0.0
 11
1116.4195939216006
 21
513.4296608123404
 31
0.0
  0
MTEXT
  5
3F3
330
3EB
100
AcDbEntity
  8
DIM
 62
3
440
16777216
100
AcDbMText
 10
1089.6467426255986
 20
653.4296608123404
 30
0.0
 40
25.0
 41
0.0
 46
0.0
 71
5
  1
371
 11
1e-16
 21
1.0
 31
0.0
  0
POINT
  5
3F4
330
3EB
100
AcDbEntity
  8
Defpoints
 62
0
440
16777216
100
AcDbPoint
 10
1179.8337465576042
 20
888.4296608123404
 30
0.0
  0
POINT
  5
3F5
330
3EB
100
AcDbEntity
  8
Defpoints
 62
0
440
16777216
100
AcDbPoint
 10
1179.8337465576042
 20
517.4296608123404
 30
0.0
  0
POINT
  5
3F6
330
3EB
100
AcDbEntity
  8
Defpoints
 62
0
440
16777216
100
AcDbPoint
 10
1112.4195939216006
 20
517.4296608123404
 30
0.0
  0
ENDBLK
  5
3ED
330
3EB
100
AcDbEntity
  8
0
100
AcDbBlockEnd
  0
BLOCK
  5
3F8
330
3F7
100
AcDbEntity
  8
0
100
AcDbBlockBegin
  2
*D38
 70
1
 10
0.0
 20
0.0
 30
0.0
  3
*D38
  1

  0
LINE
  5
3FA
330
3F7
100
AcDbEntity
  8
DIM
 62
5
370
9
440
16777216
100
AcDbLine
 10
1164.8337465576042
 20
517.4296608123404
 30
0.0
 11
1102.4195939216006
 21
517.4296608123404
 31
0.0
  0
LINE
  5
3FB
330
3F7
100
AcDbEntity
  8
DIM
 62
5
370
9
440
16777216
100
AcDbLine
 10
1204.8337465576042
 20
477.42966081234044
 30
0.0
 11
1102.4195939216006
 21
477.42966081234044
 31
0.0
  0
LINE
  5
3FC
330
3F7
100
AcDbEntity
  8
DIM
 62
5
370
9
440
16777216
100
AcDbLine
 10
1112.4195939216006
 20
517.4296608123404
 30
0.0
 11
1112.4195939216006
 21
477.42966081234044
 31
0.0
  0
LINE
  5
3FD
330
3F7
100
AcDbEntity
  8
0
  6
ByBlock
 62
0
370
-2
100
AcDbLine
 10
1116.4195939216006
 20
513.4296608123404
 30
0.0
 11
1108.4195939216006
 21
521.4296608123404
 31
0.0
  0
LINE
  5
3FE
330
3F7
100
AcDbEntity
  8
0
  6
ByBlock
 62
0
370
-2
100
AcDbLine
 10
1108.4195939216006
 20
481.42966081234044
 30
0.0
 11
1116.4195939216006
 21
473.42966081234044
 31
0.0
  0
MTEXT
  5
3FF
330
3F7
100
AcDbEntity
  8
DIM
 62
3
440
16777216
100
AcDbMText
 10
1089.655269228606
 20
497.42966081236955
 30
0.0
 40
25.0
 41
0.0
 46
0.0
 71
5
  1
40
 11
1e-16
 21
1.0
 31
0.0
  0
POINT
  5
400
330
3F7
100
AcDbEntity
  8
Defpoints
 62
0
440
16777216
100
AcDbPoint
 10
1179.8337465576042
 20
517.4296608123404
 30
0.0
  0
POINT
  5
401
330
3F7
100
AcDbEntity
  8
Defpoints
 62
0
440
16777216
100
AcDbPoint
 10
1219.8337465576042
 20
477.42966081234044
 30
0.0
  0
POINT
  5
402
330
3F7
100
AcDbEntity
  8
Defpoints
 62
0
440
16777216
100
AcDbPoint
 10
1112.4195939216006
 20
477.42966081234044
 30
0.0
  0
ENDBLK
  5
3F9
330
3F7
100
AcDbEntity
  8
0
100
AcDbBlockEnd
  0
BLOCK
  5
404
330
403
100
AcDbEntity
  8
0
100
AcDbBlockBegin
  2
*D39
 70
1
 10
0.0
 20
0.0
 30
0.0
  3
*D39
  1

  0
LINE
  5
406
330
403
100
AcDbEntity
  8
DIM
 62
5
370
9
440
16777216
100
AcDbLine
 10
1204.8337465576042
 20
477.42966081234044
 30
0.0
 11
1102.4195939216006
 21
477.42966081234044
 31
0.0
  0
LINE
  5
407
330
403
100
AcDbEntity
  8
DIM
 62
5
370
9
440
16777216
100
AcDbLine
 10
1204.8337465576042
 20
465.42966081234044
 30
0.0
 11
1102.4195939216006
 21
465.42966081234044
 31
0.0
  0
LINE
  5
408
330
403
100
AcDbEntity
  8
DIM
 62
5
370
9
440
16777216
100
AcDbLine
 10
1112.4195939216006
 20
477.42966081234044
 30
0.0
 11
1112.4195939216006
 21
485.42966081234044
 31
0.0
  0
LINE
  5
409
330
403
100
AcDbEntity
  8
DIM
 62
5
370
9
440
16777216
100
AcDbLine
 10
1112.4195939216006
 20
465.42966081234044
 30
0.0
 11
1112.4195939216006
 21
396.2270687250275
 31
0.0
  0
LINE
  5
40A
330
403
100
AcDbEntity
  8
DIM
 62
5
370
9
440
16777216
100
AcDbLine
 10
1112.4195939216006
 20
477.42966081234044
 30
0.0
 11
1112.4195939216006
 21
465.42966081234044
 31
0.0
  0
LINE
  5
40B
330
403
100
AcDbEntity
  8
0
  6
ByBlock
 62
0
370
-2
100
AcDbLine
 10
1108.4195939216006
 20
481.42966081234044
 30
0.0
 11
1116.4195939216006
 21
473.42966081234044
 31
0.0
  0
LINE
  5
40C
330
403
100
AcDbEntity
  8
0
  6
ByBlock
 62
0
370
-2
100
AcDbLine
 10
1116.4195939216006
 20
461.42966081234044
 30
0.0
 11
1108.4195939216006
 21
469.42966081234044
 31
0.0
  0
MTEXT
  5
40D
330
403
100
AcDbEntity
  8
DIM
 62
3
440
16777216
100
AcDbMText
 10
1089.8684343036002
 20
422.82836476872035
 30
0.0
 40
25.0
 41
0.0
 46
0.0
 71
5
  1
12
 11
1e-16
 21
1.0
 31
0.0
  0
POINT
  5
40E
330
403
100
AcDbEntity
  8
Defpoints
 62
0
440
16777216
100
AcDbPoint
 10
1219.8337465576042
 20
477.42966081234044
 30
0.0
  0
POINT
  5
40F
330
403
100
AcDbEntity
  8
Defpoints
 62
0
440
16777216
100
AcDbPoint
 10
1219.8337465576042
 20
465.42966081234044
 30
0.0
  0
POINT
  5
410
330
403
100
AcDbEntity
  8
Defpoints
 62
0
440
16777216
100
AcDbPoint
 10
1112.4195939216006
 20
465.42966081234044
 30
0.0
  0
ENDBLK
  5
405
330
403
100
AcDbEntity
  8
0
100
AcDbBlockEnd
  0
BLOCK
  5
412
330
411
100
AcDbEntity
  8
0
100
AcDbBlockBegin
  2
*D40
 70
1
 10
0.0
 20
0.0
 30
0.0
  3
*D40
  1

  0
LINE
  5
414
330
411
100
AcDbEntity
  8
DIM
 62
5
370
9
440
16777216
100
AcDbLine
 10
1794.8337465576042
 20
888.4296608123404
 30
0.0
 11
1856.059865617397
 21
888.4296608123404
 31
0.0
  0
LINE
  5
415
330
411
100
AcDbEntity
  8
DIM
 62
5
370
9
440
16777216
100
AcDbLine
 10
1754.8337465576042
 20
465.42966081234044
 30
0.0
 11
1856.059865617397
 21
465.42966081234044
 31
0.0
  0
LINE
  5
416
330
411
100
AcDbEntity
  8
DIM
 62
5
370
9
440
16777216
100
AcDbLine
 10
1846.059865617397
 20
888.4296608123404
 30
0.0
 11
1846.059865617397
 21
465.42966081234044
 31
0.0
  0
LINE
  5
417
330
411
100
AcDbEntity
  8
0
  6
ByBlock
 62
0
370
-2
100
AcDbLine
 10
1850.059865617397
 20
884.4296608123404
 30
0.0
 11
1842.059865617397
 21
892.4296608123404
 31
0.0
  0
LINE
  5
418
330
411
100
AcDbEntity
  8
0
  6
ByBlock
 62
0
370
-2
100
AcDbLine
 10
1842.059865617397
 20
469.42966081234044
 30
0.0
 11
1850.059865617397
 21
461.42966081234044
 31
0.0
  0
MTEXT
  5
419
330
411
100
AcDbEntity
  8
DIM
 62
3
440
16777216
100
AcDbMText
 10
1823.2870143213077
 20
676.9296608123695
 30
0.0
 40
25.0
 41
0.0
 46
0.0
 71
5
  1
423
 11
1e-16
 21
1.0
 31
0.0
  0
POINT
  5
41A
330
411
100
AcDbEntity
  8
Defpoints
 62
0
440
16777216
100
AcDbPoint
 10
1779.8337465576042
 20
888.4296608123404
 30
0.0
  0
POINT
  5
41B
330
411
100
AcDbEntity
  8
Defpoints
 62
0
440
16777216
100
AcDbPoint
 10
1739.8337465576042
 20
465.42966081234044
 30
0.0
  0
POINT
  5
41C
330
411
100
AcDbEntity
  8
Defpoints
 62
0
440
16777216
100
AcDbPoint
 10
1846.059865617397
 20
465.42966081234044
 30
0.0
  0
ENDBLK
  5
413
330
411
100
AcDbEntity
  8
0
100
AcDbBlockEnd
  0
BLOCK
  5
41E
330
41D
100
AcDbEntity
  8
0
100
AcDbBlockBegin
  2
*D41
 70
1
 10
0.0
 20
0.0
 30
0.0
  3
*D41
  1

  0
LINE
  5
420
330
41D
100
AcDbEntity
  8
DIM
 62
5
370
9
 48
3.0
440
16777216
100
AcDbLine
 10
1179.8337465576042
 20
903.4296608123404
 30
0.0
 11
1179.8337465576042
 21
969.0557684384112
 31
0.0
  0
LINE
  5
421
330
41D
100
AcDbEntity
  8
DIM
 62
5
370
9
 48
3.0
440
16777216
100
AcDbLine
 10
1779.8337465576042
 20
903.4296608123404
 30
0.0
 11
1779.8337465576042
 21
969.0557684384112
 31
0.0
  0
LINE
  5
422
330
41D
100
AcDbEntity
  8
DIM
 62
5
370
9
 48
3.0
440
16777216
100
AcDbLine
 10
1179.8337465576042
 20
959.0557684384112
 30
0.0
 11
1779.8337465576042
 21
959.0557684384112
 31
0.0
  0
LINE
  5
423
330
41D
100
AcDbEntity
  8
0
  6
ByBlock
 62
0
370
-2
100
AcDbLine
 10
1183.8337465576042
 20
963.0557684384112
 30
0.0
 11
1175.8337465576042
 21
955.0557684384112
 31
0.0
  0
LINE
  5
424
330
41D
100
AcDbEntity
  8
0
  6
ByBlock
 62
0
370
-2
100
AcDbLine
 10
1775.8337465576042
 20
955.0557684384112
 30
0.0
 11
1783.8337465576042
 21
963.0557684384112
 31
0.0
  0
MTEXT
  5
425
330
41D
100
AcDbEntity
  8
DIM
 62
3
 48
3.0
440
16777216
100
AcDbMText
 10
1479.8337465576042
 20
981.8200931314495
 30
0.0
 40
25.0
 41
0.0
 46
0.0
 71
5
  1
600
  0
POINT
  5
426
330
41D
100
AcDbEntity
  8
Defpoints
 62
0
 48
3.0
440
16777216
100
AcDbPoint
 10
1179.8337465576042
 20
888.4296608123404
 30
0.0
  0
POINT
  5
427
330
41D
100
AcDbEntity
  8
Defpoints
 62
0
 48
3.0
440
16777216
100
AcDbPoint
 10
1779.8337465576042
 20
888.4296608123404
 30
0.0
  0
POINT
  5
428
330
41D
100
AcDbEntity
  8
Defpoints
 62
0
 48
3.0
440
16777216
100
AcDbPoint
 10
1779.8337465576042
 20
959.0557684384112
 30
0.0
  0
ENDBLK
  5
41F
330
41D
100
AcDbEntity
  8
0
100
AcDbBlockEnd
  0
BLOCK
  5
42A
330
429
100
AcDbEntity
  8
0
100
AcDbBlockBegin
  2
*D42
 70
1
 10
0.0
 20
0.0
 30
0.0
  3
*D42
  1

  0
LINE
  5
42C
330
429
100
AcDbEntity
  8
DIM
 62
5
370
9
440
16777216
100
AcDbLine
 10
4247.219106775607
 20
2794.5580684195447
 30
0.0
 11
4247.219106775607
 21
2847.7408519601304
 31
0.0
  0
LINE
  5
42D
330
429
100
AcDbEntity
  8
DIM
 62
5
370
9
440
16777216
100
AcDbLine
 10
4259.219106775607
 20
2782.5580684195447
 30
0.0
 11
4259.219106775607
 21
2847.7408519601304
 31
0.0
  0
LINE
  5
42E
330
429
100
AcDbEntity
  8
DIM
 62
5
370
9
440
16777216
100
AcDbLine
 10
4247.219106775607
 20
2837.740851960116
 30
0.0
 11
4239.219106775607
 21
2837.740851960116
 31
0.0
  0
LINE
  5
42F
330
429
100
AcDbEntity
  8
DIM
 62
5
370
9
440
16777216
100
AcDbLine
 10
4259.219106775607
 20
2837.740851960116
 30
0.0
 11
4328.421698862905
 21
2837.740851960116
 31
0.0
  0
LINE
  5
430
330
429
100
AcDbEntity
  8
DIM
 62
5
370
9
440
16777216
100
AcDbLine
 10
4247.219106775607
 20
2837.740851960116
 30
0.0
 11
4259.219106775607
 21
2837.740851960116
 31
0.0
  0
LINE
  5
431
330
429
100
AcDbEntity
  8
0
  6
ByBlock
 62
0
370
-2
100
AcDbLine
 10
4243.219106775607
 20
2833.740851960116
 30
0.0
 11
4251.219106775607
 21
2841.740851960116
 31
0.0
  0
LINE
  5
432
330
429
100
AcDbEntity
  8
0
  6
ByBlock
 62
0
370
-2
100
AcDbLine
 10
4263.219106775607
 20
2841.740851960116
 30
0.0
 11
4255.219106775607
 21
2833.740851960116
 31
0.0
  0
MTEXT
  5
433
330
429
100
AcDbEntity
  8
DIM
 62
3
440
16777216
100
AcDbMText
 10
4301.820402819198
 20
2860.2920115781308
 30
0.0
 40
25.0
 41
0.0
 46
0.0
 71
5
  1
12
  0
POINT
  5
434
330
429
100
AcDbEntity
  8
Defpoints
 62
0
440
16777216
100
AcDbPoint
 10
4247.219106775607
 20
2779.5580684195593
 30
0.0
  0
POINT
  5
435
330
429
100
AcDbEntity
  8
Defpoints
 62
0
440
16777216
100
AcDbPoint
 10
4259.219106775607
 20
2767.5580684195447
 30
0.0
  0
POINT
  5
436
330
429
100
AcDbEntity
  8
Defpoints
 62
0
440
16777216
100
AcDbPoint
 10
4259.219106775607
 20
2837.740851960116
 30
0.0
  0
ENDBLK
  5
42B
330
429
100
AcDbEntity
  8
0
100
AcDbBlockEnd
  0
BLOCK
  5
438
330
437
100
AcDbEntity
  8
0
100
AcDbBlockBegin
  2
*D43
 70
1
 10
0.0
 20
0.0
 30
0.0
  3
*D43
  1

  0
LINE
  5
43A
330
437
100
AcDbEntity
  8
DIM
 62
5
370
9
440
16777216
100
AcDbLine
 10
4225.219106775505
 20
2816.5580684195447
 30
0.0
 11
4225.219106775505
 21
2886.418844152111
 31
0.0
  0
LINE
  5
43B
330
437
100
AcDbEntity
  8
DIM
 62
5
370
9
440
16777216
100
AcDbLine
 10
4247.219106775607
 20
2794.5580684195447
 30
0.0
 11
4247.219106775607
 21
2886.418844152111
 31
0.0
  0
LINE
  5
43C
330
437
100
AcDbEntity
  8
DIM
 62
5
370
9
440
16777216
100
AcDbLine
 10
4225.219106775505
 20
2876.4188441520964
 30
0.0
 11
4247.219106775607
 21
2876.4188441520964
 31
0.0
  0
LINE
  5
43D
330
437
100
AcDbEntity
  8
DIM
 62
5
370
9
440
16777216
100
AcDbLine
 10
4247.219106775607
 20
2876.4188441520964
 30
0.0
 11
4311.201371441304
 21
2876.4188441520964
 31
0.0
  0
LINE
  5
43E
330
437
100
AcDbEntity
  8
0
  6
ByBlock
 62
0
370
-2
100
AcDbLine
 10
4229.219106775505
 20
2880.4188441520964
 30
0.0
 11
4221.219106775505
 21
2872.4188441520964
 31
0.0
  0
LINE
  5
43F
330
437
100
AcDbEntity
  8
0
  6
ByBlock
 62
0
370
-2
100
AcDbLine
 10
4243.219106775607
 20
2872.4188441520964
 30
0.0
 11
4251.219106775607
 21
2880.4188441520964
 31
0.0
  0
MTEXT
  5
440
330
437
100
AcDbEntity
  8
DIM
 62
3
440
16777216
100
AcDbMText
 10
4283.2102391084045
 20
2898.9700037701114
 30
0.0
 40
25.0
 41
0.0
 46
0.0
 71
5
  1
22
  0
POINT
  5
441
330
437
100
AcDbEntity
  8
Defpoints
 62
0
440
16777216
100
AcDbPoint
 10
4225.219106775505
 20
2801.5580684195447
 30
0.0
  0
POINT
  5
442
330
437
100
AcDbEntity
  8
Defpoints
 62
0
440
16777216
100
AcDbPoint
 10
4247.219106775607
 20
2779.5580684195593
 30
0.0
  0
POINT
  5
443
330
437
100
AcDbEntity
  8
Defpoints
 62
0
440
16777216
100
AcDbPoint
 10
4247.219106775607
 20
2876.4188441520964
 30
0.0
  0
ENDBLK
  5
439
330
437
100
AcDbEntity
  8
0
100
AcDbBlockEnd
  0
BLOCK
  5
445
330
444
100
AcDbEntity
  8
0
100
AcDbBlockBegin
  2
*D44
 70
1
 10
0.0
 20
0.0
 30
0.0
  3
*D44
  1

  0
LINE
  5
447
330
444
100
AcDbEntity
  8
DIM
 62
5
370
9
440
16777216
100
AcDbLine
 10
4225.219106775505
 20
2816.5580684195447
 30
0.0
 11
4225.219106775505
 21
2886.418844152111
 31
0.0
  0
LINE
  5
448
330
444
100
AcDbEntity
  8
DIM
 62
5
370
9
440
16777216
100
AcDbLine
 10
3628.2191067756066
 20
2816.5580684195447
 30
0.0
 11
3628.2191067756066
 21
2886.418844152111
 31
0.0
  0
LINE
  5
449
330
444
100
AcDbEntity
  8
DIM
 62
5
370
9
440
16777216
100
AcDbLine
 10
4225.219106775505
 20
2876.4188441520964
 30
0.0
 11
3628.2191067756066
 21
2876.4188441520964
 31
0.0
  0
LINE
  5
44A
330
444
100
AcDbEntity
  8
0
  6
ByBlock
 62
0
370
-2
100
AcDbLine
 10
4221.219106775505
 20
2872.4188441520964
 30
0.0
 11
4229.219106775505
 21
2880.4188441520964
 31
0.0
  0
LINE
  5
44B
330
444
100
AcDbEntity
  8
0
  6
ByBlock
 62
0
370
-2
100
AcDbLine
 10
3632.2191067756066
 20
2880.4188441520964
 30
0.0
 11
3624.2191067756066
 21
2872.4188441520964
 31
0.0
  0
MTEXT
  5
44C
330
444
100
AcDbEntity
  8
DIM
 62
3
440
16777216
100
AcDbMText
 10
3926.7191067755048
 20
2899.1831688451493
 30
0.0
 40
25.0
 41
0.0
 46
0.0
 71
5
  1
597
  0
POINT
  5
44D
330
444
100
AcDbEntity
  8
Defpoints
 62
0
440
16777216
100
AcDbPoint
 10
4225.219106775505
 20
2801.5580684195447
 30
0.0
  0
POINT
  5
44E
330
444
100
AcDbEntity
  8
Defpoints
 62
0
440
16777216
100
AcDbPoint
 10
3628.2191067756066
 20
2801.5580684195447
 30
0.0
  0
POINT
  5
44F
330
444
100
AcDbEntity
  8
Defpoints
 62
0
440
16777216
100
AcDbPoint
 10
3628.2191067756066
 20
2876.4188441520964
 30
0.0
  0
ENDBLK
  5
446
330
444
100
AcDbEntity
  8
0
100
AcDbBlockEnd
  0
BLOCK
  5
451
330
450
100
AcDbEntity
  8
0
100
AcDbBlockBegin
  2
*D45
 70
1
 10
0.0
 20
0.0
 30
0.0
  3
*D45
  1

  0
LINE
  5
453
330
450
100
AcDbEntity
  8
DIM
 62
5
370
9
440
16777216
100
AcDbLine
 10
3625.3525009368022
 20
2813.5580684195447
 30
0.0
 11
3483.460022614803
 21
2813.5580684195447
 31
0.0
  0
LINE
  5
454
330
450
100
AcDbEntity
  8
DIM
 62
5
370
9
440
16777216
100
AcDbLine
 10
3625.398595254199
 20
1349.5580684195447
 30
0.0
 11
3483.460022614803
 21
1349.5580684195447
 31
0.0
  0
LINE
  5
455
330
450
100
AcDbEntity
  8
DIM
 62
5
370
9
440
16777216
100
AcDbLine
 10
3493.460022614803
 20
2813.5580684195447
 30
0.0
 11
3493.460022614803
 21
1349.5580684195447
 31
0.0
  0
LINE
  5
456
330
450
100
AcDbEntity
  8
0
  6
ByBlock
 62
0
370
-2
100
AcDbLine
 10
3497.460022614803
 20
2809.5580684195447
 30
0.0
 11
3489.460022614803
 21
2817.5580684195447
 31
0.0
  0
LINE
  5
457
330
450
100
AcDbEntity
  8
0
  6
ByBlock
 62
0
370
-2
100
AcDbLine
 10
3489.460022614803
 20
1353.5580684195447
 30
0.0
 11
3497.460022614803
 21
1345.5580684195447
 31
0.0
  0
MTEXT
  5
458
330
450
100
AcDbEntity
  8
DIM
 62
3
440
16777216
100
AcDbMText
 10
3470.6956979218085
 20
2081.558068419574
 30
0.0
 40
25.0
 41
0.0
 46
0.0
 71
5
  1
1464
 11
1e-16
 21
1.0
 31
0.0
  0
POINT
  5
459
330
450
100
AcDbEntity
  8
Defpoints
 62
0
440
16777216
100
AcDbPoint
 10
3640.3525009368022
 20
2813.5580684195447
 30
0.0
  0
POINT
  5
45A
330
450
100
AcDbEntity
  8
Defpoints
 62
0
440
16777216
100
AcDbPoint
 10
3640.3985952543007
 20
1349.5580684195447
 30
0.0
  0
POINT
  5
45B
330
450
100
AcDbEntity
  8
Defpoints
 62
0
440
16777216
100
AcDbPoint
 10
3493.460022614803
 20
1349.5580684195447
 30
0.0
  0
ENDBLK
  5
452
330
450
100
AcDbEntity
  8
0
100
AcDbBlockEnd
  0
BLOCK
  5
45D
330
45C
100
AcDbEntity
  8
0
100
AcDbBlockBegin
  2
*D46
 70
1
 10
0.0
 20
0.0
 30
0.0
  3
*D46
  1

  0
LINE
  5
45F
330
45C
100
AcDbEntity
  8
DIM
 62
5
370
9
440
16777216
100
AcDbLine
 10
3591.2191067755048
 20
1383.5580684195447
 30
0.0
 11
3546.1445131595974
 21
1383.5580684195447
 31
0.0
  0
LINE
  5
460
330
45C
100
AcDbEntity
  8
DIM
 62
5
370
9
440
16777216
100
AcDbLine
 10
3591.2191067755048
 20
2779.5580684195593
 30
0.0
 11
3546.1445131595974
 21
2779.5580684195593
 31
0.0
  0
LINE
  5
461
330
45C
100
AcDbEntity
  8
DIM
 62
5
370
9
440
16777216
100
AcDbLine
 10
3556.1445131595974
 20
1383.5580684195447
 30
0.0
 11
3556.1445131595974
 21
2779.5580684195593
 31
0.0
  0
LINE
  5
462
330
45C
100
AcDbEntity
  8
0
  6
ByBlock
 62
0
370
-2
100
AcDbLine
 10
3552.1445131595974
 20
1387.5580684195447
 30
0.0
 11
3560.1445131595974
 21
1379.5580684195447
 31
0.0
  0
LINE
  5
463
330
45C
100
AcDbEntity
  8
0
  6
ByBlock
 62
0
370
-2
100
AcDbLine
 10
3560.1445131595974
 20
2775.5580684195593
 30
0.0
 11
3552.1445131595974
 21
2783.5580684195593
 31
0.0
  0
MTEXT
  5
464
330
45C
100
AcDbEntity
  8
DIM
 62
3
440
16777216
100
AcDbMText
 10
3533.37166186361
 20
2081.558068419574
 30
0.0
 40
25.0
 41
0.0
 46
0.0
 71
5
  1
1396
 11
1e-16
 21
1.0
 31
0.0
  0
POINT
  5
465
330
45C
100
AcDbEntity
  8
Defpoints
 62
0
440
16777216
100
AcDbPoint
 10
3606.2191067756066
 20
1383.5580684195447
 30
0.0
  0
POINT
  5
466
330
45C
100
AcDbEntity
  8
Defpoints
 62
0
440
16777216
100
AcDbPoint
 10
3606.2191067756066
 20
2779.5580684195593
 30
0.0
  0
POINT
  5
467
330
45C
100
AcDbEntity
  8
Defpoints
 62
0
440
16777216
100
AcDbPoint
 10
3556.1445131595974
 20
2779.5580684195593
 30
0.0
  0
ENDBLK
  5
45E
330
45C
100
AcDbEntity
  8
0
100
AcDbBlockEnd
  0
BLOCK
  5
469
330
468
100
AcDbEntity
  8
0
100
AcDbBlockBegin
  2
*D47
 70
1
 10
0.0
 20
0.0
 30
0.0
  3
*D47
  1

  0
LINE
  5
46B
330
468
100
AcDbEntity
  8
DIM
 62
5
370
9
440
16777216
100
AcDbLine
 10
3594.2191067755048
 20
1380.5580684195447
 30
0.0
 11
3594.2191067755048
 21
1276.6194982571906
 31
0.0
  0
LINE
  5
46C
330
468
100
AcDbEntity
  8
DIM
 62
5
370
9
440
16777216
100
AcDbLine
 10
4259.219106775607
 20
1380.5580684195447
 30
0.0
 11
4259.219106775607
 21
1276.6194982571906
 31
0.0
  0
LINE
  5
46D
330
468
100
AcDbEntity
  8
DIM
 62
5
370
9
440
16777216
100
AcDbLine
 10
3594.2191067755048
 20
1286.619498257176
 30
0.0
 11
4259.219106775607
 21
1286.619498257176
 31
0.0
  0
LINE
  5
46E
330
468
100
AcDbEntity
  8
0
  6
ByBlock
 62
0
370
-2
100
AcDbLine
 10
3598.2191067755048
 20
1290.619498257176
 30
0.0
 11
3590.2191067755048
 21
1282.619498257176
 31
0.0
  0
LINE
  5
46F
330
468
100
AcDbEntity
  8
0
  6
ByBlock
 62
0
370
-2
100
AcDbLine
 10
4255.219106775607
 20
1282.619498257176
 30
0.0
 11
4263.219106775607
 21
1290.619498257176
 31
0.0
  0
MTEXT
  5
470
330
468
100
AcDbEntity
  8
DIM
 62
3
440
16777216
100
AcDbMText
 10
3926.7191067755048
 20
1309.3838229502144
 30
0.0
 40
25.0
 41
0.0
 46
0.0
 71
5
  1
665
  0
POINT
  5
471
330
468
100
AcDbEntity
  8
Defpoints
 62
0
440
16777216
100
AcDbPoint
 10
3594.2191067755048
 20
1395.5580684195447
 30
0.0
  0
POINT
  5
472
330
468
100
AcDbEntity
  8
Defpoints
 62
0
440
16777216
100
AcDbPoint
 10
4259.219106775607
 20
1395.5580684195447
 30
0.0
  0
POINT
  5
473
330
468
100
AcDbEntity
  8
Defpoints
 62
0
440
16777216
100
AcDbPoint
 10
4259.219106775607
 20
1286.619498257176
 30
0.0
  0
ENDBLK
  5
46A
330
468
100
AcDbEntity
  8
0
100
AcDbBlockEnd
  0
ENDSEC
  0
SECTION
  2
ENTITIES
  0
INSERT
  5
2F
330
17
100
AcDbEntity
  8
0
 62
7
100
AcDbBlockReference
 66
1
  2
khungtenAsean2
 10
0.0
 20
3074.6099999950384
 30
0.0
 41
1.464099999997415
 42
1.464099999997415
 43
1.464099999997415
  0
ATTRIB
  5
30
330
2F
100
AcDbEntity
  8
0
 62
1
100
AcDbText
 10
4222.1191841736
 20
47.80608586152084
 30
0.0
 40
36.60250000000002
  1
......
  7
Tahoma (Input Text)
 72
1
 11
4267.8415817559
 21
47.80608586152084
 31
0.0
100
AcDbAttribute
  2
#11
 70
0
 71
1
 72
0
 11
4267.8415817559
 21
47.80608586152084
 31
0.0
  0
ATTRIB
  5
31
330
2F
100
AcDbEntity
  8
0
 62
1
100
AcDbText
 10
3143.0083267394075
 20
115.26096255677112
 30
0.0
 40
36.60250000000002
  1
......
  7
Tahoma (Input Text)
100
AcDbAttribute
  2
#09
 70
0
 71
1
 72
0
  0
ATTRIB
  5
32
330
2F
100
AcDbEntity
  8
0
 62
1
100
AcDbText
 10
3143.0083267394075
 20
27.414962556780665
 30
0.0
 40
36.60250000000002
  1
......
  7
Tahoma (Input Text)
100
AcDbAttribute
  2
#10
 70
0
 71
1
 72
0
  0
ATTRIB
  5
33
330
2F
100
AcDbEntity
  8
0
 62
1
100
AcDbText
 10
2660.9252738102077
 20
27.414962556780665
 30
0.0
 40
36.60250000000002
  1
......
  7
Tahoma (Input Text)
100
AcDbAttribute
  2
#08
 70
0
 71
1
 72
0
  0
ATTRIB
  5
34
330
2F
100
AcDbEntity
  8
0
 62
1
100
AcDbText
 10
2686.1571992676036
 20
115.26096255677112
 30
0.0
 40
36.60250000000002
  1
......
  7
Tahoma (Input Text)
100
AcDbAttribute
  2
#07
 70
0
 71
1
 72
0
  0
ATTRIB
  5
35
330
2F
100
AcDbEntity
  8
0
 62
1
100
AcDbText
 10
1559.7509547952068
 20
27.414962556780665
 30
0.0
 40
36.60250000000002
  1
......
  7
Tahoma (Input Text)
100
AcDbAttribute
  2
#06
 70
0
 71
1
 72
0
  0
ATTRIB
  5
36
330
2F
100
AcDbEntity
  8
0
 62
1
100
AcDbText
 10
1620.2143141245033
 20
115.26096255677112
 30
0.0
 40
36.60250000000002
  1
......
  7
Tahoma (Input Text)
100
AcDbAttribute
  2
#05
 70
0
 71
1
 72
0
  0
ATTRIB
  5
37
330
2F
100
AcDbEntity
  8
0
 62
1
100
AcDbText
 10
711.706370038708
 20
27.414962556780665
 30
0.0
 40
36.60250000000002
  1
......
  7
Tahoma (Input Text)
100
AcDbAttribute
  2
#04
 70
0
 71
1
 72
0
  0
ATTRIB
  5
38
330
2F
100
AcDbEntity
  8
0
 62
1
100
AcDbText
 10
741.6702335328009
 20
118.15052671804733
 30
0.0
 40
36.60250000000002
  1
......
  7
Tahoma (Input Text)
100
AcDbAttribute
  2
#03
 70
0
 71
1
 72
0
  0
ATTRIB
  5
39
330
2F
100
AcDbEntity
  8
0
 62
1
100
AcDbText
 10
144.15049034509866
 20
27.414962556780665
 30
0.0
 40
36.60250000000002
  1
......
  7
Tahoma (Input Text)
100
AcDbAttribute
  2
#02
 70
0
 71
1
 72
0
  0
ATTRIB
  5
3A
330
2F
100
AcDbEntity
  8
0
 62
1
100
AcDbText
 10
200.6600408249069
 20
115.26096255677112
 30
0.0
 40
36.60250000000002
  1
......
  7
Tahoma (Input Text)
100
AcDbAttribute
  2
#01
 70
0
 71
1
 72
0
  0
SEQEND
  5
3B
330
17
100
AcDbEntity
  8
0
 62
7
  0
LWPOLYLINE
  5
3C
330
17
100
AcDbEntity
  8
0
 62
7
100
AcDbPolyline
 90
4
 70
0
 10
791.6501066727069
 20
2739.5580684195447
 10
803.6501066727069
 20
2739.5580684195447
 10
803.6501066727069
 20
1422.5580684195447
 10
791.6501066727069
 20
1422.5580684195447
  0
LWPOLYLINE
  5
3D
330
17
100
AcDbEntity
  8
0
 62
7
100
AcDbPolyline
 90
2
 70
0
 10
751.6501066727069
 20
1382.5580684195447
 10
336.6501066727069
 20
1382.5580684195447
  0
LWPOLYLINE
  5
3E
330
17
100
AcDbEntity
  8
0
 62
7
100
AcDbPolyline
 90
2
 70
0
 10
336.6501066727069
 20
2779.5580684195593
 10
751.6501066727069
 20
2779.5580684195593
  0
LINE
  5
3F
330
17
100
AcDbEntity
  8
0
 62
7
100
AcDbLine
 10
791.6501066727069
 20
2739.5580684195447
 30
0.0
 11
791.6501066727069
 21
1422.5580684195447
 31
0.0
  0
LINE
  5
40
330
17
100
AcDbEntity
  8
0
 62
7
100
AcDbLine
 10
751.6501066727069
 20
2779.5580684195593
 30
0.0
 11
751.6501066727069
 21
1382.5580684195447
 31
0.0
  0
LINE
  5
41
330
17
100
AcDbEntity
  8
0
 62
7
100
AcDbLine
 10
381.6501066727069
 20
2779.5580684195593
 30
0.0
 11
381.6501066727069
 21
1382.5580684195447
 31
0.0
  0
LINE
  5
42
330
17
100
AcDbEntity
  8
0
 62
7
100
AcDbLine
 10
336.6501066727069
 20
2779.5580684195593
 30
0.0
 11
336.6501066727069
 21
1382.5580684195447
 31
0.0
  0
LINE
  5
43
330
17
100
AcDbEntity
  8
0
 62
7
100
AcDbLine
 10
346.6501066727069
 20
2779.5580684195593
 30
0.0
 11
346.6501066727069
 21
1382.5580684195447
 31
0.0
  0
DIMENSION
  5
44
330
17
100
AcDbEntity
  8
DIM
 62
7
100
AcDbDimension
280
0
  2
*D1
  3
Dim-25
 10
751.6501066727069
 20
2846.9722210555046
 30
0.0
 11
616.6501066727069
 21
2846.9722210555046
 31
0.0
 70
160
 71
5
 42
370.0
 73
0
 74
0
 75
0
100
AcDbAlignedDimension
 13
381.6501066727069
 23
2779.5580684195593
 33
0.0
 14
751.6501066727069
 24
2779.5580684195593
 34
0.0
 50
0.0
100
AcDbRotatedDimension
  0
DIMENSION
  5
49
330
17
100
AcDbEntity
  8
DIM
 62
7
100
AcDbDimension
280
0
  2
*D2
  3
Dim-25
 10
791.6501066727069
 20
2846.9722210555046
 30
0.0
 11
771.6501066727069
 21
2846.9722210555046
 31
0.0
 70
160
 71
5
 42
40.0
 73
0
 74
0
 75
0
100
AcDbAlignedDimension
 13
751.6501066727069
 23
2779.5580684195593
 33
0.0
 14
791.6501066727069
 24
2739.5580684195447
 34
0.0
 50
0.0
100
AcDbRotatedDimension
  0
DIMENSION
  5
4A
330
17
100
AcDbEntity
  8
DIM
 62
7
100
AcDbDimension
280
0
  2
*D3
  3
Dim-25
 10
803.6501066727069
 20
2846.9722210555046
 30
0.0
 11
846.2514027163998
 21
2869.5233806735196
 31
0.0
 70
32
 71
5
 42
12.0
 73
0
 74
0
 75
0
100
AcDbAlignedDimension
 13
791.6501066727069
 23
2739.5580684195447
 33
0.0
 14
803.6501066727069
 24
2739.5580684195447
 34
0.0
 50
0.0
100
AcDbRotatedDimension
  0
LINE
  5
4B
330
17
100
AcDbEntity
  8
0
 62
7
100
AcDbLine
 10
751.6501066727069
 20
1382.5580684195447
 30
0.0
 11
791.6501066727069
 21
1422.5580684195447
 31
0.0
  0
LINE
  5
4C
330
17
100
AcDbEntity
  8
0
 62
7
100
AcDbLine
 10
751.6501066727069
 20
2779.5580684195593
 30
0.0
 11
791.6501066727069
 21
2739.5580684195447
 31
0.0
  0
DIMENSION
  5
4D
330
17
100
AcDbEntity
  8
DIM
 62
7
100
AcDbDimension
280
0
  2
*D4
  3
Dim-25
 10
803.6501066727069
 20
1316.331949359781
 30
0.0
 11
570.1501066727069
 21
1339.0962740528048
 31
0.0
 70
32
 71
5
 42
467.0
 73
0
 74
0
 75
0
100
AcDbAlignedDimension
 13
336.6501066727069
 23
1382.5580684195447
 33
0.0
 14
803.6501066727069
 24
1422.5580684195447
 34
0.0
 50
0.0
100
AcDbRotatedDimension
  0
LINE
  5
4E
330
17
100
AcDbEntity
  8
0
 62
7
100
AcDbLine
 10
381.6501066727069
 20
1239.5644623201515
 30
0.0
 11
751.6501066727069
 21
1239.5644623201515
 31
0.0
  0
LINE
  5
4F
330
17
100
AcDbEntity
  8
0
 62
7
100
AcDbLine
 10
751.6501066727069
 20
1239.5644623201515
 30
0.0
 11
751.6501066727069
 21
1269.5644623201515
 31
0.0
  0
LINE
  5
50
330
17
100
AcDbEntity
  8
0
 62
7
100
AcDbLine
 10
751.6501066727069
 20
1269.5644623201515
 30
0.0
 11
739.6501066727069
 21
1269.5644623201515
 31
0.0
  0
LINE
  5
51
330
17
100
AcDbEntity
  8
0
 62
7
100
AcDbLine
 10
381.6501066727069
 20
1239.5644623201515
 30
0.0
 11
381.6501066727069
 21
1269.5644623201515
 31
0.0
  0
LINE
  5
52
330
17
100
AcDbEntity
  8
0
 62
7
100
AcDbLine
 10
381.6501066727069
 20
1269.5644623201515
 30
0.0
 11
391.6501066727069
 21
1269.5644623201515
 31
0.0
  0
DIMENSION
  5
53
330
17
100
AcDbEntity
  8
DIM
 62
7
100
AcDbDimension
280
0
  2
*D5
  3
Dim-25
 10
346.6501066727069
 20
2846.9722210555046
 30
0.0
 11
364.1501066727069
 21
2846.9722210555046
 31
0.0
 70
160
 71
5
 42
35.0
 73
0
 74
0
 75
0
100
AcDbAlignedDimension
 13
381.6501066727069
 23
2779.5580684195593
 33
0.0
 14
346.6501066727069
 24
2779.5580684195593
 34
0.0
 50
0.0
100
AcDbRotatedDimension
  0
DIMENSION
  5
54
330
17
100
AcDbEntity
  8
DIM
 62
7
100
AcDbDimension
280
0
  2
*D6
  3
Dim-25
 10
336.6501066727069
 20
2846.9722210555046
 30
0.0
 11
293.96354459899885
 21
2869.736545748543
 31
0.0
 70
32
 71
5
 42
10.0
 73
0
 74
0
 75
0
100
AcDbAlignedDimension
 13
346.6501066727069
 23
2779.5580684195593
 33
0.0
 14
336.6501066727069
 24
2779.5580684195593
 34
0.0
 50
0.0
100
AcDbRotatedDimension
  0
INSERT
  5
55
330
17
100
AcDbEntity
  8
0
370
-3
100
AcDbBlockReference
  2
f3daunguoc
 10
346.6501066727069
 20
2764.5580684195593
 30
0.0
 41
-1.0
 50
180.0
  0
INSERT
  5
57
330
17
100
AcDbEntity
  8
0
370
-3
100
AcDbBlockReference
  2
f3daunguoc
 10
381.6501066727069
 20
2764.5580684195593
 30
0.0
 41
-1.0
 50
180.0
  0
INSERT
  5
59
330
17
100
AcDbEntity
  8
0
370
-3
100
AcDbBlockReference
  2
f3daunguoc
 10
751.6501066727069
 20
2764.5580684195593
 30
0.0
 41
-1.0
 50
180.0
  0
INSERT
  5
5B
330
17
100
AcDbEntity
  8
0
370
-3
100
AcDbBlockReference
  2
f3daunguoc
 10
791.6501066727069
 20
2724.5580684195447
 30
0.0
 41
-1.0
 50
180.0
  0
INSERT
  5
5D
330
17
100
AcDbEntity
  8
0
370
-3
100
AcDbBlockReference
  2
f3daunguoc
 10
346.6501066727069
 20
1397.5580684195447
 30
0.0
  0
INSERT
  5
5F
330
17
100
AcDbEntity
  8
0
370
-3
100
AcDbBlockReference
  2
f3daunguoc
 10
381.6501066727069
 20
1397.5580684195447
 30
0.0
  0
INSERT
  5
61
330
17
100
AcDbEntity
  8
0
370
-3
100
AcDbBlockReference
  2
f3daunguoc
 10
751.6501066727069
 20
1397.5580684195447
 30
0.0
  0
INSERT
  5
63
330
17
100
AcDbEntity
  8
0
370
-3
100
AcDbBlockReference
  2
f3daunguoc
 10
791.6501066727069
 20
1437.5580684195447
 30
0.0
  0
DIMENSION
  5
65
330
17
100
AcDbEntity
  8
DIM
 62
7
 48
3.0
100
AcDbDimension
280
0
  2
*D7
  3
Dim-25
 10
266.02399904660706
 20
1382.5580684195447
 30
0.0
 11
243.251147750605
 21
2081.0580684195884
 31
0.0
 70
32
 71
5
 42
1397.0
 73
0
 74
0
 75
0
100
AcDbAlignedDimension
 13
336.6501066727069
 23
2779.5580684195593
 33
0.0
 14
336.6501066727069
 24
1382.5580684195447
 34
0.0
 50
90.0
100
AcDbRotatedDimension
  0
LWPOLYLINE
  5
66
330
17
100
AcDbEntity
  8
0
 62
2
100
AcDbPolyline
 90
6
 70
1
 10
608.1280867876048
 20
1667.5580684195447
 10
672.1280867876048
 20
1667.5580684195447
 42
-0.4142135623730951
 10
680.1280867876048
 20
1659.5580684195593
 10
680.1280867876048
 20
1656.5580684195447
 10
600.1280867876048
 20
1656.5580684195447
 10
600.1280867876048
 20
1659.5580684195593
 42
-0.4142135623730951
  0
LWPOLYLINE
  5
67
330
17
100
AcDbEntity
  8
0
 62
2
100
AcDbPolyline
 90
6
 70
1
 10
608.1280867876048
 20
1636.5580684195593
 10
672.1280867876048
 20
1636.5580684195593
 42
-0.4142135623730951
 10
680.1280867876048
 20
1628.5580684195447
 10
680.1280867876048
 20
1625.5580684195447
 10
600.1280867876048
 20
1625.5580684195447
 10
600.1280867876048
 20
1628.5580684195447
 42
-0.4142135623730951
  0
LWPOLYLINE
  5
68
330
17
100
AcDbEntity
  8
0
 62
2
100
AcDbPolyline
 90
6
 70
1
 10
608.1280867876048
 20
1698.5580684195447
 10
672.1280867876048
 20
1698.5580684195447
 42
-0.4142135623730951
 10
680.1280867876048
 20
1690.5580684195447
 10
680.1280867876048
 20
1687.5580684195447
 10
600.1280867876048
 20
1687.5580684195447
 10
600.1280867876048
 20
1690.5580684195447
 42
-0.4142135623730951
  0
LWPOLYLINE
  5
69
330
17
100
AcDbEntity
  8
0
 62
2
100
AcDbPolyline
 90
6
 70
1
 10
608.1280867876048
 20
1605.5580684195447
 10
672.1280867876048
 20
1605.5580684195447
 42
-0.4142135623730951
 10
680.1280867876048
 20
1597.5580684195447
 10
680.1280867876048
 20
1594.5580684195593
 10
600.1280867876048
 20
1594.5580684195593
 10
600.1280867876048
 20
1597.5580684195447
 42
-0.4142135623730951
  0
LWPOLYLINE
  5
6A
330
17
100
AcDbEntity
  8
0
 62
2
100
AcDbPolyline
 90
6
 70
1
 10
608.1280867876048
 20
1574.5580684195447
 10
672.1280867876048
 20
1574.5580684195447
 42
-0.4142135623730951
 10
680.1280867876048
 20
1566.5580684195447
 10
680.1280867876048
 20
1563.5580684195447
 10
600.1280867876048
 20
1563.5580684195447
 10
600.1280867876048
 20
1566.5580684195447
 42
-0.4142135623730951
  0
LWPOLYLINE
  5
6B
330
17
100
AcDbEntity
  8
0
 62
2
100
AcDbPolyline
 90
6
 70
1
 10
608.1280867876048
 20
1543.5580684195447
 10
672.1280867876048
 20
1543.5580684195447
 42
-0.4142135623730951
 10
680.1280867876048
 20
1535.5580684195447
 10
680.1280867876048
 20
1532.5580684195447
 10
600.1280867876048
 20
1532.5580684195447
 10
600.1280867876048
 20
1535.5580684195447
 42
-0.4142135623730951
  0
LWPOLYLINE
  5
6C
330
17
100
AcDbEntity
  8
0
 62
2
100
AcDbPolyline
 90
6
 70
1
 10
525.1721265578963
 20
1667.5580684195447
 10
461.17212655780895
 20
1667.5580684195447
 42
0.4142135623730951
 10
453.17212655780895
 20
1659.5580684195593
 10
453.17212655780895
 20
1656.5580684195447
 10
533.172126557809
 20
1656.5580684195447
 10
533.172126557809
 20
1659.5580684195593
 42
0.4142135623730951
  0
LWPOLYLINE
  5
6D
330
17
100
AcDbEntity
  8
0
 62
2
100
AcDbPolyline
 90
6
 70
1
 10
525.1721265578963
 20
1636.5580684195593
 10
461.17212655780895
 20
1636.5580684195593
 42
0.4142135623730951
 10
453.17212655780895
 20
1628.5580684195447
 10
453.17212655780895
 20
1625.5580684195447
 10
533.172126557809
 20
1625.5580684195447
 10
533.172126557809
 20
1628.5580684195447
 42
0.4142135623730951
  0
LWPOLYLINE
  5
6E
330
17
100
AcDbEntity
  8
0
 62
2
100
AcDbPolyline
 90
6
 70
1
 10
525.1721265578963
 20
1698.5580684195447
 10
461.17212655780895
 20
1698.5580684195447
 42
0.4142135623730951
 10
453.17212655780895
 20
1690.5580684195447
 10
453.17212655780895
 20
1687.5580684195447
 10
533.172126557809
 20
1687.5580684195447
 10
533.172126557809
 20
1690.5580684195447
 42
0.4142135623730951
  0
LWPOLYLINE
  5
6F
330
17
100
AcDbEntity
  8
0
 62
2
100
AcDbPolyline
 90
6
 70
1
 10
525.1721265578963
 20
1605.5580684195447
 10
461.17212655780895
 20
1605.5580684195447
 42
0.4142135623730951
 10
453.17212655780895
 20
1597.5580684195447
 10
453.17212655780895
 20
1594.5580684195593
 10
533.172126557809
 20
1594.5580684195593
 10
533.172126557809
 20
1597.5580684195447
 42
0.4142135623730951
  0
LWPOLYLINE
  5
70
330
17
100
AcDbEntity
  8
0
 62
2
100
AcDbPolyline
 90
6
 70
1
 10
525.1721265578963
 20
1574.5580684195447
 10
461.17212655780895
 20
1574.5580684195447
 42
0.4142135623730951
 10
453.17212655780895
 20
1566.5580684195447
 10
453.17212655780895
 20
1563.5580684195447
 10
533.172126557809
 20
1563.5580684195447
 10
533.172126557809
 20
1566.5580684195447
 42
0.4142135623730951
  0
LWPOLYLINE
  5
71
330
17
100
AcDbEntity
  8
0
 62
2
100
AcDbPolyline
 90
6
 70
1
 10
525.1721265578963
 20
1543.5580684195447
 10
461.17212655780895
 20
1543.5580684195447
 42
0.4142135623730951
 10
453.17212655780895
 20
1535.5580684195447
 10
453.17212655780895
 20
1532.5580684195447
 10
533.172126557809
 20
1532.5580684195447
 10
533.172126557809
 20
1535.5580684195447
 42
0.4142135623730951
  0
LWPOLYLINE
  5
72
330
17
100
AcDbEntity
  8
0
 62
7
100
AcDbPolyline
 90
4
 70
0
 10
1773.2528384362085
 20
2739.5580684195447
 10
1761.2528384362085
 20
2739.5580684195447
 10
1761.2528384362085
 20
1422.5580684195447
 10
1773.2528384362085
 20
1422.5580684195447
  0
LWPOLYLINE
  5
73
330
17
100
AcDbEntity
  8
0
 62
7
100
AcDbPolyline
 90
2
 70
0
 10
1813.2528384362085
 20
1382.5580684195447
 10
2228.2528384362085
 20
1382.5580684195447
  0
LWPOLYLINE
  5
74
330
17
100
AcDbEntity
  8
0
 62
7
100
AcDbPolyline
 90
2
 70
0
 10
2228.2528384362085
 20
2779.5580684195593
 10
1813.2528384362085
 20
2779.5580684195593
  0
LINE
  5
75
330
17
100
AcDbEntity
  8
0
 62
7
100
AcDbLine
 10
1773.2528384362085
 20
2739.5580684195447
 30
0.0
 11
1773.2528384362085
 21
1422.5580684195447
 31
0.0
  0
LINE
  5
76
330
17
100
AcDbEntity
  8
0
 62
7
100
AcDbLine
 10
1813.2528384362085
 20
2779.5580684195593
 30
0.0
 11
1813.2528384362085
 21
1382.5580684195447
 31
0.0
  0
LINE
  5
77
330
17
100
AcDbEntity
  8
0
 62
7
100
AcDbLine
 10
2183.2528384362085
 20
2779.5580684195593
 30
0.0
 11
2183.2528384362085
 21
1382.5580684195447
 31
0.0
  0
LINE
  5
78
330
17
100
AcDbEntity
  8
0
 62
7
100
AcDbLine
 10
2228.2528384362085
 20
2779.5580684195593
 30
0.0
 11
2228.2528384362085
 21
1382.5580684195447
 31
0.0
  0
LINE
  5
79
330
17
100
AcDbEntity
  8
0
 62
7
100
AcDbLine
 10
2218.2528384362085
 20
2779.5580684195593
 30
0.0
 11
2218.2528384362085
 21
1382.5580684195447
 31
0.0
  0
DIMENSION
  5
7A
330
17
100
AcDbEntity
  8
DIM
 62
7
100
AcDbDimension
280
0
  2
*D8
  3
Dim-25
 10
1813.2528384362085
 20
2846.9722210555046
 30
0.0
 11
1948.2528384362085
 21
2846.9722210555046
 31
0.0
 70
160
 71
5
 42
370.0
 73
0
 74
0
 75
0
100
AcDbAlignedDimension
 13
2183.2528384362085
 23
2779.5580684195593
 33
0.0
 14
1813.2528384362085
 24
2779.5580684195593
 34
0.0
 50
180.0
100
AcDbRotatedDimension
  0
DIMENSION
  5
7B
330
17
100
AcDbEntity
  8
DIM
 62
7
100
AcDbDimension
280
0
  2
*D9
  3
Dim-25
 10
1773.2528384362085
 20
2846.9722210555046
 30
0.0
 11
1793.2528384362085
 21
2846.9722210555046
 31
0.0
 70
160
 71
5
 42
40.0
 73
0
 74
0
 75
0
100
AcDbAlignedDimension
 13
1813.2528384362085
 23
2779.5580684195593
 33
0.0
 14
1773.2528384362085
 24
2739.5580684195447
 34
0.0
 50
180.0
100
AcDbRotatedDimension
  0
DIMENSION
  5
7C
330
17
100
AcDbEntity
  8
DIM
 62
7
100
AcDbDimension
280
0
  2
*D10
  3
Dim-25
 10
1761.2528384362085
 20
2846.9722210555046
 30
0.0
 11
1718.651542392603
 21
2869.5233806735196
 31
0.0
 70
32
 71
5
 42
12.0
 73
0
 74
0
 75
0
100
AcDbAlignedDimension
 13
1773.2528384362085
 23
2739.5580684195447
 33
0.0
 14
1761.2528384362085
 24
2739.5580684195447
 34
0.0
 50
180.0
100
AcDbRotatedDimension
  0
LINE
  5
7D
330
17
100
AcDbEntity
  8
0
 62
7
100
AcDbLine
 10
1813.2528384362085
 20
1382.5580684195447
 30
0.0
 11
1773.2528384362085
 21
1422.5580684195447
 31
0.0
  0
LINE
  5
7E
330
17
100
AcDbEntity
  8
0
 62
7
100
AcDbLine
 10
1813.2528384362085
 20
2779.5580684195593
 30
0.0
 11
1773.2528384362085
 21
2739.5580684195447
 31
0.0
  0
DIMENSION
  5
7F
330
17
100
AcDbEntity
  8
DIM
 62
7
100
AcDbDimension
280
0
  2
*D11
  3
Dim-25
 10
1761.2528384362085
 20
1316.331949359781
 30
0.0
 11
1994.7528384362085
 21
1339.0962740528048
 31
0.0
 70
32
 71
5
 42
467.0
 73
0
 74
0
 75
0
100
AcDbAlignedDimension
 13
2228.2528384362085
 23
1382.5580684195447
 33
0.0
 14
1761.2528384362085
 24
1422.5580684195447
 34
0.0
 50
180.0
100
AcDbRotatedDimension
  0
LINE
  5
80
330
17
100
AcDbEntity
  8
0
 62
7
100
AcDbLine
 10
2183.2528384362085
 20
1239.5644623201515
 30
0.0
 11
1813.2528384362085
 21
1239.5644623201515
 31
0.0
  0
LINE
  5
81
330
17
100
AcDbEntity
  8
0
 62
7
100
AcDbLine
 10
1813.2528384362085
 20
1239.5644623201515
 30
0.0
 11
1813.2528384362085
 21
1269.5644623201515
 31
0.0
  0
LINE
  5
82
330
17
100
AcDbEntity
  8
0
 62
7
100
AcDbLine
 10
1813.2528384362085
 20
1269.5644623201515
 30
0.0
 11
1825.2528384362085
 21
1269.5644623201515
 31
0.0
  0
LINE
  5
83
330
17
100
AcDbEntity
  8
0
 62
7
100
AcDbLine
 10
2183.2528384362085
 20
1239.5644623201515
 30
0.0
 11
2183.2528384362085
 21
1269.5644623201515
 31
0.0
  0
LINE
  5
84
330
17
100
AcDbEntity
  8
0
 62
7
100
AcDbLine
 10
2183.2528384362085
 20
1269.5644623201515
 30
0.0
 11
2173.2528384362085
 21
1269.5644623201515
 31
0.0
  0
DIMENSION
  5
85
330
17
100
AcDbEntity
  8
DIM
 62
7
100
AcDbDimension
280
0
  2
*D12
  3
Dim-25
 10
2218.2528384362085
 20
2846.9722210555046
 30
0.0
 11
2200.7528384362085
 21
2846.9722210555046
 31
0.0
 70
160
 71
5
 42
35.0
 73
0
 74
0
 75
0
100
AcDbAlignedDimension
 13
2183.2528384362085
 23
2779.5580684195593
 33
0.0
 14
2218.2528384362085
 24
2779.5580684195593
 34
0.0
 50
180.0
100
AcDbRotatedDimension
  0
DIMENSION
  5
86
330
17
100
AcDbEntity
  8
DIM
 62
7
100
AcDbDimension
280
0
  2
*D13
  3
Dim-25
 10
2228.2528384362085
 20
2846.9722210555046
 30
0.0
 11
2270.939400509902
 21
2869.736545748543
 31
0.0
 70
32
 71
5
 42
10.0
 73
0
 74
0
 75
0
100
AcDbAlignedDimension
 13
2218.2528384362085
 23
2779.5580684195593
 33
0.0
 14
2228.2528384362085
 24
2779.5580684195593
 34
0.0
 50
180.0
100
AcDbRotatedDimension
  0
INSERT
  5
87
330
17
100
AcDbEntity
  8
0
370
-3
100
AcDbBlockReference
  2
f3daunguoc
 10
2218.2528384362085
 20
2764.5580684195593
 30
0.0
 50
180.0
  0
INSERT
  5
89
330
17
100
AcDbEntity
  8
0
370
-3
100
AcDbBlockReference
  2
f3daunguoc
 10
2183.2528384362085
 20
2764.5580684195593
 30
0.0
 50
180.0
  0
INSERT
  5
8B
330
17
100
AcDbEntity
  8
0
370
-3
100
AcDbBlockReference
  2
f3daunguoc
 10
1813.2528384362085
 20
2764.5580684195593
 30
0.0
 50
180.0
  0
INSERT
  5
8D
330
17
100
AcDbEntity
  8
0
370
-3
100
AcDbBlockReference
  2
f3daunguoc
 10
1773.2528384362085
 20
2724.5580684195447
 30
0.0
 50
180.0
  0
INSERT
  5
8F
330
17
100
AcDbEntity
  8
0
370
-3
100
AcDbBlockReference
  2
f3daunguoc
 10
2218.2528384362085
 20
1397.5580684195447
 30
0.0
 41
-1.0
  0
INSERT
  5
91
330
17
100
AcDbEntity
  8
0
370
-3
100
AcDbBlockReference
  2
f3daunguoc
 10
2183.2528384362085
 20
1397.5580684195447
 30
0.0
 41
-1.0
  0
INSERT
  5
93
330
17
100
AcDbEntity
  8
0
370
-3
100
AcDbBlockReference
  2
f3daunguoc
 10
1813.2528384362085
 20
1397.5580684195447
 30
0.0
 41
-1.0
  0
INSERT
  5
95
330
17
100
AcDbEntity
  8
0
370
-3
100
AcDbBlockReference
  2
f3daunguoc
 10
1773.2528384362085
 20
1437.5580684195447
 30
0.0
 41
-1.0
  0
DIMENSION
  5
97
330
17
100
AcDbEntity
  8
DIM
 62
7
 48
3.0
100
AcDbDimension
280
0
  2
*D14
  3
Dim-25
 10
2298.8789460623084
 20
1382.5580684195447
 30
0.0
 11
2276.1060947662045
 21
2081.0580684195884
 31
0.0
 70
32
 71
5
 42
1397.0
 73
0
 74
0
 75
0
100
AcDbAlignedDimension
 13
2228.2528384362085
 23
2779.5580684195593
 33
0.0
 14
2228.2528384362085
 24
1382.5580684195447
 34
0.0
 50
90.0
100
AcDbRotatedDimension
  0
MTEXT
  5
98
330
17
100
AcDbEntity
  8
0
 62
2
100
AcDbMText
 10
2049.648275200103
 20
1187.402684918503
 30
0.0
 40
25.0
 41
1072.000000000014
 46
100.0000000000031
 71
5
 72
5
  1
Thành phải : 1 tấm
  0
LWPOLYLINE
  5
99
330
17
100
AcDbEntity
  8
0
 62
2
100
AcDbPolyline
 90
6
 70
1
 10
1956.774858321296
 20
1667.5580684195447
 10
1892.774858321296
 20
1667.5580684195447
 42
0.4142135623730951
 10
1884.774858321398
 20
1659.5580684195593
 10
1884.774858321398
 20
1656.5580684195447
 10
1964.774858321398
 20
1656.5580684195447
 10
1964.774858321398
 20
1659.5580684195593
 42
0.4142135623730951
  0
LWPOLYLINE
  5
9A
330
17
100
AcDbEntity
  8
0
 62
2
100
AcDbPolyline
 90
6
 70
1
 10
1956.774858321296
 20
1636.5580684195593
 10
1892.774858321296
 20
1636.5580684195593
 42
0.4142135623730951
 10
1884.774858321398
 20
1628.5580684195447
 10
1884.774858321398
 20
1625.5580684195447
 10
1964.774858321398
 20
1625.5580684195447
 10
1964.774858321398
 20
1628.5580684195447
 42
0.4142135623730951
  0
LWPOLYLINE
  5
9B
330
17
100
AcDbEntity
  8
0
 62
2
100
AcDbPolyline
 90
6
 70
1
 10
1956.774858321296
 20
1698.5580684195447
 10
1892.774858321296
 20
1698.5580684195447
 42
0.4142135623730951
 10
1884.774858321398
 20
1690.5580684195447
 10
1884.774858321398
 20
1687.5580684195447
 10
1964.774858321398
 20
1687.5580684195447
 10
1964.774858321398
 20
1690.5580684195447
 42
0.4142135623730951
  0
LWPOLYLINE
  5
9C
330
17
100
AcDbEntity
  8
0
 62
2
100
AcDbPolyline
 90
6
 70
1
 10
1956.774858321296
 20
1605.5580684195447
 10
1892.774858321296
 20
1605.5580684195447
 42
0.4142135623730951
 10
1884.774858321398
 20
1597.5580684195447
 10
1884.774858321398
 20
1594.5580684195593
 10
1964.774858321398
 20
1594.5580684195593
 10
1964.774858321398
 20
1597.5580684195447
 42
0.4142135623730951
  0
LWPOLYLINE
  5
9D
330
17
100
AcDbEntity
  8
0
 62
2
100
AcDbPolyline
 90
6
 70
1
 10
1956.774858321296
 20
1574.5580684195447
 10
1892.774858321296
 20
1574.5580684195447
 42
0.4142135623730951
 10
1884.774858321398
 20
1566.5580684195447
 10
1884.774858321398
 20
1563.5580684195447
 10
1964.774858321398
 20
1563.5580684195447
 10
1964.774858321398
 20
1566.5580684195447
 42
0.4142135623730951
  0
LWPOLYLINE
  5
9E
330
17
100
AcDbEntity
  8
0
 62
2
100
AcDbPolyline
 90
6
 70
1
 10
1956.774858321296
 20
1543.5580684195447
 10
1892.774858321296
 20
1543.5580684195447
 42
0.4142135623730951
 10
1884.774858321398
 20
1535.5580684195447
 10
1884.774858321398
 20
1532.5580684195447
 10
1964.774858321398
 20
1532.5580684195447
 10
1964.774858321398
 20
1535.5580684195447
 42
0.4142135623730951
  0
LWPOLYLINE
  5
9F
330
17
100
AcDbEntity
  8
0
 62
2
100
AcDbPolyline
 90
6
 70
1
 10
2039.7308185511065
 20
1667.5580684195447
 10
2103.7308185511065
 20
1667.5580684195447
 42
-0.4142135623730951
 10
2111.7308185511065
 20
1659.5580684195593
 10
2111.7308185511065
 20
1656.5580684195447
 10
2031.7308185511065
 20
1656.5580684195447
 10
2031.7308185511065
 20
1659.5580684195593
 42
-0.4142135623730951
  0
LWPOLYLINE
  5
A0
330
17
100
AcDbEntity
  8
0
 62
2
100
AcDbPolyline
 90
6
 70
1
 10
2039.7308185511065
 20
1636.5580684195593
 10
2103.7308185511065
 20
1636.5580684195593
 42
-0.4142135623730951
 10
2111.7308185511065
 20
1628.5580684195447
 10
2111.7308185511065
 20
1625.5580684195447
 10
2031.7308185511065
 20
1625.5580684195447
 10
2031.7308185511065
 20
1628.5580684195447
 42
-0.4142135623730951
  0
LWPOLYLINE
  5
A1
330
17
100
AcDbEntity
  8
0
 62
2
100
AcDbPolyline
 90
6
 70
1
 10
2039.7308185511065
 20
1698.5580684195447
 10
2103.7308185511065
 20
1698.5580684195447
 42
-0.4142135623730951
 10
2111.7308185511065
 20
1690.5580684195447
 10
2111.7308185511065
 20
1687.5580684195447
 10
2031.7308185511065
 20
1687.5580684195447
 10
2031.7308185511065
 20
1690.5580684195447
 42
-0.4142135623730951
  0
LWPOLYLINE
  5
A2
330
17
100
AcDbEntity
  8
0
 62
2
100
AcDbPolyline
 90
6
 70
1
 10
2039.7308185511065
 20
1605.5580684195447
 10
2103.7308185511065
 20
1605.5580684195447
 42
-0.4142135623730951
 10
2111.7308185511065
 20
1597.5580684195447
 10
2111.7308185511065
 20
1594.5580684195593
 10
2031.7308185511065
 20
1594.5580684195593
 10
2031.7308185511065
 20
1597.5580684195447
 42
-0.4142135623730951
  0
LWPOLYLINE
  5
A3
330
17
100
AcDbEntity
  8
0
 62
2
100
AcDbPolyline
 90
6
 70
1
 10
2039.7308185511065
 20
1574.5580684195447
 10
2103.7308185511065
 20
1574.5580684195447
 42
-0.4142135623730951
 10
2111.7308185511065
 20
1566.5580684195447
 10
2111.7308185511065
 20
1563.5580684195447
 10
2031.7308185511065
 20
1563.5580684195447
 10
2031.7308185511065
 20
1566.5580684195447
 42
-0.4142135623730951
  0
LWPOLYLINE
  5
A4
330
17
100
AcDbEntity
  8
0
 62
2
100
AcDbPolyline
 90
6
 70
1
 10
2039.7308185511065
 20
1543.5580684195447
 10
2103.7308185511065
 20
1543.5580684195447
 42
-0.4142135623730951
 10
2111.7308185511065
 20
1535.5580684195447
 10
2111.7308185511065
 20
1532.5580684195447
 10
2031.7308185511065
 20
1532.5580684195447
 10
2031.7308185511065
 20
1535.5580684195447
 42
-0.4142135623730951
  0
LWPOLYLINE
  5
A5
330
17
100
AcDbEntity
  8
0
 62
2
100
AcDbPolyline
 90
4
 70
1
 10
1789.7528384362085
 20
2708.0580684195447
 10
1803.7528384362085
 20
2708.0580684195447
 10
1803.7528384362085
 20
2699.0580684195447
 10
1789.7528384362085
 20
2699.0580684195447
  0
LWPOLYLINE
  5
A6
330
17
100
AcDbEntity
  8
0
 62
2
100
AcDbPolyline
 90
4
 70
1
 10
1789.7528384362085
 20
2683.0580684195593
 10
1803.7528384362085
 20
2683.0580684195593
 10
1803.7528384362085
 20
2674.0580684195593
 10
1789.7528384362085
 20
2674.0580684195593
  0
LWPOLYLINE
  5
A7
330
17
100
AcDbEntity
  8
0
 62
2
100
AcDbPolyline
 90
4
 70
1
 10
1789.7528384362085
 20
1454.0580684195447
 10
1803.7528384362085
 20
1454.0580684195447
 10
1803.7528384362085
 20
1463.0580684195447
 10
1789.7528384362085
 20
1463.0580684195447
  0
LWPOLYLINE
  5
A8
330
17
100
AcDbEntity
  8
0
 62
2
100
AcDbPolyline
 90
4
 70
1
 10
1789.7528384362085
 20
1479.0580684195302
 10
1803.7528384362085
 20
1479.0580684195302
 10
1803.7528384362085
 20
1488.0580684195302
 10
1789.7528384362085
 20
1488.0580684195302
  0
LWPOLYLINE
  5
A9
330
17
100
AcDbEntity
  8
0
 62
2
 48
3.0
100
AcDbPolyline
 90
4
 70
1
 10
2064.7528384362085
 20
2681.0580684195593
 10
1964.7528384362085
 20
2681.0580684195593
 10
1964.7528384362085
 20
2581.0580684195447
 10
2064.7528384362085
 20
2581.0580684195447
  0
LINE
  5
AA
330
17
100
AcDbEntity
  8
0
 62
7
100
AcDbLine
 10
1064.7839721240016
 20
2779.5580684195593
 30
0.0
 11
1064.7839721240016
 21
1382.5580684195447
 31
0.0
  0
INSERT
  5
AB
330
17
100
AcDbEntity
  8
0
370
-3
100
AcDbBlockReference
  2
f3daunguoc
 10
1064.7839721240016
 20
2764.5580684195593
 30
0.0
 41
-1.0
 50
180.0
  0
INSERT
  5
AD
330
17
100
AcDbEntity
  8
0
370
-3
100
AcDbBlockReference
  2
f3daunguoc
 10
1064.7839721240016
 20
1397.5580684195447
 30
0.0
  0
LINE
  5
AF
330
17
100
AcDbEntity
  8
0
 62
7
100
AcDbLine
 10
1054.7839721240016
 20
2779.5580684195593
 30
0.0
 11
1054.7839721240016
 21
1382.5580684195447
 31
0.0
  0
LINE
  5
B0
330
17
100
AcDbEntity
  8
0
 62
7
100
AcDbLine
 10
1584.7839721240016
 20
2779.5580684195593
 30
0.0
 11
1584.7839721240016
 21
1382.5580684195447
 31
0.0
  0
INSERT
  5
B1
330
17
100
AcDbEntity
  8
0
370
-3
100
AcDbBlockReference
  2
f3daunguoc
 10
1584.7839721240016
 20
2764.5580684195593
 30
0.0
 41
-1.0
 50
180.0
  0
INSERT
  5
B3
330
17
100
AcDbEntity
  8
0
370
-3
100
AcDbBlockReference
  2
f3daunguoc
 10
1584.7839721240016
 20
1397.5580684195447
 30
0.0
  0
LINE
  5
B5
330
17
100
AcDbEntity
  8
0
 62
7
100
AcDbLine
 10
1594.7839721240016
 20
2779.5580684195593
 30
0.0
 11
1594.7839721240016
 21
1382.5580684195447
 31
0.0
  0
LWPOLYLINE
  5
B6
330
17
100
AcDbEntity
  8
0
 62
2
 48
3.0
100
AcDbPolyline
 90
4
 70
1
 10
1054.7839721240016
 20
2779.5580684195593
 10
1594.7839721240016
 20
2779.5580684195593
 10
1594.7839721240016
 20
1382.5580684195447
 10
1054.7839721240016
 20
1382.5580684195447
  0
DIMENSION
  5
B7
330
17
100
AcDbEntity
  8
DIM
 62
2
 48
3.0
100
AcDbDimension
280
0
  2
*D15
  3
Dim-25
 10
1584.7839721240016
 20
2846.7902469818655
 30
0.0
 11
1324.7839721240016
 21
2869.554571674904
 31
0.0
 70
32
 71
5
 42
520.0
 73
0
 74
0
 75
0
100
AcDbAlignedDimension
 13
1064.7839721240016
 23
2779.5580684195593
 33
0.0
 14
1584.7839721240016
 24
2779.5580684195593
 34
0.0
 50
0.0
100
AcDbRotatedDimension
  0
DIMENSION
  5
B8
330
17
100
AcDbEntity
  8
DIM
 62
2
 48
3.0
100
AcDbDimension
280
0
  2
*D16
  3
Dim-25
 10
1594.7839721240016
 20
2846.7902469818655
 30
0.0
 11
1637.4705341976078
 21
2869.554571674904
 31
0.0
 70
32
 71
5
 42
10.0
 73
0
 74
0
 75
0
100
AcDbAlignedDimension
 13
1584.7839721240016
 23
2779.5580684195593
 33
0.0
 14
1594.7839721240016
 24
2779.5580684195593
 34
0.0
 50
0.0
100
AcDbRotatedDimension
  0
DIMENSION
  5
B9
330
17
100
AcDbEntity
  8
DIM
 62
2
 48
3.0
100
AcDbDimension
280
0
  2
*D17
  3
Dim-25
 10
981.8316841195046
 20
1382.5580684195447
 30
0.0
 11
959.0588328235026
 21
2081.0580684195884
 31
0.0
 70
32
 71
5
 42
1397.0
 73
0
 74
0
 75
0
100
AcDbAlignedDimension
 13
1054.7839721240016
 23
2779.5580684195593
 33
0.0
 14
1054.7839721240016
 24
1382.5580684195447
 34
0.0
 50
90.0
100
AcDbRotatedDimension
  0
MTEXT
  5
BA
330
17
100
AcDbEntity
  8
0
 62
2
100
AcDbMText
 10
1307.1527796809096
 20
1275.2722160371923
 30
0.0
 40
25.0
 41
1072.000000000014
 46
100.0000000000031
 71
5
 72
5
  1
tấm lưng : 1 tấm \Phàn bulong 8
  0
CIRCLE
  5
BB
330
17
100
AcDbEntity
  8
0
 62
2
 48
3.0
100
AcDbCircle
 10
1530.2839721240016
 20
2686.5580684195447
 30
0.0
 40
2.5
  0
CIRCLE
  5
BC
330
17
100
AcDbEntity
  8
0
 62
2
 48
3.0
100
AcDbCircle
 10
1119.2839721240016
 20
2686.5580684195447
 30
0.0
 40
2.5
  0
CIRCLE
  5
BD
330
17
100
AcDbEntity
  8
0
 62
2
 48
3.0
100
AcDbCircle
 10
1119.2839721240016
 20
1475.5580684195447
 30
0.0
 40
2.5
  0
CIRCLE
  5
BE
330
17
100
AcDbEntity
  8
0
 62
2
 48
3.0
100
AcDbCircle
 10
1530.2839721240016
 20
1475.5580684195447
 30
0.0
 40
2.5
  0
CIRCLE
  5
BF
330
17
100
AcDbEntity
  8
0
 62
2
 48
3.0
100
AcDbCircle
 10
3028.1655499179033
 20
2686.5580684195447
 30
0.0
 40
6.5
  0
CIRCLE
  5
C0
330
17
100
AcDbEntity
  8
0
 62
2
 48
3.0
100
AcDbCircle
 10
3028.1655499179033
 20
1475.5580684195447
 30
0.0
 40
6.5
  0
CIRCLE
  5
C1
330
17
100
AcDbEntity
  8
0
 62
2
 48
3.0
100
AcDbCircle
 10
2617.1655499179033
 20
2686.5580684195447
 30
0.0
 40
6.5
  0
CIRCLE
  5
C2
330
17
100
AcDbEntity
  8
0
 62
2
 48
3.0
100
AcDbCircle
 10
2617.1655499179033
 20
1475.5580684195447
 30
0.0
 40
6.5
  0
LWPOLYLINE
  5
C3
330
17
100
AcDbEntity
  8
0
 62
7
 48
3.0
100
AcDbPolyline
 90
4
 70
1
 10
2598.6655499179033
 20
2705.0580684195447
 10
3046.6655499179033
 20
2705.0580684195447
 10
3046.6655499179033
 20
1457.0580684195447
 10
2598.6655499179033
 20
1457.0580684195447
  0
LWPOLYLINE
  5
C4
330
17
100
AcDbEntity
  8
0
 62
7
 48
3.0
100
AcDbPolyline
 90
2
 70
0
 10
2578.6655499179033
 20
1457.0580684195447
 10
2578.6655499179033
 20
2705.0580684195447
  0
LWPOLYLINE
  5
C5
330
17
100
AcDbEntity
  8
0
 62
7
 48
3.0
100
AcDbPolyline
 90
2
 70
0
 10
2598.6655499179033
 20
2725.0580684195447
 10
3046.6655499179033
 20
2725.0580684195447
  0
LWPOLYLINE
  5
C6
330
17
100
AcDbEntity
  8
0
 62
7
 48
3.0
100
AcDbPolyline
 90
2
 70
0
 10
3066.6655499179033
 20
2705.0580684195447
 10
3066.6655499179033
 20
1457.0580684195447
  0
LWPOLYLINE
  5
C7
330
17
100
AcDbEntity
  8
0
 62
7
 48
3.0
100
AcDbPolyline
 90
2
 70
0
 10
3046.6655499179033
 20
1437.0580684195447
 10
2598.6655499179033
 20
1437.0580684195447
  0
LWPOLYLINE
  5
C8
330
17
100
AcDbEntity
  8
0
 62
2
 48
3.0
100
AcDbPolyline
 90
3
 70
0
 10
2598.6655499179033
 20
2725.0580684195447
 10
2598.6655499179033
 20
2705.0580684195447
 10
2578.6655499179033
 20
2705.0580684195447
  0
INSERT
  5
C9
330
17
100
AcDbEntity
  8
0
370
-3
100
AcDbBlockReference
  2
f3daunguoc
 10
2613.6655499179033
 20
2705.0580684195447
 30
0.0
 41
-1.0
 50
180.0
  0
INSERT
  5
CB
330
17
100
AcDbEntity
  8
0
370
-3
100
AcDbBlockReference
  2
f3daunguoc
 10
2598.6655499179033
 20
2690.0580684195447
 30
0.0
 41
-1.0
 50
180.0
  0
INSERT
  5
CD
330
17
100
AcDbEntity
  8
0
370
-3
100
AcDbBlockReference
  2
f3daunguoc
 10
2663.6655499179033
 20
2705.0580684195447
 30
0.0
 41
-1.0
 50
180.0
  0
LWPOLYLINE
  5
CF
330
17
100
AcDbEntity
  8
0
 62
2
 48
3.0
100
AcDbPolyline
 90
3
 70
0
 10
3046.6655499179033
 20
2725.0580684195447
 10
3046.6655499179033
 20
2705.0580684195447
 10
3066.6655499179033
 20
2705.0580684195447
  0
INSERT
  5
D0
330
17
100
AcDbEntity
  8
0
370
-3
100
AcDbBlockReference
  2
f3daunguoc
 10
3031.6655499179033
 20
2705.0580684195447
 30
0.0
 50
180.0
  0
INSERT
  5
D2
330
17
100
AcDbEntity
  8
0
370
-3
100
AcDbBlockReference
  2
f3daunguoc
 10
3046.6655499179033
 20
2690.0580684195447
 30
0.0
 50
180.0
  0
INSERT
  5
D4
330
17
100
AcDbEntity
  8
0
370
-3
100
AcDbBlockReference
  2
f3daunguoc
 10
2981.6655499179033
 20
2705.0580684195447
 30
0.0
 50
180.0
  0
LWPOLYLINE
  5
D6
330
17
100
AcDbEntity
  8
0
 62
2
 48
3.0
100
AcDbPolyline
 90
3
 70
0
 10
2598.6655499179033
 20
1437.0580684195447
 10
2598.6655499179033
 20
1457.0580684195447
 10
2578.6655499179033
 20
1457.0580684195447
  0
INSERT
  5
D7
330
17
100
AcDbEntity
  8
0
370
-3
100
AcDbBlockReference
  2
f3daunguoc
 10
2613.6655499179033
 20
1457.0580684195447
 30
0.0
  0
INSERT
  5
D9
330
17
100
AcDbEntity
  8
0
370
-3
100
AcDbBlockReference
  2
f3daunguoc
 10
2598.6655499179033
 20
1472.0580684195447
 30
0.0
  0
INSERT
  5
DB
330
17
100
AcDbEntity
  8
0
370
-3
100
AcDbBlockReference
  2
f3daunguoc
 10
2663.6655499179033
 20
1457.0580684195447
 30
0.0
  0
LWPOLYLINE
  5
DD
330
17
100
AcDbEntity
  8
0
 62
2
 48
3.0
100
AcDbPolyline
 90
3
 70
0
 10
3046.6655499179033
 20
1437.0580684195447
 10
3046.6655499179033
 20
1457.0580684195447
 10
3066.6655499179033
 20
1457.0580684195447
  0
INSERT
  5
DE
330
17
100
AcDbEntity
  8
0
370
-3
100
AcDbBlockReference
  2
f3daunguoc
 10
3031.6655499179033
 20
1457.0580684195447
 30
0.0
 41
-1.0
  0
INSERT
  5
E0
330
17
100
AcDbEntity
  8
0
370
-3
100
AcDbBlockReference
  2
f3daunguoc
 10
3046.6655499179033
 20
1472.0580684195447
 30
0.0
 41
-1.0
  0
INSERT
  5
E2
330
17
100
AcDbEntity
  8
0
370
-3
100
AcDbBlockReference
  2
f3daunguoc
 10
2981.6655499179033
 20
1457.0580684195447
 30
0.0
 41
-1.0
  0
DIMENSION
  5
E4
330
17
100
AcDbEntity
  8
DIM
 62
2
 48
3.0
100
AcDbDimension
280
0
  2
*D18
  3
Dim-25
 10
3066.6655499179033
 20
2806.8340838552394
 30
0.0
 11
3102.7419482808036
 21
2829.598408548278
 31
0.0
 70
32
 71
5
 42
20.0
 73
0
 74
0
 75
0
100
AcDbAlignedDimension
 13
3046.6655499179033
 23
2725.0580684195447
 33
0.0
 14
3066.6655499179033
 24
2705.0580684195447
 34
0.0
 50
0.0
100
AcDbRotatedDimension
  0
DIMENSION
  5
E5
330
17
100
AcDbEntity
  8
DIM
 62
2
 48
3.0
100
AcDbDimension
280
0
  2
*D19
  3
Dim-25
 10
2598.6655499179033
 20
2806.8340838552394
 30
0.0
 11
2822.6655499179033
 21
2829.598408548278
 31
0.0
 70
32
 71
5
 42
448.0
 73
0
 74
0
 75
0
100
AcDbAlignedDimension
 13
3046.6655499179033
 23
2725.0580684195447
 33
0.0
 14
2598.6655499179033
 24
2725.0580684195447
 34
0.0
 50
0.0
100
AcDbRotatedDimension
  0
DIMENSION
  5
E6
330
17
100
AcDbEntity
  8
DIM
 62
2
 48
3.0
100
AcDbDimension
280
0
  2
*D20
  3
Dim-25
 10
2454.0364383913984
 20
1437.0580684195447
 30
0.0
 11
2431.272113698302
 21
2081.0580684195884
 31
0.0
 70
32
 71
5
 42
1288.0
 73
0
 74
0
 75
0
100
AcDbAlignedDimension
 13
2598.6655499179033
 23
2725.0580684195447
 33
0.0
 14
2598.6655499179033
 24
1437.0580684195447
 34
0.0
 50
90.0
100
AcDbRotatedDimension
  0
DIMENSION
  5
E7
330
17
100
AcDbEntity
  8
DIM
 62
2
 48
3.0
100
AcDbDimension
280
0
  2
*D21
  3
Dim-25
 10
2521.528652420704
 20
2705.0580684195447
 30
0.0
 11
2498.7643277277093
 21
2081.0580684195884
 31
0.0
 70
32
 71
5
 42
1248.0
 73
0
 74
0
 75
0
100
AcDbAlignedDimension
 13
2578.6655499179033
 23
1457.0580684195447
 33
0.0
 14
2578.6655499179033
 24
2705.0580684195447
 34
0.0
 50
90.0
100
AcDbRotatedDimension
  0
DIMENSION
  5
E8
330
17
100
AcDbEntity
  8
DIM
 62
2
 48
3.0
100
AcDbDimension
280
0
  2
*D22
  3
Dim-25
 10
3066.6655499179033
 20
1376.3486655588204
 30
0.0
 11
2822.6655499179033
 21
1399.1129902518587
 31
0.0
 70
32
 71
5
 42
488.0
 73
0
 74
0
 75
0
100
AcDbAlignedDimension
 13
2578.6655499179033
 23
1457.0580684195447
 33
0.0
 14
3066.6655499179033
 24
1457.0580684195447
 34
0.0
 50
0.0
100
AcDbRotatedDimension
  0
MTEXT
  5
E9
330
17
100
AcDbEntity
  8
0
 62
2
100
AcDbMText
 10
2809.7229111869965
 20
1335.7247676387487
 30
0.0
 40
25.0
 41
1072.000000000014
 46
100.0000000000031
 71
5
 72
5
  1
Panel: 1 tấm
  0
LINE
  5
EA
330
17
100
AcDbEntity
  8
0
 62
7
100
AcDbLine
 10
2269.1626295845053
 20
985.4451124963816
 30
0.0
 11
2539.1626295845053
 21
985.4451124963816
 31
0.0
  0
LINE
  5
EB
330
17
100
AcDbEntity
  8
0
 62
7
100
AcDbLine
 10
2219.1626295845053
 20
935.4451124963816
 30
0.0
 11
2589.1626295845053
 21
935.4451124963816
 31
0.0
  0
LINE
  5
EC
330
17
100
AcDbEntity
  8
0
 62
7
100
AcDbLine
 10
2589.1626295845053
 20
935.4451124963816
 30
0.0
 11
2589.1626295845053
 21
835.4451124963816
 31
0.0
  0
LINE
  5
ED
330
17
100
AcDbEntity
  8
0
 62
7
100
AcDbLine
 10
2539.1626295845053
 20
785.4451124963816
 30
0.0
 11
2269.1626295845053
 21
785.4451124963816
 31
0.0
  0
LINE
  5
EE
330
17
100
AcDbEntity
  8
0
 62
7
100
AcDbLine
 10
2589.1626295845053
 20
835.4451124963816
 30
0.0
 11
2219.1626295845053
 21
835.4451124963816
 31
0.0
  0
LINE
  5
EF
330
17
100
AcDbEntity
  8
0
 62
7
100
AcDbLine
 10
2219.1626295845053
 20
835.4451124963816
 30
0.0
 11
2219.1626295845053
 21
935.4451124963816
 31
0.0
  0
LINE
  5
F0
330
17
100
AcDbEntity
  8
0
 62
7
100
AcDbLine
 10
2219.1626295845053
 20
835.4451124963816
 30
0.0
 11
2269.1626295845053
 21
785.4451124963816
 31
0.0
  0
LINE
  5
F1
330
17
100
AcDbEntity
  8
0
 62
7
100
AcDbLine
 10
2219.1626295845053
 20
935.4451124963816
 30
0.0
 11
2269.1626295845053
 21
985.4451124963816
 31
0.0
  0
LINE
  5
F2
330
17
100
AcDbEntity
  8
0
 62
7
100
AcDbLine
 10
2539.1626295845053
 20
985.4451124963816
 30
0.0
 11
2589.1626295845053
 21
935.4451124963816
 31
0.0
  0
LINE
  5
F3
330
17
100
AcDbEntity
  8
0
 62
7
100
AcDbLine
 10
2589.1626295845053
 20
835.4451124963816
 30
0.0
 11
2539.1626295845053
 21
785.4451124963816
 31
0.0
  0
DIMENSION
  5
F4
330
17
100
AcDbEntity
  8
DIM
 62
7
100
AcDbDimension
280
0
  2
*D23
  3
Dim-25
 10
2642.014589948303
 20
785.4451124963816
 30
0.0
 11
2619.2502652553085
 21
885.4451124964107
 31
0.0
 70
32
 71
5
 42
200.0
 73
0
 74
0
 75
0
100
AcDbAlignedDimension
 13
2539.1626295845053
 23
985.4451124963816
 33
0.0
 14
2539.1626295845053
 24
785.4451124963816
 34
0.0
 50
90.0
100
AcDbRotatedDimension
  0
DIMENSION
  5
F5
330
17
100
AcDbEntity
  8
DIM
 62
7
100
AcDbDimension
280
0
  2
*D24
  3
Dim-25
 10
2589.1626295845053
 20
717.6785004701378
 30
0.0
 11
2404.1626295845053
 21
740.4513517661835
 31
0.0
 70
32
 71
5
 42
370.0
 73
0
 74
0
 75
0
100
AcDbAlignedDimension
 13
2219.1626295845053
 23
835.4451124963816
 33
0.0
 14
2589.1626295845053
 24
835.4451124963816
 34
0.0
 50
0.0
100
AcDbRotatedDimension
  0
DIMENSION
  5
F6
330
17
100
AcDbEntity
  8
DIM
 62
7
100
AcDbDimension
280
0
  2
*D25
  3
Dim-25
 10
2174.2259667087055
 20
835.4451124963816
 30
0.0
 11
2151.461642015609
 21
885.4451124964107
 31
0.0
 70
32
 71
5
 42
100.0
 73
0
 74
0
 75
0
100
AcDbAlignedDimension
 13
2219.1626295845053
 23
935.4451124963816
 33
0.0
 14
2219.1626295845053
 24
835.4451124963816
 34
0.0
 50
90.0
100
AcDbRotatedDimension
  0
DIMENSION
  5
F7
330
17
100
AcDbEntity
  8
DIM
 62
7
100
AcDbDimension
280
0
  2
*D26
  3
Dim-25
 10
2174.2259667086037
 20
985.4451124963816
 30
0.0
 11
2151.461642015609
 21
1021.3083457842731
 31
0.0
 70
32
 71
5
 42
50.0
 73
0
 74
0
 75
0
100
AcDbAlignedDimension
 13
2219.1626295845053
 23
935.4451124963816
 33
0.0
 14
2269.1626295845053
 24
985.4451124963816
 34
0.0
 50
90.0
100
AcDbRotatedDimension
  0
DIMENSION
  5
F8
330
17
100
AcDbEntity
  8
DIM
 62
7
100
AcDbDimension
280
0
  2
*D27
  3
Dim-25
 10
2174.2259667086037
 20
785.4451124963816
 30
0.0
 11
2151.461642015609
 21
749.5818792085483
 31
0.0
 70
32
 71
5
 42
50.0
 73
0
 74
0
 75
0
100
AcDbAlignedDimension
 13
2219.1626295845053
 23
835.4451124963816
 33
0.0
 14
2269.1626295845053
 24
785.4451124963816
 34
0.0
 50
90.0
100
AcDbRotatedDimension
  0
LINE
  5
F9
330
17
100
AcDbEntity
  8
0
 62
7
100
AcDbLine
 10
2222.0558572734008
 20
645.3105441279185
 30
0.0
 11
2719.0558572734008
 21
645.3105441279185
 31
0.0
  0
LINE
  5
FA
330
17
100
AcDbEntity
  8
0
 62
7
100
AcDbLine
 10
2172.055857273299
 20
595.3105441279185
 30
0.0
 11
2769.0558572734008
 21
595.3105441279185
 31
0.0
  0
LINE
  5
FB
330
17
100
AcDbEntity
  8
0
 62
7
100
AcDbLine
 10
2769.0558572734008
 20
595.3105441279185
 30
0.0
 11
2769.0558572734008
 21
495.31054412791855
 31
0.0
  0
LINE
  5
FC
330
17
100
AcDbEntity
  8
0
 62
7
100
AcDbLine
 10
2719.0558572734008
 20
445.31054412791855
 30
0.0
 11
2222.0558572734008
 21
445.31054412791855
 31
0.0
  0
LINE
  5
FD
330
17
100
AcDbEntity
  8
0
 62
7
100
AcDbLine
 10
2769.0558572734008
 20
495.31054412791855
 30
0.0
 11
2172.055857273299
 21
495.31054412791855
 31
0.0
  0
LINE
  5
FE
330
17
100
AcDbEntity
  8
0
 62
7
100
AcDbLine
 10
2172.055857273299
 20
495.31054412791855
 30
0.0
 11
2172.055857273299
 21
595.3105441279185
 31
0.0
  0
LINE
  5
FF
330
17
100
AcDbEntity
  8
0
 62
7
100
AcDbLine
 10
2172.055857273299
 20
495.31054412791855
 30
0.0
 11
2222.0558572734008
 21
445.31054412791855
 31
0.0
  0
LINE
  5
100
330
17
100
AcDbEntity
  8
0
 62
7
100
AcDbLine
 10
2172.055857273299
 20
595.3105441279185
 30
0.0
 11
2222.0558572734008
 21
645.3105441279185
 31
0.0
  0
LINE
  5
101
330
17
100
AcDbEntity
  8
0
 62
7
100
AcDbLine
 10
2719.0558572734008
 20
645.3105441279185
 30
0.0
 11
2769.0558572734008
 21
595.3105441279185
 31
0.0
  0
LINE
  5
102
330
17
100
AcDbEntity
  8
0
 62
7
100
AcDbLine
 10
2769.0558572734008
 20
495.31054412791855
 30
0.0
 11
2719.0558572734008
 21
445.31054412791855
 31
0.0
  0
DIMENSION
  5
103
330
17
100
AcDbEntity
  8
DIM
 62
7
100
AcDbDimension
280
0
  2
*D28
  3
Dim-25
 10
2769.0558572734008
 20
375.02805279329186
 30
0.0
 11
2470.5558572734008
 21
397.7923774863302
 31
0.0
 70
32
 71
5
 42
597.0
 73
0
 74
0
 75
0
100
AcDbAlignedDimension
 13
2172.055857273299
 23
495.31054412791855
 33
0.0
 14
2769.0558572734008
 24
495.31054412791855
 34
0.0
 50
0.0
100
AcDbRotatedDimension
  0
DIMENSION
  5
104
330
17
100
AcDbEntity
  8
DIM
 62
7
100
AcDbDimension
280
0
  2
*D29
  3
Dim-25
 10
2127.119194397601
 20
495.31054412791855
 30
0.0
 11
2104.3548697045044
 21
545.3105441279477
 31
0.0
 70
32
 71
5
 42
100.0
 73
0
 74
0
 75
0
100
AcDbAlignedDimension
 13
2172.055857273299
 23
595.3105441279185
 33
0.0
 14
2172.055857273299
 24
495.31054412791855
 34
0.0
 50
90.0
100
AcDbRotatedDimension
  0
DIMENSION
  5
105
330
17
100
AcDbEntity
  8
DIM
 62
7
100
AcDbDimension
280
0
  2
*D30
  3
Dim-25
 10
2127.119194397499
 20
445.31054412791855
 30
0.0
 11
2104.3548697045044
 21
409.44731084008527
 31
0.0
 70
32
 71
5
 42
50.0
 73
0
 74
0
 75
0
100
AcDbAlignedDimension
 13
2172.055857273299
 23
495.31054412791855
 33
0.0
 14
2222.0558572734008
 24
445.31054412791855
 34
0.0
 50
90.0
100
AcDbRotatedDimension
  0
INSERT
  5
106
330
17
100
AcDbEntity
  8
0
370
-3
100
AcDbBlockReference
  2
f3daunguoc
 10
2234.1626295845053
 20
935.4451124963816
 30
0.0
 50
270.0
  0
INSERT
  5
108
330
17
100
AcDbEntity
  8
0
370
-3
100
AcDbBlockReference
  2
f3daunguoc
 10
2234.1626295845053
 20
835.4451124963816
 30
0.0
 50
270.0
  0
INSERT
  5
10A
330
17
100
AcDbEntity
  8
0
370
-3
100
AcDbBlockReference
  2
f3daunguoc
 10
2187.0558572734008
 20
595.3105441279185
 30
0.0
 50
270.0
  0
INSERT
  5
10C
330
17
100
AcDbEntity
  8
0
370
-3
100
AcDbBlockReference
  2
f3daunguoc
 10
2187.0558572734008
 20
495.31054412791855
 30
0.0
 50
270.0
  0
INSERT
  5
10E
330
17
100
AcDbEntity
  8
0
370
-3
100
AcDbBlockReference
  2
f3daunguoc
 10
2754.055857273299
 20
595.3105441279185
 30
0.0
 41
-1.0
 50
90.0
  0
INSERT
  5
110
330
17
100
AcDbEntity
  8
0
370
-3
100
AcDbBlockReference
  2
f3daunguoc
 10
2754.055857273299
 20
495.31054412791855
 30
0.0
 41
-1.0
 50
90.0
  0
INSERT
  5
112
330
17
100
AcDbEntity
  8
0
370
-3
100
AcDbBlockReference
  2
f3daunguoc
 10
2574.1626295844035
 20
935.4451124963816
 30
0.0
 41
-1.0
 50
90.0
  0
INSERT
  5
114
330
17
100
AcDbEntity
  8
0
370
-3
100
AcDbBlockReference
  2
f3daunguoc
 10
2574.1626295844035
 20
835.4451124963816
 30
0.0
 41
-1.0
 50
90.0
  0
INSERT
  5
116
330
17
100
AcDbEntity
  8
CNC
370
-3
100
AcDbBlockReference
  2
ovan8.5x20
 10
2270.5558572734008
 20
620.3105441279185
 30
0.0
 50
180.0
  0
INSERT
  5
118
330
17
100
AcDbEntity
  8
CNC
370
-3
100
AcDbBlockReference
  2
ovan8.5x20
 10
2270.5558572734008
 20
470.31054412791855
 30
0.0
 41
-1.0
  0
INSERT
  5
11A
330
17
100
AcDbEntity
  8
CNC
370
-3
100
AcDbBlockReference
  2
ovan8.5x20
 10
2670.5558572734008
 20
620.3105441279185
 30
0.0
 50
180.0
  0
INSERT
  5
11C
330
17
100
AcDbEntity
  8
CNC
370
-3
100
AcDbBlockReference
  2
ovan8.5x20
 10
2670.5558572734008
 20
470.31054412791855
 30
0.0
 41
-1.0
  0
MTEXT
  5
11E
330
17
100
AcDbEntity
  8
0
 62
2
100
AcDbMText
 10
2499.800335470005
 20
305.0089395735995
 30
0.0
 40
50.0
 41
1216.418609980494
 46
647.1644973081675
 71
5
 72
5
  1
Đế  : 2  Bộ
  0
DIMENSION
  5
11F
330
17
100
AcDbEntity
  8
DIM
 62
2
 48
3.0
100
AcDbDimension
280
0
  2
*D31
  3
Dim-25
 10
2873.387465458407
 20
645.3105441279185
 30
0.0
 11
2850.6231407653977
 21
545.3105441279477
 31
0.0
 70
32
 71
5
 42
200.0
 73
0
 74
0
 75
0
100
AcDbAlignedDimension
 13
2719.0558572734008
 23
445.31054412791855
 33
0.0
 14
2719.0558572734008
 24
645.3105441279185
 34
0.0
 50
90.0
100
AcDbRotatedDimension
  0
LWPOLYLINE
  5
120
330
17
100
AcDbEntity
  8
0
 62
7
100
AcDbPolyline
 90
4
 70
0
 10
262.143531145397
 20
477.42966081234044
 10
262.143531145397
 20
465.42966081234044
 10
782.143531145397
 20
465.42966081234044
 10
782.143531145397
 20
477.42966081234044
  0
LWPOLYLINE
  5
121
330
17
100
AcDbEntity
  8
0
 62
7
100
AcDbPolyline
 90
2
 70
0
 10
822.143531145397
 20
517.4296608123404
 10
822.143531145397
 20
888.4296608123404
  0
LWPOLYLINE
  5
122
330
17
100
AcDbEntity
  8
0
 62
7
100
AcDbPolyline
 90
2
 70
0
 10
222.143531145397
 20
888.4296608123404
 10
222.143531145397
 20
517.4296608123404
  0
LINE
  5
123
330
17
100
AcDbEntity
  8
0
 62
7
100
AcDbLine
 10
262.143531145397
 20
477.42966081234044
 30
0.0
 11
782.143531145397
 21
477.42966081234044
 31
0.0
  0
LINE
  5
124
330
17
100
AcDbEntity
  8
0
 62
7
100
AcDbLine
 10
222.143531145397
 20
517.4296608123404
 30
0.0
 11
822.143531145397
 21
517.4296608123404
 31
0.0
  0
LINE
  5
125
330
17
100
AcDbEntity
  8
0
 62
7
100
AcDbLine
 10
222.143531145397
 20
888.4296608123404
 30
0.0
 11
822.143531145397
 21
888.4296608123404
 31
0.0
  0
DIMENSION
  5
126
330
17
100
AcDbEntity
  8
DIM
 62
7
100
AcDbDimension
280
0
  2
*D32
  3
Dim-25
 10
154.72937850940798
 20
517.4296608123404
 30
0.0
 11
154.72937850950984
 21
653.4296608123404
 31
0.0
 70
160
 71
5
 42
371.0
 73
0
 74
0
 75
0
100
AcDbAlignedDimension
 13
222.143531145397
 23
888.4296608123404
 33
0.0
 14
222.143531145397
 24
517.4296608123404
 34
0.0
 50
-90.00000000000001
100
AcDbRotatedDimension
  0
DIMENSION
  5
127
330
17
100
AcDbEntity
  8
DIM
 62
7
100
AcDbDimension
280
0
  2
*D33
  3
Dim-25
 10
154.72937850940798
 20
477.42966081234044
 30
0.0
 11
154.72937850950984
 21
497.42966081236955
 31
0.0
 70
160
 71
5
 42
40.0
 73
0
 74
0
 75
0
100
AcDbAlignedDimension
 13
222.143531145397
 23
517.4296608123404
 33
0.0
 14
262.143531145397
 24
477.42966081234044
 34
0.0
 50
-90.00000000000001
100
AcDbRotatedDimension
  0
DIMENSION
  5
128
330
17
100
AcDbEntity
  8
DIM
 62
7
100
AcDbDimension
280
0
  2
*D34
  3
Dim-25
 10
154.72937850950984
 20
465.42966081234044
 30
0.0
 11
132.17821889150946
 21
422.82836476872035
 31
0.0
 70
32
 71
5
 42
12.0
 73
0
 74
0
 75
0
100
AcDbAlignedDimension
 13
262.143531145397
 23
477.42966081234044
 33
0.0
 14
262.143531145397
 24
465.42966081234044
 34
0.0
 50
-90.00000000000001
100
AcDbRotatedDimension
  0
LINE
  5
129
330
17
100
AcDbEntity
  8
0
 62
7
100
AcDbLine
 10
822.143531145397
 20
517.4296608123404
 30
0.0
 11
782.143531145397
 21
477.42966081234044
 31
0.0
  0
LINE
  5
12A
330
17
100
AcDbEntity
  8
0
 62
7
100
AcDbLine
 10
222.143531145397
 20
517.4296608123404
 30
0.0
 11
262.143531145397
 21
477.42966081234044
 31
0.0
  0
DIMENSION
  5
12B
330
17
100
AcDbEntity
  8
DIM
 62
7
100
AcDbDimension
280
0
  2
*D35
  3
Dim-25
 10
888.3696502052044
 20
465.42966081234044
 30
0.0
 11
865.5967989092023
 21
676.9296608123695
 31
0.0
 70
32
 71
5
 42
423.0
 73
0
 74
0
 75
0
100
AcDbAlignedDimension
 13
822.143531145397
 23
888.4296608123404
 33
0.0
 14
782.143531145397
 24
465.42966081234044
 34
0.0
 50
-90.00000000000001
100
AcDbRotatedDimension
  0
INSERT
  5
12C
330
17
100
AcDbEntity
  8
0
370
-3
100
AcDbBlockReference
  2
f3daunguoc
 10
237.143531145397
 20
517.4296608123404
 30
0.0
 50
270.0
  0
INSERT
  5
12E
330
17
100
AcDbEntity
  8
0
370
-3
100
AcDbBlockReference
  2
f3daunguoc
 10
277.143531145397
 20
477.42966081234044
 30
0.0
 50
270.0
  0
INSERT
  5
130
330
17
100
AcDbEntity
  8
0
370
-3
100
AcDbBlockReference
  2
f3daunguoc
 10
807.143531145397
 20
517.4296608123404
 30
0.0
 41
-1.0
 50
90.0
  0
INSERT
  5
132
330
17
100
AcDbEntity
  8
0
370
-3
100
AcDbBlockReference
  2
f3daunguoc
 10
767.143531145397
 20
477.42966081234044
 30
0.0
 41
-1.0
 50
90.0
  0
DIMENSION
  5
134
330
17
100
AcDbEntity
  8
DIM
 62
7
 48
3.0
100
AcDbDimension
280
0
  2
*D36
  3
Dim-25
 10
822.143531145397
 20
959.0557684384112
 30
0.0
 11
522.143531145397
 21
981.8200931314495
 31
0.0
 70
32
 71
5
 42
600.0
 73
0
 74
0
 75
0
100
AcDbAlignedDimension
 13
222.143531145397
 23
888.4296608123404
 33
0.0
 14
822.143531145397
 24
888.4296608123404
 34
0.0
 50
180.0
100
AcDbRotatedDimension
  0
MTEXT
  5
135
330
17
100
AcDbEntity
  8
0
 62
2
100
AcDbMText
 10
598.6809219071001
 20
429.1288554178609
 30
0.0
 40
25.0
 41
1072.000000000014
 46
100.0000000000031
 71
5
 72
5
  1
Tấm nóc : 2 tấm
  0
LWPOLYLINE
  5
136
330
17
100
AcDbEntity
  8
0
 62
7
100
AcDbPolyline
 90
4
 70
0
 10
1219.8337465576042
 20
477.42966081234044
 10
1219.8337465576042
 20
465.42966081234044
 10
1739.8337465576042
 20
465.42966081234044
 10
1739.8337465576042
 20
477.42966081234044
  0
LWPOLYLINE
  5
137
330
17
100
AcDbEntity
  8
0
 62
7
100
AcDbPolyline
 90
2
 70
0
 10
1779.8337465576042
 20
517.4296608123404
 10
1779.8337465576042
 20
888.4296608123404
  0
LWPOLYLINE
  5
138
330
17
100
AcDbEntity
  8
0
 62
7
100
AcDbPolyline
 90
2
 70
0
 10
1179.8337465576042
 20
888.4296608123404
 10
1179.8337465576042
 20
517.4296608123404
  0
LINE
  5
139
330
17
100
AcDbEntity
  8
0
 62
7
100
AcDbLine
 10
1219.8337465576042
 20
477.42966081234044
 30
0.0
 11
1739.8337465576042
 21
477.42966081234044
 31
0.0
  0
LINE
  5
13A
330
17
100
AcDbEntity
  8
0
 62
7
100
AcDbLine
 10
1179.8337465576042
 20
517.4296608123404
 30
0.0
 11
1779.8337465576042
 21
517.4296608123404
 31
0.0
  0
LINE
  5
13B
330
17
100
AcDbEntity
  8
0
 62
7
100
AcDbLine
 10
1179.8337465576042
 20
888.4296608123404
 30
0.0
 11
1779.8337465576042
 21
888.4296608123404
 31
0.0
  0
DIMENSION
  5
13C
330
17
100
AcDbEntity
  8
DIM
 62
7
100
AcDbDimension
280
0
  2
*D37
  3
Dim-25
 10
1112.4195939216006
 20
517.4296608123404
 30
0.0
 11
1112.4195939216006
 21
653.4296608123404
 31
0.0
 70
160
 71
5
 42
371.0
 73
0
 74
0
 75
0
100
AcDbAlignedDimension
 13
1179.8337465576042
 23
888.4296608123404
 33
0.0
 14
1179.8337465576042
 24
517.4296608123404
 34
0.0
 50
-90.00000000000001
100
AcDbRotatedDimension
  0
DIMENSION
  5
13D
330
17
100
AcDbEntity
  8
DIM
 62
7
100
AcDbDimension
280
0
  2
*D38
  3
Dim-25
 10
1112.4195939216006
 20
477.42966081234044
 30
0.0
 11
1112.4195939216006
 21
497.42966081236955
 31
0.0
 70
160
 71
5
 42
40.0
 73
0
 74
0
 75
0
100
AcDbAlignedDimension
 13
1179.8337465576042
 23
517.4296608123404
 33
0.0
 14
1219.8337465576042
 24
477.42966081234044
 34
0.0
 50
-90.00000000000001
100
AcDbRotatedDimension
  0
DIMENSION
  5
13E
330
17
100
AcDbEntity
  8
DIM
 62
7
100
AcDbDimension
280
0
  2
*D39
  3
Dim-25
 10
1112.4195939216006
 20
465.42966081234044
 30
0.0
 11
1089.8684343036002
 21
422.82836476872035
 31
0.0
 70
32
 71
5
 42
12.0
 73
0
 74
0
 75
0
100
AcDbAlignedDimension
 13
1219.8337465576042
 23
477.42966081234044
 33
0.0
 14
1219.8337465576042
 24
465.42966081234044
 34
0.0
 50
-90.00000000000001
100
AcDbRotatedDimension
  0
LINE
  5
13F
330
17
100
AcDbEntity
  8
0
 62
7
100
AcDbLine
 10
1779.8337465576042
 20
517.4296608123404
 30
0.0
 11
1739.8337465576042
 21
477.42966081234044
 31
0.0
  0
LINE
  5
140
330
17
100
AcDbEntity
  8
0
 62
7
100
AcDbLine
 10
1179.8337465576042
 20
517.4296608123404
 30
0.0
 11
1219.8337465576042
 21
477.42966081234044
 31
0.0
  0
DIMENSION
  5
141
330
17
100
AcDbEntity
  8
DIM
 62
7
100
AcDbDimension
280
0
  2
*D40
  3
Dim-25
 10
1846.059865617397
 20
465.42966081234044
 30
0.0
 11
1823.2870143213077
 21
676.9296608123695
 31
0.0
 70
32
 71
5
 42
423.0
 73
0
 74
0
 75
0
100
AcDbAlignedDimension
 13
1779.8337465576042
 23
888.4296608123404
 33
0.0
 14
1739.8337465576042
 24
465.42966081234044
 34
0.0
 50
-90.00000000000001
100
AcDbRotatedDimension
  0
INSERT
  5
142
330
17
100
AcDbEntity
  8
0
370
-3
100
AcDbBlockReference
  2
f3daunguoc
 10
1194.8337465576042
 20
517.4296608123404
 30
0.0
 50
270.0
  0
INSERT
  5
144
330
17
100
AcDbEntity
  8
0
370
-3
100
AcDbBlockReference
  2
f3daunguoc
 10
1234.8337465576042
 20
477.42966081234044
 30
0.0
 50
270.0
  0
INSERT
  5
146
330
17
100
AcDbEntity
  8
0
370
-3
100
AcDbBlockReference
  2
f3daunguoc
 10
1764.8337465576042
 20
517.4296608123404
 30
0.0
 41
-1.0
 50
90.0
  0
INSERT
  5
148
330
17
100
AcDbEntity
  8
0
370
-3
100
AcDbBlockReference
  2
f3daunguoc
 10
1724.8337465576042
 20
477.42966081234044
 30
0.0
 41
-1.0
 50
90.0
  0
DIMENSION
  5
14A
330
17
100
AcDbEntity
  8
DIM
 62
7
 48
3.0
100
AcDbDimension
280
0
  2
*D41
  3
Dim-25
 10
1779.8337465576042
 20
959.0557684384112
 30
0.0
 11
1479.8337465576042
 21
981.8200931314495
 31
0.0
 70
32
 71
5
 42
600.0
 73
0
 74
0
 75
0
100
AcDbAlignedDimension
 13
1179.8337465576042
 23
888.4296608123404
 33
0.0
 14
1779.8337465576042
 24
888.4296608123404
 34
0.0
 50
180.0
100
AcDbRotatedDimension
  0
MTEXT
  5
14B
330
17
100
AcDbEntity
  8
0
 62
2
100
AcDbMText
 10
1556.3711373193073
 20
429.1288554178609
 30
0.0
 40
25.0
 41
1072.000000000014
 46
100.0000000000031
 71
5
 72
5
  1
Tấm nóc : 2 tấm
  0
LWPOLYLINE
  5
14C
330
17
100
AcDbEntity
  8
0
 62
2
100
AcDbPolyline
 90
4
 70
1
 10
1354.8337465576042
 20
747.0748041774204
 10
1604.8337465576042
 20
747.0748041774204
 10
1604.8337465576042
 20
627.0748041774204
 10
1354.8337465576042
 20
627.0748041774204
  0
LWPOLYLINE
  5
14D
330
17
100
AcDbEntity
  8
0
 62
2
100
AcDbPolyline
 90
4
 70
1
 10
1350.0837465576042
 20
622.3248041774204
 10
1341.0837465576042
 20
622.3248041774204
 10
1341.0837465576042
 20
613.3248041774204
 10
1350.0837465576042
 20
613.3248041774204
  0
LWPOLYLINE
  5
14E
330
17
100
AcDbEntity
  8
0
 62
2
100
AcDbPolyline
 90
4
 70
1
 10
1609.5837465576042
 20
622.3248041774204
 10
1618.5837465576042
 20
622.3248041774204
 10
1618.5837465576042
 20
613.3248041774204
 10
1609.5837465576042
 20
613.3248041774204
  0
LWPOLYLINE
  5
14F
330
17
100
AcDbEntity
  8
0
 62
2
100
AcDbPolyline
 90
4
 70
1
 10
1350.0837465576042
 20
751.8248041774204
 10
1341.0837465576042
 20
751.8248041774204
 10
1341.0837465576042
 20
760.8248041774204
 10
1350.0837465576042
 20
760.8248041774204
  0
LWPOLYLINE
  5
150
330
17
100
AcDbEntity
  8
0
 62
2
100
AcDbPolyline
 90
4
 70
1
 10
1609.5837465576042
 20
751.8248041774204
 10
1618.5837465576042
 20
751.8248041774204
 10
1618.5837465576042
 20
760.8248041774204
 10
1609.5837465576042
 20
760.8248041774204
  0
LWPOLYLINE
  5
151
330
17
100
AcDbEntity
  8
0
 62
2
100
AcDbPolyline
 90
4
 70
1
 10
397.143531145397
 20
747.0748041774204
 10
647.143531145397
 20
747.0748041774204
 10
647.143531145397
 20
627.0748041774204
 10
397.143531145397
 20
627.0748041774204
  0
LWPOLYLINE
  5
152
330
17
100
AcDbEntity
  8
0
 62
2
100
AcDbPolyline
 90
4
 70
1
 10
392.393531145397
 20
622.3248041774204
 10
383.393531145397
 20
622.3248041774204
 10
383.393531145397
 20
613.3248041774204
 10
392.393531145397
 20
613.3248041774204
  0
LWPOLYLINE
  5
153
330
17
100
AcDbEntity
  8
0
 62
2
100
AcDbPolyline
 90
4
 70
1
 10
651.893531145397
 20
622.3248041774204
 10
660.893531145397
 20
622.3248041774204
 10
660.893531145397
 20
613.3248041774204
 10
651.893531145397
 20
613.3248041774204
  0
LWPOLYLINE
  5
154
330
17
100
AcDbEntity
  8
0
 62
2
100
AcDbPolyline
 90
4
 70
1
 10
392.393531145397
 20
751.8248041774204
 10
383.393531145397
 20
751.8248041774204
 10
383.393531145397
 20
760.8248041774204
 10
392.393531145397
 20
760.8248041774204
  0
LWPOLYLINE
  5
155
330
17
100
AcDbEntity
  8
0
 62
2
100
AcDbPolyline
 90
4
 70
1
 10
651.893531145397
 20
751.8248041774204
 10
660.893531145397
 20
751.8248041774204
 10
660.893531145397
 20
760.8248041774204
 10
651.893531145397
 20
760.8248041774204
  0
LWPOLYLINE
  5
156
330
17
100
AcDbEntity
  8
0
 62
7
100
AcDbPolyline
 90
4
 70
1
 10
3628.2191067756066
 20
2779.5580684195593
 10
4225.219106775505
 20
2779.5580684195593
 10
4225.219106775505
 20
1383.5580684195447
 10
3628.2191067756066
 20
1383.5580684195447
  0
LWPOLYLINE
  5
157
330
17
100
AcDbEntity
  8
0
 62
7
100
AcDbPolyline
 90
2
 70
0
 10
4259.219106775607
 20
2670.5580684195447
 10
4259.219106775607
 20
1492.5580684195447
  0
LWPOLYLINE
  5
158
330
17
100
AcDbEntity
  8
0
 62
7
100
AcDbPolyline
 90
2
 70
0
 10
4247.219106775607
 20
2779.5580684195593
 10
4247.219106775607
 20
2713.5580684195447
  0
LWPOLYLINE
  5
159
330
17
100
AcDbEntity
  8
0
 62
7
100
AcDbPolyline
 90
2
 70
0
 10
4247.219106775607
 20
2670.5580684195447
 10
4247.219106775607
 20
1492.5580684195447
  0
LWPOLYLINE
  5
15A
330
17
100
AcDbEntity
  8
0
 62
7
100
AcDbPolyline
 90
2
 70
0
 10
4247.219106775607
 20
1449.5580684195593
 10
4247.219106775607
 20
1383.5580684195447
  0
LWPOLYLINE
  5
15B
330
17
100
AcDbEntity
  8
0
 62
7
100
AcDbPolyline
 90
2
 70
0
 10
4225.219106775505
 20
1361.5580684195447
 10
3628.2191067756066
 20
1361.5580684195447
  0
LWPOLYLINE
  5
15C
330
17
100
AcDbEntity
  8
0
 62
7
100
AcDbPolyline
 90
2
 70
0
 10
3606.2191067756066
 20
1383.5580684195447
 10
3606.2191067756066
 20
2779.5580684195593
  0
LWPOLYLINE
  5
15D
330
17
100
AcDbEntity
  8
0
 62
7
100
AcDbPolyline
 90
2
 70
0
 10
3628.2191067756066
 20
2801.5580684195447
 10
4225.219106775505
 20
2801.5580684195447
  0
LWPOLYLINE
  5
15E
330
17
100
AcDbEntity
  8
0
 62
2
100
AcDbPolyline
 90
4
 70
0
 10
4259.219106775607
 20
2670.5580684195447
 10
4244.219106775607
 20
2670.5580684195447
 10
4244.219106775607
 20
2713.5580684195447
 10
4259.219106775607
 20
2713.5580684195447
  0
CIRCLE
  5
15F
330
17
100
AcDbEntity
  8
0
 62
2
100
AcDbCircle
 10
4204.719106775607
 20
2698.0580684195447
 30
0.0
 40
5.0
  0
CIRCLE
  5
160
330
17
100
AcDbEntity
  8
0
 62
2
100
AcDbCircle
 10
4204.719106775607
 20
2686.0580684195447
 30
0.0
 40
5.0
  0
LWPOLYLINE
  5
161
330
17
100
AcDbEntity
  8
0
 62
2
100
AcDbPolyline
 90
25
 70
0
 10
4259.219106775607
 20
1492.5580684195447
 10
4244.219106775607
 20
1492.5580684195447
 10
4244.219106775607
 20
1449.5580684195593
 10
4259.219106775607
 20
1449.5580684195593
 10
4259.219106775607
 20
1395.5580684195447
 10
4247.219106775607
 20
1383.5580684195447
 10
4225.219106775505
 20
1383.5580684195447
 10
4225.219106775505
 20
1361.5580684195447
 10
4213.219106775607
 20
1349.5580684195447
 10
3640.2191067756066
 20
1349.5580684195447
 10
3628.2191067756066
 20
1361.5580684195447
 10
3628.2191067756066
 20
1383.5580684195447
 10
3606.2191067756066
 20
1383.5580684195447
 10
3594.2191067755048
 20
1395.5580684195447
 10
3594.2191067755048
 20
2767.5580684195447
 10
3606.2191067756066
 20
2779.5580684195593
 10
3628.2191067756066
 20
2779.5580684195593
 10
3628.2191067756066
 20
2801.5580684195447
 10
3640.2191067756066
 20
2813.5580684195447
 10
4213.219106775607
 20
2813.5580684195447
 10
4225.219106775505
 20
2801.5580684195447
 10
4225.219106775505
 20
2779.5580684195593
 10
4247.219106775607
 20
2779.5580684195593
 10
4259.219106775607
 20
2767.5580684195447
 10
4259.219106775607
 20
2713.5580684195447
  0
CIRCLE
  5
162
330
17
100
AcDbEntity
  8
0
 62
2
100
AcDbCircle
 10
4204.719106775607
 20
1465.0580684195593
 30
0.0
 40
5.0
  0
CIRCLE
  5
163
330
17
100
AcDbEntity
  8
0
 62
2
100
AcDbCircle
 10
4204.719106775607
 20
1477.0580684195447
 30
0.0
 40
5.0
  0
INSERT
  5
164
330
17
100
AcDbEntity
  8
0
370
-3
100
AcDbBlockReference
  2
f3daunguoc
 10
3643.2191067756066
 20
2779.5580684195593
 30
0.0
 41
-1.0
 50
180.0
  0
INSERT
  5
166
330
17
100
AcDbEntity
  8
0
370
-3
100
AcDbBlockReference
  2
f3daunguoc
 10
3628.2191067756066
 20
2764.5580684195593
 30
0.0
 41
-1.0
 50
180.0
  0
INSERT
  5
168
330
17
100
AcDbEntity
  8
0
370
-3
100
AcDbBlockReference
  2
f3daunguoc
 10
3643.2191067756066
 20
2801.5580684195447
 30
0.0
 41
-1.0
 50
180.0
  0
INSERT
  5
16A
330
17
100
AcDbEntity
  8
0
370
-3
100
AcDbBlockReference
  2
f3daunguoc
 10
3606.2191067756066
 20
2764.5580684195593
 30
0.0
 41
-1.0
 50
180.0
  0
INSERT
  5
16C
330
17
100
AcDbEntity
  8
0
370
-3
100
AcDbBlockReference
  2
f3daunguoc
 10
3693.2191067755048
 20
2779.5580684195593
 30
0.0
 41
-1.0
 50
180.0
  0
INSERT
  5
16E
330
17
100
AcDbEntity
  8
0
370
-3
100
AcDbBlockReference
  2
f3daunguoc
 10
3693.2191067755048
 20
2801.5580684195447
 30
0.0
 41
-1.0
 50
180.0
  0
INSERT
  5
170
330
17
100
AcDbEntity
  8
0
370
-3
100
AcDbBlockReference
  2
f3daunguoc
 10
4210.219106775607
 20
2779.5580684195593
 30
0.0
 50
180.0
  0
INSERT
  5
172
330
17
100
AcDbEntity
  8
0
370
-3
100
AcDbBlockReference
  2
f3daunguoc
 10
4225.219106775505
 20
2764.5580684195593
 30
0.0
 50
180.0
  0
INSERT
  5
174
330
17
100
AcDbEntity
  8
0
370
-3
100
AcDbBlockReference
  2
f3daunguoc
 10
4210.219106775607
 20
2801.5580684195447
 30
0.0
 50
180.0
  0
INSERT
  5
176
330
17
100
AcDbEntity
  8
0
370
-3
100
AcDbBlockReference
  2
f3daunguoc
 10
4247.219106775607
 20
2764.5580684195593
 30
0.0
 50
180.0
  0
INSERT
  5
178
330
17
100
AcDbEntity
  8
0
370
-3
100
AcDbBlockReference
  2
f3daunguoc
 10
4160.219106775607
 20
2779.5580684195593
 30
0.0
 50
180.0
  0
INSERT
  5
17A
330
17
100
AcDbEntity
  8
0
370
-3
100
AcDbBlockReference
  2
f3daunguoc
 10
4160.219106775607
 20
2801.5580684195447
 30
0.0
 50
180.0
  0
INSERT
  5
17C
330
17
100
AcDbEntity
  8
0
370
-3
100
AcDbBlockReference
  2
f3daunguoc
 10
3643.2191067756066
 20
1383.5580684195447
 30
0.0
  0
INSERT
  5
17E
330
17
100
AcDbEntity
  8
0
370
-3
100
AcDbBlockReference
  2
f3daunguoc
 10
3628.2191067756066
 20
1398.5580684195447
 30
0.0
  0
INSERT
  5
180
330
17
100
AcDbEntity
  8
0
370
-3
100
AcDbBlockReference
  2
f3daunguoc
 10
3643.2191067756066
 20
1361.5580684195447
 30
0.0
  0
INSERT
  5
182
330
17
100
AcDbEntity
  8
0
370
-3
100
AcDbBlockReference
  2
f3daunguoc
 10
3606.2191067756066
 20
1398.5580684195447
 30
0.0
  0
INSERT
  5
184
330
17
100
AcDbEntity
  8
0
370
-3
100
AcDbBlockReference
  2
f3daunguoc
 10
3693.2191067755048
 20
1383.5580684195447
 30
0.0
  0
INSERT
  5
186
330
17
100
AcDbEntity
  8
0
370
-3
100
AcDbBlockReference
  2
f3daunguoc
 10
3693.2191067755048
 20
1361.5580684195447
 30
0.0
  0
INSERT
  5
188
330
17
100
AcDbEntity
  8
0
370
-3
100
AcDbBlockReference
  2
f3daunguoc
 10
4210.219106775607
 20
1383.5580684195447
 30
0.0
 41
-1.0
  0
INSERT
  5
18A
330
17
100
AcDbEntity
  8
0
370
-3
100
AcDbBlockReference
  2
f3daunguoc
 10
4225.219106775505
 20
1398.5580684195447
 30
0.0
 41
-1.0
  0
INSERT
  5
18C
330
17
100
AcDbEntity
  8
0
370
-3
100
AcDbBlockReference
  2
f3daunguoc
 10
4210.219106775607
 20
1361.5580684195447
 30
0.0
 41
-1.0
  0
INSERT
  5
18E
330
17
100
AcDbEntity
  8
0
370
-3
100
AcDbBlockReference
  2
f3daunguoc
 10
4247.219106775607
 20
1398.5580684195447
 30
0.0
 41
-1.0
  0
INSERT
  5
190
330
17
100
AcDbEntity
  8
0
370
-3
100
AcDbBlockReference
  2
f3daunguoc
 10
4160.219106775607
 20
1383.5580684195447
 30
0.0
 41
-1.0
  0
INSERT
  5
192
330
17
100
AcDbEntity
  8
0
370
-3
100
AcDbBlockReference
  2
f3daunguoc
 10
4160.219106775607
 20
1361.5580684195447
 30
0.0
 41
-1.0
  0
DIMENSION
  5
194
330
17
100
AcDbEntity
  8
DIM
 62
2
100
AcDbDimension
280
0
  2
*D42
  3
Dim-25
 10
4259.219106775607
 20
2837.740851960116
 30
0.0
 11
4301.820402819198
 21
2860.2920115781308
 31
0.0
 70
32
 71
5
 42
12.00000000001455
 73
0
 74
0
 75
0
100
AcDbAlignedDimension
 13
4247.219106775607
 23
2779.5580684195593
 33
0.0
 14
4259.219106775607
 24
2767.5580684195447
 34
0.0
 50
0.0
100
AcDbRotatedDimension
  0
DIMENSION
  5
195
330
17
100
AcDbEntity
  8
DIM
 62
2
100
AcDbDimension
280
0
  2
*D43
  3
Dim-25
 10
4247.219106775607
 20
2876.4188441520964
 30
0.0
 11
4283.2102391084045
 21
2898.9700037701114
 31
0.0
 70
32
 71
5
 42
22.0
 73
0
 74
0
 75
0
100
AcDbAlignedDimension
 13
4225.219106775505
 23
2801.5580684195447
 33
0.0
 14
4247.219106775607
 24
2779.5580684195593
 34
0.0
 50
0.0
100
AcDbRotatedDimension
  0
DIMENSION
  5
196
330
17
100
AcDbEntity
  8
DIM
 62
2
100
AcDbDimension
280
0
  2
*D44
  3
Dim-25
 10
3628.2191067756066
 20
2876.4188441520964
 30
0.0
 11
3926.7191067755048
 21
2899.1831688451493
 31
0.0
 70
32
 71
5
 42
597.0
 73
0
 74
0
 75
0
100
AcDbAlignedDimension
 13
4225.219106775505
 23
2801.5580684195447
 33
0.0
 14
3628.2191067756066
 24
2801.5580684195447
 34
0.0
 50
0.0
100
AcDbRotatedDimension
  0
DIMENSION
  5
197
330
17
100
AcDbEntity
  8
DIM
 62
2
100
AcDbDimension
280
0
  2
*D45
  3
Dim-25
 10
3493.460022614803
 20
1349.5580684195447
 30
0.0
 11
3470.6956979218085
 21
2081.558068419574
 31
0.0
 70
32
 71
5
 42
1464.0
 73
0
 74
0
 75
0
100
AcDbAlignedDimension
 13
3640.3525009368022
 23
2813.5580684195447
 33
0.0
 14
3640.3985952543007
 24
1349.5580684195447
 34
0.0
 50
90.0
100
AcDbRotatedDimension
  0
DIMENSION
  5
198
330
17
100
AcDbEntity
  8
DIM
 62
2
100
AcDbDimension
280
0
  2
*D46
  3
Dim-25
 10
3556.1445131595974
 20
2779.5580684195593
 30
0.0
 11
3533.37166186361
 21
2081.558068419574
 31
0.0
 70
32
 71
5
 42
1396.0
 73
0
 74
0
 75
0
100
AcDbAlignedDimension
 13
3606.2191067756066
 23
1383.5580684195447
 33
0.0
 14
3606.2191067756066
 24
2779.5580684195593
 34
0.0
 50
90.0
100
AcDbRotatedDimension
  0
DIMENSION
  5
199
330
17
100
AcDbEntity
  8
DIM
 62
2
100
AcDbDimension
280
0
  2
*D47
  3
Dim-25
 10
4259.219106775607
 20
1286.619498257176
 30
0.0
 11
3926.7191067755048
 21
1309.3838229502144
 31
0.0
 70
32
 71
5
 42
665.0
 73
0
 74
0
 75
0
100
AcDbAlignedDimension
 13
3594.2191067755048
 23
1395.5580684195447
 33
0.0
 14
4259.219106775607
 24
1395.5580684195447
 34
0.0
 50
0.0
100
AcDbRotatedDimension
  0
LWPOLYLINE
  5
19A
330
17
100
AcDbEntity
  8
0
 62
2
 48
3.0
100
AcDbPolyline
 90
4
 70
1
 10
3704.7191067756066
 20
2129.5580684195447
 10
3728.7191067756066
 20
2129.5580684195447
 10
3728.7191067756066
 20
2032.5580684195593
 10
3704.7191067756066
 20
2032.5580684195593
  0
INSERT
  5
19B
330
17
100
AcDbEntity
  8
CNC
370
-3
100
AcDbBlockReference
  2
ovan8.5x20
 10
1279.8337465576042
 20
863.4296608123404
 30
0.0
 50
90.0
  0
INSERT
  5
19D
330
17
100
AcDbEntity
  8
CNC
370
-3
100
AcDbBlockReference
  2
ovan8.5x20
 10
1679.8337465576042
 20
863.4296608123404
 30
0.0
 41
-1.0
 50
270.0
  0
INSERT
  5
19F
330
17
100
AcDbEntity
  8
CNC
370
-3
100
AcDbBlockReference
  2
ovan8.5x20
 10
1279.8337465576042
 20
542.4296608123404
 30
0.0
 41
-1.0
 50
90.0
  0
INSERT
  5
1A1
330
17
100
AcDbEntity
  8
CNC
370
-3
100
AcDbBlockReference
  2
ovan8.5x20
 10
1679.8337465576042
 20
542.4296608123404
 30
0.0
 50
270.0
  0
ENDSEC
  0
SECTION
  2
OBJECTS
  0
DICTIONARY
  5
A
330
0
100
AcDbDictionary
281
1
  3
ACAD_COLOR
350
B
  3
ACAD_GROUP
350
C
  3
ACAD_LAYOUT
350
D
  3
ACAD_MATERIAL
350
E
  3
ACAD_MLEADERSTYLE
350
F
  3
ACAD_MLINESTYLE
350
10
  3
ACAD_PLOTSETTINGS
350
11
  3
ACAD_PLOTSTYLENAME
350
12
  3
ACAD_SCALELIST
350
14
  3
ACAD_TABLESTYLE
350
15
  3
ACAD_VISUALSTYLE
350
16
  3
EZDXF_META
350
2D
  0
DICTIONARY
  5
B
330
A
100
AcDbDictionary
281
1
  0
DICTIONARY
  5
C
330
A
100
AcDbDictionary
281
1
  0
DICTIONARY
  5
D
330
A
100
AcDbDictionary
281
1
  3
Model
350
1A
  3
Layout1
350
1E
  0
DICTIONARY
  5
E
330
A
100
AcDbDictionary
281
1
  3
ByBlock
350
1F
  3
ByLayer
350
20
  3
Global
350
21
  0
DICTIONARY
  5
F
330
A
100
AcDbDictionary
281
1
  3
Standard
350
2C
  0
DICTIONARY
  5
10
330
A
100
AcDbDictionary
281
1
  3
Standard
350
22
  0
DICTIONARY
  5
11
330
A
100
AcDbDictionary
281
1
  0
ACDBDICTIONARYWDFLT
  5
12
330
A
100
AcDbDictionary
281
1
  3
Normal
350
13
100
AcDbDictionaryWithDefault
340
13
  0
ACDBPLACEHOLDER
  5
13
330
12
  0
DICTIONARY
  5
14
330
A
100
AcDbDictionary
281
1
  0
DICTIONARY
  5
15
330
A
100
AcDbDictionary
281
1
  0
DICTIONARY
  5
16
330
A
100
AcDbDictionary
281
1
  0
LAYOUT
  5
1A
330
D
100
AcDbPlotSettings
  1

  4
A3
  6

 40
7.5
 41
20.0
 42
7.5
 43
20.0
 44
420.0
 45
297.0
 46
0.0
 47
0.0
 48
0.0
 49
0.0
140
0.0
141
0.0
142
1.0
143
1.0
 70
1024
 72
1
 73
0
 74
5
  7

 75
16
 76
0
 77
2
 78
300
147
1.0
148
0.0
149
0.0
100
AcDbLayout
  1
Model
 70
1
 71
0
 10
0.0
 20
0.0
 11
420.0
 21
297.0
 12
0.0
 22
0.0
 32
0.0
 14
1e+20
 24
1e+20
 34
1e+20
 15
-1e+20
 25
-1e+20
 35
-1e+20
146
0.0
 13
0.0
 23
0.0
 33
0.0
 16
1.0
 26
0.0
 36
0.0
 17
0.0
 27
1.0
 37
0.0
 76
1
330
17
  0
LAYOUT
  5
1E
330
D
100
AcDbPlotSettings
  1

  4
A3
  6

 40
7.5
 41
20.0
 42
7.5
 43
20.0
 44
420.0
 45
297.0
 46
0.0
 47
0.0
 48
0.0
 49
0.0
140
0.0
141
0.0
142
1.0
143
1.0
 70
0
 72
1
 73
0
 74
5
  7

 75
16
 76
0
 77
2
 78
300
147
1.0
148
0.0
149
0.0
100
AcDbLayout
  1
Layout1
 70
1
 71
1
 10
0.0
 20
0.0
 11
420.0
 21
297.0
 12
0.0
 22
0.0
 32
0.0
 14
1e+20
 24
1e+20
 34
1e+20
 15
-1e+20
 25
-1e+20
 35
-1e+20
146
0.0
 13
0.0
 23
0.0
 33
0.0
 16
1.0
 26
0.0
 36
0.0
 17
0.0
 27
1.0
 37
0.0
 76
1
330
1B
  0
MATERIAL
  5
1F
102
{ACAD_REACTORS
330
E
102
}
330
E
100
AcDbMaterial
  1
ByBlock
  2

 70
0
 40
1.0
 71
1
 41
1.0
 91
-1023410177
 42
1.0
 72
1
  3

 73
1
 74
1
 75
1
 44
0.5
 73
0
 45
1.0
 46
1.0
 77
1
  4

 78
1
 79
1
170
1
 48
1.0
171
1
  6

172
1
173
1
174
1
140
1.0
141
1.0
175
1
  7

176
1
177
1
178
1
143
1.0
179
1
  8

270
1
271
1
272
1
145
1.0
146
1.0
273
1
  9

274
1
275
1
276
1
 42
1.0
 72
1
  3

 73
1
 74
1
 75
1
 94
63
  0
MATERIAL
  5
20
102
{ACAD_REACTORS
330
E
102
}
330
E
100
AcDbMaterial
  1
ByLayer
  2

 70
0
 40
1.0
 71
1
 41
1.0
 91
-1023410177
 42
1.0
 72
1
  3

 73
1
 74
1
 75
1
 44
0.5
 73
0
 45
1.0
 46
1.0
 77
1
  4

 78
1
 79
1
170
1
 48
1.0
171
1
  6

172
1
173
1
174
1
140
1.0
141
1.0
175
1
  7

176
1
177
1
178
1
143
1.0
179
1
  8

270
1
271
1
272
1
145
1.0
146
1.0
273
1
  9

274
1
275
1
276
1
 42
1.0
 72
1
  3

 73
1
 74
1
 75
1
 94
63
  0
MATERIAL
  5
21
102
{ACAD_REACTORS
330
E
102
}
330
E
100
AcDbMaterial
  1
Global
  2

 70
0
 40
1.0
 71
1
 41
1.0
 91
-1023410177
 42
1.0
 72
1
  3

 73
1
 74
1
 75
1
 44
0.5
 73
0
 45
1.0
 46
1.0
 77
1
  4

 78
1
 79
1
170
1
 48
1.0
171
1
  6

172
1
173
1
174
1
140
1.0
141
1.0
175
1
  7

176
1
177
1
178
1
143
1.0
179
1
  8

270
1
271
1
272
1
145
1.0
146
1.0
273
1
  9

274
1
275
1
276
1
 42
1.0
 72
1
  3

 73
1
 74
1
 75
1
 94
63
  0
MLINESTYLE
  5
22
102
{ACAD_REACTORS
330
10
102
}
330
10
100
AcDbMlineStyle
  2
Standard
 70
0
  3

 62
256
 51
90.0
 52
90.0
 71
2
 49
0.5
 62
256
  6
BYLAYER
 49
-0.5
 62
256
  6
BYLAYER
  0
MLEADERSTYLE
  5
2C
102
{ACAD_REACTORS
330
F
102
}
330
F
100
AcDbMLeaderStyle
179
2
170
2
171
1
172
0
 90
2
 40
0.0
 41
0.0
173
1
 91
-1056964608
 92
-2
290
1
 42
2.0
291
1
 43
8.0
  3
Standard
 44
4.0
300

342
29
174
1
175
1
176
0
178
1
 93
-1056964608
 45
4.0
292
0
297
0
 46
4.0
 94
-1056964608
 47
1.0
 49
1.0
140
1.0
294
1
141
0.0
177
0
142
1.0
295
0
296
0
143
3.75
271
0
272
9
273
9
  0
DICTIONARY
  5
2D
330
A
100
AcDbDictionary
280
1
281
1
  3
CREATED_BY_EZDXF
350
2E
  3
WRITTEN_BY_EZDXF
350
1D9
  0
DICTIONARYVAR
  5
2E
330
2D
100
DictionaryVariables
280
0
  1
1.4.4 @ 2026-09-24T06:32:44.533706+00:00
  0
DICTIONARYVAR
  5
1D9
330
2D
100
DictionaryVariables
280
0
  1
1.4.4 @ 2026-09-24T06:38:34.354155+00:00
  0
ENDSEC
  0
EOF
