  0
SECTION
  2
HEADER
  9
$ACADVER
  1
AC1032
  9
$ACADMAINTVER
 90
4
  9
$DWGCODEPAGE
  3
ANSI_1252
  9
$LASTSAVEDBY
  1
ezdxf
  9
$REQUIREDVERSIONS
160
0
  9
$INSBASE
 10
0.0
 20
0.0
 30
0.0
  9
$EXTMIN
 10
1e+20
 20
1e+20
 30
1e+20
  9
$EXTMAX
 10
-1e+20
 20
-1e+20
 30
-1e+20
  9
$LIMMIN
 10
0.0
 20
0.0
  9
$LIMMAX
 10
420.0
 20
297.0
  9
$ORTHOMODE
 70
0
  9
$REGENMODE
 70
1
  9
$FILLMODE
 70
1
  9
$QTEXTMODE
 70
0
  9
$MIRRTEXT
 70
1
  9
$LTSCALE
 40
1.0
  9
$ATTMODE
 70
1
  9
$TEXTSIZE
 40
2.5
  9
$TRACEWID
 40
1.0
  9
$TEXTSTYLE
  7
Standard
  9
$CLAYER
  8
0
  9
$CELTYPE
  6
ByLayer
  9
$CECOLOR
 62
256
  9
$CELTSCALE
 40
1.0
  9
$DISPSILH
 70
0
  9
$DIMSCALE
 40
1.0
  9
$DIMASZ
 40
2.5
  9
$DIMEXO
 40
0.625
  9
$DIMDLI
 40
3.75
  9
$DIMRND
 40
0.0
  9
$DIMDLE
 40
0.0
  9
$DIMEXE
 40
1.25
  9
$DIMTP
 40
0.0
  9
$DIMTM
 40
0.0
  9
$DIMTXT
 40
2.5
  9
$DIMCEN
 40
2.5
  9
$DIMTSZ
 40
0.0
  9
$DIMTOL
 70
0
  9
$DIMLIM
 70
0
  9
$DIMTIH
 70
0
  9
$DIMTOH
 70
0
  9
$DIMSE1
 70
0
  9
$DIMSE2
 70
0
  9
$DIMTAD
 70
1
  9
$DIMZIN
 70
8
  9
$DIMBLK
  1

  9
$DIMASO
 70
1
  9
$DIMSHO
 70
1
  9
$DIMPOST
  1

  9
$DIMAPOST
  1

  9
$DIMALT
 70
0
  9
$DIMALTD
 70
3
  9
$DIMALTF
 40
0.03937007874
  9
$DIMLFAC
 40
1.0
  9
$DIMTOFL
 70
1
  9
$DIMTVP
 40
0.0
  9
$DIMTIX
 70
0
  9
$DIMSOXD
 70
0
  9
$DIMSAH
 70
0
  9
$DIMBLK1
  1

  9
$DIMBLK2
  1

  9
$DIMSTYLE
  2
ISO-25
  9
$DIMCLRD
 70
0
  9
$DIMCLRE
 70
0
  9
$DIMCLRT
 70
0
  9
$DIMTFAC
 40
1.0
  9
$DIMGAP
 40
0.625
  9
$DIMJUST
 70
0
  9
$DIMSD1
 70
0
  9
$DIMSD2
 70
0
  9
$DIMTOLJ
 70
0
  9
$DIMTZIN
 70
8
  9
$DIMALTZ
 70
0
  9
$DIMALTTZ
 70
0
  9
$DIMUPT
 70
0
  9
$DIMDEC
 70
2
  9
$DIMTDEC
 70
2
  9
$DIMALTU
 70
2
  9
$DIMALTTD
 70
3
  9
$DIMTXSTY
  7
Standard
  9
$DIMAUNIT
 70
0
  9
$DIMADEC
 70
0
  9
$DIMALTRND
 40
0.0
  9
$DIMAZIN
 70
0
  9
$DIMDSEP
 70
44
  9
$DIMATFIT
 70
3
  9
$DIMFRAC
 70
0
  9
$DIMLDRBLK
  1

  9
$DIMLUNIT
 70
2
  9
$DIMLWD
 70
-2
  9
$DIMLWE
 70
-2
  9
$DIMTMOVE
 70
0
  9
$DIMFXL
 40
1.0
  9
$DIMFXLON
 70
0
  9
$DIMJOGANG
 40
0.785398163397
  9
$DIMTFILL
 70
0
  9
$DIMTFILLCLR
 70
0
  9
$DIMARCSYM
 70
0
  9
$DIMLTYPE
  6

  9
$DIMLTEX1
  6

  9
$DIMLTEX2
  6

  9
$DIMTXTDIRECTION
 70
0
  9
$LUNITS
 70
2
  9
$LUPREC
 70
4
  9
$SKETCHINC
 40
1.0
  9
$FILLETRAD
 40
10.0
  9
$AUNITS
 70
0
  9
$AUPREC
 70
2
  9
$MENU
  1
.
  9
$ELEVATION
 40
0.0
  9
$PELEVATION
 40
0.0
  9
$THICKNESS
 40
0.0
  9
$LIMCHECK
 70
0
  9
$CHAMFERA
 40
0.0
  9
$CHAMFERB
 40
0.0
  9
$CHAMFERC
 40
0.0
  9
$CHAMFERD
 40
0.0
  9
$SKPOLY
 70
0
  9
$TDCREATE
 40
2461308.5684375
  9
$TDUCREATE
 40
2458532.153996898
  9
$TDUPDATE
 40
2461308.5684375
  9
$TDUUPDATE
 40
2458532.1544311
  9
$TDINDWG
 40
0.0
  9
$TDUSRTIMER
 40
0.0
  9
$USRTIMER
 70
1
  9
$ANGBASE
 50
0.0
  9
$ANGDIR
 70
0
  9
$PDMODE
 70
0
  9
$PDSIZE
 40
0.0
  9
$PLINEWID
 40
0.0
  9
$SPLFRAME
 70
0
  9
$SPLINETYPE
 70
6
  9
$SPLINESEGS
 70
8
  9
$HANDSEED
  5
5A0
  9
$SURFTAB1
 70
6
  9
$SURFTAB2
 70
6
  9
$SURFTYPE
 70
6
  9
$SURFU
 70
6
  9
$SURFV
 70
6
  9
$UCSBASE
  2

  9
$UCSNAME
  2

  9
$UCSORG
 10
0.0
 20
0.0
 30
0.0
  9
$UCSXDIR
 10
1.0
 20
0.0
 30
0.0
  9
$UCSYDIR
 10
0.0
 20
1.0
 30
0.0
  9
$UCSORTHOREF
  2

  9
$UCSORTHOVIEW
 70
0
  9
$UCSORGTOP
 10
0.0
 20
0.0
 30
0.0
  9
$UCSORGBOTTOM
 10
0.0
 20
0.0
 30
0.0
  9
$UCSORGLEFT
 10
0.0
 20
0.0
 30
0.0
  9
$UCSORGRIGHT
 10
0.0
 20
0.0
 30
0.0
  9
$UCSORGFRONT
 10
0.0
 20
0.0
 30
0.0
  9
$UCSORGBACK
 10
0.0
 20
0.0
 30
0.0
  9
$PUCSBASE
  2

  9
$PUCSNAME
  2

  9
$PUCSORG
 10
0.0
 20
0.0
 30
0.0
  9
$PUCSXDIR
 10
1.0
 20
0.0
 30
0.0
  9
$PUCSYDIR
 10
0.0
 20
1.0
 30
0.0
  9
$PUCSORTHOREF
  2

  9
$PUCSORTHOVIEW
 70
0
  9
$PUCSORGTOP
 10
0.0
 20
0.0
 30
0.0
  9
$PUCSORGBOTTOM
 10
0.0
 20
0.0
 30
0.0
  9
$PUCSORGLEFT
 10
0.0
 20
0.0
 30
0.0
  9
$PUCSORGRIGHT
 10
0.0
 20
0.0
 30
0.0
  9
$PUCSORGFRONT
 10
0.0
 20
0.0
 30
0.0
  9
$PUCSORGBACK
 10
0.0
 20
0.0
 30
0.0
  9
$USERI1
 70
0
  9
$USERI2
 70
0
  9
$USERI3
 70
0
  9
$USERI4
 70
0
  9
$USERI5
 70
0
  9
$USERR1
 40
0.0
  9
$USERR2
 40
0.0
  9
$USERR3
 40
0.0
  9
$USERR4
 40
0.0
  9
$USERR5
 40
0.0
  9
$WORLDVIEW
 70
1
  9
$SHADEDGE
 70
3
  9
$SHADEDIF
 70
70
  9
$TILEMODE
 70
1
  9
$MAXACTVP
 70
64
  9
$PINSBASE
 10
0.0
 20
0.0
 30
0.0
  9
$PLIMCHECK
 70
0
  9
$PEXTMIN
 10
1e+20
 20
1e+20
 30
1e+20
  9
$PEXTMAX
 10
-1e+20
 20
-1e+20
 30
-1e+20
  9
$PLIMMIN
 10
0.0
 20
0.0
  9
$PLIMMAX
 10
420.0
 20
297.0
  9
$UNITMODE
 70
0
  9
$VISRETAIN
 70
1
  9
$PLINEGEN
 70
0
  9
$PSLTSCALE
 70
1
  9
$TREEDEPTH
 70
3020
  9
$CMLSTYLE
  2
Standard
  9
$CMLJUST
 70
0
  9
$CMLSCALE
 40
20.0
  9
$PROXYGRAPHICS
 70
1
  9
$MEASUREMENT
 70
1
  9
$CELWEIGHT
370
-1
  9
$ENDCAPS
280
0
  9
$JOINSTYLE
280
0
  9
$LWDISPLAY
290
0
  9
$INSUNITS
 70
4
  9
$HYPERLINKBASE
  1

  9
$STYLESHEET
  1

  9
$XEDIT
290
1
  9
$CEPSNTYPE
380
0
  9
$PSTYLEMODE
290
1
  9
$FINGERPRINTGUID
  2
{2B66B835-5AAA-496E-BFFD-520DD758ABBA}
  9
$VERSIONGUID
  2
{F8311C8D-04D1-4924-8055-CE7990D43670}
  9
$EXTNAMES
290
1
  9
$PSVPSCALE
 40
0.0
  9
$OLESTARTUP
290
0
  9
$SORTENTS
280
127
  9
$INDEXCTL
280
0
  9
$HIDETEXT
280
1
  9
$XCLIPFRAME
280
1
  9
$HALOGAP
280
0
  9
$OBSCOLOR
 70
257
  9
$OBSLTYPE
280
0
  9
$INTERSECTIONDISPLAY
280
0
  9
$INTERSECTIONCOLOR
 70
257
  9
$DIMASSOC
280
2
  9
$PROJECTNAME
  1

  9
$CAMERADISPLAY
290
0
  9
$LENSLENGTH
 40
50.0
  9
$CAMERAHEIGHT
 40
0.0
  9
$STEPSPERSEC
 40
24.0
  9
$STEPSIZE
 40
100.0
  9
$3DDWFPREC
 40
2.0
  9
$PSOLWIDTH
 40
0.005
  9
$PSOLHEIGHT
 40
0.08
  9
$LOFTANG1
 40
1.570796326795
  9
$LOFTANG2
 40
1.570796326795
  9
$LOFTMAG1
 40
0.0
  9
$LOFTMAG2
 40
0.0
  9
$LOFTPARAM
 70
7
  9
$LOFTNORMALS
280
1
  9
$LATITUDE
 40
37.795
  9
$LONGITUDE
 40
-122.394
  9
$NORTHDIRECTION
 40
0.0
  9
$TIMEZONE
 70
-8000
  9
$LIGHTGLYPHDISPLAY
280
1
  9
$TILEMODELIGHTSYNCH
280
1
  9
$CMATERIAL
347
20
  9
$SOLIDHIST
280
0
  9
$SHOWHIST
280
1
  9
$DWFFRAME
280
2
  9
$DGNFRAME
280
2
  9
$REALWORLDSCALE
290
1
  9
$INTERFERECOLOR
 62
256
  9
$CSHADOW
280
0
  9
$SHADOWPLANELOCATION
 40
0.0
  0
ENDSEC
  0
SECTION
  2
CLASSES
  0
CLASS
  1
ACDBDICTIONARYWDFLT
  2
AcDbDictionaryWithDefault
  3
ObjectDBX Classes
 90
0
 91
0
280
0
281
0
  0
CLASS
  1
SUN
  2
AcDbSun
  3
SCENEOE
 90
1153
 91
0
280
0
281
0
  0
CLASS
  1
VISUALSTYLE
  2
AcDbVisualStyle
  3
ObjectDBX Classes
 90
4095
 91
0
280
0
281
0
  0
CLASS
  1
MATERIAL
  2
AcDbMaterial
  3
ObjectDBX Classes
 90
1153
 91
0
280
0
281
0
  0
CLASS
  1
SCALE
  2
AcDbScale
  3
ObjectDBX Classes
 90
1153
 91
0
280
0
281
0
  0
CLASS
  1
TABLESTYLE
  2
AcDbTableStyle
  3
ObjectDBX Classes
 90
4095
 91
0
280
0
281
0
  0
CLASS
  1
MLEADERSTYLE
  2
AcDbMLeaderStyle
  3
ACDB_MLEADERSTYLE_CLASS
 90
4095
 91
0
280
0
281
0
  0
CLASS
  1
DICTIONARYVAR
  2
AcDbDictionaryVar
  3
ObjectDBX Classes
 90
0
 91
0
280
0
281
0
  0
CLASS
  1
CELLSTYLEMAP
  2
AcDbCellStyleMap
  3
ObjectDBX Classes
 90
1152
 91
0
280
0
281
0
  0
CLASS
  1
MENTALRAYRENDERSETTINGS
  2
AcDbMentalRayRenderSettings
  3
SCENEOE
 90
1024
 91
0
280
0
281
0
  0
CLASS
  1
ACDBDETAILVIEWSTYLE
  2
AcDbDetailViewStyle
  3
ObjectDBX Classes
 90
1025
 91
0
280
0
281
0
  0
CLASS
  1
ACDBSECTIONVIEWSTYLE
  2
AcDbSectionViewStyle
  3
ObjectDBX Classes
 90
1025
 91
0
280
0
281
0
  0
CLASS
  1
RASTERVARIABLES
  2
AcDbRasterVariables
  3
ISM
 90
0
 91
0
280
0
281
0
  0
CLASS
  1
ACDBPLACEHOLDER
  2
AcDbPlaceHolder
  3
ObjectDBX Classes
 90
0
 91
0
280
0
281
0
  0
CLASS
  1
LAYOUT
  2
AcDbLayout
  3
ObjectDBX Classes
 90
0
 91
0
280
0
281
0
  0
ENDSEC
  0
SECTION
  2
TABLES
  0
TABLE
  2
VPORT
  5
8
330
0
100
AcDbSymbolTable
 70
1
  0
VPORT
  5
23
330
8
100
AcDbSymbolTableRecord
100
AcDbViewportTableRecord
  2
*Active
 70
0
 10
0.0
 20
0.0
 11
1.0
 21
1.0
 12
0.0
 22
0.0
 13
0.0
 23
0.0
 14
0.5
 24
0.5
 15
0.5
 25
0.5
 16
0.0
 26
0.0
 36
1.0
 17
0.0
 27
0.0
 37
0.0
 40
1000.0
 41
1.34
 42
50.0
 43
0.0
 44
0.0
 50
0.0
 51
0.0
 71
0
 72
1000
 73
1
 74
3
 75
0
 76
0
 77
0
 78
0
281
0
 65
0
146
0.0
  0
ENDTAB
  0
TABLE
  2
LTYPE
  5
2
330
0
100
AcDbSymbolTable
 70
3
  0
LTYPE
  5
24
330
2
100
AcDbSymbolTableRecord
100
AcDbLinetypeTableRecord
  2
ByBlock
 70
0
  3

 72
65
 73
0
 40
0.0
  0
LTYPE
  5
25
330
2
100
AcDbSymbolTableRecord
100
AcDbLinetypeTableRecord
  2
ByLayer
 70
0
  3

 72
65
 73
0
 40
0.0
  0
LTYPE
  5
26
330
2
100
AcDbSymbolTableRecord
100
AcDbLinetypeTableRecord
  2
Continuous
 70
0
  3

 72
65
 73
0
 40
0.0
  0
ENDTAB
  0
TABLE
  2
LAYER
  5
1
330
0
100
AcDbSymbolTable
 70
4
  0
LAYER
  5
27
330
1
100
AcDbSymbolTableRecord
100
AcDbLayerTableRecord
  2
0
 70
0
 62
7
  6
Continuous
370
-3
390
13
347
21
  0
LAYER
  5
28
330
1
100
AcDbSymbolTableRecord
100
AcDbLayerTableRecord
  2
Defpoints
 70
0
 62
7
  6
Continuous
290
0
370
-3
390
13
347
21
  0
LAYER
  5
2ED
330
1
100
AcDbSymbolTableRecord
100
AcDbLayerTableRecord
  2
CNC
 70
0
 62
7
  6
Continuous
370
-3
390
13
347
21
  0
LAYER
  5
2EE
330
1
100
AcDbSymbolTableRecord
100
AcDbLayerTableRecord
  2
DIM
 70
0
 62
253
  6
Continuous
370
-3
390
13
347
21
  0
ENDTAB
  0
TABLE
  2
STYLE
  5
5
330
0
100
AcDbSymbolTable
 70
3
  0
STYLE
  5
29
330
5
100
AcDbSymbolTableRecord
100
AcDbTextStyleTableRecord
  2
Standard
 70
0
 40
0.0
 41
1.0
 50
0.0
 71
0
 42
2.5
  3
txt
  4

  0
STYLE
  5
2EF
330
5
100
AcDbSymbolTableRecord
100
AcDbTextStyleTableRecord
  2
Tahoma (Input Text)
 70
0
 40
0.0
 41
1.0
 50
0.0
 71
0
 42
25.0
  3
tahoma.ttf
  4

  0
STYLE
  5
2F0
330
5
100
AcDbSymbolTableRecord
100
AcDbTextStyleTableRecord
  2
Arial
 70
0
 40
0.0
 41
1.0
 50
0.0
 71
0
 42
0.2
  3
arial.ttf
  4

  0
ENDTAB
  0
TABLE
  2
VIEW
  5
7
330
0
100
AcDbSymbolTable
 70
0
  0
ENDTAB
  0
TABLE
  2
UCS
  5
6
330
0
100
AcDbSymbolTable
 70
0
  0
ENDTAB
  0
TABLE
  2
APPID
  5
3
330
0
100
AcDbSymbolTable
 70
3
  0
APPID
  5
2A
330
3
100
AcDbSymbolTableRecord
100
AcDbRegAppTableRecord
  2
ACAD
 70
0
  0
APPID
  5
2F1
330
3
100
AcDbSymbolTableRecord
100
AcDbRegAppTableRecord
  2
HATCHBACKGROUNDCOLOR
 70
0
  0
APPID
  5
2F2
330
3
100
AcDbSymbolTableRecord
100
AcDbRegAppTableRecord
  2
EZDXF
 70
0
  0
ENDTAB
  0
TABLE
  2
DIMSTYLE
  5
4
330
0
100
AcDbSymbolTable
 70
3
100
AcDbDimStyleTable
  0
DIMSTYLE
105
2B
330
4
100
AcDbSymbolTableRecord
100
AcDbDimStyleTableRecord
  2
Standard
 70
0
 40
1.0
 41
2.5
 42
0.625
 43
3.75
 44
1.25
 45
0.0
 46
0.0
 47
0.0
 48
0.0
 49
2.5
140
2.5
141
2.5
142
0.0
143
0.03937007874
144
1.0
145
0.0
146
1.0
147
0.625
148
0.0
 69
0
 70
0
 71
0
 72
0
 73
0
 74
0
 75
0
 76
0
 77
1
 78
8
 79
3
170
0
171
3
172
1
173
0
174
0
175
0
176
0
177
0
178
0
179
2
271
2
272
2
273
2
274
3
275
0
276
0
277
2
278
44
279
0
280
0
281
0
282
0
283
0
284
8
285
0
286
0
288
0
289
3
290
0
371
-2
372
-2
  0
DIMSTYLE
105
2EB
330
4
100
AcDbSymbolTableRecord
100
AcDbDimStyleTableRecord
  2
Dim-25
 70
0
 40
1.0
 41
8.0
 42
15.0
 43
3.75
 44
10.0
 45
0.0
 46
0.0
 47
0.0
 48
0.0
 49
2.5
140
25.0
141
10.0
142
0.0
143
0.03937007874016
144
1.0
145
0.0
146
1.0
147
10.0
148
0.0
 69
0
 70
0
 71
0
 72
0
 73
0
 74
0
 75
0
 76
0
 77
1
 78
8
 79
3
170
0
171
3
172
1
173
0
174
0
175
0
176
5
177
5
178
3
179
2
271
0
272
0
273
2
274
3
275
0
276
0
277
2
278
44
279
0
280
0
281
0
282
0
283
0
284
8
285
0
286
0
288
0
289
3
290
0
340
29
341
38
342
38
345
25
346
25
347
25
371
9
372
9
  0
DIMSTYLE
105
2EC
330
4
100
AcDbSymbolTableRecord
100
AcDbDimStyleTableRecord
  2
Dim-15
 70
0
 40
1.0
 41
5.0
 42
8.0
 43
3.75
 44
5.0
 45
0.0
 46
0.0
 47
0.0
 48
0.0
 49
2.5
140
15.0
141
10.0
142
0.0
143
0.03937007874016
144
1.0
145
0.0
146
1.0
147
5.0
148
0.0
 69
0
 70
0
 71
0
 72
0
 73
0
 74
0
 75
0
 76
0
 77
1
 78
8
 79
3
170
0
171
3
172
1
173
0
174
0
175
0
176
5
177
5
178
3
179
2
271
0
272
0
273
2
274
3
275
0
276
0
277
2
278
44
279
0
280
0
281
0
282
0
283
0
284
8
285
0
286
0
288
0
289
3
290
0
340
29
341
38
342
38
345
25
346
25
347
25
371
9
372
9
  0
ENDTAB
  0
TABLE
  2
BLOCK_RECORD
  5
9
330
0
100
AcDbSymbolTable
 70
45
  0
BLOCK_RECORD
  5
17
330
9
100
AcDbSymbolTableRecord
100
AcDbBlockTableRecord
  2
*Model_Space
340
1A
 70
0
280
1
281
0
  0
BLOCK_RECORD
  5
1B
330
9
100
AcDbSymbolTableRecord
100
AcDbBlockTableRecord
  2
*Paper_Space
340
1E
 70
0
280
1
281
0
  0
BLOCK_RECORD
  5
38
330
9
100
AcDbSymbolTableRecord
100
AcDbBlockTableRecord
  2
_Oblique
340
0
 70
0
280
1
281
0
  0
BLOCK_RECORD
  5
2B8
330
9
100
AcDbSymbolTableRecord
100
AcDbBlockTableRecord
  2
f3daunguoc
340
0
 70
0
280
1
281
0
  0
BLOCK_RECORD
  5
2BC
330
9
100
AcDbSymbolTableRecord
100
AcDbBlockTableRecord
  2
ovan8.5x20
340
0
 70
0
280
1
281
0
  0
BLOCK_RECORD
  5
2C3
330
9
100
AcDbSymbolTableRecord
100
AcDbBlockTableRecord
  2
f2dauxuoi
340
0
 70
0
280
1
281
0
  0
BLOCK_RECORD
  5
2C7
330
9
100
AcDbSymbolTableRecord
100
AcDbBlockTableRecord
  2
khungtenAsean2
340
0
 70
0
280
1
281
0
  0
BLOCK_RECORD
  5
3C5
330
9
100
AcDbSymbolTableRecord
100
AcDbBlockTableRecord
  2
*D1
340
0
 70
0
280
1
281
0
  0
BLOCK_RECORD
  5
3D1
330
9
100
AcDbSymbolTableRecord
100
AcDbBlockTableRecord
  2
*D2
340
0
 70
0
280
1
281
0
  0
BLOCK_RECORD
  5
3DD
330
9
100
AcDbSymbolTableRecord
100
AcDbBlockTableRecord
  2
*D3
340
0
 70
0
280
1
281
0
  0
BLOCK_RECORD
  5
3EB
330
9
100
AcDbSymbolTableRecord
100
AcDbBlockTableRecord
  2
*D4
340
0
 70
0
280
1
281
0
  0
BLOCK_RECORD
  5
3F7
330
9
100
AcDbSymbolTableRecord
100
AcDbBlockTableRecord
  2
*D5
340
0
 70
0
280
1
281
0
  0
BLOCK_RECORD
  5
403
330
9
100
AcDbSymbolTableRecord
100
AcDbBlockTableRecord
  2
*D6
340
0
 70
0
280
1
281
0
  0
BLOCK_RECORD
  5
411
330
9
100
AcDbSymbolTableRecord
100
AcDbBlockTableRecord
  2
*D7
340
0
 70
0
280
1
281
0
  0
BLOCK_RECORD
  5
41D
330
9
100
AcDbSymbolTableRecord
100
AcDbBlockTableRecord
  2
*D8
340
0
 70
0
280
1
281
0
  0
BLOCK_RECORD
  5
429
330
9
100
AcDbSymbolTableRecord
100
AcDbBlockTableRecord
  2
*D9
340
0
 70
0
280
1
281
0
  0
BLOCK_RECORD
  5
435
330
9
100
AcDbSymbolTableRecord
100
AcDbBlockTableRecord
  2
*D10
340
0
 70
0
280
1
281
0
  0
BLOCK_RECORD
  5
443
330
9
100
AcDbSymbolTableRecord
100
AcDbBlockTableRecord
  2
*D11
340
0
 70
0
280
1
281
0
  0
BLOCK_RECORD
  5
44F
330
9
100
AcDbSymbolTableRecord
100
AcDbBlockTableRecord
  2
*D12
340
0
 70
0
280
1
281
0
  0
BLOCK_RECORD
  5
45B
330
9
100
AcDbSymbolTableRecord
100
AcDbBlockTableRecord
  2
*D13
340
0
 70
0
280
1
281
0
  0
BLOCK_RECORD
  5
469
330
9
100
AcDbSymbolTableRecord
100
AcDbBlockTableRecord
  2
*D14
340
0
 70
0
280
1
281
0
  0
BLOCK_RECORD
  5
475
330
9
100
AcDbSymbolTableRecord
100
AcDbBlockTableRecord
  2
*D15
340
0
 70
0
280
1
281
0
  0
BLOCK_RECORD
  5
481
330
9
100
AcDbSymbolTableRecord
100
AcDbBlockTableRecord
  2
*D16
340
0
 70
0
280
1
281
0
  0
BLOCK_RECORD
  5
48F
330
9
100
AcDbSymbolTableRecord
100
AcDbBlockTableRecord
  2
*D17
340
0
 70
0
280
1
281
0
  0
BLOCK_RECORD
  5
49B
330
9
100
AcDbSymbolTableRecord
100
AcDbBlockTableRecord
  2
*D18
340
0
 70
0
280
1
281
0
  0
BLOCK_RECORD
  5
4A7
330
9
100
AcDbSymbolTableRecord
100
AcDbBlockTableRecord
  2
*D19
340
0
 70
0
280
1
281
0
  0
BLOCK_RECORD
  5
4B3
330
9
100
AcDbSymbolTableRecord
100
AcDbBlockTableRecord
  2
*D20
340
0
 70
0
280
1
281
0
  0
BLOCK_RECORD
  5
4C1
330
9
100
AcDbSymbolTableRecord
100
AcDbBlockTableRecord
  2
*D21
340
0
 70
0
280
1
281
0
  0
BLOCK_RECORD
  5
4CD
330
9
100
AcDbSymbolTableRecord
100
AcDbBlockTableRecord
  2
*D22
340
0
 70
0
280
1
281
0
  0
BLOCK_RECORD
  5
4D9
330
9
100
AcDbSymbolTableRecord
100
AcDbBlockTableRecord
  2
*D23
340
0
 70
0
280
1
281
0
  0
BLOCK_RECORD
  5
4E5
330
9
100
AcDbSymbolTableRecord
100
AcDbBlockTableRecord
  2
*D24
340
0
 70
0
280
1
281
0
  0
BLOCK_RECORD
  5
4F1
330
9
100
AcDbSymbolTableRecord
100
AcDbBlockTableRecord
  2
*D25
340
0
 70
0
280
1
281
0
  0
BLOCK_RECORD
  5
4FF
330
9
100
AcDbSymbolTableRecord
100
AcDbBlockTableRecord
  2
*D26
340
0
 70
0
280
1
281
0
  0
BLOCK_RECORD
  5
50C
330
9
100
AcDbSymbolTableRecord
100
AcDbBlockTableRecord
  2
*D27
340
0
 70
0
280
1
281
0
  0
BLOCK_RECORD
  5
518
330
9
100
AcDbSymbolTableRecord
100
AcDbBlockTableRecord
  2
*D28
340
0
 70
0
280
1
281
0
  0
BLOCK_RECORD
  5
524
330
9
100
AcDbSymbolTableRecord
100
AcDbBlockTableRecord
  2
*D29
340
0
 70
0
280
1
281
0
  0
BLOCK_RECORD
  5
530
330
9
100
AcDbSymbolTableRecord
100
AcDbBlockTableRecord
  2
*D30
340
0
 70
0
280
1
281
0
  0
BLOCK_RECORD
  5
53C
330
9
100
AcDbSymbolTableRecord
100
AcDbBlockTableRecord
  2
*D31
340
0
 70
0
280
1
281
0
  0
BLOCK_RECORD
  5
548
330
9
100
AcDbSymbolTableRecord
100
AcDbBlockTableRecord
  2
*D32
340
0
 70
0
280
1
281
0
  0
BLOCK_RECORD
  5
554
330
9
100
AcDbSymbolTableRecord
100
AcDbBlockTableRecord
  2
*D33
340
0
 70
0
280
1
281
0
  0
BLOCK_RECORD
  5
560
330
9
100
AcDbSymbolTableRecord
100
AcDbBlockTableRecord
  2
*D34
340
0
 70
0
280
1
281
0
  0
BLOCK_RECORD
  5
56D
330
9
100
AcDbSymbolTableRecord
100
AcDbBlockTableRecord
  2
*D35
340
0
 70
0
280
1
281
0
  0
BLOCK_RECORD
  5
57A
330
9
100
AcDbSymbolTableRecord
100
AcDbBlockTableRecord
  2
*D36
340
0
 70
0
280
1
281
0
  0
BLOCK_RECORD
  5
588
330
9
100
AcDbSymbolTableRecord
100
AcDbBlockTableRecord
  2
*D37
340
0
 70
0
280
1
281
0
  0
BLOCK_RECORD
  5
594
330
9
100
AcDbSymbolTableRecord
100
AcDbBlockTableRecord
  2
*D38
340
0
 70
0
280
1
281
0
  0
ENDTAB
  0
ENDSEC
  0
SECTION
  2
BLOCKS
  0
BLOCK
  5
18
330
17
100
AcDbEntity
  8
0
100
AcDbBlockBegin
  2
*Model_Space
 70
0
 10
0.0
 20
0.0
 30
0.0
  3
*Model_Space
  1

  0
ENDBLK
  5
19
330
17
100
AcDbEntity
  8
0
100
AcDbBlockEnd
  0
BLOCK
  5
1C
330
1B
100
AcDbEntity
  8
0
100
AcDbBlockBegin
  2
*Paper_Space
 70
0
 10
0.0
 20
0.0
 30
0.0
  3
*Paper_Space
  1

  0
ENDBLK
  5
1D
330
1B
100
AcDbEntity
  8
0
100
AcDbBlockEnd
  0
BLOCK
  5
39
330
38
100
AcDbEntity
  8
0
100
AcDbBlockBegin
  2
_Oblique
 70
0
 10
0.0
 20
0.0
 30
0.0
  3
_Oblique
  1

  0
LINE
  5
3B
330
38
100
AcDbEntity
  8
0
  6
ByBlock
 62
0
370
-2
100
AcDbLine
 10
-0.5
 20
-0.5
 30
0.0
 11
0.5
 21
0.5
 31
0.0
  0
ENDBLK
  5
3A
330
38
100
AcDbEntity
  8
0
100
AcDbBlockEnd
  0
BLOCK
  5
2B9
330
2B8
100
AcDbEntity
  8
0
100
AcDbBlockBegin
  2
f3daunguoc
 70
0
 10
0.0
 20
0.0
 30
0.0
  3
f3daunguoc
  1

  0
CIRCLE
  5
2BB
330
2B8
100
AcDbEntity
  8
CNC
 62
2
370
-3
100
AcDbCircle
 10
0.0
 20
0.0
 30
0.0
 40
1.5
  0
ENDBLK
  5
2BA
330
2B8
100
AcDbEntity
  8
0
100
AcDbBlockEnd
  0
BLOCK
  5
2BD
330
2BC
100
AcDbEntity
  8
0
100
AcDbBlockBegin
  2
ovan8.5x20
 70
0
 10
0.0
 20
0.0
 30
0.0
  3
ovan8.5x20
  1

  0
ARC
  5
2BF
330
2BC
100
AcDbEntity
  8
CNC
 62
2
370
-3
100
AcDbCircle
 10
-5.750000000007275
 20
0.0
 30
0.0
 40
4.25
100
AcDbArc
 50
90.0
 51
270.0
  0
ARC
  5
2C0
330
2BC
100
AcDbEntity
  8
CNC
 62
2
370
-3
100
AcDbCircle
 10
5.749999999992724
 20
0.0
 30
0.0
 40
4.25
100
AcDbArc
 50
270.0
 51
90.0
  0
LINE
  5
2C1
330
2BC
100
AcDbEntity
  8
CNC
 62
2
370
-3
100
AcDbLine
 10
5.749999999992724
 20
4.25
 30
0.0
 11
-5.750000000007275
 21
4.25
 31
0.0
  0
LINE
  5
2C2
330
2BC
100
AcDbEntity
  8
CNC
 62
2
370
-3
100
AcDbLine
 10
-5.750000000007275
 20
-4.25
 30
0.0
 11
5.749999999992724
 21
-4.25
 31
0.0
  0
ENDBLK
  5
2BE
330
2BC
100
AcDbEntity
  8
0
100
AcDbBlockEnd
  0
BLOCK
  5
2C4
330
2C3
100
AcDbEntity
  8
0
100
AcDbBlockBegin
  2
f2dauxuoi
 70
0
 10
0.0
 20
0.0
 30
0.0
  3
f2dauxuoi
  1

  0
CIRCLE
  5
2C6
330
2C3
100
AcDbEntity
  8
CNC
 62
2
370
-3
100
AcDbCircle
 10
0.0
 20
0.0
 30
0.0
 40
1.0
  0
ENDBLK
  5
2C5
330
2C3
100
AcDbEntity
  8
0
100
AcDbBlockEnd
  0
BLOCK
  5
2C8
330
2C7
100
AcDbEntity
  8
0
100
AcDbBlockBegin
  2
khungtenAsean2
 70
2
 10
0.0
 20
0.0
 30
0.0
  3
khungtenAsean2
  1

  0
LWPOLYLINE
  5
2CA
330
2C7
100
AcDbEntity
  8
0
 62
7
100
AcDbPolyline
 90
4
 70
1
 10
0.0
 20
0.0
 10
2970.000000000422
 20
0.0
 10
2970.000000000422
 20
-2100.00000000032
 10
0.0
 20
-2100.00000000032
  0
LINE
  5
2CB
330
2C7
100
AcDbEntity
  8
0
 62
7
100
AcDbLine
 10
2020.0
 20
-2040.00000000032
 30
0.0
 11
0.0
 21
-2040.00000000032
 31
0.0
  0
LINE
  5
2CC
330
2C7
100
AcDbEntity
  8
0
 62
7
100
AcDbLine
 10
2970.000000000422
 20
-1980.00000000032
 30
0.0
 11
0.0
 21
-1980.00000000032
 31
0.0
  0
LINE
  5
2CD
330
2C7
100
AcDbEntity
  8
0
 62
7
100
AcDbLine
 10
320.0
 20
-1980.00000000032
 30
0.0
 11
320.0
 21
-2100.00000000032
 31
0.0
  0
LINE
  5
2CE
330
2C7
100
AcDbEntity
  8
0
 62
7
100
AcDbLine
 10
890.0
 20
-1980.00000000032
 30
0.0
 11
890.0
 21
-2100.00000000032
 31
0.0
  0
LINE
  5
2CF
330
2C7
100
AcDbEntity
  8
0
 62
7
100
AcDbLine
 10
1680.0
 20
-1980.00000000032
 30
0.0
 11
1680.0
 21
-2100.00000000032
 31
0.0
  0
LINE
  5
2D0
330
2C7
100
AcDbEntity
  8
0
 62
7
100
AcDbLine
 10
2020.0
 20
-1980.00000000032
 30
0.0
 11
2020.0
 21
-2100.00000000032
 31
0.0
  0
LINE
  5
2D1
330
2C7
100
AcDbEntity
  8
0
 62
7
100
AcDbLine
 10
2860.000000000422
 20
-1980.00000000032
 30
0.0
 11
2860.000000000422
 21
-2100.00000000032
 31
0.0
  0
MTEXT
  5
2D2
330
2C7
100
AcDbEntity
  8
0
 62
2
100
AcDbMText
 10
0.0
 20
-2010.00000000032
 30
0.0
 40
20.0
 41
917.6339389950801
 46
60.00000000000113
 71
4
 72
5
  1
  Thiết kế :
  7
Arial
  0
MTEXT
  5
2D3
330
2C7
100
AcDbEntity
  8
0
 62
2
100
AcDbMText
 10
0.0
 20
-2070.00000000032
 30
0.0
 40
20.0
 41
917.6339389950801
 46
60.00000000000113
 71
4
 72
5
  1
  CNC :
  7
Arial
  0
MTEXT
  5
2D4
330
2C7
100
AcDbEntity
  8
0
 62
2
100
AcDbMText
 10
320.0
 20
-2010.00000000032
 30
0.0
 40
20.0
 41
917.6339389950801
 46
60.00000000000113
 71
4
 72
5
  1
  Khách hàng :
  7
Arial
  0
MTEXT
  5
2D5
330
2C7
100
AcDbEntity
  8
0
 62
2
100
AcDbMText
 10
320.0
 20
-2070.00000000032
 30
0.0
 40
20.0
 41
917.6339389950801
 46
60.00000000000113
 71
4
 72
5
  1
  Giao hàng :
  7
Arial
  0
MTEXT
  5
2D6
330
2C7
100
AcDbEntity
  8
0
 62
2
100
AcDbMText
 10
890.0
 20
-2010.00000000032
 30
0.0
 40
20.0
 41
917.6339389950801
 46
60.00000000000113
 71
4
 72
5
  1
  Tên sản phẩm :
  7
Arial
  0
MTEXT
  5
2D7
330
2C7
100
AcDbEntity
  8
0
 62
2
100
AcDbMText
 10
890.0
 20
-2070.00000000032
 30
0.0
 40
20.0
 41
917.6339389950801
 46
60.00000000000113
 71
4
 72
5
  1
  Kích thước :
  7
Arial
  0
MTEXT
  5
2D8
330
2C7
100
AcDbEntity
  8
0
 62
2
100
AcDbMText
 10
1680.0
 20
-2010.00000000032
 30
0.0
 40
20.0
 41
917.6339389950801
 46
60.00000000000113
 71
4
 72
5
  1
  Số lượng :
  7
Arial
  0
MTEXT
  5
2D9
330
2C7
100
AcDbEntity
  8
0
 62
2
100
AcDbMText
 10
1680.0
 20
-2070.00000000032
 30
0.0
 40
20.0
 41
917.6339389950801
 46
60.00000000000113
 71
4
 72
5
  1
  Loại tôn :
  7
Arial
  0
MTEXT
  5
2DA
330
2C7
100
AcDbEntity
  8
0
 62
2
100
AcDbMText
 10
2074.15528161102
 20
-2040.00000000032
 30
0.0
 40
20.0
 41
108.3105632220314
 46
120.0000000000011
 71
5
 72
5
  1
Thông\Ptin :
  7
Arial
  0
MTEXT
  5
2DB
330
2C7
100
AcDbEntity
  8
0
 62
2
100
AcDbMText
 10
2915.000000000422
 20
-2010.00000000032
 30
0.0
 40
20.0
 41
110.0000000000065
 46
60.00000000000113
 71
5
 72
5
  1
Tờ
  7
Arial
  0
LINE
  5
2DC
330
2C7
100
AcDbEntity
  8
0
 62
7
100
AcDbLine
 10
2128.310563222025
 20
-2005.00000000032
 30
0.0
 11
2128.310563222025
 21
-2075.00000000032
 31
0.0
  0
MTEXT
  5
2DD
330
2C7
100
AcDbEntity
  8
0
 62
2
100
AcDbMText
 10
1382.285678836575
 20
-2070.00000000032
 30
0.0
 40
20.0
 41
917.6339389950801
 46
60.00000000000113
 71
4
 72
5
  1
mm
  7
Arial
  0
MTEXT
  5
2DE
330
2C7
100
AcDbEntity
  8
0
 62
2
100
AcDbMText
 10
1947.610064813329
 20
-2010.00000000032
 30
0.0
 40
20.0
 41
917.6339389950801
 46
60.00000000000113
 71
4
 72
5
  1
cái
  7
Arial
  0
MTEXT
  5
2DF
330
2C7
100
AcDbEntity
  8
0
 62
2
100
AcDbMText
 10
1936.880410494836
 20
-2070.00000000032
 30
0.0
 40
20.0
 41
917.6339389950801
 46
60.00000000000113
 71
4
 72
5
  1
mm
  7
Arial
  0
ATTDEF
  5
2E0
330
2C7
100
AcDbEntity
  8
0
 62
1
100
AcDbText
 10
2883.764212945627
 20
-2067.347800104843
 30
0.0
 40
25.0
  1
......
  7
Tahoma (Input Text)
 72
1
 11
2914.993225705868
 21
-2067.347800104843
 31
0.0
100
AcDbAttributeDefinition
  3
Số trang
  2
#11
 70
8
 71
1
 72
0
 11
2914.993225705868
 21
-2067.347800104843
 31
0.0
  0
ATTDEF
  5
2E1
330
2C7
100
AcDbEntity
  8
0
 62
1
100
AcDbText
 10
2146.716977487464
 20
-2021.275211692002
 30
0.0
 40
25.0
  1
......
  7
Tahoma (Input Text)
100
AcDbAttributeDefinition
  3
Thông tin 1
  2
#09
 70
8
 71
1
 72
0
  0
ATTDEF
  5
2E2
330
2C7
100
AcDbEntity
  8
0
 62
1
100
AcDbText
 10
2146.716977487464
 20
-2081.275211692002
 30
0.0
 40
25.0
  1
......
  7
Tahoma (Input Text)
100
AcDbAttributeDefinition
  3
Thông tin 2
  2
#10
 70
8
 71
1
 72
0
  0
ATTDEF
  5
2E3
330
2C7
100
AcDbEntity
  8
0
 62
1
100
AcDbText
 10
1817.447765733334
 20
-2081.275211692002
 30
0.0
 40
25.0
  1
......
  7
Tahoma (Input Text)
100
AcDbAttributeDefinition
  3
Loại tôn
  2
#08
 70
8
 71
1
 72
0
  0
ATTDEF
  5
2E4
330
2C7
100
AcDbEntity
  8
0
 62
1
100
AcDbText
 10
1834.68151032555
 20
-2021.275211692002
 30
0.0
 40
25.0
  1
......
  7
Tahoma (Input Text)
100
AcDbAttributeDefinition
  3
Số lượng
  2
#07
 70
8
 71
1
 72
0
  0
ATTDEF
  5
2E5
330
2C7
100
AcDbEntity
  8
0
 62
1
100
AcDbText
 10
1065.330889143646
 20
-2081.275211692002
 30
0.0
 40
25.0
  1
......
  7
Tahoma (Input Text)
100
AcDbAttributeDefinition
  3
Kích thước
  2
#06
 70
8
 71
1
 72
0
  0
ATTDEF
  5
2E6
330
2C7
100
AcDbEntity
  8
0
 62
1
100
AcDbText
 10
1106.628177122154
 20
-2021.275211692002
 30
0.0
 40
25.0
  1
......
  7
Tahoma (Input Text)
100
AcDbAttributeDefinition
  3
Tên s.phẩm
  2
#05
 70
8
 71
1
 72
0
  0
ATTDEF
  5
2E7
330
2C7
100
AcDbEntity
  8
0
 62
1
100
AcDbText
 10
486.1050270054984
 20
-2081.275211692002
 30
0.0
 40
25.0
  1
......
  7
Tahoma (Input Text)
100
AcDbAttributeDefinition
  3
Giao hàng
  2
#04
 70
8
 71
1
 72
0
  0
ATTDEF
  5
2E8
330
2C7
100
AcDbEntity
  8
0
 62
1
100
AcDbText
 10
506.5707489467022
 20
-2019.301600489707
 30
0.0
 40
25.0
  1
......
  7
Tahoma (Input Text)
100
AcDbAttributeDefinition
  3
Khách hàng
  2
#03
 70
8
 71
1
 72
0
  0
ATTDEF
  5
2E9
330
2C7
100
AcDbEntity
  8
0
 62
1
100
AcDbText
 10
98.45672450316488
 20
-2081.275211692002
 30
0.0
 40
25.0
  1
......
  7
Tahoma (Input Text)
100
AcDbAttributeDefinition
  3
CNC
  2
#02
 70
8
 71
1
 72
0
  0
ATTDEF
  5
2EA
330
2C7
100
AcDbEntity
  8
0
 62
1
100
AcDbText
 10
137.0535078375105
 20
-2021.275211692002
 30
0.0
 40
25.0
  1
......
  7
Tahoma (Input Text)
100
AcDbAttributeDefinition
  3
Thiết kế
  2
#01
 70
8
 71
1
 72
0
  0
ENDBLK
  5
2C9
330
2C7
100
AcDbEntity
  8
0
100
AcDbBlockEnd
  0
BLOCK
  5
3C6
330
3C5
100
AcDbEntity
  8
0
100
AcDbBlockBegin
  2
*D1
 70
1
 10
0.0
 20
0.0
 30
0.0
  3
*D1
  1

  0
LINE
  5
3C8
330
3C5
100
AcDbEntity
  8
DIM
 62
5
370
9
440
16777216
100
AcDbLine
 10
408.8812714964006
 20
2747.452107435478
 30
0.0
 11
408.8812714964006
 21
2809.866260071438
 31
0.0
  0
LINE
  5
3C9
330
3C5
100
AcDbEntity
  8
DIM
 62
5
370
9
440
16777216
100
AcDbLine
 10
778.8812714964006
 20
2747.452107435478
 30
0.0
 11
778.8812714964006
 21
2809.866260071438
 31
0.0
  0
LINE
  5
3CA
330
3C5
100
AcDbEntity
  8
DIM
 62
5
370
9
440
16777216
100
AcDbLine
 10
408.8812714964006
 20
2799.866260071438
 30
0.0
 11
778.8812714964006
 21
2799.866260071438
 31
0.0
  0
LINE
  5
3CB
330
3C5
100
AcDbEntity
  8
0
  6
ByBlock
 62
0
370
-2
100
AcDbLine
 10
412.8812714964006
 20
2803.866260071438
 30
0.0
 11
404.8812714964006
 21
2795.866260071438
 31
0.0
  0
LINE
  5
3CC
330
3C5
100
AcDbEntity
  8
0
  6
ByBlock
 62
0
370
-2
100
AcDbLine
 10
774.8812714964006
 20
2795.866260071438
 30
0.0
 11
782.8812714964006
 21
2803.866260071438
 31
0.0
  0
MTEXT
  5
3CD
330
3C5
100
AcDbEntity
  8
DIM
 62
3
440
16777216
100
AcDbMText
 10
643.8812714964006
 20
2822.639111367491
 30
0.0
 40
25.0
 41
0.0
 46
0.0
 71
5
  1
370
  0
POINT
  5
3CE
330
3C5
100
AcDbEntity
  8
Defpoints
 62
0
440
16777216
100
AcDbPoint
 10
408.8812714964006
 20
2732.452107435478
 30
0.0
  0
POINT
  5
3CF
330
3C5
100
AcDbEntity
  8
Defpoints
 62
0
440
16777216
100
AcDbPoint
 10
778.8812714964006
 20
2732.452107435478
 30
0.0
  0
POINT
  5
3D0
330
3C5
100
AcDbEntity
  8
Defpoints
 62
0
440
16777216
100
AcDbPoint
 10
778.8812714964006
 20
2799.866260071438
 30
0.0
  0
ENDBLK
  5
3C7
330
3C5
100
AcDbEntity
  8
0
100
AcDbBlockEnd
  0
BLOCK
  5
3D2
330
3D1
100
AcDbEntity
  8
0
100
AcDbBlockBegin
  2
*D2
 70
1
 10
0.0
 20
0.0
 30
0.0
  3
*D2
  1

  0
LINE
  5
3D4
330
3D1
100
AcDbEntity
  8
DIM
 62
5
370
9
440
16777216
100
AcDbLine
 10
778.8812714964006
 20
2747.452107435478
 30
0.0
 11
778.8812714964006
 21
2809.866260071438
 31
0.0
  0
LINE
  5
3D5
330
3D1
100
AcDbEntity
  8
DIM
 62
5
370
9
440
16777216
100
AcDbLine
 10
818.8812714964006
 20
2707.452107435478
 30
0.0
 11
818.8812714964006
 21
2809.866260071438
 31
0.0
  0
LINE
  5
3D6
330
3D1
100
AcDbEntity
  8
DIM
 62
5
370
9
440
16777216
100
AcDbLine
 10
778.8812714964006
 20
2799.866260071438
 30
0.0
 11
818.8812714964006
 21
2799.866260071438
 31
0.0
  0
LINE
  5
3D7
330
3D1
100
AcDbEntity
  8
0
  6
ByBlock
 62
0
370
-2
100
AcDbLine
 10
782.8812714964006
 20
2803.866260071438
 30
0.0
 11
774.8812714964006
 21
2795.866260071438
 31
0.0
  0
LINE
  5
3D8
330
3D1
100
AcDbEntity
  8
0
  6
ByBlock
 62
0
370
-2
100
AcDbLine
 10
814.8812714964006
 20
2795.866260071438
 30
0.0
 11
822.8812714964006
 21
2803.866260071438
 31
0.0
  0
MTEXT
  5
3D9
330
3D1
100
AcDbEntity
  8
DIM
 62
3
440
16777216
100
AcDbMText
 10
798.8812714964006
 20
2822.630584764491
 30
0.0
 40
25.0
 41
0.0
 46
0.0
 71
5
  1
40
  0
POINT
  5
3DA
330
3D1
100
AcDbEntity
  8
Defpoints
 62
0
440
16777216
100
AcDbPoint
 10
778.8812714964006
 20
2732.452107435478
 30
0.0
  0
POINT
  5
3DB
330
3D1
100
AcDbEntity
  8
Defpoints
 62
0
440
16777216
100
AcDbPoint
 10
818.8812714964006
 20
2692.452107435478
 30
0.0
  0
POINT
  5
3DC
330
3D1
100
AcDbEntity
  8
Defpoints
 62
0
440
16777216
100
AcDbPoint
 10
818.8812714964006
 20
2799.866260071438
 30
0.0
  0
ENDBLK
  5
3D3
330
3D1
100
AcDbEntity
  8
0
100
AcDbBlockEnd
  0
BLOCK
  5
3DE
330
3DD
100
AcDbEntity
  8
0
100
AcDbBlockBegin
  2
*D3
 70
1
 10
0.0
 20
0.0
 30
0.0
  3
*D3
  1

  0
LINE
  5
3E0
330
3DD
100
AcDbEntity
  8
DIM
 62
5
370
9
440
16777216
100
AcDbLine
 10
818.8812714964006
 20
2707.452107435478
 30
0.0
 11
818.8812714964006
 21
2809.866260071438
 31
0.0
  0
LINE
  5
3E1
330
3DD
100
AcDbEntity
  8
DIM
 62
5
370
9
440
16777216
100
AcDbLine
 10
830.8812714964006
 20
2707.452107435478
 30
0.0
 11
830.8812714964006
 21
2809.866260071438
 31
0.0
  0
LINE
  5
3E2
330
3DD
100
AcDbEntity
  8
DIM
 62
5
370
9
440
16777216
100
AcDbLine
 10
818.8812714964006
 20
2799.866260071438
 30
0.0
 11
810.8812714964006
 21
2799.866260071438
 31
0.0
  0
LINE
  5
3E3
330
3DD
100
AcDbEntity
  8
DIM
 62
5
370
9
440
16777216
100
AcDbLine
 10
830.8812714964006
 20
2799.866260071438
 30
0.0
 11
900.083863583699
 21
2799.866260071438
 31
0.0
  0
LINE
  5
3E4
330
3DD
100
AcDbEntity
  8
DIM
 62
5
370
9
440
16777216
100
AcDbLine
 10
818.8812714964006
 20
2799.866260071438
 30
0.0
 11
830.8812714964006
 21
2799.866260071438
 31
0.0
  0
LINE
  5
3E5
330
3DD
100
AcDbEntity
  8
0
  6
ByBlock
 62
0
370
-2
100
AcDbLine
 10
814.8812714964006
 20
2795.866260071438
 30
0.0
 11
822.8812714964006
 21
2803.866260071438
 31
0.0
  0
LINE
  5
3E6
330
3DD
100
AcDbEntity
  8
0
  6
ByBlock
 62
0
370
-2
100
AcDbLine
 10
834.8812714964006
 20
2803.866260071438
 30
0.0
 11
826.8812714964006
 21
2795.866260071438
 31
0.0
  0
MTEXT
  5
3E7
330
3DD
100
AcDbEntity
  8
DIM
 62
3
440
16777216
100
AcDbMText
 10
873.4825675400934
 20
2822.4174196894455
 30
0.0
 40
25.0
 41
0.0
 46
0.0
 71
5
  1
12
  0
POINT
  5
3E8
330
3DD
100
AcDbEntity
  8
Defpoints
 62
0
440
16777216
100
AcDbPoint
 10
818.8812714964006
 20
2692.452107435478
 30
0.0
  0
POINT
  5
3E9
330
3DD
100
AcDbEntity
  8
Defpoints
 62
0
440
16777216
100
AcDbPoint
 10
830.8812714964006
 20
2692.452107435478
 30
0.0
  0
POINT
  5
3EA
330
3DD
100
AcDbEntity
  8
Defpoints
 62
0
440
16777216
100
AcDbPoint
 10
830.8812714964006
 20
2799.866260071438
 30
0.0
  0
ENDBLK
  5
3DF
330
3DD
100
AcDbEntity
  8
0
100
AcDbBlockEnd
  0
BLOCK
  5
3EC
330
3EB
100
AcDbEntity
  8
0
100
AcDbBlockBegin
  2
*D4
 70
1
 10
0.0
 20
0.0
 30
0.0
  3
*D4
  1

  0
LINE
  5
3EE
330
3EB
100
AcDbEntity
  8
DIM
 62
5
370
9
440
16777216
100
AcDbLine
 10
363.8812714964006
 20
1220.452107435478
 30
0.0
 11
363.8812714964006
 21
1159.2259883756997
 31
0.0
  0
LINE
  5
3EF
330
3EB
100
AcDbEntity
  8
DIM
 62
5
370
9
440
16777216
100
AcDbLine
 10
830.8812714964006
 20
1260.452107435478
 30
0.0
 11
830.8812714964006
 21
1159.2259883756997
 31
0.0
  0
LINE
  5
3F0
330
3EB
100
AcDbEntity
  8
DIM
 62
5
370
9
440
16777216
100
AcDbLine
 10
363.8812714964006
 20
1169.2259883756997
 30
0.0
 11
830.8812714964006
 21
1169.2259883756997
 31
0.0
  0
LINE
  5
3F1
330
3EB
100
AcDbEntity
  8
0
  6
ByBlock
 62
0
370
-2
100
AcDbLine
 10
367.8812714964006
 20
1173.2259883756997
 30
0.0
 11
359.8812714964006
 21
1165.2259883756997
 31
0.0
  0
LINE
  5
3F2
330
3EB
100
AcDbEntity
  8
0
  6
ByBlock
 62
0
370
-2
100
AcDbLine
 10
826.8812714964006
 20
1165.2259883756997
 30
0.0
 11
834.8812714964006
 21
1173.2259883756997
 31
0.0
  0
MTEXT
  5
3F3
330
3EB
100
AcDbEntity
  8
DIM
 62
3
440
16777216
100
AcDbMText
 10
597.3812714964006
 20
1191.9903130687453
 30
0.0
 40
25.0
 41
0.0
 46
0.0
 71
5
  1
467
  0
POINT
  5
3F4
330
3EB
100
AcDbEntity
  8
Defpoints
 62
0
440
16777216
100
AcDbPoint
 10
363.8812714964006
 20
1235.452107435478
 30
0.0
  0
POINT
  5
3F5
330
3EB
100
AcDbEntity
  8
Defpoints
 62
0
440
16777216
100
AcDbPoint
 10
830.8812714964006
 20
1275.4521074354852
 30
0.0
  0
POINT
  5
3F6
330
3EB
100
AcDbEntity
  8
Defpoints
 62
0
440
16777216
100
AcDbPoint
 10
830.8812714964006
 20
1169.2259883756997
 30
0.0
  0
ENDBLK
  5
3ED
330
3EB
100
AcDbEntity
  8
0
100
AcDbBlockEnd
  0
BLOCK
  5
3F8
330
3F7
100
AcDbEntity
  8
0
100
AcDbBlockBegin
  2
*D5
 70
1
 10
0.0
 20
0.0
 30
0.0
  3
*D5
  1

  0
LINE
  5
3FA
330
3F7
100
AcDbEntity
  8
DIM
 62
5
370
9
440
16777216
100
AcDbLine
 10
408.8812714964006
 20
2747.452107435478
 30
0.0
 11
408.8812714964006
 21
2809.866260071438
 31
0.0
  0
LINE
  5
3FB
330
3F7
100
AcDbEntity
  8
DIM
 62
5
370
9
440
16777216
100
AcDbLine
 10
373.8812714964006
 20
2747.452107435478
 30
0.0
 11
373.8812714964006
 21
2809.866260071438
 31
0.0
  0
LINE
  5
3FC
330
3F7
100
AcDbEntity
  8
DIM
 62
5
370
9
440
16777216
100
AcDbLine
 10
408.8812714964006
 20
2799.866260071438
 30
0.0
 11
373.8812714964006
 21
2799.866260071438
 31
0.0
  0
LINE
  5
3FD
330
3F7
100
AcDbEntity
  8
0
  6
ByBlock
 62
0
370
-2
100
AcDbLine
 10
404.8812714964006
 20
2795.866260071438
 30
0.0
 11
412.8812714964006
 21
2803.866260071438
 31
0.0
  0
LINE
  5
3FE
330
3F7
100
AcDbEntity
  8
0
  6
ByBlock
 62
0
370
-2
100
AcDbLine
 10
377.8812714964006
 20
2803.866260071438
 30
0.0
 11
369.8812714964006
 21
2795.866260071438
 31
0.0
  0
MTEXT
  5
3FF
330
3F7
100
AcDbEntity
  8
DIM
 62
3
440
16777216
100
AcDbMText
 10
391.3812714964006
 20
2822.639111367491
 30
0.0
 40
25.0
 41
0.0
 46
0.0
 71
5
  1
35
  0
POINT
  5
400
330
3F7
100
AcDbEntity
  8
Defpoints
 62
0
440
16777216
100
AcDbPoint
 10
408.8812714964006
 20
2732.452107435478
 30
0.0
  0
POINT
  5
401
330
3F7
100
AcDbEntity
  8
Defpoints
 62
0
440
16777216
100
AcDbPoint
 10
373.8812714964006
 20
2732.452107435478
 30
0.0
  0
POINT
  5
402
330
3F7
100
AcDbEntity
  8
Defpoints
 62
0
440
16777216
100
AcDbPoint
 10
373.8812714964006
 20
2799.866260071438
 30
0.0
  0
ENDBLK
  5
3F9
330
3F7
100
AcDbEntity
  8
0
100
AcDbBlockEnd
  0
BLOCK
  5
404
330
403
100
AcDbEntity
  8
0
100
AcDbBlockBegin
  2
*D6
 70
1
 10
0.0
 20
0.0
 30
0.0
  3
*D6
  1

  0
LINE
  5
406
330
403
100
AcDbEntity
  8
DIM
 62
5
370
9
440
16777216
100
AcDbLine
 10
373.8812714964006
 20
2747.452107435478
 30
0.0
 11
373.8812714964006
 21
2809.866260071438
 31
0.0
  0
LINE
  5
407
330
403
100
AcDbEntity
  8
DIM
 62
5
370
9
440
16777216
100
AcDbLine
 10
363.8812714964006
 20
2747.452107435478
 30
0.0
 11
363.8812714964006
 21
2809.866260071438
 31
0.0
  0
LINE
  5
408
330
403
100
AcDbEntity
  8
DIM
 62
5
370
9
440
16777216
100
AcDbLine
 10
373.8812714964006
 20
2799.866260071438
 30
0.0
 11
381.8812714964006
 21
2799.866260071438
 31
0.0
  0
LINE
  5
409
330
403
100
AcDbEntity
  8
DIM
 62
5
370
9
440
16777216
100
AcDbLine
 10
363.8812714964006
 20
2799.866260071438
 30
0.0
 11
294.5081473491009
 21
2799.866260071438
 31
0.0
  0
LINE
  5
40A
330
403
100
AcDbEntity
  8
DIM
 62
5
370
9
440
16777216
100
AcDbLine
 10
373.8812714964006
 20
2799.866260071438
 30
0.0
 11
363.8812714964006
 21
2799.866260071438
 31
0.0
  0
LINE
  5
40B
330
403
100
AcDbEntity
  8
0
  6
ByBlock
 62
0
370
-2
100
AcDbLine
 10
377.8812714964006
 20
2803.866260071438
 30
0.0
 11
369.8812714964006
 21
2795.866260071438
 31
0.0
  0
LINE
  5
40C
330
403
100
AcDbEntity
  8
0
  6
ByBlock
 62
0
370
-2
100
AcDbLine
 10
359.8812714964006
 20
2795.866260071438
 30
0.0
 11
367.8812714964006
 21
2803.866260071438
 31
0.0
  0
MTEXT
  5
40D
330
403
100
AcDbEntity
  8
DIM
 62
3
440
16777216
100
AcDbMText
 10
321.1947094227944
 20
2822.630584764491
 30
0.0
 40
25.0
 41
0.0
 46
0.0
 71
5
  1
10
  0
POINT
  5
40E
330
403
100
AcDbEntity
  8
Defpoints
 62
0
440
16777216
100
AcDbPoint
 10
373.8812714964006
 20
2732.452107435478
 30
0.0
  0
POINT
  5
40F
330
403
100
AcDbEntity
  8
Defpoints
 62
0
440
16777216
100
AcDbPoint
 10
363.8812714964006
 20
2732.452107435478
 30
0.0
  0
POINT
  5
410
330
403
100
AcDbEntity
  8
Defpoints
 62
0
440
16777216
100
AcDbPoint
 10
363.8812714964006
 20
2799.866260071438
 30
0.0
  0
ENDBLK
  5
405
330
403
100
AcDbEntity
  8
0
100
AcDbBlockEnd
  0
BLOCK
  5
412
330
411
100
AcDbEntity
  8
0
100
AcDbBlockBegin
  2
*D7
 70
1
 10
0.0
 20
0.0
 30
0.0
  3
*D7
  1

  0
LINE
  5
414
330
411
100
AcDbEntity
  8
DIM
 62
5
370
9
 48
3.0
440
16777216
100
AcDbLine
 10
348.8812714964006
 20
2732.452107435478
 30
0.0
 11
283.2551638704026
 21
2732.452107435478
 31
0.0
  0
LINE
  5
415
330
411
100
AcDbEntity
  8
DIM
 62
5
370
9
 48
3.0
440
16777216
100
AcDbLine
 10
348.8812714964006
 20
1235.452107435478
 30
0.0
 11
283.2551638704026
 21
1235.452107435478
 31
0.0
  0
LINE
  5
416
330
411
100
AcDbEntity
  8
DIM
 62
5
370
9
 48
3.0
440
16777216
100
AcDbLine
 10
293.2551638704026
 20
2732.452107435478
 30
0.0
 11
293.2551638704026
 21
1235.452107435478
 31
0.0
  0
LINE
  5
417
330
411
100
AcDbEntity
  8
0
  6
ByBlock
 62
0
370
-2
100
AcDbLine
 10
297.2551638704026
 20
2728.452107435478
 30
0.0
 11
289.2551638704026
 21
2736.452107435478
 31
0.0
  0
LINE
  5
418
330
411
100
AcDbEntity
  8
0
  6
ByBlock
 62
0
370
-2
100
AcDbLine
 10
289.2551638704026
 20
1239.452107435478
 30
0.0
 11
297.2551638704026
 21
1231.452107435478
 31
0.0
  0
MTEXT
  5
419
330
411
100
AcDbEntity
  8
DIM
 62
3
 48
3.0
440
16777216
100
AcDbMText
 10
270.49083917730604
 20
1983.9521074354852
 30
0.0
 40
25.0
 41
0.0
 46
0.0
 71
5
  1
1497
 11
1e-16
 21
1.0
 31
0.0
  0
POINT
  5
41A
330
411
100
AcDbEntity
  8
Defpoints
 62
0
 48
3.0
440
16777216
100
AcDbPoint
 10
363.8812714964006
 20
2732.452107435478
 30
0.0
  0
POINT
  5
41B
330
411
100
AcDbEntity
  8
Defpoints
 62
0
 48
3.0
440
16777216
100
AcDbPoint
 10
363.8812714964006
 20
1235.452107435478
 30
0.0
  0
POINT
  5
41C
330
411
100
AcDbEntity
  8
Defpoints
 62
0
 48
3.0
440
16777216
100
AcDbPoint
 10
293.2551638704026
 20
1235.452107435478
 30
0.0
  0
ENDBLK
  5
413
330
411
100
AcDbEntity
  8
0
100
AcDbBlockEnd
  0
BLOCK
  5
41E
330
41D
100
AcDbEntity
  8
0
100
AcDbBlockBegin
  2
*D8
 70
1
 10
0.0
 20
0.0
 30
0.0
  3
*D8
  1

  0
LINE
  5
420
330
41D
100
AcDbEntity
  8
DIM
 62
5
370
9
440
16777216
100
AcDbLine
 10
2041.577489441901
 20
2747.452107435478
 30
0.0
 11
2041.577489441901
 21
2809.866260071438
 31
0.0
  0
LINE
  5
421
330
41D
100
AcDbEntity
  8
DIM
 62
5
370
9
440
16777216
100
AcDbLine
 10
1671.577489441901
 20
2747.452107435478
 30
0.0
 11
1671.577489441901
 21
2809.866260071438
 31
0.0
  0
LINE
  5
422
330
41D
100
AcDbEntity
  8
DIM
 62
5
370
9
440
16777216
100
AcDbLine
 10
2041.577489441901
 20
2799.866260071438
 30
0.0
 11
1671.577489441901
 21
2799.866260071438
 31
0.0
  0
LINE
  5
423
330
41D
100
AcDbEntity
  8
0
  6
ByBlock
 62
0
370
-2
100
AcDbLine
 10
2037.577489441901
 20
2795.866260071438
 30
0.0
 11
2045.577489441901
 21
2803.866260071438
 31
0.0
  0
LINE
  5
424
330
41D
100
AcDbEntity
  8
0
  6
ByBlock
 62
0
370
-2
100
AcDbLine
 10
1675.577489441901
 20
2803.866260071438
 30
0.0
 11
1667.577489441901
 21
2795.866260071438
 31
0.0
  0
MTEXT
  5
425
330
41D
100
AcDbEntity
  8
DIM
 62
3
440
16777216
100
AcDbMText
 10
1806.577489441901
 20
2822.639111367491
 30
0.0
 40
25.0
 41
0.0
 46
0.0
 71
5
  1
370
  0
POINT
  5
426
330
41D
100
AcDbEntity
  8
Defpoints
 62
0
440
16777216
100
AcDbPoint
 10
2041.577489441901
 20
2732.452107435478
 30
0.0
  0
POINT
  5
427
330
41D
100
AcDbEntity
  8
Defpoints
 62
0
440
16777216
100
AcDbPoint
 10
1671.577489441901
 20
2732.452107435478
 30
0.0
  0
POINT
  5
428
330
41D
100
AcDbEntity
  8
Defpoints
 62
0
440
16777216
100
AcDbPoint
 10
1671.577489441901
 20
2799.866260071438
 30
0.0
  0
ENDBLK
  5
41F
330
41D
100
AcDbEntity
  8
0
100
AcDbBlockEnd
  0
BLOCK
  5
42A
330
429
100
AcDbEntity
  8
0
100
AcDbBlockBegin
  2
*D9
 70
1
 10
0.0
 20
0.0
 30
0.0
  3
*D9
  1

  0
LINE
  5
42C
330
429
100
AcDbEntity
  8
DIM
 62
5
370
9
440
16777216
100
AcDbLine
 10
1671.577489441901
 20
2747.452107435478
 30
0.0
 11
1671.577489441901
 21
2809.866260071438
 31
0.0
  0
LINE
  5
42D
330
429
100
AcDbEntity
  8
DIM
 62
5
370
9
440
16777216
100
AcDbLine
 10
1631.577489441901
 20
2707.452107435478
 30
0.0
 11
1631.577489441901
 21
2809.866260071438
 31
0.0
  0
LINE
  5
42E
330
429
100
AcDbEntity
  8
DIM
 62
5
370
9
440
16777216
100
AcDbLine
 10
1671.577489441901
 20
2799.866260071438
 30
0.0
 11
1631.577489441901
 21
2799.866260071438
 31
0.0
  0
LINE
  5
42F
330
429
100
AcDbEntity
  8
0
  6
ByBlock
 62
0
370
-2
100
AcDbLine
 10
1667.577489441901
 20
2795.866260071438
 30
0.0
 11
1675.577489441901
 21
2803.866260071438
 31
0.0
  0
LINE
  5
430
330
429
100
AcDbEntity
  8
0
  6
ByBlock
 62
0
370
-2
100
AcDbLine
 10
1635.577489441901
 20
2803.866260071438
 30
0.0
 11
1627.577489441901
 21
2795.866260071438
 31
0.0
  0
MTEXT
  5
431
330
429
100
AcDbEntity
  8
DIM
 62
3
440
16777216
100
AcDbMText
 10
1651.577489441901
 20
2822.630584764491
 30
0.0
 40
25.0
 41
0.0
 46
0.0
 71
5
  1
40
  0
POINT
  5
432
330
429
100
AcDbEntity
  8
Defpoints
 62
0
440
16777216
100
AcDbPoint
 10
1671.577489441901
 20
2732.452107435478
 30
0.0
  0
POINT
  5
433
330
429
100
AcDbEntity
  8
Defpoints
 62
0
440
16777216
100
AcDbPoint
 10
1631.577489441901
 20
2692.452107435478
 30
0.0
  0
POINT
  5
434
330
429
100
AcDbEntity
  8
Defpoints
 62
0
440
16777216
100
AcDbPoint
 10
1631.577489441901
 20
2799.866260071438
 30
0.0
  0
ENDBLK
  5
42B
330
429
100
AcDbEntity
  8
0
100
AcDbBlockEnd
  0
BLOCK
  5
436
330
435
100
AcDbEntity
  8
0
100
AcDbBlockBegin
  2
*D10
 70
1
 10
0.0
 20
0.0
 30
0.0
  3
*D10
  1

  0
LINE
  5
438
330
435
100
AcDbEntity
  8
DIM
 62
5
370
9
440
16777216
100
AcDbLine
 10
1631.577489441901
 20
2707.452107435478
 30
0.0
 11
1631.577489441901
 21
2809.866260071438
 31
0.0
  0
LINE
  5
439
330
435
100
AcDbEntity
  8
DIM
 62
5
370
9
440
16777216
100
AcDbLine
 10
1619.577489441901
 20
2707.452107435478
 30
0.0
 11
1619.577489441901
 21
2809.866260071438
 31
0.0
  0
LINE
  5
43A
330
435
100
AcDbEntity
  8
DIM
 62
5
370
9
440
16777216
100
AcDbLine
 10
1631.577489441901
 20
2799.866260071438
 30
0.0
 11
1639.577489441901
 21
2799.866260071438
 31
0.0
  0
LINE
  5
43B
330
435
100
AcDbEntity
  8
DIM
 62
5
370
9
440
16777216
100
AcDbLine
 10
1619.577489441901
 20
2799.866260071438
 30
0.0
 11
1550.3748973546026
 21
2799.866260071438
 31
0.0
  0
LINE
  5
43C
330
435
100
AcDbEntity
  8
DIM
 62
5
370
9
440
16777216
100
AcDbLine
 10
1631.577489441901
 20
2799.866260071438
 30
0.0
 11
1619.577489441901
 21
2799.866260071438
 31
0.0
  0
LINE
  5
43D
330
435
100
AcDbEntity
  8
0
  6
ByBlock
 62
0
370
-2
100
AcDbLine
 10
1635.577489441901
 20
2803.866260071438
 30
0.0
 11
1627.577489441901
 21
2795.866260071438
 31
0.0
  0
LINE
  5
43E
330
435
100
AcDbEntity
  8
0
  6
ByBlock
 62
0
370
-2
100
AcDbLine
 10
1615.577489441901
 20
2795.866260071438
 30
0.0
 11
1623.577489441901
 21
2803.866260071438
 31
0.0
  0
MTEXT
  5
43F
330
435
100
AcDbEntity
  8
DIM
 62
3
440
16777216
100
AcDbMText
 10
1576.9761933982954
 20
2822.4174196894455
 30
0.0
 40
25.0
 41
0.0
 46
0.0
 71
5
  1
12
  0
POINT
  5
440
330
435
100
AcDbEntity
  8
Defpoints
 62
0
440
16777216
100
AcDbPoint
 10
1631.577489441901
 20
2692.452107435478
 30
0.0
  0
POINT
  5
441
330
435
100
AcDbEntity
  8
Defpoints
 62
0
440
16777216
100
AcDbPoint
 10
1619.577489441901
 20
2692.452107435478
 30
0.0
  0
POINT
  5
442
330
435
100
AcDbEntity
  8
Defpoints
 62
0
440
16777216
100
AcDbPoint
 10
1619.577489441901
 20
2799.866260071438
 30
0.0
  0
ENDBLK
  5
437
330
435
100
AcDbEntity
  8
0
100
AcDbBlockEnd
  0
BLOCK
  5
444
330
443
100
AcDbEntity
  8
0
100
AcDbBlockBegin
  2
*D11
 70
1
 10
0.0
 20
0.0
 30
0.0
  3
*D11
  1

  0
LINE
  5
446
330
443
100
AcDbEntity
  8
DIM
 62
5
370
9
440
16777216
100
AcDbLine
 10
2086.577489441901
 20
1220.452107435478
 30
0.0
 11
2086.577489441901
 21
1159.2259883756997
 31
0.0
  0
LINE
  5
447
330
443
100
AcDbEntity
  8
DIM
 62
5
370
9
440
16777216
100
AcDbLine
 10
1619.577489441901
 20
1260.452107435478
 30
0.0
 11
1619.577489441901
 21
1159.2259883756997
 31
0.0
  0
LINE
  5
448
330
443
100
AcDbEntity
  8
DIM
 62
5
370
9
440
16777216
100
AcDbLine
 10
2086.577489441901
 20
1169.2259883756997
 30
0.0
 11
1619.577489441901
 21
1169.2259883756997
 31
0.0
  0
LINE
  5
449
330
443
100
AcDbEntity
  8
0
  6
ByBlock
 62
0
370
-2
100
AcDbLine
 10
2082.577489441901
 20
1165.2259883756997
 30
0.0
 11
2090.577489441901
 21
1173.2259883756997
 31
0.0
  0
LINE
  5
44A
330
443
100
AcDbEntity
  8
0
  6
ByBlock
 62
0
370
-2
100
AcDbLine
 10
1623.577489441901
 20
1173.2259883756997
 30
0.0
 11
1615.577489441901
 21
1165.2259883756997
 31
0.0
  0
MTEXT
  5
44B
330
443
100
AcDbEntity
  8
DIM
 62
3
440
16777216
100
AcDbMText
 10
1853.077489441901
 20
1191.9903130687453
 30
0.0
 40
25.0
 41
0.0
 46
0.0
 71
5
  1
467
  0
POINT
  5
44C
330
443
100
AcDbEntity
  8
Defpoints
 62
0
440
16777216
100
AcDbPoint
 10
2086.577489441901
 20
1235.452107435478
 30
0.0
  0
POINT
  5
44D
330
443
100
AcDbEntity
  8
Defpoints
 62
0
440
16777216
100
AcDbPoint
 10
1619.577489441901
 20
1275.4521074354852
 30
0.0
  0
POINT
  5
44E
330
443
100
AcDbEntity
  8
Defpoints
 62
0
440
16777216
100
AcDbPoint
 10
1619.577489441901
 20
1169.2259883756997
 30
0.0
  0
ENDBLK
  5
445
330
443
100
AcDbEntity
  8
0
100
AcDbBlockEnd
  0
BLOCK
  5
450
330
44F
100
AcDbEntity
  8
0
100
AcDbBlockBegin
  2
*D12
 70
1
 10
0.0
 20
0.0
 30
0.0
  3
*D12
  1

  0
LINE
  5
452
330
44F
100
AcDbEntity
  8
DIM
 62
5
370
9
440
16777216
100
AcDbLine
 10
2041.577489441901
 20
2747.452107435478
 30
0.0
 11
2041.577489441901
 21
2809.866260071438
 31
0.0
  0
LINE
  5
453
330
44F
100
AcDbEntity
  8
DIM
 62
5
370
9
440
16777216
100
AcDbLine
 10
2076.577489441901
 20
2747.452107435478
 30
0.0
 11
2076.577489441901
 21
2809.866260071438
 31
0.0
  0
LINE
  5
454
330
44F
100
AcDbEntity
  8
DIM
 62
5
370
9
440
16777216
100
AcDbLine
 10
2041.577489441901
 20
2799.866260071438
 30
0.0
 11
2076.577489441901
 21
2799.866260071438
 31
0.0
  0
LINE
  5
455
330
44F
100
AcDbEntity
  8
0
  6
ByBlock
 62
0
370
-2
100
AcDbLine
 10
2045.577489441901
 20
2803.866260071438
 30
0.0
 11
2037.577489441901
 21
2795.866260071438
 31
0.0
  0
LINE
  5
456
330
44F
100
AcDbEntity
  8
0
  6
ByBlock
 62
0
370
-2
100
AcDbLine
 10
2072.577489441901
 20
2795.866260071438
 30
0.0
 11
2080.577489441901
 21
2803.866260071438
 31
0.0
  0
MTEXT
  5
457
330
44F
100
AcDbEntity
  8
DIM
 62
3
440
16777216
100
AcDbMText
 10
2059.077489441901
 20
2822.639111367491
 30
0.0
 40
25.0
 41
0.0
 46
0.0
 71
5
  1
35
  0
POINT
  5
458
330
44F
100
AcDbEntity
  8
Defpoints
 62
0
440
16777216
100
AcDbPoint
 10
2041.577489441901
 20
2732.452107435478
 30
0.0
  0
POINT
  5
459
330
44F
100
AcDbEntity
  8
Defpoints
 62
0
440
16777216
100
AcDbPoint
 10
2076.577489441901
 20
2732.452107435478
 30
0.0
  0
POINT
  5
45A
330
44F
100
AcDbEntity
  8
Defpoints
 62
0
440
16777216
100
AcDbPoint
 10
2076.577489441901
 20
2799.866260071438
 30
0.0
  0
ENDBLK
  5
451
330
44F
100
AcDbEntity
  8
0
100
AcDbBlockEnd
  0
BLOCK
  5
45C
330
45B
100
AcDbEntity
  8
0
100
AcDbBlockBegin
  2
*D13
 70
1
 10
0.0
 20
0.0
 30
0.0
  3
*D13
  1

  0
LINE
  5
45E
330
45B
100
AcDbEntity
  8
DIM
 62
5
370
9
440
16777216
100
AcDbLine
 10
2076.577489441901
 20
2747.452107435478
 30
0.0
 11
2076.577489441901
 21
2809.866260071438
 31
0.0
  0
LINE
  5
45F
330
45B
100
AcDbEntity
  8
DIM
 62
5
370
9
440
16777216
100
AcDbLine
 10
2086.577489441901
 20
2747.452107435478
 30
0.0
 11
2086.577489441901
 21
2809.866260071438
 31
0.0
  0
LINE
  5
460
330
45B
100
AcDbEntity
  8
DIM
 62
5
370
9
440
16777216
100
AcDbLine
 10
2076.577489441901
 20
2799.866260071438
 30
0.0
 11
2068.577489441901
 21
2799.866260071438
 31
0.0
  0
LINE
  5
461
330
45B
100
AcDbEntity
  8
DIM
 62
5
370
9
440
16777216
100
AcDbLine
 10
2086.577489441901
 20
2799.866260071438
 30
0.0
 11
2155.9506135893025
 21
2799.866260071438
 31
0.0
  0
LINE
  5
462
330
45B
100
AcDbEntity
  8
DIM
 62
5
370
9
440
16777216
100
AcDbLine
 10
2076.577489441901
 20
2799.866260071438
 30
0.0
 11
2086.577489441901
 21
2799.866260071438
 31
0.0
  0
LINE
  5
463
330
45B
100
AcDbEntity
  8
0
  6
ByBlock
 62
0
370
-2
100
AcDbLine
 10
2072.577489441901
 20
2795.866260071438
 30
0.0
 11
2080.577489441901
 21
2803.866260071438
 31
0.0
  0
LINE
  5
464
330
45B
100
AcDbEntity
  8
0
  6
ByBlock
 62
0
370
-2
100
AcDbLine
 10
2090.577489441901
 20
2803.866260071438
 30
0.0
 11
2082.577489441901
 21
2795.866260071438
 31
0.0
  0
MTEXT
  5
465
330
45B
100
AcDbEntity
  8
DIM
 62
3
440
16777216
100
AcDbMText
 10
2129.2640515155945
 20
2822.630584764491
 30
0.0
 40
25.0
 41
0.0
 46
0.0
 71
5
  1
10
  0
POINT
  5
466
330
45B
100
AcDbEntity
  8
Defpoints
 62
0
440
16777216
100
AcDbPoint
 10
2076.577489441901
 20
2732.452107435478
 30
0.0
  0
POINT
  5
467
330
45B
100
AcDbEntity
  8
Defpoints
 62
0
440
16777216
100
AcDbPoint
 10
2086.577489441901
 20
2732.452107435478
 30
0.0
  0
POINT
  5
468
330
45B
100
AcDbEntity
  8
Defpoints
 62
0
440
16777216
100
AcDbPoint
 10
2086.577489441901
 20
2799.866260071438
 30
0.0
  0
ENDBLK
  5
45D
330
45B
100
AcDbEntity
  8
0
100
AcDbBlockEnd
  0
BLOCK
  5
46A
330
469
100
AcDbEntity
  8
0
100
AcDbBlockBegin
  2
*D14
 70
1
 10
0.0
 20
0.0
 30
0.0
  3
*D14
  1

  0
LINE
  5
46C
330
469
100
AcDbEntity
  8
DIM
 62
5
370
9
 48
3.0
440
16777216
100
AcDbLine
 10
2101.577489441901
 20
2732.452107435478
 30
0.0
 11
2167.203597068001
 21
2732.452107435478
 31
0.0
  0
LINE
  5
46D
330
469
100
AcDbEntity
  8
DIM
 62
5
370
9
 48
3.0
440
16777216
100
AcDbLine
 10
2101.577489441901
 20
1235.452107435478
 30
0.0
 11
2167.203597068001
 21
1235.452107435478
 31
0.0
  0
LINE
  5
46E
330
469
100
AcDbEntity
  8
DIM
 62
5
370
9
 48
3.0
440
16777216
100
AcDbLine
 10
2157.203597068001
 20
2732.452107435478
 30
0.0
 11
2157.203597068001
 21
1235.452107435478
 31
0.0
  0
LINE
  5
46F
330
469
100
AcDbEntity
  8
0
  6
ByBlock
 62
0
370
-2
100
AcDbLine
 10
2161.203597068001
 20
2728.452107435478
 30
0.0
 11
2153.203597068001
 21
2736.452107435478
 31
0.0
  0
LINE
  5
470
330
469
100
AcDbEntity
  8
0
  6
ByBlock
 62
0
370
-2
100
AcDbLine
 10
2153.203597068001
 20
1239.452107435478
 30
0.0
 11
2161.203597068001
 21
1231.452107435478
 31
0.0
  0
MTEXT
  5
471
330
469
100
AcDbEntity
  8
DIM
 62
3
 48
3.0
440
16777216
100
AcDbMText
 10
2134.439272375006
 20
1983.9521074354852
 30
0.0
 40
25.0
 41
0.0
 46
0.0
 71
5
  1
1497
 11
1e-16
 21
1.0
 31
0.0
  0
POINT
  5
472
330
469
100
AcDbEntity
  8
Defpoints
 62
0
 48
3.0
440
16777216
100
AcDbPoint
 10
2086.577489441901
 20
2732.452107435478
 30
0.0
  0
POINT
  5
473
330
469
100
AcDbEntity
  8
Defpoints
 62
0
 48
3.0
440
16777216
100
AcDbPoint
 10
2086.577489441901
 20
1235.452107435478
 30
0.0
  0
POINT
  5
474
330
469
100
AcDbEntity
  8
Defpoints
 62
0
 48
3.0
440
16777216
100
AcDbPoint
 10
2157.203597068001
 20
1235.452107435478
 30
0.0
  0
ENDBLK
  5
46B
330
469
100
AcDbEntity
  8
0
100
AcDbBlockEnd
  0
BLOCK
  5
476
330
475
100
AcDbEntity
  8
0
100
AcDbBlockBegin
  2
*D15
 70
1
 10
0.0
 20
0.0
 30
0.0
  3
*D15
  1

  0
LINE
  5
478
330
475
100
AcDbEntity
  8
DIM
 62
5
370
9
 48
3.0
440
16777216
100
AcDbLine
 10
1022.108623129694
 20
2747.452107435478
 30
0.0
 11
1022.108623129694
 21
2809.6842859977987
 31
0.0
  0
LINE
  5
479
330
475
100
AcDbEntity
  8
DIM
 62
5
370
9
 48
3.0
440
16777216
100
AcDbLine
 10
1443.108623129694
 20
2747.452107435478
 30
0.0
 11
1443.108623129694
 21
2809.6842859977987
 31
0.0
  0
LINE
  5
47A
330
475
100
AcDbEntity
  8
DIM
 62
5
370
9
 48
3.0
440
16777216
100
AcDbLine
 10
1022.108623129694
 20
2799.6842859977987
 30
0.0
 11
1443.108623129694
 21
2799.6842859977987
 31
0.0
  0
LINE
  5
47B
330
475
100
AcDbEntity
  8
0
  6
ByBlock
 62
0
370
-2
100
AcDbLine
 10
1026.108623129694
 20
2803.6842859977987
 30
0.0
 11
1018.108623129694
 21
2795.6842859977987
 31
0.0
  0
LINE
  5
47C
330
475
100
AcDbEntity
  8
0
  6
ByBlock
 62
0
370
-2
100
AcDbLine
 10
1439.108623129694
 20
2795.6842859977987
 30
0.0
 11
1447.108623129694
 21
2803.6842859977987
 31
0.0
  0
MTEXT
  5
47D
330
475
100
AcDbEntity
  8
DIM
 62
3
 48
3.0
440
16777216
100
AcDbMText
 10
1232.608623129694
 20
2822.2354456158064
 30
0.0
 40
25.0
 41
0.0
 46
0.0
 71
5
  1
421
  0
POINT
  5
47E
330
475
100
AcDbEntity
  8
Defpoints
 62
0
 48
3.0
440
16777216
100
AcDbPoint
 10
1022.108623129694
 20
2732.452107435478
 30
0.0
  0
POINT
  5
47F
330
475
100
AcDbEntity
  8
Defpoints
 62
0
 48
3.0
440
16777216
100
AcDbPoint
 10
1443.108623129694
 20
2732.452107435478
 30
0.0
  0
POINT
  5
480
330
475
100
AcDbEntity
  8
Defpoints
 62
0
 48
3.0
440
16777216
100
AcDbPoint
 10
1443.108623129694
 20
2799.6842859977987
 30
0.0
  0
ENDBLK
  5
477
330
475
100
AcDbEntity
  8
0
100
AcDbBlockEnd
  0
BLOCK
  5
482
330
481
100
AcDbEntity
  8
0
100
AcDbBlockBegin
  2
*D16
 70
1
 10
0.0
 20
0.0
 30
0.0
  3
*D16
  1

  0
LINE
  5
484
330
481
100
AcDbEntity
  8
DIM
 62
5
370
9
 48
3.0
440
16777216
100
AcDbLine
 10
1443.108623129694
 20
2747.452107435478
 30
0.0
 11
1443.108623129694
 21
2809.6842859977987
 31
0.0
  0
LINE
  5
485
330
481
100
AcDbEntity
  8
DIM
 62
5
370
9
 48
3.0
440
16777216
100
AcDbLine
 10
1453.108623129694
 20
2747.452107435478
 30
0.0
 11
1453.108623129694
 21
2809.6842859977987
 31
0.0
  0
LINE
  5
486
330
481
100
AcDbEntity
  8
DIM
 62
5
370
9
 48
3.0
440
16777216
100
AcDbLine
 10
1443.108623129694
 20
2799.6842859977987
 30
0.0
 11
1435.108623129694
 21
2799.6842859977987
 31
0.0
  0
LINE
  5
487
330
481
100
AcDbEntity
  8
DIM
 62
5
370
9
 48
3.0
440
16777216
100
AcDbLine
 10
1453.108623129694
 20
2799.6842859977987
 30
0.0
 11
1522.4817472769937
 21
2799.6842859977987
 31
0.0
  0
LINE
  5
488
330
481
100
AcDbEntity
  8
DIM
 62
5
370
9
 48
3.0
440
16777216
100
AcDbLine
 10
1443.108623129694
 20
2799.6842859977987
 30
0.0
 11
1453.108623129694
 21
2799.6842859977987
 31
0.0
  0
LINE
  5
489
330
481
100
AcDbEntity
  8
0
  6
ByBlock
 62
0
370
-2
100
AcDbLine
 10
1439.108623129694
 20
2795.6842859977987
 30
0.0
 11
1447.108623129694
 21
2803.6842859977987
 31
0.0
  0
LINE
  5
48A
330
481
100
AcDbEntity
  8
0
  6
ByBlock
 62
0
370
-2
100
AcDbLine
 10
1457.108623129694
 20
2803.6842859977987
 30
0.0
 11
1449.108623129694
 21
2795.6842859977987
 31
0.0
  0
MTEXT
  5
48B
330
481
100
AcDbEntity
  8
DIM
 62
3
 48
3.0
440
16777216
100
AcDbMText
 10
1495.795185203402
 20
2822.4486106908444
 30
0.0
 40
25.0
 41
0.0
 46
0.0
 71
5
  1
10
  0
POINT
  5
48C
330
481
100
AcDbEntity
  8
Defpoints
 62
0
 48
3.0
440
16777216
100
AcDbPoint
 10
1443.108623129694
 20
2732.452107435478
 30
0.0
  0
POINT
  5
48D
330
481
100
AcDbEntity
  8
Defpoints
 62
0
 48
3.0
440
16777216
100
AcDbPoint
 10
1453.108623129694
 20
2732.452107435478
 30
0.0
  0
POINT
  5
48E
330
481
100
AcDbEntity
  8
Defpoints
 62
0
 48
3.0
440
16777216
100
AcDbPoint
 10
1453.108623129694
 20
2799.6842859977987
 30
0.0
  0
ENDBLK
  5
483
330
481
100
AcDbEntity
  8
0
100
AcDbBlockEnd
  0
BLOCK
  5
490
330
48F
100
AcDbEntity
  8
0
100
AcDbBlockBegin
  2
*D17
 70
1
 10
0.0
 20
0.0
 30
0.0
  3
*D17
  1

  0
LINE
  5
492
330
48F
100
AcDbEntity
  8
DIM
 62
5
370
9
 48
3.0
440
16777216
100
AcDbLine
 10
997.108623129694
 20
2732.452107435478
 30
0.0
 11
929.1563351251971
 21
2732.452107435478
 31
0.0
  0
LINE
  5
493
330
48F
100
AcDbEntity
  8
DIM
 62
5
370
9
 48
3.0
440
16777216
100
AcDbLine
 10
997.108623129694
 20
1235.452107435478
 30
0.0
 11
929.1563351251971
 21
1235.452107435478
 31
0.0
  0
LINE
  5
494
330
48F
100
AcDbEntity
  8
DIM
 62
5
370
9
 48
3.0
440
16777216
100
AcDbLine
 10
939.1563351251971
 20
2732.452107435478
 30
0.0
 11
939.1563351251971
 21
1235.452107435478
 31
0.0
  0
LINE
  5
495
330
48F
100
AcDbEntity
  8
0
  6
ByBlock
 62
0
370
-2
100
AcDbLine
 10
943.1563351251971
 20
2728.452107435478
 30
0.0
 11
935.1563351251971
 21
2736.452107435478
 31
0.0
  0
LINE
  5
496
330
48F
100
AcDbEntity
  8
0
  6
ByBlock
 62
0
370
-2
100
AcDbLine
 10
935.1563351251971
 20
1239.452107435478
 30
0.0
 11
943.1563351251971
 21
1231.452107435478
 31
0.0
  0
MTEXT
  5
497
330
48F
100
AcDbEntity
  8
DIM
 62
3
 48
3.0
440
16777216
100
AcDbMText
 10
916.3920104322024
 20
1983.9521074354852
 30
0.0
 40
25.0
 41
0.0
 46
0.0
 71
5
  1
1497
 11
1e-16
 21
1.0
 31
0.0
  0
POINT
  5
498
330
48F
100
AcDbEntity
  8
Defpoints
 62
0
 48
3.0
440
16777216
100
AcDbPoint
 10
1012.108623129694
 20
2732.452107435478
 30
0.0
  0
POINT
  5
499
330
48F
100
AcDbEntity
  8
Defpoints
 62
0
 48
3.0
440
16777216
100
AcDbPoint
 10
1012.108623129694
 20
1235.452107435478
 30
0.0
  0
POINT
  5
49A
330
48F
100
AcDbEntity
  8
Defpoints
 62
0
 48
3.0
440
16777216
100
AcDbPoint
 10
939.1563351251971
 20
1235.452107435478
 30
0.0
  0
ENDBLK
  5
491
330
48F
100
AcDbEntity
  8
0
100
AcDbBlockEnd
  0
BLOCK
  5
49C
330
49B
100
AcDbEntity
  8
0
100
AcDbBlockBegin
  2
*D18
 70
1
 10
0.0
 20
0.0
 30
0.0
  3
*D18
  1

  0
LINE
  5
49E
330
49B
100
AcDbEntity
  8
DIM
 62
5
370
9
440
16777216
100
AcDbLine
 10
449.75685433069884
 20
757.1254886842144
 30
0.0
 11
387.3427016946953
 21
757.1254886842144
 31
0.0
  0
LINE
  5
49F
330
49B
100
AcDbEntity
  8
DIM
 62
5
370
9
440
16777216
100
AcDbLine
 10
449.75685433069884
 20
389.12548868421436
 30
0.0
 11
387.3427016946953
 21
389.12548868421436
 31
0.0
  0
LINE
  5
4A0
330
49B
100
AcDbEntity
  8
DIM
 62
5
370
9
440
16777216
100
AcDbLine
 10
397.3427016946953
 20
757.1254886842144
 30
0.0
 11
397.3427016946953
 21
389.12548868421436
 31
0.0
  0
LINE
  5
4A1
330
49B
100
AcDbEntity
  8
0
  6
ByBlock
 62
0
370
-2
100
AcDbLine
 10
401.3427016946953
 20
753.1254886842144
 30
0.0
 11
393.3427016946953
 21
761.1254886842144
 31
0.0
  0
LINE
  5
4A2
330
49B
100
AcDbEntity
  8
0
  6
ByBlock
 62
0
370
-2
100
AcDbLine
 10
393.3427016946953
 20
393.12548868421436
 30
0.0
 11
401.3427016946953
 21
385.12548868421436
 31
0.0
  0
MTEXT
  5
4A3
330
49B
100
AcDbEntity
  8
DIM
 62
3
440
16777216
100
AcDbMText
 10
374.56985039869323
 20
522.1254886842144
 30
0.0
 40
25.0
 41
0.0
 46
0.0
 71
5
  1
368
 11
1e-16
 21
1.0
 31
0.0
  0
POINT
  5
4A4
330
49B
100
AcDbEntity
  8
Defpoints
 62
0
440
16777216
100
AcDbPoint
 10
464.75685433069884
 20
757.1254886842144
 30
0.0
  0
POINT
  5
4A5
330
49B
100
AcDbEntity
  8
Defpoints
 62
0
440
16777216
100
AcDbPoint
 10
464.75685433069884
 20
389.12548868421436
 30
0.0
  0
POINT
  5
4A6
330
49B
100
AcDbEntity
  8
Defpoints
 62
0
440
16777216
100
AcDbPoint
 10
397.3427016946953
 20
389.12548868421436
 30
0.0
  0
ENDBLK
  5
49D
330
49B
100
AcDbEntity
  8
0
100
AcDbBlockEnd
  0
BLOCK
  5
4A8
330
4A7
100
AcDbEntity
  8
0
100
AcDbBlockBegin
  2
*D19
 70
1
 10
0.0
 20
0.0
 30
0.0
  3
*D19
  1

  0
LINE
  5
4AA
330
4A7
100
AcDbEntity
  8
DIM
 62
5
370
9
440
16777216
100
AcDbLine
 10
449.75685433069884
 20
389.12548868421436
 30
0.0
 11
387.3427016946953
 21
389.12548868421436
 31
0.0
  0
LINE
  5
4AB
330
4A7
100
AcDbEntity
  8
DIM
 62
5
370
9
440
16777216
100
AcDbLine
 10
489.75685433069884
 20
349.12548868421436
 30
0.0
 11
387.3427016946953
 21
349.12548868421436
 31
0.0
  0
LINE
  5
4AC
330
4A7
100
AcDbEntity
  8
DIM
 62
5
370
9
440
16777216
100
AcDbLine
 10
397.3427016946953
 20
389.12548868421436
 30
0.0
 11
397.3427016946953
 21
349.12548868421436
 31
0.0
  0
LINE
  5
4AD
330
4A7
100
AcDbEntity
  8
0
  6
ByBlock
 62
0
370
-2
100
AcDbLine
 10
401.3427016946953
 20
385.12548868421436
 30
0.0
 11
393.3427016946953
 21
393.12548868421436
 31
0.0
  0
LINE
  5
4AE
330
4A7
100
AcDbEntity
  8
0
  6
ByBlock
 62
0
370
-2
100
AcDbLine
 10
393.3427016946953
 20
353.12548868421436
 30
0.0
 11
401.3427016946953
 21
345.12548868421436
 31
0.0
  0
MTEXT
  5
4AF
330
4A7
100
AcDbEntity
  8
DIM
 62
3
440
16777216
100
AcDbMText
 10
374.5783770017006
 20
369.1254886842289
 30
0.0
 40
25.0
 41
0.0
 46
0.0
 71
5
  1
40
 11
1e-16
 21
1.0
 31
0.0
  0
POINT
  5
4B0
330
4A7
100
AcDbEntity
  8
Defpoints
 62
0
440
16777216
100
AcDbPoint
 10
464.75685433069884
 20
389.12548868421436
 30
0.0
  0
POINT
  5
4B1
330
4A7
100
AcDbEntity
  8
Defpoints
 62
0
440
16777216
100
AcDbPoint
 10
504.75685433069884
 20
349.12548868421436
 30
0.0
  0
POINT
  5
4B2
330
4A7
100
AcDbEntity
  8
Defpoints
 62
0
440
16777216
100
AcDbPoint
 10
397.3427016946953
 20
349.12548868421436
 30
0.0
  0
ENDBLK
  5
4A9
330
4A7
100
AcDbEntity
  8
0
100
AcDbBlockEnd
  0
BLOCK
  5
4B4
330
4B3
100
AcDbEntity
  8
0
100
AcDbBlockBegin
  2
*D20
 70
1
 10
0.0
 20
0.0
 30
0.0
  3
*D20
  1

  0
LINE
  5
4B6
330
4B3
100
AcDbEntity
  8
DIM
 62
5
370
9
440
16777216
100
AcDbLine
 10
489.75685433069884
 20
349.12548868421436
 30
0.0
 11
387.3427016946953
 21
349.12548868421436
 31
0.0
  0
LINE
  5
4B7
330
4B3
100
AcDbEntity
  8
DIM
 62
5
370
9
440
16777216
100
AcDbLine
 10
489.75685433069884
 20
337.1254886842071
 30
0.0
 11
387.3427016946953
 21
337.1254886842071
 31
0.0
  0
LINE
  5
4B8
330
4B3
100
AcDbEntity
  8
DIM
 62
5
370
9
440
16777216
100
AcDbLine
 10
397.3427016946953
 20
349.12548868421436
 30
0.0
 11
397.3427016946953
 21
357.12548868421436
 31
0.0
  0
LINE
  5
4B9
330
4B3
100
AcDbEntity
  8
DIM
 62
5
370
9
440
16777216
100
AcDbLine
 10
397.3427016946953
 20
337.1254886842071
 30
0.0
 11
397.3427016946953
 21
267.9228965969014
 31
0.0
  0
LINE
  5
4BA
330
4B3
100
AcDbEntity
  8
DIM
 62
5
370
9
440
16777216
100
AcDbLine
 10
397.3427016946953
 20
349.12548868421436
 30
0.0
 11
397.3427016946953
 21
337.1254886842071
 31
0.0
  0
LINE
  5
4BB
330
4B3
100
AcDbEntity
  8
0
  6
ByBlock
 62
0
370
-2
100
AcDbLine
 10
393.3427016946953
 20
353.12548868421436
 30
0.0
 11
401.3427016946953
 21
345.12548868421436
 31
0.0
  0
LINE
  5
4BC
330
4B3
100
AcDbEntity
  8
0
  6
ByBlock
 62
0
370
-2
100
AcDbLine
 10
401.3427016946953
 20
333.1254886842071
 30
0.0
 11
393.3427016946953
 21
341.1254886842071
 31
0.0
  0
MTEXT
  5
4BD
330
4B3
100
AcDbEntity
  8
DIM
 62
3
440
16777216
100
AcDbMText
 10
374.7915420766949
 20
294.52419264056516
 30
0.0
 40
25.0
 41
0.0
 46
0.0
 71
5
  1
12
 11
1e-16
 21
1.0
 31
0.0
  0
POINT
  5
4BE
330
4B3
100
AcDbEntity
  8
Defpoints
 62
0
440
16777216
100
AcDbPoint
 10
504.75685433069884
 20
349.12548868421436
 30
0.0
  0
POINT
  5
4BF
330
4B3
100
AcDbEntity
  8
Defpoints
 62
0
440
16777216
100
AcDbPoint
 10
504.75685433069884
 20
337.1254886842071
 30
0.0
  0
POINT
  5
4C0
330
4B3
100
AcDbEntity
  8
Defpoints
 62
0
440
16777216
100
AcDbPoint
 10
397.3427016946953
 20
337.1254886842071
 30
0.0
  0
ENDBLK
  5
4B5
330
4B3
100
AcDbEntity
  8
0
100
AcDbBlockEnd
  0
BLOCK
  5
4C2
330
4C1
100
AcDbEntity
  8
0
100
AcDbBlockBegin
  2
*D21
 70
1
 10
0.0
 20
0.0
 30
0.0
  3
*D21
  1

  0
LINE
  5
4C4
330
4C1
100
AcDbEntity
  8
DIM
 62
5
370
9
440
16777216
100
AcDbLine
 10
979.7568543306988
 20
757.1254886842144
 30
0.0
 11
1040.9829733904044
 21
757.1254886842144
 31
0.0
  0
LINE
  5
4C5
330
4C1
100
AcDbEntity
  8
DIM
 62
5
370
9
440
16777216
100
AcDbLine
 10
939.7568543306988
 20
337.1254886842071
 30
0.0
 11
1040.9829733904044
 21
337.1254886842071
 31
0.0
  0
LINE
  5
4C6
330
4C1
100
AcDbEntity
  8
DIM
 62
5
370
9
440
16777216
100
AcDbLine
 10
1030.9829733905062
 20
757.1254886842144
 30
0.0
 11
1030.9829733905062
 21
337.1254886842071
 31
0.0
  0
LINE
  5
4C7
330
4C1
100
AcDbEntity
  8
0
  6
ByBlock
 62
0
370
-2
100
AcDbLine
 10
1034.9829733905062
 20
753.1254886842144
 30
0.0
 11
1026.9829733905062
 21
761.1254886842144
 31
0.0
  0
LINE
  5
4C8
330
4C1
100
AcDbEntity
  8
0
  6
ByBlock
 62
0
370
-2
100
AcDbLine
 10
1026.9829733905062
 20
341.1254886842071
 30
0.0
 11
1034.9829733905062
 21
333.1254886842071
 31
0.0
  0
MTEXT
  5
4C9
330
4C1
100
AcDbEntity
  8
DIM
 62
3
440
16777216
100
AcDbMText
 10
1008.2186486973951
 20
547.1254886842289
 30
0.0
 40
25.0
 41
0.0
 46
0.0
 71
5
  1
420
 11
1e-16
 21
1.0
 31
0.0
  0
POINT
  5
4CA
330
4C1
100
AcDbEntity
  8
Defpoints
 62
0
440
16777216
100
AcDbPoint
 10
964.7568543306988
 20
757.1254886842144
 30
0.0
  0
POINT
  5
4CB
330
4C1
100
AcDbEntity
  8
Defpoints
 62
0
440
16777216
100
AcDbPoint
 10
924.7568543306988
 20
337.1254886842071
 30
0.0
  0
POINT
  5
4CC
330
4C1
100
AcDbEntity
  8
Defpoints
 62
0
440
16777216
100
AcDbPoint
 10
1030.9829733905062
 20
337.1254886842071
 30
0.0
  0
ENDBLK
  5
4C3
330
4C1
100
AcDbEntity
  8
0
100
AcDbBlockEnd
  0
BLOCK
  5
4CE
330
4CD
100
AcDbEntity
  8
0
100
AcDbBlockBegin
  2
*D22
 70
1
 10
0.0
 20
0.0
 30
0.0
  3
*D22
  1

  0
LINE
  5
4D0
330
4CD
100
AcDbEntity
  8
DIM
 62
5
370
9
 48
3.0
440
16777216
100
AcDbLine
 10
464.75685433069884
 20
772.1254886842144
 30
0.0
 11
464.75685433069884
 21
837.7515963102851
 31
0.0
  0
LINE
  5
4D1
330
4CD
100
AcDbEntity
  8
DIM
 62
5
370
9
 48
3.0
440
16777216
100
AcDbLine
 10
964.7568543306988
 20
772.1254886842144
 30
0.0
 11
964.7568543306988
 21
837.7515963102851
 31
0.0
  0
LINE
  5
4D2
330
4CD
100
AcDbEntity
  8
DIM
 62
5
370
9
 48
3.0
440
16777216
100
AcDbLine
 10
464.75685433069884
 20
827.7515963102851
 30
0.0
 11
964.7568543306988
 21
827.7515963102851
 31
0.0
  0
LINE
  5
4D3
330
4CD
100
AcDbEntity
  8
0
  6
ByBlock
 62
0
370
-2
100
AcDbLine
 10
468.75685433069884
 20
831.7515963102851
 30
0.0
 11
460.75685433069884
 21
823.7515963102851
 31
0.0
  0
LINE
  5
4D4
330
4CD
100
AcDbEntity
  8
0
  6
ByBlock
 62
0
370
-2
100
AcDbLine
 10
960.7568543306988
 20
823.7515963102851
 30
0.0
 11
968.7568543306988
 21
831.7515963102851
 31
0.0
  0
MTEXT
  5
4D5
330
4CD
100
AcDbEntity
  8
DIM
 62
3
 48
3.0
440
16777216
100
AcDbMText
 10
714.7568543306988
 20
850.5159210033307
 30
0.0
 40
25.0
 41
0.0
 46
0.0
 71
5
  1
500
  0
POINT
  5
4D6
330
4CD
100
AcDbEntity
  8
Defpoints
 62
0
 48
3.0
440
16777216
100
AcDbPoint
 10
464.75685433069884
 20
757.1254886842144
 30
0.0
  0
POINT
  5
4D7
330
4CD
100
AcDbEntity
  8
Defpoints
 62
0
 48
3.0
440
16777216
100
AcDbPoint
 10
964.7568543306988
 20
757.1254886842144
 30
0.0
  0
POINT
  5
4D8
330
4CD
100
AcDbEntity
  8
Defpoints
 62
0
 48
3.0
440
16777216
100
AcDbPoint
 10
964.7568543306988
 20
827.7515963102851
 30
0.0
  0
ENDBLK
  5
4CF
330
4CD
100
AcDbEntity
  8
0
100
AcDbBlockEnd
  0
BLOCK
  5
4DA
330
4D9
100
AcDbEntity
  8
0
100
AcDbBlockBegin
  2
*D23
 70
1
 10
0.0
 20
0.0
 30
0.0
  3
*D23
  1

  0
LINE
  5
4DC
330
4D9
100
AcDbEntity
  8
DIM
 62
5
370
9
 48
3.0
440
16777216
100
AcDbLine
 10
2602.797219677799
 20
720.2696543798011
 30
0.0
 11
2602.797219677799
 21
751.8133150895446
 31
0.0
  0
LINE
  5
4DD
330
4D9
100
AcDbEntity
  8
DIM
 62
5
370
9
 48
3.0
440
16777216
100
AcDbLine
 10
2892.797219677799
 20
720.2696543798011
 30
0.0
 11
2892.797219677799
 21
751.8133150895446
 31
0.0
  0
LINE
  5
4DE
330
4D9
100
AcDbEntity
  8
DIM
 62
5
370
9
 48
3.0
440
16777216
100
AcDbLine
 10
2602.797219677799
 20
741.8133150895592
 30
0.0
 11
2892.797219677799
 21
741.8133150895592
 31
0.0
  0
LINE
  5
4DF
330
4D9
100
AcDbEntity
  8
0
  6
ByBlock
 62
0
370
-2
100
AcDbLine
 10
2606.797219677799
 20
745.8133150895592
 30
0.0
 11
2598.797219677799
 21
737.8133150895592
 31
0.0
  0
LINE
  5
4E0
330
4D9
100
AcDbEntity
  8
0
  6
ByBlock
 62
0
370
-2
100
AcDbLine
 10
2888.797219677799
 20
737.8133150895592
 30
0.0
 11
2896.797219677799
 21
745.8133150895592
 31
0.0
  0
MTEXT
  5
4E1
330
4D9
100
AcDbEntity
  8
DIM
 62
3
 48
3.0
440
16777216
100
AcDbMText
 10
2747.797219677799
 20
764.5776397825975
 30
0.0
 40
25.0
 41
0.0
 46
0.0
 71
5
  1
290
  0
POINT
  5
4E2
330
4D9
100
AcDbEntity
  8
Defpoints
 62
0
 48
3.0
440
16777216
100
AcDbPoint
 10
2602.797219677799
 20
705.2696543798011
 30
0.0
  0
POINT
  5
4E3
330
4D9
100
AcDbEntity
  8
Defpoints
 62
0
 48
3.0
440
16777216
100
AcDbPoint
 10
2892.797219677799
 20
705.2696543798011
 30
0.0
  0
POINT
  5
4E4
330
4D9
100
AcDbEntity
  8
Defpoints
 62
0
 48
3.0
440
16777216
100
AcDbPoint
 10
2892.797219677799
 20
741.8133150895592
 30
0.0
  0
ENDBLK
  5
4DB
330
4D9
100
AcDbEntity
  8
0
100
AcDbBlockEnd
  0
BLOCK
  5
4E6
330
4E5
100
AcDbEntity
  8
0
100
AcDbBlockBegin
  2
*D24
 70
1
 10
0.0
 20
0.0
 30
0.0
  3
*D24
  1

  0
LINE
  5
4E8
330
4E5
100
AcDbEntity
  8
DIM
 62
5
370
9
 48
3.0
440
16777216
100
AcDbLine
 10
2907.797219677799
 20
705.2696543798011
 30
0.0
 11
2985.3841899825056
 21
705.2696543798011
 31
0.0
  0
LINE
  5
4E9
330
4E5
100
AcDbEntity
  8
DIM
 62
5
370
9
 48
3.0
440
16777216
100
AcDbLine
 10
2907.797219677799
 20
545.2696543798011
 30
0.0
 11
2985.3841899825056
 21
545.2696543798011
 31
0.0
  0
LINE
  5
4EA
330
4E5
100
AcDbEntity
  8
DIM
 62
5
370
9
 48
3.0
440
16777216
100
AcDbLine
 10
2975.3841899824038
 20
705.2696543798011
 30
0.0
 11
2975.3841899824038
 21
545.2696543798011
 31
0.0
  0
LINE
  5
4EB
330
4E5
100
AcDbEntity
  8
0
  6
ByBlock
 62
0
370
-2
100
AcDbLine
 10
2979.3841899824038
 20
701.2696543798011
 30
0.0
 11
2971.3841899824038
 21
709.2696543798011
 31
0.0
  0
LINE
  5
4EC
330
4E5
100
AcDbEntity
  8
0
  6
ByBlock
 62
0
370
-2
100
AcDbLine
 10
2971.3841899824038
 20
549.2696543798011
 30
0.0
 11
2979.3841899824038
 21
541.2696543798011
 31
0.0
  0
MTEXT
  5
4ED
330
4E5
100
AcDbEntity
  8
DIM
 62
3
 48
3.0
440
16777216
100
AcDbMText
 10
2952.6198652893945
 20
625.2696543798156
 30
0.0
 40
25.0
 41
0.0
 46
0.0
 71
5
  1
160
 11
1e-16
 21
1.0
 31
0.0
  0
POINT
  5
4EE
330
4E5
100
AcDbEntity
  8
Defpoints
 62
0
 48
3.0
440
16777216
100
AcDbPoint
 10
2892.797219677799
 20
705.2696543798011
 30
0.0
  0
POINT
  5
4EF
330
4E5
100
AcDbEntity
  8
Defpoints
 62
0
 48
3.0
440
16777216
100
AcDbPoint
 10
2892.797219677799
 20
545.2696543798011
 30
0.0
  0
POINT
  5
4F0
330
4E5
100
AcDbEntity
  8
Defpoints
 62
0
 48
3.0
440
16777216
100
AcDbPoint
 10
2975.3841899824038
 20
545.2696543798011
 30
0.0
  0
ENDBLK
  5
4E7
330
4E5
100
AcDbEntity
  8
0
100
AcDbBlockEnd
  0
BLOCK
  5
4F2
330
4F1
100
AcDbEntity
  8
0
100
AcDbBlockBegin
  2
*D25
 70
1
 10
0.0
 20
0.0
 30
0.0
  3
*D25
  1

  0
LINE
  5
4F4
330
4F1
100
AcDbEntity
  8
DIM
 62
5
370
9
440
16777216
100
AcDbLine
 10
3085.7843514202978
 20
2746.952107435478
 30
0.0
 11
3085.7843514202978
 21
2800.134890976049
 31
0.0
  0
LINE
  5
4F5
330
4F1
100
AcDbEntity
  8
DIM
 62
5
370
9
440
16777216
100
AcDbLine
 10
3097.7843514202978
 20
2734.9521074354852
 30
0.0
 11
3097.7843514202978
 21
2800.134890976049
 31
0.0
  0
LINE
  5
4F6
330
4F1
100
AcDbEntity
  8
DIM
 62
5
370
9
440
16777216
100
AcDbLine
 10
3085.7843514202978
 20
2790.134890976049
 30
0.0
 11
3077.7843514202978
 21
2790.134890976049
 31
0.0
  0
LINE
  5
4F7
330
4F1
100
AcDbEntity
  8
DIM
 62
5
370
9
440
16777216
100
AcDbLine
 10
3097.7843514202978
 20
2790.134890976049
 30
0.0
 11
3166.986943507596
 21
2790.134890976049
 31
0.0
  0
LINE
  5
4F8
330
4F1
100
AcDbEntity
  8
DIM
 62
5
370
9
440
16777216
100
AcDbLine
 10
3085.7843514202978
 20
2790.134890976049
 30
0.0
 11
3097.7843514202978
 21
2790.134890976049
 31
0.0
  0
LINE
  5
4F9
330
4F1
100
AcDbEntity
  8
0
  6
ByBlock
 62
0
370
-2
100
AcDbLine
 10
3081.7843514202978
 20
2786.134890976049
 30
0.0
 11
3089.7843514202978
 21
2794.134890976049
 31
0.0
  0
LINE
  5
4FA
330
4F1
100
AcDbEntity
  8
0
  6
ByBlock
 62
0
370
-2
100
AcDbLine
 10
3101.7843514202978
 20
2794.134890976049
 30
0.0
 11
3093.7843514202978
 21
2786.134890976049
 31
0.0
  0
MTEXT
  5
4FB
330
4F1
100
AcDbEntity
  8
DIM
 62
3
440
16777216
100
AcDbMText
 10
3140.3856474639033
 20
2812.6860505940567
 30
0.0
 40
25.0
 41
0.0
 46
0.0
 71
5
  1
12
  0
POINT
  5
4FC
330
4F1
100
AcDbEntity
  8
Defpoints
 62
0
440
16777216
100
AcDbPoint
 10
3085.7843514202978
 20
2731.952107435478
 30
0.0
  0
POINT
  5
4FD
330
4F1
100
AcDbEntity
  8
Defpoints
 62
0
440
16777216
100
AcDbPoint
 10
3097.7843514202978
 20
2719.952107435478
 30
0.0
  0
POINT
  5
4FE
330
4F1
100
AcDbEntity
  8
Defpoints
 62
0
440
16777216
100
AcDbPoint
 10
3097.7843514202978
 20
2790.134890976049
 30
0.0
  0
ENDBLK
  5
4F3
330
4F1
100
AcDbEntity
  8
0
100
AcDbBlockEnd
  0
BLOCK
  5
500
330
4FF
100
AcDbEntity
  8
0
100
AcDbBlockBegin
  2
*D26
 70
1
 10
0.0
 20
0.0
 30
0.0
  3
*D26
  1

  0
LINE
  5
502
330
4FF
100
AcDbEntity
  8
DIM
 62
5
370
9
440
16777216
100
AcDbLine
 10
3063.7843514202978
 20
2768.9521074354852
 30
0.0
 11
3063.7843514202978
 21
2838.8128831680297
 31
0.0
  0
LINE
  5
503
330
4FF
100
AcDbEntity
  8
DIM
 62
5
370
9
440
16777216
100
AcDbLine
 10
3085.7843514202978
 20
2746.952107435478
 30
0.0
 11
3085.7843514202978
 21
2838.8128831680297
 31
0.0
  0
LINE
  5
504
330
4FF
100
AcDbEntity
  8
DIM
 62
5
370
9
440
16777216
100
AcDbLine
 10
3063.7843514202978
 20
2828.8128831680297
 30
0.0
 11
3085.7843514202978
 21
2828.8128831680297
 31
0.0
  0
LINE
  5
505
330
4FF
100
AcDbEntity
  8
DIM
 62
5
370
9
440
16777216
100
AcDbLine
 10
3085.7843514202978
 20
2828.8128831680297
 30
0.0
 11
3149.7666160859953
 21
2828.8128831680297
 31
0.0
  0
LINE
  5
506
330
4FF
100
AcDbEntity
  8
0
  6
ByBlock
 62
0
370
-2
100
AcDbLine
 10
3067.7843514202978
 20
2832.8128831680297
 30
0.0
 11
3059.7843514202978
 21
2824.8128831680297
 31
0.0
  0
LINE
  5
507
330
4FF
100
AcDbEntity
  8
0
  6
ByBlock
 62
0
370
-2
100
AcDbLine
 10
3081.7843514202978
 20
2824.8128831680297
 30
0.0
 11
3089.7843514202978
 21
2832.8128831680297
 31
0.0
  0
MTEXT
  5
508
330
4FF
100
AcDbEntity
  8
DIM
 62
3
440
16777216
100
AcDbMText
 10
3121.7754837530956
 20
2851.3640427860373
 30
0.0
 40
25.0
 41
0.0
 46
0.0
 71
5
  1
22
  0
POINT
  5
509
330
4FF
100
AcDbEntity
  8
Defpoints
 62
0
440
16777216
100
AcDbPoint
 10
3063.7843514202978
 20
2753.9521074354852
 30
0.0
  0
POINT
  5
50A
330
4FF
100
AcDbEntity
  8
Defpoints
 62
0
440
16777216
100
AcDbPoint
 10
3085.7843514202978
 20
2731.952107435478
 30
0.0
  0
POINT
  5
50B
330
4FF
100
AcDbEntity
  8
Defpoints
 62
0
440
16777216
100
AcDbPoint
 10
3085.7843514202978
 20
2828.8128831680297
 30
0.0
  0
ENDBLK
  5
501
330
4FF
100
AcDbEntity
  8
0
100
AcDbBlockEnd
  0
BLOCK
  5
50D
330
50C
100
AcDbEntity
  8
0
100
AcDbBlockBegin
  2
*D27
 70
1
 10
0.0
 20
0.0
 30
0.0
  3
*D27
  1

  0
LINE
  5
50F
330
50C
100
AcDbEntity
  8
DIM
 62
5
370
9
440
16777216
100
AcDbLine
 10
3063.7843514202978
 20
2768.9521074354852
 30
0.0
 11
3063.7843514202978
 21
2838.8128831680297
 31
0.0
  0
LINE
  5
510
330
50C
100
AcDbEntity
  8
DIM
 62
5
370
9
440
16777216
100
AcDbLine
 10
2566.7843514202978
 20
2768.9521074354852
 30
0.0
 11
2566.7843514202978
 21
2838.8128831680297
 31
0.0
  0
LINE
  5
511
330
50C
100
AcDbEntity
  8
DIM
 62
5
370
9
440
16777216
100
AcDbLine
 10
3063.7843514202978
 20
2828.8128831680297
 30
0.0
 11
2566.7843514202978
 21
2828.8128831680297
 31
0.0
  0
LINE
  5
512
330
50C
100
AcDbEntity
  8
0
  6
ByBlock
 62
0
370
-2
100
AcDbLine
 10
3059.7843514202978
 20
2824.8128831680297
 30
0.0
 11
3067.7843514202978
 21
2832.8128831680297
 31
0.0
  0
LINE
  5
513
330
50C
100
AcDbEntity
  8
0
  6
ByBlock
 62
0
370
-2
100
AcDbLine
 10
2570.7843514202978
 20
2832.8128831680297
 30
0.0
 11
2562.7843514202978
 21
2824.8128831680297
 31
0.0
  0
MTEXT
  5
514
330
50C
100
AcDbEntity
  8
DIM
 62
3
440
16777216
100
AcDbMText
 10
2815.2843514202978
 20
2851.5772078610753
 30
0.0
 40
25.0
 41
0.0
 46
0.0
 71
5
  1
497
  0
POINT
  5
515
330
50C
100
AcDbEntity
  8
Defpoints
 62
0
440
16777216
100
AcDbPoint
 10
3063.7843514202978
 20
2753.9521074354852
 30
0.0
  0
POINT
  5
516
330
50C
100
AcDbEntity
  8
Defpoints
 62
0
440
16777216
100
AcDbPoint
 10
2566.7843514202978
 20
2753.9521074354852
 30
0.0
  0
POINT
  5
517
330
50C
100
AcDbEntity
  8
Defpoints
 62
0
440
16777216
100
AcDbPoint
 10
2566.7843514202978
 20
2828.8128831680297
 30
0.0
  0
ENDBLK
  5
50E
330
50C
100
AcDbEntity
  8
0
100
AcDbBlockEnd
  0
BLOCK
  5
519
330
518
100
AcDbEntity
  8
0
100
AcDbBlockBegin
  2
*D28
 70
1
 10
0.0
 20
0.0
 30
0.0
  3
*D28
  1

  0
LINE
  5
51B
330
518
100
AcDbEntity
  8
DIM
 62
5
370
9
440
16777216
100
AcDbLine
 10
2563.894465623205
 20
2765.952107435478
 30
0.0
 11
2422.001987301206
 21
2765.952107435478
 31
0.0
  0
LINE
  5
51C
330
518
100
AcDbEntity
  8
DIM
 62
5
370
9
440
16777216
100
AcDbLine
 10
2563.9638398990064
 20
1201.952107435478
 30
0.0
 11
2422.001987301206
 21
1201.952107435478
 31
0.0
  0
LINE
  5
51D
330
518
100
AcDbEntity
  8
DIM
 62
5
370
9
440
16777216
100
AcDbLine
 10
2432.001987301206
 20
2765.952107435478
 30
0.0
 11
2432.001987301206
 21
1201.952107435478
 31
0.0
  0
LINE
  5
51E
330
518
100
AcDbEntity
  8
0
  6
ByBlock
 62
0
370
-2
100
AcDbLine
 10
2436.001987301206
 20
2761.952107435478
 30
0.0
 11
2428.001987301206
 21
2769.952107435478
 31
0.0
  0
LINE
  5
51F
330
518
100
AcDbEntity
  8
0
  6
ByBlock
 62
0
370
-2
100
AcDbLine
 10
2428.001987301206
 20
1205.952107435478
 30
0.0
 11
2436.001987301206
 21
1197.952107435478
 31
0.0
  0
MTEXT
  5
520
330
518
100
AcDbEntity
  8
DIM
 62
3
440
16777216
100
AcDbMText
 10
2409.237662608197
 20
1983.9521074354852
 30
0.0
 40
25.0
 41
0.0
 46
0.0
 71
5
  1
1564
 11
1e-16
 21
1.0
 31
0.0
  0
POINT
  5
521
330
518
100
AcDbEntity
  8
Defpoints
 62
0
440
16777216
100
AcDbPoint
 10
2578.8944656231033
 20
2765.952107435478
 30
0.0
  0
POINT
  5
522
330
518
100
AcDbEntity
  8
Defpoints
 62
0
440
16777216
100
AcDbPoint
 10
2578.9638398990064
 20
1201.952107435478
 30
0.0
  0
POINT
  5
523
330
518
100
AcDbEntity
  8
Defpoints
 62
0
440
16777216
100
AcDbPoint
 10
2432.001987301206
 20
1201.952107435478
 30
0.0
  0
ENDBLK
  5
51A
330
518
100
AcDbEntity
  8
0
100
AcDbBlockEnd
  0
BLOCK
  5
525
330
524
100
AcDbEntity
  8
0
100
AcDbBlockBegin
  2
*D29
 70
1
 10
0.0
 20
0.0
 30
0.0
  3
*D29
  1

  0
LINE
  5
527
330
524
100
AcDbEntity
  8
DIM
 62
5
370
9
440
16777216
100
AcDbLine
 10
2529.7843514202978
 20
1235.952107435478
 30
0.0
 11
2484.709757804303
 21
1235.952107435478
 31
0.0
  0
LINE
  5
528
330
524
100
AcDbEntity
  8
DIM
 62
5
370
9
440
16777216
100
AcDbLine
 10
2529.7843514202978
 20
2731.952107435478
 30
0.0
 11
2484.709757804303
 21
2731.952107435478
 31
0.0
  0
LINE
  5
529
330
524
100
AcDbEntity
  8
DIM
 62
5
370
9
440
16777216
100
AcDbLine
 10
2494.709757804303
 20
1235.952107435478
 30
0.0
 11
2494.709757804303
 21
2731.952107435478
 31
0.0
  0
LINE
  5
52A
330
524
100
AcDbEntity
  8
0
  6
ByBlock
 62
0
370
-2
100
AcDbLine
 10
2490.709757804303
 20
1239.952107435478
 30
0.0
 11
2498.709757804303
 21
1231.952107435478
 31
0.0
  0
LINE
  5
52B
330
524
100
AcDbEntity
  8
0
  6
ByBlock
 62
0
370
-2
100
AcDbLine
 10
2498.709757804303
 20
2727.952107435478
 30
0.0
 11
2490.709757804303
 21
2735.952107435478
 31
0.0
  0
MTEXT
  5
52C
330
524
100
AcDbEntity
  8
DIM
 62
3
440
16777216
100
AcDbMText
 10
2471.945433111294
 20
1983.9521074354852
 30
0.0
 40
25.0
 41
0.0
 46
0.0
 71
5
  1
1496
 11
1e-16
 21
1.0
 31
0.0
  0
POINT
  5
52D
330
524
100
AcDbEntity
  8
Defpoints
 62
0
440
16777216
100
AcDbPoint
 10
2544.7843514202978
 20
1235.952107435478
 30
0.0
  0
POINT
  5
52E
330
524
100
AcDbEntity
  8
Defpoints
 62
0
440
16777216
100
AcDbPoint
 10
2544.7843514202978
 20
2731.952107435478
 30
0.0
  0
POINT
  5
52F
330
524
100
AcDbEntity
  8
Defpoints
 62
0
440
16777216
100
AcDbPoint
 10
2494.709757804303
 20
2731.952107435478
 30
0.0
  0
ENDBLK
  5
526
330
524
100
AcDbEntity
  8
0
100
AcDbBlockEnd
  0
BLOCK
  5
531
330
530
100
AcDbEntity
  8
0
100
AcDbBlockBegin
  2
*D30
 70
1
 10
0.0
 20
0.0
 30
0.0
  3
*D30
  1

  0
LINE
  5
533
330
530
100
AcDbEntity
  8
DIM
 62
5
370
9
440
16777216
100
AcDbLine
 10
2532.7843514202978
 20
1232.952107435478
 30
0.0
 11
2532.7843514202978
 21
1129.0135372731093
 31
0.0
  0
LINE
  5
534
330
530
100
AcDbEntity
  8
DIM
 62
5
370
9
440
16777216
100
AcDbLine
 10
3097.7843514202978
 20
1232.952107435478
 30
0.0
 11
3097.7843514202978
 21
1129.0135372731093
 31
0.0
  0
LINE
  5
535
330
530
100
AcDbEntity
  8
DIM
 62
5
370
9
440
16777216
100
AcDbLine
 10
2532.7843514202978
 20
1139.0135372731093
 30
0.0
 11
3097.7843514202978
 21
1139.0135372731093
 31
0.0
  0
LINE
  5
536
330
530
100
AcDbEntity
  8
0
  6
ByBlock
 62
0
370
-2
100
AcDbLine
 10
2536.7843514202978
 20
1143.0135372731093
 30
0.0
 11
2528.7843514202978
 21
1135.0135372731093
 31
0.0
  0
LINE
  5
537
330
530
100
AcDbEntity
  8
0
  6
ByBlock
 62
0
370
-2
100
AcDbLine
 10
3093.7843514202978
 20
1135.0135372731093
 30
0.0
 11
3101.7843514202978
 21
1143.0135372731093
 31
0.0
  0
MTEXT
  5
538
330
530
100
AcDbEntity
  8
DIM
 62
3
440
16777216
100
AcDbMText
 10
2815.2843514202978
 20
1161.777861966155
 30
0.0
 40
25.0
 41
0.0
 46
0.0
 71
5
  1
565
  0
POINT
  5
539
330
530
100
AcDbEntity
  8
Defpoints
 62
0
440
16777216
100
AcDbPoint
 10
2532.7843514202978
 20
1247.952107435478
 30
0.0
  0
POINT
  5
53A
330
530
100
AcDbEntity
  8
Defpoints
 62
0
440
16777216
100
AcDbPoint
 10
3097.7843514202978
 20
1247.952107435478
 30
0.0
  0
POINT
  5
53B
330
530
100
AcDbEntity
  8
Defpoints
 62
0
440
16777216
100
AcDbPoint
 10
3097.7843514202978
 20
1139.0135372731093
 30
0.0
  0
ENDBLK
  5
532
330
530
100
AcDbEntity
  8
0
100
AcDbBlockEnd
  0
BLOCK
  5
53D
330
53C
100
AcDbEntity
  8
0
100
AcDbBlockBegin
  2
*D31
 70
1
 10
0.0
 20
0.0
 30
0.0
  3
*D31
  1

  0
LINE
  5
53F
330
53C
100
AcDbEntity
  8
DIM
 62
5
370
9
440
16777216
100
AcDbLine
 10
1775.3932076595956
 20
384.066385679027
 30
0.0
 11
1775.3932076595956
 21
345.9963540391691
 31
0.0
  0
LINE
  5
540
330
53C
100
AcDbEntity
  8
DIM
 62
5
370
9
440
16777216
100
AcDbLine
 10
1355.3932076595956
 20
384.066385679027
 30
0.0
 11
1355.3932076595956
 21
345.9963540391691
 31
0.0
  0
LINE
  5
541
330
53C
100
AcDbEntity
  8
DIM
 62
5
370
9
440
16777216
100
AcDbLine
 10
1775.3932076595956
 20
350.9963540391691
 30
0.0
 11
1355.3932076595956
 21
350.9963540391691
 31
0.0
  0
LINE
  5
542
330
53C
100
AcDbEntity
  8
0
  6
ByBlock
 62
0
370
-2
100
AcDbLine
 10
1772.8932076595956
 20
348.4963540391691
 30
0.0
 11
1777.8932076595956
 21
353.4963540391691
 31
0.0
  0
LINE
  5
543
330
53C
100
AcDbEntity
  8
0
  6
ByBlock
 62
0
370
-2
100
AcDbLine
 10
1357.8932076595956
 20
353.4963540391691
 30
0.0
 11
1352.8932076595956
 21
348.4963540391691
 31
0.0
  0
MTEXT
  5
544
330
53C
100
AcDbEntity
  8
DIM
 62
3
440
16777216
100
AcDbMText
 10
1565.3932076595956
 20
363.65494885500084
 30
0.0
 40
15.0
 41
0.0
 46
0.0
 71
5
  1
420
  0
POINT
  5
545
330
53C
100
AcDbEntity
  8
Defpoints
 62
0
440
16777216
100
AcDbPoint
 10
1775.3932076595956
 20
392.066385679027
 30
0.0
  0
POINT
  5
546
330
53C
100
AcDbEntity
  8
Defpoints
 62
0
440
16777216
100
AcDbPoint
 10
1355.3932076595956
 20
392.066385679027
 30
0.0
  0
POINT
  5
547
330
53C
100
AcDbEntity
  8
Defpoints
 62
0
440
16777216
100
AcDbPoint
 10
1355.3932076595956
 20
350.9963540391691
 30
0.0
  0
ENDBLK
  5
53E
330
53C
100
AcDbEntity
  8
0
100
AcDbBlockEnd
  0
BLOCK
  5
549
330
548
100
AcDbEntity
  8
0
100
AcDbBlockBegin
  2
*D32
 70
1
 10
0.0
 20
0.0
 30
0.0
  3
*D32
  1

  0
LINE
  5
54B
330
548
100
AcDbEntity
  8
DIM
 62
5
370
9
440
16777216
100
AcDbLine
 10
1783.3932076595956
 20
472.066385679027
 30
0.0
 11
1817.2786510765
 21
472.066385679027
 31
0.0
  0
LINE
  5
54C
330
548
100
AcDbEntity
  8
DIM
 62
5
370
9
440
16777216
100
AcDbLine
 10
1783.3932076595956
 20
392.066385679027
 30
0.0
 11
1817.2786510765
 21
392.066385679027
 31
0.0
  0
LINE
  5
54D
330
548
100
AcDbEntity
  8
DIM
 62
5
370
9
440
16777216
100
AcDbLine
 10
1812.2786510765
 20
472.066385679027
 30
0.0
 11
1812.2786510765
 21
392.066385679027
 31
0.0
  0
LINE
  5
54E
330
548
100
AcDbEntity
  8
0
  6
ByBlock
 62
0
370
-2
100
AcDbLine
 10
1814.7786510765
 20
469.566385679027
 30
0.0
 11
1809.7786510765
 21
474.566385679027
 31
0.0
  0
LINE
  5
54F
330
548
100
AcDbEntity
  8
0
  6
ByBlock
 62
0
370
-2
100
AcDbLine
 10
1809.7786510765
 20
394.566385679027
 30
0.0
 11
1814.7786510765
 21
389.566385679027
 31
0.0
  0
MTEXT
  5
550
330
548
100
AcDbEntity
  8
DIM
 62
3
440
16777216
100
AcDbMText
 10
1799.6200562606973
 20
432.06638567904884
 30
0.0
 40
15.0
 41
0.0
 46
0.0
 71
5
  1
80
 11
1e-16
 21
1.0
 31
0.0
  0
POINT
  5
551
330
548
100
AcDbEntity
  8
Defpoints
 62
0
440
16777216
100
AcDbPoint
 10
1775.3932076595956
 20
472.066385679027
 30
0.0
  0
POINT
  5
552
330
548
100
AcDbEntity
  8
Defpoints
 62
0
440
16777216
100
AcDbPoint
 10
1775.3932076595956
 20
392.066385679027
 30
0.0
  0
POINT
  5
553
330
548
100
AcDbEntity
  8
Defpoints
 62
0
440
16777216
100
AcDbPoint
 10
1812.2786510765
 20
392.066385679027
 30
0.0
  0
ENDBLK
  5
54A
330
548
100
AcDbEntity
  8
0
100
AcDbBlockEnd
  0
BLOCK
  5
555
330
554
100
AcDbEntity
  8
0
100
AcDbBlockBegin
  2
*D33
 70
1
 10
0.0
 20
0.0
 30
0.0
  3
*D33
  1

  0
LINE
  5
557
330
554
100
AcDbEntity
  8
DIM
 62
5
370
9
440
16777216
100
AcDbLine
 10
1347.3932076595956
 20
457.066385679027
 30
0.0
 11
1317.9717675134016
 21
457.066385679027
 31
0.0
  0
LINE
  5
558
330
554
100
AcDbEntity
  8
DIM
 62
5
370
9
440
16777216
100
AcDbLine
 10
1347.3932076595956
 20
407.066385679027
 30
0.0
 11
1317.9717675134016
 21
407.066385679027
 31
0.0
  0
LINE
  5
559
330
554
100
AcDbEntity
  8
DIM
 62
5
370
9
440
16777216
100
AcDbLine
 10
1322.9717675134016
 20
457.066385679027
 30
0.0
 11
1322.9717675134016
 21
407.066385679027
 31
0.0
  0
LINE
  5
55A
330
554
100
AcDbEntity
  8
0
  6
ByBlock
 62
0
370
-2
100
AcDbLine
 10
1325.4717675134016
 20
454.566385679027
 30
0.0
 11
1320.4717675134016
 21
459.566385679027
 31
0.0
  0
LINE
  5
55B
330
554
100
AcDbEntity
  8
0
  6
ByBlock
 62
0
370
-2
100
AcDbLine
 10
1320.4717675134016
 20
409.566385679027
 30
0.0
 11
1325.4717675134016
 21
404.566385679027
 31
0.0
  0
MTEXT
  5
55C
330
554
100
AcDbEntity
  8
DIM
 62
3
440
16777216
100
AcDbMText
 10
1310.313172697599
 20
432.06638567904884
 30
0.0
 40
15.0
 41
0.0
 46
0.0
 71
5
  1
50
 11
1e-16
 21
1.0
 31
0.0
  0
POINT
  5
55D
330
554
100
AcDbEntity
  8
Defpoints
 62
0
440
16777216
100
AcDbPoint
 10
1355.3932076595956
 20
457.066385679027
 30
0.0
  0
POINT
  5
55E
330
554
100
AcDbEntity
  8
Defpoints
 62
0
440
16777216
100
AcDbPoint
 10
1355.3932076595956
 20
407.066385679027
 30
0.0
  0
POINT
  5
55F
330
554
100
AcDbEntity
  8
Defpoints
 62
0
440
16777216
100
AcDbPoint
 10
1322.9717675134016
 20
407.066385679027
 30
0.0
  0
ENDBLK
  5
556
330
554
100
AcDbEntity
  8
0
100
AcDbBlockEnd
  0
BLOCK
  5
561
330
560
100
AcDbEntity
  8
0
100
AcDbBlockBegin
  2
*D34
 70
1
 10
0.0
 20
0.0
 30
0.0
  3
*D34
  1

  0
LINE
  5
563
330
560
100
AcDbEntity
  8
DIM
 62
5
370
9
440
16777216
100
AcDbLine
 10
1347.3932076595956
 20
457.066385679027
 30
0.0
 11
1317.9717675134016
 21
457.066385679027
 31
0.0
  0
LINE
  5
564
330
560
100
AcDbEntity
  8
DIM
 62
5
370
9
440
16777216
100
AcDbLine
 10
1347.3932076595956
 20
472.066385679027
 30
0.0
 11
1317.9717675134016
 21
472.066385679027
 31
0.0
  0
LINE
  5
565
330
560
100
AcDbEntity
  8
DIM
 62
5
370
9
440
16777216
100
AcDbLine
 10
1322.9717675134016
 20
457.066385679027
 30
0.0
 11
1322.9717675134016
 21
472.066385679027
 31
0.0
  0
LINE
  5
566
330
560
100
AcDbEntity
  8
DIM
 62
5
370
9
440
16777216
100
AcDbLine
 10
1322.9717675134016
 20
472.066385679027
 30
0.0
 11
1322.9717675134016
 21
507.2539709450575
 31
0.0
  0
LINE
  5
567
330
560
100
AcDbEntity
  8
0
  6
ByBlock
 62
0
370
-2
100
AcDbLine
 10
1320.4717675134016
 20
459.566385679027
 30
0.0
 11
1325.4717675134016
 21
454.566385679027
 31
0.0
  0
LINE
  5
568
330
560
100
AcDbEntity
  8
0
  6
ByBlock
 62
0
370
-2
100
AcDbLine
 10
1325.4717675134016
 20
469.566385679027
 30
0.0
 11
1320.4717675134016
 21
474.566385679027
 31
0.0
  0
MTEXT
  5
569
330
560
100
AcDbEntity
  8
DIM
 62
3
440
16777216
100
AcDbMText
 10
1310.313172697599
 20
492.1601783120568
 30
0.0
 40
15.0
 41
0.0
 46
0.0
 71
5
  1
15
 11
1e-16
 21
1.0
 31
0.0
  0
POINT
  5
56A
330
560
100
AcDbEntity
  8
Defpoints
 62
0
440
16777216
100
AcDbPoint
 10
1355.3932076595956
 20
457.066385679027
 30
0.0
  0
POINT
  5
56B
330
560
100
AcDbEntity
  8
Defpoints
 62
0
440
16777216
100
AcDbPoint
 10
1355.3932076595956
 20
472.066385679027
 30
0.0
  0
POINT
  5
56C
330
560
100
AcDbEntity
  8
Defpoints
 62
0
440
16777216
100
AcDbPoint
 10
1322.9717675134016
 20
472.066385679027
 30
0.0
  0
ENDBLK
  5
562
330
560
100
AcDbEntity
  8
0
100
AcDbBlockEnd
  0
BLOCK
  5
56E
330
56D
100
AcDbEntity
  8
0
100
AcDbBlockBegin
  2
*D35
 70
1
 10
0.0
 20
0.0
 30
0.0
  3
*D35
  1

  0
LINE
  5
570
330
56D
100
AcDbEntity
  8
DIM
 62
5
370
9
440
16777216
100
AcDbLine
 10
1347.3932076595956
 20
407.066385679027
 30
0.0
 11
1317.9717675134016
 21
407.066385679027
 31
0.0
  0
LINE
  5
571
330
56D
100
AcDbEntity
  8
DIM
 62
5
370
9
440
16777216
100
AcDbLine
 10
1347.3932076595956
 20
392.066385679027
 30
0.0
 11
1317.9717675134016
 21
392.066385679027
 31
0.0
  0
LINE
  5
572
330
56D
100
AcDbEntity
  8
DIM
 62
5
370
9
440
16777216
100
AcDbLine
 10
1322.9717675134016
 20
407.066385679027
 30
0.0
 11
1322.9717675134016
 21
392.066385679027
 31
0.0
  0
LINE
  5
573
330
56D
100
AcDbEntity
  8
DIM
 62
5
370
9
440
16777216
100
AcDbLine
 10
1322.9717675134016
 20
392.066385679027
 30
0.0
 11
1322.9717675134016
 21
356.8788004129965
 31
0.0
  0
LINE
  5
574
330
56D
100
AcDbEntity
  8
0
  6
ByBlock
 62
0
370
-2
100
AcDbLine
 10
1325.4717675134016
 20
404.566385679027
 30
0.0
 11
1320.4717675134016
 21
409.566385679027
 31
0.0
  0
LINE
  5
575
330
56D
100
AcDbEntity
  8
0
  6
ByBlock
 62
0
370
-2
100
AcDbLine
 10
1320.4717675134016
 20
394.566385679027
 30
0.0
 11
1325.4717675134016
 21
389.566385679027
 31
0.0
  0
MTEXT
  5
576
330
56D
100
AcDbEntity
  8
DIM
 62
3
440
16777216
100
AcDbMText
 10
1310.313172697599
 20
371.9725930460263
 30
0.0
 40
15.0
 41
0.0
 46
0.0
 71
5
  1
15
 11
1e-16
 21
1.0
 31
0.0
  0
POINT
  5
577
330
56D
100
AcDbEntity
  8
Defpoints
 62
0
440
16777216
100
AcDbPoint
 10
1355.3932076595956
 20
407.066385679027
 30
0.0
  0
POINT
  5
578
330
56D
100
AcDbEntity
  8
Defpoints
 62
0
440
16777216
100
AcDbPoint
 10
1355.3932076595956
 20
392.066385679027
 30
0.0
  0
POINT
  5
579
330
56D
100
AcDbEntity
  8
Defpoints
 62
0
440
16777216
100
AcDbPoint
 10
1322.9717675134016
 20
392.066385679027
 30
0.0
  0
ENDBLK
  5
56F
330
56D
100
AcDbEntity
  8
0
100
AcDbBlockEnd
  0
BLOCK
  5
57B
330
57A
100
AcDbEntity
  8
0
100
AcDbBlockBegin
  2
*D36
 70
1
 10
0.0
 20
0.0
 30
0.0
  3
*D36
  1

  0
LINE
  5
57D
330
57A
100
AcDbEntity
  8
DIM
 62
5
370
9
440
16777216
100
AcDbLine
 10
449.75685433069884
 20
757.1254886842144
 30
0.0
 11
387.3427016946953
 21
757.1254886842144
 31
0.0
  0
LINE
  5
57E
330
57A
100
AcDbEntity
  8
DIM
 62
5
370
9
440
16777216
100
AcDbLine
 10
453.756854330597
 20
767.1254886842144
 30
0.0
 11
387.3427016946953
 21
767.1254886842144
 31
0.0
  0
LINE
  5
57F
330
57A
100
AcDbEntity
  8
DIM
 62
5
370
9
440
16777216
100
AcDbLine
 10
397.3427016946953
 20
757.1254886842144
 30
0.0
 11
397.3427016946953
 21
749.1254886842144
 31
0.0
  0
LINE
  5
580
330
57A
100
AcDbEntity
  8
DIM
 62
5
370
9
440
16777216
100
AcDbLine
 10
397.3427016946953
 20
767.1254886842144
 30
0.0
 11
397.3427016946953
 21
836.4986128315577
 31
0.0
  0
LINE
  5
581
330
57A
100
AcDbEntity
  8
DIM
 62
5
370
9
440
16777216
100
AcDbLine
 10
397.3427016946953
 20
757.1254886842144
 30
0.0
 11
397.3427016946953
 21
767.1254886842144
 31
0.0
  0
LINE
  5
582
330
57A
100
AcDbEntity
  8
0
  6
ByBlock
 62
0
370
-2
100
AcDbLine
 10
401.3427016946953
 20
753.1254886842144
 30
0.0
 11
393.3427016946953
 21
761.1254886842144
 31
0.0
  0
LINE
  5
583
330
57A
100
AcDbEntity
  8
0
  6
ByBlock
 62
0
370
-2
100
AcDbLine
 10
393.3427016946953
 20
771.1254886842144
 30
0.0
 11
401.3427016946953
 21
763.1254886842144
 31
0.0
  0
MTEXT
  5
584
330
57A
100
AcDbEntity
  8
DIM
 62
3
440
16777216
100
AcDbMText
 10
374.5783770017006
 20
809.8120507579079
 30
0.0
 40
25.0
 41
0.0
 46
0.0
 71
5
  1
10
 11
1e-16
 21
1.0
 31
0.0
  0
POINT
  5
585
330
57A
100
AcDbEntity
  8
Defpoints
 62
0
440
16777216
100
AcDbPoint
 10
464.75685433069884
 20
757.1254886842144
 30
0.0
  0
POINT
  5
586
330
57A
100
AcDbEntity
  8
Defpoints
 62
0
440
16777216
100
AcDbPoint
 10
468.75685433069884
 20
767.1254886842144
 30
0.0
  0
POINT
  5
587
330
57A
100
AcDbEntity
  8
Defpoints
 62
0
440
16777216
100
AcDbPoint
 10
397.3427016946953
 20
767.1254886842144
 30
0.0
  0
ENDBLK
  5
57C
330
57A
100
AcDbEntity
  8
0
100
AcDbBlockEnd
  0
BLOCK
  5
589
330
588
100
AcDbEntity
  8
0
100
AcDbBlockBegin
  2
*D37
 70
1
 10
0.0
 20
0.0
 30
0.0
  3
*D37
  1

  0
LINE
  5
58B
330
588
100
AcDbEntity
  8
DIM
 62
5
370
9
440
16777216
100
AcDbLine
 10
3453.5923565767007
 20
2724.702107435478
 30
0.0
 11
3498.298768546796
 21
2724.702107435478
 31
0.0
  0
LINE
  5
58C
330
588
100
AcDbEntity
  8
DIM
 62
5
370
9
440
16777216
100
AcDbLine
 10
3453.5923565767007
 20
1243.202107435478
 30
0.0
 11
3498.298768546796
 21
1243.202107435478
 31
0.0
  0
LINE
  5
58D
330
588
100
AcDbEntity
  8
DIM
 62
5
370
9
440
16777216
100
AcDbLine
 10
3493.298768546796
 20
2724.702107435478
 30
0.0
 11
3493.298768546796
 21
1243.202107435478
 31
0.0
  0
LINE
  5
58E
330
588
100
AcDbEntity
  8
0
  6
ByBlock
 62
0
370
-2
100
AcDbLine
 10
3495.798768546796
 20
2722.202107435478
 30
0.0
 11
3490.798768546796
 21
2727.202107435478
 31
0.0
  0
LINE
  5
58F
330
588
100
AcDbEntity
  8
0
  6
ByBlock
 62
0
370
-2
100
AcDbLine
 10
3490.798768546796
 20
1245.702107435478
 30
0.0
 11
3495.798768546796
 21
1240.702107435478
 31
0.0
  0
MTEXT
  5
590
330
588
100
AcDbEntity
  8
DIM
 62
3
440
16777216
100
AcDbMText
 10
3480.6401737309934
 20
1983.9521074354852
 30
0.0
 40
15.0
 41
0.0
 46
0.0
 71
5
  1
1482
 11
1e-16
 21
1.0
 31
0.0
  0
POINT
  5
591
330
588
100
AcDbEntity
  8
Defpoints
 62
0
440
16777216
100
AcDbPoint
 10
3445.5923565767007
 20
2724.702107435478
 30
0.0
  0
POINT
  5
592
330
588
100
AcDbEntity
  8
Defpoints
 62
0
440
16777216
100
AcDbPoint
 10
3445.5923565767007
 20
1243.202107435478
 30
0.0
  0
POINT
  5
593
330
588
100
AcDbEntity
  8
Defpoints
 62
0
440
16777216
100
AcDbPoint
 10
3493.298768546796
 20
1243.202107435478
 30
0.0
  0
ENDBLK
  5
58A
330
588
100
AcDbEntity
  8
0
100
AcDbBlockEnd
  0
BLOCK
  5
595
330
594
100
AcDbEntity
  8
0
100
AcDbBlockBegin
  2
*D38
 70
1
 10
0.0
 20
0.0
 30
0.0
  3
*D38
  1

  0
LINE
  5
597
330
594
100
AcDbEntity
  8
DIM
 62
5
370
9
440
16777216
100
AcDbLine
 10
3365.5923565767007
 20
1235.202107435478
 30
0.0
 11
3365.5923565767007
 21
1189.4272479000865
 31
0.0
  0
LINE
  5
598
330
594
100
AcDbEntity
  8
DIM
 62
5
370
9
440
16777216
100
AcDbLine
 10
3445.5923565767007
 20
1235.202107435478
 30
0.0
 11
3445.5923565767007
 21
1189.4272479000865
 31
0.0
  0
LINE
  5
599
330
594
100
AcDbEntity
  8
DIM
 62
5
370
9
440
16777216
100
AcDbLine
 10
3365.5923565767007
 20
1194.4272479000865
 30
0.0
 11
3445.5923565767007
 21
1194.4272479000865
 31
0.0
  0
LINE
  5
59A
330
594
100
AcDbEntity
  8
0
  6
ByBlock
 62
0
370
-2
100
AcDbLine
 10
3368.0923565767007
 20
1196.9272479000865
 30
0.0
 11
3363.0923565767007
 21
1191.9272479000865
 31
0.0
  0
LINE
  5
59B
330
594
100
AcDbEntity
  8
0
  6
ByBlock
 62
0
370
-2
100
AcDbLine
 10
3443.0923565767007
 20
1191.9272479000865
 30
0.0
 11
3448.0923565767007
 21
1196.9272479000865
 31
0.0
  0
MTEXT
  5
59C
330
594
100
AcDbEntity
  8
DIM
 62
3
440
16777216
100
AcDbMText
 10
3405.5923565767007
 20
1207.0858427159183
 30
0.0
 40
15.0
 41
0.0
 46
0.0
 71
5
  1
80
  0
POINT
  5
59D
330
594
100
AcDbEntity
  8
Defpoints
 62
0
440
16777216
100
AcDbPoint
 10
3365.5923565767007
 20
1243.202107435478
 30
0.0
  0
POINT
  5
59E
330
594
100
AcDbEntity
  8
Defpoints
 62
0
440
16777216
100
AcDbPoint
 10
3445.5923565767007
 20
1243.202107435478
 30
0.0
  0
POINT
  5
59F
330
594
100
AcDbEntity
  8
Defpoints
 62
0
440
16777216
100
AcDbPoint
 10
3445.5923565767007
 20
1194.4272479000865
 30
0.0
  0
ENDBLK
  5
596
330
594
100
AcDbEntity
  8
0
100
AcDbBlockEnd
  0
ENDSEC
  0
SECTION
  2
ENTITIES
  0
LWPOLYLINE
  5
2F
330
17
100
AcDbEntity
  8
0
 62
7
100
AcDbPolyline
 90
4
 70
0
 10
818.8812714964006
 20
2692.452107435478
 10
830.8812714964006
 20
2692.452107435478
 10
830.8812714964006
 20
1275.4521074354852
 10
818.8812714964006
 20
1275.4521074354852
  0
LWPOLYLINE
  5
30
330
17
100
AcDbEntity
  8
0
 62
7
100
AcDbPolyline
 90
2
 70
0
 10
778.8812714964006
 20
1235.452107435478
 10
363.8812714964006
 20
1235.452107435478
  0
LWPOLYLINE
  5
31
330
17
100
AcDbEntity
  8
0
 62
7
100
AcDbPolyline
 90
2
 70
0
 10
363.8812714964006
 20
2732.452107435478
 10
778.8812714964006
 20
2732.452107435478
  0
LINE
  5
32
330
17
100
AcDbEntity
  8
0
 62
7
100
AcDbLine
 10
818.8812714964006
 20
2692.452107435478
 30
0.0
 11
818.8812714964006
 21
1275.4521074354852
 31
0.0
  0
LINE
  5
33
330
17
100
AcDbEntity
  8
0
 62
7
100
AcDbLine
 10
778.8812714964006
 20
2732.452107435478
 30
0.0
 11
778.8812714964006
 21
1235.452107435478
 31
0.0
  0
LINE
  5
34
330
17
100
AcDbEntity
  8
0
 62
7
100
AcDbLine
 10
408.8812714964006
 20
2732.452107435478
 30
0.0
 11
408.8812714964006
 21
1235.452107435478
 31
0.0
  0
LINE
  5
35
330
17
100
AcDbEntity
  8
0
 62
7
100
AcDbLine
 10
363.8812714964006
 20
2732.452107435478
 30
0.0
 11
363.8812714964006
 21
1235.452107435478
 31
0.0
  0
LINE
  5
36
330
17
100
AcDbEntity
  8
0
 62
7
100
AcDbLine
 10
373.8812714964006
 20
2732.452107435478
 30
0.0
 11
373.8812714964006
 21
1235.452107435478
 31
0.0
  0
DIMENSION
  5
37
330
17
100
AcDbEntity
  8
DIM
 62
7
100
AcDbDimension
280
0
  2
*D1
  3
Dim-25
 10
778.8812714964006
 20
2799.866260071438
 30
0.0
 11
643.8812714964006
 21
2799.866260071438
 31
0.0
 70
160
 71
5
 42
370.0
 73
0
 74
0
 75
0
100
AcDbAlignedDimension
 13
408.8812714964006
 23
2732.452107435478
 33
0.0
 14
778.8812714964006
 24
2732.452107435478
 34
0.0
 50
0.0
100
AcDbRotatedDimension
  0
DIMENSION
  5
3C
330
17
100
AcDbEntity
  8
DIM
 62
7
100
AcDbDimension
280
0
  2
*D2
  3
Dim-25
 10
818.8812714964006
 20
2799.866260071438
 30
0.0
 11
798.8812714964006
 21
2799.866260071438
 31
0.0
 70
160
 71
5
 42
40.0
 73
0
 74
0
 75
0
100
AcDbAlignedDimension
 13
778.8812714964006
 23
2732.452107435478
 33
0.0
 14
818.8812714964006
 24
2692.452107435478
 34
0.0
 50
0.0
100
AcDbRotatedDimension
  0
DIMENSION
  5
3D
330
17
100
AcDbEntity
  8
DIM
 62
7
100
AcDbDimension
280
0
  2
*D3
  3
Dim-25
 10
830.8812714964006
 20
2799.866260071438
 30
0.0
 11
873.4825675400934
 21
2822.4174196894455
 31
0.0
 70
32
 71
5
 42
12.0
 73
0
 74
0
 75
0
100
AcDbAlignedDimension
 13
818.8812714964006
 23
2692.452107435478
 33
0.0
 14
830.8812714964006
 24
2692.452107435478
 34
0.0
 50
0.0
100
AcDbRotatedDimension
  0
LINE
  5
3E
330
17
100
AcDbEntity
  8
0
 62
7
100
AcDbLine
 10
778.8812714964006
 20
1235.452107435478
 30
0.0
 11
818.8812714964006
 21
1275.4521074354852
 31
0.0
  0
LINE
  5
3F
330
17
100
AcDbEntity
  8
0
 62
7
100
AcDbLine
 10
778.8812714964006
 20
2732.452107435478
 30
0.0
 11
818.8812714964006
 21
2692.452107435478
 31
0.0
  0
DIMENSION
  5
40
330
17
100
AcDbEntity
  8
DIM
 62
7
100
AcDbDimension
280
0
  2
*D4
  3
Dim-25
 10
830.8812714964006
 20
1169.2259883756997
 30
0.0
 11
597.3812714964006
 21
1191.9903130687453
 31
0.0
 70
32
 71
5
 42
467.0
 73
0
 74
0
 75
0
100
AcDbAlignedDimension
 13
363.8812714964006
 23
1235.452107435478
 33
0.0
 14
830.8812714964006
 24
1275.4521074354852
 34
0.0
 50
0.0
100
AcDbRotatedDimension
  0
LINE
  5
41
330
17
100
AcDbEntity
  8
0
 62
7
100
AcDbLine
 10
408.8812714964006
 20
1092.4585013360847
 30
0.0
 11
778.8812714964006
 21
1092.4585013360847
 31
0.0
  0
LINE
  5
42
330
17
100
AcDbEntity
  8
0
 62
7
100
AcDbLine
 10
778.8812714964006
 20
1092.4585013360847
 30
0.0
 11
778.8812714964006
 21
1122.4585013360847
 31
0.0
  0
LINE
  5
43
330
17
100
AcDbEntity
  8
0
 62
7
100
AcDbLine
 10
778.8812714964006
 20
1122.4585013360847
 30
0.0
 11
766.8812714964006
 21
1122.4585013360847
 31
0.0
  0
LINE
  5
44
330
17
100
AcDbEntity
  8
0
 62
7
100
AcDbLine
 10
408.8812714964006
 20
1092.4585013360847
 30
0.0
 11
408.8812714964006
 21
1122.4585013360847
 31
0.0
  0
LINE
  5
45
330
17
100
AcDbEntity
  8
0
 62
7
100
AcDbLine
 10
408.8812714964006
 20
1122.4585013360847
 30
0.0
 11
418.8812714964006
 21
1122.4585013360847
 31
0.0
  0
DIMENSION
  5
46
330
17
100
AcDbEntity
  8
DIM
 62
7
100
AcDbDimension
280
0
  2
*D5
  3
Dim-25
 10
373.8812714964006
 20
2799.866260071438
 30
0.0
 11
391.3812714964006
 21
2799.866260071438
 31
0.0
 70
160
 71
5
 42
35.0
 73
0
 74
0
 75
0
100
AcDbAlignedDimension
 13
408.8812714964006
 23
2732.452107435478
 33
0.0
 14
373.8812714964006
 24
2732.452107435478
 34
0.0
 50
0.0
100
AcDbRotatedDimension
  0
DIMENSION
  5
47
330
17
100
AcDbEntity
  8
DIM
 62
7
100
AcDbDimension
280
0
  2
*D6
  3
Dim-25
 10
363.8812714964006
 20
2799.866260071438
 30
0.0
 11
321.1947094227944
 21
2822.630584764491
 31
0.0
 70
32
 71
5
 42
10.0
 73
0
 74
0
 75
0
100
AcDbAlignedDimension
 13
373.8812714964006
 23
2732.452107435478
 33
0.0
 14
363.8812714964006
 24
2732.452107435478
 34
0.0
 50
0.0
100
AcDbRotatedDimension
  0
INSERT
  5
48
330
17
100
AcDbEntity
  8
0
370
-3
100
AcDbBlockReference
  2
f3daunguoc
 10
373.8812714964006
 20
2717.452107435478
 30
0.0
 41
-1.0
 50
180.0
  0
INSERT
  5
4A
330
17
100
AcDbEntity
  8
0
370
-3
100
AcDbBlockReference
  2
f3daunguoc
 10
408.8812714964006
 20
2717.452107435478
 30
0.0
 41
-1.0
 50
180.0
  0
INSERT
  5
4C
330
17
100
AcDbEntity
  8
0
370
-3
100
AcDbBlockReference
  2
f3daunguoc
 10
778.8812714964006
 20
2717.452107435478
 30
0.0
 41
-1.0
 50
180.0
  0
INSERT
  5
4E
330
17
100
AcDbEntity
  8
0
370
-3
100
AcDbBlockReference
  2
f3daunguoc
 10
818.8812714964006
 20
2677.4521074354852
 30
0.0
 41
-1.0
 50
180.0
  0
INSERT
  5
50
330
17
100
AcDbEntity
  8
0
370
-3
100
AcDbBlockReference
  2
f3daunguoc
 10
373.8812714964006
 20
1250.452107435478
 30
0.0
  0
INSERT
  5
52
330
17
100
AcDbEntity
  8
0
370
-3
100
AcDbBlockReference
  2
f3daunguoc
 10
408.8812714964006
 20
1250.452107435478
 30
0.0
  0
INSERT
  5
54
330
17
100
AcDbEntity
  8
0
370
-3
100
AcDbBlockReference
  2
f3daunguoc
 10
778.8812714964006
 20
1250.452107435478
 30
0.0
  0
INSERT
  5
56
330
17
100
AcDbEntity
  8
0
370
-3
100
AcDbBlockReference
  2
f3daunguoc
 10
818.8812714964006
 20
1290.4521074354852
 30
0.0
  0
DIMENSION
  5
58
330
17
100
AcDbEntity
  8
DIM
 62
7
 48
3.0
100
AcDbDimension
280
0
  2
*D7
  3
Dim-25
 10
293.2551638704026
 20
1235.452107435478
 30
0.0
 11
270.49083917730604
 21
1983.9521074354852
 31
0.0
 70
32
 71
5
 42
1497.0
 73
0
 74
0
 75
0
100
AcDbAlignedDimension
 13
363.8812714964006
 23
2732.452107435478
 33
0.0
 14
363.8812714964006
 24
1235.452107435478
 34
0.0
 50
90.0
100
AcDbRotatedDimension
  0
MTEXT
  5
59
330
17
100
AcDbEntity
  8
0
 62
2
100
AcDbMText
 10
542.4858347325062
 20
1040.2967239344362
 30
0.0
 40
25.0
 41
1072.000000000014
 46
100.0000000000031
 71
5
 72
5
  1
Thành trái : 1 tấm
  0
LWPOLYLINE
  5
5A
330
17
100
AcDbEntity
  8
0
 62
7
100
AcDbPolyline
 90
4
 70
0
 10
1631.577489441901
 20
2692.452107435478
 10
1619.577489441901
 20
2692.452107435478
 10
1619.577489441901
 20
1275.4521074354852
 10
1631.577489441901
 20
1275.4521074354852
  0
LWPOLYLINE
  5
5B
330
17
100
AcDbEntity
  8
0
 62
7
100
AcDbPolyline
 90
2
 70
0
 10
1671.577489441901
 20
1235.452107435478
 10
2086.577489441901
 20
1235.452107435478
  0
LWPOLYLINE
  5
5C
330
17
100
AcDbEntity
  8
0
 62
7
100
AcDbPolyline
 90
2
 70
0
 10
2086.577489441901
 20
2732.452107435478
 10
1671.577489441901
 20
2732.452107435478
  0
LINE
  5
5D
330
17
100
AcDbEntity
  8
0
 62
7
100
AcDbLine
 10
1631.577489441901
 20
2692.452107435478
 30
0.0
 11
1631.577489441901
 21
1275.4521074354852
 31
0.0
  0
LINE
  5
5E
330
17
100
AcDbEntity
  8
0
 62
7
100
AcDbLine
 10
1671.577489441901
 20
2732.452107435478
 30
0.0
 11
1671.577489441901
 21
1235.452107435478
 31
0.0
  0
LINE
  5
5F
330
17
100
AcDbEntity
  8
0
 62
7
100
AcDbLine
 10
2041.577489441901
 20
2732.452107435478
 30
0.0
 11
2041.577489441901
 21
1235.452107435478
 31
0.0
  0
LINE
  5
60
330
17
100
AcDbEntity
  8
0
 62
7
100
AcDbLine
 10
2086.577489441901
 20
2732.452107435478
 30
0.0
 11
2086.577489441901
 21
1235.452107435478
 31
0.0
  0
LINE
  5
61
330
17
100
AcDbEntity
  8
0
 62
7
100
AcDbLine
 10
2076.577489441901
 20
2732.452107435478
 30
0.0
 11
2076.577489441901
 21
1235.452107435478
 31
0.0
  0
DIMENSION
  5
62
330
17
100
AcDbEntity
  8
DIM
 62
7
100
AcDbDimension
280
0
  2
*D8
  3
Dim-25
 10
1671.577489441901
 20
2799.866260071438
 30
0.0
 11
1806.577489441901
 21
2799.866260071438
 31
0.0
 70
160
 71
5
 42
370.0
 73
0
 74
0
 75
0
100
AcDbAlignedDimension
 13
2041.577489441901
 23
2732.452107435478
 33
0.0
 14
1671.577489441901
 24
2732.452107435478
 34
0.0
 50
180.0
100
AcDbRotatedDimension
  0
DIMENSION
  5
63
330
17
100
AcDbEntity
  8
DIM
 62
7
100
AcDbDimension
280
0
  2
*D9
  3
Dim-25
 10
1631.577489441901
 20
2799.866260071438
 30
0.0
 11
1651.577489441901
 21
2799.866260071438
 31
0.0
 70
160
 71
5
 42
40.0
 73
0
 74
0
 75
0
100
AcDbAlignedDimension
 13
1671.577489441901
 23
2732.452107435478
 33
0.0
 14
1631.577489441901
 24
2692.452107435478
 34
0.0
 50
180.0
100
AcDbRotatedDimension
  0
DIMENSION
  5
64
330
17
100
AcDbEntity
  8
DIM
 62
7
100
AcDbDimension
280
0
  2
*D10
  3
Dim-25
 10
1619.577489441901
 20
2799.866260071438
 30
0.0
 11
1576.9761933982954
 21
2822.4174196894455
 31
0.0
 70
32
 71
5
 42
12.0
 73
0
 74
0
 75
0
100
AcDbAlignedDimension
 13
1631.577489441901
 23
2692.452107435478
 33
0.0
 14
1619.577489441901
 24
2692.452107435478
 34
0.0
 50
180.0
100
AcDbRotatedDimension
  0
LINE
  5
65
330
17
100
AcDbEntity
  8
0
 62
7
100
AcDbLine
 10
1671.577489441901
 20
1235.452107435478
 30
0.0
 11
1631.577489441901
 21
1275.4521074354852
 31
0.0
  0
LINE
  5
66
330
17
100
AcDbEntity
  8
0
 62
7
100
AcDbLine
 10
1671.577489441901
 20
2732.452107435478
 30
0.0
 11
1631.577489441901
 21
2692.452107435478
 31
0.0
  0
DIMENSION
  5
67
330
17
100
AcDbEntity
  8
DIM
 62
7
100
AcDbDimension
280
0
  2
*D11
  3
Dim-25
 10
1619.577489441901
 20
1169.2259883756997
 30
0.0
 11
1853.077489441901
 21
1191.9903130687453
 31
0.0
 70
32
 71
5
 42
467.0
 73
0
 74
0
 75
0
100
AcDbAlignedDimension
 13
2086.577489441901
 23
1235.452107435478
 33
0.0
 14
1619.577489441901
 24
1275.4521074354852
 34
0.0
 50
180.0
100
AcDbRotatedDimension
  0
LINE
  5
68
330
17
100
AcDbEntity
  8
0
 62
7
100
AcDbLine
 10
2041.577489441901
 20
1092.4585013360847
 30
0.0
 11
1671.577489441901
 21
1092.4585013360847
 31
0.0
  0
LINE
  5
69
330
17
100
AcDbEntity
  8
0
 62
7
100
AcDbLine
 10
1671.577489441901
 20
1092.4585013360847
 30
0.0
 11
1671.577489441901
 21
1122.4585013360847
 31
0.0
  0
LINE
  5
6A
330
17
100
AcDbEntity
  8
0
 62
7
100
AcDbLine
 10
1671.577489441901
 20
1122.4585013360847
 30
0.0
 11
1683.577489441901
 21
1122.4585013360847
 31
0.0
  0
LINE
  5
6B
330
17
100
AcDbEntity
  8
0
 62
7
100
AcDbLine
 10
2041.577489441901
 20
1092.4585013360847
 30
0.0
 11
2041.577489441901
 21
1122.4585013360847
 31
0.0
  0
LINE
  5
6C
330
17
100
AcDbEntity
  8
0
 62
7
100
AcDbLine
 10
2041.577489441901
 20
1122.4585013360847
 30
0.0
 11
2031.577489441901
 21
1122.4585013360847
 31
0.0
  0
DIMENSION
  5
6D
330
17
100
AcDbEntity
  8
DIM
 62
7
100
AcDbDimension
280
0
  2
*D12
  3
Dim-25
 10
2076.577489441901
 20
2799.866260071438
 30
0.0
 11
2059.077489441901
 21
2799.866260071438
 31
0.0
 70
160
 71
5
 42
35.0
 73
0
 74
0
 75
0
100
AcDbAlignedDimension
 13
2041.577489441901
 23
2732.452107435478
 33
0.0
 14
2076.577489441901
 24
2732.452107435478
 34
0.0
 50
180.0
100
AcDbRotatedDimension
  0
DIMENSION
  5
6E
330
17
100
AcDbEntity
  8
DIM
 62
7
100
AcDbDimension
280
0
  2
*D13
  3
Dim-25
 10
2086.577489441901
 20
2799.866260071438
 30
0.0
 11
2129.2640515155945
 21
2822.630584764491
 31
0.0
 70
32
 71
5
 42
10.0
 73
0
 74
0
 75
0
100
AcDbAlignedDimension
 13
2076.577489441901
 23
2732.452107435478
 33
0.0
 14
2086.577489441901
 24
2732.452107435478
 34
0.0
 50
180.0
100
AcDbRotatedDimension
  0
INSERT
  5
6F
330
17
100
AcDbEntity
  8
0
370
-3
100
AcDbBlockReference
  2
f3daunguoc
 10
2076.577489441901
 20
2717.452107435478
 30
0.0
 50
180.0
  0
INSERT
  5
71
330
17
100
AcDbEntity
  8
0
370
-3
100
AcDbBlockReference
  2
f3daunguoc
 10
2041.577489441901
 20
2717.452107435478
 30
0.0
 50
180.0
  0
INSERT
  5
73
330
17
100
AcDbEntity
  8
0
370
-3
100
AcDbBlockReference
  2
f3daunguoc
 10
1671.577489441901
 20
2717.452107435478
 30
0.0
 50
180.0
  0
INSERT
  5
75
330
17
100
AcDbEntity
  8
0
370
-3
100
AcDbBlockReference
  2
f3daunguoc
 10
1631.577489441901
 20
2677.4521074354852
 30
0.0
 50
180.0
  0
INSERT
  5
77
330
17
100
AcDbEntity
  8
0
370
-3
100
AcDbBlockReference
  2
f3daunguoc
 10
2076.577489441901
 20
1250.452107435478
 30
0.0
 41
-1.0
  0
INSERT
  5
79
330
17
100
AcDbEntity
  8
0
370
-3
100
AcDbBlockReference
  2
f3daunguoc
 10
2041.577489441901
 20
1250.452107435478
 30
0.0
 41
-1.0
  0
INSERT
  5
7B
330
17
100
AcDbEntity
  8
0
370
-3
100
AcDbBlockReference
  2
f3daunguoc
 10
1671.577489441901
 20
1250.452107435478
 30
0.0
 41
-1.0
  0
INSERT
  5
7D
330
17
100
AcDbEntity
  8
0
370
-3
100
AcDbBlockReference
  2
f3daunguoc
 10
1631.577489441901
 20
1290.4521074354852
 30
0.0
 41
-1.0
  0
DIMENSION
  5
7F
330
17
100
AcDbEntity
  8
DIM
 62
7
 48
3.0
100
AcDbDimension
280
0
  2
*D14
  3
Dim-25
 10
2157.203597068001
 20
1235.452107435478
 30
0.0
 11
2134.439272375006
 21
1983.9521074354852
 31
0.0
 70
32
 71
5
 42
1497.0
 73
0
 74
0
 75
0
100
AcDbAlignedDimension
 13
2086.577489441901
 23
2732.452107435478
 33
0.0
 14
2086.577489441901
 24
1235.452107435478
 34
0.0
 50
90.0
100
AcDbRotatedDimension
  0
MTEXT
  5
80
330
17
100
AcDbEntity
  8
0
 62
2
100
AcDbMText
 10
1907.9729262058972
 20
1040.2967239344362
 30
0.0
 40
25.0
 41
1072.000000000014
 46
100.0000000000031
 71
5
 72
5
  1
Thành phải : 1 tấm
  0
LWPOLYLINE
  5
81
330
17
100
AcDbEntity
  8
0
 62
2
100
AcDbPolyline
 90
4
 70
1
 10
1651.577489441901
 20
2660.952107435478
 10
1665.577489441901
 20
2660.952107435478
 10
1665.577489441901
 20
2651.952107435478
 10
1651.577489441901
 20
2651.952107435478
  0
LWPOLYLINE
  5
82
330
17
100
AcDbEntity
  8
0
 62
2
100
AcDbPolyline
 90
4
 70
1
 10
1651.577489441901
 20
2635.9521074354852
 10
1665.577489441901
 20
2635.9521074354852
 10
1665.577489441901
 20
2626.9521074355
 10
1651.577489441901
 20
2626.9521074355
  0
LWPOLYLINE
  5
83
330
17
100
AcDbEntity
  8
0
 62
2
100
AcDbPolyline
 90
4
 70
1
 10
1651.577489441901
 20
1306.952107435478
 10
1665.577489441901
 20
1306.952107435478
 10
1665.577489441901
 20
1315.952107435478
 10
1651.577489441901
 20
1315.952107435478
  0
LWPOLYLINE
  5
84
330
17
100
AcDbEntity
  8
0
 62
2
100
AcDbPolyline
 90
4
 70
1
 10
1651.577489441901
 20
1331.9521074354707
 10
1665.577489441901
 20
1331.9521074354707
 10
1665.577489441901
 20
1340.9521074354707
 10
1651.577489441901
 20
1340.9521074354707
  0
LINE
  5
85
330
17
100
AcDbEntity
  8
0
 62
7
100
AcDbLine
 10
1022.108623129694
 20
2732.452107435478
 30
0.0
 11
1022.108623129694
 21
1235.452107435478
 31
0.0
  0
INSERT
  5
86
330
17
100
AcDbEntity
  8
0
370
-3
100
AcDbBlockReference
  2
f3daunguoc
 10
1022.108623129694
 20
2717.452107435478
 30
0.0
 41
-1.0
 50
180.0
  0
INSERT
  5
88
330
17
100
AcDbEntity
  8
0
370
-3
100
AcDbBlockReference
  2
f3daunguoc
 10
1022.108623129694
 20
1250.452107435478
 30
0.0
  0
LINE
  5
8A
330
17
100
AcDbEntity
  8
0
 62
7
100
AcDbLine
 10
1012.108623129694
 20
2732.452107435478
 30
0.0
 11
1012.108623129694
 21
1235.452107435478
 31
0.0
  0
LINE
  5
8B
330
17
100
AcDbEntity
  8
0
 62
7
100
AcDbLine
 10
1443.108623129694
 20
2732.452107435478
 30
0.0
 11
1443.108623129694
 21
1235.452107435478
 31
0.0
  0
INSERT
  5
8C
330
17
100
AcDbEntity
  8
0
370
-3
100
AcDbBlockReference
  2
f3daunguoc
 10
1443.108623129694
 20
2717.452107435478
 30
0.0
 41
-1.0
 50
180.0
  0
INSERT
  5
8E
330
17
100
AcDbEntity
  8
0
370
-3
100
AcDbBlockReference
  2
f3daunguoc
 10
1443.108623129694
 20
1250.452107435478
 30
0.0
  0
LINE
  5
90
330
17
100
AcDbEntity
  8
0
 62
7
100
AcDbLine
 10
1453.108623129694
 20
2732.452107435478
 30
0.0
 11
1453.108623129694
 21
1235.452107435478
 31
0.0
  0
LWPOLYLINE
  5
91
330
17
100
AcDbEntity
  8
0
 62
2
 48
3.0
100
AcDbPolyline
 90
4
 70
1
 10
1012.108623129694
 20
2732.452107435478
 10
1453.108623129694
 20
2732.452107435478
 10
1453.108623129694
 20
1235.452107435478
 10
1012.108623129694
 20
1235.452107435478
  0
DIMENSION
  5
92
330
17
100
AcDbEntity
  8
DIM
 62
2
 48
3.0
100
AcDbDimension
280
0
  2
*D15
  3
Dim-25
 10
1443.108623129694
 20
2799.6842859977987
 30
0.0
 11
1232.608623129694
 21
2822.2354456158064
 31
0.0
 70
32
 71
5
 42
421.0
 73
0
 74
0
 75
0
100
AcDbAlignedDimension
 13
1022.108623129694
 23
2732.452107435478
 33
0.0
 14
1443.108623129694
 24
2732.452107435478
 34
0.0
 50
0.0
100
AcDbRotatedDimension
  0
DIMENSION
  5
93
330
17
100
AcDbEntity
  8
DIM
 62
2
 48
3.0
100
AcDbDimension
280
0
  2
*D16
  3
Dim-25
 10
1453.108623129694
 20
2799.6842859977987
 30
0.0
 11
1495.795185203402
 21
2822.4486106908444
 31
0.0
 70
32
 71
5
 42
10.0
 73
0
 74
0
 75
0
100
AcDbAlignedDimension
 13
1443.108623129694
 23
2732.452107435478
 33
0.0
 14
1453.108623129694
 24
2732.452107435478
 34
0.0
 50
0.0
100
AcDbRotatedDimension
  0
DIMENSION
  5
94
330
17
100
AcDbEntity
  8
DIM
 62
2
 48
3.0
100
AcDbDimension
280
0
  2
*D17
  3
Dim-25
 10
939.1563351251971
 20
1235.452107435478
 30
0.0
 11
916.3920104322024
 21
1983.9521074354852
 31
0.0
 70
32
 71
5
 42
1497.0
 73
0
 74
0
 75
0
100
AcDbAlignedDimension
 13
1012.108623129694
 23
2732.452107435478
 33
0.0
 14
1012.108623129694
 24
1235.452107435478
 34
0.0
 50
90.0
100
AcDbRotatedDimension
  0
MTEXT
  5
95
330
17
100
AcDbEntity
  8
0
 62
2
100
AcDbMText
 10
1265.477430686602
 20
1128.1662550531255
 30
0.0
 40
25.0
 41
1072.000000000014
 46
100.0000000000031
 71
5
 72
5
  1
tấm lưng : 1 tấm 
  0
LWPOLYLINE
  5
96
330
17
100
AcDbEntity
  8
0
 62
7
100
AcDbPolyline
 90
4
 70
0
 10
504.75685433069884
 20
349.12548868421436
 10
504.75685433069884
 20
337.1254886842071
 10
924.7568543306988
 20
337.1254886842071
 10
924.7568543306988
 20
349.12548868421436
  0
LWPOLYLINE
  5
97
330
17
100
AcDbEntity
  8
0
 62
7
100
AcDbPolyline
 90
2
 70
0
 10
964.7568543306988
 20
389.12548868421436
 10
964.7568543306988
 20
757.1254886842144
  0
LINE
  5
98
330
17
100
AcDbEntity
  8
0
 62
7
100
AcDbLine
 10
504.75685433069884
 20
349.12548868421436
 30
0.0
 11
924.7568543306988
 21
349.12548868421436
 31
0.0
  0
LINE
  5
99
330
17
100
AcDbEntity
  8
0
 62
7
100
AcDbLine
 10
464.75685433069884
 20
389.12548868421436
 30
0.0
 11
964.7568543306988
 21
389.12548868421436
 31
0.0
  0
LINE
  5
9A
330
17
100
AcDbEntity
  8
0
 62
7
100
AcDbLine
 10
464.75685433069884
 20
757.1254886842144
 30
0.0
 11
964.7568543306988
 21
757.1254886842144
 31
0.0
  0
DIMENSION
  5
9B
330
17
100
AcDbEntity
  8
DIM
 62
7
100
AcDbDimension
280
0
  2
*D18
  3
Dim-25
 10
397.3427016946953
 20
389.12548868421436
 30
0.0
 11
397.3427016946953
 21
522.1254886842144
 31
0.0
 70
160
 71
5
 42
368.0
 73
0
 74
0
 75
0
100
AcDbAlignedDimension
 13
464.75685433069884
 23
757.1254886842144
 33
0.0
 14
464.75685433069884
 24
389.12548868421436
 34
0.0
 50
-90.00000000000001
100
AcDbRotatedDimension
  0
DIMENSION
  5
9C
330
17
100
AcDbEntity
  8
DIM
 62
7
100
AcDbDimension
280
0
  2
*D19
  3
Dim-25
 10
397.3427016946953
 20
349.12548868421436
 30
0.0
 11
397.3427016946953
 21
369.1254886842289
 31
0.0
 70
160
 71
5
 42
40.0
 73
0
 74
0
 75
0
100
AcDbAlignedDimension
 13
464.75685433069884
 23
389.12548868421436
 33
0.0
 14
504.75685433069884
 24
349.12548868421436
 34
0.0
 50
-90.00000000000001
100
AcDbRotatedDimension
  0
DIMENSION
  5
9D
330
17
100
AcDbEntity
  8
DIM
 62
7
100
AcDbDimension
280
0
  2
*D20
  3
Dim-25
 10
397.3427016946953
 20
337.1254886842071
 30
0.0
 11
374.7915420766949
 21
294.52419264056516
 31
0.0
 70
32
 71
5
 42
12.0
 73
0
 74
0
 75
0
100
AcDbAlignedDimension
 13
504.75685433069884
 23
349.12548868421436
 33
0.0
 14
504.75685433069884
 24
337.1254886842071
 34
0.0
 50
-90.00000000000001
100
AcDbRotatedDimension
  0
LINE
  5
9E
330
17
100
AcDbEntity
  8
0
 62
7
100
AcDbLine
 10
964.7568543306988
 20
389.12548868421436
 30
0.0
 11
924.7568543306988
 21
349.12548868421436
 31
0.0
  0
LINE
  5
9F
330
17
100
AcDbEntity
  8
0
 62
7
100
AcDbLine
 10
464.75685433069884
 20
389.12548868421436
 30
0.0
 11
504.75685433069884
 21
349.12548868421436
 31
0.0
  0
DIMENSION
  5
A0
330
17
100
AcDbEntity
  8
DIM
 62
7
100
AcDbDimension
280
0
  2
*D21
  3
Dim-25
 10
1030.9829733905062
 20
337.1254886842071
 30
0.0
 11
1008.2186486973951
 21
547.1254886842289
 31
0.0
 70
32
 71
5
 42
420.0
 73
0
 74
0
 75
0
100
AcDbAlignedDimension
 13
964.7568543306988
 23
757.1254886842144
 33
0.0
 14
924.7568543306988
 24
337.1254886842071
 34
0.0
 50
-90.00000000000001
100
AcDbRotatedDimension
  0
INSERT
  5
A1
330
17
100
AcDbEntity
  8
0
370
-3
100
AcDbBlockReference
  2
f3daunguoc
 10
479.75685433069884
 20
389.12548868421436
 30
0.0
 50
270.0
  0
INSERT
  5
A3
330
17
100
AcDbEntity
  8
0
370
-3
100
AcDbBlockReference
  2
f3daunguoc
 10
519.7568543306988
 20
349.12548868421436
 30
0.0
 50
270.0
  0
INSERT
  5
A5
330
17
100
AcDbEntity
  8
0
370
-3
100
AcDbBlockReference
  2
f3daunguoc
 10
949.7568543306988
 20
389.12548868421436
 30
0.0
 41
-1.0
 50
90.0
  0
INSERT
  5
A7
330
17
100
AcDbEntity
  8
0
370
-3
100
AcDbBlockReference
  2
f3daunguoc
 10
909.7568543306988
 20
349.12548868421436
 30
0.0
 41
-1.0
 50
90.0
  0
DIMENSION
  5
A9
330
17
100
AcDbEntity
  8
DIM
 62
7
 48
3.0
100
AcDbDimension
280
0
  2
*D22
  3
Dim-25
 10
964.7568543306988
 20
827.7515963102851
 30
0.0
 11
714.7568543306988
 21
850.5159210033307
 31
0.0
 70
32
 71
5
 42
500.0
 73
0
 74
0
 75
0
100
AcDbAlignedDimension
 13
464.75685433069884
 23
757.1254886842144
 33
0.0
 14
964.7568543306988
 24
757.1254886842144
 34
0.0
 50
180.0
100
AcDbRotatedDimension
  0
MTEXT
  5
AA
330
17
100
AcDbEntity
  8
0
 62
2
100
AcDbMText
 10
741.294245092402
 20
300.8246832897348
 30
0.0
 40
25.0
 41
1072.000000000014
 46
100.0000000000031
 71
5
 72
5
  1
Tấm nóc đáy : 2 tấm
  0
LWPOLYLINE
  5
AB
330
17
100
AcDbEntity
  8
0
 62
2
100
AcDbPolyline
 90
4
 70
1
 10
589.7568543306988
 20
618.7706320492944
 10
839.7568543306988
 20
618.7706320492944
 10
839.7568543306988
 20
498.77063204929436
 10
589.7568543306988
 20
498.77063204929436
  0
LWPOLYLINE
  5
AC
330
17
100
AcDbEntity
  8
0
 62
7
100
AcDbPolyline
 90
4
 70
1
 10
2602.797219677799
 20
705.2696543798011
 10
2892.797219677799
 20
705.2696543798011
 10
2892.797219677799
 20
545.2696543798011
 10
2602.797219677799
 20
545.2696543798011
  0
LWPOLYLINE
  5
AD
330
17
100
AcDbEntity
  8
0
 62
2
100
AcDbPolyline
 90
4
 70
1
 10
585.0068543306988
 20
494.02063204929436
 10
576.0068543306988
 20
494.02063204929436
 10
576.0068543306988
 20
485.0206320492871
 10
585.0068543306988
 20
485.0206320492871
  0
CIRCLE
  5
AE
330
17
100
AcDbEntity
  8
0
 62
7
100
AcDbCircle
 10
2613.547219677799
 20
556.0196543798083
 30
0.0
 40
4.0
  0
LWPOLYLINE
  5
AF
330
17
100
AcDbEntity
  8
0
 62
2
100
AcDbPolyline
 90
4
 70
1
 10
844.5068543306988
 20
494.02063204929436
 10
853.5068543306988
 20
494.02063204929436
 10
853.5068543306988
 20
485.0206320492871
 10
844.5068543306988
 20
485.0206320492871
  0
CIRCLE
  5
B0
330
17
100
AcDbEntity
  8
0
 62
7
100
AcDbCircle
 10
2882.047219677799
 20
556.0196543798083
 30
0.0
 40
4.0
  0
LWPOLYLINE
  5
B1
330
17
100
AcDbEntity
  8
0
 62
2
100
AcDbPolyline
 90
4
 70
1
 10
585.0068543306988
 20
623.5206320492944
 10
576.0068543306988
 20
623.5206320492944
 10
576.0068543306988
 20
632.5206320492944
 10
585.0068543306988
 20
632.5206320492944
  0
CIRCLE
  5
B2
330
17
100
AcDbEntity
  8
0
 62
7
100
AcDbCircle
 10
2613.547219677799
 20
694.5196543798011
 30
0.0
 40
4.0
  0
LWPOLYLINE
  5
B3
330
17
100
AcDbEntity
  8
0
 62
2
100
AcDbPolyline
 90
4
 70
1
 10
844.5068543306988
 20
623.5206320492944
 10
853.5068543306988
 20
623.5206320492944
 10
853.5068543306988
 20
632.5206320492944
 10
844.5068543306988
 20
632.5206320492944
  0
CIRCLE
  5
B4
330
17
100
AcDbEntity
  8
0
 62
7
100
AcDbCircle
 10
2882.047219677799
 20
694.5196543798011
 30
0.0
 40
4.0
  0
DIMENSION
  5
B5
330
17
100
AcDbEntity
  8
DIM
 62
1
 48
3.0
100
AcDbDimension
280
0
  2
*D23
  3
Dim-25
 10
2892.797219677799
 20
741.8133150895592
 30
0.0
 11
2747.797219677799
 21
764.5776397825975
 31
0.0
 70
32
 71
5
 42
290.0
 73
0
 74
0
 75
0
100
AcDbAlignedDimension
 13
2602.797219677799
 23
705.2696543798011
 33
0.0
 14
2892.797219677799
 24
705.2696543798011
 34
0.0
 50
0.0
100
AcDbRotatedDimension
  0
DIMENSION
  5
B6
330
17
100
AcDbEntity
  8
DIM
 62
1
 48
3.0
100
AcDbDimension
280
0
  2
*D24
  3
Dim-25
 10
2975.3841899824038
 20
545.2696543798011
 30
0.0
 11
2952.6198652893945
 21
625.2696543798156
 31
0.0
 70
32
 71
5
 42
160.0
 73
0
 74
0
 75
0
100
AcDbAlignedDimension
 13
2892.797219677799
 23
705.2696543798011
 33
0.0
 14
2892.797219677799
 24
545.2696543798011
 34
0.0
 50
90.0
100
AcDbRotatedDimension
  0
MTEXT
  5
B7
330
17
100
AcDbEntity
  8
0
 62
2
100
AcDbMText
 10
2770.969311655499
 20
441.3372408640207
 30
0.0
 40
50.0
 41
1216.418609980494
 46
647.1644973081675
 71
5
 72
5
  1
Tấm bịt\P  : 2  tấm
  0
MTEXT
  5
B8
330
17
100
AcDbEntity
  8
0
 62
2
100
AcDbMText
 10
2765.499509736197
 20
1105.940818654337
 30
0.0
 40
25.0
 41
1272.000000000014
 46
100.0000000000031
 71
5
 72
5
  1
Cánh ngoài : 1 tấm
  0
LWPOLYLINE
  5
B9
330
17
100
AcDbEntity
  8
0
 62
7
100
AcDbPolyline
 90
4
 70
1
 10
2566.7843514202978
 20
2731.952107435478
 10
3063.7843514202978
 20
2731.952107435478
 10
3063.7843514202978
 20
1235.952107435478
 10
2566.7843514202978
 20
1235.952107435478
  0
LWPOLYLINE
  5
BA
330
17
100
AcDbEntity
  8
0
 62
7
100
AcDbPolyline
 90
2
 70
0
 10
3097.7843514202978
 20
2622.452107435478
 10
3097.7843514202978
 20
2005.452107435478
  0
LWPOLYLINE
  5
BB
330
17
100
AcDbEntity
  8
0
 62
7
100
AcDbPolyline
 90
2
 70
0
 10
3085.7843514202978
 20
2731.952107435478
 10
3085.7843514202978
 20
2665.452107435478
  0
LWPOLYLINE
  5
BC
330
17
100
AcDbEntity
  8
0
 62
7
100
AcDbPolyline
 90
2
 70
0
 10
3085.7843514202978
 20
2622.452107435478
 10
3085.7843514202978
 20
2005.452107435478
  0
LWPOLYLINE
  5
BD
330
17
100
AcDbEntity
  8
0
 62
7
100
AcDbPolyline
 90
2
 70
0
 10
3085.7843514202978
 20
1302.452107435478
 10
3085.7843514202978
 20
1235.952107435478
  0
LWPOLYLINE
  5
BE
330
17
100
AcDbEntity
  8
0
 62
7
100
AcDbPolyline
 90
2
 70
0
 10
3063.7843514202978
 20
1213.952107435478
 10
2566.7843514202978
 20
1213.952107435478
  0
LWPOLYLINE
  5
BF
330
17
100
AcDbEntity
  8
0
 62
7
100
AcDbPolyline
 90
2
 70
0
 10
2544.7843514202978
 20
1235.952107435478
 10
2544.7843514202978
 20
2731.952107435478
  0
LWPOLYLINE
  5
C0
330
17
100
AcDbEntity
  8
0
 62
7
100
AcDbPolyline
 90
2
 70
0
 10
2566.7843514202978
 20
2753.9521074354852
 10
3063.7843514202978
 20
2753.9521074354852
  0
LWPOLYLINE
  5
C1
330
17
100
AcDbEntity
  8
0
 62
2
100
AcDbPolyline
 90
4
 70
0
 10
3097.7843514202978
 20
2622.452107435478
 10
3082.7843514202978
 20
2622.452107435478
 10
3082.7843514202978
 20
2665.452107435478
 10
3097.7843514202978
 20
2665.452107435478
  0
CIRCLE
  5
C2
330
17
100
AcDbEntity
  8
0
 62
2
100
AcDbCircle
 10
3042.984351420295
 20
2649.952107435478
 30
0.0
 40
5.0
  0
CIRCLE
  5
C3
330
17
100
AcDbEntity
  8
0
 62
2
100
AcDbCircle
 10
3042.984351420295
 20
2637.952107435478
 30
0.0
 40
5.0
  0
LWPOLYLINE
  5
C4
330
17
100
AcDbEntity
  8
0
 62
2
100
AcDbPolyline
 90
25
 70
0
 10
3097.7843514202978
 20
1345.452107435478
 10
3082.7843514202978
 20
1345.452107435478
 10
3082.7843514202978
 20
1302.452107435478
 10
3097.7843514202978
 20
1302.452107435478
 10
3097.7843514202978
 20
1247.952107435478
 10
3085.7843514202978
 20
1235.952107435478
 10
3063.7843514202978
 20
1235.952107435478
 10
3063.7843514202978
 20
1213.952107435478
 10
3051.7843514202978
 20
1201.952107435478
 10
2578.7843514202978
 20
1201.952107435478
 10
2566.7843514202978
 20
1213.952107435478
 10
2566.7843514202978
 20
1235.952107435478
 10
2544.7843514202978
 20
1235.952107435478
 10
2532.7843514202978
 20
1247.952107435478
 10
2532.7843514202978
 20
2719.952107435478
 10
2544.7843514202978
 20
2731.952107435478
 10
2566.7843514202978
 20
2731.952107435478
 10
2566.7843514202978
 20
2753.9521074354852
 10
2578.7843514202978
 20
2765.952107435478
 10
3051.7843514202978
 20
2765.952107435478
 10
3063.7843514202978
 20
2753.9521074354852
 10
3063.7843514202978
 20
2731.952107435478
 10
3085.7843514202978
 20
2731.952107435478
 10
3097.7843514202978
 20
2719.952107435478
 10
3097.7843514202978
 20
2665.452107435478
  0
CIRCLE
  5
C5
330
17
100
AcDbEntity
  8
0
 62
2
100
AcDbCircle
 10
3042.984351420295
 20
1317.952107435478
 30
0.0
 40
5.0
  0
CIRCLE
  5
C6
330
17
100
AcDbEntity
  8
0
 62
2
100
AcDbCircle
 10
3042.984351420295
 20
1329.952107435478
 30
0.0
 40
5.0
  0
INSERT
  5
C7
330
17
100
AcDbEntity
  8
0
370
-3
100
AcDbBlockReference
  2
f3daunguoc
 10
2581.7843514202978
 20
2731.952107435478
 30
0.0
 41
-1.0
 50
180.0
  0
INSERT
  5
C9
330
17
100
AcDbEntity
  8
0
370
-3
100
AcDbBlockReference
  2
f3daunguoc
 10
2566.7843514202978
 20
2716.952107435478
 30
0.0
 41
-1.0
 50
180.0
  0
INSERT
  5
CB
330
17
100
AcDbEntity
  8
0
370
-3
100
AcDbBlockReference
  2
f3daunguoc
 10
2581.7843514202978
 20
2753.9521074354852
 30
0.0
 41
-1.0
 50
180.0
  0
INSERT
  5
CD
330
17
100
AcDbEntity
  8
0
370
-3
100
AcDbBlockReference
  2
f3daunguoc
 10
2544.7843514202978
 20
2716.952107435478
 30
0.0
 41
-1.0
 50
180.0
  0
INSERT
  5
CF
330
17
100
AcDbEntity
  8
0
370
-3
100
AcDbBlockReference
  2
f3daunguoc
 10
2631.7843514202978
 20
2731.952107435478
 30
0.0
 41
-1.0
 50
180.0
  0
INSERT
  5
D1
330
17
100
AcDbEntity
  8
0
370
-3
100
AcDbBlockReference
  2
f3daunguoc
 10
2631.7843514202978
 20
2753.9521074354852
 30
0.0
 41
-1.0
 50
180.0
  0
INSERT
  5
D3
330
17
100
AcDbEntity
  8
0
370
-3
100
AcDbBlockReference
  2
f3daunguoc
 10
3048.7843514202978
 20
2731.952107435478
 30
0.0
 50
180.0
  0
INSERT
  5
D5
330
17
100
AcDbEntity
  8
0
370
-3
100
AcDbBlockReference
  2
f3daunguoc
 10
3063.7843514202978
 20
2716.952107435478
 30
0.0
 50
180.0
  0
INSERT
  5
D7
330
17
100
AcDbEntity
  8
0
370
-3
100
AcDbBlockReference
  2
f3daunguoc
 10
3048.7843514202978
 20
2753.9521074354852
 30
0.0
 50
180.0
  0
INSERT
  5
D9
330
17
100
AcDbEntity
  8
0
370
-3
100
AcDbBlockReference
  2
f3daunguoc
 10
3085.7843514202978
 20
2716.952107435478
 30
0.0
 50
180.0
  0
INSERT
  5
DB
330
17
100
AcDbEntity
  8
0
370
-3
100
AcDbBlockReference
  2
f3daunguoc
 10
2998.7843514202978
 20
2731.952107435478
 30
0.0
 50
180.0
  0
INSERT
  5
DD
330
17
100
AcDbEntity
  8
0
370
-3
100
AcDbBlockReference
  2
f3daunguoc
 10
2998.7843514202978
 20
2753.9521074354852
 30
0.0
 50
180.0
  0
INSERT
  5
DF
330
17
100
AcDbEntity
  8
0
370
-3
100
AcDbBlockReference
  2
f3daunguoc
 10
2581.7843514202978
 20
1235.952107435478
 30
0.0
  0
INSERT
  5
E1
330
17
100
AcDbEntity
  8
0
370
-3
100
AcDbBlockReference
  2
f3daunguoc
 10
2566.7843514202978
 20
1250.952107435478
 30
0.0
  0
INSERT
  5
E3
330
17
100
AcDbEntity
  8
0
370
-3
100
AcDbBlockReference
  2
f3daunguoc
 10
2581.7843514202978
 20
1213.952107435478
 30
0.0
  0
INSERT
  5
E5
330
17
100
AcDbEntity
  8
0
370
-3
100
AcDbBlockReference
  2
f3daunguoc
 10
2544.7843514202978
 20
1250.952107435478
 30
0.0
  0
INSERT
  5
E7
330
17
100
AcDbEntity
  8
0
370
-3
100
AcDbBlockReference
  2
f3daunguoc
 10
2631.7843514202978
 20
1235.952107435478
 30
0.0
  0
INSERT
  5
E9
330
17
100
AcDbEntity
  8
0
370
-3
100
AcDbBlockReference
  2
f3daunguoc
 10
2631.7843514202978
 20
1213.952107435478
 30
0.0
  0
INSERT
  5
EB
330
17
100
AcDbEntity
  8
0
370
-3
100
AcDbBlockReference
  2
f3daunguoc
 10
3048.7843514202978
 20
1235.952107435478
 30
0.0
 41
-1.0
  0
INSERT
  5
ED
330
17
100
AcDbEntity
  8
0
370
-3
100
AcDbBlockReference
  2
f3daunguoc
 10
3063.7843514202978
 20
1250.952107435478
 30
0.0
 41
-1.0
  0
INSERT
  5
EF
330
17
100
AcDbEntity
  8
0
370
-3
100
AcDbBlockReference
  2
f3daunguoc
 10
3048.7843514202978
 20
1213.952107435478
 30
0.0
 41
-1.0
  0
INSERT
  5
F1
330
17
100
AcDbEntity
  8
0
370
-3
100
AcDbBlockReference
  2
f3daunguoc
 10
3085.7843514202978
 20
1250.952107435478
 30
0.0
 41
-1.0
  0
INSERT
  5
F3
330
17
100
AcDbEntity
  8
0
370
-3
100
AcDbBlockReference
  2
f3daunguoc
 10
2998.7843514202978
 20
1235.952107435478
 30
0.0
 41
-1.0
  0
INSERT
  5
F5
330
17
100
AcDbEntity
  8
0
370
-3
100
AcDbBlockReference
  2
f3daunguoc
 10
2998.7843514202978
 20
1213.952107435478
 30
0.0
 41
-1.0
  0
DIMENSION
  5
F7
330
17
100
AcDbEntity
  8
DIM
 62
2
100
AcDbDimension
280
0
  2
*D25
  3
Dim-25
 10
3097.7843514202978
 20
2790.134890976049
 30
0.0
 11
3140.3856474639033
 21
2812.6860505940567
 31
0.0
 70
32
 71
5
 42
12.00000000001455
 73
0
 74
0
 75
0
100
AcDbAlignedDimension
 13
3085.7843514202978
 23
2731.952107435478
 33
0.0
 14
3097.7843514202978
 24
2719.952107435478
 34
0.0
 50
0.0
100
AcDbRotatedDimension
  0
DIMENSION
  5
F8
330
17
100
AcDbEntity
  8
DIM
 62
2
100
AcDbDimension
280
0
  2
*D26
  3
Dim-25
 10
3085.7843514202978
 20
2828.8128831680297
 30
0.0
 11
3121.7754837530956
 21
2851.3640427860373
 31
0.0
 70
32
 71
5
 42
22.0
 73
0
 74
0
 75
0
100
AcDbAlignedDimension
 13
3063.7843514202978
 23
2753.9521074354852
 33
0.0
 14
3085.7843514202978
 24
2731.952107435478
 34
0.0
 50
0.0
100
AcDbRotatedDimension
  0
DIMENSION
  5
F9
330
17
100
AcDbEntity
  8
DIM
 62
2
100
AcDbDimension
280
0
  2
*D27
  3
Dim-25
 10
2566.7843514202978
 20
2828.8128831680297
 30
0.0
 11
2815.2843514202978
 21
2851.5772078610753
 31
0.0
 70
32
 71
5
 42
497.0
 73
0
 74
0
 75
0
100
AcDbAlignedDimension
 13
3063.7843514202978
 23
2753.9521074354852
 33
0.0
 14
2566.7843514202978
 24
2753.9521074354852
 34
0.0
 50
0.0
100
AcDbRotatedDimension
  0
DIMENSION
  5
FA
330
17
100
AcDbEntity
  8
DIM
 62
2
100
AcDbDimension
280
0
  2
*D28
  3
Dim-25
 10
2432.001987301206
 20
1201.952107435478
 30
0.0
 11
2409.237662608197
 21
1983.9521074354852
 31
0.0
 70
32
 71
5
 42
1564.0
 73
0
 74
0
 75
0
100
AcDbAlignedDimension
 13
2578.8944656231033
 23
2765.952107435478
 33
0.0
 14
2578.9638398990064
 24
1201.952107435478
 34
0.0
 50
90.0
100
AcDbRotatedDimension
  0
DIMENSION
  5
FB
330
17
100
AcDbEntity
  8
DIM
 62
2
100
AcDbDimension
280
0
  2
*D29
  3
Dim-25
 10
2494.709757804303
 20
2731.952107435478
 30
0.0
 11
2471.945433111294
 21
1983.9521074354852
 31
0.0
 70
32
 71
5
 42
1496.0
 73
0
 74
0
 75
0
100
AcDbAlignedDimension
 13
2544.7843514202978
 23
1235.952107435478
 33
0.0
 14
2544.7843514202978
 24
2731.952107435478
 34
0.0
 50
90.0
100
AcDbRotatedDimension
  0
DIMENSION
  5
FC
330
17
100
AcDbEntity
  8
DIM
 62
2
100
AcDbDimension
280
0
  2
*D30
  3
Dim-25
 10
3097.7843514202978
 20
1139.0135372731093
 30
0.0
 11
2815.2843514202978
 21
1161.777861966155
 31
0.0
 70
32
 71
5
 42
565.0
 73
0
 74
0
 75
0
100
AcDbAlignedDimension
 13
2532.7843514202978
 23
1247.952107435478
 33
0.0
 14
3097.7843514202978
 24
1247.952107435478
 34
0.0
 50
0.0
100
AcDbRotatedDimension
  0
LWPOLYLINE
  5
FD
330
17
100
AcDbEntity
  8
0
 62
2
 48
3.0
100
AcDbPolyline
 90
4
 70
1
 10
2643.2843514202978
 20
2031.952107435478
 10
2667.2843514202978
 20
2031.952107435478
 10
2667.2843514202978
 20
1934.952107435478
 10
2643.2843514202978
 20
1934.952107435478
  0
LINE
  5
FE
330
17
100
AcDbEntity
  8
0
 62
7
100
AcDbLine
 10
1355.3932076595956
 20
472.066385679027
 30
0.0
 11
1775.3932076595956
 21
472.066385679027
 31
0.0
  0
LINE
  5
FF
330
17
100
AcDbEntity
  8
0
 62
7
100
AcDbLine
 10
1355.3932076595956
 20
457.066385679027
 30
0.0
 11
1775.3932076595956
 21
457.066385679027
 31
0.0
  0
LINE
  5
100
330
17
100
AcDbEntity
  8
0
 62
7
100
AcDbLine
 10
1775.3932076595956
 20
472.066385679027
 30
0.0
 11
1775.3932076595956
 21
392.066385679027
 31
0.0
  0
LINE
  5
101
330
17
100
AcDbEntity
  8
0
 62
7
100
AcDbLine
 10
1775.3932076595956
 20
392.066385679027
 30
0.0
 11
1355.3932076595956
 21
392.066385679027
 31
0.0
  0
LINE
  5
102
330
17
100
AcDbEntity
  8
0
 62
7
100
AcDbLine
 10
1775.3932076595956
 20
407.066385679027
 30
0.0
 11
1355.3932076595956
 21
407.066385679027
 31
0.0
  0
LINE
  5
103
330
17
100
AcDbEntity
  8
0
 62
7
100
AcDbLine
 10
1355.3932076595956
 20
392.066385679027
 30
0.0
 11
1355.3932076595956
 21
472.066385679027
 31
0.0
  0
DIMENSION
  5
104
330
17
100
AcDbEntity
  8
DIM
 62
7
100
AcDbDimension
280
0
  2
*D31
  3
Dim-15
 10
1355.3932076595956
 20
350.9963540391691
 30
0.0
 11
1565.3932076595956
 21
363.65494885500084
 31
0.0
 70
32
 71
5
 42
420.0
 73
0
 74
0
 75
0
100
AcDbAlignedDimension
 13
1775.3932076595956
 23
392.066385679027
 33
0.0
 14
1355.3932076595956
 24
392.066385679027
 34
0.0
 50
0.0
100
AcDbRotatedDimension
  0
DIMENSION
  5
105
330
17
100
AcDbEntity
  8
DIM
 62
7
100
AcDbDimension
280
0
  2
*D32
  3
Dim-15
 10
1812.2786510765
 20
392.066385679027
 30
0.0
 11
1799.6200562606973
 21
432.06638567904884
 31
0.0
 70
32
 71
5
 42
80.0
 73
0
 74
0
 75
0
100
AcDbAlignedDimension
 13
1775.3932076595956
 23
472.066385679027
 33
0.0
 14
1775.3932076595956
 24
392.066385679027
 34
0.0
 50
90.0
100
AcDbRotatedDimension
  0
DIMENSION
  5
106
330
17
100
AcDbEntity
  8
DIM
 62
7
100
AcDbDimension
280
0
  2
*D33
  3
Dim-15
 10
1322.9717675134016
 20
407.066385679027
 30
0.0
 11
1310.313172697599
 21
432.06638567904884
 31
0.0
 70
32
 71
5
 42
50.0
 73
0
 74
0
 75
0
100
AcDbAlignedDimension
 13
1355.3932076595956
 23
457.066385679027
 33
0.0
 14
1355.3932076595956
 24
407.066385679027
 34
0.0
 50
90.0
100
AcDbRotatedDimension
  0
DIMENSION
  5
107
330
17
100
AcDbEntity
  8
DIM
 62
7
100
AcDbDimension
280
0
  2
*D34
  3
Dim-15
 10
1322.9717675134016
 20
472.066385679027
 30
0.0
 11
1310.313172697599
 21
492.1601783120568
 31
0.0
 70
32
 71
5
 42
15.0
 73
0
 74
0
 75
0
100
AcDbAlignedDimension
 13
1355.3932076595956
 23
457.066385679027
 33
0.0
 14
1355.3932076595956
 24
472.066385679027
 34
0.0
 50
90.0
100
AcDbRotatedDimension
  0
DIMENSION
  5
108
330
17
100
AcDbEntity
  8
DIM
 62
7
100
AcDbDimension
280
0
  2
*D35
  3
Dim-15
 10
1322.9717675134016
 20
392.066385679027
 30
0.0
 11
1310.313172697599
 21
371.9725930460263
 31
0.0
 70
32
 71
5
 42
15.0
 73
0
 74
0
 75
0
100
AcDbAlignedDimension
 13
1355.3932076595956
 23
407.066385679027
 33
0.0
 14
1355.3932076595956
 24
392.066385679027
 34
0.0
 50
90.0
100
AcDbRotatedDimension
  0
MTEXT
  5
109
330
17
100
AcDbEntity
  8
0
 62
2
100
AcDbMText
 10
1575.6757647484046
 20
318.30103249433887
 30
0.0
 40
25.0
 41
775.0000000000146
 46
100.0000000000031
 71
5
 72
5
  1
Thanh U: 5 tấm
  0
INSERT
  5
10A
330
17
100
AcDbEntity
  8
CNC
370
-3
100
AcDbBlockReference
  2
ovan8.5x20
 10
1371.1432076595956
 20
444.566385679027
 30
0.0
 50
180.0
  0
INSERT
  5
10C
330
17
100
AcDbEntity
  8
CNC
370
-3
100
AcDbBlockReference
  2
ovan8.5x20
 10
1371.1432076595956
 20
419.566385679027
 30
0.0
 50
180.0
  0
INSERT
  5
10E
330
17
100
AcDbEntity
  8
CNC
370
-3
100
AcDbBlockReference
  2
ovan8.5x20
 10
1759.6432076595956
 20
444.566385679027
 30
0.0
 41
-1.0
 50
180.0
  0
INSERT
  5
110
330
17
100
AcDbEntity
  8
CNC
370
-3
100
AcDbBlockReference
  2
ovan8.5x20
 10
1759.6432076595956
 20
419.566385679027
 30
0.0
 41
-1.0
 50
180.0
  0
INSERT
  5
112
330
17
100
AcDbEntity
  8
CNC
370
-3
100
AcDbBlockReference
  2
ovan8.5x20
 10
1740.8932076595956
 20
432.066385679027
 30
0.0
 41
-1.0
 50
180.0
  0
INSERT
  5
114
330
17
100
AcDbEntity
  8
CNC
370
-3
100
AcDbBlockReference
  2
ovan8.5x20
 10
1715.8932076595956
 20
432.066385679027
 30
0.0
 41
-1.0
 50
180.0
  0
INSERT
  5
116
330
17
100
AcDbEntity
  8
CNC
370
-3
100
AcDbBlockReference
  2
ovan8.5x20
 10
1690.8932076595956
 20
432.066385679027
 30
0.0
 41
-1.0
 50
180.0
  0
INSERT
  5
118
330
17
100
AcDbEntity
  8
CNC
370
-3
100
AcDbBlockReference
  2
ovan8.5x20
 10
1665.8932076595956
 20
432.066385679027
 30
0.0
 41
-1.0
 50
180.0
  0
INSERT
  5
11A
330
17
100
AcDbEntity
  8
CNC
370
-3
100
AcDbBlockReference
  2
ovan8.5x20
 10
1640.8932076595956
 20
432.066385679027
 30
0.0
 41
-1.0
 50
180.0
  0
INSERT
  5
11C
330
17
100
AcDbEntity
  8
CNC
370
-3
100
AcDbBlockReference
  2
ovan8.5x20
 10
1615.8932076595956
 20
432.066385679027
 30
0.0
 41
-1.0
 50
180.0
  0
INSERT
  5
11E
330
17
100
AcDbEntity
  8
CNC
370
-3
100
AcDbBlockReference
  2
ovan8.5x20
 10
1590.8932076595956
 20
432.066385679027
 30
0.0
 41
-1.0
 50
180.0
  0
INSERT
  5
120
330
17
100
AcDbEntity
  8
CNC
370
-3
100
AcDbBlockReference
  2
ovan8.5x20
 10
1565.8932076595956
 20
432.066385679027
 30
0.0
 41
-1.0
 50
180.0
  0
INSERT
  5
122
330
17
100
AcDbEntity
  8
CNC
370
-3
100
AcDbBlockReference
  2
ovan8.5x20
 10
1540.8932076595956
 20
432.066385679027
 30
0.0
 41
-1.0
 50
180.0
  0
INSERT
  5
124
330
17
100
AcDbEntity
  8
CNC
370
-3
100
AcDbBlockReference
  2
ovan8.5x20
 10
1515.8932076595956
 20
432.066385679027
 30
0.0
 41
-1.0
 50
180.0
  0
INSERT
  5
126
330
17
100
AcDbEntity
  8
CNC
370
-3
100
AcDbBlockReference
  2
ovan8.5x20
 10
1490.8932076595956
 20
432.066385679027
 30
0.0
 41
-1.0
 50
180.0
  0
INSERT
  5
128
330
17
100
AcDbEntity
  8
CNC
370
-3
100
AcDbBlockReference
  2
ovan8.5x20
 10
1465.8932076595956
 20
432.066385679027
 30
0.0
 41
-1.0
 50
180.0
  0
INSERT
  5
12A
330
17
100
AcDbEntity
  8
CNC
370
-3
100
AcDbBlockReference
  2
ovan8.5x20
 10
1440.8932076595956
 20
432.066385679027
 30
0.0
 41
-1.0
 50
180.0
  0
INSERT
  5
12C
330
17
100
AcDbEntity
  8
CNC
370
-3
100
AcDbBlockReference
  2
ovan8.5x20
 10
1415.8932076595956
 20
432.066385679027
 30
0.0
 41
-1.0
 50
180.0
  0
INSERT
  5
12E
330
17
100
AcDbEntity
  8
CNC
370
-3
100
AcDbBlockReference
  2
ovan8.5x20
 10
1390.8932076595956
 20
432.066385679027
 30
0.0
 41
-1.0
 50
180.0
  0
INSERT
  5
130
330
17
100
AcDbEntity
  8
0
370
-3
100
AcDbBlockReference
  2
f3daunguoc
 10
1370.8932076595956
 20
457.066385679027
 30
0.0
 50
270.0
  0
INSERT
  5
132
330
17
100
AcDbEntity
  8
0
370
-3
100
AcDbBlockReference
  2
f3daunguoc
 10
1370.8932076595956
 20
407.066385679027
 30
0.0
 50
270.0
  0
INSERT
  5
134
330
17
100
AcDbEntity
  8
0
370
-3
100
AcDbBlockReference
  2
f3daunguoc
 10
1759.8932076595956
 20
457.066385679027
 30
0.0
 41
-1.0
 50
90.0
  0
INSERT
  5
136
330
17
100
AcDbEntity
  8
0
370
-3
100
AcDbBlockReference
  2
f3daunguoc
 10
1759.8932076595956
 20
407.066385679027
 30
0.0
 41
-1.0
 50
90.0
  0
LWPOLYLINE
  5
138
330
17
100
AcDbEntity
  8
0
 62
2
100
AcDbPolyline
 90
4
 70
0
 10
3097.7843514202978
 20
1962.452107435478
 10
3082.7843514202978
 20
1962.452107435478
 10
3082.7843514202978
 20
2005.452107435478
 10
3097.7843514202978
 20
2005.452107435478
  0
CIRCLE
  5
139
330
17
100
AcDbEntity
  8
0
 62
2
100
AcDbCircle
 10
3042.984351420295
 20
1989.952107435478
 30
0.0
 40
5.0
  0
CIRCLE
  5
13A
330
17
100
AcDbEntity
  8
0
 62
2
100
AcDbCircle
 10
3042.984351420295
 20
1977.952107435478
 30
0.0
 40
5.0
  0
LWPOLYLINE
  5
13B
330
17
100
AcDbEntity
  8
0
 62
7
100
AcDbPolyline
 90
2
 70
0
 10
3085.7843514202978
 20
1962.452107435478
 10
3085.7843514202978
 20
1345.452107435478
  0
LWPOLYLINE
  5
13C
330
17
100
AcDbEntity
  8
0
 62
7
100
AcDbPolyline
 90
2
 70
0
 10
3097.7843514202978
 20
1962.452107435478
 10
3097.7843514202978
 20
1345.452107435478
  0
CIRCLE
  5
13D
330
17
100
AcDbEntity
  8
0
 48
3.0
100
AcDbCircle
 10
1042.108623129694
 20
2702.452107435478
 30
0.0
 40
6.5
  0
CIRCLE
  5
13E
330
17
100
AcDbEntity
  8
0
 48
3.0
100
AcDbCircle
 10
1423.108623129694
 20
2702.452107435478
 30
0.0
 40
6.5
  0
CIRCLE
  5
13F
330
17
100
AcDbEntity
  8
0
 48
3.0
100
AcDbCircle
 10
1042.108623129694
 20
1265.452107435478
 30
0.0
 40
6.5
  0
CIRCLE
  5
140
330
17
100
AcDbEntity
  8
0
 48
3.0
100
AcDbCircle
 10
1423.108623129694
 20
1265.452107435478
 30
0.0
 40
6.5
  0
LINE
  5
141
330
17
100
AcDbEntity
  8
0
 48
3.0
100
AcDbLine
 10
496.75685433069884
 20
767.1254886842144
 30
0.0
 11
496.75685433069884
 21
757.1254886842144
 31
0.0
  0
LINE
  5
142
330
17
100
AcDbEntity
  8
0
 48
3.0
100
AcDbLine
 10
506.75685433069884
 20
767.1254886842144
 30
0.0
 11
506.75685433069884
 21
757.1254886842144
 31
0.0
  0
LINE
  5
143
330
17
100
AcDbEntity
  8
0
 48
3.0
100
AcDbLine
 10
468.75685433069884
 20
767.1254886842144
 30
0.0
 11
468.75685433069884
 21
757.1254886842144
 31
0.0
  0
INSERT
  5
144
330
17
100
AcDbEntity
  8
0
370
-3
100
AcDbBlockReference
  2
f3daunguoc
 10
479.75685433069884
 20
757.1254886842144
 30
0.0
 50
270.0
  0
LINE
  5
146
330
17
100
AcDbEntity
  8
0
 48
3.0
100
AcDbLine
 10
922.7568543306988
 20
767.1254886842144
 30
0.0
 11
922.7568543306988
 21
757.1254886842144
 31
0.0
  0
LINE
  5
147
330
17
100
AcDbEntity
  8
0
 48
3.0
100
AcDbLine
 10
932.7568543306988
 20
767.1254886842144
 30
0.0
 11
932.7568543306988
 21
757.1254886842144
 31
0.0
  0
LINE
  5
148
330
17
100
AcDbEntity
  8
0
 48
3.0
100
AcDbLine
 10
960.7568543306988
 20
767.1254886842144
 30
0.0
 11
960.7568543306988
 21
757.1254886842144
 31
0.0
  0
INSERT
  5
149
330
17
100
AcDbEntity
  8
0
370
-3
100
AcDbBlockReference
  2
f3daunguoc
 10
949.7568543306988
 20
757.1254886842144
 30
0.0
 41
-1.0
 50
90.0
  0
LWPOLYLINE
  5
14B
330
17
100
AcDbEntity
  8
0
 62
7
100
AcDbPolyline
 90
2
 70
0
 10
496.75685433069884
 20
767.1254886842144
 10
468.75685433069884
 20
767.1254886842144
  0
LWPOLYLINE
  5
14C
330
17
100
AcDbEntity
  8
0
 62
7
100
AcDbPolyline
 90
2
 70
0
 10
464.75685433069884
 20
757.1254886842144
 10
464.75685433069884
 20
389.12548868421436
  0
LWPOLYLINE
  5
14D
330
17
100
AcDbEntity
  8
0
 62
7
100
AcDbPolyline
 90
2
 70
0
 10
960.7568543306988
 20
767.1254886842144
 10
932.7568543306988
 20
767.1254886842144
  0
LWPOLYLINE
  5
14E
330
17
100
AcDbEntity
  8
0
 62
7
100
AcDbPolyline
 90
2
 70
0
 10
922.7568543306988
 20
767.1254886842144
 10
506.75685433069884
 20
767.1254886842144
  0
DIMENSION
  5
14F
330
17
100
AcDbEntity
  8
DIM
 62
7
100
AcDbDimension
280
0
  2
*D36
  3
Dim-25
 10
397.3427016946953
 20
767.1254886842144
 30
0.0
 11
374.5783770017006
 21
809.8120507579079
 31
0.0
 70
32
 71
5
 42
10.0
 73
0
 74
0
 75
0
100
AcDbAlignedDimension
 13
464.75685433069884
 23
757.1254886842144
 33
0.0
 14
468.75685433069884
 24
767.1254886842144
 34
0.0
 50
90.0
100
AcDbRotatedDimension
  0
LWPOLYLINE
  5
150
330
17
100
AcDbEntity
  8
0
 62
7
100
AcDbPolyline
 90
4
 70
1
 10
3365.5923565767007
 20
2724.702107435478
 10
3445.5923565767007
 20
2724.702107435478
 10
3445.5923565767007
 20
1243.202107435478
 10
3365.5923565767007
 20
1243.202107435478
  0
LINE
  5
151
330
17
100
AcDbEntity
  8
0
 62
7
100
AcDbLine
 10
3405.5923565767007
 20
2724.702107435478
 30
0.0
 11
3405.5923565767007
 21
1243.202107435478
 31
0.0
  0
DIMENSION
  5
152
330
17
100
AcDbEntity
  8
DIM
 62
7
100
AcDbDimension
280
0
  2
*D37
  3
Dim-15
 10
3493.298768546796
 20
1243.202107435478
 30
0.0
 11
3480.6401737309934
 21
1983.9521074354852
 31
0.0
 70
32
 71
5
 42
1481.5
 73
0
 74
0
 75
0
100
AcDbAlignedDimension
 13
3445.5923565767007
 23
2724.702107435478
 33
0.0
 14
3445.5923565767007
 24
1243.202107435478
 34
0.0
 50
90.0
100
AcDbRotatedDimension
  0
DIMENSION
  5
153
330
17
100
AcDbEntity
  8
DIM
 62
7
100
AcDbDimension
280
0
  2
*D38
  3
Dim-15
 10
3445.5923565767007
 20
1194.4272479000865
 30
0.0
 11
3405.5923565767007
 21
1207.0858427159183
 31
0.0
 70
32
 71
5
 42
80.0
 73
0
 74
0
 75
0
100
AcDbAlignedDimension
 13
3365.5923565767007
 23
1243.202107435478
 33
0.0
 14
3445.5923565767007
 24
1243.202107435478
 34
0.0
 50
0.0
100
AcDbRotatedDimension
  0
INSERT
  5
154
330
17
100
AcDbEntity
  8
CNC
370
-3
100
AcDbBlockReference
  2
ovan8.5x20
 10
3385.5923565767007
 20
1283.9521074354852
 30
0.0
 50
90.0
  0
INSERT
  5
156
330
17
100
AcDbEntity
  8
CNC
370
-3
100
AcDbBlockReference
  2
ovan8.5x20
 10
3425.5923565767007
 20
1283.9521074354852
 30
0.0
 41
-1.0
 50
270.0
  0
CIRCLE
  5
158
330
17
100
AcDbEntity
  8
0
 62
2
100
AcDbCircle
 10
3405.5923565767007
 20
2719.7021074354852
 30
0.0
 40
1.5
  0
CIRCLE
  5
159
330
17
100
AcDbEntity
  8
0
 62
2
100
AcDbCircle
 10
3405.5923565767007
 20
1278.202107435478
 30
0.0
 40
1.5
  0
CIRCLE
  5
15A
330
17
100
AcDbEntity
  8
0
 62
2
100
AcDbCircle
 10
3405.5923565767007
 20
2681.522946385616
 30
0.0
 40
2.5
  0
INSERT
  5
15B
330
17
100
AcDbEntity
  8
CNC
370
-3
100
AcDbBlockReference
  2
ovan8.5x20
 10
3385.5923565767007
 20
1308.9521074354852
 30
0.0
 50
90.0
  0
INSERT
  5
15D
330
17
100
AcDbEntity
  8
CNC
370
-3
100
AcDbBlockReference
  2
ovan8.5x20
 10
3425.5923565767007
 20
1308.9521074354852
 30
0.0
 41
-1.0
 50
270.0
  0
INSERT
  5
15F
330
17
100
AcDbEntity
  8
CNC
370
-3
100
AcDbBlockReference
  2
ovan8.5x20
 10
3385.5923565767007
 20
1333.9521074354852
 30
0.0
 50
90.0
  0
INSERT
  5
161
330
17
100
AcDbEntity
  8
CNC
370
-3
100
AcDbBlockReference
  2
ovan8.5x20
 10
3425.5923565767007
 20
1333.9521074354852
 30
0.0
 41
-1.0
 50
270.0
  0
INSERT
  5
163
330
17
100
AcDbEntity
  8
CNC
370
-3
100
AcDbBlockReference
  2
ovan8.5x20
 10
3385.5923565767007
 20
1358.9521074354852
 30
0.0
 50
90.0
  0
INSERT
  5
165
330
17
100
AcDbEntity
  8
CNC
370
-3
100
AcDbBlockReference
  2
ovan8.5x20
 10
3425.5923565767007
 20
1358.9521074354852
 30
0.0
 41
-1.0
 50
270.0
  0
INSERT
  5
167
330
17
100
AcDbEntity
  8
CNC
370
-3
100
AcDbBlockReference
  2
ovan8.5x20
 10
3385.5923565767007
 20
1383.9521074354852
 30
0.0
 50
90.0
  0
INSERT
  5
169
330
17
100
AcDbEntity
  8
CNC
370
-3
100
AcDbBlockReference
  2
ovan8.5x20
 10
3425.5923565767007
 20
1383.9521074354852
 30
0.0
 41
-1.0
 50
270.0
  0
INSERT
  5
16B
330
17
100
AcDbEntity
  8
CNC
370
-3
100
AcDbBlockReference
  2
ovan8.5x20
 10
3385.5923565767007
 20
1408.952107435478
 30
0.0
 50
90.0
  0
INSERT
  5
16D
330
17
100
AcDbEntity
  8
CNC
370
-3
100
AcDbBlockReference
  2
ovan8.5x20
 10
3425.5923565767007
 20
1408.952107435478
 30
0.0
 41
-1.0
 50
270.0
  0
INSERT
  5
16F
330
17
100
AcDbEntity
  8
CNC
370
-3
100
AcDbBlockReference
  2
ovan8.5x20
 10
3385.5923565767007
 20
1433.9521074354852
 30
0.0
 50
90.0
  0
INSERT
  5
171
330
17
100
AcDbEntity
  8
CNC
370
-3
100
AcDbBlockReference
  2
ovan8.5x20
 10
3425.5923565767007
 20
1433.9521074354852
 30
0.0
 41
-1.0
 50
270.0
  0
INSERT
  5
173
330
17
100
AcDbEntity
  8
CNC
370
-3
100
AcDbBlockReference
  2
ovan8.5x20
 10
3385.5923565767007
 20
1458.9521074354852
 30
0.0
 50
90.0
  0
INSERT
  5
175
330
17
100
AcDbEntity
  8
CNC
370
-3
100
AcDbBlockReference
  2
ovan8.5x20
 10
3425.5923565767007
 20
1458.9521074354852
 30
0.0
 41
-1.0
 50
270.0
  0
INSERT
  5
177
330
17
100
AcDbEntity
  8
CNC
370
-3
100
AcDbBlockReference
  2
ovan8.5x20
 10
3385.5923565767007
 20
1483.9521074354852
 30
0.0
 50
90.0
  0
INSERT
  5
179
330
17
100
AcDbEntity
  8
CNC
370
-3
100
AcDbBlockReference
  2
ovan8.5x20
 10
3425.5923565767007
 20
1483.9521074354852
 30
0.0
 41
-1.0
 50
270.0
  0
INSERT
  5
17B
330
17
100
AcDbEntity
  8
CNC
370
-3
100
AcDbBlockReference
  2
ovan8.5x20
 10
3385.5923565767007
 20
1508.9521074354852
 30
0.0
 50
90.0
  0
INSERT
  5
17D
330
17
100
AcDbEntity
  8
CNC
370
-3
100
AcDbBlockReference
  2
ovan8.5x20
 10
3425.5923565767007
 20
1508.9521074354852
 30
0.0
 41
-1.0
 50
270.0
  0
INSERT
  5
17F
330
17
100
AcDbEntity
  8
CNC
370
-3
100
AcDbBlockReference
  2
ovan8.5x20
 10
3385.5923565767007
 20
1533.9521074354852
 30
0.0
 50
90.0
  0
INSERT
  5
181
330
17
100
AcDbEntity
  8
CNC
370
-3
100
AcDbBlockReference
  2
ovan8.5x20
 10
3425.5923565767007
 20
1533.9521074354852
 30
0.0
 41
-1.0
 50
270.0
  0
INSERT
  5
183
330
17
100
AcDbEntity
  8
CNC
370
-3
100
AcDbBlockReference
  2
ovan8.5x20
 10
3385.5923565767007
 20
1558.9521074354852
 30
0.0
 50
90.0
  0
INSERT
  5
185
330
17
100
AcDbEntity
  8
CNC
370
-3
100
AcDbBlockReference
  2
ovan8.5x20
 10
3425.5923565767007
 20
1558.9521074354852
 30
0.0
 41
-1.0
 50
270.0
  0
INSERT
  5
187
330
17
100
AcDbEntity
  8
CNC
370
-3
100
AcDbBlockReference
  2
ovan8.5x20
 10
3385.5923565767007
 20
1583.9521074354852
 30
0.0
 50
90.0
  0
INSERT
  5
189
330
17
100
AcDbEntity
  8
CNC
370
-3
100
AcDbBlockReference
  2
ovan8.5x20
 10
3425.5923565767007
 20
1583.9521074354852
 30
0.0
 41
-1.0
 50
270.0
  0
INSERT
  5
18B
330
17
100
AcDbEntity
  8
CNC
370
-3
100
AcDbBlockReference
  2
ovan8.5x20
 10
3385.5923565767007
 20
1608.9521074354852
 30
0.0
 50
90.0
  0
INSERT
  5
18D
330
17
100
AcDbEntity
  8
CNC
370
-3
100
AcDbBlockReference
  2
ovan8.5x20
 10
3425.5923565767007
 20
1608.9521074354852
 30
0.0
 41
-1.0
 50
270.0
  0
INSERT
  5
18F
330
17
100
AcDbEntity
  8
CNC
370
-3
100
AcDbBlockReference
  2
ovan8.5x20
 10
3385.5923565767007
 20
1633.9521074354852
 30
0.0
 50
90.0
  0
INSERT
  5
191
330
17
100
AcDbEntity
  8
CNC
370
-3
100
AcDbBlockReference
  2
ovan8.5x20
 10
3425.5923565767007
 20
1633.9521074354852
 30
0.0
 41
-1.0
 50
270.0
  0
INSERT
  5
193
330
17
100
AcDbEntity
  8
CNC
370
-3
100
AcDbBlockReference
  2
ovan8.5x20
 10
3385.5923565767007
 20
1658.9521074354852
 30
0.0
 50
90.0
  0
INSERT
  5
195
330
17
100
AcDbEntity
  8
CNC
370
-3
100
AcDbBlockReference
  2
ovan8.5x20
 10
3425.5923565767007
 20
1658.9521074354852
 30
0.0
 41
-1.0
 50
270.0
  0
INSERT
  5
197
330
17
100
AcDbEntity
  8
CNC
370
-3
100
AcDbBlockReference
  2
ovan8.5x20
 10
3385.5923565767007
 20
1683.9521074354852
 30
0.0
 50
90.0
  0
INSERT
  5
199
330
17
100
AcDbEntity
  8
CNC
370
-3
100
AcDbBlockReference
  2
ovan8.5x20
 10
3425.5923565767007
 20
1683.9521074354852
 30
0.0
 41
-1.0
 50
270.0
  0
INSERT
  5
19B
330
17
100
AcDbEntity
  8
CNC
370
-3
100
AcDbBlockReference
  2
ovan8.5x20
 10
3385.5923565767007
 20
1708.9521074354852
 30
0.0
 50
90.0
  0
INSERT
  5
19D
330
17
100
AcDbEntity
  8
CNC
370
-3
100
AcDbBlockReference
  2
ovan8.5x20
 10
3425.5923565767007
 20
1708.9521074354852
 30
0.0
 41
-1.0
 50
270.0
  0
INSERT
  5
19F
330
17
100
AcDbEntity
  8
CNC
370
-3
100
AcDbBlockReference
  2
ovan8.5x20
 10
3385.5923565767007
 20
1733.9521074354852
 30
0.0
 50
90.0
  0
INSERT
  5
1A1
330
17
100
AcDbEntity
  8
CNC
370
-3
100
AcDbBlockReference
  2
ovan8.5x20
 10
3425.5923565767007
 20
1733.9521074354852
 30
0.0
 41
-1.0
 50
270.0
  0
INSERT
  5
1A3
330
17
100
AcDbEntity
  8
CNC
370
-3
100
AcDbBlockReference
  2
ovan8.5x20
 10
3385.5923565767007
 20
1758.9521074354852
 30
0.0
 50
90.0
  0
INSERT
  5
1A5
330
17
100
AcDbEntity
  8
CNC
370
-3
100
AcDbBlockReference
  2
ovan8.5x20
 10
3425.5923565767007
 20
1758.9521074354852
 30
0.0
 41
-1.0
 50
270.0
  0
INSERT
  5
1A7
330
17
100
AcDbEntity
  8
CNC
370
-3
100
AcDbBlockReference
  2
ovan8.5x20
 10
3385.5923565767007
 20
1783.9521074354852
 30
0.0
 50
90.0
  0
INSERT
  5
1A9
330
17
100
AcDbEntity
  8
CNC
370
-3
100
AcDbBlockReference
  2
ovan8.5x20
 10
3425.5923565767007
 20
1783.9521074354852
 30
0.0
 41
-1.0
 50
270.0
  0
INSERT
  5
1AB
330
17
100
AcDbEntity
  8
CNC
370
-3
100
AcDbBlockReference
  2
ovan8.5x20
 10
3385.5923565767007
 20
1808.9521074354852
 30
0.0
 50
90.0
  0
INSERT
  5
1AD
330
17
100
AcDbEntity
  8
CNC
370
-3
100
AcDbBlockReference
  2
ovan8.5x20
 10
3425.5923565767007
 20
1808.9521074354852
 30
0.0
 41
-1.0
 50
270.0
  0
INSERT
  5
1AF
330
17
100
AcDbEntity
  8
CNC
370
-3
100
AcDbBlockReference
  2
ovan8.5x20
 10
3385.5923565767007
 20
1833.9521074354852
 30
0.0
 50
90.0
  0
INSERT
  5
1B1
330
17
100
AcDbEntity
  8
CNC
370
-3
100
AcDbBlockReference
  2
ovan8.5x20
 10
3425.5923565767007
 20
1833.9521074354852
 30
0.0
 41
-1.0
 50
270.0
  0
INSERT
  5
1B3
330
17
100
AcDbEntity
  8
CNC
370
-3
100
AcDbBlockReference
  2
ovan8.5x20
 10
3385.5923565767007
 20
1858.9521074354852
 30
0.0
 50
90.0
  0
INSERT
  5
1B5
330
17
100
AcDbEntity
  8
CNC
370
-3
100
AcDbBlockReference
  2
ovan8.5x20
 10
3425.5923565767007
 20
1858.9521074354852
 30
0.0
 41
-1.0
 50
270.0
  0
INSERT
  5
1B7
330
17
100
AcDbEntity
  8
CNC
370
-3
100
AcDbBlockReference
  2
ovan8.5x20
 10
3385.5923565767007
 20
1883.9521074354852
 30
0.0
 50
90.0
  0
INSERT
  5
1B9
330
17
100
AcDbEntity
  8
CNC
370
-3
100
AcDbBlockReference
  2
ovan8.5x20
 10
3425.5923565767007
 20
1883.9521074354852
 30
0.0
 41
-1.0
 50
270.0
  0
INSERT
  5
1BB
330
17
100
AcDbEntity
  8
CNC
370
-3
100
AcDbBlockReference
  2
ovan8.5x20
 10
3385.5923565767007
 20
1908.9521074354852
 30
0.0
 50
90.0
  0
INSERT
  5
1BD
330
17
100
AcDbEntity
  8
CNC
370
-3
100
AcDbBlockReference
  2
ovan8.5x20
 10
3425.5923565767007
 20
1908.9521074354852
 30
0.0
 41
-1.0
 50
270.0
  0
INSERT
  5
1BF
330
17
100
AcDbEntity
  8
CNC
370
-3
100
AcDbBlockReference
  2
ovan8.5x20
 10
3385.5923565767007
 20
1933.9521074354852
 30
0.0
 50
90.0
  0
INSERT
  5
1C1
330
17
100
AcDbEntity
  8
CNC
370
-3
100
AcDbBlockReference
  2
ovan8.5x20
 10
3425.5923565767007
 20
1933.9521074354852
 30
0.0
 41
-1.0
 50
270.0
  0
INSERT
  5
1C3
330
17
100
AcDbEntity
  8
CNC
370
-3
100
AcDbBlockReference
  2
ovan8.5x20
 10
3385.5923565767007
 20
1958.9521074354852
 30
0.0
 50
90.0
  0
INSERT
  5
1C5
330
17
100
AcDbEntity
  8
CNC
370
-3
100
AcDbBlockReference
  2
ovan8.5x20
 10
3425.5923565767007
 20
1958.9521074354852
 30
0.0
 41
-1.0
 50
270.0
  0
INSERT
  5
1C7
330
17
100
AcDbEntity
  8
CNC
370
-3
100
AcDbBlockReference
  2
ovan8.5x20
 10
3385.5923565767007
 20
1983.9521074354852
 30
0.0
 50
90.0
  0
INSERT
  5
1C9
330
17
100
AcDbEntity
  8
CNC
370
-3
100
AcDbBlockReference
  2
ovan8.5x20
 10
3425.5923565767007
 20
1983.9521074354852
 30
0.0
 41
-1.0
 50
270.0
  0
INSERT
  5
1CB
330
17
100
AcDbEntity
  8
CNC
370
-3
100
AcDbBlockReference
  2
ovan8.5x20
 10
3385.5923565767007
 20
2008.9521074354852
 30
0.0
 50
90.0
  0
INSERT
  5
1CD
330
17
100
AcDbEntity
  8
CNC
370
-3
100
AcDbBlockReference
  2
ovan8.5x20
 10
3425.5923565767007
 20
2008.9521074354852
 30
0.0
 41
-1.0
 50
270.0
  0
INSERT
  5
1CF
330
17
100
AcDbEntity
  8
CNC
370
-3
100
AcDbBlockReference
  2
ovan8.5x20
 10
3385.5923565767007
 20
2033.952107435478
 30
0.0
 50
90.0
  0
INSERT
  5
1D1
330
17
100
AcDbEntity
  8
CNC
370
-3
100
AcDbBlockReference
  2
ovan8.5x20
 10
3425.5923565767007
 20
2033.952107435478
 30
0.0
 41
-1.0
 50
270.0
  0
INSERT
  5
1D3
330
17
100
AcDbEntity
  8
CNC
370
-3
100
AcDbBlockReference
  2
ovan8.5x20
 10
3385.5923565767007
 20
2058.9521074354852
 30
0.0
 50
90.0
  0
INSERT
  5
1D5
330
17
100
AcDbEntity
  8
CNC
370
-3
100
AcDbBlockReference
  2
ovan8.5x20
 10
3425.5923565767007
 20
2058.9521074354852
 30
0.0
 41
-1.0
 50
270.0
  0
INSERT
  5
1D7
330
17
100
AcDbEntity
  8
CNC
370
-3
100
AcDbBlockReference
  2
ovan8.5x20
 10
3385.5923565767007
 20
2083.9521074354852
 30
0.0
 50
90.0
  0
INSERT
  5
1D9
330
17
100
AcDbEntity
  8
CNC
370
-3
100
AcDbBlockReference
  2
ovan8.5x20
 10
3425.5923565767007
 20
2083.9521074354852
 30
0.0
 41
-1.0
 50
270.0
  0
INSERT
  5
1DB
330
17
100
AcDbEntity
  8
CNC
370
-3
100
AcDbBlockReference
  2
ovan8.5x20
 10
3385.5923565767007
 20
2108.9521074354852
 30
0.0
 50
90.0
  0
INSERT
  5
1DD
330
17
100
AcDbEntity
  8
CNC
370
-3
100
AcDbBlockReference
  2
ovan8.5x20
 10
3425.5923565767007
 20
2108.9521074354852
 30
0.0
 41
-1.0
 50
270.0
  0
INSERT
  5
1DF
330
17
100
AcDbEntity
  8
CNC
370
-3
100
AcDbBlockReference
  2
ovan8.5x20
 10
3385.5923565767007
 20
2133.9521074354852
 30
0.0
 50
90.0
  0
INSERT
  5
1E1
330
17
100
AcDbEntity
  8
CNC
370
-3
100
AcDbBlockReference
  2
ovan8.5x20
 10
3425.5923565767007
 20
2133.9521074354852
 30
0.0
 41
-1.0
 50
270.0
  0
INSERT
  5
1E3
330
17
100
AcDbEntity
  8
CNC
370
-3
100
AcDbBlockReference
  2
ovan8.5x20
 10
3385.5923565767007
 20
2158.9521074354852
 30
0.0
 50
90.0
  0
INSERT
  5
1E5
330
17
100
AcDbEntity
  8
CNC
370
-3
100
AcDbBlockReference
  2
ovan8.5x20
 10
3425.5923565767007
 20
2158.9521074354852
 30
0.0
 41
-1.0
 50
270.0
  0
INSERT
  5
1E7
330
17
100
AcDbEntity
  8
CNC
370
-3
100
AcDbBlockReference
  2
ovan8.5x20
 10
3385.5923565767007
 20
2183.9521074354852
 30
0.0
 50
90.0
  0
INSERT
  5
1E9
330
17
100
AcDbEntity
  8
CNC
370
-3
100
AcDbBlockReference
  2
ovan8.5x20
 10
3425.5923565767007
 20
2183.9521074354852
 30
0.0
 41
-1.0
 50
270.0
  0
INSERT
  5
1EB
330
17
100
AcDbEntity
  8
CNC
370
-3
100
AcDbBlockReference
  2
ovan8.5x20
 10
3385.5923565767007
 20
2208.9521074354852
 30
0.0
 50
90.0
  0
INSERT
  5
1ED
330
17
100
AcDbEntity
  8
CNC
370
-3
100
AcDbBlockReference
  2
ovan8.5x20
 10
3425.5923565767007
 20
2208.9521074354852
 30
0.0
 41
-1.0
 50
270.0
  0
INSERT
  5
1EF
330
17
100
AcDbEntity
  8
CNC
370
-3
100
AcDbBlockReference
  2
ovan8.5x20
 10
3385.5923565767007
 20
2233.9521074354852
 30
0.0
 50
90.0
  0
INSERT
  5
1F1
330
17
100
AcDbEntity
  8
CNC
370
-3
100
AcDbBlockReference
  2
ovan8.5x20
 10
3425.5923565767007
 20
2233.9521074354852
 30
0.0
 41
-1.0
 50
270.0
  0
INSERT
  5
1F3
330
17
100
AcDbEntity
  8
CNC
370
-3
100
AcDbBlockReference
  2
ovan8.5x20
 10
3385.5923565767007
 20
2258.9521074354852
 30
0.0
 50
90.0
  0
INSERT
  5
1F5
330
17
100
AcDbEntity
  8
CNC
370
-3
100
AcDbBlockReference
  2
ovan8.5x20
 10
3425.5923565767007
 20
2258.9521074354852
 30
0.0
 41
-1.0
 50
270.0
  0
INSERT
  5
1F7
330
17
100
AcDbEntity
  8
CNC
370
-3
100
AcDbBlockReference
  2
ovan8.5x20
 10
3385.5923565767007
 20
2283.9521074354852
 30
0.0
 50
90.0
  0
INSERT
  5
1F9
330
17
100
AcDbEntity
  8
CNC
370
-3
100
AcDbBlockReference
  2
ovan8.5x20
 10
3425.5923565767007
 20
2283.9521074354852
 30
0.0
 41
-1.0
 50
270.0
  0
INSERT
  5
1FB
330
17
100
AcDbEntity
  8
CNC
370
-3
100
AcDbBlockReference
  2
ovan8.5x20
 10
3385.5923565767007
 20
2308.9521074354852
 30
0.0
 50
90.0
  0
INSERT
  5
1FD
330
17
100
AcDbEntity
  8
CNC
370
-3
100
AcDbBlockReference
  2
ovan8.5x20
 10
3425.5923565767007
 20
2308.9521074354852
 30
0.0
 41
-1.0
 50
270.0
  0
INSERT
  5
1FF
330
17
100
AcDbEntity
  8
CNC
370
-3
100
AcDbBlockReference
  2
ovan8.5x20
 10
3385.5923565767007
 20
2333.9521074354852
 30
0.0
 50
90.0
  0
INSERT
  5
201
330
17
100
AcDbEntity
  8
CNC
370
-3
100
AcDbBlockReference
  2
ovan8.5x20
 10
3425.5923565767007
 20
2333.9521074354852
 30
0.0
 41
-1.0
 50
270.0
  0
INSERT
  5
203
330
17
100
AcDbEntity
  8
CNC
370
-3
100
AcDbBlockReference
  2
ovan8.5x20
 10
3385.5923565767007
 20
2358.9521074354852
 30
0.0
 50
90.0
  0
INSERT
  5
205
330
17
100
AcDbEntity
  8
CNC
370
-3
100
AcDbBlockReference
  2
ovan8.5x20
 10
3425.5923565767007
 20
2358.9521074354852
 30
0.0
 41
-1.0
 50
270.0
  0
INSERT
  5
207
330
17
100
AcDbEntity
  8
CNC
370
-3
100
AcDbBlockReference
  2
ovan8.5x20
 10
3385.5923565767007
 20
2383.9521074354852
 30
0.0
 50
90.0
  0
INSERT
  5
209
330
17
100
AcDbEntity
  8
CNC
370
-3
100
AcDbBlockReference
  2
ovan8.5x20
 10
3425.5923565767007
 20
2383.9521074354852
 30
0.0
 41
-1.0
 50
270.0
  0
INSERT
  5
20B
330
17
100
AcDbEntity
  8
CNC
370
-3
100
AcDbBlockReference
  2
ovan8.5x20
 10
3385.5923565767007
 20
2408.9521074354852
 30
0.0
 50
90.0
  0
INSERT
  5
20D
330
17
100
AcDbEntity
  8
CNC
370
-3
100
AcDbBlockReference
  2
ovan8.5x20
 10
3425.5923565767007
 20
2408.9521074354852
 30
0.0
 41
-1.0
 50
270.0
  0
INSERT
  5
20F
330
17
100
AcDbEntity
  8
CNC
370
-3
100
AcDbBlockReference
  2
ovan8.5x20
 10
3385.5923565767007
 20
2433.9521074354852
 30
0.0
 50
90.0
  0
INSERT
  5
211
330
17
100
AcDbEntity
  8
CNC
370
-3
100
AcDbBlockReference
  2
ovan8.5x20
 10
3425.5923565767007
 20
2433.9521074354852
 30
0.0
 41
-1.0
 50
270.0
  0
INSERT
  5
213
330
17
100
AcDbEntity
  8
CNC
370
-3
100
AcDbBlockReference
  2
ovan8.5x20
 10
3385.5923565767007
 20
2458.9521074354852
 30
0.0
 50
90.0
  0
INSERT
  5
215
330
17
100
AcDbEntity
  8
CNC
370
-3
100
AcDbBlockReference
  2
ovan8.5x20
 10
3425.5923565767007
 20
2458.9521074354852
 30
0.0
 41
-1.0
 50
270.0
  0
INSERT
  5
217
330
17
100
AcDbEntity
  8
CNC
370
-3
100
AcDbBlockReference
  2
ovan8.5x20
 10
3385.5923565767007
 20
2483.9521074354852
 30
0.0
 50
90.0
  0
INSERT
  5
219
330
17
100
AcDbEntity
  8
CNC
370
-3
100
AcDbBlockReference
  2
ovan8.5x20
 10
3425.5923565767007
 20
2483.9521074354852
 30
0.0
 41
-1.0
 50
270.0
  0
INSERT
  5
21B
330
17
100
AcDbEntity
  8
CNC
370
-3
100
AcDbBlockReference
  2
ovan8.5x20
 10
3385.5923565767007
 20
2508.9521074354852
 30
0.0
 50
90.0
  0
INSERT
  5
21D
330
17
100
AcDbEntity
  8
CNC
370
-3
100
AcDbBlockReference
  2
ovan8.5x20
 10
3425.5923565767007
 20
2508.9521074354852
 30
0.0
 41
-1.0
 50
270.0
  0
INSERT
  5
21F
330
17
100
AcDbEntity
  8
CNC
370
-3
100
AcDbBlockReference
  2
ovan8.5x20
 10
3385.5923565767007
 20
2533.9521074354852
 30
0.0
 50
90.0
  0
INSERT
  5
221
330
17
100
AcDbEntity
  8
CNC
370
-3
100
AcDbBlockReference
  2
ovan8.5x20
 10
3425.5923565767007
 20
2533.9521074354852
 30
0.0
 41
-1.0
 50
270.0
  0
INSERT
  5
223
330
17
100
AcDbEntity
  8
CNC
370
-3
100
AcDbBlockReference
  2
ovan8.5x20
 10
3385.5923565767007
 20
2558.9521074354852
 30
0.0
 50
90.0
  0
INSERT
  5
225
330
17
100
AcDbEntity
  8
CNC
370
-3
100
AcDbBlockReference
  2
ovan8.5x20
 10
3425.5923565767007
 20
2558.9521074354852
 30
0.0
 41
-1.0
 50
270.0
  0
INSERT
  5
227
330
17
100
AcDbEntity
  8
CNC
370
-3
100
AcDbBlockReference
  2
ovan8.5x20
 10
3385.5923565767007
 20
2583.9521074354852
 30
0.0
 50
90.0
  0
INSERT
  5
229
330
17
100
AcDbEntity
  8
CNC
370
-3
100
AcDbBlockReference
  2
ovan8.5x20
 10
3425.5923565767007
 20
2583.9521074354852
 30
0.0
 41
-1.0
 50
270.0
  0
INSERT
  5
22B
330
17
100
AcDbEntity
  8
CNC
370
-3
100
AcDbBlockReference
  2
ovan8.5x20
 10
3385.5923565767007
 20
2608.9521074354852
 30
0.0
 50
90.0
  0
INSERT
  5
22D
330
17
100
AcDbEntity
  8
CNC
370
-3
100
AcDbBlockReference
  2
ovan8.5x20
 10
3425.5923565767007
 20
2608.9521074354852
 30
0.0
 41
-1.0
 50
270.0
  0
INSERT
  5
22F
330
17
100
AcDbEntity
  8
CNC
370
-3
100
AcDbBlockReference
  2
ovan8.5x20
 10
3385.5923565767007
 20
2633.9521074354852
 30
0.0
 50
90.0
  0
INSERT
  5
231
330
17
100
AcDbEntity
  8
CNC
370
-3
100
AcDbBlockReference
  2
ovan8.5x20
 10
3425.5923565767007
 20
2633.9521074354852
 30
0.0
 41
-1.0
 50
270.0
  0
INSERT
  5
233
330
17
100
AcDbEntity
  8
CNC
370
-3
100
AcDbBlockReference
  2
ovan8.5x20
 10
3385.5923565767007
 20
2658.952107435478
 30
0.0
 50
90.0
  0
INSERT
  5
235
330
17
100
AcDbEntity
  8
CNC
370
-3
100
AcDbBlockReference
  2
ovan8.5x20
 10
3425.5923565767007
 20
2658.952107435478
 30
0.0
 41
-1.0
 50
270.0
  0
INSERT
  5
237
330
17
100
AcDbEntity
  8
CNC
370
-3
100
AcDbBlockReference
  2
ovan8.5x20
 10
3385.5923565767007
 20
2683.9521074354852
 30
0.0
 50
90.0
  0
INSERT
  5
239
330
17
100
AcDbEntity
  8
CNC
370
-3
100
AcDbBlockReference
  2
ovan8.5x20
 10
3425.5923565767007
 20
2683.9521074354852
 30
0.0
 41
-1.0
 50
270.0
  0
INSERT
  5
23B
330
17
100
AcDbEntity
  8
CNC
370
-3
100
AcDbBlockReference
  2
ovan8.5x20
 10
3385.5923565767007
 20
2708.9521074354852
 30
0.0
 50
90.0
  0
INSERT
  5
23D
330
17
100
AcDbEntity
  8
CNC
370
-3
100
AcDbBlockReference
  2
ovan8.5x20
 10
3425.5923565767007
 20
2708.9521074354852
 30
0.0
 41
-1.0
 50
270.0
  0
INSERT
  5
23F
330
17
100
AcDbEntity
  8
CNC
370
-3
100
AcDbBlockReference
  2
ovan8.5x20
 10
3385.5923565767007
 20
1258.9521074354852
 30
0.0
 50
90.0
  0
INSERT
  5
241
330
17
100
AcDbEntity
  8
CNC
370
-3
100
AcDbBlockReference
  2
ovan8.5x20
 10
3425.5923565767007
 20
1258.9521074354852
 30
0.0
 41
-1.0
 50
270.0
  0
MTEXT
  5
243
330
17
100
AcDbEntity
  8
0
 62
2
100
AcDbMText
 10
3428.688348582393
 20
1119.9981839948668
 30
0.0
 40
25.0
 41
1072.000000000014
 46
100.0000000000031
 71
5
 72
5
  1
V : 2 tấm
  0
LINE
  5
244
330
17
100
AcDbEntity
  8
0
 62
7
100
AcDbLine
 10
2064.3046167249995
 20
757.891392766207
 30
0.0
 11
2139.3046167249995
 21
757.891392766207
 31
0.0
  0
LINE
  5
245
330
17
100
AcDbEntity
  8
0
 62
7
100
AcDbLine
 10
2139.3046167249995
 20
757.891392766207
 30
0.0
 11
2139.3046167249995
 21
427.891392766207
 31
0.0
  0
LINE
  5
246
330
17
100
AcDbEntity
  8
0
 62
7
100
AcDbLine
 10
2139.3046167249995
 20
427.891392766207
 30
0.0
 11
2064.3046167249995
 21
427.891392766207
 31
0.0
  0
LINE
  5
247
330
17
100
AcDbEntity
  8
0
 62
7
100
AcDbLine
 10
2064.3046167249995
 20
427.891392766207
 30
0.0
 11
2064.3046167249995
 21
757.891392766207
 31
0.0
  0
LINE
  5
248
330
17
100
AcDbEntity
  8
0
 62
7
100
AcDbLine
 10
2079.3046167249995
 20
427.891392766207
 30
0.0
 11
2079.3046167249995
 21
757.891392766207
 31
0.0
  0
LINE
  5
249
330
17
100
AcDbEntity
  8
0
 62
7
100
AcDbLine
 10
2109.3046167249995
 20
427.891392766207
 30
0.0
 11
2109.3046167249995
 21
757.891392766207
 31
0.0
  0
CIRCLE
  5
24A
330
17
100
AcDbEntity
  8
0
 62
2
100
AcDbCircle
 10
2071.8046167249995
 20
553.641392766207
 30
0.0
 40
3.0
  0
CIRCLE
  5
24B
330
17
100
AcDbEntity
  8
0
 62
2
100
AcDbCircle
 10
2071.8046167249995
 20
513.641392766207
 30
0.0
 40
3.0
  0
CIRCLE
  5
24C
330
17
100
AcDbEntity
  8
0
 62
2
100
AcDbCircle
 10
2071.8046167249995
 20
473.641392766207
 30
0.0
 40
3.0
  0
CIRCLE
  5
24D
330
17
100
AcDbEntity
  8
0
 62
2
100
AcDbCircle
 10
2071.8046167249995
 20
437.891392766207
 30
0.0
 40
3.0
  0
INSERT
  5
24E
330
17
100
AcDbEntity
  8
0
370
-3
100
AcDbBlockReference
  2
f3daunguoc
 10
2109.3046167249995
 20
437.8913927661997
 30
0.0
 41
-1.0
 50
270.0
  0
INSERT
  5
250
330
17
100
AcDbEntity
  8
0
370
-3
100
AcDbBlockReference
  2
f2dauxuoi
 10
2079.3046167249995
 20
437.8913927661997
 30
0.0
 50
180.0
  0
INSERT
  5
252
330
17
100
AcDbEntity
  8
0
370
-3
100
AcDbBlockReference
  2
f3daunguoc
 10
2109.3046167249995
 20
747.8913927662215
 30
0.0
 50
270.0
  0
INSERT
  5
254
330
17
100
AcDbEntity
  8
0
370
-3
100
AcDbBlockReference
  2
f2dauxuoi
 10
2079.3046167249995
 20
747.8913927662215
 30
0.0
 41
-1.0
  0
INSERT
  5
256
330
17
100
AcDbEntity
  8
0
370
-3
100
AcDbBlockReference
  2
f3daunguoc
 10
2109.3046167249995
 20
747.8913927662215
 30
0.0
 50
270.0
  0
CIRCLE
  5
258
330
17
100
AcDbEntity
  8
0
 62
2
100
AcDbCircle
 10
2071.8046167249995
 20
592.141392766207
 30
0.0
 40
3.0
  0
CIRCLE
  5
259
330
17
100
AcDbEntity
  8
0
 62
2
100
AcDbCircle
 10
2071.8046167249995
 20
632.141392766207
 30
0.0
 40
3.0
  0
INSERT
  5
25A
330
17
100
AcDbEntity
  8
CNC
370
-3
100
AcDbBlockReference
  2
ovan8.5x20
 10
2124.3046167249995
 20
605.3913927662215
 30
0.0
 41
-1.0
 50
270.0
  0
INSERT
  5
25C
330
17
100
AcDbEntity
  8
CNC
370
-3
100
AcDbBlockReference
  2
ovan8.5x20
 10
2124.3046167249995
 20
630.3913927662215
 30
0.0
 41
-1.0
 50
270.0
  0
INSERT
  5
25E
330
17
100
AcDbEntity
  8
CNC
370
-3
100
AcDbBlockReference
  2
ovan8.5x20
 10
2124.3046167249995
 20
655.3913927662215
 30
0.0
 41
-1.0
 50
270.0
  0
INSERT
  5
260
330
17
100
AcDbEntity
  8
CNC
370
-3
100
AcDbBlockReference
  2
ovan8.5x20
 10
2124.3046167249995
 20
680.3913927662215
 30
0.0
 41
-1.0
 50
270.0
  0
INSERT
  5
262
330
17
100
AcDbEntity
  8
CNC
370
-3
100
AcDbBlockReference
  2
ovan8.5x20
 10
2124.3046167249995
 20
705.3913927662215
 30
0.0
 41
-1.0
 50
270.0
  0
INSERT
  5
264
330
17
100
AcDbEntity
  8
CNC
370
-3
100
AcDbBlockReference
  2
ovan8.5x20
 10
2124.3046167249995
 20
730.3913927662215
 30
0.0
 41
-1.0
 50
270.0
  0
INSERT
  5
266
330
17
100
AcDbEntity
  8
CNC
370
-3
100
AcDbBlockReference
  2
ovan8.5x20
 10
2124.3046167249995
 20
580.391392766207
 30
0.0
 50
270.0
  0
INSERT
  5
268
330
17
100
AcDbEntity
  8
CNC
370
-3
100
AcDbBlockReference
  2
ovan8.5x20
 10
2124.3046167249995
 20
555.3913927661997
 30
0.0
 50
270.0
  0
INSERT
  5
26A
330
17
100
AcDbEntity
  8
CNC
370
-3
100
AcDbBlockReference
  2
ovan8.5x20
 10
2124.3046167249995
 20
530.391392766207
 30
0.0
 50
270.0
  0
INSERT
  5
26C
330
17
100
AcDbEntity
  8
CNC
370
-3
100
AcDbBlockReference
  2
ovan8.5x20
 10
2124.3046167249995
 20
505.3913927661997
 30
0.0
 50
270.0
  0
INSERT
  5
26E
330
17
100
AcDbEntity
  8
CNC
370
-3
100
AcDbBlockReference
  2
ovan8.5x20
 10
2124.3046167249995
 20
480.391392766207
 30
0.0
 50
270.0
  0
INSERT
  5
270
330
17
100
AcDbEntity
  8
CNC
370
-3
100
AcDbBlockReference
  2
ovan8.5x20
 10
2124.3046167249995
 20
455.3913927661997
 30
0.0
 50
270.0
  0
CIRCLE
  5
272
330
17
100
AcDbEntity
  8
0
 62
2
100
AcDbCircle
 10
2071.8046167249995
 20
672.141392766207
 30
0.0
 40
3.0
  0
CIRCLE
  5
273
330
17
100
AcDbEntity
  8
0
 62
2
100
AcDbCircle
 10
2071.8046167249995
 20
710.641392766207
 30
0.0
 40
3.0
  0
CIRCLE
  5
274
330
17
100
AcDbEntity
  8
0
 62
2
100
AcDbCircle
 10
2071.8046167249995
 20
750.641392766207
 30
0.0
 40
3.0
  0
MTEXT
  5
275
330
17
100
AcDbEntity
  8
0
 62
2
100
AcDbMText
 10
2109.195307279195
 20
378.36679672728496
 30
0.0
 40
25.0
 41
775.0000000000146
 46
100.0000000000031
 71
5
 72
5
  1
Thanh gá: 4 tấm
  0
CIRCLE
  5
276
330
17
100
AcDbEntity
  8
0
 62
2
 48
3.0
100
AcDbCircle
 10
2735.2843514202978
 20
2631.9521074354852
 30
0.0
 40
11.5
  0
CIRCLE
  5
277
330
17
100
AcDbEntity
  8
0
 62
2
 48
3.0
100
AcDbCircle
 10
2815.2843514202978
 20
2631.9521074354852
 30
0.0
 40
11.5
  0
CIRCLE
  5
278
330
17
100
AcDbEntity
  8
0
 62
2
 48
3.0
100
AcDbCircle
 10
2895.2843514202978
 20
2631.9521074354852
 30
0.0
 40
11.5
  0
LWPOLYLINE
  5
279
330
17
100
AcDbEntity
  8
0
 62
2
100
AcDbPolyline
 90
4
 70
1
 10
1651.577489441901
 20
2000.952107435478
 10
1665.577489441901
 20
2000.952107435478
 10
1665.577489441901
 20
1991.9521074354852
 10
1651.577489441901
 20
1991.9521074354852
  0
LWPOLYLINE
  5
27A
330
17
100
AcDbEntity
  8
0
 62
2
100
AcDbPolyline
 90
4
 70
1
 10
1651.577489441901
 20
1975.9521074354998
 10
1665.577489441901
 20
1975.9521074354998
 10
1665.577489441901
 20
1966.9521074354998
 10
1651.577489441901
 20
1966.9521074354998
  0
LWPOLYLINE
  5
27B
330
17
100
AcDbEntity
  8
0
 62
2
100
AcDbPolyline
 90
6
 70
1
 10
635.3592516112985
 20
1520.4521074354707
 10
699.3592516112985
 20
1520.4521074354707
 42
-0.4142135623730951
 10
707.3592516112985
 20
1512.4521074354707
 10
707.3592516112985
 20
1509.4521074354707
 10
627.3592516112985
 20
1509.4521074354707
 10
627.3592516112985
 20
1512.4521074354707
 42
-0.4142135623730951
  0
LWPOLYLINE
  5
27C
330
17
100
AcDbEntity
  8
0
 62
2
100
AcDbPolyline
 90
6
 70
1
 10
635.3592516112985
 20
1489.4521074354707
 10
699.3592516112985
 20
1489.4521074354707
 42
-0.4142135623730951
 10
707.3592516112985
 20
1481.452107435478
 10
707.3592516112985
 20
1478.4521074354707
 10
627.3592516112985
 20
1478.4521074354707
 10
627.3592516112985
 20
1481.452107435478
 42
-0.4142135623730951
  0
LWPOLYLINE
  5
27D
330
17
100
AcDbEntity
  8
0
 62
2
100
AcDbPolyline
 90
6
 70
1
 10
635.3592516112985
 20
1551.4521074354707
 10
699.3592516112985
 20
1551.4521074354707
 42
-0.4142135623730951
 10
707.3592516112985
 20
1543.4521074354707
 10
707.3592516112985
 20
1540.4521074354707
 10
627.3592516112985
 20
1540.4521074354707
 10
627.3592516112985
 20
1543.4521074354707
 42
-0.4142135623730951
  0
LWPOLYLINE
  5
27E
330
17
100
AcDbEntity
  8
0
 62
2
100
AcDbPolyline
 90
6
 70
1
 10
635.3592516112985
 20
1458.452107435478
 10
699.3592516112985
 20
1458.452107435478
 42
-0.4142135623730951
 10
707.3592516112985
 20
1450.452107435478
 10
707.3592516112985
 20
1447.452107435478
 10
627.3592516112985
 20
1447.452107435478
 10
627.3592516112985
 20
1450.452107435478
 42
-0.4142135623730951
  0
LWPOLYLINE
  5
27F
330
17
100
AcDbEntity
  8
0
 62
2
100
AcDbPolyline
 90
6
 70
1
 10
635.3592516112985
 20
1427.452107435478
 10
699.3592516112985
 20
1427.452107435478
 42
-0.4142135623730951
 10
707.3592516112985
 20
1419.452107435478
 10
707.3592516112985
 20
1416.452107435478
 10
627.3592516112985
 20
1416.452107435478
 10
627.3592516112985
 20
1419.452107435478
 42
-0.4142135623730951
  0
LWPOLYLINE
  5
280
330
17
100
AcDbEntity
  8
0
 62
2
100
AcDbPolyline
 90
6
 70
1
 10
635.3592516112985
 20
1396.452107435478
 10
699.3592516112985
 20
1396.452107435478
 42
-0.4142135623730951
 10
707.3592516112985
 20
1388.4521074354707
 10
707.3592516112985
 20
1385.452107435478
 10
627.3592516112985
 20
1385.452107435478
 10
627.3592516112985
 20
1388.4521074354707
 42
-0.4142135623730951
  0
LWPOLYLINE
  5
281
330
17
100
AcDbEntity
  8
0
 62
2
100
AcDbPolyline
 90
6
 70
1
 10
552.4032913816045
 20
1520.4521074354707
 10
488.4032913816045
 20
1520.4521074354707
 42
0.4142135623730951
 10
480.40329138150264
 20
1512.4521074354707
 10
480.40329138150264
 20
1509.4521074354707
 10
560.4032913816045
 20
1509.4521074354707
 10
560.4032913816045
 20
1512.4521074354707
 42
0.4142135623730951
  0
LWPOLYLINE
  5
282
330
17
100
AcDbEntity
  8
0
 62
2
100
AcDbPolyline
 90
6
 70
1
 10
552.4032913816045
 20
1489.4521074354707
 10
488.4032913816045
 20
1489.4521074354707
 42
0.4142135623730951
 10
480.40329138150264
 20
1481.452107435478
 10
480.40329138150264
 20
1478.4521074354707
 10
560.4032913816045
 20
1478.4521074354707
 10
560.4032913816045
 20
1481.452107435478
 42
0.4142135623730951
  0
LWPOLYLINE
  5
283
330
17
100
AcDbEntity
  8
0
 62
2
100
AcDbPolyline
 90
6
 70
1
 10
552.4032913816045
 20
1551.4521074354707
 10
488.4032913816045
 20
1551.4521074354707
 42
0.4142135623730951
 10
480.40329138150264
 20
1543.4521074354707
 10
480.40329138150264
 20
1540.4521074354707
 10
560.4032913816045
 20
1540.4521074354707
 10
560.4032913816045
 20
1543.4521074354707
 42
0.4142135623730951
  0
LWPOLYLINE
  5
284
330
17
100
AcDbEntity
  8
0
 62
2
100
AcDbPolyline
 90
6
 70
1
 10
552.4032913816045
 20
1458.452107435478
 10
488.4032913816045
 20
1458.452107435478
 42
0.4142135623730951
 10
480.40329138150264
 20
1450.452107435478
 10
480.40329138150264
 20
1447.452107435478
 10
560.4032913816045
 20
1447.452107435478
 10
560.4032913816045
 20
1450.452107435478
 42
0.4142135623730951
  0
LWPOLYLINE
  5
285
330
17
100
AcDbEntity
  8
0
 62
2
100
AcDbPolyline
 90
6
 70
1
 10
552.4032913816045
 20
1427.452107435478
 10
488.4032913816045
 20
1427.452107435478
 42
0.4142135623730951
 10
480.40329138150264
 20
1419.452107435478
 10
480.40329138150264
 20
1416.452107435478
 10
560.4032913816045
 20
1416.452107435478
 10
560.4032913816045
 20
1419.452107435478
 42
0.4142135623730951
  0
LWPOLYLINE
  5
286
330
17
100
AcDbEntity
  8
0
 62
2
100
AcDbPolyline
 90
6
 70
1
 10
552.4032913816045
 20
1396.452107435478
 10
488.4032913816045
 20
1396.452107435478
 42
0.4142135623730951
 10
480.40329138150264
 20
1388.4521074354707
 10
480.40329138150264
 20
1385.452107435478
 10
560.4032913816045
 20
1385.452107435478
 10
560.4032913816045
 20
1388.4521074354707
 42
0.4142135623730951
  0
LWPOLYLINE
  5
287
330
17
100
AcDbEntity
  8
0
 62
2
100
AcDbPolyline
 90
6
 70
1
 10
635.3592516112985
 20
2552.9521074354707
 10
699.3592516112985
 20
2552.9521074354707
 42
-0.4142135623730951
 10
707.3592516112985
 20
2544.952107435478
 10
707.3592516112985
 20
2541.9521074354707
 10
627.3592516112985
 20
2541.9521074354707
 10
627.3592516112985
 20
2544.952107435478
 42
-0.4142135623730951
  0
LWPOLYLINE
  5
288
330
17
100
AcDbEntity
  8
0
 62
2
100
AcDbPolyline
 90
6
 70
1
 10
635.3592516112985
 20
2521.952107435478
 10
699.3592516112985
 20
2521.952107435478
 42
-0.4142135623730951
 10
707.3592516112985
 20
2513.952107435478
 10
707.3592516112985
 20
2510.9521074354707
 10
627.3592516112985
 20
2510.9521074354707
 10
627.3592516112985
 20
2513.952107435478
 42
-0.4142135623730951
  0
LWPOLYLINE
  5
289
330
17
100
AcDbEntity
  8
0
 62
2
100
AcDbPolyline
 90
6
 70
1
 10
635.3592516112985
 20
2583.9521074354707
 10
699.3592516112985
 20
2583.9521074354707
 42
-0.4142135623730951
 10
707.3592516112985
 20
2575.9521074354707
 10
707.3592516112985
 20
2572.9521074354707
 10
627.3592516112985
 20
2572.9521074354707
 10
627.3592516112985
 20
2575.9521074354707
 42
-0.4142135623730951
  0
LWPOLYLINE
  5
28A
330
17
100
AcDbEntity
  8
0
 62
2
100
AcDbPolyline
 90
6
 70
1
 10
635.3592516112985
 20
2490.952107435478
 10
699.3592516112985
 20
2490.952107435478
 42
-0.4142135623730951
 10
707.3592516112985
 20
2482.952107435478
 10
707.3592516112985
 20
2479.952107435478
 10
627.3592516112985
 20
2479.952107435478
 10
627.3592516112985
 20
2482.952107435478
 42
-0.4142135623730951
  0
LWPOLYLINE
  5
28B
330
17
100
AcDbEntity
  8
0
 62
2
100
AcDbPolyline
 90
6
 70
1
 10
635.3592516112985
 20
2459.952107435478
 10
699.3592516112985
 20
2459.952107435478
 42
-0.4142135623730951
 10
707.3592516112985
 20
2451.952107435478
 10
707.3592516112985
 20
2448.952107435478
 10
627.3592516112985
 20
2448.952107435478
 10
627.3592516112985
 20
2451.952107435478
 42
-0.4142135623730951
  0
LWPOLYLINE
  5
28C
330
17
100
AcDbEntity
  8
0
 62
2
100
AcDbPolyline
 90
6
 70
1
 10
635.3592516112985
 20
2428.952107435478
 10
699.3592516112985
 20
2428.952107435478
 42
-0.4142135623730951
 10
707.3592516112985
 20
2420.9521074354707
 10
707.3592516112985
 20
2417.952107435478
 10
627.3592516112985
 20
2417.952107435478
 10
627.3592516112985
 20
2420.9521074354707
 42
-0.4142135623730951
  0
LWPOLYLINE
  5
28D
330
17
100
AcDbEntity
  8
0
 62
2
100
AcDbPolyline
 90
6
 70
1
 10
552.4032913816045
 20
2552.9521074354707
 10
488.4032913816045
 20
2552.9521074354707
 42
0.4142135623730951
 10
480.40329138150264
 20
2544.952107435478
 10
480.40329138150264
 20
2541.9521074354707
 10
560.4032913816045
 20
2541.9521074354707
 10
560.4032913816045
 20
2544.952107435478
 42
0.4142135623730951
  0
LWPOLYLINE
  5
28E
330
17
100
AcDbEntity
  8
0
 62
2
100
AcDbPolyline
 90
6
 70
1
 10
552.4032913816045
 20
2521.952107435478
 10
488.4032913816045
 20
2521.952107435478
 42
0.4142135623730951
 10
480.40329138150264
 20
2513.952107435478
 10
480.40329138150264
 20
2510.9521074354707
 10
560.4032913816045
 20
2510.9521074354707
 10
560.4032913816045
 20
2513.952107435478
 42
0.4142135623730951
  0
LWPOLYLINE
  5
28F
330
17
100
AcDbEntity
  8
0
 62
2
100
AcDbPolyline
 90
6
 70
1
 10
552.4032913816045
 20
2583.9521074354707
 10
488.4032913816045
 20
2583.9521074354707
 42
0.4142135623730951
 10
480.40329138150264
 20
2575.9521074354707
 10
480.40329138150264
 20
2572.9521074354707
 10
560.4032913816045
 20
2572.9521074354707
 10
560.4032913816045
 20
2575.9521074354707
 42
0.4142135623730951
  0
LWPOLYLINE
  5
290
330
17
100
AcDbEntity
  8
0
 62
2
100
AcDbPolyline
 90
6
 70
1
 10
552.4032913816045
 20
2490.952107435478
 10
488.4032913816045
 20
2490.952107435478
 42
0.4142135623730951
 10
480.40329138150264
 20
2482.952107435478
 10
480.40329138150264
 20
2479.952107435478
 10
560.4032913816045
 20
2479.952107435478
 10
560.4032913816045
 20
2482.952107435478
 42
0.4142135623730951
  0
LWPOLYLINE
  5
291
330
17
100
AcDbEntity
  8
0
 62
2
100
AcDbPolyline
 90
6
 70
1
 10
552.4032913816045
 20
2459.952107435478
 10
488.4032913816045
 20
2459.952107435478
 42
0.4142135623730951
 10
480.40329138150264
 20
2451.952107435478
 10
480.40329138150264
 20
2448.952107435478
 10
560.4032913816045
 20
2448.952107435478
 10
560.4032913816045
 20
2451.952107435478
 42
0.4142135623730951
  0
LWPOLYLINE
  5
292
330
17
100
AcDbEntity
  8
0
 62
2
100
AcDbPolyline
 90
6
 70
1
 10
552.4032913816045
 20
2428.952107435478
 10
488.4032913816045
 20
2428.952107435478
 42
0.4142135623730951
 10
480.40329138150264
 20
2420.9521074354707
 10
480.40329138150264
 20
2417.952107435478
 10
560.4032913816045
 20
2417.952107435478
 10
560.4032913816045
 20
2420.9521074354707
 42
0.4142135623730951
  0
LWPOLYLINE
  5
293
330
17
100
AcDbEntity
  8
0
 62
2
100
AcDbPolyline
 90
6
 70
1
 10
1898.055469556799
 20
1520.4521074354707
 10
1962.055469556799
 20
1520.4521074354707
 42
-0.4142135623730951
 10
1970.055469556799
 20
1512.4521074354707
 10
1970.055469556799
 20
1509.4521074354707
 10
1890.055469556799
 20
1509.4521074354707
 10
1890.055469556799
 20
1512.4521074354707
 42
-0.4142135623730951
  0
LWPOLYLINE
  5
294
330
17
100
AcDbEntity
  8
0
 62
2
100
AcDbPolyline
 90
6
 70
1
 10
1898.055469556799
 20
1489.4521074354707
 10
1962.055469556799
 20
1489.4521074354707
 42
-0.4142135623730951
 10
1970.055469556799
 20
1481.452107435478
 10
1970.055469556799
 20
1478.4521074354707
 10
1890.055469556799
 20
1478.4521074354707
 10
1890.055469556799
 20
1481.452107435478
 42
-0.4142135623730951
  0
LWPOLYLINE
  5
295
330
17
100
AcDbEntity
  8
0
 62
2
100
AcDbPolyline
 90
6
 70
1
 10
1898.055469556799
 20
1551.4521074354707
 10
1962.055469556799
 20
1551.4521074354707
 42
-0.4142135623730951
 10
1970.055469556799
 20
1543.4521074354707
 10
1970.055469556799
 20
1540.4521074354707
 10
1890.055469556799
 20
1540.4521074354707
 10
1890.055469556799
 20
1543.4521074354707
 42
-0.4142135623730951
  0
LWPOLYLINE
  5
296
330
17
100
AcDbEntity
  8
0
 62
2
100
AcDbPolyline
 90
6
 70
1
 10
1898.055469556799
 20
1458.452107435478
 10
1962.055469556799
 20
1458.452107435478
 42
-0.4142135623730951
 10
1970.055469556799
 20
1450.452107435478
 10
1970.055469556799
 20
1447.452107435478
 10
1890.055469556799
 20
1447.452107435478
 10
1890.055469556799
 20
1450.452107435478
 42
-0.4142135623730951
  0
LWPOLYLINE
  5
297
330
17
100
AcDbEntity
  8
0
 62
2
100
AcDbPolyline
 90
6
 70
1
 10
1898.055469556799
 20
1427.452107435478
 10
1962.055469556799
 20
1427.452107435478
 42
-0.4142135623730951
 10
1970.055469556799
 20
1419.452107435478
 10
1970.055469556799
 20
1416.452107435478
 10
1890.055469556799
 20
1416.452107435478
 10
1890.055469556799
 20
1419.452107435478
 42
-0.4142135623730951
  0
LWPOLYLINE
  5
298
330
17
100
AcDbEntity
  8
0
 62
2
100
AcDbPolyline
 90
6
 70
1
 10
1898.055469556799
 20
1396.452107435478
 10
1962.055469556799
 20
1396.452107435478
 42
-0.4142135623730951
 10
1970.055469556799
 20
1388.4521074354707
 10
1970.055469556799
 20
1385.452107435478
 10
1890.055469556799
 20
1385.452107435478
 10
1890.055469556799
 20
1388.4521074354707
 42
-0.4142135623730951
  0
LWPOLYLINE
  5
299
330
17
100
AcDbEntity
  8
0
 62
2
100
AcDbPolyline
 90
6
 70
1
 10
1815.099509327105
 20
1520.4521074354707
 10
1751.099509327105
 20
1520.4521074354707
 42
0.4142135623730951
 10
1743.099509327105
 20
1512.4521074354707
 10
1743.099509327105
 20
1509.4521074354707
 10
1823.099509327003
 20
1509.4521074354707
 10
1823.099509327003
 20
1512.4521074354707
 42
0.4142135623730951
  0
LWPOLYLINE
  5
29A
330
17
100
AcDbEntity
  8
0
 62
2
100
AcDbPolyline
 90
6
 70
1
 10
1815.099509327105
 20
1489.4521074354707
 10
1751.099509327105
 20
1489.4521074354707
 42
0.4142135623730951
 10
1743.099509327105
 20
1481.452107435478
 10
1743.099509327105
 20
1478.4521074354707
 10
1823.099509327003
 20
1478.4521074354707
 10
1823.099509327003
 20
1481.452107435478
 42
0.4142135623730951
  0
LWPOLYLINE
  5
29B
330
17
100
AcDbEntity
  8
0
 62
2
100
AcDbPolyline
 90
6
 70
1
 10
1815.099509327105
 20
1551.4521074354707
 10
1751.099509327105
 20
1551.4521074354707
 42
0.4142135623730951
 10
1743.099509327105
 20
1543.4521074354707
 10
1743.099509327105
 20
1540.4521074354707
 10
1823.099509327003
 20
1540.4521074354707
 10
1823.099509327003
 20
1543.4521074354707
 42
0.4142135623730951
  0
LWPOLYLINE
  5
29C
330
17
100
AcDbEntity
  8
0
 62
2
100
AcDbPolyline
 90
6
 70
1
 10
1815.099509327105
 20
1458.452107435478
 10
1751.099509327105
 20
1458.452107435478
 42
0.4142135623730951
 10
1743.099509327105
 20
1450.452107435478
 10
1743.099509327105
 20
1447.452107435478
 10
1823.099509327003
 20
1447.452107435478
 10
1823.099509327003
 20
1450.452107435478
 42
0.4142135623730951
  0
LWPOLYLINE
  5
29D
330
17
100
AcDbEntity
  8
0
 62
2
100
AcDbPolyline
 90
6
 70
1
 10
1815.099509327105
 20
1427.452107435478
 10
1751.099509327105
 20
1427.452107435478
 42
0.4142135623730951
 10
1743.099509327105
 20
1419.452107435478
 10
1743.099509327105
 20
1416.452107435478
 10
1823.099509327003
 20
1416.452107435478
 10
1823.099509327003
 20
1419.452107435478
 42
0.4142135623730951
  0
LWPOLYLINE
  5
29E
330
17
100
AcDbEntity
  8
0
 62
2
100
AcDbPolyline
 90
6
 70
1
 10
1815.099509327105
 20
1396.452107435478
 10
1751.099509327105
 20
1396.452107435478
 42
0.4142135623730951
 10
1743.099509327105
 20
1388.4521074354707
 10
1743.099509327105
 20
1385.452107435478
 10
1823.099509327003
 20
1385.452107435478
 10
1823.099509327003
 20
1388.4521074354707
 42
0.4142135623730951
  0
LWPOLYLINE
  5
29F
330
17
100
AcDbEntity
  8
0
 62
2
100
AcDbPolyline
 90
6
 70
1
 10
1898.055469556799
 20
2552.9521074354707
 10
1962.055469556799
 20
2552.9521074354707
 42
-0.4142135623730951
 10
1970.055469556799
 20
2544.952107435478
 10
1970.055469556799
 20
2541.9521074354707
 10
1890.055469556799
 20
2541.9521074354707
 10
1890.055469556799
 20
2544.952107435478
 42
-0.4142135623730951
  0
LWPOLYLINE
  5
2A0
330
17
100
AcDbEntity
  8
0
 62
2
100
AcDbPolyline
 90
6
 70
1
 10
1898.055469556799
 20
2521.952107435478
 10
1962.055469556799
 20
2521.952107435478
 42
-0.4142135623730951
 10
1970.055469556799
 20
2513.952107435478
 10
1970.055469556799
 20
2510.9521074354707
 10
1890.055469556799
 20
2510.9521074354707
 10
1890.055469556799
 20
2513.952107435478
 42
-0.4142135623730951
  0
LWPOLYLINE
  5
2A1
330
17
100
AcDbEntity
  8
0
 62
2
100
AcDbPolyline
 90
6
 70
1
 10
1898.055469556799
 20
2583.9521074354707
 10
1962.055469556799
 20
2583.9521074354707
 42
-0.4142135623730951
 10
1970.055469556799
 20
2575.9521074354707
 10
1970.055469556799
 20
2572.9521074354707
 10
1890.055469556799
 20
2572.9521074354707
 10
1890.055469556799
 20
2575.9521074354707
 42
-0.4142135623730951
  0
LWPOLYLINE
  5
2A2
330
17
100
AcDbEntity
  8
0
 62
2
100
AcDbPolyline
 90
6
 70
1
 10
1898.055469556799
 20
2490.952107435478
 10
1962.055469556799
 20
2490.952107435478
 42
-0.4142135623730951
 10
1970.055469556799
 20
2482.952107435478
 10
1970.055469556799
 20
2479.952107435478
 10
1890.055469556799
 20
2479.952107435478
 10
1890.055469556799
 20
2482.952107435478
 42
-0.4142135623730951
  0
LWPOLYLINE
  5
2A3
330
17
100
AcDbEntity
  8
0
 62
2
100
AcDbPolyline
 90
6
 70
1
 10
1898.055469556799
 20
2459.952107435478
 10
1962.055469556799
 20
2459.952107435478
 42
-0.4142135623730951
 10
1970.055469556799
 20
2451.952107435478
 10
1970.055469556799
 20
2448.952107435478
 10
1890.055469556799
 20
2448.952107435478
 10
1890.055469556799
 20
2451.952107435478
 42
-0.4142135623730951
  0
LWPOLYLINE
  5
2A4
330
17
100
AcDbEntity
  8
0
 62
2
100
AcDbPolyline
 90
6
 70
1
 10
1898.055469556799
 20
2428.952107435478
 10
1962.055469556799
 20
2428.952107435478
 42
-0.4142135623730951
 10
1970.055469556799
 20
2420.9521074354707
 10
1970.055469556799
 20
2417.952107435478
 10
1890.055469556799
 20
2417.952107435478
 10
1890.055469556799
 20
2420.9521074354707
 42
-0.4142135623730951
  0
LWPOLYLINE
  5
2A5
330
17
100
AcDbEntity
  8
0
 62
2
100
AcDbPolyline
 90
6
 70
1
 10
1815.099509327105
 20
2552.9521074354707
 10
1751.099509327105
 20
2552.9521074354707
 42
0.4142135623730951
 10
1743.099509327105
 20
2544.952107435478
 10
1743.099509327105
 20
2541.9521074354707
 10
1823.099509327003
 20
2541.9521074354707
 10
1823.099509327003
 20
2544.952107435478
 42
0.4142135623730951
  0
LWPOLYLINE
  5
2A6
330
17
100
AcDbEntity
  8
0
 62
2
100
AcDbPolyline
 90
6
 70
1
 10
1815.099509327105
 20
2521.952107435478
 10
1751.099509327105
 20
2521.952107435478
 42
0.4142135623730951
 10
1743.099509327105
 20
2513.952107435478
 10
1743.099509327105
 20
2510.9521074354707
 10
1823.099509327003
 20
2510.9521074354707
 10
1823.099509327003
 20
2513.952107435478
 42
0.4142135623730951
  0
LWPOLYLINE
  5
2A7
330
17
100
AcDbEntity
  8
0
 62
2
100
AcDbPolyline
 90
6
 70
1
 10
1815.099509327105
 20
2583.9521074354707
 10
1751.099509327105
 20
2583.9521074354707
 42
0.4142135623730951
 10
1743.099509327105
 20
2575.9521074354707
 10
1743.099509327105
 20
2572.9521074354707
 10
1823.099509327003
 20
2572.9521074354707
 10
1823.099509327003
 20
2575.9521074354707
 42
0.4142135623730951
  0
LWPOLYLINE
  5
2A8
330
17
100
AcDbEntity
  8
0
 62
2
100
AcDbPolyline
 90
6
 70
1
 10
1815.099509327105
 20
2490.952107435478
 10
1751.099509327105
 20
2490.952107435478
 42
0.4142135623730951
 10
1743.099509327105
 20
2482.952107435478
 10
1743.099509327105
 20
2479.952107435478
 10
1823.099509327003
 20
2479.952107435478
 10
1823.099509327003
 20
2482.952107435478
 42
0.4142135623730951
  0
LWPOLYLINE
  5
2A9
330
17
100
AcDbEntity
  8
0
 62
2
100
AcDbPolyline
 90
6
 70
1
 10
1815.099509327105
 20
2459.952107435478
 10
1751.099509327105
 20
2459.952107435478
 42
0.4142135623730951
 10
1743.099509327105
 20
2451.952107435478
 10
1743.099509327105
 20
2448.952107435478
 10
1823.099509327003
 20
2448.952107435478
 10
1823.099509327003
 20
2451.952107435478
 42
0.4142135623730951
  0
LWPOLYLINE
  5
2AA
330
17
100
AcDbEntity
  8
0
 62
2
100
AcDbPolyline
 90
6
 70
1
 10
1815.099509327105
 20
2428.952107435478
 10
1751.099509327105
 20
2428.952107435478
 42
0.4142135623730951
 10
1743.099509327105
 20
2420.9521074354707
 10
1743.099509327105
 20
2417.952107435478
 10
1823.099509327003
 20
2417.952107435478
 10
1823.099509327003
 20
2420.9521074354707
 42
0.4142135623730951
  0
INSERT
  5
2AB
330
17
100
AcDbEntity
  8
0
100
AcDbBlockReference
 66
1
  2
khungtenAsean2
 10
0.0
 20
3024.000000005348
 30
0.0
 41
1.440000000002328
 42
1.440000000002328
 43
1.440000000002328
  0
ATTRIB
  5
2AC
330
2AB
100
AcDbEntity
  8
0
 62
1
100
AcDbText
 10
4152.620466641805
 20
47.01916785437788
 30
0.0
 40
36.0
  1
......
  7
Tahoma (Input Text)
 72
1
 11
4197.590245016501
 21
47.01916785437788
 31
0.0
100
AcDbAttribute
  2
#11
 70
0
 71
1
 72
0
 11
4197.590245016501
 21
47.01916785437788
 31
0.0
  0
ATTRIB
  5
2AD
330
2AB
100
AcDbEntity
  8
0
 62
1
100
AcDbText
 10
3091.2724475819996
 20
113.36369516887498
 30
0.0
 40
36.0
  1
TỦ ĐIỆN TRONG NHÀ 1 
  7
Tahoma (Input Text)
100
AcDbAttribute
  2
#09
 70
0
 71
1
 72
0
  0
ATTRIB
  5
2AE
330
2AB
100
AcDbEntity
  8
0
 62
1
100
AcDbText
 10
3091.2724475819996
 20
26.963695168866252
 30
0.0
 40
36.0
  1

  7
Tahoma (Input Text)
100
AcDbAttribute
  2
#10
 70
0
 71
1
 72
0
  0
ATTRIB
  5
2AF
330
2AB
100
AcDbEntity
  8
0
 62
1
100
AcDbText
 10
2617.124782656101
 20
26.963695168866252
 30
0.0
 40
36.0
  1
1-1.2
  7
Tahoma (Input Text)
100
AcDbAttribute
  2
#08
 70
0
 71
1
 72
0
  0
ATTRIB
  5
2B0
330
2AB
100
AcDbEntity
  8
0
 62
1
100
AcDbText
 10
2641.941374868795
 20
113.36369516887498
 30
0.0
 40
36.0
  1
1
  7
Tahoma (Input Text)
100
AcDbAttribute
  2
#07
 70
0
 71
1
 72
0
  0
ATTRIB
  5
2B1
330
2AB
100
AcDbEntity
  8
0
 62
1
100
AcDbText
 10
1534.0764803669008
 20
26.963695168866252
 30
0.0
 40
36.0
  1
1500x500x400
  7
Tahoma (Input Text)
100
AcDbAttribute
  2
#06
 70
0
 71
1
 72
0
  0
ATTRIB
  5
2B2
330
2AB
100
AcDbEntity
  8
0
 62
1
100
AcDbText
 10
1593.544575055901
 20
113.36369516887498
 30
0.0
 40
36.0
  1
võ tủ
  7
Tahoma (Input Text)
100
AcDbAttribute
  2
#05
 70
0
 71
1
 72
0
  0
ATTRIB
  5
2B3
330
2AB
100
AcDbEntity
  8
0
 62
1
100
AcDbText
 10
699.9912388880039
 20
26.963695168866252
 30
0.0
 40
36.0
  1
29/10/2020
  7
Tahoma (Input Text)
100
AcDbAttribute
  2
#04
 70
0
 71
1
 72
0
  0
ATTRIB
  5
2B4
330
2AB
100
AcDbEntity
  8
0
 62
1
100
AcDbText
 10
729.4618784833001
 20
116.20569530016655
 30
0.0
 40
36.0
  1
ANH LỢI
  7
Tahoma (Input Text)
100
AcDbAttribute
  2
#03
 70
0
 71
1
 72
0
  0
ATTRIB
  5
2B5
330
2AB
100
AcDbEntity
  8
0
 62
1
100
AcDbText
 10
141.77768328459933
 20
26.963695168866252
 30
0.0
 40
36.0
  1
......
  7
Tahoma (Input Text)
100
AcDbAttribute
  2
#02
 70
0
 71
1
 72
0
  0
ATTRIB
  5
2B6
330
2AB
100
AcDbEntity
  8
0
 62
1
100
AcDbText
 10
197.35705128610425
 20
113.36369516887498
 30
0.0
 40
36.0
  1
PHÚC
  7
Tahoma (Input Text)
100
AcDbAttribute
  2
#01
 70
0
 71
1
 72
0
  0
SEQEND
  5
2B7
330
17
100
AcDbEntity
  8
0
 62
7
  0
ENDSEC
  0
SECTION
  2
OBJECTS
  0
DICTIONARY
  5
A
330
0
100
AcDbDictionary
281
1
  3
ACAD_COLOR
350
B
  3
ACAD_GROUP
350
C
  3
ACAD_LAYOUT
350
D
  3
ACAD_MATERIAL
350
E
  3
ACAD_MLEADERSTYLE
350
F
  3
ACAD_MLINESTYLE
350
10
  3
ACAD_PLOTSETTINGS
350
11
  3
ACAD_PLOTSTYLENAME
350
12
  3
ACAD_SCALELIST
350
14
  3
ACAD_TABLESTYLE
350
15
  3
ACAD_VISUALSTYLE
350
16
  3
EZDXF_META
350
2D
  0
DICTIONARY
  5
B
330
A
100
AcDbDictionary
281
1
  0
DICTIONARY
  5
C
330
A
100
AcDbDictionary
281
1
  0
DICTIONARY
  5
D
330
A
100
AcDbDictionary
281
1
  3
Model
350
1A
  3
Layout1
350
1E
  0
DICTIONARY
  5
E
330
A
100
AcDbDictionary
281
1
  3
ByBlock
350
1F
  3
ByLayer
350
20
  3
Global
350
21
  0
DICTIONARY
  5
F
330
A
100
AcDbDictionary
281
1
  3
Standard
350
2C
  0
DICTIONARY
  5
10
330
A
100
AcDbDictionary
281
1
  3
Standard
350
22
  0
DICTIONARY
  5
11
330
A
100
AcDbDictionary
281
1
  0
ACDBDICTIONARYWDFLT
  5
12
330
A
100
AcDbDictionary
281
1
  3
Normal
350
13
100
AcDbDictionaryWithDefault
340
13
  0
ACDBPLACEHOLDER
  5
13
330
12
  0
DICTIONARY
  5
14
330
A
100
AcDbDictionary
281
1
  0
DICTIONARY
  5
15
330
A
100
AcDbDictionary
281
1
  0
DICTIONARY
  5
16
330
A
100
AcDbDictionary
281
1
  0
LAYOUT
  5
1A
330
D
100
AcDbPlotSettings
  1

  4
A3
  6

 40
7.5
 41
20.0
 42
7.5
 43
20.0
 44
420.0
 45
297.0
 46
0.0
 47
0.0
 48
0.0
 49
0.0
140
0.0
141
0.0
142
1.0
143
1.0
 70
1024
 72
1
 73
0
 74
5
  7

 75
16
 76
0
 77
2
 78
300
147
1.0
148
0.0
149
0.0
100
AcDbLayout
  1
Model
 70
1
 71
0
 10
0.0
 20
0.0
 11
420.0
 21
297.0
 12
0.0
 22
0.0
 32
0.0
 14
1e+20
 24
1e+20
 34
1e+20
 15
-1e+20
 25
-1e+20
 35
-1e+20
146
0.0
 13
0.0
 23
0.0
 33
0.0
 16
1.0
 26
0.0
 36
0.0
 17
0.0
 27
1.0
 37
0.0
 76
1
330
17
  0
LAYOUT
  5
1E
330
D
100
AcDbPlotSettings
  1

  4
A3
  6

 40
7.5
 41
20.0
 42
7.5
 43
20.0
 44
420.0
 45
297.0
 46
0.0
 47
0.0
 48
0.0
 49
0.0
140
0.0
141
0.0
142
1.0
143
1.0
 70
0
 72
1
 73
0
 74
5
  7

 75
16
 76
0
 77
2
 78
300
147
1.0
148
0.0
149
0.0
100
AcDbLayout
  1
Layout1
 70
1
 71
1
 10
0.0
 20
0.0
 11
420.0
 21
297.0
 12
0.0
 22
0.0
 32
0.0
 14
1e+20
 24
1e+20
 34
1e+20
 15
-1e+20
 25
-1e+20
 35
-1e+20
146
0.0
 13
0.0
 23
0.0
 33
0.0
 16
1.0
 26
0.0
 36
0.0
 17
0.0
 27
1.0
 37
0.0
 76
1
330
1B
  0
MATERIAL
  5
1F
102
{ACAD_REACTORS
330
E
102
}
330
E
100
AcDbMaterial
  1
ByBlock
  2

 70
0
 40
1.0
 71
1
 41
1.0
 91
-1023410177
 42
1.0
 72
1
  3

 73
1
 74
1
 75
1
 44
0.5
 73
0
 45
1.0
 46
1.0
 77
1
  4

 78
1
 79
1
170
1
 48
1.0
171
1
  6

172
1
173
1
174
1
140
1.0
141
1.0
175
1
  7

176
1
177
1
178
1
143
1.0
179
1
  8

270
1
271
1
272
1
145
1.0
146
1.0
273
1
  9

274
1
275
1
276
1
 42
1.0
 72
1
  3

 73
1
 74
1
 75
1
 94
63
  0
MATERIAL
  5
20
102
{ACAD_REACTORS
330
E
102
}
330
E
100
AcDbMaterial
  1
ByLayer
  2

 70
0
 40
1.0
 71
1
 41
1.0
 91
-1023410177
 42
1.0
 72
1
  3

 73
1
 74
1
 75
1
 44
0.5
 73
0
 45
1.0
 46
1.0
 77
1
  4

 78
1
 79
1
170
1
 48
1.0
171
1
  6

172
1
173
1
174
1
140
1.0
141
1.0
175
1
  7

176
1
177
1
178
1
143
1.0
179
1
  8

270
1
271
1
272
1
145
1.0
146
1.0
273
1
  9

274
1
275
1
276
1
 42
1.0
 72
1
  3

 73
1
 74
1
 75
1
 94
63
  0
MATERIAL
  5
21
102
{ACAD_REACTORS
330
E
102
}
330
E
100
AcDbMaterial
  1
Global
  2

 70
0
 40
1.0
 71
1
 41
1.0
 91
-1023410177
 42
1.0
 72
1
  3

 73
1
 74
1
 75
1
 44
0.5
 73
0
 45
1.0
 46
1.0
 77
1
  4

 78
1
 79
1
170
1
 48
1.0
171
1
  6

172
1
173
1
174
1
140
1.0
141
1.0
175
1
  7

176
1
177
1
178
1
143
1.0
179
1
  8

270
1
271
1
272
1
145
1.0
146
1.0
273
1
  9

274
1
275
1
276
1
 42
1.0
 72
1
  3

 73
1
 74
1
 75
1
 94
63
  0
MLINESTYLE
  5
22
102
{ACAD_REACTORS
330
10
102
}
330
10
100
AcDbMlineStyle
  2
Standard
 70
0
  3

 62
256
 51
90.0
 52
90.0
 71
2
 49
0.5
 62
256
  6
BYLAYER
 49
-0.5
 62
256
  6
BYLAYER
  0
MLEADERSTYLE
  5
2C
102
{ACAD_REACTORS
330
F
102
}
330
F
100
AcDbMLeaderStyle
179
2
170
2
171
1
172
0
 90
2
 40
0.0
 41
0.0
173
1
 91
-1056964608
 92
-2
290
1
 42
2.0
291
1
 43
8.0
  3
Standard
 44
4.0
300

342
29
174
1
175
1
176
0
178
1
 93
-1056964608
 45
4.0
292
0
297
0
 46
4.0
 94
-1056964608
 47
1.0
 49
1.0
140
1.0
294
1
141
0.0
177
0
142
1.0
295
0
296
0
143
3.75
271
0
272
9
273
9
  0
DICTIONARY
  5
2D
330
A
100
AcDbDictionary
280
1
281
1
  3
CREATED_BY_EZDXF
350
2E
  3
WRITTEN_BY_EZDXF
350
2F3
  0
DICTIONARYVAR
  5
2E
330
2D
100
DictionaryVariables
280
0
  1
1.4.4 @ 2026-09-24T06:32:44.142797+00:00
  0
DICTIONARYVAR
  5
2F3
330
2D
100
DictionaryVariables
280
0
  1
1.4.4 @ 2026-09-24T06:38:33.624651+00:00
  0
ENDSEC
  0
EOF
