  0
SECTION
  2
HEADER
  9
$ACADVER
  1
AC1032
  9
$ACADMAINTVER
 90
4
  9
$DWGCODEPAGE
  3
ANSI_1252
  9
$LASTSAVEDBY
  1
ezdxf
  9
$REQUIREDVERSIONS
160
0
  9
$INSBASE
 10
0.0
 20
0.0
 30
0.0
  9
$EXTMIN
 10
1e+20
 20
1e+20
 30
1e+20
  9
$EXTMAX
 10
-1e+20
 20
-1e+20
 30
-1e+20
  9
$LIMMIN
 10
0.0
 20
0.0
  9
$LIMMAX
 10
420.0
 20
297.0
  9
$ORTHOMODE
 70
0
  9
$REGENMODE
 70
1
  9
$FILLMODE
 70
1
  9
$QTEXTMODE
 70
0
  9
$MIRRTEXT
 70
1
  9
$LTSCALE
 40
1.0
  9
$ATTMODE
 70
1
  9
$TEXTSIZE
 40
2.5
  9
$TRACEWID
 40
1.0
  9
$TEXTSTYLE
  7
Standard
  9
$CLAYER
  8
0
  9
$CELTYPE
  6
ByLayer
  9
$CECOLOR
 62
256
  9
$CELTSCALE
 40
1.0
  9
$DISPSILH
 70
0
  9
$DIMSCALE
 40
1.0
  9
$DIMASZ
 40
2.5
  9
$DIMEXO
 40
0.625
  9
$DIMDLI
 40
3.75
  9
$DIMRND
 40
0.0
  9
$DIMDLE
 40
0.0
  9
$DIMEXE
 40
1.25
  9
$DIMTP
 40
0.0
  9
$DIMTM
 40
0.0
  9
$DIMTXT
 40
2.5
  9
$DIMCEN
 40
2.5
  9
$DIMTSZ
 40
0.0
  9
$DIMTOL
 70
0
  9
$DIMLIM
 70
0
  9
$DIMTIH
 70
0
  9
$DIMTOH
 70
0
  9
$DIMSE1
 70
0
  9
$DIMSE2
 70
0
  9
$DIMTAD
 70
1
  9
$DIMZIN
 70
8
  9
$DIMBLK
  1

  9
$DIMASO
 70
1
  9
$DIMSHO
 70
1
  9
$DIMPOST
  1

  9
$DIMAPOST
  1

  9
$DIMALT
 70
0
  9
$DIMALTD
 70
3
  9
$DIMALTF
 40
0.03937007874
  9
$DIMLFAC
 40
1.0
  9
$DIMTOFL
 70
1
  9
$DIMTVP
 40
0.0
  9
$DIMTIX
 70
0
  9
$DIMSOXD
 70
0
  9
$DIMSAH
 70
0
  9
$DIMBLK1
  1

  9
$DIMBLK2
  1

  9
$DIMSTYLE
  2
ISO-25
  9
$DIMCLRD
 70
0
  9
$DIMCLRE
 70
0
  9
$DIMCLRT
 70
0
  9
$DIMTFAC
 40
1.0
  9
$DIMGAP
 40
0.625
  9
$DIMJUST
 70
0
  9
$DIMSD1
 70
0
  9
$DIMSD2
 70
0
  9
$DIMTOLJ
 70
0
  9
$DIMTZIN
 70
8
  9
$DIMALTZ
 70
0
  9
$DIMALTTZ
 70
0
  9
$DIMUPT
 70
0
  9
$DIMDEC
 70
2
  9
$DIMTDEC
 70
2
  9
$DIMALTU
 70
2
  9
$DIMALTTD
 70
3
  9
$DIMTXSTY
  7
Standard
  9
$DIMAUNIT
 70
0
  9
$DIMADEC
 70
0
  9
$DIMALTRND
 40
0.0
  9
$DIMAZIN
 70
0
  9
$DIMDSEP
 70
44
  9
$DIMATFIT
 70
3
  9
$DIMFRAC
 70
0
  9
$DIMLDRBLK
  1

  9
$DIMLUNIT
 70
2
  9
$DIMLWD
 70
-2
  9
$DIMLWE
 70
-2
  9
$DIMTMOVE
 70
0
  9
$DIMFXL
 40
1.0
  9
$DIMFXLON
 70
0
  9
$DIMJOGANG
 40
0.785398163397
  9
$DIMTFILL
 70
0
  9
$DIMTFILLCLR
 70
0
  9
$DIMARCSYM
 70
0
  9
$DIMLTYPE
  6

  9
$DIMLTEX1
  6

  9
$DIMLTEX2
  6

  9
$DIMTXTDIRECTION
 70
0
  9
$LUNITS
 70
2
  9
$LUPREC
 70
4
  9
$SKETCHINC
 40
1.0
  9
$FILLETRAD
 40
10.0
  9
$AUNITS
 70
0
  9
$AUPREC
 70
2
  9
$MENU
  1
.
  9
$ELEVATION
 40
0.0
  9
$PELEVATION
 40
0.0
  9
$THICKNESS
 40
0.0
  9
$LIMCHECK
 70
0
  9
$CHAMFERA
 40
0.0
  9
$CHAMFERB
 40
0.0
  9
$CHAMFERC
 40
0.0
  9
$CHAMFERD
 40
0.0
  9
$SKPOLY
 70
0
  9
$TDCREATE
 40
2461308.567233796
  9
$TDUCREATE
 40
2458532.153996898
  9
$TDUPDATE
 40
2461308.567233796
  9
$TDUUPDATE
 40
2458532.1544311
  9
$TDINDWG
 40
0.0
  9
$TDUSRTIMER
 40
0.0
  9
$USRTIMER
 70
1
  9
$ANGBASE
 50
0.0
  9
$ANGDIR
 70
0
  9
$PDMODE
 70
0
  9
$PDSIZE
 40
0.0
  9
$PLINEWID
 40
0.0
  9
$SPLFRAME
 70
0
  9
$SPLINETYPE
 70
6
  9
$SPLINESEGS
 70
8
  9
$HANDSEED
  5
2CF
  9
$SURFTAB1
 70
6
  9
$SURFTAB2
 70
6
  9
$SURFTYPE
 70
6
  9
$SURFU
 70
6
  9
$SURFV
 70
6
  9
$UCSBASE
  2

  9
$UCSNAME
  2

  9
$UCSORG
 10
0.0
 20
0.0
 30
0.0
  9
$UCSXDIR
 10
1.0
 20
0.0
 30
0.0
  9
$UCSYDIR
 10
0.0
 20
1.0
 30
0.0
  9
$UCSORTHOREF
  2

  9
$UCSORTHOVIEW
 70
0
  9
$UCSORGTOP
 10
0.0
 20
0.0
 30
0.0
  9
$UCSORGBOTTOM
 10
0.0
 20
0.0
 30
0.0
  9
$UCSORGLEFT
 10
0.0
 20
0.0
 30
0.0
  9
$UCSORGRIGHT
 10
0.0
 20
0.0
 30
0.0
  9
$UCSORGFRONT
 10
0.0
 20
0.0
 30
0.0
  9
$UCSORGBACK
 10
0.0
 20
0.0
 30
0.0
  9
$PUCSBASE
  2

  9
$PUCSNAME
  2

  9
$PUCSORG
 10
0.0
 20
0.0
 30
0.0
  9
$PUCSXDIR
 10
1.0
 20
0.0
 30
0.0
  9
$PUCSYDIR
 10
0.0
 20
1.0
 30
0.0
  9
$PUCSORTHOREF
  2

  9
$PUCSORTHOVIEW
 70
0
  9
$PUCSORGTOP
 10
0.0
 20
0.0
 30
0.0
  9
$PUCSORGBOTTOM
 10
0.0
 20
0.0
 30
0.0
  9
$PUCSORGLEFT
 10
0.0
 20
0.0
 30
0.0
  9
$PUCSORGRIGHT
 10
0.0
 20
0.0
 30
0.0
  9
$PUCSORGFRONT
 10
0.0
 20
0.0
 30
0.0
  9
$PUCSORGBACK
 10
0.0
 20
0.0
 30
0.0
  9
$USERI1
 70
0
  9
$USERI2
 70
0
  9
$USERI3
 70
0
  9
$USERI4
 70
0
  9
$USERI5
 70
0
  9
$USERR1
 40
0.0
  9
$USERR2
 40
0.0
  9
$USERR3
 40
0.0
  9
$USERR4
 40
0.0
  9
$USERR5
 40
0.0
  9
$WORLDVIEW
 70
1
  9
$SHADEDGE
 70
3
  9
$SHADEDIF
 70
70
  9
$TILEMODE
 70
1
  9
$MAXACTVP
 70
64
  9
$PINSBASE
 10
0.0
 20
0.0
 30
0.0
  9
$PLIMCHECK
 70
0
  9
$PEXTMIN
 10
1e+20
 20
1e+20
 30
1e+20
  9
$PEXTMAX
 10
-1e+20
 20
-1e+20
 30
-1e+20
  9
$PLIMMIN
 10
0.0
 20
0.0
  9
$PLIMMAX
 10
420.0
 20
297.0
  9
$UNITMODE
 70
0
  9
$VISRETAIN
 70
1
  9
$PLINEGEN
 70
0
  9
$PSLTSCALE
 70
1
  9
$TREEDEPTH
 70
3020
  9
$CMLSTYLE
  2
Standard
  9
$CMLJUST
 70
0
  9
$CMLSCALE
 40
20.0
  9
$PROXYGRAPHICS
 70
1
  9
$MEASUREMENT
 70
1
  9
$CELWEIGHT
370
-1
  9
$ENDCAPS
280
0
  9
$JOINSTYLE
280
0
  9
$LWDISPLAY
290
0
  9
$INSUNITS
 70
4
  9
$HYPERLINKBASE
  1

  9
$STYLESHEET
  1

  9
$XEDIT
290
1
  9
$CEPSNTYPE
380
0
  9
$PSTYLEMODE
290
1
  9
$FINGERPRINTGUID
  2
{B0BCD2A3-19A3-4A6D-8A51-673D2F72AAD2}
  9
$VERSIONGUID
  2
{F87CA41C-0151-4836-B5EB-A3354F605EBC}
  9
$EXTNAMES
290
1
  9
$PSVPSCALE
 40
0.0
  9
$OLESTARTUP
290
0
  9
$SORTENTS
280
127
  9
$INDEXCTL
280
0
  9
$HIDETEXT
280
1
  9
$XCLIPFRAME
280
1
  9
$HALOGAP
280
0
  9
$OBSCOLOR
 70
257
  9
$OBSLTYPE
280
0
  9
$INTERSECTIONDISPLAY
280
0
  9
$INTERSECTIONCOLOR
 70
257
  9
$DIMASSOC
280
2
  9
$PROJECTNAME
  1

  9
$CAMERADISPLAY
290
0
  9
$LENSLENGTH
 40
50.0
  9
$CAMERAHEIGHT
 40
0.0
  9
$STEPSPERSEC
 40
24.0
  9
$STEPSIZE
 40
100.0
  9
$3DDWFPREC
 40
2.0
  9
$PSOLWIDTH
 40
0.005
  9
$PSOLHEIGHT
 40
0.08
  9
$LOFTANG1
 40
1.570796326795
  9
$LOFTANG2
 40
1.570796326795
  9
$LOFTMAG1
 40
0.0
  9
$LOFTMAG2
 40
0.0
  9
$LOFTPARAM
 70
7
  9
$LOFTNORMALS
280
1
  9
$LATITUDE
 40
37.795
  9
$LONGITUDE
 40
-122.394
  9
$NORTHDIRECTION
 40
0.0
  9
$TIMEZONE
 70
-8000
  9
$LIGHTGLYPHDISPLAY
280
1
  9
$TILEMODELIGHTSYNCH
280
1
  9
$CMATERIAL
347
20
  9
$SOLIDHIST
280
0
  9
$SHOWHIST
280
1
  9
$DWFFRAME
280
2
  9
$DGNFRAME
280
2
  9
$REALWORLDSCALE
290
1
  9
$INTERFERECOLOR
 62
256
  9
$CSHADOW
280
0
  9
$SHADOWPLANELOCATION
 40
0.0
  0
ENDSEC
  0
SECTION
  2
CLASSES
  0
CLASS
  1
ACDBDICTIONARYWDFLT
  2
AcDbDictionaryWithDefault
  3
ObjectDBX Classes
 90
0
 91
0
280
0
281
0
  0
CLASS
  1
SUN
  2
AcDbSun
  3
SCENEOE
 90
1153
 91
0
280
0
281
0
  0
CLASS
  1
VISUALSTYLE
  2
AcDbVisualStyle
  3
ObjectDBX Classes
 90
4095
 91
0
280
0
281
0
  0
CLASS
  1
MATERIAL
  2
AcDbMaterial
  3
ObjectDBX Classes
 90
1153
 91
0
280
0
281
0
  0
CLASS
  1
SCALE
  2
AcDbScale
  3
ObjectDBX Classes
 90
1153
 91
0
280
0
281
0
  0
CLASS
  1
TABLESTYLE
  2
AcDbTableStyle
  3
ObjectDBX Classes
 90
4095
 91
0
280
0
281
0
  0
CLASS
  1
MLEADERSTYLE
  2
AcDbMLeaderStyle
  3
ACDB_MLEADERSTYLE_CLASS
 90
4095
 91
0
280
0
281
0
  0
CLASS
  1
DICTIONARYVAR
  2
AcDbDictionaryVar
  3
ObjectDBX Classes
 90
0
 91
0
280
0
281
0
  0
CLASS
  1
CELLSTYLEMAP
  2
AcDbCellStyleMap
  3
ObjectDBX Classes
 90
1152
 91
0
280
0
281
0
  0
CLASS
  1
MENTALRAYRENDERSETTINGS
  2
AcDbMentalRayRenderSettings
  3
SCENEOE
 90
1024
 91
0
280
0
281
0
  0
CLASS
  1
ACDBDETAILVIEWSTYLE
  2
AcDbDetailViewStyle
  3
ObjectDBX Classes
 90
1025
 91
0
280
0
281
0
  0
CLASS
  1
ACDBSECTIONVIEWSTYLE
  2
AcDbSectionViewStyle
  3
ObjectDBX Classes
 90
1025
 91
0
280
0
281
0
  0
CLASS
  1
RASTERVARIABLES
  2
AcDbRasterVariables
  3
ISM
 90
0
 91
0
280
0
281
0
  0
CLASS
  1
ACDBPLACEHOLDER
  2
AcDbPlaceHolder
  3
ObjectDBX Classes
 90
0
 91
0
280
0
281
0
  0
CLASS
  1
LAYOUT
  2
AcDbLayout
  3
ObjectDBX Classes
 90
0
 91
0
280
0
281
0
  0
ENDSEC
  0
SECTION
  2
TABLES
  0
TABLE
  2
VPORT
  5
8
330
0
100
AcDbSymbolTable
 70
1
  0
VPORT
  5
23
330
8
100
AcDbSymbolTableRecord
100
AcDbViewportTableRecord
  2
*Active
 70
0
 10
0.0
 20
0.0
 11
1.0
 21
1.0
 12
0.0
 22
0.0
 13
0.0
 23
0.0
 14
0.5
 24
0.5
 15
0.5
 25
0.5
 16
0.0
 26
0.0
 36
1.0
 17
0.0
 27
0.0
 37
0.0
 40
1000.0
 41
1.34
 42
50.0
 43
0.0
 44
0.0
 50
0.0
 51
0.0
 71
0
 72
1000
 73
1
 74
3
 75
0
 76
0
 77
0
 78
0
281
0
 65
0
146
0.0
  0
ENDTAB
  0
TABLE
  2
LTYPE
  5
2
330
0
100
AcDbSymbolTable
 70
7
  0
LTYPE
  5
24
330
2
100
AcDbSymbolTableRecord
100
AcDbLinetypeTableRecord
  2
ByBlock
 70
0
  3

 72
65
 73
0
 40
0.0
  0
LTYPE
  5
25
330
2
100
AcDbSymbolTableRecord
100
AcDbLinetypeTableRecord
  2
ByLayer
 70
0
  3

 72
65
 73
0
 40
0.0
  0
LTYPE
  5
26
330
2
100
AcDbSymbolTableRecord
100
AcDbLinetypeTableRecord
  2
Continuous
 70
0
  3

 72
65
 73
0
 40
0.0
  0
LTYPE
  5
245
330
2
100
AcDbSymbolTableRecord
100
AcDbLinetypeTableRecord
  2
DASHDOT
 70
0
  3
__ . __ . __ . __ . __ . __ . __ . __ . __ . __
 72
65
 73
4
 40
1.0
 49
0.5
 74
0
 49
-0.25
 74
0
 49
0.0
 74
0
 49
-0.25
 74
0
  0
LTYPE
  5
246
330
2
100
AcDbSymbolTableRecord
100
AcDbLinetypeTableRecord
  2
CENTER
 70
0
  3
Center ____ _ ____ _ ____ _ ____ _ ____ _ ____
 72
65
 73
4
 40
2.0
 49
1.25
 74
0
 49
-0.25
 74
0
 49
0.25
 74
0
 49
-0.25
 74
0
  0
LTYPE
  5
247
330
2
100
AcDbSymbolTableRecord
100
AcDbLinetypeTableRecord
  2
HIDDENX2
 70
0
  3
Hidden (2x) ____ ____ ____ ____ ____ ____ ____
 72
65
 73
2
 40
19.05
 49
12.7
 74
0
 49
-6.349999999999999
 74
0
  0
LTYPE
  5
248
330
2
100
AcDbSymbolTableRecord
100
AcDbLinetypeTableRecord
  2
ACAD_ISO04W100
 70
0
  3
ISO long-dash dot ____ . ____ . ____ . ____ . _
 72
65
 73
4
 40
30.5
 49
24.0
 74
0
 49
-3.0
 74
0
 49
0.5
 74
0
 49
-3.0
 74
0
  0
ENDTAB
  0
TABLE
  2
LAYER
  5
1
330
0
100
AcDbSymbolTable
 70
11
  0
LAYER
  5
27
330
1
100
AcDbSymbolTableRecord
100
AcDbLayerTableRecord
  2
0
 70
0
 62
7
  6
Continuous
370
-3
390
13
347
21
  0
LAYER
  5
28
330
1
100
AcDbSymbolTableRecord
100
AcDbLayerTableRecord
  2
Defpoints
 70
0
 62
7
  6
Continuous
290
0
370
-3
390
13
347
21
  0
LAYER
  5
23C
330
1
100
AcDbSymbolTableRecord
100
AcDbLayerTableRecord
  2
CENTER
 70
0
 62
6
  6
CENTER
370
-3
390
F
347
98
  0
LAYER
  5
23D
330
1
100
AcDbSymbolTableRecord
100
AcDbLayerTableRecord
  2
bc
 70
0
 62
5
  6
Continuous
370
30
390
F
347
98
  0
LAYER
  5
23E
330
1
100
AcDbSymbolTableRecord
100
AcDbLayerTableRecord
  2
DIM
 70
0
 62
253
  6
Continuous
370
-3
390
F
347
98
  0
LAYER
  5
23F
330
1
100
AcDbSymbolTableRecord
100
AcDbLayerTableRecord
  2
Text
 70
0
 62
4
  6
Continuous
370
-3
390
F
347
98
  0
LAYER
  5
240
330
1
100
AcDbSymbolTableRecord
100
AcDbLayerTableRecord
  2
TIM
 70
0
 62
239
  6
ACAD_ISO04W100
370
-3
390
F
347
98
  0
LAYER
  5
241
330
1
100
AcDbSymbolTableRecord
100
AcDbLayerTableRecord
  2
SEWAGE
 70
0
 62
2
  6
Continuous
370
25
390
F
347
98
  0
LAYER
  5
242
330
1
100
AcDbSymbolTableRecord
100
AcDbLayerTableRecord
  2
FIRE PROTECTION
 70
0
 62
1
  6
Continuous
370
-3
390
F
347
98
  0
LAYER
  5
243
330
1
100
AcDbSymbolTableRecord
100
AcDbLayerTableRecord
  2
Net manh
 70
0
 62
9
  6
Continuous
370
-3
390
F
347
98
  0
LAYER
  5
244
330
1
100
AcDbSymbolTableRecord
100
AcDbLayerTableRecord
  2
Fitting
 70
0
 62
5
  6
Continuous
370
18
390
F
347
98
  0
ENDTAB
  0
TABLE
  2
STYLE
  5
5
330
0
100
AcDbSymbolTable
 70
4
  0
STYLE
  5
29
330
5
100
AcDbSymbolTableRecord
100
AcDbTextStyleTableRecord
  2
Standard
 70
0
 40
0.0
 41
1.0
 50
0.0
 71
0
 42
2.5
  3
txt
  4

  0
STYLE
  5
249
330
5
100
AcDbSymbolTableRecord
100
AcDbTextStyleTableRecord
  2
Tahoma (Input Text)
 70
0
 40
0.0
 41
1.0
 50
0.0
 71
0
 42
25.0
  3
tahoma.ttf
  4

  0
STYLE
  5
24A
330
5
100
AcDbSymbolTableRecord
100
AcDbTextStyleTableRecord
  2
Arial
 70
0
 40
0.0
 41
1.0
 50
0.0
 71
0
 42
0.2
  3
arial.ttf
  4

  0
STYLE
  5
24B
330
5
100
AcDbSymbolTableRecord
100
AcDbTextStyleTableRecord
  2
TEXT
 70
0
 40
0.0
 41
1.0
 50
0.0
 71
0
 42
595.0
  3

  4

  0
ENDTAB
  0
TABLE
  2
VIEW
  5
7
330
0
100
AcDbSymbolTable
 70
0
  0
ENDTAB
  0
TABLE
  2
UCS
  5
6
330
0
100
AcDbSymbolTable
 70
0
  0
ENDTAB
  0
TABLE
  2
APPID
  5
3
330
0
100
AcDbSymbolTable
 70
3
  0
APPID
  5
2A
330
3
100
AcDbSymbolTableRecord
100
AcDbRegAppTableRecord
  2
ACAD
 70
0
  0
APPID
  5
252
330
3
100
AcDbSymbolTableRecord
100
AcDbRegAppTableRecord
  2
HATCHBACKGROUNDCOLOR
 70
0
  0
APPID
  5
253
330
3
100
AcDbSymbolTableRecord
100
AcDbRegAppTableRecord
  2
EZDXF
 70
0
  0
ENDTAB
  0
TABLE
  2
DIMSTYLE
  5
4
330
0
100
AcDbSymbolTable
 70
2
100
AcDbDimStyleTable
  0
DIMSTYLE
105
2B
330
4
100
AcDbSymbolTableRecord
100
AcDbDimStyleTableRecord
  2
Standard
 70
0
 40
1.0
 41
2.5
 42
0.625
 43
3.75
 44
1.25
 45
0.0
 46
0.0
 47
0.0
 48
0.0
 49
2.5
140
2.5
141
2.5
142
0.0
143
0.03937007874
144
1.0
145
0.0
146
1.0
147
0.625
148
0.0
 69
0
 70
0
 71
0
 72
0
 73
0
 74
0
 75
0
 76
0
 77
1
 78
8
 79
3
170
0
171
3
172
1
173
0
174
0
175
0
176
0
177
0
178
0
179
2
271
2
272
2
273
2
274
3
275
0
276
0
277
2
278
44
279
0
280
0
281
0
282
0
283
0
284
8
285
0
286
0
288
0
289
3
290
0
371
-2
372
-2
  0
DIMSTYLE
105
23B
330
4
100
AcDbSymbolTableRecord
100
AcDbDimStyleTableRecord
  2
Dim-33
 70
0
 40
1.0
 41
12.0
 42
25.0
 43
3.75
 44
15.0
 45
0.0
 46
0.0
 47
0.0
 48
0.0
 49
2.5
140
33.0
141
10.0
142
0.0
143
0.03937007874016
144
1.0
145
0.0
146
1.0
147
15.0
148
0.0
 69
0
 70
0
 71
0
 72
0
 73
0
 74
0
 75
0
 76
0
 77
1
 78
8
 79
3
170
0
171
3
172
1
173
0
174
0
175
0
176
5
177
5
178
3
179
2
271
0
272
0
273
2
274
3
275
0
276
0
277
2
278
44
279
0
280
0
281
0
282
0
283
0
284
8
285
0
286
0
288
0
289
3
290
0
340
29
341
24C
342
44
345
25
346
25
347
25
371
9
372
9
  0
ENDTAB
  0
TABLE
  2
BLOCK_RECORD
  5
9
330
0
100
AcDbSymbolTable
 70
21
  0
BLOCK_RECORD
  5
17
330
9
100
AcDbSymbolTableRecord
100
AcDbBlockTableRecord
  2
*Model_Space
340
1A
 70
0
280
1
281
0
  0
BLOCK_RECORD
  5
1B
330
9
100
AcDbSymbolTableRecord
100
AcDbBlockTableRecord
  2
*Paper_Space
340
1E
 70
0
280
1
281
0
  0
BLOCK_RECORD
  5
44
330
9
100
AcDbSymbolTableRecord
100
AcDbBlockTableRecord
  2
_Oblique
340
0
 70
0
280
1
281
0
  0
BLOCK_RECORD
  5
142
330
9
100
AcDbSymbolTableRecord
100
AcDbBlockTableRecord
  2
khungtenAsean2
340
0
 70
0
280
1
281
0
  0
BLOCK_RECORD
  5
166
330
9
100
AcDbSymbolTableRecord
100
AcDbBlockTableRecord
  2
HL044-1
340
0
 70
0
280
1
281
0
  0
BLOCK_RECORD
  5
16C
330
9
100
AcDbSymbolTableRecord
100
AcDbBlockTableRecord
  2
AB301-2-1
340
0
 70
0
280
1
281
0
  0
BLOCK_RECORD
  5
17F
330
9
100
AcDbSymbolTableRecord
100
AcDbBlockTableRecord
  2
HL044-2
340
0
 70
0
280
1
281
0
  0
BLOCK_RECORD
  5
19B
330
9
100
AcDbSymbolTableRecord
100
AcDbBlockTableRecord
  2
A$C67844AE1
340
0
 70
0
280
1
281
0
  0
BLOCK_RECORD
  5
1A3
330
9
100
AcDbSymbolTableRecord
100
AcDbBlockTableRecord
  2
el GI 50-side
340
0
 70
0
280
1
281
0
  0
BLOCK_RECORD
  5
1B0
330
9
100
AcDbSymbolTableRecord
100
AcDbBlockTableRecord
  2
*U7
340
0
 70
0
280
1
281
0
  0
BLOCK_RECORD
  5
1FC
330
9
100
AcDbSymbolTableRecord
100
AcDbBlockTableRecord
  2
E-VALT CH
340
0
 70
0
280
1
281
0
  0
BLOCK_RECORD
  5
24C
330
9
100
AcDbSymbolTableRecord
100
AcDbBlockTableRecord
  2
_Open30
340
0
 70
0
280
1
281
0
  0
BLOCK_RECORD
  5
263
330
9
100
AcDbSymbolTableRecord
100
AcDbBlockTableRecord
  2
*D1
340
0
 70
0
280
1
281
0
  0
BLOCK_RECORD
  5
26F
330
9
100
AcDbSymbolTableRecord
100
AcDbBlockTableRecord
  2
*D2
340
0
 70
0
280
1
281
0
  0
BLOCK_RECORD
  5
27B
330
9
100
AcDbSymbolTableRecord
100
AcDbBlockTableRecord
  2
*D3
340
0
 70
0
280
1
281
0
  0
BLOCK_RECORD
  5
287
330
9
100
AcDbSymbolTableRecord
100
AcDbBlockTableRecord
  2
*D4
340
0
 70
0
280
1
281
0
  0
BLOCK_RECORD
  5
293
330
9
100
AcDbSymbolTableRecord
100
AcDbBlockTableRecord
  2
*D5
340
0
 70
0
280
1
281
0
  0
BLOCK_RECORD
  5
29F
330
9
100
AcDbSymbolTableRecord
100
AcDbBlockTableRecord
  2
*D6
340
0
 70
0
280
1
281
0
  0
BLOCK_RECORD
  5
2AB
330
9
100
AcDbSymbolTableRecord
100
AcDbBlockTableRecord
  2
*D7
340
0
 70
0
280
1
281
0
  0
BLOCK_RECORD
  5
2B7
330
9
100
AcDbSymbolTableRecord
100
AcDbBlockTableRecord
  2
*D8
340
0
 70
0
280
1
281
0
  0
BLOCK_RECORD
  5
2C3
330
9
100
AcDbSymbolTableRecord
100
AcDbBlockTableRecord
  2
*D9
340
0
 70
0
280
1
281
0
  0
ENDTAB
  0
ENDSEC
  0
SECTION
  2
BLOCKS
  0
BLOCK
  5
18
330
17
100
AcDbEntity
  8
0
100
AcDbBlockBegin
  2
*Model_Space
 70
0
 10
0.0
 20
0.0
 30
0.0
  3
*Model_Space
  1

  0
ENDBLK
  5
19
330
17
100
AcDbEntity
  8
0
100
AcDbBlockEnd
  0
BLOCK
  5
1C
330
1B
100
AcDbEntity
  8
0
100
AcDbBlockBegin
  2
*Paper_Space
 70
0
 10
0.0
 20
0.0
 30
0.0
  3
*Paper_Space
  1

  0
ENDBLK
  5
1D
330
1B
100
AcDbEntity
  8
0
100
AcDbBlockEnd
  0
BLOCK
  5
45
330
44
100
AcDbEntity
  8
0
100
AcDbBlockBegin
  2
_Oblique
 70
0
 10
0.0
 20
0.0
 30
0.0
  3
_Oblique
  1

  0
LINE
  5
47
330
44
100
AcDbEntity
  8
0
  6
ByBlock
 62
0
370
-2
100
AcDbLine
 10
-0.5
 20
-0.5
 30
0.0
 11
0.5
 21
0.5
 31
0.0
  0
ENDBLK
  5
46
330
44
100
AcDbEntity
  8
0
100
AcDbBlockEnd
  0
BLOCK
  5
143
330
142
100
AcDbEntity
  8
0
100
AcDbBlockBegin
  2
khungtenAsean2
 70
2
 10
0.0
 20
0.0
 30
0.0
  3
khungtenAsean2
  1

  0
LWPOLYLINE
  5
145
330
142
100
AcDbEntity
  8
0
 62
7
100
AcDbPolyline
 90
4
 70
1
 10
0.0
 20
0.0
 10
2970.000000000422
 20
0.0
 10
2970.000000000422
 20
-2100.00000000032
 10
0.0
 20
-2100.00000000032
  0
LINE
  5
146
330
142
100
AcDbEntity
  8
0
 62
7
100
AcDbLine
 10
2020.0
 20
-2040.00000000032
 30
0.0
 11
0.0
 21
-2040.00000000032
 31
0.0
  0
LINE
  5
147
330
142
100
AcDbEntity
  8
0
 62
7
100
AcDbLine
 10
2970.000000000422
 20
-1980.00000000032
 30
0.0
 11
0.0
 21
-1980.00000000032
 31
0.0
  0
LINE
  5
148
330
142
100
AcDbEntity
  8
0
 62
7
100
AcDbLine
 10
320.0
 20
-1980.00000000032
 30
0.0
 11
320.0
 21
-2100.00000000032
 31
0.0
  0
LINE
  5
149
330
142
100
AcDbEntity
  8
0
 62
7
100
AcDbLine
 10
890.0
 20
-1980.00000000032
 30
0.0
 11
890.0
 21
-2100.00000000032
 31
0.0
  0
LINE
  5
14A
330
142
100
AcDbEntity
  8
0
 62
7
100
AcDbLine
 10
1680.0
 20
-1980.00000000032
 30
0.0
 11
1680.0
 21
-2100.00000000032
 31
0.0
  0
LINE
  5
14B
330
142
100
AcDbEntity
  8
0
 62
7
100
AcDbLine
 10
2020.0
 20
-1980.00000000032
 30
0.0
 11
2020.0
 21
-2100.00000000032
 31
0.0
  0
LINE
  5
14C
330
142
100
AcDbEntity
  8
0
 62
7
100
AcDbLine
 10
2860.000000000422
 20
-1980.00000000032
 30
0.0
 11
2860.000000000422
 21
-2100.00000000032
 31
0.0
  0
MTEXT
  5
14D
330
142
100
AcDbEntity
  8
0
 62
2
100
AcDbMText
 10
0.0
 20
-2010.00000000032
 30
0.0
 40
20.0
 41
917.6339389950801
 46
60.00000000000113
 71
4
 72
5
  1
  Thiết kế :
  7
Arial
  0
MTEXT
  5
14E
330
142
100
AcDbEntity
  8
0
 62
2
100
AcDbMText
 10
0.0
 20
-2070.00000000032
 30
0.0
 40
20.0
 41
917.6339389950801
 46
60.00000000000113
 71
4
 72
5
  1
  CNC :
  7
Arial
  0
MTEXT
  5
14F
330
142
100
AcDbEntity
  8
0
 62
2
100
AcDbMText
 10
320.0
 20
-2010.00000000032
 30
0.0
 40
20.0
 41
917.6339389950801
 46
60.00000000000113
 71
4
 72
5
  1
  Khách hàng :
  7
Arial
  0
MTEXT
  5
150
330
142
100
AcDbEntity
  8
0
 62
2
100
AcDbMText
 10
320.0
 20
-2070.00000000032
 30
0.0
 40
20.0
 41
917.6339389950801
 46
60.00000000000113
 71
4
 72
5
  1
  Giao hàng :
  7
Arial
  0
MTEXT
  5
151
330
142
100
AcDbEntity
  8
0
 62
2
100
AcDbMText
 10
890.0
 20
-2010.00000000032
 30
0.0
 40
20.0
 41
917.6339389950801
 46
60.00000000000113
 71
4
 72
5
  1
  Tên sản phẩm :
  7
Arial
  0
MTEXT
  5
152
330
142
100
AcDbEntity
  8
0
 62
2
100
AcDbMText
 10
890.0
 20
-2070.00000000032
 30
0.0
 40
20.0
 41
917.6339389950801
 46
60.00000000000113
 71
4
 72
5
  1
  Kích thước :
  7
Arial
  0
MTEXT
  5
153
330
142
100
AcDbEntity
  8
0
 62
2
100
AcDbMText
 10
1680.0
 20
-2010.00000000032
 30
0.0
 40
20.0
 41
917.6339389950801
 46
60.00000000000113
 71
4
 72
5
  1
  Số lượng :
  7
Arial
  0
MTEXT
  5
154
330
142
100
AcDbEntity
  8
0
 62
2
100
AcDbMText
 10
1680.0
 20
-2070.00000000032
 30
0.0
 40
20.0
 41
917.6339389950801
 46
60.00000000000113
 71
4
 72
5
  1
  Loại tôn :
  7
Arial
  0
MTEXT
  5
155
330
142
100
AcDbEntity
  8
0
 62
2
100
AcDbMText
 10
2074.15528161102
 20
-2040.00000000032
 30
0.0
 40
20.0
 41
108.3105632220314
 46
120.0000000000011
 71
5
 72
5
  1
Thông\Ptin :
  7
Arial
  0
MTEXT
  5
156
330
142
100
AcDbEntity
  8
0
 62
2
100
AcDbMText
 10
2915.000000000422
 20
-2010.00000000032
 30
0.0
 40
20.0
 41
110.0000000000065
 46
60.00000000000113
 71
5
 72
5
  1
Tờ
  7
Arial
  0
LINE
  5
157
330
142
100
AcDbEntity
  8
0
 62
7
100
AcDbLine
 10
2128.310563222025
 20
-2005.00000000032
 30
0.0
 11
2128.310563222025
 21
-2075.00000000032
 31
0.0
  0
MTEXT
  5
158
330
142
100
AcDbEntity
  8
0
 62
2
100
AcDbMText
 10
1382.285678836575
 20
-2070.00000000032
 30
0.0
 40
20.0
 41
917.6339389950801
 46
60.00000000000113
 71
4
 72
5
  1
mm
  7
Arial
  0
MTEXT
  5
159
330
142
100
AcDbEntity
  8
0
 62
2
100
AcDbMText
 10
1947.610064813329
 20
-2010.00000000032
 30
0.0
 40
20.0
 41
917.6339389950801
 46
60.00000000000113
 71
4
 72
5
  1
cái
  7
Arial
  0
MTEXT
  5
15A
330
142
100
AcDbEntity
  8
0
 62
2
100
AcDbMText
 10
1936.880410494836
 20
-2070.00000000032
 30
0.0
 40
20.0
 41
917.6339389950801
 46
60.00000000000113
 71
4
 72
5
  1
mm
  7
Arial
  0
ATTDEF
  5
15B
330
142
100
AcDbEntity
  8
0
 62
1
100
AcDbText
 10
2883.764212945627
 20
-2067.347800104843
 30
0.0
 40
25.0
  1
......
  7
Tahoma (Input Text)
 72
1
 11
2914.993225705868
 21
-2067.347800104843
 31
0.0
100
AcDbAttributeDefinition
  3
Số trang
  2
#11
 70
8
 71
1
 72
0
 11
2914.993225705868
 21
-2067.347800104843
 31
0.0
  0
ATTDEF
  5
15C
330
142
100
AcDbEntity
  8
0
 62
1
100
AcDbText
 10
2146.716977487464
 20
-2021.275211692002
 30
0.0
 40
25.0
  1
......
  7
Tahoma (Input Text)
100
AcDbAttributeDefinition
  3
Thông tin 1
  2
#09
 70
8
 71
1
 72
0
  0
ATTDEF
  5
15D
330
142
100
AcDbEntity
  8
0
 62
1
100
AcDbText
 10
2146.716977487464
 20
-2081.275211692002
 30
0.0
 40
25.0
  1
......
  7
Tahoma (Input Text)
100
AcDbAttributeDefinition
  3
Thông tin 2
  2
#10
 70
8
 71
1
 72
0
  0
ATTDEF
  5
15E
330
142
100
AcDbEntity
  8
0
 62
1
100
AcDbText
 10
1817.447765733334
 20
-2081.275211692002
 30
0.0
 40
25.0
  1
......
  7
Tahoma (Input Text)
100
AcDbAttributeDefinition
  3
Loại tôn
  2
#08
 70
8
 71
1
 72
0
  0
ATTDEF
  5
15F
330
142
100
AcDbEntity
  8
0
 62
1
100
AcDbText
 10
1834.68151032555
 20
-2021.275211692002
 30
0.0
 40
25.0
  1
......
  7
Tahoma (Input Text)
100
AcDbAttributeDefinition
  3
Số lượng
  2
#07
 70
8
 71
1
 72
0
  0
ATTDEF
  5
160
330
142
100
AcDbEntity
  8
0
 62
1
100
AcDbText
 10
1065.330889143646
 20
-2081.275211692002
 30
0.0
 40
25.0
  1
......
  7
Tahoma (Input Text)
100
AcDbAttributeDefinition
  3
Kích thước
  2
#06
 70
8
 71
1
 72
0
  0
ATTDEF
  5
161
330
142
100
AcDbEntity
  8
0
 62
1
100
AcDbText
 10
1106.628177122154
 20
-2021.275211692002
 30
0.0
 40
25.0
  1
......
  7
Tahoma (Input Text)
100
AcDbAttributeDefinition
  3
Tên s.phẩm
  2
#05
 70
8
 71
1
 72
0
  0
ATTDEF
  5
162
330
142
100
AcDbEntity
  8
0
 62
1
100
AcDbText
 10
486.1050270054984
 20
-2081.275211692002
 30
0.0
 40
25.0
  1
......
  7
Tahoma (Input Text)
100
AcDbAttributeDefinition
  3
Giao hàng
  2
#04
 70
8
 71
1
 72
0
  0
ATTDEF
  5
163
330
142
100
AcDbEntity
  8
0
 62
1
100
AcDbText
 10
506.5707489467022
 20
-2019.301600489707
 30
0.0
 40
25.0
  1
......
  7
Tahoma (Input Text)
100
AcDbAttributeDefinition
  3
Khách hàng
  2
#03
 70
8
 71
1
 72
0
  0
ATTDEF
  5
164
330
142
100
AcDbEntity
  8
0
 62
1
100
AcDbText
 10
98.45672450316488
 20
-2081.275211692002
 30
0.0
 40
25.0
  1
......
  7
Tahoma (Input Text)
100
AcDbAttributeDefinition
  3
CNC
  2
#02
 70
8
 71
1
 72
0
  0
ATTDEF
  5
165
330
142
100
AcDbEntity
  8
0
 62
1
100
AcDbText
 10
137.0535078375105
 20
-2021.275211692002
 30
0.0
 40
25.0
  1
......
  7
Tahoma (Input Text)
100
AcDbAttributeDefinition
  3
Thiết kế
  2
#01
 70
8
 71
1
 72
0
  0
ENDBLK
  5
144
330
142
100
AcDbEntity
  8
0
100
AcDbBlockEnd
  0
BLOCK
  5
167
330
166
100
AcDbEntity
  8
0
100
AcDbBlockBegin
  2
HL044-1
 70
0
 10
0.0
 20
0.0
 30
0.0
  3
HL044-1
  1

  0
LWPOLYLINE
  5
169
330
166
100
AcDbEntity
  8
0
 62
1
100
AcDbPolyline
 90
6
 70
1
 10
2.0
 20
0.0
 10
25.0
 20
0.0
 10
25.0
 20
39.0
 10
2.0
 20
39.0
 42
0.4142135623730951
 10
0.0
 20
37.0
 10
0.0
 20
2.0
 42
0.4142135623730951
  0
CIRCLE
  5
16A
330
166
100
AcDbEntity
  8
0
 62
1
100
AcDbCircle
 10
7.000000000014551
 20
32.50000000001455
 30
0.0
 40
3.0
  0
CIRCLE
  5
16B
330
166
100
AcDbEntity
  8
0
 62
1
100
AcDbCircle
 10
7.000000000014551
 20
6.500000000014551
 30
0.0
 40
3.0
  0
ENDBLK
  5
168
330
166
100
AcDbEntity
  8
0
100
AcDbBlockEnd
  0
BLOCK
  5
16D
330
16C
100
AcDbEntity
  8
0
100
AcDbBlockBegin
  2
AB301-2-1
 70
0
 10
0.0
 20
0.0
 30
0.0
  3
AB301-2-1
  1

  0
LWPOLYLINE
  5
16F
330
16C
100
AcDbEntity
  8
0
  6
Continuous
 62
1
100
AcDbPolyline
 90
8
 70
1
 10
-1.45519e-11
 20
25.00000000000728
 10
-1.45519e-11
 20
25.00000000000728
 42
-0.4142135623730951
 10
14.99999999998545
 20
10.00000000000727
 10
14.99999999998545
 20
-80.49999999999272
 42
-0.4142135623730951
 10
-1.45519e-11
 20
-95.49999999999272
 10
-1.45519e-11
 20
-95.49999999999272
 42
-0.4142135623730951
 10
-15.00000000001455
 20
-80.49999999999272
 10
-15.00000000001455
 20
10.00000000000727
 42
-0.4142135623730951
  0
LWPOLYLINE
  5
170
330
16C
100
AcDbEntity
  8
0
  6
Continuous
 62
1
100
AcDbPolyline
 90
6
 70
1
 10
-1.45519e-11
 20
10.00000000000727
 42
-0.4142135623730951
 10
9.999999999985448
 20
7.276e-12
 10
9.999999999985448
 20
-80.49999999999272
 42
-0.4142135623730951
 10
-1.45519e-11
 20
-90.49999999999272
 42
-0.4142135623730951
 10
-10.00000000001455
 20
-80.49999999999272
 10
-10.00000000001455
 20
7.276e-12
 42
-0.4142135623730951
  0
HATCH
  5
171
330
16C
100
AcDbEntity
  8
0
  6
Continuous
 62
1
100
AcDbHatch
 10
0.0
 20
0.0
 30
0.0
210
0.0
220
0.0
230
1.0
  2
ACAD_ISO09W100
 70
0
 71
0
 91
1
 92
7
 72
1
 73
1
 93
5
 10
-4.08737554690669
 20
-88.5183141082494
 42
0.1184039893890922
 10
-1.45519e-11
 20
-89.49999999999272
 42
0.1184039893890922
 10
4.087375546877586
 20
-88.5183141082494
 42
0.0
 10
6.999999999985446
 20
-71.99999999999272
 42
0.0
 10
-7.000000000014551
 20
-71.99999999999272
 42
0.0
 97
0
 75
1
 76
1
 52
0.0
 41
0.2
 77
0
 78
1
 53
0.0
 43
-368.0181415297993
 44
398.3813967279711
 45
0.0
 46
1.0
 79
6
 49
4.799999999999998
 49
-0.6000000000000001
 49
1.199999999999999
 49
-0.6000000000000001
 49
1.199999999999999
 49
-0.6000000000000001
 47
0.1010447066433967
 98
1
 10
-1.464316444500582
 20
-79.25328255711065
  0
LWPOLYLINE
  5
172
330
16C
100
AcDbEntity
  8
0
  6
Continuous
 62
1
100
AcDbPolyline
 90
7
 70
1
 10
8.999999999985448
 20
-72.49999999999272
 10
8.999999999985448
 20
-80.49999999999272
 42
-0.4142135623730951
 10
-1.45519e-11
 20
-89.49999999999272
 42
-0.4142135623730951
 10
-9.00000000001455
 20
-80.49999999999272
 10
-9.00000000001455
 20
-72.49999999999272
 42
-0.4142135623730951
 10
-7.000000000014551
 20
-70.49999999999272
 10
6.999999999985448
 20
-70.49999999999272
 42
-0.4142135623730951
  0
LINE
  5
173
330
16C
100
AcDbEntity
  8
0
  6
Continuous
 62
1
100
AcDbLine
 10
-10.00000000001455
 20
-50.49999999999272
 30
0.0
 11
9.999999999985448
 21
-50.49999999999272
 31
0.0
  0
LINE
  5
174
330
16C
100
AcDbEntity
  8
0
  6
Continuous
 62
1
100
AcDbLine
 10
-7.000000000014551
 20
-71.99999999999272
 30
0.0
 11
6.999999999985448
 21
-71.99999999999272
 31
0.0
  0
LINE
  5
175
330
16C
100
AcDbEntity
  8
0
  6
Continuous
 62
1
100
AcDbLine
 10
-7.000000000014551
 20
-71.99999999999272
 30
0.0
 11
-4.087375546907423
 21
-88.51831410824525
 31
0.0
  0
LINE
  5
176
330
16C
100
AcDbEntity
  8
0
  6
Continuous
 62
1
100
AcDbLine
 10
6.999999999985448
 20
-71.99999999999272
 30
0.0
 11
4.08737554687832
 21
-88.51831410824525
 31
0.0
  0
CIRCLE
  5
177
330
16C
100
AcDbEntity
  8
0
  6
Continuous
 62
1
100
AcDbCircle
 10
-1.45519e-11
 20
-60.49999999999272
 30
0.0
 40
8.0
  0
LWPOLYLINE
  5
178
330
16C
100
AcDbEntity
  8
0
  6
Continuous
 62
1
100
AcDbPolyline
 90
4
 70
1
 10
-1.000000000014551
 20
-55.49999999999272
 10
0.999999999985448
 20
-55.49999999999272
 10
0.999999999985448
 20
-65.49999999999272
 10
-1.000000000014551
 20
-65.49999999999272
  0
LWPOLYLINE
  5
179
330
16C
100
AcDbEntity
  8
0
  6
Continuous
 62
1
100
AcDbPolyline
 90
8
 70
0
 10
-15.00000000001455
 20
-12.49999999999272
 10
-57.50000000001455
 20
-12.49999999999272
 42
-0.4142135623730951
 10
-65.00000000001455
 20
-4.999999999992724
 10
-65.00000000001455
 20
5.000000000007275
 42
-0.4142135623730951
 10
-57.50000000001455
 20
12.50000000000727
 10
-30.73832970146032
 20
12.50000000000727
 42
0.4142135623730951
 10
-24.73832970146032
 20
18.50000000000727
 10
-24.73832970146032
 20
18.73832970144576
  0
LWPOLYLINE
  5
17A
330
16C
100
AcDbEntity
  8
0
  6
Continuous
 62
1
100
AcDbPolyline
 90
5
 70
0
 10
-24.73832970146032
 20
18.73832970144576
 42
-0.1989123673796609
 10
-22.98097038858395
 20
22.98097038856941
 10
-22.98097038858395
 20
22.98097038856941
 42
-0.4142135623730951
 10
-14.49568901433667
 20
22.98097038856941
 10
-11.33688703729422
 20
19.82216841151967
  0
LWPOLYLINE
  5
17B
330
16C
100
AcDbEntity
  8
0
  6
Continuous
 62
1
100
AcDbPolyline
 90
5
 70
0
 10
14.99999999998545
 20
-6.51471862575272
 10
22.98097038855485
 20
-14.49568901431485
 42
-0.4142135623730951
 10
22.98097038855485
 20
-22.98097038855485
 10
22.98097038855485
 20
-22.98097038855485
 42
-0.381560762960909
 10
14.99999999998545
 20
-23.43139810529828
 42
-0.381560762960909
  0
LWPOLYLINE
  5
17C
330
16C
100
AcDbEntity
  8
0
  6
Continuous
 62
2
100
AcDbPolyline
 90
4
 70
1
 10
-12.00000000001455
 20
13.25000000000727
 10
11.99999999998545
 20
13.25000000000727
 10
11.99999999998545
 20
-83.74999999999272
 10
-12.00000000001455
 20
-83.74999999999272
  0
CIRCLE
  5
17D
330
16C
100
AcDbEntity
  8
0
  6
Continuous
 62
1
100
AcDbCircle
 10
-18.73832970146031
 20
18.73832970144576
 30
0.0
 40
2.5
  0
CIRCLE
  5
17E
330
16C
100
AcDbEntity
  8
0
  6
Continuous
 62
1
100
AcDbCircle
 10
18.73832970143121
 20
-18.73832970143121
 30
0.0
 40
2.5
  0
ENDBLK
  5
16E
330
16C
100
AcDbEntity
  8
0
100
AcDbBlockEnd
  0
BLOCK
  5
180
330
17F
100
AcDbEntity
  8
0
100
AcDbBlockBegin
  2
HL044-2
 70
0
 10
0.0
 20
0.0
 30
0.0
  3
HL044-2
  1

  0
LINE
  5
182
330
17F
100
AcDbEntity
  8
0
 62
1
100
AcDbLine
 10
22.0
 20
-3.0
 30
0.0
 11
0.0
 21
-3.0
 31
0.0
  0
LINE
  5
183
330
17F
100
AcDbEntity
  8
0
 62
1
100
AcDbLine
 10
0.0
 20
-3.0
 30
0.0
 11
0.0
 21
0.0
 31
0.0
  0
LINE
  5
184
330
17F
100
AcDbEntity
  8
0
 62
1
100
AcDbLine
 10
0.0
 20
0.0
 30
0.0
 11
23.0
 21
0.0
 31
0.0
  0
LINE
  5
185
330
17F
100
AcDbEntity
  8
0
 62
1
100
AcDbLine
 10
25.0
 20
-2.0
 30
0.0
 11
25.0
 21
-3.0
 31
0.0
  0
ARC
  5
186
330
17F
100
AcDbEntity
  8
0
 62
1
100
AcDbCircle
 10
23.0
 20
-2.0
 30
0.0
 40
2.0
100
AcDbArc
 50
0.0
 51
90.0
  0
LINE
  5
187
330
17F
100
AcDbEntity
  8
0
 62
1
100
AcDbLine
 10
4.0
 20
-3.0
 30
0.0
 11
4.0
 21
0.0
 31
0.0
  0
LINE
  5
188
330
17F
100
AcDbEntity
  8
0
 62
1
100
AcDbLine
 10
10.0
 20
-3.0
 30
0.0
 11
10.0
 21
0.0
 31
0.0
  0
LINE
  5
189
330
17F
100
AcDbEntity
  8
0
 62
1
100
AcDbLine
 10
25.0
 20
-3.0
 30
0.0
 11
25.0
 21
-26.0
 31
0.0
  0
LINE
  5
18A
330
17F
100
AcDbEntity
  8
0
 62
1
100
AcDbLine
 10
22.0
 20
-3.0
 30
0.0
 11
22.0
 21
-26.0
 31
0.0
  0
CIRCLE
  5
18B
330
17F
100
AcDbEntity
  8
0
 62
1
100
AcDbCircle
 10
19.5
 20
-33.0
 30
0.0
 40
2.5
  0
ARC
  5
18C
330
17F
100
AcDbEntity
  8
0
 62
1
100
AcDbCircle
 10
19.5
 20
-33.0
 30
0.0
 40
5.5
100
AcDbArc
 50
270.0
 51
0.0
  0
LINE
  5
18D
330
17F
100
AcDbEntity
  8
0
 62
1
100
AcDbLine
 10
25.0
 20
-26.0
 30
0.0
 11
-20.0
 21
-26.0
 31
0.0
  0
LINE
  5
18E
330
17F
100
AcDbEntity
  8
0
 62
1
100
AcDbLine
 10
-20.0
 20
-26.0
 30
0.0
 11
-20.0
 21
-28.0
 31
0.0
  0
LINE
  5
18F
330
17F
100
AcDbEntity
  8
0
 62
1
100
AcDbLine
 10
-20.0
 20
-28.0
 30
0.0
 11
19.5
 21
-38.5
 31
0.0
  0
LINE
  5
190
330
17F
100
AcDbEntity
  8
0
 62
1
100
AcDbLine
 10
25.0
 20
-33.0
 30
0.0
 11
25.0
 21
-26.0
 31
0.0
  0
LWPOLYLINE
  5
191
330
17F
100
AcDbEntity
  8
0
 62
1
100
AcDbPolyline
 90
4
 70
1
 10
-3.999999999999996
 20
-19.5
 10
4.000000000000003
 20
-19.5
 10
4.000000000000003
 20
-26.0
 10
-3.999999999999996
 20
-26.0
  0
LINE
  5
192
330
17F
100
AcDbEntity
  8
0
 62
1
100
AcDbLine
 10
3.000000000000003
 20
-19.5
 30
0.0
 11
3.000000000000003
 21
-26.0
 31
0.0
  0
LINE
  5
193
330
17F
100
AcDbEntity
  8
0
 62
1
100
AcDbLine
 10
-2.999999999999996
 20
-19.5
 30
0.0
 11
-2.999999999999996
 21
-26.0
 31
0.0
  0
LINE
  5
194
330
17F
100
AcDbEntity
  8
0
 62
1
100
AcDbLine
 10
-2.999999999999996
 20
-19.5
 30
0.0
 11
3.000000000000003
 21
-20.06594188965287
 31
0.0
  0
LINE
  5
195
330
17F
100
AcDbEntity
  8
0
 62
1
100
AcDbLine
 10
-2.999999999999996
 20
-20.5
 30
0.0
 11
3.000000000000003
 21
-21.06594188965287
 31
0.0
  0
LINE
  5
196
330
17F
100
AcDbEntity
  8
0
 62
1
100
AcDbLine
 10
-2.999999999999996
 20
-21.5
 30
0.0
 11
3.000000000000003
 21
-22.06594188965286
 31
0.0
  0
LINE
  5
197
330
17F
100
AcDbEntity
  8
0
 62
1
100
AcDbLine
 10
-2.999999999999996
 20
-22.5
 30
0.0
 11
3.000000000000003
 21
-23.06594188965287
 31
0.0
  0
LINE
  5
198
330
17F
100
AcDbEntity
  8
0
 62
1
100
AcDbLine
 10
-2.999999999999996
 20
-23.5
 30
0.0
 11
3.000000000000003
 21
-24.06594188965287
 31
0.0
  0
LINE
  5
199
330
17F
100
AcDbEntity
  8
0
 62
1
100
AcDbLine
 10
-2.999999999999996
 20
-24.5
 30
0.0
 11
3.000000000000003
 21
-25.06594188965287
 31
0.0
  0
LINE
  5
19A
330
17F
100
AcDbEntity
  8
0
 62
1
100
AcDbLine
 10
-2.999999999999996
 20
-25.5
 30
0.0
 11
2.300897591871374
 21
-26.0
 31
0.0
  0
ENDBLK
  5
181
330
17F
100
AcDbEntity
  8
0
100
AcDbBlockEnd
  0
BLOCK
  5
19C
330
19B
100
AcDbEntity
  8
0
100
AcDbBlockBegin
  2
A$C67844AE1
 70
0
 10
0.0
 20
0.0
 30
0.0
  3
A$C67844AE1
  1

  0
LWPOLYLINE
  5
19E
330
19B
100
AcDbEntity
  8
0
 62
1
100
AcDbPolyline
 90
4
 70
0
 10
21.99991543998476
 20
19.99987769629661
 10
21.99991543998476
 20
-0.0001223037033924
 10
20.99991543998476
 20
-0.0001223037033924
 10
20.99991543998476
 20
18.26782688873209
  0
LWPOLYLINE
  5
19F
330
19B
100
AcDbEntity
  8
0
 62
1
100
AcDbPolyline
 90
4
 70
0
 10
19.99991543998476
 20
21.99987769631844
 10
-8.45600152388e-05
 20
21.99987769631844
 10
-8.45600152388e-05
 20
20.99987769631844
 10
18.26786463242024
 20
20.99987769631844
  0
CIRCLE
  5
1A0
330
19B
100
AcDbEntity
  8
0
 62
1
100
AcDbCircle
 10
19.99991543998476
 20
19.99987769631843
 30
0.0
 40
2.0
  0
LINE
  5
1A1
330
19B
100
AcDbEntity
  8
0
 62
1
100
AcDbLine
 10
19.99991543998476
 20
18.99987769631843
 30
0.0
 11
19.99991543998476
 21
20.99987769631844
 31
0.0
  0
LINE
  5
1A2
330
19B
100
AcDbEntity
  8
0
 62
1
100
AcDbLine
 10
18.99991543998476
 20
19.99987769631843
 30
0.0
 11
20.99991543998476
 21
19.99987769631843
 31
0.0
  0
ENDBLK
  5
19D
330
19B
100
AcDbEntity
  8
0
100
AcDbBlockEnd
  0
BLOCK
  5
1A4
330
1A3
100
AcDbEntity
  8
0
100
AcDbBlockBegin
  2
el GI 50-side
 70
0
 10
0.0
 20
0.0
 30
0.0
  3
el GI 50-side
  1

  0
LINE
  5
1A6
330
1A3
100
AcDbEntity
  8
CENTER
100
AcDbLine
 10
-58.63718731939662
 20
0.0
 30
0.0
 11
-58.63718731940025
 21
-56.45568984585406
 31
0.0
  0
LINE
  5
1A7
330
1A3
100
AcDbEntity
  8
Fitting
100
AcDbLine
 10
-88.63718731940025
 20
-45.0
 30
0.0
 11
-88.63718731940025
 21
-50.45568984585407
 31
0.0
  0
LINE
  5
1A8
330
1A3
100
AcDbEntity
  8
SEWAGE
100
AcDbLine
 10
-28.63718731940025
 20
-45.0
 30
0.0
 11
-28.63718731940025
 21
-50.45568984585407
 31
0.0
  0
LWPOLYLINE
  5
1A9
330
1A3
100
AcDbEntity
  8
SEWAGE
100
AcDbPolyline
 90
4
 70
1
 10
-91.63718731940025
 20
-56.45568984585406
 10
-25.63718731940026
 20
-56.45568984585406
 10
-25.63718731940026
 20
-50.45568984585407
 10
-91.63718731940025
 20
-50.45568984585407
  0
LWPOLYLINE
  5
1AA
330
1A3
100
AcDbEntity
  8
SEWAGE
100
AcDbPolyline
 90
4
 70
1
 10
-6.0
 20
33.0
 10
-6.0
 20
-33.0
 10
0.0
 20
-33.0
 10
0.0
 20
33.0
  0
LINE
  5
1AB
330
1A3
100
AcDbEntity
  8
CENTER
100
AcDbLine
 10
0.0
 20
0.0
 30
0.0
 11
-58.63718731940025
 21
0.0
 31
0.0
  0
LINE
  5
1AC
330
1A3
100
AcDbEntity
  8
SEWAGE
100
AcDbLine
 10
-6.0
 20
-30.0
 30
0.0
 11
-13.63718731940025
 21
-30.0
 31
0.0
  0
LINE
  5
1AD
330
1A3
100
AcDbEntity
  8
Fitting
100
AcDbLine
 10
-6.0
 20
30.0
 30
0.0
 11
-13.63718731940025
 21
30.0
 31
0.0
  0
ARC
  5
1AE
330
1A3
100
AcDbEntity
  8
SEWAGE
100
AcDbCircle
 10
-13.63718731940025
 20
-45.0
 30
0.0
 40
15.0
100
AcDbArc
 50
90.0
 51
180.0
  0
ARC
  5
1AF
330
1A3
100
AcDbEntity
  8
SEWAGE
100
AcDbCircle
 10
-13.63718731940025
 20
-45.0
 30
0.0
 40
75.0
100
AcDbArc
 50
90.0
 51
180.0
  0
ENDBLK
  5
1A5
330
1A3
100
AcDbEntity
  8
0
100
AcDbBlockEnd
  0
BLOCK
  5
1B1
330
1B0
100
AcDbEntity
  8
0
100
AcDbBlockBegin
  2
*U7
 70
1
 10
0.0
 20
0.0
 30
0.0
  3
*U7
  1

  0
LINE
  5
1B3
330
1B0
100
AcDbEntity
  8
0
  6
DASHDOT
 62
8
100
AcDbLine
 10
-62.0
 20
0.0
 30
0.0
 11
62.0
 21
0.0
 31
0.0
  0
LINE
  5
1B4
330
1B0
100
AcDbEntity
  8
0
  6
DASHDOT
 62
8
100
AcDbLine
 10
0.0
 20
-40.24070365752629
 30
0.0
 11
0.0
 21
62.0
 31
0.0
  0
ARC
  5
1B5
330
1B0
100
AcDbEntity
  8
0
 62
2
100
AcDbCircle
 10
44.5
 20
40.0
 30
0.0
 40
10.0
100
AcDbArc
 50
143.1301019999941
 51
180.0
  0
ARC
  5
1B6
330
1B0
100
AcDbEntity
  8
0
 62
2
100
AcDbCircle
 10
-44.5
 20
40.0
 30
0.0
 40
10.0
100
AcDbArc
 50
0.0
 51
36.86989800000584
  0
LINE
  5
1B7
330
1B0
100
AcDbEntity
  8
0
 62
2
100
AcDbLine
 10
36.5
 20
46.0
 30
0.0
 11
-36.5
 21
46.0
 31
0.0
  0
LINE
  5
1B8
330
1B0
100
AcDbEntity
  8
0
 62
2
100
AcDbLine
 10
-30.80000000000018
 20
57.0
 30
0.0
 11
30.80000000000018
 21
57.0
 31
0.0
  0
LINE
  5
1B9
330
1B0
100
AcDbEntity
  8
0
 62
2
100
AcDbLine
 10
-36.5
 20
56.19891699999971
 30
0.0
 11
-36.5
 21
46.0
 31
0.0
  0
LINE
  5
1BA
330
1B0
100
AcDbEntity
  8
0
 62
2
100
AcDbLine
 10
30.80000000000018
 20
57.0
 30
0.0
 11
36.5
 21
56.19891699999971
 31
0.0
  0
LINE
  5
1BB
330
1B0
100
AcDbEntity
  8
0
 62
2
100
AcDbLine
 10
36.5
 20
56.19891699999971
 30
0.0
 11
36.5
 21
46.0
 31
0.0
  0
LINE
  5
1BC
330
1B0
100
AcDbEntity
  8
0
 62
2
100
AcDbLine
 10
-30.80000000000018
 20
57.0
 30
0.0
 11
-36.5
 21
56.19891699999971
 31
0.0
  0
LINE
  5
1BD
330
1B0
100
AcDbEntity
  8
0
 62
2
100
AcDbLine
 10
-46.0
 20
36.5
 30
0.0
 11
-46.0
 21
-36.5
 31
0.0
  0
LINE
  5
1BE
330
1B0
100
AcDbEntity
  8
0
 62
2
100
AcDbLine
 10
-56.19891700000062
 20
-36.5
 30
0.0
 11
-46.0
 21
-36.5
 31
0.0
  0
LINE
  5
1BF
330
1B0
100
AcDbEntity
  8
0
 62
2
100
AcDbLine
 10
-57.0
 20
-30.80000000000018
 30
0.0
 11
-57.0
 21
30.79999999999973
 31
0.0
  0
ARC
  5
1C0
330
1B0
100
AcDbEntity
  8
0
 62
2
100
AcDbCircle
 10
40.0
 20
-44.5
 30
0.0
 40
10.0
100
AcDbArc
 50
53.13010200000459
 51
90.0
  0
ARC
  5
1C1
330
1B0
100
AcDbEntity
  8
0
 62
2
100
AcDbCircle
 10
40.0
 20
44.5
 30
0.0
 40
10.0
100
AcDbArc
 50
270.0
 51
306.8698979999876
  0
ARC
  5
1C2
330
1B0
100
AcDbEntity
  8
0
 62
2
100
AcDbCircle
 10
-40.0
 20
-44.5
 30
0.0
 40
10.0
100
AcDbArc
 50
90.0
 51
126.8698979999876
  0
LINE
  5
1C3
330
1B0
100
AcDbEntity
  8
0
 62
2
100
AcDbLine
 10
-56.19891700000062
 20
36.5
 30
0.0
 11
-46.0
 21
36.5
 31
0.0
  0
LINE
  5
1C4
330
1B0
100
AcDbEntity
  8
0
 62
2
100
AcDbLine
 10
-57.0
 20
30.79999999999973
 30
0.0
 11
-56.19891700000062
 21
36.5
 31
0.0
  0
ARC
  5
1C5
330
1B0
100
AcDbEntity
  8
0
 62
2
100
AcDbCircle
 10
-40.0
 20
44.5
 30
0.0
 40
10.0
100
AcDbArc
 50
233.1301020000046
 51
270.0
  0
LINE
  5
1C6
330
1B0
100
AcDbEntity
  8
0
 62
2
100
AcDbLine
 10
56.19891699999971
 20
36.5
 30
0.0
 11
46.0
 21
36.5
 31
0.0
  0
LINE
  5
1C7
330
1B0
100
AcDbEntity
  8
0
 62
2
100
AcDbLine
 10
57.0
 20
30.79999999999973
 30
0.0
 11
56.19891699999971
 21
36.5
 31
0.0
  0
LINE
  5
1C8
330
1B0
100
AcDbEntity
  8
0
 62
2
100
AcDbLine
 10
46.0
 20
36.5
 30
0.0
 11
46.0
 21
-36.5
 31
0.0
  0
LINE
  5
1C9
330
1B0
100
AcDbEntity
  8
0
 62
2
100
AcDbLine
 10
57.0
 20
-30.80000000000018
 30
0.0
 11
57.0
 21
30.79999999999973
 31
0.0
  0
LINE
  5
1CA
330
1B0
100
AcDbEntity
  8
0
 62
2
100
AcDbLine
 10
40.0
 20
34.5
 30
0.0
 11
39.5
 21
34.5
 31
0.0
  0
LINE
  5
1CB
330
1B0
100
AcDbEntity
  8
0
 62
2
100
AcDbLine
 10
56.19891699999971
 20
-36.5
 30
0.0
 11
46.0
 21
-36.5
 31
0.0
  0
LINE
  5
1CC
330
1B0
100
AcDbEntity
  8
0
 62
2
100
AcDbLine
 10
-57.0
 20
-30.80000000000018
 30
0.0
 11
-56.19891700000062
 21
-36.5
 31
0.0
  0
LINE
  5
1CD
330
1B0
100
AcDbEntity
  8
0
 62
2
100
AcDbLine
 10
57.0
 20
-30.80000000000018
 30
0.0
 11
56.19891699999971
 21
-36.5
 31
0.0
  0
ARC
  5
1CE
330
1B0
100
AcDbEntity
  8
0
 62
2
100
AcDbCircle
 10
39.5
 20
39.5
 30
0.0
 40
5.0
100
AcDbArc
 50
180.0
 51
270.0
  0
ARC
  5
1CF
330
1B0
100
AcDbEntity
  8
0
 62
2
100
AcDbCircle
 10
-39.5
 20
39.5
 30
0.0
 40
5.0
100
AcDbArc
 50
270.0
 51
0.0
  0
LINE
  5
1D0
330
1B0
100
AcDbEntity
  8
0
 62
2
100
AcDbLine
 10
-39.5
 20
34.5
 30
0.0
 11
-40.0
 21
34.5
 31
0.0
  0
LINE
  5
1D1
330
1B0
100
AcDbEntity
  8
0
 62
2
100
AcDbLine
 10
-34.5
 20
39.5
 30
0.0
 11
-34.5
 21
40.0
 31
0.0
  0
LINE
  5
1D2
330
1B0
100
AcDbEntity
  8
0
100
AcDbLine
 10
34.5
 20
39.5
 30
0.0
 11
34.5
 21
40.0
 31
0.0
  0
LINE
  5
1D3
330
1B0
100
AcDbEntity
  8
0
  6
DASHDOT
 60
1
100
AcDbLine
 10
-62.0
 20
0.0
 30
0.0
 11
62.0
 21
0.0
 31
0.0
  0
LINE
  5
1D4
330
1B0
100
AcDbEntity
  8
0
  6
DASHDOT
 60
1
100
AcDbLine
 10
0.0
 20
-41.5
 30
0.0
 11
0.0
 21
41.5
 31
0.0
  0
LINE
  5
1D5
330
1B0
100
AcDbEntity
  8
0
 60
1
100
AcDbLine
 10
-46.0
 20
36.5
 30
0.0
 11
-46.0
 21
-36.5
 31
0.0
  0
LINE
  5
1D6
330
1B0
100
AcDbEntity
  8
0
 60
1
100
AcDbLine
 10
-56.19891700000062
 20
-36.5
 30
0.0
 11
-46.0
 21
-36.5
 31
0.0
  0
LINE
  5
1D7
330
1B0
100
AcDbEntity
  8
0
 60
1
100
AcDbLine
 10
-57.0
 20
-30.80000000000018
 30
0.0
 11
-57.0
 21
30.79999999999973
 31
0.0
  0
ARC
  5
1D8
330
1B0
100
AcDbEntity
  8
0
 60
1
100
AcDbCircle
 10
40.0
 20
-44.5
 30
0.0
 40
10.0
100
AcDbArc
 50
53.13010200000448
 51
90.0
  0
ARC
  5
1D9
330
1B0
100
AcDbEntity
  8
0
 60
1
100
AcDbCircle
 10
40.0
 20
44.5
 30
0.0
 40
10.0
100
AcDbArc
 50
270.0
 51
306.8698979999875
  0
ARC
  5
1DA
330
1B0
100
AcDbEntity
  8
0
 60
1
100
AcDbCircle
 10
-40.0
 20
-44.5
 30
0.0
 40
10.0
100
AcDbArc
 50
90.0
 51
126.8698979999875
  0
LINE
  5
1DB
330
1B0
100
AcDbEntity
  8
0
 60
1
100
AcDbLine
 10
-56.19891700000062
 20
36.5
 30
0.0
 11
-46.0
 21
36.5
 31
0.0
  0
LINE
  5
1DC
330
1B0
100
AcDbEntity
  8
0
 60
1
100
AcDbLine
 10
-57.0
 20
30.79999999999973
 30
0.0
 11
-56.19891700000062
 21
36.5
 31
0.0
  0
ARC
  5
1DD
330
1B0
100
AcDbEntity
  8
0
 60
1
100
AcDbCircle
 10
-40.0
 20
44.5
 30
0.0
 40
10.0
100
AcDbArc
 50
233.1301020000045
 51
270.0
  0
LINE
  5
1DE
330
1B0
100
AcDbEntity
  8
0
 60
1
100
AcDbLine
 10
40.0
 20
-34.5
 30
0.0
 11
11.91637600000013
 21
-34.5
 31
0.0
  0
LINE
  5
1DF
330
1B0
100
AcDbEntity
  8
0
 60
1
100
AcDbLine
 10
56.19891699999971
 20
36.5
 30
0.0
 11
46.0
 21
36.5
 31
0.0
  0
LINE
  5
1E0
330
1B0
100
AcDbEntity
  8
0
 60
1
100
AcDbLine
 10
57.0
 20
30.79999999999973
 30
0.0
 11
56.19891699999971
 21
36.5
 31
0.0
  0
LINE
  5
1E1
330
1B0
100
AcDbEntity
  8
0
 60
1
100
AcDbLine
 10
46.0
 20
36.5
 30
0.0
 11
46.0
 21
-36.5
 31
0.0
  0
LINE
  5
1E2
330
1B0
100
AcDbEntity
  8
0
 60
1
100
AcDbLine
 10
57.0
 20
-30.80000000000018
 30
0.0
 11
57.0
 21
30.79999999999973
 31
0.0
  0
LINE
  5
1E3
330
1B0
100
AcDbEntity
  8
0
 60
1
100
AcDbLine
 10
40.0
 20
34.5
 30
0.0
 11
11.91637600000013
 21
34.5
 31
0.0
  0
LINE
  5
1E4
330
1B0
100
AcDbEntity
  8
0
 60
1
100
AcDbLine
 10
56.19891699999971
 20
-36.5
 30
0.0
 11
46.0
 21
-36.5
 31
0.0
  0
LINE
  5
1E5
330
1B0
100
AcDbEntity
  8
0
 60
1
100
AcDbLine
 10
-57.0
 20
-30.80000000000018
 30
0.0
 11
-56.19891700000062
 21
-36.5
 31
0.0
  0
LINE
  5
1E6
330
1B0
100
AcDbEntity
  8
0
 60
1
100
AcDbLine
 10
57.0
 20
-30.80000000000018
 30
0.0
 11
56.19891699999971
 21
-36.5
 31
0.0
  0
LINE
  5
1E7
330
1B0
100
AcDbEntity
  8
0
 60
1
100
AcDbLine
 10
-11.91637499999979
 20
34.5
 30
0.0
 11
-40.0
 21
34.5
 31
0.0
  0
LINE
  5
1E8
330
1B0
100
AcDbEntity
  8
0
 60
1
100
AcDbLine
 10
-11.91637499999979
 20
-34.5
 30
0.0
 11
-40.0
 21
-34.5
 31
0.0
  0
CIRCLE
  5
1E9
330
1B0
100
AcDbEntity
  8
0
 60
1
100
AcDbCircle
 10
0.0
 20
0.0
 30
0.0
 40
29.807
  0
CIRCLE
  5
1EA
330
1B0
100
AcDbEntity
  8
0
 60
1
100
AcDbCircle
 10
0.0
 20
0.0
 30
0.0
 40
28.28029
  0
CIRCLE
  5
1EB
330
1B0
100
AcDbEntity
  8
0
 60
1
100
AcDbCircle
 10
0.0
 20
0.0
 30
0.0
 40
36.5
  0
LINE
  5
1EC
330
1B0
100
AcDbEntity
  8
0
 62
2
100
AcDbLine
 10
-40.0
 20
-34.5
 30
0.0
 11
40.0
 21
-34.5
 31
0.0
  0
LINE
  5
1ED
330
1B0
100
AcDbEntity
  8
0
  6
DASHDOT
 60
1
100
AcDbLine
 10
0.0
 20
62.0
 30
0.0
 11
0.0
 21
-43.21911228140026
 31
0.0
  0
LINE
  5
1EE
330
1B0
100
AcDbEntity
  8
0
  6
DASHDOT
 60
1
100
AcDbLine
 10
-41.5
 20
0.0
 30
0.0
 11
41.5
 21
0.0
 31
0.0
  0
LINE
  5
1EF
330
1B0
100
AcDbEntity
  8
0
 60
1
100
AcDbLine
 10
36.5
 20
46.0
 30
0.0
 11
-36.5
 21
46.0
 31
0.0
  0
LINE
  5
1F0
330
1B0
100
AcDbEntity
  8
0
 60
1
100
AcDbLine
 10
-36.5
 20
56.19891699999971
 30
0.0
 11
-36.5
 21
46.0
 31
0.0
  0
LINE
  5
1F1
330
1B0
100
AcDbEntity
  8
0
 60
1
100
AcDbLine
 10
-30.80000000000018
 20
57.0
 30
0.0
 11
30.80000000000018
 21
57.0
 31
0.0
  0
ARC
  5
1F2
330
1B0
100
AcDbEntity
  8
0
 60
1
100
AcDbCircle
 10
-44.5
 20
40.0
 30
0.0
 40
10.0
100
AcDbArc
 50
0.0
 51
36.86989800000535
  0
LINE
  5
1F3
330
1B0
100
AcDbEntity
  8
0
 60
1
100
AcDbLine
 10
36.5
 20
56.19891699999971
 30
0.0
 11
36.5
 21
46.0
 31
0.0
  0
LINE
  5
1F4
330
1B0
100
AcDbEntity
  8
0
 60
1
100
AcDbLine
 10
30.80000000000018
 20
57.0
 30
0.0
 11
36.5
 21
56.19891699999971
 31
0.0
  0
ARC
  5
1F5
330
1B0
100
AcDbEntity
  8
0
 60
1
100
AcDbCircle
 10
44.5
 20
40.0
 30
0.0
 40
10.0
100
AcDbArc
 50
143.1301019999946
 51
180.0
  0
LINE
  5
1F6
330
1B0
100
AcDbEntity
  8
0
 60
1
100
AcDbLine
 10
-30.80000000000018
 20
57.0
 30
0.0
 11
-36.5
 21
56.19891699999971
 31
0.0
  0
LINE
  5
1F7
330
1B0
100
AcDbEntity
  8
0
 60
1
100
AcDbLine
 10
34.5
 20
11.91637499999979
 30
0.0
 11
34.5
 21
40.0
 31
0.0
  0
LINE
  5
1F8
330
1B0
100
AcDbEntity
  8
0
 60
1
100
AcDbLine
 10
-34.5
 20
11.91637499999979
 30
0.0
 11
-34.5
 21
40.0
 31
0.0
  0
CIRCLE
  5
1F9
330
1B0
100
AcDbEntity
  8
0
 60
1
100
AcDbCircle
 10
0.0
 20
0.0
 30
0.0
 40
29.807
  0
CIRCLE
  5
1FA
330
1B0
100
AcDbEntity
  8
0
 60
1
100
AcDbCircle
 10
0.0
 20
0.0
 30
0.0
 40
28.28029
  0
CIRCLE
  5
1FB
330
1B0
100
AcDbEntity
  8
0
 60
1
100
AcDbCircle
 10
0.0
 20
0.0
 30
0.0
 40
36.5
  0
ENDBLK
  5
1B2
330
1B0
100
AcDbEntity
  8
0
100
AcDbBlockEnd
  0
BLOCK
  5
1FD
330
1FC
100
AcDbEntity
  8
0
100
AcDbBlockBegin
  2
E-VALT CH
 70
0
 10
0.0
 20
0.0
 30
0.0
  3
E-VALT CH
  1

  0
ARC
  5
1FF
330
1FC
100
AcDbEntity
  8
bc
 62
9
100
AcDbCircle
 10
348831.9273357487
 20
-29451.99917242084
 30
0.0
 40
5.681014067532582
100
AcDbArc
 50
15.02548971654229
 51
109.7386901558332
  0
LINE
  5
200
330
1FC
100
AcDbEntity
  8
bc
 62
9
100
AcDbLine
 10
348747.9110161059
 20
-29459.98230132614
 30
0.0
 11
348771.8218824028
 21
-29459.98230132614
 31
0.0
  0
ARC
  5
201
330
1FC
100
AcDbEntity
  8
bc
 62
9
100
AcDbCircle
 10
348721.2484187682
 20
-29521.8814943504
 30
0.0
 40
67.39736043645014
100
AcDbArc
 50
66.69641368810072
 51
124.8909319987436
  0
LINE
  5
202
330
1FC
100
AcDbEntity
  8
bc
 62
9
100
AcDbLine
 10
348787.4592901909
 20
-29523.48276224979
 30
0.0
 11
348787.4592901909
 21
-29501.35659351167
 31
0.0
  0
ARC
  5
203
330
1FC
100
AcDbEntity
  8
bc
 62
9
100
AcDbCircle
 10
348800.2549378653
 20
-29491.3092182145
 30
0.0
 40
9.363164179106525
100
AcDbArc
 50
329.7218556659011
 51
354.5302051704473
  0
LINE
  5
204
330
1FC
100
AcDbEntity
  8
bc
 62
9
100
AcDbLine
 10
348808.340853544
 20
-29496.0301091351
 30
0.0
 11
348802.8419325904
 21
-29496.0301091351
 31
0.0
  0
LINE
  5
205
330
1FC
100
AcDbEntity
  8
bc
 62
9
100
AcDbLine
 10
348809.5984971449
 20
-29496.9988648497
 30
0.0
 11
348823.6918003746
 21
-29496.9988648497
 31
0.0
  0
LINE
  5
206
330
1FC
100
AcDbEntity
  8
bc
 62
9
100
AcDbLine
 10
348823.6918003746
 20
-29498.81913725068
 30
0.0
 11
348830.0086815914
 21
-29496.98270062697
 31
0.0
  0
LINE
  5
207
330
1FC
100
AcDbEntity
  8
bc
 62
9
100
AcDbLine
 10
348802.8419325904
 20
-29492.20172425885
 30
0.0
 11
348809.5984971449
 21
-29492.20172425885
 31
0.0
  0
LINE
  5
208
330
1FC
100
AcDbEntity
  8
bc
 62
9
100
AcDbLine
 10
348802.8419325904
 20
-29510.51146276542
 30
0.0
 11
348802.8419325904
 21
-29501.35659351167
 31
0.0
  0
LINE
  5
209
330
1FC
100
AcDbEntity
  8
bc
 62
9
100
AcDbLine
 10
348802.8419325904
 20
-29510.51146276542
 30
0.0
 11
348809.5984971449
 21
-29510.51146276542
 31
0.0
  0
ARC
  5
20A
330
1FC
100
AcDbEntity
  8
bc
 62
9
100
AcDbCircle
 10
348800.2549378653
 20
-29501.96218696856
 30
0.0
 40
9.363164179106525
100
AcDbArc
 50
329.7218556659011
 51
3.708381697398346
  0
ARC
  5
20B
330
1FC
100
AcDbEntity
  8
bc
 62
9
100
AcDbCircle
 10
348800.2549378653
 20
-29511.40396880978
 30
0.0
 40
9.363164179106525
100
AcDbArc
 50
5.469794829552714
 51
30.27814433409889
  0
LINE
  5
20C
330
1FC
100
AcDbEntity
  8
bc
 62
9
100
AcDbLine
 10
348808.340853544
 20
-29506.68307788916
 30
0.0
 11
348802.8419325904
 21
-29506.68307788916
 31
0.0
  0
LINE
  5
20D
330
1FC
100
AcDbEntity
  8
bc
 62
9
100
AcDbLine
 10
348809.5984971449
 20
-29505.71432217457
 30
0.0
 11
348823.6918003746
 21
-29505.71432217457
 31
0.0
  0
LINE
  5
20E
330
1FC
100
AcDbEntity
  8
bc
 62
9
100
AcDbLine
 10
348823.6918003746
 20
-29506.43150603459
 30
0.0
 11
348823.6918003746
 21
-29501.35659351167
 31
0.0
  0
ARC
  5
20F
330
1FC
100
AcDbEntity
  8
bc
 62
9
100
AcDbCircle
 10
348822.1240488869
 20
-29514.19236645256
 30
0.0
 40
7.917625852966096
100
AcDbArc
 50
354.7675757874645
 51
78.57951667211206
  0
LINE
  5
210
330
1FC
100
AcDbEntity
  8
bc
 62
9
100
AcDbLine
 10
348823.6918003746
 20
-29503.89404977359
 30
0.0
 11
348830.0086815914
 21
-29506.12482440904
 31
0.0
  0
LINE
  5
211
330
1FC
100
AcDbEntity
  8
bc
 62
9
100
AcDbLine
 10
348802.8419325904
 20
-29492.20172425885
 30
0.0
 11
348802.8419325904
 21
-29501.35659351167
 31
0.0
  0
LINE
  5
212
330
1FC
100
AcDbEntity
  8
bc
 62
9
100
AcDbLine
 10
348809.5984971449
 20
-29492.20172425885
 30
0.0
 11
348809.5984971449
 21
-29510.51146276542
 31
0.0
  0
ARC
  5
213
330
1FC
100
AcDbEntity
  8
bc
 62
9
100
AcDbCircle
 10
348800.2549378653
 20
-29500.75100005571
 30
0.0
 40
9.363164179106525
100
AcDbArc
 50
356.2916183026016
 51
30.27814433409889
  0
LINE
  5
214
330
1FC
100
AcDbEntity
  8
bc
 62
9
100
AcDbLine
 10
348823.6918003746
 20
-29496.28168098968
 30
0.0
 11
348823.6918003746
 21
-29501.35659351167
 31
0.0
  0
ARC
  5
215
330
1FC
100
AcDbEntity
  8
bc
 62
9
100
AcDbCircle
 10
348822.1240488869
 20
-29488.52082057171
 30
0.0
 40
7.917625852966096
100
AcDbArc
 50
281.4204833278879
 51
5.232424212535503
  0
LINE
  5
216
330
1FC
100
AcDbEntity
  8
bc
 62
9
100
AcDbLine
 10
348787.4592901909
 20
-29519.01082485881
 30
0.0
 11
348802.8419325904
 21
-29510.51146276542
 31
0.0
  0
LINE
  5
217
330
1FC
100
AcDbEntity
  8
bc
 62
9
100
AcDbLine
 10
348787.4592901909
 20
-29479.23042477448
 30
0.0
 11
348787.4592901909
 21
-29501.35659351167
 31
0.0
  0
LINE
  5
218
330
1FC
100
AcDbEntity
  8
bc
 62
9
100
AcDbLine
 10
348787.4592901909
 20
-29483.70236216545
 30
0.0
 11
348802.8419325904
 21
-29492.20172425885
 31
0.0
  0
ARC
  5
219
330
1FC
100
AcDbEntity
  8
bc
 62
9
100
AcDbCircle
 10
348724.0703381349
 20
-29501.35659351167
 30
0.0
 40
25.43116197956488
100
AcDbArc
 50
270.8756362559425
 51
29.12436373806231
  0
ARC
  5
21A
330
1FC
100
AcDbEntity
  8
bc
 62
9
100
AcDbCircle
 10
348624.1510542399
 20
-29501.35659351167
 30
0.0
 40
58.55392881145924
100
AcDbArc
 50
339.3106637317901
 51
20.68933626820986
  0
LINE
  5
21B
330
1FC
100
AcDbEntity
  8
bc
 62
9
100
AcDbLine
 10
348733.1945679542
 20
-29531.82827930957
 30
0.0
 11
348693.1189692284
 21
-29508.69062159736
 31
0.0
  0
LINE
  5
21C
330
1FC
100
AcDbEntity
  8
bc
 62
9
100
AcDbLine
 10
348802.8419325904
 20
-29501.35659351167
 30
0.0
 11
348771.8218824028
 21
-29501.35659351167
 31
0.0
  0
LINE
  5
21D
330
1FC
100
AcDbEntity
  8
bc
 62
9
100
AcDbLine
 10
348771.8218824028
 20
-29529.56897469297
 30
0.0
 11
348787.4592901909
 21
-29523.48276224979
 31
0.0
  0
LINE
  5
21E
330
1FC
100
AcDbEntity
  8
bc
 62
9
100
AcDbLine
 10
348771.8218824028
 20
-29473.14421233129
 30
0.0
 11
348787.4592901909
 21
-29479.23042477448
 31
0.0
  0
LINE
  5
21F
330
1FC
100
AcDbEntity
  8
bc
 62
9
100
AcDbLine
 10
348771.8218824028
 20
-29501.35659351167
 30
0.0
 11
348771.8218824028
 21
-29459.98230132614
 31
0.0
  0
ARC
  5
220
330
1FC
100
AcDbEntity
  8
bc
 62
9
100
AcDbCircle
 10
348642.1803721304
 20
-29463.2908109209
 30
0.0
 40
40.65053579880847
100
AcDbArc
 50
334.6901616578239
 51
4.668414388598002
  0
LINE
  5
221
330
1FC
100
AcDbEntity
  8
bc
 62
9
100
AcDbLine
 10
348682.6960459492
 20
-29501.35659351167
 30
0.0
 11
348682.6960459492
 21
-29459.98230132614
 31
0.0
  0
ARC
  5
222
330
1FC
100
AcDbEntity
  8
bc
 62
9
100
AcDbCircle
 10
348724.0703381349
 20
-29501.35659351167
 30
0.0
 40
25.43116197956488
100
AcDbArc
 50
90.87563625594254
 51
209.1243637380623
  0
LINE
  5
223
330
1FC
100
AcDbEntity
  8
bc
 62
9
100
AcDbLine
 10
348755.0217070412
 20
-29494.02256542691
 30
0.0
 11
348714.9461083156
 21
-29470.88490771469
 31
0.0
  0
CIRCLE
  5
224
330
1FC
100
AcDbEntity
  8
bc
 62
9
100
AcDbCircle
 10
348724.0703381349
 20
-29501.35659351167
 30
0.0
 40
31.80841406198573
  0
LINE
  5
225
330
1FC
100
AcDbEntity
  8
bc
 62
9
100
AcDbLine
 10
348837.4141192832
 20
-29450.52637668386
 30
0.0
 11
348837.4141192832
 21
-29501.35659351167
 31
0.0
  0
LINE
  5
226
330
1FC
100
AcDbEntity
  8
bc
 62
9
100
AcDbLine
 10
348830.0086815914
 20
-29501.35659351167
 30
0.0
 11
348830.0086815914
 21
-29446.65195940309
 31
0.0
  0
ARC
  5
227
330
1FC
100
AcDbEntity
  8
bc
 62
9
100
AcDbCircle
 10
348725.9591109925
 20
-29501.35659351167
 30
0.0
 40
58.55392881145923
100
AcDbArc
 50
159.3106637317901
 51
200.6893362682098
  0
ARC
  5
228
330
1FC
100
AcDbEntity
  8
bc
 62
9
100
AcDbCircle
 10
348707.929793102
 20
-29463.2908109209
 30
0.0
 40
40.6505357987958
100
AcDbArc
 50
175.331585611402
 51
205.3098383421762
  0
LINE
  5
229
330
1FC
100
AcDbEntity
  8
bc
 62
9
100
AcDbLine
 10
348667.4141192832
 20
-29459.98230132614
 30
0.0
 11
348667.4141192832
 21
-29501.35659351167
 31
0.0
  0
LINE
  5
22A
330
1FC
100
AcDbEntity
  8
TIM
 48
50.0
100
AcDbLine
 10
348843.4899769042
 20
-29501.35659351167
 30
0.0
 11
348658.4434366678
 21
-29501.35659351167
 31
0.0
  0
LINE
  5
22B
330
1FC
100
AcDbEntity
  8
bc
 62
9
100
AcDbLine
 10
348682.6960459492
 20
-29459.98230132614
 30
0.0
 11
348667.4141192832
 21
-29459.98230132614
 31
0.0
  0
LINE
  5
22C
330
1FC
100
AcDbEntity
  8
bc
 62
9
100
AcDbLine
 10
348678.9288286178
 20
-29480.6694474189
 30
0.0
 11
348671.1813366148
 21
-29480.6694474189
 31
0.0
  0
LINE
  5
22D
330
1FC
100
AcDbEntity
  8
bc
 62
9
100
AcDbLine
 10
348678.9288286178
 20
-29522.04373960536
 30
0.0
 11
348671.1813366148
 21
-29522.04373960536
 31
0.0
  0
ARC
  5
22E
330
1FC
100
AcDbEntity
  8
bc
 62
9
100
AcDbCircle
 10
348831.9273357487
 20
-29550.71401460342
 30
0.0
 40
5.681014067532582
100
AcDbArc
 50
250.2613098441668
 51
344.9745102834577
  0
LINE
  5
22F
330
1FC
100
AcDbEntity
  8
bc
 62
9
100
AcDbLine
 10
348747.9110161059
 20
-29542.73088569813
 30
0.0
 11
348771.8218824028
 21
-29542.73088569813
 31
0.0
  0
LINE
  5
230
330
1FC
100
AcDbEntity
  8
bc
 62
9
100
AcDbLine
 10
348747.9110161059
 20
-29542.73088569813
 30
0.0
 11
348771.8218824028
 21
-29542.73088569813
 31
0.0
  0
LINE
  5
231
330
1FC
100
AcDbEntity
  8
bc
 62
9
100
AcDbLine
 10
348682.6960459492
 20
-29542.73088569813
 30
0.0
 11
348667.4141192832
 21
-29542.73088569813
 31
0.0
  0
LINE
  5
232
330
1FC
100
AcDbEntity
  8
bc
 62
9
100
AcDbLine
 10
348667.4141192832
 20
-29542.73088569813
 30
0.0
 11
348667.4141192832
 21
-29501.35659351167
 31
0.0
  0
ARC
  5
233
330
1FC
100
AcDbEntity
  8
bc
 62
9
100
AcDbCircle
 10
348707.929793102
 20
-29539.42237610244
 30
0.0
 40
40.6505357987958
100
AcDbArc
 50
154.6901616578238
 51
184.668414388598
  0
LINE
  5
234
330
1FC
100
AcDbEntity
  8
bc
 62
9
100
AcDbLine
 10
348771.8218824028
 20
-29501.35659351167
 30
0.0
 11
348771.8218824028
 21
-29542.73088569813
 31
0.0
  0
LINE
  5
235
330
1FC
100
AcDbEntity
  8
bc
 62
9
100
AcDbLine
 10
348682.6960459492
 20
-29501.35659351167
 30
0.0
 11
348682.6960459492
 21
-29542.73088569813
 31
0.0
  0
CIRCLE
  5
236
330
1FC
100
AcDbEntity
  8
bc
 62
9
100
AcDbCircle
 10
348724.0703381349
 20
-29501.35659351167
 30
0.0
 40
41.37429218561702
  0
ARC
  5
237
330
1FC
100
AcDbEntity
  8
bc
 62
9
100
AcDbCircle
 10
348642.1803721304
 20
-29539.42237610244
 30
0.0
 40
40.65053579880847
100
AcDbArc
 50
355.3315856114021
 51
25.30983834217617
  0
ARC
  5
238
330
1FC
100
AcDbEntity
  8
bc
 62
9
100
AcDbCircle
 10
348721.2484187682
 20
-29480.83169267387
 30
0.0
 40
67.39736043645014
100
AcDbArc
 50
235.1090680012563
 51
293.3035863118992
  0
LINE
  5
239
330
1FC
100
AcDbEntity
  8
bc
 62
9
100
AcDbLine
 10
348837.4141192832
 20
-29552.1868103404
 30
0.0
 11
348837.4141192832
 21
-29501.35659351167
 31
0.0
  0
LINE
  5
23A
330
1FC
100
AcDbEntity
  8
bc
 62
9
100
AcDbLine
 10
348830.0086815914
 20
-29501.35659351167
 30
0.0
 11
348830.0086815914
 21
-29556.06122762118
 31
0.0
  0
ENDBLK
  5
1FE
330
1FC
100
AcDbEntity
  8
0
100
AcDbBlockEnd
  0
BLOCK
  5
24D
330
24C
100
AcDbEntity
  8
0
100
AcDbBlockBegin
  2
_Open30
 70
0
 10
0.0
 20
0.0
 30
0.0
  3
_Open30
  1

  0
LINE
  5
24F
330
24C
100
AcDbEntity
  8
0
  6
ByBlock
 62
0
370
-2
100
AcDbLine
 10
-1.0
 20
0.26794919
 30
0.0
 11
0.0
 21
0.0
 31
0.0
  0
LINE
  5
250
330
24C
100
AcDbEntity
  8
0
  6
ByBlock
 62
0
370
-2
100
AcDbLine
 10
0.0
 20
0.0
 30
0.0
 11
-1.0
 21
-0.26794919
 31
0.0
  0
LINE
  5
251
330
24C
100
AcDbEntity
  8
0
  6
ByBlock
 62
0
370
-2
100
AcDbLine
 10
0.0
 20
0.0
 30
0.0
 11
-1.0
 21
0.0
 31
0.0
  0
ENDBLK
  5
24E
330
24C
100
AcDbEntity
  8
0
100
AcDbBlockEnd
  0
BLOCK
  5
264
330
263
100
AcDbEntity
  8
0
100
AcDbBlockBegin
  2
*D1
 70
1
 10
0.0
 20
0.0
 30
0.0
  3
*D1
  1

  0
LINE
  5
266
330
263
100
AcDbEntity
  8
DIM
 62
5
370
9
440
16777216
100
AcDbLine
 10
2906.8820877783
 20
2444.4307723195598
 30
0.0
 11
3016.924409871919
 21
2444.4307723195598
 31
0.0
  0
LINE
  5
267
330
263
100
AcDbEntity
  8
DIM
 62
5
370
9
440
16777216
100
AcDbLine
 10
2906.8820877783
 20
1094.4307723195598
 30
0.0
 11
3016.924409871919
 21
1094.4307723195598
 31
0.0
  0
LINE
  5
268
330
263
100
AcDbEntity
  8
DIM
 62
5
370
9
440
16777216
100
AcDbLine
 10
3001.924409871919
 20
2444.4307723195598
 30
0.0
 11
3001.924409871919
 21
1094.4307723195598
 31
0.0
  0
LINE
  5
269
330
263
100
AcDbEntity
  8
0
  6
ByBlock
 62
0
370
-2
100
AcDbLine
 10
3007.924409871919
 20
2438.4307723195598
 30
0.0
 11
2995.924409871919
 21
2450.4307723195598
 31
0.0
  0
LINE
  5
26A
330
263
100
AcDbEntity
  8
0
  6
ByBlock
 62
0
370
-2
100
AcDbLine
 10
2995.924409871919
 20
1100.4307723195598
 30
0.0
 11
3007.924409871919
 21
1088.4307723195598
 31
0.0
  0
MTEXT
  5
26B
330
263
100
AcDbEntity
  8
DIM
 62
3
440
16777216
100
AcDbMText
 10
2970.0642461611405
 20
1769.4307723195598
 30
0.0
 40
33.0
 41
0.0
 46
0.0
 71
5
  1
1350
 11
1e-16
 21
1.0
 31
0.0
  0
POINT
  5
26C
330
263
100
AcDbEntity
  8
Defpoints
 62
0
440
16777216
100
AcDbPoint
 10
2881.8820877783
 20
2444.4307723195598
 30
0.0
  0
POINT
  5
26D
330
263
100
AcDbEntity
  8
Defpoints
 62
0
440
16777216
100
AcDbPoint
 10
2881.8820877783
 20
1094.4307723195598
 30
0.0
  0
POINT
  5
26E
330
263
100
AcDbEntity
  8
Defpoints
 62
0
440
16777216
100
AcDbPoint
 10
3001.924409871919
 20
1094.4307723195598
 30
0.0
  0
ENDBLK
  5
265
330
263
100
AcDbEntity
  8
0
100
AcDbBlockEnd
  0
BLOCK
  5
270
330
26F
100
AcDbEntity
  8
0
100
AcDbBlockBegin
  2
*D2
 70
1
 10
0.0
 20
0.0
 30
0.0
  3
*D2
  1

  0
LINE
  5
272
330
26F
100
AcDbEntity
  8
DIM
 62
5
370
9
440
16777216
100
AcDbLine
 10
2881.8820877783
 20
1069.4307723195598
 30
0.0
 11
2881.8820877783
 21
968.4270043573415
 31
0.0
  0
LINE
  5
273
330
26F
100
AcDbEntity
  8
DIM
 62
5
370
9
440
16777216
100
AcDbLine
 10
2181.8820877783
 20
1069.4307723195598
 30
0.0
 11
2181.8820877783
 21
968.4270043573415
 31
0.0
  0
LINE
  5
274
330
26F
100
AcDbEntity
  8
DIM
 62
5
370
9
440
16777216
100
AcDbLine
 10
2881.8820877783
 20
983.4270043573415
 30
0.0
 11
2181.8820877783
 21
983.4270043573415
 31
0.0
  0
LINE
  5
275
330
26F
100
AcDbEntity
  8
0
  6
ByBlock
 62
0
370
-2
100
AcDbLine
 10
2875.8820877783
 20
977.4270043573415
 30
0.0
 11
2887.8820877783
 21
989.4270043573415
 31
0.0
  0
LINE
  5
276
330
26F
100
AcDbEntity
  8
0
  6
ByBlock
 62
0
370
-2
100
AcDbLine
 10
2187.8820877783
 20
989.4270043573415
 30
0.0
 11
2175.8820877783
 21
977.4270043573415
 31
0.0
  0
MTEXT
  5
277
330
26F
100
AcDbEntity
  8
DIM
 62
3
440
16777216
100
AcDbMText
 10
2531.8820877783
 20
1015.2759129521583
 30
0.0
 40
33.0
 41
0.0
 46
0.0
 71
5
  1
700
  0
POINT
  5
278
330
26F
100
AcDbEntity
  8
Defpoints
 62
0
440
16777216
100
AcDbPoint
 10
2881.8820877783
 20
1094.4307723195598
 30
0.0
  0
POINT
  5
279
330
26F
100
AcDbEntity
  8
Defpoints
 62
0
440
16777216
100
AcDbPoint
 10
2181.8820877783
 20
1094.4307723195598
 30
0.0
  0
POINT
  5
27A
330
26F
100
AcDbEntity
  8
Defpoints
 62
0
440
16777216
100
AcDbPoint
 10
2181.8820877783
 20
983.4270043573415
 30
0.0
  0
ENDBLK
  5
271
330
26F
100
AcDbEntity
  8
0
100
AcDbBlockEnd
  0
BLOCK
  5
27C
330
27B
100
AcDbEntity
  8
0
100
AcDbBlockBegin
  2
*D3
 70
1
 10
0.0
 20
0.0
 30
0.0
  3
*D3
  1

  0
LINE
  5
27E
330
27B
100
AcDbEntity
  8
DIM
 62
5
370
9
440
16777216
100
AcDbLine
 10
1838.4140144251305
 20
2444.4307723195598
 30
0.0
 11
1948.4563365187496
 21
2444.4307723195598
 31
0.0
  0
LINE
  5
27F
330
27B
100
AcDbEntity
  8
DIM
 62
5
370
9
440
16777216
100
AcDbLine
 10
1838.4140144251305
 20
1094.4307723195598
 30
0.0
 11
1948.4563365187496
 21
1094.4307723195598
 31
0.0
  0
LINE
  5
280
330
27B
100
AcDbEntity
  8
DIM
 62
5
370
9
440
16777216
100
AcDbLine
 10
1933.4563365187496
 20
2444.4307723195598
 30
0.0
 11
1933.4563365187496
 21
1094.4307723195598
 31
0.0
  0
LINE
  5
281
330
27B
100
AcDbEntity
  8
0
  6
ByBlock
 62
0
370
-2
100
AcDbLine
 10
1939.4563365187496
 20
2438.4307723195598
 30
0.0
 11
1927.4563365187496
 21
2450.4307723195598
 31
0.0
  0
LINE
  5
282
330
27B
100
AcDbEntity
  8
0
  6
ByBlock
 62
0
370
-2
100
AcDbLine
 10
1927.4563365187496
 20
1100.4307723195598
 30
0.0
 11
1939.4563365187496
 21
1088.4307723195598
 31
0.0
  0
MTEXT
  5
283
330
27B
100
AcDbEntity
  8
DIM
 62
3
440
16777216
100
AcDbMText
 10
1901.5961728079692
 20
1769.4307723195598
 30
0.0
 40
33.0
 41
0.0
 46
0.0
 71
5
  1
1350
 11
1e-16
 21
1.0
 31
0.0
  0
POINT
  5
284
330
27B
100
AcDbEntity
  8
Defpoints
 62
0
440
16777216
100
AcDbPoint
 10
1813.4140144251305
 20
2444.4307723195598
 30
0.0
  0
POINT
  5
285
330
27B
100
AcDbEntity
  8
Defpoints
 62
0
440
16777216
100
AcDbPoint
 10
1813.4140144251305
 20
1094.4307723195598
 30
0.0
  0
POINT
  5
286
330
27B
100
AcDbEntity
  8
Defpoints
 62
0
440
16777216
100
AcDbPoint
 10
1933.4563365187496
 20
1094.4307723195598
 30
0.0
  0
ENDBLK
  5
27D
330
27B
100
AcDbEntity
  8
0
100
AcDbBlockEnd
  0
BLOCK
  5
288
330
287
100
AcDbEntity
  8
0
100
AcDbBlockBegin
  2
*D4
 70
1
 10
0.0
 20
0.0
 30
0.0
  3
*D4
  1

  0
LINE
  5
28A
330
287
100
AcDbEntity
  8
DIM
 62
5
370
9
440
16777216
100
AcDbLine
 10
1813.4140144251305
 20
1069.4307723195598
 30
0.0
 11
1813.4140144251305
 21
968.4270043573415
 31
0.0
  0
LINE
  5
28B
330
287
100
AcDbEntity
  8
DIM
 62
5
370
9
440
16777216
100
AcDbLine
 10
1113.4140144251305
 20
1069.4307723195598
 30
0.0
 11
1113.4140144251305
 21
968.4270043573415
 31
0.0
  0
LINE
  5
28C
330
287
100
AcDbEntity
  8
DIM
 62
5
370
9
440
16777216
100
AcDbLine
 10
1813.4140144251305
 20
983.4270043573415
 30
0.0
 11
1113.4140144251305
 21
983.4270043573415
 31
0.0
  0
LINE
  5
28D
330
287
100
AcDbEntity
  8
0
  6
ByBlock
 62
0
370
-2
100
AcDbLine
 10
1807.4140144251305
 20
977.4270043573415
 30
0.0
 11
1819.4140144251305
 21
989.4270043573415
 31
0.0
  0
LINE
  5
28E
330
287
100
AcDbEntity
  8
0
  6
ByBlock
 62
0
370
-2
100
AcDbLine
 10
1119.4140144251305
 20
989.4270043573415
 30
0.0
 11
1107.4140144251305
 21
977.4270043573415
 31
0.0
  0
MTEXT
  5
28F
330
287
100
AcDbEntity
  8
DIM
 62
3
440
16777216
100
AcDbMText
 10
1463.4140144251305
 20
1015.2759129521583
 30
0.0
 40
33.0
 41
0.0
 46
0.0
 71
5
  1
700
  0
POINT
  5
290
330
287
100
AcDbEntity
  8
Defpoints
 62
0
440
16777216
100
AcDbPoint
 10
1813.4140144251305
 20
1094.4307723195598
 30
0.0
  0
POINT
  5
291
330
287
100
AcDbEntity
  8
Defpoints
 62
0
440
16777216
100
AcDbPoint
 10
1113.4140144251305
 20
1094.4307723195598
 30
0.0
  0
POINT
  5
292
330
287
100
AcDbEntity
  8
Defpoints
 62
0
440
16777216
100
AcDbPoint
 10
1113.4140144251305
 20
983.4270043573415
 30
0.0
  0
ENDBLK
  5
289
330
287
100
AcDbEntity
  8
0
100
AcDbBlockEnd
  0
BLOCK
  5
294
330
293
100
AcDbEntity
  8
0
100
AcDbBlockBegin
  2
*D5
 70
1
 10
0.0
 20
0.0
 30
0.0
  3
*D5
  1

  0
LINE
  5
296
330
293
100
AcDbEntity
  8
DIM
 62
5
370
9
440
16777216
100
AcDbLine
 10
2906.8820877783
 20
853.1107674770283
 30
0.0
 11
3016.924409871919
 21
853.1107674770283
 31
0.0
  0
LINE
  5
297
330
293
100
AcDbEntity
  8
DIM
 62
5
370
9
440
16777216
100
AcDbLine
 10
2904.8820877783
 20
602.1107674770283
 30
0.0
 11
3016.924409871919
 21
602.1107674770283
 31
0.0
  0
LINE
  5
298
330
293
100
AcDbEntity
  8
DIM
 62
5
370
9
440
16777216
100
AcDbLine
 10
3001.924409871919
 20
853.1107674770283
 30
0.0
 11
3001.924409871919
 21
602.1107674770283
 31
0.0
  0
LINE
  5
299
330
293
100
AcDbEntity
  8
0
  6
ByBlock
 62
0
370
-2
100
AcDbLine
 10
3007.924409871919
 20
847.1107674770283
 30
0.0
 11
2995.924409871919
 21
859.1107674770283
 31
0.0
  0
LINE
  5
29A
330
293
100
AcDbEntity
  8
0
  6
ByBlock
 62
0
370
-2
100
AcDbLine
 10
2995.924409871919
 20
608.1107674770283
 30
0.0
 11
3007.924409871919
 21
596.1107674770283
 31
0.0
  0
MTEXT
  5
29B
330
293
100
AcDbEntity
  8
DIM
 62
3
440
16777216
100
AcDbMText
 10
2970.0755012771006
 20
727.610767477021
 30
0.0
 40
33.0
 41
0.0
 46
0.0
 71
5
  1
251
 11
1e-16
 21
1.0
 31
0.0
  0
POINT
  5
29C
330
293
100
AcDbEntity
  8
Defpoints
 62
0
440
16777216
100
AcDbPoint
 10
2881.8820877783
 20
853.1107674770283
 30
0.0
  0
POINT
  5
29D
330
293
100
AcDbEntity
  8
Defpoints
 62
0
440
16777216
100
AcDbPoint
 10
2879.8820877783
 20
602.1107674770283
 30
0.0
  0
POINT
  5
29E
330
293
100
AcDbEntity
  8
Defpoints
 62
0
440
16777216
100
AcDbPoint
 10
3001.924409871919
 20
602.1107674770283
 30
0.0
  0
ENDBLK
  5
295
330
293
100
AcDbEntity
  8
0
100
AcDbBlockEnd
  0
BLOCK
  5
2A0
330
29F
100
AcDbEntity
  8
0
100
AcDbBlockBegin
  2
*D6
 70
1
 10
0.0
 20
0.0
 30
0.0
  3
*D6
  1

  0
LINE
  5
2A2
330
29F
100
AcDbEntity
  8
DIM
 62
5
370
9
440
16777216
100
AcDbLine
 10
1838.4140144251305
 20
853.1107674770283
 30
0.0
 11
1948.4563365187496
 21
853.1107674770283
 31
0.0
  0
LINE
  5
2A3
330
29F
100
AcDbEntity
  8
DIM
 62
5
370
9
440
16777216
100
AcDbLine
 10
1836.4140144251305
 20
602.1107674770283
 30
0.0
 11
1948.4563365187496
 21
602.1107674770283
 31
0.0
  0
LINE
  5
2A4
330
29F
100
AcDbEntity
  8
DIM
 62
5
370
9
440
16777216
100
AcDbLine
 10
1933.4563365187496
 20
853.1107674770283
 30
0.0
 11
1933.4563365187496
 21
602.1107674770283
 31
0.0
  0
LINE
  5
2A5
330
29F
100
AcDbEntity
  8
0
  6
ByBlock
 62
0
370
-2
100
AcDbLine
 10
1939.4563365187496
 20
847.1107674770283
 30
0.0
 11
1927.4563365187496
 21
859.1107674770283
 31
0.0
  0
LINE
  5
2A6
330
29F
100
AcDbEntity
  8
0
  6
ByBlock
 62
0
370
-2
100
AcDbLine
 10
1927.4563365187496
 20
608.1107674770283
 30
0.0
 11
1939.4563365187496
 21
596.1107674770283
 31
0.0
  0
MTEXT
  5
2A7
330
29F
100
AcDbEntity
  8
DIM
 62
3
440
16777216
100
AcDbMText
 10
1901.6074279239292
 20
727.610767477021
 30
0.0
 40
33.0
 41
0.0
 46
0.0
 71
5
  1
251
 11
1e-16
 21
1.0
 31
0.0
  0
POINT
  5
2A8
330
29F
100
AcDbEntity
  8
Defpoints
 62
0
440
16777216
100
AcDbPoint
 10
1813.4140144251305
 20
853.1107674770283
 30
0.0
  0
POINT
  5
2A9
330
29F
100
AcDbEntity
  8
Defpoints
 62
0
440
16777216
100
AcDbPoint
 10
1811.4140144251305
 20
602.1107674770283
 30
0.0
  0
POINT
  5
2AA
330
29F
100
AcDbEntity
  8
Defpoints
 62
0
440
16777216
100
AcDbPoint
 10
1933.4563365187496
 20
602.1107674770283
 30
0.0
  0
ENDBLK
  5
2A1
330
29F
100
AcDbEntity
  8
0
100
AcDbBlockEnd
  0
BLOCK
  5
2AC
330
2AB
100
AcDbEntity
  8
0
100
AcDbBlockBegin
  2
*D7
 70
1
 10
0.0
 20
0.0
 30
0.0
  3
*D7
  1

  0
LINE
  5
2AE
330
2AB
100
AcDbEntity
  8
DIM
 62
5
370
9
440
16777216
100
AcDbLine
 10
3264.202580178149
 20
1069.4307723195598
 30
0.0
 11
3264.202580178149
 21
968.4270043573415
 31
0.0
  0
LINE
  5
2AF
330
2AB
100
AcDbEntity
  8
DIM
 62
5
370
9
440
16777216
100
AcDbLine
 10
3515.20258017816
 20
1069.4307723195598
 30
0.0
 11
3515.20258017816
 21
968.4270043573415
 31
0.0
  0
LINE
  5
2B0
330
2AB
100
AcDbEntity
  8
DIM
 62
5
370
9
440
16777216
100
AcDbLine
 10
3264.202580178149
 20
983.4270043573415
 30
0.0
 11
3515.20258017816
 21
983.4270043573415
 31
0.0
  0
LINE
  5
2B1
330
2AB
100
AcDbEntity
  8
0
  6
ByBlock
 62
0
370
-2
100
AcDbLine
 10
3270.202580178149
 20
989.4270043573415
 30
0.0
 11
3258.202580178149
 21
977.4270043573415
 31
0.0
  0
LINE
  5
2B2
330
2AB
100
AcDbEntity
  8
0
  6
ByBlock
 62
0
370
-2
100
AcDbLine
 10
3509.20258017816
 20
977.4270043573415
 30
0.0
 11
3521.20258017816
 21
989.4270043573415
 31
0.0
  0
MTEXT
  5
2B3
330
2AB
100
AcDbEntity
  8
DIM
 62
3
440
16777216
100
AcDbMText
 10
3389.70258017816
 20
1015.2759129521583
 30
0.0
 40
33.0
 41
0.0
 46
0.0
 71
5
  1
251
  0
POINT
  5
2B4
330
2AB
100
AcDbEntity
  8
Defpoints
 62
0
440
16777216
100
AcDbPoint
 10
3264.202580178149
 20
1094.4307723195598
 30
0.0
  0
POINT
  5
2B5
330
2AB
100
AcDbEntity
  8
Defpoints
 62
0
440
16777216
100
AcDbPoint
 10
3515.20258017816
 20
1094.4307723195598
 30
0.0
  0
POINT
  5
2B6
330
2AB
100
AcDbEntity
  8
Defpoints
 62
0
440
16777216
100
AcDbPoint
 10
3515.20258017816
 20
983.4270043573415
 30
0.0
  0
ENDBLK
  5
2AD
330
2AB
100
AcDbEntity
  8
0
100
AcDbBlockEnd
  0
BLOCK
  5
2B8
330
2B7
100
AcDbEntity
  8
0
100
AcDbBlockBegin
  2
*D8
 70
1
 10
0.0
 20
0.0
 30
0.0
  3
*D8
  1

  0
LINE
  5
2BA
330
2B7
100
AcDbEntity
  8
DIM
 62
5
370
9
440
16777216
100
AcDbLine
 10
281.7804931774699
 20
1282.9307723195598
 30
0.0
 11
281.7804931774699
 21
1176.8261415708803
 31
0.0
  0
LINE
  5
2BB
330
2B7
100
AcDbEntity
  8
DIM
 62
5
370
9
440
16777216
100
AcDbLine
 10
721.7804931774699
 20
1282.9307723195598
 30
0.0
 11
721.7804931774699
 21
1176.8261415708803
 31
0.0
  0
LINE
  5
2BC
330
2B7
100
AcDbEntity
  8
DIM
 62
5
370
9
440
16777216
100
AcDbLine
 10
281.7804931774699
 20
1191.8261415708803
 30
0.0
 11
721.7804931774699
 21
1191.8261415708803
 31
0.0
  0
LINE
  5
2BD
330
2B7
100
AcDbEntity
  8
0
  6
ByBlock
 62
0
370
-2
100
AcDbLine
 10
287.7804931774699
 20
1197.8261415708803
 30
0.0
 11
275.7804931774699
 21
1185.8261415708803
 31
0.0
  0
LINE
  5
2BE
330
2B7
100
AcDbEntity
  8
0
  6
ByBlock
 62
0
370
-2
100
AcDbLine
 10
715.7804931774699
 20
1185.8261415708803
 30
0.0
 11
727.7804931774699
 21
1197.8261415708803
 31
0.0
  0
MTEXT
  5
2BF
330
2B7
100
AcDbEntity
  8
DIM
 62
3
440
16777216
100
AcDbMText
 10
501.7804931774699
 20
1223.6750501657007
 30
0.0
 40
33.0
 41
0.0
 46
0.0
 71
5
  1
440
  0
POINT
  5
2C0
330
2B7
100
AcDbEntity
  8
Defpoints
 62
0
440
16777216
100
AcDbPoint
 10
281.7804931774699
 20
1307.9307723195598
 30
0.0
  0
POINT
  5
2C1
330
2B7
100
AcDbEntity
  8
Defpoints
 62
0
440
16777216
100
AcDbPoint
 10
721.7804931774699
 20
1307.9307723195598
 30
0.0
  0
POINT
  5
2C2
330
2B7
100
AcDbEntity
  8
Defpoints
 62
0
440
16777216
100
AcDbPoint
 10
721.7804931774699
 20
1191.8261415708803
 30
0.0
  0
ENDBLK
  5
2B9
330
2B7
100
AcDbEntity
  8
0
100
AcDbBlockEnd
  0
BLOCK
  5
2C4
330
2C3
100
AcDbEntity
  8
0
100
AcDbBlockBegin
  2
*D9
 70
1
 10
0.0
 20
0.0
 30
0.0
  3
*D9
  1

  0
LINE
  5
2C6
330
2C3
100
AcDbEntity
  8
DIM
 62
5
370
9
440
16777216
100
AcDbLine
 10
746.7804931774699
 20
2317.9307723195598
 30
0.0
 11
843.2274776352606
 21
2317.9307723195598
 31
0.0
  0
LINE
  5
2C7
330
2C3
100
AcDbEntity
  8
DIM
 62
5
370
9
440
16777216
100
AcDbLine
 10
746.7804931774699
 20
1307.9307723195598
 30
0.0
 11
843.2274776352606
 21
1307.9307723195598
 31
0.0
  0
LINE
  5
2C8
330
2C3
100
AcDbEntity
  8
DIM
 62
5
370
9
440
16777216
100
AcDbLine
 10
828.2274776352606
 20
2317.9307723195598
 30
0.0
 11
828.2274776352606
 21
1307.9307723195598
 31
0.0
  0
LINE
  5
2C9
330
2C3
100
AcDbEntity
  8
0
  6
ByBlock
 62
0
370
-2
100
AcDbLine
 10
834.2274776352606
 20
2311.9307723195598
 30
0.0
 11
822.2274776352606
 21
2323.9307723195598
 31
0.0
  0
LINE
  5
2CA
330
2C3
100
AcDbEntity
  8
0
  6
ByBlock
 62
0
370
-2
100
AcDbLine
 10
822.2274776352606
 20
1313.9307723195598
 30
0.0
 11
834.2274776352606
 21
1301.9307723195598
 31
0.0
  0
MTEXT
  5
2CB
330
2C3
100
AcDbEntity
  8
DIM
 62
3
440
16777216
100
AcDbMText
 10
796.3785690404402
 20
1812.9307723195598
 30
0.0
 40
33.0
 41
0.0
 46
0.0
 71
5
  1
1010
 11
1e-16
 21
1.0
 31
0.0
  0
POINT
  5
2CC
330
2C3
100
AcDbEntity
  8
Defpoints
 62
0
440
16777216
100
AcDbPoint
 10
721.7804931774699
 20
2317.9307723195598
 30
0.0
  0
POINT
  5
2CD
330
2C3
100
AcDbEntity
  8
Defpoints
 62
0
440
16777216
100
AcDbPoint
 10
721.7804931774699
 20
1307.9307723195598
 30
0.0
  0
POINT
  5
2CE
330
2C3
100
AcDbEntity
  8
Defpoints
 62
0
440
16777216
100
AcDbPoint
 10
828.2274776352606
 20
1307.9307723195598
 30
0.0
  0
ENDBLK
  5
2C5
330
2C3
100
AcDbEntity
  8
0
100
AcDbBlockEnd
  0
ENDSEC
  0
SECTION
  2
ENTITIES
  0
INSERT
  5
2F
330
17
100
AcDbEntity
  8
0
 62
7
100
AcDbBlockReference
 66
1
  2
khungtenAsean2
 10
0.0
 20
2729.9999996092592
 30
0.0
 41
1.299999999813735
 42
1.299999999813735
 43
1.299999999813735
  0
ATTRIB
  5
30
330
2F
100
AcDbEntity
  8
0
 62
1
100
AcDbText
 10
3748.89347682914
 20
42.447859473009885
 30
0.0
 40
32.5
  1
......
  7
Tahoma (Input Text)
 72
1
 11
3789.4911934174597
 21
42.447859473009885
 31
0.0
100
AcDbAttribute
  2
#11
 70
0
 71
1
 72
0
 11
3789.4911934174597
 21
42.447859473009885
 31
0.0
  0
ATTRIB
  5
31
330
2F
100
AcDbEntity
  8
0
 62
1
100
AcDbText
 10
2790.7320707337894
 20
102.34222440969825
 30
0.0
 40
32.5
  1
Sơn màu đỏ
  7
Tahoma (Input Text)
100
AcDbAttribute
  2
#09
 70
0
 71
1
 72
0
  0
ATTRIB
  5
32
330
2F
100
AcDbEntity
  8
0
 62
1
100
AcDbText
 10
2790.7320707337894
 20
24.342224409698247
 30
0.0
 40
32.5
  1
......
  7
Tahoma (Input Text)
100
AcDbAttribute
  2
#10
 70
0
 71
1
 72
0
  0
ATTRIB
  5
33
330
2F
100
AcDbEntity
  8
0
 62
1
100
AcDbText
 10
2362.6820954531395
 20
24.342224409698247
 30
0.0
 40
32.5
  1
1.5
  7
Tahoma (Input Text)
100
AcDbAttribute
  2
#08
 70
0
 71
1
 72
0
  0
ATTRIB
  5
34
330
2F
100
AcDbEntity
  8
0
 62
1
100
AcDbText
 10
2385.08596342336
 20
102.34222440969825
 30
0.0
 40
32.5
  1
0
  7
Tahoma (Input Text)
100
AcDbAttribute
  2
#07
 70
0
 71
1
 72
0
  0
ATTRIB
  5
35
330
2F
100
AcDbEntity
  8
0
 62
1
100
AcDbText
 10
1384.9301558872703
 20
24.342224409698247
 30
0.0
 40
32.5
  1

  7
Tahoma (Input Text)
100
AcDbAttribute
  2
#06
 70
0
 71
1
 72
0
  0
ATTRIB
  5
36
330
2F
100
AcDbEntity
  8
0
 62
1
100
AcDbText
 10
1438.61663025897
 20
102.34222440969825
 30
0.0
 40
32.5
  1
Vỏ tủ cứu hỏa
  7
Tahoma (Input Text)
100
AcDbAttribute
  2
#05
 70
0
 71
1
 72
0
  0
ATTRIB
  5
37
330
2F
100
AcDbEntity
  8
0
 62
1
100
AcDbText
 10
631.93653510697
 20
24.342224409698247
 30
0.0
 40
32.5
  1
......
  7
Tahoma (Input Text)
100
AcDbAttribute
  2
#04
 70
0
 71
1
 72
0
  0
ATTRIB
  5
38
330
2F
100
AcDbEntity
  8
0
 62
1
100
AcDbText
 10
658.5419736308995
 20
104.907918972669
 30
0.0
 40
32.5
  1

  7
Tahoma (Input Text)
100
AcDbAttribute
  2
#03
 70
0
 71
1
 72
0
  0
ATTRIB
  5
39
330
2F
100
AcDbEntity
  8
0
 62
1
100
AcDbText
 10
127.99374185409033
 20
24.342224409698247
 30
0.0
 40
32.5
  1
......
  7
Tahoma (Input Text)
100
AcDbAttribute
  2
#02
 70
0
 71
1
 72
0
  0
ATTRIB
  5
3A
330
2F
100
AcDbEntity
  8
0
 62
1
100
AcDbText
 10
178.1695601893607
 20
102.34222440969825
 30
0.0
 40
32.5
  1

  7
Tahoma (Input Text)
100
AcDbAttribute
  2
#01
 70
0
 71
1
 72
0
  0
SEQEND
  5
3B
330
17
100
AcDbEntity
  8
0
 62
7
  0
LWPOLYLINE
  5
3C
330
17
100
AcDbEntity
  8
0
100
AcDbPolyline
 90
4
 70
1
 10
2181.8820877783
 20
2444.4307723195598
 10
2881.8820877783
 20
2444.4307723195598
 10
2881.8820877783
 20
1094.4307723195598
 10
2181.8820877783
 20
1094.4307723195598
  0
LWPOLYLINE
  5
3D
330
17
100
AcDbEntity
  8
0
100
AcDbPolyline
 90
4
 70
1
 10
2209.8820877783
 20
2416.4307723195598
 10
2853.8820877783
 20
2416.4307723195598
 10
2853.8820877783
 20
1122.4307723195598
 10
2209.8820877783
 20
1122.4307723195598
  0
LWPOLYLINE
  5
3E
330
17
100
AcDbEntity
  8
0
  6
HIDDENX2
100
AcDbPolyline
 90
4
 70
1
 10
2183.3820877783
 20
2442.9307723195598
 10
2880.3820877783
 20
2442.9307723195598
 10
2880.3820877783
 20
1095.9307723195598
 10
2183.3820877783
 20
1095.9307723195598
  0
INSERT
  5
3F
330
17
100
AcDbEntity
  8
0
 62
7
100
AcDbBlockReference
  2
HL044-1
 10
2856.8820877783
 20
2274.9307723195598
 30
0.0
  0
INSERT
  5
41
330
17
100
AcDbEntity
  8
0
 62
7
100
AcDbBlockReference
  2
HL044-1
 10
2856.8820877783
 20
1263.9307723195598
 30
0.0
 41
-1.0
 50
180.0
  0
DIMENSION
  5
43
330
17
100
AcDbEntity
  8
DIM
100
AcDbDimension
280
0
  2
*D1
  3
Dim-33
 10
3001.924409871919
 20
1094.4307723195598
 30
0.0
 11
2970.0642461611405
 21
1769.4307723195598
 31
0.0
 70
32
 71
5
 42
1350.0
 73
0
 74
0
 75
0
100
AcDbAlignedDimension
 13
2881.8820877783
 23
2444.4307723195598
 33
0.0
 14
2881.8820877783
 24
1094.4307723195598
 34
0.0
 50
90.0
100
AcDbRotatedDimension
  0
DIMENSION
  5
48
330
17
100
AcDbEntity
  8
DIM
100
AcDbDimension
280
0
  2
*D2
  3
Dim-33
 10
2181.8820877783
 20
983.4270043573415
 30
0.0
 11
2531.8820877783
 21
1015.2759129521583
 31
0.0
 70
32
 71
5
 42
700.0
 73
0
 74
0
 75
0
100
AcDbAlignedDimension
 13
2881.8820877783
 23
1094.4307723195598
 33
0.0
 14
2181.8820877783
 24
1094.4307723195598
 34
0.0
 50
0.0
100
AcDbRotatedDimension
  0
LWPOLYLINE
  5
49
330
17
100
AcDbEntity
  8
0
100
AcDbPolyline
 90
4
 70
1
 10
1113.4140144251305
 20
2444.4307723195598
 10
1813.4140144251305
 20
2444.4307723195598
 10
1813.4140144251305
 20
1094.4307723195598
 10
1113.4140144251305
 20
1094.4307723195598
  0
LWPOLYLINE
  5
4A
330
17
100
AcDbEntity
  8
0
  6
HIDDENX2
100
AcDbPolyline
 90
4
 70
1
 10
1114.9140144251305
 20
2442.9307723195598
 10
1811.9140144251305
 20
2442.9307723195598
 10
1811.9140144251305
 20
1095.9307723195598
 10
1114.9140144251305
 20
1095.9307723195598
  0
INSERT
  5
4B
330
17
100
AcDbEntity
  8
0
 62
7
100
AcDbBlockReference
  2
HL044-1
 10
1788.4140144251305
 20
2274.9307723195598
 30
0.0
  0
INSERT
  5
4D
330
17
100
AcDbEntity
  8
0
 62
7
100
AcDbBlockReference
  2
HL044-1
 10
1788.4140144251305
 20
1263.9307723195598
 30
0.0
 41
-1.0
 50
180.0
  0
DIMENSION
  5
4F
330
17
100
AcDbEntity
  8
DIM
100
AcDbDimension
280
0
  2
*D3
  3
Dim-33
 10
1933.4563365187496
 20
1094.4307723195598
 30
0.0
 11
1901.5961728079692
 21
1769.4307723195598
 31
0.0
 70
32
 71
5
 42
1350.0
 73
0
 74
0
 75
0
100
AcDbAlignedDimension
 13
1813.4140144251305
 23
2444.4307723195598
 33
0.0
 14
1813.4140144251305
 24
1094.4307723195598
 34
0.0
 50
90.0
100
AcDbRotatedDimension
  0
DIMENSION
  5
50
330
17
100
AcDbEntity
  8
DIM
100
AcDbDimension
280
0
  2
*D4
  3
Dim-33
 10
1113.4140144251305
 20
983.4270043573415
 30
0.0
 11
1463.4140144251305
 21
1015.2759129521583
 31
0.0
 70
32
 71
5
 42
700.0
 73
0
 74
0
 75
0
100
AcDbAlignedDimension
 13
1813.4140144251305
 23
1094.4307723195598
 33
0.0
 14
1113.4140144251305
 24
1094.4307723195598
 34
0.0
 50
0.0
100
AcDbRotatedDimension
  0
INSERT
  5
51
330
17
100
AcDbEntity
  8
0
 62
7
100
AcDbBlockReference
  2
AB301-2-1
 10
1185.4140144251305
 20
1804.6807723195598
 30
0.0
  0
LINE
  5
53
330
17
100
AcDbEntity
  8
bc
  6
Continuous
370
18
100
AcDbLine
 10
2855.4823373518902
 20
2035.6832766154002
 30
0.0
 11
2855.4823373518902
 21
1996.3807861845198
 31
0.0
  0
LINE
  5
54
330
17
100
AcDbEntity
  8
bc
  6
Continuous
370
18
100
AcDbLine
 10
2852.3820877783
 20
1996.3807861845198
 30
0.0
 11
2852.3820877783
 21
2035.6832766154002
 31
0.0
  0
LINE
  5
55
330
17
100
AcDbEntity
  8
bc
  6
Continuous
370
18
100
AcDbLine
 10
2852.3820877783
 20
2023.1957790249216
 30
0.0
 11
2855.4823373518902
 21
2023.1957790249216
 31
0.0
  0
LINE
  5
56
330
17
100
AcDbEntity
  8
bc
  6
Continuous
370
18
100
AcDbLine
 10
2852.3820877783
 20
2010.4702375413108
 30
0.0
 11
2855.4823373518902
 21
2010.4702375413108
 31
0.0
  0
LINE
  5
57
330
17
100
AcDbEntity
  8
bc
  6
Continuous
370
18
100
AcDbLine
 10
2855.4823373518902
 20
1996.3807861845198
 30
0.0
 11
2852.3820877783
 21
1996.3807861845198
 31
0.0
  0
LINE
  5
58
330
17
100
AcDbEntity
  8
bc
  6
Continuous
370
18
100
AcDbLine
 10
2852.3820877783
 20
2035.6832766154002
 30
0.0
 11
2855.4823373518902
 21
2035.6832766154002
 31
0.0
  0
LINE
  5
59
330
17
100
AcDbEntity
  8
FIRE PROTECTION
  6
Continuous
100
AcDbLine
 10
2552.3820877783
 20
1754.5263109061088
 30
0.0
 11
2852.3820877783
 21
1754.5263109061088
 31
0.0
  0
LINE
  5
5A
330
17
100
AcDbEntity
  8
FIRE PROTECTION
  6
Continuous
100
AcDbLine
 10
2852.3820877783
 20
1754.5263109061088
 30
0.0
 11
2852.3820877783
 21
2054.526310906109
 31
0.0
  0
LINE
  5
5B
330
17
100
AcDbEntity
  8
FIRE PROTECTION
  6
Continuous
100
AcDbLine
 10
2852.3820877783
 20
2054.526310906109
 30
0.0
 11
2837.3820877783
 21
2054.526310906109
 31
0.0
  0
LINE
  5
5C
330
17
100
AcDbEntity
  8
FIRE PROTECTION
  6
Continuous
100
AcDbLine
 10
2837.3820877783
 20
1769.5263109061088
 30
0.0
 11
2837.3820877783
 21
2012.0999040345887
 31
0.0
  0
LINE
  5
5D
330
17
100
AcDbEntity
  8
FIRE PROTECTION
  6
Continuous
100
AcDbLine
 10
2594.8084946488907
 20
1769.5263109061088
 30
0.0
 11
2837.3820877783
 21
1769.5263109061088
 31
0.0
  0
LINE
  5
5E
330
17
100
AcDbEntity
  8
FIRE PROTECTION
  6
Continuous
100
AcDbLine
 10
2552.3820877783
 20
1754.5263109061088
 30
0.0
 11
2552.3820877783
 21
1769.5263109061088
 31
0.0
  0
LINE
  5
5F
330
17
100
AcDbEntity
  8
FIRE PROTECTION
  6
Continuous
100
AcDbLine
 10
2552.3820877783
 20
1769.5263109061088
 30
0.0
 11
2837.3820877783
 21
2054.526310906109
 31
0.0
  0
LINE
  5
60
330
17
100
AcDbEntity
  8
FIRE PROTECTION
  6
Continuous
100
AcDbLine
 10
2594.8084946488907
 20
1769.5263109061088
 30
0.0
 11
2837.3820877783
 21
2012.0999040345887
 31
0.0
  0
LINE
  5
61
330
17
100
AcDbEntity
  8
bc
  6
Continuous
370
18
100
AcDbLine
 10
2855.4823373518902
 20
1773.2637584696713
 30
0.0
 11
2855.4823373518902
 21
1812.566248900559
 31
0.0
  0
LINE
  5
62
330
17
100
AcDbEntity
  8
bc
  6
Continuous
370
18
100
AcDbLine
 10
2852.3820877783
 20
1812.566248900559
 30
0.0
 11
2852.3820877783
 21
1773.2637584696713
 31
0.0
  0
LINE
  5
63
330
17
100
AcDbEntity
  8
bc
  6
Continuous
370
18
100
AcDbLine
 10
2852.3820877783
 20
1785.75125606015
 30
0.0
 11
2855.4823373518902
 21
1785.75125606015
 31
0.0
  0
LINE
  5
64
330
17
100
AcDbEntity
  8
bc
  6
Continuous
370
18
100
AcDbLine
 10
2852.3820877783
 20
1798.4767975437608
 30
0.0
 11
2855.4823373518902
 21
1798.4767975437608
 31
0.0
  0
LINE
  5
65
330
17
100
AcDbEntity
  8
bc
  6
Continuous
370
18
100
AcDbLine
 10
2855.4823373518902
 20
1812.566248900559
 30
0.0
 11
2852.3820877783
 21
1812.566248900559
 31
0.0
  0
LINE
  5
66
330
17
100
AcDbEntity
  8
bc
  6
Continuous
370
18
100
AcDbLine
 10
2852.3820877783
 20
1773.2637584696713
 30
0.0
 11
2855.4823373518902
 21
1773.2637584696713
 31
0.0
  0
LINE
  5
67
330
17
100
AcDbEntity
  8
bc
  6
Continuous
370
18
100
AcDbLine
 10
2208.2818382037804
 20
2035.6832766154002
 30
0.0
 11
2208.2818382037804
 21
1996.3807861845198
 31
0.0
  0
LINE
  5
68
330
17
100
AcDbEntity
  8
bc
  6
Continuous
370
18
100
AcDbLine
 10
2211.3820877783
 20
1996.3807861845198
 30
0.0
 11
2211.3820877783
 21
2035.6832766154002
 31
0.0
  0
LINE
  5
69
330
17
100
AcDbEntity
  8
bc
  6
Continuous
370
18
100
AcDbLine
 10
2211.3820877773705
 20
2023.1957790249216
 30
0.0
 11
2208.2818382037804
 21
2023.1957790249216
 31
0.0
  0
LINE
  5
6A
330
17
100
AcDbEntity
  8
bc
  6
Continuous
370
18
100
AcDbLine
 10
2211.3820877783
 20
2010.4702375413108
 30
0.0
 11
2208.2818382037804
 21
2010.4702375413108
 31
0.0
  0
LINE
  5
6B
330
17
100
AcDbEntity
  8
bc
  6
Continuous
370
18
100
AcDbLine
 10
2208.2818382037804
 20
1996.3807861845198
 30
0.0
 11
2211.3820877783
 21
1996.3807861845198
 31
0.0
  0
LINE
  5
6C
330
17
100
AcDbEntity
  8
bc
  6
Continuous
370
18
100
AcDbLine
 10
2211.3820877783
 20
2035.6832766154002
 30
0.0
 11
2208.2818382037804
 21
2035.6832766154002
 31
0.0
  0
LINE
  5
6D
330
17
100
AcDbEntity
  8
FIRE PROTECTION
  6
Continuous
100
AcDbLine
 10
2511.3820877783
 20
1754.5263109061088
 30
0.0
 11
2211.3820877783
 21
1754.5263109061088
 31
0.0
  0
LINE
  5
6E
330
17
100
AcDbEntity
  8
FIRE PROTECTION
  6
Continuous
100
AcDbLine
 10
2211.3820877783
 20
1754.5263109061088
 30
0.0
 11
2211.3820877783
 21
2054.526310906109
 31
0.0
  0
LINE
  5
6F
330
17
100
AcDbEntity
  8
FIRE PROTECTION
  6
Continuous
100
AcDbLine
 10
2211.3820877783
 20
2054.526310906109
 30
0.0
 11
2226.3820877783
 21
2054.526310906109
 31
0.0
  0
LINE
  5
70
330
17
100
AcDbEntity
  8
FIRE PROTECTION
  6
Continuous
100
AcDbLine
 10
2226.3820877783
 20
1769.5263109061088
 30
0.0
 11
2226.3820877783
 21
2012.0999040345887
 31
0.0
  0
LINE
  5
71
330
17
100
AcDbEntity
  8
FIRE PROTECTION
  6
Continuous
100
AcDbLine
 10
2468.955680906769
 20
1769.5263109061088
 30
0.0
 11
2226.3820877783
 21
1769.5263109061088
 31
0.0
  0
LINE
  5
72
330
17
100
AcDbEntity
  8
FIRE PROTECTION
  6
Continuous
100
AcDbLine
 10
2511.3820877783
 20
1754.5263109061088
 30
0.0
 11
2511.3820877783
 21
1769.5263109061088
 31
0.0
  0
LINE
  5
73
330
17
100
AcDbEntity
  8
FIRE PROTECTION
  6
Continuous
100
AcDbLine
 10
2511.3820877783
 20
1769.5263109061088
 30
0.0
 11
2226.3820877783
 21
2054.526310906109
 31
0.0
  0
LINE
  5
74
330
17
100
AcDbEntity
  8
FIRE PROTECTION
  6
Continuous
100
AcDbLine
 10
2468.955680906769
 20
1769.5263109061088
 30
0.0
 11
2226.3820877783
 21
2012.0999040345887
 31
0.0
  0
LINE
  5
75
330
17
100
AcDbEntity
  8
bc
  6
Continuous
370
18
100
AcDbLine
 10
2208.2818382037804
 20
1773.2637584696713
 30
0.0
 11
2208.2818382037804
 21
1812.566248900559
 31
0.0
  0
LINE
  5
76
330
17
100
AcDbEntity
  8
bc
  6
Continuous
370
18
100
AcDbLine
 10
2211.3820877783
 20
1812.566248900559
 30
0.0
 11
2211.3820877783
 21
1773.2637584696713
 31
0.0
  0
LINE
  5
77
330
17
100
AcDbEntity
  8
bc
  6
Continuous
370
18
100
AcDbLine
 10
2211.3820877773705
 20
1785.75125606015
 30
0.0
 11
2208.2818382037804
 21
1785.75125606015
 31
0.0
  0
LINE
  5
78
330
17
100
AcDbEntity
  8
bc
  6
Continuous
370
18
100
AcDbLine
 10
2211.3820877783
 20
1798.4767975437608
 30
0.0
 11
2208.2818382037804
 21
1798.4767975437608
 31
0.0
  0
LINE
  5
79
330
17
100
AcDbEntity
  8
bc
  6
Continuous
370
18
100
AcDbLine
 10
2208.2818382037804
 20
1812.566248900559
 30
0.0
 11
2211.3820877783
 21
1812.566248900559
 31
0.0
  0
LINE
  5
7A
330
17
100
AcDbEntity
  8
bc
  6
Continuous
370
18
100
AcDbLine
 10
2211.3820877783
 20
1773.2637584696713
 30
0.0
 11
2208.2818382037804
 21
1773.2637584696713
 31
0.0
  0
LWPOLYLINE
  5
7B
330
17
100
AcDbEntity
  8
0
 62
7
100
AcDbPolyline
 90
12
 70
1
 10
2208.3820877783
 20
644.610767477021
 10
2208.3820877783
 20
629.610767477021
 10
2183.3820877783
 20
629.610767477021
 10
2183.3820877783
 20
851.6107674770283
 10
2208.3820877783
 20
851.6107674770283
 10
2208.3820877783
 20
841.610767477021
 10
2209.8820877783
 20
841.610767477021
 10
2209.8820877783
 20
853.1107674770283
 10
2181.8820877783
 20
853.1107674770283
 10
2181.8820877783
 20
628.110767477021
 10
2209.8820877783
 20
628.110767477021
 10
2209.8820877783
 20
644.610767477021
  0
LWPOLYLINE
  5
7C
330
17
100
AcDbEntity
  8
0
 62
7
100
AcDbPolyline
 90
12
 70
1
 10
2855.3820877783
 20
644.610767477021
 10
2855.3820877783
 20
629.610767477021
 10
2880.3820877783
 20
629.610767477021
 10
2880.3820877783
 20
851.6107674770283
 10
2855.3820877783
 20
851.6107674770283
 10
2855.3820877783
 20
841.610767477021
 10
2853.8820877783
 20
841.610767477021
 10
2853.8820877783
 20
853.1107674770283
 10
2881.8820877783
 20
853.1107674770283
 10
2881.8820877783
 20
628.110767477021
 10
2853.8820877783
 20
628.110767477021
 10
2853.8820877783
 20
644.610767477021
  0
LWPOLYLINE
  5
7D
330
17
100
AcDbEntity
  8
0
 62
7
100
AcDbPolyline
 90
8
 70
1
 10
2851.8820877783
 20
841.610767477021
 10
2851.8820877783
 20
851.6107674770283
 10
2211.8820877783
 20
851.6107674770283
 10
2211.8820877783
 20
841.610767477021
 10
2210.3820877783
 20
841.610767477021
 10
2210.3820877783
 20
853.1107674770283
 10
2853.3820877783
 20
853.1107674770283
 10
2853.3820877783
 20
841.610767477021
  0
LWPOLYLINE
  5
7E
330
17
100
AcDbEntity
  8
0
 62
7
100
AcDbPolyline
 90
12
 70
1
 10
2866.3820877783
 20
625.610767477021
 10
2878.3820877783
 20
625.610767477021
 10
2878.3820877783
 20
603.6107674770283
 10
2183.3820877783
 20
603.6107674770283
 10
2183.3820877783
 20
625.610767477021
 10
2195.3820877783
 20
625.610767477021
 10
2195.3820877783
 20
627.1107674770283
 10
2181.8820877783
 20
627.1107674770283
 10
2181.8820877783
 20
602.1107674770283
 10
2879.8820877783
 20
602.1107674770283
 10
2879.8820877783
 20
627.1107674770283
 10
2866.3820877783
 20
627.1107674770283
  0
INSERT
  5
7F
330
17
100
AcDbEntity
  8
0
 62
7
100
AcDbBlockReference
  2
HL044-2
 10
2857.8820877783
 20
628.110767477021
 30
0.0
  0
DIMENSION
  5
81
330
17
100
AcDbEntity
  8
DIM
100
AcDbDimension
280
0
  2
*D5
  3
Dim-33
 10
3001.924409871919
 20
602.1107674770283
 30
0.0
 11
2970.0755012771006
 21
727.610767477021
 31
0.0
 70
32
 71
5
 42
251.0
 73
0
 74
0
 75
0
100
AcDbAlignedDimension
 13
2881.8820877783
 23
853.1107674770283
 33
0.0
 14
2879.8820877783
 24
602.1107674770283
 34
0.0
 50
90.0
100
AcDbRotatedDimension
  0
LWPOLYLINE
  5
82
330
17
100
AcDbEntity
  8
0
 62
1
100
AcDbPolyline
 90
4
 70
1
 10
2552.3820877783
 20
828.110767477021
 10
2852.3820877783
 20
828.110767477021
 10
2852.3820877783
 20
708.110767477021
 10
2552.3820877783
 20
708.110767477021
  0
LWPOLYLINE
  5
83
330
17
100
AcDbEntity
  8
0
 62
1
100
AcDbPolyline
 90
4
 70
1
 10
2552.3820877783
 20
826.6107674770283
 10
2850.8820877783
 20
826.6107674770283
 10
2850.8820877783
 20
709.610767477021
 10
2552.3820877783
 20
709.610767477021
  0
LWPOLYLINE
  5
84
330
17
100
AcDbEntity
  8
0
 62
1
100
AcDbPolyline
 90
4
 70
1
 10
2852.3820877783
 20
828.110767477021
 10
2853.8820877783
 20
828.110767477021
 10
2853.8820877783
 20
628.110767477021
 10
2852.3820877783
 20
628.110767477021
  0
INSERT
  5
85
330
17
100
AcDbEntity
  8
0
100
AcDbBlockReference
  2
A$C67844AE1
 10
2830.3821723377296
 20
686.1108897807499
 30
0.0
  0
LWPOLYLINE
  5
87
330
17
100
AcDbEntity
  8
0
 62
1
100
AcDbPolyline
 90
4
 70
1
 10
2511.3820877783
 20
828.110767477021
 10
2211.3820877783
 20
828.110767477021
 10
2211.3820877783
 20
708.110767477021
 10
2511.3820877783
 20
708.110767477021
  0
LWPOLYLINE
  5
88
330
17
100
AcDbEntity
  8
0
 62
1
100
AcDbPolyline
 90
4
 70
1
 10
2511.3820877783
 20
826.6107674770283
 10
2212.8820877783
 20
826.6107674770283
 10
2212.8820877783
 20
709.610767477021
 10
2511.3820877783
 20
709.610767477021
  0
LWPOLYLINE
  5
89
330
17
100
AcDbEntity
  8
0
 62
1
100
AcDbPolyline
 90
4
 70
1
 10
2211.3820877783
 20
828.110767477021
 10
2209.8820877783
 20
828.110767477021
 10
2209.8820877783
 20
628.110767477021
 10
2211.3820877783
 20
628.110767477021
  0
INSERT
  5
8A
330
17
100
AcDbEntity
  8
0
100
AcDbBlockReference
  2
A$C67844AE1
 10
2233.38200321793
 20
686.1108897807499
 30
0.0
 41
-1.0
  0
LWPOLYLINE
  5
8C
330
17
100
AcDbEntity
  8
0
 62
2
100
AcDbPolyline
 90
8
 70
1
 10
1363.4140144251305
 20
2297.9307723195598
 10
1563.4140144251305
 20
2297.9307723195598
 42
-0.4142135623730951
 10
1663.4140144251305
 20
2197.9307723195598
 10
1663.4140144251305
 20
1427.9307723195598
 42
-0.4142135623730951
 10
1563.4140144251305
 20
1327.9307723195598
 10
1363.4140144251305
 20
1327.9307723195598
 42
-0.4142135623730951
 10
1263.4140144251305
 20
1427.9307723195598
 10
1263.4140144251305
 20
2197.9307723195598
 42
-0.4142135623730951
  0
LWPOLYLINE
  5
8D
330
17
100
AcDbEntity
  8
0
  6
HIDDENX2
100
AcDbPolyline
 90
4
 70
1
 10
1243.4140144251305
 20
2317.9307723195598
 10
1683.4140144251305
 20
2317.9307723195598
 10
1683.4140144251305
 20
1307.9307723195598
 10
1243.4140144251305
 20
1307.9307723195598
  0
LWPOLYLINE
  5
8E
330
17
100
AcDbEntity
  8
0
 62
1
100
AcDbPolyline
 90
4
 70
1
 10
1220.4140144251305
 20
2340.9307723195598
 10
1706.4140144251305
 20
2340.9307723195598
 10
1673.4140144251305
 20
2307.9307723195598
 10
1253.4140144251305
 20
2307.9307723195598
  0
LWPOLYLINE
  5
8F
330
17
100
AcDbEntity
  8
0
 62
1
100
AcDbPolyline
 90
4
 70
1
 10
1706.4140144251305
 20
2340.9307723195598
 10
1706.4140144251305
 20
1284.9307723195598
 10
1673.4140144251305
 20
1317.9307723195598
 10
1673.4140144251305
 20
2307.9307723195598
  0
LWPOLYLINE
  5
90
330
17
100
AcDbEntity
  8
0
 62
1
100
AcDbPolyline
 90
4
 70
1
 10
1220.4140144251305
 20
1284.9307723195598
 10
1706.4140144251305
 20
1284.9307723195598
 10
1673.4140144251305
 20
1317.9307723195598
 10
1253.4140144251305
 20
1317.9307723195598
  0
LWPOLYLINE
  5
91
330
17
100
AcDbEntity
  8
0
 62
1
100
AcDbPolyline
 90
4
 70
1
 10
1220.4140144251305
 20
2340.9307723195598
 10
1220.4140144251305
 20
1284.9307723195598
 10
1253.4140144251305
 20
1317.9307723195598
 10
1253.4140144251305
 20
2307.9307723195598
  0
CIRCLE
  5
92
330
17
100
AcDbEntity
  8
0
 62
2
100
AcDbCircle
 10
1613.4140144251305
 20
1301.4307723195598
 30
0.0
 40
5.0
  0
CIRCLE
  5
93
330
17
100
AcDbEntity
  8
0
 62
2
100
AcDbCircle
 10
1313.4140144251305
 20
1301.4307723195598
 30
0.0
 40
5.0
  0
CIRCLE
  5
94
330
17
100
AcDbEntity
  8
0
 62
2
100
AcDbCircle
 10
1689.9140144251305
 20
1962.9307723195598
 30
0.0
 40
5.0
  0
CIRCLE
  5
95
330
17
100
AcDbEntity
  8
0
 62
2
100
AcDbCircle
 10
1689.9140144251305
 20
2262.9307723195598
 30
0.0
 40
5.0
  0
CIRCLE
  5
96
330
17
100
AcDbEntity
  8
0
 62
2
100
AcDbCircle
 10
1689.9140144251305
 20
1662.9307723195598
 30
0.0
 40
5.0
  0
CIRCLE
  5
97
330
17
100
AcDbEntity
  8
0
 62
2
100
AcDbCircle
 10
1689.9140144251305
 20
1362.9307723195598
 30
0.0
 40
5.0
  0
CIRCLE
  5
98
330
17
100
AcDbEntity
  8
0
 62
2
100
AcDbCircle
 10
1236.9140144251305
 20
1962.9307723195598
 30
0.0
 40
4.999999999999999
  0
CIRCLE
  5
99
330
17
100
AcDbEntity
  8
0
 62
2
100
AcDbCircle
 10
1236.9140144251305
 20
2262.9307723195598
 30
0.0
 40
4.999999999999999
  0
CIRCLE
  5
9A
330
17
100
AcDbEntity
  8
0
 62
2
100
AcDbCircle
 10
1236.9140144251305
 20
1662.9307723195598
 30
0.0
 40
4.999999999999999
  0
CIRCLE
  5
9B
330
17
100
AcDbEntity
  8
0
 62
2
100
AcDbCircle
 10
1236.9140144251305
 20
1362.9307723195598
 30
0.0
 40
4.999999999999999
  0
CIRCLE
  5
9C
330
17
100
AcDbEntity
  8
0
 62
2
100
AcDbCircle
 10
1613.4140144251305
 20
2324.4307723195598
 30
0.0
 40
5.0
  0
CIRCLE
  5
9D
330
17
100
AcDbEntity
  8
0
 62
2
100
AcDbCircle
 10
1313.4140144251305
 20
2324.4307723195598
 30
0.0
 40
5.0
  0
LWPOLYLINE
  5
9E
330
17
100
AcDbEntity
  8
0
 62
7
100
AcDbPolyline
 90
12
 70
1
 10
1139.9140144251305
 20
644.610767477021
 10
1139.9140144251305
 20
629.610767477021
 10
1114.9140144251305
 20
629.610767477021
 10
1114.9140144251305
 20
851.6107674770283
 10
1139.9140144251305
 20
851.6107674770283
 10
1139.9140144251305
 20
841.610767477021
 10
1141.4140144251305
 20
841.610767477021
 10
1141.4140144251305
 20
853.1107674770283
 10
1113.4140144251305
 20
853.1107674770283
 10
1113.4140144251305
 20
628.110767477021
 10
1141.4140144251305
 20
628.110767477021
 10
1141.4140144251305
 20
644.610767477021
  0
LWPOLYLINE
  5
9F
330
17
100
AcDbEntity
  8
0
 62
7
100
AcDbPolyline
 90
12
 70
1
 10
1786.9140144251305
 20
644.610767477021
 10
1786.9140144251305
 20
629.610767477021
 10
1811.9140144251305
 20
629.610767477021
 10
1811.9140144251305
 20
851.6107674770283
 10
1786.9140144251305
 20
851.6107674770283
 10
1786.9140144251305
 20
841.610767477021
 10
1785.4140144251305
 20
841.610767477021
 10
1785.4140144251305
 20
853.1107674770283
 10
1813.4140144251305
 20
853.1107674770283
 10
1813.4140144251305
 20
628.110767477021
 10
1785.4140144251305
 20
628.110767477021
 10
1785.4140144251305
 20
644.610767477021
  0
LWPOLYLINE
  5
A0
330
17
100
AcDbEntity
  8
0
 62
7
100
AcDbPolyline
 90
8
 70
1
 10
1783.4140144251305
 20
841.610767477021
 10
1783.4140144251305
 20
851.6107674770283
 10
1143.4140144251305
 20
851.6107674770283
 10
1143.4140144251305
 20
841.610767477021
 10
1141.9140144251305
 20
841.610767477021
 10
1141.9140144251305
 20
853.1107674770283
 10
1784.9140144251305
 20
853.1107674770283
 10
1784.9140144251305
 20
841.610767477021
  0
LWPOLYLINE
  5
A1
330
17
100
AcDbEntity
  8
0
 62
7
100
AcDbPolyline
 90
12
 70
1
 10
1797.9140144251305
 20
625.610767477021
 10
1809.9140144251305
 20
625.610767477021
 10
1809.9140144251305
 20
603.6107674770283
 10
1114.9140144251305
 20
603.6107674770283
 10
1114.9140144251305
 20
625.610767477021
 10
1126.9140144251305
 20
625.610767477021
 10
1126.9140144251305
 20
627.1107674770283
 10
1113.4140144251305
 20
627.1107674770283
 10
1113.4140144251305
 20
602.1107674770283
 10
1811.4140144251305
 20
602.1107674770283
 10
1811.4140144251305
 20
627.1107674770283
 10
1797.9140144251305
 20
627.1107674770283
  0
INSERT
  5
A2
330
17
100
AcDbEntity
  8
0
 62
7
100
AcDbBlockReference
  2
HL044-2
 10
1789.4140144251305
 20
628.110767477021
 30
0.0
  0
DIMENSION
  5
A4
330
17
100
AcDbEntity
  8
DIM
100
AcDbDimension
280
0
  2
*D6
  3
Dim-33
 10
1933.4563365187496
 20
602.1107674770283
 30
0.0
 11
1901.6074279239292
 21
727.610767477021
 31
0.0
 70
32
 71
5
 42
251.0
 73
0
 74
0
 75
0
100
AcDbAlignedDimension
 13
1813.4140144251305
 23
853.1107674770283
 33
0.0
 14
1811.4140144251305
 24
602.1107674770283
 34
0.0
 50
90.0
100
AcDbRotatedDimension
  0
CIRCLE
  5
A5
330
17
100
AcDbEntity
  8
0
 62
2
100
AcDbCircle
 10
1463.4140144251305
 20
753.1107674770283
 30
0.0
 40
32.5
  0
LINE
  5
A6
330
17
100
AcDbEntity
  8
Net manh
100
AcDbLine
 10
2299.50775709934
 20
1662.1795114156084
 30
0.0
 11
2302.0791955534296
 21
1666.3556231517614
 31
0.0
  0
ARC
  5
A7
330
17
100
AcDbEntity
  8
Net manh
100
AcDbCircle
 10
2382.27579323202
 20
1533.4177885069585
 30
0.0
 40
48.1916476623389
100
AcDbArc
 50
0.0
 51
90.0
  0
ARC
  5
A8
330
17
100
AcDbEntity
  8
Net manh
100
AcDbCircle
 10
2343.7224751021695
 20
1533.4177885069585
 30
0.0
 40
48.1916476623389
100
AcDbArc
 50
90.0
 51
180.0
  0
CIRCLE
  5
A9
330
17
100
AcDbEntity
  8
Net manh
100
AcDbCircle
 10
2352.5436956435406
 20
1643.2263494317995
 30
0.0
 40
0.642855898943094
  0
LINE
  5
AA
330
17
100
AcDbEntity
  8
Net manh
100
AcDbLine
 10
2298.5434732511603
 20
1630.3767539968903
 30
0.0
 11
2299.5077719576693
 21
1633.910393710139
 31
0.0
  0
CIRCLE
  5
AB
330
17
100
AcDbEntity
  8
Net manh
100
AcDbCircle
 10
2348.04367463384
 20
1637.765274277721
 30
0.0
 40
1.158717431733808
  0
CIRCLE
  5
AC
330
17
100
AcDbEntity
  8
Net manh
100
AcDbCircle
 10
2362.9991341670993
 20
1620.3699454384696
 30
0.0
 40
10.83260463791281
  0
CIRCLE
  5
AD
330
17
100
AcDbEntity
  8
Net manh
100
AcDbCircle
 10
2362.9991341670993
 20
1620.3699454384696
 30
0.0
 40
8.423022254795871
  0
LINE
  5
AE
330
17
100
AcDbEntity
  8
Net manh
100
AcDbLine
 10
2382.27579323202
 20
1585.0407061487313
 30
0.0
 11
2343.7224751021695
 21
1585.0407061487313
 31
0.0
  0
LINE
  5
AF
330
17
100
AcDbEntity
  8
Net manh
100
AcDbLine
 10
2380.2458876175806
 20
1599.8428427440303
 30
0.0
 11
2345.752380716609
 21
1599.8428427440303
 31
0.0
  0
LINE
  5
B0
330
17
100
AcDbEntity
  8
Net manh
100
AcDbLine
 10
2382.27579323202
 20
1605.9654032419312
 30
0.0
 11
2343.7224751021695
 21
1605.9654032419312
 31
0.0
  0
LINE
  5
B1
330
17
100
AcDbEntity
  8
Net manh
100
AcDbLine
 10
2382.27579323202
 20
1603.8123650156303
 30
0.0
 11
2343.7224751021695
 21
1603.8123650156303
 31
0.0
  0
LINE
  5
B2
330
17
100
AcDbEntity
  8
Net manh
100
AcDbLine
 10
2382.27579323202
 20
1581.6094361692194
 30
0.0
 11
2343.7224751021695
 21
1581.6094361692194
 31
0.0
  0
LINE
  5
B3
330
17
100
AcDbEntity
  8
Net manh
100
AcDbLine
 10
2386.926412360739
 20
1631.595296461779
 30
0.0
 11
2386.926412360739
 21
1609.14459441504
 31
0.0
  0
LINE
  5
B4
330
17
100
AcDbEntity
  8
Net manh
100
AcDbLine
 10
2382.94870248344
 20
1631.595296461779
 30
0.0
 11
2382.94870248344
 21
1609.14459441504
 31
0.0
  0
ARC
  5
B5
330
17
100
AcDbEntity
  8
Net manh
100
AcDbCircle
 10
2417.18103410862
 20
1590.3074935858094
 30
0.0
 40
36.02907987402306
100
AcDbArc
 50
0.0
 51
90.0
  0
LINE
  5
B6
330
17
100
AcDbEntity
  8
Net manh
100
AcDbLine
 10
2370.8955774176793
 20
1612.9543195565384
 30
0.0
 11
2382.94870248344
 21
1612.9543195565384
 31
0.0
  0
ARC
  5
B7
330
17
100
AcDbEntity
  8
Net manh
100
AcDbCircle
 10
2417.18103410862
 20
1590.3074935858094
 30
0.0
 40
24.09582383116945
100
AcDbArc
 50
0.0
 51
90.0
  0
LINE
  5
B8
330
17
100
AcDbEntity
  8
Net manh
100
AcDbLine
 10
2382.27579323202
 20
1581.6094361692194
 30
0.0
 11
2382.27579323202
 21
1585.0407061487313
 31
0.0
  0
LINE
  5
B9
330
17
100
AcDbEntity
  8
Net manh
100
AcDbLine
 10
2380.2458876175806
 20
1585.0407061487313
 30
0.0
 11
2380.2458876175806
 21
1599.8428427440303
 31
0.0
  0
LINE
  5
BA
330
17
100
AcDbEntity
  8
Net manh
100
AcDbLine
 10
2382.94870248344
 20
1609.14459441504
 30
0.0
 11
2386.926412360739
 21
1609.14459441504
 31
0.0
  0
LINE
  5
BB
330
17
100
AcDbEntity
  8
Net manh
100
AcDbLine
 10
2382.27579323202
 20
1605.9654032419312
 30
0.0
 11
2382.27579323202
 21
1603.8123650156303
 31
0.0
  0
LINE
  5
BC
330
17
100
AcDbEntity
  8
Net manh
100
AcDbLine
 10
2386.926412360739
 20
1614.4033174169708
 30
0.0
 11
2417.18103410862
 21
1614.4033174169708
 31
0.0
  0
LINE
  5
BD
330
17
100
AcDbEntity
  8
Net manh
100
AcDbLine
 10
2372.4365093409997
 20
1605.9654032419312
 30
0.0
 11
2370.4424782060105
 21
1612.4996244315516
 31
0.0
  0
LINE
  5
BE
330
17
100
AcDbEntity
  8
Net manh
100
AcDbLine
 10
2372.4365093409997
 20
1599.8428427440303
 30
0.0
 11
2372.4365093409997
 21
1603.8123650156303
 31
0.0
  0
LINE
  5
BF
330
17
100
AcDbEntity
  8
Net manh
100
AcDbLine
 10
2370.8955774176793
 20
1627.7855713202189
 30
0.0
 11
2382.94870248344
 21
1627.7855713202189
 31
0.0
  0
LINE
  5
C0
330
17
100
AcDbEntity
  8
Net manh
100
AcDbLine
 10
2382.94870248344
 20
1631.595296461779
 30
0.0
 11
2386.926412360739
 21
1631.595296461779
 31
0.0
  0
LINE
  5
C1
330
17
100
AcDbEntity
  8
Net manh
  6
ByBlock
100
AcDbLine
 10
2386.926412360739
 20
1626.336573459801
 30
0.0
 11
2417.18103410862
 21
1626.336573459801
 31
0.0
  0
LINE
  5
C2
330
17
100
AcDbEntity
  8
Net manh
100
AcDbLine
 10
2353.5617589922604
 20
1605.9654032419312
 30
0.0
 11
2355.5557901272496
 21
1612.4996244315516
 31
0.0
  0
LINE
  5
C3
330
17
100
AcDbEntity
  8
Net manh
100
AcDbLine
 10
2353.5617589922604
 20
1599.8428427440303
 30
0.0
 11
2353.5617589922604
 21
1603.8123650156303
 31
0.0
  0
LINE
  5
C4
330
17
100
AcDbEntity
  8
Net manh
100
AcDbLine
 10
2353.5617589922604
 20
1605.9654032419312
 30
0.0
 11
2353.5617589922604
 21
1605.9654032419312
 31
0.0
  0
LINE
  5
C5
330
17
100
AcDbEntity
  8
Net manh
100
AcDbLine
 10
2343.7224751021695
 20
1581.6094361692194
 30
0.0
 11
2343.7224751021695
 21
1585.0407061487313
 31
0.0
  0
LINE
  5
C6
330
17
100
AcDbEntity
  8
Net manh
100
AcDbLine
 10
2345.752380716609
 20
1585.0407061487313
 30
0.0
 11
2345.752380716609
 21
1599.8428427440303
 31
0.0
  0
LINE
  5
C7
330
17
100
AcDbEntity
  8
Net manh
100
AcDbLine
 10
2343.7224751021695
 20
1605.9654032419312
 30
0.0
 11
2343.7224751021695
 21
1603.8123650156303
 31
0.0
  0
CIRCLE
  5
C8
330
17
100
AcDbEntity
  8
Net manh
100
AcDbCircle
 10
2361.54373766109
 20
1635.8378388368983
 30
0.0
 40
0.9088814866145
  0
LINE
  5
C9
330
17
100
AcDbEntity
  8
Net manh
100
AcDbLine
 10
2362.9991341670993
 20
1631.2025500763593
 30
0.0
 11
2298.5434732511603
 21
1630.3767539968903
 31
0.0
  0
LWPOLYLINE
  5
CA
330
17
100
AcDbEntity
  8
Net manh
100
AcDbPolyline
 90
4
 70
0
 10
2362.7216083696094
 20
1631.1989944581983
 10
2356.722288702609
 20
1636.8015517144304
 10
2351.5794117944297
 20
1640.9776731364582
 10
2346.7579479776305
 20
1642.9051182631592
  0
LWPOLYLINE
  5
CB
330
17
100
AcDbEntity
  8
Net manh
100
AcDbPolyline
 90
5
 70
0
 10
2346.7579479776305
 20
1642.9051182631592
 10
2337.1150649189894
 20
1638.40775598662
 10
2323.9364446997606
 20
1635.5165979823905
 10
2307.8649432184193
 20
1633.5891528556313
 10
2299.5077719576693
 20
1633.910393710139
  0
ARC
  5
CC
330
17
100
AcDbEntity
  8
Net manh
100
AcDbCircle
 10
2250.472773881629
 20
1474.4198412201986
 30
0.0
 40
194.0570105176835
100
AcDbArc
 50
60.25310048708385
 51
75.36364162336558
  0
LWPOLYLINE
  5
CD
330
17
100
AcDbEntity
  8
Net manh
100
AcDbPolyline
 90
6
 70
0
 10
2302.0791955534296
 20
1666.3556231518196
 10
2329.079321607949
 20
1658.0033899934606
 10
2349.6508292397502
 20
1649.0086654402585
 10
2366.043743812479
 20
1638.0865151321086
 10
2368.6151822656393
 20
1634.2316345645886
 10
2362.9991341670993
 20
1631.2025500762502
  0
LINE
  5
CE
330
17
100
AcDbEntity
  8
Net manh
100
AcDbLine
 10
2441.0766693958994
 20
1178.4575707927106
 30
0.0
 11
2434.9768225839307
 21
1115.6746343578707
 31
0.0
  0
LINE
  5
CF
330
17
100
AcDbEntity
  8
Net manh
100
AcDbLine
 10
2453.4103025263194
 20
1178.4575707927106
 30
0.0
 11
2459.510149338279
 21
1115.6746343578707
 31
0.0
  0
LINE
  5
D0
330
17
100
AcDbEntity
  8
Net manh
100
AcDbLine
 10
2434.9768225839307
 20
1115.6746343578707
 30
0.0
 11
2459.510149338279
 21
1115.6746343578707
 31
0.0
  0
LINE
  5
D1
330
17
100
AcDbEntity
  8
Net manh
100
AcDbLine
 10
2430.46744089387
 20
1111.1105656420186
 30
0.0
 11
2295.53082743939
 21
1111.1105656420186
 31
0.0
  0
LINE
  5
D2
330
17
100
AcDbEntity
  8
Net manh
100
AcDbLine
 10
2430.46744089387
 20
1095.9749549654116
 30
0.0
 11
2295.53082743939
 21
1095.9749549654116
 31
0.0
  0
LINE
  5
D3
330
17
100
AcDbEntity
  8
Net manh
100
AcDbLine
 10
2453.21011398267
 20
1188.5662047023216
 30
0.0
 11
2453.4103025263194
 21
1178.4575707927106
 31
0.0
  0
LINE
  5
D4
330
17
100
AcDbEntity
  8
Net manh
100
AcDbLine
 10
2441.2768579395506
 20
1188.5662047023216
 30
0.0
 11
2441.0766693958994
 21
1178.4575707927106
 31
0.0
  0
LINE
  5
D5
330
17
100
AcDbEntity
  8
Net manh
100
AcDbLine
 10
2453.4103025263194
 20
1178.4575707927106
 30
0.0
 11
2441.0766693958994
 21
1178.4575707927106
 31
0.0
  0
ARC
  5
D6
330
17
100
AcDbEntity
  8
Net manh
100
AcDbCircle
 10
2447.2434859611094
 20
1170.2593159789212
 30
0.0
 40
10.2587040382678
100
AcDbArc
 50
53.04911648540972
 51
126.9508835145902
  0
LINE
  5
D7
330
17
100
AcDbEntity
  8
Net manh
100
AcDbLine
 10
2441.2768579395506
 20
1188.5662047023216
 30
0.0
 11
2453.21011398267
 21
1188.5662047023216
 31
0.0
  0
LINE
  5
D8
330
17
100
AcDbEntity
  8
Net manh
  6
ByBlock
100
AcDbLine
 10
2453.21011398267
 20
1188.5662047023216
 30
0.0
 11
2453.21011398267
 21
1590.3074935858094
 31
0.0
  0
LINE
  5
D9
330
17
100
AcDbEntity
  8
Net manh
  6
ByBlock
100
AcDbLine
 10
2441.2768579395506
 20
1188.5662047023216
 30
0.0
 11
2441.2768579395506
 21
1590.3074935858094
 31
0.0
  0
LINE
  5
DA
330
17
100
AcDbEntity
  8
Net manh
  6
ByBlock
100
AcDbLine
 10
2295.53082743939
 20
1095.9749549654116
 30
0.0
 11
2295.53082743939
 21
1533.4177885069585
 31
0.0
  0
LINE
  5
DB
330
17
100
AcDbEntity
  8
Net manh
  6
ByBlock
100
AcDbLine
 10
2430.46744089387
 20
1095.9749549654116
 30
0.0
 11
2430.46744089387
 21
1533.4177885069585
 31
0.0
  0
TEXT
  5
DC
330
17
100
AcDbEntity
  8
Text
100
AcDbText
 10
2383.93591990415
 20
1181.6169963755601
 30
0.0
 40
59.21052631578946
  1
co2mt3
 50
90.0
  7
TEXT
100
AcDbText
  0
LINE
  5
DD
330
17
100
AcDbEntity
  8
Net manh
100
AcDbLine
 10
2610.158569081679
 20
1603.145595034479
 30
0.0
 11
2612.76956812758
 21
1607.3859546435488
 31
0.0
  0
ARC
  5
DE
330
17
100
AcDbEntity
  8
Net manh
  6
ByBlock
100
AcDbCircle
 10
2655.0535135148093
 20
1472.4029225425402
 30
0.0
 40
48.93305762637488
100
AcDbArc
 50
90.0
 51
180.0
  0
LINE
  5
DF
330
17
100
AcDbEntity
  8
Net manh
100
AcDbLine
 10
2609.17945009749
 20
1570.8535644247386
 30
0.0
 11
2610.158584168179
 21
1574.4415678256883
 31
0.0
  0
LINE
  5
E0
330
17
100
AcDbEntity
  8
Net manh
100
AcDbLine
 10
2655.0535135148093
 20
1546.0666544273881
 30
0.0
 11
2655.0535135148093
 21
1543.8804925361292
 31
0.0
  0
LINE
  5
E1
330
17
100
AcDbEntity
  8
Net manh
100
AcDbLine
 10
2657.1146484464407
 20
1524.8200389171907
 30
0.0
 11
2657.1146484464407
 21
1539.8499006909587
 31
0.0
  0
LINE
  5
E2
330
17
100
AcDbEntity
  8
Net manh
100
AcDbLine
 10
2655.0535135148093
 20
1521.3359801689585
 30
0.0
 11
2655.0535135148093
 21
1524.8200389171907
 31
0.0
  0
LWPOLYLINE
  5
E3
330
17
100
AcDbEntity
  8
Net manh
100
AcDbPolyline
 90
5
 70
0
 10
2658.1356859738007
 20
1583.5746727566693
 10
2648.3444508677294
 20
1579.0081202912406
 10
2634.9630826450903
 20
1576.072482933061
 10
2618.644327295009
 20
1574.1153848043796
 10
2610.158584168179
 20
1574.4415678258592
  0
ARC
  5
E4
330
17
100
AcDbEntity
  8
Net manh
100
AcDbCircle
 10
2560.36920150649
 20
1412.4973145283402
 30
0.0
 40
197.0425029871863
100
AcDbArc
 50
60.25310048708385
 51
75.36364162336558
  0
ARC
  5
E5
330
17
100
AcDbEntity
  8
Net manh
100
AcDbCircle
 10
2694.1999596161695
 20
1472.4029225425402
 30
0.0
 40
48.93305762637488
100
AcDbArc
 50
0.0
 51
90.0
  0
CIRCLE
  5
E6
330
17
100
AcDbEntity
  8
Net manh
100
AcDbCircle
 10
2674.6267365654894
 20
1560.6928049653798
 30
0.0
 40
10.9992600938807
  0
ARC
  5
E7
330
17
100
AcDbEntity
  8
Net manh
100
AcDbCircle
 10
2729.64220419899
 20
1530.1678538534397
 30
0.0
 40
36.58337341054651
100
AcDbArc
 50
0.0
 51
90.0
  0
ARC
  5
E8
330
17
100
AcDbEntity
  8
Net manh
100
AcDbCircle
 10
2729.64220419899
 20
1530.1678538534397
 30
0.0
 40
24.46652881318744
100
AcDbArc
 50
0.0
 51
90.0
  0
LINE
  5
E9
330
17
100
AcDbEntity
  8
Net manh
100
AcDbLine
 10
2665.0441710036193
 20
1546.0666544273881
 30
0.0
 11
2665.0441710036193
 21
1546.0666544273881
 31
0.0
  0
LINE
  5
EA
330
17
100
AcDbEntity
  8
Net manh
100
AcDbLine
 10
2665.0441710036193
 20
1546.0666544273881
 30
0.0
 11
2667.0688795410097
 21
1552.70140209678
 31
0.0
  0
LINE
  5
EB
330
17
100
AcDbEntity
  8
Net manh
100
AcDbLine
 10
2665.0441710036193
 20
1539.8499006909587
 30
0.0
 11
2665.0441710036193
 21
1543.8804925361292
 31
0.0
  0
LINE
  5
EC
330
17
100
AcDbEntity
  8
Net manh
100
AcDbLine
 10
2694.8832213180103
 20
1572.0908536967581
 30
0.0
 11
2694.8832213180103
 21
1549.2947562339286
 31
0.0
  0
LINE
  5
ED
330
17
100
AcDbEntity
  8
Net manh
100
AcDbLine
 10
2698.92212673183
 20
1572.0908536967581
 30
0.0
 11
2698.92212673183
 21
1549.2947562339286
 31
0.0
  0
LINE
  5
EE
330
17
100
AcDbEntity
  8
Net manh
100
AcDbLine
 10
2684.20930212643
 20
1539.8499006909587
 30
0.0
 11
2684.20930212643
 21
1543.8804925361292
 31
0.0
  0
LINE
  5
EF
330
17
100
AcDbEntity
  8
Net manh
100
AcDbLine
 10
2694.1999596161695
 20
1546.0666544273881
 30
0.0
 11
2694.1999596161695
 21
1543.8804925361292
 31
0.0
  0
LINE
  5
F0
330
17
100
AcDbEntity
  8
Net manh
100
AcDbLine
 10
2692.13882468454
 20
1524.8200389171907
 30
0.0
 11
2692.13882468454
 21
1539.8499006909587
 31
0.0
  0
LINE
  5
F1
330
17
100
AcDbEntity
  8
Net manh
100
AcDbLine
 10
2694.1999596161695
 20
1521.3359801689585
 30
0.0
 11
2694.1999596161695
 21
1524.8200389171907
 31
0.0
  0
LINE
  5
F2
330
17
100
AcDbEntity
  8
Net manh
100
AcDbLine
 10
2698.92212673183
 20
1554.6343826665616
 30
0.0
 11
2729.64220419899
 21
1554.6343826665616
 31
0.0
  0
LINE
  5
F3
330
17
100
AcDbEntity
  8
Net manh
100
AcDbLine
 10
2694.8832213180103
 20
1549.2947562339286
 30
0.0
 11
2698.92212673183
 21
1549.2947562339286
 31
0.0
  0
LINE
  5
F4
330
17
100
AcDbEntity
  8
Net manh
100
AcDbLine
 10
2698.92212673183
 20
1566.7512272640088
 30
0.0
 11
2729.64220419899
 21
1566.7512272640088
 31
0.0
  0
LINE
  5
F5
330
17
100
AcDbEntity
  8
Net manh
100
AcDbLine
 10
2694.8832213180103
 20
1572.0908536967581
 30
0.0
 11
2698.92212673183
 21
1572.0908536967581
 31
0.0
  0
LINE
  5
F6
330
17
100
AcDbEntity
  8
Net manh
100
AcDbLine
 10
2684.20930212643
 20
1546.0666544273881
 30
0.0
 11
2682.18459358998
 21
1552.70140209678
 31
0.0
  0
LINE
  5
F7
330
17
100
AcDbEntity
  8
Net manh
100
AcDbLine
 10
2682.6446635592692
 20
1553.1630925313912
 30
0.0
 11
2694.8832213180103
 21
1553.1630925313912
 31
0.0
  0
LINE
  5
F8
330
17
100
AcDbEntity
  8
Net manh
100
AcDbLine
 10
2682.6446635592692
 20
1568.222517399241
 30
0.0
 11
2694.8832213180103
 21
1568.222517399241
 31
0.0
  0
CIRCLE
  5
F9
330
17
100
AcDbEntity
  8
Net manh
100
AcDbCircle
 10
2674.6267365654894
 20
1560.6928049653798
 30
0.0
 40
8.55260721256196
  0
LINE
  5
FA
330
17
100
AcDbEntity
  8
Net manh
100
AcDbLine
 10
2694.1999596161695
 20
1543.8804925361292
 30
0.0
 11
2655.0535135148093
 21
1543.8804925361292
 31
0.0
  0
LINE
  5
FB
330
17
100
AcDbEntity
  8
Net manh
100
AcDbLine
 10
2694.1999596161695
 20
1546.0666544273881
 30
0.0
 11
2655.0535135148093
 21
1546.0666544273881
 31
0.0
  0
LINE
  5
FC
330
17
100
AcDbEntity
  8
Net manh
100
AcDbLine
 10
2692.13882468454
 20
1539.8499006909587
 30
0.0
 11
2657.1146484464407
 21
1539.8499006909587
 31
0.0
  0
LINE
  5
FD
330
17
100
AcDbEntity
  8
Net manh
100
AcDbLine
 10
2694.1999596161695
 20
1521.3359801689585
 30
0.0
 11
2655.0535135148093
 21
1521.3359801689585
 31
0.0
  0
LINE
  5
FE
330
17
100
AcDbEntity
  8
Net manh
100
AcDbLine
 10
2694.1999596161695
 20
1524.8200389171907
 30
0.0
 11
2655.0535135148093
 21
1524.8200389171907
 31
0.0
  0
LWPOLYLINE
  5
FF
330
17
100
AcDbEntity
  8
Net manh
100
AcDbPolyline
 90
4
 70
0
 10
2674.34494114108
 20
1571.6884547392292
 10
2668.2533242479003
 20
1577.3772051840315
 10
2663.031326157039
 20
1581.6175746279805
 10
2658.1356859738007
 20
1583.5746727566693
  0
LINE
  5
100
330
17
100
AcDbEntity
  8
Net manh
100
AcDbLine
 10
2674.6267365654894
 20
1571.692065059211
 30
0.0
 11
2609.17945009749
 21
1570.8535644247386
 31
0.0
  0
LWPOLYLINE
  5
101
330
17
100
AcDbEntity
  8
Net manh
100
AcDbPolyline
 90
6
 70
0
 10
2612.76956812758
 20
1607.3859546436106
 10
2640.1850807359406
 20
1598.9052255904608
 10
2661.07307310123
 20
1589.7721206595415
 10
2677.7181863589194
 20
1578.6819372698192
 10
2680.3291854048093
 20
1574.7677508472807
 10
2674.6267365654894
 20
1571.692065059211
  0
LINE
  5
102
330
17
100
AcDbEntity
  8
Net manh
100
AcDbLine
 10
2766.4288459774107
 20
1179.6823514673306
 30
0.0
 11
2772.622536585659
 21
1115.9335237026207
 31
0.0
  0
LINE
  5
103
330
17
100
AcDbEntity
  8
Net manh
100
AcDbLine
 10
2753.90546464454
 20
1179.6823514673306
 30
0.0
 11
2747.7117740353606
 21
1115.9335237026207
 31
0.0
  0
LINE
  5
104
330
17
100
AcDbEntity
  8
Net manh
100
AcDbLine
 10
2747.7117740353606
 20
1115.9335237026207
 30
0.0
 11
2772.622536585659
 21
1115.9335237026207
 31
0.0
  0
LINE
  5
105
330
17
100
AcDbEntity
  8
Net manh
100
AcDbLine
 10
2754.108733012339
 20
1189.946502821589
 30
0.0
 11
2766.22557760961
 21
1189.946502821589
 31
0.0
  0
ARC
  5
106
330
17
100
AcDbEntity
  8
Net manh
100
AcDbCircle
 10
2760.1671553105098
 20
1171.357969656361
 30
0.0
 40
10.41653025424114
100
AcDbArc
 50
53.04911648540972
 51
126.9508835145902
  0
LINE
  5
107
330
17
100
AcDbEntity
  8
Net manh
100
AcDbLine
 10
2766.4288459774107
 20
1179.6823514673306
 30
0.0
 11
2753.90546464454
 21
1179.6823514673306
 31
0.0
  0
LINE
  5
108
330
17
100
AcDbEntity
  8
Net manh
100
AcDbLine
 10
2766.22557760961
 20
1189.946502821589
 30
0.0
 11
2766.4288459774107
 21
1179.6823514673306
 31
0.0
  0
LINE
  5
109
330
17
100
AcDbEntity
  8
Net manh
100
AcDbLine
 10
2754.108733012339
 20
1189.946502821589
 30
0.0
 11
2753.90546464454
 21
1179.6823514673306
 31
0.0
  0
LINE
  5
10A
330
17
100
AcDbEntity
  8
Net manh
  6
ByBlock
100
AcDbLine
 10
2743.1330172419493
 20
1111.2992385449616
 30
0.0
 11
2606.1204558881
 21
1111.2992385449616
 31
0.0
  0
LINE
  5
10B
330
17
100
AcDbEntity
  8
Net manh
  6
ByBlock
100
AcDbLine
 10
2743.1330172419493
 20
1095.9307723195598
 30
0.0
 11
2606.1204558881
 21
1095.9307723195598
 31
0.0
  0
LINE
  5
10C
330
17
100
AcDbEntity
  8
Net manh
  6
ByBlock
100
AcDbLine
 10
2766.22557760961
 20
1189.946502821589
 30
0.0
 11
2766.22557760961
 21
1530.1678538534397
 31
0.0
  0
LINE
  5
10D
330
17
100
AcDbEntity
  8
Net manh
  6
ByBlock
100
AcDbLine
 10
2754.108733012339
 20
1189.946502821589
 30
0.0
 11
2754.108733012339
 21
1530.1678538534397
 31
0.0
  0
TEXT
  5
10E
330
17
100
AcDbEntity
  8
Text
100
AcDbText
 10
2705.0284301145
 20
1184.0996963487814
 30
0.0
 40
59.21052631578946
  1
mfz4
 50
90.0
  7
TEXT
100
AcDbText
  0
LINE
  5
10F
330
17
100
AcDbEntity
  8
Net manh
  6
ByBlock
100
AcDbLine
 10
2606.1204558881
 20
1095.9307723195598
 30
0.0
 11
2606.1204558881
 21
1472.4029225425402
 31
0.0
  0
LINE
  5
110
330
17
100
AcDbEntity
  8
Net manh
  6
ByBlock
100
AcDbLine
 10
2743.1330172419493
 20
1095.9307723195598
 30
0.0
 11
2743.1330172419493
 21
1472.4029225425402
 31
0.0
  0
INSERT
  5
111
330
17
100
AcDbEntity
  8
FIRE PROTECTION
100
AcDbBlockReference
  2
el GI 50-side
 10
2473.2449004584905
 20
2500.8864621653993
 30
0.0
 41
-1.0
  0
INSERT
  5
113
330
17
100
AcDbEntity
  8
FIRE PROTECTION
 62
2
100
AcDbBlockReference
  2
*U7
 10
2531.8820877783
 20
2254.158583177199
 30
0.0
 41
-1.0
  0
LINE
  5
115
330
17
100
AcDbEntity
  8
TIM
 48
50.0
100
AcDbLine
 10
2531.8820877783
 20
2441.4307723195598
 30
0.0
 11
2531.8820877783
 21
2311.158583177199
 31
0.0
  0
LINE
  5
116
330
17
100
AcDbEntity
  8
FIRE PROTECTION
100
AcDbLine
 10
2501.8820877783
 20
2441.4307723195598
 30
0.0
 11
2501.8820877783
 21
2311.158583177199
 31
0.0
  0
LINE
  5
117
330
17
100
AcDbEntity
  8
FIRE PROTECTION
100
AcDbLine
 10
2561.8820877783
 20
2441.4307723195598
 30
0.0
 11
2561.8820877783
 21
2311.158583177199
 31
0.0
  0
INSERT
  5
118
330
17
100
AcDbEntity
  8
0
100
AcDbBlockReference
  2
E-VALT CH
 10
-346048.56134889
 20
31755.515176688852
 30
0.0
  0
LINE
  5
11A
330
17
100
AcDbEntity
  8
0
100
AcDbLine
 10
2618.8527703937107
 20
2288.9158561699514
 30
0.0
 11
2588.32592916023
 21
2288.9158561699514
 31
0.0
  0
LINE
  5
11B
330
17
100
AcDbEntity
  8
0
100
AcDbLine
 10
2618.8527703937107
 20
2219.4013101808414
 30
0.0
 11
2588.3259291593004
 21
2219.4013101808414
 31
0.0
  0
LWPOLYLINE
  5
11C
330
17
100
AcDbEntity
  8
0
 62
5
100
AcDbPolyline
 90
5
 70
0
 10
2588.32592916023
 20
2288.9158561699514
 10
2590.23991337418
 20
2219.4013101808414
 10
2590.23991337418
 20
2288.9158561699514
 10
2594.2155963918194
 20
2219.4013101808414
 10
2594.2155963918194
 20
2288.9158561699514
  0
LWPOLYLINE
  5
11D
330
17
100
AcDbEntity
  8
0
 62
5
100
AcDbPolyline
 90
5
 70
0
 10
2618.8527703927793
 20
2288.9158561699514
 10
2616.938786178829
 20
2219.4013101808414
 10
2616.938786178829
 20
2288.9158561699514
 10
2612.96310316119
 20
2219.4013101808414
 10
2612.96310316119
 20
2288.9158561699514
  0
INSERT
  5
11E
330
17
100
AcDbEntity
  8
0
100
AcDbBlockReference
  2
E-VALT CH
 10
351112.3255244457
 20
31755.515176688852
 30
0.0
 41
-1.0
  0
LINE
  5
120
330
17
100
AcDbEntity
  8
0
100
AcDbLine
 10
2444.9114051628803
 20
2288.9158561699514
 30
0.0
 11
2475.4382463954407
 21
2288.9158561699514
 31
0.0
  0
LINE
  5
121
330
17
100
AcDbEntity
  8
0
100
AcDbLine
 10
2444.9114051628803
 20
2219.4013101808414
 30
0.0
 11
2475.4382463963702
 21
2219.4013101808414
 31
0.0
  0
LWPOLYLINE
  5
122
330
17
100
AcDbEntity
  8
0
 62
5
100
AcDbPolyline
 90
5
 70
0
 10
2475.4382463954407
 20
2288.9158561699514
 10
2473.524262182409
 20
2219.4013101808414
 10
2473.524262182409
 20
2288.9158561699514
 10
2469.5485791647807
 20
2219.4013101808414
 10
2469.5485791647807
 20
2288.9158561699514
  0
LWPOLYLINE
  5
123
330
17
100
AcDbEntity
  8
0
 62
5
100
AcDbPolyline
 90
5
 70
0
 10
2444.9114051628803
 20
2288.9158561699514
 10
2446.8253893768397
 20
2219.4013101808414
 10
2446.8253893768397
 20
2288.9158561699514
 10
2450.801072394479
 20
2219.4013101808414
 10
2450.801072394479
 20
2288.9158561699514
  0
LINE
  5
124
330
17
100
AcDbEntity
  8
0
 62
7
100
AcDbLine
 10
3472.70258017816
 20
1120.9307723195598
 30
0.0
 11
3487.70258017816
 21
1120.9307723195598
 31
0.0
  0
LINE
  5
125
330
17
100
AcDbEntity
  8
0
 62
7
100
AcDbLine
 10
3487.70258017816
 20
1120.9307723195598
 30
0.0
 11
3487.70258017816
 21
1095.9307723195598
 31
0.0
  0
LINE
  5
126
330
17
100
AcDbEntity
  8
0
 62
7
100
AcDbLine
 10
3487.70258017816
 20
1095.9307723195598
 30
0.0
 11
3265.70258017816
 21
1095.9307723195598
 31
0.0
  0
LINE
  5
127
330
17
100
AcDbEntity
  8
0
 62
7
100
AcDbLine
 10
3264.202580178149
 20
1094.4307723195598
 30
0.0
 11
3489.202580178149
 21
1094.4307723195598
 31
0.0
  0
LINE
  5
128
330
17
100
AcDbEntity
  8
0
 62
7
100
AcDbLine
 10
3489.202580178149
 20
1094.4307723195598
 30
0.0
 11
3489.202580178149
 21
1122.4307723195598
 31
0.0
  0
LINE
  5
129
330
17
100
AcDbEntity
  8
0
 62
7
100
AcDbLine
 10
3489.202580178149
 20
1122.4307723195598
 30
0.0
 11
3472.70258017816
 21
1122.4307723195598
 31
0.0
  0
LINE
  5
12A
330
17
100
AcDbEntity
  8
0
 62
7
100
AcDbLine
 10
3472.70258017816
 20
1122.4307723195598
 30
0.0
 11
3472.70258017816
 21
1120.9307723195598
 31
0.0
  0
LINE
  5
12B
330
17
100
AcDbEntity
  8
0
 62
7
100
AcDbLine
 10
3472.70258017816
 20
2417.9307723195598
 30
0.0
 11
3487.70258017816
 21
2417.9307723195598
 31
0.0
  0
LINE
  5
12C
330
17
100
AcDbEntity
  8
0
 62
7
100
AcDbLine
 10
3487.70258017816
 20
2417.9307723195598
 30
0.0
 11
3487.70258017816
 21
2442.9307723195598
 31
0.0
  0
LINE
  5
12D
330
17
100
AcDbEntity
  8
0
 62
7
100
AcDbLine
 10
3487.70258017816
 20
2442.9307723195598
 30
0.0
 11
3265.70258017816
 21
2442.9307723195598
 31
0.0
  0
LINE
  5
12E
330
17
100
AcDbEntity
  8
0
 62
7
100
AcDbLine
 10
3265.70258017816
 20
2442.9307723195598
 30
0.0
 11
3265.70258017816
 21
1095.9307723195598
 31
0.0
  0
LINE
  5
12F
330
17
100
AcDbEntity
  8
0
 62
7
100
AcDbLine
 10
3264.202580178149
 20
1094.4307723195598
 30
0.0
 11
3264.202580178149
 21
2444.4307723195598
 31
0.0
  0
LINE
  5
130
330
17
100
AcDbEntity
  8
0
 62
7
100
AcDbLine
 10
3264.202580178149
 20
2444.4307723195598
 30
0.0
 11
3489.202580178149
 21
2444.4307723195598
 31
0.0
  0
LINE
  5
131
330
17
100
AcDbEntity
  8
0
 62
7
100
AcDbLine
 10
3489.202580178149
 20
2444.4307723195598
 30
0.0
 11
3489.202580178149
 21
2416.4307723195598
 31
0.0
  0
LINE
  5
132
330
17
100
AcDbEntity
  8
0
 62
7
100
AcDbLine
 10
3489.202580178149
 20
2416.4307723195598
 30
0.0
 11
3472.70258017816
 21
2416.4307723195598
 31
0.0
  0
LINE
  5
133
330
17
100
AcDbEntity
  8
0
 62
7
100
AcDbLine
 10
3472.70258017816
 20
2416.4307723195598
 30
0.0
 11
3472.70258017816
 21
2417.9307723195598
 31
0.0
  0
LWPOLYLINE
  5
134
330
17
100
AcDbEntity
  8
0
 62
7
100
AcDbPolyline
 90
12
 70
1
 10
3491.70258017816
 20
2430.9307723195598
 10
3491.70258017816
 20
2442.9307723195598
 10
3513.70258017816
 20
2442.9307723195598
 10
3513.70258017816
 20
1095.9307723195598
 10
3491.70258017816
 20
1095.9307723195598
 10
3491.70258017816
 20
1107.9307723195598
 10
3490.202580178149
 20
1107.9307723195598
 10
3490.202580178149
 20
1094.4307723195598
 10
3515.20258017816
 20
1094.4307723195598
 10
3515.20258017816
 20
2444.4307723195598
 10
3490.202580178149
 20
2444.4307723195598
 10
3490.202580178149
 20
2430.9307723195598
  0
DIMENSION
  5
135
330
17
100
AcDbEntity
  8
DIM
100
AcDbDimension
280
0
  2
*D7
  3
Dim-33
 10
3515.20258017816
 20
983.4270043573415
 30
0.0
 11
3389.70258017816
 21
1015.2759129521583
 31
0.0
 70
32
 71
5
 42
251.0
 73
0
 74
0
 75
0
100
AcDbAlignedDimension
 13
3264.202580178149
 23
1094.4307723195598
 33
0.0
 14
3515.20258017816
 24
1094.4307723195598
 34
0.0
 50
0.0
100
AcDbRotatedDimension
  0
LWPOLYLINE
  5
136
330
17
100
AcDbEntity
  8
0
 62
2
100
AcDbPolyline
 90
4
 70
1
 10
2857.8820877783
 20
2311.9307723195598
 10
2869.8820877783
 20
2311.9307723195598
 10
2869.8820877783
 20
2302.9307723195598
 10
2857.8820877783
 20
2302.9307723195598
  0
LWPOLYLINE
  5
137
330
17
100
AcDbEntity
  8
0
 62
2
100
AcDbPolyline
 90
4
 70
1
 10
2857.8820877783
 20
2285.9307723195598
 10
2869.8820877783
 20
2285.9307723195598
 10
2869.8820877783
 20
2276.9307723195598
 10
2857.8820877783
 20
2276.9307723195598
  0
LWPOLYLINE
  5
138
330
17
100
AcDbEntity
  8
0
 62
2
100
AcDbPolyline
 90
4
 70
1
 10
2857.8820877783
 20
1261.9307723195598
 10
2869.8820877783
 20
1261.9307723195598
 10
2869.8820877783
 20
1252.9307723195598
 10
2857.8820877783
 20
1252.9307723195598
  0
LWPOLYLINE
  5
139
330
17
100
AcDbEntity
  8
0
 62
2
100
AcDbPolyline
 90
4
 70
1
 10
2857.8820877783
 20
1235.9307723195598
 10
2869.8820877783
 20
1235.9307723195598
 10
2869.8820877783
 20
1226.9307723195598
 10
2857.8820877783
 20
1226.9307723195598
  0
LWPOLYLINE
  5
13A
330
17
100
AcDbEntity
  8
0
 62
2
100
AcDbPolyline
 90
4
 70
1
 10
1789.4140144251305
 20
2311.9307723195598
 10
1801.4140144251305
 20
2311.9307723195598
 10
1801.4140144251305
 20
2302.9307723195598
 10
1789.4140144251305
 20
2302.9307723195598
  0
LWPOLYLINE
  5
13B
330
17
100
AcDbEntity
  8
0
 62
2
100
AcDbPolyline
 90
4
 70
1
 10
1789.4140144251305
 20
2285.9307723195598
 10
1801.4140144251305
 20
2285.9307723195598
 10
1801.4140144251305
 20
2276.9307723195598
 10
1789.4140144251305
 20
2276.9307723195598
  0
LWPOLYLINE
  5
13C
330
17
100
AcDbEntity
  8
0
 62
2
100
AcDbPolyline
 90
4
 70
1
 10
1789.4140144251305
 20
1261.9307723195598
 10
1801.4140144251305
 20
1261.9307723195598
 10
1801.4140144251305
 20
1252.9307723195598
 10
1789.4140144251305
 20
1252.9307723195598
  0
LWPOLYLINE
  5
13D
330
17
100
AcDbEntity
  8
0
 62
2
100
AcDbPolyline
 90
4
 70
1
 10
1789.4140144251305
 20
1235.9307723195598
 10
1801.4140144251305
 20
1235.9307723195598
 10
1801.4140144251305
 20
1226.9307723195598
 10
1789.4140144251305
 20
1226.9307723195598
  0
LWPOLYLINE
  5
13E
330
17
100
AcDbEntity
  8
0
  6
HIDDENX2
100
AcDbPolyline
 90
4
 70
1
 10
281.7804931774699
 20
2317.9307723195598
 10
721.7804931774699
 20
2317.9307723195598
 10
721.7804931774699
 20
1307.9307723195598
 10
281.7804931774699
 20
1307.9307723195598
  0
DIMENSION
  5
13F
330
17
100
AcDbEntity
  8
DIM
100
AcDbDimension
280
0
  2
*D8
  3
Dim-33
 10
721.7804931774699
 20
1191.8261415708803
 30
0.0
 11
501.7804931774699
 21
1223.6750501657007
 31
0.0
 70
32
 71
5
 42
440.0
 73
0
 74
0
 75
0
100
AcDbAlignedDimension
 13
281.7804931774699
 23
1307.9307723195598
 33
0.0
 14
721.7804931774699
 24
1307.9307723195598
 34
0.0
 50
0.0
100
AcDbRotatedDimension
  0
DIMENSION
  5
140
330
17
100
AcDbEntity
  8
DIM
100
AcDbDimension
280
0
  2
*D9
  3
Dim-33
 10
828.2274776352606
 20
1307.9307723195598
 30
0.0
 11
796.3785690404402
 21
1812.9307723195598
 31
0.0
 70
32
 71
5
 42
1010.0
 73
0
 74
0
 75
0
100
AcDbAlignedDimension
 13
721.7804931774699
 23
2317.9307723195598
 33
0.0
 14
721.7804931774699
 24
1307.9307723195598
 34
0.0
 50
90.0
100
AcDbRotatedDimension
  0
MTEXT
  5
141
330
17
100
AcDbEntity
  8
0
100
AcDbMText
 10
509.3578518787399
 20
1819.3223248613103
 30
0.0
 40
40.0
 41
921.6741208941094
 46
0.0
 71
5
 72
5
  1
{\fTahoma|b0|i0|c0|p34;MICA}
  0
ENDSEC
  0
SECTION
  2
OBJECTS
  0
DICTIONARY
  5
A
330
0
100
AcDbDictionary
281
1
  3
ACAD_COLOR
350
B
  3
ACAD_GROUP
350
C
  3
ACAD_LAYOUT
350
D
  3
ACAD_MATERIAL
350
E
  3
ACAD_MLEADERSTYLE
350
F
  3
ACAD_MLINESTYLE
350
10
  3
ACAD_PLOTSETTINGS
350
11
  3
ACAD_PLOTSTYLENAME
350
12
  3
ACAD_SCALELIST
350
14
  3
ACAD_TABLESTYLE
350
15
  3
ACAD_VISUALSTYLE
350
16
  3
EZDXF_META
350
2D
  0
DICTIONARY
  5
B
330
A
100
AcDbDictionary
281
1
  0
DICTIONARY
  5
C
330
A
100
AcDbDictionary
281
1
  0
DICTIONARY
  5
D
330
A
100
AcDbDictionary
281
1
  3
Model
350
1A
  3
Layout1
350
1E
  0
DICTIONARY
  5
E
330
A
100
AcDbDictionary
281
1
  3
ByBlock
350
1F
  3
ByLayer
350
20
  3
Global
350
21
  0
DICTIONARY
  5
F
330
A
100
AcDbDictionary
281
1
  3
Standard
350
2C
  0
DICTIONARY
  5
10
330
A
100
AcDbDictionary
281
1
  3
Standard
350
22
  0
DICTIONARY
  5
11
330
A
100
AcDbDictionary
281
1
  0
ACDBDICTIONARYWDFLT
  5
12
330
A
100
AcDbDictionary
281
1
  3
Normal
350
13
100
AcDbDictionaryWithDefault
340
13
  0
ACDBPLACEHOLDER
  5
13
330
12
  0
DICTIONARY
  5
14
330
A
100
AcDbDictionary
281
1
  0
DICTIONARY
  5
15
330
A
100
AcDbDictionary
281
1
  0
DICTIONARY
  5
16
330
A
100
AcDbDictionary
281
1
  0
LAYOUT
  5
1A
330
D
100
AcDbPlotSettings
  1

  4
A3
  6

 40
7.5
 41
20.0
 42
7.5
 43
20.0
 44
420.0
 45
297.0
 46
0.0
 47
0.0
 48
0.0
 49
0.0
140
0.0
141
0.0
142
1.0
143
1.0
 70
1024
 72
1
 73
0
 74
5
  7

 75
16
 76
0
 77
2
 78
300
147
1.0
148
0.0
149
0.0
100
AcDbLayout
  1
Model
 70
1
 71
0
 10
0.0
 20
0.0
 11
420.0
 21
297.0
 12
0.0
 22
0.0
 32
0.0
 14
1e+20
 24
1e+20
 34
1e+20
 15
-1e+20
 25
-1e+20
 35
-1e+20
146
0.0
 13
0.0
 23
0.0
 33
0.0
 16
1.0
 26
0.0
 36
0.0
 17
0.0
 27
1.0
 37
0.0
 76
1
330
17
  0
LAYOUT
  5
1E
330
D
100
AcDbPlotSettings
  1

  4
A3
  6

 40
7.5
 41
20.0
 42
7.5
 43
20.0
 44
420.0
 45
297.0
 46
0.0
 47
0.0
 48
0.0
 49
0.0
140
0.0
141
0.0
142
1.0
143
1.0
 70
0
 72
1
 73
0
 74
5
  7

 75
16
 76
0
 77
2
 78
300
147
1.0
148
0.0
149
0.0
100
AcDbLayout
  1
Layout1
 70
1
 71
1
 10
0.0
 20
0.0
 11
420.0
 21
297.0
 12
0.0
 22
0.0
 32
0.0
 14
1e+20
 24
1e+20
 34
1e+20
 15
-1e+20
 25
-1e+20
 35
-1e+20
146
0.0
 13
0.0
 23
0.0
 33
0.0
 16
1.0
 26
0.0
 36
0.0
 17
0.0
 27
1.0
 37
0.0
 76
1
330
1B
  0
MATERIAL
  5
1F
102
{ACAD_REACTORS
330
E
102
}
330
E
100
AcDbMaterial
  1
ByBlock
  2

 70
0
 40
1.0
 71
1
 41
1.0
 91
-1023410177
 42
1.0
 72
1
  3

 73
1
 74
1
 75
1
 44
0.5
 73
0
 45
1.0
 46
1.0
 77
1
  4

 78
1
 79
1
170
1
 48
1.0
171
1
  6

172
1
173
1
174
1
140
1.0
141
1.0
175
1
  7

176
1
177
1
178
1
143
1.0
179
1
  8

270
1
271
1
272
1
145
1.0
146
1.0
273
1
  9

274
1
275
1
276
1
 42
1.0
 72
1
  3

 73
1
 74
1
 75
1
 94
63
  0
MATERIAL
  5
20
102
{ACAD_REACTORS
330
E
102
}
330
E
100
AcDbMaterial
  1
ByLayer
  2

 70
0
 40
1.0
 71
1
 41
1.0
 91
-1023410177
 42
1.0
 72
1
  3

 73
1
 74
1
 75
1
 44
0.5
 73
0
 45
1.0
 46
1.0
 77
1
  4

 78
1
 79
1
170
1
 48
1.0
171
1
  6

172
1
173
1
174
1
140
1.0
141
1.0
175
1
  7

176
1
177
1
178
1
143
1.0
179
1
  8

270
1
271
1
272
1
145
1.0
146
1.0
273
1
  9

274
1
275
1
276
1
 42
1.0
 72
1
  3

 73
1
 74
1
 75
1
 94
63
  0
MATERIAL
  5
21
102
{ACAD_REACTORS
330
E
102
}
330
E
100
AcDbMaterial
  1
Global
  2

 70
0
 40
1.0
 71
1
 41
1.0
 91
-1023410177
 42
1.0
 72
1
  3

 73
1
 74
1
 75
1
 44
0.5
 73
0
 45
1.0
 46
1.0
 77
1
  4

 78
1
 79
1
170
1
 48
1.0
171
1
  6

172
1
173
1
174
1
140
1.0
141
1.0
175
1
  7

176
1
177
1
178
1
143
1.0
179
1
  8

270
1
271
1
272
1
145
1.0
146
1.0
273
1
  9

274
1
275
1
276
1
 42
1.0
 72
1
  3

 73
1
 74
1
 75
1
 94
63
  0
MLINESTYLE
  5
22
102
{ACAD_REACTORS
330
10
102
}
330
10
100
AcDbMlineStyle
  2
Standard
 70
0
  3

 62
256
 51
90.0
 52
90.0
 71
2
 49
0.5
 62
256
  6
BYLAYER
 49
-0.5
 62
256
  6
BYLAYER
  0
MLEADERSTYLE
  5
2C
102
{ACAD_REACTORS
330
F
102
}
330
F
100
AcDbMLeaderStyle
179
2
170
2
171
1
172
0
 90
2
 40
0.0
 41
0.0
173
1
 91
-1056964608
 92
-2
290
1
 42
2.0
291
1
 43
8.0
  3
Standard
 44
4.0
300

342
29
174
1
175
1
176
0
178
1
 93
-1056964608
 45
4.0
292
0
297
0
 46
4.0
 94
-1056964608
 47
1.0
 49
1.0
140
1.0
294
1
141
0.0
177
0
142
1.0
295
0
296
0
143
3.75
271
0
272
9
273
9
  0
DICTIONARY
  5
2D
330
A
100
AcDbDictionary
280
1
281
1
  3
CREATED_BY_EZDXF
350
2E
  3
WRITTEN_BY_EZDXF
350
254
  0
DICTIONARYVAR
  5
2E
330
2D
100
DictionaryVariables
280
0
  1
1.4.4 @ 2026-09-24T06:31:46.367162+00:00
  0
DICTIONARYVAR
  5
254
330
2D
100
DictionaryVariables
280
0
  1
1.4.4 @ 2026-09-24T06:36:49.780438+00:00
  0
ENDSEC
  0
EOF
