  0
SECTION
  2
HEADER
  9
$ACADVER
  1
AC1032
  9
$ACADMAINTVER
 90
4
  9
$DWGCODEPAGE
  3
ANSI_1252
  9
$LASTSAVEDBY
  1
ezdxf
  9
$REQUIREDVERSIONS
160
0
  9
$INSBASE
 10
0.0
 20
0.0
 30
0.0
  9
$EXTMIN
 10
1e+20
 20
1e+20
 30
1e+20
  9
$EXTMAX
 10
-1e+20
 20
-1e+20
 30
-1e+20
  9
$LIMMIN
 10
0.0
 20
0.0
  9
$LIMMAX
 10
420.0
 20
297.0
  9
$ORTHOMODE
 70
0
  9
$REGENMODE
 70
1
  9
$FILLMODE
 70
1
  9
$QTEXTMODE
 70
0
  9
$MIRRTEXT
 70
1
  9
$LTSCALE
 40
1.0
  9
$ATTMODE
 70
1
  9
$TEXTSIZE
 40
2.5
  9
$TRACEWID
 40
1.0
  9
$TEXTSTYLE
  7
Standard
  9
$CLAYER
  8
0
  9
$CELTYPE
  6
ByLayer
  9
$CECOLOR
 62
256
  9
$CELTSCALE
 40
1.0
  9
$DISPSILH
 70
0
  9
$DIMSCALE
 40
1.0
  9
$DIMASZ
 40
2.5
  9
$DIMEXO
 40
0.625
  9
$DIMDLI
 40
3.75
  9
$DIMRND
 40
0.0
  9
$DIMDLE
 40
0.0
  9
$DIMEXE
 40
1.25
  9
$DIMTP
 40
0.0
  9
$DIMTM
 40
0.0
  9
$DIMTXT
 40
2.5
  9
$DIMCEN
 40
2.5
  9
$DIMTSZ
 40
0.0
  9
$DIMTOL
 70
0
  9
$DIMLIM
 70
0
  9
$DIMTIH
 70
0
  9
$DIMTOH
 70
0
  9
$DIMSE1
 70
0
  9
$DIMSE2
 70
0
  9
$DIMTAD
 70
1
  9
$DIMZIN
 70
8
  9
$DIMBLK
  1

  9
$DIMASO
 70
1
  9
$DIMSHO
 70
1
  9
$DIMPOST
  1

  9
$DIMAPOST
  1

  9
$DIMALT
 70
0
  9
$DIMALTD
 70
3
  9
$DIMALTF
 40
0.03937007874
  9
$DIMLFAC
 40
1.0
  9
$DIMTOFL
 70
1
  9
$DIMTVP
 40
0.0
  9
$DIMTIX
 70
0
  9
$DIMSOXD
 70
0
  9
$DIMSAH
 70
0
  9
$DIMBLK1
  1

  9
$DIMBLK2
  1

  9
$DIMSTYLE
  2
ISO-25
  9
$DIMCLRD
 70
0
  9
$DIMCLRE
 70
0
  9
$DIMCLRT
 70
0
  9
$DIMTFAC
 40
1.0
  9
$DIMGAP
 40
0.625
  9
$DIMJUST
 70
0
  9
$DIMSD1
 70
0
  9
$DIMSD2
 70
0
  9
$DIMTOLJ
 70
0
  9
$DIMTZIN
 70
8
  9
$DIMALTZ
 70
0
  9
$DIMALTTZ
 70
0
  9
$DIMUPT
 70
0
  9
$DIMDEC
 70
2
  9
$DIMTDEC
 70
2
  9
$DIMALTU
 70
2
  9
$DIMALTTD
 70
3
  9
$DIMTXSTY
  7
Standard
  9
$DIMAUNIT
 70
0
  9
$DIMADEC
 70
0
  9
$DIMALTRND
 40
0.0
  9
$DIMAZIN
 70
0
  9
$DIMDSEP
 70
44
  9
$DIMATFIT
 70
3
  9
$DIMFRAC
 70
0
  9
$DIMLDRBLK
  1

  9
$DIMLUNIT
 70
2
  9
$DIMLWD
 70
-2
  9
$DIMLWE
 70
-2
  9
$DIMTMOVE
 70
0
  9
$DIMFXL
 40
1.0
  9
$DIMFXLON
 70
0
  9
$DIMJOGANG
 40
0.785398163397
  9
$DIMTFILL
 70
0
  9
$DIMTFILLCLR
 70
0
  9
$DIMARCSYM
 70
0
  9
$DIMLTYPE
  6

  9
$DIMLTEX1
  6

  9
$DIMLTEX2
  6

  9
$DIMTXTDIRECTION
 70
0
  9
$LUNITS
 70
2
  9
$LUPREC
 70
4
  9
$SKETCHINC
 40
1.0
  9
$FILLETRAD
 40
10.0
  9
$AUNITS
 70
0
  9
$AUPREC
 70
2
  9
$MENU
  1
.
  9
$ELEVATION
 40
0.0
  9
$PELEVATION
 40
0.0
  9
$THICKNESS
 40
0.0
  9
$LIMCHECK
 70
0
  9
$CHAMFERA
 40
0.0
  9
$CHAMFERB
 40
0.0
  9
$CHAMFERC
 40
0.0
  9
$CHAMFERD
 40
0.0
  9
$SKPOLY
 70
0
  9
$TDCREATE
 40
2461308.5672453702
  9
$TDUCREATE
 40
2458532.153996898
  9
$TDUPDATE
 40
2461308.5672453702
  9
$TDUUPDATE
 40
2458532.1544311
  9
$TDINDWG
 40
0.0
  9
$TDUSRTIMER
 40
0.0
  9
$USRTIMER
 70
1
  9
$ANGBASE
 50
0.0
  9
$ANGDIR
 70
0
  9
$PDMODE
 70
0
  9
$PDSIZE
 40
0.0
  9
$PLINEWID
 40
0.0
  9
$SPLFRAME
 70
0
  9
$SPLINETYPE
 70
6
  9
$SPLINESEGS
 70
8
  9
$HANDSEED
  5
338
  9
$SURFTAB1
 70
6
  9
$SURFTAB2
 70
6
  9
$SURFTYPE
 70
6
  9
$SURFU
 70
6
  9
$SURFV
 70
6
  9
$UCSBASE
  2

  9
$UCSNAME
  2

  9
$UCSORG
 10
0.0
 20
0.0
 30
0.0
  9
$UCSXDIR
 10
1.0
 20
0.0
 30
0.0
  9
$UCSYDIR
 10
0.0
 20
1.0
 30
0.0
  9
$UCSORTHOREF
  2

  9
$UCSORTHOVIEW
 70
0
  9
$UCSORGTOP
 10
0.0
 20
0.0
 30
0.0
  9
$UCSORGBOTTOM
 10
0.0
 20
0.0
 30
0.0
  9
$UCSORGLEFT
 10
0.0
 20
0.0
 30
0.0
  9
$UCSORGRIGHT
 10
0.0
 20
0.0
 30
0.0
  9
$UCSORGFRONT
 10
0.0
 20
0.0
 30
0.0
  9
$UCSORGBACK
 10
0.0
 20
0.0
 30
0.0
  9
$PUCSBASE
  2

  9
$PUCSNAME
  2

  9
$PUCSORG
 10
0.0
 20
0.0
 30
0.0
  9
$PUCSXDIR
 10
1.0
 20
0.0
 30
0.0
  9
$PUCSYDIR
 10
0.0
 20
1.0
 30
0.0
  9
$PUCSORTHOREF
  2

  9
$PUCSORTHOVIEW
 70
0
  9
$PUCSORGTOP
 10
0.0
 20
0.0
 30
0.0
  9
$PUCSORGBOTTOM
 10
0.0
 20
0.0
 30
0.0
  9
$PUCSORGLEFT
 10
0.0
 20
0.0
 30
0.0
  9
$PUCSORGRIGHT
 10
0.0
 20
0.0
 30
0.0
  9
$PUCSORGFRONT
 10
0.0
 20
0.0
 30
0.0
  9
$PUCSORGBACK
 10
0.0
 20
0.0
 30
0.0
  9
$USERI1
 70
0
  9
$USERI2
 70
0
  9
$USERI3
 70
0
  9
$USERI4
 70
0
  9
$USERI5
 70
0
  9
$USERR1
 40
0.0
  9
$USERR2
 40
0.0
  9
$USERR3
 40
0.0
  9
$USERR4
 40
0.0
  9
$USERR5
 40
0.0
  9
$WORLDVIEW
 70
1
  9
$SHADEDGE
 70
3
  9
$SHADEDIF
 70
70
  9
$TILEMODE
 70
1
  9
$MAXACTVP
 70
64
  9
$PINSBASE
 10
0.0
 20
0.0
 30
0.0
  9
$PLIMCHECK
 70
0
  9
$PEXTMIN
 10
1e+20
 20
1e+20
 30
1e+20
  9
$PEXTMAX
 10
-1e+20
 20
-1e+20
 30
-1e+20
  9
$PLIMMIN
 10
0.0
 20
0.0
  9
$PLIMMAX
 10
420.0
 20
297.0
  9
$UNITMODE
 70
0
  9
$VISRETAIN
 70
1
  9
$PLINEGEN
 70
0
  9
$PSLTSCALE
 70
1
  9
$TREEDEPTH
 70
3020
  9
$CMLSTYLE
  2
Standard
  9
$CMLJUST
 70
0
  9
$CMLSCALE
 40
20.0
  9
$PROXYGRAPHICS
 70
1
  9
$MEASUREMENT
 70
1
  9
$CELWEIGHT
370
-1
  9
$ENDCAPS
280
0
  9
$JOINSTYLE
280
0
  9
$LWDISPLAY
290
0
  9
$INSUNITS
 70
4
  9
$HYPERLINKBASE
  1

  9
$STYLESHEET
  1

  9
$XEDIT
290
1
  9
$CEPSNTYPE
380
0
  9
$PSTYLEMODE
290
1
  9
$FINGERPRINTGUID
  2
{53EF61CF-D021-469B-A849-C7AC8E8E5D7B}
  9
$VERSIONGUID
  2
{67252793-E4E1-433D-955D-B6E3E428B0D1}
  9
$EXTNAMES
290
1
  9
$PSVPSCALE
 40
0.0
  9
$OLESTARTUP
290
0
  9
$SORTENTS
280
127
  9
$INDEXCTL
280
0
  9
$HIDETEXT
280
1
  9
$XCLIPFRAME
280
1
  9
$HALOGAP
280
0
  9
$OBSCOLOR
 70
257
  9
$OBSLTYPE
280
0
  9
$INTERSECTIONDISPLAY
280
0
  9
$INTERSECTIONCOLOR
 70
257
  9
$DIMASSOC
280
2
  9
$PROJECTNAME
  1

  9
$CAMERADISPLAY
290
0
  9
$LENSLENGTH
 40
50.0
  9
$CAMERAHEIGHT
 40
0.0
  9
$STEPSPERSEC
 40
24.0
  9
$STEPSIZE
 40
100.0
  9
$3DDWFPREC
 40
2.0
  9
$PSOLWIDTH
 40
0.005
  9
$PSOLHEIGHT
 40
0.08
  9
$LOFTANG1
 40
1.570796326795
  9
$LOFTANG2
 40
1.570796326795
  9
$LOFTMAG1
 40
0.0
  9
$LOFTMAG2
 40
0.0
  9
$LOFTPARAM
 70
7
  9
$LOFTNORMALS
280
1
  9
$LATITUDE
 40
37.795
  9
$LONGITUDE
 40
-122.394
  9
$NORTHDIRECTION
 40
0.0
  9
$TIMEZONE
 70
-8000
  9
$LIGHTGLYPHDISPLAY
280
1
  9
$TILEMODELIGHTSYNCH
280
1
  9
$CMATERIAL
347
20
  9
$SOLIDHIST
280
0
  9
$SHOWHIST
280
1
  9
$DWFFRAME
280
2
  9
$DGNFRAME
280
2
  9
$REALWORLDSCALE
290
1
  9
$INTERFERECOLOR
 62
256
  9
$CSHADOW
280
0
  9
$SHADOWPLANELOCATION
 40
0.0
  0
ENDSEC
  0
SECTION
  2
CLASSES
  0
CLASS
  1
ACDBDICTIONARYWDFLT
  2
AcDbDictionaryWithDefault
  3
ObjectDBX Classes
 90
0
 91
0
280
0
281
0
  0
CLASS
  1
SUN
  2
AcDbSun
  3
SCENEOE
 90
1153
 91
0
280
0
281
0
  0
CLASS
  1
VISUALSTYLE
  2
AcDbVisualStyle
  3
ObjectDBX Classes
 90
4095
 91
0
280
0
281
0
  0
CLASS
  1
MATERIAL
  2
AcDbMaterial
  3
ObjectDBX Classes
 90
1153
 91
0
280
0
281
0
  0
CLASS
  1
SCALE
  2
AcDbScale
  3
ObjectDBX Classes
 90
1153
 91
0
280
0
281
0
  0
CLASS
  1
TABLESTYLE
  2
AcDbTableStyle
  3
ObjectDBX Classes
 90
4095
 91
0
280
0
281
0
  0
CLASS
  1
MLEADERSTYLE
  2
AcDbMLeaderStyle
  3
ACDB_MLEADERSTYLE_CLASS
 90
4095
 91
0
280
0
281
0
  0
CLASS
  1
DICTIONARYVAR
  2
AcDbDictionaryVar
  3
ObjectDBX Classes
 90
0
 91
0
280
0
281
0
  0
CLASS
  1
CELLSTYLEMAP
  2
AcDbCellStyleMap
  3
ObjectDBX Classes
 90
1152
 91
0
280
0
281
0
  0
CLASS
  1
MENTALRAYRENDERSETTINGS
  2
AcDbMentalRayRenderSettings
  3
SCENEOE
 90
1024
 91
0
280
0
281
0
  0
CLASS
  1
ACDBDETAILVIEWSTYLE
  2
AcDbDetailViewStyle
  3
ObjectDBX Classes
 90
1025
 91
0
280
0
281
0
  0
CLASS
  1
ACDBSECTIONVIEWSTYLE
  2
AcDbSectionViewStyle
  3
ObjectDBX Classes
 90
1025
 91
0
280
0
281
0
  0
CLASS
  1
RASTERVARIABLES
  2
AcDbRasterVariables
  3
ISM
 90
0
 91
0
280
0
281
0
  0
CLASS
  1
ACDBPLACEHOLDER
  2
AcDbPlaceHolder
  3
ObjectDBX Classes
 90
0
 91
0
280
0
281
0
  0
CLASS
  1
LAYOUT
  2
AcDbLayout
  3
ObjectDBX Classes
 90
0
 91
0
280
0
281
0
  0
ENDSEC
  0
SECTION
  2
TABLES
  0
TABLE
  2
VPORT
  5
8
330
0
100
AcDbSymbolTable
 70
1
  0
VPORT
  5
23
330
8
100
AcDbSymbolTableRecord
100
AcDbViewportTableRecord
  2
*Active
 70
0
 10
0.0
 20
0.0
 11
1.0
 21
1.0
 12
0.0
 22
0.0
 13
0.0
 23
0.0
 14
0.5
 24
0.5
 15
0.5
 25
0.5
 16
0.0
 26
0.0
 36
1.0
 17
0.0
 27
0.0
 37
0.0
 40
1000.0
 41
1.34
 42
50.0
 43
0.0
 44
0.0
 50
0.0
 51
0.0
 71
0
 72
1000
 73
1
 74
3
 75
0
 76
0
 77
0
 78
0
281
0
 65
0
146
0.0
  0
ENDTAB
  0
TABLE
  2
LTYPE
  5
2
330
0
100
AcDbSymbolTable
 70
5
  0
LTYPE
  5
24
330
2
100
AcDbSymbolTableRecord
100
AcDbLinetypeTableRecord
  2
ByBlock
 70
0
  3

 72
65
 73
0
 40
0.0
  0
LTYPE
  5
25
330
2
100
AcDbSymbolTableRecord
100
AcDbLinetypeTableRecord
  2
ByLayer
 70
0
  3

 72
65
 73
0
 40
0.0
  0
LTYPE
  5
26
330
2
100
AcDbSymbolTableRecord
100
AcDbLinetypeTableRecord
  2
Continuous
 70
0
  3

 72
65
 73
0
 40
0.0
  0
LTYPE
  5
248
330
2
100
AcDbSymbolTableRecord
100
AcDbLinetypeTableRecord
  2
HIDDEN
 70
0
  3
Hidden __ __ __ __ __ __ __ __ __ __ __ __ __ _
 72
65
 73
2
 40
9.524999999999997
 49
6.349999999999997
 74
0
 49
-3.174999999999998
 74
0
  0
LTYPE
  5
249
330
2
100
AcDbSymbolTableRecord
100
AcDbLinetypeTableRecord
  2
HIDDENX2
 70
0
  3
Hidden (2x) ____ ____ ____ ____ ____ ____ ____
 72
65
 73
2
 40
19.05
 49
12.7
 74
0
 49
-6.349999999999999
 74
0
  0
ENDTAB
  0
TABLE
  2
LAYER
  5
1
330
0
100
AcDbSymbolTable
 70
5
  0
LAYER
  5
27
330
1
100
AcDbSymbolTableRecord
100
AcDbLayerTableRecord
  2
0
 70
0
 62
7
  6
Continuous
370
-3
390
13
347
21
  0
LAYER
  5
28
330
1
100
AcDbSymbolTableRecord
100
AcDbLayerTableRecord
  2
Defpoints
 70
0
 62
7
  6
Continuous
290
0
370
-3
390
13
347
21
  0
LAYER
  5
245
330
1
100
AcDbSymbolTableRecord
100
AcDbLayerTableRecord
  2
Khung
 70
0
 62
7
  6
Continuous
370
-3
390
F
347
98
  0
LAYER
  5
246
330
1
100
AcDbSymbolTableRecord
100
AcDbLayerTableRecord
  2
DIM
 70
0
 62
253
  6
Continuous
370
-3
390
13
347
21
  0
LAYER
  5
247
330
1
100
AcDbSymbolTableRecord
100
AcDbLayerTableRecord
  2
BMS_TEXT
 70
0
 62
7
  6
Continuous
370
-3
390
F
347
98
  0
ENDTAB
  0
TABLE
  2
STYLE
  5
5
330
0
100
AcDbSymbolTable
 70
3
  0
STYLE
  5
29
330
5
100
AcDbSymbolTableRecord
100
AcDbTextStyleTableRecord
  2
Standard
 70
0
 40
0.0
 41
1.0
 50
0.0
 71
0
 42
2.5
  3
txt
  4

  0
STYLE
  5
24A
330
5
100
AcDbSymbolTableRecord
100
AcDbTextStyleTableRecord
  2
Tahoma (Input Text)
 70
0
 40
0.0
 41
1.0
 50
0.0
 71
0
 42
25.0
  3
tahoma.ttf
  4

  0
STYLE
  5
24B
330
5
100
AcDbSymbolTableRecord
100
AcDbTextStyleTableRecord
  2
Arial
 70
0
 40
0.0
 41
1.0
 50
0.0
 71
0
 42
0.2
  3
arial.ttf
  4

  0
ENDTAB
  0
TABLE
  2
VIEW
  5
7
330
0
100
AcDbSymbolTable
 70
0
  0
ENDTAB
  0
TABLE
  2
UCS
  5
6
330
0
100
AcDbSymbolTable
 70
0
  0
ENDTAB
  0
TABLE
  2
APPID
  5
3
330
0
100
AcDbSymbolTable
 70
3
  0
APPID
  5
2A
330
3
100
AcDbSymbolTableRecord
100
AcDbRegAppTableRecord
  2
ACAD
 70
0
  0
APPID
  5
24C
330
3
100
AcDbSymbolTableRecord
100
AcDbRegAppTableRecord
  2
HATCHBACKGROUNDCOLOR
 70
0
  0
APPID
  5
24D
330
3
100
AcDbSymbolTableRecord
100
AcDbRegAppTableRecord
  2
EZDXF
 70
0
  0
ENDTAB
  0
TABLE
  2
DIMSTYLE
  5
4
330
0
100
AcDbSymbolTable
 70
2
100
AcDbDimStyleTable
  0
DIMSTYLE
105
2B
330
4
100
AcDbSymbolTableRecord
100
AcDbDimStyleTableRecord
  2
Standard
 70
0
 40
1.0
 41
2.5
 42
0.625
 43
3.75
 44
1.25
 45
0.0
 46
0.0
 47
0.0
 48
0.0
 49
2.5
140
2.5
141
2.5
142
0.0
143
0.03937007874
144
1.0
145
0.0
146
1.0
147
0.625
148
0.0
 69
0
 70
0
 71
0
 72
0
 73
0
 74
0
 75
0
 76
0
 77
1
 78
8
 79
3
170
0
171
3
172
1
173
0
174
0
175
0
176
0
177
0
178
0
179
2
271
2
272
2
273
2
274
3
275
0
276
0
277
2
278
44
279
0
280
0
281
0
282
0
283
0
284
8
285
0
286
0
288
0
289
3
290
0
371
-2
372
-2
  0
DIMSTYLE
105
244
330
4
100
AcDbSymbolTableRecord
100
AcDbDimStyleTableRecord
  2
Dim-25
 70
0
 40
1.0
 41
8.0
 42
15.0
 43
3.75
 44
10.0
 45
0.0
 46
0.0
 47
0.0
 48
0.0
 49
2.5
140
25.0
141
10.0
142
0.0
143
0.03937007874016
144
1.0
145
0.0
146
1.0
147
10.0
148
0.0
 69
0
 70
0
 71
0
 72
0
 73
0
 74
0
 75
0
 76
0
 77
1
 78
8
 79
3
170
0
171
3
172
1
173
0
174
0
175
0
176
5
177
5
178
3
179
2
271
0
272
0
273
2
274
3
275
0
276
0
277
2
278
44
279
0
280
0
281
0
282
0
283
0
284
8
285
0
286
0
288
0
289
3
290
0
340
29
341
61
342
61
345
25
346
25
347
25
371
9
372
9
  0
ENDTAB
  0
TABLE
  2
BLOCK_RECORD
  5
9
330
0
100
AcDbSymbolTable
 70
32
  0
BLOCK_RECORD
  5
17
330
9
100
AcDbSymbolTableRecord
100
AcDbBlockTableRecord
  2
*Model_Space
340
1A
 70
0
280
1
281
0
  0
BLOCK_RECORD
  5
1B
330
9
100
AcDbSymbolTableRecord
100
AcDbBlockTableRecord
  2
*Paper_Space
340
1E
 70
0
280
1
281
0
  0
BLOCK_RECORD
  5
61
330
9
100
AcDbSymbolTableRecord
100
AcDbBlockTableRecord
  2
_Oblique
340
0
 70
0
280
1
281
0
  0
BLOCK_RECORD
  5
FD
330
9
100
AcDbSymbolTableRecord
100
AcDbBlockTableRecord
  2
khungtenAsean2
340
0
 70
0
280
1
281
0
  0
BLOCK_RECORD
  5
121
330
9
100
AcDbSymbolTableRecord
100
AcDbBlockTableRecord
  2
HL011-1-5
340
0
 70
0
280
1
281
0
  0
BLOCK_RECORD
  5
154
330
9
100
AcDbSymbolTableRecord
100
AcDbBlockTableRecord
  2
A$C72AE6952
340
0
 70
0
280
1
281
0
  0
BLOCK_RECORD
  5
15B
330
9
100
AcDbSymbolTableRecord
100
AcDbBlockTableRecord
  2
AB301-2-1
340
0
 70
0
280
1
281
0
  0
BLOCK_RECORD
  5
16E
330
9
100
AcDbSymbolTableRecord
100
AcDbBlockTableRecord
  2
A$C260D6B89
340
0
 70
0
280
1
281
0
  0
BLOCK_RECORD
  5
17B
330
9
100
AcDbSymbolTableRecord
100
AcDbBlockTableRecord
  2
HL035-1-2
340
0
 70
0
280
1
281
0
  0
BLOCK_RECORD
  5
1D8
330
9
100
AcDbSymbolTableRecord
100
AcDbBlockTableRecord
  2
HL035-1-4
340
0
 70
0
280
1
281
0
  0
BLOCK_RECORD
  5
1E7
330
9
100
AcDbSymbolTableRecord
100
AcDbBlockTableRecord
  2
A$C6473644D
340
0
 70
0
280
1
281
0
  0
BLOCK_RECORD
  5
1F7
330
9
100
AcDbSymbolTableRecord
100
AcDbBlockTableRecord
  2
ga tai lieu
340
0
 70
0
280
1
281
0
  0
BLOCK_RECORD
  5
205
330
9
100
AcDbSymbolTableRecord
100
AcDbBlockTableRecord
  2
A$C1AC1480A
340
0
 70
0
280
1
281
0
  0
BLOCK_RECORD
  5
211
330
9
100
AcDbSymbolTableRecord
100
AcDbBlockTableRecord
  2
A$C203E2ED1
340
0
 70
0
280
1
281
0
  0
BLOCK_RECORD
  5
217
330
9
100
AcDbSymbolTableRecord
100
AcDbBlockTableRecord
  2
A$C25855F30
340
0
 70
0
280
1
281
0
  0
BLOCK_RECORD
  5
22D
330
9
100
AcDbSymbolTableRecord
100
AcDbBlockTableRecord
  2
A$C69525F90
340
0
 70
0
280
1
281
0
  0
BLOCK_RECORD
  5
234
330
9
100
AcDbSymbolTableRecord
100
AcDbBlockTableRecord
  2
ecu8van
340
0
 70
0
280
1
281
0
  0
BLOCK_RECORD
  5
286
330
9
100
AcDbSymbolTableRecord
100
AcDbBlockTableRecord
  2
*D1
340
0
 70
0
280
1
281
0
  0
BLOCK_RECORD
  5
292
330
9
100
AcDbSymbolTableRecord
100
AcDbBlockTableRecord
  2
*D2
340
0
 70
0
280
1
281
0
  0
BLOCK_RECORD
  5
29E
330
9
100
AcDbSymbolTableRecord
100
AcDbBlockTableRecord
  2
*D3
340
0
 70
0
280
1
281
0
  0
BLOCK_RECORD
  5
2AA
330
9
100
AcDbSymbolTableRecord
100
AcDbBlockTableRecord
  2
*D4
340
0
 70
0
280
1
281
0
  0
BLOCK_RECORD
  5
2B6
330
9
100
AcDbSymbolTableRecord
100
AcDbBlockTableRecord
  2
*D5
340
0
 70
0
280
1
281
0
  0
BLOCK_RECORD
  5
2C2
330
9
100
AcDbSymbolTableRecord
100
AcDbBlockTableRecord
  2
*D6
340
0
 70
0
280
1
281
0
  0
BLOCK_RECORD
  5
2CE
330
9
100
AcDbSymbolTableRecord
100
AcDbBlockTableRecord
  2
*D7
340
0
 70
0
280
1
281
0
  0
BLOCK_RECORD
  5
2DA
330
9
100
AcDbSymbolTableRecord
100
AcDbBlockTableRecord
  2
*D8
340
0
 70
0
280
1
281
0
  0
BLOCK_RECORD
  5
2E6
330
9
100
AcDbSymbolTableRecord
100
AcDbBlockTableRecord
  2
*D9
340
0
 70
0
280
1
281
0
  0
BLOCK_RECORD
  5
2F0
330
9
100
AcDbSymbolTableRecord
100
AcDbBlockTableRecord
  2
*D10
340
0
 70
0
280
1
281
0
  0
BLOCK_RECORD
  5
2FC
330
9
100
AcDbSymbolTableRecord
100
AcDbBlockTableRecord
  2
*D11
340
0
 70
0
280
1
281
0
  0
BLOCK_RECORD
  5
308
330
9
100
AcDbSymbolTableRecord
100
AcDbBlockTableRecord
  2
*D12
340
0
 70
0
280
1
281
0
  0
BLOCK_RECORD
  5
314
330
9
100
AcDbSymbolTableRecord
100
AcDbBlockTableRecord
  2
*D13
340
0
 70
0
280
1
281
0
  0
BLOCK_RECORD
  5
320
330
9
100
AcDbSymbolTableRecord
100
AcDbBlockTableRecord
  2
*D14
340
0
 70
0
280
1
281
0
  0
BLOCK_RECORD
  5
32C
330
9
100
AcDbSymbolTableRecord
100
AcDbBlockTableRecord
  2
*D15
340
0
 70
0
280
1
281
0
  0
ENDTAB
  0
ENDSEC
  0
SECTION
  2
BLOCKS
  0
BLOCK
  5
18
330
17
100
AcDbEntity
  8
0
100
AcDbBlockBegin
  2
*Model_Space
 70
0
 10
0.0
 20
0.0
 30
0.0
  3
*Model_Space
  1

  0
ENDBLK
  5
19
330
17
100
AcDbEntity
  8
0
100
AcDbBlockEnd
  0
BLOCK
  5
1C
330
1B
100
AcDbEntity
  8
0
100
AcDbBlockBegin
  2
*Paper_Space
 70
0
 10
0.0
 20
0.0
 30
0.0
  3
*Paper_Space
  1

  0
ENDBLK
  5
1D
330
1B
100
AcDbEntity
  8
0
100
AcDbBlockEnd
  0
BLOCK
  5
62
330
61
100
AcDbEntity
  8
0
100
AcDbBlockBegin
  2
_Oblique
 70
0
 10
0.0
 20
0.0
 30
0.0
  3
_Oblique
  1

  0
LINE
  5
64
330
61
100
AcDbEntity
  8
0
  6
ByBlock
 62
0
370
-2
100
AcDbLine
 10
-0.5
 20
-0.5
 30
0.0
 11
0.5
 21
0.5
 31
0.0
  0
ENDBLK
  5
63
330
61
100
AcDbEntity
  8
0
100
AcDbBlockEnd
  0
BLOCK
  5
FE
330
FD
100
AcDbEntity
  8
0
100
AcDbBlockBegin
  2
khungtenAsean2
 70
2
 10
0.0
 20
0.0
 30
0.0
  3
khungtenAsean2
  1

  0
LWPOLYLINE
  5
100
330
FD
100
AcDbEntity
  8
0
 62
7
100
AcDbPolyline
 90
4
 70
1
 10
0.0
 20
0.0
 10
2970.000000000422
 20
0.0
 10
2970.000000000422
 20
-2100.00000000032
 10
0.0
 20
-2100.00000000032
  0
LINE
  5
101
330
FD
100
AcDbEntity
  8
0
 62
7
100
AcDbLine
 10
2020.0
 20
-2040.00000000032
 30
0.0
 11
0.0
 21
-2040.00000000032
 31
0.0
  0
LINE
  5
102
330
FD
100
AcDbEntity
  8
0
 62
7
100
AcDbLine
 10
2970.000000000422
 20
-1980.00000000032
 30
0.0
 11
0.0
 21
-1980.00000000032
 31
0.0
  0
LINE
  5
103
330
FD
100
AcDbEntity
  8
0
 62
7
100
AcDbLine
 10
320.0
 20
-1980.00000000032
 30
0.0
 11
320.0
 21
-2100.00000000032
 31
0.0
  0
LINE
  5
104
330
FD
100
AcDbEntity
  8
0
 62
7
100
AcDbLine
 10
890.0
 20
-1980.00000000032
 30
0.0
 11
890.0
 21
-2100.00000000032
 31
0.0
  0
LINE
  5
105
330
FD
100
AcDbEntity
  8
0
 62
7
100
AcDbLine
 10
1680.0
 20
-1980.00000000032
 30
0.0
 11
1680.0
 21
-2100.00000000032
 31
0.0
  0
LINE
  5
106
330
FD
100
AcDbEntity
  8
0
 62
7
100
AcDbLine
 10
2020.0
 20
-1980.00000000032
 30
0.0
 11
2020.0
 21
-2100.00000000032
 31
0.0
  0
LINE
  5
107
330
FD
100
AcDbEntity
  8
0
 62
7
100
AcDbLine
 10
2860.000000000422
 20
-1980.00000000032
 30
0.0
 11
2860.000000000422
 21
-2100.00000000032
 31
0.0
  0
MTEXT
  5
108
330
FD
100
AcDbEntity
  8
0
 62
2
100
AcDbMText
 10
0.0
 20
-2010.00000000032
 30
0.0
 40
20.0
 41
917.6339389950801
 46
60.00000000000113
 71
4
 72
5
  1
  Thiết kế :
  7
Arial
  0
MTEXT
  5
109
330
FD
100
AcDbEntity
  8
0
 62
2
100
AcDbMText
 10
0.0
 20
-2070.00000000032
 30
0.0
 40
20.0
 41
917.6339389950801
 46
60.00000000000113
 71
4
 72
5
  1
  CNC :
  7
Arial
  0
MTEXT
  5
10A
330
FD
100
AcDbEntity
  8
0
 62
2
100
AcDbMText
 10
320.0
 20
-2010.00000000032
 30
0.0
 40
20.0
 41
917.6339389950801
 46
60.00000000000113
 71
4
 72
5
  1
  Khách hàng :
  7
Arial
  0
MTEXT
  5
10B
330
FD
100
AcDbEntity
  8
0
 62
2
100
AcDbMText
 10
320.0
 20
-2070.00000000032
 30
0.0
 40
20.0
 41
917.6339389950801
 46
60.00000000000113
 71
4
 72
5
  1
  Giao hàng :
  7
Arial
  0
MTEXT
  5
10C
330
FD
100
AcDbEntity
  8
0
 62
2
100
AcDbMText
 10
890.0
 20
-2010.00000000032
 30
0.0
 40
20.0
 41
917.6339389950801
 46
60.00000000000113
 71
4
 72
5
  1
  Tên sản phẩm :
  7
Arial
  0
MTEXT
  5
10D
330
FD
100
AcDbEntity
  8
0
 62
2
100
AcDbMText
 10
890.0
 20
-2070.00000000032
 30
0.0
 40
20.0
 41
917.6339389950801
 46
60.00000000000113
 71
4
 72
5
  1
  Kích thước :
  7
Arial
  0
MTEXT
  5
10E
330
FD
100
AcDbEntity
  8
0
 62
2
100
AcDbMText
 10
1680.0
 20
-2010.00000000032
 30
0.0
 40
20.0
 41
917.6339389950801
 46
60.00000000000113
 71
4
 72
5
  1
  Số lượng :
  7
Arial
  0
MTEXT
  5
10F
330
FD
100
AcDbEntity
  8
0
 62
2
100
AcDbMText
 10
1680.0
 20
-2070.00000000032
 30
0.0
 40
20.0
 41
917.6339389950801
 46
60.00000000000113
 71
4
 72
5
  1
  Loại tôn :
  7
Arial
  0
MTEXT
  5
110
330
FD
100
AcDbEntity
  8
0
 62
2
100
AcDbMText
 10
2074.15528161102
 20
-2040.00000000032
 30
0.0
 40
20.0
 41
108.3105632220314
 46
120.0000000000011
 71
5
 72
5
  1
Thông\Ptin :
  7
Arial
  0
MTEXT
  5
111
330
FD
100
AcDbEntity
  8
0
 62
2
100
AcDbMText
 10
2915.000000000422
 20
-2010.00000000032
 30
0.0
 40
20.0
 41
110.0000000000065
 46
60.00000000000113
 71
5
 72
5
  1
Tờ
  7
Arial
  0
LINE
  5
112
330
FD
100
AcDbEntity
  8
0
 62
7
100
AcDbLine
 10
2128.310563222025
 20
-2005.00000000032
 30
0.0
 11
2128.310563222025
 21
-2075.00000000032
 31
0.0
  0
MTEXT
  5
113
330
FD
100
AcDbEntity
  8
0
 62
2
100
AcDbMText
 10
1382.285678836575
 20
-2070.00000000032
 30
0.0
 40
20.0
 41
917.6339389950801
 46
60.00000000000113
 71
4
 72
5
  1
mm
  7
Arial
  0
MTEXT
  5
114
330
FD
100
AcDbEntity
  8
0
 62
2
100
AcDbMText
 10
1947.610064813329
 20
-2010.00000000032
 30
0.0
 40
20.0
 41
917.6339389950801
 46
60.00000000000113
 71
4
 72
5
  1
cái
  7
Arial
  0
MTEXT
  5
115
330
FD
100
AcDbEntity
  8
0
 62
2
100
AcDbMText
 10
1936.880410494836
 20
-2070.00000000032
 30
0.0
 40
20.0
 41
917.6339389950801
 46
60.00000000000113
 71
4
 72
5
  1
mm
  7
Arial
  0
ATTDEF
  5
116
330
FD
100
AcDbEntity
  8
0
 62
1
100
AcDbText
 10
2883.764212945627
 20
-2067.347800104843
 30
0.0
 40
25.0
  1
......
  7
Tahoma (Input Text)
 72
1
 11
2914.993225705868
 21
-2067.347800104843
 31
0.0
100
AcDbAttributeDefinition
  3
Số trang
  2
#11
 70
8
 71
1
 72
0
 11
2914.993225705868
 21
-2067.347800104843
 31
0.0
  0
ATTDEF
  5
117
330
FD
100
AcDbEntity
  8
0
 62
1
100
AcDbText
 10
2146.716977487464
 20
-2021.275211692002
 30
0.0
 40
25.0
  1
......
  7
Tahoma (Input Text)
100
AcDbAttributeDefinition
  3
Thông tin 1
  2
#09
 70
8
 71
1
 72
0
  0
ATTDEF
  5
118
330
FD
100
AcDbEntity
  8
0
 62
1
100
AcDbText
 10
2146.716977487464
 20
-2081.275211692002
 30
0.0
 40
25.0
  1
......
  7
Tahoma (Input Text)
100
AcDbAttributeDefinition
  3
Thông tin 2
  2
#10
 70
8
 71
1
 72
0
  0
ATTDEF
  5
119
330
FD
100
AcDbEntity
  8
0
 62
1
100
AcDbText
 10
1817.447765733334
 20
-2081.275211692002
 30
0.0
 40
25.0
  1
......
  7
Tahoma (Input Text)
100
AcDbAttributeDefinition
  3
Loại tôn
  2
#08
 70
8
 71
1
 72
0
  0
ATTDEF
  5
11A
330
FD
100
AcDbEntity
  8
0
 62
1
100
AcDbText
 10
1834.68151032555
 20
-2021.275211692002
 30
0.0
 40
25.0
  1
......
  7
Tahoma (Input Text)
100
AcDbAttributeDefinition
  3
Số lượng
  2
#07
 70
8
 71
1
 72
0
  0
ATTDEF
  5
11B
330
FD
100
AcDbEntity
  8
0
 62
1
100
AcDbText
 10
1065.330889143646
 20
-2081.275211692002
 30
0.0
 40
25.0
  1
......
  7
Tahoma (Input Text)
100
AcDbAttributeDefinition
  3
Kích thước
  2
#06
 70
8
 71
1
 72
0
  0
ATTDEF
  5
11C
330
FD
100
AcDbEntity
  8
0
 62
1
100
AcDbText
 10
1106.628177122154
 20
-2021.275211692002
 30
0.0
 40
25.0
  1
......
  7
Tahoma (Input Text)
100
AcDbAttributeDefinition
  3
Tên s.phẩm
  2
#05
 70
8
 71
1
 72
0
  0
ATTDEF
  5
11D
330
FD
100
AcDbEntity
  8
0
 62
1
100
AcDbText
 10
486.1050270054984
 20
-2081.275211692002
 30
0.0
 40
25.0
  1
......
  7
Tahoma (Input Text)
100
AcDbAttributeDefinition
  3
Giao hàng
  2
#04
 70
8
 71
1
 72
0
  0
ATTDEF
  5
11E
330
FD
100
AcDbEntity
  8
0
 62
1
100
AcDbText
 10
506.5707489467022
 20
-2019.301600489707
 30
0.0
 40
25.0
  1
......
  7
Tahoma (Input Text)
100
AcDbAttributeDefinition
  3
Khách hàng
  2
#03
 70
8
 71
1
 72
0
  0
ATTDEF
  5
11F
330
FD
100
AcDbEntity
  8
0
 62
1
100
AcDbText
 10
98.45672450316488
 20
-2081.275211692002
 30
0.0
 40
25.0
  1
......
  7
Tahoma (Input Text)
100
AcDbAttributeDefinition
  3
CNC
  2
#02
 70
8
 71
1
 72
0
  0
ATTDEF
  5
120
330
FD
100
AcDbEntity
  8
0
 62
1
100
AcDbText
 10
137.0535078375105
 20
-2021.275211692002
 30
0.0
 40
25.0
  1
......
  7
Tahoma (Input Text)
100
AcDbAttributeDefinition
  3
Thiết kế
  2
#01
 70
8
 71
1
 72
0
  0
ENDBLK
  5
FF
330
FD
100
AcDbEntity
  8
0
100
AcDbBlockEnd
  0
BLOCK
  5
122
330
121
100
AcDbEntity
  8
0
100
AcDbBlockBegin
  2
HL011-1-5
 70
0
 10
0.0
 20
0.0
 30
0.0
  3
HL011-1-5
  1

  0
LWPOLYLINE
  5
124
330
121
100
AcDbEntity
  8
0
 62
1
100
AcDbPolyline
 90
4
 70
0
 10
24.0
 20
20.5
 10
24.0
 20
0.0
 10
0.0
 20
0.0
 10
0.0
 20
21.5
  0
LWPOLYLINE
  5
125
330
121
100
AcDbEntity
  8
0
 62
1
100
AcDbPolyline
 90
4
 70
0
 10
0.0
 20
53.5
 10
0.0
 20
75.0
 10
24.0
 20
75.0
 10
24.0
 20
54.5
  0
LINE
  5
126
330
121
100
AcDbEntity
  8
0
 62
1
100
AcDbLine
 10
8.0
 20
54.5
 30
0.0
 11
8.0
 21
53.5
 31
0.0
  0
LINE
  5
127
330
121
100
AcDbEntity
  8
0
 62
1
100
AcDbLine
 10
8.00000000001455
 20
21.5
 30
0.0
 11
8.00000000001455
 21
20.5
 31
0.0
  0
LINE
  5
128
330
121
100
AcDbEntity
  8
0
 62
1
100
AcDbLine
 10
8.0
 20
54.5
 30
0.0
 11
24.0
 21
54.5
 31
0.0
  0
LINE
  5
129
330
121
100
AcDbEntity
  8
0
 62
1
100
AcDbLine
 10
8.0
 20
20.5
 30
0.0
 11
24.0
 21
20.5
 31
0.0
  0
LWPOLYLINE
  5
12A
330
121
100
AcDbEntity
  8
0
 62
1
100
AcDbPolyline
 90
4
 70
1
 10
2.0
 20
71.0
 10
24.0
 20
71.0
 10
24.0
 20
69.0
 10
2.0
 20
69.0
  0
LWPOLYLINE
  5
12B
330
121
100
AcDbEntity
  8
0
 62
1
100
AcDbPolyline
 90
4
 70
1
 10
2.0
 20
4.0
 10
24.0
 20
4.0
 10
24.0
 20
6.0
 10
2.0
 20
6.0
  0
CIRCLE
  5
12C
330
121
100
AcDbEntity
  8
0
 62
1
100
AcDbCircle
 10
4.0
 20
12.5
 30
0.0
 40
2.0
  0
CIRCLE
  5
12D
330
121
100
AcDbEntity
  8
0
 62
1
100
AcDbCircle
 10
4.0
 20
37.5
 30
0.0
 40
2.0
  0
CIRCLE
  5
12E
330
121
100
AcDbEntity
  8
0
 62
1
100
AcDbCircle
 10
4.0
 20
62.5
 30
0.0
 40
2.0
  0
LINE
  5
12F
330
121
100
AcDbEntity
  8
0
 62
1
100
AcDbLine
 10
24.0
 20
5.0
 30
0.0
 11
2.0
 21
5.0
 31
0.0
  0
LINE
  5
130
330
121
100
AcDbEntity
  8
0
 62
1
100
AcDbLine
 10
24.0
 20
70.0
 30
0.0
 11
2.0
 21
70.0
 31
0.0
  0
LINE
  5
131
330
121
100
AcDbEntity
  8
0
 62
1
100
AcDbLine
 10
21.64999999999418
 20
78.0
 30
0.0
 11
21.64999999999418
 21
81.0
 31
0.0
  0
LINE
  5
132
330
121
100
AcDbEntity
  8
0
 62
1
100
AcDbLine
 10
21.64999999999418
 20
81.0
 30
0.0
 11
16.64999999999418
 21
81.0
 31
0.0
  0
LINE
  5
133
330
121
100
AcDbEntity
  8
0
 62
1
100
AcDbLine
 10
16.64999999999418
 20
81.0
 30
0.0
 11
16.64999999999418
 21
78.0
 31
0.0
  0
LINE
  5
134
330
121
100
AcDbEntity
  8
0
 62
1
100
AcDbLine
 10
21.64999999999418
 20
78.0
 30
0.0
 11
20.64999999999418
 21
77.99999999999272
 31
0.0
  0
LINE
  5
135
330
121
100
AcDbEntity
  8
0
 62
1
100
AcDbLine
 10
17.64999999999418
 20
77.99999999999272
 30
0.0
 11
16.64999999999418
 21
78.0
 31
0.0
  0
LINE
  5
136
330
121
100
AcDbEntity
  8
0
 62
1
100
AcDbLine
 10
17.64999999999418
 20
75.0
 30
0.0
 11
17.64999999999418
 21
78.0
 31
0.0
  0
LINE
  5
137
330
121
100
AcDbEntity
  8
0
 62
1
100
AcDbLine
 10
20.64999999999418
 20
75.0
 30
0.0
 11
20.64999999999418
 21
78.0
 31
0.0
  0
LINE
  5
138
330
121
100
AcDbEntity
  8
0
 62
1
100
AcDbLine
 10
17.64999999999418
 20
75.0
 30
0.0
 11
16.64999999999418
 21
75.0
 31
0.0
  0
LINE
  5
139
330
121
100
AcDbEntity
  8
0
 62
1
100
AcDbLine
 10
20.64999999999418
 20
75.0
 30
0.0
 11
21.64999999999418
 21
75.0
 31
0.0
  0
LINE
  5
13A
330
121
100
AcDbEntity
  8
0
 62
1
100
AcDbLine
 10
18.14999999999418
 20
44.0
 30
0.0
 11
20.14999999999418
 21
44.0
 31
0.0
  0
LINE
  5
13B
330
121
100
AcDbEntity
  8
0
 62
1
100
AcDbLine
 10
20.89999999999418
 20
46.5
 30
0.0
 11
20.14999999999418
 21
44.0
 31
0.0
  0
LINE
  5
13C
330
121
100
AcDbEntity
  8
0
 62
1
100
AcDbLine
 10
17.39999999999418
 20
46.5
 30
0.0
 11
18.14999999999418
 21
44.0
 31
0.0
  0
LINE
  5
13D
330
121
100
AcDbEntity
  8
0
 62
1
100
AcDbLine
 10
21.64999999999418
 20
21.5
 30
0.0
 11
21.64999999999418
 21
20.5
 31
0.0
  0
LINE
  5
13E
330
121
100
AcDbEntity
  8
0
 62
1
100
AcDbLine
 10
21.64999999999418
 20
-3.000000000007275
 30
0.0
 11
21.64999999999418
 21
-6.000000000007275
 31
0.0
  0
LINE
  5
13F
330
121
100
AcDbEntity
  8
0
 62
1
100
AcDbLine
 10
21.64999999999418
 20
-6.000000000007275
 30
0.0
 11
16.64999999999418
 21
-6.000000000007275
 31
0.0
  0
LINE
  5
140
330
121
100
AcDbEntity
  8
0
 62
1
100
AcDbLine
 10
16.64999999999418
 20
-6.000000000007275
 30
0.0
 11
16.64999999999418
 21
-3.000000000007275
 31
0.0
  0
LINE
  5
141
330
121
100
AcDbEntity
  8
0
 62
1
100
AcDbLine
 10
16.64999999999418
 20
20.5
 30
0.0
 11
16.64999999999418
 21
21.5
 31
0.0
  0
LINE
  5
142
330
121
100
AcDbEntity
  8
0
 62
1
100
AcDbLine
 10
21.64999999999418
 20
-3.000000000007275
 30
0.0
 11
20.64999999999418
 21
-3.0
 31
0.0
  0
LINE
  5
143
330
121
100
AcDbEntity
  8
0
 62
1
100
AcDbLine
 10
17.64999999999418
 20
-3.0
 30
0.0
 11
16.64999999999418
 21
-3.000000000007275
 31
0.0
  0
LINE
  5
144
330
121
100
AcDbEntity
  8
0
 62
1
100
AcDbLine
 10
17.64999999999418
 20
-7.276e-12
 30
0.0
 11
17.64999999999418
 21
-3.000000000007275
 31
0.0
  0
LINE
  5
145
330
121
100
AcDbEntity
  8
0
 62
1
100
AcDbLine
 10
20.64999999999418
 20
-7.276e-12
 30
0.0
 11
20.64999999999418
 21
-3.000000000007275
 31
0.0
  0
LINE
  5
146
330
121
100
AcDbEntity
  8
0
 62
1
100
AcDbLine
 10
17.64999999999418
 20
-7.276e-12
 30
0.0
 11
16.64999999999418
 21
-7.276e-12
 31
0.0
  0
LINE
  5
147
330
121
100
AcDbEntity
  8
0
 62
1
100
AcDbLine
 10
20.64999999999418
 20
-7.276e-12
 30
0.0
 11
21.64999999999418
 21
-7.276e-12
 31
0.0
  0
LINE
  5
148
330
121
100
AcDbEntity
  8
0
 62
1
100
AcDbLine
 10
18.14999999999418
 20
30.99999999999273
 30
0.0
 11
20.14999999999418
 21
30.99999999999273
 31
0.0
  0
LINE
  5
149
330
121
100
AcDbEntity
  8
0
 62
1
100
AcDbLine
 10
20.89999999999418
 20
28.5
 30
0.0
 11
20.14999999999418
 21
30.99999999999273
 31
0.0
  0
LINE
  5
14A
330
121
100
AcDbEntity
  8
0
 62
1
100
AcDbLine
 10
17.39999999999418
 20
28.5
 30
0.0
 11
18.14999999999418
 21
30.99999999999273
 31
0.0
  0
LWPOLYLINE
  5
14B
330
121
100
AcDbEntity
  8
0
 62
1
100
AcDbPolyline
 90
2
 70
0
 10
24.0
 20
42.0
 10
24.0
 20
33.0
  0
LWPOLYLINE
  5
14C
330
121
100
AcDbEntity
  8
0
 62
1
100
AcDbPolyline
 90
6
 70
0
 10
24.0
 20
28.5
 10
24.0
 20
21.5
 10
-1.0
 20
21.5
 10
-1.0
 20
53.5
 10
24.0
 20
53.5
 10
24.0
 20
46.5
  0
LINE
  5
14D
330
121
100
AcDbEntity
  8
0
 62
1
100
AcDbLine
 10
14.30000000000291
 20
53.5
 30
0.0
 11
14.30000000000291
 21
21.5
 31
0.0
  0
LINE
  5
14E
330
121
100
AcDbEntity
  8
0
 62
1
100
AcDbLine
 10
14.30000000000291
 20
46.5
 30
0.0
 11
24.0
 21
46.5
 31
0.0
  0
LINE
  5
14F
330
121
100
AcDbEntity
  8
0
 62
1
100
AcDbLine
 10
14.30000000000291
 20
28.5
 30
0.0
 11
24.0
 21
28.5
 31
0.0
  0
LINE
  5
150
330
121
100
AcDbEntity
  8
0
 62
1
100
AcDbLine
 10
24.0
 20
42.0
 30
0.0
 11
14.30000000000291
 21
42.0
 31
0.0
  0
LINE
  5
151
330
121
100
AcDbEntity
  8
0
 62
1
100
AcDbLine
 10
24.0
 20
33.0
 30
0.0
 11
14.30000000000291
 21
33.0
 31
0.0
  0
LINE
  5
152
330
121
100
AcDbEntity
  8
0
 62
1
100
AcDbLine
 10
21.64999999999418
 20
53.50000000000727
 30
0.0
 11
21.64999999999418
 21
54.50000000000727
 31
0.0
  0
LINE
  5
153
330
121
100
AcDbEntity
  8
0
 62
1
100
AcDbLine
 10
16.64999999999418
 20
54.50000000000727
 30
0.0
 11
16.64999999999418
 21
53.50000000000727
 31
0.0
  0
ENDBLK
  5
123
330
121
100
AcDbEntity
  8
0
100
AcDbBlockEnd
  0
BLOCK
  5
155
330
154
100
AcDbEntity
  8
0
100
AcDbBlockBegin
  2
A$C72AE6952
 70
0
 10
0.0
 20
0.0
 30
0.0
  3
A$C72AE6952
  1

  0
ARC
  5
157
330
154
100
AcDbEntity
  8
0
 62
2
100
AcDbCircle
 10
2.750000644680767
 20
8.249999614694389
 30
0.0
 40
2.75
100
AcDbArc
 50
0.0
 51
180.0
  0
ARC
  5
158
330
154
100
AcDbEntity
  8
0
 62
2
100
AcDbCircle
 10
2.750000644680767
 20
2.749999614694388
 30
0.0
 40
2.75
100
AcDbArc
 50
180.0
 51
0.0
  0
LINE
  5
159
330
154
100
AcDbEntity
  8
0
 62
2
100
AcDbLine
 10
5.500000644680767
 20
2.749999614694388
 30
0.0
 11
5.500000644680767
 21
8.249999614694389
 31
0.0
  0
LINE
  5
15A
330
154
100
AcDbEntity
  8
0
 62
2
100
AcDbLine
 10
6.446807674e-07
 20
8.249999614694389
 30
0.0
 11
6.446807674e-07
 21
2.749999614694388
 31
0.0
  0
ENDBLK
  5
156
330
154
100
AcDbEntity
  8
0
100
AcDbBlockEnd
  0
BLOCK
  5
15C
330
15B
100
AcDbEntity
  8
0
100
AcDbBlockBegin
  2
AB301-2-1
 70
0
 10
0.0
 20
0.0
 30
0.0
  3
AB301-2-1
  1

  0
LWPOLYLINE
  5
15E
330
15B
100
AcDbEntity
  8
0
  6
Continuous
 62
1
100
AcDbPolyline
 90
8
 70
1
 10
-1.45519e-11
 20
25.00000000000728
 10
-1.45519e-11
 20
25.00000000000728
 42
-0.4142135623730951
 10
14.99999999998545
 20
10.00000000000727
 10
14.99999999998545
 20
-80.49999999999272
 42
-0.4142135623730951
 10
-1.45519e-11
 20
-95.49999999999272
 10
-1.45519e-11
 20
-95.49999999999272
 42
-0.4142135623730951
 10
-15.00000000001455
 20
-80.49999999999272
 10
-15.00000000001455
 20
10.00000000000727
 42
-0.4142135623730951
  0
LWPOLYLINE
  5
15F
330
15B
100
AcDbEntity
  8
0
  6
Continuous
 62
1
100
AcDbPolyline
 90
6
 70
1
 10
-1.45519e-11
 20
10.00000000000727
 42
-0.4142135623730951
 10
9.999999999985448
 20
7.276e-12
 10
9.999999999985448
 20
-80.49999999999272
 42
-0.4142135623730951
 10
-1.45519e-11
 20
-90.49999999999272
 42
-0.4142135623730951
 10
-10.00000000001455
 20
-80.49999999999272
 10
-10.00000000001455
 20
7.276e-12
 42
-0.4142135623730951
  0
HATCH
  5
160
330
15B
100
AcDbEntity
  8
0
  6
Continuous
 62
1
100
AcDbHatch
 10
0.0
 20
0.0
 30
0.0
210
0.0
220
0.0
230
1.0
  2
ACAD_ISO09W100
 70
0
 71
0
 91
1
 92
7
 72
1
 73
1
 93
5
 10
-4.08737554690669
 20
-88.5183141082494
 42
0.1184039893890922
 10
-1.45519e-11
 20
-89.49999999999272
 42
0.1184039893890922
 10
4.087375546877586
 20
-88.5183141082494
 42
0.0
 10
6.999999999985446
 20
-71.99999999999272
 42
0.0
 10
-7.000000000014551
 20
-71.99999999999272
 42
0.0
 97
0
 75
1
 76
1
 52
0.0
 41
0.2
 77
0
 78
1
 53
0.0
 43
-368.0181415297993
 44
398.3813967279711
 45
0.0
 46
1.0
 79
6
 49
4.799999999999998
 49
-0.6000000000000001
 49
1.199999999999999
 49
-0.6000000000000001
 49
1.199999999999999
 49
-0.6000000000000001
 47
0.1010447066433967
 98
1
 10
-1.464316444500582
 20
-79.25328255711065
  0
LWPOLYLINE
  5
161
330
15B
100
AcDbEntity
  8
0
  6
Continuous
 62
1
100
AcDbPolyline
 90
7
 70
1
 10
8.999999999985448
 20
-72.49999999999272
 10
8.999999999985448
 20
-80.49999999999272
 42
-0.4142135623730951
 10
-1.45519e-11
 20
-89.49999999999272
 42
-0.4142135623730951
 10
-9.00000000001455
 20
-80.49999999999272
 10
-9.00000000001455
 20
-72.49999999999272
 42
-0.4142135623730951
 10
-7.000000000014551
 20
-70.49999999999272
 10
6.999999999985448
 20
-70.49999999999272
 42
-0.4142135623730951
  0
LINE
  5
162
330
15B
100
AcDbEntity
  8
0
  6
Continuous
 62
1
100
AcDbLine
 10
-10.00000000001455
 20
-50.49999999999272
 30
0.0
 11
9.999999999985448
 21
-50.49999999999272
 31
0.0
  0
LINE
  5
163
330
15B
100
AcDbEntity
  8
0
  6
Continuous
 62
1
100
AcDbLine
 10
-7.000000000014551
 20
-71.99999999999272
 30
0.0
 11
6.999999999985448
 21
-71.99999999999272
 31
0.0
  0
LINE
  5
164
330
15B
100
AcDbEntity
  8
0
  6
Continuous
 62
1
100
AcDbLine
 10
-7.000000000014551
 20
-71.99999999999272
 30
0.0
 11
-4.087375546907423
 21
-88.51831410824525
 31
0.0
  0
LINE
  5
165
330
15B
100
AcDbEntity
  8
0
  6
Continuous
 62
1
100
AcDbLine
 10
6.999999999985448
 20
-71.99999999999272
 30
0.0
 11
4.08737554687832
 21
-88.51831410824525
 31
0.0
  0
CIRCLE
  5
166
330
15B
100
AcDbEntity
  8
0
  6
Continuous
 62
1
100
AcDbCircle
 10
-1.45519e-11
 20
-60.49999999999272
 30
0.0
 40
8.0
  0
LWPOLYLINE
  5
167
330
15B
100
AcDbEntity
  8
0
  6
Continuous
 62
1
100
AcDbPolyline
 90
4
 70
1
 10
-1.000000000014551
 20
-55.49999999999272
 10
0.999999999985448
 20
-55.49999999999272
 10
0.999999999985448
 20
-65.49999999999272
 10
-1.000000000014551
 20
-65.49999999999272
  0
LWPOLYLINE
  5
168
330
15B
100
AcDbEntity
  8
0
  6
Continuous
 62
1
100
AcDbPolyline
 90
8
 70
0
 10
-15.00000000001455
 20
-12.49999999999272
 10
-57.50000000001455
 20
-12.49999999999272
 42
-0.4142135623730951
 10
-65.00000000001455
 20
-4.999999999992724
 10
-65.00000000001455
 20
5.000000000007275
 42
-0.4142135623730951
 10
-57.50000000001455
 20
12.50000000000727
 10
-30.73832970146032
 20
12.50000000000727
 42
0.4142135623730951
 10
-24.73832970146032
 20
18.50000000000727
 10
-24.73832970146032
 20
18.73832970144576
  0
LWPOLYLINE
  5
169
330
15B
100
AcDbEntity
  8
0
  6
Continuous
 62
1
100
AcDbPolyline
 90
5
 70
0
 10
-24.73832970146032
 20
18.73832970144576
 42
-0.1989123673796609
 10
-22.98097038858395
 20
22.98097038856941
 10
-22.98097038858395
 20
22.98097038856941
 42
-0.4142135623730951
 10
-14.49568901433667
 20
22.98097038856941
 10
-11.33688703729422
 20
19.82216841151967
  0
LWPOLYLINE
  5
16A
330
15B
100
AcDbEntity
  8
0
  6
Continuous
 62
1
100
AcDbPolyline
 90
5
 70
0
 10
14.99999999998545
 20
-6.51471862575272
 10
22.98097038855485
 20
-14.49568901431485
 42
-0.4142135623730951
 10
22.98097038855485
 20
-22.98097038855485
 10
22.98097038855485
 20
-22.98097038855485
 42
-0.381560762960909
 10
14.99999999998545
 20
-23.43139810529828
 42
-0.381560762960909
  0
LWPOLYLINE
  5
16B
330
15B
100
AcDbEntity
  8
0
  6
Continuous
 62
2
100
AcDbPolyline
 90
4
 70
1
 10
-12.00000000001455
 20
13.25000000000727
 10
11.99999999998545
 20
13.25000000000727
 10
11.99999999998545
 20
-83.74999999999272
 10
-12.00000000001455
 20
-83.74999999999272
  0
CIRCLE
  5
16C
330
15B
100
AcDbEntity
  8
0
  6
Continuous
 62
1
100
AcDbCircle
 10
-18.73832970146031
 20
18.73832970144576
 30
0.0
 40
2.5
  0
CIRCLE
  5
16D
330
15B
100
AcDbEntity
  8
0
  6
Continuous
 62
1
100
AcDbCircle
 10
18.73832970143121
 20
-18.73832970143121
 30
0.0
 40
2.5
  0
ENDBLK
  5
15D
330
15B
100
AcDbEntity
  8
0
100
AcDbBlockEnd
  0
BLOCK
  5
16F
330
16E
100
AcDbEntity
  8
0
100
AcDbBlockBegin
  2
A$C260D6B89
 70
0
 10
0.0
 20
0.0
 30
0.0
  3
A$C260D6B89
  1

  0
LWPOLYLINE
  5
171
330
16E
100
AcDbEntity
  8
0
 62
2
100
AcDbPolyline
 90
4
 70
0
 10
2.999992439217749
 20
1.2570890249e-06
 10
2.999992439217749
 20
12.00000125708902
 10
6.999992439217749
 20
12.00000125708902
 10
6.999992439217749
 20
1.2570890249e-06
  0
CIRCLE
  5
172
330
16E
100
AcDbEntity
  8
0
 62
1
100
AcDbCircle
 10
20.14999243921193
 20
13.15000125709048
 30
0.0
 40
2.5
  0
ARC
  5
173
330
16E
100
AcDbEntity
  8
0
 62
1
100
AcDbCircle
 10
20.14999243921193
 20
13.15000125709048
 30
0.0
 40
4.849999999999999
100
AcDbArc
 50
239.9367743580237
 51
90.0
  0
LINE
  5
174
330
16E
100
AcDbEntity
  8
0
 62
1
100
AcDbLine
 10
8.999992439217749
 20
1.2570890249e-06
 30
0.0
 11
0.999992439217749
 21
1.2570890249e-06
 31
0.0
  0
LINE
  5
175
330
16E
100
AcDbEntity
  8
0
 62
1
100
AcDbLine
 10
0.999992439217749
 20
1.2570890249e-06
 30
0.0
 11
0.999992439217749
 21
13.00000125708902
 31
0.0
  0
LINE
  5
176
330
16E
100
AcDbEntity
  8
0
 62
1
100
AcDbLine
 10
20.14999243921193
 20
18.00000125708902
 30
0.0
 11
3.999992439217749
 21
18.00000125708902
 31
0.0
  0
LINE
  5
177
330
16E
100
AcDbEntity
  8
0
 62
1
100
AcDbLine
 10
3.999992439217749
 20
18.00000125708902
 30
0.0
 11
0.999992439217749
 21
13.00000125708902
 31
0.0
  0
LINE
  5
178
330
16E
100
AcDbEntity
  8
0
 62
1
100
AcDbLine
 10
8.999992439217749
 20
14.00000125708902
 30
0.0
 11
8.999992439217749
 21
1.2570890249e-06
 31
0.0
  0
LINE
  5
179
330
16E
100
AcDbEntity
  8
0
 62
1
100
AcDbLine
 10
8.999992439217749
 20
14.00000125708902
 30
0.0
 11
17.72035898867762
 21
8.952456582395826
 31
0.0
  0
LWPOLYLINE
  5
17A
330
16E
100
AcDbEntity
  8
0
 62
1
100
AcDbPolyline
 90
4
 70
0
 10
2.799992439220659
 20
16.00000125708902
 10
7.9022574937e-06
 20
16.00000125708902
 10
7.9022574937e-06
 20
18.00000125708902
 10
3.999992439217749
 20
18.00000125708902
  0
ENDBLK
  5
170
330
16E
100
AcDbEntity
  8
0
100
AcDbBlockEnd
  0
BLOCK
  5
17C
330
17B
100
AcDbEntity
  8
0
100
AcDbBlockBegin
  2
HL035-1-2
 70
0
 10
0.0
 20
0.0
 30
0.0
  3
HL035-1-2
  1

  0
LINE
  5
17E
330
17B
100
AcDbEntity
  8
0
 62
1
100
AcDbLine
 10
-4.5
 20
79.0
 30
0.0
 11
18.5
 21
79.0
 31
0.0
  0
LINE
  5
17F
330
17B
100
AcDbEntity
  8
0
 62
1
100
AcDbLine
 10
18.5
 20
79.0
 30
0.0
 11
18.5
 21
17.0
 31
0.0
  0
LINE
  5
180
330
17B
100
AcDbEntity
  8
0
 62
1
100
AcDbLine
 10
18.5
 20
17.0
 30
0.0
 11
-4.5
 21
17.0
 31
0.0
  0
LINE
  5
181
330
17B
100
AcDbEntity
  8
0
 62
1
100
AcDbLine
 10
-4.5
 20
17.0
 30
0.0
 11
-4.5
 21
31.00000000000728
 31
0.0
  0
LINE
  5
182
330
17B
100
AcDbEntity
  8
0
 62
1
100
AcDbLine
 10
-4.5
 20
65.0
 30
0.0
 11
-4.5
 21
79.0
 31
0.0
  0
LINE
  5
183
330
17B
100
AcDbEntity
  8
0
 62
1
100
AcDbLine
 10
4.5
 20
17.0
 30
0.0
 11
4.5
 21
31.00000000000728
 31
0.0
  0
LINE
  5
184
330
17B
100
AcDbEntity
  8
0
 62
1
100
AcDbLine
 10
4.5
 20
65.0
 30
0.0
 11
4.5
 21
79.0
 31
0.0
  0
LINE
  5
185
330
17B
100
AcDbEntity
  8
0
 62
1
100
AcDbLine
 10
-4.5
 20
65.0
 30
0.0
 11
4.5
 21
65.0
 31
0.0
  0
LINE
  5
186
330
17B
100
AcDbEntity
  8
0
 62
1
100
AcDbLine
 10
-4.5
 20
31.00000000000728
 30
0.0
 11
4.5
 21
31.00000000000728
 31
0.0
  0
LINE
  5
187
330
17B
100
AcDbEntity
  8
0
 62
1
100
AcDbLine
 10
4.5
 20
65.0
 30
0.0
 11
4.5
 21
31.00000000000728
 31
0.0
  0
LWPOLYLINE
  5
188
330
17B
100
AcDbEntity
  8
0
 62
1
100
AcDbPolyline
 90
2
 70
0
 10
2.0
 20
0.0
 10
-1.999999999985448
 20
0.0
  0
LWPOLYLINE
  5
189
330
17B
100
AcDbEntity
  8
0
 62
1
100
AcDbPolyline
 90
2
 70
0
 10
-3.0
 20
3.000000000087311
 10
-3.0
 20
17.0
  0
LWPOLYLINE
  5
18A
330
17B
100
AcDbEntity
  8
0
 62
1
100
AcDbPolyline
 90
2
 70
0
 10
-3.0
 20
32.50000000000728
 10
-3.0
 20
65.0
  0
LWPOLYLINE
  5
18B
330
17B
100
AcDbEntity
  8
0
 62
1
100
AcDbPolyline
 90
2
 70
0
 10
3.0
 20
65.0
 10
3.0
 20
32.50000000000728
  0
LWPOLYLINE
  5
18C
330
17B
100
AcDbEntity
  8
0
 62
1
100
AcDbPolyline
 90
2
 70
0
 10
3.0
 20
17.0
 10
3.0
 20
3.0
  0
LINE
  5
18D
330
17B
100
AcDbEntity
  8
0
 62
1
100
AcDbLine
 10
3.0
 20
3.0
 30
0.0
 11
2.0
 21
0.0
 31
0.0
  0
LINE
  5
18E
330
17B
100
AcDbEntity
  8
0
 62
1
100
AcDbLine
 10
-2.999999999985448
 20
3.0
 30
0.0
 11
-1.999999999985448
 21
0.0
 31
0.0
  0
LINE
  5
18F
330
17B
100
AcDbEntity
  8
0
 62
1
100
AcDbLine
 10
-3.0
 20
79.0
 30
0.0
 11
-3.0
 21
78.99999999999272
 31
0.0
  0
LINE
  5
190
330
17B
100
AcDbEntity
  8
0
 62
1
100
AcDbLine
 10
3.0
 20
79.0
 30
0.0
 11
3.0
 21
79.99999999999272
 31
0.0
  0
LINE
  5
191
330
17B
100
AcDbEntity
  8
0
 62
1
100
AcDbLine
 10
-3.0
 20
79.0
 30
0.0
 11
-3.0
 21
79.99999999999272
 31
0.0
  0
LINE
  5
192
330
17B
100
AcDbEntity
  8
0
 62
1
100
AcDbLine
 10
5.000000000014551
 20
81.99999999999272
 30
0.0
 11
17.00000000001455
 21
82.0
 31
0.0
  0
ARC
  5
193
330
17B
100
AcDbEntity
  8
0
 62
1
100
AcDbCircle
 10
5.000000000014551
 20
79.99999999999272
 30
0.0
 40
2.0
100
AcDbArc
 50
90.0
 51
180.0
  0
ARC
  5
194
330
17B
100
AcDbEntity
  8
0
 62
1
100
AcDbCircle
 10
5.000000000014551
 20
79.99999999999272
 30
0.0
 40
8.000000000000002
100
AcDbArc
 50
90.0
 51
180.0
  0
LINE
  5
195
330
17B
100
AcDbEntity
  8
0
 62
1
100
AcDbLine
 10
5.000000000014551
 20
88.0
 30
0.0
 11
17.00000000001455
 21
88.0
 31
0.0
  0
LINE
  5
196
330
17B
100
AcDbEntity
  8
0
 62
1
100
AcDbLine
 10
17.00000000001455
 20
88.0
 30
0.0
 11
17.00000000001455
 21
82.0
 31
0.0
  0
LWPOLYLINE
  5
197
330
17B
100
AcDbEntity
  8
0
 62
1
100
AcDbPolyline
 90
4
 70
1
 10
-4.0
 20
32.50000000000728
 10
4.0
 20
32.50000000000728
 10
4.0
 20
31.00000000000728
 10
-4.0
 20
31.00000000000728
  0
LINE
  5
198
330
17B
100
AcDbEntity
  8
0
 62
1
100
AcDbLine
 10
4.0
 20
34.00000000000728
 30
0.0
 11
-4.0
 21
32.50000000000728
 31
0.0
  0
LINE
  5
199
330
17B
100
AcDbEntity
  8
0
 62
1
100
AcDbLine
 10
4.0
 20
35.50000000000728
 30
0.0
 11
-4.0
 21
34.00000000000728
 31
0.0
  0
LINE
  5
19A
330
17B
100
AcDbEntity
  8
0
 62
1
100
AcDbLine
 10
4.0
 20
37.00000000000728
 30
0.0
 11
-4.0
 21
35.50000000000728
 31
0.0
  0
LINE
  5
19B
330
17B
100
AcDbEntity
  8
0
 62
1
100
AcDbLine
 10
4.0
 20
38.50000000000728
 30
0.0
 11
-4.0
 21
37.00000000000728
 31
0.0
  0
LINE
  5
19C
330
17B
100
AcDbEntity
  8
0
 62
1
100
AcDbLine
 10
4.0
 20
40.00000000000727
 30
0.0
 11
-4.0
 21
38.50000000000728
 31
0.0
  0
LINE
  5
19D
330
17B
100
AcDbEntity
  8
0
 62
1
100
AcDbLine
 10
4.0
 20
41.50000000000727
 30
0.0
 11
-4.0
 21
40.00000000000727
 31
0.0
  0
LINE
  5
19E
330
17B
100
AcDbEntity
  8
0
 62
1
100
AcDbLine
 10
4.0
 20
43.00000000000728
 30
0.0
 11
-4.0
 21
41.50000000000727
 31
0.0
  0
LINE
  5
19F
330
17B
100
AcDbEntity
  8
0
 62
1
100
AcDbLine
 10
4.0
 20
44.50000000000727
 30
0.0
 11
-4.0
 21
43.00000000000728
 31
0.0
  0
LINE
  5
1A0
330
17B
100
AcDbEntity
  8
0
 62
1
100
AcDbLine
 10
4.0
 20
46.00000000000727
 30
0.0
 11
-4.0
 21
44.50000000000727
 31
0.0
  0
LINE
  5
1A1
330
17B
100
AcDbEntity
  8
0
 62
1
100
AcDbLine
 10
4.0
 20
47.50000000000727
 30
0.0
 11
-4.0
 21
46.00000000000727
 31
0.0
  0
LINE
  5
1A2
330
17B
100
AcDbEntity
  8
0
 62
1
100
AcDbLine
 10
4.0
 20
49.00000000000727
 30
0.0
 11
-4.0
 21
47.50000000000727
 31
0.0
  0
LINE
  5
1A3
330
17B
100
AcDbEntity
  8
0
 62
1
100
AcDbLine
 10
4.0
 20
50.50000000000728
 30
0.0
 11
-4.0
 21
49.00000000000727
 31
0.0
  0
LINE
  5
1A4
330
17B
100
AcDbEntity
  8
0
 62
1
100
AcDbLine
 10
4.0
 20
52.00000000000727
 30
0.0
 11
-4.0
 21
50.50000000000728
 31
0.0
  0
LINE
  5
1A5
330
17B
100
AcDbEntity
  8
0
 62
1
100
AcDbLine
 10
4.0
 20
53.50000000000727
 30
0.0
 11
-4.0
 21
52.00000000000727
 31
0.0
  0
LINE
  5
1A6
330
17B
100
AcDbEntity
  8
0
 62
1
100
AcDbLine
 10
4.0
 20
55.00000000000728
 30
0.0
 11
-4.0
 21
53.50000000000727
 31
0.0
  0
LINE
  5
1A7
330
17B
100
AcDbEntity
  8
0
 62
1
100
AcDbLine
 10
4.0
 20
56.50000000000727
 30
0.0
 11
-4.0
 21
55.00000000000728
 31
0.0
  0
LINE
  5
1A8
330
17B
100
AcDbEntity
  8
0
 62
1
100
AcDbLine
 10
4.0
 20
58.00000000000728
 30
0.0
 11
-4.0
 21
56.50000000000727
 31
0.0
  0
LINE
  5
1A9
330
17B
100
AcDbEntity
  8
0
 62
1
100
AcDbLine
 10
4.0
 20
59.50000000000727
 30
0.0
 11
-4.0
 21
58.00000000000728
 31
0.0
  0
LINE
  5
1AA
330
17B
100
AcDbEntity
  8
0
 62
1
100
AcDbLine
 10
4.0
 20
61.00000000000727
 30
0.0
 11
-4.0
 21
59.50000000000727
 31
0.0
  0
LINE
  5
1AB
330
17B
100
AcDbEntity
  8
0
 62
1
100
AcDbLine
 10
4.0
 20
62.50000000000728
 30
0.0
 11
-4.0
 21
61.00000000000727
 31
0.0
  0
LINE
  5
1AC
330
17B
100
AcDbEntity
  8
0
 62
1
100
AcDbLine
 10
4.0
 20
64.00000000000728
 30
0.0
 11
-4.0
 21
62.50000000000728
 31
0.0
  0
LINE
  5
1AD
330
17B
100
AcDbEntity
  8
0
 62
1
100
AcDbLine
 10
1.33333333331393
 20
65.0
 30
0.0
 11
-4.0
 21
64.00000000000728
 31
0.0
  0
LINE
  5
1AE
330
17B
100
AcDbEntity
  8
0
 62
1
100
AcDbLine
 10
-4.0
 20
34.00000000000728
 30
0.0
 11
-3.0
 21
34.00000000000728
 31
0.0
  0
LINE
  5
1AF
330
17B
100
AcDbEntity
  8
0
 62
1
100
AcDbLine
 10
3.0
 20
34.00000000000728
 30
0.0
 11
4.0
 21
34.00000000000728
 31
0.0
  0
LINE
  5
1B0
330
17B
100
AcDbEntity
  8
0
 62
1
100
AcDbLine
 10
-4.0
 20
35.50000000000728
 30
0.0
 11
-3.0
 21
35.50000000000728
 31
0.0
  0
LINE
  5
1B1
330
17B
100
AcDbEntity
  8
0
 62
1
100
AcDbLine
 10
3.0
 20
35.50000000000728
 30
0.0
 11
4.0
 21
35.50000000000728
 31
0.0
  0
LINE
  5
1B2
330
17B
100
AcDbEntity
  8
0
 62
1
100
AcDbLine
 10
-4.0
 20
37.00000000000728
 30
0.0
 11
-3.0
 21
37.00000000000728
 31
0.0
  0
LINE
  5
1B3
330
17B
100
AcDbEntity
  8
0
 62
1
100
AcDbLine
 10
3.0
 20
37.00000000000728
 30
0.0
 11
4.0
 21
37.00000000000728
 31
0.0
  0
LINE
  5
1B4
330
17B
100
AcDbEntity
  8
0
 62
1
100
AcDbLine
 10
-4.0
 20
38.50000000000728
 30
0.0
 11
-3.0
 21
38.50000000000728
 31
0.0
  0
LINE
  5
1B5
330
17B
100
AcDbEntity
  8
0
 62
1
100
AcDbLine
 10
3.0
 20
38.50000000000728
 30
0.0
 11
4.0
 21
38.50000000000728
 31
0.0
  0
LINE
  5
1B6
330
17B
100
AcDbEntity
  8
0
 62
1
100
AcDbLine
 10
-4.0
 20
40.00000000000727
 30
0.0
 11
-3.0
 21
40.00000000000727
 31
0.0
  0
LINE
  5
1B7
330
17B
100
AcDbEntity
  8
0
 62
1
100
AcDbLine
 10
3.0
 20
40.00000000000727
 30
0.0
 11
4.0
 21
40.00000000000727
 31
0.0
  0
LINE
  5
1B8
330
17B
100
AcDbEntity
  8
0
 62
1
100
AcDbLine
 10
-4.0
 20
41.50000000000727
 30
0.0
 11
-3.0
 21
41.50000000000727
 31
0.0
  0
LINE
  5
1B9
330
17B
100
AcDbEntity
  8
0
 62
1
100
AcDbLine
 10
3.0
 20
41.50000000000727
 30
0.0
 11
4.0
 21
41.50000000000727
 31
0.0
  0
LINE
  5
1BA
330
17B
100
AcDbEntity
  8
0
 62
1
100
AcDbLine
 10
-4.0
 20
43.00000000000728
 30
0.0
 11
-3.0
 21
43.00000000000728
 31
0.0
  0
LINE
  5
1BB
330
17B
100
AcDbEntity
  8
0
 62
1
100
AcDbLine
 10
3.0
 20
43.00000000000728
 30
0.0
 11
4.0
 21
43.00000000000728
 31
0.0
  0
LINE
  5
1BC
330
17B
100
AcDbEntity
  8
0
 62
1
100
AcDbLine
 10
-4.0
 20
44.50000000000727
 30
0.0
 11
-3.0
 21
44.50000000000727
 31
0.0
  0
LINE
  5
1BD
330
17B
100
AcDbEntity
  8
0
 62
1
100
AcDbLine
 10
3.0
 20
44.50000000000727
 30
0.0
 11
4.0
 21
44.50000000000727
 31
0.0
  0
LINE
  5
1BE
330
17B
100
AcDbEntity
  8
0
 62
1
100
AcDbLine
 10
-4.0
 20
46.00000000000727
 30
0.0
 11
-3.0
 21
46.00000000000727
 31
0.0
  0
LINE
  5
1BF
330
17B
100
AcDbEntity
  8
0
 62
1
100
AcDbLine
 10
3.0
 20
46.00000000000727
 30
0.0
 11
4.0
 21
46.00000000000727
 31
0.0
  0
LINE
  5
1C0
330
17B
100
AcDbEntity
  8
0
 62
1
100
AcDbLine
 10
-4.0
 20
47.50000000000727
 30
0.0
 11
-3.0
 21
47.50000000000727
 31
0.0
  0
LINE
  5
1C1
330
17B
100
AcDbEntity
  8
0
 62
1
100
AcDbLine
 10
3.0
 20
47.50000000000727
 30
0.0
 11
4.0
 21
47.50000000000727
 31
0.0
  0
LINE
  5
1C2
330
17B
100
AcDbEntity
  8
0
 62
1
100
AcDbLine
 10
-4.0
 20
49.00000000000727
 30
0.0
 11
-3.0
 21
49.00000000000727
 31
0.0
  0
LINE
  5
1C3
330
17B
100
AcDbEntity
  8
0
 62
1
100
AcDbLine
 10
3.0
 20
49.00000000000727
 30
0.0
 11
4.0
 21
49.00000000000727
 31
0.0
  0
LINE
  5
1C4
330
17B
100
AcDbEntity
  8
0
 62
1
100
AcDbLine
 10
-4.0
 20
50.50000000000728
 30
0.0
 11
-3.0
 21
50.50000000000728
 31
0.0
  0
LINE
  5
1C5
330
17B
100
AcDbEntity
  8
0
 62
1
100
AcDbLine
 10
3.0
 20
50.50000000000728
 30
0.0
 11
4.0
 21
50.50000000000728
 31
0.0
  0
LINE
  5
1C6
330
17B
100
AcDbEntity
  8
0
 62
1
100
AcDbLine
 10
-4.0
 20
52.00000000000727
 30
0.0
 11
-3.0
 21
52.00000000000727
 31
0.0
  0
LINE
  5
1C7
330
17B
100
AcDbEntity
  8
0
 62
1
100
AcDbLine
 10
3.0
 20
52.00000000000727
 30
0.0
 11
4.0
 21
52.00000000000727
 31
0.0
  0
LINE
  5
1C8
330
17B
100
AcDbEntity
  8
0
 62
1
100
AcDbLine
 10
-4.0
 20
53.50000000000727
 30
0.0
 11
-3.0
 21
53.50000000000727
 31
0.0
  0
LINE
  5
1C9
330
17B
100
AcDbEntity
  8
0
 62
1
100
AcDbLine
 10
3.0
 20
53.50000000000727
 30
0.0
 11
4.0
 21
53.50000000000727
 31
0.0
  0
LINE
  5
1CA
330
17B
100
AcDbEntity
  8
0
 62
1
100
AcDbLine
 10
-4.0
 20
55.00000000000728
 30
0.0
 11
-3.0
 21
55.00000000000728
 31
0.0
  0
LINE
  5
1CB
330
17B
100
AcDbEntity
  8
0
 62
1
100
AcDbLine
 10
3.0
 20
55.00000000000728
 30
0.0
 11
4.0
 21
55.00000000000728
 31
0.0
  0
LINE
  5
1CC
330
17B
100
AcDbEntity
  8
0
 62
1
100
AcDbLine
 10
-4.0
 20
56.50000000000727
 30
0.0
 11
-3.0
 21
56.50000000000727
 31
0.0
  0
LINE
  5
1CD
330
17B
100
AcDbEntity
  8
0
 62
1
100
AcDbLine
 10
3.0
 20
56.50000000000727
 30
0.0
 11
4.0
 21
56.50000000000727
 31
0.0
  0
LINE
  5
1CE
330
17B
100
AcDbEntity
  8
0
 62
1
100
AcDbLine
 10
-4.0
 20
58.00000000000728
 30
0.0
 11
-3.0
 21
58.00000000000728
 31
0.0
  0
LINE
  5
1CF
330
17B
100
AcDbEntity
  8
0
 62
1
100
AcDbLine
 10
3.0
 20
58.00000000000728
 30
0.0
 11
4.0
 21
58.00000000000728
 31
0.0
  0
LINE
  5
1D0
330
17B
100
AcDbEntity
  8
0
 62
1
100
AcDbLine
 10
-4.0
 20
59.50000000000727
 30
0.0
 11
-3.0
 21
59.50000000000727
 31
0.0
  0
LINE
  5
1D1
330
17B
100
AcDbEntity
  8
0
 62
1
100
AcDbLine
 10
3.0
 20
59.50000000000727
 30
0.0
 11
4.0
 21
59.50000000000727
 31
0.0
  0
LINE
  5
1D2
330
17B
100
AcDbEntity
  8
0
 62
1
100
AcDbLine
 10
-4.0
 20
62.50000000000728
 30
0.0
 11
-3.0
 21
62.50000000000728
 31
0.0
  0
LINE
  5
1D3
330
17B
100
AcDbEntity
  8
0
 62
1
100
AcDbLine
 10
3.0
 20
62.50000000000728
 30
0.0
 11
4.0
 21
62.50000000000728
 31
0.0
  0
LINE
  5
1D4
330
17B
100
AcDbEntity
  8
0
 62
1
100
AcDbLine
 10
-4.0
 20
61.00000000000727
 30
0.0
 11
-3.0
 21
61.00000000000727
 31
0.0
  0
LINE
  5
1D5
330
17B
100
AcDbEntity
  8
0
 62
1
100
AcDbLine
 10
3.0
 20
61.00000000000727
 30
0.0
 11
4.0
 21
61.00000000000727
 31
0.0
  0
LINE
  5
1D6
330
17B
100
AcDbEntity
  8
0
 62
1
100
AcDbLine
 10
-4.0
 20
64.00000000000728
 30
0.0
 11
-3.0
 21
64.00000000000728
 31
0.0
  0
LINE
  5
1D7
330
17B
100
AcDbEntity
  8
0
 62
1
100
AcDbLine
 10
3.0
 20
64.00000000000728
 30
0.0
 11
4.0
 21
64.00000000000728
 31
0.0
  0
ENDBLK
  5
17D
330
17B
100
AcDbEntity
  8
0
100
AcDbBlockEnd
  0
BLOCK
  5
1D9
330
1D8
100
AcDbEntity
  8
0
100
AcDbBlockBegin
  2
HL035-1-4
 70
0
 10
0.0
 20
0.0
 30
0.0
  3
HL035-1-4
  1

  0
LINE
  5
1DB
330
1D8
100
AcDbEntity
  8
0
 62
1
100
AcDbLine
 10
0.0
 20
4.5
 30
0.0
 11
18.5
 21
4.5
 31
0.0
  0
LINE
  5
1DC
330
1D8
100
AcDbEntity
  8
0
 62
1
100
AcDbLine
 10
18.5
 20
2.996138813934521
 30
0.0
 11
0.1521584951260593
 21
2.996138813934521
 31
0.0
  0
ARC
  5
1DD
330
1D8
100
AcDbEntity
  8
0
 62
1
100
AcDbCircle
 10
0.0
 20
-7.276e-12
 30
0.0
 40
4.500000000007275
100
AcDbArc
 50
90.0
 51
221.8103148954734
  0
ARC
  5
1DE
330
1D8
100
AcDbEntity
  8
0
 62
1
100
AcDbCircle
 10
0.0
 20
0.0
 30
0.0
 40
4.5
100
AcDbArc
 50
221.8103148954734
 51
13.43013203420052
  0
ARC
  5
1DF
330
1D8
100
AcDbEntity
  8
0
 62
1
100
AcDbCircle
 10
0.0
 20
0.0
 30
0.0
 40
3.0
100
AcDbArc
 50
87.09273942268763
 51
90.0
  0
ARC
  5
1E0
330
1D8
100
AcDbEntity
  8
0
 62
1
100
AcDbCircle
 10
0.0
 20
0.0
 30
0.0
 40
3.0
100
AcDbArc
 50
270.0
 51
13.43013203420052
  0
LINE
  5
1E1
330
1D8
100
AcDbEntity
  8
0
 62
1
100
AcDbLine
 10
4.37694240026758
 20
1.045167558200773
 30
0.0
 11
2.917961600192938
 21
0.6967783721338492
 31
0.0
  0
LINE
  5
1E2
330
1D8
100
AcDbEntity
  8
0
 62
1
100
AcDbLine
 10
18.5
 20
2.996138813934521
 30
0.0
 11
18.5
 21
4.5
 31
0.0
  0
ARC
  5
1E3
330
1D8
100
AcDbEntity
  8
0
 62
1
100
AcDbCircle
 10
0.0
 20
-7.276e-12
 30
0.0
 40
3.0
100
AcDbArc
 50
90.0
 51
270.0
  0
LINE
  5
1E4
330
1D8
100
AcDbEntity
  8
0
 62
1
100
AcDbLine
 10
0.0
 20
-3.000000000007275
 30
0.0
 11
17.00000000001455
 21
-3.000000000007275
 31
0.0
  0
LINE
  5
1E5
330
1D8
100
AcDbEntity
  8
0
 62
1
100
AcDbLine
 10
0.0
 20
2.999999999992724
 30
0.0
 11
17.00000000001455
 21
2.999999999992724
 31
0.0
  0
LINE
  5
1E6
330
1D8
100
AcDbEntity
  8
0
 62
1
100
AcDbLine
 10
17.00000000001455
 20
2.999999999992724
 30
0.0
 11
17.00000000001455
 21
-3.000000000007275
 31
0.0
  0
ENDBLK
  5
1DA
330
1D8
100
AcDbEntity
  8
0
100
AcDbBlockEnd
  0
BLOCK
  5
1E8
330
1E7
100
AcDbEntity
  8
0
100
AcDbBlockBegin
  2
A$C6473644D
 70
0
 10
0.0
 20
0.0
 30
0.0
  3
A$C6473644D
  1

  0
LWPOLYLINE
  5
1EA
330
1E7
100
AcDbEntity
  8
0
 62
5
100
AcDbPolyline
 90
4
 70
1
 10
1.499986755967256
 20
18.00000072643161
 10
12.49998675596726
 20
18.00000072643161
 10
12.49998675596726
 20
7.264316082e-07
 10
1.499986755967256
 20
7.264316082e-07
  0
LWPOLYLINE
  5
1EB
330
1E7
100
AcDbEntity
  8
0
 62
5
100
AcDbPolyline
 90
4
 70
1
 10
-1.32440327434e-05
 20
19.00000072643161
 10
13.99998675596725
 20
19.00000072643161
 10
13.99998675596725
 20
18.00000072643161
 10
-1.32440327434e-05
 20
18.00000072643161
  0
LINE
  5
1EC
330
1E7
100
AcDbEntity
  8
0
 62
5
100
AcDbLine
 10
7.499986755967256
 20
18.00000072643161
 30
0.0
 11
7.499986755967256
 21
8.000000726431608
 31
0.0
  0
LINE
  5
1ED
330
1E7
100
AcDbEntity
  8
0
 62
5
100
AcDbLine
 10
8.499986755967257
 20
18.00000072643161
 30
0.0
 11
8.499986755967257
 21
8.000000726431608
 31
0.0
  0
LINE
  5
1EE
330
1E7
100
AcDbEntity
  8
0
 62
5
100
AcDbLine
 10
9.499986755967257
 20
18.00000072643161
 30
0.0
 11
9.499986755967257
 21
8.000000726431608
 31
0.0
  0
LINE
  5
1EF
330
1E7
100
AcDbEntity
  8
0
 62
5
100
AcDbLine
 10
10.49998675596725
 20
18.00000072643161
 30
0.0
 11
10.49998675596725
 21
8.000000726431608
 31
0.0
  0
LINE
  5
1F0
330
1E7
100
AcDbEntity
  8
0
 62
5
100
AcDbLine
 10
11.49998675596725
 20
18.00000072643161
 30
0.0
 11
11.49998675596725
 21
8.000000726431608
 31
0.0
  0
LINE
  5
1F1
330
1E7
100
AcDbEntity
  8
0
 62
5
100
AcDbLine
 10
6.499986755966801
 20
18.00000072643161
 30
0.0
 11
6.499986755966801
 21
8.000000726431608
 31
0.0
  0
LINE
  5
1F2
330
1E7
100
AcDbEntity
  8
0
 62
5
100
AcDbLine
 10
5.499986755966801
 20
18.00000072643161
 30
0.0
 11
5.499986755966801
 21
8.000000726431608
 31
0.0
  0
LINE
  5
1F3
330
1E7
100
AcDbEntity
  8
0
 62
5
100
AcDbLine
 10
4.499986755966801
 20
18.00000072643161
 30
0.0
 11
4.499986755966801
 21
8.000000726431608
 31
0.0
  0
LINE
  5
1F4
330
1E7
100
AcDbEntity
  8
0
 62
5
100
AcDbLine
 10
3.499986755966801
 20
18.00000072643161
 30
0.0
 11
3.499986755966801
 21
8.000000726431608
 31
0.0
  0
LINE
  5
1F5
330
1E7
100
AcDbEntity
  8
0
 62
5
100
AcDbLine
 10
2.499986755966801
 20
18.00000072643161
 30
0.0
 11
2.499986755966801
 21
8.000000726431608
 31
0.0
  0
LINE
  5
1F6
330
1E7
100
AcDbEntity
  8
0
 62
5
100
AcDbLine
 10
1.499986755967256
 20
8.000000726431608
 30
0.0
 11
12.49998675596726
 21
8.000000726431608
 31
0.0
  0
ENDBLK
  5
1E9
330
1E7
100
AcDbEntity
  8
0
100
AcDbBlockEnd
  0
BLOCK
  5
1F8
330
1F7
100
AcDbEntity
  8
0
100
AcDbBlockBegin
  2
ga tai lieu
 70
0
 10
0.0
 20
0.0
 30
0.0
  3
ga tai lieu
  1

  0
LINE
  5
1FA
330
1F7
100
AcDbEntity
  8
0
  6
HIDDENX2
 62
7
100
AcDbLine
 10
230.0
 20
99.99999999998545
 30
0.0
 11
230.0
 21
0.0
 31
0.0
  0
LINE
  5
1FB
330
1F7
100
AcDbEntity
  8
0
  6
HIDDENX2
 62
7
100
AcDbLine
 10
230.0
 20
0.0
 30
0.0
 11
0.0
 21
0.0
 31
0.0
  0
LINE
  5
1FC
330
1F7
100
AcDbEntity
  8
0
  6
HIDDENX2
 62
7
100
AcDbLine
 10
-2.91038e-11
 20
0.0
 30
0.0
 11
-2.91038e-11
 21
199.9999999999854
 31
0.0
  0
CIRCLE
  5
1FD
330
1F7
100
AcDbEntity
  8
0
  6
HIDDENX2
 62
7
100
AcDbCircle
 10
155.0
 20
49.99999999998545
 30
0.0
 40
12.5
  0
CIRCLE
  5
1FE
330
1F7
100
AcDbEntity
  8
0
  6
HIDDENX2
 62
7
100
AcDbCircle
 10
104.9999999999709
 20
49.99999999998545
 30
0.0
 40
12.5
  0
CIRCLE
  5
1FF
330
1F7
100
AcDbEntity
  8
0
  6
HIDDENX2
 62
7
100
AcDbCircle
 10
55.0
 20
99.99999999998545
 30
0.0
 40
12.5
  0
CIRCLE
  5
200
330
1F7
100
AcDbEntity
  8
0
  6
HIDDENX2
 62
7
100
AcDbCircle
 10
55.0
 20
49.99999999998545
 30
0.0
 40
12.5
  0
LINE
  5
201
330
1F7
100
AcDbEntity
  8
0
  6
HIDDENX2
 62
7
100
AcDbLine
 10
0.0
 20
199.9999999999854
 30
0.0
 11
130.0
 21
199.9999999999854
 31
0.0
  0
LINE
  5
202
330
1F7
100
AcDbEntity
  8
0
  6
HIDDENX2
 62
7
100
AcDbLine
 10
230.0
 20
99.99999999998545
 30
0.0
 11
130.0
 21
199.9999999999854
 31
0.0
  0
CIRCLE
  5
203
330
1F7
100
AcDbEntity
  8
0
  6
HIDDENX2
 62
7
100
AcDbCircle
 10
104.9999999999709
 20
99.99999999998545
 30
0.0
 40
12.5
  0
CIRCLE
  5
204
330
1F7
100
AcDbEntity
  8
0
  6
HIDDENX2
 62
7
100
AcDbCircle
 10
55.0
 20
149.9999999999854
 30
0.0
 40
12.5
  0
ENDBLK
  5
1F9
330
1F7
100
AcDbEntity
  8
0
100
AcDbBlockEnd
  0
BLOCK
  5
206
330
205
100
AcDbEntity
  8
0
100
AcDbBlockBegin
  2
A$C1AC1480A
 70
0
 10
0.0
 20
0.0
 30
0.0
  3
A$C1AC1480A
  1

  0
INSERT
  5
208
330
205
100
AcDbEntity
  8
0
 62
7
100
AcDbBlockReference
  2
A$C69525F90
 10
12.50001131646513
 20
804.199995724317
 30
0.0
  0
INSERT
  5
20A
330
205
100
AcDbEntity
  8
0
 62
7
100
AcDbBlockReference
  2
A$C69525F90
 10
615.4999973285093
 20
804.199995724317
 30
0.0
 41
-1.0
  0
INSERT
  5
20C
330
205
100
AcDbEntity
  8
0
 62
7
100
AcDbBlockReference
  2
A$C69525F90
 10
12.50001131646513
 20
25.80000418419513
 30
0.0
 41
-1.0
 50
180.0
  0
INSERT
  5
20E
330
205
100
AcDbEntity
  8
0
 62
7
100
AcDbBlockReference
  2
A$C69525F90
 10
615.4999973285093
 20
25.80000418419513
 30
0.0
 50
180.0
  0
LWPOLYLINE
  5
210
330
205
100
AcDbEntity
  8
Khung
 62
8
100
AcDbPolyline
 90
4
 70
1
 10
4.322487257e-06
 20
829.999999954256
 10
628.0000043224871
 20
829.999999954256
 10
628.0000043224871
 20
-4.57439455e-08
 10
4.322487257e-06
 20
-4.57439455e-08
  0
ENDBLK
  5
207
330
205
100
AcDbEntity
  8
0
100
AcDbBlockEnd
  0
BLOCK
  5
212
330
211
100
AcDbEntity
  8
0
100
AcDbBlockBegin
  2
A$C203E2ED1
 70
0
 10
0.0
 20
0.0
 30
0.0
  3
A$C203E2ED1
  1

  0
LWPOLYLINE
  5
214
330
211
100
AcDbEntity
  8
0
 62
8
100
AcDbPolyline
 90
6
 70
1
 10
8.0
 20
39.9999898619717
 10
37.0
 20
39.9999898619717
 42
-0.4142135623730951
 10
45.0
 20
31.9999898619717
 10
45.0
 20
-1.01380283013e-05
 10
0.0
 20
-1.01380283013e-05
 10
0.0
 20
31.9999898619717
 42
-0.4142135623730951
  0
LINE
  5
215
330
211
100
AcDbEntity
  8
0
 62
8
100
AcDbLine
 10
0.0
 20
1.999989861971698
 30
0.0
 11
45.0
 21
1.999989861971698
 31
0.0
  0
CIRCLE
  5
216
330
211
100
AcDbEntity
  8
0
 62
2
100
AcDbCircle
 10
22.5
 20
22.9999898619717
 30
0.0
 40
7.5
  0
ENDBLK
  5
213
330
211
100
AcDbEntity
  8
0
100
AcDbBlockEnd
  0
BLOCK
  5
218
330
217
100
AcDbEntity
  8
0
100
AcDbBlockBegin
  2
A$C25855F30
 70
0
 10
0.0
 20
0.0
 30
0.0
  3
A$C25855F30
  1

  0
LWPOLYLINE
  5
21A
330
217
100
AcDbEntity
  8
0
 62
5
100
AcDbPolyline
 90
2
 70
0
 10
15.75002960604024
 20
13.99996149291837
 10
15.75002960604024
 20
12.49996149291837
  0
LWPOLYLINE
  5
21B
330
217
100
AcDbEntity
  8
0
 62
5
100
AcDbPolyline
 90
2
 70
0
 10
13.50002960604024
 20
-3.85070816264e-05
 10
5.500029606040243
 20
-3.85070816264e-05
  0
LWPOLYLINE
  5
21C
330
217
100
AcDbEntity
  8
0
 62
5
100
AcDbPolyline
 90
2
 70
0
 10
3.250029606040243
 20
12.49996149291837
 10
3.250029606040243
 20
13.99996149291837
  0
ARC
  5
21D
330
217
100
AcDbEntity
  8
0
 62
5
100
AcDbCircle
 10
9.500029606040243
 20
-5.031288507125282
 30
0.0
 40
20.03125000004148
100
AcDbArc
 50
71.81944615851292
 51
108.1805538414871
  0
LINE
  5
21E
330
217
100
AcDbEntity
  8
0
 62
5
100
AcDbLine
 10
3.250029606040243
 20
12.49996149291837
 30
0.0
 11
15.75002960604024
 21
12.49996149291837
 31
0.0
  0
LWPOLYLINE
  5
21F
330
217
100
AcDbEntity
  8
0
 62
5
100
AcDbPolyline
 90
4
 70
0
 10
13.50002960604024
 20
2.499961492918373
 10
13.50002960604024
 20
-3.85070816264e-05
 10
5.500029606040243
 20
-3.85070816264e-05
 10
5.500029606040243
 20
2.499961492918373
  0
LWPOLYLINE
  5
220
330
217
100
AcDbEntity
  8
0
 62
5
100
AcDbPolyline
 90
4
 70
0
 10
5.500029606040243
 20
8.999961492918374
 10
5.500029606040243
 20
12.49996149291837
 10
13.50002960604024
 20
12.49996149291837
 10
13.50002960604024
 20
8.999961492918374
  0
LINE
  5
221
330
217
100
AcDbEntity
  8
0
 62
5
100
AcDbLine
 10
5.500029606040243
 20
12.49996149291837
 30
0.0
 11
13.50002960604024
 21
12.49996149291837
 31
0.0
  0
ARC
  5
222
330
217
100
AcDbEntity
  8
0
 62
5
100
AcDbCircle
 10
9.500029606040243
 20
8.666628159597167
 30
0.0
 40
2.833333333327626
100
AcDbArc
 50
28.07248693582844
 51
151.9275130641715
  0
LINE
  5
223
330
217
100
AcDbEntity
  8
0
 62
5
100
AcDbLine
 10
12.00002960604024
 20
9.999961492918374
 30
0.0
 11
13.50002960604024
 21
12.49996149291837
 31
0.0
  0
LINE
  5
224
330
217
100
AcDbEntity
  8
0
 62
5
100
AcDbLine
 10
7.000029606040243
 20
9.999961492918374
 30
0.0
 11
5.500029606040243
 21
12.49996149291837
 31
0.0
  0
LINE
  5
225
330
217
100
AcDbEntity
  8
0
 62
5
100
AcDbLine
 10
5.500029606040243
 20
9.203085657194606
 30
0.0
 11
13.50002960604024
 21
10.08351296183537
 31
0.0
  0
LINE
  5
226
330
217
100
AcDbEntity
  8
0
 62
5
100
AcDbLine
 10
12.74083944029598
 20
8.999961492918374
 30
0.0
 11
13.50002960604024
 21
9.083512961835368
 31
0.0
  0
LINE
  5
227
330
217
100
AcDbEntity
  8
0
 62
5
100
AcDbLine
 10
5.500029606040243
 20
2.203085657194606
 30
0.0
 11
8.19759097566839
 21
2.499961492918373
 31
0.0
  0
LINE
  5
228
330
217
100
AcDbEntity
  8
0
 62
5
100
AcDbLine
 10
5.500029606040243
 20
1.203085657194606
 30
0.0
 11
13.50002960604024
 21
2.083512961835367
 31
0.0
  0
LINE
  5
229
330
217
100
AcDbEntity
  8
0
 62
5
100
AcDbLine
 10
5.500029606040243
 20
0.203085657194606
 30
0.0
 11
13.50002960604024
 21
1.083512961835367
 31
0.0
  0
LWPOLYLINE
  5
22A
330
217
100
AcDbEntity
  8
0
 62
5
100
AcDbPolyline
 90
4
 70
1
 10
19.00002960604024
 20
8.999961492918374
 10
19.00002960604024
 20
7.999961492918373
 10
2.96060402434e-05
 20
7.999961492918373
 10
2.96060402434e-05
 20
8.999961492918374
  0
INSERT
  5
22B
330
217
100
AcDbEntity
  8
0
 62
0
100
AcDbBlockReference
  2
ecu8van
 10
9.500029606040243
 20
2.499961492918373
 30
0.0
  0
ENDBLK
  5
219
330
217
100
AcDbEntity
  8
0
100
AcDbBlockEnd
  0
BLOCK
  5
22E
330
22D
100
AcDbEntity
  8
0
100
AcDbBlockBegin
  2
A$C69525F90
 70
0
 10
0.0
 20
0.0
 30
0.0
  3
A$C69525F90
  1

  0
ARC
  5
230
330
22D
100
AcDbEntity
  8
0
 62
2
100
AcDbCircle
 10
3.249993006021213
 20
4.300004229937258
 30
0.0
 40
4.25
100
AcDbArc
 50
90.0
 51
270.0
  0
ARC
  5
231
330
22D
100
AcDbEntity
  8
0
 62
2
100
AcDbCircle
 10
14.74999300602121
 20
4.300004229937258
 30
0.0
 40
4.25
100
AcDbArc
 50
270.0
 51
90.0
  0
LINE
  5
232
330
22D
100
AcDbEntity
  8
0
 62
2
100
AcDbLine
 10
14.74999300602121
 20
8.550004229937258
 30
0.0
 11
3.249993006021213
 21
8.550004229937258
 31
0.0
  0
LINE
  5
233
330
22D
100
AcDbEntity
  8
0
 62
2
100
AcDbLine
 10
3.249993006021213
 20
0.0500042299372581
 30
0.0
 11
14.74999300602121
 21
0.0500042299372581
 31
0.0
  0
ENDBLK
  5
22F
330
22D
100
AcDbEntity
  8
0
100
AcDbBlockEnd
  0
BLOCK
  5
235
330
234
100
AcDbEntity
  8
0
100
AcDbBlockBegin
  2
ecu8van
 70
0
 10
0.0
 20
0.0
 30
0.0
  3
ecu8van
  1

  0
LINE
  5
237
330
234
100
AcDbEntity
  8
0
 62
5
100
AcDbLine
 10
-5.5
 20
5.5
 30
0.0
 11
5.5
 21
5.5
 31
0.0
  0
LINE
  5
238
330
234
100
AcDbEntity
  8
0
 62
5
100
AcDbLine
 10
0.0
 20
4.75
 30
0.0
 11
0.0
 21
0.75
 31
0.0
  0
LINE
  5
239
330
234
100
AcDbEntity
  8
0
 62
5
100
AcDbLine
 10
6.5
 20
4.75
 30
0.0
 11
6.5
 21
0.75
 31
0.0
  0
LINE
  5
23A
330
234
100
AcDbEntity
  8
0
 62
5
100
AcDbLine
 10
-6.5
 20
4.75
 30
0.0
 11
-6.5
 21
0.75
 31
0.0
  0
ARC
  5
23B
330
234
100
AcDbEntity
  8
0
 62
5
100
AcDbCircle
 10
3.25
 20
-1.916666666671517
 30
0.0
 40
7.416666666671027
100
AcDbArc
 50
64.01076641647614
 51
115.9892335835238
  0
ARC
  5
23C
330
234
100
AcDbEntity
  8
0
 62
5
100
AcDbCircle
 10
3.25
 20
7.416666666671517
 30
0.0
 40
7.416666666671027
100
AcDbArc
 50
244.0107664157267
 51
295.9892335842733
  0
ARC
  5
23D
330
234
100
AcDbEntity
  8
0
 62
5
100
AcDbCircle
 10
-3.25
 20
-1.916666666671517
 30
0.0
 40
7.416666666671027
100
AcDbArc
 50
64.01076641572669
 51
115.9892335842733
  0
ARC
  5
23E
330
234
100
AcDbEntity
  8
0
 62
5
100
AcDbCircle
 10
-3.25
 20
7.416666666671517
 30
0.0
 40
7.416666666671027
100
AcDbArc
 50
244.0107664157267
 51
295.9892335842733
  0
LINE
  5
23F
330
234
100
AcDbEntity
  8
0
 62
5
100
AcDbLine
 10
-6.5
 20
4.75
 30
0.0
 11
-5.5
 21
5.5
 31
0.0
  0
LINE
  5
240
330
234
100
AcDbEntity
  8
0
 62
5
100
AcDbLine
 10
6.5
 20
4.75
 30
0.0
 11
5.5
 21
5.5
 31
0.0
  0
LINE
  5
241
330
234
100
AcDbEntity
  8
0
 62
5
100
AcDbLine
 10
-5.5
 20
0.0
 30
0.0
 11
5.5
 21
0.0
 31
0.0
  0
LINE
  5
242
330
234
100
AcDbEntity
  8
0
 62
5
100
AcDbLine
 10
-6.5
 20
0.75
 30
0.0
 11
-5.5
 21
0.0
 31
0.0
  0
LINE
  5
243
330
234
100
AcDbEntity
  8
0
 62
5
100
AcDbLine
 10
6.5
 20
0.75
 30
0.0
 11
5.5
 21
0.0
 31
0.0
  0
ENDBLK
  5
236
330
234
100
AcDbEntity
  8
0
100
AcDbBlockEnd
  0
BLOCK
  5
287
330
286
100
AcDbEntity
  8
0
100
AcDbBlockBegin
  2
*D1
 70
1
 10
0.0
 20
0.0
 30
0.0
  3
*D1
  1

  0
LINE
  5
289
330
286
100
AcDbEntity
  8
DIM
 62
5
370
9
440
16777216
100
AcDbLine
 10
1088.5677286808404
 20
971.3284785179039
 30
0.0
 11
1088.5677286808404
 21
867.2832490951932
 31
0.0
  0
LINE
  5
28A
330
286
100
AcDbEntity
  8
DIM
 62
5
370
9
440
16777216
100
AcDbLine
 10
1788.5677286808404
 20
971.3284785179039
 30
0.0
 11
1788.5677286808404
 21
867.2832490951932
 31
0.0
  0
LINE
  5
28B
330
286
100
AcDbEntity
  8
DIM
 62
5
370
9
440
16777216
100
AcDbLine
 10
1088.5677286808404
 20
877.2832490951932
 30
0.0
 11
1788.5677286808404
 21
877.2832490951932
 31
0.0
  0
LINE
  5
28C
330
286
100
AcDbEntity
  8
0
  6
ByBlock
 62
0
370
-2
100
AcDbLine
 10
1092.5677286808404
 20
881.2832490951932
 30
0.0
 11
1084.5677286808404
 21
873.2832490951932
 31
0.0
  0
LINE
  5
28D
330
286
100
AcDbEntity
  8
0
  6
ByBlock
 62
0
370
-2
100
AcDbLine
 10
1784.5677286808404
 20
873.2832490951932
 30
0.0
 11
1792.5677286808404
 21
881.2832490951932
 31
0.0
  0
MTEXT
  5
28E
330
286
100
AcDbEntity
  8
DIM
 62
3
440
16777216
100
AcDbMText
 10
1438.5677286808414
 20
900.0475737882334
 30
0.0
 40
25.0
 41
0.0
 46
0.0
 71
5
  1
700
  0
POINT
  5
28F
330
286
100
AcDbEntity
  8
Defpoints
 62
0
440
16777216
100
AcDbPoint
 10
1088.5677286808404
 20
986.3284785179039
 30
0.0
  0
POINT
  5
290
330
286
100
AcDbEntity
  8
Defpoints
 62
0
440
16777216
100
AcDbPoint
 10
1788.5677286808404
 20
986.3284785179039
 30
0.0
  0
POINT
  5
291
330
286
100
AcDbEntity
  8
Defpoints
 62
0
440
16777216
100
AcDbPoint
 10
1788.5677286808404
 20
877.2832490951932
 30
0.0
  0
ENDBLK
  5
288
330
286
100
AcDbEntity
  8
0
100
AcDbBlockEnd
  0
BLOCK
  5
293
330
292
100
AcDbEntity
  8
0
100
AcDbBlockBegin
  2
*D2
 70
1
 10
0.0
 20
0.0
 30
0.0
  3
*D2
  1

  0
LINE
  5
295
330
292
100
AcDbEntity
  8
DIM
 62
5
370
9
440
16777216
100
AcDbLine
 10
1803.5677286808414
 20
1886.328478517904
 30
0.0
 11
1866.1000790673415
 21
1886.328478517904
 31
0.0
  0
LINE
  5
296
330
292
100
AcDbEntity
  8
DIM
 62
5
370
9
440
16777216
100
AcDbLine
 10
1803.5677286808414
 20
986.3284785179039
 30
0.0
 11
1866.1000790673415
 21
986.3284785179039
 31
0.0
  0
LINE
  5
297
330
292
100
AcDbEntity
  8
DIM
 62
5
370
9
440
16777216
100
AcDbLine
 10
1856.1000790673415
 20
1886.328478517904
 30
0.0
 11
1856.1000790673415
 21
986.3284785179039
 31
0.0
  0
LINE
  5
298
330
292
100
AcDbEntity
  8
0
  6
ByBlock
 62
0
370
-2
100
AcDbLine
 10
1860.1000790673415
 20
1882.328478517904
 30
0.0
 11
1852.1000790673415
 21
1890.328478517904
 31
0.0
  0
LINE
  5
299
330
292
100
AcDbEntity
  8
0
  6
ByBlock
 62
0
370
-2
100
AcDbLine
 10
1852.1000790673415
 20
990.3284785179039
 30
0.0
 11
1860.1000790673415
 21
982.3284785179039
 31
0.0
  0
MTEXT
  5
29A
330
292
100
AcDbEntity
  8
DIM
 62
3
440
16777216
100
AcDbMText
 10
1833.3357543742968
 20
1436.328478517913
 30
0.0
 40
25.0
 41
0.0
 46
0.0
 71
5
  1
900
 11
1e-16
 21
1.0
 31
0.0
  0
POINT
  5
29B
330
292
100
AcDbEntity
  8
Defpoints
 62
0
440
16777216
100
AcDbPoint
 10
1788.5677286808404
 20
1886.328478517904
 30
0.0
  0
POINT
  5
29C
330
292
100
AcDbEntity
  8
Defpoints
 62
0
440
16777216
100
AcDbPoint
 10
1788.5677286808404
 20
986.3284785179039
 30
0.0
  0
POINT
  5
29D
330
292
100
AcDbEntity
  8
Defpoints
 62
0
440
16777216
100
AcDbPoint
 10
1856.1000790673415
 20
986.3284785179039
 30
0.0
  0
ENDBLK
  5
294
330
292
100
AcDbEntity
  8
0
100
AcDbBlockEnd
  0
BLOCK
  5
29F
330
29E
100
AcDbEntity
  8
0
100
AcDbBlockBegin
  2
*D3
 70
1
 10
0.0
 20
0.0
 30
0.0
  3
*D3
  1

  0
LINE
  5
2A1
330
29E
100
AcDbEntity
  8
DIM
 62
5
370
9
440
16777216
100
AcDbLine
 10
2027.0138952422194
 20
931.3284785179039
 30
0.0
 11
2027.0138952422194
 21
867.2832490951932
 31
0.0
  0
LINE
  5
2A2
330
29E
100
AcDbEntity
  8
DIM
 62
5
370
9
440
16777216
100
AcDbLine
 10
2276.513895242212
 20
972.3284785179039
 30
0.0
 11
2276.513895242212
 21
867.2832490951932
 31
0.0
  0
LINE
  5
2A3
330
29E
100
AcDbEntity
  8
DIM
 62
5
370
9
440
16777216
100
AcDbLine
 10
2027.0138952422194
 20
877.2832490951932
 30
0.0
 11
2276.513895242212
 21
877.2832490951932
 31
0.0
  0
LINE
  5
2A4
330
29E
100
AcDbEntity
  8
0
  6
ByBlock
 62
0
370
-2
100
AcDbLine
 10
2031.0138952422194
 20
881.2832490951932
 30
0.0
 11
2023.0138952422194
 21
873.2832490951932
 31
0.0
  0
LINE
  5
2A5
330
29E
100
AcDbEntity
  8
0
  6
ByBlock
 62
0
370
-2
100
AcDbLine
 10
2272.513895242212
 20
873.2832490951932
 30
0.0
 11
2280.513895242212
 21
881.2832490951932
 31
0.0
  0
MTEXT
  5
2A6
330
29E
100
AcDbEntity
  8
DIM
 62
3
440
16777216
100
AcDbMText
 10
2151.7638952422158
 20
900.0475737882334
 30
0.0
 40
25.0
 41
0.0
 46
0.0
 71
5
  1
250
  0
POINT
  5
2A7
330
29E
100
AcDbEntity
  8
Defpoints
 62
0
440
16777216
100
AcDbPoint
 10
2027.0138952422194
 20
946.3284785179039
 30
0.0
  0
POINT
  5
2A8
330
29E
100
AcDbEntity
  8
Defpoints
 62
0
440
16777216
100
AcDbPoint
 10
2276.513895242212
 20
987.3284785179039
 30
0.0
  0
POINT
  5
2A9
330
29E
100
AcDbEntity
  8
Defpoints
 62
0
440
16777216
100
AcDbPoint
 10
2276.513895242212
 20
877.2832490951932
 30
0.0
  0
ENDBLK
  5
2A0
330
29E
100
AcDbEntity
  8
0
100
AcDbBlockEnd
  0
BLOCK
  5
2AB
330
2AA
100
AcDbEntity
  8
0
100
AcDbBlockBegin
  2
*D4
 70
1
 10
0.0
 20
0.0
 30
0.0
  3
*D4
  1

  0
LINE
  5
2AD
330
2AA
100
AcDbEntity
  8
DIM
 62
5
370
9
440
16777216
100
AcDbLine
 10
2714.939490421216
 20
931.3284785179039
 30
0.0
 11
2714.939490421216
 21
867.2832490951932
 31
0.0
  0
LINE
  5
2AE
330
2AA
100
AcDbEntity
  8
DIM
 62
5
370
9
440
16777216
100
AcDbLine
 10
2465.439490421216
 20
972.3284785179039
 30
0.0
 11
2465.439490421216
 21
867.2832490951932
 31
0.0
  0
LINE
  5
2AF
330
2AA
100
AcDbEntity
  8
DIM
 62
5
370
9
440
16777216
100
AcDbLine
 10
2714.939490421216
 20
877.2832490951932
 30
0.0
 11
2465.439490421216
 21
877.2832490951932
 31
0.0
  0
LINE
  5
2B0
330
2AA
100
AcDbEntity
  8
0
  6
ByBlock
 62
0
370
-2
100
AcDbLine
 10
2710.939490421216
 20
873.2832490951932
 30
0.0
 11
2718.939490421216
 21
881.2832490951932
 31
0.0
  0
LINE
  5
2B1
330
2AA
100
AcDbEntity
  8
0
  6
ByBlock
 62
0
370
-2
100
AcDbLine
 10
2469.439490421216
 20
881.2832490951932
 30
0.0
 11
2461.439490421216
 21
873.2832490951932
 31
0.0
  0
MTEXT
  5
2B2
330
2AA
100
AcDbEntity
  8
DIM
 62
3
440
16777216
100
AcDbMText
 10
2590.1894904212168
 20
900.0475737882334
 30
0.0
 40
25.0
 41
0.0
 46
0.0
 71
5
  1
250
  0
POINT
  5
2B3
330
2AA
100
AcDbEntity
  8
Defpoints
 62
0
440
16777216
100
AcDbPoint
 10
2714.939490421216
 20
946.3284785179039
 30
0.0
  0
POINT
  5
2B4
330
2AA
100
AcDbEntity
  8
Defpoints
 62
0
440
16777216
100
AcDbPoint
 10
2465.439490421216
 20
987.3284785179039
 30
0.0
  0
POINT
  5
2B5
330
2AA
100
AcDbEntity
  8
Defpoints
 62
0
440
16777216
100
AcDbPoint
 10
2465.439490421216
 20
877.2832490951932
 30
0.0
  0
ENDBLK
  5
2AC
330
2AA
100
AcDbEntity
  8
0
100
AcDbBlockEnd
  0
BLOCK
  5
2B7
330
2B6
100
AcDbEntity
  8
0
100
AcDbBlockBegin
  2
*D5
 70
1
 10
0.0
 20
0.0
 30
0.0
  3
*D5
  1

  0
LINE
  5
2B9
330
2B6
100
AcDbEntity
  8
DIM
 62
5
370
9
440
16777216
100
AcDbLine
 10
853.8334955700902
 20
621.2090337502141
 30
0.0
 11
916.3658459565922
 21
621.2090337502141
 31
0.0
  0
LINE
  5
2BA
330
2B6
100
AcDbEntity
  8
DIM
 62
5
370
9
440
16777216
100
AcDbLine
 10
852.8334955700911
 20
371.7090337502141
 30
0.0
 11
916.3658459565922
 21
371.7090337502141
 31
0.0
  0
LINE
  5
2BB
330
2B6
100
AcDbEntity
  8
DIM
 62
5
370
9
440
16777216
100
AcDbLine
 10
906.3658459565931
 20
621.2090337502141
 30
0.0
 11
906.3658459565931
 21
371.7090337502141
 31
0.0
  0
LINE
  5
2BC
330
2B6
100
AcDbEntity
  8
0
  6
ByBlock
 62
0
370
-2
100
AcDbLine
 10
910.3658459565931
 20
617.2090337502141
 30
0.0
 11
902.3658459565931
 21
625.2090337502141
 31
0.0
  0
LINE
  5
2BD
330
2B6
100
AcDbEntity
  8
0
  6
ByBlock
 62
0
370
-2
100
AcDbLine
 10
902.3658459565931
 20
375.7090337502141
 30
0.0
 11
910.3658459565931
 21
367.7090337502141
 31
0.0
  0
MTEXT
  5
2BE
330
2B6
100
AcDbEntity
  8
DIM
 62
3
440
16777216
100
AcDbMText
 10
883.6015212635493
 20
496.4590337502141
 30
0.0
 40
25.0
 41
0.0
 46
0.0
 71
5
  1
250
 11
1e-16
 21
1.0
 31
0.0
  0
POINT
  5
2BF
330
2B6
100
AcDbEntity
  8
Defpoints
 62
0
440
16777216
100
AcDbPoint
 10
838.8334955700911
 20
621.2090337502141
 30
0.0
  0
POINT
  5
2C0
330
2B6
100
AcDbEntity
  8
Defpoints
 62
0
440
16777216
100
AcDbPoint
 10
837.8334955700902
 20
371.7090337502141
 30
0.0
  0
POINT
  5
2C1
330
2B6
100
AcDbEntity
  8
Defpoints
 62
0
440
16777216
100
AcDbPoint
 10
906.3658459565931
 20
371.7090337502141
 30
0.0
  0
ENDBLK
  5
2B8
330
2B6
100
AcDbEntity
  8
0
100
AcDbBlockEnd
  0
BLOCK
  5
2C3
330
2C2
100
AcDbEntity
  8
0
100
AcDbBlockBegin
  2
*D6
 70
1
 10
0.0
 20
0.0
 30
0.0
  3
*D6
  1

  0
LINE
  5
2C5
330
2C2
100
AcDbEntity
  8
DIM
 62
5
370
9
440
16777216
100
AcDbLine
 10
1803.5677286808414
 20
621.2090337502141
 30
0.0
 11
1866.1000790673488
 21
621.2090337502141
 31
0.0
  0
LINE
  5
2C6
330
2C2
100
AcDbEntity
  8
DIM
 62
5
370
9
440
16777216
100
AcDbLine
 10
1802.5677286808414
 20
371.7090337502141
 30
0.0
 11
1866.1000790673488
 21
371.7090337502141
 31
0.0
  0
LINE
  5
2C7
330
2C2
100
AcDbEntity
  8
DIM
 62
5
370
9
440
16777216
100
AcDbLine
 10
1856.1000790673488
 20
621.2090337502141
 30
0.0
 11
1856.1000790673488
 21
371.7090337502141
 31
0.0
  0
LINE
  5
2C8
330
2C2
100
AcDbEntity
  8
0
  6
ByBlock
 62
0
370
-2
100
AcDbLine
 10
1860.1000790673488
 20
617.2090337502141
 30
0.0
 11
1852.1000790673488
 21
625.2090337502141
 31
0.0
  0
LINE
  5
2C9
330
2C2
100
AcDbEntity
  8
0
  6
ByBlock
 62
0
370
-2
100
AcDbLine
 10
1852.1000790673488
 20
375.7090337502141
 30
0.0
 11
1860.1000790673488
 21
367.7090337502141
 31
0.0
  0
MTEXT
  5
2CA
330
2C2
100
AcDbEntity
  8
DIM
 62
3
440
16777216
100
AcDbMText
 10
1833.335754374306
 20
496.4590337502141
 30
0.0
 40
25.0
 41
0.0
 46
0.0
 71
5
  1
250
 11
1e-16
 21
1.0
 31
0.0
  0
POINT
  5
2CB
330
2C2
100
AcDbEntity
  8
Defpoints
 62
0
440
16777216
100
AcDbPoint
 10
1788.5677286808404
 20
621.2090337502141
 30
0.0
  0
POINT
  5
2CC
330
2C2
100
AcDbEntity
  8
Defpoints
 62
0
440
16777216
100
AcDbPoint
 10
1787.5677286808414
 20
371.7090337502141
 30
0.0
  0
POINT
  5
2CD
330
2C2
100
AcDbEntity
  8
Defpoints
 62
0
440
16777216
100
AcDbPoint
 10
1856.1000790673488
 20
371.7090337502141
 30
0.0
  0
ENDBLK
  5
2C4
330
2C2
100
AcDbEntity
  8
0
100
AcDbBlockEnd
  0
BLOCK
  5
2CF
330
2CE
100
AcDbEntity
  8
0
100
AcDbBlockBegin
  2
*D7
 70
1
 10
0.0
 20
0.0
 30
0.0
  3
*D7
  1

  0
LINE
  5
2D1
330
2CE
100
AcDbEntity
  8
DIM
 62
5
370
9
440
16777216
100
AcDbLine
 10
138.83349557009115
 20
971.3284785179039
 30
0.0
 11
138.83349557009115
 21
867.2832490951932
 31
0.0
  0
LINE
  5
2D2
330
2CE
100
AcDbEntity
  8
DIM
 62
5
370
9
440
16777216
100
AcDbLine
 10
838.8334955700911
 20
971.3284785179039
 30
0.0
 11
838.8334955700911
 21
867.2832490951932
 31
0.0
  0
LINE
  5
2D3
330
2CE
100
AcDbEntity
  8
DIM
 62
5
370
9
440
16777216
100
AcDbLine
 10
138.83349557009115
 20
877.2832490951932
 30
0.0
 11
838.8334955700911
 21
877.2832490951932
 31
0.0
  0
LINE
  5
2D4
330
2CE
100
AcDbEntity
  8
0
  6
ByBlock
 62
0
370
-2
100
AcDbLine
 10
142.83349557009115
 20
881.2832490951932
 30
0.0
 11
134.83349557009115
 21
873.2832490951932
 31
0.0
  0
LINE
  5
2D5
330
2CE
100
AcDbEntity
  8
0
  6
ByBlock
 62
0
370
-2
100
AcDbLine
 10
834.8334955700911
 20
873.2832490951932
 30
0.0
 11
842.8334955700911
 21
881.2832490951932
 31
0.0
  0
MTEXT
  5
2D6
330
2CE
100
AcDbEntity
  8
DIM
 62
3
440
16777216
100
AcDbMText
 10
488.83349557009115
 20
900.0475737882334
 30
0.0
 40
25.0
 41
0.0
 46
0.0
 71
5
  1
700
  0
POINT
  5
2D7
330
2CE
100
AcDbEntity
  8
Defpoints
 62
0
440
16777216
100
AcDbPoint
 10
138.83349557009115
 20
986.3284785179039
 30
0.0
  0
POINT
  5
2D8
330
2CE
100
AcDbEntity
  8
Defpoints
 62
0
440
16777216
100
AcDbPoint
 10
838.8334955700911
 20
986.3284785179039
 30
0.0
  0
POINT
  5
2D9
330
2CE
100
AcDbEntity
  8
Defpoints
 62
0
440
16777216
100
AcDbPoint
 10
838.8334955700911
 20
877.2832490951932
 30
0.0
  0
ENDBLK
  5
2D0
330
2CE
100
AcDbEntity
  8
0
100
AcDbBlockEnd
  0
BLOCK
  5
2DB
330
2DA
100
AcDbEntity
  8
0
100
AcDbBlockBegin
  2
*D8
 70
1
 10
0.0
 20
0.0
 30
0.0
  3
*D8
  1

  0
LINE
  5
2DD
330
2DA
100
AcDbEntity
  8
DIM
 62
5
370
9
440
16777216
100
AcDbLine
 10
853.8334955700902
 20
1886.328478517904
 30
0.0
 11
916.3658459565877
 21
1886.328478517904
 31
0.0
  0
LINE
  5
2DE
330
2DA
100
AcDbEntity
  8
DIM
 62
5
370
9
440
16777216
100
AcDbLine
 10
853.8334955700902
 20
986.3284785179039
 30
0.0
 11
916.3658459565877
 21
986.3284785179039
 31
0.0
  0
LINE
  5
2DF
330
2DA
100
AcDbEntity
  8
DIM
 62
5
370
9
440
16777216
100
AcDbLine
 10
906.3658459565877
 20
1886.328478517904
 30
0.0
 11
906.3658459565877
 21
986.3284785179039
 31
0.0
  0
LINE
  5
2E0
330
2DA
100
AcDbEntity
  8
0
  6
ByBlock
 62
0
370
-2
100
AcDbLine
 10
910.3658459565877
 20
1882.328478517904
 30
0.0
 11
902.3658459565877
 21
1890.328478517904
 31
0.0
  0
LINE
  5
2E1
330
2DA
100
AcDbEntity
  8
0
  6
ByBlock
 62
0
370
-2
100
AcDbLine
 10
902.3658459565877
 20
990.3284785179039
 30
0.0
 11
910.3658459565877
 21
982.3284785179039
 31
0.0
  0
MTEXT
  5
2E2
330
2DA
100
AcDbEntity
  8
DIM
 62
3
440
16777216
100
AcDbMText
 10
883.6015212635439
 20
1436.328478517913
 30
0.0
 40
25.0
 41
0.0
 46
0.0
 71
5
  1
900
 11
1e-16
 21
1.0
 31
0.0
  0
POINT
  5
2E3
330
2DA
100
AcDbEntity
  8
Defpoints
 62
0
440
16777216
100
AcDbPoint
 10
838.8334955700911
 20
1886.328478517904
 30
0.0
  0
POINT
  5
2E4
330
2DA
100
AcDbEntity
  8
Defpoints
 62
0
440
16777216
100
AcDbPoint
 10
838.8334955700911
 20
986.3284785179039
 30
0.0
  0
POINT
  5
2E5
330
2DA
100
AcDbEntity
  8
Defpoints
 62
0
440
16777216
100
AcDbPoint
 10
906.3658459565877
 20
986.3284785179039
 30
0.0
  0
ENDBLK
  5
2DC
330
2DA
100
AcDbEntity
  8
0
100
AcDbBlockEnd
  0
BLOCK
  5
2E7
330
2E6
100
AcDbEntity
  8
0
100
AcDbBlockBegin
  2
*D9
 70
1
 10
0.0
 20
0.0
 30
0.0
  3
*D9
  1

  0
LINE
  5
2E9
330
2E6
100
AcDbEntity
  8
DIM
 62
5
370
9
440
16777216
100
AcDbLine
 10
214.57872476895773
 20
1659.4795117459835
 30
0.0
 11
303.88593473219316
 21
1701.6331581479735
 31
0.0
  0
MTEXT
  5
2EA
330
2E6
100
AcDbEntity
  8
DIM
 62
3
440
16777216
100
AcDbMText
 10
241.98240565707147
 20
1698.3601614769832
 30
0.0
 40
25.0
 41
0.0
 46
0.0
 71
5
  1
∅22
 11
0.904323712535937
 21
0.4268473063581637
 31
0.0
  0
LINE
  5
2EB
330
2E6
100
AcDbEntity
  8
DIM
 62
5
370
9
440
16777216
100
AcDbLine
 10
323.78105640797094
 20
1711.0237988878434
 30
0.0
 11
303.88593473219316
 21
1701.6331581479735
 31
0.0
  0
LINE
  5
2EC
330
2E6
100
AcDbEntity
  8
0
  6
ByBlock
 62
0
370
-2
100
AcDbLine
 10
325.69096203268236
 20
1716.3484829634199
 30
0.0
 11
321.8711507832595
 21
1705.699114812267
 31
0.0
  0
LINE
  5
2ED
330
2E6
100
AcDbEntity
  8
0
  6
ByBlock
 62
0
370
-2
100
AcDbLine
 10
301.97602910748174
 20
1696.308474072397
 30
0.0
 11
305.7958403569046
 21
1706.95784222355
 31
0.0
  0
POINT
  5
2EE
330
2E6
100
AcDbEntity
  8
Defpoints
 62
0
440
16777216
100
AcDbPoint
 10
303.88593473219316
 20
1701.6331581479735
 30
0.0
  0
POINT
  5
2EF
330
2E6
100
AcDbEntity
  8
Defpoints
 62
0
440
16777216
100
AcDbPoint
 10
323.78105640797094
 20
1711.0237988878434
 30
0.0
  0
ENDBLK
  5
2E8
330
2E6
100
AcDbEntity
  8
0
100
AcDbBlockEnd
  0
BLOCK
  5
2F1
330
2F0
100
AcDbEntity
  8
0
100
AcDbBlockBegin
  2
*D10
 70
1
 10
0.0
 20
0.0
 30
0.0
  3
*D10
  1

  0
LINE
  5
2F3
330
2F0
100
AcDbEntity
  8
DIM
 62
5
370
9
440
16777216
100
AcDbLine
 10
339.83349557009024
 20
1706.328478517904
 30
0.0
 11
385.7061289255462
 21
1706.328478517904
 31
0.0
  0
LINE
  5
2F4
330
2F0
100
AcDbEntity
  8
DIM
 62
5
370
9
440
16777216
100
AcDbLine
 10
339.83349557009024
 20
1886.328478517904
 30
0.0
 11
385.7061289255462
 21
1886.328478517904
 31
0.0
  0
LINE
  5
2F5
330
2F0
100
AcDbEntity
  8
DIM
 62
5
370
9
440
16777216
100
AcDbLine
 10
375.7061289255462
 20
1706.328478517904
 30
0.0
 11
375.7061289255462
 21
1886.328478517904
 31
0.0
  0
LINE
  5
2F6
330
2F0
100
AcDbEntity
  8
0
  6
ByBlock
 62
0
370
-2
100
AcDbLine
 10
371.7061289255462
 20
1710.328478517904
 30
0.0
 11
379.7061289255462
 21
1702.328478517904
 31
0.0
  0
LINE
  5
2F7
330
2F0
100
AcDbEntity
  8
0
  6
ByBlock
 62
0
370
-2
100
AcDbLine
 10
379.7061289255462
 20
1882.328478517904
 30
0.0
 11
371.7061289255462
 21
1890.328478517904
 31
0.0
  0
MTEXT
  5
2F8
330
2F0
100
AcDbEntity
  8
DIM
 62
3
440
16777216
100
AcDbMText
 10
352.94180423250145
 20
1796.328478517913
 30
0.0
 40
25.0
 41
0.0
 46
0.0
 71
5
  1
180
 11
1e-16
 21
1.0
 31
0.0
  0
POINT
  5
2F9
330
2F0
100
AcDbEntity
  8
Defpoints
 62
0
440
16777216
100
AcDbPoint
 10
324.83349557009115
 20
1706.328478517904
 30
0.0
  0
POINT
  5
2FA
330
2F0
100
AcDbEntity
  8
Defpoints
 62
0
440
16777216
100
AcDbPoint
 10
324.83349557009115
 20
1886.328478517904
 30
0.0
  0
POINT
  5
2FB
330
2F0
100
AcDbEntity
  8
Defpoints
 62
0
440
16777216
100
AcDbPoint
 10
375.7061289255462
 20
1886.328478517904
 30
0.0
  0
ENDBLK
  5
2F2
330
2F0
100
AcDbEntity
  8
0
100
AcDbBlockEnd
  0
BLOCK
  5
2FD
330
2FC
100
AcDbEntity
  8
0
100
AcDbBlockBegin
  2
*D11
 70
1
 10
0.0
 20
0.0
 30
0.0
  3
*D11
  1

  0
LINE
  5
2FF
330
2FC
100
AcDbEntity
  8
DIM
 62
5
370
9
440
16777216
100
AcDbLine
 10
661.4916562808703
 20
1086.328478517904
 30
0.0
 11
656.491656280904
 21
1086.328478517904
 31
0.0
  0
LINE
  5
300
330
2FC
100
AcDbEntity
  8
DIM
 62
5
370
9
440
16777216
100
AcDbLine
 10
661.4916562808703
 20
986.3284785179039
 30
0.0
 11
656.491656280904
 21
986.3284785179039
 31
0.0
  0
LINE
  5
301
330
2FC
100
AcDbEntity
  8
DIM
 62
5
370
9
440
16777216
100
AcDbLine
 10
646.491656280904
 20
1086.328478517904
 30
0.0
 11
646.491656280904
 21
986.3284785179039
 31
0.0
  0
LINE
  5
302
330
2FC
100
AcDbEntity
  8
0
  6
ByBlock
 62
0
370
-2
100
AcDbLine
 10
650.491656280904
 20
1082.328478517904
 30
0.0
 11
642.491656280904
 21
1090.328478517904
 31
0.0
  0
LINE
  5
303
330
2FC
100
AcDbEntity
  8
0
  6
ByBlock
 62
0
370
-2
100
AcDbLine
 10
642.491656280904
 20
990.3284785179039
 30
0.0
 11
650.491656280904
 21
982.3284785179039
 31
0.0
  0
MTEXT
  5
304
330
2FC
100
AcDbEntity
  8
DIM
 62
3
440
16777216
100
AcDbMText
 10
623.7273315878601
 20
1036.328478517913
 30
0.0
 40
25.0
 41
0.0
 46
0.0
 71
5
  1
100
 11
1e-16
 21
1.0
 31
0.0
  0
POINT
  5
305
330
2FC
100
AcDbEntity
  8
Defpoints
 62
0
440
16777216
100
AcDbPoint
 10
646.4916562808712
 20
1086.328478517904
 30
0.0
  0
POINT
  5
306
330
2FC
100
AcDbEntity
  8
Defpoints
 62
0
440
16777216
100
AcDbPoint
 10
646.4916562808712
 20
986.3284785179039
 30
0.0
  0
POINT
  5
307
330
2FC
100
AcDbEntity
  8
Defpoints
 62
0
440
16777216
100
AcDbPoint
 10
646.491656280904
 20
986.3284785179039
 30
0.0
  0
ENDBLK
  5
2FE
330
2FC
100
AcDbEntity
  8
0
100
AcDbBlockEnd
  0
BLOCK
  5
309
330
308
100
AcDbEntity
  8
0
100
AcDbBlockBegin
  2
*D12
 70
1
 10
0.0
 20
0.0
 30
0.0
  3
*D12
  1

  0
LINE
  5
30B
330
308
100
AcDbEntity
  8
DIM
 62
5
370
9
440
16777216
100
AcDbLine
 10
138.83349557009115
 20
1901.328478517904
 30
0.0
 11
138.83349557009115
 21
1979.1480955612242
 31
0.0
  0
LINE
  5
30C
330
308
100
AcDbEntity
  8
DIM
 62
5
370
9
440
16777216
100
AcDbLine
 10
488.83349557009115
 20
1901.328478517904
 30
0.0
 11
488.83349557009115
 21
1979.1480955612242
 31
0.0
  0
LINE
  5
30D
330
308
100
AcDbEntity
  8
DIM
 62
5
370
9
440
16777216
100
AcDbLine
 10
138.83349557009115
 20
1969.1480955612242
 30
0.0
 11
488.83349557009115
 21
1969.1480955612242
 31
0.0
  0
LINE
  5
30E
330
308
100
AcDbEntity
  8
0
  6
ByBlock
 62
0
370
-2
100
AcDbLine
 10
142.83349557009115
 20
1973.1480955612242
 30
0.0
 11
134.83349557009115
 21
1965.1480955612242
 31
0.0
  0
LINE
  5
30F
330
308
100
AcDbEntity
  8
0
  6
ByBlock
 62
0
370
-2
100
AcDbLine
 10
484.83349557009115
 20
1965.1480955612242
 30
0.0
 11
492.83349557009115
 21
1973.1480955612242
 31
0.0
  0
MTEXT
  5
310
330
308
100
AcDbEntity
  8
DIM
 62
3
440
16777216
100
AcDbMText
 10
313.83349557009024
 20
1991.9209468572644
 30
0.0
 40
25.0
 41
0.0
 46
0.0
 71
5
  1
350
  0
POINT
  5
311
330
308
100
AcDbEntity
  8
Defpoints
 62
0
440
16777216
100
AcDbPoint
 10
138.83349557009115
 20
1886.328478517904
 30
0.0
  0
POINT
  5
312
330
308
100
AcDbEntity
  8
Defpoints
 62
0
440
16777216
100
AcDbPoint
 10
488.83349557009115
 20
1886.328478517904
 30
0.0
  0
POINT
  5
313
330
308
100
AcDbEntity
  8
Defpoints
 62
0
440
16777216
100
AcDbPoint
 10
488.83349557009115
 20
1969.1480955612242
 30
0.0
  0
ENDBLK
  5
30A
330
308
100
AcDbEntity
  8
0
100
AcDbBlockEnd
  0
BLOCK
  5
315
330
314
100
AcDbEntity
  8
0
100
AcDbBlockBegin
  2
*D13
 70
1
 10
0.0
 20
0.0
 30
0.0
  3
*D13
  1

  0
LINE
  5
317
330
314
100
AcDbEntity
  8
DIM
 62
5
370
9
440
16777216
100
AcDbLine
 10
488.83349557009115
 20
1901.328478517904
 30
0.0
 11
488.83349557009115
 21
1979.1480955612242
 31
0.0
  0
LINE
  5
318
330
314
100
AcDbEntity
  8
DIM
 62
5
370
9
440
16777216
100
AcDbLine
 10
838.8334955700911
 20
1901.328478517904
 30
0.0
 11
838.8334955700911
 21
1979.1480955612242
 31
0.0
  0
LINE
  5
319
330
314
100
AcDbEntity
  8
DIM
 62
5
370
9
440
16777216
100
AcDbLine
 10
488.83349557009115
 20
1969.1480955612242
 30
0.0
 11
838.8334955700911
 21
1969.1480955612242
 31
0.0
  0
LINE
  5
31A
330
314
100
AcDbEntity
  8
0
  6
ByBlock
 62
0
370
-2
100
AcDbLine
 10
492.83349557009115
 20
1973.1480955612242
 30
0.0
 11
484.83349557009115
 21
1965.1480955612242
 31
0.0
  0
LINE
  5
31B
330
314
100
AcDbEntity
  8
0
  6
ByBlock
 62
0
370
-2
100
AcDbLine
 10
834.8334955700911
 20
1965.1480955612242
 30
0.0
 11
842.8334955700911
 21
1973.1480955612242
 31
0.0
  0
MTEXT
  5
31C
330
314
100
AcDbEntity
  8
DIM
 62
3
440
16777216
100
AcDbMText
 10
663.8334955700911
 20
1991.9209468572644
 30
0.0
 40
25.0
 41
0.0
 46
0.0
 71
5
  1
350
  0
POINT
  5
31D
330
314
100
AcDbEntity
  8
Defpoints
 62
0
440
16777216
100
AcDbPoint
 10
488.83349557009115
 20
1886.328478517904
 30
0.0
  0
POINT
  5
31E
330
314
100
AcDbEntity
  8
Defpoints
 62
0
440
16777216
100
AcDbPoint
 10
838.8334955700911
 20
1886.328478517904
 30
0.0
  0
POINT
  5
31F
330
314
100
AcDbEntity
  8
Defpoints
 62
0
440
16777216
100
AcDbPoint
 10
838.8334955700911
 20
1969.1480955612242
 30
0.0
  0
ENDBLK
  5
316
330
314
100
AcDbEntity
  8
0
100
AcDbBlockEnd
  0
BLOCK
  5
321
330
320
100
AcDbEntity
  8
0
100
AcDbBlockBegin
  2
*D14
 70
1
 10
0.0
 20
0.0
 30
0.0
  3
*D14
  1

  0
LINE
  5
323
330
320
100
AcDbEntity
  8
DIM
 62
5
370
9
440
16777216
100
AcDbLine
 10
323.83349557009115
 20
436.2090337502141
 30
0.0
 11
81.3598457215785
 21
436.2090337502141
 31
0.0
  0
LINE
  5
324
330
320
100
AcDbEntity
  8
DIM
 62
5
370
9
440
16777216
100
AcDbLine
 10
123.83349557009115
 20
391.2090337502141
 30
0.0
 11
81.3598457215785
 21
391.2090337502141
 31
0.0
  0
LINE
  5
325
330
320
100
AcDbEntity
  8
DIM
 62
5
370
9
440
16777216
100
AcDbLine
 10
91.3598457215785
 20
436.2090337502141
 30
0.0
 11
91.3598457215785
 21
391.2090337502141
 31
0.0
  0
LINE
  5
326
330
320
100
AcDbEntity
  8
0
  6
ByBlock
 62
0
370
-2
100
AcDbLine
 10
95.3598457215785
 20
432.2090337502141
 30
0.0
 11
87.3598457215785
 21
440.2090337502141
 31
0.0
  0
LINE
  5
327
330
320
100
AcDbEntity
  8
0
  6
ByBlock
 62
0
370
-2
100
AcDbLine
 10
87.3598457215785
 20
395.2090337502141
 30
0.0
 11
95.3598457215785
 21
387.2090337502141
 31
0.0
  0
MTEXT
  5
328
330
320
100
AcDbEntity
  8
DIM
 62
3
440
16777216
100
AcDbMText
 10
68.64668064654234
 20
413.7090337502141
 30
0.0
 40
25.0
 41
0.0
 46
0.0
 71
5
  1
45
 11
1e-16
 21
1.0
 31
0.0
  0
POINT
  5
329
330
320
100
AcDbEntity
  8
Defpoints
 62
0
440
16777216
100
AcDbPoint
 10
338.83349557009115
 20
436.2090337502141
 30
0.0
  0
POINT
  5
32A
330
320
100
AcDbEntity
  8
Defpoints
 62
0
440
16777216
100
AcDbPoint
 10
138.83349557009115
 20
391.2090337502141
 30
0.0
  0
POINT
  5
32B
330
320
100
AcDbEntity
  8
Defpoints
 62
0
440
16777216
100
AcDbPoint
 10
91.3598457215785
 20
391.2090337502141
 30
0.0
  0
ENDBLK
  5
322
330
320
100
AcDbEntity
  8
0
100
AcDbBlockEnd
  0
BLOCK
  5
32D
330
32C
100
AcDbEntity
  8
0
100
AcDbBlockBegin
  2
*D15
 70
1
 10
0.0
 20
0.0
 30
0.0
  3
*D15
  1

  0
LINE
  5
32F
330
32C
100
AcDbEntity
  8
DIM
 62
5
370
9
440
16777216
100
AcDbLine
 10
1323.5677286808414
 20
456.2090337502141
 30
0.0
 11
1033.993870967207
 21
456.2090337502141
 31
0.0
  0
LINE
  5
330
330
32C
100
AcDbEntity
  8
DIM
 62
5
370
9
440
16777216
100
AcDbLine
 10
1073.5677286808414
 20
391.2090337502141
 30
0.0
 11
1033.993870967207
 21
391.2090337502141
 31
0.0
  0
LINE
  5
331
330
32C
100
AcDbEntity
  8
DIM
 62
5
370
9
440
16777216
100
AcDbLine
 10
1043.993870967207
 20
456.2090337502141
 30
0.0
 11
1043.993870967207
 21
391.2090337502141
 31
0.0
  0
LINE
  5
332
330
32C
100
AcDbEntity
  8
0
  6
ByBlock
 62
0
370
-2
100
AcDbLine
 10
1047.993870967207
 20
452.2090337502141
 30
0.0
 11
1039.993870967207
 21
460.2090337502141
 31
0.0
  0
LINE
  5
333
330
32C
100
AcDbEntity
  8
0
  6
ByBlock
 62
0
370
-2
100
AcDbLine
 10
1039.993870967207
 20
395.2090337502141
 30
0.0
 11
1047.993870967207
 21
387.2090337502141
 31
0.0
  0
MTEXT
  5
334
330
32C
100
AcDbEntity
  8
DIM
 62
3
440
16777216
100
AcDbMText
 10
1021.229546274164
 20
423.70903375022317
 30
0.0
 40
25.0
 41
0.0
 46
0.0
 71
5
  1
65
 11
1e-16
 21
1.0
 31
0.0
  0
POINT
  5
335
330
32C
100
AcDbEntity
  8
Defpoints
 62
0
440
16777216
100
AcDbPoint
 10
1338.5677286808404
 20
456.2090337502141
 30
0.0
  0
POINT
  5
336
330
32C
100
AcDbEntity
  8
Defpoints
 62
0
440
16777216
100
AcDbPoint
 10
1088.5677286808404
 20
391.2090337502141
 30
0.0
  0
POINT
  5
337
330
32C
100
AcDbEntity
  8
Defpoints
 62
0
440
16777216
100
AcDbPoint
 10
1043.993870967207
 20
391.2090337502141
 30
0.0
  0
ENDBLK
  5
32E
330
32C
100
AcDbEntity
  8
0
100
AcDbBlockEnd
  0
ENDSEC
  0
SECTION
  2
ENTITIES
  0
INSERT
  5
2F
330
17
100
AcDbEntity
  8
0
 62
7
100
AcDbBlockReference
 66
1
  2
khungtenAsean2
 10
0.0
 20
2083.724999991273
 30
0.0
 41
0.9922499999956926
 42
0.9922499999956926
 43
0.9922499999956926
  0
ATTRIB
  5
30
330
2F
100
AcDbEntity
  8
0
 62
1
100
AcDbText
 10
2861.4150402952982
 20
32.39914533723277
 30
0.0
 40
24.80625
  1
......
  7
Tahoma (Input Text)
 72
1
 11
2892.4020282066467
 21
32.39914533723277
 31
0.0
100
AcDbAttribute
  2
#11
 70
0
 71
1
 72
0
 11
2892.4020282066467
 21
32.39914533723277
 31
0.0
  0
ATTRIB
  5
31
330
2F
100
AcDbEntity
  8
0
 62
1
100
AcDbText
 10
2130.079920911936
 20
78.11467118987275
 30
0.0
 40
24.80625
  1
Tủ trong nhà, Panel, Tai treo chữ V bắt ốc
  7
Tahoma (Input Text)
100
AcDbAttribute
  2
#09
 70
0
 71
1
 72
0
  0
ATTRIB
  5
32
330
2F
100
AcDbEntity
  8
0
 62
1
100
AcDbText
 10
2130.079920911936
 20
18.57967118988381
 30
0.0
 40
24.80625
  1
Sơn màu RAL7035W
  7
Tahoma (Input Text)
100
AcDbAttribute
  2
#10
 70
0
 71
1
 72
0
  0
ATTRIB
  5
33
330
2F
100
AcDbEntity
  8
0
 62
1
100
AcDbText
 10
1803.362545548901
 20
18.57967118988381
 30
0.0
 40
24.80625
  1
1.5
  7
Tahoma (Input Text)
100
AcDbAttribute
  2
#08
 70
0
 71
1
 72
0
  0
ATTRIB
  5
34
330
2F
100
AcDbEntity
  8
0
 62
1
100
AcDbText
 10
1820.4627286205268
 20
78.11467118987275
 30
0.0
 40
24.80625
  1
05
  7
Tahoma (Input Text)
100
AcDbAttribute
  2
#07
 70
0
 71
1
 72
0
  0
ATTRIB
  5
35
330
2F
100
AcDbEntity
  8
0
 62
1
100
AcDbText
 10
1057.0745747527826
 20
18.57967118988381
 30
0.0
 40
24.80625
  1
900x700x250
  7
Tahoma (Input Text)
100
AcDbAttribute
  2
#06
 70
0
 71
1
 72
0
  0
ATTRIB
  5
36
330
2F
100
AcDbEntity
  8
0
 62
1
100
AcDbText
 10
1098.0518087494638
 20
78.11467118987275
 30
0.0
 40
24.80625
  1
Vỏ tủ điện
  7
Tahoma (Input Text)
100
AcDbAttribute
  2
#05
 70
0
 71
1
 72
0
  0
ATTRIB
  5
37
330
2F
100
AcDbEntity
  8
0
 62
1
100
AcDbText
 10
482.3377130462095
 20
18.57967118988381
 30
0.0
 40
24.80625
  1
......
  7
Tahoma (Input Text)
100
AcDbAttribute
  2
#04
 70
0
 71
1
 72
0
  0
ATTRIB
  5
38
330
2F
100
AcDbEntity
  8
0
 62
1
100
AcDbText
 10
502.6448256423673
 20
80.0729869053539
 30
0.0
 40
24.80625
  1
anh Quyết
  7
Tahoma (Input Text)
100
AcDbAttribute
  2
#03
 70
0
 71
1
 72
0
  0
ATTRIB
  5
39
330
2F
100
AcDbEntity
  8
0
 62
1
100
AcDbText
 10
97.69368488826785
 20
18.57967118988381
 30
0.0
 40
24.80625
  1
......
  7
Tahoma (Input Text)
100
AcDbAttribute
  2
#02
 70
0
 71
1
 72
0
  0
ATTRIB
  5
3A
330
2F
100
AcDbEntity
  8
0
 62
1
100
AcDbText
 10
135.9913431517698
 20
78.11467118987275
 30
0.0
 40
24.80625
  1
An
  7
Tahoma (Input Text)
100
AcDbAttribute
  2
#01
 70
0
 71
1
 72
0
  0
SEQEND
  5
3B
330
17
100
AcDbEntity
  8
0
 62
7
  0
LWPOLYLINE
  5
3C
330
17
100
AcDbEntity
  8
BMS_TEXT
100
AcDbPolyline
 90
4
 70
1
 10
1088.5677286808404
 20
1886.328478517904
 10
1788.5677286808404
 20
1886.328478517904
 10
1788.5677286808404
 20
986.3284785179039
 10
1088.5677286808404
 20
986.3284785179039
  0
LWPOLYLINE
  5
3D
330
17
100
AcDbEntity
  8
BMS_TEXT
100
AcDbPolyline
 90
4
 70
1
 10
1123.5677286808404
 20
1856.328478517904
 10
1753.5677286808414
 20
1856.328478517904
 10
1753.5677286808414
 20
1016.3284785179039
 10
1123.5677286808404
 20
1016.3284785179039
  0
LWPOLYLINE
  5
3E
330
17
100
AcDbEntity
  8
BMS_TEXT
100
AcDbPolyline
 90
2
 70
0
 10
1765.0677286808404
 20
1703.828478517904
 10
1765.0677286808404
 20
1168.828478517913
  0
LINE
  5
3F
330
17
100
AcDbEntity
  8
BMS_TEXT
100
AcDbLine
 10
1765.0677286808404
 20
1083.828478517913
 30
0.0
 11
1765.0677286808404
 21
1004.8284785179039
 31
0.0
  0
LINE
  5
40
330
17
100
AcDbEntity
  8
BMS_TEXT
100
AcDbLine
 10
1765.0677286808404
 20
1004.8284785179039
 30
0.0
 11
1112.0677286808414
 21
1004.8284785179039
 31
0.0
  0
LINE
  5
41
330
17
100
AcDbEntity
  8
BMS_TEXT
100
AcDbLine
 10
1112.0677286808414
 20
1867.828478517904
 30
0.0
 11
1765.0677286808404
 21
1867.828478517904
 31
0.0
  0
LINE
  5
42
330
17
100
AcDbEntity
  8
BMS_TEXT
100
AcDbLine
 10
1765.0677286808404
 20
1867.828478517904
 30
0.0
 11
1765.0677286808404
 21
1788.828478517904
 31
0.0
  0
LWPOLYLINE
  5
43
330
17
100
AcDbEntity
  8
0
  6
HIDDEN
 62
7
100
AcDbPolyline
 90
4
 70
1
 10
1090.0677286808404
 20
1884.828478517904
 10
1787.0677286808404
 20
1884.828478517904
 10
1787.0677286808404
 20
987.8284785179039
 10
1090.0677286808404
 20
987.8284785179039
  0
INSERT
  5
44
330
17
100
AcDbEntity
  8
0
 62
7
100
AcDbBlockReference
  2
HL011-1-5
 10
1762.0677286808404
 20
1708.828478517904
 30
0.0
  0
INSERT
  5
46
330
17
100
AcDbEntity
  8
BMS_TEXT
100
AcDbBlockReference
  2
A$C72AE6952
 10
1760.567729066147
 20
1774.0784791625829
 30
0.0
 50
270.0
  0
INSERT
  5
48
330
17
100
AcDbEntity
  8
BMS_TEXT
100
AcDbBlockReference
  2
A$C72AE6952
 10
1760.567729066147
 20
1749.0784791625829
 30
0.0
 50
270.0
  0
INSERT
  5
4A
330
17
100
AcDbEntity
  8
BMS_TEXT
100
AcDbBlockReference
  2
A$C72AE6952
 10
1760.567729066147
 20
1724.0784791625829
 30
0.0
 50
270.0
  0
INSERT
  5
4C
330
17
100
AcDbEntity
  8
0
 62
7
100
AcDbBlockReference
  2
HL011-1-5
 10
1762.0677286808404
 20
1163.828478517913
 30
0.0
 41
-1.0
 50
180.0
  0
INSERT
  5
4E
330
17
100
AcDbEntity
  8
BMS_TEXT
100
AcDbBlockReference
  2
A$C72AE6952
 10
1760.567729066147
 20
1098.578477873234
 30
0.0
 41
-1.0
 50
270.0
  0
INSERT
  5
50
330
17
100
AcDbEntity
  8
BMS_TEXT
100
AcDbBlockReference
  2
A$C72AE6952
 10
1760.567729066147
 20
1123.578477873234
 30
0.0
 41
-1.0
 50
270.0
  0
INSERT
  5
52
330
17
100
AcDbEntity
  8
BMS_TEXT
100
AcDbBlockReference
  2
A$C72AE6952
 10
1760.567729066147
 20
1148.578477873234
 30
0.0
 41
-1.0
 50
270.0
  0
LWPOLYLINE
  5
54
330
17
100
AcDbEntity
  8
BMS_TEXT
100
AcDbPolyline
 90
4
 70
1
 10
138.83349557009115
 20
1886.328478517904
 10
838.8334955700911
 20
1886.328478517904
 10
838.8334955700911
 20
986.3284785179039
 10
138.83349557009115
 20
986.3284785179039
  0
LWPOLYLINE
  5
55
330
17
100
AcDbEntity
  8
0
  6
HIDDEN
 62
7
100
AcDbPolyline
 90
4
 70
1
 10
140.33349557009115
 20
1884.828478517904
 10
837.3334955700911
 20
1884.828478517904
 10
837.3334955700911
 20
987.8284785179039
 10
140.33349557009115
 20
987.8284785179039
  0
LWPOLYLINE
  5
56
330
17
100
AcDbEntity
  8
0
 62
7
100
AcDbPolyline
 90
20
 70
1
 10
2028.5138952422121
 20
987.8284785179039
 10
2255.513895242211
 20
987.8284785179039
 10
2255.513895242211
 20
1016.3284785179039
 10
2273.513895242212
 20
1016.3284785179039
 10
2273.513895242212
 20
1004.8284785179039
 10
2272.013895242212
 20
1004.8284785179039
 10
2272.013895242212
 20
1014.8284785179039
 10
2257.013895242211
 20
1014.8284785179039
 10
2257.013895242211
 20
986.3284785179039
 10
2027.0138952422121
 20
986.3284785179039
 10
2027.0138952422194
 20
1886.328478517904
 10
2257.0138952422194
 20
1886.328478517904
 10
2257.0138952422194
 20
1857.828478517904
 10
2272.0138952422194
 20
1857.828478517904
 10
2272.0138952422194
 20
1867.828478517904
 10
2273.5138952422194
 20
1867.828478517904
 10
2273.5138952422194
 20
1856.328478517904
 10
2255.5138952422194
 20
1856.328478517904
 10
2255.5138952422194
 20
1884.828478517904
 10
2028.5138952422194
 20
1884.828478517904
  0
LWPOLYLINE
  5
57
330
17
100
AcDbEntity
  8
0
 62
7
100
AcDbPolyline
 90
12
 70
1
 10
2258.513895242212
 20
996.8284785179039
 10
2258.513895242212
 20
987.3284785179039
 10
2276.513895242212
 20
987.3284785179039
 10
2276.5138952422194
 20
1885.328478517904
 10
2258.5138952422194
 20
1885.328478517904
 10
2258.5138952422194
 20
1875.828478517904
 10
2260.0138952422194
 20
1875.828478517904
 10
2260.0138952422194
 20
1883.828478517904
 10
2275.0138952422194
 20
1883.828478517904
 10
2275.013895242212
 20
988.8284785179039
 10
2260.013895242212
 20
988.8284785179039
 10
2260.013895242212
 20
996.8284785179039
  0
INSERT
  5
58
330
17
100
AcDbEntity
  8
0
 62
7
100
AcDbBlockReference
  2
AB301-2-1
 10
549.8334955701057
 20
1471.578478517904
 30
0.0
  0
LINE
  5
5A
330
17
100
AcDbEntity
  8
0
100
AcDbLine
 10
488.83349557009115
 20
986.3284785179039
 30
0.0
 11
488.83349557009115
 21
1886.328478517904
 31
0.0
  0
MTEXT
  5
5B
330
17
100
AcDbEntity
  8
0
 62
7
100
AcDbMText
 10
1436.5951698703939
 20
833.5090330894145
 30
0.0
 40
35.0
 41
999.9999999999995
 46
178.9611414472261
 71
2
 72
5
  1
{\LBÊN TRONG TỦ}
  0
MTEXT
  5
5C
330
17
100
AcDbEntity
  8
0
 62
7
100
AcDbMText
 10
2140.0413364317637
 20
833.5090330894145
 30
0.0
 40
35.0
 41
999.9999999999995
 46
178.9611414472261
 71
2
 72
5
  1
{\LHÔNG TRÁI}
  0
LWPOLYLINE
  5
5D
330
17
100
AcDbEntity
  8
0
 62
7
100
AcDbPolyline
 90
20
 70
1
 10
2713.4394904212168
 20
987.8284785179039
 10
2486.439490421216
 20
987.8284785179039
 10
2486.439490421216
 20
1016.3284785179039
 10
2468.4394904212168
 20
1016.3284785179039
 10
2468.4394904212168
 20
1004.8284785179039
 10
2469.9394904212168
 20
1004.8284785179039
 10
2469.9394904212168
 20
1014.8284785179039
 10
2484.939490421216
 20
1014.8284785179039
 10
2484.939490421216
 20
986.3284785179039
 10
2714.939490421216
 20
986.3284785179039
 10
2714.939490421216
 20
1886.328478517904
 10
2484.939490421216
 20
1886.328478517904
 10
2484.939490421216
 20
1857.828478517904
 10
2469.9394904212168
 20
1857.828478517904
 10
2469.9394904212168
 20
1867.828478517904
 10
2468.4394904212168
 20
1867.828478517904
 10
2468.4394904212168
 20
1856.328478517904
 10
2486.439490421216
 20
1856.328478517904
 10
2486.439490421216
 20
1884.828478517904
 10
2713.4394904212168
 20
1884.828478517904
  0
LWPOLYLINE
  5
5E
330
17
100
AcDbEntity
  8
0
 62
7
100
AcDbPolyline
 90
12
 70
1
 10
2483.439490421216
 20
996.8284785179039
 10
2483.439490421216
 20
987.3284785179039
 10
2465.439490421216
 20
987.3284785179039
 10
2465.439490421216
 20
1885.328478517904
 10
2483.439490421216
 20
1885.328478517904
 10
2483.439490421216
 20
1875.828478517904
 10
2481.939490421216
 20
1875.828478517904
 10
2481.939490421216
 20
1883.828478517904
 10
2466.939490421216
 20
1883.828478517904
 10
2466.939490421216
 20
988.8284785179039
 10
2481.939490421216
 20
988.8284785179039
 10
2481.939490421216
 20
996.8284785179039
  0
MTEXT
  5
5F
330
17
100
AcDbEntity
  8
0
 62
7
100
AcDbMText
 10
1436.5951698703939
 20
310.6897812414536
 30
0.0
 40
35.0
 41
999.9999999999995
 46
178.9611414472261
 71
2
 72
5
  1
{\LMẶT ĐÁY TỦ}
  0
DIMENSION
  5
60
330
17
100
AcDbEntity
  8
DIM
100
AcDbDimension
280
0
  2
*D1
  3
Dim-25
 10
1788.5677286808404
 20
877.2832490951932
 30
0.0
 11
1438.5677286808414
 21
900.0475737882334
 31
0.0
 70
32
 71
5
 42
700.0
 73
0
 74
0
 75
0
100
AcDbAlignedDimension
 13
1088.5677286808404
 23
986.3284785179039
 33
0.0
 14
1788.5677286808404
 24
986.3284785179039
 34
0.0
 50
0.0
100
AcDbRotatedDimension
  0
DIMENSION
  5
65
330
17
100
AcDbEntity
  8
DIM
100
AcDbDimension
280
0
  2
*D2
  3
Dim-25
 10
1856.1000790673415
 20
986.3284785179039
 30
0.0
 11
1833.3357543742968
 21
1436.328478517913
 31
0.0
 70
32
 71
5
 42
900.0
 73
0
 74
0
 75
0
100
AcDbAlignedDimension
 13
1788.5677286808404
 23
1886.328478517904
 33
0.0
 14
1788.5677286808404
 24
986.3284785179039
 34
0.0
 50
90.0
100
AcDbRotatedDimension
  0
DIMENSION
  5
66
330
17
100
AcDbEntity
  8
DIM
100
AcDbDimension
280
0
  2
*D3
  3
Dim-25
 10
2276.513895242212
 20
877.2832490951932
 30
0.0
 11
2151.7638952422158
 21
900.0475737882334
 31
0.0
 70
32
 71
5
 42
249.4999999999927
 73
0
 74
0
 75
0
100
AcDbAlignedDimension
 13
2027.0138952422194
 23
946.3284785179039
 33
0.0
 14
2276.513895242212
 24
987.3284785179039
 34
0.0
 50
0.0
100
AcDbRotatedDimension
  0
DIMENSION
  5
67
330
17
100
AcDbEntity
  8
DIM
100
AcDbDimension
280
0
  2
*D4
  3
Dim-25
 10
2465.439490421216
 20
877.2832490951932
 30
0.0
 11
2590.1894904212168
 21
900.0475737882334
 31
0.0
 70
32
 71
5
 42
249.5
 73
0
 74
0
 75
0
100
AcDbAlignedDimension
 13
2714.939490421216
 23
946.3284785179039
 33
0.0
 14
2465.439490421216
 24
987.3284785179039
 34
0.0
 50
0.0
100
AcDbRotatedDimension
  0
LWPOLYLINE
  5
68
330
17
100
AcDbEntity
  8
0
100
AcDbPolyline
 90
4
 70
0
 10
1765.0677286808404
 20
1083.828478517913
 10
1755.0677286808414
 20
1083.828478517913
 10
1755.0677286808414
 20
1168.828478517913
 10
1765.0677286808404
 20
1168.828478517913
  0
LWPOLYLINE
  5
69
330
17
100
AcDbEntity
  8
0
100
AcDbPolyline
 90
4
 70
0
 10
1765.0677286808404
 20
1703.828478517904
 10
1755.0677286808414
 20
1703.828478517904
 10
1755.0677286808414
 20
1788.828478517904
 10
1765.0677286808404
 20
1788.828478517904
  0
LWPOLYLINE
  5
6A
330
17
100
AcDbEntity
  8
0
 62
7
100
AcDbPolyline
 90
20
 70
1
 10
140.33349557009115
 20
619.7090337502141
 10
140.33349557009115
 20
392.7090337502141
 10
173.83349557009115
 20
392.7090337502141
 10
173.83349557009115
 20
374.7090337502141
 10
162.33349557009115
 20
374.7090337502141
 10
162.33349557009115
 20
376.2090337502141
 10
172.33349557009115
 20
376.2090337502141
 10
172.33349557009115
 20
391.2090337502141
 10
138.83349557009115
 20
391.2090337502141
 10
138.83349557009115
 20
621.2090337502141
 10
838.8334955700911
 20
621.2090337502141
 10
838.8334955700911
 20
391.2090337502141
 10
805.3334955700911
 20
391.2090337502141
 10
805.3334955700911
 20
376.2090337502141
 10
815.3334955700902
 20
376.2090337502141
 10
815.3334955700902
 20
374.7090337502141
 10
803.8334955700911
 20
374.7090337502141
 10
803.8334955700911
 20
392.7090337502141
 10
837.3334955700911
 20
392.7090337502141
 10
837.3334955700911
 20
619.7090337502141
  0
INSERT
  5
6B
330
17
100
AcDbEntity
  8
0
 62
2
100
AcDbBlockReference
  2
A$C260D6B89
 10
811.3335031308734
 20
391.2090350073031
 30
0.0
 41
-1.0
 50
180.0
  0
LWPOLYLINE
  5
6D
330
17
100
AcDbEntity
  8
0
 62
7
100
AcDbPolyline
 90
12
 70
1
 10
499.33349557009115
 20
389.7090337502141
 10
489.83349557009115
 20
389.7090337502141
 10
489.83349557009115
 20
371.7090337502141
 10
837.8334955700902
 20
371.7090337502141
 10
837.8334955700902
 20
389.7090337502141
 10
828.3334955700902
 20
389.7090337502141
 10
828.3334955700902
 20
388.2090337502141
 10
836.3334955700911
 20
388.2090337502141
 10
836.3334955700911
 20
373.2090337502141
 10
491.33349557009115
 20
373.2090337502141
 10
491.33349557009115
 20
388.2090337502141
 10
499.33349557009115
 20
388.2090337502141
  0
LWPOLYLINE
  5
6E
330
17
100
AcDbEntity
  8
0
  6
HIDDENX2
 62
2
100
AcDbPolyline
 90
8
 70
1
 10
383.83349557009115
 20
591.2090337502141
 10
593.8334955700911
 20
591.2090337502141
 42
-0.4142135623730951
 10
603.8334955700902
 20
581.2090337502141
 10
603.8334955700902
 20
511.2090337502141
 42
-0.4142135623730951
 10
593.8334955700911
 20
501.2090337502141
 10
383.83349557009115
 20
501.2090337502141
 42
-0.4142135623730931
 10
373.83349557009115
 20
511.2090337502141
 10
373.83349557009115
 20
581.2090337502141
 42
-0.4142135623730951
  0
LWPOLYLINE
  5
6F
330
17
100
AcDbEntity
  8
0
 62
7
100
AcDbPolyline
 90
4
 70
1
 10
353.83349557009024
 20
611.2090337502141
 10
623.8334955700911
 20
611.2090337502141
 10
623.8334955700911
 20
481.2090337502141
 10
353.83349557009024
 20
481.2090337502141
  0
LWPOLYLINE
  5
70
330
17
100
AcDbEntity
  8
0
 62
2
100
AcDbPolyline
 90
4
 70
1
 10
369.08349557009024
 20
595.9590337502141
 10
360.08349557009115
 20
595.9590337502141
 10
360.08349557009115
 20
604.9590337502141
 10
369.08349557009024
 20
604.9590337502141
  0
CIRCLE
  5
71
330
17
100
AcDbEntity
  8
0
 62
7
100
AcDbCircle
 10
364.58349557009115
 20
600.4590337502141
 30
0.0
 40
4.0
  0
CIRCLE
  5
72
330
17
100
AcDbEntity
  8
0
 62
7
100
AcDbCircle
 10
613.0834955700911
 20
600.4590337502141
 30
0.0
 40
4.0
  0
CIRCLE
  5
73
330
17
100
AcDbEntity
  8
0
 62
7
100
AcDbCircle
 10
364.58349557009115
 20
491.9590337502141
 30
0.0
 40
4.0
  0
CIRCLE
  5
74
330
17
100
AcDbEntity
  8
0
 62
7
100
AcDbCircle
 10
613.0834955700911
 20
491.9590337502141
 30
0.0
 40
4.0
  0
LWPOLYLINE
  5
75
330
17
100
AcDbEntity
  8
0
 62
2
100
AcDbPolyline
 90
4
 70
1
 10
369.08349557009024
 20
487.4590337502141
 10
360.08349557009115
 20
487.4590337502141
 10
360.08349557009115
 20
496.4590337502141
 10
369.08349557009024
 20
496.4590337502141
  0
LWPOLYLINE
  5
76
330
17
100
AcDbEntity
  8
0
 62
2
100
AcDbPolyline
 90
4
 70
1
 10
617.5834955700911
 20
487.4590337502141
 10
608.5834955700911
 20
487.4590337502141
 10
608.5834955700911
 20
496.4590337502141
 10
617.5834955700911
 20
496.4590337502141
  0
LWPOLYLINE
  5
77
330
17
100
AcDbEntity
  8
0
 62
2
100
AcDbPolyline
 90
4
 70
1
 10
617.5834955700911
 20
595.9590337502141
 10
608.5834955700911
 20
595.9590337502141
 10
608.5834955700911
 20
604.9590337502141
 10
617.5834955700911
 20
604.9590337502141
  0
DIMENSION
  5
78
330
17
100
AcDbEntity
  8
DIM
100
AcDbDimension
280
0
  2
*D5
  3
Dim-25
 10
906.3658459565931
 20
371.7090337502141
 30
0.0
 11
883.6015212635493
 21
496.4590337502141
 31
0.0
 70
32
 71
5
 42
249.5
 73
0
 74
0
 75
0
100
AcDbAlignedDimension
 13
838.8334955700911
 23
621.2090337502141
 33
0.0
 14
837.8334955700902
 24
371.7090337502141
 34
0.0
 50
90.0
100
AcDbRotatedDimension
  0
INSERT
  5
79
330
17
100
AcDbEntity
  8
0
 62
2
100
AcDbBlockReference
  2
A$C260D6B89
 10
166.3334880093089
 20
391.2090350073031
 30
0.0
 50
180.0
  0
LWPOLYLINE
  5
7B
330
17
100
AcDbEntity
  8
0
 62
7
100
AcDbPolyline
 90
12
 70
1
 10
499.83349557009024
 20
391.2090337502141
 10
486.33349557009115
 20
391.2090337502141
 10
486.33349557009115
 20
373.2090337502141
 10
141.33349557009115
 20
373.2090337502141
 10
141.33349557009115
 20
388.2090337502141
 10
149.33349557009024
 20
388.2090337502141
 10
149.33349557009024
 20
389.7090337502141
 10
139.83349557009115
 20
389.7090337502141
 10
139.83349557009115
 20
371.7090337502141
 10
487.83349557009024
 20
371.7090337502141
 10
487.83349557009024
 20
389.7090337502141
 10
499.83349557009024
 20
389.7090337502141
  0
INSERT
  5
7C
330
17
100
AcDbEntity
  8
0
 62
7
100
AcDbBlockReference
  2
HL035-1-2
 10
474.83349557009115
 20
1004.3284785179039
 30
0.0
 41
-1.0
  0
LWPOLYLINE
  5
7E
330
17
100
AcDbEntity
  8
0
  6
HIDDEN
 62
7
100
AcDbPolyline
 90
4
 70
1
 10
484.33349557009115
 20
1091.328478517904
 10
451.33349557009115
 20
1091.328478517904
 10
451.33349557009115
 20
1021.3284785179039
 10
484.33349557009115
 20
1021.3284785179039
  0
INSERT
  5
7F
330
17
100
AcDbEntity
  8
0
 62
7
100
AcDbBlockReference
  2
HL035-1-2
 10
474.83349557009115
 20
1868.328478517904
 30
0.0
 50
180.0
  0
LWPOLYLINE
  5
81
330
17
100
AcDbEntity
  8
0
  6
HIDDEN
 62
7
100
AcDbPolyline
 90
4
 70
1
 10
484.33349557009115
 20
1781.328478517904
 10
451.33349557009115
 20
1781.328478517904
 10
451.33349557009115
 20
1851.328478517904
 10
484.33349557009115
 20
1851.328478517904
  0
LWPOLYLINE
  5
82
330
17
100
AcDbEntity
  8
0
100
AcDbPolyline
 90
8
 70
1
 10
482.83349557009115
 20
373.2090337502141
 10
482.83349557009115
 20
389.2090337502141
 10
452.83349557009115
 20
389.2090337502141
 10
452.83349557009115
 20
373.2090337502141
 10
451.33349557009115
 20
373.2090337502141
 10
451.33349557009115
 20
390.7090337502141
 10
484.33349557009115
 20
390.7090337502141
 10
484.33349557009115
 20
373.2090337502141
  0
INSERT
  5
83
330
17
100
AcDbEntity
  8
0
 62
7
100
AcDbBlockReference
  2
HL035-1-4
 10
474.83349557009115
 20
395.2090337502141
 30
0.0
 50
180.0
  0
CIRCLE
  5
85
330
17
100
AcDbEntity
  8
0
100
AcDbCircle
 10
474.83349557009115
 20
395.20903375022317
 30
0.0
 40
3.0
  0
LWPOLYLINE
  5
86
330
17
100
AcDbEntity
  8
0
 62
7
100
AcDbPolyline
 90
20
 70
1
 10
1090.0677286808404
 20
619.7090337502141
 10
1090.0677286808404
 20
392.7090337502141
 10
1123.5677286808404
 20
392.7090337502141
 10
1123.5677286808404
 20
374.7090337502141
 10
1112.0677286808414
 20
374.7090337502141
 10
1112.0677286808414
 20
376.2090337502141
 10
1122.0677286808404
 20
376.2090337502141
 10
1122.0677286808404
 20
391.2090337502141
 10
1088.5677286808404
 20
391.2090337502141
 10
1088.5677286808404
 20
621.2090337502141
 10
1788.5677286808404
 20
621.2090337502141
 10
1788.5677286808404
 20
391.2090337502141
 10
1755.0677286808414
 20
391.2090337502141
 10
1755.0677286808414
 20
376.2090337502141
 10
1765.0677286808404
 20
376.2090337502141
 10
1765.0677286808404
 20
374.7090337502141
 10
1753.5677286808414
 20
374.7090337502141
 10
1753.5677286808414
 20
392.7090337502141
 10
1787.0677286808404
 20
392.7090337502141
 10
1787.0677286808404
 20
619.7090337502141
  0
INSERT
  5
87
330
17
100
AcDbEntity
  8
0
 62
2
100
AcDbBlockReference
  2
A$C260D6B89
 10
1761.0677362416236
 20
391.2090350073031
 30
0.0
 41
-1.0
 50
180.0
  0
LWPOLYLINE
  5
89
330
17
100
AcDbEntity
  8
0
 62
7
100
AcDbPolyline
 90
12
 70
1
 10
1449.0677286808414
 20
389.7090337502141
 10
1439.5677286808414
 20
389.7090337502141
 10
1439.5677286808414
 20
371.7090337502141
 10
1787.5677286808414
 20
371.7090337502141
 10
1787.5677286808414
 20
389.7090337502141
 10
1778.0677286808423
 20
389.7090337502141
 10
1778.0677286808423
 20
388.2090337502141
 10
1786.0677286808414
 20
388.2090337502141
 10
1786.0677286808414
 20
373.2090337502141
 10
1441.0677286808414
 20
373.2090337502141
 10
1441.0677286808414
 20
388.2090337502141
 10
1449.0677286808414
 20
388.2090337502141
  0
LWPOLYLINE
  5
8A
330
17
100
AcDbEntity
  8
0
 62
8
100
AcDbPolyline
 90
8
 70
1
 10
1751.0677286808414
 20
619.7090337502141
 10
1752.5677286808414
 20
619.7090337502141
 10
1752.5677286808414
 20
598.2090337502141
 10
1124.5677286808414
 20
598.2090337502141
 10
1124.5677286808414
 20
619.7090337502141
 10
1126.0677286808414
 20
619.7090337502141
 10
1126.0677286808414
 20
599.7090337502141
 10
1751.0677286808414
 20
599.7090337502141
  0
DIMENSION
  5
8B
330
17
100
AcDbEntity
  8
DIM
100
AcDbDimension
280
0
  2
*D6
  3
Dim-25
 10
1856.1000790673488
 20
371.7090337502141
 30
0.0
 11
1833.335754374306
 21
496.4590337502141
 31
0.0
 70
32
 71
5
 42
249.5
 73
0
 74
0
 75
0
100
AcDbAlignedDimension
 13
1788.5677286808404
 23
621.2090337502141
 33
0.0
 14
1787.5677286808414
 24
371.7090337502141
 34
0.0
 50
90.0
100
AcDbRotatedDimension
  0
INSERT
  5
8C
330
17
100
AcDbEntity
  8
0
 62
2
100
AcDbBlockReference
  2
A$C260D6B89
 10
1116.06772112006
 20
391.2090350073031
 30
0.0
 50
180.0
  0
LWPOLYLINE
  5
8E
330
17
100
AcDbEntity
  8
0
 62
7
100
AcDbPolyline
 90
12
 70
1
 10
1449.5677286808414
 20
391.2090337502141
 10
1436.0677286808404
 20
391.2090337502141
 10
1436.0677286808404
 20
373.2090337502141
 10
1091.0677286808486
 20
373.2090337502141
 10
1091.0677286808486
 20
388.2090337502141
 10
1099.0677286808486
 20
388.2090337502141
 10
1099.0677286808486
 20
389.7090337502141
 10
1089.5677286808486
 20
389.7090337502141
 10
1089.5677286808486
 20
371.7090337502141
 10
1437.5677286808404
 20
371.7090337502141
 10
1437.5677286808404
 20
389.7090337502141
 10
1449.5677286808414
 20
389.7090337502141
  0
LWPOLYLINE
  5
8F
330
17
100
AcDbEntity
  8
0
100
AcDbPolyline
 90
8
 70
1
 10
1432.5677286808414
 20
373.2090337502141
 10
1432.5677286808414
 20
389.2090337502141
 10
1402.5677286808404
 20
389.2090337502141
 10
1402.5677286808404
 20
373.2090337502141
 10
1401.0677286808404
 20
373.2090337502141
 10
1401.0677286808404
 20
390.7090337502141
 10
1434.0677286808414
 20
390.7090337502141
 10
1434.0677286808414
 20
373.2090337502141
  0
INSERT
  5
90
330
17
100
AcDbEntity
  8
0
 62
7
100
AcDbBlockReference
  2
HL035-1-4
 10
1424.5677286808414
 20
395.2090337502141
 30
0.0
 50
180.0
  0
CIRCLE
  5
92
330
17
100
AcDbEntity
  8
0
100
AcDbCircle
 10
1424.5677286808414
 20
395.20903375022317
 30
0.0
 40
3.0
  0
LWPOLYLINE
  5
93
330
17
100
AcDbEntity
  8
BMS_TEXT
100
AcDbPolyline
 90
2
 70
0
 10
1112.0677286808414
 20
1703.828478517904
 10
1112.0677286808414
 20
1168.828478517913
  0
LINE
  5
94
330
17
100
AcDbEntity
  8
BMS_TEXT
100
AcDbLine
 10
1112.0677286808414
 20
1083.828478517913
 30
0.0
 11
1112.0677286808414
 21
1004.8284785179039
 31
0.0
  0
LINE
  5
95
330
17
100
AcDbEntity
  8
BMS_TEXT
100
AcDbLine
 10
1112.0677286808414
 20
1867.828478517904
 30
0.0
 11
1112.0677286808414
 21
1788.828478517904
 31
0.0
  0
INSERT
  5
96
330
17
100
AcDbEntity
  8
0
 62
7
100
AcDbBlockReference
  2
HL011-1-5
 10
1115.0677286808414
 20
1708.828478517904
 30
0.0
 41
-1.0
  0
INSERT
  5
98
330
17
100
AcDbEntity
  8
BMS_TEXT
100
AcDbBlockReference
  2
A$C72AE6952
 10
1116.5677282955367
 20
1774.0784791625829
 30
0.0
 41
-1.0
 50
90.0
  0
INSERT
  5
9A
330
17
100
AcDbEntity
  8
BMS_TEXT
100
AcDbBlockReference
  2
A$C72AE6952
 10
1116.5677282955367
 20
1749.0784791625829
 30
0.0
 41
-1.0
 50
90.0
  0
INSERT
  5
9C
330
17
100
AcDbEntity
  8
BMS_TEXT
100
AcDbBlockReference
  2
A$C72AE6952
 10
1116.5677282955367
 20
1724.0784791625829
 30
0.0
 41
-1.0
 50
90.0
  0
INSERT
  5
9E
330
17
100
AcDbEntity
  8
0
 62
7
100
AcDbBlockReference
  2
HL011-1-5
 10
1115.0677286808414
 20
1163.828478517913
 30
0.0
 50
180.0
  0
INSERT
  5
A0
330
17
100
AcDbEntity
  8
BMS_TEXT
100
AcDbBlockReference
  2
A$C72AE6952
 10
1116.5677282955367
 20
1098.578477873234
 30
0.0
 50
90.0
  0
INSERT
  5
A2
330
17
100
AcDbEntity
  8
BMS_TEXT
100
AcDbBlockReference
  2
A$C72AE6952
 10
1116.5677282955367
 20
1123.578477873234
 30
0.0
 50
90.0
  0
INSERT
  5
A4
330
17
100
AcDbEntity
  8
BMS_TEXT
100
AcDbBlockReference
  2
A$C72AE6952
 10
1116.5677282955367
 20
1148.578477873234
 30
0.0
 50
90.0
  0
LWPOLYLINE
  5
A6
330
17
100
AcDbEntity
  8
0
100
AcDbPolyline
 90
4
 70
0
 10
1112.0677286808414
 20
1083.828478517913
 10
1122.0677286808404
 20
1083.828478517913
 10
1122.0677286808404
 20
1168.828478517913
 10
1112.0677286808414
 20
1168.828478517913
  0
LWPOLYLINE
  5
A7
330
17
100
AcDbEntity
  8
0
100
AcDbPolyline
 90
4
 70
0
 10
1112.0677286808414
 20
1703.828478517904
 10
1122.0677286808404
 20
1703.828478517904
 10
1122.0677286808404
 20
1788.828478517904
 10
1112.0677286808414
 20
1788.828478517904
  0
INSERT
  5
A8
330
17
100
AcDbEntity
  8
0
100
AcDbBlockReference
  2
A$C6473644D
 10
1724.0677419248732
 20
600.7090330237843
 30
0.0
  0
INSERT
  5
AA
330
17
100
AcDbEntity
  8
0
100
AcDbBlockReference
  2
A$C6473644D
 10
1153.0677154368086
 20
600.7090330237843
 30
0.0
 41
-1.0
  0
LWPOLYLINE
  5
AC
330
17
100
AcDbEntity
  8
0
 62
8
100
AcDbPolyline
 90
8
 70
1
 10
2028.5138952422194
 20
1849.828478517904
 10
2028.5138952422194
 20
1851.328478517904
 10
2050.0138952422203
 20
1851.328478517904
 10
2050.0138952422203
 20
1021.3284785179039
 10
2028.5138952422194
 20
1021.3284785179039
 10
2028.5138952422194
 20
1022.8284785179039
 10
2048.5138952422203
 20
1022.8284785179039
 10
2048.5138952422203
 20
1849.828478517904
  0
INSERT
  5
AD
330
17
100
AcDbEntity
  8
0
100
AcDbBlockReference
  2
A$C6473644D
 10
2047.513895968652
 20
1822.828491761944
 30
0.0
 50
90.0
  0
INSERT
  5
AF
330
17
100
AcDbEntity
  8
0
100
AcDbBlockReference
  2
A$C6473644D
 10
2047.513895968652
 20
1049.828465273873
 30
0.0
 41
-1.0
 50
90.0
  0
LWPOLYLINE
  5
B1
330
17
100
AcDbEntity
  8
0
 62
8
100
AcDbPolyline
 90
8
 70
1
 10
2713.4394904212168
 20
1849.828478517904
 10
2713.4394904212168
 20
1851.328478517904
 10
2691.9394904212168
 20
1851.328478517904
 10
2691.9394904212168
 20
1021.3284785179039
 10
2713.4394904212168
 20
1021.3284785179039
 10
2713.4394904212168
 20
1022.8284785179039
 10
2693.4394904212168
 20
1022.8284785179039
 10
2693.4394904212168
 20
1849.828478517904
  0
INSERT
  5
B2
330
17
100
AcDbEntity
  8
0
100
AcDbBlockReference
  2
A$C6473644D
 10
2694.4394896947842
 20
1822.828491761944
 30
0.0
 41
-1.0
 50
270.0
  0
INSERT
  5
B4
330
17
100
AcDbEntity
  8
0
100
AcDbBlockReference
  2
A$C6473644D
 10
2694.4394896947842
 20
1049.828465273873
 30
0.0
 50
270.0
  0
INSERT
  5
B6
330
17
100
AcDbEntity
  8
0
 62
7
100
AcDbBlockReference
  2
ga tai lieu
 10
548.8334955700911
 20
1086.328478517904
 30
0.0
  0
DIMENSION
  5
B8
330
17
100
AcDbEntity
  8
DIM
100
AcDbDimension
280
0
  2
*D7
  3
Dim-25
 10
838.8334955700911
 20
877.2832490951932
 30
0.0
 11
488.83349557009115
 21
900.0475737882334
 31
0.0
 70
32
 71
5
 42
700.0
 73
0
 74
0
 75
0
100
AcDbAlignedDimension
 13
138.83349557009115
 23
986.3284785179039
 33
0.0
 14
838.8334955700911
 24
986.3284785179039
 34
0.0
 50
0.0
100
AcDbRotatedDimension
  0
DIMENSION
  5
B9
330
17
100
AcDbEntity
  8
DIM
100
AcDbDimension
280
0
  2
*D8
  3
Dim-25
 10
906.3658459565877
 20
986.3284785179039
 30
0.0
 11
883.6015212635439
 21
1436.328478517913
 31
0.0
 70
32
 71
5
 42
900.0
 73
0
 74
0
 75
0
100
AcDbAlignedDimension
 13
838.8334955700911
 23
1886.328478517904
 33
0.0
 14
838.8334955700911
 24
986.3284785179039
 34
0.0
 50
90.0
100
AcDbRotatedDimension
  0
CIRCLE
  5
BA
330
17
100
AcDbEntity
  8
0
 62
2
100
AcDbCircle
 10
313.83349557009024
 20
1706.328478517904
 30
0.0
 40
11.0
  0
DIMENSION
  5
BB
330
17
100
AcDbEntity
  8
DIM
100
AcDbDimension
280
0
  2
*D9
  3
Dim-25
 10
323.78105640797094
 20
1711.0237988878434
 30
0.0
 11
241.98240565707147
 21
1698.3601614769832
 31
0.0
 70
35
 71
5
 42
21.99999999998545
 73
0
 74
0
 75
0
100
AcDbDiametricDimension
 15
303.88593473219316
 25
1701.6331581479735
 35
0.0
 40
0.0
  0
DIMENSION
  5
BC
330
17
100
AcDbEntity
  8
DIM
100
AcDbDimension
280
0
  2
*D10
  3
Dim-25
 10
375.7061289255462
 20
1886.328478517904
 30
0.0
 11
352.94180423250145
 21
1796.328478517913
 31
0.0
 70
32
 71
5
 42
180.0
 73
0
 74
0
 75
0
100
AcDbAlignedDimension
 13
324.83349557009115
 23
1706.328478517904
 33
0.0
 14
324.83349557009115
 24
1886.328478517904
 34
0.0
 50
90.0
100
AcDbRotatedDimension
  0
DIMENSION
  5
BD
330
17
100
AcDbEntity
  8
DIM
100
AcDbDimension
280
0
  2
*D11
  3
Dim-25
 10
646.491656280904
 20
986.3284785179039
 30
0.0
 11
623.7273315878601
 21
1036.328478517913
 31
0.0
 70
32
 71
5
 42
100.0
 73
0
 74
0
 75
0
100
AcDbAlignedDimension
 13
646.4916562808712
 23
1086.328478517904
 33
0.0
 14
646.4916562808712
 24
986.3284785179039
 34
0.0
 50
90.0
100
AcDbRotatedDimension
  0
DIMENSION
  5
BE
330
17
100
AcDbEntity
  8
DIM
100
AcDbDimension
280
0
  2
*D12
  3
Dim-25
 10
488.83349557009115
 20
1969.1480955612242
 30
0.0
 11
313.83349557009024
 21
1991.9209468572644
 31
0.0
 70
32
 71
5
 42
350.0
 73
0
 74
0
 75
0
100
AcDbAlignedDimension
 13
138.83349557009115
 23
1886.328478517904
 33
0.0
 14
488.83349557009115
 24
1886.328478517904
 34
0.0
 50
0.0
100
AcDbRotatedDimension
  0
DIMENSION
  5
BF
330
17
100
AcDbEntity
  8
DIM
100
AcDbDimension
280
0
  2
*D13
  3
Dim-25
 10
838.8334955700911
 20
1969.1480955612242
 30
0.0
 11
663.8334955700911
 21
1991.9209468572644
 31
0.0
 70
32
 71
5
 42
350.0
 73
0
 74
0
 75
0
100
AcDbAlignedDimension
 13
488.83349557009115
 23
1886.328478517904
 33
0.0
 14
838.8334955700911
 24
1886.328478517904
 34
0.0
 50
0.0
100
AcDbRotatedDimension
  0
INSERT
  5
C0
330
17
100
AcDbEntity
  8
0
100
AcDbBlockReference
  2
A$C1AC1480A
 10
1124.567724358355
 20
1021.3284785636533
 30
0.0
  0
INSERT
  5
C2
330
17
100
AcDbEntity
  8
0
100
AcDbBlockReference
  2
A$C203E2ED1
 10
198.83349557009115
 20
1886.328488655934
 30
0.0
  0
INSERT
  5
C4
330
17
100
AcDbEntity
  8
0
100
AcDbBlockReference
  2
A$C203E2ED1
 10
778.8334955700902
 20
1886.328488655934
 30
0.0
 41
-1.0
  0
INSERT
  5
C6
330
17
100
AcDbEntity
  8
0
100
AcDbBlockReference
  2
A$C203E2ED1
 10
198.83349557009115
 20
986.3284683798738
 30
0.0
 41
-1.0
 50
180.0
  0
INSERT
  5
C8
330
17
100
AcDbEntity
  8
0
100
AcDbBlockReference
  2
A$C203E2ED1
 10
778.8334955700902
 20
986.3284683798738
 30
0.0
 50
180.0
  0
INSERT
  5
CA
330
17
100
AcDbEntity
  8
0
100
AcDbBlockReference
  2
A$C203E2ED1
 10
1148.5677286808414
 20
1886.328488655934
 30
0.0
  0
INSERT
  5
CC
330
17
100
AcDbEntity
  8
0
100
AcDbBlockReference
  2
A$C203E2ED1
 10
1728.5677286808414
 20
1886.328488655934
 30
0.0
 41
-1.0
  0
INSERT
  5
CE
330
17
100
AcDbEntity
  8
0
100
AcDbBlockReference
  2
A$C203E2ED1
 10
1148.5677286808414
 20
986.3284683798738
 30
0.0
 41
-1.0
 50
180.0
  0
INSERT
  5
D0
330
17
100
AcDbEntity
  8
0
100
AcDbBlockReference
  2
A$C203E2ED1
 10
1728.5677286808414
 20
986.3284683798738
 30
0.0
 50
180.0
  0
LWPOLYLINE
  5
D2
330
17
100
AcDbEntity
  8
0
 62
8
100
AcDbPolyline
 90
6
 70
1
 10
2027.0138952422194
 20
1886.328478517904
 10
2027.0138952422194
 20
1926.328478517904
 10
2029.0138952422194
 20
1926.328478517904
 10
2029.0138952422194
 20
1888.328478517904
 10
2067.0138952422194
 20
1888.328478517904
 10
2067.0138952422194
 20
1886.328478517904
  0
INSERT
  5
D3
330
17
100
AcDbEntity
  8
0
100
AcDbBlockReference
  2
A$C25855F30
 10
2038.5138656361723
 20
1875.8285170249928
 30
0.0
  0
LWPOLYLINE
  5
D5
330
17
100
AcDbEntity
  8
0
 62
8
100
AcDbPolyline
 90
6
 70
1
 10
2027.0138952422194
 20
986.3284785179039
 10
2027.0138952422194
 20
946.3284785179039
 10
2029.0138952422194
 20
946.3284785179039
 10
2029.0138952422194
 20
984.3284785179039
 10
2067.0138952422194
 20
984.3284785179039
 10
2067.0138952422194
 20
986.3284785179039
  0
INSERT
  5
D6
330
17
100
AcDbEntity
  8
0
100
AcDbBlockReference
  2
A$C25855F30
 10
2038.5138656361723
 20
996.8284400108132
 30
0.0
 41
-1.0
 50
180.0
  0
LWPOLYLINE
  5
D8
330
17
100
AcDbEntity
  8
0
 62
8
100
AcDbPolyline
 90
6
 70
1
 10
2714.939490421216
 20
1886.328478517904
 10
2714.939490421216
 20
1926.328478517904
 10
2712.939490421216
 20
1926.328478517904
 10
2712.939490421216
 20
1888.328478517904
 10
2674.9394904212168
 20
1888.328478517904
 10
2674.9394904212168
 20
1886.328478517904
  0
INSERT
  5
D9
330
17
100
AcDbEntity
  8
0
100
AcDbBlockReference
  2
A$C25855F30
 10
2703.4395200272547
 20
1875.8285170249928
 30
0.0
 41
-1.0
  0
LWPOLYLINE
  5
DB
330
17
100
AcDbEntity
  8
0
 62
8
100
AcDbPolyline
 90
6
 70
1
 10
2714.939490421216
 20
986.3284785179039
 10
2714.939490421216
 20
946.3284785179039
 10
2712.939490421216
 20
946.3284785179039
 10
2712.939490421216
 20
984.3284785179039
 10
2674.9394904212168
 20
984.3284785179039
 10
2674.9394904212168
 20
986.3284785179039
  0
INSERT
  5
DC
330
17
100
AcDbEntity
  8
0
100
AcDbBlockReference
  2
A$C25855F30
 10
2703.439520027262
 20
996.8284400108132
 30
0.0
 50
180.0
  0
LWPOLYLINE
  5
DE
330
17
100
AcDbEntity
  8
0
 62
8
100
AcDbPolyline
 90
4
 70
1
 10
243.83349557009024
 20
621.205664203444
 10
198.83349557009115
 20
621.205664203444
 10
198.83349557009115
 20
581.205664203444
 10
243.83349557009024
 20
581.205664203444
  0
LINE
  5
DF
330
17
100
AcDbEntity
  8
0
 62
8
100
AcDbLine
 10
243.83349557009024
 20
619.205664203444
 30
0.0
 11
198.83349557009115
 21
619.205664203444
 31
0.0
  0
INSERT
  5
E0
330
17
100
AcDbEntity
  8
0
 62
7
100
AcDbBlockReference
  2
A$C69525F90
 10
212.33350256406993
 20
595.9056599735031
 30
0.0
  0
INSERT
  5
E2
330
17
100
AcDbEntity
  8
0
 62
7
100
AcDbBlockReference
  2
A$C69525F90
 10
225.6334998000293
 20
591.2056711974237
 30
0.0
 50
90.0
  0
LWPOLYLINE
  5
E4
330
17
100
AcDbEntity
  8
0
 62
8
100
AcDbPolyline
 90
4
 70
1
 10
733.8334955700902
 20
621.205664203444
 10
778.8334955700902
 20
621.205664203444
 10
778.8334955700902
 20
581.205664203444
 10
733.8334955700902
 20
581.205664203444
  0
LINE
  5
E5
330
17
100
AcDbEntity
  8
0
 62
8
100
AcDbLine
 10
733.8334955700902
 20
619.205664203444
 30
0.0
 11
778.8334955700902
 21
619.205664203444
 31
0.0
  0
INSERT
  5
E6
330
17
100
AcDbEntity
  8
0
 62
7
100
AcDbBlockReference
  2
A$C69525F90
 10
765.3334885761069
 20
595.9056599735031
 30
0.0
 41
-1.0
  0
INSERT
  5
E8
330
17
100
AcDbEntity
  8
0
 62
7
100
AcDbBlockReference
  2
A$C69525F90
 10
752.0334913401512
 20
591.2056711974237
 30
0.0
 41
-1.0
 50
270.0
  0
LWPOLYLINE
  5
EA
330
17
100
AcDbEntity
  8
0
  6
HIDDENX2
100
AcDbPolyline
 90
4
 70
1
 10
338.83349557009115
 20
469.2090337502141
 10
638.8334955700911
 20
469.2090337502141
 10
638.8334955700911
 20
436.2090337502141
 10
338.83349557009115
 20
436.2090337502141
  0
LWPOLYLINE
  5
EB
330
17
100
AcDbEntity
  8
0
 62
7
100
AcDbPolyline
 90
8
 70
1
 10
2181.5138952422194
 20
1884.828478517904
 10
2181.5138952422194
 20
1869.828478517904
 10
2211.5138952422194
 20
1869.828478517904
 10
2211.5138952422194
 20
1884.828478517904
 10
2213.0138952422194
 20
1884.828478517904
 10
2213.0138952422194
 20
1868.328478517904
 10
2180.0138952422194
 20
1868.328478517904
 10
2180.0138952422194
 20
1884.828478517904
  0
LWPOLYLINE
  5
EC
330
17
100
AcDbEntity
  8
0
 62
7
100
AcDbPolyline
 90
8
 70
1
 10
2560.4394904212168
 20
1884.828478517904
 10
2560.4394904212168
 20
1869.828478517904
 10
2530.439490421216
 20
1869.828478517904
 10
2530.439490421216
 20
1884.828478517904
 10
2528.939490421216
 20
1884.828478517904
 10
2528.939490421216
 20
1868.328478517904
 10
2561.9394904212168
 20
1868.328478517904
 10
2561.9394904212168
 20
1884.828478517904
  0
LWPOLYLINE
  5
ED
330
17
100
AcDbEntity
  8
0
 62
2
100
AcDbPolyline
 90
4
 70
1
 10
2127.0138952422194
 20
1086.328478517904
 10
2218.0138952422194
 20
1086.328478517904
 10
2218.0138952422194
 20
1177.328478517904
 10
2127.0138952422194
 20
1177.328478517904
  0
LWPOLYLINE
  5
EE
330
17
100
AcDbEntity
  8
0
 62
2
100
AcDbPolyline
 90
4
 70
1
 10
2127.0138952422194
 20
1786.328478517904
 10
2218.0138952422194
 20
1786.328478517904
 10
2218.0138952422194
 20
1695.328478517904
 10
2127.0138952422194
 20
1695.328478517904
  0
LWPOLYLINE
  5
EF
330
17
100
AcDbEntity
  8
0
 62
2
100
AcDbPolyline
 90
4
 70
1
 10
2523.939490421216
 20
1086.328478517904
 10
2614.939490421215
 20
1086.328478517904
 10
2614.939490421215
 20
1177.328478517904
 10
2523.939490421216
 20
1177.328478517904
  0
LWPOLYLINE
  5
F0
330
17
100
AcDbEntity
  8
0
  6
HIDDENX2
100
AcDbPolyline
 90
4
 70
1
 10
1338.5677286808404
 20
487.7090337502141
 10
1538.5677286808414
 20
487.7090337502141
 10
1538.5677286808414
 20
456.2090337502141
 10
1338.5677286808404
 20
456.2090337502141
  0
LWPOLYLINE
  5
F1
330
17
100
AcDbEntity
  8
0
 62
7
100
AcDbPolyline
 90
8
 70
1
 10
2193.013895242211
 20
1019.3284785179039
 10
2163.013895242212
 20
1019.3284785179039
 10
2163.013895242212
 20
987.8284785179039
 10
2146.513895242211
 20
987.8284785179039
 10
2146.513895242211
 20
989.3284785179039
 10
2161.513895242212
 20
989.3284785179039
 10
2161.513895242212
 20
1020.8284785179039
 10
2193.013895242211
 20
1020.8284785179039
  0
LWPOLYLINE
  5
F2
330
17
100
AcDbEntity
  8
0
 62
7
100
AcDbPolyline
 90
8
 70
1
 10
2548.939490421216
 20
1019.3284785179039
 10
2578.939490421216
 20
1019.3284785179039
 10
2578.939490421216
 20
987.8284785179039
 10
2595.439490421216
 20
987.8284785179039
 10
2595.439490421216
 20
989.3284785179039
 10
2580.439490421216
 20
989.3284785179039
 10
2580.439490421216
 20
1020.8284785179039
 10
2548.939490421216
 20
1020.8284785179039
  0
LWPOLYLINE
  5
F3
330
17
100
AcDbEntity
  8
0
 62
8
100
AcDbPolyline
 90
4
 70
1
 10
2486.439490421216
 20
1846.328478517904
 10
2507.939490421216
 20
1846.328478517904
 10
2507.939490421216
 20
1796.328478517904
 10
2486.439490421216
 20
1796.328478517904
  0
LINE
  5
F4
330
17
100
AcDbEntity
  8
0
  6
HIDDEN
 62
8
100
AcDbLine
 10
2487.939490421216
 20
1846.328478517904
 30
0.0
 11
2487.939490421216
 21
1796.328478517904
 31
0.0
  0
LWPOLYLINE
  5
F5
330
17
100
AcDbEntity
  8
0
 62
8
100
AcDbPolyline
 90
6
 70
1
 10
1775.0677286808423
 20
392.7090337502141
 10
1753.5677286808414
 20
392.7090337502141
 10
1753.5677286808414
 20
414.2090337502141
 10
1755.0677286808414
 20
414.2090337502141
 10
1755.0677286808414
 20
394.2090337502141
 10
1775.0677286808423
 20
394.2090337502141
  0
DIMENSION
  5
F6
330
17
100
AcDbEntity
  8
DIM
100
AcDbDimension
280
0
  2
*D14
  3
Dim-25
 10
91.3598457215785
 20
391.2090337502141
 30
0.0
 11
91.35984572157668
 21
413.7090337502141
 31
0.0
 70
160
 71
5
 42
45.0
 73
0
 74
0
 75
0
100
AcDbAlignedDimension
 13
338.83349557009115
 23
436.2090337502141
 33
0.0
 14
138.83349557009115
 24
391.2090337502141
 34
0.0
 50
90.0
100
AcDbRotatedDimension
  0
DIMENSION
  5
F7
330
17
100
AcDbEntity
  8
DIM
100
AcDbDimension
280
0
  2
*D15
  3
Dim-25
 10
1043.993870967207
 20
391.2090337502141
 30
0.0
 11
1021.229546274164
 21
423.70903375022317
 31
0.0
 70
32
 71
5
 42
65.0
 73
0
 74
0
 75
0
100
AcDbAlignedDimension
 13
1338.5677286808404
 23
456.2090337502141
 33
0.0
 14
1088.5677286808404
 24
391.2090337502141
 34
0.0
 50
90.0
100
AcDbRotatedDimension
  0
LWPOLYLINE
  5
F8
330
17
100
AcDbEntity
  8
0
 62
8
100
AcDbPolyline
 90
6
 70
1
 10
825.3334955700902
 20
392.7090337502141
 10
803.8334955700911
 20
392.7090337502141
 10
803.8334955700911
 20
414.2090337502141
 10
805.3334955700911
 20
414.2090337502141
 10
805.3334955700911
 20
394.2090337502141
 10
825.3334955700902
 20
394.2090337502141
  0
LWPOLYLINE
  5
F9
330
17
100
AcDbEntity
  8
0
 62
2
100
AcDbPolyline
 90
4
 70
1
 10
1722.0677286808414
 20
1047.828478517904
 10
1722.0677286808414
 20
1037.828478517904
 10
1740.0677286808414
 20
1037.828478517904
 10
1740.0677286808414
 20
1047.828478517904
  0
LWPOLYLINE
  5
FA
330
17
100
AcDbEntity
  8
0
 62
2
100
AcDbPolyline
 90
4
 70
1
 10
1137.0677286808395
 20
1047.828478517904
 10
1137.0677286808395
 20
1037.828478517904
 10
1155.0677286808414
 20
1037.828478517904
 10
1155.0677286808414
 20
1047.828478517904
  0
LWPOLYLINE
  5
FB
330
17
100
AcDbEntity
  8
0
 62
2
100
AcDbPolyline
 90
4
 70
1
 10
1137.0677286808414
 20
1834.828478517904
 10
1137.0677286808414
 20
1824.828478517904
 10
1155.0677286808414
 20
1824.828478517904
 10
1155.0677286808414
 20
1834.828478517904
  0
LWPOLYLINE
  5
FC
330
17
100
AcDbEntity
  8
0
 62
2
100
AcDbPolyline
 90
4
 70
1
 10
1722.0677286808414
 20
1834.828478517904
 10
1722.0677286808414
 20
1824.828478517904
 10
1740.0677286808414
 20
1824.828478517904
 10
1740.0677286808414
 20
1834.828478517904
  0
ENDSEC
  0
SECTION
  2
OBJECTS
  0
DICTIONARY
  5
A
330
0
100
AcDbDictionary
281
1
  3
ACAD_COLOR
350
B
  3
ACAD_GROUP
350
C
  3
ACAD_LAYOUT
350
D
  3
ACAD_MATERIAL
350
E
  3
ACAD_MLEADERSTYLE
350
F
  3
ACAD_MLINESTYLE
350
10
  3
ACAD_PLOTSETTINGS
350
11
  3
ACAD_PLOTSTYLENAME
350
12
  3
ACAD_SCALELIST
350
14
  3
ACAD_TABLESTYLE
350
15
  3
ACAD_VISUALSTYLE
350
16
  3
EZDXF_META
350
2D
  0
DICTIONARY
  5
B
330
A
100
AcDbDictionary
281
1
  0
DICTIONARY
  5
C
330
A
100
AcDbDictionary
281
1
  0
DICTIONARY
  5
D
330
A
100
AcDbDictionary
281
1
  3
Model
350
1A
  3
Layout1
350
1E
  0
DICTIONARY
  5
E
330
A
100
AcDbDictionary
281
1
  3
ByBlock
350
1F
  3
ByLayer
350
20
  3
Global
350
21
  0
DICTIONARY
  5
F
330
A
100
AcDbDictionary
281
1
  3
Standard
350
2C
  0
DICTIONARY
  5
10
330
A
100
AcDbDictionary
281
1
  3
Standard
350
22
  0
DICTIONARY
  5
11
330
A
100
AcDbDictionary
281
1
  0
ACDBDICTIONARYWDFLT
  5
12
330
A
100
AcDbDictionary
281
1
  3
Normal
350
13
100
AcDbDictionaryWithDefault
340
13
  0
ACDBPLACEHOLDER
  5
13
330
12
  0
DICTIONARY
  5
14
330
A
100
AcDbDictionary
281
1
  0
DICTIONARY
  5
15
330
A
100
AcDbDictionary
281
1
  0
DICTIONARY
  5
16
330
A
100
AcDbDictionary
281
1
  0
LAYOUT
  5
1A
330
D
100
AcDbPlotSettings
  1

  4
A3
  6

 40
7.5
 41
20.0
 42
7.5
 43
20.0
 44
420.0
 45
297.0
 46
0.0
 47
0.0
 48
0.0
 49
0.0
140
0.0
141
0.0
142
1.0
143
1.0
 70
1024
 72
1
 73
0
 74
5
  7

 75
16
 76
0
 77
2
 78
300
147
1.0
148
0.0
149
0.0
100
AcDbLayout
  1
Model
 70
1
 71
0
 10
0.0
 20
0.0
 11
420.0
 21
297.0
 12
0.0
 22
0.0
 32
0.0
 14
1e+20
 24
1e+20
 34
1e+20
 15
-1e+20
 25
-1e+20
 35
-1e+20
146
0.0
 13
0.0
 23
0.0
 33
0.0
 16
1.0
 26
0.0
 36
0.0
 17
0.0
 27
1.0
 37
0.0
 76
1
330
17
  0
LAYOUT
  5
1E
330
D
100
AcDbPlotSettings
  1

  4
A3
  6

 40
7.5
 41
20.0
 42
7.5
 43
20.0
 44
420.0
 45
297.0
 46
0.0
 47
0.0
 48
0.0
 49
0.0
140
0.0
141
0.0
142
1.0
143
1.0
 70
0
 72
1
 73
0
 74
5
  7

 75
16
 76
0
 77
2
 78
300
147
1.0
148
0.0
149
0.0
100
AcDbLayout
  1
Layout1
 70
1
 71
1
 10
0.0
 20
0.0
 11
420.0
 21
297.0
 12
0.0
 22
0.0
 32
0.0
 14
1e+20
 24
1e+20
 34
1e+20
 15
-1e+20
 25
-1e+20
 35
-1e+20
146
0.0
 13
0.0
 23
0.0
 33
0.0
 16
1.0
 26
0.0
 36
0.0
 17
0.0
 27
1.0
 37
0.0
 76
1
330
1B
  0
MATERIAL
  5
1F
102
{ACAD_REACTORS
330
E
102
}
330
E
100
AcDbMaterial
  1
ByBlock
  2

 70
0
 40
1.0
 71
1
 41
1.0
 91
-1023410177
 42
1.0
 72
1
  3

 73
1
 74
1
 75
1
 44
0.5
 73
0
 45
1.0
 46
1.0
 77
1
  4

 78
1
 79
1
170
1
 48
1.0
171
1
  6

172
1
173
1
174
1
140
1.0
141
1.0
175
1
  7

176
1
177
1
178
1
143
1.0
179
1
  8

270
1
271
1
272
1
145
1.0
146
1.0
273
1
  9

274
1
275
1
276
1
 42
1.0
 72
1
  3

 73
1
 74
1
 75
1
 94
63
  0
MATERIAL
  5
20
102
{ACAD_REACTORS
330
E
102
}
330
E
100
AcDbMaterial
  1
ByLayer
  2

 70
0
 40
1.0
 71
1
 41
1.0
 91
-1023410177
 42
1.0
 72
1
  3

 73
1
 74
1
 75
1
 44
0.5
 73
0
 45
1.0
 46
1.0
 77
1
  4

 78
1
 79
1
170
1
 48
1.0
171
1
  6

172
1
173
1
174
1
140
1.0
141
1.0
175
1
  7

176
1
177
1
178
1
143
1.0
179
1
  8

270
1
271
1
272
1
145
1.0
146
1.0
273
1
  9

274
1
275
1
276
1
 42
1.0
 72
1
  3

 73
1
 74
1
 75
1
 94
63
  0
MATERIAL
  5
21
102
{ACAD_REACTORS
330
E
102
}
330
E
100
AcDbMaterial
  1
Global
  2

 70
0
 40
1.0
 71
1
 41
1.0
 91
-1023410177
 42
1.0
 72
1
  3

 73
1
 74
1
 75
1
 44
0.5
 73
0
 45
1.0
 46
1.0
 77
1
  4

 78
1
 79
1
170
1
 48
1.0
171
1
  6

172
1
173
1
174
1
140
1.0
141
1.0
175
1
  7

176
1
177
1
178
1
143
1.0
179
1
  8

270
1
271
1
272
1
145
1.0
146
1.0
273
1
  9

274
1
275
1
276
1
 42
1.0
 72
1
  3

 73
1
 74
1
 75
1
 94
63
  0
MLINESTYLE
  5
22
102
{ACAD_REACTORS
330
10
102
}
330
10
100
AcDbMlineStyle
  2
Standard
 70
0
  3

 62
256
 51
90.0
 52
90.0
 71
2
 49
0.5
 62
256
  6
BYLAYER
 49
-0.5
 62
256
  6
BYLAYER
  0
MLEADERSTYLE
  5
2C
102
{ACAD_REACTORS
330
F
102
}
330
F
100
AcDbMLeaderStyle
179
2
170
2
171
1
172
0
 90
2
 40
0.0
 41
0.0
173
1
 91
-1056964608
 92
-2
290
1
 42
2.0
291
1
 43
8.0
  3
Standard
 44
4.0
300

342
29
174
1
175
1
176
0
178
1
 93
-1056964608
 45
4.0
292
0
297
0
 46
4.0
 94
-1056964608
 47
1.0
 49
1.0
140
1.0
294
1
141
0.0
177
0
142
1.0
295
0
296
0
143
3.75
271
0
272
9
273
9
  0
DICTIONARY
  5
2D
330
A
100
AcDbDictionary
280
1
281
1
  3
CREATED_BY_EZDXF
350
2E
  3
WRITTEN_BY_EZDXF
350
24E
  0
DICTIONARYVAR
  5
2E
330
2D
100
DictionaryVariables
280
0
  1
1.4.4 @ 2026-09-24T06:31:46.631514+00:00
  0
DICTIONARYVAR
  5
24E
330
2D
100
DictionaryVariables
280
0
  1
1.4.4 @ 2026-09-24T06:36:50.279508+00:00
  0
ENDSEC
  0
EOF
