  0
SECTION
  2
HEADER
  9
$ACADVER
  1
AC1032
  9
$ACADMAINTVER
 90
4
  9
$DWGCODEPAGE
  3
ANSI_1252
  9
$LASTSAVEDBY
  1
ezdxf
  9
$REQUIREDVERSIONS
160
0
  9
$INSBASE
 10
0.0
 20
0.0
 30
0.0
  9
$EXTMIN
 10
1e+20
 20
1e+20
 30
1e+20
  9
$EXTMAX
 10
-1e+20
 20
-1e+20
 30
-1e+20
  9
$LIMMIN
 10
0.0
 20
0.0
  9
$LIMMAX
 10
420.0
 20
297.0
  9
$ORTHOMODE
 70
0
  9
$REGENMODE
 70
1
  9
$FILLMODE
 70
1
  9
$QTEXTMODE
 70
0
  9
$MIRRTEXT
 70
1
  9
$LTSCALE
 40
1.0
  9
$ATTMODE
 70
1
  9
$TEXTSIZE
 40
2.5
  9
$TRACEWID
 40
1.0
  9
$TEXTSTYLE
  7
Standard
  9
$CLAYER
  8
0
  9
$CELTYPE
  6
ByLayer
  9
$CECOLOR
 62
256
  9
$CELTSCALE
 40
1.0
  9
$DISPSILH
 70
0
  9
$DIMSCALE
 40
1.0
  9
$DIMASZ
 40
2.5
  9
$DIMEXO
 40
0.625
  9
$DIMDLI
 40
3.75
  9
$DIMRND
 40
0.0
  9
$DIMDLE
 40
0.0
  9
$DIMEXE
 40
1.25
  9
$DIMTP
 40
0.0
  9
$DIMTM
 40
0.0
  9
$DIMTXT
 40
2.5
  9
$DIMCEN
 40
2.5
  9
$DIMTSZ
 40
0.0
  9
$DIMTOL
 70
0
  9
$DIMLIM
 70
0
  9
$DIMTIH
 70
0
  9
$DIMTOH
 70
0
  9
$DIMSE1
 70
0
  9
$DIMSE2
 70
0
  9
$DIMTAD
 70
1
  9
$DIMZIN
 70
8
  9
$DIMBLK
  1

  9
$DIMASO
 70
1
  9
$DIMSHO
 70
1
  9
$DIMPOST
  1

  9
$DIMAPOST
  1

  9
$DIMALT
 70
0
  9
$DIMALTD
 70
3
  9
$DIMALTF
 40
0.03937007874
  9
$DIMLFAC
 40
1.0
  9
$DIMTOFL
 70
1
  9
$DIMTVP
 40
0.0
  9
$DIMTIX
 70
0
  9
$DIMSOXD
 70
0
  9
$DIMSAH
 70
0
  9
$DIMBLK1
  1

  9
$DIMBLK2
  1

  9
$DIMSTYLE
  2
ISO-25
  9
$DIMCLRD
 70
0
  9
$DIMCLRE
 70
0
  9
$DIMCLRT
 70
0
  9
$DIMTFAC
 40
1.0
  9
$DIMGAP
 40
0.625
  9
$DIMJUST
 70
0
  9
$DIMSD1
 70
0
  9
$DIMSD2
 70
0
  9
$DIMTOLJ
 70
0
  9
$DIMTZIN
 70
8
  9
$DIMALTZ
 70
0
  9
$DIMALTTZ
 70
0
  9
$DIMUPT
 70
0
  9
$DIMDEC
 70
2
  9
$DIMTDEC
 70
2
  9
$DIMALTU
 70
2
  9
$DIMALTTD
 70
3
  9
$DIMTXSTY
  7
Standard
  9
$DIMAUNIT
 70
0
  9
$DIMADEC
 70
0
  9
$DIMALTRND
 40
0.0
  9
$DIMAZIN
 70
0
  9
$DIMDSEP
 70
44
  9
$DIMATFIT
 70
3
  9
$DIMFRAC
 70
0
  9
$DIMLDRBLK
  1

  9
$DIMLUNIT
 70
2
  9
$DIMLWD
 70
-2
  9
$DIMLWE
 70
-2
  9
$DIMTMOVE
 70
0
  9
$DIMFXL
 40
1.0
  9
$DIMFXLON
 70
0
  9
$DIMJOGANG
 40
0.785398163397
  9
$DIMTFILL
 70
0
  9
$DIMTFILLCLR
 70
0
  9
$DIMARCSYM
 70
0
  9
$DIMLTYPE
  6

  9
$DIMLTEX1
  6

  9
$DIMLTEX2
  6

  9
$DIMTXTDIRECTION
 70
0
  9
$LUNITS
 70
2
  9
$LUPREC
 70
4
  9
$SKETCHINC
 40
1.0
  9
$FILLETRAD
 40
10.0
  9
$AUNITS
 70
0
  9
$AUPREC
 70
2
  9
$MENU
  1
.
  9
$ELEVATION
 40
0.0
  9
$PELEVATION
 40
0.0
  9
$THICKNESS
 40
0.0
  9
$LIMCHECK
 70
0
  9
$CHAMFERA
 40
0.0
  9
$CHAMFERB
 40
0.0
  9
$CHAMFERC
 40
0.0
  9
$CHAMFERD
 40
0.0
  9
$SKPOLY
 70
0
  9
$TDCREATE
 40
2461308.567858796
  9
$TDUCREATE
 40
2458532.153996898
  9
$TDUPDATE
 40
2461308.567858796
  9
$TDUUPDATE
 40
2458532.1544311
  9
$TDINDWG
 40
0.0
  9
$TDUSRTIMER
 40
0.0
  9
$USRTIMER
 70
1
  9
$ANGBASE
 50
0.0
  9
$ANGDIR
 70
0
  9
$PDMODE
 70
0
  9
$PDSIZE
 40
0.0
  9
$PLINEWID
 40
0.0
  9
$SPLFRAME
 70
0
  9
$SPLINETYPE
 70
6
  9
$SPLINESEGS
 70
8
  9
$HANDSEED
  5
183
  9
$SURFTAB1
 70
6
  9
$SURFTAB2
 70
6
  9
$SURFTYPE
 70
6
  9
$SURFU
 70
6
  9
$SURFV
 70
6
  9
$UCSBASE
  2

  9
$UCSNAME
  2

  9
$UCSORG
 10
0.0
 20
0.0
 30
0.0
  9
$UCSXDIR
 10
1.0
 20
0.0
 30
0.0
  9
$UCSYDIR
 10
0.0
 20
1.0
 30
0.0
  9
$UCSORTHOREF
  2

  9
$UCSORTHOVIEW
 70
0
  9
$UCSORGTOP
 10
0.0
 20
0.0
 30
0.0
  9
$UCSORGBOTTOM
 10
0.0
 20
0.0
 30
0.0
  9
$UCSORGLEFT
 10
0.0
 20
0.0
 30
0.0
  9
$UCSORGRIGHT
 10
0.0
 20
0.0
 30
0.0
  9
$UCSORGFRONT
 10
0.0
 20
0.0
 30
0.0
  9
$UCSORGBACK
 10
0.0
 20
0.0
 30
0.0
  9
$PUCSBASE
  2

  9
$PUCSNAME
  2

  9
$PUCSORG
 10
0.0
 20
0.0
 30
0.0
  9
$PUCSXDIR
 10
1.0
 20
0.0
 30
0.0
  9
$PUCSYDIR
 10
0.0
 20
1.0
 30
0.0
  9
$PUCSORTHOREF
  2

  9
$PUCSORTHOVIEW
 70
0
  9
$PUCSORGTOP
 10
0.0
 20
0.0
 30
0.0
  9
$PUCSORGBOTTOM
 10
0.0
 20
0.0
 30
0.0
  9
$PUCSORGLEFT
 10
0.0
 20
0.0
 30
0.0
  9
$PUCSORGRIGHT
 10
0.0
 20
0.0
 30
0.0
  9
$PUCSORGFRONT
 10
0.0
 20
0.0
 30
0.0
  9
$PUCSORGBACK
 10
0.0
 20
0.0
 30
0.0
  9
$USERI1
 70
0
  9
$USERI2
 70
0
  9
$USERI3
 70
0
  9
$USERI4
 70
0
  9
$USERI5
 70
0
  9
$USERR1
 40
0.0
  9
$USERR2
 40
0.0
  9
$USERR3
 40
0.0
  9
$USERR4
 40
0.0
  9
$USERR5
 40
0.0
  9
$WORLDVIEW
 70
1
  9
$SHADEDGE
 70
3
  9
$SHADEDIF
 70
70
  9
$TILEMODE
 70
1
  9
$MAXACTVP
 70
64
  9
$PINSBASE
 10
0.0
 20
0.0
 30
0.0
  9
$PLIMCHECK
 70
0
  9
$PEXTMIN
 10
1e+20
 20
1e+20
 30
1e+20
  9
$PEXTMAX
 10
-1e+20
 20
-1e+20
 30
-1e+20
  9
$PLIMMIN
 10
0.0
 20
0.0
  9
$PLIMMAX
 10
420.0
 20
297.0
  9
$UNITMODE
 70
0
  9
$VISRETAIN
 70
1
  9
$PLINEGEN
 70
0
  9
$PSLTSCALE
 70
1
  9
$TREEDEPTH
 70
3020
  9
$CMLSTYLE
  2
Standard
  9
$CMLJUST
 70
0
  9
$CMLSCALE
 40
20.0
  9
$PROXYGRAPHICS
 70
1
  9
$MEASUREMENT
 70
1
  9
$CELWEIGHT
370
-1
  9
$ENDCAPS
280
0
  9
$JOINSTYLE
280
0
  9
$LWDISPLAY
290
0
  9
$INSUNITS
 70
4
  9
$HYPERLINKBASE
  1

  9
$STYLESHEET
  1

  9
$XEDIT
290
1
  9
$CEPSNTYPE
380
0
  9
$PSTYLEMODE
290
1
  9
$FINGERPRINTGUID
  2
{4F4288A8-211F-43E6-B61F-3C4ADDF4A72D}
  9
$VERSIONGUID
  2
{32797F68-EF59-47C1-8AE5-9BB5459DA7B9}
  9
$EXTNAMES
290
1
  9
$PSVPSCALE
 40
0.0
  9
$OLESTARTUP
290
0
  9
$SORTENTS
280
127
  9
$INDEXCTL
280
0
  9
$HIDETEXT
280
1
  9
$XCLIPFRAME
280
1
  9
$HALOGAP
280
0
  9
$OBSCOLOR
 70
257
  9
$OBSLTYPE
280
0
  9
$INTERSECTIONDISPLAY
280
0
  9
$INTERSECTIONCOLOR
 70
257
  9
$DIMASSOC
280
2
  9
$PROJECTNAME
  1

  9
$CAMERADISPLAY
290
0
  9
$LENSLENGTH
 40
50.0
  9
$CAMERAHEIGHT
 40
0.0
  9
$STEPSPERSEC
 40
24.0
  9
$STEPSIZE
 40
100.0
  9
$3DDWFPREC
 40
2.0
  9
$PSOLWIDTH
 40
0.005
  9
$PSOLHEIGHT
 40
0.08
  9
$LOFTANG1
 40
1.570796326795
  9
$LOFTANG2
 40
1.570796326795
  9
$LOFTMAG1
 40
0.0
  9
$LOFTMAG2
 40
0.0
  9
$LOFTPARAM
 70
7
  9
$LOFTNORMALS
280
1
  9
$LATITUDE
 40
37.795
  9
$LONGITUDE
 40
-122.394
  9
$NORTHDIRECTION
 40
0.0
  9
$TIMEZONE
 70
-8000
  9
$LIGHTGLYPHDISPLAY
280
1
  9
$TILEMODELIGHTSYNCH
280
1
  9
$CMATERIAL
347
20
  9
$SOLIDHIST
280
0
  9
$SHOWHIST
280
1
  9
$DWFFRAME
280
2
  9
$DGNFRAME
280
2
  9
$REALWORLDSCALE
290
1
  9
$INTERFERECOLOR
 62
256
  9
$CSHADOW
280
0
  9
$SHADOWPLANELOCATION
 40
0.0
  0
ENDSEC
  0
SECTION
  2
CLASSES
  0
CLASS
  1
ACDBDICTIONARYWDFLT
  2
AcDbDictionaryWithDefault
  3
ObjectDBX Classes
 90
0
 91
0
280
0
281
0
  0
CLASS
  1
SUN
  2
AcDbSun
  3
SCENEOE
 90
1153
 91
0
280
0
281
0
  0
CLASS
  1
VISUALSTYLE
  2
AcDbVisualStyle
  3
ObjectDBX Classes
 90
4095
 91
0
280
0
281
0
  0
CLASS
  1
MATERIAL
  2
AcDbMaterial
  3
ObjectDBX Classes
 90
1153
 91
0
280
0
281
0
  0
CLASS
  1
SCALE
  2
AcDbScale
  3
ObjectDBX Classes
 90
1153
 91
0
280
0
281
0
  0
CLASS
  1
TABLESTYLE
  2
AcDbTableStyle
  3
ObjectDBX Classes
 90
4095
 91
0
280
0
281
0
  0
CLASS
  1
MLEADERSTYLE
  2
AcDbMLeaderStyle
  3
ACDB_MLEADERSTYLE_CLASS
 90
4095
 91
0
280
0
281
0
  0
CLASS
  1
DICTIONARYVAR
  2
AcDbDictionaryVar
  3
ObjectDBX Classes
 90
0
 91
0
280
0
281
0
  0
CLASS
  1
CELLSTYLEMAP
  2
AcDbCellStyleMap
  3
ObjectDBX Classes
 90
1152
 91
0
280
0
281
0
  0
CLASS
  1
MENTALRAYRENDERSETTINGS
  2
AcDbMentalRayRenderSettings
  3
SCENEOE
 90
1024
 91
0
280
0
281
0
  0
CLASS
  1
ACDBDETAILVIEWSTYLE
  2
AcDbDetailViewStyle
  3
ObjectDBX Classes
 90
1025
 91
0
280
0
281
0
  0
CLASS
  1
ACDBSECTIONVIEWSTYLE
  2
AcDbSectionViewStyle
  3
ObjectDBX Classes
 90
1025
 91
0
280
0
281
0
  0
CLASS
  1
RASTERVARIABLES
  2
AcDbRasterVariables
  3
ISM
 90
0
 91
0
280
0
281
0
  0
CLASS
  1
ACDBPLACEHOLDER
  2
AcDbPlaceHolder
  3
ObjectDBX Classes
 90
0
 91
0
280
0
281
0
  0
CLASS
  1
LAYOUT
  2
AcDbLayout
  3
ObjectDBX Classes
 90
0
 91
0
280
0
281
0
  0
ENDSEC
  0
SECTION
  2
TABLES
  0
TABLE
  2
VPORT
  5
8
330
0
100
AcDbSymbolTable
 70
1
  0
VPORT
  5
23
330
8
100
AcDbSymbolTableRecord
100
AcDbViewportTableRecord
  2
*Active
 70
0
 10
0.0
 20
0.0
 11
1.0
 21
1.0
 12
0.0
 22
0.0
 13
0.0
 23
0.0
 14
0.5
 24
0.5
 15
0.5
 25
0.5
 16
0.0
 26
0.0
 36
1.0
 17
0.0
 27
0.0
 37
0.0
 40
1000.0
 41
1.34
 42
50.0
 43
0.0
 44
0.0
 50
0.0
 51
0.0
 71
0
 72
1000
 73
1
 74
3
 75
0
 76
0
 77
0
 78
0
281
0
 65
0
146
0.0
  0
ENDTAB
  0
TABLE
  2
LTYPE
  5
2
330
0
100
AcDbSymbolTable
 70
3
  0
LTYPE
  5
24
330
2
100
AcDbSymbolTableRecord
100
AcDbLinetypeTableRecord
  2
ByBlock
 70
0
  3

 72
65
 73
0
 40
0.0
  0
LTYPE
  5
25
330
2
100
AcDbSymbolTableRecord
100
AcDbLinetypeTableRecord
  2
ByLayer
 70
0
  3

 72
65
 73
0
 40
0.0
  0
LTYPE
  5
26
330
2
100
AcDbSymbolTableRecord
100
AcDbLinetypeTableRecord
  2
Continuous
 70
0
  3

 72
65
 73
0
 40
0.0
  0
ENDTAB
  0
TABLE
  2
LAYER
  5
1
330
0
100
AcDbSymbolTable
 70
4
  0
LAYER
  5
27
330
1
100
AcDbSymbolTableRecord
100
AcDbLayerTableRecord
  2
0
 70
0
 62
7
  6
Continuous
370
-3
390
13
347
21
  0
LAYER
  5
28
330
1
100
AcDbSymbolTableRecord
100
AcDbLayerTableRecord
  2
Defpoints
 70
0
 62
7
  6
Continuous
290
0
370
-3
390
13
347
21
  0
LAYER
  5
DB
330
1
100
AcDbSymbolTableRecord
100
AcDbLayerTableRecord
  2
CNC
 70
0
 62
7
  6
Continuous
370
-3
390
13
347
21
  0
LAYER
  5
DC
330
1
100
AcDbSymbolTableRecord
100
AcDbLayerTableRecord
  2
DIM
 70
0
 62
253
  6
Continuous
370
-3
390
13
347
21
  0
ENDTAB
  0
TABLE
  2
STYLE
  5
5
330
0
100
AcDbSymbolTable
 70
2
  0
STYLE
  5
29
330
5
100
AcDbSymbolTableRecord
100
AcDbTextStyleTableRecord
  2
Standard
 70
0
 40
0.0
 41
1.0
 50
0.0
 71
0
 42
2.5
  3
txt
  4

  0
STYLE
  5
DD
330
5
100
AcDbSymbolTableRecord
100
AcDbTextStyleTableRecord
  2
Arial
 70
0
 40
0.0
 41
1.0
 50
0.0
 71
0
 42
0.2
  3
arial.ttf
  4

  0
ENDTAB
  0
TABLE
  2
VIEW
  5
7
330
0
100
AcDbSymbolTable
 70
0
  0
ENDTAB
  0
TABLE
  2
UCS
  5
6
330
0
100
AcDbSymbolTable
 70
0
  0
ENDTAB
  0
TABLE
  2
APPID
  5
3
330
0
100
AcDbSymbolTable
 70
3
  0
APPID
  5
2A
330
3
100
AcDbSymbolTableRecord
100
AcDbRegAppTableRecord
  2
ACAD
 70
0
  0
APPID
  5
DE
330
3
100
AcDbSymbolTableRecord
100
AcDbRegAppTableRecord
  2
HATCHBACKGROUNDCOLOR
 70
0
  0
APPID
  5
DF
330
3
100
AcDbSymbolTableRecord
100
AcDbRegAppTableRecord
  2
EZDXF
 70
0
  0
ENDTAB
  0
TABLE
  2
DIMSTYLE
  5
4
330
0
100
AcDbSymbolTable
 70
2
100
AcDbDimStyleTable
  0
DIMSTYLE
105
2B
330
4
100
AcDbSymbolTableRecord
100
AcDbDimStyleTableRecord
  2
Standard
 70
0
 40
1.0
 41
2.5
 42
0.625
 43
3.75
 44
1.25
 45
0.0
 46
0.0
 47
0.0
 48
0.0
 49
2.5
140
2.5
141
2.5
142
0.0
143
0.03937007874
144
1.0
145
0.0
146
1.0
147
0.625
148
0.0
 69
0
 70
0
 71
0
 72
0
 73
0
 74
0
 75
0
 76
0
 77
1
 78
8
 79
3
170
0
171
3
172
1
173
0
174
0
175
0
176
0
177
0
178
0
179
2
271
2
272
2
273
2
274
3
275
0
276
0
277
2
278
44
279
0
280
0
281
0
282
0
283
0
284
8
285
0
286
0
288
0
289
3
290
0
371
-2
372
-2
  0
DIMSTYLE
105
DA
330
4
100
AcDbSymbolTableRecord
100
AcDbDimStyleTableRecord
  2
Dim-25
 70
0
 40
1.0
 41
8.0
 42
15.0
 43
3.75
 44
10.0
 45
0.0
 46
0.0
 47
0.0
 48
0.0
 49
2.5
140
25.0
141
10.0
142
0.0
143
0.03937007874016
144
1.0
145
0.0
146
1.0
147
10.0
148
0.0
 69
0
 70
0
 71
0
 72
0
 73
0
 74
0
 75
0
 76
0
 77
1
 78
8
 79
3
170
0
171
3
172
1
173
0
174
0
175
0
176
5
177
5
178
3
179
2
271
0
272
0
273
2
274
3
275
0
276
0
277
2
278
44
279
0
280
0
281
0
282
0
283
0
284
8
285
0
286
0
288
0
289
3
290
0
340
29
341
63
342
63
345
25
346
25
347
25
371
9
372
9
  0
ENDTAB
  0
TABLE
  2
BLOCK_RECORD
  5
9
330
0
100
AcDbSymbolTable
 70
15
  0
BLOCK_RECORD
  5
17
330
9
100
AcDbSymbolTableRecord
100
AcDbBlockTableRecord
  2
*Model_Space
340
1A
 70
0
280
1
281
0
  0
BLOCK_RECORD
  5
1B
330
9
100
AcDbSymbolTableRecord
100
AcDbBlockTableRecord
  2
*Paper_Space
340
1E
 70
0
280
1
281
0
  0
BLOCK_RECORD
  5
63
330
9
100
AcDbSymbolTableRecord
100
AcDbBlockTableRecord
  2
_Oblique
340
0
 70
0
280
1
281
0
  0
BLOCK_RECORD
  5
AE
330
9
100
AcDbSymbolTableRecord
100
AcDbBlockTableRecord
  2
KHUNG CHUẨN
340
0
 70
0
280
1
281
0
  0
BLOCK_RECORD
  5
D6
330
9
100
AcDbSymbolTableRecord
100
AcDbBlockTableRecord
  2
f3daunguoc
340
0
 70
0
280
1
281
0
  0
BLOCK_RECORD
  5
106
330
9
100
AcDbSymbolTableRecord
100
AcDbBlockTableRecord
  2
*D1
340
0
 70
0
280
1
281
0
  0
BLOCK_RECORD
  5
113
330
9
100
AcDbSymbolTableRecord
100
AcDbBlockTableRecord
  2
*D2
340
0
 70
0
280
1
281
0
  0
BLOCK_RECORD
  5
11F
330
9
100
AcDbSymbolTableRecord
100
AcDbBlockTableRecord
  2
*D3
340
0
 70
0
280
1
281
0
  0
BLOCK_RECORD
  5
12B
330
9
100
AcDbSymbolTableRecord
100
AcDbBlockTableRecord
  2
*D4
340
0
 70
0
280
1
281
0
  0
BLOCK_RECORD
  5
137
330
9
100
AcDbSymbolTableRecord
100
AcDbBlockTableRecord
  2
*D5
340
0
 70
0
280
1
281
0
  0
BLOCK_RECORD
  5
145
330
9
100
AcDbSymbolTableRecord
100
AcDbBlockTableRecord
  2
*D6
340
0
 70
0
280
1
281
0
  0
BLOCK_RECORD
  5
153
330
9
100
AcDbSymbolTableRecord
100
AcDbBlockTableRecord
  2
*D7
340
0
 70
0
280
1
281
0
  0
BLOCK_RECORD
  5
15F
330
9
100
AcDbSymbolTableRecord
100
AcDbBlockTableRecord
  2
*D8
340
0
 70
0
280
1
281
0
  0
BLOCK_RECORD
  5
16B
330
9
100
AcDbSymbolTableRecord
100
AcDbBlockTableRecord
  2
*D9
340
0
 70
0
280
1
281
0
  0
BLOCK_RECORD
  5
177
330
9
100
AcDbSymbolTableRecord
100
AcDbBlockTableRecord
  2
*D10
340
0
 70
0
280
1
281
0
  0
ENDTAB
  0
ENDSEC
  0
SECTION
  2
BLOCKS
  0
BLOCK
  5
18
330
17
100
AcDbEntity
  8
0
100
AcDbBlockBegin
  2
*Model_Space
 70
0
 10
0.0
 20
0.0
 30
0.0
  3
*Model_Space
  1

  0
ENDBLK
  5
19
330
17
100
AcDbEntity
  8
0
100
AcDbBlockEnd
  0
BLOCK
  5
1C
330
1B
100
AcDbEntity
  8
0
100
AcDbBlockBegin
  2
*Paper_Space
 70
0
 10
0.0
 20
0.0
 30
0.0
  3
*Paper_Space
  1

  0
ENDBLK
  5
1D
330
1B
100
AcDbEntity
  8
0
100
AcDbBlockEnd
  0
BLOCK
  5
64
330
63
100
AcDbEntity
  8
0
100
AcDbBlockBegin
  2
_Oblique
 70
0
 10
0.0
 20
0.0
 30
0.0
  3
_Oblique
  1

  0
LINE
  5
66
330
63
100
AcDbEntity
  8
0
  6
ByBlock
 62
0
370
-2
100
AcDbLine
 10
-0.5
 20
-0.5
 30
0.0
 11
0.5
 21
0.5
 31
0.0
  0
ENDBLK
  5
65
330
63
100
AcDbEntity
  8
0
100
AcDbBlockEnd
  0
BLOCK
  5
AF
330
AE
100
AcDbEntity
  8
0
100
AcDbBlockBegin
  2
KHUNG CHUẨN
 70
2
 10
0.0
 20
0.0
 30
0.0
  3
KHUNG CHUẨN
  1

  0
LWPOLYLINE
  5
B1
330
AE
100
AcDbEntity
  8
0
 62
7
100
AcDbPolyline
 90
4
 70
1
 10
16919.24922090965
 20
-26555.15926993403
 10
19889.24922091007
 20
-26555.15926993403
 10
19889.24922091007
 20
-28655.15926993435
 10
16919.24922090965
 20
-28655.15926993435
  0
LINE
  5
B2
330
AE
100
AcDbEntity
  8
0
 62
7
100
AcDbLine
 10
18939.24922090965
 20
-28595.15926993434
 30
0.0
 11
16919.24922090965
 21
-28595.15926993434
 31
0.0
  0
LINE
  5
B3
330
AE
100
AcDbEntity
  8
0
 62
7
100
AcDbLine
 10
19889.24922091007
 20
-28535.15926993435
 30
0.0
 11
16919.24922090965
 21
-28535.15926993435
 31
0.0
  0
LINE
  5
B4
330
AE
100
AcDbEntity
  8
0
 62
7
100
AcDbLine
 10
17239.24922090965
 20
-28535.15926993435
 30
0.0
 11
17239.24922090965
 21
-28595.15926993434
 31
0.0
  0
LINE
  5
B5
330
AE
100
AcDbEntity
  8
0
 62
7
100
AcDbLine
 10
17809.24922090965
 20
-28535.15926993435
 30
0.0
 11
17809.24922090965
 21
-28655.15926993435
 31
0.0
  0
LINE
  5
B6
330
AE
100
AcDbEntity
  8
0
 62
7
100
AcDbLine
 10
18599.24922090965
 20
-28535.15926993435
 30
0.0
 11
18599.24922090965
 21
-28655.15926993435
 31
0.0
  0
LINE
  5
B7
330
AE
100
AcDbEntity
  8
0
 62
7
100
AcDbLine
 10
18939.24922090965
 20
-28535.15926993435
 30
0.0
 11
18939.24922090965
 21
-28655.15926993435
 31
0.0
  0
LINE
  5
B8
330
AE
100
AcDbEntity
  8
0
 62
7
100
AcDbLine
 10
19779.24922091007
 20
-28535.15926993435
 30
0.0
 11
19779.24922091007
 21
-28655.15926993435
 31
0.0
  0
MTEXT
  5
B9
330
AE
100
AcDbEntity
  8
0
 62
2
100
AcDbMText
 10
16919.24922090965
 20
-28565.15926993435
 30
0.0
 40
20.0
 41
917.6339389950801
 46
60.00000000000113
 71
4
 72
5
  1
  Thiết kế :
  7
Arial
  0
MTEXT
  5
BA
330
AE
100
AcDbEntity
  8
0
 62
2
100
AcDbMText
 10
16919.24922090965
 20
-28625.15926993435
 30
0.0
 40
20.0
 41
917.6339389950801
 46
60.00000000000113
 71
4
 72
5
  1
  CNC :
  7
Arial
  0
MTEXT
  5
BB
330
AE
100
AcDbEntity
  8
0
 62
2
100
AcDbMText
 10
17239.24922090965
 20
-28565.15926993435
 30
0.0
 40
20.0
 41
917.6339389950801
 46
60.00000000000113
 71
4
 72
5
  1
  Khách hàng :
  7
Arial
  0
MTEXT
  5
BC
330
AE
100
AcDbEntity
  8
0
 62
2
100
AcDbMText
 10
17466.28942955682
 20
-28625.15926993435
 30
0.0
 40
20.0
 41
556.6509010178333
 46
60.00000000000113
 71
4
 72
5
  1
  Ngày giao:
  7
Arial
  0
MTEXT
  5
BD
330
AE
100
AcDbEntity
  8
0
 62
2
100
AcDbMText
 10
17809.24922090965
 20
-28565.15926993435
 30
0.0
 40
20.0
 41
917.6339389950801
 46
60.00000000000113
 71
4
 72
5
  1
  Tên sản phẩm :
  7
Arial
  0
MTEXT
  5
BE
330
AE
100
AcDbEntity
  8
0
 62
2
100
AcDbMText
 10
17809.24922090965
 20
-28625.15926993435
 30
0.0
 40
20.0
 41
917.6339389950801
 46
60.00000000000113
 71
4
 72
5
  1
  Kích thước :
  7
Arial
  0
MTEXT
  5
BF
330
AE
100
AcDbEntity
  8
0
 62
2
100
AcDbMText
 10
18599.24922090965
 20
-28565.15926993435
 30
0.0
 40
20.0
 41
917.6339389950801
 46
60.00000000000113
 71
4
 72
5
  1
  Số lượng :
  7
Arial
  0
MTEXT
  5
C0
330
AE
100
AcDbEntity
  8
0
 62
2
100
AcDbMText
 10
18599.24922090965
 20
-28625.15926993435
 30
0.0
 40
20.0
 41
917.6339389950801
 46
60.00000000000113
 71
4
 72
5
  1
  Loại tôn :
  7
Arial
  0
MTEXT
  5
C1
330
AE
100
AcDbEntity
  8
0
 62
2
100
AcDbMText
 10
18993.40450252067
 20
-28595.15926993434
 30
0.0
 40
20.0
 41
108.3105632220314
 46
120.0000000000011
 71
5
 72
5
  1
Thông\Ptin :
  7
Arial
  0
MTEXT
  5
C2
330
AE
100
AcDbEntity
  8
0
 62
2
100
AcDbMText
 10
19834.24922091007
 20
-28565.15926993435
 30
0.0
 40
20.0
 41
110.0000000000065
 46
60.00000000000113
 71
5
 72
5
  1
Tờ
  7
Arial
  0
LINE
  5
C3
330
AE
100
AcDbEntity
  8
0
 62
7
100
AcDbLine
 10
19047.55978413167
 20
-28560.15926993435
 30
0.0
 11
19047.55978413167
 21
-28630.15926993435
 31
0.0
  0
MTEXT
  5
C4
330
AE
100
AcDbEntity
  8
0
 62
2
100
AcDbMText
 10
18548.56684883467
 20
-28625.15926993435
 30
0.0
 40
20.0
 41
73.8305401162098
 46
60.00000000000113
 71
4
 72
5
  1
mm
  7
Arial
  0
MTEXT
  5
C5
330
AE
100
AcDbEntity
  8
0
 62
2
100
AcDbMText
 10
18897.93889973559
 20
-28565.15926993435
 30
0.0
 40
20.0
 41
63.51722131864801
 46
60.00000000000113
 71
4
 72
5
  1
cái
  7
Arial
  0
MTEXT
  5
C6
330
AE
100
AcDbEntity
  8
0
 62
2
100
AcDbMText
 10
18889.20613294428
 20
-28625.15926993435
 30
0.0
 40
20.0
 41
917.6339389950801
 46
60.00000000000113
 71
4
 72
5
  1
mm
  7
Arial
  0
LINE
  5
C7
330
AE
100
AcDbEntity
  8
0
 62
7
100
AcDbLine
 10
17139.24922090965
 20
-28595.15926993434
 30
0.0
 11
17139.24922090965
 21
-28655.15926993435
 31
0.0
  0
MTEXT
  5
C8
330
AE
100
AcDbEntity
  8
0
 62
2
100
AcDbMText
 10
17134.01855837237
 20
-28625.15926993435
 30
0.0
 40
20.0
 41
556.6509010178333
 46
60.00000000000113
 71
4
 72
5
  1
  Ngày nhận :
  7
Arial
  0
LINE
  5
C9
330
AE
100
AcDbEntity
  8
0
 62
7
100
AcDbLine
 10
17474.24922090965
 20
-28595.15926993434
 30
0.0
 11
17474.24922090965
 21
-28655.15926993435
 31
0.0
  0
ATTDEF
  5
CA
330
AE
100
AcDbEntity
  8
0
 62
3
100
AcDbText
 10
18030.57595183183
 20
-28580.1015331953
 30
0.0
 40
20.0
  1
............
  7
Arial
100
AcDbAttributeDefinition
  3
SẢN PHẨM
  2
#03
 70
0
280
1
 71
1
 72
0
  0
ATTDEF
  5
CB
330
AE
100
AcDbEntity
  8
0
 62
3
100
AcDbText
 10
18002.0078672091
 20
-28634.73750821321
 30
0.0
 40
20.0
  1

  7
Arial
100
AcDbAttributeDefinition
  3
KÍCH THƯỚC
  2
#07
 70
0
280
1
 71
1
 72
0
  0
ATTDEF
  5
CC
330
AE
100
AcDbEntity
  8
0
 62
3
100
AcDbText
 10
18751.69842633112
 20
-28580.1015331953
 30
0.0
 40
20.0
  1

  7
Arial
100
AcDbAttributeDefinition
  3
SỐ LƯỢNG
  2
#08
 70
0
280
1
 71
1
 72
0
  0
ATTDEF
  5
CD
330
AE
100
AcDbEntity
  8
0
 62
3
100
AcDbText
 10
18753.84501617292
 20
-28632.59717057646
 30
0.0
 40
20.0
  1

  7
Arial
100
AcDbAttributeDefinition
  3
LOẠI TÔN
  2
#09
 70
0
280
1
 71
1
 72
0
  0
ATTDEF
  5
CE
330
AE
100
AcDbEntity
  8
0
 62
3
100
AcDbText
 10
19064.78379112245
 20
-28580.1015331953
 30
0.0
 40
20.0
  1

  7
Arial
100
AcDbAttributeDefinition
  3
CHÚ Ý 1
  2
#10
 70
0
280
1
 71
1
 72
0
  0
ATTDEF
  5
CF
330
AE
100
AcDbEntity
  8
0
 62
3
100
AcDbText
 10
19060.29593417999
 20
-28625.68604652386
 30
0.0
 40
20.0
  1

  7
Arial
100
AcDbAttributeDefinition
  3
CHÚ Ý 2
  2
#11
 70
0
280
1
 71
1
 72
0
  0
ATTDEF
  5
D0
330
AE
100
AcDbEntity
  8
0
 62
3
100
AcDbText
 10
17431.39468632692
 20
-28580.1015331953
 30
0.0
 40
20.0
  1

  7
Arial
100
AcDbAttributeDefinition
  3
KHÁCH HÀNG
  2
#02
 70
0
280
1
 71
1
 72
0
  0
ATTDEF
  5
D1
330
AE
100
AcDbEntity
  8
0
 62
3
100
AcDbText
 10
17308.45246357222
 20
-28633.02044838126
 30
0.0
 40
20.0
  1

  7
Arial
100
AcDbAttributeDefinition
  3
NGÀY NHẬN
  2
#05
 70
0
280
1
 71
1
 72
0
  0
ATTDEF
  5
D2
330
AE
100
AcDbEntity
  8
0
 62
3
100
AcDbText
 10
17632.65306459898
 20
-28633.73138801003
 30
0.0
 40
20.0
  1

  7
Arial
100
AcDbAttributeDefinition
  3
NGÀY GIAO
  2
#06
 70
0
280
1
 71
1
 72
0
  0
ATTDEF
  5
D3
330
AE
100
AcDbEntity
  8
0
 62
3
100
AcDbText
 10
17055.57441422327
 20
-28580.1015331953
 30
0.0
 40
20.0
  1

  7
Arial
100
AcDbAttributeDefinition
  3
THIẾT KẾ
  2
#01
 70
0
280
1
 71
1
 72
0
  0
ATTDEF
  5
D4
330
AE
100
AcDbEntity
  8
0
 62
3
100
AcDbText
 10
17024.76529237577
 20
-28634.61999292788
 30
0.0
 40
20.0
  1

  7
Arial
100
AcDbAttributeDefinition
  3
CNC
  2
#04
 70
0
280
1
 71
1
 72
0
  0
ATTDEF
  5
D5
330
AE
100
AcDbEntity
  8
0
 62
3
100
AcDbText
 10
19806.4585301708
 20
-28628.91186895216
 30
0.0
 40
20.0
  1

  7
Arial
100
AcDbAttributeDefinition
  3
TỜ
  2
#12
 70
0
280
1
 71
1
 72
0
  0
ENDBLK
  5
B0
330
AE
100
AcDbEntity
  8
0
100
AcDbBlockEnd
  0
BLOCK
  5
D7
330
D6
100
AcDbEntity
  8
0
100
AcDbBlockBegin
  2
f3daunguoc
 70
0
 10
0.0
 20
0.0
 30
0.0
  3
f3daunguoc
  1

  0
CIRCLE
  5
D9
330
D6
100
AcDbEntity
  8
CNC
 62
2
370
-3
100
AcDbCircle
 10
0.0
 20
0.0
 30
0.0
 40
1.5
  0
ENDBLK
  5
D8
330
D6
100
AcDbEntity
  8
0
100
AcDbBlockEnd
  0
BLOCK
  5
107
330
106
100
AcDbEntity
  8
0
100
AcDbBlockBegin
  2
*D1
 70
1
 10
0.0
 20
0.0
 30
0.0
  3
*D1
  1

  0
LINE
  5
109
330
106
100
AcDbEntity
  8
0
 62
5
370
9
 48
3.0
440
16777216
100
AcDbLine
 10
919.4201848873054
 20
2259.400739791843
 30
0.0
 11
919.4201848873054
 21
2326.725601949074
 31
0.0
  0
LINE
  5
10A
330
106
100
AcDbEntity
  8
0
 62
5
370
9
 48
3.0
440
16777216
100
AcDbLine
 10
939.4201848873054
 20
2239.400739791843
 30
0.0
 11
939.4201848873054
 21
2326.725601949074
 31
0.0
  0
LINE
  5
10B
330
106
100
AcDbEntity
  8
0
 62
5
370
9
 48
3.0
440
16777216
100
AcDbLine
 10
919.4201848873054
 20
2316.725601949074
 30
0.0
 11
939.4201848873054
 21
2316.725601949074
 31
0.0
  0
LINE
  5
10C
330
106
100
AcDbEntity
  8
0
 62
5
370
9
 48
3.0
440
16777216
100
AcDbLine
 10
939.4201848873054
 20
2316.725601949074
 30
0.0
 11
1003.5729816131061
 21
2316.725601949074
 31
0.0
  0
LINE
  5
10D
330
106
100
AcDbEntity
  8
0
  6
ByBlock
 62
0
370
-2
100
AcDbLine
 10
923.4201848873054
 20
2320.725601949074
 30
0.0
 11
915.4201848873054
 21
2312.725601949074
 31
0.0
  0
LINE
  5
10E
330
106
100
AcDbEntity
  8
0
  6
ByBlock
 62
0
370
-2
100
AcDbLine
 10
935.4201848873054
 20
2312.725601949074
 30
0.0
 11
943.4201848873054
 21
2320.725601949074
 31
0.0
  0
MTEXT
  5
10F
330
106
100
AcDbEntity
  8
0
 62
3
 48
3.0
440
16777216
100
AcDbMText
 10
975.4965832501039
 20
2339.489926642116
 30
0.0
 40
25.0
 41
0.0
 46
0.0
 71
5
  1
20
  0
POINT
  5
110
330
106
100
AcDbEntity
  8
Defpoints
 62
0
 48
3.0
440
16777216
100
AcDbPoint
 10
919.4201848873054
 20
2244.400739791843
 30
0.0
  0
POINT
  5
111
330
106
100
AcDbEntity
  8
Defpoints
 62
0
 48
3.0
440
16777216
100
AcDbPoint
 10
939.4201848873054
 20
2224.400739791843
 30
0.0
  0
POINT
  5
112
330
106
100
AcDbEntity
  8
Defpoints
 62
0
 48
3.0
440
16777216
100
AcDbPoint
 10
939.4201848873054
 20
2316.725601949074
 30
0.0
  0
ENDBLK
  5
108
330
106
100
AcDbEntity
  8
0
100
AcDbBlockEnd
  0
BLOCK
  5
114
330
113
100
AcDbEntity
  8
0
100
AcDbBlockBegin
  2
*D2
 70
1
 10
0.0
 20
0.0
 30
0.0
  3
*D2
  1

  0
LINE
  5
116
330
113
100
AcDbEntity
  8
0
 62
5
370
9
 48
3.0
440
16777216
100
AcDbLine
 10
919.4201848873054
 20
2259.400739791843
 30
0.0
 11
919.4201848873054
 21
2326.725601949074
 31
0.0
  0
LINE
  5
117
330
113
100
AcDbEntity
  8
0
 62
5
370
9
 48
3.0
440
16777216
100
AcDbLine
 10
355.42018488730537
 20
2259.400739791843
 30
0.0
 11
355.42018488730537
 21
2326.725601949074
 31
0.0
  0
LINE
  5
118
330
113
100
AcDbEntity
  8
0
 62
5
370
9
 48
3.0
440
16777216
100
AcDbLine
 10
919.4201848873054
 20
2316.725601949074
 30
0.0
 11
355.42018488730537
 21
2316.725601949074
 31
0.0
  0
LINE
  5
119
330
113
100
AcDbEntity
  8
0
  6
ByBlock
 62
0
370
-2
100
AcDbLine
 10
915.4201848873054
 20
2312.725601949074
 30
0.0
 11
923.4201848873054
 21
2320.725601949074
 31
0.0
  0
LINE
  5
11A
330
113
100
AcDbEntity
  8
0
  6
ByBlock
 62
0
370
-2
100
AcDbLine
 10
359.42018488730537
 20
2320.725601949074
 30
0.0
 11
351.42018488730537
 21
2312.725601949074
 31
0.0
  0
MTEXT
  5
11B
330
113
100
AcDbEntity
  8
0
 62
3
 48
3.0
440
16777216
100
AcDbMText
 10
637.4201848873054
 20
2339.489926642116
 30
0.0
 40
25.0
 41
0.0
 46
0.0
 71
5
  1
564
  0
POINT
  5
11C
330
113
100
AcDbEntity
  8
Defpoints
 62
0
 48
3.0
440
16777216
100
AcDbPoint
 10
919.4201848873054
 20
2244.400739791843
 30
0.0
  0
POINT
  5
11D
330
113
100
AcDbEntity
  8
Defpoints
 62
0
 48
3.0
440
16777216
100
AcDbPoint
 10
355.42018488730537
 20
2244.400739791843
 30
0.0
  0
POINT
  5
11E
330
113
100
AcDbEntity
  8
Defpoints
 62
0
 48
3.0
440
16777216
100
AcDbPoint
 10
355.42018488730537
 20
2316.725601949074
 30
0.0
  0
ENDBLK
  5
115
330
113
100
AcDbEntity
  8
0
100
AcDbBlockEnd
  0
BLOCK
  5
120
330
11F
100
AcDbEntity
  8
0
100
AcDbBlockBegin
  2
*D3
 70
1
 10
0.0
 20
0.0
 30
0.0
  3
*D3
  1

  0
LINE
  5
122
330
11F
100
AcDbEntity
  8
0
 62
5
370
9
 48
3.0
440
16777216
100
AcDbLine
 10
340.42018488730537
 20
2244.400739791843
 30
0.0
 11
156.35455291280232
 21
2244.400739791843
 31
0.0
  0
LINE
  5
123
330
11F
100
AcDbEntity
  8
0
 62
5
370
9
 48
3.0
440
16777216
100
AcDbLine
 10
340.42018488730537
 20
1040.400739791843
 30
0.0
 11
156.35455291280232
 21
1040.400739791843
 31
0.0
  0
LINE
  5
124
330
11F
100
AcDbEntity
  8
0
 62
5
370
9
 48
3.0
440
16777216
100
AcDbLine
 10
166.35455291280232
 20
2244.400739791843
 30
0.0
 11
166.35455291280232
 21
1040.400739791843
 31
0.0
  0
LINE
  5
125
330
11F
100
AcDbEntity
  8
0
  6
ByBlock
 62
0
370
-2
100
AcDbLine
 10
170.35455291280232
 20
2240.400739791843
 30
0.0
 11
162.35455291280232
 21
2248.400739791843
 31
0.0
  0
LINE
  5
126
330
11F
100
AcDbEntity
  8
0
  6
ByBlock
 62
0
370
-2
100
AcDbLine
 10
162.35455291280232
 20
1044.400739791843
 30
0.0
 11
170.35455291280232
 21
1036.400739791843
 31
0.0
  0
MTEXT
  5
127
330
11F
100
AcDbEntity
  8
0
 62
3
 48
3.0
440
16777216
100
AcDbMText
 10
143.59022821970575
 20
1642.400739791865
 30
0.0
 40
25.0
 41
0.0
 46
0.0
 71
5
  1
1204
 11
1e-16
 21
1.0
 31
0.0
  0
POINT
  5
128
330
11F
100
AcDbEntity
  8
Defpoints
 62
0
 48
3.0
440
16777216
100
AcDbPoint
 10
355.42018488730537
 20
2244.400739791843
 30
0.0
  0
POINT
  5
129
330
11F
100
AcDbEntity
  8
Defpoints
 62
0
 48
3.0
440
16777216
100
AcDbPoint
 10
355.42018488730537
 20
1040.400739791843
 30
0.0
  0
POINT
  5
12A
330
11F
100
AcDbEntity
  8
Defpoints
 62
0
 48
3.0
440
16777216
100
AcDbPoint
 10
166.35455291280232
 20
1040.400739791843
 30
0.0
  0
ENDBLK
  5
121
330
11F
100
AcDbEntity
  8
0
100
AcDbBlockEnd
  0
BLOCK
  5
12C
330
12B
100
AcDbEntity
  8
0
100
AcDbBlockBegin
  2
*D4
 70
1
 10
0.0
 20
0.0
 30
0.0
  3
*D4
  1

  0
LINE
  5
12E
330
12B
100
AcDbEntity
  8
0
 62
5
370
9
 48
3.0
440
16777216
100
AcDbLine
 10
320.42018488730537
 20
1060.400739791854
 30
0.0
 11
241.5038493944012
 21
1060.400739791854
 31
0.0
  0
LINE
  5
12F
330
12B
100
AcDbEntity
  8
0
 62
5
370
9
 48
3.0
440
16777216
100
AcDbLine
 10
320.42018488730537
 20
2224.400739791843
 30
0.0
 11
241.5038493944012
 21
2224.400739791843
 31
0.0
  0
LINE
  5
130
330
12B
100
AcDbEntity
  8
0
 62
5
370
9
 48
3.0
440
16777216
100
AcDbLine
 10
251.5038493944012
 20
1060.400739791854
 30
0.0
 11
251.5038493944012
 21
2224.400739791843
 31
0.0
  0
LINE
  5
131
330
12B
100
AcDbEntity
  8
0
  6
ByBlock
 62
0
370
-2
100
AcDbLine
 10
247.5038493944012
 20
1064.400739791854
 30
0.0
 11
255.5038493944012
 21
1056.400739791854
 31
0.0
  0
LINE
  5
132
330
12B
100
AcDbEntity
  8
0
  6
ByBlock
 62
0
370
-2
100
AcDbLine
 10
255.5038493944012
 20
2220.400739791843
 30
0.0
 11
247.5038493944012
 21
2228.400739791843
 31
0.0
  0
MTEXT
  5
133
330
12B
100
AcDbEntity
  8
0
 62
3
 48
3.0
440
16777216
100
AcDbMText
 10
228.73952470140648
 20
1642.400739791865
 30
0.0
 40
25.0
 41
0.0
 46
0.0
 71
5
  1
1164
 11
1e-16
 21
1.0
 31
0.0
  0
POINT
  5
134
330
12B
100
AcDbEntity
  8
Defpoints
 62
0
 48
3.0
440
16777216
100
AcDbPoint
 10
335.42018488730537
 20
1060.400739791854
 30
0.0
  0
POINT
  5
135
330
12B
100
AcDbEntity
  8
Defpoints
 62
0
 48
3.0
440
16777216
100
AcDbPoint
 10
335.42018488730537
 20
2224.400739791843
 30
0.0
  0
POINT
  5
136
330
12B
100
AcDbEntity
  8
Defpoints
 62
0
 48
3.0
440
16777216
100
AcDbPoint
 10
251.5038493944012
 20
2224.400739791843
 30
0.0
  0
ENDBLK
  5
12D
330
12B
100
AcDbEntity
  8
0
100
AcDbBlockEnd
  0
BLOCK
  5
138
330
137
100
AcDbEntity
  8
0
100
AcDbBlockBegin
  2
*D5
 70
1
 10
0.0
 20
0.0
 30
0.0
  3
*D5
  1

  0
LINE
  5
13A
330
137
100
AcDbEntity
  8
DIM
 62
5
370
9
440
16777216
100
AcDbLine
 10
1819.7532580253028
 20
2265.900739791843
 30
0.0
 11
1819.7532580253028
 21
2320.0018225055246
 31
0.0
  0
LINE
  5
13B
330
137
100
AcDbEntity
  8
DIM
 62
5
370
9
440
16777216
100
AcDbLine
 10
1829.753258025201
 20
2255.900739791843
 30
0.0
 11
1829.753258025201
 21
2320.0018225055246
 31
0.0
  0
LINE
  5
13C
330
137
100
AcDbEntity
  8
DIM
 62
5
370
9
440
16777216
100
AcDbLine
 10
1819.7532580253028
 20
2310.0018225055137
 30
0.0
 11
1811.7532580253028
 21
2310.0018225055137
 31
0.0
  0
LINE
  5
13D
330
137
100
AcDbEntity
  8
DIM
 62
5
370
9
440
16777216
100
AcDbLine
 10
1829.753258025201
 20
2310.0018225055137
 30
0.0
 11
1899.1263821726025
 21
2310.0018225055137
 31
0.0
  0
LINE
  5
13E
330
137
100
AcDbEntity
  8
DIM
 62
5
370
9
440
16777216
100
AcDbLine
 10
1819.7532580253028
 20
2310.0018225055137
 30
0.0
 11
1829.753258025201
 21
2310.0018225055137
 31
0.0
  0
LINE
  5
13F
330
137
100
AcDbEntity
  8
0
  6
ByBlock
 62
0
370
-2
100
AcDbLine
 10
1815.7532580253028
 20
2306.0018225055137
 30
0.0
 11
1823.7532580253028
 21
2314.0018225055137
 31
0.0
  0
LINE
  5
140
330
137
100
AcDbEntity
  8
0
  6
ByBlock
 62
0
370
-2
100
AcDbLine
 10
1833.753258025201
 20
2314.0018225055137
 30
0.0
 11
1825.753258025201
 21
2306.0018225055137
 31
0.0
  0
MTEXT
  5
141
330
137
100
AcDbEntity
  8
DIM
 62
3
440
16777216
100
AcDbMText
 10
1872.439820098909
 20
2332.7661471985666
 30
0.0
 40
25.0
 41
0.0
 46
0.0
 71
5
  1
10
  0
POINT
  5
142
330
137
100
AcDbEntity
  8
Defpoints
 62
0
440
16777216
100
AcDbPoint
 10
1819.7532580253028
 20
2250.900739791843
 30
0.0
  0
POINT
  5
143
330
137
100
AcDbEntity
  8
Defpoints
 62
0
440
16777216
100
AcDbPoint
 10
1829.753258025201
 20
2240.900739791843
 30
0.0
  0
POINT
  5
144
330
137
100
AcDbEntity
  8
Defpoints
 62
0
440
16777216
100
AcDbPoint
 10
1829.753258025201
 20
2310.0018225055137
 30
0.0
  0
ENDBLK
  5
139
330
137
100
AcDbEntity
  8
0
100
AcDbBlockEnd
  0
BLOCK
  5
146
330
145
100
AcDbEntity
  8
0
100
AcDbBlockBegin
  2
*D6
 70
1
 10
0.0
 20
0.0
 30
0.0
  3
*D6
  1

  0
LINE
  5
148
330
145
100
AcDbEntity
  8
DIM
 62
5
370
9
440
16777216
100
AcDbLine
 10
1803.7532580253028
 20
2281.900739791843
 30
0.0
 11
1803.7532580253028
 21
2356.064767306354
 31
0.0
  0
LINE
  5
149
330
145
100
AcDbEntity
  8
DIM
 62
5
370
9
440
16777216
100
AcDbLine
 10
1819.7532580253028
 20
2265.900739791843
 30
0.0
 11
1819.7532580253028
 21
2356.064767306354
 31
0.0
  0
LINE
  5
14A
330
145
100
AcDbEntity
  8
DIM
 62
5
370
9
440
16777216
100
AcDbLine
 10
1803.7532580253028
 20
2346.064767306365
 30
0.0
 11
1795.7532580253028
 21
2346.064767306365
 31
0.0
  0
LINE
  5
14B
330
145
100
AcDbEntity
  8
DIM
 62
5
370
9
440
16777216
100
AcDbLine
 10
1819.7532580253028
 20
2346.064767306365
 30
0.0
 11
1889.194594996603
 21
2346.064767306365
 31
0.0
  0
LINE
  5
14C
330
145
100
AcDbEntity
  8
DIM
 62
5
370
9
440
16777216
100
AcDbLine
 10
1803.7532580253028
 20
2346.064767306365
 30
0.0
 11
1819.7532580253028
 21
2346.064767306365
 31
0.0
  0
LINE
  5
14D
330
145
100
AcDbEntity
  8
0
  6
ByBlock
 62
0
370
-2
100
AcDbLine
 10
1799.7532580253028
 20
2342.064767306365
 30
0.0
 11
1807.7532580253028
 21
2350.064767306365
 31
0.0
  0
LINE
  5
14E
330
145
100
AcDbEntity
  8
0
  6
ByBlock
 62
0
370
-2
100
AcDbLine
 10
1823.7532580253028
 20
2350.064767306365
 30
0.0
 11
1815.7532580253028
 21
2342.064767306365
 31
0.0
  0
MTEXT
  5
14F
330
145
100
AcDbEntity
  8
DIM
 62
3
440
16777216
100
AcDbMText
 10
1862.4739265109092
 20
2368.8290919994033
 30
0.0
 40
25.0
 41
0.0
 46
0.0
 71
5
  1
16
  0
POINT
  5
150
330
145
100
AcDbEntity
  8
Defpoints
 62
0
440
16777216
100
AcDbPoint
 10
1803.7532580253028
 20
2266.900739791843
 30
0.0
  0
POINT
  5
151
330
145
100
AcDbEntity
  8
Defpoints
 62
0
440
16777216
100
AcDbPoint
 10
1819.7532580253028
 20
2250.900739791843
 30
0.0
  0
POINT
  5
152
330
145
100
AcDbEntity
  8
Defpoints
 62
0
440
16777216
100
AcDbPoint
 10
1819.7532580253028
 20
2346.064767306365
 30
0.0
  0
ENDBLK
  5
147
330
145
100
AcDbEntity
  8
0
100
AcDbBlockEnd
  0
BLOCK
  5
154
330
153
100
AcDbEntity
  8
0
100
AcDbBlockBegin
  2
*D7
 70
1
 10
0.0
 20
0.0
 30
0.0
  3
*D7
  1

  0
LINE
  5
156
330
153
100
AcDbEntity
  8
DIM
 62
5
370
9
440
16777216
100
AcDbLine
 10
1803.7532580253028
 20
2281.900739791843
 30
0.0
 11
1803.7532580253028
 21
2356.064767306354
 31
0.0
  0
LINE
  5
157
330
153
100
AcDbEntity
  8
DIM
 62
5
370
9
440
16777216
100
AcDbLine
 10
1186.9532580252999
 20
2281.900739791843
 30
0.0
 11
1186.9532580252999
 21
2356.064767306354
 31
0.0
  0
LINE
  5
158
330
153
100
AcDbEntity
  8
DIM
 62
5
370
9
440
16777216
100
AcDbLine
 10
1803.7532580253028
 20
2346.064767306365
 30
0.0
 11
1186.9532580252999
 21
2346.064767306365
 31
0.0
  0
LINE
  5
159
330
153
100
AcDbEntity
  8
0
  6
ByBlock
 62
0
370
-2
100
AcDbLine
 10
1799.7532580253028
 20
2342.064767306365
 30
0.0
 11
1807.7532580253028
 21
2350.064767306365
 31
0.0
  0
LINE
  5
15A
330
153
100
AcDbEntity
  8
0
  6
ByBlock
 62
0
370
-2
100
AcDbLine
 10
1190.9532580252999
 20
2350.064767306365
 30
0.0
 11
1182.9532580252999
 21
2342.064767306365
 31
0.0
  0
MTEXT
  5
15B
330
153
100
AcDbEntity
  8
DIM
 62
3
440
16777216
100
AcDbMText
 10
1495.3532580253086
 20
2368.8290919994033
 30
0.0
 40
25.0
 41
0.0
 46
0.0
 71
5
  1
617
  0
POINT
  5
15C
330
153
100
AcDbEntity
  8
Defpoints
 62
0
440
16777216
100
AcDbPoint
 10
1803.7532580253028
 20
2266.900739791843
 30
0.0
  0
POINT
  5
15D
330
153
100
AcDbEntity
  8
Defpoints
 62
0
440
16777216
100
AcDbPoint
 10
1186.9532580252999
 20
2266.900739791843
 30
0.0
  0
POINT
  5
15E
330
153
100
AcDbEntity
  8
Defpoints
 62
0
440
16777216
100
AcDbPoint
 10
1186.9532580252999
 20
2346.064767306365
 30
0.0
  0
ENDBLK
  5
155
330
153
100
AcDbEntity
  8
0
100
AcDbBlockEnd
  0
BLOCK
  5
160
330
15F
100
AcDbEntity
  8
0
100
AcDbBlockBegin
  2
*D8
 70
1
 10
0.0
 20
0.0
 30
0.0
  3
*D8
  1

  0
LINE
  5
162
330
15F
100
AcDbEntity
  8
DIM
 62
5
370
9
440
16777216
100
AcDbLine
 10
1155.9532580252999
 20
2250.900739791843
 30
0.0
 11
1100.6611264915991
 21
2250.900739791843
 31
0.0
  0
LINE
  5
163
330
15F
100
AcDbEntity
  8
DIM
 62
5
370
9
440
16777216
100
AcDbLine
 10
1155.9532580252999
 20
1033.900739791843
 30
0.0
 11
1100.6611264915991
 21
1033.900739791843
 31
0.0
  0
LINE
  5
164
330
15F
100
AcDbEntity
  8
DIM
 62
5
370
9
440
16777216
100
AcDbLine
 10
1110.6611264915991
 20
2250.900739791843
 30
0.0
 11
1110.6611264915991
 21
1033.900739791843
 31
0.0
  0
LINE
  5
165
330
15F
100
AcDbEntity
  8
0
  6
ByBlock
 62
0
370
-2
100
AcDbLine
 10
1114.6611264915991
 20
2246.900739791843
 30
0.0
 11
1106.6611264915991
 21
2254.900739791843
 31
0.0
  0
LINE
  5
166
330
15F
100
AcDbEntity
  8
0
  6
ByBlock
 62
0
370
-2
100
AcDbLine
 10
1106.6611264915991
 20
1037.900739791843
 30
0.0
 11
1114.6611264915991
 21
1029.900739791843
 31
0.0
  0
MTEXT
  5
167
330
15F
100
AcDbEntity
  8
DIM
 62
3
440
16777216
100
AcDbMText
 10
1088.1099668735988
 20
1642.400739791865
 30
0.0
 40
25.0
 41
0.0
 46
0.0
 71
5
  1
1217
 11
1e-16
 21
1.0
 31
0.0
  0
POINT
  5
168
330
15F
100
AcDbEntity
  8
Defpoints
 62
0
440
16777216
100
AcDbPoint
 10
1170.953258025198
 20
2250.900739791843
 30
0.0
  0
POINT
  5
169
330
15F
100
AcDbEntity
  8
Defpoints
 62
0
440
16777216
100
AcDbPoint
 10
1170.953258025198
 20
1033.900739791843
 30
0.0
  0
POINT
  5
16A
330
15F
100
AcDbEntity
  8
Defpoints
 62
0
440
16777216
100
AcDbPoint
 10
1110.6611264915991
 20
1033.900739791843
 30
0.0
  0
ENDBLK
  5
161
330
15F
100
AcDbEntity
  8
0
100
AcDbBlockEnd
  0
BLOCK
  5
16C
330
16B
100
AcDbEntity
  8
0
100
AcDbBlockBegin
  2
*D9
 70
1
 10
0.0
 20
0.0
 30
0.0
  3
*D9
  1

  0
LINE
  5
16E
330
16B
100
AcDbEntity
  8
DIM
 62
5
370
9
440
16777216
100
AcDbLine
 10
1160.953258025198
 20
1028.900739791843
 30
0.0
 11
1160.953258025198
 21
934.6221867205059
 31
0.0
  0
LINE
  5
16F
330
16B
100
AcDbEntity
  8
DIM
 62
5
370
9
440
16777216
100
AcDbLine
 10
1829.753258025201
 20
1028.900739791843
 30
0.0
 11
1829.753258025201
 21
934.6221867205059
 31
0.0
  0
LINE
  5
170
330
16B
100
AcDbEntity
  8
DIM
 62
5
370
9
440
16777216
100
AcDbLine
 10
1160.953258025198
 20
944.6221867205059
 30
0.0
 11
1829.753258025201
 21
944.6221867205059
 31
0.0
  0
LINE
  5
171
330
16B
100
AcDbEntity
  8
0
  6
ByBlock
 62
0
370
-2
100
AcDbLine
 10
1164.953258025198
 20
948.6221867205059
 30
0.0
 11
1156.953258025198
 21
940.6221867205059
 31
0.0
  0
LINE
  5
172
330
16B
100
AcDbEntity
  8
0
  6
ByBlock
 62
0
370
-2
100
AcDbLine
 10
1825.753258025201
 20
940.6221867205059
 30
0.0
 11
1833.753258025201
 21
948.6221867205059
 31
0.0
  0
MTEXT
  5
173
330
16B
100
AcDbEntity
  8
DIM
 62
3
440
16777216
100
AcDbMText
 10
1495.3532580252067
 20
967.3865114135442
 30
0.0
 40
25.0
 41
0.0
 46
0.0
 71
5
  1
669
  0
POINT
  5
174
330
16B
100
AcDbEntity
  8
Defpoints
 62
0
440
16777216
100
AcDbPoint
 10
1160.953258025198
 20
1043.900739791843
 30
0.0
  0
POINT
  5
175
330
16B
100
AcDbEntity
  8
Defpoints
 62
0
440
16777216
100
AcDbPoint
 10
1829.753258025201
 20
1043.900739791843
 30
0.0
  0
POINT
  5
176
330
16B
100
AcDbEntity
  8
Defpoints
 62
0
440
16777216
100
AcDbPoint
 10
1829.753258025201
 20
944.6221867205059
 30
0.0
  0
ENDBLK
  5
16D
330
16B
100
AcDbEntity
  8
0
100
AcDbBlockEnd
  0
BLOCK
  5
178
330
177
100
AcDbEntity
  8
0
100
AcDbBlockBegin
  2
*D10
 70
1
 10
0.0
 20
0.0
 30
0.0
  3
*D10
  1

  0
LINE
  5
17A
330
177
100
AcDbEntity
  8
0
 62
5
370
9
 48
3.0
440
16777216
100
AcDbLine
 10
335.42018488730537
 20
1045.400739791843
 30
0.0
 11
335.42018488730537
 21
950.8041013750844
 31
0.0
  0
LINE
  5
17B
330
177
100
AcDbEntity
  8
0
 62
5
370
9
 48
3.0
440
16777216
100
AcDbLine
 10
939.4201848873054
 20
1045.400739791843
 30
0.0
 11
939.4201848873054
 21
950.8041013750844
 31
0.0
  0
LINE
  5
17C
330
177
100
AcDbEntity
  8
0
 62
5
370
9
 48
3.0
440
16777216
100
AcDbLine
 10
335.42018488730537
 20
960.8041013750953
 30
0.0
 11
939.4201848873054
 21
960.8041013750953
 31
0.0
  0
LINE
  5
17D
330
177
100
AcDbEntity
  8
0
  6
ByBlock
 62
0
370
-2
100
AcDbLine
 10
339.42018488730537
 20
964.8041013750953
 30
0.0
 11
331.42018488730537
 21
956.8041013750953
 31
0.0
  0
LINE
  5
17E
330
177
100
AcDbEntity
  8
0
  6
ByBlock
 62
0
370
-2
100
AcDbLine
 10
935.4201848873054
 20
956.8041013750953
 30
0.0
 11
943.4201848873054
 21
964.8041013750953
 31
0.0
  0
MTEXT
  5
17F
330
177
100
AcDbEntity
  8
0
 62
3
 48
3.0
440
16777216
100
AcDbMText
 10
637.4201848873054
 20
983.5684260681337
 30
0.0
 40
25.0
 41
0.0
 46
0.0
 71
5
  1
604
  0
POINT
  5
180
330
177
100
AcDbEntity
  8
Defpoints
 62
0
 48
3.0
440
16777216
100
AcDbPoint
 10
335.42018488730537
 20
1060.400739791854
 30
0.0
  0
POINT
  5
181
330
177
100
AcDbEntity
  8
Defpoints
 62
0
 48
3.0
440
16777216
100
AcDbPoint
 10
939.4201848873054
 20
1060.400739791854
 30
0.0
  0
POINT
  5
182
330
177
100
AcDbEntity
  8
Defpoints
 62
0
 48
3.0
440
16777216
100
AcDbPoint
 10
939.4201848873054
 20
960.8041013750953
 30
0.0
  0
ENDBLK
  5
179
330
177
100
AcDbEntity
  8
0
100
AcDbBlockEnd
  0
ENDSEC
  0
SECTION
  2
ENTITIES
  0
INSERT
  5
2F
330
17
100
AcDbEntity
  8
0
 62
3
100
AcDbBlockReference
 66
1
  2
KHUNG CHUẨN
 10
-22519.52071312527
 20
38140.016988442716
 30
0.0
 41
1.331000000005587
 42
1.331000000005587
 43
1.331000000005587
  0
ATTRIB
  5
30
330
2F
100
AcDbEntity
  8
0
 62
3
100
AcDbText
 10
1479.1758787629078
 20
99.90184775977468
 30
0.0
 40
26.62000000000001
  1
Võ tủ
  7
Arial
100
AcDbAttribute
  2
#03
 70
0
280
1
 71
1
 72
0
  0
ATTRIB
  5
31
330
2F
100
AcDbEntity
  8
0
 62
3
100
AcDbText
 10
1441.1517581299995
 20
27.181365010936133
 30
0.0
 40
26.62000000000001
  1
1400x700x500
  7
Arial
100
AcDbAttribute
  2
#07
 70
0
280
1
 71
1
 72
0
  0
ATTRIB
  5
32
330
2F
100
AcDbEntity
  8
0
 62
3
100
AcDbText
 10
2438.989892321406
 20
99.90184775977468
 30
0.0
 40
26.62000000000001
  1
1
  7
Arial
100
AcDbAttribute
  2
#08
 70
0
280
1
 71
1
 72
0
  0
ATTRIB
  5
33
330
2F
100
AcDbEntity
  8
0
 62
3
100
AcDbText
 10
2441.847003400908
 20
30.030154405456415
 30
0.0
 40
26.62000000000001
  1
1.5
  7
Arial
100
AcDbAttribute
  2
#09
 70
0
280
1
 71
1
 72
0
  0
ATTRIB
  5
34
330
2F
100
AcDbEntity
  8
0
 62
3
100
AcDbText
 10
2855.7065128586983
 20
99.90184775977468
 30
0.0
 40
26.62000000000001
  1
sơn màu ghi sáng
  7
Arial
100
AcDbAttribute
  2
#10
 70
0
280
1
 71
1
 72
0
  0
ATTRIB
  5
35
330
2F
100
AcDbEntity
  8
0
 62
3
100
AcDbText
 10
2849.7331752683094
 20
39.22886051946625
 30
0.0
 40
26.62000000000001
  1
TỦ NGOÀI TRỜI, HAI LỚP CÁNH
  7
Arial
100
AcDbAttribute
  2
#11
 70
0
280
1
 71
1
 72
0
  0
ATTRIB
  5
36
330
2F
100
AcDbEntity
  8
0
 62
3
100
AcDbText
 10
681.6656143759028
 20
99.90184775977468
 30
0.0
 40
26.62000000000001
  1
Cường SEKY
  7
Arial
100
AcDbAttribute
  2
#02
 70
0
280
1
 71
1
 72
0
  0
ATTRIB
  5
37
330
2F
100
AcDbEntity
  8
0
 62
3
100
AcDbText
 10
518.0295158892986
 20
29.466771647264977
 30
0.0
 40
26.62000000000001
  1
27/11
  7
Arial
100
AcDbAttribute
  2
#05
 70
0
280
1
 71
1
 72
0
  0
ATTRIB
  5
38
330
2F
100
AcDbEntity
  8
0
 62
3
100
AcDbText
 10
949.5405158560025
 20
28.520511001363047
 30
0.0
 40
26.62000000000001
  1
27/11
  7
Arial
100
AcDbAttribute
  2
#06
 70
0
280
1
 71
1
 72
0
  0
ATTRIB
  5
39
330
2F
100
AcDbEntity
  8
0
 62
3
100
AcDbText
 10
181.44883220590418
 20
99.90184775977468
 30
0.0
 40
26.62000000000001
  1
Phúc
  7
Arial
100
AcDbAttribute
  2
#01
 70
0
280
1
 71
1
 72
0
  0
ATTRIB
  5
3A
330
2F
100
AcDbEntity
  8
0
 62
3
100
AcDbText
 10
140.44189102690143
 20
27.33777785570419
 30
0.0
 40
26.62000000000001
  1
............
  7
Arial
100
AcDbAttribute
  2
#04
 70
0
280
1
 71
1
 72
0
  0
ATTRIB
  5
3B
330
2F
100
AcDbEntity
  8
0
 62
3
100
AcDbText
 10
3842.8755905321013
 20
34.93529086739363
 30
0.0
 40
26.62000000000001
  1
.......
  7
Arial
100
AcDbAttribute
  2
#12
 70
0
280
1
 71
1
 72
0
  0
SEQEND
  5
3C
330
17
100
AcDbEntity
  8
0
 62
3
  0
LWPOLYLINE
  5
3D
330
17
100
AcDbEntity
  8
0
100
AcDbPolyline
 90
4
 70
1
 10
355.42018488730537
 20
2224.400739791843
 10
919.4201848873054
 20
2224.400739791843
 10
919.4201848873054
 20
1060.400739791854
 10
355.42018488730537
 20
1060.400739791854
  0
CIRCLE
  5
3E
330
17
100
AcDbEntity
  8
0
 62
2
 48
3.0
100
AcDbCircle
 10
369.92018488730537
 20
2209.900739791843
 30
0.0
 40
6.5
  0
CIRCLE
  5
3F
330
17
100
AcDbEntity
  8
0
 62
2
 48
3.0
100
AcDbCircle
 10
369.92018488730537
 20
1074.900739791854
 30
0.0
 40
6.5
  0
CIRCLE
  5
40
330
17
100
AcDbEntity
  8
0
 62
2
 48
3.0
100
AcDbCircle
 10
904.9201848873054
 20
1074.900739791854
 30
0.0
 40
6.5
  0
LWPOLYLINE
  5
41
330
17
100
AcDbEntity
  8
0
100
AcDbPolyline
 90
2
 70
0
 10
335.42018488730537
 20
1060.400739791854
 10
335.42018488730537
 20
2224.400739791843
  0
LWPOLYLINE
  5
42
330
17
100
AcDbEntity
  8
0
 48
3.0
100
AcDbPolyline
 90
3
 70
0
 10
355.42018488730537
 20
2244.400739791843
 10
355.42018488730537
 20
2224.400739791843
 10
335.42018488730537
 20
2224.400739791843
  0
LWPOLYLINE
  5
43
330
17
100
AcDbEntity
  8
0
 48
3.0
100
AcDbPolyline
 90
3
 70
0
 10
919.4201848873054
 20
2244.400739791843
 10
919.4201848873054
 20
2224.400739791843
 10
939.4201848873054
 20
2224.400739791843
  0
LWPOLYLINE
  5
44
330
17
100
AcDbEntity
  8
0
 48
3.0
100
AcDbPolyline
 90
3
 70
0
 10
919.4201848873054
 20
1040.400739791843
 10
919.4201848873054
 20
1060.400739791854
 10
939.4201848873054
 20
1060.400739791854
  0
LWPOLYLINE
  5
45
330
17
100
AcDbEntity
  8
0
 48
3.0
100
AcDbPolyline
 90
3
 70
0
 10
355.42018488730537
 20
1040.400739791843
 10
355.42018488730537
 20
1060.400739791854
 10
335.42018488730537
 20
1060.400739791854
  0
LWPOLYLINE
  5
46
330
17
100
AcDbEntity
  8
0
100
AcDbPolyline
 90
2
 70
0
 10
919.4201848873054
 20
1040.400739791843
 10
355.42018488730537
 20
1040.400739791843
  0
LWPOLYLINE
  5
47
330
17
100
AcDbEntity
  8
0
100
AcDbPolyline
 90
2
 70
0
 10
939.4201848873054
 20
2224.400739791843
 10
939.4201848873054
 20
1060.400739791854
  0
LWPOLYLINE
  5
48
330
17
100
AcDbEntity
  8
0
100
AcDbPolyline
 90
2
 70
0
 10
355.42018488730537
 20
2244.400739791843
 10
919.4201848873054
 20
2244.400739791843
  0
CIRCLE
  5
49
330
17
100
AcDbEntity
  8
0
 62
2
 48
3.0
100
AcDbCircle
 10
904.9201848873054
 20
2209.900739791843
 30
0.0
 40
6.5
  0
INSERT
  5
4A
330
17
100
AcDbEntity
  8
0
370
-3
100
AcDbBlockReference
  2
f3daunguoc
 10
370.42018488730537
 20
2224.400739791843
 30
0.0
 41
-1.0
 50
180.0
  0
INSERT
  5
4C
330
17
100
AcDbEntity
  8
0
370
-3
100
AcDbBlockReference
  2
f3daunguoc
 10
355.42018488730537
 20
2209.400739791843
 30
0.0
 41
-1.0
 50
180.0
  0
INSERT
  5
4E
330
17
100
AcDbEntity
  8
0
370
-3
100
AcDbBlockReference
  2
f3daunguoc
 10
420.42018488730537
 20
2224.400739791843
 30
0.0
 41
-1.0
 50
180.0
  0
INSERT
  5
50
330
17
100
AcDbEntity
  8
0
370
-3
100
AcDbBlockReference
  2
f3daunguoc
 10
904.4201848873054
 20
2224.400739791843
 30
0.0
 50
180.0
  0
INSERT
  5
52
330
17
100
AcDbEntity
  8
0
370
-3
100
AcDbBlockReference
  2
f3daunguoc
 10
919.4201848873054
 20
2209.400739791843
 30
0.0
 50
180.0
  0
INSERT
  5
54
330
17
100
AcDbEntity
  8
0
370
-3
100
AcDbBlockReference
  2
f3daunguoc
 10
854.4201848873054
 20
2224.400739791843
 30
0.0
 50
180.0
  0
INSERT
  5
56
330
17
100
AcDbEntity
  8
0
370
-3
100
AcDbBlockReference
  2
f3daunguoc
 10
370.42018488730537
 20
1060.400739791854
 30
0.0
  0
INSERT
  5
58
330
17
100
AcDbEntity
  8
0
370
-3
100
AcDbBlockReference
  2
f3daunguoc
 10
355.42018488730537
 20
1075.400739791843
 30
0.0
  0
INSERT
  5
5A
330
17
100
AcDbEntity
  8
0
370
-3
100
AcDbBlockReference
  2
f3daunguoc
 10
420.42018488730537
 20
1060.400739791854
 30
0.0
  0
INSERT
  5
5C
330
17
100
AcDbEntity
  8
0
370
-3
100
AcDbBlockReference
  2
f3daunguoc
 10
904.4201848873054
 20
1060.400739791854
 30
0.0
 41
-1.0
  0
INSERT
  5
5E
330
17
100
AcDbEntity
  8
0
370
-3
100
AcDbBlockReference
  2
f3daunguoc
 10
919.4201848873054
 20
1075.400739791843
 30
0.0
 41
-1.0
  0
INSERT
  5
60
330
17
100
AcDbEntity
  8
0
370
-3
100
AcDbBlockReference
  2
f3daunguoc
 10
854.4201848873054
 20
1060.400739791854
 30
0.0
 41
-1.0
  0
DIMENSION
  5
62
330
17
100
AcDbEntity
  8
0
 48
3.0
100
AcDbDimension
280
0
  2
*D1
  3
Dim-25
 10
939.4201848873054
 20
2316.725601949074
 30
0.0
 11
975.4965832501039
 21
2339.489926642116
 31
0.0
 70
32
 71
5
 42
20.0
 73
0
 74
0
 75
0
100
AcDbAlignedDimension
 13
919.4201848873054
 23
2244.400739791843
 33
0.0
 14
939.4201848873054
 24
2224.400739791843
 34
0.0
 50
0.0
100
AcDbRotatedDimension
  0
DIMENSION
  5
67
330
17
100
AcDbEntity
  8
0
 48
3.0
100
AcDbDimension
280
0
  2
*D2
  3
Dim-25
 10
355.42018488730537
 20
2316.725601949074
 30
0.0
 11
637.4201848873054
 21
2339.489926642116
 31
0.0
 70
32
 71
5
 42
564.0
 73
0
 74
0
 75
0
100
AcDbAlignedDimension
 13
919.4201848873054
 23
2244.400739791843
 33
0.0
 14
355.42018488730537
 24
2244.400739791843
 34
0.0
 50
0.0
100
AcDbRotatedDimension
  0
DIMENSION
  5
68
330
17
100
AcDbEntity
  8
0
 48
3.0
100
AcDbDimension
280
0
  2
*D3
  3
Dim-25
 10
166.35455291280232
 20
1040.400739791843
 30
0.0
 11
143.59022821970575
 21
1642.400739791865
 31
0.0
 70
32
 71
5
 42
1204.0
 73
0
 74
0
 75
0
100
AcDbAlignedDimension
 13
355.42018488730537
 23
2244.400739791843
 33
0.0
 14
355.42018488730537
 24
1040.400739791843
 34
0.0
 50
90.0
100
AcDbRotatedDimension
  0
DIMENSION
  5
69
330
17
100
AcDbEntity
  8
0
 48
3.0
100
AcDbDimension
280
0
  2
*D4
  3
Dim-25
 10
251.5038493944012
 20
2224.400739791843
 30
0.0
 11
251.5038493944012
 21
1642.400739791865
 31
0.0
 70
160
 71
5
 42
1164.0
 73
0
 74
0
 75
0
100
AcDbAlignedDimension
 13
335.42018488730537
 23
1060.400739791854
 33
0.0
 14
335.42018488730537
 24
2224.400739791843
 34
0.0
 50
90.0
100
AcDbRotatedDimension
  0
MTEXT
  5
6A
330
17
100
AcDbEntity
  8
0
 62
2
100
AcDbMText
 10
1415.2339241067966
 20
901.4769597412633
 30
0.0
 40
25.0
 41
1346.318946375293
 46
100.0000000000031
 71
5
 72
5
  1
Cánh trong : 1 tấm
  0
LWPOLYLINE
  5
6B
330
17
100
AcDbEntity
  8
0
 62
7
100
AcDbPolyline
 90
4
 70
1
 10
1186.9532580252999
 20
2250.900739791843
 10
1803.7532580253028
 20
2250.900739791843
 10
1803.7532580253028
 20
1033.900739791843
 10
1186.9532580252999
 20
1033.900739791843
  0
LWPOLYLINE
  5
6C
330
17
100
AcDbEntity
  8
0
 62
7
100
AcDbPolyline
 90
22
 70
0
 10
1829.753258025201
 20
1111.900739791843
 10
1829.753258025201
 20
1043.900739791825
 10
1819.7532580253028
 20
1033.900739791843
 10
1803.7532580253028
 20
1033.900739791843
 10
1803.7532580253028
 20
1017.9007397918431
 10
1793.7532580253028
 20
1007.900739791854
 10
1196.953258025198
 20
1007.9007397918431
 10
1186.9532580252999
 20
1017.9007397918431
 10
1186.9532580252999
 20
1033.900739791843
 10
1170.953258025198
 20
1033.900739791843
 10
1160.953258025198
 20
1043.900739791843
 10
1160.953258025198
 20
2240.900739791843
 10
1170.953258025198
 20
2250.900739791843
 10
1186.9532580252999
 20
2250.900739791843
 10
1186.9532580252999
 20
2266.900739791843
 10
1196.953258025198
 20
2276.900739791843
 10
1793.7532580253028
 20
2276.900739791843
 10
1803.7532580253028
 20
2266.900739791843
 10
1803.7532580253028
 20
2250.900739791843
 10
1819.7532580253028
 20
2250.900739791843
 10
1829.753258025201
 20
2240.900739791843
 10
1829.753258025201
 20
2172.900739791843
  0
LWPOLYLINE
  5
6D
330
17
100
AcDbEntity
  8
0
 62
7
100
AcDbPolyline
 90
2
 70
0
 10
1829.753258025201
 20
2118.900739791843
 10
1829.753258025201
 20
1165.900739791843
  0
LWPOLYLINE
  5
6E
330
17
100
AcDbEntity
  8
0
 62
7
100
AcDbPolyline
 90
2
 70
0
 10
1819.7532580253028
 20
2250.900739791843
 10
1819.7532580253028
 20
2172.900739791843
  0
LWPOLYLINE
  5
6F
330
17
100
AcDbEntity
  8
0
 62
7
100
AcDbPolyline
 90
2
 70
0
 10
1819.7532580253028
 20
2118.900739791843
 10
1819.7532580253028
 20
1165.900739791843
  0
LWPOLYLINE
  5
70
330
17
100
AcDbEntity
  8
0
 62
7
100
AcDbPolyline
 90
2
 70
0
 10
1819.7532580253028
 20
1111.900739791843
 10
1819.7532580253028
 20
1033.900739791843
  0
LWPOLYLINE
  5
71
330
17
100
AcDbEntity
  8
0
 62
7
100
AcDbPolyline
 90
2
 70
0
 10
1803.7532580253028
 20
1017.9007397918431
 10
1186.9532580252999
 20
1017.9007397918431
  0
LWPOLYLINE
  5
72
330
17
100
AcDbEntity
  8
0
 62
7
100
AcDbPolyline
 90
2
 70
0
 10
1170.953258025198
 20
1033.900739791843
 10
1170.953258025198
 20
2250.900739791843
  0
LWPOLYLINE
  5
73
330
17
100
AcDbEntity
  8
0
 62
7
100
AcDbPolyline
 90
2
 70
0
 10
1186.9532580252999
 20
2266.900739791843
 10
1803.7532580253028
 20
2266.900739791843
  0
LWPOLYLINE
  5
74
330
17
100
AcDbEntity
  8
0
 62
2
100
AcDbPolyline
 90
4
 70
0
 10
1829.753258025201
 20
2118.900739791843
 10
1816.753258025201
 20
2118.900739791843
 10
1816.753258025201
 20
2172.900739791843
 10
1829.753258025201
 20
2172.900739791843
  0
LWPOLYLINE
  5
75
330
17
100
AcDbEntity
  8
0
 62
2
100
AcDbPolyline
 90
4
 70
0
 10
1829.753258025201
 20
1165.900739791843
 10
1816.753258025201
 20
1165.900739791843
 10
1816.753258025201
 20
1111.900739791843
 10
1829.753258025201
 20
1111.900739791843
  0
INSERT
  5
76
330
17
100
AcDbEntity
  8
0
370
-3
100
AcDbBlockReference
  2
f3daunguoc
 10
1201.953258025198
 20
2250.900739791843
 30
0.0
 41
-1.0
 50
180.0
  0
INSERT
  5
78
330
17
100
AcDbEntity
  8
0
370
-3
100
AcDbBlockReference
  2
f3daunguoc
 10
1186.9532580252999
 20
2235.900739791843
 30
0.0
 41
-1.0
 50
180.0
  0
INSERT
  5
7A
330
17
100
AcDbEntity
  8
0
370
-3
100
AcDbBlockReference
  2
f3daunguoc
 10
1201.953258025198
 20
2266.900739791843
 30
0.0
 41
-1.0
 50
180.0
  0
INSERT
  5
7C
330
17
100
AcDbEntity
  8
0
370
-3
100
AcDbBlockReference
  2
f3daunguoc
 10
1170.953258025198
 20
2235.900739791843
 30
0.0
 41
-1.0
 50
180.0
  0
INSERT
  5
7E
330
17
100
AcDbEntity
  8
0
370
-3
100
AcDbBlockReference
  2
f3daunguoc
 10
1251.953258025198
 20
2250.900739791843
 30
0.0
 41
-1.0
 50
180.0
  0
INSERT
  5
80
330
17
100
AcDbEntity
  8
0
370
-3
100
AcDbBlockReference
  2
f3daunguoc
 10
1251.953258025198
 20
2266.900739791843
 30
0.0
 41
-1.0
 50
180.0
  0
INSERT
  5
82
330
17
100
AcDbEntity
  8
0
370
-3
100
AcDbBlockReference
  2
f3daunguoc
 10
1788.7532580253028
 20
2250.900739791843
 30
0.0
 50
180.0
  0
INSERT
  5
84
330
17
100
AcDbEntity
  8
0
370
-3
100
AcDbBlockReference
  2
f3daunguoc
 10
1803.7532580253028
 20
2235.900739791843
 30
0.0
 50
180.0
  0
INSERT
  5
86
330
17
100
AcDbEntity
  8
0
370
-3
100
AcDbBlockReference
  2
f3daunguoc
 10
1788.7532580253028
 20
2266.900739791843
 30
0.0
 50
180.0
  0
INSERT
  5
88
330
17
100
AcDbEntity
  8
0
370
-3
100
AcDbBlockReference
  2
f3daunguoc
 10
1819.7532580253028
 20
2235.900739791843
 30
0.0
 50
180.0
  0
INSERT
  5
8A
330
17
100
AcDbEntity
  8
0
370
-3
100
AcDbBlockReference
  2
f3daunguoc
 10
1738.7532580253028
 20
2250.900739791843
 30
0.0
 50
180.0
  0
INSERT
  5
8C
330
17
100
AcDbEntity
  8
0
370
-3
100
AcDbBlockReference
  2
f3daunguoc
 10
1738.7532580253028
 20
2266.900739791843
 30
0.0
 50
180.0
  0
INSERT
  5
8E
330
17
100
AcDbEntity
  8
0
370
-3
100
AcDbBlockReference
  2
f3daunguoc
 10
1201.953258025198
 20
1033.900739791843
 30
0.0
  0
INSERT
  5
90
330
17
100
AcDbEntity
  8
0
370
-3
100
AcDbBlockReference
  2
f3daunguoc
 10
1186.9532580252999
 20
1048.900739791843
 30
0.0
  0
INSERT
  5
92
330
17
100
AcDbEntity
  8
0
370
-3
100
AcDbBlockReference
  2
f3daunguoc
 10
1201.953258025198
 20
1017.9007397918431
 30
0.0
  0
INSERT
  5
94
330
17
100
AcDbEntity
  8
0
370
-3
100
AcDbBlockReference
  2
f3daunguoc
 10
1170.953258025198
 20
1048.900739791843
 30
0.0
  0
INSERT
  5
96
330
17
100
AcDbEntity
  8
0
370
-3
100
AcDbBlockReference
  2
f3daunguoc
 10
1251.953258025198
 20
1033.900739791843
 30
0.0
  0
INSERT
  5
98
330
17
100
AcDbEntity
  8
0
370
-3
100
AcDbBlockReference
  2
f3daunguoc
 10
1251.953258025198
 20
1017.9007397918431
 30
0.0
  0
INSERT
  5
9A
330
17
100
AcDbEntity
  8
0
370
-3
100
AcDbBlockReference
  2
f3daunguoc
 10
1788.7532580253028
 20
1033.900739791843
 30
0.0
 41
-1.0
  0
INSERT
  5
9C
330
17
100
AcDbEntity
  8
0
370
-3
100
AcDbBlockReference
  2
f3daunguoc
 10
1803.7532580253028
 20
1048.900739791843
 30
0.0
 41
-1.0
  0
INSERT
  5
9E
330
17
100
AcDbEntity
  8
0
370
-3
100
AcDbBlockReference
  2
f3daunguoc
 10
1788.7532580253028
 20
1017.9007397918431
 30
0.0
 41
-1.0
  0
INSERT
  5
A0
330
17
100
AcDbEntity
  8
0
370
-3
100
AcDbBlockReference
  2
f3daunguoc
 10
1819.7532580253028
 20
1048.900739791843
 30
0.0
 41
-1.0
  0
INSERT
  5
A2
330
17
100
AcDbEntity
  8
0
370
-3
100
AcDbBlockReference
  2
f3daunguoc
 10
1738.7532580253028
 20
1033.900739791843
 30
0.0
 41
-1.0
  0
INSERT
  5
A4
330
17
100
AcDbEntity
  8
0
370
-3
100
AcDbBlockReference
  2
f3daunguoc
 10
1738.7532580253028
 20
1017.9007397918431
 30
0.0
 41
-1.0
  0
DIMENSION
  5
A6
330
17
100
AcDbEntity
  8
DIM
 62
2
100
AcDbDimension
280
0
  2
*D5
  3
Dim-25
 10
1829.753258025201
 20
2310.0018225055137
 30
0.0
 11
1872.439820098909
 21
2332.7661471985666
 31
0.0
 70
32
 71
5
 42
9.999999999970896
 73
0
 74
0
 75
0
100
AcDbAlignedDimension
 13
1819.7532580253028
 23
2250.900739791843
 33
0.0
 14
1829.753258025201
 24
2240.900739791843
 34
0.0
 50
0.0
100
AcDbRotatedDimension
  0
DIMENSION
  5
A7
330
17
100
AcDbEntity
  8
DIM
 62
2
100
AcDbDimension
280
0
  2
*D6
  3
Dim-25
 10
1819.7532580253028
 20
2346.064767306365
 30
0.0
 11
1862.4739265109092
 21
2368.8290919994033
 31
0.0
 70
32
 71
5
 42
16.0
 73
0
 74
0
 75
0
100
AcDbAlignedDimension
 13
1803.7532580253028
 23
2266.900739791843
 33
0.0
 14
1819.7532580253028
 24
2250.900739791843
 34
0.0
 50
0.0
100
AcDbRotatedDimension
  0
DIMENSION
  5
A8
330
17
100
AcDbEntity
  8
DIM
 62
2
100
AcDbDimension
280
0
  2
*D7
  3
Dim-25
 10
1186.9532580252999
 20
2346.064767306365
 30
0.0
 11
1495.3532580253086
 21
2368.8290919994033
 31
0.0
 70
32
 71
5
 42
616.8000000000175
 73
0
 74
0
 75
0
100
AcDbAlignedDimension
 13
1803.7532580253028
 23
2266.900739791843
 33
0.0
 14
1186.9532580252999
 24
2266.900739791843
 34
0.0
 50
0.0
100
AcDbRotatedDimension
  0
DIMENSION
  5
A9
330
17
100
AcDbEntity
  8
DIM
 62
2
100
AcDbDimension
280
0
  2
*D8
  3
Dim-25
 10
1110.6611264915991
 20
1033.900739791843
 30
0.0
 11
1088.1099668735988
 21
1642.400739791865
 31
0.0
 70
32
 71
5
 42
1217.0
 73
0
 74
0
 75
0
100
AcDbAlignedDimension
 13
1170.953258025198
 23
2250.900739791843
 33
0.0
 14
1170.953258025198
 24
1033.900739791843
 34
0.0
 50
90.0
100
AcDbRotatedDimension
  0
DIMENSION
  5
AA
330
17
100
AcDbEntity
  8
DIM
 62
2
100
AcDbDimension
280
0
  2
*D9
  3
Dim-25
 10
1829.753258025201
 20
944.6221867205059
 30
0.0
 11
1495.3532580252067
 21
967.3865114135442
 31
0.0
 70
32
 71
5
 42
668.8000000000173
 73
0
 74
0
 75
0
100
AcDbAlignedDimension
 13
1160.953258025198
 23
1043.900739791843
 33
0.0
 14
1829.753258025201
 24
1043.900739791843
 34
0.0
 50
0.0
100
AcDbRotatedDimension
  0
LWPOLYLINE
  5
AB
330
17
100
AcDbEntity
  8
0
 62
2
100
AcDbPolyline
 90
4
 70
1
 10
1227.2032580250961
 20
2151.850739791804
 10
1247.7032580250961
 20
2151.850739791804
 10
1247.7032580250961
 20
2172.350739791804
 10
1227.2032580250961
 20
2172.350739791804
  0
LWPOLYLINE
  5
AC
330
17
100
AcDbEntity
  8
0
 62
2
100
AcDbPolyline
 90
4
 70
1
 10
1227.203258025198
 20
1112.450739791715
 10
1247.703258025198
 20
1112.450739791715
 10
1247.703258025198
 20
1132.950739791715
 10
1227.203258025198
 20
1132.950739791715
  0
DIMENSION
  5
AD
330
17
100
AcDbEntity
  8
0
 48
3.0
100
AcDbDimension
280
0
  2
*D10
  3
Dim-25
 10
939.4201848873054
 20
960.8041013750953
 30
0.0
 11
637.4201848873054
 21
983.5684260681337
 31
0.0
 70
32
 71
5
 42
604.0
 73
0
 74
0
 75
0
100
AcDbAlignedDimension
 13
335.42018488730537
 23
1060.400739791854
 33
0.0
 14
939.4201848873054
 24
1060.400739791854
 34
0.0
 50
0.0
100
AcDbRotatedDimension
  0
ENDSEC
  0
SECTION
  2
OBJECTS
  0
DICTIONARY
  5
A
330
0
100
AcDbDictionary
281
1
  3
ACAD_COLOR
350
B
  3
ACAD_GROUP
350
C
  3
ACAD_LAYOUT
350
D
  3
ACAD_MATERIAL
350
E
  3
ACAD_MLEADERSTYLE
350
F
  3
ACAD_MLINESTYLE
350
10
  3
ACAD_PLOTSETTINGS
350
11
  3
ACAD_PLOTSTYLENAME
350
12
  3
ACAD_SCALELIST
350
14
  3
ACAD_TABLESTYLE
350
15
  3
ACAD_VISUALSTYLE
350
16
  3
EZDXF_META
350
2D
  0
DICTIONARY
  5
B
330
A
100
AcDbDictionary
281
1
  0
DICTIONARY
  5
C
330
A
100
AcDbDictionary
281
1
  0
DICTIONARY
  5
D
330
A
100
AcDbDictionary
281
1
  3
Model
350
1A
  3
Layout1
350
1E
  0
DICTIONARY
  5
E
330
A
100
AcDbDictionary
281
1
  3
ByBlock
350
1F
  3
ByLayer
350
20
  3
Global
350
21
  0
DICTIONARY
  5
F
330
A
100
AcDbDictionary
281
1
  3
Standard
350
2C
  0
DICTIONARY
  5
10
330
A
100
AcDbDictionary
281
1
  3
Standard
350
22
  0
DICTIONARY
  5
11
330
A
100
AcDbDictionary
281
1
  0
ACDBDICTIONARYWDFLT
  5
12
330
A
100
AcDbDictionary
281
1
  3
Normal
350
13
100
AcDbDictionaryWithDefault
340
13
  0
ACDBPLACEHOLDER
  5
13
330
12
  0
DICTIONARY
  5
14
330
A
100
AcDbDictionary
281
1
  0
DICTIONARY
  5
15
330
A
100
AcDbDictionary
281
1
  0
DICTIONARY
  5
16
330
A
100
AcDbDictionary
281
1
  0
LAYOUT
  5
1A
330
D
100
AcDbPlotSettings
  1

  4
A3
  6

 40
7.5
 41
20.0
 42
7.5
 43
20.0
 44
420.0
 45
297.0
 46
0.0
 47
0.0
 48
0.0
 49
0.0
140
0.0
141
0.0
142
1.0
143
1.0
 70
1024
 72
1
 73
0
 74
5
  7

 75
16
 76
0
 77
2
 78
300
147
1.0
148
0.0
149
0.0
100
AcDbLayout
  1
Model
 70
1
 71
0
 10
0.0
 20
0.0
 11
420.0
 21
297.0
 12
0.0
 22
0.0
 32
0.0
 14
1e+20
 24
1e+20
 34
1e+20
 15
-1e+20
 25
-1e+20
 35
-1e+20
146
0.0
 13
0.0
 23
0.0
 33
0.0
 16
1.0
 26
0.0
 36
0.0
 17
0.0
 27
1.0
 37
0.0
 76
1
330
17
  0
LAYOUT
  5
1E
330
D
100
AcDbPlotSettings
  1

  4
A3
  6

 40
7.5
 41
20.0
 42
7.5
 43
20.0
 44
420.0
 45
297.0
 46
0.0
 47
0.0
 48
0.0
 49
0.0
140
0.0
141
0.0
142
1.0
143
1.0
 70
0
 72
1
 73
0
 74
5
  7

 75
16
 76
0
 77
2
 78
300
147
1.0
148
0.0
149
0.0
100
AcDbLayout
  1
Layout1
 70
1
 71
1
 10
0.0
 20
0.0
 11
420.0
 21
297.0
 12
0.0
 22
0.0
 32
0.0
 14
1e+20
 24
1e+20
 34
1e+20
 15
-1e+20
 25
-1e+20
 35
-1e+20
146
0.0
 13
0.0
 23
0.0
 33
0.0
 16
1.0
 26
0.0
 36
0.0
 17
0.0
 27
1.0
 37
0.0
 76
1
330
1B
  0
MATERIAL
  5
1F
102
{ACAD_REACTORS
330
E
102
}
330
E
100
AcDbMaterial
  1
ByBlock
  2

 70
0
 40
1.0
 71
1
 41
1.0
 91
-1023410177
 42
1.0
 72
1
  3

 73
1
 74
1
 75
1
 44
0.5
 73
0
 45
1.0
 46
1.0
 77
1
  4

 78
1
 79
1
170
1
 48
1.0
171
1
  6

172
1
173
1
174
1
140
1.0
141
1.0
175
1
  7

176
1
177
1
178
1
143
1.0
179
1
  8

270
1
271
1
272
1
145
1.0
146
1.0
273
1
  9

274
1
275
1
276
1
 42
1.0
 72
1
  3

 73
1
 74
1
 75
1
 94
63
  0
MATERIAL
  5
20
102
{ACAD_REACTORS
330
E
102
}
330
E
100
AcDbMaterial
  1
ByLayer
  2

 70
0
 40
1.0
 71
1
 41
1.0
 91
-1023410177
 42
1.0
 72
1
  3

 73
1
 74
1
 75
1
 44
0.5
 73
0
 45
1.0
 46
1.0
 77
1
  4

 78
1
 79
1
170
1
 48
1.0
171
1
  6

172
1
173
1
174
1
140
1.0
141
1.0
175
1
  7

176
1
177
1
178
1
143
1.0
179
1
  8

270
1
271
1
272
1
145
1.0
146
1.0
273
1
  9

274
1
275
1
276
1
 42
1.0
 72
1
  3

 73
1
 74
1
 75
1
 94
63
  0
MATERIAL
  5
21
102
{ACAD_REACTORS
330
E
102
}
330
E
100
AcDbMaterial
  1
Global
  2

 70
0
 40
1.0
 71
1
 41
1.0
 91
-1023410177
 42
1.0
 72
1
  3

 73
1
 74
1
 75
1
 44
0.5
 73
0
 45
1.0
 46
1.0
 77
1
  4

 78
1
 79
1
170
1
 48
1.0
171
1
  6

172
1
173
1
174
1
140
1.0
141
1.0
175
1
  7

176
1
177
1
178
1
143
1.0
179
1
  8

270
1
271
1
272
1
145
1.0
146
1.0
273
1
  9

274
1
275
1
276
1
 42
1.0
 72
1
  3

 73
1
 74
1
 75
1
 94
63
  0
MLINESTYLE
  5
22
102
{ACAD_REACTORS
330
10
102
}
330
10
100
AcDbMlineStyle
  2
Standard
 70
0
  3

 62
256
 51
90.0
 52
90.0
 71
2
 49
0.5
 62
256
  6
BYLAYER
 49
-0.5
 62
256
  6
BYLAYER
  0
MLEADERSTYLE
  5
2C
102
{ACAD_REACTORS
330
F
102
}
330
F
100
AcDbMLeaderStyle
179
2
170
2
171
1
172
0
 90
2
 40
0.0
 41
0.0
173
1
 91
-1056964608
 92
-2
290
1
 42
2.0
291
1
 43
8.0
  3
Standard
 44
4.0
300

342
29
174
1
175
1
176
0
178
1
 93
-1056964608
 45
4.0
292
0
297
0
 46
4.0
 94
-1056964608
 47
1.0
 49
1.0
140
1.0
294
1
141
0.0
177
0
142
1.0
295
0
296
0
143
3.75
271
0
272
9
273
9
  0
DICTIONARY
  5
2D
330
A
100
AcDbDictionary
280
1
281
1
  3
CREATED_BY_EZDXF
350
2E
  3
WRITTEN_BY_EZDXF
350
E0
  0
DICTIONARYVAR
  5
2E
330
2D
100
DictionaryVariables
280
0
  1
1.4.4 @ 2026-09-24T06:32:14.153757+00:00
  0
DICTIONARYVAR
  5
E0
330
2D
100
DictionaryVariables
280
0
  1
1.4.4 @ 2026-09-24T06:37:43.786059+00:00
  0
ENDSEC
  0
EOF
