  0
SECTION
  2
HEADER
  9
$ACADVER
  1
AC1032
  9
$ACADMAINTVER
 90
4
  9
$DWGCODEPAGE
  3
ANSI_1252
  9
$LASTSAVEDBY
  1
ezdxf
  9
$REQUIREDVERSIONS
160
0
  9
$INSBASE
 10
0.0
 20
0.0
 30
0.0
  9
$EXTMIN
 10
1e+20
 20
1e+20
 30
1e+20
  9
$EXTMAX
 10
-1e+20
 20
-1e+20
 30
-1e+20
  9
$LIMMIN
 10
0.0
 20
0.0
  9
$LIMMAX
 10
420.0
 20
297.0
  9
$ORTHOMODE
 70
0
  9
$REGENMODE
 70
1
  9
$FILLMODE
 70
1
  9
$QTEXTMODE
 70
0
  9
$MIRRTEXT
 70
1
  9
$LTSCALE
 40
1.0
  9
$ATTMODE
 70
1
  9
$TEXTSIZE
 40
2.5
  9
$TRACEWID
 40
1.0
  9
$TEXTSTYLE
  7
Standard
  9
$CLAYER
  8
0
  9
$CELTYPE
  6
ByLayer
  9
$CECOLOR
 62
256
  9
$CELTSCALE
 40
1.0
  9
$DISPSILH
 70
0
  9
$DIMSCALE
 40
1.0
  9
$DIMASZ
 40
2.5
  9
$DIMEXO
 40
0.625
  9
$DIMDLI
 40
3.75
  9
$DIMRND
 40
0.0
  9
$DIMDLE
 40
0.0
  9
$DIMEXE
 40
1.25
  9
$DIMTP
 40
0.0
  9
$DIMTM
 40
0.0
  9
$DIMTXT
 40
2.5
  9
$DIMCEN
 40
2.5
  9
$DIMTSZ
 40
0.0
  9
$DIMTOL
 70
0
  9
$DIMLIM
 70
0
  9
$DIMTIH
 70
0
  9
$DIMTOH
 70
0
  9
$DIMSE1
 70
0
  9
$DIMSE2
 70
0
  9
$DIMTAD
 70
1
  9
$DIMZIN
 70
8
  9
$DIMBLK
  1

  9
$DIMASO
 70
1
  9
$DIMSHO
 70
1
  9
$DIMPOST
  1

  9
$DIMAPOST
  1

  9
$DIMALT
 70
0
  9
$DIMALTD
 70
3
  9
$DIMALTF
 40
0.03937007874
  9
$DIMLFAC
 40
1.0
  9
$DIMTOFL
 70
1
  9
$DIMTVP
 40
0.0
  9
$DIMTIX
 70
0
  9
$DIMSOXD
 70
0
  9
$DIMSAH
 70
0
  9
$DIMBLK1
  1

  9
$DIMBLK2
  1

  9
$DIMSTYLE
  2
ISO-25
  9
$DIMCLRD
 70
0
  9
$DIMCLRE
 70
0
  9
$DIMCLRT
 70
0
  9
$DIMTFAC
 40
1.0
  9
$DIMGAP
 40
0.625
  9
$DIMJUST
 70
0
  9
$DIMSD1
 70
0
  9
$DIMSD2
 70
0
  9
$DIMTOLJ
 70
0
  9
$DIMTZIN
 70
8
  9
$DIMALTZ
 70
0
  9
$DIMALTTZ
 70
0
  9
$DIMUPT
 70
0
  9
$DIMDEC
 70
2
  9
$DIMTDEC
 70
2
  9
$DIMALTU
 70
2
  9
$DIMALTTD
 70
3
  9
$DIMTXSTY
  7
Standard
  9
$DIMAUNIT
 70
0
  9
$DIMADEC
 70
0
  9
$DIMALTRND
 40
0.0
  9
$DIMAZIN
 70
0
  9
$DIMDSEP
 70
44
  9
$DIMATFIT
 70
3
  9
$DIMFRAC
 70
0
  9
$DIMLDRBLK
  1

  9
$DIMLUNIT
 70
2
  9
$DIMLWD
 70
-2
  9
$DIMLWE
 70
-2
  9
$DIMTMOVE
 70
0
  9
$DIMFXL
 40
1.0
  9
$DIMFXLON
 70
0
  9
$DIMJOGANG
 40
0.785398163397
  9
$DIMTFILL
 70
0
  9
$DIMTFILLCLR
 70
0
  9
$DIMARCSYM
 70
0
  9
$DIMLTYPE
  6

  9
$DIMLTEX1
  6

  9
$DIMLTEX2
  6

  9
$DIMTXTDIRECTION
 70
0
  9
$LUNITS
 70
2
  9
$LUPREC
 70
4
  9
$SKETCHINC
 40
1.0
  9
$FILLETRAD
 40
10.0
  9
$AUNITS
 70
0
  9
$AUPREC
 70
2
  9
$MENU
  1
.
  9
$ELEVATION
 40
0.0
  9
$PELEVATION
 40
0.0
  9
$THICKNESS
 40
0.0
  9
$LIMCHECK
 70
0
  9
$CHAMFERA
 40
0.0
  9
$CHAMFERB
 40
0.0
  9
$CHAMFERC
 40
0.0
  9
$CHAMFERD
 40
0.0
  9
$SKPOLY
 70
0
  9
$TDCREATE
 40
2461308.567685185
  9
$TDUCREATE
 40
2458532.153996898
  9
$TDUPDATE
 40
2461308.567685185
  9
$TDUUPDATE
 40
2458532.1544311
  9
$TDINDWG
 40
0.0
  9
$TDUSRTIMER
 40
0.0
  9
$USRTIMER
 70
1
  9
$ANGBASE
 50
0.0
  9
$ANGDIR
 70
0
  9
$PDMODE
 70
0
  9
$PDSIZE
 40
0.0
  9
$PLINEWID
 40
0.0
  9
$SPLFRAME
 70
0
  9
$SPLINETYPE
 70
6
  9
$SPLINESEGS
 70
8
  9
$HANDSEED
  5
372
  9
$SURFTAB1
 70
6
  9
$SURFTAB2
 70
6
  9
$SURFTYPE
 70
6
  9
$SURFU
 70
6
  9
$SURFV
 70
6
  9
$UCSBASE
  2

  9
$UCSNAME
  2

  9
$UCSORG
 10
0.0
 20
0.0
 30
0.0
  9
$UCSXDIR
 10
1.0
 20
0.0
 30
0.0
  9
$UCSYDIR
 10
0.0
 20
1.0
 30
0.0
  9
$UCSORTHOREF
  2

  9
$UCSORTHOVIEW
 70
0
  9
$UCSORGTOP
 10
0.0
 20
0.0
 30
0.0
  9
$UCSORGBOTTOM
 10
0.0
 20
0.0
 30
0.0
  9
$UCSORGLEFT
 10
0.0
 20
0.0
 30
0.0
  9
$UCSORGRIGHT
 10
0.0
 20
0.0
 30
0.0
  9
$UCSORGFRONT
 10
0.0
 20
0.0
 30
0.0
  9
$UCSORGBACK
 10
0.0
 20
0.0
 30
0.0
  9
$PUCSBASE
  2

  9
$PUCSNAME
  2

  9
$PUCSORG
 10
0.0
 20
0.0
 30
0.0
  9
$PUCSXDIR
 10
1.0
 20
0.0
 30
0.0
  9
$PUCSYDIR
 10
0.0
 20
1.0
 30
0.0
  9
$PUCSORTHOREF
  2

  9
$PUCSORTHOVIEW
 70
0
  9
$PUCSORGTOP
 10
0.0
 20
0.0
 30
0.0
  9
$PUCSORGBOTTOM
 10
0.0
 20
0.0
 30
0.0
  9
$PUCSORGLEFT
 10
0.0
 20
0.0
 30
0.0
  9
$PUCSORGRIGHT
 10
0.0
 20
0.0
 30
0.0
  9
$PUCSORGFRONT
 10
0.0
 20
0.0
 30
0.0
  9
$PUCSORGBACK
 10
0.0
 20
0.0
 30
0.0
  9
$USERI1
 70
0
  9
$USERI2
 70
0
  9
$USERI3
 70
0
  9
$USERI4
 70
0
  9
$USERI5
 70
0
  9
$USERR1
 40
0.0
  9
$USERR2
 40
0.0
  9
$USERR3
 40
0.0
  9
$USERR4
 40
0.0
  9
$USERR5
 40
0.0
  9
$WORLDVIEW
 70
1
  9
$SHADEDGE
 70
3
  9
$SHADEDIF
 70
70
  9
$TILEMODE
 70
1
  9
$MAXACTVP
 70
64
  9
$PINSBASE
 10
0.0
 20
0.0
 30
0.0
  9
$PLIMCHECK
 70
0
  9
$PEXTMIN
 10
1e+20
 20
1e+20
 30
1e+20
  9
$PEXTMAX
 10
-1e+20
 20
-1e+20
 30
-1e+20
  9
$PLIMMIN
 10
0.0
 20
0.0
  9
$PLIMMAX
 10
420.0
 20
297.0
  9
$UNITMODE
 70
0
  9
$VISRETAIN
 70
1
  9
$PLINEGEN
 70
0
  9
$PSLTSCALE
 70
1
  9
$TREEDEPTH
 70
3020
  9
$CMLSTYLE
  2
Standard
  9
$CMLJUST
 70
0
  9
$CMLSCALE
 40
20.0
  9
$PROXYGRAPHICS
 70
1
  9
$MEASUREMENT
 70
1
  9
$CELWEIGHT
370
-1
  9
$ENDCAPS
280
0
  9
$JOINSTYLE
280
0
  9
$LWDISPLAY
290
0
  9
$INSUNITS
 70
4
  9
$HYPERLINKBASE
  1

  9
$STYLESHEET
  1

  9
$XEDIT
290
1
  9
$CEPSNTYPE
380
0
  9
$PSTYLEMODE
290
1
  9
$FINGERPRINTGUID
  2
{3B597673-83A5-437F-9943-67EA37A7CE9A}
  9
$VERSIONGUID
  2
{396926C1-63FC-4A87-93A1-890E0DFB2674}
  9
$EXTNAMES
290
1
  9
$PSVPSCALE
 40
0.0
  9
$OLESTARTUP
290
0
  9
$SORTENTS
280
127
  9
$INDEXCTL
280
0
  9
$HIDETEXT
280
1
  9
$XCLIPFRAME
280
1
  9
$HALOGAP
280
0
  9
$OBSCOLOR
 70
257
  9
$OBSLTYPE
280
0
  9
$INTERSECTIONDISPLAY
280
0
  9
$INTERSECTIONCOLOR
 70
257
  9
$DIMASSOC
280
2
  9
$PROJECTNAME
  1

  9
$CAMERADISPLAY
290
0
  9
$LENSLENGTH
 40
50.0
  9
$CAMERAHEIGHT
 40
0.0
  9
$STEPSPERSEC
 40
24.0
  9
$STEPSIZE
 40
100.0
  9
$3DDWFPREC
 40
2.0
  9
$PSOLWIDTH
 40
0.005
  9
$PSOLHEIGHT
 40
0.08
  9
$LOFTANG1
 40
1.570796326795
  9
$LOFTANG2
 40
1.570796326795
  9
$LOFTMAG1
 40
0.0
  9
$LOFTMAG2
 40
0.0
  9
$LOFTPARAM
 70
7
  9
$LOFTNORMALS
280
1
  9
$LATITUDE
 40
37.795
  9
$LONGITUDE
 40
-122.394
  9
$NORTHDIRECTION
 40
0.0
  9
$TIMEZONE
 70
-8000
  9
$LIGHTGLYPHDISPLAY
280
1
  9
$TILEMODELIGHTSYNCH
280
1
  9
$CMATERIAL
347
20
  9
$SOLIDHIST
280
0
  9
$SHOWHIST
280
1
  9
$DWFFRAME
280
2
  9
$DGNFRAME
280
2
  9
$REALWORLDSCALE
290
1
  9
$INTERFERECOLOR
 62
256
  9
$CSHADOW
280
0
  9
$SHADOWPLANELOCATION
 40
0.0
  0
ENDSEC
  0
SECTION
  2
CLASSES
  0
CLASS
  1
ACDBDICTIONARYWDFLT
  2
AcDbDictionaryWithDefault
  3
ObjectDBX Classes
 90
0
 91
0
280
0
281
0
  0
CLASS
  1
SUN
  2
AcDbSun
  3
SCENEOE
 90
1153
 91
0
280
0
281
0
  0
CLASS
  1
VISUALSTYLE
  2
AcDbVisualStyle
  3
ObjectDBX Classes
 90
4095
 91
0
280
0
281
0
  0
CLASS
  1
MATERIAL
  2
AcDbMaterial
  3
ObjectDBX Classes
 90
1153
 91
0
280
0
281
0
  0
CLASS
  1
SCALE
  2
AcDbScale
  3
ObjectDBX Classes
 90
1153
 91
0
280
0
281
0
  0
CLASS
  1
TABLESTYLE
  2
AcDbTableStyle
  3
ObjectDBX Classes
 90
4095
 91
0
280
0
281
0
  0
CLASS
  1
MLEADERSTYLE
  2
AcDbMLeaderStyle
  3
ACDB_MLEADERSTYLE_CLASS
 90
4095
 91
0
280
0
281
0
  0
CLASS
  1
DICTIONARYVAR
  2
AcDbDictionaryVar
  3
ObjectDBX Classes
 90
0
 91
0
280
0
281
0
  0
CLASS
  1
CELLSTYLEMAP
  2
AcDbCellStyleMap
  3
ObjectDBX Classes
 90
1152
 91
0
280
0
281
0
  0
CLASS
  1
MENTALRAYRENDERSETTINGS
  2
AcDbMentalRayRenderSettings
  3
SCENEOE
 90
1024
 91
0
280
0
281
0
  0
CLASS
  1
ACDBDETAILVIEWSTYLE
  2
AcDbDetailViewStyle
  3
ObjectDBX Classes
 90
1025
 91
0
280
0
281
0
  0
CLASS
  1
ACDBSECTIONVIEWSTYLE
  2
AcDbSectionViewStyle
  3
ObjectDBX Classes
 90
1025
 91
0
280
0
281
0
  0
CLASS
  1
RASTERVARIABLES
  2
AcDbRasterVariables
  3
ISM
 90
0
 91
0
280
0
281
0
  0
CLASS
  1
ACDBPLACEHOLDER
  2
AcDbPlaceHolder
  3
ObjectDBX Classes
 90
0
 91
0
280
0
281
0
  0
CLASS
  1
LAYOUT
  2
AcDbLayout
  3
ObjectDBX Classes
 90
0
 91
0
280
0
281
0
  0
ENDSEC
  0
SECTION
  2
TABLES
  0
TABLE
  2
VPORT
  5
8
330
0
100
AcDbSymbolTable
 70
1
  0
VPORT
  5
23
330
8
100
AcDbSymbolTableRecord
100
AcDbViewportTableRecord
  2
*Active
 70
0
 10
0.0
 20
0.0
 11
1.0
 21
1.0
 12
0.0
 22
0.0
 13
0.0
 23
0.0
 14
0.5
 24
0.5
 15
0.5
 25
0.5
 16
0.0
 26
0.0
 36
1.0
 17
0.0
 27
0.0
 37
0.0
 40
1000.0
 41
1.34
 42
50.0
 43
0.0
 44
0.0
 50
0.0
 51
0.0
 71
0
 72
1000
 73
1
 74
3
 75
0
 76
0
 77
0
 78
0
281
0
 65
0
146
0.0
  0
ENDTAB
  0
TABLE
  2
LTYPE
  5
2
330
0
100
AcDbSymbolTable
 70
5
  0
LTYPE
  5
24
330
2
100
AcDbSymbolTableRecord
100
AcDbLinetypeTableRecord
  2
ByBlock
 70
0
  3

 72
65
 73
0
 40
0.0
  0
LTYPE
  5
25
330
2
100
AcDbSymbolTableRecord
100
AcDbLinetypeTableRecord
  2
ByLayer
 70
0
  3

 72
65
 73
0
 40
0.0
  0
LTYPE
  5
26
330
2
100
AcDbSymbolTableRecord
100
AcDbLinetypeTableRecord
  2
Continuous
 70
0
  3

 72
65
 73
0
 40
0.0
  0
LTYPE
  5
27A
330
2
100
AcDbSymbolTableRecord
100
AcDbLinetypeTableRecord
  2
HIDDEN2
 70
0
  3
Hidden (.5x) _ _ _ _ _ _ _ _ _ _ _ _ _ _ _ _ _
 72
65
 73
2
 40
4.762499999999998
 49
3.174999999999998
 74
0
 49
-1.587499999999999
 74
0
  0
LTYPE
  5
27B
330
2
100
AcDbSymbolTableRecord
100
AcDbLinetypeTableRecord
  2
HIDDENX2
 70
0
  3
Hidden (2x) ____ ____ ____ ____ ____ ____ ____
 72
65
 73
2
 40
19.05
 49
12.7
 74
0
 49
-6.349999999999999
 74
0
  0
ENDTAB
  0
TABLE
  2
LAYER
  5
1
330
0
100
AcDbSymbolTable
 70
4
  0
LAYER
  5
27
330
1
100
AcDbSymbolTableRecord
100
AcDbLayerTableRecord
  2
0
 70
0
 62
7
  6
Continuous
370
-3
390
13
347
21
  0
LAYER
  5
28
330
1
100
AcDbSymbolTableRecord
100
AcDbLayerTableRecord
  2
Defpoints
 70
0
 62
7
  6
Continuous
290
0
370
-3
390
13
347
21
  0
LAYER
  5
278
330
1
100
AcDbSymbolTableRecord
100
AcDbLayerTableRecord
  2
01
 70
0
 62
7
  6
HIDDEN2
370
-3
390
13
347
21
  0
LAYER
  5
279
330
1
100
AcDbSymbolTableRecord
100
AcDbLayerTableRecord
  2
07
 70
0
 62
5
  6
Continuous
370
5
390
13
347
21
  0
ENDTAB
  0
TABLE
  2
STYLE
  5
5
330
0
100
AcDbSymbolTable
 70
4
  0
STYLE
  5
29
330
5
100
AcDbSymbolTableRecord
100
AcDbTextStyleTableRecord
  2
Standard
 70
0
 40
0.0
 41
1.0
 50
0.0
 71
0
 42
2.5
  3
txt
  4

  0
STYLE
  5
27C
330
5
100
AcDbSymbolTableRecord
100
AcDbTextStyleTableRecord
  2
Tahoma (Input Text)
 70
0
 40
0.0
 41
1.0
 50
0.0
 71
0
 42
25.0
  3
tahoma.ttf
  4

  0
STYLE
  5
27D
330
5
100
AcDbSymbolTableRecord
100
AcDbTextStyleTableRecord
  2
Arial
 70
0
 40
0.0
 41
1.0
 50
0.0
 71
0
 42
0.2
  3
arial.ttf
  4

  0
STYLE
  5
27E
330
5
100
AcDbSymbolTableRecord
100
AcDbTextStyleTableRecord
  2
Arial-Black
 70
0
 40
0.0
 41
1.0
 50
0.0
 71
0
 42
2.0
  3

  4

  0
ENDTAB
  0
TABLE
  2
VIEW
  5
7
330
0
100
AcDbSymbolTable
 70
0
  0
ENDTAB
  0
TABLE
  2
UCS
  5
6
330
0
100
AcDbSymbolTable
 70
0
  0
ENDTAB
  0
TABLE
  2
APPID
  5
3
330
0
100
AcDbSymbolTable
 70
3
  0
APPID
  5
2A
330
3
100
AcDbSymbolTableRecord
100
AcDbRegAppTableRecord
  2
ACAD
 70
0
  0
APPID
  5
289
330
3
100
AcDbSymbolTableRecord
100
AcDbRegAppTableRecord
  2
HATCHBACKGROUNDCOLOR
 70
0
  0
APPID
  5
28A
330
3
100
AcDbSymbolTableRecord
100
AcDbRegAppTableRecord
  2
EZDXF
 70
0
  0
ENDTAB
  0
TABLE
  2
DIMSTYLE
  5
4
330
0
100
AcDbSymbolTable
 70
3
100
AcDbDimStyleTable
  0
DIMSTYLE
105
2B
330
4
100
AcDbSymbolTableRecord
100
AcDbDimStyleTableRecord
  2
Standard
 70
0
 40
1.0
 41
2.5
 42
0.625
 43
3.75
 44
1.25
 45
0.0
 46
0.0
 47
0.0
 48
0.0
 49
2.5
140
2.5
141
2.5
142
0.0
143
0.03937007874
144
1.0
145
0.0
146
1.0
147
0.625
148
0.0
 69
0
 70
0
 71
0
 72
0
 73
0
 74
0
 75
0
 76
0
 77
1
 78
8
 79
3
170
0
171
3
172
1
173
0
174
0
175
0
176
0
177
0
178
0
179
2
271
2
272
2
273
2
274
3
275
0
276
0
277
2
278
44
279
0
280
0
281
0
282
0
283
0
284
8
285
0
286
0
288
0
289
3
290
0
371
-2
372
-2
  0
DIMSTYLE
105
276
330
4
100
AcDbSymbolTableRecord
100
AcDbDimStyleTableRecord
  2
Dim-25
 70
0
 40
1.0
 41
8.0
 42
15.0
 43
3.75
 44
10.0
 45
0.0
 46
0.0
 47
0.0
 48
0.0
 49
2.5
140
25.0
141
10.0
142
0.0
143
0.03937007874016
144
1.0
145
0.0
146
1.0
147
10.0
148
0.0
 69
0
 70
0
 71
0
 72
0
 73
0
 74
0
 75
0
 76
0
 77
1
 78
8
 79
3
170
0
171
3
172
1
173
0
174
0
175
0
176
5
177
5
178
3
179
2
271
0
272
0
273
2
274
3
275
0
276
0
277
2
278
44
279
0
280
0
281
0
282
0
283
0
284
8
285
0
286
0
288
0
289
3
290
0
340
29
341
33
342
33
345
25
346
25
347
25
371
9
372
9
  0
DIMSTYLE
105
277
330
4
100
AcDbSymbolTableRecord
100
AcDbDimStyleTableRecord
  2
CNC
 70
0
 40
1.0
 41
5.0
 42
15.0
 43
3.75
 44
5.0
 45
0.0
 46
0.0
 47
0.0
 48
0.0
 49
2.5
140
50.0
141
10.0
142
0.0
143
0.03937007874016
144
1.0
145
0.0
146
1.0
147
10.0
148
0.0
 69
0
 70
0
 71
0
 72
0
 73
0
 74
0
 75
0
 76
0
 77
1
 78
8
 79
3
170
0
171
3
172
1
173
0
174
0
175
0
176
5
177
5
178
3
179
2
271
0
272
0
273
2
274
3
275
0
276
0
277
2
278
44
279
0
280
0
281
0
282
0
283
0
284
8
285
0
286
0
288
0
289
3
290
0
340
29
341
27F
342
283
345
25
346
25
347
25
371
9
372
9
  0
ENDTAB
  0
TABLE
  2
BLOCK_RECORD
  5
9
330
0
100
AcDbSymbolTable
 70
33
  0
BLOCK_RECORD
  5
17
330
9
100
AcDbSymbolTableRecord
100
AcDbBlockTableRecord
  2
*Model_Space
340
1A
 70
0
280
1
281
0
  0
BLOCK_RECORD
  5
1B
330
9
100
AcDbSymbolTableRecord
100
AcDbBlockTableRecord
  2
*Paper_Space
340
1E
 70
0
280
1
281
0
  0
BLOCK_RECORD
  5
33
330
9
100
AcDbSymbolTableRecord
100
AcDbBlockTableRecord
  2
_Oblique
340
0
 70
0
280
1
281
0
  0
BLOCK_RECORD
  5
119
330
9
100
AcDbSymbolTableRecord
100
AcDbBlockTableRecord
  2
khungtenAsean2
340
0
 70
0
280
1
281
0
  0
BLOCK_RECORD
  5
13D
330
9
100
AcDbSymbolTableRecord
100
AcDbBlockTableRecord
  2
HL003-2-2
340
0
 70
0
280
1
281
0
  0
BLOCK_RECORD
  5
147
330
9
100
AcDbSymbolTableRecord
100
AcDbBlockTableRecord
  2
HL035-1-1
340
0
 70
0
280
1
281
0
  0
BLOCK_RECORD
  5
1A4
330
9
100
AcDbSymbolTableRecord
100
AcDbBlockTableRecord
  2
Ampere-Meter-front
340
0
 70
0
280
1
281
0
  0
BLOCK_RECORD
  5
1DA
330
9
100
AcDbSymbolTableRecord
100
AcDbBlockTableRecord
  2
Den XANH
340
0
 70
0
280
1
281
0
  0
BLOCK_RECORD
  5
1E7
330
9
100
AcDbSymbolTableRecord
100
AcDbBlockTableRecord
  2
Den DO
340
0
 70
0
280
1
281
0
  0
BLOCK_RECORD
  5
1F4
330
9
100
AcDbSymbolTableRecord
100
AcDbBlockTableRecord
  2
Den VANG
340
0
 70
0
280
1
281
0
  0
BLOCK_RECORD
  5
201
330
9
100
AcDbSymbolTableRecord
100
AcDbBlockTableRecord
  2
HL003-2-3
340
0
 70
0
280
1
281
0
  0
BLOCK_RECORD
  5
216
330
9
100
AcDbSymbolTableRecord
100
AcDbBlockTableRecord
  2
HL035-1-3
340
0
 70
0
280
1
281
0
  0
BLOCK_RECORD
  5
225
330
9
100
AcDbSymbolTableRecord
100
AcDbBlockTableRecord
  2
AB301-2-1
340
0
 70
0
280
1
281
0
  0
BLOCK_RECORD
  5
238
330
9
100
AcDbSymbolTableRecord
100
AcDbBlockTableRecord
  2
Von-nho
340
0
 70
0
280
1
281
0
  0
BLOCK_RECORD
  5
27F
330
9
100
AcDbSymbolTableRecord
100
AcDbBlockTableRecord
  2
_ArchTick
340
0
 70
0
280
1
281
0
  0
BLOCK_RECORD
  5
283
330
9
100
AcDbSymbolTableRecord
100
AcDbBlockTableRecord
  2
_Open30
340
0
 70
0
280
1
281
0
  0
BLOCK_RECORD
  5
2A5
330
9
100
AcDbSymbolTableRecord
100
AcDbBlockTableRecord
  2
*D1
340
0
 70
0
280
1
281
0
  0
BLOCK_RECORD
  5
2B1
330
9
100
AcDbSymbolTableRecord
100
AcDbBlockTableRecord
  2
*D2
340
0
 70
0
280
1
281
0
  0
BLOCK_RECORD
  5
2BD
330
9
100
AcDbSymbolTableRecord
100
AcDbBlockTableRecord
  2
*D3
340
0
 70
0
280
1
281
0
  0
BLOCK_RECORD
  5
2C9
330
9
100
AcDbSymbolTableRecord
100
AcDbBlockTableRecord
  2
*D4
340
0
 70
0
280
1
281
0
  0
BLOCK_RECORD
  5
2D5
330
9
100
AcDbSymbolTableRecord
100
AcDbBlockTableRecord
  2
*D5
340
0
 70
0
280
1
281
0
  0
BLOCK_RECORD
  5
2E1
330
9
100
AcDbSymbolTableRecord
100
AcDbBlockTableRecord
  2
*D6
340
0
 70
0
280
1
281
0
  0
BLOCK_RECORD
  5
2ED
330
9
100
AcDbSymbolTableRecord
100
AcDbBlockTableRecord
  2
*D7
340
0
 70
0
280
1
281
0
  0
BLOCK_RECORD
  5
2F9
330
9
100
AcDbSymbolTableRecord
100
AcDbBlockTableRecord
  2
*D8
340
0
 70
0
280
1
281
0
  0
BLOCK_RECORD
  5
305
330
9
100
AcDbSymbolTableRecord
100
AcDbBlockTableRecord
  2
*D9
340
0
 70
0
280
1
281
0
  0
BLOCK_RECORD
  5
311
330
9
100
AcDbSymbolTableRecord
100
AcDbBlockTableRecord
  2
*D10
340
0
 70
0
280
1
281
0
  0
BLOCK_RECORD
  5
31E
330
9
100
AcDbSymbolTableRecord
100
AcDbBlockTableRecord
  2
*D11
340
0
 70
0
280
1
281
0
  0
BLOCK_RECORD
  5
32A
330
9
100
AcDbSymbolTableRecord
100
AcDbBlockTableRecord
  2
*D12
340
0
 70
0
280
1
281
0
  0
BLOCK_RECORD
  5
334
330
9
100
AcDbSymbolTableRecord
100
AcDbBlockTableRecord
  2
*D13
340
0
 70
0
280
1
281
0
  0
BLOCK_RECORD
  5
340
330
9
100
AcDbSymbolTableRecord
100
AcDbBlockTableRecord
  2
*D14
340
0
 70
0
280
1
281
0
  0
BLOCK_RECORD
  5
34C
330
9
100
AcDbSymbolTableRecord
100
AcDbBlockTableRecord
  2
*D15
340
0
 70
0
280
1
281
0
  0
BLOCK_RECORD
  5
358
330
9
100
AcDbSymbolTableRecord
100
AcDbBlockTableRecord
  2
*D16
340
0
 70
0
280
1
281
0
  0
BLOCK_RECORD
  5
365
330
9
100
AcDbSymbolTableRecord
100
AcDbBlockTableRecord
  2
*D17
340
0
 70
0
280
1
281
0
  0
ENDTAB
  0
ENDSEC
  0
SECTION
  2
BLOCKS
  0
BLOCK
  5
18
330
17
100
AcDbEntity
  8
0
100
AcDbBlockBegin
  2
*Model_Space
 70
0
 10
0.0
 20
0.0
 30
0.0
  3
*Model_Space
  1

  0
ENDBLK
  5
19
330
17
100
AcDbEntity
  8
0
100
AcDbBlockEnd
  0
BLOCK
  5
1C
330
1B
100
AcDbEntity
  8
0
100
AcDbBlockBegin
  2
*Paper_Space
 70
0
 10
0.0
 20
0.0
 30
0.0
  3
*Paper_Space
  1

  0
ENDBLK
  5
1D
330
1B
100
AcDbEntity
  8
0
100
AcDbBlockEnd
  0
BLOCK
  5
34
330
33
100
AcDbEntity
  8
0
100
AcDbBlockBegin
  2
_Oblique
 70
0
 10
0.0
 20
0.0
 30
0.0
  3
_Oblique
  1

  0
LINE
  5
36
330
33
100
AcDbEntity
  8
0
  6
ByBlock
 62
0
370
-2
100
AcDbLine
 10
-0.5
 20
-0.5
 30
0.0
 11
0.5
 21
0.5
 31
0.0
  0
ENDBLK
  5
35
330
33
100
AcDbEntity
  8
0
100
AcDbBlockEnd
  0
BLOCK
  5
11A
330
119
100
AcDbEntity
  8
0
100
AcDbBlockBegin
  2
khungtenAsean2
 70
2
 10
0.0
 20
0.0
 30
0.0
  3
khungtenAsean2
  1

  0
LWPOLYLINE
  5
11C
330
119
100
AcDbEntity
  8
0
 62
7
100
AcDbPolyline
 90
4
 70
1
 10
0.0
 20
0.0
 10
2970.000000000422
 20
0.0
 10
2970.000000000422
 20
-2100.00000000032
 10
0.0
 20
-2100.00000000032
  0
LINE
  5
11D
330
119
100
AcDbEntity
  8
0
 62
7
100
AcDbLine
 10
2020.0
 20
-2040.00000000032
 30
0.0
 11
0.0
 21
-2040.00000000032
 31
0.0
  0
LINE
  5
11E
330
119
100
AcDbEntity
  8
0
 62
7
100
AcDbLine
 10
2970.000000000422
 20
-1980.00000000032
 30
0.0
 11
0.0
 21
-1980.00000000032
 31
0.0
  0
LINE
  5
11F
330
119
100
AcDbEntity
  8
0
 62
7
100
AcDbLine
 10
320.0
 20
-1980.00000000032
 30
0.0
 11
320.0
 21
-2100.00000000032
 31
0.0
  0
LINE
  5
120
330
119
100
AcDbEntity
  8
0
 62
7
100
AcDbLine
 10
890.0
 20
-1980.00000000032
 30
0.0
 11
890.0
 21
-2100.00000000032
 31
0.0
  0
LINE
  5
121
330
119
100
AcDbEntity
  8
0
 62
7
100
AcDbLine
 10
1680.0
 20
-1980.00000000032
 30
0.0
 11
1680.0
 21
-2100.00000000032
 31
0.0
  0
LINE
  5
122
330
119
100
AcDbEntity
  8
0
 62
7
100
AcDbLine
 10
2020.0
 20
-1980.00000000032
 30
0.0
 11
2020.0
 21
-2100.00000000032
 31
0.0
  0
LINE
  5
123
330
119
100
AcDbEntity
  8
0
 62
7
100
AcDbLine
 10
2860.000000000422
 20
-1980.00000000032
 30
0.0
 11
2860.000000000422
 21
-2100.00000000032
 31
0.0
  0
MTEXT
  5
124
330
119
100
AcDbEntity
  8
0
 62
2
100
AcDbMText
 10
0.0
 20
-2010.00000000032
 30
0.0
 40
20.0
 41
917.6339389950801
 46
60.00000000000113
 71
4
 72
5
  1
  Thiết kế :
  7
Arial
  0
MTEXT
  5
125
330
119
100
AcDbEntity
  8
0
 62
2
100
AcDbMText
 10
0.0
 20
-2070.00000000032
 30
0.0
 40
20.0
 41
917.6339389950801
 46
60.00000000000113
 71
4
 72
5
  1
  CNC :
  7
Arial
  0
MTEXT
  5
126
330
119
100
AcDbEntity
  8
0
 62
2
100
AcDbMText
 10
320.0
 20
-2010.00000000032
 30
0.0
 40
20.0
 41
917.6339389950801
 46
60.00000000000113
 71
4
 72
5
  1
  Khách hàng :
  7
Arial
  0
MTEXT
  5
127
330
119
100
AcDbEntity
  8
0
 62
2
100
AcDbMText
 10
320.0
 20
-2070.00000000032
 30
0.0
 40
20.0
 41
917.6339389950801
 46
60.00000000000113
 71
4
 72
5
  1
  Giao hàng :
  7
Arial
  0
MTEXT
  5
128
330
119
100
AcDbEntity
  8
0
 62
2
100
AcDbMText
 10
890.0
 20
-2010.00000000032
 30
0.0
 40
20.0
 41
917.6339389950801
 46
60.00000000000113
 71
4
 72
5
  1
  Tên sản phẩm :
  7
Arial
  0
MTEXT
  5
129
330
119
100
AcDbEntity
  8
0
 62
2
100
AcDbMText
 10
890.0
 20
-2070.00000000032
 30
0.0
 40
20.0
 41
917.6339389950801
 46
60.00000000000113
 71
4
 72
5
  1
  Kích thước :
  7
Arial
  0
MTEXT
  5
12A
330
119
100
AcDbEntity
  8
0
 62
2
100
AcDbMText
 10
1680.0
 20
-2010.00000000032
 30
0.0
 40
20.0
 41
917.6339389950801
 46
60.00000000000113
 71
4
 72
5
  1
  Số lượng :
  7
Arial
  0
MTEXT
  5
12B
330
119
100
AcDbEntity
  8
0
 62
2
100
AcDbMText
 10
1680.0
 20
-2070.00000000032
 30
0.0
 40
20.0
 41
917.6339389950801
 46
60.00000000000113
 71
4
 72
5
  1
  Loại tôn :
  7
Arial
  0
MTEXT
  5
12C
330
119
100
AcDbEntity
  8
0
 62
2
100
AcDbMText
 10
2074.15528161102
 20
-2040.00000000032
 30
0.0
 40
20.0
 41
108.3105632220314
 46
120.0000000000011
 71
5
 72
5
  1
Thông\Ptin :
  7
Arial
  0
MTEXT
  5
12D
330
119
100
AcDbEntity
  8
0
 62
2
100
AcDbMText
 10
2915.000000000422
 20
-2010.00000000032
 30
0.0
 40
20.0
 41
110.0000000000065
 46
60.00000000000113
 71
5
 72
5
  1
Tờ
  7
Arial
  0
LINE
  5
12E
330
119
100
AcDbEntity
  8
0
 62
7
100
AcDbLine
 10
2128.310563222025
 20
-2005.00000000032
 30
0.0
 11
2128.310563222025
 21
-2075.00000000032
 31
0.0
  0
MTEXT
  5
12F
330
119
100
AcDbEntity
  8
0
 62
2
100
AcDbMText
 10
1382.285678836575
 20
-2070.00000000032
 30
0.0
 40
20.0
 41
917.6339389950801
 46
60.00000000000113
 71
4
 72
5
  1
mm
  7
Arial
  0
MTEXT
  5
130
330
119
100
AcDbEntity
  8
0
 62
2
100
AcDbMText
 10
1947.610064813329
 20
-2010.00000000032
 30
0.0
 40
20.0
 41
917.6339389950801
 46
60.00000000000113
 71
4
 72
5
  1
cái
  7
Arial
  0
MTEXT
  5
131
330
119
100
AcDbEntity
  8
0
 62
2
100
AcDbMText
 10
1936.880410494836
 20
-2070.00000000032
 30
0.0
 40
20.0
 41
917.6339389950801
 46
60.00000000000113
 71
4
 72
5
  1
mm
  7
Arial
  0
ATTDEF
  5
132
330
119
100
AcDbEntity
  8
0
 62
1
100
AcDbText
 10
2883.764212945627
 20
-2067.347800104843
 30
0.0
 40
25.0
  1
......
  7
Tahoma (Input Text)
 72
1
 11
2914.993225705868
 21
-2067.347800104843
 31
0.0
100
AcDbAttributeDefinition
  3
Số trang
  2
#11
 70
8
 71
1
 72
0
 11
2914.993225705868
 21
-2067.347800104843
 31
0.0
  0
ATTDEF
  5
133
330
119
100
AcDbEntity
  8
0
 62
1
100
AcDbText
 10
2146.716977487464
 20
-2021.275211692002
 30
0.0
 40
25.0
  1
......
  7
Tahoma (Input Text)
100
AcDbAttributeDefinition
  3
Thông tin 1
  2
#09
 70
8
 71
1
 72
0
  0
ATTDEF
  5
134
330
119
100
AcDbEntity
  8
0
 62
1
100
AcDbText
 10
2146.716977487464
 20
-2081.275211692002
 30
0.0
 40
25.0
  1
......
  7
Tahoma (Input Text)
100
AcDbAttributeDefinition
  3
Thông tin 2
  2
#10
 70
8
 71
1
 72
0
  0
ATTDEF
  5
135
330
119
100
AcDbEntity
  8
0
 62
1
100
AcDbText
 10
1817.447765733334
 20
-2081.275211692002
 30
0.0
 40
25.0
  1
......
  7
Tahoma (Input Text)
100
AcDbAttributeDefinition
  3
Loại tôn
  2
#08
 70
8
 71
1
 72
0
  0
ATTDEF
  5
136
330
119
100
AcDbEntity
  8
0
 62
1
100
AcDbText
 10
1834.68151032555
 20
-2021.275211692002
 30
0.0
 40
25.0
  1
......
  7
Tahoma (Input Text)
100
AcDbAttributeDefinition
  3
Số lượng
  2
#07
 70
8
 71
1
 72
0
  0
ATTDEF
  5
137
330
119
100
AcDbEntity
  8
0
 62
1
100
AcDbText
 10
1065.330889143646
 20
-2081.275211692002
 30
0.0
 40
25.0
  1
......
  7
Tahoma (Input Text)
100
AcDbAttributeDefinition
  3
Kích thước
  2
#06
 70
8
 71
1
 72
0
  0
ATTDEF
  5
138
330
119
100
AcDbEntity
  8
0
 62
1
100
AcDbText
 10
1106.628177122154
 20
-2021.275211692002
 30
0.0
 40
25.0
  1
......
  7
Tahoma (Input Text)
100
AcDbAttributeDefinition
  3
Tên s.phẩm
  2
#05
 70
8
 71
1
 72
0
  0
ATTDEF
  5
139
330
119
100
AcDbEntity
  8
0
 62
1
100
AcDbText
 10
486.1050270054984
 20
-2081.275211692002
 30
0.0
 40
25.0
  1
......
  7
Tahoma (Input Text)
100
AcDbAttributeDefinition
  3
Giao hàng
  2
#04
 70
8
 71
1
 72
0
  0
ATTDEF
  5
13A
330
119
100
AcDbEntity
  8
0
 62
1
100
AcDbText
 10
506.5707489467022
 20
-2019.301600489707
 30
0.0
 40
25.0
  1
......
  7
Tahoma (Input Text)
100
AcDbAttributeDefinition
  3
Khách hàng
  2
#03
 70
8
 71
1
 72
0
  0
ATTDEF
  5
13B
330
119
100
AcDbEntity
  8
0
 62
1
100
AcDbText
 10
98.45672450316488
 20
-2081.275211692002
 30
0.0
 40
25.0
  1
......
  7
Tahoma (Input Text)
100
AcDbAttributeDefinition
  3
CNC
  2
#02
 70
8
 71
1
 72
0
  0
ATTDEF
  5
13C
330
119
100
AcDbEntity
  8
0
 62
1
100
AcDbText
 10
137.0535078375105
 20
-2021.275211692002
 30
0.0
 40
25.0
  1
......
  7
Tahoma (Input Text)
100
AcDbAttributeDefinition
  3
Thiết kế
  2
#01
 70
8
 71
1
 72
0
  0
ENDBLK
  5
11B
330
119
100
AcDbEntity
  8
0
100
AcDbBlockEnd
  0
BLOCK
  5
13E
330
13D
100
AcDbEntity
  8
0
100
AcDbBlockBegin
  2
HL003-2-2
 70
0
 10
0.0
 20
0.0
 30
0.0
  3
HL003-2-2
  1

  0
CIRCLE
  5
140
330
13D
100
AcDbEntity
  8
0
 62
1
100
AcDbCircle
 10
8.0
 20
6.0
 30
0.0
 40
3.0
  0
LWPOLYLINE
  5
141
330
13D
100
AcDbEntity
  8
0
 62
1
100
AcDbPolyline
 90
4
 70
1
 10
0.0
 20
12.0
 10
16.0
 20
12.0
 10
16.0
 20
0.0
 10
0.0
 20
0.0
  0
LWPOLYLINE
  5
142
330
13D
100
AcDbEntity
  8
0
 62
1
100
AcDbPolyline
 90
6
 70
0
 10
17.0
 20
0.0
 10
17.0
 20
-9.0
 10
0.0
 20
-9.0
 10
0.0
 20
21.0
 10
17.0
 20
21.0
 10
17.0
 20
12.0
  0
LINE
  5
143
330
13D
100
AcDbEntity
  8
0
 62
1
100
AcDbLine
 10
16.0
 20
0.0
 30
0.0
 11
17.0
 21
0.0
 31
0.0
  0
LINE
  5
144
330
13D
100
AcDbEntity
  8
0
 62
1
100
AcDbLine
 10
16.0
 20
12.0
 30
0.0
 11
17.0
 21
12.0
 31
0.0
  0
LINE
  5
145
330
13D
100
AcDbEntity
  8
0
 62
1
100
AcDbLine
 10
15.0
 20
21.0
 30
0.0
 11
15.0
 21
12.0
 31
0.0
  0
LINE
  5
146
330
13D
100
AcDbEntity
  8
0
 62
1
100
AcDbLine
 10
15.0
 20
-9.0
 30
0.0
 11
15.0
 21
1.8e-15
 31
0.0
  0
ENDBLK
  5
13F
330
13D
100
AcDbEntity
  8
0
100
AcDbBlockEnd
  0
BLOCK
  5
148
330
147
100
AcDbEntity
  8
0
100
AcDbBlockBegin
  2
HL035-1-1
 70
0
 10
0.0
 20
0.0
 30
0.0
  3
HL035-1-1
  1

  0
LINE
  5
14A
330
147
100
AcDbEntity
  8
0
 62
1
100
AcDbLine
 10
-4.500000000014551
 20
79.0
 30
0.0
 11
18.49999999998544
 21
79.0
 31
0.0
  0
LINE
  5
14B
330
147
100
AcDbEntity
  8
0
 62
1
100
AcDbLine
 10
18.49999999998544
 20
79.0
 30
0.0
 11
18.49999999998544
 21
17.0
 31
0.0
  0
LINE
  5
14C
330
147
100
AcDbEntity
  8
0
 62
1
100
AcDbLine
 10
18.49999999998544
 20
17.0
 30
0.0
 11
-4.500000000014551
 21
17.0
 31
0.0
  0
LINE
  5
14D
330
147
100
AcDbEntity
  8
0
 62
1
100
AcDbLine
 10
-4.500000000014551
 20
17.0
 30
0.0
 11
-4.500000000014551
 21
31.00000000000728
 31
0.0
  0
LINE
  5
14E
330
147
100
AcDbEntity
  8
0
 62
1
100
AcDbLine
 10
-4.500000000014551
 20
65.0
 30
0.0
 11
-4.500000000014551
 21
79.0
 31
0.0
  0
LINE
  5
14F
330
147
100
AcDbEntity
  8
0
 62
1
100
AcDbLine
 10
4.499999999985448
 20
17.0
 30
0.0
 11
4.499999999985448
 21
31.00000000000728
 31
0.0
  0
LINE
  5
150
330
147
100
AcDbEntity
  8
0
 62
1
100
AcDbLine
 10
4.499999999985448
 20
65.0
 30
0.0
 11
4.499999999985448
 21
79.0
 31
0.0
  0
LINE
  5
151
330
147
100
AcDbEntity
  8
0
 62
1
100
AcDbLine
 10
-4.500000000014551
 20
65.0
 30
0.0
 11
4.499999999985448
 21
65.0
 31
0.0
  0
LINE
  5
152
330
147
100
AcDbEntity
  8
0
 62
1
100
AcDbLine
 10
-4.500000000014551
 20
31.00000000000728
 30
0.0
 11
4.499999999985448
 21
31.00000000000728
 31
0.0
  0
LINE
  5
153
330
147
100
AcDbEntity
  8
0
 62
1
100
AcDbLine
 10
4.499999999985448
 20
65.0
 30
0.0
 11
4.499999999985448
 21
31.00000000000728
 31
0.0
  0
LWPOLYLINE
  5
154
330
147
100
AcDbEntity
  8
0
 62
1
100
AcDbPolyline
 90
2
 70
0
 10
1.999999999985448
 20
0.0
 10
-2.0
 20
0.0
  0
LWPOLYLINE
  5
155
330
147
100
AcDbEntity
  8
0
 62
1
100
AcDbPolyline
 90
2
 70
0
 10
-3.000000000014551
 20
3.000000000087311
 10
-3.000000000014551
 20
17.0
  0
LWPOLYLINE
  5
156
330
147
100
AcDbEntity
  8
0
 62
1
100
AcDbPolyline
 90
2
 70
0
 10
-3.000000000014551
 20
32.50000000000728
 10
-3.000000000014551
 20
65.0
  0
LWPOLYLINE
  5
157
330
147
100
AcDbEntity
  8
0
 62
1
100
AcDbPolyline
 90
2
 70
0
 10
2.999999999985448
 20
65.0
 10
2.999999999985448
 20
32.50000000000728
  0
LWPOLYLINE
  5
158
330
147
100
AcDbEntity
  8
0
 62
1
100
AcDbPolyline
 90
2
 70
0
 10
2.999999999985448
 20
17.0
 10
2.999999999985448
 20
3.0
  0
LINE
  5
159
330
147
100
AcDbEntity
  8
0
 62
1
100
AcDbLine
 10
2.999999999985448
 20
3.0
 30
0.0
 11
1.999999999985448
 21
0.0
 31
0.0
  0
LINE
  5
15A
330
147
100
AcDbEntity
  8
0
 62
1
100
AcDbLine
 10
-3.0
 20
3.0
 30
0.0
 11
-2.0
 21
0.0
 31
0.0
  0
LINE
  5
15B
330
147
100
AcDbEntity
  8
0
 62
1
100
AcDbLine
 10
-3.000000000014551
 20
79.0
 30
0.0
 11
-3.000000000014551
 21
78.99999999999272
 31
0.0
  0
LINE
  5
15C
330
147
100
AcDbEntity
  8
0
 62
1
100
AcDbLine
 10
2.999999999985448
 20
79.0
 30
0.0
 11
2.999999999985448
 21
79.99999999999272
 31
0.0
  0
LINE
  5
15D
330
147
100
AcDbEntity
  8
0
 62
1
100
AcDbLine
 10
-3.000000000014551
 20
79.0
 30
0.0
 11
-3.000000000014551
 21
79.99999999999272
 31
0.0
  0
LINE
  5
15E
330
147
100
AcDbEntity
  8
0
 62
1
100
AcDbLine
 10
-5.000000000014551
 20
81.99999999999272
 30
0.0
 11
-17.00000000001455
 21
82.0
 31
0.0
  0
ARC
  5
15F
330
147
100
AcDbEntity
  8
0
 62
1
100
AcDbCircle
 10
-5.000000000014551
 20
79.99999999999272
 30
0.0
 40
2.0
100
AcDbArc
 50
0.0
 51
90.0
  0
ARC
  5
160
330
147
100
AcDbEntity
  8
0
 62
1
100
AcDbCircle
 10
-5.000000000014551
 20
79.99999999999272
 30
0.0
 40
8.0
100
AcDbArc
 50
0.0
 51
90.0
  0
LINE
  5
161
330
147
100
AcDbEntity
  8
0
 62
1
100
AcDbLine
 10
-5.000000000014551
 20
88.0
 30
0.0
 11
-17.00000000001455
 21
88.0
 31
0.0
  0
LINE
  5
162
330
147
100
AcDbEntity
  8
0
 62
1
100
AcDbLine
 10
-17.00000000001455
 20
88.0
 30
0.0
 11
-17.00000000001455
 21
82.0
 31
0.0
  0
LWPOLYLINE
  5
163
330
147
100
AcDbEntity
  8
0
 62
1
100
AcDbPolyline
 90
4
 70
1
 10
-4.000000000014551
 20
32.50000000000728
 10
3.999999999985448
 20
32.50000000000728
 10
3.999999999985448
 20
31.00000000000728
 10
-4.000000000014551
 20
31.00000000000728
  0
LINE
  5
164
330
147
100
AcDbEntity
  8
0
 62
1
100
AcDbLine
 10
3.999999999985448
 20
34.00000000000728
 30
0.0
 11
-4.000000000014551
 21
32.50000000000728
 31
0.0
  0
LINE
  5
165
330
147
100
AcDbEntity
  8
0
 62
1
100
AcDbLine
 10
3.999999999985448
 20
35.50000000000728
 30
0.0
 11
-4.000000000014551
 21
34.00000000000728
 31
0.0
  0
LINE
  5
166
330
147
100
AcDbEntity
  8
0
 62
1
100
AcDbLine
 10
3.999999999985448
 20
37.00000000000728
 30
0.0
 11
-4.000000000014551
 21
35.50000000000728
 31
0.0
  0
LINE
  5
167
330
147
100
AcDbEntity
  8
0
 62
1
100
AcDbLine
 10
3.999999999985448
 20
38.50000000000728
 30
0.0
 11
-4.000000000014551
 21
37.00000000000728
 31
0.0
  0
LINE
  5
168
330
147
100
AcDbEntity
  8
0
 62
1
100
AcDbLine
 10
3.999999999985448
 20
40.00000000000727
 30
0.0
 11
-4.000000000014551
 21
38.50000000000728
 31
0.0
  0
LINE
  5
169
330
147
100
AcDbEntity
  8
0
 62
1
100
AcDbLine
 10
3.999999999985448
 20
41.50000000000727
 30
0.0
 11
-4.000000000014551
 21
40.00000000000727
 31
0.0
  0
LINE
  5
16A
330
147
100
AcDbEntity
  8
0
 62
1
100
AcDbLine
 10
3.999999999985448
 20
43.00000000000728
 30
0.0
 11
-4.000000000014551
 21
41.50000000000727
 31
0.0
  0
LINE
  5
16B
330
147
100
AcDbEntity
  8
0
 62
1
100
AcDbLine
 10
3.999999999985448
 20
44.50000000000727
 30
0.0
 11
-4.000000000014551
 21
43.00000000000728
 31
0.0
  0
LINE
  5
16C
330
147
100
AcDbEntity
  8
0
 62
1
100
AcDbLine
 10
3.999999999985448
 20
46.00000000000727
 30
0.0
 11
-4.000000000014551
 21
44.50000000000727
 31
0.0
  0
LINE
  5
16D
330
147
100
AcDbEntity
  8
0
 62
1
100
AcDbLine
 10
3.999999999985448
 20
47.50000000000727
 30
0.0
 11
-4.000000000014551
 21
46.00000000000727
 31
0.0
  0
LINE
  5
16E
330
147
100
AcDbEntity
  8
0
 62
1
100
AcDbLine
 10
3.999999999985448
 20
49.00000000000727
 30
0.0
 11
-4.000000000014551
 21
47.50000000000727
 31
0.0
  0
LINE
  5
16F
330
147
100
AcDbEntity
  8
0
 62
1
100
AcDbLine
 10
3.999999999985448
 20
50.50000000000728
 30
0.0
 11
-4.000000000014551
 21
49.00000000000727
 31
0.0
  0
LINE
  5
170
330
147
100
AcDbEntity
  8
0
 62
1
100
AcDbLine
 10
3.999999999985448
 20
52.00000000000727
 30
0.0
 11
-4.000000000014551
 21
50.50000000000728
 31
0.0
  0
LINE
  5
171
330
147
100
AcDbEntity
  8
0
 62
1
100
AcDbLine
 10
3.999999999985448
 20
53.50000000000727
 30
0.0
 11
-4.000000000014551
 21
52.00000000000727
 31
0.0
  0
LINE
  5
172
330
147
100
AcDbEntity
  8
0
 62
1
100
AcDbLine
 10
3.999999999985448
 20
55.00000000000728
 30
0.0
 11
-4.000000000014551
 21
53.50000000000727
 31
0.0
  0
LINE
  5
173
330
147
100
AcDbEntity
  8
0
 62
1
100
AcDbLine
 10
3.999999999985448
 20
56.50000000000727
 30
0.0
 11
-4.000000000014551
 21
55.00000000000728
 31
0.0
  0
LINE
  5
174
330
147
100
AcDbEntity
  8
0
 62
1
100
AcDbLine
 10
3.999999999985448
 20
58.00000000000728
 30
0.0
 11
-4.000000000014551
 21
56.50000000000727
 31
0.0
  0
LINE
  5
175
330
147
100
AcDbEntity
  8
0
 62
1
100
AcDbLine
 10
3.999999999985448
 20
59.50000000000727
 30
0.0
 11
-4.000000000014551
 21
58.00000000000728
 31
0.0
  0
LINE
  5
176
330
147
100
AcDbEntity
  8
0
 62
1
100
AcDbLine
 10
3.999999999985448
 20
61.00000000000727
 30
0.0
 11
-4.000000000014551
 21
59.50000000000727
 31
0.0
  0
LINE
  5
177
330
147
100
AcDbEntity
  8
0
 62
1
100
AcDbLine
 10
3.999999999985448
 20
62.50000000000728
 30
0.0
 11
-4.000000000014551
 21
61.00000000000727
 31
0.0
  0
LINE
  5
178
330
147
100
AcDbEntity
  8
0
 62
1
100
AcDbLine
 10
3.999999999985448
 20
64.00000000000728
 30
0.0
 11
-4.000000000014551
 21
62.50000000000728
 31
0.0
  0
LINE
  5
179
330
147
100
AcDbEntity
  8
0
 62
1
100
AcDbLine
 10
1.333333333299378
 20
65.0
 30
0.0
 11
-4.000000000014551
 21
64.00000000000728
 31
0.0
  0
LINE
  5
17A
330
147
100
AcDbEntity
  8
0
 62
1
100
AcDbLine
 10
-4.000000000014551
 20
34.00000000000728
 30
0.0
 11
-3.000000000014551
 21
34.00000000000728
 31
0.0
  0
LINE
  5
17B
330
147
100
AcDbEntity
  8
0
 62
1
100
AcDbLine
 10
2.999999999985448
 20
34.00000000000728
 30
0.0
 11
3.999999999985448
 21
34.00000000000728
 31
0.0
  0
LINE
  5
17C
330
147
100
AcDbEntity
  8
0
 62
1
100
AcDbLine
 10
-4.000000000014551
 20
35.50000000000728
 30
0.0
 11
-3.000000000014551
 21
35.50000000000728
 31
0.0
  0
LINE
  5
17D
330
147
100
AcDbEntity
  8
0
 62
1
100
AcDbLine
 10
2.999999999985448
 20
35.50000000000728
 30
0.0
 11
3.999999999985448
 21
35.50000000000728
 31
0.0
  0
LINE
  5
17E
330
147
100
AcDbEntity
  8
0
 62
1
100
AcDbLine
 10
-4.000000000014551
 20
37.00000000000728
 30
0.0
 11
-3.000000000014551
 21
37.00000000000728
 31
0.0
  0
LINE
  5
17F
330
147
100
AcDbEntity
  8
0
 62
1
100
AcDbLine
 10
2.999999999985448
 20
37.00000000000728
 30
0.0
 11
3.999999999985448
 21
37.00000000000728
 31
0.0
  0
LINE
  5
180
330
147
100
AcDbEntity
  8
0
 62
1
100
AcDbLine
 10
-4.000000000014551
 20
38.50000000000728
 30
0.0
 11
-3.000000000014551
 21
38.50000000000728
 31
0.0
  0
LINE
  5
181
330
147
100
AcDbEntity
  8
0
 62
1
100
AcDbLine
 10
2.999999999985448
 20
38.50000000000728
 30
0.0
 11
3.999999999985448
 21
38.50000000000728
 31
0.0
  0
LINE
  5
182
330
147
100
AcDbEntity
  8
0
 62
1
100
AcDbLine
 10
-4.000000000014551
 20
40.00000000000727
 30
0.0
 11
-3.000000000014551
 21
40.00000000000727
 31
0.0
  0
LINE
  5
183
330
147
100
AcDbEntity
  8
0
 62
1
100
AcDbLine
 10
2.999999999985448
 20
40.00000000000727
 30
0.0
 11
3.999999999985448
 21
40.00000000000727
 31
0.0
  0
LINE
  5
184
330
147
100
AcDbEntity
  8
0
 62
1
100
AcDbLine
 10
-4.000000000014551
 20
41.50000000000727
 30
0.0
 11
-3.000000000014551
 21
41.50000000000727
 31
0.0
  0
LINE
  5
185
330
147
100
AcDbEntity
  8
0
 62
1
100
AcDbLine
 10
2.999999999985448
 20
41.50000000000727
 30
0.0
 11
3.999999999985448
 21
41.50000000000727
 31
0.0
  0
LINE
  5
186
330
147
100
AcDbEntity
  8
0
 62
1
100
AcDbLine
 10
-4.000000000014551
 20
43.00000000000728
 30
0.0
 11
-3.000000000014551
 21
43.00000000000728
 31
0.0
  0
LINE
  5
187
330
147
100
AcDbEntity
  8
0
 62
1
100
AcDbLine
 10
2.999999999985448
 20
43.00000000000728
 30
0.0
 11
3.999999999985448
 21
43.00000000000728
 31
0.0
  0
LINE
  5
188
330
147
100
AcDbEntity
  8
0
 62
1
100
AcDbLine
 10
-4.000000000014551
 20
44.50000000000727
 30
0.0
 11
-3.000000000014551
 21
44.50000000000727
 31
0.0
  0
LINE
  5
189
330
147
100
AcDbEntity
  8
0
 62
1
100
AcDbLine
 10
2.999999999985448
 20
44.50000000000727
 30
0.0
 11
3.999999999985448
 21
44.50000000000727
 31
0.0
  0
LINE
  5
18A
330
147
100
AcDbEntity
  8
0
 62
1
100
AcDbLine
 10
-4.000000000014551
 20
46.00000000000727
 30
0.0
 11
-3.000000000014551
 21
46.00000000000727
 31
0.0
  0
LINE
  5
18B
330
147
100
AcDbEntity
  8
0
 62
1
100
AcDbLine
 10
2.999999999985448
 20
46.00000000000727
 30
0.0
 11
3.999999999985448
 21
46.00000000000727
 31
0.0
  0
LINE
  5
18C
330
147
100
AcDbEntity
  8
0
 62
1
100
AcDbLine
 10
-4.000000000014551
 20
47.50000000000727
 30
0.0
 11
-3.000000000014551
 21
47.50000000000727
 31
0.0
  0
LINE
  5
18D
330
147
100
AcDbEntity
  8
0
 62
1
100
AcDbLine
 10
2.999999999985448
 20
47.50000000000727
 30
0.0
 11
3.999999999985448
 21
47.50000000000727
 31
0.0
  0
LINE
  5
18E
330
147
100
AcDbEntity
  8
0
 62
1
100
AcDbLine
 10
-4.000000000014551
 20
49.00000000000727
 30
0.0
 11
-3.000000000014551
 21
49.00000000000727
 31
0.0
  0
LINE
  5
18F
330
147
100
AcDbEntity
  8
0
 62
1
100
AcDbLine
 10
2.999999999985448
 20
49.00000000000727
 30
0.0
 11
3.999999999985448
 21
49.00000000000727
 31
0.0
  0
LINE
  5
190
330
147
100
AcDbEntity
  8
0
 62
1
100
AcDbLine
 10
-4.000000000014551
 20
50.50000000000728
 30
0.0
 11
-3.000000000014551
 21
50.50000000000728
 31
0.0
  0
LINE
  5
191
330
147
100
AcDbEntity
  8
0
 62
1
100
AcDbLine
 10
2.999999999985448
 20
50.50000000000728
 30
0.0
 11
3.999999999985448
 21
50.50000000000728
 31
0.0
  0
LINE
  5
192
330
147
100
AcDbEntity
  8
0
 62
1
100
AcDbLine
 10
-4.000000000014551
 20
52.00000000000727
 30
0.0
 11
-3.000000000014551
 21
52.00000000000727
 31
0.0
  0
LINE
  5
193
330
147
100
AcDbEntity
  8
0
 62
1
100
AcDbLine
 10
2.999999999985448
 20
52.00000000000727
 30
0.0
 11
3.999999999985448
 21
52.00000000000727
 31
0.0
  0
LINE
  5
194
330
147
100
AcDbEntity
  8
0
 62
1
100
AcDbLine
 10
-4.000000000014551
 20
53.50000000000727
 30
0.0
 11
-3.000000000014551
 21
53.50000000000727
 31
0.0
  0
LINE
  5
195
330
147
100
AcDbEntity
  8
0
 62
1
100
AcDbLine
 10
2.999999999985448
 20
53.50000000000727
 30
0.0
 11
3.999999999985448
 21
53.50000000000727
 31
0.0
  0
LINE
  5
196
330
147
100
AcDbEntity
  8
0
 62
1
100
AcDbLine
 10
-4.000000000014551
 20
55.00000000000728
 30
0.0
 11
-3.000000000014551
 21
55.00000000000728
 31
0.0
  0
LINE
  5
197
330
147
100
AcDbEntity
  8
0
 62
1
100
AcDbLine
 10
2.999999999985448
 20
55.00000000000728
 30
0.0
 11
3.999999999985448
 21
55.00000000000728
 31
0.0
  0
LINE
  5
198
330
147
100
AcDbEntity
  8
0
 62
1
100
AcDbLine
 10
-4.000000000014551
 20
56.50000000000727
 30
0.0
 11
-3.000000000014551
 21
56.50000000000727
 31
0.0
  0
LINE
  5
199
330
147
100
AcDbEntity
  8
0
 62
1
100
AcDbLine
 10
2.999999999985448
 20
56.50000000000727
 30
0.0
 11
3.999999999985448
 21
56.50000000000727
 31
0.0
  0
LINE
  5
19A
330
147
100
AcDbEntity
  8
0
 62
1
100
AcDbLine
 10
-4.000000000014551
 20
58.00000000000728
 30
0.0
 11
-3.000000000014551
 21
58.00000000000728
 31
0.0
  0
LINE
  5
19B
330
147
100
AcDbEntity
  8
0
 62
1
100
AcDbLine
 10
2.999999999985448
 20
58.00000000000728
 30
0.0
 11
3.999999999985448
 21
58.00000000000728
 31
0.0
  0
LINE
  5
19C
330
147
100
AcDbEntity
  8
0
 62
1
100
AcDbLine
 10
-4.000000000014551
 20
59.50000000000727
 30
0.0
 11
-3.000000000014551
 21
59.50000000000727
 31
0.0
  0
LINE
  5
19D
330
147
100
AcDbEntity
  8
0
 62
1
100
AcDbLine
 10
2.999999999985448
 20
59.50000000000727
 30
0.0
 11
3.999999999985448
 21
59.50000000000727
 31
0.0
  0
LINE
  5
19E
330
147
100
AcDbEntity
  8
0
 62
1
100
AcDbLine
 10
-4.000000000014551
 20
62.50000000000728
 30
0.0
 11
-3.000000000014551
 21
62.50000000000728
 31
0.0
  0
LINE
  5
19F
330
147
100
AcDbEntity
  8
0
 62
1
100
AcDbLine
 10
2.999999999985448
 20
62.50000000000728
 30
0.0
 11
3.999999999985448
 21
62.50000000000728
 31
0.0
  0
LINE
  5
1A0
330
147
100
AcDbEntity
  8
0
 62
1
100
AcDbLine
 10
-4.000000000014551
 20
61.00000000000727
 30
0.0
 11
-3.000000000014551
 21
61.00000000000727
 31
0.0
  0
LINE
  5
1A1
330
147
100
AcDbEntity
  8
0
 62
1
100
AcDbLine
 10
2.999999999985448
 20
61.00000000000727
 30
0.0
 11
3.999999999985448
 21
61.00000000000727
 31
0.0
  0
LINE
  5
1A2
330
147
100
AcDbEntity
  8
0
 62
1
100
AcDbLine
 10
-4.000000000014551
 20
64.00000000000728
 30
0.0
 11
-3.000000000014551
 21
64.00000000000728
 31
0.0
  0
LINE
  5
1A3
330
147
100
AcDbEntity
  8
0
 62
1
100
AcDbLine
 10
2.999999999985448
 20
64.00000000000728
 30
0.0
 11
3.999999999985448
 21
64.00000000000728
 31
0.0
  0
ENDBLK
  5
149
330
147
100
AcDbEntity
  8
0
100
AcDbBlockEnd
  0
BLOCK
  5
1A5
330
1A4
100
AcDbEntity
  8
0
100
AcDbBlockBegin
  2
Ampere-Meter-front
 70
2
 10
0.0
 20
0.0
 30
0.0
  3
Ampere-Meter-front
  1

  0
LWPOLYLINE
  5
1A7
330
1A4
100
AcDbEntity
  8
0
 62
6
100
AcDbPolyline
 90
4
 70
1
 10
-48.0
 20
-48.0
 10
48.0
 20
-48.0
 10
48.0
 20
48.0
 10
-48.0
 20
48.0
  0
ATTDEF
  5
1A8
330
1A4
100
AcDbEntity
  8
0
 62
6
100
AcDbText
 10
-34.62357286769644
 20
25.5
 30
0.0
 40
10.0
  1
A
  7
Tahoma (Input Text)
 72
1
 11
-30.5
 21
30.5
 31
0.0
100
AcDbAttributeDefinition
  3
Loai dong ho
  2
BEW-96
 70
0
 74
2
 71
1
 72
0
 11
-30.5
 21
30.5
 31
0.0
  0
LINE
  5
1A9
330
1A4
100
AcDbEntity
  8
0
 62
6
100
AcDbLine
 10
-18.41117040703727
 20
7.612543597010102
 30
0.0
 11
-22.37793710849349
 21
10.65635074205374
 31
0.0
  0
LINE
  5
1AA
330
1A4
100
AcDbEntity
  8
0
 62
6
100
AcDbLine
 10
-15.9826287375202
 20
10.57173018335399
 30
0.0
 11
-19.74182777491512
 21
13.86845925885438
 31
0.0
  0
LINE
  5
1AB
330
1A4
100
AcDbEntity
  8
0
 62
6
100
AcDbLine
 10
10.99999999999983
 20
-29.25
 30
0.0
 11
-28.06755007218396
 21
-29.25
 31
0.0
  0
LINE
  5
1AC
330
1A4
100
AcDbEntity
  8
0
 62
6
100
AcDbLine
 10
10.99999999999983
 20
-26.75
 30
0.0
 11
-28.06755007218391
 21
-26.75
 31
0.0
  0
LWPOLYLINE
  5
1AD
330
1A4
100
AcDbEntity
  8
0
 62
6
100
AcDbPolyline
 90
5
 70
0
 10
40.49999999999999
 20
-6.0
 10
40.49999999999999
 20
40.49999999999996
 10
-40.49999999999999
 20
40.49999999999999
 10
-40.49999999999999
 20
-40.49999999999999
 10
6.0
 20
-40.49999999999999
  0
LINE
  5
1AE
330
1A4
100
AcDbEntity
  8
0
 62
6
100
AcDbLine
 10
-40.49999999999999
 20
-40.49999999999999
 30
0.0
 11
-45.49999999999999
 21
-45.49999999999999
 31
0.0
  0
ATTDEF
  5
1AF
330
1A4
100
AcDbEntity
  8
0
 62
6
100
AcDbText
 10
-32.93284083277367
 20
-30.5
 30
0.0
 40
5.0
  1
O
  7
Tahoma (Input Text)
 72
1
 11
-30.5
 21
-28.0
 31
0.0
100
AcDbAttributeDefinition
  3
Muc do
  2
O
 70
0
 74
2
 71
1
 72
0
 11
-30.5
 21
-28.0
 31
0.0
  0
LINE
  5
1B0
330
1A4
100
AcDbEntity
  8
0
 62
6
100
AcDbLine
 10
-30.5
 20
-28.0
 30
0.0
 11
-28.06755007218396
 21
-29.25
 31
0.0
  0
LINE
  5
1B1
330
1A4
100
AcDbEntity
  8
0
 62
6
100
AcDbLine
 10
-28.50666083791049
 20
-12.85908586150251
 30
0.0
 11
-33.33628996935591
 21
-11.56499063598988
 31
0.0
  0
LINE
  5
1B2
330
1A4
100
AcDbEntity
  8
0
 62
6
100
AcDbLine
 10
-29.37593890358897
 20
-16.58721616205651
 30
0.0
 11
-34.2798653056052
 21
-15.61176455197585
 31
0.0
  0
LINE
  5
1B3
330
1A4
100
AcDbEntity
  8
0
 62
6
100
AcDbLine
 10
-29.99952439036793
 20
-20.36421775512696
 30
0.0
 11
-34.95674869723706
 21
-19.71158679402669
 31
0.0
  0
LINE
  5
1B4
330
1A4
100
AcDbEntity
  8
0
 62
6
100
AcDbLine
 10
-30.5
 20
-28.0
 30
0.0
 11
-35.5
 21
-28.0
 31
0.0
  0
LINE
  5
1B5
330
1A4
100
AcDbEntity
  8
0
 62
6
100
AcDbLine
 10
-30.5
 20
-27.99999999999994
 30
0.0
 11
-35.50000000000011
 21
-27.99999999999994
 31
0.0
  0
LINE
  5
1B6
330
1A4
100
AcDbEntity
  8
0
 62
6
100
AcDbLine
 10
-30.37474700945831
 20
-24.17391694003661
 30
0.0
 11
-35.3640416256514
 21
-23.84690129388588
 31
0.0
  0
LINE
  5
1B7
330
1A4
100
AcDbEntity
  8
0
 62
6
100
AcDbLine
 10
-30.5
 20
-28.0
 30
0.0
 11
-28.06755007218391
 21
-26.75
 31
0.0
  0
LINE
  5
1B8
330
1A4
100
AcDbEntity
  8
0
 62
6
100
AcDbLine
 10
-20.6409723196989
 20
4.500858631646678
 30
0.0
 11
-24.79832038121174
 21
7.278709796744749
 31
0.0
  0
LINE
  5
1B9
330
1A4
100
AcDbEntity
  8
0
 62
6
100
AcDbLine
 10
-27.3954125754637
 20
-9.195791279765073
 30
0.0
 11
-32.13006322293927
 21
-7.588593953249244
 31
0.0
  0
LINE
  5
1BA
330
1A4
100
AcDbEntity
  8
0
 62
6
100
AcDbLine
 10
-26.04695265191026
 20
-5.613019206642291
 30
0.0
 11
-30.6663503144668
 21
-3.699602044816798
 31
0.0
  0
LINE
  5
1BB
330
1A4
100
AcDbEntity
  8
0
 62
6
100
AcDbLine
 10
-22.66248612138969
 20
1.249999999999942
 30
0.0
 11
-26.99261314031196
 21
3.75
 31
0.0
  0
LINE
  5
1BC
330
1A4
100
AcDbEntity
  8
0
 62
6
100
AcDbLine
 10
-24.46705537966227
 20
-2.12611162218843
 30
0.0
 11
-28.95141908732575
 21
0.0853318289065897
 31
0.0
  0
LINE
  5
1BD
330
1A4
100
AcDbEntity
  8
0
 62
6
100
AcDbLine
 10
-40.49999999999999
 20
40.49999999999999
 30
0.0
 11
-45.49999999999999
 21
45.49999999999999
 31
0.0
  0
ATTDEF
  5
1BE
330
1A4
100
AcDbEntity
  8
0
 62
6
100
AcDbText
 10
22.36870382807259
 20
22.99999999999994
 30
0.0
 40
5.0
  1
500
  7
Tahoma (Input Text)
 72
1
 11
28.00000000000006
 21
25.49999999999994
 31
0.0
100
AcDbAttributeDefinition
  3
Muc do
  2
MAX
 70
0
 74
2
 71
1
 72
0
 11
28.00000000000006
 21
25.49999999999994
 31
0.0
  0
LINE
  5
1BF
330
1A4
100
AcDbEntity
  8
0
 62
6
100
AcDbLine
 10
-1.25
 20
22.66248612138966
 30
0.0
 11
-3.750000000000055
 21
26.99261314031188
 31
0.0
  0
LINE
  5
1C0
330
1A4
100
AcDbEntity
  8
0
 62
6
100
AcDbLine
 10
-4.50085863164679
 20
20.64097231969885
 30
0.0
 11
-7.278709796744808
 21
24.79832038121163
 31
0.0
  0
LINE
  5
1C1
330
1A4
100
AcDbEntity
  8
0
 62
6
100
AcDbLine
 10
30.24793376047171
 20
-24.69140606774849
 30
0.0
 11
24.69140606774846
 21
-30.24793376047168
 31
0.0
  0
CIRCLE
  5
1C2
330
1A4
100
AcDbEntity
  8
0
 62
6
100
AcDbCircle
 10
28.0
 20
-28.0
 30
0.0
 40
4.0
  0
LINE
  5
1C3
330
1A4
100
AcDbEntity
  8
0
 62
6
100
AcDbLine
 10
31.30859393225148
 20
-25.75206623952826
 30
0.0
 11
25.75206623952823
 21
-31.30859393225148
 31
0.0
  0
LWPOLYLINE
  5
1C4
330
1A4
100
AcDbEntity
  8
0
 62
6
100
AcDbPolyline
 90
4
 70
0
 10
11.0
 20
-45.49999999999999
 10
10.99999999999983
 20
-26.0000000000001
 42
-0.4142135623730966
 10
25.99999999999983
 20
-11.0
 10
45.49999999999999
 20
-11.0
  0
LWPOLYLINE
  5
1C5
330
1A4
100
AcDbEntity
  8
0
 62
6
100
AcDbPolyline
 90
2
 70
0
 10
6.0
 20
-40.49999999999999
 10
6.0
 20
-30.5
  0
LINE
  5
1C6
330
1A4
100
AcDbEntity
  8
0
 62
6
100
AcDbLine
 10
11.0
 20
-45.49999999999999
 30
0.0
 11
6.0
 21
-40.49999999999999
 31
0.0
  0
LINE
  5
1C7
330
1A4
100
AcDbEntity
  8
0
 62
6
100
AcDbLine
 10
10.99999999999988
 20
-30.5
 30
0.0
 11
6.0
 21
-30.5
 31
0.0
  0
LINE
  5
1C8
330
1A4
100
AcDbEntity
  8
0
 62
6
100
AcDbLine
 10
-13.36574669941308
 20
13.36574669941297
 30
0.0
 11
-16.90128060534584
 21
16.90128060534573
 31
0.0
  0
LINE
  5
1C9
330
1A4
100
AcDbEntity
  8
0
 62
6
100
AcDbLine
 10
-10.57173018335407
 20
15.98262873752014
 30
0.0
 11
-13.86845925885444
 21
19.74182777491506
 31
0.0
  0
LINE
  5
1CA
330
1A4
100
AcDbEntity
  8
0
 62
6
100
AcDbLine
 10
-7.612543597010186
 20
18.41117040703722
 30
0.0
 11
-10.6563507420538
 21
22.37793710849343
 31
0.0
  0
LWPOLYLINE
  5
1CB
330
1A4
100
AcDbEntity
  8
0
 62
6
100
AcDbPolyline
 90
2
 70
0
 10
30.5
 20
-6.0
 10
40.49999999999999
 20
-6.0
  0
LINE
  5
1CC
330
1A4
100
AcDbEntity
  8
0
 62
6
100
AcDbLine
 10
30.5
 20
-11.0
 30
0.0
 11
30.5
 21
-6.0
 31
0.0
  0
LINE
  5
1CD
330
1A4
100
AcDbEntity
  8
0
 62
6
100
AcDbLine
 10
45.49999999999999
 20
-11.0
 30
0.0
 11
40.49999999999999
 21
-6.0
 31
0.0
  0
LINE
  5
1CE
330
1A4
100
AcDbEntity
  8
0
 62
6
100
AcDbLine
 10
5.613019206642204
 20
26.04695265191026
 30
0.0
 11
3.699602044816741
 21
30.66635031446671
 31
0.0
  0
LINE
  5
1CF
330
1A4
100
AcDbEntity
  8
0
 62
6
100
AcDbLine
 10
2.12611162218843
 20
24.46705537966227
 30
0.0
 11
-0.0853318289065897
 21
28.95141908732575
 31
0.0
  0
LINE
  5
1D0
330
1A4
100
AcDbEntity
  8
0
 62
6
100
AcDbLine
 10
16.58721616205645
 20
29.37593890358897
 30
0.0
 11
15.61176455197579
 21
34.27986530560514
 31
0.0
  0
LINE
  5
1D1
330
1A4
100
AcDbEntity
  8
0
 62
6
100
AcDbLine
 10
12.85908586150248
 20
28.50666083791049
 30
0.0
 11
11.56499063598988
 21
33.33628996935586
 31
0.0
  0
LINE
  5
1D2
330
1A4
100
AcDbEntity
  8
0
 62
6
100
AcDbLine
 10
9.195791279764986
 20
27.39541257546364
 30
0.0
 11
7.58859395324913
 21
32.13006322293924
 31
0.0
  0
LINE
  5
1D3
330
1A4
100
AcDbEntity
  8
0
 62
6
100
AcDbLine
 10
24.17391694003652
 20
30.37474700945831
 30
0.0
 11
23.84690129388582
 21
35.36404162565136
 31
0.0
  0
LINE
  5
1D4
330
1A4
100
AcDbEntity
  8
0
 62
6
100
AcDbLine
 10
20.3642177551269
 20
29.99952439036789
 30
0.0
 11
19.71158679402663
 21
34.95674869723699
 31
0.0
  0
LINE
  5
1D5
330
1A4
100
AcDbEntity
  8
0
 62
6
100
AcDbLine
 10
40.49999999999999
 20
40.49999999999996
 30
0.0
 11
45.49999999999999
 21
45.49999999999999
 31
0.0
  0
LINE
  5
1D6
330
1A4
100
AcDbEntity
  8
0
 62
6
100
AcDbLine
 10
27.99999999999994
 20
30.5
 30
0.0
 11
27.99999999999994
 21
35.5
 31
0.0
  0
LWPOLYLINE
  5
1D7
330
1A4
100
AcDbEntity
  8
0
 62
6
100
AcDbPolyline
 90
4
 70
1
 10
-45.49999999999999
 20
-45.49999999999999
 10
45.49999999999999
 20
-45.49999999999999
 10
45.49999999999999
 20
45.49999999999999
 10
-45.49999999999999
 20
45.49999999999999
  0
LINE
  5
1D8
330
1A4
100
AcDbEntity
  8
0
 62
6
100
AcDbLine
 10
0.0
 20
1.5
 30
0.0
 11
0.0
 21
-1.5
 31
0.0
  0
LINE
  5
1D9
330
1A4
100
AcDbEntity
  8
0
 62
6
100
AcDbLine
 10
-1.5
 20
0.0
 30
0.0
 11
1.5
 21
0.0
 31
0.0
  0
ENDBLK
  5
1A6
330
1A4
100
AcDbEntity
  8
0
100
AcDbBlockEnd
  0
BLOCK
  5
1DB
330
1DA
100
AcDbEntity
  8
0
100
AcDbBlockBegin
  2
Den XANH
 70
2
 10
0.0
 20
0.0
 30
0.0
  3
Den XANH
  1

  0
CIRCLE
  5
1DD
330
1DA
100
AcDbEntity
  8
0
 62
7
100
AcDbCircle
 10
14.99995469494024
 20
14.99998362692713
 30
0.0
 40
15.0
  0
LINE
  5
1DE
330
1DA
100
AcDbEntity
  8
0
 62
7
100
AcDbLine
 10
-4.53050597571e-05
 20
44.99998362692713
 30
0.0
 11
29.99995469494024
 21
44.99998362692713
 31
0.0
  0
LINE
  5
1DF
330
1DA
100
AcDbEntity
  8
0
 62
7
100
AcDbLine
 10
29.99995469494024
 20
14.99998362692713
 30
0.0
 11
29.99995469494024
 21
44.99998362692713
 31
0.0
  0
LINE
  5
1E0
330
1DA
100
AcDbEntity
  8
0
 62
7
100
AcDbLine
 10
-4.53050597571e-05
 20
44.99998362692713
 30
0.0
 11
-4.53050597571e-05
 21
14.99998362692713
 31
0.0
  0
LWPOLYLINE
  5
1E1
330
1DA
100
AcDbEntity
  8
0
 62
7
100
AcDbPolyline
 90
4
 70
1
 10
1.999954694940242
 20
42.99998362692713
 10
27.99995469494025
 20
42.99998362692713
 10
27.99995469494025
 20
32.99998362692714
 10
1.999954694940242
 20
32.99998362692714
  0
CIRCLE
  5
1E2
330
1DA
100
AcDbEntity
  8
07
  6
Continuous
 62
5
370
5
 48
3.0
100
AcDbCircle
 10
14.99995469494024
 20
14.99998362692713
 30
0.0
 40
11.0
  0
LINE
  5
1E3
330
1DA
100
AcDbEntity
  8
07
  6
Continuous
 62
5
370
5
 48
3.0
100
AcDbLine
 10
22.77812928799226
 20
22.77815821997915
 30
0.0
 11
7.221780101888218
 21
7.221809033875111
 31
0.0
  0
ATTDEF
  5
1E4
330
1DA
100
AcDbEntity
  8
01
  6
Continuous
 62
2
370
5
100
AcDbText
 10
5.913620722195252
 20
35.96791798923368
 30
0.0
 40
2.400000000139697
  1
R - PHASE
  7
Arial-Black
 41
1.000000000291038
 72
1
 11
15.22630830800335
 21
35.96791798923368
 31
0.0
100
AcDbAttributeDefinition
  3
Ten San Pham
  2
T-SP
 70
0
 71
1
 72
0
 11
15.22630830800335
 21
35.96791798923368
 31
0.0
  0
LINE
  5
1E5
330
1DA
100
AcDbEntity
  8
07
  6
Continuous
 62
5
370
5
 48
3.0
100
AcDbLine
 10
7.221780101888221
 20
22.77815821997915
 30
0.0
 11
22.77812928799226
 21
7.221809033875111
 31
0.0
  0
HATCH
  5
1E6
330
1DA
100
AcDbEntity
  8
0
 62
5
100
AcDbHatch
 10
0.0
 20
0.0
 30
0.0
210
0.0
220
0.0
230
1.0
  2
SOLID
 70
1
 71
0
 91
2
 92
7
 72
1
 73
1
 93
4
 10
14.99995469494024
 20
14.99998362692713
 42
0.0
 10
22.77812928799226
 20
7.221809033875109
 42
0.198912367379658
 10
25.99995469494024
 20
14.99998362692713
 42
0.198912367379658
 10
22.77812928799226
 20
22.77815821997915
 42
0.0
 97
0
 92
7
 72
1
 73
1
 93
4
 10
14.99995469494024
 20
14.99998362692713
 42
0.0
 10
7.22178010188822
 20
22.77815821997915
 42
0.198912367379658
 10
3.999954694940242
 20
14.99998362692713
 42
0.198912367379658
 10
7.221780101888218
 20
7.221809033875111
 42
0.0
 97
0
 75
0
 76
1
 47
0.0525107572166409
 98
2
 10
18.9324140735632
 20
15.03356113590959
 10
10.16203061267177
 20
14.71849664825233
450
0
451
0
460
0.0
461
0.0
452
1
462
1.0
453
2
463
0
 63
5
421
255
463
1
 63
7
421
16777215
470
LINEAR
  0
ENDBLK
  5
1DC
330
1DA
100
AcDbEntity
  8
0
100
AcDbBlockEnd
  0
BLOCK
  5
1E8
330
1E7
100
AcDbEntity
  8
0
100
AcDbBlockBegin
  2
Den DO
 70
2
 10
0.0
 20
0.0
 30
0.0
  3
Den DO
  1

  0
CIRCLE
  5
1EA
330
1E7
100
AcDbEntity
  8
0
 62
7
100
AcDbCircle
 10
14.99995469492569
 20
14.99998362692713
 30
0.0
 40
15.0
  0
LINE
  5
1EB
330
1E7
100
AcDbEntity
  8
0
 62
7
100
AcDbLine
 10
-4.5305074309e-05
 20
44.99998362692713
 30
0.0
 11
29.99995469492569
 21
44.99998362692713
 31
0.0
  0
LINE
  5
1EC
330
1E7
100
AcDbEntity
  8
0
 62
7
100
AcDbLine
 10
29.99995469492569
 20
14.99998362692713
 30
0.0
 11
29.99995469492569
 21
44.99998362692713
 31
0.0
  0
LINE
  5
1ED
330
1E7
100
AcDbEntity
  8
0
 62
7
100
AcDbLine
 10
-4.5305074309e-05
 20
44.99998362692713
 30
0.0
 11
-4.5305074309e-05
 21
14.99998362692713
 31
0.0
  0
LWPOLYLINE
  5
1EE
330
1E7
100
AcDbEntity
  8
0
 62
7
100
AcDbPolyline
 90
4
 70
1
 10
1.999954694925691
 20
42.99998362692713
 10
27.99995469492569
 20
42.99998362692713
 10
27.99995469492569
 20
32.99998362692714
 10
1.999954694925691
 20
32.99998362692714
  0
CIRCLE
  5
1EF
330
1E7
100
AcDbEntity
  8
07
  6
Continuous
 62
1
370
5
 48
3.0
100
AcDbCircle
 10
14.99995469492569
 20
14.99998362692713
 30
0.0
 40
11.0
  0
LINE
  5
1F0
330
1E7
100
AcDbEntity
  8
07
  6
Continuous
 62
1
370
5
 48
3.0
100
AcDbLine
 10
22.77812928797771
 20
22.77815821997915
 30
0.0
 11
7.221780101873667
 21
7.22180903387511
 31
0.0
  0
ATTDEF
  5
1F1
330
1E7
100
AcDbEntity
  8
01
  6
Continuous
 62
2
370
5
100
AcDbText
 10
5.913620722180702
 20
35.96791798923368
 30
0.0
 40
2.400000000139697
  1
R - PHASE
  7
Arial-Black
 41
1.000000000291038
 72
1
 11
15.2263083079888
 21
35.96791798923368
 31
0.0
100
AcDbAttributeDefinition
  3
Ten San Pham
  2
T-SP
 70
0
 71
1
 72
0
 11
15.2263083079888
 21
35.96791798923368
 31
0.0
  0
LINE
  5
1F2
330
1E7
100
AcDbEntity
  8
07
  6
Continuous
 62
1
370
5
 48
3.0
100
AcDbLine
 10
7.221780101873664
 20
22.77815821997915
 30
0.0
 11
22.77812928797771
 21
7.22180903387511
 31
0.0
  0
HATCH
  5
1F3
330
1E7
100
AcDbEntity
  8
0
 62
1
100
AcDbHatch
 10
0.0
 20
0.0
 30
0.0
210
0.0
220
0.0
230
1.0
  2
SOLID
 70
1
 71
0
 91
2
 92
7
 72
1
 73
1
 93
4
 10
7.221780101873663
 20
7.221809033875108
 42
0.0
 10
14.99995469492568
 20
14.99998362692713
 42
0.0
 10
7.221780101873665
 20
22.77815821997915
 42
0.198912367379658
 10
3.999954694925689
 20
14.99998362692713
 42
0.198912367379658
 97
3
330
D598
330
D595
330
D596
 92
7
 72
1
 73
1
 93
4
 10
25.99995469492569
 20
14.99998362692713
 42
0.1989123673796581
 10
22.77812928797771
 20
22.77815821997915
 42
0.0
 10
14.99995469492569
 20
14.99998362692713
 42
0.0
 10
22.77812928797771
 20
7.221809033875105
 42
0.198912367379658
 97
3
330
D596
330
D598
330
D595
 75
0
 76
1
 47
0.0656445470910299
 98
2
 10
7.997749462102762
 20
14.8782926211432
 10
18.63348435022064
 20
15.46909361714745
450
0
451
0
460
0.0
461
0.0
452
1
462
1.0
453
2
463
0
 63
5
421
255
463
1
 63
7
421
16777215
470
LINEAR
  0
ENDBLK
  5
1E9
330
1E7
100
AcDbEntity
  8
0
100
AcDbBlockEnd
  0
BLOCK
  5
1F5
330
1F4
100
AcDbEntity
  8
0
100
AcDbBlockBegin
  2
Den VANG
 70
2
 10
0.0
 20
0.0
 30
0.0
  3
Den VANG
  1

  0
CIRCLE
  5
1F7
330
1F4
100
AcDbEntity
  8
0
 62
7
100
AcDbCircle
 10
14.99995469492569
 20
14.99998362692713
 30
0.0
 40
15.0
  0
LINE
  5
1F8
330
1F4
100
AcDbEntity
  8
0
 62
7
100
AcDbLine
 10
-4.5305074309e-05
 20
44.99998362692713
 30
0.0
 11
29.99995469492569
 21
44.99998362692713
 31
0.0
  0
LINE
  5
1F9
330
1F4
100
AcDbEntity
  8
0
 62
7
100
AcDbLine
 10
29.99995469492569
 20
14.99998362692713
 30
0.0
 11
29.99995469492569
 21
44.99998362692713
 31
0.0
  0
LINE
  5
1FA
330
1F4
100
AcDbEntity
  8
0
 62
7
100
AcDbLine
 10
-4.5305074309e-05
 20
44.99998362692713
 30
0.0
 11
-4.5305074309e-05
 21
14.99998362692713
 31
0.0
  0
LWPOLYLINE
  5
1FB
330
1F4
100
AcDbEntity
  8
0
 62
7
100
AcDbPolyline
 90
4
 70
1
 10
1.999954694925691
 20
42.99998362692713
 10
27.99995469492569
 20
42.99998362692713
 10
27.99995469492569
 20
32.99998362692714
 10
1.999954694925691
 20
32.99998362692714
  0
CIRCLE
  5
1FC
330
1F4
100
AcDbEntity
  8
07
  6
Continuous
 62
2
370
5
 48
3.0
100
AcDbCircle
 10
14.99995469492569
 20
14.99998362692713
 30
0.0
 40
11.0
  0
LINE
  5
1FD
330
1F4
100
AcDbEntity
  8
07
  6
Continuous
 62
2
370
5
 48
3.0
100
AcDbLine
 10
22.77812928797771
 20
22.77815821997915
 30
0.0
 11
7.221780101873667
 21
7.22180903387511
 31
0.0
  0
ATTDEF
  5
1FE
330
1F4
100
AcDbEntity
  8
01
  6
Continuous
 62
2
370
5
100
AcDbText
 10
5.913620722180702
 20
35.96791798923368
 30
0.0
 40
2.400000000139697
  1
R - PHASE
  7
Arial-Black
 41
1.000000000291038
 72
1
 11
15.2263083079888
 21
35.96791798923368
 31
0.0
100
AcDbAttributeDefinition
  3
Ten San Pham
  2
T-SP
 70
0
 71
1
 72
0
 11
15.2263083079888
 21
35.96791798923368
 31
0.0
  0
LINE
  5
1FF
330
1F4
100
AcDbEntity
  8
07
  6
Continuous
 62
2
370
5
 48
3.0
100
AcDbLine
 10
7.221780101873666
 20
22.77815821997915
 30
0.0
 11
22.77812928797771
 21
7.22180903387511
 31
0.0
  0
HATCH
  5
200
330
1F4
100
AcDbEntity
  8
0
 62
2
100
AcDbHatch
 10
0.0
 20
0.0
 30
0.0
210
0.0
220
0.0
230
1.0
  2
SOLID
 70
1
 71
0
 91
2
 92
7
 72
1
 73
1
 93
4
 10
22.77812928797771
 20
7.221809033875107
 42
0.198912367379658
 10
25.99995469492569
 20
14.99998362692713
 42
0.198912367379658
 10
22.77812928797771
 20
22.77815821997915
 42
0.0
 10
14.99995469492569
 20
14.99998362692713
 42
0.0
 97
3
330
D5A4
330
D5A5
330
D5A7
 92
7
 72
1
 73
1
 93
4
 10
7.221780101873662
 20
7.221809033875109
 42
0.0
 10
14.99995469492569
 20
14.99998362692713
 42
0.0
 10
7.221780101873665
 20
22.77815821997915
 42
0.198912367379658
 10
3.999954694925687
 20
14.99998362692713
 42
0.198912367379658
 97
3
330
D5A4
330
D5A5
330
D5A7
 75
0
 76
1
 47
0.0589378639461505
 98
2
 10
21.62975384444046
 20
14.44012329072172
 10
8.426035661991923
 20
15.02950197730397
450
0
451
0
460
0.0
461
0.0
452
1
462
1.0
453
2
463
0
 63
5
421
255
463
1
 63
7
421
16777215
470
LINEAR
  0
ENDBLK
  5
1F6
330
1F4
100
AcDbEntity
  8
0
100
AcDbBlockEnd
  0
BLOCK
  5
202
330
201
100
AcDbEntity
  8
0
100
AcDbBlockBegin
  2
HL003-2-3
 70
0
 10
0.0
 20
0.0
 30
0.0
  3
HL003-2-3
  1

  0
LINE
  5
204
330
201
100
AcDbEntity
  8
0
 62
1
100
AcDbLine
 10
0.0
 20
22.0
 30
0.0
 11
17.0
 21
22.0
 31
0.0
  0
LINE
  5
205
330
201
100
AcDbEntity
  8
0
 62
1
100
AcDbLine
 10
0.0
 20
20.0
 30
0.0
 11
15.0
 21
20.0
 31
0.0
  0
LINE
  5
206
330
201
100
AcDbEntity
  8
0
 62
1
100
AcDbLine
 10
17.0
 20
22.0
 30
0.0
 11
17.0
 21
3.0
 31
0.0
  0
LINE
  5
207
330
201
100
AcDbEntity
  8
0
 62
1
100
AcDbLine
 10
15.0
 20
20.0
 30
0.0
 11
15.0
 21
3.0
 31
0.0
  0
LINE
  5
208
330
201
100
AcDbEntity
  8
0
 62
1
100
AcDbLine
 10
0.0
 20
20.0
 30
0.0
 11
0.0
 21
22.0
 31
0.0
  0
LINE
  5
209
330
201
100
AcDbEntity
  8
0
 62
1
100
AcDbLine
 10
4.0
 20
20.0
 30
0.0
 11
4.0
 21
18.0
 31
0.0
  0
LINE
  5
20A
330
201
100
AcDbEntity
  8
0
 62
1
100
AcDbLine
 10
4.0
 20
18.0
 30
0.0
 11
0.0
 21
18.0
 31
0.0
  0
CIRCLE
  5
20B
330
201
100
AcDbEntity
  8
0
 62
1
100
AcDbCircle
 10
10.0
 20
16.0
 30
0.0
 40
3.0
  0
LINE
  5
20C
330
201
100
AcDbEntity
  8
0
 62
1
100
AcDbLine
 10
17.0
 20
3.0
 30
0.0
 11
8.0
 21
3.0
 31
0.0
  0
LINE
  5
20D
330
201
100
AcDbEntity
  8
0
 62
1
100
AcDbLine
 10
0.0
 20
10.0
 30
0.0
 11
0.0
 21
18.0
 31
0.0
  0
LINE
  5
20E
330
201
100
AcDbEntity
  8
0
 62
1
100
AcDbLine
 10
0.0
 20
10.0
 30
0.0
 11
8.0
 21
3.0
 31
0.0
  0
LINE
  5
20F
330
201
100
AcDbEntity
  8
0
 62
1
100
AcDbLine
 10
16.0
 20
3.0
 30
0.0
 11
16.0
 21
0.0
 31
0.0
  0
LINE
  5
210
330
201
100
AcDbEntity
  8
0
 62
1
100
AcDbLine
 10
16.0
 20
0.0
 30
0.0
 11
0.0
 21
0.0
 31
0.0
  0
LINE
  5
211
330
201
100
AcDbEntity
  8
0
 62
1
100
AcDbLine
 10
0.0
 20
0.0
 30
0.0
 11
0.0
 21
4.0
 31
0.0
  0
LINE
  5
212
330
201
100
AcDbEntity
  8
0
 62
1
100
AcDbLine
 10
0.0
 20
4.0
 30
0.0
 11
3.428571428579743
 21
7.0
 31
0.0
  0
CIRCLE
  5
213
330
201
100
AcDbEntity
  8
0
 62
1
100
AcDbCircle
 10
10.0
 20
16.0
 30
0.0
 40
3.0
  0
HATCH
  5
214
330
201
100
AcDbEntity
  8
0
 62
2
100
AcDbHatch
 10
0.0
 20
0.0
 30
0.0
210
0.0
220
0.0
230
1.0
  2
ANSI31
 70
0
 71
0
 91
1
 92
7
 72
0
 73
1
 93
4
 10
11.0
 20
10.0
 10
5.0
 20
10.0
 10
5.0
 20
0.0
 10
11.0
 20
0.0
 97
0
 75
0
 76
1
 52
0.0
 41
0.5
 77
0
 78
1
 53
45.0
 43
8435.407079138444
 44
86016.96644780628
 45
-1.122532015133643
 46
1.122532015133643
 79
0
 47
0.0298277246703574
 98
1
 10
8.80767606885638
 20
4.97684244980337
  0
LWPOLYLINE
  5
215
330
201
100
AcDbEntity
  8
0
 62
2
100
AcDbPolyline
 90
4
 70
1
 10
5.0
 20
10.0
 10
11.0
 20
10.0
 10
11.0
 20
0.0
 10
5.0
 20
0.0
  0
ENDBLK
  5
203
330
201
100
AcDbEntity
  8
0
100
AcDbBlockEnd
  0
BLOCK
  5
217
330
216
100
AcDbEntity
  8
0
100
AcDbBlockBegin
  2
HL035-1-3
 70
0
 10
0.0
 20
0.0
 30
0.0
  3
HL035-1-3
  1

  0
LINE
  5
219
330
216
100
AcDbEntity
  8
0
 62
1
100
AcDbLine
 10
0.0
 20
4.5
 30
0.0
 11
18.5
 21
4.5
 31
0.0
  0
LINE
  5
21A
330
216
100
AcDbEntity
  8
0
 62
1
100
AcDbLine
 10
18.5
 20
2.996138813934521
 30
0.0
 11
0.1521584951260593
 21
2.996138813934521
 31
0.0
  0
ARC
  5
21B
330
216
100
AcDbEntity
  8
0
 62
1
100
AcDbCircle
 10
0.0
 20
0.0
 30
0.0
 40
4.5
100
AcDbArc
 50
90.0
 51
138.1896851045266
  0
ARC
  5
21C
330
216
100
AcDbEntity
  8
0
 62
1
100
AcDbCircle
 10
0.0
 20
0.0
 30
0.0
 40
4.5
100
AcDbArc
 50
221.8103148954734
 51
13.43013203420052
  0
ARC
  5
21D
330
216
100
AcDbEntity
  8
0
 62
1
100
AcDbCircle
 10
0.0
 20
0.0
 30
0.0
 40
3.0
100
AcDbArc
 50
87.09273942268763
 51
90.0
  0
ARC
  5
21E
330
216
100
AcDbEntity
  8
0
 62
1
100
AcDbCircle
 10
0.0
 20
0.0
 30
0.0
 40
3.0
100
AcDbArc
 50
270.0
 51
13.43013203420052
  0
LINE
  5
21F
330
216
100
AcDbEntity
  8
0
 62
1
100
AcDbLine
 10
4.37694240026758
 20
1.045167558200773
 30
0.0
 11
2.917961600192938
 21
0.6967783721338492
 31
0.0
  0
LINE
  5
220
330
216
100
AcDbEntity
  8
0
 62
1
100
AcDbLine
 10
18.5
 20
2.996138813934521
 30
0.0
 11
18.5
 21
4.5
 31
0.0
  0
ARC
  5
221
330
216
100
AcDbEntity
  8
0
 62
1
100
AcDbCircle
 10
0.0
 20
0.0
 30
0.0
 40
3.0
100
AcDbArc
 50
270.0
 51
90.0
  0
LINE
  5
222
330
216
100
AcDbEntity
  8
0
 62
1
100
AcDbLine
 10
0.0
 20
3.0
 30
0.0
 11
-17.00000000001455
 21
3.0
 31
0.0
  0
LINE
  5
223
330
216
100
AcDbEntity
  8
0
 62
1
100
AcDbLine
 10
0.0
 20
-3.0
 30
0.0
 11
-17.00000000001455
 21
-3.0
 31
0.0
  0
LINE
  5
224
330
216
100
AcDbEntity
  8
0
 62
1
100
AcDbLine
 10
-17.00000000001455
 20
-3.0
 30
0.0
 11
-17.00000000001455
 21
3.0
 31
0.0
  0
ENDBLK
  5
218
330
216
100
AcDbEntity
  8
0
100
AcDbBlockEnd
  0
BLOCK
  5
226
330
225
100
AcDbEntity
  8
0
100
AcDbBlockBegin
  2
AB301-2-1
 70
0
 10
0.0
 20
0.0
 30
0.0
  3
AB301-2-1
  1

  0
LWPOLYLINE
  5
228
330
225
100
AcDbEntity
  8
0
  6
Continuous
 62
1
100
AcDbPolyline
 90
8
 70
1
 10
-1.45519e-11
 20
25.00000000000728
 10
-1.45519e-11
 20
25.00000000000728
 42
-0.4142135623730951
 10
14.99999999998545
 20
10.00000000000727
 10
14.99999999998545
 20
-80.49999999999272
 42
-0.4142135623730951
 10
-1.45519e-11
 20
-95.49999999999272
 10
-1.45519e-11
 20
-95.49999999999272
 42
-0.4142135623730951
 10
-15.00000000001455
 20
-80.49999999999272
 10
-15.00000000001455
 20
10.00000000000727
 42
-0.4142135623730951
  0
LWPOLYLINE
  5
229
330
225
100
AcDbEntity
  8
0
  6
Continuous
 62
1
100
AcDbPolyline
 90
6
 70
1
 10
-1.45519e-11
 20
10.00000000000727
 42
-0.4142135623730951
 10
9.999999999985448
 20
7.276e-12
 10
9.999999999985448
 20
-80.49999999999272
 42
-0.4142135623730951
 10
-1.45519e-11
 20
-90.49999999999272
 42
-0.4142135623730951
 10
-10.00000000001455
 20
-80.49999999999272
 10
-10.00000000001455
 20
7.276e-12
 42
-0.4142135623730951
  0
HATCH
  5
22A
330
225
100
AcDbEntity
  8
0
  6
Continuous
 62
1
100
AcDbHatch
 10
0.0
 20
0.0
 30
0.0
210
0.0
220
0.0
230
1.0
  2
ACAD_ISO09W100
 70
0
 71
0
 91
1
 92
7
 72
1
 73
1
 93
5
 10
-4.08737554690669
 20
-88.5183141082494
 42
0.1184039893890922
 10
-1.45519e-11
 20
-89.49999999999272
 42
0.1184039893890922
 10
4.087375546877586
 20
-88.5183141082494
 42
0.0
 10
6.999999999985446
 20
-71.99999999999272
 42
0.0
 10
-7.000000000014551
 20
-71.99999999999272
 42
0.0
 97
0
 75
1
 76
1
 52
0.0
 41
0.2
 77
0
 78
1
 53
0.0
 43
-368.0181415297993
 44
398.3813967279711
 45
0.0
 46
1.0
 79
6
 49
4.799999999999998
 49
-0.6000000000000001
 49
1.199999999999999
 49
-0.6000000000000001
 49
1.199999999999999
 49
-0.6000000000000001
 47
0.1010447066433967
 98
1
 10
-1.464316444500582
 20
-79.25328255711065
  0
LWPOLYLINE
  5
22B
330
225
100
AcDbEntity
  8
0
  6
Continuous
 62
1
100
AcDbPolyline
 90
7
 70
1
 10
8.999999999985448
 20
-72.49999999999272
 10
8.999999999985448
 20
-80.49999999999272
 42
-0.4142135623730951
 10
-1.45519e-11
 20
-89.49999999999272
 42
-0.4142135623730951
 10
-9.00000000001455
 20
-80.49999999999272
 10
-9.00000000001455
 20
-72.49999999999272
 42
-0.4142135623730951
 10
-7.000000000014551
 20
-70.49999999999272
 10
6.999999999985448
 20
-70.49999999999272
 42
-0.4142135623730951
  0
LINE
  5
22C
330
225
100
AcDbEntity
  8
0
  6
Continuous
 62
1
100
AcDbLine
 10
-10.00000000001455
 20
-50.49999999999272
 30
0.0
 11
9.999999999985448
 21
-50.49999999999272
 31
0.0
  0
LINE
  5
22D
330
225
100
AcDbEntity
  8
0
  6
Continuous
 62
1
100
AcDbLine
 10
-7.000000000014551
 20
-71.99999999999272
 30
0.0
 11
6.999999999985448
 21
-71.99999999999272
 31
0.0
  0
LINE
  5
22E
330
225
100
AcDbEntity
  8
0
  6
Continuous
 62
1
100
AcDbLine
 10
-7.000000000014551
 20
-71.99999999999272
 30
0.0
 11
-4.087375546907423
 21
-88.51831410824525
 31
0.0
  0
LINE
  5
22F
330
225
100
AcDbEntity
  8
0
  6
Continuous
 62
1
100
AcDbLine
 10
6.999999999985448
 20
-71.99999999999272
 30
0.0
 11
4.08737554687832
 21
-88.51831410824525
 31
0.0
  0
CIRCLE
  5
230
330
225
100
AcDbEntity
  8
0
  6
Continuous
 62
1
100
AcDbCircle
 10
-1.45519e-11
 20
-60.49999999999272
 30
0.0
 40
8.0
  0
LWPOLYLINE
  5
231
330
225
100
AcDbEntity
  8
0
  6
Continuous
 62
1
100
AcDbPolyline
 90
4
 70
1
 10
-1.000000000014551
 20
-55.49999999999272
 10
0.999999999985448
 20
-55.49999999999272
 10
0.999999999985448
 20
-65.49999999999272
 10
-1.000000000014551
 20
-65.49999999999272
  0
LWPOLYLINE
  5
232
330
225
100
AcDbEntity
  8
0
  6
Continuous
 62
1
100
AcDbPolyline
 90
8
 70
0
 10
-15.00000000001455
 20
-12.49999999999272
 10
-57.50000000001455
 20
-12.49999999999272
 42
-0.4142135623730951
 10
-65.00000000001455
 20
-4.999999999992724
 10
-65.00000000001455
 20
5.000000000007275
 42
-0.4142135623730951
 10
-57.50000000001455
 20
12.50000000000727
 10
-30.73832970146032
 20
12.50000000000727
 42
0.4142135623730951
 10
-24.73832970146032
 20
18.50000000000727
 10
-24.73832970146032
 20
18.73832970144576
  0
LWPOLYLINE
  5
233
330
225
100
AcDbEntity
  8
0
  6
Continuous
 62
1
100
AcDbPolyline
 90
5
 70
0
 10
-24.73832970146032
 20
18.73832970144576
 42
-0.1989123673796609
 10
-22.98097038858395
 20
22.98097038856941
 10
-22.98097038858395
 20
22.98097038856941
 42
-0.4142135623730951
 10
-14.49568901433667
 20
22.98097038856941
 10
-11.33688703729422
 20
19.82216841151967
  0
LWPOLYLINE
  5
234
330
225
100
AcDbEntity
  8
0
  6
Continuous
 62
1
100
AcDbPolyline
 90
5
 70
0
 10
14.99999999998545
 20
-6.51471862575272
 10
22.98097038855485
 20
-14.49568901431485
 42
-0.4142135623730951
 10
22.98097038855485
 20
-22.98097038855485
 10
22.98097038855485
 20
-22.98097038855485
 42
-0.381560762960909
 10
14.99999999998545
 20
-23.43139810529828
 42
-0.381560762960909
  0
LWPOLYLINE
  5
235
330
225
100
AcDbEntity
  8
0
  6
Continuous
 62
2
100
AcDbPolyline
 90
4
 70
1
 10
-12.00000000001455
 20
13.25000000000727
 10
11.99999999998545
 20
13.25000000000727
 10
11.99999999998545
 20
-83.74999999999272
 10
-12.00000000001455
 20
-83.74999999999272
  0
CIRCLE
  5
236
330
225
100
AcDbEntity
  8
0
  6
Continuous
 62
1
100
AcDbCircle
 10
-18.73832970146031
 20
18.73832970144576
 30
0.0
 40
2.5
  0
CIRCLE
  5
237
330
225
100
AcDbEntity
  8
0
  6
Continuous
 62
1
100
AcDbCircle
 10
18.73832970143121
 20
-18.73832970143121
 30
0.0
 40
2.5
  0
ENDBLK
  5
227
330
225
100
AcDbEntity
  8
0
100
AcDbBlockEnd
  0
BLOCK
  5
239
330
238
100
AcDbEntity
  8
0
100
AcDbBlockBegin
  2
Von-nho
 70
2
 10
0.0
 20
0.0
 30
0.0
  3
Von-nho
  1

  0
LINE
  5
23B
330
238
100
AcDbEntity
  8
0
 62
6
100
AcDbLine
 10
-22.5
 20
36.50000000000728
 30
0.0
 11
22.50000000001455
 21
36.49999999999272
 31
0.0
  0
ARC
  5
23C
330
238
100
AcDbEntity
  8
0
 62
6
100
AcDbCircle
 10
22.50000000001455
 20
34.49999999999273
 30
0.0
 40
2.0
100
AcDbArc
 50
0.0
 51
90.0
  0
LINE
  5
23D
330
238
100
AcDbEntity
  8
0
 62
6
100
AcDbLine
 10
24.50000000001455
 20
34.49999999999273
 30
0.0
 11
24.5
 21
-22.50000000000728
 31
0.0
  0
ARC
  5
23E
330
238
100
AcDbEntity
  8
0
 62
6
100
AcDbCircle
 10
22.5
 20
-22.50000000000728
 30
0.0
 40
2.0
100
AcDbArc
 50
270.0
 51
0.0
  0
LINE
  5
23F
330
238
100
AcDbEntity
  8
0
 62
6
100
AcDbLine
 10
22.5
 20
-24.50000000000728
 30
0.0
 11
-22.5
 21
-24.50000000000728
 31
0.0
  0
ARC
  5
240
330
238
100
AcDbEntity
  8
0
 62
6
100
AcDbCircle
 10
-22.5
 20
-22.50000000000728
 30
0.0
 40
2.0
100
AcDbArc
 50
180.0
 51
270.0
  0
LINE
  5
241
330
238
100
AcDbEntity
  8
0
 62
6
100
AcDbLine
 10
-24.5
 20
-22.50000000000728
 30
0.0
 11
-24.5
 21
34.50000000000728
 31
0.0
  0
ARC
  5
242
330
238
100
AcDbEntity
  8
0
 62
6
100
AcDbCircle
 10
-22.5
 20
34.50000000000728
 30
0.0
 40
2.0
100
AcDbArc
 50
90.0
 51
180.0
  0
LINE
  5
243
330
238
100
AcDbEntity
  8
0
 62
6
100
AcDbLine
 10
21.5
 20
25.5
 30
0.0
 11
-21.5
 21
25.5
 31
0.0
  0
ARC
  5
244
330
238
100
AcDbEntity
  8
0
 62
6
100
AcDbCircle
 10
21.5
 20
27.5
 30
0.0
 40
2.0
100
AcDbArc
 50
270.0
 51
0.0
  0
ARC
  5
245
330
238
100
AcDbEntity
  8
0
 62
6
100
AcDbCircle
 10
-21.5
 20
27.5
 30
0.0
 40
2.0
100
AcDbArc
 50
180.0
 51
270.0
  0
LINE
  5
246
330
238
100
AcDbEntity
  8
0
 62
6
100
AcDbLine
 10
-23.5
 20
27.5
 30
0.0
 11
-23.5
 21
33.50000000000728
 31
0.0
  0
ARC
  5
247
330
238
100
AcDbEntity
  8
0
 62
6
100
AcDbCircle
 10
-21.5
 20
33.50000000000728
 30
0.0
 40
2.0
100
AcDbArc
 50
90.0
 51
180.0
  0
LINE
  5
248
330
238
100
AcDbEntity
  8
0
 62
6
100
AcDbLine
 10
-21.5
 20
35.50000000000728
 30
0.0
 11
21.49999999998545
 21
35.5
 31
0.0
  0
ARC
  5
249
330
238
100
AcDbEntity
  8
0
 62
6
100
AcDbCircle
 10
21.49999999998545
 20
33.5
 30
0.0
 40
2.0
100
AcDbArc
 50
0.0
 51
90.0
  0
LINE
  5
24A
330
238
100
AcDbEntity
  8
0
 62
6
100
AcDbLine
 10
23.49999999998545
 20
33.5
 30
0.0
 11
23.5
 21
27.50000000000728
 31
0.0
  0
LINE
  5
24B
330
238
100
AcDbEntity
  8
0
 62
6
100
AcDbLine
 10
23.5
 20
21.5
 30
0.0
 11
23.5
 21
-21.5
 31
0.0
  0
LINE
  5
24C
330
238
100
AcDbEntity
  8
0
 62
6
100
AcDbLine
 10
21.5
 20
-23.5
 30
0.0
 11
-21.50000000001455
 21
-23.5
 31
0.0
  0
ARC
  5
24D
330
238
100
AcDbEntity
  8
0
 62
6
100
AcDbCircle
 10
21.5
 20
-21.5
 30
0.0
 40
2.0
100
AcDbArc
 50
270.0
 51
0.0
  0
LINE
  5
24E
330
238
100
AcDbEntity
  8
0
 62
6
100
AcDbLine
 10
-23.50000000001455
 20
-21.5
 30
0.0
 11
-23.49999999998545
 21
21.5
 31
0.0
  0
ARC
  5
24F
330
238
100
AcDbEntity
  8
0
 62
6
100
AcDbCircle
 10
-21.50000000001455
 20
-21.5
 30
0.0
 40
2.0
100
AcDbArc
 50
180.0
 51
270.0
  0
ARC
  5
250
330
238
100
AcDbEntity
  8
0
 62
6
100
AcDbCircle
 10
-21.49999999998545
 20
21.5
 30
0.0
 40
2.0
100
AcDbArc
 50
90.0
 51
180.0
  0
LINE
  5
251
330
238
100
AcDbEntity
  8
0
 62
6
100
AcDbLine
 10
-21.49999999998545
 20
23.5
 30
0.0
 11
21.5
 21
23.5
 31
0.0
  0
ARC
  5
252
330
238
100
AcDbEntity
  8
0
 62
6
100
AcDbCircle
 10
21.5
 20
21.5
 30
0.0
 40
2.0
100
AcDbArc
 50
0.0
 51
90.0
  0
CIRCLE
  5
253
330
238
100
AcDbEntity
  8
0
 62
6
100
AcDbCircle
 10
-18.0
 20
18.0
 30
0.0
 40
2.0
  0
CIRCLE
  5
254
330
238
100
AcDbEntity
  8
0
 62
6
100
AcDbCircle
 10
18.0
 20
18.0
 30
0.0
 40
2.0
  0
CIRCLE
  5
255
330
238
100
AcDbEntity
  8
0
 62
6
100
AcDbCircle
 10
18.0
 20
-18.0
 30
0.0
 40
2.0
  0
CIRCLE
  5
256
330
238
100
AcDbEntity
  8
0
 62
6
100
AcDbCircle
 10
-18.0
 20
-18.0
 30
0.0
 40
2.0
  0
MTEXT
  5
257
330
238
100
AcDbEntity
  8
0
 62
6
100
AcDbMText
 10
0.0
 20
30.5
 30
0.0
 40
4.0
 41
47.0
 46
9.999999999999277
 71
5
 72
5
  1
{\fTahoma|b0|i0|c0|p34;VOLTMETER}
  0
CIRCLE
  5
258
330
238
100
AcDbEntity
  8
0
 62
6
100
AcDbCircle
 10
0.0
 20
0.0
 30
0.0
 40
3.5
  0
CIRCLE
  5
259
330
238
100
AcDbEntity
  8
0
 62
2
100
AcDbCircle
 10
0.0
 20
0.0
 30
0.0
 40
5.0
  0
CIRCLE
  5
25A
330
238
100
AcDbEntity
  8
0
 62
2
100
AcDbCircle
 10
-18.0
 20
18.0
 30
0.0
 40
3.0
  0
CIRCLE
  5
25B
330
238
100
AcDbEntity
  8
0
 62
2
100
AcDbCircle
 10
18.0
 20
18.0
 30
0.0
 40
3.0
  0
CIRCLE
  5
25C
330
238
100
AcDbEntity
  8
0
 62
2
100
AcDbCircle
 10
18.0
 20
-18.0
 30
0.0
 40
3.0
  0
CIRCLE
  5
25D
330
238
100
AcDbEntity
  8
0
 62
2
100
AcDbCircle
 10
-18.0
 20
-18.0
 30
0.0
 40
3.0
  0
ARC
  5
25E
330
238
100
AcDbEntity
  8
0
 62
6
100
AcDbCircle
 10
0.0
 20
0.0
 30
0.0
 40
14.0
100
AcDbArc
 50
92.83896606351159
 51
249.0882847866541
  0
LWPOLYLINE
  5
25F
330
238
100
AcDbEntity
  8
0
 62
6
100
AcDbPolyline
 90
7
 70
0
 10
5.5
 20
0.0
 10
0.2364216498244787
 20
15.31222792777407
 42
0.7136827697305395
 10
-0.2364216498244787
 20
15.31222792777407
 10
-5.5
 20
0.0
 10
-4.5
 20
-24.0
 10
4.5
 20
-24.0
 10
5.5
 20
0.0
  0
ARC
  5
260
330
238
100
AcDbEntity
  8
0
 62
6
100
AcDbCircle
 10
0.0
 20
0.0
 30
0.0
 40
14.0
100
AcDbArc
 50
290.911715213346
 51
87.1610339364884
  0
CIRCLE
  5
261
330
238
100
AcDbEntity
  8
0
 62
6
100
AcDbCircle
 10
0.0
 20
-14.0
 30
0.0
 40
2.5
  0
LINE
  5
262
330
238
100
AcDbEntity
  8
0
 62
6
100
AcDbLine
 10
0.1380000000062864
 20
-13.15200000000186
 30
0.0
 11
-0.1380000000062864
 21
-13.15200000000186
 31
0.0
  0
LINE
  5
263
330
238
100
AcDbEntity
  8
0
 62
6
100
AcDbLine
 10
0.8479999999981374
 20
-13.86208000000624
 30
0.0
 11
0.1380000000062864
 21
-13.86208000000624
 31
0.0
  0
LINE
  5
264
330
238
100
AcDbEntity
  8
0
 62
6
100
AcDbLine
 10
0.8479999999981374
 20
-14.13796000000729
 30
0.0
 11
0.8479999999981374
 21
-13.86208000000624
 31
0.0
  0
LINE
  5
265
330
238
100
AcDbEntity
  8
0
 62
6
100
AcDbLine
 10
0.1380000000062864
 20
-14.13796000000729
 30
0.0
 11
0.8479999999981374
 21
-14.13796000000729
 31
0.0
  0
LINE
  5
266
330
238
100
AcDbEntity
  8
0
 62
6
100
AcDbLine
 10
0.1380000000062864
 20
-14.84803999999712
 30
0.0
 11
0.1380000000062864
 21
-14.13796000000729
 31
0.0
  0
LINE
  5
267
330
238
100
AcDbEntity
  8
0
 62
6
100
AcDbLine
 10
-0.1380000000062864
 20
-14.84803999999712
 30
0.0
 11
0.1380000000062864
 21
-14.84803999999712
 31
0.0
  0
LINE
  5
268
330
238
100
AcDbEntity
  8
0
 62
6
100
AcDbLine
 10
-0.1380000000062864
 20
-14.13796000000729
 30
0.0
 11
-0.1380000000062864
 21
-14.84803999999712
 31
0.0
  0
LINE
  5
269
330
238
100
AcDbEntity
  8
0
 62
6
100
AcDbLine
 10
-0.8480399999971268
 20
-14.13796000000729
 30
0.0
 11
-0.1380000000062864
 21
-14.13796000000729
 31
0.0
  0
LINE
  5
26A
330
238
100
AcDbEntity
  8
0
 62
6
100
AcDbLine
 10
-0.8480399999971268
 20
-13.86208000000624
 30
0.0
 11
-0.8480399999971268
 21
-14.13796000000729
 31
0.0
  0
LINE
  5
26B
330
238
100
AcDbEntity
  8
0
 62
6
100
AcDbLine
 10
-0.1380000000062864
 20
-13.86208000000624
 30
0.0
 11
-0.8480399999971268
 21
-13.86208000000624
 31
0.0
  0
LINE
  5
26C
330
238
100
AcDbEntity
  8
0
 62
6
100
AcDbLine
 10
-0.1380000000062864
 20
-13.15200000000186
 30
0.0
 11
-0.1380000000062864
 21
-13.86208000000624
 31
0.0
  0
LINE
  5
26D
330
238
100
AcDbEntity
  8
0
 62
6
100
AcDbLine
 10
0.1380000000062864
 20
-13.86208000000624
 30
0.0
 11
0.1380000000062864
 21
-13.15200000000186
 31
0.0
  0
CIRCLE
  5
26E
330
238
100
AcDbEntity
  8
0
 62
6
100
AcDbCircle
 10
0.0
 20
-14.0
 30
0.0
 40
1.75
  0
ATTDEF
  5
26F
330
238
100
AcDbEntity
  8
0
 62
6
100
AcDbText
 10
9.184604398495386
 20
10.72792206135636
 30
0.0
 40
4.0
  1
RN
  7
Tahoma (Input Text)
 72
1
 11
12.72792206135636
 21
12.72792206135636
 31
0.0
100
AcDbAttributeDefinition
  3
Ten vi tri chuyen doi
  2
RN
 70
0
 74
2
 71
1
 72
0
 11
12.72792206135636
 21
12.72792206135636
 31
0.0
  0
ATTDEF
  5
270
330
238
100
AcDbEntity
  8
0
 62
6
100
AcDbText
 10
14.63129617192747
 20
-2.0
 30
0.0
 40
4.0
  1
SN
  7
Tahoma (Input Text)
 72
1
 11
18.0
 21
0.0
 31
0.0
100
AcDbAttributeDefinition
  3
Ten vi tri chuyen doi
  2
SN
 70
0
 74
2
 71
1
 72
0
 11
18.0
 21
0.0
 31
0.0
  0
ATTDEF
  5
271
330
238
100
AcDbEntity
  8
0
 62
6
100
AcDbText
 10
9.286686332679402
 20
-14.72792206135636
 30
0.0
 40
4.0
  1
TN
  7
Tahoma (Input Text)
 72
1
 11
12.72792206135636
 21
-12.72792206135636
 31
0.0
100
AcDbAttributeDefinition
  3
Ten vi tri chuyen doi
  2
TN
 70
0
 74
2
 71
1
 72
0
 11
12.72792206135636
 21
-12.72792206135636
 31
0.0
  0
ATTDEF
  5
272
330
238
100
AcDbEntity
  8
0
 62
6
100
AcDbText
 10
-1.946272666218939
 20
16.0
 30
0.0
 40
4.0
  1
O
  7
Tahoma (Input Text)
 72
1
 11
0.0
 21
18.0
 31
0.0
100
AcDbAttributeDefinition
  3
Ten vi tri chuyen doi
  2
O
 70
0
 74
2
 71
1
 72
0
 11
0.0
 21
18.0
 31
0.0
  0
ATTDEF
  5
273
330
238
100
AcDbEntity
  8
0
 62
6
100
AcDbText
 10
-21.14036265950302
 20
-2.0
 30
0.0
 40
4.0
  1
ST
  7
Tahoma (Input Text)
 72
1
 11
-18.0
 21
0.0
 31
0.0
100
AcDbAttributeDefinition
  3
Ten vi tri chuyen doi
  2
ST
 70
0
 74
2
 71
1
 72
0
 11
-18.0
 21
0.0
 31
0.0
  0
ATTDEF
  5
274
330
238
100
AcDbEntity
  8
0
 62
6
100
AcDbText
 10
-16.08453723932816
 20
-14.72792206135636
 30
0.0
 40
4.0
  1
TR
  7
Tahoma (Input Text)
 72
1
 11
-12.72792206135636
 21
-12.72792206135636
 31
0.0
100
AcDbAttributeDefinition
  3
Ten vi tri chuyen doi
  2
TR
 70
0
 74
2
 71
1
 72
0
 11
-12.72792206135636
 21
-12.72792206135636
 31
0.0
  0
ATTDEF
  5
275
330
238
100
AcDbEntity
  8
0
 62
6
100
AcDbText
 10
-15.96768028835435
 20
10.72792206135636
 30
0.0
 40
4.0
  1
RS
  7
Tahoma (Input Text)
 72
1
 11
-12.72792206135636
 21
12.72792206135636
 31
0.0
100
AcDbAttributeDefinition
  3
Ten vi tri chuyen doi
  2
RS
 70
0
 74
2
 71
1
 72
0
 11
-12.72792206135636
 21
12.72792206135636
 31
0.0
  0
ENDBLK
  5
23A
330
238
100
AcDbEntity
  8
0
100
AcDbBlockEnd
  0
BLOCK
  5
280
330
27F
100
AcDbEntity
  8
0
100
AcDbBlockBegin
  2
_ArchTick
 70
0
 10
0.0
 20
0.0
 30
0.0
  3
_ArchTick
  1

  0
LWPOLYLINE
  5
282
330
27F
100
AcDbEntity
  8
0
 62
0
100
AcDbPolyline
 90
2
 70
0
 43
0.15
 10
-0.5
 20
-0.5
 10
0.5
 20
0.5
  0
ENDBLK
  5
281
330
27F
100
AcDbEntity
  8
0
100
AcDbBlockEnd
  0
BLOCK
  5
284
330
283
100
AcDbEntity
  8
0
100
AcDbBlockBegin
  2
_Open30
 70
0
 10
0.0
 20
0.0
 30
0.0
  3
_Open30
  1

  0
LINE
  5
286
330
283
100
AcDbEntity
  8
0
  6
ByBlock
 62
0
370
-2
100
AcDbLine
 10
-1.0
 20
0.26794919
 30
0.0
 11
0.0
 21
0.0
 31
0.0
  0
LINE
  5
287
330
283
100
AcDbEntity
  8
0
  6
ByBlock
 62
0
370
-2
100
AcDbLine
 10
0.0
 20
0.0
 30
0.0
 11
-1.0
 21
-0.26794919
 31
0.0
  0
LINE
  5
288
330
283
100
AcDbEntity
  8
0
  6
ByBlock
 62
0
370
-2
100
AcDbLine
 10
0.0
 20
0.0
 30
0.0
 11
-1.0
 21
0.0
 31
0.0
  0
ENDBLK
  5
285
330
283
100
AcDbEntity
  8
0
100
AcDbBlockEnd
  0
BLOCK
  5
2A6
330
2A5
100
AcDbEntity
  8
0
100
AcDbBlockBegin
  2
*D1
 70
1
 10
0.0
 20
0.0
 30
0.0
  3
*D1
  1

  0
LINE
  5
2A8
330
2A5
100
AcDbEntity
  8
0
 62
5
370
9
 48
3.0
440
16777216
100
AcDbLine
 10
435.6899791144533
 20
1765.533406267059
 30
0.0
 11
435.6899791144533
 21
1921.18121233676
 31
0.0
  0
LINE
  5
2A9
330
2A5
100
AcDbEntity
  8
0
 62
5
370
9
 48
3.0
440
16777216
100
AcDbLine
 10
1185.6899791144679
 20
1765.533406267059
 30
0.0
 11
1185.6899791144679
 21
1921.18121233676
 31
0.0
  0
LINE
  5
2AA
330
2A5
100
AcDbEntity
  8
0
 62
5
370
9
 48
3.0
440
16777216
100
AcDbLine
 10
435.6899791144533
 20
1911.18121233676
 30
0.0
 11
1185.6899791144679
 21
1911.18121233676
 31
0.0
  0
LINE
  5
2AB
330
2A5
100
AcDbEntity
  8
0
  6
ByBlock
 62
0
370
-2
100
AcDbLine
 10
439.6899791144533
 20
1915.18121233676
 30
0.0
 11
431.6899791144533
 21
1907.18121233676
 31
0.0
  0
LINE
  5
2AC
330
2A5
100
AcDbEntity
  8
0
  6
ByBlock
 62
0
370
-2
100
AcDbLine
 10
1181.6899791144679
 20
1907.18121233676
 30
0.0
 11
1189.6899791144679
 21
1915.18121233676
 31
0.0
  0
MTEXT
  5
2AD
330
2A5
100
AcDbEntity
  8
0
 62
3
 48
3.0
440
16777216
100
AcDbMText
 10
810.6899791144679
 20
1933.945537029802
 30
0.0
 40
25.0
 41
0.0
 46
0.0
 71
5
  1
750
  0
POINT
  5
2AE
330
2A5
100
AcDbEntity
  8
Defpoints
 62
0
 48
3.0
440
16777216
100
AcDbPoint
 10
435.6899791144533
 20
1750.533406267059
 30
0.0
  0
POINT
  5
2AF
330
2A5
100
AcDbEntity
  8
Defpoints
 62
0
 48
3.0
440
16777216
100
AcDbPoint
 10
1185.6899791144679
 20
1750.533406267059
 30
0.0
  0
POINT
  5
2B0
330
2A5
100
AcDbEntity
  8
Defpoints
 62
0
 48
3.0
440
16777216
100
AcDbPoint
 10
1185.6899791144679
 20
1911.18121233676
 30
0.0
  0
ENDBLK
  5
2A7
330
2A5
100
AcDbEntity
  8
0
100
AcDbBlockEnd
  0
BLOCK
  5
2B2
330
2B1
100
AcDbEntity
  8
0
100
AcDbBlockBegin
  2
*D2
 70
1
 10
0.0
 20
0.0
 30
0.0
  3
*D2
  1

  0
LINE
  5
2B4
330
2B1
100
AcDbEntity
  8
0
 62
5
370
9
 48
3.0
440
16777216
100
AcDbLine
 10
420.6899791144242
 20
1750.53340626707
 30
0.0
 11
359.7882892788184
 21
1750.53340626707
 31
0.0
  0
LINE
  5
2B5
330
2B1
100
AcDbEntity
  8
0
 62
5
370
9
 48
3.0
440
16777216
100
AcDbLine
 10
420.6899791144242
 20
950.53340626707
 30
0.0
 11
359.7882892788184
 21
950.53340626707
 31
0.0
  0
LINE
  5
2B6
330
2B1
100
AcDbEntity
  8
0
 62
5
370
9
 48
3.0
440
16777216
100
AcDbLine
 10
369.7882892788184
 20
1750.53340626707
 30
0.0
 11
369.7882892788184
 21
950.53340626707
 31
0.0
  0
LINE
  5
2B7
330
2B1
100
AcDbEntity
  8
0
  6
ByBlock
 62
0
370
-2
100
AcDbLine
 10
373.7882892788184
 20
1746.53340626707
 30
0.0
 11
365.7882892788184
 21
1754.53340626707
 31
0.0
  0
LINE
  5
2B8
330
2B1
100
AcDbEntity
  8
0
  6
ByBlock
 62
0
370
-2
100
AcDbLine
 10
365.7882892788184
 20
954.53340626707
 30
0.0
 11
373.7882892788184
 21
946.53340626707
 31
0.0
  0
MTEXT
  5
2B9
330
2B1
100
AcDbEntity
  8
0
 62
3
 48
3.0
440
16777216
100
AcDbMText
 10
347.0239645857655
 20
1350.5334062670918
 30
0.0
 40
25.0
 41
0.0
 46
0.0
 71
5
  1
800
 11
1e-16
 21
1.0
 31
0.0
  0
POINT
  5
2BA
330
2B1
100
AcDbEntity
  8
Defpoints
 62
0
 48
3.0
440
16777216
100
AcDbPoint
 10
435.6899791144242
 20
1750.53340626707
 30
0.0
  0
POINT
  5
2BB
330
2B1
100
AcDbEntity
  8
Defpoints
 62
0
 48
3.0
440
16777216
100
AcDbPoint
 10
435.6899791144242
 20
950.53340626707
 30
0.0
  0
POINT
  5
2BC
330
2B1
100
AcDbEntity
  8
Defpoints
 62
0
 48
3.0
440
16777216
100
AcDbPoint
 10
369.7882892788184
 20
950.53340626707
 30
0.0
  0
ENDBLK
  5
2B3
330
2B1
100
AcDbEntity
  8
0
100
AcDbBlockEnd
  0
BLOCK
  5
2BE
330
2BD
100
AcDbEntity
  8
0
100
AcDbBlockBegin
  2
*D3
 70
1
 10
0.0
 20
0.0
 30
0.0
  3
*D3
  1

  0
LINE
  5
2C0
330
2BD
100
AcDbEntity
  8
0
 62
5
370
9
 48
3.0
440
16777216
100
AcDbLine
 10
2417.5757152800215
 20
1765.533406267059
 30
0.0
 11
2417.5757152800215
 21
1905.8591438051117
 31
0.0
  0
LINE
  5
2C1
330
2BD
100
AcDbEntity
  8
0
 62
5
370
9
 48
3.0
440
16777216
100
AcDbLine
 10
2587.575715280036
 20
1764.533406267059
 30
0.0
 11
2587.575715280036
 21
1905.8591438051117
 31
0.0
  0
LINE
  5
2C2
330
2BD
100
AcDbEntity
  8
0
 62
5
370
9
 48
3.0
440
16777216
100
AcDbLine
 10
2417.5757152800215
 20
1895.8591438051117
 30
0.0
 11
2587.575715280036
 21
1895.8591438051117
 31
0.0
  0
LINE
  5
2C3
330
2BD
100
AcDbEntity
  8
0
  6
ByBlock
 62
0
370
-2
100
AcDbLine
 10
2421.5757152800215
 20
1899.8591438051117
 30
0.0
 11
2413.5757152800215
 21
1891.8591438051117
 31
0.0
  0
LINE
  5
2C4
330
2BD
100
AcDbEntity
  8
0
  6
ByBlock
 62
0
370
-2
100
AcDbLine
 10
2583.575715280036
 20
1891.8591438051117
 30
0.0
 11
2591.575715280036
 21
1899.8591438051117
 31
0.0
  0
MTEXT
  5
2C5
330
2BD
100
AcDbEntity
  8
0
 62
3
 48
3.0
440
16777216
100
AcDbMText
 10
2502.575715280007
 20
1918.62346849815
 30
0.0
 40
25.0
 41
0.0
 46
0.0
 71
5
  1
170
  0
POINT
  5
2C6
330
2BD
100
AcDbEntity
  8
Defpoints
 62
0
 48
3.0
440
16777216
100
AcDbPoint
 10
2417.5757152800215
 20
1750.533406267059
 30
0.0
  0
POINT
  5
2C7
330
2BD
100
AcDbEntity
  8
Defpoints
 62
0
 48
3.0
440
16777216
100
AcDbPoint
 10
2587.575715280036
 20
1749.533406267059
 30
0.0
  0
POINT
  5
2C8
330
2BD
100
AcDbEntity
  8
Defpoints
 62
0
 48
3.0
440
16777216
100
AcDbPoint
 10
2587.575715280036
 20
1895.8591438051117
 30
0.0
  0
ENDBLK
  5
2BF
330
2BD
100
AcDbEntity
  8
0
100
AcDbBlockEnd
  0
BLOCK
  5
2CA
330
2C9
100
AcDbEntity
  8
0
100
AcDbBlockBegin
  2
*D4
 70
1
 10
0.0
 20
0.0
 30
0.0
  3
*D4
  1

  0
LINE
  5
2CC
330
2C9
100
AcDbEntity
  8
0
 62
5
370
9
 48
3.0
440
16777216
100
AcDbLine
 10
2402.575715280007
 20
1750.53340626707
 30
0.0
 11
2362.239563066105
 21
1750.53340626707
 31
0.0
  0
LINE
  5
2CD
330
2C9
100
AcDbEntity
  8
0
 62
5
370
9
 48
3.0
440
16777216
100
AcDbLine
 10
2402.575715280007
 20
950.53340626707
 30
0.0
 11
2362.239563066105
 21
950.53340626707
 31
0.0
  0
LINE
  5
2CE
330
2C9
100
AcDbEntity
  8
0
 62
5
370
9
 48
3.0
440
16777216
100
AcDbLine
 10
2372.239563066105
 20
1750.53340626707
 30
0.0
 11
2372.239563066105
 21
950.53340626707
 31
0.0
  0
LINE
  5
2CF
330
2C9
100
AcDbEntity
  8
0
  6
ByBlock
 62
0
370
-2
100
AcDbLine
 10
2376.239563066105
 20
1746.53340626707
 30
0.0
 11
2368.239563066105
 21
1754.53340626707
 31
0.0
  0
LINE
  5
2D0
330
2C9
100
AcDbEntity
  8
0
  6
ByBlock
 62
0
370
-2
100
AcDbLine
 10
2368.239563066105
 20
954.53340626707
 30
0.0
 11
2376.239563066105
 21
946.53340626707
 31
0.0
  0
MTEXT
  5
2D1
330
2C9
100
AcDbEntity
  8
0
 62
3
 48
3.0
440
16777216
100
AcDbMText
 10
2349.475238373081
 20
1350.5334062670918
 30
0.0
 40
25.0
 41
0.0
 46
0.0
 71
5
  1
800
 11
1e-16
 21
1.0
 31
0.0
  0
POINT
  5
2D2
330
2C9
100
AcDbEntity
  8
Defpoints
 62
0
 48
3.0
440
16777216
100
AcDbPoint
 10
2417.575715280007
 20
1750.53340626707
 30
0.0
  0
POINT
  5
2D3
330
2C9
100
AcDbEntity
  8
Defpoints
 62
0
 48
3.0
440
16777216
100
AcDbPoint
 10
2417.575715280007
 20
950.53340626707
 30
0.0
  0
POINT
  5
2D4
330
2C9
100
AcDbEntity
  8
Defpoints
 62
0
 48
3.0
440
16777216
100
AcDbPoint
 10
2372.239563066105
 20
950.53340626707
 30
0.0
  0
ENDBLK
  5
2CB
330
2C9
100
AcDbEntity
  8
0
100
AcDbBlockEnd
  0
BLOCK
  5
2D6
330
2D5
100
AcDbEntity
  8
0
100
AcDbBlockBegin
  2
*D5
 70
1
 10
0.0
 20
0.0
 30
0.0
  3
*D5
  1

  0
LINE
  5
2D8
330
2D5
100
AcDbEntity
  8
0
 62
5
370
9
 48
3.0
440
16777216
100
AcDbLine
 10
483.3233152657049
 20
1300.533406267059
 30
0.0
 11
483.3233152657049
 21
1259.4801615738506
 31
0.0
  0
LINE
  5
2D9
330
2D5
100
AcDbEntity
  8
0
 62
5
370
9
 48
3.0
440
16777216
100
AcDbLine
 10
553.3233152657049
 20
1300.533406267059
 30
0.0
 11
553.3233152657049
 21
1259.4801615738506
 31
0.0
  0
LINE
  5
2DA
330
2D5
100
AcDbEntity
  8
0
 62
5
370
9
 48
3.0
440
16777216
100
AcDbLine
 10
483.3233152657049
 20
1269.4801615738616
 30
0.0
 11
553.3233152657049
 21
1269.4801615738616
 31
0.0
  0
LINE
  5
2DB
330
2D5
100
AcDbEntity
  8
0
  6
ByBlock
 62
0
370
-2
100
AcDbLine
 10
487.3233152657049
 20
1273.4801615738616
 30
0.0
 11
479.3233152657049
 21
1265.4801615738616
 31
0.0
  0
LINE
  5
2DC
330
2D5
100
AcDbEntity
  8
0
  6
ByBlock
 62
0
370
-2
100
AcDbLine
 10
549.3233152657049
 20
1265.4801615738616
 30
0.0
 11
557.3233152657049
 21
1273.4801615738616
 31
0.0
  0
MTEXT
  5
2DD
330
2D5
100
AcDbEntity
  8
0
 62
3
 48
3.0
440
16777216
100
AcDbMText
 10
518.3233152657049
 20
1292.2444862669
 30
0.0
 40
25.0
 41
0.0
 46
0.0
 71
5
  1
70
  0
POINT
  5
2DE
330
2D5
100
AcDbEntity
  8
Defpoints
 62
0
 48
3.0
440
16777216
100
AcDbPoint
 10
483.3233152657049
 20
1315.533406267059
 30
0.0
  0
POINT
  5
2DF
330
2D5
100
AcDbEntity
  8
Defpoints
 62
0
 48
3.0
440
16777216
100
AcDbPoint
 10
553.3233152657049
 20
1315.533406267059
 30
0.0
  0
POINT
  5
2E0
330
2D5
100
AcDbEntity
  8
Defpoints
 62
0
 48
3.0
440
16777216
100
AcDbPoint
 10
553.3233152657049
 20
1269.4801615738616
 30
0.0
  0
ENDBLK
  5
2D7
330
2D5
100
AcDbEntity
  8
0
100
AcDbBlockEnd
  0
BLOCK
  5
2E2
330
2E1
100
AcDbEntity
  8
0
100
AcDbBlockBegin
  2
*D6
 70
1
 10
0.0
 20
0.0
 30
0.0
  3
*D6
  1

  0
LINE
  5
2E4
330
2E1
100
AcDbEntity
  8
0
 62
5
370
9
 48
3.0
440
16777216
100
AcDbLine
 10
568.3233152656758
 20
1315.533406267059
 30
0.0
 11
618.4038136830204
 21
1315.533406267059
 31
0.0
  0
LINE
  5
2E5
330
2E1
100
AcDbEntity
  8
0
 62
5
370
9
 48
3.0
440
16777216
100
AcDbLine
 10
568.3233152656758
 20
1385.53340626707
 30
0.0
 11
618.4038136830204
 21
1385.53340626707
 31
0.0
  0
LINE
  5
2E6
330
2E1
100
AcDbEntity
  8
0
 62
5
370
9
 48
3.0
440
16777216
100
AcDbLine
 10
608.4038136830059
 20
1315.533406267059
 30
0.0
 11
608.4038136830059
 21
1385.53340626707
 31
0.0
  0
LINE
  5
2E7
330
2E1
100
AcDbEntity
  8
0
  6
ByBlock
 62
0
370
-2
100
AcDbLine
 10
604.4038136830059
 20
1319.533406267059
 30
0.0
 11
612.4038136830059
 21
1311.533406267059
 31
0.0
  0
LINE
  5
2E8
330
2E1
100
AcDbEntity
  8
0
  6
ByBlock
 62
0
370
-2
100
AcDbLine
 10
612.4038136830059
 20
1381.53340626707
 30
0.0
 11
604.4038136830059
 21
1389.53340626707
 31
0.0
  0
MTEXT
  5
2E9
330
2E1
100
AcDbEntity
  8
0
 62
3
 48
3.0
440
16777216
100
AcDbMText
 10
585.6394889899966
 20
1350.5334062670918
 30
0.0
 40
25.0
 41
0.0
 46
0.0
 71
5
  1
70
 11
1e-16
 21
1.0
 31
0.0
  0
POINT
  5
2EA
330
2E1
100
AcDbEntity
  8
Defpoints
 62
0
 48
3.0
440
16777216
100
AcDbPoint
 10
553.3233152656758
 20
1315.533406267059
 30
0.0
  0
POINT
  5
2EB
330
2E1
100
AcDbEntity
  8
Defpoints
 62
0
 48
3.0
440
16777216
100
AcDbPoint
 10
553.3233152656758
 20
1385.53340626707
 30
0.0
  0
POINT
  5
2EC
330
2E1
100
AcDbEntity
  8
Defpoints
 62
0
 48
3.0
440
16777216
100
AcDbPoint
 10
608.4038136830059
 20
1385.53340626707
 30
0.0
  0
ENDBLK
  5
2E3
330
2E1
100
AcDbEntity
  8
0
100
AcDbBlockEnd
  0
BLOCK
  5
2EE
330
2ED
100
AcDbEntity
  8
0
100
AcDbBlockBegin
  2
*D7
 70
1
 10
0.0
 20
0.0
 30
0.0
  3
*D7
  1

  0
LINE
  5
2F0
330
2ED
100
AcDbEntity
  8
0
 62
5
370
9
 48
3.0
440
16777216
100
AcDbLine
 10
1489.0657472439343
 20
1765.533406267059
 30
0.0
 11
1489.0657472439343
 21
1921.18121233676
 31
0.0
  0
LINE
  5
2F1
330
2ED
100
AcDbEntity
  8
0
 62
5
370
9
 48
3.0
440
16777216
100
AcDbLine
 10
2239.0657472439343
 20
1765.533406267059
 30
0.0
 11
2239.0657472439343
 21
1921.18121233676
 31
0.0
  0
LINE
  5
2F2
330
2ED
100
AcDbEntity
  8
0
 62
5
370
9
 48
3.0
440
16777216
100
AcDbLine
 10
1489.0657472439343
 20
1911.18121233676
 30
0.0
 11
2239.0657472439343
 21
1911.18121233676
 31
0.0
  0
LINE
  5
2F3
330
2ED
100
AcDbEntity
  8
0
  6
ByBlock
 62
0
370
-2
100
AcDbLine
 10
1493.0657472439343
 20
1915.18121233676
 30
0.0
 11
1485.0657472439343
 21
1907.18121233676
 31
0.0
  0
LINE
  5
2F4
330
2ED
100
AcDbEntity
  8
0
  6
ByBlock
 62
0
370
-2
100
AcDbLine
 10
2235.0657472439343
 20
1907.18121233676
 30
0.0
 11
2243.0657472439343
 21
1915.18121233676
 31
0.0
  0
MTEXT
  5
2F5
330
2ED
100
AcDbEntity
  8
0
 62
3
 48
3.0
440
16777216
100
AcDbMText
 10
1864.0657472439343
 20
1933.945537029802
 30
0.0
 40
25.0
 41
0.0
 46
0.0
 71
5
  1
750
  0
POINT
  5
2F6
330
2ED
100
AcDbEntity
  8
Defpoints
 62
0
 48
3.0
440
16777216
100
AcDbPoint
 10
1489.0657472439343
 20
1750.533406267059
 30
0.0
  0
POINT
  5
2F7
330
2ED
100
AcDbEntity
  8
Defpoints
 62
0
 48
3.0
440
16777216
100
AcDbPoint
 10
2239.0657472439343
 20
1750.533406267059
 30
0.0
  0
POINT
  5
2F8
330
2ED
100
AcDbEntity
  8
Defpoints
 62
0
 48
3.0
440
16777216
100
AcDbPoint
 10
2239.0657472439343
 20
1911.18121233676
 30
0.0
  0
ENDBLK
  5
2EF
330
2ED
100
AcDbEntity
  8
0
100
AcDbBlockEnd
  0
BLOCK
  5
2FA
330
2F9
100
AcDbEntity
  8
0
100
AcDbBlockBegin
  2
*D8
 70
1
 10
0.0
 20
0.0
 30
0.0
  3
*D8
  1

  0
LINE
  5
2FC
330
2F9
100
AcDbEntity
  8
0
 62
5
370
9
 48
3.0
440
16777216
100
AcDbLine
 10
1474.0657472439052
 20
1750.53340626707
 30
0.0
 11
1361.336435589168
 21
1750.53340626707
 31
0.0
  0
LINE
  5
2FD
330
2F9
100
AcDbEntity
  8
0
 62
5
370
9
 48
3.0
440
16777216
100
AcDbLine
 10
1422.2381254248176
 20
950.53340626707
 30
0.0
 11
1361.336435589168
 21
950.53340626707
 31
0.0
  0
LINE
  5
2FE
330
2F9
100
AcDbEntity
  8
0
 62
5
370
9
 48
3.0
440
16777216
100
AcDbLine
 10
1371.3364355891972
 20
1750.53340626707
 30
0.0
 11
1371.3364355891972
 21
950.53340626707
 31
0.0
  0
LINE
  5
2FF
330
2F9
100
AcDbEntity
  8
0
  6
ByBlock
 62
0
370
-2
100
AcDbLine
 10
1375.3364355891972
 20
1746.53340626707
 30
0.0
 11
1367.3364355891972
 21
1754.53340626707
 31
0.0
  0
LINE
  5
300
330
2F9
100
AcDbEntity
  8
0
  6
ByBlock
 62
0
370
-2
100
AcDbLine
 10
1367.3364355891972
 20
954.53340626707
 30
0.0
 11
1375.3364355891972
 21
946.53340626707
 31
0.0
  0
MTEXT
  5
301
330
2F9
100
AcDbEntity
  8
0
 62
3
 48
3.0
440
16777216
100
AcDbMText
 10
1348.5721108961443
 20
1350.5334062670918
 30
0.0
 40
25.0
 41
0.0
 46
0.0
 71
5
  1
800
 11
1e-16
 21
1.0
 31
0.0
  0
POINT
  5
302
330
2F9
100
AcDbEntity
  8
Defpoints
 62
0
 48
3.0
440
16777216
100
AcDbPoint
 10
1489.0657472439052
 20
1750.53340626707
 30
0.0
  0
POINT
  5
303
330
2F9
100
AcDbEntity
  8
Defpoints
 62
0
 48
3.0
440
16777216
100
AcDbPoint
 10
1437.2381254248176
 20
950.53340626707
 30
0.0
  0
POINT
  5
304
330
2F9
100
AcDbEntity
  8
Defpoints
 62
0
 48
3.0
440
16777216
100
AcDbPoint
 10
1371.3364355891972
 20
950.53340626707
 30
0.0
  0
ENDBLK
  5
2FB
330
2F9
100
AcDbEntity
  8
0
100
AcDbBlockEnd
  0
BLOCK
  5
306
330
305
100
AcDbEntity
  8
0
100
AcDbBlockBegin
  2
*D9
 70
1
 10
0.0
 20
0.0
 30
0.0
  3
*D9
  1

  0
LINE
  5
308
330
305
100
AcDbEntity
  8
0
 62
5
370
9
 48
3.0
440
16777216
100
AcDbLine
 10
1474.0657472439052
 20
690.70138090611
 30
0.0
 11
1431.0356345312175
 21
690.70138090611
 31
0.0
  0
LINE
  5
309
330
305
100
AcDbEntity
  8
0
 62
5
370
9
 48
3.0
440
16777216
100
AcDbLine
 10
1476.0657472439052
 20
520.70138090611
 30
0.0
 11
1431.0356345312175
 21
520.70138090611
 31
0.0
  0
LINE
  5
30A
330
305
100
AcDbEntity
  8
0
 62
5
370
9
 48
3.0
440
16777216
100
AcDbLine
 10
1441.0356345312466
 20
690.70138090611
 30
0.0
 11
1441.0356345312466
 21
520.70138090611
 31
0.0
  0
LINE
  5
30B
330
305
100
AcDbEntity
  8
0
  6
ByBlock
 62
0
370
-2
100
AcDbLine
 10
1445.0356345312466
 20
686.70138090611
 30
0.0
 11
1437.0356345312466
 21
694.70138090611
 31
0.0
  0
LINE
  5
30C
330
305
100
AcDbEntity
  8
0
  6
ByBlock
 62
0
370
-2
100
AcDbLine
 10
1437.0356345312466
 20
524.70138090611
 30
0.0
 11
1445.0356345312466
 21
516.70138090611
 31
0.0
  0
MTEXT
  5
30D
330
305
100
AcDbEntity
  8
0
 62
3
 48
3.0
440
16777216
100
AcDbMText
 10
1418.2713098382083
 20
605.7013809061318
 30
0.0
 40
25.0
 41
0.0
 46
0.0
 71
5
  1
170
 11
1e-16
 21
1.0
 31
0.0
  0
POINT
  5
30E
330
305
100
AcDbEntity
  8
Defpoints
 62
0
 48
3.0
440
16777216
100
AcDbPoint
 10
1489.0657472439052
 20
690.70138090611
 30
0.0
  0
POINT
  5
30F
330
305
100
AcDbEntity
  8
Defpoints
 62
0
 48
3.0
440
16777216
100
AcDbPoint
 10
1491.0657472439052
 20
520.70138090611
 30
0.0
  0
POINT
  5
310
330
305
100
AcDbEntity
  8
Defpoints
 62
0
 48
3.0
440
16777216
100
AcDbPoint
 10
1441.0356345312466
 20
520.70138090611
 30
0.0
  0
ENDBLK
  5
307
330
305
100
AcDbEntity
  8
0
100
AcDbBlockEnd
  0
BLOCK
  5
312
330
311
100
AcDbEntity
  8
0
100
AcDbBlockBegin
  2
*D10
 70
1
 10
0.0
 20
0.0
 30
0.0
  3
*D10
  1

  0
LINE
  5
314
330
311
100
AcDbEntity
  8
0
 62
5
370
9
 48
3.0
440
16777216
100
AcDbLine
 10
1489.0657472439343
 20
935.533406267059
 30
0.0
 11
1489.0657472439343
 21
885.0338087017917
 31
0.0
  0
LINE
  5
315
330
311
100
AcDbEntity
  8
0
 62
5
370
9
 48
3.0
440
16777216
100
AcDbLine
 10
1516.0657472439343
 20
962.533406267059
 30
0.0
 11
1516.0657472439343
 21
885.0338087017917
 31
0.0
  0
LINE
  5
316
330
311
100
AcDbEntity
  8
0
 62
5
370
9
 48
3.0
440
16777216
100
AcDbLine
 10
1489.0657472439343
 20
895.0338087017917
 30
0.0
 11
1516.0657472439343
 21
895.0338087017917
 31
0.0
  0
LINE
  5
317
330
311
100
AcDbEntity
  8
0
 62
5
370
9
 48
3.0
440
16777216
100
AcDbLine
 10
1516.0657472439343
 20
895.0338087017917
 30
0.0
 11
1580.3038099997357
 21
895.0338087017917
 31
0.0
  0
LINE
  5
318
330
311
100
AcDbEntity
  8
0
  6
ByBlock
 62
0
370
-2
100
AcDbLine
 10
1493.0657472439343
 20
899.0338087017917
 30
0.0
 11
1485.0657472439343
 21
891.0338087017917
 31
0.0
  0
LINE
  5
319
330
311
100
AcDbEntity
  8
0
  6
ByBlock
 62
0
370
-2
100
AcDbLine
 10
1512.0657472439343
 20
891.0338087017917
 30
0.0
 11
1520.0657472439343
 21
899.0338087017917
 31
0.0
  0
MTEXT
  5
31A
330
311
100
AcDbEntity
  8
0
 62
3
 48
3.0
440
16777216
100
AcDbMText
 10
1552.1847786218277
 20
917.5849683197921
 30
0.0
 40
25.0
 41
0.0
 46
0.0
 71
5
  1
27
  0
POINT
  5
31B
330
311
100
AcDbEntity
  8
Defpoints
 62
0
 48
3.0
440
16777216
100
AcDbPoint
 10
1489.0657472439343
 20
950.533406267059
 30
0.0
  0
POINT
  5
31C
330
311
100
AcDbEntity
  8
Defpoints
 62
0
 48
3.0
440
16777216
100
AcDbPoint
 10
1516.0657472439343
 20
977.533406267059
 30
0.0
  0
POINT
  5
31D
330
311
100
AcDbEntity
  8
Defpoints
 62
0
 48
3.0
440
16777216
100
AcDbPoint
 10
1516.0657472439343
 20
895.0338087017917
 30
0.0
  0
ENDBLK
  5
313
330
311
100
AcDbEntity
  8
0
100
AcDbBlockEnd
  0
BLOCK
  5
31F
330
31E
100
AcDbEntity
  8
0
100
AcDbBlockBegin
  2
*D11
 70
1
 10
0.0
 20
0.0
 30
0.0
  3
*D11
  1

  0
LINE
  5
321
330
31E
100
AcDbEntity
  8
0
 62
5
370
9
 48
3.0
440
16777216
100
AcDbLine
 10
1489.0657472439343
 20
705.7013809060991
 30
0.0
 11
1489.0657472439343
 21
744.4986346217302
 31
0.0
  0
LINE
  5
322
330
31E
100
AcDbEntity
  8
0
 62
5
370
9
 48
3.0
440
16777216
100
AcDbLine
 10
2239.0657472439343
 20
705.7013809060991
 30
0.0
 11
2239.0657472439343
 21
744.4986346217302
 31
0.0
  0
LINE
  5
323
330
31E
100
AcDbEntity
  8
0
 62
5
370
9
 48
3.0
440
16777216
100
AcDbLine
 10
1489.0657472439343
 20
734.4986346217302
 30
0.0
 11
2239.0657472439343
 21
734.4986346217302
 31
0.0
  0
LINE
  5
324
330
31E
100
AcDbEntity
  8
0
  6
ByBlock
 62
0
370
-2
100
AcDbLine
 10
1493.0657472439343
 20
738.4986346217302
 30
0.0
 11
1485.0657472439343
 21
730.4986346217302
 31
0.0
  0
LINE
  5
325
330
31E
100
AcDbEntity
  8
0
  6
ByBlock
 62
0
370
-2
100
AcDbLine
 10
2235.0657472439343
 20
730.4986346217302
 30
0.0
 11
2243.0657472439343
 21
738.4986346217302
 31
0.0
  0
MTEXT
  5
326
330
31E
100
AcDbEntity
  8
0
 62
3
 48
3.0
440
16777216
100
AcDbMText
 10
1864.0657472439343
 20
757.2629593147722
 30
0.0
 40
25.0
 41
0.0
 46
0.0
 71
5
  1
750
  0
POINT
  5
327
330
31E
100
AcDbEntity
  8
Defpoints
 62
0
 48
3.0
440
16777216
100
AcDbPoint
 10
1489.0657472439343
 20
690.7013809060991
 30
0.0
  0
POINT
  5
328
330
31E
100
AcDbEntity
  8
Defpoints
 62
0
 48
3.0
440
16777216
100
AcDbPoint
 10
2239.0657472439343
 20
690.7013809060991
 30
0.0
  0
POINT
  5
329
330
31E
100
AcDbEntity
  8
Defpoints
 62
0
 48
3.0
440
16777216
100
AcDbPoint
 10
2239.0657472439343
 20
734.4986346217302
 30
0.0
  0
ENDBLK
  5
320
330
31E
100
AcDbEntity
  8
0
100
AcDbBlockEnd
  0
BLOCK
  5
32B
330
32A
100
AcDbEntity
  8
0
100
AcDbBlockBegin
  2
*D12
 70
1
 10
0.0
 20
0.0
 30
0.0
  3
*D12
  1

  0
LINE
  5
32D
330
32A
100
AcDbEntity
  8
0
 62
5
370
9
 48
3.0
440
16777216
100
AcDbLine
 10
1604.328899722037
 20
1898.3829034415503
 30
0.0
 11
1505.5992463147268
 21
1711.2821351167295
 31
0.0
  0
MTEXT
  5
32E
330
32A
100
AcDbEntity
  8
0
 62
3
 48
3.0
440
16777216
100
AcDbMText
 10
1564.2068790148187
 20
1872.6245873125408
 30
0.0
 40
25.0
 41
0.0
 46
0.0
 71
5
  1
∅13
 11
0.466692164741608
 21
0.8844198230302122
 31
0.0
  0
LINE
  5
32F
330
32A
100
AcDbEntity
  8
0
 62
5
370
9
 48
3.0
440
16777216
100
AcDbLine
 10
1499.5322481730545
 20
1699.7846774173122
 30
0.0
 11
1505.5992463147268
 21
1711.2821351167295
 31
0.0
  0
LINE
  5
330
330
32A
100
AcDbEntity
  8
0
  6
ByBlock
 62
0
370
-2
100
AcDbLine
 10
1501.203158806209
 20
1694.3802294662237
 30
0.0
 11
1497.8613375399
 21
1705.1891253684007
 31
0.0
  0
LINE
  5
331
330
32A
100
AcDbEntity
  8
0
  6
ByBlock
 62
0
370
-2
100
AcDbLine
 10
1503.9283356815722
 20
1716.686583067818
 30
0.0
 11
1507.2701569478813
 21
1705.877687165641
 31
0.0
  0
POINT
  5
332
330
32A
100
AcDbEntity
  8
Defpoints
 62
0
 48
3.0
440
16777216
100
AcDbPoint
 10
1505.5992463147268
 20
1711.2821351167295
 30
0.0
  0
POINT
  5
333
330
32A
100
AcDbEntity
  8
Defpoints
 62
0
 48
3.0
440
16777216
100
AcDbPoint
 10
1499.5322481730545
 20
1699.7846774173122
 30
0.0
  0
ENDBLK
  5
32C
330
32A
100
AcDbEntity
  8
0
100
AcDbBlockEnd
  0
BLOCK
  5
335
330
334
100
AcDbEntity
  8
0
100
AcDbBlockBegin
  2
*D13
 70
1
 10
0.0
 20
0.0
 30
0.0
  3
*D13
  1

  0
LINE
  5
337
330
334
100
AcDbEntity
  8
0
 62
5
370
9
 48
3.0
440
16777216
100
AcDbLine
 10
420.6899791144242
 20
690.70138090611
 30
0.0
 11
377.6598664017365
 21
690.70138090611
 31
0.0
  0
LINE
  5
338
330
334
100
AcDbEntity
  8
0
 62
5
370
9
 48
3.0
440
16777216
100
AcDbLine
 10
422.6899791144242
 20
520.70138090611
 30
0.0
 11
377.6598664017365
 21
520.70138090611
 31
0.0
  0
LINE
  5
339
330
334
100
AcDbEntity
  8
0
 62
5
370
9
 48
3.0
440
16777216
100
AcDbLine
 10
387.6598664017656
 20
690.70138090611
 30
0.0
 11
387.6598664017656
 21
520.70138090611
 31
0.0
  0
LINE
  5
33A
330
334
100
AcDbEntity
  8
0
  6
ByBlock
 62
0
370
-2
100
AcDbLine
 10
391.6598664017656
 20
686.70138090611
 30
0.0
 11
383.6598664017656
 21
694.70138090611
 31
0.0
  0
LINE
  5
33B
330
334
100
AcDbEntity
  8
0
  6
ByBlock
 62
0
370
-2
100
AcDbLine
 10
383.6598664017656
 20
524.70138090611
 30
0.0
 11
391.6598664017656
 21
516.70138090611
 31
0.0
  0
MTEXT
  5
33C
330
334
100
AcDbEntity
  8
0
 62
3
 48
3.0
440
16777216
100
AcDbMText
 10
364.89554170872725
 20
605.7013809061318
 30
0.0
 40
25.0
 41
0.0
 46
0.0
 71
5
  1
170
 11
1e-16
 21
1.0
 31
0.0
  0
POINT
  5
33D
330
334
100
AcDbEntity
  8
Defpoints
 62
0
 48
3.0
440
16777216
100
AcDbPoint
 10
435.6899791144242
 20
690.70138090611
 30
0.0
  0
POINT
  5
33E
330
334
100
AcDbEntity
  8
Defpoints
 62
0
 48
3.0
440
16777216
100
AcDbPoint
 10
437.6899791144242
 20
520.70138090611
 30
0.0
  0
POINT
  5
33F
330
334
100
AcDbEntity
  8
Defpoints
 62
0
 48
3.0
440
16777216
100
AcDbPoint
 10
387.6598664017656
 20
520.70138090611
 30
0.0
  0
ENDBLK
  5
336
330
334
100
AcDbEntity
  8
0
100
AcDbBlockEnd
  0
BLOCK
  5
341
330
340
100
AcDbEntity
  8
0
100
AcDbBlockBegin
  2
*D14
 70
1
 10
0.0
 20
0.0
 30
0.0
  3
*D14
  1

  0
LINE
  5
343
330
340
100
AcDbEntity
  8
0
 62
5
370
9
 48
3.0
440
16777216
100
AcDbLine
 10
435.6899791144533
 20
705.7013809060991
 30
0.0
 11
435.6899791144533
 21
744.4986346217302
 31
0.0
  0
LINE
  5
344
330
340
100
AcDbEntity
  8
0
 62
5
370
9
 48
3.0
440
16777216
100
AcDbLine
 10
1185.6899791144679
 20
705.7013809060991
 30
0.0
 11
1185.6899791144679
 21
744.4986346217302
 31
0.0
  0
LINE
  5
345
330
340
100
AcDbEntity
  8
0
 62
5
370
9
 48
3.0
440
16777216
100
AcDbLine
 10
435.6899791144533
 20
734.4986346217302
 30
0.0
 11
1185.6899791144679
 21
734.4986346217302
 31
0.0
  0
LINE
  5
346
330
340
100
AcDbEntity
  8
0
  6
ByBlock
 62
0
370
-2
100
AcDbLine
 10
439.6899791144533
 20
738.4986346217302
 30
0.0
 11
431.6899791144533
 21
730.4986346217302
 31
0.0
  0
LINE
  5
347
330
340
100
AcDbEntity
  8
0
  6
ByBlock
 62
0
370
-2
100
AcDbLine
 10
1181.6899791144679
 20
730.4986346217302
 30
0.0
 11
1189.6899791144679
 21
738.4986346217302
 31
0.0
  0
MTEXT
  5
348
330
340
100
AcDbEntity
  8
0
 62
3
 48
3.0
440
16777216
100
AcDbMText
 10
810.6899791144679
 20
757.2629593147722
 30
0.0
 40
25.0
 41
0.0
 46
0.0
 71
5
  1
750
  0
POINT
  5
349
330
340
100
AcDbEntity
  8
Defpoints
 62
0
 48
3.0
440
16777216
100
AcDbPoint
 10
435.6899791144533
 20
690.7013809060991
 30
0.0
  0
POINT
  5
34A
330
340
100
AcDbEntity
  8
Defpoints
 62
0
 48
3.0
440
16777216
100
AcDbPoint
 10
1185.6899791144679
 20
690.7013809060991
 30
0.0
  0
POINT
  5
34B
330
340
100
AcDbEntity
  8
Defpoints
 62
0
 48
3.0
440
16777216
100
AcDbPoint
 10
1185.6899791144679
 20
734.4986346217302
 30
0.0
  0
ENDBLK
  5
342
330
340
100
AcDbEntity
  8
0
100
AcDbBlockEnd
  0
BLOCK
  5
34D
330
34C
100
AcDbEntity
  8
0
100
AcDbBlockBegin
  2
*D15
 70
1
 10
0.0
 20
0.0
 30
0.0
  3
*D15
  1

  0
LINE
  5
34F
330
34C
100
AcDbEntity
  8
0
 62
5
370
9
 48
3.0
440
16777216
100
AcDbLine
 10
1686.5657472439052
 20
1712.53340626707
 30
0.0
 11
1645.1392245276948
 21
1712.53340626707
 31
0.0
  0
LINE
  5
350
330
34C
100
AcDbEntity
  8
0
 62
5
370
9
 48
3.0
440
16777216
100
AcDbLine
 10
1686.5657472439052
 20
988.53340626707
 30
0.0
 11
1645.1392245276948
 21
988.53340626707
 31
0.0
  0
LINE
  5
351
330
34C
100
AcDbEntity
  8
0
 62
5
370
9
 48
3.0
440
16777216
100
AcDbLine
 10
1655.1392245276948
 20
1712.53340626707
 30
0.0
 11
1655.1392245276948
 21
988.53340626707
 31
0.0
  0
LINE
  5
352
330
34C
100
AcDbEntity
  8
0
  6
ByBlock
 62
0
370
-2
100
AcDbLine
 10
1659.1392245276948
 20
1708.53340626707
 30
0.0
 11
1651.1392245276948
 21
1716.53340626707
 31
0.0
  0
LINE
  5
353
330
34C
100
AcDbEntity
  8
0
  6
ByBlock
 62
0
370
-2
100
AcDbLine
 10
1651.1392245276948
 20
992.53340626707
 30
0.0
 11
1659.1392245276948
 21
984.53340626707
 31
0.0
  0
MTEXT
  5
354
330
34C
100
AcDbEntity
  8
0
 62
3
 48
3.0
440
16777216
100
AcDbMText
 10
1632.5880649096944
 20
1350.5334062670918
 30
0.0
 40
25.0
 41
0.0
 46
0.0
 71
5
  1
724
 11
1e-16
 21
1.0
 31
0.0
  0
POINT
  5
355
330
34C
100
AcDbEntity
  8
Defpoints
 62
0
 48
3.0
440
16777216
100
AcDbPoint
 10
1701.5657472439052
 20
1712.53340626707
 30
0.0
  0
POINT
  5
356
330
34C
100
AcDbEntity
  8
Defpoints
 62
0
 48
3.0
440
16777216
100
AcDbPoint
 10
1701.5657472439052
 20
988.53340626707
 30
0.0
  0
POINT
  5
357
330
34C
100
AcDbEntity
  8
Defpoints
 62
0
 48
3.0
440
16777216
100
AcDbPoint
 10
1655.1392245276948
 20
988.53340626707
 30
0.0
  0
ENDBLK
  5
34E
330
34C
100
AcDbEntity
  8
0
100
AcDbBlockEnd
  0
BLOCK
  5
359
330
358
100
AcDbEntity
  8
0
100
AcDbBlockBegin
  2
*D16
 70
1
 10
0.0
 20
0.0
 30
0.0
  3
*D16
  1

  0
LINE
  5
35B
330
358
100
AcDbEntity
  8
0
 62
5
370
9
 48
3.0
440
16777216
100
AcDbLine
 10
733.6899791144242
 20
552.70138090611
 30
0.0
 11
670.2029684813751
 21
552.70138090611
 31
0.0
  0
LINE
  5
35C
330
358
100
AcDbEntity
  8
0
 62
5
370
9
 48
3.0
440
16777216
100
AcDbLine
 10
734.6899791144242
 20
520.70138090611
 30
0.0
 11
670.2029684813751
 21
520.70138090611
 31
0.0
  0
LINE
  5
35D
330
358
100
AcDbEntity
  8
0
 62
5
370
9
 48
3.0
440
16777216
100
AcDbLine
 10
680.2029684814042
 20
552.70138090611
 30
0.0
 11
680.2029684814042
 21
520.70138090611
 31
0.0
  0
LINE
  5
35E
330
358
100
AcDbEntity
  8
0
 62
5
370
9
 48
3.0
440
16777216
100
AcDbLine
 10
680.2029684814042
 20
520.70138090611
 30
0.0
 11
680.2029684814042
 21
457.16249959641937
 31
0.0
  0
LINE
  5
35F
330
358
100
AcDbEntity
  8
0
  6
ByBlock
 62
0
370
-2
100
AcDbLine
 10
684.2029684814042
 20
548.70138090611
 30
0.0
 11
676.2029684814042
 21
556.70138090611
 31
0.0
  0
LINE
  5
360
330
358
100
AcDbEntity
  8
0
  6
ByBlock
 62
0
370
-2
100
AcDbLine
 10
676.2029684814042
 20
524.70138090611
 30
0.0
 11
684.2029684814042
 21
516.70138090611
 31
0.0
  0
MTEXT
  5
361
330
358
100
AcDbEntity
  8
0
 62
3
 48
3.0
440
16777216
100
AcDbMText
 10
657.4301171853585
 20
484.93194025129196
 30
0.0
 40
25.0
 41
0.0
 46
0.0
 71
5
  1
32
 11
1e-16
 21
1.0
 31
0.0
  0
POINT
  5
362
330
358
100
AcDbEntity
  8
Defpoints
 62
0
 48
3.0
440
16777216
100
AcDbPoint
 10
748.6899791144242
 20
552.70138090611
 30
0.0
  0
POINT
  5
363
330
358
100
AcDbEntity
  8
Defpoints
 62
0
 48
3.0
440
16777216
100
AcDbPoint
 10
749.6899791144242
 20
520.70138090611
 30
0.0
  0
POINT
  5
364
330
358
100
AcDbEntity
  8
Defpoints
 62
0
 48
3.0
440
16777216
100
AcDbPoint
 10
680.2029684814042
 20
520.70138090611
 30
0.0
  0
ENDBLK
  5
35A
330
358
100
AcDbEntity
  8
0
100
AcDbBlockEnd
  0
BLOCK
  5
366
330
365
100
AcDbEntity
  8
0
100
AcDbBlockBegin
  2
*D17
 70
1
 10
0.0
 20
0.0
 30
0.0
  3
*D17
  1

  0
LINE
  5
368
330
365
100
AcDbEntity
  8
0
 62
5
370
9
 48
3.0
440
16777216
100
AcDbLine
 10
824.9566514169273
 20
1718.53340626707
 30
0.0
 11
914.4808135954518
 21
1718.53340626707
 31
0.0
  0
LINE
  5
369
330
365
100
AcDbEntity
  8
0
 62
5
370
9
 48
3.0
440
16777216
100
AcDbLine
 10
825.6899791144242
 20
1750.53340626707
 30
0.0
 11
914.4808135954518
 21
1750.53340626707
 31
0.0
  0
LINE
  5
36A
330
365
100
AcDbEntity
  8
0
 62
5
370
9
 48
3.0
440
16777216
100
AcDbLine
 10
904.4808135954518
 20
1718.53340626707
 30
0.0
 11
904.4808135954518
 21
1750.53340626707
 31
0.0
  0
LINE
  5
36B
330
365
100
AcDbEntity
  8
0
 62
5
370
9
 48
3.0
440
16777216
100
AcDbLine
 10
904.4808135954518
 20
1750.53340626707
 30
0.0
 11
904.4808135954518
 21
1814.0722875767497
 31
0.0
  0
LINE
  5
36C
330
365
100
AcDbEntity
  8
0
  6
ByBlock
 62
0
370
-2
100
AcDbLine
 10
900.4808135954518
 20
1722.53340626707
 30
0.0
 11
908.4808135954518
 21
1714.53340626707
 31
0.0
  0
LINE
  5
36D
330
365
100
AcDbEntity
  8
0
  6
ByBlock
 62
0
370
-2
100
AcDbLine
 10
908.4808135954518
 20
1746.53340626707
 30
0.0
 11
900.4808135954518
 21
1754.53340626707
 31
0.0
  0
MTEXT
  5
36E
330
365
100
AcDbEntity
  8
0
 62
3
 48
3.0
440
16777216
100
AcDbMText
 10
881.7079622994206
 20
1786.3028469219316
 30
0.0
 40
25.0
 41
0.0
 46
0.0
 71
5
  1
32
 11
1e-16
 21
1.0
 31
0.0
  0
POINT
  5
36F
330
365
100
AcDbEntity
  8
Defpoints
 62
0
 48
3.0
440
16777216
100
AcDbPoint
 10
809.9566514169273
 20
1718.53340626707
 30
0.0
  0
POINT
  5
370
330
365
100
AcDbEntity
  8
Defpoints
 62
0
 48
3.0
440
16777216
100
AcDbPoint
 10
810.6899791144242
 20
1750.53340626707
 30
0.0
  0
POINT
  5
371
330
365
100
AcDbEntity
  8
Defpoints
 62
0
 48
3.0
440
16777216
100
AcDbPoint
 10
904.4808135954518
 20
1750.53340626707
 30
0.0
  0
ENDBLK
  5
367
330
365
100
AcDbEntity
  8
0
100
AcDbBlockEnd
  0
ENDSEC
  0
SECTION
  2
ENTITIES
  0
LWPOLYLINE
  5
2F
330
17
100
AcDbEntity
  8
0
 48
3.0
100
AcDbPolyline
 90
4
 70
1
 10
435.6899791144533
 20
1750.533406267059
 10
1185.6899791144679
 20
1750.533406267059
 10
1185.6899791144679
 20
950.533406267059
 10
435.6899791144533
 20
950.533406267059
  0
LWPOLYLINE
  5
30
330
17
100
AcDbEntity
  8
0
 48
3.0
100
AcDbPolyline
 90
4
 70
1
 10
436.68997911443876
 20
1749.533406267059
 10
1184.6899791144679
 20
1749.533406267059
 10
1184.6899791144679
 20
951.533406267059
 10
436.68997911443876
 20
951.533406267059
  0
LINE
  5
31
330
17
100
AcDbEntity
  8
0
 48
3.0
100
AcDbLine
 10
810.6899791144679
 20
1750.533406267059
 30
0.0
 11
810.6899791144679
 21
950.533406267059
 31
0.0
  0
DIMENSION
  5
32
330
17
100
AcDbEntity
  8
0
 48
3.0
100
AcDbDimension
280
0
  2
*D1
  3
Dim-25
 10
1185.6899791144679
 20
1911.18121233676
 30
0.0
 11
810.6899791144679
 21
1911.18121233676
 31
0.0
 70
160
 71
5
 42
750.0
 73
0
 74
0
 75
0
100
AcDbAlignedDimension
 13
435.6899791144533
 23
1750.533406267059
 33
0.0
 14
1185.6899791144679
 24
1750.533406267059
 34
0.0
 50
0.0
100
AcDbRotatedDimension
  0
DIMENSION
  5
37
330
17
100
AcDbEntity
  8
0
 48
3.0
100
AcDbDimension
280
0
  2
*D2
  3
Dim-25
 10
369.7882892788184
 20
950.53340626707
 30
0.0
 11
347.0239645857655
 21
1350.5334062670918
 31
0.0
 70
32
 71
5
 42
800.0
 73
0
 74
0
 75
0
100
AcDbAlignedDimension
 13
435.6899791144533
 23
1750.533406267059
 33
0.0
 14
435.6899791144533
 24
950.533406267059
 34
0.0
 50
90.0
100
AcDbRotatedDimension
  0
INSERT
  5
38
330
17
100
AcDbEntity
  8
0
 62
7
100
AcDbBlockReference
 66
1
  2
khungtenAsean2
 10
0.0
 20
2100.00000000032
 30
0.0
  0
ATTRIB
  5
39
330
38
100
AcDbEntity
  8
0
 62
1
100
AcDbText
 10
2883.764212945607
 20
32.65219989548132
 30
0.0
 40
25.0
  1
......
  7
Tahoma (Input Text)
 72
1
 11
2914.993225705868
 21
32.65219989548132
 31
0.0
100
AcDbAttribute
  2
#11
 70
0
 71
1
 72
0
 11
2914.993225705868
 21
32.65219989548132
 31
0.0
  0
ATTRIB
  5
3A
330
38
100
AcDbEntity
  8
0
 62
1
100
AcDbText
 10
2146.7169774874346
 20
78.72478830832188
 30
0.0
 40
25.0
  1
......
  7
Tahoma (Input Text)
100
AcDbAttribute
  2
#09
 70
0
 71
1
 72
0
  0
ATTRIB
  5
3B
330
38
100
AcDbEntity
  8
0
 62
1
100
AcDbText
 10
2146.7169774874346
 20
18.724788308321877
 30
0.0
 40
25.0
  1

  7
Tahoma (Input Text)
100
AcDbAttribute
  2
#10
 70
0
 71
1
 72
0
  0
ATTRIB
  5
3C
330
38
100
AcDbEntity
  8
0
 62
1
100
AcDbText
 10
1817.4477657333628
 20
18.724788308321877
 30
0.0
 40
25.0
  1
1.0
  7
Tahoma (Input Text)
100
AcDbAttribute
  2
#08
 70
0
 71
1
 72
0
  0
ATTRIB
  5
3D
330
38
100
AcDbEntity
  8
0
 62
1
100
AcDbText
 10
1834.6815103255067
 20
78.72478830832188
 30
0.0
 40
25.0
  1

  7
Tahoma (Input Text)
100
AcDbAttribute
  2
#07
 70
0
 71
1
 72
0
  0
ATTRIB
  5
3E
330
38
100
AcDbEntity
  8
0
 62
1
100
AcDbText
 10
1065.3308891436318
 20
18.724788308321877
 30
0.0
 40
25.0
  1
800x750x170
  7
Tahoma (Input Text)
100
AcDbAttribute
  2
#06
 70
0
 71
1
 72
0
  0
ATTRIB
  5
3F
330
38
100
AcDbEntity
  8
0
 62
1
100
AcDbText
 10
1106.6281771221547
 20
78.72478830832188
 30
0.0
 40
25.0
  1
Võ tủ
  7
Tahoma (Input Text)
100
AcDbAttribute
  2
#05
 70
0
 71
1
 72
0
  0
ATTRIB
  5
40
330
38
100
AcDbEntity
  8
0
 62
1
100
AcDbText
 10
486.10502700548386
 20
18.724788308321877
 30
0.0
 40
25.0
  1
......
  7
Tahoma (Input Text)
100
AcDbAttribute
  2
#04
 70
0
 71
1
 72
0
  0
ATTRIB
  5
41
330
38
100
AcDbEntity
  8
0
 62
1
100
AcDbText
 10
506.5707489466877
 20
80.6983995106093
 30
0.0
 40
25.0
  1

  7
Tahoma (Input Text)
100
AcDbAttribute
  2
#03
 70
0
 71
1
 72
0
  0
ATTRIB
  5
42
330
38
100
AcDbEntity
  8
0
 62
1
100
AcDbText
 10
98.45672450313577
 20
18.724788308321877
 30
0.0
 40
25.0
  1
......
  7
Tahoma (Input Text)
100
AcDbAttribute
  2
#02
 70
0
 71
1
 72
0
  0
ATTRIB
  5
43
330
38
100
AcDbEntity
  8
0
 62
1
100
AcDbText
 10
137.0535078374669
 20
78.72478830832188
 30
0.0
 40
25.0
  1

  7
Tahoma (Input Text)
100
AcDbAttribute
  2
#01
 70
0
 71
1
 72
0
  0
SEQEND
  5
44
330
17
100
AcDbEntity
  8
0
 62
7
  0
LWPOLYLINE
  5
45
330
17
100
AcDbEntity
  8
0
 62
2
100
AcDbPolyline
 90
4
 70
1
 10
449.18997911449696
 20
1670.0334062670518
 10
438.1899791145115
 20
1670.0334062670518
 10
438.1899791145115
 20
1661.033406267059
 10
449.18997911449696
 20
1661.033406267059
  0
INSERT
  5
46
330
17
100
AcDbEntity
  8
0
 62
7
100
AcDbBlockReference
  2
HL003-2-2
 10
435.6899791144533
 20
1659.533406267059
 30
0.0
  0
LWPOLYLINE
  5
48
330
17
100
AcDbEntity
  8
0
 62
2
100
AcDbPolyline
 90
4
 70
1
 10
1172.189979114395
 20
1670.0334062670518
 10
1183.189979114395
 20
1670.0334062670518
 10
1183.189979114395
 20
1661.033406267059
 10
1172.189979114395
 20
1661.033406267059
  0
INSERT
  5
49
330
17
100
AcDbEntity
  8
0
 62
7
100
AcDbBlockReference
  2
HL003-2-2
 10
1185.6899791144679
 20
1659.533406267059
 30
0.0
 41
-1.0
  0
LWPOLYLINE
  5
4B
330
17
100
AcDbEntity
  8
0
 62
2
100
AcDbPolyline
 90
4
 70
1
 10
449.18997911449696
 20
1031.03340626707
 10
438.1899791145115
 20
1031.03340626707
 10
438.1899791145115
 20
1040.033406267059
 10
449.18997911449696
 20
1040.033406267059
  0
INSERT
  5
4C
330
17
100
AcDbEntity
  8
0
 62
7
100
AcDbBlockReference
  2
HL003-2-2
 10
435.6899791144533
 20
1041.533406267059
 30
0.0
 41
-1.0
 50
180.0
  0
LWPOLYLINE
  5
4E
330
17
100
AcDbEntity
  8
0
 62
2
100
AcDbPolyline
 90
4
 70
1
 10
1172.189979114395
 20
1031.03340626707
 10
1183.189979114395
 20
1031.03340626707
 10
1183.189979114395
 20
1040.033406267059
 10
1172.189979114395
 20
1040.033406267059
  0
INSERT
  5
4F
330
17
100
AcDbEntity
  8
0
 62
7
100
AcDbBlockReference
  2
HL003-2-2
 10
1185.6899791144679
 20
1041.533406267059
 30
0.0
 50
180.0
  0
INSERT
  5
51
330
17
100
AcDbEntity
  8
0
 62
7
100
AcDbBlockReference
  2
HL035-1-1
 10
780.205972398282
 20
965.533406267059
 30
0.0
  0
LWPOLYLINE
  5
53
330
17
100
AcDbEntity
  8
0
  6
HIDDEN2
 48
3.0
100
AcDbPolyline
 90
4
 70
1
 10
749.9566514169564
 20
1052.533406267059
 10
809.9566514169564
 20
1052.533406267059
 10
809.9566514169564
 20
982.533406267059
 10
749.9566514169564
 20
982.533406267059
  0
LWPOLYLINE
  5
54
330
17
100
AcDbEntity
  8
0
 62
7
100
AcDbPolyline
 90
12
 70
1
 10
2569.5757152800215
 20
1738.533406267059
 10
2569.5757152800215
 20
1748.533406267059
 10
2586.575715280007
 20
1748.533406267059
 10
2586.575715280007
 20
952.533406267059
 10
2569.5757152800215
 20
952.533406267059
 10
2569.5757152800215
 20
962.533406267059
 10
2568.5757152800215
 20
962.533406267059
 10
2568.5757152800215
 20
951.533406267059
 10
2587.575715280036
 20
951.533406267059
 10
2587.575715280036
 20
1749.533406267059
 10
2568.5757152800215
 20
1749.533406267059
 10
2568.5757152800215
 20
1738.533406267059
  0
LWPOLYLINE
  5
55
330
17
100
AcDbEntity
  8
0
 62
7
100
AcDbPolyline
 90
12
 70
1
 10
2418.575715280007
 20
1750.533406267059
 10
2418.575715280007
 20
1750.533406267059
 10
2418.575715280007
 20
1749.533406267059
 10
2566.5757152800215
 20
1749.533406267059
 10
2566.5757152800215
 20
1724.533406267059
 10
2554.5757152800215
 20
1724.533406267059
 10
2554.5757152800215
 20
1723.533406267059
 10
2567.5757152800215
 20
1723.533406267059
 10
2567.5757152800215
 20
1750.533406267059
 10
2417.5757152800215
 20
1750.533406267059
 10
2417.5757152800215
 20
1750.533406267059
 10
2418.575715280007
 20
1750.533406267059
  0
LWPOLYLINE
  5
56
330
17
100
AcDbEntity
  8
0
 62
7
100
AcDbPolyline
 90
8
 70
0
 10
2428.575715280036
 20
950.533406267059
 10
2417.5757152800215
 20
950.533406267059
 10
2417.5757152800215
 20
1750.533406267059
 10
2418.575715280007
 20
1750.533406267059
 10
2418.575715280007
 20
1749.533406267059
 10
2418.575715280007
 20
1749.533406267059
 10
2418.575715280007
 20
951.533406267059
 10
2428.575715280036
 20
951.533406267059
  0
LWPOLYLINE
  5
57
330
17
100
AcDbEntity
  8
0
 62
7
100
AcDbPolyline
 90
11
 70
0
 10
2418.575715280007
 20
951.533406267059
 10
2566.5757152800215
 20
951.533406267059
 10
2566.5757152800215
 20
976.533406267059
 10
2554.5757152800215
 20
976.533406267059
 10
2554.5757152800215
 20
977.533406267059
 10
2567.5757152800215
 20
977.533406267059
 10
2567.5757152800215
 20
950.533406267059
 10
2417.5757152800215
 20
950.533406267059
 10
2417.5757152800215
 20
950.533406267059
 10
2428.575715280036
 20
950.533406267059
 10
2418.575715280007
 20
950.533406267059
  0
DIMENSION
  5
58
330
17
100
AcDbEntity
  8
0
 48
3.0
100
AcDbDimension
280
0
  2
*D3
  3
Dim-25
 10
2587.575715280036
 20
1895.8591438051117
 30
0.0
 11
2502.575715280007
 21
1918.62346849815
 31
0.0
 70
32
 71
5
 42
170.0
 73
0
 74
0
 75
0
100
AcDbAlignedDimension
 13
2417.5757152800215
 23
1750.533406267059
 33
0.0
 14
2587.575715280036
 24
1749.533406267059
 34
0.0
 50
0.0
100
AcDbRotatedDimension
  0
DIMENSION
  5
59
330
17
100
AcDbEntity
  8
0
 48
3.0
100
AcDbDimension
280
0
  2
*D4
  3
Dim-25
 10
2372.239563066105
 20
950.53340626707
 30
0.0
 11
2349.475238373081
 21
1350.5334062670918
 31
0.0
 70
32
 71
5
 42
800.0
 73
0
 74
0
 75
0
100
AcDbAlignedDimension
 13
2417.5757152800215
 23
1750.533406267059
 33
0.0
 14
2417.5757152800215
 24
950.533406267059
 34
0.0
 50
90.0
100
AcDbRotatedDimension
  0
INSERT
  5
5A
330
17
100
AcDbEntity
  8
0
 62
7
370
-3
100
AcDbBlockReference
 66
1
  2
Ampere-Meter-front
 10
624.3233152657049
 20
1496.5336932541322
 30
0.0
  0
ATTRIB
  5
5B
330
5A
100
AcDbEntity
  8
0
100
AcDbText
 10
589.6997423980065
 20
1522.0336932541322
 30
0.0
 40
10.0
  1
A
  7
Tahoma (Input Text)
 72
1
 11
593.8233152657049
 21
1527.0336932541322
 31
0.0
100
AcDbAttribute
  2
BEW-96
 70
0
 74
2
 71
1
 72
0
 11
593.8233152657049
 21
1527.0336932541322
 31
0.0
  0
ATTRIB
  5
5C
330
5A
100
AcDbEntity
  8
0
100
AcDbText
 10
591.3904744329484
 20
1466.0336932541322
 30
0.0
 40
5.0
  1
O
  7
Tahoma (Input Text)
 72
1
 11
593.8233152657049
 21
1468.5336932541322
 31
0.0
100
AcDbAttribute
  2
O
 70
0
 74
2
 71
1
 72
0
 11
593.8233152657049
 21
1468.5336932541322
 31
0.0
  0
ATTRIB
  5
5D
330
5A
100
AcDbEntity
  8
0
100
AcDbText
 10
646.692019093738
 20
1519.5336932540413
 30
0.0
 40
5.0
  1
500
  7
Tahoma (Input Text)
 72
1
 11
652.3233152656467
 21
1522.0336932540413
 31
0.0
100
AcDbAttribute
  2
MAX
 70
0
 74
2
 71
1
 72
0
 11
652.3233152656467
 21
1522.0336932540413
 31
0.0
  0
SEQEND
  5
5E
330
17
100
AcDbEntity
  8
0
370
-3
  0
LWPOLYLINE
  5
5F
330
17
100
AcDbEntity
  8
0
 62
2
100
AcDbPolyline
 90
4
 70
1
 10
578.3233152657049
 20
1542.5336932541322
 10
670.3233152657049
 20
1542.5336932541322
 10
670.3233152657049
 20
1450.5336932541322
 10
578.3233152657049
 20
1450.5336932541322
  0
INSERT
  5
60
330
17
100
AcDbEntity
  8
0
 62
7
370
-3
100
AcDbBlockReference
 66
1
  2
Ampere-Meter-front
 10
518.3233152657049
 20
1496.5336932541322
 30
0.0
  0
ATTRIB
  5
61
330
60
100
AcDbEntity
  8
0
100
AcDbText
 10
483.6997423980065
 20
1522.0336932541322
 30
0.0
 40
10.0
  1
A
  7
Tahoma (Input Text)
 72
1
 11
487.8233152657049
 21
1527.0336932541322
 31
0.0
100
AcDbAttribute
  2
BEW-96
 70
0
 74
2
 71
1
 72
0
 11
487.8233152657049
 21
1527.0336932541322
 31
0.0
  0
ATTRIB
  5
62
330
60
100
AcDbEntity
  8
0
100
AcDbText
 10
485.3904744329484
 20
1466.0336932541322
 30
0.0
 40
5.0
  1
O
  7
Tahoma (Input Text)
 72
1
 11
487.8233152657049
 21
1468.5336932541322
 31
0.0
100
AcDbAttribute
  2
O
 70
0
 74
2
 71
1
 72
0
 11
487.8233152657049
 21
1468.5336932541322
 31
0.0
  0
ATTRIB
  5
63
330
60
100
AcDbEntity
  8
0
100
AcDbText
 10
540.692019093738
 20
1519.5336932540413
 30
0.0
 40
5.0
  1
500
  7
Tahoma (Input Text)
 72
1
 11
546.3233152656467
 21
1522.0336932540413
 31
0.0
100
AcDbAttribute
  2
MAX
 70
0
 74
2
 71
1
 72
0
 11
546.3233152656467
 21
1522.0336932540413
 31
0.0
  0
SEQEND
  5
64
330
17
100
AcDbEntity
  8
0
370
-3
  0
LWPOLYLINE
  5
65
330
17
100
AcDbEntity
  8
0
 62
2
100
AcDbPolyline
 90
4
 70
1
 10
472.3233152657049
 20
1542.5336932541322
 10
564.3233152657049
 20
1542.5336932541322
 10
564.3233152657049
 20
1450.5336932541322
 10
472.3233152657049
 20
1450.5336932541322
  0
INSERT
  5
66
330
17
100
AcDbEntity
  8
0
 62
7
370
-3
100
AcDbBlockReference
 66
1
  2
Ampere-Meter-front
 10
730.3233152657049
 20
1496.5336932541322
 30
0.0
 41
-1.0
  0
ATTRIB
  5
67
330
66
100
AcDbEntity
  8
0
100
AcDbText
 10
756.6997423980647
 20
1522.0336932541322
 30
0.0
 40
10.0
  1
A
  7
Tahoma (Input Text)
 72
1
 11
760.8233152657631
 21
1527.0336932541322
 31
0.0
100
AcDbAttribute
  2
BEW-96
 70
0
 74
2
 71
1
 72
0
 11
760.8233152657631
 21
1527.0336932541322
 31
0.0
  0
ATTRIB
  5
68
330
66
100
AcDbEntity
  8
0
100
AcDbText
 10
758.390474432992
 20
1466.0336932541322
 30
0.0
 40
5.0
  1
O
  7
Tahoma (Input Text)
 72
1
 11
760.8233152657631
 21
1468.5336932541322
 31
0.0
100
AcDbAttribute
  2
O
 70
0
 74
2
 71
1
 72
0
 11
760.8233152657631
 21
1468.5336932541322
 31
0.0
  0
ATTRIB
  5
69
330
66
100
AcDbEntity
  8
0
100
AcDbText
 10
696.5543428010424
 20
1519.5336932540413
 30
0.0
 40
5.0
  1
500
  7
Tahoma (Input Text)
 72
1
 11
702.1856389729655
 21
1522.0336932540413
 31
0.0
100
AcDbAttribute
  2
MAX
 70
0
 74
2
 71
1
 72
0
 11
702.1856389729655
 21
1522.0336932540413
 31
0.0
  0
SEQEND
  5
6A
330
17
100
AcDbEntity
  8
0
370
-3
  0
LWPOLYLINE
  5
6B
330
17
100
AcDbEntity
  8
0
 62
2
100
AcDbPolyline
 90
4
 70
1
 10
776.3233152657049
 20
1542.5336932541322
 10
684.3233152657049
 20
1542.5336932541322
 10
684.3233152657049
 20
1450.5336932541322
 10
776.3233152657049
 20
1450.5336932541322
  0
LWPOLYLINE
  5
6C
330
17
100
AcDbEntity
  8
0
 62
2
 48
3.0
100
AcDbPolyline
 90
4
 70
1
 10
483.3233152657049
 20
1385.533406267059
 10
553.3233152657049
 20
1385.533406267059
 10
553.3233152657049
 20
1315.533406267059
 10
483.3233152657049
 20
1315.533406267059
  0
INSERT
  5
6D
330
17
100
AcDbEntity
  8
0
 62
7
100
AcDbBlockReference
 66
1
  2
Den XANH
 10
679.3233605707646
 20
1604.5337096272015
 30
0.0
  0
ATTRIB
  5
6E
330
6D
100
AcDbEntity
  8
01
  6
Continuous
 62
2
370
5
100
AcDbText
 10
692.8429840220342
 20
1640.5016276164424
 30
0.0
 40
4.0
  1
T
  7
Arial
 72
1
 11
694.5496688787971
 21
1640.5016276164424
 31
0.0
100
AcDbAttribute
  2
T-SP
 70
0
 71
1
 72
0
 11
694.5496688787971
 21
1640.5016276164424
 31
0.0
  0
SEQEND
  5
6F
330
17
100
AcDbEntity
  8
0
 62
7
  0
INSERT
  5
70
330
17
100
AcDbEntity
  8
0
 62
7
100
AcDbBlockReference
 66
1
  2
Den DO
 10
539.3233605707646
 20
1604.5337096272015
 30
0.0
  0
ATTRIB
  5
71
330
70
100
AcDbEntity
  8
01
  6
Continuous
 62
2
370
5
100
AcDbText
 10
552.5319335445383
 20
1640.5016276164424
 30
0.0
 40
4.0
  1
R
  7
Arial
 72
1
 11
554.549668878768
 21
1640.5016276164424
 31
0.0
100
AcDbAttribute
  2
T-SP
 70
0
 71
1
 72
0
 11
554.549668878768
 21
1640.5016276164424
 31
0.0
  0
SEQEND
  5
72
330
17
100
AcDbEntity
  8
0
 62
7
  0
INSERT
  5
73
330
17
100
AcDbEntity
  8
0
 62
7
100
AcDbBlockReference
 66
1
  2
Den VANG
 10
609.3233605707646
 20
1604.5337096272015
 30
0.0
  0
ATTRIB
  5
74
330
73
100
AcDbEntity
  8
01
  6
Continuous
 62
2
370
5
100
AcDbText
 10
622.6860945267981
 20
1640.5016276164424
 30
0.0
 40
4.0
  1
S
  7
Arial
 72
1
 11
624.5496688787971
 21
1640.5016276164424
 31
0.0
100
AcDbAttribute
  2
T-SP
 70
0
 71
1
 72
0
 11
624.5496688787971
 21
1640.5016276164424
 31
0.0
  0
SEQEND
  5
75
330
17
100
AcDbEntity
  8
0
 62
7
  0
LWPOLYLINE
  5
76
330
17
100
AcDbEntity
  8
0
  6
HIDDEN2
 48
3.0
100
AcDbPolyline
 90
4
 70
1
 10
481.3012422426982
 20
1593.8364721015096
 10
776.3012422426691
 20
1593.8364721015096
 10
776.3012422426691
 20
1568.8364721015096
 10
481.3012422426982
 20
1568.8364721015096
  0
LWPOLYLINE
  5
77
330
17
100
AcDbEntity
  8
0
  6
HIDDEN2
 48
3.0
100
AcDbPolyline
 90
4
 70
1
 10
475.4003124869196
 20
1435.8797938303323
 10
782.1755912337685
 20
1435.8797938303323
 10
782.1755912337685
 20
1410.8797938303323
 10
475.4003124869196
 20
1410.8797938303323
  0
DIMENSION
  5
78
330
17
100
AcDbEntity
  8
0
 48
3.0
100
AcDbDimension
280
0
  2
*D5
  3
Dim-25
 10
553.3233152657049
 20
1269.4801615738616
 30
0.0
 11
518.3233152657049
 21
1292.2444862669
 31
0.0
 70
32
 71
5
 42
70.0
 73
0
 74
0
 75
0
100
AcDbAlignedDimension
 13
483.3233152657049
 23
1315.533406267059
 33
0.0
 14
553.3233152657049
 24
1315.533406267059
 34
0.0
 50
0.0
100
AcDbRotatedDimension
  0
DIMENSION
  5
79
330
17
100
AcDbEntity
  8
0
 48
3.0
100
AcDbDimension
280
0
  2
*D6
  3
Dim-25
 10
608.4038136830059
 20
1385.53340626707
 30
0.0
 11
585.6394889899966
 21
1350.5334062670918
 31
0.0
 70
32
 71
5
 42
70.0
 73
0
 74
0
 75
0
100
AcDbAlignedDimension
 13
553.3233152657049
 23
1315.533406267059
 33
0.0
 14
553.3233152657049
 24
1385.533406267059
 34
0.0
 50
90.0
100
AcDbRotatedDimension
  0
INSERT
  5
7A
330
17
100
AcDbEntity
  8
0
 62
7
100
AcDbBlockReference
  2
HL035-1-1
 10
780.205972398282
 20
1735.533406267059
 30
0.0
 41
-1.0
 50
180.0
  0
LWPOLYLINE
  5
7C
330
17
100
AcDbEntity
  8
0
  6
HIDDEN2
 48
3.0
100
AcDbPolyline
 90
4
 70
1
 10
749.9566514169564
 20
1648.533406267059
 10
809.9566514169564
 20
1648.533406267059
 10
809.9566514169564
 20
1718.533406267059
 10
749.9566514169564
 20
1718.533406267059
  0
LWPOLYLINE
  5
7D
330
17
100
AcDbEntity
  8
0
 62
7
100
AcDbPolyline
 90
12
 70
1
 10
2226.0657472439343
 20
538.7013809060991
 10
2236.0657472439343
 20
538.7013809060991
 10
2236.0657472439343
 20
521.7013809060991
 10
1866.0657472439343
 20
521.7013809060991
 10
1866.0657472439343
 20
538.7013809060991
 10
1876.0657472439343
 20
538.7013809060991
 10
1876.0657472439343
 20
539.7013809060991
 10
1865.0657472439343
 20
539.7013809060991
 10
1865.0657472439343
 20
520.7013809060991
 10
2237.0657472439343
 20
520.7013809060991
 10
2237.0657472439343
 20
539.7013809060991
 10
2226.0657472439343
 20
539.7013809060991
  0
LWPOLYLINE
  5
7E
330
17
100
AcDbEntity
  8
0
 48
3.0
100
AcDbPolyline
 90
4
 70
1
 10
1489.0657472439343
 20
1750.533406267059
 10
2239.0657472439343
 20
1750.533406267059
 10
2239.0657472439343
 20
950.533406267059
 10
1489.0657472439343
 20
950.533406267059
  0
LWPOLYLINE
  5
7F
330
17
100
AcDbEntity
  8
0
 48
3.0
100
AcDbPolyline
 90
4
 70
1
 10
1490.0657472439343
 20
1749.533406267059
 10
2238.0657472439343
 20
1749.533406267059
 10
2238.0657472439343
 20
951.533406267059
 10
1490.0657472439343
 20
951.533406267059
  0
LWPOLYLINE
  5
80
330
17
100
AcDbEntity
  8
0
 48
3.0
100
AcDbPolyline
 90
4
 70
1
 10
1516.0657472439343
 20
1723.533406267059
 10
2212.0657472439343
 20
1723.533406267059
 10
2212.0657472439343
 20
977.533406267059
 10
1516.0657472439343
 20
977.533406267059
  0
LWPOLYLINE
  5
81
330
17
100
AcDbEntity
  8
0
 62
1
 48
3.0
100
AcDbPolyline
 90
4
 70
1
 10
1521.0657472439343
 20
1718.533406267059
 10
2207.0657472439343
 20
1718.533406267059
 10
2207.0657472439343
 20
982.533406267059
 10
1521.0657472439343
 20
982.533406267059
  0
LWPOLYLINE
  5
82
330
17
100
AcDbEntity
  8
0
  6
HIDDEN2
 62
1
 48
3.0
100
AcDbPolyline
 90
4
 70
1
 10
1522.0657472439343
 20
1717.533406267059
 10
2206.0657472439343
 20
1717.533406267059
 10
2206.0657472439343
 20
983.533406267059
 10
1522.0657472439343
 20
983.533406267059
  0
DIMENSION
  5
83
330
17
100
AcDbEntity
  8
0
 48
3.0
100
AcDbDimension
280
0
  2
*D7
  3
Dim-25
 10
2239.0657472439343
 20
1911.18121233676
 30
0.0
 11
1864.0657472439343
 21
1911.18121233676
 31
0.0
 70
160
 71
5
 42
750.0
 73
0
 74
0
 75
0
100
AcDbAlignedDimension
 13
1489.0657472439343
 23
1750.533406267059
 33
0.0
 14
2239.0657472439343
 24
1750.533406267059
 34
0.0
 50
0.0
100
AcDbRotatedDimension
  0
DIMENSION
  5
84
330
17
100
AcDbEntity
  8
0
 48
3.0
100
AcDbDimension
280
0
  2
*D8
  3
Dim-25
 10
1371.3364355891972
 20
950.53340626707
 30
0.0
 11
1348.5721108961443
 21
1350.5334062670918
 31
0.0
 70
32
 71
5
 42
800.0
 73
0
 74
0
 75
0
100
AcDbAlignedDimension
 13
1489.0657472439343
 23
1750.533406267059
 33
0.0
 14
1437.238125424832
 24
950.533406267059
 34
0.0
 50
90.0
100
AcDbRotatedDimension
  0
LWPOLYLINE
  5
85
330
17
100
AcDbEntity
  8
0
 62
2
100
AcDbPolyline
 90
4
 70
1
 10
1502.5657472439925
 20
1670.0334062670518
 10
1491.5657472439925
 20
1670.0334062670518
 10
1491.5657472439925
 20
1661.033406267059
 10
1502.5657472439925
 20
1661.033406267059
  0
INSERT
  5
86
330
17
100
AcDbEntity
  8
0
 62
7
100
AcDbBlockReference
  2
HL003-2-2
 10
1489.0657472439343
 20
1659.533406267059
 30
0.0
  0
LWPOLYLINE
  5
88
330
17
100
AcDbEntity
  8
0
 62
2
100
AcDbPolyline
 90
4
 70
1
 10
2225.565747243876
 20
1670.0334062670518
 10
2236.565747243876
 20
1670.0334062670518
 10
2236.565747243876
 20
1661.033406267059
 10
2225.565747243876
 20
1661.033406267059
  0
INSERT
  5
89
330
17
100
AcDbEntity
  8
0
 62
7
100
AcDbBlockReference
  2
HL003-2-2
 10
2239.0657472439343
 20
1659.533406267059
 30
0.0
 41
-1.0
  0
LWPOLYLINE
  5
8B
330
17
100
AcDbEntity
  8
0
 62
2
100
AcDbPolyline
 90
4
 70
1
 10
1502.5657472439925
 20
1031.03340626707
 10
1491.5657472439925
 20
1031.03340626707
 10
1491.5657472439925
 20
1040.033406267059
 10
1502.5657472439925
 20
1040.033406267059
  0
INSERT
  5
8C
330
17
100
AcDbEntity
  8
0
 62
7
100
AcDbBlockReference
  2
HL003-2-2
 10
1489.0657472439343
 20
1041.533406267059
 30
0.0
 41
-1.0
 50
180.0
  0
LWPOLYLINE
  5
8E
330
17
100
AcDbEntity
  8
0
 62
2
100
AcDbPolyline
 90
4
 70
1
 10
2225.565747243876
 20
1031.03340626707
 10
2236.565747243876
 20
1031.03340626707
 10
2236.565747243876
 20
1040.033406267059
 10
2225.565747243876
 20
1040.033406267059
  0
INSERT
  5
8F
330
17
100
AcDbEntity
  8
0
 62
7
100
AcDbBlockReference
  2
HL003-2-2
 10
2239.0657472439343
 20
1041.533406267059
 30
0.0
 50
180.0
  0
LWPOLYLINE
  5
91
330
17
100
AcDbEntity
  8
0
 62
7
100
AcDbPolyline
 90
12
 70
1
 10
2213.0657472439343
 20
679.7013809060991
 10
2213.0657472439343
 20
689.7013809060991
 10
2238.0657472439343
 20
689.7013809060991
 10
2238.0657472439343
 20
541.7013809060991
 10
2213.0657472439343
 20
541.7013809060991
 10
2213.0657472439343
 20
553.7013809060991
 10
2212.0657472439343
 20
553.7013809060991
 10
2212.0657472439343
 20
540.7013809060991
 10
2239.0657472439343
 20
540.7013809060991
 10
2239.0657472439343
 20
690.7013809060991
 10
2212.0657472439343
 20
690.7013809060991
 10
2212.0657472439343
 20
679.7013809060991
  0
LWPOLYLINE
  5
92
330
17
100
AcDbEntity
  8
0
 62
7
100
AcDbPolyline
 90
8
 70
1
 10
2211.0657472439343
 20
679.7013809060991
 10
2211.0657472439343
 20
689.7013809060991
 10
1517.0657472439343
 20
689.7013809060991
 10
1517.0657472439343
 20
679.7013809060991
 10
1516.0657472439343
 20
679.7013809060991
 10
1516.0657472439343
 20
690.7013809060991
 10
2212.0657472439343
 20
690.7013809060991
 10
2212.0657472439343
 20
679.7013809060991
  0
LWPOLYLINE
  5
93
330
17
100
AcDbEntity
  8
0
 62
7
100
AcDbPolyline
 90
12
 70
1
 10
1515.0657472439343
 20
679.7013809060991
 10
1515.0657472439343
 20
689.7013809060991
 10
1490.0657472439343
 20
689.7013809060991
 10
1490.0657472439343
 20
541.7013809060991
 10
1515.0657472439343
 20
541.7013809060991
 10
1515.0657472439343
 20
553.7013809060991
 10
1516.0657472439343
 20
553.7013809060991
 10
1516.0657472439343
 20
540.7013809060991
 10
1489.0657472439343
 20
540.7013809060991
 10
1489.0657472439343
 20
690.7013809060991
 10
1516.0657472439343
 20
690.7013809060991
 10
1516.0657472439343
 20
679.7013809060991
  0
INSERT
  5
94
330
17
100
AcDbEntity
  8
0
 62
7
100
AcDbBlockReference
  2
HL003-2-3
 10
2222.0657472439198
 20
540.7013809060991
 30
0.0
 41
-1.0
 50
180.0
  0
LWPOLYLINE
  5
96
330
17
100
AcDbEntity
  8
0
 62
7
100
AcDbPolyline
 90
12
 70
1
 10
1877.0657472439343
 20
541.7013809060991
 10
1862.0657472439343
 20
541.7013809060991
 10
1862.0657472439343
 20
521.7013809060991
 10
1492.0657472439343
 20
521.7013809060991
 10
1492.0657472439343
 20
538.7013809060991
 10
1502.0657472439343
 20
538.7013809060991
 10
1502.0657472439343
 20
539.7013809060991
 10
1491.0657472439343
 20
539.7013809060991
 10
1491.0657472439343
 20
520.7013809060991
 10
1863.0657472439343
 20
520.7013809060991
 10
1863.0657472439343
 20
540.7013809060991
 10
1877.0657472439343
 20
540.7013809060991
  0
INSERT
  5
97
330
17
100
AcDbEntity
  8
0
 62
7
100
AcDbBlockReference
  2
HL003-2-3
 10
1506.0657472439343
 20
540.7013809060991
 30
0.0
 50
180.0
  0
DIMENSION
  5
99
330
17
100
AcDbEntity
  8
0
 48
3.0
100
AcDbDimension
280
0
  2
*D9
  3
Dim-25
 10
1441.0356345312466
 20
520.70138090611
 30
0.0
 11
1418.2713098382083
 21
605.7013809061318
 31
0.0
 70
32
 71
5
 42
170.0
 73
0
 74
0
 75
0
100
AcDbAlignedDimension
 13
1489.0657472439343
 23
690.7013809060991
 33
0.0
 14
1491.0657472439343
 24
520.7013809060991
 34
0.0
 50
90.0
100
AcDbRotatedDimension
  0
LWPOLYLINE
  5
9A
330
17
100
AcDbEntity
  8
0
 62
7
100
AcDbPolyline
 90
8
 70
1
 10
1861.0657472439343
 20
521.7013809060991
 10
1861.0657472439343
 20
552.7013809060991
 10
1803.0657472439343
 20
552.7013809060991
 10
1803.0657472439343
 20
521.7013809060991
 10
1802.0657472439343
 20
521.7013809060991
 10
1802.0657472439343
 20
553.7013809060991
 10
1862.0657472439343
 20
553.7013809060991
 10
1862.0657472439343
 20
521.7013809060991
  0
CIRCLE
  5
9B
330
17
100
AcDbEntity
  8
0
 62
2
100
AcDbCircle
 10
1832.3151294208947
 20
558.2013809060991
 30
0.0
 40
4.0
  0
INSERT
  5
9C
330
17
100
AcDbEntity
  8
0
 62
7
100
AcDbBlockReference
  2
HL035-1-3
 10
1832.3151294208947
 20
558.2013809060991
 30
0.0
 41
-1.0
 50
180.0
  0
LINE
  5
9E
330
17
100
AcDbEntity
  8
0
 48
3.0
100
AcDbLine
 10
1516.0657472439343
 20
1723.533406267059
 30
0.0
 11
1489.0657472439343
 21
1750.533406267059
 31
0.0
  0
LINE
  5
9F
330
17
100
AcDbEntity
  8
0
 48
3.0
100
AcDbLine
 10
2239.0657472439343
 20
1750.533406267059
 30
0.0
 11
2212.0657472439343
 21
1723.533406267059
 31
0.0
  0
LINE
  5
A0
330
17
100
AcDbEntity
  8
0
 48
3.0
100
AcDbLine
 10
2212.0657472439343
 20
977.533406267059
 30
0.0
 11
2239.0657472439343
 21
950.533406267059
 31
0.0
  0
LINE
  5
A1
330
17
100
AcDbEntity
  8
0
 48
3.0
100
AcDbLine
 10
1516.0657472439343
 20
977.533406267059
 30
0.0
 11
1489.0657472439343
 21
950.533406267059
 31
0.0
  0
LWPOLYLINE
  5
A2
330
17
100
AcDbEntity
  8
0
 62
1
100
AcDbPolyline
 90
8
 70
1
 10
2206.0657472439343
 20
689.7013809060991
 10
2206.0657472439343
 20
674.7013809060991
 10
1522.0657472439343
 20
674.7013809060991
 10
1522.0657472439343
 20
689.7013809060991
 10
1521.0657472439343
 20
689.7013809060991
 10
1521.0657472439343
 20
673.7013809060991
 10
2207.0657472439343
 20
673.7013809060991
 10
2207.0657472439343
 20
689.7013809060991
  0
LWPOLYLINE
  5
A3
330
17
100
AcDbEntity
  8
0
 62
1
100
AcDbPolyline
 90
8
 70
1
 10
2418.575715280007
 20
983.533406267059
 10
2433.575715280007
 20
983.533406267059
 10
2433.575715280007
 20
1717.533406267059
 10
2418.575715280007
 20
1717.533406267059
 10
2418.575715280007
 20
1718.533406267059
 10
2434.575715280007
 20
1718.533406267059
 10
2434.575715280007
 20
982.533406267059
 10
2418.575715280007
 20
982.533406267059
  0
LWPOLYLINE
  5
A4
330
17
100
AcDbEntity
  8
0
 62
2
100
AcDbPolyline
 90
6
 70
1
 10
2460.5757152800215
 20
1650.533406267059
 10
2524.5757152800215
 20
1650.533406267059
 42
-0.4142135623730951
 10
2532.575715280007
 20
1642.533406267059
 10
2532.575715280007
 20
1639.533406267059
 10
2452.5757152800215
 20
1639.533406267059
 10
2452.5757152800215
 20
1642.533406267059
 42
-0.4142135623730951
  0
LWPOLYLINE
  5
A5
330
17
100
AcDbEntity
  8
0
 62
2
100
AcDbPolyline
 90
6
 70
1
 10
2460.5757152800215
 20
1619.533406267059
 10
2524.5757152800215
 20
1619.533406267059
 42
-0.4142135623730951
 10
2532.575715280007
 20
1611.533406267059
 10
2532.575715280007
 20
1608.533406267059
 10
2452.5757152800215
 20
1608.533406267059
 10
2452.5757152800215
 20
1611.533406267059
 42
-0.4142135623730951
  0
LWPOLYLINE
  5
A6
330
17
100
AcDbEntity
  8
0
 62
2
100
AcDbPolyline
 90
6
 70
1
 10
2460.5757152800215
 20
1588.533406267059
 10
2524.5757152800215
 20
1588.533406267059
 42
-0.4142135623730951
 10
2532.575715280007
 20
1580.533406267059
 10
2532.575715280007
 20
1577.533406267059
 10
2452.5757152800215
 20
1577.533406267059
 10
2452.5757152800215
 20
1580.533406267059
 42
-0.4142135623730951
  0
LWPOLYLINE
  5
A7
330
17
100
AcDbEntity
  8
0
 62
2
100
AcDbPolyline
 90
6
 70
1
 10
2460.5757152800215
 20
1557.533406267059
 10
2524.5757152800215
 20
1557.533406267059
 42
-0.4142135623730951
 10
2532.575715280007
 20
1549.533406267059
 10
2532.575715280007
 20
1546.533406267059
 10
2452.5757152800215
 20
1546.533406267059
 10
2452.5757152800215
 20
1549.533406267059
 42
-0.4142135623730951
  0
LWPOLYLINE
  5
A8
330
17
100
AcDbEntity
  8
0
 62
2
100
AcDbPolyline
 90
6
 70
1
 10
2460.5757152800215
 20
1526.533406267059
 10
2524.5757152800215
 20
1526.533406267059
 42
-0.4142135623730951
 10
2532.575715280007
 20
1518.533406267059
 10
2532.575715280007
 20
1515.533406267059
 10
2452.5757152800215
 20
1515.533406267059
 10
2452.5757152800215
 20
1518.533406267059
 42
-0.4142135623730951
  0
LWPOLYLINE
  5
A9
330
17
100
AcDbEntity
  8
0
 62
2
100
AcDbPolyline
 90
6
 70
1
 10
2460.5757152800215
 20
1185.533406267059
 10
2524.5757152800215
 20
1185.533406267059
 42
-0.4142135623730951
 10
2532.575715280007
 20
1177.533406267059
 10
2532.575715280007
 20
1174.533406267059
 10
2452.5757152800215
 20
1174.533406267059
 10
2452.5757152800215
 20
1177.533406267059
 42
-0.4142135623730951
  0
LWPOLYLINE
  5
AA
330
17
100
AcDbEntity
  8
0
 62
2
100
AcDbPolyline
 90
6
 70
1
 10
2460.5757152800215
 20
1154.533406267059
 10
2524.5757152800215
 20
1154.533406267059
 42
-0.4142135623730951
 10
2532.575715280007
 20
1146.533406267059
 10
2532.575715280007
 20
1143.533406267059
 10
2452.5757152800215
 20
1143.533406267059
 10
2452.5757152800215
 20
1146.533406267059
 42
-0.4142135623730951
  0
LWPOLYLINE
  5
AB
330
17
100
AcDbEntity
  8
0
 62
2
100
AcDbPolyline
 90
6
 70
1
 10
2460.5757152800215
 20
1123.533406267059
 10
2524.5757152800215
 20
1123.533406267059
 42
-0.4142135623730951
 10
2532.575715280007
 20
1115.533406267059
 10
2532.575715280007
 20
1112.533406267059
 10
2452.5757152800215
 20
1112.533406267059
 10
2452.5757152800215
 20
1115.533406267059
 42
-0.4142135623730951
  0
LWPOLYLINE
  5
AC
330
17
100
AcDbEntity
  8
0
 62
2
100
AcDbPolyline
 90
6
 70
1
 10
2460.5757152800215
 20
1092.533406267059
 10
2524.5757152800215
 20
1092.533406267059
 42
-0.4142135623730951
 10
2532.575715280007
 20
1084.533406267059
 10
2532.575715280007
 20
1081.533406267059
 10
2452.5757152800215
 20
1081.533406267059
 10
2452.5757152800215
 20
1084.533406267059
 42
-0.4142135623730951
  0
LWPOLYLINE
  5
AD
330
17
100
AcDbEntity
  8
0
 62
2
100
AcDbPolyline
 90
6
 70
1
 10
2460.5757152800215
 20
1061.533406267059
 10
2524.5757152800215
 20
1061.533406267059
 42
-0.4142135623730951
 10
2532.575715280007
 20
1053.533406267059
 10
2532.575715280007
 20
1050.533406267059
 10
2452.5757152800215
 20
1050.533406267059
 10
2452.5757152800215
 20
1053.533406267059
 42
-0.4142135623730951
  0
INSERT
  5
AE
330
17
100
AcDbEntity
  8
0
 62
7
100
AcDbBlockReference
  2
AB301-2-1
 10
871.9566514169564
 20
1385.7834062670518
 30
0.0
  0
LWPOLYLINE
  5
B0
330
17
100
AcDbEntity
  8
0
  6
HIDDENX2
 48
3.0
100
AcDbPolyline
 90
4
 70
1
 10
1701.5657472439343
 20
1712.533406267059
 10
1726.5657472439198
 20
1712.533406267059
 10
1726.5657472439198
 20
988.533406267059
 10
1701.5657472439343
 20
988.533406267059
  0
LWPOLYLINE
  5
B1
330
17
100
AcDbEntity
  8
0
  6
HIDDENX2
 48
3.0
100
AcDbPolyline
 90
4
 70
1
 10
2026.5657472439343
 20
1712.533406267059
 10
2001.5657472439343
 20
1712.533406267059
 10
2001.5657472439343
 20
983.533406267059
 10
2026.5657472439343
 20
983.533406267059
  0
MTEXT
  5
B2
330
17
100
AcDbEntity
  8
0
 62
2
100
AcDbMText
 10
1849.8992561582709
 20
1283.6178999983822
 30
0.0
 40
25.0
 41
775.0000000000146
 46
100.0000000000031
 71
5
 72
5
  1
tăng cứng\P panel
  0
LEADER
  5
B3
330
17
100
AcDbEntity
  8
0
 48
3.0
100
AcDbLeader
  3
CNC
 73
3
 76
3
 10
1726.5657472439198
 20
1350.533406267059
 30
0.0
 10
1776.7364656443242
 20
1236.6921397588412
 30
0.0
 10
1948.4954056604765
 20
1236.6921397588412
 30
0.0
  0
MTEXT
  5
B4
330
17
100
AcDbEntity
  8
0
 62
2
100
AcDbMText
 10
820.320217311848
 20
858.8975402749493
 30
0.0
 40
25.0
 41
775.0000000000146
 46
100.0000000000031
 71
5
 72
5
  1
mặt ngoài tủ 
  0
MTEXT
  5
B5
330
17
100
AcDbEntity
  8
0
 62
2
100
AcDbMText
 10
1868.7972927936353
 20
879.313555782719
 30
0.0
 40
25.0
 41
775.0000000000146
 46
100.0000000000031
 71
5
 72
5
  1
mặt trong tủ 
  0
MTEXT
  5
B6
330
17
100
AcDbEntity
  8
0
 62
2
100
AcDbMText
 10
1846.5599646577757
 20
473.144966576132
 30
0.0
 40
25.0
 41
775.0000000000146
 46
100.0000000000031
 71
5
 72
5
  1
Đáy tủ
  0
MTEXT
  5
B7
330
17
100
AcDbEntity
  8
0
 62
2
100
AcDbMText
 10
783.7288055452518
 20
467.5976263728189
 30
0.0
 40
25.0
 41
775.0000000000146
 46
100.0000000000031
 71
5
 72
5
  1
Nóc tủ
  0
MTEXT
  5
B8
330
17
100
AcDbEntity
  8
0
 62
2
100
AcDbMText
 10
2502.112753185458
 20
879.313555782719
 30
0.0
 40
25.0
 41
775.0000000000146
 46
100.0000000000031
 71
5
 72
5
  1
hông tủ
  0
DIMENSION
  5
B9
330
17
100
AcDbEntity
  8
0
 48
3.0
100
AcDbDimension
280
0
  2
*D10
  3
Dim-25
 10
1516.0657472439343
 20
895.0338087017917
 30
0.0
 11
1552.1847786218277
 21
917.5849683197921
 31
0.0
 70
32
 71
5
 42
27.0
 73
0
 74
0
 75
0
100
AcDbAlignedDimension
 13
1489.0657472439343
 23
950.533406267059
 33
0.0
 14
1516.0657472439343
 24
977.533406267059
 34
0.0
 50
0.0
100
AcDbRotatedDimension
  0
CIRCLE
  5
BA
330
17
100
AcDbEntity
  8
0
 62
2
 48
3.0
100
AcDbCircle
 10
1542.0657472439343
 20
1697.533406267059
 30
0.0
 40
2.5
  0
CIRCLE
  5
BB
330
17
100
AcDbEntity
  8
0
 62
2
 48
3.0
100
AcDbCircle
 10
1542.0657472439343
 20
1697.533406267059
 30
0.0
 40
6.5
  0
CIRCLE
  5
BC
330
17
100
AcDbEntity
  8
0
 62
2
 48
3.0
100
AcDbCircle
 10
2186.0657472439343
 20
1697.533406267059
 30
0.0
 40
2.5
  0
CIRCLE
  5
BD
330
17
100
AcDbEntity
  8
0
 62
2
 48
3.0
100
AcDbCircle
 10
2186.0657472439343
 20
1697.533406267059
 30
0.0
 40
6.5
  0
CIRCLE
  5
BE
330
17
100
AcDbEntity
  8
0
 62
2
 48
3.0
100
AcDbCircle
 10
1542.0657472439343
 20
1003.533406267059
 30
0.0
 40
2.5
  0
CIRCLE
  5
BF
330
17
100
AcDbEntity
  8
0
 62
2
 48
3.0
100
AcDbCircle
 10
1542.0657472439343
 20
1003.533406267059
 30
0.0
 40
6.5
  0
CIRCLE
  5
C0
330
17
100
AcDbEntity
  8
0
 62
2
 48
3.0
100
AcDbCircle
 10
2186.0657472439343
 20
1003.533406267059
 30
0.0
 40
2.5
  0
CIRCLE
  5
C1
330
17
100
AcDbEntity
  8
0
 62
2
 48
3.0
100
AcDbCircle
 10
2186.0657472439343
 20
1003.533406267059
 30
0.0
 40
6.5
  0
LWPOLYLINE
  5
C2
330
17
100
AcDbEntity
  8
0
 62
2
100
AcDbPolyline
 90
4
 70
1
 10
1545.1990833951859
 20
658.7013809060991
 10
1745.1990833951859
 20
658.7013809060991
 10
1745.1990833951859
 20
588.7013809060991
 10
1545.1990833951859
 20
588.7013809060991
  0
HATCH
  5
C3
330
17
100
AcDbEntity
  8
0
 48
3.0
100
AcDbHatch
 10
0.0
 20
0.0
 30
0.0
210
0.0
220
0.0
230
1.0
  2
ANSI31
 70
0
 71
0
 91
1
 92
1
 93
4
 72
1
 10
1549.1990833951859
 20
654.7013809060991
 11
1741.1990833951859
 21
654.7013809060991
 72
1
 10
1741.1990833951859
 20
654.7013809060991
 11
1741.1990833951859
 21
592.7013809060991
 72
1
 10
1741.1990833951859
 20
592.7013809060991
 11
1549.1990833951859
 21
592.7013809060991
 72
1
 10
1549.1990833951859
 20
592.7013809060991
 11
1549.1990833951859
 21
654.7013809060991
 97
1
330
103583
 75
0
 76
1
 52
0.0
 41
50.0
 77
0
 78
1
 53
45.0
 43
-23145881.314142
 44
-1568865.4153736297
 45
-220.9708691208
 46
220.9708691208
 79
0
 98
1
 10
-462917.62628284
 20
-31377.30830747259
  0
LWPOLYLINE
  5
C4
330
17
100
AcDbEntity
  8
0
 62
2
100
AcDbPolyline
 90
4
 70
1
 10
1549.1990833951859
 20
654.7013809060991
 10
1741.1990833951859
 20
654.7013809060991
 10
1741.1990833951859
 20
592.7013809060991
 10
1549.1990833951859
 20
592.7013809060991
  0
LINE
  5
C5
330
17
100
AcDbEntity
  8
0
 48
3.0
100
AcDbLine
 10
1561.802651973092
 20
658.7013809060991
 30
0.0
 11
1561.802651973092
 21
654.7013809060991
 31
0.0
  0
LINE
  5
C6
330
17
100
AcDbEntity
  8
0
 48
3.0
100
AcDbLine
 10
1562.8026519730774
 20
658.7013809060991
 30
0.0
 11
1562.8026519730774
 21
654.7013809060991
 31
0.0
  0
LINE
  5
C7
330
17
100
AcDbEntity
  8
0
 48
3.0
100
AcDbLine
 10
1561.802651973092
 20
588.7013809060991
 30
0.0
 11
1561.802651973092
 21
592.7013809060991
 31
0.0
  0
LINE
  5
C8
330
17
100
AcDbEntity
  8
0
 48
3.0
100
AcDbLine
 10
1562.8026519730774
 20
588.7013809060991
 30
0.0
 11
1562.8026519730774
 21
592.7013809060991
 31
0.0
  0
LINE
  5
C9
330
17
100
AcDbEntity
  8
0
 48
3.0
100
AcDbLine
 10
1728.5955148172943
 20
658.7013809060991
 30
0.0
 11
1728.5955148172943
 21
654.7013809060991
 31
0.0
  0
LINE
  5
CA
330
17
100
AcDbEntity
  8
0
 48
3.0
100
AcDbLine
 10
1727.5955148172652
 20
658.7013809060991
 30
0.0
 11
1727.5955148172652
 21
654.7013809060991
 31
0.0
  0
LINE
  5
CB
330
17
100
AcDbEntity
  8
0
 48
3.0
100
AcDbLine
 10
1728.5955148172943
 20
588.7013809060991
 30
0.0
 11
1728.5955148172943
 21
592.7013809060991
 31
0.0
  0
LINE
  5
CC
330
17
100
AcDbEntity
  8
0
 48
3.0
100
AcDbLine
 10
1727.5955148172652
 20
588.7013809060991
 30
0.0
 11
1727.5955148172652
 21
592.7013809060991
 31
0.0
  0
LWPOLYLINE
  5
CD
330
17
100
AcDbEntity
  8
0
 62
2
100
AcDbPolyline
 90
4
 70
1
 10
2182.9324110926973
 20
658.7013809060991
 10
1982.9324110926682
 20
658.7013809060991
 10
1982.9324110926682
 20
588.7013809060991
 10
2182.9324110926973
 20
588.7013809060991
  0
HATCH
  5
CE
330
17
100
AcDbEntity
  8
0
 48
3.0
100
AcDbHatch
 10
0.0
 20
0.0
 30
0.0
210
0.0
220
0.0
230
1.0
  2
ANSI31
 70
0
 71
0
 91
1
 92
1
 93
4
 72
1
 10
2178.9324110926827
 20
654.7013809060991
 11
1986.9324110926827
 21
654.7013809060991
 72
1
 10
1986.9324110926827
 20
654.7013809060991
 11
1986.9324110926827
 21
592.7013809060991
 72
1
 10
1986.9324110926827
 20
592.7013809060991
 11
2178.9324110926827
 21
592.7013809060991
 72
1
 10
2178.9324110926827
 20
592.7013809060991
 11
2178.9324110926827
 21
654.7013809060991
 97
1
330
10358E
 75
0
 76
1
 52
0.0
 41
50.0
 77
0
 78
1
 53
135.0
 43
14259240.97579653
 44
-1568865.4153736297
 45
220.9708691208
 46
220.9708691208
 79
0
 98
1
 10
285184.8195159306
 20
-31377.30830747259
  0
LWPOLYLINE
  5
CF
330
17
100
AcDbEntity
  8
0
 62
2
100
AcDbPolyline
 90
4
 70
1
 10
2178.9324110926827
 20
654.7013809060991
 10
1986.9324110926827
 20
654.7013809060991
 10
1986.9324110926827
 20
592.7013809060991
 10
2178.9324110926827
 20
592.7013809060991
  0
LINE
  5
D0
330
17
100
AcDbEntity
  8
0
 48
3.0
100
AcDbLine
 10
2166.3288425147766
 20
658.7013809060991
 30
0.0
 11
2166.3288425147766
 21
654.7013809060991
 31
0.0
  0
LINE
  5
D1
330
17
100
AcDbEntity
  8
0
 48
3.0
100
AcDbLine
 10
2165.3288425147766
 20
658.7013809060991
 30
0.0
 11
2165.3288425147766
 21
654.7013809060991
 31
0.0
  0
LINE
  5
D2
330
17
100
AcDbEntity
  8
0
 48
3.0
100
AcDbLine
 10
2166.3288425147766
 20
588.7013809060991
 30
0.0
 11
2166.3288425147766
 21
592.7013809060991
 31
0.0
  0
LINE
  5
D3
330
17
100
AcDbEntity
  8
0
 48
3.0
100
AcDbLine
 10
2165.3288425147766
 20
588.7013809060991
 30
0.0
 11
2165.3288425147766
 21
592.7013809060991
 31
0.0
  0
LINE
  5
D4
330
17
100
AcDbEntity
  8
0
 48
3.0
100
AcDbLine
 10
1999.5359796705743
 20
658.7013809060991
 30
0.0
 11
1999.5359796705743
 21
654.7013809060991
 31
0.0
  0
LINE
  5
D5
330
17
100
AcDbEntity
  8
0
 48
3.0
100
AcDbLine
 10
2000.5359796706034
 20
658.7013809060991
 30
0.0
 11
2000.5359796706034
 21
654.7013809060991
 31
0.0
  0
LINE
  5
D6
330
17
100
AcDbEntity
  8
0
 48
3.0
100
AcDbLine
 10
1999.5359796705743
 20
588.7013809060991
 30
0.0
 11
1999.5359796705743
 21
592.7013809060991
 31
0.0
  0
LINE
  5
D7
330
17
100
AcDbEntity
  8
0
 48
3.0
100
AcDbLine
 10
2000.5359796706034
 20
588.7013809060991
 30
0.0
 11
2000.5359796706034
 21
592.7013809060991
 31
0.0
  0
DIMENSION
  5
D8
330
17
100
AcDbEntity
  8
0
 48
3.0
100
AcDbDimension
280
0
  2
*D11
  3
Dim-25
 10
2239.0657472439343
 20
734.4986346217302
 30
0.0
 11
1864.0657472439343
 21
757.2629593147722
 31
0.0
 70
32
 71
5
 42
750.0
 73
0
 74
0
 75
0
100
AcDbAlignedDimension
 13
1489.0657472439343
 23
690.7013809060991
 33
0.0
 14
2239.0657472439343
 24
690.7013809060991
 34
0.0
 50
0.0
100
AcDbRotatedDimension
  0
CIRCLE
  5
D9
330
17
100
AcDbEntity
  8
0
 62
2
 48
3.0
100
AcDbCircle
 10
1502.5657472439343
 20
1705.533406267059
 30
0.0
 40
6.5
  0
LEADER
  5
DA
330
17
100
AcDbEntity
  8
0
 48
3.0
100
AcDbLeader
  3
Dim-25
 73
3
 76
3
 10
1502.5657472439343
 20
1705.533406267059
 30
0.0
 10
1784.5276642615354
 20
1818.1970986202396
 30
0.0
 10
1995.8204257834004
 20
1818.1970986202396
 30
0.0
  0
LEADER
  5
DB
330
17
100
AcDbEntity
  8
0
 48
3.0
100
AcDbLeader
  3
Dim-25
 73
3
 76
2
 10
2225.5657472439343
 20
1705.533406267059
 30
0.0
 10
1784.5276642615354
 20
1818.1970986202396
 30
0.0
  0
MTEXT
  5
DC
330
17
100
AcDbEntity
  8
0
 62
2
100
AcDbMText
 10
1903.6408680103486
 20
1854.9984257971519
 30
0.0
 40
25.0
 41
775.0000000000146
 46
100.0000000000031
 71
5
 72
5
  1
lỗ treo tủ
  0
CIRCLE
  5
DD
330
17
100
AcDbEntity
  8
0
 62
2
 48
3.0
100
AcDbCircle
 10
2225.5657472439343
 20
1705.533406267059
 30
0.0
 40
6.5
  0
CIRCLE
  5
DE
330
17
100
AcDbEntity
  8
0
 62
2
 48
3.0
100
AcDbCircle
 10
1502.5657472439343
 20
995.533406267059
 30
0.0
 40
6.5
  0
CIRCLE
  5
DF
330
17
100
AcDbEntity
  8
0
 62
2
 48
3.0
100
AcDbCircle
 10
2225.5657472439343
 20
995.533406267059
 30
0.0
 40
6.5
  0
DIMENSION
  5
E0
330
17
100
AcDbEntity
  8
0
 48
3.0
100
AcDbDimension
280
0
  2
*D12
  3
Dim-25
 10
1499.5322481730545
 20
1699.7846774173122
 30
0.0
 11
1584.9584689620679
 21
1861.6743528400293
 31
0.0
 70
163
 71
5
 42
13.00000000003638
 73
0
 74
0
 75
0
100
AcDbDiametricDimension
 15
1505.5992463147268
 25
1711.2821351167295
 35
0.0
 40
0.0
  0
LEADER
  5
E1
330
17
100
AcDbEntity
  8
0
 48
3.0
100
AcDbLeader
  3
Dim-25
 73
3
 76
3
 10
1745.1990833951859
 20
641.1169907297299
 30
0.0
 10
1797.5505603119964
 20
569.314977595961
 30
0.0
 10
1954.106199587346
 20
569.314977595961
 30
0.0
  0
MTEXT
  5
E2
330
17
100
AcDbEntity
  8
0
 62
2
100
AcDbMText
 10
1878.8634239885723
 20
611.6707598658104
 30
0.0
 40
25.0
 41
775.0000000000146
 46
100.0000000000031
 71
5
 72
5
  1
{\H0.6x;lỗ khoét \Pđột không đứt} 
  0
LWPOLYLINE
  5
E3
330
17
100
AcDbEntity
  8
0
 62
7
100
AcDbPolyline
 90
12
 70
1
 10
1172.6899791144533
 20
538.7013809060991
 10
1182.6899791144533
 20
538.7013809060991
 10
1182.6899791144533
 20
521.7013809060991
 10
812.6899791144679
 20
521.7013809060991
 10
812.6899791144679
 20
538.7013809060991
 10
822.6899791144533
 20
538.7013809060991
 10
822.6899791144533
 20
539.7013809060991
 10
811.6899791144679
 20
539.7013809060991
 10
811.6899791144679
 20
520.7013809060991
 10
1183.6899791144388
 20
520.7013809060991
 10
1183.6899791144388
 20
539.7013809060991
 10
1172.6899791144533
 20
539.7013809060991
  0
LWPOLYLINE
  5
E4
330
17
100
AcDbEntity
  8
0
 62
7
100
AcDbPolyline
 90
12
 70
1
 10
1159.6899791144533
 20
679.7013809060991
 10
1159.6899791144533
 20
689.7013809060991
 10
1184.6899791144679
 20
689.7013809060991
 10
1184.6899791144679
 20
541.7013809060991
 10
1159.6899791144533
 20
541.7013809060991
 10
1159.6899791144533
 20
553.7013809060991
 10
1158.6899791144533
 20
553.7013809060991
 10
1158.6899791144533
 20
540.7013809060991
 10
1185.6899791144679
 20
540.7013809060991
 10
1185.6899791144679
 20
690.7013809060991
 10
1158.6899791144533
 20
690.7013809060991
 10
1158.6899791144533
 20
679.7013809060991
  0
LWPOLYLINE
  5
E5
330
17
100
AcDbEntity
  8
0
 62
7
100
AcDbPolyline
 90
8
 70
1
 10
1157.6899791144533
 20
679.7013809060991
 10
1157.6899791144533
 20
689.7013809060991
 10
463.6899791144533
 20
689.7013809060991
 10
463.6899791144533
 20
679.7013809060991
 10
462.68997911446786
 20
679.7013809060991
 10
462.68997911446786
 20
690.7013809060991
 10
1158.6899791144533
 20
690.7013809060991
 10
1158.6899791144533
 20
679.7013809060991
  0
LWPOLYLINE
  5
E6
330
17
100
AcDbEntity
  8
0
 62
7
100
AcDbPolyline
 90
12
 70
1
 10
461.68997911446786
 20
679.7013809060991
 10
461.68997911446786
 20
689.7013809060991
 10
436.68997911443876
 20
689.7013809060991
 10
436.68997911443876
 20
541.7013809060991
 10
461.68997911446786
 20
541.7013809060991
 10
461.68997911446786
 20
553.7013809060991
 10
462.68997911446786
 20
553.7013809060991
 10
462.68997911446786
 20
540.7013809060991
 10
435.6899791144533
 20
540.7013809060991
 10
435.6899791144533
 20
690.7013809060991
 10
462.68997911446786
 20
690.7013809060991
 10
462.68997911446786
 20
679.7013809060991
  0
INSERT
  5
E7
330
17
100
AcDbEntity
  8
0
 62
7
100
AcDbBlockReference
  2
HL003-2-3
 10
1168.6899791144388
 20
540.7013809060991
 30
0.0
 41
-1.0
 50
180.0
  0
LWPOLYLINE
  5
E9
330
17
100
AcDbEntity
  8
0
 62
7
100
AcDbPolyline
 90
12
 70
1
 10
823.6899791144533
 20
541.7013809060991
 10
808.6899791144533
 20
541.7013809060991
 10
808.6899791144533
 20
521.7013809060991
 10
438.68997911446786
 20
521.7013809060991
 10
438.68997911446786
 20
538.7013809060991
 10
448.6899791144533
 20
538.7013809060991
 10
448.6899791144533
 20
539.7013809060991
 10
437.68997911446786
 20
539.7013809060991
 10
437.68997911446786
 20
520.7013809060991
 10
809.6899791144533
 20
520.7013809060991
 10
809.6899791144533
 20
540.7013809060991
 10
823.6899791144533
 20
540.7013809060991
  0
INSERT
  5
EA
330
17
100
AcDbEntity
  8
0
 62
7
100
AcDbBlockReference
  2
HL003-2-3
 10
452.68997911446786
 20
540.7013809060991
 30
0.0
 50
180.0
  0
DIMENSION
  5
EC
330
17
100
AcDbEntity
  8
0
 48
3.0
100
AcDbDimension
280
0
  2
*D13
  3
Dim-25
 10
387.6598664017656
 20
520.70138090611
 30
0.0
 11
364.89554170872725
 21
605.7013809061318
 31
0.0
 70
32
 71
5
 42
170.0
 73
0
 74
0
 75
0
100
AcDbAlignedDimension
 13
435.6899791144533
 23
690.7013809060991
 33
0.0
 14
437.68997911446786
 24
520.7013809060991
 34
0.0
 50
90.0
100
AcDbRotatedDimension
  0
LWPOLYLINE
  5
ED
330
17
100
AcDbEntity
  8
0
 62
7
100
AcDbPolyline
 90
8
 70
1
 10
807.6899791144533
 20
521.7013809060991
 10
807.6899791144533
 20
551.7013809060991
 10
749.6899791144679
 20
551.7013809060991
 10
749.6899791144679
 20
521.7013809060991
 10
748.6899791144533
 20
521.7013809060991
 10
748.6899791144533
 20
552.7013809060991
 10
808.6899791144533
 20
552.7013809060991
 10
808.6899791144533
 20
521.7013809060991
  0
CIRCLE
  5
EE
330
17
100
AcDbEntity
  8
0
 62
2
100
AcDbCircle
 10
778.9393612914282
 20
557.2013809060991
 30
0.0
 40
4.0
  0
INSERT
  5
EF
330
17
100
AcDbEntity
  8
0
 62
7
100
AcDbBlockReference
  2
HL035-1-3
 10
778.9393612914282
 20
557.2013809060991
 30
0.0
 41
-1.0
 50
180.0
  0
LWPOLYLINE
  5
F1
330
17
100
AcDbEntity
  8
0
 62
1
100
AcDbPolyline
 90
8
 70
1
 10
1152.6899791144533
 20
689.7013809060991
 10
1152.6899791144533
 20
674.7013809060991
 10
468.68997911446786
 20
674.7013809060991
 10
468.68997911446786
 20
689.7013809060991
 10
467.68997911446786
 20
689.7013809060991
 10
467.68997911446786
 20
673.7013809060991
 10
1153.6899791144679
 20
673.7013809060991
 10
1153.6899791144679
 20
689.7013809060991
  0
LWPOLYLINE
  5
F2
330
17
100
AcDbEntity
  8
0
 62
2
100
AcDbPolyline
 90
4
 70
1
 10
491.8233152657049
 20
658.7013809060991
 10
691.8233152657049
 20
658.7013809060991
 10
691.8233152657049
 20
588.7013809060991
 10
491.8233152657049
 20
588.7013809060991
  0
HATCH
  5
F3
330
17
100
AcDbEntity
  8
0
 48
3.0
100
AcDbHatch
 10
0.0
 20
0.0
 30
0.0
210
0.0
220
0.0
230
1.0
  2
ANSI31
 70
0
 71
0
 91
1
 92
1
 93
4
 72
1
 10
495.8233152657049
 20
654.7013809060991
 11
687.8233152657049
 21
654.7013809060991
 72
1
 10
687.8233152657049
 20
654.7013809060991
 11
687.8233152657049
 21
592.7013809060991
 72
1
 10
687.8233152657049
 20
592.7013809060991
 11
495.8233152657049
 21
592.7013809060991
 72
1
 10
495.8233152657049
 20
592.7013809060991
 11
495.8233152657049
 21
654.7013809060991
 97
1
330
1035B6
 75
0
 76
1
 52
0.0
 41
50.0
 77
0
 78
1
 53
45.0
 43
-23198550.10254847
 44
-1568865.4153736297
 45
-220.9708691208
 46
220.9708691208
 79
0
 98
1
 10
-463971.0020509694
 20
-31377.30830747259
  0
LWPOLYLINE
  5
F4
330
17
100
AcDbEntity
  8
0
 62
2
100
AcDbPolyline
 90
4
 70
1
 10
495.8233152657049
 20
654.7013809060991
 10
687.8233152657049
 20
654.7013809060991
 10
687.8233152657049
 20
592.7013809060991
 10
495.8233152657049
 20
592.7013809060991
  0
LINE
  5
F5
330
17
100
AcDbEntity
  8
0
 48
3.0
100
AcDbLine
 10
508.426883843611
 20
658.7013809060991
 30
0.0
 11
508.426883843611
 21
654.7013809060991
 31
0.0
  0
LINE
  5
F6
330
17
100
AcDbEntity
  8
0
 48
3.0
100
AcDbLine
 10
509.42688384359644
 20
658.7013809060991
 30
0.0
 11
509.42688384359644
 21
654.7013809060991
 31
0.0
  0
LINE
  5
F7
330
17
100
AcDbEntity
  8
0
 48
3.0
100
AcDbLine
 10
508.426883843611
 20
588.7013809060991
 30
0.0
 11
508.426883843611
 21
592.7013809060991
 31
0.0
  0
LINE
  5
F8
330
17
100
AcDbEntity
  8
0
 48
3.0
100
AcDbLine
 10
509.42688384359644
 20
588.7013809060991
 30
0.0
 11
509.42688384359644
 21
592.7013809060991
 31
0.0
  0
LINE
  5
F9
330
17
100
AcDbEntity
  8
0
 48
3.0
100
AcDbLine
 10
675.2197466878133
 20
658.7013809060991
 30
0.0
 11
675.2197466878133
 21
654.7013809060991
 31
0.0
  0
LINE
  5
FA
330
17
100
AcDbEntity
  8
0
 48
3.0
100
AcDbLine
 10
674.2197466877842
 20
658.7013809060991
 30
0.0
 11
674.2197466877842
 21
654.7013809060991
 31
0.0
  0
LINE
  5
FB
330
17
100
AcDbEntity
  8
0
 48
3.0
100
AcDbLine
 10
675.2197466878133
 20
588.7013809060991
 30
0.0
 11
675.2197466878133
 21
592.7013809060991
 31
0.0
  0
LINE
  5
FC
330
17
100
AcDbEntity
  8
0
 48
3.0
100
AcDbLine
 10
674.2197466877842
 20
588.7013809060991
 30
0.0
 11
674.2197466877842
 21
592.7013809060991
 31
0.0
  0
LWPOLYLINE
  5
FD
330
17
100
AcDbEntity
  8
0
 62
2
100
AcDbPolyline
 90
4
 70
1
 10
1129.5566429632163
 20
658.7013809060991
 10
929.5566429631872
 20
658.7013809060991
 10
929.5566429631872
 20
588.7013809060991
 10
1129.5566429632163
 20
588.7013809060991
  0
HATCH
  5
FE
330
17
100
AcDbEntity
  8
0
 48
3.0
100
AcDbHatch
 10
0.0
 20
0.0
 30
0.0
210
0.0
220
0.0
230
1.0
  2
ANSI31
 70
0
 71
0
 91
1
 92
1
 93
4
 72
1
 10
1125.5566429632017
 20
654.7013809060991
 11
933.5566429632017
 21
654.7013809060991
 72
1
 10
933.5566429632017
 20
654.7013809060991
 11
933.5566429632017
 21
592.7013809060991
 72
1
 10
933.5566429632017
 20
592.7013809060991
 11
1125.5566429632017
 21
592.7013809060991
 72
1
 10
1125.5566429632017
 20
592.7013809060991
 11
1125.5566429632017
 21
654.7013809060991
 97
1
330
1035C1
 75
0
 76
1
 52
0.0
 41
50.0
 77
0
 78
1
 53
135.0
 43
14206572.18739006
 44
-1568865.4153736297
 45
220.9708691208
 46
220.9708691208
 79
0
 98
1
 10
284131.4437478012
 20
-31377.30830747259
  0
LWPOLYLINE
  5
FF
330
17
100
AcDbEntity
  8
0
 62
2
100
AcDbPolyline
 90
4
 70
1
 10
1125.5566429632017
 20
654.7013809060991
 10
933.5566429632017
 20
654.7013809060991
 10
933.5566429632017
 20
592.7013809060991
 10
1125.5566429632017
 20
592.7013809060991
  0
LINE
  5
100
330
17
100
AcDbEntity
  8
0
 48
3.0
100
AcDbLine
 10
1112.9530743852956
 20
658.7013809060991
 30
0.0
 11
1112.9530743852956
 21
654.7013809060991
 31
0.0
  0
LINE
  5
101
330
17
100
AcDbEntity
  8
0
 48
3.0
100
AcDbLine
 10
1111.9530743852956
 20
658.7013809060991
 30
0.0
 11
1111.9530743852956
 21
654.7013809060991
 31
0.0
  0
LINE
  5
102
330
17
100
AcDbEntity
  8
0
 48
3.0
100
AcDbLine
 10
1112.9530743852956
 20
588.7013809060991
 30
0.0
 11
1112.9530743852956
 21
592.7013809060991
 31
0.0
  0
LINE
  5
103
330
17
100
AcDbEntity
  8
0
 48
3.0
100
AcDbLine
 10
1111.9530743852956
 20
588.7013809060991
 30
0.0
 11
1111.9530743852956
 21
592.7013809060991
 31
0.0
  0
LINE
  5
104
330
17
100
AcDbEntity
  8
0
 48
3.0
100
AcDbLine
 10
946.1602115411079
 20
658.7013809060991
 30
0.0
 11
946.1602115411079
 21
654.7013809060991
 31
0.0
  0
LINE
  5
105
330
17
100
AcDbEntity
  8
0
 48
3.0
100
AcDbLine
 10
947.1602115411079
 20
658.7013809060991
 30
0.0
 11
947.1602115411079
 21
654.7013809060991
 31
0.0
  0
LINE
  5
106
330
17
100
AcDbEntity
  8
0
 48
3.0
100
AcDbLine
 10
946.1602115411079
 20
588.7013809060991
 30
0.0
 11
946.1602115411079
 21
592.7013809060991
 31
0.0
  0
LINE
  5
107
330
17
100
AcDbEntity
  8
0
 48
3.0
100
AcDbLine
 10
947.1602115411079
 20
588.7013809060991
 30
0.0
 11
947.1602115411079
 21
592.7013809060991
 31
0.0
  0
DIMENSION
  5
108
330
17
100
AcDbEntity
  8
0
 48
3.0
100
AcDbDimension
280
0
  2
*D14
  3
Dim-25
 10
1185.6899791144679
 20
734.4986346217302
 30
0.0
 11
810.6899791144679
 21
757.2629593147722
 31
0.0
 70
32
 71
5
 42
750.0
 73
0
 74
0
 75
0
100
AcDbAlignedDimension
 13
435.6899791144533
 23
690.7013809060991
 33
0.0
 14
1185.6899791144679
 24
690.7013809060991
 34
0.0
 50
0.0
100
AcDbRotatedDimension
  0
LEADER
  5
109
330
17
100
AcDbEntity
  8
0
 48
3.0
100
AcDbLeader
  3
Dim-25
 73
3
 76
3
 10
691.8233152657049
 20
641.1169907297299
 30
0.0
 10
744.1747921825154
 20
569.314977595961
 30
0.0
 10
900.730431457865
 20
569.314977595961
 30
0.0
  0
MTEXT
  5
10A
330
17
100
AcDbEntity
  8
0
 62
2
100
AcDbMText
 10
825.4876558590913
 20
611.6707598658104
 30
0.0
 40
25.0
 41
775.0000000000146
 46
100.0000000000031
 71
5
 72
5
  1
{\H0.6x;lỗ khoét \Pđột không đứt} 
  0
DIMENSION
  5
10B
330
17
100
AcDbEntity
  8
0
 48
3.0
100
AcDbDimension
280
0
  2
*D15
  3
Dim-25
 10
1655.1392245276948
 20
988.53340626707
 30
0.0
 11
1632.5880649096944
 21
1350.5334062670918
 31
0.0
 70
32
 71
5
 42
724.0
 73
0
 74
0
 75
0
100
AcDbAlignedDimension
 13
1701.5657472439343
 23
1712.533406267059
 33
0.0
 14
1701.5657472439343
 24
988.533406267059
 34
0.0
 50
90.0
100
AcDbRotatedDimension
  0
MTEXT
  5
10C
330
17
100
AcDbEntity
  8
0
 62
2
100
AcDbMText
 10
1841.511557569378
 20
1630.6178999983822
 30
0.0
 40
25.0
 41
775.0000000000146
 46
100.0000000000031
 71
5
 72
5
  1
hàn bulong8
  0
LEADER
  5
10D
330
17
100
AcDbEntity
  8
0
 48
3.0
100
AcDbLeader
  3
CNC
 73
3
 76
3
 10
1542.0657472439343
 20
1697.533406267059
 30
0.0
 10
1768.3487670554314
 20
1583.6921397588412
 30
0.0
 10
1940.1077070715983
 20
1583.6921397588412
 30
0.0
  0
DIMENSION
  5
10E
330
17
100
AcDbEntity
  8
0
 48
3.0
100
AcDbDimension
280
0
  2
*D16
  3
Dim-25
 10
680.2029684814042
 20
520.70138090611
 30
0.0
 11
657.4301171853585
 21
484.93194025129196
 31
0.0
 70
32
 71
5
 42
32.0
 73
0
 74
0
 75
0
100
AcDbAlignedDimension
 13
748.6899791144533
 23
552.7013809060991
 33
0.0
 14
749.6899791144679
 24
520.7013809060991
 34
0.0
 50
90.0
100
AcDbRotatedDimension
  0
DIMENSION
  5
10F
330
17
100
AcDbEntity
  8
0
 48
3.0
100
AcDbDimension
280
0
  2
*D17
  3
Dim-25
 10
904.4808135954518
 20
1750.53340626707
 30
0.0
 11
881.7079622994206
 21
1786.3028469219316
 31
0.0
 70
32
 71
5
 42
32.0
 73
0
 74
0
 75
0
100
AcDbAlignedDimension
 13
809.9566514169564
 23
1718.533406267059
 33
0.0
 14
810.6899791144679
 24
1750.533406267059
 34
0.0
 50
90.0
100
AcDbRotatedDimension
  0
INSERT
  5
110
330
17
100
AcDbEntity
  8
0
 62
7
100
AcDbBlockReference
 66
1
  2
Von-nho
 10
730.3233152657049
 20
1350.533406267059
 30
0.0
  0
ATTRIB
  5
111
330
110
100
AcDbEntity
  8
0
 62
6
100
AcDbText
 10
739.5079196642037
 20
1361.2613283284118
 30
0.0
 40
4.0
  1
RN
  7
Tahoma (Input Text)
 72
1
 11
743.0512373270758
 21
1363.2613283284118
 31
0.0
100
AcDbAttribute
  2
RN
 70
0
 74
2
 71
1
 72
0
 11
743.0512373270758
 21
1363.2613283284118
 31
0.0
  0
ATTRIB
  5
112
330
110
100
AcDbEntity
  8
0
 62
6
100
AcDbText
 10
744.954611437628
 20
1348.533406267059
 30
0.0
 40
4.0
  1
SN
  7
Tahoma (Input Text)
 72
1
 11
748.3233152657049
 21
1350.533406267059
 31
0.0
100
AcDbAttribute
  2
SN
 70
0
 74
2
 71
1
 72
0
 11
748.3233152657049
 21
1350.533406267059
 31
0.0
  0
ATTRIB
  5
113
330
110
100
AcDbEntity
  8
0
 62
6
100
AcDbText
 10
739.6100015983975
 20
1335.805484205699
 30
0.0
 40
4.0
  1
TN
  7
Tahoma (Input Text)
 72
1
 11
743.0512373270758
 21
1337.805484205699
 31
0.0
100
AcDbAttribute
  2
TN
 70
0
 74
2
 71
1
 72
0
 11
743.0512373270758
 21
1337.805484205699
 31
0.0
  0
ATTRIB
  5
114
330
110
100
AcDbEntity
  8
0
 62
6
100
AcDbText
 10
728.377042599488
 20
1366.533406267059
 30
0.0
 40
4.0
  1
O
  7
Tahoma (Input Text)
 72
1
 11
730.3233152657049
 21
1368.533406267059
 31
0.0
100
AcDbAttribute
  2
O
 70
0
 74
2
 71
1
 72
0
 11
730.3233152657049
 21
1368.533406267059
 31
0.0
  0
ATTRIB
  5
115
330
110
100
AcDbEntity
  8
0
 62
6
100
AcDbText
 10
709.1829526062065
 20
1348.533406267059
 30
0.0
 40
4.0
  1
ST
  7
Tahoma (Input Text)
 72
1
 11
712.3233152657049
 21
1350.533406267059
 31
0.0
100
AcDbAttribute
  2
ST
 70
0
 74
2
 71
1
 72
0
 11
712.3233152657049
 21
1350.533406267059
 31
0.0
  0
ATTRIB
  5
116
330
110
100
AcDbEntity
  8
0
 62
6
100
AcDbText
 10
714.2387780263962
 20
1335.805484205699
 30
0.0
 40
4.0
  1
TR
  7
Tahoma (Input Text)
 72
1
 11
717.5953932043631
 21
1337.805484205699
 31
0.0
100
AcDbAttribute
  2
TR
 70
0
 74
2
 71
1
 72
0
 11
717.5953932043631
 21
1337.805484205699
 31
0.0
  0
ATTRIB
  5
117
330
110
100
AcDbEntity
  8
0
 62
6
100
AcDbText
 10
714.3556349773571
 20
1361.2613283284118
 30
0.0
 40
4.0
  1
RS
  7
Tahoma (Input Text)
 72
1
 11
717.5953932043631
 21
1363.2613283284118
 31
0.0
100
AcDbAttribute
  2
RS
 70
0
 74
2
 71
1
 72
0
 11
717.5953932043631
 21
1363.2613283284118
 31
0.0
  0
SEQEND
  5
118
330
17
100
AcDbEntity
  8
0
 62
7
  0
ENDSEC
  0
SECTION
  2
OBJECTS
  0
DICTIONARY
  5
A
330
0
100
AcDbDictionary
281
1
  3
ACAD_COLOR
350
B
  3
ACAD_GROUP
350
C
  3
ACAD_LAYOUT
350
D
  3
ACAD_MATERIAL
350
E
  3
ACAD_MLEADERSTYLE
350
F
  3
ACAD_MLINESTYLE
350
10
  3
ACAD_PLOTSETTINGS
350
11
  3
ACAD_PLOTSTYLENAME
350
12
  3
ACAD_SCALELIST
350
14
  3
ACAD_TABLESTYLE
350
15
  3
ACAD_VISUALSTYLE
350
16
  3
EZDXF_META
350
2D
  0
DICTIONARY
  5
B
330
A
100
AcDbDictionary
281
1
  0
DICTIONARY
  5
C
330
A
100
AcDbDictionary
281
1
  0
DICTIONARY
  5
D
330
A
100
AcDbDictionary
281
1
  3
Model
350
1A
  3
Layout1
350
1E
  0
DICTIONARY
  5
E
330
A
100
AcDbDictionary
281
1
  3
ByBlock
350
1F
  3
ByLayer
350
20
  3
Global
350
21
  0
DICTIONARY
  5
F
330
A
100
AcDbDictionary
281
1
  3
Standard
350
2C
  0
DICTIONARY
  5
10
330
A
100
AcDbDictionary
281
1
  3
Standard
350
22
  0
DICTIONARY
  5
11
330
A
100
AcDbDictionary
281
1
  0
ACDBDICTIONARYWDFLT
  5
12
330
A
100
AcDbDictionary
281
1
  3
Normal
350
13
100
AcDbDictionaryWithDefault
340
13
  0
ACDBPLACEHOLDER
  5
13
330
12
  0
DICTIONARY
  5
14
330
A
100
AcDbDictionary
281
1
  0
DICTIONARY
  5
15
330
A
100
AcDbDictionary
281
1
  0
DICTIONARY
  5
16
330
A
100
AcDbDictionary
281
1
  0
LAYOUT
  5
1A
330
D
100
AcDbPlotSettings
  1

  4
A3
  6

 40
7.5
 41
20.0
 42
7.5
 43
20.0
 44
420.0
 45
297.0
 46
0.0
 47
0.0
 48
0.0
 49
0.0
140
0.0
141
0.0
142
1.0
143
1.0
 70
1024
 72
1
 73
0
 74
5
  7

 75
16
 76
0
 77
2
 78
300
147
1.0
148
0.0
149
0.0
100
AcDbLayout
  1
Model
 70
1
 71
0
 10
0.0
 20
0.0
 11
420.0
 21
297.0
 12
0.0
 22
0.0
 32
0.0
 14
1e+20
 24
1e+20
 34
1e+20
 15
-1e+20
 25
-1e+20
 35
-1e+20
146
0.0
 13
0.0
 23
0.0
 33
0.0
 16
1.0
 26
0.0
 36
0.0
 17
0.0
 27
1.0
 37
0.0
 76
1
330
17
  0
LAYOUT
  5
1E
330
D
100
AcDbPlotSettings
  1

  4
A3
  6

 40
7.5
 41
20.0
 42
7.5
 43
20.0
 44
420.0
 45
297.0
 46
0.0
 47
0.0
 48
0.0
 49
0.0
140
0.0
141
0.0
142
1.0
143
1.0
 70
0
 72
1
 73
0
 74
5
  7

 75
16
 76
0
 77
2
 78
300
147
1.0
148
0.0
149
0.0
100
AcDbLayout
  1
Layout1
 70
1
 71
1
 10
0.0
 20
0.0
 11
420.0
 21
297.0
 12
0.0
 22
0.0
 32
0.0
 14
1e+20
 24
1e+20
 34
1e+20
 15
-1e+20
 25
-1e+20
 35
-1e+20
146
0.0
 13
0.0
 23
0.0
 33
0.0
 16
1.0
 26
0.0
 36
0.0
 17
0.0
 27
1.0
 37
0.0
 76
1
330
1B
  0
MATERIAL
  5
1F
102
{ACAD_REACTORS
330
E
102
}
330
E
100
AcDbMaterial
  1
ByBlock
  2

 70
0
 40
1.0
 71
1
 41
1.0
 91
-1023410177
 42
1.0
 72
1
  3

 73
1
 74
1
 75
1
 44
0.5
 73
0
 45
1.0
 46
1.0
 77
1
  4

 78
1
 79
1
170
1
 48
1.0
171
1
  6

172
1
173
1
174
1
140
1.0
141
1.0
175
1
  7

176
1
177
1
178
1
143
1.0
179
1
  8

270
1
271
1
272
1
145
1.0
146
1.0
273
1
  9

274
1
275
1
276
1
 42
1.0
 72
1
  3

 73
1
 74
1
 75
1
 94
63
  0
MATERIAL
  5
20
102
{ACAD_REACTORS
330
E
102
}
330
E
100
AcDbMaterial
  1
ByLayer
  2

 70
0
 40
1.0
 71
1
 41
1.0
 91
-1023410177
 42
1.0
 72
1
  3

 73
1
 74
1
 75
1
 44
0.5
 73
0
 45
1.0
 46
1.0
 77
1
  4

 78
1
 79
1
170
1
 48
1.0
171
1
  6

172
1
173
1
174
1
140
1.0
141
1.0
175
1
  7

176
1
177
1
178
1
143
1.0
179
1
  8

270
1
271
1
272
1
145
1.0
146
1.0
273
1
  9

274
1
275
1
276
1
 42
1.0
 72
1
  3

 73
1
 74
1
 75
1
 94
63
  0
MATERIAL
  5
21
102
{ACAD_REACTORS
330
E
102
}
330
E
100
AcDbMaterial
  1
Global
  2

 70
0
 40
1.0
 71
1
 41
1.0
 91
-1023410177
 42
1.0
 72
1
  3

 73
1
 74
1
 75
1
 44
0.5
 73
0
 45
1.0
 46
1.0
 77
1
  4

 78
1
 79
1
170
1
 48
1.0
171
1
  6

172
1
173
1
174
1
140
1.0
141
1.0
175
1
  7

176
1
177
1
178
1
143
1.0
179
1
  8

270
1
271
1
272
1
145
1.0
146
1.0
273
1
  9

274
1
275
1
276
1
 42
1.0
 72
1
  3

 73
1
 74
1
 75
1
 94
63
  0
MLINESTYLE
  5
22
102
{ACAD_REACTORS
330
10
102
}
330
10
100
AcDbMlineStyle
  2
Standard
 70
0
  3

 62
256
 51
90.0
 52
90.0
 71
2
 49
0.5
 62
256
  6
BYLAYER
 49
-0.5
 62
256
  6
BYLAYER
  0
MLEADERSTYLE
  5
2C
102
{ACAD_REACTORS
330
F
102
}
330
F
100
AcDbMLeaderStyle
179
2
170
2
171
1
172
0
 90
2
 40
0.0
 41
0.0
173
1
 91
-1056964608
 92
-2
290
1
 42
2.0
291
1
 43
8.0
  3
Standard
 44
4.0
300

342
29
174
1
175
1
176
0
178
1
 93
-1056964608
 45
4.0
292
0
297
0
 46
4.0
 94
-1056964608
 47
1.0
 49
1.0
140
1.0
294
1
141
0.0
177
0
142
1.0
295
0
296
0
143
3.75
271
0
272
9
273
9
  0
DICTIONARY
  5
2D
330
A
100
AcDbDictionary
280
1
281
1
  3
CREATED_BY_EZDXF
350
2E
  3
WRITTEN_BY_EZDXF
350
28B
  0
DICTIONARYVAR
  5
2E
330
2D
100
DictionaryVariables
280
0
  1
1.4.4 @ 2026-09-24T06:32:08.015179+00:00
  0
DICTIONARYVAR
  5
28B
330
2D
100
DictionaryVariables
280
0
  1
1.4.4 @ 2026-09-24T06:37:28.636216+00:00
  0
ENDSEC
  0
EOF
