  0
SECTION
  2
HEADER
  9
$ACADVER
  1
AC1032
  9
$ACADMAINTVER
 90
4
  9
$DWGCODEPAGE
  3
ANSI_1252
  9
$LASTSAVEDBY
  1
ezdxf
  9
$REQUIREDVERSIONS
160
0
  9
$INSBASE
 10
0.0
 20
0.0
 30
0.0
  9
$EXTMIN
 10
1e+20
 20
1e+20
 30
1e+20
  9
$EXTMAX
 10
-1e+20
 20
-1e+20
 30
-1e+20
  9
$LIMMIN
 10
0.0
 20
0.0
  9
$LIMMAX
 10
420.0
 20
297.0
  9
$ORTHOMODE
 70
0
  9
$REGENMODE
 70
1
  9
$FILLMODE
 70
1
  9
$QTEXTMODE
 70
0
  9
$MIRRTEXT
 70
1
  9
$LTSCALE
 40
1.0
  9
$ATTMODE
 70
1
  9
$TEXTSIZE
 40
2.5
  9
$TRACEWID
 40
1.0
  9
$TEXTSTYLE
  7
Standard
  9
$CLAYER
  8
0
  9
$CELTYPE
  6
ByLayer
  9
$CECOLOR
 62
256
  9
$CELTSCALE
 40
1.0
  9
$DISPSILH
 70
0
  9
$DIMSCALE
 40
1.0
  9
$DIMASZ
 40
2.5
  9
$DIMEXO
 40
0.625
  9
$DIMDLI
 40
3.75
  9
$DIMRND
 40
0.0
  9
$DIMDLE
 40
0.0
  9
$DIMEXE
 40
1.25
  9
$DIMTP
 40
0.0
  9
$DIMTM
 40
0.0
  9
$DIMTXT
 40
2.5
  9
$DIMCEN
 40
2.5
  9
$DIMTSZ
 40
0.0
  9
$DIMTOL
 70
0
  9
$DIMLIM
 70
0
  9
$DIMTIH
 70
0
  9
$DIMTOH
 70
0
  9
$DIMSE1
 70
0
  9
$DIMSE2
 70
0
  9
$DIMTAD
 70
1
  9
$DIMZIN
 70
8
  9
$DIMBLK
  1

  9
$DIMASO
 70
1
  9
$DIMSHO
 70
1
  9
$DIMPOST
  1

  9
$DIMAPOST
  1

  9
$DIMALT
 70
0
  9
$DIMALTD
 70
3
  9
$DIMALTF
 40
0.03937007874
  9
$DIMLFAC
 40
1.0
  9
$DIMTOFL
 70
1
  9
$DIMTVP
 40
0.0
  9
$DIMTIX
 70
0
  9
$DIMSOXD
 70
0
  9
$DIMSAH
 70
0
  9
$DIMBLK1
  1

  9
$DIMBLK2
  1

  9
$DIMSTYLE
  2
ISO-25
  9
$DIMCLRD
 70
0
  9
$DIMCLRE
 70
0
  9
$DIMCLRT
 70
0
  9
$DIMTFAC
 40
1.0
  9
$DIMGAP
 40
0.625
  9
$DIMJUST
 70
0
  9
$DIMSD1
 70
0
  9
$DIMSD2
 70
0
  9
$DIMTOLJ
 70
0
  9
$DIMTZIN
 70
8
  9
$DIMALTZ
 70
0
  9
$DIMALTTZ
 70
0
  9
$DIMUPT
 70
0
  9
$DIMDEC
 70
2
  9
$DIMTDEC
 70
2
  9
$DIMALTU
 70
2
  9
$DIMALTTD
 70
3
  9
$DIMTXSTY
  7
Standard
  9
$DIMAUNIT
 70
0
  9
$DIMADEC
 70
0
  9
$DIMALTRND
 40
0.0
  9
$DIMAZIN
 70
0
  9
$DIMDSEP
 70
44
  9
$DIMATFIT
 70
3
  9
$DIMFRAC
 70
0
  9
$DIMLDRBLK
  1

  9
$DIMLUNIT
 70
2
  9
$DIMLWD
 70
-2
  9
$DIMLWE
 70
-2
  9
$DIMTMOVE
 70
0
  9
$DIMFXL
 40
1.0
  9
$DIMFXLON
 70
0
  9
$DIMJOGANG
 40
0.785398163397
  9
$DIMTFILL
 70
0
  9
$DIMTFILLCLR
 70
0
  9
$DIMARCSYM
 70
0
  9
$DIMLTYPE
  6

  9
$DIMLTEX1
  6

  9
$DIMLTEX2
  6

  9
$DIMTXTDIRECTION
 70
0
  9
$LUNITS
 70
2
  9
$LUPREC
 70
4
  9
$SKETCHINC
 40
1.0
  9
$FILLETRAD
 40
10.0
  9
$AUNITS
 70
0
  9
$AUPREC
 70
2
  9
$MENU
  1
.
  9
$ELEVATION
 40
0.0
  9
$PELEVATION
 40
0.0
  9
$THICKNESS
 40
0.0
  9
$LIMCHECK
 70
0
  9
$CHAMFERA
 40
0.0
  9
$CHAMFERB
 40
0.0
  9
$CHAMFERC
 40
0.0
  9
$CHAMFERD
 40
0.0
  9
$SKPOLY
 70
0
  9
$TDCREATE
 40
2461308.567465278
  9
$TDUCREATE
 40
2458532.153996898
  9
$TDUPDATE
 40
2461308.567465278
  9
$TDUUPDATE
 40
2458532.1544311
  9
$TDINDWG
 40
0.0
  9
$TDUSRTIMER
 40
0.0
  9
$USRTIMER
 70
1
  9
$ANGBASE
 50
0.0
  9
$ANGDIR
 70
0
  9
$PDMODE
 70
0
  9
$PDSIZE
 40
0.0
  9
$PLINEWID
 40
0.0
  9
$SPLFRAME
 70
0
  9
$SPLINETYPE
 70
6
  9
$SPLINESEGS
 70
8
  9
$HANDSEED
  5
1BF
  9
$SURFTAB1
 70
6
  9
$SURFTAB2
 70
6
  9
$SURFTYPE
 70
6
  9
$SURFU
 70
6
  9
$SURFV
 70
6
  9
$UCSBASE
  2

  9
$UCSNAME
  2

  9
$UCSORG
 10
0.0
 20
0.0
 30
0.0
  9
$UCSXDIR
 10
1.0
 20
0.0
 30
0.0
  9
$UCSYDIR
 10
0.0
 20
1.0
 30
0.0
  9
$UCSORTHOREF
  2

  9
$UCSORTHOVIEW
 70
0
  9
$UCSORGTOP
 10
0.0
 20
0.0
 30
0.0
  9
$UCSORGBOTTOM
 10
0.0
 20
0.0
 30
0.0
  9
$UCSORGLEFT
 10
0.0
 20
0.0
 30
0.0
  9
$UCSORGRIGHT
 10
0.0
 20
0.0
 30
0.0
  9
$UCSORGFRONT
 10
0.0
 20
0.0
 30
0.0
  9
$UCSORGBACK
 10
0.0
 20
0.0
 30
0.0
  9
$PUCSBASE
  2

  9
$PUCSNAME
  2

  9
$PUCSORG
 10
0.0
 20
0.0
 30
0.0
  9
$PUCSXDIR
 10
1.0
 20
0.0
 30
0.0
  9
$PUCSYDIR
 10
0.0
 20
1.0
 30
0.0
  9
$PUCSORTHOREF
  2

  9
$PUCSORTHOVIEW
 70
0
  9
$PUCSORGTOP
 10
0.0
 20
0.0
 30
0.0
  9
$PUCSORGBOTTOM
 10
0.0
 20
0.0
 30
0.0
  9
$PUCSORGLEFT
 10
0.0
 20
0.0
 30
0.0
  9
$PUCSORGRIGHT
 10
0.0
 20
0.0
 30
0.0
  9
$PUCSORGFRONT
 10
0.0
 20
0.0
 30
0.0
  9
$PUCSORGBACK
 10
0.0
 20
0.0
 30
0.0
  9
$USERI1
 70
0
  9
$USERI2
 70
0
  9
$USERI3
 70
0
  9
$USERI4
 70
0
  9
$USERI5
 70
0
  9
$USERR1
 40
0.0
  9
$USERR2
 40
0.0
  9
$USERR3
 40
0.0
  9
$USERR4
 40
0.0
  9
$USERR5
 40
0.0
  9
$WORLDVIEW
 70
1
  9
$SHADEDGE
 70
3
  9
$SHADEDIF
 70
70
  9
$TILEMODE
 70
1
  9
$MAXACTVP
 70
64
  9
$PINSBASE
 10
0.0
 20
0.0
 30
0.0
  9
$PLIMCHECK
 70
0
  9
$PEXTMIN
 10
1e+20
 20
1e+20
 30
1e+20
  9
$PEXTMAX
 10
-1e+20
 20
-1e+20
 30
-1e+20
  9
$PLIMMIN
 10
0.0
 20
0.0
  9
$PLIMMAX
 10
420.0
 20
297.0
  9
$UNITMODE
 70
0
  9
$VISRETAIN
 70
1
  9
$PLINEGEN
 70
0
  9
$PSLTSCALE
 70
1
  9
$TREEDEPTH
 70
3020
  9
$CMLSTYLE
  2
Standard
  9
$CMLJUST
 70
0
  9
$CMLSCALE
 40
20.0
  9
$PROXYGRAPHICS
 70
1
  9
$MEASUREMENT
 70
1
  9
$CELWEIGHT
370
-1
  9
$ENDCAPS
280
0
  9
$JOINSTYLE
280
0
  9
$LWDISPLAY
290
0
  9
$INSUNITS
 70
4
  9
$HYPERLINKBASE
  1

  9
$STYLESHEET
  1

  9
$XEDIT
290
1
  9
$CEPSNTYPE
380
0
  9
$PSTYLEMODE
290
1
  9
$FINGERPRINTGUID
  2
{79F5CFB1-AB7E-44BA-BA44-E75EE3550EF0}
  9
$VERSIONGUID
  2
{D39CF47C-FD12-43D0-A5C5-E8D541E39F64}
  9
$EXTNAMES
290
1
  9
$PSVPSCALE
 40
0.0
  9
$OLESTARTUP
290
0
  9
$SORTENTS
280
127
  9
$INDEXCTL
280
0
  9
$HIDETEXT
280
1
  9
$XCLIPFRAME
280
1
  9
$HALOGAP
280
0
  9
$OBSCOLOR
 70
257
  9
$OBSLTYPE
280
0
  9
$INTERSECTIONDISPLAY
280
0
  9
$INTERSECTIONCOLOR
 70
257
  9
$DIMASSOC
280
2
  9
$PROJECTNAME
  1

  9
$CAMERADISPLAY
290
0
  9
$LENSLENGTH
 40
50.0
  9
$CAMERAHEIGHT
 40
0.0
  9
$STEPSPERSEC
 40
24.0
  9
$STEPSIZE
 40
100.0
  9
$3DDWFPREC
 40
2.0
  9
$PSOLWIDTH
 40
0.005
  9
$PSOLHEIGHT
 40
0.08
  9
$LOFTANG1
 40
1.570796326795
  9
$LOFTANG2
 40
1.570796326795
  9
$LOFTMAG1
 40
0.0
  9
$LOFTMAG2
 40
0.0
  9
$LOFTPARAM
 70
7
  9
$LOFTNORMALS
280
1
  9
$LATITUDE
 40
37.795
  9
$LONGITUDE
 40
-122.394
  9
$NORTHDIRECTION
 40
0.0
  9
$TIMEZONE
 70
-8000
  9
$LIGHTGLYPHDISPLAY
280
1
  9
$TILEMODELIGHTSYNCH
280
1
  9
$CMATERIAL
347
20
  9
$SOLIDHIST
280
0
  9
$SHOWHIST
280
1
  9
$DWFFRAME
280
2
  9
$DGNFRAME
280
2
  9
$REALWORLDSCALE
290
1
  9
$INTERFERECOLOR
 62
256
  9
$CSHADOW
280
0
  9
$SHADOWPLANELOCATION
 40
0.0
  0
ENDSEC
  0
SECTION
  2
CLASSES
  0
CLASS
  1
ACDBDICTIONARYWDFLT
  2
AcDbDictionaryWithDefault
  3
ObjectDBX Classes
 90
0
 91
0
280
0
281
0
  0
CLASS
  1
SUN
  2
AcDbSun
  3
SCENEOE
 90
1153
 91
0
280
0
281
0
  0
CLASS
  1
VISUALSTYLE
  2
AcDbVisualStyle
  3
ObjectDBX Classes
 90
4095
 91
0
280
0
281
0
  0
CLASS
  1
MATERIAL
  2
AcDbMaterial
  3
ObjectDBX Classes
 90
1153
 91
0
280
0
281
0
  0
CLASS
  1
SCALE
  2
AcDbScale
  3
ObjectDBX Classes
 90
1153
 91
0
280
0
281
0
  0
CLASS
  1
TABLESTYLE
  2
AcDbTableStyle
  3
ObjectDBX Classes
 90
4095
 91
0
280
0
281
0
  0
CLASS
  1
MLEADERSTYLE
  2
AcDbMLeaderStyle
  3
ACDB_MLEADERSTYLE_CLASS
 90
4095
 91
0
280
0
281
0
  0
CLASS
  1
DICTIONARYVAR
  2
AcDbDictionaryVar
  3
ObjectDBX Classes
 90
0
 91
0
280
0
281
0
  0
CLASS
  1
CELLSTYLEMAP
  2
AcDbCellStyleMap
  3
ObjectDBX Classes
 90
1152
 91
0
280
0
281
0
  0
CLASS
  1
MENTALRAYRENDERSETTINGS
  2
AcDbMentalRayRenderSettings
  3
SCENEOE
 90
1024
 91
0
280
0
281
0
  0
CLASS
  1
ACDBDETAILVIEWSTYLE
  2
AcDbDetailViewStyle
  3
ObjectDBX Classes
 90
1025
 91
0
280
0
281
0
  0
CLASS
  1
ACDBSECTIONVIEWSTYLE
  2
AcDbSectionViewStyle
  3
ObjectDBX Classes
 90
1025
 91
0
280
0
281
0
  0
CLASS
  1
RASTERVARIABLES
  2
AcDbRasterVariables
  3
ISM
 90
0
 91
0
280
0
281
0
  0
CLASS
  1
ACDBPLACEHOLDER
  2
AcDbPlaceHolder
  3
ObjectDBX Classes
 90
0
 91
0
280
0
281
0
  0
CLASS
  1
LAYOUT
  2
AcDbLayout
  3
ObjectDBX Classes
 90
0
 91
0
280
0
281
0
  0
ENDSEC
  0
SECTION
  2
TABLES
  0
TABLE
  2
VPORT
  5
8
330
0
100
AcDbSymbolTable
 70
1
  0
VPORT
  5
23
330
8
100
AcDbSymbolTableRecord
100
AcDbViewportTableRecord
  2
*Active
 70
0
 10
0.0
 20
0.0
 11
1.0
 21
1.0
 12
0.0
 22
0.0
 13
0.0
 23
0.0
 14
0.5
 24
0.5
 15
0.5
 25
0.5
 16
0.0
 26
0.0
 36
1.0
 17
0.0
 27
0.0
 37
0.0
 40
1000.0
 41
1.34
 42
50.0
 43
0.0
 44
0.0
 50
0.0
 51
0.0
 71
0
 72
1000
 73
1
 74
3
 75
0
 76
0
 77
0
 78
0
281
0
 65
0
146
0.0
  0
ENDTAB
  0
TABLE
  2
LTYPE
  5
2
330
0
100
AcDbSymbolTable
 70
3
  0
LTYPE
  5
24
330
2
100
AcDbSymbolTableRecord
100
AcDbLinetypeTableRecord
  2
ByBlock
 70
0
  3

 72
65
 73
0
 40
0.0
  0
LTYPE
  5
25
330
2
100
AcDbSymbolTableRecord
100
AcDbLinetypeTableRecord
  2
ByLayer
 70
0
  3

 72
65
 73
0
 40
0.0
  0
LTYPE
  5
26
330
2
100
AcDbSymbolTableRecord
100
AcDbLinetypeTableRecord
  2
Continuous
 70
0
  3

 72
65
 73
0
 40
0.0
  0
ENDTAB
  0
TABLE
  2
LAYER
  5
1
330
0
100
AcDbSymbolTable
 70
4
  0
LAYER
  5
27
330
1
100
AcDbSymbolTableRecord
100
AcDbLayerTableRecord
  2
0
 70
0
 62
7
  6
Continuous
370
-3
390
13
347
21
  0
LAYER
  5
28
330
1
100
AcDbSymbolTableRecord
100
AcDbLayerTableRecord
  2
Defpoints
 70
0
 62
7
  6
Continuous
290
0
370
-3
390
13
347
21
  0
LAYER
  5
EF
330
1
100
AcDbSymbolTableRecord
100
AcDbLayerTableRecord
  2
CNC
 70
0
 62
7
  6
Continuous
370
-3
390
13
347
21
  0
LAYER
  5
F0
330
1
100
AcDbSymbolTableRecord
100
AcDbLayerTableRecord
  2
DIM
 70
0
 62
253
  6
Continuous
370
-3
390
13
347
21
  0
ENDTAB
  0
TABLE
  2
STYLE
  5
5
330
0
100
AcDbSymbolTable
 70
3
  0
STYLE
  5
29
330
5
100
AcDbSymbolTableRecord
100
AcDbTextStyleTableRecord
  2
Standard
 70
0
 40
0.0
 41
1.0
 50
0.0
 71
0
 42
2.5
  3
txt
  4

  0
STYLE
  5
F1
330
5
100
AcDbSymbolTableRecord
100
AcDbTextStyleTableRecord
  2
Tahoma (Input Text)
 70
0
 40
0.0
 41
1.0
 50
0.0
 71
0
 42
25.0
  3
tahoma.ttf
  4

  0
STYLE
  5
F2
330
5
100
AcDbSymbolTableRecord
100
AcDbTextStyleTableRecord
  2
Arial
 70
0
 40
0.0
 41
1.0
 50
0.0
 71
0
 42
0.2
  3
arial.ttf
  4

  0
ENDTAB
  0
TABLE
  2
VIEW
  5
7
330
0
100
AcDbSymbolTable
 70
0
  0
ENDTAB
  0
TABLE
  2
UCS
  5
6
330
0
100
AcDbSymbolTable
 70
0
  0
ENDTAB
  0
TABLE
  2
APPID
  5
3
330
0
100
AcDbSymbolTable
 70
3
  0
APPID
  5
2A
330
3
100
AcDbSymbolTableRecord
100
AcDbRegAppTableRecord
  2
ACAD
 70
0
  0
APPID
  5
F3
330
3
100
AcDbSymbolTableRecord
100
AcDbRegAppTableRecord
  2
HATCHBACKGROUNDCOLOR
 70
0
  0
APPID
  5
F4
330
3
100
AcDbSymbolTableRecord
100
AcDbRegAppTableRecord
  2
EZDXF
 70
0
  0
ENDTAB
  0
TABLE
  2
DIMSTYLE
  5
4
330
0
100
AcDbSymbolTable
 70
2
100
AcDbDimStyleTable
  0
DIMSTYLE
105
2B
330
4
100
AcDbSymbolTableRecord
100
AcDbDimStyleTableRecord
  2
Standard
 70
0
 40
1.0
 41
2.5
 42
0.625
 43
3.75
 44
1.25
 45
0.0
 46
0.0
 47
0.0
 48
0.0
 49
2.5
140
2.5
141
2.5
142
0.0
143
0.03937007874
144
1.0
145
0.0
146
1.0
147
0.625
148
0.0
 69
0
 70
0
 71
0
 72
0
 73
0
 74
0
 75
0
 76
0
 77
1
 78
8
 79
3
170
0
171
3
172
1
173
0
174
0
175
0
176
0
177
0
178
0
179
2
271
2
272
2
273
2
274
3
275
0
276
0
277
2
278
44
279
0
280
0
281
0
282
0
283
0
284
8
285
0
286
0
288
0
289
3
290
0
371
-2
372
-2
  0
DIMSTYLE
105
EE
330
4
100
AcDbSymbolTableRecord
100
AcDbDimStyleTableRecord
  2
Dim-25
 70
0
 40
1.0
 41
8.0
 42
15.0
 43
3.75
 44
10.0
 45
0.0
 46
0.0
 47
0.0
 48
0.0
 49
2.5
140
25.0
141
10.0
142
0.0
143
0.03937007874016
144
1.0
145
0.0
146
1.0
147
10.0
148
0.0
 69
0
 70
0
 71
0
 72
0
 73
0
 74
0
 75
0
 76
0
 77
1
 78
8
 79
3
170
0
171
3
172
1
173
0
174
0
175
0
176
5
177
5
178
3
179
2
271
0
272
0
273
2
274
3
275
0
276
0
277
2
278
44
279
0
280
0
281
0
282
0
283
0
284
8
285
0
286
0
288
0
289
3
290
0
340
29
341
79
342
79
345
25
346
25
347
25
371
9
372
9
  0
ENDTAB
  0
TABLE
  2
BLOCK_RECORD
  5
9
330
0
100
AcDbSymbolTable
 70
17
  0
BLOCK_RECORD
  5
17
330
9
100
AcDbSymbolTableRecord
100
AcDbBlockTableRecord
  2
*Model_Space
340
1A
 70
0
280
1
281
0
  0
BLOCK_RECORD
  5
1B
330
9
100
AcDbSymbolTableRecord
100
AcDbBlockTableRecord
  2
*Paper_Space
340
1E
 70
0
280
1
281
0
  0
BLOCK_RECORD
  5
79
330
9
100
AcDbSymbolTableRecord
100
AcDbBlockTableRecord
  2
_Oblique
340
0
 70
0
280
1
281
0
  0
BLOCK_RECORD
  5
C6
330
9
100
AcDbSymbolTableRecord
100
AcDbBlockTableRecord
  2
khungtenAsean2
340
0
 70
0
280
1
281
0
  0
BLOCK_RECORD
  5
EA
330
9
100
AcDbSymbolTableRecord
100
AcDbBlockTableRecord
  2
f3daunguoc
340
0
 70
0
280
1
281
0
  0
BLOCK_RECORD
  5
127
330
9
100
AcDbSymbolTableRecord
100
AcDbBlockTableRecord
  2
*D1
340
0
 70
0
280
1
281
0
  0
BLOCK_RECORD
  5
135
330
9
100
AcDbSymbolTableRecord
100
AcDbBlockTableRecord
  2
*D2
340
0
 70
0
280
1
281
0
  0
BLOCK_RECORD
  5
143
330
9
100
AcDbSymbolTableRecord
100
AcDbBlockTableRecord
  2
*D3
340
0
 70
0
280
1
281
0
  0
BLOCK_RECORD
  5
14F
330
9
100
AcDbSymbolTableRecord
100
AcDbBlockTableRecord
  2
*D4
340
0
 70
0
280
1
281
0
  0
BLOCK_RECORD
  5
15B
330
9
100
AcDbSymbolTableRecord
100
AcDbBlockTableRecord
  2
*D5
340
0
 70
0
280
1
281
0
  0
BLOCK_RECORD
  5
167
330
9
100
AcDbSymbolTableRecord
100
AcDbBlockTableRecord
  2
*D6
340
0
 70
0
280
1
281
0
  0
BLOCK_RECORD
  5
173
330
9
100
AcDbSymbolTableRecord
100
AcDbBlockTableRecord
  2
*D7
340
0
 70
0
280
1
281
0
  0
BLOCK_RECORD
  5
181
330
9
100
AcDbSymbolTableRecord
100
AcDbBlockTableRecord
  2
*D8
340
0
 70
0
280
1
281
0
  0
BLOCK_RECORD
  5
18F
330
9
100
AcDbSymbolTableRecord
100
AcDbBlockTableRecord
  2
*D9
340
0
 70
0
280
1
281
0
  0
BLOCK_RECORD
  5
19B
330
9
100
AcDbSymbolTableRecord
100
AcDbBlockTableRecord
  2
*D10
340
0
 70
0
280
1
281
0
  0
BLOCK_RECORD
  5
1A7
330
9
100
AcDbSymbolTableRecord
100
AcDbBlockTableRecord
  2
*D11
340
0
 70
0
280
1
281
0
  0
BLOCK_RECORD
  5
1B3
330
9
100
AcDbSymbolTableRecord
100
AcDbBlockTableRecord
  2
*D12
340
0
 70
0
280
1
281
0
  0
ENDTAB
  0
ENDSEC
  0
SECTION
  2
BLOCKS
  0
BLOCK
  5
18
330
17
100
AcDbEntity
  8
0
100
AcDbBlockBegin
  2
*Model_Space
 70
0
 10
0.0
 20
0.0
 30
0.0
  3
*Model_Space
  1

  0
ENDBLK
  5
19
330
17
100
AcDbEntity
  8
0
100
AcDbBlockEnd
  0
BLOCK
  5
1C
330
1B
100
AcDbEntity
  8
0
100
AcDbBlockBegin
  2
*Paper_Space
 70
0
 10
0.0
 20
0.0
 30
0.0
  3
*Paper_Space
  1

  0
ENDBLK
  5
1D
330
1B
100
AcDbEntity
  8
0
100
AcDbBlockEnd
  0
BLOCK
  5
7A
330
79
100
AcDbEntity
  8
0
100
AcDbBlockBegin
  2
_Oblique
 70
0
 10
0.0
 20
0.0
 30
0.0
  3
_Oblique
  1

  0
LINE
  5
7C
330
79
100
AcDbEntity
  8
0
  6
ByBlock
 62
0
370
-2
100
AcDbLine
 10
-0.5
 20
-0.5
 30
0.0
 11
0.5
 21
0.5
 31
0.0
  0
ENDBLK
  5
7B
330
79
100
AcDbEntity
  8
0
100
AcDbBlockEnd
  0
BLOCK
  5
C7
330
C6
100
AcDbEntity
  8
0
100
AcDbBlockBegin
  2
khungtenAsean2
 70
2
 10
0.0
 20
0.0
 30
0.0
  3
khungtenAsean2
  1

  0
LWPOLYLINE
  5
C9
330
C6
100
AcDbEntity
  8
0
 62
7
100
AcDbPolyline
 90
4
 70
1
 10
0.0
 20
0.0
 10
2970.000000000422
 20
0.0
 10
2970.000000000422
 20
-2100.00000000032
 10
0.0
 20
-2100.00000000032
  0
LINE
  5
CA
330
C6
100
AcDbEntity
  8
0
 62
7
100
AcDbLine
 10
2020.0
 20
-2040.00000000032
 30
0.0
 11
0.0
 21
-2040.00000000032
 31
0.0
  0
LINE
  5
CB
330
C6
100
AcDbEntity
  8
0
 62
7
100
AcDbLine
 10
2970.000000000422
 20
-1980.00000000032
 30
0.0
 11
0.0
 21
-1980.00000000032
 31
0.0
  0
LINE
  5
CC
330
C6
100
AcDbEntity
  8
0
 62
7
100
AcDbLine
 10
320.0
 20
-1980.00000000032
 30
0.0
 11
320.0
 21
-2100.00000000032
 31
0.0
  0
LINE
  5
CD
330
C6
100
AcDbEntity
  8
0
 62
7
100
AcDbLine
 10
890.0
 20
-1980.00000000032
 30
0.0
 11
890.0
 21
-2100.00000000032
 31
0.0
  0
LINE
  5
CE
330
C6
100
AcDbEntity
  8
0
 62
7
100
AcDbLine
 10
1680.0
 20
-1980.00000000032
 30
0.0
 11
1680.0
 21
-2100.00000000032
 31
0.0
  0
LINE
  5
CF
330
C6
100
AcDbEntity
  8
0
 62
7
100
AcDbLine
 10
2020.0
 20
-1980.00000000032
 30
0.0
 11
2020.0
 21
-2100.00000000032
 31
0.0
  0
LINE
  5
D0
330
C6
100
AcDbEntity
  8
0
 62
7
100
AcDbLine
 10
2860.000000000422
 20
-1980.00000000032
 30
0.0
 11
2860.000000000422
 21
-2100.00000000032
 31
0.0
  0
MTEXT
  5
D1
330
C6
100
AcDbEntity
  8
0
 62
2
100
AcDbMText
 10
0.0
 20
-2010.00000000032
 30
0.0
 40
20.0
 41
917.6339389950801
 46
60.00000000000113
 71
4
 72
5
  1
  Thiết kế :
  7
Arial
  0
MTEXT
  5
D2
330
C6
100
AcDbEntity
  8
0
 62
2
100
AcDbMText
 10
0.0
 20
-2070.00000000032
 30
0.0
 40
20.0
 41
917.6339389950801
 46
60.00000000000113
 71
4
 72
5
  1
  CNC :
  7
Arial
  0
MTEXT
  5
D3
330
C6
100
AcDbEntity
  8
0
 62
2
100
AcDbMText
 10
320.0
 20
-2010.00000000032
 30
0.0
 40
20.0
 41
917.6339389950801
 46
60.00000000000113
 71
4
 72
5
  1
  Khách hàng :
  7
Arial
  0
MTEXT
  5
D4
330
C6
100
AcDbEntity
  8
0
 62
2
100
AcDbMText
 10
320.0
 20
-2070.00000000032
 30
0.0
 40
20.0
 41
917.6339389950801
 46
60.00000000000113
 71
4
 72
5
  1
  Giao hàng :
  7
Arial
  0
MTEXT
  5
D5
330
C6
100
AcDbEntity
  8
0
 62
2
100
AcDbMText
 10
890.0
 20
-2010.00000000032
 30
0.0
 40
20.0
 41
917.6339389950801
 46
60.00000000000113
 71
4
 72
5
  1
  Tên sản phẩm :
  7
Arial
  0
MTEXT
  5
D6
330
C6
100
AcDbEntity
  8
0
 62
2
100
AcDbMText
 10
890.0
 20
-2070.00000000032
 30
0.0
 40
20.0
 41
917.6339389950801
 46
60.00000000000113
 71
4
 72
5
  1
  Kích thước :
  7
Arial
  0
MTEXT
  5
D7
330
C6
100
AcDbEntity
  8
0
 62
2
100
AcDbMText
 10
1680.0
 20
-2010.00000000032
 30
0.0
 40
20.0
 41
917.6339389950801
 46
60.00000000000113
 71
4
 72
5
  1
  Số lượng :
  7
Arial
  0
MTEXT
  5
D8
330
C6
100
AcDbEntity
  8
0
 62
2
100
AcDbMText
 10
1680.0
 20
-2070.00000000032
 30
0.0
 40
20.0
 41
917.6339389950801
 46
60.00000000000113
 71
4
 72
5
  1
  Loại tôn :
  7
Arial
  0
MTEXT
  5
D9
330
C6
100
AcDbEntity
  8
0
 62
2
100
AcDbMText
 10
2074.15528161102
 20
-2040.00000000032
 30
0.0
 40
20.0
 41
108.3105632220314
 46
120.0000000000011
 71
5
 72
5
  1
Thông\Ptin :
  7
Arial
  0
MTEXT
  5
DA
330
C6
100
AcDbEntity
  8
0
 62
2
100
AcDbMText
 10
2915.000000000422
 20
-2010.00000000032
 30
0.0
 40
20.0
 41
110.0000000000065
 46
60.00000000000113
 71
5
 72
5
  1
Tờ
  7
Arial
  0
LINE
  5
DB
330
C6
100
AcDbEntity
  8
0
 62
7
100
AcDbLine
 10
2128.310563222025
 20
-2005.00000000032
 30
0.0
 11
2128.310563222025
 21
-2075.00000000032
 31
0.0
  0
MTEXT
  5
DC
330
C6
100
AcDbEntity
  8
0
 62
2
100
AcDbMText
 10
1382.285678836575
 20
-2070.00000000032
 30
0.0
 40
20.0
 41
917.6339389950801
 46
60.00000000000113
 71
4
 72
5
  1
mm
  7
Arial
  0
MTEXT
  5
DD
330
C6
100
AcDbEntity
  8
0
 62
2
100
AcDbMText
 10
1947.610064813329
 20
-2010.00000000032
 30
0.0
 40
20.0
 41
917.6339389950801
 46
60.00000000000113
 71
4
 72
5
  1
cái
  7
Arial
  0
MTEXT
  5
DE
330
C6
100
AcDbEntity
  8
0
 62
2
100
AcDbMText
 10
1936.880410494836
 20
-2070.00000000032
 30
0.0
 40
20.0
 41
917.6339389950801
 46
60.00000000000113
 71
4
 72
5
  1
mm
  7
Arial
  0
ATTDEF
  5
DF
330
C6
100
AcDbEntity
  8
0
 62
1
100
AcDbText
 10
2883.764212945627
 20
-2067.347800104843
 30
0.0
 40
25.0
  1
......
  7
Tahoma (Input Text)
 72
1
 11
2914.993225705868
 21
-2067.347800104843
 31
0.0
100
AcDbAttributeDefinition
  3
Số trang
  2
#11
 70
8
 71
1
 72
0
 11
2914.993225705868
 21
-2067.347800104843
 31
0.0
  0
ATTDEF
  5
E0
330
C6
100
AcDbEntity
  8
0
 62
1
100
AcDbText
 10
2146.716977487464
 20
-2021.275211692002
 30
0.0
 40
25.0
  1
......
  7
Tahoma (Input Text)
100
AcDbAttributeDefinition
  3
Thông tin 1
  2
#09
 70
8
 71
1
 72
0
  0
ATTDEF
  5
E1
330
C6
100
AcDbEntity
  8
0
 62
1
100
AcDbText
 10
2146.716977487464
 20
-2081.275211692002
 30
0.0
 40
25.0
  1
......
  7
Tahoma (Input Text)
100
AcDbAttributeDefinition
  3
Thông tin 2
  2
#10
 70
8
 71
1
 72
0
  0
ATTDEF
  5
E2
330
C6
100
AcDbEntity
  8
0
 62
1
100
AcDbText
 10
1817.447765733334
 20
-2081.275211692002
 30
0.0
 40
25.0
  1
......
  7
Tahoma (Input Text)
100
AcDbAttributeDefinition
  3
Loại tôn
  2
#08
 70
8
 71
1
 72
0
  0
ATTDEF
  5
E3
330
C6
100
AcDbEntity
  8
0
 62
1
100
AcDbText
 10
1834.68151032555
 20
-2021.275211692002
 30
0.0
 40
25.0
  1
......
  7
Tahoma (Input Text)
100
AcDbAttributeDefinition
  3
Số lượng
  2
#07
 70
8
 71
1
 72
0
  0
ATTDEF
  5
E4
330
C6
100
AcDbEntity
  8
0
 62
1
100
AcDbText
 10
1065.330889143646
 20
-2081.275211692002
 30
0.0
 40
25.0
  1
......
  7
Tahoma (Input Text)
100
AcDbAttributeDefinition
  3
Kích thước
  2
#06
 70
8
 71
1
 72
0
  0
ATTDEF
  5
E5
330
C6
100
AcDbEntity
  8
0
 62
1
100
AcDbText
 10
1106.628177122154
 20
-2021.275211692002
 30
0.0
 40
25.0
  1
......
  7
Tahoma (Input Text)
100
AcDbAttributeDefinition
  3
Tên s.phẩm
  2
#05
 70
8
 71
1
 72
0
  0
ATTDEF
  5
E6
330
C6
100
AcDbEntity
  8
0
 62
1
100
AcDbText
 10
486.1050270054984
 20
-2081.275211692002
 30
0.0
 40
25.0
  1
......
  7
Tahoma (Input Text)
100
AcDbAttributeDefinition
  3
Giao hàng
  2
#04
 70
8
 71
1
 72
0
  0
ATTDEF
  5
E7
330
C6
100
AcDbEntity
  8
0
 62
1
100
AcDbText
 10
506.5707489467022
 20
-2019.301600489707
 30
0.0
 40
25.0
  1
......
  7
Tahoma (Input Text)
100
AcDbAttributeDefinition
  3
Khách hàng
  2
#03
 70
8
 71
1
 72
0
  0
ATTDEF
  5
E8
330
C6
100
AcDbEntity
  8
0
 62
1
100
AcDbText
 10
98.45672450316488
 20
-2081.275211692002
 30
0.0
 40
25.0
  1
......
  7
Tahoma (Input Text)
100
AcDbAttributeDefinition
  3
CNC
  2
#02
 70
8
 71
1
 72
0
  0
ATTDEF
  5
E9
330
C6
100
AcDbEntity
  8
0
 62
1
100
AcDbText
 10
137.0535078375105
 20
-2021.275211692002
 30
0.0
 40
25.0
  1
......
  7
Tahoma (Input Text)
100
AcDbAttributeDefinition
  3
Thiết kế
  2
#01
 70
8
 71
1
 72
0
  0
ENDBLK
  5
C8
330
C6
100
AcDbEntity
  8
0
100
AcDbBlockEnd
  0
BLOCK
  5
EB
330
EA
100
AcDbEntity
  8
0
100
AcDbBlockBegin
  2
f3daunguoc
 70
0
 10
0.0
 20
0.0
 30
0.0
  3
f3daunguoc
  1

  0
CIRCLE
  5
ED
330
EA
100
AcDbEntity
  8
CNC
 62
2
370
-3
100
AcDbCircle
 10
0.0
 20
0.0
 30
0.0
 40
1.5
  0
ENDBLK
  5
EC
330
EA
100
AcDbEntity
  8
0
100
AcDbBlockEnd
  0
BLOCK
  5
128
330
127
100
AcDbEntity
  8
0
100
AcDbBlockBegin
  2
*D1
 70
1
 10
0.0
 20
0.0
 30
0.0
  3
*D1
  1

  0
LINE
  5
12A
330
127
100
AcDbEntity
  8
DIM
 62
5
370
9
 48
3.0
440
16777216
100
AcDbLine
 10
817.234910780724
 20
1351.3238362475286
 30
0.0
 11
817.234910780724
 21
1402.4645551972176
 31
0.0
  0
LINE
  5
12B
330
127
100
AcDbEntity
  8
DIM
 62
5
370
9
 48
3.0
440
16777216
100
AcDbLine
 10
827.2349107807022
 20
1341.3238362475286
 30
0.0
 11
827.2349107807022
 21
1402.4645551972176
 31
0.0
  0
LINE
  5
12C
330
127
100
AcDbEntity
  8
DIM
 62
5
370
9
 48
3.0
440
16777216
100
AcDbLine
 10
817.234910780724
 20
1392.4645551972185
 30
0.0
 11
809.234910780724
 21
1392.4645551972185
 31
0.0
  0
LINE
  5
12D
330
127
100
AcDbEntity
  8
DIM
 62
5
370
9
 48
3.0
440
16777216
100
AcDbLine
 10
827.2349107807022
 20
1392.4645551972185
 30
0.0
 11
896.6080349280528
 21
1392.4645551972185
 31
0.0
  0
LINE
  5
12E
330
127
100
AcDbEntity
  8
DIM
 62
5
370
9
 48
3.0
440
16777216
100
AcDbLine
 10
817.234910780724
 20
1392.4645551972185
 30
0.0
 11
827.2349107807022
 21
1392.4645551972185
 31
0.0
  0
LINE
  5
12F
330
127
100
AcDbEntity
  8
0
  6
ByBlock
 62
0
370
-2
100
AcDbLine
 10
813.234910780724
 20
1388.4645551972185
 30
0.0
 11
821.234910780724
 21
1396.4645551972185
 31
0.0
  0
LINE
  5
130
330
127
100
AcDbEntity
  8
0
  6
ByBlock
 62
0
370
-2
100
AcDbLine
 10
831.2349107807022
 20
1396.4645551972185
 30
0.0
 11
823.2349107807022
 21
1388.4645551972185
 31
0.0
  0
MTEXT
  5
131
330
127
100
AcDbEntity
  8
DIM
 62
3
 48
3.0
440
16777216
100
AcDbMText
 10
869.9214728543739
 20
1415.2288798902605
 30
0.0
 40
25.0
 41
0.0
 46
0.0
 71
5
  1
10
  0
POINT
  5
132
330
127
100
AcDbEntity
  8
Defpoints
 62
0
 48
3.0
440
16777216
100
AcDbPoint
 10
817.234910780724
 20
1336.3238362475286
 30
0.0
  0
POINT
  5
133
330
127
100
AcDbEntity
  8
Defpoints
 62
0
 48
3.0
440
16777216
100
AcDbPoint
 10
827.2349107807022
 20
1326.3238362475286
 30
0.0
  0
POINT
  5
134
330
127
100
AcDbEntity
  8
Defpoints
 62
0
 48
3.0
440
16777216
100
AcDbPoint
 10
827.2349107807022
 20
1392.4645551972185
 30
0.0
  0
ENDBLK
  5
129
330
127
100
AcDbEntity
  8
0
100
AcDbBlockEnd
  0
BLOCK
  5
136
330
135
100
AcDbEntity
  8
0
100
AcDbBlockBegin
  2
*D2
 70
1
 10
0.0
 20
0.0
 30
0.0
  3
*D2
  1

  0
LINE
  5
138
330
135
100
AcDbEntity
  8
DIM
 62
5
370
9
 48
3.0
440
16777216
100
AcDbLine
 10
802.2349107807095
 20
1366.3238362475286
 30
0.0
 11
802.2349107807095
 21
1449.9830711808145
 31
0.0
  0
LINE
  5
139
330
135
100
AcDbEntity
  8
DIM
 62
5
370
9
 48
3.0
440
16777216
100
AcDbLine
 10
817.234910780724
 20
1351.3238362475286
 30
0.0
 11
817.234910780724
 21
1449.9830711808145
 31
0.0
  0
LINE
  5
13A
330
135
100
AcDbEntity
  8
DIM
 62
5
370
9
 48
3.0
440
16777216
100
AcDbLine
 10
802.2349107807095
 20
1439.9830711808145
 30
0.0
 11
794.234910780724
 21
1439.9830711808145
 31
0.0
  0
LINE
  5
13B
330
135
100
AcDbEntity
  8
DIM
 62
5
370
9
 48
3.0
440
16777216
100
AcDbLine
 10
817.234910780724
 20
1439.9830711808145
 30
0.0
 11
886.8808862240985
 21
1439.9830711808145
 31
0.0
  0
LINE
  5
13C
330
135
100
AcDbEntity
  8
DIM
 62
5
370
9
 48
3.0
440
16777216
100
AcDbLine
 10
802.2349107807095
 20
1439.9830711808145
 30
0.0
 11
817.234910780724
 21
1439.9830711808145
 31
0.0
  0
LINE
  5
13D
330
135
100
AcDbEntity
  8
0
  6
ByBlock
 62
0
370
-2
100
AcDbLine
 10
798.2349107807095
 20
1435.9830711808145
 30
0.0
 11
806.2349107807095
 21
1443.9830711808145
 31
0.0
  0
LINE
  5
13E
330
135
100
AcDbEntity
  8
0
  6
ByBlock
 62
0
370
-2
100
AcDbLine
 10
821.234910780724
 20
1443.9830711808145
 30
0.0
 11
813.234910780724
 21
1435.9830711808145
 31
0.0
  0
MTEXT
  5
13F
330
135
100
AcDbEntity
  8
DIM
 62
3
 48
3.0
440
16777216
100
AcDbMText
 10
860.0578985024113
 20
1462.7473958738565
 30
0.0
 40
25.0
 41
0.0
 46
0.0
 71
5
  1
15
  0
POINT
  5
140
330
135
100
AcDbEntity
  8
Defpoints
 62
0
 48
3.0
440
16777216
100
AcDbPoint
 10
802.2349107807095
 20
1351.3238362475286
 30
0.0
  0
POINT
  5
141
330
135
100
AcDbEntity
  8
Defpoints
 62
0
 48
3.0
440
16777216
100
AcDbPoint
 10
817.234910780724
 20
1336.3238362475286
 30
0.0
  0
POINT
  5
142
330
135
100
AcDbEntity
  8
Defpoints
 62
0
 48
3.0
440
16777216
100
AcDbPoint
 10
817.234910780724
 20
1439.9830711808145
 30
0.0
  0
ENDBLK
  5
137
330
135
100
AcDbEntity
  8
0
100
AcDbBlockEnd
  0
BLOCK
  5
144
330
143
100
AcDbEntity
  8
0
100
AcDbBlockBegin
  2
*D3
 70
1
 10
0.0
 20
0.0
 30
0.0
  3
*D3
  1

  0
LINE
  5
146
330
143
100
AcDbEntity
  8
DIM
 62
5
370
9
 48
3.0
440
16777216
100
AcDbLine
 10
308.234910780724
 20
1366.3238362475286
 30
0.0
 11
308.234910780724
 21
1449.9830711808145
 31
0.0
  0
LINE
  5
147
330
143
100
AcDbEntity
  8
DIM
 62
5
370
9
 48
3.0
440
16777216
100
AcDbLine
 10
802.2349107807095
 20
1366.3238362475286
 30
0.0
 11
802.2349107807095
 21
1449.9830711808145
 31
0.0
  0
LINE
  5
148
330
143
100
AcDbEntity
  8
DIM
 62
5
370
9
 48
3.0
440
16777216
100
AcDbLine
 10
308.234910780724
 20
1439.9830711808145
 30
0.0
 11
802.2349107807095
 21
1439.9830711808145
 31
0.0
  0
LINE
  5
149
330
143
100
AcDbEntity
  8
0
  6
ByBlock
 62
0
370
-2
100
AcDbLine
 10
312.234910780724
 20
1443.9830711808145
 30
0.0
 11
304.234910780724
 21
1435.9830711808145
 31
0.0
  0
LINE
  5
14A
330
143
100
AcDbEntity
  8
0
  6
ByBlock
 62
0
370
-2
100
AcDbLine
 10
798.2349107807095
 20
1435.9830711808145
 30
0.0
 11
806.2349107807095
 21
1443.9830711808145
 31
0.0
  0
MTEXT
  5
14B
330
143
100
AcDbEntity
  8
DIM
 62
3
 48
3.0
440
16777216
100
AcDbMText
 10
555.2349107807095
 20
1462.7473958738565
 30
0.0
 40
25.0
 41
0.0
 46
0.0
 71
5
  1
494
  0
POINT
  5
14C
330
143
100
AcDbEntity
  8
Defpoints
 62
0
 48
3.0
440
16777216
100
AcDbPoint
 10
308.234910780724
 20
1351.3238362475286
 30
0.0
  0
POINT
  5
14D
330
143
100
AcDbEntity
  8
Defpoints
 62
0
 48
3.0
440
16777216
100
AcDbPoint
 10
802.2349107807095
 20
1351.3238362475286
 30
0.0
  0
POINT
  5
14E
330
143
100
AcDbEntity
  8
Defpoints
 62
0
 48
3.0
440
16777216
100
AcDbPoint
 10
802.2349107807095
 20
1439.9830711808145
 30
0.0
  0
ENDBLK
  5
145
330
143
100
AcDbEntity
  8
0
100
AcDbBlockEnd
  0
BLOCK
  5
150
330
14F
100
AcDbEntity
  8
0
100
AcDbBlockBegin
  2
*D4
 70
1
 10
0.0
 20
0.0
 30
0.0
  3
*D4
  1

  0
LINE
  5
152
330
14F
100
AcDbEntity
  8
DIM
 62
5
370
9
 48
3.0
440
16777216
100
AcDbLine
 10
303.23491078070947
 20
1361.3238362475136
 30
0.0
 11
162.29564697838214
 21
1361.3238362475136
 31
0.0
  0
LINE
  5
153
330
14F
100
AcDbEntity
  8
DIM
 62
5
370
9
 48
3.0
440
16777216
100
AcDbLine
 10
303.23491078070947
 20
615.3238362475286
 30
0.0
 11
162.29564697838214
 21
615.3238362475286
 31
0.0
  0
LINE
  5
154
330
14F
100
AcDbEntity
  8
DIM
 62
5
370
9
 48
3.0
440
16777216
100
AcDbLine
 10
172.29564697838214
 20
1361.3238362475136
 30
0.0
 11
172.29564697838214
 21
615.3238362475286
 31
0.0
  0
LINE
  5
155
330
14F
100
AcDbEntity
  8
0
  6
ByBlock
 62
0
370
-2
100
AcDbLine
 10
176.29564697838214
 20
1357.3238362475136
 30
0.0
 11
168.29564697838214
 21
1365.3238362475136
 31
0.0
  0
LINE
  5
156
330
14F
100
AcDbEntity
  8
0
  6
ByBlock
 62
0
370
-2
100
AcDbLine
 10
168.29564697838214
 20
619.3238362475286
 30
0.0
 11
176.29564697838214
 21
611.3238362475286
 31
0.0
  0
MTEXT
  5
157
330
14F
100
AcDbEntity
  8
DIM
 62
3
 48
3.0
440
16777216
100
AcDbMText
 10
149.53132228532922
 20
988.3238362475126
 30
0.0
 40
25.0
 41
0.0
 46
0.0
 71
5
  1
746
 11
1e-16
 21
1.0
 31
0.0
  0
POINT
  5
158
330
14F
100
AcDbEntity
  8
Defpoints
 62
0
 48
3.0
440
16777216
100
AcDbPoint
 10
318.23491078070947
 20
1361.3238362475136
 30
0.0
  0
POINT
  5
159
330
14F
100
AcDbEntity
  8
Defpoints
 62
0
 48
3.0
440
16777216
100
AcDbPoint
 10
318.23491078070947
 20
615.3238362475286
 30
0.0
  0
POINT
  5
15A
330
14F
100
AcDbEntity
  8
Defpoints
 62
0
 48
3.0
440
16777216
100
AcDbPoint
 10
172.29564697838214
 20
615.3238362475286
 30
0.0
  0
ENDBLK
  5
151
330
14F
100
AcDbEntity
  8
0
100
AcDbBlockEnd
  0
BLOCK
  5
15C
330
15B
100
AcDbEntity
  8
0
100
AcDbBlockBegin
  2
*D5
 70
1
 10
0.0
 20
0.0
 30
0.0
  3
*D5
  1

  0
LINE
  5
15E
330
15B
100
AcDbEntity
  8
DIM
 62
5
370
9
 48
3.0
440
16777216
100
AcDbLine
 10
283.2349107807022
 20
635.3238362475286
 30
0.0
 11
283.2349107807022
 21
547.1070815691464
 31
0.0
  0
LINE
  5
15F
330
15B
100
AcDbEntity
  8
DIM
 62
5
370
9
 48
3.0
440
16777216
100
AcDbLine
 10
827.2349107807022
 20
635.3238362474995
 30
0.0
 11
827.2349107807022
 21
547.1070815691464
 31
0.0
  0
LINE
  5
160
330
15B
100
AcDbEntity
  8
DIM
 62
5
370
9
 48
3.0
440
16777216
100
AcDbLine
 10
283.2349107807022
 20
557.1070815691464
 30
0.0
 11
827.2349107807022
 21
557.1070815691464
 31
0.0
  0
LINE
  5
161
330
15B
100
AcDbEntity
  8
0
  6
ByBlock
 62
0
370
-2
100
AcDbLine
 10
287.2349107807022
 20
561.1070815691464
 30
0.0
 11
279.2349107807022
 21
553.1070815691464
 31
0.0
  0
LINE
  5
162
330
15B
100
AcDbEntity
  8
0
  6
ByBlock
 62
0
370
-2
100
AcDbLine
 10
823.2349107807022
 20
553.1070815691464
 30
0.0
 11
831.2349107807022
 21
561.1070815691464
 31
0.0
  0
MTEXT
  5
163
330
15B
100
AcDbEntity
  8
DIM
 62
3
 48
3.0
440
16777216
100
AcDbMText
 10
555.2349107807022
 20
579.8202466441803
 30
0.0
 40
25.0
 41
0.0
 46
0.0
 71
5
  1
544
  0
POINT
  5
164
330
15B
100
AcDbEntity
  8
Defpoints
 62
0
 48
3.0
440
16777216
100
AcDbPoint
 10
283.2349107807022
 20
650.3238362475286
 30
0.0
  0
POINT
  5
165
330
15B
100
AcDbEntity
  8
Defpoints
 62
0
 48
3.0
440
16777216
100
AcDbPoint
 10
827.2349107807022
 20
650.3238362474995
 30
0.0
  0
POINT
  5
166
330
15B
100
AcDbEntity
  8
Defpoints
 62
0
 48
3.0
440
16777216
100
AcDbPoint
 10
827.2349107807022
 20
557.1070815691464
 30
0.0
  0
ENDBLK
  5
15D
330
15B
100
AcDbEntity
  8
0
100
AcDbBlockEnd
  0
BLOCK
  5
168
330
167
100
AcDbEntity
  8
0
100
AcDbBlockBegin
  2
*D6
 70
1
 10
0.0
 20
0.0
 30
0.0
  3
*D6
  1

  0
LINE
  5
16A
330
167
100
AcDbEntity
  8
DIM
 62
5
370
9
 48
3.0
440
16777216
100
AcDbLine
 10
278.234910780724
 20
1336.3238362475286
 30
0.0
 11
237.47390808672935
 21
1336.3238362475286
 31
0.0
  0
LINE
  5
16B
330
167
100
AcDbEntity
  8
DIM
 62
5
370
9
 48
3.0
440
16777216
100
AcDbLine
 10
278.234910780724
 20
640.3238362475286
 30
0.0
 11
237.47390808672935
 21
640.3238362475286
 31
0.0
  0
LINE
  5
16C
330
167
100
AcDbEntity
  8
DIM
 62
5
370
9
 48
3.0
440
16777216
100
AcDbLine
 10
247.47390808672208
 20
1336.3238362475286
 30
0.0
 11
247.47390808672208
 21
640.3238362475286
 31
0.0
  0
LINE
  5
16D
330
167
100
AcDbEntity
  8
0
  6
ByBlock
 62
0
370
-2
100
AcDbLine
 10
251.47390808672208
 20
1332.3238362475286
 30
0.0
 11
243.47390808672208
 21
1340.3238362475286
 31
0.0
  0
LINE
  5
16E
330
167
100
AcDbEntity
  8
0
  6
ByBlock
 62
0
370
-2
100
AcDbLine
 10
243.47390808672208
 20
644.3238362475286
 30
0.0
 11
251.47390808672208
 21
636.3238362475286
 31
0.0
  0
MTEXT
  5
16F
330
167
100
AcDbEntity
  8
DIM
 62
3
 48
3.0
440
16777216
100
AcDbMText
 10
224.70958339368372
 20
988.3238362475195
 30
0.0
 40
25.0
 41
0.0
 46
0.0
 71
5
  1
696
 11
1e-16
 21
1.0
 31
0.0
  0
POINT
  5
170
330
167
100
AcDbEntity
  8
Defpoints
 62
0
 48
3.0
440
16777216
100
AcDbPoint
 10
293.234910780724
 20
1336.3238362475286
 30
0.0
  0
POINT
  5
171
330
167
100
AcDbEntity
  8
Defpoints
 62
0
 48
3.0
440
16777216
100
AcDbPoint
 10
293.234910780724
 20
640.3238362475286
 30
0.0
  0
POINT
  5
172
330
167
100
AcDbEntity
  8
Defpoints
 62
0
 48
3.0
440
16777216
100
AcDbPoint
 10
247.47390808672208
 20
640.3238362475286
 30
0.0
  0
ENDBLK
  5
169
330
167
100
AcDbEntity
  8
0
100
AcDbBlockEnd
  0
BLOCK
  5
174
330
173
100
AcDbEntity
  8
0
100
AcDbBlockBegin
  2
*D7
 70
1
 10
0.0
 20
0.0
 30
0.0
  3
*D7
  1

  0
LINE
  5
176
330
173
100
AcDbEntity
  8
DIM
 62
5
370
9
 48
3.0
440
16777216
100
AcDbLine
 10
1608.8979433416753
 20
1316.8238362475286
 30
0.0
 11
1608.8979433416753
 21
1367.9645551972185
 31
0.0
  0
LINE
  5
177
330
173
100
AcDbEntity
  8
DIM
 62
5
370
9
 48
3.0
440
16777216
100
AcDbLine
 10
1618.8979433416607
 20
1306.8238362475286
 30
0.0
 11
1618.8979433416607
 21
1367.9645551972185
 31
0.0
  0
LINE
  5
178
330
173
100
AcDbEntity
  8
DIM
 62
5
370
9
 48
3.0
440
16777216
100
AcDbLine
 10
1608.8979433416753
 20
1357.9645551972176
 30
0.0
 11
1600.8979433416753
 21
1357.9645551972176
 31
0.0
  0
LINE
  5
179
330
173
100
AcDbEntity
  8
DIM
 62
5
370
9
 48
3.0
440
16777216
100
AcDbLine
 10
1618.8979433416607
 20
1357.9645551972176
 30
0.0
 11
1688.271067489004
 21
1357.9645551972176
 31
0.0
  0
LINE
  5
17A
330
173
100
AcDbEntity
  8
DIM
 62
5
370
9
 48
3.0
440
16777216
100
AcDbLine
 10
1608.8979433416753
 20
1357.9645551972176
 30
0.0
 11
1618.8979433416607
 21
1357.9645551972176
 31
0.0
  0
LINE
  5
17B
330
173
100
AcDbEntity
  8
0
  6
ByBlock
 62
0
370
-2
100
AcDbLine
 10
1604.8979433416753
 20
1353.9645551972176
 30
0.0
 11
1612.8979433416753
 21
1361.9645551972176
 31
0.0
  0
LINE
  5
17C
330
173
100
AcDbEntity
  8
0
  6
ByBlock
 62
0
370
-2
100
AcDbLine
 10
1622.8979433416607
 20
1361.9645551972176
 30
0.0
 11
1614.8979433416607
 21
1353.9645551972176
 31
0.0
  0
MTEXT
  5
17D
330
173
100
AcDbEntity
  8
DIM
 62
3
 48
3.0
440
16777216
100
AcDbMText
 10
1661.5845054153324
 20
1380.7288798902605
 30
0.0
 40
25.0
 41
0.0
 46
0.0
 71
5
  1
10
  0
POINT
  5
17E
330
173
100
AcDbEntity
  8
Defpoints
 62
0
 48
3.0
440
16777216
100
AcDbPoint
 10
1608.8979433416753
 20
1301.8238362475286
 30
0.0
  0
POINT
  5
17F
330
173
100
AcDbEntity
  8
Defpoints
 62
0
 48
3.0
440
16777216
100
AcDbPoint
 10
1618.8979433416607
 20
1291.8238362475286
 30
0.0
  0
POINT
  5
180
330
173
100
AcDbEntity
  8
Defpoints
 62
0
 48
3.0
440
16777216
100
AcDbPoint
 10
1618.8979433416607
 20
1357.9645551972176
 30
0.0
  0
ENDBLK
  5
175
330
173
100
AcDbEntity
  8
0
100
AcDbBlockEnd
  0
BLOCK
  5
182
330
181
100
AcDbEntity
  8
0
100
AcDbBlockBegin
  2
*D8
 70
1
 10
0.0
 20
0.0
 30
0.0
  3
*D8
  1

  0
LINE
  5
184
330
181
100
AcDbEntity
  8
DIM
 62
5
370
9
 48
3.0
440
16777216
100
AcDbLine
 10
1593.8979433416825
 20
1331.8238362475286
 30
0.0
 11
1593.8979433416825
 21
1415.4830711808145
 31
0.0
  0
LINE
  5
185
330
181
100
AcDbEntity
  8
DIM
 62
5
370
9
 48
3.0
440
16777216
100
AcDbLine
 10
1608.8979433416753
 20
1316.8238362475286
 30
0.0
 11
1608.8979433416753
 21
1415.4830711808145
 31
0.0
  0
LINE
  5
186
330
181
100
AcDbEntity
  8
DIM
 62
5
370
9
 48
3.0
440
16777216
100
AcDbLine
 10
1593.8979433416825
 20
1405.4830711808145
 30
0.0
 11
1585.8979433416753
 21
1405.4830711808145
 31
0.0
  0
LINE
  5
187
330
181
100
AcDbEntity
  8
DIM
 62
5
370
9
 48
3.0
440
16777216
100
AcDbLine
 10
1608.8979433416753
 20
1405.4830711808145
 30
0.0
 11
1678.5439187850643
 21
1405.4830711808145
 31
0.0
  0
LINE
  5
188
330
181
100
AcDbEntity
  8
DIM
 62
5
370
9
 48
3.0
440
16777216
100
AcDbLine
 10
1593.8979433416825
 20
1405.4830711808145
 30
0.0
 11
1608.8979433416753
 21
1405.4830711808145
 31
0.0
  0
LINE
  5
189
330
181
100
AcDbEntity
  8
0
  6
ByBlock
 62
0
370
-2
100
AcDbLine
 10
1589.8979433416825
 20
1401.4830711808145
 30
0.0
 11
1597.8979433416825
 21
1409.4830711808145
 31
0.0
  0
LINE
  5
18A
330
181
100
AcDbEntity
  8
0
  6
ByBlock
 62
0
370
-2
100
AcDbLine
 10
1612.8979433416753
 20
1409.4830711808145
 30
0.0
 11
1604.8979433416753
 21
1401.4830711808145
 31
0.0
  0
MTEXT
  5
18B
330
181
100
AcDbEntity
  8
DIM
 62
3
 48
3.0
440
16777216
100
AcDbMText
 10
1651.7209310633698
 20
1428.2473958738565
 30
0.0
 40
25.0
 41
0.0
 46
0.0
 71
5
  1
15
  0
POINT
  5
18C
330
181
100
AcDbEntity
  8
Defpoints
 62
0
 48
3.0
440
16777216
100
AcDbPoint
 10
1593.8979433416825
 20
1316.8238362475286
 30
0.0
  0
POINT
  5
18D
330
181
100
AcDbEntity
  8
Defpoints
 62
0
 48
3.0
440
16777216
100
AcDbPoint
 10
1608.8979433416753
 20
1301.8238362475286
 30
0.0
  0
POINT
  5
18E
330
181
100
AcDbEntity
  8
Defpoints
 62
0
 48
3.0
440
16777216
100
AcDbPoint
 10
1608.8979433416753
 20
1405.4830711808145
 30
0.0
  0
ENDBLK
  5
183
330
181
100
AcDbEntity
  8
0
100
AcDbBlockEnd
  0
BLOCK
  5
190
330
18F
100
AcDbEntity
  8
0
100
AcDbBlockBegin
  2
*D9
 70
1
 10
0.0
 20
0.0
 30
0.0
  3
*D9
  1

  0
LINE
  5
192
330
18F
100
AcDbEntity
  8
DIM
 62
5
370
9
 48
3.0
440
16777216
100
AcDbLine
 10
1166.8979433416753
 20
1331.8238362475286
 30
0.0
 11
1166.8979433416753
 21
1415.4830711808145
 31
0.0
  0
LINE
  5
193
330
18F
100
AcDbEntity
  8
DIM
 62
5
370
9
 48
3.0
440
16777216
100
AcDbLine
 10
1593.8979433416825
 20
1331.8238362475286
 30
0.0
 11
1593.8979433416825
 21
1415.4830711808145
 31
0.0
  0
LINE
  5
194
330
18F
100
AcDbEntity
  8
DIM
 62
5
370
9
 48
3.0
440
16777216
100
AcDbLine
 10
1166.8979433416753
 20
1405.4830711808145
 30
0.0
 11
1593.8979433416825
 21
1405.4830711808145
 31
0.0
  0
LINE
  5
195
330
18F
100
AcDbEntity
  8
0
  6
ByBlock
 62
0
370
-2
100
AcDbLine
 10
1170.8979433416753
 20
1409.4830711808145
 30
0.0
 11
1162.8979433416753
 21
1401.4830711808145
 31
0.0
  0
LINE
  5
196
330
18F
100
AcDbEntity
  8
0
  6
ByBlock
 62
0
370
-2
100
AcDbLine
 10
1589.8979433416825
 20
1401.4830711808145
 30
0.0
 11
1597.8979433416825
 21
1409.4830711808145
 31
0.0
  0
MTEXT
  5
197
330
18F
100
AcDbEntity
  8
DIM
 62
3
 48
3.0
440
16777216
100
AcDbMText
 10
1380.3979433416825
 20
1428.0342307988226
 30
0.0
 40
25.0
 41
0.0
 46
0.0
 71
5
  1
427
  0
POINT
  5
198
330
18F
100
AcDbEntity
  8
Defpoints
 62
0
 48
3.0
440
16777216
100
AcDbPoint
 10
1166.8979433416753
 20
1316.8238362475286
 30
0.0
  0
POINT
  5
199
330
18F
100
AcDbEntity
  8
Defpoints
 62
0
 48
3.0
440
16777216
100
AcDbPoint
 10
1593.8979433416825
 20
1316.8238362475286
 30
0.0
  0
POINT
  5
19A
330
18F
100
AcDbEntity
  8
Defpoints
 62
0
 48
3.0
440
16777216
100
AcDbPoint
 10
1593.8979433416825
 20
1405.4830711808145
 30
0.0
  0
ENDBLK
  5
191
330
18F
100
AcDbEntity
  8
0
100
AcDbBlockEnd
  0
BLOCK
  5
19C
330
19B
100
AcDbEntity
  8
0
100
AcDbBlockBegin
  2
*D10
 70
1
 10
0.0
 20
0.0
 30
0.0
  3
*D10
  1

  0
LINE
  5
19E
330
19B
100
AcDbEntity
  8
DIM
 62
5
370
9
 48
3.0
440
16777216
100
AcDbLine
 10
1161.8979433416753
 20
1326.8238362475145
 30
0.0
 11
1020.9586795393407
 21
1326.8238362475145
 31
0.0
  0
LINE
  5
19F
330
19B
100
AcDbEntity
  8
DIM
 62
5
370
9
 48
3.0
440
16777216
100
AcDbLine
 10
1161.8979433416753
 20
649.8238362475286
 30
0.0
 11
1020.9586795393407
 21
649.8238362475286
 31
0.0
  0
LINE
  5
1A0
330
19B
100
AcDbEntity
  8
DIM
 62
5
370
9
 48
3.0
440
16777216
100
AcDbLine
 10
1030.9586795393334
 20
1326.8238362475145
 30
0.0
 11
1030.9586795393334
 21
649.8238362475286
 31
0.0
  0
LINE
  5
1A1
330
19B
100
AcDbEntity
  8
0
  6
ByBlock
 62
0
370
-2
100
AcDbLine
 10
1034.9586795393334
 20
1322.8238362475145
 30
0.0
 11
1026.9586795393334
 21
1330.8238362475145
 31
0.0
  0
LINE
  5
1A2
330
19B
100
AcDbEntity
  8
0
  6
ByBlock
 62
0
370
-2
100
AcDbLine
 10
1026.9586795393334
 20
653.8238362475286
 30
0.0
 11
1034.9586795393334
 21
645.8238362475286
 31
0.0
  0
MTEXT
  5
1A3
330
19B
100
AcDbEntity
  8
DIM
 62
3
 48
3.0
440
16777216
100
AcDbMText
 10
1008.194354846295
 20
988.3238362475126
 30
0.0
 40
25.0
 41
0.0
 46
0.0
 71
5
  1
677
 11
1e-16
 21
1.0
 31
0.0
  0
POINT
  5
1A4
330
19B
100
AcDbEntity
  8
Defpoints
 62
0
 48
3.0
440
16777216
100
AcDbPoint
 10
1176.8979433416825
 20
1326.8238362475145
 30
0.0
  0
POINT
  5
1A5
330
19B
100
AcDbEntity
  8
Defpoints
 62
0
 48
3.0
440
16777216
100
AcDbPoint
 10
1176.8979433416825
 20
649.8238362475286
 30
0.0
  0
POINT
  5
1A6
330
19B
100
AcDbEntity
  8
Defpoints
 62
0
 48
3.0
440
16777216
100
AcDbPoint
 10
1030.9586795393334
 20
649.8238362475286
 30
0.0
  0
ENDBLK
  5
19D
330
19B
100
AcDbEntity
  8
0
100
AcDbBlockEnd
  0
BLOCK
  5
1A8
330
1A7
100
AcDbEntity
  8
0
100
AcDbBlockBegin
  2
*D11
 70
1
 10
0.0
 20
0.0
 30
0.0
  3
*D11
  1

  0
LINE
  5
1AA
330
1A7
100
AcDbEntity
  8
DIM
 62
5
370
9
 48
3.0
440
16777216
100
AcDbLine
 10
1141.8979433416607
 20
669.8238362475286
 30
0.0
 11
1141.8979433416607
 21
581.6070815691464
 31
0.0
  0
LINE
  5
1AB
330
1A7
100
AcDbEntity
  8
DIM
 62
5
370
9
 48
3.0
440
16777216
100
AcDbLine
 10
1618.8979433416607
 20
669.8238362474995
 30
0.0
 11
1618.8979433416607
 21
581.6070815691464
 31
0.0
  0
LINE
  5
1AC
330
1A7
100
AcDbEntity
  8
DIM
 62
5
370
9
 48
3.0
440
16777216
100
AcDbLine
 10
1141.8979433416607
 20
591.6070815691455
 30
0.0
 11
1618.8979433416607
 21
591.6070815691455
 31
0.0
  0
LINE
  5
1AD
330
1A7
100
AcDbEntity
  8
0
  6
ByBlock
 62
0
370
-2
100
AcDbLine
 10
1145.8979433416607
 20
595.6070815691455
 30
0.0
 11
1137.8979433416607
 21
587.6070815691455
 31
0.0
  0
LINE
  5
1AE
330
1A7
100
AcDbEntity
  8
0
  6
ByBlock
 62
0
370
-2
100
AcDbLine
 10
1614.8979433416607
 20
587.6070815691455
 30
0.0
 11
1622.8979433416607
 21
595.6070815691455
 31
0.0
  0
MTEXT
  5
1AF
330
1A7
100
AcDbEntity
  8
DIM
 62
3
 48
3.0
440
16777216
100
AcDbMText
 10
1380.3979433416607
 20
614.1070815691464
 30
0.0
 40
25.0
 41
0.0
 46
0.0
 71
5
  1
477
  0
POINT
  5
1B0
330
1A7
100
AcDbEntity
  8
Defpoints
 62
0
 48
3.0
440
16777216
100
AcDbPoint
 10
1141.8979433416607
 20
684.8238362475286
 30
0.0
  0
POINT
  5
1B1
330
1A7
100
AcDbEntity
  8
Defpoints
 62
0
 48
3.0
440
16777216
100
AcDbPoint
 10
1618.8979433416607
 20
684.8238362474985
 30
0.0
  0
POINT
  5
1B2
330
1A7
100
AcDbEntity
  8
Defpoints
 62
0
 48
3.0
440
16777216
100
AcDbPoint
 10
1618.8979433416607
 20
591.6070815691455
 30
0.0
  0
ENDBLK
  5
1A9
330
1A7
100
AcDbEntity
  8
0
100
AcDbBlockEnd
  0
BLOCK
  5
1B4
330
1B3
100
AcDbEntity
  8
0
100
AcDbBlockBegin
  2
*D12
 70
1
 10
0.0
 20
0.0
 30
0.0
  3
*D12
  1

  0
LINE
  5
1B6
330
1B3
100
AcDbEntity
  8
DIM
 62
5
370
9
 48
3.0
440
16777216
100
AcDbLine
 10
1136.8979433416825
 20
1301.8238362475286
 30
0.0
 11
1096.1369406476952
 21
1301.8238362475286
 31
0.0
  0
LINE
  5
1B7
330
1B3
100
AcDbEntity
  8
DIM
 62
5
370
9
 48
3.0
440
16777216
100
AcDbLine
 10
1136.8979433416825
 20
674.8238362475286
 30
0.0
 11
1096.1369406476952
 21
674.8238362475286
 31
0.0
  0
LINE
  5
1B8
330
1B3
100
AcDbEntity
  8
DIM
 62
5
370
9
 48
3.0
440
16777216
100
AcDbLine
 10
1106.1369406476806
 20
1301.8238362475286
 30
0.0
 11
1106.1369406476806
 21
674.8238362475286
 31
0.0
  0
LINE
  5
1B9
330
1B3
100
AcDbEntity
  8
0
  6
ByBlock
 62
0
370
-2
100
AcDbLine
 10
1110.1369406476806
 20
1297.8238362475286
 30
0.0
 11
1102.1369406476806
 21
1305.8238362475286
 31
0.0
  0
LINE
  5
1BA
330
1B3
100
AcDbEntity
  8
0
  6
ByBlock
 62
0
370
-2
100
AcDbLine
 10
1102.1369406476806
 20
678.8238362475286
 30
0.0
 11
1110.1369406476806
 21
670.8238362475286
 31
0.0
  0
MTEXT
  5
1BB
330
1B3
100
AcDbEntity
  8
DIM
 62
3
 48
3.0
440
16777216
100
AcDbMText
 10
1083.3726159546422
 20
988.3238362475195
 30
0.0
 40
25.0
 41
0.0
 46
0.0
 71
5
  1
627
 11
1e-16
 21
1.0
 31
0.0
  0
POINT
  5
1BC
330
1B3
100
AcDbEntity
  8
Defpoints
 62
0
 48
3.0
440
16777216
100
AcDbPoint
 10
1151.8979433416825
 20
1301.8238362475286
 30
0.0
  0
POINT
  5
1BD
330
1B3
100
AcDbEntity
  8
Defpoints
 62
0
 48
3.0
440
16777216
100
AcDbPoint
 10
1151.8979433416825
 20
674.8238362475286
 30
0.0
  0
POINT
  5
1BE
330
1B3
100
AcDbEntity
  8
Defpoints
 62
0
 48
3.0
440
16777216
100
AcDbPoint
 10
1106.1369406476806
 20
674.8238362475286
 30
0.0
  0
ENDBLK
  5
1B5
330
1B3
100
AcDbEntity
  8
0
100
AcDbBlockEnd
  0
ENDSEC
  0
SECTION
  2
ENTITIES
  0
INSERT
  5
2F
330
17
100
AcDbEntity
  8
0
 62
7
100
AcDbBlockReference
 66
1
  2
khungtenAsean2
 10
0.0
 20
1530.9000000027086
 30
0.0
 41
0.7290000000011787
 42
0.7290000000011787
 43
0.7290000000011787
  0
ATTRIB
  5
30
330
2F
100
AcDbEntity
  8
0
 62
1
100
AcDbText
 10
2102.264111237375
 20
23.80345372627653
 30
0.0
 40
18.225
  1
......
  7
Tahoma (Input Text)
 72
1
 11
2125.0300615395827
 21
23.80345372627653
 31
0.0
100
AcDbAttribute
  2
#11
 70
0
 71
1
 72
0
 11
2125.0300615395827
 21
23.80345372627653
 31
0.0
  0
ATTRIB
  5
31
330
2F
100
AcDbEntity
  8
0
 62
1
100
AcDbText
 10
1564.956676588372
 20
57.390370679236185
 30
0.0
 40
18.225
  1
......
  7
Tahoma (Input Text)
100
AcDbAttribute
  2
#09
 70
0
 71
1
 72
0
  0
ATTRIB
  5
32
330
2F
100
AcDbEntity
  8
0
 62
1
100
AcDbText
 10
1564.956676588372
 20
13.650370679236403
 30
0.0
 40
18.225
  1
......
  7
Tahoma (Input Text)
100
AcDbAttribute
  2
#10
 70
0
 71
1
 72
0
  0
ATTRIB
  5
33
330
2F
100
AcDbEntity
  8
0
 62
1
100
AcDbText
 10
1324.919421219609
 20
13.650370679236403
 30
0.0
 40
18.225
  1
......
  7
Tahoma (Input Text)
100
AcDbAttribute
  2
#08
 70
0
 71
1
 72
0
  0
ATTRIB
  5
34
330
2F
100
AcDbEntity
  8
0
 62
1
100
AcDbText
 10
1337.4828210273408
 20
57.390370679236185
 30
0.0
 40
18.225
  1
......
  7
Tahoma (Input Text)
100
AcDbAttribute
  2
#07
 70
0
 71
1
 72
0
  0
ATTRIB
  5
35
330
2F
100
AcDbEntity
  8
0
 62
1
100
AcDbText
 10
776.626218185731
 20
13.650370679236403
 30
0.0
 40
18.225
  1
......
  7
Tahoma (Input Text)
100
AcDbAttribute
  2
#06
 70
0
 71
1
 72
0
  0
ATTRIB
  5
36
330
2F
100
AcDbEntity
  8
0
 62
1
100
AcDbText
 10
806.7319411220597
 20
57.390370679236185
 30
0.0
 40
18.225
  1
......
  7
Tahoma (Input Text)
100
AcDbAttribute
  2
#05
 70
0
 71
1
 72
0
  0
ATTRIB
  5
37
330
2F
100
AcDbEntity
  8
0
 62
1
100
AcDbText
 10
354.37056468701485
 20
13.650370679236403
 30
0.0
 40
18.225
  1
......
  7
Tahoma (Input Text)
100
AcDbAttribute
  2
#04
 70
0
 71
1
 72
0
  0
ATTRIB
  5
38
330
2F
100
AcDbEntity
  8
0
 62
1
100
AcDbText
 10
369.2900759821641
 20
58.82913324570927
 30
0.0
 40
18.225
  1
......
  7
Tahoma (Input Text)
100
AcDbAttribute
  2
#03
 70
0
 71
1
 72
0
  0
ATTRIB
  5
39
330
2F
100
AcDbEntity
  8
0
 62
1
100
AcDbText
 10
71.77495216282114
 20
13.650370679236403
 30
0.0
 40
18.225
  1
......
  7
Tahoma (Input Text)
100
AcDbAttribute
  2
#02
 70
0
 71
1
 72
0
  0
ATTRIB
  5
3A
330
2F
100
AcDbEntity
  8
0
 62
1
100
AcDbText
 10
99.91200721354835
 20
57.390370679236185
 30
0.0
 40
18.225
  1
......
  7
Tahoma (Input Text)
100
AcDbAttribute
  2
#01
 70
0
 71
1
 72
0
  0
SEQEND
  5
3B
330
17
100
AcDbEntity
  8
0
 62
7
  0
LWPOLYLINE
  5
3C
330
17
100
AcDbEntity
  8
0
 62
7
100
AcDbPolyline
 90
6
 70
0
 10
802.2349107807095
 20
708.3238362475286
 10
802.2349107807095
 20
640.3238362475286
 10
308.234910780724
 20
640.3238362475286
 10
308.234910780724
 20
1336.3238362475286
 10
802.2349107807095
 20
1336.3238362475286
 10
802.2349107807095
 20
1268.3238362475245
  0
LWPOLYLINE
  5
3D
330
17
100
AcDbEntity
  8
0
 62
7
100
AcDbPolyline
 90
2
 70
0
 10
802.2349107807095
 20
1248.3238362475254
 10
802.2349107807095
 20
728.3238362475286
  0
LWPOLYLINE
  5
3E
330
17
100
AcDbEntity
  8
0
 62
7
100
AcDbPolyline
 90
22
 70
0
 10
827.2349107807022
 20
708.3238362475286
 10
827.2349107807022
 20
650.3238362474995
 10
817.234910780724
 20
640.3238362475286
 10
802.2349107807095
 20
640.3238362475286
 10
802.2349107807095
 20
625.3238362475286
 10
792.234910780724
 20
615.3238362475286
 10
318.23491078070947
 20
615.3238362475286
 10
308.234910780724
 20
625.3238362475286
 10
308.234910780724
 20
640.3238362475286
 10
293.234910780724
 20
640.3238362475286
 10
283.2349107807022
 20
650.3238362475286
 10
283.234910780724
 20
1326.3238362475286
 10
293.234910780724
 20
1336.3238362475286
 10
308.234910780724
 20
1336.3238362475286
 10
308.234910780724
 20
1351.3238362475286
 10
318.23491078070947
 20
1361.3238362475136
 10
792.234910780724
 20
1361.3238362475136
 10
802.2349107807095
 20
1351.3238362475286
 10
802.2349107807095
 20
1336.3238362475286
 10
817.234910780724
 20
1336.3238362475286
 10
827.2349107807022
 20
1326.3238362475286
 10
827.2349107807022
 20
1268.3238362475245
  0
LWPOLYLINE
  5
3F
330
17
100
AcDbEntity
  8
0
 62
7
100
AcDbPolyline
 90
2
 70
0
 10
827.2349107807022
 20
1248.3238362475254
 10
827.2349107807022
 20
728.3238362475286
  0
LWPOLYLINE
  5
40
330
17
100
AcDbEntity
  8
0
 62
7
100
AcDbPolyline
 90
2
 70
0
 10
817.234910780724
 20
1336.3238362475286
 10
817.234910780724
 20
1268.3238362475245
  0
LWPOLYLINE
  5
41
330
17
100
AcDbEntity
  8
0
 62
7
100
AcDbPolyline
 90
2
 70
0
 10
817.234910780724
 20
1248.3238362475254
 10
817.234910780724
 20
728.3238362475286
  0
LWPOLYLINE
  5
42
330
17
100
AcDbEntity
  8
0
 62
7
100
AcDbPolyline
 90
2
 70
0
 10
817.234910780724
 20
708.3238362475286
 10
817.234910780724
 20
640.3238362475286
  0
LWPOLYLINE
  5
43
330
17
100
AcDbEntity
  8
0
 62
7
100
AcDbPolyline
 90
2
 70
0
 10
802.2349107807095
 20
625.3238362475286
 10
308.234910780724
 20
625.3238362475286
  0
LWPOLYLINE
  5
44
330
17
100
AcDbEntity
  8
0
 62
7
100
AcDbPolyline
 90
2
 70
0
 10
293.234910780724
 20
640.3238362475286
 10
293.234910780724
 20
1336.3238362475286
  0
LWPOLYLINE
  5
45
330
17
100
AcDbEntity
  8
0
 62
7
100
AcDbPolyline
 90
2
 70
0
 10
308.234910780724
 20
1351.3238362475286
 10
802.2349107807095
 20
1351.3238362475286
  0
LWPOLYLINE
  5
46
330
17
100
AcDbEntity
  8
0
 62
2
100
AcDbPolyline
 90
4
 70
0
 10
827.2349107807022
 20
1248.3238362475254
 10
791.2349107807022
 20
1248.3238362475254
 10
791.2349107807022
 20
1268.3238362475245
 10
827.2349107807022
 20
1268.3238362475245
  0
LWPOLYLINE
  5
47
330
17
100
AcDbEntity
  8
0
 62
2
100
AcDbPolyline
 90
4
 70
0
 10
827.2349107807022
 20
728.3238362475286
 10
791.2349107807022
 20
728.3238362475286
 10
791.2349107807022
 20
708.3238362475286
 10
827.2349107807022
 20
708.3238362475286
  0
INSERT
  5
48
330
17
100
AcDbEntity
  8
0
370
-3
100
AcDbBlockReference
  2
f3daunguoc
 10
323.234910780724
 20
1336.3238362475286
 30
0.0
 41
-1.0
 50
180.0
  0
INSERT
  5
4A
330
17
100
AcDbEntity
  8
0
370
-3
100
AcDbBlockReference
  2
f3daunguoc
 10
308.234910780724
 20
1321.3238362475286
 30
0.0
 41
-1.0
 50
180.0
  0
INSERT
  5
4C
330
17
100
AcDbEntity
  8
0
370
-3
100
AcDbBlockReference
  2
f3daunguoc
 10
323.234910780724
 20
1351.3238362475286
 30
0.0
 41
-1.0
 50
180.0
  0
INSERT
  5
4E
330
17
100
AcDbEntity
  8
0
370
-3
100
AcDbBlockReference
  2
f3daunguoc
 10
293.234910780724
 20
1321.3238362475286
 30
0.0
 41
-1.0
 50
180.0
  0
INSERT
  5
50
330
17
100
AcDbEntity
  8
0
370
-3
100
AcDbBlockReference
  2
f3daunguoc
 10
373.234910780724
 20
1336.3238362475286
 30
0.0
 41
-1.0
 50
180.0
  0
INSERT
  5
52
330
17
100
AcDbEntity
  8
0
370
-3
100
AcDbBlockReference
  2
f3daunguoc
 10
373.234910780724
 20
1351.3238362475286
 30
0.0
 41
-1.0
 50
180.0
  0
INSERT
  5
54
330
17
100
AcDbEntity
  8
0
370
-3
100
AcDbBlockReference
  2
f3daunguoc
 10
787.2349107807095
 20
1336.3238362475286
 30
0.0
 50
180.0
  0
INSERT
  5
56
330
17
100
AcDbEntity
  8
0
370
-3
100
AcDbBlockReference
  2
f3daunguoc
 10
802.2349107807095
 20
1321.3238362475286
 30
0.0
 50
180.0
  0
INSERT
  5
58
330
17
100
AcDbEntity
  8
0
370
-3
100
AcDbBlockReference
  2
f3daunguoc
 10
787.2349107807095
 20
1351.3238362475286
 30
0.0
 50
180.0
  0
INSERT
  5
5A
330
17
100
AcDbEntity
  8
0
370
-3
100
AcDbBlockReference
  2
f3daunguoc
 10
817.234910780724
 20
1321.3238362475286
 30
0.0
 50
180.0
  0
INSERT
  5
5C
330
17
100
AcDbEntity
  8
0
370
-3
100
AcDbBlockReference
  2
f3daunguoc
 10
737.234910780724
 20
1336.3238362475286
 30
0.0
 50
180.0
  0
INSERT
  5
5E
330
17
100
AcDbEntity
  8
0
370
-3
100
AcDbBlockReference
  2
f3daunguoc
 10
737.234910780724
 20
1351.3238362475286
 30
0.0
 50
180.0
  0
INSERT
  5
60
330
17
100
AcDbEntity
  8
0
370
-3
100
AcDbBlockReference
  2
f3daunguoc
 10
323.234910780724
 20
640.3238362475286
 30
0.0
  0
INSERT
  5
62
330
17
100
AcDbEntity
  8
0
370
-3
100
AcDbBlockReference
  2
f3daunguoc
 10
308.234910780724
 20
655.3238362475286
 30
0.0
  0
INSERT
  5
64
330
17
100
AcDbEntity
  8
0
370
-3
100
AcDbBlockReference
  2
f3daunguoc
 10
323.234910780724
 20
625.3238362475286
 30
0.0
  0
INSERT
  5
66
330
17
100
AcDbEntity
  8
0
370
-3
100
AcDbBlockReference
  2
f3daunguoc
 10
293.234910780724
 20
655.3238362475286
 30
0.0
  0
INSERT
  5
68
330
17
100
AcDbEntity
  8
0
370
-3
100
AcDbBlockReference
  2
f3daunguoc
 10
373.234910780724
 20
640.3238362475286
 30
0.0
  0
INSERT
  5
6A
330
17
100
AcDbEntity
  8
0
370
-3
100
AcDbBlockReference
  2
f3daunguoc
 10
373.234910780724
 20
625.3238362475286
 30
0.0
  0
INSERT
  5
6C
330
17
100
AcDbEntity
  8
0
370
-3
100
AcDbBlockReference
  2
f3daunguoc
 10
787.2349107807095
 20
640.3238362475286
 30
0.0
 41
-1.0
  0
INSERT
  5
6E
330
17
100
AcDbEntity
  8
0
370
-3
100
AcDbBlockReference
  2
f3daunguoc
 10
802.2349107807095
 20
655.3238362475286
 30
0.0
 41
-1.0
  0
INSERT
  5
70
330
17
100
AcDbEntity
  8
0
370
-3
100
AcDbBlockReference
  2
f3daunguoc
 10
787.2349107807095
 20
625.3238362475286
 30
0.0
 41
-1.0
  0
INSERT
  5
72
330
17
100
AcDbEntity
  8
0
370
-3
100
AcDbBlockReference
  2
f3daunguoc
 10
817.234910780724
 20
655.3238362475286
 30
0.0
 41
-1.0
  0
INSERT
  5
74
330
17
100
AcDbEntity
  8
0
370
-3
100
AcDbBlockReference
  2
f3daunguoc
 10
737.234910780724
 20
640.3238362475286
 30
0.0
 41
-1.0
  0
INSERT
  5
76
330
17
100
AcDbEntity
  8
0
370
-3
100
AcDbBlockReference
  2
f3daunguoc
 10
737.234910780724
 20
625.3238362475286
 30
0.0
 41
-1.0
  0
DIMENSION
  5
78
330
17
100
AcDbEntity
  8
DIM
 62
2
 48
3.0
100
AcDbDimension
280
0
  2
*D1
  3
Dim-25
 10
827.2349107807022
 20
1392.4645551972185
 30
0.0
 11
869.9214728543739
 21
1415.2288798902605
 31
0.0
 70
32
 71
5
 42
9.999999999985448
 73
0
 74
0
 75
0
100
AcDbAlignedDimension
 13
817.234910780724
 23
1336.3238362475286
 33
0.0
 14
827.2349107807022
 24
1326.3238362475286
 34
0.0
 50
0.0
100
AcDbRotatedDimension
  0
DIMENSION
  5
7D
330
17
100
AcDbEntity
  8
DIM
 62
2
 48
3.0
100
AcDbDimension
280
0
  2
*D2
  3
Dim-25
 10
817.234910780724
 20
1439.9830711808145
 30
0.0
 11
860.0578985024113
 21
1462.7473958738565
 31
0.0
 70
32
 71
5
 42
15.0
 73
0
 74
0
 75
0
100
AcDbAlignedDimension
 13
802.2349107807095
 23
1351.3238362475286
 33
0.0
 14
817.234910780724
 24
1336.3238362475286
 34
0.0
 50
0.0
100
AcDbRotatedDimension
  0
DIMENSION
  5
7E
330
17
100
AcDbEntity
  8
DIM
 62
2
 48
3.0
100
AcDbDimension
280
0
  2
*D3
  3
Dim-25
 10
802.2349107807095
 20
1439.9830711808145
 30
0.0
 11
555.2349107807095
 21
1462.7473958738565
 31
0.0
 70
32
 71
5
 42
494.0
 73
0
 74
0
 75
0
100
AcDbAlignedDimension
 13
308.234910780724
 23
1351.3238362475286
 33
0.0
 14
802.2349107807095
 24
1351.3238362475286
 34
0.0
 50
0.0
100
AcDbRotatedDimension
  0
DIMENSION
  5
7F
330
17
100
AcDbEntity
  8
DIM
 62
2
 48
3.0
100
AcDbDimension
280
0
  2
*D4
  3
Dim-25
 10
172.29564697838214
 20
615.3238362475286
 30
0.0
 11
172.29564697838214
 21
988.3238362475126
 31
0.0
 70
160
 71
5
 42
745.9999999999854
 73
0
 74
0
 75
0
100
AcDbAlignedDimension
 13
318.23491078070947
 23
1361.3238362475136
 33
0.0
 14
318.23491078070947
 24
615.3238362475286
 34
0.0
 50
90.0
100
AcDbRotatedDimension
  0
DIMENSION
  5
80
330
17
100
AcDbEntity
  8
DIM
 62
2
 48
3.0
100
AcDbDimension
280
0
  2
*D5
  3
Dim-25
 10
827.2349107807022
 20
557.1070815691464
 30
0.0
 11
555.2349107807022
 21
579.8202466441803
 31
0.0
 70
32
 71
5
 42
544.0
 73
0
 74
0
 75
0
100
AcDbAlignedDimension
 13
283.2349107807022
 23
650.3238362475286
 33
0.0
 14
827.2349107807022
 24
650.3238362474995
 34
0.0
 50
0.0
100
AcDbRotatedDimension
  0
DIMENSION
  5
81
330
17
100
AcDbEntity
  8
DIM
 62
2
 48
3.0
100
AcDbDimension
280
0
  2
*D6
  3
Dim-25
 10
247.47390808672208
 20
640.3238362475286
 30
0.0
 11
224.70958339368372
 21
988.3238362475195
 31
0.0
 70
32
 71
5
 42
696.0
 73
0
 74
0
 75
0
100
AcDbAlignedDimension
 13
293.234910780724
 23
1336.3238362475286
 33
0.0
 14
293.234910780724
 24
640.3238362475286
 34
0.0
 50
90.0
100
AcDbRotatedDimension
  0
LWPOLYLINE
  5
82
330
17
100
AcDbEntity
  8
0
 62
7
100
AcDbPolyline
 90
6
 70
0
 10
1593.8979433416825
 20
764.8238362475327
 10
1593.8979433416825
 20
674.8238362475286
 10
1166.8979433416753
 20
674.8238362475286
 10
1166.8979433416753
 20
1301.8238362475286
 10
1593.8979433416825
 20
1301.8238362475286
 10
1593.8979433416825
 20
1211.8238362475313
  0
LWPOLYLINE
  5
83
330
17
100
AcDbEntity
  8
0
 62
7
100
AcDbPolyline
 90
2
 70
0
 10
1593.8979433416825
 20
1191.8238362475313
 10
1593.8979433416825
 20
784.8238362475313
  0
LWPOLYLINE
  5
84
330
17
100
AcDbEntity
  8
0
 62
7
100
AcDbPolyline
 90
22
 70
0
 10
1618.8979433416607
 20
764.8238362475327
 10
1618.8979433416607
 20
684.8238362474985
 10
1608.8979433416753
 20
674.8238362475286
 10
1593.8979433416825
 20
674.8238362475286
 10
1593.8979433416825
 20
659.8238362475286
 10
1583.8979433416825
 20
649.8238362475286
 10
1176.8979433416825
 20
649.8238362475286
 10
1166.8979433416753
 20
659.8238362475286
 10
1166.8979433416753
 20
674.8238362475286
 10
1151.8979433416825
 20
674.8238362475286
 10
1141.8979433416607
 20
684.8238362475286
 10
1141.8979433416825
 20
1291.8238362475286
 10
1151.8979433416825
 20
1301.8238362475286
 10
1166.8979433416753
 20
1301.8238362475286
 10
1166.8979433416753
 20
1316.8238362475286
 10
1176.8979433416825
 20
1326.8238362475145
 10
1583.8979433416825
 20
1326.8238362475145
 10
1593.8979433416825
 20
1316.8238362475286
 10
1593.8979433416825
 20
1301.8238362475286
 10
1608.8979433416753
 20
1301.8238362475286
 10
1618.8979433416607
 20
1291.8238362475286
 10
1618.8979433416607
 20
1211.8238362475313
  0
LWPOLYLINE
  5
85
330
17
100
AcDbEntity
  8
0
 62
7
100
AcDbPolyline
 90
2
 70
0
 10
1618.8979433416607
 20
1191.8238362475313
 10
1618.8979433416607
 20
784.8238362475313
  0
LWPOLYLINE
  5
86
330
17
100
AcDbEntity
  8
0
 62
7
100
AcDbPolyline
 90
2
 70
0
 10
1608.8979433416753
 20
1301.8238362475286
 10
1608.8979433416753
 20
1211.8238362475313
  0
LWPOLYLINE
  5
87
330
17
100
AcDbEntity
  8
0
 62
7
100
AcDbPolyline
 90
2
 70
0
 10
1608.8979433416753
 20
1191.8238362475313
 10
1608.8979433416753
 20
784.8238362475313
  0
LWPOLYLINE
  5
88
330
17
100
AcDbEntity
  8
0
 62
7
100
AcDbPolyline
 90
2
 70
0
 10
1608.8979433416753
 20
764.8238362475327
 10
1608.8979433416753
 20
674.8238362475286
  0
LWPOLYLINE
  5
89
330
17
100
AcDbEntity
  8
0
 62
7
100
AcDbPolyline
 90
2
 70
0
 10
1593.8979433416825
 20
659.8238362475286
 10
1166.8979433416753
 20
659.8238362475286
  0
LWPOLYLINE
  5
8A
330
17
100
AcDbEntity
  8
0
 62
7
100
AcDbPolyline
 90
2
 70
0
 10
1151.8979433416825
 20
674.8238362475286
 10
1151.8979433416825
 20
1301.8238362475286
  0
LWPOLYLINE
  5
8B
330
17
100
AcDbEntity
  8
0
 62
7
100
AcDbPolyline
 90
2
 70
0
 10
1166.8979433416753
 20
1316.8238362475286
 10
1593.8979433416825
 20
1316.8238362475286
  0
LWPOLYLINE
  5
8C
330
17
100
AcDbEntity
  8
0
 62
2
100
AcDbPolyline
 90
4
 70
0
 10
1618.8979433416607
 20
1191.8238362475313
 10
1582.8979433416607
 20
1191.8238362475313
 10
1582.8979433416607
 20
1211.8238362475313
 10
1618.8979433416607
 20
1211.8238362475313
  0
LWPOLYLINE
  5
8D
330
17
100
AcDbEntity
  8
0
 62
2
100
AcDbPolyline
 90
4
 70
0
 10
1618.8979433416607
 20
784.8238362475313
 10
1582.8979433416607
 20
784.8238362475313
 10
1582.8979433416607
 20
764.8238362475327
 10
1618.8979433416607
 20
764.8238362475327
  0
INSERT
  5
8E
330
17
100
AcDbEntity
  8
0
370
-3
100
AcDbBlockReference
  2
f3daunguoc
 10
1181.8979433416753
 20
1301.8238362475286
 30
0.0
 41
-1.0
 50
180.0
  0
INSERT
  5
90
330
17
100
AcDbEntity
  8
0
370
-3
100
AcDbBlockReference
  2
f3daunguoc
 10
1166.8979433416753
 20
1286.8238362475286
 30
0.0
 41
-1.0
 50
180.0
  0
INSERT
  5
92
330
17
100
AcDbEntity
  8
0
370
-3
100
AcDbBlockReference
  2
f3daunguoc
 10
1181.8979433416753
 20
1316.8238362475286
 30
0.0
 41
-1.0
 50
180.0
  0
INSERT
  5
94
330
17
100
AcDbEntity
  8
0
370
-3
100
AcDbBlockReference
  2
f3daunguoc
 10
1151.8979433416825
 20
1286.8238362475286
 30
0.0
 41
-1.0
 50
180.0
  0
INSERT
  5
96
330
17
100
AcDbEntity
  8
0
370
-3
100
AcDbBlockReference
  2
f3daunguoc
 10
1231.8979433416825
 20
1301.8238362475286
 30
0.0
 41
-1.0
 50
180.0
  0
INSERT
  5
98
330
17
100
AcDbEntity
  8
0
370
-3
100
AcDbBlockReference
  2
f3daunguoc
 10
1231.8979433416825
 20
1316.8238362475286
 30
0.0
 41
-1.0
 50
180.0
  0
INSERT
  5
9A
330
17
100
AcDbEntity
  8
0
370
-3
100
AcDbBlockReference
  2
f3daunguoc
 10
1578.8979433416825
 20
1301.8238362475286
 30
0.0
 50
180.0
  0
INSERT
  5
9C
330
17
100
AcDbEntity
  8
0
370
-3
100
AcDbBlockReference
  2
f3daunguoc
 10
1593.8979433416825
 20
1286.8238362475286
 30
0.0
 50
180.0
  0
INSERT
  5
9E
330
17
100
AcDbEntity
  8
0
370
-3
100
AcDbBlockReference
  2
f3daunguoc
 10
1578.8979433416825
 20
1316.8238362475286
 30
0.0
 50
180.0
  0
INSERT
  5
A0
330
17
100
AcDbEntity
  8
0
370
-3
100
AcDbBlockReference
  2
f3daunguoc
 10
1608.8979433416753
 20
1286.8238362475286
 30
0.0
 50
180.0
  0
INSERT
  5
A2
330
17
100
AcDbEntity
  8
0
370
-3
100
AcDbBlockReference
  2
f3daunguoc
 10
1528.8979433416753
 20
1301.8238362475286
 30
0.0
 50
180.0
  0
INSERT
  5
A4
330
17
100
AcDbEntity
  8
0
370
-3
100
AcDbBlockReference
  2
f3daunguoc
 10
1528.8979433416753
 20
1316.8238362475286
 30
0.0
 50
180.0
  0
INSERT
  5
A6
330
17
100
AcDbEntity
  8
0
370
-3
100
AcDbBlockReference
  2
f3daunguoc
 10
1181.8979433416753
 20
674.8238362475286
 30
0.0
  0
INSERT
  5
A8
330
17
100
AcDbEntity
  8
0
370
-3
100
AcDbBlockReference
  2
f3daunguoc
 10
1166.8979433416753
 20
689.8238362475286
 30
0.0
  0
INSERT
  5
AA
330
17
100
AcDbEntity
  8
0
370
-3
100
AcDbBlockReference
  2
f3daunguoc
 10
1181.8979433416753
 20
659.8238362475286
 30
0.0
  0
INSERT
  5
AC
330
17
100
AcDbEntity
  8
0
370
-3
100
AcDbBlockReference
  2
f3daunguoc
 10
1151.8979433416825
 20
689.8238362475286
 30
0.0
  0
INSERT
  5
AE
330
17
100
AcDbEntity
  8
0
370
-3
100
AcDbBlockReference
  2
f3daunguoc
 10
1231.8979433416825
 20
674.8238362475286
 30
0.0
  0
INSERT
  5
B0
330
17
100
AcDbEntity
  8
0
370
-3
100
AcDbBlockReference
  2
f3daunguoc
 10
1231.8979433416825
 20
659.8238362475286
 30
0.0
  0
INSERT
  5
B2
330
17
100
AcDbEntity
  8
0
370
-3
100
AcDbBlockReference
  2
f3daunguoc
 10
1578.8979433416825
 20
674.8238362475286
 30
0.0
 41
-1.0
  0
INSERT
  5
B4
330
17
100
AcDbEntity
  8
0
370
-3
100
AcDbBlockReference
  2
f3daunguoc
 10
1593.8979433416825
 20
689.8238362475286
 30
0.0
 41
-1.0
  0
INSERT
  5
B6
330
17
100
AcDbEntity
  8
0
370
-3
100
AcDbBlockReference
  2
f3daunguoc
 10
1578.8979433416825
 20
659.8238362475286
 30
0.0
 41
-1.0
  0
INSERT
  5
B8
330
17
100
AcDbEntity
  8
0
370
-3
100
AcDbBlockReference
  2
f3daunguoc
 10
1608.8979433416753
 20
689.8238362475286
 30
0.0
 41
-1.0
  0
INSERT
  5
BA
330
17
100
AcDbEntity
  8
0
370
-3
100
AcDbBlockReference
  2
f3daunguoc
 10
1528.8979433416753
 20
674.8238362475286
 30
0.0
 41
-1.0
  0
INSERT
  5
BC
330
17
100
AcDbEntity
  8
0
370
-3
100
AcDbBlockReference
  2
f3daunguoc
 10
1528.8979433416753
 20
659.8238362475286
 30
0.0
 41
-1.0
  0
DIMENSION
  5
BE
330
17
100
AcDbEntity
  8
DIM
 62
2
 48
3.0
100
AcDbDimension
280
0
  2
*D7
  3
Dim-25
 10
1618.8979433416607
 20
1357.9645551972176
 30
0.0
 11
1661.5845054153324
 21
1380.7288798902605
 31
0.0
 70
32
 71
5
 42
9.999999999985448
 73
0
 74
0
 75
0
100
AcDbAlignedDimension
 13
1608.8979433416753
 23
1301.8238362475286
 33
0.0
 14
1618.8979433416607
 24
1291.8238362475286
 34
0.0
 50
0.0
100
AcDbRotatedDimension
  0
DIMENSION
  5
BF
330
17
100
AcDbEntity
  8
DIM
 62
2
 48
3.0
100
AcDbDimension
280
0
  2
*D8
  3
Dim-25
 10
1608.8979433416753
 20
1405.4830711808145
 30
0.0
 11
1651.7209310633698
 21
1428.2473958738565
 31
0.0
 70
32
 71
5
 42
15.0
 73
0
 74
0
 75
0
100
AcDbAlignedDimension
 13
1593.8979433416825
 23
1316.8238362475286
 33
0.0
 14
1608.8979433416753
 24
1301.8238362475286
 34
0.0
 50
0.0
100
AcDbRotatedDimension
  0
DIMENSION
  5
C0
330
17
100
AcDbEntity
  8
DIM
 62
2
 48
3.0
100
AcDbDimension
280
0
  2
*D9
  3
Dim-25
 10
1593.8979433416825
 20
1405.4830711808145
 30
0.0
 11
1380.3979433416825
 21
1428.0342307988226
 31
0.0
 70
32
 71
5
 42
427.0
 73
0
 74
0
 75
0
100
AcDbAlignedDimension
 13
1166.8979433416753
 23
1316.8238362475286
 33
0.0
 14
1593.8979433416825
 24
1316.8238362475286
 34
0.0
 50
0.0
100
AcDbRotatedDimension
  0
DIMENSION
  5
C1
330
17
100
AcDbEntity
  8
DIM
 62
2
 48
3.0
100
AcDbDimension
280
0
  2
*D10
  3
Dim-25
 10
1030.9586795393334
 20
649.8238362475286
 30
0.0
 11
1030.9586795393334
 21
988.3238362475126
 31
0.0
 70
160
 71
5
 42
676.9999999999854
 73
0
 74
0
 75
0
100
AcDbAlignedDimension
 13
1176.8979433416825
 23
1326.8238362475145
 33
0.0
 14
1176.8979433416825
 24
649.8238362475286
 34
0.0
 50
90.0
100
AcDbRotatedDimension
  0
DIMENSION
  5
C2
330
17
100
AcDbEntity
  8
DIM
 62
2
 48
3.0
100
AcDbDimension
280
0
  2
*D11
  3
Dim-25
 10
1618.8979433416607
 20
591.6070815691455
 30
0.0
 11
1380.3979433416607
 21
614.1070815691464
 31
0.0
 70
32
 71
5
 42
477.0
 73
0
 74
0
 75
0
100
AcDbAlignedDimension
 13
1141.8979433416607
 23
684.8238362475286
 33
0.0
 14
1618.8979433416607
 24
684.8238362474985
 34
0.0
 50
0.0
100
AcDbRotatedDimension
  0
DIMENSION
  5
C3
330
17
100
AcDbEntity
  8
DIM
 62
2
 48
3.0
100
AcDbDimension
280
0
  2
*D12
  3
Dim-25
 10
1106.1369406476806
 20
674.8238362475286
 30
0.0
 11
1083.3726159546422
 21
988.3238362475195
 31
0.0
 70
32
 71
5
 42
627.0
 73
0
 74
0
 75
0
100
AcDbAlignedDimension
 13
1151.8979433416825
 23
1301.8238362475286
 33
0.0
 14
1151.8979433416825
 24
674.8238362475286
 34
0.0
 50
90.0
100
AcDbRotatedDimension
  0
MTEXT
  5
C4
330
17
100
AcDbEntity
  8
0
 62
7
100
AcDbMText
 10
576.7976815831644
 20
492.8160840521423
 30
0.0
 40
25.0
 41
915.0000000000146
 46
100.0000000000031
 71
5
 72
5
  1
Cánh ngoài :\P 3 tấm
  0
MTEXT
  5
C5
330
17
100
AcDbEntity
  8
0
 62
7
100
AcDbMText
 10
1379.7633868131816
 20
522.2903815101577
 30
0.0
 40
25.0
 41
915.0000000000146
 46
100.0000000000031
 71
5
 72
5
  1
Cánh trong\P: 3 tấm
  0
ENDSEC
  0
SECTION
  2
OBJECTS
  0
DICTIONARY
  5
A
330
0
100
AcDbDictionary
281
1
  3
ACAD_COLOR
350
B
  3
ACAD_GROUP
350
C
  3
ACAD_LAYOUT
350
D
  3
ACAD_MATERIAL
350
E
  3
ACAD_MLEADERSTYLE
350
F
  3
ACAD_MLINESTYLE
350
10
  3
ACAD_PLOTSETTINGS
350
11
  3
ACAD_PLOTSTYLENAME
350
12
  3
ACAD_SCALELIST
350
14
  3
ACAD_TABLESTYLE
350
15
  3
ACAD_VISUALSTYLE
350
16
  3
EZDXF_META
350
2D
  0
DICTIONARY
  5
B
330
A
100
AcDbDictionary
281
1
  0
DICTIONARY
  5
C
330
A
100
AcDbDictionary
281
1
  0
DICTIONARY
  5
D
330
A
100
AcDbDictionary
281
1
  3
Model
350
1A
  3
Layout1
350
1E
  0
DICTIONARY
  5
E
330
A
100
AcDbDictionary
281
1
  3
ByBlock
350
1F
  3
ByLayer
350
20
  3
Global
350
21
  0
DICTIONARY
  5
F
330
A
100
AcDbDictionary
281
1
  3
Standard
350
2C
  0
DICTIONARY
  5
10
330
A
100
AcDbDictionary
281
1
  3
Standard
350
22
  0
DICTIONARY
  5
11
330
A
100
AcDbDictionary
281
1
  0
ACDBDICTIONARYWDFLT
  5
12
330
A
100
AcDbDictionary
281
1
  3
Normal
350
13
100
AcDbDictionaryWithDefault
340
13
  0
ACDBPLACEHOLDER
  5
13
330
12
  0
DICTIONARY
  5
14
330
A
100
AcDbDictionary
281
1
  0
DICTIONARY
  5
15
330
A
100
AcDbDictionary
281
1
  0
DICTIONARY
  5
16
330
A
100
AcDbDictionary
281
1
  0
LAYOUT
  5
1A
330
D
100
AcDbPlotSettings
  1

  4
A3
  6

 40
7.5
 41
20.0
 42
7.5
 43
20.0
 44
420.0
 45
297.0
 46
0.0
 47
0.0
 48
0.0
 49
0.0
140
0.0
141
0.0
142
1.0
143
1.0
 70
1024
 72
1
 73
0
 74
5
  7

 75
16
 76
0
 77
2
 78
300
147
1.0
148
0.0
149
0.0
100
AcDbLayout
  1
Model
 70
1
 71
0
 10
0.0
 20
0.0
 11
420.0
 21
297.0
 12
0.0
 22
0.0
 32
0.0
 14
1e+20
 24
1e+20
 34
1e+20
 15
-1e+20
 25
-1e+20
 35
-1e+20
146
0.0
 13
0.0
 23
0.0
 33
0.0
 16
1.0
 26
0.0
 36
0.0
 17
0.0
 27
1.0
 37
0.0
 76
1
330
17
  0
LAYOUT
  5
1E
330
D
100
AcDbPlotSettings
  1

  4
A3
  6

 40
7.5
 41
20.0
 42
7.5
 43
20.0
 44
420.0
 45
297.0
 46
0.0
 47
0.0
 48
0.0
 49
0.0
140
0.0
141
0.0
142
1.0
143
1.0
 70
0
 72
1
 73
0
 74
5
  7

 75
16
 76
0
 77
2
 78
300
147
1.0
148
0.0
149
0.0
100
AcDbLayout
  1
Layout1
 70
1
 71
1
 10
0.0
 20
0.0
 11
420.0
 21
297.0
 12
0.0
 22
0.0
 32
0.0
 14
1e+20
 24
1e+20
 34
1e+20
 15
-1e+20
 25
-1e+20
 35
-1e+20
146
0.0
 13
0.0
 23
0.0
 33
0.0
 16
1.0
 26
0.0
 36
0.0
 17
0.0
 27
1.0
 37
0.0
 76
1
330
1B
  0
MATERIAL
  5
1F
102
{ACAD_REACTORS
330
E
102
}
330
E
100
AcDbMaterial
  1
ByBlock
  2

 70
0
 40
1.0
 71
1
 41
1.0
 91
-1023410177
 42
1.0
 72
1
  3

 73
1
 74
1
 75
1
 44
0.5
 73
0
 45
1.0
 46
1.0
 77
1
  4

 78
1
 79
1
170
1
 48
1.0
171
1
  6

172
1
173
1
174
1
140
1.0
141
1.0
175
1
  7

176
1
177
1
178
1
143
1.0
179
1
  8

270
1
271
1
272
1
145
1.0
146
1.0
273
1
  9

274
1
275
1
276
1
 42
1.0
 72
1
  3

 73
1
 74
1
 75
1
 94
63
  0
MATERIAL
  5
20
102
{ACAD_REACTORS
330
E
102
}
330
E
100
AcDbMaterial
  1
ByLayer
  2

 70
0
 40
1.0
 71
1
 41
1.0
 91
-1023410177
 42
1.0
 72
1
  3

 73
1
 74
1
 75
1
 44
0.5
 73
0
 45
1.0
 46
1.0
 77
1
  4

 78
1
 79
1
170
1
 48
1.0
171
1
  6

172
1
173
1
174
1
140
1.0
141
1.0
175
1
  7

176
1
177
1
178
1
143
1.0
179
1
  8

270
1
271
1
272
1
145
1.0
146
1.0
273
1
  9

274
1
275
1
276
1
 42
1.0
 72
1
  3

 73
1
 74
1
 75
1
 94
63
  0
MATERIAL
  5
21
102
{ACAD_REACTORS
330
E
102
}
330
E
100
AcDbMaterial
  1
Global
  2

 70
0
 40
1.0
 71
1
 41
1.0
 91
-1023410177
 42
1.0
 72
1
  3

 73
1
 74
1
 75
1
 44
0.5
 73
0
 45
1.0
 46
1.0
 77
1
  4

 78
1
 79
1
170
1
 48
1.0
171
1
  6

172
1
173
1
174
1
140
1.0
141
1.0
175
1
  7

176
1
177
1
178
1
143
1.0
179
1
  8

270
1
271
1
272
1
145
1.0
146
1.0
273
1
  9

274
1
275
1
276
1
 42
1.0
 72
1
  3

 73
1
 74
1
 75
1
 94
63
  0
MLINESTYLE
  5
22
102
{ACAD_REACTORS
330
10
102
}
330
10
100
AcDbMlineStyle
  2
Standard
 70
0
  3

 62
256
 51
90.0
 52
90.0
 71
2
 49
0.5
 62
256
  6
BYLAYER
 49
-0.5
 62
256
  6
BYLAYER
  0
MLEADERSTYLE
  5
2C
102
{ACAD_REACTORS
330
F
102
}
330
F
100
AcDbMLeaderStyle
179
2
170
2
171
1
172
0
 90
2
 40
0.0
 41
0.0
173
1
 91
-1056964608
 92
-2
290
1
 42
2.0
291
1
 43
8.0
  3
Standard
 44
4.0
300

342
29
174
1
175
1
176
0
178
1
 93
-1056964608
 45
4.0
292
0
297
0
 46
4.0
 94
-1056964608
 47
1.0
 49
1.0
140
1.0
294
1
141
0.0
177
0
142
1.0
295
0
296
0
143
3.75
271
0
272
9
273
9
  0
DICTIONARY
  5
2D
330
A
100
AcDbDictionary
280
1
281
1
  3
CREATED_BY_EZDXF
350
2E
  3
WRITTEN_BY_EZDXF
350
F5
  0
DICTIONARYVAR
  5
2E
330
2D
100
DictionaryVariables
280
0
  1
1.4.4 @ 2026-09-24T06:31:58.988018+00:00
  0
DICTIONARYVAR
  5
F5
330
2D
100
DictionaryVariables
280
0
  1
1.4.4 @ 2026-09-24T06:37:09.528618+00:00
  0
ENDSEC
  0
EOF
