  0
SECTION
  2
HEADER
  9
$ACADVER
  1
AC1032
  9
$ACADMAINTVER
 90
4
  9
$DWGCODEPAGE
  3
ANSI_1252
  9
$LASTSAVEDBY
  1
ezdxf
  9
$REQUIREDVERSIONS
160
0
  9
$INSBASE
 10
0.0
 20
0.0
 30
0.0
  9
$EXTMIN
 10
1e+20
 20
1e+20
 30
1e+20
  9
$EXTMAX
 10
-1e+20
 20
-1e+20
 30
-1e+20
  9
$LIMMIN
 10
0.0
 20
0.0
  9
$LIMMAX
 10
420.0
 20
297.0
  9
$ORTHOMODE
 70
0
  9
$REGENMODE
 70
1
  9
$FILLMODE
 70
1
  9
$QTEXTMODE
 70
0
  9
$MIRRTEXT
 70
1
  9
$LTSCALE
 40
1.0
  9
$ATTMODE
 70
1
  9
$TEXTSIZE
 40
2.5
  9
$TRACEWID
 40
1.0
  9
$TEXTSTYLE
  7
Standard
  9
$CLAYER
  8
0
  9
$CELTYPE
  6
ByLayer
  9
$CECOLOR
 62
256
  9
$CELTSCALE
 40
1.0
  9
$DISPSILH
 70
0
  9
$DIMSCALE
 40
1.0
  9
$DIMASZ
 40
2.5
  9
$DIMEXO
 40
0.625
  9
$DIMDLI
 40
3.75
  9
$DIMRND
 40
0.0
  9
$DIMDLE
 40
0.0
  9
$DIMEXE
 40
1.25
  9
$DIMTP
 40
0.0
  9
$DIMTM
 40
0.0
  9
$DIMTXT
 40
2.5
  9
$DIMCEN
 40
2.5
  9
$DIMTSZ
 40
0.0
  9
$DIMTOL
 70
0
  9
$DIMLIM
 70
0
  9
$DIMTIH
 70
0
  9
$DIMTOH
 70
0
  9
$DIMSE1
 70
0
  9
$DIMSE2
 70
0
  9
$DIMTAD
 70
1
  9
$DIMZIN
 70
8
  9
$DIMBLK
  1

  9
$DIMASO
 70
1
  9
$DIMSHO
 70
1
  9
$DIMPOST
  1

  9
$DIMAPOST
  1

  9
$DIMALT
 70
0
  9
$DIMALTD
 70
3
  9
$DIMALTF
 40
0.03937007874
  9
$DIMLFAC
 40
1.0
  9
$DIMTOFL
 70
1
  9
$DIMTVP
 40
0.0
  9
$DIMTIX
 70
0
  9
$DIMSOXD
 70
0
  9
$DIMSAH
 70
0
  9
$DIMBLK1
  1

  9
$DIMBLK2
  1

  9
$DIMSTYLE
  2
ISO-25
  9
$DIMCLRD
 70
0
  9
$DIMCLRE
 70
0
  9
$DIMCLRT
 70
0
  9
$DIMTFAC
 40
1.0
  9
$DIMGAP
 40
0.625
  9
$DIMJUST
 70
0
  9
$DIMSD1
 70
0
  9
$DIMSD2
 70
0
  9
$DIMTOLJ
 70
0
  9
$DIMTZIN
 70
8
  9
$DIMALTZ
 70
0
  9
$DIMALTTZ
 70
0
  9
$DIMUPT
 70
0
  9
$DIMDEC
 70
2
  9
$DIMTDEC
 70
2
  9
$DIMALTU
 70
2
  9
$DIMALTTD
 70
3
  9
$DIMTXSTY
  7
Standard
  9
$DIMAUNIT
 70
0
  9
$DIMADEC
 70
0
  9
$DIMALTRND
 40
0.0
  9
$DIMAZIN
 70
0
  9
$DIMDSEP
 70
44
  9
$DIMATFIT
 70
3
  9
$DIMFRAC
 70
0
  9
$DIMLDRBLK
  1

  9
$DIMLUNIT
 70
2
  9
$DIMLWD
 70
-2
  9
$DIMLWE
 70
-2
  9
$DIMTMOVE
 70
0
  9
$DIMFXL
 40
1.0
  9
$DIMFXLON
 70
0
  9
$DIMJOGANG
 40
0.785398163397
  9
$DIMTFILL
 70
0
  9
$DIMTFILLCLR
 70
0
  9
$DIMARCSYM
 70
0
  9
$DIMLTYPE
  6

  9
$DIMLTEX1
  6

  9
$DIMLTEX2
  6

  9
$DIMTXTDIRECTION
 70
0
  9
$LUNITS
 70
2
  9
$LUPREC
 70
4
  9
$SKETCHINC
 40
1.0
  9
$FILLETRAD
 40
10.0
  9
$AUNITS
 70
0
  9
$AUPREC
 70
2
  9
$MENU
  1
.
  9
$ELEVATION
 40
0.0
  9
$PELEVATION
 40
0.0
  9
$THICKNESS
 40
0.0
  9
$LIMCHECK
 70
0
  9
$CHAMFERA
 40
0.0
  9
$CHAMFERB
 40
0.0
  9
$CHAMFERC
 40
0.0
  9
$CHAMFERD
 40
0.0
  9
$SKPOLY
 70
0
  9
$TDCREATE
 40
2461308.568449074
  9
$TDUCREATE
 40
2458532.153996898
  9
$TDUPDATE
 40
2461308.568449074
  9
$TDUUPDATE
 40
2458532.1544311
  9
$TDINDWG
 40
0.0
  9
$TDUSRTIMER
 40
0.0
  9
$USRTIMER
 70
1
  9
$ANGBASE
 50
0.0
  9
$ANGDIR
 70
0
  9
$PDMODE
 70
0
  9
$PDSIZE
 40
0.0
  9
$PLINEWID
 40
0.0
  9
$SPLFRAME
 70
0
  9
$SPLINETYPE
 70
6
  9
$SPLINESEGS
 70
8
  9
$HANDSEED
  5
17B
  9
$SURFTAB1
 70
6
  9
$SURFTAB2
 70
6
  9
$SURFTYPE
 70
6
  9
$SURFU
 70
6
  9
$SURFV
 70
6
  9
$UCSBASE
  2

  9
$UCSNAME
  2

  9
$UCSORG
 10
0.0
 20
0.0
 30
0.0
  9
$UCSXDIR
 10
1.0
 20
0.0
 30
0.0
  9
$UCSYDIR
 10
0.0
 20
1.0
 30
0.0
  9
$UCSORTHOREF
  2

  9
$UCSORTHOVIEW
 70
0
  9
$UCSORGTOP
 10
0.0
 20
0.0
 30
0.0
  9
$UCSORGBOTTOM
 10
0.0
 20
0.0
 30
0.0
  9
$UCSORGLEFT
 10
0.0
 20
0.0
 30
0.0
  9
$UCSORGRIGHT
 10
0.0
 20
0.0
 30
0.0
  9
$UCSORGFRONT
 10
0.0
 20
0.0
 30
0.0
  9
$UCSORGBACK
 10
0.0
 20
0.0
 30
0.0
  9
$PUCSBASE
  2

  9
$PUCSNAME
  2

  9
$PUCSORG
 10
0.0
 20
0.0
 30
0.0
  9
$PUCSXDIR
 10
1.0
 20
0.0
 30
0.0
  9
$PUCSYDIR
 10
0.0
 20
1.0
 30
0.0
  9
$PUCSORTHOREF
  2

  9
$PUCSORTHOVIEW
 70
0
  9
$PUCSORGTOP
 10
0.0
 20
0.0
 30
0.0
  9
$PUCSORGBOTTOM
 10
0.0
 20
0.0
 30
0.0
  9
$PUCSORGLEFT
 10
0.0
 20
0.0
 30
0.0
  9
$PUCSORGRIGHT
 10
0.0
 20
0.0
 30
0.0
  9
$PUCSORGFRONT
 10
0.0
 20
0.0
 30
0.0
  9
$PUCSORGBACK
 10
0.0
 20
0.0
 30
0.0
  9
$USERI1
 70
0
  9
$USERI2
 70
0
  9
$USERI3
 70
0
  9
$USERI4
 70
0
  9
$USERI5
 70
0
  9
$USERR1
 40
0.0
  9
$USERR2
 40
0.0
  9
$USERR3
 40
0.0
  9
$USERR4
 40
0.0
  9
$USERR5
 40
0.0
  9
$WORLDVIEW
 70
1
  9
$SHADEDGE
 70
3
  9
$SHADEDIF
 70
70
  9
$TILEMODE
 70
1
  9
$MAXACTVP
 70
64
  9
$PINSBASE
 10
0.0
 20
0.0
 30
0.0
  9
$PLIMCHECK
 70
0
  9
$PEXTMIN
 10
1e+20
 20
1e+20
 30
1e+20
  9
$PEXTMAX
 10
-1e+20
 20
-1e+20
 30
-1e+20
  9
$PLIMMIN
 10
0.0
 20
0.0
  9
$PLIMMAX
 10
420.0
 20
297.0
  9
$UNITMODE
 70
0
  9
$VISRETAIN
 70
1
  9
$PLINEGEN
 70
0
  9
$PSLTSCALE
 70
1
  9
$TREEDEPTH
 70
3020
  9
$CMLSTYLE
  2
Standard
  9
$CMLJUST
 70
0
  9
$CMLSCALE
 40
20.0
  9
$PROXYGRAPHICS
 70
1
  9
$MEASUREMENT
 70
1
  9
$CELWEIGHT
370
-1
  9
$ENDCAPS
280
0
  9
$JOINSTYLE
280
0
  9
$LWDISPLAY
290
0
  9
$INSUNITS
 70
4
  9
$HYPERLINKBASE
  1

  9
$STYLESHEET
  1

  9
$XEDIT
290
1
  9
$CEPSNTYPE
380
0
  9
$PSTYLEMODE
290
1
  9
$FINGERPRINTGUID
  2
{9F104E63-F90E-47D7-9B97-477157ECC88E}
  9
$VERSIONGUID
  2
{A8222545-01C5-4AEB-A8FB-0A9D4CDD0746}
  9
$EXTNAMES
290
1
  9
$PSVPSCALE
 40
0.0
  9
$OLESTARTUP
290
0
  9
$SORTENTS
280
127
  9
$INDEXCTL
280
0
  9
$HIDETEXT
280
1
  9
$XCLIPFRAME
280
1
  9
$HALOGAP
280
0
  9
$OBSCOLOR
 70
257
  9
$OBSLTYPE
280
0
  9
$INTERSECTIONDISPLAY
280
0
  9
$INTERSECTIONCOLOR
 70
257
  9
$DIMASSOC
280
2
  9
$PROJECTNAME
  1

  9
$CAMERADISPLAY
290
0
  9
$LENSLENGTH
 40
50.0
  9
$CAMERAHEIGHT
 40
0.0
  9
$STEPSPERSEC
 40
24.0
  9
$STEPSIZE
 40
100.0
  9
$3DDWFPREC
 40
2.0
  9
$PSOLWIDTH
 40
0.005
  9
$PSOLHEIGHT
 40
0.08
  9
$LOFTANG1
 40
1.570796326795
  9
$LOFTANG2
 40
1.570796326795
  9
$LOFTMAG1
 40
0.0
  9
$LOFTMAG2
 40
0.0
  9
$LOFTPARAM
 70
7
  9
$LOFTNORMALS
280
1
  9
$LATITUDE
 40
37.795
  9
$LONGITUDE
 40
-122.394
  9
$NORTHDIRECTION
 40
0.0
  9
$TIMEZONE
 70
-8000
  9
$LIGHTGLYPHDISPLAY
280
1
  9
$TILEMODELIGHTSYNCH
280
1
  9
$CMATERIAL
347
20
  9
$SOLIDHIST
280
0
  9
$SHOWHIST
280
1
  9
$DWFFRAME
280
2
  9
$DGNFRAME
280
2
  9
$REALWORLDSCALE
290
1
  9
$INTERFERECOLOR
 62
256
  9
$CSHADOW
280
0
  9
$SHADOWPLANELOCATION
 40
0.0
  0
ENDSEC
  0
SECTION
  2
CLASSES
  0
CLASS
  1
ACDBDICTIONARYWDFLT
  2
AcDbDictionaryWithDefault
  3
ObjectDBX Classes
 90
0
 91
0
280
0
281
0
  0
CLASS
  1
SUN
  2
AcDbSun
  3
SCENEOE
 90
1153
 91
0
280
0
281
0
  0
CLASS
  1
VISUALSTYLE
  2
AcDbVisualStyle
  3
ObjectDBX Classes
 90
4095
 91
0
280
0
281
0
  0
CLASS
  1
MATERIAL
  2
AcDbMaterial
  3
ObjectDBX Classes
 90
1153
 91
0
280
0
281
0
  0
CLASS
  1
SCALE
  2
AcDbScale
  3
ObjectDBX Classes
 90
1153
 91
0
280
0
281
0
  0
CLASS
  1
TABLESTYLE
  2
AcDbTableStyle
  3
ObjectDBX Classes
 90
4095
 91
0
280
0
281
0
  0
CLASS
  1
MLEADERSTYLE
  2
AcDbMLeaderStyle
  3
ACDB_MLEADERSTYLE_CLASS
 90
4095
 91
0
280
0
281
0
  0
CLASS
  1
DICTIONARYVAR
  2
AcDbDictionaryVar
  3
ObjectDBX Classes
 90
0
 91
0
280
0
281
0
  0
CLASS
  1
CELLSTYLEMAP
  2
AcDbCellStyleMap
  3
ObjectDBX Classes
 90
1152
 91
0
280
0
281
0
  0
CLASS
  1
MENTALRAYRENDERSETTINGS
  2
AcDbMentalRayRenderSettings
  3
SCENEOE
 90
1024
 91
0
280
0
281
0
  0
CLASS
  1
ACDBDETAILVIEWSTYLE
  2
AcDbDetailViewStyle
  3
ObjectDBX Classes
 90
1025
 91
0
280
0
281
0
  0
CLASS
  1
ACDBSECTIONVIEWSTYLE
  2
AcDbSectionViewStyle
  3
ObjectDBX Classes
 90
1025
 91
0
280
0
281
0
  0
CLASS
  1
RASTERVARIABLES
  2
AcDbRasterVariables
  3
ISM
 90
0
 91
0
280
0
281
0
  0
CLASS
  1
ACDBPLACEHOLDER
  2
AcDbPlaceHolder
  3
ObjectDBX Classes
 90
0
 91
0
280
0
281
0
  0
CLASS
  1
LAYOUT
  2
AcDbLayout
  3
ObjectDBX Classes
 90
0
 91
0
280
0
281
0
  0
ENDSEC
  0
SECTION
  2
TABLES
  0
TABLE
  2
VPORT
  5
8
330
0
100
AcDbSymbolTable
 70
1
  0
VPORT
  5
23
330
8
100
AcDbSymbolTableRecord
100
AcDbViewportTableRecord
  2
*Active
 70
0
 10
0.0
 20
0.0
 11
1.0
 21
1.0
 12
0.0
 22
0.0
 13
0.0
 23
0.0
 14
0.5
 24
0.5
 15
0.5
 25
0.5
 16
0.0
 26
0.0
 36
1.0
 17
0.0
 27
0.0
 37
0.0
 40
1000.0
 41
1.34
 42
50.0
 43
0.0
 44
0.0
 50
0.0
 51
0.0
 71
0
 72
1000
 73
1
 74
3
 75
0
 76
0
 77
0
 78
0
281
0
 65
0
146
0.0
  0
ENDTAB
  0
TABLE
  2
LTYPE
  5
2
330
0
100
AcDbSymbolTable
 70
5
  0
LTYPE
  5
24
330
2
100
AcDbSymbolTableRecord
100
AcDbLinetypeTableRecord
  2
ByBlock
 70
0
  3

 72
65
 73
0
 40
0.0
  0
LTYPE
  5
25
330
2
100
AcDbSymbolTableRecord
100
AcDbLinetypeTableRecord
  2
ByLayer
 70
0
  3

 72
65
 73
0
 40
0.0
  0
LTYPE
  5
26
330
2
100
AcDbSymbolTableRecord
100
AcDbLinetypeTableRecord
  2
Continuous
 70
0
  3

 72
65
 73
0
 40
0.0
  0
LTYPE
  5
10E
330
2
100
AcDbSymbolTableRecord
100
AcDbLinetypeTableRecord
  2
HIDDEN2
 70
0
  3
Hidden (.5x) _ _ _ _ _ _ _ _ _ _ _ _ _ _ _ _ _
 72
65
 73
2
 40
4.762499999999998
 49
3.174999999999998
 74
0
 49
-1.587499999999999
 74
0
  0
LTYPE
  5
10F
330
2
100
AcDbSymbolTableRecord
100
AcDbLinetypeTableRecord
  2
DASHED
 70
0
  3
Dashed __ __ __ __ __ __ __ __ __ __ __ __ __ _
 72
65
 73
2
 40
0.75
 49
0.5
 74
0
 49
-0.25
 74
0
  0
ENDTAB
  0
TABLE
  2
LAYER
  5
1
330
0
100
AcDbSymbolTable
 70
4
  0
LAYER
  5
27
330
1
100
AcDbSymbolTableRecord
100
AcDbLayerTableRecord
  2
0
 70
0
 62
7
  6
Continuous
370
-3
390
13
347
21
  0
LAYER
  5
28
330
1
100
AcDbSymbolTableRecord
100
AcDbLayerTableRecord
  2
Defpoints
 70
0
 62
7
  6
Continuous
290
0
370
-3
390
13
347
21
  0
LAYER
  5
10C
330
1
100
AcDbSymbolTableRecord
100
AcDbLayerTableRecord
  2
DIM
 70
0
 62
253
  6
Continuous
370
-3
390
13
347
21
  0
LAYER
  5
10D
330
1
100
AcDbSymbolTableRecord
100
AcDbLayerTableRecord
  2
THIET BI
 70
0
 62
2
  6
Continuous
370
-3
390
13
347
21
  0
ENDTAB
  0
TABLE
  2
STYLE
  5
5
330
0
100
AcDbSymbolTable
 70
3
  0
STYLE
  5
29
330
5
100
AcDbSymbolTableRecord
100
AcDbTextStyleTableRecord
  2
Standard
 70
0
 40
0.0
 41
1.0
 50
0.0
 71
0
 42
2.5
  3
txt
  4

  0
STYLE
  5
110
330
5
100
AcDbSymbolTableRecord
100
AcDbTextStyleTableRecord
  2
Tahoma (Input Text)
 70
0
 40
0.0
 41
1.0
 50
0.0
 71
0
 42
25.0
  3
tahoma.ttf
  4

  0
STYLE
  5
111
330
5
100
AcDbSymbolTableRecord
100
AcDbTextStyleTableRecord
  2
Arial
 70
0
 40
0.0
 41
1.0
 50
0.0
 71
0
 42
0.2
  3
arial.ttf
  4

  0
ENDTAB
  0
TABLE
  2
VIEW
  5
7
330
0
100
AcDbSymbolTable
 70
0
  0
ENDTAB
  0
TABLE
  2
UCS
  5
6
330
0
100
AcDbSymbolTable
 70
0
  0
ENDTAB
  0
TABLE
  2
APPID
  5
3
330
0
100
AcDbSymbolTable
 70
3
  0
APPID
  5
2A
330
3
100
AcDbSymbolTableRecord
100
AcDbRegAppTableRecord
  2
ACAD
 70
0
  0
APPID
  5
112
330
3
100
AcDbSymbolTableRecord
100
AcDbRegAppTableRecord
  2
HATCHBACKGROUNDCOLOR
 70
0
  0
APPID
  5
113
330
3
100
AcDbSymbolTableRecord
100
AcDbRegAppTableRecord
  2
EZDXF
 70
0
  0
ENDTAB
  0
TABLE
  2
DIMSTYLE
  5
4
330
0
100
AcDbSymbolTable
 70
2
100
AcDbDimStyleTable
  0
DIMSTYLE
105
2B
330
4
100
AcDbSymbolTableRecord
100
AcDbDimStyleTableRecord
  2
Standard
 70
0
 40
1.0
 41
2.5
 42
0.625
 43
3.75
 44
1.25
 45
0.0
 46
0.0
 47
0.0
 48
0.0
 49
2.5
140
2.5
141
2.5
142
0.0
143
0.03937007874
144
1.0
145
0.0
146
1.0
147
0.625
148
0.0
 69
0
 70
0
 71
0
 72
0
 73
0
 74
0
 75
0
 76
0
 77
1
 78
8
 79
3
170
0
171
3
172
1
173
0
174
0
175
0
176
0
177
0
178
0
179
2
271
2
272
2
273
2
274
3
275
0
276
0
277
2
278
44
279
0
280
0
281
0
282
0
283
0
284
8
285
0
286
0
288
0
289
3
290
0
371
-2
372
-2
  0
DIMSTYLE
105
10B
330
4
100
AcDbSymbolTableRecord
100
AcDbDimStyleTableRecord
  2
Dim-25
 70
0
 40
1.0
 41
8.0
 42
15.0
 43
3.75
 44
10.0
 45
0.0
 46
0.0
 47
0.0
 48
0.0
 49
2.5
140
25.0
141
10.0
142
0.0
143
0.03937007874016
144
1.0
145
0.0
146
1.0
147
10.0
148
0.0
 69
0
 70
0
 71
0
 72
0
 73
0
 74
0
 75
0
 76
0
 77
1
 78
8
 79
3
170
0
171
3
172
1
173
0
174
0
175
0
176
5
177
5
178
3
179
2
271
0
272
0
273
2
274
3
275
0
276
0
277
2
278
44
279
0
280
0
281
0
282
0
283
0
284
8
285
0
286
0
288
0
289
3
290
0
340
29
341
33
342
33
345
25
346
25
347
25
371
9
372
9
  0
ENDTAB
  0
TABLE
  2
BLOCK_RECORD
  5
9
330
0
100
AcDbSymbolTable
 70
15
  0
BLOCK_RECORD
  5
17
330
9
100
AcDbSymbolTableRecord
100
AcDbBlockTableRecord
  2
*Model_Space
340
1A
 70
0
280
1
281
0
  0
BLOCK_RECORD
  5
1B
330
9
100
AcDbSymbolTableRecord
100
AcDbBlockTableRecord
  2
*Paper_Space
340
1E
 70
0
280
1
281
0
  0
BLOCK_RECORD
  5
33
330
9
100
AcDbSymbolTableRecord
100
AcDbBlockTableRecord
  2
_Oblique
340
0
 70
0
280
1
281
0
  0
BLOCK_RECORD
  5
A5
330
9
100
AcDbSymbolTableRecord
100
AcDbBlockTableRecord
  2
HL044-1.3-C
340
0
 70
0
280
1
281
0
  0
BLOCK_RECORD
  5
B5
330
9
100
AcDbSymbolTableRecord
100
AcDbBlockTableRecord
  2
HL044-1.3-B
340
0
 70
0
280
1
281
0
  0
BLOCK_RECORD
  5
D4
330
9
100
AcDbSymbolTableRecord
100
AcDbBlockTableRecord
  2
khungtenAsean2
340
0
 70
0
280
1
281
0
  0
BLOCK_RECORD
  5
F8
330
9
100
AcDbSymbolTableRecord
100
AcDbBlockTableRecord
  2
AB301-2-1
340
0
 70
0
280
1
281
0
  0
BLOCK_RECORD
  5
11B
330
9
100
AcDbSymbolTableRecord
100
AcDbBlockTableRecord
  2
*D1
340
0
 70
0
280
1
281
0
  0
BLOCK_RECORD
  5
127
330
9
100
AcDbSymbolTableRecord
100
AcDbBlockTableRecord
  2
*D2
340
0
 70
0
280
1
281
0
  0
BLOCK_RECORD
  5
133
330
9
100
AcDbSymbolTableRecord
100
AcDbBlockTableRecord
  2
*D3
340
0
 70
0
280
1
281
0
  0
BLOCK_RECORD
  5
13F
330
9
100
AcDbSymbolTableRecord
100
AcDbBlockTableRecord
  2
*D4
340
0
 70
0
280
1
281
0
  0
BLOCK_RECORD
  5
14B
330
9
100
AcDbSymbolTableRecord
100
AcDbBlockTableRecord
  2
*D5
340
0
 70
0
280
1
281
0
  0
BLOCK_RECORD
  5
157
330
9
100
AcDbSymbolTableRecord
100
AcDbBlockTableRecord
  2
*D6
340
0
 70
0
280
1
281
0
  0
BLOCK_RECORD
  5
163
330
9
100
AcDbSymbolTableRecord
100
AcDbBlockTableRecord
  2
*D7
340
0
 70
0
280
1
281
0
  0
BLOCK_RECORD
  5
16F
330
9
100
AcDbSymbolTableRecord
100
AcDbBlockTableRecord
  2
*D8
340
0
 70
0
280
1
281
0
  0
ENDTAB
  0
ENDSEC
  0
SECTION
  2
BLOCKS
  0
BLOCK
  5
18
330
17
100
AcDbEntity
  8
0
100
AcDbBlockBegin
  2
*Model_Space
 70
0
 10
0.0
 20
0.0
 30
0.0
  3
*Model_Space
  1

  0
ENDBLK
  5
19
330
17
100
AcDbEntity
  8
0
100
AcDbBlockEnd
  0
BLOCK
  5
1C
330
1B
100
AcDbEntity
  8
0
100
AcDbBlockBegin
  2
*Paper_Space
 70
0
 10
0.0
 20
0.0
 30
0.0
  3
*Paper_Space
  1

  0
ENDBLK
  5
1D
330
1B
100
AcDbEntity
  8
0
100
AcDbBlockEnd
  0
BLOCK
  5
34
330
33
100
AcDbEntity
  8
0
100
AcDbBlockBegin
  2
_Oblique
 70
0
 10
0.0
 20
0.0
 30
0.0
  3
_Oblique
  1

  0
LINE
  5
36
330
33
100
AcDbEntity
  8
0
  6
ByBlock
 62
0
370
-2
100
AcDbLine
 10
-0.5
 20
-0.5
 30
0.0
 11
0.5
 21
0.5
 31
0.0
  0
ENDBLK
  5
35
330
33
100
AcDbEntity
  8
0
100
AcDbBlockEnd
  0
BLOCK
  5
A6
330
A5
100
AcDbEntity
  8
0
100
AcDbBlockBegin
  2
HL044-1.3-C
 70
0
 10
0.0
 20
0.0
 30
0.0
  3
HL044-1.3-C
  1

  0
LWPOLYLINE
  5
A8
330
A5
100
AcDbEntity
  8
0
 62
1
100
AcDbPolyline
 90
4
 70
1
 10
-46.0
 20
40.0
 10
0.0
 20
40.0
 10
0.0
 20
0.0
 10
-46.0
 20
0.0
  0
LINE
  5
A9
330
A5
100
AcDbEntity
  8
0
 62
1
100
AcDbLine
 10
-12.0
 20
29.0
 30
0.0
 11
0.0
 21
29.0
 31
0.0
  0
LINE
  5
AA
330
A5
100
AcDbEntity
  8
0
 62
1
100
AcDbLine
 10
-11.0
 20
28.50000000000728
 30
0.0
 11
0.0
 21
28.5
 31
0.0
  0
LINE
  5
AB
330
A5
100
AcDbEntity
  8
0
 62
1
100
AcDbLine
 10
0.0
 20
11.0
 30
0.0
 11
-12.0
 21
11.0
 31
0.0
  0
LINE
  5
AC
330
A5
100
AcDbEntity
  8
0
 62
1
100
AcDbLine
 10
0.0
 20
11.5
 30
0.0
 11
-11.0
 21
11.50000000000727
 31
0.0
  0
LINE
  5
AD
330
A5
100
AcDbEntity
  8
0
 62
1
100
AcDbLine
 10
-12.0
 20
11.0
 30
0.0
 11
-12.0
 21
29.0
 31
0.0
  0
CIRCLE
  5
AE
330
A5
100
AcDbEntity
  8
0
  6
HIDDEN2
 62
1
 48
0.5
100
AcDbCircle
 10
-25.0
 20
14.0
 30
0.0
 40
4.0
  0
CIRCLE
  5
AF
330
A5
100
AcDbEntity
  8
0
  6
HIDDEN2
 62
1
 48
0.5
100
AcDbCircle
 10
-25.0
 20
26.0
 30
0.0
 40
4.0
  0
CIRCLE
  5
B0
330
A5
100
AcDbEntity
  8
0
  6
HIDDEN2
 62
1
 48
0.5
100
AcDbCircle
 10
-15.5
 20
32.5
 30
0.0
 40
3.0
  0
CIRCLE
  5
B1
330
A5
100
AcDbEntity
  8
0
  6
HIDDEN2
 62
1
 48
0.5
100
AcDbCircle
 10
-15.5
 20
7.500000000007275
 30
0.0
 40
3.0
  0
LINE
  5
B2
330
A5
100
AcDbEntity
  8
0
  6
HIDDEN2
 62
1
 48
0.5
100
AcDbLine
 10
-25.0
 20
40.0
 30
0.0
 11
-25.0
 21
0.0
 31
0.0
  0
LINE
  5
B3
330
A5
100
AcDbEntity
  8
0
  6
HIDDEN2
 62
1
 48
0.5
100
AcDbLine
 10
-3.0
 20
7.276e-12
 30
0.0
 11
-3.0
 21
40.0
 31
0.0
  0
LINE
  5
B4
330
A5
100
AcDbEntity
  8
0
 62
1
100
AcDbLine
 10
-11.0
 20
28.5
 30
0.0
 11
-11.0
 21
11.5
 31
0.0
  0
ENDBLK
  5
A7
330
A5
100
AcDbEntity
  8
0
100
AcDbBlockEnd
  0
BLOCK
  5
B6
330
B5
100
AcDbEntity
  8
0
100
AcDbBlockBegin
  2
HL044-1.3-B
 70
0
 10
0.0
 20
0.0
 30
0.0
  3
HL044-1.3-B
  1

  0
HATCH
  5
B8
330
B5
100
AcDbEntity
  8
0
 62
1
100
AcDbHatch
 10
0.0
 20
0.0
 30
0.0
210
0.0
220
0.0
230
1.0
  2
ANSI31
 70
0
 71
0
 91
1
 92
7
 72
0
 73
1
 93
4
 10
-15.5
 20
27.0
 10
-15.5
 20
24.0
 10
-9.5
 20
24.0
 10
-9.5
 20
27.0
 97
4
330
33933
330
33935
330
33930
330
33936
 75
0
 76
1
 52
0.0
 41
0.3
 77
0
 78
1
 53
45.0
 43
-80982.3192505066
 44
-42991.26475357953
 45
-0.6735192090801864
 46
0.6735192090801866
 79
0
 47
0.0787477369447478
 98
1
 10
-12.63045961401076
 20
25.65454838844016
  0
LINE
  5
B9
330
B5
100
AcDbEntity
  8
0
 62
1
100
AcDbLine
 10
-1.0
 20
24.0
 30
0.0
 11
-22.0
 21
24.0
 31
0.0
  0
ARC
  5
BA
330
B5
100
AcDbEntity
  8
0
 62
1
100
AcDbCircle
 10
-1.0
 20
23.0
 30
0.0
 40
1.0
100
AcDbArc
 50
0.0
 51
90.0
  0
LINE
  5
BB
330
B5
100
AcDbEntity
  8
0
 62
1
100
AcDbLine
 10
-22.0
 20
24.0
 30
0.0
 11
-22.0
 21
27.0
 31
0.0
  0
LINE
  5
BC
330
B5
100
AcDbEntity
  8
0
 62
1
100
AcDbLine
 10
-22.0
 20
27.0
 30
0.0
 11
1.0
 21
27.0
 31
0.0
  0
ARC
  5
BD
330
B5
100
AcDbEntity
  8
0
 62
1
100
AcDbCircle
 10
1.0
 20
25.0
 30
0.0
 40
2.0
100
AcDbArc
 50
0.0
 51
90.0
  0
LINE
  5
BE
330
B5
100
AcDbEntity
  8
0
 62
1
100
AcDbLine
 10
-15.5
 20
24.0
 30
0.0
 11
-15.5
 21
27.0
 31
0.0
  0
LINE
  5
BF
330
B5
100
AcDbEntity
  8
0
 62
1
100
AcDbLine
 10
-9.5
 20
24.0
 30
0.0
 11
-9.5
 21
27.0
 31
0.0
  0
LINE
  5
C0
330
B5
100
AcDbEntity
  8
0
 62
1
100
AcDbLine
 10
3.0
 20
25.0
 30
0.0
 11
3.0
 21
0.0
 31
0.0
  0
LINE
  5
C1
330
B5
100
AcDbEntity
  8
0
 62
1
100
AcDbLine
 10
0.0
 20
23.0
 30
0.0
 11
0.0
 21
0.0
 31
0.0
  0
ARC
  5
C2
330
B5
100
AcDbEntity
  8
0
 62
1
100
AcDbCircle
 10
-2.5
 20
-6.5
 30
0.0
 40
5.5
100
AcDbArc
 50
270.0
 51
0.0
  0
LINE
  5
C3
330
B5
100
AcDbEntity
  8
0
 62
1
100
AcDbLine
 10
0.0
 20
0.0
 30
0.0
 11
-43.0
 21
0.0
 31
0.0
  0
LINE
  5
C4
330
B5
100
AcDbEntity
  8
0
 62
1
100
AcDbLine
 10
-43.0
 20
0.0
 30
0.0
 11
-43.0
 21
-2.0
 31
0.0
  0
LINE
  5
C5
330
B5
100
AcDbEntity
  8
0
 62
1
100
AcDbLine
 10
3.0
 20
-6.5
 30
0.0
 11
3.0
 21
0.0
 31
0.0
  0
LWPOLYLINE
  5
C6
330
B5
100
AcDbEntity
  8
0
 62
1
100
AcDbPolyline
 90
4
 70
1
 10
-26.0
 20
6.5
 10
-18.0
 20
6.5
 10
-18.0
 20
0.0
 10
-26.0
 20
0.0
  0
LINE
  5
C7
330
B5
100
AcDbEntity
  8
0
 62
1
100
AcDbLine
 10
-19.0
 20
6.5
 30
0.0
 11
-19.0
 21
0.0
 31
0.0
  0
LINE
  5
C8
330
B5
100
AcDbEntity
  8
0
 62
1
100
AcDbLine
 10
-25.0
 20
6.5
 30
0.0
 11
-25.0
 21
0.0
 31
0.0
  0
LINE
  5
C9
330
B5
100
AcDbEntity
  8
0
 62
1
100
AcDbLine
 10
-25.0
 20
6.5
 30
0.0
 11
-19.0
 21
5.934058110346086
 31
0.0
  0
LINE
  5
CA
330
B5
100
AcDbEntity
  8
0
 62
1
100
AcDbLine
 10
-25.0
 20
5.5
 30
0.0
 11
-19.0
 21
4.934058110346086
 31
0.0
  0
LINE
  5
CB
330
B5
100
AcDbEntity
  8
0
 62
1
100
AcDbLine
 10
-25.0
 20
4.5
 30
0.0
 11
-19.0
 21
3.934058110346086
 31
0.0
  0
LINE
  5
CC
330
B5
100
AcDbEntity
  8
0
 62
1
100
AcDbLine
 10
-25.0
 20
3.5
 30
0.0
 11
-19.0
 21
2.934058110346086
 31
0.0
  0
LINE
  5
CD
330
B5
100
AcDbEntity
  8
0
 62
1
100
AcDbLine
 10
-25.0
 20
2.5
 30
0.0
 11
-19.0
 21
1.934058110346086
 31
0.0
  0
LINE
  5
CE
330
B5
100
AcDbEntity
  8
0
 62
1
100
AcDbLine
 10
-25.0
 20
1.5
 30
0.0
 11
-19.0
 21
0.9340581103460863
 31
0.0
  0
LINE
  5
CF
330
B5
100
AcDbEntity
  8
0
 62
1
100
AcDbLine
 10
-25.0
 20
0.5
 30
0.0
 11
-19.69910240812169
 21
0.0
 31
0.0
  0
CIRCLE
  5
D0
330
B5
100
AcDbEntity
  8
0
 62
1
100
AcDbCircle
 10
-2.30000000000291
 20
-7.0
 30
0.0
 40
2.55000000000291
  0
LINE
  5
D1
330
B5
100
AcDbEntity
  8
0
 62
1
100
AcDbLine
 10
0.0
 20
6.0
 30
0.0
 11
3.0
 21
6.0
 31
0.0
  0
LINE
  5
D2
330
B5
100
AcDbEntity
  8
0
 62
1
100
AcDbLine
 10
0.0
 20
7.5
 30
0.0
 11
3.0
 21
7.5
 31
0.0
  0
ARC
  5
D3
330
B5
100
AcDbEntity
  8
0
 62
1
100
AcDbCircle
 10
15.4356101804733
 20
147.6517212310209
 30
0.0
 40
160.6560244888795
100
AcDbArc
 50
248.6704799579358
 51
263.5901471651879
  0
ENDBLK
  5
B7
330
B5
100
AcDbEntity
  8
0
100
AcDbBlockEnd
  0
BLOCK
  5
D5
330
D4
100
AcDbEntity
  8
0
100
AcDbBlockBegin
  2
khungtenAsean2
 70
2
 10
0.0
 20
0.0
 30
0.0
  3
khungtenAsean2
  1

  0
LWPOLYLINE
  5
D7
330
D4
100
AcDbEntity
  8
0
 62
7
100
AcDbPolyline
 90
4
 70
1
 10
0.0
 20
0.0
 10
2970.000000000422
 20
0.0
 10
2970.000000000422
 20
-2100.00000000032
 10
0.0
 20
-2100.00000000032
  0
LINE
  5
D8
330
D4
100
AcDbEntity
  8
0
 62
7
100
AcDbLine
 10
2020.0
 20
-2040.00000000032
 30
0.0
 11
0.0
 21
-2040.00000000032
 31
0.0
  0
LINE
  5
D9
330
D4
100
AcDbEntity
  8
0
 62
7
100
AcDbLine
 10
2970.000000000422
 20
-1980.00000000032
 30
0.0
 11
0.0
 21
-1980.00000000032
 31
0.0
  0
LINE
  5
DA
330
D4
100
AcDbEntity
  8
0
 62
7
100
AcDbLine
 10
320.0
 20
-1980.00000000032
 30
0.0
 11
320.0
 21
-2100.00000000032
 31
0.0
  0
LINE
  5
DB
330
D4
100
AcDbEntity
  8
0
 62
7
100
AcDbLine
 10
890.0
 20
-1980.00000000032
 30
0.0
 11
890.0
 21
-2100.00000000032
 31
0.0
  0
LINE
  5
DC
330
D4
100
AcDbEntity
  8
0
 62
7
100
AcDbLine
 10
1680.0
 20
-1980.00000000032
 30
0.0
 11
1680.0
 21
-2100.00000000032
 31
0.0
  0
LINE
  5
DD
330
D4
100
AcDbEntity
  8
0
 62
7
100
AcDbLine
 10
2020.0
 20
-1980.00000000032
 30
0.0
 11
2020.0
 21
-2100.00000000032
 31
0.0
  0
LINE
  5
DE
330
D4
100
AcDbEntity
  8
0
 62
7
100
AcDbLine
 10
2860.000000000422
 20
-1980.00000000032
 30
0.0
 11
2860.000000000422
 21
-2100.00000000032
 31
0.0
  0
MTEXT
  5
DF
330
D4
100
AcDbEntity
  8
0
 62
2
100
AcDbMText
 10
0.0
 20
-2010.00000000032
 30
0.0
 40
20.0
 41
917.6339389950801
 46
60.00000000000113
 71
4
 72
5
  1
  Thiết kế :
  7
Arial
  0
MTEXT
  5
E0
330
D4
100
AcDbEntity
  8
0
 62
2
100
AcDbMText
 10
0.0
 20
-2070.00000000032
 30
0.0
 40
20.0
 41
917.6339389950801
 46
60.00000000000113
 71
4
 72
5
  1
  CNC :
  7
Arial
  0
MTEXT
  5
E1
330
D4
100
AcDbEntity
  8
0
 62
2
100
AcDbMText
 10
320.0
 20
-2010.00000000032
 30
0.0
 40
20.0
 41
917.6339389950801
 46
60.00000000000113
 71
4
 72
5
  1
  Khách hàng :
  7
Arial
  0
MTEXT
  5
E2
330
D4
100
AcDbEntity
  8
0
 62
2
100
AcDbMText
 10
320.0
 20
-2070.00000000032
 30
0.0
 40
20.0
 41
917.6339389950801
 46
60.00000000000113
 71
4
 72
5
  1
  Giao hàng :
  7
Arial
  0
MTEXT
  5
E3
330
D4
100
AcDbEntity
  8
0
 62
2
100
AcDbMText
 10
890.0
 20
-2010.00000000032
 30
0.0
 40
20.0
 41
917.6339389950801
 46
60.00000000000113
 71
4
 72
5
  1
  Tên sản phẩm :
  7
Arial
  0
MTEXT
  5
E4
330
D4
100
AcDbEntity
  8
0
 62
2
100
AcDbMText
 10
890.0
 20
-2070.00000000032
 30
0.0
 40
20.0
 41
917.6339389950801
 46
60.00000000000113
 71
4
 72
5
  1
  Kích thước :
  7
Arial
  0
MTEXT
  5
E5
330
D4
100
AcDbEntity
  8
0
 62
2
100
AcDbMText
 10
1680.0
 20
-2010.00000000032
 30
0.0
 40
20.0
 41
917.6339389950801
 46
60.00000000000113
 71
4
 72
5
  1
  Số lượng :
  7
Arial
  0
MTEXT
  5
E6
330
D4
100
AcDbEntity
  8
0
 62
2
100
AcDbMText
 10
1680.0
 20
-2070.00000000032
 30
0.0
 40
20.0
 41
917.6339389950801
 46
60.00000000000113
 71
4
 72
5
  1
  Loại tôn :
  7
Arial
  0
MTEXT
  5
E7
330
D4
100
AcDbEntity
  8
0
 62
2
100
AcDbMText
 10
2074.15528161102
 20
-2040.00000000032
 30
0.0
 40
20.0
 41
108.3105632220314
 46
120.0000000000011
 71
5
 72
5
  1
Thông\Ptin :
  7
Arial
  0
MTEXT
  5
E8
330
D4
100
AcDbEntity
  8
0
 62
2
100
AcDbMText
 10
2915.000000000422
 20
-2010.00000000032
 30
0.0
 40
20.0
 41
110.0000000000065
 46
60.00000000000113
 71
5
 72
5
  1
Tờ
  7
Arial
  0
LINE
  5
E9
330
D4
100
AcDbEntity
  8
0
 62
7
100
AcDbLine
 10
2128.310563222025
 20
-2005.00000000032
 30
0.0
 11
2128.310563222025
 21
-2075.00000000032
 31
0.0
  0
MTEXT
  5
EA
330
D4
100
AcDbEntity
  8
0
 62
2
100
AcDbMText
 10
1382.285678836575
 20
-2070.00000000032
 30
0.0
 40
20.0
 41
917.6339389950801
 46
60.00000000000113
 71
4
 72
5
  1
mm
  7
Arial
  0
MTEXT
  5
EB
330
D4
100
AcDbEntity
  8
0
 62
2
100
AcDbMText
 10
1947.610064813329
 20
-2010.00000000032
 30
0.0
 40
20.0
 41
917.6339389950801
 46
60.00000000000113
 71
4
 72
5
  1
cái
  7
Arial
  0
MTEXT
  5
EC
330
D4
100
AcDbEntity
  8
0
 62
2
100
AcDbMText
 10
1936.880410494836
 20
-2070.00000000032
 30
0.0
 40
20.0
 41
917.6339389950801
 46
60.00000000000113
 71
4
 72
5
  1
mm
  7
Arial
  0
ATTDEF
  5
ED
330
D4
100
AcDbEntity
  8
0
 62
1
100
AcDbText
 10
2883.764212945627
 20
-2067.347800104843
 30
0.0
 40
25.0
  1
......
  7
Tahoma (Input Text)
 72
1
 11
2914.993225705868
 21
-2067.347800104843
 31
0.0
100
AcDbAttributeDefinition
  3
Số trang
  2
#11
 70
8
 71
1
 72
0
 11
2914.993225705868
 21
-2067.347800104843
 31
0.0
  0
ATTDEF
  5
EE
330
D4
100
AcDbEntity
  8
0
 62
1
100
AcDbText
 10
2146.716977487464
 20
-2021.275211692002
 30
0.0
 40
25.0
  1
......
  7
Tahoma (Input Text)
100
AcDbAttributeDefinition
  3
Thông tin 1
  2
#09
 70
8
 71
1
 72
0
  0
ATTDEF
  5
EF
330
D4
100
AcDbEntity
  8
0
 62
1
100
AcDbText
 10
2146.716977487464
 20
-2081.275211692002
 30
0.0
 40
25.0
  1
......
  7
Tahoma (Input Text)
100
AcDbAttributeDefinition
  3
Thông tin 2
  2
#10
 70
8
 71
1
 72
0
  0
ATTDEF
  5
F0
330
D4
100
AcDbEntity
  8
0
 62
1
100
AcDbText
 10
1817.447765733334
 20
-2081.275211692002
 30
0.0
 40
25.0
  1
......
  7
Tahoma (Input Text)
100
AcDbAttributeDefinition
  3
Loại tôn
  2
#08
 70
8
 71
1
 72
0
  0
ATTDEF
  5
F1
330
D4
100
AcDbEntity
  8
0
 62
1
100
AcDbText
 10
1834.68151032555
 20
-2021.275211692002
 30
0.0
 40
25.0
  1
......
  7
Tahoma (Input Text)
100
AcDbAttributeDefinition
  3
Số lượng
  2
#07
 70
8
 71
1
 72
0
  0
ATTDEF
  5
F2
330
D4
100
AcDbEntity
  8
0
 62
1
100
AcDbText
 10
1065.330889143646
 20
-2081.275211692002
 30
0.0
 40
25.0
  1
......
  7
Tahoma (Input Text)
100
AcDbAttributeDefinition
  3
Kích thước
  2
#06
 70
8
 71
1
 72
0
  0
ATTDEF
  5
F3
330
D4
100
AcDbEntity
  8
0
 62
1
100
AcDbText
 10
1106.628177122154
 20
-2021.275211692002
 30
0.0
 40
25.0
  1
......
  7
Tahoma (Input Text)
100
AcDbAttributeDefinition
  3
Tên s.phẩm
  2
#05
 70
8
 71
1
 72
0
  0
ATTDEF
  5
F4
330
D4
100
AcDbEntity
  8
0
 62
1
100
AcDbText
 10
486.1050270054984
 20
-2081.275211692002
 30
0.0
 40
25.0
  1
......
  7
Tahoma (Input Text)
100
AcDbAttributeDefinition
  3
Giao hàng
  2
#04
 70
8
 71
1
 72
0
  0
ATTDEF
  5
F5
330
D4
100
AcDbEntity
  8
0
 62
1
100
AcDbText
 10
506.5707489467022
 20
-2019.301600489707
 30
0.0
 40
25.0
  1
......
  7
Tahoma (Input Text)
100
AcDbAttributeDefinition
  3
Khách hàng
  2
#03
 70
8
 71
1
 72
0
  0
ATTDEF
  5
F6
330
D4
100
AcDbEntity
  8
0
 62
1
100
AcDbText
 10
98.45672450316488
 20
-2081.275211692002
 30
0.0
 40
25.0
  1
......
  7
Tahoma (Input Text)
100
AcDbAttributeDefinition
  3
CNC
  2
#02
 70
8
 71
1
 72
0
  0
ATTDEF
  5
F7
330
D4
100
AcDbEntity
  8
0
 62
1
100
AcDbText
 10
137.0535078375105
 20
-2021.275211692002
 30
0.0
 40
25.0
  1
......
  7
Tahoma (Input Text)
100
AcDbAttributeDefinition
  3
Thiết kế
  2
#01
 70
8
 71
1
 72
0
  0
ENDBLK
  5
D6
330
D4
100
AcDbEntity
  8
0
100
AcDbBlockEnd
  0
BLOCK
  5
F9
330
F8
100
AcDbEntity
  8
0
100
AcDbBlockBegin
  2
AB301-2-1
 70
0
 10
0.0
 20
0.0
 30
0.0
  3
AB301-2-1
  1

  0
LWPOLYLINE
  5
FB
330
F8
100
AcDbEntity
  8
0
  6
Continuous
 62
1
100
AcDbPolyline
 90
8
 70
1
 10
-1.45519e-11
 20
25.00000000000728
 10
-1.45519e-11
 20
25.00000000000728
 42
-0.4142135623730951
 10
14.99999999998545
 20
10.00000000000727
 10
14.99999999998545
 20
-80.49999999999272
 42
-0.4142135623730951
 10
-1.45519e-11
 20
-95.49999999999272
 10
-1.45519e-11
 20
-95.49999999999272
 42
-0.4142135623730951
 10
-15.00000000001455
 20
-80.49999999999272
 10
-15.00000000001455
 20
10.00000000000727
 42
-0.4142135623730951
  0
LWPOLYLINE
  5
FC
330
F8
100
AcDbEntity
  8
0
  6
Continuous
 62
1
100
AcDbPolyline
 90
6
 70
1
 10
-1.45519e-11
 20
10.00000000000727
 42
-0.4142135623730951
 10
9.999999999985448
 20
7.276e-12
 10
9.999999999985448
 20
-80.49999999999272
 42
-0.4142135623730951
 10
-1.45519e-11
 20
-90.49999999999272
 42
-0.4142135623730951
 10
-10.00000000001455
 20
-80.49999999999272
 10
-10.00000000001455
 20
7.276e-12
 42
-0.4142135623730951
  0
HATCH
  5
FD
330
F8
100
AcDbEntity
  8
0
  6
Continuous
 62
1
100
AcDbHatch
 10
0.0
 20
0.0
 30
0.0
210
0.0
220
0.0
230
1.0
  2
ACAD_ISO09W100
 70
0
 71
0
 91
1
 92
7
 72
1
 73
1
 93
5
 10
-4.08737554690669
 20
-88.5183141082494
 42
0.1184039893890922
 10
-1.45519e-11
 20
-89.49999999999272
 42
0.1184039893890922
 10
4.087375546877586
 20
-88.5183141082494
 42
0.0
 10
6.999999999985446
 20
-71.99999999999272
 42
0.0
 10
-7.000000000014551
 20
-71.99999999999272
 42
0.0
 97
0
 75
1
 76
1
 52
0.0
 41
0.2
 77
0
 78
1
 53
0.0
 43
-368.0181415297993
 44
398.3813967279711
 45
0.0
 46
1.0
 79
6
 49
4.799999999999998
 49
-0.6000000000000001
 49
1.199999999999999
 49
-0.6000000000000001
 49
1.199999999999999
 49
-0.6000000000000001
 47
0.1010447066433967
 98
1
 10
-1.464316444500582
 20
-79.25328255711065
  0
LWPOLYLINE
  5
FE
330
F8
100
AcDbEntity
  8
0
  6
Continuous
 62
1
100
AcDbPolyline
 90
7
 70
1
 10
8.999999999985448
 20
-72.49999999999272
 10
8.999999999985448
 20
-80.49999999999272
 42
-0.4142135623730951
 10
-1.45519e-11
 20
-89.49999999999272
 42
-0.4142135623730951
 10
-9.00000000001455
 20
-80.49999999999272
 10
-9.00000000001455
 20
-72.49999999999272
 42
-0.4142135623730951
 10
-7.000000000014551
 20
-70.49999999999272
 10
6.999999999985448
 20
-70.49999999999272
 42
-0.4142135623730951
  0
LINE
  5
FF
330
F8
100
AcDbEntity
  8
0
  6
Continuous
 62
1
100
AcDbLine
 10
-10.00000000001455
 20
-50.49999999999272
 30
0.0
 11
9.999999999985448
 21
-50.49999999999272
 31
0.0
  0
LINE
  5
100
330
F8
100
AcDbEntity
  8
0
  6
Continuous
 62
1
100
AcDbLine
 10
-7.000000000014551
 20
-71.99999999999272
 30
0.0
 11
6.999999999985448
 21
-71.99999999999272
 31
0.0
  0
LINE
  5
101
330
F8
100
AcDbEntity
  8
0
  6
Continuous
 62
1
100
AcDbLine
 10
-7.000000000014551
 20
-71.99999999999272
 30
0.0
 11
-4.087375546907423
 21
-88.51831410824525
 31
0.0
  0
LINE
  5
102
330
F8
100
AcDbEntity
  8
0
  6
Continuous
 62
1
100
AcDbLine
 10
6.999999999985448
 20
-71.99999999999272
 30
0.0
 11
4.08737554687832
 21
-88.51831410824525
 31
0.0
  0
CIRCLE
  5
103
330
F8
100
AcDbEntity
  8
0
  6
Continuous
 62
1
100
AcDbCircle
 10
-1.45519e-11
 20
-60.49999999999272
 30
0.0
 40
8.0
  0
LWPOLYLINE
  5
104
330
F8
100
AcDbEntity
  8
0
  6
Continuous
 62
1
100
AcDbPolyline
 90
4
 70
1
 10
-1.000000000014551
 20
-55.49999999999272
 10
0.999999999985448
 20
-55.49999999999272
 10
0.999999999985448
 20
-65.49999999999272
 10
-1.000000000014551
 20
-65.49999999999272
  0
LWPOLYLINE
  5
105
330
F8
100
AcDbEntity
  8
0
  6
Continuous
 62
1
100
AcDbPolyline
 90
8
 70
0
 10
-15.00000000001455
 20
-12.49999999999272
 10
-57.50000000001455
 20
-12.49999999999272
 42
-0.4142135623730951
 10
-65.00000000001455
 20
-4.999999999992724
 10
-65.00000000001455
 20
5.000000000007275
 42
-0.4142135623730951
 10
-57.50000000001455
 20
12.50000000000727
 10
-30.73832970146032
 20
12.50000000000727
 42
0.4142135623730951
 10
-24.73832970146032
 20
18.50000000000727
 10
-24.73832970146032
 20
18.73832970144576
  0
LWPOLYLINE
  5
106
330
F8
100
AcDbEntity
  8
0
  6
Continuous
 62
1
100
AcDbPolyline
 90
5
 70
0
 10
-24.73832970146032
 20
18.73832970144576
 42
-0.1989123673796609
 10
-22.98097038858395
 20
22.98097038856941
 10
-22.98097038858395
 20
22.98097038856941
 42
-0.4142135623730951
 10
-14.49568901433667
 20
22.98097038856941
 10
-11.33688703729422
 20
19.82216841151967
  0
LWPOLYLINE
  5
107
330
F8
100
AcDbEntity
  8
0
  6
Continuous
 62
1
100
AcDbPolyline
 90
5
 70
0
 10
14.99999999998545
 20
-6.51471862575272
 10
22.98097038855485
 20
-14.49568901431485
 42
-0.4142135623730951
 10
22.98097038855485
 20
-22.98097038855485
 10
22.98097038855485
 20
-22.98097038855485
 42
-0.381560762960909
 10
14.99999999998545
 20
-23.43139810529828
 42
-0.381560762960909
  0
LWPOLYLINE
  5
108
330
F8
100
AcDbEntity
  8
0
  6
Continuous
 62
2
100
AcDbPolyline
 90
4
 70
1
 10
-12.00000000001455
 20
13.25000000000727
 10
11.99999999998545
 20
13.25000000000727
 10
11.99999999998545
 20
-83.74999999999272
 10
-12.00000000001455
 20
-83.74999999999272
  0
CIRCLE
  5
109
330
F8
100
AcDbEntity
  8
0
  6
Continuous
 62
1
100
AcDbCircle
 10
-18.73832970146031
 20
18.73832970144576
 30
0.0
 40
2.5
  0
CIRCLE
  5
10A
330
F8
100
AcDbEntity
  8
0
  6
Continuous
 62
1
100
AcDbCircle
 10
18.73832970143121
 20
-18.73832970143121
 30
0.0
 40
2.5
  0
ENDBLK
  5
FA
330
F8
100
AcDbEntity
  8
0
100
AcDbBlockEnd
  0
BLOCK
  5
11C
330
11B
100
AcDbEntity
  8
0
100
AcDbBlockBegin
  2
*D1
 70
1
 10
0.0
 20
0.0
 30
0.0
  3
*D1
  1

  0
LINE
  5
11E
330
11B
100
AcDbEntity
  8
DIM
 62
5
370
9
440
16777216
100
AcDbLine
 10
344.42752160600503
 20
2140.2800242447265
 30
0.0
 11
239.55279651269666
 21
2140.2800242447265
 31
0.0
  0
LINE
  5
11F
330
11B
100
AcDbEntity
  8
DIM
 62
5
370
9
440
16777216
100
AcDbLine
 10
344.42752160600503
 20
940.2800242447265
 30
0.0
 11
239.55279651269666
 21
940.2800242447265
 31
0.0
  0
LINE
  5
120
330
11B
100
AcDbEntity
  8
DIM
 62
5
370
9
440
16777216
100
AcDbLine
 10
249.55279651269666
 20
2140.2800242447265
 30
0.0
 11
249.55279651269666
 21
940.2800242447265
 31
0.0
  0
LINE
  5
121
330
11B
100
AcDbEntity
  8
0
  6
ByBlock
 62
0
370
-2
100
AcDbLine
 10
253.55279651269666
 20
2136.2800242447265
 30
0.0
 11
245.55279651269666
 21
2144.2800242447265
 31
0.0
  0
LINE
  5
122
330
11B
100
AcDbEntity
  8
0
  6
ByBlock
 62
0
370
-2
100
AcDbLine
 10
245.55279651269666
 20
944.2800242447265
 30
0.0
 11
253.55279651269666
 21
936.2800242447265
 31
0.0
  0
MTEXT
  5
123
330
11B
100
AcDbEntity
  8
DIM
 62
3
440
16777216
100
AcDbMText
 10
226.7884718197165
 20
1540.280024244741
 30
0.0
 40
25.0
 41
0.0
 46
0.0
 71
5
  1
1200
 11
1e-16
 21
1.0
 31
0.0
  0
POINT
  5
124
330
11B
100
AcDbEntity
  8
Defpoints
 62
0
440
16777216
100
AcDbPoint
 10
359.42752160600503
 20
2140.2800242447265
 30
0.0
  0
POINT
  5
125
330
11B
100
AcDbEntity
  8
Defpoints
 62
0
440
16777216
100
AcDbPoint
 10
359.42752160600503
 20
940.2800242447265
 30
0.0
  0
POINT
  5
126
330
11B
100
AcDbEntity
  8
Defpoints
 62
0
440
16777216
100
AcDbPoint
 10
249.55279651269666
 20
940.2800242447265
 30
0.0
  0
ENDBLK
  5
11D
330
11B
100
AcDbEntity
  8
0
100
AcDbBlockEnd
  0
BLOCK
  5
128
330
127
100
AcDbEntity
  8
0
100
AcDbBlockBegin
  2
*D2
 70
1
 10
0.0
 20
0.0
 30
0.0
  3
*D2
  1

  0
LINE
  5
12A
330
127
100
AcDbEntity
  8
DIM
 62
5
370
9
 48
3.0
440
16777216
100
AcDbLine
 10
359.42752160600503
 20
2155.2800242447265
 30
0.0
 11
359.42752160600503
 21
2198.332496124727
 31
0.0
  0
LINE
  5
12B
330
127
100
AcDbEntity
  8
DIM
 62
5
370
9
 48
3.0
440
16777216
100
AcDbLine
 10
1159.427521606005
 20
2155.2800242447265
 30
0.0
 11
1159.427521606005
 21
2198.332496124727
 31
0.0
  0
LINE
  5
12C
330
127
100
AcDbEntity
  8
DIM
 62
5
370
9
 48
3.0
440
16777216
100
AcDbLine
 10
359.42752160600503
 20
2188.3324961247126
 30
0.0
 11
1159.427521606005
 21
2188.3324961247126
 31
0.0
  0
LINE
  5
12D
330
127
100
AcDbEntity
  8
0
  6
ByBlock
 62
0
370
-2
100
AcDbLine
 10
363.42752160600503
 20
2192.3324961247126
 30
0.0
 11
355.42752160600503
 21
2184.3324961247126
 31
0.0
  0
LINE
  5
12E
330
127
100
AcDbEntity
  8
0
  6
ByBlock
 62
0
370
-2
100
AcDbLine
 10
1155.427521606005
 20
2184.3324961247126
 30
0.0
 11
1163.427521606005
 21
2192.3324961247126
 31
0.0
  0
MTEXT
  5
12F
330
127
100
AcDbEntity
  8
DIM
 62
3
 48
3.0
440
16777216
100
AcDbMText
 10
759.427521606005
 20
2211.096820817751
 30
0.0
 40
25.0
 41
0.0
 46
0.0
 71
5
  1
800
  0
POINT
  5
130
330
127
100
AcDbEntity
  8
Defpoints
 62
0
 48
3.0
440
16777216
100
AcDbPoint
 10
359.42752160600503
 20
2140.2800242447265
 30
0.0
  0
POINT
  5
131
330
127
100
AcDbEntity
  8
Defpoints
 62
0
 48
3.0
440
16777216
100
AcDbPoint
 10
1159.427521606005
 20
2140.2800242447265
 30
0.0
  0
POINT
  5
132
330
127
100
AcDbEntity
  8
Defpoints
 62
0
 48
3.0
440
16777216
100
AcDbPoint
 10
1159.427521606005
 20
2188.3324961247126
 30
0.0
  0
ENDBLK
  5
129
330
127
100
AcDbEntity
  8
0
100
AcDbBlockEnd
  0
BLOCK
  5
134
330
133
100
AcDbEntity
  8
0
100
AcDbBlockBegin
  2
*D3
 70
1
 10
0.0
 20
0.0
 30
0.0
  3
*D3
  1

  0
LINE
  5
136
330
133
100
AcDbEntity
  8
DIM
 62
5
370
9
440
16777216
100
AcDbLine
 10
1371.2112116148055
 20
2140.2800242447265
 30
0.0
 11
1266.3364865214971
 21
2140.2800242447265
 31
0.0
  0
LINE
  5
137
330
133
100
AcDbEntity
  8
DIM
 62
5
370
9
440
16777216
100
AcDbLine
 10
1371.2112116148055
 20
940.2800242447265
 30
0.0
 11
1266.3364865214971
 21
940.2800242447265
 31
0.0
  0
LINE
  5
138
330
133
100
AcDbEntity
  8
DIM
 62
5
370
9
440
16777216
100
AcDbLine
 10
1276.3364865214971
 20
2140.2800242447265
 30
0.0
 11
1276.3364865214971
 21
940.2800242447265
 31
0.0
  0
LINE
  5
139
330
133
100
AcDbEntity
  8
0
  6
ByBlock
 62
0
370
-2
100
AcDbLine
 10
1280.3364865214971
 20
2136.2800242447265
 30
0.0
 11
1272.3364865214971
 21
2144.2800242447265
 31
0.0
  0
LINE
  5
13A
330
133
100
AcDbEntity
  8
0
  6
ByBlock
 62
0
370
-2
100
AcDbLine
 10
1272.3364865214971
 20
944.2800242447265
 30
0.0
 11
1280.3364865214971
 21
936.2800242447265
 31
0.0
  0
MTEXT
  5
13B
330
133
100
AcDbEntity
  8
DIM
 62
3
440
16777216
100
AcDbMText
 10
1253.572161828517
 20
1540.280024244741
 30
0.0
 40
25.0
 41
0.0
 46
0.0
 71
5
  1
1200
 11
1e-16
 21
1.0
 31
0.0
  0
POINT
  5
13C
330
133
100
AcDbEntity
  8
Defpoints
 62
0
440
16777216
100
AcDbPoint
 10
1386.2112116148055
 20
2140.2800242447265
 30
0.0
  0
POINT
  5
13D
330
133
100
AcDbEntity
  8
Defpoints
 62
0
440
16777216
100
AcDbPoint
 10
1386.2112116148055
 20
940.2800242447265
 30
0.0
  0
POINT
  5
13E
330
133
100
AcDbEntity
  8
Defpoints
 62
0
440
16777216
100
AcDbPoint
 10
1276.3364865214971
 20
940.2800242447265
 30
0.0
  0
ENDBLK
  5
135
330
133
100
AcDbEntity
  8
0
100
AcDbBlockEnd
  0
BLOCK
  5
140
330
13F
100
AcDbEntity
  8
0
100
AcDbBlockBegin
  2
*D4
 70
1
 10
0.0
 20
0.0
 30
0.0
  3
*D4
  1

  0
LINE
  5
142
330
13F
100
AcDbEntity
  8
DIM
 62
5
370
9
 48
3.0
440
16777216
100
AcDbLine
 10
1386.2112116148055
 20
2155.2800242447265
 30
0.0
 11
1386.2112116148055
 21
2198.332496124727
 31
0.0
  0
LINE
  5
143
330
13F
100
AcDbEntity
  8
DIM
 62
5
370
9
 48
3.0
440
16777216
100
AcDbLine
 10
2186.2112116148055
 20
2155.2800242447265
 30
0.0
 11
2186.2112116148055
 21
2198.332496124727
 31
0.0
  0
LINE
  5
144
330
13F
100
AcDbEntity
  8
DIM
 62
5
370
9
 48
3.0
440
16777216
100
AcDbLine
 10
1386.2112116148055
 20
2188.3324961247126
 30
0.0
 11
2186.2112116148055
 21
2188.3324961247126
 31
0.0
  0
LINE
  5
145
330
13F
100
AcDbEntity
  8
0
  6
ByBlock
 62
0
370
-2
100
AcDbLine
 10
1390.2112116148055
 20
2192.3324961247126
 30
0.0
 11
1382.2112116148055
 21
2184.3324961247126
 31
0.0
  0
LINE
  5
146
330
13F
100
AcDbEntity
  8
0
  6
ByBlock
 62
0
370
-2
100
AcDbLine
 10
2182.2112116148055
 20
2184.3324961247126
 30
0.0
 11
2190.2112116148055
 21
2192.3324961247126
 31
0.0
  0
MTEXT
  5
147
330
13F
100
AcDbEntity
  8
DIM
 62
3
 48
3.0
440
16777216
100
AcDbMText
 10
1786.2112116148055
 20
2211.096820817751
 30
0.0
 40
25.0
 41
0.0
 46
0.0
 71
5
  1
800
  0
POINT
  5
148
330
13F
100
AcDbEntity
  8
Defpoints
 62
0
 48
3.0
440
16777216
100
AcDbPoint
 10
1386.2112116148055
 20
2140.2800242447265
 30
0.0
  0
POINT
  5
149
330
13F
100
AcDbEntity
  8
Defpoints
 62
0
 48
3.0
440
16777216
100
AcDbPoint
 10
2186.2112116148055
 20
2140.2800242447265
 30
0.0
  0
POINT
  5
14A
330
13F
100
AcDbEntity
  8
Defpoints
 62
0
 48
3.0
440
16777216
100
AcDbPoint
 10
2186.2112116148055
 20
2188.3324961247126
 30
0.0
  0
ENDBLK
  5
141
330
13F
100
AcDbEntity
  8
0
100
AcDbBlockEnd
  0
BLOCK
  5
14C
330
14B
100
AcDbEntity
  8
0
100
AcDbBlockBegin
  2
*D5
 70
1
 10
0.0
 20
0.0
 30
0.0
  3
*D5
  1

  0
LINE
  5
14E
330
14B
100
AcDbEntity
  8
DIM
 62
5
370
9
 48
3.0
440
16777216
100
AcDbLine
 10
2242.8314420167007
 20
2155.2800242447265
 30
0.0
 11
2242.8314420167007
 21
2186.7404772476148
 31
0.0
  0
LINE
  5
14F
330
14B
100
AcDbEntity
  8
DIM
 62
5
370
9
 48
3.0
440
16777216
100
AcDbLine
 10
2642.8314420167007
 20
2155.2800242447265
 30
0.0
 11
2642.8314420167007
 21
2186.7404772476148
 31
0.0
  0
LINE
  5
150
330
14B
100
AcDbEntity
  8
DIM
 62
5
370
9
 48
3.0
440
16777216
100
AcDbLine
 10
2242.8314420167007
 20
2176.7404772476148
 30
0.0
 11
2642.8314420167007
 21
2176.7404772476148
 31
0.0
  0
LINE
  5
151
330
14B
100
AcDbEntity
  8
0
  6
ByBlock
 62
0
370
-2
100
AcDbLine
 10
2246.8314420167007
 20
2180.7404772476148
 30
0.0
 11
2238.8314420167007
 21
2172.7404772476148
 31
0.0
  0
LINE
  5
152
330
14B
100
AcDbEntity
  8
0
  6
ByBlock
 62
0
370
-2
100
AcDbLine
 10
2638.8314420167007
 20
2172.7404772476148
 30
0.0
 11
2646.8314420167007
 21
2180.7404772476148
 31
0.0
  0
MTEXT
  5
153
330
14B
100
AcDbEntity
  8
DIM
 62
3
 48
3.0
440
16777216
100
AcDbMText
 10
2442.8314420167007
 20
2199.504801940653
 30
0.0
 40
25.0
 41
0.0
 46
0.0
 71
5
  1
400
  0
POINT
  5
154
330
14B
100
AcDbEntity
  8
Defpoints
 62
0
 48
3.0
440
16777216
100
AcDbPoint
 10
2242.8314420167007
 20
2140.2800242447265
 30
0.0
  0
POINT
  5
155
330
14B
100
AcDbEntity
  8
Defpoints
 62
0
 48
3.0
440
16777216
100
AcDbPoint
 10
2642.8314420167007
 20
2140.2800242447265
 30
0.0
  0
POINT
  5
156
330
14B
100
AcDbEntity
  8
Defpoints
 62
0
 48
3.0
440
16777216
100
AcDbPoint
 10
2642.8314420167007
 20
2176.7404772476148
 30
0.0
  0
ENDBLK
  5
14D
330
14B
100
AcDbEntity
  8
0
100
AcDbBlockEnd
  0
BLOCK
  5
158
330
157
100
AcDbEntity
  8
0
100
AcDbBlockBegin
  2
*D6
 70
1
 10
0.0
 20
0.0
 30
0.0
  3
*D6
  1

  0
LINE
  5
15A
330
157
100
AcDbEntity
  8
DIM
 62
5
370
9
 48
3.0
440
16777216
100
AcDbLine
 10
344.42752160600503
 20
670.154930984485
 30
0.0
 11
277.9315787317173
 21
670.154930984485
 31
0.0
  0
LINE
  5
15B
330
157
100
AcDbEntity
  8
DIM
 62
5
370
9
 48
3.0
440
16777216
100
AcDbLine
 10
344.42752160600503
 20
370.15493098448496
 30
0.0
 11
277.9315787317173
 21
370.15493098448496
 31
0.0
  0
LINE
  5
15C
330
157
100
AcDbEntity
  8
DIM
 62
5
370
9
 48
3.0
440
16777216
100
AcDbLine
 10
287.9315787317173
 20
670.154930984485
 30
0.0
 11
287.9315787317173
 21
370.15493098448496
 31
0.0
  0
LINE
  5
15D
330
157
100
AcDbEntity
  8
0
  6
ByBlock
 62
0
370
-2
100
AcDbLine
 10
291.9315787317173
 20
666.154930984485
 30
0.0
 11
283.9315787317173
 21
674.154930984485
 31
0.0
  0
LINE
  5
15E
330
157
100
AcDbEntity
  8
0
  6
ByBlock
 62
0
370
-2
100
AcDbLine
 10
283.9315787317173
 20
374.15493098448496
 30
0.0
 11
291.9315787317173
 21
366.15493098448496
 31
0.0
  0
MTEXT
  5
15F
330
157
100
AcDbEntity
  8
DIM
 62
3
 48
3.0
440
16777216
100
AcDbMText
 10
265.15872743571526
 20
520.1549309844995
 30
0.0
 40
25.0
 41
0.0
 46
0.0
 71
5
  1
300
 11
1e-16
 21
1.0
 31
0.0
  0
POINT
  5
160
330
157
100
AcDbEntity
  8
Defpoints
 62
0
 48
3.0
440
16777216
100
AcDbPoint
 10
359.42752160600503
 20
670.154930984485
 30
0.0
  0
POINT
  5
161
330
157
100
AcDbEntity
  8
Defpoints
 62
0
 48
3.0
440
16777216
100
AcDbPoint
 10
359.42752160600503
 20
370.15493098448496
 30
0.0
  0
POINT
  5
162
330
157
100
AcDbEntity
  8
Defpoints
 62
0
 48
3.0
440
16777216
100
AcDbPoint
 10
287.9315787317173
 20
370.15493098448496
 30
0.0
  0
ENDBLK
  5
159
330
157
100
AcDbEntity
  8
0
100
AcDbBlockEnd
  0
BLOCK
  5
164
330
163
100
AcDbEntity
  8
0
100
AcDbBlockBegin
  2
*D7
 70
1
 10
0.0
 20
0.0
 30
0.0
  3
*D7
  1

  0
LINE
  5
166
330
163
100
AcDbEntity
  8
DIM
 62
5
370
9
 48
3.0
440
16777216
100
AcDbLine
 10
1371.2112116148055
 20
670.154930984485
 30
0.0
 11
1304.7152687405178
 21
670.154930984485
 31
0.0
  0
LINE
  5
167
330
163
100
AcDbEntity
  8
DIM
 62
5
370
9
 48
3.0
440
16777216
100
AcDbLine
 10
1371.2112116148055
 20
370.15493098448496
 30
0.0
 11
1304.7152687405178
 21
370.15493098448496
 31
0.0
  0
LINE
  5
168
330
163
100
AcDbEntity
  8
DIM
 62
5
370
9
 48
3.0
440
16777216
100
AcDbLine
 10
1314.7152687405178
 20
670.154930984485
 30
0.0
 11
1314.7152687405178
 21
370.15493098448496
 31
0.0
  0
LINE
  5
169
330
163
100
AcDbEntity
  8
0
  6
ByBlock
 62
0
370
-2
100
AcDbLine
 10
1318.7152687405178
 20
666.154930984485
 30
0.0
 11
1310.7152687405178
 21
674.154930984485
 31
0.0
  0
LINE
  5
16A
330
163
100
AcDbEntity
  8
0
  6
ByBlock
 62
0
370
-2
100
AcDbLine
 10
1310.7152687405178
 20
374.15493098448496
 30
0.0
 11
1318.7152687405178
 21
366.15493098448496
 31
0.0
  0
MTEXT
  5
16B
330
163
100
AcDbEntity
  8
DIM
 62
3
 48
3.0
440
16777216
100
AcDbMText
 10
1291.9424174445157
 20
520.1549309844995
 30
0.0
 40
25.0
 41
0.0
 46
0.0
 71
5
  1
300
 11
1e-16
 21
1.0
 31
0.0
  0
POINT
  5
16C
330
163
100
AcDbEntity
  8
Defpoints
 62
0
 48
3.0
440
16777216
100
AcDbPoint
 10
1386.2112116148055
 20
670.154930984485
 30
0.0
  0
POINT
  5
16D
330
163
100
AcDbEntity
  8
Defpoints
 62
0
 48
3.0
440
16777216
100
AcDbPoint
 10
1386.2112116148055
 20
370.15493098448496
 30
0.0
  0
POINT
  5
16E
330
163
100
AcDbEntity
  8
Defpoints
 62
0
 48
3.0
440
16777216
100
AcDbPoint
 10
1314.7152687405178
 20
370.15493098448496
 30
0.0
  0
ENDBLK
  5
165
330
163
100
AcDbEntity
  8
0
100
AcDbBlockEnd
  0
BLOCK
  5
170
330
16F
100
AcDbEntity
  8
0
100
AcDbBlockBegin
  2
*D8
 70
1
 10
0.0
 20
0.0
 30
0.0
  3
*D8
  1

  0
LINE
  5
172
330
16F
100
AcDbEntity
  8
DIM
 62
5
370
9
 48
3.0
440
16777216
100
AcDbLine
 10
2734.1372246076935
 20
2155.2800242447265
 30
0.0
 11
2734.1372246076935
 21
2186.7404772476148
 31
0.0
  0
LINE
  5
173
330
16F
100
AcDbEntity
  8
DIM
 62
5
370
9
 48
3.0
440
16777216
100
AcDbLine
 10
3134.1372246076935
 20
2155.2800242447265
 30
0.0
 11
3134.1372246076935
 21
2186.7404772476148
 31
0.0
  0
LINE
  5
174
330
16F
100
AcDbEntity
  8
DIM
 62
5
370
9
 48
3.0
440
16777216
100
AcDbLine
 10
2734.1372246076935
 20
2176.7404772476148
 30
0.0
 11
3134.1372246076935
 21
2176.7404772476148
 31
0.0
  0
LINE
  5
175
330
16F
100
AcDbEntity
  8
0
  6
ByBlock
 62
0
370
-2
100
AcDbLine
 10
2738.1372246076935
 20
2180.7404772476148
 30
0.0
 11
2730.1372246076935
 21
2172.7404772476148
 31
0.0
  0
LINE
  5
176
330
16F
100
AcDbEntity
  8
0
  6
ByBlock
 62
0
370
-2
100
AcDbLine
 10
3130.1372246076935
 20
2172.7404772476148
 30
0.0
 11
3138.1372246076935
 21
2180.7404772476148
 31
0.0
  0
MTEXT
  5
177
330
16F
100
AcDbEntity
  8
DIM
 62
3
 48
3.0
440
16777216
100
AcDbMText
 10
2934.1372246076935
 20
2199.504801940653
 30
0.0
 40
25.0
 41
0.0
 46
0.0
 71
5
  1
400
  0
POINT
  5
178
330
16F
100
AcDbEntity
  8
Defpoints
 62
0
 48
3.0
440
16777216
100
AcDbPoint
 10
2734.1372246076935
 20
2140.2800242447265
 30
0.0
  0
POINT
  5
179
330
16F
100
AcDbEntity
  8
Defpoints
 62
0
 48
3.0
440
16777216
100
AcDbPoint
 10
3134.1372246076935
 20
2140.2800242447265
 30
0.0
  0
POINT
  5
17A
330
16F
100
AcDbEntity
  8
Defpoints
 62
0
 48
3.0
440
16777216
100
AcDbPoint
 10
3134.1372246076935
 20
2176.7404772476148
 30
0.0
  0
ENDBLK
  5
171
330
16F
100
AcDbEntity
  8
0
100
AcDbBlockEnd
  0
ENDSEC
  0
SECTION
  2
ENTITIES
  0
MTEXT
  5
2F
330
17
100
AcDbEntity
  8
0
 62
2
100
AcDbMText
 10
1746.5637379914988
 20
864.4962977373943
 30
0.0
 40
39.0
 41
775.0000000000146
 46
100.0000000000031
 71
5
 72
5
  1
Bên trong tủ
  0
LWPOLYLINE
  5
30
330
17
100
AcDbEntity
  8
0
 62
7
100
AcDbPolyline
 90
4
 70
1
 10
359.42752160600503
 20
2140.2800242447265
 10
1159.427521606005
 20
2140.2800242447265
 10
1159.427521606005
 20
940.2800242447265
 10
359.42752160600503
 20
940.2800242447265
  0
LWPOLYLINE
  5
31
330
17
100
AcDbEntity
  8
0
  6
HIDDEN2
 62
7
100
AcDbPolyline
 90
4
 70
1
 10
360.62752160601667
 20
2139.0800242447294
 10
1158.2275216059934
 20
2139.0800242447294
 10
1158.2275216059934
 20
941.4800242447236
 10
360.62752160601667
 20
941.4800242447236
  0
DIMENSION
  5
32
330
17
100
AcDbEntity
  8
DIM
 62
7
100
AcDbDimension
280
0
  2
*D1
  3
Dim-25
 10
249.55279651269666
 20
940.2800242447265
 30
0.0
 11
226.7884718197165
 21
1540.280024244741
 31
0.0
 70
32
 71
5
 42
1200.0
 73
0
 74
0
 75
0
100
AcDbAlignedDimension
 13
359.42752160600503
 23
2140.2800242447265
 33
0.0
 14
359.42752160600503
 24
940.2800242447265
 34
0.0
 50
90.0
100
AcDbRotatedDimension
  0
INSERT
  5
37
330
17
100
AcDbEntity
  8
0
 62
7
100
AcDbBlockReference
  2
HL044-1.3-C
 10
1160.427521606005
 20
2020.2800242447265
 30
0.0
  0
INSERT
  5
39
330
17
100
AcDbEntity
  8
0
 62
7
100
AcDbBlockReference
  2
HL044-1.3-C
 10
1160.427521606005
 20
1060.2800242447265
 30
0.0
 41
-1.0
 50
180.0
  0
LWPOLYLINE
  5
3B
330
17
100
AcDbEntity
  8
0
 62
7
100
AcDbPolyline
 90
12
 70
1
 10
1144.2275216059934
 20
394.3549309844966
 10
1156.2275216059934
 20
394.3549309844966
 10
1156.2275216059934
 20
371.3549309844966
 10
360.62752160601667
 20
371.3549309844966
 10
360.62752160601667
 20
394.3549309844966
 10
372.62752160601667
 20
394.3549309844966
 10
372.62752160601667
 20
395.55493098447914
 10
359.42752160600503
 20
395.55493098447914
 10
359.42752160600503
 20
370.15493098448496
 10
1157.427521606005
 20
370.15493098448496
 10
1157.427521606005
 20
395.55493098447914
 10
1144.2275216059934
 20
395.55493098447914
  0
INSERT
  5
3C
330
17
100
AcDbEntity
  8
0
 62
7
100
AcDbBlockReference
  2
HL044-1.3-B
 10
1157.427521606005
 20
370.15493098448496
 30
0.0
  0
LWPOLYLINE
  5
3E
330
17
100
AcDbEntity
  8
0
 62
7
100
AcDbPolyline
 90
16
 70
1
 10
2602.631442016718
 20
2109.0800242447294
 10
2614.631442016718
 20
2109.0800242447294
 10
2614.631442016718
 20
2139.0800242447294
 10
2244.0314420167124
 20
2139.0800242447294
 10
2244.0314420167124
 20
941.4800242447236
 10
2614.631442016718
 20
941.4800242447236
 10
2614.631442016718
 20
971.4800242447236
 10
2602.631442016718
 20
971.4800242447236
 10
2602.631442016718
 20
972.6800242447207
 10
2615.8314420167007
 20
972.6800242447207
 10
2615.8314420167007
 20
940.2800242447265
 10
2242.8314420167007
 20
940.2800242447265
 10
2242.8314420167007
 20
2140.2800242447265
 10
2615.8314420167007
 20
2140.2800242447265
 10
2615.8314420167007
 20
2107.8800242447323
 10
2602.631442016718
 20
2107.8800242447323
  0
LWPOLYLINE
  5
3F
330
17
100
AcDbEntity
  8
0
 62
7
100
AcDbPolyline
 90
12
 70
1
 10
2618.631442016718
 20
2127.0800242447294
 10
2618.631442016718
 20
2139.0800242447294
 10
2641.631442016718
 20
2139.0800242447294
 10
2641.631442016718
 20
941.4800242447236
 10
2618.631442016718
 20
941.4800242447236
 10
2618.631442016718
 20
953.4800242447236
 10
2617.4314420167066
 20
953.4800242447236
 10
2617.4314420167066
 20
940.2800242447265
 10
2642.8314420167007
 20
940.2800242447265
 10
2642.8314420167007
 20
2140.2800242447265
 10
2617.4314420167066
 20
2140.2800242447265
 10
2617.4314420167066
 20
2127.0800242447294
  0
INSERT
  5
40
330
17
100
AcDbEntity
  8
0
 62
7
100
AcDbBlockReference
 66
1
  2
khungtenAsean2
 10
0.0
 20
2310.0000000011205
 30
0.0
 41
1.100000000000363
 42
1.100000000000363
 43
1.100000000000363
  0
ATTRIB
  5
41
330
40
100
AcDbEntity
  8
0
 62
1
100
AcDbText
 10
3172.1406342402042
 20
35.917419885794516
 30
0.0
 40
27.5
  1
......
  7
Tahoma (Input Text)
 72
1
 11
3206.4925482764083
 21
35.917419885794516
 31
0.0
100
AcDbAttribute
  2
#11
 70
0
 71
1
 72
0
 11
3206.4925482764083
 21
35.917419885794516
 31
0.0
  0
ATTRIB
  5
42
330
40
100
AcDbEntity
  8
0
 62
1
100
AcDbText
 10
2361.3886752362014
 20
86.59726713990676
 30
0.0
 40
27.5
  1
VÕ TỦ TRONG NHÀ, 1 LỚP CÁNH
  7
Tahoma (Input Text)
100
AcDbAttribute
  2
#09
 70
0
 71
1
 72
0
  0
ATTRIB
  5
43
330
40
100
AcDbEntity
  8
0
 62
1
100
AcDbText
 10
2361.3886752362014
 20
20.597267139906762
 30
0.0
 40
27.5
  1
......
  7
Tahoma (Input Text)
100
AcDbAttribute
  2
#10
 70
0
 71
1
 72
0
  0
ATTRIB
  5
44
330
40
100
AcDbEntity
  8
0
 62
1
100
AcDbText
 10
1999.1925423066132
 20
20.597267139906762
 30
0.0
 40
27.5
  1
1.2
  7
Tahoma (Input Text)
100
AcDbAttribute
  2
#08
 70
0
 71
1
 72
0
  0
ATTRIB
  5
45
330
40
100
AcDbEntity
  8
0
 62
1
100
AcDbText
 10
2018.1496613580966
 20
86.59726713990676
 30
0.0
 40
27.5
  1
1
  7
Tahoma (Input Text)
100
AcDbAttribute
  2
#07
 70
0
 71
1
 72
0
  0
ATTRIB
  5
46
330
40
100
AcDbEntity
  8
0
 62
1
100
AcDbText
 10
1171.8639780580124
 20
20.597267139906762
 30
0.0
 40
27.5
  1
1200x800x400
  7
Tahoma (Input Text)
100
AcDbAttribute
  2
#06
 70
0
 71
1
 72
0
  0
ATTRIB
  5
47
330
40
100
AcDbEntity
  8
0
 62
1
100
AcDbText
 10
1217.2909948343004
 20
86.59726713990676
 30
0.0
 40
27.5
  1
VÕ TỦ
  7
Tahoma (Input Text)
100
AcDbAttribute
  2
#05
 70
0
 71
1
 72
0
  0
ATTRIB
  5
48
330
40
100
AcDbEntity
  8
0
 62
1
100
AcDbText
 10
534.715529706009
 20
20.597267139906762
 30
0.0
 40
27.5
  1
......
  7
Tahoma (Input Text)
100
AcDbAttribute
  2
#04
 70
0
 71
1
 72
0
  0
ATTRIB
  5
49
330
40
100
AcDbEntity
  8
0
 62
1
100
AcDbText
 10
557.2278238412982
 20
88.76823946245713
 30
0.0
 40
27.5
  1

  7
Tahoma (Input Text)
100
AcDbAttribute
  2
#03
 70
0
 71
1
 72
0
  0
ATTRIB
  5
4A
330
40
100
AcDbEntity
  8
0
 62
1
100
AcDbText
 10
108.30239695351338
 20
20.597267139906762
 30
0.0
 40
27.5
  1
......
  7
Tahoma (Input Text)
100
AcDbAttribute
  2
#02
 70
0
 71
1
 72
0
  0
ATTRIB
  5
4B
330
40
100
AcDbEntity
  8
0
 62
1
100
AcDbText
 10
150.75885862120776
 20
86.59726713990676
 30
0.0
 40
27.5
  1

  7
Tahoma (Input Text)
100
AcDbAttribute
  2
#01
 70
0
 71
1
 72
0
  0
SEQEND
  5
4C
330
17
100
AcDbEntity
  8
0
 62
7
  0
DIMENSION
  5
4D
330
17
100
AcDbEntity
  8
DIM
 62
7
 48
3.0
100
AcDbDimension
280
0
  2
*D2
  3
Dim-25
 10
1159.427521606005
 20
2188.3324961247126
 30
0.0
 11
759.427521606005
 21
2211.096820817751
 31
0.0
 70
32
 71
5
 42
800.0
 73
0
 74
0
 75
0
100
AcDbAlignedDimension
 13
359.42752160600503
 23
2140.2800242447265
 33
0.0
 14
1159.427521606005
 24
2140.2800242447265
 34
0.0
 50
0.0
100
AcDbRotatedDimension
  0
LWPOLYLINE
  5
4E
330
17
100
AcDbEntity
  8
0
 62
7
100
AcDbPolyline
 90
4
 70
1
 10
1386.2112116148055
 20
2140.2800242447265
 10
2186.2112116148055
 20
2140.2800242447265
 10
2186.2112116148055
 20
940.2800242447265
 10
1386.2112116148055
 20
940.2800242447265
  0
LWPOLYLINE
  5
4F
330
17
100
AcDbEntity
  8
0
  6
HIDDEN2
 62
7
100
AcDbPolyline
 90
4
 70
1
 10
1387.4112116148171
 20
2139.0800242447294
 10
2185.011211614794
 20
2139.0800242447294
 10
2185.011211614794
 20
941.4800242447236
 10
1387.4112116148171
 20
941.4800242447236
  0
LWPOLYLINE
  5
50
330
17
100
AcDbEntity
  8
0
 62
7
100
AcDbPolyline
 90
4
 70
1
 10
1418.6112116147997
 20
2107.8800242447323
 10
2153.8112116148113
 20
2107.8800242447323
 10
2153.8112116148113
 20
972.6800242447207
 10
1418.6112116147997
 20
972.6800242447207
  0
LWPOLYLINE
  5
51
330
17
100
AcDbEntity
  8
0
 62
1
100
AcDbPolyline
 90
4
 70
1
 10
1423.6112116147997
 20
2102.880024244747
 10
2148.8112116148113
 20
2102.880024244747
 10
2148.8112116148113
 20
977.6800242447353
 10
1423.6112116147997
 20
977.6800242447353
  0
LWPOLYLINE
  5
52
330
17
100
AcDbEntity
  8
0
  6
HIDDEN2
 62
1
100
AcDbPolyline
 90
4
 70
1
 10
1424.8112116148113
 20
2101.6800242447353
 10
2147.6112116147997
 20
2101.6800242447353
 10
2147.6112116147997
 20
978.8800242447178
 10
1424.8112116148113
 20
978.8800242447178
  0
DIMENSION
  5
53
330
17
100
AcDbEntity
  8
DIM
 62
7
100
AcDbDimension
280
0
  2
*D3
  3
Dim-25
 10
1276.3364865214971
 20
940.2800242447265
 30
0.0
 11
1253.572161828517
 21
1540.280024244741
 31
0.0
 70
32
 71
5
 42
1200.0
 73
0
 74
0
 75
0
100
AcDbAlignedDimension
 13
1386.2112116148055
 23
2140.2800242447265
 33
0.0
 14
1386.2112116148055
 24
940.2800242447265
 34
0.0
 50
90.0
100
AcDbRotatedDimension
  0
DIMENSION
  5
54
330
17
100
AcDbEntity
  8
DIM
 62
7
 48
3.0
100
AcDbDimension
280
0
  2
*D4
  3
Dim-25
 10
2186.2112116148055
 20
2188.3324961247126
 30
0.0
 11
1786.2112116148055
 21
2211.096820817751
 31
0.0
 70
32
 71
5
 42
800.0
 73
0
 74
0
 75
0
100
AcDbAlignedDimension
 13
1386.2112116148055
 23
2140.2800242447265
 33
0.0
 14
2186.2112116148055
 24
2140.2800242447265
 34
0.0
 50
0.0
100
AcDbRotatedDimension
  0
DIMENSION
  5
55
330
17
100
AcDbEntity
  8
DIM
 62
7
 48
3.0
100
AcDbDimension
280
0
  2
*D5
  3
Dim-25
 10
2642.8314420167007
 20
2176.7404772476148
 30
0.0
 11
2442.8314420167007
 21
2199.504801940653
 31
0.0
 70
32
 71
5
 42
400.0
 73
0
 74
0
 75
0
100
AcDbAlignedDimension
 13
2242.8314420167007
 23
2140.2800242447265
 33
0.0
 14
2642.8314420167007
 24
2140.2800242447265
 34
0.0
 50
0.0
100
AcDbRotatedDimension
  0
DIMENSION
  5
56
330
17
100
AcDbEntity
  8
DIM
 62
7
 48
3.0
100
AcDbDimension
280
0
  2
*D6
  3
Dim-25
 10
287.9315787317173
 20
370.15493098448496
 30
0.0
 11
265.15872743571526
 21
520.1549309844995
 31
0.0
 70
32
 71
5
 42
300.0
 73
0
 74
0
 75
0
100
AcDbAlignedDimension
 13
359.42752160600503
 23
670.154930984485
 33
0.0
 14
359.42752160600503
 24
370.15493098448496
 34
0.0
 50
90.0
100
AcDbRotatedDimension
  0
INSERT
  5
57
330
17
100
AcDbEntity
  8
0
 62
7
100
AcDbBlockReference
  2
AB301-2-1
 10
438.8275216059992
 20
1575.5300242447265
 30
0.0
  0
LWPOLYLINE
  5
59
330
17
100
AcDbEntity
  8
0
 62
7
100
AcDbPolyline
 90
12
 70
1
 10
390.62752160601667
 20
410.3549309844966
 10
390.62752160601667
 20
398.3549309844966
 10
360.62752160601667
 20
398.3549309844966
 10
360.62752160601667
 20
668.9549309845024
 10
390.62752160601667
 20
668.9549309845024
 10
390.62752160601667
 20
658.954930984517
 10
391.8275216059992
 20
658.954930984517
 10
391.8275216059992
 20
670.154930984485
 10
359.42752160600503
 20
670.154930984485
 10
359.42752160600503
 20
397.15493098448496
 10
391.8275216059992
 20
397.15493098448496
 10
391.8275216059992
 20
410.3549309844966
  0
LWPOLYLINE
  5
5A
330
17
100
AcDbEntity
  8
0
 62
7
100
AcDbPolyline
 90
12
 70
1
 10
1128.2275216059934
 20
410.3549309844966
 10
1128.2275216059934
 20
398.3549309844966
 10
1158.2275216059934
 20
398.3549309844966
 10
1158.2275216059934
 20
668.9549309845024
 10
1128.2275216059934
 20
668.9549309845024
 10
1128.2275216059934
 20
658.954930984517
 10
1127.0275216060109
 20
658.954930984517
 10
1127.0275216060109
 20
670.154930984485
 10
1159.427521606005
 20
670.154930984485
 10
1159.427521606005
 20
397.15493098448496
 10
1127.0275216060109
 20
397.15493098448496
 10
1127.0275216060109
 20
410.3549309844966
  0
LWPOLYLINE
  5
5B
330
17
100
AcDbEntity
  8
0
 62
7
100
AcDbPolyline
 90
8
 70
1
 10
1125.8275216061156
 20
658.9549309844879
 10
1125.8275216061156
 20
668.9549309844879
 10
393.02752160601085
 20
668.9549309844879
 10
393.02752160601085
 20
658.9549309844879
 10
391.8275216059992
 20
658.9549309844879
 10
391.8275216059992
 20
670.154930984485
 10
1127.0275216060109
 20
670.154930984485
 10
1127.0275216060109
 20
658.9549309844879
  0
LWPOLYLINE
  5
5C
330
17
100
AcDbEntity
  8
0
 62
7
100
AcDbPolyline
 90
12
 70
1
 10
2171.011211614794
 20
394.3549309844966
 10
2183.011211614794
 20
394.3549309844966
 10
2183.011211614794
 20
371.3549309844966
 10
1387.4112116148171
 20
371.3549309844966
 10
1387.4112116148171
 20
394.3549309844966
 10
1399.4112116148171
 20
394.3549309844966
 10
1399.4112116148171
 20
395.55493098447914
 10
1386.2112116148055
 20
395.55493098447914
 10
1386.2112116148055
 20
370.15493098448496
 10
2184.2112116148055
 20
370.15493098448496
 10
2184.2112116148055
 20
395.55493098447914
 10
2171.011211614794
 20
395.55493098447914
  0
INSERT
  5
5D
330
17
100
AcDbEntity
  8
0
 62
7
100
AcDbBlockReference
  2
HL044-1.3-B
 10
2184.2112116148055
 20
370.15493098448496
 30
0.0
  0
LWPOLYLINE
  5
5F
330
17
100
AcDbEntity
  8
0
 62
1
100
AcDbPolyline
 90
8
 70
1
 10
1424.8112116148113
 20
668.9549309844879
 10
1424.8112116148113
 20
653.9549309844879
 10
2147.6112116147997
 20
653.9549309844879
 10
2147.6112116147997
 20
668.9549309844879
 10
2148.8112116148113
 20
668.9549309844879
 10
2148.8112116148113
 20
652.7549309844908
 10
1423.6112116147997
 20
652.7549309844908
 10
1423.6112116147997
 20
668.9549309844879
  0
DIMENSION
  5
60
330
17
100
AcDbEntity
  8
DIM
 62
7
 48
3.0
100
AcDbDimension
280
0
  2
*D7
  3
Dim-25
 10
1314.7152687405178
 20
370.15493098448496
 30
0.0
 11
1291.9424174445157
 21
520.1549309844995
 31
0.0
 70
32
 71
5
 42
300.0
 73
0
 74
0
 75
0
100
AcDbAlignedDimension
 13
1386.2112116148055
 23
670.154930984485
 33
0.0
 14
1386.2112116148055
 24
370.15493098448496
 34
0.0
 50
90.0
100
AcDbRotatedDimension
  0
LWPOLYLINE
  5
61
330
17
100
AcDbEntity
  8
THIET BI
  6
DASHED
 62
4
 48
0.5
100
AcDbPolyline
 90
4
 70
1
 10
1606.2112116148055
 20
600.154930984485
 10
1966.2112116148055
 20
600.154930984485
 10
1966.2112116148055
 20
440.15493098448496
 10
1606.2112116148055
 20
440.15493098448496
  0
LWPOLYLINE
  5
62
330
17
100
AcDbEntity
  8
THIET BI
  6
DASHED
 62
4
 48
0.5
100
AcDbPolyline
 90
4
 70
1
 10
1606.2112116148055
 20
600.154930984485
 10
1966.2112116148055
 20
600.154930984485
 10
1966.2112116148055
 20
440.15493098448496
 10
1606.2112116148055
 20
440.15493098448496
  0
LWPOLYLINE
  5
63
330
17
100
AcDbEntity
  8
0
 62
2
100
AcDbPolyline
 90
4
 70
1
 10
1626.2112116148055
 20
580.1549309844704
 10
1946.2112116148055
 20
580.1549309844704
 10
1946.2112116148055
 20
460.15493098448496
 10
1626.2112116148055
 20
460.15493098448496
  0
LWPOLYLINE
  5
64
330
17
100
AcDbEntity
  8
0
 62
7
100
AcDbPolyline
 90
4
 70
1
 10
1606.2112116148055
 20
600.154930984485
 10
1966.2112116148055
 20
600.154930984485
 10
1966.2112116148055
 20
440.15493098448496
 10
1606.2112116148055
 20
440.15493098448496
  0
LWPOLYLINE
  5
65
330
17
100
AcDbEntity
  8
0
 62
2
100
AcDbPolyline
 90
4
 70
1
 10
1621.4612116148055
 20
584.904930984485
 10
1612.4612116148055
 20
584.904930984485
 10
1612.4612116148055
 20
593.9049309844704
 10
1621.4612116148055
 20
593.9049309844704
  0
CIRCLE
  5
66
330
17
100
AcDbEntity
  8
0
 62
7
100
AcDbCircle
 10
1616.9612116148055
 20
589.4049309844704
 30
0.0
 40
4.0
  0
LWPOLYLINE
  5
67
330
17
100
AcDbEntity
  8
0
 62
2
100
AcDbPolyline
 90
4
 70
1
 10
1950.9612116148055
 20
584.904930984485
 10
1959.9612116148055
 20
584.904930984485
 10
1959.9612116148055
 20
593.9049309844704
 10
1950.9612116148055
 20
593.9049309844704
  0
CIRCLE
  5
68
330
17
100
AcDbEntity
  8
0
 62
7
100
AcDbCircle
 10
1955.4612116148055
 20
589.4049309844704
 30
0.0
 40
4.0
  0
LWPOLYLINE
  5
69
330
17
100
AcDbEntity
  8
0
 62
2
100
AcDbPolyline
 90
4
 70
1
 10
1621.4612116148055
 20
455.40493098448496
 10
1612.4612116148055
 20
455.40493098448496
 10
1612.4612116148055
 20
446.40493098448496
 10
1621.4612116148055
 20
446.40493098448496
  0
CIRCLE
  5
6A
330
17
100
AcDbEntity
  8
0
 62
7
100
AcDbCircle
 10
1616.9612116148055
 20
450.90493098448496
 30
0.0
 40
4.0
  0
LWPOLYLINE
  5
6B
330
17
100
AcDbEntity
  8
0
 62
2
100
AcDbPolyline
 90
4
 70
1
 10
1950.9612116148055
 20
455.40493098448496
 10
1959.9612116148055
 20
455.40493098448496
 10
1959.9612116148055
 20
446.40493098448496
 10
1950.9612116148055
 20
446.40493098448496
  0
CIRCLE
  5
6C
330
17
100
AcDbEntity
  8
0
 62
7
100
AcDbCircle
 10
1955.4612116148055
 20
450.90493098448496
 30
0.0
 40
4.0
  0
LWPOLYLINE
  5
6D
330
17
100
AcDbEntity
  8
0
 62
7
100
AcDbPolyline
 90
12
 70
1
 10
1417.4112116148171
 20
410.3549309844966
 10
1417.4112116148171
 20
398.3549309844966
 10
1387.4112116148171
 20
398.3549309844966
 10
1387.4112116148171
 20
668.9549309845024
 10
1417.4112116148171
 20
668.9549309845024
 10
1417.4112116148171
 20
658.954930984517
 10
1418.6112116147997
 20
658.954930984517
 10
1418.6112116147997
 20
670.154930984485
 10
1386.2112116148055
 20
670.154930984485
 10
1386.2112116148055
 20
397.15493098448496
 10
1418.6112116147997
 20
397.15493098448496
 10
1418.6112116147997
 20
410.3549309844966
  0
LWPOLYLINE
  5
6E
330
17
100
AcDbEntity
  8
0
 62
7
100
AcDbPolyline
 90
12
 70
1
 10
2155.011211614794
 20
410.3549309844966
 10
2155.011211614794
 20
398.3549309844966
 10
2185.011211614794
 20
398.3549309844966
 10
2185.011211614794
 20
668.9549309845024
 10
2155.011211614794
 20
668.9549309845024
 10
2155.011211614794
 20
658.954930984517
 10
2153.8112116148113
 20
658.954930984517
 10
2153.8112116148113
 20
670.154930984485
 10
2186.2112116148055
 20
670.154930984485
 10
2186.2112116148055
 20
397.15493098448496
 10
2153.8112116148113
 20
397.15493098448496
 10
2153.8112116148113
 20
410.3549309844966
  0
LWPOLYLINE
  5
6F
330
17
100
AcDbEntity
  8
0
 62
7
100
AcDbPolyline
 90
8
 70
1
 10
2152.6112116147997
 20
658.9549309844879
 10
2152.6112116147997
 20
668.9549309844879
 10
1419.8112116148113
 20
668.9549309844879
 10
1419.8112116148113
 20
658.9549309844879
 10
1418.6112116147997
 20
658.9549309844879
 10
1418.6112116147997
 20
670.154930984485
 10
2153.8112116148113
 20
670.154930984485
 10
2153.8112116148113
 20
658.9549309844879
  0
CIRCLE
  5
70
330
17
100
AcDbEntity
  8
0
 62
2
 48
3.0
100
AcDbCircle
 10
1445.611211614916
 20
2080.8800242447323
 30
0.0
 40
6.5
  0
CIRCLE
  5
71
330
17
100
AcDbEntity
  8
0
 62
2
 48
3.0
100
AcDbCircle
 10
1445.611211614916
 20
2080.8800242447323
 30
0.0
 40
1.5
  0
CIRCLE
  5
72
330
17
100
AcDbEntity
  8
0
 62
2
 48
3.0
100
AcDbCircle
 10
2126.8112116148113
 20
2080.8800242447323
 30
0.0
 40
6.5
  0
CIRCLE
  5
73
330
17
100
AcDbEntity
  8
0
 62
2
 48
3.0
100
AcDbCircle
 10
2126.8112116148113
 20
2080.8800242447323
 30
0.0
 40
1.5
  0
CIRCLE
  5
74
330
17
100
AcDbEntity
  8
0
 62
2
 48
3.0
100
AcDbCircle
 10
1445.611211614916
 20
999.6800242447207
 30
0.0
 40
6.5
  0
CIRCLE
  5
75
330
17
100
AcDbEntity
  8
0
 62
2
 48
3.0
100
AcDbCircle
 10
1445.611211614916
 20
999.6800242447207
 30
0.0
 40
1.5
  0
CIRCLE
  5
76
330
17
100
AcDbEntity
  8
0
 62
2
 48
3.0
100
AcDbCircle
 10
2126.8112116148113
 20
999.6800242447207
 30
0.0
 40
6.5
  0
CIRCLE
  5
77
330
17
100
AcDbEntity
  8
0
 62
2
 48
3.0
100
AcDbCircle
 10
2126.8112116148113
 20
999.6800242447207
 30
0.0
 40
1.5
  0
CIRCLE
  5
78
330
17
100
AcDbEntity
  8
0
 62
7
 48
3.0
100
AcDbCircle
 10
2126.8112116148113
 20
999.6800242447207
 30
0.0
 40
5.0
  0
LWPOLYLINE
  5
79
330
17
100
AcDbEntity
  8
THIET BI
  6
DASHED
 62
4
 48
0.5
100
AcDbPolyline
 90
4
 70
1
 10
579.427521606005
 20
600.154930984485
 10
939.427521606005
 20
600.154930984485
 10
939.427521606005
 20
440.15493098448496
 10
579.427521606005
 20
440.15493098448496
  0
LWPOLYLINE
  5
7A
330
17
100
AcDbEntity
  8
THIET BI
  6
DASHED
 62
4
 48
0.5
100
AcDbPolyline
 90
4
 70
1
 10
579.427521606005
 20
600.154930984485
 10
939.427521606005
 20
600.154930984485
 10
939.427521606005
 20
440.15493098448496
 10
579.427521606005
 20
440.15493098448496
  0
LWPOLYLINE
  5
7B
330
17
100
AcDbEntity
  8
0
 62
2
100
AcDbPolyline
 90
4
 70
1
 10
599.427521606005
 20
580.1549309844704
 10
919.427521606005
 20
580.1549309844704
 10
919.427521606005
 20
460.15493098448496
 10
599.427521606005
 20
460.15493098448496
  0
LWPOLYLINE
  5
7C
330
17
100
AcDbEntity
  8
0
 62
7
100
AcDbPolyline
 90
4
 70
1
 10
579.427521606005
 20
600.154930984485
 10
939.427521606005
 20
600.154930984485
 10
939.427521606005
 20
440.15493098448496
 10
579.427521606005
 20
440.15493098448496
  0
LWPOLYLINE
  5
7D
330
17
100
AcDbEntity
  8
0
 62
2
100
AcDbPolyline
 90
4
 70
1
 10
594.677521606005
 20
584.904930984485
 10
585.677521606005
 20
584.904930984485
 10
585.677521606005
 20
593.9049309844704
 10
594.677521606005
 20
593.9049309844704
  0
CIRCLE
  5
7E
330
17
100
AcDbEntity
  8
0
 62
7
100
AcDbCircle
 10
590.177521606005
 20
589.4049309844704
 30
0.0
 40
4.0
  0
LWPOLYLINE
  5
7F
330
17
100
AcDbEntity
  8
0
 62
2
100
AcDbPolyline
 90
4
 70
1
 10
924.177521606005
 20
584.904930984485
 10
933.177521606005
 20
584.904930984485
 10
933.177521606005
 20
593.9049309844704
 10
924.177521606005
 20
593.9049309844704
  0
CIRCLE
  5
80
330
17
100
AcDbEntity
  8
0
 62
7
100
AcDbCircle
 10
928.677521606005
 20
589.4049309844704
 30
0.0
 40
4.0
  0
LWPOLYLINE
  5
81
330
17
100
AcDbEntity
  8
0
 62
2
100
AcDbPolyline
 90
4
 70
1
 10
594.677521606005
 20
455.40493098448496
 10
585.677521606005
 20
455.40493098448496
 10
585.677521606005
 20
446.40493098448496
 10
594.677521606005
 20
446.40493098448496
  0
CIRCLE
  5
82
330
17
100
AcDbEntity
  8
0
 62
7
100
AcDbCircle
 10
590.177521606005
 20
450.90493098448496
 30
0.0
 40
4.0
  0
LWPOLYLINE
  5
83
330
17
100
AcDbEntity
  8
0
 62
2
100
AcDbPolyline
 90
4
 70
1
 10
924.177521606005
 20
455.40493098448496
 10
933.177521606005
 20
455.40493098448496
 10
933.177521606005
 20
446.40493098448496
 10
924.177521606005
 20
446.40493098448496
  0
CIRCLE
  5
84
330
17
100
AcDbEntity
  8
0
 62
7
100
AcDbCircle
 10
928.677521606005
 20
450.90493098448496
 30
0.0
 40
4.0
  0
LWPOLYLINE
  5
85
330
17
100
AcDbEntity
  8
0
 62
7
100
AcDbPolyline
 90
16
 70
1
 10
3093.937224607711
 20
2109.0800242447294
 10
3105.937224607711
 20
2109.0800242447294
 10
3105.937224607711
 20
2139.0800242447294
 10
2735.337224607705
 20
2139.0800242447294
 10
2735.337224607705
 20
941.4800242447236
 10
3105.937224607711
 20
941.4800242447236
 10
3105.937224607711
 20
971.4800242447236
 10
3093.937224607711
 20
971.4800242447236
 10
3093.937224607711
 20
972.6800242447207
 10
3107.1372246076935
 20
972.6800242447207
 10
3107.1372246076935
 20
940.2800242447265
 10
2734.1372246076935
 20
940.2800242447265
 10
2734.1372246076935
 20
2140.2800242447265
 10
3107.1372246076935
 20
2140.2800242447265
 10
3107.1372246076935
 20
2107.8800242447323
 10
3093.937224607711
 20
2107.8800242447323
  0
LWPOLYLINE
  5
86
330
17
100
AcDbEntity
  8
0
 62
1
100
AcDbPolyline
 90
8
 70
1
 10
2735.337224607705
 20
978.8800242447178
 10
2750.337224607705
 20
978.8800242447178
 10
2750.337224607705
 20
2101.6800242447353
 10
2735.337224607705
 20
2101.6800242447353
 10
2735.337224607705
 20
2102.880024244747
 10
2751.537224607717
 20
2102.880024244747
 10
2751.537224607717
 20
977.6800242447353
 10
2735.337224607705
 20
977.6800242447353
  0
LWPOLYLINE
  5
87
330
17
100
AcDbEntity
  8
0
 62
7
100
AcDbPolyline
 90
12
 70
1
 10
3109.937224607711
 20
2127.0800242447294
 10
3109.937224607711
 20
2139.0800242447294
 10
3132.937224607711
 20
2139.0800242447294
 10
3132.937224607711
 20
941.4800242447236
 10
3109.937224607711
 20
941.4800242447236
 10
3109.937224607711
 20
953.4800242447236
 10
3108.7372246076993
 20
953.4800242447236
 10
3108.7372246076993
 20
940.2800242447265
 10
3134.1372246076935
 20
940.2800242447265
 10
3134.1372246076935
 20
2140.2800242447265
 10
3108.7372246076993
 20
2140.2800242447265
 10
3108.7372246076993
 20
2127.0800242447294
  0
DIMENSION
  5
88
330
17
100
AcDbEntity
  8
DIM
 62
7
 48
3.0
100
AcDbDimension
280
0
  2
*D8
  3
Dim-25
 10
3134.1372246076935
 20
2176.7404772476148
 30
0.0
 11
2934.1372246076935
 21
2199.504801940653
 31
0.0
 70
32
 71
5
 42
400.0
 73
0
 74
0
 75
0
100
AcDbAlignedDimension
 13
2734.1372246076935
 23
2140.2800242447265
 33
0.0
 14
3134.1372246076935
 24
2140.2800242447265
 34
0.0
 50
0.0
100
AcDbRotatedDimension
  0
LWPOLYLINE
  5
89
330
17
100
AcDbEntity
  8
0
 62
2
100
AcDbPolyline
 90
6
 70
1
 10
2447.3314420167007
 20
1958.0800242447294
 10
2511.3314420167007
 20
1958.0800242447294
 42
-0.4142135623730951
 10
2519.3314420167007
 20
1950.0800242447294
 10
2519.3314420167007
 20
1947.0800242447294
 10
2439.3314420167007
 20
1947.0800242447294
 10
2439.3314420167007
 20
1950.0800242447294
 42
-0.4142135623730951
  0
LWPOLYLINE
  5
8A
330
17
100
AcDbEntity
  8
0
 62
2
100
AcDbPolyline
 90
6
 70
1
 10
2447.3314420167007
 20
1927.0800242447294
 10
2511.3314420167007
 20
1927.0800242447294
 42
-0.4142135623730951
 10
2519.3314420167007
 20
1919.0800242447294
 10
2519.3314420167007
 20
1916.0800242447294
 10
2439.3314420167007
 20
1916.0800242447294
 10
2439.3314420167007
 20
1919.0800242447294
 42
-0.4142135623730951
  0
LWPOLYLINE
  5
8B
330
17
100
AcDbEntity
  8
0
 62
2
100
AcDbPolyline
 90
6
 70
1
 10
2447.3314420167007
 20
1989.0800242447294
 10
2511.3314420167007
 20
1989.0800242447294
 42
-0.4142135623730951
 10
2519.3314420167007
 20
1981.0800242447294
 10
2519.3314420167007
 20
1978.0800242447294
 10
2439.3314420167007
 20
1978.0800242447294
 10
2439.3314420167007
 20
1981.0800242447294
 42
-0.4142135623730951
  0
LWPOLYLINE
  5
8C
330
17
100
AcDbEntity
  8
0
 62
2
100
AcDbPolyline
 90
6
 70
1
 10
2447.3314420167007
 20
1896.0800242447294
 10
2511.3314420167007
 20
1896.0800242447294
 42
-0.4142135623730951
 10
2519.3314420167007
 20
1888.0800242447294
 10
2519.3314420167007
 20
1885.0800242447294
 10
2439.3314420167007
 20
1885.0800242447294
 10
2439.3314420167007
 20
1888.0800242447294
 42
-0.4142135623730951
  0
LWPOLYLINE
  5
8D
330
17
100
AcDbEntity
  8
0
 62
2
100
AcDbPolyline
 90
6
 70
1
 10
2447.3314420167007
 20
1865.0800242447294
 10
2511.3314420167007
 20
1865.0800242447294
 42
-0.4142135623730951
 10
2519.3314420167007
 20
1857.0800242447294
 10
2519.3314420167007
 20
1854.0800242447294
 10
2439.3314420167007
 20
1854.0800242447294
 10
2439.3314420167007
 20
1857.0800242447294
 42
-0.4142135623730951
  0
LWPOLYLINE
  5
8E
330
17
100
AcDbEntity
  8
0
 62
2
100
AcDbPolyline
 90
6
 70
1
 10
2447.3314420167007
 20
1225.2800242447265
 10
2511.3314420167007
 20
1225.2800242447265
 42
-0.4142135623730951
 10
2519.3314420167007
 20
1217.2800242447265
 10
2519.3314420167007
 20
1214.2800242447265
 10
2439.3314420167007
 20
1214.2800242447265
 10
2439.3314420167007
 20
1217.2800242447265
 42
-0.4142135623730951
  0
LWPOLYLINE
  5
8F
330
17
100
AcDbEntity
  8
0
 62
2
100
AcDbPolyline
 90
6
 70
1
 10
2447.3314420167007
 20
1194.2800242447265
 10
2511.3314420167007
 20
1194.2800242447265
 42
-0.4142135623730951
 10
2519.3314420167007
 20
1186.2800242447265
 10
2519.3314420167007
 20
1183.2800242447265
 10
2439.3314420167007
 20
1183.2800242447265
 10
2439.3314420167007
 20
1186.2800242447265
 42
-0.4142135623730951
  0
LWPOLYLINE
  5
90
330
17
100
AcDbEntity
  8
0
 62
2
100
AcDbPolyline
 90
6
 70
1
 10
2447.3314420167007
 20
1163.2800242447265
 10
2511.3314420167007
 20
1163.2800242447265
 42
-0.4142135623730951
 10
2519.3314420167007
 20
1155.2800242447265
 10
2519.3314420167007
 20
1152.2800242447265
 10
2439.3314420167007
 20
1152.2800242447265
 10
2439.3314420167007
 20
1155.2800242447265
 42
-0.4142135623730951
  0
LWPOLYLINE
  5
91
330
17
100
AcDbEntity
  8
0
 62
2
100
AcDbPolyline
 90
6
 70
1
 10
2447.3314420167007
 20
1132.2800242447265
 10
2511.3314420167007
 20
1132.2800242447265
 42
-0.4142135623730951
 10
2519.3314420167007
 20
1124.2800242447265
 10
2519.3314420167007
 20
1121.2800242447265
 10
2439.3314420167007
 20
1121.2800242447265
 10
2439.3314420167007
 20
1124.2800242447265
 42
-0.4142135623730951
  0
LWPOLYLINE
  5
92
330
17
100
AcDbEntity
  8
0
 62
2
100
AcDbPolyline
 90
6
 70
1
 10
2447.3314420167007
 20
1101.2800242447265
 10
2511.3314420167007
 20
1101.2800242447265
 42
-0.4142135623730951
 10
2519.3314420167007
 20
1093.2800242447265
 10
2519.3314420167007
 20
1090.2800242447265
 10
2439.3314420167007
 20
1090.2800242447265
 10
2439.3314420167007
 20
1093.2800242447265
 42
-0.4142135623730951
  0
LWPOLYLINE
  5
93
330
17
100
AcDbEntity
  8
0
 62
2
100
AcDbPolyline
 90
6
 70
1
 10
2411.3314420167007
 20
1958.0800242447294
 10
2347.3314420167007
 20
1958.0800242447294
 42
0.4142135623730951
 10
2339.3314420167007
 20
1950.0800242447294
 10
2339.3314420167007
 20
1947.0800242447294
 10
2419.3314420167007
 20
1947.0800242447294
 10
2419.3314420167007
 20
1950.0800242447294
 42
0.4142135623730951
  0
LWPOLYLINE
  5
94
330
17
100
AcDbEntity
  8
0
 62
2
100
AcDbPolyline
 90
6
 70
1
 10
2411.3314420167007
 20
1927.0800242447294
 10
2347.3314420167007
 20
1927.0800242447294
 42
0.4142135623730951
 10
2339.3314420167007
 20
1919.0800242447294
 10
2339.3314420167007
 20
1916.0800242447294
 10
2419.3314420167007
 20
1916.0800242447294
 10
2419.3314420167007
 20
1919.0800242447294
 42
0.4142135623730951
  0
LWPOLYLINE
  5
95
330
17
100
AcDbEntity
  8
0
 62
2
100
AcDbPolyline
 90
6
 70
1
 10
2411.3314420167007
 20
1989.0800242447294
 10
2347.3314420167007
 20
1989.0800242447294
 42
0.4142135623730951
 10
2339.3314420167007
 20
1981.0800242447294
 10
2339.3314420167007
 20
1978.0800242447294
 10
2419.3314420167007
 20
1978.0800242447294
 10
2419.3314420167007
 20
1981.0800242447294
 42
0.4142135623730951
  0
LWPOLYLINE
  5
96
330
17
100
AcDbEntity
  8
0
 62
2
100
AcDbPolyline
 90
6
 70
1
 10
2411.3314420167007
 20
1896.0800242447294
 10
2347.3314420167007
 20
1896.0800242447294
 42
0.4142135623730951
 10
2339.3314420167007
 20
1888.0800242447294
 10
2339.3314420167007
 20
1885.0800242447294
 10
2419.3314420167007
 20
1885.0800242447294
 10
2419.3314420167007
 20
1888.0800242447294
 42
0.4142135623730951
  0
LWPOLYLINE
  5
97
330
17
100
AcDbEntity
  8
0
 62
2
100
AcDbPolyline
 90
6
 70
1
 10
2411.3314420167007
 20
1865.0800242447294
 10
2347.3314420167007
 20
1865.0800242447294
 42
0.4142135623730951
 10
2339.3314420167007
 20
1857.0800242447294
 10
2339.3314420167007
 20
1854.0800242447294
 10
2419.3314420167007
 20
1854.0800242447294
 10
2419.3314420167007
 20
1857.0800242447294
 42
0.4142135623730951
  0
LWPOLYLINE
  5
98
330
17
100
AcDbEntity
  8
0
 62
2
100
AcDbPolyline
 90
6
 70
1
 10
2411.3314420167007
 20
1225.2800242447265
 10
2347.3314420167007
 20
1225.2800242447265
 42
0.4142135623730951
 10
2339.3314420167007
 20
1217.2800242447265
 10
2339.3314420167007
 20
1214.2800242447265
 10
2419.3314420167007
 20
1214.2800242447265
 10
2419.3314420167007
 20
1217.2800242447265
 42
0.4142135623730951
  0
LWPOLYLINE
  5
99
330
17
100
AcDbEntity
  8
0
 62
2
100
AcDbPolyline
 90
6
 70
1
 10
2411.3314420167007
 20
1194.2800242447265
 10
2347.3314420167007
 20
1194.2800242447265
 42
0.4142135623730951
 10
2339.3314420167007
 20
1186.2800242447265
 10
2339.3314420167007
 20
1183.2800242447265
 10
2419.3314420167007
 20
1183.2800242447265
 10
2419.3314420167007
 20
1186.2800242447265
 42
0.4142135623730951
  0
LWPOLYLINE
  5
9A
330
17
100
AcDbEntity
  8
0
 62
2
100
AcDbPolyline
 90
6
 70
1
 10
2411.3314420167007
 20
1163.2800242447265
 10
2347.3314420167007
 20
1163.2800242447265
 42
0.4142135623730951
 10
2339.3314420167007
 20
1155.2800242447265
 10
2339.3314420167007
 20
1152.2800242447265
 10
2419.3314420167007
 20
1152.2800242447265
 10
2419.3314420167007
 20
1155.2800242447265
 42
0.4142135623730951
  0
LWPOLYLINE
  5
9B
330
17
100
AcDbEntity
  8
0
 62
2
100
AcDbPolyline
 90
6
 70
1
 10
2411.3314420167007
 20
1132.2800242447265
 10
2347.3314420167007
 20
1132.2800242447265
 42
0.4142135623730951
 10
2339.3314420167007
 20
1124.2800242447265
 10
2339.3314420167007
 20
1121.2800242447265
 10
2419.3314420167007
 20
1121.2800242447265
 10
2419.3314420167007
 20
1124.2800242447265
 42
0.4142135623730951
  0
LWPOLYLINE
  5
9C
330
17
100
AcDbEntity
  8
0
 62
2
100
AcDbPolyline
 90
6
 70
1
 10
2411.3314420167007
 20
1101.2800242447265
 10
2347.3314420167007
 20
1101.2800242447265
 42
0.4142135623730951
 10
2339.3314420167007
 20
1093.2800242447265
 10
2339.3314420167007
 20
1090.2800242447265
 10
2419.3314420167007
 20
1090.2800242447265
 10
2419.3314420167007
 20
1093.2800242447265
 42
0.4142135623730951
  0
MTEXT
  5
9D
330
17
100
AcDbEntity
  8
0
 62
2
100
AcDbMText
 10
755.9349315025902
 20
884.4216627525748
 30
0.0
 40
35.0
 41
1072.000000000014
 46
100.0000000000031
 71
5
 72
5
  1
MẶT NGOÀI
  0
MTEXT
  5
9E
330
17
100
AcDbEntity
  8
0
 62
2
100
AcDbMText
 10
2450.2102340412966
 20
872.3247334581538
 30
0.0
 40
39.0
 41
775.0000000000146
 46
100.0000000000031
 71
5
 72
5
  1
Hông tủ
  0
LWPOLYLINE
  5
9F
330
17
100
AcDbEntity
  8
0
 48
3.0
100
AcDbPolyline
 90
4
 70
1
 10
359.42752160600503
 20
670.154930984485
 10
1159.427521606005
 20
670.154930984485
 10
1159.427521606005
 20
397.15493098448496
 10
359.42752160600503
 20
397.15493098448496
  0
LWPOLYLINE
  5
A0
330
17
100
AcDbEntity
  8
0
 48
3.0
100
AcDbPolyline
 90
4
 70
1
 10
1157.427521606005
 20
395.55493098447914
 10
359.42752160600503
 20
395.55493098447914
 10
359.42752160600503
 20
370.15493098448496
 10
1157.427521606005
 20
370.15493098448496
  0
MTEXT
  5
A1
330
17
100
AcDbEntity
  8
0
 62
2
100
AcDbMText
 10
755.9349315025902
 20
318.4807521900366
 30
0.0
 40
35.0
 41
1072.000000000014
 46
100.0000000000031
 71
5
 72
5
  1
Nóc đáy
  0
MTEXT
  5
A2
330
17
100
AcDbEntity
  8
0
 62
2
100
AcDbMText
 10
1812.2749244033184
 20
318.4807521900366
 30
0.0
 40
35.0
 41
1072.000000000014
 46
100.0000000000031
 71
5
 72
5
  1
Mặt cắt ngang
  0
HATCH
  5
A3
330
17
100
AcDbEntity
  8
0
 48
3.0
100
AcDbHatch
 10
0.0
 20
0.0
 30
0.0
210
0.0
220
0.0
230
1.0
  2
ANSI31
 70
0
 71
0
 91
1
 92
1
 93
4
 72
1
 10
359.42752160600503
 20
670.154930984485
 11
1159.427521606005
 21
670.154930984485
 72
1
 10
1159.427521606005
 20
670.154930984485
 11
1159.427521606005
 21
397.15493098448496
 72
1
 10
1159.427521606005
 20
397.15493098448496
 11
359.42752160600503
 21
397.15493098448496
 72
1
 10
359.42752160600503
 20
397.15493098448496
 11
359.42752160600503
 21
670.154930984485
 97
1
330
2CC63A
 75
0
 76
1
 52
0.0
 41
60.0
 77
0
 78
1
 53
45.0
 43
0.0
 44
0.0
 45
-318.1980515339
 46
318.1980515339
 79
0
 98
1
 10
0.0
 20
0.0
  0
HATCH
  5
A4
330
17
100
AcDbEntity
  8
0
 48
3.0
100
AcDbHatch
 10
0.0
 20
0.0
 30
0.0
210
0.0
220
0.0
230
1.0
  2
ANSI31
 70
0
 71
0
 91
1
 92
1
 93
4
 72
1
 10
1157.427521606005
 20
395.55493098447914
 11
359.42752160600503
 21
395.55493098447914
 72
1
 10
359.42752160600503
 20
395.55493098447914
 11
359.42752160600503
 21
370.15493098448496
 72
1
 10
359.42752160600503
 20
370.15493098448496
 11
1157.427521606005
 21
370.15493098448496
 72
1
 10
1157.427521606005
 20
370.15493098448496
 11
1157.427521606005
 21
395.55493098447914
 97
1
330
2CC63B
 75
0
 76
1
 52
90.0
 41
40.0
 77
0
 78
1
 53
225.0
 43
0.0
 44
0.0
 45
141.4213562373
 46
-141.4213562373
 79
0
 98
1
 10
0.0
 20
0.0
  0
ENDSEC
  0
SECTION
  2
OBJECTS
  0
DICTIONARY
  5
A
330
0
100
AcDbDictionary
281
1
  3
ACAD_COLOR
350
B
  3
ACAD_GROUP
350
C
  3
ACAD_LAYOUT
350
D
  3
ACAD_MATERIAL
350
E
  3
ACAD_MLEADERSTYLE
350
F
  3
ACAD_MLINESTYLE
350
10
  3
ACAD_PLOTSETTINGS
350
11
  3
ACAD_PLOTSTYLENAME
350
12
  3
ACAD_SCALELIST
350
14
  3
ACAD_TABLESTYLE
350
15
  3
ACAD_VISUALSTYLE
350
16
  3
EZDXF_META
350
2D
  0
DICTIONARY
  5
B
330
A
100
AcDbDictionary
281
1
  0
DICTIONARY
  5
C
330
A
100
AcDbDictionary
281
1
  0
DICTIONARY
  5
D
330
A
100
AcDbDictionary
281
1
  3
Model
350
1A
  3
Layout1
350
1E
  0
DICTIONARY
  5
E
330
A
100
AcDbDictionary
281
1
  3
ByBlock
350
1F
  3
ByLayer
350
20
  3
Global
350
21
  0
DICTIONARY
  5
F
330
A
100
AcDbDictionary
281
1
  3
Standard
350
2C
  0
DICTIONARY
  5
10
330
A
100
AcDbDictionary
281
1
  3
Standard
350
22
  0
DICTIONARY
  5
11
330
A
100
AcDbDictionary
281
1
  0
ACDBDICTIONARYWDFLT
  5
12
330
A
100
AcDbDictionary
281
1
  3
Normal
350
13
100
AcDbDictionaryWithDefault
340
13
  0
ACDBPLACEHOLDER
  5
13
330
12
  0
DICTIONARY
  5
14
330
A
100
AcDbDictionary
281
1
  0
DICTIONARY
  5
15
330
A
100
AcDbDictionary
281
1
  0
DICTIONARY
  5
16
330
A
100
AcDbDictionary
281
1
  0
LAYOUT
  5
1A
330
D
100
AcDbPlotSettings
  1

  4
A3
  6

 40
7.5
 41
20.0
 42
7.5
 43
20.0
 44
420.0
 45
297.0
 46
0.0
 47
0.0
 48
0.0
 49
0.0
140
0.0
141
0.0
142
1.0
143
1.0
 70
1024
 72
1
 73
0
 74
5
  7

 75
16
 76
0
 77
2
 78
300
147
1.0
148
0.0
149
0.0
100
AcDbLayout
  1
Model
 70
1
 71
0
 10
0.0
 20
0.0
 11
420.0
 21
297.0
 12
0.0
 22
0.0
 32
0.0
 14
1e+20
 24
1e+20
 34
1e+20
 15
-1e+20
 25
-1e+20
 35
-1e+20
146
0.0
 13
0.0
 23
0.0
 33
0.0
 16
1.0
 26
0.0
 36
0.0
 17
0.0
 27
1.0
 37
0.0
 76
1
330
17
  0
LAYOUT
  5
1E
330
D
100
AcDbPlotSettings
  1

  4
A3
  6

 40
7.5
 41
20.0
 42
7.5
 43
20.0
 44
420.0
 45
297.0
 46
0.0
 47
0.0
 48
0.0
 49
0.0
140
0.0
141
0.0
142
1.0
143
1.0
 70
0
 72
1
 73
0
 74
5
  7

 75
16
 76
0
 77
2
 78
300
147
1.0
148
0.0
149
0.0
100
AcDbLayout
  1
Layout1
 70
1
 71
1
 10
0.0
 20
0.0
 11
420.0
 21
297.0
 12
0.0
 22
0.0
 32
0.0
 14
1e+20
 24
1e+20
 34
1e+20
 15
-1e+20
 25
-1e+20
 35
-1e+20
146
0.0
 13
0.0
 23
0.0
 33
0.0
 16
1.0
 26
0.0
 36
0.0
 17
0.0
 27
1.0
 37
0.0
 76
1
330
1B
  0
MATERIAL
  5
1F
102
{ACAD_REACTORS
330
E
102
}
330
E
100
AcDbMaterial
  1
ByBlock
  2

 70
0
 40
1.0
 71
1
 41
1.0
 91
-1023410177
 42
1.0
 72
1
  3

 73
1
 74
1
 75
1
 44
0.5
 73
0
 45
1.0
 46
1.0
 77
1
  4

 78
1
 79
1
170
1
 48
1.0
171
1
  6

172
1
173
1
174
1
140
1.0
141
1.0
175
1
  7

176
1
177
1
178
1
143
1.0
179
1
  8

270
1
271
1
272
1
145
1.0
146
1.0
273
1
  9

274
1
275
1
276
1
 42
1.0
 72
1
  3

 73
1
 74
1
 75
1
 94
63
  0
MATERIAL
  5
20
102
{ACAD_REACTORS
330
E
102
}
330
E
100
AcDbMaterial
  1
ByLayer
  2

 70
0
 40
1.0
 71
1
 41
1.0
 91
-1023410177
 42
1.0
 72
1
  3

 73
1
 74
1
 75
1
 44
0.5
 73
0
 45
1.0
 46
1.0
 77
1
  4

 78
1
 79
1
170
1
 48
1.0
171
1
  6

172
1
173
1
174
1
140
1.0
141
1.0
175
1
  7

176
1
177
1
178
1
143
1.0
179
1
  8

270
1
271
1
272
1
145
1.0
146
1.0
273
1
  9

274
1
275
1
276
1
 42
1.0
 72
1
  3

 73
1
 74
1
 75
1
 94
63
  0
MATERIAL
  5
21
102
{ACAD_REACTORS
330
E
102
}
330
E
100
AcDbMaterial
  1
Global
  2

 70
0
 40
1.0
 71
1
 41
1.0
 91
-1023410177
 42
1.0
 72
1
  3

 73
1
 74
1
 75
1
 44
0.5
 73
0
 45
1.0
 46
1.0
 77
1
  4

 78
1
 79
1
170
1
 48
1.0
171
1
  6

172
1
173
1
174
1
140
1.0
141
1.0
175
1
  7

176
1
177
1
178
1
143
1.0
179
1
  8

270
1
271
1
272
1
145
1.0
146
1.0
273
1
  9

274
1
275
1
276
1
 42
1.0
 72
1
  3

 73
1
 74
1
 75
1
 94
63
  0
MLINESTYLE
  5
22
102
{ACAD_REACTORS
330
10
102
}
330
10
100
AcDbMlineStyle
  2
Standard
 70
0
  3

 62
256
 51
90.0
 52
90.0
 71
2
 49
0.5
 62
256
  6
BYLAYER
 49
-0.5
 62
256
  6
BYLAYER
  0
MLEADERSTYLE
  5
2C
102
{ACAD_REACTORS
330
F
102
}
330
F
100
AcDbMLeaderStyle
179
2
170
2
171
1
172
0
 90
2
 40
0.0
 41
0.0
173
1
 91
-1056964608
 92
-2
290
1
 42
2.0
291
1
 43
8.0
  3
Standard
 44
4.0
300

342
29
174
1
175
1
176
0
178
1
 93
-1056964608
 45
4.0
292
0
297
0
 46
4.0
 94
-1056964608
 47
1.0
 49
1.0
140
1.0
294
1
141
0.0
177
0
142
1.0
295
0
296
0
143
3.75
271
0
272
9
273
9
  0
DICTIONARY
  5
2D
330
A
100
AcDbDictionary
280
1
281
1
  3
CREATED_BY_EZDXF
350
2E
  3
WRITTEN_BY_EZDXF
350
114
  0
DICTIONARYVAR
  5
2E
330
2D
100
DictionaryVariables
280
0
  1
1.4.4 @ 2026-09-24T06:32:44.807061+00:00
  0
DICTIONARYVAR
  5
114
330
2D
100
DictionaryVariables
280
0
  1
1.4.4 @ 2026-09-24T06:38:34.662617+00:00
  0
ENDSEC
  0
EOF
