  0
SECTION
  2
HEADER
  9
$ACADVER
  1
AC1032
  9
$ACADMAINTVER
 90
4
  9
$DWGCODEPAGE
  3
ANSI_1252
  9
$LASTSAVEDBY
  1
ezdxf
  9
$REQUIREDVERSIONS
160
0
  9
$INSBASE
 10
0.0
 20
0.0
 30
0.0
  9
$EXTMIN
 10
1e+20
 20
1e+20
 30
1e+20
  9
$EXTMAX
 10
-1e+20
 20
-1e+20
 30
-1e+20
  9
$LIMMIN
 10
0.0
 20
0.0
  9
$LIMMAX
 10
420.0
 20
297.0
  9
$ORTHOMODE
 70
0
  9
$REGENMODE
 70
1
  9
$FILLMODE
 70
1
  9
$QTEXTMODE
 70
0
  9
$MIRRTEXT
 70
1
  9
$LTSCALE
 40
1.0
  9
$ATTMODE
 70
1
  9
$TEXTSIZE
 40
2.5
  9
$TRACEWID
 40
1.0
  9
$TEXTSTYLE
  7
Standard
  9
$CLAYER
  8
0
  9
$CELTYPE
  6
ByLayer
  9
$CECOLOR
 62
256
  9
$CELTSCALE
 40
1.0
  9
$DISPSILH
 70
0
  9
$DIMSCALE
 40
1.0
  9
$DIMASZ
 40
2.5
  9
$DIMEXO
 40
0.625
  9
$DIMDLI
 40
3.75
  9
$DIMRND
 40
0.0
  9
$DIMDLE
 40
0.0
  9
$DIMEXE
 40
1.25
  9
$DIMTP
 40
0.0
  9
$DIMTM
 40
0.0
  9
$DIMTXT
 40
2.5
  9
$DIMCEN
 40
2.5
  9
$DIMTSZ
 40
0.0
  9
$DIMTOL
 70
0
  9
$DIMLIM
 70
0
  9
$DIMTIH
 70
0
  9
$DIMTOH
 70
0
  9
$DIMSE1
 70
0
  9
$DIMSE2
 70
0
  9
$DIMTAD
 70
1
  9
$DIMZIN
 70
8
  9
$DIMBLK
  1

  9
$DIMASO
 70
1
  9
$DIMSHO
 70
1
  9
$DIMPOST
  1

  9
$DIMAPOST
  1

  9
$DIMALT
 70
0
  9
$DIMALTD
 70
3
  9
$DIMALTF
 40
0.03937007874
  9
$DIMLFAC
 40
1.0
  9
$DIMTOFL
 70
1
  9
$DIMTVP
 40
0.0
  9
$DIMTIX
 70
0
  9
$DIMSOXD
 70
0
  9
$DIMSAH
 70
0
  9
$DIMBLK1
  1

  9
$DIMBLK2
  1

  9
$DIMSTYLE
  2
ISO-25
  9
$DIMCLRD
 70
0
  9
$DIMCLRE
 70
0
  9
$DIMCLRT
 70
0
  9
$DIMTFAC
 40
1.0
  9
$DIMGAP
 40
0.625
  9
$DIMJUST
 70
0
  9
$DIMSD1
 70
0
  9
$DIMSD2
 70
0
  9
$DIMTOLJ
 70
0
  9
$DIMTZIN
 70
8
  9
$DIMALTZ
 70
0
  9
$DIMALTTZ
 70
0
  9
$DIMUPT
 70
0
  9
$DIMDEC
 70
2
  9
$DIMTDEC
 70
2
  9
$DIMALTU
 70
2
  9
$DIMALTTD
 70
3
  9
$DIMTXSTY
  7
Standard
  9
$DIMAUNIT
 70
0
  9
$DIMADEC
 70
0
  9
$DIMALTRND
 40
0.0
  9
$DIMAZIN
 70
0
  9
$DIMDSEP
 70
44
  9
$DIMATFIT
 70
3
  9
$DIMFRAC
 70
0
  9
$DIMLDRBLK
  1

  9
$DIMLUNIT
 70
2
  9
$DIMLWD
 70
-2
  9
$DIMLWE
 70
-2
  9
$DIMTMOVE
 70
0
  9
$DIMFXL
 40
1.0
  9
$DIMFXLON
 70
0
  9
$DIMJOGANG
 40
0.785398163397
  9
$DIMTFILL
 70
0
  9
$DIMTFILLCLR
 70
0
  9
$DIMARCSYM
 70
0
  9
$DIMLTYPE
  6

  9
$DIMLTEX1
  6

  9
$DIMLTEX2
  6

  9
$DIMTXTDIRECTION
 70
0
  9
$LUNITS
 70
2
  9
$LUPREC
 70
4
  9
$SKETCHINC
 40
1.0
  9
$FILLETRAD
 40
10.0
  9
$AUNITS
 70
0
  9
$AUPREC
 70
2
  9
$MENU
  1
.
  9
$ELEVATION
 40
0.0
  9
$PELEVATION
 40
0.0
  9
$THICKNESS
 40
0.0
  9
$LIMCHECK
 70
0
  9
$CHAMFERA
 40
0.0
  9
$CHAMFERB
 40
0.0
  9
$CHAMFERC
 40
0.0
  9
$CHAMFERD
 40
0.0
  9
$SKPOLY
 70
0
  9
$TDCREATE
 40
2461308.567627315
  9
$TDUCREATE
 40
2458532.153996898
  9
$TDUPDATE
 40
2461308.567627315
  9
$TDUUPDATE
 40
2458532.1544311
  9
$TDINDWG
 40
0.0
  9
$TDUSRTIMER
 40
0.0
  9
$USRTIMER
 70
1
  9
$ANGBASE
 50
0.0
  9
$ANGDIR
 70
0
  9
$PDMODE
 70
0
  9
$PDSIZE
 40
0.0
  9
$PLINEWID
 40
0.0
  9
$SPLFRAME
 70
0
  9
$SPLINETYPE
 70
6
  9
$SPLINESEGS
 70
8
  9
$HANDSEED
  5
1BD
  9
$SURFTAB1
 70
6
  9
$SURFTAB2
 70
6
  9
$SURFTYPE
 70
6
  9
$SURFU
 70
6
  9
$SURFV
 70
6
  9
$UCSBASE
  2

  9
$UCSNAME
  2

  9
$UCSORG
 10
0.0
 20
0.0
 30
0.0
  9
$UCSXDIR
 10
1.0
 20
0.0
 30
0.0
  9
$UCSYDIR
 10
0.0
 20
1.0
 30
0.0
  9
$UCSORTHOREF
  2

  9
$UCSORTHOVIEW
 70
0
  9
$UCSORGTOP
 10
0.0
 20
0.0
 30
0.0
  9
$UCSORGBOTTOM
 10
0.0
 20
0.0
 30
0.0
  9
$UCSORGLEFT
 10
0.0
 20
0.0
 30
0.0
  9
$UCSORGRIGHT
 10
0.0
 20
0.0
 30
0.0
  9
$UCSORGFRONT
 10
0.0
 20
0.0
 30
0.0
  9
$UCSORGBACK
 10
0.0
 20
0.0
 30
0.0
  9
$PUCSBASE
  2

  9
$PUCSNAME
  2

  9
$PUCSORG
 10
0.0
 20
0.0
 30
0.0
  9
$PUCSXDIR
 10
1.0
 20
0.0
 30
0.0
  9
$PUCSYDIR
 10
0.0
 20
1.0
 30
0.0
  9
$PUCSORTHOREF
  2

  9
$PUCSORTHOVIEW
 70
0
  9
$PUCSORGTOP
 10
0.0
 20
0.0
 30
0.0
  9
$PUCSORGBOTTOM
 10
0.0
 20
0.0
 30
0.0
  9
$PUCSORGLEFT
 10
0.0
 20
0.0
 30
0.0
  9
$PUCSORGRIGHT
 10
0.0
 20
0.0
 30
0.0
  9
$PUCSORGFRONT
 10
0.0
 20
0.0
 30
0.0
  9
$PUCSORGBACK
 10
0.0
 20
0.0
 30
0.0
  9
$USERI1
 70
0
  9
$USERI2
 70
0
  9
$USERI3
 70
0
  9
$USERI4
 70
0
  9
$USERI5
 70
0
  9
$USERR1
 40
0.0
  9
$USERR2
 40
0.0
  9
$USERR3
 40
0.0
  9
$USERR4
 40
0.0
  9
$USERR5
 40
0.0
  9
$WORLDVIEW
 70
1
  9
$SHADEDGE
 70
3
  9
$SHADEDIF
 70
70
  9
$TILEMODE
 70
1
  9
$MAXACTVP
 70
64
  9
$PINSBASE
 10
0.0
 20
0.0
 30
0.0
  9
$PLIMCHECK
 70
0
  9
$PEXTMIN
 10
1e+20
 20
1e+20
 30
1e+20
  9
$PEXTMAX
 10
-1e+20
 20
-1e+20
 30
-1e+20
  9
$PLIMMIN
 10
0.0
 20
0.0
  9
$PLIMMAX
 10
420.0
 20
297.0
  9
$UNITMODE
 70
0
  9
$VISRETAIN
 70
1
  9
$PLINEGEN
 70
0
  9
$PSLTSCALE
 70
1
  9
$TREEDEPTH
 70
3020
  9
$CMLSTYLE
  2
Standard
  9
$CMLJUST
 70
0
  9
$CMLSCALE
 40
20.0
  9
$PROXYGRAPHICS
 70
1
  9
$MEASUREMENT
 70
1
  9
$CELWEIGHT
370
-1
  9
$ENDCAPS
280
0
  9
$JOINSTYLE
280
0
  9
$LWDISPLAY
290
0
  9
$INSUNITS
 70
4
  9
$HYPERLINKBASE
  1

  9
$STYLESHEET
  1

  9
$XEDIT
290
1
  9
$CEPSNTYPE
380
0
  9
$PSTYLEMODE
290
1
  9
$FINGERPRINTGUID
  2
{4528CC59-3F13-404B-BFD7-BF3A11CD34A5}
  9
$VERSIONGUID
  2
{2575F5F4-626B-4038-96E3-36BE07AC0128}
  9
$EXTNAMES
290
1
  9
$PSVPSCALE
 40
0.0
  9
$OLESTARTUP
290
0
  9
$SORTENTS
280
127
  9
$INDEXCTL
280
0
  9
$HIDETEXT
280
1
  9
$XCLIPFRAME
280
1
  9
$HALOGAP
280
0
  9
$OBSCOLOR
 70
257
  9
$OBSLTYPE
280
0
  9
$INTERSECTIONDISPLAY
280
0
  9
$INTERSECTIONCOLOR
 70
257
  9
$DIMASSOC
280
2
  9
$PROJECTNAME
  1

  9
$CAMERADISPLAY
290
0
  9
$LENSLENGTH
 40
50.0
  9
$CAMERAHEIGHT
 40
0.0
  9
$STEPSPERSEC
 40
24.0
  9
$STEPSIZE
 40
100.0
  9
$3DDWFPREC
 40
2.0
  9
$PSOLWIDTH
 40
0.005
  9
$PSOLHEIGHT
 40
0.08
  9
$LOFTANG1
 40
1.570796326795
  9
$LOFTANG2
 40
1.570796326795
  9
$LOFTMAG1
 40
0.0
  9
$LOFTMAG2
 40
0.0
  9
$LOFTPARAM
 70
7
  9
$LOFTNORMALS
280
1
  9
$LATITUDE
 40
37.795
  9
$LONGITUDE
 40
-122.394
  9
$NORTHDIRECTION
 40
0.0
  9
$TIMEZONE
 70
-8000
  9
$LIGHTGLYPHDISPLAY
280
1
  9
$TILEMODELIGHTSYNCH
280
1
  9
$CMATERIAL
347
20
  9
$SOLIDHIST
280
0
  9
$SHOWHIST
280
1
  9
$DWFFRAME
280
2
  9
$DGNFRAME
280
2
  9
$REALWORLDSCALE
290
1
  9
$INTERFERECOLOR
 62
256
  9
$CSHADOW
280
0
  9
$SHADOWPLANELOCATION
 40
0.0
  0
ENDSEC
  0
SECTION
  2
CLASSES
  0
CLASS
  1
ACDBDICTIONARYWDFLT
  2
AcDbDictionaryWithDefault
  3
ObjectDBX Classes
 90
0
 91
0
280
0
281
0
  0
CLASS
  1
SUN
  2
AcDbSun
  3
SCENEOE
 90
1153
 91
0
280
0
281
0
  0
CLASS
  1
VISUALSTYLE
  2
AcDbVisualStyle
  3
ObjectDBX Classes
 90
4095
 91
0
280
0
281
0
  0
CLASS
  1
MATERIAL
  2
AcDbMaterial
  3
ObjectDBX Classes
 90
1153
 91
0
280
0
281
0
  0
CLASS
  1
SCALE
  2
AcDbScale
  3
ObjectDBX Classes
 90
1153
 91
0
280
0
281
0
  0
CLASS
  1
TABLESTYLE
  2
AcDbTableStyle
  3
ObjectDBX Classes
 90
4095
 91
0
280
0
281
0
  0
CLASS
  1
MLEADERSTYLE
  2
AcDbMLeaderStyle
  3
ACDB_MLEADERSTYLE_CLASS
 90
4095
 91
0
280
0
281
0
  0
CLASS
  1
DICTIONARYVAR
  2
AcDbDictionaryVar
  3
ObjectDBX Classes
 90
0
 91
0
280
0
281
0
  0
CLASS
  1
CELLSTYLEMAP
  2
AcDbCellStyleMap
  3
ObjectDBX Classes
 90
1152
 91
0
280
0
281
0
  0
CLASS
  1
MENTALRAYRENDERSETTINGS
  2
AcDbMentalRayRenderSettings
  3
SCENEOE
 90
1024
 91
0
280
0
281
0
  0
CLASS
  1
ACDBDETAILVIEWSTYLE
  2
AcDbDetailViewStyle
  3
ObjectDBX Classes
 90
1025
 91
0
280
0
281
0
  0
CLASS
  1
ACDBSECTIONVIEWSTYLE
  2
AcDbSectionViewStyle
  3
ObjectDBX Classes
 90
1025
 91
0
280
0
281
0
  0
CLASS
  1
RASTERVARIABLES
  2
AcDbRasterVariables
  3
ISM
 90
0
 91
0
280
0
281
0
  0
CLASS
  1
ACDBPLACEHOLDER
  2
AcDbPlaceHolder
  3
ObjectDBX Classes
 90
0
 91
0
280
0
281
0
  0
CLASS
  1
LAYOUT
  2
AcDbLayout
  3
ObjectDBX Classes
 90
0
 91
0
280
0
281
0
  0
ENDSEC
  0
SECTION
  2
TABLES
  0
TABLE
  2
VPORT
  5
8
330
0
100
AcDbSymbolTable
 70
1
  0
VPORT
  5
23
330
8
100
AcDbSymbolTableRecord
100
AcDbViewportTableRecord
  2
*Active
 70
0
 10
0.0
 20
0.0
 11
1.0
 21
1.0
 12
0.0
 22
0.0
 13
0.0
 23
0.0
 14
0.5
 24
0.5
 15
0.5
 25
0.5
 16
0.0
 26
0.0
 36
1.0
 17
0.0
 27
0.0
 37
0.0
 40
1000.0
 41
1.34
 42
50.0
 43
0.0
 44
0.0
 50
0.0
 51
0.0
 71
0
 72
1000
 73
1
 74
3
 75
0
 76
0
 77
0
 78
0
281
0
 65
0
146
0.0
  0
ENDTAB
  0
TABLE
  2
LTYPE
  5
2
330
0
100
AcDbSymbolTable
 70
4
  0
LTYPE
  5
24
330
2
100
AcDbSymbolTableRecord
100
AcDbLinetypeTableRecord
  2
ByBlock
 70
0
  3

 72
65
 73
0
 40
0.0
  0
LTYPE
  5
25
330
2
100
AcDbSymbolTableRecord
100
AcDbLinetypeTableRecord
  2
ByLayer
 70
0
  3

 72
65
 73
0
 40
0.0
  0
LTYPE
  5
26
330
2
100
AcDbSymbolTableRecord
100
AcDbLinetypeTableRecord
  2
Continuous
 70
0
  3

 72
65
 73
0
 40
0.0
  0
LTYPE
  5
130
330
2
100
AcDbSymbolTableRecord
100
AcDbLinetypeTableRecord
  2
HIDDENX2
 70
0
  3
Hidden (2x) ____ ____ ____ ____ ____ ____ ____
 72
65
 73
2
 40
19.05
 49
12.7
 74
0
 49
-6.349999999999999
 74
0
  0
ENDTAB
  0
TABLE
  2
LAYER
  5
1
330
0
100
AcDbSymbolTable
 70
3
  0
LAYER
  5
27
330
1
100
AcDbSymbolTableRecord
100
AcDbLayerTableRecord
  2
0
 70
0
 62
7
  6
Continuous
370
-3
390
13
347
21
  0
LAYER
  5
28
330
1
100
AcDbSymbolTableRecord
100
AcDbLayerTableRecord
  2
Defpoints
 70
0
 62
7
  6
Continuous
290
0
370
-3
390
13
347
21
  0
LAYER
  5
12F
330
1
100
AcDbSymbolTableRecord
100
AcDbLayerTableRecord
  2
DIM
 70
0
 62
253
  6
Continuous
370
-3
390
13
347
21
  0
ENDTAB
  0
TABLE
  2
STYLE
  5
5
330
0
100
AcDbSymbolTable
 70
3
  0
STYLE
  5
29
330
5
100
AcDbSymbolTableRecord
100
AcDbTextStyleTableRecord
  2
Standard
 70
0
 40
0.0
 41
1.0
 50
0.0
 71
0
 42
2.5
  3
txt
  4

  0
STYLE
  5
131
330
5
100
AcDbSymbolTableRecord
100
AcDbTextStyleTableRecord
  2
Tahoma (Input Text)
 70
0
 40
0.0
 41
1.0
 50
0.0
 71
0
 42
25.0
  3
tahoma.ttf
  4

  0
STYLE
  5
132
330
5
100
AcDbSymbolTableRecord
100
AcDbTextStyleTableRecord
  2
Arial
 70
0
 40
0.0
 41
1.0
 50
0.0
 71
0
 42
0.2
  3
arial.ttf
  4

  0
ENDTAB
  0
TABLE
  2
VIEW
  5
7
330
0
100
AcDbSymbolTable
 70
0
  0
ENDTAB
  0
TABLE
  2
UCS
  5
6
330
0
100
AcDbSymbolTable
 70
0
  0
ENDTAB
  0
TABLE
  2
APPID
  5
3
330
0
100
AcDbSymbolTable
 70
3
  0
APPID
  5
2A
330
3
100
AcDbSymbolTableRecord
100
AcDbRegAppTableRecord
  2
ACAD
 70
0
  0
APPID
  5
133
330
3
100
AcDbSymbolTableRecord
100
AcDbRegAppTableRecord
  2
HATCHBACKGROUNDCOLOR
 70
0
  0
APPID
  5
134
330
3
100
AcDbSymbolTableRecord
100
AcDbRegAppTableRecord
  2
EZDXF
 70
0
  0
ENDTAB
  0
TABLE
  2
DIMSTYLE
  5
4
330
0
100
AcDbSymbolTable
 70
2
100
AcDbDimStyleTable
  0
DIMSTYLE
105
2B
330
4
100
AcDbSymbolTableRecord
100
AcDbDimStyleTableRecord
  2
Standard
 70
0
 40
1.0
 41
2.5
 42
0.625
 43
3.75
 44
1.25
 45
0.0
 46
0.0
 47
0.0
 48
0.0
 49
2.5
140
2.5
141
2.5
142
0.0
143
0.03937007874
144
1.0
145
0.0
146
1.0
147
0.625
148
0.0
 69
0
 70
0
 71
0
 72
0
 73
0
 74
0
 75
0
 76
0
 77
1
 78
8
 79
3
170
0
171
3
172
1
173
0
174
0
175
0
176
0
177
0
178
0
179
2
271
2
272
2
273
2
274
3
275
0
276
0
277
2
278
44
279
0
280
0
281
0
282
0
283
0
284
8
285
0
286
0
288
0
289
3
290
0
371
-2
372
-2
  0
DIMSTYLE
105
12E
330
4
100
AcDbSymbolTableRecord
100
AcDbDimStyleTableRecord
  2
Dim-25
 70
0
 40
1.0
 41
8.0
 42
15.0
 43
3.75
 44
10.0
 45
0.0
 46
0.0
 47
0.0
 48
0.0
 49
2.5
140
25.0
141
10.0
142
0.0
143
0.03937007874016
144
1.0
145
0.0
146
1.0
147
10.0
148
0.0
 69
0
 70
0
 71
0
 72
0
 73
0
 74
0
 75
0
 76
0
 77
1
 78
8
 79
3
170
0
171
3
172
1
173
0
174
0
175
0
176
5
177
5
178
3
179
2
271
0
272
0
273
2
274
3
275
0
276
0
277
2
278
44
279
0
280
0
281
0
282
0
283
0
284
8
285
0
286
0
288
0
289
3
290
0
340
29
341
33
342
33
345
25
346
25
347
25
371
9
372
9
  0
ENDTAB
  0
TABLE
  2
BLOCK_RECORD
  5
9
330
0
100
AcDbSymbolTable
 70
16
  0
BLOCK_RECORD
  5
17
330
9
100
AcDbSymbolTableRecord
100
AcDbBlockTableRecord
  2
*Model_Space
340
1A
 70
0
280
1
281
0
  0
BLOCK_RECORD
  5
1B
330
9
100
AcDbSymbolTableRecord
100
AcDbBlockTableRecord
  2
*Paper_Space
340
1E
 70
0
280
1
281
0
  0
BLOCK_RECORD
  5
33
330
9
100
AcDbSymbolTableRecord
100
AcDbBlockTableRecord
  2
_Oblique
340
0
 70
0
280
1
281
0
  0
BLOCK_RECORD
  5
AD
330
9
100
AcDbSymbolTableRecord
100
AcDbBlockTableRecord
  2
HL035-1-2
340
0
 70
0
280
1
281
0
  0
BLOCK_RECORD
  5
10A
330
9
100
AcDbSymbolTableRecord
100
AcDbBlockTableRecord
  2
khungtenAsean2
340
0
 70
0
280
1
281
0
  0
BLOCK_RECORD
  5
139
330
9
100
AcDbSymbolTableRecord
100
AcDbBlockTableRecord
  2
*D1
340
0
 70
0
280
1
281
0
  0
BLOCK_RECORD
  5
145
330
9
100
AcDbSymbolTableRecord
100
AcDbBlockTableRecord
  2
*D2
340
0
 70
0
280
1
281
0
  0
BLOCK_RECORD
  5
151
330
9
100
AcDbSymbolTableRecord
100
AcDbBlockTableRecord
  2
*D3
340
0
 70
0
280
1
281
0
  0
BLOCK_RECORD
  5
15D
330
9
100
AcDbSymbolTableRecord
100
AcDbBlockTableRecord
  2
*D4
340
0
 70
0
280
1
281
0
  0
BLOCK_RECORD
  5
169
330
9
100
AcDbSymbolTableRecord
100
AcDbBlockTableRecord
  2
*D5
340
0
 70
0
280
1
281
0
  0
BLOCK_RECORD
  5
175
330
9
100
AcDbSymbolTableRecord
100
AcDbBlockTableRecord
  2
*D6
340
0
 70
0
280
1
281
0
  0
BLOCK_RECORD
  5
181
330
9
100
AcDbSymbolTableRecord
100
AcDbBlockTableRecord
  2
*D7
340
0
 70
0
280
1
281
0
  0
BLOCK_RECORD
  5
18D
330
9
100
AcDbSymbolTableRecord
100
AcDbBlockTableRecord
  2
*D8
340
0
 70
0
280
1
281
0
  0
BLOCK_RECORD
  5
199
330
9
100
AcDbSymbolTableRecord
100
AcDbBlockTableRecord
  2
*D9
340
0
 70
0
280
1
281
0
  0
BLOCK_RECORD
  5
1A5
330
9
100
AcDbSymbolTableRecord
100
AcDbBlockTableRecord
  2
*D10
340
0
 70
0
280
1
281
0
  0
BLOCK_RECORD
  5
1B1
330
9
100
AcDbSymbolTableRecord
100
AcDbBlockTableRecord
  2
*D11
340
0
 70
0
280
1
281
0
  0
ENDTAB
  0
ENDSEC
  0
SECTION
  2
BLOCKS
  0
BLOCK
  5
18
330
17
100
AcDbEntity
  8
0
100
AcDbBlockBegin
  2
*Model_Space
 70
0
 10
0.0
 20
0.0
 30
0.0
  3
*Model_Space
  1

  0
ENDBLK
  5
19
330
17
100
AcDbEntity
  8
0
100
AcDbBlockEnd
  0
BLOCK
  5
1C
330
1B
100
AcDbEntity
  8
0
100
AcDbBlockBegin
  2
*Paper_Space
 70
0
 10
0.0
 20
0.0
 30
0.0
  3
*Paper_Space
  1

  0
ENDBLK
  5
1D
330
1B
100
AcDbEntity
  8
0
100
AcDbBlockEnd
  0
BLOCK
  5
34
330
33
100
AcDbEntity
  8
0
100
AcDbBlockBegin
  2
_Oblique
 70
0
 10
0.0
 20
0.0
 30
0.0
  3
_Oblique
  1

  0
LINE
  5
36
330
33
100
AcDbEntity
  8
0
  6
ByBlock
 62
0
370
-2
100
AcDbLine
 10
-0.5
 20
-0.5
 30
0.0
 11
0.5
 21
0.5
 31
0.0
  0
ENDBLK
  5
35
330
33
100
AcDbEntity
  8
0
100
AcDbBlockEnd
  0
BLOCK
  5
AE
330
AD
100
AcDbEntity
  8
0
100
AcDbBlockBegin
  2
HL035-1-2
 70
0
 10
0.0
 20
0.0
 30
0.0
  3
HL035-1-2
  1

  0
LINE
  5
B0
330
AD
100
AcDbEntity
  8
0
 62
1
100
AcDbLine
 10
-4.5
 20
79.0
 30
0.0
 11
18.5
 21
79.0
 31
0.0
  0
LINE
  5
B1
330
AD
100
AcDbEntity
  8
0
 62
1
100
AcDbLine
 10
18.5
 20
79.0
 30
0.0
 11
18.5
 21
17.0
 31
0.0
  0
LINE
  5
B2
330
AD
100
AcDbEntity
  8
0
 62
1
100
AcDbLine
 10
18.5
 20
17.0
 30
0.0
 11
-4.5
 21
17.0
 31
0.0
  0
LINE
  5
B3
330
AD
100
AcDbEntity
  8
0
 62
1
100
AcDbLine
 10
-4.5
 20
17.0
 30
0.0
 11
-4.5
 21
31.00000000000728
 31
0.0
  0
LINE
  5
B4
330
AD
100
AcDbEntity
  8
0
 62
1
100
AcDbLine
 10
-4.5
 20
65.0
 30
0.0
 11
-4.5
 21
79.0
 31
0.0
  0
LINE
  5
B5
330
AD
100
AcDbEntity
  8
0
 62
1
100
AcDbLine
 10
4.5
 20
17.0
 30
0.0
 11
4.5
 21
31.00000000000728
 31
0.0
  0
LINE
  5
B6
330
AD
100
AcDbEntity
  8
0
 62
1
100
AcDbLine
 10
4.5
 20
65.0
 30
0.0
 11
4.5
 21
79.0
 31
0.0
  0
LINE
  5
B7
330
AD
100
AcDbEntity
  8
0
 62
1
100
AcDbLine
 10
-4.5
 20
65.0
 30
0.0
 11
4.5
 21
65.0
 31
0.0
  0
LINE
  5
B8
330
AD
100
AcDbEntity
  8
0
 62
1
100
AcDbLine
 10
-4.5
 20
31.00000000000728
 30
0.0
 11
4.5
 21
31.00000000000728
 31
0.0
  0
LINE
  5
B9
330
AD
100
AcDbEntity
  8
0
 62
1
100
AcDbLine
 10
4.5
 20
65.0
 30
0.0
 11
4.5
 21
31.00000000000728
 31
0.0
  0
LWPOLYLINE
  5
BA
330
AD
100
AcDbEntity
  8
0
 62
1
100
AcDbPolyline
 90
2
 70
0
 10
2.0
 20
0.0
 10
-1.999999999985448
 20
0.0
  0
LWPOLYLINE
  5
BB
330
AD
100
AcDbEntity
  8
0
 62
1
100
AcDbPolyline
 90
2
 70
0
 10
-3.0
 20
3.000000000087311
 10
-3.0
 20
17.0
  0
LWPOLYLINE
  5
BC
330
AD
100
AcDbEntity
  8
0
 62
1
100
AcDbPolyline
 90
2
 70
0
 10
-3.0
 20
32.50000000000728
 10
-3.0
 20
65.0
  0
LWPOLYLINE
  5
BD
330
AD
100
AcDbEntity
  8
0
 62
1
100
AcDbPolyline
 90
2
 70
0
 10
3.0
 20
65.0
 10
3.0
 20
32.50000000000728
  0
LWPOLYLINE
  5
BE
330
AD
100
AcDbEntity
  8
0
 62
1
100
AcDbPolyline
 90
2
 70
0
 10
3.0
 20
17.0
 10
3.0
 20
3.0
  0
LINE
  5
BF
330
AD
100
AcDbEntity
  8
0
 62
1
100
AcDbLine
 10
3.0
 20
3.0
 30
0.0
 11
2.0
 21
0.0
 31
0.0
  0
LINE
  5
C0
330
AD
100
AcDbEntity
  8
0
 62
1
100
AcDbLine
 10
-2.999999999985448
 20
3.0
 30
0.0
 11
-1.999999999985448
 21
0.0
 31
0.0
  0
LINE
  5
C1
330
AD
100
AcDbEntity
  8
0
 62
1
100
AcDbLine
 10
-3.0
 20
79.0
 30
0.0
 11
-3.0
 21
78.99999999999272
 31
0.0
  0
LINE
  5
C2
330
AD
100
AcDbEntity
  8
0
 62
1
100
AcDbLine
 10
3.0
 20
79.0
 30
0.0
 11
3.0
 21
79.99999999999272
 31
0.0
  0
LINE
  5
C3
330
AD
100
AcDbEntity
  8
0
 62
1
100
AcDbLine
 10
-3.0
 20
79.0
 30
0.0
 11
-3.0
 21
79.99999999999272
 31
0.0
  0
LINE
  5
C4
330
AD
100
AcDbEntity
  8
0
 62
1
100
AcDbLine
 10
5.000000000014551
 20
81.99999999999272
 30
0.0
 11
17.00000000001455
 21
82.0
 31
0.0
  0
ARC
  5
C5
330
AD
100
AcDbEntity
  8
0
 62
1
100
AcDbCircle
 10
5.000000000014551
 20
79.99999999999272
 30
0.0
 40
2.0
100
AcDbArc
 50
90.0
 51
180.0
  0
ARC
  5
C6
330
AD
100
AcDbEntity
  8
0
 62
1
100
AcDbCircle
 10
5.000000000014551
 20
79.99999999999272
 30
0.0
 40
8.000000000000002
100
AcDbArc
 50
90.0
 51
180.0
  0
LINE
  5
C7
330
AD
100
AcDbEntity
  8
0
 62
1
100
AcDbLine
 10
5.000000000014551
 20
88.0
 30
0.0
 11
17.00000000001455
 21
88.0
 31
0.0
  0
LINE
  5
C8
330
AD
100
AcDbEntity
  8
0
 62
1
100
AcDbLine
 10
17.00000000001455
 20
88.0
 30
0.0
 11
17.00000000001455
 21
82.0
 31
0.0
  0
LWPOLYLINE
  5
C9
330
AD
100
AcDbEntity
  8
0
 62
1
100
AcDbPolyline
 90
4
 70
1
 10
-4.0
 20
32.50000000000728
 10
4.0
 20
32.50000000000728
 10
4.0
 20
31.00000000000728
 10
-4.0
 20
31.00000000000728
  0
LINE
  5
CA
330
AD
100
AcDbEntity
  8
0
 62
1
100
AcDbLine
 10
4.0
 20
34.00000000000728
 30
0.0
 11
-4.0
 21
32.50000000000728
 31
0.0
  0
LINE
  5
CB
330
AD
100
AcDbEntity
  8
0
 62
1
100
AcDbLine
 10
4.0
 20
35.50000000000728
 30
0.0
 11
-4.0
 21
34.00000000000728
 31
0.0
  0
LINE
  5
CC
330
AD
100
AcDbEntity
  8
0
 62
1
100
AcDbLine
 10
4.0
 20
37.00000000000728
 30
0.0
 11
-4.0
 21
35.50000000000728
 31
0.0
  0
LINE
  5
CD
330
AD
100
AcDbEntity
  8
0
 62
1
100
AcDbLine
 10
4.0
 20
38.50000000000728
 30
0.0
 11
-4.0
 21
37.00000000000728
 31
0.0
  0
LINE
  5
CE
330
AD
100
AcDbEntity
  8
0
 62
1
100
AcDbLine
 10
4.0
 20
40.00000000000727
 30
0.0
 11
-4.0
 21
38.50000000000728
 31
0.0
  0
LINE
  5
CF
330
AD
100
AcDbEntity
  8
0
 62
1
100
AcDbLine
 10
4.0
 20
41.50000000000727
 30
0.0
 11
-4.0
 21
40.00000000000727
 31
0.0
  0
LINE
  5
D0
330
AD
100
AcDbEntity
  8
0
 62
1
100
AcDbLine
 10
4.0
 20
43.00000000000728
 30
0.0
 11
-4.0
 21
41.50000000000727
 31
0.0
  0
LINE
  5
D1
330
AD
100
AcDbEntity
  8
0
 62
1
100
AcDbLine
 10
4.0
 20
44.50000000000727
 30
0.0
 11
-4.0
 21
43.00000000000728
 31
0.0
  0
LINE
  5
D2
330
AD
100
AcDbEntity
  8
0
 62
1
100
AcDbLine
 10
4.0
 20
46.00000000000727
 30
0.0
 11
-4.0
 21
44.50000000000727
 31
0.0
  0
LINE
  5
D3
330
AD
100
AcDbEntity
  8
0
 62
1
100
AcDbLine
 10
4.0
 20
47.50000000000727
 30
0.0
 11
-4.0
 21
46.00000000000727
 31
0.0
  0
LINE
  5
D4
330
AD
100
AcDbEntity
  8
0
 62
1
100
AcDbLine
 10
4.0
 20
49.00000000000727
 30
0.0
 11
-4.0
 21
47.50000000000727
 31
0.0
  0
LINE
  5
D5
330
AD
100
AcDbEntity
  8
0
 62
1
100
AcDbLine
 10
4.0
 20
50.50000000000728
 30
0.0
 11
-4.0
 21
49.00000000000727
 31
0.0
  0
LINE
  5
D6
330
AD
100
AcDbEntity
  8
0
 62
1
100
AcDbLine
 10
4.0
 20
52.00000000000727
 30
0.0
 11
-4.0
 21
50.50000000000728
 31
0.0
  0
LINE
  5
D7
330
AD
100
AcDbEntity
  8
0
 62
1
100
AcDbLine
 10
4.0
 20
53.50000000000727
 30
0.0
 11
-4.0
 21
52.00000000000727
 31
0.0
  0
LINE
  5
D8
330
AD
100
AcDbEntity
  8
0
 62
1
100
AcDbLine
 10
4.0
 20
55.00000000000728
 30
0.0
 11
-4.0
 21
53.50000000000727
 31
0.0
  0
LINE
  5
D9
330
AD
100
AcDbEntity
  8
0
 62
1
100
AcDbLine
 10
4.0
 20
56.50000000000727
 30
0.0
 11
-4.0
 21
55.00000000000728
 31
0.0
  0
LINE
  5
DA
330
AD
100
AcDbEntity
  8
0
 62
1
100
AcDbLine
 10
4.0
 20
58.00000000000728
 30
0.0
 11
-4.0
 21
56.50000000000727
 31
0.0
  0
LINE
  5
DB
330
AD
100
AcDbEntity
  8
0
 62
1
100
AcDbLine
 10
4.0
 20
59.50000000000727
 30
0.0
 11
-4.0
 21
58.00000000000728
 31
0.0
  0
LINE
  5
DC
330
AD
100
AcDbEntity
  8
0
 62
1
100
AcDbLine
 10
4.0
 20
61.00000000000727
 30
0.0
 11
-4.0
 21
59.50000000000727
 31
0.0
  0
LINE
  5
DD
330
AD
100
AcDbEntity
  8
0
 62
1
100
AcDbLine
 10
4.0
 20
62.50000000000728
 30
0.0
 11
-4.0
 21
61.00000000000727
 31
0.0
  0
LINE
  5
DE
330
AD
100
AcDbEntity
  8
0
 62
1
100
AcDbLine
 10
4.0
 20
64.00000000000728
 30
0.0
 11
-4.0
 21
62.50000000000728
 31
0.0
  0
LINE
  5
DF
330
AD
100
AcDbEntity
  8
0
 62
1
100
AcDbLine
 10
1.33333333331393
 20
65.0
 30
0.0
 11
-4.0
 21
64.00000000000728
 31
0.0
  0
LINE
  5
E0
330
AD
100
AcDbEntity
  8
0
 62
1
100
AcDbLine
 10
-4.0
 20
34.00000000000728
 30
0.0
 11
-3.0
 21
34.00000000000728
 31
0.0
  0
LINE
  5
E1
330
AD
100
AcDbEntity
  8
0
 62
1
100
AcDbLine
 10
3.0
 20
34.00000000000728
 30
0.0
 11
4.0
 21
34.00000000000728
 31
0.0
  0
LINE
  5
E2
330
AD
100
AcDbEntity
  8
0
 62
1
100
AcDbLine
 10
-4.0
 20
35.50000000000728
 30
0.0
 11
-3.0
 21
35.50000000000728
 31
0.0
  0
LINE
  5
E3
330
AD
100
AcDbEntity
  8
0
 62
1
100
AcDbLine
 10
3.0
 20
35.50000000000728
 30
0.0
 11
4.0
 21
35.50000000000728
 31
0.0
  0
LINE
  5
E4
330
AD
100
AcDbEntity
  8
0
 62
1
100
AcDbLine
 10
-4.0
 20
37.00000000000728
 30
0.0
 11
-3.0
 21
37.00000000000728
 31
0.0
  0
LINE
  5
E5
330
AD
100
AcDbEntity
  8
0
 62
1
100
AcDbLine
 10
3.0
 20
37.00000000000728
 30
0.0
 11
4.0
 21
37.00000000000728
 31
0.0
  0
LINE
  5
E6
330
AD
100
AcDbEntity
  8
0
 62
1
100
AcDbLine
 10
-4.0
 20
38.50000000000728
 30
0.0
 11
-3.0
 21
38.50000000000728
 31
0.0
  0
LINE
  5
E7
330
AD
100
AcDbEntity
  8
0
 62
1
100
AcDbLine
 10
3.0
 20
38.50000000000728
 30
0.0
 11
4.0
 21
38.50000000000728
 31
0.0
  0
LINE
  5
E8
330
AD
100
AcDbEntity
  8
0
 62
1
100
AcDbLine
 10
-4.0
 20
40.00000000000727
 30
0.0
 11
-3.0
 21
40.00000000000727
 31
0.0
  0
LINE
  5
E9
330
AD
100
AcDbEntity
  8
0
 62
1
100
AcDbLine
 10
3.0
 20
40.00000000000727
 30
0.0
 11
4.0
 21
40.00000000000727
 31
0.0
  0
LINE
  5
EA
330
AD
100
AcDbEntity
  8
0
 62
1
100
AcDbLine
 10
-4.0
 20
41.50000000000727
 30
0.0
 11
-3.0
 21
41.50000000000727
 31
0.0
  0
LINE
  5
EB
330
AD
100
AcDbEntity
  8
0
 62
1
100
AcDbLine
 10
3.0
 20
41.50000000000727
 30
0.0
 11
4.0
 21
41.50000000000727
 31
0.0
  0
LINE
  5
EC
330
AD
100
AcDbEntity
  8
0
 62
1
100
AcDbLine
 10
-4.0
 20
43.00000000000728
 30
0.0
 11
-3.0
 21
43.00000000000728
 31
0.0
  0
LINE
  5
ED
330
AD
100
AcDbEntity
  8
0
 62
1
100
AcDbLine
 10
3.0
 20
43.00000000000728
 30
0.0
 11
4.0
 21
43.00000000000728
 31
0.0
  0
LINE
  5
EE
330
AD
100
AcDbEntity
  8
0
 62
1
100
AcDbLine
 10
-4.0
 20
44.50000000000727
 30
0.0
 11
-3.0
 21
44.50000000000727
 31
0.0
  0
LINE
  5
EF
330
AD
100
AcDbEntity
  8
0
 62
1
100
AcDbLine
 10
3.0
 20
44.50000000000727
 30
0.0
 11
4.0
 21
44.50000000000727
 31
0.0
  0
LINE
  5
F0
330
AD
100
AcDbEntity
  8
0
 62
1
100
AcDbLine
 10
-4.0
 20
46.00000000000727
 30
0.0
 11
-3.0
 21
46.00000000000727
 31
0.0
  0
LINE
  5
F1
330
AD
100
AcDbEntity
  8
0
 62
1
100
AcDbLine
 10
3.0
 20
46.00000000000727
 30
0.0
 11
4.0
 21
46.00000000000727
 31
0.0
  0
LINE
  5
F2
330
AD
100
AcDbEntity
  8
0
 62
1
100
AcDbLine
 10
-4.0
 20
47.50000000000727
 30
0.0
 11
-3.0
 21
47.50000000000727
 31
0.0
  0
LINE
  5
F3
330
AD
100
AcDbEntity
  8
0
 62
1
100
AcDbLine
 10
3.0
 20
47.50000000000727
 30
0.0
 11
4.0
 21
47.50000000000727
 31
0.0
  0
LINE
  5
F4
330
AD
100
AcDbEntity
  8
0
 62
1
100
AcDbLine
 10
-4.0
 20
49.00000000000727
 30
0.0
 11
-3.0
 21
49.00000000000727
 31
0.0
  0
LINE
  5
F5
330
AD
100
AcDbEntity
  8
0
 62
1
100
AcDbLine
 10
3.0
 20
49.00000000000727
 30
0.0
 11
4.0
 21
49.00000000000727
 31
0.0
  0
LINE
  5
F6
330
AD
100
AcDbEntity
  8
0
 62
1
100
AcDbLine
 10
-4.0
 20
50.50000000000728
 30
0.0
 11
-3.0
 21
50.50000000000728
 31
0.0
  0
LINE
  5
F7
330
AD
100
AcDbEntity
  8
0
 62
1
100
AcDbLine
 10
3.0
 20
50.50000000000728
 30
0.0
 11
4.0
 21
50.50000000000728
 31
0.0
  0
LINE
  5
F8
330
AD
100
AcDbEntity
  8
0
 62
1
100
AcDbLine
 10
-4.0
 20
52.00000000000727
 30
0.0
 11
-3.0
 21
52.00000000000727
 31
0.0
  0
LINE
  5
F9
330
AD
100
AcDbEntity
  8
0
 62
1
100
AcDbLine
 10
3.0
 20
52.00000000000727
 30
0.0
 11
4.0
 21
52.00000000000727
 31
0.0
  0
LINE
  5
FA
330
AD
100
AcDbEntity
  8
0
 62
1
100
AcDbLine
 10
-4.0
 20
53.50000000000727
 30
0.0
 11
-3.0
 21
53.50000000000727
 31
0.0
  0
LINE
  5
FB
330
AD
100
AcDbEntity
  8
0
 62
1
100
AcDbLine
 10
3.0
 20
53.50000000000727
 30
0.0
 11
4.0
 21
53.50000000000727
 31
0.0
  0
LINE
  5
FC
330
AD
100
AcDbEntity
  8
0
 62
1
100
AcDbLine
 10
-4.0
 20
55.00000000000728
 30
0.0
 11
-3.0
 21
55.00000000000728
 31
0.0
  0
LINE
  5
FD
330
AD
100
AcDbEntity
  8
0
 62
1
100
AcDbLine
 10
3.0
 20
55.00000000000728
 30
0.0
 11
4.0
 21
55.00000000000728
 31
0.0
  0
LINE
  5
FE
330
AD
100
AcDbEntity
  8
0
 62
1
100
AcDbLine
 10
-4.0
 20
56.50000000000727
 30
0.0
 11
-3.0
 21
56.50000000000727
 31
0.0
  0
LINE
  5
FF
330
AD
100
AcDbEntity
  8
0
 62
1
100
AcDbLine
 10
3.0
 20
56.50000000000727
 30
0.0
 11
4.0
 21
56.50000000000727
 31
0.0
  0
LINE
  5
100
330
AD
100
AcDbEntity
  8
0
 62
1
100
AcDbLine
 10
-4.0
 20
58.00000000000728
 30
0.0
 11
-3.0
 21
58.00000000000728
 31
0.0
  0
LINE
  5
101
330
AD
100
AcDbEntity
  8
0
 62
1
100
AcDbLine
 10
3.0
 20
58.00000000000728
 30
0.0
 11
4.0
 21
58.00000000000728
 31
0.0
  0
LINE
  5
102
330
AD
100
AcDbEntity
  8
0
 62
1
100
AcDbLine
 10
-4.0
 20
59.50000000000727
 30
0.0
 11
-3.0
 21
59.50000000000727
 31
0.0
  0
LINE
  5
103
330
AD
100
AcDbEntity
  8
0
 62
1
100
AcDbLine
 10
3.0
 20
59.50000000000727
 30
0.0
 11
4.0
 21
59.50000000000727
 31
0.0
  0
LINE
  5
104
330
AD
100
AcDbEntity
  8
0
 62
1
100
AcDbLine
 10
-4.0
 20
62.50000000000728
 30
0.0
 11
-3.0
 21
62.50000000000728
 31
0.0
  0
LINE
  5
105
330
AD
100
AcDbEntity
  8
0
 62
1
100
AcDbLine
 10
3.0
 20
62.50000000000728
 30
0.0
 11
4.0
 21
62.50000000000728
 31
0.0
  0
LINE
  5
106
330
AD
100
AcDbEntity
  8
0
 62
1
100
AcDbLine
 10
-4.0
 20
61.00000000000727
 30
0.0
 11
-3.0
 21
61.00000000000727
 31
0.0
  0
LINE
  5
107
330
AD
100
AcDbEntity
  8
0
 62
1
100
AcDbLine
 10
3.0
 20
61.00000000000727
 30
0.0
 11
4.0
 21
61.00000000000727
 31
0.0
  0
LINE
  5
108
330
AD
100
AcDbEntity
  8
0
 62
1
100
AcDbLine
 10
-4.0
 20
64.00000000000728
 30
0.0
 11
-3.0
 21
64.00000000000728
 31
0.0
  0
LINE
  5
109
330
AD
100
AcDbEntity
  8
0
 62
1
100
AcDbLine
 10
3.0
 20
64.00000000000728
 30
0.0
 11
4.0
 21
64.00000000000728
 31
0.0
  0
ENDBLK
  5
AF
330
AD
100
AcDbEntity
  8
0
100
AcDbBlockEnd
  0
BLOCK
  5
10B
330
10A
100
AcDbEntity
  8
0
100
AcDbBlockBegin
  2
khungtenAsean2
 70
2
 10
0.0
 20
0.0
 30
0.0
  3
khungtenAsean2
  1

  0
LWPOLYLINE
  5
10D
330
10A
100
AcDbEntity
  8
0
 62
7
100
AcDbPolyline
 90
4
 70
1
 10
0.0
 20
0.0
 10
2970.000000000422
 20
0.0
 10
2970.000000000422
 20
-2100.00000000032
 10
0.0
 20
-2100.00000000032
  0
LINE
  5
10E
330
10A
100
AcDbEntity
  8
0
 62
7
100
AcDbLine
 10
2020.0
 20
-2040.00000000032
 30
0.0
 11
0.0
 21
-2040.00000000032
 31
0.0
  0
LINE
  5
10F
330
10A
100
AcDbEntity
  8
0
 62
7
100
AcDbLine
 10
2970.000000000422
 20
-1980.00000000032
 30
0.0
 11
0.0
 21
-1980.00000000032
 31
0.0
  0
LINE
  5
110
330
10A
100
AcDbEntity
  8
0
 62
7
100
AcDbLine
 10
320.0
 20
-1980.00000000032
 30
0.0
 11
320.0
 21
-2100.00000000032
 31
0.0
  0
LINE
  5
111
330
10A
100
AcDbEntity
  8
0
 62
7
100
AcDbLine
 10
890.0
 20
-1980.00000000032
 30
0.0
 11
890.0
 21
-2100.00000000032
 31
0.0
  0
LINE
  5
112
330
10A
100
AcDbEntity
  8
0
 62
7
100
AcDbLine
 10
1680.0
 20
-1980.00000000032
 30
0.0
 11
1680.0
 21
-2100.00000000032
 31
0.0
  0
LINE
  5
113
330
10A
100
AcDbEntity
  8
0
 62
7
100
AcDbLine
 10
2020.0
 20
-1980.00000000032
 30
0.0
 11
2020.0
 21
-2100.00000000032
 31
0.0
  0
LINE
  5
114
330
10A
100
AcDbEntity
  8
0
 62
7
100
AcDbLine
 10
2860.000000000422
 20
-1980.00000000032
 30
0.0
 11
2860.000000000422
 21
-2100.00000000032
 31
0.0
  0
MTEXT
  5
115
330
10A
100
AcDbEntity
  8
0
 62
2
100
AcDbMText
 10
0.0
 20
-2010.00000000032
 30
0.0
 40
20.0
 41
917.6339389950801
 46
60.00000000000113
 71
4
 72
5
  1
  Thiết kế :
  7
Arial
  0
MTEXT
  5
116
330
10A
100
AcDbEntity
  8
0
 62
2
100
AcDbMText
 10
0.0
 20
-2070.00000000032
 30
0.0
 40
20.0
 41
917.6339389950801
 46
60.00000000000113
 71
4
 72
5
  1
  CNC :
  7
Arial
  0
MTEXT
  5
117
330
10A
100
AcDbEntity
  8
0
 62
2
100
AcDbMText
 10
320.0
 20
-2010.00000000032
 30
0.0
 40
20.0
 41
917.6339389950801
 46
60.00000000000113
 71
4
 72
5
  1
  Khách hàng :
  7
Arial
  0
MTEXT
  5
118
330
10A
100
AcDbEntity
  8
0
 62
2
100
AcDbMText
 10
320.0
 20
-2070.00000000032
 30
0.0
 40
20.0
 41
917.6339389950801
 46
60.00000000000113
 71
4
 72
5
  1
  Giao hàng :
  7
Arial
  0
MTEXT
  5
119
330
10A
100
AcDbEntity
  8
0
 62
2
100
AcDbMText
 10
890.0
 20
-2010.00000000032
 30
0.0
 40
20.0
 41
917.6339389950801
 46
60.00000000000113
 71
4
 72
5
  1
  Tên sản phẩm :
  7
Arial
  0
MTEXT
  5
11A
330
10A
100
AcDbEntity
  8
0
 62
2
100
AcDbMText
 10
890.0
 20
-2070.00000000032
 30
0.0
 40
20.0
 41
917.6339389950801
 46
60.00000000000113
 71
4
 72
5
  1
  Kích thước :
  7
Arial
  0
MTEXT
  5
11B
330
10A
100
AcDbEntity
  8
0
 62
2
100
AcDbMText
 10
1680.0
 20
-2010.00000000032
 30
0.0
 40
20.0
 41
917.6339389950801
 46
60.00000000000113
 71
4
 72
5
  1
  Số lượng :
  7
Arial
  0
MTEXT
  5
11C
330
10A
100
AcDbEntity
  8
0
 62
2
100
AcDbMText
 10
1680.0
 20
-2070.00000000032
 30
0.0
 40
20.0
 41
917.6339389950801
 46
60.00000000000113
 71
4
 72
5
  1
  Loại tôn :
  7
Arial
  0
MTEXT
  5
11D
330
10A
100
AcDbEntity
  8
0
 62
2
100
AcDbMText
 10
2074.15528161102
 20
-2040.00000000032
 30
0.0
 40
20.0
 41
108.3105632220314
 46
120.0000000000011
 71
5
 72
5
  1
Thông\Ptin :
  7
Arial
  0
MTEXT
  5
11E
330
10A
100
AcDbEntity
  8
0
 62
2
100
AcDbMText
 10
2915.000000000422
 20
-2010.00000000032
 30
0.0
 40
20.0
 41
110.0000000000065
 46
60.00000000000113
 71
5
 72
5
  1
Tờ
  7
Arial
  0
LINE
  5
11F
330
10A
100
AcDbEntity
  8
0
 62
7
100
AcDbLine
 10
2128.310563222025
 20
-2005.00000000032
 30
0.0
 11
2128.310563222025
 21
-2075.00000000032
 31
0.0
  0
MTEXT
  5
120
330
10A
100
AcDbEntity
  8
0
 62
2
100
AcDbMText
 10
1382.285678836575
 20
-2070.00000000032
 30
0.0
 40
20.0
 41
917.6339389950801
 46
60.00000000000113
 71
4
 72
5
  1
mm
  7
Arial
  0
MTEXT
  5
121
330
10A
100
AcDbEntity
  8
0
 62
2
100
AcDbMText
 10
1947.610064813329
 20
-2010.00000000032
 30
0.0
 40
20.0
 41
917.6339389950801
 46
60.00000000000113
 71
4
 72
5
  1
cái
  7
Arial
  0
MTEXT
  5
122
330
10A
100
AcDbEntity
  8
0
 62
2
100
AcDbMText
 10
1936.880410494836
 20
-2070.00000000032
 30
0.0
 40
20.0
 41
917.6339389950801
 46
60.00000000000113
 71
4
 72
5
  1
mm
  7
Arial
  0
ATTDEF
  5
123
330
10A
100
AcDbEntity
  8
0
 62
1
100
AcDbText
 10
2883.764212945627
 20
-2067.347800104843
 30
0.0
 40
25.0
  1
......
  7
Tahoma (Input Text)
 72
1
 11
2914.993225705868
 21
-2067.347800104843
 31
0.0
100
AcDbAttributeDefinition
  3
Số trang
  2
#11
 70
8
 71
1
 72
0
 11
2914.993225705868
 21
-2067.347800104843
 31
0.0
  0
ATTDEF
  5
124
330
10A
100
AcDbEntity
  8
0
 62
1
100
AcDbText
 10
2146.716977487464
 20
-2021.275211692002
 30
0.0
 40
25.0
  1
......
  7
Tahoma (Input Text)
100
AcDbAttributeDefinition
  3
Thông tin 1
  2
#09
 70
8
 71
1
 72
0
  0
ATTDEF
  5
125
330
10A
100
AcDbEntity
  8
0
 62
1
100
AcDbText
 10
2146.716977487464
 20
-2081.275211692002
 30
0.0
 40
25.0
  1
......
  7
Tahoma (Input Text)
100
AcDbAttributeDefinition
  3
Thông tin 2
  2
#10
 70
8
 71
1
 72
0
  0
ATTDEF
  5
126
330
10A
100
AcDbEntity
  8
0
 62
1
100
AcDbText
 10
1817.447765733334
 20
-2081.275211692002
 30
0.0
 40
25.0
  1
......
  7
Tahoma (Input Text)
100
AcDbAttributeDefinition
  3
Loại tôn
  2
#08
 70
8
 71
1
 72
0
  0
ATTDEF
  5
127
330
10A
100
AcDbEntity
  8
0
 62
1
100
AcDbText
 10
1834.68151032555
 20
-2021.275211692002
 30
0.0
 40
25.0
  1
......
  7
Tahoma (Input Text)
100
AcDbAttributeDefinition
  3
Số lượng
  2
#07
 70
8
 71
1
 72
0
  0
ATTDEF
  5
128
330
10A
100
AcDbEntity
  8
0
 62
1
100
AcDbText
 10
1065.330889143646
 20
-2081.275211692002
 30
0.0
 40
25.0
  1
......
  7
Tahoma (Input Text)
100
AcDbAttributeDefinition
  3
Kích thước
  2
#06
 70
8
 71
1
 72
0
  0
ATTDEF
  5
129
330
10A
100
AcDbEntity
  8
0
 62
1
100
AcDbText
 10
1106.628177122154
 20
-2021.275211692002
 30
0.0
 40
25.0
  1
......
  7
Tahoma (Input Text)
100
AcDbAttributeDefinition
  3
Tên s.phẩm
  2
#05
 70
8
 71
1
 72
0
  0
ATTDEF
  5
12A
330
10A
100
AcDbEntity
  8
0
 62
1
100
AcDbText
 10
486.1050270054984
 20
-2081.275211692002
 30
0.0
 40
25.0
  1
......
  7
Tahoma (Input Text)
100
AcDbAttributeDefinition
  3
Giao hàng
  2
#04
 70
8
 71
1
 72
0
  0
ATTDEF
  5
12B
330
10A
100
AcDbEntity
  8
0
 62
1
100
AcDbText
 10
506.5707489467022
 20
-2019.301600489707
 30
0.0
 40
25.0
  1
......
  7
Tahoma (Input Text)
100
AcDbAttributeDefinition
  3
Khách hàng
  2
#03
 70
8
 71
1
 72
0
  0
ATTDEF
  5
12C
330
10A
100
AcDbEntity
  8
0
 62
1
100
AcDbText
 10
98.45672450316488
 20
-2081.275211692002
 30
0.0
 40
25.0
  1
......
  7
Tahoma (Input Text)
100
AcDbAttributeDefinition
  3
CNC
  2
#02
 70
8
 71
1
 72
0
  0
ATTDEF
  5
12D
330
10A
100
AcDbEntity
  8
0
 62
1
100
AcDbText
 10
137.0535078375105
 20
-2021.275211692002
 30
0.0
 40
25.0
  1
......
  7
Tahoma (Input Text)
100
AcDbAttributeDefinition
  3
Thiết kế
  2
#01
 70
8
 71
1
 72
0
  0
ENDBLK
  5
10C
330
10A
100
AcDbEntity
  8
0
100
AcDbBlockEnd
  0
BLOCK
  5
13A
330
139
100
AcDbEntity
  8
0
100
AcDbBlockBegin
  2
*D1
 70
1
 10
0.0
 20
0.0
 30
0.0
  3
*D1
  1

  0
LINE
  5
13C
330
139
100
AcDbEntity
  8
DIM
 62
5
370
9
440
16777216
100
AcDbLine
 10
1580.2857088533601
 20
601.4024306076099
 30
0.0
 11
1526.3085199443994
 21
601.4024306076099
 31
0.0
  0
LINE
  5
13D
330
139
100
AcDbEntity
  8
DIM
 62
5
370
9
440
16777216
100
AcDbLine
 10
1591.2857088533601
 20
2051.40243060761
 30
0.0
 11
1526.3085199443994
 21
2051.40243060761
 31
0.0
  0
LINE
  5
13E
330
139
100
AcDbEntity
  8
DIM
 62
5
370
9
440
16777216
100
AcDbLine
 10
1536.3085199443994
 20
601.4024306076099
 30
0.0
 11
1536.3085199443994
 21
2051.40243060761
 31
0.0
  0
LINE
  5
13F
330
139
100
AcDbEntity
  8
0
  6
ByBlock
 62
0
370
-2
100
AcDbLine
 10
1532.3085199443994
 20
605.4024306076099
 30
0.0
 11
1540.3085199443994
 21
597.4024306076099
 31
0.0
  0
LINE
  5
140
330
139
100
AcDbEntity
  8
0
  6
ByBlock
 62
0
370
-2
100
AcDbLine
 10
1540.3085199443994
 20
2047.4024306076099
 30
0.0
 11
1532.3085199443994
 21
2055.40243060761
 31
0.0
  0
MTEXT
  5
141
330
139
100
AcDbEntity
  8
DIM
 62
3
440
16777216
100
AcDbMText
 10
1513.5441952513502
 20
1326.4024306076171
 30
0.0
 40
25.0
 41
0.0
 46
0.0
 71
5
  1
1450
 11
1e-16
 21
1.0
 31
0.0
  0
POINT
  5
142
330
139
100
AcDbEntity
  8
Defpoints
 62
0
440
16777216
100
AcDbPoint
 10
1595.2857088533601
 20
601.4024306076099
 30
0.0
  0
POINT
  5
143
330
139
100
AcDbEntity
  8
Defpoints
 62
0
440
16777216
100
AcDbPoint
 10
1606.2857088533601
 20
2051.40243060761
 30
0.0
  0
POINT
  5
144
330
139
100
AcDbEntity
  8
Defpoints
 62
0
440
16777216
100
AcDbPoint
 10
1536.3085199443994
 20
2051.40243060761
 30
0.0
  0
ENDBLK
  5
13B
330
139
100
AcDbEntity
  8
0
100
AcDbBlockEnd
  0
BLOCK
  5
146
330
145
100
AcDbEntity
  8
0
100
AcDbBlockBegin
  2
*D2
 70
1
 10
0.0
 20
0.0
 30
0.0
  3
*D2
  1

  0
LINE
  5
148
330
145
100
AcDbEntity
  8
DIM
 62
5
370
9
440
16777216
100
AcDbLine
 10
650.9699304074511
 20
2066.4024306076244
 30
0.0
 11
650.9699304074511
 21
2116.207283744894
 31
0.0
  0
LINE
  5
149
330
145
100
AcDbEntity
  8
DIM
 62
5
370
9
440
16777216
100
AcDbLine
 10
1200.969930407451
 20
2066.4024306076244
 30
0.0
 11
1200.969930407451
 21
2116.207283744894
 31
0.0
  0
LINE
  5
14A
330
145
100
AcDbEntity
  8
DIM
 62
5
370
9
440
16777216
100
AcDbLine
 10
650.9699304074511
 20
2106.207283744894
 30
0.0
 11
1200.969930407451
 21
2106.207283744894
 31
0.0
  0
LINE
  5
14B
330
145
100
AcDbEntity
  8
0
  6
ByBlock
 62
0
370
-2
100
AcDbLine
 10
654.9699304074511
 20
2110.207283744894
 30
0.0
 11
646.9699304074511
 21
2102.207283744894
 31
0.0
  0
LINE
  5
14C
330
145
100
AcDbEntity
  8
0
  6
ByBlock
 62
0
370
-2
100
AcDbLine
 10
1196.969930407451
 20
2102.207283744894
 30
0.0
 11
1204.969930407451
 21
2110.207283744894
 31
0.0
  0
MTEXT
  5
14D
330
145
100
AcDbEntity
  8
DIM
 62
3
440
16777216
100
AcDbMText
 10
925.9699304074511
 20
2128.971608437947
 30
0.0
 40
25.0
 41
0.0
 46
0.0
 71
5
  1
550
  0
POINT
  5
14E
330
145
100
AcDbEntity
  8
Defpoints
 62
0
440
16777216
100
AcDbPoint
 10
650.9699304074511
 20
2051.4024306076244
 30
0.0
  0
POINT
  5
14F
330
145
100
AcDbEntity
  8
Defpoints
 62
0
440
16777216
100
AcDbPoint
 10
1200.969930407451
 20
2051.4024306076244
 30
0.0
  0
POINT
  5
150
330
145
100
AcDbEntity
  8
Defpoints
 62
0
440
16777216
100
AcDbPoint
 10
1200.969930407451
 20
2106.207283744894
 30
0.0
  0
ENDBLK
  5
147
330
145
100
AcDbEntity
  8
0
100
AcDbBlockEnd
  0
BLOCK
  5
152
330
151
100
AcDbEntity
  8
0
100
AcDbBlockBegin
  2
*D3
 70
1
 10
0.0
 20
0.0
 30
0.0
  3
*D3
  1

  0
LINE
  5
154
330
151
100
AcDbEntity
  8
DIM
 62
5
370
9
440
16777216
100
AcDbLine
 10
635.9699304074402
 20
2051.40243060761
 30
0.0
 11
502.1073020888998
 21
2051.40243060761
 31
0.0
  0
LINE
  5
155
330
151
100
AcDbEntity
  8
DIM
 62
5
370
9
440
16777216
100
AcDbLine
 10
635.9699304074402
 20
601.4024306076099
 30
0.0
 11
502.1073020888998
 21
601.4024306076099
 31
0.0
  0
LINE
  5
156
330
151
100
AcDbEntity
  8
DIM
 62
5
370
9
440
16777216
100
AcDbLine
 10
512.1073020888998
 20
2051.40243060761
 30
0.0
 11
512.1073020888998
 21
601.4024306076099
 31
0.0
  0
LINE
  5
157
330
151
100
AcDbEntity
  8
0
  6
ByBlock
 62
0
370
-2
100
AcDbLine
 10
516.1073020888998
 20
2047.4024306076099
 30
0.0
 11
508.1073020888998
 21
2055.40243060761
 31
0.0
  0
LINE
  5
158
330
151
100
AcDbEntity
  8
0
  6
ByBlock
 62
0
370
-2
100
AcDbLine
 10
508.1073020888998
 20
605.4024306076099
 30
0.0
 11
516.1073020888998
 21
597.4024306076099
 31
0.0
  0
MTEXT
  5
159
330
151
100
AcDbEntity
  8
DIM
 62
3
440
16777216
100
AcDbMText
 10
489.34297739585054
 20
1326.4024306076171
 30
0.0
 40
25.0
 41
0.0
 46
0.0
 71
5
  1
1450
 11
1e-16
 21
1.0
 31
0.0
  0
POINT
  5
15A
330
151
100
AcDbEntity
  8
Defpoints
 62
0
440
16777216
100
AcDbPoint
 10
650.9699304074402
 20
2051.40243060761
 30
0.0
  0
POINT
  5
15B
330
151
100
AcDbEntity
  8
Defpoints
 62
0
440
16777216
100
AcDbPoint
 10
650.9699304074402
 20
601.4024306076099
 30
0.0
  0
POINT
  5
15C
330
151
100
AcDbEntity
  8
Defpoints
 62
0
440
16777216
100
AcDbPoint
 10
512.1073020888998
 20
601.4024306076099
 30
0.0
  0
ENDBLK
  5
153
330
151
100
AcDbEntity
  8
0
100
AcDbBlockEnd
  0
BLOCK
  5
15E
330
15D
100
AcDbEntity
  8
0
100
AcDbBlockBegin
  2
*D4
 70
1
 10
0.0
 20
0.0
 30
0.0
  3
*D4
  1

  0
LINE
  5
160
330
15D
100
AcDbEntity
  8
DIM
 62
5
370
9
440
16777216
100
AcDbLine
 10
635.9699304074402
 20
483.2442606710538
 30
0.0
 11
566.74215704776
 21
483.2442606710538
 31
0.0
  0
LINE
  5
161
330
15D
100
AcDbEntity
  8
DIM
 62
5
370
9
440
16777216
100
AcDbLine
 10
635.9699304074402
 20
233.24426067105378
 30
0.0
 11
566.74215704776
 21
233.24426067105378
 31
0.0
  0
LINE
  5
162
330
15D
100
AcDbEntity
  8
DIM
 62
5
370
9
440
16777216
100
AcDbLine
 10
576.7421570477509
 20
483.2442606710538
 30
0.0
 11
576.7421570477509
 21
233.24426067105378
 31
0.0
  0
LINE
  5
163
330
15D
100
AcDbEntity
  8
0
  6
ByBlock
 62
0
370
-2
100
AcDbLine
 10
580.7421570477509
 20
479.2442606710538
 30
0.0
 11
572.7421570477509
 21
487.2442606710538
 31
0.0
  0
LINE
  5
164
330
15D
100
AcDbEntity
  8
0
  6
ByBlock
 62
0
370
-2
100
AcDbLine
 10
572.7421570477509
 20
237.24426067105378
 30
0.0
 11
580.7421570477509
 21
229.24426067105378
 31
0.0
  0
MTEXT
  5
165
330
15D
100
AcDbEntity
  8
DIM
 62
3
440
16777216
100
AcDbMText
 10
553.9778323546998
 20
358.24426067106833
 30
0.0
 40
25.0
 41
0.0
 46
0.0
 71
5
  1
250
 11
1e-16
 21
1.0
 31
0.0
  0
POINT
  5
166
330
15D
100
AcDbEntity
  8
Defpoints
 62
0
440
16777216
100
AcDbPoint
 10
650.9699304074402
 20
483.2442606710538
 30
0.0
  0
POINT
  5
167
330
15D
100
AcDbEntity
  8
Defpoints
 62
0
440
16777216
100
AcDbPoint
 10
650.9699304074402
 20
233.24426067105378
 30
0.0
  0
POINT
  5
168
330
15D
100
AcDbEntity
  8
Defpoints
 62
0
440
16777216
100
AcDbPoint
 10
576.7421570477509
 20
233.24426067105378
 30
0.0
  0
ENDBLK
  5
15F
330
15D
100
AcDbEntity
  8
0
100
AcDbBlockEnd
  0
BLOCK
  5
16A
330
169
100
AcDbEntity
  8
0
100
AcDbBlockBegin
  2
*D5
 70
1
 10
0.0
 20
0.0
 30
0.0
  3
*D5
  1

  0
LINE
  5
16C
330
169
100
AcDbEntity
  8
DIM
 62
5
370
9
440
16777216
100
AcDbLine
 10
1860.2857088533601
 20
2051.40243060761
 30
0.0
 11
1945.7706685335106
 21
2051.40243060761
 31
0.0
  0
LINE
  5
16D
330
169
100
AcDbEntity
  8
DIM
 62
5
370
9
440
16777216
100
AcDbLine
 10
1841.2857088533601
 20
1351.3498598384977
 30
0.0
 11
1945.7706685335106
 21
1351.3498598384977
 31
0.0
  0
LINE
  5
16E
330
169
100
AcDbEntity
  8
DIM
 62
5
370
9
440
16777216
100
AcDbLine
 10
1935.7706685335106
 20
2051.40243060761
 30
0.0
 11
1935.7706685335106
 21
1351.3498598384977
 31
0.0
  0
LINE
  5
16F
330
169
100
AcDbEntity
  8
0
  6
ByBlock
 62
0
370
-2
100
AcDbLine
 10
1939.7706685335106
 20
2047.4024306076099
 30
0.0
 11
1931.7706685335106
 21
2055.40243060761
 31
0.0
  0
LINE
  5
170
330
169
100
AcDbEntity
  8
0
  6
ByBlock
 62
0
370
-2
100
AcDbLine
 10
1931.7706685335106
 20
1355.3498598384977
 30
0.0
 11
1939.7706685335106
 21
1347.3498598384977
 31
0.0
  0
MTEXT
  5
171
330
169
100
AcDbEntity
  8
DIM
 62
3
440
16777216
100
AcDbMText
 10
1913.0063438404595
 20
1701.3761452230538
 30
0.0
 40
25.0
 41
0.0
 46
0.0
 71
5
  1
700
 11
1e-16
 21
1.0
 31
0.0
  0
POINT
  5
172
330
169
100
AcDbEntity
  8
Defpoints
 62
0
440
16777216
100
AcDbPoint
 10
1845.2857088533601
 20
2051.40243060761
 30
0.0
  0
POINT
  5
173
330
169
100
AcDbEntity
  8
Defpoints
 62
0
440
16777216
100
AcDbPoint
 10
1826.2857088533601
 20
1351.3498598384977
 30
0.0
  0
POINT
  5
174
330
169
100
AcDbEntity
  8
Defpoints
 62
0
440
16777216
100
AcDbPoint
 10
1935.7706685335106
 20
1351.3498598384977
 30
0.0
  0
ENDBLK
  5
16B
330
169
100
AcDbEntity
  8
0
100
AcDbBlockEnd
  0
BLOCK
  5
176
330
175
100
AcDbEntity
  8
0
100
AcDbBlockBegin
  2
*D6
 70
1
 10
0.0
 20
0.0
 30
0.0
  3
*D6
  1

  0
LINE
  5
178
330
175
100
AcDbEntity
  8
DIM
 62
5
370
9
440
16777216
100
AcDbLine
 10
1860.2857088533601
 20
2051.40243060761
 30
0.0
 11
1945.7706685335106
 21
2051.40243060761
 31
0.0
  0
LINE
  5
179
330
175
100
AcDbEntity
  8
DIM
 62
5
370
9
440
16777216
100
AcDbLine
 10
1841.2857088533601
 20
1351.3498598384977
 30
0.0
 11
1945.7706685335106
 21
1351.3498598384977
 31
0.0
  0
LINE
  5
17A
330
175
100
AcDbEntity
  8
DIM
 62
5
370
9
440
16777216
100
AcDbLine
 10
1935.7706685335106
 20
2051.40243060761
 30
0.0
 11
1935.7706685335106
 21
1351.3498598384977
 31
0.0
  0
LINE
  5
17B
330
175
100
AcDbEntity
  8
0
  6
ByBlock
 62
0
370
-2
100
AcDbLine
 10
1939.7706685335106
 20
2047.4024306076099
 30
0.0
 11
1931.7706685335106
 21
2055.40243060761
 31
0.0
  0
LINE
  5
17C
330
175
100
AcDbEntity
  8
0
  6
ByBlock
 62
0
370
-2
100
AcDbLine
 10
1931.7706685335106
 20
1355.3498598384977
 30
0.0
 11
1939.7706685335106
 21
1347.3498598384977
 31
0.0
  0
MTEXT
  5
17D
330
175
100
AcDbEntity
  8
DIM
 62
3
440
16777216
100
AcDbMText
 10
1913.0063438404595
 20
1701.3761452230538
 30
0.0
 40
25.0
 41
0.0
 46
0.0
 71
5
  1
700
 11
1e-16
 21
1.0
 31
0.0
  0
POINT
  5
17E
330
175
100
AcDbEntity
  8
Defpoints
 62
0
440
16777216
100
AcDbPoint
 10
1845.2857088533601
 20
2051.40243060761
 30
0.0
  0
POINT
  5
17F
330
175
100
AcDbEntity
  8
Defpoints
 62
0
440
16777216
100
AcDbPoint
 10
1826.2857088533601
 20
1351.3498598384977
 30
0.0
  0
POINT
  5
180
330
175
100
AcDbEntity
  8
Defpoints
 62
0
440
16777216
100
AcDbPoint
 10
1935.7706685335106
 20
1351.3498598384977
 30
0.0
  0
ENDBLK
  5
177
330
175
100
AcDbEntity
  8
0
100
AcDbBlockEnd
  0
BLOCK
  5
182
330
181
100
AcDbEntity
  8
0
100
AcDbBlockBegin
  2
*D7
 70
1
 10
0.0
 20
0.0
 30
0.0
  3
*D7
  1

  0
LINE
  5
184
330
181
100
AcDbEntity
  8
DIM
 62
5
370
9
 48
3.0
440
16777216
100
AcDbLine
 10
1595.285708853371
 20
2066.4024306076244
 30
0.0
 11
1595.285708853371
 21
2100.643536784366
 31
0.0
  0
LINE
  5
185
330
181
100
AcDbEntity
  8
DIM
 62
5
370
9
 48
3.0
440
16777216
100
AcDbLine
 10
1845.285708853371
 20
2066.4024306076244
 30
0.0
 11
1845.285708853371
 21
2100.643536784366
 31
0.0
  0
LINE
  5
186
330
181
100
AcDbEntity
  8
DIM
 62
5
370
9
 48
3.0
440
16777216
100
AcDbLine
 10
1595.285708853371
 20
2090.643536784366
 30
0.0
 11
1845.285708853371
 21
2090.643536784366
 31
0.0
  0
LINE
  5
187
330
181
100
AcDbEntity
  8
0
  6
ByBlock
 62
0
370
-2
100
AcDbLine
 10
1599.285708853371
 20
2094.643536784366
 30
0.0
 11
1591.285708853371
 21
2086.643536784366
 31
0.0
  0
LINE
  5
188
330
181
100
AcDbEntity
  8
0
  6
ByBlock
 62
0
370
-2
100
AcDbLine
 10
1841.285708853371
 20
2086.643536784366
 30
0.0
 11
1849.285708853371
 21
2094.643536784366
 31
0.0
  0
MTEXT
  5
189
330
181
100
AcDbEntity
  8
DIM
 62
3
 48
3.0
440
16777216
100
AcDbMText
 10
1720.285708853371
 20
2113.4078614774044
 30
0.0
 40
25.0
 41
0.0
 46
0.0
 71
5
  1
250
  0
POINT
  5
18A
330
181
100
AcDbEntity
  8
Defpoints
 62
0
 48
3.0
440
16777216
100
AcDbPoint
 10
1595.285708853371
 20
2051.4024306076244
 30
0.0
  0
POINT
  5
18B
330
181
100
AcDbEntity
  8
Defpoints
 62
0
 48
3.0
440
16777216
100
AcDbPoint
 10
1845.285708853371
 20
2051.4024306076244
 30
0.0
  0
POINT
  5
18C
330
181
100
AcDbEntity
  8
Defpoints
 62
0
 48
3.0
440
16777216
100
AcDbPoint
 10
1845.285708853371
 20
2090.643536784366
 30
0.0
  0
ENDBLK
  5
183
330
181
100
AcDbEntity
  8
0
100
AcDbBlockEnd
  0
BLOCK
  5
18E
330
18D
100
AcDbEntity
  8
0
100
AcDbBlockBegin
  2
*D8
 70
1
 10
0.0
 20
0.0
 30
0.0
  3
*D8
  1

  0
LINE
  5
190
330
18D
100
AcDbEntity
  8
DIM
 62
5
370
9
 48
3.0
440
16777216
100
AcDbLine
 10
908.52120477262
 20
1846.9024306076171
 30
0.0
 11
945.1159262973197
 21
1846.9024306076171
 31
0.0
  0
LINE
  5
191
330
18D
100
AcDbEntity
  8
DIM
 62
5
370
9
 48
3.0
440
16777216
100
AcDbLine
 10
908.52120477262
 20
805.9024306076244
 30
0.0
 11
945.1159262973197
 21
805.9024306076244
 31
0.0
  0
LINE
  5
192
330
18D
100
AcDbEntity
  8
DIM
 62
5
370
9
 48
3.0
440
16777216
100
AcDbLine
 10
935.1159262973197
 20
1846.9024306076171
 30
0.0
 11
935.1159262973197
 21
805.9024306076244
 31
0.0
  0
LINE
  5
193
330
18D
100
AcDbEntity
  8
0
  6
ByBlock
 62
0
370
-2
100
AcDbLine
 10
939.1159262973197
 20
1842.9024306076171
 30
0.0
 11
931.1159262973197
 21
1850.9024306076171
 31
0.0
  0
LINE
  5
194
330
18D
100
AcDbEntity
  8
0
  6
ByBlock
 62
0
370
-2
100
AcDbLine
 10
931.1159262973197
 20
809.9024306076244
 30
0.0
 11
939.1159262973197
 21
801.9024306076244
 31
0.0
  0
MTEXT
  5
195
330
18D
100
AcDbEntity
  8
DIM
 62
3
 48
3.0
440
16777216
100
AcDbMText
 10
912.3516016042795
 20
1290.4477569459996
 30
0.0
 40
25.0
 41
0.0
 46
0.0
 71
5
  1
1041
 11
1e-16
 21
1.0
 31
0.0
  0
POINT
  5
196
330
18D
100
AcDbEntity
  8
Defpoints
 62
0
 48
3.0
440
16777216
100
AcDbPoint
 10
893.52120477262
 20
1846.9024306076171
 30
0.0
  0
POINT
  5
197
330
18D
100
AcDbEntity
  8
Defpoints
 62
0
 48
3.0
440
16777216
100
AcDbPoint
 10
893.52120477262
 20
805.9024306076244
 30
0.0
  0
POINT
  5
198
330
18D
100
AcDbEntity
  8
Defpoints
 62
0
 48
3.0
440
16777216
100
AcDbPoint
 10
935.1159262973197
 20
805.9024306076244
 30
0.0
  0
ENDBLK
  5
18F
330
18D
100
AcDbEntity
  8
0
100
AcDbBlockEnd
  0
BLOCK
  5
19A
330
199
100
AcDbEntity
  8
0
100
AcDbBlockBegin
  2
*D9
 70
1
 10
0.0
 20
0.0
 30
0.0
  3
*D9
  1

  0
LINE
  5
19C
330
199
100
AcDbEntity
  8
DIM
 62
5
370
9
 48
3.0
440
16777216
100
AcDbLine
 10
650.9699304074511
 20
498.2442606710756
 30
0.0
 11
650.9699304074511
 21
517.244336882286
 31
0.0
  0
LINE
  5
19D
330
199
100
AcDbEntity
  8
DIM
 62
5
370
9
 48
3.0
440
16777216
100
AcDbLine
 10
1200.969930407451
 20
498.2442606710756
 30
0.0
 11
1200.969930407451
 21
517.244336882286
 31
0.0
  0
LINE
  5
19E
330
199
100
AcDbEntity
  8
DIM
 62
5
370
9
 48
3.0
440
16777216
100
AcDbLine
 10
650.9699304074511
 20
507.244336882286
 30
0.0
 11
1200.969930407451
 21
507.244336882286
 31
0.0
  0
LINE
  5
19F
330
199
100
AcDbEntity
  8
0
  6
ByBlock
 62
0
370
-2
100
AcDbLine
 10
654.9699304074511
 20
511.244336882286
 30
0.0
 11
646.9699304074511
 21
503.244336882286
 31
0.0
  0
LINE
  5
1A0
330
199
100
AcDbEntity
  8
0
  6
ByBlock
 62
0
370
-2
100
AcDbLine
 10
1196.969930407451
 20
503.244336882286
 30
0.0
 11
1204.969930407451
 21
511.244336882286
 31
0.0
  0
MTEXT
  5
1A1
330
199
100
AcDbEntity
  8
DIM
 62
3
 48
3.0
440
16777216
100
AcDbMText
 10
925.9699304074511
 20
530.0086615753389
 30
0.0
 40
25.0
 41
0.0
 46
0.0
 71
5
  1
550
  0
POINT
  5
1A2
330
199
100
AcDbEntity
  8
Defpoints
 62
0
 48
3.0
440
16777216
100
AcDbPoint
 10
650.9699304074511
 20
483.2442606710756
 30
0.0
  0
POINT
  5
1A3
330
199
100
AcDbEntity
  8
Defpoints
 62
0
 48
3.0
440
16777216
100
AcDbPoint
 10
1200.969930407451
 20
483.2442606710756
 30
0.0
  0
POINT
  5
1A4
330
199
100
AcDbEntity
  8
Defpoints
 62
0
 48
3.0
440
16777216
100
AcDbPoint
 10
1200.969930407451
 20
507.244336882286
 30
0.0
  0
ENDBLK
  5
19B
330
199
100
AcDbEntity
  8
0
100
AcDbBlockEnd
  0
BLOCK
  5
1A6
330
1A5
100
AcDbEntity
  8
0
100
AcDbBlockBegin
  2
*D10
 70
1
 10
0.0
 20
0.0
 30
0.0
  3
*D10
  1

  0
LINE
  5
1A8
330
1A5
100
AcDbEntity
  8
DIM
 62
5
370
9
440
16777216
100
AcDbLine
 10
1549.20708183836
 20
483.2442606710538
 30
0.0
 11
1479.9793084786706
 21
483.2442606710538
 31
0.0
  0
LINE
  5
1A9
330
1A5
100
AcDbEntity
  8
DIM
 62
5
370
9
440
16777216
100
AcDbLine
 10
1549.20708183836
 20
233.24426067105378
 30
0.0
 11
1479.9793084786706
 21
233.24426067105378
 31
0.0
  0
LINE
  5
1AA
330
1A5
100
AcDbEntity
  8
DIM
 62
5
370
9
440
16777216
100
AcDbLine
 10
1489.9793084786706
 20
483.2442606710538
 30
0.0
 11
1489.9793084786706
 21
233.24426067105378
 31
0.0
  0
LINE
  5
1AB
330
1A5
100
AcDbEntity
  8
0
  6
ByBlock
 62
0
370
-2
100
AcDbLine
 10
1493.9793084786706
 20
479.2442606710538
 30
0.0
 11
1485.9793084786706
 21
487.2442606710538
 31
0.0
  0
LINE
  5
1AC
330
1A5
100
AcDbEntity
  8
0
  6
ByBlock
 62
0
370
-2
100
AcDbLine
 10
1485.9793084786706
 20
237.24426067105378
 30
0.0
 11
1493.9793084786706
 21
229.24426067105378
 31
0.0
  0
MTEXT
  5
1AD
330
1A5
100
AcDbEntity
  8
DIM
 62
3
440
16777216
100
AcDbMText
 10
1467.2149837856305
 20
358.24426067106833
 30
0.0
 40
25.0
 41
0.0
 46
0.0
 71
5
  1
250
 11
1e-16
 21
1.0
 31
0.0
  0
POINT
  5
1AE
330
1A5
100
AcDbEntity
  8
Defpoints
 62
0
440
16777216
100
AcDbPoint
 10
1564.20708183836
 20
483.2442606710538
 30
0.0
  0
POINT
  5
1AF
330
1A5
100
AcDbEntity
  8
Defpoints
 62
0
440
16777216
100
AcDbPoint
 10
1564.20708183836
 20
233.24426067105378
 30
0.0
  0
POINT
  5
1B0
330
1A5
100
AcDbEntity
  8
Defpoints
 62
0
440
16777216
100
AcDbPoint
 10
1489.9793084786706
 20
233.24426067105378
 30
0.0
  0
ENDBLK
  5
1A7
330
1A5
100
AcDbEntity
  8
0
100
AcDbBlockEnd
  0
BLOCK
  5
1B2
330
1B1
100
AcDbEntity
  8
0
100
AcDbBlockBegin
  2
*D11
 70
1
 10
0.0
 20
0.0
 30
0.0
  3
*D11
  1

  0
LINE
  5
1B4
330
1B1
100
AcDbEntity
  8
DIM
 62
5
370
9
 48
3.0
440
16777216
100
AcDbLine
 10
1564.2070818383709
 20
498.2442606710756
 30
0.0
 11
1564.2070818383709
 21
517.244336882286
 31
0.0
  0
LINE
  5
1B5
330
1B1
100
AcDbEntity
  8
DIM
 62
5
370
9
 48
3.0
440
16777216
100
AcDbLine
 10
2114.2070818383636
 20
498.2442606710756
 30
0.0
 11
2114.2070818383636
 21
517.244336882286
 31
0.0
  0
LINE
  5
1B6
330
1B1
100
AcDbEntity
  8
DIM
 62
5
370
9
 48
3.0
440
16777216
100
AcDbLine
 10
1564.2070818383709
 20
507.244336882286
 30
0.0
 11
2114.2070818383636
 21
507.244336882286
 31
0.0
  0
LINE
  5
1B7
330
1B1
100
AcDbEntity
  8
0
  6
ByBlock
 62
0
370
-2
100
AcDbLine
 10
1568.2070818383709
 20
511.244336882286
 30
0.0
 11
1560.2070818383709
 21
503.244336882286
 31
0.0
  0
LINE
  5
1B8
330
1B1
100
AcDbEntity
  8
0
  6
ByBlock
 62
0
370
-2
100
AcDbLine
 10
2110.2070818383636
 20
503.244336882286
 30
0.0
 11
2118.2070818383636
 21
511.244336882286
 31
0.0
  0
MTEXT
  5
1B9
330
1B1
100
AcDbEntity
  8
DIM
 62
3
 48
3.0
440
16777216
100
AcDbMText
 10
1839.2070818383709
 20
530.0086615753389
 30
0.0
 40
25.0
 41
0.0
 46
0.0
 71
5
  1
550
  0
POINT
  5
1BA
330
1B1
100
AcDbEntity
  8
Defpoints
 62
0
 48
3.0
440
16777216
100
AcDbPoint
 10
1564.2070818383709
 20
483.2442606710756
 30
0.0
  0
POINT
  5
1BB
330
1B1
100
AcDbEntity
  8
Defpoints
 62
0
 48
3.0
440
16777216
100
AcDbPoint
 10
2114.2070818383636
 20
483.2442606710756
 30
0.0
  0
POINT
  5
1BC
330
1B1
100
AcDbEntity
  8
Defpoints
 62
0
 48
3.0
440
16777216
100
AcDbPoint
 10
2114.2070818383636
 20
507.244336882286
 30
0.0
  0
ENDBLK
  5
1B3
330
1B1
100
AcDbEntity
  8
0
100
AcDbBlockEnd
  0
ENDSEC
  0
SECTION
  2
ENTITIES
  0
LWPOLYLINE
  5
2F
330
17
100
AcDbEntity
  8
0
 62
7
100
AcDbPolyline
 90
14
 70
0
 10
1596.285708853371
 20
602.4024306076171
 10
1845.285708853371
 20
602.4024306076171
 10
1845.285708853371
 20
627.4024306076244
 10
1826.285708853371
 20
627.4024306076244
 10
1826.285708853371
 20
640.4024306076171
 10
1827.285708853371
 20
640.4024306076171
 10
1827.285708853371
 20
628.4024306076244
 10
1846.285708853371
 20
628.4024306076244
 10
1846.285708853371
 20
601.4024306076244
 10
1595.285708853371
 20
601.4024306076244
 10
1595.285708853371
 20
601.4024306076244
 10
1606.285708853371
 20
601.4024306076244
 10
1606.3237124428597
 20
601.4024306076244
 10
1596.3237124428597
 20
601.4024306076244
  0
LWPOLYLINE
  5
30
330
17
100
AcDbEntity
  8
0
 62
7
100
AcDbPolyline
 90
4
 70
0
 10
1606.285708853371
 20
601.4024306076244
 10
1595.285708853371
 20
601.4024306076244
 10
1595.285708853371
 20
2051.4024306076244
 10
1606.285708853371
 20
2051.4024306076244
  0
LWPOLYLINE
  5
31
330
17
100
AcDbEntity
  8
0
 62
7
100
AcDbPolyline
 90
4
 70
0
 10
1606.285708853371
 20
2050.402430607617
 10
1596.285708853371
 20
2050.402430607617
 10
1596.285708853371
 20
602.4024306076171
 10
1606.285708853371
 20
602.4024306076171
  0
DIMENSION
  5
32
330
17
100
AcDbEntity
  8
DIM
 62
7
100
AcDbDimension
280
0
  2
*D1
  3
Dim-25
 10
1536.3085199443994
 20
2051.40243060761
 30
0.0
 11
1513.5441952513502
 21
1326.4024306076171
 31
0.0
 70
32
 71
5
 42
1450.0
 73
0
 74
0
 75
0
100
AcDbAlignedDimension
 13
1595.285708853371
 23
601.4024306076244
 33
0.0
 14
1606.285708853371
 24
2051.4024306076244
 34
0.0
 50
90.0
100
AcDbRotatedDimension
  0
LWPOLYLINE
  5
37
330
17
100
AcDbEntity
  8
0
 62
7
100
AcDbPolyline
 90
12
 70
1
 10
1829.285708853371
 20
640.4024306076171
 10
1829.285708853371
 20
630.4024306076244
 10
1845.285708853371
 20
630.4024306076244
 10
1845.285708853371
 20
2021.9024306076171
 10
1829.285708853371
 20
2021.9024306076171
 10
1829.285708853371
 20
2011.9024306076244
 10
1828.285708853371
 20
2011.9024306076244
 10
1828.285708853371
 20
2022.9024306076244
 10
1846.285708853371
 20
2022.9024306076244
 10
1846.285708853371
 20
629.4024306076244
 10
1828.285708853371
 20
629.4024306076244
 10
1828.285708853371
 20
640.4024306076171
  0
INSERT
  5
38
330
17
100
AcDbEntity
  8
0
 62
7
100
AcDbBlockReference
  2
HL035-1-2
 10
1840.785708853371
 20
2031.9024306076244
 30
0.0
 50
180.0
  0
INSERT
  5
3A
330
17
100
AcDbEntity
  8
0
 62
7
100
AcDbBlockReference
  2
HL035-1-2
 10
1840.785708853371
 20
619.4024306076171
 30
0.0
 41
-1.0
  0
LWPOLYLINE
  5
3C
330
17
100
AcDbEntity
  8
0
 62
7
100
AcDbPolyline
 90
8
 70
1
 10
1834.285708853371
 20
2024.4024306076244
 10
1845.285708853371
 20
2024.4024306076244
 10
1845.285708853371
 20
2051.4024306076244
 10
1596.285708853371
 20
2051.4024306076244
 10
1596.285708853371
 20
2050.402430607617
 10
1844.285708853371
 20
2050.402430607617
 10
1844.285708853371
 20
2025.4024306076244
 10
1834.285708853371
 20
2025.4024306076244
  0
LWPOLYLINE
  5
3D
330
17
100
AcDbEntity
  8
0
 62
3
100
AcDbPolyline
 90
8
 70
1
 10
1815.285708853371
 20
1378.3498598385195
 10
1826.285708853371
 20
1378.3498598385195
 10
1826.285708853371
 20
1351.349859838505
 10
1596.285708853371
 20
1351.349859838505
 10
1596.285708853371
 20
1352.349859838505
 10
1825.285708853371
 20
1352.349859838505
 10
1825.285708853371
 20
1377.349859838505
 10
1815.285708853371
 20
1377.349859838505
  0
LWPOLYLINE
  5
3E
330
17
100
AcDbEntity
  8
0
 62
7
100
AcDbPolyline
 90
4
 70
1
 10
650.9699304074511
 20
2051.4024306076244
 10
1200.969930407451
 20
2051.4024306076244
 10
1200.969930407451
 20
601.4024306076244
 10
650.9699304074511
 20
601.4024306076244
  0
LWPOLYLINE
  5
3F
330
17
100
AcDbEntity
  8
0
  6
HIDDENX2
 62
7
100
AcDbPolyline
 90
4
 70
1
 10
651.9699304074511
 20
2050.402430607617
 10
1199.969930407451
 20
2050.402430607617
 10
1199.969930407451
 20
602.4024306076171
 10
651.9699304074511
 20
602.4024306076171
  0
LWPOLYLINE
  5
40
330
17
100
AcDbEntity
  8
0
 62
7
100
AcDbPolyline
 90
4
 70
0
 10
1163.969930407451
 20
2014.4024306076244
 10
1163.969930407451
 20
638.4024306076171
 10
687.9699304074511
 20
638.4024306076171
 10
687.9699304074511
 20
2014.4024306076244
  0
LWPOLYLINE
  5
41
330
17
100
AcDbEntity
  8
0
 62
7
100
AcDbPolyline
 90
2
 70
0
 10
687.9699304074511
 20
2014.4024306076244
 10
1163.969930407451
 20
2014.4024306076244
  0
LWPOLYLINE
  5
42
330
17
100
AcDbEntity
  8
0
 62
6
100
AcDbPolyline
 90
4
 70
1
 10
679.4699304074511
 20
630.9024306076171
 10
1172.469930407451
 20
630.9024306076171
 10
1172.469930407451
 20
2021.9024306076171
 10
679.4699304074511
 20
2021.9024306076171
  0
LWPOLYLINE
  5
43
330
17
100
AcDbEntity
  8
0
  6
HIDDENX2
 62
6
100
AcDbPolyline
 90
4
 70
1
 10
680.4699304074511
 20
631.9024306076244
 10
1171.469930407451
 20
631.9024306076244
 10
1171.469930407451
 20
2020.9024306076244
 10
680.4699304074511
 20
2020.9024306076244
  0
LWPOLYLINE
  5
44
330
17
100
AcDbEntity
  8
0
 62
2
100
AcDbPolyline
 90
8
 70
1
 10
830.4699304074511
 20
805.9024306076244
 10
1021.4699304074511
 20
805.9024306076244
 42
0.4142135623730951
 10
1061.469930407451
 20
845.9024306076244
 10
1061.469930407451
 20
1806.9024306076171
 42
0.4142135623730951
 10
1021.4699304074511
 20
1846.9024306076171
 10
830.4699304074511
 20
1846.9024306076171
 42
0.4142135623730951
 10
790.4699304074511
 20
1806.9024306076171
 10
790.4699304074511
 20
845.9024306076244
 42
0.4142135623730951
  0
DIMENSION
  5
45
330
17
100
AcDbEntity
  8
DIM
 62
7
100
AcDbDimension
280
0
  2
*D2
  3
Dim-25
 10
1200.969930407451
 20
2106.207283744894
 30
0.0
 11
925.9699304074511
 21
2128.971608437947
 31
0.0
 70
32
 71
5
 42
550.0
 73
0
 74
0
 75
0
100
AcDbAlignedDimension
 13
650.9699304074511
 23
2051.4024306076244
 33
0.0
 14
1200.969930407451
 24
2051.4024306076244
 34
0.0
 50
0.0
100
AcDbRotatedDimension
  0
DIMENSION
  5
46
330
17
100
AcDbEntity
  8
DIM
 62
7
100
AcDbDimension
280
0
  2
*D3
  3
Dim-25
 10
512.1073020888998
 20
601.4024306076099
 30
0.0
 11
489.34297739585054
 21
1326.4024306076171
 31
0.0
 70
32
 71
5
 42
1450.0
 73
0
 74
0
 75
0
100
AcDbAlignedDimension
 13
650.9699304074511
 23
2051.4024306076244
 33
0.0
 14
650.9699304074511
 24
601.4024306076244
 34
0.0
 50
90.0
100
AcDbRotatedDimension
  0
LWPOLYLINE
  5
47
330
17
100
AcDbEntity
  8
0
 62
7
100
AcDbPolyline
 90
14
 70
1
 10
676.9699304074511
 20
472.2442606710756
 10
676.9699304074511
 20
482.2442606710756
 10
651.9699304074511
 20
482.2442606710756
 10
651.9699304074511
 20
234.2442606710756
 10
676.9699304074511
 20
234.2442606710756
 10
676.9699304074511
 20
253.2442606710756
 10
689.9699304074511
 20
253.2442606710756
 10
689.9699304074511
 20
252.2442606710756
 10
677.9699304074511
 20
252.2442606710756
 10
677.9699304074511
 20
233.2442606710756
 10
650.9699304074511
 20
233.2442606710756
 10
650.9699304074511
 20
483.2442606710756
 10
677.9699304074511
 20
483.2442606710756
 10
677.9699304074511
 20
472.2442606710756
  0
LWPOLYLINE
  5
48
330
17
100
AcDbEntity
  8
0
 62
7
100
AcDbPolyline
 90
8
 70
1
 10
1172.969930407451
 20
472.2442606710756
 10
1172.969930407451
 20
482.2442606710756
 10
678.9699304074511
 20
482.2442606710756
 10
678.9699304074511
 20
472.2442606710756
 10
677.9699304074511
 20
472.2442606710756
 10
677.9699304074511
 20
483.2442606710756
 10
1173.969930407451
 20
483.2442606710756
 10
1173.969930407451
 20
472.2442606710756
  0
LWPOLYLINE
  5
49
330
17
100
AcDbEntity
  8
0
 62
7
100
AcDbPolyline
 90
12
 70
1
 10
1161.469930407451
 20
250.2442606710756
 10
1171.469930407451
 20
250.2442606710756
 10
1171.469930407451
 20
234.2442606710756
 10
680.4699304074511
 20
234.2442606710756
 10
680.4699304074511
 20
250.2442606710756
 10
690.4699304074511
 20
250.2442606710756
 10
690.4699304074511
 20
251.2442606710756
 10
679.4699304074511
 20
251.2442606710756
 10
679.4699304074511
 20
233.2442606710756
 10
1172.469930407451
 20
233.2442606710756
 10
1172.469930407451
 20
251.2442606710756
 10
1161.469930407451
 20
251.2442606710756
  0
LWPOLYLINE
  5
4A
330
17
100
AcDbEntity
  8
0
 62
7
100
AcDbPolyline
 90
14
 70
1
 10
1174.969930407451
 20
472.2442606710756
 10
1174.969930407451
 20
482.2442606710756
 10
1199.969930407451
 20
482.2442606710756
 10
1199.969930407451
 20
234.2442606710756
 10
1174.969930407451
 20
234.2442606710756
 10
1174.969930407451
 20
253.2442606710756
 10
1161.969930407451
 20
253.2442606710756
 10
1161.969930407451
 20
252.2442606710756
 10
1173.969930407451
 20
252.2442606710756
 10
1173.969930407451
 20
233.2442606710756
 10
1200.969930407451
 20
233.2442606710756
 10
1200.969930407451
 20
483.2442606710756
 10
1173.969930407451
 20
483.2442606710756
 10
1173.969930407451
 20
472.2442606710756
  0
DIMENSION
  5
4B
330
17
100
AcDbEntity
  8
DIM
 62
7
100
AcDbDimension
280
0
  2
*D4
  3
Dim-25
 10
576.7421570477509
 20
233.24426067105378
 30
0.0
 11
553.9778323546998
 21
358.24426067106833
 31
0.0
 70
32
 71
5
 42
250.0
 73
0
 74
0
 75
0
100
AcDbAlignedDimension
 13
650.9699304074511
 23
483.2442606710756
 33
0.0
 14
650.9699304074511
 24
233.2442606710756
 34
0.0
 50
90.0
100
AcDbRotatedDimension
  0
CIRCLE
  5
4C
330
17
100
AcDbEntity
  8
0
 62
2
100
AcDbCircle
 10
1167.19265392763
 20
238.7442606710756
 30
0.0
 40
4.0
  0
LINE
  5
4D
330
17
100
AcDbEntity
  8
0
 62
1
100
AcDbLine
 10
1167.19265392763
 20
234.2442606710756
 30
0.0
 11
1148.69265392763
 21
234.2442606710756
 31
0.0
  0
LINE
  5
4E
330
17
100
AcDbEntity
  8
0
 62
1
100
AcDbLine
 10
1148.69265392763
 20
235.7481218571338
 30
0.0
 11
1167.0404954325095
 21
235.7481218571338
 31
0.0
  0
ARC
  5
4F
330
17
100
AcDbEntity
  8
0
 62
1
100
AcDbCircle
 10
1167.19265392763
 20
238.7442606710756
 30
0.0
 40
4.5
100
AcDbArc
 50
270.0
 51
318.1896851037824
  0
ARC
  5
50
330
17
100
AcDbEntity
  8
0
 62
1
100
AcDbCircle
 10
1167.19265392763
 20
238.7442606710756
 30
0.0
 40
4.5
100
AcDbArc
 50
41.81031489621761
 51
193.4301320342568
  0
ARC
  5
51
330
17
100
AcDbEntity
  8
0
 62
1
100
AcDbCircle
 10
1167.19265392763
 20
238.7442606710756
 30
0.0
 40
3.0
100
AcDbArc
 50
267.092739422682
 51
270.0
  0
ARC
  5
52
330
17
100
AcDbEntity
  8
0
 62
1
100
AcDbCircle
 10
1167.19265392763
 20
238.7442606710756
 30
0.0
 40
3.0
100
AcDbArc
 50
90.0
 51
193.4301320342568
  0
LINE
  5
53
330
17
100
AcDbEntity
  8
0
 62
1
100
AcDbLine
 10
1162.8157115273698
 20
237.69909311287483
 30
0.0
 11
1164.2746923274299
 21
238.04748229893448
 31
0.0
  0
LINE
  5
54
330
17
100
AcDbEntity
  8
0
 62
1
100
AcDbLine
 10
1148.69265392763
 20
235.7481218571338
 30
0.0
 11
1148.69265392763
 21
234.2442606710756
 31
0.0
  0
ARC
  5
55
330
17
100
AcDbEntity
  8
0
 62
1
100
AcDbCircle
 10
1167.19265392763
 20
238.7442606710756
 30
0.0
 40
3.0
100
AcDbArc
 50
90.0
 51
270.0
  0
LINE
  5
56
330
17
100
AcDbEntity
  8
0
 62
1
100
AcDbLine
 10
1167.19265392763
 20
235.7442606710756
 30
0.0
 11
1172.2976416351794
 21
235.7442606710756
 31
0.0
  0
LINE
  5
57
330
17
100
AcDbEntity
  8
0
 62
1
100
AcDbLine
 10
1167.19265392763
 20
241.7442606710756
 30
0.0
 11
1172.2976416351794
 21
241.7442606710756
 31
0.0
  0
LWPOLYLINE
  5
58
330
17
100
AcDbEntity
  8
0
 62
3
100
AcDbPolyline
 90
6
 70
0
 10
683.9699304074511
 20
482.2442606710756
 10
1199.969930407451
 20
482.2442606710756
 10
1199.969930407451
 20
253.2442606710756
 10
651.9699304074511
 20
253.2442606710756
 10
651.9699304074511
 20
482.2442606710756
 10
671.9699304074511
 20
482.2442606710756
  0
LWPOLYLINE
  5
59
330
17
100
AcDbEntity
  8
0
  6
HIDDENX2
 62
3
100
AcDbPolyline
 90
6
 70
0
 10
683.9699304074511
 20
481.2442606710756
 10
1198.969930407451
 20
481.2442606710756
 10
1198.969930407451
 20
254.2442606710756
 10
652.9699304074511
 20
254.2442606710756
 10
652.9699304074511
 20
481.2442606710756
 10
671.9699304074511
 20
481.2442606710756
  0
LWPOLYLINE
  5
5A
330
17
100
AcDbEntity
  8
0
 62
7
100
AcDbPolyline
 90
4
 70
0
 10
676.9699304074511
 20
482.2442606710756
 10
676.9699304074511
 20
472.2442606710756
 10
678.9699304074511
 20
472.2442606710756
 10
678.9699304074511
 20
482.2442606710756
  0
LWPOLYLINE
  5
5B
330
17
100
AcDbEntity
  8
0
 62
7
100
AcDbPolyline
 90
4
 70
0
 10
671.9699304074511
 20
482.2442606710756
 10
671.9699304074511
 20
470.2442606710756
 10
683.9699304074511
 20
470.2442606710756
 10
683.9699304074511
 20
482.2442606710756
  0
LWPOLYLINE
  5
5C
330
17
100
AcDbEntity
  8
0
 62
7
100
AcDbPolyline
 90
4
 70
0
 10
1179.969930407451
 20
482.2442606710756
 10
1179.969930407451
 20
470.2442606710756
 10
1167.969930407451
 20
470.2442606710756
 10
1167.969930407451
 20
482.2442606710756
  0
INSERT
  5
5D
330
17
100
AcDbEntity
  8
0
 62
7
100
AcDbBlockReference
 66
1
  2
khungtenAsean2
 10
0.0
 20
2195.4240000038844
 30
0.0
 41
1.04544000000169
 42
1.04544000000169
 43
1.04544000000169
  0
ATTRIB
  5
5E
330
5D
100
AcDbEntity
  8
0
 62
1
100
AcDbText
 10
3014.8024587818563
 20
34.13591586228722
 30
0.0
 40
26.13600000000001
  1
......
  7
Tahoma (Input Text)
 72
1
 11
3047.4505178819236
 21
34.13591586228722
 31
0.0
100
AcDbAttribute
  2
#11
 70
0
 71
1
 72
0
 11
3047.4505178819236
 21
34.13591586228722
 31
0.0
  0
ATTRIB
  5
5F
330
5D
100
AcDbEntity
  8
0
 62
1
100
AcDbText
 10
2244.263796944544
 20
82.30204269260867
 30
0.0
 40
26.13600000000001
  1

  7
Tahoma (Input Text)
100
AcDbAttribute
  2
#09
 70
0
 71
1
 72
0
  0
ATTRIB
  5
60
330
5D
100
AcDbEntity
  8
0
 62
1
100
AcDbText
 10
2244.263796944544
 20
19.575642692609108
 30
0.0
 40
26.13600000000001
  1
SƠN MÀU ĐỎ
  7
Tahoma (Input Text)
100
AcDbAttribute
  2
#10
 70
0
 71
1
 72
0
  0
ATTRIB
  5
61
330
5D
100
AcDbEntity
  8
0
 62
1
100
AcDbText
 10
1900.0325922082793
 20
19.575642692609108
 30
0.0
 40
26.13600000000001
  1
1.2
  7
Tahoma (Input Text)
100
AcDbAttribute
  2
#08
 70
0
 71
1
 72
0
  0
ATTRIB
  5
62
330
5D
100
AcDbEntity
  8
0
 62
1
100
AcDbText
 10
1918.0494381547596
 20
82.30204269260867
 30
0.0
 40
26.13600000000001
  1
1
  7
Tahoma (Input Text)
100
AcDbAttribute
  2
#07
 70
0
 71
1
 72
0
  0
ATTRIB
  5
63
330
5D
100
AcDbEntity
  8
0
 62
1
100
AcDbText
 10
1113.739524746361
 20
19.575642692609108
 30
0.0
 40
26.13600000000001
  1
1450x550x250
  7
Tahoma (Input Text)
100
AcDbAttribute
  2
#06
 70
0
 71
1
 72
0
  0
ATTRIB
  5
64
330
5D
100
AcDbEntity
  8
0
 62
1
100
AcDbText
 10
1156.9133614905895
 20
82.30204269260867
 30
0.0
 40
26.13600000000001
  1
võ tủ MẨU
  7
Tahoma (Input Text)
100
AcDbAttribute
  2
#05
 70
0
 71
1
 72
0
  0
ATTRIB
  5
65
330
5D
100
AcDbEntity
  8
0
 62
1
100
AcDbText
 10
508.19363943264034
 20
19.575642692609108
 30
0.0
 40
26.13600000000001
  1
......
  7
Tahoma (Input Text)
100
AcDbAttribute
  2
#04
 70
0
 71
1
 72
0
  0
ATTRIB
  5
66
330
5D
100
AcDbEntity
  8
0
 62
1
100
AcDbText
 10
529.5893237788496
 20
84.36533478794445
 30
0.0
 40
26.13600000000001
  1
TUẤN BÁO CHÁY
  7
Tahoma (Input Text)
100
AcDbAttribute
  2
#03
 70
0
 71
1
 72
0
  0
ATTRIB
  5
67
330
5D
100
AcDbEntity
  8
0
 62
1
100
AcDbText
 10
102.93059806462043
 20
19.575642692609108
 30
0.0
 40
26.13600000000001
  1
......
  7
Tahoma (Input Text)
100
AcDbAttribute
  2
#02
 70
0
 71
1
 72
0
  0
ATTRIB
  5
68
330
5D
100
AcDbEntity
  8
0
 62
1
100
AcDbText
 10
143.28121923366962
 20
82.30204269260867
 30
0.0
 40
26.13600000000001
  1
PHÚC
  7
Tahoma (Input Text)
100
AcDbAttribute
  2
#01
 70
0
 71
1
 72
0
  0
SEQEND
  5
69
330
17
100
AcDbEntity
  8
0
 62
7
  0
DIMENSION
  5
6A
330
17
100
AcDbEntity
  8
DIM
 62
7
100
AcDbDimension
280
0
  2
*D5
  3
Dim-25
 10
1935.7706685335106
 20
1351.3498598384977
 30
0.0
 11
1913.0063438404595
 21
1701.3761452230538
 31
0.0
 70
32
 71
5
 42
700.0525707691122
 73
0
 74
0
 75
0
100
AcDbAlignedDimension
 13
1845.285708853371
 23
2051.4024306076244
 33
0.0
 14
1826.285708853371
 24
1351.349859838505
 34
0.0
 50
90.0
100
AcDbRotatedDimension
  0
DIMENSION
  5
6B
330
17
100
AcDbEntity
  8
DIM
 62
7
100
AcDbDimension
280
0
  2
*D6
  3
Dim-25
 10
1935.7706685335106
 20
1351.3498598384977
 30
0.0
 11
1913.0063438404595
 21
976.3761452230683
 31
0.0
 70
32
 71
5
 42
749.9474292308877
 73
0
 74
0
 75
0
100
AcDbAlignedDimension
 13
1846.285708853371
 23
601.4024306076244
 33
0.0
 14
1826.285708853371
 24
1351.349859838505
 34
0.0
 50
90.0
100
AcDbRotatedDimension
  0
LWPOLYLINE
  5
6C
330
17
100
AcDbEntity
  8
0
 62
7
100
AcDbPolyline
 90
4
 70
1
 10
677.9699304074511
 20
2024.4024306076244
 10
1173.969930407451
 20
2024.4024306076244
 10
1173.969930407451
 20
628.4024306076244
 10
677.9699304074511
 20
628.4024306076244
  0
LWPOLYLINE
  5
6D
330
17
100
AcDbEntity
  8
0
 62
4
100
AcDbPolyline
 90
4
 70
1
 10
779.4699304074511
 20
794.9024306076244
 10
1072.469930407451
 20
794.9024306076244
 10
1072.469930407451
 20
1857.9024306076171
 10
779.4699304074511
 20
1857.9024306076171
  0
LWPOLYLINE
  5
6E
330
17
100
AcDbEntity
  8
0
 62
3
100
AcDbPolyline
 90
4
 70
1
 10
790.4699304074511
 20
1378.3498598385195
 10
1061.469930407451
 20
1378.3498598385195
 10
1061.469930407451
 20
1351.349859838505
 10
790.4699304074511
 20
1351.349859838505
  0
DIMENSION
  5
6F
330
17
100
AcDbEntity
  8
DIM
 62
7
 48
3.0
100
AcDbDimension
280
0
  2
*D7
  3
Dim-25
 10
1845.285708853371
 20
2090.643536784366
 30
0.0
 11
1720.285708853371
 21
2113.4078614774044
 31
0.0
 70
32
 71
5
 42
250.0
 73
0
 74
0
 75
0
100
AcDbAlignedDimension
 13
1595.285708853371
 23
2051.4024306076244
 33
0.0
 14
1845.285708853371
 24
2051.4024306076244
 34
0.0
 50
0.0
100
AcDbRotatedDimension
  0
DIMENSION
  5
70
330
17
100
AcDbEntity
  8
DIM
 62
7
 48
3.0
100
AcDbDimension
280
0
  2
*D8
  3
Dim-25
 10
935.1159262973197
 20
805.9024306076244
 30
0.0
 11
935.1159262973197
 21
1290.4477569459996
 31
0.0
 70
160
 71
5
 42
1040.999999999985
 73
0
 74
0
 75
0
100
AcDbAlignedDimension
 13
893.52120477262
 23
1846.9024306076171
 33
0.0
 14
893.52120477262
 24
805.9024306076244
 34
0.0
 50
90.0
100
AcDbRotatedDimension
  0
DIMENSION
  5
71
330
17
100
AcDbEntity
  8
DIM
 62
7
 48
3.0
100
AcDbDimension
280
0
  2
*D9
  3
Dim-25
 10
1200.969930407451
 20
507.244336882286
 30
0.0
 11
925.9699304074511
 21
530.0086615753389
 31
0.0
 70
32
 71
5
 42
550.0
 73
0
 74
0
 75
0
100
AcDbAlignedDimension
 13
650.9699304074511
 23
483.2442606710756
 33
0.0
 14
1200.969930407451
 24
483.2442606710756
 34
0.0
 50
0.0
100
AcDbRotatedDimension
  0
LWPOLYLINE
  5
72
330
17
100
AcDbEntity
  8
0
 62
7
100
AcDbPolyline
 90
14
 70
1
 10
1590.2070818383709
 20
472.2442606710756
 10
1590.2070818383709
 20
482.2442606710756
 10
1565.2070818383709
 20
482.2442606710756
 10
1565.2070818383709
 20
234.2442606710756
 10
1590.2070818383709
 20
234.2442606710756
 10
1590.2070818383709
 20
253.2442606710756
 10
1603.2070818383709
 20
253.2442606710756
 10
1603.2070818383709
 20
252.2442606710756
 10
1591.2070818383709
 20
252.2442606710756
 10
1591.2070818383709
 20
233.2442606710756
 10
1564.2070818383709
 20
233.2442606710756
 10
1564.2070818383709
 20
483.2442606710756
 10
1591.2070818383709
 20
483.2442606710756
 10
1591.2070818383709
 20
472.2442606710756
  0
LWPOLYLINE
  5
73
330
17
100
AcDbEntity
  8
0
 62
7
100
AcDbPolyline
 90
8
 70
1
 10
2086.2070818383654
 20
472.2442606710756
 10
2086.2070818383654
 20
482.2442606710756
 10
1592.2070818383709
 20
482.2442606710756
 10
1592.2070818383709
 20
472.2442606710756
 10
1591.2070818383709
 20
472.2442606710756
 10
1591.2070818383709
 20
483.2442606710756
 10
2087.2070818383636
 20
483.2442606710756
 10
2087.2070818383636
 20
472.2442606710756
  0
LWPOLYLINE
  5
74
330
17
100
AcDbEntity
  8
0
 62
7
100
AcDbPolyline
 90
12
 70
1
 10
2074.7070818383636
 20
250.2442606710756
 10
2084.7070818383654
 20
250.2442606710756
 10
2084.7070818383654
 20
234.2442606710756
 10
1593.7070818383709
 20
234.2442606710756
 10
1593.7070818383709
 20
250.2442606710756
 10
1603.7070818383709
 20
250.2442606710756
 10
1603.7070818383709
 20
251.2442606710756
 10
1592.7070818383709
 20
251.2442606710756
 10
1592.7070818383709
 20
233.2442606710756
 10
2085.7070818383636
 20
233.2442606710756
 10
2085.7070818383636
 20
251.2442606710756
 10
2074.7070818383636
 20
251.2442606710756
  0
LWPOLYLINE
  5
75
330
17
100
AcDbEntity
  8
0
 62
7
100
AcDbPolyline
 90
14
 70
1
 10
2088.2070818383654
 20
472.2442606710756
 10
2088.2070818383654
 20
482.2442606710756
 10
2113.2070818383654
 20
482.2442606710756
 10
2113.2070818383654
 20
234.2442606710756
 10
2088.2070818383654
 20
234.2442606710756
 10
2088.2070818383654
 20
253.2442606710756
 10
2075.2070818383654
 20
253.2442606710756
 10
2075.2070818383654
 20
252.2442606710756
 10
2087.2070818383636
 20
252.2442606710756
 10
2087.2070818383636
 20
233.2442606710756
 10
2114.2070818383636
 20
233.2442606710756
 10
2114.2070818383636
 20
483.2442606710756
 10
2087.2070818383636
 20
483.2442606710756
 10
2087.2070818383636
 20
472.2442606710756
  0
DIMENSION
  5
76
330
17
100
AcDbEntity
  8
DIM
 62
7
100
AcDbDimension
280
0
  2
*D10
  3
Dim-25
 10
1489.9793084786706
 20
233.24426067105378
 30
0.0
 11
1467.2149837856305
 21
358.24426067106833
 31
0.0
 70
32
 71
5
 42
250.0
 73
0
 74
0
 75
0
100
AcDbAlignedDimension
 13
1564.2070818383709
 23
483.2442606710756
 33
0.0
 14
1564.2070818383709
 24
233.2442606710756
 34
0.0
 50
90.0
100
AcDbRotatedDimension
  0
CIRCLE
  5
77
330
17
100
AcDbEntity
  8
0
 62
2
100
AcDbCircle
 10
2080.4298053585517
 20
238.7442606710756
 30
0.0
 40
4.0
  0
LINE
  5
78
330
17
100
AcDbEntity
  8
0
 62
1
100
AcDbLine
 10
2080.4298053585517
 20
234.2442606710756
 30
0.0
 11
2061.9298053585517
 21
234.2442606710756
 31
0.0
  0
LINE
  5
79
330
17
100
AcDbEntity
  8
0
 62
1
100
AcDbLine
 10
2061.9298053585517
 20
235.7481218571338
 30
0.0
 11
2080.277646863424
 21
235.7481218571338
 31
0.0
  0
ARC
  5
7A
330
17
100
AcDbEntity
  8
0
 62
1
100
AcDbCircle
 10
2080.4298053585517
 20
238.7442606710756
 30
0.0
 40
4.5
100
AcDbArc
 50
270.0
 51
318.1896851037822
  0
ARC
  5
7B
330
17
100
AcDbEntity
  8
0
 62
1
100
AcDbCircle
 10
2080.4298053585517
 20
238.7442606710756
 30
0.0
 40
4.5
100
AcDbArc
 50
41.81031489621778
 51
193.4301320342568
  0
ARC
  5
7C
330
17
100
AcDbEntity
  8
0
 62
1
100
AcDbCircle
 10
2080.4298053585517
 20
238.7442606710756
 30
0.0
 40
3.0
100
AcDbArc
 50
267.0927394226691
 51
270.0
  0
ARC
  5
7D
330
17
100
AcDbEntity
  8
0
 62
1
100
AcDbCircle
 10
2080.4298053585517
 20
238.7442606710756
 30
0.0
 40
3.0
100
AcDbArc
 50
90.0
 51
193.4301320342568
  0
LINE
  5
7E
330
17
100
AcDbEntity
  8
0
 62
1
100
AcDbLine
 10
2076.052862958284
 20
237.69909311287483
 30
0.0
 11
2077.5118437583424
 21
238.04748229893448
 31
0.0
  0
LINE
  5
7F
330
17
100
AcDbEntity
  8
0
 62
1
100
AcDbLine
 10
2061.9298053585517
 20
235.7481218571338
 30
0.0
 11
2061.9298053585517
 21
234.2442606710756
 31
0.0
  0
ARC
  5
80
330
17
100
AcDbEntity
  8
0
 62
1
100
AcDbCircle
 10
2080.4298053585517
 20
238.7442606710756
 30
0.0
 40
3.0
100
AcDbArc
 50
90.0
 51
270.0
  0
LINE
  5
81
330
17
100
AcDbEntity
  8
0
 62
1
100
AcDbLine
 10
2080.4298053585517
 20
235.7442606710756
 30
0.0
 11
2085.5347930660937
 21
235.7442606710756
 31
0.0
  0
LINE
  5
82
330
17
100
AcDbEntity
  8
0
 62
1
100
AcDbLine
 10
2080.4298053585517
 20
241.7442606710756
 30
0.0
 11
2085.5347930660937
 21
241.7442606710756
 31
0.0
  0
LWPOLYLINE
  5
83
330
17
100
AcDbEntity
  8
0
 62
3
100
AcDbPolyline
 90
6
 70
0
 10
1597.2070818383709
 20
482.2442606710756
 10
2113.2070818383654
 20
482.2442606710756
 10
2113.2070818383654
 20
253.2442606710756
 10
1565.2070818383709
 20
253.2442606710756
 10
1565.2070818383709
 20
482.2442606710756
 10
1585.2070818383709
 20
482.2442606710756
  0
LWPOLYLINE
  5
84
330
17
100
AcDbEntity
  8
0
  6
HIDDENX2
 62
3
100
AcDbPolyline
 90
6
 70
0
 10
1597.2070818383709
 20
481.2442606710756
 10
2112.2070818383636
 20
481.2442606710756
 10
2112.2070818383636
 20
254.2442606710756
 10
1566.2070818383709
 20
254.2442606710756
 10
1566.2070818383709
 20
481.2442606710756
 10
1585.2070818383709
 20
481.2442606710756
  0
LWPOLYLINE
  5
85
330
17
100
AcDbEntity
  8
0
 62
7
100
AcDbPolyline
 90
4
 70
0
 10
1590.2070818383709
 20
482.2442606710756
 10
1590.2070818383709
 20
472.2442606710756
 10
1592.2070818383709
 20
472.2442606710756
 10
1592.2070818383709
 20
482.2442606710756
  0
LWPOLYLINE
  5
86
330
17
100
AcDbEntity
  8
0
 62
7
100
AcDbPolyline
 90
4
 70
0
 10
1585.2070818383709
 20
482.2442606710756
 10
1585.2070818383709
 20
470.2442606710756
 10
1597.2070818383709
 20
470.2442606710756
 10
1597.2070818383709
 20
482.2442606710756
  0
LWPOLYLINE
  5
87
330
17
100
AcDbEntity
  8
0
 62
7
100
AcDbPolyline
 90
4
 70
0
 10
2093.2070818383636
 20
482.2442606710756
 10
2093.2070818383636
 20
470.2442606710756
 10
2081.2070818383654
 20
470.2442606710756
 10
2081.2070818383654
 20
482.2442606710756
  0
DIMENSION
  5
88
330
17
100
AcDbEntity
  8
DIM
 62
7
 48
3.0
100
AcDbDimension
280
0
  2
*D11
  3
Dim-25
 10
2114.2070818383636
 20
507.244336882286
 30
0.0
 11
1839.2070818383709
 21
530.0086615753389
 31
0.0
 70
32
 71
5
 42
550.0
 73
0
 74
0
 75
0
100
AcDbAlignedDimension
 13
1564.2070818383709
 23
483.2442606710756
 33
0.0
 14
2114.2070818383636
 24
483.2442606710756
 34
0.0
 50
0.0
100
AcDbRotatedDimension
  0
CIRCLE
  5
89
330
17
100
AcDbEntity
  8
0
 62
2
 48
3.0
100
AcDbCircle
 10
925.9699304074511
 20
358.2442606710756
 30
0.0
 40
30.0
  0
LWPOLYLINE
  5
8A
330
17
100
AcDbEntity
  8
0
 62
2
100
AcDbPolyline
 90
4
 70
1
 10
722.4699304074511
 20
1201.4024306076244
 10
749.4699304074511
 20
1201.4024306076244
 10
749.4699304074511
 20
1336.4024306076244
 10
722.4699304074511
 20
1336.4024306076244
  0
LWPOLYLINE
  5
8B
330
17
100
AcDbEntity
  8
0
  6
HIDDENX2
 62
7
100
AcDbPolyline
 90
4
 70
1
 10
974.6445691766603
 20
760.8043478838736
 10
874.6445691766603
 20
760.8043478838736
 10
874.6445691766603
 20
789.9633445049549
 10
974.6445691766603
 20
789.854925737789
  0
LWPOLYLINE
  5
8C
330
17
100
AcDbEntity
  8
0
  6
HIDDENX2
 62
7
100
AcDbPolyline
 90
4
 70
1
 10
774.4699304074511
 20
894.902430607639
 10
774.4699304074511
 20
794.9024306076244
 10
745.3109337863607
 20
794.9024306076244
 10
745.4193525535411
 20
894.902430607639
  0
LWPOLYLINE
  5
8D
330
17
100
AcDbEntity
  8
0
  6
HIDDENX2
 62
7
100
AcDbPolyline
 90
4
 70
1
 10
1077.469930407451
 20
894.902430607639
 10
1077.469930407451
 20
794.9024306076244
 10
1106.6289270285306
 20
794.9024306076244
 10
1106.520508261361
 20
894.902430607639
  0
LWPOLYLINE
  5
8E
330
17
100
AcDbEntity
  8
0
  6
HIDDENX2
 62
7
100
AcDbPolyline
 90
4
 70
1
 10
974.6445691766603
 20
1892.1089320985338
 10
874.6445691766603
 20
1892.1089320985338
 10
874.6445691766603
 20
1862.9499354774598
 10
974.6445691766603
 20
1863.0583542446257
  0
HATCH
  5
8F
330
17
100
AcDbEntity
  8
0
 62
4
 48
3.0
100
AcDbHatch
 10
0.0
 20
0.0
 30
0.0
210
0.0
220
0.0
230
1.0
  2
ANSI31
 70
0
 71
0
 91
1
 92
1
 93
4
 72
1
 10
779.4699304074511
 20
794.9024306076244
 11
1072.469930407451
 21
794.9024306076244
 72
1
 10
1072.469930407451
 20
794.9024306076244
 11
1072.469930407451
 21
1857.9024306076171
 72
1
 10
1072.469930407451
 20
1857.9024306076171
 11
779.4699304074511
 21
1857.9024306076171
 72
1
 10
779.4699304074511
 20
1857.9024306076171
 11
779.4699304074511
 21
794.9024306076244
 97
1
330
DF8B5
 75
0
 76
1
 52
0.0
 41
100.0
 77
0
 78
1
 53
45.0
 43
-120425.6665121065
 44
1087422.434378214
 45
-883.8834764832
 46
883.8834764832
 79
0
 98
1
 10
-1204.256665121065
 20
10874.22434378214
  0
LWPOLYLINE
  5
90
330
17
100
AcDbEntity
  8
0
  6
HIDDENX2
 62
7
100
AcDbPolyline
 90
4
 70
1
 10
774.4699304074511
 20
1174.902430607639
 10
774.4699304074511
 20
1074.9024306076244
 10
745.3109337863607
 20
1074.9024306076244
 10
745.4193525535411
 20
1174.902430607639
  0
LWPOLYLINE
  5
91
330
17
100
AcDbEntity
  8
0
  6
HIDDENX2
 62
7
100
AcDbPolyline
 90
4
 70
1
 10
1077.469930407451
 20
1174.902430607639
 10
1077.469930407451
 20
1074.9024306076244
 10
1106.6289270285306
 20
1074.9024306076244
 10
1106.520508261361
 20
1174.902430607639
  0
LWPOLYLINE
  5
92
330
17
100
AcDbEntity
  8
0
  6
HIDDENX2
 62
7
100
AcDbPolyline
 90
4
 70
1
 10
774.4699304074511
 20
1757.9024306076171
 10
774.4699304074511
 20
1857.9024306076171
 10
745.3109337863607
 20
1857.9024306076171
 10
745.4193525535411
 20
1757.9024306076171
  0
LWPOLYLINE
  5
93
330
17
100
AcDbEntity
  8
0
  6
HIDDENX2
 62
7
100
AcDbPolyline
 90
4
 70
1
 10
1077.469930407451
 20
1757.9024306076171
 10
1077.469930407451
 20
1857.9024306076171
 10
1106.6289270285306
 20
1857.9024306076171
 10
1106.520508261361
 20
1757.9024306076171
  0
LWPOLYLINE
  5
94
330
17
100
AcDbEntity
  8
0
  6
HIDDENX2
 62
7
100
AcDbPolyline
 90
4
 70
1
 10
774.4699304074511
 20
1477.9024306076171
 10
774.4699304074511
 20
1577.9024306076171
 10
745.3109337863607
 20
1577.9024306076171
 10
745.4193525535411
 20
1477.9024306076171
  0
LWPOLYLINE
  5
95
330
17
100
AcDbEntity
  8
0
  6
HIDDENX2
 62
7
100
AcDbPolyline
 90
4
 70
1
 10
1077.469930407451
 20
1477.9024306076171
 10
1077.469930407451
 20
1577.9024306076171
 10
1106.6289270285306
 20
1577.9024306076171
 10
1106.520508261361
 20
1477.9024306076171
  0
MTEXT
  5
96
330
17
100
AcDbEntity
  8
0
 62
2
100
AcDbMText
 10
922.7835951268407
 20
567.4950313080553
 30
0.0
 40
25.0
 41
575.0000000000146
 46
100.0000000000031
 71
5
 72
5
  1
MẶT NGOÀI
  0
MTEXT
  5
97
330
17
100
AcDbEntity
  8
0
 62
2
100
AcDbMText
 10
913.1007091701194
 20
202.25447047725902
 30
0.0
 40
25.0
 41
575.0000000000146
 46
100.0000000000031
 71
5
 72
5
  1
NÓC
  0
MTEXT
  5
98
330
17
100
AcDbEntity
  8
0
 62
2
100
AcDbMText
 10
1859.85478359206
 20
174.59349665024638
 30
0.0
 40
25.0
 41
575.0000000000146
 46
100.0000000000031
 71
5
 72
5
  1
ĐÁY
  0
CIRCLE
  5
99
330
17
100
AcDbEntity
  8
0
 62
2
 48
3.0
100
AcDbCircle
 10
774.4699304074511
 20
893.4024306076244
 30
0.0
 40
1.5
  0
CIRCLE
  5
9A
330
17
100
AcDbEntity
  8
0
 62
2
 48
3.0
100
AcDbCircle
 10
774.4699304074511
 20
796.4024306076244
 30
0.0
 40
1.5
  0
CIRCLE
  5
9B
330
17
100
AcDbEntity
  8
0
 62
2
 48
3.0
100
AcDbCircle
 10
774.4699304074511
 20
1173.4024306076244
 30
0.0
 40
1.5
  0
CIRCLE
  5
9C
330
17
100
AcDbEntity
  8
0
 62
2
 48
3.0
100
AcDbCircle
 10
774.4699304074511
 20
1076.4024306076244
 30
0.0
 40
1.5
  0
CIRCLE
  5
9D
330
17
100
AcDbEntity
  8
0
 62
2
 48
3.0
100
AcDbCircle
 10
774.4699304074511
 20
1576.4024306076171
 30
0.0
 40
1.5
  0
CIRCLE
  5
9E
330
17
100
AcDbEntity
  8
0
 62
2
 48
3.0
100
AcDbCircle
 10
774.4699304074511
 20
1479.4024306076171
 30
0.0
 40
1.5
  0
CIRCLE
  5
9F
330
17
100
AcDbEntity
  8
0
 62
2
 48
3.0
100
AcDbCircle
 10
774.4699304074511
 20
1856.4024306076171
 30
0.0
 40
1.5
  0
CIRCLE
  5
A0
330
17
100
AcDbEntity
  8
0
 62
2
 48
3.0
100
AcDbCircle
 10
774.4699304074511
 20
1759.4024306076171
 30
0.0
 40
1.5
  0
CIRCLE
  5
A1
330
17
100
AcDbEntity
  8
0
 62
2
 48
3.0
100
AcDbCircle
 10
1077.469930407451
 20
1856.4024306076171
 30
0.0
 40
1.5
  0
CIRCLE
  5
A2
330
17
100
AcDbEntity
  8
0
 62
2
 48
3.0
100
AcDbCircle
 10
1077.469930407451
 20
1759.4024306076171
 30
0.0
 40
1.5
  0
CIRCLE
  5
A3
330
17
100
AcDbEntity
  8
0
 62
2
 48
3.0
100
AcDbCircle
 10
1077.469930407451
 20
1576.4024306076171
 30
0.0
 40
1.5
  0
CIRCLE
  5
A4
330
17
100
AcDbEntity
  8
0
 62
2
 48
3.0
100
AcDbCircle
 10
1077.469930407451
 20
1479.4024306076171
 30
0.0
 40
1.5
  0
CIRCLE
  5
A5
330
17
100
AcDbEntity
  8
0
 62
2
 48
3.0
100
AcDbCircle
 10
1077.469930407451
 20
1173.4024306076244
 30
0.0
 40
1.5
  0
CIRCLE
  5
A6
330
17
100
AcDbEntity
  8
0
 62
2
 48
3.0
100
AcDbCircle
 10
1077.469930407451
 20
1076.4024306076244
 30
0.0
 40
1.5
  0
CIRCLE
  5
A7
330
17
100
AcDbEntity
  8
0
 62
2
 48
3.0
100
AcDbCircle
 10
1077.469930407451
 20
893.4024306076244
 30
0.0
 40
1.5
  0
CIRCLE
  5
A8
330
17
100
AcDbEntity
  8
0
 62
2
 48
3.0
100
AcDbCircle
 10
1077.469930407451
 20
796.4024306076244
 30
0.0
 40
1.5
  0
CIRCLE
  5
A9
330
17
100
AcDbEntity
  8
0
 62
2
 48
3.0
100
AcDbCircle
 10
876.1445691766603
 20
789.854925737789
 30
0.0
 40
1.5
  0
CIRCLE
  5
AA
330
17
100
AcDbEntity
  8
0
 62
2
 48
3.0
100
AcDbCircle
 10
973.1445691766603
 20
789.854925737789
 30
0.0
 40
1.5
  0
CIRCLE
  5
AB
330
17
100
AcDbEntity
  8
0
 62
2
 48
3.0
100
AcDbCircle
 10
876.1445691766603
 20
1862.9499354774598
 30
0.0
 40
1.5
  0
CIRCLE
  5
AC
330
17
100
AcDbEntity
  8
0
 62
2
 48
3.0
100
AcDbCircle
 10
973.1445691766603
 20
1862.9499354774598
 30
0.0
 40
1.5
  0
ENDSEC
  0
SECTION
  2
OBJECTS
  0
DICTIONARY
  5
A
330
0
100
AcDbDictionary
281
1
  3
ACAD_COLOR
350
B
  3
ACAD_GROUP
350
C
  3
ACAD_LAYOUT
350
D
  3
ACAD_MATERIAL
350
E
  3
ACAD_MLEADERSTYLE
350
F
  3
ACAD_MLINESTYLE
350
10
  3
ACAD_PLOTSETTINGS
350
11
  3
ACAD_PLOTSTYLENAME
350
12
  3
ACAD_SCALELIST
350
14
  3
ACAD_TABLESTYLE
350
15
  3
ACAD_VISUALSTYLE
350
16
  3
EZDXF_META
350
2D
  0
DICTIONARY
  5
B
330
A
100
AcDbDictionary
281
1
  0
DICTIONARY
  5
C
330
A
100
AcDbDictionary
281
1
  0
DICTIONARY
  5
D
330
A
100
AcDbDictionary
281
1
  3
Model
350
1A
  3
Layout1
350
1E
  0
DICTIONARY
  5
E
330
A
100
AcDbDictionary
281
1
  3
ByBlock
350
1F
  3
ByLayer
350
20
  3
Global
350
21
  0
DICTIONARY
  5
F
330
A
100
AcDbDictionary
281
1
  3
Standard
350
2C
  0
DICTIONARY
  5
10
330
A
100
AcDbDictionary
281
1
  3
Standard
350
22
  0
DICTIONARY
  5
11
330
A
100
AcDbDictionary
281
1
  0
ACDBDICTIONARYWDFLT
  5
12
330
A
100
AcDbDictionary
281
1
  3
Normal
350
13
100
AcDbDictionaryWithDefault
340
13
  0
ACDBPLACEHOLDER
  5
13
330
12
  0
DICTIONARY
  5
14
330
A
100
AcDbDictionary
281
1
  0
DICTIONARY
  5
15
330
A
100
AcDbDictionary
281
1
  0
DICTIONARY
  5
16
330
A
100
AcDbDictionary
281
1
  0
LAYOUT
  5
1A
330
D
100
AcDbPlotSettings
  1

  4
A3
  6

 40
7.5
 41
20.0
 42
7.5
 43
20.0
 44
420.0
 45
297.0
 46
0.0
 47
0.0
 48
0.0
 49
0.0
140
0.0
141
0.0
142
1.0
143
1.0
 70
1024
 72
1
 73
0
 74
5
  7

 75
16
 76
0
 77
2
 78
300
147
1.0
148
0.0
149
0.0
100
AcDbLayout
  1
Model
 70
1
 71
0
 10
0.0
 20
0.0
 11
420.0
 21
297.0
 12
0.0
 22
0.0
 32
0.0
 14
1e+20
 24
1e+20
 34
1e+20
 15
-1e+20
 25
-1e+20
 35
-1e+20
146
0.0
 13
0.0
 23
0.0
 33
0.0
 16
1.0
 26
0.0
 36
0.0
 17
0.0
 27
1.0
 37
0.0
 76
1
330
17
  0
LAYOUT
  5
1E
330
D
100
AcDbPlotSettings
  1

  4
A3
  6

 40
7.5
 41
20.0
 42
7.5
 43
20.0
 44
420.0
 45
297.0
 46
0.0
 47
0.0
 48
0.0
 49
0.0
140
0.0
141
0.0
142
1.0
143
1.0
 70
0
 72
1
 73
0
 74
5
  7

 75
16
 76
0
 77
2
 78
300
147
1.0
148
0.0
149
0.0
100
AcDbLayout
  1
Layout1
 70
1
 71
1
 10
0.0
 20
0.0
 11
420.0
 21
297.0
 12
0.0
 22
0.0
 32
0.0
 14
1e+20
 24
1e+20
 34
1e+20
 15
-1e+20
 25
-1e+20
 35
-1e+20
146
0.0
 13
0.0
 23
0.0
 33
0.0
 16
1.0
 26
0.0
 36
0.0
 17
0.0
 27
1.0
 37
0.0
 76
1
330
1B
  0
MATERIAL
  5
1F
102
{ACAD_REACTORS
330
E
102
}
330
E
100
AcDbMaterial
  1
ByBlock
  2

 70
0
 40
1.0
 71
1
 41
1.0
 91
-1023410177
 42
1.0
 72
1
  3

 73
1
 74
1
 75
1
 44
0.5
 73
0
 45
1.0
 46
1.0
 77
1
  4

 78
1
 79
1
170
1
 48
1.0
171
1
  6

172
1
173
1
174
1
140
1.0
141
1.0
175
1
  7

176
1
177
1
178
1
143
1.0
179
1
  8

270
1
271
1
272
1
145
1.0
146
1.0
273
1
  9

274
1
275
1
276
1
 42
1.0
 72
1
  3

 73
1
 74
1
 75
1
 94
63
  0
MATERIAL
  5
20
102
{ACAD_REACTORS
330
E
102
}
330
E
100
AcDbMaterial
  1
ByLayer
  2

 70
0
 40
1.0
 71
1
 41
1.0
 91
-1023410177
 42
1.0
 72
1
  3

 73
1
 74
1
 75
1
 44
0.5
 73
0
 45
1.0
 46
1.0
 77
1
  4

 78
1
 79
1
170
1
 48
1.0
171
1
  6

172
1
173
1
174
1
140
1.0
141
1.0
175
1
  7

176
1
177
1
178
1
143
1.0
179
1
  8

270
1
271
1
272
1
145
1.0
146
1.0
273
1
  9

274
1
275
1
276
1
 42
1.0
 72
1
  3

 73
1
 74
1
 75
1
 94
63
  0
MATERIAL
  5
21
102
{ACAD_REACTORS
330
E
102
}
330
E
100
AcDbMaterial
  1
Global
  2

 70
0
 40
1.0
 71
1
 41
1.0
 91
-1023410177
 42
1.0
 72
1
  3

 73
1
 74
1
 75
1
 44
0.5
 73
0
 45
1.0
 46
1.0
 77
1
  4

 78
1
 79
1
170
1
 48
1.0
171
1
  6

172
1
173
1
174
1
140
1.0
141
1.0
175
1
  7

176
1
177
1
178
1
143
1.0
179
1
  8

270
1
271
1
272
1
145
1.0
146
1.0
273
1
  9

274
1
275
1
276
1
 42
1.0
 72
1
  3

 73
1
 74
1
 75
1
 94
63
  0
MLINESTYLE
  5
22
102
{ACAD_REACTORS
330
10
102
}
330
10
100
AcDbMlineStyle
  2
Standard
 70
0
  3

 62
256
 51
90.0
 52
90.0
 71
2
 49
0.5
 62
256
  6
BYLAYER
 49
-0.5
 62
256
  6
BYLAYER
  0
MLEADERSTYLE
  5
2C
102
{ACAD_REACTORS
330
F
102
}
330
F
100
AcDbMLeaderStyle
179
2
170
2
171
1
172
0
 90
2
 40
0.0
 41
0.0
173
1
 91
-1056964608
 92
-2
290
1
 42
2.0
291
1
 43
8.0
  3
Standard
 44
4.0
300

342
29
174
1
175
1
176
0
178
1
 93
-1056964608
 45
4.0
292
0
297
0
 46
4.0
 94
-1056964608
 47
1.0
 49
1.0
140
1.0
294
1
141
0.0
177
0
142
1.0
295
0
296
0
143
3.75
271
0
272
9
273
9
  0
DICTIONARY
  5
2D
330
A
100
AcDbDictionary
280
1
281
1
  3
CREATED_BY_EZDXF
350
2E
  3
WRITTEN_BY_EZDXF
350
135
  0
DICTIONARYVAR
  5
2E
330
2D
100
DictionaryVariables
280
0
  1
1.4.4 @ 2026-09-24T06:32:05.762425+00:00
  0
DICTIONARYVAR
  5
135
330
2D
100
DictionaryVariables
280
0
  1
1.4.4 @ 2026-09-24T06:37:23.644850+00:00
  0
ENDSEC
  0
EOF
