  0
SECTION
  2
HEADER
  9
$ACADVER
  1
AC1032
  9
$ACADMAINTVER
 90
4
  9
$DWGCODEPAGE
  3
ANSI_1252
  9
$LASTSAVEDBY
  1
ezdxf
  9
$REQUIREDVERSIONS
160
0
  9
$INSBASE
 10
0.0
 20
0.0
 30
0.0
  9
$EXTMIN
 10
1e+20
 20
1e+20
 30
1e+20
  9
$EXTMAX
 10
-1e+20
 20
-1e+20
 30
-1e+20
  9
$LIMMIN
 10
0.0
 20
0.0
  9
$LIMMAX
 10
420.0
 20
297.0
  9
$ORTHOMODE
 70
0
  9
$REGENMODE
 70
1
  9
$FILLMODE
 70
1
  9
$QTEXTMODE
 70
0
  9
$MIRRTEXT
 70
1
  9
$LTSCALE
 40
1.0
  9
$ATTMODE
 70
1
  9
$TEXTSIZE
 40
2.5
  9
$TRACEWID
 40
1.0
  9
$TEXTSTYLE
  7
Standard
  9
$CLAYER
  8
0
  9
$CELTYPE
  6
ByLayer
  9
$CECOLOR
 62
256
  9
$CELTSCALE
 40
1.0
  9
$DISPSILH
 70
0
  9
$DIMSCALE
 40
1.0
  9
$DIMASZ
 40
2.5
  9
$DIMEXO
 40
0.625
  9
$DIMDLI
 40
3.75
  9
$DIMRND
 40
0.0
  9
$DIMDLE
 40
0.0
  9
$DIMEXE
 40
1.25
  9
$DIMTP
 40
0.0
  9
$DIMTM
 40
0.0
  9
$DIMTXT
 40
2.5
  9
$DIMCEN
 40
2.5
  9
$DIMTSZ
 40
0.0
  9
$DIMTOL
 70
0
  9
$DIMLIM
 70
0
  9
$DIMTIH
 70
0
  9
$DIMTOH
 70
0
  9
$DIMSE1
 70
0
  9
$DIMSE2
 70
0
  9
$DIMTAD
 70
1
  9
$DIMZIN
 70
8
  9
$DIMBLK
  1

  9
$DIMASO
 70
1
  9
$DIMSHO
 70
1
  9
$DIMPOST
  1

  9
$DIMAPOST
  1

  9
$DIMALT
 70
0
  9
$DIMALTD
 70
3
  9
$DIMALTF
 40
0.03937007874
  9
$DIMLFAC
 40
1.0
  9
$DIMTOFL
 70
1
  9
$DIMTVP
 40
0.0
  9
$DIMTIX
 70
0
  9
$DIMSOXD
 70
0
  9
$DIMSAH
 70
0
  9
$DIMBLK1
  1

  9
$DIMBLK2
  1

  9
$DIMSTYLE
  2
ISO-25
  9
$DIMCLRD
 70
0
  9
$DIMCLRE
 70
0
  9
$DIMCLRT
 70
0
  9
$DIMTFAC
 40
1.0
  9
$DIMGAP
 40
0.625
  9
$DIMJUST
 70
0
  9
$DIMSD1
 70
0
  9
$DIMSD2
 70
0
  9
$DIMTOLJ
 70
0
  9
$DIMTZIN
 70
8
  9
$DIMALTZ
 70
0
  9
$DIMALTTZ
 70
0
  9
$DIMUPT
 70
0
  9
$DIMDEC
 70
2
  9
$DIMTDEC
 70
2
  9
$DIMALTU
 70
2
  9
$DIMALTTD
 70
3
  9
$DIMTXSTY
  7
Standard
  9
$DIMAUNIT
 70
0
  9
$DIMADEC
 70
0
  9
$DIMALTRND
 40
0.0
  9
$DIMAZIN
 70
0
  9
$DIMDSEP
 70
44
  9
$DIMATFIT
 70
3
  9
$DIMFRAC
 70
0
  9
$DIMLDRBLK
  1

  9
$DIMLUNIT
 70
2
  9
$DIMLWD
 70
-2
  9
$DIMLWE
 70
-2
  9
$DIMTMOVE
 70
0
  9
$DIMFXL
 40
1.0
  9
$DIMFXLON
 70
0
  9
$DIMJOGANG
 40
0.785398163397
  9
$DIMTFILL
 70
0
  9
$DIMTFILLCLR
 70
0
  9
$DIMARCSYM
 70
0
  9
$DIMLTYPE
  6

  9
$DIMLTEX1
  6

  9
$DIMLTEX2
  6

  9
$DIMTXTDIRECTION
 70
0
  9
$LUNITS
 70
2
  9
$LUPREC
 70
4
  9
$SKETCHINC
 40
1.0
  9
$FILLETRAD
 40
10.0
  9
$AUNITS
 70
0
  9
$AUPREC
 70
2
  9
$MENU
  1
.
  9
$ELEVATION
 40
0.0
  9
$PELEVATION
 40
0.0
  9
$THICKNESS
 40
0.0
  9
$LIMCHECK
 70
0
  9
$CHAMFERA
 40
0.0
  9
$CHAMFERB
 40
0.0
  9
$CHAMFERC
 40
0.0
  9
$CHAMFERD
 40
0.0
  9
$SKPOLY
 70
0
  9
$TDCREATE
 40
2461308.567847222
  9
$TDUCREATE
 40
2458532.153996898
  9
$TDUPDATE
 40
2461308.567847222
  9
$TDUUPDATE
 40
2458532.1544311
  9
$TDINDWG
 40
0.0
  9
$TDUSRTIMER
 40
0.0
  9
$USRTIMER
 70
1
  9
$ANGBASE
 50
0.0
  9
$ANGDIR
 70
0
  9
$PDMODE
 70
0
  9
$PDSIZE
 40
0.0
  9
$PLINEWID
 40
0.0
  9
$SPLFRAME
 70
0
  9
$SPLINETYPE
 70
6
  9
$SPLINESEGS
 70
8
  9
$HANDSEED
  5
274
  9
$SURFTAB1
 70
6
  9
$SURFTAB2
 70
6
  9
$SURFTYPE
 70
6
  9
$SURFU
 70
6
  9
$SURFV
 70
6
  9
$UCSBASE
  2

  9
$UCSNAME
  2

  9
$UCSORG
 10
0.0
 20
0.0
 30
0.0
  9
$UCSXDIR
 10
1.0
 20
0.0
 30
0.0
  9
$UCSYDIR
 10
0.0
 20
1.0
 30
0.0
  9
$UCSORTHOREF
  2

  9
$UCSORTHOVIEW
 70
0
  9
$UCSORGTOP
 10
0.0
 20
0.0
 30
0.0
  9
$UCSORGBOTTOM
 10
0.0
 20
0.0
 30
0.0
  9
$UCSORGLEFT
 10
0.0
 20
0.0
 30
0.0
  9
$UCSORGRIGHT
 10
0.0
 20
0.0
 30
0.0
  9
$UCSORGFRONT
 10
0.0
 20
0.0
 30
0.0
  9
$UCSORGBACK
 10
0.0
 20
0.0
 30
0.0
  9
$PUCSBASE
  2

  9
$PUCSNAME
  2

  9
$PUCSORG
 10
0.0
 20
0.0
 30
0.0
  9
$PUCSXDIR
 10
1.0
 20
0.0
 30
0.0
  9
$PUCSYDIR
 10
0.0
 20
1.0
 30
0.0
  9
$PUCSORTHOREF
  2

  9
$PUCSORTHOVIEW
 70
0
  9
$PUCSORGTOP
 10
0.0
 20
0.0
 30
0.0
  9
$PUCSORGBOTTOM
 10
0.0
 20
0.0
 30
0.0
  9
$PUCSORGLEFT
 10
0.0
 20
0.0
 30
0.0
  9
$PUCSORGRIGHT
 10
0.0
 20
0.0
 30
0.0
  9
$PUCSORGFRONT
 10
0.0
 20
0.0
 30
0.0
  9
$PUCSORGBACK
 10
0.0
 20
0.0
 30
0.0
  9
$USERI1
 70
0
  9
$USERI2
 70
0
  9
$USERI3
 70
0
  9
$USERI4
 70
0
  9
$USERI5
 70
0
  9
$USERR1
 40
0.0
  9
$USERR2
 40
0.0
  9
$USERR3
 40
0.0
  9
$USERR4
 40
0.0
  9
$USERR5
 40
0.0
  9
$WORLDVIEW
 70
1
  9
$SHADEDGE
 70
3
  9
$SHADEDIF
 70
70
  9
$TILEMODE
 70
1
  9
$MAXACTVP
 70
64
  9
$PINSBASE
 10
0.0
 20
0.0
 30
0.0
  9
$PLIMCHECK
 70
0
  9
$PEXTMIN
 10
1e+20
 20
1e+20
 30
1e+20
  9
$PEXTMAX
 10
-1e+20
 20
-1e+20
 30
-1e+20
  9
$PLIMMIN
 10
0.0
 20
0.0
  9
$PLIMMAX
 10
420.0
 20
297.0
  9
$UNITMODE
 70
0
  9
$VISRETAIN
 70
1
  9
$PLINEGEN
 70
0
  9
$PSLTSCALE
 70
1
  9
$TREEDEPTH
 70
3020
  9
$CMLSTYLE
  2
Standard
  9
$CMLJUST
 70
0
  9
$CMLSCALE
 40
20.0
  9
$PROXYGRAPHICS
 70
1
  9
$MEASUREMENT
 70
1
  9
$CELWEIGHT
370
-1
  9
$ENDCAPS
280
0
  9
$JOINSTYLE
280
0
  9
$LWDISPLAY
290
0
  9
$INSUNITS
 70
4
  9
$HYPERLINKBASE
  1

  9
$STYLESHEET
  1

  9
$XEDIT
290
1
  9
$CEPSNTYPE
380
0
  9
$PSTYLEMODE
290
1
  9
$FINGERPRINTGUID
  2
{4B2464AA-3985-40E1-A2A4-C0670A3CDC02}
  9
$VERSIONGUID
  2
{4BC30600-50C7-4CD1-A104-7C7FB84AB3E3}
  9
$EXTNAMES
290
1
  9
$PSVPSCALE
 40
0.0
  9
$OLESTARTUP
290
0
  9
$SORTENTS
280
127
  9
$INDEXCTL
280
0
  9
$HIDETEXT
280
1
  9
$XCLIPFRAME
280
1
  9
$HALOGAP
280
0
  9
$OBSCOLOR
 70
257
  9
$OBSLTYPE
280
0
  9
$INTERSECTIONDISPLAY
280
0
  9
$INTERSECTIONCOLOR
 70
257
  9
$DIMASSOC
280
2
  9
$PROJECTNAME
  1

  9
$CAMERADISPLAY
290
0
  9
$LENSLENGTH
 40
50.0
  9
$CAMERAHEIGHT
 40
0.0
  9
$STEPSPERSEC
 40
24.0
  9
$STEPSIZE
 40
100.0
  9
$3DDWFPREC
 40
2.0
  9
$PSOLWIDTH
 40
0.005
  9
$PSOLHEIGHT
 40
0.08
  9
$LOFTANG1
 40
1.570796326795
  9
$LOFTANG2
 40
1.570796326795
  9
$LOFTMAG1
 40
0.0
  9
$LOFTMAG2
 40
0.0
  9
$LOFTPARAM
 70
7
  9
$LOFTNORMALS
280
1
  9
$LATITUDE
 40
37.795
  9
$LONGITUDE
 40
-122.394
  9
$NORTHDIRECTION
 40
0.0
  9
$TIMEZONE
 70
-8000
  9
$LIGHTGLYPHDISPLAY
280
1
  9
$TILEMODELIGHTSYNCH
280
1
  9
$CMATERIAL
347
20
  9
$SOLIDHIST
280
0
  9
$SHOWHIST
280
1
  9
$DWFFRAME
280
2
  9
$DGNFRAME
280
2
  9
$REALWORLDSCALE
290
1
  9
$INTERFERECOLOR
 62
256
  9
$CSHADOW
280
0
  9
$SHADOWPLANELOCATION
 40
0.0
  0
ENDSEC
  0
SECTION
  2
CLASSES
  0
CLASS
  1
ACDBDICTIONARYWDFLT
  2
AcDbDictionaryWithDefault
  3
ObjectDBX Classes
 90
0
 91
0
280
0
281
0
  0
CLASS
  1
SUN
  2
AcDbSun
  3
SCENEOE
 90
1153
 91
0
280
0
281
0
  0
CLASS
  1
VISUALSTYLE
  2
AcDbVisualStyle
  3
ObjectDBX Classes
 90
4095
 91
0
280
0
281
0
  0
CLASS
  1
MATERIAL
  2
AcDbMaterial
  3
ObjectDBX Classes
 90
1153
 91
0
280
0
281
0
  0
CLASS
  1
SCALE
  2
AcDbScale
  3
ObjectDBX Classes
 90
1153
 91
0
280
0
281
0
  0
CLASS
  1
TABLESTYLE
  2
AcDbTableStyle
  3
ObjectDBX Classes
 90
4095
 91
0
280
0
281
0
  0
CLASS
  1
MLEADERSTYLE
  2
AcDbMLeaderStyle
  3
ACDB_MLEADERSTYLE_CLASS
 90
4095
 91
0
280
0
281
0
  0
CLASS
  1
DICTIONARYVAR
  2
AcDbDictionaryVar
  3
ObjectDBX Classes
 90
0
 91
0
280
0
281
0
  0
CLASS
  1
CELLSTYLEMAP
  2
AcDbCellStyleMap
  3
ObjectDBX Classes
 90
1152
 91
0
280
0
281
0
  0
CLASS
  1
MENTALRAYRENDERSETTINGS
  2
AcDbMentalRayRenderSettings
  3
SCENEOE
 90
1024
 91
0
280
0
281
0
  0
CLASS
  1
ACDBDETAILVIEWSTYLE
  2
AcDbDetailViewStyle
  3
ObjectDBX Classes
 90
1025
 91
0
280
0
281
0
  0
CLASS
  1
ACDBSECTIONVIEWSTYLE
  2
AcDbSectionViewStyle
  3
ObjectDBX Classes
 90
1025
 91
0
280
0
281
0
  0
CLASS
  1
RASTERVARIABLES
  2
AcDbRasterVariables
  3
ISM
 90
0
 91
0
280
0
281
0
  0
CLASS
  1
ACDBPLACEHOLDER
  2
AcDbPlaceHolder
  3
ObjectDBX Classes
 90
0
 91
0
280
0
281
0
  0
CLASS
  1
LAYOUT
  2
AcDbLayout
  3
ObjectDBX Classes
 90
0
 91
0
280
0
281
0
  0
ENDSEC
  0
SECTION
  2
TABLES
  0
TABLE
  2
VPORT
  5
8
330
0
100
AcDbSymbolTable
 70
1
  0
VPORT
  5
23
330
8
100
AcDbSymbolTableRecord
100
AcDbViewportTableRecord
  2
*Active
 70
0
 10
0.0
 20
0.0
 11
1.0
 21
1.0
 12
0.0
 22
0.0
 13
0.0
 23
0.0
 14
0.5
 24
0.5
 15
0.5
 25
0.5
 16
0.0
 26
0.0
 36
1.0
 17
0.0
 27
0.0
 37
0.0
 40
1000.0
 41
1.34
 42
50.0
 43
0.0
 44
0.0
 50
0.0
 51
0.0
 71
0
 72
1000
 73
1
 74
3
 75
0
 76
0
 77
0
 78
0
281
0
 65
0
146
0.0
  0
ENDTAB
  0
TABLE
  2
LTYPE
  5
2
330
0
100
AcDbSymbolTable
 70
3
  0
LTYPE
  5
24
330
2
100
AcDbSymbolTableRecord
100
AcDbLinetypeTableRecord
  2
ByBlock
 70
0
  3

 72
65
 73
0
 40
0.0
  0
LTYPE
  5
25
330
2
100
AcDbSymbolTableRecord
100
AcDbLinetypeTableRecord
  2
ByLayer
 70
0
  3

 72
65
 73
0
 40
0.0
  0
LTYPE
  5
26
330
2
100
AcDbSymbolTableRecord
100
AcDbLinetypeTableRecord
  2
Continuous
 70
0
  3

 72
65
 73
0
 40
0.0
  0
ENDTAB
  0
TABLE
  2
LAYER
  5
1
330
0
100
AcDbSymbolTable
 70
4
  0
LAYER
  5
27
330
1
100
AcDbSymbolTableRecord
100
AcDbLayerTableRecord
  2
0
 70
0
 62
7
  6
Continuous
370
-3
390
13
347
21
  0
LAYER
  5
28
330
1
100
AcDbSymbolTableRecord
100
AcDbLayerTableRecord
  2
Defpoints
 70
0
 62
7
  6
Continuous
290
0
370
-3
390
13
347
21
  0
LAYER
  5
128
330
1
100
AcDbSymbolTableRecord
100
AcDbLayerTableRecord
  2
CNC
 70
0
 62
7
  6
Continuous
370
-3
390
13
347
21
  0
LAYER
  5
129
330
1
100
AcDbSymbolTableRecord
100
AcDbLayerTableRecord
  2
DIM
 70
0
 62
253
  6
Continuous
370
-3
390
13
347
21
  0
ENDTAB
  0
TABLE
  2
STYLE
  5
5
330
0
100
AcDbSymbolTable
 70
3
  0
STYLE
  5
29
330
5
100
AcDbSymbolTableRecord
100
AcDbTextStyleTableRecord
  2
Standard
 70
0
 40
0.0
 41
1.0
 50
0.0
 71
0
 42
2.5
  3
txt
  4

  0
STYLE
  5
12A
330
5
100
AcDbSymbolTableRecord
100
AcDbTextStyleTableRecord
  2
Tahoma (Input Text)
 70
0
 40
0.0
 41
1.0
 50
0.0
 71
0
 42
25.0
  3
tahoma.ttf
  4

  0
STYLE
  5
12B
330
5
100
AcDbSymbolTableRecord
100
AcDbTextStyleTableRecord
  2
Arial
 70
0
 40
0.0
 41
1.0
 50
0.0
 71
0
 42
0.2
  3
arial.ttf
  4

  0
ENDTAB
  0
TABLE
  2
VIEW
  5
7
330
0
100
AcDbSymbolTable
 70
0
  0
ENDTAB
  0
TABLE
  2
UCS
  5
6
330
0
100
AcDbSymbolTable
 70
0
  0
ENDTAB
  0
TABLE
  2
APPID
  5
3
330
0
100
AcDbSymbolTable
 70
3
  0
APPID
  5
2A
330
3
100
AcDbSymbolTableRecord
100
AcDbRegAppTableRecord
  2
ACAD
 70
0
  0
APPID
  5
12C
330
3
100
AcDbSymbolTableRecord
100
AcDbRegAppTableRecord
  2
HATCHBACKGROUNDCOLOR
 70
0
  0
APPID
  5
12D
330
3
100
AcDbSymbolTableRecord
100
AcDbRegAppTableRecord
  2
EZDXF
 70
0
  0
ENDTAB
  0
TABLE
  2
DIMSTYLE
  5
4
330
0
100
AcDbSymbolTable
 70
3
100
AcDbDimStyleTable
  0
DIMSTYLE
105
2B
330
4
100
AcDbSymbolTableRecord
100
AcDbDimStyleTableRecord
  2
Standard
 70
0
 40
1.0
 41
2.5
 42
0.625
 43
3.75
 44
1.25
 45
0.0
 46
0.0
 47
0.0
 48
0.0
 49
2.5
140
2.5
141
2.5
142
0.0
143
0.03937007874
144
1.0
145
0.0
146
1.0
147
0.625
148
0.0
 69
0
 70
0
 71
0
 72
0
 73
0
 74
0
 75
0
 76
0
 77
1
 78
8
 79
3
170
0
171
3
172
1
173
0
174
0
175
0
176
0
177
0
178
0
179
2
271
2
272
2
273
2
274
3
275
0
276
0
277
2
278
44
279
0
280
0
281
0
282
0
283
0
284
8
285
0
286
0
288
0
289
3
290
0
371
-2
372
-2
  0
DIMSTYLE
105
126
330
4
100
AcDbSymbolTableRecord
100
AcDbDimStyleTableRecord
  2
Dim-25
 70
0
 40
1.0
 41
8.0
 42
15.0
 43
3.75
 44
10.0
 45
0.0
 46
0.0
 47
0.0
 48
0.0
 49
2.5
140
25.0
141
10.0
142
0.0
143
0.03937007874016
144
1.0
145
0.0
146
1.0
147
10.0
148
0.0
 69
0
 70
0
 71
0
 72
0
 73
0
 74
0
 75
0
 76
0
 77
1
 78
8
 79
3
170
0
171
3
172
1
173
0
174
0
175
0
176
5
177
5
178
3
179
2
271
0
272
0
273
2
274
3
275
0
276
0
277
2
278
44
279
0
280
0
281
0
282
0
283
0
284
8
285
0
286
0
288
0
289
3
290
0
340
29
341
3A
342
3A
345
25
346
25
347
25
371
9
372
9
  0
DIMSTYLE
105
127
330
4
100
AcDbSymbolTableRecord
100
AcDbDimStyleTableRecord
  2
Dim-15
 70
0
 40
1.0
 41
5.0
 42
8.0
 43
3.75
 44
5.0
 45
0.0
 46
0.0
 47
0.0
 48
0.0
 49
2.5
140
15.0
141
10.0
142
0.0
143
0.03937007874016
144
1.0
145
0.0
146
1.0
147
5.0
148
0.0
 69
0
 70
0
 71
0
 72
0
 73
0
 74
0
 75
0
 76
0
 77
1
 78
8
 79
3
170
0
171
3
172
1
173
0
174
0
175
0
176
5
177
5
178
3
179
2
271
0
272
0
273
2
274
3
275
0
276
0
277
2
278
44
279
0
280
0
281
0
282
0
283
0
284
8
285
0
286
0
288
0
289
3
290
0
340
29
341
3A
342
3A
345
25
346
25
347
25
371
9
372
9
  0
ENDTAB
  0
TABLE
  2
BLOCK_RECORD
  5
9
330
0
100
AcDbSymbolTable
 70
29
  0
BLOCK_RECORD
  5
17
330
9
100
AcDbSymbolTableRecord
100
AcDbBlockTableRecord
  2
*Model_Space
340
1A
 70
0
280
1
281
0
  0
BLOCK_RECORD
  5
1B
330
9
100
AcDbSymbolTableRecord
100
AcDbBlockTableRecord
  2
*Paper_Space
340
1E
 70
0
280
1
281
0
  0
BLOCK_RECORD
  5
3A
330
9
100
AcDbSymbolTableRecord
100
AcDbBlockTableRecord
  2
_Oblique
340
0
 70
0
280
1
281
0
  0
BLOCK_RECORD
  5
F1
330
9
100
AcDbSymbolTableRecord
100
AcDbBlockTableRecord
  2
f3daunguoc
340
0
 70
0
280
1
281
0
  0
BLOCK_RECORD
  5
F5
330
9
100
AcDbSymbolTableRecord
100
AcDbBlockTableRecord
  2
khungtenAsean2
340
0
 70
0
280
1
281
0
  0
BLOCK_RECORD
  5
119
330
9
100
AcDbSymbolTableRecord
100
AcDbBlockTableRecord
  2
Tai treo
340
0
 70
0
280
1
281
0
  0
BLOCK_RECORD
  5
159
330
9
100
AcDbSymbolTableRecord
100
AcDbBlockTableRecord
  2
*D1
340
0
 70
0
280
1
281
0
  0
BLOCK_RECORD
  5
165
330
9
100
AcDbSymbolTableRecord
100
AcDbBlockTableRecord
  2
*D2
340
0
 70
0
280
1
281
0
  0
BLOCK_RECORD
  5
171
330
9
100
AcDbSymbolTableRecord
100
AcDbBlockTableRecord
  2
*D3
340
0
 70
0
280
1
281
0
  0
BLOCK_RECORD
  5
17D
330
9
100
AcDbSymbolTableRecord
100
AcDbBlockTableRecord
  2
*D4
340
0
 70
0
280
1
281
0
  0
BLOCK_RECORD
  5
189
330
9
100
AcDbSymbolTableRecord
100
AcDbBlockTableRecord
  2
*D5
340
0
 70
0
280
1
281
0
  0
BLOCK_RECORD
  5
196
330
9
100
AcDbSymbolTableRecord
100
AcDbBlockTableRecord
  2
*D6
340
0
 70
0
280
1
281
0
  0
BLOCK_RECORD
  5
1A2
330
9
100
AcDbSymbolTableRecord
100
AcDbBlockTableRecord
  2
*D7
340
0
 70
0
280
1
281
0
  0
BLOCK_RECORD
  5
1AE
330
9
100
AcDbSymbolTableRecord
100
AcDbBlockTableRecord
  2
*D8
340
0
 70
0
280
1
281
0
  0
BLOCK_RECORD
  5
1BB
330
9
100
AcDbSymbolTableRecord
100
AcDbBlockTableRecord
  2
*D9
340
0
 70
0
280
1
281
0
  0
BLOCK_RECORD
  5
1C7
330
9
100
AcDbSymbolTableRecord
100
AcDbBlockTableRecord
  2
*D10
340
0
 70
0
280
1
281
0
  0
BLOCK_RECORD
  5
1D3
330
9
100
AcDbSymbolTableRecord
100
AcDbBlockTableRecord
  2
*D11
340
0
 70
0
280
1
281
0
  0
BLOCK_RECORD
  5
1DF
330
9
100
AcDbSymbolTableRecord
100
AcDbBlockTableRecord
  2
*D12
340
0
 70
0
280
1
281
0
  0
BLOCK_RECORD
  5
1EC
330
9
100
AcDbSymbolTableRecord
100
AcDbBlockTableRecord
  2
*D13
340
0
 70
0
280
1
281
0
  0
BLOCK_RECORD
  5
1F8
330
9
100
AcDbSymbolTableRecord
100
AcDbBlockTableRecord
  2
*D14
340
0
 70
0
280
1
281
0
  0
BLOCK_RECORD
  5
204
330
9
100
AcDbSymbolTableRecord
100
AcDbBlockTableRecord
  2
*D15
340
0
 70
0
280
1
281
0
  0
BLOCK_RECORD
  5
210
330
9
100
AcDbSymbolTableRecord
100
AcDbBlockTableRecord
  2
*D16
340
0
 70
0
280
1
281
0
  0
BLOCK_RECORD
  5
21C
330
9
100
AcDbSymbolTableRecord
100
AcDbBlockTableRecord
  2
*D17
340
0
 70
0
280
1
281
0
  0
BLOCK_RECORD
  5
22A
330
9
100
AcDbSymbolTableRecord
100
AcDbBlockTableRecord
  2
*D18
340
0
 70
0
280
1
281
0
  0
BLOCK_RECORD
  5
237
330
9
100
AcDbSymbolTableRecord
100
AcDbBlockTableRecord
  2
*D19
340
0
 70
0
280
1
281
0
  0
BLOCK_RECORD
  5
243
330
9
100
AcDbSymbolTableRecord
100
AcDbBlockTableRecord
  2
*D20
340
0
 70
0
280
1
281
0
  0
BLOCK_RECORD
  5
24F
330
9
100
AcDbSymbolTableRecord
100
AcDbBlockTableRecord
  2
*D21
340
0
 70
0
280
1
281
0
  0
BLOCK_RECORD
  5
25B
330
9
100
AcDbSymbolTableRecord
100
AcDbBlockTableRecord
  2
*D22
340
0
 70
0
280
1
281
0
  0
BLOCK_RECORD
  5
267
330
9
100
AcDbSymbolTableRecord
100
AcDbBlockTableRecord
  2
*D23
340
0
 70
0
280
1
281
0
  0
ENDTAB
  0
ENDSEC
  0
SECTION
  2
BLOCKS
  0
BLOCK
  5
18
330
17
100
AcDbEntity
  8
0
100
AcDbBlockBegin
  2
*Model_Space
 70
0
 10
0.0
 20
0.0
 30
0.0
  3
*Model_Space
  1

  0
ENDBLK
  5
19
330
17
100
AcDbEntity
  8
0
100
AcDbBlockEnd
  0
BLOCK
  5
1C
330
1B
100
AcDbEntity
  8
0
100
AcDbBlockBegin
  2
*Paper_Space
 70
0
 10
0.0
 20
0.0
 30
0.0
  3
*Paper_Space
  1

  0
ENDBLK
  5
1D
330
1B
100
AcDbEntity
  8
0
100
AcDbBlockEnd
  0
BLOCK
  5
3B
330
3A
100
AcDbEntity
  8
0
100
AcDbBlockBegin
  2
_Oblique
 70
0
 10
0.0
 20
0.0
 30
0.0
  3
_Oblique
  1

  0
LINE
  5
3D
330
3A
100
AcDbEntity
  8
0
  6
ByBlock
 62
0
370
-2
100
AcDbLine
 10
-0.5
 20
-0.5
 30
0.0
 11
0.5
 21
0.5
 31
0.0
  0
ENDBLK
  5
3C
330
3A
100
AcDbEntity
  8
0
100
AcDbBlockEnd
  0
BLOCK
  5
F2
330
F1
100
AcDbEntity
  8
0
100
AcDbBlockBegin
  2
f3daunguoc
 70
0
 10
0.0
 20
0.0
 30
0.0
  3
f3daunguoc
  1

  0
CIRCLE
  5
F4
330
F1
100
AcDbEntity
  8
CNC
 62
2
370
-3
100
AcDbCircle
 10
0.0
 20
0.0
 30
0.0
 40
1.5
  0
ENDBLK
  5
F3
330
F1
100
AcDbEntity
  8
0
100
AcDbBlockEnd
  0
BLOCK
  5
F6
330
F5
100
AcDbEntity
  8
0
100
AcDbBlockBegin
  2
khungtenAsean2
 70
2
 10
0.0
 20
0.0
 30
0.0
  3
khungtenAsean2
  1

  0
LWPOLYLINE
  5
F8
330
F5
100
AcDbEntity
  8
0
 62
7
100
AcDbPolyline
 90
4
 70
1
 10
0.0
 20
0.0
 10
2970.000000000422
 20
0.0
 10
2970.000000000422
 20
-2100.00000000032
 10
0.0
 20
-2100.00000000032
  0
LINE
  5
F9
330
F5
100
AcDbEntity
  8
0
 62
7
100
AcDbLine
 10
2020.0
 20
-2040.00000000032
 30
0.0
 11
0.0
 21
-2040.00000000032
 31
0.0
  0
LINE
  5
FA
330
F5
100
AcDbEntity
  8
0
 62
7
100
AcDbLine
 10
2970.000000000422
 20
-1980.00000000032
 30
0.0
 11
0.0
 21
-1980.00000000032
 31
0.0
  0
LINE
  5
FB
330
F5
100
AcDbEntity
  8
0
 62
7
100
AcDbLine
 10
320.0
 20
-1980.00000000032
 30
0.0
 11
320.0
 21
-2100.00000000032
 31
0.0
  0
LINE
  5
FC
330
F5
100
AcDbEntity
  8
0
 62
7
100
AcDbLine
 10
890.0
 20
-1980.00000000032
 30
0.0
 11
890.0
 21
-2100.00000000032
 31
0.0
  0
LINE
  5
FD
330
F5
100
AcDbEntity
  8
0
 62
7
100
AcDbLine
 10
1680.0
 20
-1980.00000000032
 30
0.0
 11
1680.0
 21
-2100.00000000032
 31
0.0
  0
LINE
  5
FE
330
F5
100
AcDbEntity
  8
0
 62
7
100
AcDbLine
 10
2020.0
 20
-1980.00000000032
 30
0.0
 11
2020.0
 21
-2100.00000000032
 31
0.0
  0
LINE
  5
FF
330
F5
100
AcDbEntity
  8
0
 62
7
100
AcDbLine
 10
2860.000000000422
 20
-1980.00000000032
 30
0.0
 11
2860.000000000422
 21
-2100.00000000032
 31
0.0
  0
MTEXT
  5
100
330
F5
100
AcDbEntity
  8
0
 62
2
100
AcDbMText
 10
0.0
 20
-2010.00000000032
 30
0.0
 40
20.0
 41
917.6339389950801
 46
60.00000000000113
 71
4
 72
5
  1
  Thiết kế :
  7
Arial
  0
MTEXT
  5
101
330
F5
100
AcDbEntity
  8
0
 62
2
100
AcDbMText
 10
0.0
 20
-2070.00000000032
 30
0.0
 40
20.0
 41
917.6339389950801
 46
60.00000000000113
 71
4
 72
5
  1
  CNC :
  7
Arial
  0
MTEXT
  5
102
330
F5
100
AcDbEntity
  8
0
 62
2
100
AcDbMText
 10
320.0
 20
-2010.00000000032
 30
0.0
 40
20.0
 41
917.6339389950801
 46
60.00000000000113
 71
4
 72
5
  1
  Khách hàng :
  7
Arial
  0
MTEXT
  5
103
330
F5
100
AcDbEntity
  8
0
 62
2
100
AcDbMText
 10
320.0
 20
-2070.00000000032
 30
0.0
 40
20.0
 41
917.6339389950801
 46
60.00000000000113
 71
4
 72
5
  1
  Giao hàng :
  7
Arial
  0
MTEXT
  5
104
330
F5
100
AcDbEntity
  8
0
 62
2
100
AcDbMText
 10
890.0
 20
-2010.00000000032
 30
0.0
 40
20.0
 41
917.6339389950801
 46
60.00000000000113
 71
4
 72
5
  1
  Tên sản phẩm :
  7
Arial
  0
MTEXT
  5
105
330
F5
100
AcDbEntity
  8
0
 62
2
100
AcDbMText
 10
890.0
 20
-2070.00000000032
 30
0.0
 40
20.0
 41
917.6339389950801
 46
60.00000000000113
 71
4
 72
5
  1
  Kích thước :
  7
Arial
  0
MTEXT
  5
106
330
F5
100
AcDbEntity
  8
0
 62
2
100
AcDbMText
 10
1680.0
 20
-2010.00000000032
 30
0.0
 40
20.0
 41
917.6339389950801
 46
60.00000000000113
 71
4
 72
5
  1
  Số lượng :
  7
Arial
  0
MTEXT
  5
107
330
F5
100
AcDbEntity
  8
0
 62
2
100
AcDbMText
 10
1680.0
 20
-2070.00000000032
 30
0.0
 40
20.0
 41
917.6339389950801
 46
60.00000000000113
 71
4
 72
5
  1
  Loại tôn :
  7
Arial
  0
MTEXT
  5
108
330
F5
100
AcDbEntity
  8
0
 62
2
100
AcDbMText
 10
2074.15528161102
 20
-2040.00000000032
 30
0.0
 40
20.0
 41
108.3105632220314
 46
120.0000000000011
 71
5
 72
5
  1
Thông\Ptin :
  7
Arial
  0
MTEXT
  5
109
330
F5
100
AcDbEntity
  8
0
 62
2
100
AcDbMText
 10
2915.000000000422
 20
-2010.00000000032
 30
0.0
 40
20.0
 41
110.0000000000065
 46
60.00000000000113
 71
5
 72
5
  1
Tờ
  7
Arial
  0
LINE
  5
10A
330
F5
100
AcDbEntity
  8
0
 62
7
100
AcDbLine
 10
2128.310563222025
 20
-2005.00000000032
 30
0.0
 11
2128.310563222025
 21
-2075.00000000032
 31
0.0
  0
MTEXT
  5
10B
330
F5
100
AcDbEntity
  8
0
 62
2
100
AcDbMText
 10
1382.285678836575
 20
-2070.00000000032
 30
0.0
 40
20.0
 41
917.6339389950801
 46
60.00000000000113
 71
4
 72
5
  1
mm
  7
Arial
  0
MTEXT
  5
10C
330
F5
100
AcDbEntity
  8
0
 62
2
100
AcDbMText
 10
1947.610064813329
 20
-2010.00000000032
 30
0.0
 40
20.0
 41
917.6339389950801
 46
60.00000000000113
 71
4
 72
5
  1
cái
  7
Arial
  0
MTEXT
  5
10D
330
F5
100
AcDbEntity
  8
0
 62
2
100
AcDbMText
 10
1936.880410494836
 20
-2070.00000000032
 30
0.0
 40
20.0
 41
917.6339389950801
 46
60.00000000000113
 71
4
 72
5
  1
mm
  7
Arial
  0
ATTDEF
  5
10E
330
F5
100
AcDbEntity
  8
0
 62
1
100
AcDbText
 10
2883.764212945627
 20
-2067.347800104843
 30
0.0
 40
25.0
  1
......
  7
Tahoma (Input Text)
 72
1
 11
2914.993225705868
 21
-2067.347800104843
 31
0.0
100
AcDbAttributeDefinition
  3
Số trang
  2
#11
 70
8
 71
1
 72
0
 11
2914.993225705868
 21
-2067.347800104843
 31
0.0
  0
ATTDEF
  5
10F
330
F5
100
AcDbEntity
  8
0
 62
1
100
AcDbText
 10
2146.716977487464
 20
-2021.275211692002
 30
0.0
 40
25.0
  1
......
  7
Tahoma (Input Text)
100
AcDbAttributeDefinition
  3
Thông tin 1
  2
#09
 70
8
 71
1
 72
0
  0
ATTDEF
  5
110
330
F5
100
AcDbEntity
  8
0
 62
1
100
AcDbText
 10
2146.716977487464
 20
-2081.275211692002
 30
0.0
 40
25.0
  1
......
  7
Tahoma (Input Text)
100
AcDbAttributeDefinition
  3
Thông tin 2
  2
#10
 70
8
 71
1
 72
0
  0
ATTDEF
  5
111
330
F5
100
AcDbEntity
  8
0
 62
1
100
AcDbText
 10
1817.447765733334
 20
-2081.275211692002
 30
0.0
 40
25.0
  1
......
  7
Tahoma (Input Text)
100
AcDbAttributeDefinition
  3
Loại tôn
  2
#08
 70
8
 71
1
 72
0
  0
ATTDEF
  5
112
330
F5
100
AcDbEntity
  8
0
 62
1
100
AcDbText
 10
1834.68151032555
 20
-2021.275211692002
 30
0.0
 40
25.0
  1
......
  7
Tahoma (Input Text)
100
AcDbAttributeDefinition
  3
Số lượng
  2
#07
 70
8
 71
1
 72
0
  0
ATTDEF
  5
113
330
F5
100
AcDbEntity
  8
0
 62
1
100
AcDbText
 10
1065.330889143646
 20
-2081.275211692002
 30
0.0
 40
25.0
  1
......
  7
Tahoma (Input Text)
100
AcDbAttributeDefinition
  3
Kích thước
  2
#06
 70
8
 71
1
 72
0
  0
ATTDEF
  5
114
330
F5
100
AcDbEntity
  8
0
 62
1
100
AcDbText
 10
1106.628177122154
 20
-2021.275211692002
 30
0.0
 40
25.0
  1
......
  7
Tahoma (Input Text)
100
AcDbAttributeDefinition
  3
Tên s.phẩm
  2
#05
 70
8
 71
1
 72
0
  0
ATTDEF
  5
115
330
F5
100
AcDbEntity
  8
0
 62
1
100
AcDbText
 10
486.1050270054984
 20
-2081.275211692002
 30
0.0
 40
25.0
  1
......
  7
Tahoma (Input Text)
100
AcDbAttributeDefinition
  3
Giao hàng
  2
#04
 70
8
 71
1
 72
0
  0
ATTDEF
  5
116
330
F5
100
AcDbEntity
  8
0
 62
1
100
AcDbText
 10
506.5707489467022
 20
-2019.301600489707
 30
0.0
 40
25.0
  1
......
  7
Tahoma (Input Text)
100
AcDbAttributeDefinition
  3
Khách hàng
  2
#03
 70
8
 71
1
 72
0
  0
ATTDEF
  5
117
330
F5
100
AcDbEntity
  8
0
 62
1
100
AcDbText
 10
98.45672450316488
 20
-2081.275211692002
 30
0.0
 40
25.0
  1
......
  7
Tahoma (Input Text)
100
AcDbAttributeDefinition
  3
CNC
  2
#02
 70
8
 71
1
 72
0
  0
ATTDEF
  5
118
330
F5
100
AcDbEntity
  8
0
 62
1
100
AcDbText
 10
137.0535078375105
 20
-2021.275211692002
 30
0.0
 40
25.0
  1
......
  7
Tahoma (Input Text)
100
AcDbAttributeDefinition
  3
Thiết kế
  2
#01
 70
8
 71
1
 72
0
  0
ENDBLK
  5
F7
330
F5
100
AcDbEntity
  8
0
100
AcDbBlockEnd
  0
BLOCK
  5
11A
330
119
100
AcDbEntity
  8
0
100
AcDbBlockBegin
  2
Tai treo
 70
0
 10
0.0
 20
0.0
 30
0.0
  3
Tai treo
  1

  0
LWPOLYLINE
  5
11C
330
119
100
AcDbEntity
  8
0
 62
8
100
AcDbPolyline
 90
4
 70
1
 10
0.0
 20
50.0
 10
0.0
 20
0.0
 10
100.0
 20
0.0
 10
100.0
 20
50.0
  0
ARC
  5
11D
330
119
100
AcDbEntity
  8
0
 62
2
100
AcDbCircle
 10
80.0
 20
25.0
 30
0.0
 40
5.0
100
AcDbArc
 50
270.0
 51
90.0
  0
ARC
  5
11E
330
119
100
AcDbEntity
  8
0
 62
2
100
AcDbCircle
 10
70.0
 20
25.0
 30
0.0
 40
5.0
100
AcDbArc
 50
90.0
 51
270.0
  0
LINE
  5
11F
330
119
100
AcDbEntity
  8
0
 62
2
100
AcDbLine
 10
70.0
 20
20.0
 30
0.0
 11
80.0
 21
20.0
 31
0.0
  0
LINE
  5
120
330
119
100
AcDbEntity
  8
0
 62
2
100
AcDbLine
 10
70.0
 20
30.0
 30
0.0
 11
80.0
 21
30.0
 31
0.0
  0
CIRCLE
  5
121
330
119
100
AcDbEntity
  8
0
 62
2
100
AcDbCircle
 10
25.0
 20
25.0
 30
0.0
 40
3.0
  0
CIRCLE
  5
122
330
119
100
AcDbEntity
  8
0
 62
2
100
AcDbCircle
 10
8.0
 20
42.0
 30
0.0
 40
3.0
  0
CIRCLE
  5
123
330
119
100
AcDbEntity
  8
0
 62
2
100
AcDbCircle
 10
42.0
 20
42.0
 30
0.0
 40
3.0
  0
CIRCLE
  5
124
330
119
100
AcDbEntity
  8
0
 62
2
100
AcDbCircle
 10
8.0
 20
8.0
 30
0.0
 40
3.0
  0
CIRCLE
  5
125
330
119
100
AcDbEntity
  8
0
 62
2
100
AcDbCircle
 10
42.0
 20
8.0
 30
0.0
 40
3.0
  0
ENDBLK
  5
11B
330
119
100
AcDbEntity
  8
0
100
AcDbBlockEnd
  0
BLOCK
  5
15A
330
159
100
AcDbEntity
  8
0
100
AcDbBlockBegin
  2
*D1
 70
1
 10
0.0
 20
0.0
 30
0.0
  3
*D1
  1

  0
LINE
  5
15C
330
159
100
AcDbEntity
  8
DIM
 62
5
370
9
440
16777216
100
AcDbLine
 10
1166.1838435500104
 20
1923.2078768235078
 30
0.0
 11
1247.33054518461
 21
1923.2078768235078
 31
0.0
  0
LINE
  5
15D
330
159
100
AcDbEntity
  8
DIM
 62
5
370
9
440
16777216
100
AcDbLine
 10
1166.1838435500104
 20
1125.607876823502
 30
0.0
 11
1247.33054518461
 21
1125.607876823502
 31
0.0
  0
LINE
  5
15E
330
159
100
AcDbEntity
  8
DIM
 62
5
370
9
440
16777216
100
AcDbLine
 10
1242.33054518461
 20
1923.2078768235078
 30
0.0
 11
1242.33054518461
 21
1125.607876823502
 31
0.0
  0
LINE
  5
15F
330
159
100
AcDbEntity
  8
0
  6
ByBlock
 62
0
370
-2
100
AcDbLine
 10
1244.83054518461
 20
1920.7078768235078
 30
0.0
 11
1239.83054518461
 21
1925.7078768235078
 31
0.0
  0
LINE
  5
160
330
159
100
AcDbEntity
  8
0
  6
ByBlock
 62
0
370
-2
100
AcDbLine
 10
1239.83054518461
 20
1128.107876823502
 30
0.0
 11
1244.83054518461
 21
1123.107876823502
 31
0.0
  0
MTEXT
  5
161
330
159
100
AcDbEntity
  8
DIM
 62
3
440
16777216
100
AcDbMText
 10
1229.6719503688219
 20
1524.4078768234685
 30
0.0
 40
15.0
 41
0.0
 46
0.0
 71
5
  1
798
 11
1e-16
 21
1.0
 31
0.0
  0
POINT
  5
162
330
159
100
AcDbEntity
  8
Defpoints
 62
0
440
16777216
100
AcDbPoint
 10
1158.1838435500104
 20
1923.2078768235078
 30
0.0
  0
POINT
  5
163
330
159
100
AcDbEntity
  8
Defpoints
 62
0
440
16777216
100
AcDbPoint
 10
1158.1838435500104
 20
1125.607876823502
 30
0.0
  0
POINT
  5
164
330
159
100
AcDbEntity
  8
Defpoints
 62
0
440
16777216
100
AcDbPoint
 10
1242.33054518461
 20
1125.607876823502
 30
0.0
  0
ENDBLK
  5
15B
330
159
100
AcDbEntity
  8
0
100
AcDbBlockEnd
  0
BLOCK
  5
166
330
165
100
AcDbEntity
  8
0
100
AcDbBlockBegin
  2
*D2
 70
1
 10
0.0
 20
0.0
 30
0.0
  3
*D2
  1

  0
LINE
  5
168
330
165
100
AcDbEntity
  8
DIM
 62
5
370
9
440
16777216
100
AcDbLine
 10
339.18384354992304
 20
1931.2078768235078
 30
0.0
 11
339.18384354992304
 21
1960.342663890282
 31
0.0
  0
LINE
  5
169
330
165
100
AcDbEntity
  8
DIM
 62
5
370
9
440
16777216
100
AcDbLine
 10
937.1838435500104
 20
1931.2078768235078
 30
0.0
 11
937.1838435500104
 21
1960.342663890282
 31
0.0
  0
LINE
  5
16A
330
165
100
AcDbEntity
  8
DIM
 62
5
370
9
440
16777216
100
AcDbLine
 10
339.18384354992304
 20
1955.342663890282
 30
0.0
 11
937.1838435500104
 21
1955.342663890282
 31
0.0
  0
LINE
  5
16B
330
165
100
AcDbEntity
  8
0
  6
ByBlock
 62
0
370
-2
100
AcDbLine
 10
341.68384354992304
 20
1957.842663890282
 30
0.0
 11
336.68384354992304
 21
1952.842663890282
 31
0.0
  0
LINE
  5
16C
330
165
100
AcDbEntity
  8
0
  6
ByBlock
 62
0
370
-2
100
AcDbLine
 10
934.6838435500104
 20
1952.842663890282
 30
0.0
 11
939.6838435500104
 21
1957.842663890282
 31
0.0
  0
MTEXT
  5
16D
330
165
100
AcDbEntity
  8
DIM
 62
3
440
16777216
100
AcDbMText
 10
638.1838435500104
 20
1968.0012587061065
 30
0.0
 40
15.0
 41
0.0
 46
0.0
 71
5
  1
598
  0
POINT
  5
16E
330
165
100
AcDbEntity
  8
Defpoints
 62
0
440
16777216
100
AcDbPoint
 10
339.18384354992304
 20
1923.2078768235078
 30
0.0
  0
POINT
  5
16F
330
165
100
AcDbEntity
  8
Defpoints
 62
0
440
16777216
100
AcDbPoint
 10
937.1838435500104
 20
1923.2078768235078
 30
0.0
  0
POINT
  5
170
330
165
100
AcDbEntity
  8
Defpoints
 62
0
440
16777216
100
AcDbPoint
 10
937.1838435500104
 20
1955.342663890282
 30
0.0
  0
ENDBLK
  5
167
330
165
100
AcDbEntity
  8
0
100
AcDbBlockEnd
  0
BLOCK
  5
172
330
171
100
AcDbEntity
  8
0
100
AcDbBlockBegin
  2
*D3
 70
1
 10
0.0
 20
0.0
 30
0.0
  3
*D3
  1

  0
LINE
  5
174
330
171
100
AcDbEntity
  8
DIM
 62
5
370
9
440
16777216
100
AcDbLine
 10
937.1838435500104
 20
1931.2078768235078
 30
0.0
 11
937.1838435500104
 21
1960.342663890282
 31
0.0
  0
LINE
  5
175
330
171
100
AcDbEntity
  8
DIM
 62
5
370
9
440
16777216
100
AcDbLine
 10
1158.1838435500104
 20
1931.2078768235078
 30
0.0
 11
1158.1838435500104
 21
1960.342663890282
 31
0.0
  0
LINE
  5
176
330
171
100
AcDbEntity
  8
DIM
 62
5
370
9
440
16777216
100
AcDbLine
 10
937.1838435500104
 20
1955.342663890282
 30
0.0
 11
1158.1838435500104
 21
1955.342663890282
 31
0.0
  0
MTEXT
  5
177
330
171
100
AcDbEntity
  8
DIM
 62
3
440
16777216
100
AcDbMText
 10
1093.1838435500104
 20
1967.8733596610764
 30
0.0
 40
15.0
 41
0.0
 46
0.0
 71
5
  1
221
  0
LINE
  5
178
330
171
100
AcDbEntity
  8
0
  6
ByBlock
 62
0
370
-2
100
AcDbLine
 10
939.6838435500104
 20
1957.842663890282
 30
0.0
 11
934.6838435500104
 21
1952.842663890282
 31
0.0
  0
LINE
  5
179
330
171
100
AcDbEntity
  8
0
  6
ByBlock
 62
0
370
-2
100
AcDbLine
 10
1155.6838435500104
 20
1952.842663890282
 30
0.0
 11
1160.6838435500104
 21
1957.842663890282
 31
0.0
  0
POINT
  5
17A
330
171
100
AcDbEntity
  8
Defpoints
 62
0
440
16777216
100
AcDbPoint
 10
937.1838435500104
 20
1923.2078768235078
 30
0.0
  0
POINT
  5
17B
330
171
100
AcDbEntity
  8
Defpoints
 62
0
440
16777216
100
AcDbPoint
 10
1158.1838435500104
 20
1923.2078768235078
 30
0.0
  0
POINT
  5
17C
330
171
100
AcDbEntity
  8
Defpoints
 62
0
440
16777216
100
AcDbPoint
 10
1158.1838435500104
 20
1955.342663890282
 30
0.0
  0
ENDBLK
  5
173
330
171
100
AcDbEntity
  8
0
100
AcDbBlockEnd
  0
BLOCK
  5
17E
330
17D
100
AcDbEntity
  8
0
100
AcDbBlockBegin
  2
*D4
 70
1
 10
0.0
 20
0.0
 30
0.0
  3
*D4
  1

  0
LINE
  5
180
330
17D
100
AcDbEntity
  8
DIM
 62
5
370
9
440
16777216
100
AcDbLine
 10
1158.1838435500104
 20
1931.2078768235078
 30
0.0
 11
1158.1838435500104
 21
1960.342663890282
 31
0.0
  0
LINE
  5
181
330
17D
100
AcDbEntity
  8
DIM
 62
5
370
9
440
16777216
100
AcDbLine
 10
1188.1838435500104
 20
1901.2078768235078
 30
0.0
 11
1188.1838435500104
 21
1960.342663890282
 31
0.0
  0
LINE
  5
182
330
17D
100
AcDbEntity
  8
DIM
 62
5
370
9
440
16777216
100
AcDbLine
 10
1158.1838435500104
 20
1955.342663890282
 30
0.0
 11
1188.1838435500104
 21
1955.342663890282
 31
0.0
  0
MTEXT
  5
183
330
17D
100
AcDbEntity
  8
DIM
 62
3
440
16777216
100
AcDbMText
 10
1173.1838435500104
 20
1968.006374667908
 30
0.0
 40
15.0
 41
0.0
 46
0.0
 71
5
  1
30
  0
LINE
  5
184
330
17D
100
AcDbEntity
  8
0
  6
ByBlock
 62
0
370
-2
100
AcDbLine
 10
1160.6838435500104
 20
1957.842663890282
 30
0.0
 11
1155.6838435500104
 21
1952.842663890282
 31
0.0
  0
LINE
  5
185
330
17D
100
AcDbEntity
  8
0
  6
ByBlock
 62
0
370
-2
100
AcDbLine
 10
1185.6838435500104
 20
1952.842663890282
 30
0.0
 11
1190.6838435500104
 21
1957.842663890282
 31
0.0
  0
POINT
  5
186
330
17D
100
AcDbEntity
  8
Defpoints
 62
0
440
16777216
100
AcDbPoint
 10
1158.1838435500104
 20
1923.2078768235078
 30
0.0
  0
POINT
  5
187
330
17D
100
AcDbEntity
  8
Defpoints
 62
0
440
16777216
100
AcDbPoint
 10
1188.1838435500104
 20
1893.2078768235078
 30
0.0
  0
POINT
  5
188
330
17D
100
AcDbEntity
  8
Defpoints
 62
0
440
16777216
100
AcDbPoint
 10
1188.1838435500104
 20
1955.342663890282
 30
0.0
  0
ENDBLK
  5
17F
330
17D
100
AcDbEntity
  8
0
100
AcDbBlockEnd
  0
BLOCK
  5
18A
330
189
100
AcDbEntity
  8
0
100
AcDbBlockBegin
  2
*D5
 70
1
 10
0.0
 20
0.0
 30
0.0
  3
*D5
  1

  0
LINE
  5
18C
330
189
100
AcDbEntity
  8
DIM
 62
5
370
9
440
16777216
100
AcDbLine
 10
1188.1838435500104
 20
1901.2078768235078
 30
0.0
 11
1188.1838435500104
 21
1960.342663890282
 31
0.0
  0
LINE
  5
18D
330
189
100
AcDbEntity
  8
DIM
 62
5
370
9
440
16777216
100
AcDbLine
 10
1200.1838435500104
 20
1901.2078768235078
 30
0.0
 11
1200.1838435500104
 21
1960.342663890282
 31
0.0
  0
LINE
  5
18E
330
189
100
AcDbEntity
  8
DIM
 62
5
370
9
440
16777216
100
AcDbLine
 10
1188.1838435500104
 20
1955.342663890282
 30
0.0
 11
1200.1838435500104
 21
1955.342663890282
 31
0.0
  0
LINE
  5
18F
330
189
100
AcDbEntity
  8
DIM
 62
5
370
9
440
16777216
100
AcDbLine
 10
1200.1838435500104
 20
1955.342663890282
 30
0.0
 11
1235.1053988024069
 21
1955.342663890282
 31
0.0
  0
LINE
  5
190
330
189
100
AcDbEntity
  8
0
  6
ByBlock
 62
0
370
-2
100
AcDbLine
 10
1190.6838435500104
 20
1957.842663890282
 30
0.0
 11
1185.6838435500104
 21
1952.842663890282
 31
0.0
  0
LINE
  5
191
330
189
100
AcDbEntity
  8
0
  6
ByBlock
 62
0
370
-2
100
AcDbLine
 10
1197.6838435500104
 20
1952.842663890282
 30
0.0
 11
1202.6838435500104
 21
1957.842663890282
 31
0.0
  0
MTEXT
  5
192
330
189
100
AcDbEntity
  8
DIM
 62
3
440
16777216
100
AcDbMText
 10
1220.1446211762086
 20
1967.8733596610764
 30
0.0
 40
15.0
 41
0.0
 46
0.0
 71
5
  1
12
  0
POINT
  5
193
330
189
100
AcDbEntity
  8
Defpoints
 62
0
440
16777216
100
AcDbPoint
 10
1188.1838435500104
 20
1893.2078768235078
 30
0.0
  0
POINT
  5
194
330
189
100
AcDbEntity
  8
Defpoints
 62
0
440
16777216
100
AcDbPoint
 10
1200.1838435500104
 20
1893.2078768235078
 30
0.0
  0
POINT
  5
195
330
189
100
AcDbEntity
  8
Defpoints
 62
0
440
16777216
100
AcDbPoint
 10
1200.1838435500104
 20
1955.342663890282
 30
0.0
  0
ENDBLK
  5
18B
330
189
100
AcDbEntity
  8
0
100
AcDbBlockEnd
  0
BLOCK
  5
197
330
196
100
AcDbEntity
  8
0
100
AcDbBlockBegin
  2
*D6
 70
1
 10
0.0
 20
0.0
 30
0.0
  3
*D6
  1

  0
LINE
  5
199
330
196
100
AcDbEntity
  8
DIM
 62
5
370
9
440
16777216
100
AcDbLine
 10
339.18384354992304
 20
1931.2078768235078
 30
0.0
 11
339.18384354992304
 21
1960.342663890282
 31
0.0
  0
LINE
  5
19A
330
196
100
AcDbEntity
  8
DIM
 62
5
370
9
440
16777216
100
AcDbLine
 10
118.18384355001035
 20
1931.2078768235078
 30
0.0
 11
118.18384355001035
 21
1960.342663890282
 31
0.0
  0
LINE
  5
19B
330
196
100
AcDbEntity
  8
DIM
 62
5
370
9
440
16777216
100
AcDbLine
 10
339.18384354992304
 20
1955.342663890282
 30
0.0
 11
118.18384355001035
 21
1955.342663890282
 31
0.0
  0
MTEXT
  5
19C
330
196
100
AcDbEntity
  8
DIM
 62
3
440
16777216
100
AcDbMText
 10
183.18384355001035
 20
1967.8733596610764
 30
0.0
 40
15.0
 41
0.0
 46
0.0
 71
5
  1
221
  0
LINE
  5
19D
330
196
100
AcDbEntity
  8
0
  6
ByBlock
 62
0
370
-2
100
AcDbLine
 10
336.68384354992304
 20
1952.842663890282
 30
0.0
 11
341.68384354992304
 21
1957.842663890282
 31
0.0
  0
LINE
  5
19E
330
196
100
AcDbEntity
  8
0
  6
ByBlock
 62
0
370
-2
100
AcDbLine
 10
120.68384355001035
 20
1957.842663890282
 30
0.0
 11
115.68384355001035
 21
1952.842663890282
 31
0.0
  0
POINT
  5
19F
330
196
100
AcDbEntity
  8
Defpoints
 62
0
440
16777216
100
AcDbPoint
 10
339.18384354992304
 20
1923.2078768235078
 30
0.0
  0
POINT
  5
1A0
330
196
100
AcDbEntity
  8
Defpoints
 62
0
440
16777216
100
AcDbPoint
 10
118.18384355001035
 20
1923.2078768235078
 30
0.0
  0
POINT
  5
1A1
330
196
100
AcDbEntity
  8
Defpoints
 62
0
440
16777216
100
AcDbPoint
 10
118.18384355001035
 20
1955.342663890282
 30
0.0
  0
ENDBLK
  5
198
330
196
100
AcDbEntity
  8
0
100
AcDbBlockEnd
  0
BLOCK
  5
1A3
330
1A2
100
AcDbEntity
  8
0
100
AcDbBlockBegin
  2
*D7
 70
1
 10
0.0
 20
0.0
 30
0.0
  3
*D7
  1

  0
LINE
  5
1A5
330
1A2
100
AcDbEntity
  8
DIM
 62
5
370
9
440
16777216
100
AcDbLine
 10
118.18384355001035
 20
1931.2078768235078
 30
0.0
 11
118.18384355001035
 21
1960.342663890282
 31
0.0
  0
LINE
  5
1A6
330
1A2
100
AcDbEntity
  8
DIM
 62
5
370
9
440
16777216
100
AcDbLine
 10
88.18384355001035
 20
1901.2078768235078
 30
0.0
 11
88.18384355001035
 21
1960.342663890282
 31
0.0
  0
LINE
  5
1A7
330
1A2
100
AcDbEntity
  8
DIM
 62
5
370
9
440
16777216
100
AcDbLine
 10
118.18384355001035
 20
1955.342663890282
 30
0.0
 11
88.18384355001035
 21
1955.342663890282
 31
0.0
  0
MTEXT
  5
1A8
330
1A2
100
AcDbEntity
  8
DIM
 62
3
440
16777216
100
AcDbMText
 10
103.18384355001035
 20
1968.006374667908
 30
0.0
 40
15.0
 41
0.0
 46
0.0
 71
5
  1
30
  0
LINE
  5
1A9
330
1A2
100
AcDbEntity
  8
0
  6
ByBlock
 62
0
370
-2
100
AcDbLine
 10
115.68384355001035
 20
1952.842663890282
 30
0.0
 11
120.68384355001035
 21
1957.842663890282
 31
0.0
  0
LINE
  5
1AA
330
1A2
100
AcDbEntity
  8
0
  6
ByBlock
 62
0
370
-2
100
AcDbLine
 10
90.68384355001035
 20
1957.842663890282
 30
0.0
 11
85.68384355001035
 21
1952.842663890282
 31
0.0
  0
POINT
  5
1AB
330
1A2
100
AcDbEntity
  8
Defpoints
 62
0
440
16777216
100
AcDbPoint
 10
118.18384355001035
 20
1923.2078768235078
 30
0.0
  0
POINT
  5
1AC
330
1A2
100
AcDbEntity
  8
Defpoints
 62
0
440
16777216
100
AcDbPoint
 10
88.18384355001035
 20
1893.2078768235078
 30
0.0
  0
POINT
  5
1AD
330
1A2
100
AcDbEntity
  8
Defpoints
 62
0
440
16777216
100
AcDbPoint
 10
88.18384355001035
 20
1955.342663890282
 30
0.0
  0
ENDBLK
  5
1A4
330
1A2
100
AcDbEntity
  8
0
100
AcDbBlockEnd
  0
BLOCK
  5
1AF
330
1AE
100
AcDbEntity
  8
0
100
AcDbBlockBegin
  2
*D8
 70
1
 10
0.0
 20
0.0
 30
0.0
  3
*D8
  1

  0
LINE
  5
1B1
330
1AE
100
AcDbEntity
  8
DIM
 62
5
370
9
440
16777216
100
AcDbLine
 10
88.18384355001035
 20
1901.2078768235078
 30
0.0
 11
88.18384355001035
 21
1960.342663890282
 31
0.0
  0
LINE
  5
1B2
330
1AE
100
AcDbEntity
  8
DIM
 62
5
370
9
440
16777216
100
AcDbLine
 10
76.18384355001035
 20
1901.2078768235078
 30
0.0
 11
76.18384355001035
 21
1960.342663890282
 31
0.0
  0
LINE
  5
1B3
330
1AE
100
AcDbEntity
  8
DIM
 62
5
370
9
440
16777216
100
AcDbLine
 10
88.18384355001035
 20
1955.342663890282
 30
0.0
 11
76.18384355001035
 21
1955.342663890282
 31
0.0
  0
LINE
  5
1B4
330
1AE
100
AcDbEntity
  8
DIM
 62
5
370
9
440
16777216
100
AcDbLine
 10
76.18384355001035
 20
1955.342663890282
 30
0.0
 11
41.26228829761385
 21
1955.342663890282
 31
0.0
  0
LINE
  5
1B5
330
1AE
100
AcDbEntity
  8
0
  6
ByBlock
 62
0
370
-2
100
AcDbLine
 10
85.68384355001035
 20
1952.842663890282
 30
0.0
 11
90.68384355001035
 21
1957.842663890282
 31
0.0
  0
LINE
  5
1B6
330
1AE
100
AcDbEntity
  8
0
  6
ByBlock
 62
0
370
-2
100
AcDbLine
 10
78.68384355001035
 20
1957.842663890282
 30
0.0
 11
73.68384355001035
 21
1952.842663890282
 31
0.0
  0
MTEXT
  5
1B7
330
1AE
100
AcDbEntity
  8
DIM
 62
3
440
16777216
100
AcDbMText
 10
56.2230659238121
 20
1967.8733596610764
 30
0.0
 40
15.0
 41
0.0
 46
0.0
 71
5
  1
12
  0
POINT
  5
1B8
330
1AE
100
AcDbEntity
  8
Defpoints
 62
0
440
16777216
100
AcDbPoint
 10
88.18384355001035
 20
1893.2078768235078
 30
0.0
  0
POINT
  5
1B9
330
1AE
100
AcDbEntity
  8
Defpoints
 62
0
440
16777216
100
AcDbPoint
 10
76.18384355001035
 20
1893.2078768235078
 30
0.0
  0
POINT
  5
1BA
330
1AE
100
AcDbEntity
  8
Defpoints
 62
0
440
16777216
100
AcDbPoint
 10
76.18384355001035
 20
1955.342663890282
 30
0.0
  0
ENDBLK
  5
1B0
330
1AE
100
AcDbEntity
  8
0
100
AcDbBlockEnd
  0
BLOCK
  5
1BC
330
1BB
100
AcDbEntity
  8
0
100
AcDbBlockBegin
  2
*D9
 70
1
 10
0.0
 20
0.0
 30
0.0
  3
*D9
  1

  0
LINE
  5
1BE
330
1BB
100
AcDbEntity
  8
DIM
 62
5
370
9
440
16777216
100
AcDbLine
 10
76.18384355001035
 20
1147.607876823502
 30
0.0
 11
76.18384355001035
 21
1070.8358045753412
 31
0.0
  0
LINE
  5
1BF
330
1BB
100
AcDbEntity
  8
DIM
 62
5
370
9
440
16777216
100
AcDbLine
 10
1200.1838435500104
 20
1147.607876823502
 30
0.0
 11
1200.1838435500104
 21
1070.8358045753412
 31
0.0
  0
LINE
  5
1C0
330
1BB
100
AcDbEntity
  8
DIM
 62
5
370
9
440
16777216
100
AcDbLine
 10
76.18384355001035
 20
1075.8358045753412
 30
0.0
 11
1200.1838435500104
 21
1075.8358045753412
 31
0.0
  0
LINE
  5
1C1
330
1BB
100
AcDbEntity
  8
0
  6
ByBlock
 62
0
370
-2
100
AcDbLine
 10
78.68384355001035
 20
1078.3358045753412
 30
0.0
 11
73.68384355001035
 21
1073.3358045753412
 31
0.0
  0
LINE
  5
1C2
330
1BB
100
AcDbEntity
  8
0
  6
ByBlock
 62
0
370
-2
100
AcDbLine
 10
1197.6838435500104
 20
1073.3358045753412
 30
0.0
 11
1202.6838435500104
 21
1078.3358045753412
 31
0.0
  0
MTEXT
  5
1C3
330
1BB
100
AcDbEntity
  8
DIM
 62
3
440
16777216
100
AcDbMText
 10
638.1838435500104
 20
1088.3665003461356
 30
0.0
 40
15.0
 41
0.0
 46
0.0
 71
5
  1
1124
  0
POINT
  5
1C4
330
1BB
100
AcDbEntity
  8
Defpoints
 62
0
440
16777216
100
AcDbPoint
 10
76.18384355001035
 20
1155.607876823502
 30
0.0
  0
POINT
  5
1C5
330
1BB
100
AcDbEntity
  8
Defpoints
 62
0
440
16777216
100
AcDbPoint
 10
1200.1838435500104
 20
1155.607876823502
 30
0.0
  0
POINT
  5
1C6
330
1BB
100
AcDbEntity
  8
Defpoints
 62
0
440
16777216
100
AcDbPoint
 10
1200.1838435500104
 20
1075.8358045753412
 30
0.0
  0
ENDBLK
  5
1BD
330
1BB
100
AcDbEntity
  8
0
100
AcDbBlockEnd
  0
BLOCK
  5
1C8
330
1C7
100
AcDbEntity
  8
0
100
AcDbBlockBegin
  2
*D10
 70
1
 10
0.0
 20
0.0
 30
0.0
  3
*D10
  1

  0
LINE
  5
1CA
330
1C7
100
AcDbEntity
  8
DIM
 62
5
370
9
440
16777216
100
AcDbLine
 10
151.17559331082157
 20
744.7875548432057
 30
0.0
 11
122.04080624389462
 21
744.7875548432057
 31
0.0
  0
LINE
  5
1CB
330
1C7
100
AcDbEntity
  8
DIM
 62
5
370
9
440
16777216
100
AcDbLine
 10
151.17559331082157
 20
522.7875548432057
 30
0.0
 11
122.04080624389462
 21
522.7875548432057
 31
0.0
  0
LINE
  5
1CC
330
1C7
100
AcDbEntity
  8
DIM
 62
5
370
9
440
16777216
100
AcDbLine
 10
127.04080624389462
 20
744.7875548432057
 30
0.0
 11
127.04080624389462
 21
522.7875548432057
 31
0.0
  0
MTEXT
  5
1CD
330
1C7
100
AcDbEntity
  8
DIM
 62
3
440
16777216
100
AcDbMText
 10
114.51011047331849
 20
587.7875548432276
 30
0.0
 40
15.0
 41
0.0
 46
0.0
 71
5
  1
222
 11
1e-16
 21
1.0
 31
0.0
  0
LINE
  5
1CE
330
1C7
100
AcDbEntity
  8
0
  6
ByBlock
 62
0
370
-2
100
AcDbLine
 10
129.54080624389462
 20
742.2875548432057
 30
0.0
 11
124.54080624389462
 21
747.2875548432057
 31
0.0
  0
LINE
  5
1CF
330
1C7
100
AcDbEntity
  8
0
  6
ByBlock
 62
0
370
-2
100
AcDbLine
 10
124.54080624389462
 20
525.2875548432057
 30
0.0
 11
129.54080624389462
 21
520.2875548432057
 31
0.0
  0
POINT
  5
1D0
330
1C7
100
AcDbEntity
  8
Defpoints
 62
0
440
16777216
100
AcDbPoint
 10
159.17559331082157
 20
744.7875548432057
 30
0.0
  0
POINT
  5
1D1
330
1C7
100
AcDbEntity
  8
Defpoints
 62
0
440
16777216
100
AcDbPoint
 10
159.17559331082157
 20
522.7875548432057
 30
0.0
  0
POINT
  5
1D2
330
1C7
100
AcDbEntity
  8
Defpoints
 62
0
440
16777216
100
AcDbPoint
 10
127.04080624389462
 20
522.7875548432057
 30
0.0
  0
ENDBLK
  5
1C9
330
1C7
100
AcDbEntity
  8
0
100
AcDbBlockEnd
  0
BLOCK
  5
1D4
330
1D3
100
AcDbEntity
  8
0
100
AcDbBlockBegin
  2
*D11
 70
1
 10
0.0
 20
0.0
 30
0.0
  3
*D11
  1

  0
LINE
  5
1D6
330
1D3
100
AcDbEntity
  8
DIM
 62
5
370
9
440
16777216
100
AcDbLine
 10
151.17559331082157
 20
522.7875548432057
 30
0.0
 11
122.04080624389462
 21
522.7875548432057
 31
0.0
  0
LINE
  5
1D7
330
1D3
100
AcDbEntity
  8
DIM
 62
5
370
9
440
16777216
100
AcDbLine
 10
181.17559331082157
 20
492.7875548432203
 30
0.0
 11
122.04080624389462
 21
492.7875548432203
 31
0.0
  0
LINE
  5
1D8
330
1D3
100
AcDbEntity
  8
DIM
 62
5
370
9
440
16777216
100
AcDbLine
 10
127.04080624389462
 20
522.7875548432057
 30
0.0
 11
127.04080624389462
 21
492.7875548432203
 31
0.0
  0
MTEXT
  5
1D9
330
1D3
100
AcDbEntity
  8
DIM
 62
3
440
16777216
100
AcDbMText
 10
114.37709546650876
 20
507.78755484322755
 30
0.0
 40
15.0
 41
0.0
 46
0.0
 71
5
  1
30
 11
1e-16
 21
1.0
 31
0.0
  0
LINE
  5
1DA
330
1D3
100
AcDbEntity
  8
0
  6
ByBlock
 62
0
370
-2
100
AcDbLine
 10
129.54080624389462
 20
520.2875548432057
 30
0.0
 11
124.54080624389462
 21
525.2875548432057
 31
0.0
  0
LINE
  5
1DB
330
1D3
100
AcDbEntity
  8
0
  6
ByBlock
 62
0
370
-2
100
AcDbLine
 10
124.54080624389462
 20
495.2875548432203
 30
0.0
 11
129.54080624389462
 21
490.2875548432203
 31
0.0
  0
POINT
  5
1DC
330
1D3
100
AcDbEntity
  8
Defpoints
 62
0
440
16777216
100
AcDbPoint
 10
159.17559331082157
 20
522.7875548432057
 30
0.0
  0
POINT
  5
1DD
330
1D3
100
AcDbEntity
  8
Defpoints
 62
0
440
16777216
100
AcDbPoint
 10
189.17559331082157
 20
492.7875548432203
 30
0.0
  0
POINT
  5
1DE
330
1D3
100
AcDbEntity
  8
Defpoints
 62
0
440
16777216
100
AcDbPoint
 10
127.04080624389462
 20
492.7875548432203
 30
0.0
  0
ENDBLK
  5
1D5
330
1D3
100
AcDbEntity
  8
0
100
AcDbBlockEnd
  0
BLOCK
  5
1E0
330
1DF
100
AcDbEntity
  8
0
100
AcDbBlockBegin
  2
*D12
 70
1
 10
0.0
 20
0.0
 30
0.0
  3
*D12
  1

  0
LINE
  5
1E2
330
1DF
100
AcDbEntity
  8
DIM
 62
5
370
9
440
16777216
100
AcDbLine
 10
181.17559331090888
 20
492.78755484322755
 30
0.0
 11
122.04080624409835
 21
492.78755484322755
 31
0.0
  0
LINE
  5
1E3
330
1DF
100
AcDbEntity
  8
DIM
 62
5
370
9
440
16777216
100
AcDbLine
 10
181.17559331090888
 20
480.78755484322755
 30
0.0
 11
122.04080624409835
 21
480.78755484322755
 31
0.0
  0
LINE
  5
1E4
330
1DF
100
AcDbEntity
  8
DIM
 62
5
370
9
440
16777216
100
AcDbLine
 10
127.04080624409835
 20
492.78755484322755
 30
0.0
 11
127.04080624409835
 21
480.78755484322755
 31
0.0
  0
LINE
  5
1E5
330
1DF
100
AcDbEntity
  8
DIM
 62
5
370
9
440
16777216
100
AcDbLine
 10
127.04080624409835
 20
480.78755484322755
 30
0.0
 11
127.04080624409835
 21
445.8659995908383
 31
0.0
  0
LINE
  5
1E6
330
1DF
100
AcDbEntity
  8
0
  6
ByBlock
 62
0
370
-2
100
AcDbLine
 10
129.54080624409835
 20
490.28755484322755
 30
0.0
 11
124.54080624409835
 21
495.28755484322755
 31
0.0
  0
LINE
  5
1E7
330
1DF
100
AcDbEntity
  8
0
  6
ByBlock
 62
0
370
-2
100
AcDbLine
 10
124.54080624409835
 20
483.28755484322755
 30
0.0
 11
129.54080624409835
 21
478.28755484322755
 31
0.0
  0
MTEXT
  5
1E8
330
1DF
100
AcDbEntity
  8
DIM
 62
3
440
16777216
100
AcDbMText
 10
114.51011047331849
 20
460.8267772170002
 30
0.0
 40
15.0
 41
0.0
 46
0.0
 71
5
  1
12
 11
1e-16
 21
1.0
 31
0.0
  0
POINT
  5
1E9
330
1DF
100
AcDbEntity
  8
Defpoints
 62
0
440
16777216
100
AcDbPoint
 10
189.17559331090888
 20
492.78755484322755
 30
0.0
  0
POINT
  5
1EA
330
1DF
100
AcDbEntity
  8
Defpoints
 62
0
440
16777216
100
AcDbPoint
 10
189.17559331090888
 20
480.78755484322755
 30
0.0
  0
POINT
  5
1EB
330
1DF
100
AcDbEntity
  8
Defpoints
 62
0
440
16777216
100
AcDbPoint
 10
127.04080624409835
 20
480.78755484322755
 30
0.0
  0
ENDBLK
  5
1E1
330
1DF
100
AcDbEntity
  8
0
100
AcDbBlockEnd
  0
BLOCK
  5
1ED
330
1EC
100
AcDbEntity
  8
0
100
AcDbBlockBegin
  2
*D13
 70
1
 10
0.0
 20
0.0
 30
0.0
  3
*D13
  1

  0
LINE
  5
1EF
330
1EC
100
AcDbEntity
  8
0
 62
5
370
9
 48
3.0
440
16777216
100
AcDbLine
 10
159.17559331090888
 20
759.7875548432276
 30
0.0
 11
159.17559331090888
 21
798.6694397299871
 31
0.0
  0
LINE
  5
1F0
330
1EC
100
AcDbEntity
  8
0
 62
5
370
9
 48
3.0
440
16777216
100
AcDbLine
 10
759.1755933109089
 20
759.7875548432276
 30
0.0
 11
759.1755933109089
 21
798.6694397299871
 31
0.0
  0
LINE
  5
1F1
330
1EC
100
AcDbEntity
  8
0
 62
5
370
9
 48
3.0
440
16777216
100
AcDbLine
 10
159.17559331090888
 20
788.6694397299871
 30
0.0
 11
759.1755933109089
 21
788.6694397299871
 31
0.0
  0
LINE
  5
1F2
330
1EC
100
AcDbEntity
  8
0
  6
ByBlock
 62
0
370
-2
100
AcDbLine
 10
163.17559331090888
 20
792.6694397299871
 30
0.0
 11
155.17559331090888
 21
784.6694397299871
 31
0.0
  0
LINE
  5
1F3
330
1EC
100
AcDbEntity
  8
0
  6
ByBlock
 62
0
370
-2
100
AcDbLine
 10
755.1755933109089
 20
784.6694397299871
 30
0.0
 11
763.1755933109089
 21
792.6694397299871
 31
0.0
  0
MTEXT
  5
1F4
330
1EC
100
AcDbEntity
  8
0
 62
3
 48
3.0
440
16777216
100
AcDbMText
 10
459.1755933109089
 20
811.43376442304
 30
0.0
 40
25.0
 41
0.0
 46
0.0
 71
5
  1
600
  0
POINT
  5
1F5
330
1EC
100
AcDbEntity
  8
Defpoints
 62
0
 48
3.0
440
16777216
100
AcDbPoint
 10
159.17559331090888
 20
744.7875548432276
 30
0.0
  0
POINT
  5
1F6
330
1EC
100
AcDbEntity
  8
Defpoints
 62
0
 48
3.0
440
16777216
100
AcDbPoint
 10
759.1755933109089
 20
744.7875548432276
 30
0.0
  0
POINT
  5
1F7
330
1EC
100
AcDbEntity
  8
Defpoints
 62
0
 48
3.0
440
16777216
100
AcDbPoint
 10
759.1755933109089
 20
788.6694397299871
 30
0.0
  0
ENDBLK
  5
1EE
330
1EC
100
AcDbEntity
  8
0
100
AcDbBlockEnd
  0
BLOCK
  5
1F9
330
1F8
100
AcDbEntity
  8
0
100
AcDbBlockBegin
  2
*D14
 70
1
 10
0.0
 20
0.0
 30
0.0
  3
*D14
  1

  0
LINE
  5
1FB
330
1F8
100
AcDbEntity
  8
0
 62
5
370
9
 48
3.0
440
16777216
100
AcDbLine
 10
744.1755933109089
 20
480.78755484322755
 30
0.0
 11
866.3920267359063
 21
480.78755484322755
 31
0.0
  0
LINE
  5
1FC
330
1F8
100
AcDbEntity
  8
0
 62
5
370
9
 48
3.0
440
16777216
100
AcDbLine
 10
774.1755933109089
 20
744.7875548432276
 30
0.0
 11
866.3920267359063
 21
744.7875548432276
 31
0.0
  0
LINE
  5
1FD
330
1F8
100
AcDbEntity
  8
0
 62
5
370
9
 48
3.0
440
16777216
100
AcDbLine
 10
856.392026735819
 20
480.78755484322755
 30
0.0
 11
856.392026735819
 21
744.7875548432276
 31
0.0
  0
LINE
  5
1FE
330
1F8
100
AcDbEntity
  8
0
  6
ByBlock
 62
0
370
-2
100
AcDbLine
 10
852.392026735819
 20
484.78755484322755
 30
0.0
 11
860.392026735819
 21
476.78755484322755
 31
0.0
  0
LINE
  5
1FF
330
1F8
100
AcDbEntity
  8
0
  6
ByBlock
 62
0
370
-2
100
AcDbLine
 10
860.392026735819
 20
740.7875548432276
 30
0.0
 11
852.392026735819
 21
748.7875548432276
 31
0.0
  0
MTEXT
  5
200
330
1F8
100
AcDbEntity
  8
0
 62
3
 48
3.0
440
16777216
100
AcDbMText
 10
833.6277020428097
 20
612.7875548431912
 30
0.0
 40
25.0
 41
0.0
 46
0.0
 71
5
  1
264
 11
1e-16
 21
1.0
 31
0.0
  0
POINT
  5
201
330
1F8
100
AcDbEntity
  8
Defpoints
 62
0
 48
3.0
440
16777216
100
AcDbPoint
 10
729.1755933109089
 20
480.78755484322755
 30
0.0
  0
POINT
  5
202
330
1F8
100
AcDbEntity
  8
Defpoints
 62
0
 48
3.0
440
16777216
100
AcDbPoint
 10
759.1755933109089
 20
744.7875548432276
 30
0.0
  0
POINT
  5
203
330
1F8
100
AcDbEntity
  8
Defpoints
 62
0
 48
3.0
440
16777216
100
AcDbPoint
 10
856.392026735819
 20
744.7875548432276
 30
0.0
  0
ENDBLK
  5
1FA
330
1F8
100
AcDbEntity
  8
0
100
AcDbBlockEnd
  0
BLOCK
  5
205
330
204
100
AcDbEntity
  8
0
100
AcDbBlockBegin
  2
*D15
 70
1
 10
0.0
 20
0.0
 30
0.0
  3
*D15
  1

  0
LINE
  5
207
330
204
100
AcDbEntity
  8
0
 62
5
370
9
 48
3.0
440
16777216
100
AcDbLine
 10
958.5403281047184
 20
739.7875548432276
 30
0.0
 11
958.5403281047184
 21
783.1332898308683
 31
0.0
  0
LINE
  5
208
330
204
100
AcDbEntity
  8
0
 62
5
370
9
 48
3.0
440
16777216
100
AcDbLine
 10
1248.5403281047184
 20
739.7875548432276
 30
0.0
 11
1248.5403281047184
 21
783.1332898308683
 31
0.0
  0
LINE
  5
209
330
204
100
AcDbEntity
  8
0
 62
5
370
9
 48
3.0
440
16777216
100
AcDbLine
 10
958.5403281047184
 20
773.1332898308683
 30
0.0
 11
1248.5403281047184
 21
773.1332898308683
 31
0.0
  0
LINE
  5
20A
330
204
100
AcDbEntity
  8
0
  6
ByBlock
 62
0
370
-2
100
AcDbLine
 10
962.5403281047184
 20
777.1332898308683
 30
0.0
 11
954.5403281047184
 21
769.1332898308683
 31
0.0
  0
LINE
  5
20B
330
204
100
AcDbEntity
  8
0
  6
ByBlock
 62
0
370
-2
100
AcDbLine
 10
1244.5403281047184
 20
769.1332898308683
 30
0.0
 11
1252.5403281047184
 21
777.1332898308683
 31
0.0
  0
MTEXT
  5
20C
330
204
100
AcDbEntity
  8
0
 62
3
 48
3.0
440
16777216
100
AcDbMText
 10
1103.5403281047184
 20
795.8976145239067
 30
0.0
 40
25.0
 41
0.0
 46
0.0
 71
5
  1
290
  0
POINT
  5
20D
330
204
100
AcDbEntity
  8
Defpoints
 62
0
 48
3.0
440
16777216
100
AcDbPoint
 10
958.5403281047184
 20
724.7875548432276
 30
0.0
  0
POINT
  5
20E
330
204
100
AcDbEntity
  8
Defpoints
 62
0
 48
3.0
440
16777216
100
AcDbPoint
 10
1248.5403281047184
 20
724.7875548432276
 30
0.0
  0
POINT
  5
20F
330
204
100
AcDbEntity
  8
Defpoints
 62
0
 48
3.0
440
16777216
100
AcDbPoint
 10
1248.5403281047184
 20
773.1332898308683
 30
0.0
  0
ENDBLK
  5
206
330
204
100
AcDbEntity
  8
0
100
AcDbBlockEnd
  0
BLOCK
  5
211
330
210
100
AcDbEntity
  8
0
100
AcDbBlockBegin
  2
*D16
 70
1
 10
0.0
 20
0.0
 30
0.0
  3
*D16
  1

  0
LINE
  5
213
330
210
100
AcDbEntity
  8
0
 62
5
370
9
 48
3.0
440
16777216
100
AcDbLine
 10
1263.5403281047184
 20
724.7875548432276
 30
0.0
 11
1367.265427218721
 21
724.7875548432276
 31
0.0
  0
LINE
  5
214
330
210
100
AcDbEntity
  8
0
 62
5
370
9
 48
3.0
440
16777216
100
AcDbLine
 10
1263.5403281047184
 20
604.7875548432276
 30
0.0
 11
1367.265427218721
 21
604.7875548432276
 31
0.0
  0
LINE
  5
215
330
210
100
AcDbEntity
  8
0
 62
5
370
9
 48
3.0
440
16777216
100
AcDbLine
 10
1357.265427218721
 20
724.7875548432276
 30
0.0
 11
1357.265427218721
 21
604.7875548432276
 31
0.0
  0
LINE
  5
216
330
210
100
AcDbEntity
  8
0
  6
ByBlock
 62
0
370
-2
100
AcDbLine
 10
1361.265427218721
 20
720.7875548432276
 30
0.0
 11
1353.265427218721
 21
728.7875548432276
 31
0.0
  0
LINE
  5
217
330
210
100
AcDbEntity
  8
0
  6
ByBlock
 62
0
370
-2
100
AcDbLine
 10
1353.265427218721
 20
608.7875548432276
 30
0.0
 11
1361.265427218721
 21
600.7875548432276
 31
0.0
  0
MTEXT
  5
218
330
210
100
AcDbEntity
  8
0
 62
3
 48
3.0
440
16777216
100
AcDbMText
 10
1334.5011025257118
 20
664.7875548431912
 30
0.0
 40
25.0
 41
0.0
 46
0.0
 71
5
  1
120
 11
1e-16
 21
1.0
 31
0.0
  0
POINT
  5
219
330
210
100
AcDbEntity
  8
Defpoints
 62
0
 48
3.0
440
16777216
100
AcDbPoint
 10
1248.5403281047184
 20
724.7875548432276
 30
0.0
  0
POINT
  5
21A
330
210
100
AcDbEntity
  8
Defpoints
 62
0
 48
3.0
440
16777216
100
AcDbPoint
 10
1248.5403281047184
 20
604.7875548432276
 30
0.0
  0
POINT
  5
21B
330
210
100
AcDbEntity
  8
Defpoints
 62
0
 48
3.0
440
16777216
100
AcDbPoint
 10
1357.265427218721
 20
604.7875548432276
 30
0.0
  0
ENDBLK
  5
212
330
210
100
AcDbEntity
  8
0
100
AcDbBlockEnd
  0
BLOCK
  5
21D
330
21C
100
AcDbEntity
  8
0
100
AcDbBlockBegin
  2
*D17
 70
1
 10
0.0
 20
0.0
 30
0.0
  3
*D17
  1

  0
LINE
  5
21F
330
21C
100
AcDbEntity
  8
0
 62
5
370
9
 48
3.0
440
16777216
100
AcDbLine
 10
2083.395856224408
 20
1937.2078768235078
 30
0.0
 11
2083.395856224408
 21
1989.1972417510406
 31
0.0
  0
LINE
  5
220
330
21C
100
AcDbEntity
  8
0
 62
5
370
9
 48
3.0
440
16777216
100
AcDbLine
 10
2095.395856224408
 20
1925.2078768235078
 30
0.0
 11
2095.395856224408
 21
1989.1972417510406
 31
0.0
  0
LINE
  5
221
330
21C
100
AcDbEntity
  8
0
 62
5
370
9
 48
3.0
440
16777216
100
AcDbLine
 10
2083.395856224408
 20
1979.1972417510406
 30
0.0
 11
2075.395856224408
 21
1979.1972417510406
 31
0.0
  0
LINE
  5
222
330
21C
100
AcDbEntity
  8
0
 62
5
370
9
 48
3.0
440
16777216
100
AcDbLine
 10
2095.395856224408
 20
1979.1972417510406
 30
0.0
 11
2164.5984483117063
 21
1979.1972417510406
 31
0.0
  0
LINE
  5
223
330
21C
100
AcDbEntity
  8
0
 62
5
370
9
 48
3.0
440
16777216
100
AcDbLine
 10
2083.395856224408
 20
1979.1972417510406
 30
0.0
 11
2095.395856224408
 21
1979.1972417510406
 31
0.0
  0
LINE
  5
224
330
21C
100
AcDbEntity
  8
0
  6
ByBlock
 62
0
370
-2
100
AcDbLine
 10
2079.395856224408
 20
1975.1972417510406
 30
0.0
 11
2087.395856224408
 21
1983.1972417510406
 31
0.0
  0
LINE
  5
225
330
21C
100
AcDbEntity
  8
0
  6
ByBlock
 62
0
370
-2
100
AcDbLine
 10
2099.395856224408
 20
1983.1972417510406
 30
0.0
 11
2091.395856224408
 21
1975.1972417510406
 31
0.0
  0
MTEXT
  5
226
330
21C
100
AcDbEntity
  8
0
 62
3
 48
3.0
440
16777216
100
AcDbMText
 10
2137.9971522681008
 20
2001.7484013690482
 30
0.0
 40
25.0
 41
0.0
 46
0.0
 71
5
  1
12
  0
POINT
  5
227
330
21C
100
AcDbEntity
  8
Defpoints
 62
0
 48
3.0
440
16777216
100
AcDbPoint
 10
2083.395856224408
 20
1922.2078768235078
 30
0.0
  0
POINT
  5
228
330
21C
100
AcDbEntity
  8
Defpoints
 62
0
 48
3.0
440
16777216
100
AcDbPoint
 10
2095.395856224408
 20
1910.2078768235078
 30
0.0
  0
POINT
  5
229
330
21C
100
AcDbEntity
  8
Defpoints
 62
0
 48
3.0
440
16777216
100
AcDbPoint
 10
2095.395856224408
 20
1979.1972417510406
 30
0.0
  0
ENDBLK
  5
21E
330
21C
100
AcDbEntity
  8
0
100
AcDbBlockEnd
  0
BLOCK
  5
22B
330
22A
100
AcDbEntity
  8
0
100
AcDbBlockBegin
  2
*D18
 70
1
 10
0.0
 20
0.0
 30
0.0
  3
*D18
  1

  0
LINE
  5
22D
330
22A
100
AcDbEntity
  8
0
 62
5
370
9
 48
3.0
440
16777216
100
AcDbLine
 10
2060.395856224408
 20
1960.2078768235078
 30
0.0
 11
2060.395856224408
 21
2041.980939798901
 31
0.0
  0
LINE
  5
22E
330
22A
100
AcDbEntity
  8
0
 62
5
370
9
 48
3.0
440
16777216
100
AcDbLine
 10
2083.395856224408
 20
1937.2078768235078
 30
0.0
 11
2083.395856224408
 21
2041.980939798901
 31
0.0
  0
LINE
  5
22F
330
22A
100
AcDbEntity
  8
0
 62
5
370
9
 48
3.0
440
16777216
100
AcDbLine
 10
2060.395856224408
 20
2031.980939798901
 30
0.0
 11
2083.395856224408
 21
2031.980939798901
 31
0.0
  0
LINE
  5
230
330
22A
100
AcDbEntity
  8
0
 62
5
370
9
 48
3.0
440
16777216
100
AcDbLine
 10
2083.395856224408
 20
2031.980939798901
 30
0.0
 11
2147.6339189801947
 21
2031.980939798901
 31
0.0
  0
LINE
  5
231
330
22A
100
AcDbEntity
  8
0
  6
ByBlock
 62
0
370
-2
100
AcDbLine
 10
2064.395856224408
 20
2035.980939798901
 30
0.0
 11
2056.395856224408
 21
2027.980939798901
 31
0.0
  0
LINE
  5
232
330
22A
100
AcDbEntity
  8
0
  6
ByBlock
 62
0
370
-2
100
AcDbLine
 10
2079.395856224408
 20
2027.980939798901
 30
0.0
 11
2087.395856224408
 21
2035.980939798901
 31
0.0
  0
MTEXT
  5
233
330
22A
100
AcDbEntity
  8
0
 62
3
 48
3.0
440
16777216
100
AcDbMText
 10
2119.5148876023013
 20
2054.753791094947
 30
0.0
 40
25.0
 41
0.0
 46
0.0
 71
5
  1
23
  0
POINT
  5
234
330
22A
100
AcDbEntity
  8
Defpoints
 62
0
 48
3.0
440
16777216
100
AcDbPoint
 10
2060.395856224408
 20
1945.2078768235078
 30
0.0
  0
POINT
  5
235
330
22A
100
AcDbEntity
  8
Defpoints
 62
0
 48
3.0
440
16777216
100
AcDbPoint
 10
2083.395856224408
 20
1922.2078768235078
 30
0.0
  0
POINT
  5
236
330
22A
100
AcDbEntity
  8
Defpoints
 62
0
 48
3.0
440
16777216
100
AcDbPoint
 10
2083.395856224408
 20
2031.980939798901
 30
0.0
  0
ENDBLK
  5
22C
330
22A
100
AcDbEntity
  8
0
100
AcDbBlockEnd
  0
BLOCK
  5
238
330
237
100
AcDbEntity
  8
0
100
AcDbBlockBegin
  2
*D19
 70
1
 10
0.0
 20
0.0
 30
0.0
  3
*D19
  1

  0
LINE
  5
23A
330
237
100
AcDbEntity
  8
0
 62
5
370
9
 48
3.0
440
16777216
100
AcDbLine
 10
2060.395856224408
 20
1960.2078768235078
 30
0.0
 11
2060.395856224408
 21
2041.980939798901
 31
0.0
  0
LINE
  5
23B
330
237
100
AcDbEntity
  8
0
 62
5
370
9
 48
3.0
440
16777216
100
AcDbLine
 10
1464.395856224408
 20
1960.2078768235078
 30
0.0
 11
1464.395856224408
 21
2041.980939798901
 31
0.0
  0
LINE
  5
23C
330
237
100
AcDbEntity
  8
0
 62
5
370
9
 48
3.0
440
16777216
100
AcDbLine
 10
2060.395856224408
 20
2031.980939798901
 30
0.0
 11
1464.395856224408
 21
2031.980939798901
 31
0.0
  0
LINE
  5
23D
330
237
100
AcDbEntity
  8
0
  6
ByBlock
 62
0
370
-2
100
AcDbLine
 10
2056.395856224408
 20
2027.980939798901
 30
0.0
 11
2064.395856224408
 21
2035.980939798901
 31
0.0
  0
LINE
  5
23E
330
237
100
AcDbEntity
  8
0
  6
ByBlock
 62
0
370
-2
100
AcDbLine
 10
1468.395856224408
 20
2035.980939798901
 30
0.0
 11
1460.395856224408
 21
2027.980939798901
 31
0.0
  0
MTEXT
  5
23F
330
237
100
AcDbEntity
  8
0
 62
3
 48
3.0
440
16777216
100
AcDbMText
 10
1762.395856224408
 20
2054.7452644919467
 30
0.0
 40
25.0
 41
0.0
 46
0.0
 71
5
  1
596
  0
POINT
  5
240
330
237
100
AcDbEntity
  8
Defpoints
 62
0
 48
3.0
440
16777216
100
AcDbPoint
 10
2060.395856224408
 20
1945.2078768235078
 30
0.0
  0
POINT
  5
241
330
237
100
AcDbEntity
  8
Defpoints
 62
0
 48
3.0
440
16777216
100
AcDbPoint
 10
1464.395856224408
 20
1945.2078768235078
 30
0.0
  0
POINT
  5
242
330
237
100
AcDbEntity
  8
Defpoints
 62
0
 48
3.0
440
16777216
100
AcDbPoint
 10
1464.395856224408
 20
2031.980939798901
 30
0.0
  0
ENDBLK
  5
239
330
237
100
AcDbEntity
  8
0
100
AcDbBlockEnd
  0
BLOCK
  5
244
330
243
100
AcDbEntity
  8
0
100
AcDbBlockBegin
  2
*D20
 70
1
 10
0.0
 20
0.0
 30
0.0
  3
*D20
  1

  0
LINE
  5
246
330
243
100
AcDbEntity
  8
0
 62
5
370
9
 48
3.0
440
16777216
100
AcDbLine
 10
1461.395856224408
 20
1957.2078768235006
 30
0.0
 11
1306.2560180310975
 21
1957.2078768235006
 31
0.0
  0
LINE
  5
247
330
243
100
AcDbEntity
  8
0
 62
5
370
9
 48
3.0
440
16777216
100
AcDbLine
 10
1461.395856224408
 20
1091.607876823502
 30
0.0
 11
1306.2560180310975
 21
1091.607876823502
 31
0.0
  0
LINE
  5
248
330
243
100
AcDbEntity
  8
0
 62
5
370
9
 48
3.0
440
16777216
100
AcDbLine
 10
1316.2560180310975
 20
1957.2078768235006
 30
0.0
 11
1316.2560180310975
 21
1091.607876823502
 31
0.0
  0
LINE
  5
249
330
243
100
AcDbEntity
  8
0
  6
ByBlock
 62
0
370
-2
100
AcDbLine
 10
1320.2560180310975
 20
1953.2078768235006
 30
0.0
 11
1312.2560180310975
 21
1961.2078768235006
 31
0.0
  0
LINE
  5
24A
330
243
100
AcDbEntity
  8
0
  6
ByBlock
 62
0
370
-2
100
AcDbLine
 10
1312.2560180310975
 20
1095.607876823502
 30
0.0
 11
1320.2560180310975
 21
1087.607876823502
 31
0.0
  0
MTEXT
  5
24B
330
243
100
AcDbEntity
  8
0
 62
3
 48
3.0
440
16777216
100
AcDbMText
 10
1293.4916933381173
 20
1524.4078768234613
 30
0.0
 40
25.0
 41
0.0
 46
0.0
 71
5
  1
866
 11
1e-16
 21
1.0
 31
0.0
  0
POINT
  5
24C
330
243
100
AcDbEntity
  8
Defpoints
 62
0
 48
3.0
440
16777216
100
AcDbPoint
 10
1476.395856224408
 20
1957.2078768235006
 30
0.0
  0
POINT
  5
24D
330
243
100
AcDbEntity
  8
Defpoints
 62
0
 48
3.0
440
16777216
100
AcDbPoint
 10
1476.395856224408
 20
1091.607876823502
 30
0.0
  0
POINT
  5
24E
330
243
100
AcDbEntity
  8
Defpoints
 62
0
 48
3.0
440
16777216
100
AcDbPoint
 10
1316.2560180310975
 20
1091.607876823502
 30
0.0
  0
ENDBLK
  5
245
330
243
100
AcDbEntity
  8
0
100
AcDbBlockEnd
  0
BLOCK
  5
250
330
24F
100
AcDbEntity
  8
0
100
AcDbBlockBegin
  2
*D21
 70
1
 10
0.0
 20
0.0
 30
0.0
  3
*D21
  1

  0
LINE
  5
252
330
24F
100
AcDbEntity
  8
0
 62
5
370
9
 48
3.0
440
16777216
100
AcDbLine
 10
1426.395856224408
 20
1126.607876823502
 30
0.0
 11
1363.7821500966966
 21
1126.607876823502
 31
0.0
  0
LINE
  5
253
330
24F
100
AcDbEntity
  8
0
 62
5
370
9
 48
3.0
440
16777216
100
AcDbLine
 10
1426.395856224408
 20
1922.2078768235078
 30
0.0
 11
1363.7821500966966
 21
1922.2078768235078
 31
0.0
  0
LINE
  5
254
330
24F
100
AcDbEntity
  8
0
 62
5
370
9
 48
3.0
440
16777216
100
AcDbLine
 10
1373.7821500966966
 20
1126.607876823502
 30
0.0
 11
1373.7821500966966
 21
1922.2078768235078
 31
0.0
  0
LINE
  5
255
330
24F
100
AcDbEntity
  8
0
  6
ByBlock
 62
0
370
-2
100
AcDbLine
 10
1369.7821500966966
 20
1130.607876823502
 30
0.0
 11
1377.7821500966966
 21
1122.607876823502
 31
0.0
  0
LINE
  5
256
330
24F
100
AcDbEntity
  8
0
  6
ByBlock
 62
0
370
-2
100
AcDbLine
 10
1377.7821500966966
 20
1918.2078768235078
 30
0.0
 11
1369.7821500966966
 21
1926.2078768235078
 31
0.0
  0
MTEXT
  5
257
330
24F
100
AcDbEntity
  8
0
 62
3
 48
3.0
440
16777216
100
AcDbMText
 10
1351.0178254036
 20
1524.4078768234685
 30
0.0
 40
25.0
 41
0.0
 46
0.0
 71
5
  1
796
 11
1e-16
 21
1.0
 31
0.0
  0
POINT
  5
258
330
24F
100
AcDbEntity
  8
Defpoints
 62
0
 48
3.0
440
16777216
100
AcDbPoint
 10
1441.395856224408
 20
1126.607876823502
 30
0.0
  0
POINT
  5
259
330
24F
100
AcDbEntity
  8
Defpoints
 62
0
 48
3.0
440
16777216
100
AcDbPoint
 10
1441.395856224408
 20
1922.2078768235078
 30
0.0
  0
POINT
  5
25A
330
24F
100
AcDbEntity
  8
Defpoints
 62
0
 48
3.0
440
16777216
100
AcDbPoint
 10
1373.7821500966966
 20
1922.2078768235078
 30
0.0
  0
ENDBLK
  5
251
330
24F
100
AcDbEntity
  8
0
100
AcDbBlockEnd
  0
BLOCK
  5
25C
330
25B
100
AcDbEntity
  8
0
100
AcDbBlockBegin
  2
*D22
 70
1
 10
0.0
 20
0.0
 30
0.0
  3
*D22
  1

  0
LINE
  5
25E
330
25B
100
AcDbEntity
  8
0
 62
5
370
9
 48
3.0
440
16777216
100
AcDbLine
 10
1702.7342900623044
 20
436.7669646084614
 30
0.0
 11
1702.7342900623044
 21
476.93367770374607
 31
0.0
  0
LINE
  5
25F
330
25B
100
AcDbEntity
  8
0
 62
5
370
9
 48
3.0
440
16777216
100
AcDbLine
 10
1802.7342900623044
 20
436.7669646084614
 30
0.0
 11
1802.7342900623044
 21
476.93367770374607
 31
0.0
  0
LINE
  5
260
330
25B
100
AcDbEntity
  8
0
 62
5
370
9
 48
3.0
440
16777216
100
AcDbLine
 10
1702.7342900623044
 20
466.93367770374607
 30
0.0
 11
1802.7342900623044
 21
466.93367770374607
 31
0.0
  0
LINE
  5
261
330
25B
100
AcDbEntity
  8
0
  6
ByBlock
 62
0
370
-2
100
AcDbLine
 10
1706.7342900623044
 20
470.93367770374607
 30
0.0
 11
1698.7342900623044
 21
462.93367770374607
 31
0.0
  0
LINE
  5
262
330
25B
100
AcDbEntity
  8
0
  6
ByBlock
 62
0
370
-2
100
AcDbLine
 10
1798.7342900623044
 20
462.93367770374607
 30
0.0
 11
1806.7342900623044
 21
470.93367770374607
 31
0.0
  0
MTEXT
  5
263
330
25B
100
AcDbEntity
  8
0
 62
3
 48
3.0
440
16777216
100
AcDbMText
 10
1752.7342900623044
 20
489.698002396799
 30
0.0
 40
25.0
 41
0.0
 46
0.0
 71
5
  1
100
  0
POINT
  5
264
330
25B
100
AcDbEntity
  8
Defpoints
 62
0
 48
3.0
440
16777216
100
AcDbPoint
 10
1702.7342900623044
 20
421.7669646084614
 30
0.0
  0
POINT
  5
265
330
25B
100
AcDbEntity
  8
Defpoints
 62
0
 48
3.0
440
16777216
100
AcDbPoint
 10
1802.7342900623044
 20
421.7669646084614
 30
0.0
  0
POINT
  5
266
330
25B
100
AcDbEntity
  8
Defpoints
 62
0
 48
3.0
440
16777216
100
AcDbPoint
 10
1802.7342900623044
 20
466.93367770374607
 30
0.0
  0
ENDBLK
  5
25D
330
25B
100
AcDbEntity
  8
0
100
AcDbBlockEnd
  0
BLOCK
  5
268
330
267
100
AcDbEntity
  8
0
100
AcDbBlockBegin
  2
*D23
 70
1
 10
0.0
 20
0.0
 30
0.0
  3
*D23
  1

  0
LINE
  5
26A
330
267
100
AcDbEntity
  8
0
 62
5
370
9
 48
3.0
440
16777216
100
AcDbLine
 10
1817.7342900623044
 20
421.7669646084614
 30
0.0
 11
1895.0246909444104
 21
421.7669646084614
 31
0.0
  0
LINE
  5
26B
330
267
100
AcDbEntity
  8
0
 62
5
370
9
 48
3.0
440
16777216
100
AcDbLine
 10
1817.7342900623044
 20
371.7669646084614
 30
0.0
 11
1895.0246909444104
 21
371.7669646084614
 31
0.0
  0
LINE
  5
26C
330
267
100
AcDbEntity
  8
0
 62
5
370
9
 48
3.0
440
16777216
100
AcDbLine
 10
1885.0246909444104
 20
421.7669646084614
 30
0.0
 11
1885.0246909444104
 21
371.7669646084614
 31
0.0
  0
LINE
  5
26D
330
267
100
AcDbEntity
  8
0
 62
5
370
9
 48
3.0
440
16777216
100
AcDbLine
 10
1885.0246909444104
 20
371.7669646084614
 30
0.0
 11
1885.0246909444104
 21
308.04049803273665
 31
0.0
  0
LINE
  5
26E
330
267
100
AcDbEntity
  8
0
  6
ByBlock
 62
0
370
-2
100
AcDbLine
 10
1889.0246909444104
 20
417.7669646084614
 30
0.0
 11
1881.0246909444104
 21
425.7669646084614
 31
0.0
  0
LINE
  5
26F
330
267
100
AcDbEntity
  8
0
  6
ByBlock
 62
0
370
-2
100
AcDbLine
 10
1881.0246909444104
 20
375.7669646084614
 30
0.0
 11
1889.0246909444104
 21
367.7669646084614
 31
0.0
  0
MTEXT
  5
270
330
267
100
AcDbEntity
  8
0
 62
3
 48
3.0
440
16777216
100
AcDbMText
 10
1862.2603662514011
 20
335.90373132056993
 30
0.0
 40
25.0
 41
0.0
 46
0.0
 71
5
  1
50
 11
1e-16
 21
1.0
 31
0.0
  0
POINT
  5
271
330
267
100
AcDbEntity
  8
Defpoints
 62
0
 48
3.0
440
16777216
100
AcDbPoint
 10
1802.7342900623044
 20
421.7669646084614
 30
0.0
  0
POINT
  5
272
330
267
100
AcDbEntity
  8
Defpoints
 62
0
 48
3.0
440
16777216
100
AcDbPoint
 10
1802.7342900623044
 20
371.7669646084614
 30
0.0
  0
POINT
  5
273
330
267
100
AcDbEntity
  8
Defpoints
 62
0
 48
3.0
440
16777216
100
AcDbPoint
 10
1885.0246909444104
 20
371.7669646084614
 30
0.0
  0
ENDBLK
  5
269
330
267
100
AcDbEntity
  8
0
100
AcDbBlockEnd
  0
ENDSEC
  0
SECTION
  2
ENTITIES
  0
LWPOLYLINE
  5
2F
330
17
100
AcDbEntity
  8
0
 62
7
100
AcDbPolyline
 90
4
 70
0
 10
1188.1838435500104
 20
1893.2078768235078
 10
1200.1838435500104
 20
1893.2078768235078
 10
1200.1838435500104
 20
1155.607876823502
 10
1188.1838435500104
 20
1155.607876823502
  0
LWPOLYLINE
  5
30
330
17
100
AcDbEntity
  8
0
 62
7
100
AcDbPolyline
 90
2
 70
0
 10
1158.1838435500104
 20
1125.607876823502
 10
118.18384355001035
 20
1125.607876823502
  0
LWPOLYLINE
  5
31
330
17
100
AcDbEntity
  8
0
 62
7
100
AcDbPolyline
 90
4
 70
0
 10
88.18384355001035
 20
1155.607876823502
 10
76.18384355001035
 20
1155.607876823502
 10
76.18384355001035
 20
1893.2078768235078
 10
88.18384355001035
 20
1893.2078768235078
  0
LWPOLYLINE
  5
32
330
17
100
AcDbEntity
  8
0
 62
7
100
AcDbPolyline
 90
2
 70
0
 10
118.18384355001035
 20
1923.2078768235078
 10
1158.1838435500104
 20
1923.2078768235078
  0
LINE
  5
33
330
17
100
AcDbEntity
  8
0
 62
7
100
AcDbLine
 10
1188.1838435500104
 20
1893.2078768235078
 30
0.0
 11
1188.1838435500104
 21
1155.607876823502
 31
0.0
  0
LINE
  5
34
330
17
100
AcDbEntity
  8
0
 62
7
100
AcDbLine
 10
1158.1838435500104
 20
1923.2078768235078
 30
0.0
 11
1158.1838435500104
 21
1125.607876823502
 31
0.0
  0
LINE
  5
35
330
17
100
AcDbEntity
  8
0
 62
7
100
AcDbLine
 10
937.1838435500104
 20
1923.2078768235078
 30
0.0
 11
937.1838435500104
 21
1125.607876823502
 31
0.0
  0
LINE
  5
36
330
17
100
AcDbEntity
  8
0
 62
7
100
AcDbLine
 10
88.18384355001035
 20
1893.2078768235078
 30
0.0
 11
88.18384355001035
 21
1155.607876823502
 31
0.0
  0
LINE
  5
37
330
17
100
AcDbEntity
  8
0
 62
7
100
AcDbLine
 10
118.18384355001035
 20
1923.2078768235078
 30
0.0
 11
118.18384355001035
 21
1125.607876823502
 31
0.0
  0
LINE
  5
38
330
17
100
AcDbEntity
  8
0
 62
7
100
AcDbLine
 10
339.18384354992304
 20
1923.2078768235078
 30
0.0
 11
339.18384354992304
 21
1125.607876823502
 31
0.0
  0
DIMENSION
  5
39
330
17
100
AcDbEntity
  8
DIM
 62
7
100
AcDbDimension
280
0
  2
*D1
  3
Dim-15
 10
1242.33054518461
 20
1125.607876823502
 30
0.0
 11
1229.6719503688219
 21
1524.4078768234685
 31
0.0
 70
32
 71
5
 42
797.6000000000058
 73
0
 74
0
 75
0
100
AcDbAlignedDimension
 13
1158.1838435500104
 23
1923.2078768235078
 33
0.0
 14
1158.1838435500104
 24
1125.607876823502
 34
0.0
 50
90.0
100
AcDbRotatedDimension
  0
DIMENSION
  5
3E
330
17
100
AcDbEntity
  8
DIM
 62
7
100
AcDbDimension
280
0
  2
*D2
  3
Dim-15
 10
937.1838435500104
 20
1955.342663890282
 30
0.0
 11
638.1838435500104
 21
1968.0012587061065
 31
0.0
 70
32
 71
5
 42
598.0
 73
0
 74
0
 75
0
100
AcDbAlignedDimension
 13
339.18384354992304
 23
1923.2078768235078
 33
0.0
 14
937.1838435500104
 24
1923.2078768235078
 34
0.0
 50
0.0
100
AcDbRotatedDimension
  0
DIMENSION
  5
3F
330
17
100
AcDbEntity
  8
DIM
 62
7
100
AcDbDimension
280
0
  2
*D3
  3
Dim-15
 10
1158.1838435500104
 20
1955.342663890282
 30
0.0
 11
1093.1838435500104
 21
1955.342663890282
 31
0.0
 70
160
 71
5
 42
221.0
 73
0
 74
0
 75
0
100
AcDbAlignedDimension
 13
937.1838435500104
 23
1923.2078768235078
 33
0.0
 14
1158.1838435500104
 24
1923.2078768235078
 34
0.0
 50
0.0
100
AcDbRotatedDimension
  0
DIMENSION
  5
40
330
17
100
AcDbEntity
  8
DIM
 62
7
100
AcDbDimension
280
0
  2
*D4
  3
Dim-15
 10
1188.1838435500104
 20
1955.342663890282
 30
0.0
 11
1173.1838435500104
 21
1955.342663890282
 31
0.0
 70
160
 71
5
 42
30.0
 73
0
 74
0
 75
0
100
AcDbAlignedDimension
 13
1158.1838435500104
 23
1923.2078768235078
 33
0.0
 14
1188.1838435500104
 24
1893.2078768235078
 34
0.0
 50
0.0
100
AcDbRotatedDimension
  0
DIMENSION
  5
41
330
17
100
AcDbEntity
  8
DIM
 62
7
100
AcDbDimension
280
0
  2
*D5
  3
Dim-15
 10
1200.1838435500104
 20
1955.342663890282
 30
0.0
 11
1220.1446211762086
 21
1967.8733596610764
 31
0.0
 70
32
 71
5
 42
12.0
 73
0
 74
0
 75
0
100
AcDbAlignedDimension
 13
1188.1838435500104
 23
1893.2078768235078
 33
0.0
 14
1200.1838435500104
 24
1893.2078768235078
 34
0.0
 50
0.0
100
AcDbRotatedDimension
  0
DIMENSION
  5
42
330
17
100
AcDbEntity
  8
DIM
 62
7
100
AcDbDimension
280
0
  2
*D6
  3
Dim-15
 10
118.18384355001035
 20
1955.342663890282
 30
0.0
 11
183.18384355001035
 21
1955.342663890282
 31
0.0
 70
160
 71
5
 42
221.0
 73
0
 74
0
 75
0
100
AcDbAlignedDimension
 13
339.18384354992304
 23
1923.2078768235078
 33
0.0
 14
118.18384355001035
 24
1923.2078768235078
 34
0.0
 50
180.0
100
AcDbRotatedDimension
  0
DIMENSION
  5
43
330
17
100
AcDbEntity
  8
DIM
 62
7
100
AcDbDimension
280
0
  2
*D7
  3
Dim-15
 10
88.18384355001035
 20
1955.342663890282
 30
0.0
 11
103.18384355001035
 21
1955.342663890282
 31
0.0
 70
160
 71
5
 42
30.0
 73
0
 74
0
 75
0
100
AcDbAlignedDimension
 13
118.18384355001035
 23
1923.2078768235078
 33
0.0
 14
88.18384355001035
 24
1893.2078768235078
 34
0.0
 50
180.0
100
AcDbRotatedDimension
  0
DIMENSION
  5
44
330
17
100
AcDbEntity
  8
DIM
 62
7
100
AcDbDimension
280
0
  2
*D8
  3
Dim-15
 10
76.18384355001035
 20
1955.342663890282
 30
0.0
 11
56.2230659238121
 21
1967.8733596610764
 31
0.0
 70
32
 71
5
 42
12.0
 73
0
 74
0
 75
0
100
AcDbAlignedDimension
 13
88.18384355001035
 23
1893.2078768235078
 33
0.0
 14
76.18384355001035
 24
1893.2078768235078
 34
0.0
 50
180.0
100
AcDbRotatedDimension
  0
LINE
  5
45
330
17
100
AcDbEntity
  8
0
 62
7
100
AcDbLine
 10
88.18384355001035
 20
1893.2078768235078
 30
0.0
 11
118.18384355001035
 21
1923.2078768235078
 31
0.0
  0
LINE
  5
46
330
17
100
AcDbEntity
  8
0
 62
7
100
AcDbLine
 10
88.18384355001035
 20
1155.607876823502
 30
0.0
 11
118.18384355001035
 21
1125.607876823502
 31
0.0
  0
LINE
  5
47
330
17
100
AcDbEntity
  8
0
 62
7
100
AcDbLine
 10
1158.1838435500104
 20
1125.607876823502
 30
0.0
 11
1188.1838435500104
 21
1155.607876823502
 31
0.0
  0
LINE
  5
48
330
17
100
AcDbEntity
  8
0
 62
7
100
AcDbLine
 10
1158.1838435500104
 20
1923.2078768235078
 30
0.0
 11
1188.1838435500104
 21
1893.2078768235078
 31
0.0
  0
DIMENSION
  5
49
330
17
100
AcDbEntity
  8
DIM
 62
7
100
AcDbDimension
280
0
  2
*D9
  3
Dim-15
 10
1200.1838435500104
 20
1075.8358045753412
 30
0.0
 11
638.1838435500104
 21
1088.3665003461356
 31
0.0
 70
32
 71
5
 42
1124.0
 73
0
 74
0
 75
0
100
AcDbAlignedDimension
 13
76.18384355001035
 23
1155.607876823502
 33
0.0
 14
1200.1838435500104
 24
1155.607876823502
 34
0.0
 50
0.0
100
AcDbRotatedDimension
  0
INSERT
  5
4A
330
17
100
AcDbEntity
  8
0
370
-3
100
AcDbBlockReference
  2
f3daunguoc
 10
118.18384355001035
 20
1908.2078768235078
 30
0.0
 41
-1.0
 50
180.0
  0
INSERT
  5
4C
330
17
100
AcDbEntity
  8
0
370
-3
100
AcDbBlockReference
  2
f3daunguoc
 10
88.18384355001035
 20
1878.2078768235078
 30
0.0
 41
-1.0
 50
180.0
  0
INSERT
  5
4E
330
17
100
AcDbEntity
  8
0
370
-3
100
AcDbBlockReference
  2
f3daunguoc
 10
339.18384354992304
 20
1908.2078768235078
 30
0.0
 41
-1.0
 50
180.0
  0
INSERT
  5
50
330
17
100
AcDbEntity
  8
0
370
-3
100
AcDbBlockReference
  2
f3daunguoc
 10
937.1838435500104
 20
1908.2078768235078
 30
0.0
 41
-1.0
 50
180.0
  0
INSERT
  5
52
330
17
100
AcDbEntity
  8
0
370
-3
100
AcDbBlockReference
  2
f3daunguoc
 10
1158.1838435500104
 20
1908.2078768235078
 30
0.0
 41
-1.0
 50
180.0
  0
INSERT
  5
54
330
17
100
AcDbEntity
  8
0
370
-3
100
AcDbBlockReference
  2
f3daunguoc
 10
1188.1838435500104
 20
1878.2078768235078
 30
0.0
 41
-1.0
 50
180.0
  0
INSERT
  5
56
330
17
100
AcDbEntity
  8
0
370
-3
100
AcDbBlockReference
  2
f3daunguoc
 10
118.18384355001035
 20
1140.6078768235093
 30
0.0
  0
INSERT
  5
58
330
17
100
AcDbEntity
  8
0
370
-3
100
AcDbBlockReference
  2
f3daunguoc
 10
88.18384355001035
 20
1170.6078768235093
 30
0.0
  0
INSERT
  5
5A
330
17
100
AcDbEntity
  8
0
370
-3
100
AcDbBlockReference
  2
f3daunguoc
 10
339.18384354992304
 20
1140.6078768235093
 30
0.0
  0
INSERT
  5
5C
330
17
100
AcDbEntity
  8
0
370
-3
100
AcDbBlockReference
  2
f3daunguoc
 10
937.1838435500104
 20
1140.6078768235093
 30
0.0
  0
INSERT
  5
5E
330
17
100
AcDbEntity
  8
0
370
-3
100
AcDbBlockReference
  2
f3daunguoc
 10
1158.1838435500104
 20
1140.6078768235093
 30
0.0
  0
INSERT
  5
60
330
17
100
AcDbEntity
  8
0
370
-3
100
AcDbBlockReference
  2
f3daunguoc
 10
1188.1838435500104
 20
1170.6078768235093
 30
0.0
  0
LWPOLYLINE
  5
62
330
17
100
AcDbEntity
  8
0
 62
2
100
AcDbPolyline
 90
6
 70
1
 10
196.68384355001035
 20
1803.2078768235078
 10
260.68384355001035
 20
1803.2078768235078
 42
-0.4142135623730951
 10
268.68384355001035
 20
1795.2078768235078
 10
268.68384355001035
 20
1792.2078768235078
 10
188.68384355001035
 20
1792.2078768235078
 10
188.68384355001035
 20
1795.2078768235078
 42
-0.4142135623730951
  0
LWPOLYLINE
  5
63
330
17
100
AcDbEntity
  8
0
 62
2
100
AcDbPolyline
 90
6
 70
1
 10
196.68384355001035
 20
1772.2078768235078
 10
260.68384355001035
 20
1772.2078768235078
 42
-0.4142135623730951
 10
268.68384355001035
 20
1764.2078768235078
 10
268.68384355001035
 20
1761.2078768235078
 10
188.68384355001035
 20
1761.2078768235078
 10
188.68384355001035
 20
1764.2078768235078
 42
-0.4142135623730951
  0
LWPOLYLINE
  5
64
330
17
100
AcDbEntity
  8
0
 62
2
100
AcDbPolyline
 90
6
 70
1
 10
196.68384355001035
 20
1741.2078768235078
 10
260.68384355001035
 20
1741.2078768235078
 42
-0.4142135623730951
 10
268.68384355001035
 20
1733.2078768235078
 10
268.68384355001035
 20
1730.2078768235078
 10
188.68384355001035
 20
1730.2078768235078
 10
188.68384355001035
 20
1733.2078768235078
 42
-0.4142135623730951
  0
LWPOLYLINE
  5
65
330
17
100
AcDbEntity
  8
0
 62
2
100
AcDbPolyline
 90
6
 70
1
 10
196.68384355001035
 20
1710.2078768235078
 10
260.68384355001035
 20
1710.2078768235078
 42
-0.4142135623730951
 10
268.68384355001035
 20
1702.2078768235078
 10
268.68384355001035
 20
1699.2078768235078
 10
188.68384355001035
 20
1699.2078768235078
 10
188.68384355001035
 20
1702.2078768235078
 42
-0.4142135623730951
  0
LWPOLYLINE
  5
66
330
17
100
AcDbEntity
  8
0
 62
2
100
AcDbPolyline
 90
6
 70
1
 10
196.68384355001035
 20
1349.607876823502
 10
260.68384355001035
 20
1349.607876823502
 42
-0.4142135623730951
 10
268.68384355001035
 20
1341.607876823502
 10
268.68384355001035
 20
1338.607876823502
 10
188.68384355001035
 20
1338.607876823502
 10
188.68384355001035
 20
1341.607876823502
 42
-0.4142135623730951
  0
LWPOLYLINE
  5
67
330
17
100
AcDbEntity
  8
0
 62
2
100
AcDbPolyline
 90
6
 70
1
 10
196.68384355001035
 20
1318.607876823502
 10
260.68384355001035
 20
1318.607876823502
 42
-0.4142135623730951
 10
268.68384355001035
 20
1310.607876823502
 10
268.68384355001035
 20
1307.607876823502
 10
188.68384355001035
 20
1307.607876823502
 10
188.68384355001035
 20
1310.607876823502
 42
-0.4142135623730951
  0
LWPOLYLINE
  5
68
330
17
100
AcDbEntity
  8
0
 62
2
100
AcDbPolyline
 90
6
 70
1
 10
196.68384355001035
 20
1287.607876823502
 10
260.68384355001035
 20
1287.607876823502
 42
-0.4142135623730951
 10
268.68384355001035
 20
1279.607876823502
 10
268.68384355001035
 20
1276.607876823502
 10
188.68384355001035
 20
1276.607876823502
 10
188.68384355001035
 20
1279.607876823502
 42
-0.4142135623730951
  0
LWPOLYLINE
  5
69
330
17
100
AcDbEntity
  8
0
 62
2
100
AcDbPolyline
 90
6
 70
1
 10
196.68384355001035
 20
1256.607876823502
 10
260.68384355001035
 20
1256.607876823502
 42
-0.4142135623730951
 10
268.68384355001035
 20
1248.607876823502
 10
268.68384355001035
 20
1245.607876823502
 10
188.68384355001035
 20
1245.607876823502
 10
188.68384355001035
 20
1248.607876823502
 42
-0.4142135623730951
  0
LWPOLYLINE
  5
6A
330
17
100
AcDbEntity
  8
0
 62
2
100
AcDbPolyline
 90
6
 70
1
 10
1015.6838435500104
 20
1803.2078768235078
 10
1079.6838435500104
 20
1803.2078768235078
 42
-0.4142135623730951
 10
1087.6838435500104
 20
1795.2078768235078
 10
1087.6838435500104
 20
1792.2078768235078
 10
1007.6838435500104
 20
1792.2078768235078
 10
1007.6838435500104
 20
1795.2078768235078
 42
-0.4142135623730951
  0
LWPOLYLINE
  5
6B
330
17
100
AcDbEntity
  8
0
 62
2
100
AcDbPolyline
 90
6
 70
1
 10
1015.6838435500104
 20
1772.2078768235078
 10
1079.6838435500104
 20
1772.2078768235078
 42
-0.4142135623730951
 10
1087.6838435500104
 20
1764.2078768235078
 10
1087.6838435500104
 20
1761.2078768235078
 10
1007.6838435500104
 20
1761.2078768235078
 10
1007.6838435500104
 20
1764.2078768235078
 42
-0.4142135623730951
  0
LWPOLYLINE
  5
6C
330
17
100
AcDbEntity
  8
0
 62
2
100
AcDbPolyline
 90
6
 70
1
 10
1015.6838435500104
 20
1741.2078768235078
 10
1079.6838435500104
 20
1741.2078768235078
 42
-0.4142135623730951
 10
1087.6838435500104
 20
1733.2078768235078
 10
1087.6838435500104
 20
1730.2078768235078
 10
1007.6838435500104
 20
1730.2078768235078
 10
1007.6838435500104
 20
1733.2078768235078
 42
-0.4142135623730951
  0
LWPOLYLINE
  5
6D
330
17
100
AcDbEntity
  8
0
 62
2
100
AcDbPolyline
 90
6
 70
1
 10
1015.6838435500104
 20
1710.2078768235078
 10
1079.6838435500104
 20
1710.2078768235078
 42
-0.4142135623730951
 10
1087.6838435500104
 20
1702.2078768235078
 10
1087.6838435500104
 20
1699.2078768235078
 10
1007.6838435500104
 20
1699.2078768235078
 10
1007.6838435500104
 20
1702.2078768235078
 42
-0.4142135623730951
  0
LWPOLYLINE
  5
6E
330
17
100
AcDbEntity
  8
0
 62
2
100
AcDbPolyline
 90
6
 70
1
 10
1015.6838435500104
 20
1349.607876823502
 10
1079.6838435500104
 20
1349.607876823502
 42
-0.4142135623730951
 10
1087.6838435500104
 20
1341.607876823502
 10
1087.6838435500104
 20
1338.607876823502
 10
1007.6838435500104
 20
1338.607876823502
 10
1007.6838435500104
 20
1341.607876823502
 42
-0.4142135623730951
  0
LWPOLYLINE
  5
6F
330
17
100
AcDbEntity
  8
0
 62
2
100
AcDbPolyline
 90
6
 70
1
 10
1015.6838435500104
 20
1318.607876823502
 10
1079.6838435500104
 20
1318.607876823502
 42
-0.4142135623730951
 10
1087.6838435500104
 20
1310.607876823502
 10
1087.6838435500104
 20
1307.607876823502
 10
1007.6838435500104
 20
1307.607876823502
 10
1007.6838435500104
 20
1310.607876823502
 42
-0.4142135623730951
  0
LWPOLYLINE
  5
70
330
17
100
AcDbEntity
  8
0
 62
2
100
AcDbPolyline
 90
6
 70
1
 10
1015.6838435500104
 20
1287.607876823502
 10
1079.6838435500104
 20
1287.607876823502
 42
-0.4142135623730951
 10
1087.6838435500104
 20
1279.607876823502
 10
1087.6838435500104
 20
1276.607876823502
 10
1007.6838435500104
 20
1276.607876823502
 10
1007.6838435500104
 20
1279.607876823502
 42
-0.4142135623730951
  0
LWPOLYLINE
  5
71
330
17
100
AcDbEntity
  8
0
 62
2
100
AcDbPolyline
 90
6
 70
1
 10
1015.6838435500104
 20
1256.607876823502
 10
1079.6838435500104
 20
1256.607876823502
 42
-0.4142135623730951
 10
1087.6838435500104
 20
1248.607876823502
 10
1087.6838435500104
 20
1245.607876823502
 10
1007.6838435500104
 20
1245.607876823502
 10
1007.6838435500104
 20
1248.607876823502
 42
-0.4142135623730951
  0
LWPOLYLINE
  5
72
330
17
100
AcDbEntity
  8
0
 62
2
100
AcDbPolyline
 90
4
 70
1
 10
99.383843550022
 20
1841.407876823505
 10
112.383843550022
 20
1841.407876823505
 10
112.383843550022
 20
1832.407876823505
 10
99.383843550022
 20
1832.407876823505
  0
LWPOLYLINE
  5
73
330
17
100
AcDbEntity
  8
0
 62
2
100
AcDbPolyline
 90
4
 70
1
 10
99.383843550022
 20
1816.4078768235195
 10
112.383843550022
 20
1816.4078768235195
 10
112.383843550022
 20
1807.4078768235195
 10
99.383843550022
 20
1807.4078768235195
  0
LWPOLYLINE
  5
74
330
17
100
AcDbEntity
  8
0
 62
2
100
AcDbPolyline
 90
4
 70
1
 10
99.383843550022
 20
1207.407876823505
 10
112.383843550022
 20
1207.407876823505
 10
112.383843550022
 20
1216.407876823505
 10
99.383843550022
 20
1216.407876823505
  0
LWPOLYLINE
  5
75
330
17
100
AcDbEntity
  8
0
 62
2
100
AcDbPolyline
 90
4
 70
1
 10
99.383843550022
 20
1232.407876823505
 10
112.383843550022
 20
1232.407876823505
 10
112.383843550022
 20
1241.407876823505
 10
99.383843550022
 20
1241.407876823505
  0
CIRCLE
  5
76
330
17
100
AcDbEntity
  8
0
 62
2
100
AcDbCircle
 10
421.7838435500162
 20
1845.8078768235064
 30
0.0
 40
1.5
  0
CIRCLE
  5
77
330
17
100
AcDbEntity
  8
0
 62
2
100
AcDbCircle
 10
854.5838435500045
 20
1845.8078768235064
 30
0.0
 40
1.5
  0
CIRCLE
  5
78
330
17
100
AcDbEntity
  8
0
 62
2
100
AcDbCircle
 10
421.7838435500162
 20
1203.0078768235107
 30
0.0
 40
1.5
  0
CIRCLE
  5
79
330
17
100
AcDbEntity
  8
0
 62
2
100
AcDbCircle
 10
854.5838435500045
 20
1203.0078768235107
 30
0.0
 40
1.5
  0
LWPOLYLINE
  5
7A
330
17
100
AcDbEntity
  8
0
 62
7
100
AcDbPolyline
 90
4
 70
0
 10
729.1755933109089
 20
492.78755484322755
 10
729.1755933109089
 20
480.78755484322755
 10
189.17559331090888
 20
480.78755484322755
 10
189.17559331090888
 20
492.78755484322755
  0
LWPOLYLINE
  5
7B
330
17
100
AcDbEntity
  8
0
 62
7
100
AcDbPolyline
 90
2
 70
0
 10
159.17559331090888
 20
522.7875548432276
 10
159.17559331090888
 20
744.7875548432276
  0
LINE
  5
7C
330
17
100
AcDbEntity
  8
0
 62
7
100
AcDbLine
 10
189.17559331090888
 20
492.78755484322755
 30
0.0
 11
729.1755933109089
 21
492.78755484322755
 31
0.0
  0
LINE
  5
7D
330
17
100
AcDbEntity
  8
0
 62
7
100
AcDbLine
 10
159.17559331090888
 20
522.7875548432276
 30
0.0
 11
759.1755933109089
 21
522.7875548432276
 31
0.0
  0
LINE
  5
7E
330
17
100
AcDbEntity
  8
0
 62
7
100
AcDbLine
 10
159.17559331090888
 20
744.7875548432276
 30
0.0
 11
759.1755933109089
 21
744.7875548432276
 31
0.0
  0
DIMENSION
  5
7F
330
17
100
AcDbEntity
  8
DIM
 62
7
100
AcDbDimension
280
0
  2
*D10
  3
Dim-15
 10
127.04080624389462
 20
522.7875548432057
 30
0.0
 11
127.04080624409835
 21
587.7875548432276
 31
0.0
 70
160
 71
5
 42
222.0
 73
0
 74
0
 75
0
100
AcDbAlignedDimension
 13
159.17559331090888
 23
744.7875548432276
 33
0.0
 14
159.17559331090888
 24
522.7875548432276
 34
0.0
 50
-90.00000000000001
100
AcDbRotatedDimension
  0
DIMENSION
  5
80
330
17
100
AcDbEntity
  8
DIM
 62
7
100
AcDbDimension
280
0
  2
*D11
  3
Dim-15
 10
127.04080624389462
 20
492.7875548432203
 30
0.0
 11
127.04080624409835
 21
507.78755484322755
 31
0.0
 70
160
 71
5
 42
30.0
 73
0
 74
0
 75
0
100
AcDbAlignedDimension
 13
159.17559331090888
 23
522.7875548432276
 33
0.0
 14
189.17559331090888
 24
492.78755484322755
 34
0.0
 50
-90.00000000000001
100
AcDbRotatedDimension
  0
DIMENSION
  5
81
330
17
100
AcDbEntity
  8
DIM
 62
7
100
AcDbDimension
280
0
  2
*D12
  3
Dim-15
 10
127.04080624409835
 20
480.78755484322755
 30
0.0
 11
114.51011047331849
 21
460.8267772170002
 31
0.0
 70
32
 71
5
 42
12.0
 73
0
 74
0
 75
0
100
AcDbAlignedDimension
 13
189.17559331090888
 23
492.78755484322755
 33
0.0
 14
189.17559331090888
 24
480.78755484322755
 34
0.0
 50
-90.00000000000001
100
AcDbRotatedDimension
  0
LINE
  5
82
330
17
100
AcDbEntity
  8
0
 62
7
100
AcDbLine
 10
189.17559331090888
 20
492.78755484322755
 30
0.0
 11
159.17559331090888
 21
522.7875548432276
 31
0.0
  0
LINE
  5
83
330
17
100
AcDbEntity
  8
0
 62
7
100
AcDbLine
 10
729.1755933109089
 20
492.78755484322755
 30
0.0
 11
759.1755933109089
 21
522.7875548432276
 31
0.0
  0
INSERT
  5
84
330
17
100
AcDbEntity
  8
0
370
-3
100
AcDbBlockReference
  2
f3daunguoc
 10
174.17559331090888
 20
522.7875548432276
 30
0.0
 41
-1.0
 50
270.0
  0
INSERT
  5
86
330
17
100
AcDbEntity
  8
0
370
-3
100
AcDbBlockReference
  2
f3daunguoc
 10
204.17559331090888
 20
492.78755484322755
 30
0.0
 41
-1.0
 50
270.0
  0
INSERT
  5
88
330
17
100
AcDbEntity
  8
0
370
-3
100
AcDbBlockReference
  2
f3daunguoc
 10
744.1755933109089
 20
522.7875548432276
 30
0.0
 50
90.0
  0
INSERT
  5
8A
330
17
100
AcDbEntity
  8
0
370
-3
100
AcDbBlockReference
  2
f3daunguoc
 10
714.1755933109089
 20
492.78755484322755
 30
0.0
 50
90.0
  0
LWPOLYLINE
  5
8C
330
17
100
AcDbEntity
  8
0
 62
7
100
AcDbPolyline
 90
2
 70
0
 10
759.1755933109089
 20
744.7875548432276
 10
759.1755933109089
 20
522.7875548432276
  0
LWPOLYLINE
  5
8D
330
17
100
AcDbEntity
  8
0
 62
7
100
AcDbPolyline
 90
2
 70
0
 10
759.1755933109089
 20
522.7875548432276
 10
759.1755933109089
 20
744.7875548432276
  0
DIMENSION
  5
8E
330
17
100
AcDbEntity
  8
0
 48
3.0
100
AcDbDimension
280
0
  2
*D13
  3
Dim-25
 10
759.1755933109089
 20
788.6694397299871
 30
0.0
 11
459.1755933109089
 21
811.43376442304
 31
0.0
 70
32
 71
5
 42
600.0
 73
0
 74
0
 75
0
100
AcDbAlignedDimension
 13
159.17559331090888
 23
744.7875548432276
 33
0.0
 14
759.1755933109089
 24
744.7875548432276
 34
0.0
 50
0.0
100
AcDbRotatedDimension
  0
DIMENSION
  5
8F
330
17
100
AcDbEntity
  8
0
 48
3.0
100
AcDbDimension
280
0
  2
*D14
  3
Dim-25
 10
856.392026735819
 20
744.7875548432276
 30
0.0
 11
833.6277020428097
 21
612.7875548431912
 31
0.0
 70
32
 71
5
 42
264.0
 73
0
 74
0
 75
0
100
AcDbAlignedDimension
 13
729.1755933109089
 23
480.78755484322755
 33
0.0
 14
759.1755933109089
 24
744.7875548432276
 34
0.0
 50
90.0
100
AcDbRotatedDimension
  0
LWPOLYLINE
  5
90
330
17
100
AcDbEntity
  8
0
 62
2
100
AcDbPolyline
 90
4
 70
1
 10
334.1755933109089
 20
714.7875548432276
 10
584.1755933109089
 20
714.7875548432276
 10
584.1755933109089
 20
614.7875548432276
 10
334.1755933109089
 20
614.7875548432276
  0
LWPOLYLINE
  5
91
330
17
100
AcDbEntity
  8
0
 62
7
100
AcDbPolyline
 90
4
 70
1
 10
958.5403281047184
 20
724.7875548432276
 10
1248.5403281047184
 20
724.7875548432276
 10
1248.5403281047184
 20
604.7875548432276
 10
958.5403281047184
 20
604.7875548432276
  0
LWPOLYLINE
  5
92
330
17
100
AcDbEntity
  8
0
 62
2
100
AcDbPolyline
 90
4
 70
1
 10
588.9255933109089
 20
660.2875548432276
 10
597.9255933109089
 20
660.2875548432276
 10
597.9255933109089
 20
669.2875548432276
 10
588.9255933109089
 20
669.2875548432276
  0
LWPOLYLINE
  5
93
330
17
100
AcDbEntity
  8
0
 62
2
100
AcDbPolyline
 90
4
 70
1
 10
329.4255933109089
 20
660.2875548432276
 10
320.4255933109089
 20
660.2875548432276
 10
320.4255933109089
 20
669.2875548432276
 10
329.4255933109089
 20
669.2875548432276
  0
CIRCLE
  5
94
330
17
100
AcDbEntity
  8
0
 62
7
100
AcDbCircle
 10
1237.7903281047184
 20
664.7875548432276
 30
0.0
 40
4.0
  0
CIRCLE
  5
95
330
17
100
AcDbEntity
  8
0
 62
7
100
AcDbCircle
 10
969.2903281047184
 20
664.7875548432276
 30
0.0
 40
4.0
  0
DIMENSION
  5
96
330
17
100
AcDbEntity
  8
0
 48
3.0
100
AcDbDimension
280
0
  2
*D15
  3
Dim-25
 10
1248.5403281047184
 20
773.1332898308683
 30
0.0
 11
1103.5403281047184
 21
795.8976145239067
 31
0.0
 70
32
 71
5
 42
290.0
 73
0
 74
0
 75
0
100
AcDbAlignedDimension
 13
958.5403281047184
 23
724.7875548432276
 33
0.0
 14
1248.5403281047184
 24
724.7875548432276
 34
0.0
 50
0.0
100
AcDbRotatedDimension
  0
DIMENSION
  5
97
330
17
100
AcDbEntity
  8
0
 48
3.0
100
AcDbDimension
280
0
  2
*D16
  3
Dim-25
 10
1357.265427218721
 20
604.7875548432276
 30
0.0
 11
1334.5011025257118
 21
664.7875548431912
 31
0.0
 70
32
 71
5
 42
120.0
 73
0
 74
0
 75
0
100
AcDbAlignedDimension
 13
1248.5403281047184
 23
724.7875548432276
 33
0.0
 14
1248.5403281047184
 24
604.7875548432276
 34
0.0
 50
90.0
100
AcDbRotatedDimension
  0
MTEXT
  5
98
330
17
100
AcDbEntity
  8
0
 62
2
100
AcDbMText
 10
1121.334002123418
 20
556.2439175411419
 30
0.0
 40
25.0
 41
1214.000000000014
 46
100.0000000000031
 71
5
 72
5
  1
Bịt : 2 cái 
  0
LWPOLYLINE
  5
99
330
17
100
AcDbEntity
  8
0
 62
7
100
AcDbPolyline
 90
4
 70
1
 10
1464.395856224408
 20
1922.2078768235078
 10
2060.395856224408
 20
1922.2078768235078
 10
2060.395856224408
 20
1126.607876823502
 10
1464.395856224408
 20
1126.607876823502
  0
LWPOLYLINE
  5
9A
330
17
100
AcDbEntity
  8
0
 62
7
100
AcDbPolyline
 90
2
 70
0
 10
2095.395856224408
 20
1802.9078768234976
 10
2095.395856224408
 20
1245.9078768234976
  0
LWPOLYLINE
  5
9B
330
17
100
AcDbEntity
  8
0
 62
7
100
AcDbPolyline
 90
22
 70
0
 10
2095.395856224408
 20
1202.907876823505
 10
2095.395856224408
 20
1138.6078768234875
 10
2083.395856224408
 20
1126.607876823502
 10
2060.395856224408
 20
1126.607876823502
 10
2060.395856224408
 20
1103.607876823502
 10
2048.395856224408
 20
1091.607876823502
 10
1476.395856224408
 20
1091.607876823502
 10
1464.395856224408
 20
1103.607876823502
 10
1464.395856224408
 20
1126.607876823502
 10
1441.395856224408
 20
1126.607876823502
 10
1429.395856224408
 20
1138.6078768235093
 10
1429.395856224408
 20
1910.2078768235078
 10
1441.395856224408
 20
1922.2078768235078
 10
1464.395856224408
 20
1922.2078768235078
 10
1464.395856224408
 20
1945.2078768235078
 10
1476.395856224408
 20
1957.2078768235006
 10
2048.395856224408
 20
1957.2078768235078
 10
2060.395856224408
 20
1945.2078768235078
 10
2060.395856224408
 20
1922.2078768235078
 10
2083.395856224408
 20
1922.2078768235078
 10
2095.395856224408
 20
1910.2078768235078
 10
2095.395856224408
 20
1845.907876823505
  0
LWPOLYLINE
  5
9C
330
17
100
AcDbEntity
  8
0
 62
7
100
AcDbPolyline
 90
2
 70
0
 10
2083.395856224408
 20
1922.2078768235078
 10
2083.395856224408
 20
1845.907876823505
  0
LWPOLYLINE
  5
9D
330
17
100
AcDbEntity
  8
0
 62
7
100
AcDbPolyline
 90
2
 70
0
 10
2083.395856224408
 20
1802.9078768234976
 10
2083.395856224408
 20
1245.9078768234976
  0
LWPOLYLINE
  5
9E
330
17
100
AcDbEntity
  8
0
 62
7
100
AcDbPolyline
 90
2
 70
0
 10
2083.395856224408
 20
1202.907876823505
 10
2083.395856224408
 20
1126.607876823502
  0
LWPOLYLINE
  5
9F
330
17
100
AcDbEntity
  8
0
 62
7
100
AcDbPolyline
 90
2
 70
0
 10
2060.395856224408
 20
1103.607876823502
 10
1464.395856224408
 20
1103.607876823502
  0
LWPOLYLINE
  5
A0
330
17
100
AcDbEntity
  8
0
 62
7
100
AcDbPolyline
 90
2
 70
0
 10
1441.395856224408
 20
1126.607876823502
 10
1441.395856224408
 20
1922.2078768235078
  0
LWPOLYLINE
  5
A1
330
17
100
AcDbEntity
  8
0
 62
7
100
AcDbPolyline
 90
2
 70
0
 10
1464.395856224408
 20
1945.2078768235078
 10
2060.395856224408
 20
1945.2078768235078
  0
LWPOLYLINE
  5
A2
330
17
100
AcDbEntity
  8
0
 62
2
100
AcDbPolyline
 90
4
 70
0
 10
2095.395856224408
 20
1802.9078768234976
 10
2080.395856224408
 20
1802.9078768234976
 10
2080.395856224408
 20
1845.907876823505
 10
2095.395856224408
 20
1845.907876823505
  0
CIRCLE
  5
A3
330
17
100
AcDbEntity
  8
0
 62
2
100
AcDbCircle
 10
2039.5958562244195
 20
1830.407876823505
 30
0.0
 40
5.0
  0
CIRCLE
  5
A4
330
17
100
AcDbEntity
  8
0
 62
2
100
AcDbCircle
 10
2039.5958562244195
 20
1818.407876823505
 30
0.0
 40
5.0
  0
LWPOLYLINE
  5
A5
330
17
100
AcDbEntity
  8
0
 62
2
100
AcDbPolyline
 90
4
 70
0
 10
2095.395856224408
 20
1245.9078768234976
 10
2080.395856224408
 20
1245.9078768234976
 10
2080.395856224408
 20
1202.907876823505
 10
2095.395856224408
 20
1202.907876823505
  0
CIRCLE
  5
A6
330
17
100
AcDbEntity
  8
0
 62
2
100
AcDbCircle
 10
2039.5958562244195
 20
1218.407876823505
 30
0.0
 40
5.0
  0
CIRCLE
  5
A7
330
17
100
AcDbEntity
  8
0
 62
2
100
AcDbCircle
 10
2039.5958562244195
 20
1230.407876823505
 30
0.0
 40
5.0
  0
INSERT
  5
A8
330
17
100
AcDbEntity
  8
0
370
-3
100
AcDbBlockReference
  2
f3daunguoc
 10
1479.395856224408
 20
1922.2078768235078
 30
0.0
 41
-1.0
 50
180.0
  0
INSERT
  5
AA
330
17
100
AcDbEntity
  8
0
370
-3
100
AcDbBlockReference
  2
f3daunguoc
 10
1464.395856224408
 20
1907.2078768235078
 30
0.0
 41
-1.0
 50
180.0
  0
INSERT
  5
AC
330
17
100
AcDbEntity
  8
0
370
-3
100
AcDbBlockReference
  2
f3daunguoc
 10
1479.395856224408
 20
1945.2078768235078
 30
0.0
 41
-1.0
 50
180.0
  0
INSERT
  5
AE
330
17
100
AcDbEntity
  8
0
370
-3
100
AcDbBlockReference
  2
f3daunguoc
 10
1441.395856224408
 20
1907.2078768235078
 30
0.0
 41
-1.0
 50
180.0
  0
INSERT
  5
B0
330
17
100
AcDbEntity
  8
0
370
-3
100
AcDbBlockReference
  2
f3daunguoc
 10
1529.395856224408
 20
1922.2078768235078
 30
0.0
 41
-1.0
 50
180.0
  0
INSERT
  5
B2
330
17
100
AcDbEntity
  8
0
370
-3
100
AcDbBlockReference
  2
f3daunguoc
 10
1529.395856224408
 20
1945.2078768235078
 30
0.0
 41
-1.0
 50
180.0
  0
INSERT
  5
B4
330
17
100
AcDbEntity
  8
0
370
-3
100
AcDbBlockReference
  2
f3daunguoc
 10
2045.395856224408
 20
1922.2078768235078
 30
0.0
 50
180.0
  0
INSERT
  5
B6
330
17
100
AcDbEntity
  8
0
370
-3
100
AcDbBlockReference
  2
f3daunguoc
 10
2060.395856224408
 20
1907.2078768235078
 30
0.0
 50
180.0
  0
INSERT
  5
B8
330
17
100
AcDbEntity
  8
0
370
-3
100
AcDbBlockReference
  2
f3daunguoc
 10
2045.395856224408
 20
1945.2078768235078
 30
0.0
 50
180.0
  0
INSERT
  5
BA
330
17
100
AcDbEntity
  8
0
370
-3
100
AcDbBlockReference
  2
f3daunguoc
 10
2083.395856224408
 20
1907.2078768235078
 30
0.0
 50
180.0
  0
INSERT
  5
BC
330
17
100
AcDbEntity
  8
0
370
-3
100
AcDbBlockReference
  2
f3daunguoc
 10
1995.395856224408
 20
1922.2078768235078
 30
0.0
 50
180.0
  0
INSERT
  5
BE
330
17
100
AcDbEntity
  8
0
370
-3
100
AcDbBlockReference
  2
f3daunguoc
 10
1995.395856224408
 20
1945.2078768235078
 30
0.0
 50
180.0
  0
INSERT
  5
C0
330
17
100
AcDbEntity
  8
0
370
-3
100
AcDbBlockReference
  2
f3daunguoc
 10
1479.395856224408
 20
1126.6078768235093
 30
0.0
  0
INSERT
  5
C2
330
17
100
AcDbEntity
  8
0
370
-3
100
AcDbBlockReference
  2
f3daunguoc
 10
1464.395856224408
 20
1141.6078768235093
 30
0.0
  0
INSERT
  5
C4
330
17
100
AcDbEntity
  8
0
370
-3
100
AcDbBlockReference
  2
f3daunguoc
 10
1479.395856224408
 20
1103.6078768235093
 30
0.0
  0
INSERT
  5
C6
330
17
100
AcDbEntity
  8
0
370
-3
100
AcDbBlockReference
  2
f3daunguoc
 10
1441.395856224408
 20
1141.6078768235093
 30
0.0
  0
INSERT
  5
C8
330
17
100
AcDbEntity
  8
0
370
-3
100
AcDbBlockReference
  2
f3daunguoc
 10
1529.395856224408
 20
1126.6078768235093
 30
0.0
  0
INSERT
  5
CA
330
17
100
AcDbEntity
  8
0
370
-3
100
AcDbBlockReference
  2
f3daunguoc
 10
1529.395856224408
 20
1103.6078768235093
 30
0.0
  0
INSERT
  5
CC
330
17
100
AcDbEntity
  8
0
370
-3
100
AcDbBlockReference
  2
f3daunguoc
 10
2045.395856224408
 20
1126.6078768235093
 30
0.0
 41
-1.0
  0
INSERT
  5
CE
330
17
100
AcDbEntity
  8
0
370
-3
100
AcDbBlockReference
  2
f3daunguoc
 10
2060.395856224408
 20
1141.6078768235093
 30
0.0
 41
-1.0
  0
INSERT
  5
D0
330
17
100
AcDbEntity
  8
0
370
-3
100
AcDbBlockReference
  2
f3daunguoc
 10
2045.395856224408
 20
1103.6078768235093
 30
0.0
 41
-1.0
  0
INSERT
  5
D2
330
17
100
AcDbEntity
  8
0
370
-3
100
AcDbBlockReference
  2
f3daunguoc
 10
2083.395856224408
 20
1141.6078768235093
 30
0.0
 41
-1.0
  0
INSERT
  5
D4
330
17
100
AcDbEntity
  8
0
370
-3
100
AcDbBlockReference
  2
f3daunguoc
 10
1995.395856224408
 20
1126.6078768235093
 30
0.0
 41
-1.0
  0
INSERT
  5
D6
330
17
100
AcDbEntity
  8
0
370
-3
100
AcDbBlockReference
  2
f3daunguoc
 10
1995.395856224408
 20
1103.6078768235093
 30
0.0
 41
-1.0
  0
DIMENSION
  5
D8
330
17
100
AcDbEntity
  8
0
 48
3.0
100
AcDbDimension
280
0
  2
*D17
  3
Dim-25
 10
2095.395856224408
 20
1979.1972417510406
 30
0.0
 11
2137.9971522681008
 21
2001.7484013690482
 31
0.0
 70
32
 71
5
 42
12.0
 73
0
 74
0
 75
0
100
AcDbAlignedDimension
 13
2083.395856224408
 23
1922.2078768235078
 33
0.0
 14
2095.395856224408
 24
1910.2078768235078
 34
0.0
 50
0.0
100
AcDbRotatedDimension
  0
DIMENSION
  5
D9
330
17
100
AcDbEntity
  8
0
 48
3.0
100
AcDbDimension
280
0
  2
*D18
  3
Dim-25
 10
2083.395856224408
 20
2031.980939798901
 30
0.0
 11
2119.5148876023013
 21
2054.753791094947
 31
0.0
 70
32
 71
5
 42
23.0
 73
0
 74
0
 75
0
100
AcDbAlignedDimension
 13
2060.395856224408
 23
1945.2078768235078
 33
0.0
 14
2083.395856224408
 24
1922.2078768235078
 34
0.0
 50
0.0
100
AcDbRotatedDimension
  0
DIMENSION
  5
DA
330
17
100
AcDbEntity
  8
0
 48
3.0
100
AcDbDimension
280
0
  2
*D19
  3
Dim-25
 10
1464.395856224408
 20
2031.980939798901
 30
0.0
 11
1762.395856224408
 21
2054.7452644919467
 31
0.0
 70
32
 71
5
 42
596.0
 73
0
 74
0
 75
0
100
AcDbAlignedDimension
 13
2060.395856224408
 23
1945.2078768235078
 33
0.0
 14
1464.395856224408
 24
1945.2078768235078
 34
0.0
 50
0.0
100
AcDbRotatedDimension
  0
DIMENSION
  5
DB
330
17
100
AcDbEntity
  8
0
 48
3.0
100
AcDbDimension
280
0
  2
*D20
  3
Dim-25
 10
1316.2560180310975
 20
1091.607876823502
 30
0.0
 11
1293.4916933381173
 21
1524.4078768234613
 31
0.0
 70
32
 71
5
 42
865.5999999999985
 73
0
 74
0
 75
0
100
AcDbAlignedDimension
 13
1476.395856224408
 23
1957.2078768235006
 33
0.0
 14
1476.395856224408
 24
1091.607876823502
 34
0.0
 50
90.0
100
AcDbRotatedDimension
  0
DIMENSION
  5
DC
330
17
100
AcDbEntity
  8
0
 48
3.0
100
AcDbDimension
280
0
  2
*D21
  3
Dim-25
 10
1373.7821500966966
 20
1922.2078768235078
 30
0.0
 11
1351.0178254036
 21
1524.4078768234685
 31
0.0
 70
32
 71
5
 42
795.6000000000058
 73
0
 74
0
 75
0
100
AcDbAlignedDimension
 13
1441.395856224408
 23
1126.607876823502
 33
0.0
 14
1441.395856224408
 24
1922.2078768235078
 34
0.0
 50
90.0
100
AcDbRotatedDimension
  0
LWPOLYLINE
  5
DD
330
17
100
AcDbEntity
  8
0
 62
2
 48
3.0
100
AcDbPolyline
 90
4
 70
1
 10
1529.795856224402
 20
1572.907876823505
 10
1553.795856224402
 20
1572.907876823505
 10
1553.795856224402
 20
1475.907876823505
 10
1529.795856224402
 20
1475.907876823505
  0
MTEXT
  5
DE
330
17
100
AcDbEntity
  8
0
 62
2
100
AcDbMText
 10
1766.8368598743982
 20
1045.7950543090992
 30
0.0
 40
25.0
 41
1214.000000000014
 46
100.0000000000031
 71
5
 72
5
  1
Cánh : 1 cái
  0
INSERT
  5
DF
330
17
100
AcDbEntity
  8
0
 62
7
100
AcDbBlockReference
 66
1
  2
khungtenAsean2
 10
0.0
 20
2100.00000000032
 30
0.0
  0
ATTRIB
  5
E0
330
DF
100
AcDbEntity
  8
0
 62
1
100
AcDbText
 10
2883.7642129456217
 20
32.6521998954704
 30
0.0
 40
25.0
  1
......
  7
Tahoma (Input Text)
 72
1
 11
2914.99322570581
 21
32.6521998954704
 31
0.0
100
AcDbAttribute
  2
#11
 70
0
 71
1
 72
0
 11
2914.99322570581
 21
32.6521998954704
 31
0.0
  0
ATTRIB
  5
E1
330
DF
100
AcDbEntity
  8
0
 62
1
100
AcDbText
 10
2146.7169774874055
 20
78.72478830831824
 30
0.0
 40
25.0
  1
võ tủ trong nhà, 2 lớp cánh
  7
Tahoma (Input Text)
100
AcDbAttribute
  2
#09
 70
0
 71
1
 72
0
  0
ATTRIB
  5
E2
330
DF
100
AcDbEntity
  8
0
 62
1
100
AcDbText
 10
2146.7169774874055
 20
18.72478830831824
 30
0.0
 40
25.0
  1
có tai treo rời,
  7
Tahoma (Input Text)
100
AcDbAttribute
  2
#10
 70
0
 71
1
 72
0
  0
ATTRIB
  5
E3
330
DF
100
AcDbEntity
  8
0
 62
1
100
AcDbText
 10
1817.447765733319
 20
18.72478830831824
 30
0.0
 40
25.0
  1
1.2
  7
Tahoma (Input Text)
100
AcDbAttribute
  2
#08
 70
0
 71
1
 72
0
  0
ATTRIB
  5
E4
330
DF
100
AcDbEntity
  8
0
 62
1
100
AcDbText
 10
1834.6815103254048
 20
78.72478830831824
 30
0.0
 40
25.0
  1
1
  7
Tahoma (Input Text)
100
AcDbAttribute
  2
#07
 70
0
 71
1
 72
0
  0
ATTRIB
  5
E5
330
DF
100
AcDbEntity
  8
0
 62
1
100
AcDbText
 10
1065.3308891436027
 20
18.72478830831824
 30
0.0
 40
25.0
  1
......
  7
Tahoma (Input Text)
100
AcDbAttribute
  2
#06
 70
0
 71
1
 72
0
  0
ATTRIB
  5
E6
330
DF
100
AcDbEntity
  8
0
 62
1
100
AcDbText
 10
1106.6281771220965
 20
78.72478830831824
 30
0.0
 40
25.0
  1
Võ tủ
  7
Tahoma (Input Text)
100
AcDbAttribute
  2
#05
 70
0
 71
1
 72
0
  0
ATTRIB
  5
E7
330
DF
100
AcDbEntity
  8
0
 62
1
100
AcDbText
 10
486.10502700539655
 20
18.72478830831824
 30
0.0
 40
25.0
  1
21/03
  7
Tahoma (Input Text)
100
AcDbAttribute
  2
#04
 70
0
 71
1
 72
0
  0
ATTRIB
  5
E8
330
DF
100
AcDbEntity
  8
0
 62
1
100
AcDbText
 10
506.57074894660036
 20
80.69839951062022
 30
0.0
 40
25.0
  1
Hùng cali
  7
Tahoma (Input Text)
100
AcDbAttribute
  2
#03
 70
0
 71
1
 72
0
  0
ATTRIB
  5
E9
330
DF
100
AcDbEntity
  8
0
 62
1
100
AcDbText
 10
98.45672450301936
 20
18.72478830831824
 30
0.0
 40
25.0
  1
......
  7
Tahoma (Input Text)
100
AcDbAttribute
  2
#02
 70
0
 71
1
 72
0
  0
ATTRIB
  5
EA
330
DF
100
AcDbEntity
  8
0
 62
1
100
AcDbText
 10
137.0535078374087
 20
78.72478830831824
 30
0.0
 40
25.0
  1
phúc
  7
Tahoma (Input Text)
100
AcDbAttribute
  2
#01
 70
0
 71
1
 72
0
  0
SEQEND
  5
EB
330
17
100
AcDbEntity
  8
0
 62
7
  0
INSERT
  5
EC
330
17
100
AcDbEntity
  8
0
 62
7
100
AcDbBlockReference
  2
Tai treo
 10
1702.7342900623044
 20
371.7669646084614
 30
0.0
  0
DIMENSION
  5
EE
330
17
100
AcDbEntity
  8
0
 48
3.0
100
AcDbDimension
280
0
  2
*D22
  3
Dim-25
 10
1802.7342900623044
 20
466.93367770374607
 30
0.0
 11
1752.7342900623044
 21
489.698002396799
 31
0.0
 70
32
 71
5
 42
100.0
 73
0
 74
0
 75
0
100
AcDbAlignedDimension
 13
1702.7342900623044
 23
421.7669646084614
 33
0.0
 14
1802.7342900623044
 24
421.7669646084614
 34
0.0
 50
0.0
100
AcDbRotatedDimension
  0
DIMENSION
  5
EF
330
17
100
AcDbEntity
  8
0
 48
3.0
100
AcDbDimension
280
0
  2
*D23
  3
Dim-25
 10
1885.0246909444104
 20
371.7669646084614
 30
0.0
 11
1862.2603662514011
 21
335.90373132056993
 31
0.0
 70
32
 71
5
 42
50.0
 73
0
 74
0
 75
0
100
AcDbAlignedDimension
 13
1802.7342900623044
 23
421.7669646084614
 33
0.0
 14
1802.7342900623044
 24
371.7669646084614
 34
0.0
 50
90.0
100
AcDbRotatedDimension
  0
MTEXT
  5
F0
330
17
100
AcDbEntity
  8
0
 62
2
100
AcDbMText
 10
1752.9680550692137
 20
303.01813142529136
 30
0.0
 40
25.0
 41
1214.000000000014
 46
100.0000000000031
 71
5
 72
5
  1
Tai : 4 cái
  0
ENDSEC
  0
SECTION
  2
OBJECTS
  0
DICTIONARY
  5
A
330
0
100
AcDbDictionary
281
1
  3
ACAD_COLOR
350
B
  3
ACAD_GROUP
350
C
  3
ACAD_LAYOUT
350
D
  3
ACAD_MATERIAL
350
E
  3
ACAD_MLEADERSTYLE
350
F
  3
ACAD_MLINESTYLE
350
10
  3
ACAD_PLOTSETTINGS
350
11
  3
ACAD_PLOTSTYLENAME
350
12
  3
ACAD_SCALELIST
350
14
  3
ACAD_TABLESTYLE
350
15
  3
ACAD_VISUALSTYLE
350
16
  3
EZDXF_META
350
2D
  0
DICTIONARY
  5
B
330
A
100
AcDbDictionary
281
1
  0
DICTIONARY
  5
C
330
A
100
AcDbDictionary
281
1
  0
DICTIONARY
  5
D
330
A
100
AcDbDictionary
281
1
  3
Model
350
1A
  3
Layout1
350
1E
  0
DICTIONARY
  5
E
330
A
100
AcDbDictionary
281
1
  3
ByBlock
350
1F
  3
ByLayer
350
20
  3
Global
350
21
  0
DICTIONARY
  5
F
330
A
100
AcDbDictionary
281
1
  3
Standard
350
2C
  0
DICTIONARY
  5
10
330
A
100
AcDbDictionary
281
1
  3
Standard
350
22
  0
DICTIONARY
  5
11
330
A
100
AcDbDictionary
281
1
  0
ACDBDICTIONARYWDFLT
  5
12
330
A
100
AcDbDictionary
281
1
  3
Normal
350
13
100
AcDbDictionaryWithDefault
340
13
  0
ACDBPLACEHOLDER
  5
13
330
12
  0
DICTIONARY
  5
14
330
A
100
AcDbDictionary
281
1
  0
DICTIONARY
  5
15
330
A
100
AcDbDictionary
281
1
  0
DICTIONARY
  5
16
330
A
100
AcDbDictionary
281
1
  0
LAYOUT
  5
1A
330
D
100
AcDbPlotSettings
  1

  4
A3
  6

 40
7.5
 41
20.0
 42
7.5
 43
20.0
 44
420.0
 45
297.0
 46
0.0
 47
0.0
 48
0.0
 49
0.0
140
0.0
141
0.0
142
1.0
143
1.0
 70
1024
 72
1
 73
0
 74
5
  7

 75
16
 76
0
 77
2
 78
300
147
1.0
148
0.0
149
0.0
100
AcDbLayout
  1
Model
 70
1
 71
0
 10
0.0
 20
0.0
 11
420.0
 21
297.0
 12
0.0
 22
0.0
 32
0.0
 14
1e+20
 24
1e+20
 34
1e+20
 15
-1e+20
 25
-1e+20
 35
-1e+20
146
0.0
 13
0.0
 23
0.0
 33
0.0
 16
1.0
 26
0.0
 36
0.0
 17
0.0
 27
1.0
 37
0.0
 76
1
330
17
  0
LAYOUT
  5
1E
330
D
100
AcDbPlotSettings
  1

  4
A3
  6

 40
7.5
 41
20.0
 42
7.5
 43
20.0
 44
420.0
 45
297.0
 46
0.0
 47
0.0
 48
0.0
 49
0.0
140
0.0
141
0.0
142
1.0
143
1.0
 70
0
 72
1
 73
0
 74
5
  7

 75
16
 76
0
 77
2
 78
300
147
1.0
148
0.0
149
0.0
100
AcDbLayout
  1
Layout1
 70
1
 71
1
 10
0.0
 20
0.0
 11
420.0
 21
297.0
 12
0.0
 22
0.0
 32
0.0
 14
1e+20
 24
1e+20
 34
1e+20
 15
-1e+20
 25
-1e+20
 35
-1e+20
146
0.0
 13
0.0
 23
0.0
 33
0.0
 16
1.0
 26
0.0
 36
0.0
 17
0.0
 27
1.0
 37
0.0
 76
1
330
1B
  0
MATERIAL
  5
1F
102
{ACAD_REACTORS
330
E
102
}
330
E
100
AcDbMaterial
  1
ByBlock
  2

 70
0
 40
1.0
 71
1
 41
1.0
 91
-1023410177
 42
1.0
 72
1
  3

 73
1
 74
1
 75
1
 44
0.5
 73
0
 45
1.0
 46
1.0
 77
1
  4

 78
1
 79
1
170
1
 48
1.0
171
1
  6

172
1
173
1
174
1
140
1.0
141
1.0
175
1
  7

176
1
177
1
178
1
143
1.0
179
1
  8

270
1
271
1
272
1
145
1.0
146
1.0
273
1
  9

274
1
275
1
276
1
 42
1.0
 72
1
  3

 73
1
 74
1
 75
1
 94
63
  0
MATERIAL
  5
20
102
{ACAD_REACTORS
330
E
102
}
330
E
100
AcDbMaterial
  1
ByLayer
  2

 70
0
 40
1.0
 71
1
 41
1.0
 91
-1023410177
 42
1.0
 72
1
  3

 73
1
 74
1
 75
1
 44
0.5
 73
0
 45
1.0
 46
1.0
 77
1
  4

 78
1
 79
1
170
1
 48
1.0
171
1
  6

172
1
173
1
174
1
140
1.0
141
1.0
175
1
  7

176
1
177
1
178
1
143
1.0
179
1
  8

270
1
271
1
272
1
145
1.0
146
1.0
273
1
  9

274
1
275
1
276
1
 42
1.0
 72
1
  3

 73
1
 74
1
 75
1
 94
63
  0
MATERIAL
  5
21
102
{ACAD_REACTORS
330
E
102
}
330
E
100
AcDbMaterial
  1
Global
  2

 70
0
 40
1.0
 71
1
 41
1.0
 91
-1023410177
 42
1.0
 72
1
  3

 73
1
 74
1
 75
1
 44
0.5
 73
0
 45
1.0
 46
1.0
 77
1
  4

 78
1
 79
1
170
1
 48
1.0
171
1
  6

172
1
173
1
174
1
140
1.0
141
1.0
175
1
  7

176
1
177
1
178
1
143
1.0
179
1
  8

270
1
271
1
272
1
145
1.0
146
1.0
273
1
  9

274
1
275
1
276
1
 42
1.0
 72
1
  3

 73
1
 74
1
 75
1
 94
63
  0
MLINESTYLE
  5
22
102
{ACAD_REACTORS
330
10
102
}
330
10
100
AcDbMlineStyle
  2
Standard
 70
0
  3

 62
256
 51
90.0
 52
90.0
 71
2
 49
0.5
 62
256
  6
BYLAYER
 49
-0.5
 62
256
  6
BYLAYER
  0
MLEADERSTYLE
  5
2C
102
{ACAD_REACTORS
330
F
102
}
330
F
100
AcDbMLeaderStyle
179
2
170
2
171
1
172
0
 90
2
 40
0.0
 41
0.0
173
1
 91
-1056964608
 92
-2
290
1
 42
2.0
291
1
 43
8.0
  3
Standard
 44
4.0
300

342
29
174
1
175
1
176
0
178
1
 93
-1056964608
 45
4.0
292
0
297
0
 46
4.0
 94
-1056964608
 47
1.0
 49
1.0
140
1.0
294
1
141
0.0
177
0
142
1.0
295
0
296
0
143
3.75
271
0
272
9
273
9
  0
DICTIONARY
  5
2D
330
A
100
AcDbDictionary
280
1
281
1
  3
CREATED_BY_EZDXF
350
2E
  3
WRITTEN_BY_EZDXF
350
12E
  0
DICTIONARYVAR
  5
2E
330
2D
100
DictionaryVariables
280
0
  1
1.4.4 @ 2026-09-24T06:32:13.058365+00:00
  0
DICTIONARYVAR
  5
12E
330
2D
100
DictionaryVariables
280
0
  1
1.4.4 @ 2026-09-24T06:37:42.145571+00:00
  0
ENDSEC
  0
EOF
