  0
SECTION
  2
HEADER
  9
$ACADVER
  1
AC1032
  9
$ACADMAINTVER
 90
4
  9
$DWGCODEPAGE
  3
ANSI_1252
  9
$LASTSAVEDBY
  1
ezdxf
  9
$REQUIREDVERSIONS
160
0
  9
$INSBASE
 10
0.0
 20
0.0
 30
0.0
  9
$EXTMIN
 10
1e+20
 20
1e+20
 30
1e+20
  9
$EXTMAX
 10
-1e+20
 20
-1e+20
 30
-1e+20
  9
$LIMMIN
 10
0.0
 20
0.0
  9
$LIMMAX
 10
420.0
 20
297.0
  9
$ORTHOMODE
 70
0
  9
$REGENMODE
 70
1
  9
$FILLMODE
 70
1
  9
$QTEXTMODE
 70
0
  9
$MIRRTEXT
 70
1
  9
$LTSCALE
 40
1.0
  9
$ATTMODE
 70
1
  9
$TEXTSIZE
 40
2.5
  9
$TRACEWID
 40
1.0
  9
$TEXTSTYLE
  7
Standard
  9
$CLAYER
  8
0
  9
$CELTYPE
  6
ByLayer
  9
$CECOLOR
 62
256
  9
$CELTSCALE
 40
1.0
  9
$DISPSILH
 70
0
  9
$DIMSCALE
 40
1.0
  9
$DIMASZ
 40
2.5
  9
$DIMEXO
 40
0.625
  9
$DIMDLI
 40
3.75
  9
$DIMRND
 40
0.0
  9
$DIMDLE
 40
0.0
  9
$DIMEXE
 40
1.25
  9
$DIMTP
 40
0.0
  9
$DIMTM
 40
0.0
  9
$DIMTXT
 40
2.5
  9
$DIMCEN
 40
2.5
  9
$DIMTSZ
 40
0.0
  9
$DIMTOL
 70
0
  9
$DIMLIM
 70
0
  9
$DIMTIH
 70
0
  9
$DIMTOH
 70
0
  9
$DIMSE1
 70
0
  9
$DIMSE2
 70
0
  9
$DIMTAD
 70
1
  9
$DIMZIN
 70
8
  9
$DIMBLK
  1

  9
$DIMASO
 70
1
  9
$DIMSHO
 70
1
  9
$DIMPOST
  1

  9
$DIMAPOST
  1

  9
$DIMALT
 70
0
  9
$DIMALTD
 70
3
  9
$DIMALTF
 40
0.03937007874
  9
$DIMLFAC
 40
1.0
  9
$DIMTOFL
 70
1
  9
$DIMTVP
 40
0.0
  9
$DIMTIX
 70
0
  9
$DIMSOXD
 70
0
  9
$DIMSAH
 70
0
  9
$DIMBLK1
  1

  9
$DIMBLK2
  1

  9
$DIMSTYLE
  2
ISO-25
  9
$DIMCLRD
 70
0
  9
$DIMCLRE
 70
0
  9
$DIMCLRT
 70
0
  9
$DIMTFAC
 40
1.0
  9
$DIMGAP
 40
0.625
  9
$DIMJUST
 70
0
  9
$DIMSD1
 70
0
  9
$DIMSD2
 70
0
  9
$DIMTOLJ
 70
0
  9
$DIMTZIN
 70
8
  9
$DIMALTZ
 70
0
  9
$DIMALTTZ
 70
0
  9
$DIMUPT
 70
0
  9
$DIMDEC
 70
2
  9
$DIMTDEC
 70
2
  9
$DIMALTU
 70
2
  9
$DIMALTTD
 70
3
  9
$DIMTXSTY
  7
Standard
  9
$DIMAUNIT
 70
0
  9
$DIMADEC
 70
0
  9
$DIMALTRND
 40
0.0
  9
$DIMAZIN
 70
0
  9
$DIMDSEP
 70
44
  9
$DIMATFIT
 70
3
  9
$DIMFRAC
 70
0
  9
$DIMLDRBLK
  1

  9
$DIMLUNIT
 70
2
  9
$DIMLWD
 70
-2
  9
$DIMLWE
 70
-2
  9
$DIMTMOVE
 70
0
  9
$DIMFXL
 40
1.0
  9
$DIMFXLON
 70
0
  9
$DIMJOGANG
 40
0.785398163397
  9
$DIMTFILL
 70
0
  9
$DIMTFILLCLR
 70
0
  9
$DIMARCSYM
 70
0
  9
$DIMLTYPE
  6

  9
$DIMLTEX1
  6

  9
$DIMLTEX2
  6

  9
$DIMTXTDIRECTION
 70
0
  9
$LUNITS
 70
2
  9
$LUPREC
 70
4
  9
$SKETCHINC
 40
1.0
  9
$FILLETRAD
 40
10.0
  9
$AUNITS
 70
0
  9
$AUPREC
 70
2
  9
$MENU
  1
.
  9
$ELEVATION
 40
0.0
  9
$PELEVATION
 40
0.0
  9
$THICKNESS
 40
0.0
  9
$LIMCHECK
 70
0
  9
$CHAMFERA
 40
0.0
  9
$CHAMFERB
 40
0.0
  9
$CHAMFERC
 40
0.0
  9
$CHAMFERD
 40
0.0
  9
$SKPOLY
 70
0
  9
$TDCREATE
 40
2461308.5684375
  9
$TDUCREATE
 40
2458532.153996898
  9
$TDUPDATE
 40
2461308.5684375
  9
$TDUUPDATE
 40
2458532.1544311
  9
$TDINDWG
 40
0.0
  9
$TDUSRTIMER
 40
0.0
  9
$USRTIMER
 70
1
  9
$ANGBASE
 50
0.0
  9
$ANGDIR
 70
0
  9
$PDMODE
 70
0
  9
$PDSIZE
 40
0.0
  9
$PLINEWID
 40
0.0
  9
$SPLFRAME
 70
0
  9
$SPLINETYPE
 70
6
  9
$SPLINESEGS
 70
8
  9
$HANDSEED
  5
351
  9
$SURFTAB1
 70
6
  9
$SURFTAB2
 70
6
  9
$SURFTYPE
 70
6
  9
$SURFU
 70
6
  9
$SURFV
 70
6
  9
$UCSBASE
  2

  9
$UCSNAME
  2

  9
$UCSORG
 10
0.0
 20
0.0
 30
0.0
  9
$UCSXDIR
 10
1.0
 20
0.0
 30
0.0
  9
$UCSYDIR
 10
0.0
 20
1.0
 30
0.0
  9
$UCSORTHOREF
  2

  9
$UCSORTHOVIEW
 70
0
  9
$UCSORGTOP
 10
0.0
 20
0.0
 30
0.0
  9
$UCSORGBOTTOM
 10
0.0
 20
0.0
 30
0.0
  9
$UCSORGLEFT
 10
0.0
 20
0.0
 30
0.0
  9
$UCSORGRIGHT
 10
0.0
 20
0.0
 30
0.0
  9
$UCSORGFRONT
 10
0.0
 20
0.0
 30
0.0
  9
$UCSORGBACK
 10
0.0
 20
0.0
 30
0.0
  9
$PUCSBASE
  2

  9
$PUCSNAME
  2

  9
$PUCSORG
 10
0.0
 20
0.0
 30
0.0
  9
$PUCSXDIR
 10
1.0
 20
0.0
 30
0.0
  9
$PUCSYDIR
 10
0.0
 20
1.0
 30
0.0
  9
$PUCSORTHOREF
  2

  9
$PUCSORTHOVIEW
 70
0
  9
$PUCSORGTOP
 10
0.0
 20
0.0
 30
0.0
  9
$PUCSORGBOTTOM
 10
0.0
 20
0.0
 30
0.0
  9
$PUCSORGLEFT
 10
0.0
 20
0.0
 30
0.0
  9
$PUCSORGRIGHT
 10
0.0
 20
0.0
 30
0.0
  9
$PUCSORGFRONT
 10
0.0
 20
0.0
 30
0.0
  9
$PUCSORGBACK
 10
0.0
 20
0.0
 30
0.0
  9
$USERI1
 70
0
  9
$USERI2
 70
0
  9
$USERI3
 70
0
  9
$USERI4
 70
0
  9
$USERI5
 70
0
  9
$USERR1
 40
0.0
  9
$USERR2
 40
0.0
  9
$USERR3
 40
0.0
  9
$USERR4
 40
0.0
  9
$USERR5
 40
0.0
  9
$WORLDVIEW
 70
1
  9
$SHADEDGE
 70
3
  9
$SHADEDIF
 70
70
  9
$TILEMODE
 70
1
  9
$MAXACTVP
 70
64
  9
$PINSBASE
 10
0.0
 20
0.0
 30
0.0
  9
$PLIMCHECK
 70
0
  9
$PEXTMIN
 10
1e+20
 20
1e+20
 30
1e+20
  9
$PEXTMAX
 10
-1e+20
 20
-1e+20
 30
-1e+20
  9
$PLIMMIN
 10
0.0
 20
0.0
  9
$PLIMMAX
 10
420.0
 20
297.0
  9
$UNITMODE
 70
0
  9
$VISRETAIN
 70
1
  9
$PLINEGEN
 70
0
  9
$PSLTSCALE
 70
1
  9
$TREEDEPTH
 70
3020
  9
$CMLSTYLE
  2
Standard
  9
$CMLJUST
 70
0
  9
$CMLSCALE
 40
20.0
  9
$PROXYGRAPHICS
 70
1
  9
$MEASUREMENT
 70
1
  9
$CELWEIGHT
370
-1
  9
$ENDCAPS
280
0
  9
$JOINSTYLE
280
0
  9
$LWDISPLAY
290
0
  9
$INSUNITS
 70
4
  9
$HYPERLINKBASE
  1

  9
$STYLESHEET
  1

  9
$XEDIT
290
1
  9
$CEPSNTYPE
380
0
  9
$PSTYLEMODE
290
1
  9
$FINGERPRINTGUID
  2
{E5C400F4-2DED-4478-A0CB-CA8AC42B32A3}
  9
$VERSIONGUID
  2
{444FDB87-F4F6-4CA5-888A-21F9ADCBAC4A}
  9
$EXTNAMES
290
1
  9
$PSVPSCALE
 40
0.0
  9
$OLESTARTUP
290
0
  9
$SORTENTS
280
127
  9
$INDEXCTL
280
0
  9
$HIDETEXT
280
1
  9
$XCLIPFRAME
280
1
  9
$HALOGAP
280
0
  9
$OBSCOLOR
 70
257
  9
$OBSLTYPE
280
0
  9
$INTERSECTIONDISPLAY
280
0
  9
$INTERSECTIONCOLOR
 70
257
  9
$DIMASSOC
280
2
  9
$PROJECTNAME
  1

  9
$CAMERADISPLAY
290
0
  9
$LENSLENGTH
 40
50.0
  9
$CAMERAHEIGHT
 40
0.0
  9
$STEPSPERSEC
 40
24.0
  9
$STEPSIZE
 40
100.0
  9
$3DDWFPREC
 40
2.0
  9
$PSOLWIDTH
 40
0.005
  9
$PSOLHEIGHT
 40
0.08
  9
$LOFTANG1
 40
1.570796326795
  9
$LOFTANG2
 40
1.570796326795
  9
$LOFTMAG1
 40
0.0
  9
$LOFTMAG2
 40
0.0
  9
$LOFTPARAM
 70
7
  9
$LOFTNORMALS
280
1
  9
$LATITUDE
 40
37.795
  9
$LONGITUDE
 40
-122.394
  9
$NORTHDIRECTION
 40
0.0
  9
$TIMEZONE
 70
-8000
  9
$LIGHTGLYPHDISPLAY
280
1
  9
$TILEMODELIGHTSYNCH
280
1
  9
$CMATERIAL
347
20
  9
$SOLIDHIST
280
0
  9
$SHOWHIST
280
1
  9
$DWFFRAME
280
2
  9
$DGNFRAME
280
2
  9
$REALWORLDSCALE
290
1
  9
$INTERFERECOLOR
 62
256
  9
$CSHADOW
280
0
  9
$SHADOWPLANELOCATION
 40
0.0
  0
ENDSEC
  0
SECTION
  2
CLASSES
  0
CLASS
  1
ACDBDICTIONARYWDFLT
  2
AcDbDictionaryWithDefault
  3
ObjectDBX Classes
 90
0
 91
0
280
0
281
0
  0
CLASS
  1
SUN
  2
AcDbSun
  3
SCENEOE
 90
1153
 91
0
280
0
281
0
  0
CLASS
  1
VISUALSTYLE
  2
AcDbVisualStyle
  3
ObjectDBX Classes
 90
4095
 91
0
280
0
281
0
  0
CLASS
  1
MATERIAL
  2
AcDbMaterial
  3
ObjectDBX Classes
 90
1153
 91
0
280
0
281
0
  0
CLASS
  1
SCALE
  2
AcDbScale
  3
ObjectDBX Classes
 90
1153
 91
0
280
0
281
0
  0
CLASS
  1
TABLESTYLE
  2
AcDbTableStyle
  3
ObjectDBX Classes
 90
4095
 91
0
280
0
281
0
  0
CLASS
  1
MLEADERSTYLE
  2
AcDbMLeaderStyle
  3
ACDB_MLEADERSTYLE_CLASS
 90
4095
 91
0
280
0
281
0
  0
CLASS
  1
DICTIONARYVAR
  2
AcDbDictionaryVar
  3
ObjectDBX Classes
 90
0
 91
0
280
0
281
0
  0
CLASS
  1
CELLSTYLEMAP
  2
AcDbCellStyleMap
  3
ObjectDBX Classes
 90
1152
 91
0
280
0
281
0
  0
CLASS
  1
MENTALRAYRENDERSETTINGS
  2
AcDbMentalRayRenderSettings
  3
SCENEOE
 90
1024
 91
0
280
0
281
0
  0
CLASS
  1
ACDBDETAILVIEWSTYLE
  2
AcDbDetailViewStyle
  3
ObjectDBX Classes
 90
1025
 91
0
280
0
281
0
  0
CLASS
  1
ACDBSECTIONVIEWSTYLE
  2
AcDbSectionViewStyle
  3
ObjectDBX Classes
 90
1025
 91
0
280
0
281
0
  0
CLASS
  1
RASTERVARIABLES
  2
AcDbRasterVariables
  3
ISM
 90
0
 91
0
280
0
281
0
  0
CLASS
  1
ACDBPLACEHOLDER
  2
AcDbPlaceHolder
  3
ObjectDBX Classes
 90
0
 91
0
280
0
281
0
  0
CLASS
  1
LAYOUT
  2
AcDbLayout
  3
ObjectDBX Classes
 90
0
 91
0
280
0
281
0
  0
ENDSEC
  0
SECTION
  2
TABLES
  0
TABLE
  2
VPORT
  5
8
330
0
100
AcDbSymbolTable
 70
1
  0
VPORT
  5
23
330
8
100
AcDbSymbolTableRecord
100
AcDbViewportTableRecord
  2
*Active
 70
0
 10
0.0
 20
0.0
 11
1.0
 21
1.0
 12
0.0
 22
0.0
 13
0.0
 23
0.0
 14
0.5
 24
0.5
 15
0.5
 25
0.5
 16
0.0
 26
0.0
 36
1.0
 17
0.0
 27
0.0
 37
0.0
 40
1000.0
 41
1.34
 42
50.0
 43
0.0
 44
0.0
 50
0.0
 51
0.0
 71
0
 72
1000
 73
1
 74
3
 75
0
 76
0
 77
0
 78
0
281
0
 65
0
146
0.0
  0
ENDTAB
  0
TABLE
  2
LTYPE
  5
2
330
0
100
AcDbSymbolTable
 70
5
  0
LTYPE
  5
24
330
2
100
AcDbSymbolTableRecord
100
AcDbLinetypeTableRecord
  2
ByBlock
 70
0
  3

 72
65
 73
0
 40
0.0
  0
LTYPE
  5
25
330
2
100
AcDbSymbolTableRecord
100
AcDbLinetypeTableRecord
  2
ByLayer
 70
0
  3

 72
65
 73
0
 40
0.0
  0
LTYPE
  5
26
330
2
100
AcDbSymbolTableRecord
100
AcDbLinetypeTableRecord
  2
Continuous
 70
0
  3

 72
65
 73
0
 40
0.0
  0
LTYPE
  5
1E9
330
2
100
AcDbSymbolTableRecord
100
AcDbLinetypeTableRecord
  2
HIDDEN
 70
0
  3
Hidden __ __ __ __ __ __ __ __ __ __ __ __ __ _
 72
65
 73
2
 40
9.524999999999997
 49
6.349999999999997
 74
0
 49
-3.174999999999998
 74
0
  0
LTYPE
  5
1EA
330
2
100
AcDbSymbolTableRecord
100
AcDbLinetypeTableRecord
  2
HIDDENX2
 70
0
  3
Hidden (2x) ____ ____ ____ ____ ____ ____ ____
 72
65
 73
2
 40
19.05
 49
12.7
 74
0
 49
-6.349999999999999
 74
0
  0
ENDTAB
  0
TABLE
  2
LAYER
  5
1
330
0
100
AcDbSymbolTable
 70
6
  0
LAYER
  5
27
330
1
100
AcDbSymbolTableRecord
100
AcDbLayerTableRecord
  2
0
 70
0
 62
7
  6
Continuous
370
-3
390
13
347
21
  0
LAYER
  5
28
330
1
100
AcDbSymbolTableRecord
100
AcDbLayerTableRecord
  2
Defpoints
 70
0
 62
7
  6
Continuous
290
0
370
-3
390
13
347
21
  0
LAYER
  5
1E5
330
1
100
AcDbSymbolTableRecord
100
AcDbLayerTableRecord
  2
HEATER
 70
0
 62
1
  6
Continuous
370
-3
390
13
347
21
  0
LAYER
  5
1E6
330
1
100
AcDbSymbolTableRecord
100
AcDbLayerTableRecord
  2
DIM
 70
0
 62
253
  6
Continuous
370
-3
390
13
347
21
  0
LAYER
  5
1E7
330
1
100
AcDbSymbolTableRecord
100
AcDbLayerTableRecord
  2
FIRE PROTECTION
 70
0
 62
1
  6
Continuous
370
-3
390
13
347
21
  0
LAYER
  5
1E8
330
1
100
AcDbSymbolTableRecord
100
AcDbLayerTableRecord
  2
Ghi chu
 70
0
 62
7
  6
Continuous
370
-3
390
13
347
21
  0
ENDTAB
  0
TABLE
  2
STYLE
  5
5
330
0
100
AcDbSymbolTable
 70
2
  0
STYLE
  5
29
330
5
100
AcDbSymbolTableRecord
100
AcDbTextStyleTableRecord
  2
Standard
 70
0
 40
0.0
 41
1.0
 50
0.0
 71
0
 42
2.5
  3
txt
  4

  0
STYLE
  5
1EB
330
5
100
AcDbSymbolTableRecord
100
AcDbTextStyleTableRecord
  2
Arial
 70
0
 40
0.0
 41
1.0
 50
0.0
 71
0
 42
0.2
  3
arial.ttf
  4

  0
ENDTAB
  0
TABLE
  2
VIEW
  5
7
330
0
100
AcDbSymbolTable
 70
0
  0
ENDTAB
  0
TABLE
  2
UCS
  5
6
330
0
100
AcDbSymbolTable
 70
0
  0
ENDTAB
  0
TABLE
  2
APPID
  5
3
330
0
100
AcDbSymbolTable
 70
3
  0
APPID
  5
2A
330
3
100
AcDbSymbolTableRecord
100
AcDbRegAppTableRecord
  2
ACAD
 70
0
  0
APPID
  5
1F0
330
3
100
AcDbSymbolTableRecord
100
AcDbRegAppTableRecord
  2
HATCHBACKGROUNDCOLOR
 70
0
  0
APPID
  5
1F1
330
3
100
AcDbSymbolTableRecord
100
AcDbRegAppTableRecord
  2
EZDXF
 70
0
  0
ENDTAB
  0
TABLE
  2
DIMSTYLE
  5
4
330
0
100
AcDbSymbolTable
 70
2
100
AcDbDimStyleTable
  0
DIMSTYLE
105
2B
330
4
100
AcDbSymbolTableRecord
100
AcDbDimStyleTableRecord
  2
Standard
 70
0
 40
1.0
 41
2.5
 42
0.625
 43
3.75
 44
1.25
 45
0.0
 46
0.0
 47
0.0
 48
0.0
 49
2.5
140
2.5
141
2.5
142
0.0
143
0.03937007874
144
1.0
145
0.0
146
1.0
147
0.625
148
0.0
 69
0
 70
0
 71
0
 72
0
 73
0
 74
0
 75
0
 76
0
 77
1
 78
8
 79
3
170
0
171
3
172
1
173
0
174
0
175
0
176
0
177
0
178
0
179
2
271
2
272
2
273
2
274
3
275
0
276
0
277
2
278
44
279
0
280
0
281
0
282
0
283
0
284
8
285
0
286
0
288
0
289
3
290
0
371
-2
372
-2
  0
DIMSTYLE
105
1E4
330
4
100
AcDbSymbolTableRecord
100
AcDbDimStyleTableRecord
  2
CNC
 70
0
 40
1.0
 41
5.0
 42
15.0
 43
3.75
 44
5.0
 45
0.0
 46
0.0
 47
0.0
 48
0.0
 49
2.5
140
50.0
141
10.0
142
0.0
143
0.03937007874016
144
1.0
145
0.0
146
1.0
147
10.0
148
0.0
 69
0
 70
0
 71
0
 72
0
 73
0
 74
0
 75
0
 76
0
 77
1
 78
8
 79
3
170
0
171
3
172
1
173
0
174
0
175
0
176
5
177
5
178
3
179
2
271
0
272
0
273
2
274
3
275
0
276
0
277
2
278
44
279
0
280
0
281
0
282
0
283
0
284
8
285
0
286
0
288
0
289
3
290
0
340
29
341
1EC
342
32
345
25
346
25
347
25
371
9
372
9
  0
ENDTAB
  0
TABLE
  2
BLOCK_RECORD
  5
9
330
0
100
AcDbSymbolTable
 70
34
  0
BLOCK_RECORD
  5
17
330
9
100
AcDbSymbolTableRecord
100
AcDbBlockTableRecord
  2
*Model_Space
340
1A
 70
0
280
1
281
0
  0
BLOCK_RECORD
  5
1B
330
9
100
AcDbSymbolTableRecord
100
AcDbBlockTableRecord
  2
*Paper_Space
340
1E
 70
0
280
1
281
0
  0
BLOCK_RECORD
  5
32
330
9
100
AcDbSymbolTableRecord
100
AcDbBlockTableRecord
  2
_Open30
340
0
 70
0
280
1
281
0
  0
BLOCK_RECORD
  5
120
330
9
100
AcDbSymbolTableRecord
100
AcDbBlockTableRecord
  2
MS308-2-1
340
0
 70
0
280
1
281
0
  0
BLOCK_RECORD
  5
131
330
9
100
AcDbSymbolTableRecord
100
AcDbBlockTableRecord
  2
HL011-1-3
340
0
 70
0
280
1
281
0
  0
BLOCK_RECORD
  5
160
330
9
100
AcDbSymbolTableRecord
100
AcDbBlockTableRecord
  2
ovan6x9
340
0
 70
0
280
1
281
0
  0
BLOCK_RECORD
  5
167
330
9
100
AcDbSymbolTableRecord
100
AcDbBlockTableRecord
  2
HL036-1-1
340
0
 70
0
280
1
281
0
  0
BLOCK_RECORD
  5
171
330
9
100
AcDbSymbolTableRecord
100
AcDbBlockTableRecord
  2
MS722
340
0
 70
0
280
1
281
0
  0
BLOCK_RECORD
  5
178
330
9
100
AcDbSymbolTableRecord
100
AcDbBlockTableRecord
  2
KHUNG CHUẨN
340
0
 70
0
280
1
281
0
  0
BLOCK_RECORD
  5
1A0
330
9
100
AcDbSymbolTableRecord
100
AcDbBlockTableRecord
  2
HL011-1-4
340
0
 70
0
280
1
281
0
  0
BLOCK_RECORD
  5
1AF
330
9
100
AcDbSymbolTableRecord
100
AcDbBlockTableRecord
  2
HL036-1-2
340
0
 70
0
280
1
281
0
  0
BLOCK_RECORD
  5
1C4
330
9
100
AcDbSymbolTableRecord
100
AcDbBlockTableRecord
  2
SDGFGHGHG
340
0
 70
0
280
1
281
0
  0
BLOCK_RECORD
  5
1D9
330
9
100
AcDbSymbolTableRecord
100
AcDbBlockTableRecord
  2
SĐFHGGH
340
0
 70
0
280
1
281
0
  0
BLOCK_RECORD
  5
1EC
330
9
100
AcDbSymbolTableRecord
100
AcDbBlockTableRecord
  2
_ArchTick
340
0
 70
0
280
1
281
0
  0
BLOCK_RECORD
  5
20F
330
9
100
AcDbSymbolTableRecord
100
AcDbBlockTableRecord
  2
*D1
340
0
 70
0
280
1
281
0
  0
BLOCK_RECORD
  5
21F
330
9
100
AcDbSymbolTableRecord
100
AcDbBlockTableRecord
  2
*D2
340
0
 70
0
280
1
281
0
  0
BLOCK_RECORD
  5
22F
330
9
100
AcDbSymbolTableRecord
100
AcDbBlockTableRecord
  2
*D3
340
0
 70
0
280
1
281
0
  0
BLOCK_RECORD
  5
23F
330
9
100
AcDbSymbolTableRecord
100
AcDbBlockTableRecord
  2
*D4
340
0
 70
0
280
1
281
0
  0
BLOCK_RECORD
  5
24F
330
9
100
AcDbSymbolTableRecord
100
AcDbBlockTableRecord
  2
*D5
340
0
 70
0
280
1
281
0
  0
BLOCK_RECORD
  5
25F
330
9
100
AcDbSymbolTableRecord
100
AcDbBlockTableRecord
  2
*D6
340
0
 70
0
280
1
281
0
  0
BLOCK_RECORD
  5
26F
330
9
100
AcDbSymbolTableRecord
100
AcDbBlockTableRecord
  2
*D7
340
0
 70
0
280
1
281
0
  0
BLOCK_RECORD
  5
27F
330
9
100
AcDbSymbolTableRecord
100
AcDbBlockTableRecord
  2
*D8
340
0
 70
0
280
1
281
0
  0
BLOCK_RECORD
  5
28F
330
9
100
AcDbSymbolTableRecord
100
AcDbBlockTableRecord
  2
*D9
340
0
 70
0
280
1
281
0
  0
BLOCK_RECORD
  5
29F
330
9
100
AcDbSymbolTableRecord
100
AcDbBlockTableRecord
  2
*D10
340
0
 70
0
280
1
281
0
  0
BLOCK_RECORD
  5
2AF
330
9
100
AcDbSymbolTableRecord
100
AcDbBlockTableRecord
  2
*D11
340
0
 70
0
280
1
281
0
  0
BLOCK_RECORD
  5
2BF
330
9
100
AcDbSymbolTableRecord
100
AcDbBlockTableRecord
  2
*D12
340
0
 70
0
280
1
281
0
  0
BLOCK_RECORD
  5
2D0
330
9
100
AcDbSymbolTableRecord
100
AcDbBlockTableRecord
  2
*D13
340
0
 70
0
280
1
281
0
  0
BLOCK_RECORD
  5
2E0
330
9
100
AcDbSymbolTableRecord
100
AcDbBlockTableRecord
  2
*D14
340
0
 70
0
280
1
281
0
  0
BLOCK_RECORD
  5
2F0
330
9
100
AcDbSymbolTableRecord
100
AcDbBlockTableRecord
  2
*D15
340
0
 70
0
280
1
281
0
  0
BLOCK_RECORD
  5
300
330
9
100
AcDbSymbolTableRecord
100
AcDbBlockTableRecord
  2
*D16
340
0
 70
0
280
1
281
0
  0
BLOCK_RECORD
  5
310
330
9
100
AcDbSymbolTableRecord
100
AcDbBlockTableRecord
  2
*D17
340
0
 70
0
280
1
281
0
  0
BLOCK_RECORD
  5
320
330
9
100
AcDbSymbolTableRecord
100
AcDbBlockTableRecord
  2
*D18
340
0
 70
0
280
1
281
0
  0
BLOCK_RECORD
  5
331
330
9
100
AcDbSymbolTableRecord
100
AcDbBlockTableRecord
  2
*D19
340
0
 70
0
280
1
281
0
  0
BLOCK_RECORD
  5
341
330
9
100
AcDbSymbolTableRecord
100
AcDbBlockTableRecord
  2
*D20
340
0
 70
0
280
1
281
0
  0
ENDTAB
  0
ENDSEC
  0
SECTION
  2
BLOCKS
  0
BLOCK
  5
18
330
17
100
AcDbEntity
  8
0
100
AcDbBlockBegin
  2
*Model_Space
 70
0
 10
0.0
 20
0.0
 30
0.0
  3
*Model_Space
  1

  0
ENDBLK
  5
19
330
17
100
AcDbEntity
  8
0
100
AcDbBlockEnd
  0
BLOCK
  5
1C
330
1B
100
AcDbEntity
  8
0
100
AcDbBlockBegin
  2
*Paper_Space
 70
0
 10
0.0
 20
0.0
 30
0.0
  3
*Paper_Space
  1

  0
ENDBLK
  5
1D
330
1B
100
AcDbEntity
  8
0
100
AcDbBlockEnd
  0
BLOCK
  5
33
330
32
100
AcDbEntity
  8
0
100
AcDbBlockBegin
  2
_Open30
 70
0
 10
0.0
 20
0.0
 30
0.0
  3
_Open30
  1

  0
LINE
  5
35
330
32
100
AcDbEntity
  8
0
  6
ByBlock
 62
0
370
-2
100
AcDbLine
 10
-1.0
 20
0.26794919
 30
0.0
 11
0.0
 21
0.0
 31
0.0
  0
LINE
  5
36
330
32
100
AcDbEntity
  8
0
  6
ByBlock
 62
0
370
-2
100
AcDbLine
 10
0.0
 20
0.0
 30
0.0
 11
-1.0
 21
-0.26794919
 31
0.0
  0
LINE
  5
37
330
32
100
AcDbEntity
  8
0
  6
ByBlock
 62
0
370
-2
100
AcDbLine
 10
0.0
 20
0.0
 30
0.0
 11
-1.0
 21
0.0
 31
0.0
  0
ENDBLK
  5
34
330
32
100
AcDbEntity
  8
0
100
AcDbBlockEnd
  0
BLOCK
  5
121
330
120
100
AcDbEntity
  8
0
100
AcDbBlockBegin
  2
MS308-2-1
 70
0
 10
0.0
 20
0.0
 30
0.0
  3
MS308-2-1
  1

  0
ELLIPSE
  5
123
330
120
100
AcDbEntity
  8
0
 62
1
100
AcDbEllipse
 10
0.0
 20
0.0
 30
0.0
 11
0.0
 21
21.0
 31
0.0
 40
0.8571428571428544
 41
3.972003137538834
 42
8.594367476820336
  0
ARC
  5
124
330
120
100
AcDbEntity
  8
0
 62
1
100
AcDbCircle
 10
0.0
 20
-95.0
 30
0.0
 40
4.0
100
AcDbArc
 50
180.0
 51
0.0
  0
ARC
  5
125
330
120
100
AcDbEntity
  8
0
 62
1
100
AcDbCircle
 10
0.0
 20
6.712249977186728
 30
0.0
 40
13.28775002279326
100
AcDbArc
 50
0.0
 51
180.0
  0
LINE
  5
126
330
120
100
AcDbEntity
  8
0
 62
1
100
AcDbLine
 10
12.28775002280599
 20
6.712249977186728
 30
0.0
 11
12.28775002280599
 21
-6.869241408494416
 31
0.0
  0
LINE
  5
127
330
120
100
AcDbEntity
  8
0
 62
1
100
AcDbLine
 10
-12.28775002280599
 20
6.712249977186728
 30
0.0
 11
-12.28775002280599
 21
-6.869241408494416
 31
0.0
  0
ARC
  5
128
330
120
100
AcDbEntity
  8
0
 62
1
100
AcDbCircle
 10
0.0
 20
5.937164051661966
 30
0.0
 40
17.74803711493563
100
AcDbArc
 50
226.1840421250448
 51
313.8159578749552
  0
ARC
  5
129
330
120
100
AcDbEntity
  8
0
 62
1
100
AcDbCircle
 10
0.0
 20
6.712249977186728
 30
0.0
 40
12.28775002279326
100
AcDbArc
 50
0.0
 51
180.0
  0
LINE
  5
12A
330
120
100
AcDbEntity
  8
0
 62
1
100
AcDbLine
 10
13.28775002279144
 20
-14.16602867902838
 30
0.0
 11
4.0
 21
-95.0
 31
0.0
  0
LINE
  5
12B
330
120
100
AcDbEntity
  8
0
 62
1
100
AcDbLine
 10
-4.0
 20
-95.0
 30
0.0
 11
-13.28775002280599
 21
-14.16602867902838
 31
0.0
  0
LINE
  5
12C
330
120
100
AcDbEntity
  8
0
 62
1
100
AcDbLine
 10
-13.28775002280599
 20
-14.16602867902838
 30
0.0
 11
-13.28775002280599
 21
6.712249977186728
 31
0.0
  0
LINE
  5
12D
330
120
100
AcDbEntity
  8
0
 62
1
100
AcDbLine
 10
13.28775002279144
 20
6.712249977186728
 30
0.0
 11
13.28775002279144
 21
-14.16602867902838
 31
0.0
  0
LWPOLYLINE
  5
12E
330
120
100
AcDbEntity
  8
0
 62
1
100
AcDbPolyline
 90
4
 70
0
 10
-15.82815883938747
 20
-10.0
 10
-53.0
 20
-10.0
 10
-53.0
 20
10.0
 10
-15.82815883938747
 20
10.0
  0
LINE
  5
12F
330
120
100
AcDbEntity
  8
0
 62
1
100
AcDbLine
 10
-53.0
 20
4.646649645350406
 30
0.0
 11
-46.02962448445032
 21
10.0
 31
0.0
  0
LINE
  5
130
330
120
100
AcDbEntity
  8
0
 62
1
100
AcDbLine
 10
-53.0
 20
-4.646649645350406
 30
0.0
 11
-46.02962448445032
 21
-10.0
 31
0.0
  0
ENDBLK
  5
122
330
120
100
AcDbEntity
  8
0
100
AcDbBlockEnd
  0
BLOCK
  5
132
330
131
100
AcDbEntity
  8
0
100
AcDbBlockBegin
  2
HL011-1-3
 70
0
 10
0.0
 20
0.0
 30
0.0
  3
HL011-1-3
  1

  0
LWPOLYLINE
  5
134
330
131
100
AcDbEntity
  8
0
 62
1
100
AcDbPolyline
 90
2
 70
0
 10
32.0
 20
42.5
 10
32.0
 20
32.5
  0
LWPOLYLINE
  5
135
330
131
100
AcDbEntity
  8
0
 62
1
100
AcDbPolyline
 90
6
 70
0
 10
32.0
 20
28.0
 10
32.0
 20
21.0
 10
3.0
 20
21.0
 10
3.0
 20
54.0
 10
32.0
 20
54.0
 10
32.0
 20
47.0
  0
LINE
  5
136
330
131
100
AcDbEntity
  8
0
 62
1
100
AcDbLine
 10
20.0
 20
54.0
 30
0.0
 11
20.0
 21
21.0
 31
0.0
  0
LINE
  5
137
330
131
100
AcDbEntity
  8
0
 62
1
100
AcDbLine
 10
20.0
 20
47.0
 30
0.0
 11
32.0
 21
47.0
 31
0.0
  0
LINE
  5
138
330
131
100
AcDbEntity
  8
0
 62
1
100
AcDbLine
 10
20.0
 20
28.0
 30
0.0
 11
32.0
 21
28.0
 31
0.0
  0
LINE
  5
139
330
131
100
AcDbEntity
  8
0
 62
1
100
AcDbLine
 10
32.0
 20
42.5
 30
0.0
 11
20.0
 21
42.5
 31
0.0
  0
LINE
  5
13A
330
131
100
AcDbEntity
  8
0
 62
1
100
AcDbLine
 10
32.0
 20
32.5
 30
0.0
 11
20.0
 21
32.5
 31
0.0
  0
LWPOLYLINE
  5
13B
330
131
100
AcDbEntity
  8
0
 62
1
100
AcDbPolyline
 90
6
 70
0
 10
32.0
 20
19.0
 10
32.0
 20
0.0
 10
0.0
 20
0.0
 10
0.0
 20
75.0
 10
32.0
 20
75.0
 10
32.0
 20
56.0
  0
CIRCLE
  5
13C
330
131
100
AcDbEntity
  8
0
 62
1
100
AcDbCircle
 10
5.5
 20
62.5
 30
0.0
 40
3.0
  0
CIRCLE
  5
13D
330
131
100
AcDbEntity
  8
0
 62
1
100
AcDbCircle
 10
5.5
 20
37.5
 30
0.0
 40
3.0
  0
CIRCLE
  5
13E
330
131
100
AcDbEntity
  8
0
 62
1
100
AcDbCircle
 10
5.5
 20
12.5
 30
0.0
 40
3.0
  0
LINE
  5
13F
330
131
100
AcDbEntity
  8
0
 62
1
100
AcDbLine
 10
11.0
 20
56.0
 30
0.0
 11
11.00000000001455
 21
19.0
 31
0.0
  0
LINE
  5
140
330
131
100
AcDbEntity
  8
0
 62
1
100
AcDbLine
 10
11.0
 20
56.0
 30
0.0
 11
32.0
 21
56.0
 31
0.0
  0
LINE
  5
141
330
131
100
AcDbEntity
  8
0
 62
1
100
AcDbLine
 10
11.0
 20
19.0
 30
0.0
 11
32.0
 21
19.0
 31
0.0
  0
LWPOLYLINE
  5
142
330
131
100
AcDbEntity
  8
0
 62
1
100
AcDbPolyline
 90
4
 70
1
 10
10.0
 20
67.0
 10
32.0
 20
67.0
 10
32.0
 20
65.0
 10
10.0
 20
65.0
  0
LWPOLYLINE
  5
143
330
131
100
AcDbEntity
  8
0
 62
1
100
AcDbPolyline
 90
4
 70
1
 10
10.0
 20
8.0
 10
32.0
 20
8.0
 10
32.0
 20
10.0
 10
10.0
 20
10.0
  0
LINE
  5
144
330
131
100
AcDbEntity
  8
0
 62
1
100
AcDbLine
 10
29.5
 20
48.99999999997817
 30
0.0
 11
29.5
 21
75.0
 31
0.0
  0
LINE
  5
145
330
131
100
AcDbEntity
  8
0
 62
1
100
AcDbLine
 10
29.5
 20
78.0
 30
0.0
 11
29.5
 21
81.0
 31
0.0
  0
LINE
  5
146
330
131
100
AcDbEntity
  8
0
 62
1
100
AcDbLine
 10
29.5
 20
81.0
 30
0.0
 11
22.5
 21
81.0
 31
0.0
  0
LINE
  5
147
330
131
100
AcDbEntity
  8
0
 62
1
100
AcDbLine
 10
22.5
 20
81.0
 30
0.0
 11
22.5
 21
78.0
 31
0.0
  0
LINE
  5
148
330
131
100
AcDbEntity
  8
0
 62
1
100
AcDbLine
 10
22.5
 20
75.0
 30
0.0
 11
22.5
 21
49.00000000000727
 31
0.0
  0
LINE
  5
149
330
131
100
AcDbEntity
  8
0
 62
1
100
AcDbLine
 10
29.5
 20
78.0
 30
0.0
 11
28.5
 21
77.99999999999272
 31
0.0
  0
LINE
  5
14A
330
131
100
AcDbEntity
  8
0
 62
1
100
AcDbLine
 10
23.5
 20
77.99999999999272
 30
0.0
 11
22.5
 21
78.0
 31
0.0
  0
LINE
  5
14B
330
131
100
AcDbEntity
  8
0
 62
1
100
AcDbLine
 10
23.5
 20
75.0
 30
0.0
 11
23.5
 21
78.0
 31
0.0
  0
LINE
  5
14C
330
131
100
AcDbEntity
  8
0
 62
1
100
AcDbLine
 10
28.5
 20
75.0
 30
0.0
 11
28.5
 21
78.0
 31
0.0
  0
LINE
  5
14D
330
131
100
AcDbEntity
  8
0
 62
1
100
AcDbLine
 10
23.5
 20
75.0
 30
0.0
 11
22.5
 21
75.0
 31
0.0
  0
LINE
  5
14E
330
131
100
AcDbEntity
  8
0
 62
1
100
AcDbLine
 10
28.5
 20
75.0
 30
0.0
 11
29.5
 21
75.0
 31
0.0
  0
LINE
  5
14F
330
131
100
AcDbEntity
  8
0
 62
1
100
AcDbLine
 10
24.0
 20
44.0
 30
0.0
 11
28.0
 21
44.0
 31
0.0
  0
LINE
  5
150
330
131
100
AcDbEntity
  8
0
 62
1
100
AcDbLine
 10
29.5
 20
49.0
 30
0.0
 11
28.0
 21
44.0
 31
0.0
  0
LINE
  5
151
330
131
100
AcDbEntity
  8
0
 62
1
100
AcDbLine
 10
22.5
 20
49.0
 30
0.0
 11
24.0
 21
44.0
 31
0.0
  0
LINE
  5
152
330
131
100
AcDbEntity
  8
0
 62
1
100
AcDbLine
 10
29.5
 20
26.00000000002183
 30
0.0
 11
29.5
 21
0.0
 31
0.0
  0
LINE
  5
153
330
131
100
AcDbEntity
  8
0
 62
1
100
AcDbLine
 10
29.5
 20
-3.0
 30
0.0
 11
29.5
 21
-6.0
 31
0.0
  0
LINE
  5
154
330
131
100
AcDbEntity
  8
0
 62
1
100
AcDbLine
 10
29.5
 20
-6.0
 30
0.0
 11
22.5
 21
-6.0
 31
0.0
  0
LINE
  5
155
330
131
100
AcDbEntity
  8
0
 62
1
100
AcDbLine
 10
22.5
 20
-6.0
 30
0.0
 11
22.5
 21
-3.0
 31
0.0
  0
LINE
  5
156
330
131
100
AcDbEntity
  8
0
 62
1
100
AcDbLine
 10
22.5
 20
0.0
 30
0.0
 11
22.5
 21
25.99999999999273
 31
0.0
  0
LINE
  5
157
330
131
100
AcDbEntity
  8
0
 62
1
100
AcDbLine
 10
29.5
 20
-3.0
 30
0.0
 11
28.5
 21
-2.999999999992724
 31
0.0
  0
LINE
  5
158
330
131
100
AcDbEntity
  8
0
 62
1
100
AcDbLine
 10
23.5
 20
-2.999999999992724
 30
0.0
 11
22.5
 21
-3.0
 31
0.0
  0
LINE
  5
159
330
131
100
AcDbEntity
  8
0
 62
1
100
AcDbLine
 10
23.5
 20
0.0
 30
0.0
 11
23.5
 21
-3.0
 31
0.0
  0
LINE
  5
15A
330
131
100
AcDbEntity
  8
0
 62
1
100
AcDbLine
 10
28.5
 20
0.0
 30
0.0
 11
28.5
 21
-3.0
 31
0.0
  0
LINE
  5
15B
330
131
100
AcDbEntity
  8
0
 62
1
100
AcDbLine
 10
23.5
 20
0.0
 30
0.0
 11
22.5
 21
0.0
 31
0.0
  0
LINE
  5
15C
330
131
100
AcDbEntity
  8
0
 62
1
100
AcDbLine
 10
28.5
 20
0.0
 30
0.0
 11
29.5
 21
0.0
 31
0.0
  0
LINE
  5
15D
330
131
100
AcDbEntity
  8
0
 62
1
100
AcDbLine
 10
24.0
 20
31.0
 30
0.0
 11
28.0
 21
31.0
 31
0.0
  0
LINE
  5
15E
330
131
100
AcDbEntity
  8
0
 62
1
100
AcDbLine
 10
29.5
 20
26.0
 30
0.0
 11
28.0
 21
31.0
 31
0.0
  0
LINE
  5
15F
330
131
100
AcDbEntity
  8
0
 62
1
100
AcDbLine
 10
22.5
 20
26.0
 30
0.0
 11
24.0
 21
31.0
 31
0.0
  0
ENDBLK
  5
133
330
131
100
AcDbEntity
  8
0
100
AcDbBlockEnd
  0
BLOCK
  5
161
330
160
100
AcDbEntity
  8
0
100
AcDbBlockBegin
  2
ovan6x9
 70
0
 10
0.0
 20
0.0
 30
0.0
  3
ovan6x9
  1

  0
ARC
  5
163
330
160
100
AcDbEntity
  8
0
 62
2
100
AcDbCircle
 10
7.999940003966912
 20
2.999987423216225
 30
0.0
 40
3.0
100
AcDbArc
 50
270.0
 51
90.0
  0
ARC
  5
164
330
160
100
AcDbEntity
  8
0
 62
2
100
AcDbCircle
 10
1.999940003966912
 20
2.999987423216225
 30
0.0
 40
3.0
100
AcDbArc
 50
90.0
 51
270.0
  0
LINE
  5
165
330
160
100
AcDbEntity
  8
0
 62
2
100
AcDbLine
 10
1.999940003966912
 20
-1.25767837744e-05
 30
0.0
 11
7.999940003966912
 21
-1.25767837744e-05
 31
0.0
  0
LINE
  5
166
330
160
100
AcDbEntity
  8
0
 62
2
100
AcDbLine
 10
1.999940003966912
 20
5.999987423216225
 30
0.0
 11
7.999940003966912
 21
5.999987423216225
 31
0.0
  0
ENDBLK
  5
162
330
160
100
AcDbEntity
  8
0
100
AcDbBlockEnd
  0
BLOCK
  5
168
330
167
100
AcDbEntity
  8
0
100
AcDbBlockBegin
  2
HL036-1-1
 70
0
 10
0.0
 20
0.0
 30
0.0
  3
HL036-1-1
  1

  0
LWPOLYLINE
  5
16A
330
167
100
AcDbEntity
  8
0
 62
1
100
AcDbPolyline
 90
4
 70
1
 10
-2.5
 20
12.25
 10
17.5
 20
12.25
 10
17.5
 20
36.25
 10
-2.5
 20
36.25
  0
CIRCLE
  5
16B
330
167
100
AcDbEntity
  8
0
 62
1
100
AcDbCircle
 10
3.5
 20
31.75
 30
0.0
 40
2.0
  0
CIRCLE
  5
16C
330
167
100
AcDbEntity
  8
0
 62
1
100
AcDbCircle
 10
3.5
 20
16.75
 30
0.0
 40
2.0
  0
LINE
  5
16D
330
167
100
AcDbEntity
  8
0
 62
1
100
AcDbLine
 10
9.5
 20
36.25
 30
0.0
 11
9.5
 21
12.25
 31
0.0
  0
LWPOLYLINE
  5
16E
330
167
100
AcDbEntity
  8
0
 62
1
100
AcDbPolyline
 90
4
 70
1
 10
0.0
 20
48.5
 10
17.5
 20
48.5
 10
17.5
 20
0.0
 10
0.0
 20
0.0
  0
CIRCLE
  5
16F
330
167
100
AcDbEntity
  8
0
 62
1
100
AcDbCircle
 10
12.70000000018626
 20
16.0
 30
0.0
 40
2.5
  0
CIRCLE
  5
170
330
167
100
AcDbEntity
  8
0
 62
1
100
AcDbCircle
 10
12.70000000018626
 20
32.5
 30
0.0
 40
2.5
  0
ENDBLK
  5
169
330
167
100
AcDbEntity
  8
0
100
AcDbBlockEnd
  0
BLOCK
  5
172
330
171
100
AcDbEntity
  8
0
100
AcDbBlockBegin
  2
MS722
 70
0
 10
0.0
 20
0.0
 30
0.0
  3
MS722
  1

  0
INSERT
  5
174
330
171
100
AcDbEntity
  8
0
100
AcDbBlockReference
  2
SDGFGHGHG
 10
-860940.444367795
 20
-570770.5213009797
 30
0.0
  0
INSERT
  5
176
330
171
100
AcDbEntity
  8
0
100
AcDbBlockReference
  2
SĐFHGGH
 10
-860940.444367795
 20
-570705.4118046993
 30
0.0
  0
ENDBLK
  5
173
330
171
100
AcDbEntity
  8
0
100
AcDbBlockEnd
  0
BLOCK
  5
179
330
178
100
AcDbEntity
  8
0
100
AcDbBlockBegin
  2
KHUNG CHUẨN
 70
2
 10
0.0
 20
0.0
 30
0.0
  3
KHUNG CHUẨN
  1

  0
LWPOLYLINE
  5
17B
330
178
100
AcDbEntity
  8
0
 62
7
100
AcDbPolyline
 90
4
 70
1
 10
16919.24922090965
 20
-26555.15926993403
 10
19889.24922091007
 20
-26555.15926993403
 10
19889.24922091007
 20
-28655.15926993435
 10
16919.24922090965
 20
-28655.15926993435
  0
LINE
  5
17C
330
178
100
AcDbEntity
  8
0
 62
7
100
AcDbLine
 10
18939.24922090965
 20
-28595.15926993434
 30
0.0
 11
16919.24922090965
 21
-28595.15926993434
 31
0.0
  0
LINE
  5
17D
330
178
100
AcDbEntity
  8
0
 62
7
100
AcDbLine
 10
19889.24922091007
 20
-28535.15926993435
 30
0.0
 11
16919.24922090965
 21
-28535.15926993435
 31
0.0
  0
LINE
  5
17E
330
178
100
AcDbEntity
  8
0
 62
7
100
AcDbLine
 10
17239.24922090965
 20
-28535.15926993435
 30
0.0
 11
17239.24922090965
 21
-28595.15926993434
 31
0.0
  0
LINE
  5
17F
330
178
100
AcDbEntity
  8
0
 62
7
100
AcDbLine
 10
17809.24922090965
 20
-28535.15926993435
 30
0.0
 11
17809.24922090965
 21
-28655.15926993435
 31
0.0
  0
LINE
  5
180
330
178
100
AcDbEntity
  8
0
 62
7
100
AcDbLine
 10
18599.24922090965
 20
-28535.15926993435
 30
0.0
 11
18599.24922090965
 21
-28655.15926993435
 31
0.0
  0
LINE
  5
181
330
178
100
AcDbEntity
  8
0
 62
7
100
AcDbLine
 10
18939.24922090965
 20
-28535.15926993435
 30
0.0
 11
18939.24922090965
 21
-28655.15926993435
 31
0.0
  0
LINE
  5
182
330
178
100
AcDbEntity
  8
0
 62
7
100
AcDbLine
 10
19779.24922091007
 20
-28535.15926993435
 30
0.0
 11
19779.24922091007
 21
-28655.15926993435
 31
0.0
  0
MTEXT
  5
183
330
178
100
AcDbEntity
  8
0
 62
2
100
AcDbMText
 10
16919.24922090965
 20
-28565.15926993435
 30
0.0
 40
20.0
 41
917.6339389950801
 46
60.00000000000113
 71
4
 72
5
  1
  Thiết kế :
  7
Arial
  0
MTEXT
  5
184
330
178
100
AcDbEntity
  8
0
 62
2
100
AcDbMText
 10
16919.24922090965
 20
-28625.15926993435
 30
0.0
 40
20.0
 41
917.6339389950801
 46
60.00000000000113
 71
4
 72
5
  1
  CNC :
  7
Arial
  0
MTEXT
  5
185
330
178
100
AcDbEntity
  8
0
 62
2
100
AcDbMText
 10
17239.24922090965
 20
-28565.15926993435
 30
0.0
 40
20.0
 41
917.6339389950801
 46
60.00000000000113
 71
4
 72
5
  1
  Khách hàng :
  7
Arial
  0
MTEXT
  5
186
330
178
100
AcDbEntity
  8
0
 62
2
100
AcDbMText
 10
17466.28942955682
 20
-28625.15926993435
 30
0.0
 40
20.0
 41
556.6509010178333
 46
60.00000000000113
 71
4
 72
5
  1
  Ngày giao:
  7
Arial
  0
MTEXT
  5
187
330
178
100
AcDbEntity
  8
0
 62
2
100
AcDbMText
 10
17809.24922090965
 20
-28565.15926993435
 30
0.0
 40
20.0
 41
917.6339389950801
 46
60.00000000000113
 71
4
 72
5
  1
  Tên sản phẩm :
  7
Arial
  0
MTEXT
  5
188
330
178
100
AcDbEntity
  8
0
 62
2
100
AcDbMText
 10
17809.24922090965
 20
-28625.15926993435
 30
0.0
 40
20.0
 41
917.6339389950801
 46
60.00000000000113
 71
4
 72
5
  1
  Kích thước :
  7
Arial
  0
MTEXT
  5
189
330
178
100
AcDbEntity
  8
0
 62
2
100
AcDbMText
 10
18599.24922090965
 20
-28565.15926993435
 30
0.0
 40
20.0
 41
917.6339389950801
 46
60.00000000000113
 71
4
 72
5
  1
  Số lượng :
  7
Arial
  0
MTEXT
  5
18A
330
178
100
AcDbEntity
  8
0
 62
2
100
AcDbMText
 10
18599.24922090965
 20
-28625.15926993435
 30
0.0
 40
20.0
 41
917.6339389950801
 46
60.00000000000113
 71
4
 72
5
  1
  Loại tôn :
  7
Arial
  0
MTEXT
  5
18B
330
178
100
AcDbEntity
  8
0
 62
2
100
AcDbMText
 10
18993.40450252067
 20
-28595.15926993434
 30
0.0
 40
20.0
 41
108.3105632220314
 46
120.0000000000011
 71
5
 72
5
  1
Thông\Ptin :
  7
Arial
  0
MTEXT
  5
18C
330
178
100
AcDbEntity
  8
0
 62
2
100
AcDbMText
 10
19834.24922091007
 20
-28565.15926993435
 30
0.0
 40
20.0
 41
110.0000000000065
 46
60.00000000000113
 71
5
 72
5
  1
Tờ
  7
Arial
  0
LINE
  5
18D
330
178
100
AcDbEntity
  8
0
 62
7
100
AcDbLine
 10
19047.55978413167
 20
-28560.15926993435
 30
0.0
 11
19047.55978413167
 21
-28630.15926993435
 31
0.0
  0
MTEXT
  5
18E
330
178
100
AcDbEntity
  8
0
 62
2
100
AcDbMText
 10
18548.56684883467
 20
-28625.15926993435
 30
0.0
 40
20.0
 41
73.8305401162098
 46
60.00000000000113
 71
4
 72
5
  1
mm
  7
Arial
  0
MTEXT
  5
18F
330
178
100
AcDbEntity
  8
0
 62
2
100
AcDbMText
 10
18897.93889973559
 20
-28565.15926993435
 30
0.0
 40
20.0
 41
63.51722131864801
 46
60.00000000000113
 71
4
 72
5
  1
cái
  7
Arial
  0
MTEXT
  5
190
330
178
100
AcDbEntity
  8
0
 62
2
100
AcDbMText
 10
18889.20613294428
 20
-28625.15926993435
 30
0.0
 40
20.0
 41
917.6339389950801
 46
60.00000000000113
 71
4
 72
5
  1
mm
  7
Arial
  0
LINE
  5
191
330
178
100
AcDbEntity
  8
0
 62
7
100
AcDbLine
 10
17139.24922090965
 20
-28595.15926993434
 30
0.0
 11
17139.24922090965
 21
-28655.15926993435
 31
0.0
  0
MTEXT
  5
192
330
178
100
AcDbEntity
  8
0
 62
2
100
AcDbMText
 10
17134.01855837237
 20
-28625.15926993435
 30
0.0
 40
20.0
 41
556.6509010178333
 46
60.00000000000113
 71
4
 72
5
  1
  Ngày nhận :
  7
Arial
  0
LINE
  5
193
330
178
100
AcDbEntity
  8
0
 62
7
100
AcDbLine
 10
17474.24922090965
 20
-28595.15926993434
 30
0.0
 11
17474.24922090965
 21
-28655.15926993435
 31
0.0
  0
ATTDEF
  5
194
330
178
100
AcDbEntity
  8
0
 62
3
100
AcDbText
 10
18030.57595183183
 20
-28580.1015331953
 30
0.0
 40
20.0
  1
............
  7
Arial
100
AcDbAttributeDefinition
  3
SẢN PHẨM
  2
#03
 70
0
280
1
 71
1
 72
0
  0
ATTDEF
  5
195
330
178
100
AcDbEntity
  8
0
 62
3
100
AcDbText
 10
18002.0078672091
 20
-28634.73750821321
 30
0.0
 40
20.0
  1

  7
Arial
100
AcDbAttributeDefinition
  3
KÍCH THƯỚC
  2
#07
 70
0
280
1
 71
1
 72
0
  0
ATTDEF
  5
196
330
178
100
AcDbEntity
  8
0
 62
3
100
AcDbText
 10
18751.69842633112
 20
-28580.1015331953
 30
0.0
 40
20.0
  1

  7
Arial
100
AcDbAttributeDefinition
  3
SỐ LƯỢNG
  2
#08
 70
0
280
1
 71
1
 72
0
  0
ATTDEF
  5
197
330
178
100
AcDbEntity
  8
0
 62
3
100
AcDbText
 10
18753.84501617292
 20
-28632.59717057646
 30
0.0
 40
20.0
  1

  7
Arial
100
AcDbAttributeDefinition
  3
LOẠI TÔN
  2
#09
 70
0
280
1
 71
1
 72
0
  0
ATTDEF
  5
198
330
178
100
AcDbEntity
  8
0
 62
3
100
AcDbText
 10
19064.78379112245
 20
-28580.1015331953
 30
0.0
 40
20.0
  1

  7
Arial
100
AcDbAttributeDefinition
  3
CHÚ Ý 1
  2
#10
 70
0
280
1
 71
1
 72
0
  0
ATTDEF
  5
199
330
178
100
AcDbEntity
  8
0
 62
3
100
AcDbText
 10
19060.29593417999
 20
-28625.68604652386
 30
0.0
 40
20.0
  1

  7
Arial
100
AcDbAttributeDefinition
  3
CHÚ Ý 2
  2
#11
 70
0
280
1
 71
1
 72
0
  0
ATTDEF
  5
19A
330
178
100
AcDbEntity
  8
0
 62
3
100
AcDbText
 10
17431.39468632692
 20
-28580.1015331953
 30
0.0
 40
20.0
  1

  7
Arial
100
AcDbAttributeDefinition
  3
KHÁCH HÀNG
  2
#02
 70
0
280
1
 71
1
 72
0
  0
ATTDEF
  5
19B
330
178
100
AcDbEntity
  8
0
 62
3
100
AcDbText
 10
17308.45246357222
 20
-28633.02044838126
 30
0.0
 40
20.0
  1

  7
Arial
100
AcDbAttributeDefinition
  3
NGÀY NHẬN
  2
#05
 70
0
280
1
 71
1
 72
0
  0
ATTDEF
  5
19C
330
178
100
AcDbEntity
  8
0
 62
3
100
AcDbText
 10
17632.65306459898
 20
-28633.73138801003
 30
0.0
 40
20.0
  1

  7
Arial
100
AcDbAttributeDefinition
  3
NGÀY GIAO
  2
#06
 70
0
280
1
 71
1
 72
0
  0
ATTDEF
  5
19D
330
178
100
AcDbEntity
  8
0
 62
3
100
AcDbText
 10
17055.57441422327
 20
-28580.1015331953
 30
0.0
 40
20.0
  1

  7
Arial
100
AcDbAttributeDefinition
  3
THIẾT KẾ
  2
#01
 70
0
280
1
 71
1
 72
0
  0
ATTDEF
  5
19E
330
178
100
AcDbEntity
  8
0
 62
3
100
AcDbText
 10
17024.76529237577
 20
-28634.61999292788
 30
0.0
 40
20.0
  1

  7
Arial
100
AcDbAttributeDefinition
  3
CNC
  2
#04
 70
0
280
1
 71
1
 72
0
  0
ATTDEF
  5
19F
330
178
100
AcDbEntity
  8
0
 62
3
100
AcDbText
 10
19806.4585301708
 20
-28628.91186895216
 30
0.0
 40
20.0
  1

  7
Arial
100
AcDbAttributeDefinition
  3
TỜ
  2
#12
 70
0
280
1
 71
1
 72
0
  0
ENDBLK
  5
17A
330
178
100
AcDbEntity
  8
0
100
AcDbBlockEnd
  0
BLOCK
  5
1A1
330
1A0
100
AcDbEntity
  8
0
100
AcDbBlockBegin
  2
HL011-1-4
 70
0
 10
0.0
 20
0.0
 30
0.0
  3
HL011-1-4
  1

  0
CIRCLE
  5
1A3
330
1A0
100
AcDbEntity
  8
0
 62
1
100
AcDbCircle
 10
26.0
 20
17.5
 30
0.0
 40
3.5
  0
ARC
  5
1A4
330
1A0
100
AcDbEntity
  8
0
 62
1
100
AcDbCircle
 10
26.0
 20
17.5
 30
0.0
 40
6.0
100
AcDbArc
 50
216.8698976456773
 51
90.0
  0
LINE
  5
1A5
330
1A0
100
AcDbEntity
  8
0
 62
1
100
AcDbLine
 10
7.0
 20
23.5
 30
0.0
 11
26.0
 21
23.5
 31
0.0
  0
LINE
  5
1A6
330
1A0
100
AcDbEntity
  8
0
 62
1
100
AcDbLine
 10
11.00000000001455
 20
0.0
 30
0.0
 11
0.0
 21
0.0
 31
0.0
  0
LINE
  5
1A7
330
1A0
100
AcDbEntity
  8
0
 62
1
100
AcDbLine
 10
11.0
 20
0.0
 30
0.0
 11
11.0
 21
19.49999999999272
 31
0.0
  0
LWPOLYLINE
  5
1A8
330
1A0
100
AcDbEntity
  8
0
 62
2
100
AcDbPolyline
 90
4
 70
0
 10
2.5
 20
0.0
 10
2.5
 20
12.0
 10
8.5
 20
12.0
 10
8.5
 20
0.0
  0
LINE
  5
1A9
330
1A0
100
AcDbEntity
  8
0
 62
1
100
AcDbLine
 10
11.0
 20
19.5
 30
0.0
 11
17.0
 21
19.5
 31
0.0
  0
LINE
  5
1AA
330
1A0
100
AcDbEntity
  8
0
 62
1
100
AcDbLine
 10
17.0
 20
19.5
 30
0.0
 11
21.19999999999709
 21
13.90000000000145
 31
0.0
  0
LINE
  5
1AB
330
1A0
100
AcDbEntity
  8
0
 62
1
100
AcDbLine
 10
0.0
 20
0.0
 30
0.0
 11
0.0
 21
10.0
 31
0.0
  0
LINE
  5
1AC
330
1A0
100
AcDbEntity
  8
0
 62
1
100
AcDbLine
 10
7.0
 20
23.5
 30
0.0
 11
0.0
 21
10.0
 31
0.0
  0
LWPOLYLINE
  5
1AD
330
1A0
100
AcDbEntity
  8
0
 62
1
100
AcDbPolyline
 90
4
 70
0
 10
5.703703703708015
 20
21.0
 10
3.0
 20
21.0
 10
3.0
 20
23.5
 10
7.0
 20
23.5
  0
HATCH
  5
1AE
330
1A0
100
AcDbEntity
  8
0
 62
2
100
AcDbHatch
 10
0.0
 20
0.0
 30
0.0
210
0.0
220
0.0
230
1.0
  2
ANSI31
 70
0
 71
0
 91
1
 92
7
 72
0
 73
1
 93
4
 10
2.5
 20
0.0
 10
8.5
 20
0.0
 10
8.5
 20
12.0
 10
2.5
 20
12.0
 97
0
 75
0
 76
1
 52
0.0
 41
0.5
 77
0
 78
1
 53
45.0
 43
0.0
 44
0.0
 45
-1.122532015133643
 46
1.122532015133644
 79
0
 47
0.0382113821138211
 98
1
 10
5.083665481544052
 20
8.387398371310882
  0
ENDBLK
  5
1A2
330
1A0
100
AcDbEntity
  8
0
100
AcDbBlockEnd
  0
BLOCK
  5
1B0
330
1AF
100
AcDbEntity
  8
0
100
AcDbBlockBegin
  2
HL036-1-2
 70
0
 10
0.0
 20
0.0
 30
0.0
  3
HL036-1-2
  1

  0
LINE
  5
1B2
330
1AF
100
AcDbEntity
  8
Ghi chu
 62
1
100
AcDbLine
 10
0.0
 20
0.0
 30
0.0
 11
-15.39999999999418
 21
0.0
 31
0.0
  0
LINE
  5
1B3
330
1AF
100
AcDbEntity
  8
Ghi chu
 62
1
100
AcDbLine
 10
0.0
 20
1.999999999992724
 30
0.0
 11
-13.39999999999418
 21
1.999999999992724
 31
0.0
  0
ARC
  5
1B4
330
1AF
100
AcDbEntity
  8
Ghi chu
 62
1
100
AcDbCircle
 10
-13.39999999999418
 20
3.0
 30
0.0
 40
1.0
100
AcDbArc
 50
180.0
 51
270.0
  0
LINE
  5
1B5
330
1AF
100
AcDbEntity
  8
Ghi chu
 62
1
100
AcDbLine
 10
0.0
 20
0.0
 30
0.0
 11
0.0
 21
1.999999999992724
 31
0.0
  0
ARC
  5
1B6
330
1AF
100
AcDbEntity
  8
Ghi chu
 62
1
100
AcDbCircle
 10
-15.39999999999418
 20
0.999999999992724
 30
0.0
 40
1.0
100
AcDbArc
 50
180.0
 51
270.0
  0
LINE
  5
1B7
330
1AF
100
AcDbEntity
  8
Ghi chu
 62
1
100
AcDbLine
 10
-14.39999999999418
 20
3.0
 30
0.0
 11
-14.39999999999418
 21
11.86544318653614
 31
0.0
  0
ARC
  5
1B8
330
1AF
100
AcDbEntity
  8
Ghi chu
 62
1
100
AcDbCircle
 10
-13.39999999999418
 20
11.86544318653614
 30
0.0
 40
1.0
100
AcDbArc
 50
71.32539173677213
 51
180.0
  0
CIRCLE
  5
1B9
330
1AF
100
AcDbEntity
  8
Ghi chu
 62
1
100
AcDbCircle
 10
-3.0
 20
13.69999999998981
 30
0.0
 40
2.1
  0
CIRCLE
  5
1BA
330
1AF
100
AcDbEntity
  8
Ghi chu
 62
1
100
AcDbCircle
 10
-3.0
 20
13.69999999998981
 30
0.0
 40
4.099999999999998
  0
LINE
  5
1BB
330
1AF
100
AcDbEntity
  8
Ghi chu
 62
1
100
AcDbLine
 10
-13.07980681549816
 20
12.81279545714642
 30
0.0
 11
-4.312792056429316
 21
9.815855690547323
 31
0.0
  0
LINE
  5
1BC
330
1AF
100
AcDbEntity
  8
Ghi chu
 62
1
100
AcDbLine
 10
-16.39999999999418
 20
0.999999999992724
 30
0.0
 11
-16.39999999999418
 21
14.00401710374717
 31
0.0
  0
ARC
  5
1BD
330
1AF
100
AcDbEntity
  8
Ghi chu
 62
1
100
AcDbCircle
 10
-15.39999999999418
 20
14.00401710374717
 30
0.0
 40
1.0
100
AcDbArc
 50
102.961620726614
 51
180.0
  0
LINE
  5
1BE
330
1AF
100
AcDbEntity
  8
Ghi chu
 62
1
100
AcDbLine
 10
-15.6242983273114
 20
14.97853763219609
 30
0.0
 11
-3.919623141991905
 21
17.69553416663257
 31
0.0
  0
LINE
  5
1BF
330
1AF
100
AcDbEntity
  8
Ghi chu
 62
1
100
AcDbLine
 10
-3.0
 20
17.80000000000291
 30
0.0
 11
-18.89999999999418
 21
17.80000000000291
 31
0.0
  0
LINE
  5
1C0
330
1AF
100
AcDbEntity
  8
Ghi chu
 62
1
100
AcDbLine
 10
-12.05524834657262
 20
15.80000000000291
 30
0.0
 11
-18.89999999999418
 21
15.80000000000291
 31
0.0
  0
LINE
  5
1C1
330
1AF
100
AcDbEntity
  8
Ghi chu
 62
1
100
AcDbLine
 10
-18.89999999999418
 20
15.80000000000291
 30
0.0
 11
-18.89999999999418
 21
17.80000000000291
 31
0.0
  0
LINE
  5
1C2
330
1AF
100
AcDbEntity
  8
Ghi chu
 62
1
100
AcDbLine
 10
-1.199999999999999
 20
1.999999999992724
 30
0.0
 11
-1.199999999999999
 21
0.0
 31
0.0
  0
LINE
  5
1C3
330
1AF
100
AcDbEntity
  8
Ghi chu
 62
1
100
AcDbLine
 10
-6.199999999999999
 20
1.999999999992724
 30
0.0
 11
-6.199999999999999
 21
0.0
 31
0.0
  0
ENDBLK
  5
1B1
330
1AF
100
AcDbEntity
  8
0
100
AcDbBlockEnd
  0
BLOCK
  5
1C5
330
1C4
100
AcDbEntity
  8
0
100
AcDbBlockBegin
  2
SDGFGHGHG
 70
0
 10
0.0
 20
0.0
 30
0.0
  3
SDGFGHGHG
  1

  0
LINE
  5
1C7
330
1C4
100
AcDbEntity
  8
HEATER
100
AcDbLine
 10
860892.9443677951
 20
570760.5213009797
 30
0.0
 11
860892.9443677951
 21
570780.5213009797
 31
0.0
  0
LINE
  5
1C8
330
1C4
100
AcDbEntity
  8
HEATER
100
AcDbLine
 10
860935.944367795
 20
570742.0213009797
 30
0.0
 11
860935.944367795
 21
570784.3053497317
 31
0.0
  0
LINE
  5
1C9
330
1C4
100
AcDbEntity
  8
HEATER
100
AcDbLine
 10
860944.944367795
 20
570742.0213009797
 30
0.0
 11
860944.944367795
 21
570784.3053497317
 31
0.0
  0
ARC
  5
1CA
330
1C4
100
AcDbEntity
  8
HEATER
100
AcDbCircle
 10
860940.444367795
 20
570770.5213009797
 30
0.0
 40
14.5
100
AcDbArc
 50
288.0800126249186
 51
251.9199873760986
  0
LINE
  5
1CB
330
1C4
100
AcDbEntity
  8
HEATER
100
AcDbLine
 10
860935.944367795
 20
570742.0213009797
 30
0.0
 11
860944.944367795
 21
570742.0213009797
 31
0.0
  0
LINE
  5
1CC
330
1C4
100
AcDbEntity
  8
HEATER
100
AcDbLine
 10
860892.9443677951
 20
570780.5213009797
 30
0.0
 11
860931.5694281411
 21
570781.9880113245
 31
0.0
  0
LINE
  5
1CD
330
1C4
100
AcDbEntity
  8
HEATER
100
AcDbLine
 10
860892.9443677951
 20
570760.5213009797
 30
0.0
 11
860931.5694281411
 21
570759.0545906347
 31
0.0
  0
LINE
  5
1CE
330
1C4
100
AcDbEntity
  8
HEATER
100
AcDbLine
 10
860892.9443677951
 20
570771.8975213168
 30
0.0
 11
860906.3296893912
 21
570778.6620310972
 31
0.0
  0
LINE
  5
1CF
330
1C4
100
AcDbEntity
  8
HEATER
100
AcDbLine
 10
860892.9443677951
 20
570769.1450806425
 30
0.0
 11
860906.3296893912
 21
570762.380570862
 31
0.0
  0
CIRCLE
  5
1D0
330
1C4
100
AcDbEntity
  8
HEATER
100
AcDbCircle
 10
860940.444367795
 20
570770.5213009797
 30
0.0
 40
3.078158209494111
  0
LINE
  5
1D1
330
1C4
100
AcDbEntity
  8
HEATER
100
AcDbLine
 10
860939.5447235582
 20
570773.4650567796
 30
0.0
 11
860939.5447235582
 21
570771.2753346086
 31
0.0
  0
LINE
  5
1D2
330
1C4
100
AcDbEntity
  8
HEATER
100
AcDbLine
 10
860939.5447235582
 20
570769.7672673506
 30
0.0
 11
860939.5447235582
 21
570767.5775451798
 31
0.0
  0
LINE
  5
1D3
330
1C4
100
AcDbEntity
  8
HEATER
100
AcDbLine
 10
860941.3440120325
 20
570773.4650567796
 30
0.0
 11
860941.3440120325
 21
570771.2753346086
 31
0.0
  0
LINE
  5
1D4
330
1C4
100
AcDbEntity
  8
HEATER
100
AcDbLine
 10
860941.3440120325
 20
570769.7672673506
 30
0.0
 11
860941.3440120325
 21
570767.5775451798
 31
0.0
  0
LINE
  5
1D5
330
1C4
100
AcDbEntity
  8
HEATER
100
AcDbLine
 10
860937.4599932797
 20
570771.2753346086
 30
0.0
 11
860939.5447235582
 21
570771.2753346086
 31
0.0
  0
LINE
  5
1D6
330
1C4
100
AcDbEntity
  8
HEATER
100
AcDbLine
 10
860941.3440120325
 20
570771.2753346086
 30
0.0
 11
860943.4287423106
 21
570771.2753346086
 31
0.0
  0
LINE
  5
1D7
330
1C4
100
AcDbEntity
  8
HEATER
100
AcDbLine
 10
860937.4599932797
 20
570769.7672673506
 30
0.0
 11
860939.5447235582
 21
570769.7672673506
 31
0.0
  0
LINE
  5
1D8
330
1C4
100
AcDbEntity
  8
HEATER
100
AcDbLine
 10
860941.3440120325
 20
570769.7672673506
 30
0.0
 11
860943.4287423106
 21
570769.7672673506
 31
0.0
  0
ENDBLK
  5
1C6
330
1C4
100
AcDbEntity
  8
0
100
AcDbBlockEnd
  0
BLOCK
  5
1DA
330
1D9
100
AcDbEntity
  8
0
100
AcDbBlockBegin
  2
SĐFHGGH
 70
0
 10
0.0
 20
0.0
 30
0.0
  3
SĐFHGGH
  1

  0
ARC
  5
1DC
330
1D9
100
AcDbEntity
  8
HEATER
100
AcDbCircle
 10
860940.444367795
 20
570705.4118046993
 30
0.0
 40
12.0
100
AcDbArc
 50
104.4775121859967
 51
165.5224878140032
  0
ARC
  5
1DD
330
1D9
100
AcDbEntity
  8
HEATER
100
AcDbCircle
 10
860940.444367795
 20
570705.4118046993
 30
0.0
 40
12.0
100
AcDbArc
 50
194.4775121859968
 51
255.5224878140033
  0
ARC
  5
1DE
330
1D9
100
AcDbEntity
  8
HEATER
100
AcDbCircle
 10
860940.444367795
 20
570705.4118046993
 30
0.0
 40
12.0
100
AcDbArc
 50
284.4775121859968
 51
345.5224878140032
  0
ARC
  5
1DF
330
1D9
100
AcDbEntity
  8
HEATER
100
AcDbCircle
 10
860940.444367795
 20
570705.4118046993
 30
0.0
 40
12.0
100
AcDbArc
 50
14.47751218599677
 51
75.52248781400324
  0
LWPOLYLINE
  5
1E0
330
1D9
100
AcDbEntity
  8
HEATER
100
AcDbPolyline
 90
4
 70
0
 10
860943.4443677953
 20
570717.0307547379
 10
860943.4443677953
 20
570718.4118046995
 10
860937.4443677955
 20
570718.4118046995
 10
860937.4443677955
 20
570717.0307547379
  0
LWPOLYLINE
  5
1E1
330
1D9
100
AcDbEntity
  8
HEATER
100
AcDbPolyline
 90
4
 70
0
 10
860943.4443677953
 20
570693.7928546608
 10
860943.4443677953
 20
570692.4118046995
 10
860937.4443677955
 20
570692.4118046995
 10
860937.4443677955
 20
570693.7928546608
  0
LWPOLYLINE
  5
1E2
330
1D9
100
AcDbEntity
  8
HEATER
100
AcDbPolyline
 90
4
 70
0
 10
860952.0633178339
 20
570702.4118046995
 10
860953.4443677956
 20
570702.4118046995
 10
860953.4443677956
 20
570708.4118046993
 10
860952.0633178339
 20
570708.4118046993
  0
LWPOLYLINE
  5
1E3
330
1D9
100
AcDbEntity
  8
HEATER
100
AcDbPolyline
 90
4
 70
0
 10
860928.8254177567
 20
570702.4118046995
 10
860927.4443677953
 20
570702.4118046995
 10
860927.4443677953
 20
570708.4118046993
 10
860928.8254177567
 20
570708.4118046993
  0
ENDBLK
  5
1DB
330
1D9
100
AcDbEntity
  8
0
100
AcDbBlockEnd
  0
BLOCK
  5
1ED
330
1EC
100
AcDbEntity
  8
0
100
AcDbBlockBegin
  2
_ArchTick
 70
0
 10
0.0
 20
0.0
 30
0.0
  3
_ArchTick
  1

  0
LWPOLYLINE
  5
1EF
330
1EC
100
AcDbEntity
  8
0
 62
0
100
AcDbPolyline
 90
2
 70
0
 43
0.15
 10
-0.5
 20
-0.5
 10
0.5
 20
0.5
  0
ENDBLK
  5
1EE
330
1EC
100
AcDbEntity
  8
0
100
AcDbBlockEnd
  0
BLOCK
  5
210
330
20F
100
AcDbEntity
  8
0
100
AcDbBlockBegin
  2
*D1
 70
1
 10
0.0
 20
0.0
 30
0.0
  3
*D1
  1

  0
LINE
  5
212
330
20F
100
AcDbEntity
  8
DIM
 62
5
370
9
440
16777216
100
AcDbLine
 10
169.0978862932825
 20
2072.3959059247572
 30
0.0
 11
169.0978862932825
 21
2153.3794535629277
 31
0.0
  0
LINE
  5
213
330
20F
100
AcDbEntity
  8
DIM
 62
5
370
9
440
16777216
100
AcDbLine
 10
869.0978862932825
 20
2072.3959059247572
 30
0.0
 11
869.0978862932825
 21
2153.3794535629277
 31
0.0
  0
LINE
  5
214
330
20F
100
AcDbEntity
  8
DIM
 62
5
370
9
440
16777216
100
AcDbLine
 10
174.0978862932825
 20
2148.3794535629277
 30
0.0
 11
864.0978862932825
 21
2148.3794535629277
 31
0.0
  0
LINE
  5
215
330
20F
100
AcDbEntity
  8
0
  6
ByBlock
 62
0
370
-2
100
AcDbLine
 10
174.0978862932825
 20
2147.03970761293
 30
0.0
 11
169.0978862932825
 21
2148.3794535629277
 31
0.0
  0
LINE
  5
216
330
20F
100
AcDbEntity
  8
0
  6
ByBlock
 62
0
370
-2
100
AcDbLine
 10
169.0978862932825
 20
2148.3794535629277
 30
0.0
 11
174.0978862932825
 21
2149.719199512925
 31
0.0
  0
LINE
  5
217
330
20F
100
AcDbEntity
  8
0
  6
ByBlock
 62
0
370
-2
100
AcDbLine
 10
169.0978862932825
 20
2148.3794535629277
 30
0.0
 11
174.0978862932825
 21
2148.3794535629277
 31
0.0
  0
LINE
  5
218
330
20F
100
AcDbEntity
  8
0
  6
ByBlock
 62
0
370
-2
100
AcDbLine
 10
864.0978862932825
 20
2149.719199512925
 30
0.0
 11
869.0978862932825
 21
2148.3794535629277
 31
0.0
  0
LINE
  5
219
330
20F
100
AcDbEntity
  8
0
  6
ByBlock
 62
0
370
-2
100
AcDbLine
 10
869.0978862932825
 20
2148.3794535629277
 30
0.0
 11
864.0978862932825
 21
2147.03970761293
 31
0.0
  0
LINE
  5
21A
330
20F
100
AcDbEntity
  8
0
  6
ByBlock
 62
0
370
-2
100
AcDbLine
 10
869.0978862932825
 20
2148.3794535629277
 30
0.0
 11
864.0978862932825
 21
2148.3794535629277
 31
0.0
  0
MTEXT
  5
21B
330
20F
100
AcDbEntity
  8
DIM
 62
3
440
16777216
100
AcDbMText
 10
519.0978862932825
 20
2183.908102949019
 30
0.0
 40
50.0
 41
0.0
 46
0.0
 71
5
  1
700
  0
POINT
  5
21C
330
20F
100
AcDbEntity
  8
Defpoints
 62
0
440
16777216
100
AcDbPoint
 10
169.0978862932825
 20
2057.3959059247572
 30
0.0
  0
POINT
  5
21D
330
20F
100
AcDbEntity
  8
Defpoints
 62
0
440
16777216
100
AcDbPoint
 10
869.0978862932825
 20
2057.3959059247572
 30
0.0
  0
POINT
  5
21E
330
20F
100
AcDbEntity
  8
Defpoints
 62
0
440
16777216
100
AcDbPoint
 10
869.0978862932825
 20
2148.3794535629277
 30
0.0
  0
ENDBLK
  5
211
330
20F
100
AcDbEntity
  8
0
100
AcDbBlockEnd
  0
BLOCK
  5
220
330
21F
100
AcDbEntity
  8
0
100
AcDbBlockBegin
  2
*D2
 70
1
 10
0.0
 20
0.0
 30
0.0
  3
*D2
  1

  0
LINE
  5
222
330
21F
100
AcDbEntity
  8
DIM
 62
5
370
9
440
16777216
100
AcDbLine
 10
154.0978862932825
 20
2057.3959059247572
 30
0.0
 11
97.0140649570676
 21
2057.3959059247572
 31
0.0
  0
LINE
  5
223
330
21F
100
AcDbEntity
  8
DIM
 62
5
370
9
440
16777216
100
AcDbLine
 10
154.0978862932825
 20
1157.3959059247572
 30
0.0
 11
97.0140649570676
 21
1157.3959059247572
 31
0.0
  0
LINE
  5
224
330
21F
100
AcDbEntity
  8
DIM
 62
5
370
9
440
16777216
100
AcDbLine
 10
102.0140649570676
 20
2052.3959059247572
 30
0.0
 11
102.0140649570676
 21
1162.3959059247572
 31
0.0
  0
LINE
  5
225
330
21F
100
AcDbEntity
  8
0
  6
ByBlock
 62
0
370
-2
100
AcDbLine
 10
100.6743190070556
 20
2052.3959059247572
 30
0.0
 11
102.0140649570676
 21
2057.3959059247572
 31
0.0
  0
LINE
  5
226
330
21F
100
AcDbEntity
  8
0
  6
ByBlock
 62
0
370
-2
100
AcDbLine
 10
102.0140649570676
 20
2057.3959059247572
 30
0.0
 11
103.3538109070796
 21
2052.3959059247572
 31
0.0
  0
LINE
  5
227
330
21F
100
AcDbEntity
  8
0
  6
ByBlock
 62
0
370
-2
100
AcDbLine
 10
102.0140649570676
 20
2057.3959059247572
 30
0.0
 11
102.0140649570676
 21
2052.3959059247572
 31
0.0
  0
LINE
  5
228
330
21F
100
AcDbEntity
  8
0
  6
ByBlock
 62
0
370
-2
100
AcDbLine
 10
103.3538109070796
 20
1162.3959059247572
 30
0.0
 11
102.0140649570676
 21
1157.3959059247572
 31
0.0
  0
LINE
  5
229
330
21F
100
AcDbEntity
  8
0
  6
ByBlock
 62
0
370
-2
100
AcDbLine
 10
102.0140649570676
 20
1157.3959059247572
 30
0.0
 11
100.6743190070556
 21
1162.3959059247572
 31
0.0
  0
LINE
  5
22A
330
21F
100
AcDbEntity
  8
0
  6
ByBlock
 62
0
370
-2
100
AcDbLine
 10
102.0140649570676
 20
1157.3959059247572
 30
0.0
 11
102.0140649570676
 21
1162.3959059247572
 31
0.0
  0
MTEXT
  5
22B
330
21F
100
AcDbEntity
  8
DIM
 62
3
440
16777216
100
AcDbMText
 10
66.48541557096178
 20
1607.3959059247863
 30
0.0
 40
50.0
 41
0.0
 46
0.0
 71
5
  1
900
 11
1e-16
 21
1.0
 31
0.0
  0
POINT
  5
22C
330
21F
100
AcDbEntity
  8
Defpoints
 62
0
440
16777216
100
AcDbPoint
 10
169.0978862932825
 20
2057.3959059247572
 30
0.0
  0
POINT
  5
22D
330
21F
100
AcDbEntity
  8
Defpoints
 62
0
440
16777216
100
AcDbPoint
 10
169.0978862932825
 20
1157.3959059247572
 30
0.0
  0
POINT
  5
22E
330
21F
100
AcDbEntity
  8
Defpoints
 62
0
440
16777216
100
AcDbPoint
 10
102.0140649570676
 20
1157.3959059247572
 30
0.0
  0
ENDBLK
  5
221
330
21F
100
AcDbEntity
  8
0
100
AcDbBlockEnd
  0
BLOCK
  5
230
330
22F
100
AcDbEntity
  8
0
100
AcDbBlockBegin
  2
*D3
 70
1
 10
0.0
 20
0.0
 30
0.0
  3
*D3
  1

  0
LINE
  5
232
330
22F
100
AcDbEntity
  8
DIM
 62
5
370
9
440
16777216
100
AcDbLine
 10
87.0140649570676
 20
1157.3959059247572
 30
0.0
 11
97.0140649570676
 21
1157.3959059247572
 31
0.0
  0
LINE
  5
233
330
22F
100
AcDbEntity
  8
DIM
 62
5
370
9
440
16777216
100
AcDbLine
 10
154.0978862932825
 20
1057.3959059247572
 30
0.0
 11
97.0140649570676
 21
1057.3959059247572
 31
0.0
  0
LINE
  5
234
330
22F
100
AcDbEntity
  8
DIM
 62
5
370
9
440
16777216
100
AcDbLine
 10
102.0140649570676
 20
1152.3959059247572
 30
0.0
 11
102.0140649570676
 21
1062.3959059247572
 31
0.0
  0
LINE
  5
235
330
22F
100
AcDbEntity
  8
0
  6
ByBlock
 62
0
370
-2
100
AcDbLine
 10
100.6743190070556
 20
1152.3959059247572
 30
0.0
 11
102.0140649570676
 21
1157.3959059247572
 31
0.0
  0
LINE
  5
236
330
22F
100
AcDbEntity
  8
0
  6
ByBlock
 62
0
370
-2
100
AcDbLine
 10
102.0140649570676
 20
1157.3959059247572
 30
0.0
 11
103.3538109070796
 21
1152.3959059247572
 31
0.0
  0
LINE
  5
237
330
22F
100
AcDbEntity
  8
0
  6
ByBlock
 62
0
370
-2
100
AcDbLine
 10
102.0140649570676
 20
1157.3959059247572
 30
0.0
 11
102.0140649570676
 21
1152.3959059247572
 31
0.0
  0
LINE
  5
238
330
22F
100
AcDbEntity
  8
0
  6
ByBlock
 62
0
370
-2
100
AcDbLine
 10
103.3538109070796
 20
1062.3959059247572
 30
0.0
 11
102.0140649570676
 21
1057.3959059247572
 31
0.0
  0
LINE
  5
239
330
22F
100
AcDbEntity
  8
0
  6
ByBlock
 62
0
370
-2
100
AcDbLine
 10
102.0140649570676
 20
1057.3959059247572
 30
0.0
 11
100.6743190070556
 21
1062.3959059247572
 31
0.0
  0
LINE
  5
23A
330
22F
100
AcDbEntity
  8
0
  6
ByBlock
 62
0
370
-2
100
AcDbLine
 10
102.0140649570676
 20
1057.3959059247572
 30
0.0
 11
102.0140649570676
 21
1062.3959059247572
 31
0.0
  0
MTEXT
  5
23B
330
22F
100
AcDbEntity
  8
DIM
 62
3
440
16777216
100
AcDbMText
 10
66.48541557096178
 20
1107.3959059247863
 30
0.0
 40
50.0
 41
0.0
 46
0.0
 71
5
  1
100
 11
1e-16
 21
1.0
 31
0.0
  0
POINT
  5
23C
330
22F
100
AcDbEntity
  8
Defpoints
 62
0
440
16777216
100
AcDbPoint
 10
102.0140649570676
 20
1157.3959059247572
 30
0.0
  0
POINT
  5
23D
330
22F
100
AcDbEntity
  8
Defpoints
 62
0
440
16777216
100
AcDbPoint
 10
169.0978862932825
 20
1057.3959059247572
 30
0.0
  0
POINT
  5
23E
330
22F
100
AcDbEntity
  8
Defpoints
 62
0
440
16777216
100
AcDbPoint
 10
102.0140649570676
 20
1057.3959059247572
 30
0.0
  0
ENDBLK
  5
231
330
22F
100
AcDbEntity
  8
0
100
AcDbBlockEnd
  0
BLOCK
  5
240
330
23F
100
AcDbEntity
  8
0
100
AcDbBlockBegin
  2
*D4
 70
1
 10
0.0
 20
0.0
 30
0.0
  3
*D4
  1

  0
LINE
  5
242
330
23F
100
AcDbEntity
  8
DIM
 62
5
370
9
440
16777216
100
AcDbLine
 10
154.0978862932825
 20
782.6907656269905
 30
0.0
 11
114.81717789266258
 21
782.6907656269905
 31
0.0
  0
LINE
  5
243
330
23F
100
AcDbEntity
  8
DIM
 62
5
370
9
440
16777216
100
AcDbLine
 10
155.09788629226387
 20
432.69076562699047
 30
0.0
 11
114.81717789266258
 21
432.69076562699047
 31
0.0
  0
LINE
  5
244
330
23F
100
AcDbEntity
  8
DIM
 62
5
370
9
440
16777216
100
AcDbLine
 10
119.81717789266258
 20
777.6907656269905
 30
0.0
 11
119.81717789266258
 21
437.69076562699047
 31
0.0
  0
LINE
  5
245
330
23F
100
AcDbEntity
  8
0
  6
ByBlock
 62
0
370
-2
100
AcDbLine
 10
118.47743194265058
 20
777.6907656269905
 30
0.0
 11
119.81717789266258
 21
782.6907656269905
 31
0.0
  0
LINE
  5
246
330
23F
100
AcDbEntity
  8
0
  6
ByBlock
 62
0
370
-2
100
AcDbLine
 10
119.81717789266258
 20
782.6907656269905
 30
0.0
 11
121.15692384267459
 21
777.6907656269905
 31
0.0
  0
LINE
  5
247
330
23F
100
AcDbEntity
  8
0
  6
ByBlock
 62
0
370
-2
100
AcDbLine
 10
119.81717789266258
 20
782.6907656269905
 30
0.0
 11
119.81717789266258
 21
777.6907656269905
 31
0.0
  0
LINE
  5
248
330
23F
100
AcDbEntity
  8
0
  6
ByBlock
 62
0
370
-2
100
AcDbLine
 10
121.15692384267459
 20
437.69076562699047
 30
0.0
 11
119.81717789266258
 21
432.69076562699047
 31
0.0
  0
LINE
  5
249
330
23F
100
AcDbEntity
  8
0
  6
ByBlock
 62
0
370
-2
100
AcDbLine
 10
119.81717789266258
 20
432.69076562699047
 30
0.0
 11
118.47743194265058
 21
437.69076562699047
 31
0.0
  0
LINE
  5
24A
330
23F
100
AcDbEntity
  8
0
  6
ByBlock
 62
0
370
-2
100
AcDbLine
 10
119.81717789266258
 20
432.69076562699047
 30
0.0
 11
119.81717789266258
 21
437.69076562699047
 31
0.0
  0
MTEXT
  5
24B
330
23F
100
AcDbEntity
  8
DIM
 62
3
440
16777216
100
AcDbMText
 10
84.27147530057118
 20
607.6907656270196
 30
0.0
 40
50.0
 41
0.0
 46
0.0
 71
5
  1
350
 11
1e-16
 21
1.0
 31
0.0
  0
POINT
  5
24C
330
23F
100
AcDbEntity
  8
Defpoints
 62
0
440
16777216
100
AcDbPoint
 10
169.0978862932825
 20
782.6907656269905
 30
0.0
  0
POINT
  5
24D
330
23F
100
AcDbEntity
  8
Defpoints
 62
0
440
16777216
100
AcDbPoint
 10
170.09788629238028
 20
432.69076562699047
 30
0.0
  0
POINT
  5
24E
330
23F
100
AcDbEntity
  8
Defpoints
 62
0
440
16777216
100
AcDbPoint
 10
119.81717789266258
 20
432.69076562699047
 30
0.0
  0
ENDBLK
  5
241
330
23F
100
AcDbEntity
  8
0
100
AcDbBlockEnd
  0
BLOCK
  5
250
330
24F
100
AcDbEntity
  8
0
100
AcDbBlockBegin
  2
*D5
 70
1
 10
0.0
 20
0.0
 30
0.0
  3
*D5
  1

  0
LINE
  5
252
330
24F
100
AcDbEntity
  8
DIM
 62
5
370
9
440
16777216
100
AcDbLine
 10
169.0978862932825
 20
797.6907656269905
 30
0.0
 11
169.0978862932825
 21
815.6028242580069
 31
0.0
  0
LINE
  5
253
330
24F
100
AcDbEntity
  8
DIM
 62
5
370
9
440
16777216
100
AcDbLine
 10
869.0978862932825
 20
797.6907656269905
 30
0.0
 11
869.0978862932825
 21
815.6028242580069
 31
0.0
  0
LINE
  5
254
330
24F
100
AcDbEntity
  8
DIM
 62
5
370
9
440
16777216
100
AcDbLine
 10
174.0978862932825
 20
810.6028242580069
 30
0.0
 11
864.0978862932825
 21
810.6028242580069
 31
0.0
  0
LINE
  5
255
330
24F
100
AcDbEntity
  8
0
  6
ByBlock
 62
0
370
-2
100
AcDbLine
 10
174.0978862932825
 20
809.2630783080094
 30
0.0
 11
169.0978862932825
 21
810.6028242580069
 31
0.0
  0
LINE
  5
256
330
24F
100
AcDbEntity
  8
0
  6
ByBlock
 62
0
370
-2
100
AcDbLine
 10
169.0978862932825
 20
810.6028242580069
 30
0.0
 11
174.0978862932825
 21
811.9425702080043
 31
0.0
  0
LINE
  5
257
330
24F
100
AcDbEntity
  8
0
  6
ByBlock
 62
0
370
-2
100
AcDbLine
 10
169.0978862932825
 20
810.6028242580069
 30
0.0
 11
174.0978862932825
 21
810.6028242580069
 31
0.0
  0
LINE
  5
258
330
24F
100
AcDbEntity
  8
0
  6
ByBlock
 62
0
370
-2
100
AcDbLine
 10
864.0978862932825
 20
811.9425702080043
 30
0.0
 11
869.0978862932825
 21
810.6028242580069
 31
0.0
  0
LINE
  5
259
330
24F
100
AcDbEntity
  8
0
  6
ByBlock
 62
0
370
-2
100
AcDbLine
 10
869.0978862932825
 20
810.6028242580069
 30
0.0
 11
864.0978862932825
 21
809.2630783080094
 31
0.0
  0
LINE
  5
25A
330
24F
100
AcDbEntity
  8
0
  6
ByBlock
 62
0
370
-2
100
AcDbLine
 10
869.0978862932825
 20
810.6028242580069
 30
0.0
 11
864.0978862932825
 21
810.6028242580069
 31
0.0
  0
MTEXT
  5
25B
330
24F
100
AcDbEntity
  8
DIM
 62
3
440
16777216
100
AcDbMText
 10
519.0978862932825
 20
846.1314736440982
 30
0.0
 40
50.0
 41
0.0
 46
0.0
 71
5
  1
700
  0
POINT
  5
25C
330
24F
100
AcDbEntity
  8
Defpoints
 62
0
440
16777216
100
AcDbPoint
 10
169.0978862932825
 20
782.6907656269905
 30
0.0
  0
POINT
  5
25D
330
24F
100
AcDbEntity
  8
Defpoints
 62
0
440
16777216
100
AcDbPoint
 10
869.0978862932825
 20
782.6907656269905
 30
0.0
  0
POINT
  5
25E
330
24F
100
AcDbEntity
  8
Defpoints
 62
0
440
16777216
100
AcDbPoint
 10
869.0978862932825
 20
810.6028242580069
 30
0.0
  0
ENDBLK
  5
251
330
24F
100
AcDbEntity
  8
0
100
AcDbBlockEnd
  0
BLOCK
  5
260
330
25F
100
AcDbEntity
  8
0
100
AcDbBlockBegin
  2
*D6
 70
1
 10
0.0
 20
0.0
 30
0.0
  3
*D6
  1

  0
LINE
  5
262
330
25F
100
AcDbEntity
  8
DIM
 62
5
370
9
440
16777216
100
AcDbLine
 10
1115.48350411086
 20
2072.3959059247572
 30
0.0
 11
1115.48350411086
 21
2153.3794535629277
 31
0.0
  0
LINE
  5
263
330
25F
100
AcDbEntity
  8
DIM
 62
5
370
9
440
16777216
100
AcDbLine
 10
1815.48350411086
 20
2072.3959059247572
 30
0.0
 11
1815.48350411086
 21
2153.3794535629277
 31
0.0
  0
LINE
  5
264
330
25F
100
AcDbEntity
  8
DIM
 62
5
370
9
440
16777216
100
AcDbLine
 10
1120.48350411086
 20
2148.3794535629277
 30
0.0
 11
1810.48350411086
 21
2148.3794535629277
 31
0.0
  0
LINE
  5
265
330
25F
100
AcDbEntity
  8
0
  6
ByBlock
 62
0
370
-2
100
AcDbLine
 10
1120.48350411086
 20
2147.03970761293
 30
0.0
 11
1115.48350411086
 21
2148.3794535629277
 31
0.0
  0
LINE
  5
266
330
25F
100
AcDbEntity
  8
0
  6
ByBlock
 62
0
370
-2
100
AcDbLine
 10
1115.48350411086
 20
2148.3794535629277
 30
0.0
 11
1120.48350411086
 21
2149.719199512925
 31
0.0
  0
LINE
  5
267
330
25F
100
AcDbEntity
  8
0
  6
ByBlock
 62
0
370
-2
100
AcDbLine
 10
1115.48350411086
 20
2148.3794535629277
 30
0.0
 11
1120.48350411086
 21
2148.3794535629277
 31
0.0
  0
LINE
  5
268
330
25F
100
AcDbEntity
  8
0
  6
ByBlock
 62
0
370
-2
100
AcDbLine
 10
1810.48350411086
 20
2149.719199512925
 30
0.0
 11
1815.48350411086
 21
2148.3794535629277
 31
0.0
  0
LINE
  5
269
330
25F
100
AcDbEntity
  8
0
  6
ByBlock
 62
0
370
-2
100
AcDbLine
 10
1815.48350411086
 20
2148.3794535629277
 30
0.0
 11
1810.48350411086
 21
2147.03970761293
 31
0.0
  0
LINE
  5
26A
330
25F
100
AcDbEntity
  8
0
  6
ByBlock
 62
0
370
-2
100
AcDbLine
 10
1815.48350411086
 20
2148.3794535629277
 30
0.0
 11
1810.48350411086
 21
2148.3794535629277
 31
0.0
  0
MTEXT
  5
26B
330
25F
100
AcDbEntity
  8
DIM
 62
3
440
16777216
100
AcDbMText
 10
1465.48350411086
 20
2183.908102949019
 30
0.0
 40
50.0
 41
0.0
 46
0.0
 71
5
  1
700
  0
POINT
  5
26C
330
25F
100
AcDbEntity
  8
Defpoints
 62
0
440
16777216
100
AcDbPoint
 10
1115.48350411086
 20
2057.3959059247572
 30
0.0
  0
POINT
  5
26D
330
25F
100
AcDbEntity
  8
Defpoints
 62
0
440
16777216
100
AcDbPoint
 10
1815.48350411086
 20
2057.3959059247572
 30
0.0
  0
POINT
  5
26E
330
25F
100
AcDbEntity
  8
Defpoints
 62
0
440
16777216
100
AcDbPoint
 10
1815.48350411086
 20
2148.3794535629277
 30
0.0
  0
ENDBLK
  5
261
330
25F
100
AcDbEntity
  8
0
100
AcDbBlockEnd
  0
BLOCK
  5
270
330
26F
100
AcDbEntity
  8
0
100
AcDbBlockBegin
  2
*D7
 70
1
 10
0.0
 20
0.0
 30
0.0
  3
*D7
  1

  0
LINE
  5
272
330
26F
100
AcDbEntity
  8
DIM
 62
5
370
9
440
16777216
100
AcDbLine
 10
1100.48350411086
 20
2057.3959059247572
 30
0.0
 11
1019.8336866322788
 21
2057.3959059247572
 31
0.0
  0
LINE
  5
273
330
26F
100
AcDbEntity
  8
DIM
 62
5
370
9
440
16777216
100
AcDbLine
 10
1100.48350411086
 20
1157.3959059247572
 30
0.0
 11
1019.8336866322788
 21
1157.3959059247572
 31
0.0
  0
LINE
  5
274
330
26F
100
AcDbEntity
  8
DIM
 62
5
370
9
440
16777216
100
AcDbLine
 10
1024.8336866322788
 20
2052.3959059247572
 30
0.0
 11
1024.8336866322788
 21
1162.3959059247572
 31
0.0
  0
LINE
  5
275
330
26F
100
AcDbEntity
  8
0
  6
ByBlock
 62
0
370
-2
100
AcDbLine
 10
1023.4939406822668
 20
2052.3959059247572
 30
0.0
 11
1024.8336866322788
 21
2057.3959059247572
 31
0.0
  0
LINE
  5
276
330
26F
100
AcDbEntity
  8
0
  6
ByBlock
 62
0
370
-2
100
AcDbLine
 10
1024.8336866322788
 20
2057.3959059247572
 30
0.0
 11
1026.1734325822908
 21
2052.3959059247572
 31
0.0
  0
LINE
  5
277
330
26F
100
AcDbEntity
  8
0
  6
ByBlock
 62
0
370
-2
100
AcDbLine
 10
1024.8336866322788
 20
2057.3959059247572
 30
0.0
 11
1024.8336866322788
 21
2052.3959059247572
 31
0.0
  0
LINE
  5
278
330
26F
100
AcDbEntity
  8
0
  6
ByBlock
 62
0
370
-2
100
AcDbLine
 10
1026.1734325822908
 20
1162.3959059247572
 30
0.0
 11
1024.8336866322788
 21
1157.3959059247572
 31
0.0
  0
LINE
  5
279
330
26F
100
AcDbEntity
  8
0
  6
ByBlock
 62
0
370
-2
100
AcDbLine
 10
1024.8336866322788
 20
1157.3959059247572
 30
0.0
 11
1023.4939406822668
 21
1162.3959059247572
 31
0.0
  0
LINE
  5
27A
330
26F
100
AcDbEntity
  8
0
  6
ByBlock
 62
0
370
-2
100
AcDbLine
 10
1024.8336866322788
 20
1157.3959059247572
 30
0.0
 11
1024.8336866322788
 21
1162.3959059247572
 31
0.0
  0
MTEXT
  5
27B
330
26F
100
AcDbEntity
  8
DIM
 62
3
440
16777216
100
AcDbMText
 10
989.305037246173
 20
1607.3959059247863
 30
0.0
 40
50.0
 41
0.0
 46
0.0
 71
5
  1
900
 11
1e-16
 21
1.0
 31
0.0
  0
POINT
  5
27C
330
26F
100
AcDbEntity
  8
Defpoints
 62
0
440
16777216
100
AcDbPoint
 10
1115.48350411086
 20
2057.3959059247572
 30
0.0
  0
POINT
  5
27D
330
26F
100
AcDbEntity
  8
Defpoints
 62
0
440
16777216
100
AcDbPoint
 10
1115.48350411086
 20
1157.3959059247572
 30
0.0
  0
POINT
  5
27E
330
26F
100
AcDbEntity
  8
Defpoints
 62
0
440
16777216
100
AcDbPoint
 10
1024.8336866322788
 20
1157.3959059247572
 30
0.0
  0
ENDBLK
  5
271
330
26F
100
AcDbEntity
  8
0
100
AcDbBlockEnd
  0
BLOCK
  5
280
330
27F
100
AcDbEntity
  8
0
100
AcDbBlockBegin
  2
*D8
 70
1
 10
0.0
 20
0.0
 30
0.0
  3
*D8
  1

  0
LINE
  5
282
330
27F
100
AcDbEntity
  8
DIM
 62
5
370
9
440
16777216
100
AcDbLine
 10
1009.8336866322788
 20
1157.3959059247572
 30
0.0
 11
1019.8336866321624
 21
1157.3959059247572
 31
0.0
  0
LINE
  5
283
330
27F
100
AcDbEntity
  8
DIM
 62
5
370
9
440
16777216
100
AcDbLine
 10
1100.48350411086
 20
1057.3959059247572
 30
0.0
 11
1019.8336866321624
 21
1057.3959059247572
 31
0.0
  0
LINE
  5
284
330
27F
100
AcDbEntity
  8
DIM
 62
5
370
9
440
16777216
100
AcDbLine
 10
1024.8336866321624
 20
1152.3959059247572
 30
0.0
 11
1024.8336866321624
 21
1062.3959059247572
 31
0.0
  0
LINE
  5
285
330
27F
100
AcDbEntity
  8
0
  6
ByBlock
 62
0
370
-2
100
AcDbLine
 10
1023.4939406821504
 20
1152.3959059247572
 30
0.0
 11
1024.8336866321624
 21
1157.3959059247572
 31
0.0
  0
LINE
  5
286
330
27F
100
AcDbEntity
  8
0
  6
ByBlock
 62
0
370
-2
100
AcDbLine
 10
1024.8336866321624
 20
1157.3959059247572
 30
0.0
 11
1026.1734325821744
 21
1152.3959059247572
 31
0.0
  0
LINE
  5
287
330
27F
100
AcDbEntity
  8
0
  6
ByBlock
 62
0
370
-2
100
AcDbLine
 10
1024.8336866321624
 20
1157.3959059247572
 30
0.0
 11
1024.8336866321624
 21
1152.3959059247572
 31
0.0
  0
LINE
  5
288
330
27F
100
AcDbEntity
  8
0
  6
ByBlock
 62
0
370
-2
100
AcDbLine
 10
1026.1734325821744
 20
1062.3959059247572
 30
0.0
 11
1024.8336866321624
 21
1057.3959059247572
 31
0.0
  0
LINE
  5
289
330
27F
100
AcDbEntity
  8
0
  6
ByBlock
 62
0
370
-2
100
AcDbLine
 10
1024.8336866321624
 20
1057.3959059247572
 30
0.0
 11
1023.4939406821504
 21
1062.3959059247572
 31
0.0
  0
LINE
  5
28A
330
27F
100
AcDbEntity
  8
0
  6
ByBlock
 62
0
370
-2
100
AcDbLine
 10
1024.8336866321624
 20
1057.3959059247572
 30
0.0
 11
1024.8336866321624
 21
1062.3959059247572
 31
0.0
  0
MTEXT
  5
28B
330
27F
100
AcDbEntity
  8
DIM
 62
3
440
16777216
100
AcDbMText
 10
989.305037246173
 20
1107.3959059247863
 30
0.0
 40
50.0
 41
0.0
 46
0.0
 71
5
  1
100
 11
1e-16
 21
1.0
 31
0.0
  0
POINT
  5
28C
330
27F
100
AcDbEntity
  8
Defpoints
 62
0
440
16777216
100
AcDbPoint
 10
1024.8336866322788
 20
1157.3959059247572
 30
0.0
  0
POINT
  5
28D
330
27F
100
AcDbEntity
  8
Defpoints
 62
0
440
16777216
100
AcDbPoint
 10
1115.48350411086
 20
1057.3959059247572
 30
0.0
  0
POINT
  5
28E
330
27F
100
AcDbEntity
  8
Defpoints
 62
0
440
16777216
100
AcDbPoint
 10
1024.8336866321624
 20
1057.3959059247572
 30
0.0
  0
ENDBLK
  5
281
330
27F
100
AcDbEntity
  8
0
100
AcDbBlockEnd
  0
BLOCK
  5
290
330
28F
100
AcDbEntity
  8
0
100
AcDbBlockBegin
  2
*D9
 70
1
 10
0.0
 20
0.0
 30
0.0
  3
*D9
  1

  0
LINE
  5
292
330
28F
100
AcDbEntity
  8
0
 62
5
370
9
 48
3.0
440
16777216
100
AcDbLine
 10
2803.4269590534677
 20
2072.3959059247572
 30
0.0
 11
2803.4269590534677
 21
2150.3277414058975
 31
0.0
  0
LINE
  5
293
330
28F
100
AcDbEntity
  8
0
 62
5
370
9
 48
3.0
440
16777216
100
AcDbLine
 10
3153.4269590534677
 20
2036.3959059247572
 30
0.0
 11
3153.4269590534677
 21
2150.3277414058975
 31
0.0
  0
LINE
  5
294
330
28F
100
AcDbEntity
  8
0
 62
5
370
9
 48
3.0
440
16777216
100
AcDbLine
 10
2808.4269590534677
 20
2145.3277414058975
 30
0.0
 11
3148.426959053584
 21
2145.3277414058975
 31
0.0
  0
LINE
  5
295
330
28F
100
AcDbEntity
  8
0
  6
ByBlock
 62
0
370
-2
100
AcDbLine
 10
2808.4269590534677
 20
2143.9879954559
 30
0.0
 11
2803.4269590534677
 21
2145.3277414058975
 31
0.0
  0
LINE
  5
296
330
28F
100
AcDbEntity
  8
0
  6
ByBlock
 62
0
370
-2
100
AcDbLine
 10
2803.4269590534677
 20
2145.3277414058975
 30
0.0
 11
2808.4269590534677
 21
2146.667487355895
 31
0.0
  0
LINE
  5
297
330
28F
100
AcDbEntity
  8
0
  6
ByBlock
 62
0
370
-2
100
AcDbLine
 10
2803.4269590534677
 20
2145.3277414058975
 30
0.0
 11
2808.4269590534677
 21
2145.3277414058975
 31
0.0
  0
LINE
  5
298
330
28F
100
AcDbEntity
  8
0
  6
ByBlock
 62
0
370
-2
100
AcDbLine
 10
3148.4269590534677
 20
2146.667487355895
 30
0.0
 11
3153.4269590534677
 21
2145.3277414058975
 31
0.0
  0
LINE
  5
299
330
28F
100
AcDbEntity
  8
0
  6
ByBlock
 62
0
370
-2
100
AcDbLine
 10
3153.4269590534677
 20
2145.3277414058975
 30
0.0
 11
3148.4269590534677
 21
2143.9879954559
 31
0.0
  0
LINE
  5
29A
330
28F
100
AcDbEntity
  8
0
  6
ByBlock
 62
0
370
-2
100
AcDbLine
 10
3153.4269590534677
 20
2145.3277414058975
 30
0.0
 11
3148.4269590534677
 21
2145.3277414058975
 31
0.0
  0
MTEXT
  5
29B
330
28F
100
AcDbEntity
  8
0
 62
3
 48
3.0
440
16777216
100
AcDbMText
 10
2978.426959053584
 20
2180.873443997989
 30
0.0
 40
50.0
 41
0.0
 46
0.0
 71
5
  1
350
  0
POINT
  5
29C
330
28F
100
AcDbEntity
  8
Defpoints
 62
0
 48
3.0
440
16777216
100
AcDbPoint
 10
2803.4269590534677
 20
2057.3959059247572
 30
0.0
  0
POINT
  5
29D
330
28F
100
AcDbEntity
  8
Defpoints
 62
0
 48
3.0
440
16777216
100
AcDbPoint
 10
3153.4269590534677
 20
2021.3959059247572
 30
0.0
  0
POINT
  5
29E
330
28F
100
AcDbEntity
  8
Defpoints
 62
0
 48
3.0
440
16777216
100
AcDbPoint
 10
3153.4269590534677
 20
2145.3277414058975
 30
0.0
  0
ENDBLK
  5
291
330
28F
100
AcDbEntity
  8
0
100
AcDbBlockEnd
  0
BLOCK
  5
2A0
330
29F
100
AcDbEntity
  8
0
100
AcDbBlockBegin
  2
*D10
 70
1
 10
0.0
 20
0.0
 30
0.0
  3
*D10
  1

  0
LINE
  5
2A2
330
29F
100
AcDbEntity
  8
0
 62
5
370
9
 48
3.0
440
16777216
100
AcDbLine
 10
1830.48350411086
 20
1157.3959059247572
 30
0.0
 11
1903.129430779576
 21
1157.3959059247572
 31
0.0
  0
LINE
  5
2A3
330
29F
100
AcDbEntity
  8
0
 62
5
370
9
 48
3.0
440
16777216
100
AcDbLine
 10
1795.98350411086
 20
1207.3959059247572
 30
0.0
 11
1903.129430779576
 21
1207.3959059247572
 31
0.0
  0
LINE
  5
2A4
330
29F
100
AcDbEntity
  8
0
 62
5
370
9
 48
3.0
440
16777216
100
AcDbLine
 10
1898.129430779576
 20
1162.3959059247572
 30
0.0
 11
1898.129430779576
 21
1202.3959059247572
 31
0.0
  0
LINE
  5
2A5
330
29F
100
AcDbEntity
  8
0
  6
ByBlock
 62
0
370
-2
100
AcDbLine
 10
1899.469176729588
 20
1162.3959059247572
 30
0.0
 11
1898.129430779576
 21
1157.3959059247572
 31
0.0
  0
LINE
  5
2A6
330
29F
100
AcDbEntity
  8
0
  6
ByBlock
 62
0
370
-2
100
AcDbLine
 10
1898.129430779576
 20
1157.3959059247572
 30
0.0
 11
1896.789684829564
 21
1162.3959059247572
 31
0.0
  0
LINE
  5
2A7
330
29F
100
AcDbEntity
  8
0
  6
ByBlock
 62
0
370
-2
100
AcDbLine
 10
1898.129430779576
 20
1157.3959059247572
 30
0.0
 11
1898.129430779576
 21
1162.3959059247572
 31
0.0
  0
LINE
  5
2A8
330
29F
100
AcDbEntity
  8
0
  6
ByBlock
 62
0
370
-2
100
AcDbLine
 10
1896.789684829564
 20
1202.3959059247572
 30
0.0
 11
1898.129430779576
 21
1207.3959059247572
 31
0.0
  0
LINE
  5
2A9
330
29F
100
AcDbEntity
  8
0
  6
ByBlock
 62
0
370
-2
100
AcDbLine
 10
1898.129430779576
 20
1207.3959059247572
 30
0.0
 11
1899.469176729588
 21
1202.3959059247572
 31
0.0
  0
LINE
  5
2AA
330
29F
100
AcDbEntity
  8
0
  6
ByBlock
 62
0
370
-2
100
AcDbLine
 10
1898.129430779576
 20
1207.3959059247572
 30
0.0
 11
1898.129430779576
 21
1202.3959059247572
 31
0.0
  0
MTEXT
  5
2AB
330
29F
100
AcDbEntity
  8
0
 62
3
 48
3.0
440
16777216
100
AcDbMText
 10
1862.6007813935576
 20
1182.3959059247863
 30
0.0
 40
50.0
 41
0.0
 46
0.0
 71
5
  1
50
 11
1e-16
 21
1.0
 31
0.0
  0
POINT
  5
2AC
330
29F
100
AcDbEntity
  8
Defpoints
 62
0
 48
3.0
440
16777216
100
AcDbPoint
 10
1815.48350411086
 20
1157.3959059247572
 30
0.0
  0
POINT
  5
2AD
330
29F
100
AcDbEntity
  8
Defpoints
 62
0
 48
3.0
440
16777216
100
AcDbPoint
 10
1780.98350411086
 20
1207.3959059247572
 30
0.0
  0
POINT
  5
2AE
330
29F
100
AcDbEntity
  8
Defpoints
 62
0
 48
3.0
440
16777216
100
AcDbPoint
 10
1898.129430779576
 20
1207.3959059247572
 30
0.0
  0
ENDBLK
  5
2A1
330
29F
100
AcDbEntity
  8
0
100
AcDbBlockEnd
  0
BLOCK
  5
2B0
330
2AF
100
AcDbEntity
  8
0
100
AcDbBlockBegin
  2
*D11
 70
1
 10
0.0
 20
0.0
 30
0.0
  3
*D11
  1

  0
LINE
  5
2B2
330
2AF
100
AcDbEntity
  8
0
 62
5
370
9
 48
3.0
440
16777216
100
AcDbLine
 10
1795.98350411086
 20
1207.3959059247572
 30
0.0
 11
1903.129430779576
 21
1207.3959059247572
 31
0.0
  0
LINE
  5
2B3
330
2AF
100
AcDbEntity
  8
0
 62
5
370
9
 48
3.0
440
16777216
100
AcDbLine
 10
1795.98350411086
 20
1957.3959059247572
 30
0.0
 11
1903.129430779576
 21
1957.3959059247572
 31
0.0
  0
LINE
  5
2B4
330
2AF
100
AcDbEntity
  8
0
 62
5
370
9
 48
3.0
440
16777216
100
AcDbLine
 10
1898.129430779576
 20
1212.3959059247572
 30
0.0
 11
1898.129430779576
 21
1952.3959059247572
 31
0.0
  0
LINE
  5
2B5
330
2AF
100
AcDbEntity
  8
0
  6
ByBlock
 62
0
370
-2
100
AcDbLine
 10
1899.469176729588
 20
1212.3959059247572
 30
0.0
 11
1898.129430779576
 21
1207.3959059247572
 31
0.0
  0
LINE
  5
2B6
330
2AF
100
AcDbEntity
  8
0
  6
ByBlock
 62
0
370
-2
100
AcDbLine
 10
1898.129430779576
 20
1207.3959059247572
 30
0.0
 11
1896.789684829564
 21
1212.3959059247572
 31
0.0
  0
LINE
  5
2B7
330
2AF
100
AcDbEntity
  8
0
  6
ByBlock
 62
0
370
-2
100
AcDbLine
 10
1898.129430779576
 20
1207.3959059247572
 30
0.0
 11
1898.129430779576
 21
1212.3959059247572
 31
0.0
  0
LINE
  5
2B8
330
2AF
100
AcDbEntity
  8
0
  6
ByBlock
 62
0
370
-2
100
AcDbLine
 10
1896.789684829564
 20
1952.3959059247572
 30
0.0
 11
1898.129430779576
 21
1957.3959059247572
 31
0.0
  0
LINE
  5
2B9
330
2AF
100
AcDbEntity
  8
0
  6
ByBlock
 62
0
370
-2
100
AcDbLine
 10
1898.129430779576
 20
1957.3959059247572
 30
0.0
 11
1899.469176729588
 21
1952.3959059247572
 31
0.0
  0
LINE
  5
2BA
330
2AF
100
AcDbEntity
  8
0
  6
ByBlock
 62
0
370
-2
100
AcDbLine
 10
1898.129430779576
 20
1957.3959059247572
 30
0.0
 11
1898.129430779576
 21
1952.3959059247572
 31
0.0
  0
MTEXT
  5
2BB
330
2AF
100
AcDbEntity
  8
0
 62
3
 48
3.0
440
16777216
100
AcDbMText
 10
1862.6007813935576
 20
1582.3959059247863
 30
0.0
 40
50.0
 41
0.0
 46
0.0
 71
5
  1
750
 11
1e-16
 21
1.0
 31
0.0
  0
POINT
  5
2BC
330
2AF
100
AcDbEntity
  8
Defpoints
 62
0
 48
3.0
440
16777216
100
AcDbPoint
 10
1780.98350411086
 20
1207.3959059247572
 30
0.0
  0
POINT
  5
2BD
330
2AF
100
AcDbEntity
  8
Defpoints
 62
0
 48
3.0
440
16777216
100
AcDbPoint
 10
1780.98350411086
 20
1957.3959059247572
 30
0.0
  0
POINT
  5
2BE
330
2AF
100
AcDbEntity
  8
Defpoints
 62
0
 48
3.0
440
16777216
100
AcDbPoint
 10
1898.129430779576
 20
1957.3959059247572
 30
0.0
  0
ENDBLK
  5
2B1
330
2AF
100
AcDbEntity
  8
0
100
AcDbBlockEnd
  0
BLOCK
  5
2C0
330
2BF
100
AcDbEntity
  8
0
100
AcDbBlockBegin
  2
*D12
 70
1
 10
0.0
 20
0.0
 30
0.0
  3
*D12
  1

  0
LINE
  5
2C2
330
2BF
100
AcDbEntity
  8
0
 62
5
370
9
 48
3.0
440
16777216
100
AcDbLine
 10
1795.98350411086
 20
1957.3959059247572
 30
0.0
 11
1903.129430779576
 21
1957.3959059247572
 31
0.0
  0
LINE
  5
2C3
330
2BF
100
AcDbEntity
  8
0
 62
5
370
9
 48
3.0
440
16777216
100
AcDbLine
 10
1830.48350411086
 20
2057.3959059247572
 30
0.0
 11
1903.129430779576
 21
2057.3959059247572
 31
0.0
  0
LINE
  5
2C4
330
2BF
100
AcDbEntity
  8
0
 62
5
370
9
 48
3.0
440
16777216
100
AcDbLine
 10
1898.129430779576
 20
1962.3959059247572
 30
0.0
 11
1898.129430779576
 21
2052.3959059247572
 31
0.0
  0
LINE
  5
2C5
330
2BF
100
AcDbEntity
  8
0
 62
5
370
9
 48
3.0
440
16777216
100
AcDbLine
 10
1898.129430779576
 20
2057.3959059247572
 30
0.0
 11
1898.129430779576
 21
2187.9893574936577
 31
0.0
  0
LINE
  5
2C6
330
2BF
100
AcDbEntity
  8
0
  6
ByBlock
 62
0
370
-2
100
AcDbLine
 10
1899.469176729588
 20
1962.3959059247572
 30
0.0
 11
1898.129430779576
 21
1957.3959059247572
 31
0.0
  0
LINE
  5
2C7
330
2BF
100
AcDbEntity
  8
0
  6
ByBlock
 62
0
370
-2
100
AcDbLine
 10
1898.129430779576
 20
1957.3959059247572
 30
0.0
 11
1896.789684829564
 21
1962.3959059247572
 31
0.0
  0
LINE
  5
2C8
330
2BF
100
AcDbEntity
  8
0
  6
ByBlock
 62
0
370
-2
100
AcDbLine
 10
1898.129430779576
 20
1957.3959059247572
 30
0.0
 11
1898.129430779576
 21
1962.3959059247572
 31
0.0
  0
LINE
  5
2C9
330
2BF
100
AcDbEntity
  8
0
  6
ByBlock
 62
0
370
-2
100
AcDbLine
 10
1896.789684829564
 20
2052.3959059247572
 30
0.0
 11
1898.129430779576
 21
2057.3959059247572
 31
0.0
  0
LINE
  5
2CA
330
2BF
100
AcDbEntity
  8
0
  6
ByBlock
 62
0
370
-2
100
AcDbLine
 10
1898.129430779576
 20
2057.3959059247572
 30
0.0
 11
1899.469176729588
 21
2052.3959059247572
 31
0.0
  0
LINE
  5
2CB
330
2BF
100
AcDbEntity
  8
0
  6
ByBlock
 62
0
370
-2
100
AcDbLine
 10
1898.129430779576
 20
2057.3959059247572
 30
0.0
 11
1898.129430779576
 21
2052.3959059247572
 31
0.0
  0
MTEXT
  5
2CC
330
2BF
100
AcDbEntity
  8
0
 62
3
 48
3.0
440
16777216
100
AcDbMText
 10
1862.6007813935576
 20
2125.1926317092293
 30
0.0
 40
50.0
 41
0.0
 46
0.0
 71
5
  1
100
 11
1e-16
 21
1.0
 31
0.0
  0
POINT
  5
2CD
330
2BF
100
AcDbEntity
  8
Defpoints
 62
0
 48
3.0
440
16777216
100
AcDbPoint
 10
1780.98350411086
 20
1957.3959059247572
 30
0.0
  0
POINT
  5
2CE
330
2BF
100
AcDbEntity
  8
Defpoints
 62
0
 48
3.0
440
16777216
100
AcDbPoint
 10
1815.48350411086
 20
2057.3959059247572
 30
0.0
  0
POINT
  5
2CF
330
2BF
100
AcDbEntity
  8
Defpoints
 62
0
 48
3.0
440
16777216
100
AcDbPoint
 10
1898.129430779576
 20
2057.3959059247572
 30
0.0
  0
ENDBLK
  5
2C1
330
2BF
100
AcDbEntity
  8
0
100
AcDbBlockEnd
  0
BLOCK
  5
2D1
330
2D0
100
AcDbEntity
  8
0
100
AcDbBlockBegin
  2
*D13
 70
1
 10
0.0
 20
0.0
 30
0.0
  3
*D13
  1

  0
LINE
  5
2D3
330
2D0
100
AcDbEntity
  8
DIM
 62
5
370
9
440
16777216
100
AcDbLine
 10
1100.48350411086
 20
782.6907656269905
 30
0.0
 11
1061.2027957102691
 21
782.6907656269905
 31
0.0
  0
LINE
  5
2D4
330
2D0
100
AcDbEntity
  8
DIM
 62
5
370
9
440
16777216
100
AcDbLine
 10
1101.4835041099577
 20
432.69076562699047
 30
0.0
 11
1061.2027957102691
 21
432.69076562699047
 31
0.0
  0
LINE
  5
2D5
330
2D0
100
AcDbEntity
  8
DIM
 62
5
370
9
440
16777216
100
AcDbLine
 10
1066.2027957101818
 20
777.6907656269905
 30
0.0
 11
1066.2027957101818
 21
437.69076562699047
 31
0.0
  0
LINE
  5
2D6
330
2D0
100
AcDbEntity
  8
0
  6
ByBlock
 62
0
370
-2
100
AcDbLine
 10
1064.8630497601698
 20
777.6907656269905
 30
0.0
 11
1066.2027957101818
 21
782.6907656269905
 31
0.0
  0
LINE
  5
2D7
330
2D0
100
AcDbEntity
  8
0
  6
ByBlock
 62
0
370
-2
100
AcDbLine
 10
1066.2027957101818
 20
782.6907656269905
 30
0.0
 11
1067.5425416601938
 21
777.6907656269905
 31
0.0
  0
LINE
  5
2D8
330
2D0
100
AcDbEntity
  8
0
  6
ByBlock
 62
0
370
-2
100
AcDbLine
 10
1066.2027957101818
 20
782.6907656269905
 30
0.0
 11
1066.2027957101818
 21
777.6907656269905
 31
0.0
  0
LINE
  5
2D9
330
2D0
100
AcDbEntity
  8
0
  6
ByBlock
 62
0
370
-2
100
AcDbLine
 10
1067.5425416601938
 20
437.69076562699047
 30
0.0
 11
1066.2027957101818
 21
432.69076562699047
 31
0.0
  0
LINE
  5
2DA
330
2D0
100
AcDbEntity
  8
0
  6
ByBlock
 62
0
370
-2
100
AcDbLine
 10
1066.2027957101818
 20
432.69076562699047
 30
0.0
 11
1064.8630497601698
 21
437.69076562699047
 31
0.0
  0
LINE
  5
2DB
330
2D0
100
AcDbEntity
  8
0
  6
ByBlock
 62
0
370
-2
100
AcDbLine
 10
1066.2027957101818
 20
432.69076562699047
 30
0.0
 11
1066.2027957101818
 21
437.69076562699047
 31
0.0
  0
MTEXT
  5
2DC
330
2D0
100
AcDbEntity
  8
DIM
 62
3
440
16777216
100
AcDbMText
 10
1030.6570931181777
 20
607.6907656270196
 30
0.0
 40
50.0
 41
0.0
 46
0.0
 71
5
  1
350
 11
1e-16
 21
1.0
 31
0.0
  0
POINT
  5
2DD
330
2D0
100
AcDbEntity
  8
Defpoints
 62
0
440
16777216
100
AcDbPoint
 10
1115.48350411086
 20
782.6907656269905
 30
0.0
  0
POINT
  5
2DE
330
2D0
100
AcDbEntity
  8
Defpoints
 62
0
440
16777216
100
AcDbPoint
 10
1116.4835041098704
 20
432.69076562699047
 30
0.0
  0
POINT
  5
2DF
330
2D0
100
AcDbEntity
  8
Defpoints
 62
0
440
16777216
100
AcDbPoint
 10
1066.2027957101818
 20
432.69076562699047
 30
0.0
  0
ENDBLK
  5
2D2
330
2D0
100
AcDbEntity
  8
0
100
AcDbBlockEnd
  0
BLOCK
  5
2E1
330
2E0
100
AcDbEntity
  8
0
100
AcDbBlockBegin
  2
*D14
 70
1
 10
0.0
 20
0.0
 30
0.0
  3
*D14
  1

  0
LINE
  5
2E3
330
2E0
100
AcDbEntity
  8
DIM
 62
5
370
9
440
16777216
100
AcDbLine
 10
1115.48350411086
 20
797.6907656269905
 30
0.0
 11
1115.48350411086
 21
815.6028242580069
 31
0.0
  0
LINE
  5
2E4
330
2E0
100
AcDbEntity
  8
DIM
 62
5
370
9
440
16777216
100
AcDbLine
 10
1815.48350411086
 20
797.6907656269905
 30
0.0
 11
1815.48350411086
 21
815.6028242580069
 31
0.0
  0
LINE
  5
2E5
330
2E0
100
AcDbEntity
  8
DIM
 62
5
370
9
440
16777216
100
AcDbLine
 10
1120.48350411086
 20
810.6028242580069
 30
0.0
 11
1810.48350411086
 21
810.6028242580069
 31
0.0
  0
LINE
  5
2E6
330
2E0
100
AcDbEntity
  8
0
  6
ByBlock
 62
0
370
-2
100
AcDbLine
 10
1120.48350411086
 20
809.2630783080094
 30
0.0
 11
1115.48350411086
 21
810.6028242580069
 31
0.0
  0
LINE
  5
2E7
330
2E0
100
AcDbEntity
  8
0
  6
ByBlock
 62
0
370
-2
100
AcDbLine
 10
1115.48350411086
 20
810.6028242580069
 30
0.0
 11
1120.48350411086
 21
811.9425702080043
 31
0.0
  0
LINE
  5
2E8
330
2E0
100
AcDbEntity
  8
0
  6
ByBlock
 62
0
370
-2
100
AcDbLine
 10
1115.48350411086
 20
810.6028242580069
 30
0.0
 11
1120.48350411086
 21
810.6028242580069
 31
0.0
  0
LINE
  5
2E9
330
2E0
100
AcDbEntity
  8
0
  6
ByBlock
 62
0
370
-2
100
AcDbLine
 10
1810.48350411086
 20
811.9425702080043
 30
0.0
 11
1815.48350411086
 21
810.6028242580069
 31
0.0
  0
LINE
  5
2EA
330
2E0
100
AcDbEntity
  8
0
  6
ByBlock
 62
0
370
-2
100
AcDbLine
 10
1815.48350411086
 20
810.6028242580069
 30
0.0
 11
1810.48350411086
 21
809.2630783080094
 31
0.0
  0
LINE
  5
2EB
330
2E0
100
AcDbEntity
  8
0
  6
ByBlock
 62
0
370
-2
100
AcDbLine
 10
1815.48350411086
 20
810.6028242580069
 30
0.0
 11
1810.48350411086
 21
810.6028242580069
 31
0.0
  0
MTEXT
  5
2EC
330
2E0
100
AcDbEntity
  8
DIM
 62
3
440
16777216
100
AcDbMText
 10
1465.48350411086
 20
846.1314736440982
 30
0.0
 40
50.0
 41
0.0
 46
0.0
 71
5
  1
700
  0
POINT
  5
2ED
330
2E0
100
AcDbEntity
  8
Defpoints
 62
0
440
16777216
100
AcDbPoint
 10
1115.48350411086
 20
782.6907656269905
 30
0.0
  0
POINT
  5
2EE
330
2E0
100
AcDbEntity
  8
Defpoints
 62
0
440
16777216
100
AcDbPoint
 10
1815.48350411086
 20
782.6907656269905
 30
0.0
  0
POINT
  5
2EF
330
2E0
100
AcDbEntity
  8
Defpoints
 62
0
440
16777216
100
AcDbPoint
 10
1815.48350411086
 20
810.6028242580069
 30
0.0
  0
ENDBLK
  5
2E2
330
2E0
100
AcDbEntity
  8
0
100
AcDbBlockEnd
  0
BLOCK
  5
2F1
330
2F0
100
AcDbEntity
  8
0
100
AcDbBlockBegin
  2
*D15
 70
1
 10
0.0
 20
0.0
 30
0.0
  3
*D15
  1

  0
LINE
  5
2F3
330
2F0
100
AcDbEntity
  8
DIM
 62
5
370
9
440
16777216
100
AcDbLine
 10
1969.1220988683635
 20
2072.3959059247572
 30
0.0
 11
1969.1220988683635
 21
2153.3794535629277
 31
0.0
  0
LINE
  5
2F4
330
2F0
100
AcDbEntity
  8
DIM
 62
5
370
9
440
16777216
100
AcDbLine
 10
2669.1220988683635
 20
2072.3959059247572
 30
0.0
 11
2669.1220988683635
 21
2153.3794535629277
 31
0.0
  0
LINE
  5
2F5
330
2F0
100
AcDbEntity
  8
DIM
 62
5
370
9
440
16777216
100
AcDbLine
 10
1974.1220988683635
 20
2148.3794535629277
 30
0.0
 11
2664.1220988683635
 21
2148.3794535629277
 31
0.0
  0
LINE
  5
2F6
330
2F0
100
AcDbEntity
  8
0
  6
ByBlock
 62
0
370
-2
100
AcDbLine
 10
1974.1220988683635
 20
2147.03970761293
 30
0.0
 11
1969.1220988683635
 21
2148.3794535629277
 31
0.0
  0
LINE
  5
2F7
330
2F0
100
AcDbEntity
  8
0
  6
ByBlock
 62
0
370
-2
100
AcDbLine
 10
1969.1220988683635
 20
2148.3794535629277
 30
0.0
 11
1974.1220988683635
 21
2149.719199512925
 31
0.0
  0
LINE
  5
2F8
330
2F0
100
AcDbEntity
  8
0
  6
ByBlock
 62
0
370
-2
100
AcDbLine
 10
1969.1220988683635
 20
2148.3794535629277
 30
0.0
 11
1974.1220988683635
 21
2148.3794535629277
 31
0.0
  0
LINE
  5
2F9
330
2F0
100
AcDbEntity
  8
0
  6
ByBlock
 62
0
370
-2
100
AcDbLine
 10
2664.1220988683635
 20
2149.719199512925
 30
0.0
 11
2669.1220988683635
 21
2148.3794535629277
 31
0.0
  0
LINE
  5
2FA
330
2F0
100
AcDbEntity
  8
0
  6
ByBlock
 62
0
370
-2
100
AcDbLine
 10
2669.1220988683635
 20
2148.3794535629277
 30
0.0
 11
2664.1220988683635
 21
2147.03970761293
 31
0.0
  0
LINE
  5
2FB
330
2F0
100
AcDbEntity
  8
0
  6
ByBlock
 62
0
370
-2
100
AcDbLine
 10
2669.1220988683635
 20
2148.3794535629277
 30
0.0
 11
2664.1220988683635
 21
2148.3794535629277
 31
0.0
  0
MTEXT
  5
2FC
330
2F0
100
AcDbEntity
  8
DIM
 62
3
440
16777216
100
AcDbMText
 10
2319.1220988683635
 20
2183.908102949019
 30
0.0
 40
50.0
 41
0.0
 46
0.0
 71
5
  1
700
  0
POINT
  5
2FD
330
2F0
100
AcDbEntity
  8
Defpoints
 62
0
440
16777216
100
AcDbPoint
 10
1969.1220988683635
 20
2057.3959059247572
 30
0.0
  0
POINT
  5
2FE
330
2F0
100
AcDbEntity
  8
Defpoints
 62
0
440
16777216
100
AcDbPoint
 10
2669.1220988683635
 20
2057.3959059247572
 30
0.0
  0
POINT
  5
2FF
330
2F0
100
AcDbEntity
  8
Defpoints
 62
0
440
16777216
100
AcDbPoint
 10
2669.1220988683635
 20
2148.3794535629277
 30
0.0
  0
ENDBLK
  5
2F2
330
2F0
100
AcDbEntity
  8
0
100
AcDbBlockEnd
  0
BLOCK
  5
301
330
300
100
AcDbEntity
  8
0
100
AcDbBlockBegin
  2
*D16
 70
1
 10
0.0
 20
0.0
 30
0.0
  3
*D16
  1

  0
LINE
  5
303
330
300
100
AcDbEntity
  8
0
 62
5
370
9
 48
3.0
440
16777216
100
AcDbLine
 10
2684.1220988683635
 20
1157.3959059247572
 30
0.0
 11
2756.768025537167
 21
1157.3959059247572
 31
0.0
  0
LINE
  5
304
330
300
100
AcDbEntity
  8
0
 62
5
370
9
 48
3.0
440
16777216
100
AcDbLine
 10
2649.6220988683635
 20
1207.3959059247572
 30
0.0
 11
2756.768025537167
 21
1207.3959059247572
 31
0.0
  0
LINE
  5
305
330
300
100
AcDbEntity
  8
0
 62
5
370
9
 48
3.0
440
16777216
100
AcDbLine
 10
2751.768025537167
 20
1162.3959059247572
 30
0.0
 11
2751.768025537167
 21
1202.3959059247572
 31
0.0
  0
LINE
  5
306
330
300
100
AcDbEntity
  8
0
  6
ByBlock
 62
0
370
-2
100
AcDbLine
 10
2753.107771487179
 20
1162.3959059247572
 30
0.0
 11
2751.768025537167
 21
1157.3959059247572
 31
0.0
  0
LINE
  5
307
330
300
100
AcDbEntity
  8
0
  6
ByBlock
 62
0
370
-2
100
AcDbLine
 10
2751.768025537167
 20
1157.3959059247572
 30
0.0
 11
2750.428279587155
 21
1162.3959059247572
 31
0.0
  0
LINE
  5
308
330
300
100
AcDbEntity
  8
0
  6
ByBlock
 62
0
370
-2
100
AcDbLine
 10
2751.768025537167
 20
1157.3959059247572
 30
0.0
 11
2751.768025537167
 21
1162.3959059247572
 31
0.0
  0
LINE
  5
309
330
300
100
AcDbEntity
  8
0
  6
ByBlock
 62
0
370
-2
100
AcDbLine
 10
2750.428279587155
 20
1202.3959059247572
 30
0.0
 11
2751.768025537167
 21
1207.3959059247572
 31
0.0
  0
LINE
  5
30A
330
300
100
AcDbEntity
  8
0
  6
ByBlock
 62
0
370
-2
100
AcDbLine
 10
2751.768025537167
 20
1207.3959059247572
 30
0.0
 11
2753.107771487179
 21
1202.3959059247572
 31
0.0
  0
LINE
  5
30B
330
300
100
AcDbEntity
  8
0
  6
ByBlock
 62
0
370
-2
100
AcDbLine
 10
2751.768025537167
 20
1207.3959059247572
 30
0.0
 11
2751.768025537167
 21
1202.3959059247572
 31
0.0
  0
MTEXT
  5
30C
330
300
100
AcDbEntity
  8
0
 62
3
 48
3.0
440
16777216
100
AcDbMText
 10
2716.239376151061
 20
1182.3959059247863
 30
0.0
 40
50.0
 41
0.0
 46
0.0
 71
5
  1
50
 11
1e-16
 21
1.0
 31
0.0
  0
POINT
  5
30D
330
300
100
AcDbEntity
  8
Defpoints
 62
0
 48
3.0
440
16777216
100
AcDbPoint
 10
2669.1220988683635
 20
1157.3959059247572
 30
0.0
  0
POINT
  5
30E
330
300
100
AcDbEntity
  8
Defpoints
 62
0
 48
3.0
440
16777216
100
AcDbPoint
 10
2634.6220988683635
 20
1207.3959059247572
 30
0.0
  0
POINT
  5
30F
330
300
100
AcDbEntity
  8
Defpoints
 62
0
 48
3.0
440
16777216
100
AcDbPoint
 10
2751.768025537167
 20
1207.3959059247572
 30
0.0
  0
ENDBLK
  5
302
330
300
100
AcDbEntity
  8
0
100
AcDbBlockEnd
  0
BLOCK
  5
311
330
310
100
AcDbEntity
  8
0
100
AcDbBlockBegin
  2
*D17
 70
1
 10
0.0
 20
0.0
 30
0.0
  3
*D17
  1

  0
LINE
  5
313
330
310
100
AcDbEntity
  8
0
 62
5
370
9
 48
3.0
440
16777216
100
AcDbLine
 10
2649.6220988683635
 20
1207.3959059247572
 30
0.0
 11
2756.768025537167
 21
1207.3959059247572
 31
0.0
  0
LINE
  5
314
330
310
100
AcDbEntity
  8
0
 62
5
370
9
 48
3.0
440
16777216
100
AcDbLine
 10
2649.6220988683635
 20
1957.3959059247572
 30
0.0
 11
2756.768025537167
 21
1957.3959059247572
 31
0.0
  0
LINE
  5
315
330
310
100
AcDbEntity
  8
0
 62
5
370
9
 48
3.0
440
16777216
100
AcDbLine
 10
2751.768025537167
 20
1212.3959059247572
 30
0.0
 11
2751.768025537167
 21
1952.3959059247572
 31
0.0
  0
LINE
  5
316
330
310
100
AcDbEntity
  8
0
  6
ByBlock
 62
0
370
-2
100
AcDbLine
 10
2753.107771487179
 20
1212.3959059247572
 30
0.0
 11
2751.768025537167
 21
1207.3959059247572
 31
0.0
  0
LINE
  5
317
330
310
100
AcDbEntity
  8
0
  6
ByBlock
 62
0
370
-2
100
AcDbLine
 10
2751.768025537167
 20
1207.3959059247572
 30
0.0
 11
2750.428279587155
 21
1212.3959059247572
 31
0.0
  0
LINE
  5
318
330
310
100
AcDbEntity
  8
0
  6
ByBlock
 62
0
370
-2
100
AcDbLine
 10
2751.768025537167
 20
1207.3959059247572
 30
0.0
 11
2751.768025537167
 21
1212.3959059247572
 31
0.0
  0
LINE
  5
319
330
310
100
AcDbEntity
  8
0
  6
ByBlock
 62
0
370
-2
100
AcDbLine
 10
2750.428279587155
 20
1952.3959059247572
 30
0.0
 11
2751.768025537167
 21
1957.3959059247572
 31
0.0
  0
LINE
  5
31A
330
310
100
AcDbEntity
  8
0
  6
ByBlock
 62
0
370
-2
100
AcDbLine
 10
2751.768025537167
 20
1957.3959059247572
 30
0.0
 11
2753.107771487179
 21
1952.3959059247572
 31
0.0
  0
LINE
  5
31B
330
310
100
AcDbEntity
  8
0
  6
ByBlock
 62
0
370
-2
100
AcDbLine
 10
2751.768025537167
 20
1957.3959059247572
 30
0.0
 11
2751.768025537167
 21
1952.3959059247572
 31
0.0
  0
MTEXT
  5
31C
330
310
100
AcDbEntity
  8
0
 62
3
 48
3.0
440
16777216
100
AcDbMText
 10
2716.239376151061
 20
1582.3959059247863
 30
0.0
 40
50.0
 41
0.0
 46
0.0
 71
5
  1
750
 11
1e-16
 21
1.0
 31
0.0
  0
POINT
  5
31D
330
310
100
AcDbEntity
  8
Defpoints
 62
0
 48
3.0
440
16777216
100
AcDbPoint
 10
2634.6220988683635
 20
1207.3959059247572
 30
0.0
  0
POINT
  5
31E
330
310
100
AcDbEntity
  8
Defpoints
 62
0
 48
3.0
440
16777216
100
AcDbPoint
 10
2634.6220988683635
 20
1957.3959059247572
 30
0.0
  0
POINT
  5
31F
330
310
100
AcDbEntity
  8
Defpoints
 62
0
 48
3.0
440
16777216
100
AcDbPoint
 10
2751.768025537167
 20
1957.3959059247572
 30
0.0
  0
ENDBLK
  5
312
330
310
100
AcDbEntity
  8
0
100
AcDbBlockEnd
  0
BLOCK
  5
321
330
320
100
AcDbEntity
  8
0
100
AcDbBlockBegin
  2
*D18
 70
1
 10
0.0
 20
0.0
 30
0.0
  3
*D18
  1

  0
LINE
  5
323
330
320
100
AcDbEntity
  8
0
 62
5
370
9
 48
3.0
440
16777216
100
AcDbLine
 10
2649.6220988683635
 20
1957.3959059247572
 30
0.0
 11
2756.768025537167
 21
1957.3959059247572
 31
0.0
  0
LINE
  5
324
330
320
100
AcDbEntity
  8
0
 62
5
370
9
 48
3.0
440
16777216
100
AcDbLine
 10
2684.1220988683635
 20
2057.3959059247572
 30
0.0
 11
2756.768025537167
 21
2057.3959059247572
 31
0.0
  0
LINE
  5
325
330
320
100
AcDbEntity
  8
0
 62
5
370
9
 48
3.0
440
16777216
100
AcDbLine
 10
2751.768025537167
 20
1962.3959059247572
 30
0.0
 11
2751.768025537167
 21
2052.3959059247572
 31
0.0
  0
LINE
  5
326
330
320
100
AcDbEntity
  8
0
 62
5
370
9
 48
3.0
440
16777216
100
AcDbLine
 10
2751.768025537167
 20
2057.3959059247572
 30
0.0
 11
2751.768025537167
 21
2187.9893574936577
 31
0.0
  0
LINE
  5
327
330
320
100
AcDbEntity
  8
0
  6
ByBlock
 62
0
370
-2
100
AcDbLine
 10
2753.107771487179
 20
1962.3959059247572
 30
0.0
 11
2751.768025537167
 21
1957.3959059247572
 31
0.0
  0
LINE
  5
328
330
320
100
AcDbEntity
  8
0
  6
ByBlock
 62
0
370
-2
100
AcDbLine
 10
2751.768025537167
 20
1957.3959059247572
 30
0.0
 11
2750.428279587155
 21
1962.3959059247572
 31
0.0
  0
LINE
  5
329
330
320
100
AcDbEntity
  8
0
  6
ByBlock
 62
0
370
-2
100
AcDbLine
 10
2751.768025537167
 20
1957.3959059247572
 30
0.0
 11
2751.768025537167
 21
1962.3959059247572
 31
0.0
  0
LINE
  5
32A
330
320
100
AcDbEntity
  8
0
  6
ByBlock
 62
0
370
-2
100
AcDbLine
 10
2750.428279587155
 20
2052.3959059247572
 30
0.0
 11
2751.768025537167
 21
2057.3959059247572
 31
0.0
  0
LINE
  5
32B
330
320
100
AcDbEntity
  8
0
  6
ByBlock
 62
0
370
-2
100
AcDbLine
 10
2751.768025537167
 20
2057.3959059247572
 30
0.0
 11
2753.107771487179
 21
2052.3959059247572
 31
0.0
  0
LINE
  5
32C
330
320
100
AcDbEntity
  8
0
  6
ByBlock
 62
0
370
-2
100
AcDbLine
 10
2751.768025537167
 20
2057.3959059247572
 30
0.0
 11
2751.768025537167
 21
2052.3959059247572
 31
0.0
  0
MTEXT
  5
32D
330
320
100
AcDbEntity
  8
0
 62
3
 48
3.0
440
16777216
100
AcDbMText
 10
2716.239376151061
 20
2125.1926317092293
 30
0.0
 40
50.0
 41
0.0
 46
0.0
 71
5
  1
100
 11
1e-16
 21
1.0
 31
0.0
  0
POINT
  5
32E
330
320
100
AcDbEntity
  8
Defpoints
 62
0
 48
3.0
440
16777216
100
AcDbPoint
 10
2634.6220988683635
 20
1957.3959059247572
 30
0.0
  0
POINT
  5
32F
330
320
100
AcDbEntity
  8
Defpoints
 62
0
 48
3.0
440
16777216
100
AcDbPoint
 10
2669.1220988683635
 20
2057.3959059247572
 30
0.0
  0
POINT
  5
330
330
320
100
AcDbEntity
  8
Defpoints
 62
0
 48
3.0
440
16777216
100
AcDbPoint
 10
2751.768025537167
 20
2057.3959059247572
 30
0.0
  0
ENDBLK
  5
322
330
320
100
AcDbEntity
  8
0
100
AcDbBlockEnd
  0
BLOCK
  5
332
330
331
100
AcDbEntity
  8
0
100
AcDbBlockBegin
  2
*D19
 70
1
 10
0.0
 20
0.0
 30
0.0
  3
*D19
  1

  0
LINE
  5
334
330
331
100
AcDbEntity
  8
DIM
 62
5
370
9
440
16777216
100
AcDbLine
 10
1954.1220988683635
 20
782.6907656269905
 30
0.0
 11
1914.8413904677727
 21
782.6907656269905
 31
0.0
  0
LINE
  5
335
330
331
100
AcDbEntity
  8
DIM
 62
5
370
9
440
16777216
100
AcDbLine
 10
1955.1220988674613
 20
432.69076562699047
 30
0.0
 11
1914.8413904677727
 21
432.69076562699047
 31
0.0
  0
LINE
  5
336
330
331
100
AcDbEntity
  8
DIM
 62
5
370
9
440
16777216
100
AcDbLine
 10
1919.8413904677727
 20
777.6907656269905
 30
0.0
 11
1919.8413904677727
 21
437.69076562699047
 31
0.0
  0
LINE
  5
337
330
331
100
AcDbEntity
  8
0
  6
ByBlock
 62
0
370
-2
100
AcDbLine
 10
1918.5016445177607
 20
777.6907656269905
 30
0.0
 11
1919.8413904677727
 21
782.6907656269905
 31
0.0
  0
LINE
  5
338
330
331
100
AcDbEntity
  8
0
  6
ByBlock
 62
0
370
-2
100
AcDbLine
 10
1919.8413904677727
 20
782.6907656269905
 30
0.0
 11
1921.1811364177847
 21
777.6907656269905
 31
0.0
  0
LINE
  5
339
330
331
100
AcDbEntity
  8
0
  6
ByBlock
 62
0
370
-2
100
AcDbLine
 10
1919.8413904677727
 20
782.6907656269905
 30
0.0
 11
1919.8413904677727
 21
777.6907656269905
 31
0.0
  0
LINE
  5
33A
330
331
100
AcDbEntity
  8
0
  6
ByBlock
 62
0
370
-2
100
AcDbLine
 10
1921.1811364177847
 20
437.69076562699047
 30
0.0
 11
1919.8413904677727
 21
432.69076562699047
 31
0.0
  0
LINE
  5
33B
330
331
100
AcDbEntity
  8
0
  6
ByBlock
 62
0
370
-2
100
AcDbLine
 10
1919.8413904677727
 20
432.69076562699047
 30
0.0
 11
1918.5016445177607
 21
437.69076562699047
 31
0.0
  0
LINE
  5
33C
330
331
100
AcDbEntity
  8
0
  6
ByBlock
 62
0
370
-2
100
AcDbLine
 10
1919.8413904677727
 20
432.69076562699047
 30
0.0
 11
1919.8413904677727
 21
437.69076562699047
 31
0.0
  0
MTEXT
  5
33D
330
331
100
AcDbEntity
  8
DIM
 62
3
440
16777216
100
AcDbMText
 10
1884.2956878756813
 20
607.6907656270196
 30
0.0
 40
50.0
 41
0.0
 46
0.0
 71
5
  1
350
 11
1e-16
 21
1.0
 31
0.0
  0
POINT
  5
33E
330
331
100
AcDbEntity
  8
Defpoints
 62
0
440
16777216
100
AcDbPoint
 10
1969.1220988683635
 20
782.6907656269905
 30
0.0
  0
POINT
  5
33F
330
331
100
AcDbEntity
  8
Defpoints
 62
0
440
16777216
100
AcDbPoint
 10
1970.1220988674613
 20
432.69076562699047
 30
0.0
  0
POINT
  5
340
330
331
100
AcDbEntity
  8
Defpoints
 62
0
440
16777216
100
AcDbPoint
 10
1919.8413904677727
 20
432.69076562699047
 30
0.0
  0
ENDBLK
  5
333
330
331
100
AcDbEntity
  8
0
100
AcDbBlockEnd
  0
BLOCK
  5
342
330
341
100
AcDbEntity
  8
0
100
AcDbBlockBegin
  2
*D20
 70
1
 10
0.0
 20
0.0
 30
0.0
  3
*D20
  1

  0
LINE
  5
344
330
341
100
AcDbEntity
  8
DIM
 62
5
370
9
440
16777216
100
AcDbLine
 10
1969.1220988683635
 20
797.6907656269905
 30
0.0
 11
1969.1220988683635
 21
815.6028242580069
 31
0.0
  0
LINE
  5
345
330
341
100
AcDbEntity
  8
DIM
 62
5
370
9
440
16777216
100
AcDbLine
 10
2669.1220988683635
 20
797.6907656269905
 30
0.0
 11
2669.1220988683635
 21
815.6028242580069
 31
0.0
  0
LINE
  5
346
330
341
100
AcDbEntity
  8
DIM
 62
5
370
9
440
16777216
100
AcDbLine
 10
1974.1220988683635
 20
810.6028242580069
 30
0.0
 11
2664.1220988683635
 21
810.6028242580069
 31
0.0
  0
LINE
  5
347
330
341
100
AcDbEntity
  8
0
  6
ByBlock
 62
0
370
-2
100
AcDbLine
 10
1974.1220988683635
 20
809.2630783080094
 30
0.0
 11
1969.1220988683635
 21
810.6028242580069
 31
0.0
  0
LINE
  5
348
330
341
100
AcDbEntity
  8
0
  6
ByBlock
 62
0
370
-2
100
AcDbLine
 10
1969.1220988683635
 20
810.6028242580069
 30
0.0
 11
1974.1220988683635
 21
811.9425702080043
 31
0.0
  0
LINE
  5
349
330
341
100
AcDbEntity
  8
0
  6
ByBlock
 62
0
370
-2
100
AcDbLine
 10
1969.1220988683635
 20
810.6028242580069
 30
0.0
 11
1974.1220988683635
 21
810.6028242580069
 31
0.0
  0
LINE
  5
34A
330
341
100
AcDbEntity
  8
0
  6
ByBlock
 62
0
370
-2
100
AcDbLine
 10
2664.1220988683635
 20
811.9425702080043
 30
0.0
 11
2669.1220988683635
 21
810.6028242580069
 31
0.0
  0
LINE
  5
34B
330
341
100
AcDbEntity
  8
0
  6
ByBlock
 62
0
370
-2
100
AcDbLine
 10
2669.1220988683635
 20
810.6028242580069
 30
0.0
 11
2664.1220988683635
 21
809.2630783080094
 31
0.0
  0
LINE
  5
34C
330
341
100
AcDbEntity
  8
0
  6
ByBlock
 62
0
370
-2
100
AcDbLine
 10
2669.1220988683635
 20
810.6028242580069
 30
0.0
 11
2664.1220988683635
 21
810.6028242580069
 31
0.0
  0
MTEXT
  5
34D
330
341
100
AcDbEntity
  8
DIM
 62
3
440
16777216
100
AcDbMText
 10
2319.1220988683635
 20
846.1314736440982
 30
0.0
 40
50.0
 41
0.0
 46
0.0
 71
5
  1
700
  0
POINT
  5
34E
330
341
100
AcDbEntity
  8
Defpoints
 62
0
440
16777216
100
AcDbPoint
 10
1969.1220988683635
 20
782.6907656269905
 30
0.0
  0
POINT
  5
34F
330
341
100
AcDbEntity
  8
Defpoints
 62
0
440
16777216
100
AcDbPoint
 10
2669.1220988683635
 20
782.6907656269905
 30
0.0
  0
POINT
  5
350
330
341
100
AcDbEntity
  8
Defpoints
 62
0
440
16777216
100
AcDbPoint
 10
2669.1220988683635
 20
810.6028242580069
 30
0.0
  0
ENDBLK
  5
343
330
341
100
AcDbEntity
  8
0
100
AcDbBlockEnd
  0
ENDSEC
  0
SECTION
  2
ENTITIES
  0
LWPOLYLINE
  5
2F
330
17
100
AcDbEntity
  8
0
100
AcDbPolyline
 90
4
 70
1
 10
169.0978862932825
 20
1157.3959059247572
 10
869.0978862932825
 20
1157.3959059247572
 10
869.0978862932825
 20
2057.3959059247572
 10
169.0978862932825
 20
2057.3959059247572
  0
LWPOLYLINE
  5
30
330
17
100
AcDbEntity
  8
0
100
AcDbPolyline
 90
4
 70
1
 10
170.5978862932825
 20
1158.8959059247572
 10
867.5978862932825
 20
1158.8959059247572
 10
867.5978862932825
 20
2055.8959059247572
 10
170.5978862932825
 20
2055.8959059247572
  0
DIMENSION
  5
31
330
17
100
AcDbEntity
  8
DIM
100
AcDbDimension
280
0
  2
*D1
  3
CNC
 10
869.0978862932825
 20
2148.3794535629277
 30
0.0
 11
519.0978862932825
 21
2183.908102949019
 31
0.0
 70
32
 71
5
 42
700.0
 73
0
 74
0
 75
0
100
AcDbAlignedDimension
 13
169.0978862932825
 23
2057.3959059247572
 33
0.0
 14
869.0978862932825
 24
2057.3959059247572
 34
0.0
 50
0.0
100
AcDbRotatedDimension
  0
DIMENSION
  5
38
330
17
100
AcDbEntity
  8
DIM
100
AcDbDimension
280
0
  2
*D2
  3
CNC
 10
102.0140649570676
 20
1157.3959059247572
 30
0.0
 11
66.48541557096178
 21
1607.3959059247863
 31
0.0
 70
32
 71
5
 42
900.0
 73
0
 74
0
 75
0
100
AcDbAlignedDimension
 13
169.0978862932825
 23
2057.3959059247572
 33
0.0
 14
169.0978862932825
 24
1157.3959059247572
 34
0.0
 50
90.0
100
AcDbRotatedDimension
  0
HATCH
  5
39
330
17
100
AcDbEntity
  8
0
 48
3.0
100
AcDbHatch
 10
0.0
 20
0.0
 30
0.0
210
0.0
220
0.0
230
1.0
  2
ANSI38
 70
0
 71
0
 91
1
 92
1
 93
4
 72
1
 10
169.0978862932825
 20
1057.3959059247572
 11
869.0978862932825
 21
1057.3959059247572
 72
1
 10
869.0978862932825
 20
1057.3959059247572
 11
869.0978862932825
 21
1157.3959059247572
 72
1
 10
869.0978862932825
 20
1157.3959059247572
 11
169.0978862932825
 21
1157.3959059247572
 72
1
 10
169.0978862932825
 20
1157.3959059247572
 11
169.0978862932825
 21
1057.3959059247572
 97
1
330
2C890B
 75
0
 76
1
 52
0.0
 41
50.0
 77
0
 78
2
 53
45.0
 43
6745448.832567201
 44
3816531.3192052417
 45
-220.9708691208
 46
220.9708691208
 79
0
 53
135.0
 43
6745448.832567201
 44
3816531.3192052417
 45
-662.9126073624
 46
220.9708691208
 79
2
 49
781.25
 49
-468.75
 98
1
 10
134908.976651344
 20
76330.62638410483
  0
LWPOLYLINE
  5
3A
330
17
100
AcDbEntity
  8
0
100
AcDbPolyline
 90
4
 70
1
 10
169.0978862932825
 20
1057.3959059247572
 10
869.0978862932825
 20
1057.3959059247572
 10
869.0978862932825
 20
1157.3959059247572
 10
169.0978862932825
 20
1157.3959059247572
  0
DIMENSION
  5
3B
330
17
100
AcDbEntity
  8
DIM
100
AcDbDimension
280
0
  2
*D3
  3
CNC
 10
102.0140649570676
 20
1057.3959059247572
 30
0.0
 11
102.0140649570676
 21
1107.3959059247863
 31
0.0
 70
160
 71
5
 42
100.0
 73
0
 74
0
 75
0
100
AcDbAlignedDimension
 13
102.0140649570676
 23
1157.3959059247572
 33
0.0
 14
169.0978862932825
 24
1057.3959059247572
 34
0.0
 50
90.0
100
AcDbRotatedDimension
  0
DIMENSION
  5
3C
330
17
100
AcDbEntity
  8
DIM
100
AcDbDimension
280
0
  2
*D4
  3
CNC
 10
119.81717789266258
 20
432.69076562699047
 30
0.0
 11
84.27147530057118
 21
607.6907656270196
 31
0.0
 70
32
 71
5
 42
350.0
 73
0
 74
0
 75
0
100
AcDbAlignedDimension
 13
169.0978862932825
 23
782.6907656269905
 33
0.0
 14
170.09788629238028
 24
432.69076562699047
 34
0.0
 50
90.0
100
AcDbRotatedDimension
  0
LWPOLYLINE
  5
3D
330
17
100
AcDbEntity
  8
0
  6
HIDDEN
 62
2
100
AcDbPolyline
 90
4
 70
1
 10
344.0978862931661
 20
692.6907656269905
 10
344.0978862931661
 20
592.6907656269905
 10
644.0978862932825
 20
592.6907656269905
 10
644.0978862932825
 20
692.6907656269905
  0
HATCH
  5
3E
330
17
100
AcDbEntity
  8
0
 48
3.0
100
AcDbHatch
 10
0.0
 20
0.0
 30
0.0
210
0.0
220
0.0
230
1.0
  2
ANSI31
 70
0
 71
0
 91
2
 92
16
 93
4
 72
1
 10
329.0978862932825
 20
707.6907656269905
 11
329.0978862932825
 21
577.6907656269905
 72
1
 10
329.0978862932825
 20
577.6907656269905
 11
659.0978862932825
 21
577.6907656269905
 72
1
 10
659.0978862932825
 20
577.6907656269905
 11
659.0978862932825
 21
707.6907656269905
 72
1
 10
659.0978862932825
 20
707.6907656269905
 11
329.0978862932825
 21
707.6907656269905
 97
1
330
2C8913
 92
1
 93
4
 72
1
 10
169.0978862932825
 20
782.6907656269905
 11
869.0978862932825
 21
782.6907656269905
 72
1
 10
869.0978862932825
 20
782.6907656269905
 11
869.0978862932825
 21
457.69076562699047
 72
1
 10
869.0978862932825
 20
457.69076562699047
 11
169.0978862932825
 21
457.69076562699047
 72
1
 10
169.0978862932825
 20
457.69076562699047
 11
169.0978862932825
 21
782.6907656269905
 97
1
330
2C89CF
 75
0
 76
1
 52
0.0
 41
200.0
 77
0
 78
1
 53
45.0
 43
26981795.330268804
 44
15266125.276820967
 45
-3535.5339059327
 46
3535.5339059327
 79
0
 98
11
 10
166974.4245418068
 20
-67512.09550051083
 10
166974.4245418068
 20
-67512.09550051083
 10
166974.4245418068
 20
-67512.09550051083
 10
166974.4245418068
 20
-67512.09550051083
 10
166974.4245418068
 20
-67512.09550051083
 10
166974.4245418068
 20
-67512.09550051083
 10
166974.4245418068
 20
-67512.09550051083
 10
166974.4245418068
 20
-67512.09550051083
 10
166974.4245418068
 20
-67512.09550051083
 10
166974.4245418068
 20
-67512.09550051083
 10
166974.4245418068
 20
-67512.09550051083
  0
HATCH
  5
3F
330
17
100
AcDbEntity
  8
0
 48
3.0
100
AcDbHatch
 10
0.0
 20
0.0
 30
0.0
210
0.0
220
0.0
230
1.0
  2
ANSI31
 70
0
 71
0
 91
1
 92
1
 93
4
 72
1
 10
329.0978862932825
 20
707.6907656269905
 11
329.0978862932825
 21
577.6907656269905
 72
1
 10
329.0978862932825
 20
577.6907656269905
 11
659.0978862932825
 21
577.6907656269905
 72
1
 10
659.0978862932825
 20
577.6907656269905
 11
659.0978862932825
 21
707.6907656269905
 72
1
 10
659.0978862932825
 20
707.6907656269905
 11
329.0978862932825
 21
707.6907656269905
 97
1
330
2C8913
 75
0
 76
1
 52
75.0
 41
100.0
 77
0
 78
1
 53
195.0
 43
-3881271.084856952
 44
15006788.457857337
 45
323.5238063782
 46
-1207.4072828613
 79
0
 98
1
 10
134908.976651344
 20
76330.62638410483
  0
LWPOLYLINE
  5
40
330
17
100
AcDbEntity
  8
0
100
AcDbPolyline
 90
4
 70
1
 10
329.0978862932825
 20
707.6907656269905
 10
329.0978862932825
 20
577.6907656269905
 10
659.0978862932825
 20
577.6907656269905
 10
659.0978862932825
 20
707.6907656269905
  0
LWPOLYLINE
  5
41
330
17
100
AcDbEntity
  8
0
 62
2
100
AcDbPolyline
 90
4
 70
1
 10
340.99674762558425
 20
695.7919042946887
 10
331.99674762558425
 20
695.7919042946887
 10
331.99674762558425
 20
704.7919042946887
 10
340.99674762558425
 20
704.7919042946887
  0
CIRCLE
  5
42
330
17
100
AcDbEntity
  8
0
 62
7
100
AcDbCircle
 10
336.49674762558425
 20
700.2919042946887
 30
0.0
 40
4.0
  0
LWPOLYLINE
  5
43
330
17
100
AcDbEntity
  8
0
 62
2
100
AcDbPolyline
 90
4
 70
1
 10
340.99674762558425
 20
589.5896269592922
 10
331.99674762558425
 20
589.5896269592922
 10
331.99674762558425
 20
580.5896269592922
 10
340.99674762558425
 20
580.5896269592922
  0
CIRCLE
  5
44
330
17
100
AcDbEntity
  8
0
 62
7
100
AcDbCircle
 10
336.49674762558425
 20
585.0896269592922
 30
0.0
 40
4.0
  0
LWPOLYLINE
  5
45
330
17
100
AcDbEntity
  8
0
 62
2
100
AcDbPolyline
 90
4
 70
1
 10
647.1990249609808
 20
695.7919042946887
 10
656.1990249609808
 20
695.7919042946887
 10
656.1990249609808
 20
704.7919042946887
 10
647.1990249609808
 20
704.7919042946887
  0
CIRCLE
  5
46
330
17
100
AcDbEntity
  8
0
 62
7
100
AcDbCircle
 10
651.6990249609808
 20
700.2919042946887
 30
0.0
 40
4.0
  0
LWPOLYLINE
  5
47
330
17
100
AcDbEntity
  8
0
 62
2
100
AcDbPolyline
 90
4
 70
1
 10
647.1990249609808
 20
589.5896269592922
 10
656.1990249609808
 20
589.5896269592922
 10
656.1990249609808
 20
580.5896269592922
 10
647.1990249609808
 20
580.5896269592922
  0
CIRCLE
  5
48
330
17
100
AcDbEntity
  8
0
 62
7
100
AcDbCircle
 10
651.6990249609808
 20
585.0896269592922
 30
0.0
 40
4.0
  0
CIRCLE
  5
49
330
17
100
AcDbEntity
  8
0
 62
2
100
AcDbCircle
 10
252.0978862932825
 20
1764.8959059243061
 30
0.0
 40
12.5
  0
CIRCLE
  5
4A
330
17
100
AcDbEntity
  8
0
 62
2
100
AcDbCircle
 10
252.0978862932825
 20
1781.8959059242916
 30
0.0
 40
3.0
  0
CIRCLE
  5
4B
330
17
100
AcDbEntity
  8
0
 62
2
100
AcDbCircle
 10
252.0978862932825
 20
1747.8959059242916
 30
0.0
 40
3.0
  0
INSERT
  5
4C
330
17
100
AcDbEntity
  8
0
 62
7
100
AcDbBlockReference
  2
MS308-2-1
 10
252.0978862932825
 20
1764.8959059243061
 30
0.0
  0
DIMENSION
  5
4E
330
17
100
AcDbEntity
  8
DIM
100
AcDbDimension
280
0
  2
*D5
  3
CNC
 10
869.0978862932825
 20
810.6028242580069
 30
0.0
 11
519.0978862932825
 21
846.1314736440982
 31
0.0
 70
32
 71
5
 42
700.0
 73
0
 74
0
 75
0
100
AcDbAlignedDimension
 13
169.0978862932825
 23
782.6907656269905
 33
0.0
 14
869.0978862932825
 24
782.6907656269905
 34
0.0
 50
0.0
100
AcDbRotatedDimension
  0
INSERT
  5
4F
330
17
100
AcDbEntity
  8
0
 62
7
100
AcDbBlockReference
  2
HL011-1-3
 10
834.5978862932825
 20
1237.3959059247572
 30
0.0
  0
LWPOLYLINE
  5
51
330
17
100
AcDbEntity
  8
0
 62
2
100
AcDbPolyline
 90
4
 70
1
 10
837.5978862932825
 20
1295.8959059247572
 42
-0.9999999999999998
 10
837.5978862932825
 20
1303.8959059247572
 10
842.5978862932825
 20
1303.8959059247572
 42
-0.9999999999999998
 10
842.5978862932825
 20
1295.8959059247572
  0
LWPOLYLINE
  5
52
330
17
100
AcDbEntity
  8
0
 62
2
100
AcDbPolyline
 90
4
 70
1
 10
837.5978862932825
 20
1270.8959059247572
 42
-0.9999999999999998
 10
837.5978862932825
 20
1278.8959059247572
 10
842.5978862932825
 20
1278.8959059247572
 42
-0.9999999999999998
 10
842.5978862932825
 20
1270.8959059247572
  0
LWPOLYLINE
  5
53
330
17
100
AcDbEntity
  8
0
 62
2
100
AcDbPolyline
 90
4
 70
1
 10
837.5978862932825
 20
1245.8959059247572
 42
-0.9999999999999998
 10
837.5978862932825
 20
1253.8959059247572
 10
842.5978862932825
 20
1253.8959059247572
 42
-0.9999999999999998
 10
842.5978862932825
 20
1245.8959059247572
  0
INSERT
  5
54
330
17
100
AcDbEntity
  8
0
 62
7
100
AcDbBlockReference
  2
HL011-1-3
 10
834.5978862932825
 20
1947.3959059247572
 30
0.0
 41
-1.0
 50
180.0
  0
LWPOLYLINE
  5
56
330
17
100
AcDbEntity
  8
0
 62
2
100
AcDbPolyline
 90
4
 70
1
 10
837.5978862932825
 20
1888.8959059247572
 42
0.9999999999999998
 10
837.5978862932825
 20
1880.8959059247572
 10
842.5978862932825
 20
1880.8959059247572
 42
0.9999999999999998
 10
842.5978862932825
 20
1888.8959059247572
  0
LWPOLYLINE
  5
57
330
17
100
AcDbEntity
  8
0
 62
2
100
AcDbPolyline
 90
4
 70
1
 10
837.5978862932825
 20
1913.8959059247572
 42
0.9999999999999998
 10
837.5978862932825
 20
1905.8959059247572
 10
842.5978862932825
 20
1905.8959059247572
 42
0.9999999999999998
 10
842.5978862932825
 20
1913.8959059247572
  0
LWPOLYLINE
  5
58
330
17
100
AcDbEntity
  8
0
 62
2
100
AcDbPolyline
 90
4
 70
1
 10
837.5978862932825
 20
1938.8959059247572
 42
0.9999999999999998
 10
837.5978862932825
 20
1930.8959059247572
 10
842.5978862932825
 20
1930.8959059247572
 42
0.9999999999999998
 10
842.5978862932825
 20
1938.8959059247572
  0
LWPOLYLINE
  5
59
330
17
100
AcDbEntity
  8
0
100
AcDbPolyline
 90
4
 70
1
 10
1115.48350411086
 20
1157.3959059247572
 10
1815.48350411086
 20
1157.3959059247572
 10
1815.48350411086
 20
2057.3959059247572
 10
1115.48350411086
 20
2057.3959059247572
  0
LWPOLYLINE
  5
5A
330
17
100
AcDbEntity
  8
0
100
AcDbPolyline
 90
4
 70
1
 10
1116.98350411086
 20
1158.8959059247572
 10
1813.98350411086
 20
1158.8959059247572
 10
1813.98350411086
 20
2055.8959059247572
 10
1116.98350411086
 20
2055.8959059247572
  0
LWPOLYLINE
  5
5B
330
17
100
AcDbEntity
  8
0
100
AcDbPolyline
 90
4
 70
1
 10
1163.48350411086
 20
1205.3959059247572
 10
1767.48350411086
 20
1205.3959059247572
 10
1767.48350411086
 20
1974.3959059247572
 10
1163.48350411086
 20
1974.3959059247572
  0
LWPOLYLINE
  5
5C
330
17
100
AcDbEntity
  8
0
 62
6
100
AcDbPolyline
 90
4
 70
1
 10
1169.48350411086
 20
1211.3959059247572
 10
1761.48350411086
 20
1211.3959059247572
 10
1761.48350411086
 20
1968.3959059247572
 10
1169.48350411086
 20
1968.3959059247572
  0
LWPOLYLINE
  5
5D
330
17
100
AcDbEntity
  8
0
  6
HIDDENX2
 62
6
100
AcDbPolyline
 90
4
 70
1
 10
1170.98350411086
 20
1212.8959059247572
 10
1759.98350411086
 20
1212.8959059247572
 10
1759.98350411086
 20
1966.8959059247572
 10
1170.98350411086
 20
1966.8959059247572
  0
LWPOLYLINE
  5
5E
330
17
100
AcDbEntity
  8
0
 62
3
100
AcDbPolyline
 90
4
 70
1
 10
1189.98350411086
 20
1231.8959059247572
 10
1740.98350411086
 20
1231.8959059247572
 10
1740.98350411086
 20
1947.8959059247572
 10
1189.98350411086
 20
1947.8959059247572
  0
LWPOLYLINE
  5
5F
330
17
100
AcDbEntity
  8
0
 62
3
100
AcDbPolyline
 90
4
 70
1
 10
1188.48350411086
 20
1230.3959059247572
 10
1742.48350411086
 20
1230.3959059247572
 10
1742.48350411086
 20
1949.3959059247572
 10
1188.48350411086
 20
1949.3959059247572
  0
DIMENSION
  5
60
330
17
100
AcDbEntity
  8
DIM
100
AcDbDimension
280
0
  2
*D6
  3
CNC
 10
1815.48350411086
 20
2148.3794535629277
 30
0.0
 11
1465.48350411086
 21
2183.908102949019
 31
0.0
 70
32
 71
5
 42
700.0
 73
0
 74
0
 75
0
100
AcDbAlignedDimension
 13
1115.48350411086
 23
2057.3959059247572
 33
0.0
 14
1815.48350411086
 24
2057.3959059247572
 34
0.0
 50
0.0
100
AcDbRotatedDimension
  0
DIMENSION
  5
61
330
17
100
AcDbEntity
  8
DIM
100
AcDbDimension
280
0
  2
*D7
  3
CNC
 10
1024.8336866322788
 20
1157.3959059247572
 30
0.0
 11
989.305037246173
 21
1607.3959059247863
 31
0.0
 70
32
 71
5
 42
900.0
 73
0
 74
0
 75
0
100
AcDbAlignedDimension
 13
1115.48350411086
 23
2057.3959059247572
 33
0.0
 14
1115.48350411086
 24
1157.3959059247572
 34
0.0
 50
90.0
100
AcDbRotatedDimension
  0
HATCH
  5
62
330
17
100
AcDbEntity
  8
0
 48
3.0
100
AcDbHatch
 10
0.0
 20
0.0
 30
0.0
210
0.0
220
0.0
230
1.0
  2
ANSI38
 70
0
 71
0
 91
1
 92
1
 93
4
 72
1
 10
1115.48350411086
 20
1057.3959059247572
 11
1815.48350411086
 21
1057.3959059247572
 72
1
 10
1815.48350411086
 20
1057.3959059247572
 11
1815.48350411086
 21
1157.3959059247572
 72
1
 10
1815.48350411086
 20
1157.3959059247572
 11
1115.48350411086
 21
1157.3959059247572
 72
1
 10
1115.48350411086
 20
1157.3959059247572
 11
1115.48350411086
 21
1057.3959059247572
 97
1
330
2C8937
 75
0
 76
1
 52
0.0
 41
50.0
 77
0
 78
2
 53
45.0
 43
6792768.113458075
 44
3816531.3192052417
 45
-220.9708691208
 46
220.9708691208
 79
0
 53
135.0
 43
6792768.113458075
 44
3816531.3192052417
 45
-662.9126073624
 46
220.9708691208
 79
2
 49
781.25
 49
-468.75
 98
1
 10
135855.3622691615
 20
76330.62638410483
  0
LWPOLYLINE
  5
63
330
17
100
AcDbEntity
  8
0
100
AcDbPolyline
 90
4
 70
1
 10
1115.48350411086
 20
1057.3959059247572
 10
1815.48350411086
 20
1057.3959059247572
 10
1815.48350411086
 20
1157.3959059247572
 10
1115.48350411086
 20
1157.3959059247572
  0
DIMENSION
  5
64
330
17
100
AcDbEntity
  8
DIM
100
AcDbDimension
280
0
  2
*D8
  3
CNC
 10
1024.8336866321624
 20
1057.3959059247572
 30
0.0
 11
1024.8336866322788
 21
1107.3959059247863
 31
0.0
 70
160
 71
5
 42
100.0
 73
0
 74
0
 75
0
100
AcDbAlignedDimension
 13
1024.8336866322788
 23
1157.3959059247572
 33
0.0
 14
1115.48350411086
 24
1057.3959059247572
 34
0.0
 50
90.0
100
AcDbRotatedDimension
  0
INSERT
  5
65
330
17
100
AcDbEntity
  8
0
 62
7
100
AcDbBlockReference
  2
HL011-1-3
 10
1780.98350411086
 20
1237.3959059247572
 30
0.0
  0
LWPOLYLINE
  5
67
330
17
100
AcDbEntity
  8
0
 62
2
100
AcDbPolyline
 90
4
 70
1
 10
1783.98350411086
 20
1295.8959059247572
 42
-0.9999999999999998
 10
1783.98350411086
 20
1303.8959059247572
 10
1788.98350411086
 20
1303.8959059247572
 42
-0.9999999999999998
 10
1788.98350411086
 20
1295.8959059247572
  0
LWPOLYLINE
  5
68
330
17
100
AcDbEntity
  8
0
 62
2
100
AcDbPolyline
 90
4
 70
1
 10
1783.98350411086
 20
1270.8959059247572
 42
-0.9999999999999998
 10
1783.98350411086
 20
1278.8959059247572
 10
1788.98350411086
 20
1278.8959059247572
 42
-0.9999999999999998
 10
1788.98350411086
 20
1270.8959059247572
  0
LWPOLYLINE
  5
69
330
17
100
AcDbEntity
  8
0
 62
2
100
AcDbPolyline
 90
4
 70
1
 10
1783.98350411086
 20
1245.8959059247572
 42
-0.9999999999999998
 10
1783.98350411086
 20
1253.8959059247572
 10
1788.98350411086
 20
1253.8959059247572
 42
-0.9999999999999998
 10
1788.98350411086
 20
1245.8959059247572
  0
INSERT
  5
6A
330
17
100
AcDbEntity
  8
0
 62
7
100
AcDbBlockReference
  2
HL011-1-3
 10
1780.98350411086
 20
1942.3959059247572
 30
0.0
 41
-1.0
 50
180.0
  0
LWPOLYLINE
  5
6C
330
17
100
AcDbEntity
  8
0
 62
2
100
AcDbPolyline
 90
4
 70
1
 10
1783.98350411086
 20
1883.8959059247572
 42
0.9999999999999998
 10
1783.98350411086
 20
1875.8959059247572
 10
1788.98350411086
 20
1875.8959059247572
 42
0.9999999999999998
 10
1788.98350411086
 20
1883.8959059247572
  0
LWPOLYLINE
  5
6D
330
17
100
AcDbEntity
  8
0
 62
2
100
AcDbPolyline
 90
4
 70
1
 10
1783.98350411086
 20
1908.8959059247572
 42
0.9999999999999998
 10
1783.98350411086
 20
1900.8959059247572
 10
1788.98350411086
 20
1900.8959059247572
 42
0.9999999999999998
 10
1788.98350411086
 20
1908.8959059247572
  0
LWPOLYLINE
  5
6E
330
17
100
AcDbEntity
  8
0
 62
2
100
AcDbPolyline
 90
4
 70
1
 10
1783.98350411086
 20
1933.8959059247572
 42
0.9999999999999998
 10
1783.98350411086
 20
1925.8959059247572
 10
1788.98350411086
 20
1925.8959059247572
 42
0.9999999999999998
 10
1788.98350411086
 20
1933.8959059247572
  0
INSERT
  5
6F
330
17
100
AcDbEntity
  8
0
 62
7
100
AcDbBlockReference
  2
ovan6x9
 10
1750.1835641068756
 20
1869.3959185015701
 30
0.0
  0
INSERT
  5
71
330
17
100
AcDbEntity
  8
0
 62
7
100
AcDbBlockReference
  2
ovan6x9
 10
1750.1835641068756
 20
1852.8959185015701
 30
0.0
  0
INSERT
  5
73
330
17
100
AcDbEntity
  8
0
 62
7
100
AcDbBlockReference
  2
HL036-1-1
 10
1742.4835041106853
 20
1839.8959059247572
 30
0.0
  0
INSERT
  5
75
330
17
100
AcDbEntity
  8
0
 62
7
100
AcDbBlockReference
  2
ovan6x9
 10
1750.1835641068756
 20
1310.3958933479444
 30
0.0
 41
-1.0
 50
180.0
  0
INSERT
  5
77
330
17
100
AcDbEntity
  8
0
 62
7
100
AcDbBlockReference
  2
ovan6x9
 10
1750.1835641068756
 20
1326.895893347959
 30
0.0
 41
-1.0
 50
180.0
  0
INSERT
  5
79
330
17
100
AcDbEntity
  8
0
 62
7
100
AcDbBlockReference
  2
HL036-1-1
 10
1742.4835041106853
 20
1339.8959059247572
 30
0.0
 41
-1.0
 50
180.0
  0
INSERT
  5
7B
330
17
100
AcDbEntity
  8
0
 62
7
100
AcDbBlockReference
  2
MS722
 10
1220.4835041107726
 20
1888.3959059247572
 30
0.0
  0
LWPOLYLINE
  5
7D
330
17
100
AcDbEntity
  8
0
 62
2
 48
3.0
100
AcDbPolyline
 90
4
 70
1
 10
1210.2335041106853
 20
1898.6459059247572
 10
1230.7335041107726
 20
1898.6459059247572
 10
1230.7335041107726
 20
1878.1459059247572
 10
1210.2335041106853
 20
1878.1459059247572
  0
LINE
  5
7E
330
17
100
AcDbEntity
  8
0
 48
3.0
100
AcDbLine
 10
1220.4835041107726
 20
1898.6459059247572
 30
0.0
 11
1220.4835041107726
 21
1878.1459059247572
 31
0.0
  0
INSERT
  5
7F
330
17
100
AcDbEntity
  8
0
 62
7
100
AcDbBlockReference
  2
MS722
 10
1220.4835041107726
 20
1291.3959059247572
 30
0.0
 41
-1.0
 50
180.0
  0
LWPOLYLINE
  5
81
330
17
100
AcDbEntity
  8
0
 62
2
 48
3.0
100
AcDbPolyline
 90
4
 70
1
 10
1210.2335041106853
 20
1281.1459059247572
 10
1230.7335041107726
 20
1281.1459059247572
 10
1230.7335041107726
 20
1301.6459059247572
 10
1210.2335041106853
 20
1301.6459059247572
  0
LINE
  5
82
330
17
100
AcDbEntity
  8
0
 48
3.0
100
AcDbLine
 10
1220.4835041107726
 20
1281.1459059247572
 30
0.0
 11
1220.4835041107726
 21
1301.6459059247572
 31
0.0
  0
LWPOLYLINE
  5
83
330
17
100
AcDbEntity
  8
0
 62
7
100
AcDbPolyline
 90
12
 70
1
 10
3129.4269590534677
 20
1169.895905923826
 10
3129.4269590534677
 20
1158.395905923826
 10
3153.4269590534677
 20
1158.395905923826
 10
3153.4269590534677
 20
2021.3959059247572
 10
3129.4269590534677
 20
2021.3959059247572
 10
3129.4269590534677
 20
2007.8959059247572
 10
3130.9269590534677
 20
2007.8959059247572
 10
3130.9269590534677
 20
2019.8959059247572
 10
3151.9269590534677
 20
2019.8959059247572
 10
3151.9269590534677
 20
1159.895905923826
 10
3130.9269590534677
 20
1159.895905923826
 10
3130.9269590534677
 20
1169.895905923826
  0
LWPOLYLINE
  5
84
330
17
100
AcDbEntity
  8
0
 62
7
100
AcDbPolyline
 90
8
 70
1
 10
2804.926959053584
 20
1158.8959059247572
 10
2804.926959053584
 20
1158.8959059247572
 10
2804.926959053584
 20
2055.8959059247572
 10
2804.926959053584
 20
2055.8959059247572
 10
2804.926959053584
 20
2055.8959059247572
 10
2803.4269590534677
 20
2057.3959059247572
 10
2803.4269590534677
 20
1157.3959059247572
 10
2804.926959053584
 20
1158.8959059247572
  0
LWPOLYLINE
  5
85
330
17
100
AcDbEntity
  8
0
 62
6
100
AcDbPolyline
 90
12
 70
1
 10
3060.226959053485
 20
1962.8959059247572
 10
3060.226959053485
 20
1972.8959059247572
 10
3076.226959053485
 20
1972.8959059247572
 10
3076.226959053485
 20
1212.8959059247572
 10
3060.226959053485
 20
1212.8959059247572
 10
3060.226959053485
 20
1222.8959059247572
 10
3058.726959053485
 20
1222.8959059247572
 10
3058.726959053485
 20
1211.3959059247572
 10
3077.726959053485
 20
1211.3959059247572
 10
3077.726959053485
 20
1974.3959059247572
 10
3058.726959053485
 20
1974.3959059247572
 10
3058.726959053485
 20
1962.8959059247572
  0
LWPOLYLINE
  5
86
330
17
100
AcDbEntity
  8
0
 62
7
100
AcDbPolyline
 90
14
 70
1
 10
3145.9269590534677
 20
1193.8959059247572
 10
3145.9269590534677
 20
1205.3959059247572
 10
3126.926959053584
 20
1205.3959059247572
 10
3126.926959053584
 20
1158.8959059247572
 10
2804.926959053584
 20
1158.8959059247572
 10
2804.926959053584
 20
1158.8959059247572
 10
2814.9269590534677
 20
1158.8959059247572
 10
2814.9269590534677
 20
1158.8959059247572
 10
2804.926959053584
 20
1158.8959059247572
 10
2803.4269590534677
 20
1157.3959059247572
 10
3128.4269590534677
 20
1157.3959059247572
 10
3128.4269590534677
 20
1203.8959059247572
 10
3144.4269590534677
 20
1203.8959059247572
 10
3144.4269590534677
 20
1193.8959059247572
  0
LWPOLYLINE
  5
87
330
17
100
AcDbEntity
  8
0
 62
7
100
AcDbPolyline
 90
14
 70
1
 10
3145.9269590534677
 20
1985.8959059247572
 10
3145.9269590534677
 20
1974.3959059247572
 10
3126.926959053584
 20
1974.3959059247572
 10
3126.926959053584
 20
2055.8959059247572
 10
2804.926959053584
 20
2055.8959059247572
 10
2804.926959053584
 20
2055.8959059247572
 10
2804.926959053584
 20
2055.8959059247572
 10
2804.926959053584
 20
2055.8959059247572
 10
2803.4269590534677
 20
2057.3959059247572
 10
2803.4269590534677
 20
2057.3959059247572
 10
3128.4269590534677
 20
2057.3959059247572
 10
3128.4269590534677
 20
1975.8959059247572
 10
3144.4269590534677
 20
1975.8959059247572
 10
3144.4269590534677
 20
1985.8959059247572
  0
LWPOLYLINE
  5
88
330
17
100
AcDbEntity
  8
0
 62
3
100
AcDbPolyline
 90
8
 70
1
 10
3041.9269590534677
 20
2054.3959059247572
 10
3056.9269590534677
 20
2054.3959059247572
 10
3056.9269590534677
 20
1949.3959059247572
 10
3041.9269590534677
 20
1949.3959059247572
 10
3041.9269590534677
 20
1947.8959059247572
 10
3058.426959053584
 20
1947.8959059247572
 10
3058.426959053584
 20
2055.8959059247572
 10
3041.9269590534677
 20
2055.8959059247572
  0
LWPOLYLINE
  5
89
330
17
100
AcDbEntity
  8
0
 62
3
100
AcDbPolyline
 90
8
 70
1
 10
3041.9269590534677
 20
1160.3959059247572
 10
3056.9269590534677
 20
1160.3959059247572
 10
3056.9269590534677
 20
1230.3959059247572
 10
3041.9269590534677
 20
1230.3959059247572
 10
3041.9269590534677
 20
1231.8959059247572
 10
3058.426959053584
 20
1231.8959059247572
 10
3058.426959053584
 20
1158.8959059247572
 10
3041.9269590534677
 20
1158.8959059247572
  0
HATCH
  5
8A
330
17
100
AcDbEntity
  8
0
 48
3.0
100
AcDbHatch
 10
0.0
 20
0.0
 30
0.0
210
0.0
220
0.0
230
1.0
  2
ANSI38
 70
0
 71
0
 91
1
 92
1
 93
4
 72
1
 10
2803.4269590534677
 20
1057.3959059247572
 11
3128.4269590534677
 21
1057.3959059247572
 72
1
 10
3128.4269590534677
 20
1057.3959059247572
 11
3128.4269590534677
 21
1157.3959059247572
 72
1
 10
3128.4269590534677
 20
1157.3959059247572
 11
2803.4269590534677
 21
1157.3959059247572
 72
1
 10
2803.4269590534677
 20
1157.3959059247572
 11
2803.4269590534677
 21
1057.3959059247572
 97
1
330
2C8967
 75
0
 76
1
 52
0.0
 41
50.0
 77
0
 78
2
 53
45.0
 43
6877165.28620521
 44
3816531.3192052417
 45
-220.9708691208
 46
220.9708691208
 79
0
 53
135.0
 43
6877165.28620521
 44
3816531.3192052417
 45
-662.9126073624
 46
220.9708691208
 79
2
 49
781.25
 49
-468.75
 98
1
 10
137543.3057241042
 20
76330.62638410483
  0
LWPOLYLINE
  5
8B
330
17
100
AcDbEntity
  8
0
100
AcDbPolyline
 90
4
 70
1
 10
2803.4269590534677
 20
1057.3959059247572
 10
3128.4269590534677
 20
1057.3959059247572
 10
3128.4269590534677
 20
1157.3959059247572
 10
2803.4269590534677
 20
1157.3959059247572
  0
LWPOLYLINE
  5
8C
330
17
100
AcDbEntity
  8
FIRE PROTECTION
  6
Continuous
100
AcDbPolyline
 90
5
 70
1
 10
3183.497547597275
 20
2032.3959059247572
 10
2803.4269590534677
 20
2032.3959059247572
 10
2803.4269590534677
 20
2072.3959059247572
 10
3014.6975475972577
 20
2072.3959059247572
 10
3183.497547597275
 20
2052.3959059247572
  0
LWPOLYLINE
  5
8D
330
17
100
AcDbEntity
  8
0
 62
7
100
AcDbPolyline
 90
12
 70
1
 10
3673.098040093784
 20
1169.895905923826
 10
3673.098040093784
 20
1158.395905923826
 10
3697.098040093784
 20
1158.395905923826
 10
3697.098040093784
 20
2021.3959059247572
 10
3673.098040093784
 20
2021.3959059247572
 10
3673.098040093784
 20
2007.8959059247572
 10
3674.598040093784
 20
2007.8959059247572
 10
3674.598040093784
 20
2019.8959059247572
 10
3695.598040093784
 20
2019.8959059247572
 10
3695.598040093784
 20
1159.895905923826
 10
3674.598040093784
 20
1159.895905923826
 10
3674.598040093784
 20
1169.895905923826
  0
LWPOLYLINE
  5
8E
330
17
100
AcDbEntity
  8
0
 62
7
100
AcDbPolyline
 90
8
 70
1
 10
3348.598040093784
 20
1158.8959059247572
 10
3348.598040093784
 20
1158.8959059247572
 10
3348.598040093784
 20
2055.8959059247572
 10
3348.598040093784
 20
2055.8959059247572
 10
3348.598040093784
 20
2055.8959059247572
 10
3347.098040093784
 20
2057.3959059247572
 10
3347.098040093784
 20
1157.3959059247572
 10
3348.598040093784
 20
1158.8959059247572
  0
LWPOLYLINE
  5
8F
330
17
100
AcDbEntity
  8
0
 62
7
100
AcDbPolyline
 90
14
 70
1
 10
3689.598040093784
 20
1193.8959059247572
 10
3689.598040093784
 20
1205.3959059247572
 10
3670.598040093784
 20
1205.3959059247572
 10
3670.598040093784
 20
1158.8959059247572
 10
3348.598040093784
 20
1158.8959059247572
 10
3348.598040093784
 20
1158.8959059247572
 10
3358.5980400938715
 20
1158.8959059247572
 10
3358.5980400938715
 20
1158.8959059247572
 10
3348.598040093784
 20
1158.8959059247572
 10
3347.098040093784
 20
1157.3959059247572
 10
3672.098040093784
 20
1157.3959059247572
 10
3672.098040093784
 20
1203.8959059247572
 10
3688.098040093784
 20
1203.8959059247572
 10
3688.098040093784
 20
1193.8959059247572
  0
LWPOLYLINE
  5
90
330
17
100
AcDbEntity
  8
0
 62
7
100
AcDbPolyline
 90
14
 70
1
 10
3689.598040093784
 20
1985.8959059247572
 10
3689.598040093784
 20
1974.3959059247572
 10
3670.598040093784
 20
1974.3959059247572
 10
3670.598040093784
 20
2055.8959059247572
 10
3348.598040093784
 20
2055.8959059247572
 10
3348.598040093784
 20
2055.8959059247572
 10
3348.598040093784
 20
2055.8959059247572
 10
3348.598040093784
 20
2055.8959059247572
 10
3347.098040093784
 20
2057.3959059247572
 10
3347.098040093784
 20
2057.3959059247572
 10
3672.098040093784
 20
2057.3959059247572
 10
3672.098040093784
 20
1975.8959059247572
 10
3688.098040093784
 20
1975.8959059247572
 10
3688.098040093784
 20
1985.8959059247572
  0
HATCH
  5
91
330
17
100
AcDbEntity
  8
0
 48
3.0
100
AcDbHatch
 10
0.0
 20
0.0
 30
0.0
210
0.0
220
0.0
230
1.0
  2
ANSI38
 70
0
 71
0
 91
1
 92
1
 93
4
 72
1
 10
3347.098040093784
 20
1057.3959059247572
 11
3672.098040093784
 21
1057.3959059247572
 72
1
 10
3672.098040093784
 20
1057.3959059247572
 11
3672.098040093784
 21
1157.3959059247572
 72
1
 10
3672.098040093784
 20
1157.3959059247572
 11
3347.098040093784
 21
1157.3959059247572
 72
1
 10
3347.098040093784
 20
1157.3959059247572
 11
3347.098040093784
 21
1057.3959059247572
 97
1
330
2C896E
 75
0
 76
1
 52
0.0
 41
50.0
 77
0
 78
2
 53
45.0
 43
6904348.840257226
 44
3816531.3192052417
 45
-220.9708691208
 46
220.9708691208
 79
0
 53
135.0
 43
6904348.840257226
 44
3816531.3192052417
 45
-662.9126073624
 46
220.9708691208
 79
2
 49
781.25
 49
-468.75
 98
1
 10
138086.9768051445
 20
76330.62638410483
  0
LWPOLYLINE
  5
92
330
17
100
AcDbEntity
  8
0
100
AcDbPolyline
 90
4
 70
1
 10
3347.098040093784
 20
1057.3959059247572
 10
3672.098040093784
 20
1057.3959059247572
 10
3672.098040093784
 20
1157.3959059247572
 10
3347.098040093784
 20
1157.3959059247572
  0
LWPOLYLINE
  5
93
330
17
100
AcDbEntity
  8
FIRE PROTECTION
  6
Continuous
100
AcDbPolyline
 90
5
 70
1
 10
3727.1686286375625
 20
2032.3959059247572
 10
3347.098040093784
 20
2032.3959059247572
 10
3347.098040093784
 20
2072.3959059247572
 10
3558.368628637574
 20
2072.3959059247572
 10
3727.1686286375625
 20
2052.3959059247572
  0
LWPOLYLINE
  5
94
330
17
100
AcDbEntity
  8
0
 62
2
100
AcDbPolyline
 90
6
 70
1
 10
3594.098040093784
 20
1874.8959059247572
 10
3530.098040093784
 20
1874.8959059247572
 42
0.4142135623730951
 10
3522.098040093784
 20
1866.8959059247572
 10
3522.098040093784
 20
1863.8959059247572
 10
3602.098040093784
 20
1863.8959059247572
 10
3602.098040093784
 20
1866.8959059247572
 42
0.4142135623730951
  0
LWPOLYLINE
  5
95
330
17
100
AcDbEntity
  8
0
 62
2
100
AcDbPolyline
 90
6
 70
1
 10
3594.098040093784
 20
1843.8959059247572
 10
3530.098040093784
 20
1843.8959059247572
 42
0.4142135623730951
 10
3522.098040093784
 20
1835.8959059247572
 10
3522.098040093784
 20
1832.8959059247572
 10
3602.098040093784
 20
1832.8959059247572
 10
3602.098040093784
 20
1835.8959059247572
 42
0.4142135623730951
  0
LWPOLYLINE
  5
96
330
17
100
AcDbEntity
  8
0
 62
2
100
AcDbPolyline
 90
6
 70
1
 10
3594.098040093784
 20
1905.8959059247572
 10
3530.098040093784
 20
1905.8959059247572
 42
0.4142135623730951
 10
3522.098040093784
 20
1897.8959059247572
 10
3522.098040093784
 20
1894.8959059247572
 10
3602.098040093784
 20
1894.8959059247572
 10
3602.098040093784
 20
1897.8959059247572
 42
0.4142135623730951
  0
LWPOLYLINE
  5
97
330
17
100
AcDbEntity
  8
0
 62
2
100
AcDbPolyline
 90
6
 70
1
 10
3594.098040093784
 20
1812.8959059247572
 10
3530.098040093784
 20
1812.8959059247572
 42
0.4142135623730951
 10
3522.098040093784
 20
1804.8959059247572
 10
3522.098040093784
 20
1801.8959059247572
 10
3602.098040093784
 20
1801.8959059247572
 10
3602.098040093784
 20
1804.8959059247572
 42
0.4142135623730951
  0
LWPOLYLINE
  5
98
330
17
100
AcDbEntity
  8
0
 62
2
100
AcDbPolyline
 90
6
 70
1
 10
3594.098040093784
 20
1781.8959059247572
 10
3530.098040093784
 20
1781.8959059247572
 42
0.4142135623730951
 10
3522.098040093784
 20
1773.8959059247572
 10
3522.098040093784
 20
1770.8959059247572
 10
3602.098040093784
 20
1770.8959059247572
 10
3602.098040093784
 20
1773.8959059247572
 42
0.4142135623730951
  0
LWPOLYLINE
  5
99
330
17
100
AcDbEntity
  8
0
 62
2
100
AcDbPolyline
 90
6
 70
1
 10
3594.098040093784
 20
1750.8959059247572
 10
3530.098040093784
 20
1750.8959059247572
 42
0.4142135623730951
 10
3522.098040093784
 20
1742.8959059247572
 10
3522.098040093784
 20
1739.8959059247572
 10
3602.098040093784
 20
1739.8959059247572
 10
3602.098040093784
 20
1742.8959059247572
 42
0.4142135623730951
  0
LWPOLYLINE
  5
9A
330
17
100
AcDbEntity
  8
0
 62
2
100
AcDbPolyline
 90
6
 70
1
 10
3474.098040093784
 20
1874.8959059247572
 10
3410.098040093784
 20
1874.8959059247572
 42
0.4142135623730951
 10
3402.098040093784
 20
1866.8959059247572
 10
3402.098040093784
 20
1863.8959059247572
 10
3482.098040093784
 20
1863.8959059247572
 10
3482.098040093784
 20
1866.8959059247572
 42
0.4142135623730951
  0
LWPOLYLINE
  5
9B
330
17
100
AcDbEntity
  8
0
 62
2
100
AcDbPolyline
 90
6
 70
1
 10
3474.098040093784
 20
1843.8959059247572
 10
3410.098040093784
 20
1843.8959059247572
 42
0.4142135623730951
 10
3402.098040093784
 20
1835.8959059247572
 10
3402.098040093784
 20
1832.8959059247572
 10
3482.098040093784
 20
1832.8959059247572
 10
3482.098040093784
 20
1835.8959059247572
 42
0.4142135623730951
  0
LWPOLYLINE
  5
9C
330
17
100
AcDbEntity
  8
0
 62
2
100
AcDbPolyline
 90
6
 70
1
 10
3474.098040093784
 20
1905.8959059247572
 10
3410.098040093784
 20
1905.8959059247572
 42
0.4142135623730951
 10
3402.098040093784
 20
1897.8959059247572
 10
3402.098040093784
 20
1894.8959059247572
 10
3482.098040093784
 20
1894.8959059247572
 10
3482.098040093784
 20
1897.8959059247572
 42
0.4142135623730951
  0
LWPOLYLINE
  5
9D
330
17
100
AcDbEntity
  8
0
 62
2
100
AcDbPolyline
 90
6
 70
1
 10
3474.098040093784
 20
1812.8959059247572
 10
3410.098040093784
 20
1812.8959059247572
 42
0.4142135623730951
 10
3402.098040093784
 20
1804.8959059247572
 10
3402.098040093784
 20
1801.8959059247572
 10
3482.098040093784
 20
1801.8959059247572
 10
3482.098040093784
 20
1804.8959059247572
 42
0.4142135623730951
  0
LWPOLYLINE
  5
9E
330
17
100
AcDbEntity
  8
0
 62
2
100
AcDbPolyline
 90
6
 70
1
 10
3474.098040093784
 20
1781.8959059247572
 10
3410.098040093784
 20
1781.8959059247572
 42
0.4142135623730951
 10
3402.098040093784
 20
1773.8959059247572
 10
3402.098040093784
 20
1770.8959059247572
 10
3482.098040093784
 20
1770.8959059247572
 10
3482.098040093784
 20
1773.8959059247572
 42
0.4142135623730951
  0
LWPOLYLINE
  5
9F
330
17
100
AcDbEntity
  8
0
 62
2
100
AcDbPolyline
 90
6
 70
1
 10
3474.098040093784
 20
1750.8959059247572
 10
3410.098040093784
 20
1750.8959059247572
 42
0.4142135623730951
 10
3402.098040093784
 20
1742.8959059247572
 10
3402.098040093784
 20
1739.8959059247572
 10
3482.098040093784
 20
1739.8959059247572
 10
3482.098040093784
 20
1742.8959059247572
 42
0.4142135623730951
  0
LWPOLYLINE
  5
A0
330
17
100
AcDbEntity
  8
0
 62
2
100
AcDbPolyline
 90
6
 70
1
 10
3594.098040093784
 20
1442.3959059247572
 10
3530.098040093784
 20
1442.3959059247572
 42
0.4142135623730951
 10
3522.098040093784
 20
1434.3959059247572
 10
3522.098040093784
 20
1431.3959059247572
 10
3602.098040093784
 20
1431.3959059247572
 10
3602.098040093784
 20
1434.3959059247572
 42
0.4142135623730951
  0
LWPOLYLINE
  5
A1
330
17
100
AcDbEntity
  8
0
 62
2
100
AcDbPolyline
 90
6
 70
1
 10
3594.098040093784
 20
1411.3959059247572
 10
3530.098040093784
 20
1411.3959059247572
 42
0.4142135623730951
 10
3522.098040093784
 20
1403.3959059247572
 10
3522.098040093784
 20
1400.3959059247572
 10
3602.098040093784
 20
1400.3959059247572
 10
3602.098040093784
 20
1403.3959059247572
 42
0.4142135623730951
  0
LWPOLYLINE
  5
A2
330
17
100
AcDbEntity
  8
0
 62
2
100
AcDbPolyline
 90
6
 70
1
 10
3594.098040093784
 20
1473.3959059247572
 10
3530.098040093784
 20
1473.3959059247572
 42
0.4142135623730951
 10
3522.098040093784
 20
1465.3959059247572
 10
3522.098040093784
 20
1462.3959059247572
 10
3602.098040093784
 20
1462.3959059247572
 10
3602.098040093784
 20
1465.3959059247572
 42
0.4142135623730951
  0
LWPOLYLINE
  5
A3
330
17
100
AcDbEntity
  8
0
 62
2
100
AcDbPolyline
 90
6
 70
1
 10
3594.098040093784
 20
1380.3959059247572
 10
3530.098040093784
 20
1380.3959059247572
 42
0.4142135623730951
 10
3522.098040093784
 20
1372.3959059247572
 10
3522.098040093784
 20
1369.3959059247572
 10
3602.098040093784
 20
1369.3959059247572
 10
3602.098040093784
 20
1372.3959059247572
 42
0.4142135623730951
  0
LWPOLYLINE
  5
A4
330
17
100
AcDbEntity
  8
0
 62
2
100
AcDbPolyline
 90
6
 70
1
 10
3594.098040093784
 20
1349.3959059247572
 10
3530.098040093784
 20
1349.3959059247572
 42
0.4142135623730951
 10
3522.098040093784
 20
1341.3959059247572
 10
3522.098040093784
 20
1338.3959059247572
 10
3602.098040093784
 20
1338.3959059247572
 10
3602.098040093784
 20
1341.3959059247572
 42
0.4142135623730951
  0
LWPOLYLINE
  5
A5
330
17
100
AcDbEntity
  8
0
 62
2
100
AcDbPolyline
 90
6
 70
1
 10
3594.098040093784
 20
1318.3959059247572
 10
3530.098040093784
 20
1318.3959059247572
 42
0.4142135623730951
 10
3522.098040093784
 20
1310.3959059247572
 10
3522.098040093784
 20
1307.3959059247572
 10
3602.098040093784
 20
1307.3959059247572
 10
3602.098040093784
 20
1310.3959059247572
 42
0.4142135623730951
  0
LWPOLYLINE
  5
A6
330
17
100
AcDbEntity
  8
0
 62
2
100
AcDbPolyline
 90
6
 70
1
 10
3474.098040093784
 20
1442.3959059247572
 10
3410.098040093784
 20
1442.3959059247572
 42
0.4142135623730951
 10
3402.098040093784
 20
1434.3959059247572
 10
3402.098040093784
 20
1431.3959059247572
 10
3482.098040093784
 20
1431.3959059247572
 10
3482.098040093784
 20
1434.3959059247572
 42
0.4142135623730951
  0
LWPOLYLINE
  5
A7
330
17
100
AcDbEntity
  8
0
 62
2
100
AcDbPolyline
 90
6
 70
1
 10
3474.098040093784
 20
1411.3959059247572
 10
3410.098040093784
 20
1411.3959059247572
 42
0.4142135623730951
 10
3402.098040093784
 20
1403.3959059247572
 10
3402.098040093784
 20
1400.3959059247572
 10
3482.098040093784
 20
1400.3959059247572
 10
3482.098040093784
 20
1403.3959059247572
 42
0.4142135623730951
  0
LWPOLYLINE
  5
A8
330
17
100
AcDbEntity
  8
0
 62
2
100
AcDbPolyline
 90
6
 70
1
 10
3474.098040093784
 20
1473.3959059247572
 10
3410.098040093784
 20
1473.3959059247572
 42
0.4142135623730951
 10
3402.098040093784
 20
1465.3959059247572
 10
3402.098040093784
 20
1462.3959059247572
 10
3482.098040093784
 20
1462.3959059247572
 10
3482.098040093784
 20
1465.3959059247572
 42
0.4142135623730951
  0
LWPOLYLINE
  5
A9
330
17
100
AcDbEntity
  8
0
 62
2
100
AcDbPolyline
 90
6
 70
1
 10
3474.098040093784
 20
1380.3959059247572
 10
3410.098040093784
 20
1380.3959059247572
 42
0.4142135623730951
 10
3402.098040093784
 20
1372.3959059247572
 10
3402.098040093784
 20
1369.3959059247572
 10
3482.098040093784
 20
1369.3959059247572
 10
3482.098040093784
 20
1372.3959059247572
 42
0.4142135623730951
  0
LWPOLYLINE
  5
AA
330
17
100
AcDbEntity
  8
0
 62
2
100
AcDbPolyline
 90
6
 70
1
 10
3474.098040093784
 20
1349.3959059247572
 10
3410.098040093784
 20
1349.3959059247572
 42
0.4142135623730951
 10
3402.098040093784
 20
1341.3959059247572
 10
3402.098040093784
 20
1338.3959059247572
 10
3482.098040093784
 20
1338.3959059247572
 10
3482.098040093784
 20
1341.3959059247572
 42
0.4142135623730951
  0
LWPOLYLINE
  5
AB
330
17
100
AcDbEntity
  8
0
 62
2
100
AcDbPolyline
 90
6
 70
1
 10
3474.098040093784
 20
1318.3959059247572
 10
3410.098040093784
 20
1318.3959059247572
 42
0.4142135623730951
 10
3402.098040093784
 20
1310.3959059247572
 10
3402.098040093784
 20
1307.3959059247572
 10
3482.098040093784
 20
1307.3959059247572
 10
3482.098040093784
 20
1310.3959059247572
 42
0.4142135623730951
  0
INSERT
  5
AC
330
17
100
AcDbEntity
  8
0
 62
3
100
AcDbBlockReference
 66
1
  2
KHUNG CHUẨN
 10
-21670.084391771525
 20
36701.37554754607
 30
0.0
 41
1.280794680002145
 42
1.280794680002145
 43
1.280794680002145
  0
ATTRIB
  5
AD
330
AC
100
AcDbEntity
  8
0
 62
3
100
AcDbText
 10
1423.3813646705821
 20
96.13354996967246
 30
0.0
 40
25.61589360000001
  1
VÕ TỦ
  7
Arial
100
AcDbAttribute
  2
#03
 70
0
280
1
 71
1
 72
0
  0
ATTRIB
  5
AE
330
AC
100
AcDbEntity
  8
0
 62
3
100
AcDbText
 10
1386.7915138680837
 20
26.156083830166608
 30
0.0
 40
25.61589360000001
  1
1350x750x400
  7
Arial
100
AcDbAttribute
  2
#07
 70
0
280
1
 71
1
 72
0
  0
ATTRIB
  5
AF
330
AC
100
AcDbEntity
  8
0
 62
3
100
AcDbText
 10
2346.9911936377757
 20
96.13354996967246
 30
0.0
 40
25.61589360000001
  1
1
  7
Arial
100
AcDbAttribute
  2
#08
 70
0
280
1
 71
1
 72
0
  0
ATTRIB
  5
B0
330
AC
100
AcDbEntity
  8
0
 62
3
100
AcDbText
 10
2349.7405344872677
 20
28.89741688867798
 30
0.0
 40
25.61589360000001
  1
1.5
  7
Arial
100
AcDbAttribute
  2
#09
 70
0
280
1
 71
1
 72
0
  0
ATTRIB
  5
B1
330
AC
100
AcDbEntity
  8
0
 62
3
100
AcDbText
 10
2747.9892632482806
 20
96.13354996967246
 30
0.0
 40
25.61589360000001
  1
đế sơn màu đen
  7
Arial
100
AcDbAttribute
  2
#10
 70
0
280
1
 71
1
 72
0
  0
ATTRIB
  5
B2
330
AC
100
AcDbEntity
  8
0
 62
3
100
AcDbText
 10
2742.2412399518653
 20
37.74914780809195
 30
0.0
 40
25.61589360000001
  1
TỦ NGOÀI TRỜI 2 LỚP CÁNH
  7
Arial
100
AcDbAttribute
  2
#11
 70
0
280
1
 71
1
 72
0
  0
ATTRIB
  5
B3
330
AC
100
AcDbEntity
  8
0
 62
3
100
AcDbText
 10
655.9531874562672
 20
96.13354996967246
 30
0.0
 40
25.61589360000001
  1
QTK
  7
Arial
100
AcDbAttribute
  2
#02
 70
0
280
1
 71
1
 72
0
  0
ATTRIB
  5
B4
330
AC
100
AcDbEntity
  8
0
 62
3
100
AcDbText
 10
498.48944260468124
 20
28.355284928140463
 30
0.0
 40
25.61589360000001
  1
27.12.2021
  7
Arial
100
AcDbAttribute
  2
#05
 70
0
280
1
 71
1
 72
0
  0
ATTRIB
  5
B5
330
AC
100
AcDbEntity
  8
0
 62
3
100
AcDbText
 10
913.7238476525818
 20
27.444717233796837
 30
0.0
 40
25.61589360000001
  1
29.12.2021
  7
Arial
100
AcDbAttribute
  2
#06
 70
0
280
1
 71
1
 72
0
  0
ATTRIB
  5
B6
330
AC
100
AcDbEntity
  8
0
 62
3
100
AcDbText
 10
174.6045823097811
 20
96.13354996967246
 30
0.0
 40
25.61589360000001
  1
PHÚC
  7
Arial
100
AcDbAttribute
  2
#01
 70
0
280
1
 71
1
 72
0
  0
ATTRIB
  5
B7
330
AC
100
AcDbEntity
  8
0
 62
3
100
AcDbText
 10
135.14442295196932
 20
26.306596782320412
 30
0.0
 40
25.61589360000001
  1
............
  7
Arial
100
AcDbAttribute
  2
#04
 70
0
280
1
 71
1
 72
0
  0
ATTRIB
  5
B8
330
AC
100
AcDbEntity
  8
0
 62
3
100
AcDbText
 10
3697.922323311883
 20
33.61753160331864
 30
0.0
 40
25.61589360000001
  1
.......
  7
Arial
100
AcDbAttribute
  2
#12
 70
0
280
1
 71
1
 72
0
  0
SEQEND
  5
B9
330
17
100
AcDbEntity
  8
0
 62
3
  0
DIMENSION
  5
BA
330
17
100
AcDbEntity
  8
0
 48
3.0
100
AcDbDimension
280
0
  2
*D9
  3
CNC
 10
3153.4269590534677
 20
2145.3277414058975
 30
0.0
 11
2978.426959053584
 21
2180.873443997989
 31
0.0
 70
32
 71
5
 42
350.0
 73
0
 74
0
 75
0
100
AcDbAlignedDimension
 13
2803.4269590534677
 23
2057.3959059247572
 33
0.0
 14
3153.4269590534677
 24
2021.3959059247572
 34
0.0
 50
0.0
100
AcDbRotatedDimension
  0
LWPOLYLINE
  5
BB
330
17
100
AcDbEntity
  8
0
 62
8
100
AcDbPolyline
 90
8
 70
1
 10
1782.48350411086
 20
1941.6459059247572
 10
1782.48350411086
 20
1971.6459059247572
 10
1813.98350411086
 20
1971.6459059247572
 10
1813.98350411086
 20
1988.1459059247572
 10
1812.48350411086
 20
1988.1459059247572
 10
1812.48350411086
 20
1973.1459059247572
 10
1780.98350411086
 20
1973.1459059247572
 10
1780.98350411086
 20
1941.6459059247572
  0
LWPOLYLINE
  5
BC
330
17
100
AcDbEntity
  8
0
 62
8
100
AcDbPolyline
 90
8
 70
1
 10
1148.48350411086
 20
1941.6459059247572
 10
1148.48350411086
 20
1971.6459059247572
 10
1116.98350411086
 20
1971.6459059247572
 10
1116.98350411086
 20
1988.1459059247572
 10
1118.48350411086
 20
1988.1459059247572
 10
1118.48350411086
 20
1973.1459059247572
 10
1149.98350411086
 20
1973.1459059247572
 10
1149.98350411086
 20
1941.6459059247572
  0
LWPOLYLINE
  5
BD
330
17
100
AcDbEntity
  8
0
 62
8
100
AcDbPolyline
 90
8
 70
1
 10
1782.48350411086
 20
1223.1459059247572
 10
1782.48350411086
 20
1193.1459059247572
 10
1813.98350411086
 20
1193.1459059247572
 10
1813.98350411086
 20
1176.6459059247572
 10
1812.48350411086
 20
1176.6459059247572
 10
1812.48350411086
 20
1191.6459059247572
 10
1780.98350411086
 20
1191.6459059247572
 10
1780.98350411086
 20
1223.1459059247572
  0
LWPOLYLINE
  5
BE
330
17
100
AcDbEntity
  8
0
 62
8
100
AcDbPolyline
 90
8
 70
1
 10
1148.48350411086
 20
1223.1459059247572
 10
1148.48350411086
 20
1193.1459059247572
 10
1116.98350411086
 20
1193.1459059247572
 10
1116.98350411086
 20
1176.6459059247572
 10
1118.48350411086
 20
1176.6459059247572
 10
1118.48350411086
 20
1191.6459059247572
 10
1149.98350411086
 20
1191.6459059247572
 10
1149.98350411086
 20
1223.1459059247572
  0
DIMENSION
  5
BF
330
17
100
AcDbEntity
  8
0
 48
3.0
100
AcDbDimension
280
0
  2
*D10
  3
CNC
 10
1898.129430779576
 20
1207.3959059247572
 30
0.0
 11
1898.129430779576
 21
1182.3959059247863
 31
0.0
 70
160
 71
5
 42
50.0
 73
0
 74
0
 75
0
100
AcDbAlignedDimension
 13
1815.48350411086
 23
1157.3959059247572
 33
0.0
 14
1780.98350411086
 24
1207.3959059247572
 34
0.0
 50
90.0
100
AcDbRotatedDimension
  0
DIMENSION
  5
C0
330
17
100
AcDbEntity
  8
0
 48
3.0
100
AcDbDimension
280
0
  2
*D11
  3
CNC
 10
1898.129430779576
 20
1957.3959059247572
 30
0.0
 11
1862.6007813935576
 21
1582.3959059247863
 31
0.0
 70
32
 71
5
 42
750.0
 73
0
 74
0
 75
0
100
AcDbAlignedDimension
 13
1780.98350411086
 23
1207.3959059247572
 33
0.0
 14
1780.98350411086
 24
1957.3959059247572
 34
0.0
 50
90.0
100
AcDbRotatedDimension
  0
DIMENSION
  5
C1
330
17
100
AcDbEntity
  8
0
 48
3.0
100
AcDbDimension
280
0
  2
*D12
  3
CNC
 10
1898.129430779576
 20
2057.3959059247572
 30
0.0
 11
1862.6007813935576
 21
2125.1926317092293
 31
0.0
 70
32
 71
5
 42
100.0
 73
0
 74
0
 75
0
100
AcDbAlignedDimension
 13
1780.98350411086
 23
1957.3959059247572
 33
0.0
 14
1815.48350411086
 24
2057.3959059247572
 34
0.0
 50
90.0
100
AcDbRotatedDimension
  0
MTEXT
  5
C2
330
17
100
AcDbEntity
  8
0
 62
2
100
AcDbMText
 10
457.7137242948811
 20
979.8164584485785
 30
0.0
 40
39.0
 41
725.0000000000146
 46
100.0000000000031
 71
5
 72
5
  1
Mặt cánh ngoài
  0
MTEXT
  5
C3
330
17
100
AcDbEntity
  8
0
 62
2
100
AcDbMText
 10
1428.8204828701855
 20
979.8164584485785
 30
0.0
 40
39.0
 41
775.0000000000146
 46
100.0000000000031
 71
5
 72
5
  1
mặt cánh trong
  0
MTEXT
  5
C4
330
17
100
AcDbEntity
  8
0
 62
2
100
AcDbMText
 10
2929.2429573769623
 20
979.8164584485785
 30
0.0
 40
39.0
 41
775.0000000000146
 46
100.0000000000031
 71
5
 72
5
  1
mặt cắt đứng
  0
MTEXT
  5
C5
330
17
100
AcDbEntity
  8
0
 62
2
100
AcDbMText
 10
432.7137242947647
 20
318.9795952287095
 30
0.0
 40
39.0
 41
775.0000000000146
 46
100.0000000000031
 71
5
 72
5
  1
Đáy tủ
  0
LWPOLYLINE
  5
C6
330
17
100
AcDbEntity
  8
0
 62
7
100
AcDbPolyline
 90
12
 70
1
 10
1129.9835041098704
 20
456.69076562699047
 10
1116.4835041098704
 20
456.69076562699047
 10
1116.4835041098704
 20
432.69076562699047
 10
1814.48350411086
 20
432.69076562699047
 10
1814.48350411086
 20
456.69076562699047
 10
1800.9835041107726
 20
456.69076562699047
 10
1800.9835041107726
 20
455.19076562699047
 10
1812.98350411086
 20
455.19076562699047
 10
1812.98350411086
 20
434.19076562699047
 10
1117.9835041098704
 20
434.19076562699047
 10
1117.9835041098704
 20
455.19076562699047
 10
1129.9835041098704
 20
455.19076562699047
  0
LWPOLYLINE
  5
C7
330
17
100
AcDbEntity
  8
0
 62
7
100
AcDbPolyline
 90
8
 70
1
 10
1164.98350411086
 20
769.1907656269905
 10
1164.98350411086
 20
781.1907656269905
 10
1765.98350411086
 20
781.1907656269905
 10
1765.98350411086
 20
769.1907656269905
 10
1767.48350411086
 20
769.1907656269905
 10
1767.48350411086
 20
782.6907656269905
 10
1163.48350411086
 20
782.6907656269905
 10
1163.48350411086
 20
769.1907656269905
  0
DIMENSION
  5
C8
330
17
100
AcDbEntity
  8
DIM
100
AcDbDimension
280
0
  2
*D13
  3
CNC
 10
1066.2027957101818
 20
432.69076562699047
 30
0.0
 11
1030.6570931181777
 21
607.6907656270196
 31
0.0
 70
32
 71
5
 42
350.0
 73
0
 74
0
 75
0
100
AcDbAlignedDimension
 13
1115.48350411086
 23
782.6907656269905
 33
0.0
 14
1116.4835041098704
 24
432.69076562699047
 34
0.0
 50
90.0
100
AcDbRotatedDimension
  0
LWPOLYLINE
  5
C9
330
17
100
AcDbEntity
  8
0
  6
HIDDEN
 62
2
100
AcDbPolyline
 90
4
 70
1
 10
1290.48350411086
 20
692.6907656269905
 10
1290.48350411086
 20
592.6907656269905
 10
1590.48350411086
 20
592.6907656269905
 10
1590.48350411086
 20
692.6907656269905
  0
LWPOLYLINE
  5
CA
330
17
100
AcDbEntity
  8
0
100
AcDbPolyline
 90
4
 70
1
 10
1275.4835041107726
 20
707.6907656269905
 10
1275.4835041107726
 20
577.6907656269905
 10
1605.48350411086
 20
577.6907656269905
 10
1605.48350411086
 20
707.6907656269905
  0
LWPOLYLINE
  5
CB
330
17
100
AcDbEntity
  8
0
 62
2
100
AcDbPolyline
 90
4
 70
1
 10
1287.3823654431617
 20
695.7919042946887
 10
1278.3823654431617
 20
695.7919042946887
 10
1278.3823654431617
 20
704.7919042946887
 10
1287.3823654431617
 20
704.7919042946887
  0
CIRCLE
  5
CC
330
17
100
AcDbEntity
  8
0
 62
7
100
AcDbCircle
 10
1282.8823654431617
 20
700.2919042946887
 30
0.0
 40
4.0
  0
LWPOLYLINE
  5
CD
330
17
100
AcDbEntity
  8
0
 62
2
100
AcDbPolyline
 90
4
 70
1
 10
1287.3823654431617
 20
589.5896269592922
 10
1278.3823654431617
 20
589.5896269592922
 10
1278.3823654431617
 20
580.5896269592922
 10
1287.3823654431617
 20
580.5896269592922
  0
CIRCLE
  5
CE
330
17
100
AcDbEntity
  8
0
 62
7
100
AcDbCircle
 10
1282.8823654431617
 20
585.0896269592922
 30
0.0
 40
4.0
  0
LWPOLYLINE
  5
CF
330
17
100
AcDbEntity
  8
0
 62
2
100
AcDbPolyline
 90
4
 70
1
 10
1593.5846427785582
 20
695.7919042946887
 10
1602.5846427785582
 20
695.7919042946887
 10
1602.5846427785582
 20
704.7919042946887
 10
1593.5846427785582
 20
704.7919042946887
  0
CIRCLE
  5
D0
330
17
100
AcDbEntity
  8
0
 62
7
100
AcDbCircle
 10
1598.0846427785582
 20
700.2919042946887
 30
0.0
 40
4.0
  0
LWPOLYLINE
  5
D1
330
17
100
AcDbEntity
  8
0
 62
2
100
AcDbPolyline
 90
4
 70
1
 10
1593.5846427785582
 20
589.5896269592922
 10
1602.5846427785582
 20
589.5896269592922
 10
1602.5846427785582
 20
580.5896269592922
 10
1593.5846427785582
 20
580.5896269592922
  0
CIRCLE
  5
D2
330
17
100
AcDbEntity
  8
0
 62
7
100
AcDbCircle
 10
1598.0846427785582
 20
585.0896269592922
 30
0.0
 40
4.0
  0
LWPOLYLINE
  5
D3
330
17
100
AcDbEntity
  8
0
 62
6
100
AcDbPolyline
 90
12
 70
1
 10
1747.98350411086
 20
525.8907656270167
 10
1759.98350411086
 20
525.8907656270167
 10
1759.98350411086
 20
509.8907656270021
 10
1170.98350411086
 20
509.8907656270021
 10
1170.98350411086
 20
525.8907656270167
 10
1182.98350411086
 20
525.8907656270167
 10
1182.98350411086
 20
527.3907656270021
 10
1169.48350411086
 20
527.3907656270021
 10
1169.48350411086
 20
508.3907656270021
 10
1761.48350411086
 20
508.3907656270021
 10
1761.48350411086
 20
527.3907656270021
 10
1747.98350411086
 20
527.3907656270021
  0
LWPOLYLINE
  5
D4
330
17
100
AcDbEntity
  8
0
 62
7
100
AcDbPolyline
 90
14
 70
1
 10
1149.98350411086
 20
438.19076562699047
 10
1163.48350411086
 20
438.19076562699047
 10
1163.48350411086
 20
459.19076562699047
 10
1116.98350411086
 20
459.19076562699047
 10
1116.98350411086
 20
781.1907656269905
 10
1161.98350411086
 20
781.1907656269905
 10
1161.98350411086
 20
769.1907656269905
 10
1163.48350411086
 20
769.1907656269905
 10
1163.48350411086
 20
782.6907656269905
 10
1115.48350411086
 20
782.6907656269905
 10
1115.48350411086
 20
457.69076562699047
 10
1161.98350411086
 20
457.69076562699047
 10
1161.98350411086
 20
439.69076562699047
 10
1149.98350411086
 20
439.69076562699047
  0
LWPOLYLINE
  5
D5
330
17
100
AcDbEntity
  8
0
 62
7
100
AcDbPolyline
 90
14
 70
1
 10
1780.98350411086
 20
438.19076562699047
 10
1767.48350411086
 20
438.19076562699047
 10
1767.48350411086
 20
459.19076562699047
 10
1813.98350411086
 20
459.19076562699047
 10
1813.98350411086
 20
781.1907656269905
 10
1768.98350411086
 20
781.1907656269905
 10
1768.98350411086
 20
769.1907656269905
 10
1767.48350411086
 20
769.1907656269905
 10
1767.48350411086
 20
782.6907656269905
 10
1815.48350411086
 20
782.6907656269905
 10
1815.48350411086
 20
457.69076562699047
 10
1768.98350411086
 20
457.69076562699047
 10
1768.98350411086
 20
439.69076562699047
 10
1780.98350411086
 20
439.69076562699047
  0
LWPOLYLINE
  5
D6
330
17
100
AcDbEntity
  8
0
 62
3
100
AcDbPolyline
 90
8
 70
1
 10
1812.48350411086
 20
544.1907656269905
 10
1812.48350411086
 20
529.1907656269905
 10
1742.48350411086
 20
529.1907656269905
 10
1742.48350411086
 20
544.1907656269905
 10
1740.98350411086
 20
544.1907656269905
 10
1740.98350411086
 20
527.6907656269905
 10
1813.98350411086
 20
527.6907656269905
 10
1813.98350411086
 20
544.1907656269905
  0
DIMENSION
  5
D7
330
17
100
AcDbEntity
  8
DIM
100
AcDbDimension
280
0
  2
*D14
  3
CNC
 10
1815.48350411086
 20
810.6028242580069
 30
0.0
 11
1465.48350411086
 21
846.1314736440982
 31
0.0
 70
32
 71
5
 42
700.0
 73
0
 74
0
 75
0
100
AcDbAlignedDimension
 13
1115.48350411086
 23
782.6907656269905
 33
0.0
 14
1815.48350411086
 24
782.6907656269905
 34
0.0
 50
0.0
100
AcDbRotatedDimension
  0
INSERT
  5
D8
330
17
100
AcDbEntity
  8
0
 62
7
100
AcDbBlockReference
  2
HL011-1-4
 10
1780.98350411086
 20
457.69076562699047
 30
0.0
 41
-1.0
 50
180.0
  0
LWPOLYLINE
  5
DA
330
17
100
AcDbEntity
  8
0
 62
3
100
AcDbPolyline
 90
8
 70
1
 10
1118.48350411086
 20
544.1907656269905
 10
1118.48350411086
 20
529.1907656269905
 10
1188.48350411086
 20
529.1907656269905
 10
1188.48350411086
 20
544.1907656269905
 10
1189.98350411086
 20
544.1907656269905
 10
1189.98350411086
 20
527.6907656269905
 10
1116.98350411086
 20
527.6907656269905
 10
1116.98350411086
 20
544.1907656269905
  0
INSERT
  5
DB
330
17
100
AcDbEntity
  8
0
 62
7
100
AcDbBlockReference
  2
HL036-1-2
 10
1758.8835041108832
 20
527.6907656269905
 30
0.0
 41
-1.0
 50
180.0
  0
MTEXT
  5
DD
330
17
100
AcDbEntity
  8
0
 62
2
100
AcDbMText
 10
1379.0993421123712
 20
318.9795952287095
 30
0.0
 40
39.0
 41
775.0000000000146
 46
100.0000000000031
 71
5
 72
5
  1
Mặt cắt ngang
  0
LWPOLYLINE
  5
DE
330
17
100
AcDbEntity
  8
0
 48
3.0
100
AcDbPolyline
 90
4
 70
1
 10
169.0978862932825
 20
782.6907656269905
 10
869.0978862932825
 20
782.6907656269905
 10
869.0978862932825
 20
457.69076562699047
 10
169.0978862932825
 20
457.69076562699047
  0
HATCH
  5
DF
330
17
100
AcDbEntity
  8
0
 48
3.0
100
AcDbHatch
 10
0.0
 20
0.0
 30
0.0
210
0.0
220
0.0
230
1.0
  2
ANSI31
 70
0
 71
0
 91
1
 92
1
 93
4
 72
1
 10
868.0978862932825
 20
456.69076562699047
 11
170.09788629238028
 21
456.69076562699047
 72
1
 10
170.09788629238028
 20
456.69076562699047
 11
170.09788629238028
 21
432.69076562699047
 72
1
 10
170.09788629238028
 20
432.69076562699047
 11
868.0978862932825
 21
432.69076562699047
 72
1
 10
868.0978862932825
 20
432.69076562699047
 11
868.0978862932825
 21
456.69076562699047
 97
1
330
2C89D1
 75
0
 76
1
 52
90.0
 41
50.0
 77
0
 78
1
 53
225.0
 43
-3819031.3192052427
 44
6745448.832567199
 45
220.9708691208
 46
-220.9708691208
 79
0
 98
1
 10
134908.976651344
 20
76380.62638410483
  0
LWPOLYLINE
  5
E0
330
17
100
AcDbEntity
  8
0
 48
3.0
100
AcDbPolyline
 90
4
 70
1
 10
868.0978862932825
 20
456.69076562699047
 10
170.09788629238028
 20
456.69076562699047
 10
170.09788629238028
 20
432.69076562699047
 10
868.0978862932825
 20
432.69076562699047
  0
LWPOLYLINE
  5
E1
330
17
100
AcDbEntity
  8
0
100
AcDbPolyline
 90
4
 70
1
 10
1969.1220988683635
 20
1157.3959059247572
 10
2669.1220988683635
 20
1157.3959059247572
 10
2669.1220988683635
 20
2057.3959059247572
 10
1969.1220988683635
 20
2057.3959059247572
  0
LWPOLYLINE
  5
E2
330
17
100
AcDbEntity
  8
0
100
AcDbPolyline
 90
4
 70
1
 10
1970.6220988683635
 20
1158.8959059247572
 10
2667.6220988683635
 20
1158.8959059247572
 10
2667.6220988683635
 20
2055.8959059247572
 10
1970.6220988683635
 20
2055.8959059247572
  0
LWPOLYLINE
  5
E3
330
17
100
AcDbEntity
  8
0
100
AcDbPolyline
 90
4
 70
1
 10
2017.1220988683635
 20
1205.3959059247572
 10
2621.1220988683635
 20
1205.3959059247572
 10
2621.1220988683635
 20
1974.3959059247572
 10
2017.1220988683635
 20
1974.3959059247572
  0
LWPOLYLINE
  5
E4
330
17
100
AcDbEntity
  8
0
 62
3
100
AcDbPolyline
 90
4
 70
1
 10
2043.6220988683635
 20
1231.8959059247572
 10
2594.6220988683635
 20
1231.8959059247572
 10
2594.6220988683635
 20
1947.8959059247572
 10
2043.6220988683635
 20
1947.8959059247572
  0
LWPOLYLINE
  5
E5
330
17
100
AcDbEntity
  8
0
 62
3
100
AcDbPolyline
 90
4
 70
1
 10
2042.1220988683635
 20
1230.3959059247572
 10
2596.1220988683635
 20
1230.3959059247572
 10
2596.1220988683635
 20
1949.3959059247572
 10
2042.1220988683635
 20
1949.3959059247572
  0
DIMENSION
  5
E6
330
17
100
AcDbEntity
  8
DIM
100
AcDbDimension
280
0
  2
*D15
  3
CNC
 10
2669.1220988683635
 20
2148.3794535629277
 30
0.0
 11
2319.1220988683635
 21
2183.908102949019
 31
0.0
 70
32
 71
5
 42
700.0
 73
0
 74
0
 75
0
100
AcDbAlignedDimension
 13
1969.1220988683635
 23
2057.3959059247572
 33
0.0
 14
2669.1220988683635
 24
2057.3959059247572
 34
0.0
 50
0.0
100
AcDbRotatedDimension
  0
HATCH
  5
E7
330
17
100
AcDbEntity
  8
0
 48
3.0
100
AcDbHatch
 10
0.0
 20
0.0
 30
0.0
210
0.0
220
0.0
230
1.0
  2
ANSI38
 70
0
 71
0
 91
1
 92
1
 93
4
 72
1
 10
1969.1220988683635
 20
1057.3959059247572
 11
2669.1220988683635
 21
1057.3959059247572
 72
1
 10
2669.1220988683635
 20
1057.3959059247572
 11
2669.1220988683635
 21
1157.3959059247572
 72
1
 10
2669.1220988683635
 20
1157.3959059247572
 11
1969.1220988683635
 21
1157.3959059247572
 72
1
 10
1969.1220988683635
 20
1157.3959059247572
 11
1969.1220988683635
 21
1057.3959059247572
 97
1
330
2C98C6
 75
0
 76
1
 52
0.0
 41
50.0
 77
0
 78
2
 53
45.0
 43
6835450.0431959545
 44
3816531.3192052417
 45
-220.9708691208
 46
220.9708691208
 79
0
 53
135.0
 43
6835450.0431959545
 44
3816531.3192052417
 45
-662.9126073624
 46
220.9708691208
 79
2
 49
781.25
 49
-468.75
 98
1
 10
136709.0008639191
 20
76330.62638410483
  0
LWPOLYLINE
  5
E8
330
17
100
AcDbEntity
  8
0
100
AcDbPolyline
 90
4
 70
1
 10
1969.1220988683635
 20
1057.3959059247572
 10
2669.1220988683635
 20
1057.3959059247572
 10
2669.1220988683635
 20
1157.3959059247572
 10
1969.1220988683635
 20
1157.3959059247572
  0
INSERT
  5
E9
330
17
100
AcDbEntity
  8
0
 62
7
100
AcDbBlockReference
  2
HL011-1-3
 10
2634.6220988683635
 20
1237.3959059247572
 30
0.0
  0
LWPOLYLINE
  5
EB
330
17
100
AcDbEntity
  8
0
 62
2
100
AcDbPolyline
 90
4
 70
1
 10
2637.6220988683635
 20
1295.8959059247572
 42
-0.9999999999999998
 10
2637.6220988683635
 20
1303.8959059247572
 10
2642.6220988683635
 20
1303.8959059247572
 42
-0.9999999999999998
 10
2642.6220988683635
 20
1295.8959059247572
  0
LWPOLYLINE
  5
EC
330
17
100
AcDbEntity
  8
0
 62
2
100
AcDbPolyline
 90
4
 70
1
 10
2637.6220988683635
 20
1270.8959059247572
 42
-0.9999999999999998
 10
2637.6220988683635
 20
1278.8959059247572
 10
2642.6220988683635
 20
1278.8959059247572
 42
-0.9999999999999998
 10
2642.6220988683635
 20
1270.8959059247572
  0
LWPOLYLINE
  5
ED
330
17
100
AcDbEntity
  8
0
 62
2
100
AcDbPolyline
 90
4
 70
1
 10
2637.6220988683635
 20
1245.8959059247572
 42
-0.9999999999999998
 10
2637.6220988683635
 20
1253.8959059247572
 10
2642.6220988683635
 20
1253.8959059247572
 42
-0.9999999999999998
 10
2642.6220988683635
 20
1245.8959059247572
  0
INSERT
  5
EE
330
17
100
AcDbEntity
  8
0
 62
7
100
AcDbBlockReference
  2
HL011-1-3
 10
2634.6220988683635
 20
1942.3959059247572
 30
0.0
 41
-1.0
 50
180.0
  0
LWPOLYLINE
  5
F0
330
17
100
AcDbEntity
  8
0
 62
2
100
AcDbPolyline
 90
4
 70
1
 10
2637.6220988683635
 20
1883.8959059247572
 42
0.9999999999999998
 10
2637.6220988683635
 20
1875.8959059247572
 10
2642.6220988683635
 20
1875.8959059247572
 42
0.9999999999999998
 10
2642.6220988683635
 20
1883.8959059247572
  0
LWPOLYLINE
  5
F1
330
17
100
AcDbEntity
  8
0
 62
2
100
AcDbPolyline
 90
4
 70
1
 10
2637.6220988683635
 20
1908.8959059247572
 42
0.9999999999999998
 10
2637.6220988683635
 20
1900.8959059247572
 10
2642.6220988683635
 20
1900.8959059247572
 42
0.9999999999999998
 10
2642.6220988683635
 20
1908.8959059247572
  0
LWPOLYLINE
  5
F2
330
17
100
AcDbEntity
  8
0
 62
2
100
AcDbPolyline
 90
4
 70
1
 10
2637.6220988683635
 20
1933.8959059247572
 42
0.9999999999999998
 10
2637.6220988683635
 20
1925.8959059247572
 10
2642.6220988683635
 20
1925.8959059247572
 42
0.9999999999999998
 10
2642.6220988683635
 20
1933.8959059247572
  0
INSERT
  5
F3
330
17
100
AcDbEntity
  8
0
 62
7
100
AcDbBlockReference
  2
ovan6x9
 10
2603.822158864379
 20
1869.3959185015701
 30
0.0
  0
INSERT
  5
F5
330
17
100
AcDbEntity
  8
0
 62
7
100
AcDbBlockReference
  2
ovan6x9
 10
2603.822158864379
 20
1852.8959185015701
 30
0.0
  0
INSERT
  5
F7
330
17
100
AcDbEntity
  8
0
 62
7
100
AcDbBlockReference
  2
HL036-1-1
 10
2596.12209886816
 20
1839.8959059247572
 30
0.0
  0
INSERT
  5
F9
330
17
100
AcDbEntity
  8
0
 62
7
100
AcDbBlockReference
  2
ovan6x9
 10
2603.822158864379
 20
1310.3958933479444
 30
0.0
 41
-1.0
 50
180.0
  0
INSERT
  5
FB
330
17
100
AcDbEntity
  8
0
 62
7
100
AcDbBlockReference
  2
ovan6x9
 10
2603.822158864379
 20
1326.895893347959
 30
0.0
 41
-1.0
 50
180.0
  0
INSERT
  5
FD
330
17
100
AcDbEntity
  8
0
 62
7
100
AcDbBlockReference
  2
HL036-1-1
 10
2596.12209886816
 20
1339.8959059247572
 30
0.0
 41
-1.0
 50
180.0
  0
LWPOLYLINE
  5
FF
330
17
100
AcDbEntity
  8
0
 62
8
100
AcDbPolyline
 90
8
 70
1
 10
2636.1220988683635
 20
1941.6459059247572
 10
2636.1220988683635
 20
1971.6459059247572
 10
2667.6220988683635
 20
1971.6459059247572
 10
2667.6220988683635
 20
1988.1459059247572
 10
2666.1220988683635
 20
1988.1459059247572
 10
2666.1220988683635
 20
1973.1459059247572
 10
2634.6220988683635
 20
1973.1459059247572
 10
2634.6220988683635
 20
1941.6459059247572
  0
LWPOLYLINE
  5
100
330
17
100
AcDbEntity
  8
0
 62
8
100
AcDbPolyline
 90
8
 70
1
 10
2002.1220988683635
 20
1941.6459059247572
 10
2002.1220988683635
 20
1971.6459059247572
 10
1970.6220988683635
 20
1971.6459059247572
 10
1970.6220988683635
 20
1988.1459059247572
 10
1972.1220988683635
 20
1988.1459059247572
 10
1972.1220988683635
 20
1973.1459059247572
 10
2003.6220988683635
 20
1973.1459059247572
 10
2003.6220988683635
 20
1941.6459059247572
  0
LWPOLYLINE
  5
101
330
17
100
AcDbEntity
  8
0
 62
8
100
AcDbPolyline
 90
8
 70
1
 10
2636.1220988683635
 20
1223.1459059247572
 10
2636.1220988683635
 20
1193.1459059247572
 10
2667.6220988683635
 20
1193.1459059247572
 10
2667.6220988683635
 20
1176.6459059247572
 10
2666.1220988683635
 20
1176.6459059247572
 10
2666.1220988683635
 20
1191.6459059247572
 10
2634.6220988683635
 20
1191.6459059247572
 10
2634.6220988683635
 20
1223.1459059247572
  0
LWPOLYLINE
  5
102
330
17
100
AcDbEntity
  8
0
 62
8
100
AcDbPolyline
 90
8
 70
1
 10
2002.1220988683635
 20
1223.1459059247572
 10
2002.1220988683635
 20
1193.1459059247572
 10
1970.6220988683635
 20
1193.1459059247572
 10
1970.6220988683635
 20
1176.6459059247572
 10
1972.1220988683635
 20
1176.6459059247572
 10
1972.1220988683635
 20
1191.6459059247572
 10
2003.6220988683635
 20
1191.6459059247572
 10
2003.6220988683635
 20
1223.1459059247572
  0
DIMENSION
  5
103
330
17
100
AcDbEntity
  8
0
 48
3.0
100
AcDbDimension
280
0
  2
*D16
  3
CNC
 10
2751.768025537167
 20
1207.3959059247572
 30
0.0
 11
2751.768025537167
 21
1182.3959059247863
 31
0.0
 70
160
 71
5
 42
50.0
 73
0
 74
0
 75
0
100
AcDbAlignedDimension
 13
2669.1220988683635
 23
1157.3959059247572
 33
0.0
 14
2634.6220988683635
 24
1207.3959059247572
 34
0.0
 50
90.0
100
AcDbRotatedDimension
  0
DIMENSION
  5
104
330
17
100
AcDbEntity
  8
0
 48
3.0
100
AcDbDimension
280
0
  2
*D17
  3
CNC
 10
2751.768025537167
 20
1957.3959059247572
 30
0.0
 11
2716.239376151061
 21
1582.3959059247863
 31
0.0
 70
32
 71
5
 42
750.0
 73
0
 74
0
 75
0
100
AcDbAlignedDimension
 13
2634.6220988683635
 23
1207.3959059247572
 33
0.0
 14
2634.6220988683635
 24
1957.3959059247572
 34
0.0
 50
90.0
100
AcDbRotatedDimension
  0
DIMENSION
  5
105
330
17
100
AcDbEntity
  8
0
 48
3.0
100
AcDbDimension
280
0
  2
*D18
  3
CNC
 10
2751.768025537167
 20
2057.3959059247572
 30
0.0
 11
2716.239376151061
 21
2125.1926317092293
 31
0.0
 70
32
 71
5
 42
100.0
 73
0
 74
0
 75
0
100
AcDbAlignedDimension
 13
2634.6220988683635
 23
1957.3959059247572
 33
0.0
 14
2669.1220988683635
 24
2057.3959059247572
 34
0.0
 50
90.0
100
AcDbRotatedDimension
  0
LWPOLYLINE
  5
106
330
17
100
AcDbEntity
  8
0
 62
7
100
AcDbPolyline
 90
12
 70
1
 10
1983.6220988674613
 20
456.69076562699047
 10
1970.1220988674613
 20
456.69076562699047
 10
1970.1220988674613
 20
432.69076562699047
 10
2668.1220988683635
 20
432.69076562699047
 10
2668.1220988683635
 20
456.69076562699047
 10
2654.6220988683635
 20
456.69076562699047
 10
2654.6220988683635
 20
455.19076562699047
 10
2666.6220988683635
 20
455.19076562699047
 10
2666.6220988683635
 20
434.19076562699047
 10
1971.6220988674613
 20
434.19076562699047
 10
1971.6220988674613
 20
455.19076562699047
 10
1983.6220988674613
 20
455.19076562699047
  0
LWPOLYLINE
  5
107
330
17
100
AcDbEntity
  8
0
 62
7
100
AcDbPolyline
 90
8
 70
1
 10
2018.6220988683635
 20
769.1907656269905
 10
2018.6220988683635
 20
781.1907656269905
 10
2619.6220988683635
 20
781.1907656269905
 10
2619.6220988683635
 20
769.1907656269905
 10
2621.1220988683635
 20
769.1907656269905
 10
2621.1220988683635
 20
782.6907656269905
 10
2017.1220988683635
 20
782.6907656269905
 10
2017.1220988683635
 20
769.1907656269905
  0
DIMENSION
  5
108
330
17
100
AcDbEntity
  8
DIM
100
AcDbDimension
280
0
  2
*D19
  3
CNC
 10
1919.8413904677727
 20
432.69076562699047
 30
0.0
 11
1884.2956878756813
 21
607.6907656270196
 31
0.0
 70
32
 71
5
 42
350.0
 73
0
 74
0
 75
0
100
AcDbAlignedDimension
 13
1969.1220988683635
 23
782.6907656269905
 33
0.0
 14
1970.1220988674613
 24
432.69076562699047
 34
0.0
 50
90.0
100
AcDbRotatedDimension
  0
LWPOLYLINE
  5
109
330
17
100
AcDbEntity
  8
0
  6
HIDDEN
 62
2
100
AcDbPolyline
 90
4
 70
1
 10
2144.1220988683635
 20
692.6907656269905
 10
2144.1220988683635
 20
592.6907656269905
 10
2444.1220988683635
 20
592.6907656269905
 10
2444.1220988683635
 20
692.6907656269905
  0
LWPOLYLINE
  5
10A
330
17
100
AcDbEntity
  8
0
100
AcDbPolyline
 90
4
 70
1
 10
2129.1220988683635
 20
707.6907656269905
 10
2129.1220988683635
 20
577.6907656269905
 10
2459.1220988683635
 20
577.6907656269905
 10
2459.1220988683635
 20
707.6907656269905
  0
LWPOLYLINE
  5
10B
330
17
100
AcDbEntity
  8
0
 62
2
100
AcDbPolyline
 90
4
 70
1
 10
2141.0209602006653
 20
695.7919042946887
 10
2132.0209602006653
 20
695.7919042946887
 10
2132.0209602006653
 20
704.7919042946887
 10
2141.0209602006653
 20
704.7919042946887
  0
CIRCLE
  5
10C
330
17
100
AcDbEntity
  8
0
 62
7
100
AcDbCircle
 10
2136.5209602006653
 20
700.2919042946887
 30
0.0
 40
4.0
  0
LWPOLYLINE
  5
10D
330
17
100
AcDbEntity
  8
0
 62
2
100
AcDbPolyline
 90
4
 70
1
 10
2141.0209602006653
 20
589.5896269592922
 10
2132.0209602006653
 20
589.5896269592922
 10
2132.0209602006653
 20
580.5896269592922
 10
2141.0209602006653
 20
580.5896269592922
  0
CIRCLE
  5
10E
330
17
100
AcDbEntity
  8
0
 62
7
100
AcDbCircle
 10
2136.5209602006653
 20
585.0896269592922
 30
0.0
 40
4.0
  0
LWPOLYLINE
  5
10F
330
17
100
AcDbEntity
  8
0
 62
2
100
AcDbPolyline
 90
4
 70
1
 10
2447.223237536062
 20
695.7919042946887
 10
2456.223237536062
 20
695.7919042946887
 10
2456.223237536062
 20
704.7919042946887
 10
2447.223237536062
 20
704.7919042946887
  0
CIRCLE
  5
110
330
17
100
AcDbEntity
  8
0
 62
7
100
AcDbCircle
 10
2451.723237536062
 20
700.2919042946887
 30
0.0
 40
4.0
  0
LWPOLYLINE
  5
111
330
17
100
AcDbEntity
  8
0
 62
2
100
AcDbPolyline
 90
4
 70
1
 10
2447.223237536062
 20
589.5896269592922
 10
2456.223237536062
 20
589.5896269592922
 10
2456.223237536062
 20
580.5896269592922
 10
2447.223237536062
 20
580.5896269592922
  0
CIRCLE
  5
112
330
17
100
AcDbEntity
  8
0
 62
7
100
AcDbCircle
 10
2451.723237536062
 20
585.0896269592922
 30
0.0
 40
4.0
  0
LWPOLYLINE
  5
113
330
17
100
AcDbEntity
  8
0
 62
6
100
AcDbPolyline
 90
12
 70
1
 10
2601.6220988683635
 20
525.8907656270167
 10
2613.6220988683635
 20
525.8907656270167
 10
2613.6220988683635
 20
509.8907656270021
 10
2024.6220988683635
 20
509.8907656270021
 10
2024.6220988683635
 20
525.8907656270167
 10
2036.6220988683635
 20
525.8907656270167
 10
2036.6220988683635
 20
527.3907656270021
 10
2023.1220988683635
 20
527.3907656270021
 10
2023.1220988683635
 20
508.3907656270021
 10
2615.1220988683635
 20
508.3907656270021
 10
2615.1220988683635
 20
527.3907656270021
 10
2601.6220988683635
 20
527.3907656270021
  0
LWPOLYLINE
  5
114
330
17
100
AcDbEntity
  8
0
 62
7
100
AcDbPolyline
 90
14
 70
1
 10
2003.6220988683635
 20
438.19076562699047
 10
2017.1220988683635
 20
438.19076562699047
 10
2017.1220988683635
 20
459.19076562699047
 10
1970.6220988683635
 20
459.19076562699047
 10
1970.6220988683635
 20
781.1907656269905
 10
2015.6220988683635
 20
781.1907656269905
 10
2015.6220988683635
 20
769.1907656269905
 10
2017.1220988683635
 20
769.1907656269905
 10
2017.1220988683635
 20
782.6907656269905
 10
1969.1220988683635
 20
782.6907656269905
 10
1969.1220988683635
 20
457.69076562699047
 10
2015.6220988683635
 20
457.69076562699047
 10
2015.6220988683635
 20
439.69076562699047
 10
2003.6220988683635
 20
439.69076562699047
  0
LWPOLYLINE
  5
115
330
17
100
AcDbEntity
  8
0
 62
7
100
AcDbPolyline
 90
14
 70
1
 10
2634.6220988683635
 20
438.19076562699047
 10
2621.1220988683635
 20
438.19076562699047
 10
2621.1220988683635
 20
459.19076562699047
 10
2667.6220988683635
 20
459.19076562699047
 10
2667.6220988683635
 20
781.1907656269905
 10
2622.6220988683635
 20
781.1907656269905
 10
2622.6220988683635
 20
769.1907656269905
 10
2621.1220988683635
 20
769.1907656269905
 10
2621.1220988683635
 20
782.6907656269905
 10
2669.1220988683635
 20
782.6907656269905
 10
2669.1220988683635
 20
457.69076562699047
 10
2622.6220988683635
 20
457.69076562699047
 10
2622.6220988683635
 20
439.69076562699047
 10
2634.6220988683635
 20
439.69076562699047
  0
LWPOLYLINE
  5
116
330
17
100
AcDbEntity
  8
0
 62
3
100
AcDbPolyline
 90
8
 70
1
 10
2666.1220988683635
 20
544.1907656269905
 10
2666.1220988683635
 20
529.1907656269905
 10
2596.1220988683635
 20
529.1907656269905
 10
2596.1220988683635
 20
544.1907656269905
 10
2594.6220988683635
 20
544.1907656269905
 10
2594.6220988683635
 20
527.6907656269905
 10
2667.6220988683635
 20
527.6907656269905
 10
2667.6220988683635
 20
544.1907656269905
  0
DIMENSION
  5
117
330
17
100
AcDbEntity
  8
DIM
100
AcDbDimension
280
0
  2
*D20
  3
CNC
 10
2669.1220988683635
 20
810.6028242580069
 30
0.0
 11
2319.1220988683635
 21
846.1314736440982
 31
0.0
 70
32
 71
5
 42
700.0
 73
0
 74
0
 75
0
100
AcDbAlignedDimension
 13
1969.1220988683635
 23
782.6907656269905
 33
0.0
 14
2669.1220988683635
 24
782.6907656269905
 34
0.0
 50
0.0
100
AcDbRotatedDimension
  0
INSERT
  5
118
330
17
100
AcDbEntity
  8
0
 62
7
100
AcDbBlockReference
  2
HL011-1-4
 10
2634.6220988683635
 20
457.69076562699047
 30
0.0
 41
-1.0
 50
180.0
  0
LWPOLYLINE
  5
11A
330
17
100
AcDbEntity
  8
0
 62
3
100
AcDbPolyline
 90
8
 70
1
 10
1972.1220988683635
 20
544.1907656269905
 10
1972.1220988683635
 20
529.1907656269905
 10
2042.1220988683635
 20
529.1907656269905
 10
2042.1220988683635
 20
544.1907656269905
 10
2043.6220988683635
 20
544.1907656269905
 10
2043.6220988683635
 20
527.6907656269905
 10
1970.6220988683635
 20
527.6907656269905
 10
1970.6220988683635
 20
544.1907656269905
  0
INSERT
  5
11B
330
17
100
AcDbEntity
  8
0
 62
7
100
AcDbBlockReference
  2
HL036-1-2
 10
2612.5220988683577
 20
527.6907656269905
 30
0.0
 41
-1.0
 50
180.0
  0
MTEXT
  5
11D
330
17
100
AcDbEntity
  8
0
 62
2
100
AcDbMText
 10
2232.737936869962
 20
318.9795952287095
 30
0.0
 40
39.0
 41
775.0000000000146
 46
100.0000000000031
 71
5
 72
5
  1
Mặt cắt ngang
  0
LWPOLYLINE
  5
11E
330
17
100
AcDbEntity
  8
0
 62
1
100
AcDbPolyline
 90
4
 70
1
 10
2048.6220988683635
 20
1236.8959059247572
 10
2589.6220988683635
 20
1236.8959059247572
 10
2589.6220988683635
 20
1942.8959059247572
 10
2048.6220988683635
 20
1942.8959059247572
  0
LWPOLYLINE
  5
11F
330
17
100
AcDbEntity
  8
0
  6
HIDDENX2
 62
1
100
AcDbPolyline
 90
4
 70
1
 10
2050.1220988683635
 20
1238.3959059247572
 10
2588.1220988683635
 20
1238.3959059247572
 10
2588.1220988683635
 20
1941.3959059247572
 10
2050.1220988683635
 20
1941.3959059247572
  0
ENDSEC
  0
SECTION
  2
OBJECTS
  0
DICTIONARY
  5
A
330
0
100
AcDbDictionary
281
1
  3
ACAD_COLOR
350
B
  3
ACAD_GROUP
350
C
  3
ACAD_LAYOUT
350
D
  3
ACAD_MATERIAL
350
E
  3
ACAD_MLEADERSTYLE
350
F
  3
ACAD_MLINESTYLE
350
10
  3
ACAD_PLOTSETTINGS
350
11
  3
ACAD_PLOTSTYLENAME
350
12
  3
ACAD_SCALELIST
350
14
  3
ACAD_TABLESTYLE
350
15
  3
ACAD_VISUALSTYLE
350
16
  3
EZDXF_META
350
2D
  0
DICTIONARY
  5
B
330
A
100
AcDbDictionary
281
1
  0
DICTIONARY
  5
C
330
A
100
AcDbDictionary
281
1
  0
DICTIONARY
  5
D
330
A
100
AcDbDictionary
281
1
  3
Model
350
1A
  3
Layout1
350
1E
  0
DICTIONARY
  5
E
330
A
100
AcDbDictionary
281
1
  3
ByBlock
350
1F
  3
ByLayer
350
20
  3
Global
350
21
  0
DICTIONARY
  5
F
330
A
100
AcDbDictionary
281
1
  3
Standard
350
2C
  0
DICTIONARY
  5
10
330
A
100
AcDbDictionary
281
1
  3
Standard
350
22
  0
DICTIONARY
  5
11
330
A
100
AcDbDictionary
281
1
  0
ACDBDICTIONARYWDFLT
  5
12
330
A
100
AcDbDictionary
281
1
  3
Normal
350
13
100
AcDbDictionaryWithDefault
340
13
  0
ACDBPLACEHOLDER
  5
13
330
12
  0
DICTIONARY
  5
14
330
A
100
AcDbDictionary
281
1
  0
DICTIONARY
  5
15
330
A
100
AcDbDictionary
281
1
  0
DICTIONARY
  5
16
330
A
100
AcDbDictionary
281
1
  0
LAYOUT
  5
1A
330
D
100
AcDbPlotSettings
  1

  4
A3
  6

 40
7.5
 41
20.0
 42
7.5
 43
20.0
 44
420.0
 45
297.0
 46
0.0
 47
0.0
 48
0.0
 49
0.0
140
0.0
141
0.0
142
1.0
143
1.0
 70
1024
 72
1
 73
0
 74
5
  7

 75
16
 76
0
 77
2
 78
300
147
1.0
148
0.0
149
0.0
100
AcDbLayout
  1
Model
 70
1
 71
0
 10
0.0
 20
0.0
 11
420.0
 21
297.0
 12
0.0
 22
0.0
 32
0.0
 14
1e+20
 24
1e+20
 34
1e+20
 15
-1e+20
 25
-1e+20
 35
-1e+20
146
0.0
 13
0.0
 23
0.0
 33
0.0
 16
1.0
 26
0.0
 36
0.0
 17
0.0
 27
1.0
 37
0.0
 76
1
330
17
  0
LAYOUT
  5
1E
330
D
100
AcDbPlotSettings
  1

  4
A3
  6

 40
7.5
 41
20.0
 42
7.5
 43
20.0
 44
420.0
 45
297.0
 46
0.0
 47
0.0
 48
0.0
 49
0.0
140
0.0
141
0.0
142
1.0
143
1.0
 70
0
 72
1
 73
0
 74
5
  7

 75
16
 76
0
 77
2
 78
300
147
1.0
148
0.0
149
0.0
100
AcDbLayout
  1
Layout1
 70
1
 71
1
 10
0.0
 20
0.0
 11
420.0
 21
297.0
 12
0.0
 22
0.0
 32
0.0
 14
1e+20
 24
1e+20
 34
1e+20
 15
-1e+20
 25
-1e+20
 35
-1e+20
146
0.0
 13
0.0
 23
0.0
 33
0.0
 16
1.0
 26
0.0
 36
0.0
 17
0.0
 27
1.0
 37
0.0
 76
1
330
1B
  0
MATERIAL
  5
1F
102
{ACAD_REACTORS
330
E
102
}
330
E
100
AcDbMaterial
  1
ByBlock
  2

 70
0
 40
1.0
 71
1
 41
1.0
 91
-1023410177
 42
1.0
 72
1
  3

 73
1
 74
1
 75
1
 44
0.5
 73
0
 45
1.0
 46
1.0
 77
1
  4

 78
1
 79
1
170
1
 48
1.0
171
1
  6

172
1
173
1
174
1
140
1.0
141
1.0
175
1
  7

176
1
177
1
178
1
143
1.0
179
1
  8

270
1
271
1
272
1
145
1.0
146
1.0
273
1
  9

274
1
275
1
276
1
 42
1.0
 72
1
  3

 73
1
 74
1
 75
1
 94
63
  0
MATERIAL
  5
20
102
{ACAD_REACTORS
330
E
102
}
330
E
100
AcDbMaterial
  1
ByLayer
  2

 70
0
 40
1.0
 71
1
 41
1.0
 91
-1023410177
 42
1.0
 72
1
  3

 73
1
 74
1
 75
1
 44
0.5
 73
0
 45
1.0
 46
1.0
 77
1
  4

 78
1
 79
1
170
1
 48
1.0
171
1
  6

172
1
173
1
174
1
140
1.0
141
1.0
175
1
  7

176
1
177
1
178
1
143
1.0
179
1
  8

270
1
271
1
272
1
145
1.0
146
1.0
273
1
  9

274
1
275
1
276
1
 42
1.0
 72
1
  3

 73
1
 74
1
 75
1
 94
63
  0
MATERIAL
  5
21
102
{ACAD_REACTORS
330
E
102
}
330
E
100
AcDbMaterial
  1
Global
  2

 70
0
 40
1.0
 71
1
 41
1.0
 91
-1023410177
 42
1.0
 72
1
  3

 73
1
 74
1
 75
1
 44
0.5
 73
0
 45
1.0
 46
1.0
 77
1
  4

 78
1
 79
1
170
1
 48
1.0
171
1
  6

172
1
173
1
174
1
140
1.0
141
1.0
175
1
  7

176
1
177
1
178
1
143
1.0
179
1
  8

270
1
271
1
272
1
145
1.0
146
1.0
273
1
  9

274
1
275
1
276
1
 42
1.0
 72
1
  3

 73
1
 74
1
 75
1
 94
63
  0
MLINESTYLE
  5
22
102
{ACAD_REACTORS
330
10
102
}
330
10
100
AcDbMlineStyle
  2
Standard
 70
0
  3

 62
256
 51
90.0
 52
90.0
 71
2
 49
0.5
 62
256
  6
BYLAYER
 49
-0.5
 62
256
  6
BYLAYER
  0
MLEADERSTYLE
  5
2C
102
{ACAD_REACTORS
330
F
102
}
330
F
100
AcDbMLeaderStyle
179
2
170
2
171
1
172
0
 90
2
 40
0.0
 41
0.0
173
1
 91
-1056964608
 92
-2
290
1
 42
2.0
291
1
 43
8.0
  3
Standard
 44
4.0
300

342
29
174
1
175
1
176
0
178
1
 93
-1056964608
 45
4.0
292
0
297
0
 46
4.0
 94
-1056964608
 47
1.0
 49
1.0
140
1.0
294
1
141
0.0
177
0
142
1.0
295
0
296
0
143
3.75
271
0
272
9
273
9
  0
DICTIONARY
  5
2D
330
A
100
AcDbDictionary
280
1
281
1
  3
CREATED_BY_EZDXF
350
2E
  3
WRITTEN_BY_EZDXF
350
1F2
  0
DICTIONARYVAR
  5
2E
330
2D
100
DictionaryVariables
280
0
  1
1.4.4 @ 2026-09-24T06:32:44.236859+00:00
  0
DICTIONARYVAR
  5
1F2
330
2D
100
DictionaryVariables
280
0
  1
1.4.4 @ 2026-09-24T06:38:33.876442+00:00
  0
ENDSEC
  0
EOF
