  0
SECTION
  2
HEADER
  9
$ACADVER
  1
AC1032
  9
$ACADMAINTVER
 90
4
  9
$DWGCODEPAGE
  3
ANSI_1252
  9
$LASTSAVEDBY
  1
ezdxf
  9
$REQUIREDVERSIONS
160
0
  9
$INSBASE
 10
0.0
 20
0.0
 30
0.0
  9
$EXTMIN
 10
1e+20
 20
1e+20
 30
1e+20
  9
$EXTMAX
 10
-1e+20
 20
-1e+20
 30
-1e+20
  9
$LIMMIN
 10
0.0
 20
0.0
  9
$LIMMAX
 10
420.0
 20
297.0
  9
$ORTHOMODE
 70
0
  9
$REGENMODE
 70
1
  9
$FILLMODE
 70
1
  9
$QTEXTMODE
 70
0
  9
$MIRRTEXT
 70
1
  9
$LTSCALE
 40
1.0
  9
$ATTMODE
 70
1
  9
$TEXTSIZE
 40
2.5
  9
$TRACEWID
 40
1.0
  9
$TEXTSTYLE
  7
Standard
  9
$CLAYER
  8
0
  9
$CELTYPE
  6
ByLayer
  9
$CECOLOR
 62
256
  9
$CELTSCALE
 40
1.0
  9
$DISPSILH
 70
0
  9
$DIMSCALE
 40
1.0
  9
$DIMASZ
 40
2.5
  9
$DIMEXO
 40
0.625
  9
$DIMDLI
 40
3.75
  9
$DIMRND
 40
0.0
  9
$DIMDLE
 40
0.0
  9
$DIMEXE
 40
1.25
  9
$DIMTP
 40
0.0
  9
$DIMTM
 40
0.0
  9
$DIMTXT
 40
2.5
  9
$DIMCEN
 40
2.5
  9
$DIMTSZ
 40
0.0
  9
$DIMTOL
 70
0
  9
$DIMLIM
 70
0
  9
$DIMTIH
 70
0
  9
$DIMTOH
 70
0
  9
$DIMSE1
 70
0
  9
$DIMSE2
 70
0
  9
$DIMTAD
 70
1
  9
$DIMZIN
 70
8
  9
$DIMBLK
  1

  9
$DIMASO
 70
1
  9
$DIMSHO
 70
1
  9
$DIMPOST
  1

  9
$DIMAPOST
  1

  9
$DIMALT
 70
0
  9
$DIMALTD
 70
3
  9
$DIMALTF
 40
0.03937007874
  9
$DIMLFAC
 40
1.0
  9
$DIMTOFL
 70
1
  9
$DIMTVP
 40
0.0
  9
$DIMTIX
 70
0
  9
$DIMSOXD
 70
0
  9
$DIMSAH
 70
0
  9
$DIMBLK1
  1

  9
$DIMBLK2
  1

  9
$DIMSTYLE
  2
ISO-25
  9
$DIMCLRD
 70
0
  9
$DIMCLRE
 70
0
  9
$DIMCLRT
 70
0
  9
$DIMTFAC
 40
1.0
  9
$DIMGAP
 40
0.625
  9
$DIMJUST
 70
0
  9
$DIMSD1
 70
0
  9
$DIMSD2
 70
0
  9
$DIMTOLJ
 70
0
  9
$DIMTZIN
 70
8
  9
$DIMALTZ
 70
0
  9
$DIMALTTZ
 70
0
  9
$DIMUPT
 70
0
  9
$DIMDEC
 70
2
  9
$DIMTDEC
 70
2
  9
$DIMALTU
 70
2
  9
$DIMALTTD
 70
3
  9
$DIMTXSTY
  7
Standard
  9
$DIMAUNIT
 70
0
  9
$DIMADEC
 70
0
  9
$DIMALTRND
 40
0.0
  9
$DIMAZIN
 70
0
  9
$DIMDSEP
 70
44
  9
$DIMATFIT
 70
3
  9
$DIMFRAC
 70
0
  9
$DIMLDRBLK
  1

  9
$DIMLUNIT
 70
2
  9
$DIMLWD
 70
-2
  9
$DIMLWE
 70
-2
  9
$DIMTMOVE
 70
0
  9
$DIMFXL
 40
1.0
  9
$DIMFXLON
 70
0
  9
$DIMJOGANG
 40
0.785398163397
  9
$DIMTFILL
 70
0
  9
$DIMTFILLCLR
 70
0
  9
$DIMARCSYM
 70
0
  9
$DIMLTYPE
  6

  9
$DIMLTEX1
  6

  9
$DIMLTEX2
  6

  9
$DIMTXTDIRECTION
 70
0
  9
$LUNITS
 70
2
  9
$LUPREC
 70
4
  9
$SKETCHINC
 40
1.0
  9
$FILLETRAD
 40
10.0
  9
$AUNITS
 70
0
  9
$AUPREC
 70
2
  9
$MENU
  1
.
  9
$ELEVATION
 40
0.0
  9
$PELEVATION
 40
0.0
  9
$THICKNESS
 40
0.0
  9
$LIMCHECK
 70
0
  9
$CHAMFERA
 40
0.0
  9
$CHAMFERB
 40
0.0
  9
$CHAMFERC
 40
0.0
  9
$CHAMFERD
 40
0.0
  9
$SKPOLY
 70
0
  9
$TDCREATE
 40
2461308.567349537
  9
$TDUCREATE
 40
2458532.153996898
  9
$TDUPDATE
 40
2461308.567349537
  9
$TDUUPDATE
 40
2458532.1544311
  9
$TDINDWG
 40
0.0
  9
$TDUSRTIMER
 40
0.0
  9
$USRTIMER
 70
1
  9
$ANGBASE
 50
0.0
  9
$ANGDIR
 70
0
  9
$PDMODE
 70
0
  9
$PDSIZE
 40
0.0
  9
$PLINEWID
 40
0.0
  9
$SPLFRAME
 70
0
  9
$SPLINETYPE
 70
6
  9
$SPLINESEGS
 70
8
  9
$HANDSEED
  5
37B
  9
$SURFTAB1
 70
6
  9
$SURFTAB2
 70
6
  9
$SURFTYPE
 70
6
  9
$SURFU
 70
6
  9
$SURFV
 70
6
  9
$UCSBASE
  2

  9
$UCSNAME
  2

  9
$UCSORG
 10
0.0
 20
0.0
 30
0.0
  9
$UCSXDIR
 10
1.0
 20
0.0
 30
0.0
  9
$UCSYDIR
 10
0.0
 20
1.0
 30
0.0
  9
$UCSORTHOREF
  2

  9
$UCSORTHOVIEW
 70
0
  9
$UCSORGTOP
 10
0.0
 20
0.0
 30
0.0
  9
$UCSORGBOTTOM
 10
0.0
 20
0.0
 30
0.0
  9
$UCSORGLEFT
 10
0.0
 20
0.0
 30
0.0
  9
$UCSORGRIGHT
 10
0.0
 20
0.0
 30
0.0
  9
$UCSORGFRONT
 10
0.0
 20
0.0
 30
0.0
  9
$UCSORGBACK
 10
0.0
 20
0.0
 30
0.0
  9
$PUCSBASE
  2

  9
$PUCSNAME
  2

  9
$PUCSORG
 10
0.0
 20
0.0
 30
0.0
  9
$PUCSXDIR
 10
1.0
 20
0.0
 30
0.0
  9
$PUCSYDIR
 10
0.0
 20
1.0
 30
0.0
  9
$PUCSORTHOREF
  2

  9
$PUCSORTHOVIEW
 70
0
  9
$PUCSORGTOP
 10
0.0
 20
0.0
 30
0.0
  9
$PUCSORGBOTTOM
 10
0.0
 20
0.0
 30
0.0
  9
$PUCSORGLEFT
 10
0.0
 20
0.0
 30
0.0
  9
$PUCSORGRIGHT
 10
0.0
 20
0.0
 30
0.0
  9
$PUCSORGFRONT
 10
0.0
 20
0.0
 30
0.0
  9
$PUCSORGBACK
 10
0.0
 20
0.0
 30
0.0
  9
$USERI1
 70
0
  9
$USERI2
 70
0
  9
$USERI3
 70
0
  9
$USERI4
 70
0
  9
$USERI5
 70
0
  9
$USERR1
 40
0.0
  9
$USERR2
 40
0.0
  9
$USERR3
 40
0.0
  9
$USERR4
 40
0.0
  9
$USERR5
 40
0.0
  9
$WORLDVIEW
 70
1
  9
$SHADEDGE
 70
3
  9
$SHADEDIF
 70
70
  9
$TILEMODE
 70
1
  9
$MAXACTVP
 70
64
  9
$PINSBASE
 10
0.0
 20
0.0
 30
0.0
  9
$PLIMCHECK
 70
0
  9
$PEXTMIN
 10
1e+20
 20
1e+20
 30
1e+20
  9
$PEXTMAX
 10
-1e+20
 20
-1e+20
 30
-1e+20
  9
$PLIMMIN
 10
0.0
 20
0.0
  9
$PLIMMAX
 10
420.0
 20
297.0
  9
$UNITMODE
 70
0
  9
$VISRETAIN
 70
1
  9
$PLINEGEN
 70
0
  9
$PSLTSCALE
 70
1
  9
$TREEDEPTH
 70
3020
  9
$CMLSTYLE
  2
Standard
  9
$CMLJUST
 70
0
  9
$CMLSCALE
 40
20.0
  9
$PROXYGRAPHICS
 70
1
  9
$MEASUREMENT
 70
1
  9
$CELWEIGHT
370
-1
  9
$ENDCAPS
280
0
  9
$JOINSTYLE
280
0
  9
$LWDISPLAY
290
0
  9
$INSUNITS
 70
4
  9
$HYPERLINKBASE
  1

  9
$STYLESHEET
  1

  9
$XEDIT
290
1
  9
$CEPSNTYPE
380
0
  9
$PSTYLEMODE
290
1
  9
$FINGERPRINTGUID
  2
{5692E81C-44B6-47EF-BD4E-7F81D42A33A7}
  9
$VERSIONGUID
  2
{69F623DE-1B6A-4FDB-A363-32E56F78F723}
  9
$EXTNAMES
290
1
  9
$PSVPSCALE
 40
0.0
  9
$OLESTARTUP
290
0
  9
$SORTENTS
280
127
  9
$INDEXCTL
280
0
  9
$HIDETEXT
280
1
  9
$XCLIPFRAME
280
1
  9
$HALOGAP
280
0
  9
$OBSCOLOR
 70
257
  9
$OBSLTYPE
280
0
  9
$INTERSECTIONDISPLAY
280
0
  9
$INTERSECTIONCOLOR
 70
257
  9
$DIMASSOC
280
2
  9
$PROJECTNAME
  1

  9
$CAMERADISPLAY
290
0
  9
$LENSLENGTH
 40
50.0
  9
$CAMERAHEIGHT
 40
0.0
  9
$STEPSPERSEC
 40
24.0
  9
$STEPSIZE
 40
100.0
  9
$3DDWFPREC
 40
2.0
  9
$PSOLWIDTH
 40
0.005
  9
$PSOLHEIGHT
 40
0.08
  9
$LOFTANG1
 40
1.570796326795
  9
$LOFTANG2
 40
1.570796326795
  9
$LOFTMAG1
 40
0.0
  9
$LOFTMAG2
 40
0.0
  9
$LOFTPARAM
 70
7
  9
$LOFTNORMALS
280
1
  9
$LATITUDE
 40
37.795
  9
$LONGITUDE
 40
-122.394
  9
$NORTHDIRECTION
 40
0.0
  9
$TIMEZONE
 70
-8000
  9
$LIGHTGLYPHDISPLAY
280
1
  9
$TILEMODELIGHTSYNCH
280
1
  9
$CMATERIAL
347
20
  9
$SOLIDHIST
280
0
  9
$SHOWHIST
280
1
  9
$DWFFRAME
280
2
  9
$DGNFRAME
280
2
  9
$REALWORLDSCALE
290
1
  9
$INTERFERECOLOR
 62
256
  9
$CSHADOW
280
0
  9
$SHADOWPLANELOCATION
 40
0.0
  0
ENDSEC
  0
SECTION
  2
CLASSES
  0
CLASS
  1
ACDBDICTIONARYWDFLT
  2
AcDbDictionaryWithDefault
  3
ObjectDBX Classes
 90
0
 91
0
280
0
281
0
  0
CLASS
  1
SUN
  2
AcDbSun
  3
SCENEOE
 90
1153
 91
0
280
0
281
0
  0
CLASS
  1
VISUALSTYLE
  2
AcDbVisualStyle
  3
ObjectDBX Classes
 90
4095
 91
0
280
0
281
0
  0
CLASS
  1
MATERIAL
  2
AcDbMaterial
  3
ObjectDBX Classes
 90
1153
 91
0
280
0
281
0
  0
CLASS
  1
SCALE
  2
AcDbScale
  3
ObjectDBX Classes
 90
1153
 91
0
280
0
281
0
  0
CLASS
  1
TABLESTYLE
  2
AcDbTableStyle
  3
ObjectDBX Classes
 90
4095
 91
0
280
0
281
0
  0
CLASS
  1
MLEADERSTYLE
  2
AcDbMLeaderStyle
  3
ACDB_MLEADERSTYLE_CLASS
 90
4095
 91
0
280
0
281
0
  0
CLASS
  1
DICTIONARYVAR
  2
AcDbDictionaryVar
  3
ObjectDBX Classes
 90
0
 91
0
280
0
281
0
  0
CLASS
  1
CELLSTYLEMAP
  2
AcDbCellStyleMap
  3
ObjectDBX Classes
 90
1152
 91
0
280
0
281
0
  0
CLASS
  1
MENTALRAYRENDERSETTINGS
  2
AcDbMentalRayRenderSettings
  3
SCENEOE
 90
1024
 91
0
280
0
281
0
  0
CLASS
  1
ACDBDETAILVIEWSTYLE
  2
AcDbDetailViewStyle
  3
ObjectDBX Classes
 90
1025
 91
0
280
0
281
0
  0
CLASS
  1
ACDBSECTIONVIEWSTYLE
  2
AcDbSectionViewStyle
  3
ObjectDBX Classes
 90
1025
 91
0
280
0
281
0
  0
CLASS
  1
RASTERVARIABLES
  2
AcDbRasterVariables
  3
ISM
 90
0
 91
0
280
0
281
0
  0
CLASS
  1
ACDBPLACEHOLDER
  2
AcDbPlaceHolder
  3
ObjectDBX Classes
 90
0
 91
0
280
0
281
0
  0
CLASS
  1
LAYOUT
  2
AcDbLayout
  3
ObjectDBX Classes
 90
0
 91
0
280
0
281
0
  0
ENDSEC
  0
SECTION
  2
TABLES
  0
TABLE
  2
VPORT
  5
8
330
0
100
AcDbSymbolTable
 70
1
  0
VPORT
  5
23
330
8
100
AcDbSymbolTableRecord
100
AcDbViewportTableRecord
  2
*Active
 70
0
 10
0.0
 20
0.0
 11
1.0
 21
1.0
 12
0.0
 22
0.0
 13
0.0
 23
0.0
 14
0.5
 24
0.5
 15
0.5
 25
0.5
 16
0.0
 26
0.0
 36
1.0
 17
0.0
 27
0.0
 37
0.0
 40
1000.0
 41
1.34
 42
50.0
 43
0.0
 44
0.0
 50
0.0
 51
0.0
 71
0
 72
1000
 73
1
 74
3
 75
0
 76
0
 77
0
 78
0
281
0
 65
0
146
0.0
  0
ENDTAB
  0
TABLE
  2
LTYPE
  5
2
330
0
100
AcDbSymbolTable
 70
5
  0
LTYPE
  5
24
330
2
100
AcDbSymbolTableRecord
100
AcDbLinetypeTableRecord
  2
ByBlock
 70
0
  3

 72
65
 73
0
 40
0.0
  0
LTYPE
  5
25
330
2
100
AcDbSymbolTableRecord
100
AcDbLinetypeTableRecord
  2
ByLayer
 70
0
  3

 72
65
 73
0
 40
0.0
  0
LTYPE
  5
26
330
2
100
AcDbSymbolTableRecord
100
AcDbLinetypeTableRecord
  2
Continuous
 70
0
  3

 72
65
 73
0
 40
0.0
  0
LTYPE
  5
26C
330
2
100
AcDbSymbolTableRecord
100
AcDbLinetypeTableRecord
  2
HIDDEN2
 70
0
  3
Hidden (.5x) _ _ _ _ _ _ _ _ _ _ _ _ _ _ _ _ _
 72
65
 73
2
 40
4.762499999999998
 49
3.174999999999998
 74
0
 49
-1.587499999999999
 74
0
  0
LTYPE
  5
26D
330
2
100
AcDbSymbolTableRecord
100
AcDbLinetypeTableRecord
  2
HIDDENX2
 70
0
  3
Hidden (2x) ____ ____ ____ ____ ____ ____ ____
 72
65
 73
2
 40
19.05
 49
12.7
 74
0
 49
-6.349999999999999
 74
0
  0
ENDTAB
  0
TABLE
  2
LAYER
  5
1
330
0
100
AcDbSymbolTable
 70
5
  0
LAYER
  5
27
330
1
100
AcDbSymbolTableRecord
100
AcDbLayerTableRecord
  2
0
 70
0
 62
7
  6
Continuous
370
-3
390
13
347
21
  0
LAYER
  5
28
330
1
100
AcDbSymbolTableRecord
100
AcDbLayerTableRecord
  2
Defpoints
 70
0
 62
7
  6
Continuous
290
0
370
-3
390
13
347
21
  0
LAYER
  5
269
330
1
100
AcDbSymbolTableRecord
100
AcDbLayerTableRecord
  2
BAOCHAY
 70
0
 62
1
  6
Continuous
370
-3
390
13
347
21
  0
LAYER
  5
26A
330
1
100
AcDbSymbolTableRecord
100
AcDbLayerTableRecord
  2
S-CONCRETE
 70
0
 62
3
  6
Continuous
370
5
390
13
347
21
  0
LAYER
  5
26B
330
1
100
AcDbSymbolTableRecord
100
AcDbLayerTableRecord
  2
DIM
 70
0
 62
253
  6
Continuous
370
-3
390
13
347
21
  0
ENDTAB
  0
TABLE
  2
STYLE
  5
5
330
0
100
AcDbSymbolTable
 70
3
  0
STYLE
  5
29
330
5
100
AcDbSymbolTableRecord
100
AcDbTextStyleTableRecord
  2
Standard
 70
0
 40
0.0
 41
1.0
 50
0.0
 71
0
 42
2.5
  3
txt
  4

  0
STYLE
  5
26E
330
5
100
AcDbSymbolTableRecord
100
AcDbTextStyleTableRecord
  2
Tahoma (Input Text)
 70
0
 40
0.0
 41
1.0
 50
0.0
 71
0
 42
25.0
  3
tahoma.ttf
  4

  0
STYLE
  5
26F
330
5
100
AcDbSymbolTableRecord
100
AcDbTextStyleTableRecord
  2
Arial
 70
0
 40
0.0
 41
1.0
 50
0.0
 71
0
 42
0.2
  3
arial.ttf
  4

  0
ENDTAB
  0
TABLE
  2
VIEW
  5
7
330
0
100
AcDbSymbolTable
 70
0
  0
ENDTAB
  0
TABLE
  2
UCS
  5
6
330
0
100
AcDbSymbolTable
 70
0
  0
ENDTAB
  0
TABLE
  2
APPID
  5
3
330
0
100
AcDbSymbolTable
 70
3
  0
APPID
  5
2A
330
3
100
AcDbSymbolTableRecord
100
AcDbRegAppTableRecord
  2
ACAD
 70
0
  0
APPID
  5
270
330
3
100
AcDbSymbolTableRecord
100
AcDbRegAppTableRecord
  2
HATCHBACKGROUNDCOLOR
 70
0
  0
APPID
  5
271
330
3
100
AcDbSymbolTableRecord
100
AcDbRegAppTableRecord
  2
EZDXF
 70
0
  0
ENDTAB
  0
TABLE
  2
DIMSTYLE
  5
4
330
0
100
AcDbSymbolTable
 70
2
100
AcDbDimStyleTable
  0
DIMSTYLE
105
2B
330
4
100
AcDbSymbolTableRecord
100
AcDbDimStyleTableRecord
  2
Standard
 70
0
 40
1.0
 41
2.5
 42
0.625
 43
3.75
 44
1.25
 45
0.0
 46
0.0
 47
0.0
 48
0.0
 49
2.5
140
2.5
141
2.5
142
0.0
143
0.03937007874
144
1.0
145
0.0
146
1.0
147
0.625
148
0.0
 69
0
 70
0
 71
0
 72
0
 73
0
 74
0
 75
0
 76
0
 77
1
 78
8
 79
3
170
0
171
3
172
1
173
0
174
0
175
0
176
0
177
0
178
0
179
2
271
2
272
2
273
2
274
3
275
0
276
0
277
2
278
44
279
0
280
0
281
0
282
0
283
0
284
8
285
0
286
0
288
0
289
3
290
0
371
-2
372
-2
  0
DIMSTYLE
105
268
330
4
100
AcDbSymbolTableRecord
100
AcDbDimStyleTableRecord
  2
Dim-25
 70
0
 40
1.0
 41
8.0
 42
15.0
 43
3.75
 44
10.0
 45
0.0
 46
0.0
 47
0.0
 48
0.0
 49
2.5
140
25.0
141
10.0
142
0.0
143
0.03937007874016
144
1.0
145
0.0
146
1.0
147
10.0
148
0.0
 69
0
 70
0
 71
0
 72
0
 73
0
 74
0
 75
0
 76
0
 77
1
 78
8
 79
3
170
0
171
3
172
1
173
0
174
0
175
0
176
5
177
5
178
3
179
2
271
0
272
0
273
2
274
3
275
0
276
0
277
2
278
44
279
0
280
0
281
0
282
0
283
0
284
8
285
0
286
0
288
0
289
3
290
0
340
29
341
44
342
44
345
25
346
25
347
25
371
9
372
9
  0
ENDTAB
  0
TABLE
  2
BLOCK_RECORD
  5
9
330
0
100
AcDbSymbolTable
 70
27
  0
BLOCK_RECORD
  5
17
330
9
100
AcDbSymbolTableRecord
100
AcDbBlockTableRecord
  2
*Model_Space
340
1A
 70
0
280
1
281
0
  0
BLOCK_RECORD
  5
1B
330
9
100
AcDbSymbolTableRecord
100
AcDbBlockTableRecord
  2
*Paper_Space
340
1E
 70
0
280
1
281
0
  0
BLOCK_RECORD
  5
44
330
9
100
AcDbSymbolTableRecord
100
AcDbBlockTableRecord
  2
_Oblique
340
0
 70
0
280
1
281
0
  0
BLOCK_RECORD
  5
1E7
330
9
100
AcDbSymbolTableRecord
100
AcDbBlockTableRecord
  2
khungtenAsean2
340
0
 70
0
280
1
281
0
  0
BLOCK_RECORD
  5
20B
330
9
100
AcDbSymbolTableRecord
100
AcDbBlockTableRecord
  2
HL035-1-2
340
0
 70
0
280
1
281
0
  0
BLOCK_RECORD
  5
277
330
9
100
AcDbSymbolTableRecord
100
AcDbBlockTableRecord
  2
*D1
340
0
 70
0
280
1
281
0
  0
BLOCK_RECORD
  5
283
330
9
100
AcDbSymbolTableRecord
100
AcDbBlockTableRecord
  2
*D2
340
0
 70
0
280
1
281
0
  0
BLOCK_RECORD
  5
28F
330
9
100
AcDbSymbolTableRecord
100
AcDbBlockTableRecord
  2
*D3
340
0
 70
0
280
1
281
0
  0
BLOCK_RECORD
  5
29B
330
9
100
AcDbSymbolTableRecord
100
AcDbBlockTableRecord
  2
*D4
340
0
 70
0
280
1
281
0
  0
BLOCK_RECORD
  5
2A7
330
9
100
AcDbSymbolTableRecord
100
AcDbBlockTableRecord
  2
*D5
340
0
 70
0
280
1
281
0
  0
BLOCK_RECORD
  5
2B3
330
9
100
AcDbSymbolTableRecord
100
AcDbBlockTableRecord
  2
*D6
340
0
 70
0
280
1
281
0
  0
BLOCK_RECORD
  5
2BF
330
9
100
AcDbSymbolTableRecord
100
AcDbBlockTableRecord
  2
*D7
340
0
 70
0
280
1
281
0
  0
BLOCK_RECORD
  5
2C9
330
9
100
AcDbSymbolTableRecord
100
AcDbBlockTableRecord
  2
*D8
340
0
 70
0
280
1
281
0
  0
BLOCK_RECORD
  5
2D5
330
9
100
AcDbSymbolTableRecord
100
AcDbBlockTableRecord
  2
*D9
340
0
 70
0
280
1
281
0
  0
BLOCK_RECORD
  5
2E1
330
9
100
AcDbSymbolTableRecord
100
AcDbBlockTableRecord
  2
*D10
340
0
 70
0
280
1
281
0
  0
BLOCK_RECORD
  5
2ED
330
9
100
AcDbSymbolTableRecord
100
AcDbBlockTableRecord
  2
*D11
340
0
 70
0
280
1
281
0
  0
BLOCK_RECORD
  5
2F9
330
9
100
AcDbSymbolTableRecord
100
AcDbBlockTableRecord
  2
*D12
340
0
 70
0
280
1
281
0
  0
BLOCK_RECORD
  5
305
330
9
100
AcDbSymbolTableRecord
100
AcDbBlockTableRecord
  2
*D13
340
0
 70
0
280
1
281
0
  0
BLOCK_RECORD
  5
311
330
9
100
AcDbSymbolTableRecord
100
AcDbBlockTableRecord
  2
*D14
340
0
 70
0
280
1
281
0
  0
BLOCK_RECORD
  5
31D
330
9
100
AcDbSymbolTableRecord
100
AcDbBlockTableRecord
  2
*D15
340
0
 70
0
280
1
281
0
  0
BLOCK_RECORD
  5
329
330
9
100
AcDbSymbolTableRecord
100
AcDbBlockTableRecord
  2
*D16
340
0
 70
0
280
1
281
0
  0
BLOCK_RECORD
  5
335
330
9
100
AcDbSymbolTableRecord
100
AcDbBlockTableRecord
  2
*D17
340
0
 70
0
280
1
281
0
  0
BLOCK_RECORD
  5
341
330
9
100
AcDbSymbolTableRecord
100
AcDbBlockTableRecord
  2
*D18
340
0
 70
0
280
1
281
0
  0
BLOCK_RECORD
  5
34D
330
9
100
AcDbSymbolTableRecord
100
AcDbBlockTableRecord
  2
*D19
340
0
 70
0
280
1
281
0
  0
BLOCK_RECORD
  5
359
330
9
100
AcDbSymbolTableRecord
100
AcDbBlockTableRecord
  2
*D20
340
0
 70
0
280
1
281
0
  0
BLOCK_RECORD
  5
365
330
9
100
AcDbSymbolTableRecord
100
AcDbBlockTableRecord
  2
*D21
340
0
 70
0
280
1
281
0
  0
BLOCK_RECORD
  5
371
330
9
100
AcDbSymbolTableRecord
100
AcDbBlockTableRecord
  2
*D22
340
0
 70
0
280
1
281
0
  0
ENDTAB
  0
ENDSEC
  0
SECTION
  2
BLOCKS
  0
BLOCK
  5
18
330
17
100
AcDbEntity
  8
0
100
AcDbBlockBegin
  2
*Model_Space
 70
0
 10
0.0
 20
0.0
 30
0.0
  3
*Model_Space
  1

  0
ENDBLK
  5
19
330
17
100
AcDbEntity
  8
0
100
AcDbBlockEnd
  0
BLOCK
  5
1C
330
1B
100
AcDbEntity
  8
0
100
AcDbBlockBegin
  2
*Paper_Space
 70
0
 10
0.0
 20
0.0
 30
0.0
  3
*Paper_Space
  1

  0
ENDBLK
  5
1D
330
1B
100
AcDbEntity
  8
0
100
AcDbBlockEnd
  0
BLOCK
  5
45
330
44
100
AcDbEntity
  8
0
100
AcDbBlockBegin
  2
_Oblique
 70
0
 10
0.0
 20
0.0
 30
0.0
  3
_Oblique
  1

  0
LINE
  5
47
330
44
100
AcDbEntity
  8
0
  6
ByBlock
 62
0
370
-2
100
AcDbLine
 10
-0.5
 20
-0.5
 30
0.0
 11
0.5
 21
0.5
 31
0.0
  0
ENDBLK
  5
46
330
44
100
AcDbEntity
  8
0
100
AcDbBlockEnd
  0
BLOCK
  5
1E8
330
1E7
100
AcDbEntity
  8
0
100
AcDbBlockBegin
  2
khungtenAsean2
 70
2
 10
0.0
 20
0.0
 30
0.0
  3
khungtenAsean2
  1

  0
LWPOLYLINE
  5
1EA
330
1E7
100
AcDbEntity
  8
0
 62
7
100
AcDbPolyline
 90
4
 70
1
 10
0.0
 20
0.0
 10
2970.000000000422
 20
0.0
 10
2970.000000000422
 20
-2100.00000000032
 10
0.0
 20
-2100.00000000032
  0
LINE
  5
1EB
330
1E7
100
AcDbEntity
  8
0
 62
7
100
AcDbLine
 10
2020.0
 20
-2040.00000000032
 30
0.0
 11
0.0
 21
-2040.00000000032
 31
0.0
  0
LINE
  5
1EC
330
1E7
100
AcDbEntity
  8
0
 62
7
100
AcDbLine
 10
2970.000000000422
 20
-1980.00000000032
 30
0.0
 11
0.0
 21
-1980.00000000032
 31
0.0
  0
LINE
  5
1ED
330
1E7
100
AcDbEntity
  8
0
 62
7
100
AcDbLine
 10
320.0
 20
-1980.00000000032
 30
0.0
 11
320.0
 21
-2100.00000000032
 31
0.0
  0
LINE
  5
1EE
330
1E7
100
AcDbEntity
  8
0
 62
7
100
AcDbLine
 10
890.0
 20
-1980.00000000032
 30
0.0
 11
890.0
 21
-2100.00000000032
 31
0.0
  0
LINE
  5
1EF
330
1E7
100
AcDbEntity
  8
0
 62
7
100
AcDbLine
 10
1680.0
 20
-1980.00000000032
 30
0.0
 11
1680.0
 21
-2100.00000000032
 31
0.0
  0
LINE
  5
1F0
330
1E7
100
AcDbEntity
  8
0
 62
7
100
AcDbLine
 10
2020.0
 20
-1980.00000000032
 30
0.0
 11
2020.0
 21
-2100.00000000032
 31
0.0
  0
LINE
  5
1F1
330
1E7
100
AcDbEntity
  8
0
 62
7
100
AcDbLine
 10
2860.000000000422
 20
-1980.00000000032
 30
0.0
 11
2860.000000000422
 21
-2100.00000000032
 31
0.0
  0
MTEXT
  5
1F2
330
1E7
100
AcDbEntity
  8
0
 62
2
100
AcDbMText
 10
0.0
 20
-2010.00000000032
 30
0.0
 40
20.0
 41
917.6339389950801
 46
60.00000000000113
 71
4
 72
5
  1
  Thiết kế :
  7
Arial
  0
MTEXT
  5
1F3
330
1E7
100
AcDbEntity
  8
0
 62
2
100
AcDbMText
 10
0.0
 20
-2070.00000000032
 30
0.0
 40
20.0
 41
917.6339389950801
 46
60.00000000000113
 71
4
 72
5
  1
  CNC :
  7
Arial
  0
MTEXT
  5
1F4
330
1E7
100
AcDbEntity
  8
0
 62
2
100
AcDbMText
 10
320.0
 20
-2010.00000000032
 30
0.0
 40
20.0
 41
917.6339389950801
 46
60.00000000000113
 71
4
 72
5
  1
  Khách hàng :
  7
Arial
  0
MTEXT
  5
1F5
330
1E7
100
AcDbEntity
  8
0
 62
2
100
AcDbMText
 10
320.0
 20
-2070.00000000032
 30
0.0
 40
20.0
 41
917.6339389950801
 46
60.00000000000113
 71
4
 72
5
  1
  Giao hàng :
  7
Arial
  0
MTEXT
  5
1F6
330
1E7
100
AcDbEntity
  8
0
 62
2
100
AcDbMText
 10
890.0
 20
-2010.00000000032
 30
0.0
 40
20.0
 41
917.6339389950801
 46
60.00000000000113
 71
4
 72
5
  1
  Tên sản phẩm :
  7
Arial
  0
MTEXT
  5
1F7
330
1E7
100
AcDbEntity
  8
0
 62
2
100
AcDbMText
 10
890.0
 20
-2070.00000000032
 30
0.0
 40
20.0
 41
917.6339389950801
 46
60.00000000000113
 71
4
 72
5
  1
  Kích thước :
  7
Arial
  0
MTEXT
  5
1F8
330
1E7
100
AcDbEntity
  8
0
 62
2
100
AcDbMText
 10
1680.0
 20
-2010.00000000032
 30
0.0
 40
20.0
 41
917.6339389950801
 46
60.00000000000113
 71
4
 72
5
  1
  Số lượng :
  7
Arial
  0
MTEXT
  5
1F9
330
1E7
100
AcDbEntity
  8
0
 62
2
100
AcDbMText
 10
1680.0
 20
-2070.00000000032
 30
0.0
 40
20.0
 41
917.6339389950801
 46
60.00000000000113
 71
4
 72
5
  1
  Loại tôn :
  7
Arial
  0
MTEXT
  5
1FA
330
1E7
100
AcDbEntity
  8
0
 62
2
100
AcDbMText
 10
2074.15528161102
 20
-2040.00000000032
 30
0.0
 40
20.0
 41
108.3105632220314
 46
120.0000000000011
 71
5
 72
5
  1
Thông\Ptin :
  7
Arial
  0
MTEXT
  5
1FB
330
1E7
100
AcDbEntity
  8
0
 62
2
100
AcDbMText
 10
2915.000000000422
 20
-2010.00000000032
 30
0.0
 40
20.0
 41
110.0000000000065
 46
60.00000000000113
 71
5
 72
5
  1
Tờ
  7
Arial
  0
LINE
  5
1FC
330
1E7
100
AcDbEntity
  8
0
 62
7
100
AcDbLine
 10
2128.310563222025
 20
-2005.00000000032
 30
0.0
 11
2128.310563222025
 21
-2075.00000000032
 31
0.0
  0
MTEXT
  5
1FD
330
1E7
100
AcDbEntity
  8
0
 62
2
100
AcDbMText
 10
1382.285678836575
 20
-2070.00000000032
 30
0.0
 40
20.0
 41
917.6339389950801
 46
60.00000000000113
 71
4
 72
5
  1
mm
  7
Arial
  0
MTEXT
  5
1FE
330
1E7
100
AcDbEntity
  8
0
 62
2
100
AcDbMText
 10
1947.610064813329
 20
-2010.00000000032
 30
0.0
 40
20.0
 41
917.6339389950801
 46
60.00000000000113
 71
4
 72
5
  1
cái
  7
Arial
  0
MTEXT
  5
1FF
330
1E7
100
AcDbEntity
  8
0
 62
2
100
AcDbMText
 10
1936.880410494836
 20
-2070.00000000032
 30
0.0
 40
20.0
 41
917.6339389950801
 46
60.00000000000113
 71
4
 72
5
  1
mm
  7
Arial
  0
ATTDEF
  5
200
330
1E7
100
AcDbEntity
  8
0
 62
1
100
AcDbText
 10
2883.764212945627
 20
-2067.347800104843
 30
0.0
 40
25.0
  1
......
  7
Tahoma (Input Text)
 72
1
 11
2914.993225705868
 21
-2067.347800104843
 31
0.0
100
AcDbAttributeDefinition
  3
Số trang
  2
#11
 70
8
 71
1
 72
0
 11
2914.993225705868
 21
-2067.347800104843
 31
0.0
  0
ATTDEF
  5
201
330
1E7
100
AcDbEntity
  8
0
 62
1
100
AcDbText
 10
2146.716977487464
 20
-2021.275211692002
 30
0.0
 40
25.0
  1
......
  7
Tahoma (Input Text)
100
AcDbAttributeDefinition
  3
Thông tin 1
  2
#09
 70
8
 71
1
 72
0
  0
ATTDEF
  5
202
330
1E7
100
AcDbEntity
  8
0
 62
1
100
AcDbText
 10
2146.716977487464
 20
-2081.275211692002
 30
0.0
 40
25.0
  1
......
  7
Tahoma (Input Text)
100
AcDbAttributeDefinition
  3
Thông tin 2
  2
#10
 70
8
 71
1
 72
0
  0
ATTDEF
  5
203
330
1E7
100
AcDbEntity
  8
0
 62
1
100
AcDbText
 10
1817.447765733334
 20
-2081.275211692002
 30
0.0
 40
25.0
  1
......
  7
Tahoma (Input Text)
100
AcDbAttributeDefinition
  3
Loại tôn
  2
#08
 70
8
 71
1
 72
0
  0
ATTDEF
  5
204
330
1E7
100
AcDbEntity
  8
0
 62
1
100
AcDbText
 10
1834.68151032555
 20
-2021.275211692002
 30
0.0
 40
25.0
  1
......
  7
Tahoma (Input Text)
100
AcDbAttributeDefinition
  3
Số lượng
  2
#07
 70
8
 71
1
 72
0
  0
ATTDEF
  5
205
330
1E7
100
AcDbEntity
  8
0
 62
1
100
AcDbText
 10
1065.330889143646
 20
-2081.275211692002
 30
0.0
 40
25.0
  1
......
  7
Tahoma (Input Text)
100
AcDbAttributeDefinition
  3
Kích thước
  2
#06
 70
8
 71
1
 72
0
  0
ATTDEF
  5
206
330
1E7
100
AcDbEntity
  8
0
 62
1
100
AcDbText
 10
1106.628177122154
 20
-2021.275211692002
 30
0.0
 40
25.0
  1
......
  7
Tahoma (Input Text)
100
AcDbAttributeDefinition
  3
Tên s.phẩm
  2
#05
 70
8
 71
1
 72
0
  0
ATTDEF
  5
207
330
1E7
100
AcDbEntity
  8
0
 62
1
100
AcDbText
 10
486.1050270054984
 20
-2081.275211692002
 30
0.0
 40
25.0
  1
......
  7
Tahoma (Input Text)
100
AcDbAttributeDefinition
  3
Giao hàng
  2
#04
 70
8
 71
1
 72
0
  0
ATTDEF
  5
208
330
1E7
100
AcDbEntity
  8
0
 62
1
100
AcDbText
 10
506.5707489467022
 20
-2019.301600489707
 30
0.0
 40
25.0
  1
......
  7
Tahoma (Input Text)
100
AcDbAttributeDefinition
  3
Khách hàng
  2
#03
 70
8
 71
1
 72
0
  0
ATTDEF
  5
209
330
1E7
100
AcDbEntity
  8
0
 62
1
100
AcDbText
 10
98.45672450316488
 20
-2081.275211692002
 30
0.0
 40
25.0
  1
......
  7
Tahoma (Input Text)
100
AcDbAttributeDefinition
  3
CNC
  2
#02
 70
8
 71
1
 72
0
  0
ATTDEF
  5
20A
330
1E7
100
AcDbEntity
  8
0
 62
1
100
AcDbText
 10
137.0535078375105
 20
-2021.275211692002
 30
0.0
 40
25.0
  1
......
  7
Tahoma (Input Text)
100
AcDbAttributeDefinition
  3
Thiết kế
  2
#01
 70
8
 71
1
 72
0
  0
ENDBLK
  5
1E9
330
1E7
100
AcDbEntity
  8
0
100
AcDbBlockEnd
  0
BLOCK
  5
20C
330
20B
100
AcDbEntity
  8
0
100
AcDbBlockBegin
  2
HL035-1-2
 70
0
 10
0.0
 20
0.0
 30
0.0
  3
HL035-1-2
  1

  0
LINE
  5
20E
330
20B
100
AcDbEntity
  8
0
 62
1
100
AcDbLine
 10
-4.5
 20
79.0
 30
0.0
 11
18.5
 21
79.0
 31
0.0
  0
LINE
  5
20F
330
20B
100
AcDbEntity
  8
0
 62
1
100
AcDbLine
 10
18.5
 20
79.0
 30
0.0
 11
18.5
 21
17.0
 31
0.0
  0
LINE
  5
210
330
20B
100
AcDbEntity
  8
0
 62
1
100
AcDbLine
 10
18.5
 20
17.0
 30
0.0
 11
-4.5
 21
17.0
 31
0.0
  0
LINE
  5
211
330
20B
100
AcDbEntity
  8
0
 62
1
100
AcDbLine
 10
-4.5
 20
17.0
 30
0.0
 11
-4.5
 21
31.00000000000728
 31
0.0
  0
LINE
  5
212
330
20B
100
AcDbEntity
  8
0
 62
1
100
AcDbLine
 10
-4.5
 20
65.0
 30
0.0
 11
-4.5
 21
79.0
 31
0.0
  0
LINE
  5
213
330
20B
100
AcDbEntity
  8
0
 62
1
100
AcDbLine
 10
4.5
 20
17.0
 30
0.0
 11
4.5
 21
31.00000000000728
 31
0.0
  0
LINE
  5
214
330
20B
100
AcDbEntity
  8
0
 62
1
100
AcDbLine
 10
4.5
 20
65.0
 30
0.0
 11
4.5
 21
79.0
 31
0.0
  0
LINE
  5
215
330
20B
100
AcDbEntity
  8
0
 62
1
100
AcDbLine
 10
-4.5
 20
65.0
 30
0.0
 11
4.5
 21
65.0
 31
0.0
  0
LINE
  5
216
330
20B
100
AcDbEntity
  8
0
 62
1
100
AcDbLine
 10
-4.5
 20
31.00000000000728
 30
0.0
 11
4.5
 21
31.00000000000728
 31
0.0
  0
LINE
  5
217
330
20B
100
AcDbEntity
  8
0
 62
1
100
AcDbLine
 10
4.5
 20
65.0
 30
0.0
 11
4.5
 21
31.00000000000728
 31
0.0
  0
LWPOLYLINE
  5
218
330
20B
100
AcDbEntity
  8
0
 62
1
100
AcDbPolyline
 90
2
 70
0
 10
2.0
 20
0.0
 10
-1.999999999985448
 20
0.0
  0
LWPOLYLINE
  5
219
330
20B
100
AcDbEntity
  8
0
 62
1
100
AcDbPolyline
 90
2
 70
0
 10
-3.0
 20
3.000000000087311
 10
-3.0
 20
17.0
  0
LWPOLYLINE
  5
21A
330
20B
100
AcDbEntity
  8
0
 62
1
100
AcDbPolyline
 90
2
 70
0
 10
-3.0
 20
32.50000000000728
 10
-3.0
 20
65.0
  0
LWPOLYLINE
  5
21B
330
20B
100
AcDbEntity
  8
0
 62
1
100
AcDbPolyline
 90
2
 70
0
 10
3.0
 20
65.0
 10
3.0
 20
32.50000000000728
  0
LWPOLYLINE
  5
21C
330
20B
100
AcDbEntity
  8
0
 62
1
100
AcDbPolyline
 90
2
 70
0
 10
3.0
 20
17.0
 10
3.0
 20
3.0
  0
LINE
  5
21D
330
20B
100
AcDbEntity
  8
0
 62
1
100
AcDbLine
 10
3.0
 20
3.0
 30
0.0
 11
2.0
 21
0.0
 31
0.0
  0
LINE
  5
21E
330
20B
100
AcDbEntity
  8
0
 62
1
100
AcDbLine
 10
-2.999999999985448
 20
3.0
 30
0.0
 11
-1.999999999985448
 21
0.0
 31
0.0
  0
LINE
  5
21F
330
20B
100
AcDbEntity
  8
0
 62
1
100
AcDbLine
 10
-3.0
 20
79.0
 30
0.0
 11
-3.0
 21
78.99999999999272
 31
0.0
  0
LINE
  5
220
330
20B
100
AcDbEntity
  8
0
 62
1
100
AcDbLine
 10
3.0
 20
79.0
 30
0.0
 11
3.0
 21
79.99999999999272
 31
0.0
  0
LINE
  5
221
330
20B
100
AcDbEntity
  8
0
 62
1
100
AcDbLine
 10
-3.0
 20
79.0
 30
0.0
 11
-3.0
 21
79.99999999999272
 31
0.0
  0
LINE
  5
222
330
20B
100
AcDbEntity
  8
0
 62
1
100
AcDbLine
 10
5.000000000014551
 20
81.99999999999272
 30
0.0
 11
17.00000000001455
 21
82.0
 31
0.0
  0
ARC
  5
223
330
20B
100
AcDbEntity
  8
0
 62
1
100
AcDbCircle
 10
5.000000000014551
 20
79.99999999999272
 30
0.0
 40
2.0
100
AcDbArc
 50
90.0
 51
180.0
  0
ARC
  5
224
330
20B
100
AcDbEntity
  8
0
 62
1
100
AcDbCircle
 10
5.000000000014551
 20
79.99999999999272
 30
0.0
 40
8.000000000000002
100
AcDbArc
 50
90.0
 51
180.0
  0
LINE
  5
225
330
20B
100
AcDbEntity
  8
0
 62
1
100
AcDbLine
 10
5.000000000014551
 20
88.0
 30
0.0
 11
17.00000000001455
 21
88.0
 31
0.0
  0
LINE
  5
226
330
20B
100
AcDbEntity
  8
0
 62
1
100
AcDbLine
 10
17.00000000001455
 20
88.0
 30
0.0
 11
17.00000000001455
 21
82.0
 31
0.0
  0
LWPOLYLINE
  5
227
330
20B
100
AcDbEntity
  8
0
 62
1
100
AcDbPolyline
 90
4
 70
1
 10
-4.0
 20
32.50000000000728
 10
4.0
 20
32.50000000000728
 10
4.0
 20
31.00000000000728
 10
-4.0
 20
31.00000000000728
  0
LINE
  5
228
330
20B
100
AcDbEntity
  8
0
 62
1
100
AcDbLine
 10
4.0
 20
34.00000000000728
 30
0.0
 11
-4.0
 21
32.50000000000728
 31
0.0
  0
LINE
  5
229
330
20B
100
AcDbEntity
  8
0
 62
1
100
AcDbLine
 10
4.0
 20
35.50000000000728
 30
0.0
 11
-4.0
 21
34.00000000000728
 31
0.0
  0
LINE
  5
22A
330
20B
100
AcDbEntity
  8
0
 62
1
100
AcDbLine
 10
4.0
 20
37.00000000000728
 30
0.0
 11
-4.0
 21
35.50000000000728
 31
0.0
  0
LINE
  5
22B
330
20B
100
AcDbEntity
  8
0
 62
1
100
AcDbLine
 10
4.0
 20
38.50000000000728
 30
0.0
 11
-4.0
 21
37.00000000000728
 31
0.0
  0
LINE
  5
22C
330
20B
100
AcDbEntity
  8
0
 62
1
100
AcDbLine
 10
4.0
 20
40.00000000000727
 30
0.0
 11
-4.0
 21
38.50000000000728
 31
0.0
  0
LINE
  5
22D
330
20B
100
AcDbEntity
  8
0
 62
1
100
AcDbLine
 10
4.0
 20
41.50000000000727
 30
0.0
 11
-4.0
 21
40.00000000000727
 31
0.0
  0
LINE
  5
22E
330
20B
100
AcDbEntity
  8
0
 62
1
100
AcDbLine
 10
4.0
 20
43.00000000000728
 30
0.0
 11
-4.0
 21
41.50000000000727
 31
0.0
  0
LINE
  5
22F
330
20B
100
AcDbEntity
  8
0
 62
1
100
AcDbLine
 10
4.0
 20
44.50000000000727
 30
0.0
 11
-4.0
 21
43.00000000000728
 31
0.0
  0
LINE
  5
230
330
20B
100
AcDbEntity
  8
0
 62
1
100
AcDbLine
 10
4.0
 20
46.00000000000727
 30
0.0
 11
-4.0
 21
44.50000000000727
 31
0.0
  0
LINE
  5
231
330
20B
100
AcDbEntity
  8
0
 62
1
100
AcDbLine
 10
4.0
 20
47.50000000000727
 30
0.0
 11
-4.0
 21
46.00000000000727
 31
0.0
  0
LINE
  5
232
330
20B
100
AcDbEntity
  8
0
 62
1
100
AcDbLine
 10
4.0
 20
49.00000000000727
 30
0.0
 11
-4.0
 21
47.50000000000727
 31
0.0
  0
LINE
  5
233
330
20B
100
AcDbEntity
  8
0
 62
1
100
AcDbLine
 10
4.0
 20
50.50000000000728
 30
0.0
 11
-4.0
 21
49.00000000000727
 31
0.0
  0
LINE
  5
234
330
20B
100
AcDbEntity
  8
0
 62
1
100
AcDbLine
 10
4.0
 20
52.00000000000727
 30
0.0
 11
-4.0
 21
50.50000000000728
 31
0.0
  0
LINE
  5
235
330
20B
100
AcDbEntity
  8
0
 62
1
100
AcDbLine
 10
4.0
 20
53.50000000000727
 30
0.0
 11
-4.0
 21
52.00000000000727
 31
0.0
  0
LINE
  5
236
330
20B
100
AcDbEntity
  8
0
 62
1
100
AcDbLine
 10
4.0
 20
55.00000000000728
 30
0.0
 11
-4.0
 21
53.50000000000727
 31
0.0
  0
LINE
  5
237
330
20B
100
AcDbEntity
  8
0
 62
1
100
AcDbLine
 10
4.0
 20
56.50000000000727
 30
0.0
 11
-4.0
 21
55.00000000000728
 31
0.0
  0
LINE
  5
238
330
20B
100
AcDbEntity
  8
0
 62
1
100
AcDbLine
 10
4.0
 20
58.00000000000728
 30
0.0
 11
-4.0
 21
56.50000000000727
 31
0.0
  0
LINE
  5
239
330
20B
100
AcDbEntity
  8
0
 62
1
100
AcDbLine
 10
4.0
 20
59.50000000000727
 30
0.0
 11
-4.0
 21
58.00000000000728
 31
0.0
  0
LINE
  5
23A
330
20B
100
AcDbEntity
  8
0
 62
1
100
AcDbLine
 10
4.0
 20
61.00000000000727
 30
0.0
 11
-4.0
 21
59.50000000000727
 31
0.0
  0
LINE
  5
23B
330
20B
100
AcDbEntity
  8
0
 62
1
100
AcDbLine
 10
4.0
 20
62.50000000000728
 30
0.0
 11
-4.0
 21
61.00000000000727
 31
0.0
  0
LINE
  5
23C
330
20B
100
AcDbEntity
  8
0
 62
1
100
AcDbLine
 10
4.0
 20
64.00000000000728
 30
0.0
 11
-4.0
 21
62.50000000000728
 31
0.0
  0
LINE
  5
23D
330
20B
100
AcDbEntity
  8
0
 62
1
100
AcDbLine
 10
1.33333333331393
 20
65.0
 30
0.0
 11
-4.0
 21
64.00000000000728
 31
0.0
  0
LINE
  5
23E
330
20B
100
AcDbEntity
  8
0
 62
1
100
AcDbLine
 10
-4.0
 20
34.00000000000728
 30
0.0
 11
-3.0
 21
34.00000000000728
 31
0.0
  0
LINE
  5
23F
330
20B
100
AcDbEntity
  8
0
 62
1
100
AcDbLine
 10
3.0
 20
34.00000000000728
 30
0.0
 11
4.0
 21
34.00000000000728
 31
0.0
  0
LINE
  5
240
330
20B
100
AcDbEntity
  8
0
 62
1
100
AcDbLine
 10
-4.0
 20
35.50000000000728
 30
0.0
 11
-3.0
 21
35.50000000000728
 31
0.0
  0
LINE
  5
241
330
20B
100
AcDbEntity
  8
0
 62
1
100
AcDbLine
 10
3.0
 20
35.50000000000728
 30
0.0
 11
4.0
 21
35.50000000000728
 31
0.0
  0
LINE
  5
242
330
20B
100
AcDbEntity
  8
0
 62
1
100
AcDbLine
 10
-4.0
 20
37.00000000000728
 30
0.0
 11
-3.0
 21
37.00000000000728
 31
0.0
  0
LINE
  5
243
330
20B
100
AcDbEntity
  8
0
 62
1
100
AcDbLine
 10
3.0
 20
37.00000000000728
 30
0.0
 11
4.0
 21
37.00000000000728
 31
0.0
  0
LINE
  5
244
330
20B
100
AcDbEntity
  8
0
 62
1
100
AcDbLine
 10
-4.0
 20
38.50000000000728
 30
0.0
 11
-3.0
 21
38.50000000000728
 31
0.0
  0
LINE
  5
245
330
20B
100
AcDbEntity
  8
0
 62
1
100
AcDbLine
 10
3.0
 20
38.50000000000728
 30
0.0
 11
4.0
 21
38.50000000000728
 31
0.0
  0
LINE
  5
246
330
20B
100
AcDbEntity
  8
0
 62
1
100
AcDbLine
 10
-4.0
 20
40.00000000000727
 30
0.0
 11
-3.0
 21
40.00000000000727
 31
0.0
  0
LINE
  5
247
330
20B
100
AcDbEntity
  8
0
 62
1
100
AcDbLine
 10
3.0
 20
40.00000000000727
 30
0.0
 11
4.0
 21
40.00000000000727
 31
0.0
  0
LINE
  5
248
330
20B
100
AcDbEntity
  8
0
 62
1
100
AcDbLine
 10
-4.0
 20
41.50000000000727
 30
0.0
 11
-3.0
 21
41.50000000000727
 31
0.0
  0
LINE
  5
249
330
20B
100
AcDbEntity
  8
0
 62
1
100
AcDbLine
 10
3.0
 20
41.50000000000727
 30
0.0
 11
4.0
 21
41.50000000000727
 31
0.0
  0
LINE
  5
24A
330
20B
100
AcDbEntity
  8
0
 62
1
100
AcDbLine
 10
-4.0
 20
43.00000000000728
 30
0.0
 11
-3.0
 21
43.00000000000728
 31
0.0
  0
LINE
  5
24B
330
20B
100
AcDbEntity
  8
0
 62
1
100
AcDbLine
 10
3.0
 20
43.00000000000728
 30
0.0
 11
4.0
 21
43.00000000000728
 31
0.0
  0
LINE
  5
24C
330
20B
100
AcDbEntity
  8
0
 62
1
100
AcDbLine
 10
-4.0
 20
44.50000000000727
 30
0.0
 11
-3.0
 21
44.50000000000727
 31
0.0
  0
LINE
  5
24D
330
20B
100
AcDbEntity
  8
0
 62
1
100
AcDbLine
 10
3.0
 20
44.50000000000727
 30
0.0
 11
4.0
 21
44.50000000000727
 31
0.0
  0
LINE
  5
24E
330
20B
100
AcDbEntity
  8
0
 62
1
100
AcDbLine
 10
-4.0
 20
46.00000000000727
 30
0.0
 11
-3.0
 21
46.00000000000727
 31
0.0
  0
LINE
  5
24F
330
20B
100
AcDbEntity
  8
0
 62
1
100
AcDbLine
 10
3.0
 20
46.00000000000727
 30
0.0
 11
4.0
 21
46.00000000000727
 31
0.0
  0
LINE
  5
250
330
20B
100
AcDbEntity
  8
0
 62
1
100
AcDbLine
 10
-4.0
 20
47.50000000000727
 30
0.0
 11
-3.0
 21
47.50000000000727
 31
0.0
  0
LINE
  5
251
330
20B
100
AcDbEntity
  8
0
 62
1
100
AcDbLine
 10
3.0
 20
47.50000000000727
 30
0.0
 11
4.0
 21
47.50000000000727
 31
0.0
  0
LINE
  5
252
330
20B
100
AcDbEntity
  8
0
 62
1
100
AcDbLine
 10
-4.0
 20
49.00000000000727
 30
0.0
 11
-3.0
 21
49.00000000000727
 31
0.0
  0
LINE
  5
253
330
20B
100
AcDbEntity
  8
0
 62
1
100
AcDbLine
 10
3.0
 20
49.00000000000727
 30
0.0
 11
4.0
 21
49.00000000000727
 31
0.0
  0
LINE
  5
254
330
20B
100
AcDbEntity
  8
0
 62
1
100
AcDbLine
 10
-4.0
 20
50.50000000000728
 30
0.0
 11
-3.0
 21
50.50000000000728
 31
0.0
  0
LINE
  5
255
330
20B
100
AcDbEntity
  8
0
 62
1
100
AcDbLine
 10
3.0
 20
50.50000000000728
 30
0.0
 11
4.0
 21
50.50000000000728
 31
0.0
  0
LINE
  5
256
330
20B
100
AcDbEntity
  8
0
 62
1
100
AcDbLine
 10
-4.0
 20
52.00000000000727
 30
0.0
 11
-3.0
 21
52.00000000000727
 31
0.0
  0
LINE
  5
257
330
20B
100
AcDbEntity
  8
0
 62
1
100
AcDbLine
 10
3.0
 20
52.00000000000727
 30
0.0
 11
4.0
 21
52.00000000000727
 31
0.0
  0
LINE
  5
258
330
20B
100
AcDbEntity
  8
0
 62
1
100
AcDbLine
 10
-4.0
 20
53.50000000000727
 30
0.0
 11
-3.0
 21
53.50000000000727
 31
0.0
  0
LINE
  5
259
330
20B
100
AcDbEntity
  8
0
 62
1
100
AcDbLine
 10
3.0
 20
53.50000000000727
 30
0.0
 11
4.0
 21
53.50000000000727
 31
0.0
  0
LINE
  5
25A
330
20B
100
AcDbEntity
  8
0
 62
1
100
AcDbLine
 10
-4.0
 20
55.00000000000728
 30
0.0
 11
-3.0
 21
55.00000000000728
 31
0.0
  0
LINE
  5
25B
330
20B
100
AcDbEntity
  8
0
 62
1
100
AcDbLine
 10
3.0
 20
55.00000000000728
 30
0.0
 11
4.0
 21
55.00000000000728
 31
0.0
  0
LINE
  5
25C
330
20B
100
AcDbEntity
  8
0
 62
1
100
AcDbLine
 10
-4.0
 20
56.50000000000727
 30
0.0
 11
-3.0
 21
56.50000000000727
 31
0.0
  0
LINE
  5
25D
330
20B
100
AcDbEntity
  8
0
 62
1
100
AcDbLine
 10
3.0
 20
56.50000000000727
 30
0.0
 11
4.0
 21
56.50000000000727
 31
0.0
  0
LINE
  5
25E
330
20B
100
AcDbEntity
  8
0
 62
1
100
AcDbLine
 10
-4.0
 20
58.00000000000728
 30
0.0
 11
-3.0
 21
58.00000000000728
 31
0.0
  0
LINE
  5
25F
330
20B
100
AcDbEntity
  8
0
 62
1
100
AcDbLine
 10
3.0
 20
58.00000000000728
 30
0.0
 11
4.0
 21
58.00000000000728
 31
0.0
  0
LINE
  5
260
330
20B
100
AcDbEntity
  8
0
 62
1
100
AcDbLine
 10
-4.0
 20
59.50000000000727
 30
0.0
 11
-3.0
 21
59.50000000000727
 31
0.0
  0
LINE
  5
261
330
20B
100
AcDbEntity
  8
0
 62
1
100
AcDbLine
 10
3.0
 20
59.50000000000727
 30
0.0
 11
4.0
 21
59.50000000000727
 31
0.0
  0
LINE
  5
262
330
20B
100
AcDbEntity
  8
0
 62
1
100
AcDbLine
 10
-4.0
 20
62.50000000000728
 30
0.0
 11
-3.0
 21
62.50000000000728
 31
0.0
  0
LINE
  5
263
330
20B
100
AcDbEntity
  8
0
 62
1
100
AcDbLine
 10
3.0
 20
62.50000000000728
 30
0.0
 11
4.0
 21
62.50000000000728
 31
0.0
  0
LINE
  5
264
330
20B
100
AcDbEntity
  8
0
 62
1
100
AcDbLine
 10
-4.0
 20
61.00000000000727
 30
0.0
 11
-3.0
 21
61.00000000000727
 31
0.0
  0
LINE
  5
265
330
20B
100
AcDbEntity
  8
0
 62
1
100
AcDbLine
 10
3.0
 20
61.00000000000727
 30
0.0
 11
4.0
 21
61.00000000000727
 31
0.0
  0
LINE
  5
266
330
20B
100
AcDbEntity
  8
0
 62
1
100
AcDbLine
 10
-4.0
 20
64.00000000000728
 30
0.0
 11
-3.0
 21
64.00000000000728
 31
0.0
  0
LINE
  5
267
330
20B
100
AcDbEntity
  8
0
 62
1
100
AcDbLine
 10
3.0
 20
64.00000000000728
 30
0.0
 11
4.0
 21
64.00000000000728
 31
0.0
  0
ENDBLK
  5
20D
330
20B
100
AcDbEntity
  8
0
100
AcDbBlockEnd
  0
BLOCK
  5
278
330
277
100
AcDbEntity
  8
0
100
AcDbBlockBegin
  2
*D1
 70
1
 10
0.0
 20
0.0
 30
0.0
  3
*D1
  1

  0
LINE
  5
27A
330
277
100
AcDbEntity
  8
DIM
 62
5
370
9
440
16777216
100
AcDbLine
 10
473.30501407112934
 20
2205.8364571744496
 30
0.0
 11
473.30501407112934
 21
2314.84773194642
 31
0.0
  0
LINE
  5
27B
330
277
100
AcDbEntity
  8
DIM
 62
5
370
9
440
16777216
100
AcDbLine
 10
1023.3050140711293
 20
2205.8364571744496
 30
0.0
 11
1023.3050140711293
 21
2314.84773194642
 31
0.0
  0
LINE
  5
27C
330
277
100
AcDbEntity
  8
DIM
 62
5
370
9
440
16777216
100
AcDbLine
 10
473.30501407112934
 20
2304.84773194642
 30
0.0
 11
1023.3050140711293
 21
2304.84773194642
 31
0.0
  0
LINE
  5
27D
330
277
100
AcDbEntity
  8
0
  6
ByBlock
 62
0
370
-2
100
AcDbLine
 10
477.30501407112934
 20
2308.84773194642
 30
0.0
 11
469.30501407112934
 21
2300.84773194642
 31
0.0
  0
LINE
  5
27E
330
277
100
AcDbEntity
  8
0
  6
ByBlock
 62
0
370
-2
100
AcDbLine
 10
1019.3050140711293
 20
2300.84773194642
 30
0.0
 11
1027.3050140711293
 21
2308.84773194642
 31
0.0
  0
MTEXT
  5
27F
330
277
100
AcDbEntity
  8
DIM
 62
3
440
16777216
100
AcDbMText
 10
748.3050140711293
 20
2327.61205663946
 30
0.0
 40
25.0
 41
0.0
 46
0.0
 71
5
  1
550
  0
POINT
  5
280
330
277
100
AcDbEntity
  8
Defpoints
 62
0
440
16777216
100
AcDbPoint
 10
473.30501407112934
 20
2190.8364571744496
 30
0.0
  0
POINT
  5
281
330
277
100
AcDbEntity
  8
Defpoints
 62
0
440
16777216
100
AcDbPoint
 10
1023.3050140711293
 20
2190.8364571744496
 30
0.0
  0
POINT
  5
282
330
277
100
AcDbEntity
  8
Defpoints
 62
0
440
16777216
100
AcDbPoint
 10
1023.3050140711293
 20
2304.84773194642
 30
0.0
  0
ENDBLK
  5
279
330
277
100
AcDbEntity
  8
0
100
AcDbBlockEnd
  0
BLOCK
  5
284
330
283
100
AcDbEntity
  8
0
100
AcDbBlockBegin
  2
*D2
 70
1
 10
0.0
 20
0.0
 30
0.0
  3
*D2
  1

  0
LINE
  5
286
330
283
100
AcDbEntity
  8
DIM
 62
5
370
9
440
16777216
100
AcDbLine
 10
458.30501407112934
 20
2190.8364571744496
 30
0.0
 11
288.0686599642104
 21
2190.8364571744496
 31
0.0
  0
LINE
  5
287
330
283
100
AcDbEntity
  8
DIM
 62
5
370
9
440
16777216
100
AcDbLine
 10
458.30501407112934
 20
1090.8364571744496
 30
0.0
 11
288.0686599642104
 21
1090.8364571744496
 31
0.0
  0
LINE
  5
288
330
283
100
AcDbEntity
  8
DIM
 62
5
370
9
440
16777216
100
AcDbLine
 10
298.0686599642104
 20
2190.8364571744496
 30
0.0
 11
298.0686599642104
 21
1090.8364571744496
 31
0.0
  0
LINE
  5
289
330
283
100
AcDbEntity
  8
0
  6
ByBlock
 62
0
370
-2
100
AcDbLine
 10
302.0686599642104
 20
2186.8364571744496
 30
0.0
 11
294.0686599642104
 21
2194.8364571744496
 31
0.0
  0
LINE
  5
28A
330
283
100
AcDbEntity
  8
0
  6
ByBlock
 62
0
370
-2
100
AcDbLine
 10
294.0686599642104
 20
1094.8364571744496
 30
0.0
 11
302.0686599642104
 21
1086.8364571744496
 31
0.0
  0
MTEXT
  5
28B
330
283
100
AcDbEntity
  8
DIM
 62
3
440
16777216
100
AcDbMText
 10
275.3043352711593
 20
1640.8364571744405
 30
0.0
 40
25.0
 41
0.0
 46
0.0
 71
5
  1
1100
 11
1e-16
 21
1.0
 31
0.0
  0
POINT
  5
28C
330
283
100
AcDbEntity
  8
Defpoints
 62
0
440
16777216
100
AcDbPoint
 10
473.30501407112934
 20
2190.8364571744496
 30
0.0
  0
POINT
  5
28D
330
283
100
AcDbEntity
  8
Defpoints
 62
0
440
16777216
100
AcDbPoint
 10
473.30501407112934
 20
1090.8364571744496
 30
0.0
  0
POINT
  5
28E
330
283
100
AcDbEntity
  8
Defpoints
 62
0
440
16777216
100
AcDbPoint
 10
298.0686599642104
 20
1090.8364571744496
 30
0.0
  0
ENDBLK
  5
285
330
283
100
AcDbEntity
  8
0
100
AcDbBlockEnd
  0
BLOCK
  5
290
330
28F
100
AcDbEntity
  8
0
100
AcDbBlockBegin
  2
*D3
 70
1
 10
0.0
 20
0.0
 30
0.0
  3
*D3
  1

  0
LINE
  5
292
330
28F
100
AcDbEntity
  8
DIM
 62
5
370
9
440
16777216
100
AcDbLine
 10
2139.150694600099
 20
2205.8364571744496
 30
0.0
 11
2139.150694600099
 21
2323.289325275691
 31
0.0
  0
LINE
  5
293
330
28F
100
AcDbEntity
  8
DIM
 62
5
370
9
440
16777216
100
AcDbLine
 10
2339.150694600099
 20
2231.8364571744496
 30
0.0
 11
2339.150694600099
 21
2323.289325275691
 31
0.0
  0
LINE
  5
294
330
28F
100
AcDbEntity
  8
DIM
 62
5
370
9
440
16777216
100
AcDbLine
 10
2139.150694600099
 20
2313.289325275691
 30
0.0
 11
2339.150694600099
 21
2313.289325275691
 31
0.0
  0
LINE
  5
295
330
28F
100
AcDbEntity
  8
0
  6
ByBlock
 62
0
370
-2
100
AcDbLine
 10
2143.150694600099
 20
2317.289325275691
 30
0.0
 11
2135.150694600099
 21
2309.289325275691
 31
0.0
  0
LINE
  5
296
330
28F
100
AcDbEntity
  8
0
  6
ByBlock
 62
0
370
-2
100
AcDbLine
 10
2335.150694600099
 20
2309.289325275691
 30
0.0
 11
2343.150694600099
 21
2317.289325275691
 31
0.0
  0
MTEXT
  5
297
330
28F
100
AcDbEntity
  8
DIM
 62
3
440
16777216
100
AcDbMText
 10
2239.150694600099
 20
2336.0536499687296
 30
0.0
 40
25.0
 41
0.0
 46
0.0
 71
5
  1
200
  0
POINT
  5
298
330
28F
100
AcDbEntity
  8
Defpoints
 62
0
440
16777216
100
AcDbPoint
 10
2139.150694600099
 20
2190.8364571744496
 30
0.0
  0
POINT
  5
299
330
28F
100
AcDbEntity
  8
Defpoints
 62
0
440
16777216
100
AcDbPoint
 10
2339.150694600099
 20
2216.8364571744496
 30
0.0
  0
POINT
  5
29A
330
28F
100
AcDbEntity
  8
Defpoints
 62
0
440
16777216
100
AcDbPoint
 10
2339.150694600099
 20
2313.289325275691
 30
0.0
  0
ENDBLK
  5
291
330
28F
100
AcDbEntity
  8
0
100
AcDbBlockEnd
  0
BLOCK
  5
29C
330
29B
100
AcDbEntity
  8
0
100
AcDbBlockBegin
  2
*D4
 70
1
 10
0.0
 20
0.0
 30
0.0
  3
*D4
  1

  0
LINE
  5
29E
330
29B
100
AcDbEntity
  8
DIM
 62
5
370
9
440
16777216
100
AcDbLine
 10
2124.150694600099
 20
1090.2720143863407
 30
0.0
 11
1937.1575280860998
 21
1090.2720143863407
 31
0.0
  0
LINE
  5
29F
330
29B
100
AcDbEntity
  8
DIM
 62
5
370
9
440
16777216
100
AcDbLine
 10
2124.150694600099
 20
2190.27201438633
 30
0.0
 11
1937.1575280860998
 21
2190.27201438633
 31
0.0
  0
LINE
  5
2A0
330
29B
100
AcDbEntity
  8
DIM
 62
5
370
9
440
16777216
100
AcDbLine
 10
1947.1575280860998
 20
1090.2720143863407
 30
0.0
 11
1947.1575280860998
 21
2190.27201438633
 31
0.0
  0
LINE
  5
2A1
330
29B
100
AcDbEntity
  8
0
  6
ByBlock
 62
0
370
-2
100
AcDbLine
 10
1943.1575280860998
 20
1094.2720143863407
 30
0.0
 11
1951.1575280860998
 21
1086.2720143863407
 31
0.0
  0
LINE
  5
2A2
330
29B
100
AcDbEntity
  8
0
  6
ByBlock
 62
0
370
-2
100
AcDbLine
 10
1951.1575280860998
 20
2186.27201438633
 30
0.0
 11
1943.1575280860998
 21
2194.27201438633
 31
0.0
  0
MTEXT
  5
2A3
330
29B
100
AcDbEntity
  8
DIM
 62
3
440
16777216
100
AcDbMText
 10
1924.3932033930596
 20
1640.2720143863498
 30
0.0
 40
25.0
 41
0.0
 46
0.0
 71
5
  1
1100
 11
1e-16
 21
1.0
 31
0.0
  0
POINT
  5
2A4
330
29B
100
AcDbEntity
  8
Defpoints
 62
0
440
16777216
100
AcDbPoint
 10
2139.150694600099
 20
1090.2720143863407
 30
0.0
  0
POINT
  5
2A5
330
29B
100
AcDbEntity
  8
Defpoints
 62
0
440
16777216
100
AcDbPoint
 10
2139.150694600099
 20
2190.27201438633
 30
0.0
  0
POINT
  5
2A6
330
29B
100
AcDbEntity
  8
Defpoints
 62
0
440
16777216
100
AcDbPoint
 10
1947.1575280860998
 20
2190.27201438633
 30
0.0
  0
ENDBLK
  5
29D
330
29B
100
AcDbEntity
  8
0
100
AcDbBlockEnd
  0
BLOCK
  5
2A8
330
2A7
100
AcDbEntity
  8
0
100
AcDbBlockBegin
  2
*D5
 70
1
 10
0.0
 20
0.0
 30
0.0
  3
*D5
  1

  0
LINE
  5
2AA
330
2A7
100
AcDbEntity
  8
DIM
 62
5
370
9
440
16777216
100
AcDbLine
 10
458.30501407112934
 20
2190.8364571744496
 30
0.0
 11
381.96865168666955
 21
2190.8364571744496
 31
0.0
  0
LINE
  5
2AB
330
2A7
100
AcDbEntity
  8
DIM
 62
5
370
9
440
16777216
100
AcDbLine
 10
629.3050140711293
 20
1690.8364571744496
 30
0.0
 11
381.96865168666955
 21
1690.8364571744496
 31
0.0
  0
LINE
  5
2AC
330
2A7
100
AcDbEntity
  8
DIM
 62
5
370
9
440
16777216
100
AcDbLine
 10
391.96865168666045
 20
2190.8364571744496
 30
0.0
 11
391.96865168666045
 21
1690.8364571744496
 31
0.0
  0
LINE
  5
2AD
330
2A7
100
AcDbEntity
  8
0
  6
ByBlock
 62
0
370
-2
100
AcDbLine
 10
395.96865168666045
 20
2186.8364571744496
 30
0.0
 11
387.96865168666045
 21
2194.8364571744496
 31
0.0
  0
LINE
  5
2AE
330
2A7
100
AcDbEntity
  8
0
  6
ByBlock
 62
0
370
-2
100
AcDbLine
 10
387.96865168666045
 20
1694.8364571744496
 30
0.0
 11
395.96865168666045
 21
1686.8364571744496
 31
0.0
  0
MTEXT
  5
2AF
330
2A7
100
AcDbEntity
  8
DIM
 62
3
440
16777216
100
AcDbMText
 10
369.20432699362027
 20
1940.8364571744405
 30
0.0
 40
25.0
 41
0.0
 46
0.0
 71
5
  1
500
 11
1e-16
 21
1.0
 31
0.0
  0
POINT
  5
2B0
330
2A7
100
AcDbEntity
  8
Defpoints
 62
0
440
16777216
100
AcDbPoint
 10
473.30501407112934
 20
2190.8364571744496
 30
0.0
  0
POINT
  5
2B1
330
2A7
100
AcDbEntity
  8
Defpoints
 62
0
440
16777216
100
AcDbPoint
 10
644.3050140711293
 20
1690.8364571744496
 30
0.0
  0
POINT
  5
2B2
330
2A7
100
AcDbEntity
  8
Defpoints
 62
0
440
16777216
100
AcDbPoint
 10
391.96865168666045
 20
1690.8364571744496
 30
0.0
  0
ENDBLK
  5
2A9
330
2A7
100
AcDbEntity
  8
0
100
AcDbBlockEnd
  0
BLOCK
  5
2B4
330
2B3
100
AcDbEntity
  8
0
100
AcDbBlockBegin
  2
*D6
 70
1
 10
0.0
 20
0.0
 30
0.0
  3
*D6
  1

  0
LINE
  5
2B6
330
2B3
100
AcDbEntity
  8
DIM
 62
5
370
9
440
16777216
100
AcDbLine
 10
479.30501407112934
 20
1690.8364571744496
 30
0.0
 11
381.96865168666955
 21
1690.8364571744496
 31
0.0
  0
LINE
  5
2B7
330
2B3
100
AcDbEntity
  8
DIM
 62
5
370
9
440
16777216
100
AcDbLine
 10
443.30501407112934
 20
1090.8364571744496
 30
0.0
 11
381.96865168666955
 21
1090.8364571744496
 31
0.0
  0
LINE
  5
2B8
330
2B3
100
AcDbEntity
  8
DIM
 62
5
370
9
440
16777216
100
AcDbLine
 10
391.96865168666045
 20
1690.8364571744496
 30
0.0
 11
391.96865168666045
 21
1090.8364571744496
 31
0.0
  0
LINE
  5
2B9
330
2B3
100
AcDbEntity
  8
0
  6
ByBlock
 62
0
370
-2
100
AcDbLine
 10
395.96865168666045
 20
1686.8364571744496
 30
0.0
 11
387.96865168666045
 21
1694.8364571744496
 31
0.0
  0
LINE
  5
2BA
330
2B3
100
AcDbEntity
  8
0
  6
ByBlock
 62
0
370
-2
100
AcDbLine
 10
387.96865168666045
 20
1094.8364571744496
 30
0.0
 11
395.96865168666045
 21
1086.8364571744496
 31
0.0
  0
MTEXT
  5
2BB
330
2B3
100
AcDbEntity
  8
DIM
 62
3
440
16777216
100
AcDbMText
 10
369.20432699362027
 20
1390.8364571744405
 30
0.0
 40
25.0
 41
0.0
 46
0.0
 71
5
  1
600
 11
1e-16
 21
1.0
 31
0.0
  0
POINT
  5
2BC
330
2B3
100
AcDbEntity
  8
Defpoints
 62
0
440
16777216
100
AcDbPoint
 10
494.30501407112934
 20
1690.8364571744496
 30
0.0
  0
POINT
  5
2BD
330
2B3
100
AcDbEntity
  8
Defpoints
 62
0
440
16777216
100
AcDbPoint
 10
458.30501407112934
 20
1090.8364571744496
 30
0.0
  0
POINT
  5
2BE
330
2B3
100
AcDbEntity
  8
Defpoints
 62
0
440
16777216
100
AcDbPoint
 10
391.96865168666045
 20
1090.8364571744496
 30
0.0
  0
ENDBLK
  5
2B5
330
2B3
100
AcDbEntity
  8
0
100
AcDbBlockEnd
  0
BLOCK
  5
2C0
330
2BF
100
AcDbEntity
  8
0
100
AcDbBlockBegin
  2
*D7
 70
1
 10
0.0
 20
0.0
 30
0.0
  3
*D7
  1

  0
LINE
  5
2C2
330
2BF
100
AcDbEntity
  8
DIM
 62
5
370
9
440
16777216
100
AcDbLine
 10
2196.002258922359
 20
2161.9682623833596
 30
0.0
 11
2229.8777498200106
 21
2069.0227411711803
 31
0.0
  0
MTEXT
  5
2C3
330
2BF
100
AcDbEntity
  8
DIM
 62
3
440
16777216
100
AcDbMText
 10
2232.24552068308
 20
2131.0464876069
 30
0.0
 40
25.0
 41
0.0
 46
0.0
 71
5
  1
∅60
 11
0.3424314926699479
 21
-0.9395427998914319
 31
0.0
  0
LINE
  5
2C4
330
2BF
100
AcDbEntity
  8
DIM
 62
5
370
9
440
16777216
100
AcDbLine
 10
2250.4236393802003
 20
2012.6501731777098
 30
0.0
 11
2229.8777498200106
 21
2069.0227411711803
 31
0.0
  0
LINE
  5
2C5
330
2BF
100
AcDbEntity
  8
0
  6
ByBlock
 62
0
370
-2
100
AcDbLine
 10
2255.5515365504452
 20
2010.261727948824
 30
0.0
 11
2245.2957422099553
 21
2015.0386184065956
 31
0.0
  0
LINE
  5
2C6
330
2BF
100
AcDbEntity
  8
0
  6
ByBlock
 62
0
370
-2
100
AcDbLine
 10
2224.7498526497657
 20
2071.411186400066
 30
0.0
 11
2235.0056469902556
 21
2066.6342959422946
 31
0.0
  0
POINT
  5
2C7
330
2BF
100
AcDbEntity
  8
Defpoints
 62
0
440
16777216
100
AcDbPoint
 10
2229.8777498200106
 20
2069.0227411711803
 30
0.0
  0
POINT
  5
2C8
330
2BF
100
AcDbEntity
  8
Defpoints
 62
0
440
16777216
100
AcDbPoint
 10
2250.4236393802003
 20
2012.6501731777098
 30
0.0
  0
ENDBLK
  5
2C1
330
2BF
100
AcDbEntity
  8
0
100
AcDbBlockEnd
  0
BLOCK
  5
2CA
330
2C9
100
AcDbEntity
  8
0
100
AcDbBlockBegin
  2
*D8
 70
1
 10
0.0
 20
0.0
 30
0.0
  3
*D8
  1

  0
LINE
  5
2CC
330
2C9
100
AcDbEntity
  8
DIM
 62
5
370
9
440
16777216
100
AcDbLine
 10
2124.150694600099
 20
2190.8364571744496
 30
0.0
 11
2022.9600319660694
 21
2190.8364571744496
 31
0.0
  0
LINE
  5
2CD
330
2C9
100
AcDbEntity
  8
DIM
 62
5
370
9
440
16777216
100
AcDbLine
 10
2225.150694600099
 20
2040.8364571744496
 30
0.0
 11
2022.9600319660694
 21
2040.8364571744496
 31
0.0
  0
LINE
  5
2CE
330
2C9
100
AcDbEntity
  8
DIM
 62
5
370
9
440
16777216
100
AcDbLine
 10
2032.9600319660694
 20
2190.8364571744496
 30
0.0
 11
2032.9600319660694
 21
2040.8364571744496
 31
0.0
  0
LINE
  5
2CF
330
2C9
100
AcDbEntity
  8
0
  6
ByBlock
 62
0
370
-2
100
AcDbLine
 10
2036.9600319660694
 20
2186.8364571744496
 30
0.0
 11
2028.9600319660694
 21
2194.8364571744496
 31
0.0
  0
LINE
  5
2D0
330
2C9
100
AcDbEntity
  8
0
  6
ByBlock
 62
0
370
-2
100
AcDbLine
 10
2028.9600319660694
 20
2044.8364571744496
 30
0.0
 11
2036.9600319660694
 21
2036.8364571744496
 31
0.0
  0
MTEXT
  5
2D1
330
2C9
100
AcDbEntity
  8
DIM
 62
3
440
16777216
100
AcDbMText
 10
2010.1957072730202
 20
2115.8364571744405
 30
0.0
 40
25.0
 41
0.0
 46
0.0
 71
5
  1
150
 11
1e-16
 21
1.0
 31
0.0
  0
POINT
  5
2D2
330
2C9
100
AcDbEntity
  8
Defpoints
 62
0
440
16777216
100
AcDbPoint
 10
2139.150694600099
 20
2190.8364571744496
 30
0.0
  0
POINT
  5
2D3
330
2C9
100
AcDbEntity
  8
Defpoints
 62
0
440
16777216
100
AcDbPoint
 10
2240.150694600099
 20
2040.8364571744496
 30
0.0
  0
POINT
  5
2D4
330
2C9
100
AcDbEntity
  8
Defpoints
 62
0
440
16777216
100
AcDbPoint
 10
2032.9600319660694
 20
2040.8364571744496
 30
0.0
  0
ENDBLK
  5
2CB
330
2C9
100
AcDbEntity
  8
0
100
AcDbBlockEnd
  0
BLOCK
  5
2D6
330
2D5
100
AcDbEntity
  8
0
100
AcDbBlockBegin
  2
*D9
 70
1
 10
0.0
 20
0.0
 30
0.0
  3
*D9
  1

  0
LINE
  5
2D8
330
2D5
100
AcDbEntity
  8
DIM
 62
5
370
9
440
16777216
100
AcDbLine
 10
448.30501407112934
 20
739.8475682571207
 30
0.0
 11
448.30501407112934
 21
792.7316407526996
 31
0.0
  0
LINE
  5
2D9
330
2D5
100
AcDbEntity
  8
DIM
 62
5
370
9
440
16777216
100
AcDbLine
 10
998.3050140711293
 20
739.8475682571207
 30
0.0
 11
998.3050140711293
 21
792.7316407526996
 31
0.0
  0
LINE
  5
2DA
330
2D5
100
AcDbEntity
  8
DIM
 62
5
370
9
440
16777216
100
AcDbLine
 10
448.30501407112934
 20
782.7316407526996
 30
0.0
 11
998.3050140711293
 21
782.7316407526996
 31
0.0
  0
LINE
  5
2DB
330
2D5
100
AcDbEntity
  8
0
  6
ByBlock
 62
0
370
-2
100
AcDbLine
 10
452.30501407112934
 20
786.7316407526996
 30
0.0
 11
444.30501407112934
 21
778.7316407526996
 31
0.0
  0
LINE
  5
2DC
330
2D5
100
AcDbEntity
  8
0
  6
ByBlock
 62
0
370
-2
100
AcDbLine
 10
994.3050140711293
 20
778.7316407526996
 30
0.0
 11
1002.3050140711293
 21
786.7316407526996
 31
0.0
  0
MTEXT
  5
2DD
330
2D5
100
AcDbEntity
  8
DIM
 62
3
440
16777216
100
AcDbMText
 10
723.3050140711293
 20
805.4959654457398
 30
0.0
 40
25.0
 41
0.0
 46
0.0
 71
5
  1
550
  0
POINT
  5
2DE
330
2D5
100
AcDbEntity
  8
Defpoints
 62
0
440
16777216
100
AcDbPoint
 10
448.30501407112934
 20
724.8475682571207
 30
0.0
  0
POINT
  5
2DF
330
2D5
100
AcDbEntity
  8
Defpoints
 62
0
440
16777216
100
AcDbPoint
 10
998.3050140711293
 20
724.8475682571207
 30
0.0
  0
POINT
  5
2E0
330
2D5
100
AcDbEntity
  8
Defpoints
 62
0
440
16777216
100
AcDbPoint
 10
998.3050140711293
 20
782.7316407526996
 30
0.0
  0
ENDBLK
  5
2D7
330
2D5
100
AcDbEntity
  8
0
100
AcDbBlockEnd
  0
BLOCK
  5
2E2
330
2E1
100
AcDbEntity
  8
0
100
AcDbBlockBegin
  2
*D10
 70
1
 10
0.0
 20
0.0
 30
0.0
  3
*D10
  1

  0
LINE
  5
2E4
330
2E1
100
AcDbEntity
  8
DIM
 62
5
370
9
440
16777216
100
AcDbLine
 10
447.30501407112934
 20
2231.8364571744496
 30
0.0
 11
447.30501407112934
 21
2385.851046109221
 31
0.0
  0
LINE
  5
2E5
330
2E1
100
AcDbEntity
  8
DIM
 62
5
370
9
440
16777216
100
AcDbLine
 10
1049.3050140711293
 20
2231.8364571744496
 30
0.0
 11
1049.3050140711293
 21
2385.851046109221
 31
0.0
  0
LINE
  5
2E6
330
2E1
100
AcDbEntity
  8
DIM
 62
5
370
9
440
16777216
100
AcDbLine
 10
447.30501407112934
 20
2375.851046109221
 30
0.0
 11
1049.3050140711293
 21
2375.851046109221
 31
0.0
  0
LINE
  5
2E7
330
2E1
100
AcDbEntity
  8
0
  6
ByBlock
 62
0
370
-2
100
AcDbLine
 10
451.30501407112934
 20
2379.851046109221
 30
0.0
 11
443.30501407112934
 21
2371.851046109221
 31
0.0
  0
LINE
  5
2E8
330
2E1
100
AcDbEntity
  8
0
  6
ByBlock
 62
0
370
-2
100
AcDbLine
 10
1045.3050140711293
 20
2371.851046109221
 30
0.0
 11
1053.3050140711293
 21
2379.851046109221
 31
0.0
  0
MTEXT
  5
2E9
330
2E1
100
AcDbEntity
  8
DIM
 62
3
440
16777216
100
AcDbMText
 10
748.3050140711293
 20
2398.6153708022703
 30
0.0
 40
25.0
 41
0.0
 46
0.0
 71
5
  1
602
  0
POINT
  5
2EA
330
2E1
100
AcDbEntity
  8
Defpoints
 62
0
440
16777216
100
AcDbPoint
 10
447.30501407112934
 20
2216.8364571744496
 30
0.0
  0
POINT
  5
2EB
330
2E1
100
AcDbEntity
  8
Defpoints
 62
0
440
16777216
100
AcDbPoint
 10
1049.3050140711293
 20
2216.8364571744496
 30
0.0
  0
POINT
  5
2EC
330
2E1
100
AcDbEntity
  8
Defpoints
 62
0
440
16777216
100
AcDbPoint
 10
1049.3050140711293
 20
2375.851046109221
 30
0.0
  0
ENDBLK
  5
2E3
330
2E1
100
AcDbEntity
  8
0
100
AcDbBlockEnd
  0
BLOCK
  5
2EE
330
2ED
100
AcDbEntity
  8
0
100
AcDbBlockBegin
  2
*D11
 70
1
 10
0.0
 20
0.0
 30
0.0
  3
*D11
  1

  0
LINE
  5
2F0
330
2ED
100
AcDbEntity
  8
DIM
 62
5
370
9
440
16777216
100
AcDbLine
 10
422.30501407112934
 20
509.84756825712066
 30
0.0
 11
422.30501407112934
 21
427.06745607796984
 31
0.0
  0
LINE
  5
2F1
330
2ED
100
AcDbEntity
  8
DIM
 62
5
370
9
440
16777216
100
AcDbLine
 10
1024.3050140711293
 20
509.84756825712066
 30
0.0
 11
1024.3050140711293
 21
427.06745607796984
 31
0.0
  0
LINE
  5
2F2
330
2ED
100
AcDbEntity
  8
DIM
 62
5
370
9
440
16777216
100
AcDbLine
 10
422.30501407112934
 20
437.06745607798075
 30
0.0
 11
1024.3050140711293
 21
437.06745607798075
 31
0.0
  0
LINE
  5
2F3
330
2ED
100
AcDbEntity
  8
0
  6
ByBlock
 62
0
370
-2
100
AcDbLine
 10
426.30501407112934
 20
441.06745607798075
 30
0.0
 11
418.30501407112934
 21
433.06745607798075
 31
0.0
  0
LINE
  5
2F4
330
2ED
100
AcDbEntity
  8
0
  6
ByBlock
 62
0
370
-2
100
AcDbLine
 10
1020.3050140711293
 20
433.06745607798075
 30
0.0
 11
1028.3050140711293
 21
441.06745607798075
 31
0.0
  0
MTEXT
  5
2F5
330
2ED
100
AcDbEntity
  8
DIM
 62
3
440
16777216
100
AcDbMText
 10
723.3050140711293
 20
459.83178077102093
 30
0.0
 40
25.0
 41
0.0
 46
0.0
 71
5
  1
602
  0
POINT
  5
2F6
330
2ED
100
AcDbEntity
  8
Defpoints
 62
0
440
16777216
100
AcDbPoint
 10
422.30501407112934
 20
524.8475682571207
 30
0.0
  0
POINT
  5
2F7
330
2ED
100
AcDbEntity
  8
Defpoints
 62
0
440
16777216
100
AcDbPoint
 10
1024.3050140711293
 20
524.8475682571207
 30
0.0
  0
POINT
  5
2F8
330
2ED
100
AcDbEntity
  8
Defpoints
 62
0
440
16777216
100
AcDbPoint
 10
1024.3050140711293
 20
437.06745607798075
 30
0.0
  0
ENDBLK
  5
2EF
330
2ED
100
AcDbEntity
  8
0
100
AcDbBlockEnd
  0
BLOCK
  5
2FA
330
2F9
100
AcDbEntity
  8
0
100
AcDbBlockBegin
  2
*D12
 70
1
 10
0.0
 20
0.0
 30
0.0
  3
*D12
  1

  0
LINE
  5
2FC
330
2F9
100
AcDbEntity
  8
DIM
 62
5
370
9
440
16777216
100
AcDbLine
 10
1214.7580896733598
 20
2205.8364571744496
 30
0.0
 11
1214.7580896733598
 21
2277.138186913631
 31
0.0
  0
LINE
  5
2FD
330
2F9
100
AcDbEntity
  8
DIM
 62
5
370
9
440
16777216
100
AcDbLine
 10
1714.7580896733598
 20
2205.8364571744496
 30
0.0
 11
1714.7580896733598
 21
2277.138186913631
 31
0.0
  0
LINE
  5
2FE
330
2F9
100
AcDbEntity
  8
DIM
 62
5
370
9
440
16777216
100
AcDbLine
 10
1214.7580896733598
 20
2267.138186913631
 30
0.0
 11
1714.7580896733598
 21
2267.138186913631
 31
0.0
  0
LINE
  5
2FF
330
2F9
100
AcDbEntity
  8
0
  6
ByBlock
 62
0
370
-2
100
AcDbLine
 10
1218.7580896733598
 20
2271.138186913631
 30
0.0
 11
1210.7580896733598
 21
2263.138186913631
 31
0.0
  0
LINE
  5
300
330
2F9
100
AcDbEntity
  8
0
  6
ByBlock
 62
0
370
-2
100
AcDbLine
 10
1710.7580896733598
 20
2263.138186913631
 30
0.0
 11
1718.7580896733598
 21
2271.138186913631
 31
0.0
  0
MTEXT
  5
301
330
2F9
100
AcDbEntity
  8
DIM
 62
3
440
16777216
100
AcDbMText
 10
1464.7580896733598
 20
2289.9025116066696
 30
0.0
 40
25.0
 41
0.0
 46
0.0
 71
5
  1
500
  0
POINT
  5
302
330
2F9
100
AcDbEntity
  8
Defpoints
 62
0
440
16777216
100
AcDbPoint
 10
1214.7580896733598
 20
2190.8364571744496
 30
0.0
  0
POINT
  5
303
330
2F9
100
AcDbEntity
  8
Defpoints
 62
0
440
16777216
100
AcDbPoint
 10
1714.7580896733598
 20
2190.8364571744496
 30
0.0
  0
POINT
  5
304
330
2F9
100
AcDbEntity
  8
Defpoints
 62
0
440
16777216
100
AcDbPoint
 10
1714.7580896733598
 20
2267.138186913631
 30
0.0
  0
ENDBLK
  5
2FB
330
2F9
100
AcDbEntity
  8
0
100
AcDbBlockEnd
  0
BLOCK
  5
306
330
305
100
AcDbEntity
  8
0
100
AcDbBlockBegin
  2
*D13
 70
1
 10
0.0
 20
0.0
 30
0.0
  3
*D13
  1

  0
LINE
  5
308
330
305
100
AcDbEntity
  8
DIM
 62
5
370
9
440
16777216
100
AcDbLine
 10
1199.7580896733598
 20
2190.8364571744496
 30
0.0
 11
1093.4887733121395
 21
2190.8364571744496
 31
0.0
  0
LINE
  5
309
330
305
100
AcDbEntity
  8
DIM
 62
5
370
9
440
16777216
100
AcDbLine
 10
1199.7580896733598
 20
1090.8364571744496
 30
0.0
 11
1093.4887733121395
 21
1090.8364571744496
 31
0.0
  0
LINE
  5
30A
330
305
100
AcDbEntity
  8
DIM
 62
5
370
9
440
16777216
100
AcDbLine
 10
1103.4887733121395
 20
2190.8364571744496
 30
0.0
 11
1103.4887733121395
 21
1090.8364571744496
 31
0.0
  0
LINE
  5
30B
330
305
100
AcDbEntity
  8
0
  6
ByBlock
 62
0
370
-2
100
AcDbLine
 10
1107.4887733121395
 20
2186.8364571744496
 30
0.0
 11
1099.4887733121395
 21
2194.8364571744496
 31
0.0
  0
LINE
  5
30C
330
305
100
AcDbEntity
  8
0
  6
ByBlock
 62
0
370
-2
100
AcDbLine
 10
1099.4887733121395
 20
1094.8364571744496
 30
0.0
 11
1107.4887733121395
 21
1086.8364571744496
 31
0.0
  0
MTEXT
  5
30D
330
305
100
AcDbEntity
  8
DIM
 62
3
440
16777216
100
AcDbMText
 10
1080.7244486190993
 20
1640.8364571744496
 30
0.0
 40
25.0
 41
0.0
 46
0.0
 71
5
  1
1100
 11
1e-16
 21
1.0
 31
0.0
  0
POINT
  5
30E
330
305
100
AcDbEntity
  8
Defpoints
 62
0
440
16777216
100
AcDbPoint
 10
1214.7580896733598
 20
2190.8364571744496
 30
0.0
  0
POINT
  5
30F
330
305
100
AcDbEntity
  8
Defpoints
 62
0
440
16777216
100
AcDbPoint
 10
1214.7580896733598
 20
1090.8364571744496
 30
0.0
  0
POINT
  5
310
330
305
100
AcDbEntity
  8
Defpoints
 62
0
440
16777216
100
AcDbPoint
 10
1103.4887733121395
 20
1090.8364571744496
 30
0.0
  0
ENDBLK
  5
307
330
305
100
AcDbEntity
  8
0
100
AcDbBlockEnd
  0
BLOCK
  5
312
330
311
100
AcDbEntity
  8
0
100
AcDbBlockBegin
  2
*D14
 70
1
 10
0.0
 20
0.0
 30
0.0
  3
*D14
  1

  0
LINE
  5
314
330
311
100
AcDbEntity
  8
DIM
 62
5
370
9
440
16777216
100
AcDbLine
 10
2125.150694600099
 20
1560.8364571744496
 30
0.0
 11
2039.3842313803907
 21
1560.8364571744496
 31
0.0
  0
LINE
  5
315
330
311
100
AcDbEntity
  8
DIM
 62
5
370
9
440
16777216
100
AcDbLine
 10
2124.150694600099
 20
1090.8364571744496
 30
0.0
 11
2039.3842313803907
 21
1090.8364571744496
 31
0.0
  0
LINE
  5
316
330
311
100
AcDbEntity
  8
DIM
 62
5
370
9
440
16777216
100
AcDbLine
 10
2049.3842313803907
 20
1560.8364571744496
 30
0.0
 11
2049.3842313803907
 21
1090.8364571744496
 31
0.0
  0
LINE
  5
317
330
311
100
AcDbEntity
  8
0
  6
ByBlock
 62
0
370
-2
100
AcDbLine
 10
2053.3842313803907
 20
1556.8364571744496
 30
0.0
 11
2045.3842313803907
 21
1564.8364571744496
 31
0.0
  0
LINE
  5
318
330
311
100
AcDbEntity
  8
0
  6
ByBlock
 62
0
370
-2
100
AcDbLine
 10
2045.3842313803907
 20
1094.8364571744496
 30
0.0
 11
2053.3842313803907
 21
1086.8364571744496
 31
0.0
  0
MTEXT
  5
319
330
311
100
AcDbEntity
  8
DIM
 62
3
440
16777216
100
AcDbMText
 10
2026.6199066873396
 20
1325.8364571744496
 30
0.0
 40
25.0
 41
0.0
 46
0.0
 71
5
  1
470
 11
1e-16
 21
1.0
 31
0.0
  0
POINT
  5
31A
330
311
100
AcDbEntity
  8
Defpoints
 62
0
440
16777216
100
AcDbPoint
 10
2140.150694600099
 20
1560.8364571744496
 30
0.0
  0
POINT
  5
31B
330
311
100
AcDbEntity
  8
Defpoints
 62
0
440
16777216
100
AcDbPoint
 10
2139.150694600099
 20
1090.8364571744496
 30
0.0
  0
POINT
  5
31C
330
311
100
AcDbEntity
  8
Defpoints
 62
0
440
16777216
100
AcDbPoint
 10
2049.3842313803907
 20
1090.8364571744496
 30
0.0
  0
ENDBLK
  5
313
330
311
100
AcDbEntity
  8
0
100
AcDbBlockEnd
  0
BLOCK
  5
31E
330
31D
100
AcDbEntity
  8
0
100
AcDbBlockBegin
  2
*D15
 70
1
 10
0.0
 20
0.0
 30
0.0
  3
*D15
  1

  0
LINE
  5
320
330
31D
100
AcDbEntity
  8
DIM
 62
5
370
9
440
16777216
100
AcDbLine
 10
432.30501407112934
 20
2216.8364571744496
 30
0.0
 11
186.35616424466025
 21
2216.8364571744496
 31
0.0
  0
LINE
  5
321
330
31D
100
AcDbEntity
  8
DIM
 62
5
370
9
440
16777216
100
AcDbLine
 10
432.30501407112934
 20
1064.8364571744496
 30
0.0
 11
186.35616424466025
 21
1064.8364571744496
 31
0.0
  0
LINE
  5
322
330
31D
100
AcDbEntity
  8
DIM
 62
5
370
9
440
16777216
100
AcDbLine
 10
196.35616424466025
 20
2216.8364571744496
 30
0.0
 11
196.35616424466025
 21
1064.8364571744496
 31
0.0
  0
LINE
  5
323
330
31D
100
AcDbEntity
  8
0
  6
ByBlock
 62
0
370
-2
100
AcDbLine
 10
200.35616424466025
 20
2212.8364571744496
 30
0.0
 11
192.35616424466025
 21
2220.8364571744496
 31
0.0
  0
LINE
  5
324
330
31D
100
AcDbEntity
  8
0
  6
ByBlock
 62
0
370
-2
100
AcDbLine
 10
192.35616424466025
 20
1068.8364571744496
 30
0.0
 11
200.35616424466025
 21
1060.8364571744496
 31
0.0
  0
MTEXT
  5
325
330
31D
100
AcDbEntity
  8
DIM
 62
3
440
16777216
100
AcDbMText
 10
173.59183955160916
 20
1640.8364571744405
 30
0.0
 40
25.0
 41
0.0
 46
0.0
 71
5
  1
1152
 11
1e-16
 21
1.0
 31
0.0
  0
POINT
  5
326
330
31D
100
AcDbEntity
  8
Defpoints
 62
0
440
16777216
100
AcDbPoint
 10
447.30501407112934
 20
2216.8364571744496
 30
0.0
  0
POINT
  5
327
330
31D
100
AcDbEntity
  8
Defpoints
 62
0
440
16777216
100
AcDbPoint
 10
447.30501407112934
 20
1064.8364571744496
 30
0.0
  0
POINT
  5
328
330
31D
100
AcDbEntity
  8
Defpoints
 62
0
440
16777216
100
AcDbPoint
 10
196.35616424466025
 20
1064.8364571744496
 30
0.0
  0
ENDBLK
  5
31F
330
31D
100
AcDbEntity
  8
0
100
AcDbBlockEnd
  0
BLOCK
  5
32A
330
329
100
AcDbEntity
  8
0
100
AcDbBlockBegin
  2
*D16
 70
1
 10
0.0
 20
0.0
 30
0.0
  3
*D16
  1

  0
LINE
  5
32C
330
329
100
AcDbEntity
  8
DIM
 62
5
370
9
440
16777216
100
AcDbLine
 10
2621.678556846089
 20
2206.8364571744496
 30
0.0
 11
2621.678556846089
 21
2282.108581134571
 31
0.0
  0
LINE
  5
32D
330
329
100
AcDbEntity
  8
DIM
 62
5
370
9
440
16777216
100
AcDbLine
 10
3173.678556846089
 20
2206.8364571744496
 30
0.0
 11
3173.678556846089
 21
2282.108581134571
 31
0.0
  0
LINE
  5
32E
330
329
100
AcDbEntity
  8
DIM
 62
5
370
9
440
16777216
100
AcDbLine
 10
2621.678556846089
 20
2272.108581134571
 30
0.0
 11
3173.678556846089
 21
2272.108581134571
 31
0.0
  0
LINE
  5
32F
330
329
100
AcDbEntity
  8
0
  6
ByBlock
 62
0
370
-2
100
AcDbLine
 10
2625.678556846089
 20
2276.108581134571
 30
0.0
 11
2617.678556846089
 21
2268.108581134571
 31
0.0
  0
LINE
  5
330
330
329
100
AcDbEntity
  8
0
  6
ByBlock
 62
0
370
-2
100
AcDbLine
 10
3169.678556846089
 20
2268.108581134571
 30
0.0
 11
3177.678556846089
 21
2276.108581134571
 31
0.0
  0
MTEXT
  5
331
330
329
100
AcDbEntity
  8
DIM
 62
3
440
16777216
100
AcDbMText
 10
2897.678556846089
 20
2294.8729058276112
 30
0.0
 40
25.0
 41
0.0
 46
0.0
 71
5
  1
552
  0
POINT
  5
332
330
329
100
AcDbEntity
  8
Defpoints
 62
0
440
16777216
100
AcDbPoint
 10
2621.678556846089
 20
2191.8364571744496
 30
0.0
  0
POINT
  5
333
330
329
100
AcDbEntity
  8
Defpoints
 62
0
440
16777216
100
AcDbPoint
 10
3173.678556846089
 20
2191.8364571744496
 30
0.0
  0
POINT
  5
334
330
329
100
AcDbEntity
  8
Defpoints
 62
0
440
16777216
100
AcDbPoint
 10
3173.678556846089
 20
2272.108581134571
 30
0.0
  0
ENDBLK
  5
32B
330
329
100
AcDbEntity
  8
0
100
AcDbBlockEnd
  0
BLOCK
  5
336
330
335
100
AcDbEntity
  8
0
100
AcDbBlockBegin
  2
*D17
 70
1
 10
0.0
 20
0.0
 30
0.0
  3
*D17
  1

  0
LINE
  5
338
330
335
100
AcDbEntity
  8
DIM
 62
5
370
9
440
16777216
100
AcDbLine
 10
2606.678556846089
 20
2191.8364571744496
 30
0.0
 11
2499.887429728069
 21
2191.8364571744496
 31
0.0
  0
LINE
  5
339
330
335
100
AcDbEntity
  8
DIM
 62
5
370
9
440
16777216
100
AcDbLine
 10
2606.678556846089
 20
1089.8364571744496
 30
0.0
 11
2499.887429728069
 21
1089.8364571744496
 31
0.0
  0
LINE
  5
33A
330
335
100
AcDbEntity
  8
DIM
 62
5
370
9
440
16777216
100
AcDbLine
 10
2509.887429728069
 20
2191.8364571744496
 30
0.0
 11
2509.887429728069
 21
1089.8364571744496
 31
0.0
  0
LINE
  5
33B
330
335
100
AcDbEntity
  8
0
  6
ByBlock
 62
0
370
-2
100
AcDbLine
 10
2513.887429728069
 20
2187.8364571744496
 30
0.0
 11
2505.887429728069
 21
2195.8364571744496
 31
0.0
  0
LINE
  5
33C
330
335
100
AcDbEntity
  8
0
  6
ByBlock
 62
0
370
-2
100
AcDbLine
 10
2505.887429728069
 20
1093.8364571744496
 30
0.0
 11
2513.887429728069
 21
1085.8364571744496
 31
0.0
  0
MTEXT
  5
33D
330
335
100
AcDbEntity
  8
DIM
 62
3
440
16777216
100
AcDbMText
 10
2487.1231050350307
 20
1640.8364571744496
 30
0.0
 40
25.0
 41
0.0
 46
0.0
 71
5
  1
1102
 11
1e-16
 21
1.0
 31
0.0
  0
POINT
  5
33E
330
335
100
AcDbEntity
  8
Defpoints
 62
0
440
16777216
100
AcDbPoint
 10
2621.678556846089
 20
2191.8364571744496
 30
0.0
  0
POINT
  5
33F
330
335
100
AcDbEntity
  8
Defpoints
 62
0
440
16777216
100
AcDbPoint
 10
2621.678556846089
 20
1089.8364571744496
 30
0.0
  0
POINT
  5
340
330
335
100
AcDbEntity
  8
Defpoints
 62
0
440
16777216
100
AcDbPoint
 10
2509.887429728069
 20
1089.8364571744496
 30
0.0
  0
ENDBLK
  5
337
330
335
100
AcDbEntity
  8
0
100
AcDbBlockEnd
  0
BLOCK
  5
342
330
341
100
AcDbEntity
  8
0
100
AcDbBlockBegin
  2
*D18
 70
1
 10
0.0
 20
0.0
 30
0.0
  3
*D18
  1

  0
LINE
  5
344
330
341
100
AcDbEntity
  8
DIM
 62
5
370
9
440
16777216
100
AcDbLine
 10
1214.7580896733598
 20
725.0191590602299
 30
0.0
 11
1214.7580896733598
 21
848.1492267487301
 31
0.0
  0
LINE
  5
345
330
341
100
AcDbEntity
  8
DIM
 62
5
370
9
440
16777216
100
AcDbLine
 10
1764.7580896733598
 20
725.0191590602299
 30
0.0
 11
1764.7580896733598
 21
848.1492267487301
 31
0.0
  0
LINE
  5
346
330
341
100
AcDbEntity
  8
DIM
 62
5
370
9
440
16777216
100
AcDbLine
 10
1214.7580896733598
 20
838.1492267487301
 30
0.0
 11
1764.7580896733598
 21
838.1492267487301
 31
0.0
  0
LINE
  5
347
330
341
100
AcDbEntity
  8
0
  6
ByBlock
 62
0
370
-2
100
AcDbLine
 10
1218.7580896733598
 20
842.1492267487301
 30
0.0
 11
1210.7580896733598
 21
834.1492267487301
 31
0.0
  0
LINE
  5
348
330
341
100
AcDbEntity
  8
0
  6
ByBlock
 62
0
370
-2
100
AcDbLine
 10
1760.7580896733598
 20
834.1492267487301
 30
0.0
 11
1768.7580896733598
 21
842.1492267487301
 31
0.0
  0
MTEXT
  5
349
330
341
100
AcDbEntity
  8
DIM
 62
3
440
16777216
100
AcDbMText
 10
1489.7580896733598
 20
860.9135514417703
 30
0.0
 40
25.0
 41
0.0
 46
0.0
 71
5
  1
550
  0
POINT
  5
34A
330
341
100
AcDbEntity
  8
Defpoints
 62
0
440
16777216
100
AcDbPoint
 10
1214.7580896733598
 20
710.0191590602299
 30
0.0
  0
POINT
  5
34B
330
341
100
AcDbEntity
  8
Defpoints
 62
0
440
16777216
100
AcDbPoint
 10
1764.7580896733598
 20
710.0191590602299
 30
0.0
  0
POINT
  5
34C
330
341
100
AcDbEntity
  8
Defpoints
 62
0
440
16777216
100
AcDbPoint
 10
1764.7580896733598
 20
838.1492267487301
 30
0.0
  0
ENDBLK
  5
343
330
341
100
AcDbEntity
  8
0
100
AcDbBlockEnd
  0
BLOCK
  5
34E
330
34D
100
AcDbEntity
  8
0
100
AcDbBlockBegin
  2
*D19
 70
1
 10
0.0
 20
0.0
 30
0.0
  3
*D19
  1

  0
LINE
  5
350
330
34D
100
AcDbEntity
  8
DIM
 62
5
370
9
440
16777216
100
AcDbLine
 10
1779.7580896733598
 20
710.0191590602299
 30
0.0
 11
1931.1122092235892
 21
710.0191590602299
 31
0.0
  0
LINE
  5
351
330
34D
100
AcDbEntity
  8
DIM
 62
5
370
9
440
16777216
100
AcDbLine
 10
1805.7580896733598
 20
510.01915906022987
 30
0.0
 11
1931.1122092235892
 21
510.01915906022987
 31
0.0
  0
LINE
  5
352
330
34D
100
AcDbEntity
  8
DIM
 62
5
370
9
440
16777216
100
AcDbLine
 10
1921.1122092235892
 20
710.0191590602299
 30
0.0
 11
1921.1122092235892
 21
510.01915906022987
 31
0.0
  0
LINE
  5
353
330
34D
100
AcDbEntity
  8
0
  6
ByBlock
 62
0
370
-2
100
AcDbLine
 10
1925.1122092235892
 20
706.0191590602299
 30
0.0
 11
1917.1122092235892
 21
714.0191590602299
 31
0.0
  0
LINE
  5
354
330
34D
100
AcDbEntity
  8
0
  6
ByBlock
 62
0
370
-2
100
AcDbLine
 10
1917.1122092235892
 20
514.0191590602299
 30
0.0
 11
1925.1122092235892
 21
506.01915906022987
 31
0.0
  0
MTEXT
  5
355
330
34D
100
AcDbEntity
  8
DIM
 62
3
440
16777216
100
AcDbMText
 10
1898.34788453054
 20
610.0191590602299
 30
0.0
 40
25.0
 41
0.0
 46
0.0
 71
5
  1
200
 11
1e-16
 21
1.0
 31
0.0
  0
POINT
  5
356
330
34D
100
AcDbEntity
  8
Defpoints
 62
0
440
16777216
100
AcDbPoint
 10
1764.7580896733598
 20
710.0191590602299
 30
0.0
  0
POINT
  5
357
330
34D
100
AcDbEntity
  8
Defpoints
 62
0
440
16777216
100
AcDbPoint
 10
1790.7580896733598
 20
510.01915906022987
 30
0.0
  0
POINT
  5
358
330
34D
100
AcDbEntity
  8
Defpoints
 62
0
440
16777216
100
AcDbPoint
 10
1921.1122092235892
 20
510.01915906022987
 30
0.0
  0
ENDBLK
  5
34F
330
34D
100
AcDbEntity
  8
0
100
AcDbBlockEnd
  0
BLOCK
  5
35A
330
359
100
AcDbEntity
  8
0
100
AcDbBlockBegin
  2
*D20
 70
1
 10
0.0
 20
0.0
 30
0.0
  3
*D20
  1

  0
LINE
  5
35C
330
359
100
AcDbEntity
  8
DIM
 62
5
370
9
440
16777216
100
AcDbLine
 10
1188.7580896733598
 20
495.01915906022987
 30
0.0
 11
1188.7580896733598
 21
412.23904688108087
 31
0.0
  0
LINE
  5
35D
330
359
100
AcDbEntity
  8
DIM
 62
5
370
9
440
16777216
100
AcDbLine
 10
1790.7580896733598
 20
495.01915906022987
 30
0.0
 11
1790.7580896733598
 21
412.23904688108087
 31
0.0
  0
LINE
  5
35E
330
359
100
AcDbEntity
  8
DIM
 62
5
370
9
440
16777216
100
AcDbLine
 10
1188.7580896733598
 20
422.23904688108087
 30
0.0
 11
1790.7580896733598
 21
422.23904688108087
 31
0.0
  0
LINE
  5
35F
330
359
100
AcDbEntity
  8
0
  6
ByBlock
 62
0
370
-2
100
AcDbLine
 10
1192.7580896733598
 20
426.23904688108087
 30
0.0
 11
1184.7580896733598
 21
418.23904688108087
 31
0.0
  0
LINE
  5
360
330
359
100
AcDbEntity
  8
0
  6
ByBlock
 62
0
370
-2
100
AcDbLine
 10
1786.7580896733598
 20
418.23904688108087
 30
0.0
 11
1794.7580896733598
 21
426.23904688108087
 31
0.0
  0
MTEXT
  5
361
330
359
100
AcDbEntity
  8
DIM
 62
3
440
16777216
100
AcDbMText
 10
1489.7580896733598
 20
445.00337157412105
 30
0.0
 40
25.0
 41
0.0
 46
0.0
 71
5
  1
602
  0
POINT
  5
362
330
359
100
AcDbEntity
  8
Defpoints
 62
0
440
16777216
100
AcDbPoint
 10
1188.7580896733598
 20
510.01915906022987
 30
0.0
  0
POINT
  5
363
330
359
100
AcDbEntity
  8
Defpoints
 62
0
440
16777216
100
AcDbPoint
 10
1790.7580896733598
 20
510.01915906022987
 30
0.0
  0
POINT
  5
364
330
359
100
AcDbEntity
  8
Defpoints
 62
0
440
16777216
100
AcDbPoint
 10
1790.7580896733598
 20
422.23904688108087
 30
0.0
  0
ENDBLK
  5
35B
330
359
100
AcDbEntity
  8
0
100
AcDbBlockEnd
  0
BLOCK
  5
366
330
365
100
AcDbEntity
  8
0
100
AcDbBlockBegin
  2
*D21
 70
1
 10
0.0
 20
0.0
 30
0.0
  3
*D21
  1

  0
LINE
  5
368
330
365
100
AcDbEntity
  8
DIM
 62
5
370
9
440
16777216
100
AcDbLine
 10
1291.7580896733598
 20
629.0191590602299
 30
0.0
 11
1291.7580896733598
 21
796.8938065400598
 31
0.0
  0
LINE
  5
369
330
365
100
AcDbEntity
  8
DIM
 62
5
370
9
440
16777216
100
AcDbLine
 10
1214.7580896733598
 20
725.0191590602299
 30
0.0
 11
1214.7580896733598
 21
796.8938065400598
 31
0.0
  0
LINE
  5
36A
330
365
100
AcDbEntity
  8
DIM
 62
5
370
9
440
16777216
100
AcDbLine
 10
1291.7580896733598
 20
786.8938065400598
 30
0.0
 11
1214.7580896733598
 21
786.8938065400598
 31
0.0
  0
LINE
  5
36B
330
365
100
AcDbEntity
  8
0
  6
ByBlock
 62
0
370
-2
100
AcDbLine
 10
1287.7580896733598
 20
782.8938065400598
 30
0.0
 11
1295.7580896733598
 21
790.8938065400598
 31
0.0
  0
LINE
  5
36C
330
365
100
AcDbEntity
  8
0
  6
ByBlock
 62
0
370
-2
100
AcDbLine
 10
1218.7580896733598
 20
790.8938065400598
 30
0.0
 11
1210.7580896733598
 21
782.8938065400598
 31
0.0
  0
MTEXT
  5
36D
330
365
100
AcDbEntity
  8
DIM
 62
3
440
16777216
100
AcDbMText
 10
1253.2580896733598
 20
809.3938065400598
 30
0.0
 40
25.0
 41
0.0
 46
0.0
 71
5
  1
77
  0
POINT
  5
36E
330
365
100
AcDbEntity
  8
Defpoints
 62
0
440
16777216
100
AcDbPoint
 10
1291.7580896733598
 20
614.0191590602299
 30
0.0
  0
POINT
  5
36F
330
365
100
AcDbEntity
  8
Defpoints
 62
0
440
16777216
100
AcDbPoint
 10
1214.7580896733598
 20
710.0191590602299
 30
0.0
  0
POINT
  5
370
330
365
100
AcDbEntity
  8
Defpoints
 62
0
440
16777216
100
AcDbPoint
 10
1214.7580896733598
 20
786.8938065400598
 30
0.0
  0
ENDBLK
  5
367
330
365
100
AcDbEntity
  8
0
100
AcDbBlockEnd
  0
BLOCK
  5
372
330
371
100
AcDbEntity
  8
0
100
AcDbBlockBegin
  2
*D22
 70
1
 10
0.0
 20
0.0
 30
0.0
  3
*D22
  1

  0
LINE
  5
374
330
371
100
AcDbEntity
  8
DIM
 62
5
370
9
440
16777216
100
AcDbLine
 10
1507.52574625532
 20
612.1061673189597
 30
0.0
 11
1365.9953591106005
 21
647.8909643647112
 31
0.0
  0
MTEXT
  5
375
330
371
100
AcDbEntity
  8
DIM
 62
3
440
16777216
100
AcDbMText
 10
1473.07914746395
 20
645.0175940593399
 30
0.0
 40
24.999999999999996
 41
0.0
 46
0.0
 71
5
  1
∅50
 11
0.9694907774899606
 21
-0.2451277878207856
 31
0.0
  0
LINE
  5
376
330
371
100
AcDbEntity
  8
DIM
 62
5
370
9
440
16777216
100
AcDbLine
 10
1317.52082023611
 20
660.1473537557504
 30
0.0
 11
1365.9953591106005
 21
647.8909643647112
 31
0.0
  0
LINE
  5
377
330
371
100
AcDbEntity
  8
0
  6
ByBlock
 62
0
370
-2
100
AcDbLine
 10
1312.6623459748662
 20
657.2499017970731
 30
0.0
 11
1322.3792944973538
 21
663.0448057144276
 31
0.0
  0
LINE
  5
378
330
371
100
AcDbEntity
  8
0
  6
ByBlock
 62
0
370
-2
100
AcDbLine
 10
1370.8538333718443
 20
650.7884163233884
 30
0.0
 11
1361.1368848493566
 21
644.9935124060339
 31
0.0
  0
POINT
  5
379
330
371
100
AcDbEntity
  8
Defpoints
 62
0
440
16777216
100
AcDbPoint
 10
1365.9953591106005
 20
647.8909643647112
 30
0.0
  0
POINT
  5
37A
330
371
100
AcDbEntity
  8
Defpoints
 62
0
440
16777216
100
AcDbPoint
 10
1317.52082023611
 20
660.1473537557504
 30
0.0
  0
ENDBLK
  5
373
330
371
100
AcDbEntity
  8
0
100
AcDbBlockEnd
  0
ENDSEC
  0
SECTION
  2
ENTITIES
  0
LWPOLYLINE
  5
2F
330
17
100
AcDbEntity
  8
0
 62
7
100
AcDbPolyline
 90
4
 70
1
 10
473.30501407112934
 20
1090.8364571744496
 10
1023.3050140711293
 20
1090.8364571744496
 10
1023.3050140711293
 20
2190.8364571744496
 10
473.30501407112934
 20
2190.8364571744496
  0
LWPOLYLINE
  5
30
330
17
100
AcDbEntity
  8
0
 62
7
100
AcDbPolyline
 90
4
 70
1
 10
474.30501407112934
 20
1091.8364571744496
 10
1022.3050140711293
 20
1091.8364571744496
 10
1022.3050140711293
 20
2189.8364571744496
 10
474.30501407112934
 20
2189.8364571744496
  0
LWPOLYLINE
  5
31
330
17
100
AcDbEntity
  8
0
 62
7
100
AcDbPolyline
 90
4
 70
1
 10
447.30501407112934
 20
1064.8364571744496
 10
1049.3050140711293
 20
1064.8364571744496
 10
1049.3050140711293
 20
2216.8364571744496
 10
447.30501407112934
 20
2216.8364571744496
  0
HATCH
  5
32
330
17
100
AcDbEntity
  8
0
 62
7
100
AcDbHatch
 10
0.0
 20
0.0
 30
0.0
210
0.0
220
0.0
230
1.0
  2
ANSI31
 70
0
 71
0
 91
1
 92
1
 93
8
 72
1
 10
679.3050140711293
 20
1256.8364571744496
 11
817.3050140711402
 21
1256.8364571744496
 72
2
 10
817.3050140711402
 20
1296.8364571744496
 40
40.0
 50
-90.00000000000001
 51
-1.4033418597069752e-14
 73
1
 72
1
 10
857.3050140711402
 20
1296.8364571744496
 11
857.3050140711093
 21
1984.8364571744405
 72
2
 10
817.3050140711093
 20
1984.8364571744405
 40
40.0
 50
0.0
 51
90.0
 73
1
 72
1
 10
817.3050140711093
 20
2024.8364571744405
 11
679.3050140711293
 21
2024.8364571744496
 72
2
 10
679.3050140711293
 20
1984.8364571744496
 40
40.0
 50
90.0
 51
180.0
 73
1
 72
1
 10
639.3050140711293
 20
1984.8364571744496
 11
639.3050140711293
 21
1296.8364571744496
 72
2
 10
679.3050140711293
 20
1296.8364571744496
 40
40.0
 50
180.0
 51
-90.00000000000001
 73
1
 97
1
330
32F2B
 75
0
 76
1
 52
0.0
 41
1.0
 77
0
 78
1
 53
45.0
 43
-110559.7066393218
 44
-28006.1375075712
 45
-2.2450640303
 46
2.2450640303
 79
0
 98
1
 10
-110559.7066393218
 20
-28006.13750757123
  0
LWPOLYLINE
  5
33
330
17
100
AcDbEntity
  8
0
 62
7
100
AcDbPolyline
 90
8
 70
1
 10
679.3050140711293
 20
1256.8364571744496
 10
817.3050140711402
 20
1256.8364571744496
 42
0.4142135623731068
 10
857.3050140711402
 20
1296.8364571744496
 10
857.3050140711093
 20
1984.8364571744405
 42
0.4142135623730841
 10
817.3050140711093
 20
2024.8364571744405
 10
679.3050140711293
 20
2024.8364571744496
 42
0.4142135623730951
 10
639.3050140711293
 20
1984.8364571744496
 10
639.3050140711293
 20
1296.8364571744496
 42
0.4142135623730951
  0
LWPOLYLINE
  5
34
330
17
100
AcDbEntity
  8
0
  6
HIDDENX2
 62
7
100
AcDbPolyline
 90
4
 70
1
 10
604.3050140711293
 20
1221.8364571744496
 10
892.3050140711402
 20
1221.8364571744496
 10
892.3050140711093
 20
2059.8364571744496
 10
604.3050140711293
 20
2059.8364571744496
  0
LWPOLYLINE
  5
35
330
17
100
AcDbEntity
  8
0
  6
HIDDENX2
 62
7
100
AcDbPolyline
 90
4
 70
1
 10
634.3050140711293
 20
1251.8364571744496
 10
862.3050140711402
 20
1251.8364571744496
 10
862.3050140711093
 20
2029.8364571744496
 10
634.3050140711293
 20
2029.8364571744496
  0
INSERT
  5
36
330
17
100
AcDbEntity
  8
0
 62
7
100
AcDbBlockReference
 66
1
  2
khungtenAsean2
 10
0.0
 20
2519.99999999427
 30
0.0
 41
1.199999999997089
 42
1.199999999997089
 43
1.199999999997089
  0
ATTRIB
  5
37
330
36
100
AcDbEntity
  8
0
 62
1
100
AcDbText
 10
3460.5170555347413
 20
39.18263986846068
 30
0.0
 40
30.0
  1
......
  7
Tahoma (Input Text)
 72
1
 11
3497.991870847034
 21
39.18263986846068
 31
0.0
100
AcDbAttribute
  2
#11
 70
0
 71
1
 72
0
 11
3497.991870847034
 21
39.18263986846068
 31
0.0
  0
ATTRIB
  5
38
330
36
100
AcDbEntity
  8
0
 62
1
100
AcDbText
 10
2576.06037298495
 20
94.46974596387008
 30
0.0
 40
30.0
  1
Tủ cứu hỏa, hèm ngoài rời
  7
Tahoma (Input Text)
100
AcDbAttribute
  2
#09
 70
0
 71
1
 72
0
  0
ATTRIB
  5
39
330
36
100
AcDbEntity
  8
0
 62
1
100
AcDbText
 10
2576.06037298495
 20
22.469745963870082
 30
0.0
 40
30.0
  1
sơn màu đỏ
  7
Tahoma (Input Text)
100
AcDbAttribute
  2
#10
 70
0
 71
1
 72
0
  0
ATTRIB
  5
3A
330
36
100
AcDbEntity
  8
0
 62
1
100
AcDbText
 10
2180.93731888
 20
22.469745963870082
 30
0.0
 40
30.0
  1
1.0
  7
Tahoma (Input Text)
100
AcDbAttribute
  2
#08
 70
0
 71
1
 72
0
  0
ATTRIB
  5
3B
330
36
100
AcDbEntity
  8
0
 62
1
100
AcDbText
 10
2201.6178123906593
 20
94.46974596387008
 30
0.0
 40
30.0
  1
24
  7
Tahoma (Input Text)
100
AcDbAttribute
  2
#07
 70
0
 71
1
 72
0
  0
ATTRIB
  5
3C
330
36
100
AcDbEntity
  8
0
 62
1
100
AcDbText
 10
1278.3970669723803
 20
22.469745963870082
 30
0.0
 40
30.0
  1
1050x500x200 (lọt lòng)
  7
Tahoma (Input Text)
100
AcDbAttribute
  2
#06
 70
0
 71
1
 72
0
  0
ATTRIB
  5
3D
330
36
100
AcDbEntity
  8
0
 62
1
100
AcDbText
 10
1327.9538125465897
 20
94.46974596387008
 30
0.0
 40
30.0
  1
Tủ cứu hỏa
  7
Tahoma (Input Text)
100
AcDbAttribute
  2
#05
 70
0
 71
1
 72
0
  0
ATTRIB
  5
3E
330
36
100
AcDbEntity
  8
0
 62
1
100
AcDbText
 10
583.3260324066105
 20
22.469745963870082
 30
0.0
 40
30.0
  1
05.11. 2020
  7
Tahoma (Input Text)
100
AcDbAttribute
  2
#04
 70
0
 71
1
 72
0
  0
ATTRIB
  5
3F
330
36
100
AcDbEntity
  8
0
 62
1
100
AcDbText
 10
607.8848987360398
 20
96.83807940661973
 30
0.0
 40
30.0
  1
Anh tuấn
  7
Tahoma (Input Text)
100
AcDbAttribute
  2
#03
 70
0
 71
1
 72
0
  0
ATTRIB
  5
40
330
36
100
AcDbEntity
  8
0
 62
1
100
AcDbText
 10
118.14806940380004
 20
22.469745963870082
 30
0.0
 40
30.0
  1
......
  7
Tahoma (Input Text)
100
AcDbAttribute
  2
#02
 70
0
 71
1
 72
0
  0
ATTRIB
  5
41
330
36
100
AcDbEntity
  8
0
 62
1
100
AcDbText
 10
164.46420940501957
 20
94.46974596387008
 30
0.0
 40
30.0
  1
Phúc
  7
Tahoma (Input Text)
100
AcDbAttribute
  2
#01
 70
0
 71
1
 72
0
  0
SEQEND
  5
42
330
17
100
AcDbEntity
  8
0
 62
7
  0
DIMENSION
  5
43
330
17
100
AcDbEntity
  8
DIM
 62
7
100
AcDbDimension
280
0
  2
*D1
  3
Dim-25
 10
1023.3050140711293
 20
2304.84773194642
 30
0.0
 11
748.3050140711293
 21
2327.61205663946
 31
0.0
 70
32
 71
5
 42
550.0
 73
0
 74
0
 75
0
100
AcDbAlignedDimension
 13
473.30501407112934
 23
2190.8364571744496
 33
0.0
 14
1023.3050140711293
 24
2190.8364571744496
 34
0.0
 50
0.0
100
AcDbRotatedDimension
  0
DIMENSION
  5
48
330
17
100
AcDbEntity
  8
DIM
 62
7
100
AcDbDimension
280
0
  2
*D2
  3
Dim-25
 10
298.0686599642104
 20
1090.8364571744496
 30
0.0
 11
275.3043352711593
 21
1640.8364571744405
 31
0.0
 70
32
 71
5
 42
1100.0
 73
0
 74
0
 75
0
100
AcDbAlignedDimension
 13
473.30501407112934
 23
2190.8364571744496
 33
0.0
 14
473.30501407112934
 24
1090.8364571744496
 34
0.0
 50
90.0
100
AcDbRotatedDimension
  0
LINE
  5
49
330
17
100
AcDbEntity
  8
0
 62
7
100
AcDbLine
 10
644.3050140711293
 20
1690.8364571744496
 30
0.0
 11
852.3050140711293
 21
1690.8364571744496
 31
0.0
  0
LINE
  5
4A
330
17
100
AcDbEntity
  8
0
 62
7
100
AcDbLine
 10
644.3050140711293
 20
1670.8364571744496
 30
0.0
 11
852.3050140711293
 21
1670.8364571744496
 31
0.0
  0
LWPOLYLINE
  5
4B
330
17
100
AcDbEntity
  8
0
 62
7
100
AcDbPolyline
 90
6
 70
0
 10
470.30501407112934
 20
545.8475682571207
 10
448.30501407112934
 20
545.8475682571207
 10
448.30501407112934
 20
724.8475682571207
 10
998.3050140711293
 20
724.8475682571207
 10
998.3050140711293
 20
545.8475682571207
 10
976.3050140711293
 20
545.8475682571207
  0
LWPOLYLINE
  5
4C
330
17
100
AcDbEntity
  8
0
 62
7
100
AcDbPolyline
 90
6
 70
0
 10
977.3050140711293
 20
546.8475682571207
 10
997.3050140711293
 20
546.8475682571207
 10
997.3050140711293
 20
723.8475682571207
 10
449.30501407112934
 20
723.8475682571207
 10
449.30501407112934
 20
546.8475682571207
 10
469.30501407112934
 20
546.8475682571207
  0
LWPOLYLINE
  5
4D
330
17
100
AcDbEntity
  8
0
 62
7
100
AcDbPolyline
 90
12
 70
1
 10
422.30501407112934
 20
545.8475682571207
 10
422.30501407112934
 20
524.8475682571207
 10
449.30501407112934
 20
524.8475682571207
 10
449.30501407112934
 20
544.8475682571207
 10
470.30501407112934
 20
544.8475682571207
 10
470.30501407112934
 20
545.8475682571207
 10
448.30501407112934
 20
545.8475682571207
 10
448.30501407112934
 20
525.8475682571207
 10
423.30501407112934
 20
525.8475682571207
 10
423.30501407112934
 20
544.8475682571207
 10
423.30501407112934
 20
544.8475682571207
 10
423.30501407112934
 20
545.8475682571207
  0
LWPOLYLINE
  5
4E
330
17
100
AcDbEntity
  8
0
 62
7
100
AcDbPolyline
 90
12
 70
1
 10
986.3050140711293
 20
541.8475682571207
 10
996.3050140711293
 20
541.8475682571207
 10
996.3050140711293
 20
525.8475682571207
 10
450.30501407112934
 20
525.8475682571207
 10
450.30501407112934
 20
541.8475682571207
 10
460.30501407112934
 20
541.8475682571207
 10
460.30501407112934
 20
542.8475682571207
 10
449.30501407112934
 20
542.8475682571207
 10
449.30501407112934
 20
524.8475682571207
 10
997.3050140711293
 20
524.8475682571207
 10
997.3050140711293
 20
542.8475682571207
 10
986.3050140711293
 20
542.8475682571207
  0
LWPOLYLINE
  5
4F
330
17
100
AcDbEntity
  8
0
 62
7
100
AcDbPolyline
 90
12
 70
1
 10
1024.3050140711293
 20
545.8475682571207
 10
1024.3050140711293
 20
524.8475682571207
 10
997.3050140711293
 20
524.8475682571207
 10
997.3050140711293
 20
544.8475682571207
 10
976.3050140711293
 20
544.8475682571207
 10
976.3050140711293
 20
545.8475682571207
 10
998.3050140711293
 20
545.8475682571207
 10
998.3050140711293
 20
525.8475682571207
 10
1023.3050140711293
 20
525.8475682571207
 10
1023.3050140711293
 20
544.8475682571207
 10
1023.3050140711293
 20
544.8475682571207
 10
1023.3050140711293
 20
545.8475682571207
  0
CIRCLE
  5
50
330
17
100
AcDbEntity
  8
0
 62
2
100
AcDbCircle
 10
992.0277375913101
 20
530.3475682571207
 30
0.0
 40
4.0
  0
LINE
  5
51
330
17
100
AcDbEntity
  8
0
 62
1
100
AcDbLine
 10
992.0277375913101
 20
525.8475682571207
 30
0.0
 11
973.5277375913101
 21
525.8475682571207
 31
0.0
  0
LINE
  5
52
330
17
100
AcDbEntity
  8
0
 62
1
100
AcDbLine
 10
973.5277375913101
 20
527.3514294431898
 30
0.0
 11
991.8755790961895
 21
527.3514294431898
 31
0.0
  0
ARC
  5
53
330
17
100
AcDbEntity
  8
0
 62
1
100
AcDbCircle
 10
992.0277375913101
 20
530.3475682571207
 30
0.0
 40
4.5
100
AcDbArc
 50
270.0
 51
318.1896851045436
  0
ARC
  5
54
330
17
100
AcDbEntity
  8
0
 62
1
100
AcDbCircle
 10
992.0277375913101
 20
530.3475682571207
 30
0.0
 40
4.5
100
AcDbArc
 50
41.81031489545643
 51
193.430132034149
  0
ARC
  5
55
330
17
100
AcDbEntity
  8
0
 62
1
100
AcDbCircle
 10
992.0277375913101
 20
530.3475682571207
 30
0.0
 40
3.0
100
AcDbArc
 50
267.0927394226811
 51
270.0
  0
ARC
  5
56
330
17
100
AcDbEntity
  8
0
 62
1
100
AcDbCircle
 10
992.0277375913101
 20
530.3475682571207
 30
0.0
 40
3.0
100
AcDbArc
 50
90.0
 51
193.430132034149
  0
LINE
  5
57
330
17
100
AcDbEntity
  8
0
 62
1
100
AcDbLine
 10
987.6507951910498
 20
529.3024006989199
 30
0.0
 11
989.109775991119
 21
529.6507898849904
 31
0.0
  0
LINE
  5
58
330
17
100
AcDbEntity
  8
0
 62
1
100
AcDbLine
 10
973.5277375913101
 20
527.3514294431898
 30
0.0
 11
973.5277375913101
 21
525.8475682571207
 31
0.0
  0
ARC
  5
59
330
17
100
AcDbEntity
  8
0
 62
1
100
AcDbCircle
 10
992.0277375913101
 20
530.3475682571207
 30
0.0
 40
3.0
100
AcDbArc
 50
90.0
 51
270.0
  0
LINE
  5
5A
330
17
100
AcDbEntity
  8
0
 62
1
100
AcDbLine
 10
992.0277375913101
 20
527.3475682571207
 30
0.0
 11
998.3050140711293
 21
527.3475682571207
 31
0.0
  0
LINE
  5
5B
330
17
100
AcDbEntity
  8
0
 62
1
100
AcDbLine
 10
992.0277375913101
 20
533.3475682571207
 30
0.0
 11
998.3050140711293
 21
533.3475682571207
 31
0.0
  0
LWPOLYLINE
  5
5C
330
17
100
AcDbEntity
  8
0
 62
7
100
AcDbPolyline
 90
6
 70
0
 10
2317.150694600099
 20
2169.8364571744496
 10
2317.150694600099
 20
2189.8364571744496
 10
2140.150694600099
 20
2189.8364571744496
 10
2140.150694600099
 20
1091.8364571744496
 10
2317.150694600099
 20
1091.8364571744496
 10
2317.150694600099
 20
1112.8364571744496
  0
LWPOLYLINE
  5
5D
330
17
100
AcDbEntity
  8
0
 62
7
100
AcDbPolyline
 90
6
 70
0
 10
2318.150694600099
 20
1112.8364571744496
 10
2318.150694600099
 20
1090.8364571744496
 10
2139.150694600099
 20
1090.8364571744496
 10
2139.150694600099
 20
2190.8364571744496
 10
2318.150694600099
 20
2190.8364571744496
 10
2318.150694600099
 20
2168.8364571744496
  0
LWPOLYLINE
  5
5E
330
17
100
AcDbEntity
  8
0
 62
7
100
AcDbPolyline
 90
12
 70
1
 10
2318.150694600099
 20
1064.8364571744496
 10
2339.150694600099
 20
1064.8364571744496
 10
2339.150694600099
 20
1091.8364571744496
 10
2319.150694600099
 20
1091.8364571744496
 10
2319.150694600099
 20
1112.8364571744496
 10
2318.150694600099
 20
1112.8364571744496
 10
2318.150694600099
 20
1090.8364571744496
 10
2338.150694600099
 20
1090.8364571744496
 10
2338.150694600099
 20
1065.8364571744496
 10
2319.150694600099
 20
1065.8364571744496
 10
2319.150694600099
 20
1065.8364571744496
 10
2318.150694600099
 20
1065.8364571744496
  0
DIMENSION
  5
5F
330
17
100
AcDbEntity
  8
DIM
 62
7
100
AcDbDimension
280
0
  2
*D3
  3
Dim-25
 10
2339.150694600099
 20
2313.289325275691
 30
0.0
 11
2239.150694600099
 21
2336.0536499687296
 31
0.0
 70
32
 71
5
 42
200.0
 73
0
 74
0
 75
0
100
AcDbAlignedDimension
 13
2139.150694600099
 23
2190.8364571744496
 33
0.0
 14
2339.150694600099
 24
2216.8364571744496
 34
0.0
 50
180.0
100
AcDbRotatedDimension
  0
LWPOLYLINE
  5
60
330
17
100
AcDbEntity
  8
0
 62
7
100
AcDbPolyline
 90
12
 70
1
 10
2322.150694600099
 20
2178.8364571744496
 10
2322.150694600099
 20
2188.8364571744496
 10
2338.150694600099
 20
2188.8364571744496
 10
2338.150694600099
 20
1092.8364571744496
 10
2322.150694600099
 20
1092.8364571744496
 10
2322.150694600099
 20
1102.8364571744496
 10
2321.150694600099
 20
1102.8364571744496
 10
2321.150694600099
 20
1091.8364571744496
 10
2339.150694600099
 20
1091.8364571744496
 10
2339.150694600099
 20
2189.8364571744496
 10
2321.150694600099
 20
2189.8364571744496
 10
2321.150694600099
 20
2178.8364571744496
  0
LWPOLYLINE
  5
61
330
17
100
AcDbEntity
  8
0
 62
7
100
AcDbPolyline
 90
12
 70
1
 10
2318.150694600099
 20
2216.8364571744496
 10
2339.150694600099
 20
2216.8364571744496
 10
2339.150694600099
 20
2189.8364571744496
 10
2319.150694600099
 20
2189.8364571744496
 10
2319.150694600099
 20
2168.8364571744496
 10
2318.150694600099
 20
2168.8364571744496
 10
2318.150694600099
 20
2190.8364571744496
 10
2338.150694600099
 20
2190.8364571744496
 10
2338.150694600099
 20
2215.8364571744496
 10
2319.150694600099
 20
2215.8364571744496
 10
2319.150694600099
 20
2215.8364571744496
 10
2318.150694600099
 20
2215.8364571744496
  0
DIMENSION
  5
62
330
17
100
AcDbEntity
  8
DIM
 62
7
100
AcDbDimension
280
0
  2
*D4
  3
Dim-25
 10
1947.1575280860998
 20
2190.27201438633
 30
0.0
 11
1947.1575280860998
 21
1640.2720143863498
 31
0.0
 70
160
 71
5
 42
1100.0
 73
0
 74
0
 75
0
100
AcDbAlignedDimension
 13
2139.150694600099
 23
1090.2720143863407
 33
0.0
 14
2139.150694600099
 24
2190.27201438633
 34
0.0
 50
90.0
100
AcDbRotatedDimension
  0
DIMENSION
  5
63
330
17
100
AcDbEntity
  8
DIM
 62
7
100
AcDbDimension
280
0
  2
*D5
  3
Dim-25
 10
391.96865168666045
 20
1690.8364571744496
 30
0.0
 11
369.20432699362027
 21
1940.8364571744405
 31
0.0
 70
32
 71
5
 42
500.0
 73
0
 74
0
 75
0
100
AcDbAlignedDimension
 13
473.30501407112934
 23
2190.8364571744496
 33
0.0
 14
644.3050140711293
 24
1690.8364571744496
 34
0.0
 50
90.0
100
AcDbRotatedDimension
  0
DIMENSION
  5
64
330
17
100
AcDbEntity
  8
DIM
 62
7
100
AcDbDimension
280
0
  2
*D6
  3
Dim-25
 10
391.96865168666045
 20
1090.8364571744496
 30
0.0
 11
369.20432699362027
 21
1390.8364571744405
 31
0.0
 70
32
 71
5
 42
600.0
 73
0
 74
0
 75
0
100
AcDbAlignedDimension
 13
494.30501407112934
 23
1690.8364571744496
 33
0.0
 14
458.30501407112934
 24
1090.8364571744496
 34
0.0
 50
90.0
100
AcDbRotatedDimension
  0
CIRCLE
  5
65
330
17
100
AcDbEntity
  8
0
 62
2
100
AcDbCircle
 10
2240.150694600099
 20
2040.8364571744496
 30
0.0
 40
30.0
  0
DIMENSION
  5
66
330
17
100
AcDbEntity
  8
DIM
 62
7
100
AcDbDimension
280
0
  2
*D7
  3
Dim-25
 10
2250.4236393802003
 20
2012.6501731777098
 30
0.0
 11
2232.24552068308
 21
2131.0464876069
 31
0.0
 70
35
 71
5
 42
59.99999999998909
 73
0
 74
0
 75
0
100
AcDbDiametricDimension
 15
2229.8777498200106
 25
2069.0227411711803
 35
0.0
 40
0.0
  0
DIMENSION
  5
67
330
17
100
AcDbEntity
  8
DIM
 62
7
100
AcDbDimension
280
0
  2
*D8
  3
Dim-25
 10
2032.9600319660694
 20
2040.8364571744496
 30
0.0
 11
2010.1957072730202
 21
2115.8364571744405
 31
0.0
 70
32
 71
5
 42
150.0
 73
0
 74
0
 75
0
100
AcDbAlignedDimension
 13
2139.150694600099
 23
2190.8364571744496
 33
0.0
 14
2240.150694600099
 24
2040.8364571744496
 34
0.0
 50
90.0
100
AcDbRotatedDimension
  0
LWPOLYLINE
  5
68
330
17
100
AcDbEntity
  8
0
 62
7
100
AcDbPolyline
 90
4
 70
0
 10
2140.150694600099
 20
1690.8364571744496
 10
2317.150694600099
 20
1690.8364571744496
 10
2317.150694600099
 20
1670.8364571744496
 10
2307.150694600099
 20
1670.8364571744496
  0
LWPOLYLINE
  5
69
330
17
100
AcDbEntity
  8
0
 62
7
100
AcDbPolyline
 90
4
 70
0
 10
2140.150694600099
 20
1689.8364571744496
 10
2316.150694600099
 20
1689.8364571744496
 10
2316.150694600099
 20
1671.8364571744496
 10
2307.150694600099
 20
1671.8364571744496
  0
LINE
  5
6A
330
17
100
AcDbEntity
  8
0
 62
1
100
AcDbLine
 10
2325.629070763709
 20
2121.4610147390904
 30
0.0
 11
2334.6290707637
 21
2121.4610147390904
 31
0.0
  0
LINE
  5
6B
330
17
100
AcDbEntity
  8
0
 62
1
100
AcDbLine
 10
2334.629070763709
 20
2183.4610147390904
 30
0.0
 11
2325.629070763709
 21
2183.4610147390904
 31
0.0
  0
LINE
  5
6C
330
17
100
AcDbEntity
  8
0
 62
1
100
AcDbLine
 10
2325.629070763709
 20
2183.4610147390904
 30
0.0
 11
2325.629070763709
 21
2169.4610147390904
 31
0.0
  0
LINE
  5
6D
330
17
100
AcDbEntity
  8
0
 62
1
100
AcDbLine
 10
2325.629070763709
 20
2135.4610147390904
 30
0.0
 11
2325.629070763709
 21
2121.4610147390904
 31
0.0
  0
LINE
  5
6E
330
17
100
AcDbEntity
  8
0
 62
1
100
AcDbLine
 10
2334.629070763709
 20
2183.4610147390904
 30
0.0
 11
2334.629070763709
 21
2169.4610147390904
 31
0.0
  0
LINE
  5
6F
330
17
100
AcDbEntity
  8
0
 62
1
100
AcDbLine
 10
2334.629070763709
 20
2135.4610147390904
 30
0.0
 11
2334.629070763709
 21
2121.4610147390904
 31
0.0
  0
LINE
  5
70
330
17
100
AcDbEntity
  8
0
 62
1
100
AcDbLine
 10
2325.629070763709
 20
2135.4610147390904
 30
0.0
 11
2334.629070763709
 21
2135.4610147390904
 31
0.0
  0
LINE
  5
71
330
17
100
AcDbEntity
  8
0
 62
1
100
AcDbLine
 10
2325.629070763709
 20
2169.4610147390904
 30
0.0
 11
2334.629070763709
 21
2169.4610147390904
 31
0.0
  0
LINE
  5
72
330
17
100
AcDbEntity
  8
0
 62
1
100
AcDbLine
 10
2334.629070763709
 20
2135.4610147390904
 30
0.0
 11
2334.629070763709
 21
2169.4610147390904
 31
0.0
  0
LWPOLYLINE
  5
73
330
17
100
AcDbEntity
  8
0
 62
1
100
AcDbPolyline
 90
2
 70
0
 10
2332.129070763709
 20
2200.4610147390904
 10
2328.12907076372
 20
2200.4610147390904
  0
LWPOLYLINE
  5
74
330
17
100
AcDbEntity
  8
0
 62
1
100
AcDbPolyline
 90
2
 70
0
 10
2327.129070763709
 20
2197.4610147390104
 10
2327.129070763709
 20
2183.4610147390904
  0
LWPOLYLINE
  5
75
330
17
100
AcDbEntity
  8
0
 62
1
100
AcDbPolyline
 90
2
 70
0
 10
2327.129070763709
 20
2167.9610147390904
 10
2327.129070763709
 20
2135.4610147390904
  0
LWPOLYLINE
  5
76
330
17
100
AcDbEntity
  8
0
 62
1
100
AcDbPolyline
 90
2
 70
0
 10
2333.129070763709
 20
2135.4610147390904
 10
2333.129070763709
 20
2167.9610147390904
  0
LWPOLYLINE
  5
77
330
17
100
AcDbEntity
  8
0
 62
1
100
AcDbPolyline
 90
2
 70
0
 10
2333.129070763709
 20
2183.4610147390904
 10
2333.129070763709
 20
2197.4610147390904
  0
LINE
  5
78
330
17
100
AcDbEntity
  8
0
 62
1
100
AcDbLine
 10
2333.129070763709
 20
2197.4610147390904
 30
0.0
 11
2332.129070763709
 21
2200.4610147390904
 31
0.0
  0
LINE
  5
79
330
17
100
AcDbEntity
  8
0
 62
1
100
AcDbLine
 10
2327.12907076372
 20
2197.4610147390904
 30
0.0
 11
2328.12907076372
 21
2200.4610147390904
 31
0.0
  0
LINE
  5
7A
330
17
100
AcDbEntity
  8
0
 62
1
100
AcDbLine
 10
2327.129070763709
 20
2121.4610147390904
 30
0.0
 11
2327.129070763709
 21
2121.4610147390995
 31
0.0
  0
LINE
  5
7B
330
17
100
AcDbEntity
  8
0
 62
1
100
AcDbLine
 10
2333.129070763709
 20
2121.4610147390904
 30
0.0
 11
2333.129070763709
 21
2120.4610147390995
 31
0.0
  0
LINE
  5
7C
330
17
100
AcDbEntity
  8
0
 62
1
100
AcDbLine
 10
2327.129070763709
 20
2121.4610147390904
 30
0.0
 11
2327.129070763709
 21
2120.4610147390995
 31
0.0
  0
LINE
  5
7D
330
17
100
AcDbEntity
  8
0
 62
1
100
AcDbLine
 10
2325.129070763709
 20
2118.4610147390995
 30
0.0
 11
2313.129070763709
 21
2118.4610147390904
 31
0.0
  0
ARC
  5
7E
330
17
100
AcDbEntity
  8
0
 62
1
100
AcDbCircle
 10
2325.129070763709
 20
2120.4610147390995
 30
0.0
 40
2.0
100
AcDbArc
 50
270.0
 51
0.0
  0
ARC
  5
7F
330
17
100
AcDbEntity
  8
0
 62
1
100
AcDbCircle
 10
2325.129070763709
 20
2120.4610147390995
 30
0.0
 40
8.0
100
AcDbArc
 50
270.0
 51
0.0
  0
LINE
  5
80
330
17
100
AcDbEntity
  8
0
 62
1
100
AcDbLine
 10
2325.129070763709
 20
2112.4610147390904
 30
0.0
 11
2313.129070763709
 21
2112.4610147390904
 31
0.0
  0
LINE
  5
81
330
17
100
AcDbEntity
  8
0
 62
1
100
AcDbLine
 10
2313.129070763709
 20
2112.4610147390904
 30
0.0
 11
2313.129070763709
 21
2118.4610147390904
 31
0.0
  0
LWPOLYLINE
  5
82
330
17
100
AcDbEntity
  8
0
 62
1
100
AcDbPolyline
 90
4
 70
1
 10
2326.129070763709
 20
2167.9610147390904
 10
2334.129070763709
 20
2167.9610147390904
 10
2334.129070763709
 20
2169.4610147390904
 10
2326.129070763709
 20
2169.4610147390904
  0
LINE
  5
83
330
17
100
AcDbEntity
  8
0
 62
1
100
AcDbLine
 10
2334.129070763709
 20
2166.4610147390904
 30
0.0
 11
2326.129070763709
 21
2167.9610147390904
 31
0.0
  0
LINE
  5
84
330
17
100
AcDbEntity
  8
0
 62
1
100
AcDbLine
 10
2334.129070763709
 20
2164.9610147390904
 30
0.0
 11
2326.129070763709
 21
2166.4610147390904
 31
0.0
  0
LINE
  5
85
330
17
100
AcDbEntity
  8
0
 62
1
100
AcDbLine
 10
2334.129070763709
 20
2163.4610147390904
 30
0.0
 11
2326.129070763709
 21
2164.9610147390904
 31
0.0
  0
LINE
  5
86
330
17
100
AcDbEntity
  8
0
 62
1
100
AcDbLine
 10
2334.129070763709
 20
2161.9610147390904
 30
0.0
 11
2326.129070763709
 21
2163.4610147390904
 31
0.0
  0
LINE
  5
87
330
17
100
AcDbEntity
  8
0
 62
1
100
AcDbLine
 10
2334.129070763709
 20
2160.4610147390904
 30
0.0
 11
2326.129070763709
 21
2161.9610147390904
 31
0.0
  0
LINE
  5
88
330
17
100
AcDbEntity
  8
0
 62
1
100
AcDbLine
 10
2334.129070763709
 20
2158.9610147390904
 30
0.0
 11
2326.129070763709
 21
2160.4610147390904
 31
0.0
  0
LINE
  5
89
330
17
100
AcDbEntity
  8
0
 62
1
100
AcDbLine
 10
2334.129070763709
 20
2157.4610147390904
 30
0.0
 11
2326.129070763709
 21
2158.9610147390904
 31
0.0
  0
LINE
  5
8A
330
17
100
AcDbEntity
  8
0
 62
1
100
AcDbLine
 10
2334.129070763709
 20
2155.9610147390904
 30
0.0
 11
2326.129070763709
 21
2157.4610147390904
 31
0.0
  0
LINE
  5
8B
330
17
100
AcDbEntity
  8
0
 62
1
100
AcDbLine
 10
2334.129070763709
 20
2154.4610147390904
 30
0.0
 11
2326.129070763709
 21
2155.9610147390904
 31
0.0
  0
LINE
  5
8C
330
17
100
AcDbEntity
  8
0
 62
1
100
AcDbLine
 10
2334.129070763709
 20
2152.9610147390904
 30
0.0
 11
2326.129070763709
 21
2154.4610147390904
 31
0.0
  0
LINE
  5
8D
330
17
100
AcDbEntity
  8
0
 62
1
100
AcDbLine
 10
2334.129070763709
 20
2151.4610147390904
 30
0.0
 11
2326.129070763709
 21
2152.9610147390904
 31
0.0
  0
LINE
  5
8E
330
17
100
AcDbEntity
  8
0
 62
1
100
AcDbLine
 10
2334.129070763709
 20
2149.9610147390904
 30
0.0
 11
2326.129070763709
 21
2151.4610147390904
 31
0.0
  0
LINE
  5
8F
330
17
100
AcDbEntity
  8
0
 62
1
100
AcDbLine
 10
2334.129070763709
 20
2148.4610147390904
 30
0.0
 11
2326.129070763709
 21
2149.9610147390904
 31
0.0
  0
LINE
  5
90
330
17
100
AcDbEntity
  8
0
 62
1
100
AcDbLine
 10
2334.129070763709
 20
2146.9610147390904
 30
0.0
 11
2326.129070763709
 21
2148.4610147390904
 31
0.0
  0
LINE
  5
91
330
17
100
AcDbEntity
  8
0
 62
1
100
AcDbLine
 10
2334.129070763709
 20
2145.4610147390904
 30
0.0
 11
2326.129070763709
 21
2146.9610147390904
 31
0.0
  0
LINE
  5
92
330
17
100
AcDbEntity
  8
0
 62
1
100
AcDbLine
 10
2334.129070763709
 20
2143.9610147390904
 30
0.0
 11
2326.129070763709
 21
2145.4610147390904
 31
0.0
  0
LINE
  5
93
330
17
100
AcDbEntity
  8
0
 62
1
100
AcDbLine
 10
2334.129070763709
 20
2142.4610147390904
 30
0.0
 11
2326.129070763709
 21
2143.9610147390904
 31
0.0
  0
LINE
  5
94
330
17
100
AcDbEntity
  8
0
 62
1
100
AcDbLine
 10
2334.129070763709
 20
2140.9610147390904
 30
0.0
 11
2326.129070763709
 21
2142.4610147390904
 31
0.0
  0
LINE
  5
95
330
17
100
AcDbEntity
  8
0
 62
1
100
AcDbLine
 10
2334.129070763709
 20
2139.4610147390904
 30
0.0
 11
2326.129070763709
 21
2140.9610147390904
 31
0.0
  0
LINE
  5
96
330
17
100
AcDbEntity
  8
0
 62
1
100
AcDbLine
 10
2334.129070763709
 20
2137.9610147390904
 30
0.0
 11
2326.129070763709
 21
2139.4610147390904
 31
0.0
  0
LINE
  5
97
330
17
100
AcDbEntity
  8
0
 62
1
100
AcDbLine
 10
2334.129070763709
 20
2136.4610147390904
 30
0.0
 11
2326.129070763709
 21
2137.9610147390904
 31
0.0
  0
LINE
  5
98
330
17
100
AcDbEntity
  8
0
 62
1
100
AcDbLine
 10
2331.4624040970193
 20
2135.4610147390904
 30
0.0
 11
2326.129070763709
 21
2136.4610147390904
 31
0.0
  0
LINE
  5
99
330
17
100
AcDbEntity
  8
0
 62
1
100
AcDbLine
 10
2326.129070763709
 20
2166.4610147390904
 30
0.0
 11
2327.129070763709
 21
2166.4610147390904
 31
0.0
  0
LINE
  5
9A
330
17
100
AcDbEntity
  8
0
 62
1
100
AcDbLine
 10
2333.129070763709
 20
2166.4610147390904
 30
0.0
 11
2334.129070763709
 21
2166.4610147390904
 31
0.0
  0
LINE
  5
9B
330
17
100
AcDbEntity
  8
0
 62
1
100
AcDbLine
 10
2326.129070763709
 20
2164.9610147390904
 30
0.0
 11
2327.129070763709
 21
2164.9610147390904
 31
0.0
  0
LINE
  5
9C
330
17
100
AcDbEntity
  8
0
 62
1
100
AcDbLine
 10
2333.129070763709
 20
2164.9610147390904
 30
0.0
 11
2334.129070763709
 21
2164.9610147390904
 31
0.0
  0
LINE
  5
9D
330
17
100
AcDbEntity
  8
0
 62
1
100
AcDbLine
 10
2326.129070763709
 20
2163.4610147390904
 30
0.0
 11
2327.129070763709
 21
2163.4610147390904
 31
0.0
  0
LINE
  5
9E
330
17
100
AcDbEntity
  8
0
 62
1
100
AcDbLine
 10
2333.129070763709
 20
2163.4610147390904
 30
0.0
 11
2334.129070763709
 21
2163.4610147390904
 31
0.0
  0
LINE
  5
9F
330
17
100
AcDbEntity
  8
0
 62
1
100
AcDbLine
 10
2326.129070763709
 20
2161.9610147390904
 30
0.0
 11
2327.129070763709
 21
2161.9610147390904
 31
0.0
  0
LINE
  5
A0
330
17
100
AcDbEntity
  8
0
 62
1
100
AcDbLine
 10
2333.129070763709
 20
2161.9610147390904
 30
0.0
 11
2334.129070763709
 21
2161.9610147390904
 31
0.0
  0
LINE
  5
A1
330
17
100
AcDbEntity
  8
0
 62
1
100
AcDbLine
 10
2326.129070763709
 20
2160.4610147390904
 30
0.0
 11
2327.129070763709
 21
2160.4610147390904
 31
0.0
  0
LINE
  5
A2
330
17
100
AcDbEntity
  8
0
 62
1
100
AcDbLine
 10
2333.129070763709
 20
2160.4610147390904
 30
0.0
 11
2334.129070763709
 21
2160.4610147390904
 31
0.0
  0
LINE
  5
A3
330
17
100
AcDbEntity
  8
0
 62
1
100
AcDbLine
 10
2326.129070763709
 20
2158.9610147390904
 30
0.0
 11
2327.129070763709
 21
2158.9610147390904
 31
0.0
  0
LINE
  5
A4
330
17
100
AcDbEntity
  8
0
 62
1
100
AcDbLine
 10
2333.129070763709
 20
2158.9610147390904
 30
0.0
 11
2334.129070763709
 21
2158.9610147390904
 31
0.0
  0
LINE
  5
A5
330
17
100
AcDbEntity
  8
0
 62
1
100
AcDbLine
 10
2326.129070763709
 20
2157.4610147390904
 30
0.0
 11
2327.129070763709
 21
2157.4610147390904
 31
0.0
  0
LINE
  5
A6
330
17
100
AcDbEntity
  8
0
 62
1
100
AcDbLine
 10
2333.129070763709
 20
2157.4610147390904
 30
0.0
 11
2334.129070763709
 21
2157.4610147390904
 31
0.0
  0
LINE
  5
A7
330
17
100
AcDbEntity
  8
0
 62
1
100
AcDbLine
 10
2326.129070763709
 20
2155.9610147390904
 30
0.0
 11
2327.129070763709
 21
2155.9610147390904
 31
0.0
  0
LINE
  5
A8
330
17
100
AcDbEntity
  8
0
 62
1
100
AcDbLine
 10
2333.129070763709
 20
2155.9610147390904
 30
0.0
 11
2334.129070763709
 21
2155.9610147390904
 31
0.0
  0
LINE
  5
A9
330
17
100
AcDbEntity
  8
0
 62
1
100
AcDbLine
 10
2326.129070763709
 20
2154.4610147390904
 30
0.0
 11
2327.129070763709
 21
2154.4610147390904
 31
0.0
  0
LINE
  5
AA
330
17
100
AcDbEntity
  8
0
 62
1
100
AcDbLine
 10
2333.129070763709
 20
2154.4610147390904
 30
0.0
 11
2334.129070763709
 21
2154.4610147390904
 31
0.0
  0
LINE
  5
AB
330
17
100
AcDbEntity
  8
0
 62
1
100
AcDbLine
 10
2326.129070763709
 20
2152.9610147390904
 30
0.0
 11
2327.129070763709
 21
2152.9610147390904
 31
0.0
  0
LINE
  5
AC
330
17
100
AcDbEntity
  8
0
 62
1
100
AcDbLine
 10
2333.129070763709
 20
2152.9610147390904
 30
0.0
 11
2334.129070763709
 21
2152.9610147390904
 31
0.0
  0
LINE
  5
AD
330
17
100
AcDbEntity
  8
0
 62
1
100
AcDbLine
 10
2326.129070763709
 20
2151.4610147390904
 30
0.0
 11
2327.129070763709
 21
2151.4610147390904
 31
0.0
  0
LINE
  5
AE
330
17
100
AcDbEntity
  8
0
 62
1
100
AcDbLine
 10
2333.129070763709
 20
2151.4610147390904
 30
0.0
 11
2334.129070763709
 21
2151.4610147390904
 31
0.0
  0
LINE
  5
AF
330
17
100
AcDbEntity
  8
0
 62
1
100
AcDbLine
 10
2326.129070763709
 20
2149.9610147390904
 30
0.0
 11
2327.129070763709
 21
2149.9610147390904
 31
0.0
  0
LINE
  5
B0
330
17
100
AcDbEntity
  8
0
 62
1
100
AcDbLine
 10
2333.129070763709
 20
2149.9610147390904
 30
0.0
 11
2334.129070763709
 21
2149.9610147390904
 31
0.0
  0
LINE
  5
B1
330
17
100
AcDbEntity
  8
0
 62
1
100
AcDbLine
 10
2326.129070763709
 20
2148.4610147390904
 30
0.0
 11
2327.129070763709
 21
2148.4610147390904
 31
0.0
  0
LINE
  5
B2
330
17
100
AcDbEntity
  8
0
 62
1
100
AcDbLine
 10
2333.129070763709
 20
2148.4610147390904
 30
0.0
 11
2334.129070763709
 21
2148.4610147390904
 31
0.0
  0
LINE
  5
B3
330
17
100
AcDbEntity
  8
0
 62
1
100
AcDbLine
 10
2326.129070763709
 20
2146.9610147390904
 30
0.0
 11
2327.129070763709
 21
2146.9610147390904
 31
0.0
  0
LINE
  5
B4
330
17
100
AcDbEntity
  8
0
 62
1
100
AcDbLine
 10
2333.129070763709
 20
2146.9610147390904
 30
0.0
 11
2334.129070763709
 21
2146.9610147390904
 31
0.0
  0
LINE
  5
B5
330
17
100
AcDbEntity
  8
0
 62
1
100
AcDbLine
 10
2326.129070763709
 20
2145.4610147390904
 30
0.0
 11
2327.129070763709
 21
2145.4610147390904
 31
0.0
  0
LINE
  5
B6
330
17
100
AcDbEntity
  8
0
 62
1
100
AcDbLine
 10
2333.129070763709
 20
2145.4610147390904
 30
0.0
 11
2334.129070763709
 21
2145.4610147390904
 31
0.0
  0
LINE
  5
B7
330
17
100
AcDbEntity
  8
0
 62
1
100
AcDbLine
 10
2326.129070763709
 20
2143.9610147390904
 30
0.0
 11
2327.129070763709
 21
2143.9610147390904
 31
0.0
  0
LINE
  5
B8
330
17
100
AcDbEntity
  8
0
 62
1
100
AcDbLine
 10
2333.129070763709
 20
2143.9610147390904
 30
0.0
 11
2334.129070763709
 21
2143.9610147390904
 31
0.0
  0
LINE
  5
B9
330
17
100
AcDbEntity
  8
0
 62
1
100
AcDbLine
 10
2326.129070763709
 20
2142.4610147390904
 30
0.0
 11
2327.129070763709
 21
2142.4610147390904
 31
0.0
  0
LINE
  5
BA
330
17
100
AcDbEntity
  8
0
 62
1
100
AcDbLine
 10
2333.129070763709
 20
2142.4610147390904
 30
0.0
 11
2334.129070763709
 21
2142.4610147390904
 31
0.0
  0
LINE
  5
BB
330
17
100
AcDbEntity
  8
0
 62
1
100
AcDbLine
 10
2326.129070763709
 20
2140.9610147390904
 30
0.0
 11
2327.129070763709
 21
2140.9610147390904
 31
0.0
  0
LINE
  5
BC
330
17
100
AcDbEntity
  8
0
 62
1
100
AcDbLine
 10
2333.129070763709
 20
2140.9610147390904
 30
0.0
 11
2334.129070763709
 21
2140.9610147390904
 31
0.0
  0
LINE
  5
BD
330
17
100
AcDbEntity
  8
0
 62
1
100
AcDbLine
 10
2326.129070763709
 20
2137.9610147390904
 30
0.0
 11
2327.129070763709
 21
2137.9610147390904
 31
0.0
  0
LINE
  5
BE
330
17
100
AcDbEntity
  8
0
 62
1
100
AcDbLine
 10
2333.129070763709
 20
2137.9610147390904
 30
0.0
 11
2334.129070763709
 21
2137.9610147390904
 31
0.0
  0
LINE
  5
BF
330
17
100
AcDbEntity
  8
0
 62
1
100
AcDbLine
 10
2326.129070763709
 20
2139.4610147390904
 30
0.0
 11
2327.129070763709
 21
2139.4610147390904
 31
0.0
  0
LINE
  5
C0
330
17
100
AcDbEntity
  8
0
 62
1
100
AcDbLine
 10
2333.129070763709
 20
2139.4610147390904
 30
0.0
 11
2334.129070763709
 21
2139.4610147390904
 31
0.0
  0
LINE
  5
C1
330
17
100
AcDbEntity
  8
0
 62
1
100
AcDbLine
 10
2326.129070763709
 20
2136.4610147390904
 30
0.0
 11
2327.129070763709
 21
2136.4610147390904
 31
0.0
  0
LINE
  5
C2
330
17
100
AcDbEntity
  8
0
 62
1
100
AcDbLine
 10
2333.129070763709
 20
2136.4610147390904
 30
0.0
 11
2334.129070763709
 21
2136.4610147390904
 31
0.0
  0
LINE
  5
C3
330
17
100
AcDbEntity
  8
0
 62
1
100
AcDbLine
 10
2325.629070763709
 20
1160.2118996097997
 30
0.0
 11
2334.6290707637
 21
1160.2118996097997
 31
0.0
  0
LINE
  5
C4
330
17
100
AcDbEntity
  8
0
 62
1
100
AcDbLine
 10
2334.629070763709
 20
1098.2118996097997
 30
0.0
 11
2325.629070763709
 21
1098.2118996097997
 31
0.0
  0
LINE
  5
C5
330
17
100
AcDbEntity
  8
0
 62
1
100
AcDbLine
 10
2325.629070763709
 20
1098.2118996097997
 30
0.0
 11
2325.629070763709
 21
1112.2118996098106
 31
0.0
  0
LINE
  5
C6
330
17
100
AcDbEntity
  8
0
 62
1
100
AcDbLine
 10
2325.629070763709
 20
1146.2118996097997
 30
0.0
 11
2325.629070763709
 21
1160.2118996097997
 31
0.0
  0
LINE
  5
C7
330
17
100
AcDbEntity
  8
0
 62
1
100
AcDbLine
 10
2334.629070763709
 20
1098.2118996097997
 30
0.0
 11
2334.629070763709
 21
1112.2118996098106
 31
0.0
  0
LINE
  5
C8
330
17
100
AcDbEntity
  8
0
 62
1
100
AcDbLine
 10
2334.629070763709
 20
1146.2118996097997
 30
0.0
 11
2334.629070763709
 21
1160.2118996097997
 31
0.0
  0
LINE
  5
C9
330
17
100
AcDbEntity
  8
0
 62
1
100
AcDbLine
 10
2325.629070763709
 20
1146.2118996097997
 30
0.0
 11
2334.629070763709
 21
1146.2118996097997
 31
0.0
  0
LINE
  5
CA
330
17
100
AcDbEntity
  8
0
 62
1
100
AcDbLine
 10
2325.629070763709
 20
1112.2118996098106
 30
0.0
 11
2334.629070763709
 21
1112.2118996098106
 31
0.0
  0
LINE
  5
CB
330
17
100
AcDbEntity
  8
0
 62
1
100
AcDbLine
 10
2334.629070763709
 20
1146.2118996097997
 30
0.0
 11
2334.629070763709
 21
1112.2118996098106
 31
0.0
  0
LWPOLYLINE
  5
CC
330
17
100
AcDbEntity
  8
0
 62
1
100
AcDbPolyline
 90
2
 70
0
 10
2332.129070763709
 20
1081.2118996097997
 10
2328.12907076372
 20
1081.2118996097997
  0
LWPOLYLINE
  5
CD
330
17
100
AcDbEntity
  8
0
 62
1
100
AcDbPolyline
 90
2
 70
0
 10
2327.129070763709
 20
1084.2118996098907
 10
2327.129070763709
 20
1098.2118996097997
  0
LWPOLYLINE
  5
CE
330
17
100
AcDbEntity
  8
0
 62
1
100
AcDbPolyline
 90
2
 70
0
 10
2327.129070763709
 20
1113.7118996098106
 10
2327.129070763709
 20
1146.2118996097997
  0
LWPOLYLINE
  5
CF
330
17
100
AcDbEntity
  8
0
 62
1
100
AcDbPolyline
 90
2
 70
0
 10
2333.129070763709
 20
1146.2118996097997
 10
2333.129070763709
 20
1113.7118996098106
  0
LWPOLYLINE
  5
D0
330
17
100
AcDbEntity
  8
0
 62
1
100
AcDbPolyline
 90
2
 70
0
 10
2333.129070763709
 20
1098.2118996097997
 10
2333.129070763709
 20
1084.2118996097997
  0
LINE
  5
D1
330
17
100
AcDbEntity
  8
0
 62
1
100
AcDbLine
 10
2333.129070763709
 20
1084.2118996097997
 30
0.0
 11
2332.129070763709
 21
1081.2118996097997
 31
0.0
  0
LINE
  5
D2
330
17
100
AcDbEntity
  8
0
 62
1
100
AcDbLine
 10
2327.12907076372
 20
1084.2118996097997
 30
0.0
 11
2328.12907076372
 21
1081.2118996097997
 31
0.0
  0
LINE
  5
D3
330
17
100
AcDbEntity
  8
0
 62
1
100
AcDbLine
 10
2327.129070763709
 20
1160.2118996097997
 30
0.0
 11
2327.129070763709
 21
1160.2118996097906
 31
0.0
  0
LINE
  5
D4
330
17
100
AcDbEntity
  8
0
 62
1
100
AcDbLine
 10
2333.129070763709
 20
1160.2118996097997
 30
0.0
 11
2333.129070763709
 21
1161.2118996097906
 31
0.0
  0
LINE
  5
D5
330
17
100
AcDbEntity
  8
0
 62
1
100
AcDbLine
 10
2327.129070763709
 20
1160.2118996097997
 30
0.0
 11
2327.129070763709
 21
1161.2118996097906
 31
0.0
  0
LINE
  5
D6
330
17
100
AcDbEntity
  8
0
 62
1
100
AcDbLine
 10
2325.129070763709
 20
1163.2118996097906
 30
0.0
 11
2313.129070763709
 21
1163.2118996097997
 31
0.0
  0
ARC
  5
D7
330
17
100
AcDbEntity
  8
0
 62
1
100
AcDbCircle
 10
2325.129070763709
 20
1161.2118996097906
 30
0.0
 40
2.0
100
AcDbArc
 50
0.0
 51
90.0
  0
ARC
  5
D8
330
17
100
AcDbEntity
  8
0
 62
1
100
AcDbCircle
 10
2325.129070763709
 20
1161.2118996097906
 30
0.0
 40
8.0
100
AcDbArc
 50
0.0
 51
90.0
  0
LINE
  5
D9
330
17
100
AcDbEntity
  8
0
 62
1
100
AcDbLine
 10
2325.129070763709
 20
1169.2118996097997
 30
0.0
 11
2313.129070763709
 21
1169.2118996097997
 31
0.0
  0
LINE
  5
DA
330
17
100
AcDbEntity
  8
0
 62
1
100
AcDbLine
 10
2313.129070763709
 20
1169.2118996097997
 30
0.0
 11
2313.129070763709
 21
1163.2118996097997
 31
0.0
  0
LWPOLYLINE
  5
DB
330
17
100
AcDbEntity
  8
0
 62
1
100
AcDbPolyline
 90
4
 70
1
 10
2326.129070763709
 20
1113.7118996098106
 10
2334.129070763709
 20
1113.7118996098106
 10
2334.129070763709
 20
1112.2118996098106
 10
2326.129070763709
 20
1112.2118996098106
  0
LINE
  5
DC
330
17
100
AcDbEntity
  8
0
 62
1
100
AcDbLine
 10
2334.129070763709
 20
1115.2118996098106
 30
0.0
 11
2326.129070763709
 21
1113.7118996098106
 31
0.0
  0
LINE
  5
DD
330
17
100
AcDbEntity
  8
0
 62
1
100
AcDbLine
 10
2334.129070763709
 20
1116.7118996098106
 30
0.0
 11
2326.129070763709
 21
1115.2118996098106
 31
0.0
  0
LINE
  5
DE
330
17
100
AcDbEntity
  8
0
 62
1
100
AcDbLine
 10
2334.129070763709
 20
1118.2118996098106
 30
0.0
 11
2326.129070763709
 21
1116.7118996098106
 31
0.0
  0
LINE
  5
DF
330
17
100
AcDbEntity
  8
0
 62
1
100
AcDbLine
 10
2334.129070763709
 20
1119.7118996098106
 30
0.0
 11
2326.129070763709
 21
1118.2118996098106
 31
0.0
  0
LINE
  5
E0
330
17
100
AcDbEntity
  8
0
 62
1
100
AcDbLine
 10
2334.129070763709
 20
1121.2118996098106
 30
0.0
 11
2326.129070763709
 21
1119.7118996098106
 31
0.0
  0
LINE
  5
E1
330
17
100
AcDbEntity
  8
0
 62
1
100
AcDbLine
 10
2334.129070763709
 20
1122.7118996098106
 30
0.0
 11
2326.129070763709
 21
1121.2118996098106
 31
0.0
  0
LINE
  5
E2
330
17
100
AcDbEntity
  8
0
 62
1
100
AcDbLine
 10
2334.129070763709
 20
1124.2118996098106
 30
0.0
 11
2326.129070763709
 21
1122.7118996098106
 31
0.0
  0
LINE
  5
E3
330
17
100
AcDbEntity
  8
0
 62
1
100
AcDbLine
 10
2334.129070763709
 20
1125.7118996098106
 30
0.0
 11
2326.129070763709
 21
1124.2118996098106
 31
0.0
  0
LINE
  5
E4
330
17
100
AcDbEntity
  8
0
 62
1
100
AcDbLine
 10
2334.129070763709
 20
1127.2118996098106
 30
0.0
 11
2326.129070763709
 21
1125.7118996098106
 31
0.0
  0
LINE
  5
E5
330
17
100
AcDbEntity
  8
0
 62
1
100
AcDbLine
 10
2334.129070763709
 20
1128.7118996098106
 30
0.0
 11
2326.129070763709
 21
1127.2118996098106
 31
0.0
  0
LINE
  5
E6
330
17
100
AcDbEntity
  8
0
 62
1
100
AcDbLine
 10
2334.129070763709
 20
1130.2118996098106
 30
0.0
 11
2326.129070763709
 21
1128.7118996098106
 31
0.0
  0
LINE
  5
E7
330
17
100
AcDbEntity
  8
0
 62
1
100
AcDbLine
 10
2334.129070763709
 20
1131.7118996098106
 30
0.0
 11
2326.129070763709
 21
1130.2118996098106
 31
0.0
  0
LINE
  5
E8
330
17
100
AcDbEntity
  8
0
 62
1
100
AcDbLine
 10
2334.129070763709
 20
1133.2118996098106
 30
0.0
 11
2326.129070763709
 21
1131.7118996098106
 31
0.0
  0
LINE
  5
E9
330
17
100
AcDbEntity
  8
0
 62
1
100
AcDbLine
 10
2334.129070763709
 20
1134.7118996098106
 30
0.0
 11
2326.129070763709
 21
1133.2118996098106
 31
0.0
  0
LINE
  5
EA
330
17
100
AcDbEntity
  8
0
 62
1
100
AcDbLine
 10
2334.129070763709
 20
1136.2118996098106
 30
0.0
 11
2326.129070763709
 21
1134.7118996098106
 31
0.0
  0
LINE
  5
EB
330
17
100
AcDbEntity
  8
0
 62
1
100
AcDbLine
 10
2334.129070763709
 20
1137.7118996098106
 30
0.0
 11
2326.129070763709
 21
1136.2118996098106
 31
0.0
  0
LINE
  5
EC
330
17
100
AcDbEntity
  8
0
 62
1
100
AcDbLine
 10
2334.129070763709
 20
1139.2118996098106
 30
0.0
 11
2326.129070763709
 21
1137.7118996098106
 31
0.0
  0
LINE
  5
ED
330
17
100
AcDbEntity
  8
0
 62
1
100
AcDbLine
 10
2334.129070763709
 20
1140.7118996098106
 30
0.0
 11
2326.129070763709
 21
1139.2118996098106
 31
0.0
  0
LINE
  5
EE
330
17
100
AcDbEntity
  8
0
 62
1
100
AcDbLine
 10
2334.129070763709
 20
1142.2118996098106
 30
0.0
 11
2326.129070763709
 21
1140.7118996098106
 31
0.0
  0
LINE
  5
EF
330
17
100
AcDbEntity
  8
0
 62
1
100
AcDbLine
 10
2334.129070763709
 20
1143.7118996098106
 30
0.0
 11
2326.129070763709
 21
1142.2118996098106
 31
0.0
  0
LINE
  5
F0
330
17
100
AcDbEntity
  8
0
 62
1
100
AcDbLine
 10
2334.129070763709
 20
1145.2118996098106
 30
0.0
 11
2326.129070763709
 21
1143.7118996098106
 31
0.0
  0
LINE
  5
F1
330
17
100
AcDbEntity
  8
0
 62
1
100
AcDbLine
 10
2331.4624040970193
 20
1146.2118996097997
 30
0.0
 11
2326.129070763709
 21
1145.2118996098106
 31
0.0
  0
LINE
  5
F2
330
17
100
AcDbEntity
  8
0
 62
1
100
AcDbLine
 10
2326.129070763709
 20
1115.2118996098106
 30
0.0
 11
2327.129070763709
 21
1115.2118996098106
 31
0.0
  0
LINE
  5
F3
330
17
100
AcDbEntity
  8
0
 62
1
100
AcDbLine
 10
2333.129070763709
 20
1115.2118996098106
 30
0.0
 11
2334.129070763709
 21
1115.2118996098106
 31
0.0
  0
LINE
  5
F4
330
17
100
AcDbEntity
  8
0
 62
1
100
AcDbLine
 10
2326.129070763709
 20
1116.7118996098106
 30
0.0
 11
2327.129070763709
 21
1116.7118996098106
 31
0.0
  0
LINE
  5
F5
330
17
100
AcDbEntity
  8
0
 62
1
100
AcDbLine
 10
2333.129070763709
 20
1116.7118996098106
 30
0.0
 11
2334.129070763709
 21
1116.7118996098106
 31
0.0
  0
LINE
  5
F6
330
17
100
AcDbEntity
  8
0
 62
1
100
AcDbLine
 10
2326.129070763709
 20
1118.2118996098106
 30
0.0
 11
2327.129070763709
 21
1118.2118996098106
 31
0.0
  0
LINE
  5
F7
330
17
100
AcDbEntity
  8
0
 62
1
100
AcDbLine
 10
2333.129070763709
 20
1118.2118996098106
 30
0.0
 11
2334.129070763709
 21
1118.2118996098106
 31
0.0
  0
LINE
  5
F8
330
17
100
AcDbEntity
  8
0
 62
1
100
AcDbLine
 10
2326.129070763709
 20
1119.7118996098106
 30
0.0
 11
2327.129070763709
 21
1119.7118996098106
 31
0.0
  0
LINE
  5
F9
330
17
100
AcDbEntity
  8
0
 62
1
100
AcDbLine
 10
2333.129070763709
 20
1119.7118996098106
 30
0.0
 11
2334.129070763709
 21
1119.7118996098106
 31
0.0
  0
LINE
  5
FA
330
17
100
AcDbEntity
  8
0
 62
1
100
AcDbLine
 10
2326.129070763709
 20
1121.2118996098106
 30
0.0
 11
2327.129070763709
 21
1121.2118996098106
 31
0.0
  0
LINE
  5
FB
330
17
100
AcDbEntity
  8
0
 62
1
100
AcDbLine
 10
2333.129070763709
 20
1121.2118996098106
 30
0.0
 11
2334.129070763709
 21
1121.2118996098106
 31
0.0
  0
LINE
  5
FC
330
17
100
AcDbEntity
  8
0
 62
1
100
AcDbLine
 10
2326.129070763709
 20
1122.7118996098106
 30
0.0
 11
2327.129070763709
 21
1122.7118996098106
 31
0.0
  0
LINE
  5
FD
330
17
100
AcDbEntity
  8
0
 62
1
100
AcDbLine
 10
2333.129070763709
 20
1122.7118996098106
 30
0.0
 11
2334.129070763709
 21
1122.7118996098106
 31
0.0
  0
LINE
  5
FE
330
17
100
AcDbEntity
  8
0
 62
1
100
AcDbLine
 10
2326.129070763709
 20
1124.2118996098106
 30
0.0
 11
2327.129070763709
 21
1124.2118996098106
 31
0.0
  0
LINE
  5
FF
330
17
100
AcDbEntity
  8
0
 62
1
100
AcDbLine
 10
2333.129070763709
 20
1124.2118996098106
 30
0.0
 11
2334.129070763709
 21
1124.2118996098106
 31
0.0
  0
LINE
  5
100
330
17
100
AcDbEntity
  8
0
 62
1
100
AcDbLine
 10
2326.129070763709
 20
1125.7118996098106
 30
0.0
 11
2327.129070763709
 21
1125.7118996098106
 31
0.0
  0
LINE
  5
101
330
17
100
AcDbEntity
  8
0
 62
1
100
AcDbLine
 10
2333.129070763709
 20
1125.7118996098106
 30
0.0
 11
2334.129070763709
 21
1125.7118996098106
 31
0.0
  0
LINE
  5
102
330
17
100
AcDbEntity
  8
0
 62
1
100
AcDbLine
 10
2326.129070763709
 20
1127.2118996098106
 30
0.0
 11
2327.129070763709
 21
1127.2118996098106
 31
0.0
  0
LINE
  5
103
330
17
100
AcDbEntity
  8
0
 62
1
100
AcDbLine
 10
2333.129070763709
 20
1127.2118996098106
 30
0.0
 11
2334.129070763709
 21
1127.2118996098106
 31
0.0
  0
LINE
  5
104
330
17
100
AcDbEntity
  8
0
 62
1
100
AcDbLine
 10
2326.129070763709
 20
1128.7118996098106
 30
0.0
 11
2327.129070763709
 21
1128.7118996098106
 31
0.0
  0
LINE
  5
105
330
17
100
AcDbEntity
  8
0
 62
1
100
AcDbLine
 10
2333.129070763709
 20
1128.7118996098106
 30
0.0
 11
2334.129070763709
 21
1128.7118996098106
 31
0.0
  0
LINE
  5
106
330
17
100
AcDbEntity
  8
0
 62
1
100
AcDbLine
 10
2326.129070763709
 20
1130.2118996098106
 30
0.0
 11
2327.129070763709
 21
1130.2118996098106
 31
0.0
  0
LINE
  5
107
330
17
100
AcDbEntity
  8
0
 62
1
100
AcDbLine
 10
2333.129070763709
 20
1130.2118996098106
 30
0.0
 11
2334.129070763709
 21
1130.2118996098106
 31
0.0
  0
LINE
  5
108
330
17
100
AcDbEntity
  8
0
 62
1
100
AcDbLine
 10
2326.129070763709
 20
1131.7118996098106
 30
0.0
 11
2327.129070763709
 21
1131.7118996098106
 31
0.0
  0
LINE
  5
109
330
17
100
AcDbEntity
  8
0
 62
1
100
AcDbLine
 10
2333.129070763709
 20
1131.7118996098106
 30
0.0
 11
2334.129070763709
 21
1131.7118996098106
 31
0.0
  0
LINE
  5
10A
330
17
100
AcDbEntity
  8
0
 62
1
100
AcDbLine
 10
2326.129070763709
 20
1133.2118996098106
 30
0.0
 11
2327.129070763709
 21
1133.2118996098106
 31
0.0
  0
LINE
  5
10B
330
17
100
AcDbEntity
  8
0
 62
1
100
AcDbLine
 10
2333.129070763709
 20
1133.2118996098106
 30
0.0
 11
2334.129070763709
 21
1133.2118996098106
 31
0.0
  0
LINE
  5
10C
330
17
100
AcDbEntity
  8
0
 62
1
100
AcDbLine
 10
2326.129070763709
 20
1134.7118996098106
 30
0.0
 11
2327.129070763709
 21
1134.7118996098106
 31
0.0
  0
LINE
  5
10D
330
17
100
AcDbEntity
  8
0
 62
1
100
AcDbLine
 10
2333.129070763709
 20
1134.7118996098106
 30
0.0
 11
2334.129070763709
 21
1134.7118996098106
 31
0.0
  0
LINE
  5
10E
330
17
100
AcDbEntity
  8
0
 62
1
100
AcDbLine
 10
2326.129070763709
 20
1136.2118996098106
 30
0.0
 11
2327.129070763709
 21
1136.2118996098106
 31
0.0
  0
LINE
  5
10F
330
17
100
AcDbEntity
  8
0
 62
1
100
AcDbLine
 10
2333.129070763709
 20
1136.2118996098106
 30
0.0
 11
2334.129070763709
 21
1136.2118996098106
 31
0.0
  0
LINE
  5
110
330
17
100
AcDbEntity
  8
0
 62
1
100
AcDbLine
 10
2326.129070763709
 20
1137.7118996098106
 30
0.0
 11
2327.129070763709
 21
1137.7118996098106
 31
0.0
  0
LINE
  5
111
330
17
100
AcDbEntity
  8
0
 62
1
100
AcDbLine
 10
2333.129070763709
 20
1137.7118996098106
 30
0.0
 11
2334.129070763709
 21
1137.7118996098106
 31
0.0
  0
LINE
  5
112
330
17
100
AcDbEntity
  8
0
 62
1
100
AcDbLine
 10
2326.129070763709
 20
1139.2118996098106
 30
0.0
 11
2327.129070763709
 21
1139.2118996098106
 31
0.0
  0
LINE
  5
113
330
17
100
AcDbEntity
  8
0
 62
1
100
AcDbLine
 10
2333.129070763709
 20
1139.2118996098106
 30
0.0
 11
2334.129070763709
 21
1139.2118996098106
 31
0.0
  0
LINE
  5
114
330
17
100
AcDbEntity
  8
0
 62
1
100
AcDbLine
 10
2326.129070763709
 20
1140.7118996098106
 30
0.0
 11
2327.129070763709
 21
1140.7118996098106
 31
0.0
  0
LINE
  5
115
330
17
100
AcDbEntity
  8
0
 62
1
100
AcDbLine
 10
2333.129070763709
 20
1140.7118996098106
 30
0.0
 11
2334.129070763709
 21
1140.7118996098106
 31
0.0
  0
LINE
  5
116
330
17
100
AcDbEntity
  8
0
 62
1
100
AcDbLine
 10
2326.129070763709
 20
1143.7118996098106
 30
0.0
 11
2327.129070763709
 21
1143.7118996098106
 31
0.0
  0
LINE
  5
117
330
17
100
AcDbEntity
  8
0
 62
1
100
AcDbLine
 10
2333.129070763709
 20
1143.7118996098106
 30
0.0
 11
2334.129070763709
 21
1143.7118996098106
 31
0.0
  0
LINE
  5
118
330
17
100
AcDbEntity
  8
0
 62
1
100
AcDbLine
 10
2326.129070763709
 20
1142.2118996098106
 30
0.0
 11
2327.129070763709
 21
1142.2118996098106
 31
0.0
  0
LINE
  5
119
330
17
100
AcDbEntity
  8
0
 62
1
100
AcDbLine
 10
2333.129070763709
 20
1142.2118996098106
 30
0.0
 11
2334.129070763709
 21
1142.2118996098106
 31
0.0
  0
LINE
  5
11A
330
17
100
AcDbEntity
  8
0
 62
1
100
AcDbLine
 10
2326.129070763709
 20
1145.2118996098106
 30
0.0
 11
2327.129070763709
 21
1145.2118996098106
 31
0.0
  0
LINE
  5
11B
330
17
100
AcDbEntity
  8
0
 62
1
100
AcDbLine
 10
2333.129070763709
 20
1145.2118996098106
 30
0.0
 11
2334.129070763709
 21
1145.2118996098106
 31
0.0
  0
LINE
  5
11C
330
17
100
AcDbEntity
  8
0
 62
7
100
AcDbLine
 10
976.3050140711293
 20
546.8475682571207
 30
0.0
 11
976.3050140711293
 21
545.8475682571207
 31
0.0
  0
LINE
  5
11D
330
17
100
AcDbEntity
  8
0
 62
7
100
AcDbLine
 10
447.30501407112934
 20
2216.8364571744496
 30
0.0
 11
473.30501407112934
 21
2190.8364571744496
 31
0.0
  0
LINE
  5
11E
330
17
100
AcDbEntity
  8
0
 62
7
100
AcDbLine
 10
1022.3050140711293
 20
2189.8364571744496
 30
0.0
 11
1049.3050140711293
 21
2216.8364571744496
 31
0.0
  0
LINE
  5
11F
330
17
100
AcDbEntity
  8
0
 62
7
100
AcDbLine
 10
1023.3050140711293
 20
1090.8364571744496
 30
0.0
 11
1049.3050140711293
 21
1064.8364571744496
 31
0.0
  0
LINE
  5
120
330
17
100
AcDbEntity
  8
0
 62
7
100
AcDbLine
 10
473.30501407112934
 20
1090.8364571744496
 30
0.0
 11
447.30501407112934
 21
1064.8364571744496
 31
0.0
  0
LINE
  5
121
330
17
100
AcDbEntity
  8
0
 62
7
100
AcDbLine
 10
2317.150694600099
 20
1112.8364571744496
 30
0.0
 11
2318.150694600099
 21
1112.8364571744496
 31
0.0
  0
DIMENSION
  5
122
330
17
100
AcDbEntity
  8
DIM
 62
7
100
AcDbDimension
280
0
  2
*D9
  3
Dim-25
 10
998.3050140711293
 20
782.7316407526996
 30
0.0
 11
723.3050140711293
 21
805.4959654457398
 31
0.0
 70
32
 71
5
 42
550.0
 73
0
 74
0
 75
0
100
AcDbAlignedDimension
 13
448.30501407112934
 23
724.8475682571207
 33
0.0
 14
998.3050140711293
 24
724.8475682571207
 34
0.0
 50
0.0
100
AcDbRotatedDimension
  0
DIMENSION
  5
123
330
17
100
AcDbEntity
  8
DIM
 62
7
100
AcDbDimension
280
0
  2
*D10
  3
Dim-25
 10
1049.3050140711293
 20
2375.851046109221
 30
0.0
 11
748.3050140711293
 21
2398.6153708022703
 31
0.0
 70
32
 71
5
 42
602.0
 73
0
 74
0
 75
0
100
AcDbAlignedDimension
 13
447.30501407112934
 23
2216.8364571744496
 33
0.0
 14
1049.3050140711293
 24
2216.8364571744496
 34
0.0
 50
0.0
100
AcDbRotatedDimension
  0
DIMENSION
  5
124
330
17
100
AcDbEntity
  8
DIM
 62
7
100
AcDbDimension
280
0
  2
*D11
  3
Dim-25
 10
1024.3050140711293
 20
437.06745607798075
 30
0.0
 11
723.3050140711293
 21
459.83178077102093
 31
0.0
 70
32
 71
5
 42
602.0
 73
0
 74
0
 75
0
100
AcDbAlignedDimension
 13
422.30501407112934
 23
524.8475682571207
 33
0.0
 14
1024.3050140711293
 24
524.8475682571207
 34
0.0
 50
0.0
100
AcDbRotatedDimension
  0
MTEXT
  5
125
330
17
100
AcDbEntity
  8
0
 62
2
100
AcDbMText
 10
735.620183915189
 20
1030.3534883635311
 30
0.0
 40
25.0
 41
775.0000000000146
 46
100.0000000000031
 71
5
 72
5
  1
Mặt trước tủ
  0
MTEXT
  5
126
330
17
100
AcDbEntity
  8
0
 62
2
100
AcDbMText
 10
2219.73795102238
 20
1010.1445952794002
 30
0.0
 40
25.0
 41
775.0000000000146
 46
100.0000000000031
 71
5
 72
5
  1
Hông tủ
  0
LWPOLYLINE
  5
127
330
17
100
AcDbEntity
  8
0
 62
7
100
AcDbPolyline
 90
4
 70
1
 10
1214.7580896733598
 20
1090.8364571744496
 10
1714.7580896733598
 20
1090.8364571744496
 10
1714.7580896733598
 20
2190.8364571744496
 10
1214.7580896733598
 20
2190.8364571744496
  0
LWPOLYLINE
  5
128
330
17
100
AcDbEntity
  8
0
 62
7
100
AcDbPolyline
 90
4
 70
1
 10
1215.7580896733598
 20
1091.8364571744496
 10
1713.7580896733598
 20
1091.8364571744496
 10
1713.7580896733598
 20
2189.8364571744496
 10
1215.7580896733598
 20
2189.8364571744496
  0
LWPOLYLINE
  5
129
330
17
100
AcDbEntity
  8
0
 62
3
100
AcDbPolyline
 90
4
 70
1
 10
1235.7580896733598
 20
1111.8364571744496
 10
1693.7580896733598
 20
1111.8364571744496
 10
1693.7580896733598
 20
2169.8364571744496
 10
1235.7580896733598
 20
2169.8364571744496
  0
LWPOLYLINE
  5
12A
330
17
100
AcDbEntity
  8
0
 62
7
100
AcDbPolyline
 90
4
 70
1
 10
1188.7580896733598
 20
1064.8364571744496
 10
1740.7580896733598
 20
1064.8364571744496
 10
1740.7580896733598
 20
2216.8364571744496
 10
1188.7580896733598
 20
2216.8364571744496
  0
MTEXT
  5
12B
330
17
100
AcDbEntity
  8
0
 62
2
100
AcDbMText
 10
1452.0732595174195
 20
1030.3534883635311
 30
0.0
 40
25.0
 41
725.0000000000146
 46
100.0000000000031
 71
5
 72
5
  1
Bên trong tủ
  0
ARC
  5
12C
330
17
100
AcDbEntity
  8
BAOCHAY
 62
7
 48
2000.0
100
AcDbCircle
 10
2214.5848535865407
 20
1489.7032868659007
 30
0.0
 40
1.080449368030645
100
AcDbArc
 50
270.0
 51
0.0
  0
ARC
  5
12D
330
17
100
AcDbEntity
  8
BAOCHAY
 62
7
 48
2000.0
100
AcDbCircle
 10
2214.5848535865407
 20
1489.7032868659007
 30
0.0
 40
1.080449368030645
100
AcDbArc
 50
0.0
 51
90.0
  0
ARC
  5
12E
330
17
100
AcDbEntity
  8
BAOCHAY
 62
7
 48
2000.0
100
AcDbCircle
 10
2212.4239548489295
 20
1484.8412647097703
 30
0.0
 40
2.160898736061288
100
AcDbArc
 50
270.0
 51
0.0
  0
LINE
  5
12F
330
17
100
AcDbEntity
  8
BAOCHAY
 62
7
 48
2000.0
100
AcDbLine
 10
2214.5848535865407
 20
1488.622837497791
 30
0.0
 11
2214.5848535865407
 21
1484.8412647097703
 31
0.0
  0
LINE
  5
130
330
17
100
AcDbEntity
  8
BAOCHAY
 62
7
 48
2000.0
100
AcDbLine
 10
2185.2110612902597
 20
1489.7032868659007
 30
0.0
 11
2185.2110612902597
 21
1489.7032868659007
 31
0.0
  0
ARC
  5
131
330
17
100
AcDbEntity
  8
BAOCHAY
 62
7
 48
2000.0
100
AcDbCircle
 10
2186.29151065907
 20
1489.7032868659007
 30
0.0
 40
1.080449368030645
100
AcDbArc
 50
180.0
 51
270.0
  0
ARC
  5
132
330
17
100
AcDbEntity
  8
BAOCHAY
 62
7
 48
2000.0
100
AcDbCircle
 10
2186.29151065907
 20
1489.7032868659007
 30
0.0
 40
1.080449368030645
100
AcDbArc
 50
90.0
 51
180.0
  0
LINE
  5
133
330
17
100
AcDbEntity
  8
BAOCHAY
 62
7
 48
2000.0
100
AcDbLine
 10
2186.29151065907
 20
1488.622837497791
 30
0.0
 11
2186.29151065907
 21
1484.8412647097703
 31
0.0
  0
ARC
  5
134
330
17
100
AcDbEntity
  8
BAOCHAY
 62
7
 48
2000.0
100
AcDbCircle
 10
2188.4524093948094
 20
1484.8412647097703
 30
0.0
 40
2.160898736061288
100
AcDbArc
 50
180.0
 51
270.0
  0
LINE
  5
135
330
17
100
AcDbEntity
  8
BAOCHAY
 62
7
 48
2000.0
100
AcDbLine
 10
2186.29151065907
 20
1490.7837362340106
 30
0.0
 11
2214.5848535865407
 21
1490.7837362340106
 31
0.0
  0
LINE
  5
136
330
17
100
AcDbEntity
  8
BAOCHAY
 62
7
 48
2000.0
100
AcDbLine
 10
2188.4524093948094
 20
1482.6803659735597
 30
0.0
 11
2212.4239548489295
 21
1482.6803659735597
 31
0.0
  0
LINE
  5
137
330
17
100
AcDbEntity
  8
BAOCHAY
 62
7
 48
2000.0
100
AcDbLine
 10
2186.29151065907
 20
1488.622837497791
 30
0.0
 11
2214.5848535865407
 21
1488.622837497791
 31
0.0
  0
LINE
  5
138
330
17
100
AcDbEntity
  8
BAOCHAY
 62
7
 48
2000.0
100
AcDbLine
 10
2195.0359352815703
 20
1440.8786149972002
 30
0.0
 11
2189.6336884412704
 21
1482.6803659735597
 31
0.0
  0
LINE
  5
139
330
17
100
AcDbEntity
  8
BAOCHAY
 62
7
 48
2000.0
100
AcDbLine
 10
2205.8404289621703
 20
1440.8786149972002
 30
0.0
 11
2211.2426758024703
 21
1482.6803659735597
 31
0.0
  0
LINE
  5
13A
330
17
100
AcDbEntity
  8
BAOCHAY
 62
7
 48
2000.0
100
AcDbLine
 10
2222.0471694830594
 20
1591.8057521446008
 30
0.0
 11
2222.0471694830594
 21
1594.776987906951
 31
0.0
  0
LINE
  5
13B
330
17
100
AcDbEntity
  8
BAOCHAY
 62
7
 48
2000.0
100
AcDbLine
 10
2220.96672011426
 20
1585.3230559366602
 30
0.0
 11
2220.96672011426
 21
1590.725302776731
 31
0.0
  0
LINE
  5
13C
330
17
100
AcDbEntity
  8
BAOCHAY
 62
7
 48
2000.0
100
AcDbLine
 10
2222.0471694830594
 20
1594.776987906951
 30
0.0
 11
2225.828742271089
 21
1594.776987906951
 31
0.0
  0
LINE
  5
13D
330
17
100
AcDbEntity
  8
BAOCHAY
 62
7
 48
2000.0
100
AcDbLine
 10
2225.828742271089
 20
1594.776987906951
 30
0.0
 11
2220.96672011426
 21
1585.3230559366602
 31
0.0
  0
ARC
  5
13E
330
17
100
AcDbEntity
  8
BAOCHAY
 62
7
 48
2000.0
100
AcDbCircle
 10
2220.96672011426
 20
1591.8057521446008
 30
0.0
 40
1.080449368030645
100
AcDbArc
 50
270.0
 51
0.0
  0
LINE
  5
13F
330
17
100
AcDbEntity
  8
BAOCHAY
 62
7
 48
2000.0
100
AcDbLine
 10
2222.0471694830594
 20
1602.0700211410312
 30
0.0
 11
2224.20806821881
 21
1602.0700211410312
 31
0.0
  0
LINE
  5
140
330
17
100
AcDbEntity
  8
BAOCHAY
 62
7
 48
2000.0
100
AcDbLine
 10
2221.77705714086
 20
1584.5127189105297
 30
0.0
 11
2221.77705714086
 21
1584.5127189105297
 31
0.0
  0
ARC
  5
141
330
17
100
AcDbEntity
  8
BAOCHAY
 62
7
 48
2000.0
100
AcDbCircle
 10
2220.96672011426
 20
1584.5127189105297
 30
0.0
 40
0.8103370260229841
100
AcDbArc
 50
270.0
 51
0.0
  0
ARC
  5
142
330
17
100
AcDbEntity
  8
BAOCHAY
 62
7
 48
2000.0
100
AcDbCircle
 10
2220.96672011426
 20
1584.5127189105297
 30
0.0
 40
0.8103370260229841
100
AcDbArc
 50
0.0
 51
90.0
  0
LINE
  5
143
330
17
100
AcDbEntity
  8
BAOCHAY
 62
7
 48
2000.0
100
AcDbLine
 10
2179.9096441294805
 20
1590.725302776731
 30
0.0
 11
2220.96672011426
 21
1590.725302776731
 31
0.0
  0
LINE
  5
144
330
17
100
AcDbEntity
  8
BAOCHAY
 62
7
 48
2000.0
100
AcDbLine
 10
2179.9096441294805
 20
1585.3230559366602
 30
0.0
 11
2220.96672011426
 21
1585.3230559366602
 31
0.0
  0
LINE
  5
145
330
17
100
AcDbEntity
  8
BAOCHAY
 62
7
 48
2000.0
100
AcDbLine
 10
2179.9096441294805
 20
1583.702381884621
 30
0.0
 11
2220.96672011426
 21
1583.702381884621
 31
0.0
  0
LINE
  5
146
330
17
100
AcDbEntity
  8
BAOCHAY
 62
7
 48
2000.0
100
AcDbLine
 10
2176.6682960258604
 20
1598.82867303694
 30
0.0
 11
2224.20806821881
 21
1598.82867303694
 31
0.0
  0
LINE
  5
147
330
17
100
AcDbEntity
  8
BAOCHAY
 62
7
 48
2000.0
100
AcDbLine
 10
2189.6336884412704
 20
1490.7837362340106
 30
0.0
 11
2184.2626684613406
 21
1583.702381884621
 31
0.0
  0
LINE
  5
148
330
17
100
AcDbEntity
  8
BAOCHAY
 62
7
 48
2000.0
100
AcDbLine
 10
2211.2426758024703
 20
1490.7837362340106
 30
0.0
 11
2216.613695782409
 21
1583.702381884621
 31
0.0
  0
LINE
  5
149
330
17
100
AcDbEntity
  8
BAOCHAY
 62
7
 48
2000.0
100
AcDbLine
 10
2222.0471694830594
 20
1604.23091987724
 30
0.0
 11
2225.828742271089
 21
1604.23091987724
 31
0.0
  0
LINE
  5
14A
330
17
100
AcDbEntity
  8
BAOCHAY
 62
7
 48
2000.0
100
AcDbLine
 10
2222.0471694830594
 20
1602.0700211410312
 30
0.0
 11
2222.0471694830594
 21
1604.23091987724
 31
0.0
  0
ARC
  5
14B
330
17
100
AcDbEntity
  8
BAOCHAY
 62
7
 48
2000.0
100
AcDbCircle
 10
2225.8287422701505
 20
1596.3976619590012
 30
0.0
 40
1.620674052045968
100
AcDbArc
 50
270.0
 51
0.0
  0
ARC
  5
14C
330
17
100
AcDbEntity
  8
BAOCHAY
 62
7
 48
2000.0
100
AcDbCircle
 10
2225.8287422701505
 20
1602.6102458252008
 30
0.0
 40
1.620674052045968
100
AcDbArc
 50
0.0
 51
90.0
  0
LINE
  5
14D
330
17
100
AcDbEntity
  8
BAOCHAY
 62
7
 48
2000.0
100
AcDbLine
 10
2227.4494163215004
 20
1596.3976619590012
 30
0.0
 11
2227.4494163215004
 21
1602.6102458252008
 31
0.0
  0
LINE
  5
14E
330
17
100
AcDbEntity
  8
BAOCHAY
 62
7
 48
2000.0
100
AcDbLine
 10
2224.20806821881
 20
1598.82867303694
 30
0.0
 11
2224.20806821881
 21
1602.0700211410312
 31
0.0
  0
LINE
  5
14F
330
17
100
AcDbEntity
  8
S-CONCRETE
 62
8
100
AcDbLine
 10
2139.150694600099
 20
1560.8364571744496
 30
0.0
 11
2240.150694600099
 21
1560.8364571744496
 31
0.0
  0
LINE
  5
150
330
17
100
AcDbEntity
  8
S-CONCRETE
 62
8
100
AcDbLine
 10
2139.150694600099
 20
1559.3364571744496
 30
0.0
 11
2236.5506945995494
 21
1559.3364571744496
 31
0.0
  0
LINE
  5
151
330
17
100
AcDbEntity
  8
S-CONCRETE
 62
8
100
AcDbLine
 10
2240.150694600099
 20
1560.8364571744496
 30
0.0
 11
2139.150694600099
 21
1518.7531238411102
 31
0.0
  0
LINE
  5
152
330
17
100
AcDbEntity
  8
BAOCHAY
 62
7
 48
2000.0
100
AcDbLine
 10
2178.829194761611
 20
1591.8057521446008
 30
0.0
 11
2178.829194761611
 21
1594.776987906951
 31
0.0
  0
LINE
  5
153
330
17
100
AcDbEntity
  8
BAOCHAY
 62
7
 48
2000.0
100
AcDbLine
 10
2179.90964413041
 20
1585.3230559366602
 30
0.0
 11
2179.90964413041
 21
1590.725302776731
 31
0.0
  0
LINE
  5
154
330
17
100
AcDbEntity
  8
BAOCHAY
 62
7
 48
2000.0
100
AcDbLine
 10
2178.829194761611
 20
1594.776987906951
 30
0.0
 11
2175.04762197359
 21
1594.776987906951
 31
0.0
  0
LINE
  5
155
330
17
100
AcDbEntity
  8
BAOCHAY
 62
7
 48
2000.0
100
AcDbLine
 10
2175.04762197359
 20
1594.776987906951
 30
0.0
 11
2179.90964413041
 21
1585.3230559366602
 31
0.0
  0
ARC
  5
156
330
17
100
AcDbEntity
  8
BAOCHAY
 62
7
 48
2000.0
100
AcDbCircle
 10
2179.90964413041
 20
1591.8057521446008
 30
0.0
 40
1.080449368030645
100
AcDbArc
 50
180.0
 51
270.0
  0
LINE
  5
157
330
17
100
AcDbEntity
  8
BAOCHAY
 62
7
 48
2000.0
100
AcDbLine
 10
2178.829194761611
 20
1602.0700211410312
 30
0.0
 11
2176.6682960258604
 21
1602.0700211410312
 31
0.0
  0
LINE
  5
158
330
17
100
AcDbEntity
  8
BAOCHAY
 62
7
 48
2000.0
100
AcDbLine
 10
2179.09930710381
 20
1584.5127189105297
 30
0.0
 11
2179.09930710381
 21
1584.5127189105297
 31
0.0
  0
ARC
  5
159
330
17
100
AcDbEntity
  8
BAOCHAY
 62
7
 48
2000.0
100
AcDbCircle
 10
2179.90964413041
 20
1584.5127189105297
 30
0.0
 40
0.8103370260229841
100
AcDbArc
 50
180.0
 51
270.0
  0
ARC
  5
15A
330
17
100
AcDbEntity
  8
BAOCHAY
 62
7
 48
2000.0
100
AcDbCircle
 10
2179.90964413041
 20
1584.5127189105297
 30
0.0
 40
0.8103370260229841
100
AcDbArc
 50
90.0
 51
180.0
  0
LINE
  5
15B
330
17
100
AcDbEntity
  8
BAOCHAY
 62
7
 48
2000.0
100
AcDbLine
 10
2178.829194761611
 20
1604.23091987724
 30
0.0
 11
2175.04762197359
 21
1604.23091987724
 31
0.0
  0
LINE
  5
15C
330
17
100
AcDbEntity
  8
BAOCHAY
 62
7
 48
2000.0
100
AcDbLine
 10
2178.829194761611
 20
1602.0700211410312
 30
0.0
 11
2178.829194761611
 21
1604.23091987724
 31
0.0
  0
ARC
  5
15D
330
17
100
AcDbEntity
  8
BAOCHAY
 62
7
 48
2000.0
100
AcDbCircle
 10
2175.0476219745196
 20
1596.3976619590012
 30
0.0
 40
1.620674052045968
100
AcDbArc
 50
180.0
 51
270.0
  0
ARC
  5
15E
330
17
100
AcDbEntity
  8
BAOCHAY
 62
7
 48
2000.0
100
AcDbCircle
 10
2175.0476219745196
 20
1602.6102458252008
 30
0.0
 40
1.620674052045968
100
AcDbArc
 50
90.0
 51
180.0
  0
LINE
  5
15F
330
17
100
AcDbEntity
  8
BAOCHAY
 62
7
 48
2000.0
100
AcDbLine
 10
2173.42694792317
 20
1596.3976619590012
 30
0.0
 11
2173.42694792317
 21
1602.6102458252008
 31
0.0
  0
LINE
  5
160
330
17
100
AcDbEntity
  8
BAOCHAY
 62
7
 48
2000.0
100
AcDbLine
 10
2176.6682960258604
 20
1598.82867303694
 30
0.0
 11
2176.6682960258604
 21
1602.0700211410312
 31
0.0
  0
LINE
  5
161
330
17
100
AcDbEntity
  8
0
 62
7
100
AcDbLine
 10
2195.0359352815703
 20
1440.8786149972002
 30
0.0
 11
2205.8404289621703
 21
1440.8786149972002
 31
0.0
  0
LINE
  5
162
330
17
100
AcDbEntity
  8
0
 62
7
100
AcDbLine
 10
1235.7580896733598
 20
1690.8364571744496
 30
0.0
 11
1693.7580896733598
 21
1690.8364571744496
 31
0.0
  0
LINE
  5
163
330
17
100
AcDbEntity
  8
0
 62
7
100
AcDbLine
 10
1235.7580896733598
 20
1670.8364571744496
 30
0.0
 11
1693.7580896733598
 21
1670.8364571744496
 31
0.0
  0
LINE
  5
164
330
17
100
AcDbEntity
  8
0
 62
7
100
AcDbLine
 10
1215.7580896733598
 20
2189.8364571744496
 30
0.0
 11
1235.7580896733598
 21
2169.8364571744496
 31
0.0
  0
LINE
  5
165
330
17
100
AcDbEntity
  8
0
 62
7
100
AcDbLine
 10
1693.7580896733598
 20
2169.8364571744496
 30
0.0
 11
1713.7580896733598
 21
2189.8364571744496
 31
0.0
  0
LINE
  5
166
330
17
100
AcDbEntity
  8
0
 62
7
100
AcDbLine
 10
1693.7580896733598
 20
1111.8364571744496
 30
0.0
 11
1713.7580896733598
 21
1091.8364571744496
 31
0.0
  0
LINE
  5
167
330
17
100
AcDbEntity
  8
0
 62
7
100
AcDbLine
 10
1235.7580896733598
 20
1111.8364571744496
 30
0.0
 11
1215.7580896733598
 21
1091.8364571744496
 31
0.0
  0
MTEXT
  5
168
330
17
100
AcDbEntity
  8
0
 62
2
100
AcDbMText
 10
735.620183915189
 20
392.5743139926799
 30
0.0
 40
25.0
 41
825.0000000000146
 46
100.0000000000031
 71
5
 72
5
  1
Mặt cắt ngang tủ
  0
DIMENSION
  5
169
330
17
100
AcDbEntity
  8
DIM
 62
7
100
AcDbDimension
280
0
  2
*D12
  3
Dim-25
 10
1714.7580896733598
 20
2267.138186913631
 30
0.0
 11
1464.7580896733598
 21
2289.9025116066696
 31
0.0
 70
32
 71
5
 42
500.0
 73
0
 74
0
 75
0
100
AcDbAlignedDimension
 13
1214.7580896733598
 23
2190.8364571744496
 33
0.0
 14
1714.7580896733598
 24
2190.8364571744496
 34
0.0
 50
0.0
100
AcDbRotatedDimension
  0
DIMENSION
  5
16A
330
17
100
AcDbEntity
  8
DIM
 62
7
100
AcDbDimension
280
0
  2
*D13
  3
Dim-25
 10
1103.4887733121395
 20
1090.8364571744496
 30
0.0
 11
1080.7244486190993
 21
1640.8364571744496
 31
0.0
 70
32
 71
5
 42
1100.0
 73
0
 74
0
 75
0
100
AcDbAlignedDimension
 13
1214.7580896733598
 23
2190.8364571744496
 33
0.0
 14
1214.7580896733598
 24
1090.8364571744496
 34
0.0
 50
90.0
100
AcDbRotatedDimension
  0
LWPOLYLINE
  5
16B
330
17
100
AcDbEntity
  8
0
 62
7
100
AcDbPolyline
 90
12
 70
1
 10
2621.678556846089
 20
859.8093595871906
 10
2621.678556846089
 20
838.8093595871906
 10
2648.678556846089
 20
838.8093595871906
 10
2648.678556846089
 20
858.8093595871906
 10
2669.678556846089
 20
858.8093595871906
 10
2669.678556846089
 20
859.8093595871906
 10
2647.678556846089
 20
859.8093595871906
 10
2647.678556846089
 20
839.8093595871906
 10
2622.678556846089
 20
839.8093595871906
 10
2622.678556846089
 20
858.8093595871906
 10
2622.678556846089
 20
858.8093595871906
 10
2622.678556846089
 20
859.8093595871906
  0
LWPOLYLINE
  5
16C
330
17
100
AcDbEntity
  8
0
 62
7
100
AcDbPolyline
 90
12
 70
1
 10
3133.678556846089
 20
855.8093595871906
 10
3143.678556846089
 20
855.8093595871906
 10
3143.678556846089
 20
839.8093595871906
 10
2651.678556846089
 20
839.8093595871906
 10
2651.678556846089
 20
855.8093595871906
 10
2661.678556846089
 20
855.8093595871906
 10
2661.678556846089
 20
856.8093595871906
 10
2650.678556846089
 20
856.8093595871906
 10
2650.678556846089
 20
838.8093595871906
 10
3144.678556846089
 20
838.8093595871906
 10
3144.678556846089
 20
856.8093595871906
 10
3133.678556846089
 20
856.8093595871906
  0
LWPOLYLINE
  5
16D
330
17
100
AcDbEntity
  8
0
 62
7
100
AcDbPolyline
 90
12
 70
1
 10
3173.678556846089
 20
859.8093595871906
 10
3173.678556846089
 20
838.8093595871906
 10
3146.678556846089
 20
838.8093595871906
 10
3146.678556846089
 20
858.8093595871906
 10
3125.678556846089
 20
858.8093595871906
 10
3125.678556846089
 20
859.8093595871906
 10
3147.678556846089
 20
859.8093595871906
 10
3147.678556846089
 20
839.8093595871906
 10
3172.678556846089
 20
839.8093595871906
 10
3172.678556846089
 20
858.8093595871906
 10
3172.678556846089
 20
858.8093595871906
 10
3172.678556846089
 20
859.8093595871906
  0
CIRCLE
  5
16E
330
17
100
AcDbEntity
  8
0
 62
2
100
AcDbCircle
 10
3139.401280366279
 20
844.3093595871906
 30
0.0
 40
4.0
  0
LINE
  5
16F
330
17
100
AcDbEntity
  8
0
 62
1
100
AcDbLine
 10
3140.401280366279
 20
839.8093595871906
 30
0.0
 11
3121.901280366279
 21
839.8093595871906
 31
0.0
  0
LINE
  5
170
330
17
100
AcDbEntity
  8
0
 62
1
100
AcDbLine
 10
3120.901280366279
 20
841.3132207732597
 30
0.0
 11
3139.2491218711493
 21
841.3132207732597
 31
0.0
  0
ARC
  5
171
330
17
100
AcDbEntity
  8
0
 62
1
100
AcDbCircle
 10
3139.401280366279
 20
844.3093595871906
 30
0.0
 40
4.5
100
AcDbArc
 50
270.0
 51
318.1896851045436
  0
ARC
  5
172
330
17
100
AcDbEntity
  8
0
 62
1
100
AcDbCircle
 10
3139.401280366279
 20
844.3093595871906
 30
0.0
 40
4.5
100
AcDbArc
 50
41.81031489545643
 51
193.430132034149
  0
ARC
  5
173
330
17
100
AcDbEntity
  8
0
 62
1
100
AcDbCircle
 10
3139.401280366279
 20
844.3093595871906
 30
0.0
 40
3.0
100
AcDbArc
 50
267.0927394226811
 51
270.0
  0
ARC
  5
174
330
17
100
AcDbEntity
  8
0
 62
1
100
AcDbCircle
 10
3139.401280366279
 20
844.3093595871906
 30
0.0
 40
3.0
100
AcDbArc
 50
90.0
 51
193.430132034149
  0
LINE
  5
175
330
17
100
AcDbEntity
  8
0
 62
1
100
AcDbLine
 10
3135.0243379660096
 20
843.2641920289898
 30
0.0
 11
3136.4833187660806
 21
843.6125812150603
 31
0.0
  0
LINE
  5
176
330
17
100
AcDbEntity
  8
0
 62
1
100
AcDbLine
 10
3120.901280366279
 20
841.3132207732597
 30
0.0
 11
3120.901280366279
 21
839.8093595871906
 31
0.0
  0
MTEXT
  5
177
330
17
100
AcDbEntity
  8
0
 62
2
100
AcDbMText
 10
2884.9937266901507
 20
393.5743139926799
 30
0.0
 40
25.0
 41
775.0000000000146
 46
100.0000000000031
 71
5
 72
5
  1
Mặt cắt ngang tủ
  0
DIMENSION
  5
178
330
17
100
AcDbEntity
  8
DIM
 62
7
100
AcDbDimension
280
0
  2
*D14
  3
Dim-25
 10
2049.3842313803907
 20
1090.8364571744496
 30
0.0
 11
2026.6199066873396
 21
1325.8364571744496
 31
0.0
 70
32
 71
5
 42
470.0
 73
0
 74
0
 75
0
100
AcDbAlignedDimension
 13
2140.150694600099
 23
1560.8364571744496
 33
0.0
 14
2139.150694600099
 24
1090.8364571744496
 34
0.0
 50
90.0
100
AcDbRotatedDimension
  0
LINE
  5
179
330
17
100
AcDbEntity
  8
0
  6
HIDDEN2
 62
7
100
AcDbLine
 10
1693.7580896733598
 20
1690.8364571744496
 30
0.0
 11
1713.7580896733598
 21
1690.8364571744496
 31
0.0
  0
LINE
  5
17A
330
17
100
AcDbEntity
  8
0
  6
HIDDEN2
 62
7
100
AcDbLine
 10
1693.7580896733598
 20
1670.8364571744496
 30
0.0
 11
1713.7580896733598
 21
1670.8364571744496
 31
0.0
  0
LINE
  5
17B
330
17
100
AcDbEntity
  8
0
  6
HIDDEN2
 62
7
100
AcDbLine
 10
1235.7580896733598
 20
1690.8364571744496
 30
0.0
 11
1215.7580896733598
 21
1690.8364571744496
 31
0.0
  0
LINE
  5
17C
330
17
100
AcDbEntity
  8
0
  6
HIDDEN2
 62
7
100
AcDbLine
 10
1235.7580896733598
 20
1670.8364571744496
 30
0.0
 11
1215.7580896733598
 21
1670.8364571744496
 31
0.0
  0
DIMENSION
  5
17D
330
17
100
AcDbEntity
  8
DIM
 62
7
100
AcDbDimension
280
0
  2
*D15
  3
Dim-25
 10
196.35616424466025
 20
1064.8364571744496
 30
0.0
 11
173.59183955160916
 21
1640.8364571744405
 31
0.0
 70
32
 71
5
 42
1152.0
 73
0
 74
0
 75
0
100
AcDbAlignedDimension
 13
447.30501407112934
 23
2216.8364571744496
 33
0.0
 14
447.30501407112934
 24
1064.8364571744496
 34
0.0
 50
90.0
100
AcDbRotatedDimension
  0
LINE
  5
17E
330
17
100
AcDbEntity
  8
0
  6
HIDDENX2
 62
7
100
AcDbLine
 10
604.3050140711293
 20
2059.8364571744496
 30
0.0
 11
634.3050140711293
 21
2029.8364571744496
 31
0.0
  0
LINE
  5
17F
330
17
100
AcDbEntity
  8
0
  6
HIDDENX2
 62
7
100
AcDbLine
 10
862.3050140711093
 20
2029.8364571744496
 30
0.0
 11
892.3050140711093
 21
2059.8364571744496
 31
0.0
  0
LINE
  5
180
330
17
100
AcDbEntity
  8
0
  6
HIDDENX2
 62
7
100
AcDbLine
 10
634.3050140711293
 20
1251.8364571744496
 30
0.0
 11
604.3050140711293
 21
1221.8364571744496
 31
0.0
  0
LINE
  5
181
330
17
100
AcDbEntity
  8
0
  6
HIDDENX2
 62
7
100
AcDbLine
 10
862.3050140711402
 20
1251.8364571744496
 30
0.0
 11
892.3050140711402
 21
1221.8364571744496
 31
0.0
  0
LINE
  5
182
330
17
100
AcDbEntity
  8
0
 62
7
100
AcDbLine
 10
469.30501407112934
 20
546.8475682571207
 30
0.0
 11
469.30501407112934
 21
554.8475682571207
 31
0.0
  0
LINE
  5
183
330
17
100
AcDbEntity
  8
0
 62
7
100
AcDbLine
 10
469.30501407112934
 20
554.8475682571207
 30
0.0
 11
470.30501407112934
 21
554.8475682571207
 31
0.0
  0
LINE
  5
184
330
17
100
AcDbEntity
  8
0
 62
7
100
AcDbLine
 10
470.30501407112934
 20
554.8475682571207
 30
0.0
 11
470.30501407112934
 21
545.8475682571207
 31
0.0
  0
LINE
  5
185
330
17
100
AcDbEntity
  8
0
 62
7
100
AcDbLine
 10
977.3050140711293
 20
546.8475682571207
 30
0.0
 11
977.3050140711293
 21
554.8475682571207
 31
0.0
  0
LINE
  5
186
330
17
100
AcDbEntity
  8
0
 62
7
100
AcDbLine
 10
977.3050140711293
 20
554.8475682571207
 30
0.0
 11
976.3050140711293
 21
554.8475682571207
 31
0.0
  0
LINE
  5
187
330
17
100
AcDbEntity
  8
0
 62
7
100
AcDbLine
 10
976.3050140711293
 20
554.8475682571207
 30
0.0
 11
976.3050140711293
 21
545.8475682571207
 31
0.0
  0
LWPOLYLINE
  5
188
330
17
100
AcDbEntity
  8
0
 62
7
100
AcDbPolyline
 90
4
 70
0
 10
2317.150694600099
 20
2169.8364571744496
 10
2309.150694600099
 20
2169.8364571744496
 10
2309.150694600099
 20
2168.8364571744496
 10
2318.150694600099
 20
2168.8364571744496
  0
LWPOLYLINE
  5
189
330
17
100
AcDbEntity
  8
0
 62
7
100
AcDbPolyline
 90
4
 70
0
 10
2317.150694600099
 20
1111.8364571744496
 10
2309.150694600099
 20
1111.8364571744496
 10
2309.150694600099
 20
1112.8364571744496
 10
2318.150694600099
 20
1112.8364571744496
  0
LWPOLYLINE
  5
18A
330
17
100
AcDbEntity
  8
0
 62
7
100
AcDbPolyline
 90
4
 70
1
 10
2621.678556846089
 20
1089.8364571744496
 10
3173.678556846089
 20
1089.8364571744496
 10
3173.678556846089
 20
2191.8364571744496
 10
2621.678556846089
 20
2191.8364571744496
  0
LWPOLYLINE
  5
18B
330
17
100
AcDbEntity
  8
0
  6
HIDDENX2
 62
7
100
AcDbPolyline
 90
4
 70
1
 10
2622.678556846089
 20
1090.8364571744496
 10
3172.678556846089
 20
1090.8364571744496
 10
3172.678556846089
 20
2190.8364571744496
 10
2622.678556846089
 20
2190.8364571744496
  0
LWPOLYLINE
  5
18C
330
17
100
AcDbEntity
  8
0
 62
7
100
AcDbPolyline
 90
4
 70
1
 10
2648.678556846089
 20
1116.8364571744496
 10
3146.678556846089
 20
1116.8364571744496
 10
3146.678556846089
 20
2164.8364571744496
 10
2648.678556846089
 20
2164.8364571744496
  0
LWPOLYLINE
  5
18D
330
17
100
AcDbEntity
  8
0
  6
HIDDENX2
 62
6
100
AcDbPolyline
 90
4
 70
1
 10
2650.678556846089
 20
1118.8364571744496
 10
3144.678556846089
 20
1118.8364571744496
 10
3144.678556846089
 20
2162.8364571744496
 10
2650.678556846089
 20
2162.8364571744496
  0
LWPOLYLINE
  5
18E
330
17
100
AcDbEntity
  8
0
 62
6
100
AcDbPolyline
 90
4
 70
1
 10
2649.678556846089
 20
1117.8364571744496
 10
3145.678556846089
 20
1117.8364571744496
 10
3145.678556846089
 20
2163.8364571744496
 10
2649.678556846089
 20
2163.8364571744496
  0
LWPOLYLINE
  5
18F
330
17
100
AcDbEntity
  8
0
 62
7
100
AcDbPolyline
 90
4
 70
1
 10
2668.678556846089
 20
1136.8364571744496
 10
3126.678556846089
 20
1136.8364571744496
 10
3126.678556846089
 20
2144.8364571744496
 10
2668.678556846089
 20
2144.8364571744496
  0
MTEXT
  5
190
330
17
100
AcDbEntity
  8
0
 62
2
100
AcDbMText
 10
2884.9937266901507
 20
1055.3534883635311
 30
0.0
 40
25.0
 41
725.0000000000146
 46
100.0000000000031
 71
5
 72
5
  1
Bên trong tủ
  0
DIMENSION
  5
191
330
17
100
AcDbEntity
  8
DIM
 62
7
100
AcDbDimension
280
0
  2
*D16
  3
Dim-25
 10
3173.678556846089
 20
2272.108581134571
 30
0.0
 11
2897.678556846089
 21
2294.8729058276112
 31
0.0
 70
32
 71
5
 42
552.0
 73
0
 74
0
 75
0
100
AcDbAlignedDimension
 13
2621.678556846089
 23
2191.8364571744496
 33
0.0
 14
3173.678556846089
 24
2191.8364571744496
 34
0.0
 50
0.0
100
AcDbRotatedDimension
  0
DIMENSION
  5
192
330
17
100
AcDbEntity
  8
DIM
 62
7
100
AcDbDimension
280
0
  2
*D17
  3
Dim-25
 10
2509.887429728069
 20
1089.8364571744496
 30
0.0
 11
2487.1231050350307
 21
1640.8364571744496
 31
0.0
 70
32
 71
5
 42
1102.0
 73
0
 74
0
 75
0
100
AcDbAlignedDimension
 13
2621.678556846089
 23
2191.8364571744496
 33
0.0
 14
2621.678556846089
 24
1089.8364571744496
 34
0.0
 50
90.0
100
AcDbRotatedDimension
  0
LINE
  5
193
330
17
100
AcDbEntity
  8
0
 62
7
100
AcDbLine
 10
2648.678556846089
 20
1116.8364571744496
 30
0.0
 11
2668.678556846089
 21
1136.8364571744496
 31
0.0
  0
LWPOLYLINE
  5
194
330
17
100
AcDbEntity
  8
0
 62
7
100
AcDbPolyline
 90
6
 70
0
 10
1236.7580896733598
 20
531.0191590602299
 10
1214.7580896733598
 20
531.0191590602299
 10
1214.7580896733598
 20
710.0191590602299
 10
1764.7580896733598
 20
710.0191590602299
 10
1764.7580896733598
 20
531.0191590602299
 10
1742.7580896733598
 20
531.0191590602299
  0
LWPOLYLINE
  5
195
330
17
100
AcDbEntity
  8
0
 62
7
100
AcDbPolyline
 90
6
 70
0
 10
1743.7580896733598
 20
532.0191590602299
 10
1763.7580896733598
 20
532.0191590602299
 10
1763.7580896733598
 20
709.0191590602299
 10
1215.7580896733598
 20
709.0191590602299
 10
1215.7580896733598
 20
532.0191590602299
 10
1235.7580896733598
 20
532.0191590602208
  0
LWPOLYLINE
  5
196
330
17
100
AcDbEntity
  8
0
 62
7
100
AcDbPolyline
 90
12
 70
1
 10
1188.7580896733598
 20
531.0191590602299
 10
1188.7580896733598
 20
510.01915906022987
 10
1215.7580896733598
 20
510.01915906022987
 10
1215.7580896733598
 20
530.0191590602299
 10
1236.7580896733598
 20
530.0191590602299
 10
1236.7580896733598
 20
531.0191590602299
 10
1214.7580896733598
 20
531.0191590602299
 10
1214.7580896733598
 20
511.01915906022987
 10
1189.7580896733598
 20
511.01915906022987
 10
1189.7580896733598
 20
530.0191590602299
 10
1189.7580896733598
 20
530.0191590602299
 10
1189.7580896733598
 20
531.0191590602299
  0
LWPOLYLINE
  5
197
330
17
100
AcDbEntity
  8
0
 62
7
100
AcDbPolyline
 90
12
 70
1
 10
1752.7580896733598
 20
527.0191590602299
 10
1762.7580896733598
 20
527.0191590602299
 10
1762.7580896733598
 20
511.01915906022987
 10
1216.7580896733598
 20
511.01915906022987
 10
1216.7580896733598
 20
527.0191590602299
 10
1226.7580896733598
 20
527.0191590602299
 10
1226.7580896733598
 20
528.0191590602299
 10
1215.7580896733598
 20
528.0191590602299
 10
1215.7580896733598
 20
510.01915906022987
 10
1763.7580896733598
 20
510.01915906022987
 10
1763.7580896733598
 20
528.0191590602299
 10
1752.7580896733598
 20
528.0191590602299
  0
LWPOLYLINE
  5
198
330
17
100
AcDbEntity
  8
0
 62
7
100
AcDbPolyline
 90
12
 70
1
 10
1790.7580896733598
 20
531.0191590602299
 10
1790.7580896733598
 20
510.01915906022987
 10
1763.7580896733598
 20
510.01915906022987
 10
1763.7580896733598
 20
530.0191590602299
 10
1742.7580896733598
 20
530.0191590602299
 10
1742.7580896733598
 20
531.0191590602299
 10
1764.7580896733598
 20
531.0191590602299
 10
1764.7580896733598
 20
511.01915906022987
 10
1789.7580896733598
 20
511.01915906022987
 10
1789.7580896733598
 20
530.0191590602299
 10
1789.7580896733598
 20
530.0191590602299
 10
1789.7580896733598
 20
531.0191590602299
  0
CIRCLE
  5
199
330
17
100
AcDbEntity
  8
0
 62
2
100
AcDbCircle
 10
1758.4808131935406
 20
515.5191590602299
 30
0.0
 40
4.0
  0
LINE
  5
19A
330
17
100
AcDbEntity
  8
0
 62
1
100
AcDbLine
 10
1758.4808131935406
 20
511.01915906022987
 30
0.0
 11
1739.9808131935406
 21
511.01915906022987
 31
0.0
  0
LINE
  5
19B
330
17
100
AcDbEntity
  8
0
 62
1
100
AcDbLine
 10
1739.9808131935406
 20
512.5230202462899
 30
0.0
 11
1758.32865469842
 21
512.5230202462899
 31
0.0
  0
ARC
  5
19C
330
17
100
AcDbEntity
  8
0
 62
1
100
AcDbCircle
 10
1758.4808131935406
 20
515.5191590602299
 30
0.0
 40
4.5
100
AcDbArc
 50
270.0
 51
318.1896851045436
  0
ARC
  5
19D
330
17
100
AcDbEntity
  8
0
 62
1
100
AcDbCircle
 10
1758.4808131935406
 20
515.5191590602299
 30
0.0
 40
4.5
100
AcDbArc
 50
41.81031489545643
 51
193.430132034149
  0
ARC
  5
19E
330
17
100
AcDbEntity
  8
0
 62
1
100
AcDbCircle
 10
1758.4808131935406
 20
515.5191590602299
 30
0.0
 40
3.0
100
AcDbArc
 50
267.0927394226811
 51
270.0
  0
ARC
  5
19F
330
17
100
AcDbEntity
  8
0
 62
1
100
AcDbCircle
 10
1758.4808131935406
 20
515.5191590602299
 30
0.0
 40
3.0
100
AcDbArc
 50
90.0
 51
193.430132034149
  0
LINE
  5
1A0
330
17
100
AcDbEntity
  8
0
 62
1
100
AcDbLine
 10
1754.1038707932694
 20
514.4739915020309
 30
0.0
 11
1755.5628515933495
 21
514.8223806880906
 31
0.0
  0
LINE
  5
1A1
330
17
100
AcDbEntity
  8
0
 62
1
100
AcDbLine
 10
1739.9808131935406
 20
512.5230202462899
 30
0.0
 11
1739.9808131935406
 21
511.01915906022987
 31
0.0
  0
ARC
  5
1A2
330
17
100
AcDbEntity
  8
0
 62
1
100
AcDbCircle
 10
1758.4808131935406
 20
515.5191590602299
 30
0.0
 40
3.0
100
AcDbArc
 50
90.0
 51
270.0
  0
LINE
  5
1A3
330
17
100
AcDbEntity
  8
0
 62
1
100
AcDbLine
 10
1758.4808131935406
 20
512.5191590602299
 30
0.0
 11
1764.7580896733598
 21
512.5191590602299
 31
0.0
  0
LINE
  5
1A4
330
17
100
AcDbEntity
  8
0
 62
1
100
AcDbLine
 10
1758.4808131935406
 20
518.5191590602299
 30
0.0
 11
1764.7580896733598
 21
518.5191590602299
 31
0.0
  0
LINE
  5
1A5
330
17
100
AcDbEntity
  8
0
 62
7
100
AcDbLine
 10
1742.7580896733598
 20
532.0191590602299
 30
0.0
 11
1742.7580896733598
 21
531.0191590602299
 31
0.0
  0
DIMENSION
  5
1A6
330
17
100
AcDbEntity
  8
DIM
 62
7
100
AcDbDimension
280
0
  2
*D18
  3
Dim-25
 10
1764.7580896733598
 20
838.1492267487301
 30
0.0
 11
1489.7580896733598
 21
860.9135514417703
 31
0.0
 70
32
 71
5
 42
550.0
 73
0
 74
0
 75
0
100
AcDbAlignedDimension
 13
1214.7580896733598
 23
710.0191590602299
 33
0.0
 14
1764.7580896733598
 24
710.0191590602299
 34
0.0
 50
0.0
100
AcDbRotatedDimension
  0
DIMENSION
  5
1A7
330
17
100
AcDbEntity
  8
DIM
 62
7
100
AcDbDimension
280
0
  2
*D19
  3
Dim-25
 10
1921.1122092235892
 20
510.01915906022987
 30
0.0
 11
1898.34788453054
 21
610.0191590602299
 31
0.0
 70
32
 71
5
 42
200.0
 73
0
 74
0
 75
0
100
AcDbAlignedDimension
 13
1764.7580896733598
 23
710.0191590602299
 33
0.0
 14
1790.7580896733598
 24
510.01915906022987
 34
0.0
 50
90.0
100
AcDbRotatedDimension
  0
DIMENSION
  5
1A8
330
17
100
AcDbEntity
  8
DIM
 62
7
100
AcDbDimension
280
0
  2
*D20
  3
Dim-25
 10
1790.7580896733598
 20
422.23904688108087
 30
0.0
 11
1489.7580896733598
 21
445.00337157412105
 31
0.0
 70
32
 71
5
 42
602.0
 73
0
 74
0
 75
0
100
AcDbAlignedDimension
 13
1188.7580896733598
 23
510.01915906022987
 33
0.0
 14
1790.7580896733598
 24
510.01915906022987
 34
0.0
 50
0.0
100
AcDbRotatedDimension
  0
MTEXT
  5
1A9
330
17
100
AcDbEntity
  8
0
 62
2
100
AcDbMText
 10
1502.0732595174195
 20
377.74590479578
 30
0.0
 40
25.0
 41
775.0000000000146
 46
100.0000000000031
 71
5
 72
5
  1
Mặt cắt ngang tủ
  0
LWPOLYLINE
  5
1AA
330
17
100
AcDbEntity
  8
0
 62
7
100
AcDbPolyline
 90
4
 70
1
 10
1391.7580896733598
 20
614.0191590602299
 10
1291.7580896733598
 20
614.0191590602299
 10
1291.7580896733598
 20
709.0191590602299
 10
1391.7580896733598
 20
709.0191590602299
  0
CIRCLE
  5
1AB
330
17
100
AcDbEntity
  8
0
 62
2
100
AcDbCircle
 10
1341.7580896733598
 20
654.0191590602299
 30
0.0
 40
25.0
  0
DIMENSION
  5
1AC
330
17
100
AcDbEntity
  8
DIM
 62
7
100
AcDbDimension
280
0
  2
*D21
  3
Dim-25
 10
1214.7580896733598
 20
786.8938065400598
 30
0.0
 11
1253.2580896733598
 21
809.3938065400598
 31
0.0
 70
32
 71
5
 42
77.0
 73
0
 74
0
 75
0
100
AcDbAlignedDimension
 13
1291.7580896733598
 23
614.0191590602299
 33
0.0
 14
1214.7580896733598
 24
710.0191590602299
 34
0.0
 50
180.0
100
AcDbRotatedDimension
  0
DIMENSION
  5
1AD
330
17
100
AcDbEntity
  8
DIM
 62
7
100
AcDbDimension
280
0
  2
*D22
  3
Dim-25
 10
1317.52082023611
 20
660.1473537557504
 30
0.0
 11
1467.3275901095294
 21
622.2699412498496
 31
0.0
 70
163
 71
5
 42
49.99999999999272
 73
0
 74
0
 75
0
100
AcDbDiametricDimension
 15
1365.9953591106005
 25
647.8909643647112
 35
0.0
 40
0.0
  0
LINE
  5
1AE
330
17
100
AcDbEntity
  8
0
 62
7
100
AcDbLine
 10
1742.7580896733598
 20
532.0191590602299
 30
0.0
 11
1742.7580896733598
 21
531.0191590602299
 31
0.0
  0
LINE
  5
1AF
330
17
100
AcDbEntity
  8
0
 62
7
100
AcDbLine
 10
1235.7580896733598
 20
532.0191590602208
 30
0.0
 11
1235.7580896733598
 21
540.0191590602208
 31
0.0
  0
LINE
  5
1B0
330
17
100
AcDbEntity
  8
0
 62
7
100
AcDbLine
 10
1235.7580896733598
 20
540.0191590602208
 30
0.0
 11
1236.7580896733598
 21
540.0191590602208
 31
0.0
  0
LINE
  5
1B1
330
17
100
AcDbEntity
  8
0
 62
7
100
AcDbLine
 10
1236.7580896733598
 20
540.0191590602208
 30
0.0
 11
1236.7580896733598
 21
531.0191590602299
 31
0.0
  0
LINE
  5
1B2
330
17
100
AcDbEntity
  8
0
 62
7
100
AcDbLine
 10
1743.7580896733598
 20
532.0191590602208
 30
0.0
 11
1743.7580896733598
 21
540.0191590602208
 31
0.0
  0
LINE
  5
1B3
330
17
100
AcDbEntity
  8
0
 62
7
100
AcDbLine
 10
1743.7580896733598
 20
540.0191590602208
 30
0.0
 11
1742.7580896733598
 21
540.0191590602208
 31
0.0
  0
LINE
  5
1B4
330
17
100
AcDbEntity
  8
0
 62
7
100
AcDbLine
 10
1742.7580896733598
 20
540.0191590602208
 30
0.0
 11
1742.7580896733598
 21
531.0191590602299
 31
0.0
  0
LINE
  5
1B5
330
17
100
AcDbEntity
  8
0
 62
7
100
AcDbLine
 10
2648.678556846089
 20
2164.8364571744496
 30
0.0
 11
2668.678556846089
 21
2144.8364571744496
 31
0.0
  0
LINE
  5
1B6
330
17
100
AcDbEntity
  8
0
 62
7
100
AcDbLine
 10
3126.678556846089
 20
2144.8364571744496
 30
0.0
 11
3146.678556846089
 21
2164.8364571744496
 31
0.0
  0
LINE
  5
1B7
330
17
100
AcDbEntity
  8
0
 62
7
100
AcDbLine
 10
3126.678556846089
 20
1136.8364571744496
 30
0.0
 11
3146.678556846089
 21
1116.8364571744496
 31
0.0
  0
LWPOLYLINE
  5
1B8
330
17
100
AcDbEntity
  8
0
 62
7
100
AcDbPolyline
 90
12
 70
1
 10
3330.82905479868
 20
1089.8364571744496
 10
3351.82905479868
 20
1089.8364571744496
 10
3351.82905479868
 20
1116.8364571744496
 10
3331.82905479868
 20
1116.8364571744496
 10
3331.82905479868
 20
1137.8364571744496
 10
3330.82905479868
 20
1137.8364571744496
 10
3330.82905479868
 20
1115.8364571744496
 10
3350.82905479868
 20
1115.8364571744496
 10
3350.82905479868
 20
1090.8364571744496
 10
3331.82905479868
 20
1090.8364571744496
 10
3331.82905479868
 20
1090.8364571744496
 10
3330.82905479868
 20
1090.8364571744496
  0
LWPOLYLINE
  5
1B9
330
17
100
AcDbEntity
  8
0
 62
7
100
AcDbPolyline
 90
12
 70
1
 10
3334.82905479868
 20
2151.8364571744496
 10
3334.82905479868
 20
2161.8364571744496
 10
3350.82905479868
 20
2161.8364571744496
 10
3350.82905479868
 20
1118.8364571744496
 10
3334.82905479868
 20
1118.8364571744496
 10
3334.82905479868
 20
1128.8364571744496
 10
3333.82905479868
 20
1128.8364571744496
 10
3333.82905479868
 20
1117.8364571744496
 10
3351.82905479868
 20
1117.8364571744496
 10
3351.82905479868
 20
2162.8364571744496
 10
3333.82905479868
 20
2162.8364571744496
 10
3333.82905479868
 20
2151.8364571744496
  0
LWPOLYLINE
  5
1BA
330
17
100
AcDbEntity
  8
0
 62
7
100
AcDbPolyline
 90
12
 70
1
 10
3330.82905479868
 20
2191.8364571744496
 10
3351.82905479868
 20
2191.8364571744496
 10
3351.82905479868
 20
2164.8364571744496
 10
3331.82905479868
 20
2164.8364571744496
 10
3331.82905479868
 20
2143.8364571744496
 10
3330.82905479868
 20
2143.8364571744496
 10
3330.82905479868
 20
2165.8364571744496
 10
3350.82905479868
 20
2165.8364571744496
 10
3350.82905479868
 20
2190.8364571744496
 10
3331.82905479868
 20
2190.8364571744496
 10
3331.82905479868
 20
2190.8364571744496
 10
3330.82905479868
 20
2190.8364571744496
  0
INSERT
  5
1BB
330
17
100
AcDbEntity
  8
0
 62
7
100
AcDbBlockReference
  2
HL035-1-2
 10
3139.401280366279
 20
1102.8364571744496
 30
0.0
 41
-1.0
  0
INSERT
  5
1BD
330
17
100
AcDbEntity
  8
0
 62
7
100
AcDbBlockReference
  2
HL035-1-2
 10
3139.401280366279
 20
2178.8364571744496
 30
0.0
 50
180.0
  0
INSERT
  5
1BF
330
17
100
AcDbEntity
  8
0
 62
7
100
AcDbBlockReference
  2
HL035-1-2
 10
3346.32905479868
 20
2172.8364571744496
 30
0.0
 50
180.0
  0
LWPOLYLINE
  5
1C1
330
17
100
AcDbEntity
  8
0
 62
2
100
AcDbPolyline
 90
4
 70
1
 10
2709.178556846089
 20
1530.2720143863407
 10
2736.178556846089
 20
1530.2720143863407
 10
2736.178556846089
 20
1665.2720143863298
 10
2709.178556846089
 20
1665.2720143863298
  0
CIRCLE
  5
1C2
330
17
100
AcDbEntity
  8
0
 62
2
100
AcDbCircle
 10
654.3050140711293
 20
2047.8364571744496
 30
0.0
 40
4.0
  0
CIRCLE
  5
1C3
330
17
100
AcDbEntity
  8
0
 62
2
100
AcDbCircle
 10
842.3050140711293
 20
2047.8364571744496
 30
0.0
 40
4.0
  0
CIRCLE
  5
1C4
330
17
100
AcDbEntity
  8
0
 62
2
100
AcDbCircle
 10
654.3050140711293
 20
1233.8364571744496
 30
0.0
 40
4.0
  0
CIRCLE
  5
1C5
330
17
100
AcDbEntity
  8
0
 62
2
100
AcDbCircle
 10
842.3050140711293
 20
1233.8364571744496
 30
0.0
 40
4.0
  0
CIRCLE
  5
1C6
330
17
100
AcDbEntity
  8
0
 62
2
100
AcDbCircle
 10
616.3050140711293
 20
1271.8364571744496
 30
0.0
 40
4.0
  0
HATCH
  5
1C7
330
17
100
AcDbEntity
  8
0
 62
7
100
AcDbHatch
 10
0.0
 20
0.0
 30
0.0
210
0.0
220
0.0
230
1.0
  2
ANSI31
 70
0
 71
0
 91
1
 92
1
 93
8
 72
1
 10
2828.678556846089
 20
1256.8364571744496
 11
2966.678556846109
 21
1256.8364571744496
 72
2
 10
2966.678556846109
 20
1296.8364571744496
 40
40.0
 50
-90.00000000000001
 51
-1.4033418597069752e-14
 73
1
 72
1
 10
3006.678556846109
 20
1296.8364571744496
 11
3006.67855684608
 21
1984.8364571744405
 72
2
 10
2966.67855684608
 20
1984.8364571744405
 40
40.0
 50
0.0
 51
90.0
 73
1
 72
1
 10
2966.67855684608
 20
2024.8364571744405
 11
2828.678556846089
 21
2024.8364571744496
 72
2
 10
2828.678556846089
 20
1984.8364571744496
 40
40.0
 50
90.0
 51
180.0
 73
1
 72
1
 10
2788.678556846089
 20
1984.8364571744496
 11
2788.678556846089
 21
1296.8364571744496
 72
2
 10
2828.678556846089
 20
1296.8364571744496
 40
40.0
 50
180.0
 51
-90.00000000000001
 73
1
 97
1
330
331A0
 75
0
 76
1
 52
0.0
 41
1.0
 77
0
 78
1
 53
45.0
 43
-108410.3330965468
 44
-28006.1375075712
 45
-2.2450640303
 46
2.2450640303
 79
0
 98
1
 10
-108410.3330965468
 20
-28006.13750757123
  0
LWPOLYLINE
  5
1C8
330
17
100
AcDbEntity
  8
0
 62
7
100
AcDbPolyline
 90
8
 70
1
 10
2828.678556846089
 20
1256.8364571744496
 10
2966.678556846109
 20
1256.8364571744496
 42
0.4142135623731068
 10
3006.678556846109
 20
1296.8364571744496
 10
3006.67855684608
 20
1984.8364571744405
 42
0.4142135623730841
 10
2966.67855684608
 20
2024.8364571744405
 10
2828.678556846089
 20
2024.8364571744496
 42
0.4142135623730951
 10
2788.678556846089
 20
1984.8364571744496
 10
2788.678556846089
 20
1296.8364571744496
 42
0.4142135623730951
  0
LWPOLYLINE
  5
1C9
330
17
100
AcDbEntity
  8
0
 62
7
100
AcDbPolyline
 90
4
 70
1
 10
2775.678556846089
 20
1243.8364571744496
 10
3019.678556846109
 20
1243.8364571744496
 10
3019.67855684608
 20
2037.8364571744296
 10
2775.678556846089
 20
2037.8364571744605
  0
LWPOLYLINE
  5
1CA
330
17
100
AcDbEntity
  8
0
  6
HIDDENX2
 62
7
100
AcDbPolyline
 90
4
 70
1
 10
2753.678556846089
 20
1221.8364571744496
 10
3041.678556846109
 20
1221.8364571744496
 10
3041.67855684608
 20
2059.8364571744496
 10
2753.678556846089
 20
2059.8364571744496
  0
LWPOLYLINE
  5
1CB
330
17
100
AcDbEntity
  8
0
  6
HIDDENX2
 62
7
100
AcDbPolyline
 90
4
 70
1
 10
2783.678556846089
 20
1251.8364571744496
 10
3011.678556846109
 20
1251.8364571744496
 10
3011.67855684608
 20
2029.8364571744496
 10
2783.678556846089
 20
2029.8364571744496
  0
LINE
  5
1CC
330
17
100
AcDbEntity
  8
0
 62
7
100
AcDbLine
 10
2793.678556846089
 20
1690.8364571744496
 30
0.0
 11
3001.678556846089
 21
1690.8364571744496
 31
0.0
  0
LINE
  5
1CD
330
17
100
AcDbEntity
  8
0
 62
7
100
AcDbLine
 10
2793.678556846089
 20
1670.8364571744496
 30
0.0
 11
3001.678556846089
 21
1670.8364571744496
 31
0.0
  0
LINE
  5
1CE
330
17
100
AcDbEntity
  8
0
  6
HIDDENX2
 62
7
100
AcDbLine
 10
2753.678556846089
 20
2059.8364571744496
 30
0.0
 11
2783.678556846089
 21
2029.8364571744496
 31
0.0
  0
LINE
  5
1CF
330
17
100
AcDbEntity
  8
0
  6
HIDDENX2
 62
7
100
AcDbLine
 10
3011.67855684608
 20
2029.8364571744496
 30
0.0
 11
3041.67855684608
 21
2059.8364571744496
 31
0.0
  0
LINE
  5
1D0
330
17
100
AcDbEntity
  8
0
  6
HIDDENX2
 62
7
100
AcDbLine
 10
2783.678556846089
 20
1251.8364571744496
 30
0.0
 11
2753.678556846089
 21
1221.8364571744496
 31
0.0
  0
LINE
  5
1D1
330
17
100
AcDbEntity
  8
0
  6
HIDDENX2
 62
7
100
AcDbLine
 10
3011.678556846109
 20
1251.8364571744496
 30
0.0
 11
3041.678556846109
 21
1221.8364571744496
 31
0.0
  0
CIRCLE
  5
1D2
330
17
100
AcDbEntity
  8
0
 62
2
100
AcDbCircle
 10
2803.678556846089
 20
2047.8364571744496
 30
0.0
 40
4.0
  0
CIRCLE
  5
1D3
330
17
100
AcDbEntity
  8
0
 62
2
100
AcDbCircle
 10
2991.678556846089
 20
2047.8364571744496
 30
0.0
 40
4.0
  0
CIRCLE
  5
1D4
330
17
100
AcDbEntity
  8
0
 62
2
100
AcDbCircle
 10
2803.678556846089
 20
1233.8364571744496
 30
0.0
 40
4.0
  0
CIRCLE
  5
1D5
330
17
100
AcDbEntity
  8
0
 62
2
100
AcDbCircle
 10
2991.678556846089
 20
1233.8364571744496
 30
0.0
 40
4.0
  0
CIRCLE
  5
1D6
330
17
100
AcDbEntity
  8
0
 62
2
100
AcDbCircle
 10
2765.678556846089
 20
1281.8364571744496
 30
0.0
 40
4.0
  0
CIRCLE
  5
1D7
330
17
100
AcDbEntity
  8
0
 62
2
100
AcDbCircle
 10
2765.678556846089
 20
1640.8364571744496
 30
0.0
 40
4.0
  0
CIRCLE
  5
1D8
330
17
100
AcDbEntity
  8
0
 62
2
100
AcDbCircle
 10
2765.67855684608
 20
1999.8364571744496
 30
0.0
 40
4.0
  0
CIRCLE
  5
1D9
330
17
100
AcDbEntity
  8
0
 62
2
100
AcDbCircle
 10
3029.678556846089
 20
1640.8364571744496
 30
0.0
 40
4.0
  0
CIRCLE
  5
1DA
330
17
100
AcDbEntity
  8
0
 62
2
100
AcDbCircle
 10
3029.678556846109
 20
1999.8364571744496
 30
0.0
 40
4.0
  0
CIRCLE
  5
1DB
330
17
100
AcDbEntity
  8
0
 62
2
100
AcDbCircle
 10
3029.678556846089
 20
1281.8364571744496
 30
0.0
 40
4.0
  0
CIRCLE
  5
1DC
330
17
100
AcDbEntity
  8
0
 62
2
100
AcDbCircle
 10
2765.67855684608
 20
1999.8364571744496
 30
0.0
 40
1.5
  0
CIRCLE
  5
1DD
330
17
100
AcDbEntity
  8
0
 62
2
100
AcDbCircle
 10
2803.678556846089
 20
2047.8364571744496
 30
0.0
 40
1.5
  0
CIRCLE
  5
1DE
330
17
100
AcDbEntity
  8
0
 62
2
100
AcDbCircle
 10
2991.678556846089
 20
2047.8364571744496
 30
0.0
 40
1.5
  0
CIRCLE
  5
1DF
330
17
100
AcDbEntity
  8
0
 62
2
100
AcDbCircle
 10
3029.678556846109
 20
1999.8364571744496
 30
0.0
 40
1.5
  0
CIRCLE
  5
1E0
330
17
100
AcDbEntity
  8
0
 62
2
100
AcDbCircle
 10
3029.678556846089
 20
1640.8364571744496
 30
0.0
 40
1.5
  0
CIRCLE
  5
1E1
330
17
100
AcDbEntity
  8
0
 62
2
100
AcDbCircle
 10
3029.678556846089
 20
1281.8364571744496
 30
0.0
 40
1.5
  0
CIRCLE
  5
1E2
330
17
100
AcDbEntity
  8
0
 62
2
100
AcDbCircle
 10
2991.678556846089
 20
1233.8364571744496
 30
0.0
 40
1.5
  0
CIRCLE
  5
1E3
330
17
100
AcDbEntity
  8
0
 62
2
100
AcDbCircle
 10
2803.678556846089
 20
1233.8364571744496
 30
0.0
 40
1.5
  0
CIRCLE
  5
1E4
330
17
100
AcDbEntity
  8
0
 62
2
100
AcDbCircle
 10
2765.678556846089
 20
1281.8364571744496
 30
0.0
 40
1.5
  0
CIRCLE
  5
1E5
330
17
100
AcDbEntity
  8
0
 62
2
100
AcDbCircle
 10
2765.67855684608
 20
1640.8364571744496
 30
0.0
 40
1.5
  0
LWPOLYLINE
  5
1E6
330
17
100
AcDbEntity
  8
0
 62
2
100
AcDbPolyline
 90
4
 70
1
 10
961.8050140711293
 20
1530.2720143863407
 10
934.8050140711293
 20
1530.2720143863407
 10
934.8050140711293
 20
1665.2720143863298
 10
961.8050140711293
 20
1665.2720143863298
  0
ENDSEC
  0
SECTION
  2
OBJECTS
  0
DICTIONARY
  5
A
330
0
100
AcDbDictionary
281
1
  3
ACAD_COLOR
350
B
  3
ACAD_GROUP
350
C
  3
ACAD_LAYOUT
350
D
  3
ACAD_MATERIAL
350
E
  3
ACAD_MLEADERSTYLE
350
F
  3
ACAD_MLINESTYLE
350
10
  3
ACAD_PLOTSETTINGS
350
11
  3
ACAD_PLOTSTYLENAME
350
12
  3
ACAD_SCALELIST
350
14
  3
ACAD_TABLESTYLE
350
15
  3
ACAD_VISUALSTYLE
350
16
  3
EZDXF_META
350
2D
  0
DICTIONARY
  5
B
330
A
100
AcDbDictionary
281
1
  0
DICTIONARY
  5
C
330
A
100
AcDbDictionary
281
1
  0
DICTIONARY
  5
D
330
A
100
AcDbDictionary
281
1
  3
Model
350
1A
  3
Layout1
350
1E
  0
DICTIONARY
  5
E
330
A
100
AcDbDictionary
281
1
  3
ByBlock
350
1F
  3
ByLayer
350
20
  3
Global
350
21
  0
DICTIONARY
  5
F
330
A
100
AcDbDictionary
281
1
  3
Standard
350
2C
  0
DICTIONARY
  5
10
330
A
100
AcDbDictionary
281
1
  3
Standard
350
22
  0
DICTIONARY
  5
11
330
A
100
AcDbDictionary
281
1
  0
ACDBDICTIONARYWDFLT
  5
12
330
A
100
AcDbDictionary
281
1
  3
Normal
350
13
100
AcDbDictionaryWithDefault
340
13
  0
ACDBPLACEHOLDER
  5
13
330
12
  0
DICTIONARY
  5
14
330
A
100
AcDbDictionary
281
1
  0
DICTIONARY
  5
15
330
A
100
AcDbDictionary
281
1
  0
DICTIONARY
  5
16
330
A
100
AcDbDictionary
281
1
  0
LAYOUT
  5
1A
330
D
100
AcDbPlotSettings
  1

  4
A3
  6

 40
7.5
 41
20.0
 42
7.5
 43
20.0
 44
420.0
 45
297.0
 46
0.0
 47
0.0
 48
0.0
 49
0.0
140
0.0
141
0.0
142
1.0
143
1.0
 70
1024
 72
1
 73
0
 74
5
  7

 75
16
 76
0
 77
2
 78
300
147
1.0
148
0.0
149
0.0
100
AcDbLayout
  1
Model
 70
1
 71
0
 10
0.0
 20
0.0
 11
420.0
 21
297.0
 12
0.0
 22
0.0
 32
0.0
 14
1e+20
 24
1e+20
 34
1e+20
 15
-1e+20
 25
-1e+20
 35
-1e+20
146
0.0
 13
0.0
 23
0.0
 33
0.0
 16
1.0
 26
0.0
 36
0.0
 17
0.0
 27
1.0
 37
0.0
 76
1
330
17
  0
LAYOUT
  5
1E
330
D
100
AcDbPlotSettings
  1

  4
A3
  6

 40
7.5
 41
20.0
 42
7.5
 43
20.0
 44
420.0
 45
297.0
 46
0.0
 47
0.0
 48
0.0
 49
0.0
140
0.0
141
0.0
142
1.0
143
1.0
 70
0
 72
1
 73
0
 74
5
  7

 75
16
 76
0
 77
2
 78
300
147
1.0
148
0.0
149
0.0
100
AcDbLayout
  1
Layout1
 70
1
 71
1
 10
0.0
 20
0.0
 11
420.0
 21
297.0
 12
0.0
 22
0.0
 32
0.0
 14
1e+20
 24
1e+20
 34
1e+20
 15
-1e+20
 25
-1e+20
 35
-1e+20
146
0.0
 13
0.0
 23
0.0
 33
0.0
 16
1.0
 26
0.0
 36
0.0
 17
0.0
 27
1.0
 37
0.0
 76
1
330
1B
  0
MATERIAL
  5
1F
102
{ACAD_REACTORS
330
E
102
}
330
E
100
AcDbMaterial
  1
ByBlock
  2

 70
0
 40
1.0
 71
1
 41
1.0
 91
-1023410177
 42
1.0
 72
1
  3

 73
1
 74
1
 75
1
 44
0.5
 73
0
 45
1.0
 46
1.0
 77
1
  4

 78
1
 79
1
170
1
 48
1.0
171
1
  6

172
1
173
1
174
1
140
1.0
141
1.0
175
1
  7

176
1
177
1
178
1
143
1.0
179
1
  8

270
1
271
1
272
1
145
1.0
146
1.0
273
1
  9

274
1
275
1
276
1
 42
1.0
 72
1
  3

 73
1
 74
1
 75
1
 94
63
  0
MATERIAL
  5
20
102
{ACAD_REACTORS
330
E
102
}
330
E
100
AcDbMaterial
  1
ByLayer
  2

 70
0
 40
1.0
 71
1
 41
1.0
 91
-1023410177
 42
1.0
 72
1
  3

 73
1
 74
1
 75
1
 44
0.5
 73
0
 45
1.0
 46
1.0
 77
1
  4

 78
1
 79
1
170
1
 48
1.0
171
1
  6

172
1
173
1
174
1
140
1.0
141
1.0
175
1
  7

176
1
177
1
178
1
143
1.0
179
1
  8

270
1
271
1
272
1
145
1.0
146
1.0
273
1
  9

274
1
275
1
276
1
 42
1.0
 72
1
  3

 73
1
 74
1
 75
1
 94
63
  0
MATERIAL
  5
21
102
{ACAD_REACTORS
330
E
102
}
330
E
100
AcDbMaterial
  1
Global
  2

 70
0
 40
1.0
 71
1
 41
1.0
 91
-1023410177
 42
1.0
 72
1
  3

 73
1
 74
1
 75
1
 44
0.5
 73
0
 45
1.0
 46
1.0
 77
1
  4

 78
1
 79
1
170
1
 48
1.0
171
1
  6

172
1
173
1
174
1
140
1.0
141
1.0
175
1
  7

176
1
177
1
178
1
143
1.0
179
1
  8

270
1
271
1
272
1
145
1.0
146
1.0
273
1
  9

274
1
275
1
276
1
 42
1.0
 72
1
  3

 73
1
 74
1
 75
1
 94
63
  0
MLINESTYLE
  5
22
102
{ACAD_REACTORS
330
10
102
}
330
10
100
AcDbMlineStyle
  2
Standard
 70
0
  3

 62
256
 51
90.0
 52
90.0
 71
2
 49
0.5
 62
256
  6
BYLAYER
 49
-0.5
 62
256
  6
BYLAYER
  0
MLEADERSTYLE
  5
2C
102
{ACAD_REACTORS
330
F
102
}
330
F
100
AcDbMLeaderStyle
179
2
170
2
171
1
172
0
 90
2
 40
0.0
 41
0.0
173
1
 91
-1056964608
 92
-2
290
1
 42
2.0
291
1
 43
8.0
  3
Standard
 44
4.0
300

342
29
174
1
175
1
176
0
178
1
 93
-1056964608
 45
4.0
292
0
297
0
 46
4.0
 94
-1056964608
 47
1.0
 49
1.0
140
1.0
294
1
141
0.0
177
0
142
1.0
295
0
296
0
143
3.75
271
0
272
9
273
9
  0
DICTIONARY
  5
2D
330
A
100
AcDbDictionary
280
1
281
1
  3
CREATED_BY_EZDXF
350
2E
  3
WRITTEN_BY_EZDXF
350
272
  0
DICTIONARYVAR
  5
2E
330
2D
100
DictionaryVariables
280
0
  1
1.4.4 @ 2026-09-24T06:31:53.050318+00:00
  0
DICTIONARYVAR
  5
272
330
2D
100
DictionaryVariables
280
0
  1
1.4.4 @ 2026-09-24T06:36:59.969233+00:00
  0
ENDSEC
  0
EOF
