  0
SECTION
  2
HEADER
  9
$ACADVER
  1
AC1032
  9
$ACADMAINTVER
 90
4
  9
$DWGCODEPAGE
  3
ANSI_1252
  9
$LASTSAVEDBY
  1
ezdxf
  9
$REQUIREDVERSIONS
160
0
  9
$INSBASE
 10
0.0
 20
0.0
 30
0.0
  9
$EXTMIN
 10
1e+20
 20
1e+20
 30
1e+20
  9
$EXTMAX
 10
-1e+20
 20
-1e+20
 30
-1e+20
  9
$LIMMIN
 10
0.0
 20
0.0
  9
$LIMMAX
 10
420.0
 20
297.0
  9
$ORTHOMODE
 70
0
  9
$REGENMODE
 70
1
  9
$FILLMODE
 70
1
  9
$QTEXTMODE
 70
0
  9
$MIRRTEXT
 70
1
  9
$LTSCALE
 40
1.0
  9
$ATTMODE
 70
1
  9
$TEXTSIZE
 40
2.5
  9
$TRACEWID
 40
1.0
  9
$TEXTSTYLE
  7
Standard
  9
$CLAYER
  8
0
  9
$CELTYPE
  6
ByLayer
  9
$CECOLOR
 62
256
  9
$CELTSCALE
 40
1.0
  9
$DISPSILH
 70
0
  9
$DIMSCALE
 40
1.0
  9
$DIMASZ
 40
2.5
  9
$DIMEXO
 40
0.625
  9
$DIMDLI
 40
3.75
  9
$DIMRND
 40
0.0
  9
$DIMDLE
 40
0.0
  9
$DIMEXE
 40
1.25
  9
$DIMTP
 40
0.0
  9
$DIMTM
 40
0.0
  9
$DIMTXT
 40
2.5
  9
$DIMCEN
 40
2.5
  9
$DIMTSZ
 40
0.0
  9
$DIMTOL
 70
0
  9
$DIMLIM
 70
0
  9
$DIMTIH
 70
0
  9
$DIMTOH
 70
0
  9
$DIMSE1
 70
0
  9
$DIMSE2
 70
0
  9
$DIMTAD
 70
1
  9
$DIMZIN
 70
8
  9
$DIMBLK
  1

  9
$DIMASO
 70
1
  9
$DIMSHO
 70
1
  9
$DIMPOST
  1

  9
$DIMAPOST
  1

  9
$DIMALT
 70
0
  9
$DIMALTD
 70
3
  9
$DIMALTF
 40
0.03937007874
  9
$DIMLFAC
 40
1.0
  9
$DIMTOFL
 70
1
  9
$DIMTVP
 40
0.0
  9
$DIMTIX
 70
0
  9
$DIMSOXD
 70
0
  9
$DIMSAH
 70
0
  9
$DIMBLK1
  1

  9
$DIMBLK2
  1

  9
$DIMSTYLE
  2
ISO-25
  9
$DIMCLRD
 70
0
  9
$DIMCLRE
 70
0
  9
$DIMCLRT
 70
0
  9
$DIMTFAC
 40
1.0
  9
$DIMGAP
 40
0.625
  9
$DIMJUST
 70
0
  9
$DIMSD1
 70
0
  9
$DIMSD2
 70
0
  9
$DIMTOLJ
 70
0
  9
$DIMTZIN
 70
8
  9
$DIMALTZ
 70
0
  9
$DIMALTTZ
 70
0
  9
$DIMUPT
 70
0
  9
$DIMDEC
 70
2
  9
$DIMTDEC
 70
2
  9
$DIMALTU
 70
2
  9
$DIMALTTD
 70
3
  9
$DIMTXSTY
  7
Standard
  9
$DIMAUNIT
 70
0
  9
$DIMADEC
 70
0
  9
$DIMALTRND
 40
0.0
  9
$DIMAZIN
 70
0
  9
$DIMDSEP
 70
44
  9
$DIMATFIT
 70
3
  9
$DIMFRAC
 70
0
  9
$DIMLDRBLK
  1

  9
$DIMLUNIT
 70
2
  9
$DIMLWD
 70
-2
  9
$DIMLWE
 70
-2
  9
$DIMTMOVE
 70
0
  9
$DIMFXL
 40
1.0
  9
$DIMFXLON
 70
0
  9
$DIMJOGANG
 40
0.785398163397
  9
$DIMTFILL
 70
0
  9
$DIMTFILLCLR
 70
0
  9
$DIMARCSYM
 70
0
  9
$DIMLTYPE
  6

  9
$DIMLTEX1
  6

  9
$DIMLTEX2
  6

  9
$DIMTXTDIRECTION
 70
0
  9
$LUNITS
 70
2
  9
$LUPREC
 70
4
  9
$SKETCHINC
 40
1.0
  9
$FILLETRAD
 40
10.0
  9
$AUNITS
 70
0
  9
$AUPREC
 70
2
  9
$MENU
  1
.
  9
$ELEVATION
 40
0.0
  9
$PELEVATION
 40
0.0
  9
$THICKNESS
 40
0.0
  9
$LIMCHECK
 70
0
  9
$CHAMFERA
 40
0.0
  9
$CHAMFERB
 40
0.0
  9
$CHAMFERC
 40
0.0
  9
$CHAMFERD
 40
0.0
  9
$SKPOLY
 70
0
  9
$TDCREATE
 40
2461308.567615741
  9
$TDUCREATE
 40
2458532.153996898
  9
$TDUPDATE
 40
2461308.567615741
  9
$TDUUPDATE
 40
2458532.1544311
  9
$TDINDWG
 40
0.0
  9
$TDUSRTIMER
 40
0.0
  9
$USRTIMER
 70
1
  9
$ANGBASE
 50
0.0
  9
$ANGDIR
 70
0
  9
$PDMODE
 70
0
  9
$PDSIZE
 40
0.0
  9
$PLINEWID
 40
0.0
  9
$SPLFRAME
 70
0
  9
$SPLINETYPE
 70
6
  9
$SPLINESEGS
 70
8
  9
$HANDSEED
  5
494
  9
$SURFTAB1
 70
6
  9
$SURFTAB2
 70
6
  9
$SURFTYPE
 70
6
  9
$SURFU
 70
6
  9
$SURFV
 70
6
  9
$UCSBASE
  2

  9
$UCSNAME
  2

  9
$UCSORG
 10
0.0
 20
0.0
 30
0.0
  9
$UCSXDIR
 10
1.0
 20
0.0
 30
0.0
  9
$UCSYDIR
 10
0.0
 20
1.0
 30
0.0
  9
$UCSORTHOREF
  2

  9
$UCSORTHOVIEW
 70
0
  9
$UCSORGTOP
 10
0.0
 20
0.0
 30
0.0
  9
$UCSORGBOTTOM
 10
0.0
 20
0.0
 30
0.0
  9
$UCSORGLEFT
 10
0.0
 20
0.0
 30
0.0
  9
$UCSORGRIGHT
 10
0.0
 20
0.0
 30
0.0
  9
$UCSORGFRONT
 10
0.0
 20
0.0
 30
0.0
  9
$UCSORGBACK
 10
0.0
 20
0.0
 30
0.0
  9
$PUCSBASE
  2

  9
$PUCSNAME
  2

  9
$PUCSORG
 10
0.0
 20
0.0
 30
0.0
  9
$PUCSXDIR
 10
1.0
 20
0.0
 30
0.0
  9
$PUCSYDIR
 10
0.0
 20
1.0
 30
0.0
  9
$PUCSORTHOREF
  2

  9
$PUCSORTHOVIEW
 70
0
  9
$PUCSORGTOP
 10
0.0
 20
0.0
 30
0.0
  9
$PUCSORGBOTTOM
 10
0.0
 20
0.0
 30
0.0
  9
$PUCSORGLEFT
 10
0.0
 20
0.0
 30
0.0
  9
$PUCSORGRIGHT
 10
0.0
 20
0.0
 30
0.0
  9
$PUCSORGFRONT
 10
0.0
 20
0.0
 30
0.0
  9
$PUCSORGBACK
 10
0.0
 20
0.0
 30
0.0
  9
$USERI1
 70
0
  9
$USERI2
 70
0
  9
$USERI3
 70
0
  9
$USERI4
 70
0
  9
$USERI5
 70
0
  9
$USERR1
 40
0.0
  9
$USERR2
 40
0.0
  9
$USERR3
 40
0.0
  9
$USERR4
 40
0.0
  9
$USERR5
 40
0.0
  9
$WORLDVIEW
 70
1
  9
$SHADEDGE
 70
3
  9
$SHADEDIF
 70
70
  9
$TILEMODE
 70
1
  9
$MAXACTVP
 70
64
  9
$PINSBASE
 10
0.0
 20
0.0
 30
0.0
  9
$PLIMCHECK
 70
0
  9
$PEXTMIN
 10
1e+20
 20
1e+20
 30
1e+20
  9
$PEXTMAX
 10
-1e+20
 20
-1e+20
 30
-1e+20
  9
$PLIMMIN
 10
0.0
 20
0.0
  9
$PLIMMAX
 10
420.0
 20
297.0
  9
$UNITMODE
 70
0
  9
$VISRETAIN
 70
1
  9
$PLINEGEN
 70
0
  9
$PSLTSCALE
 70
1
  9
$TREEDEPTH
 70
3020
  9
$CMLSTYLE
  2
Standard
  9
$CMLJUST
 70
0
  9
$CMLSCALE
 40
20.0
  9
$PROXYGRAPHICS
 70
1
  9
$MEASUREMENT
 70
1
  9
$CELWEIGHT
370
-1
  9
$ENDCAPS
280
0
  9
$JOINSTYLE
280
0
  9
$LWDISPLAY
290
0
  9
$INSUNITS
 70
4
  9
$HYPERLINKBASE
  1

  9
$STYLESHEET
  1

  9
$XEDIT
290
1
  9
$CEPSNTYPE
380
0
  9
$PSTYLEMODE
290
1
  9
$FINGERPRINTGUID
  2
{DF254605-0855-4B34-87B7-334BAF3F2790}
  9
$VERSIONGUID
  2
{B7A5031A-3AF4-448A-9DB0-AB3DC154D05B}
  9
$EXTNAMES
290
1
  9
$PSVPSCALE
 40
0.0
  9
$OLESTARTUP
290
0
  9
$SORTENTS
280
127
  9
$INDEXCTL
280
0
  9
$HIDETEXT
280
1
  9
$XCLIPFRAME
280
1
  9
$HALOGAP
280
0
  9
$OBSCOLOR
 70
257
  9
$OBSLTYPE
280
0
  9
$INTERSECTIONDISPLAY
280
0
  9
$INTERSECTIONCOLOR
 70
257
  9
$DIMASSOC
280
2
  9
$PROJECTNAME
  1

  9
$CAMERADISPLAY
290
0
  9
$LENSLENGTH
 40
50.0
  9
$CAMERAHEIGHT
 40
0.0
  9
$STEPSPERSEC
 40
24.0
  9
$STEPSIZE
 40
100.0
  9
$3DDWFPREC
 40
2.0
  9
$PSOLWIDTH
 40
0.005
  9
$PSOLHEIGHT
 40
0.08
  9
$LOFTANG1
 40
1.570796326795
  9
$LOFTANG2
 40
1.570796326795
  9
$LOFTMAG1
 40
0.0
  9
$LOFTMAG2
 40
0.0
  9
$LOFTPARAM
 70
7
  9
$LOFTNORMALS
280
1
  9
$LATITUDE
 40
37.795
  9
$LONGITUDE
 40
-122.394
  9
$NORTHDIRECTION
 40
0.0
  9
$TIMEZONE
 70
-8000
  9
$LIGHTGLYPHDISPLAY
280
1
  9
$TILEMODELIGHTSYNCH
280
1
  9
$CMATERIAL
347
20
  9
$SOLIDHIST
280
0
  9
$SHOWHIST
280
1
  9
$DWFFRAME
280
2
  9
$DGNFRAME
280
2
  9
$REALWORLDSCALE
290
1
  9
$INTERFERECOLOR
 62
256
  9
$CSHADOW
280
0
  9
$SHADOWPLANELOCATION
 40
0.0
  0
ENDSEC
  0
SECTION
  2
CLASSES
  0
CLASS
  1
ACDBDICTIONARYWDFLT
  2
AcDbDictionaryWithDefault
  3
ObjectDBX Classes
 90
0
 91
0
280
0
281
0
  0
CLASS
  1
SUN
  2
AcDbSun
  3
SCENEOE
 90
1153
 91
0
280
0
281
0
  0
CLASS
  1
VISUALSTYLE
  2
AcDbVisualStyle
  3
ObjectDBX Classes
 90
4095
 91
0
280
0
281
0
  0
CLASS
  1
MATERIAL
  2
AcDbMaterial
  3
ObjectDBX Classes
 90
1153
 91
0
280
0
281
0
  0
CLASS
  1
SCALE
  2
AcDbScale
  3
ObjectDBX Classes
 90
1153
 91
0
280
0
281
0
  0
CLASS
  1
TABLESTYLE
  2
AcDbTableStyle
  3
ObjectDBX Classes
 90
4095
 91
0
280
0
281
0
  0
CLASS
  1
MLEADERSTYLE
  2
AcDbMLeaderStyle
  3
ACDB_MLEADERSTYLE_CLASS
 90
4095
 91
0
280
0
281
0
  0
CLASS
  1
DICTIONARYVAR
  2
AcDbDictionaryVar
  3
ObjectDBX Classes
 90
0
 91
0
280
0
281
0
  0
CLASS
  1
CELLSTYLEMAP
  2
AcDbCellStyleMap
  3
ObjectDBX Classes
 90
1152
 91
0
280
0
281
0
  0
CLASS
  1
MENTALRAYRENDERSETTINGS
  2
AcDbMentalRayRenderSettings
  3
SCENEOE
 90
1024
 91
0
280
0
281
0
  0
CLASS
  1
ACDBDETAILVIEWSTYLE
  2
AcDbDetailViewStyle
  3
ObjectDBX Classes
 90
1025
 91
0
280
0
281
0
  0
CLASS
  1
ACDBSECTIONVIEWSTYLE
  2
AcDbSectionViewStyle
  3
ObjectDBX Classes
 90
1025
 91
0
280
0
281
0
  0
CLASS
  1
RASTERVARIABLES
  2
AcDbRasterVariables
  3
ISM
 90
0
 91
0
280
0
281
0
  0
CLASS
  1
ACDBPLACEHOLDER
  2
AcDbPlaceHolder
  3
ObjectDBX Classes
 90
0
 91
0
280
0
281
0
  0
CLASS
  1
LAYOUT
  2
AcDbLayout
  3
ObjectDBX Classes
 90
0
 91
0
280
0
281
0
  0
ENDSEC
  0
SECTION
  2
TABLES
  0
TABLE
  2
VPORT
  5
8
330
0
100
AcDbSymbolTable
 70
1
  0
VPORT
  5
23
330
8
100
AcDbSymbolTableRecord
100
AcDbViewportTableRecord
  2
*Active
 70
0
 10
0.0
 20
0.0
 11
1.0
 21
1.0
 12
0.0
 22
0.0
 13
0.0
 23
0.0
 14
0.5
 24
0.5
 15
0.5
 25
0.5
 16
0.0
 26
0.0
 36
1.0
 17
0.0
 27
0.0
 37
0.0
 40
1000.0
 41
1.34
 42
50.0
 43
0.0
 44
0.0
 50
0.0
 51
0.0
 71
0
 72
1000
 73
1
 74
3
 75
0
 76
0
 77
0
 78
0
281
0
 65
0
146
0.0
  0
ENDTAB
  0
TABLE
  2
LTYPE
  5
2
330
0
100
AcDbSymbolTable
 70
3
  0
LTYPE
  5
24
330
2
100
AcDbSymbolTableRecord
100
AcDbLinetypeTableRecord
  2
ByBlock
 70
0
  3

 72
65
 73
0
 40
0.0
  0
LTYPE
  5
25
330
2
100
AcDbSymbolTableRecord
100
AcDbLinetypeTableRecord
  2
ByLayer
 70
0
  3

 72
65
 73
0
 40
0.0
  0
LTYPE
  5
26
330
2
100
AcDbSymbolTableRecord
100
AcDbLinetypeTableRecord
  2
Continuous
 70
0
  3

 72
65
 73
0
 40
0.0
  0
ENDTAB
  0
TABLE
  2
LAYER
  5
1
330
0
100
AcDbSymbolTable
 70
5
  0
LAYER
  5
27
330
1
100
AcDbSymbolTableRecord
100
AcDbLayerTableRecord
  2
0
 70
0
 62
7
  6
Continuous
370
-3
390
13
347
21
  0
LAYER
  5
28
330
1
100
AcDbSymbolTableRecord
100
AcDbLayerTableRecord
  2
Defpoints
 70
0
 62
7
  6
Continuous
290
0
370
-3
390
13
347
21
  0
LAYER
  5
1DA
330
1
100
AcDbSymbolTableRecord
100
AcDbLayerTableRecord
  2
DIM
 70
0
 62
253
  6
Continuous
370
-3
390
13
347
21
  0
LAYER
  5
1DB
330
1
100
AcDbSymbolTableRecord
100
AcDbLayerTableRecord
  2
THIET BI
 70
0
 62
2
  6
Continuous
370
-3
390
13
347
21
  0
LAYER
  5
1DC
330
1
100
AcDbSymbolTableRecord
100
AcDbLayerTableRecord
  2
CNC
 70
0
 62
7
  6
Continuous
370
-3
390
13
347
21
  0
ENDTAB
  0
TABLE
  2
STYLE
  5
5
330
0
100
AcDbSymbolTable
 70
3
  0
STYLE
  5
29
330
5
100
AcDbSymbolTableRecord
100
AcDbTextStyleTableRecord
  2
Standard
 70
0
 40
0.0
 41
1.0
 50
0.0
 71
0
 42
2.5
  3
txt
  4

  0
STYLE
  5
1DD
330
5
100
AcDbSymbolTableRecord
100
AcDbTextStyleTableRecord
  2
Tahoma (Input Text)
 70
0
 40
0.0
 41
1.0
 50
0.0
 71
0
 42
25.0
  3
tahoma.ttf
  4

  0
STYLE
  5
1DE
330
5
100
AcDbSymbolTableRecord
100
AcDbTextStyleTableRecord
  2
Arial
 70
0
 40
0.0
 41
1.0
 50
0.0
 71
0
 42
0.2
  3
arial.ttf
  4

  0
ENDTAB
  0
TABLE
  2
VIEW
  5
7
330
0
100
AcDbSymbolTable
 70
0
  0
ENDTAB
  0
TABLE
  2
UCS
  5
6
330
0
100
AcDbSymbolTable
 70
0
  0
ENDTAB
  0
TABLE
  2
APPID
  5
3
330
0
100
AcDbSymbolTable
 70
3
  0
APPID
  5
2A
330
3
100
AcDbSymbolTableRecord
100
AcDbRegAppTableRecord
  2
ACAD
 70
0
  0
APPID
  5
1DF
330
3
100
AcDbSymbolTableRecord
100
AcDbRegAppTableRecord
  2
HATCHBACKGROUNDCOLOR
 70
0
  0
APPID
  5
1E0
330
3
100
AcDbSymbolTableRecord
100
AcDbRegAppTableRecord
  2
EZDXF
 70
0
  0
ENDTAB
  0
TABLE
  2
DIMSTYLE
  5
4
330
0
100
AcDbSymbolTable
 70
3
100
AcDbDimStyleTable
  0
DIMSTYLE
105
2B
330
4
100
AcDbSymbolTableRecord
100
AcDbDimStyleTableRecord
  2
Standard
 70
0
 40
1.0
 41
2.5
 42
0.625
 43
3.75
 44
1.25
 45
0.0
 46
0.0
 47
0.0
 48
0.0
 49
2.5
140
2.5
141
2.5
142
0.0
143
0.03937007874
144
1.0
145
0.0
146
1.0
147
0.625
148
0.0
 69
0
 70
0
 71
0
 72
0
 73
0
 74
0
 75
0
 76
0
 77
1
 78
8
 79
3
170
0
171
3
172
1
173
0
174
0
175
0
176
0
177
0
178
0
179
2
271
2
272
2
273
2
274
3
275
0
276
0
277
2
278
44
279
0
280
0
281
0
282
0
283
0
284
8
285
0
286
0
288
0
289
3
290
0
371
-2
372
-2
  0
DIMSTYLE
105
1D8
330
4
100
AcDbSymbolTableRecord
100
AcDbDimStyleTableRecord
  2
Dim-25
 70
0
 40
1.0
 41
8.0
 42
15.0
 43
3.75
 44
10.0
 45
0.0
 46
0.0
 47
0.0
 48
0.0
 49
2.5
140
25.0
141
10.0
142
0.0
143
0.03937007874016
144
1.0
145
0.0
146
1.0
147
10.0
148
0.0
 69
0
 70
0
 71
0
 72
0
 73
0
 74
0
 75
0
 76
0
 77
1
 78
8
 79
3
170
0
171
3
172
1
173
0
174
0
175
0
176
5
177
5
178
3
179
2
271
0
272
0
273
2
274
3
275
0
276
0
277
2
278
44
279
0
280
0
281
0
282
0
283
0
284
8
285
0
286
0
288
0
289
3
290
0
340
29
341
45
342
45
345
25
346
25
347
25
371
9
372
9
  0
DIMSTYLE
105
1D9
330
4
100
AcDbSymbolTableRecord
100
AcDbDimStyleTableRecord
  2
Dim-15
 70
0
 40
1.0
 41
5.0
 42
8.0
 43
3.75
 44
5.0
 45
0.0
 46
0.0
 47
0.0
 48
0.0
 49
2.5
140
15.0
141
10.0
142
0.0
143
0.03937007874016
144
1.0
145
0.0
146
1.0
147
5.0
148
0.0
 69
0
 70
0
 71
0
 72
0
 73
0
 74
0
 75
0
 76
0
 77
1
 78
8
 79
3
170
0
171
3
172
1
173
0
174
0
175
0
176
5
177
5
178
3
179
2
271
0
272
0
273
2
274
3
275
0
276
0
277
2
278
44
279
0
280
0
281
0
282
0
283
0
284
8
285
0
286
0
288
0
289
3
290
0
340
29
341
45
342
45
345
25
346
25
347
25
371
9
372
9
  0
ENDTAB
  0
TABLE
  2
BLOCK_RECORD
  5
9
330
0
100
AcDbSymbolTable
 70
56
  0
BLOCK_RECORD
  5
17
330
9
100
AcDbSymbolTableRecord
100
AcDbBlockTableRecord
  2
*Model_Space
340
1A
 70
0
280
1
281
0
  0
BLOCK_RECORD
  5
1B
330
9
100
AcDbSymbolTableRecord
100
AcDbBlockTableRecord
  2
*Paper_Space
340
1E
 70
0
280
1
281
0
  0
BLOCK_RECORD
  5
45
330
9
100
AcDbSymbolTableRecord
100
AcDbBlockTableRecord
  2
_Oblique
340
0
 70
0
280
1
281
0
  0
BLOCK_RECORD
  5
1A9
330
9
100
AcDbSymbolTableRecord
100
AcDbBlockTableRecord
  2
khungtenAsean2
340
0
 70
0
280
1
281
0
  0
BLOCK_RECORD
  5
1CD
330
9
100
AcDbSymbolTableRecord
100
AcDbBlockTableRecord
  2
f3daunguoc
340
0
 70
0
280
1
281
0
  0
BLOCK_RECORD
  5
1D1
330
9
100
AcDbSymbolTableRecord
100
AcDbBlockTableRecord
  2
ovan8.5x20
340
0
 70
0
280
1
281
0
  0
BLOCK_RECORD
  5
227
330
9
100
AcDbSymbolTableRecord
100
AcDbBlockTableRecord
  2
*D1
340
0
 70
0
280
1
281
0
  0
BLOCK_RECORD
  5
233
330
9
100
AcDbSymbolTableRecord
100
AcDbBlockTableRecord
  2
*D2
340
0
 70
0
280
1
281
0
  0
BLOCK_RECORD
  5
23F
330
9
100
AcDbSymbolTableRecord
100
AcDbBlockTableRecord
  2
*D3
340
0
 70
0
280
1
281
0
  0
BLOCK_RECORD
  5
24D
330
9
100
AcDbSymbolTableRecord
100
AcDbBlockTableRecord
  2
*D4
340
0
 70
0
280
1
281
0
  0
BLOCK_RECORD
  5
259
330
9
100
AcDbSymbolTableRecord
100
AcDbBlockTableRecord
  2
*D5
340
0
 70
0
280
1
281
0
  0
BLOCK_RECORD
  5
265
330
9
100
AcDbSymbolTableRecord
100
AcDbBlockTableRecord
  2
*D6
340
0
 70
0
280
1
281
0
  0
BLOCK_RECORD
  5
273
330
9
100
AcDbSymbolTableRecord
100
AcDbBlockTableRecord
  2
*D7
340
0
 70
0
280
1
281
0
  0
BLOCK_RECORD
  5
27F
330
9
100
AcDbSymbolTableRecord
100
AcDbBlockTableRecord
  2
*D8
340
0
 70
0
280
1
281
0
  0
BLOCK_RECORD
  5
28B
330
9
100
AcDbSymbolTableRecord
100
AcDbBlockTableRecord
  2
*D9
340
0
 70
0
280
1
281
0
  0
BLOCK_RECORD
  5
297
330
9
100
AcDbSymbolTableRecord
100
AcDbBlockTableRecord
  2
*D10
340
0
 70
0
280
1
281
0
  0
BLOCK_RECORD
  5
2A5
330
9
100
AcDbSymbolTableRecord
100
AcDbBlockTableRecord
  2
*D11
340
0
 70
0
280
1
281
0
  0
BLOCK_RECORD
  5
2B1
330
9
100
AcDbSymbolTableRecord
100
AcDbBlockTableRecord
  2
*D12
340
0
 70
0
280
1
281
0
  0
BLOCK_RECORD
  5
2BD
330
9
100
AcDbSymbolTableRecord
100
AcDbBlockTableRecord
  2
*D13
340
0
 70
0
280
1
281
0
  0
BLOCK_RECORD
  5
2CB
330
9
100
AcDbSymbolTableRecord
100
AcDbBlockTableRecord
  2
*D14
340
0
 70
0
280
1
281
0
  0
BLOCK_RECORD
  5
2D7
330
9
100
AcDbSymbolTableRecord
100
AcDbBlockTableRecord
  2
*D15
340
0
 70
0
280
1
281
0
  0
BLOCK_RECORD
  5
2E3
330
9
100
AcDbSymbolTableRecord
100
AcDbBlockTableRecord
  2
*D16
340
0
 70
0
280
1
281
0
  0
BLOCK_RECORD
  5
2EF
330
9
100
AcDbSymbolTableRecord
100
AcDbBlockTableRecord
  2
*D17
340
0
 70
0
280
1
281
0
  0
BLOCK_RECORD
  5
2FD
330
9
100
AcDbSymbolTableRecord
100
AcDbBlockTableRecord
  2
*D18
340
0
 70
0
280
1
281
0
  0
BLOCK_RECORD
  5
30B
330
9
100
AcDbSymbolTableRecord
100
AcDbBlockTableRecord
  2
*D19
340
0
 70
0
280
1
281
0
  0
BLOCK_RECORD
  5
317
330
9
100
AcDbSymbolTableRecord
100
AcDbBlockTableRecord
  2
*D20
340
0
 70
0
280
1
281
0
  0
BLOCK_RECORD
  5
325
330
9
100
AcDbSymbolTableRecord
100
AcDbBlockTableRecord
  2
*D21
340
0
 70
0
280
1
281
0
  0
BLOCK_RECORD
  5
331
330
9
100
AcDbSymbolTableRecord
100
AcDbBlockTableRecord
  2
*D22
340
0
 70
0
280
1
281
0
  0
BLOCK_RECORD
  5
33D
330
9
100
AcDbSymbolTableRecord
100
AcDbBlockTableRecord
  2
*D23
340
0
 70
0
280
1
281
0
  0
BLOCK_RECORD
  5
349
330
9
100
AcDbSymbolTableRecord
100
AcDbBlockTableRecord
  2
*D24
340
0
 70
0
280
1
281
0
  0
BLOCK_RECORD
  5
357
330
9
100
AcDbSymbolTableRecord
100
AcDbBlockTableRecord
  2
*D25
340
0
 70
0
280
1
281
0
  0
BLOCK_RECORD
  5
363
330
9
100
AcDbSymbolTableRecord
100
AcDbBlockTableRecord
  2
*D26
340
0
 70
0
280
1
281
0
  0
BLOCK_RECORD
  5
36F
330
9
100
AcDbSymbolTableRecord
100
AcDbBlockTableRecord
  2
*D27
340
0
 70
0
280
1
281
0
  0
BLOCK_RECORD
  5
37C
330
9
100
AcDbSymbolTableRecord
100
AcDbBlockTableRecord
  2
*D28
340
0
 70
0
280
1
281
0
  0
BLOCK_RECORD
  5
388
330
9
100
AcDbSymbolTableRecord
100
AcDbBlockTableRecord
  2
*D29
340
0
 70
0
280
1
281
0
  0
BLOCK_RECORD
  5
394
330
9
100
AcDbSymbolTableRecord
100
AcDbBlockTableRecord
  2
*D30
340
0
 70
0
280
1
281
0
  0
BLOCK_RECORD
  5
3A0
330
9
100
AcDbSymbolTableRecord
100
AcDbBlockTableRecord
  2
*D31
340
0
 70
0
280
1
281
0
  0
BLOCK_RECORD
  5
3AD
330
9
100
AcDbSymbolTableRecord
100
AcDbBlockTableRecord
  2
*D32
340
0
 70
0
280
1
281
0
  0
BLOCK_RECORD
  5
3B9
330
9
100
AcDbSymbolTableRecord
100
AcDbBlockTableRecord
  2
*D33
340
0
 70
0
280
1
281
0
  0
BLOCK_RECORD
  5
3C5
330
9
100
AcDbSymbolTableRecord
100
AcDbBlockTableRecord
  2
*D34
340
0
 70
0
280
1
281
0
  0
BLOCK_RECORD
  5
3D1
330
9
100
AcDbSymbolTableRecord
100
AcDbBlockTableRecord
  2
*D35
340
0
 70
0
280
1
281
0
  0
BLOCK_RECORD
  5
3DD
330
9
100
AcDbSymbolTableRecord
100
AcDbBlockTableRecord
  2
*D36
340
0
 70
0
280
1
281
0
  0
BLOCK_RECORD
  5
3E9
330
9
100
AcDbSymbolTableRecord
100
AcDbBlockTableRecord
  2
*D37
340
0
 70
0
280
1
281
0
  0
BLOCK_RECORD
  5
3F5
330
9
100
AcDbSymbolTableRecord
100
AcDbBlockTableRecord
  2
*D38
340
0
 70
0
280
1
281
0
  0
BLOCK_RECORD
  5
401
330
9
100
AcDbSymbolTableRecord
100
AcDbBlockTableRecord
  2
*D39
340
0
 70
0
280
1
281
0
  0
BLOCK_RECORD
  5
40D
330
9
100
AcDbSymbolTableRecord
100
AcDbBlockTableRecord
  2
*D40
340
0
 70
0
280
1
281
0
  0
BLOCK_RECORD
  5
419
330
9
100
AcDbSymbolTableRecord
100
AcDbBlockTableRecord
  2
*D41
340
0
 70
0
280
1
281
0
  0
BLOCK_RECORD
  5
425
330
9
100
AcDbSymbolTableRecord
100
AcDbBlockTableRecord
  2
*D42
340
0
 70
0
280
1
281
0
  0
BLOCK_RECORD
  5
431
330
9
100
AcDbSymbolTableRecord
100
AcDbBlockTableRecord
  2
*D43
340
0
 70
0
280
1
281
0
  0
BLOCK_RECORD
  5
43D
330
9
100
AcDbSymbolTableRecord
100
AcDbBlockTableRecord
  2
*D44
340
0
 70
0
280
1
281
0
  0
BLOCK_RECORD
  5
449
330
9
100
AcDbSymbolTableRecord
100
AcDbBlockTableRecord
  2
*D45
340
0
 70
0
280
1
281
0
  0
BLOCK_RECORD
  5
457
330
9
100
AcDbSymbolTableRecord
100
AcDbBlockTableRecord
  2
*D46
340
0
 70
0
280
1
281
0
  0
BLOCK_RECORD
  5
464
330
9
100
AcDbSymbolTableRecord
100
AcDbBlockTableRecord
  2
*D47
340
0
 70
0
280
1
281
0
  0
BLOCK_RECORD
  5
470
330
9
100
AcDbSymbolTableRecord
100
AcDbBlockTableRecord
  2
*D48
340
0
 70
0
280
1
281
0
  0
BLOCK_RECORD
  5
47C
330
9
100
AcDbSymbolTableRecord
100
AcDbBlockTableRecord
  2
*D49
340
0
 70
0
280
1
281
0
  0
BLOCK_RECORD
  5
488
330
9
100
AcDbSymbolTableRecord
100
AcDbBlockTableRecord
  2
*D50
340
0
 70
0
280
1
281
0
  0
ENDTAB
  0
ENDSEC
  0
SECTION
  2
BLOCKS
  0
BLOCK
  5
18
330
17
100
AcDbEntity
  8
0
100
AcDbBlockBegin
  2
*Model_Space
 70
0
 10
0.0
 20
0.0
 30
0.0
  3
*Model_Space
  1

  0
ENDBLK
  5
19
330
17
100
AcDbEntity
  8
0
100
AcDbBlockEnd
  0
BLOCK
  5
1C
330
1B
100
AcDbEntity
  8
0
100
AcDbBlockBegin
  2
*Paper_Space
 70
0
 10
0.0
 20
0.0
 30
0.0
  3
*Paper_Space
  1

  0
ENDBLK
  5
1D
330
1B
100
AcDbEntity
  8
0
100
AcDbBlockEnd
  0
BLOCK
  5
46
330
45
100
AcDbEntity
  8
0
100
AcDbBlockBegin
  2
_Oblique
 70
0
 10
0.0
 20
0.0
 30
0.0
  3
_Oblique
  1

  0
LINE
  5
48
330
45
100
AcDbEntity
  8
0
  6
ByBlock
 62
0
370
-2
100
AcDbLine
 10
-0.5
 20
-0.5
 30
0.0
 11
0.5
 21
0.5
 31
0.0
  0
ENDBLK
  5
47
330
45
100
AcDbEntity
  8
0
100
AcDbBlockEnd
  0
BLOCK
  5
1AA
330
1A9
100
AcDbEntity
  8
0
100
AcDbBlockBegin
  2
khungtenAsean2
 70
2
 10
0.0
 20
0.0
 30
0.0
  3
khungtenAsean2
  1

  0
LWPOLYLINE
  5
1AC
330
1A9
100
AcDbEntity
  8
0
 62
7
100
AcDbPolyline
 90
4
 70
1
 10
0.0
 20
0.0
 10
2970.000000000422
 20
0.0
 10
2970.000000000422
 20
-2100.00000000032
 10
0.0
 20
-2100.00000000032
  0
LINE
  5
1AD
330
1A9
100
AcDbEntity
  8
0
 62
7
100
AcDbLine
 10
2020.0
 20
-2040.00000000032
 30
0.0
 11
0.0
 21
-2040.00000000032
 31
0.0
  0
LINE
  5
1AE
330
1A9
100
AcDbEntity
  8
0
 62
7
100
AcDbLine
 10
2970.000000000422
 20
-1980.00000000032
 30
0.0
 11
0.0
 21
-1980.00000000032
 31
0.0
  0
LINE
  5
1AF
330
1A9
100
AcDbEntity
  8
0
 62
7
100
AcDbLine
 10
320.0
 20
-1980.00000000032
 30
0.0
 11
320.0
 21
-2100.00000000032
 31
0.0
  0
LINE
  5
1B0
330
1A9
100
AcDbEntity
  8
0
 62
7
100
AcDbLine
 10
890.0
 20
-1980.00000000032
 30
0.0
 11
890.0
 21
-2100.00000000032
 31
0.0
  0
LINE
  5
1B1
330
1A9
100
AcDbEntity
  8
0
 62
7
100
AcDbLine
 10
1680.0
 20
-1980.00000000032
 30
0.0
 11
1680.0
 21
-2100.00000000032
 31
0.0
  0
LINE
  5
1B2
330
1A9
100
AcDbEntity
  8
0
 62
7
100
AcDbLine
 10
2020.0
 20
-1980.00000000032
 30
0.0
 11
2020.0
 21
-2100.00000000032
 31
0.0
  0
LINE
  5
1B3
330
1A9
100
AcDbEntity
  8
0
 62
7
100
AcDbLine
 10
2860.000000000422
 20
-1980.00000000032
 30
0.0
 11
2860.000000000422
 21
-2100.00000000032
 31
0.0
  0
MTEXT
  5
1B4
330
1A9
100
AcDbEntity
  8
0
 62
2
100
AcDbMText
 10
0.0
 20
-2010.00000000032
 30
0.0
 40
20.0
 41
917.6339389950801
 46
60.00000000000113
 71
4
 72
5
  1
  Thiết kế :
  7
Arial
  0
MTEXT
  5
1B5
330
1A9
100
AcDbEntity
  8
0
 62
2
100
AcDbMText
 10
0.0
 20
-2070.00000000032
 30
0.0
 40
20.0
 41
917.6339389950801
 46
60.00000000000113
 71
4
 72
5
  1
  CNC :
  7
Arial
  0
MTEXT
  5
1B6
330
1A9
100
AcDbEntity
  8
0
 62
2
100
AcDbMText
 10
320.0
 20
-2010.00000000032
 30
0.0
 40
20.0
 41
917.6339389950801
 46
60.00000000000113
 71
4
 72
5
  1
  Khách hàng :
  7
Arial
  0
MTEXT
  5
1B7
330
1A9
100
AcDbEntity
  8
0
 62
2
100
AcDbMText
 10
320.0
 20
-2070.00000000032
 30
0.0
 40
20.0
 41
917.6339389950801
 46
60.00000000000113
 71
4
 72
5
  1
  Giao hàng :
  7
Arial
  0
MTEXT
  5
1B8
330
1A9
100
AcDbEntity
  8
0
 62
2
100
AcDbMText
 10
890.0
 20
-2010.00000000032
 30
0.0
 40
20.0
 41
917.6339389950801
 46
60.00000000000113
 71
4
 72
5
  1
  Tên sản phẩm :
  7
Arial
  0
MTEXT
  5
1B9
330
1A9
100
AcDbEntity
  8
0
 62
2
100
AcDbMText
 10
890.0
 20
-2070.00000000032
 30
0.0
 40
20.0
 41
917.6339389950801
 46
60.00000000000113
 71
4
 72
5
  1
  Kích thước :
  7
Arial
  0
MTEXT
  5
1BA
330
1A9
100
AcDbEntity
  8
0
 62
2
100
AcDbMText
 10
1680.0
 20
-2010.00000000032
 30
0.0
 40
20.0
 41
917.6339389950801
 46
60.00000000000113
 71
4
 72
5
  1
  Số lượng :
  7
Arial
  0
MTEXT
  5
1BB
330
1A9
100
AcDbEntity
  8
0
 62
2
100
AcDbMText
 10
1680.0
 20
-2070.00000000032
 30
0.0
 40
20.0
 41
917.6339389950801
 46
60.00000000000113
 71
4
 72
5
  1
  Loại tôn :
  7
Arial
  0
MTEXT
  5
1BC
330
1A9
100
AcDbEntity
  8
0
 62
2
100
AcDbMText
 10
2074.15528161102
 20
-2040.00000000032
 30
0.0
 40
20.0
 41
108.3105632220314
 46
120.0000000000011
 71
5
 72
5
  1
Thông\Ptin :
  7
Arial
  0
MTEXT
  5
1BD
330
1A9
100
AcDbEntity
  8
0
 62
2
100
AcDbMText
 10
2915.000000000422
 20
-2010.00000000032
 30
0.0
 40
20.0
 41
110.0000000000065
 46
60.00000000000113
 71
5
 72
5
  1
Tờ
  7
Arial
  0
LINE
  5
1BE
330
1A9
100
AcDbEntity
  8
0
 62
7
100
AcDbLine
 10
2128.310563222025
 20
-2005.00000000032
 30
0.0
 11
2128.310563222025
 21
-2075.00000000032
 31
0.0
  0
MTEXT
  5
1BF
330
1A9
100
AcDbEntity
  8
0
 62
2
100
AcDbMText
 10
1382.285678836575
 20
-2070.00000000032
 30
0.0
 40
20.0
 41
917.6339389950801
 46
60.00000000000113
 71
4
 72
5
  1
mm
  7
Arial
  0
MTEXT
  5
1C0
330
1A9
100
AcDbEntity
  8
0
 62
2
100
AcDbMText
 10
1947.610064813329
 20
-2010.00000000032
 30
0.0
 40
20.0
 41
917.6339389950801
 46
60.00000000000113
 71
4
 72
5
  1
cái
  7
Arial
  0
MTEXT
  5
1C1
330
1A9
100
AcDbEntity
  8
0
 62
2
100
AcDbMText
 10
1936.880410494836
 20
-2070.00000000032
 30
0.0
 40
20.0
 41
917.6339389950801
 46
60.00000000000113
 71
4
 72
5
  1
mm
  7
Arial
  0
ATTDEF
  5
1C2
330
1A9
100
AcDbEntity
  8
0
 62
1
100
AcDbText
 10
2883.764212945627
 20
-2067.347800104843
 30
0.0
 40
25.0
  1
......
  7
Tahoma (Input Text)
 72
1
 11
2914.993225705868
 21
-2067.347800104843
 31
0.0
100
AcDbAttributeDefinition
  3
Số trang
  2
#11
 70
8
 71
1
 72
0
 11
2914.993225705868
 21
-2067.347800104843
 31
0.0
  0
ATTDEF
  5
1C3
330
1A9
100
AcDbEntity
  8
0
 62
1
100
AcDbText
 10
2146.716977487464
 20
-2021.275211692002
 30
0.0
 40
25.0
  1
......
  7
Tahoma (Input Text)
100
AcDbAttributeDefinition
  3
Thông tin 1
  2
#09
 70
8
 71
1
 72
0
  0
ATTDEF
  5
1C4
330
1A9
100
AcDbEntity
  8
0
 62
1
100
AcDbText
 10
2146.716977487464
 20
-2081.275211692002
 30
0.0
 40
25.0
  1
......
  7
Tahoma (Input Text)
100
AcDbAttributeDefinition
  3
Thông tin 2
  2
#10
 70
8
 71
1
 72
0
  0
ATTDEF
  5
1C5
330
1A9
100
AcDbEntity
  8
0
 62
1
100
AcDbText
 10
1817.447765733334
 20
-2081.275211692002
 30
0.0
 40
25.0
  1
......
  7
Tahoma (Input Text)
100
AcDbAttributeDefinition
  3
Loại tôn
  2
#08
 70
8
 71
1
 72
0
  0
ATTDEF
  5
1C6
330
1A9
100
AcDbEntity
  8
0
 62
1
100
AcDbText
 10
1834.68151032555
 20
-2021.275211692002
 30
0.0
 40
25.0
  1
......
  7
Tahoma (Input Text)
100
AcDbAttributeDefinition
  3
Số lượng
  2
#07
 70
8
 71
1
 72
0
  0
ATTDEF
  5
1C7
330
1A9
100
AcDbEntity
  8
0
 62
1
100
AcDbText
 10
1065.330889143646
 20
-2081.275211692002
 30
0.0
 40
25.0
  1
......
  7
Tahoma (Input Text)
100
AcDbAttributeDefinition
  3
Kích thước
  2
#06
 70
8
 71
1
 72
0
  0
ATTDEF
  5
1C8
330
1A9
100
AcDbEntity
  8
0
 62
1
100
AcDbText
 10
1106.628177122154
 20
-2021.275211692002
 30
0.0
 40
25.0
  1
......
  7
Tahoma (Input Text)
100
AcDbAttributeDefinition
  3
Tên s.phẩm
  2
#05
 70
8
 71
1
 72
0
  0
ATTDEF
  5
1C9
330
1A9
100
AcDbEntity
  8
0
 62
1
100
AcDbText
 10
486.1050270054984
 20
-2081.275211692002
 30
0.0
 40
25.0
  1
......
  7
Tahoma (Input Text)
100
AcDbAttributeDefinition
  3
Giao hàng
  2
#04
 70
8
 71
1
 72
0
  0
ATTDEF
  5
1CA
330
1A9
100
AcDbEntity
  8
0
 62
1
100
AcDbText
 10
506.5707489467022
 20
-2019.301600489707
 30
0.0
 40
25.0
  1
......
  7
Tahoma (Input Text)
100
AcDbAttributeDefinition
  3
Khách hàng
  2
#03
 70
8
 71
1
 72
0
  0
ATTDEF
  5
1CB
330
1A9
100
AcDbEntity
  8
0
 62
1
100
AcDbText
 10
98.45672450316488
 20
-2081.275211692002
 30
0.0
 40
25.0
  1
......
  7
Tahoma (Input Text)
100
AcDbAttributeDefinition
  3
CNC
  2
#02
 70
8
 71
1
 72
0
  0
ATTDEF
  5
1CC
330
1A9
100
AcDbEntity
  8
0
 62
1
100
AcDbText
 10
137.0535078375105
 20
-2021.275211692002
 30
0.0
 40
25.0
  1
......
  7
Tahoma (Input Text)
100
AcDbAttributeDefinition
  3
Thiết kế
  2
#01
 70
8
 71
1
 72
0
  0
ENDBLK
  5
1AB
330
1A9
100
AcDbEntity
  8
0
100
AcDbBlockEnd
  0
BLOCK
  5
1CE
330
1CD
100
AcDbEntity
  8
0
100
AcDbBlockBegin
  2
f3daunguoc
 70
0
 10
0.0
 20
0.0
 30
0.0
  3
f3daunguoc
  1

  0
CIRCLE
  5
1D0
330
1CD
100
AcDbEntity
  8
CNC
 62
2
370
-3
100
AcDbCircle
 10
0.0
 20
0.0
 30
0.0
 40
1.5
  0
ENDBLK
  5
1CF
330
1CD
100
AcDbEntity
  8
0
100
AcDbBlockEnd
  0
BLOCK
  5
1D2
330
1D1
100
AcDbEntity
  8
0
100
AcDbBlockBegin
  2
ovan8.5x20
 70
0
 10
0.0
 20
0.0
 30
0.0
  3
ovan8.5x20
  1

  0
ARC
  5
1D4
330
1D1
100
AcDbEntity
  8
CNC
 62
2
370
-3
100
AcDbCircle
 10
-5.750000000007275
 20
0.0
 30
0.0
 40
4.25
100
AcDbArc
 50
90.0
 51
270.0
  0
ARC
  5
1D5
330
1D1
100
AcDbEntity
  8
CNC
 62
2
370
-3
100
AcDbCircle
 10
5.749999999992724
 20
0.0
 30
0.0
 40
4.25
100
AcDbArc
 50
270.0
 51
90.0
  0
LINE
  5
1D6
330
1D1
100
AcDbEntity
  8
CNC
 62
2
370
-3
100
AcDbLine
 10
5.749999999992724
 20
4.25
 30
0.0
 11
-5.750000000007275
 21
4.25
 31
0.0
  0
LINE
  5
1D7
330
1D1
100
AcDbEntity
  8
CNC
 62
2
370
-3
100
AcDbLine
 10
-5.750000000007275
 20
-4.25
 30
0.0
 11
5.749999999992724
 21
-4.25
 31
0.0
  0
ENDBLK
  5
1D3
330
1D1
100
AcDbEntity
  8
0
100
AcDbBlockEnd
  0
BLOCK
  5
228
330
227
100
AcDbEntity
  8
0
100
AcDbBlockBegin
  2
*D1
 70
1
 10
0.0
 20
0.0
 30
0.0
  3
*D1
  1

  0
LINE
  5
22A
330
227
100
AcDbEntity
  8
DIM
 62
5
370
9
440
16777216
100
AcDbLine
 10
270.2952048208972
 20
2277.546788417466
 30
0.0
 11
270.2952048208972
 21
2339.960941053426
 31
0.0
  0
LINE
  5
22B
330
227
100
AcDbEntity
  8
DIM
 62
5
370
9
440
16777216
100
AcDbLine
 10
541.2952048208972
 20
2277.546788417466
 30
0.0
 11
541.2952048208972
 21
2339.960941053426
 31
0.0
  0
LINE
  5
22C
330
227
100
AcDbEntity
  8
DIM
 62
5
370
9
440
16777216
100
AcDbLine
 10
270.2952048208972
 20
2329.960941053426
 30
0.0
 11
541.2952048208972
 21
2329.960941053426
 31
0.0
  0
LINE
  5
22D
330
227
100
AcDbEntity
  8
0
  6
ByBlock
 62
0
370
-2
100
AcDbLine
 10
274.2952048208972
 20
2333.960941053426
 30
0.0
 11
266.2952048208972
 21
2325.960941053426
 31
0.0
  0
LINE
  5
22E
330
227
100
AcDbEntity
  8
0
  6
ByBlock
 62
0
370
-2
100
AcDbLine
 10
537.2952048208972
 20
2325.960941053426
 30
0.0
 11
545.2952048208972
 21
2333.960941053426
 31
0.0
  0
MTEXT
  5
22F
330
227
100
AcDbEntity
  8
DIM
 62
3
440
16777216
100
AcDbMText
 10
406.2952048208972
 20
2352.5121006714335
 30
0.0
 40
25.0
 41
0.0
 46
0.0
 71
5
  1
271
  0
POINT
  5
230
330
227
100
AcDbEntity
  8
Defpoints
 62
0
440
16777216
100
AcDbPoint
 10
270.2952048208972
 20
2262.546788417466
 30
0.0
  0
POINT
  5
231
330
227
100
AcDbEntity
  8
Defpoints
 62
0
440
16777216
100
AcDbPoint
 10
541.2952048208972
 20
2262.546788417466
 30
0.0
  0
POINT
  5
232
330
227
100
AcDbEntity
  8
Defpoints
 62
0
440
16777216
100
AcDbPoint
 10
541.2952048208972
 20
2329.960941053426
 30
0.0
  0
ENDBLK
  5
229
330
227
100
AcDbEntity
  8
0
100
AcDbBlockEnd
  0
BLOCK
  5
234
330
233
100
AcDbEntity
  8
0
100
AcDbBlockBegin
  2
*D2
 70
1
 10
0.0
 20
0.0
 30
0.0
  3
*D2
  1

  0
LINE
  5
236
330
233
100
AcDbEntity
  8
DIM
 62
5
370
9
440
16777216
100
AcDbLine
 10
541.2952048208972
 20
2277.546788417466
 30
0.0
 11
541.2952048208972
 21
2339.960941053426
 31
0.0
  0
LINE
  5
237
330
233
100
AcDbEntity
  8
DIM
 62
5
370
9
440
16777216
100
AcDbLine
 10
571.2952048208972
 20
2247.546788417466
 30
0.0
 11
571.2952048208972
 21
2339.960941053426
 31
0.0
  0
LINE
  5
238
330
233
100
AcDbEntity
  8
DIM
 62
5
370
9
440
16777216
100
AcDbLine
 10
541.2952048208972
 20
2329.960941053426
 30
0.0
 11
571.2952048208972
 21
2329.960941053426
 31
0.0
  0
LINE
  5
239
330
233
100
AcDbEntity
  8
0
  6
ByBlock
 62
0
370
-2
100
AcDbLine
 10
545.2952048208972
 20
2333.960941053426
 30
0.0
 11
537.2952048208972
 21
2325.960941053426
 31
0.0
  0
LINE
  5
23A
330
233
100
AcDbEntity
  8
0
  6
ByBlock
 62
0
370
-2
100
AcDbLine
 10
567.2952048208972
 20
2325.960941053426
 30
0.0
 11
575.2952048208972
 21
2333.960941053426
 31
0.0
  0
MTEXT
  5
23B
330
233
100
AcDbEntity
  8
DIM
 62
3
440
16777216
100
AcDbMText
 10
556.2952048208972
 20
2352.733792349469
 30
0.0
 40
25.0
 41
0.0
 46
0.0
 71
5
  1
30
  0
POINT
  5
23C
330
233
100
AcDbEntity
  8
Defpoints
 62
0
440
16777216
100
AcDbPoint
 10
541.2952048208972
 20
2262.546788417466
 30
0.0
  0
POINT
  5
23D
330
233
100
AcDbEntity
  8
Defpoints
 62
0
440
16777216
100
AcDbPoint
 10
571.2952048208972
 20
2232.546788417466
 30
0.0
  0
POINT
  5
23E
330
233
100
AcDbEntity
  8
Defpoints
 62
0
440
16777216
100
AcDbPoint
 10
571.2952048208972
 20
2329.960941053426
 30
0.0
  0
ENDBLK
  5
235
330
233
100
AcDbEntity
  8
0
100
AcDbBlockEnd
  0
BLOCK
  5
240
330
23F
100
AcDbEntity
  8
0
100
AcDbBlockBegin
  2
*D3
 70
1
 10
0.0
 20
0.0
 30
0.0
  3
*D3
  1

  0
LINE
  5
242
330
23F
100
AcDbEntity
  8
DIM
 62
5
370
9
440
16777216
100
AcDbLine
 10
571.2952048208972
 20
2247.546788417466
 30
0.0
 11
571.2952048208972
 21
2339.960941053426
 31
0.0
  0
LINE
  5
243
330
23F
100
AcDbEntity
  8
DIM
 62
5
370
9
440
16777216
100
AcDbLine
 10
583.2952048208972
 20
2247.546788417466
 30
0.0
 11
583.2952048208972
 21
2339.960941053426
 31
0.0
  0
LINE
  5
244
330
23F
100
AcDbEntity
  8
DIM
 62
5
370
9
440
16777216
100
AcDbLine
 10
571.2952048208972
 20
2329.960941053426
 30
0.0
 11
563.2952048208972
 21
2329.960941053426
 31
0.0
  0
LINE
  5
245
330
23F
100
AcDbEntity
  8
DIM
 62
5
370
9
440
16777216
100
AcDbLine
 10
583.2952048208972
 20
2329.960941053426
 30
0.0
 11
652.4977969081956
 21
2329.960941053426
 31
0.0
  0
LINE
  5
246
330
23F
100
AcDbEntity
  8
DIM
 62
5
370
9
440
16777216
100
AcDbLine
 10
571.2952048208972
 20
2329.960941053426
 30
0.0
 11
583.2952048208972
 21
2329.960941053426
 31
0.0
  0
LINE
  5
247
330
23F
100
AcDbEntity
  8
0
  6
ByBlock
 62
0
370
-2
100
AcDbLine
 10
567.2952048208972
 20
2325.960941053426
 30
0.0
 11
575.2952048208972
 21
2333.960941053426
 31
0.0
  0
LINE
  5
248
330
23F
100
AcDbEntity
  8
0
  6
ByBlock
 62
0
370
-2
100
AcDbLine
 10
587.2952048208972
 20
2333.960941053426
 30
0.0
 11
579.2952048208972
 21
2325.960941053426
 31
0.0
  0
MTEXT
  5
249
330
23F
100
AcDbEntity
  8
DIM
 62
3
440
16777216
100
AcDbMText
 10
625.89650086459
 20
2352.5121006714335
 30
0.0
 40
25.0
 41
0.0
 46
0.0
 71
5
  1
12
  0
POINT
  5
24A
330
23F
100
AcDbEntity
  8
Defpoints
 62
0
440
16777216
100
AcDbPoint
 10
571.2952048208972
 20
2232.546788417466
 30
0.0
  0
POINT
  5
24B
330
23F
100
AcDbEntity
  8
Defpoints
 62
0
440
16777216
100
AcDbPoint
 10
583.2952048208972
 20
2232.546788417466
 30
0.0
  0
POINT
  5
24C
330
23F
100
AcDbEntity
  8
Defpoints
 62
0
440
16777216
100
AcDbPoint
 10
583.2952048208972
 20
2329.960941053426
 30
0.0
  0
ENDBLK
  5
241
330
23F
100
AcDbEntity
  8
0
100
AcDbBlockEnd
  0
BLOCK
  5
24E
330
24D
100
AcDbEntity
  8
0
100
AcDbBlockBegin
  2
*D4
 70
1
 10
0.0
 20
0.0
 30
0.0
  3
*D4
  1

  0
LINE
  5
250
330
24D
100
AcDbEntity
  8
DIM
 62
5
370
9
440
16777216
100
AcDbLine
 10
230.2952048208972
 20
1349.9467884174744
 30
0.0
 11
230.2952048208972
 21
1288.7206693576961
 31
0.0
  0
LINE
  5
251
330
24D
100
AcDbEntity
  8
DIM
 62
5
370
9
440
16777216
100
AcDbLine
 10
583.2952048208972
 20
1379.9467884174744
 30
0.0
 11
583.2952048208972
 21
1288.7206693576961
 31
0.0
  0
LINE
  5
252
330
24D
100
AcDbEntity
  8
DIM
 62
5
370
9
440
16777216
100
AcDbLine
 10
230.2952048208972
 20
1298.7206693576961
 30
0.0
 11
583.2952048208972
 21
1298.7206693576961
 31
0.0
  0
LINE
  5
253
330
24D
100
AcDbEntity
  8
0
  6
ByBlock
 62
0
370
-2
100
AcDbLine
 10
234.2952048208972
 20
1302.7206693576961
 30
0.0
 11
226.2952048208972
 21
1294.7206693576961
 31
0.0
  0
LINE
  5
254
330
24D
100
AcDbEntity
  8
0
  6
ByBlock
 62
0
370
-2
100
AcDbLine
 10
579.2952048208972
 20
1294.7206693576961
 30
0.0
 11
587.2952048208972
 21
1302.7206693576961
 31
0.0
  0
MTEXT
  5
255
330
24D
100
AcDbEntity
  8
DIM
 62
3
440
16777216
100
AcDbMText
 10
406.7952048208972
 20
1321.4935206537398
 30
0.0
 40
25.0
 41
0.0
 46
0.0
 71
5
  1
353
  0
POINT
  5
256
330
24D
100
AcDbEntity
  8
Defpoints
 62
0
440
16777216
100
AcDbPoint
 10
230.2952048208972
 20
1364.9467884174744
 30
0.0
  0
POINT
  5
257
330
24D
100
AcDbEntity
  8
Defpoints
 62
0
440
16777216
100
AcDbPoint
 10
583.2952048208972
 20
1394.9467884174744
 30
0.0
  0
POINT
  5
258
330
24D
100
AcDbEntity
  8
Defpoints
 62
0
440
16777216
100
AcDbPoint
 10
583.2952048208972
 20
1298.7206693576961
 30
0.0
  0
ENDBLK
  5
24F
330
24D
100
AcDbEntity
  8
0
100
AcDbBlockEnd
  0
BLOCK
  5
25A
330
259
100
AcDbEntity
  8
0
100
AcDbBlockBegin
  2
*D5
 70
1
 10
0.0
 20
0.0
 30
0.0
  3
*D5
  1

  0
LINE
  5
25C
330
259
100
AcDbEntity
  8
DIM
 62
5
370
9
440
16777216
100
AcDbLine
 10
270.2952048208972
 20
2277.546788417466
 30
0.0
 11
270.2952048208972
 21
2339.960941053426
 31
0.0
  0
LINE
  5
25D
330
259
100
AcDbEntity
  8
DIM
 62
5
370
9
440
16777216
100
AcDbLine
 10
240.2952048208972
 20
2277.546788417466
 30
0.0
 11
240.2952048208972
 21
2339.960941053426
 31
0.0
  0
LINE
  5
25E
330
259
100
AcDbEntity
  8
DIM
 62
5
370
9
440
16777216
100
AcDbLine
 10
270.2952048208972
 20
2329.960941053426
 30
0.0
 11
240.2952048208972
 21
2329.960941053426
 31
0.0
  0
LINE
  5
25F
330
259
100
AcDbEntity
  8
0
  6
ByBlock
 62
0
370
-2
100
AcDbLine
 10
266.2952048208972
 20
2325.960941053426
 30
0.0
 11
274.2952048208972
 21
2333.960941053426
 31
0.0
  0
LINE
  5
260
330
259
100
AcDbEntity
  8
0
  6
ByBlock
 62
0
370
-2
100
AcDbLine
 10
244.2952048208972
 20
2333.960941053426
 30
0.0
 11
236.2952048208972
 21
2325.960941053426
 31
0.0
  0
MTEXT
  5
261
330
259
100
AcDbEntity
  8
DIM
 62
3
440
16777216
100
AcDbMText
 10
255.2952048208972
 20
2352.733792349469
 30
0.0
 40
25.0
 41
0.0
 46
0.0
 71
5
  1
30
  0
POINT
  5
262
330
259
100
AcDbEntity
  8
Defpoints
 62
0
440
16777216
100
AcDbPoint
 10
270.2952048208972
 20
2262.546788417466
 30
0.0
  0
POINT
  5
263
330
259
100
AcDbEntity
  8
Defpoints
 62
0
440
16777216
100
AcDbPoint
 10
240.2952048208972
 20
2262.546788417466
 30
0.0
  0
POINT
  5
264
330
259
100
AcDbEntity
  8
Defpoints
 62
0
440
16777216
100
AcDbPoint
 10
240.2952048208972
 20
2329.960941053426
 30
0.0
  0
ENDBLK
  5
25B
330
259
100
AcDbEntity
  8
0
100
AcDbBlockEnd
  0
BLOCK
  5
266
330
265
100
AcDbEntity
  8
0
100
AcDbBlockBegin
  2
*D6
 70
1
 10
0.0
 20
0.0
 30
0.0
  3
*D6
  1

  0
LINE
  5
268
330
265
100
AcDbEntity
  8
DIM
 62
5
370
9
440
16777216
100
AcDbLine
 10
240.2952048208972
 20
2277.546788417466
 30
0.0
 11
240.2952048208972
 21
2339.960941053426
 31
0.0
  0
LINE
  5
269
330
265
100
AcDbEntity
  8
DIM
 62
5
370
9
440
16777216
100
AcDbLine
 10
230.2952048208972
 20
2277.546788417466
 30
0.0
 11
230.2952048208972
 21
2339.960941053426
 31
0.0
  0
LINE
  5
26A
330
265
100
AcDbEntity
  8
DIM
 62
5
370
9
440
16777216
100
AcDbLine
 10
240.2952048208972
 20
2329.960941053426
 30
0.0
 11
248.2952048208972
 21
2329.960941053426
 31
0.0
  0
LINE
  5
26B
330
265
100
AcDbEntity
  8
DIM
 62
5
370
9
440
16777216
100
AcDbLine
 10
230.2952048208972
 20
2329.960941053426
 30
0.0
 11
160.92208067359752
 21
2329.960941053426
 31
0.0
  0
LINE
  5
26C
330
265
100
AcDbEntity
  8
DIM
 62
5
370
9
440
16777216
100
AcDbLine
 10
240.2952048208972
 20
2329.960941053426
 30
0.0
 11
230.2952048208972
 21
2329.960941053426
 31
0.0
  0
LINE
  5
26D
330
265
100
AcDbEntity
  8
0
  6
ByBlock
 62
0
370
-2
100
AcDbLine
 10
244.2952048208972
 20
2333.960941053426
 30
0.0
 11
236.2952048208972
 21
2325.960941053426
 31
0.0
  0
LINE
  5
26E
330
265
100
AcDbEntity
  8
0
  6
ByBlock
 62
0
370
-2
100
AcDbLine
 10
226.2952048208972
 20
2325.960941053426
 30
0.0
 11
234.2952048208972
 21
2333.960941053426
 31
0.0
  0
MTEXT
  5
26F
330
265
100
AcDbEntity
  8
DIM
 62
3
440
16777216
100
AcDbMText
 10
187.60864274718915
 20
2352.725265746468
 30
0.0
 40
25.0
 41
0.0
 46
0.0
 71
5
  1
10
  0
POINT
  5
270
330
265
100
AcDbEntity
  8
Defpoints
 62
0
440
16777216
100
AcDbPoint
 10
240.2952048208972
 20
2262.546788417466
 30
0.0
  0
POINT
  5
271
330
265
100
AcDbEntity
  8
Defpoints
 62
0
440
16777216
100
AcDbPoint
 10
230.2952048208972
 20
2262.546788417466
 30
0.0
  0
POINT
  5
272
330
265
100
AcDbEntity
  8
Defpoints
 62
0
440
16777216
100
AcDbPoint
 10
230.2952048208972
 20
2329.960941053426
 30
0.0
  0
ENDBLK
  5
267
330
265
100
AcDbEntity
  8
0
100
AcDbBlockEnd
  0
BLOCK
  5
274
330
273
100
AcDbEntity
  8
0
100
AcDbBlockBegin
  2
*D7
 70
1
 10
0.0
 20
0.0
 30
0.0
  3
*D7
  1

  0
LINE
  5
276
330
273
100
AcDbEntity
  8
DIM
 62
5
370
9
 48
3.0
440
16777216
100
AcDbLine
 10
215.2952048208972
 20
2262.546788417466
 30
0.0
 11
149.66909719479736
 21
2262.546788417466
 31
0.0
  0
LINE
  5
277
330
273
100
AcDbEntity
  8
DIM
 62
5
370
9
 48
3.0
440
16777216
100
AcDbLine
 10
215.2952048208972
 20
1364.9467884174744
 30
0.0
 11
149.66909719479736
 21
1364.9467884174744
 31
0.0
  0
LINE
  5
278
330
273
100
AcDbEntity
  8
DIM
 62
5
370
9
 48
3.0
440
16777216
100
AcDbLine
 10
159.66909719479736
 20
2262.546788417466
 30
0.0
 11
159.66909719479736
 21
1364.9467884174744
 31
0.0
  0
LINE
  5
279
330
273
100
AcDbEntity
  8
0
  6
ByBlock
 62
0
370
-2
100
AcDbLine
 10
163.66909719479736
 20
2258.546788417466
 30
0.0
 11
155.66909719479736
 21
2266.546788417466
 31
0.0
  0
LINE
  5
27A
330
273
100
AcDbEntity
  8
0
  6
ByBlock
 62
0
370
-2
100
AcDbLine
 10
155.66909719479736
 20
1368.9467884174744
 30
0.0
 11
163.66909719479736
 21
1360.9467884174744
 31
0.0
  0
MTEXT
  5
27B
330
273
100
AcDbEntity
  8
DIM
 62
3
 48
3.0
440
16777216
100
AcDbMText
 10
136.9047725017881
 20
1813.7467884174926
 30
0.0
 40
25.0
 41
0.0
 46
0.0
 71
5
  1
898
 11
1e-16
 21
1.0
 31
0.0
  0
POINT
  5
27C
330
273
100
AcDbEntity
  8
Defpoints
 62
0
 48
3.0
440
16777216
100
AcDbPoint
 10
230.2952048208972
 20
2262.546788417466
 30
0.0
  0
POINT
  5
27D
330
273
100
AcDbEntity
  8
Defpoints
 62
0
 48
3.0
440
16777216
100
AcDbPoint
 10
230.2952048208972
 20
1364.9467884174744
 30
0.0
  0
POINT
  5
27E
330
273
100
AcDbEntity
  8
Defpoints
 62
0
 48
3.0
440
16777216
100
AcDbPoint
 10
159.66909719479736
 20
1364.9467884174744
 30
0.0
  0
ENDBLK
  5
275
330
273
100
AcDbEntity
  8
0
100
AcDbBlockEnd
  0
BLOCK
  5
280
330
27F
100
AcDbEntity
  8
0
100
AcDbBlockBegin
  2
*D8
 70
1
 10
0.0
 20
0.0
 30
0.0
  3
*D8
  1

  0
LINE
  5
282
330
27F
100
AcDbEntity
  8
DIM
 62
5
370
9
440
16777216
100
AcDbLine
 10
1756.647173571284
 20
2277.546788417466
 30
0.0
 11
1756.647173571284
 21
2339.960941053426
 31
0.0
  0
LINE
  5
283
330
27F
100
AcDbEntity
  8
DIM
 62
5
370
9
440
16777216
100
AcDbLine
 10
1485.647173571284
 20
2277.546788417466
 30
0.0
 11
1485.647173571284
 21
2339.960941053426
 31
0.0
  0
LINE
  5
284
330
27F
100
AcDbEntity
  8
DIM
 62
5
370
9
440
16777216
100
AcDbLine
 10
1756.647173571284
 20
2329.960941053426
 30
0.0
 11
1485.647173571284
 21
2329.960941053426
 31
0.0
  0
LINE
  5
285
330
27F
100
AcDbEntity
  8
0
  6
ByBlock
 62
0
370
-2
100
AcDbLine
 10
1752.647173571284
 20
2325.960941053426
 30
0.0
 11
1760.647173571284
 21
2333.960941053426
 31
0.0
  0
LINE
  5
286
330
27F
100
AcDbEntity
  8
0
  6
ByBlock
 62
0
370
-2
100
AcDbLine
 10
1489.647173571284
 20
2333.960941053426
 30
0.0
 11
1481.647173571284
 21
2325.960941053426
 31
0.0
  0
MTEXT
  5
287
330
27F
100
AcDbEntity
  8
DIM
 62
3
440
16777216
100
AcDbMText
 10
1620.647173571284
 20
2352.5121006714335
 30
0.0
 40
25.0
 41
0.0
 46
0.0
 71
5
  1
271
  0
POINT
  5
288
330
27F
100
AcDbEntity
  8
Defpoints
 62
0
440
16777216
100
AcDbPoint
 10
1756.647173571284
 20
2262.546788417466
 30
0.0
  0
POINT
  5
289
330
27F
100
AcDbEntity
  8
Defpoints
 62
0
440
16777216
100
AcDbPoint
 10
1485.647173571284
 20
2262.546788417466
 30
0.0
  0
POINT
  5
28A
330
27F
100
AcDbEntity
  8
Defpoints
 62
0
440
16777216
100
AcDbPoint
 10
1485.647173571284
 20
2329.960941053426
 30
0.0
  0
ENDBLK
  5
281
330
27F
100
AcDbEntity
  8
0
100
AcDbBlockEnd
  0
BLOCK
  5
28C
330
28B
100
AcDbEntity
  8
0
100
AcDbBlockBegin
  2
*D9
 70
1
 10
0.0
 20
0.0
 30
0.0
  3
*D9
  1

  0
LINE
  5
28E
330
28B
100
AcDbEntity
  8
DIM
 62
5
370
9
440
16777216
100
AcDbLine
 10
1485.647173571284
 20
2277.546788417466
 30
0.0
 11
1485.647173571284
 21
2339.960941053426
 31
0.0
  0
LINE
  5
28F
330
28B
100
AcDbEntity
  8
DIM
 62
5
370
9
440
16777216
100
AcDbLine
 10
1455.647173571284
 20
2247.546788417466
 30
0.0
 11
1455.647173571284
 21
2339.960941053426
 31
0.0
  0
LINE
  5
290
330
28B
100
AcDbEntity
  8
DIM
 62
5
370
9
440
16777216
100
AcDbLine
 10
1485.647173571284
 20
2329.960941053426
 30
0.0
 11
1455.647173571284
 21
2329.960941053426
 31
0.0
  0
LINE
  5
291
330
28B
100
AcDbEntity
  8
0
  6
ByBlock
 62
0
370
-2
100
AcDbLine
 10
1481.647173571284
 20
2325.960941053426
 30
0.0
 11
1489.647173571284
 21
2333.960941053426
 31
0.0
  0
LINE
  5
292
330
28B
100
AcDbEntity
  8
0
  6
ByBlock
 62
0
370
-2
100
AcDbLine
 10
1459.647173571284
 20
2333.960941053426
 30
0.0
 11
1451.647173571284
 21
2325.960941053426
 31
0.0
  0
MTEXT
  5
293
330
28B
100
AcDbEntity
  8
DIM
 62
3
440
16777216
100
AcDbMText
 10
1470.647173571284
 20
2352.733792349469
 30
0.0
 40
25.0
 41
0.0
 46
0.0
 71
5
  1
30
  0
POINT
  5
294
330
28B
100
AcDbEntity
  8
Defpoints
 62
0
440
16777216
100
AcDbPoint
 10
1485.647173571284
 20
2262.546788417466
 30
0.0
  0
POINT
  5
295
330
28B
100
AcDbEntity
  8
Defpoints
 62
0
440
16777216
100
AcDbPoint
 10
1455.647173571284
 20
2232.546788417466
 30
0.0
  0
POINT
  5
296
330
28B
100
AcDbEntity
  8
Defpoints
 62
0
440
16777216
100
AcDbPoint
 10
1455.647173571284
 20
2329.960941053426
 30
0.0
  0
ENDBLK
  5
28D
330
28B
100
AcDbEntity
  8
0
100
AcDbBlockEnd
  0
BLOCK
  5
298
330
297
100
AcDbEntity
  8
0
100
AcDbBlockBegin
  2
*D10
 70
1
 10
0.0
 20
0.0
 30
0.0
  3
*D10
  1

  0
LINE
  5
29A
330
297
100
AcDbEntity
  8
DIM
 62
5
370
9
440
16777216
100
AcDbLine
 10
1455.647173571284
 20
2247.546788417466
 30
0.0
 11
1455.647173571284
 21
2339.960941053426
 31
0.0
  0
LINE
  5
29B
330
297
100
AcDbEntity
  8
DIM
 62
5
370
9
440
16777216
100
AcDbLine
 10
1443.647173571284
 20
2247.546788417466
 30
0.0
 11
1443.647173571284
 21
2339.960941053426
 31
0.0
  0
LINE
  5
29C
330
297
100
AcDbEntity
  8
DIM
 62
5
370
9
440
16777216
100
AcDbLine
 10
1455.647173571284
 20
2329.960941053426
 30
0.0
 11
1463.647173571284
 21
2329.960941053426
 31
0.0
  0
LINE
  5
29D
330
297
100
AcDbEntity
  8
DIM
 62
5
370
9
440
16777216
100
AcDbLine
 10
1443.647173571284
 20
2329.960941053426
 30
0.0
 11
1374.4445814839855
 21
2329.960941053426
 31
0.0
  0
LINE
  5
29E
330
297
100
AcDbEntity
  8
DIM
 62
5
370
9
440
16777216
100
AcDbLine
 10
1455.647173571284
 20
2329.960941053426
 30
0.0
 11
1443.647173571284
 21
2329.960941053426
 31
0.0
  0
LINE
  5
29F
330
297
100
AcDbEntity
  8
0
  6
ByBlock
 62
0
370
-2
100
AcDbLine
 10
1459.647173571284
 20
2333.960941053426
 30
0.0
 11
1451.647173571284
 21
2325.960941053426
 31
0.0
  0
LINE
  5
2A0
330
297
100
AcDbEntity
  8
0
  6
ByBlock
 62
0
370
-2
100
AcDbLine
 10
1439.647173571284
 20
2325.960941053426
 30
0.0
 11
1447.647173571284
 21
2333.960941053426
 31
0.0
  0
MTEXT
  5
2A1
330
297
100
AcDbEntity
  8
DIM
 62
3
440
16777216
100
AcDbMText
 10
1401.045877527591
 20
2352.5121006714335
 30
0.0
 40
25.0
 41
0.0
 46
0.0
 71
5
  1
12
  0
POINT
  5
2A2
330
297
100
AcDbEntity
  8
Defpoints
 62
0
440
16777216
100
AcDbPoint
 10
1455.647173571284
 20
2232.546788417466
 30
0.0
  0
POINT
  5
2A3
330
297
100
AcDbEntity
  8
Defpoints
 62
0
440
16777216
100
AcDbPoint
 10
1443.647173571284
 20
2232.546788417466
 30
0.0
  0
POINT
  5
2A4
330
297
100
AcDbEntity
  8
Defpoints
 62
0
440
16777216
100
AcDbPoint
 10
1443.647173571284
 20
2329.960941053426
 30
0.0
  0
ENDBLK
  5
299
330
297
100
AcDbEntity
  8
0
100
AcDbBlockEnd
  0
BLOCK
  5
2A6
330
2A5
100
AcDbEntity
  8
0
100
AcDbBlockBegin
  2
*D11
 70
1
 10
0.0
 20
0.0
 30
0.0
  3
*D11
  1

  0
LINE
  5
2A8
330
2A5
100
AcDbEntity
  8
DIM
 62
5
370
9
440
16777216
100
AcDbLine
 10
1796.647173571284
 20
1349.9467884174744
 30
0.0
 11
1796.647173571284
 21
1288.7206693576961
 31
0.0
  0
LINE
  5
2A9
330
2A5
100
AcDbEntity
  8
DIM
 62
5
370
9
440
16777216
100
AcDbLine
 10
1443.647173571284
 20
1379.9467884174744
 30
0.0
 11
1443.647173571284
 21
1288.7206693576961
 31
0.0
  0
LINE
  5
2AA
330
2A5
100
AcDbEntity
  8
DIM
 62
5
370
9
440
16777216
100
AcDbLine
 10
1796.647173571284
 20
1298.7206693576961
 30
0.0
 11
1443.647173571284
 21
1298.7206693576961
 31
0.0
  0
LINE
  5
2AB
330
2A5
100
AcDbEntity
  8
0
  6
ByBlock
 62
0
370
-2
100
AcDbLine
 10
1792.647173571284
 20
1294.7206693576961
 30
0.0
 11
1800.647173571284
 21
1302.7206693576961
 31
0.0
  0
LINE
  5
2AC
330
2A5
100
AcDbEntity
  8
0
  6
ByBlock
 62
0
370
-2
100
AcDbLine
 10
1447.647173571284
 20
1302.7206693576961
 30
0.0
 11
1439.647173571284
 21
1294.7206693576961
 31
0.0
  0
MTEXT
  5
2AD
330
2A5
100
AcDbEntity
  8
DIM
 62
3
440
16777216
100
AcDbMText
 10
1620.147173571284
 20
1321.4935206537398
 30
0.0
 40
25.0
 41
0.0
 46
0.0
 71
5
  1
353
  0
POINT
  5
2AE
330
2A5
100
AcDbEntity
  8
Defpoints
 62
0
440
16777216
100
AcDbPoint
 10
1796.647173571284
 20
1364.9467884174744
 30
0.0
  0
POINT
  5
2AF
330
2A5
100
AcDbEntity
  8
Defpoints
 62
0
440
16777216
100
AcDbPoint
 10
1443.647173571284
 20
1394.9467884174744
 30
0.0
  0
POINT
  5
2B0
330
2A5
100
AcDbEntity
  8
Defpoints
 62
0
440
16777216
100
AcDbPoint
 10
1443.647173571284
 20
1298.7206693576961
 30
0.0
  0
ENDBLK
  5
2A7
330
2A5
100
AcDbEntity
  8
0
100
AcDbBlockEnd
  0
BLOCK
  5
2B2
330
2B1
100
AcDbEntity
  8
0
100
AcDbBlockBegin
  2
*D12
 70
1
 10
0.0
 20
0.0
 30
0.0
  3
*D12
  1

  0
LINE
  5
2B4
330
2B1
100
AcDbEntity
  8
DIM
 62
5
370
9
440
16777216
100
AcDbLine
 10
1756.647173571284
 20
2277.546788417466
 30
0.0
 11
1756.647173571284
 21
2339.960941053426
 31
0.0
  0
LINE
  5
2B5
330
2B1
100
AcDbEntity
  8
DIM
 62
5
370
9
440
16777216
100
AcDbLine
 10
1786.647173571284
 20
2277.546788417466
 30
0.0
 11
1786.647173571284
 21
2339.960941053426
 31
0.0
  0
LINE
  5
2B6
330
2B1
100
AcDbEntity
  8
DIM
 62
5
370
9
440
16777216
100
AcDbLine
 10
1756.647173571284
 20
2329.960941053426
 30
0.0
 11
1786.647173571284
 21
2329.960941053426
 31
0.0
  0
LINE
  5
2B7
330
2B1
100
AcDbEntity
  8
0
  6
ByBlock
 62
0
370
-2
100
AcDbLine
 10
1760.647173571284
 20
2333.960941053426
 30
0.0
 11
1752.647173571284
 21
2325.960941053426
 31
0.0
  0
LINE
  5
2B8
330
2B1
100
AcDbEntity
  8
0
  6
ByBlock
 62
0
370
-2
100
AcDbLine
 10
1782.647173571284
 20
2325.960941053426
 30
0.0
 11
1790.647173571284
 21
2333.960941053426
 31
0.0
  0
MTEXT
  5
2B9
330
2B1
100
AcDbEntity
  8
DIM
 62
3
440
16777216
100
AcDbMText
 10
1771.647173571284
 20
2352.733792349469
 30
0.0
 40
25.0
 41
0.0
 46
0.0
 71
5
  1
30
  0
POINT
  5
2BA
330
2B1
100
AcDbEntity
  8
Defpoints
 62
0
440
16777216
100
AcDbPoint
 10
1756.647173571284
 20
2262.546788417466
 30
0.0
  0
POINT
  5
2BB
330
2B1
100
AcDbEntity
  8
Defpoints
 62
0
440
16777216
100
AcDbPoint
 10
1786.647173571284
 20
2262.546788417466
 30
0.0
  0
POINT
  5
2BC
330
2B1
100
AcDbEntity
  8
Defpoints
 62
0
440
16777216
100
AcDbPoint
 10
1786.647173571284
 20
2329.960941053426
 30
0.0
  0
ENDBLK
  5
2B3
330
2B1
100
AcDbEntity
  8
0
100
AcDbBlockEnd
  0
BLOCK
  5
2BE
330
2BD
100
AcDbEntity
  8
0
100
AcDbBlockBegin
  2
*D13
 70
1
 10
0.0
 20
0.0
 30
0.0
  3
*D13
  1

  0
LINE
  5
2C0
330
2BD
100
AcDbEntity
  8
DIM
 62
5
370
9
440
16777216
100
AcDbLine
 10
1786.647173571284
 20
2277.546788417466
 30
0.0
 11
1786.647173571284
 21
2339.960941053426
 31
0.0
  0
LINE
  5
2C1
330
2BD
100
AcDbEntity
  8
DIM
 62
5
370
9
440
16777216
100
AcDbLine
 10
1796.647173571284
 20
2277.546788417466
 30
0.0
 11
1796.647173571284
 21
2339.960941053426
 31
0.0
  0
LINE
  5
2C2
330
2BD
100
AcDbEntity
  8
DIM
 62
5
370
9
440
16777216
100
AcDbLine
 10
1786.647173571284
 20
2329.960941053426
 30
0.0
 11
1778.647173571284
 21
2329.960941053426
 31
0.0
  0
LINE
  5
2C3
330
2BD
100
AcDbEntity
  8
DIM
 62
5
370
9
440
16777216
100
AcDbLine
 10
1796.647173571284
 20
2329.960941053426
 30
0.0
 11
1866.0202977185836
 21
2329.960941053426
 31
0.0
  0
LINE
  5
2C4
330
2BD
100
AcDbEntity
  8
DIM
 62
5
370
9
440
16777216
100
AcDbLine
 10
1786.647173571284
 20
2329.960941053426
 30
0.0
 11
1796.647173571284
 21
2329.960941053426
 31
0.0
  0
LINE
  5
2C5
330
2BD
100
AcDbEntity
  8
0
  6
ByBlock
 62
0
370
-2
100
AcDbLine
 10
1782.647173571284
 20
2325.960941053426
 30
0.0
 11
1790.647173571284
 21
2333.960941053426
 31
0.0
  0
LINE
  5
2C6
330
2BD
100
AcDbEntity
  8
0
  6
ByBlock
 62
0
370
-2
100
AcDbLine
 10
1800.647173571284
 20
2333.960941053426
 30
0.0
 11
1792.647173571284
 21
2325.960941053426
 31
0.0
  0
MTEXT
  5
2C7
330
2BD
100
AcDbEntity
  8
DIM
 62
3
440
16777216
100
AcDbMText
 10
1839.3337356449047
 20
2352.725265746468
 30
0.0
 40
25.0
 41
0.0
 46
0.0
 71
5
  1
10
  0
POINT
  5
2C8
330
2BD
100
AcDbEntity
  8
Defpoints
 62
0
440
16777216
100
AcDbPoint
 10
1786.647173571284
 20
2262.546788417466
 30
0.0
  0
POINT
  5
2C9
330
2BD
100
AcDbEntity
  8
Defpoints
 62
0
440
16777216
100
AcDbPoint
 10
1796.647173571284
 20
2262.546788417466
 30
0.0
  0
POINT
  5
2CA
330
2BD
100
AcDbEntity
  8
Defpoints
 62
0
440
16777216
100
AcDbPoint
 10
1796.647173571284
 20
2329.960941053426
 30
0.0
  0
ENDBLK
  5
2BF
330
2BD
100
AcDbEntity
  8
0
100
AcDbBlockEnd
  0
BLOCK
  5
2CC
330
2CB
100
AcDbEntity
  8
0
100
AcDbBlockBegin
  2
*D14
 70
1
 10
0.0
 20
0.0
 30
0.0
  3
*D14
  1

  0
LINE
  5
2CE
330
2CB
100
AcDbEntity
  8
DIM
 62
5
370
9
 48
3.0
440
16777216
100
AcDbLine
 10
1811.647173571284
 20
2262.546788417466
 30
0.0
 11
1877.2732811972965
 21
2262.546788417466
 31
0.0
  0
LINE
  5
2CF
330
2CB
100
AcDbEntity
  8
DIM
 62
5
370
9
 48
3.0
440
16777216
100
AcDbLine
 10
1811.647173571284
 20
1364.9467884174744
 30
0.0
 11
1877.2732811972965
 21
1364.9467884174744
 31
0.0
  0
LINE
  5
2D0
330
2CB
100
AcDbEntity
  8
DIM
 62
5
370
9
 48
3.0
440
16777216
100
AcDbLine
 10
1867.2732811973838
 20
2262.546788417466
 30
0.0
 11
1867.2732811973838
 21
1364.9467884174744
 31
0.0
  0
LINE
  5
2D1
330
2CB
100
AcDbEntity
  8
0
  6
ByBlock
 62
0
370
-2
100
AcDbLine
 10
1871.2732811973838
 20
2258.546788417466
 30
0.0
 11
1863.2732811973838
 21
2266.546788417466
 31
0.0
  0
LINE
  5
2D2
330
2CB
100
AcDbEntity
  8
0
  6
ByBlock
 62
0
370
-2
100
AcDbLine
 10
1863.2732811973838
 20
1368.9467884174744
 30
0.0
 11
1871.2732811973838
 21
1360.9467884174744
 31
0.0
  0
MTEXT
  5
2D3
330
2CB
100
AcDbEntity
  8
DIM
 62
3
 48
3.0
440
16777216
100
AcDbMText
 10
1844.5089565042872
 20
1813.7467884174926
 30
0.0
 40
25.0
 41
0.0
 46
0.0
 71
5
  1
898
 11
1e-16
 21
1.0
 31
0.0
  0
POINT
  5
2D4
330
2CB
100
AcDbEntity
  8
Defpoints
 62
0
 48
3.0
440
16777216
100
AcDbPoint
 10
1796.647173571284
 20
2262.546788417466
 30
0.0
  0
POINT
  5
2D5
330
2CB
100
AcDbEntity
  8
Defpoints
 62
0
 48
3.0
440
16777216
100
AcDbPoint
 10
1796.647173571284
 20
1364.9467884174744
 30
0.0
  0
POINT
  5
2D6
330
2CB
100
AcDbEntity
  8
Defpoints
 62
0
 48
3.0
440
16777216
100
AcDbPoint
 10
1867.2732811973838
 20
1364.9467884174744
 30
0.0
  0
ENDBLK
  5
2CD
330
2CB
100
AcDbEntity
  8
0
100
AcDbBlockEnd
  0
BLOCK
  5
2D8
330
2D7
100
AcDbEntity
  8
0
100
AcDbBlockBegin
  2
*D15
 70
1
 10
0.0
 20
0.0
 30
0.0
  3
*D15
  1

  0
LINE
  5
2DA
330
2D7
100
AcDbEntity
  8
DIM
 62
5
370
9
440
16777216
100
AcDbLine
 10
768.7654582570831
 20
1349.9467884174744
 30
0.0
 11
768.7654582570831
 21
1290.8516993094895
 31
0.0
  0
LINE
  5
2DB
330
2D7
100
AcDbEntity
  8
DIM
 62
5
370
9
440
16777216
100
AcDbLine
 10
1320.7654582569958
 20
1349.9467884174744
 30
0.0
 11
1320.7654582569958
 21
1290.8516993094895
 31
0.0
  0
LINE
  5
2DC
330
2D7
100
AcDbEntity
  8
DIM
 62
5
370
9
440
16777216
100
AcDbLine
 10
768.7654582570831
 20
1300.8516993094895
 30
0.0
 11
1320.7654582569958
 21
1300.8516993094895
 31
0.0
  0
LINE
  5
2DD
330
2D7
100
AcDbEntity
  8
0
  6
ByBlock
 62
0
370
-2
100
AcDbLine
 10
772.7654582570831
 20
1304.8516993094895
 30
0.0
 11
764.7654582570831
 21
1296.8516993094895
 31
0.0
  0
LINE
  5
2DE
330
2D7
100
AcDbEntity
  8
0
  6
ByBlock
 62
0
370
-2
100
AcDbLine
 10
1316.7654582569958
 20
1296.8516993094895
 30
0.0
 11
1324.7654582569958
 21
1304.8516993094895
 31
0.0
  0
MTEXT
  5
2DF
330
2D7
100
AcDbEntity
  8
DIM
 62
3
440
16777216
100
AcDbMText
 10
1044.7654582569958
 20
1323.616024002532
 30
0.0
 40
25.0
 41
0.0
 46
0.0
 71
5
  1
552
  0
POINT
  5
2E0
330
2D7
100
AcDbEntity
  8
Defpoints
 62
0
440
16777216
100
AcDbPoint
 10
768.7654582570831
 20
1364.9467884174744
 30
0.0
  0
POINT
  5
2E1
330
2D7
100
AcDbEntity
  8
Defpoints
 62
0
440
16777216
100
AcDbPoint
 10
1320.7654582569958
 20
1364.9467884174744
 30
0.0
  0
POINT
  5
2E2
330
2D7
100
AcDbEntity
  8
Defpoints
 62
0
440
16777216
100
AcDbPoint
 10
1320.7654582569958
 20
1300.8516993094895
 30
0.0
  0
ENDBLK
  5
2D9
330
2D7
100
AcDbEntity
  8
0
100
AcDbBlockEnd
  0
BLOCK
  5
2E4
330
2E3
100
AcDbEntity
  8
0
100
AcDbBlockBegin
  2
*D16
 70
1
 10
0.0
 20
0.0
 30
0.0
  3
*D16
  1

  0
LINE
  5
2E6
330
2E3
100
AcDbEntity
  8
DIM
 62
5
370
9
440
16777216
100
AcDbLine
 10
778.7654582569958
 20
2277.5467884174795
 30
0.0
 11
778.7654582569958
 21
2343.205803481521
 31
0.0
  0
LINE
  5
2E7
330
2E3
100
AcDbEntity
  8
DIM
 62
5
370
9
440
16777216
100
AcDbLine
 10
1310.765458257083
 20
2277.5467884174795
 30
0.0
 11
1310.765458257083
 21
2343.205803481521
 31
0.0
  0
LINE
  5
2E8
330
2E3
100
AcDbEntity
  8
DIM
 62
5
370
9
440
16777216
100
AcDbLine
 10
778.7654582569958
 20
2333.205803481521
 30
0.0
 11
1310.765458257083
 21
2333.205803481521
 31
0.0
  0
LINE
  5
2E9
330
2E3
100
AcDbEntity
  8
0
  6
ByBlock
 62
0
370
-2
100
AcDbLine
 10
782.7654582569958
 20
2337.205803481521
 30
0.0
 11
774.7654582569958
 21
2329.205803481521
 31
0.0
  0
LINE
  5
2EA
330
2E3
100
AcDbEntity
  8
0
  6
ByBlock
 62
0
370
-2
100
AcDbLine
 10
1306.765458257083
 20
2329.205803481521
 30
0.0
 11
1314.765458257083
 21
2337.205803481521
 31
0.0
  0
MTEXT
  5
2EB
330
2E3
100
AcDbEntity
  8
DIM
 62
3
440
16777216
100
AcDbMText
 10
1044.7654582569958
 20
2355.9786547775648
 30
0.0
 40
25.0
 41
0.0
 46
0.0
 71
5
  1
532
  0
POINT
  5
2EC
330
2E3
100
AcDbEntity
  8
Defpoints
 62
0
440
16777216
100
AcDbPoint
 10
778.7654582569958
 20
2262.5467884174805
 30
0.0
  0
POINT
  5
2ED
330
2E3
100
AcDbEntity
  8
Defpoints
 62
0
440
16777216
100
AcDbPoint
 10
1310.765458257083
 20
2262.5467884174805
 30
0.0
  0
POINT
  5
2EE
330
2E3
100
AcDbEntity
  8
Defpoints
 62
0
440
16777216
100
AcDbPoint
 10
1310.765458257083
 20
2333.205803481521
 30
0.0
  0
ENDBLK
  5
2E5
330
2E3
100
AcDbEntity
  8
0
100
AcDbBlockEnd
  0
BLOCK
  5
2F0
330
2EF
100
AcDbEntity
  8
0
100
AcDbBlockBegin
  2
*D17
 70
1
 10
0.0
 20
0.0
 30
0.0
  3
*D17
  1

  0
LINE
  5
2F2
330
2EF
100
AcDbEntity
  8
DIM
 62
5
370
9
440
16777216
100
AcDbLine
 10
1310.765458257083
 20
2277.5467884174795
 30
0.0
 11
1310.765458257083
 21
2343.205803481521
 31
0.0
  0
LINE
  5
2F3
330
2EF
100
AcDbEntity
  8
DIM
 62
5
370
9
440
16777216
100
AcDbLine
 10
1320.7654582569958
 20
2277.5467884174795
 30
0.0
 11
1320.7654582569958
 21
2343.205803481521
 31
0.0
  0
LINE
  5
2F4
330
2EF
100
AcDbEntity
  8
DIM
 62
5
370
9
440
16777216
100
AcDbLine
 10
1310.765458257083
 20
2333.205803481521
 30
0.0
 11
1302.7654582569958
 21
2333.205803481521
 31
0.0
  0
LINE
  5
2F5
330
2EF
100
AcDbEntity
  8
DIM
 62
5
370
9
440
16777216
100
AcDbLine
 10
1320.7654582569958
 20
2333.205803481521
 30
0.0
 11
1390.1385824043828
 21
2333.205803481521
 31
0.0
  0
LINE
  5
2F6
330
2EF
100
AcDbEntity
  8
DIM
 62
5
370
9
440
16777216
100
AcDbLine
 10
1310.765458257083
 20
2333.205803481521
 30
0.0
 11
1320.7654582569958
 21
2333.205803481521
 31
0.0
  0
LINE
  5
2F7
330
2EF
100
AcDbEntity
  8
0
  6
ByBlock
 62
0
370
-2
100
AcDbLine
 10
1306.765458257083
 20
2329.205803481521
 30
0.0
 11
1314.765458257083
 21
2337.205803481521
 31
0.0
  0
LINE
  5
2F8
330
2EF
100
AcDbEntity
  8
0
  6
ByBlock
 62
0
370
-2
100
AcDbLine
 10
1324.7654582569958
 20
2337.205803481521
 30
0.0
 11
1316.7654582569958
 21
2329.205803481521
 31
0.0
  0
MTEXT
  5
2F9
330
2EF
100
AcDbEntity
  8
DIM
 62
3
440
16777216
100
AcDbMText
 10
1363.4520203307038
 20
2355.970128174563
 30
0.0
 40
25.0
 41
0.0
 46
0.0
 71
5
  1
10
  0
POINT
  5
2FA
330
2EF
100
AcDbEntity
  8
Defpoints
 62
0
440
16777216
100
AcDbPoint
 10
1310.765458257083
 20
2262.5467884174805
 30
0.0
  0
POINT
  5
2FB
330
2EF
100
AcDbEntity
  8
Defpoints
 62
0
440
16777216
100
AcDbPoint
 10
1320.7654582569958
 20
2262.5467884174805
 30
0.0
  0
POINT
  5
2FC
330
2EF
100
AcDbEntity
  8
Defpoints
 62
0
440
16777216
100
AcDbPoint
 10
1320.7654582569958
 20
2333.205803481521
 30
0.0
  0
ENDBLK
  5
2F1
330
2EF
100
AcDbEntity
  8
0
100
AcDbBlockEnd
  0
BLOCK
  5
2FE
330
2FD
100
AcDbEntity
  8
0
100
AcDbBlockBegin
  2
*D18
 70
1
 10
0.0
 20
0.0
 30
0.0
  3
*D18
  1

  0
LINE
  5
300
330
2FD
100
AcDbEntity
  8
DIM
 62
5
370
9
440
16777216
100
AcDbLine
 10
778.7654582569958
 20
2277.5467884174795
 30
0.0
 11
778.7654582569958
 21
2343.205803481521
 31
0.0
  0
LINE
  5
301
330
2FD
100
AcDbEntity
  8
DIM
 62
5
370
9
440
16777216
100
AcDbLine
 10
768.7654582570831
 20
2277.5467884174795
 30
0.0
 11
768.7654582570831
 21
2343.205803481521
 31
0.0
  0
LINE
  5
302
330
2FD
100
AcDbEntity
  8
DIM
 62
5
370
9
440
16777216
100
AcDbLine
 10
778.7654582569958
 20
2333.205803481521
 30
0.0
 11
786.7654582569958
 21
2333.205803481521
 31
0.0
  0
LINE
  5
303
330
2FD
100
AcDbEntity
  8
DIM
 62
5
370
9
440
16777216
100
AcDbLine
 10
768.7654582570831
 20
2333.205803481521
 30
0.0
 11
699.3923341096961
 21
2333.205803481521
 31
0.0
  0
LINE
  5
304
330
2FD
100
AcDbEntity
  8
DIM
 62
5
370
9
440
16777216
100
AcDbLine
 10
778.7654582569958
 20
2333.205803481521
 30
0.0
 11
768.7654582570831
 21
2333.205803481521
 31
0.0
  0
LINE
  5
305
330
2FD
100
AcDbEntity
  8
0
  6
ByBlock
 62
0
370
-2
100
AcDbLine
 10
782.7654582569958
 20
2337.205803481521
 30
0.0
 11
774.7654582569958
 21
2329.205803481521
 31
0.0
  0
LINE
  5
306
330
2FD
100
AcDbEntity
  8
0
  6
ByBlock
 62
0
370
-2
100
AcDbLine
 10
764.7654582570831
 20
2329.205803481521
 30
0.0
 11
772.7654582570831
 21
2337.205803481521
 31
0.0
  0
MTEXT
  5
307
330
2FD
100
AcDbEntity
  8
DIM
 62
3
440
16777216
100
AcDbMText
 10
726.0788961834041
 20
2355.970128174563
 30
0.0
 40
25.0
 41
0.0
 46
0.0
 71
5
  1
10
  0
POINT
  5
308
330
2FD
100
AcDbEntity
  8
Defpoints
 62
0
440
16777216
100
AcDbPoint
 10
778.7654582569958
 20
2262.5467884174805
 30
0.0
  0
POINT
  5
309
330
2FD
100
AcDbEntity
  8
Defpoints
 62
0
440
16777216
100
AcDbPoint
 10
768.7654582570831
 20
2262.5467884174805
 30
0.0
  0
POINT
  5
30A
330
2FD
100
AcDbEntity
  8
Defpoints
 62
0
440
16777216
100
AcDbPoint
 10
768.7654582570831
 20
2333.205803481521
 30
0.0
  0
ENDBLK
  5
2FF
330
2FD
100
AcDbEntity
  8
0
100
AcDbBlockEnd
  0
BLOCK
  5
30C
330
30B
100
AcDbEntity
  8
0
100
AcDbBlockBegin
  2
*D19
 70
1
 10
0.0
 20
0.0
 30
0.0
  3
*D19
  1

  0
LINE
  5
30E
330
30B
100
AcDbEntity
  8
DIM
 62
5
370
9
 48
3.0
440
16777216
100
AcDbLine
 10
753.7654582569958
 20
2262.5467884174805
 30
0.0
 11
728.5085779307992
 21
2262.5467884174805
 31
0.0
  0
LINE
  5
30F
330
30B
100
AcDbEntity
  8
DIM
 62
5
370
9
 48
3.0
440
16777216
100
AcDbLine
 10
753.7654582569958
 20
1364.9467884174744
 30
0.0
 11
728.5085779307992
 21
1364.9467884174744
 31
0.0
  0
LINE
  5
310
330
30B
100
AcDbEntity
  8
DIM
 62
5
370
9
 48
3.0
440
16777216
100
AcDbLine
 10
738.5085779307992
 20
2262.5467884174805
 30
0.0
 11
738.5085779307992
 21
1364.9467884174744
 31
0.0
  0
LINE
  5
311
330
30B
100
AcDbEntity
  8
0
  6
ByBlock
 62
0
370
-2
100
AcDbLine
 10
742.5085779307992
 20
2258.5467884174805
 30
0.0
 11
734.5085779307992
 21
2266.5467884174805
 31
0.0
  0
LINE
  5
312
330
30B
100
AcDbEntity
  8
0
  6
ByBlock
 62
0
370
-2
100
AcDbLine
 10
734.5085779307992
 20
1368.9467884174744
 30
0.0
 11
742.5085779307992
 21
1360.9467884174744
 31
0.0
  0
MTEXT
  5
313
330
30B
100
AcDbEntity
  8
DIM
 62
3
 48
3.0
440
16777216
100
AcDbMText
 10
715.74425323779
 20
1813.7467884174996
 30
0.0
 40
25.0
 41
0.0
 46
0.0
 71
5
  1
898
 11
1e-16
 21
1.0
 31
0.0
  0
POINT
  5
314
330
30B
100
AcDbEntity
  8
Defpoints
 62
0
 48
3.0
440
16777216
100
AcDbPoint
 10
768.7654582570831
 20
2262.5467884174805
 30
0.0
  0
POINT
  5
315
330
30B
100
AcDbEntity
  8
Defpoints
 62
0
 48
3.0
440
16777216
100
AcDbPoint
 10
768.7654582570831
 20
1364.9467884174744
 30
0.0
  0
POINT
  5
316
330
30B
100
AcDbEntity
  8
Defpoints
 62
0
 48
3.0
440
16777216
100
AcDbPoint
 10
738.5085779307992
 20
1364.9467884174744
 30
0.0
  0
ENDBLK
  5
30D
330
30B
100
AcDbEntity
  8
0
100
AcDbBlockEnd
  0
BLOCK
  5
318
330
317
100
AcDbEntity
  8
0
100
AcDbBlockBegin
  2
*D20
 70
1
 10
0.0
 20
0.0
 30
0.0
  3
*D20
  1

  0
LINE
  5
31A
330
317
100
AcDbEntity
  8
DIM
 62
5
370
9
 48
3.0
440
16777216
100
AcDbLine
 10
2573.3486979427107
 20
2255.1467884174854
 30
0.0
 11
2573.3486979427107
 21
2312.4203118139058
 31
0.0
  0
LINE
  5
31B
330
317
100
AcDbEntity
  8
DIM
 62
5
370
9
 48
3.0
440
16777216
100
AcDbLine
 10
2588.3486979427107
 20
2240.1467884174854
 30
0.0
 11
2588.3486979427107
 21
2312.4203118139058
 31
0.0
  0
LINE
  5
31C
330
317
100
AcDbEntity
  8
DIM
 62
5
370
9
 48
3.0
440
16777216
100
AcDbLine
 10
2573.3486979427107
 20
2302.4203118139058
 30
0.0
 11
2565.3486979427107
 21
2302.4203118139058
 31
0.0
  0
LINE
  5
31D
330
317
100
AcDbEntity
  8
DIM
 62
5
370
9
 48
3.0
440
16777216
100
AcDbLine
 10
2588.3486979427107
 20
2302.4203118139058
 30
0.0
 11
2657.9946733860997
 21
2302.4203118139058
 31
0.0
  0
LINE
  5
31E
330
317
100
AcDbEntity
  8
DIM
 62
5
370
9
 48
3.0
440
16777216
100
AcDbLine
 10
2573.3486979427107
 20
2302.4203118139058
 30
0.0
 11
2588.3486979427107
 21
2302.4203118139058
 31
0.0
  0
LINE
  5
31F
330
317
100
AcDbEntity
  8
0
  6
ByBlock
 62
0
370
-2
100
AcDbLine
 10
2569.3486979427107
 20
2298.4203118139058
 30
0.0
 11
2577.3486979427107
 21
2306.4203118139058
 31
0.0
  0
LINE
  5
320
330
317
100
AcDbEntity
  8
0
  6
ByBlock
 62
0
370
-2
100
AcDbLine
 10
2592.3486979427107
 20
2306.4203118139058
 30
0.0
 11
2584.3486979427107
 21
2298.4203118139058
 31
0.0
  0
MTEXT
  5
321
330
317
100
AcDbEntity
  8
DIM
 62
3
 48
3.0
440
16777216
100
AcDbMText
 10
2631.1716856643907
 20
2325.1846365069478
 30
0.0
 40
25.0
 41
0.0
 46
0.0
 71
5
  1
15
  0
POINT
  5
322
330
317
100
AcDbEntity
  8
Defpoints
 62
0
 48
3.0
440
16777216
100
AcDbPoint
 10
2573.3486979427107
 20
2240.1467884174854
 30
0.0
  0
POINT
  5
323
330
317
100
AcDbEntity
  8
Defpoints
 62
0
 48
3.0
440
16777216
100
AcDbPoint
 10
2588.3486979427107
 20
2225.1467884174854
 30
0.0
  0
POINT
  5
324
330
317
100
AcDbEntity
  8
Defpoints
 62
0
 48
3.0
440
16777216
100
AcDbPoint
 10
2588.3486979427107
 20
2302.4203118139058
 30
0.0
  0
ENDBLK
  5
319
330
317
100
AcDbEntity
  8
0
100
AcDbBlockEnd
  0
BLOCK
  5
326
330
325
100
AcDbEntity
  8
0
100
AcDbBlockBegin
  2
*D21
 70
1
 10
0.0
 20
0.0
 30
0.0
  3
*D21
  1

  0
LINE
  5
328
330
325
100
AcDbEntity
  8
DIM
 62
5
370
9
 48
3.0
440
16777216
100
AcDbLine
 10
2573.3486979427107
 20
2255.1467884174854
 30
0.0
 11
2573.3486979427107
 21
2312.4203118139058
 31
0.0
  0
LINE
  5
329
330
325
100
AcDbEntity
  8
DIM
 62
5
370
9
 48
3.0
440
16777216
100
AcDbLine
 10
2050.5486979426933
 20
2255.1467884174854
 30
0.0
 11
2050.5486979426933
 21
2312.4203118139058
 31
0.0
  0
LINE
  5
32A
330
325
100
AcDbEntity
  8
DIM
 62
5
370
9
 48
3.0
440
16777216
100
AcDbLine
 10
2573.3486979427107
 20
2302.4203118139058
 30
0.0
 11
2050.5486979426933
 21
2302.4203118139058
 31
0.0
  0
LINE
  5
32B
330
325
100
AcDbEntity
  8
0
  6
ByBlock
 62
0
370
-2
100
AcDbLine
 10
2569.3486979427107
 20
2298.4203118139058
 30
0.0
 11
2577.3486979427107
 21
2306.4203118139058
 31
0.0
  0
LINE
  5
32C
330
325
100
AcDbEntity
  8
0
  6
ByBlock
 62
0
370
-2
100
AcDbLine
 10
2054.5486979426933
 20
2306.4203118139058
 30
0.0
 11
2046.5486979426933
 21
2298.4203118139058
 31
0.0
  0
MTEXT
  5
32D
330
325
100
AcDbEntity
  8
DIM
 62
3
 48
3.0
440
16777216
100
AcDbMText
 10
2311.9486979426874
 20
2325.1931631099487
 30
0.0
 40
25.0
 41
0.0
 46
0.0
 71
5
  1
523
  0
POINT
  5
32E
330
325
100
AcDbEntity
  8
Defpoints
 62
0
 48
3.0
440
16777216
100
AcDbPoint
 10
2573.3486979427107
 20
2240.1467884174854
 30
0.0
  0
POINT
  5
32F
330
325
100
AcDbEntity
  8
Defpoints
 62
0
 48
3.0
440
16777216
100
AcDbPoint
 10
2050.5486979426933
 20
2240.1467884174854
 30
0.0
  0
POINT
  5
330
330
325
100
AcDbEntity
  8
Defpoints
 62
0
 48
3.0
440
16777216
100
AcDbPoint
 10
2050.5486979426933
 20
2302.4203118139058
 30
0.0
  0
ENDBLK
  5
327
330
325
100
AcDbEntity
  8
0
100
AcDbBlockEnd
  0
BLOCK
  5
332
330
331
100
AcDbEntity
  8
0
100
AcDbBlockBegin
  2
*D22
 70
1
 10
0.0
 20
0.0
 30
0.0
  3
*D22
  1

  0
LINE
  5
334
330
331
100
AcDbEntity
  8
DIM
 62
5
370
9
 48
3.0
440
16777216
100
AcDbLine
 10
2035.5486979426933
 20
2240.1467884174854
 30
0.0
 11
1968.214653289091
 21
2240.1467884174854
 31
0.0
  0
LINE
  5
335
330
331
100
AcDbEntity
  8
DIM
 62
5
370
9
 48
3.0
440
16777216
100
AcDbLine
 10
2035.5486979426933
 20
1387.3467884174686
 30
0.0
 11
1968.214653289091
 21
1387.3467884174688
 31
0.0
  0
LINE
  5
336
330
331
100
AcDbEntity
  8
DIM
 62
5
370
9
 48
3.0
440
16777216
100
AcDbLine
 10
1978.214653289091
 20
2240.1467884174854
 30
0.0
 11
1978.214653289091
 21
1387.3467884174688
 31
0.0
  0
LINE
  5
337
330
331
100
AcDbEntity
  8
0
  6
ByBlock
 62
0
370
-2
100
AcDbLine
 10
1982.214653289091
 20
2236.1467884174854
 30
0.0
 11
1974.214653289091
 21
2244.1467884174854
 31
0.0
  0
LINE
  5
338
330
331
100
AcDbEntity
  8
0
  6
ByBlock
 62
0
370
-2
100
AcDbLine
 10
1974.214653289091
 20
1391.3467884174688
 30
0.0
 11
1982.214653289091
 21
1383.3467884174688
 31
0.0
  0
MTEXT
  5
339
330
331
100
AcDbEntity
  8
DIM
 62
3
 48
3.0
440
16777216
100
AcDbMText
 10
1955.4418019930017
 20
1813.7467884174996
 30
0.0
 40
25.0
 41
0.0
 46
0.0
 71
5
  1
853
 11
1e-16
 21
1.0
 31
0.0
  0
POINT
  5
33A
330
331
100
AcDbEntity
  8
Defpoints
 62
0
 48
3.0
440
16777216
100
AcDbPoint
 10
2050.5486979426933
 20
2240.1467884174854
 30
0.0
  0
POINT
  5
33B
330
331
100
AcDbEntity
  8
Defpoints
 62
0
 48
3.0
440
16777216
100
AcDbPoint
 10
2050.5486979426933
 20
1387.3467884174686
 30
0.0
  0
POINT
  5
33C
330
331
100
AcDbEntity
  8
Defpoints
 62
0
 48
3.0
440
16777216
100
AcDbPoint
 10
1978.214653289091
 20
1387.3467884174688
 30
0.0
  0
ENDBLK
  5
333
330
331
100
AcDbEntity
  8
0
100
AcDbBlockEnd
  0
BLOCK
  5
33E
330
33D
100
AcDbEntity
  8
0
100
AcDbBlockBegin
  2
*D23
 70
1
 10
0.0
 20
0.0
 30
0.0
  3
*D23
  1

  0
LINE
  5
340
330
33D
100
AcDbEntity
  8
DIM
 62
5
370
9
 48
3.0
440
16777216
100
AcDbLine
 10
2035.5486979426933
 20
1387.3467884174686
 30
0.0
 11
2035.5486979426933
 21
1334.2792435414963
 31
0.0
  0
LINE
  5
341
330
33D
100
AcDbEntity
  8
DIM
 62
5
370
9
 48
3.0
440
16777216
100
AcDbLine
 10
2588.3486979427107
 20
1387.3467884174686
 30
0.0
 11
2588.3486979427107
 21
1334.2792435414963
 31
0.0
  0
LINE
  5
342
330
33D
100
AcDbEntity
  8
DIM
 62
5
370
9
 48
3.0
440
16777216
100
AcDbLine
 10
2035.5486979426933
 20
1344.2792435414965
 30
0.0
 11
2588.3486979427107
 21
1344.2792435414965
 31
0.0
  0
LINE
  5
343
330
33D
100
AcDbEntity
  8
0
  6
ByBlock
 62
0
370
-2
100
AcDbLine
 10
2039.5486979426933
 20
1348.2792435414965
 30
0.0
 11
2031.5486979426933
 21
1340.2792435414965
 31
0.0
  0
LINE
  5
344
330
33D
100
AcDbEntity
  8
0
  6
ByBlock
 62
0
370
-2
100
AcDbLine
 10
2584.3486979427107
 20
1340.2792435414965
 30
0.0
 11
2592.3486979427107
 21
1348.2792435414965
 31
0.0
  0
MTEXT
  5
345
330
33D
100
AcDbEntity
  8
DIM
 62
3
 48
3.0
440
16777216
100
AcDbMText
 10
2311.9486979426874
 20
1367.0520948375402
 30
0.0
 40
25.0
 41
0.0
 46
0.0
 71
5
  1
553
  0
POINT
  5
346
330
33D
100
AcDbEntity
  8
Defpoints
 62
0
 48
3.0
440
16777216
100
AcDbPoint
 10
2035.5486979426933
 20
1402.3467884174684
 30
0.0
  0
POINT
  5
347
330
33D
100
AcDbEntity
  8
Defpoints
 62
0
 48
3.0
440
16777216
100
AcDbPoint
 10
2588.3486979427107
 20
1402.3467884174684
 30
0.0
  0
POINT
  5
348
330
33D
100
AcDbEntity
  8
Defpoints
 62
0
 48
3.0
440
16777216
100
AcDbPoint
 10
2588.3486979427107
 20
1344.2792435414965
 30
0.0
  0
ENDBLK
  5
33F
330
33D
100
AcDbEntity
  8
0
100
AcDbBlockEnd
  0
BLOCK
  5
34A
330
349
100
AcDbEntity
  8
0
100
AcDbBlockBegin
  2
*D24
 70
1
 10
0.0
 20
0.0
 30
0.0
  3
*D24
  1

  0
LINE
  5
34C
330
349
100
AcDbEntity
  8
DIM
 62
5
370
9
440
16777216
100
AcDbLine
 10
789.9255090733932
 20
444.08199908793245
 30
0.0
 11
884.6131521415955
 21
444.08199908793245
 31
0.0
  0
LINE
  5
34D
330
349
100
AcDbEntity
  8
DIM
 62
5
370
9
440
16777216
100
AcDbLine
 10
789.9255090733932
 20
432.08199908793245
 30
0.0
 11
884.6131521415955
 21
432.08199908793245
 31
0.0
  0
LINE
  5
34E
330
349
100
AcDbEntity
  8
DIM
 62
5
370
9
440
16777216
100
AcDbLine
 10
874.6131521415955
 20
444.08199908793245
 30
0.0
 11
874.6131521415955
 21
452.08199908793245
 31
0.0
  0
LINE
  5
34F
330
349
100
AcDbEntity
  8
DIM
 62
5
370
9
440
16777216
100
AcDbLine
 10
874.6131521415955
 20
432.08199908793245
 30
0.0
 11
874.6131521415955
 21
362.87940700061995
 31
0.0
  0
LINE
  5
350
330
349
100
AcDbEntity
  8
DIM
 62
5
370
9
440
16777216
100
AcDbLine
 10
874.6131521415955
 20
444.08199908793245
 30
0.0
 11
874.6131521415955
 21
432.08199908793245
 31
0.0
  0
LINE
  5
351
330
349
100
AcDbEntity
  8
0
  6
ByBlock
 62
0
370
-2
100
AcDbLine
 10
870.6131521415955
 20
448.08199908793245
 30
0.0
 11
878.6131521415955
 21
440.08199908793245
 31
0.0
  0
LINE
  5
352
330
349
100
AcDbEntity
  8
0
  6
ByBlock
 62
0
370
-2
100
AcDbLine
 10
878.6131521415955
 20
428.08199908793245
 30
0.0
 11
870.6131521415955
 21
436.08199908793245
 31
0.0
  0
MTEXT
  5
353
330
349
100
AcDbEntity
  8
DIM
 62
3
440
16777216
100
AcDbMText
 10
852.0619925236097
 20
389.4807030442987
 30
0.0
 40
25.0
 41
0.0
 46
0.0
 71
5
  1
12
 11
1e-16
 21
1.0
 31
0.0
  0
POINT
  5
354
330
349
100
AcDbEntity
  8
Defpoints
 62
0
440
16777216
100
AcDbPoint
 10
774.9255090733932
 20
444.08199908793245
 30
0.0
  0
POINT
  5
355
330
349
100
AcDbEntity
  8
Defpoints
 62
0
440
16777216
100
AcDbPoint
 10
774.9255090733932
 20
432.08199908793245
 30
0.0
  0
POINT
  5
356
330
349
100
AcDbEntity
  8
Defpoints
 62
0
440
16777216
100
AcDbPoint
 10
874.6131521415955
 20
432.08199908793245
 30
0.0
  0
ENDBLK
  5
34B
330
349
100
AcDbEntity
  8
0
100
AcDbBlockEnd
  0
BLOCK
  5
358
330
357
100
AcDbEntity
  8
0
100
AcDbBlockBegin
  2
*D25
 70
1
 10
0.0
 20
0.0
 30
0.0
  3
*D25
  1

  0
LINE
  5
35A
330
357
100
AcDbEntity
  8
DIM
 62
5
370
9
440
16777216
100
AcDbLine
 10
189.9255090733932
 20
746.0819990879324
 30
0.0
 11
159.69455204630503
 21
746.0819990879324
 31
0.0
  0
LINE
  5
35B
330
357
100
AcDbEntity
  8
DIM
 62
5
370
9
440
16777216
100
AcDbLine
 10
219.9255090733932
 20
432.08199908793245
 30
0.0
 11
159.69455204630503
 21
432.08199908793245
 31
0.0
  0
LINE
  5
35C
330
357
100
AcDbEntity
  8
DIM
 62
5
370
9
440
16777216
100
AcDbLine
 10
169.69455204630503
 20
746.0819990879324
 30
0.0
 11
169.69455204630503
 21
432.08199908793245
 31
0.0
  0
LINE
  5
35D
330
357
100
AcDbEntity
  8
0
  6
ByBlock
 62
0
370
-2
100
AcDbLine
 10
173.69455204630503
 20
742.0819990879324
 30
0.0
 11
165.69455204630503
 21
750.0819990879324
 31
0.0
  0
LINE
  5
35E
330
357
100
AcDbEntity
  8
0
  6
ByBlock
 62
0
370
-2
100
AcDbLine
 10
165.69455204630503
 20
436.08199908793245
 30
0.0
 11
173.69455204630503
 21
428.08199908793245
 31
0.0
  0
MTEXT
  5
35F
330
357
100
AcDbEntity
  8
DIM
 62
3
440
16777216
100
AcDbMText
 10
146.921700750303
 20
589.0819990879547
 30
0.0
 40
25.0
 41
0.0
 46
0.0
 71
5
  1
314
 11
1e-16
 21
1.0
 31
0.0
  0
POINT
  5
360
330
357
100
AcDbEntity
  8
Defpoints
 62
0
440
16777216
100
AcDbPoint
 10
204.9255090733932
 20
746.0819990879324
 30
0.0
  0
POINT
  5
361
330
357
100
AcDbEntity
  8
Defpoints
 62
0
440
16777216
100
AcDbPoint
 10
234.9255090733932
 20
432.08199908793245
 30
0.0
  0
POINT
  5
362
330
357
100
AcDbEntity
  8
Defpoints
 62
0
440
16777216
100
AcDbPoint
 10
169.69455204630503
 20
432.08199908793245
 30
0.0
  0
ENDBLK
  5
359
330
357
100
AcDbEntity
  8
0
100
AcDbBlockEnd
  0
BLOCK
  5
364
330
363
100
AcDbEntity
  8
0
100
AcDbBlockBegin
  2
*D26
 70
1
 10
0.0
 20
0.0
 30
0.0
  3
*D26
  1

  0
LINE
  5
366
330
363
100
AcDbEntity
  8
DIM
 62
5
370
9
 48
3.0
440
16777216
100
AcDbLine
 10
804.9255090733932
 20
761.0819990879324
 30
0.0
 11
804.9255090733932
 21
826.7081067140032
 31
0.0
  0
LINE
  5
367
330
363
100
AcDbEntity
  8
DIM
 62
5
370
9
 48
3.0
440
16777216
100
AcDbLine
 10
204.9255090733932
 20
761.0819990879324
 30
0.0
 11
204.9255090733932
 21
826.7081067140032
 31
0.0
  0
LINE
  5
368
330
363
100
AcDbEntity
  8
DIM
 62
5
370
9
 48
3.0
440
16777216
100
AcDbLine
 10
804.9255090733932
 20
816.7081067140032
 30
0.0
 11
204.9255090733932
 21
816.7081067140032
 31
0.0
  0
LINE
  5
369
330
363
100
AcDbEntity
  8
0
  6
ByBlock
 62
0
370
-2
100
AcDbLine
 10
800.9255090733932
 20
812.7081067140032
 30
0.0
 11
808.9255090733932
 21
820.7081067140032
 31
0.0
  0
LINE
  5
36A
330
363
100
AcDbEntity
  8
0
  6
ByBlock
 62
0
370
-2
100
AcDbLine
 10
208.9255090733932
 20
820.7081067140032
 30
0.0
 11
200.9255090733932
 21
812.7081067140032
 31
0.0
  0
MTEXT
  5
36B
330
363
100
AcDbEntity
  8
DIM
 62
3
 48
3.0
440
16777216
100
AcDbMText
 10
504.9255090733932
 20
839.4724314070454
 30
0.0
 40
25.0
 41
0.0
 46
0.0
 71
5
  1
600
  0
POINT
  5
36C
330
363
100
AcDbEntity
  8
Defpoints
 62
0
 48
3.0
440
16777216
100
AcDbPoint
 10
804.9255090733932
 20
746.0819990879324
 30
0.0
  0
POINT
  5
36D
330
363
100
AcDbEntity
  8
Defpoints
 62
0
 48
3.0
440
16777216
100
AcDbPoint
 10
204.9255090733932
 20
746.0819990879324
 30
0.0
  0
POINT
  5
36E
330
363
100
AcDbEntity
  8
Defpoints
 62
0
 48
3.0
440
16777216
100
AcDbPoint
 10
204.9255090733932
 20
816.7081067140032
 30
0.0
  0
ENDBLK
  5
365
330
363
100
AcDbEntity
  8
0
100
AcDbBlockEnd
  0
BLOCK
  5
370
330
36F
100
AcDbEntity
  8
0
100
AcDbBlockBegin
  2
*D27
 70
1
 10
0.0
 20
0.0
 30
0.0
  3
*D27
  1

  0
LINE
  5
372
330
36F
100
AcDbEntity
  8
DIM
 62
5
370
9
 48
3.0
440
16777216
100
AcDbLine
 10
789.9255090733932
 20
444.08199908793245
 30
0.0
 11
930.9263061266975
 21
444.0819990879324
 31
0.0
  0
LINE
  5
373
330
36F
100
AcDbEntity
  8
DIM
 62
5
370
9
 48
3.0
440
16777216
100
AcDbLine
 10
819.9255090733932
 20
474.08199908793245
 30
0.0
 11
930.9263061266975
 21
474.08199908793245
 31
0.0
  0
LINE
  5
374
330
36F
100
AcDbEntity
  8
DIM
 62
5
370
9
 48
3.0
440
16777216
100
AcDbLine
 10
920.9263061266975
 20
474.08199908793245
 30
0.0
 11
920.9263061266975
 21
444.0819990879324
 31
0.0
  0
LINE
  5
375
330
36F
100
AcDbEntity
  8
DIM
 62
5
370
9
 48
3.0
440
16777216
100
AcDbLine
 10
920.9263061266975
 20
444.0819990879324
 30
0.0
 11
920.9263061266975
 21
365.7977350921412
 31
0.0
  0
LINE
  5
376
330
36F
100
AcDbEntity
  8
0
  6
ByBlock
 62
0
370
-2
100
AcDbLine
 10
924.9263061266975
 20
470.08199908793245
 30
0.0
 11
916.9263061266975
 21
478.08199908793245
 31
0.0
  0
LINE
  5
377
330
36F
100
AcDbEntity
  8
0
  6
ByBlock
 62
0
370
-2
100
AcDbLine
 10
916.9263061266975
 20
448.0819990879324
 30
0.0
 11
924.9263061266975
 21
440.0819990879324
 31
0.0
  0
MTEXT
  5
378
330
36F
100
AcDbEntity
  8
DIM
 62
3
 48
3.0
440
16777216
100
AcDbMText
 10
898.1534548306954
 20
393.6524417770204
 30
0.0
 40
25.0
 41
0.0
 46
0.0
 71
5
  1
30
 11
1e-16
 21
1.0
 31
0.0
  0
POINT
  5
379
330
36F
100
AcDbEntity
  8
Defpoints
 62
0
 48
3.0
440
16777216
100
AcDbPoint
 10
774.9255090733932
 20
444.08199908793245
 30
0.0
  0
POINT
  5
37A
330
36F
100
AcDbEntity
  8
Defpoints
 62
0
 48
3.0
440
16777216
100
AcDbPoint
 10
804.9255090733932
 20
474.08199908793245
 30
0.0
  0
POINT
  5
37B
330
36F
100
AcDbEntity
  8
Defpoints
 62
0
 48
3.0
440
16777216
100
AcDbPoint
 10
920.9263061266975
 20
474.08199908793245
 30
0.0
  0
ENDBLK
  5
371
330
36F
100
AcDbEntity
  8
0
100
AcDbBlockEnd
  0
BLOCK
  5
37D
330
37C
100
AcDbEntity
  8
0
100
AcDbBlockBegin
  2
*D28
 70
1
 10
0.0
 20
0.0
 30
0.0
  3
*D28
  1

  0
LINE
  5
37F
330
37C
100
AcDbEntity
  8
DIM
 62
5
370
9
 48
3.0
440
16777216
100
AcDbLine
 10
819.9255090733932
 20
474.08199908793245
 30
0.0
 11
930.9263061266975
 21
474.08199908793245
 31
0.0
  0
LINE
  5
380
330
37C
100
AcDbEntity
  8
DIM
 62
5
370
9
 48
3.0
440
16777216
100
AcDbLine
 10
819.9255090733932
 20
746.0819990879324
 30
0.0
 11
930.9263061266975
 21
746.0819990879324
 31
0.0
  0
LINE
  5
381
330
37C
100
AcDbEntity
  8
DIM
 62
5
370
9
 48
3.0
440
16777216
100
AcDbLine
 10
920.9263061266975
 20
474.08199908793245
 30
0.0
 11
920.9263061266975
 21
746.0819990879324
 31
0.0
  0
LINE
  5
382
330
37C
100
AcDbEntity
  8
0
  6
ByBlock
 62
0
370
-2
100
AcDbLine
 10
916.9263061266975
 20
478.08199908793245
 30
0.0
 11
924.9263061266975
 21
470.08199908793245
 31
0.0
  0
LINE
  5
383
330
37C
100
AcDbEntity
  8
0
  6
ByBlock
 62
0
370
-2
100
AcDbLine
 10
924.9263061266975
 20
742.0819990879324
 30
0.0
 11
916.9263061266975
 21
750.0819990879324
 31
0.0
  0
MTEXT
  5
384
330
37C
100
AcDbEntity
  8
DIM
 62
3
 48
3.0
440
16777216
100
AcDbMText
 10
898.3751465087116
 20
610.0819990879548
 30
0.0
 40
25.0
 41
0.0
 46
0.0
 71
5
  1
272
 11
1e-16
 21
1.0
 31
0.0
  0
POINT
  5
385
330
37C
100
AcDbEntity
  8
Defpoints
 62
0
 48
3.0
440
16777216
100
AcDbPoint
 10
804.9255090733932
 20
474.08199908793245
 30
0.0
  0
POINT
  5
386
330
37C
100
AcDbEntity
  8
Defpoints
 62
0
 48
3.0
440
16777216
100
AcDbPoint
 10
804.9255090733932
 20
746.0819990879324
 30
0.0
  0
POINT
  5
387
330
37C
100
AcDbEntity
  8
Defpoints
 62
0
 48
3.0
440
16777216
100
AcDbPoint
 10
920.9263061266975
 20
746.0819990879324
 30
0.0
  0
ENDBLK
  5
37E
330
37C
100
AcDbEntity
  8
0
100
AcDbBlockEnd
  0
BLOCK
  5
389
330
388
100
AcDbEntity
  8
0
100
AcDbBlockBegin
  2
*D29
 70
1
 10
0.0
 20
0.0
 30
0.0
  3
*D29
  1

  0
LINE
  5
38B
330
388
100
AcDbEntity
  8
DIM
 62
5
370
9
440
16777216
100
AcDbLine
 10
1140.7530819576932
 20
746.0819990879324
 30
0.0
 11
1110.522124930605
 21
746.0819990879324
 31
0.0
  0
LINE
  5
38C
330
388
100
AcDbEntity
  8
DIM
 62
5
370
9
440
16777216
100
AcDbLine
 10
1170.7530819576932
 20
432.08199908793245
 30
0.0
 11
1110.522124930605
 21
432.08199908793245
 31
0.0
  0
LINE
  5
38D
330
388
100
AcDbEntity
  8
DIM
 62
5
370
9
440
16777216
100
AcDbLine
 10
1120.522124930605
 20
746.0819990879324
 30
0.0
 11
1120.522124930605
 21
432.08199908793245
 31
0.0
  0
LINE
  5
38E
330
388
100
AcDbEntity
  8
0
  6
ByBlock
 62
0
370
-2
100
AcDbLine
 10
1124.522124930605
 20
742.0819990879324
 30
0.0
 11
1116.522124930605
 21
750.0819990879324
 31
0.0
  0
LINE
  5
38F
330
388
100
AcDbEntity
  8
0
  6
ByBlock
 62
0
370
-2
100
AcDbLine
 10
1116.522124930605
 20
436.08199908793245
 30
0.0
 11
1124.522124930605
 21
428.08199908793245
 31
0.0
  0
MTEXT
  5
390
330
388
100
AcDbEntity
  8
DIM
 62
3
440
16777216
100
AcDbMText
 10
1097.7492736344866
 20
589.081999087955
 30
0.0
 40
25.0
 41
0.0
 46
0.0
 71
5
  1
314
 11
1e-16
 21
1.0
 31
0.0
  0
POINT
  5
391
330
388
100
AcDbEntity
  8
Defpoints
 62
0
440
16777216
100
AcDbPoint
 10
1155.7530819576932
 20
746.0819990879324
 30
0.0
  0
POINT
  5
392
330
388
100
AcDbEntity
  8
Defpoints
 62
0
440
16777216
100
AcDbPoint
 10
1185.7530819576932
 20
432.08199908793245
 30
0.0
  0
POINT
  5
393
330
388
100
AcDbEntity
  8
Defpoints
 62
0
440
16777216
100
AcDbPoint
 10
1120.522124930605
 20
432.08199908793245
 30
0.0
  0
ENDBLK
  5
38A
330
388
100
AcDbEntity
  8
0
100
AcDbBlockEnd
  0
BLOCK
  5
395
330
394
100
AcDbEntity
  8
0
100
AcDbBlockBegin
  2
*D30
 70
1
 10
0.0
 20
0.0
 30
0.0
  3
*D30
  1

  0
LINE
  5
397
330
394
100
AcDbEntity
  8
DIM
 62
5
370
9
 48
3.0
440
16777216
100
AcDbLine
 10
1755.7530819576932
 20
761.0819990879324
 30
0.0
 11
1755.7530819576932
 21
826.7081067140032
 31
0.0
  0
LINE
  5
398
330
394
100
AcDbEntity
  8
DIM
 62
5
370
9
 48
3.0
440
16777216
100
AcDbLine
 10
1155.7530819576932
 20
761.0819990879324
 30
0.0
 11
1155.7530819576932
 21
826.7081067140032
 31
0.0
  0
LINE
  5
399
330
394
100
AcDbEntity
  8
DIM
 62
5
370
9
 48
3.0
440
16777216
100
AcDbLine
 10
1755.7530819576932
 20
816.7081067140032
 30
0.0
 11
1155.7530819576932
 21
816.7081067140032
 31
0.0
  0
LINE
  5
39A
330
394
100
AcDbEntity
  8
0
  6
ByBlock
 62
0
370
-2
100
AcDbLine
 10
1751.7530819576932
 20
812.7081067140032
 30
0.0
 11
1759.7530819576932
 21
820.7081067140032
 31
0.0
  0
LINE
  5
39B
330
394
100
AcDbEntity
  8
0
  6
ByBlock
 62
0
370
-2
100
AcDbLine
 10
1159.7530819576932
 20
820.7081067140032
 30
0.0
 11
1151.7530819576932
 21
812.7081067140032
 31
0.0
  0
MTEXT
  5
39C
330
394
100
AcDbEntity
  8
DIM
 62
3
 48
3.0
440
16777216
100
AcDbMText
 10
1455.7530819576932
 20
839.4724314070454
 30
0.0
 40
25.0
 41
0.0
 46
0.0
 71
5
  1
600
  0
POINT
  5
39D
330
394
100
AcDbEntity
  8
Defpoints
 62
0
 48
3.0
440
16777216
100
AcDbPoint
 10
1755.7530819576932
 20
746.0819990879324
 30
0.0
  0
POINT
  5
39E
330
394
100
AcDbEntity
  8
Defpoints
 62
0
 48
3.0
440
16777216
100
AcDbPoint
 10
1155.7530819576932
 20
746.0819990879324
 30
0.0
  0
POINT
  5
39F
330
394
100
AcDbEntity
  8
Defpoints
 62
0
 48
3.0
440
16777216
100
AcDbPoint
 10
1155.7530819576932
 20
816.7081067140032
 30
0.0
  0
ENDBLK
  5
396
330
394
100
AcDbEntity
  8
0
100
AcDbBlockEnd
  0
BLOCK
  5
3A1
330
3A0
100
AcDbEntity
  8
0
100
AcDbBlockBegin
  2
*D31
 70
1
 10
0.0
 20
0.0
 30
0.0
  3
*D31
  1

  0
LINE
  5
3A3
330
3A0
100
AcDbEntity
  8
DIM
 62
5
370
9
 48
3.0
440
16777216
100
AcDbLine
 10
1740.7530819576932
 20
444.08199908793245
 30
0.0
 11
1881.7538790109975
 21
444.08199908793245
 31
0.0
  0
LINE
  5
3A4
330
3A0
100
AcDbEntity
  8
DIM
 62
5
370
9
 48
3.0
440
16777216
100
AcDbLine
 10
1770.7530819576932
 20
474.08199908793245
 30
0.0
 11
1881.7538790109975
 21
474.08199908793245
 31
0.0
  0
LINE
  5
3A5
330
3A0
100
AcDbEntity
  8
DIM
 62
5
370
9
 48
3.0
440
16777216
100
AcDbLine
 10
1871.7538790109975
 20
474.08199908793245
 30
0.0
 11
1871.7538790109975
 21
444.08199908793245
 31
0.0
  0
LINE
  5
3A6
330
3A0
100
AcDbEntity
  8
DIM
 62
5
370
9
 48
3.0
440
16777216
100
AcDbLine
 10
1871.7538790109975
 20
444.08199908793245
 30
0.0
 11
1871.7538790109975
 21
365.79773509214107
 31
0.0
  0
LINE
  5
3A7
330
3A0
100
AcDbEntity
  8
0
  6
ByBlock
 62
0
370
-2
100
AcDbLine
 10
1875.7538790109975
 20
470.08199908793245
 30
0.0
 11
1867.7538790109975
 21
478.08199908793245
 31
0.0
  0
LINE
  5
3A8
330
3A0
100
AcDbEntity
  8
0
  6
ByBlock
 62
0
370
-2
100
AcDbLine
 10
1867.7538790109975
 20
448.08199908793245
 30
0.0
 11
1875.7538790109975
 21
440.08199908793245
 31
0.0
  0
MTEXT
  5
3A9
330
3A0
100
AcDbEntity
  8
DIM
 62
3
 48
3.0
440
16777216
100
AcDbMText
 10
1848.9810277149954
 20
393.6524417770204
 30
0.0
 40
25.0
 41
0.0
 46
0.0
 71
5
  1
30
 11
1e-16
 21
1.0
 31
0.0
  0
POINT
  5
3AA
330
3A0
100
AcDbEntity
  8
Defpoints
 62
0
 48
3.0
440
16777216
100
AcDbPoint
 10
1725.7530819576932
 20
444.08199908793245
 30
0.0
  0
POINT
  5
3AB
330
3A0
100
AcDbEntity
  8
Defpoints
 62
0
 48
3.0
440
16777216
100
AcDbPoint
 10
1755.7530819576932
 20
474.08199908793245
 30
0.0
  0
POINT
  5
3AC
330
3A0
100
AcDbEntity
  8
Defpoints
 62
0
 48
3.0
440
16777216
100
AcDbPoint
 10
1871.7538790109975
 20
474.08199908793245
 30
0.0
  0
ENDBLK
  5
3A2
330
3A0
100
AcDbEntity
  8
0
100
AcDbBlockEnd
  0
BLOCK
  5
3AE
330
3AD
100
AcDbEntity
  8
0
100
AcDbBlockBegin
  2
*D32
 70
1
 10
0.0
 20
0.0
 30
0.0
  3
*D32
  1

  0
LINE
  5
3B0
330
3AD
100
AcDbEntity
  8
DIM
 62
5
370
9
 48
3.0
440
16777216
100
AcDbLine
 10
1770.7530819576932
 20
474.08199908793245
 30
0.0
 11
1881.7538790109975
 21
474.08199908793245
 31
0.0
  0
LINE
  5
3B1
330
3AD
100
AcDbEntity
  8
DIM
 62
5
370
9
 48
3.0
440
16777216
100
AcDbLine
 10
1770.7530819576932
 20
746.0819990879324
 30
0.0
 11
1881.7538790109975
 21
746.0819990879324
 31
0.0
  0
LINE
  5
3B2
330
3AD
100
AcDbEntity
  8
DIM
 62
5
370
9
 48
3.0
440
16777216
100
AcDbLine
 10
1871.7538790109975
 20
474.08199908793245
 30
0.0
 11
1871.7538790109975
 21
746.0819990879324
 31
0.0
  0
LINE
  5
3B3
330
3AD
100
AcDbEntity
  8
0
  6
ByBlock
 62
0
370
-2
100
AcDbLine
 10
1867.7538790109975
 20
478.08199908793245
 30
0.0
 11
1875.7538790109975
 21
470.08199908793245
 31
0.0
  0
LINE
  5
3B4
330
3AD
100
AcDbEntity
  8
0
  6
ByBlock
 62
0
370
-2
100
AcDbLine
 10
1875.7538790109975
 20
742.0819990879324
 30
0.0
 11
1867.7538790109975
 21
750.0819990879324
 31
0.0
  0
MTEXT
  5
3B5
330
3AD
100
AcDbEntity
  8
DIM
 62
3
 48
3.0
440
16777216
100
AcDbMText
 10
1849.2027193930116
 20
610.081999087955
 30
0.0
 40
25.0
 41
0.0
 46
0.0
 71
5
  1
272
 11
1e-16
 21
1.0
 31
0.0
  0
POINT
  5
3B6
330
3AD
100
AcDbEntity
  8
Defpoints
 62
0
 48
3.0
440
16777216
100
AcDbPoint
 10
1755.7530819576932
 20
474.08199908793245
 30
0.0
  0
POINT
  5
3B7
330
3AD
100
AcDbEntity
  8
Defpoints
 62
0
 48
3.0
440
16777216
100
AcDbPoint
 10
1755.7530819576932
 20
746.0819990879324
 30
0.0
  0
POINT
  5
3B8
330
3AD
100
AcDbEntity
  8
Defpoints
 62
0
 48
3.0
440
16777216
100
AcDbPoint
 10
1871.7538790109975
 20
746.0819990879324
 30
0.0
  0
ENDBLK
  5
3AF
330
3AD
100
AcDbEntity
  8
0
100
AcDbBlockEnd
  0
BLOCK
  5
3BA
330
3B9
100
AcDbEntity
  8
0
100
AcDbBlockBegin
  2
*D33
 70
1
 10
0.0
 20
0.0
 30
0.0
  3
*D33
  1

  0
LINE
  5
3BC
330
3B9
100
AcDbEntity
  8
DIM
 62
5
370
9
440
16777216
100
AcDbLine
 10
2513.730481897801
 20
943.5927606151606
 30
0.0
 11
2613.582442261686
 21
943.5927606151606
 31
0.0
  0
LINE
  5
3BD
330
3B9
100
AcDbEntity
  8
DIM
 62
5
370
9
440
16777216
100
AcDbLine
 10
2513.730481897801
 20
743.5927606151606
 30
0.0
 11
2613.582442261686
 21
743.5927606151606
 31
0.0
  0
LINE
  5
3BE
330
3B9
100
AcDbEntity
  8
DIM
 62
5
370
9
440
16777216
100
AcDbLine
 10
2608.582442261686
 20
943.5927606151606
 30
0.0
 11
2608.582442261686
 21
743.5927606151606
 31
0.0
  0
LINE
  5
3BF
330
3B9
100
AcDbEntity
  8
0
  6
ByBlock
 62
0
370
-2
100
AcDbLine
 10
2611.082442261686
 20
941.0927606151606
 30
0.0
 11
2606.082442261686
 21
946.0927606151606
 31
0.0
  0
LINE
  5
3C0
330
3B9
100
AcDbEntity
  8
0
  6
ByBlock
 62
0
370
-2
100
AcDbLine
 10
2606.082442261686
 20
746.0927606151606
 30
0.0
 11
2611.082442261686
 21
741.0927606151606
 31
0.0
  0
MTEXT
  5
3C1
330
3B9
100
AcDbEntity
  8
DIM
 62
3
440
16777216
100
AcDbMText
 10
2595.923847445898
 20
843.5927606151832
 30
0.0
 40
15.0
 41
0.0
 46
0.0
 71
5
  1
200
 11
1e-16
 21
1.0
 31
0.0
  0
POINT
  5
3C2
330
3B9
100
AcDbEntity
  8
Defpoints
 62
0
440
16777216
100
AcDbPoint
 10
2505.7304818978882
 20
943.5927606151606
 30
0.0
  0
POINT
  5
3C3
330
3B9
100
AcDbEntity
  8
Defpoints
 62
0
440
16777216
100
AcDbPoint
 10
2505.7304818978882
 20
743.5927606151606
 30
0.0
  0
POINT
  5
3C4
330
3B9
100
AcDbEntity
  8
Defpoints
 62
0
440
16777216
100
AcDbPoint
 10
2608.582442261686
 20
743.5927606151606
 30
0.0
  0
ENDBLK
  5
3BB
330
3B9
100
AcDbEntity
  8
0
100
AcDbBlockEnd
  0
BLOCK
  5
3C6
330
3C5
100
AcDbEntity
  8
0
100
AcDbBlockBegin
  2
*D34
 70
1
 10
0.0
 20
0.0
 30
0.0
  3
*D34
  1

  0
LINE
  5
3C8
330
3C5
100
AcDbEntity
  8
DIM
 62
5
370
9
440
16777216
100
AcDbLine
 10
2284.7304818978882
 20
785.5927606151606
 30
0.0
 11
2284.7304818978882
 21
702.1593413799353
 31
0.0
  0
LINE
  5
3C9
330
3C5
100
AcDbEntity
  8
DIM
 62
5
370
9
440
16777216
100
AcDbLine
 10
2555.730481897801
 20
785.5927606151606
 30
0.0
 11
2555.730481897801
 21
702.1593413799353
 31
0.0
  0
LINE
  5
3CA
330
3C5
100
AcDbEntity
  8
DIM
 62
5
370
9
440
16777216
100
AcDbLine
 10
2284.7304818978882
 20
707.1593413799353
 30
0.0
 11
2555.730481897801
 21
707.1593413799353
 31
0.0
  0
LINE
  5
3CB
330
3C5
100
AcDbEntity
  8
0
  6
ByBlock
 62
0
370
-2
100
AcDbLine
 10
2287.2304818978882
 20
709.6593413799353
 30
0.0
 11
2282.2304818978882
 21
704.6593413799353
 31
0.0
  0
LINE
  5
3CC
330
3C5
100
AcDbEntity
  8
0
  6
ByBlock
 62
0
370
-2
100
AcDbLine
 10
2553.230481897801
 20
704.6593413799353
 30
0.0
 11
2558.230481897801
 21
709.6593413799353
 31
0.0
  0
MTEXT
  5
3CD
330
3C5
100
AcDbEntity
  8
DIM
 62
3
440
16777216
100
AcDbMText
 10
2420.2304818978882
 20
719.6900371507402
 30
0.0
 40
15.0
 41
0.0
 46
0.0
 71
5
  1
271
  0
POINT
  5
3CE
330
3C5
100
AcDbEntity
  8
Defpoints
 62
0
440
16777216
100
AcDbPoint
 10
2284.7304818978882
 20
793.5927606151606
 30
0.0
  0
POINT
  5
3CF
330
3C5
100
AcDbEntity
  8
Defpoints
 62
0
440
16777216
100
AcDbPoint
 10
2555.730481897801
 20
793.5927606151606
 30
0.0
  0
POINT
  5
3D0
330
3C5
100
AcDbEntity
  8
Defpoints
 62
0
440
16777216
100
AcDbPoint
 10
2555.730481897801
 20
707.1593413799353
 30
0.0
  0
ENDBLK
  5
3C7
330
3C5
100
AcDbEntity
  8
0
100
AcDbBlockEnd
  0
BLOCK
  5
3D2
330
3D1
100
AcDbEntity
  8
0
100
AcDbBlockBegin
  2
*D35
 70
1
 10
0.0
 20
0.0
 30
0.0
  3
*D35
  1

  0
LINE
  5
3D4
330
3D1
100
AcDbEntity
  8
DIM
 62
5
370
9
440
16777216
100
AcDbLine
 10
2276.730481897801
 20
893.5927606151606
 30
0.0
 11
2234.7938190219866
 21
893.5927606151606
 31
0.0
  0
LINE
  5
3D5
330
3D1
100
AcDbEntity
  8
DIM
 62
5
370
9
440
16777216
100
AcDbLine
 10
2276.730481897801
 20
793.5927606151606
 30
0.0
 11
2234.7938190219866
 21
793.5927606151606
 31
0.0
  0
LINE
  5
3D6
330
3D1
100
AcDbEntity
  8
DIM
 62
5
370
9
440
16777216
100
AcDbLine
 10
2239.7938190219866
 20
893.5927606151606
 30
0.0
 11
2239.7938190219866
 21
793.5927606151606
 31
0.0
  0
LINE
  5
3D7
330
3D1
100
AcDbEntity
  8
0
  6
ByBlock
 62
0
370
-2
100
AcDbLine
 10
2242.2938190219866
 20
891.0927606151606
 30
0.0
 11
2237.2938190219866
 21
896.0927606151606
 31
0.0
  0
LINE
  5
3D8
330
3D1
100
AcDbEntity
  8
0
  6
ByBlock
 62
0
370
-2
100
AcDbLine
 10
2237.2938190219866
 20
796.0927606151606
 30
0.0
 11
2242.2938190219866
 21
791.0927606151606
 31
0.0
  0
MTEXT
  5
3D9
330
3D1
100
AcDbEntity
  8
DIM
 62
3
440
16777216
100
AcDbMText
 10
2227.1352242061985
 20
843.5927606151832
 30
0.0
 40
15.0
 41
0.0
 46
0.0
 71
5
  1
100
 11
1e-16
 21
1.0
 31
0.0
  0
POINT
  5
3DA
330
3D1
100
AcDbEntity
  8
Defpoints
 62
0
440
16777216
100
AcDbPoint
 10
2284.7304818978882
 20
893.5927606151606
 30
0.0
  0
POINT
  5
3DB
330
3D1
100
AcDbEntity
  8
Defpoints
 62
0
440
16777216
100
AcDbPoint
 10
2284.7304818978882
 20
793.5927606151606
 30
0.0
  0
POINT
  5
3DC
330
3D1
100
AcDbEntity
  8
Defpoints
 62
0
440
16777216
100
AcDbPoint
 10
2239.7938190219866
 20
793.5927606151606
 30
0.0
  0
ENDBLK
  5
3D3
330
3D1
100
AcDbEntity
  8
0
100
AcDbBlockEnd
  0
BLOCK
  5
3DE
330
3DD
100
AcDbEntity
  8
0
100
AcDbBlockBegin
  2
*D36
 70
1
 10
0.0
 20
0.0
 30
0.0
  3
*D36
  1

  0
LINE
  5
3E0
330
3DD
100
AcDbEntity
  8
DIM
 62
5
370
9
440
16777216
100
AcDbLine
 10
2276.730481897801
 20
893.5927606151606
 30
0.0
 11
2234.7938190219866
 21
893.5927606151606
 31
0.0
  0
LINE
  5
3E1
330
3DD
100
AcDbEntity
  8
DIM
 62
5
370
9
440
16777216
100
AcDbLine
 10
2326.730481897801
 20
943.5927606151606
 30
0.0
 11
2234.7938190219866
 21
943.5927606151606
 31
0.0
  0
LINE
  5
3E2
330
3DD
100
AcDbEntity
  8
DIM
 62
5
370
9
440
16777216
100
AcDbLine
 10
2239.7938190219866
 20
893.5927606151606
 30
0.0
 11
2239.7938190219866
 21
943.5927606151606
 31
0.0
  0
LINE
  5
3E3
330
3DD
100
AcDbEntity
  8
0
  6
ByBlock
 62
0
370
-2
100
AcDbLine
 10
2237.2938190219866
 20
896.0927606151606
 30
0.0
 11
2242.2938190219866
 21
891.0927606151606
 31
0.0
  0
LINE
  5
3E4
330
3DD
100
AcDbEntity
  8
0
  6
ByBlock
 62
0
370
-2
100
AcDbLine
 10
2242.2938190219866
 20
941.0927606151606
 30
0.0
 11
2237.2938190219866
 21
946.0927606151606
 31
0.0
  0
MTEXT
  5
3E5
330
3DD
100
AcDbEntity
  8
DIM
 62
3
440
16777216
100
AcDbMText
 10
2227.1352242061985
 20
918.5927606151831
 30
0.0
 40
15.0
 41
0.0
 46
0.0
 71
5
  1
50
 11
1e-16
 21
1.0
 31
0.0
  0
POINT
  5
3E6
330
3DD
100
AcDbEntity
  8
Defpoints
 62
0
440
16777216
100
AcDbPoint
 10
2284.7304818978882
 20
893.5927606151606
 30
0.0
  0
POINT
  5
3E7
330
3DD
100
AcDbEntity
  8
Defpoints
 62
0
440
16777216
100
AcDbPoint
 10
2334.730481897801
 20
943.5927606151606
 30
0.0
  0
POINT
  5
3E8
330
3DD
100
AcDbEntity
  8
Defpoints
 62
0
440
16777216
100
AcDbPoint
 10
2239.7938190219866
 20
943.5927606151606
 30
0.0
  0
ENDBLK
  5
3DF
330
3DD
100
AcDbEntity
  8
0
100
AcDbBlockEnd
  0
BLOCK
  5
3EA
330
3E9
100
AcDbEntity
  8
0
100
AcDbBlockBegin
  2
*D37
 70
1
 10
0.0
 20
0.0
 30
0.0
  3
*D37
  1

  0
LINE
  5
3EC
330
3E9
100
AcDbEntity
  8
DIM
 62
5
370
9
440
16777216
100
AcDbLine
 10
2276.730481897801
 20
793.5927606151606
 30
0.0
 11
2234.7938190219866
 21
793.5927606151606
 31
0.0
  0
LINE
  5
3ED
330
3E9
100
AcDbEntity
  8
DIM
 62
5
370
9
440
16777216
100
AcDbLine
 10
2326.730481897801
 20
743.5927606151606
 30
0.0
 11
2234.7938190219866
 21
743.5927606151606
 31
0.0
  0
LINE
  5
3EE
330
3E9
100
AcDbEntity
  8
DIM
 62
5
370
9
440
16777216
100
AcDbLine
 10
2239.7938190219866
 20
793.5927606151606
 30
0.0
 11
2239.7938190219866
 21
743.5927606151606
 31
0.0
  0
LINE
  5
3EF
330
3E9
100
AcDbEntity
  8
0
  6
ByBlock
 62
0
370
-2
100
AcDbLine
 10
2242.2938190219866
 20
791.0927606151606
 30
0.0
 11
2237.2938190219866
 21
796.0927606151606
 31
0.0
  0
LINE
  5
3F0
330
3E9
100
AcDbEntity
  8
0
  6
ByBlock
 62
0
370
-2
100
AcDbLine
 10
2237.2938190219866
 20
746.0927606151606
 30
0.0
 11
2242.2938190219866
 21
741.0927606151606
 31
0.0
  0
MTEXT
  5
3F1
330
3E9
100
AcDbEntity
  8
DIM
 62
3
440
16777216
100
AcDbMText
 10
2227.1352242061985
 20
768.5927606151832
 30
0.0
 40
15.0
 41
0.0
 46
0.0
 71
5
  1
50
 11
1e-16
 21
1.0
 31
0.0
  0
POINT
  5
3F2
330
3E9
100
AcDbEntity
  8
Defpoints
 62
0
440
16777216
100
AcDbPoint
 10
2284.7304818978882
 20
793.5927606151606
 30
0.0
  0
POINT
  5
3F3
330
3E9
100
AcDbEntity
  8
Defpoints
 62
0
440
16777216
100
AcDbPoint
 10
2334.730481897801
 20
743.5927606151606
 30
0.0
  0
POINT
  5
3F4
330
3E9
100
AcDbEntity
  8
Defpoints
 62
0
440
16777216
100
AcDbPoint
 10
2239.7938190219866
 20
743.5927606151606
 30
0.0
  0
ENDBLK
  5
3EB
330
3E9
100
AcDbEntity
  8
0
100
AcDbBlockEnd
  0
BLOCK
  5
3F6
330
3F5
100
AcDbEntity
  8
0
100
AcDbBlockBegin
  2
*D38
 70
1
 10
0.0
 20
0.0
 30
0.0
  3
*D38
  1

  0
LINE
  5
3F8
330
3F5
100
AcDbEntity
  8
DIM
 62
5
370
9
440
16777216
100
AcDbLine
 10
2679.7940820372896
 20
637.2019511410842
 30
0.0
 11
2779.6460424010875
 21
637.2019511410842
 31
0.0
  0
LINE
  5
3F9
330
3F5
100
AcDbEntity
  8
DIM
 62
5
370
9
440
16777216
100
AcDbLine
 10
2679.7940820372896
 20
437.20195114108424
 30
0.0
 11
2779.6460424010875
 21
437.2019511410842
 31
0.0
  0
LINE
  5
3FA
330
3F5
100
AcDbEntity
  8
DIM
 62
5
370
9
440
16777216
100
AcDbLine
 10
2774.6460424010875
 20
637.2019511410842
 30
0.0
 11
2774.6460424010875
 21
437.2019511410842
 31
0.0
  0
LINE
  5
3FB
330
3F5
100
AcDbEntity
  8
0
  6
ByBlock
 62
0
370
-2
100
AcDbLine
 10
2777.1460424010875
 20
634.7019511410842
 30
0.0
 11
2772.1460424010875
 21
639.7019511410842
 31
0.0
  0
LINE
  5
3FC
330
3F5
100
AcDbEntity
  8
0
  6
ByBlock
 62
0
370
-2
100
AcDbLine
 10
2772.1460424010875
 20
439.7019511410842
 30
0.0
 11
2777.1460424010875
 21
434.7019511410842
 31
0.0
  0
MTEXT
  5
3FD
330
3F5
100
AcDbEntity
  8
DIM
 62
3
440
16777216
100
AcDbMText
 10
2761.9874475852994
 20
537.201951141107
 30
0.0
 40
15.0
 41
0.0
 46
0.0
 71
5
  1
200
 11
1e-16
 21
1.0
 31
0.0
  0
POINT
  5
3FE
330
3F5
100
AcDbEntity
  8
Defpoints
 62
0
440
16777216
100
AcDbPoint
 10
2671.7940820372896
 20
637.2019511410842
 30
0.0
  0
POINT
  5
3FF
330
3F5
100
AcDbEntity
  8
Defpoints
 62
0
440
16777216
100
AcDbPoint
 10
2671.7940820372896
 20
437.20195114108424
 30
0.0
  0
POINT
  5
400
330
3F5
100
AcDbEntity
  8
Defpoints
 62
0
440
16777216
100
AcDbPoint
 10
2774.6460424010875
 20
437.2019511410842
 30
0.0
  0
ENDBLK
  5
3F7
330
3F5
100
AcDbEntity
  8
0
100
AcDbBlockEnd
  0
BLOCK
  5
402
330
401
100
AcDbEntity
  8
0
100
AcDbBlockBegin
  2
*D39
 70
1
 10
0.0
 20
0.0
 30
0.0
  3
*D39
  1

  0
LINE
  5
404
330
401
100
AcDbEntity
  8
DIM
 62
5
370
9
440
16777216
100
AcDbLine
 10
2124.7940820372896
 20
479.2019511410843
 30
0.0
 11
2124.7940820372896
 21
395.76853190585894
 31
0.0
  0
LINE
  5
405
330
401
100
AcDbEntity
  8
DIM
 62
5
370
9
440
16777216
100
AcDbLine
 10
2721.7940820372896
 20
479.2019511410843
 30
0.0
 11
2721.7940820372896
 21
395.76853190585894
 31
0.0
  0
LINE
  5
406
330
401
100
AcDbEntity
  8
DIM
 62
5
370
9
440
16777216
100
AcDbLine
 10
2124.7940820372896
 20
400.76853190585894
 30
0.0
 11
2721.7940820372896
 21
400.76853190585894
 31
0.0
  0
LINE
  5
407
330
401
100
AcDbEntity
  8
0
  6
ByBlock
 62
0
370
-2
100
AcDbLine
 10
2127.2940820372896
 20
403.26853190585894
 30
0.0
 11
2122.2940820372896
 21
398.26853190585894
 31
0.0
  0
LINE
  5
408
330
401
100
AcDbEntity
  8
0
  6
ByBlock
 62
0
370
-2
100
AcDbLine
 10
2719.2940820372896
 20
398.26853190585894
 30
0.0
 11
2724.2940820372896
 21
403.26853190585894
 31
0.0
  0
MTEXT
  5
409
330
401
100
AcDbEntity
  8
DIM
 62
3
440
16777216
100
AcDbMText
 10
2423.2940820372896
 20
413.4271267216844
 30
0.0
 40
15.0
 41
0.0
 46
0.0
 71
5
  1
597
  0
POINT
  5
40A
330
401
100
AcDbEntity
  8
Defpoints
 62
0
440
16777216
100
AcDbPoint
 10
2124.7940820372896
 20
487.2019511410843
 30
0.0
  0
POINT
  5
40B
330
401
100
AcDbEntity
  8
Defpoints
 62
0
440
16777216
100
AcDbPoint
 10
2721.7940820372896
 20
487.2019511410843
 30
0.0
  0
POINT
  5
40C
330
401
100
AcDbEntity
  8
Defpoints
 62
0
440
16777216
100
AcDbPoint
 10
2721.7940820372896
 20
400.76853190585894
 30
0.0
  0
ENDBLK
  5
403
330
401
100
AcDbEntity
  8
0
100
AcDbBlockEnd
  0
BLOCK
  5
40E
330
40D
100
AcDbEntity
  8
0
100
AcDbBlockBegin
  2
*D40
 70
1
 10
0.0
 20
0.0
 30
0.0
  3
*D40
  1

  0
LINE
  5
410
330
40D
100
AcDbEntity
  8
DIM
 62
5
370
9
440
16777216
100
AcDbLine
 10
2116.7940820372896
 20
587.2019511410842
 30
0.0
 11
2074.8574191615044
 21
587.2019511410842
 31
0.0
  0
LINE
  5
411
330
40D
100
AcDbEntity
  8
DIM
 62
5
370
9
440
16777216
100
AcDbLine
 10
2116.7940820372896
 20
487.2019511410843
 30
0.0
 11
2074.8574191615044
 21
487.2019511410843
 31
0.0
  0
LINE
  5
412
330
40D
100
AcDbEntity
  8
DIM
 62
5
370
9
440
16777216
100
AcDbLine
 10
2079.8574191615044
 20
587.2019511410842
 30
0.0
 11
2079.8574191615044
 21
487.2019511410843
 31
0.0
  0
LINE
  5
413
330
40D
100
AcDbEntity
  8
0
  6
ByBlock
 62
0
370
-2
100
AcDbLine
 10
2082.3574191615044
 20
584.7019511410842
 30
0.0
 11
2077.3574191615044
 21
589.7019511410842
 31
0.0
  0
LINE
  5
414
330
40D
100
AcDbEntity
  8
0
  6
ByBlock
 62
0
370
-2
100
AcDbLine
 10
2077.3574191615044
 20
489.7019511410843
 30
0.0
 11
2082.3574191615044
 21
484.7019511410843
 31
0.0
  0
MTEXT
  5
415
330
40D
100
AcDbEntity
  8
DIM
 62
3
440
16777216
100
AcDbMText
 10
2067.198824345687
 20
537.2019511411069
 30
0.0
 40
15.0
 41
0.0
 46
0.0
 71
5
  1
100
 11
1e-16
 21
1.0
 31
0.0
  0
POINT
  5
416
330
40D
100
AcDbEntity
  8
Defpoints
 62
0
440
16777216
100
AcDbPoint
 10
2124.7940820372896
 20
587.2019511410842
 30
0.0
  0
POINT
  5
417
330
40D
100
AcDbEntity
  8
Defpoints
 62
0
440
16777216
100
AcDbPoint
 10
2124.7940820372896
 20
487.2019511410843
 30
0.0
  0
POINT
  5
418
330
40D
100
AcDbEntity
  8
Defpoints
 62
0
440
16777216
100
AcDbPoint
 10
2079.8574191615044
 20
487.2019511410843
 30
0.0
  0
ENDBLK
  5
40F
330
40D
100
AcDbEntity
  8
0
100
AcDbBlockEnd
  0
BLOCK
  5
41A
330
419
100
AcDbEntity
  8
0
100
AcDbBlockBegin
  2
*D41
 70
1
 10
0.0
 20
0.0
 30
0.0
  3
*D41
  1

  0
LINE
  5
41C
330
419
100
AcDbEntity
  8
DIM
 62
5
370
9
440
16777216
100
AcDbLine
 10
2116.7940820372896
 20
587.2019511410842
 30
0.0
 11
2074.8574191615044
 21
587.2019511410842
 31
0.0
  0
LINE
  5
41D
330
419
100
AcDbEntity
  8
DIM
 62
5
370
9
440
16777216
100
AcDbLine
 10
2166.7940820372896
 20
637.2019511410842
 30
0.0
 11
2074.8574191615044
 21
637.2019511410842
 31
0.0
  0
LINE
  5
41E
330
419
100
AcDbEntity
  8
DIM
 62
5
370
9
440
16777216
100
AcDbLine
 10
2079.8574191615044
 20
587.2019511410842
 30
0.0
 11
2079.8574191615044
 21
637.2019511410842
 31
0.0
  0
LINE
  5
41F
330
419
100
AcDbEntity
  8
0
  6
ByBlock
 62
0
370
-2
100
AcDbLine
 10
2077.3574191615044
 20
589.7019511410842
 30
0.0
 11
2082.3574191615044
 21
584.7019511410842
 31
0.0
  0
LINE
  5
420
330
419
100
AcDbEntity
  8
0
  6
ByBlock
 62
0
370
-2
100
AcDbLine
 10
2082.3574191615044
 20
634.7019511410842
 30
0.0
 11
2077.3574191615044
 21
639.7019511410842
 31
0.0
  0
MTEXT
  5
421
330
419
100
AcDbEntity
  8
DIM
 62
3
440
16777216
100
AcDbMText
 10
2067.1988243456
 20
612.2019511411069
 30
0.0
 40
15.0
 41
0.0
 46
0.0
 71
5
  1
50
 11
1e-16
 21
1.0
 31
0.0
  0
POINT
  5
422
330
419
100
AcDbEntity
  8
Defpoints
 62
0
440
16777216
100
AcDbPoint
 10
2124.7940820372896
 20
587.2019511410842
 30
0.0
  0
POINT
  5
423
330
419
100
AcDbEntity
  8
Defpoints
 62
0
440
16777216
100
AcDbPoint
 10
2174.7940820372896
 20
637.2019511410842
 30
0.0
  0
POINT
  5
424
330
419
100
AcDbEntity
  8
Defpoints
 62
0
440
16777216
100
AcDbPoint
 10
2079.8574191615044
 20
637.2019511410842
 30
0.0
  0
ENDBLK
  5
41B
330
419
100
AcDbEntity
  8
0
100
AcDbBlockEnd
  0
BLOCK
  5
426
330
425
100
AcDbEntity
  8
0
100
AcDbBlockBegin
  2
*D42
 70
1
 10
0.0
 20
0.0
 30
0.0
  3
*D42
  1

  0
LINE
  5
428
330
425
100
AcDbEntity
  8
DIM
 62
5
370
9
440
16777216
100
AcDbLine
 10
2116.7940820372896
 20
487.2019511410843
 30
0.0
 11
2074.8574191615044
 21
487.2019511410843
 31
0.0
  0
LINE
  5
429
330
425
100
AcDbEntity
  8
DIM
 62
5
370
9
440
16777216
100
AcDbLine
 10
2166.7940820372896
 20
437.20195114108424
 30
0.0
 11
2074.8574191615044
 21
437.20195114108424
 31
0.0
  0
LINE
  5
42A
330
425
100
AcDbEntity
  8
DIM
 62
5
370
9
440
16777216
100
AcDbLine
 10
2079.8574191615044
 20
487.2019511410843
 30
0.0
 11
2079.8574191615044
 21
437.20195114108424
 31
0.0
  0
LINE
  5
42B
330
425
100
AcDbEntity
  8
0
  6
ByBlock
 62
0
370
-2
100
AcDbLine
 10
2082.3574191615044
 20
484.7019511410843
 30
0.0
 11
2077.3574191615044
 21
489.7019511410843
 31
0.0
  0
LINE
  5
42C
330
425
100
AcDbEntity
  8
0
  6
ByBlock
 62
0
370
-2
100
AcDbLine
 10
2077.3574191615044
 20
439.70195114108424
 30
0.0
 11
2082.3574191615044
 21
434.70195114108424
 31
0.0
  0
MTEXT
  5
42D
330
425
100
AcDbEntity
  8
DIM
 62
3
440
16777216
100
AcDbMText
 10
2067.1988243456
 20
462.20195114110686
 30
0.0
 40
15.0
 41
0.0
 46
0.0
 71
5
  1
50
 11
1e-16
 21
1.0
 31
0.0
  0
POINT
  5
42E
330
425
100
AcDbEntity
  8
Defpoints
 62
0
440
16777216
100
AcDbPoint
 10
2124.7940820372896
 20
487.2019511410843
 30
0.0
  0
POINT
  5
42F
330
425
100
AcDbEntity
  8
Defpoints
 62
0
440
16777216
100
AcDbPoint
 10
2174.7940820372896
 20
437.20195114108424
 30
0.0
  0
POINT
  5
430
330
425
100
AcDbEntity
  8
Defpoints
 62
0
440
16777216
100
AcDbPoint
 10
2079.8574191615044
 20
437.20195114108424
 30
0.0
  0
ENDBLK
  5
427
330
425
100
AcDbEntity
  8
0
100
AcDbBlockEnd
  0
BLOCK
  5
432
330
431
100
AcDbEntity
  8
0
100
AcDbBlockBegin
  2
*D43
 70
1
 10
0.0
 20
0.0
 30
0.0
  3
*D43
  1

  0
LINE
  5
434
330
431
100
AcDbEntity
  8
DIM
 62
5
370
9
 48
3.0
440
16777216
100
AcDbLine
 10
3370.594492234901
 20
459.06950483584006
 30
0.0
 11
3370.594492234901
 21
382.9052515932642
 31
0.0
  0
LINE
  5
435
330
431
100
AcDbEntity
  8
DIM
 62
5
370
9
 48
3.0
440
16777216
100
AcDbLine
 10
2910.594492234901
 20
459.06950483584006
 30
0.0
 11
2910.594492234901
 21
382.9052515932642
 31
0.0
  0
LINE
  5
436
330
431
100
AcDbEntity
  8
DIM
 62
5
370
9
 48
3.0
440
16777216
100
AcDbLine
 10
3370.594492234901
 20
392.9052515932642
 30
0.0
 11
2910.594492234901
 21
392.9052515932642
 31
0.0
  0
LINE
  5
437
330
431
100
AcDbEntity
  8
0
  6
ByBlock
 62
0
370
-2
100
AcDbLine
 10
3366.594492234901
 20
388.9052515932642
 30
0.0
 11
3374.594492234901
 21
396.9052515932642
 31
0.0
  0
LINE
  5
438
330
431
100
AcDbEntity
  8
0
  6
ByBlock
 62
0
370
-2
100
AcDbLine
 10
2914.594492234901
 20
396.9052515932642
 30
0.0
 11
2906.594492234901
 21
388.9052515932642
 31
0.0
  0
MTEXT
  5
439
330
431
100
AcDbEntity
  8
DIM
 62
3
 48
3.0
440
16777216
100
AcDbMText
 10
3140.594492234901
 20
415.66957628630644
 30
0.0
 40
25.0
 41
0.0
 46
0.0
 71
5
  1
460
  0
POINT
  5
43A
330
431
100
AcDbEntity
  8
Defpoints
 62
0
 48
3.0
440
16777216
100
AcDbPoint
 10
3370.594492234901
 20
474.06950483584006
 30
0.0
  0
POINT
  5
43B
330
431
100
AcDbEntity
  8
Defpoints
 62
0
 48
3.0
440
16777216
100
AcDbPoint
 10
2910.594492234901
 20
474.06950483584006
 30
0.0
  0
POINT
  5
43C
330
431
100
AcDbEntity
  8
Defpoints
 62
0
 48
3.0
440
16777216
100
AcDbPoint
 10
2910.594492234901
 20
392.9052515932642
 30
0.0
  0
ENDBLK
  5
433
330
431
100
AcDbEntity
  8
0
100
AcDbBlockEnd
  0
BLOCK
  5
43E
330
43D
100
AcDbEntity
  8
0
100
AcDbBlockBegin
  2
*D44
 70
1
 10
0.0
 20
0.0
 30
0.0
  3
*D44
  1

  0
LINE
  5
440
330
43D
100
AcDbEntity
  8
DIM
 62
5
370
9
 48
3.0
440
16777216
100
AcDbLine
 10
3385.594492234901
 20
474.06950483584
 30
0.0
 11
3454.7587597027887
 21
474.06950483584
 31
0.0
  0
LINE
  5
441
330
43D
100
AcDbEntity
  8
DIM
 62
5
370
9
 48
3.0
440
16777216
100
AcDbLine
 10
3385.594492234901
 20
634.0695048358109
 30
0.0
 11
3454.7587597027887
 21
634.0695048358109
 31
0.0
  0
LINE
  5
442
330
43D
100
AcDbEntity
  8
DIM
 62
5
370
9
 48
3.0
440
16777216
100
AcDbLine
 10
3444.7587597027887
 20
474.06950483584
 30
0.0
 11
3444.7587597027887
 21
634.0695048358109
 31
0.0
  0
LINE
  5
443
330
43D
100
AcDbEntity
  8
0
  6
ByBlock
 62
0
370
-2
100
AcDbLine
 10
3440.7587597027887
 20
478.06950483584
 30
0.0
 11
3448.7587597027887
 21
470.06950483584
 31
0.0
  0
LINE
  5
444
330
43D
100
AcDbEntity
  8
0
  6
ByBlock
 62
0
370
-2
100
AcDbLine
 10
3448.7587597027887
 20
630.0695048358109
 30
0.0
 11
3440.7587597027887
 21
638.0695048358109
 31
0.0
  0
MTEXT
  5
445
330
43D
100
AcDbEntity
  8
DIM
 62
3
 48
3.0
440
16777216
100
AcDbMText
 10
3421.9944350098085
 20
554.0695048358483
 30
0.0
 40
25.0
 41
0.0
 46
0.0
 71
5
  1
160
 11
1e-16
 21
1.0
 31
0.0
  0
POINT
  5
446
330
43D
100
AcDbEntity
  8
Defpoints
 62
0
 48
3.0
440
16777216
100
AcDbPoint
 10
3370.594492234901
 20
474.06950483584006
 30
0.0
  0
POINT
  5
447
330
43D
100
AcDbEntity
  8
Defpoints
 62
0
 48
3.0
440
16777216
100
AcDbPoint
 10
3370.594492234901
 20
634.0695048358109
 30
0.0
  0
POINT
  5
448
330
43D
100
AcDbEntity
  8
Defpoints
 62
0
 48
3.0
440
16777216
100
AcDbPoint
 10
3444.7587597027887
 20
634.0695048358109
 30
0.0
  0
ENDBLK
  5
43F
330
43D
100
AcDbEntity
  8
0
100
AcDbBlockEnd
  0
BLOCK
  5
44A
330
449
100
AcDbEntity
  8
0
100
AcDbBlockBegin
  2
*D45
 70
1
 10
0.0
 20
0.0
 30
0.0
  3
*D45
  1

  0
LINE
  5
44C
330
449
100
AcDbEntity
  8
DIM
 62
5
370
9
440
16777216
100
AcDbLine
 10
3498.261694596091
 20
2277.5467884174795
 30
0.0
 11
3498.261694596091
 21
2331.7295719580516
 31
0.0
  0
LINE
  5
44D
330
449
100
AcDbEntity
  8
DIM
 62
5
370
9
440
16777216
100
AcDbLine
 10
3510.261694596091
 20
2265.5467884174805
 30
0.0
 11
3510.261694596091
 21
2331.7295719580516
 31
0.0
  0
LINE
  5
44E
330
449
100
AcDbEntity
  8
DIM
 62
5
370
9
440
16777216
100
AcDbLine
 10
3498.261694596091
 20
2321.7295719580507
 30
0.0
 11
3490.2616945960035
 21
2321.7295719580507
 31
0.0
  0
LINE
  5
44F
330
449
100
AcDbEntity
  8
DIM
 62
5
370
9
440
16777216
100
AcDbLine
 10
3510.261694596091
 20
2321.7295719580507
 30
0.0
 11
3579.464286683389
 21
2321.7295719580507
 31
0.0
  0
LINE
  5
450
330
449
100
AcDbEntity
  8
DIM
 62
5
370
9
440
16777216
100
AcDbLine
 10
3498.261694596091
 20
2321.7295719580507
 30
0.0
 11
3510.261694596091
 21
2321.7295719580507
 31
0.0
  0
LINE
  5
451
330
449
100
AcDbEntity
  8
0
  6
ByBlock
 62
0
370
-2
100
AcDbLine
 10
3494.261694596091
 20
2317.7295719580507
 30
0.0
 11
3502.261694596091
 21
2325.7295719580507
 31
0.0
  0
LINE
  5
452
330
449
100
AcDbEntity
  8
0
  6
ByBlock
 62
0
370
-2
100
AcDbLine
 10
3514.261694596091
 20
2325.7295719580507
 30
0.0
 11
3506.261694596091
 21
2317.7295719580507
 31
0.0
  0
MTEXT
  5
453
330
449
100
AcDbEntity
  8
DIM
 62
3
440
16777216
100
AcDbMText
 10
3552.8629906396964
 20
2344.2807315760597
 30
0.0
 40
25.0
 41
0.0
 46
0.0
 71
5
  1
12
  0
POINT
  5
454
330
449
100
AcDbEntity
  8
Defpoints
 62
0
440
16777216
100
AcDbPoint
 10
3498.261694596091
 20
2262.5467884174805
 30
0.0
  0
POINT
  5
455
330
449
100
AcDbEntity
  8
Defpoints
 62
0
440
16777216
100
AcDbPoint
 10
3510.261694596091
 20
2250.5467884174795
 30
0.0
  0
POINT
  5
456
330
449
100
AcDbEntity
  8
Defpoints
 62
0
440
16777216
100
AcDbPoint
 10
3510.261694596091
 20
2321.7295719580507
 30
0.0
  0
ENDBLK
  5
44B
330
449
100
AcDbEntity
  8
0
100
AcDbBlockEnd
  0
BLOCK
  5
458
330
457
100
AcDbEntity
  8
0
100
AcDbBlockBegin
  2
*D46
 70
1
 10
0.0
 20
0.0
 30
0.0
  3
*D46
  1

  0
LINE
  5
45A
330
457
100
AcDbEntity
  8
DIM
 62
5
370
9
440
16777216
100
AcDbLine
 10
3475.261694596091
 20
2300.5467884174795
 30
0.0
 11
3475.261694596091
 21
2370.4075641500312
 31
0.0
  0
LINE
  5
45B
330
457
100
AcDbEntity
  8
DIM
 62
5
370
9
440
16777216
100
AcDbLine
 10
3498.261694596091
 20
2277.5467884174795
 30
0.0
 11
3498.261694596091
 21
2370.4075641500312
 31
0.0
  0
LINE
  5
45C
330
457
100
AcDbEntity
  8
DIM
 62
5
370
9
440
16777216
100
AcDbLine
 10
3475.261694596091
 20
2360.4075641500312
 30
0.0
 11
3498.261694596091
 21
2360.4075641500312
 31
0.0
  0
LINE
  5
45D
330
457
100
AcDbEntity
  8
DIM
 62
5
370
9
440
16777216
100
AcDbLine
 10
3498.261694596091
 20
2360.4075641500312
 30
0.0
 11
3562.4997573519067
 21
2360.4075641500312
 31
0.0
  0
LINE
  5
45E
330
457
100
AcDbEntity
  8
0
  6
ByBlock
 62
0
370
-2
100
AcDbLine
 10
3479.261694596091
 20
2364.4075641500312
 30
0.0
 11
3471.261694596091
 21
2356.4075641500312
 31
0.0
  0
LINE
  5
45F
330
457
100
AcDbEntity
  8
0
  6
ByBlock
 62
0
370
-2
100
AcDbLine
 10
3494.261694596091
 20
2356.4075641500312
 30
0.0
 11
3502.261694596091
 21
2364.4075641500312
 31
0.0
  0
MTEXT
  5
460
330
457
100
AcDbEntity
  8
DIM
 62
3
440
16777216
100
AcDbMText
 10
3534.380725973984
 20
2383.1804154460756
 30
0.0
 40
25.0
 41
0.0
 46
0.0
 71
5
  1
23
  0
POINT
  5
461
330
457
100
AcDbEntity
  8
Defpoints
 62
0
440
16777216
100
AcDbPoint
 10
3475.261694596091
 20
2285.5467884174805
 30
0.0
  0
POINT
  5
462
330
457
100
AcDbEntity
  8
Defpoints
 62
0
440
16777216
100
AcDbPoint
 10
3498.261694596091
 20
2262.5467884174805
 30
0.0
  0
POINT
  5
463
330
457
100
AcDbEntity
  8
Defpoints
 62
0
440
16777216
100
AcDbPoint
 10
3498.261694596091
 20
2360.4075641500312
 30
0.0
  0
ENDBLK
  5
459
330
457
100
AcDbEntity
  8
0
100
AcDbBlockEnd
  0
BLOCK
  5
465
330
464
100
AcDbEntity
  8
0
100
AcDbBlockBegin
  2
*D47
 70
1
 10
0.0
 20
0.0
 30
0.0
  3
*D47
  1

  0
LINE
  5
467
330
464
100
AcDbEntity
  8
DIM
 62
5
370
9
440
16777216
100
AcDbLine
 10
3475.261694596091
 20
2300.5467884174795
 30
0.0
 11
3475.261694596091
 21
2370.4075641500312
 31
0.0
  0
LINE
  5
468
330
464
100
AcDbEntity
  8
DIM
 62
5
370
9
440
16777216
100
AcDbLine
 10
2877.2616945960035
 20
2300.5467884174795
 30
0.0
 11
2877.2616945960035
 21
2370.4075641500312
 31
0.0
  0
LINE
  5
469
330
464
100
AcDbEntity
  8
DIM
 62
5
370
9
440
16777216
100
AcDbLine
 10
3475.261694596091
 20
2360.4075641500312
 30
0.0
 11
2877.2616945960035
 21
2360.4075641500312
 31
0.0
  0
LINE
  5
46A
330
464
100
AcDbEntity
  8
0
  6
ByBlock
 62
0
370
-2
100
AcDbLine
 10
3471.261694596091
 20
2356.4075641500312
 30
0.0
 11
3479.261694596091
 21
2364.4075641500312
 31
0.0
  0
LINE
  5
46B
330
464
100
AcDbEntity
  8
0
  6
ByBlock
 62
0
370
-2
100
AcDbLine
 10
2881.2616945960035
 20
2364.4075641500312
 30
0.0
 11
2873.2616945960035
 21
2356.4075641500312
 31
0.0
  0
MTEXT
  5
46C
330
464
100
AcDbEntity
  8
DIM
 62
3
440
16777216
100
AcDbMText
 10
3176.261694596091
 20
2383.1718888430746
 30
0.0
 40
25.0
 41
0.0
 46
0.0
 71
5
  1
598
  0
POINT
  5
46D
330
464
100
AcDbEntity
  8
Defpoints
 62
0
440
16777216
100
AcDbPoint
 10
3475.261694596091
 20
2285.5467884174805
 30
0.0
  0
POINT
  5
46E
330
464
100
AcDbEntity
  8
Defpoints
 62
0
440
16777216
100
AcDbPoint
 10
2877.2616945960035
 20
2285.5467884174805
 30
0.0
  0
POINT
  5
46F
330
464
100
AcDbEntity
  8
Defpoints
 62
0
440
16777216
100
AcDbPoint
 10
2877.2616945960035
 20
2360.4075641500312
 30
0.0
  0
ENDBLK
  5
466
330
464
100
AcDbEntity
  8
0
100
AcDbBlockEnd
  0
BLOCK
  5
471
330
470
100
AcDbEntity
  8
0
100
AcDbBlockBegin
  2
*D48
 70
1
 10
0.0
 20
0.0
 30
0.0
  3
*D48
  1

  0
LINE
  5
473
330
470
100
AcDbEntity
  8
DIM
 62
5
370
9
440
16777216
100
AcDbLine
 10
2874.395321556891
 20
2297.5467884174795
 30
0.0
 11
2731.5028432348918
 21
2297.5467884174795
 31
0.0
  0
LINE
  5
474
330
470
100
AcDbEntity
  8
DIM
 62
5
370
9
440
16777216
100
AcDbLine
 10
2874.441183074785
 20
1329.9467884174744
 30
0.0
 11
2731.5028432348918
 21
1329.9467884174744
 31
0.0
  0
LINE
  5
475
330
470
100
AcDbEntity
  8
DIM
 62
5
370
9
440
16777216
100
AcDbLine
 10
2741.5028432348918
 20
2297.5467884174795
 30
0.0
 11
2741.5028432348918
 21
1329.9467884174744
 31
0.0
  0
LINE
  5
476
330
470
100
AcDbEntity
  8
0
  6
ByBlock
 62
0
370
-2
100
AcDbLine
 10
2745.5028432348918
 20
2293.5467884174795
 30
0.0
 11
2737.5028432348918
 21
2301.5467884174795
 31
0.0
  0
LINE
  5
477
330
470
100
AcDbEntity
  8
0
  6
ByBlock
 62
0
370
-2
100
AcDbLine
 10
2737.5028432348918
 20
1333.9467884174744
 30
0.0
 11
2745.5028432348918
 21
1325.9467884174744
 31
0.0
  0
MTEXT
  5
478
330
470
100
AcDbEntity
  8
DIM
 62
3
440
16777216
100
AcDbMText
 10
2718.738518541795
 20
1813.7467884174996
 30
0.0
 40
25.0
 41
0.0
 46
0.0
 71
5
  1
968
 11
1e-16
 21
1.0
 31
0.0
  0
POINT
  5
479
330
470
100
AcDbEntity
  8
Defpoints
 62
0
440
16777216
100
AcDbPoint
 10
2889.3953215568035
 20
2297.5467884174795
 30
0.0
  0
POINT
  5
47A
330
470
100
AcDbEntity
  8
Defpoints
 62
0
440
16777216
100
AcDbPoint
 10
2889.441183074785
 20
1329.9467884174744
 30
0.0
  0
POINT
  5
47B
330
470
100
AcDbEntity
  8
Defpoints
 62
0
440
16777216
100
AcDbPoint
 10
2741.5028432348918
 20
1329.9467884174744
 30
0.0
  0
ENDBLK
  5
472
330
470
100
AcDbEntity
  8
0
100
AcDbBlockEnd
  0
BLOCK
  5
47D
330
47C
100
AcDbEntity
  8
0
100
AcDbBlockBegin
  2
*D49
 70
1
 10
0.0
 20
0.0
 30
0.0
  3
*D49
  1

  0
LINE
  5
47F
330
47C
100
AcDbEntity
  8
DIM
 62
5
370
9
440
16777216
100
AcDbLine
 10
2839.261694596091
 20
1364.9467884174744
 30
0.0
 11
2794.1871009801107
 21
1364.9467884174744
 31
0.0
  0
LINE
  5
480
330
47C
100
AcDbEntity
  8
DIM
 62
5
370
9
440
16777216
100
AcDbLine
 10
2839.261694596091
 20
2262.5467884174805
 30
0.0
 11
2794.1871009801107
 21
2262.5467884174805
 31
0.0
  0
LINE
  5
481
330
47C
100
AcDbEntity
  8
DIM
 62
5
370
9
440
16777216
100
AcDbLine
 10
2804.1871009801107
 20
1364.9467884174744
 30
0.0
 11
2804.1871009801107
 21
2262.5467884174805
 31
0.0
  0
LINE
  5
482
330
47C
100
AcDbEntity
  8
0
  6
ByBlock
 62
0
370
-2
100
AcDbLine
 10
2800.1871009801107
 20
1368.9467884174744
 30
0.0
 11
2808.1871009801107
 21
1360.9467884174744
 31
0.0
  0
LINE
  5
483
330
47C
100
AcDbEntity
  8
0
  6
ByBlock
 62
0
370
-2
100
AcDbLine
 10
2808.1871009801107
 20
2258.5467884174805
 30
0.0
 11
2800.1871009801107
 21
2266.5467884174805
 31
0.0
  0
MTEXT
  5
484
330
47C
100
AcDbEntity
  8
DIM
 62
3
440
16777216
100
AcDbMText
 10
2781.4227762871014
 20
1813.7467884174996
 30
0.0
 40
25.0
 41
0.0
 46
0.0
 71
5
  1
898
 11
1e-16
 21
1.0
 31
0.0
  0
POINT
  5
485
330
47C
100
AcDbEntity
  8
Defpoints
 62
0
440
16777216
100
AcDbPoint
 10
2854.261694596091
 20
1364.9467884174744
 30
0.0
  0
POINT
  5
486
330
47C
100
AcDbEntity
  8
Defpoints
 62
0
440
16777216
100
AcDbPoint
 10
2854.2616945960035
 20
2262.5467884174805
 30
0.0
  0
POINT
  5
487
330
47C
100
AcDbEntity
  8
Defpoints
 62
0
440
16777216
100
AcDbPoint
 10
2804.1871009801107
 20
2262.5467884174805
 30
0.0
  0
ENDBLK
  5
47E
330
47C
100
AcDbEntity
  8
0
100
AcDbBlockEnd
  0
BLOCK
  5
489
330
488
100
AcDbEntity
  8
0
100
AcDbBlockBegin
  2
*D50
 70
1
 10
0.0
 20
0.0
 30
0.0
  3
*D50
  1

  0
LINE
  5
48B
330
488
100
AcDbEntity
  8
DIM
 62
5
370
9
440
16777216
100
AcDbLine
 10
2842.261694596091
 20
1361.9467884174744
 30
0.0
 11
2842.261694596091
 21
1257.0082182551057
 31
0.0
  0
LINE
  5
48C
330
488
100
AcDbEntity
  8
DIM
 62
5
370
9
440
16777216
100
AcDbLine
 10
3509.261694596091
 20
1361.9467884174744
 30
0.0
 11
3509.261694596091
 21
1257.0082182551057
 31
0.0
  0
LINE
  5
48D
330
488
100
AcDbEntity
  8
DIM
 62
5
370
9
440
16777216
100
AcDbLine
 10
2842.261694596091
 20
1267.0082182551057
 30
0.0
 11
3509.261694596091
 21
1267.0082182551057
 31
0.0
  0
LINE
  5
48E
330
488
100
AcDbEntity
  8
0
  6
ByBlock
 62
0
370
-2
100
AcDbLine
 10
2846.261694596091
 20
1271.0082182551057
 30
0.0
 11
2838.261694596091
 21
1263.0082182551057
 31
0.0
  0
LINE
  5
48F
330
488
100
AcDbEntity
  8
0
  6
ByBlock
 62
0
370
-2
100
AcDbLine
 10
3505.261694596091
 20
1263.0082182551057
 30
0.0
 11
3513.261694596091
 21
1271.0082182551057
 31
0.0
  0
MTEXT
  5
490
330
488
100
AcDbEntity
  8
DIM
 62
3
440
16777216
100
AcDbMText
 10
3175.761694596091
 20
1289.772542948148
 30
0.0
 40
25.0
 41
0.0
 46
0.0
 71
5
  1
667
  0
POINT
  5
491
330
488
100
AcDbEntity
  8
Defpoints
 62
0
440
16777216
100
AcDbPoint
 10
2842.261694596091
 20
1376.9467884174744
 30
0.0
  0
POINT
  5
492
330
488
100
AcDbEntity
  8
Defpoints
 62
0
440
16777216
100
AcDbPoint
 10
3509.261694596091
 20
1376.9467884174744
 30
0.0
  0
POINT
  5
493
330
488
100
AcDbEntity
  8
Defpoints
 62
0
440
16777216
100
AcDbPoint
 10
3509.261694596091
 20
1267.0082182551057
 30
0.0
  0
ENDBLK
  5
48A
330
488
100
AcDbEntity
  8
0
100
AcDbBlockEnd
  0
ENDSEC
  0
SECTION
  2
ENTITIES
  0
INSERT
  5
2F
330
17
100
AcDbEntity
  8
0
 62
7
100
AcDbBlockReference
 66
1
  2
khungtenAsean2
 10
0.0
 20
2541.0000000138316
 30
0.0
 41
1.210000000006402
 42
1.210000000006402
 43
1.210000000006402
  0
ATTRIB
  5
30
330
2F
100
AcDbEntity
  8
0
 62
1
100
AcDbText
 10
3489.35469766421
 20
39.50916188699989
 30
0.0
 40
30.25000000000001
  1
......
  7
Tahoma (Input Text)
 72
1
 11
3527.1418031041103
 21
39.50916188699989
 31
0.0
100
AcDbAttribute
  2
#11
 70
0
 71
1
 72
0
 11
3527.1418031041103
 21
39.50916188699989
 31
0.0
  0
ATTRIB
  5
31
330
2F
100
AcDbEntity
  8
0
 62
1
100
AcDbText
 10
2597.52754275981
 20
95.256993866519
 30
0.0
 40
30.25000000000001
  1
VÕ TỦ TRONG NHÀ, 1 LỚP CÁNH
  7
Tahoma (Input Text)
100
AcDbAttribute
  2
#09
 70
0
 71
1
 72
0
  0
ATTRIB
  5
32
330
2F
100
AcDbEntity
  8
0
 62
1
100
AcDbText
 10
2597.52754275981
 20
22.65699386651329
 30
0.0
 40
30.25000000000001
  1
......
  7
Tahoma (Input Text)
100
AcDbAttribute
  2
#10
 70
0
 71
1
 72
0
  0
ATTRIB
  5
33
330
2F
100
AcDbEntity
  8
0
 62
1
100
AcDbText
 10
2199.111796537385
 20
22.65699386651329
 30
0.0
 40
30.25000000000001
  1
1.2
  7
Tahoma (Input Text)
100
AcDbAttribute
  2
#08
 70
0
 71
1
 72
0
  0
ATTRIB
  5
34
330
2F
100
AcDbEntity
  8
0
 62
1
100
AcDbText
 10
2219.9646274939005
 20
95.256993866519
 30
0.0
 40
30.25000000000001
  1
5
  7
Tahoma (Input Text)
100
AcDbAttribute
  2
#07
 70
0
 71
1
 72
0
  0
ATTRIB
  5
35
330
2F
100
AcDbEntity
  8
0
 62
1
100
AcDbText
 10
1289.0503758637933
 20
22.65699386651329
 30
0.0
 40
30.25000000000001
  1
1200X600X300
  7
Tahoma (Input Text)
100
AcDbAttribute
  2
#06
 70
0
 71
1
 72
0
  0
ATTRIB
  5
36
330
2F
100
AcDbEntity
  8
0
 62
1
100
AcDbText
 10
1339.0200943177915
 20
95.256993866519
 30
0.0
 40
30.25000000000001
  1
VÕ TỦ
  7
Tahoma (Input Text)
100
AcDbAttribute
  2
#05
 70
0
 71
1
 72
0
  0
ATTRIB
  5
37
330
2F
100
AcDbEntity
  8
0
 62
1
100
AcDbText
 10
588.1870826765953
 20
22.65699386651329
 30
0.0
 40
30.25000000000001
  1
......
  7
Tahoma (Input Text)
100
AcDbAttribute
  2
#04
 70
0
 71
1
 72
0
  0
ATTRIB
  5
38
330
2F
100
AcDbEntity
  8
0
 62
1
100
AcDbText
 10
612.950606225495
 20
97.64506342128948
 30
0.0
 40
30.25000000000001
  1
Hùng EVINA
  7
Tahoma (Input Text)
100
AcDbAttribute
  2
#03
 70
0
 71
1
 72
0
  0
ATTRIB
  5
39
330
2F
100
AcDbEntity
  8
0
 62
1
100
AcDbText
 10
119.13263664880651
 20
22.65699386651329
 30
0.0
 40
30.25000000000001
  1
......
  7
Tahoma (Input Text)
100
AcDbAttribute
  2
#02
 70
0
 71
1
 72
0
  0
ATTRIB
  5
3A
330
2F
100
AcDbEntity
  8
0
 62
1
100
AcDbText
 10
165.83474448340712
 20
95.256993866519
 30
0.0
 40
30.25000000000001
  1
PHÚC
  7
Tahoma (Input Text)
100
AcDbAttribute
  2
#01
 70
0
 71
1
 72
0
  0
SEQEND
  5
3B
330
17
100
AcDbEntity
  8
0
 62
7
  0
LWPOLYLINE
  5
3C
330
17
100
AcDbEntity
  8
0
 62
7
100
AcDbPolyline
 90
4
 70
0
 10
571.2952048208972
 20
2232.546788417466
 10
583.2952048208972
 20
2232.546788417466
 10
583.2952048208972
 20
1394.9467884174744
 10
571.2952048208972
 20
1394.9467884174744
  0
LWPOLYLINE
  5
3D
330
17
100
AcDbEntity
  8
0
 62
7
100
AcDbPolyline
 90
2
 70
0
 10
541.2952048208972
 20
1364.9467884174744
 10
230.2952048208972
 20
1364.9467884174744
  0
LWPOLYLINE
  5
3E
330
17
100
AcDbEntity
  8
0
 62
7
100
AcDbPolyline
 90
2
 70
0
 10
230.2952048208972
 20
2262.546788417466
 10
541.2952048208972
 20
2262.546788417466
  0
LINE
  5
3F
330
17
100
AcDbEntity
  8
0
 62
7
100
AcDbLine
 10
571.2952048208972
 20
2232.546788417466
 30
0.0
 11
571.2952048208972
 21
1394.9467884174744
 31
0.0
  0
LINE
  5
40
330
17
100
AcDbEntity
  8
0
 62
7
100
AcDbLine
 10
541.2952048208972
 20
2262.546788417466
 30
0.0
 11
541.2952048208972
 21
1364.9467884174744
 31
0.0
  0
LINE
  5
41
330
17
100
AcDbEntity
  8
0
 62
7
100
AcDbLine
 10
270.2952048208972
 20
2262.546788417466
 30
0.0
 11
270.2952048208972
 21
1364.9467884174744
 31
0.0
  0
LINE
  5
42
330
17
100
AcDbEntity
  8
0
 62
7
100
AcDbLine
 10
230.2952048208972
 20
2262.546788417466
 30
0.0
 11
230.2952048208972
 21
1364.9467884174744
 31
0.0
  0
LINE
  5
43
330
17
100
AcDbEntity
  8
0
 62
7
100
AcDbLine
 10
240.2952048208972
 20
2262.546788417466
 30
0.0
 11
240.2952048208972
 21
1364.9467884174744
 31
0.0
  0
DIMENSION
  5
44
330
17
100
AcDbEntity
  8
DIM
 62
7
100
AcDbDimension
280
0
  2
*D1
  3
Dim-25
 10
541.2952048208972
 20
2329.960941053426
 30
0.0
 11
406.2952048208972
 21
2329.960941053426
 31
0.0
 70
160
 71
5
 42
271.0
 73
0
 74
0
 75
0
100
AcDbAlignedDimension
 13
270.2952048208972
 23
2262.546788417466
 33
0.0
 14
541.2952048208972
 24
2262.546788417466
 34
0.0
 50
0.0
100
AcDbRotatedDimension
  0
DIMENSION
  5
49
330
17
100
AcDbEntity
  8
DIM
 62
7
100
AcDbDimension
280
0
  2
*D2
  3
Dim-25
 10
571.2952048208972
 20
2329.960941053426
 30
0.0
 11
556.2952048208972
 21
2329.960941053426
 31
0.0
 70
160
 71
5
 42
30.0
 73
0
 74
0
 75
0
100
AcDbAlignedDimension
 13
541.2952048208972
 23
2262.546788417466
 33
0.0
 14
571.2952048208972
 24
2232.546788417466
 34
0.0
 50
0.0
100
AcDbRotatedDimension
  0
DIMENSION
  5
4A
330
17
100
AcDbEntity
  8
DIM
 62
7
100
AcDbDimension
280
0
  2
*D3
  3
Dim-25
 10
583.2952048208972
 20
2329.960941053426
 30
0.0
 11
625.89650086459
 21
2352.5121006714335
 31
0.0
 70
32
 71
5
 42
12.0
 73
0
 74
0
 75
0
100
AcDbAlignedDimension
 13
571.2952048208972
 23
2232.546788417466
 33
0.0
 14
583.2952048208972
 24
2232.546788417466
 34
0.0
 50
0.0
100
AcDbRotatedDimension
  0
LINE
  5
4B
330
17
100
AcDbEntity
  8
0
 62
7
100
AcDbLine
 10
541.2952048208972
 20
1364.9467884174744
 30
0.0
 11
571.2952048208972
 21
1394.9467884174744
 31
0.0
  0
LINE
  5
4C
330
17
100
AcDbEntity
  8
0
 62
7
100
AcDbLine
 10
541.2952048208972
 20
2262.546788417466
 30
0.0
 11
571.2952048208972
 21
2232.546788417466
 31
0.0
  0
DIMENSION
  5
4D
330
17
100
AcDbEntity
  8
DIM
 62
7
100
AcDbDimension
280
0
  2
*D4
  3
Dim-25
 10
583.2952048208972
 20
1298.7206693576961
 30
0.0
 11
406.7952048208972
 21
1321.4935206537398
 31
0.0
 70
32
 71
5
 42
353.0
 73
0
 74
0
 75
0
100
AcDbAlignedDimension
 13
230.2952048208972
 23
1364.9467884174744
 33
0.0
 14
583.2952048208972
 24
1394.9467884174744
 34
0.0
 50
0.0
100
AcDbRotatedDimension
  0
LINE
  5
4E
330
17
100
AcDbEntity
  8
0
 62
7
100
AcDbLine
 10
270.2952048208972
 20
1221.9531823180812
 30
0.0
 11
541.2952048208972
 21
1221.9531823180812
 31
0.0
  0
LINE
  5
4F
330
17
100
AcDbEntity
  8
0
 62
7
100
AcDbLine
 10
541.2952048208972
 20
1221.9531823180812
 30
0.0
 11
541.2952048208972
 21
1251.9531823180812
 31
0.0
  0
LINE
  5
50
330
17
100
AcDbEntity
  8
0
 62
7
100
AcDbLine
 10
541.2952048208972
 20
1251.9531823180812
 30
0.0
 11
529.2952048208972
 21
1251.9531823180812
 31
0.0
  0
LINE
  5
51
330
17
100
AcDbEntity
  8
0
 62
7
100
AcDbLine
 10
270.2952048208972
 20
1221.9531823180812
 30
0.0
 11
270.2952048208972
 21
1251.9531823180812
 31
0.0
  0
LINE
  5
52
330
17
100
AcDbEntity
  8
0
 62
7
100
AcDbLine
 10
270.2952048208972
 20
1251.9531823180812
 30
0.0
 11
280.2952048208972
 21
1251.9531823180812
 31
0.0
  0
DIMENSION
  5
53
330
17
100
AcDbEntity
  8
DIM
 62
7
100
AcDbDimension
280
0
  2
*D5
  3
Dim-25
 10
240.2952048208972
 20
2329.960941053426
 30
0.0
 11
255.2952048208972
 21
2329.960941053426
 31
0.0
 70
160
 71
5
 42
30.0
 73
0
 74
0
 75
0
100
AcDbAlignedDimension
 13
270.2952048208972
 23
2262.546788417466
 33
0.0
 14
240.2952048208972
 24
2262.546788417466
 34
0.0
 50
0.0
100
AcDbRotatedDimension
  0
DIMENSION
  5
54
330
17
100
AcDbEntity
  8
DIM
 62
7
100
AcDbDimension
280
0
  2
*D6
  3
Dim-25
 10
230.2952048208972
 20
2329.960941053426
 30
0.0
 11
187.60864274718915
 21
2352.725265746468
 31
0.0
 70
32
 71
5
 42
10.0
 73
0
 74
0
 75
0
100
AcDbAlignedDimension
 13
240.2952048208972
 23
2262.546788417466
 33
0.0
 14
230.2952048208972
 24
2262.546788417466
 34
0.0
 50
0.0
100
AcDbRotatedDimension
  0
INSERT
  5
55
330
17
100
AcDbEntity
  8
0
370
-3
100
AcDbBlockReference
  2
f3daunguoc
 10
240.2952048208972
 20
2247.546788417466
 30
0.0
 41
-1.0
 50
180.0
  0
INSERT
  5
57
330
17
100
AcDbEntity
  8
0
370
-3
100
AcDbBlockReference
  2
f3daunguoc
 10
270.2952048208972
 20
2247.546788417466
 30
0.0
 41
-1.0
 50
180.0
  0
INSERT
  5
59
330
17
100
AcDbEntity
  8
0
370
-3
100
AcDbBlockReference
  2
f3daunguoc
 10
541.2952048208972
 20
2247.546788417466
 30
0.0
 41
-1.0
 50
180.0
  0
INSERT
  5
5B
330
17
100
AcDbEntity
  8
0
370
-3
100
AcDbBlockReference
  2
f3daunguoc
 10
571.2952048208972
 20
2217.546788417466
 30
0.0
 41
-1.0
 50
180.0
  0
INSERT
  5
5D
330
17
100
AcDbEntity
  8
0
370
-3
100
AcDbBlockReference
  2
f3daunguoc
 10
240.2952048208972
 20
1379.9467884174744
 30
0.0
  0
INSERT
  5
5F
330
17
100
AcDbEntity
  8
0
370
-3
100
AcDbBlockReference
  2
f3daunguoc
 10
270.2952048208972
 20
1379.9467884174744
 30
0.0
  0
INSERT
  5
61
330
17
100
AcDbEntity
  8
0
370
-3
100
AcDbBlockReference
  2
f3daunguoc
 10
541.2952048208972
 20
1379.9467884174744
 30
0.0
  0
INSERT
  5
63
330
17
100
AcDbEntity
  8
0
370
-3
100
AcDbBlockReference
  2
f3daunguoc
 10
571.2952048208972
 20
1409.9467884174744
 30
0.0
  0
LWPOLYLINE
  5
65
330
17
100
AcDbEntity
  8
0
 62
2
100
AcDbPolyline
 90
6
 70
1
 10
374.2952048208972
 20
2111.546788417466
 10
438.2952048208972
 20
2111.546788417466
 42
-0.4142135623730951
 10
446.2952048208972
 20
2103.546788417466
 10
446.2952048208972
 20
2100.546788417466
 10
366.2952048208972
 20
2100.546788417466
 10
366.2952048208972
 20
2103.546788417466
 42
-0.4142135623730951
  0
LWPOLYLINE
  5
66
330
17
100
AcDbEntity
  8
0
 62
2
100
AcDbPolyline
 90
6
 70
1
 10
374.2952048208972
 20
2080.546788417466
 10
438.2952048208972
 20
2080.546788417466
 42
-0.4142135623730951
 10
446.2952048208972
 20
2072.546788417466
 10
446.2952048208972
 20
2069.546788417466
 10
366.2952048208972
 20
2069.546788417466
 10
366.2952048208972
 20
2072.546788417466
 42
-0.4142135623730951
  0
LWPOLYLINE
  5
67
330
17
100
AcDbEntity
  8
0
 62
2
100
AcDbPolyline
 90
6
 70
1
 10
374.2952048208972
 20
2142.546788417466
 10
438.2952048208972
 20
2142.546788417466
 42
-0.4142135623730951
 10
446.2952048208972
 20
2134.546788417466
 10
446.2952048208972
 20
2131.546788417466
 10
366.2952048208972
 20
2131.546788417466
 10
366.2952048208972
 20
2134.546788417466
 42
-0.4142135623730951
  0
LWPOLYLINE
  5
68
330
17
100
AcDbEntity
  8
0
 62
2
100
AcDbPolyline
 90
6
 70
1
 10
374.2952048208972
 20
2049.546788417466
 10
438.2952048208972
 20
2049.546788417466
 42
-0.4142135623730951
 10
446.2952048208972
 20
2041.5467884174657
 10
446.2952048208972
 20
2038.5467884174657
 10
366.2952048208972
 20
2038.5467884174657
 10
366.2952048208972
 20
2041.5467884174657
 42
-0.4142135623730951
  0
DIMENSION
  5
69
330
17
100
AcDbEntity
  8
DIM
 62
7
 48
3.0
100
AcDbDimension
280
0
  2
*D7
  3
Dim-25
 10
159.66909719479736
 20
1364.9467884174744
 30
0.0
 11
136.9047725017881
 21
1813.7467884174926
 31
0.0
 70
32
 71
5
 42
897.5999999999913
 73
0
 74
0
 75
0
100
AcDbAlignedDimension
 13
230.2952048208972
 23
2262.546788417466
 33
0.0
 14
230.2952048208972
 24
1364.9467884174744
 34
0.0
 50
90.0
100
AcDbRotatedDimension
  0
LWPOLYLINE
  5
6A
330
17
100
AcDbEntity
  8
0
 62
2
100
AcDbPolyline
 90
6
 70
1
 10
374.2952048208972
 20
1588.9467884174744
 10
438.2952048208972
 20
1588.9467884174744
 42
-0.4142135623730951
 10
446.2952048208972
 20
1580.9467884174744
 10
446.2952048208972
 20
1577.9467884174744
 10
366.2952048208972
 20
1577.9467884174744
 10
366.2952048208972
 20
1580.9467884174744
 42
-0.4142135623730951
  0
LWPOLYLINE
  5
6B
330
17
100
AcDbEntity
  8
0
 62
2
100
AcDbPolyline
 90
6
 70
1
 10
374.2952048208972
 20
1557.9467884174746
 10
438.2952048208972
 20
1557.9467884174746
 42
-0.4142135623730951
 10
446.2952048208972
 20
1549.9467884174746
 10
446.2952048208972
 20
1546.9467884174744
 10
366.2952048208972
 20
1546.9467884174744
 10
366.2952048208972
 20
1549.9467884174746
 42
-0.4142135623730951
  0
LWPOLYLINE
  5
6C
330
17
100
AcDbEntity
  8
0
 62
2
100
AcDbPolyline
 90
6
 70
1
 10
374.2952048208972
 20
1526.9467884174744
 10
438.2952048208972
 20
1526.9467884174744
 42
-0.4142135623730951
 10
446.2952048208972
 20
1518.9467884174744
 10
446.2952048208972
 20
1515.9467884174742
 10
366.2952048208972
 20
1515.9467884174742
 10
366.2952048208972
 20
1518.9467884174744
 42
-0.4142135623730951
  0
LWPOLYLINE
  5
6D
330
17
100
AcDbEntity
  8
0
 62
2
100
AcDbPolyline
 90
6
 70
1
 10
374.2952048208972
 20
1495.9467884174744
 10
438.2952048208972
 20
1495.9467884174744
 42
-0.4142135623730951
 10
446.2952048208972
 20
1487.9467884174744
 10
446.2952048208972
 20
1484.9467884174744
 10
366.2952048208972
 20
1484.9467884174744
 10
366.2952048208972
 20
1487.9467884174744
 42
-0.4142135623730951
  0
LWPOLYLINE
  5
6E
330
17
100
AcDbEntity
  8
0
 62
2
100
AcDbPolyline
 90
6
 70
1
 10
374.2952048208972
 20
1834.7467884174625
 10
438.2952048208972
 20
1834.7467884174625
 42
-0.4142135623730951
 10
446.2952048208972
 20
1826.7467884174625
 10
446.2952048208972
 20
1823.7467884174625
 10
366.2952048208972
 20
1823.7467884174625
 10
366.2952048208972
 20
1826.7467884174625
 42
-0.4142135623730951
  0
LWPOLYLINE
  5
6F
330
17
100
AcDbEntity
  8
0
 62
2
100
AcDbPolyline
 90
6
 70
1
 10
374.2952048208972
 20
1803.7467884174625
 10
438.2952048208972
 20
1803.7467884174625
 42
-0.4142135623730951
 10
446.2952048208972
 20
1795.7467884174625
 10
446.2952048208972
 20
1792.7467884174625
 10
366.2952048208972
 20
1792.7467884174625
 10
366.2952048208972
 20
1795.7467884174625
 42
-0.4142135623730951
  0
LWPOLYLINE
  5
70
330
17
100
AcDbEntity
  8
0
 62
2
100
AcDbPolyline
 90
6
 70
1
 10
374.2952048208972
 20
1865.7467884174625
 10
438.2952048208972
 20
1865.7467884174625
 42
-0.4142135623730951
 10
446.2952048208972
 20
1857.7467884174625
 10
446.2952048208972
 20
1854.7467884174625
 10
366.2952048208972
 20
1854.7467884174625
 10
366.2952048208972
 20
1857.7467884174625
 42
-0.4142135623730951
  0
LWPOLYLINE
  5
71
330
17
100
AcDbEntity
  8
0
 62
2
100
AcDbPolyline
 90
6
 70
1
 10
374.2952048208972
 20
1772.7467884174625
 10
438.2952048208972
 20
1772.7467884174625
 42
-0.4142135623730951
 10
446.2952048208972
 20
1764.7467884174625
 10
446.2952048208972
 20
1761.7467884174625
 10
366.2952048208972
 20
1761.7467884174625
 10
366.2952048208972
 20
1764.7467884174625
 42
-0.4142135623730951
  0
LWPOLYLINE
  5
72
330
17
100
AcDbEntity
  8
0
 62
7
100
AcDbPolyline
 90
4
 70
0
 10
1455.647173571284
 20
2232.546788417466
 10
1443.647173571284
 20
2232.546788417466
 10
1443.647173571284
 20
1394.9467884174744
 10
1455.647173571284
 20
1394.9467884174744
  0
LWPOLYLINE
  5
73
330
17
100
AcDbEntity
  8
0
 62
7
100
AcDbPolyline
 90
2
 70
0
 10
1485.647173571284
 20
1364.9467884174744
 10
1796.647173571284
 20
1364.9467884174744
  0
LWPOLYLINE
  5
74
330
17
100
AcDbEntity
  8
0
 62
7
100
AcDbPolyline
 90
2
 70
0
 10
1796.647173571284
 20
2262.546788417466
 10
1485.647173571284
 20
2262.546788417466
  0
LINE
  5
75
330
17
100
AcDbEntity
  8
0
 62
7
100
AcDbLine
 10
1455.647173571284
 20
2232.546788417466
 30
0.0
 11
1455.647173571284
 21
1394.9467884174744
 31
0.0
  0
LINE
  5
76
330
17
100
AcDbEntity
  8
0
 62
7
100
AcDbLine
 10
1485.647173571284
 20
2262.546788417466
 30
0.0
 11
1485.647173571284
 21
1364.9467884174744
 31
0.0
  0
LINE
  5
77
330
17
100
AcDbEntity
  8
0
 62
7
100
AcDbLine
 10
1756.647173571284
 20
2262.546788417466
 30
0.0
 11
1756.647173571284
 21
1364.9467884174744
 31
0.0
  0
LINE
  5
78
330
17
100
AcDbEntity
  8
0
 62
7
100
AcDbLine
 10
1796.647173571284
 20
2262.546788417466
 30
0.0
 11
1796.647173571284
 21
1364.9467884174744
 31
0.0
  0
LINE
  5
79
330
17
100
AcDbEntity
  8
0
 62
7
100
AcDbLine
 10
1786.647173571284
 20
2262.546788417466
 30
0.0
 11
1786.647173571284
 21
1364.9467884174744
 31
0.0
  0
DIMENSION
  5
7A
330
17
100
AcDbEntity
  8
DIM
 62
7
100
AcDbDimension
280
0
  2
*D8
  3
Dim-25
 10
1485.647173571284
 20
2329.960941053426
 30
0.0
 11
1620.647173571284
 21
2329.960941053426
 31
0.0
 70
160
 71
5
 42
271.0
 73
0
 74
0
 75
0
100
AcDbAlignedDimension
 13
1756.647173571284
 23
2262.546788417466
 33
0.0
 14
1485.647173571284
 24
2262.546788417466
 34
0.0
 50
180.0
100
AcDbRotatedDimension
  0
DIMENSION
  5
7B
330
17
100
AcDbEntity
  8
DIM
 62
7
100
AcDbDimension
280
0
  2
*D9
  3
Dim-25
 10
1455.647173571284
 20
2329.960941053426
 30
0.0
 11
1470.647173571284
 21
2329.960941053426
 31
0.0
 70
160
 71
5
 42
30.0
 73
0
 74
0
 75
0
100
AcDbAlignedDimension
 13
1485.647173571284
 23
2262.546788417466
 33
0.0
 14
1455.647173571284
 24
2232.546788417466
 34
0.0
 50
180.0
100
AcDbRotatedDimension
  0
DIMENSION
  5
7C
330
17
100
AcDbEntity
  8
DIM
 62
7
100
AcDbDimension
280
0
  2
*D10
  3
Dim-25
 10
1443.647173571284
 20
2329.960941053426
 30
0.0
 11
1401.045877527591
 21
2352.5121006714335
 31
0.0
 70
32
 71
5
 42
12.0
 73
0
 74
0
 75
0
100
AcDbAlignedDimension
 13
1455.647173571284
 23
2232.546788417466
 33
0.0
 14
1443.647173571284
 24
2232.546788417466
 34
0.0
 50
180.0
100
AcDbRotatedDimension
  0
LINE
  5
7D
330
17
100
AcDbEntity
  8
0
 62
7
100
AcDbLine
 10
1485.647173571284
 20
1364.9467884174744
 30
0.0
 11
1455.647173571284
 21
1394.9467884174744
 31
0.0
  0
LINE
  5
7E
330
17
100
AcDbEntity
  8
0
 62
7
100
AcDbLine
 10
1485.647173571284
 20
2262.546788417466
 30
0.0
 11
1455.647173571284
 21
2232.546788417466
 31
0.0
  0
DIMENSION
  5
7F
330
17
100
AcDbEntity
  8
DIM
 62
7
100
AcDbDimension
280
0
  2
*D11
  3
Dim-25
 10
1443.647173571284
 20
1298.7206693576961
 30
0.0
 11
1620.147173571284
 21
1321.4935206537398
 31
0.0
 70
32
 71
5
 42
353.0
 73
0
 74
0
 75
0
100
AcDbAlignedDimension
 13
1796.647173571284
 23
1364.9467884174744
 33
0.0
 14
1443.647173571284
 24
1394.9467884174744
 34
0.0
 50
180.0
100
AcDbRotatedDimension
  0
LINE
  5
80
330
17
100
AcDbEntity
  8
0
 62
7
100
AcDbLine
 10
1756.647173571284
 20
1221.9531823180812
 30
0.0
 11
1485.647173571284
 21
1221.9531823180812
 31
0.0
  0
LINE
  5
81
330
17
100
AcDbEntity
  8
0
 62
7
100
AcDbLine
 10
1485.647173571284
 20
1221.9531823180812
 30
0.0
 11
1485.647173571284
 21
1251.9531823180812
 31
0.0
  0
LINE
  5
82
330
17
100
AcDbEntity
  8
0
 62
7
100
AcDbLine
 10
1485.647173571284
 20
1251.9531823180812
 30
0.0
 11
1497.647173571284
 21
1251.9531823180812
 31
0.0
  0
LINE
  5
83
330
17
100
AcDbEntity
  8
0
 62
7
100
AcDbLine
 10
1756.647173571284
 20
1221.9531823180812
 30
0.0
 11
1756.647173571284
 21
1251.9531823180812
 31
0.0
  0
LINE
  5
84
330
17
100
AcDbEntity
  8
0
 62
7
100
AcDbLine
 10
1756.647173571284
 20
1251.9531823180812
 30
0.0
 11
1746.647173571284
 21
1251.9531823180812
 31
0.0
  0
DIMENSION
  5
85
330
17
100
AcDbEntity
  8
DIM
 62
7
100
AcDbDimension
280
0
  2
*D12
  3
Dim-25
 10
1786.647173571284
 20
2329.960941053426
 30
0.0
 11
1771.647173571284
 21
2329.960941053426
 31
0.0
 70
160
 71
5
 42
30.0
 73
0
 74
0
 75
0
100
AcDbAlignedDimension
 13
1756.647173571284
 23
2262.546788417466
 33
0.0
 14
1786.647173571284
 24
2262.546788417466
 34
0.0
 50
180.0
100
AcDbRotatedDimension
  0
DIMENSION
  5
86
330
17
100
AcDbEntity
  8
DIM
 62
7
100
AcDbDimension
280
0
  2
*D13
  3
Dim-25
 10
1796.647173571284
 20
2329.960941053426
 30
0.0
 11
1839.3337356449047
 21
2352.725265746468
 31
0.0
 70
32
 71
5
 42
10.0
 73
0
 74
0
 75
0
100
AcDbAlignedDimension
 13
1786.647173571284
 23
2262.546788417466
 33
0.0
 14
1796.647173571284
 24
2262.546788417466
 34
0.0
 50
180.0
100
AcDbRotatedDimension
  0
INSERT
  5
87
330
17
100
AcDbEntity
  8
0
370
-3
100
AcDbBlockReference
  2
f3daunguoc
 10
1786.647173571284
 20
2247.546788417466
 30
0.0
 50
180.0
  0
INSERT
  5
89
330
17
100
AcDbEntity
  8
0
370
-3
100
AcDbBlockReference
  2
f3daunguoc
 10
1756.647173571284
 20
2247.546788417466
 30
0.0
 50
180.0
  0
INSERT
  5
8B
330
17
100
AcDbEntity
  8
0
370
-3
100
AcDbBlockReference
  2
f3daunguoc
 10
1485.647173571284
 20
2247.546788417466
 30
0.0
 50
180.0
  0
INSERT
  5
8D
330
17
100
AcDbEntity
  8
0
370
-3
100
AcDbBlockReference
  2
f3daunguoc
 10
1455.647173571284
 20
2217.546788417466
 30
0.0
 50
180.0
  0
INSERT
  5
8F
330
17
100
AcDbEntity
  8
0
370
-3
100
AcDbBlockReference
  2
f3daunguoc
 10
1786.647173571284
 20
1379.9467884174744
 30
0.0
 41
-1.0
  0
INSERT
  5
91
330
17
100
AcDbEntity
  8
0
370
-3
100
AcDbBlockReference
  2
f3daunguoc
 10
1756.647173571284
 20
1379.9467884174744
 30
0.0
 41
-1.0
  0
INSERT
  5
93
330
17
100
AcDbEntity
  8
0
370
-3
100
AcDbBlockReference
  2
f3daunguoc
 10
1485.647173571284
 20
1379.9467884174744
 30
0.0
 41
-1.0
  0
INSERT
  5
95
330
17
100
AcDbEntity
  8
0
370
-3
100
AcDbBlockReference
  2
f3daunguoc
 10
1455.647173571284
 20
1409.9467884174744
 30
0.0
 41
-1.0
  0
LWPOLYLINE
  5
97
330
17
100
AcDbEntity
  8
0
 62
2
100
AcDbPolyline
 90
6
 70
1
 10
1652.647173571284
 20
2111.546788417466
 10
1588.647173571284
 20
2111.546788417466
 42
0.4142135623730951
 10
1580.647173571284
 20
2103.546788417466
 10
1580.647173571284
 20
2100.546788417466
 10
1660.647173571284
 20
2100.546788417466
 10
1660.647173571284
 20
2103.546788417466
 42
0.4142135623730951
  0
LWPOLYLINE
  5
98
330
17
100
AcDbEntity
  8
0
 62
2
100
AcDbPolyline
 90
6
 70
1
 10
1652.647173571284
 20
2080.546788417466
 10
1588.647173571284
 20
2080.546788417466
 42
0.4142135623730951
 10
1580.647173571284
 20
2072.546788417466
 10
1580.647173571284
 20
2069.546788417466
 10
1660.647173571284
 20
2069.546788417466
 10
1660.647173571284
 20
2072.546788417466
 42
0.4142135623730951
  0
LWPOLYLINE
  5
99
330
17
100
AcDbEntity
  8
0
 62
2
100
AcDbPolyline
 90
6
 70
1
 10
1652.647173571284
 20
2142.546788417466
 10
1588.647173571284
 20
2142.546788417466
 42
0.4142135623730951
 10
1580.647173571284
 20
2134.546788417466
 10
1580.647173571284
 20
2131.546788417466
 10
1660.647173571284
 20
2131.546788417466
 10
1660.647173571284
 20
2134.546788417466
 42
0.4142135623730951
  0
LWPOLYLINE
  5
9A
330
17
100
AcDbEntity
  8
0
 62
2
100
AcDbPolyline
 90
6
 70
1
 10
1652.647173571284
 20
2049.546788417466
 10
1588.647173571284
 20
2049.546788417466
 42
0.4142135623730951
 10
1580.647173571284
 20
2041.5467884174657
 10
1580.647173571284
 20
2038.5467884174657
 10
1660.647173571284
 20
2038.5467884174657
 10
1660.647173571284
 20
2041.5467884174657
 42
0.4142135623730951
  0
DIMENSION
  5
9B
330
17
100
AcDbEntity
  8
DIM
 62
7
 48
3.0
100
AcDbDimension
280
0
  2
*D14
  3
Dim-25
 10
1867.2732811973838
 20
1364.9467884174744
 30
0.0
 11
1844.5089565042872
 21
1813.7467884174926
 31
0.0
 70
32
 71
5
 42
897.5999999999912
 73
0
 74
0
 75
0
100
AcDbAlignedDimension
 13
1796.647173571284
 23
2262.546788417466
 33
0.0
 14
1796.647173571284
 24
1364.9467884174744
 34
0.0
 50
90.0
100
AcDbRotatedDimension
  0
LWPOLYLINE
  5
9C
330
17
100
AcDbEntity
  8
0
 62
2
100
AcDbPolyline
 90
6
 70
1
 10
1652.647173571284
 20
1588.9467884174744
 10
1588.647173571284
 20
1588.9467884174744
 42
0.4142135623730951
 10
1580.647173571284
 20
1580.9467884174744
 10
1580.647173571284
 20
1577.9467884174744
 10
1660.647173571284
 20
1577.9467884174744
 10
1660.647173571284
 20
1580.9467884174744
 42
0.4142135623730951
  0
LWPOLYLINE
  5
9D
330
17
100
AcDbEntity
  8
0
 62
2
100
AcDbPolyline
 90
6
 70
1
 10
1652.647173571284
 20
1557.9467884174746
 10
1588.647173571284
 20
1557.9467884174746
 42
0.4142135623730951
 10
1580.647173571284
 20
1549.9467884174746
 10
1580.647173571284
 20
1546.9467884174744
 10
1660.647173571284
 20
1546.9467884174744
 10
1660.647173571284
 20
1549.9467884174746
 42
0.4142135623730951
  0
LWPOLYLINE
  5
9E
330
17
100
AcDbEntity
  8
0
 62
2
100
AcDbPolyline
 90
6
 70
1
 10
1652.647173571284
 20
1526.9467884174744
 10
1588.647173571284
 20
1526.9467884174744
 42
0.4142135623730951
 10
1580.647173571284
 20
1518.9467884174744
 10
1580.647173571284
 20
1515.9467884174742
 10
1660.647173571284
 20
1515.9467884174742
 10
1660.647173571284
 20
1518.9467884174744
 42
0.4142135623730951
  0
LWPOLYLINE
  5
9F
330
17
100
AcDbEntity
  8
0
 62
2
100
AcDbPolyline
 90
6
 70
1
 10
1652.647173571284
 20
1495.9467884174744
 10
1588.647173571284
 20
1495.9467884174744
 42
0.4142135623730951
 10
1580.647173571284
 20
1487.9467884174744
 10
1580.647173571284
 20
1484.9467884174744
 10
1660.647173571284
 20
1484.9467884174744
 10
1660.647173571284
 20
1487.9467884174744
 42
0.4142135623730951
  0
LWPOLYLINE
  5
A0
330
17
100
AcDbEntity
  8
0
 62
2
100
AcDbPolyline
 90
4
 70
1
 10
1466.147173571284
 20
2181.0467884174795
 10
1480.147173571284
 20
2181.0467884174795
 10
1480.147173571284
 20
2172.0467884174795
 10
1466.147173571284
 20
2172.0467884174795
  0
LWPOLYLINE
  5
A1
330
17
100
AcDbEntity
  8
0
 62
2
100
AcDbPolyline
 90
4
 70
1
 10
1466.147173571284
 20
2156.0467884175096
 10
1480.147173571284
 20
2156.0467884175096
 10
1480.147173571284
 20
2147.0467884175096
 10
1466.147173571284
 20
2147.0467884175096
  0
LWPOLYLINE
  5
A2
330
17
100
AcDbEntity
  8
0
 62
2
100
AcDbPolyline
 90
4
 70
1
 10
1466.147173571284
 20
1446.4467884174746
 10
1480.147173571284
 20
1446.4467884174746
 10
1480.147173571284
 20
1455.4467884174746
 10
1466.147173571284
 20
1455.4467884174746
  0
LWPOLYLINE
  5
A3
330
17
100
AcDbEntity
  8
0
 62
2
100
AcDbPolyline
 90
4
 70
1
 10
1466.147173571284
 20
1471.4467884174453
 10
1480.147173571284
 20
1471.4467884174453
 10
1480.147173571284
 20
1480.4467884174453
 10
1466.147173571284
 20
1480.4467884174453
  0
LINE
  5
A4
330
17
100
AcDbEntity
  8
0
 62
7
100
AcDbLine
 10
768.7654582570831
 20
2262.5467884174805
 30
0.0
 11
1320.7654582569958
 21
2262.5467884174805
 31
0.0
  0
LINE
  5
A5
330
17
100
AcDbEntity
  8
0
 62
7
100
AcDbLine
 10
1320.7654582569958
 20
2262.5467884174805
 30
0.0
 11
1320.7654582569958
 21
1364.9467884174744
 31
0.0
  0
LINE
  5
A6
330
17
100
AcDbEntity
  8
0
 62
7
100
AcDbLine
 10
1310.765458257083
 20
2262.5467884174805
 30
0.0
 11
1310.765458257083
 21
1364.9467884174744
 31
0.0
  0
LINE
  5
A7
330
17
100
AcDbEntity
  8
0
 62
7
100
AcDbLine
 10
1320.7654582569958
 20
1364.9467884174744
 30
0.0
 11
768.7654582570831
 21
1364.9467884174744
 31
0.0
  0
LINE
  5
A8
330
17
100
AcDbEntity
  8
0
 62
7
100
AcDbLine
 10
768.7654582570831
 20
1364.9467884174744
 30
0.0
 11
768.7654582570831
 21
2262.5467884174805
 31
0.0
  0
LINE
  5
A9
330
17
100
AcDbEntity
  8
0
 62
7
100
AcDbLine
 10
778.7654582569958
 20
1364.9467884174744
 30
0.0
 11
778.7654582569958
 21
2262.5467884174805
 31
0.0
  0
DIMENSION
  5
AA
330
17
100
AcDbEntity
  8
DIM
 62
7
100
AcDbDimension
280
0
  2
*D15
  3
Dim-25
 10
1320.7654582569958
 20
1300.8516993094895
 30
0.0
 11
1044.7654582569958
 21
1323.616024002532
 31
0.0
 70
32
 71
5
 42
552.0
 73
0
 74
0
 75
0
100
AcDbAlignedDimension
 13
768.7654582570831
 23
1364.9467884174744
 33
0.0
 14
1320.7654582569958
 24
1364.9467884174744
 34
0.0
 50
0.0
100
AcDbRotatedDimension
  0
DIMENSION
  5
AB
330
17
100
AcDbEntity
  8
DIM
 62
7
100
AcDbDimension
280
0
  2
*D16
  3
Dim-25
 10
1310.765458257083
 20
2333.205803481521
 30
0.0
 11
1044.7654582569958
 21
2355.9786547775648
 31
0.0
 70
32
 71
5
 42
532.0
 73
0
 74
0
 75
0
100
AcDbAlignedDimension
 13
778.7654582569958
 23
2262.5467884174805
 33
0.0
 14
1310.765458257083
 24
2262.5467884174805
 34
0.0
 50
0.0
100
AcDbRotatedDimension
  0
DIMENSION
  5
AC
330
17
100
AcDbEntity
  8
DIM
 62
7
100
AcDbDimension
280
0
  2
*D17
  3
Dim-25
 10
1320.7654582569958
 20
2333.205803481521
 30
0.0
 11
1363.4520203307038
 21
2355.970128174563
 31
0.0
 70
32
 71
5
 42
10.0
 73
0
 74
0
 75
0
100
AcDbAlignedDimension
 13
1310.765458257083
 23
2262.5467884174805
 33
0.0
 14
1320.7654582569958
 24
2262.5467884174805
 34
0.0
 50
0.0
100
AcDbRotatedDimension
  0
DIMENSION
  5
AD
330
17
100
AcDbEntity
  8
DIM
 62
7
100
AcDbDimension
280
0
  2
*D18
  3
Dim-25
 10
768.7654582570831
 20
2333.205803481521
 30
0.0
 11
726.0788961834041
 21
2355.970128174563
 31
0.0
 70
32
 71
5
 42
10.0
 73
0
 74
0
 75
0
100
AcDbAlignedDimension
 13
778.7654582569958
 23
2262.5467884174805
 33
0.0
 14
768.7654582570831
 24
2262.5467884174805
 34
0.0
 50
180.0
100
AcDbRotatedDimension
  0
INSERT
  5
AE
330
17
100
AcDbEntity
  8
0
370
-3
100
AcDbBlockReference
  2
f3daunguoc
 10
778.7654582569958
 20
1379.9467884174744
 30
0.0
 41
-1.0
  0
INSERT
  5
B0
330
17
100
AcDbEntity
  8
0
370
-3
100
AcDbBlockReference
  2
f3daunguoc
 10
1310.765458257083
 20
1379.9467884174744
 30
0.0
 41
-1.0
  0
INSERT
  5
B2
330
17
100
AcDbEntity
  8
0
370
-3
100
AcDbBlockReference
  2
f3daunguoc
 10
778.7654582569958
 20
2247.546788417466
 30
0.0
 50
180.0
  0
INSERT
  5
B4
330
17
100
AcDbEntity
  8
0
370
-3
100
AcDbBlockReference
  2
f3daunguoc
 10
1310.765458257083
 20
2247.546788417466
 30
0.0
 50
180.0
  0
DIMENSION
  5
B6
330
17
100
AcDbEntity
  8
DIM
 62
2
 48
3.0
100
AcDbDimension
280
0
  2
*D19
  3
Dim-25
 10
738.5085779307992
 20
1364.9467884174744
 30
0.0
 11
715.74425323779
 21
1813.7467884174996
 31
0.0
 70
32
 71
5
 42
897.6000000000057
 73
0
 74
0
 75
0
100
AcDbAlignedDimension
 13
768.7654582570831
 23
2262.5467884174805
 33
0.0
 14
768.7654582570831
 24
1364.9467884174744
 34
0.0
 50
90.0
100
AcDbRotatedDimension
  0
CIRCLE
  5
B7
330
17
100
AcDbEntity
  8
0
 62
2
 48
3.0
100
AcDbCircle
 10
804.1654582571064
 20
2204.3467884174825
 30
0.0
 40
1.5
  0
CIRCLE
  5
B8
330
17
100
AcDbEntity
  8
0
 62
2
 48
3.0
100
AcDbCircle
 10
1285.365458257089
 20
2204.3467884174825
 30
0.0
 40
1.5
  0
CIRCLE
  5
B9
330
17
100
AcDbEntity
  8
0
 62
2
 48
3.0
100
AcDbCircle
 10
804.1654582571064
 20
1423.1467884174717
 30
0.0
 40
1.5
  0
CIRCLE
  5
BA
330
17
100
AcDbEntity
  8
0
 62
2
 48
3.0
100
AcDbCircle
 10
1285.365458257089
 20
1423.1467884174717
 30
0.0
 40
1.5
  0
LWPOLYLINE
  5
BB
330
17
100
AcDbEntity
  8
0
100
AcDbPolyline
 90
4
 70
1
 10
2050.5486979426933
 20
2225.1467884174854
 10
2573.3486979427107
 20
2225.1467884174854
 10
2573.3486979427107
 20
1402.3467884174684
 10
2050.5486979426933
 20
1402.3467884174684
  0
LWPOLYLINE
  5
BC
330
17
100
AcDbEntity
  8
0
100
AcDbPolyline
 90
2
 70
0
 10
2588.3486979427107
 20
2225.1467884174854
 10
2588.3486979427107
 20
1402.3467884174684
  0
LWPOLYLINE
  5
BD
330
17
100
AcDbEntity
  8
0
100
AcDbPolyline
 90
2
 70
0
 10
2573.3486979427107
 20
1387.3467884174686
 10
2050.5486979426933
 20
1387.3467884174686
  0
LWPOLYLINE
  5
BE
330
17
100
AcDbEntity
  8
0
100
AcDbPolyline
 90
2
 70
0
 10
2035.5486979426933
 20
1402.3467884174684
 10
2035.5486979426933
 20
2225.1467884174854
  0
LWPOLYLINE
  5
BF
330
17
100
AcDbEntity
  8
0
100
AcDbPolyline
 90
2
 70
0
 10
2050.5486979426933
 20
2240.1467884174854
 10
2573.3486979427107
 20
2240.1467884174854
  0
CIRCLE
  5
C0
330
17
100
AcDbEntity
  8
0
 62
7
 48
3.0
100
AcDbCircle
 10
2552.5486979426933
 20
1423.1467884174717
 30
0.0
 40
5.0
  0
LWPOLYLINE
  5
C1
330
17
100
AcDbEntity
  8
0
 62
7
 48
3.0
100
AcDbPolyline
 90
3
 70
0
 10
2050.5486979426933
 20
2240.1467884174854
 10
2050.5486979426933
 20
2225.1467884174854
 10
2035.5486979426933
 20
2225.1467884174854
  0
CIRCLE
  5
C2
330
17
100
AcDbEntity
  8
0
 62
2
 48
3.0
100
AcDbCircle
 10
2050.5486979426933
 20
2215.1467884174854
 30
0.0
 40
1.5
  0
CIRCLE
  5
C3
330
17
100
AcDbEntity
  8
0
 62
2
 48
3.0
100
AcDbCircle
 10
2060.5486979426933
 20
2225.1467884174854
 30
0.0
 40
1.5
  0
CIRCLE
  5
C4
330
17
100
AcDbEntity
  8
0
 62
2
 48
3.0
100
AcDbCircle
 10
2080.5486979426933
 20
2225.1467884174854
 30
0.0
 40
1.5
  0
LWPOLYLINE
  5
C5
330
17
100
AcDbEntity
  8
0
 62
7
 48
3.0
100
AcDbPolyline
 90
3
 70
0
 10
2573.3486979427107
 20
2240.1467884174854
 10
2573.3486979427107
 20
2225.1467884174854
 10
2588.3486979427107
 20
2225.1467884174854
  0
CIRCLE
  5
C6
330
17
100
AcDbEntity
  8
0
 62
2
 48
3.0
100
AcDbCircle
 10
2573.3486979427107
 20
2215.1467884174854
 30
0.0
 40
1.5
  0
CIRCLE
  5
C7
330
17
100
AcDbEntity
  8
0
 62
2
 48
3.0
100
AcDbCircle
 10
2563.3486979427107
 20
2225.1467884174854
 30
0.0
 40
1.5
  0
CIRCLE
  5
C8
330
17
100
AcDbEntity
  8
0
 62
2
 48
3.0
100
AcDbCircle
 10
2543.3486979427107
 20
2225.1467884174854
 30
0.0
 40
1.5
  0
LWPOLYLINE
  5
C9
330
17
100
AcDbEntity
  8
0
 62
7
 48
3.0
100
AcDbPolyline
 90
3
 70
0
 10
2573.3486979427107
 20
1387.3467884174686
 10
2573.3486979427107
 20
1402.3467884174684
 10
2588.3486979427107
 20
1402.3467884174684
  0
CIRCLE
  5
CA
330
17
100
AcDbEntity
  8
0
 62
2
 48
3.0
100
AcDbCircle
 10
2573.3486979427107
 20
1412.3467884174684
 30
0.0
 40
1.5
  0
CIRCLE
  5
CB
330
17
100
AcDbEntity
  8
0
 62
2
 48
3.0
100
AcDbCircle
 10
2563.3486979427107
 20
1402.3467884174684
 30
0.0
 40
1.5
  0
CIRCLE
  5
CC
330
17
100
AcDbEntity
  8
0
 62
2
 48
3.0
100
AcDbCircle
 10
2543.3486979427107
 20
1402.3467884174684
 30
0.0
 40
1.5
  0
CIRCLE
  5
CD
330
17
100
AcDbEntity
  8
0
 62
7
 48
3.0
100
AcDbCircle
 10
2071.3486979427107
 20
1423.1467884174717
 30
0.0
 40
5.0
  0
LWPOLYLINE
  5
CE
330
17
100
AcDbEntity
  8
0
 62
7
 48
3.0
100
AcDbPolyline
 90
3
 70
0
 10
2050.5486979426933
 20
1387.3467884174686
 10
2050.5486979426933
 20
1402.3467884174684
 10
2035.5486979426933
 20
1402.3467884174684
  0
CIRCLE
  5
CF
330
17
100
AcDbEntity
  8
0
 62
2
 48
3.0
100
AcDbCircle
 10
2050.5486979426933
 20
1412.3467884174684
 30
0.0
 40
1.5
  0
CIRCLE
  5
D0
330
17
100
AcDbEntity
  8
0
 62
2
 48
3.0
100
AcDbCircle
 10
2060.5486979426933
 20
1402.3467884174684
 30
0.0
 40
1.5
  0
CIRCLE
  5
D1
330
17
100
AcDbEntity
  8
0
 62
2
 48
3.0
100
AcDbCircle
 10
2080.5486979426933
 20
1402.3467884174684
 30
0.0
 40
1.5
  0
CIRCLE
  5
D2
330
17
100
AcDbEntity
  8
0
 62
7
 48
3.0
100
AcDbCircle
 10
2552.5486979426933
 20
2204.3467884174825
 30
0.0
 40
5.0
  0
CIRCLE
  5
D3
330
17
100
AcDbEntity
  8
0
 62
7
 48
3.0
100
AcDbCircle
 10
2071.3486979427107
 20
2204.3467884174825
 30
0.0
 40
5.0
  0
DIMENSION
  5
D4
330
17
100
AcDbEntity
  8
DIM
 62
7
 48
3.0
100
AcDbDimension
280
0
  2
*D20
  3
Dim-25
 10
2588.3486979427107
 20
2302.4203118139058
 30
0.0
 11
2631.1716856643907
 21
2325.1846365069478
 31
0.0
 70
32
 71
5
 42
15.0
 73
0
 74
0
 75
0
100
AcDbAlignedDimension
 13
2573.3486979427107
 23
2240.1467884174854
 33
0.0
 14
2588.3486979427107
 24
2225.1467884174854
 34
0.0
 50
0.0
100
AcDbRotatedDimension
  0
DIMENSION
  5
D5
330
17
100
AcDbEntity
  8
DIM
 62
7
 48
3.0
100
AcDbDimension
280
0
  2
*D21
  3
Dim-25
 10
2050.5486979426933
 20
2302.4203118139058
 30
0.0
 11
2311.9486979426874
 21
2325.1931631099487
 31
0.0
 70
32
 71
5
 42
522.8000000000173
 73
0
 74
0
 75
0
100
AcDbAlignedDimension
 13
2573.3486979427107
 23
2240.1467884174854
 33
0.0
 14
2050.5486979426933
 24
2240.1467884174854
 34
0.0
 50
0.0
100
AcDbRotatedDimension
  0
DIMENSION
  5
D6
330
17
100
AcDbEntity
  8
DIM
 62
7
 48
3.0
100
AcDbDimension
280
0
  2
*D22
  3
Dim-25
 10
1978.214653289091
 20
1387.3467884174688
 30
0.0
 11
1955.4418019930017
 21
1813.7467884174996
 31
0.0
 70
32
 71
5
 42
852.8000000000172
 73
0
 74
0
 75
0
100
AcDbAlignedDimension
 13
2050.5486979426933
 23
2240.1467884174854
 33
0.0
 14
2050.5486979426933
 24
1387.3467884174686
 34
0.0
 50
90.0
100
AcDbRotatedDimension
  0
DIMENSION
  5
D7
330
17
100
AcDbEntity
  8
DIM
 62
7
 48
3.0
100
AcDbDimension
280
0
  2
*D23
  3
Dim-25
 10
2588.3486979427107
 20
1344.2792435414965
 30
0.0
 11
2311.9486979426874
 21
1367.0520948375402
 31
0.0
 70
32
 71
5
 42
552.8000000000173
 73
0
 74
0
 75
0
100
AcDbAlignedDimension
 13
2035.5486979426933
 23
1402.3467884174684
 33
0.0
 14
2588.3486979427107
 24
1402.3467884174684
 34
0.0
 50
0.0
100
AcDbRotatedDimension
  0
LWPOLYLINE
  5
D8
330
17
100
AcDbEntity
  8
0
 62
7
100
AcDbPolyline
 90
4
 70
0
 10
774.9255090733932
 20
444.08199908793245
 10
774.9255090733932
 20
432.08199908793245
 10
234.9255090733932
 20
432.08199908793245
 10
234.9255090733932
 20
444.08199908793245
  0
LWPOLYLINE
  5
D9
330
17
100
AcDbEntity
  8
0
 62
7
100
AcDbPolyline
 90
2
 70
0
 10
204.9255090733932
 20
474.08199908793245
 10
204.9255090733932
 20
746.0819990879324
  0
LWPOLYLINE
  5
DA
330
17
100
AcDbEntity
  8
0
 62
7
100
AcDbPolyline
 90
2
 70
0
 10
804.9255090733932
 20
746.0819990879324
 10
804.9255090733932
 20
474.08199908793245
  0
LINE
  5
DB
330
17
100
AcDbEntity
  8
0
 62
7
100
AcDbLine
 10
774.9255090733932
 20
444.08199908793245
 30
0.0
 11
234.9255090733932
 21
444.08199908793245
 31
0.0
  0
LINE
  5
DC
330
17
100
AcDbEntity
  8
0
 62
7
100
AcDbLine
 10
804.9255090733932
 20
474.08199908793245
 30
0.0
 11
204.9255090733932
 21
474.08199908793245
 31
0.0
  0
LINE
  5
DD
330
17
100
AcDbEntity
  8
0
 62
7
100
AcDbLine
 10
804.9255090733932
 20
746.0819990879324
 30
0.0
 11
204.9255090733932
 21
746.0819990879324
 31
0.0
  0
DIMENSION
  5
DE
330
17
100
AcDbEntity
  8
DIM
 62
7
100
AcDbDimension
280
0
  2
*D24
  3
Dim-25
 10
874.6131521415955
 20
432.08199908793245
 30
0.0
 11
852.0619925236097
 21
389.4807030442987
 31
0.0
 70
32
 71
5
 42
12.0
 73
0
 74
0
 75
0
100
AcDbAlignedDimension
 13
774.9255090733932
 23
444.08199908793245
 33
0.0
 14
774.9255090733932
 24
432.08199908793245
 34
0.0
 50
-90.00000000000001
100
AcDbRotatedDimension
  0
LINE
  5
DF
330
17
100
AcDbEntity
  8
0
 62
7
100
AcDbLine
 10
204.9255090733932
 20
474.08199908793245
 30
0.0
 11
234.9255090733932
 21
444.08199908793245
 31
0.0
  0
LINE
  5
E0
330
17
100
AcDbEntity
  8
0
 62
7
100
AcDbLine
 10
804.9255090733932
 20
474.08199908793245
 30
0.0
 11
774.9255090733932
 21
444.08199908793245
 31
0.0
  0
DIMENSION
  5
E1
330
17
100
AcDbEntity
  8
DIM
 62
7
100
AcDbDimension
280
0
  2
*D25
  3
Dim-25
 10
169.69455204630503
 20
432.08199908793245
 30
0.0
 11
146.921700750303
 21
589.0819990879547
 31
0.0
 70
32
 71
5
 42
314.0
 73
0
 74
0
 75
0
100
AcDbAlignedDimension
 13
204.9255090733932
 23
746.0819990879324
 33
0.0
 14
234.9255090733932
 24
432.08199908793245
 34
0.0
 50
-90.00000000000001
100
AcDbRotatedDimension
  0
INSERT
  5
E2
330
17
100
AcDbEntity
  8
0
370
-3
100
AcDbBlockReference
  2
f3daunguoc
 10
789.9255090733932
 20
474.08199908793245
 30
0.0
 41
-1.0
 50
90.0
  0
INSERT
  5
E4
330
17
100
AcDbEntity
  8
0
370
-3
100
AcDbBlockReference
  2
f3daunguoc
 10
759.9255090733932
 20
444.08199908793245
 30
0.0
 41
-1.0
 50
90.0
  0
INSERT
  5
E6
330
17
100
AcDbEntity
  8
0
370
-3
100
AcDbBlockReference
  2
f3daunguoc
 10
219.9255090733932
 20
474.08199908793245
 30
0.0
 50
270.0
  0
INSERT
  5
E8
330
17
100
AcDbEntity
  8
0
370
-3
100
AcDbBlockReference
  2
f3daunguoc
 10
249.9255090733932
 20
444.08199908793245
 30
0.0
 50
270.0
  0
DIMENSION
  5
EA
330
17
100
AcDbEntity
  8
DIM
 62
7
 48
3.0
100
AcDbDimension
280
0
  2
*D26
  3
Dim-25
 10
204.9255090733932
 20
816.7081067140032
 30
0.0
 11
504.9255090733932
 21
839.4724314070454
 31
0.0
 70
32
 71
5
 42
600.0
 73
0
 74
0
 75
0
100
AcDbAlignedDimension
 13
804.9255090733932
 23
746.0819990879324
 33
0.0
 14
204.9255090733932
 24
746.0819990879324
 34
0.0
 50
0.0
100
AcDbRotatedDimension
  0
DIMENSION
  5
EB
330
17
100
AcDbEntity
  8
DIM
 62
7
 48
3.0
100
AcDbDimension
280
0
  2
*D27
  3
Dim-25
 10
920.9263061266975
 20
474.08199908793245
 30
0.0
 11
920.9263061266975
 21
393.6524417770204
 31
0.0
 70
160
 71
5
 42
30.00000000000002
 73
0
 74
0
 75
0
100
AcDbAlignedDimension
 13
774.9255090733932
 23
444.08199908793245
 33
0.0
 14
804.9255090733932
 24
474.08199908793245
 34
0.0
 50
90.0
100
AcDbRotatedDimension
  0
DIMENSION
  5
EC
330
17
100
AcDbEntity
  8
DIM
 62
7
 48
3.0
100
AcDbDimension
280
0
  2
*D28
  3
Dim-25
 10
920.9263061266975
 20
746.0819990879324
 30
0.0
 11
898.3751465087116
 21
610.0819990879548
 31
0.0
 70
32
 71
5
 42
272.0
 73
0
 74
0
 75
0
100
AcDbAlignedDimension
 13
804.9255090733932
 23
474.08199908793245
 33
0.0
 14
804.9255090733932
 24
746.0819990879324
 34
0.0
 50
90.0
100
AcDbRotatedDimension
  0
LWPOLYLINE
  5
ED
330
17
100
AcDbEntity
  8
0
 62
2
100
AcDbPolyline
 90
4
 70
1
 10
294.9255090733932
 20
656.0819990879179
 10
714.9255090733932
 20
656.0819990879179
 10
714.9255090733932
 20
536.0819990879324
 10
294.9255090733932
 20
536.0819990879324
  0
LWPOLYLINE
  5
EE
330
17
100
AcDbEntity
  8
0
 62
7
100
AcDbPolyline
 90
4
 70
1
 10
3370.594492234901
 20
474.06950483584006
 10
2910.594492234901
 20
474.06950483584006
 10
2910.594492234901
 20
634.0695048358109
 10
3370.594492234901
 20
634.0695048358109
  0
LWPOLYLINE
  5
EF
330
17
100
AcDbEntity
  8
0
 62
2
100
AcDbPolyline
 90
4
 70
1
 10
290.1755090733932
 20
660.8319990879179
 10
281.1755090733932
 20
660.8319990879179
 10
281.1755090733932
 20
669.8319990879179
 10
290.1755090733932
 20
669.8319990879179
  0
CIRCLE
  5
F0
330
17
100
AcDbEntity
  8
0
 62
7
100
AcDbCircle
 10
3359.844492234901
 20
484.81950483584006
 30
0.0
 40
4.0
  0
LWPOLYLINE
  5
F1
330
17
100
AcDbEntity
  8
0
 62
2
100
AcDbPolyline
 90
4
 70
1
 10
719.6755090733932
 20
660.8319990879179
 10
728.6755090733932
 20
660.8319990879179
 10
728.6755090733932
 20
669.8319990879179
 10
719.6755090733932
 20
669.8319990879179
  0
CIRCLE
  5
F2
330
17
100
AcDbEntity
  8
0
 62
7
100
AcDbCircle
 10
2921.344492234901
 20
484.81950483584006
 30
0.0
 40
4.0
  0
LWPOLYLINE
  5
F3
330
17
100
AcDbEntity
  8
0
 62
2
100
AcDbPolyline
 90
4
 70
1
 10
290.1755090733932
 20
531.3319990879324
 10
281.1755090733932
 20
531.3319990879324
 10
281.1755090733932
 20
522.3319990879324
 10
290.1755090733932
 20
522.3319990879324
  0
CIRCLE
  5
F4
330
17
100
AcDbEntity
  8
0
 62
7
100
AcDbCircle
 10
3359.844492234901
 20
623.3195048358109
 30
0.0
 40
4.0
  0
LWPOLYLINE
  5
F5
330
17
100
AcDbEntity
  8
0
 62
2
100
AcDbPolyline
 90
4
 70
1
 10
719.6755090733932
 20
531.3319990879324
 10
728.6755090733932
 20
531.3319990879324
 10
728.6755090733932
 20
522.3319990879324
 10
719.6755090733932
 20
522.3319990879324
  0
CIRCLE
  5
F6
330
17
100
AcDbEntity
  8
0
 62
7
100
AcDbCircle
 10
2921.344492234901
 20
623.3195048358109
 30
0.0
 40
4.0
  0
LWPOLYLINE
  5
F7
330
17
100
AcDbEntity
  8
0
 62
7
100
AcDbPolyline
 90
4
 70
0
 10
1725.7530819576932
 20
444.08199908793245
 10
1725.7530819576932
 20
432.08199908793245
 10
1185.7530819576932
 20
432.08199908793245
 10
1185.7530819576932
 20
444.08199908793245
  0
LWPOLYLINE
  5
F8
330
17
100
AcDbEntity
  8
0
 62
7
100
AcDbPolyline
 90
2
 70
0
 10
1155.7530819576932
 20
474.08199908793245
 10
1155.7530819576932
 20
746.0819990879324
  0
LWPOLYLINE
  5
F9
330
17
100
AcDbEntity
  8
0
 62
7
100
AcDbPolyline
 90
2
 70
0
 10
1755.7530819576932
 20
746.0819990879324
 10
1755.7530819576932
 20
474.08199908793245
  0
LINE
  5
FA
330
17
100
AcDbEntity
  8
0
 62
7
100
AcDbLine
 10
1725.7530819576932
 20
444.08199908793245
 30
0.0
 11
1185.7530819576932
 21
444.08199908793245
 31
0.0
  0
LINE
  5
FB
330
17
100
AcDbEntity
  8
0
 62
7
100
AcDbLine
 10
1755.7530819576932
 20
474.08199908793245
 30
0.0
 11
1155.7530819576932
 21
474.08199908793245
 31
0.0
  0
LINE
  5
FC
330
17
100
AcDbEntity
  8
0
 62
7
100
AcDbLine
 10
1755.7530819576932
 20
746.0819990879324
 30
0.0
 11
1155.7530819576932
 21
746.0819990879324
 31
0.0
  0
LINE
  5
FD
330
17
100
AcDbEntity
  8
0
 62
7
100
AcDbLine
 10
1155.7530819576932
 20
474.08199908793245
 30
0.0
 11
1185.7530819576932
 21
444.08199908793245
 31
0.0
  0
LINE
  5
FE
330
17
100
AcDbEntity
  8
0
 62
7
100
AcDbLine
 10
1755.7530819576932
 20
474.08199908793245
 30
0.0
 11
1725.7530819576932
 21
444.08199908793245
 31
0.0
  0
DIMENSION
  5
FF
330
17
100
AcDbEntity
  8
DIM
 62
7
100
AcDbDimension
280
0
  2
*D29
  3
Dim-25
 10
1120.522124930605
 20
432.08199908793245
 30
0.0
 11
1097.7492736344866
 21
589.081999087955
 31
0.0
 70
32
 71
5
 42
314.0
 73
0
 74
0
 75
0
100
AcDbAlignedDimension
 13
1155.7530819576932
 23
746.0819990879324
 33
0.0
 14
1185.7530819576932
 24
432.08199908793245
 34
0.0
 50
-90.00000000000001
100
AcDbRotatedDimension
  0
INSERT
  5
100
330
17
100
AcDbEntity
  8
0
370
-3
100
AcDbBlockReference
  2
f3daunguoc
 10
1740.7530819576932
 20
474.08199908793245
 30
0.0
 41
-1.0
 50
90.0
  0
INSERT
  5
102
330
17
100
AcDbEntity
  8
0
370
-3
100
AcDbBlockReference
  2
f3daunguoc
 10
1710.7530819576932
 20
444.08199908793245
 30
0.0
 41
-1.0
 50
90.0
  0
INSERT
  5
104
330
17
100
AcDbEntity
  8
0
370
-3
100
AcDbBlockReference
  2
f3daunguoc
 10
1170.7530819576932
 20
474.08199908793245
 30
0.0
 50
270.0
  0
INSERT
  5
106
330
17
100
AcDbEntity
  8
0
370
-3
100
AcDbBlockReference
  2
f3daunguoc
 10
1200.7530819576932
 20
444.08199908793245
 30
0.0
 50
270.0
  0
DIMENSION
  5
108
330
17
100
AcDbEntity
  8
DIM
 62
7
 48
3.0
100
AcDbDimension
280
0
  2
*D30
  3
Dim-25
 10
1155.7530819576932
 20
816.7081067140032
 30
0.0
 11
1455.7530819576932
 21
839.4724314070454
 31
0.0
 70
32
 71
5
 42
600.0
 73
0
 74
0
 75
0
100
AcDbAlignedDimension
 13
1755.7530819576932
 23
746.0819990879324
 33
0.0
 14
1155.7530819576932
 24
746.0819990879324
 34
0.0
 50
0.0
100
AcDbRotatedDimension
  0
DIMENSION
  5
109
330
17
100
AcDbEntity
  8
DIM
 62
7
 48
3.0
100
AcDbDimension
280
0
  2
*D31
  3
Dim-25
 10
1871.7538790109975
 20
474.08199908793245
 30
0.0
 11
1871.7538790109975
 21
393.6524417770204
 31
0.0
 70
160
 71
5
 42
30.0
 73
0
 74
0
 75
0
100
AcDbAlignedDimension
 13
1725.7530819576932
 23
444.08199908793245
 33
0.0
 14
1755.7530819576932
 24
474.08199908793245
 34
0.0
 50
90.0
100
AcDbRotatedDimension
  0
DIMENSION
  5
10A
330
17
100
AcDbEntity
  8
DIM
 62
7
 48
3.0
100
AcDbDimension
280
0
  2
*D32
  3
Dim-25
 10
1871.7538790109975
 20
746.0819990879324
 30
0.0
 11
1849.2027193930116
 21
610.081999087955
 31
0.0
 70
32
 71
5
 42
272.0
 73
0
 74
0
 75
0
100
AcDbAlignedDimension
 13
1755.7530819576932
 23
474.08199908793245
 33
0.0
 14
1755.7530819576932
 24
746.0819990879324
 34
0.0
 50
90.0
100
AcDbRotatedDimension
  0
LWPOLYLINE
  5
10B
330
17
100
AcDbEntity
  8
0
 62
2
100
AcDbPolyline
 90
4
 70
1
 10
1245.7530819576932
 20
656.0819990879179
 10
1665.7530819576932
 20
656.0819990879179
 10
1665.7530819576932
 20
536.0819990879324
 10
1245.7530819576932
 20
536.0819990879324
  0
LWPOLYLINE
  5
10C
330
17
100
AcDbEntity
  8
0
 62
2
100
AcDbPolyline
 90
4
 70
1
 10
1241.0030819576932
 20
660.8319990879179
 10
1232.0030819576932
 20
660.8319990879179
 10
1232.0030819576932
 20
669.8319990879179
 10
1241.0030819576932
 20
669.8319990879179
  0
LWPOLYLINE
  5
10D
330
17
100
AcDbEntity
  8
0
 62
2
100
AcDbPolyline
 90
4
 70
1
 10
1670.5030819576932
 20
660.8319990879179
 10
1679.5030819576932
 20
660.8319990879179
 10
1679.5030819576932
 20
669.8319990879179
 10
1670.5030819576932
 20
669.8319990879179
  0
LWPOLYLINE
  5
10E
330
17
100
AcDbEntity
  8
0
 62
2
100
AcDbPolyline
 90
4
 70
1
 10
1241.0030819576932
 20
531.3319990879324
 10
1232.0030819576932
 20
531.3319990879324
 10
1232.0030819576932
 20
522.3319990879324
 10
1241.0030819576932
 20
522.3319990879324
  0
LWPOLYLINE
  5
10F
330
17
100
AcDbEntity
  8
0
 62
2
100
AcDbPolyline
 90
4
 70
1
 10
1670.5030819576932
 20
531.3319990879324
 10
1679.5030819576932
 20
531.3319990879324
 10
1679.5030819576932
 20
522.3319990879324
 10
1670.5030819576932
 20
522.3319990879324
  0
LINE
  5
110
330
17
100
AcDbEntity
  8
0
 62
7
100
AcDbLine
 10
2334.730481897801
 20
943.5927606151606
 30
0.0
 11
2505.7304818978882
 21
943.5927606151606
 31
0.0
  0
LINE
  5
111
330
17
100
AcDbEntity
  8
0
 62
7
100
AcDbLine
 10
2284.7304818978882
 20
893.5927606151606
 30
0.0
 11
2555.730481897801
 21
893.5927606151606
 31
0.0
  0
LINE
  5
112
330
17
100
AcDbEntity
  8
0
 62
7
100
AcDbLine
 10
2555.730481897801
 20
893.5927606151606
 30
0.0
 11
2555.730481897801
 21
793.5927606151606
 31
0.0
  0
LINE
  5
113
330
17
100
AcDbEntity
  8
0
 62
7
100
AcDbLine
 10
2505.7304818978882
 20
743.5927606151606
 30
0.0
 11
2334.730481897801
 21
743.5927606151606
 31
0.0
  0
LINE
  5
114
330
17
100
AcDbEntity
  8
0
 62
7
100
AcDbLine
 10
2555.730481897801
 20
793.5927606151606
 30
0.0
 11
2284.7304818978882
 21
793.5927606151606
 31
0.0
  0
LINE
  5
115
330
17
100
AcDbEntity
  8
0
 62
7
100
AcDbLine
 10
2284.7304818978882
 20
793.5927606151606
 30
0.0
 11
2284.7304818978882
 21
893.5927606151606
 31
0.0
  0
LINE
  5
116
330
17
100
AcDbEntity
  8
0
 62
7
100
AcDbLine
 10
2284.7304818978882
 20
793.5927606151606
 30
0.0
 11
2334.730481897801
 21
743.5927606151606
 31
0.0
  0
LINE
  5
117
330
17
100
AcDbEntity
  8
0
 62
7
100
AcDbLine
 10
2284.7304818978882
 20
893.5927606151606
 30
0.0
 11
2334.730481897801
 21
943.5927606151606
 31
0.0
  0
LINE
  5
118
330
17
100
AcDbEntity
  8
0
 62
7
100
AcDbLine
 10
2505.7304818978882
 20
943.5927606151606
 30
0.0
 11
2555.730481897801
 21
893.5927606151606
 31
0.0
  0
LINE
  5
119
330
17
100
AcDbEntity
  8
0
 62
7
100
AcDbLine
 10
2555.730481897801
 20
793.5927606151606
 30
0.0
 11
2505.7304818978882
 21
743.5927606151606
 31
0.0
  0
DIMENSION
  5
11A
330
17
100
AcDbEntity
  8
DIM
 62
7
100
AcDbDimension
280
0
  2
*D33
  3
Dim-15
 10
2608.582442261686
 20
743.5927606151606
 30
0.0
 11
2595.923847445898
 21
843.5927606151832
 31
0.0
 70
32
 71
5
 42
200.0
 73
0
 74
0
 75
0
100
AcDbAlignedDimension
 13
2505.7304818978882
 23
943.5927606151606
 33
0.0
 14
2505.7304818978882
 24
743.5927606151606
 34
0.0
 50
90.0
100
AcDbRotatedDimension
  0
DIMENSION
  5
11B
330
17
100
AcDbEntity
  8
DIM
 62
7
100
AcDbDimension
280
0
  2
*D34
  3
Dim-15
 10
2555.730481897801
 20
707.1593413799353
 30
0.0
 11
2420.2304818978882
 21
719.6900371507402
 31
0.0
 70
32
 71
5
 42
271.0
 73
0
 74
0
 75
0
100
AcDbAlignedDimension
 13
2284.7304818978882
 23
793.5927606151606
 33
0.0
 14
2555.730481897801
 24
793.5927606151606
 34
0.0
 50
0.0
100
AcDbRotatedDimension
  0
DIMENSION
  5
11C
330
17
100
AcDbEntity
  8
DIM
 62
7
100
AcDbDimension
280
0
  2
*D35
  3
Dim-15
 10
2239.7938190219866
 20
793.5927606151606
 30
0.0
 11
2227.1352242061985
 21
843.5927606151832
 31
0.0
 70
32
 71
5
 42
100.0
 73
0
 74
0
 75
0
100
AcDbAlignedDimension
 13
2284.7304818978882
 23
893.5927606151606
 33
0.0
 14
2284.7304818978882
 24
793.5927606151606
 34
0.0
 50
90.0
100
AcDbRotatedDimension
  0
DIMENSION
  5
11D
330
17
100
AcDbEntity
  8
DIM
 62
7
100
AcDbDimension
280
0
  2
*D36
  3
Dim-15
 10
2239.7938190219866
 20
943.5927606151606
 30
0.0
 11
2227.1352242061985
 21
918.5927606151831
 31
0.0
 70
32
 71
5
 42
50.0
 73
0
 74
0
 75
0
100
AcDbAlignedDimension
 13
2284.7304818978882
 23
893.5927606151606
 33
0.0
 14
2334.730481897801
 24
943.5927606151606
 34
0.0
 50
90.0
100
AcDbRotatedDimension
  0
DIMENSION
  5
11E
330
17
100
AcDbEntity
  8
DIM
 62
7
100
AcDbDimension
280
0
  2
*D37
  3
Dim-15
 10
2239.7938190219866
 20
743.5927606151606
 30
0.0
 11
2227.1352242061985
 21
768.5927606151832
 31
0.0
 70
32
 71
5
 42
49.99999999999997
 73
0
 74
0
 75
0
100
AcDbAlignedDimension
 13
2284.7304818978882
 23
793.5927606151606
 33
0.0
 14
2334.730481897801
 24
743.5927606151606
 34
0.0
 50
90.0
100
AcDbRotatedDimension
  0
LINE
  5
11F
330
17
100
AcDbEntity
  8
0
 62
7
100
AcDbLine
 10
2174.7940820372896
 20
637.2019511410842
 30
0.0
 11
2671.7940820372896
 21
637.2019511410842
 31
0.0
  0
LINE
  5
120
330
17
100
AcDbEntity
  8
0
 62
7
100
AcDbLine
 10
2124.7940820372896
 20
587.2019511410842
 30
0.0
 11
2721.7940820372896
 21
587.2019511410842
 31
0.0
  0
LINE
  5
121
330
17
100
AcDbEntity
  8
0
 62
7
100
AcDbLine
 10
2721.7940820372896
 20
587.2019511410842
 30
0.0
 11
2721.7940820372896
 21
487.2019511410843
 31
0.0
  0
LINE
  5
122
330
17
100
AcDbEntity
  8
0
 62
7
100
AcDbLine
 10
2671.7940820372896
 20
437.20195114108424
 30
0.0
 11
2174.7940820372896
 21
437.20195114108424
 31
0.0
  0
LINE
  5
123
330
17
100
AcDbEntity
  8
0
 62
7
100
AcDbLine
 10
2721.7940820372896
 20
487.2019511410843
 30
0.0
 11
2124.7940820372896
 21
487.2019511410843
 31
0.0
  0
LINE
  5
124
330
17
100
AcDbEntity
  8
0
 62
7
100
AcDbLine
 10
2124.7940820372896
 20
487.2019511410843
 30
0.0
 11
2124.7940820372896
 21
587.2019511410842
 31
0.0
  0
LINE
  5
125
330
17
100
AcDbEntity
  8
0
 62
7
100
AcDbLine
 10
2124.7940820372896
 20
487.2019511410843
 30
0.0
 11
2174.7940820372896
 21
437.20195114108424
 31
0.0
  0
LINE
  5
126
330
17
100
AcDbEntity
  8
0
 62
7
100
AcDbLine
 10
2124.7940820372896
 20
587.2019511410842
 30
0.0
 11
2174.7940820372896
 21
637.2019511410842
 31
0.0
  0
LINE
  5
127
330
17
100
AcDbEntity
  8
0
 62
7
100
AcDbLine
 10
2671.7940820372896
 20
637.2019511410842
 30
0.0
 11
2721.7940820372896
 21
587.2019511410842
 31
0.0
  0
LINE
  5
128
330
17
100
AcDbEntity
  8
0
 62
7
100
AcDbLine
 10
2721.7940820372896
 20
487.2019511410843
 30
0.0
 11
2671.7940820372896
 21
437.20195114108424
 31
0.0
  0
DIMENSION
  5
129
330
17
100
AcDbEntity
  8
DIM
 62
7
100
AcDbDimension
280
0
  2
*D38
  3
Dim-15
 10
2774.6460424010875
 20
437.2019511410842
 30
0.0
 11
2761.9874475852994
 21
537.201951141107
 31
0.0
 70
32
 71
5
 42
200.0
 73
0
 74
0
 75
0
100
AcDbAlignedDimension
 13
2671.7940820372896
 23
637.2019511410842
 33
0.0
 14
2671.7940820372896
 24
437.20195114108424
 34
0.0
 50
90.0
100
AcDbRotatedDimension
  0
DIMENSION
  5
12A
330
17
100
AcDbEntity
  8
DIM
 62
7
100
AcDbDimension
280
0
  2
*D39
  3
Dim-15
 10
2721.7940820372896
 20
400.76853190585894
 30
0.0
 11
2423.2940820372896
 21
413.4271267216844
 31
0.0
 70
32
 71
5
 42
597.0
 73
0
 74
0
 75
0
100
AcDbAlignedDimension
 13
2124.7940820372896
 23
487.2019511410843
 33
0.0
 14
2721.7940820372896
 24
487.2019511410843
 34
0.0
 50
0.0
100
AcDbRotatedDimension
  0
DIMENSION
  5
12B
330
17
100
AcDbEntity
  8
DIM
 62
7
100
AcDbDimension
280
0
  2
*D40
  3
Dim-15
 10
2079.8574191615044
 20
487.2019511410843
 30
0.0
 11
2067.198824345687
 21
537.2019511411069
 31
0.0
 70
32
 71
5
 42
100.0
 73
0
 74
0
 75
0
100
AcDbAlignedDimension
 13
2124.7940820372896
 23
587.2019511410842
 33
0.0
 14
2124.7940820372896
 24
487.2019511410843
 34
0.0
 50
90.0
100
AcDbRotatedDimension
  0
DIMENSION
  5
12C
330
17
100
AcDbEntity
  8
DIM
 62
7
100
AcDbDimension
280
0
  2
*D41
  3
Dim-15
 10
2079.8574191615044
 20
637.2019511410842
 30
0.0
 11
2067.1988243456
 21
612.2019511411069
 31
0.0
 70
32
 71
5
 42
50.0
 73
0
 74
0
 75
0
100
AcDbAlignedDimension
 13
2124.7940820372896
 23
587.2019511410842
 33
0.0
 14
2174.7940820372896
 24
637.2019511410842
 34
0.0
 50
90.0
100
AcDbRotatedDimension
  0
DIMENSION
  5
12D
330
17
100
AcDbEntity
  8
DIM
 62
7
100
AcDbDimension
280
0
  2
*D42
  3
Dim-15
 10
2079.8574191615044
 20
437.20195114108424
 30
0.0
 11
2067.1988243456
 21
462.20195114110686
 31
0.0
 70
32
 71
5
 42
50.0
 73
0
 74
0
 75
0
100
AcDbAlignedDimension
 13
2124.7940820372896
 23
487.2019511410843
 33
0.0
 14
2174.7940820372896
 24
437.20195114108424
 34
0.0
 50
90.0
100
AcDbRotatedDimension
  0
INSERT
  5
12E
330
17
100
AcDbEntity
  8
0
370
-3
100
AcDbBlockReference
  2
f3daunguoc
 10
2299.7304818978882
 20
893.5927606151606
 30
0.0
 50
270.0
  0
INSERT
  5
130
330
17
100
AcDbEntity
  8
0
370
-3
100
AcDbBlockReference
  2
f3daunguoc
 10
2299.7304818978882
 20
793.5927606151606
 30
0.0
 50
270.0
  0
INSERT
  5
132
330
17
100
AcDbEntity
  8
0
370
-3
100
AcDbBlockReference
  2
f3daunguoc
 10
2139.7940820372896
 20
587.2019511410842
 30
0.0
 50
270.0
  0
INSERT
  5
134
330
17
100
AcDbEntity
  8
0
370
-3
100
AcDbBlockReference
  2
f3daunguoc
 10
2139.7940820372896
 20
487.2019511410843
 30
0.0
 50
270.0
  0
INSERT
  5
136
330
17
100
AcDbEntity
  8
0
370
-3
100
AcDbBlockReference
  2
f3daunguoc
 10
2706.7940820372896
 20
587.2019511410842
 30
0.0
 41
-1.0
 50
90.0
  0
INSERT
  5
138
330
17
100
AcDbEntity
  8
0
370
-3
100
AcDbBlockReference
  2
f3daunguoc
 10
2706.7940820372896
 20
487.2019511410843
 30
0.0
 41
-1.0
 50
90.0
  0
INSERT
  5
13A
330
17
100
AcDbEntity
  8
0
370
-3
100
AcDbBlockReference
  2
f3daunguoc
 10
2540.730481897801
 20
893.5927606151606
 30
0.0
 41
-1.0
 50
90.0
  0
INSERT
  5
13C
330
17
100
AcDbEntity
  8
0
370
-3
100
AcDbBlockReference
  2
f3daunguoc
 10
2540.730481897801
 20
793.5927606151606
 30
0.0
 41
-1.0
 50
90.0
  0
INSERT
  5
13E
330
17
100
AcDbEntity
  8
CNC
370
-3
100
AcDbBlockReference
  2
ovan8.5x20
 10
2223.2940820372896
 20
612.2019511410842
 30
0.0
 50
180.0
  0
INSERT
  5
140
330
17
100
AcDbEntity
  8
CNC
370
-3
100
AcDbBlockReference
  2
ovan8.5x20
 10
2223.2940820372896
 20
462.20195114108424
 30
0.0
 41
-1.0
  0
INSERT
  5
142
330
17
100
AcDbEntity
  8
CNC
370
-3
100
AcDbBlockReference
  2
ovan8.5x20
 10
2623.2940820372896
 20
612.2019511410842
 30
0.0
 50
180.0
  0
INSERT
  5
144
330
17
100
AcDbEntity
  8
CNC
370
-3
100
AcDbBlockReference
  2
ovan8.5x20
 10
2623.2940820372896
 20
462.20195114108424
 30
0.0
 41
-1.0
  0
INSERT
  5
146
330
17
100
AcDbEntity
  8
CNC
370
-3
100
AcDbBlockReference
  2
ovan8.5x20
 10
1255.7530819576932
 20
721.0819990879323
 30
0.0
 50
270.0
  0
INSERT
  5
148
330
17
100
AcDbEntity
  8
CNC
370
-3
100
AcDbBlockReference
  2
ovan8.5x20
 10
1655.7530819576932
 20
721.0819990879323
 30
0.0
 41
-1.0
 50
90.0
  0
INSERT
  5
14A
330
17
100
AcDbEntity
  8
CNC
370
-3
100
AcDbBlockReference
  2
ovan8.5x20
 10
1255.7530819576932
 20
499.08199908793245
 30
0.0
 41
-1.0
 50
270.0
  0
INSERT
  5
14C
330
17
100
AcDbEntity
  8
CNC
370
-3
100
AcDbBlockReference
  2
ovan8.5x20
 10
1655.7530819576932
 20
499.08199908793245
 30
0.0
 50
90.0
  0
DIMENSION
  5
14E
330
17
100
AcDbEntity
  8
DIM
 62
7
 48
3.0
100
AcDbDimension
280
0
  2
*D43
  3
Dim-25
 10
2910.594492234901
 20
392.9052515932642
 30
0.0
 11
3140.594492234901
 21
415.66957628630644
 31
0.0
 70
32
 71
5
 42
460.0
 73
0
 74
0
 75
0
100
AcDbAlignedDimension
 13
3370.594492234901
 23
474.06950483584006
 33
0.0
 14
2910.594492234901
 24
474.06950483584006
 34
0.0
 50
180.0
100
AcDbRotatedDimension
  0
DIMENSION
  5
14F
330
17
100
AcDbEntity
  8
DIM
 62
7
 48
3.0
100
AcDbDimension
280
0
  2
*D44
  3
Dim-25
 10
3444.7587597027887
 20
634.0695048358109
 30
0.0
 11
3421.9944350098085
 21
554.0695048358483
 31
0.0
 70
32
 71
5
 42
159.9999999999709
 73
0
 74
0
 75
0
100
AcDbAlignedDimension
 13
3370.594492234901
 23
474.06950483584006
 33
0.0
 14
3370.594492234901
 24
634.0695048358109
 34
0.0
 50
-90.00000000000001
100
AcDbRotatedDimension
  0
LWPOLYLINE
  5
150
330
17
100
AcDbEntity
  8
0
 62
7
100
AcDbPolyline
 90
4
 70
1
 10
2877.2616945960035
 20
2262.5467884174805
 10
3475.261694596091
 20
2262.5467884174805
 10
3475.261694596091
 20
1364.9467884174744
 10
2877.261694596091
 20
1364.9467884174744
  0
LWPOLYLINE
  5
151
330
17
100
AcDbEntity
  8
0
 62
7
100
AcDbPolyline
 90
2
 70
0
 10
3510.261694596091
 20
2142.5467884174946
 10
3510.261694596091
 20
1484.9467884174599
  0
LWPOLYLINE
  5
152
330
17
100
AcDbEntity
  8
0
 62
7
100
AcDbPolyline
 90
2
 70
0
 10
3498.261694596091
 20
2262.5467884174805
 10
3498.261694596091
 20
2185.5467884174946
  0
LWPOLYLINE
  5
153
330
17
100
AcDbEntity
  8
0
 62
7
100
AcDbPolyline
 90
2
 70
0
 10
3498.261694596091
 20
2142.5467884174946
 10
3498.261694596091
 20
1484.9467884174599
  0
LWPOLYLINE
  5
154
330
17
100
AcDbEntity
  8
0
 62
7
100
AcDbPolyline
 90
2
 70
0
 10
3497.261694596091
 20
1441.9467884174599
 10
3497.261694596091
 20
1364.9467884174744
  0
LWPOLYLINE
  5
155
330
17
100
AcDbEntity
  8
0
 62
7
100
AcDbPolyline
 90
2
 70
0
 10
3475.261694596091
 20
1341.9467884174744
 10
2877.261694596091
 20
1341.9467884174744
  0
LWPOLYLINE
  5
156
330
17
100
AcDbEntity
  8
0
 62
7
100
AcDbPolyline
 90
2
 70
0
 10
2854.261694596091
 20
1364.9467884174744
 10
2854.2616945960035
 20
2262.5467884174805
  0
LWPOLYLINE
  5
157
330
17
100
AcDbEntity
  8
0
 62
7
100
AcDbPolyline
 90
2
 70
0
 10
2877.2616945960035
 20
2285.5467884174805
 10
3475.261694596091
 20
2285.5467884174805
  0
LWPOLYLINE
  5
158
330
17
100
AcDbEntity
  8
0
 62
2
100
AcDbPolyline
 90
4
 70
0
 10
3510.261694596091
 20
2142.5467884174946
 10
3495.261694596091
 20
2142.5467884174946
 10
3495.261694596091
 20
2185.5467884174946
 10
3510.261694596091
 20
2185.5467884174946
  0
CIRCLE
  5
159
330
17
100
AcDbEntity
  8
0
 62
2
100
AcDbCircle
 10
3454.761694596091
 20
2170.0467884174946
 30
0.0
 40
5.0
  0
CIRCLE
  5
15A
330
17
100
AcDbEntity
  8
0
 62
2
100
AcDbCircle
 10
3454.761694596091
 20
2158.0467884174946
 30
0.0
 40
5.0
  0
LWPOLYLINE
  5
15B
330
17
100
AcDbEntity
  8
0
 62
2
100
AcDbPolyline
 90
25
 70
0
 10
3510.261694596091
 20
1484.9467884174599
 10
3495.261694596091
 20
1484.9467884174599
 10
3495.261694596091
 20
1441.9467884174599
 10
3510.261694596091
 20
1441.9467884174599
 10
3510.261694596091
 20
1376.9467884174744
 10
3498.261694596091
 20
1364.9467884174744
 10
3475.261694596091
 20
1364.9467884174744
 10
3475.261694596091
 20
1341.9467884174744
 10
3463.261694596091
 20
1329.9467884174744
 10
2889.261694596091
 20
1329.9467884174744
 10
2877.261694596091
 20
1341.9467884174744
 10
2877.261694596091
 20
1364.9467884174744
 10
2854.261694596091
 20
1364.9467884174744
 10
2842.261694596091
 20
1376.9467884174744
 10
2842.2616945960035
 20
2250.5467884174795
 10
2854.2616945960035
 20
2262.5467884174805
 10
2877.2616945960035
 20
2262.5467884174805
 10
2877.2616945960035
 20
2285.5467884174805
 10
2889.2616945960035
 20
2297.5467884174795
 10
3463.2616945960035
 20
2297.5467884174795
 10
3475.261694596091
 20
2285.5467884174805
 10
3475.261694596091
 20
2262.5467884174805
 10
3498.261694596091
 20
2262.5467884174805
 10
3510.261694596091
 20
2250.5467884174795
 10
3510.261694596091
 20
2185.5467884174946
  0
CIRCLE
  5
15C
330
17
100
AcDbEntity
  8
0
 62
2
100
AcDbCircle
 10
3454.761694596091
 20
1457.4467884174596
 30
0.0
 40
5.0
  0
CIRCLE
  5
15D
330
17
100
AcDbEntity
  8
0
 62
2
100
AcDbCircle
 10
3454.761694596091
 20
1469.4467884174596
 30
0.0
 40
5.0
  0
INSERT
  5
15E
330
17
100
AcDbEntity
  8
0
370
-3
100
AcDbBlockReference
  2
f3daunguoc
 10
2892.2616945960035
 20
2262.5467884174805
 30
0.0
 41
-1.0
 50
180.0
  0
INSERT
  5
160
330
17
100
AcDbEntity
  8
0
370
-3
100
AcDbBlockReference
  2
f3daunguoc
 10
2877.2616945960035
 20
2247.5467884174795
 30
0.0
 41
-1.0
 50
180.0
  0
INSERT
  5
162
330
17
100
AcDbEntity
  8
0
370
-3
100
AcDbBlockReference
  2
f3daunguoc
 10
2892.2616945960035
 20
2285.5467884174805
 30
0.0
 41
-1.0
 50
180.0
  0
INSERT
  5
164
330
17
100
AcDbEntity
  8
0
370
-3
100
AcDbBlockReference
  2
f3daunguoc
 10
2854.2616945960035
 20
2247.5467884174795
 30
0.0
 41
-1.0
 50
180.0
  0
INSERT
  5
166
330
17
100
AcDbEntity
  8
0
370
-3
100
AcDbBlockReference
  2
f3daunguoc
 10
2942.261694596091
 20
2262.5467884174805
 30
0.0
 41
-1.0
 50
180.0
  0
INSERT
  5
168
330
17
100
AcDbEntity
  8
0
370
-3
100
AcDbBlockReference
  2
f3daunguoc
 10
2942.261694596091
 20
2285.5467884174805
 30
0.0
 41
-1.0
 50
180.0
  0
INSERT
  5
16A
330
17
100
AcDbEntity
  8
0
370
-3
100
AcDbBlockReference
  2
f3daunguoc
 10
3460.261694596091
 20
2262.5467884174805
 30
0.0
 50
180.0
  0
INSERT
  5
16C
330
17
100
AcDbEntity
  8
0
370
-3
100
AcDbBlockReference
  2
f3daunguoc
 10
3475.261694596091
 20
2247.5467884174795
 30
0.0
 50
180.0
  0
INSERT
  5
16E
330
17
100
AcDbEntity
  8
0
370
-3
100
AcDbBlockReference
  2
f3daunguoc
 10
3460.261694596091
 20
2285.5467884174805
 30
0.0
 50
180.0
  0
INSERT
  5
170
330
17
100
AcDbEntity
  8
0
370
-3
100
AcDbBlockReference
  2
f3daunguoc
 10
3498.261694596091
 20
2247.5467884174795
 30
0.0
 50
180.0
  0
INSERT
  5
172
330
17
100
AcDbEntity
  8
0
370
-3
100
AcDbBlockReference
  2
f3daunguoc
 10
3410.2616945960035
 20
2262.5467884174805
 30
0.0
 50
180.0
  0
INSERT
  5
174
330
17
100
AcDbEntity
  8
0
370
-3
100
AcDbBlockReference
  2
f3daunguoc
 10
3410.2616945960035
 20
2285.5467884174805
 30
0.0
 50
180.0
  0
INSERT
  5
176
330
17
100
AcDbEntity
  8
0
370
-3
100
AcDbBlockReference
  2
f3daunguoc
 10
2892.261694596091
 20
1364.9467884174744
 30
0.0
  0
INSERT
  5
178
330
17
100
AcDbEntity
  8
0
370
-3
100
AcDbBlockReference
  2
f3daunguoc
 10
2877.261694596091
 20
1379.9467884174744
 30
0.0
  0
INSERT
  5
17A
330
17
100
AcDbEntity
  8
0
370
-3
100
AcDbBlockReference
  2
f3daunguoc
 10
2892.261694596091
 20
1341.9467884174744
 30
0.0
  0
INSERT
  5
17C
330
17
100
AcDbEntity
  8
0
370
-3
100
AcDbBlockReference
  2
f3daunguoc
 10
2854.261694596091
 20
1379.9467884174744
 30
0.0
  0
INSERT
  5
17E
330
17
100
AcDbEntity
  8
0
370
-3
100
AcDbBlockReference
  2
f3daunguoc
 10
2942.261694596091
 20
1364.9467884174744
 30
0.0
  0
INSERT
  5
180
330
17
100
AcDbEntity
  8
0
370
-3
100
AcDbBlockReference
  2
f3daunguoc
 10
2942.261694596091
 20
1341.9467884174744
 30
0.0
  0
INSERT
  5
182
330
17
100
AcDbEntity
  8
0
370
-3
100
AcDbBlockReference
  2
f3daunguoc
 10
3460.261694596091
 20
1364.9467884174744
 30
0.0
 41
-1.0
  0
INSERT
  5
184
330
17
100
AcDbEntity
  8
0
370
-3
100
AcDbBlockReference
  2
f3daunguoc
 10
3475.261694596091
 20
1379.9467884174744
 30
0.0
 41
-1.0
  0
INSERT
  5
186
330
17
100
AcDbEntity
  8
0
370
-3
100
AcDbBlockReference
  2
f3daunguoc
 10
3460.261694596091
 20
1341.9467884174744
 30
0.0
 41
-1.0
  0
INSERT
  5
188
330
17
100
AcDbEntity
  8
0
370
-3
100
AcDbBlockReference
  2
f3daunguoc
 10
3497.261694596091
 20
1379.9467884174744
 30
0.0
 41
-1.0
  0
INSERT
  5
18A
330
17
100
AcDbEntity
  8
0
370
-3
100
AcDbBlockReference
  2
f3daunguoc
 10
3410.261694596091
 20
1364.9467884174744
 30
0.0
 41
-1.0
  0
INSERT
  5
18C
330
17
100
AcDbEntity
  8
0
370
-3
100
AcDbBlockReference
  2
f3daunguoc
 10
3410.261694596091
 20
1341.9467884174744
 30
0.0
 41
-1.0
  0
DIMENSION
  5
18E
330
17
100
AcDbEntity
  8
DIM
 62
2
100
AcDbDimension
280
0
  2
*D45
  3
Dim-25
 10
3510.261694596091
 20
2321.7295719580507
 30
0.0
 11
3552.8629906396964
 21
2344.2807315760597
 31
0.0
 70
32
 71
5
 42
12.0000000000291
 73
0
 74
0
 75
0
100
AcDbAlignedDimension
 13
3498.261694596091
 23
2262.5467884174805
 33
0.0
 14
3510.261694596091
 24
2250.5467884174795
 34
0.0
 50
0.0
100
AcDbRotatedDimension
  0
DIMENSION
  5
18F
330
17
100
AcDbEntity
  8
DIM
 62
2
100
AcDbDimension
280
0
  2
*D46
  3
Dim-25
 10
3498.261694596091
 20
2360.4075641500312
 30
0.0
 11
3534.380725973984
 21
2383.1804154460756
 31
0.0
 70
32
 71
5
 42
23.0
 73
0
 74
0
 75
0
100
AcDbAlignedDimension
 13
3475.261694596091
 23
2285.5467884174805
 33
0.0
 14
3498.261694596091
 24
2262.5467884174805
 34
0.0
 50
0.0
100
AcDbRotatedDimension
  0
DIMENSION
  5
190
330
17
100
AcDbEntity
  8
DIM
 62
2
100
AcDbDimension
280
0
  2
*D47
  3
Dim-25
 10
2877.2616945960035
 20
2360.4075641500312
 30
0.0
 11
3176.261694596091
 21
2383.1718888430746
 31
0.0
 70
32
 71
5
 42
598.0
 73
0
 74
0
 75
0
100
AcDbAlignedDimension
 13
3475.261694596091
 23
2285.5467884174805
 33
0.0
 14
2877.2616945960035
 24
2285.5467884174805
 34
0.0
 50
0.0
100
AcDbRotatedDimension
  0
DIMENSION
  5
191
330
17
100
AcDbEntity
  8
DIM
 62
2
100
AcDbDimension
280
0
  2
*D48
  3
Dim-25
 10
2741.5028432348918
 20
1329.9467884174744
 30
0.0
 11
2718.738518541795
 21
1813.7467884174996
 31
0.0
 70
32
 71
5
 42
967.6000000000058
 73
0
 74
0
 75
0
100
AcDbAlignedDimension
 13
2889.3953215568035
 23
2297.5467884174795
 33
0.0
 14
2889.441183074785
 24
1329.9467884174744
 34
0.0
 50
90.0
100
AcDbRotatedDimension
  0
DIMENSION
  5
192
330
17
100
AcDbEntity
  8
DIM
 62
2
100
AcDbDimension
280
0
  2
*D49
  3
Dim-25
 10
2804.1871009801107
 20
2262.5467884174805
 30
0.0
 11
2781.4227762871014
 21
1813.7467884174996
 31
0.0
 70
32
 71
5
 42
897.6000000000057
 73
0
 74
0
 75
0
100
AcDbAlignedDimension
 13
2854.261694596091
 23
1364.9467884174744
 33
0.0
 14
2854.2616945960035
 24
2262.5467884174805
 34
0.0
 50
90.0
100
AcDbRotatedDimension
  0
DIMENSION
  5
193
330
17
100
AcDbEntity
  8
DIM
 62
2
100
AcDbDimension
280
0
  2
*D50
  3
Dim-25
 10
3509.261694596091
 20
1267.0082182551057
 30
0.0
 11
3175.761694596091
 21
1289.772542948148
 31
0.0
 70
32
 71
5
 42
667.0
 73
0
 74
0
 75
0
100
AcDbAlignedDimension
 13
2842.261694596091
 23
1376.9467884174744
 33
0.0
 14
3509.261694596091
 24
1376.9467884174744
 34
0.0
 50
0.0
100
AcDbRotatedDimension
  0
LINE
  5
194
330
17
100
AcDbEntity
  8
0
 62
7
 48
3.0
100
AcDbLine
 10
1473.147173571284
 20
2172.0467884174795
 30
0.0
 11
1473.147173571284
 21
2156.0467884175096
 31
0.0
  0
CIRCLE
  5
195
330
17
100
AcDbEntity
  8
0
 62
2
100
AcDbCircle
 10
3126.261694596091
 20
1597.5226939963693
 30
0.0
 40
2.0
  0
CIRCLE
  5
196
330
17
100
AcDbEntity
  8
0
 62
2
100
AcDbCircle
 10
3026.261694596091
 20
1597.5226939963693
 30
0.0
 40
2.0
  0
LWPOLYLINE
  5
197
330
17
100
AcDbEntity
  8
0
 62
2
100
AcDbPolyline
 90
4
 70
1
 10
3036.261694596091
 20
1627.5226939963695
 10
3116.261694596091
 20
1627.5226939963695
 10
3116.261694596091
 20
1567.5226939963693
 10
3036.261694596091
 20
1567.5226939963693
  0
CIRCLE
  5
198
330
17
100
AcDbEntity
  8
0
 62
2
100
AcDbCircle
 10
3226.261694596091
 20
1597.5226939963693
 30
0.0
 40
2.0
  0
CIRCLE
  5
199
330
17
100
AcDbEntity
  8
0
 62
2
100
AcDbCircle
 10
3326.261694596091
 20
1597.5226939963693
 30
0.0
 40
2.0
  0
LWPOLYLINE
  5
19A
330
17
100
AcDbEntity
  8
0
 62
2
100
AcDbPolyline
 90
4
 70
1
 10
3316.261694596091
 20
1627.5226939963695
 10
3236.261694596091
 20
1627.5226939963695
 10
3236.261694596091
 20
1567.5226939963693
 10
3316.261694596091
 20
1567.5226939963693
  0
LWPOLYLINE
  5
19B
330
17
100
AcDbEntity
  8
0
 62
2
 48
3.0
100
AcDbPolyline
 90
4
 70
1
 10
2943.661694596085
 20
1862.2467884175067
 10
2967.661694596085
 20
1862.2467884175067
 10
2967.661694596085
 20
1764.3085844183445
 10
2943.661694596085
 20
1764.3085844183445
  0
CIRCLE
  5
19C
330
17
100
AcDbEntity
  8
THIET BI
  6
Continuous
 62
2
 48
0.5
100
AcDbCircle
 10
3126.2673912252067
 20
2115.175493658776
 30
0.0
 40
11.5
  0
CIRCLE
  5
19D
330
17
100
AcDbEntity
  8
THIET BI
  6
Continuous
 62
2
 48
0.5
100
AcDbCircle
 10
3226.263805128605
 20
2114.175493658776
 30
0.0
 40
11.5
  0
CIRCLE
  5
19E
330
17
100
AcDbEntity
  8
THIET BI
  6
Continuous
 62
2
 48
0.5
100
AcDbCircle
 10
3176.263805128605
 20
2115.1762669106765
 30
0.0
 40
11.5
  0
CIRCLE
  5
19F
330
17
100
AcDbEntity
  8
0
 62
2
 48
3.0
100
AcDbCircle
 10
3126.2673912252067
 20
2115.175493658776
 30
0.0
 40
11.5
  0
MTEXT
  5
1A0
330
17
100
AcDbEntity
  8
0
 62
2
100
AcDbMText
 10
2307.306763432687
 20
1295.4250643451749
 30
0.0
 40
25.0
 41
1073.000000000014
 46
100.0000000000031
 71
5
 72
5
  1
Cánh ngoài : 4 tấm
  0
MTEXT
  5
1A1
330
17
100
AcDbEntity
  8
0
 62
2
100
AcDbMText
 10
1608.441477918299
 20
1181.1944871814853
 30
0.0
 40
25.0
 41
1073.000000000014
 46
100.0000000000031
 71
5
 72
5
  1
Thành phải : 4 tấm
  0
MTEXT
  5
1A2
330
17
100
AcDbEntity
  8
0
 62
2
100
AcDbMText
 10
1012.2118227944884
 20
1256.0073879780182
 30
0.0
 40
25.0
 41
1073.000000000014
 46
100.0000000000031
 71
5
 72
5
  1
Tấm lưng  : 4 tấm hàn ecu 6
  0
MTEXT
  5
1A3
330
17
100
AcDbEntity
  8
0
 62
2
100
AcDbMText
 10
1516.2170153647894
 20
372.3454259627258
 30
0.0
 40
50.0
 41
1516.418609980494
 46
647.1644973081675
 71
5
 72
5
  1
tấm đáy :4 tấm
  0
MTEXT
  5
1A4
330
17
100
AcDbEntity
  8
0
 62
2
100
AcDbMText
 10
2465.5555777571863
 20
318.65267026059945
 30
0.0
 40
50.0
 41
1516.418609980494
 46
647.1644973081675
 71
5
 72
5
  1
Đế tủ 8 bộ 
  0
LWPOLYLINE
  5
1A5
330
17
100
AcDbEntity
  8
0
 62
2
100
AcDbPolyline
 90
6
 70
1
 10
1588.647173571284
 20
1834.7467884174625
 10
1652.647173571284
 20
1834.7467884174625
 42
-0.4142135623730951
 10
1660.647173571284
 20
1826.7467884174625
 10
1660.647173571284
 20
1823.7467884174625
 10
1580.647173571284
 20
1823.7467884174625
 10
1580.647173571284
 20
1826.7467884174625
 42
-0.4142135623730951
  0
LWPOLYLINE
  5
1A6
330
17
100
AcDbEntity
  8
0
 62
2
100
AcDbPolyline
 90
6
 70
1
 10
1588.647173571284
 20
1803.7467884174625
 10
1652.647173571284
 20
1803.7467884174625
 42
-0.4142135623730951
 10
1660.647173571284
 20
1795.7467884174625
 10
1660.647173571284
 20
1792.7467884174625
 10
1580.647173571284
 20
1792.7467884174625
 10
1580.647173571284
 20
1795.7467884174625
 42
-0.4142135623730951
  0
LWPOLYLINE
  5
1A7
330
17
100
AcDbEntity
  8
0
 62
2
100
AcDbPolyline
 90
6
 70
1
 10
1588.647173571284
 20
1865.7467884174625
 10
1652.647173571284
 20
1865.7467884174625
 42
-0.4142135623730951
 10
1660.647173571284
 20
1857.7467884174625
 10
1660.647173571284
 20
1854.7467884174625
 10
1580.647173571284
 20
1854.7467884174625
 10
1580.647173571284
 20
1857.7467884174625
 42
-0.4142135623730951
  0
LWPOLYLINE
  5
1A8
330
17
100
AcDbEntity
  8
0
 62
2
100
AcDbPolyline
 90
6
 70
1
 10
1588.647173571284
 20
1772.7467884174625
 10
1652.647173571284
 20
1772.7467884174625
 42
-0.4142135623730951
 10
1660.647173571284
 20
1764.7467884174625
 10
1660.647173571284
 20
1761.7467884174625
 10
1580.647173571284
 20
1761.7467884174625
 10
1580.647173571284
 20
1764.7467884174625
 42
-0.4142135623730951
  0
ENDSEC
  0
SECTION
  2
OBJECTS
  0
DICTIONARY
  5
A
330
0
100
AcDbDictionary
281
1
  3
ACAD_COLOR
350
B
  3
ACAD_GROUP
350
C
  3
ACAD_LAYOUT
350
D
  3
ACAD_MATERIAL
350
E
  3
ACAD_MLEADERSTYLE
350
F
  3
ACAD_MLINESTYLE
350
10
  3
ACAD_PLOTSETTINGS
350
11
  3
ACAD_PLOTSTYLENAME
350
12
  3
ACAD_SCALELIST
350
14
  3
ACAD_TABLESTYLE
350
15
  3
ACAD_VISUALSTYLE
350
16
  3
EZDXF_META
350
2D
  0
DICTIONARY
  5
B
330
A
100
AcDbDictionary
281
1
  0
DICTIONARY
  5
C
330
A
100
AcDbDictionary
281
1
  0
DICTIONARY
  5
D
330
A
100
AcDbDictionary
281
1
  3
Model
350
1A
  3
Layout1
350
1E
  0
DICTIONARY
  5
E
330
A
100
AcDbDictionary
281
1
  3
ByBlock
350
1F
  3
ByLayer
350
20
  3
Global
350
21
  0
DICTIONARY
  5
F
330
A
100
AcDbDictionary
281
1
  3
Standard
350
2C
  0
DICTIONARY
  5
10
330
A
100
AcDbDictionary
281
1
  3
Standard
350
22
  0
DICTIONARY
  5
11
330
A
100
AcDbDictionary
281
1
  0
ACDBDICTIONARYWDFLT
  5
12
330
A
100
AcDbDictionary
281
1
  3
Normal
350
13
100
AcDbDictionaryWithDefault
340
13
  0
ACDBPLACEHOLDER
  5
13
330
12
  0
DICTIONARY
  5
14
330
A
100
AcDbDictionary
281
1
  0
DICTIONARY
  5
15
330
A
100
AcDbDictionary
281
1
  0
DICTIONARY
  5
16
330
A
100
AcDbDictionary
281
1
  0
LAYOUT
  5
1A
330
D
100
AcDbPlotSettings
  1

  4
A3
  6

 40
7.5
 41
20.0
 42
7.5
 43
20.0
 44
420.0
 45
297.0
 46
0.0
 47
0.0
 48
0.0
 49
0.0
140
0.0
141
0.0
142
1.0
143
1.0
 70
1024
 72
1
 73
0
 74
5
  7

 75
16
 76
0
 77
2
 78
300
147
1.0
148
0.0
149
0.0
100
AcDbLayout
  1
Model
 70
1
 71
0
 10
0.0
 20
0.0
 11
420.0
 21
297.0
 12
0.0
 22
0.0
 32
0.0
 14
1e+20
 24
1e+20
 34
1e+20
 15
-1e+20
 25
-1e+20
 35
-1e+20
146
0.0
 13
0.0
 23
0.0
 33
0.0
 16
1.0
 26
0.0
 36
0.0
 17
0.0
 27
1.0
 37
0.0
 76
1
330
17
  0
LAYOUT
  5
1E
330
D
100
AcDbPlotSettings
  1

  4
A3
  6

 40
7.5
 41
20.0
 42
7.5
 43
20.0
 44
420.0
 45
297.0
 46
0.0
 47
0.0
 48
0.0
 49
0.0
140
0.0
141
0.0
142
1.0
143
1.0
 70
0
 72
1
 73
0
 74
5
  7

 75
16
 76
0
 77
2
 78
300
147
1.0
148
0.0
149
0.0
100
AcDbLayout
  1
Layout1
 70
1
 71
1
 10
0.0
 20
0.0
 11
420.0
 21
297.0
 12
0.0
 22
0.0
 32
0.0
 14
1e+20
 24
1e+20
 34
1e+20
 15
-1e+20
 25
-1e+20
 35
-1e+20
146
0.0
 13
0.0
 23
0.0
 33
0.0
 16
1.0
 26
0.0
 36
0.0
 17
0.0
 27
1.0
 37
0.0
 76
1
330
1B
  0
MATERIAL
  5
1F
102
{ACAD_REACTORS
330
E
102
}
330
E
100
AcDbMaterial
  1
ByBlock
  2

 70
0
 40
1.0
 71
1
 41
1.0
 91
-1023410177
 42
1.0
 72
1
  3

 73
1
 74
1
 75
1
 44
0.5
 73
0
 45
1.0
 46
1.0
 77
1
  4

 78
1
 79
1
170
1
 48
1.0
171
1
  6

172
1
173
1
174
1
140
1.0
141
1.0
175
1
  7

176
1
177
1
178
1
143
1.0
179
1
  8

270
1
271
1
272
1
145
1.0
146
1.0
273
1
  9

274
1
275
1
276
1
 42
1.0
 72
1
  3

 73
1
 74
1
 75
1
 94
63
  0
MATERIAL
  5
20
102
{ACAD_REACTORS
330
E
102
}
330
E
100
AcDbMaterial
  1
ByLayer
  2

 70
0
 40
1.0
 71
1
 41
1.0
 91
-1023410177
 42
1.0
 72
1
  3

 73
1
 74
1
 75
1
 44
0.5
 73
0
 45
1.0
 46
1.0
 77
1
  4

 78
1
 79
1
170
1
 48
1.0
171
1
  6

172
1
173
1
174
1
140
1.0
141
1.0
175
1
  7

176
1
177
1
178
1
143
1.0
179
1
  8

270
1
271
1
272
1
145
1.0
146
1.0
273
1
  9

274
1
275
1
276
1
 42
1.0
 72
1
  3

 73
1
 74
1
 75
1
 94
63
  0
MATERIAL
  5
21
102
{ACAD_REACTORS
330
E
102
}
330
E
100
AcDbMaterial
  1
Global
  2

 70
0
 40
1.0
 71
1
 41
1.0
 91
-1023410177
 42
1.0
 72
1
  3

 73
1
 74
1
 75
1
 44
0.5
 73
0
 45
1.0
 46
1.0
 77
1
  4

 78
1
 79
1
170
1
 48
1.0
171
1
  6

172
1
173
1
174
1
140
1.0
141
1.0
175
1
  7

176
1
177
1
178
1
143
1.0
179
1
  8

270
1
271
1
272
1
145
1.0
146
1.0
273
1
  9

274
1
275
1
276
1
 42
1.0
 72
1
  3

 73
1
 74
1
 75
1
 94
63
  0
MLINESTYLE
  5
22
102
{ACAD_REACTORS
330
10
102
}
330
10
100
AcDbMlineStyle
  2
Standard
 70
0
  3

 62
256
 51
90.0
 52
90.0
 71
2
 49
0.5
 62
256
  6
BYLAYER
 49
-0.5
 62
256
  6
BYLAYER
  0
MLEADERSTYLE
  5
2C
102
{ACAD_REACTORS
330
F
102
}
330
F
100
AcDbMLeaderStyle
179
2
170
2
171
1
172
0
 90
2
 40
0.0
 41
0.0
173
1
 91
-1056964608
 92
-2
290
1
 42
2.0
291
1
 43
8.0
  3
Standard
 44
4.0
300

342
29
174
1
175
1
176
0
178
1
 93
-1056964608
 45
4.0
292
0
297
0
 46
4.0
 94
-1056964608
 47
1.0
 49
1.0
140
1.0
294
1
141
0.0
177
0
142
1.0
295
0
296
0
143
3.75
271
0
272
9
273
9
  0
DICTIONARY
  5
2D
330
A
100
AcDbDictionary
280
1
281
1
  3
CREATED_BY_EZDXF
350
2E
  3
WRITTEN_BY_EZDXF
350
1E1
  0
DICTIONARYVAR
  5
2E
330
2D
100
DictionaryVariables
280
0
  1
1.4.4 @ 2026-09-24T06:32:05.052818+00:00
  0
DICTIONARYVAR
  5
1E1
330
2D
100
DictionaryVariables
280
0
  1
1.4.4 @ 2026-09-24T06:37:22.312171+00:00
  0
ENDSEC
  0
EOF
