  0
SECTION
  2
HEADER
  9
$ACADVER
  1
AC1032
  9
$ACADMAINTVER
 90
4
  9
$DWGCODEPAGE
  3
ANSI_1252
  9
$LASTSAVEDBY
  1
ezdxf
  9
$REQUIREDVERSIONS
160
0
  9
$INSBASE
 10
0.0
 20
0.0
 30
0.0
  9
$EXTMIN
 10
1e+20
 20
1e+20
 30
1e+20
  9
$EXTMAX
 10
-1e+20
 20
-1e+20
 30
-1e+20
  9
$LIMMIN
 10
0.0
 20
0.0
  9
$LIMMAX
 10
420.0
 20
297.0
  9
$ORTHOMODE
 70
0
  9
$REGENMODE
 70
1
  9
$FILLMODE
 70
1
  9
$QTEXTMODE
 70
0
  9
$MIRRTEXT
 70
1
  9
$LTSCALE
 40
1.0
  9
$ATTMODE
 70
1
  9
$TEXTSIZE
 40
2.5
  9
$TRACEWID
 40
1.0
  9
$TEXTSTYLE
  7
Standard
  9
$CLAYER
  8
0
  9
$CELTYPE
  6
ByLayer
  9
$CECOLOR
 62
256
  9
$CELTSCALE
 40
1.0
  9
$DISPSILH
 70
0
  9
$DIMSCALE
 40
1.0
  9
$DIMASZ
 40
2.5
  9
$DIMEXO
 40
0.625
  9
$DIMDLI
 40
3.75
  9
$DIMRND
 40
0.0
  9
$DIMDLE
 40
0.0
  9
$DIMEXE
 40
1.25
  9
$DIMTP
 40
0.0
  9
$DIMTM
 40
0.0
  9
$DIMTXT
 40
2.5
  9
$DIMCEN
 40
2.5
  9
$DIMTSZ
 40
0.0
  9
$DIMTOL
 70
0
  9
$DIMLIM
 70
0
  9
$DIMTIH
 70
0
  9
$DIMTOH
 70
0
  9
$DIMSE1
 70
0
  9
$DIMSE2
 70
0
  9
$DIMTAD
 70
1
  9
$DIMZIN
 70
8
  9
$DIMBLK
  1

  9
$DIMASO
 70
1
  9
$DIMSHO
 70
1
  9
$DIMPOST
  1

  9
$DIMAPOST
  1

  9
$DIMALT
 70
0
  9
$DIMALTD
 70
3
  9
$DIMALTF
 40
0.03937007874
  9
$DIMLFAC
 40
1.0
  9
$DIMTOFL
 70
1
  9
$DIMTVP
 40
0.0
  9
$DIMTIX
 70
0
  9
$DIMSOXD
 70
0
  9
$DIMSAH
 70
0
  9
$DIMBLK1
  1

  9
$DIMBLK2
  1

  9
$DIMSTYLE
  2
ISO-25
  9
$DIMCLRD
 70
0
  9
$DIMCLRE
 70
0
  9
$DIMCLRT
 70
0
  9
$DIMTFAC
 40
1.0
  9
$DIMGAP
 40
0.625
  9
$DIMJUST
 70
0
  9
$DIMSD1
 70
0
  9
$DIMSD2
 70
0
  9
$DIMTOLJ
 70
0
  9
$DIMTZIN
 70
8
  9
$DIMALTZ
 70
0
  9
$DIMALTTZ
 70
0
  9
$DIMUPT
 70
0
  9
$DIMDEC
 70
2
  9
$DIMTDEC
 70
2
  9
$DIMALTU
 70
2
  9
$DIMALTTD
 70
3
  9
$DIMTXSTY
  7
Standard
  9
$DIMAUNIT
 70
0
  9
$DIMADEC
 70
0
  9
$DIMALTRND
 40
0.0
  9
$DIMAZIN
 70
0
  9
$DIMDSEP
 70
44
  9
$DIMATFIT
 70
3
  9
$DIMFRAC
 70
0
  9
$DIMLDRBLK
  1

  9
$DIMLUNIT
 70
2
  9
$DIMLWD
 70
-2
  9
$DIMLWE
 70
-2
  9
$DIMTMOVE
 70
0
  9
$DIMFXL
 40
1.0
  9
$DIMFXLON
 70
0
  9
$DIMJOGANG
 40
0.785398163397
  9
$DIMTFILL
 70
0
  9
$DIMTFILLCLR
 70
0
  9
$DIMARCSYM
 70
0
  9
$DIMLTYPE
  6

  9
$DIMLTEX1
  6

  9
$DIMLTEX2
  6

  9
$DIMTXTDIRECTION
 70
0
  9
$LUNITS
 70
2
  9
$LUPREC
 70
4
  9
$SKETCHINC
 40
1.0
  9
$FILLETRAD
 40
10.0
  9
$AUNITS
 70
0
  9
$AUPREC
 70
2
  9
$MENU
  1
.
  9
$ELEVATION
 40
0.0
  9
$PELEVATION
 40
0.0
  9
$THICKNESS
 40
0.0
  9
$LIMCHECK
 70
0
  9
$CHAMFERA
 40
0.0
  9
$CHAMFERB
 40
0.0
  9
$CHAMFERC
 40
0.0
  9
$CHAMFERD
 40
0.0
  9
$SKPOLY
 70
0
  9
$TDCREATE
 40
2461308.567835648
  9
$TDUCREATE
 40
2458532.153996898
  9
$TDUPDATE
 40
2461308.567835648
  9
$TDUUPDATE
 40
2458532.1544311
  9
$TDINDWG
 40
0.0
  9
$TDUSRTIMER
 40
0.0
  9
$USRTIMER
 70
1
  9
$ANGBASE
 50
0.0
  9
$ANGDIR
 70
0
  9
$PDMODE
 70
0
  9
$PDSIZE
 40
0.0
  9
$PLINEWID
 40
0.0
  9
$SPLFRAME
 70
0
  9
$SPLINETYPE
 70
6
  9
$SPLINESEGS
 70
8
  9
$HANDSEED
  5
211
  9
$SURFTAB1
 70
6
  9
$SURFTAB2
 70
6
  9
$SURFTYPE
 70
6
  9
$SURFU
 70
6
  9
$SURFV
 70
6
  9
$UCSBASE
  2

  9
$UCSNAME
  2

  9
$UCSORG
 10
0.0
 20
0.0
 30
0.0
  9
$UCSXDIR
 10
1.0
 20
0.0
 30
0.0
  9
$UCSYDIR
 10
0.0
 20
1.0
 30
0.0
  9
$UCSORTHOREF
  2

  9
$UCSORTHOVIEW
 70
0
  9
$UCSORGTOP
 10
0.0
 20
0.0
 30
0.0
  9
$UCSORGBOTTOM
 10
0.0
 20
0.0
 30
0.0
  9
$UCSORGLEFT
 10
0.0
 20
0.0
 30
0.0
  9
$UCSORGRIGHT
 10
0.0
 20
0.0
 30
0.0
  9
$UCSORGFRONT
 10
0.0
 20
0.0
 30
0.0
  9
$UCSORGBACK
 10
0.0
 20
0.0
 30
0.0
  9
$PUCSBASE
  2

  9
$PUCSNAME
  2

  9
$PUCSORG
 10
0.0
 20
0.0
 30
0.0
  9
$PUCSXDIR
 10
1.0
 20
0.0
 30
0.0
  9
$PUCSYDIR
 10
0.0
 20
1.0
 30
0.0
  9
$PUCSORTHOREF
  2

  9
$PUCSORTHOVIEW
 70
0
  9
$PUCSORGTOP
 10
0.0
 20
0.0
 30
0.0
  9
$PUCSORGBOTTOM
 10
0.0
 20
0.0
 30
0.0
  9
$PUCSORGLEFT
 10
0.0
 20
0.0
 30
0.0
  9
$PUCSORGRIGHT
 10
0.0
 20
0.0
 30
0.0
  9
$PUCSORGFRONT
 10
0.0
 20
0.0
 30
0.0
  9
$PUCSORGBACK
 10
0.0
 20
0.0
 30
0.0
  9
$USERI1
 70
0
  9
$USERI2
 70
0
  9
$USERI3
 70
0
  9
$USERI4
 70
0
  9
$USERI5
 70
0
  9
$USERR1
 40
0.0
  9
$USERR2
 40
0.0
  9
$USERR3
 40
0.0
  9
$USERR4
 40
0.0
  9
$USERR5
 40
0.0
  9
$WORLDVIEW
 70
1
  9
$SHADEDGE
 70
3
  9
$SHADEDIF
 70
70
  9
$TILEMODE
 70
1
  9
$MAXACTVP
 70
64
  9
$PINSBASE
 10
0.0
 20
0.0
 30
0.0
  9
$PLIMCHECK
 70
0
  9
$PEXTMIN
 10
1e+20
 20
1e+20
 30
1e+20
  9
$PEXTMAX
 10
-1e+20
 20
-1e+20
 30
-1e+20
  9
$PLIMMIN
 10
0.0
 20
0.0
  9
$PLIMMAX
 10
420.0
 20
297.0
  9
$UNITMODE
 70
0
  9
$VISRETAIN
 70
1
  9
$PLINEGEN
 70
0
  9
$PSLTSCALE
 70
1
  9
$TREEDEPTH
 70
3020
  9
$CMLSTYLE
  2
Standard
  9
$CMLJUST
 70
0
  9
$CMLSCALE
 40
20.0
  9
$PROXYGRAPHICS
 70
1
  9
$MEASUREMENT
 70
1
  9
$CELWEIGHT
370
-1
  9
$ENDCAPS
280
0
  9
$JOINSTYLE
280
0
  9
$LWDISPLAY
290
0
  9
$INSUNITS
 70
4
  9
$HYPERLINKBASE
  1

  9
$STYLESHEET
  1

  9
$XEDIT
290
1
  9
$CEPSNTYPE
380
0
  9
$PSTYLEMODE
290
1
  9
$FINGERPRINTGUID
  2
{54906C4E-287A-4B0A-8378-CF7AF81697FB}
  9
$VERSIONGUID
  2
{77F9ECC4-0E6A-4D6C-BA6C-B6D337647D72}
  9
$EXTNAMES
290
1
  9
$PSVPSCALE
 40
0.0
  9
$OLESTARTUP
290
0
  9
$SORTENTS
280
127
  9
$INDEXCTL
280
0
  9
$HIDETEXT
280
1
  9
$XCLIPFRAME
280
1
  9
$HALOGAP
280
0
  9
$OBSCOLOR
 70
257
  9
$OBSLTYPE
280
0
  9
$INTERSECTIONDISPLAY
280
0
  9
$INTERSECTIONCOLOR
 70
257
  9
$DIMASSOC
280
2
  9
$PROJECTNAME
  1

  9
$CAMERADISPLAY
290
0
  9
$LENSLENGTH
 40
50.0
  9
$CAMERAHEIGHT
 40
0.0
  9
$STEPSPERSEC
 40
24.0
  9
$STEPSIZE
 40
100.0
  9
$3DDWFPREC
 40
2.0
  9
$PSOLWIDTH
 40
0.005
  9
$PSOLHEIGHT
 40
0.08
  9
$LOFTANG1
 40
1.570796326795
  9
$LOFTANG2
 40
1.570796326795
  9
$LOFTMAG1
 40
0.0
  9
$LOFTMAG2
 40
0.0
  9
$LOFTPARAM
 70
7
  9
$LOFTNORMALS
280
1
  9
$LATITUDE
 40
37.795
  9
$LONGITUDE
 40
-122.394
  9
$NORTHDIRECTION
 40
0.0
  9
$TIMEZONE
 70
-8000
  9
$LIGHTGLYPHDISPLAY
280
1
  9
$TILEMODELIGHTSYNCH
280
1
  9
$CMATERIAL
347
20
  9
$SOLIDHIST
280
0
  9
$SHOWHIST
280
1
  9
$DWFFRAME
280
2
  9
$DGNFRAME
280
2
  9
$REALWORLDSCALE
290
1
  9
$INTERFERECOLOR
 62
256
  9
$CSHADOW
280
0
  9
$SHADOWPLANELOCATION
 40
0.0
  0
ENDSEC
  0
SECTION
  2
CLASSES
  0
CLASS
  1
ACDBDICTIONARYWDFLT
  2
AcDbDictionaryWithDefault
  3
ObjectDBX Classes
 90
0
 91
0
280
0
281
0
  0
CLASS
  1
SUN
  2
AcDbSun
  3
SCENEOE
 90
1153
 91
0
280
0
281
0
  0
CLASS
  1
VISUALSTYLE
  2
AcDbVisualStyle
  3
ObjectDBX Classes
 90
4095
 91
0
280
0
281
0
  0
CLASS
  1
MATERIAL
  2
AcDbMaterial
  3
ObjectDBX Classes
 90
1153
 91
0
280
0
281
0
  0
CLASS
  1
SCALE
  2
AcDbScale
  3
ObjectDBX Classes
 90
1153
 91
0
280
0
281
0
  0
CLASS
  1
TABLESTYLE
  2
AcDbTableStyle
  3
ObjectDBX Classes
 90
4095
 91
0
280
0
281
0
  0
CLASS
  1
MLEADERSTYLE
  2
AcDbMLeaderStyle
  3
ACDB_MLEADERSTYLE_CLASS
 90
4095
 91
0
280
0
281
0
  0
CLASS
  1
DICTIONARYVAR
  2
AcDbDictionaryVar
  3
ObjectDBX Classes
 90
0
 91
0
280
0
281
0
  0
CLASS
  1
CELLSTYLEMAP
  2
AcDbCellStyleMap
  3
ObjectDBX Classes
 90
1152
 91
0
280
0
281
0
  0
CLASS
  1
MENTALRAYRENDERSETTINGS
  2
AcDbMentalRayRenderSettings
  3
SCENEOE
 90
1024
 91
0
280
0
281
0
  0
CLASS
  1
ACDBDETAILVIEWSTYLE
  2
AcDbDetailViewStyle
  3
ObjectDBX Classes
 90
1025
 91
0
280
0
281
0
  0
CLASS
  1
ACDBSECTIONVIEWSTYLE
  2
AcDbSectionViewStyle
  3
ObjectDBX Classes
 90
1025
 91
0
280
0
281
0
  0
CLASS
  1
RASTERVARIABLES
  2
AcDbRasterVariables
  3
ISM
 90
0
 91
0
280
0
281
0
  0
CLASS
  1
ACDBPLACEHOLDER
  2
AcDbPlaceHolder
  3
ObjectDBX Classes
 90
0
 91
0
280
0
281
0
  0
CLASS
  1
LAYOUT
  2
AcDbLayout
  3
ObjectDBX Classes
 90
0
 91
0
280
0
281
0
  0
ENDSEC
  0
SECTION
  2
TABLES
  0
TABLE
  2
VPORT
  5
8
330
0
100
AcDbSymbolTable
 70
1
  0
VPORT
  5
23
330
8
100
AcDbSymbolTableRecord
100
AcDbViewportTableRecord
  2
*Active
 70
0
 10
0.0
 20
0.0
 11
1.0
 21
1.0
 12
0.0
 22
0.0
 13
0.0
 23
0.0
 14
0.5
 24
0.5
 15
0.5
 25
0.5
 16
0.0
 26
0.0
 36
1.0
 17
0.0
 27
0.0
 37
0.0
 40
1000.0
 41
1.34
 42
50.0
 43
0.0
 44
0.0
 50
0.0
 51
0.0
 71
0
 72
1000
 73
1
 74
3
 75
0
 76
0
 77
0
 78
0
281
0
 65
0
146
0.0
  0
ENDTAB
  0
TABLE
  2
LTYPE
  5
2
330
0
100
AcDbSymbolTable
 70
5
  0
LTYPE
  5
24
330
2
100
AcDbSymbolTableRecord
100
AcDbLinetypeTableRecord
  2
ByBlock
 70
0
  3

 72
65
 73
0
 40
0.0
  0
LTYPE
  5
25
330
2
100
AcDbSymbolTableRecord
100
AcDbLinetypeTableRecord
  2
ByLayer
 70
0
  3

 72
65
 73
0
 40
0.0
  0
LTYPE
  5
26
330
2
100
AcDbSymbolTableRecord
100
AcDbLinetypeTableRecord
  2
Continuous
 70
0
  3

 72
65
 73
0
 40
0.0
  0
LTYPE
  5
180
330
2
100
AcDbSymbolTableRecord
100
AcDbLinetypeTableRecord
  2
HIDDEN2
 70
0
  3
Hidden (.5x) _ _ _ _ _ _ _ _ _ _ _ _ _ _ _ _ _
 72
65
 73
2
 40
4.762499999999998
 49
3.174999999999998
 74
0
 49
-1.587499999999999
 74
0
  0
LTYPE
  5
181
330
2
100
AcDbSymbolTableRecord
100
AcDbLinetypeTableRecord
  2
HIDDENX2
 70
0
  3
Hidden (2x) ____ ____ ____ ____ ____ ____ ____
 72
65
 73
2
 40
19.05
 49
12.7
 74
0
 49
-6.349999999999999
 74
0
  0
ENDTAB
  0
TABLE
  2
LAYER
  5
1
330
0
100
AcDbSymbolTable
 70
5
  0
LAYER
  5
27
330
1
100
AcDbSymbolTableRecord
100
AcDbLayerTableRecord
  2
0
 70
0
 62
7
  6
Continuous
370
-3
390
13
347
21
  0
LAYER
  5
28
330
1
100
AcDbSymbolTableRecord
100
AcDbLayerTableRecord
  2
Defpoints
 70
0
 62
7
  6
Continuous
290
0
370
-3
390
13
347
21
  0
LAYER
  5
17D
330
1
100
AcDbSymbolTableRecord
100
AcDbLayerTableRecord
  2
HEATER
 70
0
 62
1
  6
Continuous
370
-3
390
13
347
21
  0
LAYER
  5
17E
330
1
100
AcDbSymbolTableRecord
100
AcDbLayerTableRecord
  2
DIM
 70
0
 62
253
  6
Continuous
370
-3
390
13
347
21
  0
LAYER
  5
17F
330
1
100
AcDbSymbolTableRecord
100
AcDbLayerTableRecord
  2
CNC
 70
0
 62
7
  6
Continuous
370
-3
390
13
347
21
  0
ENDTAB
  0
TABLE
  2
STYLE
  5
5
330
0
100
AcDbSymbolTable
 70
3
  0
STYLE
  5
29
330
5
100
AcDbSymbolTableRecord
100
AcDbTextStyleTableRecord
  2
Standard
 70
0
 40
0.0
 41
1.0
 50
0.0
 71
0
 42
2.5
  3
txt
  4

  0
STYLE
  5
182
330
5
100
AcDbSymbolTableRecord
100
AcDbTextStyleTableRecord
  2
Tahoma (Input Text)
 70
0
 40
0.0
 41
1.0
 50
0.0
 71
0
 42
25.0
  3
tahoma.ttf
  4

  0
STYLE
  5
183
330
5
100
AcDbSymbolTableRecord
100
AcDbTextStyleTableRecord
  2
Arial
 70
0
 40
0.0
 41
1.0
 50
0.0
 71
0
 42
0.2
  3
arial.ttf
  4

  0
ENDTAB
  0
TABLE
  2
VIEW
  5
7
330
0
100
AcDbSymbolTable
 70
0
  0
ENDTAB
  0
TABLE
  2
UCS
  5
6
330
0
100
AcDbSymbolTable
 70
0
  0
ENDTAB
  0
TABLE
  2
APPID
  5
3
330
0
100
AcDbSymbolTable
 70
3
  0
APPID
  5
2A
330
3
100
AcDbSymbolTableRecord
100
AcDbRegAppTableRecord
  2
ACAD
 70
0
  0
APPID
  5
184
330
3
100
AcDbSymbolTableRecord
100
AcDbRegAppTableRecord
  2
HATCHBACKGROUNDCOLOR
 70
0
  0
APPID
  5
185
330
3
100
AcDbSymbolTableRecord
100
AcDbRegAppTableRecord
  2
EZDXF
 70
0
  0
ENDTAB
  0
TABLE
  2
DIMSTYLE
  5
4
330
0
100
AcDbSymbolTable
 70
2
100
AcDbDimStyleTable
  0
DIMSTYLE
105
2B
330
4
100
AcDbSymbolTableRecord
100
AcDbDimStyleTableRecord
  2
Standard
 70
0
 40
1.0
 41
2.5
 42
0.625
 43
3.75
 44
1.25
 45
0.0
 46
0.0
 47
0.0
 48
0.0
 49
2.5
140
2.5
141
2.5
142
0.0
143
0.03937007874
144
1.0
145
0.0
146
1.0
147
0.625
148
0.0
 69
0
 70
0
 71
0
 72
0
 73
0
 74
0
 75
0
 76
0
 77
1
 78
8
 79
3
170
0
171
3
172
1
173
0
174
0
175
0
176
0
177
0
178
0
179
2
271
2
272
2
273
2
274
3
275
0
276
0
277
2
278
44
279
0
280
0
281
0
282
0
283
0
284
8
285
0
286
0
288
0
289
3
290
0
371
-2
372
-2
  0
DIMSTYLE
105
17C
330
4
100
AcDbSymbolTableRecord
100
AcDbDimStyleTableRecord
  2
Dim-25
 70
0
 40
1.0
 41
8.0
 42
15.0
 43
3.75
 44
10.0
 45
0.0
 46
0.0
 47
0.0
 48
0.0
 49
2.5
140
25.0
141
10.0
142
0.0
143
0.03937007874016
144
1.0
145
0.0
146
1.0
147
10.0
148
0.0
 69
0
 70
0
 71
0
 72
0
 73
0
 74
0
 75
0
 76
0
 77
1
 78
8
 79
3
170
0
171
3
172
1
173
0
174
0
175
0
176
5
177
5
178
3
179
2
271
0
272
0
273
2
274
3
275
0
276
0
277
2
278
44
279
0
280
0
281
0
282
0
283
0
284
8
285
0
286
0
288
0
289
3
290
0
340
29
341
56
342
56
345
25
346
25
347
25
371
9
372
9
  0
ENDTAB
  0
TABLE
  2
BLOCK_RECORD
  5
9
330
0
100
AcDbSymbolTable
 70
23
  0
BLOCK_RECORD
  5
17
330
9
100
AcDbSymbolTableRecord
100
AcDbBlockTableRecord
  2
*Model_Space
340
1A
 70
0
280
1
281
0
  0
BLOCK_RECORD
  5
1B
330
9
100
AcDbSymbolTableRecord
100
AcDbBlockTableRecord
  2
*Paper_Space
340
1E
 70
0
280
1
281
0
  0
BLOCK_RECORD
  5
56
330
9
100
AcDbSymbolTableRecord
100
AcDbBlockTableRecord
  2
_Oblique
340
0
 70
0
280
1
281
0
  0
BLOCK_RECORD
  5
C0
330
9
100
AcDbSymbolTableRecord
100
AcDbBlockTableRecord
  2
khungtenAsean2
340
0
 70
0
280
1
281
0
  0
BLOCK_RECORD
  5
E4
330
9
100
AcDbSymbolTableRecord
100
AcDbBlockTableRecord
  2
Tai treo 2
340
0
 70
0
280
1
281
0
  0
BLOCK_RECORD
  5
ED
330
9
100
AcDbSymbolTableRecord
100
AcDbBlockTableRecord
  2
HL044-1.3-C
340
0
 70
0
280
1
281
0
  0
BLOCK_RECORD
  5
FD
330
9
100
AcDbSymbolTableRecord
100
AcDbBlockTableRecord
  2
AB301-2-1
340
0
 70
0
280
1
281
0
  0
BLOCK_RECORD
  5
110
330
9
100
AcDbSymbolTableRecord
100
AcDbBlockTableRecord
  2
MS722
340
0
 70
0
280
1
281
0
  0
BLOCK_RECORD
  5
117
330
9
100
AcDbSymbolTableRecord
100
AcDbBlockTableRecord
  2
HL003-2-3
340
0
 70
0
280
1
281
0
  0
BLOCK_RECORD
  5
12C
330
9
100
AcDbSymbolTableRecord
100
AcDbBlockTableRecord
  2
HL044-1.3-B
340
0
 70
0
280
1
281
0
  0
BLOCK_RECORD
  5
14B
330
9
100
AcDbSymbolTableRecord
100
AcDbBlockTableRecord
  2
HL003-2-2
340
0
 70
0
280
1
281
0
  0
BLOCK_RECORD
  5
155
330
9
100
AcDbSymbolTableRecord
100
AcDbBlockTableRecord
  2
ovan8.5x20
340
0
 70
0
280
1
281
0
  0
BLOCK_RECORD
  5
15C
330
9
100
AcDbSymbolTableRecord
100
AcDbBlockTableRecord
  2
SDGFGHGHG
340
0
 70
0
280
1
281
0
  0
BLOCK_RECORD
  5
171
330
9
100
AcDbSymbolTableRecord
100
AcDbBlockTableRecord
  2
SĐFHGGH
340
0
 70
0
280
1
281
0
  0
BLOCK_RECORD
  5
1A3
330
9
100
AcDbSymbolTableRecord
100
AcDbBlockTableRecord
  2
*D1
340
0
 70
0
280
1
281
0
  0
BLOCK_RECORD
  5
1AF
330
9
100
AcDbSymbolTableRecord
100
AcDbBlockTableRecord
  2
*D2
340
0
 70
0
280
1
281
0
  0
BLOCK_RECORD
  5
1BB
330
9
100
AcDbSymbolTableRecord
100
AcDbBlockTableRecord
  2
*D3
340
0
 70
0
280
1
281
0
  0
BLOCK_RECORD
  5
1C7
330
9
100
AcDbSymbolTableRecord
100
AcDbBlockTableRecord
  2
*D4
340
0
 70
0
280
1
281
0
  0
BLOCK_RECORD
  5
1D4
330
9
100
AcDbSymbolTableRecord
100
AcDbBlockTableRecord
  2
*D5
340
0
 70
0
280
1
281
0
  0
BLOCK_RECORD
  5
1E0
330
9
100
AcDbSymbolTableRecord
100
AcDbBlockTableRecord
  2
*D6
340
0
 70
0
280
1
281
0
  0
BLOCK_RECORD
  5
1ED
330
9
100
AcDbSymbolTableRecord
100
AcDbBlockTableRecord
  2
*D7
340
0
 70
0
280
1
281
0
  0
BLOCK_RECORD
  5
1F9
330
9
100
AcDbSymbolTableRecord
100
AcDbBlockTableRecord
  2
*D8
340
0
 70
0
280
1
281
0
  0
BLOCK_RECORD
  5
205
330
9
100
AcDbSymbolTableRecord
100
AcDbBlockTableRecord
  2
*D9
340
0
 70
0
280
1
281
0
  0
ENDTAB
  0
ENDSEC
  0
SECTION
  2
BLOCKS
  0
BLOCK
  5
18
330
17
100
AcDbEntity
  8
0
100
AcDbBlockBegin
  2
*Model_Space
 70
0
 10
0.0
 20
0.0
 30
0.0
  3
*Model_Space
  1

  0
ENDBLK
  5
19
330
17
100
AcDbEntity
  8
0
100
AcDbBlockEnd
  0
BLOCK
  5
1C
330
1B
100
AcDbEntity
  8
0
100
AcDbBlockBegin
  2
*Paper_Space
 70
0
 10
0.0
 20
0.0
 30
0.0
  3
*Paper_Space
  1

  0
ENDBLK
  5
1D
330
1B
100
AcDbEntity
  8
0
100
AcDbBlockEnd
  0
BLOCK
  5
57
330
56
100
AcDbEntity
  8
0
100
AcDbBlockBegin
  2
_Oblique
 70
0
 10
0.0
 20
0.0
 30
0.0
  3
_Oblique
  1

  0
LINE
  5
59
330
56
100
AcDbEntity
  8
0
  6
ByBlock
 62
0
370
-2
100
AcDbLine
 10
-0.5
 20
-0.5
 30
0.0
 11
0.5
 21
0.5
 31
0.0
  0
ENDBLK
  5
58
330
56
100
AcDbEntity
  8
0
100
AcDbBlockEnd
  0
BLOCK
  5
C1
330
C0
100
AcDbEntity
  8
0
100
AcDbBlockBegin
  2
khungtenAsean2
 70
2
 10
0.0
 20
0.0
 30
0.0
  3
khungtenAsean2
  1

  0
LWPOLYLINE
  5
C3
330
C0
100
AcDbEntity
  8
0
 62
7
100
AcDbPolyline
 90
4
 70
1
 10
0.0
 20
0.0
 10
2970.000000000422
 20
0.0
 10
2970.000000000422
 20
-2100.00000000032
 10
0.0
 20
-2100.00000000032
  0
LINE
  5
C4
330
C0
100
AcDbEntity
  8
0
 62
7
100
AcDbLine
 10
2020.0
 20
-2040.00000000032
 30
0.0
 11
0.0
 21
-2040.00000000032
 31
0.0
  0
LINE
  5
C5
330
C0
100
AcDbEntity
  8
0
 62
7
100
AcDbLine
 10
2970.000000000422
 20
-1980.00000000032
 30
0.0
 11
0.0
 21
-1980.00000000032
 31
0.0
  0
LINE
  5
C6
330
C0
100
AcDbEntity
  8
0
 62
7
100
AcDbLine
 10
320.0
 20
-1980.00000000032
 30
0.0
 11
320.0
 21
-2100.00000000032
 31
0.0
  0
LINE
  5
C7
330
C0
100
AcDbEntity
  8
0
 62
7
100
AcDbLine
 10
890.0
 20
-1980.00000000032
 30
0.0
 11
890.0
 21
-2100.00000000032
 31
0.0
  0
LINE
  5
C8
330
C0
100
AcDbEntity
  8
0
 62
7
100
AcDbLine
 10
1680.0
 20
-1980.00000000032
 30
0.0
 11
1680.0
 21
-2100.00000000032
 31
0.0
  0
LINE
  5
C9
330
C0
100
AcDbEntity
  8
0
 62
7
100
AcDbLine
 10
2020.0
 20
-1980.00000000032
 30
0.0
 11
2020.0
 21
-2100.00000000032
 31
0.0
  0
LINE
  5
CA
330
C0
100
AcDbEntity
  8
0
 62
7
100
AcDbLine
 10
2860.000000000422
 20
-1980.00000000032
 30
0.0
 11
2860.000000000422
 21
-2100.00000000032
 31
0.0
  0
MTEXT
  5
CB
330
C0
100
AcDbEntity
  8
0
 62
2
100
AcDbMText
 10
0.0
 20
-2010.00000000032
 30
0.0
 40
20.0
 41
917.6339389950801
 46
60.00000000000113
 71
4
 72
5
  1
  Thiết kế :
  7
Arial
  0
MTEXT
  5
CC
330
C0
100
AcDbEntity
  8
0
 62
2
100
AcDbMText
 10
0.0
 20
-2070.00000000032
 30
0.0
 40
20.0
 41
917.6339389950801
 46
60.00000000000113
 71
4
 72
5
  1
  CNC :
  7
Arial
  0
MTEXT
  5
CD
330
C0
100
AcDbEntity
  8
0
 62
2
100
AcDbMText
 10
320.0
 20
-2010.00000000032
 30
0.0
 40
20.0
 41
917.6339389950801
 46
60.00000000000113
 71
4
 72
5
  1
  Khách hàng :
  7
Arial
  0
MTEXT
  5
CE
330
C0
100
AcDbEntity
  8
0
 62
2
100
AcDbMText
 10
320.0
 20
-2070.00000000032
 30
0.0
 40
20.0
 41
917.6339389950801
 46
60.00000000000113
 71
4
 72
5
  1
  Giao hàng :
  7
Arial
  0
MTEXT
  5
CF
330
C0
100
AcDbEntity
  8
0
 62
2
100
AcDbMText
 10
890.0
 20
-2010.00000000032
 30
0.0
 40
20.0
 41
917.6339389950801
 46
60.00000000000113
 71
4
 72
5
  1
  Tên sản phẩm :
  7
Arial
  0
MTEXT
  5
D0
330
C0
100
AcDbEntity
  8
0
 62
2
100
AcDbMText
 10
890.0
 20
-2070.00000000032
 30
0.0
 40
20.0
 41
917.6339389950801
 46
60.00000000000113
 71
4
 72
5
  1
  Kích thước :
  7
Arial
  0
MTEXT
  5
D1
330
C0
100
AcDbEntity
  8
0
 62
2
100
AcDbMText
 10
1680.0
 20
-2010.00000000032
 30
0.0
 40
20.0
 41
917.6339389950801
 46
60.00000000000113
 71
4
 72
5
  1
  Số lượng :
  7
Arial
  0
MTEXT
  5
D2
330
C0
100
AcDbEntity
  8
0
 62
2
100
AcDbMText
 10
1680.0
 20
-2070.00000000032
 30
0.0
 40
20.0
 41
917.6339389950801
 46
60.00000000000113
 71
4
 72
5
  1
  Loại tôn :
  7
Arial
  0
MTEXT
  5
D3
330
C0
100
AcDbEntity
  8
0
 62
2
100
AcDbMText
 10
2074.15528161102
 20
-2040.00000000032
 30
0.0
 40
20.0
 41
108.3105632220314
 46
120.0000000000011
 71
5
 72
5
  1
Thông\Ptin :
  7
Arial
  0
MTEXT
  5
D4
330
C0
100
AcDbEntity
  8
0
 62
2
100
AcDbMText
 10
2915.000000000422
 20
-2010.00000000032
 30
0.0
 40
20.0
 41
110.0000000000065
 46
60.00000000000113
 71
5
 72
5
  1
Tờ
  7
Arial
  0
LINE
  5
D5
330
C0
100
AcDbEntity
  8
0
 62
7
100
AcDbLine
 10
2128.310563222025
 20
-2005.00000000032
 30
0.0
 11
2128.310563222025
 21
-2075.00000000032
 31
0.0
  0
MTEXT
  5
D6
330
C0
100
AcDbEntity
  8
0
 62
2
100
AcDbMText
 10
1382.285678836575
 20
-2070.00000000032
 30
0.0
 40
20.0
 41
917.6339389950801
 46
60.00000000000113
 71
4
 72
5
  1
mm
  7
Arial
  0
MTEXT
  5
D7
330
C0
100
AcDbEntity
  8
0
 62
2
100
AcDbMText
 10
1947.610064813329
 20
-2010.00000000032
 30
0.0
 40
20.0
 41
917.6339389950801
 46
60.00000000000113
 71
4
 72
5
  1
cái
  7
Arial
  0
MTEXT
  5
D8
330
C0
100
AcDbEntity
  8
0
 62
2
100
AcDbMText
 10
1936.880410494836
 20
-2070.00000000032
 30
0.0
 40
20.0
 41
917.6339389950801
 46
60.00000000000113
 71
4
 72
5
  1
mm
  7
Arial
  0
ATTDEF
  5
D9
330
C0
100
AcDbEntity
  8
0
 62
1
100
AcDbText
 10
2883.764212945627
 20
-2067.347800104843
 30
0.0
 40
25.0
  1
......
  7
Tahoma (Input Text)
 72
1
 11
2914.993225705868
 21
-2067.347800104843
 31
0.0
100
AcDbAttributeDefinition
  3
Số trang
  2
#11
 70
8
 71
1
 72
0
 11
2914.993225705868
 21
-2067.347800104843
 31
0.0
  0
ATTDEF
  5
DA
330
C0
100
AcDbEntity
  8
0
 62
1
100
AcDbText
 10
2146.716977487464
 20
-2021.275211692002
 30
0.0
 40
25.0
  1
......
  7
Tahoma (Input Text)
100
AcDbAttributeDefinition
  3
Thông tin 1
  2
#09
 70
8
 71
1
 72
0
  0
ATTDEF
  5
DB
330
C0
100
AcDbEntity
  8
0
 62
1
100
AcDbText
 10
2146.716977487464
 20
-2081.275211692002
 30
0.0
 40
25.0
  1
......
  7
Tahoma (Input Text)
100
AcDbAttributeDefinition
  3
Thông tin 2
  2
#10
 70
8
 71
1
 72
0
  0
ATTDEF
  5
DC
330
C0
100
AcDbEntity
  8
0
 62
1
100
AcDbText
 10
1817.447765733334
 20
-2081.275211692002
 30
0.0
 40
25.0
  1
......
  7
Tahoma (Input Text)
100
AcDbAttributeDefinition
  3
Loại tôn
  2
#08
 70
8
 71
1
 72
0
  0
ATTDEF
  5
DD
330
C0
100
AcDbEntity
  8
0
 62
1
100
AcDbText
 10
1834.68151032555
 20
-2021.275211692002
 30
0.0
 40
25.0
  1
......
  7
Tahoma (Input Text)
100
AcDbAttributeDefinition
  3
Số lượng
  2
#07
 70
8
 71
1
 72
0
  0
ATTDEF
  5
DE
330
C0
100
AcDbEntity
  8
0
 62
1
100
AcDbText
 10
1065.330889143646
 20
-2081.275211692002
 30
0.0
 40
25.0
  1
......
  7
Tahoma (Input Text)
100
AcDbAttributeDefinition
  3
Kích thước
  2
#06
 70
8
 71
1
 72
0
  0
ATTDEF
  5
DF
330
C0
100
AcDbEntity
  8
0
 62
1
100
AcDbText
 10
1106.628177122154
 20
-2021.275211692002
 30
0.0
 40
25.0
  1
......
  7
Tahoma (Input Text)
100
AcDbAttributeDefinition
  3
Tên s.phẩm
  2
#05
 70
8
 71
1
 72
0
  0
ATTDEF
  5
E0
330
C0
100
AcDbEntity
  8
0
 62
1
100
AcDbText
 10
486.1050270054984
 20
-2081.275211692002
 30
0.0
 40
25.0
  1
......
  7
Tahoma (Input Text)
100
AcDbAttributeDefinition
  3
Giao hàng
  2
#04
 70
8
 71
1
 72
0
  0
ATTDEF
  5
E1
330
C0
100
AcDbEntity
  8
0
 62
1
100
AcDbText
 10
506.5707489467022
 20
-2019.301600489707
 30
0.0
 40
25.0
  1
......
  7
Tahoma (Input Text)
100
AcDbAttributeDefinition
  3
Khách hàng
  2
#03
 70
8
 71
1
 72
0
  0
ATTDEF
  5
E2
330
C0
100
AcDbEntity
  8
0
 62
1
100
AcDbText
 10
98.45672450316488
 20
-2081.275211692002
 30
0.0
 40
25.0
  1
......
  7
Tahoma (Input Text)
100
AcDbAttributeDefinition
  3
CNC
  2
#02
 70
8
 71
1
 72
0
  0
ATTDEF
  5
E3
330
C0
100
AcDbEntity
  8
0
 62
1
100
AcDbText
 10
137.0535078375105
 20
-2021.275211692002
 30
0.0
 40
25.0
  1
......
  7
Tahoma (Input Text)
100
AcDbAttributeDefinition
  3
Thiết kế
  2
#01
 70
8
 71
1
 72
0
  0
ENDBLK
  5
C2
330
C0
100
AcDbEntity
  8
0
100
AcDbBlockEnd
  0
BLOCK
  5
E5
330
E4
100
AcDbEntity
  8
0
100
AcDbBlockBegin
  2
Tai treo 2
 70
0
 10
0.0
 20
0.0
 30
0.0
  3
Tai treo 2
  1

  0
LWPOLYLINE
  5
E7
330
E4
100
AcDbEntity
  8
0
 62
8
100
AcDbPolyline
 90
4
 70
0
 10
0.0
 20
0.0
 10
50.0
 20
0.0
 10
50.0
 20
50.0
 10
0.0
 20
50.0
  0
ARC
  5
E8
330
E4
100
AcDbEntity
  8
0
 62
2
100
AcDbCircle
 10
30.0
 20
25.0
 30
0.0
 40
5.0
100
AcDbArc
 50
270.0
 51
90.0
  0
ARC
  5
E9
330
E4
100
AcDbEntity
  8
0
 62
2
100
AcDbCircle
 10
20.0
 20
25.0
 30
0.0
 40
5.0
100
AcDbArc
 50
90.0
 51
270.0
  0
LINE
  5
EA
330
E4
100
AcDbEntity
  8
0
 62
2
100
AcDbLine
 10
20.0
 20
20.0
 30
0.0
 11
30.0
 21
20.0
 31
0.0
  0
LINE
  5
EB
330
E4
100
AcDbEntity
  8
0
 62
2
100
AcDbLine
 10
20.0
 20
30.0
 30
0.0
 11
30.0
 21
30.0
 31
0.0
  0
LINE
  5
EC
330
E4
100
AcDbEntity
  8
0
 62
8
100
AcDbLine
 10
0.0
 20
0.0
 30
0.0
 11
0.0
 21
50.0
 31
0.0
  0
ENDBLK
  5
E6
330
E4
100
AcDbEntity
  8
0
100
AcDbBlockEnd
  0
BLOCK
  5
EE
330
ED
100
AcDbEntity
  8
0
100
AcDbBlockBegin
  2
HL044-1.3-C
 70
0
 10
0.0
 20
0.0
 30
0.0
  3
HL044-1.3-C
  1

  0
LWPOLYLINE
  5
F0
330
ED
100
AcDbEntity
  8
0
 62
1
100
AcDbPolyline
 90
4
 70
1
 10
-46.0
 20
40.0
 10
0.0
 20
40.0
 10
0.0
 20
0.0
 10
-46.0
 20
0.0
  0
LINE
  5
F1
330
ED
100
AcDbEntity
  8
0
 62
1
100
AcDbLine
 10
-12.0
 20
29.0
 30
0.0
 11
0.0
 21
29.0
 31
0.0
  0
LINE
  5
F2
330
ED
100
AcDbEntity
  8
0
 62
1
100
AcDbLine
 10
-11.0
 20
28.50000000000728
 30
0.0
 11
0.0
 21
28.5
 31
0.0
  0
LINE
  5
F3
330
ED
100
AcDbEntity
  8
0
 62
1
100
AcDbLine
 10
0.0
 20
11.0
 30
0.0
 11
-12.0
 21
11.0
 31
0.0
  0
LINE
  5
F4
330
ED
100
AcDbEntity
  8
0
 62
1
100
AcDbLine
 10
0.0
 20
11.5
 30
0.0
 11
-11.0
 21
11.50000000000727
 31
0.0
  0
LINE
  5
F5
330
ED
100
AcDbEntity
  8
0
 62
1
100
AcDbLine
 10
-12.0
 20
11.0
 30
0.0
 11
-12.0
 21
29.0
 31
0.0
  0
CIRCLE
  5
F6
330
ED
100
AcDbEntity
  8
0
  6
HIDDEN2
 62
1
 48
0.5
100
AcDbCircle
 10
-25.0
 20
14.0
 30
0.0
 40
4.0
  0
CIRCLE
  5
F7
330
ED
100
AcDbEntity
  8
0
  6
HIDDEN2
 62
1
 48
0.5
100
AcDbCircle
 10
-25.0
 20
26.0
 30
0.0
 40
4.0
  0
CIRCLE
  5
F8
330
ED
100
AcDbEntity
  8
0
  6
HIDDEN2
 62
1
 48
0.5
100
AcDbCircle
 10
-15.5
 20
32.5
 30
0.0
 40
3.0
  0
CIRCLE
  5
F9
330
ED
100
AcDbEntity
  8
0
  6
HIDDEN2
 62
1
 48
0.5
100
AcDbCircle
 10
-15.5
 20
7.500000000007275
 30
0.0
 40
3.0
  0
LINE
  5
FA
330
ED
100
AcDbEntity
  8
0
  6
HIDDEN2
 62
1
 48
0.5
100
AcDbLine
 10
-25.0
 20
40.0
 30
0.0
 11
-25.0
 21
0.0
 31
0.0
  0
LINE
  5
FB
330
ED
100
AcDbEntity
  8
0
  6
HIDDEN2
 62
1
 48
0.5
100
AcDbLine
 10
-3.0
 20
7.276e-12
 30
0.0
 11
-3.0
 21
40.0
 31
0.0
  0
LINE
  5
FC
330
ED
100
AcDbEntity
  8
0
 62
1
100
AcDbLine
 10
-11.0
 20
28.5
 30
0.0
 11
-11.0
 21
11.5
 31
0.0
  0
ENDBLK
  5
EF
330
ED
100
AcDbEntity
  8
0
100
AcDbBlockEnd
  0
BLOCK
  5
FE
330
FD
100
AcDbEntity
  8
0
100
AcDbBlockBegin
  2
AB301-2-1
 70
0
 10
0.0
 20
0.0
 30
0.0
  3
AB301-2-1
  1

  0
LWPOLYLINE
  5
100
330
FD
100
AcDbEntity
  8
0
  6
Continuous
 62
1
100
AcDbPolyline
 90
8
 70
1
 10
-1.45519e-11
 20
25.00000000000728
 10
-1.45519e-11
 20
25.00000000000728
 42
-0.4142135623730951
 10
14.99999999998545
 20
10.00000000000727
 10
14.99999999998545
 20
-80.49999999999272
 42
-0.4142135623730951
 10
-1.45519e-11
 20
-95.49999999999272
 10
-1.45519e-11
 20
-95.49999999999272
 42
-0.4142135623730951
 10
-15.00000000001455
 20
-80.49999999999272
 10
-15.00000000001455
 20
10.00000000000727
 42
-0.4142135623730951
  0
LWPOLYLINE
  5
101
330
FD
100
AcDbEntity
  8
0
  6
Continuous
 62
1
100
AcDbPolyline
 90
6
 70
1
 10
-1.45519e-11
 20
10.00000000000727
 42
-0.4142135623730951
 10
9.999999999985448
 20
7.276e-12
 10
9.999999999985448
 20
-80.49999999999272
 42
-0.4142135623730951
 10
-1.45519e-11
 20
-90.49999999999272
 42
-0.4142135623730951
 10
-10.00000000001455
 20
-80.49999999999272
 10
-10.00000000001455
 20
7.276e-12
 42
-0.4142135623730951
  0
HATCH
  5
102
330
FD
100
AcDbEntity
  8
0
  6
Continuous
 62
1
100
AcDbHatch
 10
0.0
 20
0.0
 30
0.0
210
0.0
220
0.0
230
1.0
  2
ACAD_ISO09W100
 70
0
 71
0
 91
1
 92
7
 72
1
 73
1
 93
5
 10
-4.08737554690669
 20
-88.5183141082494
 42
0.1184039893890922
 10
-1.45519e-11
 20
-89.49999999999272
 42
0.1184039893890922
 10
4.087375546877586
 20
-88.5183141082494
 42
0.0
 10
6.999999999985446
 20
-71.99999999999272
 42
0.0
 10
-7.000000000014551
 20
-71.99999999999272
 42
0.0
 97
0
 75
1
 76
1
 52
0.0
 41
0.2
 77
0
 78
1
 53
0.0
 43
-368.0181415297993
 44
398.3813967279711
 45
0.0
 46
1.0
 79
6
 49
4.799999999999998
 49
-0.6000000000000001
 49
1.199999999999999
 49
-0.6000000000000001
 49
1.199999999999999
 49
-0.6000000000000001
 47
0.1010447066433967
 98
1
 10
-1.464316444500582
 20
-79.25328255711065
  0
LWPOLYLINE
  5
103
330
FD
100
AcDbEntity
  8
0
  6
Continuous
 62
1
100
AcDbPolyline
 90
7
 70
1
 10
8.999999999985448
 20
-72.49999999999272
 10
8.999999999985448
 20
-80.49999999999272
 42
-0.4142135623730951
 10
-1.45519e-11
 20
-89.49999999999272
 42
-0.4142135623730951
 10
-9.00000000001455
 20
-80.49999999999272
 10
-9.00000000001455
 20
-72.49999999999272
 42
-0.4142135623730951
 10
-7.000000000014551
 20
-70.49999999999272
 10
6.999999999985448
 20
-70.49999999999272
 42
-0.4142135623730951
  0
LINE
  5
104
330
FD
100
AcDbEntity
  8
0
  6
Continuous
 62
1
100
AcDbLine
 10
-10.00000000001455
 20
-50.49999999999272
 30
0.0
 11
9.999999999985448
 21
-50.49999999999272
 31
0.0
  0
LINE
  5
105
330
FD
100
AcDbEntity
  8
0
  6
Continuous
 62
1
100
AcDbLine
 10
-7.000000000014551
 20
-71.99999999999272
 30
0.0
 11
6.999999999985448
 21
-71.99999999999272
 31
0.0
  0
LINE
  5
106
330
FD
100
AcDbEntity
  8
0
  6
Continuous
 62
1
100
AcDbLine
 10
-7.000000000014551
 20
-71.99999999999272
 30
0.0
 11
-4.087375546907423
 21
-88.51831410824525
 31
0.0
  0
LINE
  5
107
330
FD
100
AcDbEntity
  8
0
  6
Continuous
 62
1
100
AcDbLine
 10
6.999999999985448
 20
-71.99999999999272
 30
0.0
 11
4.08737554687832
 21
-88.51831410824525
 31
0.0
  0
CIRCLE
  5
108
330
FD
100
AcDbEntity
  8
0
  6
Continuous
 62
1
100
AcDbCircle
 10
-1.45519e-11
 20
-60.49999999999272
 30
0.0
 40
8.0
  0
LWPOLYLINE
  5
109
330
FD
100
AcDbEntity
  8
0
  6
Continuous
 62
1
100
AcDbPolyline
 90
4
 70
1
 10
-1.000000000014551
 20
-55.49999999999272
 10
0.999999999985448
 20
-55.49999999999272
 10
0.999999999985448
 20
-65.49999999999272
 10
-1.000000000014551
 20
-65.49999999999272
  0
LWPOLYLINE
  5
10A
330
FD
100
AcDbEntity
  8
0
  6
Continuous
 62
1
100
AcDbPolyline
 90
8
 70
0
 10
-15.00000000001455
 20
-12.49999999999272
 10
-57.50000000001455
 20
-12.49999999999272
 42
-0.4142135623730951
 10
-65.00000000001455
 20
-4.999999999992724
 10
-65.00000000001455
 20
5.000000000007275
 42
-0.4142135623730951
 10
-57.50000000001455
 20
12.50000000000727
 10
-30.73832970146032
 20
12.50000000000727
 42
0.4142135623730951
 10
-24.73832970146032
 20
18.50000000000727
 10
-24.73832970146032
 20
18.73832970144576
  0
LWPOLYLINE
  5
10B
330
FD
100
AcDbEntity
  8
0
  6
Continuous
 62
1
100
AcDbPolyline
 90
5
 70
0
 10
-24.73832970146032
 20
18.73832970144576
 42
-0.1989123673796609
 10
-22.98097038858395
 20
22.98097038856941
 10
-22.98097038858395
 20
22.98097038856941
 42
-0.4142135623730951
 10
-14.49568901433667
 20
22.98097038856941
 10
-11.33688703729422
 20
19.82216841151967
  0
LWPOLYLINE
  5
10C
330
FD
100
AcDbEntity
  8
0
  6
Continuous
 62
1
100
AcDbPolyline
 90
5
 70
0
 10
14.99999999998545
 20
-6.51471862575272
 10
22.98097038855485
 20
-14.49568901431485
 42
-0.4142135623730951
 10
22.98097038855485
 20
-22.98097038855485
 10
22.98097038855485
 20
-22.98097038855485
 42
-0.381560762960909
 10
14.99999999998545
 20
-23.43139810529828
 42
-0.381560762960909
  0
LWPOLYLINE
  5
10D
330
FD
100
AcDbEntity
  8
0
  6
Continuous
 62
2
100
AcDbPolyline
 90
4
 70
1
 10
-12.00000000001455
 20
13.25000000000727
 10
11.99999999998545
 20
13.25000000000727
 10
11.99999999998545
 20
-83.74999999999272
 10
-12.00000000001455
 20
-83.74999999999272
  0
CIRCLE
  5
10E
330
FD
100
AcDbEntity
  8
0
  6
Continuous
 62
1
100
AcDbCircle
 10
-18.73832970146031
 20
18.73832970144576
 30
0.0
 40
2.5
  0
CIRCLE
  5
10F
330
FD
100
AcDbEntity
  8
0
  6
Continuous
 62
1
100
AcDbCircle
 10
18.73832970143121
 20
-18.73832970143121
 30
0.0
 40
2.5
  0
ENDBLK
  5
FF
330
FD
100
AcDbEntity
  8
0
100
AcDbBlockEnd
  0
BLOCK
  5
111
330
110
100
AcDbEntity
  8
0
100
AcDbBlockBegin
  2
MS722
 70
0
 10
0.0
 20
0.0
 30
0.0
  3
MS722
  1

  0
INSERT
  5
113
330
110
100
AcDbEntity
  8
0
100
AcDbBlockReference
  2
SDGFGHGHG
 10
-860940.444367795
 20
-570770.5213009797
 30
0.0
  0
INSERT
  5
115
330
110
100
AcDbEntity
  8
0
100
AcDbBlockReference
  2
SĐFHGGH
 10
-860940.444367795
 20
-570705.4118046993
 30
0.0
  0
ENDBLK
  5
112
330
110
100
AcDbEntity
  8
0
100
AcDbBlockEnd
  0
BLOCK
  5
118
330
117
100
AcDbEntity
  8
0
100
AcDbBlockBegin
  2
HL003-2-3
 70
0
 10
0.0
 20
0.0
 30
0.0
  3
HL003-2-3
  1

  0
LINE
  5
11A
330
117
100
AcDbEntity
  8
0
 62
1
100
AcDbLine
 10
0.0
 20
22.0
 30
0.0
 11
17.0
 21
22.0
 31
0.0
  0
LINE
  5
11B
330
117
100
AcDbEntity
  8
0
 62
1
100
AcDbLine
 10
0.0
 20
20.0
 30
0.0
 11
15.0
 21
20.0
 31
0.0
  0
LINE
  5
11C
330
117
100
AcDbEntity
  8
0
 62
1
100
AcDbLine
 10
17.0
 20
22.0
 30
0.0
 11
17.0
 21
3.0
 31
0.0
  0
LINE
  5
11D
330
117
100
AcDbEntity
  8
0
 62
1
100
AcDbLine
 10
15.0
 20
20.0
 30
0.0
 11
15.0
 21
3.0
 31
0.0
  0
LINE
  5
11E
330
117
100
AcDbEntity
  8
0
 62
1
100
AcDbLine
 10
0.0
 20
20.0
 30
0.0
 11
0.0
 21
22.0
 31
0.0
  0
LINE
  5
11F
330
117
100
AcDbEntity
  8
0
 62
1
100
AcDbLine
 10
4.0
 20
20.0
 30
0.0
 11
4.0
 21
18.0
 31
0.0
  0
LINE
  5
120
330
117
100
AcDbEntity
  8
0
 62
1
100
AcDbLine
 10
4.0
 20
18.0
 30
0.0
 11
0.0
 21
18.0
 31
0.0
  0
CIRCLE
  5
121
330
117
100
AcDbEntity
  8
0
 62
1
100
AcDbCircle
 10
10.0
 20
16.0
 30
0.0
 40
3.0
  0
LINE
  5
122
330
117
100
AcDbEntity
  8
0
 62
1
100
AcDbLine
 10
17.0
 20
3.0
 30
0.0
 11
8.0
 21
3.0
 31
0.0
  0
LINE
  5
123
330
117
100
AcDbEntity
  8
0
 62
1
100
AcDbLine
 10
0.0
 20
10.0
 30
0.0
 11
0.0
 21
18.0
 31
0.0
  0
LINE
  5
124
330
117
100
AcDbEntity
  8
0
 62
1
100
AcDbLine
 10
0.0
 20
10.0
 30
0.0
 11
8.0
 21
3.0
 31
0.0
  0
LINE
  5
125
330
117
100
AcDbEntity
  8
0
 62
1
100
AcDbLine
 10
16.0
 20
3.0
 30
0.0
 11
16.0
 21
0.0
 31
0.0
  0
LINE
  5
126
330
117
100
AcDbEntity
  8
0
 62
1
100
AcDbLine
 10
16.0
 20
0.0
 30
0.0
 11
0.0
 21
0.0
 31
0.0
  0
LINE
  5
127
330
117
100
AcDbEntity
  8
0
 62
1
100
AcDbLine
 10
0.0
 20
0.0
 30
0.0
 11
0.0
 21
4.0
 31
0.0
  0
LINE
  5
128
330
117
100
AcDbEntity
  8
0
 62
1
100
AcDbLine
 10
0.0
 20
4.0
 30
0.0
 11
3.428571428579743
 21
7.0
 31
0.0
  0
CIRCLE
  5
129
330
117
100
AcDbEntity
  8
0
 62
1
100
AcDbCircle
 10
10.0
 20
16.0
 30
0.0
 40
3.0
  0
HATCH
  5
12A
330
117
100
AcDbEntity
  8
0
 62
2
100
AcDbHatch
 10
0.0
 20
0.0
 30
0.0
210
0.0
220
0.0
230
1.0
  2
ANSI31
 70
0
 71
0
 91
1
 92
7
 72
0
 73
1
 93
4
 10
11.0
 20
10.0
 10
5.0
 20
10.0
 10
5.0
 20
0.0
 10
11.0
 20
0.0
 97
0
 75
0
 76
1
 52
0.0
 41
0.5
 77
0
 78
1
 53
45.0
 43
8435.407079138444
 44
86016.96644780628
 45
-1.122532015133643
 46
1.122532015133643
 79
0
 47
0.0298277246703574
 98
1
 10
8.80767606885638
 20
4.97684244980337
  0
LWPOLYLINE
  5
12B
330
117
100
AcDbEntity
  8
0
 62
2
100
AcDbPolyline
 90
4
 70
1
 10
5.0
 20
10.0
 10
11.0
 20
10.0
 10
11.0
 20
0.0
 10
5.0
 20
0.0
  0
ENDBLK
  5
119
330
117
100
AcDbEntity
  8
0
100
AcDbBlockEnd
  0
BLOCK
  5
12D
330
12C
100
AcDbEntity
  8
0
100
AcDbBlockBegin
  2
HL044-1.3-B
 70
0
 10
0.0
 20
0.0
 30
0.0
  3
HL044-1.3-B
  1

  0
HATCH
  5
12F
330
12C
100
AcDbEntity
  8
0
 62
1
100
AcDbHatch
 10
0.0
 20
0.0
 30
0.0
210
0.0
220
0.0
230
1.0
  2
ANSI31
 70
0
 71
0
 91
1
 92
7
 72
0
 73
1
 93
4
 10
-15.5
 20
27.0
 10
-15.5
 20
24.0
 10
-9.5
 20
24.0
 10
-9.5
 20
27.0
 97
4
330
33933
330
33935
330
33930
330
33936
 75
0
 76
1
 52
0.0
 41
0.3
 77
0
 78
1
 53
45.0
 43
-80982.3192505066
 44
-42991.26475357953
 45
-0.6735192090801864
 46
0.6735192090801866
 79
0
 47
0.0787477369447478
 98
1
 10
-12.63045961401076
 20
25.65454838844016
  0
LINE
  5
130
330
12C
100
AcDbEntity
  8
0
 62
1
100
AcDbLine
 10
-1.0
 20
24.0
 30
0.0
 11
-22.0
 21
24.0
 31
0.0
  0
ARC
  5
131
330
12C
100
AcDbEntity
  8
0
 62
1
100
AcDbCircle
 10
-1.0
 20
23.0
 30
0.0
 40
1.0
100
AcDbArc
 50
0.0
 51
90.0
  0
LINE
  5
132
330
12C
100
AcDbEntity
  8
0
 62
1
100
AcDbLine
 10
-22.0
 20
24.0
 30
0.0
 11
-22.0
 21
27.0
 31
0.0
  0
LINE
  5
133
330
12C
100
AcDbEntity
  8
0
 62
1
100
AcDbLine
 10
-22.0
 20
27.0
 30
0.0
 11
1.0
 21
27.0
 31
0.0
  0
ARC
  5
134
330
12C
100
AcDbEntity
  8
0
 62
1
100
AcDbCircle
 10
1.0
 20
25.0
 30
0.0
 40
2.0
100
AcDbArc
 50
0.0
 51
90.0
  0
LINE
  5
135
330
12C
100
AcDbEntity
  8
0
 62
1
100
AcDbLine
 10
-15.5
 20
24.0
 30
0.0
 11
-15.5
 21
27.0
 31
0.0
  0
LINE
  5
136
330
12C
100
AcDbEntity
  8
0
 62
1
100
AcDbLine
 10
-9.5
 20
24.0
 30
0.0
 11
-9.5
 21
27.0
 31
0.0
  0
LINE
  5
137
330
12C
100
AcDbEntity
  8
0
 62
1
100
AcDbLine
 10
3.0
 20
25.0
 30
0.0
 11
3.0
 21
0.0
 31
0.0
  0
LINE
  5
138
330
12C
100
AcDbEntity
  8
0
 62
1
100
AcDbLine
 10
0.0
 20
23.0
 30
0.0
 11
0.0
 21
0.0
 31
0.0
  0
ARC
  5
139
330
12C
100
AcDbEntity
  8
0
 62
1
100
AcDbCircle
 10
-2.5
 20
-6.5
 30
0.0
 40
5.5
100
AcDbArc
 50
270.0
 51
0.0
  0
LINE
  5
13A
330
12C
100
AcDbEntity
  8
0
 62
1
100
AcDbLine
 10
0.0
 20
0.0
 30
0.0
 11
-43.0
 21
0.0
 31
0.0
  0
LINE
  5
13B
330
12C
100
AcDbEntity
  8
0
 62
1
100
AcDbLine
 10
-43.0
 20
0.0
 30
0.0
 11
-43.0
 21
-2.0
 31
0.0
  0
LINE
  5
13C
330
12C
100
AcDbEntity
  8
0
 62
1
100
AcDbLine
 10
3.0
 20
-6.5
 30
0.0
 11
3.0
 21
0.0
 31
0.0
  0
LWPOLYLINE
  5
13D
330
12C
100
AcDbEntity
  8
0
 62
1
100
AcDbPolyline
 90
4
 70
1
 10
-26.0
 20
6.5
 10
-18.0
 20
6.5
 10
-18.0
 20
0.0
 10
-26.0
 20
0.0
  0
LINE
  5
13E
330
12C
100
AcDbEntity
  8
0
 62
1
100
AcDbLine
 10
-19.0
 20
6.5
 30
0.0
 11
-19.0
 21
0.0
 31
0.0
  0
LINE
  5
13F
330
12C
100
AcDbEntity
  8
0
 62
1
100
AcDbLine
 10
-25.0
 20
6.5
 30
0.0
 11
-25.0
 21
0.0
 31
0.0
  0
LINE
  5
140
330
12C
100
AcDbEntity
  8
0
 62
1
100
AcDbLine
 10
-25.0
 20
6.5
 30
0.0
 11
-19.0
 21
5.934058110346086
 31
0.0
  0
LINE
  5
141
330
12C
100
AcDbEntity
  8
0
 62
1
100
AcDbLine
 10
-25.0
 20
5.5
 30
0.0
 11
-19.0
 21
4.934058110346086
 31
0.0
  0
LINE
  5
142
330
12C
100
AcDbEntity
  8
0
 62
1
100
AcDbLine
 10
-25.0
 20
4.5
 30
0.0
 11
-19.0
 21
3.934058110346086
 31
0.0
  0
LINE
  5
143
330
12C
100
AcDbEntity
  8
0
 62
1
100
AcDbLine
 10
-25.0
 20
3.5
 30
0.0
 11
-19.0
 21
2.934058110346086
 31
0.0
  0
LINE
  5
144
330
12C
100
AcDbEntity
  8
0
 62
1
100
AcDbLine
 10
-25.0
 20
2.5
 30
0.0
 11
-19.0
 21
1.934058110346086
 31
0.0
  0
LINE
  5
145
330
12C
100
AcDbEntity
  8
0
 62
1
100
AcDbLine
 10
-25.0
 20
1.5
 30
0.0
 11
-19.0
 21
0.9340581103460863
 31
0.0
  0
LINE
  5
146
330
12C
100
AcDbEntity
  8
0
 62
1
100
AcDbLine
 10
-25.0
 20
0.5
 30
0.0
 11
-19.69910240812169
 21
0.0
 31
0.0
  0
CIRCLE
  5
147
330
12C
100
AcDbEntity
  8
0
 62
1
100
AcDbCircle
 10
-2.30000000000291
 20
-7.0
 30
0.0
 40
2.55000000000291
  0
LINE
  5
148
330
12C
100
AcDbEntity
  8
0
 62
1
100
AcDbLine
 10
0.0
 20
6.0
 30
0.0
 11
3.0
 21
6.0
 31
0.0
  0
LINE
  5
149
330
12C
100
AcDbEntity
  8
0
 62
1
100
AcDbLine
 10
0.0
 20
7.5
 30
0.0
 11
3.0
 21
7.5
 31
0.0
  0
ARC
  5
14A
330
12C
100
AcDbEntity
  8
0
 62
1
100
AcDbCircle
 10
15.4356101804733
 20
147.6517212310209
 30
0.0
 40
160.6560244888795
100
AcDbArc
 50
248.6704799579358
 51
263.5901471651879
  0
ENDBLK
  5
12E
330
12C
100
AcDbEntity
  8
0
100
AcDbBlockEnd
  0
BLOCK
  5
14C
330
14B
100
AcDbEntity
  8
0
100
AcDbBlockBegin
  2
HL003-2-2
 70
0
 10
0.0
 20
0.0
 30
0.0
  3
HL003-2-2
  1

  0
CIRCLE
  5
14E
330
14B
100
AcDbEntity
  8
0
 62
1
100
AcDbCircle
 10
8.0
 20
6.0
 30
0.0
 40
3.0
  0
LWPOLYLINE
  5
14F
330
14B
100
AcDbEntity
  8
0
 62
1
100
AcDbPolyline
 90
4
 70
1
 10
0.0
 20
12.0
 10
16.0
 20
12.0
 10
16.0
 20
0.0
 10
0.0
 20
0.0
  0
LWPOLYLINE
  5
150
330
14B
100
AcDbEntity
  8
0
 62
1
100
AcDbPolyline
 90
6
 70
0
 10
17.0
 20
0.0
 10
17.0
 20
-9.0
 10
0.0
 20
-9.0
 10
0.0
 20
21.0
 10
17.0
 20
21.0
 10
17.0
 20
12.0
  0
LINE
  5
151
330
14B
100
AcDbEntity
  8
0
 62
1
100
AcDbLine
 10
16.0
 20
0.0
 30
0.0
 11
17.0
 21
0.0
 31
0.0
  0
LINE
  5
152
330
14B
100
AcDbEntity
  8
0
 62
1
100
AcDbLine
 10
16.0
 20
12.0
 30
0.0
 11
17.0
 21
12.0
 31
0.0
  0
LINE
  5
153
330
14B
100
AcDbEntity
  8
0
 62
1
100
AcDbLine
 10
15.0
 20
21.0
 30
0.0
 11
15.0
 21
12.0
 31
0.0
  0
LINE
  5
154
330
14B
100
AcDbEntity
  8
0
 62
1
100
AcDbLine
 10
15.0
 20
-9.0
 30
0.0
 11
15.0
 21
1.8e-15
 31
0.0
  0
ENDBLK
  5
14D
330
14B
100
AcDbEntity
  8
0
100
AcDbBlockEnd
  0
BLOCK
  5
156
330
155
100
AcDbEntity
  8
0
100
AcDbBlockBegin
  2
ovan8.5x20
 70
0
 10
0.0
 20
0.0
 30
0.0
  3
ovan8.5x20
  1

  0
ARC
  5
158
330
155
100
AcDbEntity
  8
CNC
 62
2
370
-3
100
AcDbCircle
 10
-5.750000000007275
 20
0.0
 30
0.0
 40
4.25
100
AcDbArc
 50
90.0
 51
270.0
  0
ARC
  5
159
330
155
100
AcDbEntity
  8
CNC
 62
2
370
-3
100
AcDbCircle
 10
5.749999999992724
 20
0.0
 30
0.0
 40
4.25
100
AcDbArc
 50
270.0
 51
90.0
  0
LINE
  5
15A
330
155
100
AcDbEntity
  8
CNC
 62
2
370
-3
100
AcDbLine
 10
5.749999999992724
 20
4.25
 30
0.0
 11
-5.750000000007275
 21
4.25
 31
0.0
  0
LINE
  5
15B
330
155
100
AcDbEntity
  8
CNC
 62
2
370
-3
100
AcDbLine
 10
-5.750000000007275
 20
-4.25
 30
0.0
 11
5.749999999992724
 21
-4.25
 31
0.0
  0
ENDBLK
  5
157
330
155
100
AcDbEntity
  8
0
100
AcDbBlockEnd
  0
BLOCK
  5
15D
330
15C
100
AcDbEntity
  8
0
100
AcDbBlockBegin
  2
SDGFGHGHG
 70
0
 10
0.0
 20
0.0
 30
0.0
  3
SDGFGHGHG
  1

  0
LINE
  5
15F
330
15C
100
AcDbEntity
  8
HEATER
100
AcDbLine
 10
860892.9443677951
 20
570760.5213009797
 30
0.0
 11
860892.9443677951
 21
570780.5213009797
 31
0.0
  0
LINE
  5
160
330
15C
100
AcDbEntity
  8
HEATER
100
AcDbLine
 10
860935.944367795
 20
570742.0213009797
 30
0.0
 11
860935.944367795
 21
570784.3053497317
 31
0.0
  0
LINE
  5
161
330
15C
100
AcDbEntity
  8
HEATER
100
AcDbLine
 10
860944.944367795
 20
570742.0213009797
 30
0.0
 11
860944.944367795
 21
570784.3053497317
 31
0.0
  0
ARC
  5
162
330
15C
100
AcDbEntity
  8
HEATER
100
AcDbCircle
 10
860940.444367795
 20
570770.5213009797
 30
0.0
 40
14.5
100
AcDbArc
 50
288.0800126249186
 51
251.9199873760986
  0
LINE
  5
163
330
15C
100
AcDbEntity
  8
HEATER
100
AcDbLine
 10
860935.944367795
 20
570742.0213009797
 30
0.0
 11
860944.944367795
 21
570742.0213009797
 31
0.0
  0
LINE
  5
164
330
15C
100
AcDbEntity
  8
HEATER
100
AcDbLine
 10
860892.9443677951
 20
570780.5213009797
 30
0.0
 11
860931.5694281411
 21
570781.9880113245
 31
0.0
  0
LINE
  5
165
330
15C
100
AcDbEntity
  8
HEATER
100
AcDbLine
 10
860892.9443677951
 20
570760.5213009797
 30
0.0
 11
860931.5694281411
 21
570759.0545906347
 31
0.0
  0
LINE
  5
166
330
15C
100
AcDbEntity
  8
HEATER
100
AcDbLine
 10
860892.9443677951
 20
570771.8975213168
 30
0.0
 11
860906.3296893912
 21
570778.6620310972
 31
0.0
  0
LINE
  5
167
330
15C
100
AcDbEntity
  8
HEATER
100
AcDbLine
 10
860892.9443677951
 20
570769.1450806425
 30
0.0
 11
860906.3296893912
 21
570762.380570862
 31
0.0
  0
CIRCLE
  5
168
330
15C
100
AcDbEntity
  8
HEATER
100
AcDbCircle
 10
860940.444367795
 20
570770.5213009797
 30
0.0
 40
3.078158209494111
  0
LINE
  5
169
330
15C
100
AcDbEntity
  8
HEATER
100
AcDbLine
 10
860939.5447235582
 20
570773.4650567796
 30
0.0
 11
860939.5447235582
 21
570771.2753346086
 31
0.0
  0
LINE
  5
16A
330
15C
100
AcDbEntity
  8
HEATER
100
AcDbLine
 10
860939.5447235582
 20
570769.7672673506
 30
0.0
 11
860939.5447235582
 21
570767.5775451798
 31
0.0
  0
LINE
  5
16B
330
15C
100
AcDbEntity
  8
HEATER
100
AcDbLine
 10
860941.3440120325
 20
570773.4650567796
 30
0.0
 11
860941.3440120325
 21
570771.2753346086
 31
0.0
  0
LINE
  5
16C
330
15C
100
AcDbEntity
  8
HEATER
100
AcDbLine
 10
860941.3440120325
 20
570769.7672673506
 30
0.0
 11
860941.3440120325
 21
570767.5775451798
 31
0.0
  0
LINE
  5
16D
330
15C
100
AcDbEntity
  8
HEATER
100
AcDbLine
 10
860937.4599932797
 20
570771.2753346086
 30
0.0
 11
860939.5447235582
 21
570771.2753346086
 31
0.0
  0
LINE
  5
16E
330
15C
100
AcDbEntity
  8
HEATER
100
AcDbLine
 10
860941.3440120325
 20
570771.2753346086
 30
0.0
 11
860943.4287423106
 21
570771.2753346086
 31
0.0
  0
LINE
  5
16F
330
15C
100
AcDbEntity
  8
HEATER
100
AcDbLine
 10
860937.4599932797
 20
570769.7672673506
 30
0.0
 11
860939.5447235582
 21
570769.7672673506
 31
0.0
  0
LINE
  5
170
330
15C
100
AcDbEntity
  8
HEATER
100
AcDbLine
 10
860941.3440120325
 20
570769.7672673506
 30
0.0
 11
860943.4287423106
 21
570769.7672673506
 31
0.0
  0
ENDBLK
  5
15E
330
15C
100
AcDbEntity
  8
0
100
AcDbBlockEnd
  0
BLOCK
  5
172
330
171
100
AcDbEntity
  8
0
100
AcDbBlockBegin
  2
SĐFHGGH
 70
0
 10
0.0
 20
0.0
 30
0.0
  3
SĐFHGGH
  1

  0
ARC
  5
174
330
171
100
AcDbEntity
  8
HEATER
100
AcDbCircle
 10
860940.444367795
 20
570705.4118046993
 30
0.0
 40
12.0
100
AcDbArc
 50
104.4775121859967
 51
165.5224878140032
  0
ARC
  5
175
330
171
100
AcDbEntity
  8
HEATER
100
AcDbCircle
 10
860940.444367795
 20
570705.4118046993
 30
0.0
 40
12.0
100
AcDbArc
 50
194.4775121859968
 51
255.5224878140033
  0
ARC
  5
176
330
171
100
AcDbEntity
  8
HEATER
100
AcDbCircle
 10
860940.444367795
 20
570705.4118046993
 30
0.0
 40
12.0
100
AcDbArc
 50
284.4775121859968
 51
345.5224878140032
  0
ARC
  5
177
330
171
100
AcDbEntity
  8
HEATER
100
AcDbCircle
 10
860940.444367795
 20
570705.4118046993
 30
0.0
 40
12.0
100
AcDbArc
 50
14.47751218599677
 51
75.52248781400324
  0
LWPOLYLINE
  5
178
330
171
100
AcDbEntity
  8
HEATER
100
AcDbPolyline
 90
4
 70
0
 10
860943.4443677953
 20
570717.0307547379
 10
860943.4443677953
 20
570718.4118046995
 10
860937.4443677955
 20
570718.4118046995
 10
860937.4443677955
 20
570717.0307547379
  0
LWPOLYLINE
  5
179
330
171
100
AcDbEntity
  8
HEATER
100
AcDbPolyline
 90
4
 70
0
 10
860943.4443677953
 20
570693.7928546608
 10
860943.4443677953
 20
570692.4118046995
 10
860937.4443677955
 20
570692.4118046995
 10
860937.4443677955
 20
570693.7928546608
  0
LWPOLYLINE
  5
17A
330
171
100
AcDbEntity
  8
HEATER
100
AcDbPolyline
 90
4
 70
0
 10
860952.0633178339
 20
570702.4118046995
 10
860953.4443677956
 20
570702.4118046995
 10
860953.4443677956
 20
570708.4118046993
 10
860952.0633178339
 20
570708.4118046993
  0
LWPOLYLINE
  5
17B
330
171
100
AcDbEntity
  8
HEATER
100
AcDbPolyline
 90
4
 70
0
 10
860928.8254177567
 20
570702.4118046995
 10
860927.4443677953
 20
570702.4118046995
 10
860927.4443677953
 20
570708.4118046993
 10
860928.8254177567
 20
570708.4118046993
  0
ENDBLK
  5
173
330
171
100
AcDbEntity
  8
0
100
AcDbBlockEnd
  0
BLOCK
  5
1A4
330
1A3
100
AcDbEntity
  8
0
100
AcDbBlockBegin
  2
*D1
 70
1
 10
0.0
 20
0.0
 30
0.0
  3
*D1
  1

  0
LINE
  5
1A6
330
1A3
100
AcDbEntity
  8
DIM
 62
5
370
9
440
16777216
100
AcDbLine
 10
239.4290628202143
 20
1924.4078768234976
 30
0.0
 11
134.55433772690594
 21
1924.4078768234976
 31
0.0
  0
LINE
  5
1A7
330
1A3
100
AcDbEntity
  8
DIM
 62
5
370
9
440
16777216
100
AcDbLine
 10
239.4290628202143
 20
1124.4078768234976
 30
0.0
 11
134.55433772690594
 21
1124.4078768234976
 31
0.0
  0
LINE
  5
1A8
330
1A3
100
AcDbEntity
  8
DIM
 62
5
370
9
440
16777216
100
AcDbLine
 10
144.55433772690594
 20
1924.4078768234976
 30
0.0
 11
144.55433772690594
 21
1124.4078768234976
 31
0.0
  0
LINE
  5
1A9
330
1A3
100
AcDbEntity
  8
0
  6
ByBlock
 62
0
370
-2
100
AcDbLine
 10
148.55433772690594
 20
1920.4078768234976
 30
0.0
 11
140.55433772690594
 21
1928.4078768234976
 31
0.0
  0
LINE
  5
1AA
330
1A3
100
AcDbEntity
  8
0
  6
ByBlock
 62
0
370
-2
100
AcDbLine
 10
140.55433772690594
 20
1128.4078768234976
 30
0.0
 11
148.55433772690594
 21
1120.4078768234976
 31
0.0
  0
MTEXT
  5
1AB
330
1A3
100
AcDbEntity
  8
DIM
 62
3
440
16777216
100
AcDbMText
 10
121.79001303380937
 20
1524.4078768234685
 30
0.0
 40
25.0
 41
0.0
 46
0.0
 71
5
  1
800
 11
1e-16
 21
1.0
 31
0.0
  0
POINT
  5
1AC
330
1A3
100
AcDbEntity
  8
Defpoints
 62
0
440
16777216
100
AcDbPoint
 10
254.4290628202143
 20
1924.4078768234976
 30
0.0
  0
POINT
  5
1AD
330
1A3
100
AcDbEntity
  8
Defpoints
 62
0
440
16777216
100
AcDbPoint
 10
254.4290628202143
 20
1124.4078768234976
 30
0.0
  0
POINT
  5
1AE
330
1A3
100
AcDbEntity
  8
Defpoints
 62
0
440
16777216
100
AcDbPoint
 10
144.55433772690594
 20
1124.4078768234976
 30
0.0
  0
ENDBLK
  5
1A5
330
1A3
100
AcDbEntity
  8
0
100
AcDbBlockEnd
  0
BLOCK
  5
1B0
330
1AF
100
AcDbEntity
  8
0
100
AcDbBlockBegin
  2
*D2
 70
1
 10
0.0
 20
0.0
 30
0.0
  3
*D2
  1

  0
LINE
  5
1B2
330
1AF
100
AcDbEntity
  8
DIM
 62
5
370
9
440
16777216
100
AcDbLine
 10
254.4290628202143
 20
1109.4078768234976
 30
0.0
 11
254.4290628202143
 21
1042.3264025096069
 31
0.0
  0
LINE
  5
1B3
330
1AF
100
AcDbEntity
  8
DIM
 62
5
370
9
440
16777216
100
AcDbLine
 10
854.4290628202143
 20
1109.4078768234976
 30
0.0
 11
854.4290628202143
 21
1042.3264025096069
 31
0.0
  0
LINE
  5
1B4
330
1AF
100
AcDbEntity
  8
DIM
 62
5
370
9
440
16777216
100
AcDbLine
 10
254.4290628202143
 20
1052.3264025096214
 30
0.0
 11
854.4290628202143
 21
1052.3264025096214
 31
0.0
  0
LINE
  5
1B5
330
1AF
100
AcDbEntity
  8
0
  6
ByBlock
 62
0
370
-2
100
AcDbLine
 10
258.4290628202143
 20
1056.3264025096214
 30
0.0
 11
250.4290628202143
 21
1048.3264025096214
 31
0.0
  0
LINE
  5
1B6
330
1AF
100
AcDbEntity
  8
0
  6
ByBlock
 62
0
370
-2
100
AcDbLine
 10
850.4290628202143
 20
1048.3264025096214
 30
0.0
 11
858.4290628202143
 21
1056.3264025096214
 31
0.0
  0
MTEXT
  5
1B7
330
1AF
100
AcDbEntity
  8
DIM
 62
3
440
16777216
100
AcDbMText
 10
554.4290628203016
 20
1075.0907272026598
 30
0.0
 40
25.0
 41
0.0
 46
0.0
 71
5
  1
600
  0
POINT
  5
1B8
330
1AF
100
AcDbEntity
  8
Defpoints
 62
0
440
16777216
100
AcDbPoint
 10
254.4290628202143
 20
1124.4078768234976
 30
0.0
  0
POINT
  5
1B9
330
1AF
100
AcDbEntity
  8
Defpoints
 62
0
440
16777216
100
AcDbPoint
 10
854.4290628202143
 20
1124.4078768234976
 30
0.0
  0
POINT
  5
1BA
330
1AF
100
AcDbEntity
  8
Defpoints
 62
0
440
16777216
100
AcDbPoint
 10
854.4290628202143
 20
1052.3264025096214
 30
0.0
  0
ENDBLK
  5
1B1
330
1AF
100
AcDbEntity
  8
0
100
AcDbBlockEnd
  0
BLOCK
  5
1BC
330
1BB
100
AcDbEntity
  8
0
100
AcDbBlockBegin
  2
*D3
 70
1
 10
0.0
 20
0.0
 30
0.0
  3
*D3
  1

  0
LINE
  5
1BE
330
1BB
100
AcDbEntity
  8
DIM
 62
5
370
9
440
16777216
100
AcDbLine
 10
1867.5457483310893
 20
1109.4078768234976
 30
0.0
 11
1867.5457483310893
 21
1041.3264025096214
 31
0.0
  0
LINE
  5
1BF
330
1BB
100
AcDbEntity
  8
DIM
 62
5
370
9
440
16777216
100
AcDbLine
 10
2117.5457483310893
 20
1110.407876823505
 30
0.0
 11
2117.5457483310893
 21
1041.3264025096214
 31
0.0
  0
LINE
  5
1C0
330
1BB
100
AcDbEntity
  8
DIM
 62
5
370
9
440
16777216
100
AcDbLine
 10
1867.5457483310893
 20
1051.3264025096069
 30
0.0
 11
2117.5457483310893
 21
1051.3264025096069
 31
0.0
  0
LINE
  5
1C1
330
1BB
100
AcDbEntity
  8
0
  6
ByBlock
 62
0
370
-2
100
AcDbLine
 10
1871.5457483310893
 20
1055.3264025096069
 30
0.0
 11
1863.5457483310893
 21
1047.3264025096069
 31
0.0
  0
LINE
  5
1C2
330
1BB
100
AcDbEntity
  8
0
  6
ByBlock
 62
0
370
-2
100
AcDbLine
 10
2113.5457483310893
 20
1047.3264025096069
 30
0.0
 11
2121.5457483310893
 21
1055.3264025096069
 31
0.0
  0
MTEXT
  5
1C3
330
1BB
100
AcDbEntity
  8
DIM
 62
3
440
16777216
100
AcDbMText
 10
1992.5457483310893
 20
1074.0907272026598
 30
0.0
 40
25.0
 41
0.0
 46
0.0
 71
5
  1
250
  0
POINT
  5
1C4
330
1BB
100
AcDbEntity
  8
Defpoints
 62
0
440
16777216
100
AcDbPoint
 10
1867.5457483310893
 20
1124.4078768234976
 30
0.0
  0
POINT
  5
1C5
330
1BB
100
AcDbEntity
  8
Defpoints
 62
0
440
16777216
100
AcDbPoint
 10
2117.5457483310893
 20
1125.407876823505
 30
0.0
  0
POINT
  5
1C6
330
1BB
100
AcDbEntity
  8
Defpoints
 62
0
440
16777216
100
AcDbPoint
 10
2117.5457483310893
 20
1051.3264025096069
 30
0.0
  0
ENDBLK
  5
1BD
330
1BB
100
AcDbEntity
  8
0
100
AcDbBlockEnd
  0
BLOCK
  5
1C8
330
1C7
100
AcDbEntity
  8
0
100
AcDbBlockBegin
  2
*D4
 70
1
 10
0.0
 20
0.0
 30
0.0
  3
*D4
  1

  0
LINE
  5
1CA
330
1C7
100
AcDbEntity
  8
DIM
 62
5
370
9
440
16777216
100
AcDbLine
 10
1101.6027857073059
 20
759.3696953986218
 30
0.0
 11
1101.6027857073059
 21
677.1418768496151
 31
0.0
  0
LINE
  5
1CB
330
1C7
100
AcDbEntity
  8
DIM
 62
5
370
9
440
16777216
100
AcDbLine
 10
1071.6027857073059
 20
759.3696953986218
 30
0.0
 11
1071.6027857073059
 21
677.1418768496151
 31
0.0
  0
LINE
  5
1CC
330
1C7
100
AcDbEntity
  8
DIM
 62
5
370
9
440
16777216
100
AcDbLine
 10
1101.6027857073059
 20
687.1418768496151
 30
0.0
 11
1071.6027857073059
 21
687.1418768496151
 31
0.0
  0
LINE
  5
1CD
330
1C7
100
AcDbEntity
  8
DIM
 62
5
370
9
440
16777216
100
AcDbLine
 10
1071.6027857073059
 20
687.1418768496151
 30
0.0
 11
1007.8933723375958
 21
687.1418768496151
 31
0.0
  0
LINE
  5
1CE
330
1C7
100
AcDbEntity
  8
0
  6
ByBlock
 62
0
370
-2
100
AcDbLine
 10
1097.6027857073059
 20
683.1418768496151
 30
0.0
 11
1105.6027857073059
 21
691.1418768496151
 31
0.0
  0
LINE
  5
1CF
330
1C7
100
AcDbEntity
  8
0
  6
ByBlock
 62
0
370
-2
100
AcDbLine
 10
1075.6027857073059
 20
691.1418768496151
 30
0.0
 11
1067.6027857073059
 21
683.1418768496151
 31
0.0
  0
MTEXT
  5
1D0
330
1C7
100
AcDbEntity
  8
DIM
 62
3
440
16777216
100
AcDbMText
 10
1035.748079022509
 20
709.914728145668
 30
0.0
 40
25.0
 41
0.0
 46
0.0
 71
5
  1
30
  0
POINT
  5
1D1
330
1C7
100
AcDbEntity
  8
Defpoints
 62
0
440
16777216
100
AcDbPoint
 10
1101.6027857073059
 20
774.3696953986218
 30
0.0
  0
POINT
  5
1D2
330
1C7
100
AcDbEntity
  8
Defpoints
 62
0
440
16777216
100
AcDbPoint
 10
1071.6027857073059
 20
774.3696953986218
 30
0.0
  0
POINT
  5
1D3
330
1C7
100
AcDbEntity
  8
Defpoints
 62
0
440
16777216
100
AcDbPoint
 10
1071.6027857073059
 20
687.1418768496151
 30
0.0
  0
ENDBLK
  5
1C9
330
1C7
100
AcDbEntity
  8
0
100
AcDbBlockEnd
  0
BLOCK
  5
1D5
330
1D4
100
AcDbEntity
  8
0
100
AcDbBlockBegin
  2
*D5
 70
1
 10
0.0
 20
0.0
 30
0.0
  3
*D5
  1

  0
LINE
  5
1D7
330
1D4
100
AcDbEntity
  8
DIM
 62
5
370
9
 48
3.0
440
16777216
100
AcDbLine
 10
1055.4027857072942
 20
996.1696953986175
 30
0.0
 11
1003.5045540191059
 21
996.1696953986175
 31
0.0
  0
LINE
  5
1D8
330
1D4
100
AcDbEntity
  8
DIM
 62
5
370
9
 48
3.0
440
16777216
100
AcDbLine
 10
1056.4027857072942
 20
746.1696953986175
 30
0.0
 11
1003.5045540191059
 21
746.1696953986175
 31
0.0
  0
LINE
  5
1D9
330
1D4
100
AcDbEntity
  8
DIM
 62
5
370
9
 48
3.0
440
16777216
100
AcDbLine
 10
1013.5045540191059
 20
996.1696953986175
 30
0.0
 11
1013.5045540191059
 21
746.1696953986175
 31
0.0
  0
LINE
  5
1DA
330
1D4
100
AcDbEntity
  8
0
  6
ByBlock
 62
0
370
-2
100
AcDbLine
 10
1017.5045540191059
 20
992.1696953986175
 30
0.0
 11
1009.5045540191059
 21
1000.1696953986175
 31
0.0
  0
LINE
  5
1DB
330
1D4
100
AcDbEntity
  8
0
  6
ByBlock
 62
0
370
-2
100
AcDbLine
 10
1009.5045540191059
 20
750.1696953986175
 30
0.0
 11
1017.5045540191059
 21
742.1696953986175
 31
0.0
  0
MTEXT
  5
1DC
330
1D4
100
AcDbEntity
  8
DIM
 62
3
 48
3.0
440
16777216
100
AcDbMText
 10
990.7402293260093
 20
871.1696953985884
 30
0.0
 40
25.0
 41
0.0
 46
0.0
 71
5
  1
250
 11
1e-16
 21
1.0
 31
0.0
  0
POINT
  5
1DD
330
1D4
100
AcDbEntity
  8
Defpoints
 62
0
 48
3.0
440
16777216
100
AcDbPoint
 10
1070.4027857072942
 20
996.1696953986175
 30
0.0
  0
POINT
  5
1DE
330
1D4
100
AcDbEntity
  8
Defpoints
 62
0
 48
3.0
440
16777216
100
AcDbPoint
 10
1071.4027857072942
 20
746.1696953986175
 30
0.0
  0
POINT
  5
1DF
330
1D4
100
AcDbEntity
  8
Defpoints
 62
0
 48
3.0
440
16777216
100
AcDbPoint
 10
1013.5045540191059
 20
746.1696953986175
 30
0.0
  0
ENDBLK
  5
1D6
330
1D4
100
AcDbEntity
  8
0
100
AcDbBlockEnd
  0
BLOCK
  5
1E1
330
1E0
100
AcDbEntity
  8
0
100
AcDbBlockBegin
  2
*D6
 70
1
 10
0.0
 20
0.0
 30
0.0
  3
*D6
  1

  0
LINE
  5
1E3
330
1E0
100
AcDbEntity
  8
DIM
 62
5
370
9
440
16777216
100
AcDbLine
 10
285.62906282019685
 20
759.3696953986218
 30
0.0
 11
285.62906282019685
 21
677.1418768496151
 31
0.0
  0
LINE
  5
1E4
330
1E0
100
AcDbEntity
  8
DIM
 62
5
370
9
440
16777216
100
AcDbLine
 10
255.62906282019685
 20
759.3696953986218
 30
0.0
 11
255.62906282019685
 21
677.1418768496151
 31
0.0
  0
LINE
  5
1E5
330
1E0
100
AcDbEntity
  8
DIM
 62
5
370
9
440
16777216
100
AcDbLine
 10
285.62906282019685
 20
687.1418768496151
 30
0.0
 11
255.62906282019685
 21
687.1418768496151
 31
0.0
  0
LINE
  5
1E6
330
1E0
100
AcDbEntity
  8
DIM
 62
5
370
9
440
16777216
100
AcDbLine
 10
255.62906282019685
 20
687.1418768496151
 30
0.0
 11
191.91964945051586
 21
687.1418768496151
 31
0.0
  0
LINE
  5
1E7
330
1E0
100
AcDbEntity
  8
0
  6
ByBlock
 62
0
370
-2
100
AcDbLine
 10
281.62906282019685
 20
683.1418768496151
 30
0.0
 11
289.62906282019685
 21
691.1418768496151
 31
0.0
  0
LINE
  5
1E8
330
1E0
100
AcDbEntity
  8
0
  6
ByBlock
 62
0
370
-2
100
AcDbLine
 10
259.62906282019685
 20
691.1418768496151
 30
0.0
 11
251.62906282019685
 21
683.1418768496151
 31
0.0
  0
MTEXT
  5
1E9
330
1E0
100
AcDbEntity
  8
DIM
 62
3
440
16777216
100
AcDbMText
 10
219.7743561353127
 20
709.914728145668
 30
0.0
 40
25.0
 41
0.0
 46
0.0
 71
5
  1
30
  0
POINT
  5
1EA
330
1E0
100
AcDbEntity
  8
Defpoints
 62
0
440
16777216
100
AcDbPoint
 10
285.62906282019685
 20
774.3696953986218
 30
0.0
  0
POINT
  5
1EB
330
1E0
100
AcDbEntity
  8
Defpoints
 62
0
440
16777216
100
AcDbPoint
 10
255.62906282019685
 20
774.3696953986218
 30
0.0
  0
POINT
  5
1EC
330
1E0
100
AcDbEntity
  8
Defpoints
 62
0
440
16777216
100
AcDbPoint
 10
255.62906282019685
 20
687.1418768496151
 30
0.0
  0
ENDBLK
  5
1E2
330
1E0
100
AcDbEntity
  8
0
100
AcDbBlockEnd
  0
BLOCK
  5
1EE
330
1ED
100
AcDbEntity
  8
0
100
AcDbBlockBegin
  2
*D7
 70
1
 10
0.0
 20
0.0
 30
0.0
  3
*D7
  1

  0
LINE
  5
1F0
330
1ED
100
AcDbEntity
  8
DIM
 62
5
370
9
 48
3.0
440
16777216
100
AcDbLine
 10
239.4290628202143
 20
996.1696953986175
 30
0.0
 11
187.5308311319095
 21
996.1696953986175
 31
0.0
  0
LINE
  5
1F1
330
1ED
100
AcDbEntity
  8
DIM
 62
5
370
9
 48
3.0
440
16777216
100
AcDbLine
 10
240.4290628202143
 20
746.1696953986175
 30
0.0
 11
187.5308311319095
 21
746.1696953986175
 31
0.0
  0
LINE
  5
1F2
330
1ED
100
AcDbEntity
  8
DIM
 62
5
370
9
 48
3.0
440
16777216
100
AcDbLine
 10
197.5308311319095
 20
996.1696953986175
 30
0.0
 11
197.5308311319095
 21
746.1696953986175
 31
0.0
  0
LINE
  5
1F3
330
1ED
100
AcDbEntity
  8
0
  6
ByBlock
 62
0
370
-2
100
AcDbLine
 10
201.5308311319095
 20
992.1696953986175
 30
0.0
 11
193.5308311319095
 21
1000.1696953986175
 31
0.0
  0
LINE
  5
1F4
330
1ED
100
AcDbEntity
  8
0
  6
ByBlock
 62
0
370
-2
100
AcDbLine
 10
193.5308311319095
 20
750.1696953986175
 30
0.0
 11
201.5308311319095
 21
742.1696953986175
 31
0.0
  0
MTEXT
  5
1F5
330
1ED
100
AcDbEntity
  8
DIM
 62
3
 48
3.0
440
16777216
100
AcDbMText
 10
174.76650643890025
 20
871.1696953985884
 30
0.0
 40
25.0
 41
0.0
 46
0.0
 71
5
  1
250
 11
1e-16
 21
1.0
 31
0.0
  0
POINT
  5
1F6
330
1ED
100
AcDbEntity
  8
Defpoints
 62
0
 48
3.0
440
16777216
100
AcDbPoint
 10
254.4290628202143
 20
996.1696953986175
 30
0.0
  0
POINT
  5
1F7
330
1ED
100
AcDbEntity
  8
Defpoints
 62
0
 48
3.0
440
16777216
100
AcDbPoint
 10
255.4290628202143
 20
746.1696953986175
 30
0.0
  0
POINT
  5
1F8
330
1ED
100
AcDbEntity
  8
Defpoints
 62
0
 48
3.0
440
16777216
100
AcDbPoint
 10
197.5308311319095
 20
746.1696953986175
 30
0.0
  0
ENDBLK
  5
1EF
330
1ED
100
AcDbEntity
  8
0
100
AcDbBlockEnd
  0
BLOCK
  5
1FA
330
1F9
100
AcDbEntity
  8
0
100
AcDbBlockBegin
  2
*D8
 70
1
 10
0.0
 20
0.0
 30
0.0
  3
*D8
  1

  0
LINE
  5
1FC
330
1F9
100
AcDbEntity
  8
DIM
 62
5
370
9
 48
3.0
440
16777216
100
AcDbLine
 10
869.4290628202143
 20
773.1696953986175
 30
0.0
 11
926.9104201364971
 21
773.1696953986175
 31
0.0
  0
LINE
  5
1FD
330
1F9
100
AcDbEntity
  8
DIM
 62
5
370
9
 48
3.0
440
16777216
100
AcDbLine
 10
868.2290628202027
 20
843.1696953986175
 30
0.0
 11
926.9104201364971
 21
843.1696953986175
 31
0.0
  0
LINE
  5
1FE
330
1F9
100
AcDbEntity
  8
DIM
 62
5
370
9
 48
3.0
440
16777216
100
AcDbLine
 10
916.9104201364971
 20
773.1696953986175
 30
0.0
 11
916.9104201364971
 21
843.1696953986175
 31
0.0
  0
LINE
  5
1FF
330
1F9
100
AcDbEntity
  8
0
  6
ByBlock
 62
0
370
-2
100
AcDbLine
 10
912.9104201364971
 20
777.1696953986175
 30
0.0
 11
920.9104201364971
 21
769.1696953986175
 31
0.0
  0
LINE
  5
200
330
1F9
100
AcDbEntity
  8
0
  6
ByBlock
 62
0
370
-2
100
AcDbLine
 10
920.9104201364971
 20
839.1696953986175
 30
0.0
 11
912.9104201364971
 21
847.1696953986175
 31
0.0
  0
MTEXT
  5
201
330
1F9
100
AcDbEntity
  8
DIM
 62
3
 48
3.0
440
16777216
100
AcDbMText
 10
894.146095443517
 20
808.1696953985884
 30
0.0
 40
25.0
 41
0.0
 46
0.0
 71
5
  1
70
 11
1e-16
 21
1.0
 31
0.0
  0
POINT
  5
202
330
1F9
100
AcDbEntity
  8
Defpoints
 62
0
 48
3.0
440
16777216
100
AcDbPoint
 10
854.4290628202143
 20
773.1696953986175
 30
0.0
  0
POINT
  5
203
330
1F9
100
AcDbEntity
  8
Defpoints
 62
0
 48
3.0
440
16777216
100
AcDbPoint
 10
853.2290628202027
 20
843.1696953986175
 30
0.0
  0
POINT
  5
204
330
1F9
100
AcDbEntity
  8
Defpoints
 62
0
 48
3.0
440
16777216
100
AcDbPoint
 10
916.9104201364971
 20
843.1696953986175
 30
0.0
  0
ENDBLK
  5
1FB
330
1F9
100
AcDbEntity
  8
0
100
AcDbBlockEnd
  0
BLOCK
  5
206
330
205
100
AcDbEntity
  8
0
100
AcDbBlockBegin
  2
*D9
 70
1
 10
0.0
 20
0.0
 30
0.0
  3
*D9
  1

  0
LINE
  5
208
330
205
100
AcDbEntity
  8
DIM
 62
5
370
9
440
16777216
100
AcDbLine
 10
2370.057587567717
 20
1109.4078768234976
 30
0.0
 11
2370.057587567717
 21
1041.3264025096214
 31
0.0
  0
LINE
  5
209
330
205
100
AcDbEntity
  8
DIM
 62
5
370
9
440
16777216
100
AcDbLine
 10
2620.057587567717
 20
1110.407876823505
 30
0.0
 11
2620.057587567717
 21
1041.3264025096214
 31
0.0
  0
LINE
  5
20A
330
205
100
AcDbEntity
  8
DIM
 62
5
370
9
440
16777216
100
AcDbLine
 10
2370.057587567717
 20
1051.3264025096069
 30
0.0
 11
2620.057587567717
 21
1051.3264025096069
 31
0.0
  0
LINE
  5
20B
330
205
100
AcDbEntity
  8
0
  6
ByBlock
 62
0
370
-2
100
AcDbLine
 10
2374.057587567717
 20
1055.3264025096069
 30
0.0
 11
2366.057587567717
 21
1047.3264025096069
 31
0.0
  0
LINE
  5
20C
330
205
100
AcDbEntity
  8
0
  6
ByBlock
 62
0
370
-2
100
AcDbLine
 10
2616.057587567717
 20
1047.3264025096069
 30
0.0
 11
2624.057587567717
 21
1055.3264025096069
 31
0.0
  0
MTEXT
  5
20D
330
205
100
AcDbEntity
  8
DIM
 62
3
440
16777216
100
AcDbMText
 10
2495.057587567717
 20
1074.0907272026598
 30
0.0
 40
25.0
 41
0.0
 46
0.0
 71
5
  1
250
  0
POINT
  5
20E
330
205
100
AcDbEntity
  8
Defpoints
 62
0
440
16777216
100
AcDbPoint
 10
2370.057587567717
 20
1124.4078768234976
 30
0.0
  0
POINT
  5
20F
330
205
100
AcDbEntity
  8
Defpoints
 62
0
440
16777216
100
AcDbPoint
 10
2620.057587567717
 20
1125.407876823505
 30
0.0
  0
POINT
  5
210
330
205
100
AcDbEntity
  8
Defpoints
 62
0
440
16777216
100
AcDbPoint
 10
2620.057587567717
 20
1051.3264025096069
 30
0.0
  0
ENDBLK
  5
207
330
205
100
AcDbEntity
  8
0
100
AcDbBlockEnd
  0
ENDSEC
  0
SECTION
  2
ENTITIES
  0
INSERT
  5
2F
330
17
100
AcDbEntity
  8
0
 62
7
100
AcDbBlockReference
 66
1
  2
khungtenAsean2
 10
0.0
 20
2100.00000000032
 30
0.0
  0
ATTRIB
  5
30
330
2F
100
AcDbEntity
  8
0
 62
1
100
AcDbText
 10
2883.7642129455926
 20
32.6521998954704
 30
0.0
 40
25.0
  1
......
  7
Tahoma (Input Text)
 72
1
 11
2914.993225705897
 21
32.6521998954704
 31
0.0
100
AcDbAttribute
  2
#11
 70
0
 71
1
 72
0
 11
2914.993225705897
 21
32.6521998954704
 31
0.0
  0
ATTRIB
  5
31
330
2F
100
AcDbEntity
  8
0
 62
1
100
AcDbText
 10
2146.7169774874055
 20
78.72478830831824
 30
0.0
 40
25.0
  1
võ tủ trong nhà, 2 lớp cánh
  7
Tahoma (Input Text)
100
AcDbAttribute
  2
#09
 70
0
 71
1
 72
0
  0
ATTRIB
  5
32
330
2F
100
AcDbEntity
  8
0
 62
1
100
AcDbText
 10
2146.7169774874055
 20
18.72478830831824
 30
0.0
 40
25.0
  1
có tai treo rời,
  7
Tahoma (Input Text)
100
AcDbAttribute
  2
#10
 70
0
 71
1
 72
0
  0
ATTRIB
  5
33
330
2F
100
AcDbEntity
  8
0
 62
1
100
AcDbText
 10
1817.44776573329
 20
18.72478830831824
 30
0.0
 40
25.0
  1
1.2
  7
Tahoma (Input Text)
100
AcDbAttribute
  2
#08
 70
0
 71
1
 72
0
  0
ATTRIB
  5
34
330
2F
100
AcDbEntity
  8
0
 62
1
100
AcDbText
 10
1834.6815103254921
 20
78.72478830831824
 30
0.0
 40
25.0
  1
1
  7
Tahoma (Input Text)
100
AcDbAttribute
  2
#07
 70
0
 71
1
 72
0
  0
ATTRIB
  5
35
330
2F
100
AcDbEntity
  8
0
 62
1
100
AcDbText
 10
1065.3308891436027
 20
18.72478830831824
 30
0.0
 40
25.0
  1
......
  7
Tahoma (Input Text)
100
AcDbAttribute
  2
#06
 70
0
 71
1
 72
0
  0
ATTRIB
  5
36
330
2F
100
AcDbEntity
  8
0
 62
1
100
AcDbText
 10
1106.628177122213
 20
78.72478830831824
 30
0.0
 40
25.0
  1
Võ tủ
  7
Tahoma (Input Text)
100
AcDbAttribute
  2
#05
 70
0
 71
1
 72
0
  0
ATTRIB
  5
37
330
2F
100
AcDbEntity
  8
0
 62
1
100
AcDbText
 10
486.10502700551297
 20
18.72478830831824
 30
0.0
 40
25.0
  1
21/03
  7
Tahoma (Input Text)
100
AcDbAttribute
  2
#04
 70
0
 71
1
 72
0
  0
ATTRIB
  5
38
330
2F
100
AcDbEntity
  8
0
 62
1
100
AcDbText
 10
506.5707489467168
 20
80.69839951062022
 30
0.0
 40
25.0
  1
Hùng cali
  7
Tahoma (Input Text)
100
AcDbAttribute
  2
#03
 70
0
 71
1
 72
0
  0
ATTRIB
  5
39
330
2F
100
AcDbEntity
  8
0
 62
1
100
AcDbText
 10
98.45672450310667
 20
18.72478830831824
 30
0.0
 40
25.0
  1
......
  7
Tahoma (Input Text)
100
AcDbAttribute
  2
#02
 70
0
 71
1
 72
0
  0
ATTRIB
  5
3A
330
2F
100
AcDbEntity
  8
0
 62
1
100
AcDbText
 10
137.053507837496
 20
78.72478830831824
 30
0.0
 40
25.0
  1
phúc
  7
Tahoma (Input Text)
100
AcDbAttribute
  2
#01
 70
0
 71
1
 72
0
  0
SEQEND
  5
3B
330
17
100
AcDbEntity
  8
0
 62
7
  0
LWPOLYLINE
  5
3C
330
17
100
AcDbEntity
  8
0
 62
7
100
AcDbPolyline
 90
4
 70
1
 10
1070.4027857072942
 20
1924.4078768234976
 10
1670.4027857072942
 20
1924.4078768234976
 10
1670.4027857072942
 20
1124.4078768234976
 10
1070.4027857072942
 20
1124.4078768234976
  0
LWPOLYLINE
  5
3D
330
17
100
AcDbEntity
  8
0
 62
7
100
AcDbPolyline
 90
4
 70
1
 10
1102.8027857074048
 20
1892.0078768235107
 10
1638.0027857073
 20
1892.0078768235107
 10
1638.0027857073
 20
1156.807876823521
 10
1102.8027857074048
 20
1156.807876823521
  0
LWPOLYLINE
  5
3E
330
17
100
AcDbEntity
  8
0
  6
HIDDENX2
 62
6
100
AcDbPolyline
 90
4
 70
1
 10
1110.3027857074048
 20
1884.5078768235107
 10
1630.5027857074165
 20
1884.5078768235107
 10
1630.5027857074165
 20
1164.3078768235064
 10
1110.3027857074048
 20
1164.3078768235064
  0
LWPOLYLINE
  5
3F
330
17
100
AcDbEntity
  8
0
 62
6
100
AcDbPolyline
 90
4
 70
1
 10
1109.1027857073059
 20
1885.7078768235078
 10
1631.702785707399
 20
1885.7078768235078
 10
1631.702785707399
 20
1163.1078768235166
 10
1109.1027857073059
 20
1163.1078768235166
  0
LWPOLYLINE
  5
40
330
17
100
AcDbEntity
  8
0
 62
3
100
AcDbPolyline
 90
4
 70
1
 10
1129.0027857073
 20
1865.807876823521
 10
1611.8027857073175
 20
1865.807876823521
 10
1611.8027857073175
 20
1183.0078768235107
 10
1129.0027857073
 20
1183.0078768235107
  0
LWPOLYLINE
  5
41
330
17
100
AcDbEntity
  8
0
 62
1
100
AcDbPolyline
 90
4
 70
1
 10
1134.0027857073
 20
1860.8078768235064
 10
1606.8027857073175
 20
1860.8078768235064
 10
1606.8027857073175
 20
1188.0078768235107
 10
1134.0027857073
 20
1188.0078768235107
  0
LWPOLYLINE
  5
42
330
17
100
AcDbEntity
  8
0
  6
HIDDEN2
 62
7
100
AcDbPolyline
 90
4
 70
1
 10
1071.6027857073059
 20
1923.2078768235078
 10
1669.202785707399
 20
1923.2078768235078
 10
1669.202785707399
 20
1125.607876823502
 10
1071.6027857073059
 20
1125.607876823502
  0
INSERT
  5
43
330
17
100
AcDbEntity
  8
0
 62
0
100
AcDbBlockReference
  2
Tai treo 2
 10
1670.4027857072942
 20
1124.4078768234976
 30
0.0
  0
INSERT
  5
45
330
17
100
AcDbEntity
  8
0
 62
0
100
AcDbBlockReference
  2
Tai treo 2
 10
1070.4027857072942
 20
1124.4078768234976
 30
0.0
 41
-1.0
  0
INSERT
  5
47
330
17
100
AcDbEntity
  8
0
 62
0
100
AcDbBlockReference
  2
Tai treo 2
 10
1670.4027857072942
 20
1924.4078768234976
 30
0.0
 41
-1.0
 50
180.0
  0
INSERT
  5
49
330
17
100
AcDbEntity
  8
0
 62
0
100
AcDbBlockReference
  2
Tai treo 2
 10
1070.4027857072942
 20
1924.4078768234976
 30
0.0
 50
180.0
  0
LWPOLYLINE
  5
4B
330
17
100
AcDbEntity
  8
0
 62
7
100
AcDbPolyline
 90
4
 70
1
 10
254.4290628202143
 20
1924.4078768234976
 10
854.4290628202143
 20
1924.4078768234976
 10
854.4290628202143
 20
1124.4078768234976
 10
254.4290628202143
 20
1124.4078768234976
  0
LWPOLYLINE
  5
4C
330
17
100
AcDbEntity
  8
0
  6
HIDDEN2
 62
7
100
AcDbPolyline
 90
4
 70
1
 10
255.62906282019685
 20
1923.2078768235078
 10
853.2290628202027
 20
1923.2078768235078
 10
853.2290628202027
 20
1125.607876823502
 10
255.62906282019685
 20
1125.607876823502
  0
INSERT
  5
4D
330
17
100
AcDbEntity
  8
0
 62
0
100
AcDbBlockReference
  2
Tai treo 2
 10
854.4290628202143
 20
1124.4078768234976
 30
0.0
  0
INSERT
  5
4F
330
17
100
AcDbEntity
  8
0
 62
0
100
AcDbBlockReference
  2
Tai treo 2
 10
254.4290628202143
 20
1124.4078768234976
 30
0.0
 41
-1.0
  0
INSERT
  5
51
330
17
100
AcDbEntity
  8
0
 62
0
100
AcDbBlockReference
  2
Tai treo 2
 10
854.4290628202143
 20
1924.4078768234976
 30
0.0
 41
-1.0
 50
180.0
  0
INSERT
  5
53
330
17
100
AcDbEntity
  8
0
 62
0
100
AcDbBlockReference
  2
Tai treo 2
 10
254.4290628202143
 20
1924.4078768234976
 30
0.0
 50
180.0
  0
DIMENSION
  5
55
330
17
100
AcDbEntity
  8
DIM
 62
7
100
AcDbDimension
280
0
  2
*D1
  3
Dim-25
 10
144.55433772690594
 20
1124.4078768234976
 30
0.0
 11
121.79001303380937
 21
1524.4078768234685
 31
0.0
 70
32
 71
5
 42
800.0
 73
0
 74
0
 75
0
100
AcDbAlignedDimension
 13
254.4290628202143
 23
1924.4078768234976
 33
0.0
 14
254.4290628202143
 24
1124.4078768234976
 34
0.0
 50
90.0
100
AcDbRotatedDimension
  0
DIMENSION
  5
5A
330
17
100
AcDbEntity
  8
DIM
 62
7
100
AcDbDimension
280
0
  2
*D2
  3
Dim-25
 10
854.4290628202143
 20
1052.3264025096214
 30
0.0
 11
554.4290628203016
 21
1075.0907272026598
 31
0.0
 70
32
 71
5
 42
600.0
 73
0
 74
0
 75
0
100
AcDbAlignedDimension
 13
254.4290628202143
 23
1124.4078768234976
 33
0.0
 14
854.4290628202143
 24
1124.4078768234976
 34
0.0
 50
0.0
100
AcDbRotatedDimension
  0
LWPOLYLINE
  5
5B
330
17
100
AcDbEntity
  8
0
 62
2
100
AcDbPolyline
 90
4
 70
1
 10
1648.4027857072942
 20
1841.407876823505
 10
1661.4027857072942
 20
1841.407876823505
 10
1661.4027857072942
 20
1832.407876823505
 10
1648.4027857072942
 20
1832.407876823505
  0
LWPOLYLINE
  5
5C
330
17
100
AcDbEntity
  8
0
 62
2
100
AcDbPolyline
 90
4
 70
1
 10
1648.4027857072942
 20
1816.4078768235195
 10
1661.4027857072942
 20
1816.4078768235195
 10
1661.4027857072942
 20
1807.4078768235195
 10
1648.4027857072942
 20
1807.4078768235195
  0
INSERT
  5
5D
330
17
100
AcDbEntity
  8
0
 62
7
100
AcDbBlockReference
  2
HL044-1.3-C
 10
1671.4027857072942
 20
1804.4078768234976
 30
0.0
  0
LWPOLYLINE
  5
5F
330
17
100
AcDbEntity
  8
0
 62
2
100
AcDbPolyline
 90
4
 70
1
 10
1648.4027857072942
 20
1207.407876823505
 10
1661.4027857072942
 20
1207.407876823505
 10
1661.4027857072942
 20
1216.407876823505
 10
1648.4027857072942
 20
1216.407876823505
  0
LWPOLYLINE
  5
60
330
17
100
AcDbEntity
  8
0
 62
2
100
AcDbPolyline
 90
4
 70
1
 10
1648.4027857072942
 20
1232.407876823505
 10
1661.4027857072942
 20
1232.407876823505
 10
1661.4027857072942
 20
1241.407876823505
 10
1648.4027857072942
 20
1241.407876823505
  0
INSERT
  5
61
330
17
100
AcDbEntity
  8
0
 62
7
100
AcDbBlockReference
  2
HL044-1.3-C
 10
1671.4027857072942
 20
1244.4078768234976
 30
0.0
 41
-1.0
 50
180.0
  0
INSERT
  5
63
330
17
100
AcDbEntity
  8
0
 62
7
100
AcDbBlockReference
  2
AB301-2-1
 10
333.8290628200921
 20
1559.657876823505
 30
0.0
  0
INSERT
  5
65
330
17
100
AcDbEntity
  8
0
 62
7
100
AcDbBlockReference
  2
HL044-1.3-C
 10
855.4290628202143
 20
1804.4078768234976
 30
0.0
  0
INSERT
  5
67
330
17
100
AcDbEntity
  8
0
 62
7
100
AcDbBlockReference
  2
HL044-1.3-C
 10
855.4290628202143
 20
1244.4078768234976
 30
0.0
 41
-1.0
 50
180.0
  0
CIRCLE
  5
69
330
17
100
AcDbEntity
  8
0
 62
2
100
AcDbCircle
 10
1161.3027857073175
 20
1799.5078768235398
 30
0.0
 40
11.0
  0
INSERT
  5
6A
330
17
100
AcDbEntity
  8
0
 62
7
100
AcDbBlockReference
  2
MS722
 10
1161.3027857073175
 20
1799.5078768235107
 30
0.0
  0
CIRCLE
  5
6C
330
17
100
AcDbEntity
  8
0
 62
2
100
AcDbCircle
 10
1161.3027857073175
 20
1249.3078768235791
 30
0.0
 40
11.0
  0
INSERT
  5
6D
330
17
100
AcDbEntity
  8
0
 62
7
100
AcDbBlockReference
  2
MS722
 10
1161.3027857073175
 20
1249.3078768235573
 30
0.0
  0
LWPOLYLINE
  5
6F
330
17
100
AcDbEntity
  8
0
 62
7
100
AcDbPolyline
 90
16
 70
1
 10
1639.2027857073117
 20
786.3696953986218
 10
1639.2027857073117
 20
774.3696953986218
 10
1669.202785707399
 20
774.3696953986218
 10
1669.202785707399
 20
994.9696953986277
 10
1071.6027857073059
 20
994.9696953986277
 10
1071.6027857073059
 20
774.3696953986218
 10
1101.6027857073059
 20
774.3696953986218
 10
1101.6027857073059
 20
786.3696953986218
 10
1102.8027857074048
 20
786.3696953986218
 10
1102.8027857074048
 20
773.1696953986175
 10
1070.4027857072942
 20
773.1696953986175
 10
1070.4027857072942
 20
996.1696953986175
 10
1670.4027857072942
 20
996.1696953986175
 10
1670.4027857072942
 20
773.1696953986175
 10
1638.0027857073
 20
773.1696953986175
 10
1638.0027857073
 20
786.3696953986218
  0
LWPOLYLINE
  5
70
330
17
100
AcDbEntity
  8
0
 62
3
100
AcDbPolyline
 90
8
 70
1
 10
1072.8027857074048
 20
856.3696953986218
 10
1072.8027857074048
 20
844.3696953986218
 10
1127.8027857074048
 20
844.3696953986218
 10
1127.8027857074048
 20
856.3696953986218
 10
1129.0027857073
 20
856.3696953986218
 10
1129.0027857073
 20
843.1696953986175
 10
1071.6027857073059
 20
843.1696953986175
 10
1071.6027857073059
 20
856.3696953986218
  0
LWPOLYLINE
  5
71
330
17
100
AcDbEntity
  8
0
 62
3
100
AcDbPolyline
 90
8
 70
1
 10
1668.0027857074165
 20
856.3696953986218
 10
1668.0027857074165
 20
844.3696953986218
 10
1613.0027857074165
 20
844.3696953986218
 10
1613.0027857074165
 20
856.3696953986218
 10
1611.8027857073175
 20
856.3696953986218
 10
1611.8027857073175
 20
843.1696953986175
 10
1669.202785707399
 20
843.1696953986175
 10
1669.202785707399
 20
856.3696953986218
  0
INSERT
  5
72
330
17
100
AcDbEntity
  8
0
 62
7
100
AcDbBlockReference
  2
HL003-2-3
 10
1616.7027857073117
 20
843.1696953986175
 30
0.0
 41
-1.0
 50
180.0
  0
LWPOLYLINE
  5
74
330
17
100
AcDbEntity
  8
0
 62
6
100
AcDbPolyline
 90
12
 70
1
 10
1620.5027857074165
 20
840.3696953986218
 10
1630.5027857074165
 20
840.3696953986218
 10
1630.5027857074165
 20
824.3696953986218
 10
1110.3027857074048
 20
824.3696953986218
 10
1110.3027857074048
 20
840.3696953986218
 10
1120.3027857073175
 20
840.3696953986218
 10
1120.3027857073175
 20
841.5696953986189
 10
1109.1027857073059
 20
841.5696953986189
 10
1109.1027857073059
 20
823.169695398632
 10
1631.702785707399
 20
823.169695398632
 10
1631.702785707399
 20
841.5696953986189
 10
1620.5027857074165
 20
841.5696953986189
  0
LWPOLYLINE
  5
75
330
17
100
AcDbEntity
  8
0
 62
1
100
AcDbPolyline
 90
8
 70
1
 10
1135.2027857073117
 20
994.9696953986277
 10
1135.2027857073117
 20
979.9696953986277
 10
1605.6027857073932
 20
979.9696953986277
 10
1605.6027857073932
 20
994.9696953986277
 10
1606.8027857073175
 20
994.9696953986277
 10
1606.8027857073175
 20
978.7696953986306
 10
1134.0027857073
 20
978.7696953986306
 10
1134.0027857073
 20
994.9696953986277
  0
LWPOLYLINE
  5
76
330
17
100
AcDbEntity
  8
0
 62
8
100
AcDbPolyline
 90
4
 70
1
 10
1608.1027857073059
 20
998.1696953986175
 10
1720.4027857072942
 20
998.1696953986175
 10
1720.4027857072942
 20
996.1696953986175
 10
1608.1027857073059
 20
996.1696953986175
  0
LWPOLYLINE
  5
77
330
17
100
AcDbEntity
  8
0
 62
8
100
AcDbPolyline
 90
4
 70
1
 10
1132.7027857073117
 20
998.1696953986175
 10
1020.4027857072942
 20
998.1696953986175
 10
1020.4027857072942
 20
996.1696953986175
 10
1132.7027857073117
 20
996.1696953986175
  0
LWPOLYLINE
  5
78
330
17
100
AcDbEntity
  8
0
 62
7
100
AcDbPolyline
 90
12
 70
1
 10
1656.2027857073117
 20
770.3696953986218
 10
1668.202785707399
 20
770.3696953986218
 10
1668.202785707399
 20
747.3696953986218
 10
1072.6027857073059
 20
747.3696953986218
 10
1072.6027857073059
 20
770.3696953986218
 10
1084.6027857073932
 20
770.3696953986218
 10
1084.6027857073932
 20
771.5696953986189
 10
1071.4027857072942
 20
771.5696953986189
 10
1071.4027857072942
 20
746.1696953986175
 10
1669.4027857072942
 20
746.1696953986175
 10
1669.4027857072942
 20
771.5696953986189
 10
1656.2027857073117
 20
771.5696953986189
  0
INSERT
  5
79
330
17
100
AcDbEntity
  8
0
 62
7
100
AcDbBlockReference
  2
HL044-1.3-B
 10
1669.4027857072942
 20
746.1696953986175
 30
0.0
  0
LWPOLYLINE
  5
7B
330
17
100
AcDbEntity
  8
0
 62
2
100
AcDbPolyline
 90
4
 70
1
 10
1630.202785707399
 20
1784.0078768234962
 10
1619.202785707399
 20
1784.0078768234962
 10
1619.202785707399
 20
1775.0078768235107
 10
1630.202785707399
 20
1775.0078768235107
  0
INSERT
  5
7C
330
17
100
AcDbEntity
  8
0
 62
7
100
AcDbBlockReference
  2
HL003-2-2
 10
1616.7027857073117
 20
1773.5078768235107
 30
0.0
  0
LWPOLYLINE
  5
7E
330
17
100
AcDbEntity
  8
0
 62
2
100
AcDbPolyline
 90
4
 70
1
 10
1630.202785707399
 20
1264.8078768235064
 10
1619.202785707399
 20
1264.8078768235064
 10
1619.202785707399
 20
1273.8078768235064
 10
1630.202785707399
 20
1273.8078768235064
  0
INSERT
  5
7F
330
17
100
AcDbEntity
  8
0
 62
7
100
AcDbBlockReference
  2
HL003-2-2
 10
1616.7027857073117
 20
1275.307876823521
 30
0.0
 41
-1.0
 50
180.0
  0
LWPOLYLINE
  5
81
330
17
100
AcDbEntity
  8
0
 62
7
100
AcDbPolyline
 90
16
 70
1
 10
2077.3457483311067
 20
1893.2078768235078
 10
2089.3457483311067
 20
1893.2078768235078
 10
2089.3457483311067
 20
1923.2078768235078
 10
1868.745748331101
 20
1923.2078768235078
 10
1868.745748331101
 20
1125.607876823502
 10
2089.3457483311067
 20
1125.607876823502
 10
2089.3457483311067
 20
1155.607876823502
 10
2077.3457483311067
 20
1155.607876823502
 10
2077.3457483311067
 20
1156.807876823499
 10
2090.5457483310893
 20
1156.807876823499
 10
2090.5457483310893
 20
1124.4078768234976
 10
1867.5457483310893
 20
1124.4078768234976
 10
1867.5457483310893
 20
1924.4078768234976
 10
2090.5457483310893
 20
1924.4078768234976
 10
2090.5457483310893
 20
1892.0078768235107
 10
2077.3457483311067
 20
1892.0078768235107
  0
LWPOLYLINE
  5
82
330
17
100
AcDbEntity
  8
0
 62
3
100
AcDbPolyline
 90
8
 70
1
 10
2007.3457483311067
 20
1126.807876823499
 10
2019.3457483311067
 20
1126.807876823499
 10
2019.3457483311067
 20
1181.807876823499
 10
2007.3457483311067
 20
1181.807876823499
 10
2007.3457483311067
 20
1183.0078768234962
 10
2020.5457483310893
 20
1183.0078768234962
 10
2020.5457483310893
 20
1125.607876823502
 10
2007.3457483311067
 20
1125.607876823502
  0
LWPOLYLINE
  5
83
330
17
100
AcDbEntity
  8
0
 62
3
100
AcDbPolyline
 90
8
 70
1
 10
2007.3457483311067
 20
1922.0078768235107
 10
2019.3457483311067
 20
1922.0078768235107
 10
2019.3457483311067
 20
1867.0078768235107
 10
2007.3457483311067
 20
1867.0078768235107
 10
2007.3457483311067
 20
1865.807876823521
 10
2020.5457483310893
 20
1865.807876823521
 10
2020.5457483310893
 20
1923.2078768235078
 10
2007.3457483311067
 20
1923.2078768235078
  0
LWPOLYLINE
  5
84
330
17
100
AcDbEntity
  8
0
 62
6
100
AcDbPolyline
 90
12
 70
1
 10
2023.3457483311067
 20
1874.5078768235107
 10
2023.3457483311067
 20
1884.5078768235107
 10
2039.3457483311067
 20
1884.5078768235107
 10
2039.3457483311067
 20
1164.307876823499
 10
2023.3457483311067
 20
1164.307876823499
 10
2023.3457483311067
 20
1174.307876823499
 10
2022.145748331095
 20
1174.307876823499
 10
2022.145748331095
 20
1163.107876823502
 10
2040.5457483310893
 20
1163.107876823502
 10
2040.5457483310893
 20
1885.7078768235078
 10
2022.145748331095
 20
1885.7078768235078
 10
2022.145748331095
 20
1874.5078768235107
  0
LWPOLYLINE
  5
85
330
17
100
AcDbEntity
  8
0
 62
1
100
AcDbPolyline
 90
8
 70
1
 10
1868.745748331101
 20
1189.2078768235078
 10
1883.745748331101
 20
1189.2078768235078
 10
1883.745748331101
 20
1859.6078768235166
 10
1868.745748331101
 20
1859.6078768235166
 10
1868.745748331101
 20
1860.8078768235064
 10
1884.9457483311126
 20
1860.8078768235064
 10
1884.9457483311126
 20
1188.0078768235107
 10
1868.745748331101
 20
1188.0078768235107
  0
LWPOLYLINE
  5
86
330
17
100
AcDbEntity
  8
0
 62
8
100
AcDbPolyline
 90
4
 70
1
 10
1865.5457483310893
 20
1862.107876823502
 10
1865.5457483310893
 20
1924.4078768234976
 10
1867.5457483310893
 20
1924.4078768234976
 10
1867.5457483310893
 20
1862.107876823502
  0
LWPOLYLINE
  5
87
330
17
100
AcDbEntity
  8
0
 62
8
100
AcDbPolyline
 90
4
 70
1
 10
1865.5457483310893
 20
1186.707876823515
 10
1865.5457483310893
 20
1124.4078768234976
 10
1867.5457483310893
 20
1124.4078768234976
 10
1867.5457483310893
 20
1186.707876823515
  0
LWPOLYLINE
  5
88
330
17
100
AcDbEntity
  8
0
 62
7
100
AcDbPolyline
 90
12
 70
1
 10
2093.3457483311067
 20
1910.2078768235078
 10
2093.3457483311067
 20
1922.2078768235078
 10
2116.3457483311067
 20
1922.2078768235078
 10
2116.3457483311067
 20
1126.607876823502
 10
2093.3457483311067
 20
1126.607876823502
 10
2093.3457483311067
 20
1138.607876823502
 10
2092.145748331095
 20
1138.607876823502
 10
2092.145748331095
 20
1125.407876823505
 10
2117.5457483310893
 20
1125.407876823505
 10
2117.5457483310893
 20
1923.407876823505
 10
2092.145748331095
 20
1923.407876823505
 10
2092.145748331095
 20
1910.2078768235078
  0
DIMENSION
  5
89
330
17
100
AcDbEntity
  8
DIM
 62
7
100
AcDbDimension
280
0
  2
*D3
  3
Dim-25
 10
2117.5457483310893
 20
1051.3264025096069
 30
0.0
 11
1992.5457483310893
 21
1074.0907272026598
 31
0.0
 70
32
 71
5
 42
250.0
 73
0
 74
0
 75
0
100
AcDbAlignedDimension
 13
1867.5457483310893
 23
1124.4078768234976
 33
0.0
 14
2117.5457483310893
 24
1125.407876823505
 34
0.0
 50
0.0
100
AcDbRotatedDimension
  0
DIMENSION
  5
8A
330
17
100
AcDbEntity
  8
DIM
 62
7
100
AcDbDimension
280
0
  2
*D4
  3
Dim-25
 10
1071.6027857073059
 20
687.1418768496151
 30
0.0
 11
1035.748079022509
 21
709.914728145668
 31
0.0
 70
32
 71
5
 42
30.0
 73
0
 74
0
 75
0
100
AcDbAlignedDimension
 13
1101.6027857073059
 23
774.3696953986218
 33
0.0
 14
1071.6027857073059
 24
774.3696953986218
 34
0.0
 50
0.0
100
AcDbRotatedDimension
  0
CIRCLE
  5
8B
330
17
100
AcDbEntity
  8
0
 62
2
100
AcDbCircle
 10
1154.0027857073
 20
1845.8078768235064
 30
0.0
 40
1.5
  0
INSERT
  5
8C
330
17
100
AcDbEntity
  8
CNC
370
-3
100
AcDbBlockReference
  2
ovan8.5x20
 10
1154.0027857074165
 20
1845.8078768235282
 30
0.0
 41
-1.0
 50
180.0
  0
CIRCLE
  5
8E
330
17
100
AcDbEntity
  8
0
 62
2
100
AcDbCircle
 10
1586.8027857073175
 20
1845.8078768235064
 30
0.0
 40
1.5
  0
INSERT
  5
8F
330
17
100
AcDbEntity
  8
CNC
370
-3
100
AcDbBlockReference
  2
ovan8.5x20
 10
1586.8027857073175
 20
1845.8078768235282
 30
0.0
 50
180.0
  0
CIRCLE
  5
91
330
17
100
AcDbEntity
  8
0
 62
2
100
AcDbCircle
 10
1154.0027857073
 20
1203.0078768235107
 30
0.0
 40
1.5
  0
INSERT
  5
92
330
17
100
AcDbEntity
  8
CNC
370
-3
100
AcDbBlockReference
  2
ovan8.5x20
 10
1154.0027857074165
 20
1203.007876823489
 30
0.0
  0
CIRCLE
  5
94
330
17
100
AcDbEntity
  8
0
 62
2
100
AcDbCircle
 10
1586.8027857073175
 20
1203.0078768235107
 30
0.0
 40
1.5
  0
INSERT
  5
95
330
17
100
AcDbEntity
  8
CNC
370
-3
100
AcDbBlockReference
  2
ovan8.5x20
 10
1586.8027857073175
 20
1203.007876823489
 30
0.0
 41
-1.0
  0
DIMENSION
  5
97
330
17
100
AcDbEntity
  8
DIM
 62
7
 48
3.0
100
AcDbDimension
280
0
  2
*D5
  3
Dim-25
 10
1013.5045540191059
 20
746.1696953986175
 30
0.0
 11
990.7402293260093
 21
871.1696953985884
 31
0.0
 70
32
 71
5
 42
250.0
 73
0
 74
0
 75
0
100
AcDbAlignedDimension
 13
1070.4027857072942
 23
996.1696953986175
 33
0.0
 14
1071.4027857072942
 24
746.1696953986175
 34
0.0
 50
90.0
100
AcDbRotatedDimension
  0
LWPOLYLINE
  5
98
330
17
100
AcDbEntity
  8
0
 62
7
100
AcDbPolyline
 90
16
 70
1
 10
823.2290628202027
 20
786.3696953986218
 10
823.2290628202027
 20
774.3696953986218
 10
853.2290628202027
 20
774.3696953986218
 10
853.2290628202027
 20
994.9696953986277
 10
255.62906282019685
 20
994.9696953986277
 10
255.62906282019685
 20
774.3696953986218
 10
285.62906282019685
 20
774.3696953986218
 10
285.62906282019685
 20
786.3696953986218
 10
286.8290628200921
 20
786.3696953986218
 10
286.8290628200921
 20
773.1696953986175
 10
254.4290628202143
 20
773.1696953986175
 10
254.4290628202143
 20
996.1696953986175
 10
854.4290628202143
 20
996.1696953986175
 10
854.4290628202143
 20
773.1696953986175
 10
822.029062820191
 20
773.1696953986175
 10
822.029062820191
 20
786.3696953986218
  0
LWPOLYLINE
  5
99
330
17
100
AcDbEntity
  8
0
 62
3
100
AcDbPolyline
 90
8
 70
1
 10
256.8290628202085
 20
856.3696953986218
 10
256.8290628202085
 20
844.3696953986218
 10
311.8290628202085
 20
844.3696953986218
 10
311.8290628202085
 20
856.3696953986218
 10
313.02906282019103
 20
856.3696953986218
 10
313.02906282019103
 20
843.1696953986175
 10
255.62906282019685
 20
843.1696953986175
 10
255.62906282019685
 20
856.3696953986218
  0
LWPOLYLINE
  5
9A
330
17
100
AcDbEntity
  8
0
 62
3
100
AcDbPolyline
 90
8
 70
1
 10
852.029062820191
 20
856.3696953986218
 10
852.029062820191
 20
844.3696953986218
 10
797.029062820191
 20
844.3696953986218
 10
797.029062820191
 20
856.3696953986218
 10
795.8290628202085
 20
856.3696953986218
 10
795.8290628202085
 20
843.1696953986175
 10
853.2290628202027
 20
843.1696953986175
 10
853.2290628202027
 20
856.3696953986218
  0
INSERT
  5
9B
330
17
100
AcDbEntity
  8
0
 62
7
100
AcDbBlockReference
  2
HL003-2-3
 10
800.7290628202027
 20
843.1696953986175
 30
0.0
 41
-1.0
 50
180.0
  0
LWPOLYLINE
  5
9D
330
17
100
AcDbEntity
  8
0
 62
6
100
AcDbPolyline
 90
12
 70
1
 10
804.529062820191
 20
840.3696953986218
 10
814.529062820191
 20
840.3696953986218
 10
814.529062820191
 20
824.3696953986218
 10
294.3290628202085
 20
824.3696953986218
 10
294.3290628202085
 20
840.3696953986218
 10
304.3290628202085
 20
840.3696953986218
 10
304.3290628202085
 20
841.5696953986189
 10
293.12906282019685
 20
841.5696953986189
 10
293.12906282019685
 20
823.169695398632
 10
815.7290628202027
 20
823.169695398632
 10
815.7290628202027
 20
841.5696953986189
 10
804.529062820191
 20
841.5696953986189
  0
LWPOLYLINE
  5
9E
330
17
100
AcDbEntity
  8
0
 62
7
100
AcDbPolyline
 90
8
 70
1
 10
319.22906282020267
 20
994.9696953986277
 10
319.22906282020267
 20
979.9696953986277
 10
789.6290628201969
 20
979.9696953986277
 10
789.6290628201969
 20
994.9696953986277
 10
790.8290628202085
 20
994.9696953986277
 10
790.8290628202085
 20
978.7696953986306
 10
318.02906282019103
 20
978.7696953986306
 10
318.02906282019103
 20
994.9696953986277
  0
LWPOLYLINE
  5
9F
330
17
100
AcDbEntity
  8
0
 62
8
100
AcDbPolyline
 90
4
 70
1
 10
792.1290628201969
 20
998.1696953986175
 10
904.4290628202143
 20
998.1696953986175
 10
904.4290628202143
 20
996.1696953986175
 10
792.1290628201969
 20
996.1696953986175
  0
LWPOLYLINE
  5
A0
330
17
100
AcDbEntity
  8
0
 62
8
100
AcDbPolyline
 90
4
 70
1
 10
316.72906282020267
 20
998.1696953986175
 10
204.4290628202143
 20
998.1696953986175
 10
204.4290628202143
 20
996.1696953986175
 10
316.72906282020267
 20
996.1696953986175
  0
LWPOLYLINE
  5
A1
330
17
100
AcDbEntity
  8
0
 62
7
100
AcDbPolyline
 90
12
 70
1
 10
840.2290628202027
 20
770.3696953986218
 10
852.2290628202027
 20
770.3696953986218
 10
852.2290628202027
 20
747.3696953986218
 10
256.62906282019685
 20
747.3696953986218
 10
256.62906282019685
 20
770.3696953986218
 10
268.62906282019685
 20
770.3696953986218
 10
268.62906282019685
 20
771.5696953986189
 10
255.4290628202143
 20
771.5696953986189
 10
255.4290628202143
 20
746.1696953986175
 10
853.4290628202143
 20
746.1696953986175
 10
853.4290628202143
 20
771.5696953986189
 10
840.2290628202027
 20
771.5696953986189
  0
INSERT
  5
A2
330
17
100
AcDbEntity
  8
0
 62
7
100
AcDbBlockReference
  2
HL044-1.3-B
 10
853.4290628202143
 20
746.1696953986175
 30
0.0
  0
DIMENSION
  5
A4
330
17
100
AcDbEntity
  8
DIM
 62
7
100
AcDbDimension
280
0
  2
*D6
  3
Dim-25
 10
255.62906282019685
 20
687.1418768496151
 30
0.0
 11
219.7743561353127
 21
709.914728145668
 31
0.0
 70
32
 71
5
 42
30.0
 73
0
 74
0
 75
0
100
AcDbAlignedDimension
 13
285.62906282019685
 23
774.3696953986218
 33
0.0
 14
255.62906282019685
 24
774.3696953986218
 34
0.0
 50
0.0
100
AcDbRotatedDimension
  0
DIMENSION
  5
A5
330
17
100
AcDbEntity
  8
DIM
 62
7
 48
3.0
100
AcDbDimension
280
0
  2
*D7
  3
Dim-25
 10
197.5308311319095
 20
746.1696953986175
 30
0.0
 11
174.76650643890025
 21
871.1696953985884
 31
0.0
 70
32
 71
5
 42
250.0
 73
0
 74
0
 75
0
100
AcDbAlignedDimension
 13
254.4290628202143
 23
996.1696953986175
 33
0.0
 14
255.4290628202143
 24
746.1696953986175
 34
0.0
 50
90.0
100
AcDbRotatedDimension
  0
LWPOLYLINE
  5
A6
330
17
100
AcDbEntity
  8
0
 62
2
100
AcDbPolyline
 90
4
 70
1
 10
429.4290628202143
 20
966.169695398632
 10
679.4290628202143
 20
966.169695398632
 10
679.4290628202143
 20
866.1696953986175
 10
429.4290628202143
 20
866.1696953986175
  0
LWPOLYLINE
  5
A7
330
17
100
AcDbEntity
  8
0
 62
7
100
AcDbPolyline
 90
4
 70
1
 10
409.4290628202143
 20
976.169695398632
 10
699.4290628202143
 20
976.169695398632
 10
699.4290628202143
 20
856.169695398632
 10
409.4290628202143
 20
856.169695398632
  0
LWPOLYLINE
  5
A8
330
17
100
AcDbEntity
  8
0
 62
2
100
AcDbPolyline
 90
4
 70
1
 10
684.1790628202143
 20
911.669695398632
 10
693.1790628202143
 20
911.669695398632
 10
693.1790628202143
 20
920.669695398632
 10
684.1790628202143
 20
920.669695398632
  0
LWPOLYLINE
  5
A9
330
17
100
AcDbEntity
  8
0
 62
2
100
AcDbPolyline
 90
4
 70
1
 10
424.6790628202143
 20
911.669695398632
 10
415.6790628202143
 20
911.669695398632
 10
415.6790628202143
 20
920.669695398632
 10
424.6790628202143
 20
920.669695398632
  0
CIRCLE
  5
AA
330
17
100
AcDbEntity
  8
0
 62
7
100
AcDbCircle
 10
688.6790628202143
 20
916.1696953986175
 30
0.0
 40
4.0
  0
CIRCLE
  5
AB
330
17
100
AcDbEntity
  8
0
 62
7
100
AcDbCircle
 10
420.1790628202143
 20
916.1696953986175
 30
0.0
 40
4.0
  0
DIMENSION
  5
AC
330
17
100
AcDbEntity
  8
DIM
 62
7
 48
3.0
100
AcDbDimension
280
0
  2
*D8
  3
Dim-25
 10
916.9104201364971
 20
843.1696953986175
 30
0.0
 11
894.146095443517
 21
808.1696953985884
 31
0.0
 70
32
 71
5
 42
70.0
 73
0
 74
0
 75
0
100
AcDbAlignedDimension
 13
854.4290628202143
 23
773.1696953986175
 33
0.0
 14
853.2290628202027
 24
843.1696953986175
 34
0.0
 50
90.0
100
AcDbRotatedDimension
  0
LWPOLYLINE
  5
AD
330
17
100
AcDbEntity
  8
0
 62
7
100
AcDbPolyline
 90
16
 70
1
 10
2579.857587567705
 20
1893.2078768235078
 10
2591.857587567705
 20
1893.2078768235078
 10
2591.857587567705
 20
1923.2078768235078
 10
2371.2575875676994
 20
1923.2078768235078
 10
2371.2575875676994
 20
1125.607876823502
 10
2591.857587567705
 20
1125.607876823502
 10
2591.857587567705
 20
1155.607876823502
 10
2579.857587567705
 20
1155.607876823502
 10
2579.857587567705
 20
1156.807876823499
 10
2593.057587567717
 20
1156.807876823499
 10
2593.057587567717
 20
1124.4078768234976
 10
2370.057587567717
 20
1124.4078768234976
 10
2370.057587567717
 20
1924.4078768234976
 10
2593.057587567717
 20
1924.4078768234976
 10
2593.057587567717
 20
1892.0078768235107
 10
2579.857587567705
 20
1892.0078768235107
  0
LWPOLYLINE
  5
AE
330
17
100
AcDbEntity
  8
0
 62
8
100
AcDbPolyline
 90
4
 70
1
 10
2368.057587567717
 20
1862.107876823502
 10
2368.057587567717
 20
1924.4078768234976
 10
2370.057587567717
 20
1924.4078768234976
 10
2370.057587567717
 20
1862.107876823502
  0
LWPOLYLINE
  5
AF
330
17
100
AcDbEntity
  8
0
 62
8
100
AcDbPolyline
 90
4
 70
1
 10
2368.057587567717
 20
1186.707876823515
 10
2368.057587567717
 20
1124.4078768234976
 10
2370.057587567717
 20
1124.4078768234976
 10
2370.057587567717
 20
1186.707876823515
  0
LWPOLYLINE
  5
B0
330
17
100
AcDbEntity
  8
0
 62
7
100
AcDbPolyline
 90
12
 70
1
 10
2595.857587567705
 20
1910.2078768235078
 10
2595.857587567705
 20
1922.2078768235078
 10
2618.857587567705
 20
1922.2078768235078
 10
2618.857587567705
 20
1126.607876823502
 10
2595.857587567705
 20
1126.607876823502
 10
2595.857587567705
 20
1138.607876823502
 10
2594.6575875676936
 20
1138.607876823502
 10
2594.6575875676936
 20
1125.407876823505
 10
2620.057587567717
 20
1125.407876823505
 10
2620.057587567717
 20
1923.407876823505
 10
2594.6575875676936
 20
1923.407876823505
 10
2594.6575875676936
 20
1910.2078768235078
  0
DIMENSION
  5
B1
330
17
100
AcDbEntity
  8
DIM
 62
7
100
AcDbDimension
280
0
  2
*D9
  3
Dim-25
 10
2620.057587567717
 20
1051.3264025096069
 30
0.0
 11
2495.057587567717
 21
1074.0907272026598
 31
0.0
 70
32
 71
5
 42
250.0
 73
0
 74
0
 75
0
100
AcDbAlignedDimension
 13
2370.057587567717
 23
1124.4078768234976
 33
0.0
 14
2620.057587567717
 24
1125.407876823505
 34
0.0
 50
0.0
100
AcDbRotatedDimension
  0
LWPOLYLINE
  5
B2
330
17
100
AcDbEntity
  8
0
 62
2
100
AcDbPolyline
 90
6
 70
1
 10
2449.7575875676994
 20
1803.2078768235078
 10
2513.7575875676994
 20
1803.2078768235078
 42
-0.4142135623730951
 10
2521.7575875676994
 20
1795.2078768235078
 10
2521.7575875676994
 20
1792.2078768235078
 10
2441.7575875676994
 20
1792.2078768235078
 10
2441.7575875676994
 20
1795.2078768235078
 42
-0.4142135623730951
  0
LWPOLYLINE
  5
B3
330
17
100
AcDbEntity
  8
0
 62
2
100
AcDbPolyline
 90
6
 70
1
 10
2449.7575875676994
 20
1772.2078768235078
 10
2513.7575875676994
 20
1772.2078768235078
 42
-0.4142135623730951
 10
2521.7575875676994
 20
1764.2078768235078
 10
2521.7575875676994
 20
1761.2078768235078
 10
2441.7575875676994
 20
1761.2078768235078
 10
2441.7575875676994
 20
1764.2078768235078
 42
-0.4142135623730951
  0
LWPOLYLINE
  5
B4
330
17
100
AcDbEntity
  8
0
 62
2
100
AcDbPolyline
 90
6
 70
1
 10
2449.7575875676994
 20
1741.2078768235078
 10
2513.7575875676994
 20
1741.2078768235078
 42
-0.4142135623730951
 10
2521.7575875676994
 20
1733.2078768235078
 10
2521.7575875676994
 20
1730.2078768235078
 10
2441.7575875676994
 20
1730.2078768235078
 10
2441.7575875676994
 20
1733.2078768235078
 42
-0.4142135623730951
  0
LWPOLYLINE
  5
B5
330
17
100
AcDbEntity
  8
0
 62
2
100
AcDbPolyline
 90
6
 70
1
 10
2449.7575875676994
 20
1710.2078768235078
 10
2513.7575875676994
 20
1710.2078768235078
 42
-0.4142135623730951
 10
2521.7575875676994
 20
1702.2078768235078
 10
2521.7575875676994
 20
1699.2078768235078
 10
2441.7575875676994
 20
1699.2078768235078
 10
2441.7575875676994
 20
1702.2078768235078
 42
-0.4142135623730951
  0
LWPOLYLINE
  5
B6
330
17
100
AcDbEntity
  8
0
 62
2
100
AcDbPolyline
 90
6
 70
1
 10
2449.7575875676994
 20
1349.607876823502
 10
2513.7575875676994
 20
1349.607876823502
 42
-0.4142135623730951
 10
2521.7575875676994
 20
1341.607876823502
 10
2521.7575875676994
 20
1338.607876823502
 10
2441.7575875676994
 20
1338.607876823502
 10
2441.7575875676994
 20
1341.607876823502
 42
-0.4142135623730951
  0
LWPOLYLINE
  5
B7
330
17
100
AcDbEntity
  8
0
 62
2
100
AcDbPolyline
 90
6
 70
1
 10
2449.7575875676994
 20
1318.607876823502
 10
2513.7575875676994
 20
1318.607876823502
 42
-0.4142135623730951
 10
2521.7575875676994
 20
1310.607876823502
 10
2521.7575875676994
 20
1307.607876823502
 10
2441.7575875676994
 20
1307.607876823502
 10
2441.7575875676994
 20
1310.607876823502
 42
-0.4142135623730951
  0
LWPOLYLINE
  5
B8
330
17
100
AcDbEntity
  8
0
 62
2
100
AcDbPolyline
 90
6
 70
1
 10
2449.7575875676994
 20
1287.607876823502
 10
2513.7575875676994
 20
1287.607876823502
 42
-0.4142135623730951
 10
2521.7575875676994
 20
1279.607876823502
 10
2521.7575875676994
 20
1276.607876823502
 10
2441.7575875676994
 20
1276.607876823502
 10
2441.7575875676994
 20
1279.607876823502
 42
-0.4142135623730951
  0
LWPOLYLINE
  5
B9
330
17
100
AcDbEntity
  8
0
 62
2
100
AcDbPolyline
 90
6
 70
1
 10
2449.7575875676994
 20
1256.607876823502
 10
2513.7575875676994
 20
1256.607876823502
 42
-0.4142135623730951
 10
2521.7575875676994
 20
1248.607876823502
 10
2521.7575875676994
 20
1245.607876823502
 10
2441.7575875676994
 20
1245.607876823502
 10
2441.7575875676994
 20
1248.607876823502
 42
-0.4142135623730951
  0
LINE
  5
BA
330
17
100
AcDbEntity
  8
0
 48
3.0
100
AcDbLine
 10
1653.9027857072942
 20
773.1696953986175
 30
0.0
 11
1659.9027857072942
 21
773.1696953986175
 31
0.0
  0
LINE
  5
BB
330
17
100
AcDbEntity
  8
0
 48
3.0
100
AcDbLine
 10
1656.9027857072942
 20
773.1696953986175
 30
0.0
 11
1656.9027857072942
 21
777.2825412503807
 31
0.0
  0
LINE
  5
BC
330
17
100
AcDbEntity
  8
0
 48
3.0
100
AcDbLine
 10
1656.9027857072942
 20
777.2825412503807
 30
0.0
 11
1669.202785707399
 21
777.2825412503807
 31
0.0
  0
LWPOLYLINE
  5
BD
330
17
100
AcDbEntity
  8
0
 62
3
100
AcDbPolyline
 90
4
 70
1
 10
313.02906282019103
 20
856.3696953986218
 10
795.8290628202085
 20
856.3696953986218
 10
795.8290628202085
 20
843.1696953986175
 10
313.02906282019103
 20
843.1696953986175
  0
CIRCLE
  5
BE
330
17
100
AcDbEntity
  8
0
 62
2
 48
3.0
100
AcDbCircle
 10
1630.5027857074165
 20
1734.5078768235107
 30
0.0
 40
11.5
  0
LWPOLYLINE
  5
BF
330
17
100
AcDbEntity
  8
0
  6
HIDDEN2
 62
1
100
AcDbPolyline
 90
4
 70
1
 10
1135.2027857073117
 20
1859.6078768235166
 10
1605.6027857073932
 20
1859.6078768235166
 10
1605.6027857073932
 20
1189.2078768235078
 10
1135.2027857073117
 20
1189.2078768235078
  0
ENDSEC
  0
SECTION
  2
OBJECTS
  0
DICTIONARY
  5
A
330
0
100
AcDbDictionary
281
1
  3
ACAD_COLOR
350
B
  3
ACAD_GROUP
350
C
  3
ACAD_LAYOUT
350
D
  3
ACAD_MATERIAL
350
E
  3
ACAD_MLEADERSTYLE
350
F
  3
ACAD_MLINESTYLE
350
10
  3
ACAD_PLOTSETTINGS
350
11
  3
ACAD_PLOTSTYLENAME
350
12
  3
ACAD_SCALELIST
350
14
  3
ACAD_TABLESTYLE
350
15
  3
ACAD_VISUALSTYLE
350
16
  3
EZDXF_META
350
2D
  0
DICTIONARY
  5
B
330
A
100
AcDbDictionary
281
1
  0
DICTIONARY
  5
C
330
A
100
AcDbDictionary
281
1
  0
DICTIONARY
  5
D
330
A
100
AcDbDictionary
281
1
  3
Model
350
1A
  3
Layout1
350
1E
  0
DICTIONARY
  5
E
330
A
100
AcDbDictionary
281
1
  3
ByBlock
350
1F
  3
ByLayer
350
20
  3
Global
350
21
  0
DICTIONARY
  5
F
330
A
100
AcDbDictionary
281
1
  3
Standard
350
2C
  0
DICTIONARY
  5
10
330
A
100
AcDbDictionary
281
1
  3
Standard
350
22
  0
DICTIONARY
  5
11
330
A
100
AcDbDictionary
281
1
  0
ACDBDICTIONARYWDFLT
  5
12
330
A
100
AcDbDictionary
281
1
  3
Normal
350
13
100
AcDbDictionaryWithDefault
340
13
  0
ACDBPLACEHOLDER
  5
13
330
12
  0
DICTIONARY
  5
14
330
A
100
AcDbDictionary
281
1
  0
DICTIONARY
  5
15
330
A
100
AcDbDictionary
281
1
  0
DICTIONARY
  5
16
330
A
100
AcDbDictionary
281
1
  0
LAYOUT
  5
1A
330
D
100
AcDbPlotSettings
  1

  4
A3
  6

 40
7.5
 41
20.0
 42
7.5
 43
20.0
 44
420.0
 45
297.0
 46
0.0
 47
0.0
 48
0.0
 49
0.0
140
0.0
141
0.0
142
1.0
143
1.0
 70
1024
 72
1
 73
0
 74
5
  7

 75
16
 76
0
 77
2
 78
300
147
1.0
148
0.0
149
0.0
100
AcDbLayout
  1
Model
 70
1
 71
0
 10
0.0
 20
0.0
 11
420.0
 21
297.0
 12
0.0
 22
0.0
 32
0.0
 14
1e+20
 24
1e+20
 34
1e+20
 15
-1e+20
 25
-1e+20
 35
-1e+20
146
0.0
 13
0.0
 23
0.0
 33
0.0
 16
1.0
 26
0.0
 36
0.0
 17
0.0
 27
1.0
 37
0.0
 76
1
330
17
  0
LAYOUT
  5
1E
330
D
100
AcDbPlotSettings
  1

  4
A3
  6

 40
7.5
 41
20.0
 42
7.5
 43
20.0
 44
420.0
 45
297.0
 46
0.0
 47
0.0
 48
0.0
 49
0.0
140
0.0
141
0.0
142
1.0
143
1.0
 70
0
 72
1
 73
0
 74
5
  7

 75
16
 76
0
 77
2
 78
300
147
1.0
148
0.0
149
0.0
100
AcDbLayout
  1
Layout1
 70
1
 71
1
 10
0.0
 20
0.0
 11
420.0
 21
297.0
 12
0.0
 22
0.0
 32
0.0
 14
1e+20
 24
1e+20
 34
1e+20
 15
-1e+20
 25
-1e+20
 35
-1e+20
146
0.0
 13
0.0
 23
0.0
 33
0.0
 16
1.0
 26
0.0
 36
0.0
 17
0.0
 27
1.0
 37
0.0
 76
1
330
1B
  0
MATERIAL
  5
1F
102
{ACAD_REACTORS
330
E
102
}
330
E
100
AcDbMaterial
  1
ByBlock
  2

 70
0
 40
1.0
 71
1
 41
1.0
 91
-1023410177
 42
1.0
 72
1
  3

 73
1
 74
1
 75
1
 44
0.5
 73
0
 45
1.0
 46
1.0
 77
1
  4

 78
1
 79
1
170
1
 48
1.0
171
1
  6

172
1
173
1
174
1
140
1.0
141
1.0
175
1
  7

176
1
177
1
178
1
143
1.0
179
1
  8

270
1
271
1
272
1
145
1.0
146
1.0
273
1
  9

274
1
275
1
276
1
 42
1.0
 72
1
  3

 73
1
 74
1
 75
1
 94
63
  0
MATERIAL
  5
20
102
{ACAD_REACTORS
330
E
102
}
330
E
100
AcDbMaterial
  1
ByLayer
  2

 70
0
 40
1.0
 71
1
 41
1.0
 91
-1023410177
 42
1.0
 72
1
  3

 73
1
 74
1
 75
1
 44
0.5
 73
0
 45
1.0
 46
1.0
 77
1
  4

 78
1
 79
1
170
1
 48
1.0
171
1
  6

172
1
173
1
174
1
140
1.0
141
1.0
175
1
  7

176
1
177
1
178
1
143
1.0
179
1
  8

270
1
271
1
272
1
145
1.0
146
1.0
273
1
  9

274
1
275
1
276
1
 42
1.0
 72
1
  3

 73
1
 74
1
 75
1
 94
63
  0
MATERIAL
  5
21
102
{ACAD_REACTORS
330
E
102
}
330
E
100
AcDbMaterial
  1
Global
  2

 70
0
 40
1.0
 71
1
 41
1.0
 91
-1023410177
 42
1.0
 72
1
  3

 73
1
 74
1
 75
1
 44
0.5
 73
0
 45
1.0
 46
1.0
 77
1
  4

 78
1
 79
1
170
1
 48
1.0
171
1
  6

172
1
173
1
174
1
140
1.0
141
1.0
175
1
  7

176
1
177
1
178
1
143
1.0
179
1
  8

270
1
271
1
272
1
145
1.0
146
1.0
273
1
  9

274
1
275
1
276
1
 42
1.0
 72
1
  3

 73
1
 74
1
 75
1
 94
63
  0
MLINESTYLE
  5
22
102
{ACAD_REACTORS
330
10
102
}
330
10
100
AcDbMlineStyle
  2
Standard
 70
0
  3

 62
256
 51
90.0
 52
90.0
 71
2
 49
0.5
 62
256
  6
BYLAYER
 49
-0.5
 62
256
  6
BYLAYER
  0
MLEADERSTYLE
  5
2C
102
{ACAD_REACTORS
330
F
102
}
330
F
100
AcDbMLeaderStyle
179
2
170
2
171
1
172
0
 90
2
 40
0.0
 41
0.0
173
1
 91
-1056964608
 92
-2
290
1
 42
2.0
291
1
 43
8.0
  3
Standard
 44
4.0
300

342
29
174
1
175
1
176
0
178
1
 93
-1056964608
 45
4.0
292
0
297
0
 46
4.0
 94
-1056964608
 47
1.0
 49
1.0
140
1.0
294
1
141
0.0
177
0
142
1.0
295
0
296
0
143
3.75
271
0
272
9
273
9
  0
DICTIONARY
  5
2D
330
A
100
AcDbDictionary
280
1
281
1
  3
CREATED_BY_EZDXF
350
2E
  3
WRITTEN_BY_EZDXF
350
186
  0
DICTIONARYVAR
  5
2E
330
2D
100
DictionaryVariables
280
0
  1
1.4.4 @ 2026-09-24T06:32:12.927973+00:00
  0
DICTIONARYVAR
  5
186
330
2D
100
DictionaryVariables
280
0
  1
1.4.4 @ 2026-09-24T06:37:41.903080+00:00
  0
ENDSEC
  0
EOF
