  0
SECTION
  2
HEADER
  9
$ACADVER
  1
AC1032
  9
$ACADMAINTVER
 90
4
  9
$DWGCODEPAGE
  3
ANSI_1252
  9
$LASTSAVEDBY
  1
ezdxf
  9
$REQUIREDVERSIONS
160
0
  9
$INSBASE
 10
0.0
 20
0.0
 30
0.0
  9
$EXTMIN
 10
1e+20
 20
1e+20
 30
1e+20
  9
$EXTMAX
 10
-1e+20
 20
-1e+20
 30
-1e+20
  9
$LIMMIN
 10
0.0
 20
0.0
  9
$LIMMAX
 10
420.0
 20
297.0
  9
$ORTHOMODE
 70
0
  9
$REGENMODE
 70
1
  9
$FILLMODE
 70
1
  9
$QTEXTMODE
 70
0
  9
$MIRRTEXT
 70
1
  9
$LTSCALE
 40
1.0
  9
$ATTMODE
 70
1
  9
$TEXTSIZE
 40
2.5
  9
$TRACEWID
 40
1.0
  9
$TEXTSTYLE
  7
Standard
  9
$CLAYER
  8
0
  9
$CELTYPE
  6
ByLayer
  9
$CECOLOR
 62
256
  9
$CELTSCALE
 40
1.0
  9
$DISPSILH
 70
0
  9
$DIMSCALE
 40
1.0
  9
$DIMASZ
 40
2.5
  9
$DIMEXO
 40
0.625
  9
$DIMDLI
 40
3.75
  9
$DIMRND
 40
0.0
  9
$DIMDLE
 40
0.0
  9
$DIMEXE
 40
1.25
  9
$DIMTP
 40
0.0
  9
$DIMTM
 40
0.0
  9
$DIMTXT
 40
2.5
  9
$DIMCEN
 40
2.5
  9
$DIMTSZ
 40
0.0
  9
$DIMTOL
 70
0
  9
$DIMLIM
 70
0
  9
$DIMTIH
 70
0
  9
$DIMTOH
 70
0
  9
$DIMSE1
 70
0
  9
$DIMSE2
 70
0
  9
$DIMTAD
 70
1
  9
$DIMZIN
 70
8
  9
$DIMBLK
  1

  9
$DIMASO
 70
1
  9
$DIMSHO
 70
1
  9
$DIMPOST
  1

  9
$DIMAPOST
  1

  9
$DIMALT
 70
0
  9
$DIMALTD
 70
3
  9
$DIMALTF
 40
0.03937007874
  9
$DIMLFAC
 40
1.0
  9
$DIMTOFL
 70
1
  9
$DIMTVP
 40
0.0
  9
$DIMTIX
 70
0
  9
$DIMSOXD
 70
0
  9
$DIMSAH
 70
0
  9
$DIMBLK1
  1

  9
$DIMBLK2
  1

  9
$DIMSTYLE
  2
ISO-25
  9
$DIMCLRD
 70
0
  9
$DIMCLRE
 70
0
  9
$DIMCLRT
 70
0
  9
$DIMTFAC
 40
1.0
  9
$DIMGAP
 40
0.625
  9
$DIMJUST
 70
0
  9
$DIMSD1
 70
0
  9
$DIMSD2
 70
0
  9
$DIMTOLJ
 70
0
  9
$DIMTZIN
 70
8
  9
$DIMALTZ
 70
0
  9
$DIMALTTZ
 70
0
  9
$DIMUPT
 70
0
  9
$DIMDEC
 70
2
  9
$DIMTDEC
 70
2
  9
$DIMALTU
 70
2
  9
$DIMALTTD
 70
3
  9
$DIMTXSTY
  7
Standard
  9
$DIMAUNIT
 70
0
  9
$DIMADEC
 70
0
  9
$DIMALTRND
 40
0.0
  9
$DIMAZIN
 70
0
  9
$DIMDSEP
 70
44
  9
$DIMATFIT
 70
3
  9
$DIMFRAC
 70
0
  9
$DIMLDRBLK
  1

  9
$DIMLUNIT
 70
2
  9
$DIMLWD
 70
-2
  9
$DIMLWE
 70
-2
  9
$DIMTMOVE
 70
0
  9
$DIMFXL
 40
1.0
  9
$DIMFXLON
 70
0
  9
$DIMJOGANG
 40
0.785398163397
  9
$DIMTFILL
 70
0
  9
$DIMTFILLCLR
 70
0
  9
$DIMARCSYM
 70
0
  9
$DIMLTYPE
  6

  9
$DIMLTEX1
  6

  9
$DIMLTEX2
  6

  9
$DIMTXTDIRECTION
 70
0
  9
$LUNITS
 70
2
  9
$LUPREC
 70
4
  9
$SKETCHINC
 40
1.0
  9
$FILLETRAD
 40
10.0
  9
$AUNITS
 70
0
  9
$AUPREC
 70
2
  9
$MENU
  1
.
  9
$ELEVATION
 40
0.0
  9
$PELEVATION
 40
0.0
  9
$THICKNESS
 40
0.0
  9
$LIMCHECK
 70
0
  9
$CHAMFERA
 40
0.0
  9
$CHAMFERB
 40
0.0
  9
$CHAMFERC
 40
0.0
  9
$CHAMFERD
 40
0.0
  9
$SKPOLY
 70
0
  9
$TDCREATE
 40
2461308.5675578704
  9
$TDUCREATE
 40
2458532.153996898
  9
$TDUPDATE
 40
2461308.5675578704
  9
$TDUUPDATE
 40
2458532.1544311
  9
$TDINDWG
 40
0.0
  9
$TDUSRTIMER
 40
0.0
  9
$USRTIMER
 70
1
  9
$ANGBASE
 50
0.0
  9
$ANGDIR
 70
0
  9
$PDMODE
 70
0
  9
$PDSIZE
 40
0.0
  9
$PLINEWID
 40
0.0
  9
$SPLFRAME
 70
0
  9
$SPLINETYPE
 70
6
  9
$SPLINESEGS
 70
8
  9
$HANDSEED
  5
17F
  9
$SURFTAB1
 70
6
  9
$SURFTAB2
 70
6
  9
$SURFTYPE
 70
6
  9
$SURFU
 70
6
  9
$SURFV
 70
6
  9
$UCSBASE
  2

  9
$UCSNAME
  2

  9
$UCSORG
 10
0.0
 20
0.0
 30
0.0
  9
$UCSXDIR
 10
1.0
 20
0.0
 30
0.0
  9
$UCSYDIR
 10
0.0
 20
1.0
 30
0.0
  9
$UCSORTHOREF
  2

  9
$UCSORTHOVIEW
 70
0
  9
$UCSORGTOP
 10
0.0
 20
0.0
 30
0.0
  9
$UCSORGBOTTOM
 10
0.0
 20
0.0
 30
0.0
  9
$UCSORGLEFT
 10
0.0
 20
0.0
 30
0.0
  9
$UCSORGRIGHT
 10
0.0
 20
0.0
 30
0.0
  9
$UCSORGFRONT
 10
0.0
 20
0.0
 30
0.0
  9
$UCSORGBACK
 10
0.0
 20
0.0
 30
0.0
  9
$PUCSBASE
  2

  9
$PUCSNAME
  2

  9
$PUCSORG
 10
0.0
 20
0.0
 30
0.0
  9
$PUCSXDIR
 10
1.0
 20
0.0
 30
0.0
  9
$PUCSYDIR
 10
0.0
 20
1.0
 30
0.0
  9
$PUCSORTHOREF
  2

  9
$PUCSORTHOVIEW
 70
0
  9
$PUCSORGTOP
 10
0.0
 20
0.0
 30
0.0
  9
$PUCSORGBOTTOM
 10
0.0
 20
0.0
 30
0.0
  9
$PUCSORGLEFT
 10
0.0
 20
0.0
 30
0.0
  9
$PUCSORGRIGHT
 10
0.0
 20
0.0
 30
0.0
  9
$PUCSORGFRONT
 10
0.0
 20
0.0
 30
0.0
  9
$PUCSORGBACK
 10
0.0
 20
0.0
 30
0.0
  9
$USERI1
 70
0
  9
$USERI2
 70
0
  9
$USERI3
 70
0
  9
$USERI4
 70
0
  9
$USERI5
 70
0
  9
$USERR1
 40
0.0
  9
$USERR2
 40
0.0
  9
$USERR3
 40
0.0
  9
$USERR4
 40
0.0
  9
$USERR5
 40
0.0
  9
$WORLDVIEW
 70
1
  9
$SHADEDGE
 70
3
  9
$SHADEDIF
 70
70
  9
$TILEMODE
 70
1
  9
$MAXACTVP
 70
64
  9
$PINSBASE
 10
0.0
 20
0.0
 30
0.0
  9
$PLIMCHECK
 70
0
  9
$PEXTMIN
 10
1e+20
 20
1e+20
 30
1e+20
  9
$PEXTMAX
 10
-1e+20
 20
-1e+20
 30
-1e+20
  9
$PLIMMIN
 10
0.0
 20
0.0
  9
$PLIMMAX
 10
420.0
 20
297.0
  9
$UNITMODE
 70
0
  9
$VISRETAIN
 70
1
  9
$PLINEGEN
 70
0
  9
$PSLTSCALE
 70
1
  9
$TREEDEPTH
 70
3020
  9
$CMLSTYLE
  2
Standard
  9
$CMLJUST
 70
0
  9
$CMLSCALE
 40
20.0
  9
$PROXYGRAPHICS
 70
1
  9
$MEASUREMENT
 70
1
  9
$CELWEIGHT
370
-1
  9
$ENDCAPS
280
0
  9
$JOINSTYLE
280
0
  9
$LWDISPLAY
290
0
  9
$INSUNITS
 70
4
  9
$HYPERLINKBASE
  1

  9
$STYLESHEET
  1

  9
$XEDIT
290
1
  9
$CEPSNTYPE
380
0
  9
$PSTYLEMODE
290
1
  9
$FINGERPRINTGUID
  2
{37723B79-38DD-49C3-AFC3-DFB8C998582D}
  9
$VERSIONGUID
  2
{BDD59EA7-1296-4939-98E0-75DD3C1CE9FB}
  9
$EXTNAMES
290
1
  9
$PSVPSCALE
 40
0.0
  9
$OLESTARTUP
290
0
  9
$SORTENTS
280
127
  9
$INDEXCTL
280
0
  9
$HIDETEXT
280
1
  9
$XCLIPFRAME
280
1
  9
$HALOGAP
280
0
  9
$OBSCOLOR
 70
257
  9
$OBSLTYPE
280
0
  9
$INTERSECTIONDISPLAY
280
0
  9
$INTERSECTIONCOLOR
 70
257
  9
$DIMASSOC
280
2
  9
$PROJECTNAME
  1

  9
$CAMERADISPLAY
290
0
  9
$LENSLENGTH
 40
50.0
  9
$CAMERAHEIGHT
 40
0.0
  9
$STEPSPERSEC
 40
24.0
  9
$STEPSIZE
 40
100.0
  9
$3DDWFPREC
 40
2.0
  9
$PSOLWIDTH
 40
0.005
  9
$PSOLHEIGHT
 40
0.08
  9
$LOFTANG1
 40
1.570796326795
  9
$LOFTANG2
 40
1.570796326795
  9
$LOFTMAG1
 40
0.0
  9
$LOFTMAG2
 40
0.0
  9
$LOFTPARAM
 70
7
  9
$LOFTNORMALS
280
1
  9
$LATITUDE
 40
37.795
  9
$LONGITUDE
 40
-122.394
  9
$NORTHDIRECTION
 40
0.0
  9
$TIMEZONE
 70
-8000
  9
$LIGHTGLYPHDISPLAY
280
1
  9
$TILEMODELIGHTSYNCH
280
1
  9
$CMATERIAL
347
20
  9
$SOLIDHIST
280
0
  9
$SHOWHIST
280
1
  9
$DWFFRAME
280
2
  9
$DGNFRAME
280
2
  9
$REALWORLDSCALE
290
1
  9
$INTERFERECOLOR
 62
256
  9
$CSHADOW
280
0
  9
$SHADOWPLANELOCATION
 40
0.0
  0
ENDSEC
  0
SECTION
  2
CLASSES
  0
CLASS
  1
ACDBDICTIONARYWDFLT
  2
AcDbDictionaryWithDefault
  3
ObjectDBX Classes
 90
0
 91
0
280
0
281
0
  0
CLASS
  1
SUN
  2
AcDbSun
  3
SCENEOE
 90
1153
 91
0
280
0
281
0
  0
CLASS
  1
VISUALSTYLE
  2
AcDbVisualStyle
  3
ObjectDBX Classes
 90
4095
 91
0
280
0
281
0
  0
CLASS
  1
MATERIAL
  2
AcDbMaterial
  3
ObjectDBX Classes
 90
1153
 91
0
280
0
281
0
  0
CLASS
  1
SCALE
  2
AcDbScale
  3
ObjectDBX Classes
 90
1153
 91
0
280
0
281
0
  0
CLASS
  1
TABLESTYLE
  2
AcDbTableStyle
  3
ObjectDBX Classes
 90
4095
 91
0
280
0
281
0
  0
CLASS
  1
MLEADERSTYLE
  2
AcDbMLeaderStyle
  3
ACDB_MLEADERSTYLE_CLASS
 90
4095
 91
0
280
0
281
0
  0
CLASS
  1
DICTIONARYVAR
  2
AcDbDictionaryVar
  3
ObjectDBX Classes
 90
0
 91
0
280
0
281
0
  0
CLASS
  1
CELLSTYLEMAP
  2
AcDbCellStyleMap
  3
ObjectDBX Classes
 90
1152
 91
0
280
0
281
0
  0
CLASS
  1
MENTALRAYRENDERSETTINGS
  2
AcDbMentalRayRenderSettings
  3
SCENEOE
 90
1024
 91
0
280
0
281
0
  0
CLASS
  1
ACDBDETAILVIEWSTYLE
  2
AcDbDetailViewStyle
  3
ObjectDBX Classes
 90
1025
 91
0
280
0
281
0
  0
CLASS
  1
ACDBSECTIONVIEWSTYLE
  2
AcDbSectionViewStyle
  3
ObjectDBX Classes
 90
1025
 91
0
280
0
281
0
  0
CLASS
  1
RASTERVARIABLES
  2
AcDbRasterVariables
  3
ISM
 90
0
 91
0
280
0
281
0
  0
CLASS
  1
ACDBPLACEHOLDER
  2
AcDbPlaceHolder
  3
ObjectDBX Classes
 90
0
 91
0
280
0
281
0
  0
CLASS
  1
LAYOUT
  2
AcDbLayout
  3
ObjectDBX Classes
 90
0
 91
0
280
0
281
0
  0
ENDSEC
  0
SECTION
  2
TABLES
  0
TABLE
  2
VPORT
  5
8
330
0
100
AcDbSymbolTable
 70
1
  0
VPORT
  5
23
330
8
100
AcDbSymbolTableRecord
100
AcDbViewportTableRecord
  2
*Active
 70
0
 10
0.0
 20
0.0
 11
1.0
 21
1.0
 12
0.0
 22
0.0
 13
0.0
 23
0.0
 14
0.5
 24
0.5
 15
0.5
 25
0.5
 16
0.0
 26
0.0
 36
1.0
 17
0.0
 27
0.0
 37
0.0
 40
1000.0
 41
1.34
 42
50.0
 43
0.0
 44
0.0
 50
0.0
 51
0.0
 71
0
 72
1000
 73
1
 74
3
 75
0
 76
0
 77
0
 78
0
281
0
 65
0
146
0.0
  0
ENDTAB
  0
TABLE
  2
LTYPE
  5
2
330
0
100
AcDbSymbolTable
 70
5
  0
LTYPE
  5
24
330
2
100
AcDbSymbolTableRecord
100
AcDbLinetypeTableRecord
  2
ByBlock
 70
0
  3

 72
65
 73
0
 40
0.0
  0
LTYPE
  5
25
330
2
100
AcDbSymbolTableRecord
100
AcDbLinetypeTableRecord
  2
ByLayer
 70
0
  3

 72
65
 73
0
 40
0.0
  0
LTYPE
  5
26
330
2
100
AcDbSymbolTableRecord
100
AcDbLinetypeTableRecord
  2
Continuous
 70
0
  3

 72
65
 73
0
 40
0.0
  0
LTYPE
  5
F9
330
2
100
AcDbSymbolTableRecord
100
AcDbLinetypeTableRecord
  2
HIDDEN2
 70
0
  3
Hidden (.5x) _ _ _ _ _ _ _ _ _ _ _ _ _ _ _ _ _
 72
65
 73
2
 40
4.762499999999998
 49
3.174999999999998
 74
0
 49
-1.587499999999999
 74
0
  0
LTYPE
  5
FA
330
2
100
AcDbSymbolTableRecord
100
AcDbLinetypeTableRecord
  2
HIDDENX2
 70
0
  3
Hidden (2x) ____ ____ ____ ____ ____ ____ ____
 72
65
 73
2
 40
19.05
 49
12.7
 74
0
 49
-6.349999999999999
 74
0
  0
ENDTAB
  0
TABLE
  2
LAYER
  5
1
330
0
100
AcDbSymbolTable
 70
5
  0
LAYER
  5
27
330
1
100
AcDbSymbolTableRecord
100
AcDbLayerTableRecord
  2
0
 70
0
 62
7
  6
Continuous
370
-3
390
13
347
21
  0
LAYER
  5
28
330
1
100
AcDbSymbolTableRecord
100
AcDbLayerTableRecord
  2
Defpoints
 70
0
 62
7
  6
Continuous
290
0
370
-3
390
13
347
21
  0
LAYER
  5
F6
330
1
100
AcDbSymbolTableRecord
100
AcDbLayerTableRecord
  2
bc
 70
0
 62
5
  6
Continuous
370
30
390
13
347
21
  0
LAYER
  5
F7
330
1
100
AcDbSymbolTableRecord
100
AcDbLayerTableRecord
  2
DIM
 70
0
 62
253
  6
Continuous
370
-3
390
13
347
21
  0
LAYER
  5
F8
330
1
100
AcDbSymbolTableRecord
100
AcDbLayerTableRecord
  2
FIRE PROTECTION
 70
0
 62
1
  6
Continuous
370
-3
390
13
347
21
  0
ENDTAB
  0
TABLE
  2
STYLE
  5
5
330
0
100
AcDbSymbolTable
 70
3
  0
STYLE
  5
29
330
5
100
AcDbSymbolTableRecord
100
AcDbTextStyleTableRecord
  2
Standard
 70
0
 40
0.0
 41
1.0
 50
0.0
 71
0
 42
2.5
  3
txt
  4

  0
STYLE
  5
FB
330
5
100
AcDbSymbolTableRecord
100
AcDbTextStyleTableRecord
  2
Tahoma (Input Text)
 70
0
 40
0.0
 41
1.0
 50
0.0
 71
0
 42
25.0
  3
tahoma.ttf
  4

  0
STYLE
  5
FC
330
5
100
AcDbSymbolTableRecord
100
AcDbTextStyleTableRecord
  2
Arial
 70
0
 40
0.0
 41
1.0
 50
0.0
 71
0
 42
0.2
  3
arial.ttf
  4

  0
ENDTAB
  0
TABLE
  2
VIEW
  5
7
330
0
100
AcDbSymbolTable
 70
0
  0
ENDTAB
  0
TABLE
  2
UCS
  5
6
330
0
100
AcDbSymbolTable
 70
0
  0
ENDTAB
  0
TABLE
  2
APPID
  5
3
330
0
100
AcDbSymbolTable
 70
3
  0
APPID
  5
2A
330
3
100
AcDbSymbolTableRecord
100
AcDbRegAppTableRecord
  2
ACAD
 70
0
  0
APPID
  5
FD
330
3
100
AcDbSymbolTableRecord
100
AcDbRegAppTableRecord
  2
HATCHBACKGROUNDCOLOR
 70
0
  0
APPID
  5
FE
330
3
100
AcDbSymbolTableRecord
100
AcDbRegAppTableRecord
  2
EZDXF
 70
0
  0
ENDTAB
  0
TABLE
  2
DIMSTYLE
  5
4
330
0
100
AcDbSymbolTable
 70
2
100
AcDbDimStyleTable
  0
DIMSTYLE
105
2B
330
4
100
AcDbSymbolTableRecord
100
AcDbDimStyleTableRecord
  2
Standard
 70
0
 40
1.0
 41
2.5
 42
0.625
 43
3.75
 44
1.25
 45
0.0
 46
0.0
 47
0.0
 48
0.0
 49
2.5
140
2.5
141
2.5
142
0.0
143
0.03937007874
144
1.0
145
0.0
146
1.0
147
0.625
148
0.0
 69
0
 70
0
 71
0
 72
0
 73
0
 74
0
 75
0
 76
0
 77
1
 78
8
 79
3
170
0
171
3
172
1
173
0
174
0
175
0
176
0
177
0
178
0
179
2
271
2
272
2
273
2
274
3
275
0
276
0
277
2
278
44
279
0
280
0
281
0
282
0
283
0
284
8
285
0
286
0
288
0
289
3
290
0
371
-2
372
-2
  0
DIMSTYLE
105
F5
330
4
100
AcDbSymbolTableRecord
100
AcDbDimStyleTableRecord
  2
Dim-25
 70
0
 40
1.0
 41
8.0
 42
15.0
 43
3.75
 44
10.0
 45
0.0
 46
0.0
 47
0.0
 48
0.0
 49
2.5
140
25.0
141
10.0
142
0.0
143
0.03937007874016
144
1.0
145
0.0
146
1.0
147
10.0
148
0.0
 69
0
 70
0
 71
0
 72
0
 73
0
 74
0
 75
0
 76
0
 77
1
 78
8
 79
3
170
0
171
3
172
1
173
0
174
0
175
0
176
5
177
5
178
3
179
2
271
0
272
0
273
2
274
3
275
0
276
0
277
2
278
44
279
0
280
0
281
0
282
0
283
0
284
8
285
0
286
0
288
0
289
3
290
0
340
29
341
42
342
42
345
25
346
25
347
25
371
9
372
9
  0
ENDTAB
  0
TABLE
  2
BLOCK_RECORD
  5
9
330
0
100
AcDbSymbolTable
 70
17
  0
BLOCK_RECORD
  5
17
330
9
100
AcDbSymbolTableRecord
100
AcDbBlockTableRecord
  2
*Model_Space
340
1A
 70
0
280
1
281
0
  0
BLOCK_RECORD
  5
1B
330
9
100
AcDbSymbolTableRecord
100
AcDbBlockTableRecord
  2
*Paper_Space
340
1E
 70
0
280
1
281
0
  0
BLOCK_RECORD
  5
42
330
9
100
AcDbSymbolTableRecord
100
AcDbBlockTableRecord
  2
_Oblique
340
0
 70
0
280
1
281
0
  0
BLOCK_RECORD
  5
A8
330
9
100
AcDbSymbolTableRecord
100
AcDbBlockTableRecord
  2
khungtenAsean2
340
0
 70
0
280
1
281
0
  0
BLOCK_RECORD
  5
CC
330
9
100
AcDbSymbolTableRecord
100
AcDbBlockTableRecord
  2
khoado
340
0
 70
0
280
1
281
0
  0
BLOCK_RECORD
  5
DE
330
9
100
AcDbSymbolTableRecord
100
AcDbBlockTableRecord
  2
A$C67844AE1
340
0
 70
0
280
1
281
0
  0
BLOCK_RECORD
  5
E6
330
9
100
AcDbSymbolTableRecord
100
AcDbBlockTableRecord
  2
ee
340
0
 70
0
280
1
281
0
  0
BLOCK_RECORD
  5
107
330
9
100
AcDbSymbolTableRecord
100
AcDbBlockTableRecord
  2
*D1
340
0
 70
0
280
1
281
0
  0
BLOCK_RECORD
  5
113
330
9
100
AcDbSymbolTableRecord
100
AcDbBlockTableRecord
  2
*D2
340
0
 70
0
280
1
281
0
  0
BLOCK_RECORD
  5
11F
330
9
100
AcDbSymbolTableRecord
100
AcDbBlockTableRecord
  2
*D3
340
0
 70
0
280
1
281
0
  0
BLOCK_RECORD
  5
12B
330
9
100
AcDbSymbolTableRecord
100
AcDbBlockTableRecord
  2
*D4
340
0
 70
0
280
1
281
0
  0
BLOCK_RECORD
  5
137
330
9
100
AcDbSymbolTableRecord
100
AcDbBlockTableRecord
  2
*D5
340
0
 70
0
280
1
281
0
  0
BLOCK_RECORD
  5
143
330
9
100
AcDbSymbolTableRecord
100
AcDbBlockTableRecord
  2
*D6
340
0
 70
0
280
1
281
0
  0
BLOCK_RECORD
  5
14F
330
9
100
AcDbSymbolTableRecord
100
AcDbBlockTableRecord
  2
*D7
340
0
 70
0
280
1
281
0
  0
BLOCK_RECORD
  5
15B
330
9
100
AcDbSymbolTableRecord
100
AcDbBlockTableRecord
  2
*D8
340
0
 70
0
280
1
281
0
  0
BLOCK_RECORD
  5
167
330
9
100
AcDbSymbolTableRecord
100
AcDbBlockTableRecord
  2
*D9
340
0
 70
0
280
1
281
0
  0
BLOCK_RECORD
  5
173
330
9
100
AcDbSymbolTableRecord
100
AcDbBlockTableRecord
  2
*D10
340
0
 70
0
280
1
281
0
  0
ENDTAB
  0
ENDSEC
  0
SECTION
  2
BLOCKS
  0
BLOCK
  5
18
330
17
100
AcDbEntity
  8
0
100
AcDbBlockBegin
  2
*Model_Space
 70
0
 10
0.0
 20
0.0
 30
0.0
  3
*Model_Space
  1

  0
ENDBLK
  5
19
330
17
100
AcDbEntity
  8
0
100
AcDbBlockEnd
  0
BLOCK
  5
1C
330
1B
100
AcDbEntity
  8
0
100
AcDbBlockBegin
  2
*Paper_Space
 70
0
 10
0.0
 20
0.0
 30
0.0
  3
*Paper_Space
  1

  0
ENDBLK
  5
1D
330
1B
100
AcDbEntity
  8
0
100
AcDbBlockEnd
  0
BLOCK
  5
43
330
42
100
AcDbEntity
  8
0
100
AcDbBlockBegin
  2
_Oblique
 70
0
 10
0.0
 20
0.0
 30
0.0
  3
_Oblique
  1

  0
LINE
  5
45
330
42
100
AcDbEntity
  8
0
  6
ByBlock
 62
0
370
-2
100
AcDbLine
 10
-0.5
 20
-0.5
 30
0.0
 11
0.5
 21
0.5
 31
0.0
  0
ENDBLK
  5
44
330
42
100
AcDbEntity
  8
0
100
AcDbBlockEnd
  0
BLOCK
  5
A9
330
A8
100
AcDbEntity
  8
0
100
AcDbBlockBegin
  2
khungtenAsean2
 70
2
 10
0.0
 20
0.0
 30
0.0
  3
khungtenAsean2
  1

  0
LWPOLYLINE
  5
AB
330
A8
100
AcDbEntity
  8
0
 62
7
100
AcDbPolyline
 90
4
 70
1
 10
0.0
 20
0.0
 10
2970.000000000422
 20
0.0
 10
2970.000000000422
 20
-2100.00000000032
 10
0.0
 20
-2100.00000000032
  0
LINE
  5
AC
330
A8
100
AcDbEntity
  8
0
 62
7
100
AcDbLine
 10
2020.0
 20
-2040.00000000032
 30
0.0
 11
0.0
 21
-2040.00000000032
 31
0.0
  0
LINE
  5
AD
330
A8
100
AcDbEntity
  8
0
 62
7
100
AcDbLine
 10
2970.000000000422
 20
-1980.00000000032
 30
0.0
 11
0.0
 21
-1980.00000000032
 31
0.0
  0
LINE
  5
AE
330
A8
100
AcDbEntity
  8
0
 62
7
100
AcDbLine
 10
320.0
 20
-1980.00000000032
 30
0.0
 11
320.0
 21
-2100.00000000032
 31
0.0
  0
LINE
  5
AF
330
A8
100
AcDbEntity
  8
0
 62
7
100
AcDbLine
 10
890.0
 20
-1980.00000000032
 30
0.0
 11
890.0
 21
-2100.00000000032
 31
0.0
  0
LINE
  5
B0
330
A8
100
AcDbEntity
  8
0
 62
7
100
AcDbLine
 10
1680.0
 20
-1980.00000000032
 30
0.0
 11
1680.0
 21
-2100.00000000032
 31
0.0
  0
LINE
  5
B1
330
A8
100
AcDbEntity
  8
0
 62
7
100
AcDbLine
 10
2020.0
 20
-1980.00000000032
 30
0.0
 11
2020.0
 21
-2100.00000000032
 31
0.0
  0
LINE
  5
B2
330
A8
100
AcDbEntity
  8
0
 62
7
100
AcDbLine
 10
2860.000000000422
 20
-1980.00000000032
 30
0.0
 11
2860.000000000422
 21
-2100.00000000032
 31
0.0
  0
MTEXT
  5
B3
330
A8
100
AcDbEntity
  8
0
 62
2
100
AcDbMText
 10
0.0
 20
-2010.00000000032
 30
0.0
 40
20.0
 41
917.6339389950801
 46
60.00000000000113
 71
4
 72
5
  1
  Thiết kế :
  7
Arial
  0
MTEXT
  5
B4
330
A8
100
AcDbEntity
  8
0
 62
2
100
AcDbMText
 10
0.0
 20
-2070.00000000032
 30
0.0
 40
20.0
 41
917.6339389950801
 46
60.00000000000113
 71
4
 72
5
  1
  CNC :
  7
Arial
  0
MTEXT
  5
B5
330
A8
100
AcDbEntity
  8
0
 62
2
100
AcDbMText
 10
320.0
 20
-2010.00000000032
 30
0.0
 40
20.0
 41
917.6339389950801
 46
60.00000000000113
 71
4
 72
5
  1
  Khách hàng :
  7
Arial
  0
MTEXT
  5
B6
330
A8
100
AcDbEntity
  8
0
 62
2
100
AcDbMText
 10
320.0
 20
-2070.00000000032
 30
0.0
 40
20.0
 41
917.6339389950801
 46
60.00000000000113
 71
4
 72
5
  1
  Giao hàng :
  7
Arial
  0
MTEXT
  5
B7
330
A8
100
AcDbEntity
  8
0
 62
2
100
AcDbMText
 10
890.0
 20
-2010.00000000032
 30
0.0
 40
20.0
 41
917.6339389950801
 46
60.00000000000113
 71
4
 72
5
  1
  Tên sản phẩm :
  7
Arial
  0
MTEXT
  5
B8
330
A8
100
AcDbEntity
  8
0
 62
2
100
AcDbMText
 10
890.0
 20
-2070.00000000032
 30
0.0
 40
20.0
 41
917.6339389950801
 46
60.00000000000113
 71
4
 72
5
  1
  Kích thước :
  7
Arial
  0
MTEXT
  5
B9
330
A8
100
AcDbEntity
  8
0
 62
2
100
AcDbMText
 10
1680.0
 20
-2010.00000000032
 30
0.0
 40
20.0
 41
917.6339389950801
 46
60.00000000000113
 71
4
 72
5
  1
  Số lượng :
  7
Arial
  0
MTEXT
  5
BA
330
A8
100
AcDbEntity
  8
0
 62
2
100
AcDbMText
 10
1680.0
 20
-2070.00000000032
 30
0.0
 40
20.0
 41
917.6339389950801
 46
60.00000000000113
 71
4
 72
5
  1
  Loại tôn :
  7
Arial
  0
MTEXT
  5
BB
330
A8
100
AcDbEntity
  8
0
 62
2
100
AcDbMText
 10
2074.15528161102
 20
-2040.00000000032
 30
0.0
 40
20.0
 41
108.3105632220314
 46
120.0000000000011
 71
5
 72
5
  1
Thông\Ptin :
  7
Arial
  0
MTEXT
  5
BC
330
A8
100
AcDbEntity
  8
0
 62
2
100
AcDbMText
 10
2915.000000000422
 20
-2010.00000000032
 30
0.0
 40
20.0
 41
110.0000000000065
 46
60.00000000000113
 71
5
 72
5
  1
Tờ
  7
Arial
  0
LINE
  5
BD
330
A8
100
AcDbEntity
  8
0
 62
7
100
AcDbLine
 10
2128.310563222025
 20
-2005.00000000032
 30
0.0
 11
2128.310563222025
 21
-2075.00000000032
 31
0.0
  0
MTEXT
  5
BE
330
A8
100
AcDbEntity
  8
0
 62
2
100
AcDbMText
 10
1382.285678836575
 20
-2070.00000000032
 30
0.0
 40
20.0
 41
917.6339389950801
 46
60.00000000000113
 71
4
 72
5
  1
mm
  7
Arial
  0
MTEXT
  5
BF
330
A8
100
AcDbEntity
  8
0
 62
2
100
AcDbMText
 10
1947.610064813329
 20
-2010.00000000032
 30
0.0
 40
20.0
 41
917.6339389950801
 46
60.00000000000113
 71
4
 72
5
  1
cái
  7
Arial
  0
MTEXT
  5
C0
330
A8
100
AcDbEntity
  8
0
 62
2
100
AcDbMText
 10
1936.880410494836
 20
-2070.00000000032
 30
0.0
 40
20.0
 41
917.6339389950801
 46
60.00000000000113
 71
4
 72
5
  1
mm
  7
Arial
  0
ATTDEF
  5
C1
330
A8
100
AcDbEntity
  8
0
 62
1
100
AcDbText
 10
2883.764212945627
 20
-2067.347800104843
 30
0.0
 40
25.0
  1
......
  7
Tahoma (Input Text)
 72
1
 11
2914.993225705868
 21
-2067.347800104843
 31
0.0
100
AcDbAttributeDefinition
  3
Số trang
  2
#11
 70
8
 71
1
 72
0
 11
2914.993225705868
 21
-2067.347800104843
 31
0.0
  0
ATTDEF
  5
C2
330
A8
100
AcDbEntity
  8
0
 62
1
100
AcDbText
 10
2146.716977487464
 20
-2021.275211692002
 30
0.0
 40
25.0
  1
......
  7
Tahoma (Input Text)
100
AcDbAttributeDefinition
  3
Thông tin 1
  2
#09
 70
8
 71
1
 72
0
  0
ATTDEF
  5
C3
330
A8
100
AcDbEntity
  8
0
 62
1
100
AcDbText
 10
2146.716977487464
 20
-2081.275211692002
 30
0.0
 40
25.0
  1
......
  7
Tahoma (Input Text)
100
AcDbAttributeDefinition
  3
Thông tin 2
  2
#10
 70
8
 71
1
 72
0
  0
ATTDEF
  5
C4
330
A8
100
AcDbEntity
  8
0
 62
1
100
AcDbText
 10
1817.447765733334
 20
-2081.275211692002
 30
0.0
 40
25.0
  1
......
  7
Tahoma (Input Text)
100
AcDbAttributeDefinition
  3
Loại tôn
  2
#08
 70
8
 71
1
 72
0
  0
ATTDEF
  5
C5
330
A8
100
AcDbEntity
  8
0
 62
1
100
AcDbText
 10
1834.68151032555
 20
-2021.275211692002
 30
0.0
 40
25.0
  1
......
  7
Tahoma (Input Text)
100
AcDbAttributeDefinition
  3
Số lượng
  2
#07
 70
8
 71
1
 72
0
  0
ATTDEF
  5
C6
330
A8
100
AcDbEntity
  8
0
 62
1
100
AcDbText
 10
1065.330889143646
 20
-2081.275211692002
 30
0.0
 40
25.0
  1
......
  7
Tahoma (Input Text)
100
AcDbAttributeDefinition
  3
Kích thước
  2
#06
 70
8
 71
1
 72
0
  0
ATTDEF
  5
C7
330
A8
100
AcDbEntity
  8
0
 62
1
100
AcDbText
 10
1106.628177122154
 20
-2021.275211692002
 30
0.0
 40
25.0
  1
......
  7
Tahoma (Input Text)
100
AcDbAttributeDefinition
  3
Tên s.phẩm
  2
#05
 70
8
 71
1
 72
0
  0
ATTDEF
  5
C8
330
A8
100
AcDbEntity
  8
0
 62
1
100
AcDbText
 10
486.1050270054984
 20
-2081.275211692002
 30
0.0
 40
25.0
  1
......
  7
Tahoma (Input Text)
100
AcDbAttributeDefinition
  3
Giao hàng
  2
#04
 70
8
 71
1
 72
0
  0
ATTDEF
  5
C9
330
A8
100
AcDbEntity
  8
0
 62
1
100
AcDbText
 10
506.5707489467022
 20
-2019.301600489707
 30
0.0
 40
25.0
  1
......
  7
Tahoma (Input Text)
100
AcDbAttributeDefinition
  3
Khách hàng
  2
#03
 70
8
 71
1
 72
0
  0
ATTDEF
  5
CA
330
A8
100
AcDbEntity
  8
0
 62
1
100
AcDbText
 10
98.45672450316488
 20
-2081.275211692002
 30
0.0
 40
25.0
  1
......
  7
Tahoma (Input Text)
100
AcDbAttributeDefinition
  3
CNC
  2
#02
 70
8
 71
1
 72
0
  0
ATTDEF
  5
CB
330
A8
100
AcDbEntity
  8
0
 62
1
100
AcDbText
 10
137.0535078375105
 20
-2021.275211692002
 30
0.0
 40
25.0
  1
......
  7
Tahoma (Input Text)
100
AcDbAttributeDefinition
  3
Thiết kế
  2
#01
 70
8
 71
1
 72
0
  0
ENDBLK
  5
AA
330
A8
100
AcDbEntity
  8
0
100
AcDbBlockEnd
  0
BLOCK
  5
CD
330
CC
100
AcDbEntity
  8
0
100
AcDbBlockBegin
  2
khoado
 70
0
 10
0.0
 20
0.0
 30
0.0
  3
khoado
  1

  0
LINE
  5
CF
330
CC
100
AcDbEntity
  8
0
 62
1
370
-3
100
AcDbLine
 10
26.99999999994179
 20
0.9999999999781721
 30
0.0
 11
28.00000000011642
 21
-2.18279e-11
 31
0.0
  0
LINE
  5
D0
330
CC
100
AcDbEntity
  8
0
 62
1
370
-3
100
AcDbLine
 10
13.00000000011641
 20
45.85410196636803
 30
0.0
 11
13.00000000011641
 21
39.14589803372655
 31
0.0
  0
LINE
  5
D1
330
CC
100
AcDbEntity
  8
0
 62
1
370
-3
100
AcDbLine
 10
15.00000000010186
 20
45.85410196636803
 30
0.0
 11
15.00000000010186
 21
39.14589803372655
 31
0.0
  0
MTEXT
  5
D2
330
CC
100
AcDbEntity
  8
0
 62
1
370
-3
100
AcDbMText
 10
13.99999999994179
 20
29.57152855547611
 30
0.0
 40
2.5
 41
15.0
 46
0.0
 71
5
 72
5
  1
{\f.VnArial|b0|i0|c0|p34;PUSH}
  0
LINE
  5
D3
330
CC
100
AcDbEntity
  8
0
 62
1
370
-3
100
AcDbLine
 10
6.500000000101863
 20
25.44116287013458
 30
0.0
 11
21.49999999994179
 21
25.44116287013458
 31
0.0
  0
LINE
  5
D4
330
CC
100
AcDbEntity
  8
0
 62
1
370
-3
100
AcDbLine
 10
6.500000000101863
 20
23.73926862991357
 30
0.0
 11
21.49999999994179
 21
23.73926862991357
 31
0.0
  0
LINE
  5
D5
330
CC
100
AcDbEntity
  8
0
 62
1
370
-3
100
AcDbLine
 10
6.500000000101863
 20
22.03737438970711
 30
0.0
 11
21.49999999994179
 21
22.03737438970711
 31
0.0
  0
LINE
  5
D6
330
CC
100
AcDbEntity
  8
0
 62
1
370
-3
100
AcDbLine
 10
6.500000000101863
 20
20.33548014936969
 30
0.0
 11
21.49999999994179
 21
20.33548014936969
 31
0.0
  0
LINE
  5
D7
330
CC
100
AcDbEntity
  8
0
 62
1
370
-3
100
AcDbLine
 10
6.500000000101863
 20
18.63358590915595
 30
0.0
 11
21.49999999994179
 21
18.63358590915595
 31
0.0
  0
ARC
  5
D8
330
CC
100
AcDbEntity
  8
0
 62
1
100
AcDbCircle
 10
-38.0
 20
56.0
 30
0.0
 40
4.0
100
AcDbArc
 50
104.5563430055459
 51
270.0
  0
LINE
  5
D9
330
CC
100
AcDbEntity
  8
0
 62
1
100
AcDbLine
 10
0.0
 20
70.0
 30
0.0
 11
-39.00532772445877
 21
59.87160382353613
 31
0.0
  0
LINE
  5
DA
330
CC
100
AcDbEntity
  8
0
 62
1
100
AcDbLine
 10
0.0
 20
52.0
 30
0.0
 11
-38.0
 21
52.0
 31
0.0
  0
ARC
  5
DB
330
CC
100
AcDbEntity
  8
0
  6
HIDDEN2
 62
1
100
AcDbCircle
 10
-14.0
 20
12.0
 30
0.0
 40
4.0
100
AcDbArc
 50
146.782334932432
 51
312.2259919269746
  0
LINE
  5
DC
330
CC
100
AcDbEntity
  8
0
  6
HIDDEN2
 62
1
100
AcDbLine
 10
0.0
 20
40.68150559886999
 30
0.0
 11
-17.34638181004266
 21
14.19128473308228
 31
0.0
  0
LINE
  5
DD
330
CC
100
AcDbEntity
  8
0
  6
HIDDEN2
 62
1
100
AcDbLine
 10
0.0
 20
19.30424528071307
 30
0.0
 11
-11.31177367089549
 21
9.038000809669027
 31
0.0
  0
ENDBLK
  5
CE
330
CC
100
AcDbEntity
  8
0
100
AcDbBlockEnd
  0
BLOCK
  5
DF
330
DE
100
AcDbEntity
  8
0
100
AcDbBlockBegin
  2
A$C67844AE1
 70
0
 10
0.0
 20
0.0
 30
0.0
  3
A$C67844AE1
  1

  0
LWPOLYLINE
  5
E1
330
DE
100
AcDbEntity
  8
0
 62
1
100
AcDbPolyline
 90
4
 70
0
 10
21.99991543998476
 20
19.99987769629661
 10
21.99991543998476
 20
-0.0001223037033924
 10
20.99991543998476
 20
-0.0001223037033924
 10
20.99991543998476
 20
18.26782688873209
  0
LWPOLYLINE
  5
E2
330
DE
100
AcDbEntity
  8
0
 62
1
100
AcDbPolyline
 90
4
 70
0
 10
19.99991543998476
 20
21.99987769631844
 10
-8.45600152388e-05
 20
21.99987769631844
 10
-8.45600152388e-05
 20
20.99987769631844
 10
18.26786463242024
 20
20.99987769631844
  0
CIRCLE
  5
E3
330
DE
100
AcDbEntity
  8
0
 62
1
100
AcDbCircle
 10
19.99991543998476
 20
19.99987769631843
 30
0.0
 40
2.0
  0
LINE
  5
E4
330
DE
100
AcDbEntity
  8
0
 62
1
100
AcDbLine
 10
19.99991543998476
 20
18.99987769631843
 30
0.0
 11
19.99991543998476
 21
20.99987769631844
 31
0.0
  0
LINE
  5
E5
330
DE
100
AcDbEntity
  8
0
 62
1
100
AcDbLine
 10
18.99991543998476
 20
19.99987769631843
 30
0.0
 11
20.99991543998476
 21
19.99987769631843
 31
0.0
  0
ENDBLK
  5
E0
330
DE
100
AcDbEntity
  8
0
100
AcDbBlockEnd
  0
BLOCK
  5
E7
330
E6
100
AcDbEntity
  8
0
100
AcDbBlockBegin
  2
ee
 70
0
 10
0.0
 20
0.0
 30
0.0
  3
ee
  1

  0
CIRCLE
  5
E9
330
E6
100
AcDbEntity
  8
0
 62
2
100
AcDbCircle
 10
-10531.58401030532
 20
-19363.46015308041
 30
0.0
 40
4.0
  0
LINE
  5
EA
330
E6
100
AcDbEntity
  8
0
 62
1
100
AcDbLine
 10
-10531.58401030532
 20
-19367.96015308041
 30
0.0
 11
-10550.08401030532
 21
-19367.96015308041
 31
0.0
  0
LINE
  5
EB
330
E6
100
AcDbEntity
  8
0
 62
1
100
AcDbLine
 10
-10550.08401030532
 20
-19366.45629189434
 30
0.0
 11
-10531.73616880044
 21
-19366.45629189434
 31
0.0
  0
ARC
  5
EC
330
E6
100
AcDbEntity
  8
0
 62
1
100
AcDbCircle
 10
-10531.58401030532
 20
-19363.46015308041
 30
0.0
 40
4.5
100
AcDbArc
 50
270.0
 51
318.1896851037192
  0
ARC
  5
ED
330
E6
100
AcDbEntity
  8
0
 62
1
100
AcDbCircle
 10
-10531.58401030532
 20
-19363.46015308041
 30
0.0
 40
4.5
100
AcDbArc
 50
41.8103148962808
 51
193.4301320343639
  0
ARC
  5
EE
330
E6
100
AcDbEntity
  8
0
 62
1
100
AcDbCircle
 10
-10531.58401030532
 20
-19363.46015308041
 30
0.0
 40
3.0
100
AcDbArc
 50
267.0927394226827
 51
270.0
  0
ARC
  5
EF
330
E6
100
AcDbEntity
  8
0
 62
1
100
AcDbCircle
 10
-10531.58401030532
 20
-19363.46015308041
 30
0.0
 40
3.0
100
AcDbArc
 50
90.0
 51
193.4301320343639
  0
LINE
  5
F0
330
E6
100
AcDbEntity
  8
0
 62
1
100
AcDbLine
 10
-10535.96095270558
 20
-19364.50532063861
 30
0.0
 11
-10534.50197190552
 21
-19364.15693145254
 31
0.0
  0
LINE
  5
F1
330
E6
100
AcDbEntity
  8
0
 62
1
100
AcDbLine
 10
-10550.08401030532
 20
-19366.45629189434
 30
0.0
 11
-10550.08401030532
 21
-19367.96015308041
 31
0.0
  0
ARC
  5
F2
330
E6
100
AcDbEntity
  8
0
 62
1
100
AcDbCircle
 10
-10531.58401030532
 20
-19363.46015308041
 30
0.0
 40
3.0
100
AcDbArc
 50
90.0
 51
270.0
  0
LINE
  5
F3
330
E6
100
AcDbEntity
  8
0
 62
1
100
AcDbLine
 10
-10531.58401030532
 20
-19366.4601530804
 30
0.0
 11
-10526.47902259778
 21
-19366.4601530804
 31
0.0
  0
LINE
  5
F4
330
E6
100
AcDbEntity
  8
0
 62
1
100
AcDbLine
 10
-10531.58401030532
 20
-19360.46015308041
 30
0.0
 11
-10526.47902259778
 21
-19360.46015308041
 31
0.0
  0
ENDBLK
  5
E8
330
E6
100
AcDbEntity
  8
0
100
AcDbBlockEnd
  0
BLOCK
  5
108
330
107
100
AcDbEntity
  8
0
100
AcDbBlockBegin
  2
*D1
 70
1
 10
0.0
 20
0.0
 30
0.0
  3
*D1
  1

  0
LINE
  5
10A
330
107
100
AcDbEntity
  8
DIM
 62
5
370
9
 48
3.0
440
16777216
100
AcDbLine
 10
242.88412799127036
 20
1294.1827607404703
 30
0.0
 11
242.88412799127036
 21
1400.2086625310003
 31
0.0
  0
LINE
  5
10B
330
107
100
AcDbEntity
  8
DIM
 62
5
370
9
 48
3.0
440
16777216
100
AcDbLine
 10
742.8841279912704
 20
1294.1827607404703
 30
0.0
 11
742.8841279912704
 21
1400.2086625310003
 31
0.0
  0
LINE
  5
10C
330
107
100
AcDbEntity
  8
DIM
 62
5
370
9
 48
3.0
440
16777216
100
AcDbLine
 10
242.88412799127036
 20
1390.2086625310003
 30
0.0
 11
742.8841279912704
 21
1390.2086625310003
 31
0.0
  0
LINE
  5
10D
330
107
100
AcDbEntity
  8
0
  6
ByBlock
 62
0
370
-2
100
AcDbLine
 10
246.88412799127036
 20
1394.2086625310003
 30
0.0
 11
238.88412799127036
 21
1386.2086625310003
 31
0.0
  0
LINE
  5
10E
330
107
100
AcDbEntity
  8
0
  6
ByBlock
 62
0
370
-2
100
AcDbLine
 10
738.8841279912704
 20
1386.2086625310003
 30
0.0
 11
746.8841279912704
 21
1394.2086625310003
 31
0.0
  0
MTEXT
  5
10F
330
107
100
AcDbEntity
  8
DIM
 62
3
 48
3.0
440
16777216
100
AcDbMText
 10
492.88412799127036
 20
1412.9729872240387
 30
0.0
 40
25.0
 41
0.0
 46
0.0
 71
5
  1
500
  0
POINT
  5
110
330
107
100
AcDbEntity
  8
Defpoints
 62
0
 48
3.0
440
16777216
100
AcDbPoint
 10
242.88412799127036
 20
1279.1827607404593
 30
0.0
  0
POINT
  5
111
330
107
100
AcDbEntity
  8
Defpoints
 62
0
 48
3.0
440
16777216
100
AcDbPoint
 10
742.8841279912704
 20
1279.1827607404593
 30
0.0
  0
POINT
  5
112
330
107
100
AcDbEntity
  8
Defpoints
 62
0
 48
3.0
440
16777216
100
AcDbPoint
 10
742.8841279912704
 20
1390.2086625310003
 30
0.0
  0
ENDBLK
  5
109
330
107
100
AcDbEntity
  8
0
100
AcDbBlockEnd
  0
BLOCK
  5
114
330
113
100
AcDbEntity
  8
0
100
AcDbBlockBegin
  2
*D2
 70
1
 10
0.0
 20
0.0
 30
0.0
  3
*D2
  1

  0
LINE
  5
116
330
113
100
AcDbEntity
  8
DIM
 62
5
370
9
 48
3.0
440
16777216
100
AcDbLine
 10
227.88412799127036
 20
1279.1827607404593
 30
0.0
 11
175.8786838920696
 21
1279.1827607404593
 31
0.0
  0
LINE
  5
117
330
113
100
AcDbEntity
  8
DIM
 62
5
370
9
 48
3.0
440
16777216
100
AcDbLine
 10
227.88412799127036
 20
679.1827607404593
 30
0.0
 11
175.8786838920696
 21
679.1827607404593
 31
0.0
  0
LINE
  5
118
330
113
100
AcDbEntity
  8
DIM
 62
5
370
9
 48
3.0
440
16777216
100
AcDbLine
 10
185.8786838920787
 20
1279.1827607404593
 30
0.0
 11
185.8786838920787
 21
679.1827607404593
 31
0.0
  0
LINE
  5
119
330
113
100
AcDbEntity
  8
0
  6
ByBlock
 62
0
370
-2
100
AcDbLine
 10
189.8786838920787
 20
1275.1827607404593
 30
0.0
 11
181.8786838920787
 21
1283.1827607404593
 31
0.0
  0
LINE
  5
11A
330
113
100
AcDbEntity
  8
0
  6
ByBlock
 62
0
370
-2
100
AcDbLine
 10
181.8786838920787
 20
683.1827607404593
 30
0.0
 11
189.8786838920787
 21
675.1827607404593
 31
0.0
  0
MTEXT
  5
11B
330
113
100
AcDbEntity
  8
DIM
 62
3
 48
3.0
440
16777216
100
AcDbMText
 10
163.11435919904034
 20
979.1827607404593
 30
0.0
 40
25.0
 41
0.0
 46
0.0
 71
5
  1
600
 11
1e-16
 21
1.0
 31
0.0
  0
POINT
  5
11C
330
113
100
AcDbEntity
  8
Defpoints
 62
0
 48
3.0
440
16777216
100
AcDbPoint
 10
242.88412799127036
 20
1279.1827607404593
 30
0.0
  0
POINT
  5
11D
330
113
100
AcDbEntity
  8
Defpoints
 62
0
 48
3.0
440
16777216
100
AcDbPoint
 10
242.88412799127036
 20
679.1827607404593
 30
0.0
  0
POINT
  5
11E
330
113
100
AcDbEntity
  8
Defpoints
 62
0
 48
3.0
440
16777216
100
AcDbPoint
 10
185.8786838920787
 20
679.1827607404593
 30
0.0
  0
ENDBLK
  5
115
330
113
100
AcDbEntity
  8
0
100
AcDbBlockEnd
  0
BLOCK
  5
120
330
11F
100
AcDbEntity
  8
0
100
AcDbBlockBegin
  2
*D3
 70
1
 10
0.0
 20
0.0
 30
0.0
  3
*D3
  1

  0
LINE
  5
122
330
11F
100
AcDbEntity
  8
DIM
 62
5
370
9
 48
3.0
440
16777216
100
AcDbLine
 10
392.38412799127036
 20
1099.6827607404593
 30
0.0
 11
392.38412799127036
 21
1202.625803892639
 31
0.0
  0
LINE
  5
123
330
11F
100
AcDbEntity
  8
DIM
 62
5
370
9
 48
3.0
440
16777216
100
AcDbLine
 10
593.2732208298294
 20
1102.65938173014
 30
0.0
 11
593.2732208298294
 21
1202.625803892639
 31
0.0
  0
LINE
  5
124
330
11F
100
AcDbEntity
  8
DIM
 62
5
370
9
 48
3.0
440
16777216
100
AcDbLine
 10
392.38412799127036
 20
1192.625803892639
 30
0.0
 11
593.2732208298294
 21
1192.625803892639
 31
0.0
  0
LINE
  5
125
330
11F
100
AcDbEntity
  8
0
  6
ByBlock
 62
0
370
-2
100
AcDbLine
 10
396.38412799127036
 20
1196.625803892639
 30
0.0
 11
388.38412799127036
 21
1188.625803892639
 31
0.0
  0
LINE
  5
126
330
11F
100
AcDbEntity
  8
0
  6
ByBlock
 62
0
370
-2
100
AcDbLine
 10
589.2732208298294
 20
1188.625803892639
 30
0.0
 11
597.2732208298294
 21
1196.625803892639
 31
0.0
  0
MTEXT
  5
127
330
11F
100
AcDbEntity
  8
DIM
 62
3
 48
3.0
440
16777216
100
AcDbMText
 10
492.82867441054987
 20
1215.390128585681
 30
0.0
 40
25.0
 41
0.0
 46
0.0
 71
5
  1
201
  0
POINT
  5
128
330
11F
100
AcDbEntity
  8
Defpoints
 62
0
 48
3.0
440
16777216
100
AcDbPoint
 10
392.38412799127036
 20
1084.6827607404593
 30
0.0
  0
POINT
  5
129
330
11F
100
AcDbEntity
  8
Defpoints
 62
0
 48
3.0
440
16777216
100
AcDbPoint
 10
593.2732208298294
 20
1087.65938173014
 30
0.0
  0
POINT
  5
12A
330
11F
100
AcDbEntity
  8
Defpoints
 62
0
 48
3.0
440
16777216
100
AcDbPoint
 10
593.2732208298294
 20
1192.625803892639
 30
0.0
  0
ENDBLK
  5
121
330
11F
100
AcDbEntity
  8
0
100
AcDbBlockEnd
  0
BLOCK
  5
12C
330
12B
100
AcDbEntity
  8
0
100
AcDbBlockBegin
  2
*D4
 70
1
 10
0.0
 20
0.0
 30
0.0
  3
*D4
  1

  0
LINE
  5
12E
330
12B
100
AcDbEntity
  8
DIM
 62
5
370
9
 48
3.0
440
16777216
100
AcDbLine
 10
1078.981741174819
 20
1294.1827607404703
 30
0.0
 11
1078.981741174819
 21
1400.2086625310003
 31
0.0
  0
LINE
  5
12F
330
12B
100
AcDbEntity
  8
DIM
 62
5
370
9
 48
3.0
440
16777216
100
AcDbLine
 10
1578.981741174819
 20
1294.1827607404703
 30
0.0
 11
1578.981741174819
 21
1400.2086625310003
 31
0.0
  0
LINE
  5
130
330
12B
100
AcDbEntity
  8
DIM
 62
5
370
9
 48
3.0
440
16777216
100
AcDbLine
 10
1078.981741174819
 20
1390.2086625310003
 30
0.0
 11
1578.981741174819
 21
1390.2086625310003
 31
0.0
  0
LINE
  5
131
330
12B
100
AcDbEntity
  8
0
  6
ByBlock
 62
0
370
-2
100
AcDbLine
 10
1082.981741174819
 20
1394.2086625310003
 30
0.0
 11
1074.981741174819
 21
1386.2086625310003
 31
0.0
  0
LINE
  5
132
330
12B
100
AcDbEntity
  8
0
  6
ByBlock
 62
0
370
-2
100
AcDbLine
 10
1574.981741174819
 20
1386.2086625310003
 30
0.0
 11
1582.981741174819
 21
1394.2086625310003
 31
0.0
  0
MTEXT
  5
133
330
12B
100
AcDbEntity
  8
DIM
 62
3
 48
3.0
440
16777216
100
AcDbMText
 10
1328.981741174819
 20
1412.9729872240387
 30
0.0
 40
25.0
 41
0.0
 46
0.0
 71
5
  1
500
  0
POINT
  5
134
330
12B
100
AcDbEntity
  8
Defpoints
 62
0
 48
3.0
440
16777216
100
AcDbPoint
 10
1078.981741174819
 20
1279.1827607404593
 30
0.0
  0
POINT
  5
135
330
12B
100
AcDbEntity
  8
Defpoints
 62
0
 48
3.0
440
16777216
100
AcDbPoint
 10
1578.981741174819
 20
1279.1827607404593
 30
0.0
  0
POINT
  5
136
330
12B
100
AcDbEntity
  8
Defpoints
 62
0
 48
3.0
440
16777216
100
AcDbPoint
 10
1578.981741174819
 20
1390.2086625310003
 30
0.0
  0
ENDBLK
  5
12D
330
12B
100
AcDbEntity
  8
0
100
AcDbBlockEnd
  0
BLOCK
  5
138
330
137
100
AcDbEntity
  8
0
100
AcDbBlockBegin
  2
*D5
 70
1
 10
0.0
 20
0.0
 30
0.0
  3
*D5
  1

  0
LINE
  5
13A
330
137
100
AcDbEntity
  8
DIM
 62
5
370
9
 48
3.0
440
16777216
100
AcDbLine
 10
1063.981741174819
 20
1279.1827607404593
 30
0.0
 11
1011.9762970756201
 21
1279.1827607404593
 31
0.0
  0
LINE
  5
13B
330
137
100
AcDbEntity
  8
DIM
 62
5
370
9
 48
3.0
440
16777216
100
AcDbLine
 10
1063.981741174819
 20
679.1827607404593
 30
0.0
 11
1011.9762970756201
 21
679.1827607404593
 31
0.0
  0
LINE
  5
13C
330
137
100
AcDbEntity
  8
DIM
 62
5
370
9
 48
3.0
440
16777216
100
AcDbLine
 10
1021.9762970756201
 20
1279.1827607404593
 30
0.0
 11
1021.9762970756201
 21
679.1827607404593
 31
0.0
  0
LINE
  5
13D
330
137
100
AcDbEntity
  8
0
  6
ByBlock
 62
0
370
-2
100
AcDbLine
 10
1025.97629707562
 20
1275.1827607404593
 30
0.0
 11
1017.9762970756201
 21
1283.1827607404593
 31
0.0
  0
LINE
  5
13E
330
137
100
AcDbEntity
  8
0
  6
ByBlock
 62
0
370
-2
100
AcDbLine
 10
1017.9762970756201
 20
683.1827607404593
 30
0.0
 11
1025.97629707562
 21
675.1827607404593
 31
0.0
  0
MTEXT
  5
13F
330
137
100
AcDbEntity
  8
DIM
 62
3
 48
3.0
440
16777216
100
AcDbMText
 10
999.2119723825799
 20
979.1827607404593
 30
0.0
 40
25.0
 41
0.0
 46
0.0
 71
5
  1
600
 11
1e-16
 21
1.0
 31
0.0
  0
POINT
  5
140
330
137
100
AcDbEntity
  8
Defpoints
 62
0
 48
3.0
440
16777216
100
AcDbPoint
 10
1078.981741174819
 20
1279.1827607404593
 30
0.0
  0
POINT
  5
141
330
137
100
AcDbEntity
  8
Defpoints
 62
0
 48
3.0
440
16777216
100
AcDbPoint
 10
1078.981741174819
 20
679.1827607404593
 30
0.0
  0
POINT
  5
142
330
137
100
AcDbEntity
  8
Defpoints
 62
0
 48
3.0
440
16777216
100
AcDbPoint
 10
1021.9762970756201
 20
679.1827607404593
 30
0.0
  0
ENDBLK
  5
139
330
137
100
AcDbEntity
  8
0
100
AcDbBlockEnd
  0
BLOCK
  5
144
330
143
100
AcDbEntity
  8
0
100
AcDbBlockBegin
  2
*D6
 70
1
 10
0.0
 20
0.0
 30
0.0
  3
*D6
  1

  0
LINE
  5
146
330
143
100
AcDbEntity
  8
DIM
 62
5
370
9
 48
3.0
440
16777216
100
AcDbLine
 10
1063.981741174819
 20
542.4310833818199
 30
0.0
 11
1043.8844525569493
 21
542.4310833818199
 31
0.0
  0
LINE
  5
147
330
143
100
AcDbEntity
  8
DIM
 62
5
370
9
 48
3.0
440
16777216
100
AcDbLine
 10
1063.981741174819
 20
362.43108338183083
 30
0.0
 11
1043.8844525569493
 21
362.43108338183083
 31
0.0
  0
LINE
  5
148
330
143
100
AcDbEntity
  8
DIM
 62
5
370
9
 48
3.0
440
16777216
100
AcDbLine
 10
1053.8844525569493
 20
542.4310833818199
 30
0.0
 11
1053.8844525569493
 21
362.43108338183083
 31
0.0
  0
LINE
  5
149
330
143
100
AcDbEntity
  8
0
  6
ByBlock
 62
0
370
-2
100
AcDbLine
 10
1057.8844525569493
 20
538.4310833818199
 30
0.0
 11
1049.8844525569493
 21
546.4310833818199
 31
0.0
  0
LINE
  5
14A
330
143
100
AcDbEntity
  8
0
  6
ByBlock
 62
0
370
-2
100
AcDbLine
 10
1049.8844525569493
 20
366.43108338183083
 30
0.0
 11
1057.8844525569493
 21
358.43108338183083
 31
0.0
  0
MTEXT
  5
14B
330
143
100
AcDbEntity
  8
DIM
 62
3
 48
3.0
440
16777216
100
AcDbMText
 10
1031.12012786392
 20
452.4310833818199
 30
0.0
 40
25.0
 41
0.0
 46
0.0
 71
5
  1
180
 11
1e-16
 21
1.0
 31
0.0
  0
POINT
  5
14C
330
143
100
AcDbEntity
  8
Defpoints
 62
0
 48
3.0
440
16777216
100
AcDbPoint
 10
1078.981741174819
 20
542.4310833818199
 30
0.0
  0
POINT
  5
14D
330
143
100
AcDbEntity
  8
Defpoints
 62
0
 48
3.0
440
16777216
100
AcDbPoint
 10
1078.981741174819
 20
362.43108338183083
 30
0.0
  0
POINT
  5
14E
330
143
100
AcDbEntity
  8
Defpoints
 62
0
 48
3.0
440
16777216
100
AcDbPoint
 10
1053.8844525569493
 20
362.43108338183083
 30
0.0
  0
ENDBLK
  5
145
330
143
100
AcDbEntity
  8
0
100
AcDbBlockEnd
  0
BLOCK
  5
150
330
14F
100
AcDbEntity
  8
0
100
AcDbBlockBegin
  2
*D7
 70
1
 10
0.0
 20
0.0
 30
0.0
  3
*D7
  1

  0
LINE
  5
152
330
14F
100
AcDbEntity
  8
DIM
 62
5
370
9
 48
3.0
440
16777216
100
AcDbLine
 10
1734.1981353089195
 20
1301.1463234935
 30
0.0
 11
1734.1981353089195
 21
1335.3800065095493
 31
0.0
  0
LINE
  5
153
330
14F
100
AcDbEntity
  8
DIM
 62
5
370
9
 48
3.0
440
16777216
100
AcDbLine
 10
1914.1981353089122
 20
1294.1827607404703
 30
0.0
 11
1914.1981353089122
 21
1335.3800065095493
 31
0.0
  0
LINE
  5
154
330
14F
100
AcDbEntity
  8
DIM
 62
5
370
9
 48
3.0
440
16777216
100
AcDbLine
 10
1734.1981353089195
 20
1325.3800065095493
 30
0.0
 11
1914.1981353089122
 21
1325.3800065095493
 31
0.0
  0
LINE
  5
155
330
14F
100
AcDbEntity
  8
0
  6
ByBlock
 62
0
370
-2
100
AcDbLine
 10
1738.1981353089195
 20
1329.3800065095493
 30
0.0
 11
1730.1981353089195
 21
1321.3800065095493
 31
0.0
  0
LINE
  5
156
330
14F
100
AcDbEntity
  8
0
  6
ByBlock
 62
0
370
-2
100
AcDbLine
 10
1910.1981353089122
 20
1321.3800065095493
 30
0.0
 11
1918.1981353089122
 21
1329.3800065095493
 31
0.0
  0
MTEXT
  5
157
330
14F
100
AcDbEntity
  8
DIM
 62
3
 48
3.0
440
16777216
100
AcDbMText
 10
1824.198135308914
 20
1348.1443312025986
 30
0.0
 40
25.0
 41
0.0
 46
0.0
 71
5
  1
180
  0
POINT
  5
158
330
14F
100
AcDbEntity
  8
Defpoints
 62
0
 48
3.0
440
16777216
100
AcDbPoint
 10
1734.1981353089195
 20
1286.1463234935
 30
0.0
  0
POINT
  5
159
330
14F
100
AcDbEntity
  8
Defpoints
 62
0
 48
3.0
440
16777216
100
AcDbPoint
 10
1914.1981353089122
 20
1279.1827607404593
 30
0.0
  0
POINT
  5
15A
330
14F
100
AcDbEntity
  8
Defpoints
 62
0
 48
3.0
440
16777216
100
AcDbPoint
 10
1914.1981353089122
 20
1325.3800065095493
 30
0.0
  0
ENDBLK
  5
151
330
14F
100
AcDbEntity
  8
0
100
AcDbBlockEnd
  0
BLOCK
  5
15C
330
15B
100
AcDbEntity
  8
0
100
AcDbBlockBegin
  2
*D8
 70
1
 10
0.0
 20
0.0
 30
0.0
  3
*D8
  1

  0
LINE
  5
15E
330
15B
100
AcDbEntity
  8
DIM
 62
5
370
9
 48
3.0
440
16777216
100
AcDbLine
 10
227.88412799127036
 20
542.4310833818199
 30
0.0
 11
207.78683937339883
 21
542.4310833818199
 31
0.0
  0
LINE
  5
15F
330
15B
100
AcDbEntity
  8
DIM
 62
5
370
9
 48
3.0
440
16777216
100
AcDbLine
 10
227.88412799127036
 20
362.43108338183083
 30
0.0
 11
207.78683937339883
 21
362.43108338183083
 31
0.0
  0
LINE
  5
160
330
15B
100
AcDbEntity
  8
DIM
 62
5
370
9
 48
3.0
440
16777216
100
AcDbLine
 10
217.78683937340975
 20
542.4310833818199
 30
0.0
 11
217.78683937340975
 21
362.43108338183083
 31
0.0
  0
LINE
  5
161
330
15B
100
AcDbEntity
  8
0
  6
ByBlock
 62
0
370
-2
100
AcDbLine
 10
221.78683937340975
 20
538.4310833818199
 30
0.0
 11
213.78683937340975
 21
546.4310833818199
 31
0.0
  0
LINE
  5
162
330
15B
100
AcDbEntity
  8
0
  6
ByBlock
 62
0
370
-2
100
AcDbLine
 10
213.78683937340975
 20
366.43108338183083
 30
0.0
 11
221.78683937340975
 21
358.43108338183083
 31
0.0
  0
MTEXT
  5
163
330
15B
100
AcDbEntity
  8
DIM
 62
3
 48
3.0
440
16777216
100
AcDbMText
 10
195.02251468036957
 20
452.4310833818199
 30
0.0
 40
25.0
 41
0.0
 46
0.0
 71
5
  1
180
 11
1e-16
 21
1.0
 31
0.0
  0
POINT
  5
164
330
15B
100
AcDbEntity
  8
Defpoints
 62
0
 48
3.0
440
16777216
100
AcDbPoint
 10
242.88412799127036
 20
542.4310833818199
 30
0.0
  0
POINT
  5
165
330
15B
100
AcDbEntity
  8
Defpoints
 62
0
 48
3.0
440
16777216
100
AcDbPoint
 10
242.88412799127036
 20
362.43108338183083
 30
0.0
  0
POINT
  5
166
330
15B
100
AcDbEntity
  8
Defpoints
 62
0
 48
3.0
440
16777216
100
AcDbPoint
 10
217.78683937340975
 20
362.43108338183083
 30
0.0
  0
ENDBLK
  5
15D
330
15B
100
AcDbEntity
  8
0
100
AcDbBlockEnd
  0
BLOCK
  5
168
330
167
100
AcDbEntity
  8
0
100
AcDbBlockBegin
  2
*D9
 70
1
 10
0.0
 20
0.0
 30
0.0
  3
*D9
  1

  0
LINE
  5
16A
330
167
100
AcDbEntity
  8
DIM
 62
5
370
9
 48
3.0
440
16777216
100
AcDbLine
 10
626.3841279912704
 20
1142.6827607404593
 30
0.0
 11
702.8074436772094
 21
1142.6827607404593
 31
0.0
  0
LINE
  5
16B
330
167
100
AcDbEntity
  8
DIM
 62
5
370
9
 48
3.0
440
16777216
100
AcDbLine
 10
626.3841279912704
 20
795.6827607404703
 30
0.0
 11
702.8074436772094
 21
795.6827607404703
 31
0.0
  0
LINE
  5
16C
330
167
100
AcDbEntity
  8
DIM
 62
5
370
9
 48
3.0
440
16777216
100
AcDbLine
 10
692.8074436772094
 20
1142.6827607404593
 30
0.0
 11
692.8074436772094
 21
795.6827607404703
 31
0.0
  0
LINE
  5
16D
330
167
100
AcDbEntity
  8
0
  6
ByBlock
 62
0
370
-2
100
AcDbLine
 10
696.8074436772094
 20
1138.6827607404593
 30
0.0
 11
688.8074436772094
 21
1146.6827607404593
 31
0.0
  0
LINE
  5
16E
330
167
100
AcDbEntity
  8
0
  6
ByBlock
 62
0
370
-2
100
AcDbLine
 10
688.8074436772094
 20
799.6827607404703
 30
0.0
 11
696.8074436772094
 21
791.6827607404703
 31
0.0
  0
MTEXT
  5
16F
330
167
100
AcDbEntity
  8
DIM
 62
3
 48
3.0
440
16777216
100
AcDbMText
 10
670.0345923811692
 20
969.1827607404593
 30
0.0
 40
25.0
 41
0.0
 46
0.0
 71
5
  1
347
 11
1e-16
 21
1.0
 31
0.0
  0
POINT
  5
170
330
167
100
AcDbEntity
  8
Defpoints
 62
0
 48
3.0
440
16777216
100
AcDbPoint
 10
611.3841279912704
 20
1142.6827607404593
 30
0.0
  0
POINT
  5
171
330
167
100
AcDbEntity
  8
Defpoints
 62
0
 48
3.0
440
16777216
100
AcDbPoint
 10
611.3841279912704
 20
795.6827607404703
 30
0.0
  0
POINT
  5
172
330
167
100
AcDbEntity
  8
Defpoints
 62
0
 48
3.0
440
16777216
100
AcDbPoint
 10
692.8074436772094
 20
795.6827607404703
 30
0.0
  0
ENDBLK
  5
169
330
167
100
AcDbEntity
  8
0
100
AcDbBlockEnd
  0
BLOCK
  5
174
330
173
100
AcDbEntity
  8
0
100
AcDbBlockBegin
  2
*D10
 70
1
 10
0.0
 20
0.0
 30
0.0
  3
*D10
  1

  0
LINE
  5
176
330
173
100
AcDbEntity
  8
DIM
 62
5
370
9
 48
3.0
440
16777216
100
AcDbLine
 10
374.38412799127036
 20
780.6827607404703
 30
0.0
 11
374.38412799127036
 21
713.9005471560085
 31
0.0
  0
LINE
  5
177
330
173
100
AcDbEntity
  8
DIM
 62
5
370
9
 48
3.0
440
16777216
100
AcDbLine
 10
611.3841279912704
 20
780.6827607404703
 30
0.0
 11
611.3841279912704
 21
713.9005471560085
 31
0.0
  0
LINE
  5
178
330
173
100
AcDbEntity
  8
DIM
 62
5
370
9
 48
3.0
440
16777216
100
AcDbLine
 10
374.38412799127036
 20
723.9005471560013
 30
0.0
 11
611.3841279912704
 21
723.9005471560013
 31
0.0
  0
LINE
  5
179
330
173
100
AcDbEntity
  8
0
  6
ByBlock
 62
0
370
-2
100
AcDbLine
 10
378.38412799127036
 20
727.9005471560013
 30
0.0
 11
370.38412799127036
 21
719.9005471560013
 31
0.0
  0
LINE
  5
17A
330
173
100
AcDbEntity
  8
0
  6
ByBlock
 62
0
370
-2
100
AcDbLine
 10
607.3841279912704
 20
719.9005471560013
 30
0.0
 11
615.3841279912704
 21
727.9005471560013
 31
0.0
  0
MTEXT
  5
17B
330
173
100
AcDbEntity
  8
DIM
 62
3
 48
3.0
440
16777216
100
AcDbMText
 10
492.88412799127036
 20
746.6733984520506
 30
0.0
 40
25.0
 41
0.0
 46
0.0
 71
5
  1
237
  0
POINT
  5
17C
330
173
100
AcDbEntity
  8
Defpoints
 62
0
 48
3.0
440
16777216
100
AcDbPoint
 10
374.38412799127036
 20
795.6827607404703
 30
0.0
  0
POINT
  5
17D
330
173
100
AcDbEntity
  8
Defpoints
 62
0
 48
3.0
440
16777216
100
AcDbPoint
 10
611.3841279912704
 20
795.6827607404703
 30
0.0
  0
POINT
  5
17E
330
173
100
AcDbEntity
  8
Defpoints
 62
0
 48
3.0
440
16777216
100
AcDbPoint
 10
611.3841279912704
 20
723.9005471560013
 30
0.0
  0
ENDBLK
  5
175
330
173
100
AcDbEntity
  8
0
100
AcDbBlockEnd
  0
ENDSEC
  0
SECTION
  2
ENTITIES
  0
INSERT
  5
2F
330
17
100
AcDbEntity
  8
0
 62
7
100
AcDbBlockReference
 66
1
  2
khungtenAsean2
 10
0.0
 20
1512.0000000150903
 30
0.0
 41
0.7200000000070759
 42
0.7200000000070759
 43
0.7200000000070759
  0
ATTRIB
  5
30
330
2F
100
AcDbEntity
  8
0
 62
1
100
AcDbText
 10
2076.310233320841
 20
23.509583939601725
 30
0.0
 40
18.0
  1
......
  7
Tahoma (Input Text)
 72
1
 11
2098.7951225082143
 21
23.509583939601725
 31
0.0
100
AcDbAttribute
  2
#11
 70
0
 71
1
 72
0
 11
2098.7951225082143
 21
23.509583939601725
 31
0.0
  0
ATTRIB
  5
31
330
2F
100
AcDbEntity
  8
0
 62
1
100
AcDbText
 10
1545.6362237909889
 20
56.68184759683936
 30
0.0
 40
18.0
  1
tủ cứu hỏa, 2  ngăn
  7
Tahoma (Input Text)
100
AcDbAttribute
  2
#09
 70
0
 71
1
 72
0
  0
ATTRIB
  5
32
330
2F
100
AcDbEntity
  8
0
 62
1
100
AcDbText
 10
1545.6362237909889
 20
13.481847596849548
 30
0.0
 40
18.0
  1
Sơn màu đỏ
  7
Tahoma (Input Text)
100
AcDbAttribute
  2
#10
 70
0
 71
1
 72
0
  0
ATTRIB
  5
33
330
2F
100
AcDbEntity
  8
0
 62
1
100
AcDbText
 10
1308.5623913280087
 20
13.481847596849548
 30
0.0
 40
18.0
  1
1.0
  7
Tahoma (Input Text)
100
AcDbAttribute
  2
#08
 70
0
 71
1
 72
0
  0
ATTRIB
  5
34
330
2F
100
AcDbEntity
  8
0
 62
1
100
AcDbText
 10
1320.9706874344192
 20
56.68184759683936
 30
0.0
 40
18.0
  1

  7
Tahoma (Input Text)
100
AcDbAttribute
  2
#07
 70
0
 71
1
 72
0
  0
ATTRIB
  5
35
330
2F
100
AcDbEntity
  8
0
 62
1
100
AcDbText
 10
767.0382401834304
 20
13.481847596849548
 30
0.0
 40
18.0
  1
600x750x200
  7
Tahoma (Input Text)
100
AcDbAttribute
  2
#06
 70
0
 71
1
 72
0
  0
ATTRIB
  5
36
330
2F
100
AcDbEntity
  8
0
 62
1
100
AcDbText
 10
796.7722875279487
 20
56.68184759683936
 30
0.0
 40
18.0
  1
võ tủ
  7
Tahoma (Input Text)
100
AcDbAttribute
  2
#05
 70
0
 71
1
 72
0
  0
ATTRIB
  5
37
330
2F
100
AcDbEntity
  8
0
 62
1
100
AcDbText
 10
349.9956194439692
 20
13.481847596849548
 30
0.0
 40
18.0
  1

  7
Tahoma (Input Text)
100
AcDbAttribute
  2
#04
 70
0
 71
1
 72
0
  0
ATTRIB
  5
38
330
2F
100
AcDbEntity
  8
0
 62
1
100
AcDbText
 10
364.73093924163004
 20
58.1028476624997
 30
0.0
 40
18.0
  1

  7
Tahoma (Input Text)
100
AcDbAttribute
  2
#03
 70
0
 71
1
 72
0
  0
ATTRIB
  5
39
330
2F
100
AcDbEntity
  8
0
 62
1
100
AcDbText
 10
70.88884164229967
 20
13.481847596849548
 30
0.0
 40
18.0
  1
......
  7
Tahoma (Input Text)
100
AcDbAttribute
  2
#02
 70
0
 71
1
 72
0
  0
ATTRIB
  5
3A
330
2F
100
AcDbEntity
  8
0
 62
1
100
AcDbText
 10
98.67852564301938
 20
56.68184759683936
 30
0.0
 40
18.0
  1

  7
Tahoma (Input Text)
100
AcDbAttribute
  2
#01
 70
0
 71
1
 72
0
  0
SEQEND
  5
3B
330
17
100
AcDbEntity
  8
0
 62
7
  0
LWPOLYLINE
  5
3C
330
17
100
AcDbEntity
  8
0
 48
3.0
100
AcDbPolyline
 90
4
 70
1
 10
242.88412799127036
 20
1279.1827607404593
 10
742.8841279912704
 20
1279.1827607404593
 10
742.8841279912704
 20
679.1827607404593
 10
242.88412799127036
 20
679.1827607404593
  0
LWPOLYLINE
  5
3D
330
17
100
AcDbEntity
  8
0
  6
HIDDENX2
 48
3.0
100
AcDbPolyline
 90
4
 70
1
 10
244.38412799127036
 20
1277.6827607404703
 10
741.3841279912704
 20
1277.6827607404703
 10
741.3841279912704
 20
680.6827607404593
 10
244.38412799127036
 20
680.6827607404593
  0
LWPOLYLINE
  5
3E
330
17
100
AcDbEntity
  8
0
 48
3.0
100
AcDbPolyline
 90
4
 70
1
 10
270.88412799127036
 20
1251.1827607404703
 10
714.8841279912704
 20
1251.1827607404703
 10
714.8841279912704
 20
707.1827607404703
 10
270.88412799127036
 20
707.1827607404703
  0
LWPOLYLINE
  5
3F
330
17
100
AcDbEntity
  8
0
 62
6
 48
3.0
100
AcDbPolyline
 90
4
 70
1
 10
272.88412799127036
 20
1249.1827607404703
 10
712.8841279912704
 20
1249.1827607404703
 10
712.8841279912704
 20
709.1827607404703
 10
272.88412799127036
 20
709.1827607404703
  0
LWPOLYLINE
  5
40
330
17
100
AcDbEntity
  8
0
  6
HIDDENX2
 62
6
 48
3.0
100
AcDbPolyline
 90
4
 70
1
 10
274.38412799127036
 20
1247.6827607404703
 10
711.3841279912704
 20
1247.6827607404703
 10
711.3841279912704
 20
710.6827607404703
 10
274.38412799127036
 20
710.6827607404703
  0
DIMENSION
  5
41
330
17
100
AcDbEntity
  8
DIM
 48
3.0
100
AcDbDimension
280
0
  2
*D1
  3
Dim-25
 10
742.8841279912704
 20
1390.2086625310003
 30
0.0
 11
492.88412799127036
 21
1412.9729872240387
 31
0.0
 70
32
 71
5
 42
500.0
 73
0
 74
0
 75
0
100
AcDbAlignedDimension
 13
242.88412799127036
 23
1279.1827607404593
 33
0.0
 14
742.8841279912704
 24
1279.1827607404593
 34
0.0
 50
0.0
100
AcDbRotatedDimension
  0
DIMENSION
  5
46
330
17
100
AcDbEntity
  8
DIM
 48
3.0
100
AcDbDimension
280
0
  2
*D2
  3
Dim-25
 10
185.8786838920787
 20
679.1827607404593
 30
0.0
 11
163.11435919904034
 21
979.1827607404593
 31
0.0
 70
32
 71
5
 42
600.0
 73
0
 74
0
 75
0
100
AcDbAlignedDimension
 13
242.88412799127036
 23
1279.1827607404593
 33
0.0
 14
242.88412799127036
 24
679.1827607404593
 34
0.0
 50
90.0
100
AcDbRotatedDimension
  0
LWPOLYLINE
  5
47
330
17
100
AcDbEntity
  8
0
 62
2
100
AcDbPolyline
 90
8
 70
1
 10
432.38412799127036
 20
813.6827607404703
 10
553.3841279912704
 20
813.6827607404703
 42
0.4142135623730951
 10
593.3841279912704
 20
853.6827607404703
 10
593.3841279912704
 20
1084.6827607404593
 42
0.4142135623730951
 10
553.3841279912704
 20
1124.6827607404593
 10
432.38412799127036
 20
1124.6827607404593
 42
0.4142135623730951
 10
392.38412799127036
 20
1084.6827607404593
 10
392.38412799127036
 20
853.6827607404703
 42
0.4142135623730951
  0
LWPOLYLINE
  5
48
330
17
100
AcDbEntity
  8
0
  6
HIDDENX2
 62
7
100
AcDbPolyline
 90
4
 70
1
 10
374.38412799127036
 20
795.6827607404703
 10
611.3841279912704
 20
795.6827607404703
 10
611.3841279912704
 20
1142.6827607404593
 10
374.38412799127036
 20
1142.6827607404593
  0
HATCH
  5
49
330
17
100
AcDbEntity
  8
0
 62
4
 48
3.0
100
AcDbHatch
 10
0.0
 20
0.0
 30
0.0
210
0.0
220
0.0
230
1.0
  2
ANSI34
 70
0
 71
0
 91
1
 92
7
 72
1
 73
1
 93
8
 10
392.38412799127036
 20
853.6827607404703
 42
0.4142135623730951
 10
432.38412799127036
 20
813.6827607404703
 42
0.0
 10
553.3841279912704
 20
813.6827607404703
 42
0.4142135623730951
 10
593.3841279912704
 20
853.6827607404703
 42
0.0
 10
593.3841279912704
 20
1084.6827607404593
 42
0.4142135623730951
 10
553.3841279912704
 20
1124.6827607404593
 42
0.0
 10
432.38412799127036
 20
1124.6827607404593
 42
0.4142135623730951
 10
392.38412799127036
 20
1084.6827607404593
 42
0.0
 97
1
330
B193B
 75
0
 76
1
 52
0.0
 41
100.0
 77
0
 78
4
 53
45.0
 43
-115506.0381753719
 44
-1453584.959054504
 45
-5303.3008588991
 46
5303.3008588991
 79
0
 53
45.0
 43
-113738.2712253718
 44
-1453584.959054504
 45
-5303.3008588991
 46
5303.3008588991
 79
0
 53
45.0
 43
-111970.5042653719
 44
-1453584.959054504
 45
-5303.3008588991
 46
5303.3008588991
 79
0
 53
45.0
 43
-110202.737315372
 44
-1453584.959054504
 45
-5303.3008588991
 46
5303.3008588991
 79
0
 47
0.1426008439059455
 98
1
 10
-11295.94077416253
 20
-26014.00495561113
  0
LWPOLYLINE
  5
4A
330
17
100
AcDbEntity
  8
0
 62
4
100
AcDbPolyline
 90
4
 70
1
 10
377.38412799127036
 20
798.6827607404703
 10
608.3841279912704
 20
798.6827607404703
 10
608.3841279912704
 20
1139.6827607404593
 10
377.38412799127036
 20
1139.6827607404593
  0
LWPOLYLINE
  5
4B
330
17
100
AcDbEntity
  8
0
  6
HIDDENX2
 62
7
100
AcDbPolyline
 90
4
 70
1
 10
349.38412799127036
 20
770.6827607404703
 10
636.3943929715897
 20
770.3625351430819
 10
635.0638992506392
 20
1167.542806264959
 10
348.0536342703199
 20
1167.863031862351
  0
LINE
  5
4C
330
17
100
AcDbEntity
  8
0
  6
HIDDENX2
 62
7
100
AcDbLine
 10
348.0536342703199
 20
1167.863031862351
 30
0.0
 11
374.38412799127036
 21
1142.6827607404593
 31
0.0
  0
LINE
  5
4D
330
17
100
AcDbEntity
  8
0
  6
HIDDENX2
 62
7
100
AcDbLine
 10
611.3841279912704
 20
1142.6827607404593
 30
0.0
 11
635.0638992506392
 21
1167.542806264959
 31
0.0
  0
LINE
  5
4E
330
17
100
AcDbEntity
  8
0
  6
HIDDENX2
 62
7
100
AcDbLine
 10
611.3841279912704
 20
795.6827607404703
 30
0.0
 11
636.3943929715897
 21
770.3625351430819
 31
0.0
  0
LINE
  5
4F
330
17
100
AcDbEntity
  8
0
  6
HIDDENX2
 62
7
100
AcDbLine
 10
374.38412799127036
 20
795.6827607404703
 30
0.0
 11
349.38412799127036
 21
770.6827607404703
 31
0.0
  0
LWPOLYLINE
  5
50
330
17
100
AcDbEntity
  8
0
 62
2
100
AcDbPolyline
 90
4
 70
1
 10
308.88412799127036
 20
1010.6827607404593
 10
331.88412799127036
 20
1010.6827607404593
 10
331.88412799127036
 20
947.6827607404593
 10
308.88412799127036
 20
947.6827607404593
  0
CIRCLE
  5
51
330
17
100
AcDbEntity
  8
0
 62
2
100
AcDbCircle
 10
320.38412799129947
 20
1014.6827607404593
 30
0.0
 40
4.0
  0
CIRCLE
  5
52
330
17
100
AcDbEntity
  8
0
 62
2
100
AcDbCircle
 10
320.38412799129947
 20
943.6827607404593
 30
0.0
 40
4.0
  0
INSERT
  5
53
330
17
100
AcDbEntity
  8
0
 62
7
100
AcDbBlockReference
  2
khoado
 10
306.38412799127036
 20
936.6827607404703
 30
0.0
  0
DIMENSION
  5
55
330
17
100
AcDbEntity
  8
DIM
 48
3.0
100
AcDbDimension
280
0
  2
*D3
  3
Dim-25
 10
593.2732208298294
 20
1192.625803892639
 30
0.0
 11
492.82867441054987
 21
1215.390128585681
 31
0.0
 70
32
 71
5
 42
200.8890928385663
 73
0
 74
0
 75
0
100
AcDbAlignedDimension
 13
392.38412799127036
 23
1084.6827607404593
 33
0.0
 14
593.2732208298294
 24
1087.65938173014
 34
0.0
 50
0.0
100
AcDbRotatedDimension
  0
LINE
  5
56
330
17
100
AcDbEntity
  8
bc
  6
Continuous
370
18
100
AcDbLine
 10
1544.0819907484092
 20
1172.3397264497617
 30
0.0
 11
1544.0819907484092
 21
1133.0372360188703
 31
0.0
  0
LINE
  5
57
330
17
100
AcDbEntity
  8
bc
  6
Continuous
370
18
100
AcDbLine
 10
1540.981741174819
 20
1133.0372360188703
 30
0.0
 11
1540.981741174819
 21
1172.3397264497617
 31
0.0
  0
LINE
  5
58
330
17
100
AcDbEntity
  8
bc
  6
Continuous
370
18
100
AcDbLine
 10
1540.981741174819
 20
1159.8522288592794
 30
0.0
 11
1544.0819907484092
 21
1159.8522288592794
 31
0.0
  0
LINE
  5
59
330
17
100
AcDbEntity
  8
bc
  6
Continuous
370
18
100
AcDbLine
 10
1540.981741174819
 20
1147.1266873756686
 30
0.0
 11
1544.0819907484092
 21
1147.1266873756686
 31
0.0
  0
LINE
  5
5A
330
17
100
AcDbEntity
  8
bc
  6
Continuous
370
18
100
AcDbLine
 10
1544.0819907484092
 20
1133.0372360188703
 30
0.0
 11
1540.981741174819
 21
1133.0372360188703
 31
0.0
  0
LINE
  5
5B
330
17
100
AcDbEntity
  8
bc
  6
Continuous
370
18
100
AcDbLine
 10
1540.981741174819
 20
1172.3397264497617
 30
0.0
 11
1544.0819907484092
 21
1172.3397264497617
 31
0.0
  0
LINE
  5
5C
330
17
100
AcDbEntity
  8
FIRE PROTECTION
  6
Continuous
100
AcDbLine
 10
1340.981741174819
 20
991.1827607404703
 30
0.0
 11
1540.981741174819
 21
991.1827607404703
 31
0.0
  0
LINE
  5
5D
330
17
100
AcDbEntity
  8
FIRE PROTECTION
  6
Continuous
100
AcDbLine
 10
1540.981741174819
 20
991.1827607404703
 30
0.0
 11
1540.981741174819
 21
1191.1827607404703
 31
0.0
  0
LINE
  5
5E
330
17
100
AcDbEntity
  8
FIRE PROTECTION
  6
Continuous
100
AcDbLine
 10
1540.981741174819
 20
1191.1827607404703
 30
0.0
 11
1525.981741174819
 21
1191.1827607404703
 31
0.0
  0
LINE
  5
5F
330
17
100
AcDbEntity
  8
FIRE PROTECTION
  6
Continuous
100
AcDbLine
 10
1525.981741174819
 20
1006.1827607404703
 30
0.0
 11
1525.981741174819
 21
1168.7563538689392
 31
0.0
  0
LINE
  5
60
330
17
100
AcDbEntity
  8
FIRE PROTECTION
  6
Continuous
100
AcDbLine
 10
1363.4081480454097
 20
1006.1827607404703
 30
0.0
 11
1525.981741174819
 21
1006.1827607404703
 31
0.0
  0
LINE
  5
61
330
17
100
AcDbEntity
  8
FIRE PROTECTION
  6
Continuous
100
AcDbLine
 10
1340.981741174819
 20
991.1827607404703
 30
0.0
 11
1340.981741174819
 21
1006.1827607404703
 31
0.0
  0
LINE
  5
62
330
17
100
AcDbEntity
  8
FIRE PROTECTION
  6
Continuous
100
AcDbLine
 10
1340.981741174819
 20
1006.1827607404703
 30
0.0
 11
1525.981741174819
 21
1191.1827607404703
 31
0.0
  0
LINE
  5
63
330
17
100
AcDbEntity
  8
FIRE PROTECTION
  6
Continuous
100
AcDbLine
 10
1363.4081480454097
 20
1006.1827607404703
 30
0.0
 11
1525.981741174819
 21
1168.7563538689392
 31
0.0
  0
LINE
  5
64
330
17
100
AcDbEntity
  8
bc
  6
Continuous
370
18
100
AcDbLine
 10
1544.0819907484092
 20
1009.9202083040218
 30
0.0
 11
1544.0819907484092
 21
1049.2226987349095
 31
0.0
  0
LINE
  5
65
330
17
100
AcDbEntity
  8
bc
  6
Continuous
370
18
100
AcDbLine
 10
1540.981741174819
 20
1049.2226987349095
 30
0.0
 11
1540.981741174819
 21
1009.9202083040218
 31
0.0
  0
LINE
  5
66
330
17
100
AcDbEntity
  8
bc
  6
Continuous
370
18
100
AcDbLine
 10
1540.981741174819
 20
1022.4077058945113
 30
0.0
 11
1544.0819907484092
 21
1022.4077058945113
 31
0.0
  0
LINE
  5
67
330
17
100
AcDbEntity
  8
bc
  6
Continuous
370
18
100
AcDbLine
 10
1540.981741174819
 20
1035.1332473781185
 30
0.0
 11
1544.0819907484092
 21
1035.1332473781185
 31
0.0
  0
LINE
  5
68
330
17
100
AcDbEntity
  8
bc
  6
Continuous
370
18
100
AcDbLine
 10
1544.0819907484092
 20
1049.2226987349095
 30
0.0
 11
1540.981741174819
 21
1049.2226987349095
 31
0.0
  0
LINE
  5
69
330
17
100
AcDbEntity
  8
bc
  6
Continuous
370
18
100
AcDbLine
 10
1540.981741174819
 20
1009.9202083040218
 30
0.0
 11
1544.0819907484092
 21
1009.9202083040218
 31
0.0
  0
LWPOLYLINE
  5
6A
330
17
100
AcDbEntity
  8
0
 48
3.0
100
AcDbPolyline
 90
4
 70
1
 10
1078.981741174819
 20
1279.1827607404593
 10
1578.981741174819
 20
1279.1827607404593
 10
1578.981741174819
 20
679.1827607404593
 10
1078.981741174819
 20
679.1827607404593
  0
LWPOLYLINE
  5
6B
330
17
100
AcDbEntity
  8
0
  6
HIDDENX2
 48
3.0
100
AcDbPolyline
 90
4
 70
1
 10
1080.481741174819
 20
1277.6827607404703
 10
1577.481741174819
 20
1277.6827607404703
 10
1577.481741174819
 20
680.6827607404593
 10
1080.481741174819
 20
680.6827607404593
  0
LWPOLYLINE
  5
6C
330
17
100
AcDbEntity
  8
0
 48
3.0
100
AcDbPolyline
 90
4
 70
1
 10
1106.981741174819
 20
1251.1827607404703
 10
1550.981741174819
 20
1251.1827607404703
 10
1550.981741174819
 20
707.1827607404703
 10
1106.981741174819
 20
707.1827607404703
  0
DIMENSION
  5
6D
330
17
100
AcDbEntity
  8
DIM
 48
3.0
100
AcDbDimension
280
0
  2
*D4
  3
Dim-25
 10
1578.981741174819
 20
1390.2086625310003
 30
0.0
 11
1328.981741174819
 21
1412.9729872240387
 31
0.0
 70
32
 71
5
 42
500.0
 73
0
 74
0
 75
0
100
AcDbAlignedDimension
 13
1078.981741174819
 23
1279.1827607404593
 33
0.0
 14
1578.981741174819
 24
1279.1827607404593
 34
0.0
 50
0.0
100
AcDbRotatedDimension
  0
DIMENSION
  5
6E
330
17
100
AcDbEntity
  8
DIM
 48
3.0
100
AcDbDimension
280
0
  2
*D5
  3
Dim-25
 10
1021.9762970756201
 20
679.1827607404593
 30
0.0
 11
999.2119723825799
 21
979.1827607404593
 31
0.0
 70
32
 71
5
 42
600.0
 73
0
 74
0
 75
0
100
AcDbAlignedDimension
 13
1078.981741174819
 23
1279.1827607404593
 33
0.0
 14
1078.981741174819
 24
679.1827607404593
 34
0.0
 50
90.0
100
AcDbRotatedDimension
  0
LWPOLYLINE
  5
6F
330
17
100
AcDbEntity
  8
0
 62
2
100
AcDbPolyline
 90
4
 70
1
 10
1144.981741174819
 20
1010.6827607404593
 10
1167.981741174819
 20
1010.6827607404593
 10
1167.981741174819
 20
947.6827607404593
 10
1144.981741174819
 20
947.6827607404593
  0
CIRCLE
  5
70
330
17
100
AcDbEntity
  8
0
 62
2
100
AcDbCircle
 10
1156.48174117485
 20
1014.6827607404593
 30
0.0
 40
4.0
  0
CIRCLE
  5
71
330
17
100
AcDbEntity
  8
0
 62
2
100
AcDbCircle
 10
1156.48174117485
 20
943.6827607404593
 30
0.0
 40
4.0
  0
INSERT
  5
72
330
17
100
AcDbEntity
  8
0
 62
7
100
AcDbBlockReference
  2
khoado
 10
1142.481741174819
 20
936.6827607404703
 30
0.0
  0
LWPOLYLINE
  5
74
330
17
100
AcDbEntity
  8
0
 48
3.0
100
AcDbPolyline
 90
4
 70
1
 10
1116.981741174819
 20
1241.1827607404593
 10
1540.981741174819
 20
1241.1827607404593
 10
1540.981741174819
 20
717.1827607404593
 10
1116.981741174819
 20
717.1827607404593
  0
LINE
  5
75
330
17
100
AcDbEntity
  8
0
 48
3.0
100
AcDbLine
 10
1106.981741174819
 20
1251.1827607404703
 30
0.0
 11
1116.981741174819
 21
1241.1827607404593
 31
0.0
  0
LINE
  5
76
330
17
100
AcDbEntity
  8
0
 48
3.0
100
AcDbLine
 10
1116.981741174819
 20
717.1827607404593
 30
0.0
 11
1106.981741174819
 21
707.1827607404703
 31
0.0
  0
LINE
  5
77
330
17
100
AcDbEntity
  8
0
 48
3.0
100
AcDbLine
 10
1540.981741174819
 20
717.1827607404593
 30
0.0
 11
1550.981741174819
 21
707.1827607404703
 31
0.0
  0
LINE
  5
78
330
17
100
AcDbEntity
  8
0
 48
3.0
100
AcDbLine
 10
1540.981741174819
 20
1241.1827607404593
 30
0.0
 11
1550.981741174819
 21
1251.1827607404703
 31
0.0
  0
LINE
  5
79
330
17
100
AcDbEntity
  8
bc
  6
Continuous
370
18
100
AcDbLine
 10
1544.0819907484092
 20
928.3397264497617
 30
0.0
 11
1544.0819907484092
 21
889.0372360188703
 31
0.0
  0
LINE
  5
7A
330
17
100
AcDbEntity
  8
bc
  6
Continuous
370
18
100
AcDbLine
 10
1540.981741174819
 20
889.0372360188703
 30
0.0
 11
1540.981741174819
 21
928.3397264497617
 31
0.0
  0
LINE
  5
7B
330
17
100
AcDbEntity
  8
bc
  6
Continuous
370
18
100
AcDbLine
 10
1540.981741174819
 20
915.8522288592794
 30
0.0
 11
1544.0819907484092
 21
915.8522288592794
 31
0.0
  0
LINE
  5
7C
330
17
100
AcDbEntity
  8
bc
  6
Continuous
370
18
100
AcDbLine
 10
1540.981741174819
 20
903.1266873756686
 30
0.0
 11
1544.0819907484092
 21
903.1266873756686
 31
0.0
  0
LINE
  5
7D
330
17
100
AcDbEntity
  8
bc
  6
Continuous
370
18
100
AcDbLine
 10
1544.0819907484092
 20
889.0372360188703
 30
0.0
 11
1540.981741174819
 21
889.0372360188703
 31
0.0
  0
LINE
  5
7E
330
17
100
AcDbEntity
  8
bc
  6
Continuous
370
18
100
AcDbLine
 10
1540.981741174819
 20
928.3397264497617
 30
0.0
 11
1544.0819907484092
 21
928.3397264497617
 31
0.0
  0
LINE
  5
7F
330
17
100
AcDbEntity
  8
FIRE PROTECTION
  6
Continuous
100
AcDbLine
 10
1340.981741174819
 20
747.1827607404703
 30
0.0
 11
1540.981741174819
 21
747.1827607404703
 31
0.0
  0
LINE
  5
80
330
17
100
AcDbEntity
  8
FIRE PROTECTION
  6
Continuous
100
AcDbLine
 10
1540.981741174819
 20
747.1827607404703
 30
0.0
 11
1540.981741174819
 21
947.1827607404703
 31
0.0
  0
LINE
  5
81
330
17
100
AcDbEntity
  8
FIRE PROTECTION
  6
Continuous
100
AcDbLine
 10
1540.981741174819
 20
947.1827607404703
 30
0.0
 11
1525.981741174819
 21
947.1827607404703
 31
0.0
  0
LINE
  5
82
330
17
100
AcDbEntity
  8
FIRE PROTECTION
  6
Continuous
100
AcDbLine
 10
1525.981741174819
 20
762.1827607404703
 30
0.0
 11
1525.981741174819
 21
924.7563538689392
 31
0.0
  0
LINE
  5
83
330
17
100
AcDbEntity
  8
FIRE PROTECTION
  6
Continuous
100
AcDbLine
 10
1363.4081480454097
 20
762.1827607404703
 30
0.0
 11
1525.981741174819
 21
762.1827607404703
 31
0.0
  0
LINE
  5
84
330
17
100
AcDbEntity
  8
FIRE PROTECTION
  6
Continuous
100
AcDbLine
 10
1340.981741174819
 20
747.1827607404703
 30
0.0
 11
1340.981741174819
 21
762.1827607404703
 31
0.0
  0
LINE
  5
85
330
17
100
AcDbEntity
  8
FIRE PROTECTION
  6
Continuous
100
AcDbLine
 10
1340.981741174819
 20
762.1827607404703
 30
0.0
 11
1525.981741174819
 21
947.1827607404703
 31
0.0
  0
LINE
  5
86
330
17
100
AcDbEntity
  8
FIRE PROTECTION
  6
Continuous
100
AcDbLine
 10
1363.4081480454097
 20
762.1827607404703
 30
0.0
 11
1525.981741174819
 21
924.7563538689392
 31
0.0
  0
LINE
  5
87
330
17
100
AcDbEntity
  8
bc
  6
Continuous
370
18
100
AcDbLine
 10
1544.0819907484092
 20
765.9202083040218
 30
0.0
 11
1544.0819907484092
 21
805.2226987349095
 31
0.0
  0
LINE
  5
88
330
17
100
AcDbEntity
  8
bc
  6
Continuous
370
18
100
AcDbLine
 10
1540.981741174819
 20
805.2226987349095
 30
0.0
 11
1540.981741174819
 21
765.9202083040218
 31
0.0
  0
LINE
  5
89
330
17
100
AcDbEntity
  8
bc
  6
Continuous
370
18
100
AcDbLine
 10
1540.981741174819
 20
778.4077058945113
 30
0.0
 11
1544.0819907484092
 21
778.4077058945113
 31
0.0
  0
LINE
  5
8A
330
17
100
AcDbEntity
  8
bc
  6
Continuous
370
18
100
AcDbLine
 10
1540.981741174819
 20
791.1332473781185
 30
0.0
 11
1544.0819907484092
 21
791.1332473781185
 31
0.0
  0
LINE
  5
8B
330
17
100
AcDbEntity
  8
bc
  6
Continuous
370
18
100
AcDbLine
 10
1544.0819907484092
 20
805.2226987349095
 30
0.0
 11
1540.981741174819
 21
805.2226987349095
 31
0.0
  0
LINE
  5
8C
330
17
100
AcDbEntity
  8
bc
  6
Continuous
370
18
100
AcDbLine
 10
1540.981741174819
 20
765.9202083040218
 30
0.0
 11
1544.0819907484092
 21
765.9202083040218
 31
0.0
  0
LWPOLYLINE
  5
8D
330
17
100
AcDbEntity
  8
0
 62
7
100
AcDbPolyline
 90
12
 70
1
 10
1537.981741174819
 20
379.43108338183083
 10
1547.981741174819
 20
379.43108338183083
 10
1547.981741174819
 20
363.93108338183083
 10
1109.981741174819
 20
363.93108338183083
 10
1109.981741174819
 20
379.43108338183083
 10
1119.981741174819
 20
379.43108338183083
 10
1119.981741174819
 20
380.93108338183083
 10
1108.481741174819
 20
380.93108338183083
 10
1108.481741174819
 20
362.43108338183083
 10
1549.481741174819
 20
362.43108338183083
 10
1549.481741174819
 20
380.93108338183083
 10
1537.981741174819
 20
380.93108338183083
  0
LWPOLYLINE
  5
8E
330
17
100
AcDbEntity
  8
0
 62
7
100
AcDbPolyline
 90
24
 70
1
 10
1578.981741174819
 20
542.4310833818199
 10
1078.981741174819
 20
542.4310833818199
 10
1078.981741174819
 20
362.43108338183083
 10
1106.981741174819
 20
362.43108338183083
 10
1106.981741174819
 20
382.43108338183083
 10
1118.981741174819
 20
382.43108338183083
 10
1118.981741174819
 20
383.93108338183083
 10
1105.481741174819
 20
383.93108338183083
 10
1105.481741174819
 20
363.93108338183083
 10
1080.481741174819
 20
363.93108338183083
 10
1080.481741174819
 20
540.9310833818308
 10
1577.481741174819
 20
540.9310833818308
 10
1577.481741174819
 20
540.9310833818308
 10
1577.481741174819
 20
540.9310833818308
 10
1577.481741174819
 20
540.9310833818308
 10
1577.481741174819
 20
363.93108338183083
 10
1552.481741174819
 20
363.93108338183083
 10
1552.481741174819
 20
383.93108338183083
 10
1538.981741174819
 20
383.93108338183083
 10
1538.981741174819
 20
382.43108338183083
 10
1550.981741174819
 20
382.43108338183083
 10
1550.981741174819
 20
362.43108338183083
 10
1578.981741174819
 20
362.43108338183083
 10
1578.981741174819
 20
542.4310833818199
  0
DIMENSION
  5
8F
330
17
100
AcDbEntity
  8
DIM
 48
3.0
100
AcDbDimension
280
0
  2
*D6
  3
Dim-25
 10
1053.8844525569493
 20
362.43108338183083
 30
0.0
 11
1031.12012786392
 21
452.4310833818199
 31
0.0
 70
32
 71
5
 42
180.0
 73
0
 74
0
 75
0
100
AcDbAlignedDimension
 13
1078.981741174819
 23
542.4310833818199
 33
0.0
 14
1078.981741174819
 24
362.43108338183083
 34
0.0
 50
90.0
100
AcDbRotatedDimension
  0
LWPOLYLINE
  5
90
330
17
100
AcDbEntity
  8
0
 62
1
100
AcDbPolyline
 90
4
 70
1
 10
1345.481741174819
 20
528.9310833818199
 10
1552.481741174819
 20
528.9310833818199
 10
1552.481741174819
 20
418.9310833818199
 10
1345.481741174819
 20
418.9310833818199
  0
LWPOLYLINE
  5
91
330
17
100
AcDbEntity
  8
0
 62
1
100
AcDbPolyline
 90
4
 70
1
 10
1345.481741174819
 20
527.4310833818199
 10
1550.981741174819
 20
527.4310833818199
 10
1550.981741174819
 20
420.4310833818199
 10
1345.481741174819
 20
420.4310833818199
  0
LWPOLYLINE
  5
92
330
17
100
AcDbEntity
  8
0
 62
1
100
AcDbPolyline
 90
4
 70
1
 10
1552.481741174819
 20
528.9310833818199
 10
1553.981741174819
 20
528.9310833818199
 10
1553.981741174819
 20
363.9310833818199
 10
1552.481741174819
 20
363.9310833818199
  0
INSERT
  5
93
330
17
100
AcDbEntity
  8
0
100
AcDbBlockReference
  2
A$C67844AE1
 10
1530.4818257342504
 20
396.9312056855415
 30
0.0
  0
LWPOLYLINE
  5
95
330
17
100
AcDbEntity
  8
FIRE PROTECTION
  6
Continuous
100
AcDbPolyline
 90
5
 70
1
 10
1944.198135308914
 20
1256.1463234935
 10
1734.1981353089195
 20
1256.1463234935
 10
1734.1981353089195
 20
1286.1463234935
 10
1845.3981353089257
 20
1286.1463234935
 10
1944.198135308914
 20
1276.1463234935
  0
LWPOLYLINE
  5
96
330
17
100
AcDbEntity
  8
0
 62
7
100
AcDbPolyline
 90
12
 70
1
 10
1897.198135308914
 20
1237.6827607404703
 10
1897.198135308914
 20
1247.6827607404703
 10
1912.6981353089122
 20
1247.6827607404703
 10
1912.6981353089122
 20
710.6827607404703
 10
1897.198135308914
 20
710.6827607404703
 10
1897.198135308914
 20
720.6827607404593
 10
1895.698135308914
 20
720.6827607404593
 10
1895.698135308914
 20
709.1827607404703
 10
1914.1981353089122
 20
709.1827607404703
 10
1914.1981353089122
 20
1249.1827607404703
 10
1895.698135308914
 20
1249.1827607404703
 10
1895.698135308914
 20
1237.6827607404703
  0
LWPOLYLINE
  5
97
330
17
100
AcDbEntity
  8
0
 62
7
100
AcDbPolyline
 90
24
 70
1
 10
1734.1981353089195
 20
1279.1827607404593
 10
1734.1981353089195
 20
679.1827607404593
 10
1914.1981353089122
 20
679.1827607404593
 10
1914.1981353089122
 20
707.1827607404703
 10
1894.198135308914
 20
707.1827607404703
 10
1894.198135308914
 20
719.1827607404593
 10
1892.698135308914
 20
719.1827607404593
 10
1892.698135308914
 20
705.6827607404593
 10
1912.6981353089122
 20
705.6827607404593
 10
1912.6981353089122
 20
680.6827607404593
 10
1735.6981353089195
 20
680.6827607404593
 10
1735.6981353089195
 20
1277.6827607404703
 10
1735.6981353089195
 20
1277.6827607404703
 10
1735.6981353089195
 20
1277.6827607404703
 10
1735.6981353089195
 20
1277.6827607404703
 10
1912.6981353089122
 20
1277.6827607404703
 10
1912.6981353089122
 20
1252.6827607404593
 10
1892.698135308914
 20
1252.6827607404593
 10
1892.698135308914
 20
1239.1827607404593
 10
1894.198135308914
 20
1239.1827607404593
 10
1894.198135308914
 20
1251.1827607404703
 10
1914.1981353089122
 20
1251.1827607404703
 10
1914.1981353089122
 20
1279.1827607404593
 10
1734.1981353089195
 20
1279.1827607404593
  0
DIMENSION
  5
98
330
17
100
AcDbEntity
  8
DIM
 48
3.0
100
AcDbDimension
280
0
  2
*D7
  3
Dim-25
 10
1914.1981353089122
 20
1325.3800065095493
 30
0.0
 11
1824.198135308914
 21
1348.1443312025986
 31
0.0
 70
32
 71
5
 42
180.0
 73
0
 74
0
 75
0
100
AcDbAlignedDimension
 13
1734.1981353089195
 23
1286.1463234935
 33
0.0
 14
1914.1981353089122
 24
1279.1827607404593
 34
0.0
 50
0.0
100
AcDbRotatedDimension
  0
INSERT
  5
99
330
17
100
AcDbEntity
  8
0
100
AcDbBlockReference
  2
ee
 10
12075.288475000321
 20
19731.891236462234
 30
0.0
  0
LWPOLYLINE
  5
9B
330
17
100
AcDbEntity
  8
0
 62
7
100
AcDbPolyline
 90
12
 70
1
 10
701.8841279912704
 20
379.43108338183083
 10
711.8841279912704
 20
379.43108338183083
 10
711.8841279912704
 20
363.93108338183083
 10
273.88412799127036
 20
363.93108338183083
 10
273.88412799127036
 20
379.43108338183083
 10
283.88412799127036
 20
379.43108338183083
 10
283.88412799127036
 20
380.93108338183083
 10
272.38412799127036
 20
380.93108338183083
 10
272.38412799127036
 20
362.43108338183083
 10
713.3841279912704
 20
362.43108338183083
 10
713.3841279912704
 20
380.93108338183083
 10
701.8841279912704
 20
380.93108338183083
  0
LWPOLYLINE
  5
9C
330
17
100
AcDbEntity
  8
0
 62
7
100
AcDbPolyline
 90
24
 70
1
 10
742.8841279912704
 20
542.4310833818199
 10
242.88412799127036
 20
542.4310833818199
 10
242.88412799127036
 20
362.43108338183083
 10
270.88412799127036
 20
362.43108338183083
 10
270.88412799127036
 20
382.43108338183083
 10
282.88412799127036
 20
382.43108338183083
 10
282.88412799127036
 20
383.93108338183083
 10
269.38412799127036
 20
383.93108338183083
 10
269.38412799127036
 20
363.93108338183083
 10
244.38412799127036
 20
363.93108338183083
 10
244.38412799127036
 20
540.9310833818308
 10
741.3841279912704
 20
540.9310833818308
 10
741.3841279912704
 20
540.9310833818308
 10
741.3841279912704
 20
540.9310833818308
 10
741.3841279912704
 20
540.9310833818308
 10
741.3841279912704
 20
363.93108338183083
 10
716.3841279912704
 20
363.93108338183083
 10
716.3841279912704
 20
383.93108338183083
 10
702.8841279912704
 20
383.93108338183083
 10
702.8841279912704
 20
382.43108338183083
 10
714.8841279912704
 20
382.43108338183083
 10
714.8841279912704
 20
362.43108338183083
 10
742.8841279912704
 20
362.43108338183083
 10
742.8841279912704
 20
542.4310833818199
  0
DIMENSION
  5
9D
330
17
100
AcDbEntity
  8
DIM
 48
3.0
100
AcDbDimension
280
0
  2
*D8
  3
Dim-25
 10
217.78683937340975
 20
362.43108338183083
 30
0.0
 11
195.02251468036957
 21
452.4310833818199
 31
0.0
 70
32
 71
5
 42
180.0
 73
0
 74
0
 75
0
100
AcDbAlignedDimension
 13
242.88412799127036
 23
542.4310833818199
 33
0.0
 14
242.88412799127036
 24
362.43108338183083
 34
0.0
 50
90.0
100
AcDbRotatedDimension
  0
LWPOLYLINE
  5
9E
330
17
100
AcDbEntity
  8
0
 62
1
100
AcDbPolyline
 90
4
 70
1
 10
509.38412799127036
 20
528.9310833818199
 10
716.3841279912704
 20
528.9310833818199
 10
716.3841279912704
 20
418.9310833818199
 10
509.38412799127036
 20
418.9310833818199
  0
LWPOLYLINE
  5
9F
330
17
100
AcDbEntity
  8
0
 62
1
100
AcDbPolyline
 90
4
 70
1
 10
509.38412799127036
 20
527.4310833818199
 10
714.8841279912704
 20
527.4310833818199
 10
714.8841279912704
 20
420.4310833818199
 10
509.38412799127036
 20
420.4310833818199
  0
LWPOLYLINE
  5
A0
330
17
100
AcDbEntity
  8
0
 62
1
100
AcDbPolyline
 90
4
 70
1
 10
716.3841279912704
 20
528.9310833818199
 10
717.8841279912704
 20
528.9310833818199
 10
717.8841279912704
 20
363.9310833818199
 10
716.3841279912704
 20
363.9310833818199
  0
INSERT
  5
A1
330
17
100
AcDbEntity
  8
0
100
AcDbBlockReference
  2
A$C67844AE1
 10
694.3842125506999
 20
396.9312056855415
 30
0.0
  0
INSERT
  5
A3
330
17
100
AcDbEntity
  8
0
100
AcDbBlockReference
  2
ee
 10
11239.190861816773
 20
19731.891236462234
 30
0.0
  0
DIMENSION
  5
A5
330
17
100
AcDbEntity
  8
DIM
 48
3.0
100
AcDbDimension
280
0
  2
*D9
  3
Dim-25
 10
692.8074436772094
 20
795.6827607404703
 30
0.0
 11
670.0345923811692
 21
969.1827607404593
 31
0.0
 70
32
 71
5
 42
346.9999999999854
 73
0
 74
0
 75
0
100
AcDbAlignedDimension
 13
611.3841279912704
 23
1142.6827607404593
 33
0.0
 14
611.3841279912704
 24
795.6827607404703
 34
0.0
 50
90.0
100
AcDbRotatedDimension
  0
LINE
  5
A6
330
17
100
AcDbEntity
  8
0
 48
3.0
100
AcDbLine
 10
374.38412799127036
 20
795.6827607404703
 30
0.0
 11
611.3841279912704
 21
795.6827607404703
 31
0.0
  0
DIMENSION
  5
A7
330
17
100
AcDbEntity
  8
DIM
 48
3.0
100
AcDbDimension
280
0
  2
*D10
  3
Dim-25
 10
611.3841279912704
 20
723.9005471560013
 30
0.0
 11
492.88412799127036
 21
746.6733984520506
 31
0.0
 70
32
 71
5
 42
237.0
 73
0
 74
0
 75
0
100
AcDbAlignedDimension
 13
374.38412799127036
 23
795.6827607404703
 33
0.0
 14
611.3841279912704
 24
795.6827607404703
 34
0.0
 50
0.0
100
AcDbRotatedDimension
  0
ENDSEC
  0
SECTION
  2
OBJECTS
  0
DICTIONARY
  5
A
330
0
100
AcDbDictionary
281
1
  3
ACAD_COLOR
350
B
  3
ACAD_GROUP
350
C
  3
ACAD_LAYOUT
350
D
  3
ACAD_MATERIAL
350
E
  3
ACAD_MLEADERSTYLE
350
F
  3
ACAD_MLINESTYLE
350
10
  3
ACAD_PLOTSETTINGS
350
11
  3
ACAD_PLOTSTYLENAME
350
12
  3
ACAD_SCALELIST
350
14
  3
ACAD_TABLESTYLE
350
15
  3
ACAD_VISUALSTYLE
350
16
  3
EZDXF_META
350
2D
  0
DICTIONARY
  5
B
330
A
100
AcDbDictionary
281
1
  0
DICTIONARY
  5
C
330
A
100
AcDbDictionary
281
1
  0
DICTIONARY
  5
D
330
A
100
AcDbDictionary
281
1
  3
Model
350
1A
  3
Layout1
350
1E
  0
DICTIONARY
  5
E
330
A
100
AcDbDictionary
281
1
  3
ByBlock
350
1F
  3
ByLayer
350
20
  3
Global
350
21
  0
DICTIONARY
  5
F
330
A
100
AcDbDictionary
281
1
  3
Standard
350
2C
  0
DICTIONARY
  5
10
330
A
100
AcDbDictionary
281
1
  3
Standard
350
22
  0
DICTIONARY
  5
11
330
A
100
AcDbDictionary
281
1
  0
ACDBDICTIONARYWDFLT
  5
12
330
A
100
AcDbDictionary
281
1
  3
Normal
350
13
100
AcDbDictionaryWithDefault
340
13
  0
ACDBPLACEHOLDER
  5
13
330
12
  0
DICTIONARY
  5
14
330
A
100
AcDbDictionary
281
1
  0
DICTIONARY
  5
15
330
A
100
AcDbDictionary
281
1
  0
DICTIONARY
  5
16
330
A
100
AcDbDictionary
281
1
  0
LAYOUT
  5
1A
330
D
100
AcDbPlotSettings
  1

  4
A3
  6

 40
7.5
 41
20.0
 42
7.5
 43
20.0
 44
420.0
 45
297.0
 46
0.0
 47
0.0
 48
0.0
 49
0.0
140
0.0
141
0.0
142
1.0
143
1.0
 70
1024
 72
1
 73
0
 74
5
  7

 75
16
 76
0
 77
2
 78
300
147
1.0
148
0.0
149
0.0
100
AcDbLayout
  1
Model
 70
1
 71
0
 10
0.0
 20
0.0
 11
420.0
 21
297.0
 12
0.0
 22
0.0
 32
0.0
 14
1e+20
 24
1e+20
 34
1e+20
 15
-1e+20
 25
-1e+20
 35
-1e+20
146
0.0
 13
0.0
 23
0.0
 33
0.0
 16
1.0
 26
0.0
 36
0.0
 17
0.0
 27
1.0
 37
0.0
 76
1
330
17
  0
LAYOUT
  5
1E
330
D
100
AcDbPlotSettings
  1

  4
A3
  6

 40
7.5
 41
20.0
 42
7.5
 43
20.0
 44
420.0
 45
297.0
 46
0.0
 47
0.0
 48
0.0
 49
0.0
140
0.0
141
0.0
142
1.0
143
1.0
 70
0
 72
1
 73
0
 74
5
  7

 75
16
 76
0
 77
2
 78
300
147
1.0
148
0.0
149
0.0
100
AcDbLayout
  1
Layout1
 70
1
 71
1
 10
0.0
 20
0.0
 11
420.0
 21
297.0
 12
0.0
 22
0.0
 32
0.0
 14
1e+20
 24
1e+20
 34
1e+20
 15
-1e+20
 25
-1e+20
 35
-1e+20
146
0.0
 13
0.0
 23
0.0
 33
0.0
 16
1.0
 26
0.0
 36
0.0
 17
0.0
 27
1.0
 37
0.0
 76
1
330
1B
  0
MATERIAL
  5
1F
102
{ACAD_REACTORS
330
E
102
}
330
E
100
AcDbMaterial
  1
ByBlock
  2

 70
0
 40
1.0
 71
1
 41
1.0
 91
-1023410177
 42
1.0
 72
1
  3

 73
1
 74
1
 75
1
 44
0.5
 73
0
 45
1.0
 46
1.0
 77
1
  4

 78
1
 79
1
170
1
 48
1.0
171
1
  6

172
1
173
1
174
1
140
1.0
141
1.0
175
1
  7

176
1
177
1
178
1
143
1.0
179
1
  8

270
1
271
1
272
1
145
1.0
146
1.0
273
1
  9

274
1
275
1
276
1
 42
1.0
 72
1
  3

 73
1
 74
1
 75
1
 94
63
  0
MATERIAL
  5
20
102
{ACAD_REACTORS
330
E
102
}
330
E
100
AcDbMaterial
  1
ByLayer
  2

 70
0
 40
1.0
 71
1
 41
1.0
 91
-1023410177
 42
1.0
 72
1
  3

 73
1
 74
1
 75
1
 44
0.5
 73
0
 45
1.0
 46
1.0
 77
1
  4

 78
1
 79
1
170
1
 48
1.0
171
1
  6

172
1
173
1
174
1
140
1.0
141
1.0
175
1
  7

176
1
177
1
178
1
143
1.0
179
1
  8

270
1
271
1
272
1
145
1.0
146
1.0
273
1
  9

274
1
275
1
276
1
 42
1.0
 72
1
  3

 73
1
 74
1
 75
1
 94
63
  0
MATERIAL
  5
21
102
{ACAD_REACTORS
330
E
102
}
330
E
100
AcDbMaterial
  1
Global
  2

 70
0
 40
1.0
 71
1
 41
1.0
 91
-1023410177
 42
1.0
 72
1
  3

 73
1
 74
1
 75
1
 44
0.5
 73
0
 45
1.0
 46
1.0
 77
1
  4

 78
1
 79
1
170
1
 48
1.0
171
1
  6

172
1
173
1
174
1
140
1.0
141
1.0
175
1
  7

176
1
177
1
178
1
143
1.0
179
1
  8

270
1
271
1
272
1
145
1.0
146
1.0
273
1
  9

274
1
275
1
276
1
 42
1.0
 72
1
  3

 73
1
 74
1
 75
1
 94
63
  0
MLINESTYLE
  5
22
102
{ACAD_REACTORS
330
10
102
}
330
10
100
AcDbMlineStyle
  2
Standard
 70
0
  3

 62
256
 51
90.0
 52
90.0
 71
2
 49
0.5
 62
256
  6
BYLAYER
 49
-0.5
 62
256
  6
BYLAYER
  0
MLEADERSTYLE
  5
2C
102
{ACAD_REACTORS
330
F
102
}
330
F
100
AcDbMLeaderStyle
179
2
170
2
171
1
172
0
 90
2
 40
0.0
 41
0.0
173
1
 91
-1056964608
 92
-2
290
1
 42
2.0
291
1
 43
8.0
  3
Standard
 44
4.0
300

342
29
174
1
175
1
176
0
178
1
 93
-1056964608
 45
4.0
292
0
297
0
 46
4.0
 94
-1056964608
 47
1.0
 49
1.0
140
1.0
294
1
141
0.0
177
0
142
1.0
295
0
296
0
143
3.75
271
0
272
9
273
9
  0
DICTIONARY
  5
2D
330
A
100
AcDbDictionary
280
1
281
1
  3
CREATED_BY_EZDXF
350
2E
  3
WRITTEN_BY_EZDXF
350
FF
  0
DICTIONARYVAR
  5
2E
330
2D
100
DictionaryVariables
280
0
  1
1.4.4 @ 2026-09-24T06:32:02.810799+00:00
  0
DICTIONARYVAR
  5
FF
330
2D
100
DictionaryVariables
280
0
  1
1.4.4 @ 2026-09-24T06:37:17.815450+00:00
  0
ENDSEC
  0
EOF
