  0
SECTION
  2
HEADER
  9
$ACADVER
  1
AC1032
  9
$ACADMAINTVER
 90
4
  9
$DWGCODEPAGE
  3
ANSI_1252
  9
$LASTSAVEDBY
  1
ezdxf
  9
$REQUIREDVERSIONS
160
0
  9
$INSBASE
 10
0.0
 20
0.0
 30
0.0
  9
$EXTMIN
 10
1e+20
 20
1e+20
 30
1e+20
  9
$EXTMAX
 10
-1e+20
 20
-1e+20
 30
-1e+20
  9
$LIMMIN
 10
0.0
 20
0.0
  9
$LIMMAX
 10
420.0
 20
297.0
  9
$ORTHOMODE
 70
0
  9
$REGENMODE
 70
1
  9
$FILLMODE
 70
1
  9
$QTEXTMODE
 70
0
  9
$MIRRTEXT
 70
1
  9
$LTSCALE
 40
1.0
  9
$ATTMODE
 70
1
  9
$TEXTSIZE
 40
2.5
  9
$TRACEWID
 40
1.0
  9
$TEXTSTYLE
  7
Standard
  9
$CLAYER
  8
0
  9
$CELTYPE
  6
ByLayer
  9
$CECOLOR
 62
256
  9
$CELTSCALE
 40
1.0
  9
$DISPSILH
 70
0
  9
$DIMSCALE
 40
1.0
  9
$DIMASZ
 40
2.5
  9
$DIMEXO
 40
0.625
  9
$DIMDLI
 40
3.75
  9
$DIMRND
 40
0.0
  9
$DIMDLE
 40
0.0
  9
$DIMEXE
 40
1.25
  9
$DIMTP
 40
0.0
  9
$DIMTM
 40
0.0
  9
$DIMTXT
 40
2.5
  9
$DIMCEN
 40
2.5
  9
$DIMTSZ
 40
0.0
  9
$DIMTOL
 70
0
  9
$DIMLIM
 70
0
  9
$DIMTIH
 70
0
  9
$DIMTOH
 70
0
  9
$DIMSE1
 70
0
  9
$DIMSE2
 70
0
  9
$DIMTAD
 70
1
  9
$DIMZIN
 70
8
  9
$DIMBLK
  1

  9
$DIMASO
 70
1
  9
$DIMSHO
 70
1
  9
$DIMPOST
  1

  9
$DIMAPOST
  1

  9
$DIMALT
 70
0
  9
$DIMALTD
 70
3
  9
$DIMALTF
 40
0.03937007874
  9
$DIMLFAC
 40
1.0
  9
$DIMTOFL
 70
1
  9
$DIMTVP
 40
0.0
  9
$DIMTIX
 70
0
  9
$DIMSOXD
 70
0
  9
$DIMSAH
 70
0
  9
$DIMBLK1
  1

  9
$DIMBLK2
  1

  9
$DIMSTYLE
  2
ISO-25
  9
$DIMCLRD
 70
0
  9
$DIMCLRE
 70
0
  9
$DIMCLRT
 70
0
  9
$DIMTFAC
 40
1.0
  9
$DIMGAP
 40
0.625
  9
$DIMJUST
 70
0
  9
$DIMSD1
 70
0
  9
$DIMSD2
 70
0
  9
$DIMTOLJ
 70
0
  9
$DIMTZIN
 70
8
  9
$DIMALTZ
 70
0
  9
$DIMALTTZ
 70
0
  9
$DIMUPT
 70
0
  9
$DIMDEC
 70
2
  9
$DIMTDEC
 70
2
  9
$DIMALTU
 70
2
  9
$DIMALTTD
 70
3
  9
$DIMTXSTY
  7
Standard
  9
$DIMAUNIT
 70
0
  9
$DIMADEC
 70
0
  9
$DIMALTRND
 40
0.0
  9
$DIMAZIN
 70
0
  9
$DIMDSEP
 70
44
  9
$DIMATFIT
 70
3
  9
$DIMFRAC
 70
0
  9
$DIMLDRBLK
  1

  9
$DIMLUNIT
 70
2
  9
$DIMLWD
 70
-2
  9
$DIMLWE
 70
-2
  9
$DIMTMOVE
 70
0
  9
$DIMFXL
 40
1.0
  9
$DIMFXLON
 70
0
  9
$DIMJOGANG
 40
0.785398163397
  9
$DIMTFILL
 70
0
  9
$DIMTFILLCLR
 70
0
  9
$DIMARCSYM
 70
0
  9
$DIMLTYPE
  6

  9
$DIMLTEX1
  6

  9
$DIMLTEX2
  6

  9
$DIMTXTDIRECTION
 70
0
  9
$LUNITS
 70
2
  9
$LUPREC
 70
4
  9
$SKETCHINC
 40
1.0
  9
$FILLETRAD
 40
10.0
  9
$AUNITS
 70
0
  9
$AUPREC
 70
2
  9
$MENU
  1
.
  9
$ELEVATION
 40
0.0
  9
$PELEVATION
 40
0.0
  9
$THICKNESS
 40
0.0
  9
$LIMCHECK
 70
0
  9
$CHAMFERA
 40
0.0
  9
$CHAMFERB
 40
0.0
  9
$CHAMFERC
 40
0.0
  9
$CHAMFERD
 40
0.0
  9
$SKPOLY
 70
0
  9
$TDCREATE
 40
2461308.568240741
  9
$TDUCREATE
 40
2458532.153996898
  9
$TDUPDATE
 40
2461308.568240741
  9
$TDUUPDATE
 40
2458532.1544311
  9
$TDINDWG
 40
0.0
  9
$TDUSRTIMER
 40
0.0
  9
$USRTIMER
 70
1
  9
$ANGBASE
 50
0.0
  9
$ANGDIR
 70
0
  9
$PDMODE
 70
0
  9
$PDSIZE
 40
0.0
  9
$PLINEWID
 40
0.0
  9
$SPLFRAME
 70
0
  9
$SPLINETYPE
 70
6
  9
$SPLINESEGS
 70
8
  9
$HANDSEED
  5
1A1
  9
$SURFTAB1
 70
6
  9
$SURFTAB2
 70
6
  9
$SURFTYPE
 70
6
  9
$SURFU
 70
6
  9
$SURFV
 70
6
  9
$UCSBASE
  2

  9
$UCSNAME
  2

  9
$UCSORG
 10
0.0
 20
0.0
 30
0.0
  9
$UCSXDIR
 10
1.0
 20
0.0
 30
0.0
  9
$UCSYDIR
 10
0.0
 20
1.0
 30
0.0
  9
$UCSORTHOREF
  2

  9
$UCSORTHOVIEW
 70
0
  9
$UCSORGTOP
 10
0.0
 20
0.0
 30
0.0
  9
$UCSORGBOTTOM
 10
0.0
 20
0.0
 30
0.0
  9
$UCSORGLEFT
 10
0.0
 20
0.0
 30
0.0
  9
$UCSORGRIGHT
 10
0.0
 20
0.0
 30
0.0
  9
$UCSORGFRONT
 10
0.0
 20
0.0
 30
0.0
  9
$UCSORGBACK
 10
0.0
 20
0.0
 30
0.0
  9
$PUCSBASE
  2

  9
$PUCSNAME
  2

  9
$PUCSORG
 10
0.0
 20
0.0
 30
0.0
  9
$PUCSXDIR
 10
1.0
 20
0.0
 30
0.0
  9
$PUCSYDIR
 10
0.0
 20
1.0
 30
0.0
  9
$PUCSORTHOREF
  2

  9
$PUCSORTHOVIEW
 70
0
  9
$PUCSORGTOP
 10
0.0
 20
0.0
 30
0.0
  9
$PUCSORGBOTTOM
 10
0.0
 20
0.0
 30
0.0
  9
$PUCSORGLEFT
 10
0.0
 20
0.0
 30
0.0
  9
$PUCSORGRIGHT
 10
0.0
 20
0.0
 30
0.0
  9
$PUCSORGFRONT
 10
0.0
 20
0.0
 30
0.0
  9
$PUCSORGBACK
 10
0.0
 20
0.0
 30
0.0
  9
$USERI1
 70
0
  9
$USERI2
 70
0
  9
$USERI3
 70
0
  9
$USERI4
 70
0
  9
$USERI5
 70
0
  9
$USERR1
 40
0.0
  9
$USERR2
 40
0.0
  9
$USERR3
 40
0.0
  9
$USERR4
 40
0.0
  9
$USERR5
 40
0.0
  9
$WORLDVIEW
 70
1
  9
$SHADEDGE
 70
3
  9
$SHADEDIF
 70
70
  9
$TILEMODE
 70
1
  9
$MAXACTVP
 70
64
  9
$PINSBASE
 10
0.0
 20
0.0
 30
0.0
  9
$PLIMCHECK
 70
0
  9
$PEXTMIN
 10
1e+20
 20
1e+20
 30
1e+20
  9
$PEXTMAX
 10
-1e+20
 20
-1e+20
 30
-1e+20
  9
$PLIMMIN
 10
0.0
 20
0.0
  9
$PLIMMAX
 10
420.0
 20
297.0
  9
$UNITMODE
 70
0
  9
$VISRETAIN
 70
1
  9
$PLINEGEN
 70
0
  9
$PSLTSCALE
 70
1
  9
$TREEDEPTH
 70
3020
  9
$CMLSTYLE
  2
Standard
  9
$CMLJUST
 70
0
  9
$CMLSCALE
 40
20.0
  9
$PROXYGRAPHICS
 70
1
  9
$MEASUREMENT
 70
1
  9
$CELWEIGHT
370
-1
  9
$ENDCAPS
280
0
  9
$JOINSTYLE
280
0
  9
$LWDISPLAY
290
0
  9
$INSUNITS
 70
4
  9
$HYPERLINKBASE
  1

  9
$STYLESHEET
  1

  9
$XEDIT
290
1
  9
$CEPSNTYPE
380
0
  9
$PSTYLEMODE
290
1
  9
$FINGERPRINTGUID
  2
{96D038A7-C862-4F54-8C17-2235BCF751BE}
  9
$VERSIONGUID
  2
{33DE3D58-0B7F-453D-8F66-C4C5B45875D9}
  9
$EXTNAMES
290
1
  9
$PSVPSCALE
 40
0.0
  9
$OLESTARTUP
290
0
  9
$SORTENTS
280
127
  9
$INDEXCTL
280
0
  9
$HIDETEXT
280
1
  9
$XCLIPFRAME
280
1
  9
$HALOGAP
280
0
  9
$OBSCOLOR
 70
257
  9
$OBSLTYPE
280
0
  9
$INTERSECTIONDISPLAY
280
0
  9
$INTERSECTIONCOLOR
 70
257
  9
$DIMASSOC
280
2
  9
$PROJECTNAME
  1

  9
$CAMERADISPLAY
290
0
  9
$LENSLENGTH
 40
50.0
  9
$CAMERAHEIGHT
 40
0.0
  9
$STEPSPERSEC
 40
24.0
  9
$STEPSIZE
 40
100.0
  9
$3DDWFPREC
 40
2.0
  9
$PSOLWIDTH
 40
0.005
  9
$PSOLHEIGHT
 40
0.08
  9
$LOFTANG1
 40
1.570796326795
  9
$LOFTANG2
 40
1.570796326795
  9
$LOFTMAG1
 40
0.0
  9
$LOFTMAG2
 40
0.0
  9
$LOFTPARAM
 70
7
  9
$LOFTNORMALS
280
1
  9
$LATITUDE
 40
37.795
  9
$LONGITUDE
 40
-122.394
  9
$NORTHDIRECTION
 40
0.0
  9
$TIMEZONE
 70
-8000
  9
$LIGHTGLYPHDISPLAY
280
1
  9
$TILEMODELIGHTSYNCH
280
1
  9
$CMATERIAL
347
20
  9
$SOLIDHIST
280
0
  9
$SHOWHIST
280
1
  9
$DWFFRAME
280
2
  9
$DGNFRAME
280
2
  9
$REALWORLDSCALE
290
1
  9
$INTERFERECOLOR
 62
256
  9
$CSHADOW
280
0
  9
$SHADOWPLANELOCATION
 40
0.0
  0
ENDSEC
  0
SECTION
  2
CLASSES
  0
CLASS
  1
ACDBDICTIONARYWDFLT
  2
AcDbDictionaryWithDefault
  3
ObjectDBX Classes
 90
0
 91
0
280
0
281
0
  0
CLASS
  1
SUN
  2
AcDbSun
  3
SCENEOE
 90
1153
 91
0
280
0
281
0
  0
CLASS
  1
VISUALSTYLE
  2
AcDbVisualStyle
  3
ObjectDBX Classes
 90
4095
 91
0
280
0
281
0
  0
CLASS
  1
MATERIAL
  2
AcDbMaterial
  3
ObjectDBX Classes
 90
1153
 91
0
280
0
281
0
  0
CLASS
  1
SCALE
  2
AcDbScale
  3
ObjectDBX Classes
 90
1153
 91
0
280
0
281
0
  0
CLASS
  1
TABLESTYLE
  2
AcDbTableStyle
  3
ObjectDBX Classes
 90
4095
 91
0
280
0
281
0
  0
CLASS
  1
MLEADERSTYLE
  2
AcDbMLeaderStyle
  3
ACDB_MLEADERSTYLE_CLASS
 90
4095
 91
0
280
0
281
0
  0
CLASS
  1
DICTIONARYVAR
  2
AcDbDictionaryVar
  3
ObjectDBX Classes
 90
0
 91
0
280
0
281
0
  0
CLASS
  1
CELLSTYLEMAP
  2
AcDbCellStyleMap
  3
ObjectDBX Classes
 90
1152
 91
0
280
0
281
0
  0
CLASS
  1
MENTALRAYRENDERSETTINGS
  2
AcDbMentalRayRenderSettings
  3
SCENEOE
 90
1024
 91
0
280
0
281
0
  0
CLASS
  1
ACDBDETAILVIEWSTYLE
  2
AcDbDetailViewStyle
  3
ObjectDBX Classes
 90
1025
 91
0
280
0
281
0
  0
CLASS
  1
ACDBSECTIONVIEWSTYLE
  2
AcDbSectionViewStyle
  3
ObjectDBX Classes
 90
1025
 91
0
280
0
281
0
  0
CLASS
  1
RASTERVARIABLES
  2
AcDbRasterVariables
  3
ISM
 90
0
 91
0
280
0
281
0
  0
CLASS
  1
ACDBPLACEHOLDER
  2
AcDbPlaceHolder
  3
ObjectDBX Classes
 90
0
 91
0
280
0
281
0
  0
CLASS
  1
LAYOUT
  2
AcDbLayout
  3
ObjectDBX Classes
 90
0
 91
0
280
0
281
0
  0
ENDSEC
  0
SECTION
  2
TABLES
  0
TABLE
  2
VPORT
  5
8
330
0
100
AcDbSymbolTable
 70
1
  0
VPORT
  5
23
330
8
100
AcDbSymbolTableRecord
100
AcDbViewportTableRecord
  2
*Active
 70
0
 10
0.0
 20
0.0
 11
1.0
 21
1.0
 12
0.0
 22
0.0
 13
0.0
 23
0.0
 14
0.5
 24
0.5
 15
0.5
 25
0.5
 16
0.0
 26
0.0
 36
1.0
 17
0.0
 27
0.0
 37
0.0
 40
1000.0
 41
1.34
 42
50.0
 43
0.0
 44
0.0
 50
0.0
 51
0.0
 71
0
 72
1000
 73
1
 74
3
 75
0
 76
0
 77
0
 78
0
281
0
 65
0
146
0.0
  0
ENDTAB
  0
TABLE
  2
LTYPE
  5
2
330
0
100
AcDbSymbolTable
 70
4
  0
LTYPE
  5
24
330
2
100
AcDbSymbolTableRecord
100
AcDbLinetypeTableRecord
  2
ByBlock
 70
0
  3

 72
65
 73
0
 40
0.0
  0
LTYPE
  5
25
330
2
100
AcDbSymbolTableRecord
100
AcDbLinetypeTableRecord
  2
ByLayer
 70
0
  3

 72
65
 73
0
 40
0.0
  0
LTYPE
  5
26
330
2
100
AcDbSymbolTableRecord
100
AcDbLinetypeTableRecord
  2
Continuous
 70
0
  3

 72
65
 73
0
 40
0.0
  0
LTYPE
  5
122
330
2
100
AcDbSymbolTableRecord
100
AcDbLinetypeTableRecord
  2
HIDDEN2
 70
0
  3
Hidden (.5x) _ _ _ _ _ _ _ _ _ _ _ _ _ _ _ _ _
 72
65
 73
2
 40
4.762499999999998
 49
3.174999999999998
 74
0
 49
-1.587499999999999
 74
0
  0
ENDTAB
  0
TABLE
  2
LAYER
  5
1
330
0
100
AcDbSymbolTable
 70
6
  0
LAYER
  5
27
330
1
100
AcDbSymbolTableRecord
100
AcDbLayerTableRecord
  2
0
 70
0
 62
7
  6
Continuous
370
-3
390
13
347
21
  0
LAYER
  5
28
330
1
100
AcDbSymbolTableRecord
100
AcDbLayerTableRecord
  2
Defpoints
 70
0
 62
7
  6
Continuous
290
0
370
-3
390
13
347
21
  0
LAYER
  5
11E
330
1
100
AcDbSymbolTableRecord
100
AcDbLayerTableRecord
  2
07
 70
0
 62
5
  6
Continuous
370
5
390
13
347
21
  0
LAYER
  5
11F
330
1
100
AcDbSymbolTableRecord
100
AcDbLayerTableRecord
  2
01
 70
0
 62
7
  6
HIDDEN2
370
-3
390
13
347
21
  0
LAYER
  5
120
330
1
100
AcDbSymbolTableRecord
100
AcDbLayerTableRecord
  2
FIRE PROTECTION
 70
0
 62
1
  6
Continuous
370
-3
390
13
347
21
  0
LAYER
  5
121
330
1
100
AcDbSymbolTableRecord
100
AcDbLayerTableRecord
  2
Ghi chu
 70
0
 62
7
  6
Continuous
370
-3
390
13
347
21
  0
ENDTAB
  0
TABLE
  2
STYLE
  5
5
330
0
100
AcDbSymbolTable
 70
3
  0
STYLE
  5
29
330
5
100
AcDbSymbolTableRecord
100
AcDbTextStyleTableRecord
  2
Standard
 70
0
 40
0.0
 41
1.0
 50
0.0
 71
0
 42
2.5
  3
txt
  4

  0
STYLE
  5
123
330
5
100
AcDbSymbolTableRecord
100
AcDbTextStyleTableRecord
  2
Arial
 70
0
 40
0.0
 41
1.0
 50
0.0
 71
0
 42
0.2
  3
arial.ttf
  4

  0
STYLE
  5
124
330
5
100
AcDbSymbolTableRecord
100
AcDbTextStyleTableRecord
  2
Arial-Black
 70
0
 40
0.0
 41
1.0
 50
0.0
 71
0
 42
2.0
  3

  4

  0
ENDTAB
  0
TABLE
  2
VIEW
  5
7
330
0
100
AcDbSymbolTable
 70
0
  0
ENDTAB
  0
TABLE
  2
UCS
  5
6
330
0
100
AcDbSymbolTable
 70
0
  0
ENDTAB
  0
TABLE
  2
APPID
  5
3
330
0
100
AcDbSymbolTable
 70
3
  0
APPID
  5
2A
330
3
100
AcDbSymbolTableRecord
100
AcDbRegAppTableRecord
  2
ACAD
 70
0
  0
APPID
  5
12B
330
3
100
AcDbSymbolTableRecord
100
AcDbRegAppTableRecord
  2
HATCHBACKGROUNDCOLOR
 70
0
  0
APPID
  5
12C
330
3
100
AcDbSymbolTableRecord
100
AcDbRegAppTableRecord
  2
EZDXF
 70
0
  0
ENDTAB
  0
TABLE
  2
DIMSTYLE
  5
4
330
0
100
AcDbSymbolTable
 70
2
100
AcDbDimStyleTable
  0
DIMSTYLE
105
2B
330
4
100
AcDbSymbolTableRecord
100
AcDbDimStyleTableRecord
  2
Standard
 70
0
 40
1.0
 41
2.5
 42
0.625
 43
3.75
 44
1.25
 45
0.0
 46
0.0
 47
0.0
 48
0.0
 49
2.5
140
2.5
141
2.5
142
0.0
143
0.03937007874
144
1.0
145
0.0
146
1.0
147
0.625
148
0.0
 69
0
 70
0
 71
0
 72
0
 73
0
 74
0
 75
0
 76
0
 77
1
 78
8
 79
3
170
0
171
3
172
1
173
0
174
0
175
0
176
0
177
0
178
0
179
2
271
2
272
2
273
2
274
3
275
0
276
0
277
2
278
44
279
0
280
0
281
0
282
0
283
0
284
8
285
0
286
0
288
0
289
3
290
0
371
-2
372
-2
  0
DIMSTYLE
105
11D
330
4
100
AcDbSymbolTableRecord
100
AcDbDimStyleTableRecord
  2
Dim-33
 70
0
 40
1.0
 41
12.0
 42
25.0
 43
3.75
 44
15.0
 45
0.0
 46
0.0
 47
0.0
 48
0.0
 49
2.5
140
33.0
141
10.0
142
0.0
143
0.03937007874016
144
1.0
145
0.0
146
1.0
147
15.0
148
0.0
 69
0
 70
0
 71
0
 72
0
 73
0
 74
0
 75
0
 76
0
 77
1
 78
8
 79
3
170
0
171
3
172
1
173
0
174
0
175
0
176
5
177
5
178
3
179
2
271
0
272
0
273
2
274
3
275
0
276
0
277
2
278
44
279
0
280
0
281
0
282
0
283
0
284
8
285
0
286
0
288
0
289
3
290
0
340
29
341
125
342
3C
345
25
346
25
347
25
371
9
372
9
  0
ENDTAB
  0
TABLE
  2
BLOCK_RECORD
  5
9
330
0
100
AcDbSymbolTable
 70
20
  0
BLOCK_RECORD
  5
17
330
9
100
AcDbSymbolTableRecord
100
AcDbBlockTableRecord
  2
*Model_Space
340
1A
 70
0
280
1
281
0
  0
BLOCK_RECORD
  5
1B
330
9
100
AcDbSymbolTableRecord
100
AcDbBlockTableRecord
  2
*Paper_Space
340
1E
 70
0
280
1
281
0
  0
BLOCK_RECORD
  5
3C
330
9
100
AcDbSymbolTableRecord
100
AcDbBlockTableRecord
  2
_Oblique
340
0
 70
0
280
1
281
0
  0
BLOCK_RECORD
  5
97
330
9
100
AcDbSymbolTableRecord
100
AcDbBlockTableRecord
  2
ovan6x10
340
0
 70
0
280
1
281
0
  0
BLOCK_RECORD
  5
9E
330
9
100
AcDbSymbolTableRecord
100
AcDbBlockTableRecord
  2
HL036-1-1
340
0
 70
0
280
1
281
0
  0
BLOCK_RECORD
  5
A8
330
9
100
AcDbSymbolTableRecord
100
AcDbBlockTableRecord
  2
HL036-1-2
340
0
 70
0
280
1
281
0
  0
BLOCK_RECORD
  5
BD
330
9
100
AcDbSymbolTableRecord
100
AcDbBlockTableRecord
  2
MS308-2-1
340
0
 70
0
280
1
281
0
  0
BLOCK_RECORD
  5
CE
330
9
100
AcDbSymbolTableRecord
100
AcDbBlockTableRecord
  2
Den XANH
340
0
 70
0
280
1
281
0
  0
BLOCK_RECORD
  5
DB
330
9
100
AcDbSymbolTableRecord
100
AcDbBlockTableRecord
  2
Den DO
340
0
 70
0
280
1
281
0
  0
BLOCK_RECORD
  5
E8
330
9
100
AcDbSymbolTableRecord
100
AcDbBlockTableRecord
  2
Den VANG
340
0
 70
0
280
1
281
0
  0
BLOCK_RECORD
  5
F5
330
9
100
AcDbSymbolTableRecord
100
AcDbBlockTableRecord
  2
KHUNG CHUẨN
340
0
 70
0
280
1
281
0
  0
BLOCK_RECORD
  5
125
330
9
100
AcDbSymbolTableRecord
100
AcDbBlockTableRecord
  2
_Open30
340
0
 70
0
280
1
281
0
  0
BLOCK_RECORD
  5
141
330
9
100
AcDbSymbolTableRecord
100
AcDbBlockTableRecord
  2
*D1
340
0
 70
0
280
1
281
0
  0
BLOCK_RECORD
  5
14D
330
9
100
AcDbSymbolTableRecord
100
AcDbBlockTableRecord
  2
*D2
340
0
 70
0
280
1
281
0
  0
BLOCK_RECORD
  5
159
330
9
100
AcDbSymbolTableRecord
100
AcDbBlockTableRecord
  2
*D3
340
0
 70
0
280
1
281
0
  0
BLOCK_RECORD
  5
165
330
9
100
AcDbSymbolTableRecord
100
AcDbBlockTableRecord
  2
*D4
340
0
 70
0
280
1
281
0
  0
BLOCK_RECORD
  5
171
330
9
100
AcDbSymbolTableRecord
100
AcDbBlockTableRecord
  2
*D5
340
0
 70
0
280
1
281
0
  0
BLOCK_RECORD
  5
17D
330
9
100
AcDbSymbolTableRecord
100
AcDbBlockTableRecord
  2
*D6
340
0
 70
0
280
1
281
0
  0
BLOCK_RECORD
  5
189
330
9
100
AcDbSymbolTableRecord
100
AcDbBlockTableRecord
  2
*D7
340
0
 70
0
280
1
281
0
  0
BLOCK_RECORD
  5
195
330
9
100
AcDbSymbolTableRecord
100
AcDbBlockTableRecord
  2
*D8
340
0
 70
0
280
1
281
0
  0
ENDTAB
  0
ENDSEC
  0
SECTION
  2
BLOCKS
  0
BLOCK
  5
18
330
17
100
AcDbEntity
  8
0
100
AcDbBlockBegin
  2
*Model_Space
 70
0
 10
0.0
 20
0.0
 30
0.0
  3
*Model_Space
  1

  0
ENDBLK
  5
19
330
17
100
AcDbEntity
  8
0
100
AcDbBlockEnd
  0
BLOCK
  5
1C
330
1B
100
AcDbEntity
  8
0
100
AcDbBlockBegin
  2
*Paper_Space
 70
0
 10
0.0
 20
0.0
 30
0.0
  3
*Paper_Space
  1

  0
ENDBLK
  5
1D
330
1B
100
AcDbEntity
  8
0
100
AcDbBlockEnd
  0
BLOCK
  5
3D
330
3C
100
AcDbEntity
  8
0
100
AcDbBlockBegin
  2
_Oblique
 70
0
 10
0.0
 20
0.0
 30
0.0
  3
_Oblique
  1

  0
LINE
  5
3F
330
3C
100
AcDbEntity
  8
0
  6
ByBlock
 62
0
370
-2
100
AcDbLine
 10
-0.5
 20
-0.5
 30
0.0
 11
0.5
 21
0.5
 31
0.0
  0
ENDBLK
  5
3E
330
3C
100
AcDbEntity
  8
0
100
AcDbBlockEnd
  0
BLOCK
  5
98
330
97
100
AcDbEntity
  8
0
100
AcDbBlockBegin
  2
ovan6x10
 70
0
 10
0.0
 20
0.0
 30
0.0
  3
ovan6x10
  1

  0
ARC
  5
9A
330
97
100
AcDbEntity
  8
0
 62
2
100
AcDbCircle
 10
6.999940003966912
 20
2.999987423216225
 30
0.0
 40
3.0
100
AcDbArc
 50
270.0
 51
90.0
  0
ARC
  5
9B
330
97
100
AcDbEntity
  8
0
 62
2
100
AcDbCircle
 10
2.999940003966912
 20
2.999987423216225
 30
0.0
 40
3.0
100
AcDbArc
 50
90.0
 51
270.0
  0
LINE
  5
9C
330
97
100
AcDbEntity
  8
0
 62
2
100
AcDbLine
 10
2.999940003966912
 20
-1.25767837744e-05
 30
0.0
 11
6.999940003966912
 21
-1.25767837744e-05
 31
0.0
  0
LINE
  5
9D
330
97
100
AcDbEntity
  8
0
 62
2
100
AcDbLine
 10
2.999940003966912
 20
5.999987423216225
 30
0.0
 11
6.999940003966912
 21
5.999987423216225
 31
0.0
  0
ENDBLK
  5
99
330
97
100
AcDbEntity
  8
0
100
AcDbBlockEnd
  0
BLOCK
  5
9F
330
9E
100
AcDbEntity
  8
0
100
AcDbBlockBegin
  2
HL036-1-1
 70
0
 10
0.0
 20
0.0
 30
0.0
  3
HL036-1-1
  1

  0
LWPOLYLINE
  5
A1
330
9E
100
AcDbEntity
  8
0
 62
1
100
AcDbPolyline
 90
4
 70
1
 10
-2.5
 20
12.25
 10
17.5
 20
12.25
 10
17.5
 20
36.25
 10
-2.5
 20
36.25
  0
CIRCLE
  5
A2
330
9E
100
AcDbEntity
  8
0
 62
1
100
AcDbCircle
 10
3.5
 20
31.75
 30
0.0
 40
2.0
  0
CIRCLE
  5
A3
330
9E
100
AcDbEntity
  8
0
 62
1
100
AcDbCircle
 10
3.5
 20
16.75
 30
0.0
 40
2.0
  0
LINE
  5
A4
330
9E
100
AcDbEntity
  8
0
 62
1
100
AcDbLine
 10
9.5
 20
36.25
 30
0.0
 11
9.5
 21
12.25
 31
0.0
  0
LWPOLYLINE
  5
A5
330
9E
100
AcDbEntity
  8
0
 62
1
100
AcDbPolyline
 90
4
 70
1
 10
0.0
 20
48.5
 10
17.5
 20
48.5
 10
17.5
 20
0.0
 10
0.0
 20
0.0
  0
CIRCLE
  5
A6
330
9E
100
AcDbEntity
  8
0
 62
1
100
AcDbCircle
 10
12.70000000018626
 20
16.0
 30
0.0
 40
2.5
  0
CIRCLE
  5
A7
330
9E
100
AcDbEntity
  8
0
 62
1
100
AcDbCircle
 10
12.70000000018626
 20
32.5
 30
0.0
 40
2.5
  0
ENDBLK
  5
A0
330
9E
100
AcDbEntity
  8
0
100
AcDbBlockEnd
  0
BLOCK
  5
A9
330
A8
100
AcDbEntity
  8
0
100
AcDbBlockBegin
  2
HL036-1-2
 70
0
 10
0.0
 20
0.0
 30
0.0
  3
HL036-1-2
  1

  0
LINE
  5
AB
330
A8
100
AcDbEntity
  8
Ghi chu
 62
1
100
AcDbLine
 10
0.0
 20
0.0
 30
0.0
 11
-15.39999999999418
 21
0.0
 31
0.0
  0
LINE
  5
AC
330
A8
100
AcDbEntity
  8
Ghi chu
 62
1
100
AcDbLine
 10
0.0
 20
1.999999999992724
 30
0.0
 11
-13.39999999999418
 21
1.999999999992724
 31
0.0
  0
ARC
  5
AD
330
A8
100
AcDbEntity
  8
Ghi chu
 62
1
100
AcDbCircle
 10
-13.39999999999418
 20
3.0
 30
0.0
 40
1.0
100
AcDbArc
 50
180.0
 51
270.0
  0
LINE
  5
AE
330
A8
100
AcDbEntity
  8
Ghi chu
 62
1
100
AcDbLine
 10
0.0
 20
0.0
 30
0.0
 11
0.0
 21
1.999999999992724
 31
0.0
  0
ARC
  5
AF
330
A8
100
AcDbEntity
  8
Ghi chu
 62
1
100
AcDbCircle
 10
-15.39999999999418
 20
0.999999999992724
 30
0.0
 40
1.0
100
AcDbArc
 50
180.0
 51
270.0
  0
LINE
  5
B0
330
A8
100
AcDbEntity
  8
Ghi chu
 62
1
100
AcDbLine
 10
-14.39999999999418
 20
3.0
 30
0.0
 11
-14.39999999999418
 21
11.86544318653614
 31
0.0
  0
ARC
  5
B1
330
A8
100
AcDbEntity
  8
Ghi chu
 62
1
100
AcDbCircle
 10
-13.39999999999418
 20
11.86544318653614
 30
0.0
 40
1.0
100
AcDbArc
 50
71.32539173677213
 51
180.0
  0
CIRCLE
  5
B2
330
A8
100
AcDbEntity
  8
Ghi chu
 62
1
100
AcDbCircle
 10
-3.0
 20
13.69999999998981
 30
0.0
 40
2.1
  0
CIRCLE
  5
B3
330
A8
100
AcDbEntity
  8
Ghi chu
 62
1
100
AcDbCircle
 10
-3.0
 20
13.69999999998981
 30
0.0
 40
4.099999999999998
  0
LINE
  5
B4
330
A8
100
AcDbEntity
  8
Ghi chu
 62
1
100
AcDbLine
 10
-13.07980681549816
 20
12.81279545714642
 30
0.0
 11
-4.312792056429316
 21
9.815855690547323
 31
0.0
  0
LINE
  5
B5
330
A8
100
AcDbEntity
  8
Ghi chu
 62
1
100
AcDbLine
 10
-16.39999999999418
 20
0.999999999992724
 30
0.0
 11
-16.39999999999418
 21
14.00401710374717
 31
0.0
  0
ARC
  5
B6
330
A8
100
AcDbEntity
  8
Ghi chu
 62
1
100
AcDbCircle
 10
-15.39999999999418
 20
14.00401710374717
 30
0.0
 40
1.0
100
AcDbArc
 50
102.961620726614
 51
180.0
  0
LINE
  5
B7
330
A8
100
AcDbEntity
  8
Ghi chu
 62
1
100
AcDbLine
 10
-15.6242983273114
 20
14.97853763219609
 30
0.0
 11
-3.919623141991905
 21
17.69553416663257
 31
0.0
  0
LINE
  5
B8
330
A8
100
AcDbEntity
  8
Ghi chu
 62
1
100
AcDbLine
 10
-3.0
 20
17.80000000000291
 30
0.0
 11
-18.89999999999418
 21
17.80000000000291
 31
0.0
  0
LINE
  5
B9
330
A8
100
AcDbEntity
  8
Ghi chu
 62
1
100
AcDbLine
 10
-12.05524834657262
 20
15.80000000000291
 30
0.0
 11
-18.89999999999418
 21
15.80000000000291
 31
0.0
  0
LINE
  5
BA
330
A8
100
AcDbEntity
  8
Ghi chu
 62
1
100
AcDbLine
 10
-18.89999999999418
 20
15.80000000000291
 30
0.0
 11
-18.89999999999418
 21
17.80000000000291
 31
0.0
  0
LINE
  5
BB
330
A8
100
AcDbEntity
  8
Ghi chu
 62
1
100
AcDbLine
 10
-1.199999999999999
 20
1.999999999992724
 30
0.0
 11
-1.199999999999999
 21
0.0
 31
0.0
  0
LINE
  5
BC
330
A8
100
AcDbEntity
  8
Ghi chu
 62
1
100
AcDbLine
 10
-6.199999999999999
 20
1.999999999992724
 30
0.0
 11
-6.199999999999999
 21
0.0
 31
0.0
  0
ENDBLK
  5
AA
330
A8
100
AcDbEntity
  8
0
100
AcDbBlockEnd
  0
BLOCK
  5
BE
330
BD
100
AcDbEntity
  8
0
100
AcDbBlockBegin
  2
MS308-2-1
 70
0
 10
0.0
 20
0.0
 30
0.0
  3
MS308-2-1
  1

  0
ELLIPSE
  5
C0
330
BD
100
AcDbEntity
  8
0
 62
1
100
AcDbEllipse
 10
0.0
 20
0.0
 30
0.0
 11
0.0
 21
21.0
 31
0.0
 40
0.8571428571428544
 41
3.972003137538834
 42
8.594367476820336
  0
ARC
  5
C1
330
BD
100
AcDbEntity
  8
0
 62
1
100
AcDbCircle
 10
0.0
 20
-95.0
 30
0.0
 40
4.0
100
AcDbArc
 50
180.0
 51
0.0
  0
ARC
  5
C2
330
BD
100
AcDbEntity
  8
0
 62
1
100
AcDbCircle
 10
0.0
 20
6.712249977186728
 30
0.0
 40
13.28775002279326
100
AcDbArc
 50
0.0
 51
180.0
  0
LINE
  5
C3
330
BD
100
AcDbEntity
  8
0
 62
1
100
AcDbLine
 10
12.28775002280599
 20
6.712249977186728
 30
0.0
 11
12.28775002280599
 21
-6.869241408494416
 31
0.0
  0
LINE
  5
C4
330
BD
100
AcDbEntity
  8
0
 62
1
100
AcDbLine
 10
-12.28775002280599
 20
6.712249977186728
 30
0.0
 11
-12.28775002280599
 21
-6.869241408494416
 31
0.0
  0
ARC
  5
C5
330
BD
100
AcDbEntity
  8
0
 62
1
100
AcDbCircle
 10
0.0
 20
5.937164051661966
 30
0.0
 40
17.74803711493563
100
AcDbArc
 50
226.1840421250448
 51
313.8159578749552
  0
ARC
  5
C6
330
BD
100
AcDbEntity
  8
0
 62
1
100
AcDbCircle
 10
0.0
 20
6.712249977186728
 30
0.0
 40
12.28775002279326
100
AcDbArc
 50
0.0
 51
180.0
  0
LINE
  5
C7
330
BD
100
AcDbEntity
  8
0
 62
1
100
AcDbLine
 10
13.28775002279144
 20
-14.16602867902838
 30
0.0
 11
4.0
 21
-95.0
 31
0.0
  0
LINE
  5
C8
330
BD
100
AcDbEntity
  8
0
 62
1
100
AcDbLine
 10
-4.0
 20
-95.0
 30
0.0
 11
-13.28775002280599
 21
-14.16602867902838
 31
0.0
  0
LINE
  5
C9
330
BD
100
AcDbEntity
  8
0
 62
1
100
AcDbLine
 10
-13.28775002280599
 20
-14.16602867902838
 30
0.0
 11
-13.28775002280599
 21
6.712249977186728
 31
0.0
  0
LINE
  5
CA
330
BD
100
AcDbEntity
  8
0
 62
1
100
AcDbLine
 10
13.28775002279144
 20
6.712249977186728
 30
0.0
 11
13.28775002279144
 21
-14.16602867902838
 31
0.0
  0
LWPOLYLINE
  5
CB
330
BD
100
AcDbEntity
  8
0
 62
1
100
AcDbPolyline
 90
4
 70
0
 10
-15.82815883938747
 20
-10.0
 10
-53.0
 20
-10.0
 10
-53.0
 20
10.0
 10
-15.82815883938747
 20
10.0
  0
LINE
  5
CC
330
BD
100
AcDbEntity
  8
0
 62
1
100
AcDbLine
 10
-53.0
 20
4.646649645350406
 30
0.0
 11
-46.02962448445032
 21
10.0
 31
0.0
  0
LINE
  5
CD
330
BD
100
AcDbEntity
  8
0
 62
1
100
AcDbLine
 10
-53.0
 20
-4.646649645350406
 30
0.0
 11
-46.02962448445032
 21
-10.0
 31
0.0
  0
ENDBLK
  5
BF
330
BD
100
AcDbEntity
  8
0
100
AcDbBlockEnd
  0
BLOCK
  5
CF
330
CE
100
AcDbEntity
  8
0
100
AcDbBlockBegin
  2
Den XANH
 70
2
 10
0.0
 20
0.0
 30
0.0
  3
Den XANH
  1

  0
CIRCLE
  5
D1
330
CE
100
AcDbEntity
  8
0
 62
7
100
AcDbCircle
 10
14.99995469494024
 20
14.99998362692713
 30
0.0
 40
15.0
  0
LINE
  5
D2
330
CE
100
AcDbEntity
  8
0
 62
7
100
AcDbLine
 10
-4.53050597571e-05
 20
44.99998362692713
 30
0.0
 11
29.99995469494024
 21
44.99998362692713
 31
0.0
  0
LINE
  5
D3
330
CE
100
AcDbEntity
  8
0
 62
7
100
AcDbLine
 10
29.99995469494024
 20
14.99998362692713
 30
0.0
 11
29.99995469494024
 21
44.99998362692713
 31
0.0
  0
LINE
  5
D4
330
CE
100
AcDbEntity
  8
0
 62
7
100
AcDbLine
 10
-4.53050597571e-05
 20
44.99998362692713
 30
0.0
 11
-4.53050597571e-05
 21
14.99998362692713
 31
0.0
  0
LWPOLYLINE
  5
D5
330
CE
100
AcDbEntity
  8
0
 62
7
100
AcDbPolyline
 90
4
 70
1
 10
1.999954694940242
 20
42.99998362692713
 10
27.99995469494025
 20
42.99998362692713
 10
27.99995469494025
 20
32.99998362692714
 10
1.999954694940242
 20
32.99998362692714
  0
CIRCLE
  5
D6
330
CE
100
AcDbEntity
  8
07
  6
Continuous
 62
5
370
5
 48
3.0
100
AcDbCircle
 10
14.99995469494024
 20
14.99998362692713
 30
0.0
 40
11.0
  0
LINE
  5
D7
330
CE
100
AcDbEntity
  8
07
  6
Continuous
 62
5
370
5
 48
3.0
100
AcDbLine
 10
22.77812928799226
 20
22.77815821997915
 30
0.0
 11
7.221780101888218
 21
7.221809033875111
 31
0.0
  0
ATTDEF
  5
D8
330
CE
100
AcDbEntity
  8
01
  6
Continuous
 62
2
370
5
100
AcDbText
 10
5.913620722195252
 20
35.96791798923368
 30
0.0
 40
2.400000000139697
  1
R - PHASE
  7
Arial-Black
 41
1.000000000291038
 72
1
 11
15.22630830800335
 21
35.96791798923368
 31
0.0
100
AcDbAttributeDefinition
  3
Ten San Pham
  2
T-SP
 70
0
 71
1
 72
0
 11
15.22630830800335
 21
35.96791798923368
 31
0.0
  0
LINE
  5
D9
330
CE
100
AcDbEntity
  8
07
  6
Continuous
 62
5
370
5
 48
3.0
100
AcDbLine
 10
7.221780101888221
 20
22.77815821997915
 30
0.0
 11
22.77812928799226
 21
7.221809033875111
 31
0.0
  0
HATCH
  5
DA
330
CE
100
AcDbEntity
  8
0
 62
5
100
AcDbHatch
 10
0.0
 20
0.0
 30
0.0
210
0.0
220
0.0
230
1.0
  2
SOLID
 70
1
 71
0
 91
2
 92
7
 72
1
 73
1
 93
4
 10
14.99995469494024
 20
14.99998362692713
 42
0.0
 10
22.77812928799226
 20
7.221809033875109
 42
0.198912367379658
 10
25.99995469494024
 20
14.99998362692713
 42
0.198912367379658
 10
22.77812928799226
 20
22.77815821997915
 42
0.0
 97
0
 92
7
 72
1
 73
1
 93
4
 10
14.99995469494024
 20
14.99998362692713
 42
0.0
 10
7.22178010188822
 20
22.77815821997915
 42
0.198912367379658
 10
3.999954694940242
 20
14.99998362692713
 42
0.198912367379658
 10
7.221780101888218
 20
7.221809033875111
 42
0.0
 97
0
 75
0
 76
1
 47
0.0525107572166409
 98
2
 10
18.9324140735632
 20
15.03356113590959
 10
10.16203061267177
 20
14.71849664825233
450
0
451
0
460
0.0
461
0.0
452
1
462
1.0
453
2
463
0
 63
5
421
255
463
1
 63
7
421
16777215
470
LINEAR
  0
ENDBLK
  5
D0
330
CE
100
AcDbEntity
  8
0
100
AcDbBlockEnd
  0
BLOCK
  5
DC
330
DB
100
AcDbEntity
  8
0
100
AcDbBlockBegin
  2
Den DO
 70
2
 10
0.0
 20
0.0
 30
0.0
  3
Den DO
  1

  0
CIRCLE
  5
DE
330
DB
100
AcDbEntity
  8
0
 62
7
100
AcDbCircle
 10
14.99995469492569
 20
14.99998362692713
 30
0.0
 40
15.0
  0
LINE
  5
DF
330
DB
100
AcDbEntity
  8
0
 62
7
100
AcDbLine
 10
-4.5305074309e-05
 20
44.99998362692713
 30
0.0
 11
29.99995469492569
 21
44.99998362692713
 31
0.0
  0
LINE
  5
E0
330
DB
100
AcDbEntity
  8
0
 62
7
100
AcDbLine
 10
29.99995469492569
 20
14.99998362692713
 30
0.0
 11
29.99995469492569
 21
44.99998362692713
 31
0.0
  0
LINE
  5
E1
330
DB
100
AcDbEntity
  8
0
 62
7
100
AcDbLine
 10
-4.5305074309e-05
 20
44.99998362692713
 30
0.0
 11
-4.5305074309e-05
 21
14.99998362692713
 31
0.0
  0
LWPOLYLINE
  5
E2
330
DB
100
AcDbEntity
  8
0
 62
7
100
AcDbPolyline
 90
4
 70
1
 10
1.999954694925691
 20
42.99998362692713
 10
27.99995469492569
 20
42.99998362692713
 10
27.99995469492569
 20
32.99998362692714
 10
1.999954694925691
 20
32.99998362692714
  0
CIRCLE
  5
E3
330
DB
100
AcDbEntity
  8
07
  6
Continuous
 62
1
370
5
 48
3.0
100
AcDbCircle
 10
14.99995469492569
 20
14.99998362692713
 30
0.0
 40
11.0
  0
LINE
  5
E4
330
DB
100
AcDbEntity
  8
07
  6
Continuous
 62
1
370
5
 48
3.0
100
AcDbLine
 10
22.77812928797771
 20
22.77815821997915
 30
0.0
 11
7.221780101873667
 21
7.22180903387511
 31
0.0
  0
ATTDEF
  5
E5
330
DB
100
AcDbEntity
  8
01
  6
Continuous
 62
2
370
5
100
AcDbText
 10
5.913620722180702
 20
35.96791798923368
 30
0.0
 40
2.400000000139697
  1
R - PHASE
  7
Arial-Black
 41
1.000000000291038
 72
1
 11
15.2263083079888
 21
35.96791798923368
 31
0.0
100
AcDbAttributeDefinition
  3
Ten San Pham
  2
T-SP
 70
0
 71
1
 72
0
 11
15.2263083079888
 21
35.96791798923368
 31
0.0
  0
LINE
  5
E6
330
DB
100
AcDbEntity
  8
07
  6
Continuous
 62
1
370
5
 48
3.0
100
AcDbLine
 10
7.221780101873664
 20
22.77815821997915
 30
0.0
 11
22.77812928797771
 21
7.22180903387511
 31
0.0
  0
HATCH
  5
E7
330
DB
100
AcDbEntity
  8
0
 62
1
100
AcDbHatch
 10
0.0
 20
0.0
 30
0.0
210
0.0
220
0.0
230
1.0
  2
SOLID
 70
1
 71
0
 91
2
 92
7
 72
1
 73
1
 93
4
 10
7.221780101873663
 20
7.221809033875108
 42
0.0
 10
14.99995469492568
 20
14.99998362692713
 42
0.0
 10
7.221780101873665
 20
22.77815821997915
 42
0.198912367379658
 10
3.999954694925689
 20
14.99998362692713
 42
0.198912367379658
 97
3
330
D598
330
D595
330
D596
 92
7
 72
1
 73
1
 93
4
 10
25.99995469492569
 20
14.99998362692713
 42
0.1989123673796581
 10
22.77812928797771
 20
22.77815821997915
 42
0.0
 10
14.99995469492569
 20
14.99998362692713
 42
0.0
 10
22.77812928797771
 20
7.221809033875105
 42
0.198912367379658
 97
3
330
D596
330
D598
330
D595
 75
0
 76
1
 47
0.0656445470910299
 98
2
 10
7.997749462102762
 20
14.8782926211432
 10
18.63348435022064
 20
15.46909361714745
450
0
451
0
460
0.0
461
0.0
452
1
462
1.0
453
2
463
0
 63
5
421
255
463
1
 63
7
421
16777215
470
LINEAR
  0
ENDBLK
  5
DD
330
DB
100
AcDbEntity
  8
0
100
AcDbBlockEnd
  0
BLOCK
  5
E9
330
E8
100
AcDbEntity
  8
0
100
AcDbBlockBegin
  2
Den VANG
 70
2
 10
0.0
 20
0.0
 30
0.0
  3
Den VANG
  1

  0
CIRCLE
  5
EB
330
E8
100
AcDbEntity
  8
0
 62
7
100
AcDbCircle
 10
14.99995469492569
 20
14.99998362692713
 30
0.0
 40
15.0
  0
LINE
  5
EC
330
E8
100
AcDbEntity
  8
0
 62
7
100
AcDbLine
 10
-4.5305074309e-05
 20
44.99998362692713
 30
0.0
 11
29.99995469492569
 21
44.99998362692713
 31
0.0
  0
LINE
  5
ED
330
E8
100
AcDbEntity
  8
0
 62
7
100
AcDbLine
 10
29.99995469492569
 20
14.99998362692713
 30
0.0
 11
29.99995469492569
 21
44.99998362692713
 31
0.0
  0
LINE
  5
EE
330
E8
100
AcDbEntity
  8
0
 62
7
100
AcDbLine
 10
-4.5305074309e-05
 20
44.99998362692713
 30
0.0
 11
-4.5305074309e-05
 21
14.99998362692713
 31
0.0
  0
LWPOLYLINE
  5
EF
330
E8
100
AcDbEntity
  8
0
 62
7
100
AcDbPolyline
 90
4
 70
1
 10
1.999954694925691
 20
42.99998362692713
 10
27.99995469492569
 20
42.99998362692713
 10
27.99995469492569
 20
32.99998362692714
 10
1.999954694925691
 20
32.99998362692714
  0
CIRCLE
  5
F0
330
E8
100
AcDbEntity
  8
07
  6
Continuous
 62
2
370
5
 48
3.0
100
AcDbCircle
 10
14.99995469492569
 20
14.99998362692713
 30
0.0
 40
11.0
  0
LINE
  5
F1
330
E8
100
AcDbEntity
  8
07
  6
Continuous
 62
2
370
5
 48
3.0
100
AcDbLine
 10
22.77812928797771
 20
22.77815821997915
 30
0.0
 11
7.221780101873667
 21
7.22180903387511
 31
0.0
  0
ATTDEF
  5
F2
330
E8
100
AcDbEntity
  8
01
  6
Continuous
 62
2
370
5
100
AcDbText
 10
5.913620722180702
 20
35.96791798923368
 30
0.0
 40
2.400000000139697
  1
R - PHASE
  7
Arial-Black
 41
1.000000000291038
 72
1
 11
15.2263083079888
 21
35.96791798923368
 31
0.0
100
AcDbAttributeDefinition
  3
Ten San Pham
  2
T-SP
 70
0
 71
1
 72
0
 11
15.2263083079888
 21
35.96791798923368
 31
0.0
  0
LINE
  5
F3
330
E8
100
AcDbEntity
  8
07
  6
Continuous
 62
2
370
5
 48
3.0
100
AcDbLine
 10
7.221780101873666
 20
22.77815821997915
 30
0.0
 11
22.77812928797771
 21
7.22180903387511
 31
0.0
  0
HATCH
  5
F4
330
E8
100
AcDbEntity
  8
0
 62
2
100
AcDbHatch
 10
0.0
 20
0.0
 30
0.0
210
0.0
220
0.0
230
1.0
  2
SOLID
 70
1
 71
0
 91
2
 92
7
 72
1
 73
1
 93
4
 10
22.77812928797771
 20
7.221809033875107
 42
0.198912367379658
 10
25.99995469492569
 20
14.99998362692713
 42
0.198912367379658
 10
22.77812928797771
 20
22.77815821997915
 42
0.0
 10
14.99995469492569
 20
14.99998362692713
 42
0.0
 97
3
330
D5A4
330
D5A5
330
D5A7
 92
7
 72
1
 73
1
 93
4
 10
7.221780101873662
 20
7.221809033875109
 42
0.0
 10
14.99995469492569
 20
14.99998362692713
 42
0.0
 10
7.221780101873665
 20
22.77815821997915
 42
0.198912367379658
 10
3.999954694925687
 20
14.99998362692713
 42
0.198912367379658
 97
3
330
D5A4
330
D5A5
330
D5A7
 75
0
 76
1
 47
0.0589378639461505
 98
2
 10
21.62975384444046
 20
14.44012329072172
 10
8.426035661991923
 20
15.02950197730397
450
0
451
0
460
0.0
461
0.0
452
1
462
1.0
453
2
463
0
 63
5
421
255
463
1
 63
7
421
16777215
470
LINEAR
  0
ENDBLK
  5
EA
330
E8
100
AcDbEntity
  8
0
100
AcDbBlockEnd
  0
BLOCK
  5
F6
330
F5
100
AcDbEntity
  8
0
100
AcDbBlockBegin
  2
KHUNG CHUẨN
 70
2
 10
0.0
 20
0.0
 30
0.0
  3
KHUNG CHUẨN
  1

  0
LWPOLYLINE
  5
F8
330
F5
100
AcDbEntity
  8
0
 62
7
100
AcDbPolyline
 90
4
 70
1
 10
16919.24922090965
 20
-26555.15926993403
 10
19889.24922091007
 20
-26555.15926993403
 10
19889.24922091007
 20
-28655.15926993435
 10
16919.24922090965
 20
-28655.15926993435
  0
LINE
  5
F9
330
F5
100
AcDbEntity
  8
0
 62
7
100
AcDbLine
 10
18939.24922090965
 20
-28595.15926993434
 30
0.0
 11
16919.24922090965
 21
-28595.15926993434
 31
0.0
  0
LINE
  5
FA
330
F5
100
AcDbEntity
  8
0
 62
7
100
AcDbLine
 10
19889.24922091007
 20
-28535.15926993435
 30
0.0
 11
16919.24922090965
 21
-28535.15926993435
 31
0.0
  0
LINE
  5
FB
330
F5
100
AcDbEntity
  8
0
 62
7
100
AcDbLine
 10
17239.24922090965
 20
-28535.15926993435
 30
0.0
 11
17239.24922090965
 21
-28595.15926993434
 31
0.0
  0
LINE
  5
FC
330
F5
100
AcDbEntity
  8
0
 62
7
100
AcDbLine
 10
17809.24922090965
 20
-28535.15926993435
 30
0.0
 11
17809.24922090965
 21
-28655.15926993435
 31
0.0
  0
LINE
  5
FD
330
F5
100
AcDbEntity
  8
0
 62
7
100
AcDbLine
 10
18599.24922090965
 20
-28535.15926993435
 30
0.0
 11
18599.24922090965
 21
-28655.15926993435
 31
0.0
  0
LINE
  5
FE
330
F5
100
AcDbEntity
  8
0
 62
7
100
AcDbLine
 10
18939.24922090965
 20
-28535.15926993435
 30
0.0
 11
18939.24922090965
 21
-28655.15926993435
 31
0.0
  0
LINE
  5
FF
330
F5
100
AcDbEntity
  8
0
 62
7
100
AcDbLine
 10
19779.24922091007
 20
-28535.15926993435
 30
0.0
 11
19779.24922091007
 21
-28655.15926993435
 31
0.0
  0
MTEXT
  5
100
330
F5
100
AcDbEntity
  8
0
 62
2
100
AcDbMText
 10
16919.24922090965
 20
-28565.15926993435
 30
0.0
 40
20.0
 41
917.6339389950801
 46
60.00000000000113
 71
4
 72
5
  1
  Thiết kế :
  7
Arial
  0
MTEXT
  5
101
330
F5
100
AcDbEntity
  8
0
 62
2
100
AcDbMText
 10
16919.24922090965
 20
-28625.15926993435
 30
0.0
 40
20.0
 41
917.6339389950801
 46
60.00000000000113
 71
4
 72
5
  1
  CNC :
  7
Arial
  0
MTEXT
  5
102
330
F5
100
AcDbEntity
  8
0
 62
2
100
AcDbMText
 10
17239.24922090965
 20
-28565.15926993435
 30
0.0
 40
20.0
 41
917.6339389950801
 46
60.00000000000113
 71
4
 72
5
  1
  Khách hàng :
  7
Arial
  0
MTEXT
  5
103
330
F5
100
AcDbEntity
  8
0
 62
2
100
AcDbMText
 10
17466.28942955682
 20
-28625.15926993435
 30
0.0
 40
20.0
 41
556.6509010178333
 46
60.00000000000113
 71
4
 72
5
  1
  Ngày giao:
  7
Arial
  0
MTEXT
  5
104
330
F5
100
AcDbEntity
  8
0
 62
2
100
AcDbMText
 10
17809.24922090965
 20
-28565.15926993435
 30
0.0
 40
20.0
 41
917.6339389950801
 46
60.00000000000113
 71
4
 72
5
  1
  Tên sản phẩm :
  7
Arial
  0
MTEXT
  5
105
330
F5
100
AcDbEntity
  8
0
 62
2
100
AcDbMText
 10
17809.24922090965
 20
-28625.15926993435
 30
0.0
 40
20.0
 41
917.6339389950801
 46
60.00000000000113
 71
4
 72
5
  1
  Kích thước :
  7
Arial
  0
MTEXT
  5
106
330
F5
100
AcDbEntity
  8
0
 62
2
100
AcDbMText
 10
18599.24922090965
 20
-28565.15926993435
 30
0.0
 40
20.0
 41
917.6339389950801
 46
60.00000000000113
 71
4
 72
5
  1
  Số lượng :
  7
Arial
  0
MTEXT
  5
107
330
F5
100
AcDbEntity
  8
0
 62
2
100
AcDbMText
 10
18599.24922090965
 20
-28625.15926993435
 30
0.0
 40
20.0
 41
917.6339389950801
 46
60.00000000000113
 71
4
 72
5
  1
  Loại tôn :
  7
Arial
  0
MTEXT
  5
108
330
F5
100
AcDbEntity
  8
0
 62
2
100
AcDbMText
 10
18993.40450252067
 20
-28595.15926993434
 30
0.0
 40
20.0
 41
108.3105632220314
 46
120.0000000000011
 71
5
 72
5
  1
Thông\Ptin :
  7
Arial
  0
MTEXT
  5
109
330
F5
100
AcDbEntity
  8
0
 62
2
100
AcDbMText
 10
19834.24922091007
 20
-28565.15926993435
 30
0.0
 40
20.0
 41
110.0000000000065
 46
60.00000000000113
 71
5
 72
5
  1
Tờ
  7
Arial
  0
LINE
  5
10A
330
F5
100
AcDbEntity
  8
0
 62
7
100
AcDbLine
 10
19047.55978413167
 20
-28560.15926993435
 30
0.0
 11
19047.55978413167
 21
-28630.15926993435
 31
0.0
  0
MTEXT
  5
10B
330
F5
100
AcDbEntity
  8
0
 62
2
100
AcDbMText
 10
18548.56684883467
 20
-28625.15926993435
 30
0.0
 40
20.0
 41
73.8305401162098
 46
60.00000000000113
 71
4
 72
5
  1
mm
  7
Arial
  0
MTEXT
  5
10C
330
F5
100
AcDbEntity
  8
0
 62
2
100
AcDbMText
 10
18897.93889973559
 20
-28565.15926993435
 30
0.0
 40
20.0
 41
63.51722131864801
 46
60.00000000000113
 71
4
 72
5
  1
cái
  7
Arial
  0
MTEXT
  5
10D
330
F5
100
AcDbEntity
  8
0
 62
2
100
AcDbMText
 10
18889.20613294428
 20
-28625.15926993435
 30
0.0
 40
20.0
 41
917.6339389950801
 46
60.00000000000113
 71
4
 72
5
  1
mm
  7
Arial
  0
LINE
  5
10E
330
F5
100
AcDbEntity
  8
0
 62
7
100
AcDbLine
 10
17139.24922090965
 20
-28595.15926993434
 30
0.0
 11
17139.24922090965
 21
-28655.15926993435
 31
0.0
  0
MTEXT
  5
10F
330
F5
100
AcDbEntity
  8
0
 62
2
100
AcDbMText
 10
17134.01855837237
 20
-28625.15926993435
 30
0.0
 40
20.0
 41
556.6509010178333
 46
60.00000000000113
 71
4
 72
5
  1
  Ngày nhận :
  7
Arial
  0
LINE
  5
110
330
F5
100
AcDbEntity
  8
0
 62
7
100
AcDbLine
 10
17474.24922090965
 20
-28595.15926993434
 30
0.0
 11
17474.24922090965
 21
-28655.15926993435
 31
0.0
  0
ATTDEF
  5
111
330
F5
100
AcDbEntity
  8
0
 62
3
100
AcDbText
 10
18030.57595183183
 20
-28580.1015331953
 30
0.0
 40
20.0
  1
............
  7
Arial
100
AcDbAttributeDefinition
  3
SẢN PHẨM
  2
#03
 70
0
280
1
 71
1
 72
0
  0
ATTDEF
  5
112
330
F5
100
AcDbEntity
  8
0
 62
3
100
AcDbText
 10
18002.0078672091
 20
-28634.73750821321
 30
0.0
 40
20.0
  1

  7
Arial
100
AcDbAttributeDefinition
  3
KÍCH THƯỚC
  2
#07
 70
0
280
1
 71
1
 72
0
  0
ATTDEF
  5
113
330
F5
100
AcDbEntity
  8
0
 62
3
100
AcDbText
 10
18751.69842633112
 20
-28580.1015331953
 30
0.0
 40
20.0
  1

  7
Arial
100
AcDbAttributeDefinition
  3
SỐ LƯỢNG
  2
#08
 70
0
280
1
 71
1
 72
0
  0
ATTDEF
  5
114
330
F5
100
AcDbEntity
  8
0
 62
3
100
AcDbText
 10
18753.84501617292
 20
-28632.59717057646
 30
0.0
 40
20.0
  1

  7
Arial
100
AcDbAttributeDefinition
  3
LOẠI TÔN
  2
#09
 70
0
280
1
 71
1
 72
0
  0
ATTDEF
  5
115
330
F5
100
AcDbEntity
  8
0
 62
3
100
AcDbText
 10
19064.78379112245
 20
-28580.1015331953
 30
0.0
 40
20.0
  1

  7
Arial
100
AcDbAttributeDefinition
  3
CHÚ Ý 1
  2
#10
 70
0
280
1
 71
1
 72
0
  0
ATTDEF
  5
116
330
F5
100
AcDbEntity
  8
0
 62
3
100
AcDbText
 10
19060.29593417999
 20
-28625.68604652386
 30
0.0
 40
20.0
  1

  7
Arial
100
AcDbAttributeDefinition
  3
CHÚ Ý 2
  2
#11
 70
0
280
1
 71
1
 72
0
  0
ATTDEF
  5
117
330
F5
100
AcDbEntity
  8
0
 62
3
100
AcDbText
 10
17431.39468632692
 20
-28580.1015331953
 30
0.0
 40
20.0
  1

  7
Arial
100
AcDbAttributeDefinition
  3
KHÁCH HÀNG
  2
#02
 70
0
280
1
 71
1
 72
0
  0
ATTDEF
  5
118
330
F5
100
AcDbEntity
  8
0
 62
3
100
AcDbText
 10
17308.45246357222
 20
-28633.02044838126
 30
0.0
 40
20.0
  1

  7
Arial
100
AcDbAttributeDefinition
  3
NGÀY NHẬN
  2
#05
 70
0
280
1
 71
1
 72
0
  0
ATTDEF
  5
119
330
F5
100
AcDbEntity
  8
0
 62
3
100
AcDbText
 10
17632.65306459898
 20
-28633.73138801003
 30
0.0
 40
20.0
  1

  7
Arial
100
AcDbAttributeDefinition
  3
NGÀY GIAO
  2
#06
 70
0
280
1
 71
1
 72
0
  0
ATTDEF
  5
11A
330
F5
100
AcDbEntity
  8
0
 62
3
100
AcDbText
 10
17055.57441422327
 20
-28580.1015331953
 30
0.0
 40
20.0
  1

  7
Arial
100
AcDbAttributeDefinition
  3
THIẾT KẾ
  2
#01
 70
0
280
1
 71
1
 72
0
  0
ATTDEF
  5
11B
330
F5
100
AcDbEntity
  8
0
 62
3
100
AcDbText
 10
17024.76529237577
 20
-28634.61999292788
 30
0.0
 40
20.0
  1

  7
Arial
100
AcDbAttributeDefinition
  3
CNC
  2
#04
 70
0
280
1
 71
1
 72
0
  0
ATTDEF
  5
11C
330
F5
100
AcDbEntity
  8
0
 62
3
100
AcDbText
 10
19806.4585301708
 20
-28628.91186895216
 30
0.0
 40
20.0
  1

  7
Arial
100
AcDbAttributeDefinition
  3
TỜ
  2
#12
 70
0
280
1
 71
1
 72
0
  0
ENDBLK
  5
F7
330
F5
100
AcDbEntity
  8
0
100
AcDbBlockEnd
  0
BLOCK
  5
126
330
125
100
AcDbEntity
  8
0
100
AcDbBlockBegin
  2
_Open30
 70
0
 10
0.0
 20
0.0
 30
0.0
  3
_Open30
  1

  0
LINE
  5
128
330
125
100
AcDbEntity
  8
0
  6
ByBlock
 62
0
370
-2
100
AcDbLine
 10
-1.0
 20
0.26794919
 30
0.0
 11
0.0
 21
0.0
 31
0.0
  0
LINE
  5
129
330
125
100
AcDbEntity
  8
0
  6
ByBlock
 62
0
370
-2
100
AcDbLine
 10
0.0
 20
0.0
 30
0.0
 11
-1.0
 21
-0.26794919
 31
0.0
  0
LINE
  5
12A
330
125
100
AcDbEntity
  8
0
  6
ByBlock
 62
0
370
-2
100
AcDbLine
 10
0.0
 20
0.0
 30
0.0
 11
-1.0
 21
0.0
 31
0.0
  0
ENDBLK
  5
127
330
125
100
AcDbEntity
  8
0
100
AcDbBlockEnd
  0
BLOCK
  5
142
330
141
100
AcDbEntity
  8
0
100
AcDbBlockBegin
  2
*D1
 70
1
 10
0.0
 20
0.0
 30
0.0
  3
*D1
  1

  0
LINE
  5
144
330
141
100
AcDbEntity
  8
0
 62
5
370
9
 48
3.0
440
16777216
100
AcDbLine
 10
799.2611481466738
 20
1274.524663738288
 30
0.0
 11
799.2611481466738
 21
1332.8019009024938
 31
0.0
  0
LINE
  5
145
330
141
100
AcDbEntity
  8
0
 62
5
370
9
 48
3.0
440
16777216
100
AcDbLine
 10
1099.2611481466738
 20
1274.524663738288
 30
0.0
 11
1099.2611481466738
 21
1332.8019009024938
 31
0.0
  0
LINE
  5
146
330
141
100
AcDbEntity
  8
0
 62
5
370
9
 48
3.0
440
16777216
100
AcDbLine
 10
799.2611481466738
 20
1317.8019009024938
 30
0.0
 11
1099.2611481466738
 21
1317.8019009024938
 31
0.0
  0
LINE
  5
147
330
141
100
AcDbEntity
  8
0
  6
ByBlock
 62
0
370
-2
100
AcDbLine
 10
805.2611481466738
 20
1323.8019009024938
 30
0.0
 11
793.2611481466738
 21
1311.8019009024938
 31
0.0
  0
LINE
  5
148
330
141
100
AcDbEntity
  8
0
  6
ByBlock
 62
0
370
-2
100
AcDbLine
 10
1093.2611481466738
 20
1311.8019009024938
 30
0.0
 11
1105.2611481466738
 21
1323.8019009024938
 31
0.0
  0
MTEXT
  5
149
330
141
100
AcDbEntity
  8
0
 62
3
 48
3.0
440
16777216
100
AcDbMText
 10
949.2611481466738
 20
1349.6620646132706
 30
0.0
 40
33.0
 41
0.0
 46
0.0
 71
5
  1
300
  0
POINT
  5
14A
330
141
100
AcDbEntity
  8
Defpoints
 62
0
 48
3.0
440
16777216
100
AcDbPoint
 10
799.2611481466738
 20
1249.524663738288
 30
0.0
  0
POINT
  5
14B
330
141
100
AcDbEntity
  8
Defpoints
 62
0
 48
3.0
440
16777216
100
AcDbPoint
 10
1099.2611481466738
 20
1249.524663738288
 30
0.0
  0
POINT
  5
14C
330
141
100
AcDbEntity
  8
Defpoints
 62
0
 48
3.0
440
16777216
100
AcDbPoint
 10
1099.2611481466738
 20
1317.8019009024938
 30
0.0
  0
ENDBLK
  5
143
330
141
100
AcDbEntity
  8
0
100
AcDbBlockEnd
  0
BLOCK
  5
14E
330
14D
100
AcDbEntity
  8
0
100
AcDbBlockBegin
  2
*D2
 70
1
 10
0.0
 20
0.0
 30
0.0
  3
*D2
  1

  0
LINE
  5
150
330
14D
100
AcDbEntity
  8
0
 62
5
370
9
 48
3.0
440
16777216
100
AcDbLine
 10
774.2611481466738
 20
1249.524663738288
 30
0.0
 11
726.7348355827562
 21
1249.524663738288
 31
0.0
  0
LINE
  5
151
330
14D
100
AcDbEntity
  8
0
 62
5
370
9
 48
3.0
440
16777216
100
AcDbLine
 10
774.2611481466738
 20
849.5246637382897
 30
0.0
 11
726.7348355827562
 21
849.5246637382897
 31
0.0
  0
LINE
  5
152
330
14D
100
AcDbEntity
  8
0
 62
5
370
9
 48
3.0
440
16777216
100
AcDbLine
 10
741.7348355827562
 20
1249.524663738288
 30
0.0
 11
741.7348355827562
 21
849.5246637382897
 31
0.0
  0
LINE
  5
153
330
14D
100
AcDbEntity
  8
0
  6
ByBlock
 62
0
370
-2
100
AcDbLine
 10
747.7348355827562
 20
1243.524663738288
 30
0.0
 11
735.7348355827562
 21
1255.524663738288
 31
0.0
  0
LINE
  5
154
330
14D
100
AcDbEntity
  8
0
  6
ByBlock
 62
0
370
-2
100
AcDbLine
 10
735.7348355827562
 20
855.5246637382897
 30
0.0
 11
747.7348355827562
 21
843.5246637382897
 31
0.0
  0
MTEXT
  5
155
330
14D
100
AcDbEntity
  8
0
 62
3
 48
3.0
440
16777216
100
AcDbMText
 10
709.8859269879758
 20
1049.5246637383134
 30
0.0
 40
33.0
 41
0.0
 46
0.0
 71
5
  1
400
 11
1e-16
 21
1.0
 31
0.0
  0
POINT
  5
156
330
14D
100
AcDbEntity
  8
Defpoints
 62
0
 48
3.0
440
16777216
100
AcDbPoint
 10
799.2611481466738
 20
1249.524663738288
 30
0.0
  0
POINT
  5
157
330
14D
100
AcDbEntity
  8
Defpoints
 62
0
 48
3.0
440
16777216
100
AcDbPoint
 10
799.2611481466738
 20
849.5246637382897
 30
0.0
  0
POINT
  5
158
330
14D
100
AcDbEntity
  8
Defpoints
 62
0
 48
3.0
440
16777216
100
AcDbPoint
 10
741.7348355827562
 20
849.5246637382897
 30
0.0
  0
ENDBLK
  5
14F
330
14D
100
AcDbEntity
  8
0
100
AcDbBlockEnd
  0
BLOCK
  5
15A
330
159
100
AcDbEntity
  8
0
100
AcDbBlockBegin
  2
*D3
 70
1
 10
0.0
 20
0.0
 30
0.0
  3
*D3
  1

  0
LINE
  5
15C
330
159
100
AcDbEntity
  8
0
 62
5
370
9
 48
3.0
440
16777216
100
AcDbLine
 10
799.2611481466738
 20
713.3386035858075
 30
0.0
 11
799.2611481466738
 21
742.5577819152604
 31
0.0
  0
LINE
  5
15D
330
159
100
AcDbEntity
  8
0
 62
5
370
9
 48
3.0
440
16777216
100
AcDbLine
 10
1099.2611481466738
 20
713.3386035858075
 30
0.0
 11
1099.2611481466738
 21
742.5577819152604
 31
0.0
  0
LINE
  5
15E
330
159
100
AcDbEntity
  8
0
 62
5
370
9
 48
3.0
440
16777216
100
AcDbLine
 10
799.2611481466738
 20
727.5577819152604
 30
0.0
 11
1099.2611481466738
 21
727.5577819152604
 31
0.0
  0
LINE
  5
15F
330
159
100
AcDbEntity
  8
0
  6
ByBlock
 62
0
370
-2
100
AcDbLine
 10
805.2611481466738
 20
733.5577819152604
 30
0.0
 11
793.2611481466738
 21
721.5577819152604
 31
0.0
  0
LINE
  5
160
330
159
100
AcDbEntity
  8
0
  6
ByBlock
 62
0
370
-2
100
AcDbLine
 10
1093.2611481466738
 20
721.5577819152604
 30
0.0
 11
1105.2611481466738
 21
733.5577819152604
 31
0.0
  0
MTEXT
  5
161
330
159
100
AcDbEntity
  8
0
 62
3
 48
3.0
440
16777216
100
AcDbMText
 10
949.2611481466738
 20
759.4179456260354
 30
0.0
 40
33.0
 41
0.0
 46
0.0
 71
5
  1
300
  0
POINT
  5
162
330
159
100
AcDbEntity
  8
Defpoints
 62
0
 48
3.0
440
16777216
100
AcDbPoint
 10
799.2611481466738
 20
688.3386035858057
 30
0.0
  0
POINT
  5
163
330
159
100
AcDbEntity
  8
Defpoints
 62
0
 48
3.0
440
16777216
100
AcDbPoint
 10
1099.2611481466738
 20
688.3386035858057
 30
0.0
  0
POINT
  5
164
330
159
100
AcDbEntity
  8
Defpoints
 62
0
 48
3.0
440
16777216
100
AcDbPoint
 10
1099.2611481466738
 20
727.5577819152604
 30
0.0
  0
ENDBLK
  5
15B
330
159
100
AcDbEntity
  8
0
100
AcDbBlockEnd
  0
BLOCK
  5
166
330
165
100
AcDbEntity
  8
0
100
AcDbBlockBegin
  2
*D4
 70
1
 10
0.0
 20
0.0
 30
0.0
  3
*D4
  1

  0
LINE
  5
168
330
165
100
AcDbEntity
  8
0
 62
5
370
9
 48
3.0
440
16777216
100
AcDbLine
 10
774.2611481466738
 20
688.3386035858057
 30
0.0
 11
734.4522115126601
 21
688.3386035858057
 31
0.0
  0
LINE
  5
169
330
165
100
AcDbEntity
  8
0
 62
5
370
9
 48
3.0
440
16777216
100
AcDbLine
 10
775.2611481466738
 20
488.3386035858057
 30
0.0
 11
734.4522115126601
 21
488.3386035858057
 31
0.0
  0
LINE
  5
16A
330
165
100
AcDbEntity
  8
0
 62
5
370
9
 48
3.0
440
16777216
100
AcDbLine
 10
749.4522115126601
 20
688.3386035858057
 30
0.0
 11
749.4522115126601
 21
488.3386035858057
 31
0.0
  0
LINE
  5
16B
330
165
100
AcDbEntity
  8
0
  6
ByBlock
 62
0
370
-2
100
AcDbLine
 10
755.4522115126601
 20
682.3386035858057
 30
0.0
 11
743.4522115126601
 21
694.3386035858057
 31
0.0
  0
LINE
  5
16C
330
165
100
AcDbEntity
  8
0
  6
ByBlock
 62
0
370
-2
100
AcDbLine
 10
743.4522115126601
 20
494.3386035858057
 30
0.0
 11
755.4522115126601
 21
482.3386035858057
 31
0.0
  0
MTEXT
  5
16D
330
165
100
AcDbEntity
  8
0
 62
3
 48
3.0
440
16777216
100
AcDbMText
 10
717.6033029178798
 20
588.3386035858312
 30
0.0
 40
33.0
 41
0.0
 46
0.0
 71
5
  1
200
 11
1e-16
 21
1.0
 31
0.0
  0
POINT
  5
16E
330
165
100
AcDbEntity
  8
Defpoints
 62
0
 48
3.0
440
16777216
100
AcDbPoint
 10
799.2611481466738
 20
688.3386035858057
 30
0.0
  0
POINT
  5
16F
330
165
100
AcDbEntity
  8
Defpoints
 62
0
 48
3.0
440
16777216
100
AcDbPoint
 10
800.2611481466738
 20
488.3386035858057
 30
0.0
  0
POINT
  5
170
330
165
100
AcDbEntity
  8
Defpoints
 62
0
 48
3.0
440
16777216
100
AcDbPoint
 10
749.4522115126601
 20
488.3386035858057
 30
0.0
  0
ENDBLK
  5
167
330
165
100
AcDbEntity
  8
0
100
AcDbBlockEnd
  0
BLOCK
  5
172
330
171
100
AcDbEntity
  8
0
100
AcDbBlockBegin
  2
*D5
 70
1
 10
0.0
 20
0.0
 30
0.0
  3
*D5
  1

  0
LINE
  5
174
330
171
100
AcDbEntity
  8
0
 62
5
370
9
 48
3.0
440
16777216
100
AcDbLine
 10
144.0194468748523
 20
1274.524663738288
 30
0.0
 11
144.0194468748523
 21
1332.8019009024938
 31
0.0
  0
LINE
  5
175
330
171
100
AcDbEntity
  8
0
 62
5
370
9
 48
3.0
440
16777216
100
AcDbLine
 10
444.0194468748523
 20
1274.524663738288
 30
0.0
 11
444.0194468748523
 21
1332.8019009024938
 31
0.0
  0
LINE
  5
176
330
171
100
AcDbEntity
  8
0
 62
5
370
9
 48
3.0
440
16777216
100
AcDbLine
 10
144.0194468748523
 20
1317.8019009024938
 30
0.0
 11
444.0194468748523
 21
1317.8019009024938
 31
0.0
  0
LINE
  5
177
330
171
100
AcDbEntity
  8
0
  6
ByBlock
 62
0
370
-2
100
AcDbLine
 10
150.0194468748523
 20
1323.8019009024938
 30
0.0
 11
138.0194468748523
 21
1311.8019009024938
 31
0.0
  0
LINE
  5
178
330
171
100
AcDbEntity
  8
0
  6
ByBlock
 62
0
370
-2
100
AcDbLine
 10
438.0194468748523
 20
1311.8019009024938
 30
0.0
 11
450.0194468748523
 21
1323.8019009024938
 31
0.0
  0
MTEXT
  5
179
330
171
100
AcDbEntity
  8
0
 62
3
 48
3.0
440
16777216
100
AcDbMText
 10
294.0194468748523
 20
1349.6620646132706
 30
0.0
 40
33.0
 41
0.0
 46
0.0
 71
5
  1
300
  0
POINT
  5
17A
330
171
100
AcDbEntity
  8
Defpoints
 62
0
 48
3.0
440
16777216
100
AcDbPoint
 10
144.0194468748523
 20
1249.524663738288
 30
0.0
  0
POINT
  5
17B
330
171
100
AcDbEntity
  8
Defpoints
 62
0
 48
3.0
440
16777216
100
AcDbPoint
 10
444.0194468748523
 20
1249.524663738288
 30
0.0
  0
POINT
  5
17C
330
171
100
AcDbEntity
  8
Defpoints
 62
0
 48
3.0
440
16777216
100
AcDbPoint
 10
444.0194468748523
 20
1317.8019009024938
 30
0.0
  0
ENDBLK
  5
173
330
171
100
AcDbEntity
  8
0
100
AcDbBlockEnd
  0
BLOCK
  5
17E
330
17D
100
AcDbEntity
  8
0
100
AcDbBlockBegin
  2
*D6
 70
1
 10
0.0
 20
0.0
 30
0.0
  3
*D6
  1

  0
LINE
  5
180
330
17D
100
AcDbEntity
  8
0
 62
5
370
9
 48
3.0
440
16777216
100
AcDbLine
 10
119.01944687485229
 20
1249.524663738288
 30
0.0
 11
71.4931343109638
 21
1249.524663738288
 31
0.0
  0
LINE
  5
181
330
17D
100
AcDbEntity
  8
0
 62
5
370
9
 48
3.0
440
16777216
100
AcDbLine
 10
119.01944687485229
 20
849.5246637382897
 30
0.0
 11
71.4931343109638
 21
849.5246637382897
 31
0.0
  0
LINE
  5
182
330
17D
100
AcDbEntity
  8
0
 62
5
370
9
 48
3.0
440
16777216
100
AcDbLine
 10
86.4931343109638
 20
1249.524663738288
 30
0.0
 11
86.4931343109638
 21
849.5246637382897
 31
0.0
  0
LINE
  5
183
330
17D
100
AcDbEntity
  8
0
  6
ByBlock
 62
0
370
-2
100
AcDbLine
 10
92.4931343109638
 20
1243.524663738288
 30
0.0
 11
80.4931343109638
 21
1255.524663738288
 31
0.0
  0
LINE
  5
184
330
17D
100
AcDbEntity
  8
0
  6
ByBlock
 62
0
370
-2
100
AcDbLine
 10
80.4931343109638
 20
855.5246637382897
 30
0.0
 11
92.4931343109638
 21
843.5246637382897
 31
0.0
  0
MTEXT
  5
185
330
17D
100
AcDbEntity
  8
0
 62
3
 48
3.0
440
16777216
100
AcDbMText
 10
54.644225716154324
 20
1049.5246637383134
 30
0.0
 40
33.0
 41
0.0
 46
0.0
 71
5
  1
400
 11
1e-16
 21
1.0
 31
0.0
  0
POINT
  5
186
330
17D
100
AcDbEntity
  8
Defpoints
 62
0
 48
3.0
440
16777216
100
AcDbPoint
 10
144.0194468748523
 20
1249.524663738288
 30
0.0
  0
POINT
  5
187
330
17D
100
AcDbEntity
  8
Defpoints
 62
0
 48
3.0
440
16777216
100
AcDbPoint
 10
144.0194468748523
 20
849.5246637382897
 30
0.0
  0
POINT
  5
188
330
17D
100
AcDbEntity
  8
Defpoints
 62
0
 48
3.0
440
16777216
100
AcDbPoint
 10
86.4931343109638
 20
849.5246637382897
 30
0.0
  0
ENDBLK
  5
17F
330
17D
100
AcDbEntity
  8
0
100
AcDbBlockEnd
  0
BLOCK
  5
18A
330
189
100
AcDbEntity
  8
0
100
AcDbBlockBegin
  2
*D7
 70
1
 10
0.0
 20
0.0
 30
0.0
  3
*D7
  1

  0
LINE
  5
18C
330
189
100
AcDbEntity
  8
0
 62
5
370
9
 48
3.0
440
16777216
100
AcDbLine
 10
144.0194468748523
 20
713.3386035858075
 30
0.0
 11
144.0194468748523
 21
742.5577819152604
 31
0.0
  0
LINE
  5
18D
330
189
100
AcDbEntity
  8
0
 62
5
370
9
 48
3.0
440
16777216
100
AcDbLine
 10
444.0194468748523
 20
713.3386035858075
 30
0.0
 11
444.0194468748523
 21
742.5577819152604
 31
0.0
  0
LINE
  5
18E
330
189
100
AcDbEntity
  8
0
 62
5
370
9
 48
3.0
440
16777216
100
AcDbLine
 10
144.0194468748523
 20
727.5577819152604
 30
0.0
 11
444.0194468748523
 21
727.5577819152604
 31
0.0
  0
LINE
  5
18F
330
189
100
AcDbEntity
  8
0
  6
ByBlock
 62
0
370
-2
100
AcDbLine
 10
150.0194468748523
 20
733.5577819152604
 30
0.0
 11
138.0194468748523
 21
721.5577819152604
 31
0.0
  0
LINE
  5
190
330
189
100
AcDbEntity
  8
0
  6
ByBlock
 62
0
370
-2
100
AcDbLine
 10
438.0194468748523
 20
721.5577819152604
 30
0.0
 11
450.0194468748523
 21
733.5577819152604
 31
0.0
  0
MTEXT
  5
191
330
189
100
AcDbEntity
  8
0
 62
3
 48
3.0
440
16777216
100
AcDbMText
 10
294.0194468748523
 20
759.4179456260354
 30
0.0
 40
33.0
 41
0.0
 46
0.0
 71
5
  1
300
  0
POINT
  5
192
330
189
100
AcDbEntity
  8
Defpoints
 62
0
 48
3.0
440
16777216
100
AcDbPoint
 10
144.0194468748523
 20
688.3386035858057
 30
0.0
  0
POINT
  5
193
330
189
100
AcDbEntity
  8
Defpoints
 62
0
 48
3.0
440
16777216
100
AcDbPoint
 10
444.0194468748523
 20
688.3386035858057
 30
0.0
  0
POINT
  5
194
330
189
100
AcDbEntity
  8
Defpoints
 62
0
 48
3.0
440
16777216
100
AcDbPoint
 10
444.0194468748523
 20
727.5577819152604
 30
0.0
  0
ENDBLK
  5
18B
330
189
100
AcDbEntity
  8
0
100
AcDbBlockEnd
  0
BLOCK
  5
196
330
195
100
AcDbEntity
  8
0
100
AcDbBlockBegin
  2
*D8
 70
1
 10
0.0
 20
0.0
 30
0.0
  3
*D8
  1

  0
LINE
  5
198
330
195
100
AcDbEntity
  8
0
 62
5
370
9
 48
3.0
440
16777216
100
AcDbLine
 10
119.01944687485229
 20
688.3386035858057
 30
0.0
 11
79.21051024086773
 21
688.3386035858057
 31
0.0
  0
LINE
  5
199
330
195
100
AcDbEntity
  8
0
 62
5
370
9
 48
3.0
440
16777216
100
AcDbLine
 10
120.01944687485229
 20
488.3386035858057
 30
0.0
 11
79.21051024086773
 21
488.3386035858057
 31
0.0
  0
LINE
  5
19A
330
195
100
AcDbEntity
  8
0
 62
5
370
9
 48
3.0
440
16777216
100
AcDbLine
 10
94.21051024086773
 20
688.3386035858057
 30
0.0
 11
94.21051024086773
 21
488.3386035858057
 31
0.0
  0
LINE
  5
19B
330
195
100
AcDbEntity
  8
0
  6
ByBlock
 62
0
370
-2
100
AcDbLine
 10
100.21051024086773
 20
682.3386035858057
 30
0.0
 11
88.21051024086773
 21
694.3386035858057
 31
0.0
  0
LINE
  5
19C
330
195
100
AcDbEntity
  8
0
  6
ByBlock
 62
0
370
-2
100
AcDbLine
 10
88.21051024086773
 20
494.3386035858057
 30
0.0
 11
100.21051024086773
 21
482.3386035858057
 31
0.0
  0
MTEXT
  5
19D
330
195
100
AcDbEntity
  8
0
 62
3
 48
3.0
440
16777216
100
AcDbMText
 10
62.36160164605826
 20
588.3386035858312
 30
0.0
 40
33.0
 41
0.0
 46
0.0
 71
5
  1
200
 11
1e-16
 21
1.0
 31
0.0
  0
POINT
  5
19E
330
195
100
AcDbEntity
  8
Defpoints
 62
0
 48
3.0
440
16777216
100
AcDbPoint
 10
144.0194468748523
 20
688.3386035858057
 30
0.0
  0
POINT
  5
19F
330
195
100
AcDbEntity
  8
Defpoints
 62
0
 48
3.0
440
16777216
100
AcDbPoint
 10
145.0194468748523
 20
488.3386035858057
 30
0.0
  0
POINT
  5
1A0
330
195
100
AcDbEntity
  8
Defpoints
 62
0
 48
3.0
440
16777216
100
AcDbPoint
 10
94.21051024086773
 20
488.3386035858057
 30
0.0
  0
ENDBLK
  5
197
330
195
100
AcDbEntity
  8
0
100
AcDbBlockEnd
  0
ENDSEC
  0
SECTION
  2
ENTITIES
  0
LWPOLYLINE
  5
2F
330
17
100
AcDbEntity
  8
0
 48
3.0
100
AcDbPolyline
 90
4
 70
1
 10
799.2611481466738
 20
849.5246637382897
 10
799.2611481466738
 20
1249.524663738288
 10
1099.2611481466738
 20
1249.524663738288
 10
1099.2611481466738
 20
849.5246637382897
  0
LWPOLYLINE
  5
30
330
17
100
AcDbEntity
  8
0
 48
3.0
100
AcDbPolyline
 90
4
 70
1
 10
800.2611481466738
 20
850.5246637382879
 10
800.2611481466738
 20
1248.524663738288
 10
1098.2611481466738
 20
1248.524663738288
 10
1098.2611481466738
 20
850.5246637382879
  0
LWPOLYLINE
  5
31
330
17
100
AcDbEntity
  8
0
 48
3.0
100
AcDbPolyline
 90
4
 70
1
 10
836.2611481466738
 20
886.5246637382879
 10
836.2611481466738
 20
1187.524663738288
 10
1062.2611481466738
 20
1187.524663738288
 10
1062.2611481466738
 20
886.5246637382879
  0
LWPOLYLINE
  5
32
330
17
100
AcDbEntity
  8
0
 62
1
 48
3.0
100
AcDbPolyline
 90
4
 70
1
 10
841.2611481466738
 20
891.5246637382897
 10
841.2611481466738
 20
1182.524663738288
 10
1057.2611481466738
 20
1182.524663738288
 10
1057.2611481466738
 20
891.5246637382897
  0
INSERT
  5
33
330
17
100
AcDbEntity
  8
0
 62
7
100
AcDbBlockReference
  2
ovan6x10
 10
1089.461208142864
 20
938.5246511615042
 30
0.0
 41
-1.0
 50
180.0
  0
INSERT
  5
35
330
17
100
AcDbEntity
  8
0
 62
7
100
AcDbBlockReference
  2
ovan6x10
 10
1089.461208142864
 20
955.0246511615042
 30
0.0
 41
-1.0
 50
180.0
  0
INSERT
  5
37
330
17
100
AcDbEntity
  8
0
 62
7
100
AcDbBlockReference
  2
HL036-1-1
 10
1081.7611481466738
 20
968.0246637382861
 30
0.0
 41
-1.0
 50
180.0
  0
LWPOLYLINE
  5
39
330
17
100
AcDbEntity
  8
0
 62
7
100
AcDbPolyline
 90
12
 70
1
 10
1087.2611481466738
 20
505.3386035858057
 10
1097.2611481466738
 20
505.3386035858057
 10
1097.2611481466738
 20
489.3386035858057
 10
801.2611481466738
 20
489.3386035858057
 10
801.2611481466738
 20
505.3386035858057
 10
811.2611481466738
 20
505.3386035858057
 10
811.2611481466738
 20
506.3386035858057
 10
800.2611481466738
 20
506.3386035858057
 10
800.2611481466738
 20
488.3386035858057
 10
1098.2611481466738
 20
488.3386035858057
 10
1098.2611481466738
 20
506.3386035858057
 10
1087.2611481466738
 20
506.3386035858057
  0
LWPOLYLINE
  5
3A
330
17
100
AcDbEntity
  8
0
 62
7
100
AcDbPolyline
 90
20
 70
1
 10
1073.2611481466738
 20
490.1386035858086
 10
1062.2611481466738
 20
490.1386035858086
 10
1062.2611481466738
 20
508.1386035858086
 10
1098.2611481466738
 20
508.1386035858086
 10
1098.2611481466738
 20
687.3386035858057
 10
800.2611481466738
 20
687.3386035858057
 10
800.2611481466738
 20
508.1386035858086
 10
836.2611481466738
 20
508.1386035858086
 10
836.2611481466738
 20
490.1386035858086
 10
825.2611481466738
 20
490.1386035858086
 10
825.2611481466738
 20
491.1386035858068
 10
835.2611481466738
 20
491.1386035858068
 10
835.2611481466738
 20
507.1386035858086
 10
799.2611481466738
 20
507.1386035858086
 10
799.2611481466738
 20
688.3386035858057
 10
1099.2611481466738
 20
688.3386035858057
 10
1099.2611481466738
 20
507.1386035858086
 10
1063.2611481466738
 20
507.1386035858086
 10
1063.2611481466738
 20
491.1386035858068
 10
1073.2611481466738
 20
491.1386035858068
  0
DIMENSION
  5
3B
330
17
100
AcDbEntity
  8
0
 48
3.0
100
AcDbDimension
280
0
  2
*D1
  3
Dim-33
 10
1099.2611481466738
 20
1317.8019009024938
 30
0.0
 11
949.2611481466738
 21
1349.6620646132706
 31
0.0
 70
32
 71
5
 42
300.0
 73
0
 74
0
 75
0
100
AcDbAlignedDimension
 13
799.2611481466738
 23
1249.524663738288
 33
0.0
 14
1099.2611481466738
 24
1249.524663738288
 34
0.0
 50
0.0
100
AcDbRotatedDimension
  0
DIMENSION
  5
40
330
17
100
AcDbEntity
  8
0
 48
3.0
100
AcDbDimension
280
0
  2
*D2
  3
Dim-33
 10
741.7348355827562
 20
849.5246637382897
 30
0.0
 11
709.8859269879758
 21
1049.5246637383134
 31
0.0
 70
32
 71
5
 42
400.0
 73
0
 74
0
 75
0
100
AcDbAlignedDimension
 13
799.2611481466738
 23
1249.524663738288
 33
0.0
 14
799.2611481466738
 24
849.5246637382897
 34
0.0
 50
90.0
100
AcDbRotatedDimension
  0
INSERT
  5
41
330
17
100
AcDbEntity
  8
0
 62
7
100
AcDbBlockReference
  2
HL036-1-2
 10
1096.161148146668
 20
507.1386035858086
 30
0.0
 41
-1.0
 50
180.0
  0
DIMENSION
  5
43
330
17
100
AcDbEntity
  8
0
 48
3.0
100
AcDbDimension
280
0
  2
*D3
  3
Dim-33
 10
1099.2611481466738
 20
727.5577819152604
 30
0.0
 11
949.2611481466738
 21
759.4179456260354
 31
0.0
 70
32
 71
5
 42
300.0
 73
0
 74
0
 75
0
100
AcDbAlignedDimension
 13
799.2611481466738
 23
688.3386035858057
 33
0.0
 14
1099.2611481466738
 24
688.3386035858057
 34
0.0
 50
0.0
100
AcDbRotatedDimension
  0
DIMENSION
  5
44
330
17
100
AcDbEntity
  8
0
 48
3.0
100
AcDbDimension
280
0
  2
*D4
  3
Dim-33
 10
749.4522115126601
 20
488.3386035858057
 30
0.0
 11
717.6033029178798
 21
588.3386035858312
 31
0.0
 70
32
 71
5
 42
200.0
 73
0
 74
0
 75
0
100
AcDbAlignedDimension
 13
799.2611481466738
 23
688.3386035858057
 33
0.0
 14
800.2611481466738
 24
488.3386035858057
 34
0.0
 50
90.0
100
AcDbRotatedDimension
  0
LWPOLYLINE
  5
45
330
17
100
AcDbEntity
  8
0
 62
7
100
AcDbPolyline
 90
12
 70
1
 10
1493.1463345293596
 20
1207.524663738288
 10
1493.1463345293596
 20
1217.524663738288
 10
1509.1463345293596
 20
1217.524663738288
 10
1509.1463345293596
 20
851.5246637382879
 10
1493.1463345293596
 20
851.5246637382879
 10
1493.1463345293596
 20
861.5246637382879
 10
1492.1463345293596
 20
861.5246637382879
 10
1492.1463345293596
 20
850.5246637382879
 10
1510.1463345293596
 20
850.5246637382879
 10
1510.1463345293596
 20
1218.5246637382897
 10
1492.1463345293596
 20
1218.5246637382897
 10
1492.1463345293596
 20
1207.524663738288
  0
LWPOLYLINE
  5
46
330
17
100
AcDbEntity
  8
0
 62
7
100
AcDbPolyline
 90
20
 70
1
 10
1508.3463345293712
 20
1198.524663738288
 10
1508.3463345293712
 20
1187.524663738288
 10
1490.3463345293712
 20
1187.524663738288
 10
1490.3463345293712
 20
1248.524663738288
 10
1311.1463345293596
 20
1248.524663738288
 10
1311.1463345293596
 20
850.5246637382879
 10
1490.3463345293712
 20
850.5246637382879
 10
1490.3463345293712
 20
886.5246637382879
 10
1508.3463345293712
 20
886.5246637382879
 10
1508.3463345293712
 20
875.5246637382879
 10
1507.3463345293712
 20
875.5246637382879
 10
1507.3463345293712
 20
885.5246637382897
 10
1491.3463345293712
 20
885.5246637382897
 10
1491.3463345293712
 20
849.5246637382897
 10
1310.1463345293596
 20
849.5246637382897
 10
1310.1463345293596
 20
1249.524663738288
 10
1491.3463345293712
 20
1249.524663738288
 10
1491.3463345293712
 20
1188.524663738288
 10
1507.3463345293712
 20
1188.524663738288
 10
1507.3463345293712
 20
1198.524663738288
  0
LWPOLYLINE
  5
47
330
17
100
AcDbEntity
  8
FIRE PROTECTION
  6
Continuous
100
AcDbPolyline
 90
5
 70
1
 10
1540.7463345293654
 20
1226.5407927705455
 10
1310.1463345293596
 20
1226.5407927705455
 10
1310.1463345293596
 20
1261.5407927705455
 10
1429.946334529377
 20
1261.5407927705455
 10
1540.7463345293654
 20
1242.5407927705455
  0
LWPOLYLINE
  5
48
330
17
100
AcDbEntity
  8
0
 48
3.0
100
AcDbPolyline
 90
4
 70
1
 10
144.0194468748523
 20
849.5246637382897
 10
144.0194468748523
 20
1249.524663738288
 10
444.0194468748523
 20
1249.524663738288
 10
444.0194468748523
 20
849.5246637382897
  0
LWPOLYLINE
  5
49
330
17
100
AcDbEntity
  8
0
 48
3.0
100
AcDbPolyline
 90
4
 70
1
 10
145.0194468748523
 20
850.5246637382879
 10
145.0194468748523
 20
1248.524663738288
 10
443.0194468748523
 20
1248.524663738288
 10
443.0194468748523
 20
850.5246637382879
  0
INSERT
  5
4A
330
17
100
AcDbEntity
  8
0
 62
7
100
AcDbBlockReference
  2
ovan6x10
 10
434.21950687107164
 20
938.5246511615042
 30
0.0
 41
-1.0
 50
180.0
  0
INSERT
  5
4C
330
17
100
AcDbEntity
  8
0
 62
7
100
AcDbBlockReference
  2
ovan6x10
 10
434.21950687107164
 20
955.0246511615042
 30
0.0
 41
-1.0
 50
180.0
  0
INSERT
  5
4E
330
17
100
AcDbEntity
  8
0
 62
7
100
AcDbBlockReference
  2
HL036-1-1
 10
426.5194468748523
 20
968.0246637382861
 30
0.0
 41
-1.0
 50
180.0
  0
DIMENSION
  5
50
330
17
100
AcDbEntity
  8
0
 48
3.0
100
AcDbDimension
280
0
  2
*D5
  3
Dim-33
 10
444.0194468748523
 20
1317.8019009024938
 30
0.0
 11
294.0194468748523
 21
1349.6620646132706
 31
0.0
 70
32
 71
5
 42
300.0
 73
0
 74
0
 75
0
100
AcDbAlignedDimension
 13
144.0194468748523
 23
1249.524663738288
 33
0.0
 14
444.0194468748523
 24
1249.524663738288
 34
0.0
 50
0.0
100
AcDbRotatedDimension
  0
DIMENSION
  5
51
330
17
100
AcDbEntity
  8
0
 48
3.0
100
AcDbDimension
280
0
  2
*D6
  3
Dim-33
 10
86.4931343109638
 20
849.5246637382897
 30
0.0
 11
54.644225716154324
 21
1049.5246637383134
 31
0.0
 70
32
 71
5
 42
400.0
 73
0
 74
0
 75
0
100
AcDbAlignedDimension
 13
144.0194468748523
 23
1249.524663738288
 33
0.0
 14
144.0194468748523
 24
849.5246637382897
 34
0.0
 50
90.0
100
AcDbRotatedDimension
  0
LWPOLYLINE
  5
52
330
17
100
AcDbEntity
  8
0
 62
7
100
AcDbPolyline
 90
12
 70
1
 10
432.0194468748523
 20
505.3386035858057
 10
442.0194468748523
 20
505.3386035858057
 10
442.0194468748523
 20
489.3386035858057
 10
146.0194468748523
 20
489.3386035858057
 10
146.0194468748523
 20
505.3386035858057
 10
156.0194468748523
 20
505.3386035858057
 10
156.0194468748523
 20
506.3386035858057
 10
145.0194468748523
 20
506.3386035858057
 10
145.0194468748523
 20
488.3386035858057
 10
443.0194468748523
 20
488.3386035858057
 10
443.0194468748523
 20
506.3386035858057
 10
432.0194468748523
 20
506.3386035858057
  0
LWPOLYLINE
  5
53
330
17
100
AcDbEntity
  8
0
 62
7
100
AcDbPolyline
 90
20
 70
1
 10
418.0194468748523
 20
490.1386035858086
 10
407.0194468748523
 20
490.1386035858086
 10
407.0194468748523
 20
508.1386035858086
 10
443.0194468748523
 20
508.1386035858086
 10
443.0194468748523
 20
687.3386035858057
 10
145.0194468748523
 20
687.3386035858057
 10
145.0194468748523
 20
508.1386035858086
 10
181.0194468748523
 20
508.1386035858086
 10
181.0194468748523
 20
490.1386035858086
 10
170.0194468748523
 20
490.1386035858086
 10
170.0194468748523
 20
491.1386035858068
 10
180.0194468748523
 20
491.1386035858068
 10
180.0194468748523
 20
507.1386035858086
 10
144.0194468748523
 20
507.1386035858086
 10
144.0194468748523
 20
688.3386035858057
 10
444.0194468748523
 20
688.3386035858057
 10
444.0194468748523
 20
507.1386035858086
 10
408.0194468748523
 20
507.1386035858086
 10
408.0194468748523
 20
491.1386035858068
 10
418.0194468748523
 20
491.1386035858068
  0
INSERT
  5
54
330
17
100
AcDbEntity
  8
0
 62
7
100
AcDbBlockReference
  2
HL036-1-2
 10
440.9194468748756
 20
507.1386035858086
 30
0.0
 41
-1.0
 50
180.0
  0
DIMENSION
  5
56
330
17
100
AcDbEntity
  8
0
 48
3.0
100
AcDbDimension
280
0
  2
*D7
  3
Dim-33
 10
444.0194468748523
 20
727.5577819152604
 30
0.0
 11
294.0194468748523
 21
759.4179456260354
 31
0.0
 70
32
 71
5
 42
300.0
 73
0
 74
0
 75
0
100
AcDbAlignedDimension
 13
144.0194468748523
 23
688.3386035858057
 33
0.0
 14
444.0194468748523
 24
688.3386035858057
 34
0.0
 50
0.0
100
AcDbRotatedDimension
  0
DIMENSION
  5
57
330
17
100
AcDbEntity
  8
0
 48
3.0
100
AcDbDimension
280
0
  2
*D8
  3
Dim-33
 10
94.21051024086773
 20
488.3386035858057
 30
0.0
 11
62.36160164605826
 21
588.3386035858312
 31
0.0
 70
32
 71
5
 42
200.0
 73
0
 74
0
 75
0
100
AcDbAlignedDimension
 13
144.0194468748523
 23
688.3386035858057
 33
0.0
 14
145.0194468748523
 24
488.3386035858057
 34
0.0
 50
90.0
100
AcDbRotatedDimension
  0
CIRCLE
  5
58
330
17
100
AcDbEntity
  8
0
 62
2
100
AcDbCircle
 10
219.0194468748523
 20
1034.524663738288
 30
0.0
 40
12.5
  0
CIRCLE
  5
59
330
17
100
AcDbEntity
  8
0
 62
2
100
AcDbCircle
 10
219.0194468748523
 20
1051.524663738288
 30
0.0
 40
3.0
  0
CIRCLE
  5
5A
330
17
100
AcDbEntity
  8
0
 62
2
100
AcDbCircle
 10
219.0194468748523
 20
1017.5246637382879
 30
0.0
 40
3.0
  0
INSERT
  5
5B
330
17
100
AcDbEntity
  8
0
 62
7
100
AcDbBlockReference
  2
MS308-2-1
 10
219.0194468748523
 20
1034.524663738288
 30
0.0
  0
CIRCLE
  5
5D
330
17
100
AcDbEntity
  8
0
 62
2
 48
3.0
100
AcDbCircle
 10
294.0194468748523
 20
1152.524663738288
 30
0.0
 40
11.5
  0
CIRCLE
  5
5E
330
17
100
AcDbEntity
  8
0
 62
2
 48
3.0
100
AcDbCircle
 10
234.0194468748523
 20
1152.524663738288
 30
0.0
 40
11.5
  0
CIRCLE
  5
5F
330
17
100
AcDbEntity
  8
0
 62
2
 48
3.0
100
AcDbCircle
 10
354.0194468748523
 20
1152.524663738288
 30
0.0
 40
11.5
  0
INSERT
  5
60
330
17
100
AcDbEntity
  8
0
 62
7
100
AcDbBlockReference
 66
1
  2
Den XANH
 10
339.01949217985384
 20
1137.5246801113608
 30
0.0
  0
ATTRIB
  5
61
330
60
100
AcDbEntity
  8
01
  6
Continuous
 62
2
370
5
100
AcDbText
 10
352.5391156311671
 20
1173.4925981005945
 30
0.0
 40
4.0
  1
T
  7
Arial
 72
1
 11
354.24580048795906
 21
1173.4925981005945
 31
0.0
100
AcDbAttribute
  2
T-SP
 70
0
 71
1
 72
0
 11
354.24580048795906
 21
1173.4925981005945
 31
0.0
  0
SEQEND
  5
62
330
17
100
AcDbEntity
  8
0
 62
7
  0
INSERT
  5
63
330
17
100
AcDbEntity
  8
0
 62
7
100
AcDbBlockReference
 66
1
  2
Den DO
 10
219.01949217997026
 20
1137.5246801113608
 30
0.0
  0
ATTRIB
  5
64
330
63
100
AcDbEntity
  8
01
  6
Continuous
 62
2
370
5
100
AcDbText
 10
232.2280651536712
 20
1173.4925981005945
 30
0.0
 40
4.0
  1
R
  7
Arial
 72
1
 11
234.24580048795906
 21
1173.4925981005945
 31
0.0
100
AcDbAttribute
  2
T-SP
 70
0
 71
1
 72
0
 11
234.24580048795906
 21
1173.4925981005945
 31
0.0
  0
SEQEND
  5
65
330
17
100
AcDbEntity
  8
0
 62
7
  0
INSERT
  5
66
330
17
100
AcDbEntity
  8
0
 62
7
100
AcDbBlockReference
 66
1
  2
Den VANG
 10
279.01949217997026
 20
1137.5246801113608
 30
0.0
  0
ATTRIB
  5
67
330
66
100
AcDbEntity
  8
01
  6
Continuous
 62
2
370
5
100
AcDbText
 10
292.3822261359601
 20
1173.4925981005945
 30
0.0
 40
4.0
  1
S
  7
Arial
 72
1
 11
294.24580048795906
 21
1173.4925981005945
 31
0.0
100
AcDbAttribute
  2
T-SP
 70
0
 71
1
 72
0
 11
294.24580048795906
 21
1173.4925981005945
 31
0.0
  0
SEQEND
  5
68
330
17
100
AcDbEntity
  8
0
 62
7
  0
LINE
  5
69
330
17
100
AcDbEntity
  8
0
 48
3.0
100
AcDbLine
 10
145.0194468748523
 20
1226.5407927705455
 30
0.0
 11
444.0194468748523
 21
1226.5407927705455
 31
0.0
  0
LWPOLYLINE
  5
6A
330
17
100
AcDbEntity
  8
0
 62
2
 48
3.0
100
AcDbPolyline
 90
4
 70
1
 10
874.2611481466738
 20
577.3386035858057
 10
1024.2611481466738
 20
577.3386035858057
 10
1024.2611481466738
 20
637.3386035858057
 10
874.2611481466738
 20
637.3386035858057
  0
LWPOLYLINE
  5
6B
330
17
100
AcDbEntity
  8
0
 62
7
100
AcDbPolyline
 90
4
 70
1
 10
854.2611481466738
 20
647.3386035858057
 10
1044.2611481466738
 20
647.3386035858057
 10
1044.2611481466738
 20
567.3386035858057
 10
854.2611481466738
 20
567.3386035858057
  0
LWPOLYLINE
  5
6C
330
17
100
AcDbEntity
  8
0
 62
2
100
AcDbPolyline
 90
4
 70
1
 10
1029.0111481466738
 20
602.8386035858057
 10
1038.0111481466738
 20
602.8386035858057
 10
1038.0111481466738
 20
611.8386035858057
 10
1029.0111481466738
 20
611.8386035858057
  0
LWPOLYLINE
  5
6D
330
17
100
AcDbEntity
  8
0
 62
2
100
AcDbPolyline
 90
4
 70
1
 10
869.5111481466738
 20
602.8386035858057
 10
860.5111481466738
 20
602.8386035858057
 10
860.5111481466738
 20
611.8386035858057
 10
869.5111481466738
 20
611.8386035858057
  0
CIRCLE
  5
6E
330
17
100
AcDbEntity
  8
0
 62
7
100
AcDbCircle
 10
1033.5111481466738
 20
607.3386035858057
 30
0.0
 40
4.0
  0
CIRCLE
  5
6F
330
17
100
AcDbEntity
  8
0
 62
7
100
AcDbCircle
 10
865.0111481466738
 20
607.3386035858057
 30
0.0
 40
4.0
  0
CIRCLE
  5
70
330
17
100
AcDbEntity
  8
0
 62
2
 48
3.0
100
AcDbCircle
 10
856.2611481466738
 20
1167.524663738288
 30
0.0
 40
5.0
  0
CIRCLE
  5
71
330
17
100
AcDbEntity
  8
0
 62
2
 48
3.0
100
AcDbCircle
 10
856.2611481466738
 20
1167.524663738288
 30
0.0
 40
1.5
  0
CIRCLE
  5
72
330
17
100
AcDbEntity
  8
0
 62
2
 48
3.0
100
AcDbCircle
 10
1042.2611481466738
 20
1167.524663738288
 30
0.0
 40
5.0
  0
CIRCLE
  5
73
330
17
100
AcDbEntity
  8
0
 62
2
 48
3.0
100
AcDbCircle
 10
1042.2611481466738
 20
1167.524663738288
 30
0.0
 40
1.5
  0
CIRCLE
  5
74
330
17
100
AcDbEntity
  8
0
 62
2
 48
3.0
100
AcDbCircle
 10
856.2611481466738
 20
906.5246637382879
 30
0.0
 40
5.0
  0
CIRCLE
  5
75
330
17
100
AcDbEntity
  8
0
 62
2
 48
3.0
100
AcDbCircle
 10
856.2611481466738
 20
906.5246637382879
 30
0.0
 40
1.5
  0
CIRCLE
  5
76
330
17
100
AcDbEntity
  8
0
 62
2
 48
3.0
100
AcDbCircle
 10
1042.2611481466738
 20
906.5246637382879
 30
0.0
 40
5.0
  0
CIRCLE
  5
77
330
17
100
AcDbEntity
  8
0
 62
2
 48
3.0
100
AcDbCircle
 10
1042.2611481466738
 20
906.5246637382879
 30
0.0
 40
1.5
  0
LWPOLYLINE
  5
78
330
17
100
AcDbEntity
  8
0
 62
2
100
AcDbPolyline
 90
6
 70
1
 10
1368.7463345293654
 20
1149.524663738288
 10
1432.7463345293654
 20
1149.524663738288
 42
-0.4142135623730951
 10
1440.7463345293654
 20
1141.5246637382897
 10
1440.7463345293654
 20
1138.5246637382897
 10
1360.7463345293654
 20
1138.5246637382897
 10
1360.7463345293654
 20
1141.5246637382897
 42
-0.4142135623730951
  0
LWPOLYLINE
  5
79
330
17
100
AcDbEntity
  8
0
 62
2
100
AcDbPolyline
 90
6
 70
1
 10
1368.7463345293654
 20
1123.524663738288
 10
1432.7463345293654
 20
1123.524663738288
 42
-0.4142135623730951
 10
1440.7463345293654
 20
1115.524663738288
 10
1440.7463345293654
 20
1112.524663738288
 10
1360.7463345293654
 20
1112.524663738288
 10
1360.7463345293654
 20
1115.524663738288
 42
-0.4142135623730951
  0
LWPOLYLINE
  5
7A
330
17
100
AcDbEntity
  8
0
 62
2
100
AcDbPolyline
 90
6
 70
1
 10
1368.7463345293654
 20
1097.524663738288
 10
1432.7463345293654
 20
1097.524663738288
 42
-0.4142135623730951
 10
1440.7463345293654
 20
1089.524663738288
 10
1440.7463345293654
 20
1086.524663738288
 10
1360.7463345293654
 20
1086.524663738288
 10
1360.7463345293654
 20
1089.524663738288
 42
-0.4142135623730951
  0
LWPOLYLINE
  5
7B
330
17
100
AcDbEntity
  8
0
 62
2
100
AcDbPolyline
 90
6
 70
1
 10
1368.7463345293654
 20
1071.5246637382897
 10
1432.7463345293654
 20
1071.5246637382897
 42
-0.4142135623730951
 10
1440.7463345293654
 20
1063.524663738288
 10
1440.7463345293654
 20
1060.524663738288
 10
1360.7463345293654
 20
1060.524663738288
 10
1360.7463345293654
 20
1063.524663738288
 42
-0.4142135623730951
  0
INSERT
  5
7C
330
17
100
AcDbEntity
  8
0
 62
3
100
AcDbBlockReference
 66
1
  2
KHUNG CHUẨN
 10
-11259.760356562649
 20
19070.008494221373
 30
0.0
 41
0.665500000002794
 42
0.665500000002794
 43
0.665500000002794
  0
ATTRIB
  5
7D
330
7C
100
AcDbEntity
  8
0
 62
3
100
AcDbText
 10
739.5879393814539
 20
49.95092387990462
 30
0.0
 40
13.31
  1
VÕ TỦ
  7
Arial
100
AcDbAttribute
  2
#03
 70
0
280
1
 71
1
 72
0
  0
ATTRIB
  5
7E
330
7C
100
AcDbEntity
  8
0
 62
3
100
AcDbText
 10
720.575879065058
 20
13.590682505484438
 30
0.0
 40
13.31
  1
400X300X200
  7
Arial
100
AcDbAttribute
  2
#07
 70
0
280
1
 71
1
 72
0
  0
ATTRIB
  5
7F
330
7C
100
AcDbEntity
  8
0
 62
3
100
AcDbText
 10
1219.4949461606739
 20
49.95092387990462
 30
0.0
 40
13.31
  1
1
  7
Arial
100
AcDbAttribute
  2
#08
 70
0
280
1
 71
1
 72
0
  0
ATTRIB
  5
80
330
7C
100
AcDbEntity
  8
0
 62
3
100
AcDbText
 10
1220.923501700454
 20
15.015077202745488
 30
0.0
 40
13.31
  1
INOX304 X1.0
  7
Arial
100
AcDbAttribute
  2
#09
 70
0
280
1
 71
1
 72
0
  0
ATTRIB
  5
81
330
7C
100
AcDbEntity
  8
0
 62
3
100
AcDbText
 10
1427.8532564292545
 20
49.95092387990462
 30
0.0
 40
13.31
  1

  7
Arial
100
AcDbAttribute
  2
#10
 70
0
280
1
 71
1
 72
0
  0
ATTRIB
  5
82
330
7C
100
AcDbEntity
  8
0
 62
3
100
AcDbText
 10
1424.8665876341693
 20
19.61443025974495
 30
0.0
 40
13.31
  1
TỦ NGOÀI TRỜI, 1 LỚP CÁNH
  7
Arial
100
AcDbAttribute
  2
#11
 70
0
280
1
 71
1
 72
0
  0
ATTRIB
  5
83
330
7C
100
AcDbEntity
  8
0
 62
3
100
AcDbText
 10
340.8328071879514
 20
49.95092387990462
 30
0.0
 40
13.31
  1
QTK
  7
Arial
100
AcDbAttribute
  2
#02
 70
0
280
1
 71
1
 72
0
  0
ATTRIB
  5
84
330
7C
100
AcDbEntity
  8
0
 62
3
100
AcDbText
 10
259.0147579446784
 20
14.73338582364795
 30
0.0
 40
13.31
  1
25.04.2022 
  7
Arial
100
AcDbAttribute
  2
#05
 70
0
280
1
 71
1
 72
0
  0
ATTRIB
  5
85
330
7C
100
AcDbEntity
  8
0
 62
3
100
AcDbText
 10
474.7702579279721
 20
14.260255500698804
 30
0.0
 40
13.31
  1
27.04.2022
  7
Arial
100
AcDbAttribute
  2
#06
 70
0
280
1
 71
1
 72
0
  0
ATTRIB
  5
86
330
7C
100
AcDbEntity
  8
0
 62
3
100
AcDbText
 10
90.72441610295209
 20
49.95092387990462
 30
0.0
 40
13.31
  1
PHÚC
  7
Arial
100
AcDbAttribute
  2
#01
 70
0
280
1
 71
1
 72
0
  0
ATTRIB
  5
87
330
7C
100
AcDbEntity
  8
0
 62
3
100
AcDbText
 10
70.22094551345799
 20
13.668888927866647
 30
0.0
 40
13.31
  1
............
  7
Arial
100
AcDbAttribute
  2
#04
 70
0
280
1
 71
1
 72
0
  0
ATTRIB
  5
88
330
7C
100
AcDbEntity
  8
0
 62
3
100
AcDbText
 10
1921.437795265956
 20
17.467645433714097
 30
0.0
 40
13.31
  1
.......
  7
Arial
100
AcDbAttribute
  2
#12
 70
0
280
1
 71
1
 72
0
  0
SEQEND
  5
89
330
17
100
AcDbEntity
  8
0
 62
3
  0
INSERT
  5
8A
330
17
100
AcDbEntity
  8
0
 62
7
100
AcDbBlockReference
  2
ovan6x10
 10
1089.461208142864
 20
1130.5246763150717
 30
0.0
  0
INSERT
  5
8C
330
17
100
AcDbEntity
  8
0
 62
7
100
AcDbBlockReference
  2
ovan6x10
 10
1089.461208142864
 20
1114.0246763150717
 30
0.0
  0
INSERT
  5
8E
330
17
100
AcDbEntity
  8
0
 62
7
100
AcDbBlockReference
  2
HL036-1-1
 10
1081.7611481466738
 20
1101.0246637382897
 30
0.0
  0
INSERT
  5
90
330
17
100
AcDbEntity
  8
0
 62
7
100
AcDbBlockReference
  2
ovan6x10
 10
434.21950687107164
 20
1130.5246763150717
 30
0.0
  0
INSERT
  5
92
330
17
100
AcDbEntity
  8
0
 62
7
100
AcDbBlockReference
  2
ovan6x10
 10
434.21950687107164
 20
1114.0246763150717
 30
0.0
  0
INSERT
  5
94
330
17
100
AcDbEntity
  8
0
 62
7
100
AcDbBlockReference
  2
HL036-1-1
 10
426.5194468748523
 20
1101.0246637382897
 30
0.0
  0
HATCH
  5
96
330
17
100
AcDbEntity
  8
0
 48
3.0
100
AcDbHatch
 10
0.0
 20
0.0
 30
0.0
210
0.0
220
0.0
230
1.0
  2
ANSI31
 70
0
 71
0
 91
2
 92
23
 72
0
 73
1
 93
4
 10
1490.3463345293712
 20
1248.524663738288
 10
1311.1463345293596
 20
1248.524663738288
 10
1311.1463345293596
 20
1226.5407927705455
 10
1490.3463345293712
 20
1226.5407927705455
 97
2
330
25B152
330
25B176
 92
7
 72
0
 73
1
 93
7
 10
1429.946334529377
 20
1261.5407927705455
 10
1310.1463345293596
 20
1261.5407927705455
 10
1310.1463345293596
 20
1249.524663738288
 10
1491.3463345293712
 20
1249.524663738288
 10
1491.3463345293712
 20
1226.5407927705455
 10
1540.7463345293654
 20
1226.5407927705455
 10
1540.7463345293654
 20
1242.5407927705455
 97
2
330
25B176
330
25B152
 75
1
 76
1
 52
0.0
 41
30.0
 77
0
 78
1
 53
45.0
 43
0.0
 44
0.0
 45
-79.5495128835
 46
79.5495128835
 79
0
 47
0.2425282589659301
 98
2
 10
167263.2123138783
 20
9071.088715911263
 10
167243.8390750526
 20
9088.049053117982
  0
ENDSEC
  0
SECTION
  2
OBJECTS
  0
DICTIONARY
  5
A
330
0
100
AcDbDictionary
281
1
  3
ACAD_COLOR
350
B
  3
ACAD_GROUP
350
C
  3
ACAD_LAYOUT
350
D
  3
ACAD_MATERIAL
350
E
  3
ACAD_MLEADERSTYLE
350
F
  3
ACAD_MLINESTYLE
350
10
  3
ACAD_PLOTSETTINGS
350
11
  3
ACAD_PLOTSTYLENAME
350
12
  3
ACAD_SCALELIST
350
14
  3
ACAD_TABLESTYLE
350
15
  3
ACAD_VISUALSTYLE
350
16
  3
EZDXF_META
350
2D
  0
DICTIONARY
  5
B
330
A
100
AcDbDictionary
281
1
  0
DICTIONARY
  5
C
330
A
100
AcDbDictionary
281
1
  0
DICTIONARY
  5
D
330
A
100
AcDbDictionary
281
1
  3
Model
350
1A
  3
Layout1
350
1E
  0
DICTIONARY
  5
E
330
A
100
AcDbDictionary
281
1
  3
ByBlock
350
1F
  3
ByLayer
350
20
  3
Global
350
21
  0
DICTIONARY
  5
F
330
A
100
AcDbDictionary
281
1
  3
Standard
350
2C
  0
DICTIONARY
  5
10
330
A
100
AcDbDictionary
281
1
  3
Standard
350
22
  0
DICTIONARY
  5
11
330
A
100
AcDbDictionary
281
1
  0
ACDBDICTIONARYWDFLT
  5
12
330
A
100
AcDbDictionary
281
1
  3
Normal
350
13
100
AcDbDictionaryWithDefault
340
13
  0
ACDBPLACEHOLDER
  5
13
330
12
  0
DICTIONARY
  5
14
330
A
100
AcDbDictionary
281
1
  0
DICTIONARY
  5
15
330
A
100
AcDbDictionary
281
1
  0
DICTIONARY
  5
16
330
A
100
AcDbDictionary
281
1
  0
LAYOUT
  5
1A
330
D
100
AcDbPlotSettings
  1

  4
A3
  6

 40
7.5
 41
20.0
 42
7.5
 43
20.0
 44
420.0
 45
297.0
 46
0.0
 47
0.0
 48
0.0
 49
0.0
140
0.0
141
0.0
142
1.0
143
1.0
 70
1024
 72
1
 73
0
 74
5
  7

 75
16
 76
0
 77
2
 78
300
147
1.0
148
0.0
149
0.0
100
AcDbLayout
  1
Model
 70
1
 71
0
 10
0.0
 20
0.0
 11
420.0
 21
297.0
 12
0.0
 22
0.0
 32
0.0
 14
1e+20
 24
1e+20
 34
1e+20
 15
-1e+20
 25
-1e+20
 35
-1e+20
146
0.0
 13
0.0
 23
0.0
 33
0.0
 16
1.0
 26
0.0
 36
0.0
 17
0.0
 27
1.0
 37
0.0
 76
1
330
17
  0
LAYOUT
  5
1E
330
D
100
AcDbPlotSettings
  1

  4
A3
  6

 40
7.5
 41
20.0
 42
7.5
 43
20.0
 44
420.0
 45
297.0
 46
0.0
 47
0.0
 48
0.0
 49
0.0
140
0.0
141
0.0
142
1.0
143
1.0
 70
0
 72
1
 73
0
 74
5
  7

 75
16
 76
0
 77
2
 78
300
147
1.0
148
0.0
149
0.0
100
AcDbLayout
  1
Layout1
 70
1
 71
1
 10
0.0
 20
0.0
 11
420.0
 21
297.0
 12
0.0
 22
0.0
 32
0.0
 14
1e+20
 24
1e+20
 34
1e+20
 15
-1e+20
 25
-1e+20
 35
-1e+20
146
0.0
 13
0.0
 23
0.0
 33
0.0
 16
1.0
 26
0.0
 36
0.0
 17
0.0
 27
1.0
 37
0.0
 76
1
330
1B
  0
MATERIAL
  5
1F
102
{ACAD_REACTORS
330
E
102
}
330
E
100
AcDbMaterial
  1
ByBlock
  2

 70
0
 40
1.0
 71
1
 41
1.0
 91
-1023410177
 42
1.0
 72
1
  3

 73
1
 74
1
 75
1
 44
0.5
 73
0
 45
1.0
 46
1.0
 77
1
  4

 78
1
 79
1
170
1
 48
1.0
171
1
  6

172
1
173
1
174
1
140
1.0
141
1.0
175
1
  7

176
1
177
1
178
1
143
1.0
179
1
  8

270
1
271
1
272
1
145
1.0
146
1.0
273
1
  9

274
1
275
1
276
1
 42
1.0
 72
1
  3

 73
1
 74
1
 75
1
 94
63
  0
MATERIAL
  5
20
102
{ACAD_REACTORS
330
E
102
}
330
E
100
AcDbMaterial
  1
ByLayer
  2

 70
0
 40
1.0
 71
1
 41
1.0
 91
-1023410177
 42
1.0
 72
1
  3

 73
1
 74
1
 75
1
 44
0.5
 73
0
 45
1.0
 46
1.0
 77
1
  4

 78
1
 79
1
170
1
 48
1.0
171
1
  6

172
1
173
1
174
1
140
1.0
141
1.0
175
1
  7

176
1
177
1
178
1
143
1.0
179
1
  8

270
1
271
1
272
1
145
1.0
146
1.0
273
1
  9

274
1
275
1
276
1
 42
1.0
 72
1
  3

 73
1
 74
1
 75
1
 94
63
  0
MATERIAL
  5
21
102
{ACAD_REACTORS
330
E
102
}
330
E
100
AcDbMaterial
  1
Global
  2

 70
0
 40
1.0
 71
1
 41
1.0
 91
-1023410177
 42
1.0
 72
1
  3

 73
1
 74
1
 75
1
 44
0.5
 73
0
 45
1.0
 46
1.0
 77
1
  4

 78
1
 79
1
170
1
 48
1.0
171
1
  6

172
1
173
1
174
1
140
1.0
141
1.0
175
1
  7

176
1
177
1
178
1
143
1.0
179
1
  8

270
1
271
1
272
1
145
1.0
146
1.0
273
1
  9

274
1
275
1
276
1
 42
1.0
 72
1
  3

 73
1
 74
1
 75
1
 94
63
  0
MLINESTYLE
  5
22
102
{ACAD_REACTORS
330
10
102
}
330
10
100
AcDbMlineStyle
  2
Standard
 70
0
  3

 62
256
 51
90.0
 52
90.0
 71
2
 49
0.5
 62
256
  6
BYLAYER
 49
-0.5
 62
256
  6
BYLAYER
  0
MLEADERSTYLE
  5
2C
102
{ACAD_REACTORS
330
F
102
}
330
F
100
AcDbMLeaderStyle
179
2
170
2
171
1
172
0
 90
2
 40
0.0
 41
0.0
173
1
 91
-1056964608
 92
-2
290
1
 42
2.0
291
1
 43
8.0
  3
Standard
 44
4.0
300

342
29
174
1
175
1
176
0
178
1
 93
-1056964608
 45
4.0
292
0
297
0
 46
4.0
 94
-1056964608
 47
1.0
 49
1.0
140
1.0
294
1
141
0.0
177
0
142
1.0
295
0
296
0
143
3.75
271
0
272
9
273
9
  0
DICTIONARY
  5
2D
330
A
100
AcDbDictionary
280
1
281
1
  3
CREATED_BY_EZDXF
350
2E
  3
WRITTEN_BY_EZDXF
350
12D
  0
DICTIONARYVAR
  5
2E
330
2D
100
DictionaryVariables
280
0
  1
1.4.4 @ 2026-09-24T06:32:33.391181+00:00
  0
DICTIONARYVAR
  5
12D
330
2D
100
DictionaryVariables
280
0
  1
1.4.4 @ 2026-09-24T06:38:16.505719+00:00
  0
ENDSEC
  0
EOF
