  0
SECTION
  2
HEADER
  9
$ACADVER
  1
AC1032
  9
$ACADMAINTVER
 90
4
  9
$DWGCODEPAGE
  3
ANSI_1252
  9
$LASTSAVEDBY
  1
ezdxf
  9
$REQUIREDVERSIONS
160
0
  9
$INSBASE
 10
0.0
 20
0.0
 30
0.0
  9
$EXTMIN
 10
1e+20
 20
1e+20
 30
1e+20
  9
$EXTMAX
 10
-1e+20
 20
-1e+20
 30
-1e+20
  9
$LIMMIN
 10
0.0
 20
0.0
  9
$LIMMAX
 10
420.0
 20
297.0
  9
$ORTHOMODE
 70
0
  9
$REGENMODE
 70
1
  9
$FILLMODE
 70
1
  9
$QTEXTMODE
 70
0
  9
$MIRRTEXT
 70
1
  9
$LTSCALE
 40
1.0
  9
$ATTMODE
 70
1
  9
$TEXTSIZE
 40
2.5
  9
$TRACEWID
 40
1.0
  9
$TEXTSTYLE
  7
Standard
  9
$CLAYER
  8
0
  9
$CELTYPE
  6
ByLayer
  9
$CECOLOR
 62
256
  9
$CELTSCALE
 40
1.0
  9
$DISPSILH
 70
0
  9
$DIMSCALE
 40
1.0
  9
$DIMASZ
 40
2.5
  9
$DIMEXO
 40
0.625
  9
$DIMDLI
 40
3.75
  9
$DIMRND
 40
0.0
  9
$DIMDLE
 40
0.0
  9
$DIMEXE
 40
1.25
  9
$DIMTP
 40
0.0
  9
$DIMTM
 40
0.0
  9
$DIMTXT
 40
2.5
  9
$DIMCEN
 40
2.5
  9
$DIMTSZ
 40
0.0
  9
$DIMTOL
 70
0
  9
$DIMLIM
 70
0
  9
$DIMTIH
 70
0
  9
$DIMTOH
 70
0
  9
$DIMSE1
 70
0
  9
$DIMSE2
 70
0
  9
$DIMTAD
 70
1
  9
$DIMZIN
 70
8
  9
$DIMBLK
  1

  9
$DIMASO
 70
1
  9
$DIMSHO
 70
1
  9
$DIMPOST
  1

  9
$DIMAPOST
  1

  9
$DIMALT
 70
0
  9
$DIMALTD
 70
3
  9
$DIMALTF
 40
0.03937007874
  9
$DIMLFAC
 40
1.0
  9
$DIMTOFL
 70
1
  9
$DIMTVP
 40
0.0
  9
$DIMTIX
 70
0
  9
$DIMSOXD
 70
0
  9
$DIMSAH
 70
0
  9
$DIMBLK1
  1

  9
$DIMBLK2
  1

  9
$DIMSTYLE
  2
ISO-25
  9
$DIMCLRD
 70
0
  9
$DIMCLRE
 70
0
  9
$DIMCLRT
 70
0
  9
$DIMTFAC
 40
1.0
  9
$DIMGAP
 40
0.625
  9
$DIMJUST
 70
0
  9
$DIMSD1
 70
0
  9
$DIMSD2
 70
0
  9
$DIMTOLJ
 70
0
  9
$DIMTZIN
 70
8
  9
$DIMALTZ
 70
0
  9
$DIMALTTZ
 70
0
  9
$DIMUPT
 70
0
  9
$DIMDEC
 70
2
  9
$DIMTDEC
 70
2
  9
$DIMALTU
 70
2
  9
$DIMALTTD
 70
3
  9
$DIMTXSTY
  7
Standard
  9
$DIMAUNIT
 70
0
  9
$DIMADEC
 70
0
  9
$DIMALTRND
 40
0.0
  9
$DIMAZIN
 70
0
  9
$DIMDSEP
 70
44
  9
$DIMATFIT
 70
3
  9
$DIMFRAC
 70
0
  9
$DIMLDRBLK
  1

  9
$DIMLUNIT
 70
2
  9
$DIMLWD
 70
-2
  9
$DIMLWE
 70
-2
  9
$DIMTMOVE
 70
0
  9
$DIMFXL
 40
1.0
  9
$DIMFXLON
 70
0
  9
$DIMJOGANG
 40
0.785398163397
  9
$DIMTFILL
 70
0
  9
$DIMTFILLCLR
 70
0
  9
$DIMARCSYM
 70
0
  9
$DIMLTYPE
  6

  9
$DIMLTEX1
  6

  9
$DIMLTEX2
  6

  9
$DIMTXTDIRECTION
 70
0
  9
$LUNITS
 70
2
  9
$LUPREC
 70
4
  9
$SKETCHINC
 40
1.0
  9
$FILLETRAD
 40
10.0
  9
$AUNITS
 70
0
  9
$AUPREC
 70
2
  9
$MENU
  1
.
  9
$ELEVATION
 40
0.0
  9
$PELEVATION
 40
0.0
  9
$THICKNESS
 40
0.0
  9
$LIMCHECK
 70
0
  9
$CHAMFERA
 40
0.0
  9
$CHAMFERB
 40
0.0
  9
$CHAMFERC
 40
0.0
  9
$CHAMFERD
 40
0.0
  9
$SKPOLY
 70
0
  9
$TDCREATE
 40
2461308.5674074073
  9
$TDUCREATE
 40
2458532.153996898
  9
$TDUPDATE
 40
2461308.5674074073
  9
$TDUUPDATE
 40
2458532.1544311
  9
$TDINDWG
 40
0.0
  9
$TDUSRTIMER
 40
0.0
  9
$USRTIMER
 70
1
  9
$ANGBASE
 50
0.0
  9
$ANGDIR
 70
0
  9
$PDMODE
 70
0
  9
$PDSIZE
 40
0.0
  9
$PLINEWID
 40
0.0
  9
$SPLFRAME
 70
0
  9
$SPLINETYPE
 70
6
  9
$SPLINESEGS
 70
8
  9
$HANDSEED
  5
5B8
  9
$SURFTAB1
 70
6
  9
$SURFTAB2
 70
6
  9
$SURFTYPE
 70
6
  9
$SURFU
 70
6
  9
$SURFV
 70
6
  9
$UCSBASE
  2

  9
$UCSNAME
  2

  9
$UCSORG
 10
0.0
 20
0.0
 30
0.0
  9
$UCSXDIR
 10
1.0
 20
0.0
 30
0.0
  9
$UCSYDIR
 10
0.0
 20
1.0
 30
0.0
  9
$UCSORTHOREF
  2

  9
$UCSORTHOVIEW
 70
0
  9
$UCSORGTOP
 10
0.0
 20
0.0
 30
0.0
  9
$UCSORGBOTTOM
 10
0.0
 20
0.0
 30
0.0
  9
$UCSORGLEFT
 10
0.0
 20
0.0
 30
0.0
  9
$UCSORGRIGHT
 10
0.0
 20
0.0
 30
0.0
  9
$UCSORGFRONT
 10
0.0
 20
0.0
 30
0.0
  9
$UCSORGBACK
 10
0.0
 20
0.0
 30
0.0
  9
$PUCSBASE
  2

  9
$PUCSNAME
  2

  9
$PUCSORG
 10
0.0
 20
0.0
 30
0.0
  9
$PUCSXDIR
 10
1.0
 20
0.0
 30
0.0
  9
$PUCSYDIR
 10
0.0
 20
1.0
 30
0.0
  9
$PUCSORTHOREF
  2

  9
$PUCSORTHOVIEW
 70
0
  9
$PUCSORGTOP
 10
0.0
 20
0.0
 30
0.0
  9
$PUCSORGBOTTOM
 10
0.0
 20
0.0
 30
0.0
  9
$PUCSORGLEFT
 10
0.0
 20
0.0
 30
0.0
  9
$PUCSORGRIGHT
 10
0.0
 20
0.0
 30
0.0
  9
$PUCSORGFRONT
 10
0.0
 20
0.0
 30
0.0
  9
$PUCSORGBACK
 10
0.0
 20
0.0
 30
0.0
  9
$USERI1
 70
0
  9
$USERI2
 70
0
  9
$USERI3
 70
0
  9
$USERI4
 70
0
  9
$USERI5
 70
0
  9
$USERR1
 40
0.0
  9
$USERR2
 40
0.0
  9
$USERR3
 40
0.0
  9
$USERR4
 40
0.0
  9
$USERR5
 40
0.0
  9
$WORLDVIEW
 70
1
  9
$SHADEDGE
 70
3
  9
$SHADEDIF
 70
70
  9
$TILEMODE
 70
1
  9
$MAXACTVP
 70
64
  9
$PINSBASE
 10
0.0
 20
0.0
 30
0.0
  9
$PLIMCHECK
 70
0
  9
$PEXTMIN
 10
1e+20
 20
1e+20
 30
1e+20
  9
$PEXTMAX
 10
-1e+20
 20
-1e+20
 30
-1e+20
  9
$PLIMMIN
 10
0.0
 20
0.0
  9
$PLIMMAX
 10
420.0
 20
297.0
  9
$UNITMODE
 70
0
  9
$VISRETAIN
 70
1
  9
$PLINEGEN
 70
0
  9
$PSLTSCALE
 70
1
  9
$TREEDEPTH
 70
3020
  9
$CMLSTYLE
  2
Standard
  9
$CMLJUST
 70
0
  9
$CMLSCALE
 40
20.0
  9
$PROXYGRAPHICS
 70
1
  9
$MEASUREMENT
 70
1
  9
$CELWEIGHT
370
-1
  9
$ENDCAPS
280
0
  9
$JOINSTYLE
280
0
  9
$LWDISPLAY
290
0
  9
$INSUNITS
 70
4
  9
$HYPERLINKBASE
  1

  9
$STYLESHEET
  1

  9
$XEDIT
290
1
  9
$CEPSNTYPE
380
0
  9
$PSTYLEMODE
290
1
  9
$FINGERPRINTGUID
  2
{86BA4D84-0576-4557-B638-DD7499689AA2}
  9
$VERSIONGUID
  2
{BE1F106C-C9A5-41DA-8305-45281137D007}
  9
$EXTNAMES
290
1
  9
$PSVPSCALE
 40
0.0
  9
$OLESTARTUP
290
0
  9
$SORTENTS
280
127
  9
$INDEXCTL
280
0
  9
$HIDETEXT
280
1
  9
$XCLIPFRAME
280
1
  9
$HALOGAP
280
0
  9
$OBSCOLOR
 70
257
  9
$OBSLTYPE
280
0
  9
$INTERSECTIONDISPLAY
280
0
  9
$INTERSECTIONCOLOR
 70
257
  9
$DIMASSOC
280
2
  9
$PROJECTNAME
  1

  9
$CAMERADISPLAY
290
0
  9
$LENSLENGTH
 40
50.0
  9
$CAMERAHEIGHT
 40
0.0
  9
$STEPSPERSEC
 40
24.0
  9
$STEPSIZE
 40
100.0
  9
$3DDWFPREC
 40
2.0
  9
$PSOLWIDTH
 40
0.005
  9
$PSOLHEIGHT
 40
0.08
  9
$LOFTANG1
 40
1.570796326795
  9
$LOFTANG2
 40
1.570796326795
  9
$LOFTMAG1
 40
0.0
  9
$LOFTMAG2
 40
0.0
  9
$LOFTPARAM
 70
7
  9
$LOFTNORMALS
280
1
  9
$LATITUDE
 40
37.795
  9
$LONGITUDE
 40
-122.394
  9
$NORTHDIRECTION
 40
0.0
  9
$TIMEZONE
 70
-8000
  9
$LIGHTGLYPHDISPLAY
280
1
  9
$TILEMODELIGHTSYNCH
280
1
  9
$CMATERIAL
347
20
  9
$SOLIDHIST
280
0
  9
$SHOWHIST
280
1
  9
$DWFFRAME
280
2
  9
$DGNFRAME
280
2
  9
$REALWORLDSCALE
290
1
  9
$INTERFERECOLOR
 62
256
  9
$CSHADOW
280
0
  9
$SHADOWPLANELOCATION
 40
0.0
  0
ENDSEC
  0
SECTION
  2
CLASSES
  0
CLASS
  1
ACDBDICTIONARYWDFLT
  2
AcDbDictionaryWithDefault
  3
ObjectDBX Classes
 90
0
 91
0
280
0
281
0
  0
CLASS
  1
SUN
  2
AcDbSun
  3
SCENEOE
 90
1153
 91
0
280
0
281
0
  0
CLASS
  1
VISUALSTYLE
  2
AcDbVisualStyle
  3
ObjectDBX Classes
 90
4095
 91
0
280
0
281
0
  0
CLASS
  1
MATERIAL
  2
AcDbMaterial
  3
ObjectDBX Classes
 90
1153
 91
0
280
0
281
0
  0
CLASS
  1
SCALE
  2
AcDbScale
  3
ObjectDBX Classes
 90
1153
 91
0
280
0
281
0
  0
CLASS
  1
TABLESTYLE
  2
AcDbTableStyle
  3
ObjectDBX Classes
 90
4095
 91
0
280
0
281
0
  0
CLASS
  1
MLEADERSTYLE
  2
AcDbMLeaderStyle
  3
ACDB_MLEADERSTYLE_CLASS
 90
4095
 91
0
280
0
281
0
  0
CLASS
  1
DICTIONARYVAR
  2
AcDbDictionaryVar
  3
ObjectDBX Classes
 90
0
 91
0
280
0
281
0
  0
CLASS
  1
CELLSTYLEMAP
  2
AcDbCellStyleMap
  3
ObjectDBX Classes
 90
1152
 91
0
280
0
281
0
  0
CLASS
  1
MENTALRAYRENDERSETTINGS
  2
AcDbMentalRayRenderSettings
  3
SCENEOE
 90
1024
 91
0
280
0
281
0
  0
CLASS
  1
ACDBDETAILVIEWSTYLE
  2
AcDbDetailViewStyle
  3
ObjectDBX Classes
 90
1025
 91
0
280
0
281
0
  0
CLASS
  1
ACDBSECTIONVIEWSTYLE
  2
AcDbSectionViewStyle
  3
ObjectDBX Classes
 90
1025
 91
0
280
0
281
0
  0
CLASS
  1
RASTERVARIABLES
  2
AcDbRasterVariables
  3
ISM
 90
0
 91
0
280
0
281
0
  0
CLASS
  1
ACDBPLACEHOLDER
  2
AcDbPlaceHolder
  3
ObjectDBX Classes
 90
0
 91
0
280
0
281
0
  0
CLASS
  1
LAYOUT
  2
AcDbLayout
  3
ObjectDBX Classes
 90
0
 91
0
280
0
281
0
  0
ENDSEC
  0
SECTION
  2
TABLES
  0
TABLE
  2
VPORT
  5
8
330
0
100
AcDbSymbolTable
 70
1
  0
VPORT
  5
23
330
8
100
AcDbSymbolTableRecord
100
AcDbViewportTableRecord
  2
*Active
 70
0
 10
0.0
 20
0.0
 11
1.0
 21
1.0
 12
0.0
 22
0.0
 13
0.0
 23
0.0
 14
0.5
 24
0.5
 15
0.5
 25
0.5
 16
0.0
 26
0.0
 36
1.0
 17
0.0
 27
0.0
 37
0.0
 40
1000.0
 41
1.34
 42
50.0
 43
0.0
 44
0.0
 50
0.0
 51
0.0
 71
0
 72
1000
 73
1
 74
3
 75
0
 76
0
 77
0
 78
0
281
0
 65
0
146
0.0
  0
ENDTAB
  0
TABLE
  2
LTYPE
  5
2
330
0
100
AcDbSymbolTable
 70
3
  0
LTYPE
  5
24
330
2
100
AcDbSymbolTableRecord
100
AcDbLinetypeTableRecord
  2
ByBlock
 70
0
  3

 72
65
 73
0
 40
0.0
  0
LTYPE
  5
25
330
2
100
AcDbSymbolTableRecord
100
AcDbLinetypeTableRecord
  2
ByLayer
 70
0
  3

 72
65
 73
0
 40
0.0
  0
LTYPE
  5
26
330
2
100
AcDbSymbolTableRecord
100
AcDbLinetypeTableRecord
  2
Continuous
 70
0
  3

 72
65
 73
0
 40
0.0
  0
ENDTAB
  0
TABLE
  2
LAYER
  5
1
330
0
100
AcDbSymbolTable
 70
6
  0
LAYER
  5
27
330
1
100
AcDbSymbolTableRecord
100
AcDbLayerTableRecord
  2
0
 70
0
 62
7
  6
Continuous
370
-3
390
13
347
21
  0
LAYER
  5
28
330
1
100
AcDbSymbolTableRecord
100
AcDbLayerTableRecord
  2
Defpoints
 70
0
 62
7
  6
Continuous
290
0
370
-3
390
13
347
21
  0
LAYER
  5
2B6
330
1
100
AcDbSymbolTableRecord
100
AcDbLayerTableRecord
  2
10
 70
0
 62
4
  6
Continuous
370
-3
390
13
347
21
  0
LAYER
  5
2B7
330
1
100
AcDbSymbolTableRecord
100
AcDbLayerTableRecord
  2
DIM
 70
0
 62
253
  6
Continuous
370
-3
390
13
347
21
  0
LAYER
  5
2B8
330
1
100
AcDbSymbolTableRecord
100
AcDbLayerTableRecord
  2
11
 70
0
 62
7
  6
Continuous
370
-3
390
13
347
21
  0
LAYER
  5
2B9
330
1
100
AcDbSymbolTableRecord
100
AcDbLayerTableRecord
  2
CNC
 70
0
 62
7
  6
Continuous
370
-3
390
13
347
21
  0
ENDTAB
  0
TABLE
  2
STYLE
  5
5
330
0
100
AcDbSymbolTable
 70
3
  0
STYLE
  5
29
330
5
100
AcDbSymbolTableRecord
100
AcDbTextStyleTableRecord
  2
Standard
 70
0
 40
0.0
 41
1.0
 50
0.0
 71
0
 42
2.5
  3
txt
  4

  0
STYLE
  5
2BA
330
5
100
AcDbSymbolTableRecord
100
AcDbTextStyleTableRecord
  2
Tahoma (Input Text)
 70
0
 40
0.0
 41
1.0
 50
0.0
 71
0
 42
25.0
  3
tahoma.ttf
  4

  0
STYLE
  5
2BB
330
5
100
AcDbSymbolTableRecord
100
AcDbTextStyleTableRecord
  2
Arial
 70
0
 40
0.0
 41
1.0
 50
0.0
 71
0
 42
0.2
  3
arial.ttf
  4

  0
ENDTAB
  0
TABLE
  2
VIEW
  5
7
330
0
100
AcDbSymbolTable
 70
0
  0
ENDTAB
  0
TABLE
  2
UCS
  5
6
330
0
100
AcDbSymbolTable
 70
0
  0
ENDTAB
  0
TABLE
  2
APPID
  5
3
330
0
100
AcDbSymbolTable
 70
3
  0
APPID
  5
2A
330
3
100
AcDbSymbolTableRecord
100
AcDbRegAppTableRecord
  2
ACAD
 70
0
  0
APPID
  5
2BC
330
3
100
AcDbSymbolTableRecord
100
AcDbRegAppTableRecord
  2
HATCHBACKGROUNDCOLOR
 70
0
  0
APPID
  5
2BD
330
3
100
AcDbSymbolTableRecord
100
AcDbRegAppTableRecord
  2
EZDXF
 70
0
  0
ENDTAB
  0
TABLE
  2
DIMSTYLE
  5
4
330
0
100
AcDbSymbolTable
 70
3
100
AcDbDimStyleTable
  0
DIMSTYLE
105
2B
330
4
100
AcDbSymbolTableRecord
100
AcDbDimStyleTableRecord
  2
Standard
 70
0
 40
1.0
 41
2.5
 42
0.625
 43
3.75
 44
1.25
 45
0.0
 46
0.0
 47
0.0
 48
0.0
 49
2.5
140
2.5
141
2.5
142
0.0
143
0.03937007874
144
1.0
145
0.0
146
1.0
147
0.625
148
0.0
 69
0
 70
0
 71
0
 72
0
 73
0
 74
0
 75
0
 76
0
 77
1
 78
8
 79
3
170
0
171
3
172
1
173
0
174
0
175
0
176
0
177
0
178
0
179
2
271
2
272
2
273
2
274
3
275
0
276
0
277
2
278
44
279
0
280
0
281
0
282
0
283
0
284
8
285
0
286
0
288
0
289
3
290
0
371
-2
372
-2
  0
DIMSTYLE
105
2B4
330
4
100
AcDbSymbolTableRecord
100
AcDbDimStyleTableRecord
  2
Dim-25
 70
0
 40
1.0
 41
8.0
 42
15.0
 43
3.75
 44
10.0
 45
0.0
 46
0.0
 47
0.0
 48
0.0
 49
2.5
140
25.0
141
10.0
142
0.0
143
0.03937007874016
144
1.0
145
0.0
146
1.0
147
10.0
148
0.0
 69
0
 70
0
 71
0
 72
0
 73
0
 74
0
 75
0
 76
0
 77
1
 78
8
 79
3
170
0
171
3
172
1
173
0
174
0
175
0
176
5
177
5
178
3
179
2
271
0
272
0
273
2
274
3
275
0
276
0
277
2
278
44
279
0
280
0
281
0
282
0
283
0
284
8
285
0
286
0
288
0
289
3
290
0
340
29
341
7F
342
7F
345
25
346
25
347
25
371
9
372
9
  0
DIMSTYLE
105
2B5
330
4
100
AcDbSymbolTableRecord
100
AcDbDimStyleTableRecord
  2
Dim-15
 70
0
 40
1.0
 41
5.0
 42
8.0
 43
3.75
 44
5.0
 45
0.0
 46
0.0
 47
0.0
 48
0.0
 49
2.5
140
15.0
141
10.0
142
0.0
143
0.03937007874016
144
1.0
145
0.0
146
1.0
147
5.0
148
0.0
 69
0
 70
0
 71
0
 72
0
 73
0
 74
0
 75
0
 76
0
 77
1
 78
8
 79
3
170
0
171
3
172
1
173
0
174
0
175
0
176
5
177
5
178
3
179
2
271
0
272
0
273
2
274
3
275
0
276
0
277
2
278
44
279
0
280
0
281
0
282
0
283
0
284
8
285
0
286
0
288
0
289
3
290
0
340
29
341
7F
342
7F
345
25
346
25
347
25
371
9
372
9
  0
ENDTAB
  0
TABLE
  2
BLOCK_RECORD
  5
9
330
0
100
AcDbSymbolTable
 70
52
  0
BLOCK_RECORD
  5
17
330
9
100
AcDbSymbolTableRecord
100
AcDbBlockTableRecord
  2
*Model_Space
340
1A
 70
0
280
1
281
0
  0
BLOCK_RECORD
  5
1B
330
9
100
AcDbSymbolTableRecord
100
AcDbBlockTableRecord
  2
*Paper_Space
340
1E
 70
0
280
1
281
0
  0
BLOCK_RECORD
  5
7F
330
9
100
AcDbSymbolTableRecord
100
AcDbBlockTableRecord
  2
_Oblique
340
0
 70
0
280
1
281
0
  0
BLOCK_RECORD
  5
285
330
9
100
AcDbSymbolTableRecord
100
AcDbBlockTableRecord
  2
khungtenAsean2
340
0
 70
0
280
1
281
0
  0
BLOCK_RECORD
  5
2A9
330
9
100
AcDbSymbolTableRecord
100
AcDbBlockTableRecord
  2
f3daunguoc
340
0
 70
0
280
1
281
0
  0
BLOCK_RECORD
  5
2AD
330
9
100
AcDbSymbolTableRecord
100
AcDbBlockTableRecord
  2
ovan8.5x20
340
0
 70
0
280
1
281
0
  0
BLOCK_RECORD
  5
37B
330
9
100
AcDbSymbolTableRecord
100
AcDbBlockTableRecord
  2
*D1
340
0
 70
0
280
1
281
0
  0
BLOCK_RECORD
  5
389
330
9
100
AcDbSymbolTableRecord
100
AcDbBlockTableRecord
  2
*D2
340
0
 70
0
280
1
281
0
  0
BLOCK_RECORD
  5
396
330
9
100
AcDbSymbolTableRecord
100
AcDbBlockTableRecord
  2
*D3
340
0
 70
0
280
1
281
0
  0
BLOCK_RECORD
  5
3A2
330
9
100
AcDbSymbolTableRecord
100
AcDbBlockTableRecord
  2
*D4
340
0
 70
0
280
1
281
0
  0
BLOCK_RECORD
  5
3AE
330
9
100
AcDbSymbolTableRecord
100
AcDbBlockTableRecord
  2
*D5
340
0
 70
0
280
1
281
0
  0
BLOCK_RECORD
  5
3BA
330
9
100
AcDbSymbolTableRecord
100
AcDbBlockTableRecord
  2
*D6
340
0
 70
0
280
1
281
0
  0
BLOCK_RECORD
  5
3C6
330
9
100
AcDbSymbolTableRecord
100
AcDbBlockTableRecord
  2
*D7
340
0
 70
0
280
1
281
0
  0
BLOCK_RECORD
  5
3D4
330
9
100
AcDbSymbolTableRecord
100
AcDbBlockTableRecord
  2
*D8
340
0
 70
0
280
1
281
0
  0
BLOCK_RECORD
  5
3E2
330
9
100
AcDbSymbolTableRecord
100
AcDbBlockTableRecord
  2
*D9
340
0
 70
0
280
1
281
0
  0
BLOCK_RECORD
  5
3EE
330
9
100
AcDbSymbolTableRecord
100
AcDbBlockTableRecord
  2
*D10
340
0
 70
0
280
1
281
0
  0
BLOCK_RECORD
  5
3FA
330
9
100
AcDbSymbolTableRecord
100
AcDbBlockTableRecord
  2
*D11
340
0
 70
0
280
1
281
0
  0
BLOCK_RECORD
  5
406
330
9
100
AcDbSymbolTableRecord
100
AcDbBlockTableRecord
  2
*D12
340
0
 70
0
280
1
281
0
  0
BLOCK_RECORD
  5
412
330
9
100
AcDbSymbolTableRecord
100
AcDbBlockTableRecord
  2
*D13
340
0
 70
0
280
1
281
0
  0
BLOCK_RECORD
  5
41E
330
9
100
AcDbSymbolTableRecord
100
AcDbBlockTableRecord
  2
*D14
340
0
 70
0
280
1
281
0
  0
BLOCK_RECORD
  5
42A
330
9
100
AcDbSymbolTableRecord
100
AcDbBlockTableRecord
  2
*D15
340
0
 70
0
280
1
281
0
  0
BLOCK_RECORD
  5
436
330
9
100
AcDbSymbolTableRecord
100
AcDbBlockTableRecord
  2
*D16
340
0
 70
0
280
1
281
0
  0
BLOCK_RECORD
  5
442
330
9
100
AcDbSymbolTableRecord
100
AcDbBlockTableRecord
  2
*D17
340
0
 70
0
280
1
281
0
  0
BLOCK_RECORD
  5
44E
330
9
100
AcDbSymbolTableRecord
100
AcDbBlockTableRecord
  2
*D18
340
0
 70
0
280
1
281
0
  0
BLOCK_RECORD
  5
45A
330
9
100
AcDbSymbolTableRecord
100
AcDbBlockTableRecord
  2
*D19
340
0
 70
0
280
1
281
0
  0
BLOCK_RECORD
  5
466
330
9
100
AcDbSymbolTableRecord
100
AcDbBlockTableRecord
  2
*D20
340
0
 70
0
280
1
281
0
  0
BLOCK_RECORD
  5
472
330
9
100
AcDbSymbolTableRecord
100
AcDbBlockTableRecord
  2
*D21
340
0
 70
0
280
1
281
0
  0
BLOCK_RECORD
  5
47E
330
9
100
AcDbSymbolTableRecord
100
AcDbBlockTableRecord
  2
*D22
340
0
 70
0
280
1
281
0
  0
BLOCK_RECORD
  5
48A
330
9
100
AcDbSymbolTableRecord
100
AcDbBlockTableRecord
  2
*D23
340
0
 70
0
280
1
281
0
  0
BLOCK_RECORD
  5
496
330
9
100
AcDbSymbolTableRecord
100
AcDbBlockTableRecord
  2
*D24
340
0
 70
0
280
1
281
0
  0
BLOCK_RECORD
  5
4A2
330
9
100
AcDbSymbolTableRecord
100
AcDbBlockTableRecord
  2
*D25
340
0
 70
0
280
1
281
0
  0
BLOCK_RECORD
  5
4B0
330
9
100
AcDbSymbolTableRecord
100
AcDbBlockTableRecord
  2
*D26
340
0
 70
0
280
1
281
0
  0
BLOCK_RECORD
  5
4BE
330
9
100
AcDbSymbolTableRecord
100
AcDbBlockTableRecord
  2
*D27
340
0
 70
0
280
1
281
0
  0
BLOCK_RECORD
  5
4CA
330
9
100
AcDbSymbolTableRecord
100
AcDbBlockTableRecord
  2
*D28
340
0
 70
0
280
1
281
0
  0
BLOCK_RECORD
  5
4D6
330
9
100
AcDbSymbolTableRecord
100
AcDbBlockTableRecord
  2
*D29
340
0
 70
0
280
1
281
0
  0
BLOCK_RECORD
  5
4E4
330
9
100
AcDbSymbolTableRecord
100
AcDbBlockTableRecord
  2
*D30
340
0
 70
0
280
1
281
0
  0
BLOCK_RECORD
  5
4F2
330
9
100
AcDbSymbolTableRecord
100
AcDbBlockTableRecord
  2
*D31
340
0
 70
0
280
1
281
0
  0
BLOCK_RECORD
  5
4FF
330
9
100
AcDbSymbolTableRecord
100
AcDbBlockTableRecord
  2
*D32
340
0
 70
0
280
1
281
0
  0
BLOCK_RECORD
  5
50B
330
9
100
AcDbSymbolTableRecord
100
AcDbBlockTableRecord
  2
*D33
340
0
 70
0
280
1
281
0
  0
BLOCK_RECORD
  5
517
330
9
100
AcDbSymbolTableRecord
100
AcDbBlockTableRecord
  2
*D34
340
0
 70
0
280
1
281
0
  0
BLOCK_RECORD
  5
523
330
9
100
AcDbSymbolTableRecord
100
AcDbBlockTableRecord
  2
*D35
340
0
 70
0
280
1
281
0
  0
BLOCK_RECORD
  5
530
330
9
100
AcDbSymbolTableRecord
100
AcDbBlockTableRecord
  2
*D36
340
0
 70
0
280
1
281
0
  0
BLOCK_RECORD
  5
53C
330
9
100
AcDbSymbolTableRecord
100
AcDbBlockTableRecord
  2
*D37
340
0
 70
0
280
1
281
0
  0
BLOCK_RECORD
  5
548
330
9
100
AcDbSymbolTableRecord
100
AcDbBlockTableRecord
  2
*D38
340
0
 70
0
280
1
281
0
  0
BLOCK_RECORD
  5
554
330
9
100
AcDbSymbolTableRecord
100
AcDbBlockTableRecord
  2
*D39
340
0
 70
0
280
1
281
0
  0
BLOCK_RECORD
  5
560
330
9
100
AcDbSymbolTableRecord
100
AcDbBlockTableRecord
  2
*D40
340
0
 70
0
280
1
281
0
  0
BLOCK_RECORD
  5
56E
330
9
100
AcDbSymbolTableRecord
100
AcDbBlockTableRecord
  2
*D41
340
0
 70
0
280
1
281
0
  0
BLOCK_RECORD
  5
57A
330
9
100
AcDbSymbolTableRecord
100
AcDbBlockTableRecord
  2
*D42
340
0
 70
0
280
1
281
0
  0
BLOCK_RECORD
  5
586
330
9
100
AcDbSymbolTableRecord
100
AcDbBlockTableRecord
  2
*D43
340
0
 70
0
280
1
281
0
  0
BLOCK_RECORD
  5
592
330
9
100
AcDbSymbolTableRecord
100
AcDbBlockTableRecord
  2
*D44
340
0
 70
0
280
1
281
0
  0
BLOCK_RECORD
  5
5A0
330
9
100
AcDbSymbolTableRecord
100
AcDbBlockTableRecord
  2
*D45
340
0
 70
0
280
1
281
0
  0
BLOCK_RECORD
  5
5AC
330
9
100
AcDbSymbolTableRecord
100
AcDbBlockTableRecord
  2
*D46
340
0
 70
0
280
1
281
0
  0
ENDTAB
  0
ENDSEC
  0
SECTION
  2
BLOCKS
  0
BLOCK
  5
18
330
17
100
AcDbEntity
  8
0
100
AcDbBlockBegin
  2
*Model_Space
 70
0
 10
0.0
 20
0.0
 30
0.0
  3
*Model_Space
  1

  0
ENDBLK
  5
19
330
17
100
AcDbEntity
  8
0
100
AcDbBlockEnd
  0
BLOCK
  5
1C
330
1B
100
AcDbEntity
  8
0
100
AcDbBlockBegin
  2
*Paper_Space
 70
0
 10
0.0
 20
0.0
 30
0.0
  3
*Paper_Space
  1

  0
ENDBLK
  5
1D
330
1B
100
AcDbEntity
  8
0
100
AcDbBlockEnd
  0
BLOCK
  5
80
330
7F
100
AcDbEntity
  8
0
100
AcDbBlockBegin
  2
_Oblique
 70
0
 10
0.0
 20
0.0
 30
0.0
  3
_Oblique
  1

  0
LINE
  5
82
330
7F
100
AcDbEntity
  8
0
  6
ByBlock
 62
0
370
-2
100
AcDbLine
 10
-0.5
 20
-0.5
 30
0.0
 11
0.5
 21
0.5
 31
0.0
  0
ENDBLK
  5
81
330
7F
100
AcDbEntity
  8
0
100
AcDbBlockEnd
  0
BLOCK
  5
286
330
285
100
AcDbEntity
  8
0
100
AcDbBlockBegin
  2
khungtenAsean2
 70
2
 10
0.0
 20
0.0
 30
0.0
  3
khungtenAsean2
  1

  0
LWPOLYLINE
  5
288
330
285
100
AcDbEntity
  8
0
 62
7
100
AcDbPolyline
 90
4
 70
1
 10
0.0
 20
0.0
 10
2970.000000000422
 20
0.0
 10
2970.000000000422
 20
-2100.00000000032
 10
0.0
 20
-2100.00000000032
  0
LINE
  5
289
330
285
100
AcDbEntity
  8
0
 62
7
100
AcDbLine
 10
2020.0
 20
-2040.00000000032
 30
0.0
 11
0.0
 21
-2040.00000000032
 31
0.0
  0
LINE
  5
28A
330
285
100
AcDbEntity
  8
0
 62
7
100
AcDbLine
 10
2970.000000000422
 20
-1980.00000000032
 30
0.0
 11
0.0
 21
-1980.00000000032
 31
0.0
  0
LINE
  5
28B
330
285
100
AcDbEntity
  8
0
 62
7
100
AcDbLine
 10
320.0
 20
-1980.00000000032
 30
0.0
 11
320.0
 21
-2100.00000000032
 31
0.0
  0
LINE
  5
28C
330
285
100
AcDbEntity
  8
0
 62
7
100
AcDbLine
 10
890.0
 20
-1980.00000000032
 30
0.0
 11
890.0
 21
-2100.00000000032
 31
0.0
  0
LINE
  5
28D
330
285
100
AcDbEntity
  8
0
 62
7
100
AcDbLine
 10
1680.0
 20
-1980.00000000032
 30
0.0
 11
1680.0
 21
-2100.00000000032
 31
0.0
  0
LINE
  5
28E
330
285
100
AcDbEntity
  8
0
 62
7
100
AcDbLine
 10
2020.0
 20
-1980.00000000032
 30
0.0
 11
2020.0
 21
-2100.00000000032
 31
0.0
  0
LINE
  5
28F
330
285
100
AcDbEntity
  8
0
 62
7
100
AcDbLine
 10
2860.000000000422
 20
-1980.00000000032
 30
0.0
 11
2860.000000000422
 21
-2100.00000000032
 31
0.0
  0
MTEXT
  5
290
330
285
100
AcDbEntity
  8
0
 62
2
100
AcDbMText
 10
0.0
 20
-2010.00000000032
 30
0.0
 40
20.0
 41
917.6339389950801
 46
60.00000000000113
 71
4
 72
5
  1
  Thiết kế :
  7
Arial
  0
MTEXT
  5
291
330
285
100
AcDbEntity
  8
0
 62
2
100
AcDbMText
 10
0.0
 20
-2070.00000000032
 30
0.0
 40
20.0
 41
917.6339389950801
 46
60.00000000000113
 71
4
 72
5
  1
  CNC :
  7
Arial
  0
MTEXT
  5
292
330
285
100
AcDbEntity
  8
0
 62
2
100
AcDbMText
 10
320.0
 20
-2010.00000000032
 30
0.0
 40
20.0
 41
917.6339389950801
 46
60.00000000000113
 71
4
 72
5
  1
  Khách hàng :
  7
Arial
  0
MTEXT
  5
293
330
285
100
AcDbEntity
  8
0
 62
2
100
AcDbMText
 10
320.0
 20
-2070.00000000032
 30
0.0
 40
20.0
 41
917.6339389950801
 46
60.00000000000113
 71
4
 72
5
  1
  Giao hàng :
  7
Arial
  0
MTEXT
  5
294
330
285
100
AcDbEntity
  8
0
 62
2
100
AcDbMText
 10
890.0
 20
-2010.00000000032
 30
0.0
 40
20.0
 41
917.6339389950801
 46
60.00000000000113
 71
4
 72
5
  1
  Tên sản phẩm :
  7
Arial
  0
MTEXT
  5
295
330
285
100
AcDbEntity
  8
0
 62
2
100
AcDbMText
 10
890.0
 20
-2070.00000000032
 30
0.0
 40
20.0
 41
917.6339389950801
 46
60.00000000000113
 71
4
 72
5
  1
  Kích thước :
  7
Arial
  0
MTEXT
  5
296
330
285
100
AcDbEntity
  8
0
 62
2
100
AcDbMText
 10
1680.0
 20
-2010.00000000032
 30
0.0
 40
20.0
 41
917.6339389950801
 46
60.00000000000113
 71
4
 72
5
  1
  Số lượng :
  7
Arial
  0
MTEXT
  5
297
330
285
100
AcDbEntity
  8
0
 62
2
100
AcDbMText
 10
1680.0
 20
-2070.00000000032
 30
0.0
 40
20.0
 41
917.6339389950801
 46
60.00000000000113
 71
4
 72
5
  1
  Loại tôn :
  7
Arial
  0
MTEXT
  5
298
330
285
100
AcDbEntity
  8
0
 62
2
100
AcDbMText
 10
2074.15528161102
 20
-2040.00000000032
 30
0.0
 40
20.0
 41
108.3105632220314
 46
120.0000000000011
 71
5
 72
5
  1
Thông\Ptin :
  7
Arial
  0
MTEXT
  5
299
330
285
100
AcDbEntity
  8
0
 62
2
100
AcDbMText
 10
2915.000000000422
 20
-2010.00000000032
 30
0.0
 40
20.0
 41
110.0000000000065
 46
60.00000000000113
 71
5
 72
5
  1
Tờ
  7
Arial
  0
LINE
  5
29A
330
285
100
AcDbEntity
  8
0
 62
7
100
AcDbLine
 10
2128.310563222025
 20
-2005.00000000032
 30
0.0
 11
2128.310563222025
 21
-2075.00000000032
 31
0.0
  0
MTEXT
  5
29B
330
285
100
AcDbEntity
  8
0
 62
2
100
AcDbMText
 10
1382.285678836575
 20
-2070.00000000032
 30
0.0
 40
20.0
 41
917.6339389950801
 46
60.00000000000113
 71
4
 72
5
  1
mm
  7
Arial
  0
MTEXT
  5
29C
330
285
100
AcDbEntity
  8
0
 62
2
100
AcDbMText
 10
1947.610064813329
 20
-2010.00000000032
 30
0.0
 40
20.0
 41
917.6339389950801
 46
60.00000000000113
 71
4
 72
5
  1
cái
  7
Arial
  0
MTEXT
  5
29D
330
285
100
AcDbEntity
  8
0
 62
2
100
AcDbMText
 10
1936.880410494836
 20
-2070.00000000032
 30
0.0
 40
20.0
 41
917.6339389950801
 46
60.00000000000113
 71
4
 72
5
  1
mm
  7
Arial
  0
ATTDEF
  5
29E
330
285
100
AcDbEntity
  8
0
 62
1
100
AcDbText
 10
2883.764212945627
 20
-2067.347800104843
 30
0.0
 40
25.0
  1
......
  7
Tahoma (Input Text)
 72
1
 11
2914.993225705868
 21
-2067.347800104843
 31
0.0
100
AcDbAttributeDefinition
  3
Số trang
  2
#11
 70
8
 71
1
 72
0
 11
2914.993225705868
 21
-2067.347800104843
 31
0.0
  0
ATTDEF
  5
29F
330
285
100
AcDbEntity
  8
0
 62
1
100
AcDbText
 10
2146.716977487464
 20
-2021.275211692002
 30
0.0
 40
25.0
  1
......
  7
Tahoma (Input Text)
100
AcDbAttributeDefinition
  3
Thông tin 1
  2
#09
 70
8
 71
1
 72
0
  0
ATTDEF
  5
2A0
330
285
100
AcDbEntity
  8
0
 62
1
100
AcDbText
 10
2146.716977487464
 20
-2081.275211692002
 30
0.0
 40
25.0
  1
......
  7
Tahoma (Input Text)
100
AcDbAttributeDefinition
  3
Thông tin 2
  2
#10
 70
8
 71
1
 72
0
  0
ATTDEF
  5
2A1
330
285
100
AcDbEntity
  8
0
 62
1
100
AcDbText
 10
1817.447765733334
 20
-2081.275211692002
 30
0.0
 40
25.0
  1
......
  7
Tahoma (Input Text)
100
AcDbAttributeDefinition
  3
Loại tôn
  2
#08
 70
8
 71
1
 72
0
  0
ATTDEF
  5
2A2
330
285
100
AcDbEntity
  8
0
 62
1
100
AcDbText
 10
1834.68151032555
 20
-2021.275211692002
 30
0.0
 40
25.0
  1
......
  7
Tahoma (Input Text)
100
AcDbAttributeDefinition
  3
Số lượng
  2
#07
 70
8
 71
1
 72
0
  0
ATTDEF
  5
2A3
330
285
100
AcDbEntity
  8
0
 62
1
100
AcDbText
 10
1065.330889143646
 20
-2081.275211692002
 30
0.0
 40
25.0
  1
......
  7
Tahoma (Input Text)
100
AcDbAttributeDefinition
  3
Kích thước
  2
#06
 70
8
 71
1
 72
0
  0
ATTDEF
  5
2A4
330
285
100
AcDbEntity
  8
0
 62
1
100
AcDbText
 10
1106.628177122154
 20
-2021.275211692002
 30
0.0
 40
25.0
  1
......
  7
Tahoma (Input Text)
100
AcDbAttributeDefinition
  3
Tên s.phẩm
  2
#05
 70
8
 71
1
 72
0
  0
ATTDEF
  5
2A5
330
285
100
AcDbEntity
  8
0
 62
1
100
AcDbText
 10
486.1050270054984
 20
-2081.275211692002
 30
0.0
 40
25.0
  1
......
  7
Tahoma (Input Text)
100
AcDbAttributeDefinition
  3
Giao hàng
  2
#04
 70
8
 71
1
 72
0
  0
ATTDEF
  5
2A6
330
285
100
AcDbEntity
  8
0
 62
1
100
AcDbText
 10
506.5707489467022
 20
-2019.301600489707
 30
0.0
 40
25.0
  1
......
  7
Tahoma (Input Text)
100
AcDbAttributeDefinition
  3
Khách hàng
  2
#03
 70
8
 71
1
 72
0
  0
ATTDEF
  5
2A7
330
285
100
AcDbEntity
  8
0
 62
1
100
AcDbText
 10
98.45672450316488
 20
-2081.275211692002
 30
0.0
 40
25.0
  1
......
  7
Tahoma (Input Text)
100
AcDbAttributeDefinition
  3
CNC
  2
#02
 70
8
 71
1
 72
0
  0
ATTDEF
  5
2A8
330
285
100
AcDbEntity
  8
0
 62
1
100
AcDbText
 10
137.0535078375105
 20
-2021.275211692002
 30
0.0
 40
25.0
  1
......
  7
Tahoma (Input Text)
100
AcDbAttributeDefinition
  3
Thiết kế
  2
#01
 70
8
 71
1
 72
0
  0
ENDBLK
  5
287
330
285
100
AcDbEntity
  8
0
100
AcDbBlockEnd
  0
BLOCK
  5
2AA
330
2A9
100
AcDbEntity
  8
0
100
AcDbBlockBegin
  2
f3daunguoc
 70
0
 10
0.0
 20
0.0
 30
0.0
  3
f3daunguoc
  1

  0
CIRCLE
  5
2AC
330
2A9
100
AcDbEntity
  8
CNC
 62
2
370
-3
100
AcDbCircle
 10
0.0
 20
0.0
 30
0.0
 40
1.5
  0
ENDBLK
  5
2AB
330
2A9
100
AcDbEntity
  8
0
100
AcDbBlockEnd
  0
BLOCK
  5
2AE
330
2AD
100
AcDbEntity
  8
0
100
AcDbBlockBegin
  2
ovan8.5x20
 70
0
 10
0.0
 20
0.0
 30
0.0
  3
ovan8.5x20
  1

  0
ARC
  5
2B0
330
2AD
100
AcDbEntity
  8
CNC
 62
2
370
-3
100
AcDbCircle
 10
-5.750000000007275
 20
0.0
 30
0.0
 40
4.25
100
AcDbArc
 50
90.0
 51
270.0
  0
ARC
  5
2B1
330
2AD
100
AcDbEntity
  8
CNC
 62
2
370
-3
100
AcDbCircle
 10
5.749999999992724
 20
0.0
 30
0.0
 40
4.25
100
AcDbArc
 50
270.0
 51
90.0
  0
LINE
  5
2B2
330
2AD
100
AcDbEntity
  8
CNC
 62
2
370
-3
100
AcDbLine
 10
5.749999999992724
 20
4.25
 30
0.0
 11
-5.750000000007275
 21
4.25
 31
0.0
  0
LINE
  5
2B3
330
2AD
100
AcDbEntity
  8
CNC
 62
2
370
-3
100
AcDbLine
 10
-5.750000000007275
 20
-4.25
 30
0.0
 11
5.749999999992724
 21
-4.25
 31
0.0
  0
ENDBLK
  5
2AF
330
2AD
100
AcDbEntity
  8
0
100
AcDbBlockEnd
  0
BLOCK
  5
37C
330
37B
100
AcDbEntity
  8
0
100
AcDbBlockBegin
  2
*D1
 70
1
 10
0.0
 20
0.0
 30
0.0
  3
*D1
  1

  0
LINE
  5
37E
330
37B
100
AcDbEntity
  8
DIM
 62
5
370
9
440
16777216
100
AcDbLine
 10
1591.0913445982296
 20
2930.3595095218516
 30
0.0
 11
1591.0913445982296
 21
3000.6373433566605
 31
0.0
  0
LINE
  5
37F
330
37B
100
AcDbEntity
  8
DIM
 62
5
370
9
440
16777216
100
AcDbLine
 10
1603.0913445982515
 20
2918.3595095218607
 30
0.0
 11
1603.0913445982515
 21
3000.6373433566605
 31
0.0
  0
LINE
  5
380
330
37B
100
AcDbEntity
  8
DIM
 62
5
370
9
440
16777216
100
AcDbLine
 10
1591.0913445982296
 20
2990.6373433566605
 30
0.0
 11
1583.0913445982442
 21
2990.6373433566605
 31
0.0
  0
LINE
  5
381
330
37B
100
AcDbEntity
  8
DIM
 62
5
370
9
440
16777216
100
AcDbLine
 10
1603.0913445982515
 20
2990.6373433566605
 30
0.0
 11
1672.2939366855717
 21
2990.6373433566605
 31
0.0
  0
LINE
  5
382
330
37B
100
AcDbEntity
  8
DIM
 62
5
370
9
440
16777216
100
AcDbLine
 10
1591.0913445982296
 20
2990.6373433566605
 30
0.0
 11
1603.0913445982515
 21
2990.6373433566605
 31
0.0
  0
LINE
  5
383
330
37B
100
AcDbEntity
  8
0
  6
ByBlock
 62
0
370
-2
100
AcDbLine
 10
1587.0913445982296
 20
2986.6373433566605
 30
0.0
 11
1595.0913445982296
 21
2994.6373433566605
 31
0.0
  0
LINE
  5
384
330
37B
100
AcDbEntity
  8
0
  6
ByBlock
 62
0
370
-2
100
AcDbLine
 10
1607.0913445982515
 20
2994.6373433566605
 30
0.0
 11
1599.0913445982515
 21
2986.6373433566605
 31
0.0
  0
MTEXT
  5
385
330
37B
100
AcDbEntity
  8
DIM
 62
3
440
16777216
100
AcDbMText
 10
1645.6926406419152
 20
3013.18850297467
 30
0.0
 40
25.0
 41
0.0
 46
0.0
 71
5
  1
12
  0
POINT
  5
386
330
37B
100
AcDbEntity
  8
Defpoints
 62
0
440
16777216
100
AcDbPoint
 10
1591.0913445982296
 20
2915.3595095218516
 30
0.0
  0
POINT
  5
387
330
37B
100
AcDbEntity
  8
Defpoints
 62
0
440
16777216
100
AcDbPoint
 10
1603.0913445982515
 20
2903.3595095218607
 30
0.0
  0
POINT
  5
388
330
37B
100
AcDbEntity
  8
Defpoints
 62
0
440
16777216
100
AcDbPoint
 10
1603.0913445982515
 20
2990.6373433566605
 30
0.0
  0
ENDBLK
  5
37D
330
37B
100
AcDbEntity
  8
0
100
AcDbBlockEnd
  0
BLOCK
  5
38A
330
389
100
AcDbEntity
  8
0
100
AcDbBlockBegin
  2
*D2
 70
1
 10
0.0
 20
0.0
 30
0.0
  3
*D2
  1

  0
LINE
  5
38C
330
389
100
AcDbEntity
  8
DIM
 62
5
370
9
440
16777216
100
AcDbLine
 10
1571.0913445982442
 20
2950.3595095218516
 30
0.0
 11
1571.0913445982442
 21
3045.7131795886507
 31
0.0
  0
LINE
  5
38D
330
389
100
AcDbEntity
  8
DIM
 62
5
370
9
440
16777216
100
AcDbLine
 10
1591.0913445982296
 20
2930.3595095218516
 30
0.0
 11
1591.0913445982296
 21
3045.7131795886507
 31
0.0
  0
LINE
  5
38E
330
389
100
AcDbEntity
  8
DIM
 62
5
370
9
440
16777216
100
AcDbLine
 10
1571.0913445982442
 20
3035.7131795886507
 30
0.0
 11
1591.0913445982296
 21
3035.7131795886507
 31
0.0
  0
LINE
  5
38F
330
389
100
AcDbEntity
  8
DIM
 62
5
370
9
440
16777216
100
AcDbLine
 10
1591.0913445982296
 20
3035.7131795886507
 30
0.0
 11
1655.244141324023
 21
3035.7131795886507
 31
0.0
  0
LINE
  5
390
330
389
100
AcDbEntity
  8
0
  6
ByBlock
 62
0
370
-2
100
AcDbLine
 10
1575.0913445982442
 20
3039.7131795886507
 30
0.0
 11
1567.0913445982442
 21
3031.7131795886507
 31
0.0
  0
LINE
  5
391
330
389
100
AcDbEntity
  8
0
  6
ByBlock
 62
0
370
-2
100
AcDbLine
 10
1587.0913445982296
 20
3031.7131795886507
 30
0.0
 11
1595.0913445982296
 21
3039.7131795886507
 31
0.0
  0
MTEXT
  5
392
330
389
100
AcDbEntity
  8
DIM
 62
3
440
16777216
100
AcDbMText
 10
1627.16774296113
 20
3058.477504281691
 30
0.0
 40
25.0
 41
0.0
 46
0.0
 71
5
  1
20
  0
POINT
  5
393
330
389
100
AcDbEntity
  8
Defpoints
 62
0
440
16777216
100
AcDbPoint
 10
1571.0913445982442
 20
2935.3595095218516
 30
0.0
  0
POINT
  5
394
330
389
100
AcDbEntity
  8
Defpoints
 62
0
440
16777216
100
AcDbPoint
 10
1591.0913445982296
 20
2915.3595095218516
 30
0.0
  0
POINT
  5
395
330
389
100
AcDbEntity
  8
Defpoints
 62
0
440
16777216
100
AcDbPoint
 10
1591.0913445982296
 20
3035.7131795886507
 30
0.0
  0
ENDBLK
  5
38B
330
389
100
AcDbEntity
  8
0
100
AcDbBlockEnd
  0
BLOCK
  5
397
330
396
100
AcDbEntity
  8
0
100
AcDbBlockBegin
  2
*D3
 70
1
 10
0.0
 20
0.0
 30
0.0
  3
*D3
  1

  0
LINE
  5
399
330
396
100
AcDbEntity
  8
DIM
 62
5
370
9
440
16777216
100
AcDbLine
 10
1571.0913445982442
 20
2950.3595095218516
 30
0.0
 11
1571.0913445982442
 21
3045.7131795886507
 31
0.0
  0
LINE
  5
39A
330
396
100
AcDbEntity
  8
DIM
 62
5
370
9
440
16777216
100
AcDbLine
 10
576.0913445982442
 20
2950.3595095218516
 30
0.0
 11
576.0913445982442
 21
3045.7131795886507
 31
0.0
  0
LINE
  5
39B
330
396
100
AcDbEntity
  8
DIM
 62
5
370
9
440
16777216
100
AcDbLine
 10
1571.0913445982442
 20
3035.7131795886507
 30
0.0
 11
576.0913445982442
 21
3035.7131795886507
 31
0.0
  0
LINE
  5
39C
330
396
100
AcDbEntity
  8
0
  6
ByBlock
 62
0
370
-2
100
AcDbLine
 10
1567.0913445982442
 20
3031.7131795886507
 30
0.0
 11
1575.0913445982442
 21
3039.7131795886507
 31
0.0
  0
LINE
  5
39D
330
396
100
AcDbEntity
  8
0
  6
ByBlock
 62
0
370
-2
100
AcDbLine
 10
580.0913445982442
 20
3039.7131795886507
 30
0.0
 11
572.0913445982442
 21
3031.7131795886507
 31
0.0
  0
MTEXT
  5
39E
330
396
100
AcDbEntity
  8
DIM
 62
3
440
16777216
100
AcDbMText
 10
1073.5913445982442
 20
3058.477504281691
 30
0.0
 40
25.0
 41
0.0
 46
0.0
 71
5
  1
995
  0
POINT
  5
39F
330
396
100
AcDbEntity
  8
Defpoints
 62
0
440
16777216
100
AcDbPoint
 10
1571.0913445982442
 20
2935.3595095218516
 30
0.0
  0
POINT
  5
3A0
330
396
100
AcDbEntity
  8
Defpoints
 62
0
440
16777216
100
AcDbPoint
 10
576.0913445982442
 20
2935.3595095218516
 30
0.0
  0
POINT
  5
3A1
330
396
100
AcDbEntity
  8
Defpoints
 62
0
440
16777216
100
AcDbPoint
 10
576.0913445982442
 20
3035.7131795886507
 30
0.0
  0
ENDBLK
  5
398
330
396
100
AcDbEntity
  8
0
100
AcDbBlockEnd
  0
BLOCK
  5
3A3
330
3A2
100
AcDbEntity
  8
0
100
AcDbBlockBegin
  2
*D4
 70
1
 10
0.0
 20
0.0
 30
0.0
  3
*D4
  1

  0
LINE
  5
3A5
330
3A2
100
AcDbEntity
  8
DIM
 62
5
370
9
440
16777216
100
AcDbLine
 10
573.0913445982442
 20
2947.3595095218516
 30
0.0
 11
408.6824890609132
 21
2947.3595095218516
 31
0.0
  0
LINE
  5
3A6
330
3A2
100
AcDbEntity
  8
DIM
 62
5
370
9
440
16777216
100
AcDbLine
 10
573.0913445982442
 20
1126.884963962475
 30
0.0
 11
408.6824890609132
 21
1126.884963962475
 31
0.0
  0
LINE
  5
3A7
330
3A2
100
AcDbEntity
  8
DIM
 62
5
370
9
440
16777216
100
AcDbLine
 10
418.6824890609132
 20
2947.3595095218516
 30
0.0
 11
418.6824890609132
 21
1126.884963962475
 31
0.0
  0
LINE
  5
3A8
330
3A2
100
AcDbEntity
  8
0
  6
ByBlock
 62
0
370
-2
100
AcDbLine
 10
422.6824890609132
 20
2943.3595095218516
 30
0.0
 11
414.6824890609132
 21
2951.3595095218516
 31
0.0
  0
LINE
  5
3A9
330
3A2
100
AcDbEntity
  8
0
  6
ByBlock
 62
0
370
-2
100
AcDbLine
 10
414.6824890609132
 20
1130.884963962475
 30
0.0
 11
422.6824890609132
 21
1122.884963962475
 31
0.0
  0
MTEXT
  5
3AA
330
3A2
100
AcDbEntity
  8
DIM
 62
3
440
16777216
100
AcDbMText
 10
395.9181643678603
 20
2037.1222367421542
 30
0.0
 40
25.0
 41
0.0
 46
0.0
 71
5
  1
1820
 11
1e-16
 21
1.0
 31
0.0
  0
POINT
  5
3AB
330
3A2
100
AcDbEntity
  8
Defpoints
 62
0
440
16777216
100
AcDbPoint
 10
588.0913445982442
 20
2947.3595095218516
 30
0.0
  0
POINT
  5
3AC
330
3A2
100
AcDbEntity
  8
Defpoints
 62
0
440
16777216
100
AcDbPoint
 10
588.0913445982442
 20
1126.884963962475
 30
0.0
  0
POINT
  5
3AD
330
3A2
100
AcDbEntity
  8
Defpoints
 62
0
440
16777216
100
AcDbPoint
 10
418.6824890609132
 20
1126.884963962475
 30
0.0
  0
ENDBLK
  5
3A4
330
3A2
100
AcDbEntity
  8
0
100
AcDbBlockEnd
  0
BLOCK
  5
3AF
330
3AE
100
AcDbEntity
  8
0
100
AcDbBlockBegin
  2
*D5
 70
1
 10
0.0
 20
0.0
 30
0.0
  3
*D5
  1

  0
LINE
  5
3B1
330
3AE
100
AcDbEntity
  8
DIM
 62
5
370
9
440
16777216
100
AcDbLine
 10
541.0913445982442
 20
2915.3595095218516
 30
0.0
 11
474.9866438384852
 21
2915.3595095218516
 31
0.0
  0
LINE
  5
3B2
330
3AE
100
AcDbEntity
  8
DIM
 62
5
370
9
440
16777216
100
AcDbLine
 10
541.0913445982442
 20
1158.884963962475
 30
0.0
 11
474.9866438384852
 21
1158.884963962475
 31
0.0
  0
LINE
  5
3B3
330
3AE
100
AcDbEntity
  8
DIM
 62
5
370
9
440
16777216
100
AcDbLine
 10
484.98664383849245
 20
2915.3595095218516
 30
0.0
 11
484.98664383849245
 21
1158.884963962475
 31
0.0
  0
LINE
  5
3B4
330
3AE
100
AcDbEntity
  8
0
  6
ByBlock
 62
0
370
-2
100
AcDbLine
 10
488.98664383849245
 20
2911.3595095218516
 30
0.0
 11
480.98664383849245
 21
2919.3595095218516
 31
0.0
  0
LINE
  5
3B5
330
3AE
100
AcDbEntity
  8
0
  6
ByBlock
 62
0
370
-2
100
AcDbLine
 10
480.98664383849245
 20
1162.884963962475
 30
0.0
 11
488.98664383849245
 21
1154.884963962475
 31
0.0
  0
MTEXT
  5
3B6
330
3AE
100
AcDbEntity
  8
DIM
 62
3
440
16777216
100
AcDbMText
 10
462.22231914543954
 20
2037.1222367421724
 30
0.0
 40
25.0
 41
0.0
 46
0.0
 71
5
  1
1756
 11
1e-16
 21
1.0
 31
0.0
  0
POINT
  5
3B7
330
3AE
100
AcDbEntity
  8
Defpoints
 62
0
440
16777216
100
AcDbPoint
 10
556.0913445982442
 20
2915.3595095218516
 30
0.0
  0
POINT
  5
3B8
330
3AE
100
AcDbEntity
  8
Defpoints
 62
0
440
16777216
100
AcDbPoint
 10
556.0913445982442
 20
1158.884963962475
 30
0.0
  0
POINT
  5
3B9
330
3AE
100
AcDbEntity
  8
Defpoints
 62
0
440
16777216
100
AcDbPoint
 10
484.98664383849245
 20
1158.884963962475
 30
0.0
  0
ENDBLK
  5
3B0
330
3AE
100
AcDbEntity
  8
0
100
AcDbBlockEnd
  0
BLOCK
  5
3BB
330
3BA
100
AcDbEntity
  8
0
100
AcDbBlockBegin
  2
*D6
 70
1
 10
0.0
 20
0.0
 30
0.0
  3
*D6
  1

  0
LINE
  5
3BD
330
3BA
100
AcDbEntity
  8
DIM
 62
5
370
9
440
16777216
100
AcDbLine
 10
544.0913445982442
 20
1155.8849639624896
 30
0.0
 11
544.0913445982442
 21
1037.2472555526329
 31
0.0
  0
LINE
  5
3BE
330
3BA
100
AcDbEntity
  8
DIM
 62
5
370
9
440
16777216
100
AcDbLine
 10
1603.0913445982442
 20
1155.8849639624896
 30
0.0
 11
1603.0913445982442
 21
1037.2472555526329
 31
0.0
  0
LINE
  5
3BF
330
3BA
100
AcDbEntity
  8
DIM
 62
5
370
9
440
16777216
100
AcDbLine
 10
544.0913445982442
 20
1047.2472555526329
 30
0.0
 11
1603.0913445982442
 21
1047.2472555526329
 31
0.0
  0
LINE
  5
3C0
330
3BA
100
AcDbEntity
  8
0
  6
ByBlock
 62
0
370
-2
100
AcDbLine
 10
548.0913445982442
 20
1051.2472555526329
 30
0.0
 11
540.0913445982442
 21
1043.2472555526329
 31
0.0
  0
LINE
  5
3C1
330
3BA
100
AcDbEntity
  8
0
  6
ByBlock
 62
0
370
-2
100
AcDbLine
 10
1599.0913445982442
 20
1043.2472555526329
 30
0.0
 11
1607.0913445982442
 21
1051.2472555526329
 31
0.0
  0
MTEXT
  5
3C2
330
3BA
100
AcDbEntity
  8
DIM
 62
3
440
16777216
100
AcDbMText
 10
1073.5913445982442
 20
1070.0115802456758
 30
0.0
 40
25.0
 41
0.0
 46
0.0
 71
5
  1
1059
  0
POINT
  5
3C3
330
3BA
100
AcDbEntity
  8
Defpoints
 62
0
440
16777216
100
AcDbPoint
 10
544.0913445982442
 20
1170.8849639624914
 30
0.0
  0
POINT
  5
3C4
330
3BA
100
AcDbEntity
  8
Defpoints
 62
0
440
16777216
100
AcDbPoint
 10
1603.0913445982442
 20
1170.8849639624914
 30
0.0
  0
POINT
  5
3C5
330
3BA
100
AcDbEntity
  8
Defpoints
 62
0
440
16777216
100
AcDbPoint
 10
1603.0913445982442
 20
1047.2472555526329
 30
0.0
  0
ENDBLK
  5
3BC
330
3BA
100
AcDbEntity
  8
0
100
AcDbBlockEnd
  0
BLOCK
  5
3C7
330
3C6
100
AcDbEntity
  8
0
100
AcDbBlockBegin
  2
*D7
 70
1
 10
0.0
 20
0.0
 30
0.0
  3
*D7
  1

  0
LINE
  5
3C9
330
3C6
100
AcDbEntity
  8
DIM
 62
5
370
9
440
16777216
100
AcDbLine
 10
2977.5825780498853
 20
2876.884963962475
 30
0.0
 11
2977.5825780498853
 21
2918.05292477303
 31
0.0
  0
LINE
  5
3CA
330
3C6
100
AcDbEntity
  8
DIM
 62
5
370
9
440
16777216
100
AcDbLine
 10
2987.5825780498635
 20
2866.884963962475
 30
0.0
 11
2987.5825780498635
 21
2918.05292477303
 31
0.0
  0
LINE
  5
3CB
330
3C6
100
AcDbEntity
  8
DIM
 62
5
370
9
440
16777216
100
AcDbLine
 10
2977.5825780498853
 20
2908.05292477303
 30
0.0
 11
2969.5825780498853
 21
2908.05292477303
 31
0.0
  0
LINE
  5
3CC
330
3C6
100
AcDbEntity
  8
DIM
 62
5
370
9
440
16777216
100
AcDbLine
 10
2987.5825780498635
 20
2908.05292477303
 30
0.0
 11
3056.955702197214
 21
2908.05292477303
 31
0.0
  0
LINE
  5
3CD
330
3C6
100
AcDbEntity
  8
DIM
 62
5
370
9
440
16777216
100
AcDbLine
 10
2977.5825780498853
 20
2908.05292477303
 30
0.0
 11
2987.5825780498635
 21
2908.05292477303
 31
0.0
  0
LINE
  5
3CE
330
3C6
100
AcDbEntity
  8
0
  6
ByBlock
 62
0
370
-2
100
AcDbLine
 10
2973.5825780498853
 20
2904.05292477303
 30
0.0
 11
2981.5825780498853
 21
2912.05292477303
 31
0.0
  0
LINE
  5
3CF
330
3C6
100
AcDbEntity
  8
0
  6
ByBlock
 62
0
370
-2
100
AcDbLine
 10
2991.5825780498635
 20
2912.05292477303
 30
0.0
 11
2983.5825780498635
 21
2904.05292477303
 31
0.0
  0
MTEXT
  5
3D0
330
3C6
100
AcDbEntity
  8
DIM
 62
3
440
16777216
100
AcDbMText
 10
3030.2691401235425
 20
2930.8172494660703
 30
0.0
 40
25.0
 41
0.0
 46
0.0
 71
5
  1
10
  0
POINT
  5
3D1
330
3C6
100
AcDbEntity
  8
Defpoints
 62
0
440
16777216
100
AcDbPoint
 10
2977.5825780498853
 20
2861.884963962477
 30
0.0
  0
POINT
  5
3D2
330
3C6
100
AcDbEntity
  8
Defpoints
 62
0
440
16777216
100
AcDbPoint
 10
2987.5825780498635
 20
2851.884963962475
 30
0.0
  0
POINT
  5
3D3
330
3C6
100
AcDbEntity
  8
Defpoints
 62
0
440
16777216
100
AcDbPoint
 10
2987.5825780498635
 20
2908.05292477303
 30
0.0
  0
ENDBLK
  5
3C8
330
3C6
100
AcDbEntity
  8
0
100
AcDbBlockEnd
  0
BLOCK
  5
3D5
330
3D4
100
AcDbEntity
  8
0
100
AcDbBlockBegin
  2
*D8
 70
1
 10
0.0
 20
0.0
 30
0.0
  3
*D8
  1

  0
LINE
  5
3D7
330
3D4
100
AcDbEntity
  8
DIM
 62
5
370
9
440
16777216
100
AcDbLine
 10
2961.5825780498853
 20
2892.884963962475
 30
0.0
 11
2961.5825780498853
 21
2962.7977639846013
 31
0.0
  0
LINE
  5
3D8
330
3D4
100
AcDbEntity
  8
DIM
 62
5
370
9
440
16777216
100
AcDbLine
 10
2977.5825780498853
 20
2876.884963962475
 30
0.0
 11
2977.5825780498853
 21
2962.7977639846013
 31
0.0
  0
LINE
  5
3D9
330
3D4
100
AcDbEntity
  8
DIM
 62
5
370
9
440
16777216
100
AcDbLine
 10
2961.5825780498853
 20
2952.7977639846013
 30
0.0
 11
2953.5825780498853
 21
2952.7977639846013
 31
0.0
  0
LINE
  5
3DA
330
3D4
100
AcDbEntity
  8
DIM
 62
5
370
9
440
16777216
100
AcDbLine
 10
2977.5825780498853
 20
2952.7977639846013
 30
0.0
 11
3047.023915021229
 21
2952.7977639846013
 31
0.0
  0
LINE
  5
3DB
330
3D4
100
AcDbEntity
  8
DIM
 62
5
370
9
440
16777216
100
AcDbLine
 10
2961.5825780498853
 20
2952.7977639846013
 30
0.0
 11
2977.5825780498853
 21
2952.7977639846013
 31
0.0
  0
LINE
  5
3DC
330
3D4
100
AcDbEntity
  8
0
  6
ByBlock
 62
0
370
-2
100
AcDbLine
 10
2957.5825780498853
 20
2948.7977639846013
 30
0.0
 11
2965.5825780498853
 21
2956.7977639846013
 31
0.0
  0
LINE
  5
3DD
330
3D4
100
AcDbEntity
  8
0
  6
ByBlock
 62
0
370
-2
100
AcDbLine
 10
2981.5825780498853
 20
2956.7977639846013
 30
0.0
 11
2973.5825780498853
 21
2948.7977639846013
 31
0.0
  0
MTEXT
  5
3DE
330
3D4
100
AcDbEntity
  8
DIM
 62
3
440
16777216
100
AcDbMText
 10
3020.30324653555
 20
2975.5620886776505
 30
0.0
 40
25.0
 41
0.0
 46
0.0
 71
5
  1
16
  0
POINT
  5
3DF
330
3D4
100
AcDbEntity
  8
Defpoints
 62
0
440
16777216
100
AcDbPoint
 10
2961.5825780498853
 20
2877.884963962475
 30
0.0
  0
POINT
  5
3E0
330
3D4
100
AcDbEntity
  8
Defpoints
 62
0
440
16777216
100
AcDbPoint
 10
2977.5825780498853
 20
2861.884963962477
 30
0.0
  0
POINT
  5
3E1
330
3D4
100
AcDbEntity
  8
Defpoints
 62
0
440
16777216
100
AcDbPoint
 10
2977.5825780498853
 20
2952.7977639846013
 30
0.0
  0
ENDBLK
  5
3D6
330
3D4
100
AcDbEntity
  8
0
100
AcDbBlockEnd
  0
BLOCK
  5
3E3
330
3E2
100
AcDbEntity
  8
0
100
AcDbBlockBegin
  2
*D9
 70
1
 10
0.0
 20
0.0
 30
0.0
  3
*D9
  1

  0
LINE
  5
3E5
330
3E2
100
AcDbEntity
  8
DIM
 62
5
370
9
440
16777216
100
AcDbLine
 10
2961.5825780498853
 20
2892.884963962475
 30
0.0
 11
2961.5825780498853
 21
2962.7977639846013
 31
0.0
  0
LINE
  5
3E6
330
3E2
100
AcDbEntity
  8
DIM
 62
5
370
9
440
16777216
100
AcDbLine
 10
2075.5825780498853
 20
2892.884963962475
 30
0.0
 11
2075.5825780498853
 21
2962.7977639846013
 31
0.0
  0
LINE
  5
3E7
330
3E2
100
AcDbEntity
  8
DIM
 62
5
370
9
440
16777216
100
AcDbLine
 10
2961.5825780498853
 20
2952.7977639846013
 30
0.0
 11
2075.5825780498853
 21
2952.7977639846013
 31
0.0
  0
LINE
  5
3E8
330
3E2
100
AcDbEntity
  8
0
  6
ByBlock
 62
0
370
-2
100
AcDbLine
 10
2957.5825780498853
 20
2948.7977639846013
 30
0.0
 11
2965.5825780498853
 21
2956.7977639846013
 31
0.0
  0
LINE
  5
3E9
330
3E2
100
AcDbEntity
  8
0
  6
ByBlock
 62
0
370
-2
100
AcDbLine
 10
2079.5825780498853
 20
2956.7977639846013
 30
0.0
 11
2071.5825780498853
 21
2948.7977639846013
 31
0.0
  0
MTEXT
  5
3EA
330
3E2
100
AcDbEntity
  8
DIM
 62
3
440
16777216
100
AcDbMText
 10
2518.5825780498853
 20
2975.5620886776505
 30
0.0
 40
25.0
 41
0.0
 46
0.0
 71
5
  1
886
  0
POINT
  5
3EB
330
3E2
100
AcDbEntity
  8
Defpoints
 62
0
440
16777216
100
AcDbPoint
 10
2961.5825780498853
 20
2877.884963962475
 30
0.0
  0
POINT
  5
3EC
330
3E2
100
AcDbEntity
  8
Defpoints
 62
0
440
16777216
100
AcDbPoint
 10
2075.5825780498853
 20
2877.884963962475
 30
0.0
  0
POINT
  5
3ED
330
3E2
100
AcDbEntity
  8
Defpoints
 62
0
440
16777216
100
AcDbPoint
 10
2075.5825780498853
 20
2952.7977639846013
 30
0.0
  0
ENDBLK
  5
3E4
330
3E2
100
AcDbEntity
  8
0
100
AcDbBlockEnd
  0
BLOCK
  5
3EF
330
3EE
100
AcDbEntity
  8
0
100
AcDbBlockBegin
  2
*D10
 70
1
 10
0.0
 20
0.0
 30
0.0
  3
*D10
  1

  0
LINE
  5
3F1
330
3EE
100
AcDbEntity
  8
DIM
 62
5
370
9
440
16777216
100
AcDbLine
 10
2070.5825780498853
 20
2887.884963962475
 30
0.0
 11
1902.509406797144
 21
2887.884963962475
 31
0.0
  0
LINE
  5
3F2
330
3EE
100
AcDbEntity
  8
DIM
 62
5
370
9
440
16777216
100
AcDbLine
 10
2070.5825780499
 20
1187.884963962475
 30
0.0
 11
1902.509406797144
 21
1187.884963962475
 31
0.0
  0
LINE
  5
3F3
330
3EE
100
AcDbEntity
  8
DIM
 62
5
370
9
440
16777216
100
AcDbLine
 10
1912.5094067971513
 20
2887.884963962475
 30
0.0
 11
1912.5094067971513
 21
1187.884963962475
 31
0.0
  0
LINE
  5
3F4
330
3EE
100
AcDbEntity
  8
0
  6
ByBlock
 62
0
370
-2
100
AcDbLine
 10
1916.5094067971513
 20
2883.884963962475
 30
0.0
 11
1908.5094067971513
 21
2891.884963962475
 31
0.0
  0
LINE
  5
3F5
330
3EE
100
AcDbEntity
  8
0
  6
ByBlock
 62
0
370
-2
100
AcDbLine
 10
1908.5094067971513
 20
1191.884963962475
 30
0.0
 11
1916.5094067971513
 21
1183.884963962475
 31
0.0
  0
MTEXT
  5
3F6
330
3EE
100
AcDbEntity
  8
DIM
 62
3
440
16777216
100
AcDbMText
 10
1889.7450821041057
 20
2037.8849639624823
 30
0.0
 40
25.0
 41
0.0
 46
0.0
 71
5
  1
1700
 11
1e-16
 21
1.0
 31
0.0
  0
POINT
  5
3F7
330
3EE
100
AcDbEntity
  8
Defpoints
 62
0
440
16777216
100
AcDbPoint
 10
2085.5825780498853
 20
2887.884963962475
 30
0.0
  0
POINT
  5
3F8
330
3EE
100
AcDbEntity
  8
Defpoints
 62
0
440
16777216
100
AcDbPoint
 10
2085.5825780499144
 20
1187.884963962475
 30
0.0
  0
POINT
  5
3F9
330
3EE
100
AcDbEntity
  8
Defpoints
 62
0
440
16777216
100
AcDbPoint
 10
1912.5094067971513
 20
1187.884963962475
 30
0.0
  0
ENDBLK
  5
3F0
330
3EE
100
AcDbEntity
  8
0
100
AcDbBlockEnd
  0
BLOCK
  5
3FB
330
3FA
100
AcDbEntity
  8
0
100
AcDbBlockBegin
  2
*D11
 70
1
 10
0.0
 20
0.0
 30
0.0
  3
*D11
  1

  0
LINE
  5
3FD
330
3FA
100
AcDbEntity
  8
DIM
 62
5
370
9
440
16777216
100
AcDbLine
 10
2044.5825780498853
 20
1213.884963962475
 30
0.0
 11
1994.6602867900801
 21
1213.884963962475
 31
0.0
  0
LINE
  5
3FE
330
3FA
100
AcDbEntity
  8
DIM
 62
5
370
9
440
16777216
100
AcDbLine
 10
2044.5825780498853
 20
2861.884963962477
 30
0.0
 11
1994.6602867900801
 21
2861.884963962477
 31
0.0
  0
LINE
  5
3FF
330
3FA
100
AcDbEntity
  8
DIM
 62
5
370
9
440
16777216
100
AcDbLine
 10
2004.6602867900729
 20
1213.884963962475
 30
0.0
 11
2004.6602867900729
 21
2861.884963962477
 31
0.0
  0
LINE
  5
400
330
3FA
100
AcDbEntity
  8
0
  6
ByBlock
 62
0
370
-2
100
AcDbLine
 10
2000.6602867900729
 20
1217.884963962475
 30
0.0
 11
2008.6602867900729
 21
1209.884963962475
 31
0.0
  0
LINE
  5
401
330
3FA
100
AcDbEntity
  8
0
  6
ByBlock
 62
0
370
-2
100
AcDbLine
 10
2008.6602867900729
 20
2857.884963962477
 30
0.0
 11
2000.6602867900729
 21
2865.884963962477
 31
0.0
  0
MTEXT
  5
402
330
3FA
100
AcDbEntity
  8
DIM
 62
3
440
16777216
100
AcDbMText
 10
1981.8959620970345
 20
2037.8849639624823
 30
0.0
 40
25.0
 41
0.0
 46
0.0
 71
5
  1
1648
 11
1e-16
 21
1.0
 31
0.0
  0
POINT
  5
403
330
3FA
100
AcDbEntity
  8
Defpoints
 62
0
440
16777216
100
AcDbPoint
 10
2059.5825780498853
 20
1213.884963962475
 30
0.0
  0
POINT
  5
404
330
3FA
100
AcDbEntity
  8
Defpoints
 62
0
440
16777216
100
AcDbPoint
 10
2059.5825780498853
 20
2861.884963962477
 30
0.0
  0
POINT
  5
405
330
3FA
100
AcDbEntity
  8
Defpoints
 62
0
440
16777216
100
AcDbPoint
 10
2004.6602867900729
 20
2861.884963962477
 30
0.0
  0
ENDBLK
  5
3FC
330
3FA
100
AcDbEntity
  8
0
100
AcDbBlockEnd
  0
BLOCK
  5
407
330
406
100
AcDbEntity
  8
0
100
AcDbBlockBegin
  2
*D12
 70
1
 10
0.0
 20
0.0
 30
0.0
  3
*D12
  1

  0
LINE
  5
409
330
406
100
AcDbEntity
  8
DIM
 62
5
370
9
440
16777216
100
AcDbLine
 10
2049.582578049871
 20
1208.8849639624768
 30
0.0
 11
2049.582578049871
 21
1121.7596214477526
 31
0.0
  0
LINE
  5
40A
330
406
100
AcDbEntity
  8
DIM
 62
5
370
9
440
16777216
100
AcDbLine
 10
2987.5825780498635
 20
1208.8849639624605
 30
0.0
 11
2987.5825780498635
 21
1121.7596214477526
 31
0.0
  0
LINE
  5
40B
330
406
100
AcDbEntity
  8
DIM
 62
5
370
9
440
16777216
100
AcDbLine
 10
2049.582578049871
 20
1131.7596214477526
 30
0.0
 11
2987.5825780498635
 21
1131.7596214477526
 31
0.0
  0
LINE
  5
40C
330
406
100
AcDbEntity
  8
0
  6
ByBlock
 62
0
370
-2
100
AcDbLine
 10
2053.582578049871
 20
1135.7596214477526
 30
0.0
 11
2045.5825780498708
 21
1127.7596214477526
 31
0.0
  0
LINE
  5
40D
330
406
100
AcDbEntity
  8
0
  6
ByBlock
 62
0
370
-2
100
AcDbLine
 10
2983.5825780498635
 20
1127.7596214477526
 30
0.0
 11
2991.5825780498635
 21
1135.7596214477526
 31
0.0
  0
MTEXT
  5
40E
330
406
100
AcDbEntity
  8
DIM
 62
3
440
16777216
100
AcDbMText
 10
2518.5825780498635
 20
1154.5324727437965
 30
0.0
 40
25.0
 41
0.0
 46
0.0
 71
5
  1
938
  0
POINT
  5
40F
330
406
100
AcDbEntity
  8
Defpoints
 62
0
440
16777216
100
AcDbPoint
 10
2049.582578049871
 20
1223.884963962475
 30
0.0
  0
POINT
  5
410
330
406
100
AcDbEntity
  8
Defpoints
 62
0
440
16777216
100
AcDbPoint
 10
2987.5825780498635
 20
1223.8849639624605
 30
0.0
  0
POINT
  5
411
330
406
100
AcDbEntity
  8
Defpoints
 62
0
440
16777216
100
AcDbPoint
 10
2987.5825780498635
 20
1131.7596214477526
 30
0.0
  0
ENDBLK
  5
408
330
406
100
AcDbEntity
  8
0
100
AcDbBlockEnd
  0
BLOCK
  5
413
330
412
100
AcDbEntity
  8
0
100
AcDbBlockBegin
  2
*D13
 70
1
 10
0.0
 20
0.0
 30
0.0
  3
*D13
  1

  0
LINE
  5
415
330
412
100
AcDbEntity
  8
DIM
 62
5
370
9
440
16777216
100
AcDbLine
 10
1336.2948410696335
 20
907.8189532655533
 30
0.0
 11
1436.1468014334823
 21
907.8189532655533
 31
0.0
  0
LINE
  5
416
330
412
100
AcDbEntity
  8
DIM
 62
5
370
9
440
16777216
100
AcDbLine
 10
1336.2948410696335
 20
707.8189532655524
 30
0.0
 11
1436.1468014334823
 21
707.8189532655524
 31
0.0
  0
LINE
  5
417
330
412
100
AcDbEntity
  8
DIM
 62
5
370
9
440
16777216
100
AcDbLine
 10
1431.146801433475
 20
907.8189532655533
 30
0.0
 11
1431.146801433475
 21
707.8189532655524
 31
0.0
  0
LINE
  5
418
330
412
100
AcDbEntity
  8
0
  6
ByBlock
 62
0
370
-2
100
AcDbLine
 10
1433.646801433475
 20
905.3189532655533
 30
0.0
 11
1428.646801433475
 21
910.3189532655533
 31
0.0
  0
LINE
  5
419
330
412
100
AcDbEntity
  8
0
  6
ByBlock
 62
0
370
-2
100
AcDbLine
 10
1428.646801433475
 20
710.3189532655524
 30
0.0
 11
1433.646801433475
 21
705.3189532655524
 31
0.0
  0
MTEXT
  5
41A
330
412
100
AcDbEntity
  8
DIM
 62
3
440
16777216
100
AcDbMText
 10
1418.4882066176506
 20
807.8189532655588
 30
0.0
 40
15.0
 41
0.0
 46
0.0
 71
5
  1
200
 11
1e-16
 21
1.0
 31
0.0
  0
POINT
  5
41B
330
412
100
AcDbEntity
  8
Defpoints
 62
0
440
16777216
100
AcDbPoint
 10
1328.2948410696335
 20
907.8189532655533
 30
0.0
  0
POINT
  5
41C
330
412
100
AcDbEntity
  8
Defpoints
 62
0
440
16777216
100
AcDbPoint
 10
1328.2948410696335
 20
707.8189532655524
 30
0.0
  0
POINT
  5
41D
330
412
100
AcDbEntity
  8
Defpoints
 62
0
440
16777216
100
AcDbPoint
 10
1431.146801433475
 20
707.8189532655524
 30
0.0
  0
ENDBLK
  5
414
330
412
100
AcDbEntity
  8
0
100
AcDbBlockEnd
  0
BLOCK
  5
41F
330
41E
100
AcDbEntity
  8
0
100
AcDbBlockBegin
  2
*D14
 70
1
 10
0.0
 20
0.0
 30
0.0
  3
*D14
  1

  0
LINE
  5
421
330
41E
100
AcDbEntity
  8
DIM
 62
5
370
9
440
16777216
100
AcDbLine
 10
808.2948410696408
 20
749.8189532655515
 30
0.0
 11
808.2948410696408
 21
666.3855340303417
 31
0.0
  0
LINE
  5
422
330
41E
100
AcDbEntity
  8
DIM
 62
5
370
9
440
16777216
100
AcDbLine
 10
1378.2948410696335
 20
749.8189532655515
 30
0.0
 11
1378.2948410696335
 21
666.3855340303417
 31
0.0
  0
LINE
  5
423
330
41E
100
AcDbEntity
  8
DIM
 62
5
370
9
440
16777216
100
AcDbLine
 10
808.2948410696408
 20
671.3855340303417
 30
0.0
 11
1378.2948410696335
 21
671.3855340303417
 31
0.0
  0
LINE
  5
424
330
41E
100
AcDbEntity
  8
0
  6
ByBlock
 62
0
370
-2
100
AcDbLine
 10
810.7948410696408
 20
673.8855340303417
 30
0.0
 11
805.7948410696408
 21
668.8855340303417
 31
0.0
  0
LINE
  5
425
330
41E
100
AcDbEntity
  8
0
  6
ByBlock
 62
0
370
-2
100
AcDbLine
 10
1375.7948410696335
 20
668.8855340303417
 30
0.0
 11
1380.7948410696335
 21
673.8855340303417
 31
0.0
  0
MTEXT
  5
426
330
41E
100
AcDbEntity
  8
DIM
 62
3
440
16777216
100
AcDbMText
 10
1093.2948410696408
 20
684.044128846168
 30
0.0
 40
15.0
 41
0.0
 46
0.0
 71
5
  1
570
  0
POINT
  5
427
330
41E
100
AcDbEntity
  8
Defpoints
 62
0
440
16777216
100
AcDbPoint
 10
808.2948410696408
 20
757.8189532655524
 30
0.0
  0
POINT
  5
428
330
41E
100
AcDbEntity
  8
Defpoints
 62
0
440
16777216
100
AcDbPoint
 10
1378.2948410696335
 20
757.8189532655524
 30
0.0
  0
POINT
  5
429
330
41E
100
AcDbEntity
  8
Defpoints
 62
0
440
16777216
100
AcDbPoint
 10
1378.2948410696335
 20
671.3855340303417
 30
0.0
  0
ENDBLK
  5
420
330
41E
100
AcDbEntity
  8
0
100
AcDbBlockEnd
  0
BLOCK
  5
42B
330
42A
100
AcDbEntity
  8
0
100
AcDbBlockBegin
  2
*D15
 70
1
 10
0.0
 20
0.0
 30
0.0
  3
*D15
  1

  0
LINE
  5
42D
330
42A
100
AcDbEntity
  8
DIM
 62
5
370
9
440
16777216
100
AcDbLine
 10
800.2948410696408
 20
857.8189532655524
 30
0.0
 11
758.3581781938337
 21
857.8189532655524
 31
0.0
  0
LINE
  5
42E
330
42A
100
AcDbEntity
  8
DIM
 62
5
370
9
440
16777216
100
AcDbLine
 10
800.2948410696408
 20
757.8189532655524
 30
0.0
 11
758.3581781938337
 21
757.8189532655524
 31
0.0
  0
LINE
  5
42F
330
42A
100
AcDbEntity
  8
DIM
 62
5
370
9
440
16777216
100
AcDbLine
 10
763.358178193841
 20
857.8189532655524
 30
0.0
 11
763.358178193841
 21
757.8189532655524
 31
0.0
  0
LINE
  5
430
330
42A
100
AcDbEntity
  8
0
  6
ByBlock
 62
0
370
-2
100
AcDbLine
 10
765.858178193841
 20
855.3189532655524
 30
0.0
 11
760.858178193841
 21
860.3189532655524
 31
0.0
  0
LINE
  5
431
330
42A
100
AcDbEntity
  8
0
  6
ByBlock
 62
0
370
-2
100
AcDbLine
 10
760.858178193841
 20
760.3189532655524
 30
0.0
 11
765.858178193841
 21
755.3189532655524
 31
0.0
  0
MTEXT
  5
432
330
42A
100
AcDbEntity
  8
DIM
 62
3
440
16777216
100
AcDbMText
 10
750.6995833780093
 20
807.8189532655588
 30
0.0
 40
15.0
 41
0.0
 46
0.0
 71
5
  1
100
 11
1e-16
 21
1.0
 31
0.0
  0
POINT
  5
433
330
42A
100
AcDbEntity
  8
Defpoints
 62
0
440
16777216
100
AcDbPoint
 10
808.2948410696408
 20
857.8189532655524
 30
0.0
  0
POINT
  5
434
330
42A
100
AcDbEntity
  8
Defpoints
 62
0
440
16777216
100
AcDbPoint
 10
808.2948410696408
 20
757.8189532655524
 30
0.0
  0
POINT
  5
435
330
42A
100
AcDbEntity
  8
Defpoints
 62
0
440
16777216
100
AcDbPoint
 10
763.358178193841
 20
757.8189532655524
 30
0.0
  0
ENDBLK
  5
42C
330
42A
100
AcDbEntity
  8
0
100
AcDbBlockEnd
  0
BLOCK
  5
437
330
436
100
AcDbEntity
  8
0
100
AcDbBlockBegin
  2
*D16
 70
1
 10
0.0
 20
0.0
 30
0.0
  3
*D16
  1

  0
LINE
  5
439
330
436
100
AcDbEntity
  8
DIM
 62
5
370
9
440
16777216
100
AcDbLine
 10
800.2948410696408
 20
857.8189532655524
 30
0.0
 11
758.3581781938119
 21
857.8189532655524
 31
0.0
  0
LINE
  5
43A
330
436
100
AcDbEntity
  8
DIM
 62
5
370
9
440
16777216
100
AcDbLine
 10
850.2948410696408
 20
907.8189532655533
 30
0.0
 11
758.3581781938119
 21
907.8189532655533
 31
0.0
  0
LINE
  5
43B
330
436
100
AcDbEntity
  8
DIM
 62
5
370
9
440
16777216
100
AcDbLine
 10
763.3581781938046
 20
857.8189532655524
 30
0.0
 11
763.3581781938046
 21
907.8189532655533
 31
0.0
  0
LINE
  5
43C
330
436
100
AcDbEntity
  8
0
  6
ByBlock
 62
0
370
-2
100
AcDbLine
 10
760.8581781938046
 20
860.3189532655524
 30
0.0
 11
765.8581781938046
 21
855.3189532655524
 31
0.0
  0
LINE
  5
43D
330
436
100
AcDbEntity
  8
0
  6
ByBlock
 62
0
370
-2
100
AcDbLine
 10
765.8581781938046
 20
905.3189532655533
 30
0.0
 11
760.8581781938046
 21
910.3189532655533
 31
0.0
  0
MTEXT
  5
43E
330
436
100
AcDbEntity
  8
DIM
 62
3
440
16777216
100
AcDbMText
 10
750.6995833779802
 20
882.8189532655588
 30
0.0
 40
15.0
 41
0.0
 46
0.0
 71
5
  1
50
 11
1e-16
 21
1.0
 31
0.0
  0
POINT
  5
43F
330
436
100
AcDbEntity
  8
Defpoints
 62
0
440
16777216
100
AcDbPoint
 10
808.2948410696408
 20
857.8189532655524
 30
0.0
  0
POINT
  5
440
330
436
100
AcDbEntity
  8
Defpoints
 62
0
440
16777216
100
AcDbPoint
 10
858.2948410696408
 20
907.8189532655533
 30
0.0
  0
POINT
  5
441
330
436
100
AcDbEntity
  8
Defpoints
 62
0
440
16777216
100
AcDbPoint
 10
763.3581781938046
 20
907.8189532655533
 30
0.0
  0
ENDBLK
  5
438
330
436
100
AcDbEntity
  8
0
100
AcDbBlockEnd
  0
BLOCK
  5
443
330
442
100
AcDbEntity
  8
0
100
AcDbBlockBegin
  2
*D17
 70
1
 10
0.0
 20
0.0
 30
0.0
  3
*D17
  1

  0
LINE
  5
445
330
442
100
AcDbEntity
  8
DIM
 62
5
370
9
440
16777216
100
AcDbLine
 10
800.2948410696408
 20
757.8189532655524
 30
0.0
 11
758.3581781938119
 21
757.8189532655524
 31
0.0
  0
LINE
  5
446
330
442
100
AcDbEntity
  8
DIM
 62
5
370
9
440
16777216
100
AcDbLine
 10
850.2948410696408
 20
707.8189532655524
 30
0.0
 11
758.3581781938119
 21
707.8189532655524
 31
0.0
  0
LINE
  5
447
330
442
100
AcDbEntity
  8
DIM
 62
5
370
9
440
16777216
100
AcDbLine
 10
763.3581781938046
 20
757.8189532655524
 30
0.0
 11
763.3581781938046
 21
707.8189532655524
 31
0.0
  0
LINE
  5
448
330
442
100
AcDbEntity
  8
0
  6
ByBlock
 62
0
370
-2
100
AcDbLine
 10
765.8581781938046
 20
755.3189532655524
 30
0.0
 11
760.8581781938046
 21
760.3189532655524
 31
0.0
  0
LINE
  5
449
330
442
100
AcDbEntity
  8
0
  6
ByBlock
 62
0
370
-2
100
AcDbLine
 10
760.8581781938046
 20
710.3189532655524
 30
0.0
 11
765.8581781938046
 21
705.3189532655524
 31
0.0
  0
MTEXT
  5
44A
330
442
100
AcDbEntity
  8
DIM
 62
3
440
16777216
100
AcDbMText
 10
750.6995833779802
 20
732.8189532655588
 30
0.0
 40
15.0
 41
0.0
 46
0.0
 71
5
  1
50
 11
1e-16
 21
1.0
 31
0.0
  0
POINT
  5
44B
330
442
100
AcDbEntity
  8
Defpoints
 62
0
440
16777216
100
AcDbPoint
 10
808.2948410696408
 20
757.8189532655524
 30
0.0
  0
POINT
  5
44C
330
442
100
AcDbEntity
  8
Defpoints
 62
0
440
16777216
100
AcDbPoint
 10
858.2948410696408
 20
707.8189532655524
 30
0.0
  0
POINT
  5
44D
330
442
100
AcDbEntity
  8
Defpoints
 62
0
440
16777216
100
AcDbPoint
 10
763.3581781938046
 20
707.8189532655524
 30
0.0
  0
ENDBLK
  5
444
330
442
100
AcDbEntity
  8
0
100
AcDbBlockEnd
  0
BLOCK
  5
44F
330
44E
100
AcDbEntity
  8
0
100
AcDbBlockBegin
  2
*D18
 70
1
 10
0.0
 20
0.0
 30
0.0
  3
*D18
  1

  0
LINE
  5
451
330
44E
100
AcDbEntity
  8
DIM
 62
5
370
9
440
16777216
100
AcDbLine
 10
1599.7948410696335
 20
550.3059314967686
 30
0.0
 11
1699.6468014334605
 21
550.3059314967686
 31
0.0
  0
LINE
  5
452
330
44E
100
AcDbEntity
  8
DIM
 62
5
370
9
440
16777216
100
AcDbLine
 10
1599.7948410696335
 20
350.3059314967686
 30
0.0
 11
1699.6468014334605
 21
350.3059314967686
 31
0.0
  0
LINE
  5
453
330
44E
100
AcDbEntity
  8
DIM
 62
5
370
9
440
16777216
100
AcDbLine
 10
1694.6468014334605
 20
550.3059314967686
 30
0.0
 11
1694.6468014334605
 21
350.3059314967686
 31
0.0
  0
LINE
  5
454
330
44E
100
AcDbEntity
  8
0
  6
ByBlock
 62
0
370
-2
100
AcDbLine
 10
1697.1468014334605
 20
547.8059314967686
 30
0.0
 11
1692.1468014334605
 21
552.8059314967686
 31
0.0
  0
LINE
  5
455
330
44E
100
AcDbEntity
  8
0
  6
ByBlock
 62
0
370
-2
100
AcDbLine
 10
1692.1468014334605
 20
352.8059314967686
 30
0.0
 11
1697.1468014334605
 21
347.8059314967686
 31
0.0
  0
MTEXT
  5
456
330
44E
100
AcDbEntity
  8
DIM
 62
3
440
16777216
100
AcDbMText
 10
1681.9882066176433
 20
450.30593149677406
 30
0.0
 40
15.0
 41
0.0
 46
0.0
 71
5
  1
200
 11
1e-16
 21
1.0
 31
0.0
  0
POINT
  5
457
330
44E
100
AcDbEntity
  8
Defpoints
 62
0
440
16777216
100
AcDbPoint
 10
1591.7948410696335
 20
550.3059314967686
 30
0.0
  0
POINT
  5
458
330
44E
100
AcDbEntity
  8
Defpoints
 62
0
440
16777216
100
AcDbPoint
 10
1591.7948410696335
 20
350.3059314967686
 30
0.0
  0
POINT
  5
459
330
44E
100
AcDbEntity
  8
Defpoints
 62
0
440
16777216
100
AcDbPoint
 10
1694.6468014334605
 20
350.3059314967686
 30
0.0
  0
ENDBLK
  5
450
330
44E
100
AcDbEntity
  8
0
100
AcDbBlockEnd
  0
BLOCK
  5
45B
330
45A
100
AcDbEntity
  8
0
100
AcDbBlockBegin
  2
*D19
 70
1
 10
0.0
 20
0.0
 30
0.0
  3
*D19
  1

  0
LINE
  5
45D
330
45A
100
AcDbEntity
  8
DIM
 62
5
370
9
440
16777216
100
AcDbLine
 10
645.7948410696335
 20
392.3059314967686
 30
0.0
 11
645.7948410696335
 21
308.8725122615433
 31
0.0
  0
LINE
  5
45E
330
45A
100
AcDbEntity
  8
DIM
 62
5
370
9
440
16777216
100
AcDbLine
 10
1641.7948410696408
 20
392.3059314967686
 30
0.0
 11
1641.7948410696408
 21
308.8725122615433
 31
0.0
  0
LINE
  5
45F
330
45A
100
AcDbEntity
  8
DIM
 62
5
370
9
440
16777216
100
AcDbLine
 10
645.7948410696335
 20
313.8725122615424
 30
0.0
 11
1641.7948410696408
 21
313.8725122615424
 31
0.0
  0
LINE
  5
460
330
45A
100
AcDbEntity
  8
0
  6
ByBlock
 62
0
370
-2
100
AcDbLine
 10
648.2948410696335
 20
316.3725122615424
 30
0.0
 11
643.2948410696335
 21
311.3725122615424
 31
0.0
  0
LINE
  5
461
330
45A
100
AcDbEntity
  8
0
  6
ByBlock
 62
0
370
-2
100
AcDbLine
 10
1639.2948410696408
 20
311.3725122615424
 30
0.0
 11
1644.2948410696408
 21
316.3725122615424
 31
0.0
  0
MTEXT
  5
462
330
45A
100
AcDbEntity
  8
DIM
 62
3
440
16777216
100
AcDbMText
 10
1143.7948410696408
 20
326.5311070773696
 30
0.0
 40
15.0
 41
0.0
 46
0.0
 71
5
  1
996
  0
POINT
  5
463
330
45A
100
AcDbEntity
  8
Defpoints
 62
0
440
16777216
100
AcDbPoint
 10
645.7948410696335
 20
400.3059314967686
 30
0.0
  0
POINT
  5
464
330
45A
100
AcDbEntity
  8
Defpoints
 62
0
440
16777216
100
AcDbPoint
 10
1641.7948410696408
 20
400.3059314967686
 30
0.0
  0
POINT
  5
465
330
45A
100
AcDbEntity
  8
Defpoints
 62
0
440
16777216
100
AcDbPoint
 10
1641.7948410696408
 20
313.8725122615424
 30
0.0
  0
ENDBLK
  5
45C
330
45A
100
AcDbEntity
  8
0
100
AcDbBlockEnd
  0
BLOCK
  5
467
330
466
100
AcDbEntity
  8
0
100
AcDbBlockBegin
  2
*D20
 70
1
 10
0.0
 20
0.0
 30
0.0
  3
*D20
  1

  0
LINE
  5
469
330
466
100
AcDbEntity
  8
DIM
 62
5
370
9
440
16777216
100
AcDbLine
 10
637.7948410696335
 20
500.3059314967686
 30
0.0
 11
595.8581781938192
 21
500.3059314967686
 31
0.0
  0
LINE
  5
46A
330
466
100
AcDbEntity
  8
DIM
 62
5
370
9
440
16777216
100
AcDbLine
 10
637.7948410696335
 20
400.3059314967686
 30
0.0
 11
595.8581781938192
 21
400.3059314967686
 31
0.0
  0
LINE
  5
46B
330
466
100
AcDbEntity
  8
DIM
 62
5
370
9
440
16777216
100
AcDbLine
 10
600.8581781938192
 20
500.3059314967686
 30
0.0
 11
600.8581781938192
 21
400.3059314967686
 31
0.0
  0
LINE
  5
46C
330
466
100
AcDbEntity
  8
0
  6
ByBlock
 62
0
370
-2
100
AcDbLine
 10
603.3581781938192
 20
497.8059314967686
 30
0.0
 11
598.3581781938192
 21
502.8059314967686
 31
0.0
  0
LINE
  5
46D
330
466
100
AcDbEntity
  8
0
  6
ByBlock
 62
0
370
-2
100
AcDbLine
 10
598.3581781938192
 20
402.8059314967686
 30
0.0
 11
603.3581781938192
 21
397.8059314967686
 31
0.0
  0
MTEXT
  5
46E
330
466
100
AcDbEntity
  8
DIM
 62
3
440
16777216
100
AcDbMText
 10
588.199583378002
 20
450.30593149677406
 30
0.0
 40
15.0
 41
0.0
 46
0.0
 71
5
  1
100
 11
1e-16
 21
1.0
 31
0.0
  0
POINT
  5
46F
330
466
100
AcDbEntity
  8
Defpoints
 62
0
440
16777216
100
AcDbPoint
 10
645.7948410696335
 20
500.3059314967686
 30
0.0
  0
POINT
  5
470
330
466
100
AcDbEntity
  8
Defpoints
 62
0
440
16777216
100
AcDbPoint
 10
645.7948410696335
 20
400.3059314967686
 30
0.0
  0
POINT
  5
471
330
466
100
AcDbEntity
  8
Defpoints
 62
0
440
16777216
100
AcDbPoint
 10
600.8581781938192
 20
400.3059314967686
 30
0.0
  0
ENDBLK
  5
468
330
466
100
AcDbEntity
  8
0
100
AcDbBlockEnd
  0
BLOCK
  5
473
330
472
100
AcDbEntity
  8
0
100
AcDbBlockBegin
  2
*D21
 70
1
 10
0.0
 20
0.0
 30
0.0
  3
*D21
  1

  0
LINE
  5
475
330
472
100
AcDbEntity
  8
DIM
 62
5
370
9
440
16777216
100
AcDbLine
 10
637.7948410696335
 20
500.3059314967686
 30
0.0
 11
595.8581781937901
 21
500.3059314967686
 31
0.0
  0
LINE
  5
476
330
472
100
AcDbEntity
  8
DIM
 62
5
370
9
440
16777216
100
AcDbLine
 10
687.7948410696335
 20
550.3059314967686
 30
0.0
 11
595.8581781937901
 21
550.3059314967686
 31
0.0
  0
LINE
  5
477
330
472
100
AcDbEntity
  8
DIM
 62
5
370
9
440
16777216
100
AcDbLine
 10
600.8581781937901
 20
500.3059314967686
 30
0.0
 11
600.8581781937901
 21
550.3059314967686
 31
0.0
  0
LINE
  5
478
330
472
100
AcDbEntity
  8
0
  6
ByBlock
 62
0
370
-2
100
AcDbLine
 10
598.3581781937901
 20
502.8059314967686
 30
0.0
 11
603.3581781937901
 21
497.8059314967686
 31
0.0
  0
LINE
  5
479
330
472
100
AcDbEntity
  8
0
  6
ByBlock
 62
0
370
-2
100
AcDbLine
 10
603.3581781937901
 20
547.8059314967686
 30
0.0
 11
598.3581781937901
 21
552.8059314967686
 31
0.0
  0
MTEXT
  5
47A
330
472
100
AcDbEntity
  8
DIM
 62
3
440
16777216
100
AcDbMText
 10
588.1995833779729
 20
525.305931496775
 30
0.0
 40
15.0
 41
0.0
 46
0.0
 71
5
  1
50
 11
1e-16
 21
1.0
 31
0.0
  0
POINT
  5
47B
330
472
100
AcDbEntity
  8
Defpoints
 62
0
440
16777216
100
AcDbPoint
 10
645.7948410696335
 20
500.3059314967686
 30
0.0
  0
POINT
  5
47C
330
472
100
AcDbEntity
  8
Defpoints
 62
0
440
16777216
100
AcDbPoint
 10
695.7948410696335
 20
550.3059314967686
 30
0.0
  0
POINT
  5
47D
330
472
100
AcDbEntity
  8
Defpoints
 62
0
440
16777216
100
AcDbPoint
 10
600.8581781937901
 20
550.3059314967686
 30
0.0
  0
ENDBLK
  5
474
330
472
100
AcDbEntity
  8
0
100
AcDbBlockEnd
  0
BLOCK
  5
47F
330
47E
100
AcDbEntity
  8
0
100
AcDbBlockBegin
  2
*D22
 70
1
 10
0.0
 20
0.0
 30
0.0
  3
*D22
  1

  0
LINE
  5
481
330
47E
100
AcDbEntity
  8
DIM
 62
5
370
9
440
16777216
100
AcDbLine
 10
637.7948410696335
 20
400.3059314967686
 30
0.0
 11
595.8581781937901
 21
400.3059314967686
 31
0.0
  0
LINE
  5
482
330
47E
100
AcDbEntity
  8
DIM
 62
5
370
9
440
16777216
100
AcDbLine
 10
687.7948410696335
 20
350.3059314967686
 30
0.0
 11
595.8581781937901
 21
350.3059314967686
 31
0.0
  0
LINE
  5
483
330
47E
100
AcDbEntity
  8
DIM
 62
5
370
9
440
16777216
100
AcDbLine
 10
600.8581781937901
 20
400.3059314967686
 30
0.0
 11
600.8581781937901
 21
350.3059314967686
 31
0.0
  0
LINE
  5
484
330
47E
100
AcDbEntity
  8
0
  6
ByBlock
 62
0
370
-2
100
AcDbLine
 10
603.3581781937901
 20
397.8059314967686
 30
0.0
 11
598.3581781937901
 21
402.8059314967686
 31
0.0
  0
LINE
  5
485
330
47E
100
AcDbEntity
  8
0
  6
ByBlock
 62
0
370
-2
100
AcDbLine
 10
598.3581781937901
 20
352.8059314967686
 30
0.0
 11
603.3581781937901
 21
347.8059314967686
 31
0.0
  0
MTEXT
  5
486
330
47E
100
AcDbEntity
  8
DIM
 62
3
440
16777216
100
AcDbMText
 10
588.1995833779729
 20
375.305931496775
 30
0.0
 40
15.0
 41
0.0
 46
0.0
 71
5
  1
50
 11
1e-16
 21
1.0
 31
0.0
  0
POINT
  5
487
330
47E
100
AcDbEntity
  8
Defpoints
 62
0
440
16777216
100
AcDbPoint
 10
645.7948410696335
 20
400.3059314967686
 30
0.0
  0
POINT
  5
488
330
47E
100
AcDbEntity
  8
Defpoints
 62
0
440
16777216
100
AcDbPoint
 10
695.7948410696335
 20
350.3059314967686
 30
0.0
  0
POINT
  5
489
330
47E
100
AcDbEntity
  8
Defpoints
 62
0
440
16777216
100
AcDbPoint
 10
600.8581781937901
 20
350.3059314967686
 30
0.0
  0
ENDBLK
  5
480
330
47E
100
AcDbEntity
  8
0
100
AcDbBlockEnd
  0
BLOCK
  5
48B
330
48A
100
AcDbEntity
  8
0
100
AcDbBlockBegin
  2
*D23
 70
1
 10
0.0
 20
0.0
 30
0.0
  3
*D23
  1

  0
LINE
  5
48D
330
48A
100
AcDbEntity
  8
DIM
 62
5
370
9
440
16777216
100
AcDbLine
 10
4214.713190062561
 20
2715.884802824723
 30
0.0
 11
4306.762312983999
 21
2715.884802824721
 31
0.0
  0
LINE
  5
48E
330
48A
100
AcDbEntity
  8
DIM
 62
5
370
9
440
16777216
100
AcDbLine
 10
4214.713190062583
 20
2635.884802824721
 30
0.0
 11
4306.762312983999
 21
2635.884802824721
 31
0.0
  0
LINE
  5
48F
330
48A
100
AcDbEntity
  8
DIM
 62
5
370
9
440
16777216
100
AcDbLine
 10
4296.762312983999
 20
2715.884802824721
 30
0.0
 11
4296.762312983999
 21
2635.884802824721
 31
0.0
  0
LINE
  5
490
330
48A
100
AcDbEntity
  8
0
  6
ByBlock
 62
0
370
-2
100
AcDbLine
 10
4300.762312983999
 20
2711.884802824721
 30
0.0
 11
4292.762312983999
 21
2719.884802824721
 31
0.0
  0
LINE
  5
491
330
48A
100
AcDbEntity
  8
0
  6
ByBlock
 62
0
370
-2
100
AcDbLine
 10
4292.762312983999
 20
2639.884802824721
 30
0.0
 11
4300.762312983999
 21
2631.884802824721
 31
0.0
  0
MTEXT
  5
492
330
48A
100
AcDbEntity
  8
DIM
 62
3
440
16777216
100
AcDbMText
 10
4273.997988290954
 20
2675.8848028247285
 30
0.0
 40
25.0
 41
0.0
 46
0.0
 71
5
  1
80
 11
1e-16
 21
1.0
 31
0.0
  0
POINT
  5
493
330
48A
100
AcDbEntity
  8
Defpoints
 62
0
440
16777216
100
AcDbPoint
 10
4199.713190062561
 20
2715.884802824723
 30
0.0
  0
POINT
  5
494
330
48A
100
AcDbEntity
  8
Defpoints
 62
0
440
16777216
100
AcDbPoint
 10
4199.713190062583
 20
2635.884802824721
 30
0.0
  0
POINT
  5
495
330
48A
100
AcDbEntity
  8
Defpoints
 62
0
440
16777216
100
AcDbPoint
 10
4296.762312983999
 20
2635.884802824721
 30
0.0
  0
ENDBLK
  5
48C
330
48A
100
AcDbEntity
  8
0
100
AcDbBlockEnd
  0
BLOCK
  5
497
330
496
100
AcDbEntity
  8
0
100
AcDbBlockBegin
  2
*D24
 70
1
 10
0.0
 20
0.0
 30
0.0
  3
*D24
  1

  0
LINE
  5
499
330
496
100
AcDbEntity
  8
DIM
 62
5
370
9
440
16777216
100
AcDbLine
 10
3309.7131900625754
 20
2700.884802824723
 30
0.0
 11
3266.487693785595
 21
2700.884802824723
 31
0.0
  0
LINE
  5
49A
330
496
100
AcDbEntity
  8
DIM
 62
5
370
9
440
16777216
100
AcDbLine
 10
3309.7131900625754
 20
2650.884802824723
 30
0.0
 11
3266.487693785595
 21
2650.884802824723
 31
0.0
  0
LINE
  5
49B
330
496
100
AcDbEntity
  8
DIM
 62
5
370
9
440
16777216
100
AcDbLine
 10
3276.4876937855806
 20
2700.884802824723
 30
0.0
 11
3276.4876937855806
 21
2650.884802824723
 31
0.0
  0
LINE
  5
49C
330
496
100
AcDbEntity
  8
0
  6
ByBlock
 62
0
370
-2
100
AcDbLine
 10
3280.4876937855806
 20
2696.884802824723
 30
0.0
 11
3272.4876937855806
 21
2704.884802824723
 31
0.0
  0
LINE
  5
49D
330
496
100
AcDbEntity
  8
0
  6
ByBlock
 62
0
370
-2
100
AcDbLine
 10
3272.4876937855806
 20
2654.884802824723
 30
0.0
 11
3280.4876937855806
 21
2646.884802824723
 31
0.0
  0
MTEXT
  5
49E
330
496
100
AcDbEntity
  8
DIM
 62
3
440
16777216
100
AcDbMText
 10
3253.7233690925423
 20
2675.8848028247303
 30
0.0
 40
25.0
 41
0.0
 46
0.0
 71
5
  1
50
 11
1e-16
 21
1.0
 31
0.0
  0
POINT
  5
49F
330
496
100
AcDbEntity
  8
Defpoints
 62
0
440
16777216
100
AcDbPoint
 10
3324.713190062561
 20
2700.884802824723
 30
0.0
  0
POINT
  5
4A0
330
496
100
AcDbEntity
  8
Defpoints
 62
0
440
16777216
100
AcDbPoint
 10
3324.713190062561
 20
2650.884802824723
 30
0.0
  0
POINT
  5
4A1
330
496
100
AcDbEntity
  8
Defpoints
 62
0
440
16777216
100
AcDbPoint
 10
3276.4876937855806
 20
2650.884802824723
 30
0.0
  0
ENDBLK
  5
498
330
496
100
AcDbEntity
  8
0
100
AcDbBlockEnd
  0
BLOCK
  5
4A3
330
4A2
100
AcDbEntity
  8
0
100
AcDbBlockBegin
  2
*D25
 70
1
 10
0.0
 20
0.0
 30
0.0
  3
*D25
  1

  0
LINE
  5
4A5
330
4A2
100
AcDbEntity
  8
DIM
 62
5
370
9
440
16777216
100
AcDbLine
 10
3309.7131900625754
 20
2700.884802824723
 30
0.0
 11
3266.4876937855515
 21
2700.884802824723
 31
0.0
  0
LINE
  5
4A6
330
4A2
100
AcDbEntity
  8
DIM
 62
5
370
9
440
16777216
100
AcDbLine
 10
3344.7131900625754
 20
2715.884802824723
 30
0.0
 11
3266.4876937855515
 21
2715.884802824723
 31
0.0
  0
LINE
  5
4A7
330
4A2
100
AcDbEntity
  8
DIM
 62
5
370
9
440
16777216
100
AcDbLine
 10
3276.4876937855515
 20
2700.884802824723
 30
0.0
 11
3276.4876937855515
 21
2692.884802824725
 31
0.0
  0
LINE
  5
4A8
330
4A2
100
AcDbEntity
  8
DIM
 62
5
370
9
440
16777216
100
AcDbLine
 10
3276.4876937855515
 20
2715.884802824723
 30
0.0
 11
3276.4876937855515
 21
2785.5307782681066
 31
0.0
  0
LINE
  5
4A9
330
4A2
100
AcDbEntity
  8
DIM
 62
5
370
9
440
16777216
100
AcDbLine
 10
3276.4876937855515
 20
2700.884802824723
 30
0.0
 11
3276.4876937855515
 21
2715.884802824723
 31
0.0
  0
LINE
  5
4AA
330
4A2
100
AcDbEntity
  8
0
  6
ByBlock
 62
0
370
-2
100
AcDbLine
 10
3280.4876937855515
 20
2696.884802824723
 30
0.0
 11
3272.4876937855515
 21
2704.884802824723
 31
0.0
  0
LINE
  5
4AB
330
4A2
100
AcDbEntity
  8
0
  6
ByBlock
 62
0
370
-2
100
AcDbLine
 10
3272.4876937855515
 20
2719.884802824723
 30
0.0
 11
3280.4876937855515
 21
2711.884802824723
 31
0.0
  0
MTEXT
  5
4AC
330
4A2
100
AcDbEntity
  8
DIM
 62
3
440
16777216
100
AcDbMText
 10
3253.723369092513
 20
2758.707790546421
 30
0.0
 40
25.0
 41
0.0
 46
0.0
 71
5
  1
15
 11
1e-16
 21
1.0
 31
0.0
  0
POINT
  5
4AD
330
4A2
100
AcDbEntity
  8
Defpoints
 62
0
440
16777216
100
AcDbPoint
 10
3324.713190062561
 20
2700.884802824723
 30
0.0
  0
POINT
  5
4AE
330
4A2
100
AcDbEntity
  8
Defpoints
 62
0
440
16777216
100
AcDbPoint
 10
3359.7131900625754
 20
2715.884802824723
 30
0.0
  0
POINT
  5
4AF
330
4A2
100
AcDbEntity
  8
Defpoints
 62
0
440
16777216
100
AcDbPoint
 10
3276.4876937855515
 20
2715.884802824723
 30
0.0
  0
ENDBLK
  5
4A4
330
4A2
100
AcDbEntity
  8
0
100
AcDbBlockEnd
  0
BLOCK
  5
4B1
330
4B0
100
AcDbEntity
  8
0
100
AcDbBlockBegin
  2
*D26
 70
1
 10
0.0
 20
0.0
 30
0.0
  3
*D26
  1

  0
LINE
  5
4B3
330
4B0
100
AcDbEntity
  8
DIM
 62
5
370
9
440
16777216
100
AcDbLine
 10
3309.7131900625754
 20
2650.884802824723
 30
0.0
 11
3266.4876937855734
 21
2650.884802824723
 31
0.0
  0
LINE
  5
4B4
330
4B0
100
AcDbEntity
  8
DIM
 62
5
370
9
440
16777216
100
AcDbLine
 10
3344.7131900625754
 20
2635.884802824721
 30
0.0
 11
3266.4876937855734
 21
2635.884802824721
 31
0.0
  0
LINE
  5
4B5
330
4B0
100
AcDbEntity
  8
DIM
 62
5
370
9
440
16777216
100
AcDbLine
 10
3276.4876937855734
 20
2650.884802824723
 30
0.0
 11
3276.4876937855734
 21
2658.884802824723
 31
0.0
  0
LINE
  5
4B6
330
4B0
100
AcDbEntity
  8
DIM
 62
5
370
9
440
16777216
100
AcDbLine
 10
3276.4876937855734
 20
2635.884802824721
 30
0.0
 11
3276.4876937855734
 21
2566.2388273813394
 31
0.0
  0
LINE
  5
4B7
330
4B0
100
AcDbEntity
  8
DIM
 62
5
370
9
440
16777216
100
AcDbLine
 10
3276.4876937855734
 20
2650.884802824723
 30
0.0
 11
3276.4876937855734
 21
2635.884802824721
 31
0.0
  0
LINE
  5
4B8
330
4B0
100
AcDbEntity
  8
0
  6
ByBlock
 62
0
370
-2
100
AcDbLine
 10
3272.4876937855734
 20
2654.884802824723
 30
0.0
 11
3280.4876937855734
 21
2646.884802824723
 31
0.0
  0
LINE
  5
4B9
330
4B0
100
AcDbEntity
  8
0
  6
ByBlock
 62
0
370
-2
100
AcDbLine
 10
3280.4876937855734
 20
2631.884802824721
 30
0.0
 11
3272.4876937855734
 21
2639.884802824721
 31
0.0
  0
MTEXT
  5
4BA
330
4B0
100
AcDbEntity
  8
DIM
 62
3
440
16777216
100
AcDbMText
 10
3253.7233690925204
 20
2593.0618151030394
 30
0.0
 40
25.0
 41
0.0
 46
0.0
 71
5
  1
15
 11
1e-16
 21
1.0
 31
0.0
  0
POINT
  5
4BB
330
4B0
100
AcDbEntity
  8
Defpoints
 62
0
440
16777216
100
AcDbPoint
 10
3324.713190062561
 20
2650.884802824723
 30
0.0
  0
POINT
  5
4BC
330
4B0
100
AcDbEntity
  8
Defpoints
 62
0
440
16777216
100
AcDbPoint
 10
3359.7131900625754
 20
2635.884802824721
 30
0.0
  0
POINT
  5
4BD
330
4B0
100
AcDbEntity
  8
Defpoints
 62
0
440
16777216
100
AcDbPoint
 10
3276.4876937855734
 20
2635.884802824721
 30
0.0
  0
ENDBLK
  5
4B2
330
4B0
100
AcDbEntity
  8
0
100
AcDbBlockEnd
  0
BLOCK
  5
4BF
330
4BE
100
AcDbEntity
  8
0
100
AcDbBlockBegin
  2
*D27
 70
1
 10
0.0
 20
0.0
 30
0.0
  3
*D27
  1

  0
LINE
  5
4C1
330
4BE
100
AcDbEntity
  8
DIM
 62
5
370
9
440
16777216
100
AcDbLine
 10
4254.713190062575
 20
2398.9734716351504
 30
0.0
 11
4311.762312983999
 21
2398.9734716351504
 31
0.0
  0
LINE
  5
4C2
330
4BE
100
AcDbEntity
  8
DIM
 62
5
370
9
440
16777216
100
AcDbLine
 10
4254.713190062575
 20
2318.9734716351504
 30
0.0
 11
4311.762312983999
 21
2318.9734716351504
 31
0.0
  0
LINE
  5
4C3
330
4BE
100
AcDbEntity
  8
DIM
 62
5
370
9
440
16777216
100
AcDbLine
 10
4301.762312983999
 20
2398.9734716351504
 30
0.0
 11
4301.762312983999
 21
2318.9734716351504
 31
0.0
  0
LINE
  5
4C4
330
4BE
100
AcDbEntity
  8
0
  6
ByBlock
 62
0
370
-2
100
AcDbLine
 10
4305.762312983999
 20
2394.9734716351504
 30
0.0
 11
4297.762312983999
 21
2402.9734716351504
 31
0.0
  0
LINE
  5
4C5
330
4BE
100
AcDbEntity
  8
0
  6
ByBlock
 62
0
370
-2
100
AcDbLine
 10
4297.762312983999
 20
2322.9734716351504
 30
0.0
 11
4305.762312983999
 21
2314.9734716351504
 31
0.0
  0
MTEXT
  5
4C6
330
4BE
100
AcDbEntity
  8
DIM
 62
3
440
16777216
100
AcDbMText
 10
4278.997988290954
 20
2358.9734716351577
 30
0.0
 40
25.0
 41
0.0
 46
0.0
 71
5
  1
80
 11
1e-16
 21
1.0
 31
0.0
  0
POINT
  5
4C7
330
4BE
100
AcDbEntity
  8
Defpoints
 62
0
440
16777216
100
AcDbPoint
 10
4239.713190062575
 20
2398.9734716351522
 30
0.0
  0
POINT
  5
4C8
330
4BE
100
AcDbEntity
  8
Defpoints
 62
0
440
16777216
100
AcDbPoint
 10
4239.713190062575
 20
2318.9734716351522
 30
0.0
  0
POINT
  5
4C9
330
4BE
100
AcDbEntity
  8
Defpoints
 62
0
440
16777216
100
AcDbPoint
 10
4301.762312983999
 20
2318.9734716351504
 30
0.0
  0
ENDBLK
  5
4C0
330
4BE
100
AcDbEntity
  8
0
100
AcDbBlockEnd
  0
BLOCK
  5
4CB
330
4CA
100
AcDbEntity
  8
0
100
AcDbBlockBegin
  2
*D28
 70
1
 10
0.0
 20
0.0
 30
0.0
  3
*D28
  1

  0
LINE
  5
4CD
330
4CA
100
AcDbEntity
  8
DIM
 62
5
370
9
440
16777216
100
AcDbLine
 10
3304.713190062561
 20
2383.9734716351522
 30
0.0
 11
3261.4876937855806
 21
2383.9734716351522
 31
0.0
  0
LINE
  5
4CE
330
4CA
100
AcDbEntity
  8
DIM
 62
5
370
9
440
16777216
100
AcDbLine
 10
3304.713190062561
 20
2333.9734716351522
 30
0.0
 11
3261.4876937855806
 21
2333.9734716351522
 31
0.0
  0
LINE
  5
4CF
330
4CA
100
AcDbEntity
  8
DIM
 62
5
370
9
440
16777216
100
AcDbLine
 10
3271.4876937855806
 20
2383.9734716351522
 30
0.0
 11
3271.4876937855806
 21
2333.9734716351522
 31
0.0
  0
LINE
  5
4D0
330
4CA
100
AcDbEntity
  8
0
  6
ByBlock
 62
0
370
-2
100
AcDbLine
 10
3275.4876937855806
 20
2379.9734716351522
 30
0.0
 11
3267.4876937855806
 21
2387.9734716351522
 31
0.0
  0
LINE
  5
4D1
330
4CA
100
AcDbEntity
  8
0
  6
ByBlock
 62
0
370
-2
100
AcDbLine
 10
3267.4876937855806
 20
2337.9734716351522
 30
0.0
 11
3275.4876937855806
 21
2329.9734716351522
 31
0.0
  0
MTEXT
  5
4D2
330
4CA
100
AcDbEntity
  8
DIM
 62
3
440
16777216
100
AcDbMText
 10
3248.723369092535
 20
2358.9734716351613
 30
0.0
 40
25.0
 41
0.0
 46
0.0
 71
5
  1
50
 11
1e-16
 21
1.0
 31
0.0
  0
POINT
  5
4D3
330
4CA
100
AcDbEntity
  8
Defpoints
 62
0
440
16777216
100
AcDbPoint
 10
3319.713190062561
 20
2383.9734716351522
 30
0.0
  0
POINT
  5
4D4
330
4CA
100
AcDbEntity
  8
Defpoints
 62
0
440
16777216
100
AcDbPoint
 10
3319.713190062561
 20
2333.9734716351522
 30
0.0
  0
POINT
  5
4D5
330
4CA
100
AcDbEntity
  8
Defpoints
 62
0
440
16777216
100
AcDbPoint
 10
3271.4876937855806
 20
2333.9734716351522
 30
0.0
  0
ENDBLK
  5
4CC
330
4CA
100
AcDbEntity
  8
0
100
AcDbBlockEnd
  0
BLOCK
  5
4D7
330
4D6
100
AcDbEntity
  8
0
100
AcDbBlockBegin
  2
*D29
 70
1
 10
0.0
 20
0.0
 30
0.0
  3
*D29
  1

  0
LINE
  5
4D9
330
4D6
100
AcDbEntity
  8
DIM
 62
5
370
9
440
16777216
100
AcDbLine
 10
3304.713190062561
 20
2383.9734716351522
 30
0.0
 11
3261.4876937855515
 21
2383.9734716351522
 31
0.0
  0
LINE
  5
4DA
330
4D6
100
AcDbEntity
  8
DIM
 62
5
370
9
440
16777216
100
AcDbLine
 10
3304.713190062561
 20
2398.9734716351522
 30
0.0
 11
3261.4876937855515
 21
2398.9734716351522
 31
0.0
  0
LINE
  5
4DB
330
4D6
100
AcDbEntity
  8
DIM
 62
5
370
9
440
16777216
100
AcDbLine
 10
3271.487693785559
 20
2383.9734716351522
 30
0.0
 11
3271.487693785559
 21
2375.9734716351522
 31
0.0
  0
LINE
  5
4DC
330
4D6
100
AcDbEntity
  8
DIM
 62
5
370
9
440
16777216
100
AcDbLine
 10
3271.487693785559
 20
2398.9734716351522
 30
0.0
 11
3271.487693785559
 21
2468.619447078536
 31
0.0
  0
LINE
  5
4DD
330
4D6
100
AcDbEntity
  8
DIM
 62
5
370
9
440
16777216
100
AcDbLine
 10
3271.487693785559
 20
2383.9734716351522
 30
0.0
 11
3271.487693785559
 21
2398.9734716351522
 31
0.0
  0
LINE
  5
4DE
330
4D6
100
AcDbEntity
  8
0
  6
ByBlock
 62
0
370
-2
100
AcDbLine
 10
3275.487693785559
 20
2379.9734716351522
 30
0.0
 11
3267.487693785559
 21
2387.9734716351522
 31
0.0
  0
LINE
  5
4DF
330
4D6
100
AcDbEntity
  8
0
  6
ByBlock
 62
0
370
-2
100
AcDbLine
 10
3267.487693785559
 20
2402.9734716351522
 30
0.0
 11
3275.487693785559
 21
2394.9734716351522
 31
0.0
  0
MTEXT
  5
4E0
330
4D6
100
AcDbEntity
  8
DIM
 62
3
440
16777216
100
AcDbMText
 10
3248.723369092513
 20
2441.7964593568504
 30
0.0
 40
25.0
 41
0.0
 46
0.0
 71
5
  1
15
 11
1e-16
 21
1.0
 31
0.0
  0
POINT
  5
4E1
330
4D6
100
AcDbEntity
  8
Defpoints
 62
0
440
16777216
100
AcDbPoint
 10
3319.713190062561
 20
2383.9734716351522
 30
0.0
  0
POINT
  5
4E2
330
4D6
100
AcDbEntity
  8
Defpoints
 62
0
440
16777216
100
AcDbPoint
 10
3319.713190062561
 20
2398.9734716351522
 30
0.0
  0
POINT
  5
4E3
330
4D6
100
AcDbEntity
  8
Defpoints
 62
0
440
16777216
100
AcDbPoint
 10
3271.487693785559
 20
2398.9734716351522
 30
0.0
  0
ENDBLK
  5
4D8
330
4D6
100
AcDbEntity
  8
0
100
AcDbBlockEnd
  0
BLOCK
  5
4E5
330
4E4
100
AcDbEntity
  8
0
100
AcDbBlockBegin
  2
*D30
 70
1
 10
0.0
 20
0.0
 30
0.0
  3
*D30
  1

  0
LINE
  5
4E7
330
4E4
100
AcDbEntity
  8
DIM
 62
5
370
9
440
16777216
100
AcDbLine
 10
3304.713190062561
 20
2333.9734716351522
 30
0.0
 11
3261.4876937855734
 21
2333.9734716351522
 31
0.0
  0
LINE
  5
4E8
330
4E4
100
AcDbEntity
  8
DIM
 62
5
370
9
440
16777216
100
AcDbLine
 10
3304.713190062561
 20
2318.9734716351522
 30
0.0
 11
3261.4876937855734
 21
2318.9734716351522
 31
0.0
  0
LINE
  5
4E9
330
4E4
100
AcDbEntity
  8
DIM
 62
5
370
9
440
16777216
100
AcDbLine
 10
3271.487693785559
 20
2333.9734716351522
 30
0.0
 11
3271.487693785559
 21
2341.9734716351522
 31
0.0
  0
LINE
  5
4EA
330
4E4
100
AcDbEntity
  8
DIM
 62
5
370
9
440
16777216
100
AcDbLine
 10
3271.487693785559
 20
2318.9734716351522
 30
0.0
 11
3271.487693785559
 21
2249.3274961917687
 31
0.0
  0
LINE
  5
4EB
330
4E4
100
AcDbEntity
  8
DIM
 62
5
370
9
440
16777216
100
AcDbLine
 10
3271.487693785559
 20
2333.9734716351522
 30
0.0
 11
3271.487693785559
 21
2318.9734716351522
 31
0.0
  0
LINE
  5
4EC
330
4E4
100
AcDbEntity
  8
0
  6
ByBlock
 62
0
370
-2
100
AcDbLine
 10
3267.487693785559
 20
2337.9734716351522
 30
0.0
 11
3275.487693785559
 21
2329.9734716351522
 31
0.0
  0
LINE
  5
4ED
330
4E4
100
AcDbEntity
  8
0
  6
ByBlock
 62
0
370
-2
100
AcDbLine
 10
3275.487693785559
 20
2314.9734716351522
 30
0.0
 11
3267.487693785559
 21
2322.9734716351522
 31
0.0
  0
MTEXT
  5
4EE
330
4E4
100
AcDbEntity
  8
DIM
 62
3
440
16777216
100
AcDbMText
 10
3248.7233690925204
 20
2276.1504839134705
 30
0.0
 40
25.0
 41
0.0
 46
0.0
 71
5
  1
15
 11
1e-16
 21
1.0
 31
0.0
  0
POINT
  5
4EF
330
4E4
100
AcDbEntity
  8
Defpoints
 62
0
440
16777216
100
AcDbPoint
 10
3319.713190062561
 20
2333.9734716351522
 30
0.0
  0
POINT
  5
4F0
330
4E4
100
AcDbEntity
  8
Defpoints
 62
0
440
16777216
100
AcDbPoint
 10
3319.713190062561
 20
2318.9734716351522
 30
0.0
  0
POINT
  5
4F1
330
4E4
100
AcDbEntity
  8
Defpoints
 62
0
440
16777216
100
AcDbPoint
 10
3271.487693785559
 20
2318.9734716351522
 30
0.0
  0
ENDBLK
  5
4E6
330
4E4
100
AcDbEntity
  8
0
100
AcDbBlockEnd
  0
BLOCK
  5
4F3
330
4F2
100
AcDbEntity
  8
0
100
AcDbBlockBegin
  2
*D31
 70
1
 10
0.0
 20
0.0
 30
0.0
  3
*D31
  1

  0
LINE
  5
4F5
330
4F2
100
AcDbEntity
  8
DIM
 62
5
370
9
440
16777216
100
AcDbLine
 10
3984.062289079273
 20
1914.0241941160566
 30
0.0
 11
3984.062289079273
 21
1953.4102974372217
 31
0.0
  0
LINE
  5
4F6
330
4F2
100
AcDbEntity
  8
DIM
 62
5
370
9
440
16777216
100
AcDbLine
 10
4004.0622890792656
 20
1914.0241941160566
 30
0.0
 11
4004.0622890792656
 21
1953.4102974372217
 31
0.0
  0
LINE
  5
4F7
330
4F2
100
AcDbEntity
  8
DIM
 62
5
370
9
440
16777216
100
AcDbLine
 10
3984.062289079273
 20
1943.4102974372236
 30
0.0
 11
4004.0622890792656
 21
1943.4102974372236
 31
0.0
  0
LINE
  5
4F8
330
4F2
100
AcDbEntity
  8
DIM
 62
5
370
9
440
16777216
100
AcDbLine
 10
4004.0622890792656
 20
1943.4102974372236
 30
0.0
 11
4068.215085805052
 21
1943.4102974372236
 31
0.0
  0
LINE
  5
4F9
330
4F2
100
AcDbEntity
  8
0
  6
ByBlock
 62
0
370
-2
100
AcDbLine
 10
3988.062289079273
 20
1947.4102974372236
 30
0.0
 11
3980.062289079273
 21
1939.4102974372236
 31
0.0
  0
LINE
  5
4FA
330
4F2
100
AcDbEntity
  8
0
  6
ByBlock
 62
0
370
-2
100
AcDbLine
 10
4000.0622890792656
 20
1939.4102974372236
 30
0.0
 11
4008.0622890792656
 21
1947.4102974372236
 31
0.0
  0
MTEXT
  5
4FB
330
4F2
100
AcDbEntity
  8
DIM
 62
3
440
16777216
100
AcDbMText
 10
4040.138687442166
 20
1966.1746221302637
 30
0.0
 40
25.0
 41
0.0
 46
0.0
 71
5
  1
20
  0
POINT
  5
4FC
330
4F2
100
AcDbEntity
  8
Defpoints
 62
0
440
16777216
100
AcDbPoint
 10
3984.062289079273
 20
1899.0241941160566
 30
0.0
  0
POINT
  5
4FD
330
4F2
100
AcDbEntity
  8
Defpoints
 62
0
440
16777216
100
AcDbPoint
 10
4004.0622890792656
 20
1899.0241941160566
 30
0.0
  0
POINT
  5
4FE
330
4F2
100
AcDbEntity
  8
Defpoints
 62
0
440
16777216
100
AcDbPoint
 10
4004.0622890792656
 20
1943.4102974372236
 30
0.0
  0
ENDBLK
  5
4F4
330
4F2
100
AcDbEntity
  8
0
100
AcDbBlockEnd
  0
BLOCK
  5
500
330
4FF
100
AcDbEntity
  8
0
100
AcDbBlockBegin
  2
*D32
 70
1
 10
0.0
 20
0.0
 30
0.0
  3
*D32
  1

  0
LINE
  5
502
330
4FF
100
AcDbEntity
  8
DIM
 62
5
370
9
440
16777216
100
AcDbLine
 10
3984.062289079273
 20
1914.0241941160566
 30
0.0
 11
3984.062289079273
 21
1953.4102974372217
 31
0.0
  0
LINE
  5
503
330
4FF
100
AcDbEntity
  8
DIM
 62
5
370
9
440
16777216
100
AcDbLine
 10
3901.062289079273
 20
1914.0241941160566
 30
0.0
 11
3901.062289079273
 21
1953.4102974372217
 31
0.0
  0
LINE
  5
504
330
4FF
100
AcDbEntity
  8
DIM
 62
5
370
9
440
16777216
100
AcDbLine
 10
3984.062289079273
 20
1943.4102974372236
 30
0.0
 11
3901.062289079273
 21
1943.4102974372236
 31
0.0
  0
LINE
  5
505
330
4FF
100
AcDbEntity
  8
0
  6
ByBlock
 62
0
370
-2
100
AcDbLine
 10
3980.062289079273
 20
1939.4102974372236
 30
0.0
 11
3988.062289079273
 21
1947.4102974372236
 31
0.0
  0
LINE
  5
506
330
4FF
100
AcDbEntity
  8
0
  6
ByBlock
 62
0
370
-2
100
AcDbLine
 10
3905.062289079273
 20
1947.4102974372236
 30
0.0
 11
3897.062289079273
 21
1939.4102974372236
 31
0.0
  0
MTEXT
  5
507
330
4FF
100
AcDbEntity
  8
DIM
 62
3
440
16777216
100
AcDbMText
 10
3942.562289079273
 20
1966.1831487332656
 30
0.0
 40
25.0
 41
0.0
 46
0.0
 71
5
  1
83
  0
POINT
  5
508
330
4FF
100
AcDbEntity
  8
Defpoints
 62
0
440
16777216
100
AcDbPoint
 10
3984.062289079273
 20
1899.0241941160566
 30
0.0
  0
POINT
  5
509
330
4FF
100
AcDbEntity
  8
Defpoints
 62
0
440
16777216
100
AcDbPoint
 10
3901.062289079273
 20
1899.0241941160566
 30
0.0
  0
POINT
  5
50A
330
4FF
100
AcDbEntity
  8
Defpoints
 62
0
440
16777216
100
AcDbPoint
 10
3901.062289079273
 20
1943.4102974372236
 30
0.0
  0
ENDBLK
  5
501
330
4FF
100
AcDbEntity
  8
0
100
AcDbBlockEnd
  0
BLOCK
  5
50C
330
50B
100
AcDbEntity
  8
0
100
AcDbBlockBegin
  2
*D33
 70
1
 10
0.0
 20
0.0
 30
0.0
  3
*D33
  1

  0
LINE
  5
50E
330
50B
100
AcDbEntity
  8
DIM
 62
5
370
9
440
16777216
100
AcDbLine
 10
3901.062289079273
 20
1914.0241941160566
 30
0.0
 11
3901.062289079273
 21
1953.4102974372217
 31
0.0
  0
LINE
  5
50F
330
50B
100
AcDbEntity
  8
DIM
 62
5
370
9
440
16777216
100
AcDbLine
 10
3736.062289079273
 20
1914.0241941160566
 30
0.0
 11
3736.062289079273
 21
1953.4102974372217
 31
0.0
  0
LINE
  5
510
330
50B
100
AcDbEntity
  8
DIM
 62
5
370
9
440
16777216
100
AcDbLine
 10
3901.062289079273
 20
1943.4102974372236
 30
0.0
 11
3736.062289079273
 21
1943.4102974372236
 31
0.0
  0
LINE
  5
511
330
50B
100
AcDbEntity
  8
0
  6
ByBlock
 62
0
370
-2
100
AcDbLine
 10
3897.062289079273
 20
1939.4102974372236
 30
0.0
 11
3905.062289079273
 21
1947.4102974372236
 31
0.0
  0
LINE
  5
512
330
50B
100
AcDbEntity
  8
0
  6
ByBlock
 62
0
370
-2
100
AcDbLine
 10
3740.062289079273
 20
1947.4102974372236
 30
0.0
 11
3732.062289079273
 21
1939.4102974372236
 31
0.0
  0
MTEXT
  5
513
330
50B
100
AcDbEntity
  8
DIM
 62
3
440
16777216
100
AcDbMText
 10
3818.562289079273
 20
1966.1746221302637
 30
0.0
 40
25.0
 41
0.0
 46
0.0
 71
5
  1
165
  0
POINT
  5
514
330
50B
100
AcDbEntity
  8
Defpoints
 62
0
440
16777216
100
AcDbPoint
 10
3901.062289079273
 20
1899.0241941160566
 30
0.0
  0
POINT
  5
515
330
50B
100
AcDbEntity
  8
Defpoints
 62
0
440
16777216
100
AcDbPoint
 10
3736.062289079273
 20
1899.0241941160566
 30
0.0
  0
POINT
  5
516
330
50B
100
AcDbEntity
  8
Defpoints
 62
0
440
16777216
100
AcDbPoint
 10
3736.062289079273
 20
1943.4102974372236
 30
0.0
  0
ENDBLK
  5
50D
330
50B
100
AcDbEntity
  8
0
100
AcDbBlockEnd
  0
BLOCK
  5
518
330
517
100
AcDbEntity
  8
0
100
AcDbBlockBegin
  2
*D34
 70
1
 10
0.0
 20
0.0
 30
0.0
  3
*D34
  1

  0
LINE
  5
51A
330
517
100
AcDbEntity
  8
DIM
 62
5
370
9
440
16777216
100
AcDbLine
 10
3736.062289079273
 20
1914.0241941160566
 30
0.0
 11
3736.062289079273
 21
1953.4102974372217
 31
0.0
  0
LINE
  5
51B
330
517
100
AcDbEntity
  8
DIM
 62
5
370
9
440
16777216
100
AcDbLine
 10
3653.062289079273
 20
1914.0241941160566
 30
0.0
 11
3653.062289079273
 21
1953.4102974372217
 31
0.0
  0
LINE
  5
51C
330
517
100
AcDbEntity
  8
DIM
 62
5
370
9
440
16777216
100
AcDbLine
 10
3736.062289079273
 20
1943.4102974372236
 30
0.0
 11
3653.062289079273
 21
1943.4102974372236
 31
0.0
  0
LINE
  5
51D
330
517
100
AcDbEntity
  8
0
  6
ByBlock
 62
0
370
-2
100
AcDbLine
 10
3732.062289079273
 20
1939.4102974372236
 30
0.0
 11
3740.062289079273
 21
1947.4102974372236
 31
0.0
  0
LINE
  5
51E
330
517
100
AcDbEntity
  8
0
  6
ByBlock
 62
0
370
-2
100
AcDbLine
 10
3657.062289079273
 20
1947.4102974372236
 30
0.0
 11
3649.062289079273
 21
1939.4102974372236
 31
0.0
  0
MTEXT
  5
51F
330
517
100
AcDbEntity
  8
DIM
 62
3
440
16777216
100
AcDbMText
 10
3694.562289079273
 20
1966.1831487332656
 30
0.0
 40
25.0
 41
0.0
 46
0.0
 71
5
  1
83
  0
POINT
  5
520
330
517
100
AcDbEntity
  8
Defpoints
 62
0
440
16777216
100
AcDbPoint
 10
3736.062289079273
 20
1899.0241941160566
 30
0.0
  0
POINT
  5
521
330
517
100
AcDbEntity
  8
Defpoints
 62
0
440
16777216
100
AcDbPoint
 10
3653.062289079273
 20
1899.0241941160566
 30
0.0
  0
POINT
  5
522
330
517
100
AcDbEntity
  8
Defpoints
 62
0
440
16777216
100
AcDbPoint
 10
3653.062289079273
 20
1943.4102974372236
 30
0.0
  0
ENDBLK
  5
519
330
517
100
AcDbEntity
  8
0
100
AcDbBlockEnd
  0
BLOCK
  5
524
330
523
100
AcDbEntity
  8
0
100
AcDbBlockBegin
  2
*D35
 70
1
 10
0.0
 20
0.0
 30
0.0
  3
*D35
  1

  0
LINE
  5
526
330
523
100
AcDbEntity
  8
DIM
 62
5
370
9
440
16777216
100
AcDbLine
 10
3653.062289079273
 20
1914.0241941160566
 30
0.0
 11
3653.062289079273
 21
1953.4102974372217
 31
0.0
  0
LINE
  5
527
330
523
100
AcDbEntity
  8
DIM
 62
5
370
9
440
16777216
100
AcDbLine
 10
3633.062289079273
 20
1914.0241941160566
 30
0.0
 11
3633.062289079273
 21
1953.4102974372217
 31
0.0
  0
LINE
  5
528
330
523
100
AcDbEntity
  8
DIM
 62
5
370
9
440
16777216
100
AcDbLine
 10
3653.062289079273
 20
1943.4102974372236
 30
0.0
 11
3633.062289079273
 21
1943.4102974372236
 31
0.0
  0
LINE
  5
529
330
523
100
AcDbEntity
  8
DIM
 62
5
370
9
440
16777216
100
AcDbLine
 10
3633.062289079273
 20
1943.4102974372236
 30
0.0
 11
3568.9094923534794
 21
1943.4102974372236
 31
0.0
  0
LINE
  5
52A
330
523
100
AcDbEntity
  8
0
  6
ByBlock
 62
0
370
-2
100
AcDbLine
 10
3649.062289079273
 20
1939.4102974372236
 30
0.0
 11
3657.062289079273
 21
1947.4102974372236
 31
0.0
  0
LINE
  5
52B
330
523
100
AcDbEntity
  8
0
  6
ByBlock
 62
0
370
-2
100
AcDbLine
 10
3637.062289079273
 20
1947.4102974372236
 30
0.0
 11
3629.062289079273
 21
1939.4102974372236
 31
0.0
  0
MTEXT
  5
52C
330
523
100
AcDbEntity
  8
DIM
 62
3
440
16777216
100
AcDbMText
 10
3596.9858907163725
 20
1966.1746221302637
 30
0.0
 40
25.0
 41
0.0
 46
0.0
 71
5
  1
20
  0
POINT
  5
52D
330
523
100
AcDbEntity
  8
Defpoints
 62
0
440
16777216
100
AcDbPoint
 10
3653.062289079273
 20
1899.0241941160566
 30
0.0
  0
POINT
  5
52E
330
523
100
AcDbEntity
  8
Defpoints
 62
0
440
16777216
100
AcDbPoint
 10
3633.062289079273
 20
1899.0241941160566
 30
0.0
  0
POINT
  5
52F
330
523
100
AcDbEntity
  8
Defpoints
 62
0
440
16777216
100
AcDbPoint
 10
3633.062289079273
 20
1943.4102974372236
 30
0.0
  0
ENDBLK
  5
525
330
523
100
AcDbEntity
  8
0
100
AcDbBlockEnd
  0
BLOCK
  5
531
330
530
100
AcDbEntity
  8
0
100
AcDbBlockBegin
  2
*D36
 70
1
 10
0.0
 20
0.0
 30
0.0
  3
*D36
  1

  0
LINE
  5
533
330
530
100
AcDbEntity
  8
DIM
 62
5
370
9
440
16777216
100
AcDbLine
 10
3618.062289079273
 20
1899.0241941160566
 30
0.0
 11
3568.6936734222254
 21
1899.0241941160566
 31
0.0
  0
LINE
  5
534
330
530
100
AcDbEntity
  8
DIM
 62
5
370
9
440
16777216
100
AcDbLine
 10
3618.062289079273
 20
1474.0241941160566
 30
0.0
 11
3568.6936734222254
 21
1474.0241941160566
 31
0.0
  0
LINE
  5
535
330
530
100
AcDbEntity
  8
DIM
 62
5
370
9
440
16777216
100
AcDbLine
 10
3578.6936734222254
 20
1899.0241941160566
 30
0.0
 11
3578.6936734222254
 21
1474.0241941160566
 31
0.0
  0
LINE
  5
536
330
530
100
AcDbEntity
  8
0
  6
ByBlock
 62
0
370
-2
100
AcDbLine
 10
3582.6936734222254
 20
1895.0241941160566
 30
0.0
 11
3574.6936734222254
 21
1903.0241941160566
 31
0.0
  0
LINE
  5
537
330
530
100
AcDbEntity
  8
0
  6
ByBlock
 62
0
370
-2
100
AcDbLine
 10
3574.6936734222254
 20
1478.0241941160566
 30
0.0
 11
3582.6936734222254
 21
1470.0241941160566
 31
0.0
  0
MTEXT
  5
538
330
530
100
AcDbEntity
  8
DIM
 62
3
440
16777216
100
AcDbMText
 10
3555.9293487291725
 20
1686.524194116062
 30
0.0
 40
25.0
 41
0.0
 46
0.0
 71
5
  1
425
 11
1e-16
 21
1.0
 31
0.0
  0
POINT
  5
539
330
530
100
AcDbEntity
  8
Defpoints
 62
0
440
16777216
100
AcDbPoint
 10
3633.062289079273
 20
1899.0241941160566
 30
0.0
  0
POINT
  5
53A
330
530
100
AcDbEntity
  8
Defpoints
 62
0
440
16777216
100
AcDbPoint
 10
3633.062289079273
 20
1474.0241941160566
 30
0.0
  0
POINT
  5
53B
330
530
100
AcDbEntity
  8
Defpoints
 62
0
440
16777216
100
AcDbPoint
 10
3578.6936734222254
 20
1474.0241941160566
 30
0.0
  0
ENDBLK
  5
532
330
530
100
AcDbEntity
  8
0
100
AcDbBlockEnd
  0
BLOCK
  5
53D
330
53C
100
AcDbEntity
  8
0
100
AcDbBlockBegin
  2
*D37
 70
1
 10
0.0
 20
0.0
 30
0.0
  3
*D37
  1

  0
LINE
  5
53F
330
53C
100
AcDbEntity
  8
DIM
 62
5
370
9
440
16777216
100
AcDbLine
 10
3324.713190062561
 20
2715.884802824723
 30
0.0
 11
3324.713190062561
 21
2766.9700627552083
 31
0.0
  0
LINE
  5
540
330
53C
100
AcDbEntity
  8
DIM
 62
5
370
9
440
16777216
100
AcDbLine
 10
4234.713190062561
 20
2715.884802824723
 30
0.0
 11
4234.713190062561
 21
2766.9700627552083
 31
0.0
  0
LINE
  5
541
330
53C
100
AcDbEntity
  8
DIM
 62
5
370
9
440
16777216
100
AcDbLine
 10
3324.713190062561
 20
2756.9700627552083
 30
0.0
 11
4234.713190062561
 21
2756.9700627552083
 31
0.0
  0
LINE
  5
542
330
53C
100
AcDbEntity
  8
0
  6
ByBlock
 62
0
370
-2
100
AcDbLine
 10
3328.713190062561
 20
2760.9700627552083
 30
0.0
 11
3320.713190062561
 21
2752.9700627552083
 31
0.0
  0
LINE
  5
543
330
53C
100
AcDbEntity
  8
0
  6
ByBlock
 62
0
370
-2
100
AcDbLine
 10
4230.713190062561
 20
2752.9700627552083
 30
0.0
 11
4238.713190062561
 21
2760.9700627552083
 31
0.0
  0
MTEXT
  5
544
330
53C
100
AcDbEntity
  8
DIM
 62
3
440
16777216
100
AcDbMText
 10
3779.713190062561
 20
2779.734387448252
 30
0.0
 40
25.0
 41
0.0
 46
0.0
 71
5
  1
910
  0
POINT
  5
545
330
53C
100
AcDbEntity
  8
Defpoints
 62
0
440
16777216
100
AcDbPoint
 10
3324.713190062561
 20
2700.884802824723
 30
0.0
  0
POINT
  5
546
330
53C
100
AcDbEntity
  8
Defpoints
 62
0
440
16777216
100
AcDbPoint
 10
4234.713190062561
 20
2700.884802824723
 30
0.0
  0
POINT
  5
547
330
53C
100
AcDbEntity
  8
Defpoints
 62
0
440
16777216
100
AcDbPoint
 10
4234.713190062561
 20
2756.9700627552083
 30
0.0
  0
ENDBLK
  5
53E
330
53C
100
AcDbEntity
  8
0
100
AcDbBlockEnd
  0
BLOCK
  5
549
330
548
100
AcDbEntity
  8
0
100
AcDbBlockBegin
  2
*D38
 70
1
 10
0.0
 20
0.0
 30
0.0
  3
*D38
  1

  0
LINE
  5
54B
330
548
100
AcDbEntity
  8
DIM
 62
5
370
9
440
16777216
100
AcDbLine
 10
3319.713190062561
 20
2303.9734716351522
 30
0.0
 11
3319.713190062561
 21
2240.9839590437623
 31
0.0
  0
LINE
  5
54C
330
548
100
AcDbEntity
  8
DIM
 62
5
370
9
440
16777216
100
AcDbLine
 10
4239.713190062575
 20
2303.9734716351522
 30
0.0
 11
4239.713190062575
 21
2240.9839590437623
 31
0.0
  0
LINE
  5
54D
330
548
100
AcDbEntity
  8
DIM
 62
5
370
9
440
16777216
100
AcDbLine
 10
3319.713190062561
 20
2250.9839590437623
 30
0.0
 11
4239.713190062575
 21
2250.9839590437623
 31
0.0
  0
LINE
  5
54E
330
548
100
AcDbEntity
  8
0
  6
ByBlock
 62
0
370
-2
100
AcDbLine
 10
3323.713190062561
 20
2254.9839590437623
 30
0.0
 11
3315.713190062561
 21
2246.9839590437623
 31
0.0
  0
LINE
  5
54F
330
548
100
AcDbEntity
  8
0
  6
ByBlock
 62
0
370
-2
100
AcDbLine
 10
4235.713190062575
 20
2246.9839590437623
 30
0.0
 11
4243.713190062575
 21
2254.9839590437623
 31
0.0
  0
MTEXT
  5
550
330
548
100
AcDbEntity
  8
DIM
 62
3
440
16777216
100
AcDbMText
 10
3779.713190062561
 20
2273.7482837368043
 30
0.0
 40
25.0
 41
0.0
 46
0.0
 71
5
  1
920
  0
POINT
  5
551
330
548
100
AcDbEntity
  8
Defpoints
 62
0
440
16777216
100
AcDbPoint
 10
3319.713190062561
 20
2318.9734716351522
 30
0.0
  0
POINT
  5
552
330
548
100
AcDbEntity
  8
Defpoints
 62
0
440
16777216
100
AcDbPoint
 10
4239.713190062575
 20
2318.9734716351522
 30
0.0
  0
POINT
  5
553
330
548
100
AcDbEntity
  8
Defpoints
 62
0
440
16777216
100
AcDbPoint
 10
4239.713190062575
 20
2250.9839590437623
 30
0.0
  0
ENDBLK
  5
54A
330
548
100
AcDbEntity
  8
0
100
AcDbBlockEnd
  0
BLOCK
  5
555
330
554
100
AcDbEntity
  8
0
100
AcDbBlockBegin
  2
*D39
 70
1
 10
0.0
 20
0.0
 30
0.0
  3
*D39
  1

  0
LINE
  5
557
330
554
100
AcDbEntity
  8
DIM
 62
5
370
9
440
16777216
100
AcDbLine
 10
4132.436028789554
 20
857.3476896476868
 30
0.0
 11
4288.919739258992
 21
857.3476896476868
 31
0.0
  0
LINE
  5
558
330
554
100
AcDbEntity
  8
DIM
 62
5
370
9
440
16777216
100
AcDbLine
 10
4132.436028789554
 20
504.3472569180667
 30
0.0
 11
4288.919739258992
 21
504.3472569180667
 31
0.0
  0
LINE
  5
559
330
554
100
AcDbEntity
  8
DIM
 62
5
370
9
440
16777216
100
AcDbLine
 10
4278.9197392589995
 20
857.3476896476868
 30
0.0
 11
4278.9197392589995
 21
504.3472569180667
 31
0.0
  0
LINE
  5
55A
330
554
100
AcDbEntity
  8
0
  6
ByBlock
 62
0
370
-2
100
AcDbLine
 10
4282.9197392589995
 20
853.3476896476868
 30
0.0
 11
4274.9197392589995
 21
861.3476896476868
 31
0.0
  0
LINE
  5
55B
330
554
100
AcDbEntity
  8
0
  6
ByBlock
 62
0
370
-2
100
AcDbLine
 10
4274.9197392589995
 20
508.3472569180667
 30
0.0
 11
4282.9197392589995
 21
500.3472569180667
 31
0.0
  0
MTEXT
  5
55C
330
554
100
AcDbEntity
  8
DIM
 62
3
440
16777216
100
AcDbMText
 10
4256.146887962954
 20
680.8474732828836
 30
0.0
 40
25.0
 41
0.0
 46
0.0
 71
5
  1
353
 11
1e-16
 21
1.0
 31
0.0
  0
POINT
  5
55D
330
554
100
AcDbEntity
  8
Defpoints
 62
0
440
16777216
100
AcDbPoint
 10
4117.436028789554
 20
857.3476896476868
 30
0.0
  0
POINT
  5
55E
330
554
100
AcDbEntity
  8
Defpoints
 62
0
440
16777216
100
AcDbPoint
 10
4117.436028789554
 20
504.3472569180667
 30
0.0
  0
POINT
  5
55F
330
554
100
AcDbEntity
  8
Defpoints
 62
0
440
16777216
100
AcDbPoint
 10
4278.9197392589995
 20
504.3472569180667
 30
0.0
  0
ENDBLK
  5
556
330
554
100
AcDbEntity
  8
0
100
AcDbBlockEnd
  0
BLOCK
  5
561
330
560
100
AcDbEntity
  8
0
100
AcDbBlockBegin
  2
*D40
 70
1
 10
0.0
 20
0.0
 30
0.0
  3
*D40
  1

  0
LINE
  5
563
330
560
100
AcDbEntity
  8
DIM
 62
5
370
9
440
16777216
100
AcDbLine
 10
3182.4360287895543
 20
847.3476896476859
 30
0.0
 11
3088.8867653479756
 21
847.3476896476859
 31
0.0
  0
LINE
  5
564
330
560
100
AcDbEntity
  8
DIM
 62
5
370
9
440
16777216
100
AcDbLine
 10
3182.4360287895543
 20
857.3476896476868
 30
0.0
 11
3088.8867653479756
 21
857.3476896476868
 31
0.0
  0
LINE
  5
565
330
560
100
AcDbEntity
  8
DIM
 62
5
370
9
440
16777216
100
AcDbLine
 10
3098.886765347983
 20
847.3476896476859
 30
0.0
 11
3098.886765347983
 21
839.3476896476859
 31
0.0
  0
LINE
  5
566
330
560
100
AcDbEntity
  8
DIM
 62
5
370
9
440
16777216
100
AcDbLine
 10
3098.886765347983
 20
857.3476896476868
 30
0.0
 11
3098.886765347983
 21
926.7208137950247
 31
0.0
  0
LINE
  5
567
330
560
100
AcDbEntity
  8
DIM
 62
5
370
9
440
16777216
100
AcDbLine
 10
3098.886765347983
 20
847.3476896476859
 30
0.0
 11
3098.886765347983
 21
857.3476896476868
 31
0.0
  0
LINE
  5
568
330
560
100
AcDbEntity
  8
0
  6
ByBlock
 62
0
370
-2
100
AcDbLine
 10
3102.886765347983
 20
843.3476896476859
 30
0.0
 11
3094.886765347983
 21
851.3476896476859
 31
0.0
  0
LINE
  5
569
330
560
100
AcDbEntity
  8
0
  6
ByBlock
 62
0
370
-2
100
AcDbLine
 10
3094.886765347983
 20
861.3476896476868
 30
0.0
 11
3102.886765347983
 21
853.3476896476868
 31
0.0
  0
MTEXT
  5
56A
330
560
100
AcDbEntity
  8
DIM
 62
3
440
16777216
100
AcDbMText
 10
3076.12244065493
 20
900.034251721363
 30
0.0
 40
25.0
 41
0.0
 46
0.0
 71
5
  1
10
 11
1e-16
 21
1.0
 31
0.0
  0
POINT
  5
56B
330
560
100
AcDbEntity
  8
Defpoints
 62
0
440
16777216
100
AcDbPoint
 10
3197.4360287895397
 20
847.3476896476859
 30
0.0
  0
POINT
  5
56C
330
560
100
AcDbEntity
  8
Defpoints
 62
0
440
16777216
100
AcDbPoint
 10
3197.4360287895397
 20
857.3476896476868
 30
0.0
  0
POINT
  5
56D
330
560
100
AcDbEntity
  8
Defpoints
 62
0
440
16777216
100
AcDbPoint
 10
3098.886765347983
 20
857.3476896476868
 30
0.0
  0
ENDBLK
  5
562
330
560
100
AcDbEntity
  8
0
100
AcDbBlockEnd
  0
BLOCK
  5
56F
330
56E
100
AcDbEntity
  8
0
100
AcDbBlockBegin
  2
*D41
 70
1
 10
0.0
 20
0.0
 30
0.0
  3
*D41
  1

  0
LINE
  5
571
330
56E
100
AcDbEntity
  8
DIM
 62
5
370
9
440
16777216
100
AcDbLine
 10
3132.4360287895543
 20
797.3476896476859
 30
0.0
 11
3088.8867653479756
 21
797.3476896476859
 31
0.0
  0
LINE
  5
572
330
56E
100
AcDbEntity
  8
DIM
 62
5
370
9
440
16777216
100
AcDbLine
 10
3182.4360287895543
 20
847.3476896476859
 30
0.0
 11
3088.8867653479756
 21
847.3476896476859
 31
0.0
  0
LINE
  5
573
330
56E
100
AcDbEntity
  8
DIM
 62
5
370
9
440
16777216
100
AcDbLine
 10
3098.886765347983
 20
797.3476896476859
 30
0.0
 11
3098.886765347983
 21
847.3476896476859
 31
0.0
  0
LINE
  5
574
330
56E
100
AcDbEntity
  8
0
  6
ByBlock
 62
0
370
-2
100
AcDbLine
 10
3094.886765347983
 20
801.3476896476859
 30
0.0
 11
3102.886765347983
 21
793.3476896476859
 31
0.0
  0
LINE
  5
575
330
56E
100
AcDbEntity
  8
0
  6
ByBlock
 62
0
370
-2
100
AcDbLine
 10
3102.886765347983
 20
843.3476896476859
 30
0.0
 11
3094.886765347983
 21
851.3476896476859
 31
0.0
  0
MTEXT
  5
576
330
56E
100
AcDbEntity
  8
DIM
 62
3
440
16777216
100
AcDbMText
 10
3076.12244065493
 20
822.3476896476932
 30
0.0
 40
25.0
 41
0.0
 46
0.0
 71
5
  1
50
 11
1e-16
 21
1.0
 31
0.0
  0
POINT
  5
577
330
56E
100
AcDbEntity
  8
Defpoints
 62
0
440
16777216
100
AcDbPoint
 10
3147.4360287895543
 20
797.3476896476859
 30
0.0
  0
POINT
  5
578
330
56E
100
AcDbEntity
  8
Defpoints
 62
0
440
16777216
100
AcDbPoint
 10
3197.4360287895397
 20
847.3476896476859
 30
0.0
  0
POINT
  5
579
330
56E
100
AcDbEntity
  8
Defpoints
 62
0
440
16777216
100
AcDbPoint
 10
3098.886765347983
 20
847.3476896476859
 30
0.0
  0
ENDBLK
  5
570
330
56E
100
AcDbEntity
  8
0
100
AcDbBlockEnd
  0
BLOCK
  5
57B
330
57A
100
AcDbEntity
  8
0
100
AcDbBlockBegin
  2
*D42
 70
1
 10
0.0
 20
0.0
 30
0.0
  3
*D42
  1

  0
LINE
  5
57D
330
57A
100
AcDbEntity
  8
DIM
 62
5
370
9
440
16777216
100
AcDbLine
 10
3132.4360287895543
 20
797.3476896476859
 30
0.0
 11
3088.8867653479756
 21
797.3476896476859
 31
0.0
  0
LINE
  5
57E
330
57A
100
AcDbEntity
  8
DIM
 62
5
370
9
440
16777216
100
AcDbLine
 10
3132.4360287895543
 20
564.3472569180658
 30
0.0
 11
3088.8867653479756
 21
564.3472569180658
 31
0.0
  0
LINE
  5
57F
330
57A
100
AcDbEntity
  8
DIM
 62
5
370
9
440
16777216
100
AcDbLine
 10
3098.886765347983
 20
797.3476896476859
 30
0.0
 11
3098.886765347983
 21
564.3472569180658
 31
0.0
  0
LINE
  5
580
330
57A
100
AcDbEntity
  8
0
  6
ByBlock
 62
0
370
-2
100
AcDbLine
 10
3102.886765347983
 20
793.3476896476859
 30
0.0
 11
3094.886765347983
 21
801.3476896476859
 31
0.0
  0
LINE
  5
581
330
57A
100
AcDbEntity
  8
0
  6
ByBlock
 62
0
370
-2
100
AcDbLine
 10
3094.886765347983
 20
568.3472569180658
 30
0.0
 11
3102.886765347983
 21
560.3472569180658
 31
0.0
  0
MTEXT
  5
582
330
57A
100
AcDbEntity
  8
DIM
 62
3
440
16777216
100
AcDbMText
 10
3076.11391405193
 20
680.8474732828836
 30
0.0
 40
25.0
 41
0.0
 46
0.0
 71
5
  1
233
 11
1e-16
 21
1.0
 31
0.0
  0
POINT
  5
583
330
57A
100
AcDbEntity
  8
Defpoints
 62
0
440
16777216
100
AcDbPoint
 10
3147.4360287895543
 20
797.3476896476859
 30
0.0
  0
POINT
  5
584
330
57A
100
AcDbEntity
  8
Defpoints
 62
0
440
16777216
100
AcDbPoint
 10
3147.4360287895543
 20
564.3472569180658
 30
0.0
  0
POINT
  5
585
330
57A
100
AcDbEntity
  8
Defpoints
 62
0
440
16777216
100
AcDbPoint
 10
3098.886765347983
 20
564.3472569180658
 30
0.0
  0
ENDBLK
  5
57C
330
57A
100
AcDbEntity
  8
0
100
AcDbBlockEnd
  0
BLOCK
  5
587
330
586
100
AcDbEntity
  8
0
100
AcDbBlockBegin
  2
*D43
 70
1
 10
0.0
 20
0.0
 30
0.0
  3
*D43
  1

  0
LINE
  5
589
330
586
100
AcDbEntity
  8
DIM
 62
5
370
9
440
16777216
100
AcDbLine
 10
3132.4360287895543
 20
564.3472569180658
 30
0.0
 11
3088.8867653479756
 21
564.3472569180658
 31
0.0
  0
LINE
  5
58A
330
586
100
AcDbEntity
  8
DIM
 62
5
370
9
440
16777216
100
AcDbLine
 10
3182.4360287895543
 20
514.3472569180658
 30
0.0
 11
3088.8867653479756
 21
514.3472569180658
 31
0.0
  0
LINE
  5
58B
330
586
100
AcDbEntity
  8
DIM
 62
5
370
9
440
16777216
100
AcDbLine
 10
3098.886765347983
 20
564.3472569180658
 30
0.0
 11
3098.886765347983
 21
514.3472569180658
 31
0.0
  0
LINE
  5
58C
330
586
100
AcDbEntity
  8
0
  6
ByBlock
 62
0
370
-2
100
AcDbLine
 10
3102.886765347983
 20
560.3472569180658
 30
0.0
 11
3094.886765347983
 21
568.3472569180658
 31
0.0
  0
LINE
  5
58D
330
586
100
AcDbEntity
  8
0
  6
ByBlock
 62
0
370
-2
100
AcDbLine
 10
3094.886765347983
 20
518.3472569180658
 30
0.0
 11
3102.886765347983
 21
510.3472569180658
 31
0.0
  0
MTEXT
  5
58E
330
586
100
AcDbEntity
  8
DIM
 62
3
440
16777216
100
AcDbMText
 10
3076.12244065493
 20
539.3472569180749
 30
0.0
 40
25.0
 41
0.0
 46
0.0
 71
5
  1
50
 11
1e-16
 21
1.0
 31
0.0
  0
POINT
  5
58F
330
586
100
AcDbEntity
  8
Defpoints
 62
0
440
16777216
100
AcDbPoint
 10
3147.4360287895543
 20
564.3472569180658
 30
0.0
  0
POINT
  5
590
330
586
100
AcDbEntity
  8
Defpoints
 62
0
440
16777216
100
AcDbPoint
 10
3197.4360287895397
 20
514.3472569180658
 30
0.0
  0
POINT
  5
591
330
586
100
AcDbEntity
  8
Defpoints
 62
0
440
16777216
100
AcDbPoint
 10
3098.886765347983
 20
514.3472569180658
 30
0.0
  0
ENDBLK
  5
588
330
586
100
AcDbEntity
  8
0
100
AcDbBlockEnd
  0
BLOCK
  5
593
330
592
100
AcDbEntity
  8
0
100
AcDbBlockBegin
  2
*D44
 70
1
 10
0.0
 20
0.0
 30
0.0
  3
*D44
  1

  0
LINE
  5
595
330
592
100
AcDbEntity
  8
DIM
 62
5
370
9
440
16777216
100
AcDbLine
 10
3182.4360287895543
 20
514.3472569180658
 30
0.0
 11
3088.8867653479756
 21
514.3472569180658
 31
0.0
  0
LINE
  5
596
330
592
100
AcDbEntity
  8
DIM
 62
5
370
9
440
16777216
100
AcDbLine
 10
3182.4360287895543
 20
504.3472569180667
 30
0.0
 11
3088.8867653479756
 21
504.3472569180667
 31
0.0
  0
LINE
  5
597
330
592
100
AcDbEntity
  8
DIM
 62
5
370
9
440
16777216
100
AcDbLine
 10
3098.886765347983
 20
514.3472569180658
 30
0.0
 11
3098.886765347983
 21
522.3472569180667
 31
0.0
  0
LINE
  5
598
330
592
100
AcDbEntity
  8
DIM
 62
5
370
9
440
16777216
100
AcDbLine
 10
3098.886765347983
 20
504.3472569180667
 30
0.0
 11
3098.886765347983
 21
434.974132770727
 31
0.0
  0
LINE
  5
599
330
592
100
AcDbEntity
  8
DIM
 62
5
370
9
440
16777216
100
AcDbLine
 10
3098.886765347983
 20
514.3472569180658
 30
0.0
 11
3098.886765347983
 21
504.3472569180667
 31
0.0
  0
LINE
  5
59A
330
592
100
AcDbEntity
  8
0
  6
ByBlock
 62
0
370
-2
100
AcDbLine
 10
3094.886765347983
 20
518.3472569180658
 30
0.0
 11
3102.886765347983
 21
510.3472569180658
 31
0.0
  0
LINE
  5
59B
330
592
100
AcDbEntity
  8
0
  6
ByBlock
 62
0
370
-2
100
AcDbLine
 10
3102.886765347983
 20
500.3472569180667
 30
0.0
 11
3094.886765347983
 21
508.3472569180667
 31
0.0
  0
MTEXT
  5
59C
330
592
100
AcDbEntity
  8
DIM
 62
3
440
16777216
100
AcDbMText
 10
3076.12244065493
 20
461.66069484440504
 30
0.0
 40
25.0
 41
0.0
 46
0.0
 71
5
  1
10
 11
1e-16
 21
1.0
 31
0.0
  0
POINT
  5
59D
330
592
100
AcDbEntity
  8
Defpoints
 62
0
440
16777216
100
AcDbPoint
 10
3197.4360287895397
 20
514.3472569180658
 30
0.0
  0
POINT
  5
59E
330
592
100
AcDbEntity
  8
Defpoints
 62
0
440
16777216
100
AcDbPoint
 10
3197.4360287895397
 20
504.3472569180667
 30
0.0
  0
POINT
  5
59F
330
592
100
AcDbEntity
  8
Defpoints
 62
0
440
16777216
100
AcDbPoint
 10
3098.886765347983
 20
504.3472569180667
 30
0.0
  0
ENDBLK
  5
594
330
592
100
AcDbEntity
  8
0
100
AcDbBlockEnd
  0
BLOCK
  5
5A1
330
5A0
100
AcDbEntity
  8
0
100
AcDbBlockBegin
  2
*D45
 70
1
 10
0.0
 20
0.0
 30
0.0
  3
*D45
  1

  0
LINE
  5
5A3
330
5A0
100
AcDbEntity
  8
DIM
 62
5
370
9
440
16777216
100
AcDbLine
 10
3147.4360287895543
 20
812.3476896476868
 30
0.0
 11
3147.4360287895543
 21
987.2913117825583
 31
0.0
  0
LINE
  5
5A4
330
5A0
100
AcDbEntity
  8
DIM
 62
5
370
9
440
16777216
100
AcDbLine
 10
4167.436028789554
 20
812.3476896476868
 30
0.0
 11
4167.436028789554
 21
987.2913117825583
 31
0.0
  0
LINE
  5
5A5
330
5A0
100
AcDbEntity
  8
DIM
 62
5
370
9
440
16777216
100
AcDbLine
 10
3147.4360287895543
 20
977.2913117825583
 30
0.0
 11
4167.436028789554
 21
977.2913117825583
 31
0.0
  0
LINE
  5
5A6
330
5A0
100
AcDbEntity
  8
0
  6
ByBlock
 62
0
370
-2
100
AcDbLine
 10
3151.4360287895543
 20
981.2913117825583
 30
0.0
 11
3143.4360287895543
 21
973.2913117825583
 31
0.0
  0
LINE
  5
5A7
330
5A0
100
AcDbEntity
  8
0
  6
ByBlock
 62
0
370
-2
100
AcDbLine
 10
4163.436028789554
 20
973.2913117825583
 30
0.0
 11
4171.436028789554
 21
981.2913117825583
 31
0.0
  0
MTEXT
  5
5A8
330
5A0
100
AcDbEntity
  8
DIM
 62
3
440
16777216
100
AcDbMText
 10
3657.4360287895543
 20
1000.0556364756021
 30
0.0
 40
25.0
 41
0.0
 46
0.0
 71
5
  1
1020
  0
POINT
  5
5A9
330
5A0
100
AcDbEntity
  8
Defpoints
 62
0
440
16777216
100
AcDbPoint
 10
3147.4360287895543
 20
797.3476896476859
 30
0.0
  0
POINT
  5
5AA
330
5A0
100
AcDbEntity
  8
Defpoints
 62
0
440
16777216
100
AcDbPoint
 10
4167.436028789554
 20
797.3476896476859
 30
0.0
  0
POINT
  5
5AB
330
5A0
100
AcDbEntity
  8
Defpoints
 62
0
440
16777216
100
AcDbPoint
 10
4167.436028789554
 20
977.2913117825583
 30
0.0
  0
ENDBLK
  5
5A2
330
5A0
100
AcDbEntity
  8
0
100
AcDbBlockEnd
  0
BLOCK
  5
5AD
330
5AC
100
AcDbEntity
  8
0
100
AcDbBlockBegin
  2
*D46
 70
1
 10
0.0
 20
0.0
 30
0.0
  3
*D46
  1

  0
LINE
  5
5AF
330
5AC
100
AcDbEntity
  8
DIM
 62
5
370
9
440
16777216
100
AcDbLine
 10
4117.436028789554
 20
872.347689647685
 30
0.0
 11
4117.436028789554
 21
910.7672523085994
 31
0.0
  0
LINE
  5
5B0
330
5AC
100
AcDbEntity
  8
DIM
 62
5
370
9
440
16777216
100
AcDbLine
 10
3197.4360287895397
 20
872.347689647685
 30
0.0
 11
3197.4360287895397
 21
910.7672523085994
 31
0.0
  0
LINE
  5
5B1
330
5AC
100
AcDbEntity
  8
DIM
 62
5
370
9
440
16777216
100
AcDbLine
 10
4117.436028789554
 20
900.7672523085994
 30
0.0
 11
3197.4360287895397
 21
900.7672523085994
 31
0.0
  0
LINE
  5
5B2
330
5AC
100
AcDbEntity
  8
0
  6
ByBlock
 62
0
370
-2
100
AcDbLine
 10
4113.436028789554
 20
896.7672523085994
 30
0.0
 11
4121.436028789554
 21
904.7672523085994
 31
0.0
  0
LINE
  5
5B3
330
5AC
100
AcDbEntity
  8
0
  6
ByBlock
 62
0
370
-2
100
AcDbLine
 10
3201.4360287895397
 20
904.7672523085994
 30
0.0
 11
3193.4360287895397
 21
896.7672523085994
 31
0.0
  0
MTEXT
  5
5B4
330
5AC
100
AcDbEntity
  8
DIM
 62
3
440
16777216
100
AcDbMText
 10
3657.4360287895543
 20
923.5315770016423
 30
0.0
 40
25.0
 41
0.0
 46
0.0
 71
5
  1
920
  0
POINT
  5
5B5
330
5AC
100
AcDbEntity
  8
Defpoints
 62
0
440
16777216
100
AcDbPoint
 10
4117.436028789554
 20
857.3476896476868
 30
0.0
  0
POINT
  5
5B6
330
5AC
100
AcDbEntity
  8
Defpoints
 62
0
440
16777216
100
AcDbPoint
 10
3197.4360287895397
 20
857.3476896476868
 30
0.0
  0
POINT
  5
5B7
330
5AC
100
AcDbEntity
  8
Defpoints
 62
0
440
16777216
100
AcDbPoint
 10
3197.4360287895397
 20
900.7672523085994
 30
0.0
  0
ENDBLK
  5
5AE
330
5AC
100
AcDbEntity
  8
0
100
AcDbBlockEnd
  0
ENDSEC
  0
SECTION
  2
ENTITIES
  0
INSERT
  5
2F
330
17
100
AcDbEntity
  8
0
 62
7
100
AcDbBlockReference
 66
1
  2
khungtenAsean2
 10
0.0
 20
3150.00000000048
 30
0.0
 41
1.5
 42
1.5
 43
1.5
  0
ATTRIB
  5
30
330
2F
100
AcDbEntity
  8
0
 62
1
100
AcDbText
 10
4325.64631941844
 20
48.978299843221066
 30
0.0
 40
37.5
  1
......
  7
Tahoma (Input Text)
 72
1
 11
4372.489838558802
 21
48.978299843221066
 31
0.0
100
AcDbAttribute
  2
#11
 70
0
 71
1
 72
0
 11
4372.489838558802
 21
48.978299843221066
 31
0.0
  0
ATTRIB
  5
31
330
2F
100
AcDbEntity
  8
0
 62
1
100
AcDbText
 10
3220.0754662311956
 20
118.08718246247645
 30
0.0
 40
37.5
  1
TỦ NGOÀI TRỜI, 2 LỚP CÁNH
  7
Tahoma (Input Text)
100
AcDbAttribute
  2
#09
 70
0
 71
1
 72
0
  0
ATTRIB
  5
32
330
2F
100
AcDbEntity
  8
0
 62
1
100
AcDbText
 10
3220.0754662311956
 20
28.087182462477358
 30
0.0
 40
37.5
  1
......
  7
Tahoma (Input Text)
100
AcDbAttribute
  2
#10
 70
0
 71
1
 72
0
  0
ATTRIB
  5
33
330
2F
100
AcDbEntity
  8
0
 62
1
100
AcDbText
 10
2726.1716486000005
 20
28.087182462477358
 30
0.0
 40
37.5
  1
2
  7
Tahoma (Input Text)
100
AcDbAttribute
  2
#08
 70
0
 71
1
 72
0
  0
ATTRIB
  5
34
330
2F
100
AcDbEntity
  8
0
 62
1
100
AcDbText
 10
2752.0222654883255
 20
118.08718246247645
 30
0.0
 40
37.5
  1
2
  7
Tahoma (Input Text)
100
AcDbAttribute
  2
#07
 70
0
 71
1
 72
0
  0
ATTRIB
  5
35
330
2F
100
AcDbEntity
  8
0
 62
1
100
AcDbText
 10
1597.9963337154622
 20
28.087182462477358
 30
0.0
 40
37.5
  1
1900X1000X600
  7
Tahoma (Input Text)
100
AcDbAttribute
  2
#06
 70
0
 71
1
 72
0
  0
ATTRIB
  5
36
330
2F
100
AcDbEntity
  8
0
 62
1
100
AcDbText
 10
1659.942265683232
 20
118.08718246247645
 30
0.0
 40
37.5
  1
VÕ TỦ
  7
Tahoma (Input Text)
100
AcDbAttribute
  2
#05
 70
0
 71
1
 72
0
  0
ATTRIB
  5
37
330
2F
100
AcDbEntity
  8
0
 62
1
100
AcDbText
 10
729.1575405082331
 20
28.087182462477358
 30
0.0
 40
37.5
  1
24/12/2020
  7
Tahoma (Input Text)
100
AcDbAttribute
  2
#04
 70
0
 71
1
 72
0
  0
ATTRIB
  5
38
330
2F
100
AcDbEntity
  8
0
 62
1
100
AcDbText
 10
759.8561234200461
 20
121.04759926592033
 30
0.0
 40
37.5
  1
QUÝ QTK
  7
Tahoma (Input Text)
100
AcDbAttribute
  2
#03
 70
0
 71
1
 72
0
  0
ATTRIB
  5
39
330
2F
100
AcDbEntity
  8
0
 62
1
100
AcDbText
 10
147.68508675474004
 20
28.087182462477358
 30
0.0
 40
37.5
  1
......
  7
Tahoma (Input Text)
100
AcDbAttribute
  2
#02
 70
0
 71
1
 72
0
  0
ATTRIB
  5
3A
330
2F
100
AcDbEntity
  8
0
 62
1
100
AcDbText
 10
205.5802617562731
 20
118.08718246247645
 30
0.0
 40
37.5
  1
PHÚC
  7
Tahoma (Input Text)
100
AcDbAttribute
  2
#01
 70
0
 71
1
 72
0
  0
SEQEND
  5
3B
330
17
100
AcDbEntity
  8
0
 62
7
  0
LWPOLYLINE
  5
3C
330
17
100
AcDbEntity
  8
0
 62
7
100
AcDbPolyline
 90
4
 70
1
 10
576.0913445982442
 20
2915.3595095218516
 10
1571.0913445982442
 20
2915.3595095218516
 10
1571.0913445982442
 20
1158.884963962475
 10
576.0913445982442
 20
1158.884963962475
  0
LWPOLYLINE
  5
3D
330
17
100
AcDbEntity
  8
0
 62
7
100
AcDbPolyline
 90
22
 70
0
 10
1603.0913445982442
 20
1229.3849639624823
 10
1603.0913445982442
 20
1170.884963962475
 10
1591.0913445982296
 20
1158.884963962475
 10
1571.0913445982442
 20
1158.884963962475
 10
1571.0913445982442
 20
1138.884963962475
 10
1559.0913445982442
 20
1126.884963962475
 10
588.0913445982442
 20
1126.884963962475
 10
576.0913445982442
 20
1138.884963962475
 10
576.0913445982442
 20
1158.884963962475
 10
556.0913445982442
 20
1158.884963962475
 10
544.0913445982442
 20
1170.8849639624914
 10
544.0913445982442
 20
2903.3595095218516
 10
556.0913445982442
 20
2915.3595095218516
 10
576.0913445982442
 20
2915.3595095218516
 10
576.0913445982442
 20
2935.3595095218516
 10
588.0913445982442
 20
2947.3595095218516
 10
1559.0913445982442
 20
2947.3595095218516
 10
1571.0913445982442
 20
2935.3595095218516
 10
1571.0913445982442
 20
2915.3595095218516
 10
1591.0913445982296
 20
2915.3595095218516
 10
1603.0913445982515
 20
2903.3595095218607
 10
1603.0913445982515
 20
2844.859509521848
  0
LWPOLYLINE
  5
3E
330
17
100
AcDbEntity
  8
0
 62
7
100
AcDbPolyline
 90
2
 70
0
 10
1603.0913445982442
 20
2764.859509521848
 10
1603.0913445982442
 20
2077.122236742156
  0
LWPOLYLINE
  5
3F
330
17
100
AcDbEntity
  8
0
 62
7
100
AcDbPolyline
 90
2
 70
0
 10
1591.0913445982296
 20
2915.3595095218516
 10
1591.0913445982296
 20
2844.859509521848
  0
LWPOLYLINE
  5
40
330
17
100
AcDbEntity
  8
0
 62
7
100
AcDbPolyline
 90
2
 70
0
 10
1591.0913445982296
 20
2764.859509521848
 10
1591.0913445982296
 20
2077.122236742156
  0
LWPOLYLINE
  5
41
330
17
100
AcDbEntity
  8
0
 62
7
100
AcDbPolyline
 90
2
 70
0
 10
1591.0913445982296
 20
1229.3849639624823
 10
1591.0913445982296
 20
1158.884963962475
  0
LWPOLYLINE
  5
42
330
17
100
AcDbEntity
  8
0
 62
7
100
AcDbPolyline
 90
2
 70
0
 10
1571.0913445982442
 20
1138.884963962475
 10
576.0913445982442
 20
1138.884963962475
  0
LWPOLYLINE
  5
43
330
17
100
AcDbEntity
  8
0
 62
7
100
AcDbPolyline
 90
2
 70
0
 10
556.0913445982442
 20
1158.884963962475
 10
556.0913445982442
 20
2915.3595095218516
  0
LWPOLYLINE
  5
44
330
17
100
AcDbEntity
  8
0
 62
7
100
AcDbPolyline
 90
2
 70
0
 10
576.0913445982442
 20
2935.3595095218516
 10
1571.0913445982442
 20
2935.3595095218516
  0
LWPOLYLINE
  5
45
330
17
100
AcDbEntity
  8
0
 62
2
100
AcDbPolyline
 90
4
 70
0
 10
1603.0913445982515
 20
2764.859509521848
 10
1588.0913445982515
 20
2764.859509521848
 10
1588.0913445982515
 20
2844.859509521848
 10
1603.0913445982515
 20
2844.859509521848
  0
LWPOLYLINE
  5
46
330
17
100
AcDbEntity
  8
0
 62
2
100
AcDbPolyline
 90
4
 70
0
 10
1603.0913445982515
 20
1309.3849639624823
 10
1588.0913445982515
 20
1309.3849639624823
 10
1588.0913445982515
 20
1229.3849639624823
 10
1603.0913445982515
 20
1229.3849639624823
  0
INSERT
  5
47
330
17
100
AcDbEntity
  8
0
370
-3
100
AcDbBlockReference
  2
f3daunguoc
 10
591.0913445982442
 20
2915.3595095218516
 30
0.0
 41
-1.0
 50
180.0
  0
INSERT
  5
49
330
17
100
AcDbEntity
  8
0
370
-3
100
AcDbBlockReference
  2
f3daunguoc
 10
576.0913445982442
 20
2900.3595095218516
 30
0.0
 41
-1.0
 50
180.0
  0
INSERT
  5
4B
330
17
100
AcDbEntity
  8
0
370
-3
100
AcDbBlockReference
  2
f3daunguoc
 10
591.0913445982442
 20
2935.3595095218516
 30
0.0
 41
-1.0
 50
180.0
  0
INSERT
  5
4D
330
17
100
AcDbEntity
  8
0
370
-3
100
AcDbBlockReference
  2
f3daunguoc
 10
556.0913445982442
 20
2900.3595095218516
 30
0.0
 41
-1.0
 50
180.0
  0
INSERT
  5
4F
330
17
100
AcDbEntity
  8
0
370
-3
100
AcDbBlockReference
  2
f3daunguoc
 10
641.0913445982442
 20
2915.3595095218516
 30
0.0
 41
-1.0
 50
180.0
  0
INSERT
  5
51
330
17
100
AcDbEntity
  8
0
370
-3
100
AcDbBlockReference
  2
f3daunguoc
 10
641.0913445982442
 20
2935.3595095218516
 30
0.0
 41
-1.0
 50
180.0
  0
INSERT
  5
53
330
17
100
AcDbEntity
  8
0
370
-3
100
AcDbBlockReference
  2
f3daunguoc
 10
1556.0913445982442
 20
2915.3595095218516
 30
0.0
 50
180.0
  0
INSERT
  5
55
330
17
100
AcDbEntity
  8
0
370
-3
100
AcDbBlockReference
  2
f3daunguoc
 10
1571.0913445982442
 20
2900.3595095218516
 30
0.0
 50
180.0
  0
INSERT
  5
57
330
17
100
AcDbEntity
  8
0
370
-3
100
AcDbBlockReference
  2
f3daunguoc
 10
1556.0913445982442
 20
2935.3595095218516
 30
0.0
 50
180.0
  0
INSERT
  5
59
330
17
100
AcDbEntity
  8
0
370
-3
100
AcDbBlockReference
  2
f3daunguoc
 10
1591.0913445982296
 20
2900.3595095218516
 30
0.0
 50
180.0
  0
INSERT
  5
5B
330
17
100
AcDbEntity
  8
0
370
-3
100
AcDbBlockReference
  2
f3daunguoc
 10
1506.0913445982442
 20
2915.3595095218516
 30
0.0
 50
180.0
  0
INSERT
  5
5D
330
17
100
AcDbEntity
  8
0
370
-3
100
AcDbBlockReference
  2
f3daunguoc
 10
1506.0913445982442
 20
2935.3595095218516
 30
0.0
 50
180.0
  0
INSERT
  5
5F
330
17
100
AcDbEntity
  8
0
370
-3
100
AcDbBlockReference
  2
f3daunguoc
 10
591.0913445982442
 20
1158.8849639624896
 30
0.0
  0
INSERT
  5
61
330
17
100
AcDbEntity
  8
0
370
-3
100
AcDbBlockReference
  2
f3daunguoc
 10
576.0913445982442
 20
1173.8849639624896
 30
0.0
  0
INSERT
  5
63
330
17
100
AcDbEntity
  8
0
370
-3
100
AcDbBlockReference
  2
f3daunguoc
 10
591.0913445982442
 20
1138.8849639624914
 30
0.0
  0
INSERT
  5
65
330
17
100
AcDbEntity
  8
0
370
-3
100
AcDbBlockReference
  2
f3daunguoc
 10
556.0913445982442
 20
1173.8849639624896
 30
0.0
  0
INSERT
  5
67
330
17
100
AcDbEntity
  8
0
370
-3
100
AcDbBlockReference
  2
f3daunguoc
 10
641.0913445982442
 20
1158.8849639624896
 30
0.0
  0
INSERT
  5
69
330
17
100
AcDbEntity
  8
0
370
-3
100
AcDbBlockReference
  2
f3daunguoc
 10
641.0913445982442
 20
1138.8849639624914
 30
0.0
  0
INSERT
  5
6B
330
17
100
AcDbEntity
  8
0
370
-3
100
AcDbBlockReference
  2
f3daunguoc
 10
1556.0913445982442
 20
1158.8849639624896
 30
0.0
 41
-1.0
  0
INSERT
  5
6D
330
17
100
AcDbEntity
  8
0
370
-3
100
AcDbBlockReference
  2
f3daunguoc
 10
1571.0913445982442
 20
1173.8849639624896
 30
0.0
 41
-1.0
  0
INSERT
  5
6F
330
17
100
AcDbEntity
  8
0
370
-3
100
AcDbBlockReference
  2
f3daunguoc
 10
1556.0913445982442
 20
1138.8849639624914
 30
0.0
 41
-1.0
  0
INSERT
  5
71
330
17
100
AcDbEntity
  8
0
370
-3
100
AcDbBlockReference
  2
f3daunguoc
 10
1591.0913445982296
 20
1173.8849639624896
 30
0.0
 41
-1.0
  0
INSERT
  5
73
330
17
100
AcDbEntity
  8
0
370
-3
100
AcDbBlockReference
  2
f3daunguoc
 10
1506.0913445982442
 20
1158.8849639624896
 30
0.0
 41
-1.0
  0
INSERT
  5
75
330
17
100
AcDbEntity
  8
0
370
-3
100
AcDbBlockReference
  2
f3daunguoc
 10
1506.0913445982442
 20
1138.8849639624914
 30
0.0
 41
-1.0
  0
LWPOLYLINE
  5
77
330
17
100
AcDbEntity
  8
0
 62
2
100
AcDbPolyline
 90
4
 70
0
 10
1603.0913445982515
 20
1997.1222367421578
 10
1588.0913445982515
 20
1997.1222367421578
 10
1588.0913445982515
 20
2077.122236742156
 10
1603.0913445982515
 20
2077.122236742156
  0
LWPOLYLINE
  5
78
330
17
100
AcDbEntity
  8
0
 62
7
100
AcDbPolyline
 90
2
 70
0
 10
1603.0913445982442
 20
1997.1222367421578
 10
1603.0913445982442
 20
1309.3849639624823
  0
LWPOLYLINE
  5
79
330
17
100
AcDbEntity
  8
0
 62
7
100
AcDbPolyline
 90
2
 70
0
 10
1591.0913445982296
 20
1997.1222367421578
 10
1591.0913445982296
 20
1309.3849639624823
  0
LWPOLYLINE
  5
7A
330
17
100
AcDbEntity
  8
0
 62
2
100
AcDbPolyline
 90
8
 70
1
 10
948.5913445982442
 20
2446.306609361116
 10
1198.5913445982296
 20
2446.306609361116
 42
0.4142135623730951
 10
1248.5913445982442
 20
2496.306609361116
 10
1248.5913445982442
 20
2746.306609361116
 42
0.4142135623730951
 10
1198.5913445982296
 20
2796.306609361116
 10
948.5913445982442
 20
2796.306609361116
 42
0.4142135623730951
 10
898.5913445982442
 20
2746.306609361116
 10
898.5913445982442
 20
2496.306609361116
 42
0.4142135623730951
  0
CIRCLE
  5
7B
330
17
100
AcDbEntity
  8
0
 62
2
100
AcDbCircle
 10
657.5913445982296
 20
2056.884963962475
 30
0.0
 40
12.5
  0
CIRCLE
  5
7C
330
17
100
AcDbEntity
  8
0
 62
2
100
AcDbCircle
 10
657.5913445982296
 20
2073.884963962475
 30
0.0
 40
3.0
  0
CIRCLE
  5
7D
330
17
100
AcDbEntity
  8
0
 62
2
100
AcDbCircle
 10
657.5913445982296
 20
2039.8849639624732
 30
0.0
 40
3.0
  0
DIMENSION
  5
7E
330
17
100
AcDbEntity
  8
DIM
100
AcDbDimension
280
0
  2
*D1
  3
Dim-25
 10
1603.0913445982515
 20
2990.6373433566605
 30
0.0
 11
1645.6926406419152
 21
3013.18850297467
 31
0.0
 70
32
 71
5
 42
12.00000000001455
 73
0
 74
0
 75
0
100
AcDbAlignedDimension
 13
1591.0913445982296
 23
2915.3595095218516
 33
0.0
 14
1603.0913445982515
 24
2903.3595095218607
 34
0.0
 50
0.0
100
AcDbRotatedDimension
  0
DIMENSION
  5
83
330
17
100
AcDbEntity
  8
DIM
100
AcDbDimension
280
0
  2
*D2
  3
Dim-25
 10
1591.0913445982296
 20
3035.7131795886507
 30
0.0
 11
1627.16774296113
 21
3058.477504281691
 31
0.0
 70
32
 71
5
 42
20.0
 73
0
 74
0
 75
0
100
AcDbAlignedDimension
 13
1571.0913445982442
 23
2935.3595095218516
 33
0.0
 14
1591.0913445982296
 24
2915.3595095218516
 34
0.0
 50
0.0
100
AcDbRotatedDimension
  0
DIMENSION
  5
84
330
17
100
AcDbEntity
  8
DIM
100
AcDbDimension
280
0
  2
*D3
  3
Dim-25
 10
576.0913445982442
 20
3035.7131795886507
 30
0.0
 11
1073.5913445982442
 21
3058.477504281691
 31
0.0
 70
32
 71
5
 42
995.0
 73
0
 74
0
 75
0
100
AcDbAlignedDimension
 13
1571.0913445982442
 23
2935.3595095218516
 33
0.0
 14
576.0913445982442
 24
2935.3595095218516
 34
0.0
 50
0.0
100
AcDbRotatedDimension
  0
DIMENSION
  5
85
330
17
100
AcDbEntity
  8
DIM
100
AcDbDimension
280
0
  2
*D4
  3
Dim-25
 10
418.6824890609132
 20
1126.884963962475
 30
0.0
 11
418.6824890609132
 21
2037.1222367421542
 31
0.0
 70
160
 71
5
 42
1820.474545559376
 73
0
 74
0
 75
0
100
AcDbAlignedDimension
 13
588.0913445982442
 23
2947.3595095218516
 33
0.0
 14
588.0913445982442
 24
1126.884963962475
 34
0.0
 50
90.0
100
AcDbRotatedDimension
  0
DIMENSION
  5
86
330
17
100
AcDbEntity
  8
DIM
100
AcDbDimension
280
0
  2
*D5
  3
Dim-25
 10
484.98664383849245
 20
1158.884963962475
 30
0.0
 11
462.22231914543954
 21
2037.1222367421724
 31
0.0
 70
32
 71
5
 42
1756.474545559376
 73
0
 74
0
 75
0
100
AcDbAlignedDimension
 13
556.0913445982442
 23
2915.3595095218516
 33
0.0
 14
556.0913445982442
 24
1158.884963962475
 34
0.0
 50
90.0
100
AcDbRotatedDimension
  0
DIMENSION
  5
87
330
17
100
AcDbEntity
  8
DIM
100
AcDbDimension
280
0
  2
*D6
  3
Dim-25
 10
1603.0913445982442
 20
1047.2472555526329
 30
0.0
 11
1073.5913445982442
 21
1070.0115802456758
 31
0.0
 70
32
 71
5
 42
1059.0
 73
0
 74
0
 75
0
100
AcDbAlignedDimension
 13
544.0913445982442
 23
1170.8849639624914
 33
0.0
 14
1603.0913445982442
 24
1170.8849639624914
 34
0.0
 50
0.0
100
AcDbRotatedDimension
  0
LWPOLYLINE
  5
88
330
17
100
AcDbEntity
  8
0
 62
7
100
AcDbPolyline
 90
4
 70
1
 10
2075.5825780498853
 20
2861.884963962477
 10
2961.5825780498853
 20
2861.884963962477
 10
2961.5825780498853
 20
1213.884963962475
 10
2075.5825780498853
 20
1213.884963962475
  0
LWPOLYLINE
  5
89
330
17
100
AcDbEntity
  8
0
 62
7
100
AcDbPolyline
 90
22
 70
0
 10
2987.5825780498635
 20
1289.134963962475
 10
2987.5825780498635
 20
1223.8849639624605
 10
2977.5825780498853
 20
1213.884963962475
 10
2961.5825780498853
 20
1213.884963962475
 10
2961.5825780498853
 20
1197.884963962475
 10
2951.5825780498853
 20
1187.8849639624896
 10
2085.5825780498853
 20
1187.884963962475
 10
2075.5825780498853
 20
1197.884963962475
 10
2075.5825780498853
 20
1213.884963962475
 10
2059.5825780498853
 20
1213.884963962475
 10
2049.582578049871
 20
1223.884963962475
 10
2049.5825780498853
 20
2851.884963962475
 10
2059.5825780498853
 20
2861.884963962477
 10
2075.5825780498853
 20
2861.884963962477
 10
2075.5825780498853
 20
2877.884963962475
 10
2085.5825780498853
 20
2887.884963962475
 10
2951.5825780498853
 20
2887.884963962475
 10
2961.5825780498853
 20
2877.884963962475
 10
2961.5825780498853
 20
2861.884963962477
 10
2977.5825780498853
 20
2861.884963962477
 10
2987.5825780498635
 20
2851.884963962475
 10
2987.5825780498635
 20
2786.634963962475
  0
LWPOLYLINE
  5
8A
330
17
100
AcDbEntity
  8
0
 62
7
100
AcDbPolyline
 90
2
 70
0
 10
2987.5825780498635
 20
2732.634963962475
 10
2987.5825780498635
 20
2286.634963962475
  0
LWPOLYLINE
  5
8B
330
17
100
AcDbEntity
  8
0
 62
7
100
AcDbPolyline
 90
2
 70
0
 10
2977.5825780498853
 20
2861.884963962477
 10
2977.5825780498853
 20
2786.634963962475
  0
LWPOLYLINE
  5
8C
330
17
100
AcDbEntity
  8
0
 62
7
100
AcDbPolyline
 90
2
 70
0
 10
2977.5825780498853
 20
2732.634963962475
 10
2977.5825780498853
 20
2286.634963962475
  0
LWPOLYLINE
  5
8D
330
17
100
AcDbEntity
  8
0
 62
7
100
AcDbPolyline
 90
2
 70
0
 10
2977.5825780498853
 20
1289.134963962475
 10
2977.5825780498853
 20
1213.884963962475
  0
LWPOLYLINE
  5
8E
330
17
100
AcDbEntity
  8
0
 62
7
100
AcDbPolyline
 90
2
 70
0
 10
2961.5825780498853
 20
1197.884963962475
 10
2075.5825780498853
 20
1197.884963962475
  0
LWPOLYLINE
  5
8F
330
17
100
AcDbEntity
  8
0
 62
7
100
AcDbPolyline
 90
2
 70
0
 10
2059.5825780498853
 20
1213.884963962475
 10
2059.5825780498853
 20
2861.884963962477
  0
LWPOLYLINE
  5
90
330
17
100
AcDbEntity
  8
0
 62
7
100
AcDbPolyline
 90
2
 70
0
 10
2075.5825780498853
 20
2877.884963962475
 10
2961.5825780498853
 20
2877.884963962475
  0
LWPOLYLINE
  5
91
330
17
100
AcDbEntity
  8
0
 62
2
100
AcDbPolyline
 90
4
 70
0
 10
2987.5825780498635
 20
2732.634963962475
 10
2974.582578049871
 20
2732.634963962475
 10
2974.582578049871
 20
2786.634963962475
 10
2987.5825780498635
 20
2786.634963962475
  0
LWPOLYLINE
  5
92
330
17
100
AcDbEntity
  8
0
 62
2
100
AcDbPolyline
 90
4
 70
0
 10
2987.5825780498635
 20
1343.134963962475
 10
2974.582578049871
 20
1343.134963962475
 10
2974.582578049871
 20
1289.134963962475
 10
2987.5825780498635
 20
1289.134963962475
  0
INSERT
  5
93
330
17
100
AcDbEntity
  8
0
370
-3
100
AcDbBlockReference
  2
f3daunguoc
 10
2090.5825780498853
 20
2861.884963962477
 30
0.0
 41
-1.0
 50
180.0
  0
INSERT
  5
95
330
17
100
AcDbEntity
  8
0
370
-3
100
AcDbBlockReference
  2
f3daunguoc
 10
2075.5825780498853
 20
2846.884963962475
 30
0.0
 41
-1.0
 50
180.0
  0
INSERT
  5
97
330
17
100
AcDbEntity
  8
0
370
-3
100
AcDbBlockReference
  2
f3daunguoc
 10
2090.5825780498853
 20
2877.884963962475
 30
0.0
 41
-1.0
 50
180.0
  0
INSERT
  5
99
330
17
100
AcDbEntity
  8
0
370
-3
100
AcDbBlockReference
  2
f3daunguoc
 10
2059.5825780498853
 20
2846.884963962475
 30
0.0
 41
-1.0
 50
180.0
  0
INSERT
  5
9B
330
17
100
AcDbEntity
  8
0
370
-3
100
AcDbBlockReference
  2
f3daunguoc
 10
2140.5825780498853
 20
2861.884963962477
 30
0.0
 41
-1.0
 50
180.0
  0
INSERT
  5
9D
330
17
100
AcDbEntity
  8
0
370
-3
100
AcDbBlockReference
  2
f3daunguoc
 10
2140.5825780498853
 20
2877.884963962475
 30
0.0
 41
-1.0
 50
180.0
  0
INSERT
  5
9F
330
17
100
AcDbEntity
  8
0
370
-3
100
AcDbBlockReference
  2
f3daunguoc
 10
2946.5825780498853
 20
2861.884963962477
 30
0.0
 50
180.0
  0
INSERT
  5
A1
330
17
100
AcDbEntity
  8
0
370
-3
100
AcDbBlockReference
  2
f3daunguoc
 10
2961.5825780498853
 20
2846.884963962475
 30
0.0
 50
180.0
  0
INSERT
  5
A3
330
17
100
AcDbEntity
  8
0
370
-3
100
AcDbBlockReference
  2
f3daunguoc
 10
2946.5825780498853
 20
2877.884963962475
 30
0.0
 50
180.0
  0
INSERT
  5
A5
330
17
100
AcDbEntity
  8
0
370
-3
100
AcDbBlockReference
  2
f3daunguoc
 10
2977.5825780498853
 20
2846.884963962475
 30
0.0
 50
180.0
  0
INSERT
  5
A7
330
17
100
AcDbEntity
  8
0
370
-3
100
AcDbBlockReference
  2
f3daunguoc
 10
2896.5825780498853
 20
2861.884963962477
 30
0.0
 50
180.0
  0
INSERT
  5
A9
330
17
100
AcDbEntity
  8
0
370
-3
100
AcDbBlockReference
  2
f3daunguoc
 10
2896.5825780498853
 20
2877.884963962475
 30
0.0
 50
180.0
  0
INSERT
  5
AB
330
17
100
AcDbEntity
  8
0
370
-3
100
AcDbBlockReference
  2
f3daunguoc
 10
2090.5825780498853
 20
1213.884963962475
 30
0.0
  0
INSERT
  5
AD
330
17
100
AcDbEntity
  8
0
370
-3
100
AcDbBlockReference
  2
f3daunguoc
 10
2075.5825780498853
 20
1228.8849639624732
 30
0.0
  0
INSERT
  5
AF
330
17
100
AcDbEntity
  8
0
370
-3
100
AcDbBlockReference
  2
f3daunguoc
 10
2090.5825780498853
 20
1197.884963962475
 30
0.0
  0
INSERT
  5
B1
330
17
100
AcDbEntity
  8
0
370
-3
100
AcDbBlockReference
  2
f3daunguoc
 10
2059.5825780498853
 20
1228.8849639624732
 30
0.0
  0
INSERT
  5
B3
330
17
100
AcDbEntity
  8
0
370
-3
100
AcDbBlockReference
  2
f3daunguoc
 10
2140.5825780498853
 20
1213.884963962475
 30
0.0
  0
INSERT
  5
B5
330
17
100
AcDbEntity
  8
0
370
-3
100
AcDbBlockReference
  2
f3daunguoc
 10
2140.5825780498853
 20
1197.884963962475
 30
0.0
  0
INSERT
  5
B7
330
17
100
AcDbEntity
  8
0
370
-3
100
AcDbBlockReference
  2
f3daunguoc
 10
2946.5825780498853
 20
1213.884963962475
 30
0.0
 41
-1.0
  0
INSERT
  5
B9
330
17
100
AcDbEntity
  8
0
370
-3
100
AcDbBlockReference
  2
f3daunguoc
 10
2961.5825780498853
 20
1228.8849639624732
 30
0.0
 41
-1.0
  0
INSERT
  5
BB
330
17
100
AcDbEntity
  8
0
370
-3
100
AcDbBlockReference
  2
f3daunguoc
 10
2946.5825780498853
 20
1197.884963962475
 30
0.0
 41
-1.0
  0
INSERT
  5
BD
330
17
100
AcDbEntity
  8
0
370
-3
100
AcDbBlockReference
  2
f3daunguoc
 10
2977.5825780498853
 20
1228.8849639624732
 30
0.0
 41
-1.0
  0
INSERT
  5
BF
330
17
100
AcDbEntity
  8
0
370
-3
100
AcDbBlockReference
  2
f3daunguoc
 10
2896.5825780498853
 20
1213.884963962475
 30
0.0
 41
-1.0
  0
INSERT
  5
C1
330
17
100
AcDbEntity
  8
0
370
-3
100
AcDbBlockReference
  2
f3daunguoc
 10
2896.5825780498853
 20
1197.884963962475
 30
0.0
 41
-1.0
  0
CIRCLE
  5
C3
330
17
100
AcDbEntity
  8
0
 62
2
100
AcDbCircle
 10
2125.0825780497544
 20
2782.884963962504
 30
0.0
 40
11.0
  0
CIRCLE
  5
C4
330
17
100
AcDbEntity
  8
0
 62
2
100
AcDbCircle
 10
2125.0825780497544
 20
1292.884963962446
 30
0.0
 40
11.0
  0
CIRCLE
  5
C5
330
17
100
AcDbEntity
  8
0
 62
2
100
AcDbCircle
 10
2518.582578049529
 20
2731.384963962533
 30
0.0
 40
11.0
  0
CIRCLE
  5
C6
330
17
100
AcDbEntity
  8
0
 62
2
100
AcDbCircle
 10
2418.582578049529
 20
2731.384963962533
 30
0.0
 40
11.0
  0
CIRCLE
  5
C7
330
17
100
AcDbEntity
  8
0
 62
2
100
AcDbCircle
 10
2618.582578049529
 20
2731.384963962533
 30
0.0
 40
11.0
  0
LWPOLYLINE
  5
C8
330
17
100
AcDbEntity
  8
0
 62
2
100
AcDbPolyline
 90
4
 70
1
 10
2564.5825780495434
 20
2574.384963962533
 10
2472.582578049529
 20
2574.384963962533
 10
2472.582578049529
 20
2666.384963962533
 10
2564.5825780495434
 20
2666.384963962533
  0
LINE
  5
C9
330
17
100
AcDbEntity
  8
11
  6
Continuous
 62
2
100
AcDbLine
 10
2401.082578049529
 20
2068.384963962537
 30
0.0
 11
2636.082578049529
 21
2068.384963962537
 31
0.0
  0
LWPOLYLINE
  5
CA
330
17
100
AcDbEntity
  8
0
 62
2
100
AcDbPolyline
 90
4
 70
1
 10
2249.082578049529
 20
1881.3849639625332
 10
2304.082578049529
 20
1881.3849639625332
 10
2304.082578049529
 20
1854.3849639625332
 10
2249.082578049529
 20
1854.3849639625332
  0
LWPOLYLINE
  5
CB
330
17
100
AcDbEntity
  8
0
 62
2
100
AcDbPolyline
 90
4
 70
1
 10
2733.582578049529
 20
1881.3849639625369
 10
2788.582578049529
 20
1881.3849639625369
 10
2788.582578049529
 20
1854.3849639625332
 10
2733.582578049529
 20
1854.3849639625332
  0
LWPOLYLINE
  5
CC
330
17
100
AcDbEntity
  8
0
 62
2
100
AcDbPolyline
 90
4
 70
1
 10
2733.582578049529
 20
1775.8849639625332
 10
2788.582578049529
 20
1775.8849639625332
 10
2788.582578049529
 20
1748.8849639625332
 10
2733.582578049529
 20
1748.8849639625332
  0
LWPOLYLINE
  5
CD
330
17
100
AcDbEntity
  8
0
 62
2
100
AcDbPolyline
 90
4
 70
1
 10
2733.582578049529
 20
1670.8849639625332
 10
2788.582578049529
 20
1670.8849639625332
 10
2788.582578049529
 20
1643.8849639625332
 10
2733.582578049529
 20
1643.8849639625332
  0
LWPOLYLINE
  5
CE
330
17
100
AcDbEntity
  8
0
 62
2
100
AcDbPolyline
 90
4
 70
1
 10
2733.582578049529
 20
1565.8849639625332
 10
2788.582578049529
 20
1565.8849639625332
 10
2788.582578049529
 20
1538.8849639625332
 10
2733.582578049529
 20
1538.8849639625332
  0
LWPOLYLINE
  5
CF
330
17
100
AcDbEntity
  8
0
 62
2
100
AcDbPolyline
 90
4
 70
1
 10
2249.082578049529
 20
1566.3849639625332
 10
2304.082578049529
 20
1566.3849639625332
 10
2304.082578049529
 20
1539.3849639625332
 10
2249.082578049529
 20
1539.3849639625332
  0
LWPOLYLINE
  5
D0
330
17
100
AcDbEntity
  8
0
 62
2
100
AcDbPolyline
 90
4
 70
1
 10
2249.082578049529
 20
1671.3849639625332
 10
2304.082578049529
 20
1671.3849639625332
 10
2304.082578049529
 20
1644.3849639625332
 10
2249.082578049529
 20
1644.3849639625332
  0
LWPOLYLINE
  5
D1
330
17
100
AcDbEntity
  8
0
 62
2
100
AcDbPolyline
 90
4
 70
1
 10
2249.082578049529
 20
1776.3849639625332
 10
2304.082578049529
 20
1776.3849639625332
 10
2304.082578049529
 20
1749.3849639625332
 10
2249.082578049529
 20
1749.3849639625332
  0
LINE
  5
D2
330
17
100
AcDbEntity
  8
0
 62
2
100
AcDbLine
 10
2368.582578049529
 20
2068.384963962537
 30
0.0
 11
2668.582578049529
 21
2068.384963962537
 31
0.0
  0
LINE
  5
D3
330
17
100
AcDbEntity
  8
0
 62
2
100
AcDbLine
 10
2668.582578049529
 20
2068.384963962537
 30
0.0
 11
2668.582578049529
 21
2433.384963962537
 31
0.0
  0
LINE
  5
D4
330
17
100
AcDbEntity
  8
0
 62
2
100
AcDbLine
 10
2368.582578049529
 20
2433.384963962537
 30
0.0
 11
2668.582578049529
 21
2433.384963962537
 31
0.0
  0
LINE
  5
D5
330
17
100
AcDbEntity
  8
0
 62
2
100
AcDbLine
 10
2368.582578049529
 20
2068.384963962537
 30
0.0
 11
2368.582578049529
 21
2433.384963962537
 31
0.0
  0
CIRCLE
  5
D6
330
17
100
AcDbEntity
  8
0
 62
2
100
AcDbCircle
 10
2469.4642818072753
 20
2512.1318397279956
 30
0.0
 40
11.0
  0
CIRCLE
  5
D7
330
17
100
AcDbEntity
  8
0
 62
2
100
AcDbCircle
 10
2567.7008742917897
 20
2512.1318397279956
 30
0.0
 40
11.0
  0
DIMENSION
  5
D8
330
17
100
AcDbEntity
  8
DIM
100
AcDbDimension
280
0
  2
*D7
  3
Dim-25
 10
2987.5825780498635
 20
2908.05292477303
 30
0.0
 11
3030.2691401235425
 21
2930.8172494660703
 31
0.0
 70
32
 71
5
 42
9.999999999985448
 73
0
 74
0
 75
0
100
AcDbAlignedDimension
 13
2977.5825780498853
 23
2861.884963962477
 33
0.0
 14
2987.5825780498635
 24
2851.884963962475
 34
0.0
 50
0.0
100
AcDbRotatedDimension
  0
DIMENSION
  5
D9
330
17
100
AcDbEntity
  8
DIM
100
AcDbDimension
280
0
  2
*D8
  3
Dim-25
 10
2977.5825780498853
 20
2952.7977639846013
 30
0.0
 11
3020.30324653555
 21
2975.5620886776505
 31
0.0
 70
32
 71
5
 42
16.0
 73
0
 74
0
 75
0
100
AcDbAlignedDimension
 13
2961.5825780498853
 23
2877.884963962475
 33
0.0
 14
2977.5825780498853
 24
2861.884963962477
 34
0.0
 50
0.0
100
AcDbRotatedDimension
  0
DIMENSION
  5
DA
330
17
100
AcDbEntity
  8
DIM
100
AcDbDimension
280
0
  2
*D9
  3
Dim-25
 10
2075.5825780498853
 20
2952.7977639846013
 30
0.0
 11
2518.5825780498853
 21
2975.5620886776505
 31
0.0
 70
32
 71
5
 42
886.0
 73
0
 74
0
 75
0
100
AcDbAlignedDimension
 13
2961.5825780498853
 23
2877.884963962475
 33
0.0
 14
2075.5825780498853
 24
2877.884963962475
 34
0.0
 50
0.0
100
AcDbRotatedDimension
  0
DIMENSION
  5
DB
330
17
100
AcDbEntity
  8
DIM
100
AcDbDimension
280
0
  2
*D10
  3
Dim-25
 10
1912.5094067971513
 20
1187.884963962475
 30
0.0
 11
1889.7450821041057
 21
2037.8849639624823
 31
0.0
 70
32
 71
5
 42
1700.0
 73
0
 74
0
 75
0
100
AcDbAlignedDimension
 13
2085.5825780498853
 23
2887.884963962475
 33
0.0
 14
2085.5825780499144
 24
1187.884963962475
 34
0.0
 50
90.0
100
AcDbRotatedDimension
  0
DIMENSION
  5
DC
330
17
100
AcDbEntity
  8
DIM
100
AcDbDimension
280
0
  2
*D11
  3
Dim-25
 10
2004.6602867900729
 20
2861.884963962477
 30
0.0
 11
1981.8959620970345
 21
2037.8849639624823
 31
0.0
 70
32
 71
5
 42
1648.0
 73
0
 74
0
 75
0
100
AcDbAlignedDimension
 13
2059.5825780498853
 23
1213.884963962475
 33
0.0
 14
2059.5825780498853
 24
2861.884963962477
 34
0.0
 50
90.0
100
AcDbRotatedDimension
  0
LWPOLYLINE
  5
DD
330
17
100
AcDbEntity
  8
0
 62
2
100
AcDbPolyline
 90
4
 70
0
 10
2987.5825780498635
 20
2232.634963962475
 10
2974.582578049871
 20
2232.634963962475
 10
2974.582578049871
 20
2286.634963962475
 10
2987.5825780498635
 20
2286.634963962475
  0
LWPOLYLINE
  5
DE
330
17
100
AcDbEntity
  8
0
 62
2
100
AcDbPolyline
 90
4
 70
0
 10
2987.5825780498635
 20
1789.134963962475
 10
2974.582578049871
 20
1789.134963962475
 10
2974.582578049871
 20
1843.134963962475
 10
2987.5825780498635
 20
1843.134963962475
  0
LWPOLYLINE
  5
DF
330
17
100
AcDbEntity
  8
0
 62
7
100
AcDbPolyline
 90
2
 70
0
 10
2987.5825780498635
 20
1789.134963962475
 10
2987.5825780498635
 20
1343.134963962475
  0
LWPOLYLINE
  5
E0
330
17
100
AcDbEntity
  8
0
 62
7
100
AcDbPolyline
 90
2
 70
0
 10
2977.5825780498853
 20
1789.134963962475
 10
2977.5825780498853
 20
1343.134963962475
  0
LWPOLYLINE
  5
E1
330
17
100
AcDbEntity
  8
0
 62
7
100
AcDbPolyline
 90
2
 70
0
 10
2987.5825780498635
 20
2232.634963962475
 10
2987.5825780498635
 20
1843.134963962475
  0
LWPOLYLINE
  5
E2
330
17
100
AcDbEntity
  8
0
 62
7
100
AcDbPolyline
 90
2
 70
0
 10
2977.5825780498853
 20
2232.634963962475
 10
2977.5825780498853
 20
1843.134963962475
  0
DIMENSION
  5
E3
330
17
100
AcDbEntity
  8
DIM
100
AcDbDimension
280
0
  2
*D12
  3
Dim-25
 10
2987.5825780498635
 20
1131.7596214477526
 30
0.0
 11
2518.5825780498635
 21
1154.5324727437965
 31
0.0
 70
32
 71
5
 42
938.0
 73
0
 74
0
 75
0
100
AcDbAlignedDimension
 13
2049.582578049871
 23
1223.884963962475
 33
0.0
 14
2987.5825780498635
 24
1223.8849639624605
 34
0.0
 50
0.0
100
AcDbRotatedDimension
  0
LINE
  5
E4
330
17
100
AcDbEntity
  8
0
 62
7
100
AcDbLine
 10
858.2948410696408
 20
907.8189532655533
 30
0.0
 11
1328.2948410696335
 21
907.8189532655533
 31
0.0
  0
LINE
  5
E5
330
17
100
AcDbEntity
  8
0
 62
7
100
AcDbLine
 10
808.2948410696408
 20
857.8189532655524
 30
0.0
 11
1378.2948410696335
 21
857.8189532655524
 31
0.0
  0
LINE
  5
E6
330
17
100
AcDbEntity
  8
0
 62
7
100
AcDbLine
 10
1378.2948410696335
 20
857.8189532655524
 30
0.0
 11
1378.2948410696335
 21
757.8189532655524
 31
0.0
  0
LINE
  5
E7
330
17
100
AcDbEntity
  8
0
 62
7
100
AcDbLine
 10
1328.2948410696335
 20
707.8189532655524
 30
0.0
 11
858.2948410696408
 21
707.8189532655524
 31
0.0
  0
LINE
  5
E8
330
17
100
AcDbEntity
  8
0
 62
7
100
AcDbLine
 10
1378.2948410696335
 20
757.8189532655524
 30
0.0
 11
808.2948410696408
 21
757.8189532655524
 31
0.0
  0
LINE
  5
E9
330
17
100
AcDbEntity
  8
0
 62
7
100
AcDbLine
 10
808.2948410696408
 20
757.8189532655524
 30
0.0
 11
808.2948410696408
 21
857.8189532655524
 31
0.0
  0
LINE
  5
EA
330
17
100
AcDbEntity
  8
0
 62
7
100
AcDbLine
 10
808.2948410696408
 20
757.8189532655524
 30
0.0
 11
858.2948410696408
 21
707.8189532655524
 31
0.0
  0
LINE
  5
EB
330
17
100
AcDbEntity
  8
0
 62
7
100
AcDbLine
 10
808.2948410696408
 20
857.8189532655524
 30
0.0
 11
858.2948410696408
 21
907.8189532655533
 31
0.0
  0
LINE
  5
EC
330
17
100
AcDbEntity
  8
0
 62
7
100
AcDbLine
 10
1328.2948410696335
 20
907.8189532655533
 30
0.0
 11
1378.2948410696335
 21
857.8189532655524
 31
0.0
  0
LINE
  5
ED
330
17
100
AcDbEntity
  8
0
 62
7
100
AcDbLine
 10
1378.2948410696335
 20
757.8189532655524
 30
0.0
 11
1328.2948410696335
 21
707.8189532655524
 31
0.0
  0
DIMENSION
  5
EE
330
17
100
AcDbEntity
  8
DIM
 62
7
100
AcDbDimension
280
0
  2
*D13
  3
Dim-15
 10
1431.146801433475
 20
707.8189532655524
 30
0.0
 11
1418.4882066176506
 21
807.8189532655588
 31
0.0
 70
32
 71
5
 42
200.0
 73
0
 74
0
 75
0
100
AcDbAlignedDimension
 13
1328.2948410696335
 23
907.8189532655533
 33
0.0
 14
1328.2948410696335
 24
707.8189532655524
 34
0.0
 50
90.0
100
AcDbRotatedDimension
  0
DIMENSION
  5
EF
330
17
100
AcDbEntity
  8
DIM
 62
7
100
AcDbDimension
280
0
  2
*D14
  3
Dim-15
 10
1378.2948410696335
 20
671.3855340303417
 30
0.0
 11
1093.2948410696408
 21
684.044128846168
 31
0.0
 70
32
 71
5
 42
570.0
 73
0
 74
0
 75
0
100
AcDbAlignedDimension
 13
808.2948410696408
 23
757.8189532655524
 33
0.0
 14
1378.2948410696335
 24
757.8189532655524
 34
0.0
 50
0.0
100
AcDbRotatedDimension
  0
DIMENSION
  5
F0
330
17
100
AcDbEntity
  8
DIM
 62
7
100
AcDbDimension
280
0
  2
*D15
  3
Dim-15
 10
763.358178193841
 20
757.8189532655524
 30
0.0
 11
750.6995833780093
 21
807.8189532655588
 31
0.0
 70
32
 71
5
 42
100.0
 73
0
 74
0
 75
0
100
AcDbAlignedDimension
 13
808.2948410696408
 23
857.8189532655524
 33
0.0
 14
808.2948410696408
 24
757.8189532655524
 34
0.0
 50
90.0
100
AcDbRotatedDimension
  0
DIMENSION
  5
F1
330
17
100
AcDbEntity
  8
DIM
 62
7
100
AcDbDimension
280
0
  2
*D16
  3
Dim-15
 10
763.3581781938046
 20
907.8189532655533
 30
0.0
 11
750.6995833779802
 21
882.8189532655588
 31
0.0
 70
32
 71
5
 42
50.0
 73
0
 74
0
 75
0
100
AcDbAlignedDimension
 13
808.2948410696408
 23
857.8189532655524
 33
0.0
 14
858.2948410696408
 24
907.8189532655533
 34
0.0
 50
90.0
100
AcDbRotatedDimension
  0
DIMENSION
  5
F2
330
17
100
AcDbEntity
  8
DIM
 62
7
100
AcDbDimension
280
0
  2
*D17
  3
Dim-15
 10
763.3581781938046
 20
707.8189532655524
 30
0.0
 11
750.6995833779802
 21
732.8189532655588
 31
0.0
 70
32
 71
5
 42
50.0
 73
0
 74
0
 75
0
100
AcDbAlignedDimension
 13
808.2948410696408
 23
757.8189532655524
 33
0.0
 14
858.2948410696408
 24
707.8189532655524
 34
0.0
 50
90.0
100
AcDbRotatedDimension
  0
LINE
  5
F3
330
17
100
AcDbEntity
  8
0
 62
7
100
AcDbLine
 10
695.7948410696335
 20
550.3059314967686
 30
0.0
 11
1591.7948410696335
 21
550.3059314967686
 31
0.0
  0
LINE
  5
F4
330
17
100
AcDbEntity
  8
0
 62
7
100
AcDbLine
 10
645.7948410696335
 20
500.3059314967686
 30
0.0
 11
1641.7948410696408
 21
500.3059314967686
 31
0.0
  0
LINE
  5
F5
330
17
100
AcDbEntity
  8
0
 62
7
100
AcDbLine
 10
1641.7948410696408
 20
500.3059314967686
 30
0.0
 11
1641.7948410696408
 21
400.3059314967686
 31
0.0
  0
LINE
  5
F6
330
17
100
AcDbEntity
  8
0
 62
7
100
AcDbLine
 10
1591.7948410696335
 20
350.3059314967686
 30
0.0
 11
695.7948410696335
 21
350.3059314967686
 31
0.0
  0
LINE
  5
F7
330
17
100
AcDbEntity
  8
0
 62
7
100
AcDbLine
 10
1641.7948410696408
 20
400.3059314967686
 30
0.0
 11
645.7948410696335
 21
400.3059314967686
 31
0.0
  0
LINE
  5
F8
330
17
100
AcDbEntity
  8
0
 62
7
100
AcDbLine
 10
645.7948410696335
 20
400.3059314967686
 30
0.0
 11
645.7948410696335
 21
500.3059314967686
 31
0.0
  0
LINE
  5
F9
330
17
100
AcDbEntity
  8
0
 62
7
100
AcDbLine
 10
645.7948410696335
 20
400.3059314967686
 30
0.0
 11
695.7948410696335
 21
350.3059314967686
 31
0.0
  0
LINE
  5
FA
330
17
100
AcDbEntity
  8
0
 62
7
100
AcDbLine
 10
645.7948410696335
 20
500.3059314967686
 30
0.0
 11
695.7948410696335
 21
550.3059314967686
 31
0.0
  0
LINE
  5
FB
330
17
100
AcDbEntity
  8
0
 62
7
100
AcDbLine
 10
1591.7948410696335
 20
550.3059314967686
 30
0.0
 11
1641.7948410696408
 21
500.3059314967686
 31
0.0
  0
LINE
  5
FC
330
17
100
AcDbEntity
  8
0
 62
7
100
AcDbLine
 10
1641.7948410696408
 20
400.3059314967686
 30
0.0
 11
1591.7948410696335
 21
350.3059314967686
 31
0.0
  0
DIMENSION
  5
FD
330
17
100
AcDbEntity
  8
DIM
 62
7
100
AcDbDimension
280
0
  2
*D18
  3
Dim-15
 10
1694.6468014334605
 20
350.3059314967686
 30
0.0
 11
1681.9882066176433
 21
450.30593149677406
 31
0.0
 70
32
 71
5
 42
200.0
 73
0
 74
0
 75
0
100
AcDbAlignedDimension
 13
1591.7948410696335
 23
550.3059314967686
 33
0.0
 14
1591.7948410696335
 24
350.3059314967686
 34
0.0
 50
90.0
100
AcDbRotatedDimension
  0
DIMENSION
  5
FE
330
17
100
AcDbEntity
  8
DIM
 62
7
100
AcDbDimension
280
0
  2
*D19
  3
Dim-15
 10
1641.7948410696408
 20
313.8725122615424
 30
0.0
 11
1143.7948410696408
 21
326.5311070773696
 31
0.0
 70
32
 71
5
 42
996.0
 73
0
 74
0
 75
0
100
AcDbAlignedDimension
 13
645.7948410696335
 23
400.3059314967686
 33
0.0
 14
1641.7948410696408
 24
400.3059314967686
 34
0.0
 50
0.0
100
AcDbRotatedDimension
  0
DIMENSION
  5
FF
330
17
100
AcDbEntity
  8
DIM
 62
7
100
AcDbDimension
280
0
  2
*D20
  3
Dim-15
 10
600.8581781938192
 20
400.3059314967686
 30
0.0
 11
588.199583378002
 21
450.30593149677406
 31
0.0
 70
32
 71
5
 42
100.0
 73
0
 74
0
 75
0
100
AcDbAlignedDimension
 13
645.7948410696335
 23
500.3059314967686
 33
0.0
 14
645.7948410696335
 24
400.3059314967686
 34
0.0
 50
90.0
100
AcDbRotatedDimension
  0
DIMENSION
  5
100
330
17
100
AcDbEntity
  8
DIM
 62
7
100
AcDbDimension
280
0
  2
*D21
  3
Dim-15
 10
600.8581781937901
 20
550.3059314967686
 30
0.0
 11
588.1995833779729
 21
525.305931496775
 31
0.0
 70
32
 71
5
 42
50.0
 73
0
 74
0
 75
0
100
AcDbAlignedDimension
 13
645.7948410696335
 23
500.3059314967686
 33
0.0
 14
695.7948410696335
 24
550.3059314967686
 34
0.0
 50
90.0
100
AcDbRotatedDimension
  0
DIMENSION
  5
101
330
17
100
AcDbEntity
  8
DIM
 62
7
100
AcDbDimension
280
0
  2
*D22
  3
Dim-15
 10
600.8581781937901
 20
350.3059314967686
 30
0.0
 11
588.1995833779729
 21
375.305931496775
 31
0.0
 70
32
 71
5
 42
50.0
 73
0
 74
0
 75
0
100
AcDbAlignedDimension
 13
645.7948410696335
 23
400.3059314967686
 33
0.0
 14
695.7948410696335
 24
350.3059314967686
 34
0.0
 50
90.0
100
AcDbRotatedDimension
  0
INSERT
  5
102
330
17
100
AcDbEntity
  8
CNC
370
-3
100
AcDbBlockReference
  2
ovan8.5x20
 10
743.794841069619
 20
525.3059314967686
 30
0.0
 50
180.0
  0
INSERT
  5
104
330
17
100
AcDbEntity
  8
CNC
370
-3
100
AcDbBlockReference
  2
ovan8.5x20
 10
743.794841069619
 20
375.3059314967686
 30
0.0
 41
-1.0
  0
INSERT
  5
106
330
17
100
AcDbEntity
  8
0
370
-3
100
AcDbBlockReference
  2
f3daunguoc
 10
823.2948410696554
 20
857.8189532655524
 30
0.0
 50
270.0
  0
INSERT
  5
108
330
17
100
AcDbEntity
  8
0
370
-3
100
AcDbBlockReference
  2
f3daunguoc
 10
823.2948410696554
 20
757.8189532655524
 30
0.0
 50
270.0
  0
INSERT
  5
10A
330
17
100
AcDbEntity
  8
0
370
-3
100
AcDbBlockReference
  2
f3daunguoc
 10
660.7948410696554
 20
500.3059314967686
 30
0.0
 50
270.0
  0
INSERT
  5
10C
330
17
100
AcDbEntity
  8
0
370
-3
100
AcDbBlockReference
  2
f3daunguoc
 10
660.7948410696554
 20
400.3059314967686
 30
0.0
 50
270.0
  0
INSERT
  5
10E
330
17
100
AcDbEntity
  8
0
370
-3
100
AcDbBlockReference
  2
f3daunguoc
 10
1626.794841069619
 20
500.3059314967686
 30
0.0
 41
-1.0
 50
90.0
  0
INSERT
  5
110
330
17
100
AcDbEntity
  8
0
370
-3
100
AcDbBlockReference
  2
f3daunguoc
 10
1626.794841069619
 20
400.3059314967686
 30
0.0
 41
-1.0
 50
90.0
  0
INSERT
  5
112
330
17
100
AcDbEntity
  8
0
370
-3
100
AcDbBlockReference
  2
f3daunguoc
 10
1363.2948410696044
 20
857.8189532655524
 30
0.0
 41
-1.0
 50
90.0
  0
INSERT
  5
114
330
17
100
AcDbEntity
  8
0
370
-3
100
AcDbBlockReference
  2
f3daunguoc
 10
1363.2948410696044
 20
757.8189532655524
 30
0.0
 41
-1.0
 50
90.0
  0
INSERT
  5
116
330
17
100
AcDbEntity
  8
CNC
370
-3
100
AcDbBlockReference
  2
ovan8.5x20
 10
1543.7948410696554
 20
525.3059314967686
 30
0.0
 41
-1.0
 50
180.0
  0
INSERT
  5
118
330
17
100
AcDbEntity
  8
CNC
370
-3
100
AcDbBlockReference
  2
ovan8.5x20
 10
1543.7948410696554
 20
375.3059314967686
 30
0.0
  0
MTEXT
  5
11A
330
17
100
AcDbEntity
  8
0
 62
2
100
AcDbMText
 10
1110.7319050741207
 20
244.5119576925208
 30
0.0
 40
36.0
 41
775.0000000000146
 46
177.6045738206836
 71
5
 72
5
  1
Đế tủ : 4 tấm
  0
MTEXT
  5
11B
330
17
100
AcDbEntity
  8
0
 62
2
100
AcDbMText
 10
1104.6111461337641
 20
627.3243549883628
 30
0.0
 40
36.0
 41
775.0000000000146
 46
177.6045738206836
 71
5
 72
5
  1
Đế tủ : 4 tấm
  0
MTEXT
  5
11C
330
17
100
AcDbEntity
  8
0
 62
2
100
AcDbMText
 10
1077.045218598716
 20
995.2191579041673
 30
0.0
 40
36.0
 41
775.0000000000146
 46
100.0000000000031
 71
5
 72
5
  1
Cánh ngoài : 2 tấm
  0
MTEXT
  5
11D
330
17
100
AcDbEntity
  8
0
 62
2
100
AcDbMText
 10
2477.7514290916442
 20
1075.189803350063
 30
0.0
 40
36.0
 41
775.0000000000146
 46
100.0000000000031
 71
5
 72
5
  1
Cánh trong : 2 tấm
  0
MTEXT
  5
11E
330
17
100
AcDbEntity
  8
0
 62
7
100
AcDbMText
 10
3763.715416639039
 20
2496.227974644644
 30
0.0
 40
40.0
 41
915.0000000000146
 46
100.0000000000031
 71
5
 72
5
  1
Thanh U: 06 tấm
  0
LINE
  5
11F
330
17
100
AcDbEntity
  8
0
 62
7
100
AcDbLine
 10
3359.7131900625754
 20
2715.884802824723
 30
0.0
 11
4199.713190062561
 21
2715.884802824723
 31
0.0
  0
LINE
  5
120
330
17
100
AcDbEntity
  8
0
 62
7
100
AcDbLine
 10
3324.713190062561
 20
2700.884802824723
 30
0.0
 11
4234.713190062561
 21
2700.884802824723
 31
0.0
  0
LINE
  5
121
330
17
100
AcDbEntity
  8
0
 62
7
100
AcDbLine
 10
4234.713190062561
 20
2700.884802824723
 30
0.0
 11
4234.713190062561
 21
2650.884802824723
 31
0.0
  0
LINE
  5
122
330
17
100
AcDbEntity
  8
0
 62
7
100
AcDbLine
 10
4199.713190062561
 20
2635.884802824721
 30
0.0
 11
3359.7131900625754
 21
2635.884802824721
 31
0.0
  0
LINE
  5
123
330
17
100
AcDbEntity
  8
0
 62
7
100
AcDbLine
 10
4234.713190062561
 20
2650.884802824723
 30
0.0
 11
3324.713190062561
 21
2650.884802824723
 31
0.0
  0
LINE
  5
124
330
17
100
AcDbEntity
  8
0
 62
7
100
AcDbLine
 10
3324.713190062561
 20
2650.884802824723
 30
0.0
 11
3324.713190062561
 21
2700.884802824723
 31
0.0
  0
DIMENSION
  5
125
330
17
100
AcDbEntity
  8
DIM
 62
7
100
AcDbDimension
280
0
  2
*D23
  3
Dim-25
 10
4296.762312983999
 20
2635.884802824721
 30
0.0
 11
4273.997988290954
 21
2675.8848028247285
 31
0.0
 70
32
 71
5
 42
80.0
 73
0
 74
0
 75
0
100
AcDbAlignedDimension
 13
4199.713190062561
 23
2715.884802824723
 33
0.0
 14
4199.713190062583
 24
2635.884802824721
 34
0.0
 50
90.0
100
AcDbRotatedDimension
  0
DIMENSION
  5
126
330
17
100
AcDbEntity
  8
DIM
 62
7
100
AcDbDimension
280
0
  2
*D24
  3
Dim-25
 10
3276.4876937855806
 20
2650.884802824723
 30
0.0
 11
3276.4876937855806
 21
2675.8848028247303
 31
0.0
 70
160
 71
5
 42
50.0
 73
0
 74
0
 75
0
100
AcDbAlignedDimension
 13
3324.713190062561
 23
2700.884802824723
 33
0.0
 14
3324.713190062561
 24
2650.884802824723
 34
0.0
 50
90.0
100
AcDbRotatedDimension
  0
DIMENSION
  5
127
330
17
100
AcDbEntity
  8
DIM
 62
7
100
AcDbDimension
280
0
  2
*D25
  3
Dim-25
 10
3276.4876937855515
 20
2715.884802824723
 30
0.0
 11
3253.723369092513
 21
2758.707790546421
 31
0.0
 70
32
 71
5
 42
15.0
 73
0
 74
0
 75
0
100
AcDbAlignedDimension
 13
3324.713190062561
 23
2700.884802824723
 33
0.0
 14
3359.7131900625754
 24
2715.884802824723
 34
0.0
 50
90.0
100
AcDbRotatedDimension
  0
DIMENSION
  5
128
330
17
100
AcDbEntity
  8
DIM
 62
7
100
AcDbDimension
280
0
  2
*D26
  3
Dim-25
 10
3276.4876937855734
 20
2635.884802824721
 30
0.0
 11
3253.7233690925204
 21
2593.0618151030394
 31
0.0
 70
32
 71
5
 42
15.0
 73
0
 74
0
 75
0
100
AcDbAlignedDimension
 13
3324.713190062561
 23
2650.884802824723
 33
0.0
 14
3359.7131900625754
 24
2635.884802824721
 34
0.0
 50
90.0
100
AcDbRotatedDimension
  0
INSERT
  5
129
330
17
100
AcDbEntity
  8
CNC
370
-3
100
AcDbBlockReference
  2
ovan8.5x20
 10
3340.7131900625754
 20
2688.384802824723
 30
0.0
 50
180.0
  0
INSERT
  5
12B
330
17
100
AcDbEntity
  8
CNC
370
-3
100
AcDbBlockReference
  2
ovan8.5x20
 10
3340.7131900625754
 20
2663.384802824723
 30
0.0
 50
180.0
  0
INSERT
  5
12D
330
17
100
AcDbEntity
  8
CNC
370
-3
100
AcDbBlockReference
  2
ovan8.5x20
 10
4218.713190062583
 20
2688.384802824723
 30
0.0
 41
-1.0
 50
180.0
  0
INSERT
  5
12F
330
17
100
AcDbEntity
  8
CNC
370
-3
100
AcDbBlockReference
  2
ovan8.5x20
 10
4218.713190062583
 20
2663.384802824723
 30
0.0
 41
-1.0
 50
180.0
  0
INSERT
  5
131
330
17
100
AcDbEntity
  8
0
370
-3
100
AcDbBlockReference
  2
f3daunguoc
 10
3369.7131900625827
 20
2700.884802824723
 30
0.0
 50
270.0
  0
INSERT
  5
133
330
17
100
AcDbEntity
  8
0
370
-3
100
AcDbBlockReference
  2
f3daunguoc
 10
3339.7131900625827
 20
2650.884802824723
 30
0.0
 50
270.0
  0
INSERT
  5
135
330
17
100
AcDbEntity
  8
CNC
370
-3
100
AcDbBlockReference
  2
ovan8.5x20
 10
3729.7131900625754
 20
2675.884802824723
 30
0.0
 41
-1.0
  0
INSERT
  5
137
330
17
100
AcDbEntity
  8
CNC
370
-3
100
AcDbBlockReference
  2
ovan8.5x20
 10
3754.713190062561
 20
2675.884802824723
 30
0.0
 41
-1.0
  0
INSERT
  5
139
330
17
100
AcDbEntity
  8
CNC
370
-3
100
AcDbBlockReference
  2
ovan8.5x20
 10
3779.713190062561
 20
2675.884802824723
 30
0.0
 41
-1.0
  0
INSERT
  5
13B
330
17
100
AcDbEntity
  8
CNC
370
-3
100
AcDbBlockReference
  2
ovan8.5x20
 10
3804.713190062561
 20
2675.884802824723
 30
0.0
 41
-1.0
  0
INSERT
  5
13D
330
17
100
AcDbEntity
  8
CNC
370
-3
100
AcDbBlockReference
  2
ovan8.5x20
 10
3829.713190062561
 20
2675.884802824723
 30
0.0
 41
-1.0
  0
INSERT
  5
13F
330
17
100
AcDbEntity
  8
CNC
370
-3
100
AcDbBlockReference
  2
ovan8.5x20
 10
3854.7131900625754
 20
2675.884802824723
 30
0.0
 41
-1.0
  0
INSERT
  5
141
330
17
100
AcDbEntity
  8
CNC
370
-3
100
AcDbBlockReference
  2
ovan8.5x20
 10
3879.713190062561
 20
2675.884802824723
 30
0.0
 41
-1.0
  0
INSERT
  5
143
330
17
100
AcDbEntity
  8
CNC
370
-3
100
AcDbBlockReference
  2
ovan8.5x20
 10
3904.7131900625754
 20
2675.884802824723
 30
0.0
 41
-1.0
  0
INSERT
  5
145
330
17
100
AcDbEntity
  8
CNC
370
-3
100
AcDbBlockReference
  2
ovan8.5x20
 10
3929.713190062561
 20
2675.884802824723
 30
0.0
 41
-1.0
  0
INSERT
  5
147
330
17
100
AcDbEntity
  8
CNC
370
-3
100
AcDbBlockReference
  2
ovan8.5x20
 10
3954.713190062561
 20
2675.884802824723
 30
0.0
 41
-1.0
  0
INSERT
  5
149
330
17
100
AcDbEntity
  8
CNC
370
-3
100
AcDbBlockReference
  2
ovan8.5x20
 10
3979.713190062561
 20
2675.884802824723
 30
0.0
 41
-1.0
  0
INSERT
  5
14B
330
17
100
AcDbEntity
  8
CNC
370
-3
100
AcDbBlockReference
  2
ovan8.5x20
 10
4004.713190062561
 20
2675.884802824723
 30
0.0
 41
-1.0
  0
INSERT
  5
14D
330
17
100
AcDbEntity
  8
CNC
370
-3
100
AcDbBlockReference
  2
ovan8.5x20
 10
4029.713190062561
 20
2675.884802824723
 30
0.0
 41
-1.0
  0
INSERT
  5
14F
330
17
100
AcDbEntity
  8
CNC
370
-3
100
AcDbBlockReference
  2
ovan8.5x20
 10
4054.713190062561
 20
2675.884802824723
 30
0.0
 41
-1.0
  0
INSERT
  5
151
330
17
100
AcDbEntity
  8
CNC
370
-3
100
AcDbBlockReference
  2
ovan8.5x20
 10
4079.7131900625754
 20
2675.884802824723
 30
0.0
 41
-1.0
  0
INSERT
  5
153
330
17
100
AcDbEntity
  8
CNC
370
-3
100
AcDbBlockReference
  2
ovan8.5x20
 10
3704.713190062561
 20
2675.884802824723
 30
0.0
  0
INSERT
  5
155
330
17
100
AcDbEntity
  8
CNC
370
-3
100
AcDbBlockReference
  2
ovan8.5x20
 10
3679.7131900625754
 20
2675.884802824723
 30
0.0
  0
INSERT
  5
157
330
17
100
AcDbEntity
  8
CNC
370
-3
100
AcDbBlockReference
  2
ovan8.5x20
 10
3654.713190062561
 20
2675.884802824723
 30
0.0
  0
INSERT
  5
159
330
17
100
AcDbEntity
  8
CNC
370
-3
100
AcDbBlockReference
  2
ovan8.5x20
 10
3629.713190062561
 20
2675.884802824723
 30
0.0
  0
INSERT
  5
15B
330
17
100
AcDbEntity
  8
CNC
370
-3
100
AcDbBlockReference
  2
ovan8.5x20
 10
3604.713190062561
 20
2675.884802824723
 30
0.0
  0
INSERT
  5
15D
330
17
100
AcDbEntity
  8
CNC
370
-3
100
AcDbBlockReference
  2
ovan8.5x20
 10
3579.713190062561
 20
2675.884802824723
 30
0.0
  0
INSERT
  5
15F
330
17
100
AcDbEntity
  8
CNC
370
-3
100
AcDbBlockReference
  2
ovan8.5x20
 10
3554.713190062561
 20
2675.884802824723
 30
0.0
  0
INSERT
  5
161
330
17
100
AcDbEntity
  8
CNC
370
-3
100
AcDbBlockReference
  2
ovan8.5x20
 10
3529.713190062561
 20
2675.884802824723
 30
0.0
  0
INSERT
  5
163
330
17
100
AcDbEntity
  8
CNC
370
-3
100
AcDbBlockReference
  2
ovan8.5x20
 10
3504.7131900625754
 20
2675.884802824723
 30
0.0
  0
INSERT
  5
165
330
17
100
AcDbEntity
  8
CNC
370
-3
100
AcDbBlockReference
  2
ovan8.5x20
 10
3479.713190062561
 20
2675.884802824723
 30
0.0
  0
INSERT
  5
167
330
17
100
AcDbEntity
  8
CNC
370
-3
100
AcDbBlockReference
  2
ovan8.5x20
 10
3454.7131900625754
 20
2675.884802824723
 30
0.0
  0
INSERT
  5
169
330
17
100
AcDbEntity
  8
CNC
370
-3
100
AcDbBlockReference
  2
ovan8.5x20
 10
3429.713190062561
 20
2675.884802824723
 30
0.0
  0
INSERT
  5
16B
330
17
100
AcDbEntity
  8
CNC
370
-3
100
AcDbBlockReference
  2
ovan8.5x20
 10
3404.713190062561
 20
2675.884802824723
 30
0.0
  0
INSERT
  5
16D
330
17
100
AcDbEntity
  8
CNC
370
-3
100
AcDbBlockReference
  2
ovan8.5x20
 10
3379.713190062561
 20
2675.884802824723
 30
0.0
  0
INSERT
  5
16F
330
17
100
AcDbEntity
  8
CNC
370
-3
100
AcDbBlockReference
  2
ovan8.5x20
 10
4104.713190062561
 20
2675.884802824723
 30
0.0
 41
-1.0
  0
INSERT
  5
171
330
17
100
AcDbEntity
  8
CNC
370
-3
100
AcDbBlockReference
  2
ovan8.5x20
 10
4129.713190062575
 20
2675.884802824723
 30
0.0
 41
-1.0
  0
INSERT
  5
173
330
17
100
AcDbEntity
  8
CNC
370
-3
100
AcDbBlockReference
  2
ovan8.5x20
 10
4154.713190062561
 20
2675.884802824723
 30
0.0
 41
-1.0
  0
INSERT
  5
175
330
17
100
AcDbEntity
  8
CNC
370
-3
100
AcDbBlockReference
  2
ovan8.5x20
 10
4179.713190062561
 20
2675.884802824723
 30
0.0
 41
-1.0
  0
LINE
  5
177
330
17
100
AcDbEntity
  8
0
 62
7
100
AcDbLine
 10
3319.713190062561
 20
2398.9734716351522
 30
0.0
 11
4239.713190062575
 21
2398.9734716351522
 31
0.0
  0
LINE
  5
178
330
17
100
AcDbEntity
  8
0
 62
7
100
AcDbLine
 10
3319.713190062561
 20
2383.9734716351522
 30
0.0
 11
4239.713190062575
 21
2383.9734716351522
 31
0.0
  0
LINE
  5
179
330
17
100
AcDbEntity
  8
0
 62
7
100
AcDbLine
 10
4239.713190062575
 20
2398.9734716351522
 30
0.0
 11
4239.713190062575
 21
2318.9734716351522
 31
0.0
  0
LINE
  5
17A
330
17
100
AcDbEntity
  8
0
 62
7
100
AcDbLine
 10
4239.713190062575
 20
2318.9734716351522
 30
0.0
 11
3319.713190062561
 21
2318.9734716351522
 31
0.0
  0
LINE
  5
17B
330
17
100
AcDbEntity
  8
0
 62
7
100
AcDbLine
 10
4239.713190062575
 20
2333.9734716351522
 30
0.0
 11
3319.713190062561
 21
2333.9734716351522
 31
0.0
  0
LINE
  5
17C
330
17
100
AcDbEntity
  8
0
 62
7
100
AcDbLine
 10
3319.713190062561
 20
2318.9734716351522
 30
0.0
 11
3319.713190062561
 21
2398.9734716351522
 31
0.0
  0
DIMENSION
  5
17D
330
17
100
AcDbEntity
  8
DIM
 62
7
100
AcDbDimension
280
0
  2
*D27
  3
Dim-25
 10
4301.762312983999
 20
2318.9734716351504
 30
0.0
 11
4278.997988290954
 21
2358.9734716351577
 31
0.0
 70
32
 71
5
 42
80.0
 73
0
 74
0
 75
0
100
AcDbAlignedDimension
 13
4239.713190062575
 23
2398.9734716351522
 33
0.0
 14
4239.713190062575
 24
2318.9734716351522
 34
0.0
 50
90.0
100
AcDbRotatedDimension
  0
DIMENSION
  5
17E
330
17
100
AcDbEntity
  8
DIM
 62
7
100
AcDbDimension
280
0
  2
*D28
  3
Dim-25
 10
3271.4876937855806
 20
2333.9734716351522
 30
0.0
 11
3271.4876937855806
 21
2358.9734716351613
 31
0.0
 70
160
 71
5
 42
50.0
 73
0
 74
0
 75
0
100
AcDbAlignedDimension
 13
3319.713190062561
 23
2383.9734716351522
 33
0.0
 14
3319.713190062561
 24
2333.9734716351522
 34
0.0
 50
90.0
100
AcDbRotatedDimension
  0
DIMENSION
  5
17F
330
17
100
AcDbEntity
  8
DIM
 62
7
100
AcDbDimension
280
0
  2
*D29
  3
Dim-25
 10
3271.487693785559
 20
2398.9734716351522
 30
0.0
 11
3248.723369092513
 21
2441.7964593568504
 31
0.0
 70
32
 71
5
 42
15.0
 73
0
 74
0
 75
0
100
AcDbAlignedDimension
 13
3319.713190062561
 23
2383.9734716351522
 33
0.0
 14
3319.713190062561
 24
2398.9734716351522
 34
0.0
 50
90.0
100
AcDbRotatedDimension
  0
DIMENSION
  5
180
330
17
100
AcDbEntity
  8
DIM
 62
7
100
AcDbDimension
280
0
  2
*D30
  3
Dim-25
 10
3271.487693785559
 20
2318.9734716351522
 30
0.0
 11
3248.7233690925204
 21
2276.1504839134705
 31
0.0
 70
32
 71
5
 42
15.0
 73
0
 74
0
 75
0
100
AcDbAlignedDimension
 13
3319.713190062561
 23
2333.9734716351522
 33
0.0
 14
3319.713190062561
 24
2318.9734716351522
 34
0.0
 50
90.0
100
AcDbRotatedDimension
  0
INSERT
  5
181
330
17
100
AcDbEntity
  8
CNC
370
-3
100
AcDbBlockReference
  2
ovan8.5x20
 10
3335.713190062561
 20
2371.4734716351522
 30
0.0
 50
180.0
  0
INSERT
  5
183
330
17
100
AcDbEntity
  8
CNC
370
-3
100
AcDbBlockReference
  2
ovan8.5x20
 10
3335.713190062561
 20
2346.4734716351504
 30
0.0
 50
180.0
  0
INSERT
  5
185
330
17
100
AcDbEntity
  8
CNC
370
-3
100
AcDbBlockReference
  2
ovan8.5x20
 10
4223.713190062583
 20
2371.4734716351522
 30
0.0
 41
-1.0
 50
180.0
  0
INSERT
  5
187
330
17
100
AcDbEntity
  8
CNC
370
-3
100
AcDbBlockReference
  2
ovan8.5x20
 10
4223.713190062583
 20
2346.4734716351504
 30
0.0
 41
-1.0
 50
180.0
  0
INSERT
  5
189
330
17
100
AcDbEntity
  8
0
370
-3
100
AcDbBlockReference
  2
f3daunguoc
 10
3334.7131900625827
 20
2383.9734716351522
 30
0.0
 50
270.0
  0
INSERT
  5
18B
330
17
100
AcDbEntity
  8
0
370
-3
100
AcDbBlockReference
  2
f3daunguoc
 10
3334.7131900625827
 20
2333.9734716351522
 30
0.0
 50
270.0
  0
INSERT
  5
18D
330
17
100
AcDbEntity
  8
0
370
-3
100
AcDbBlockReference
  2
f3daunguoc
 10
4224.713190062554
 20
2383.9734716351522
 30
0.0
 41
-1.0
 50
90.0
  0
INSERT
  5
18F
330
17
100
AcDbEntity
  8
0
370
-3
100
AcDbBlockReference
  2
f3daunguoc
 10
4224.713190062554
 20
2333.9734716351522
 30
0.0
 41
-1.0
 50
90.0
  0
INSERT
  5
191
330
17
100
AcDbEntity
  8
CNC
370
-3
100
AcDbBlockReference
  2
ovan8.5x20
 10
3729.7131900625754
 20
2358.9734716351522
 30
0.0
 41
-1.0
  0
INSERT
  5
193
330
17
100
AcDbEntity
  8
CNC
370
-3
100
AcDbBlockReference
  2
ovan8.5x20
 10
3754.713190062561
 20
2358.9734716351522
 30
0.0
 41
-1.0
  0
INSERT
  5
195
330
17
100
AcDbEntity
  8
CNC
370
-3
100
AcDbBlockReference
  2
ovan8.5x20
 10
3779.713190062561
 20
2358.9734716351522
 30
0.0
 41
-1.0
  0
INSERT
  5
197
330
17
100
AcDbEntity
  8
CNC
370
-3
100
AcDbBlockReference
  2
ovan8.5x20
 10
3804.713190062561
 20
2358.9734716351522
 30
0.0
 41
-1.0
  0
INSERT
  5
199
330
17
100
AcDbEntity
  8
CNC
370
-3
100
AcDbBlockReference
  2
ovan8.5x20
 10
3829.713190062561
 20
2358.9734716351522
 30
0.0
 41
-1.0
  0
INSERT
  5
19B
330
17
100
AcDbEntity
  8
CNC
370
-3
100
AcDbBlockReference
  2
ovan8.5x20
 10
3854.7131900625754
 20
2358.9734716351522
 30
0.0
 41
-1.0
  0
INSERT
  5
19D
330
17
100
AcDbEntity
  8
CNC
370
-3
100
AcDbBlockReference
  2
ovan8.5x20
 10
3879.713190062561
 20
2358.9734716351522
 30
0.0
 41
-1.0
  0
INSERT
  5
19F
330
17
100
AcDbEntity
  8
CNC
370
-3
100
AcDbBlockReference
  2
ovan8.5x20
 10
3904.7131900625754
 20
2358.9734716351522
 30
0.0
 41
-1.0
  0
INSERT
  5
1A1
330
17
100
AcDbEntity
  8
CNC
370
-3
100
AcDbBlockReference
  2
ovan8.5x20
 10
3929.713190062561
 20
2358.9734716351522
 30
0.0
 41
-1.0
  0
INSERT
  5
1A3
330
17
100
AcDbEntity
  8
CNC
370
-3
100
AcDbBlockReference
  2
ovan8.5x20
 10
3954.713190062561
 20
2358.9734716351522
 30
0.0
 41
-1.0
  0
INSERT
  5
1A5
330
17
100
AcDbEntity
  8
CNC
370
-3
100
AcDbBlockReference
  2
ovan8.5x20
 10
3979.713190062561
 20
2358.9734716351522
 30
0.0
 41
-1.0
  0
INSERT
  5
1A7
330
17
100
AcDbEntity
  8
CNC
370
-3
100
AcDbBlockReference
  2
ovan8.5x20
 10
4004.713190062561
 20
2358.9734716351522
 30
0.0
 41
-1.0
  0
INSERT
  5
1A9
330
17
100
AcDbEntity
  8
CNC
370
-3
100
AcDbBlockReference
  2
ovan8.5x20
 10
4029.713190062561
 20
2358.9734716351522
 30
0.0
 41
-1.0
  0
INSERT
  5
1AB
330
17
100
AcDbEntity
  8
CNC
370
-3
100
AcDbBlockReference
  2
ovan8.5x20
 10
4054.713190062561
 20
2358.9734716351522
 30
0.0
 41
-1.0
  0
INSERT
  5
1AD
330
17
100
AcDbEntity
  8
CNC
370
-3
100
AcDbBlockReference
  2
ovan8.5x20
 10
4079.7131900625754
 20
2358.9734716351522
 30
0.0
 41
-1.0
  0
INSERT
  5
1AF
330
17
100
AcDbEntity
  8
CNC
370
-3
100
AcDbBlockReference
  2
ovan8.5x20
 10
3704.713190062561
 20
2358.9734716351522
 30
0.0
  0
INSERT
  5
1B1
330
17
100
AcDbEntity
  8
CNC
370
-3
100
AcDbBlockReference
  2
ovan8.5x20
 10
3679.7131900625754
 20
2358.9734716351522
 30
0.0
  0
INSERT
  5
1B3
330
17
100
AcDbEntity
  8
CNC
370
-3
100
AcDbBlockReference
  2
ovan8.5x20
 10
3654.713190062561
 20
2358.9734716351522
 30
0.0
  0
INSERT
  5
1B5
330
17
100
AcDbEntity
  8
CNC
370
-3
100
AcDbBlockReference
  2
ovan8.5x20
 10
3629.713190062561
 20
2358.9734716351522
 30
0.0
  0
INSERT
  5
1B7
330
17
100
AcDbEntity
  8
CNC
370
-3
100
AcDbBlockReference
  2
ovan8.5x20
 10
3604.713190062561
 20
2358.9734716351522
 30
0.0
  0
INSERT
  5
1B9
330
17
100
AcDbEntity
  8
CNC
370
-3
100
AcDbBlockReference
  2
ovan8.5x20
 10
3579.713190062561
 20
2358.9734716351522
 30
0.0
  0
INSERT
  5
1BB
330
17
100
AcDbEntity
  8
CNC
370
-3
100
AcDbBlockReference
  2
ovan8.5x20
 10
3554.713190062561
 20
2358.9734716351522
 30
0.0
  0
INSERT
  5
1BD
330
17
100
AcDbEntity
  8
CNC
370
-3
100
AcDbBlockReference
  2
ovan8.5x20
 10
3529.713190062561
 20
2358.9734716351522
 30
0.0
  0
INSERT
  5
1BF
330
17
100
AcDbEntity
  8
CNC
370
-3
100
AcDbBlockReference
  2
ovan8.5x20
 10
3504.7131900625754
 20
2358.9734716351522
 30
0.0
  0
INSERT
  5
1C1
330
17
100
AcDbEntity
  8
CNC
370
-3
100
AcDbBlockReference
  2
ovan8.5x20
 10
3479.713190062561
 20
2358.9734716351522
 30
0.0
  0
INSERT
  5
1C3
330
17
100
AcDbEntity
  8
CNC
370
-3
100
AcDbBlockReference
  2
ovan8.5x20
 10
3454.7131900625754
 20
2358.9734716351522
 30
0.0
  0
INSERT
  5
1C5
330
17
100
AcDbEntity
  8
CNC
370
-3
100
AcDbBlockReference
  2
ovan8.5x20
 10
3429.713190062561
 20
2358.9734716351522
 30
0.0
  0
INSERT
  5
1C7
330
17
100
AcDbEntity
  8
CNC
370
-3
100
AcDbBlockReference
  2
ovan8.5x20
 10
3404.713190062561
 20
2358.9734716351522
 30
0.0
  0
INSERT
  5
1C9
330
17
100
AcDbEntity
  8
CNC
370
-3
100
AcDbBlockReference
  2
ovan8.5x20
 10
3379.713190062561
 20
2358.9734716351522
 30
0.0
  0
INSERT
  5
1CB
330
17
100
AcDbEntity
  8
CNC
370
-3
100
AcDbBlockReference
  2
ovan8.5x20
 10
4104.713190062561
 20
2358.9734716351522
 30
0.0
 41
-1.0
  0
INSERT
  5
1CD
330
17
100
AcDbEntity
  8
CNC
370
-3
100
AcDbBlockReference
  2
ovan8.5x20
 10
4129.713190062575
 20
2358.9734716351522
 30
0.0
 41
-1.0
  0
INSERT
  5
1CF
330
17
100
AcDbEntity
  8
CNC
370
-3
100
AcDbBlockReference
  2
ovan8.5x20
 10
4154.713190062561
 20
2358.9734716351522
 30
0.0
 41
-1.0
  0
INSERT
  5
1D1
330
17
100
AcDbEntity
  8
CNC
370
-3
100
AcDbBlockReference
  2
ovan8.5x20
 10
4179.713190062561
 20
2358.9734716351522
 30
0.0
 41
-1.0
  0
INSERT
  5
1D3
330
17
100
AcDbEntity
  8
CNC
370
-3
100
AcDbBlockReference
  2
ovan8.5x20
 10
4204.713190062561
 20
2358.9734716351522
 30
0.0
 41
-1.0
  0
INSERT
  5
1D5
330
17
100
AcDbEntity
  8
CNC
370
-3
100
AcDbBlockReference
  2
ovan8.5x20
 10
3354.713190062561
 20
2358.9734716351522
 30
0.0
  0
LINE
  5
1D7
330
17
100
AcDbEntity
  8
0
100
AcDbLine
 10
3359.7131900625754
 20
2715.884802824723
 30
0.0
 11
3359.7131900625754
 21
2700.884802824723
 31
0.0
  0
INSERT
  5
1D8
330
17
100
AcDbEntity
  8
0
370
-3
100
AcDbBlockReference
  2
f3daunguoc
 10
4189.713190062554
 20
2700.884802824723
 30
0.0
 41
-1.0
 50
90.0
  0
LINE
  5
1DA
330
17
100
AcDbEntity
  8
0
100
AcDbLine
 10
4199.713190062561
 20
2715.884802824723
 30
0.0
 11
4199.713190062561
 21
2700.884802824723
 31
0.0
  0
INSERT
  5
1DB
330
17
100
AcDbEntity
  8
0
370
-3
100
AcDbBlockReference
  2
f3daunguoc
 10
3369.7131900625827
 20
2650.884802824723
 30
0.0
 41
-1.0
 50
270.0
  0
LINE
  5
1DD
330
17
100
AcDbEntity
  8
0
100
AcDbLine
 10
3359.7131900625754
 20
2635.884802824721
 30
0.0
 11
3359.7131900625754
 21
2650.884802824723
 31
0.0
  0
INSERT
  5
1DE
330
17
100
AcDbEntity
  8
0
370
-3
100
AcDbBlockReference
  2
f3daunguoc
 10
4189.713190062554
 20
2650.884802824723
 30
0.0
 50
90.0
  0
LINE
  5
1E0
330
17
100
AcDbEntity
  8
0
100
AcDbLine
 10
4199.713190062561
 20
2635.884802824721
 30
0.0
 11
4199.713190062561
 21
2650.884802824723
 31
0.0
  0
INSERT
  5
1E1
330
17
100
AcDbEntity
  8
CNC
370
-3
100
AcDbBlockReference
  2
ovan8.5x20
 10
4204.713190062561
 20
2675.884802824723
 30
0.0
 41
-1.0
  0
INSERT
  5
1E3
330
17
100
AcDbEntity
  8
CNC
370
-3
100
AcDbBlockReference
  2
ovan8.5x20
 10
3354.713190062561
 20
2675.884802824723
 30
0.0
  0
MTEXT
  5
1E5
330
17
100
AcDbEntity
  8
0
 62
7
100
AcDbMText
 10
3730.2153969811625
 20
2166.6878939005983
 30
0.0
 40
40.0
 41
915.0000000000146
 46
100.0000000000031
 71
5
 72
5
  1
Thanh U: 08 tấm
  0
LINE
  5
1E6
330
17
100
AcDbEntity
  8
0
100
AcDbLine
 10
3703.2325397500827
 20
1185.352528907204
 30
0.0
 11
3718.2325397500827
 21
1185.352528907204
 31
0.0
  0
LINE
  5
1E7
330
17
100
AcDbEntity
  8
0
100
AcDbLine
 10
3718.2325397500827
 20
1185.352528907204
 30
0.0
 11
3718.2325397500827
 21
1270.3525289072059
 31
0.0
  0
LINE
  5
1E8
330
17
100
AcDbEntity
  8
0
100
AcDbLine
 10
3718.2325397500827
 20
1270.3525289072059
 30
0.0
 11
3883.2325397500827
 21
1270.3525289072059
 31
0.0
  0
LINE
  5
1E9
330
17
100
AcDbEntity
  8
0
100
AcDbLine
 10
3883.2325397500827
 20
1270.3525289072059
 30
0.0
 11
3883.2325397500827
 21
1185.352528907204
 31
0.0
  0
LINE
  5
1EA
330
17
100
AcDbEntity
  8
0
100
AcDbLine
 10
3883.2325397500827
 20
1185.352528907204
 30
0.0
 11
3898.2325397500827
 21
1185.352528907204
 31
0.0
  0
LWPOLYLINE
  5
1EB
330
17
100
AcDbEntity
  8
0
100
AcDbPolyline
 90
4
 70
1
 10
3736.062289079273
 20
1899.0241941160566
 10
3901.062289079273
 20
1899.0241941160566
 10
3901.062289079273
 20
1474.0241941160566
 10
3736.062289079273
 20
1474.0241941160566
  0
CIRCLE
  5
1EC
330
17
100
AcDbEntity
  8
0
 62
2
100
AcDbCircle
 10
3881.562289079273
 20
1860.937370027259
 30
0.0
 40
2.5
  0
CIRCLE
  5
1ED
330
17
100
AcDbEntity
  8
0
 62
2
100
AcDbCircle
 10
3881.562289079273
 20
1825.937370027259
 30
0.0
 40
2.5
  0
CIRCLE
  5
1EE
330
17
100
AcDbEntity
  8
0
 62
2
100
AcDbCircle
 10
3881.562289079273
 20
1755.9373700272554
 30
0.0
 40
2.5
  0
CIRCLE
  5
1EF
330
17
100
AcDbEntity
  8
0
 62
2
100
AcDbCircle
 10
3881.562289079273
 20
1720.9373700272554
 30
0.0
 40
2.5
  0
CIRCLE
  5
1F0
330
17
100
AcDbEntity
  8
0
 62
2
100
AcDbCircle
 10
3881.5122890792845
 20
1650.937370027259
 30
0.0
 40
2.5
  0
CIRCLE
  5
1F1
330
17
100
AcDbEntity
  8
0
 62
2
100
AcDbCircle
 10
3881.5122890792845
 20
1615.937370027259
 30
0.0
 40
2.5
  0
CIRCLE
  5
1F2
330
17
100
AcDbEntity
  8
0
 62
2
100
AcDbCircle
 10
3881.562289079273
 20
1545.937370027259
 30
0.0
 40
2.5
  0
CIRCLE
  5
1F3
330
17
100
AcDbEntity
  8
0
 62
2
100
AcDbCircle
 10
3881.562289079273
 20
1510.9373700272572
 30
0.0
 40
2.5
  0
CIRCLE
  5
1F4
330
17
100
AcDbEntity
  8
0
 62
2
100
AcDbCircle
 10
3753.744143566466
 20
1860.937370027259
 30
0.0
 40
2.5
  0
CIRCLE
  5
1F5
330
17
100
AcDbEntity
  8
0
 62
2
100
AcDbCircle
 10
3753.744143566466
 20
1825.937370027259
 30
0.0
 40
2.5
  0
CIRCLE
  5
1F6
330
17
100
AcDbEntity
  8
0
 62
2
100
AcDbCircle
 10
3753.744143566466
 20
1755.9373700272554
 30
0.0
 40
2.5
  0
CIRCLE
  5
1F7
330
17
100
AcDbEntity
  8
0
 62
2
100
AcDbCircle
 10
3753.744143566466
 20
1720.9373700272554
 30
0.0
 40
2.5
  0
CIRCLE
  5
1F8
330
17
100
AcDbEntity
  8
0
 62
2
100
AcDbCircle
 10
3753.7941435664543
 20
1650.937370027259
 30
0.0
 40
2.5
  0
CIRCLE
  5
1F9
330
17
100
AcDbEntity
  8
0
 62
2
100
AcDbCircle
 10
3753.7941435664543
 20
1615.937370027259
 30
0.0
 40
2.5
  0
CIRCLE
  5
1FA
330
17
100
AcDbEntity
  8
0
 62
2
100
AcDbCircle
 10
3753.744143566466
 20
1545.937370027259
 30
0.0
 40
2.5
  0
CIRCLE
  5
1FB
330
17
100
AcDbEntity
  8
0
 62
2
100
AcDbCircle
 10
3753.744143566466
 20
1510.9373700272572
 30
0.0
 40
2.5
  0
LINE
  5
1FC
330
17
100
AcDbEntity
  8
0
100
AcDbLine
 10
3984.062289079273
 20
1899.0241941160566
 30
0.0
 11
3984.062289079273
 21
1474.0241941160566
 31
0.0
  0
LINE
  5
1FD
330
17
100
AcDbEntity
  8
0
100
AcDbLine
 10
3653.062289079273
 20
1899.0241941160566
 30
0.0
 11
3653.062289079273
 21
1474.0241941160566
 31
0.0
  0
LINE
  5
1FE
330
17
100
AcDbEntity
  8
0
100
AcDbLine
 10
4004.0622890792656
 20
1899.0241941160566
 30
0.0
 11
4004.0622890792656
 21
1474.0241941160566
 31
0.0
  0
LINE
  5
1FF
330
17
100
AcDbEntity
  8
0
100
AcDbLine
 10
3633.062289079273
 20
1899.0241941160566
 30
0.0
 11
3633.062289079273
 21
1474.0241941160566
 31
0.0
  0
LWPOLYLINE
  5
200
330
17
100
AcDbEntity
  8
0
100
AcDbPolyline
 90
4
 70
1
 10
3633.062289079273
 20
1899.0241941160566
 10
4004.0622890792656
 20
1899.0241941160566
 10
4004.0622890792656
 20
1474.0241941160566
 10
3633.062289079273
 20
1474.0241941160566
  0
CIRCLE
  5
201
330
17
100
AcDbEntity
  8
0
100
AcDbCircle
 10
3994.062289079273
 20
1879.0241941160566
 30
0.0
 40
3.0
  0
CIRCLE
  5
202
330
17
100
AcDbEntity
  8
0
100
AcDbCircle
 10
3994.062289079273
 20
1686.5241941160566
 30
0.0
 40
3.0
  0
CIRCLE
  5
203
330
17
100
AcDbEntity
  8
0
100
AcDbCircle
 10
3994.062289079273
 20
1494.0241941160566
 30
0.0
 40
3.0
  0
CIRCLE
  5
204
330
17
100
AcDbEntity
  8
0
100
AcDbCircle
 10
3643.062289079273
 20
1879.0241941160566
 30
0.0
 40
3.0
  0
CIRCLE
  5
205
330
17
100
AcDbEntity
  8
0
100
AcDbCircle
 10
3643.062289079273
 20
1686.5241941160566
 30
0.0
 40
3.0
  0
CIRCLE
  5
206
330
17
100
AcDbEntity
  8
0
100
AcDbCircle
 10
3643.062289079273
 20
1494.0241941160566
 30
0.0
 40
3.0
  0
CIRCLE
  5
207
330
17
100
AcDbEntity
  8
0
100
AcDbCircle
 10
3653.062289079273
 20
1894.0241941160584
 30
0.0
 40
1.0
  0
CIRCLE
  5
208
330
17
100
AcDbEntity
  8
0
100
AcDbCircle
 10
3736.062289079273
 20
1889.0241941160566
 30
0.0
 40
1.5
  0
CIRCLE
  5
209
330
17
100
AcDbEntity
  8
0
100
AcDbCircle
 10
3984.062289079273
 20
1894.0241941160584
 30
0.0
 40
1.0
  0
CIRCLE
  5
20A
330
17
100
AcDbEntity
  8
0
100
AcDbCircle
 10
3901.062289079273
 20
1889.0241941160566
 30
0.0
 40
1.5
  0
CIRCLE
  5
20B
330
17
100
AcDbEntity
  8
0
100
AcDbCircle
 10
3653.062289079273
 20
1479.0241941160566
 30
0.0
 40
1.0
  0
CIRCLE
  5
20C
330
17
100
AcDbEntity
  8
0
100
AcDbCircle
 10
3736.062289079273
 20
1484.0241941160566
 30
0.0
 40
1.5
  0
CIRCLE
  5
20D
330
17
100
AcDbEntity
  8
0
100
AcDbCircle
 10
3984.062289079273
 20
1479.0241941160566
 30
0.0
 40
1.0
  0
CIRCLE
  5
20E
330
17
100
AcDbEntity
  8
0
100
AcDbCircle
 10
3901.062289079273
 20
1484.0241941160566
 30
0.0
 40
1.5
  0
DIMENSION
  5
20F
330
17
100
AcDbEntity
  8
DIM
100
AcDbDimension
280
0
  2
*D31
  3
Dim-25
 10
4004.0622890792656
 20
1943.4102974372236
 30
0.0
 11
4040.138687442166
 21
1966.1746221302637
 31
0.0
 70
32
 71
5
 42
20.0
 73
0
 74
0
 75
0
100
AcDbAlignedDimension
 13
3984.062289079273
 23
1899.0241941160566
 33
0.0
 14
4004.0622890792656
 24
1899.0241941160566
 34
0.0
 50
0.0
100
AcDbRotatedDimension
  0
DIMENSION
  5
210
330
17
100
AcDbEntity
  8
DIM
100
AcDbDimension
280
0
  2
*D32
  3
Dim-25
 10
3901.062289079273
 20
1943.4102974372236
 30
0.0
 11
3942.562289079273
 21
1966.1831487332656
 31
0.0
 70
32
 71
5
 42
83.0
 73
0
 74
0
 75
0
100
AcDbAlignedDimension
 13
3984.062289079273
 23
1899.0241941160566
 33
0.0
 14
3901.062289079273
 24
1899.0241941160566
 34
0.0
 50
0.0
100
AcDbRotatedDimension
  0
DIMENSION
  5
211
330
17
100
AcDbEntity
  8
DIM
100
AcDbDimension
280
0
  2
*D33
  3
Dim-25
 10
3736.062289079273
 20
1943.4102974372236
 30
0.0
 11
3818.562289079273
 21
1966.1746221302637
 31
0.0
 70
32
 71
5
 42
165.0
 73
0
 74
0
 75
0
100
AcDbAlignedDimension
 13
3901.062289079273
 23
1899.0241941160566
 33
0.0
 14
3736.062289079273
 24
1899.0241941160566
 34
0.0
 50
0.0
100
AcDbRotatedDimension
  0
DIMENSION
  5
212
330
17
100
AcDbEntity
  8
DIM
100
AcDbDimension
280
0
  2
*D34
  3
Dim-25
 10
3653.062289079273
 20
1943.4102974372236
 30
0.0
 11
3694.562289079273
 21
1966.1831487332656
 31
0.0
 70
32
 71
5
 42
83.0
 73
0
 74
0
 75
0
100
AcDbAlignedDimension
 13
3736.062289079273
 23
1899.0241941160566
 33
0.0
 14
3653.062289079273
 24
1899.0241941160566
 34
0.0
 50
0.0
100
AcDbRotatedDimension
  0
DIMENSION
  5
213
330
17
100
AcDbEntity
  8
DIM
100
AcDbDimension
280
0
  2
*D35
  3
Dim-25
 10
3633.062289079273
 20
1943.4102974372236
 30
0.0
 11
3596.9858907163725
 21
1966.1746221302637
 31
0.0
 70
32
 71
5
 42
20.0
 73
0
 74
0
 75
0
100
AcDbAlignedDimension
 13
3653.062289079273
 23
1899.0241941160566
 33
0.0
 14
3633.062289079273
 24
1899.0241941160566
 34
0.0
 50
0.0
100
AcDbRotatedDimension
  0
DIMENSION
  5
214
330
17
100
AcDbEntity
  8
DIM
100
AcDbDimension
280
0
  2
*D36
  3
Dim-25
 10
3578.6936734222254
 20
1474.0241941160566
 30
0.0
 11
3555.9293487291725
 21
1686.524194116062
 31
0.0
 70
32
 71
5
 42
425.0
 73
0
 74
0
 75
0
100
AcDbAlignedDimension
 13
3633.062289079273
 23
1899.0241941160566
 33
0.0
 14
3633.062289079273
 24
1474.0241941160566
 34
0.0
 50
90.0
100
AcDbRotatedDimension
  0
MTEXT
  5
215
330
17
100
AcDbEntity
  8
0
 62
2
100
AcDbMText
 10
3794.4140148359656
 20
1394.7180434289621
 30
0.0
 40
36.0
 41
775.0000000000146
 46
100.0000000000031
 71
5
 72
5
  1
Đố át : 4 tấm
  0
LINE
  5
216
330
17
100
AcDbEntity
  8
0
100
AcDbLine
 10
3197.4360287895397
 20
797.3476896476859
 30
0.0
 11
4117.436028789554
 21
797.3476896476859
 31
0.0
  0
LINE
  5
217
330
17
100
AcDbEntity
  8
10
  6
Continuous
100
AcDbLine
 10
4117.436028789554
 20
564.3472569180658
 30
0.0
 11
4117.436028789554
 21
797.3476896476859
 31
0.0
  0
CIRCLE
  5
218
330
17
100
AcDbEntity
  8
0
100
AcDbCircle
 10
3813.436028789205
 20
766.3476896476859
 30
0.0
 40
5.0
  0
CIRCLE
  5
219
330
17
100
AcDbEntity
  8
0
100
AcDbCircle
 10
3813.436028789205
 20
726.3476896476859
 30
0.0
 40
5.0
  0
CIRCLE
  5
21A
330
17
100
AcDbEntity
  8
0
100
AcDbCircle
 10
3813.43358738353
 20
591.3476896476859
 30
0.0
 40
5.0
  0
CIRCLE
  5
21B
330
17
100
AcDbEntity
  8
0
100
AcDbCircle
 10
3501.4359887891915
 20
766.3476896476859
 30
0.0
 40
5.0
  0
CIRCLE
  5
21C
330
17
100
AcDbEntity
  8
0
100
AcDbCircle
 10
3501.4359887891915
 20
726.3476896476859
 30
0.0
 40
5.0
  0
CIRCLE
  5
21D
330
17
100
AcDbEntity
  8
0
100
AcDbCircle
 10
3501.4335473835235
 20
591.3476896476859
 30
0.0
 40
5.0
  0
LINE
  5
21E
330
17
100
AcDbEntity
  8
0
100
AcDbLine
 10
3197.4360287895397
 20
564.3472569180658
 30
0.0
 11
4117.436028789554
 21
564.3472569180658
 31
0.0
  0
LINE
  5
21F
330
17
100
AcDbEntity
  8
10
  6
Continuous
100
AcDbLine
 10
3197.4360287895397
 20
564.3472569180658
 30
0.0
 11
3197.4360287895397
 21
797.3476896476859
 31
0.0
  0
DIMENSION
  5
220
330
17
100
AcDbEntity
  8
DIM
100
AcDbDimension
280
0
  2
*D37
  3
Dim-25
 10
4234.713190062561
 20
2756.9700627552083
 30
0.0
 11
3779.713190062561
 21
2779.734387448252
 31
0.0
 70
32
 71
5
 42
910.0
 73
0
 74
0
 75
0
100
AcDbAlignedDimension
 13
3324.713190062561
 23
2700.884802824723
 33
0.0
 14
4234.713190062561
 24
2700.884802824723
 34
0.0
 50
0.0
100
AcDbRotatedDimension
  0
DIMENSION
  5
221
330
17
100
AcDbEntity
  8
DIM
100
AcDbDimension
280
0
  2
*D38
  3
Dim-25
 10
4239.713190062575
 20
2250.9839590437623
 30
0.0
 11
3779.713190062561
 21
2273.7482837368043
 31
0.0
 70
32
 71
5
 42
920.0
 73
0
 74
0
 75
0
100
AcDbAlignedDimension
 13
3319.713190062561
 23
2318.9734716351522
 33
0.0
 14
4239.713190062575
 24
2318.9734716351522
 34
0.0
 50
0.0
100
AcDbRotatedDimension
  0
LINE
  5
222
330
17
100
AcDbEntity
  8
0
100
AcDbLine
 10
3197.4360287895397
 20
847.3476896476859
 30
0.0
 11
4117.436028789554
 21
847.3476896476859
 31
0.0
  0
LINE
  5
223
330
17
100
AcDbEntity
  8
10
  6
Continuous
100
AcDbLine
 10
3147.4360287895543
 20
564.3472569180658
 30
0.0
 11
3147.4360287895543
 21
797.3476896476859
 31
0.0
  0
LINE
  5
224
330
17
100
AcDbEntity
  8
0
100
AcDbLine
 10
3197.4360287895397
 20
514.3472569180658
 30
0.0
 11
4117.436028789554
 21
514.3472569180658
 31
0.0
  0
LINE
  5
225
330
17
100
AcDbEntity
  8
10
  6
Continuous
100
AcDbLine
 10
4167.436028789554
 20
564.3472569180658
 30
0.0
 11
4167.436028789554
 21
797.3476896476859
 31
0.0
  0
LINE
  5
226
330
17
100
AcDbEntity
  8
0
100
AcDbLine
 10
3197.4360287895397
 20
504.3472569180667
 30
0.0
 11
4117.436028789554
 21
504.3472569180667
 31
0.0
  0
LINE
  5
227
330
17
100
AcDbEntity
  8
0
100
AcDbLine
 10
3197.4360287895397
 20
857.3476896476868
 30
0.0
 11
4117.436028789554
 21
857.3476896476868
 31
0.0
  0
LWPOLYLINE
  5
228
330
17
100
AcDbEntity
  8
0
100
AcDbPolyline
 90
3
 70
0
 10
3147.4360287895543
 20
797.3476896476859
 10
3197.4360287895397
 20
797.3476896476859
 10
3197.4360287895397
 20
857.3476896476868
  0
LWPOLYLINE
  5
229
330
17
100
AcDbEntity
  8
0
100
AcDbPolyline
 90
3
 70
0
 10
4167.436028789554
 20
797.3476896476859
 10
4117.436028789554
 20
797.3476896476859
 10
4117.436028789554
 20
857.3476896476868
  0
LWPOLYLINE
  5
22A
330
17
100
AcDbEntity
  8
0
100
AcDbPolyline
 90
3
 70
0
 10
4167.436028789554
 20
564.3472569180658
 10
4117.436028789554
 20
564.3472569180658
 10
4117.436028789554
 20
504.3472569180667
  0
LWPOLYLINE
  5
22B
330
17
100
AcDbEntity
  8
0
100
AcDbPolyline
 90
3
 70
0
 10
3147.4360287895543
 20
564.3472569180658
 10
3197.4360287895397
 20
564.3472569180658
 10
3197.4360287895397
 20
504.3472569180667
  0
DIMENSION
  5
22C
330
17
100
AcDbEntity
  8
DIM
100
AcDbDimension
280
0
  2
*D39
  3
Dim-25
 10
4278.9197392589995
 20
504.3472569180667
 30
0.0
 11
4256.146887962954
 21
680.8474732828836
 31
0.0
 70
32
 71
5
 42
353.0004327296192
 73
0
 74
0
 75
0
100
AcDbAlignedDimension
 13
4117.436028789554
 23
857.3476896476868
 33
0.0
 14
4117.436028789554
 24
504.3472569180667
 34
0.0
 50
90.0
100
AcDbRotatedDimension
  0
DIMENSION
  5
22D
330
17
100
AcDbEntity
  8
DIM
100
AcDbDimension
280
0
  2
*D40
  3
Dim-25
 10
3098.886765347983
 20
857.3476896476868
 30
0.0
 11
3076.12244065493
 21
900.034251721363
 31
0.0
 70
32
 71
5
 42
10.0
 73
0
 74
0
 75
0
100
AcDbAlignedDimension
 13
3197.4360287895397
 23
847.3476896476859
 33
0.0
 14
3197.4360287895397
 24
857.3476896476868
 34
0.0
 50
90.0
100
AcDbRotatedDimension
  0
DIMENSION
  5
22E
330
17
100
AcDbEntity
  8
DIM
100
AcDbDimension
280
0
  2
*D41
  3
Dim-25
 10
3098.886765347983
 20
847.3476896476859
 30
0.0
 11
3098.886765347983
 21
822.3476896476932
 31
0.0
 70
160
 71
5
 42
50.0
 73
0
 74
0
 75
0
100
AcDbAlignedDimension
 13
3147.4360287895543
 23
797.3476896476859
 33
0.0
 14
3197.4360287895397
 24
847.3476896476859
 34
0.0
 50
90.0
100
AcDbRotatedDimension
  0
DIMENSION
  5
22F
330
17
100
AcDbEntity
  8
DIM
100
AcDbDimension
280
0
  2
*D42
  3
Dim-25
 10
3098.886765347983
 20
564.3472569180658
 30
0.0
 11
3076.11391405193
 21
680.8474732828836
 31
0.0
 70
32
 71
5
 42
233.0004327296192
 73
0
 74
0
 75
0
100
AcDbAlignedDimension
 13
3147.4360287895543
 23
797.3476896476859
 33
0.0
 14
3147.4360287895543
 24
564.3472569180658
 34
0.0
 50
90.0
100
AcDbRotatedDimension
  0
DIMENSION
  5
230
330
17
100
AcDbEntity
  8
DIM
100
AcDbDimension
280
0
  2
*D43
  3
Dim-25
 10
3098.886765347983
 20
514.3472569180658
 30
0.0
 11
3098.886765347983
 21
539.3472569180749
 31
0.0
 70
160
 71
5
 42
50.0
 73
0
 74
0
 75
0
100
AcDbAlignedDimension
 13
3147.4360287895543
 23
564.3472569180658
 33
0.0
 14
3197.4360287895397
 24
514.3472569180658
 34
0.0
 50
90.0
100
AcDbRotatedDimension
  0
DIMENSION
  5
231
330
17
100
AcDbEntity
  8
DIM
100
AcDbDimension
280
0
  2
*D44
  3
Dim-25
 10
3098.886765347983
 20
504.3472569180667
 30
0.0
 11
3076.12244065493
 21
461.66069484440504
 31
0.0
 70
32
 71
5
 42
10.0
 73
0
 74
0
 75
0
100
AcDbAlignedDimension
 13
3197.4360287895397
 23
514.3472569180658
 33
0.0
 14
3197.4360287895397
 24
504.3472569180667
 34
0.0
 50
90.0
100
AcDbRotatedDimension
  0
DIMENSION
  5
232
330
17
100
AcDbEntity
  8
DIM
100
AcDbDimension
280
0
  2
*D45
  3
Dim-25
 10
4167.436028789554
 20
977.2913117825583
 30
0.0
 11
3657.4360287895543
 21
1000.0556364756021
 31
0.0
 70
32
 71
5
 42
1020.0
 73
0
 74
0
 75
0
100
AcDbAlignedDimension
 13
3147.4360287895543
 23
797.3476896476859
 33
0.0
 14
4167.436028789554
 24
797.3476896476859
 34
0.0
 50
0.0
100
AcDbRotatedDimension
  0
DIMENSION
  5
233
330
17
100
AcDbEntity
  8
DIM
100
AcDbDimension
280
0
  2
*D46
  3
Dim-25
 10
3197.4360287895397
 20
900.7672523085994
 30
0.0
 11
3657.4360287895543
 21
923.5315770016423
 31
0.0
 70
32
 71
5
 42
920.0
 73
0
 74
0
 75
0
100
AcDbAlignedDimension
 13
4117.436028789554
 23
857.3476896476868
 33
0.0
 14
3197.4360287895397
 24
857.3476896476868
 34
0.0
 50
0.0
100
AcDbRotatedDimension
  0
INSERT
  5
234
330
17
100
AcDbEntity
  8
CNC
370
-3
100
AcDbBlockReference
  2
ovan8.5x20
 10
3159.9360287895543
 20
584.3472569180594
 30
0.0
 41
-1.0
 50
90.0
  0
INSERT
  5
236
330
17
100
AcDbEntity
  8
CNC
370
-3
100
AcDbBlockReference
  2
ovan8.5x20
 10
3184.9360287895543
 20
584.3472569180594
 30
0.0
 41
-1.0
 50
90.0
  0
INSERT
  5
238
330
17
100
AcDbEntity
  8
CNC
370
-3
100
AcDbBlockReference
  2
ovan8.5x20
 10
3159.9360287895543
 20
777.3476896476941
 30
0.0
 50
90.0
  0
INSERT
  5
23A
330
17
100
AcDbEntity
  8
CNC
370
-3
100
AcDbBlockReference
  2
ovan8.5x20
 10
3184.9360287895543
 20
777.3476896476941
 30
0.0
 50
90.0
  0
INSERT
  5
23C
330
17
100
AcDbEntity
  8
CNC
370
-3
100
AcDbBlockReference
  2
ovan8.5x20
 10
3217.4360287895543
 20
834.8476896476859
 30
0.0
 41
-1.0
  0
INSERT
  5
23E
330
17
100
AcDbEntity
  8
CNC
370
-3
100
AcDbBlockReference
  2
ovan8.5x20
 10
3217.4360287895543
 20
809.847689647685
 30
0.0
 41
-1.0
  0
INSERT
  5
240
330
17
100
AcDbEntity
  8
CNC
370
-3
100
AcDbBlockReference
  2
ovan8.5x20
 10
3217.4360287895543
 20
526.8472569180667
 30
0.0
 50
180.0
  0
INSERT
  5
242
330
17
100
AcDbEntity
  8
CNC
370
-3
100
AcDbBlockReference
  2
ovan8.5x20
 10
3217.4360287895543
 20
551.8472569180658
 30
0.0
 50
180.0
  0
INSERT
  5
244
330
17
100
AcDbEntity
  8
0
370
-3
100
AcDbBlockReference
  2
f3daunguoc
 10
3212.4360287895543
 20
847.3476896476859
 30
0.0
  0
INSERT
  5
246
330
17
100
AcDbEntity
  8
0
370
-3
100
AcDbBlockReference
  2
f3daunguoc
 10
3262.4360287895543
 20
847.3476896476859
 30
0.0
  0
INSERT
  5
248
330
17
100
AcDbEntity
  8
0
370
-3
100
AcDbBlockReference
  2
f3daunguoc
 10
3212.4360287895543
 20
797.3476896476859
 30
0.0
  0
INSERT
  5
24A
330
17
100
AcDbEntity
  8
0
370
-3
100
AcDbBlockReference
  2
f3daunguoc
 10
3262.4360287895543
 20
797.3476896476859
 30
0.0
  0
INSERT
  5
24C
330
17
100
AcDbEntity
  8
0
370
-3
100
AcDbBlockReference
  2
f3daunguoc
 10
3212.4360287895543
 20
564.3472569180658
 30
0.0
  0
INSERT
  5
24E
330
17
100
AcDbEntity
  8
0
370
-3
100
AcDbBlockReference
  2
f3daunguoc
 10
3262.4360287895543
 20
564.3472569180658
 30
0.0
  0
INSERT
  5
250
330
17
100
AcDbEntity
  8
0
370
-3
100
AcDbBlockReference
  2
f3daunguoc
 10
3212.4360287895543
 20
514.3472569180658
 30
0.0
  0
INSERT
  5
252
330
17
100
AcDbEntity
  8
0
370
-3
100
AcDbBlockReference
  2
f3daunguoc
 10
3262.4360287895543
 20
514.3472569180658
 30
0.0
  0
INSERT
  5
254
330
17
100
AcDbEntity
  8
0
370
-3
100
AcDbBlockReference
  2
f3daunguoc
 10
3197.4360287895397
 20
782.3476896476859
 30
0.0
 41
-1.0
 50
90.0
  0
INSERT
  5
256
330
17
100
AcDbEntity
  8
0
370
-3
100
AcDbBlockReference
  2
f3daunguoc
 10
3197.4360287895397
 20
732.3476896476868
 30
0.0
 41
-1.0
 50
90.0
  0
INSERT
  5
258
330
17
100
AcDbEntity
  8
0
370
-3
100
AcDbBlockReference
  2
f3daunguoc
 10
3197.4360287895397
 20
579.3472569180667
 30
0.0
 50
90.0
  0
INSERT
  5
25A
330
17
100
AcDbEntity
  8
0
370
-3
100
AcDbBlockReference
  2
f3daunguoc
 10
3197.4360287895397
 20
629.3472569180667
 30
0.0
 50
90.0
  0
INSERT
  5
25C
330
17
100
AcDbEntity
  8
CNC
370
-3
100
AcDbBlockReference
  2
ovan8.5x20
 10
4154.936028789554
 20
584.3472569180594
 30
0.0
 50
270.0
  0
INSERT
  5
25E
330
17
100
AcDbEntity
  8
CNC
370
-3
100
AcDbBlockReference
  2
ovan8.5x20
 10
4129.936028789554
 20
584.3472569180594
 30
0.0
 50
270.0
  0
INSERT
  5
260
330
17
100
AcDbEntity
  8
CNC
370
-3
100
AcDbBlockReference
  2
ovan8.5x20
 10
4154.936028789554
 20
777.3476896476941
 30
0.0
 41
-1.0
 50
270.0
  0
INSERT
  5
262
330
17
100
AcDbEntity
  8
CNC
370
-3
100
AcDbBlockReference
  2
ovan8.5x20
 10
4129.936028789554
 20
777.3476896476941
 30
0.0
 41
-1.0
 50
270.0
  0
INSERT
  5
264
330
17
100
AcDbEntity
  8
CNC
370
-3
100
AcDbBlockReference
  2
ovan8.5x20
 10
4097.436028789554
 20
834.8476896476859
 30
0.0
  0
INSERT
  5
266
330
17
100
AcDbEntity
  8
CNC
370
-3
100
AcDbBlockReference
  2
ovan8.5x20
 10
4097.436028789554
 20
809.847689647685
 30
0.0
  0
INSERT
  5
268
330
17
100
AcDbEntity
  8
CNC
370
-3
100
AcDbBlockReference
  2
ovan8.5x20
 10
4097.436028789554
 20
526.8472569180667
 30
0.0
 41
-1.0
 50
180.0
  0
INSERT
  5
26A
330
17
100
AcDbEntity
  8
CNC
370
-3
100
AcDbBlockReference
  2
ovan8.5x20
 10
4097.436028789554
 20
551.8472569180658
 30
0.0
 41
-1.0
 50
180.0
  0
INSERT
  5
26C
330
17
100
AcDbEntity
  8
0
370
-3
100
AcDbBlockReference
  2
f3daunguoc
 10
4102.436028789554
 20
847.3476896476859
 30
0.0
 41
-1.0
  0
INSERT
  5
26E
330
17
100
AcDbEntity
  8
0
370
-3
100
AcDbBlockReference
  2
f3daunguoc
 10
4052.4360287895543
 20
847.3476896476859
 30
0.0
 41
-1.0
  0
INSERT
  5
270
330
17
100
AcDbEntity
  8
0
370
-3
100
AcDbBlockReference
  2
f3daunguoc
 10
4102.436028789554
 20
797.3476896476859
 30
0.0
 41
-1.0
  0
INSERT
  5
272
330
17
100
AcDbEntity
  8
0
370
-3
100
AcDbBlockReference
  2
f3daunguoc
 10
4052.4360287895543
 20
797.3476896476859
 30
0.0
 41
-1.0
  0
INSERT
  5
274
330
17
100
AcDbEntity
  8
0
370
-3
100
AcDbBlockReference
  2
f3daunguoc
 10
4102.436028789554
 20
564.3472569180658
 30
0.0
 41
-1.0
  0
INSERT
  5
276
330
17
100
AcDbEntity
  8
0
370
-3
100
AcDbBlockReference
  2
f3daunguoc
 10
4052.4360287895543
 20
564.3472569180658
 30
0.0
 41
-1.0
  0
INSERT
  5
278
330
17
100
AcDbEntity
  8
0
370
-3
100
AcDbBlockReference
  2
f3daunguoc
 10
4102.436028789554
 20
514.3472569180658
 30
0.0
 41
-1.0
  0
INSERT
  5
27A
330
17
100
AcDbEntity
  8
0
370
-3
100
AcDbBlockReference
  2
f3daunguoc
 10
4052.4360287895543
 20
514.3472569180658
 30
0.0
 41
-1.0
  0
INSERT
  5
27C
330
17
100
AcDbEntity
  8
0
370
-3
100
AcDbBlockReference
  2
f3daunguoc
 10
4117.436028789554
 20
782.3476896476859
 30
0.0
 50
270.0
  0
INSERT
  5
27E
330
17
100
AcDbEntity
  8
0
370
-3
100
AcDbBlockReference
  2
f3daunguoc
 10
4117.436028789554
 20
732.3476896476868
 30
0.0
 50
270.0
  0
INSERT
  5
280
330
17
100
AcDbEntity
  8
0
370
-3
100
AcDbBlockReference
  2
f3daunguoc
 10
4117.436028789554
 20
579.3472569180667
 30
0.0
 41
-1.0
 50
270.0
  0
INSERT
  5
282
330
17
100
AcDbEntity
  8
0
370
-3
100
AcDbBlockReference
  2
f3daunguoc
 10
4117.436028789554
 20
629.3472569180667
 30
0.0
 41
-1.0
 50
270.0
  0
MTEXT
  5
284
330
17
100
AcDbEntity
  8
0
 62
2
100
AcDbMText
 10
3656.676133552166
 20
443.75102864838846
 30
0.0
 40
36.0
 41
775.0000000000146
 46
100.0000000000031
 71
5
 72
5
  1
Đố ats : 2 tấm
  0
ENDSEC
  0
SECTION
  2
OBJECTS
  0
DICTIONARY
  5
A
330
0
100
AcDbDictionary
281
1
  3
ACAD_COLOR
350
B
  3
ACAD_GROUP
350
C
  3
ACAD_LAYOUT
350
D
  3
ACAD_MATERIAL
350
E
  3
ACAD_MLEADERSTYLE
350
F
  3
ACAD_MLINESTYLE
350
10
  3
ACAD_PLOTSETTINGS
350
11
  3
ACAD_PLOTSTYLENAME
350
12
  3
ACAD_SCALELIST
350
14
  3
ACAD_TABLESTYLE
350
15
  3
ACAD_VISUALSTYLE
350
16
  3
EZDXF_META
350
2D
  0
DICTIONARY
  5
B
330
A
100
AcDbDictionary
281
1
  0
DICTIONARY
  5
C
330
A
100
AcDbDictionary
281
1
  0
DICTIONARY
  5
D
330
A
100
AcDbDictionary
281
1
  3
Model
350
1A
  3
Layout1
350
1E
  0
DICTIONARY
  5
E
330
A
100
AcDbDictionary
281
1
  3
ByBlock
350
1F
  3
ByLayer
350
20
  3
Global
350
21
  0
DICTIONARY
  5
F
330
A
100
AcDbDictionary
281
1
  3
Standard
350
2C
  0
DICTIONARY
  5
10
330
A
100
AcDbDictionary
281
1
  3
Standard
350
22
  0
DICTIONARY
  5
11
330
A
100
AcDbDictionary
281
1
  0
ACDBDICTIONARYWDFLT
  5
12
330
A
100
AcDbDictionary
281
1
  3
Normal
350
13
100
AcDbDictionaryWithDefault
340
13
  0
ACDBPLACEHOLDER
  5
13
330
12
  0
DICTIONARY
  5
14
330
A
100
AcDbDictionary
281
1
  0
DICTIONARY
  5
15
330
A
100
AcDbDictionary
281
1
  0
DICTIONARY
  5
16
330
A
100
AcDbDictionary
281
1
  0
LAYOUT
  5
1A
330
D
100
AcDbPlotSettings
  1

  4
A3
  6

 40
7.5
 41
20.0
 42
7.5
 43
20.0
 44
420.0
 45
297.0
 46
0.0
 47
0.0
 48
0.0
 49
0.0
140
0.0
141
0.0
142
1.0
143
1.0
 70
1024
 72
1
 73
0
 74
5
  7

 75
16
 76
0
 77
2
 78
300
147
1.0
148
0.0
149
0.0
100
AcDbLayout
  1
Model
 70
1
 71
0
 10
0.0
 20
0.0
 11
420.0
 21
297.0
 12
0.0
 22
0.0
 32
0.0
 14
1e+20
 24
1e+20
 34
1e+20
 15
-1e+20
 25
-1e+20
 35
-1e+20
146
0.0
 13
0.0
 23
0.0
 33
0.0
 16
1.0
 26
0.0
 36
0.0
 17
0.0
 27
1.0
 37
0.0
 76
1
330
17
  0
LAYOUT
  5
1E
330
D
100
AcDbPlotSettings
  1

  4
A3
  6

 40
7.5
 41
20.0
 42
7.5
 43
20.0
 44
420.0
 45
297.0
 46
0.0
 47
0.0
 48
0.0
 49
0.0
140
0.0
141
0.0
142
1.0
143
1.0
 70
0
 72
1
 73
0
 74
5
  7

 75
16
 76
0
 77
2
 78
300
147
1.0
148
0.0
149
0.0
100
AcDbLayout
  1
Layout1
 70
1
 71
1
 10
0.0
 20
0.0
 11
420.0
 21
297.0
 12
0.0
 22
0.0
 32
0.0
 14
1e+20
 24
1e+20
 34
1e+20
 15
-1e+20
 25
-1e+20
 35
-1e+20
146
0.0
 13
0.0
 23
0.0
 33
0.0
 16
1.0
 26
0.0
 36
0.0
 17
0.0
 27
1.0
 37
0.0
 76
1
330
1B
  0
MATERIAL
  5
1F
102
{ACAD_REACTORS
330
E
102
}
330
E
100
AcDbMaterial
  1
ByBlock
  2

 70
0
 40
1.0
 71
1
 41
1.0
 91
-1023410177
 42
1.0
 72
1
  3

 73
1
 74
1
 75
1
 44
0.5
 73
0
 45
1.0
 46
1.0
 77
1
  4

 78
1
 79
1
170
1
 48
1.0
171
1
  6

172
1
173
1
174
1
140
1.0
141
1.0
175
1
  7

176
1
177
1
178
1
143
1.0
179
1
  8

270
1
271
1
272
1
145
1.0
146
1.0
273
1
  9

274
1
275
1
276
1
 42
1.0
 72
1
  3

 73
1
 74
1
 75
1
 94
63
  0
MATERIAL
  5
20
102
{ACAD_REACTORS
330
E
102
}
330
E
100
AcDbMaterial
  1
ByLayer
  2

 70
0
 40
1.0
 71
1
 41
1.0
 91
-1023410177
 42
1.0
 72
1
  3

 73
1
 74
1
 75
1
 44
0.5
 73
0
 45
1.0
 46
1.0
 77
1
  4

 78
1
 79
1
170
1
 48
1.0
171
1
  6

172
1
173
1
174
1
140
1.0
141
1.0
175
1
  7

176
1
177
1
178
1
143
1.0
179
1
  8

270
1
271
1
272
1
145
1.0
146
1.0
273
1
  9

274
1
275
1
276
1
 42
1.0
 72
1
  3

 73
1
 74
1
 75
1
 94
63
  0
MATERIAL
  5
21
102
{ACAD_REACTORS
330
E
102
}
330
E
100
AcDbMaterial
  1
Global
  2

 70
0
 40
1.0
 71
1
 41
1.0
 91
-1023410177
 42
1.0
 72
1
  3

 73
1
 74
1
 75
1
 44
0.5
 73
0
 45
1.0
 46
1.0
 77
1
  4

 78
1
 79
1
170
1
 48
1.0
171
1
  6

172
1
173
1
174
1
140
1.0
141
1.0
175
1
  7

176
1
177
1
178
1
143
1.0
179
1
  8

270
1
271
1
272
1
145
1.0
146
1.0
273
1
  9

274
1
275
1
276
1
 42
1.0
 72
1
  3

 73
1
 74
1
 75
1
 94
63
  0
MLINESTYLE
  5
22
102
{ACAD_REACTORS
330
10
102
}
330
10
100
AcDbMlineStyle
  2
Standard
 70
0
  3

 62
256
 51
90.0
 52
90.0
 71
2
 49
0.5
 62
256
  6
BYLAYER
 49
-0.5
 62
256
  6
BYLAYER
  0
MLEADERSTYLE
  5
2C
102
{ACAD_REACTORS
330
F
102
}
330
F
100
AcDbMLeaderStyle
179
2
170
2
171
1
172
0
 90
2
 40
0.0
 41
0.0
173
1
 91
-1056964608
 92
-2
290
1
 42
2.0
291
1
 43
8.0
  3
Standard
 44
4.0
300

342
29
174
1
175
1
176
0
178
1
 93
-1056964608
 45
4.0
292
0
297
0
 46
4.0
 94
-1056964608
 47
1.0
 49
1.0
140
1.0
294
1
141
0.0
177
0
142
1.0
295
0
296
0
143
3.75
271
0
272
9
273
9
  0
DICTIONARY
  5
2D
330
A
100
AcDbDictionary
280
1
281
1
  3
CREATED_BY_EZDXF
350
2E
  3
WRITTEN_BY_EZDXF
350
2BE
  0
DICTIONARYVAR
  5
2E
330
2D
100
DictionaryVariables
280
0
  1
1.4.4 @ 2026-09-24T06:31:55.649950+00:00
  0
DICTIONARYVAR
  5
2BE
330
2D
100
DictionaryVariables
280
0
  1
1.4.4 @ 2026-09-24T06:37:04.210080+00:00
  0
ENDSEC
  0
EOF
