  0
SECTION
  2
HEADER
  9
$ACADVER
  1
AC1032
  9
$ACADMAINTVER
 90
4
  9
$DWGCODEPAGE
  3
ANSI_1252
  9
$LASTSAVEDBY
  1
ezdxf
  9
$REQUIREDVERSIONS
160
0
  9
$INSBASE
 10
0.0
 20
0.0
 30
0.0
  9
$EXTMIN
 10
1e+20
 20
1e+20
 30
1e+20
  9
$EXTMAX
 10
-1e+20
 20
-1e+20
 30
-1e+20
  9
$LIMMIN
 10
0.0
 20
0.0
  9
$LIMMAX
 10
420.0
 20
297.0
  9
$ORTHOMODE
 70
0
  9
$REGENMODE
 70
1
  9
$FILLMODE
 70
1
  9
$QTEXTMODE
 70
0
  9
$MIRRTEXT
 70
1
  9
$LTSCALE
 40
1.0
  9
$ATTMODE
 70
1
  9
$TEXTSIZE
 40
2.5
  9
$TRACEWID
 40
1.0
  9
$TEXTSTYLE
  7
Standard
  9
$CLAYER
  8
0
  9
$CELTYPE
  6
ByLayer
  9
$CECOLOR
 62
256
  9
$CELTSCALE
 40
1.0
  9
$DISPSILH
 70
0
  9
$DIMSCALE
 40
1.0
  9
$DIMASZ
 40
2.5
  9
$DIMEXO
 40
0.625
  9
$DIMDLI
 40
3.75
  9
$DIMRND
 40
0.0
  9
$DIMDLE
 40
0.0
  9
$DIMEXE
 40
1.25
  9
$DIMTP
 40
0.0
  9
$DIMTM
 40
0.0
  9
$DIMTXT
 40
2.5
  9
$DIMCEN
 40
2.5
  9
$DIMTSZ
 40
0.0
  9
$DIMTOL
 70
0
  9
$DIMLIM
 70
0
  9
$DIMTIH
 70
0
  9
$DIMTOH
 70
0
  9
$DIMSE1
 70
0
  9
$DIMSE2
 70
0
  9
$DIMTAD
 70
1
  9
$DIMZIN
 70
8
  9
$DIMBLK
  1

  9
$DIMASO
 70
1
  9
$DIMSHO
 70
1
  9
$DIMPOST
  1

  9
$DIMAPOST
  1

  9
$DIMALT
 70
0
  9
$DIMALTD
 70
3
  9
$DIMALTF
 40
0.03937007874
  9
$DIMLFAC
 40
1.0
  9
$DIMTOFL
 70
1
  9
$DIMTVP
 40
0.0
  9
$DIMTIX
 70
0
  9
$DIMSOXD
 70
0
  9
$DIMSAH
 70
0
  9
$DIMBLK1
  1

  9
$DIMBLK2
  1

  9
$DIMSTYLE
  2
ISO-25
  9
$DIMCLRD
 70
0
  9
$DIMCLRE
 70
0
  9
$DIMCLRT
 70
0
  9
$DIMTFAC
 40
1.0
  9
$DIMGAP
 40
0.625
  9
$DIMJUST
 70
0
  9
$DIMSD1
 70
0
  9
$DIMSD2
 70
0
  9
$DIMTOLJ
 70
0
  9
$DIMTZIN
 70
8
  9
$DIMALTZ
 70
0
  9
$DIMALTTZ
 70
0
  9
$DIMUPT
 70
0
  9
$DIMDEC
 70
2
  9
$DIMTDEC
 70
2
  9
$DIMALTU
 70
2
  9
$DIMALTTD
 70
3
  9
$DIMTXSTY
  7
Standard
  9
$DIMAUNIT
 70
0
  9
$DIMADEC
 70
0
  9
$DIMALTRND
 40
0.0
  9
$DIMAZIN
 70
0
  9
$DIMDSEP
 70
44
  9
$DIMATFIT
 70
3
  9
$DIMFRAC
 70
0
  9
$DIMLDRBLK
  1

  9
$DIMLUNIT
 70
2
  9
$DIMLWD
 70
-2
  9
$DIMLWE
 70
-2
  9
$DIMTMOVE
 70
0
  9
$DIMFXL
 40
1.0
  9
$DIMFXLON
 70
0
  9
$DIMJOGANG
 40
0.785398163397
  9
$DIMTFILL
 70
0
  9
$DIMTFILLCLR
 70
0
  9
$DIMARCSYM
 70
0
  9
$DIMLTYPE
  6

  9
$DIMLTEX1
  6

  9
$DIMLTEX2
  6

  9
$DIMTXTDIRECTION
 70
0
  9
$LUNITS
 70
2
  9
$LUPREC
 70
4
  9
$SKETCHINC
 40
1.0
  9
$FILLETRAD
 40
10.0
  9
$AUNITS
 70
0
  9
$AUPREC
 70
2
  9
$MENU
  1
.
  9
$ELEVATION
 40
0.0
  9
$PELEVATION
 40
0.0
  9
$THICKNESS
 40
0.0
  9
$LIMCHECK
 70
0
  9
$CHAMFERA
 40
0.0
  9
$CHAMFERB
 40
0.0
  9
$CHAMFERC
 40
0.0
  9
$CHAMFERD
 40
0.0
  9
$SKPOLY
 70
0
  9
$TDCREATE
 40
2461307.8289467595
  9
$TDUCREATE
 40
2458532.153996898
  9
$TDUPDATE
 40
2461307.8289467595
  9
$TDUUPDATE
 40
2458532.1544311
  9
$TDINDWG
 40
0.0
  9
$TDUSRTIMER
 40
0.0
  9
$USRTIMER
 70
1
  9
$ANGBASE
 50
0.0
  9
$ANGDIR
 70
0
  9
$PDMODE
 70
0
  9
$PDSIZE
 40
0.0
  9
$PLINEWID
 40
0.0
  9
$SPLFRAME
 70
0
  9
$SPLINETYPE
 70
6
  9
$SPLINESEGS
 70
8
  9
$HANDSEED
  5
DE
  9
$SURFTAB1
 70
6
  9
$SURFTAB2
 70
6
  9
$SURFTYPE
 70
6
  9
$SURFU
 70
6
  9
$SURFV
 70
6
  9
$UCSBASE
  2

  9
$UCSNAME
  2

  9
$UCSORG
 10
0.0
 20
0.0
 30
0.0
  9
$UCSXDIR
 10
1.0
 20
0.0
 30
0.0
  9
$UCSYDIR
 10
0.0
 20
1.0
 30
0.0
  9
$UCSORTHOREF
  2

  9
$UCSORTHOVIEW
 70
0
  9
$UCSORGTOP
 10
0.0
 20
0.0
 30
0.0
  9
$UCSORGBOTTOM
 10
0.0
 20
0.0
 30
0.0
  9
$UCSORGLEFT
 10
0.0
 20
0.0
 30
0.0
  9
$UCSORGRIGHT
 10
0.0
 20
0.0
 30
0.0
  9
$UCSORGFRONT
 10
0.0
 20
0.0
 30
0.0
  9
$UCSORGBACK
 10
0.0
 20
0.0
 30
0.0
  9
$PUCSBASE
  2

  9
$PUCSNAME
  2

  9
$PUCSORG
 10
0.0
 20
0.0
 30
0.0
  9
$PUCSXDIR
 10
1.0
 20
0.0
 30
0.0
  9
$PUCSYDIR
 10
0.0
 20
1.0
 30
0.0
  9
$PUCSORTHOREF
  2

  9
$PUCSORTHOVIEW
 70
0
  9
$PUCSORGTOP
 10
0.0
 20
0.0
 30
0.0
  9
$PUCSORGBOTTOM
 10
0.0
 20
0.0
 30
0.0
  9
$PUCSORGLEFT
 10
0.0
 20
0.0
 30
0.0
  9
$PUCSORGRIGHT
 10
0.0
 20
0.0
 30
0.0
  9
$PUCSORGFRONT
 10
0.0
 20
0.0
 30
0.0
  9
$PUCSORGBACK
 10
0.0
 20
0.0
 30
0.0
  9
$USERI1
 70
0
  9
$USERI2
 70
0
  9
$USERI3
 70
0
  9
$USERI4
 70
0
  9
$USERI5
 70
0
  9
$USERR1
 40
0.0
  9
$USERR2
 40
0.0
  9
$USERR3
 40
0.0
  9
$USERR4
 40
0.0
  9
$USERR5
 40
0.0
  9
$WORLDVIEW
 70
1
  9
$SHADEDGE
 70
3
  9
$SHADEDIF
 70
70
  9
$TILEMODE
 70
1
  9
$MAXACTVP
 70
64
  9
$PINSBASE
 10
0.0
 20
0.0
 30
0.0
  9
$PLIMCHECK
 70
0
  9
$PEXTMIN
 10
1e+20
 20
1e+20
 30
1e+20
  9
$PEXTMAX
 10
-1e+20
 20
-1e+20
 30
-1e+20
  9
$PLIMMIN
 10
0.0
 20
0.0
  9
$PLIMMAX
 10
420.0
 20
297.0
  9
$UNITMODE
 70
0
  9
$VISRETAIN
 70
1
  9
$PLINEGEN
 70
0
  9
$PSLTSCALE
 70
1
  9
$TREEDEPTH
 70
3020
  9
$CMLSTYLE
  2
Standard
  9
$CMLJUST
 70
0
  9
$CMLSCALE
 40
20.0
  9
$PROXYGRAPHICS
 70
1
  9
$MEASUREMENT
 70
1
  9
$CELWEIGHT
370
-1
  9
$ENDCAPS
280
0
  9
$JOINSTYLE
280
0
  9
$LWDISPLAY
290
0
  9
$INSUNITS
 70
4
  9
$HYPERLINKBASE
  1

  9
$STYLESHEET
  1

  9
$XEDIT
290
1
  9
$CEPSNTYPE
380
0
  9
$PSTYLEMODE
290
1
  9
$FINGERPRINTGUID
  2
{CD21789F-33D9-4B83-854D-C51F67D966C5}
  9
$VERSIONGUID
  2
{43545538-79D7-4981-953A-27DF4E19C76E}
  9
$EXTNAMES
290
1
  9
$PSVPSCALE
 40
0.0
  9
$OLESTARTUP
290
0
  9
$SORTENTS
280
127
  9
$INDEXCTL
280
0
  9
$HIDETEXT
280
1
  9
$XCLIPFRAME
280
1
  9
$HALOGAP
280
0
  9
$OBSCOLOR
 70
257
  9
$OBSLTYPE
280
0
  9
$INTERSECTIONDISPLAY
280
0
  9
$INTERSECTIONCOLOR
 70
257
  9
$DIMASSOC
280
2
  9
$PROJECTNAME
  1

  9
$CAMERADISPLAY
290
0
  9
$LENSLENGTH
 40
50.0
  9
$CAMERAHEIGHT
 40
0.0
  9
$STEPSPERSEC
 40
24.0
  9
$STEPSIZE
 40
100.0
  9
$3DDWFPREC
 40
2.0
  9
$PSOLWIDTH
 40
0.005
  9
$PSOLHEIGHT
 40
0.08
  9
$LOFTANG1
 40
1.570796326795
  9
$LOFTANG2
 40
1.570796326795
  9
$LOFTMAG1
 40
0.0
  9
$LOFTMAG2
 40
0.0
  9
$LOFTPARAM
 70
7
  9
$LOFTNORMALS
280
1
  9
$LATITUDE
 40
37.795
  9
$LONGITUDE
 40
-122.394
  9
$NORTHDIRECTION
 40
0.0
  9
$TIMEZONE
 70
-8000
  9
$LIGHTGLYPHDISPLAY
280
1
  9
$TILEMODELIGHTSYNCH
280
1
  9
$CMATERIAL
347
20
  9
$SOLIDHIST
280
0
  9
$SHOWHIST
280
1
  9
$DWFFRAME
280
2
  9
$DGNFRAME
280
2
  9
$REALWORLDSCALE
290
1
  9
$INTERFERECOLOR
 62
256
  9
$CSHADOW
280
0
  9
$SHADOWPLANELOCATION
 40
0.0
  0
ENDSEC
  0
SECTION
  2
CLASSES
  0
CLASS
  1
ACDBDICTIONARYWDFLT
  2
AcDbDictionaryWithDefault
  3
ObjectDBX Classes
 90
0
 91
0
280
0
281
0
  0
CLASS
  1
SUN
  2
AcDbSun
  3
SCENEOE
 90
1153
 91
0
280
0
281
0
  0
CLASS
  1
VISUALSTYLE
  2
AcDbVisualStyle
  3
ObjectDBX Classes
 90
4095
 91
0
280
0
281
0
  0
CLASS
  1
MATERIAL
  2
AcDbMaterial
  3
ObjectDBX Classes
 90
1153
 91
0
280
0
281
0
  0
CLASS
  1
SCALE
  2
AcDbScale
  3
ObjectDBX Classes
 90
1153
 91
0
280
0
281
0
  0
CLASS
  1
TABLESTYLE
  2
AcDbTableStyle
  3
ObjectDBX Classes
 90
4095
 91
0
280
0
281
0
  0
CLASS
  1
MLEADERSTYLE
  2
AcDbMLeaderStyle
  3
ACDB_MLEADERSTYLE_CLASS
 90
4095
 91
0
280
0
281
0
  0
CLASS
  1
DICTIONARYVAR
  2
AcDbDictionaryVar
  3
ObjectDBX Classes
 90
0
 91
0
280
0
281
0
  0
CLASS
  1
CELLSTYLEMAP
  2
AcDbCellStyleMap
  3
ObjectDBX Classes
 90
1152
 91
0
280
0
281
0
  0
CLASS
  1
MENTALRAYRENDERSETTINGS
  2
AcDbMentalRayRenderSettings
  3
SCENEOE
 90
1024
 91
0
280
0
281
0
  0
CLASS
  1
ACDBDETAILVIEWSTYLE
  2
AcDbDetailViewStyle
  3
ObjectDBX Classes
 90
1025
 91
0
280
0
281
0
  0
CLASS
  1
ACDBSECTIONVIEWSTYLE
  2
AcDbSectionViewStyle
  3
ObjectDBX Classes
 90
1025
 91
0
280
0
281
0
  0
CLASS
  1
RASTERVARIABLES
  2
AcDbRasterVariables
  3
ISM
 90
0
 91
0
280
0
281
0
  0
CLASS
  1
ACDBPLACEHOLDER
  2
AcDbPlaceHolder
  3
ObjectDBX Classes
 90
0
 91
0
280
0
281
0
  0
CLASS
  1
LAYOUT
  2
AcDbLayout
  3
ObjectDBX Classes
 90
0
 91
0
280
0
281
0
  0
ENDSEC
  0
SECTION
  2
TABLES
  0
TABLE
  2
VPORT
  5
8
330
0
100
AcDbSymbolTable
 70
1
  0
VPORT
  5
23
330
8
100
AcDbSymbolTableRecord
100
AcDbViewportTableRecord
  2
*Active
 70
0
 10
0.0
 20
0.0
 11
1.0
 21
1.0
 12
0.0
 22
0.0
 13
0.0
 23
0.0
 14
0.5
 24
0.5
 15
0.5
 25
0.5
 16
0.0
 26
0.0
 36
1.0
 17
0.0
 27
0.0
 37
0.0
 40
1000.0
 41
1.34
 42
50.0
 43
0.0
 44
0.0
 50
0.0
 51
0.0
 71
0
 72
1000
 73
1
 74
3
 75
0
 76
0
 77
0
 78
0
281
0
 65
0
146
0.0
  0
ENDTAB
  0
TABLE
  2
LTYPE
  5
2
330
0
100
AcDbSymbolTable
 70
3
  0
LTYPE
  5
24
330
2
100
AcDbSymbolTableRecord
100
AcDbLinetypeTableRecord
  2
ByBlock
 70
0
  3

 72
65
 73
0
 40
0.0
  0
LTYPE
  5
25
330
2
100
AcDbSymbolTableRecord
100
AcDbLinetypeTableRecord
  2
ByLayer
 70
0
  3

 72
65
 73
0
 40
0.0
  0
LTYPE
  5
26
330
2
100
AcDbSymbolTableRecord
100
AcDbLinetypeTableRecord
  2
Continuous
 70
0
  3

 72
65
 73
0
 40
0.0
  0
ENDTAB
  0
TABLE
  2
LAYER
  5
1
330
0
100
AcDbSymbolTable
 70
5
  0
LAYER
  5
27
330
1
100
AcDbSymbolTableRecord
100
AcDbLayerTableRecord
  2
0
 70
0
 62
7
  6
Continuous
370
-3
390
13
347
21
  0
LAYER
  5
28
330
1
100
AcDbSymbolTableRecord
100
AcDbLayerTableRecord
  2
Defpoints
 70
0
 62
7
  6
Continuous
290
0
370
-3
390
13
347
21
  0
LAYER
  5
D6
330
1
100
AcDbSymbolTableRecord
100
AcDbLayerTableRecord
  2
1
 70
0
 62
3
  6
Continuous
370
-3
390
13
347
21
  0
LAYER
  5
D7
330
1
100
AcDbSymbolTableRecord
100
AcDbLayerTableRecord
  2
CONDUCTOR
 70
0
 62
7
  6
Continuous
370
-3
390
13
347
21
  0
LAYER
  5
D8
330
1
100
AcDbSymbolTableRecord
100
AcDbLayerTableRecord
  2
7
 70
0
 62
7
  6
Continuous
370
-3
390
13
347
21
  0
ENDTAB
  0
TABLE
  2
STYLE
  5
5
330
0
100
AcDbSymbolTable
 70
1
  0
STYLE
  5
29
330
5
100
AcDbSymbolTableRecord
100
AcDbTextStyleTableRecord
  2
Standard
 70
0
 40
0.0
 41
1.0
 50
0.0
 71
0
 42
2.5
  3
txt
  4

  0
ENDTAB
  0
TABLE
  2
VIEW
  5
7
330
0
100
AcDbSymbolTable
 70
0
  0
ENDTAB
  0
TABLE
  2
UCS
  5
6
330
0
100
AcDbSymbolTable
 70
0
  0
ENDTAB
  0
TABLE
  2
APPID
  5
3
330
0
100
AcDbSymbolTable
 70
3
  0
APPID
  5
2A
330
3
100
AcDbSymbolTableRecord
100
AcDbRegAppTableRecord
  2
ACAD
 70
0
  0
APPID
  5
DB
330
3
100
AcDbSymbolTableRecord
100
AcDbRegAppTableRecord
  2
HATCHBACKGROUNDCOLOR
 70
0
  0
APPID
  5
DC
330
3
100
AcDbSymbolTableRecord
100
AcDbRegAppTableRecord
  2
EZDXF
 70
0
  0
ENDTAB
  0
TABLE
  2
DIMSTYLE
  5
4
330
0
100
AcDbSymbolTable
 70
1
100
AcDbDimStyleTable
  0
DIMSTYLE
105
2B
330
4
100
AcDbSymbolTableRecord
100
AcDbDimStyleTableRecord
  2
Standard
 70
0
 40
1.0
 41
2.5
 42
0.625
 43
3.75
 44
1.25
 45
0.0
 46
0.0
 47
0.0
 48
0.0
 49
2.5
140
2.5
141
2.5
142
0.0
143
0.03937007874
144
1.0
145
0.0
146
1.0
147
0.625
148
0.0
 69
0
 70
0
 71
0
 72
0
 73
0
 74
0
 75
0
 76
0
 77
1
 78
8
 79
3
170
0
171
3
172
1
173
0
174
0
175
0
176
0
177
0
178
0
179
2
271
2
272
2
273
2
274
3
275
0
276
0
277
2
278
44
279
0
280
0
281
0
282
0
283
0
284
8
285
0
286
0
288
0
289
3
290
0
371
-2
372
-2
  0
ENDTAB
  0
TABLE
  2
BLOCK_RECORD
  5
9
330
0
100
AcDbSymbolTable
 70
3
  0
BLOCK_RECORD
  5
17
330
9
100
AcDbSymbolTableRecord
100
AcDbBlockTableRecord
  2
*Model_Space
340
1A
 70
0
280
1
281
0
  0
BLOCK_RECORD
  5
1B
330
9
100
AcDbSymbolTableRecord
100
AcDbBlockTableRecord
  2
*Paper_Space
340
1E
 70
0
280
1
281
0
  0
BLOCK_RECORD
  5
2F
330
9
100
AcDbSymbolTableRecord
100
AcDbBlockTableRecord
  2
blk
340
0
 70
0
280
1
281
0
  0
ENDTAB
  0
ENDSEC
  0
SECTION
  2
BLOCKS
  0
BLOCK
  5
18
330
17
100
AcDbEntity
  8
0
100
AcDbBlockBegin
  2
*Model_Space
 70
0
 10
0.0
 20
0.0
 30
0.0
  3
*Model_Space
  1

  0
ENDBLK
  5
19
330
17
100
AcDbEntity
  8
0
100
AcDbBlockEnd
  0
BLOCK
  5
1C
330
1B
100
AcDbEntity
  8
0
100
AcDbBlockBegin
  2
*Paper_Space
 70
0
 10
0.0
 20
0.0
 30
0.0
  3
*Paper_Space
  1

  0
ENDBLK
  5
1D
330
1B
100
AcDbEntity
  8
0
100
AcDbBlockEnd
  0
BLOCK
  5
30
330
2F
100
AcDbEntity
  8
0
100
AcDbBlockBegin
  2
blk
 70
0
 10
0.0
 20
0.0
 30
0.0
  3
blk
  1

  0
LWPOLYLINE
  5
32
330
2F
100
AcDbEntity
  8
CONDUCTOR
 62
8
 48
100.0
100
AcDbPolyline
 90
6
 70
1
 10
-5.000000642612575
 20
8.660254721435193
 10
-10.00000064261257
 20
6.835907698e-07
 10
-5.000000642612575
 20
-8.660253354253651
 10
4.999999357387419
 20
-8.660253354253651
 10
9.999999357387424
 20
6.835907698e-07
 10
4.999999357387419
 20
8.660254721435193
  0
ARC
  5
33
330
2F
100
AcDbEntity
  8
1
 62
9
100
AcDbCircle
 10
0.0
 20
0.0
 30
0.0
 40
7.167023999999997
100
AcDbArc
 50
172.3022966826424
 51
187.6977606836501
  0
ARC
  5
34
330
2F
100
AcDbEntity
  8
1
 62
9
100
AcDbCircle
 10
0.0
 20
0.0
 30
0.0
 40
2.747999999999997
100
AcDbArc
 50
359.9999826844032
 51
17.53630168197181
  0
ARC
  5
35
330
2F
100
AcDbEntity
  8
1
 62
9
100
AcDbCircle
 10
0.0
 20
0.0
 30
0.0
 40
2.747999999999997
100
AcDbArc
 50
72.46364568315104
 51
107.536229683599
  0
ARC
  5
36
330
2F
100
AcDbEntity
  8
1
 62
9
100
AcDbCircle
 10
0.0
 20
0.0
 30
0.0
 40
2.747999999999997
100
AcDbArc
 50
162.4637096852923
 51
197.5362936825443
  0
ARC
  5
37
330
2F
100
AcDbEntity
  8
1
 62
9
100
AcDbCircle
 10
0.0
 20
0.0
 30
0.0
 40
2.747999999999997
100
AcDbArc
 50
252.4637456856492
 51
287.5363296839054
  0
ARC
  5
38
330
2F
100
AcDbEntity
  8
1
 62
9
100
AcDbCircle
 10
0.0
 20
0.0
 30
0.0
 40
2.747999999999997
100
AcDbArc
 50
342.4637176845577
 51
359.9999826844032
  0
LINE
  5
39
330
2F
100
AcDbEntity
  8
1
 62
9
100
AcDbLine
 10
0.8280096312992098
 20
-2.620279190107337
 30
0.0
 11
1.272799215163104
 21
-1.27277758482387
 31
0.0
  0
LINE
  5
3A
330
2F
100
AcDbEntity
  8
1
 62
9
100
AcDbLine
 10
1.272799215163104
 20
-1.272767984820347
 30
0.0
 11
2.620317609886114
 21
-0.8279735687187892
 31
0.0
  0
LINE
  5
3B
330
2F
100
AcDbEntity
  8
1
 62
9
100
AcDbLine
 10
1.272808784782682
 20
1.272801615181379
 30
0.0
 11
2.620291190127318
 21
0.8280192313018233
 31
0.0
  0
LINE
  5
3C
330
2F
100
AcDbEntity
  8
1
 62
9
100
AcDbLine
 10
0.82804076874163
 20
2.620320009905749
 30
0.0
 11
1.272827984786998
 21
1.272818415169695
 31
0.0
  0
LINE
  5
3D
330
2F
100
AcDbEntity
  8
1
 62
9
100
AcDbLine
 10
-0.8279952312586829
 20
2.620312790153548
 30
0.0
 11
-1.272784815195334
 21
1.272808784782228
 31
0.0
  0
LINE
  5
3E
330
2F
100
AcDbEntity
  8
1
 62
9
100
AcDbLine
 10
-1.272780015158787
 20
1.272813584818777
 30
0.0
 11
-2.6202624098878
 21
0.8280311687385618
 31
0.0
  0
LINE
  5
3F
330
2F
100
AcDbEntity
  8
1
 62
9
100
AcDbLine
 10
-2.620274390141275
 20
-0.8279880312734347
 30
0.0
 11
-1.272789584847487
 21
-1.272768015204745
 31
0.0
  0
LINE
  5
40
330
2F
100
AcDbEntity
  8
1
 62
9
100
AcDbLine
 10
-1.27275358478073
 20
-1.272763215168196
 30
0.0
 11
-0.8279639687170854
 21
-2.620267209852954
 31
0.0
  0
LINE
  5
41
330
2F
100
AcDbEntity
  8
1
 62
9
100
AcDbLine
 10
1.60896238067653
 20
1.621627219207764
 30
0.0
 11
2.965975186019931
 21
1.173700835416182
 31
0.0
  0
LINE
  5
42
330
2F
100
AcDbEntity
  8
1
 62
9
100
AcDbLine
 10
1.167328764684498
 20
2.959615213936101
 30
0.0
 11
1.608969580662233
 21
1.621639219229106
 31
0.0
  0
LINE
  5
43
330
2F
100
AcDbEntity
  8
1
 62
9
100
AcDbLine
 10
1.170518435352277
 20
-2.962780786002895
 30
0.0
 11
1.615308019285293
 21
-1.615281580737701
 31
0.0
  0
LINE
  5
44
330
2F
100
AcDbEntity
  8
1
 62
9
100
AcDbLine
 10
1.615310419303568
 20
-1.615259980712834
 30
0.0
 11
2.962826413939183
 21
-1.170465564611276
 31
0.0
  0
LINE
  5
45
330
2F
100
AcDbEntity
  8
1
 62
9
100
AcDbLine
 10
-1.615262380732018
 20
-1.615262419287773
 30
0.0
 11
-1.170472764668375
 21
-2.962766413972531
 31
0.0
  0
LINE
  5
46
330
2F
100
AcDbEntity
  8
1
 62
9
100
AcDbLine
 10
-2.962787986059991
 20
-1.170492035359984
 30
0.0
 11
-1.615303180693445
 21
-1.615272019291293
 31
0.0
  0
LINE
  5
47
330
2F
100
AcDbEntity
  8
1
 62
9
100
AcDbLine
 10
-1.615255219305254
 20
1.615317580732607
 30
0.0
 11
-2.962771213940868
 21
1.170525564649324
 31
0.0
  0
LINE
  5
48
330
2F
100
AcDbEntity
  8
1
 62
9
100
AcDbLine
 10
-1.170501635362593
 20
2.962819186016076
 30
0.0
 11
-1.615293619248403
 21
1.615307980729539
 31
0.0
  0
LINE
  5
49
330
2F
100
AcDbEntity
  8
1
 62
9
100
AcDbLine
 10
-5.945251214016025
 20
1.173691129032704
 30
0.0
 11
-2.953178414027206
 21
1.173691164795399
 31
0.0
  0
LINE
  5
4A
330
2F
100
AcDbEntity
  8
1
 62
9
100
AcDbLine
 10
-5.945875186007469
 20
-1.170489670964797
 30
0.0
 11
-2.962792786023783
 21
-1.170489635341708
 31
0.0
  0
LINE
  5
4B
330
2F
100
AcDbEntity
  8
1
 62
9
100
AcDbLine
 10
2.966003986028225
 20
1.173691235413115
 30
0.0
 11
5.945251186003588
 21
1.173691270966169
 31
0.0
  0
LINE
  5
4C
330
2F
100
AcDbEntity
  8
1
 62
9
100
AcDbLine
 10
2.962754413951186
 20
-1.170489564654417
 30
0.0
 11
5.945911213941142
 21
-1.170489529031327
 31
0.0
  0
ARC
  5
4D
330
2F
100
AcDbEntity
  8
1
 62
9
100
AcDbCircle
 10
0.0
 20
0.0
 30
0.0
 40
5.639995199999997
100
AcDbArc
 50
79.97548768388701
 51
100.0243326829604
  0
ARC
  5
4E
330
2F
100
AcDbEntity
  8
1
 62
9
100
AcDbCircle
 10
0.0
 20
0.0
 30
0.0
 40
7.167023999999997
100
AcDbArc
 50
352.3022506848024
 51
7.697714682034147
  0
LINE
  5
4F
330
2F
100
AcDbEntity
  8
1
 62
9
100
AcDbLine
 10
-0.9817344662988035
 20
5.553890388272971
 30
0.0
 11
-0.8279904312912549
 21
2.620291190128681
 31
0.0
  0
LINE
  5
50
330
2F
100
AcDbEntity
  8
1
 62
9
100
AcDbLine
 10
0.9817799337215543
 20
5.553888011723754
 30
0.0
 11
0.8280359687050804
 21
2.620288809877818
 31
0.0
  0
LINE
  5
51
330
2F
100
AcDbEntity
  8
1
 62
9
100
AcDbLine
 10
-1.170472835354303
 20
2.962816786067833
 30
0.0
 11
-0.9563808605089434
 21
5.070578388590543
 31
0.0
  0
LINE
  5
52
330
2F
100
AcDbEntity
  8
1
 62
9
100
AcDbLine
 10
1.167331164702771
 20
2.959603213914758
 30
0.0
 11
0.9564383394790636
 21
5.070602411404252
 31
0.0
  0
ARC
  5
53
330
2F
100
AcDbEntity
  8
1
 62
9
100
AcDbCircle
 10
0.0
 20
0.0
 30
0.0
 40
5.639995199999997
100
AcDbArc
 50
259.9756696845939
 51
280.024515682762
  0
LINE
  5
54
330
2F
100
AcDbEntity
  8
1
 62
9
100
AcDbLine
 10
-0.8279831687214025
 20
-2.620288809877818
 30
0.0
 11
-0.981727133737877
 21
-5.553890411742031
 31
0.0
  0
LINE
  5
55
330
2F
100
AcDbEntity
  8
1
 62
9
100
AcDbLine
 10
0.8280288312344055
 20
-2.620291190128681
 30
0.0
 11
0.9817728662383158
 21
-5.553890388272519
 31
0.0
  0
LINE
  5
56
330
2F
100
AcDbEntity
  8
1
 62
9
100
AcDbLine
 10
-0.9563783395096834
 20
-5.070578411431141
 30
0.0
 11
-1.170467964631825
 21
-2.962816813937477
 31
0.0
  0
LINE
  5
57
330
2F
100
AcDbEntity
  8
1
 62
9
100
AcDbLine
 10
0.9564240604850056
 20
-5.070597588596683
 30
0.0
 11
1.167316835348174
 21
-2.959600786096414
 31
0.0
  0
POINT
  5
58
330
2F
100
AcDbEntity
  8
7
 62
9
100
AcDbPoint
 10
0.0
 20
0.0
 30
0.0
  0
POLYLINE
  5
59
330
2F
100
AcDbEntity
  8
1
 62
9
100
AcDb2dPolyline
 66
1
 10
0.0
 20
0.0
 30
0.0
 70
4
  0
VERTEX
  5
5A
330
59
100
AcDbEntity
  8
1
 62
9
100
AcDbVertex
100
AcDb2dVertex
 10
-5.945875186007469
 20
-1.170489670964797
 30
0.0
 70
18
  0
VERTEX
  5
5B
330
59
100
AcDbEntity
  8
1
 62
9
100
AcDbVertex
100
AcDb2dVertex
 10
-5.945875186007469
 20
-1.170489670964797
 30
0.0
 70
8
  0
VERTEX
  5
5C
330
59
100
AcDbEntity
  8
1
 62
9
100
AcDbVertex
100
AcDb2dVertex
 10
-6.013696786110812
 20
-1.165684871747997
 30
0.0
 70
8
  0
VERTEX
  5
5D
330
59
100
AcDbEntity
  8
1
 62
9
100
AcDbVertex
100
AcDb2dVertex
 10
-6.081256786175799
 20
-1.159804872586389
 30
0.0
 70
8
  0
VERTEX
  5
5E
330
59
100
AcDbEntity
  8
1
 62
9
100
AcDbVertex
100
AcDb2dVertex
 10
-6.148701586273088
 20
-1.153312873374487
 30
0.0
 70
8
  0
VERTEX
  5
5F
330
59
100
AcDbEntity
  8
1
 62
9
100
AcDbVertex
100
AcDb2dVertex
 10
-6.216172786291281
 20
-1.146676874183865
 30
0.0
 70
8
  0
VERTEX
  5
60
330
59
100
AcDbEntity
  8
1
 62
9
100
AcDbVertex
100
AcDb2dVertex
 10
-6.283816786366513
 20
-1.140362474997344
 30
0.0
 70
8
  0
VERTEX
  5
61
330
59
100
AcDbEntity
  8
1
 62
9
100
AcDbVertex
100
AcDb2dVertex
 10
-6.351775186463783
 20
-1.134835275798194
 30
0.0
 70
8
  0
VERTEX
  5
62
330
59
100
AcDbEntity
  8
1
 62
9
100
AcDbVertex
100
AcDb2dVertex
 10
-6.420196786522865
 20
-1.13055847662008
 30
0.0
 70
8
  0
VERTEX
  5
63
330
59
100
AcDbEntity
  8
1
 62
9
100
AcDbVertex
100
AcDb2dVertex
 10
-6.489220786559597
 20
-1.128000077465458
 30
0.0
 70
8
  0
VERTEX
  5
64
330
59
100
AcDbEntity
  8
1
 62
9
100
AcDbVertex
100
AcDb2dVertex
 10
-6.545128786539858
 20
-1.127301678084676
 30
0.0
 70
8
  0
VERTEX
  5
65
330
59
100
AcDbEntity
  8
1
 62
9
100
AcDbVertex
100
AcDb2dVertex
 10
-6.601211986529959
 20
-1.127037678798386
 30
0.0
 70
8
  0
VERTEX
  5
66
330
59
100
AcDbEntity
  8
1
 62
9
100
AcDbVertex
100
AcDb2dVertex
 10
-6.657167986595592
 20
-1.126231279433791
 30
0.0
 70
8
  0
VERTEX
  5
67
330
59
100
AcDbEntity
  8
1
 62
9
100
AcDbVertex
100
AcDb2dVertex
 10
-6.712687186616672
 20
-1.12391288008075
 30
0.0
 70
8
  0
VERTEX
  5
68
330
59
100
AcDbEntity
  8
1
 62
9
100
AcDbVertex
100
AcDb2dVertex
 10
-6.767464786651543
 20
-1.11910328075737
 30
0.0
 70
8
  0
VERTEX
  5
69
330
59
100
AcDbEntity
  8
1
 62
9
100
AcDbVertex
100
AcDb2dVertex
 10
-6.821193586732987
 20
-1.110832881415261
 30
0.0
 70
8
  0
VERTEX
  5
6A
330
59
100
AcDbEntity
  8
1
 62
9
100
AcDbVertex
100
AcDb2dVertex
 10
-6.873566386897437
 20
-1.098122482001599
 30
0.0
 70
8
  0
VERTEX
  5
6B
330
59
100
AcDbEntity
  8
1
 62
9
100
AcDbVertex
100
AcDb2dVertex
 10
-6.924280787145107
 20
-1.080000082589775
 30
0.0
 70
8
  0
VERTEX
  5
6C
330
59
100
AcDbEntity
  8
1
 62
9
100
AcDbVertex
100
AcDb2dVertex
 10
-6.948467987265757
 20
-1.068873682943831
 30
0.0
 70
8
  0
VERTEX
  5
6D
330
59
100
AcDbEntity
  8
1
 62
9
100
AcDbVertex
100
AcDb2dVertex
 10
-6.972158387372472
 20
-1.056352883228099
 30
0.0
 70
8
  0
VERTEX
  5
6E
330
59
100
AcDbEntity
  8
1
 62
9
100
AcDbVertex
100
AcDb2dVertex
 10
-6.995325587551633
 20
-1.042581683490425
 30
0.0
 70
8
  0
VERTEX
  5
6F
330
59
100
AcDbEntity
  8
1
 62
9
100
AcDbVertex
100
AcDb2dVertex
 10
-7.017943187733178
 20
-1.027704083709977
 30
0.0
 70
8
  0
VERTEX
  5
70
330
59
100
AcDbEntity
  8
1
 62
9
100
AcDbVertex
100
AcDb2dVertex
 10
-7.039989587898162
 20
-1.011864084005082
 30
0.0
 70
8
  0
VERTEX
  5
71
330
59
100
AcDbEntity
  8
1
 62
9
100
AcDbVertex
100
AcDb2dVertex
 10
-7.061438388122041
 20
-0.9952032842670631
 30
0.0
 70
8
  0
VERTEX
  5
72
330
59
100
AcDbEntity
  8
1
 62
9
100
AcDbVertex
100
AcDb2dVertex
 10
-7.082263188345677
 20
-0.9778680844929111
 30
0.0
 70
8
  0
VERTEX
  5
73
330
59
100
AcDbEntity
  8
1
 62
9
100
AcDbVertex
100
AcDb2dVertex
 10
-7.102442388539202
 20
-0.9600000847826775
 30
0.0
 70
8
  0
VERTEX
  5
74
330
59
100
AcDbEntity
  8
1
 62
9
100
AcDbVertex
100
AcDb2dVertex
 10
-6.489220786559597
 20
-1.128000077465458
 30
0.0
 70
18
  0
VERTEX
  5
75
330
59
100
AcDbEntity
  8
1
 62
9
100
AcDbVertex
100
AcDb2dVertex
 10
-6.924280787145107
 20
-1.080000082589775
 30
0.0
 70
18
  0
VERTEX
  5
76
330
59
100
AcDbEntity
  8
1
 62
9
100
AcDbVertex
100
AcDb2dVertex
 10
-7.102442388539202
 20
-0.9600000847826775
 30
0.0
 70
18
  0
SEQEND
  5
77
330
59
100
AcDbEntity
  8
1
 62
9
  0
POLYLINE
  5
78
330
2F
100
AcDbEntity
  8
1
 62
9
100
AcDb2dPolyline
 66
1
 10
0.0
 20
0.0
 30
0.0
 70
4
  0
VERTEX
  5
79
330
78
100
AcDbEntity
  8
1
 62
9
100
AcDbVertex
100
AcDb2dVertex
 10
-5.945251214016025
 20
1.173691129032704
 30
0.0
 70
18
  0
VERTEX
  5
7A
330
78
100
AcDbEntity
  8
1
 62
9
100
AcDbVertex
100
AcDb2dVertex
 10
-5.945251214016025
 20
1.173691129032704
 30
0.0
 70
8
  0
VERTEX
  5
7B
330
78
100
AcDbEntity
  8
1
 62
9
100
AcDbVertex
100
AcDb2dVertex
 10
-6.01314481396912
 20
1.168291128217332
 30
0.0
 70
8
  0
VERTEX
  5
7C
330
78
100
AcDbEntity
  8
1
 62
9
100
AcDbVertex
100
AcDb2dVertex
 10
-6.08077441386558
 20
1.161861527455129
 30
0.0
 70
8
  0
VERTEX
  5
7D
330
78
100
AcDbEntity
  8
1
 62
9
100
AcDbVertex
100
AcDb2dVertex
 10
-6.148288813794351
 20
1.154872726625852
 30
0.0
 70
8
  0
VERTEX
  5
7E
330
78
100
AcDbEntity
  8
1
 62
9
100
AcDbVertex
100
AcDb2dVertex
 10
-6.215832013731414
 20
1.147795125818902
 30
0.0
 70
8
  0
VERTEX
  5
7F
330
78
100
AcDbEntity
  8
1
 62
9
100
AcDbVertex
100
AcDb2dVertex
 10
-6.283550413605553
 20
1.141096725035366
 30
0.0
 70
8
  0
VERTEX
  5
80
330
78
100
AcDbEntity
  8
1
 62
9
100
AcDbVertex
100
AcDb2dVertex
 10
-6.351592813571187
 20
1.13525032424377
 30
0.0
 70
8
  0
VERTEX
  5
81
330
78
100
AcDbEntity
  8
1
 62
9
100
AcDbVertex
100
AcDb2dVertex
 10
-6.420100813524186
 20
1.13072872341172
 30
0.0
 70
8
  0
VERTEX
  5
82
330
78
100
AcDbEntity
  8
1
 62
9
100
AcDbVertex
100
AcDb2dVertex
 10
-6.489220813451535
 20
1.127999922540311
 30
0.0
 70
8
  0
VERTEX
  5
83
330
78
100
AcDbEntity
  8
1
 62
9
100
AcDbVertex
100
AcDb2dVertex
 10
-6.545121613449737
 20
1.127219921909272
 30
0.0
 70
8
  0
VERTEX
  5
84
330
78
100
AcDbEntity
  8
1
 62
9
100
AcDbVertex
100
AcDb2dVertex
 10
-6.601202413417921
 20
1.126915121265028
 30
0.0
 70
8
  0
VERTEX
  5
85
330
78
100
AcDbEntity
  8
1
 62
9
100
AcDbVertex
100
AcDb2dVertex
 10
-6.657156013465281
 20
1.126099120569505
 30
0.0
 70
8
  0
VERTEX
  5
86
330
78
100
AcDbEntity
  8
1
 62
9
100
AcDbVertex
100
AcDb2dVertex
 10
-6.712677613435515
 20
1.12379271991085
 30
0.0
 70
8
  0
VERTEX
  5
87
330
78
100
AcDbEntity
  8
1
 62
9
100
AcDbVertex
100
AcDb2dVertex
 10
-6.767457613350416
 20
1.119011919270177
 30
0.0
 70
8
  0
VERTEX
  5
88
330
78
100
AcDbEntity
  8
1
 62
9
100
AcDbVertex
100
AcDb2dVertex
 10
-6.821188813239133
 20
1.110775118577292
 30
0.0
 70
8
  0
VERTEX
  5
89
330
78
100
AcDbEntity
  8
1
 62
9
100
AcDbVertex
100
AcDb2dVertex
 10
-6.873566413090882
 20
1.098098317952914
 30
0.0
 70
8
  0
VERTEX
  5
8A
330
78
100
AcDbEntity
  8
1
 62
9
100
AcDbVertex
100
AcDb2dVertex
 10
-6.924280812916547
 20
1.079999917396434
 30
0.0
 70
8
  0
VERTEX
  5
8B
330
78
100
AcDbEntity
  8
1
 62
9
100
AcDbVertex
100
AcDb2dVertex
 10
-6.948468012760713
 20
1.068880717107274
 30
0.0
 70
8
  0
VERTEX
  5
8C
330
78
100
AcDbEntity
  8
1
 62
9
100
AcDbVertex
100
AcDb2dVertex
 10
-6.972158412590942
 20
1.056362316780905
 30
0.0
 70
8
  0
VERTEX
  5
8D
330
78
100
AcDbEntity
  8
1
 62
9
100
AcDbVertex
100
AcDb2dVertex
 10
-6.995325612417217
 20
1.042591116554375
 30
0.0
 70
8
  0
VERTEX
  5
8E
330
78
100
AcDbEntity
  8
1
 62
9
100
AcDbVertex
100
AcDb2dVertex
 10
-7.017945612267793
 20
1.02771351628462
 30
0.0
 70
8
  0
VERTEX
  5
8F
330
78
100
AcDbEntity
  8
1
 62
9
100
AcDbVertex
100
AcDb2dVertex
 10
-7.039989612065254
 20
1.011868715984745
 30
0.0
 70
8
  0
VERTEX
  5
90
330
78
100
AcDbEntity
  8
1
 62
9
100
AcDbVertex
100
AcDb2dVertex
 10
-7.061438411870768
 20
0.9952055157395987
 30
0.0
 70
8
  0
VERTEX
  5
91
330
78
100
AcDbEntity
  8
1
 62
9
100
AcDbVertex
100
AcDb2dVertex
 10
-7.082263211672398
 20
0.9778679154583187
 30
0.0
 70
8
  0
VERTEX
  5
92
330
78
100
AcDbEntity
  8
1
 62
9
100
AcDbVertex
100
AcDb2dVertex
 10
-7.102442411451192
 20
0.9599999152592316
 30
0.0
 70
8
  0
VERTEX
  5
93
330
78
100
AcDbEntity
  8
1
 62
9
100
AcDbVertex
100
AcDb2dVertex
 10
-6.489220813451535
 20
1.127999922540311
 30
0.0
 70
18
  0
VERTEX
  5
94
330
78
100
AcDbEntity
  8
1
 62
9
100
AcDbVertex
100
AcDb2dVertex
 10
-6.924280812916547
 20
1.079999917396434
 30
0.0
 70
18
  0
VERTEX
  5
95
330
78
100
AcDbEntity
  8
1
 62
9
100
AcDbVertex
100
AcDb2dVertex
 10
-7.102442411451192
 20
0.9599999152592316
 30
0.0
 70
18
  0
SEQEND
  5
96
330
78
100
AcDbEntity
  8
1
 62
9
  0
POLYLINE
  5
97
330
2F
100
AcDbEntity
  8
1
 62
9
100
AcDb2dPolyline
 66
1
 10
0.0
 20
0.0
 30
0.0
 70
4
  0
VERTEX
  5
98
330
97
100
AcDbEntity
  8
1
 62
9
100
AcDbVertex
100
AcDb2dVertex
 10
5.945911213941142
 20
-1.170489529031327
 30
0.0
 70
18
  0
VERTEX
  5
99
330
97
100
AcDbEntity
  8
1
 62
9
100
AcDbVertex
100
AcDb2dVertex
 10
5.945911213941142
 20
-1.170489529031327
 30
0.0
 70
8
  0
VERTEX
  5
9A
330
97
100
AcDbEntity
  8
1
 62
9
100
AcDbVertex
100
AcDb2dVertex
 10
6.013730413884331
 20
-1.165684728207907
 30
0.0
 70
8
  0
VERTEX
  5
9B
330
97
100
AcDbEntity
  8
1
 62
9
100
AcDbVertex
100
AcDb2dVertex
 10
6.081288013861922
 20
-1.159804727439676
 30
0.0
 70
8
  0
VERTEX
  5
9C
330
97
100
AcDbEntity
  8
1
 62
9
100
AcDbVertex
100
AcDb2dVertex
 10
6.148725613766147
 20
-1.153312726621603
 30
0.0
 70
8
  0
VERTEX
  5
9D
330
97
100
AcDbEntity
  8
1
 62
9
100
AcDbVertex
100
AcDb2dVertex
 10
6.216192013675026
 20
-1.146676725824363
 30
0.0
 70
8
  0
VERTEX
  5
9E
330
97
100
AcDbEntity
  8
1
 62
9
100
AcDbVertex
100
AcDb2dVertex
 10
6.283828813629952
 20
-1.140362325031218
 30
0.0
 70
8
  0
VERTEX
  5
9F
330
97
100
AcDbEntity
  8
1
 62
9
100
AcDbVertex
100
AcDb2dVertex
 10
6.351782413548789
 20
-1.134835124225445
 30
0.0
 70
8
  0
VERTEX
  5
A0
330
97
100
AcDbEntity
  8
1
 62
9
100
AcDbVertex
100
AcDb2dVertex
 10
6.420196813483926
 20
-1.130558323371133
 30
0.0
 70
8
  0
VERTEX
  5
A1
330
97
100
AcDbEntity
  8
1
 62
9
100
AcDbVertex
100
AcDb2dVertex
 10
6.489220813451535
 20
-1.127999922539856
 30
0.0
 70
8
  0
VERTEX
  5
A2
330
97
100
AcDbEntity
  8
1
 62
9
100
AcDbVertex
100
AcDb2dVertex
 10
6.545128813431799
 20
-1.127301521901699
 30
0.0
 70
8
  0
VERTEX
  5
A3
330
97
100
AcDbEntity
  8
1
 62
9
100
AcDbVertex
100
AcDb2dVertex
 10
6.601212013418263
 20
-1.127037521218879
 30
0.0
 70
8
  0
VERTEX
  5
A4
330
97
100
AcDbEntity
  8
1
 62
9
100
AcDbVertex
100
AcDb2dVertex
 10
6.657168013414775
 20
-1.126231120596457
 30
0.0
 70
8
  0
VERTEX
  5
A5
330
97
100
AcDbEntity
  8
1
 62
9
100
AcDbVertex
100
AcDb2dVertex
 10
6.712687213439494
 20
-1.12391271991646
 30
0.0
 70
8
  0
VERTEX
  5
A6
330
97
100
AcDbEntity
  8
1
 62
9
100
AcDbVertex
100
AcDb2dVertex
 10
6.767464813332479
 20
-1.119103119266128
 30
0.0
 70
8
  0
VERTEX
  5
A7
330
97
100
AcDbEntity
  8
1
 62
9
100
AcDbVertex
100
AcDb2dVertex
 10
6.821193613275681
 20
-1.11083271859661
 30
0.0
 70
8
  0
VERTEX
  5
A8
330
97
100
AcDbEntity
  8
1
 62
9
100
AcDbVertex
100
AcDb2dVertex
 10
6.873566413087246
 20
-1.098122317995603
 30
0.0
 70
8
  0
VERTEX
  5
A9
330
97
100
AcDbEntity
  8
1
 62
9
100
AcDbVertex
100
AcDb2dVertex
 10
6.924280812916547
 20
-1.079999917396434
 30
0.0
 70
8
  0
VERTEX
  5
AA
330
97
100
AcDbEntity
  8
1
 62
9
100
AcDbVertex
100
AcDb2dVertex
 10
6.948468012757072
 20
-1.068873517051996
 30
0.0
 70
8
  0
VERTEX
  5
AB
330
97
100
AcDbEntity
  8
1
 62
9
100
AcDbVertex
100
AcDb2dVertex
 10
6.972158412587304
 20
-1.056352716777382
 30
0.0
 70
8
  0
VERTEX
  5
AC
330
97
100
AcDbEntity
  8
1
 62
9
100
AcDbVertex
100
AcDb2dVertex
 10
6.995325612417217
 20
-1.042581516550852
 30
0.0
 70
8
  0
VERTEX
  5
AD
330
97
100
AcDbEntity
  8
1
 62
9
100
AcDbVertex
100
AcDb2dVertex
 10
7.01794321224952
 20
-1.02770391628155
 30
0.0
 70
8
  0
VERTEX
  5
AE
330
97
100
AcDbEntity
  8
1
 62
9
100
AcDbVertex
100
AcDb2dVertex
 10
7.039989612065254
 20
-1.011863916017772
 30
0.0
 70
8
  0
VERTEX
  5
AF
330
97
100
AcDbEntity
  8
1
 62
9
100
AcDbVertex
100
AcDb2dVertex
 10
7.061438411870768
 20
-0.9952031157213239
 30
0.0
 70
8
  0
VERTEX
  5
B0
330
97
100
AcDbEntity
  8
1
 62
9
100
AcDbVertex
100
AcDb2dVertex
 10
7.082263211672398
 20
-0.977867915457864
 30
0.0
 70
8
  0
VERTEX
  5
B1
330
97
100
AcDbEntity
  8
1
 62
9
100
AcDbVertex
100
AcDb2dVertex
 10
7.102442411447555
 20
-0.959999915258777
 30
0.0
 70
8
  0
VERTEX
  5
B2
330
97
100
AcDbEntity
  8
1
 62
9
100
AcDbVertex
100
AcDb2dVertex
 10
6.489220813451535
 20
-1.127999922539856
 30
0.0
 70
18
  0
VERTEX
  5
B3
330
97
100
AcDbEntity
  8
1
 62
9
100
AcDbVertex
100
AcDb2dVertex
 10
6.924280812916547
 20
-1.079999917396434
 30
0.0
 70
18
  0
VERTEX
  5
B4
330
97
100
AcDbEntity
  8
1
 62
9
100
AcDbVertex
100
AcDb2dVertex
 10
7.102442411447555
 20
-0.959999915258777
 30
0.0
 70
18
  0
SEQEND
  5
B5
330
97
100
AcDbEntity
  8
1
 62
9
  0
POLYLINE
  5
B6
330
2F
100
AcDbEntity
  8
1
 62
9
100
AcDb2dPolyline
 66
1
 10
0.0
 20
0.0
 30
0.0
 70
4
  0
VERTEX
  5
B7
330
B6
100
AcDbEntity
  8
1
 62
9
100
AcDbVertex
100
AcDb2dVertex
 10
5.945251186003588
 20
1.173691270966169
 30
0.0
 70
18
  0
VERTEX
  5
B8
330
B6
100
AcDbEntity
  8
1
 62
9
100
AcDbVertex
100
AcDb2dVertex
 10
5.945251186003588
 20
1.173691270966169
 30
0.0
 70
8
  0
VERTEX
  5
B9
330
B6
100
AcDbEntity
  8
1
 62
9
100
AcDbVertex
100
AcDb2dVertex
 10
6.013144786025804
 20
1.168291271757424
 30
0.0
 70
8
  0
VERTEX
  5
BA
330
B6
100
AcDbEntity
  8
1
 62
9
100
AcDbVertex
100
AcDb2dVertex
 10
6.080774386133271
 20
1.161861672531812
 30
0.0
 70
8
  0
VERTEX
  5
BB
330
B6
100
AcDbEntity
  8
1
 62
9
100
AcDbVertex
100
AcDb2dVertex
 10
6.148288786200282
 20
1.154872873379187
 30
0.0
 70
8
  0
VERTEX
  5
BC
330
B6
100
AcDbEntity
  8
1
 62
9
100
AcDbVertex
100
AcDb2dVertex
 10
6.215831986279226
 20
1.147795274178406
 30
0.0
 70
8
  0
VERTEX
  5
BD
330
B6
100
AcDbEntity
  8
1
 62
9
100
AcDbVertex
100
AcDb2dVertex
 10
6.283550386364367
 20
1.141096875001949
 30
0.0
 70
8
  0
VERTEX
  5
BE
330
B6
100
AcDbEntity
  8
1
 62
9
100
AcDbVertex
100
AcDb2dVertex
 10
6.351592786468242
 20
1.135250475816519
 30
0.0
 70
8
  0
VERTEX
  5
BF
330
B6
100
AcDbEntity
  8
1
 62
9
100
AcDbVertex
100
AcDb2dVertex
 10
6.420100786490363
 20
1.130728876590636
 30
0.0
 70
8
  0
VERTEX
  5
C0
330
B6
100
AcDbEntity
  8
1
 62
9
100
AcDbVertex
100
AcDb2dVertex
 10
6.489220786559597
 20
1.128000077465458
 30
0.0
 70
8
  0
VERTEX
  5
C1
330
B6
100
AcDbEntity
  8
1
 62
9
100
AcDbVertex
100
AcDb2dVertex
 10
6.545121586554158
 20
1.127220078092249
 30
0.0
 70
8
  0
VERTEX
  5
C2
330
B6
100
AcDbEntity
  8
1
 62
9
100
AcDbVertex
100
AcDb2dVertex
 10
6.601202386522342
 20
1.126915278774959
 30
0.0
 70
8
  0
VERTEX
  5
C3
330
B6
100
AcDbEntity
  8
1
 62
9
100
AcDbVertex
100
AcDb2dVertex
 10
6.657155986573343
 20
1.126099279406389
 30
0.0
 70
8
  0
VERTEX
  5
C4
330
B6
100
AcDbEntity
  8
1
 62
9
100
AcDbVertex
100
AcDb2dVertex
 10
6.712677586612699
 20
1.123792880075143
 30
0.0
 70
8
  0
VERTEX
  5
C5
330
B6
100
AcDbEntity
  8
1
 62
9
100
AcDbVertex
100
AcDb2dVertex
 10
6.767457586665841
 20
1.119012080761875
 30
0.0
 70
8
  0
VERTEX
  5
C6
330
B6
100
AcDbEntity
  8
1
 62
9
100
AcDbVertex
100
AcDb2dVertex
 10
6.821188786765557
 20
1.110775281395945
 30
0.0
 70
8
  0
VERTEX
  5
C7
330
B6
100
AcDbEntity
  8
1
 62
9
100
AcDbVertex
100
AcDb2dVertex
 10
6.873566386893799
 20
1.09809848202849
 30
0.0
 70
8
  0
VERTEX
  5
C8
330
B6
100
AcDbEntity
  8
1
 62
9
100
AcDbVertex
100
AcDb2dVertex
 10
6.924280787141467
 20
1.080000082589775
 30
0.0
 70
8
  0
VERTEX
  5
C9
330
B6
100
AcDbEntity
  8
1
 62
9
100
AcDbVertex
100
AcDb2dVertex
 10
6.94846798726212
 20
1.068880882929079
 30
0.0
 70
8
  0
VERTEX
  5
CA
330
B6
100
AcDbEntity
  8
1
 62
9
100
AcDbVertex
100
AcDb2dVertex
 10
6.972158387372472
 20
1.056362483161592
 30
0.0
 70
8
  0
VERTEX
  5
CB
330
B6
100
AcDbEntity
  8
1
 62
9
100
AcDbVertex
100
AcDb2dVertex
 10
6.995325587547992
 20
1.042591283493947
 30
0.0
 70
8
  0
VERTEX
  5
CC
330
B6
100
AcDbEntity
  8
1
 62
9
100
AcDbVertex
100
AcDb2dVertex
 10
7.017945587751455
 20
1.0277136837135
 30
0.0
 70
8
  0
VERTEX
  5
CD
330
B6
100
AcDbEntity
  8
1
 62
9
100
AcDbVertex
100
AcDb2dVertex
 10
7.039989587898162
 20
1.011868883972055
 30
0.0
 70
8
  0
VERTEX
  5
CE
330
B6
100
AcDbEntity
  8
1
 62
9
100
AcDbVertex
100
AcDb2dVertex
 10
7.061438388122041
 20
0.9952056842857928
 30
0.0
 70
8
  0
VERTEX
  5
CF
330
B6
100
AcDbEntity
  8
1
 62
9
100
AcDbVertex
100
AcDb2dVertex
 10
7.082263188342039
 20
0.977868084493366
 30
0.0
 70
8
  0
VERTEX
  5
D0
330
B6
100
AcDbEntity
  8
1
 62
9
100
AcDbVertex
100
AcDb2dVertex
 10
7.102442388539202
 20
0.9600000847831323
 30
0.0
 70
8
  0
VERTEX
  5
D1
330
B6
100
AcDbEntity
  8
1
 62
9
100
AcDbVertex
100
AcDb2dVertex
 10
6.489220786559597
 20
1.128000077465458
 30
0.0
 70
18
  0
VERTEX
  5
D2
330
B6
100
AcDbEntity
  8
1
 62
9
100
AcDbVertex
100
AcDb2dVertex
 10
6.924280787141467
 20
1.080000082589775
 30
0.0
 70
18
  0
VERTEX
  5
D3
330
B6
100
AcDbEntity
  8
1
 62
9
100
AcDbVertex
100
AcDb2dVertex
 10
7.102442388539202
 20
0.9600000847831323
 30
0.0
 70
18
  0
SEQEND
  5
D4
330
B6
100
AcDbEntity
  8
1
 62
9
  0
CIRCLE
  5
D5
330
2F
100
AcDbEntity
  8
CONDUCTOR
 62
8
 48
100.0
100
AcDbCircle
 10
0.0
 20
0.0
 30
0.0
 40
10.0000006426126
  0
ENDBLK
  5
31
330
2F
100
AcDbEntity
  8
0
100
AcDbBlockEnd
  0
ENDSEC
  0
SECTION
  2
ENTITIES
  0
INSERT
  5
D9
330
17
100
AcDbEntity
  8
0
100
AcDbBlockReference
  2
blk
 10
10.0000006426126
 20
10.0000006426126
 30
0.0
  0
ENDSEC
  0
SECTION
  2
OBJECTS
  0
DICTIONARY
  5
A
330
0
100
AcDbDictionary
281
1
  3
ACAD_COLOR
350
B
  3
ACAD_GROUP
350
C
  3
ACAD_LAYOUT
350
D
  3
ACAD_MATERIAL
350
E
  3
ACAD_MLEADERSTYLE
350
F
  3
ACAD_MLINESTYLE
350
10
  3
ACAD_PLOTSETTINGS
350
11
  3
ACAD_PLOTSTYLENAME
350
12
  3
ACAD_SCALELIST
350
14
  3
ACAD_TABLESTYLE
350
15
  3
ACAD_VISUALSTYLE
350
16
  3
EZDXF_META
350
2D
  0
DICTIONARY
  5
B
330
A
100
AcDbDictionary
281
1
  0
DICTIONARY
  5
C
330
A
100
AcDbDictionary
281
1
  0
DICTIONARY
  5
D
330
A
100
AcDbDictionary
281
1
  3
Model
350
1A
  3
Layout1
350
1E
  0
DICTIONARY
  5
E
330
A
100
AcDbDictionary
281
1
  3
ByBlock
350
1F
  3
ByLayer
350
20
  3
Global
350
21
  0
DICTIONARY
  5
F
330
A
100
AcDbDictionary
281
1
  3
Standard
350
2C
  0
DICTIONARY
  5
10
330
A
100
AcDbDictionary
281
1
  3
Standard
350
22
  0
DICTIONARY
  5
11
330
A
100
AcDbDictionary
281
1
  0
ACDBDICTIONARYWDFLT
  5
12
330
A
100
AcDbDictionary
281
1
  3
Normal
350
13
100
AcDbDictionaryWithDefault
340
13
  0
ACDBPLACEHOLDER
  5
13
330
12
  0
DICTIONARY
  5
14
330
A
100
AcDbDictionary
281
1
  0
DICTIONARY
  5
15
330
A
100
AcDbDictionary
281
1
  0
DICTIONARY
  5
16
330
A
100
AcDbDictionary
281
1
  0
LAYOUT
  5
1A
330
D
100
AcDbPlotSettings
  1

  4
A3
  6

 40
7.5
 41
20.0
 42
7.5
 43
20.0
 44
420.0
 45
297.0
 46
0.0
 47
0.0
 48
0.0
 49
0.0
140
0.0
141
0.0
142
1.0
143
1.0
 70
1024
 72
1
 73
0
 74
5
  7

 75
16
 76
0
 77
2
 78
300
147
1.0
148
0.0
149
0.0
100
AcDbLayout
  1
Model
 70
1
 71
0
 10
0.0
 20
0.0
 11
420.0
 21
297.0
 12
0.0
 22
0.0
 32
0.0
 14
1e+20
 24
1e+20
 34
1e+20
 15
-1e+20
 25
-1e+20
 35
-1e+20
146
0.0
 13
0.0
 23
0.0
 33
0.0
 16
1.0
 26
0.0
 36
0.0
 17
0.0
 27
1.0
 37
0.0
 76
1
330
17
  0
LAYOUT
  5
1E
330
D
100
AcDbPlotSettings
  1

  4
A3
  6

 40
7.5
 41
20.0
 42
7.5
 43
20.0
 44
420.0
 45
297.0
 46
0.0
 47
0.0
 48
0.0
 49
0.0
140
0.0
141
0.0
142
1.0
143
1.0
 70
0
 72
1
 73
0
 74
5
  7

 75
16
 76
0
 77
2
 78
300
147
1.0
148
0.0
149
0.0
100
AcDbLayout
  1
Layout1
 70
1
 71
1
 10
0.0
 20
0.0
 11
420.0
 21
297.0
 12
0.0
 22
0.0
 32
0.0
 14
1e+20
 24
1e+20
 34
1e+20
 15
-1e+20
 25
-1e+20
 35
-1e+20
146
0.0
 13
0.0
 23
0.0
 33
0.0
 16
1.0
 26
0.0
 36
0.0
 17
0.0
 27
1.0
 37
0.0
 76
1
330
1B
  0
MATERIAL
  5
1F
102
{ACAD_REACTORS
330
E
102
}
330
E
100
AcDbMaterial
  1
ByBlock
  2

 70
0
 40
1.0
 71
1
 41
1.0
 91
-1023410177
 42
1.0
 72
1
  3

 73
1
 74
1
 75
1
 44
0.5
 73
0
 45
1.0
 46
1.0
 77
1
  4

 78
1
 79
1
170
1
 48
1.0
171
1
  6

172
1
173
1
174
1
140
1.0
141
1.0
175
1
  7

176
1
177
1
178
1
143
1.0
179
1
  8

270
1
271
1
272
1
145
1.0
146
1.0
273
1
  9

274
1
275
1
276
1
 42
1.0
 72
1
  3

 73
1
 74
1
 75
1
 94
63
  0
MATERIAL
  5
20
102
{ACAD_REACTORS
330
E
102
}
330
E
100
AcDbMaterial
  1
ByLayer
  2

 70
0
 40
1.0
 71
1
 41
1.0
 91
-1023410177
 42
1.0
 72
1
  3

 73
1
 74
1
 75
1
 44
0.5
 73
0
 45
1.0
 46
1.0
 77
1
  4

 78
1
 79
1
170
1
 48
1.0
171
1
  6

172
1
173
1
174
1
140
1.0
141
1.0
175
1
  7

176
1
177
1
178
1
143
1.0
179
1
  8

270
1
271
1
272
1
145
1.0
146
1.0
273
1
  9

274
1
275
1
276
1
 42
1.0
 72
1
  3

 73
1
 74
1
 75
1
 94
63
  0
MATERIAL
  5
21
102
{ACAD_REACTORS
330
E
102
}
330
E
100
AcDbMaterial
  1
Global
  2

 70
0
 40
1.0
 71
1
 41
1.0
 91
-1023410177
 42
1.0
 72
1
  3

 73
1
 74
1
 75
1
 44
0.5
 73
0
 45
1.0
 46
1.0
 77
1
  4

 78
1
 79
1
170
1
 48
1.0
171
1
  6

172
1
173
1
174
1
140
1.0
141
1.0
175
1
  7

176
1
177
1
178
1
143
1.0
179
1
  8

270
1
271
1
272
1
145
1.0
146
1.0
273
1
  9

274
1
275
1
276
1
 42
1.0
 72
1
  3

 73
1
 74
1
 75
1
 94
63
  0
MLINESTYLE
  5
22
102
{ACAD_REACTORS
330
10
102
}
330
10
100
AcDbMlineStyle
  2
Standard
 70
0
  3

 62
256
 51
90.0
 52
90.0
 71
2
 49
0.5
 62
256
  6
BYLAYER
 49
-0.5
 62
256
  6
BYLAYER
  0
MLEADERSTYLE
  5
2C
102
{ACAD_REACTORS
330
F
102
}
330
F
100
AcDbMLeaderStyle
179
2
170
2
171
1
172
0
 90
2
 40
0.0
 41
0.0
173
1
 91
-1056964608
 92
-2
290
1
 42
2.0
291
1
 43
8.0
  3
Standard
 44
4.0
300

342
29
174
1
175
1
176
0
178
1
 93
-1056964608
 45
4.0
292
0
297
0
 46
4.0
 94
-1056964608
 47
1.0
 49
1.0
140
1.0
294
1
141
0.0
177
0
142
1.0
295
0
296
0
143
3.75
271
0
272
9
273
9
  0
DICTIONARY
  5
2D
330
A
100
AcDbDictionary
280
1
281
1
  3
CREATED_BY_EZDXF
350
2E
  3
WRITTEN_BY_EZDXF
350
DD
  0
DICTIONARYVAR
  5
2E
330
2D
100
DictionaryVariables
280
0
  1
1.4.4 @ 2026-09-23T12:53:41.556529+00:00
  0
DICTIONARYVAR
  5
DD
330
2D
100
DictionaryVariables
280
0
  1
1.4.4 @ 2026-09-23T12:53:41.568040+00:00
  0
ENDSEC
  0
EOF
