  0
SECTION
  2
HEADER
  9
$ACADVER
  1
AC1032
  9
$ACADMAINTVER
 90
4
  9
$DWGCODEPAGE
  3
ANSI_1252
  9
$LASTSAVEDBY
  1
ezdxf
  9
$REQUIREDVERSIONS
160
0
  9
$INSBASE
 10
0.0
 20
0.0
 30
0.0
  9
$EXTMIN
 10
1e+20
 20
1e+20
 30
1e+20
  9
$EXTMAX
 10
-1e+20
 20
-1e+20
 30
-1e+20
  9
$LIMMIN
 10
0.0
 20
0.0
  9
$LIMMAX
 10
420.0
 20
297.0
  9
$ORTHOMODE
 70
0
  9
$REGENMODE
 70
1
  9
$FILLMODE
 70
1
  9
$QTEXTMODE
 70
0
  9
$MIRRTEXT
 70
1
  9
$LTSCALE
 40
1.0
  9
$ATTMODE
 70
1
  9
$TEXTSIZE
 40
2.5
  9
$TRACEWID
 40
1.0
  9
$TEXTSTYLE
  7
Standard
  9
$CLAYER
  8
0
  9
$CELTYPE
  6
ByLayer
  9
$CECOLOR
 62
256
  9
$CELTSCALE
 40
1.0
  9
$DISPSILH
 70
0
  9
$DIMSCALE
 40
1.0
  9
$DIMASZ
 40
2.5
  9
$DIMEXO
 40
0.625
  9
$DIMDLI
 40
3.75
  9
$DIMRND
 40
0.0
  9
$DIMDLE
 40
0.0
  9
$DIMEXE
 40
1.25
  9
$DIMTP
 40
0.0
  9
$DIMTM
 40
0.0
  9
$DIMTXT
 40
2.5
  9
$DIMCEN
 40
2.5
  9
$DIMTSZ
 40
0.0
  9
$DIMTOL
 70
0
  9
$DIMLIM
 70
0
  9
$DIMTIH
 70
0
  9
$DIMTOH
 70
0
  9
$DIMSE1
 70
0
  9
$DIMSE2
 70
0
  9
$DIMTAD
 70
1
  9
$DIMZIN
 70
8
  9
$DIMBLK
  1

  9
$DIMASO
 70
1
  9
$DIMSHO
 70
1
  9
$DIMPOST
  1

  9
$DIMAPOST
  1

  9
$DIMALT
 70
0
  9
$DIMALTD
 70
3
  9
$DIMALTF
 40
0.03937007874
  9
$DIMLFAC
 40
1.0
  9
$DIMTOFL
 70
1
  9
$DIMTVP
 40
0.0
  9
$DIMTIX
 70
0
  9
$DIMSOXD
 70
0
  9
$DIMSAH
 70
0
  9
$DIMBLK1
  1

  9
$DIMBLK2
  1

  9
$DIMSTYLE
  2
ISO-25
  9
$DIMCLRD
 70
0
  9
$DIMCLRE
 70
0
  9
$DIMCLRT
 70
0
  9
$DIMTFAC
 40
1.0
  9
$DIMGAP
 40
0.625
  9
$DIMJUST
 70
0
  9
$DIMSD1
 70
0
  9
$DIMSD2
 70
0
  9
$DIMTOLJ
 70
0
  9
$DIMTZIN
 70
8
  9
$DIMALTZ
 70
0
  9
$DIMALTTZ
 70
0
  9
$DIMUPT
 70
0
  9
$DIMDEC
 70
2
  9
$DIMTDEC
 70
2
  9
$DIMALTU
 70
2
  9
$DIMALTTD
 70
3
  9
$DIMTXSTY
  7
Standard
  9
$DIMAUNIT
 70
0
  9
$DIMADEC
 70
0
  9
$DIMALTRND
 40
0.0
  9
$DIMAZIN
 70
0
  9
$DIMDSEP
 70
44
  9
$DIMATFIT
 70
3
  9
$DIMFRAC
 70
0
  9
$DIMLDRBLK
  1

  9
$DIMLUNIT
 70
2
  9
$DIMLWD
 70
-2
  9
$DIMLWE
 70
-2
  9
$DIMTMOVE
 70
0
  9
$DIMFXL
 40
1.0
  9
$DIMFXLON
 70
0
  9
$DIMJOGANG
 40
0.785398163397
  9
$DIMTFILL
 70
0
  9
$DIMTFILLCLR
 70
0
  9
$DIMARCSYM
 70
0
  9
$DIMLTYPE
  6

  9
$DIMLTEX1
  6

  9
$DIMLTEX2
  6

  9
$DIMTXTDIRECTION
 70
0
  9
$LUNITS
 70
2
  9
$LUPREC
 70
4
  9
$SKETCHINC
 40
1.0
  9
$FILLETRAD
 40
10.0
  9
$AUNITS
 70
0
  9
$AUPREC
 70
2
  9
$MENU
  1
.
  9
$ELEVATION
 40
0.0
  9
$PELEVATION
 40
0.0
  9
$THICKNESS
 40
0.0
  9
$LIMCHECK
 70
0
  9
$CHAMFERA
 40
0.0
  9
$CHAMFERB
 40
0.0
  9
$CHAMFERC
 40
0.0
  9
$CHAMFERD
 40
0.0
  9
$SKPOLY
 70
0
  9
$TDCREATE
 40
2461307.82875
  9
$TDUCREATE
 40
2458532.153996898
  9
$TDUPDATE
 40
2461307.828761574
  9
$TDUUPDATE
 40
2458532.1544311
  9
$TDINDWG
 40
0.0
  9
$TDUSRTIMER
 40
0.0
  9
$USRTIMER
 70
1
  9
$ANGBASE
 50
0.0
  9
$ANGDIR
 70
0
  9
$PDMODE
 70
0
  9
$PDSIZE
 40
0.0
  9
$PLINEWID
 40
0.0
  9
$SPLFRAME
 70
0
  9
$SPLINETYPE
 70
6
  9
$SPLINESEGS
 70
8
  9
$HANDSEED
  5
322
  9
$SURFTAB1
 70
6
  9
$SURFTAB2
 70
6
  9
$SURFTYPE
 70
6
  9
$SURFU
 70
6
  9
$SURFV
 70
6
  9
$UCSBASE
  2

  9
$UCSNAME
  2

  9
$UCSORG
 10
0.0
 20
0.0
 30
0.0
  9
$UCSXDIR
 10
1.0
 20
0.0
 30
0.0
  9
$UCSYDIR
 10
0.0
 20
1.0
 30
0.0
  9
$UCSORTHOREF
  2

  9
$UCSORTHOVIEW
 70
0
  9
$UCSORGTOP
 10
0.0
 20
0.0
 30
0.0
  9
$UCSORGBOTTOM
 10
0.0
 20
0.0
 30
0.0
  9
$UCSORGLEFT
 10
0.0
 20
0.0
 30
0.0
  9
$UCSORGRIGHT
 10
0.0
 20
0.0
 30
0.0
  9
$UCSORGFRONT
 10
0.0
 20
0.0
 30
0.0
  9
$UCSORGBACK
 10
0.0
 20
0.0
 30
0.0
  9
$PUCSBASE
  2

  9
$PUCSNAME
  2

  9
$PUCSORG
 10
0.0
 20
0.0
 30
0.0
  9
$PUCSXDIR
 10
1.0
 20
0.0
 30
0.0
  9
$PUCSYDIR
 10
0.0
 20
1.0
 30
0.0
  9
$PUCSORTHOREF
  2

  9
$PUCSORTHOVIEW
 70
0
  9
$PUCSORGTOP
 10
0.0
 20
0.0
 30
0.0
  9
$PUCSORGBOTTOM
 10
0.0
 20
0.0
 30
0.0
  9
$PUCSORGLEFT
 10
0.0
 20
0.0
 30
0.0
  9
$PUCSORGRIGHT
 10
0.0
 20
0.0
 30
0.0
  9
$PUCSORGFRONT
 10
0.0
 20
0.0
 30
0.0
  9
$PUCSORGBACK
 10
0.0
 20
0.0
 30
0.0
  9
$USERI1
 70
0
  9
$USERI2
 70
0
  9
$USERI3
 70
0
  9
$USERI4
 70
0
  9
$USERI5
 70
0
  9
$USERR1
 40
0.0
  9
$USERR2
 40
0.0
  9
$USERR3
 40
0.0
  9
$USERR4
 40
0.0
  9
$USERR5
 40
0.0
  9
$WORLDVIEW
 70
1
  9
$SHADEDGE
 70
3
  9
$SHADEDIF
 70
70
  9
$TILEMODE
 70
1
  9
$MAXACTVP
 70
64
  9
$PINSBASE
 10
0.0
 20
0.0
 30
0.0
  9
$PLIMCHECK
 70
0
  9
$PEXTMIN
 10
1e+20
 20
1e+20
 30
1e+20
  9
$PEXTMAX
 10
-1e+20
 20
-1e+20
 30
-1e+20
  9
$PLIMMIN
 10
0.0
 20
0.0
  9
$PLIMMAX
 10
420.0
 20
297.0
  9
$UNITMODE
 70
0
  9
$VISRETAIN
 70
1
  9
$PLINEGEN
 70
0
  9
$PSLTSCALE
 70
1
  9
$TREEDEPTH
 70
3020
  9
$CMLSTYLE
  2
Standard
  9
$CMLJUST
 70
0
  9
$CMLSCALE
 40
20.0
  9
$PROXYGRAPHICS
 70
1
  9
$MEASUREMENT
 70
1
  9
$CELWEIGHT
370
-1
  9
$ENDCAPS
280
0
  9
$JOINSTYLE
280
0
  9
$LWDISPLAY
290
0
  9
$INSUNITS
 70
4
  9
$HYPERLINKBASE
  1

  9
$STYLESHEET
  1

  9
$XEDIT
290
1
  9
$CEPSNTYPE
380
0
  9
$PSTYLEMODE
290
1
  9
$FINGERPRINTGUID
  2
{080B6949-6DFC-434D-A0F5-A7B42320B62A}
  9
$VERSIONGUID
  2
{1FA3E198-B1FD-4768-A4A2-594AD93B9D2A}
  9
$EXTNAMES
290
1
  9
$PSVPSCALE
 40
0.0
  9
$OLESTARTUP
290
0
  9
$SORTENTS
280
127
  9
$INDEXCTL
280
0
  9
$HIDETEXT
280
1
  9
$XCLIPFRAME
280
1
  9
$HALOGAP
280
0
  9
$OBSCOLOR
 70
257
  9
$OBSLTYPE
280
0
  9
$INTERSECTIONDISPLAY
280
0
  9
$INTERSECTIONCOLOR
 70
257
  9
$DIMASSOC
280
2
  9
$PROJECTNAME
  1

  9
$CAMERADISPLAY
290
0
  9
$LENSLENGTH
 40
50.0
  9
$CAMERAHEIGHT
 40
0.0
  9
$STEPSPERSEC
 40
24.0
  9
$STEPSIZE
 40
100.0
  9
$3DDWFPREC
 40
2.0
  9
$PSOLWIDTH
 40
0.005
  9
$PSOLHEIGHT
 40
0.08
  9
$LOFTANG1
 40
1.570796326795
  9
$LOFTANG2
 40
1.570796326795
  9
$LOFTMAG1
 40
0.0
  9
$LOFTMAG2
 40
0.0
  9
$LOFTPARAM
 70
7
  9
$LOFTNORMALS
280
1
  9
$LATITUDE
 40
37.795
  9
$LONGITUDE
 40
-122.394
  9
$NORTHDIRECTION
 40
0.0
  9
$TIMEZONE
 70
-8000
  9
$LIGHTGLYPHDISPLAY
280
1
  9
$TILEMODELIGHTSYNCH
280
1
  9
$CMATERIAL
347
20
  9
$SOLIDHIST
280
0
  9
$SHOWHIST
280
1
  9
$DWFFRAME
280
2
  9
$DGNFRAME
280
2
  9
$REALWORLDSCALE
290
1
  9
$INTERFERECOLOR
 62
256
  9
$CSHADOW
280
0
  9
$SHADOWPLANELOCATION
 40
0.0
  0
ENDSEC
  0
SECTION
  2
CLASSES
  0
CLASS
  1
ACDBDICTIONARYWDFLT
  2
AcDbDictionaryWithDefault
  3
ObjectDBX Classes
 90
0
 91
0
280
0
281
0
  0
CLASS
  1
SUN
  2
AcDbSun
  3
SCENEOE
 90
1153
 91
0
280
0
281
0
  0
CLASS
  1
VISUALSTYLE
  2
AcDbVisualStyle
  3
ObjectDBX Classes
 90
4095
 91
0
280
0
281
0
  0
CLASS
  1
MATERIAL
  2
AcDbMaterial
  3
ObjectDBX Classes
 90
1153
 91
0
280
0
281
0
  0
CLASS
  1
SCALE
  2
AcDbScale
  3
ObjectDBX Classes
 90
1153
 91
0
280
0
281
0
  0
CLASS
  1
TABLESTYLE
  2
AcDbTableStyle
  3
ObjectDBX Classes
 90
4095
 91
0
280
0
281
0
  0
CLASS
  1
MLEADERSTYLE
  2
AcDbMLeaderStyle
  3
ACDB_MLEADERSTYLE_CLASS
 90
4095
 91
0
280
0
281
0
  0
CLASS
  1
DICTIONARYVAR
  2
AcDbDictionaryVar
  3
ObjectDBX Classes
 90
0
 91
0
280
0
281
0
  0
CLASS
  1
CELLSTYLEMAP
  2
AcDbCellStyleMap
  3
ObjectDBX Classes
 90
1152
 91
0
280
0
281
0
  0
CLASS
  1
MENTALRAYRENDERSETTINGS
  2
AcDbMentalRayRenderSettings
  3
SCENEOE
 90
1024
 91
0
280
0
281
0
  0
CLASS
  1
ACDBDETAILVIEWSTYLE
  2
AcDbDetailViewStyle
  3
ObjectDBX Classes
 90
1025
 91
0
280
0
281
0
  0
CLASS
  1
ACDBSECTIONVIEWSTYLE
  2
AcDbSectionViewStyle
  3
ObjectDBX Classes
 90
1025
 91
0
280
0
281
0
  0
CLASS
  1
RASTERVARIABLES
  2
AcDbRasterVariables
  3
ISM
 90
0
 91
0
280
0
281
0
  0
CLASS
  1
ACDBPLACEHOLDER
  2
AcDbPlaceHolder
  3
ObjectDBX Classes
 90
0
 91
0
280
0
281
0
  0
CLASS
  1
LAYOUT
  2
AcDbLayout
  3
ObjectDBX Classes
 90
0
 91
0
280
0
281
0
  0
ENDSEC
  0
SECTION
  2
TABLES
  0
TABLE
  2
VPORT
  5
8
330
0
100
AcDbSymbolTable
 70
1
  0
VPORT
  5
23
330
8
100
AcDbSymbolTableRecord
100
AcDbViewportTableRecord
  2
*Active
 70
0
 10
0.0
 20
0.0
 11
1.0
 21
1.0
 12
0.0
 22
0.0
 13
0.0
 23
0.0
 14
0.5
 24
0.5
 15
0.5
 25
0.5
 16
0.0
 26
0.0
 36
1.0
 17
0.0
 27
0.0
 37
0.0
 40
1000.0
 41
1.34
 42
50.0
 43
0.0
 44
0.0
 50
0.0
 51
0.0
 71
0
 72
1000
 73
1
 74
3
 75
0
 76
0
 77
0
 78
0
281
0
 65
0
146
0.0
  0
ENDTAB
  0
TABLE
  2
LTYPE
  5
2
330
0
100
AcDbSymbolTable
 70
3
  0
LTYPE
  5
24
330
2
100
AcDbSymbolTableRecord
100
AcDbLinetypeTableRecord
  2
ByBlock
 70
0
  3

 72
65
 73
0
 40
0.0
  0
LTYPE
  5
25
330
2
100
AcDbSymbolTableRecord
100
AcDbLinetypeTableRecord
  2
ByLayer
 70
0
  3

 72
65
 73
0
 40
0.0
  0
LTYPE
  5
26
330
2
100
AcDbSymbolTableRecord
100
AcDbLinetypeTableRecord
  2
Continuous
 70
0
  3

 72
65
 73
0
 40
0.0
  0
ENDTAB
  0
TABLE
  2
LAYER
  5
1
330
0
100
AcDbSymbolTable
 70
3
  0
LAYER
  5
27
330
1
100
AcDbSymbolTableRecord
100
AcDbLayerTableRecord
  2
0
 70
0
 62
7
  6
Continuous
370
-3
390
13
347
21
  0
LAYER
  5
28
330
1
100
AcDbSymbolTableRecord
100
AcDbLayerTableRecord
  2
Defpoints
 70
0
 62
7
  6
Continuous
290
0
370
-3
390
13
347
21
  0
LAYER
  5
31C
330
1
100
AcDbSymbolTableRecord
100
AcDbLayerTableRecord
  2
hw_VTP
 70
2
 62
7
  6
Continuous
370
13
390
13
347
21
  0
ENDTAB
  0
TABLE
  2
STYLE
  5
5
330
0
100
AcDbSymbolTable
 70
1
  0
STYLE
  5
29
330
5
100
AcDbSymbolTableRecord
100
AcDbTextStyleTableRecord
  2
Standard
 70
0
 40
0.0
 41
1.0
 50
0.0
 71
0
 42
2.5
  3
txt
  4

  0
ENDTAB
  0
TABLE
  2
VIEW
  5
7
330
0
100
AcDbSymbolTable
 70
0
  0
ENDTAB
  0
TABLE
  2
UCS
  5
6
330
0
100
AcDbSymbolTable
 70
0
  0
ENDTAB
  0
TABLE
  2
APPID
  5
3
330
0
100
AcDbSymbolTable
 70
3
  0
APPID
  5
2A
330
3
100
AcDbSymbolTableRecord
100
AcDbRegAppTableRecord
  2
ACAD
 70
0
  0
APPID
  5
31F
330
3
100
AcDbSymbolTableRecord
100
AcDbRegAppTableRecord
  2
HATCHBACKGROUNDCOLOR
 70
0
  0
APPID
  5
320
330
3
100
AcDbSymbolTableRecord
100
AcDbRegAppTableRecord
  2
EZDXF
 70
0
  0
ENDTAB
  0
TABLE
  2
DIMSTYLE
  5
4
330
0
100
AcDbSymbolTable
 70
1
100
AcDbDimStyleTable
  0
DIMSTYLE
105
2B
330
4
100
AcDbSymbolTableRecord
100
AcDbDimStyleTableRecord
  2
Standard
 70
0
 40
1.0
 41
2.5
 42
0.625
 43
3.75
 44
1.25
 45
0.0
 46
0.0
 47
0.0
 48
0.0
 49
2.5
140
2.5
141
2.5
142
0.0
143
0.03937007874
144
1.0
145
0.0
146
1.0
147
0.625
148
0.0
 69
0
 70
0
 71
0
 72
0
 73
0
 74
0
 75
0
 76
0
 77
1
 78
8
 79
3
170
0
171
3
172
1
173
0
174
0
175
0
176
0
177
0
178
0
179
2
271
2
272
2
273
2
274
3
275
0
276
0
277
2
278
44
279
0
280
0
281
0
282
0
283
0
284
8
285
0
286
0
288
0
289
3
290
0
371
-2
372
-2
  0
ENDTAB
  0
TABLE
  2
BLOCK_RECORD
  5
9
330
0
100
AcDbSymbolTable
 70
3
  0
BLOCK_RECORD
  5
17
330
9
100
AcDbSymbolTableRecord
100
AcDbBlockTableRecord
  2
*Model_Space
340
1A
 70
0
280
1
281
0
  0
BLOCK_RECORD
  5
1B
330
9
100
AcDbSymbolTableRecord
100
AcDbBlockTableRecord
  2
*Paper_Space
340
1E
 70
0
280
1
281
0
  0
BLOCK_RECORD
  5
2F
330
9
100
AcDbSymbolTableRecord
100
AcDbBlockTableRecord
  2
CD_10P-10A
340
0
 70
0
280
1
281
0
  0
ENDTAB
  0
ENDSEC
  0
SECTION
  2
BLOCKS
  0
BLOCK
  5
18
330
17
100
AcDbEntity
  8
0
100
AcDbBlockBegin
  2
*Model_Space
 70
0
 10
0.0
 20
0.0
 30
0.0
  3
*Model_Space
  1

  0
ENDBLK
  5
19
330
17
100
AcDbEntity
  8
0
100
AcDbBlockEnd
  0
BLOCK
  5
1C
330
1B
100
AcDbEntity
  8
0
100
AcDbBlockBegin
  2
*Paper_Space
 70
0
 10
0.0
 20
0.0
 30
0.0
  3
*Paper_Space
  1

  0
ENDBLK
  5
1D
330
1B
100
AcDbEntity
  8
0
100
AcDbBlockEnd
  0
BLOCK
  5
30
330
2F
100
AcDbEntity
  8
0
100
AcDbBlockBegin
  2
CD_10P-10A
 70
0
 10
0.0
 20
0.0
 30
0.0
  3
CD_10P-10A
  1

  0
ARC
  5
32
330
2F
100
AcDbEntity
  8
hw_VTP
 62
4
100
AcDbCircle
 10
72.38563269875704
 20
4.760132698757387
 30
0.0
 40
0.6586219474140103
100
AcDbArc
 50
180.0
 51
270.0
  0
ARC
  5
33
330
2F
100
AcDbEntity
  8
hw_VTP
 62
4
100
AcDbCircle
 10
72.38563269875704
 20
10.2398673012417
 30
0.0
 40
0.6586219474140103
100
AcDbArc
 50
90.0
 51
180.0
  0
LINE
  5
34
330
2F
100
AcDbEntity
  8
hw_VTP
 62
4
100
AcDbLine
 10
71.72701075134319
 20
7.025792197861392
 30
0.0
 11
73.01819675642218
 21
7.025792197861846
 31
0.0
  0
LINE
  5
35
330
2F
100
AcDbEntity
  8
hw_VTP
 62
4
100
AcDbLine
 10
71.72701075134319
 20
7.974207802137696
 30
0.0
 11
73.01819675642218
 21
7.974207802137696
 31
0.0
  0
LINE
  5
36
330
2F
100
AcDbEntity
  8
hw_VTP
 62
4
100
AcDbLine
 10
71.72701075134319
 20
-7.974207802138607
 30
0.0
 11
73.01819675642218
 21
-7.974207802138607
 31
0.0
  0
LINE
  5
37
330
2F
100
AcDbEntity
  8
hw_VTP
 62
4
100
AcDbLine
 10
71.72701075134319
 20
-7.0257921978623
 30
0.0
 11
73.01819675642218
 21
-7.0257921978623
 31
0.0
  0
ARC
  5
38
330
2F
100
AcDbEntity
  8
hw_VTP
 62
4
100
AcDbCircle
 10
72.38563269875704
 20
-10.23986730124261
 30
0.0
 40
0.6586219474140103
100
AcDbArc
 50
180.0
 51
270.0
  0
ARC
  5
39
330
2F
100
AcDbEntity
  8
hw_VTP
 62
4
100
AcDbCircle
 10
72.38563269875704
 20
-4.760132698758297
 30
0.0
 40
0.6586219474140103
100
AcDbArc
 50
90.0
 51
180.0
  0
LINE
  5
3A
330
2F
100
AcDbEntity
  8
hw_VTP
100
AcDbLine
 10
107.25
 20
12.0
 30
0.0
 11
-4.75
 21
12.0
 31
0.0
  0
LINE
  5
3B
330
2F
100
AcDbEntity
  8
hw_VTP
100
AcDbLine
 10
107.25
 20
-12.0
 30
0.0
 11
-4.75
 21
-12.0
 31
0.0
  0
LINE
  5
3C
330
2F
100
AcDbEntity
  8
hw_VTP
100
AcDbLine
 10
98.25000000000001
 20
3.0
 30
0.0
 11
4.25
 21
3.0
 31
0.0
  0
LINE
  5
3D
330
2F
100
AcDbEntity
  8
hw_VTP
100
AcDbLine
 10
98.25000000000001
 20
-3.0
 30
0.0
 11
4.25
 21
-3.0
 31
0.0
  0
LINE
  5
3E
330
2F
100
AcDbEntity
  8
hw_VTP
 62
3
100
AcDbLine
 10
52.61700000000018
 20
11.05000000000018
 30
0.0
 11
52.61700000000018
 21
3.0
 31
0.0
  0
LINE
  5
3F
330
2F
100
AcDbEntity
  8
hw_VTP
 62
3
100
AcDbLine
 10
52.41699999999945
 20
11.25000000000045
 30
0.0
 11
52.41699999999945
 21
3.0
 31
0.0
  0
LINE
  5
40
330
2F
100
AcDbEntity
  8
hw_VTP
 62
3
100
AcDbLine
 10
50.91699999999946
 20
11.25000000000045
 30
0.0
 11
50.91699999999946
 21
3.0
 31
0.0
  0
LINE
  5
41
330
2F
100
AcDbEntity
  8
hw_VTP
 62
3
100
AcDbLine
 10
50.71699999999964
 20
11.05000000000018
 30
0.0
 11
50.71699999999964
 21
3.0
 31
0.0
  0
LINE
  5
42
330
2F
100
AcDbEntity
  8
hw_VTP
 62
3
100
AcDbLine
 10
62.00039999999989
 20
11.04999999999972
 30
0.0
 11
62.00039999999989
 21
2.999999999999545
 31
0.0
  0
LINE
  5
43
330
2F
100
AcDbEntity
  8
hw_VTP
 62
3
100
AcDbLine
 10
61.80040000000007
 20
11.25
 30
0.0
 11
61.80040000000007
 21
2.999999999999545
 31
0.0
  0
LINE
  5
44
330
2F
100
AcDbEntity
  8
hw_VTP
 62
3
100
AcDbLine
 10
60.30040000000007
 20
11.25
 30
0.0
 11
60.30040000000007
 21
2.999999999999545
 31
0.0
  0
LINE
  5
45
330
2F
100
AcDbEntity
  8
hw_VTP
 62
3
100
AcDbLine
 10
60.10039999999936
 20
11.04999999999972
 30
0.0
 11
60.10039999999936
 21
2.999999999999545
 31
0.0
  0
LINE
  5
46
330
2F
100
AcDbEntity
  8
hw_VTP
 62
3
100
AcDbLine
 10
71.38379999999961
 20
11.04999999999972
 30
0.0
 11
71.38379999999961
 21
2.999999999999545
 31
0.0
  0
LINE
  5
47
330
2F
100
AcDbEntity
  8
hw_VTP
 62
3
100
AcDbLine
 10
71.1837999999998
 20
11.25
 30
0.0
 11
71.1837999999998
 21
2.999999999999545
 31
0.0
  0
LINE
  5
48
330
2F
100
AcDbEntity
  8
hw_VTP
 62
3
100
AcDbLine
 10
69.68379999999979
 20
11.25
 30
0.0
 11
69.68379999999979
 21
2.999999999999545
 31
0.0
  0
LINE
  5
49
330
2F
100
AcDbEntity
  8
hw_VTP
 62
3
100
AcDbLine
 10
69.48379999999997
 20
11.04999999999972
 30
0.0
 11
69.48379999999997
 21
2.999999999999545
 31
0.0
  0
LINE
  5
4A
330
2F
100
AcDbEntity
  8
hw_VTP
 62
4
100
AcDbLine
 10
50.37378924865606
 20
10.23986730124261
 30
0.0
 11
50.37378924865606
 21
4.760132698757387
 31
0.0
  0
CIRCLE
  5
4B
330
2F
100
AcDbEntity
  8
hw_VTP
100
AcDbCircle
 10
56.35869999999977
 20
7.5
 30
0.0
 40
2.159999999999973
  0
LINE
  5
4C
330
2F
100
AcDbEntity
  8
hw_VTP
100
AcDbLine
 10
55.57320538135536
 20
7.849108719397462
 30
0.0
 11
54.62882195197289
 21
8.793492148779931
 31
0.0
  0
LINE
  5
4D
330
2F
100
AcDbEntity
  8
hw_VTP
100
AcDbLine
 10
57.40602615819079
 20
8.110940258944991
 30
0.0
 11
57.14419461864327
 21
7.849108719397462
 31
0.0
  0
LINE
  5
4E
330
2F
100
AcDbEntity
  8
hw_VTP
 62
4
100
AcDbLine
 10
52.96021075134376
 20
4.760132698757843
 30
0.0
 11
52.96021075134376
 21
10.23986730124261
 31
0.0
  0
LINE
  5
4F
330
2F
100
AcDbEntity
  8
hw_VTP
 62
4
100
AcDbLine
 10
59.75718924865578
 20
10.23986730124261
 30
0.0
 11
59.75718924865578
 21
4.760132698757387
 31
0.0
  0
CIRCLE
  5
50
330
2F
100
AcDbEntity
  8
hw_VTP
100
AcDbCircle
 10
65.74209999999948
 20
7.499999999999544
 30
0.0
 40
2.159999999999973
  0
LINE
  5
51
330
2F
100
AcDbEntity
  8
hw_VTP
100
AcDbLine
 10
64.95660538135598
 20
7.849108719397007
 30
0.0
 11
64.0122219519726
 21
8.793492148779931
 31
0.0
  0
LINE
  5
52
330
2F
100
AcDbEntity
  8
hw_VTP
100
AcDbLine
 10
66.78942615819142
 20
8.110940258944991
 30
0.0
 11
66.52759461864298
 21
7.849108719397007
 31
0.0
  0
LINE
  5
53
330
2F
100
AcDbEntity
  8
hw_VTP
 62
4
100
AcDbLine
 10
62.34361075134348
 20
4.760132698757387
 30
0.0
 11
62.34361075134348
 21
10.23986730124216
 31
0.0
  0
LINE
  5
54
330
2F
100
AcDbEntity
  8
hw_VTP
 62
4
100
AcDbLine
 10
69.14058924865549
 20
10.23986730124216
 30
0.0
 11
69.14058924865638
 21
4.760132698757387
 31
0.0
  0
LINE
  5
55
330
2F
100
AcDbEntity
  8
hw_VTP
 62
4
100
AcDbLine
 10
71.72701075134319
 20
4.760132698757387
 30
0.0
 11
71.72701075134319
 21
10.2398673012417
 31
0.0
  0
LINE
  5
56
330
2F
100
AcDbEntity
  8
hw_VTP
 62
3
100
AcDbLine
 10
33.85019999999986
 20
11.05000000000018
 30
0.0
 11
33.85019999999986
 21
3.0
 31
0.0
  0
LINE
  5
57
330
2F
100
AcDbEntity
  8
hw_VTP
 62
3
100
AcDbLine
 10
33.65020000000004
 20
11.25000000000045
 30
0.0
 11
33.65020000000004
 21
3.0
 31
0.0
  0
LINE
  5
58
330
2F
100
AcDbEntity
  8
hw_VTP
 62
3
100
AcDbLine
 10
32.15020000000004
 20
11.25000000000045
 30
0.0
 11
32.15020000000004
 21
3.0
 31
0.0
  0
LINE
  5
59
330
2F
100
AcDbEntity
  8
hw_VTP
 62
3
100
AcDbLine
 10
31.95020000000023
 20
11.05000000000018
 30
0.0
 11
31.95019999999932
 21
3.0
 31
0.0
  0
LINE
  5
5A
330
2F
100
AcDbEntity
  8
hw_VTP
 62
3
100
AcDbLine
 10
43.23359999999957
 20
11.05000000000018
 30
0.0
 11
43.23359999999957
 21
3.0
 31
0.0
  0
LINE
  5
5B
330
2F
100
AcDbEntity
  8
hw_VTP
 62
3
100
AcDbLine
 10
43.03359999999975
 20
11.25000000000045
 30
0.0
 11
43.03359999999975
 21
3.0
 31
0.0
  0
LINE
  5
5C
330
2F
100
AcDbEntity
  8
hw_VTP
 62
3
100
AcDbLine
 10
41.53359999999975
 20
11.25000000000045
 30
0.0
 11
41.53359999999975
 21
3.0
 31
0.0
  0
LINE
  5
5D
330
2F
100
AcDbEntity
  8
hw_VTP
 62
3
100
AcDbLine
 10
41.33359999999992
 20
11.05000000000018
 30
0.0
 11
41.33359999999992
 21
3.0
 31
0.0
  0
CIRCLE
  5
5E
330
2F
100
AcDbEntity
  8
hw_VTP
100
AcDbCircle
 10
28.20849999999973
 20
7.5
 30
0.0
 40
2.159999999999973
  0
LINE
  5
5F
330
2F
100
AcDbEntity
  8
hw_VTP
100
AcDbLine
 10
27.42300538135623
 20
7.849108719397462
 30
0.0
 11
26.47862195197376
 21
8.793492148779931
 31
0.0
  0
LINE
  5
60
330
2F
100
AcDbEntity
  8
hw_VTP
100
AcDbLine
 10
29.25582615819167
 20
8.110940258944991
 30
0.0
 11
28.99399461864414
 21
7.849108719397462
 31
0.0
  0
LINE
  5
61
330
2F
100
AcDbEntity
  8
hw_VTP
 62
4
100
AcDbLine
 10
31.60698924865574
 20
10.23986730124261
 30
0.0
 11
31.60698924865574
 21
4.760132698757387
 31
0.0
  0
CIRCLE
  5
62
330
2F
100
AcDbEntity
  8
hw_VTP
100
AcDbCircle
 10
37.59189999999943
 20
7.5
 30
0.0
 40
2.159999999999973
  0
LINE
  5
63
330
2F
100
AcDbEntity
  8
hw_VTP
100
AcDbLine
 10
36.80640538135595
 20
7.849108719397462
 30
0.0
 11
35.86202195197348
 21
8.793492148779931
 31
0.0
  0
LINE
  5
64
330
2F
100
AcDbEntity
  8
hw_VTP
100
AcDbLine
 10
38.63922615819138
 20
8.110940258944991
 30
0.0
 11
38.37739461864385
 21
7.849108719397462
 31
0.0
  0
LINE
  5
65
330
2F
100
AcDbEntity
  8
hw_VTP
 62
4
100
AcDbLine
 10
34.19341075134344
 20
4.760132698757843
 30
0.0
 11
34.19341075134344
 21
10.23986730124261
 31
0.0
  0
LINE
  5
66
330
2F
100
AcDbEntity
  8
hw_VTP
 62
4
100
AcDbLine
 10
40.99038924865634
 20
10.23986730124261
 30
0.0
 11
40.99038924865634
 21
4.760132698757387
 31
0.0
  0
LINE
  5
67
330
2F
100
AcDbEntity
  8
hw_VTP
100
AcDbLine
 10
46.18980538135565
 20
7.849108719397462
 30
0.0
 11
45.24542195197319
 21
8.793492148779931
 31
0.0
  0
LINE
  5
68
330
2F
100
AcDbEntity
  8
hw_VTP
100
AcDbLine
 10
48.02262615819199
 20
8.110940258944991
 30
0.0
 11
47.76079461864354
 21
7.849108719397462
 31
0.0
  0
LINE
  5
69
330
2F
100
AcDbEntity
  8
hw_VTP
 62
4
100
AcDbLine
 10
43.57681075134315
 20
4.760132698757843
 30
0.0
 11
43.57681075134315
 21
10.23986730124261
 31
0.0
  0
LINE
  5
6A
330
2F
100
AcDbEntity
  8
hw_VTP
 62
3
100
AcDbLine
 10
13.38340000000062
 20
11.25000000000045
 30
0.0
 11
13.38340000000062
 21
3.0
 31
0.0
  0
LINE
  5
6B
330
2F
100
AcDbEntity
  8
hw_VTP
 62
3
100
AcDbLine
 10
14.88340000000062
 20
11.25000000000045
 30
0.0
 11
14.88340000000062
 21
3.0
 31
0.0
  0
LINE
  5
6C
330
2F
100
AcDbEntity
  8
hw_VTP
 62
3
100
AcDbLine
 10
15.08339999999953
 20
11.05000000000018
 30
0.0
 11
15.08339999999953
 21
3.0
 31
0.0
  0
LINE
  5
6D
330
2F
100
AcDbEntity
  8
hw_VTP
 62
3
100
AcDbLine
 10
13.18339999999989
 20
11.05000000000018
 30
0.0
 11
13.18339999999989
 21
3.0
 31
0.0
  0
LINE
  5
6E
330
2F
100
AcDbEntity
  8
hw_VTP
 62
3
100
AcDbLine
 10
22.56680000000051
 20
11.05000000000018
 30
0.0
 11
22.56680000000051
 21
3.0
 31
0.0
  0
LINE
  5
6F
330
2F
100
AcDbEntity
  8
hw_VTP
 62
3
100
AcDbLine
 10
22.76679999999942
 20
11.25000000000045
 30
0.0
 11
22.76679999999942
 21
3.0
 31
0.0
  0
LINE
  5
70
330
2F
100
AcDbEntity
  8
hw_VTP
 62
3
100
AcDbLine
 10
24.26679999999942
 20
11.25000000000045
 30
0.0
 11
24.26679999999942
 21
3.0
 31
0.0
  0
LINE
  5
71
330
2F
100
AcDbEntity
  8
hw_VTP
 62
3
100
AcDbLine
 10
24.46680000000015
 20
11.05000000000018
 30
0.0
 11
24.46680000000015
 21
3.0
 31
0.0
  0
CIRCLE
  5
72
330
2F
100
AcDbEntity
  8
hw_VTP
100
AcDbCircle
 10
8.849052941176524
 20
7.5
 30
0.0
 40
2.159999999999973
  0
LINE
  5
73
330
2F
100
AcDbEntity
  8
hw_VTP
100
AcDbLine
 10
8.063558322532117
 20
7.849108719397462
 30
0.0
 11
7.119174893149647
 21
8.793492148779931
 31
0.0
  0
LINE
  5
74
330
2F
100
AcDbEntity
  8
hw_VTP
 62
4
100
AcDbLine
 10
5.450563692520518
 20
4.760132698757843
 30
0.0
 11
5.450563692520518
 21
10.23986730124261
 31
0.0
  0
LINE
  5
75
330
2F
100
AcDbEntity
  8
hw_VTP
 62
4
100
AcDbLine
 10
12.24754218983253
 20
10.23986730124261
 30
0.0
 11
12.24754218983253
 21
4.760132698757387
 31
0.0
  0
LINE
  5
76
330
2F
100
AcDbEntity
  8
hw_VTP
100
AcDbLine
 10
9.89637909936755
 20
8.110940258944991
 30
0.0
 11
9.63454755982002
 21
7.849108719397462
 31
0.0
  0
LINE
  5
77
330
2F
100
AcDbEntity
  8
hw_VTP
 62
4
100
AcDbLine
 10
22.22358924865603
 20
10.23986730124261
 30
0.0
 11
22.22358924865603
 21
4.760132698757387
 31
0.0
  0
LINE
  5
78
330
2F
100
AcDbEntity
  8
hw_VTP
 62
4
100
AcDbLine
 10
15.4266107513431
 20
4.760132698757843
 30
0.0
 11
15.4266107513431
 21
10.23986730124261
 31
0.0
  0
LINE
  5
79
330
2F
100
AcDbEntity
  8
hw_VTP
100
AcDbLine
 10
19.87242615819196
 20
8.110940258944991
 30
0.0
 11
19.61059461864351
 21
7.849108719397462
 31
0.0
  0
LINE
  5
7A
330
2F
100
AcDbEntity
  8
hw_VTP
100
AcDbLine
 10
18.03960538135652
 20
7.849108719397462
 30
0.0
 11
17.09522195197314
 21
8.793492148779931
 31
0.0
  0
CIRCLE
  5
7B
330
2F
100
AcDbEntity
  8
hw_VTP
100
AcDbCircle
 10
18.82510000000002
 20
7.5
 30
0.0
 40
2.159999999999973
  0
LINE
  5
7C
330
2F
100
AcDbEntity
  8
hw_VTP
 62
4
100
AcDbLine
 10
24.81001075134372
 20
4.760132698757843
 30
0.0
 11
24.81001075134372
 21
10.23986730124261
 31
0.0
  0
CIRCLE
  5
7D
330
2F
100
AcDbEntity
  8
hw_VTP
100
AcDbCircle
 10
46.97530000000006
 20
7.5
 30
0.0
 40
2.159999999999973
  0
LINE
  5
7E
330
2F
100
AcDbEntity
  8
hw_VTP
100
AcDbLine
 10
-4.75
 20
12.0
 30
0.0
 11
-4.75
 21
-12.0
 31
0.0
  0
LINE
  5
7F
330
2F
100
AcDbEntity
  8
hw_VTP
100
AcDbLine
 10
4.25
 20
-12.0
 30
0.0
 11
4.25
 21
12.0
 31
0.0
  0
ARC
  5
80
330
2F
100
AcDbEntity
  8
hw_VTP
 62
3
100
AcDbCircle
 10
14.13340000000062
 20
-11.25000000000045
 30
0.0
 40
0.75
100
AcDbArc
 50
180.0
 51
0.0
  0
ARC
  5
81
330
2F
100
AcDbEntity
  8
hw_VTP
 62
3
100
AcDbCircle
 10
14.13340000000062
 20
-11.05000000000018
 30
0.0
 40
0.95
100
AcDbArc
 50
180.0
 51
0.0
  0
LINE
  5
82
330
2F
100
AcDbEntity
  8
hw_VTP
 62
4
100
AcDbLine
 10
11.58892024241868
 20
4.101510751343538
 30
0.0
 11
6.109185639934366
 21
4.101510751343538
 31
0.0
  0
LINE
  5
83
330
2F
100
AcDbEntity
  8
hw_VTP
100
AcDbLine
 10
8.238112682231076
 20
6.452673841808517
 30
0.0
 11
7.801726782984587
 21
6.889059741055008
 31
0.0
  0
LINE
  5
84
330
2F
100
AcDbEntity
  8
hw_VTP
100
AcDbLine
 10
8.063558322532117
 20
7.150891280602536
 30
0.0
 11
7.801726782984587
 21
6.889059741055008
 31
0.0
  0
ARC
  5
85
330
2F
100
AcDbEntity
  8
hw_VTP
 62
4
100
AcDbCircle
 10
6.109185639934366
 20
4.760132698757843
 30
0.0
 40
0.6586219474140103
100
AcDbArc
 50
180.0
 51
270.0
  0
LINE
  5
86
330
2F
100
AcDbEntity
  8
hw_VTP
 62
4
100
AcDbLine
 10
5.450563692520518
 20
7.025792197861846
 30
0.0
 11
6.741749697599517
 21
7.0257921978623
 31
0.0
  0
ARC
  5
87
330
2F
100
AcDbEntity
  8
hw_VTP
 62
4
100
AcDbCircle
 10
11.58892024241868
 20
4.760132698757387
 30
0.0
 40
0.6586219474140103
100
AcDbArc
 50
270.0
 51
0.0
  0
LINE
  5
88
330
2F
100
AcDbEntity
  8
hw_VTP
100
AcDbLine
 10
10.14254508995691
 20
5.770121951973577
 30
0.0
 11
9.198161660573534
 21
6.714505381356047
 31
0.0
  0
LINE
  5
89
330
2F
100
AcDbEntity
  8
hw_VTP
100
AcDbLine
 10
10.57893098920249
 20
6.206507851220067
 30
0.0
 11
9.63454755982002
 21
7.150891280602536
 31
0.0
  0
LINE
  5
8A
330
2F
100
AcDbEntity
  8
hw_VTP
100
AcDbLine
 10
8.499944221779513
 20
6.714505381356047
 30
0.0
 11
8.238112682231076
 21
6.452673841808517
 31
0.0
  0
ARC
  5
8B
330
2F
100
AcDbEntity
  8
hw_VTP
100
AcDbCircle
 10
8.849052941176524
 20
6.365396661959039
 30
0.0
 40
0.4937142857142798
100
AcDbArc
 50
44.99999999999078
 51
134.9999999999908
  0
ARC
  5
8C
330
2F
100
AcDbEntity
  8
hw_VTP
100
AcDbCircle
 10
7.714449603136017
 20
7.5
 30
0.0
 40
0.4937142857142798
100
AcDbArc
 50
314.9999999999908
 51
45.00000000000921
  0
ARC
  5
8D
330
2F
100
AcDbEntity
  8
hw_VTP
100
AcDbCircle
 10
9.983656279217028
 20
7.5
 30
0.0
 40
0.4937142857142798
100
AcDbArc
 50
134.9999999999908
 51
225.0000000000092
  0
LINE
  5
8E
330
2F
100
AcDbEntity
  8
hw_VTP
 62
4
100
AcDbLine
 10
12.24754218983253
 20
7.0257921978623
 30
0.0
 11
10.95635618475353
 21
7.025792197861846
 31
0.0
  0
LINE
  5
8F
330
2F
100
AcDbEntity
  8
hw_VTP
 62
4
100
AcDbLine
 10
9.323260743314677
 20
4.101510751343538
 30
0.0
 11
9.323260743314677
 21
5.392696756422537
 31
0.0
  0
LINE
  5
90
330
2F
100
AcDbEntity
  8
hw_VTP
 62
4
100
AcDbLine
 10
8.374845139038367
 20
4.101510751343538
 30
0.0
 11
8.374845139038367
 21
5.392696756422537
 31
0.0
  0
ARC
  5
91
330
2F
100
AcDbEntity
  8
hw_VTP
 62
4
100
AcDbCircle
 10
0.0
 20
0.0
 30
0.0
 40
2.75
100
AcDbArc
 50
313.3417582272223
 51
46.65824177277765
  0
LINE
  5
92
330
2F
100
AcDbEntity
  8
hw_VTP
 62
4
100
AcDbLine
 10
1.887458608817723
 20
2.0
 30
0.0
 11
-1.887458608817723
 21
2.0
 31
0.0
  0
LINE
  5
93
330
2F
100
AcDbEntity
  8
hw_VTP
 62
4
100
AcDbLine
 10
1.887458608817723
 20
-2.0
 30
0.0
 11
-1.887458608817723
 21
-2.0
 31
0.0
  0
ARC
  5
94
330
2F
100
AcDbEntity
  8
hw_VTP
 62
4
100
AcDbCircle
 10
0.0
 20
0.0
 30
0.0
 40
2.75
100
AcDbArc
 50
133.3417582272223
 51
226.6582417727776
  0
LINE
  5
95
330
2F
100
AcDbEntity
  8
hw_VTP
 62
4
100
AcDbLine
 10
8.374845139038367
 20
-4.101510751343538
 30
0.0
 11
8.374845139038367
 21
-5.392696756422537
 31
0.0
  0
LINE
  5
96
330
2F
100
AcDbEntity
  8
hw_VTP
 62
4
100
AcDbLine
 10
9.323260743314677
 20
-4.101510751343538
 30
0.0
 11
9.323260743314677
 21
-5.392696756422537
 31
0.0
  0
LINE
  5
97
330
2F
100
AcDbEntity
  8
hw_VTP
 62
4
100
AcDbLine
 10
12.24754218983253
 20
-7.0257921978623
 30
0.0
 11
10.95635618475353
 21
-7.025792197861846
 31
0.0
  0
LINE
  5
98
330
2F
100
AcDbEntity
  8
hw_VTP
 62
4
100
AcDbLine
 10
12.24754218983253
 20
-7.974207802138607
 30
0.0
 11
10.95635618475353
 21
-7.974207802137696
 31
0.0
  0
LINE
  5
99
330
2F
100
AcDbEntity
  8
hw_VTP
 62
4
100
AcDbLine
 10
8.374845139038367
 20
-10.89848924865646
 30
0.0
 11
8.374845139038367
 21
-9.607303243577462
 31
0.0
  0
LINE
  5
9A
330
2F
100
AcDbEntity
  8
hw_VTP
 62
4
100
AcDbLine
 10
9.323260743314677
 20
-10.89848924865646
 30
0.0
 11
9.323260743314677
 21
-9.607303243577462
 31
0.0
  0
ARC
  5
9B
330
2F
100
AcDbEntity
  8
hw_VTP
 62
4
100
AcDbCircle
 10
11.58892024241868
 20
-10.23986730124261
 30
0.0
 40
0.6586219474140103
100
AcDbArc
 50
270.0
 51
0.0
  0
LINE
  5
9C
330
2F
100
AcDbEntity
  8
hw_VTP
 62
4
100
AcDbLine
 10
12.24754218983253
 20
-10.23986730124261
 30
0.0
 11
12.24754218983253
 21
-4.760132698757387
 31
0.0
  0
ARC
  5
9D
330
2F
100
AcDbEntity
  8
hw_VTP
 62
4
100
AcDbCircle
 10
11.58892024241868
 20
-4.760132698757387
 30
0.0
 40
0.6586219474140103
100
AcDbArc
 50
0.0
 51
90.0
  0
LINE
  5
9E
330
2F
100
AcDbEntity
  8
hw_VTP
 62
4
100
AcDbLine
 10
5.450563692520518
 20
-7.974207802138152
 30
0.0
 11
6.741749697599517
 21
-7.974207802138152
 31
0.0
  0
LINE
  5
9F
330
2F
100
AcDbEntity
  8
hw_VTP
 62
4
100
AcDbLine
 10
5.450563692520518
 20
-7.025792197861846
 30
0.0
 11
6.741749697599517
 21
-7.0257921978623
 31
0.0
  0
ARC
  5
A0
330
2F
100
AcDbEntity
  8
hw_VTP
 62
4
100
AcDbCircle
 10
6.109185639934366
 20
-10.23986730124261
 30
0.0
 40
0.6586219474140103
100
AcDbArc
 50
180.0
 51
270.0
  0
LINE
  5
A1
330
2F
100
AcDbEntity
  8
hw_VTP
 62
4
100
AcDbLine
 10
5.450563692520518
 20
-4.760132698757843
 30
0.0
 11
5.450563692520518
 21
-10.23986730124261
 31
0.0
  0
ARC
  5
A2
330
2F
100
AcDbEntity
  8
hw_VTP
 62
4
100
AcDbCircle
 10
6.109185639934366
 20
-4.760132698757843
 30
0.0
 40
0.6586219474140103
100
AcDbArc
 50
90.0
 51
180.0
  0
LINE
  5
A3
330
2F
100
AcDbEntity
  8
hw_VTP
 62
4
100
AcDbLine
 10
6.109185639934366
 20
-10.89848924865646
 30
0.0
 11
11.58892024241868
 21
-10.89848924865646
 31
0.0
  0
LINE
  5
A4
330
2F
100
AcDbEntity
  8
hw_VTP
 62
4
100
AcDbLine
 10
11.58892024241868
 20
-4.101510751343538
 30
0.0
 11
6.109185639934366
 21
-4.101510751343538
 31
0.0
  0
LINE
  5
A5
330
2F
100
AcDbEntity
  8
hw_VTP
100
AcDbLine
 10
10.14254508995691
 20
-5.770121951973577
 30
0.0
 11
9.198161660573534
 21
-6.714505381356047
 31
0.0
  0
LINE
  5
A6
330
2F
100
AcDbEntity
  8
hw_VTP
100
AcDbLine
 10
10.57893098920249
 20
-6.206507851220067
 30
0.0
 11
9.63454755982002
 21
-7.150891280602536
 31
0.0
  0
LINE
  5
A7
330
2F
100
AcDbEntity
  8
hw_VTP
100
AcDbLine
 10
9.89637909936755
 20
-8.110940258944991
 30
0.0
 11
9.459993200121973
 21
-8.547326158191481
 31
0.0
  0
LINE
  5
A8
330
2F
100
AcDbEntity
  8
hw_VTP
100
AcDbLine
 10
9.89637909936755
 20
-8.110940258944991
 30
0.0
 11
9.63454755982002
 21
-7.849108719397462
 31
0.0
  0
LINE
  5
A9
330
2F
100
AcDbEntity
  8
hw_VTP
100
AcDbLine
 10
9.459993200121973
 20
-8.547326158191481
 30
0.0
 11
9.198161660573534
 21
-8.28549461864395
 31
0.0
  0
ARC
  5
AA
330
2F
100
AcDbEntity
  8
hw_VTP
100
AcDbCircle
 10
8.849052941176524
 20
-8.634603338040959
 30
0.0
 40
0.4937142857142798
100
AcDbArc
 50
45.00000000000921
 51
134.9999999999908
  0
LINE
  5
AB
330
2F
100
AcDbEntity
  8
hw_VTP
100
AcDbLine
 10
8.238112682231076
 20
-6.452673841808517
 30
0.0
 11
7.801726782984587
 21
-6.889059741055008
 31
0.0
  0
LINE
  5
AC
330
2F
100
AcDbEntity
  8
hw_VTP
100
AcDbLine
 10
8.063558322532117
 20
-7.150891280602536
 30
0.0
 11
7.801726782984587
 21
-6.889059741055008
 31
0.0
  0
LINE
  5
AD
330
2F
100
AcDbEntity
  8
hw_VTP
100
AcDbLine
 10
8.499944221779513
 20
-6.714505381356047
 30
0.0
 11
8.238112682231076
 21
-6.452673841808517
 31
0.0
  0
ARC
  5
AE
330
2F
100
AcDbEntity
  8
hw_VTP
100
AcDbCircle
 10
8.849052941176524
 20
-6.365396661959039
 30
0.0
 40
0.4937142857142798
100
AcDbArc
 50
225.0000000000092
 51
315.0000000000092
  0
ARC
  5
AF
330
2F
100
AcDbEntity
  8
hw_VTP
100
AcDbCircle
 10
9.983656279217028
 20
-7.5
 30
0.0
 40
0.4937142857142798
100
AcDbArc
 50
134.9999999999908
 51
225.0000000000092
  0
ARC
  5
B0
330
2F
100
AcDbEntity
  8
hw_VTP
100
AcDbCircle
 10
7.714449603136017
 20
-7.5
 30
0.0
 40
0.4937142857142798
100
AcDbArc
 50
314.9999999999908
 51
45.00000000000921
  0
LINE
  5
B1
330
2F
100
AcDbEntity
  8
hw_VTP
100
AcDbLine
 10
8.063558322532117
 20
-7.849108719397462
 30
0.0
 11
7.119174893149647
 21
-8.793492148779931
 31
0.0
  0
LINE
  5
B2
330
2F
100
AcDbEntity
  8
hw_VTP
100
AcDbLine
 10
8.499944221779513
 20
-8.28549461864395
 30
0.0
 11
7.555560792396136
 21
-9.22987804802642
 31
0.0
  0
CIRCLE
  5
B3
330
2F
100
AcDbEntity
  8
hw_VTP
100
AcDbCircle
 10
8.849052941176524
 20
-7.5
 30
0.0
 40
2.159999999999973
  0
LINE
  5
B4
330
2F
100
AcDbEntity
  8
hw_VTP
 62
3
100
AcDbLine
 10
13.38340000000062
 20
-11.25000000000045
 30
0.0
 11
13.38340000000062
 21
-3.0
 31
0.0
  0
LINE
  5
B5
330
2F
100
AcDbEntity
  8
hw_VTP
 62
3
100
AcDbLine
 10
13.18339999999989
 20
-11.05000000000018
 30
0.0
 11
13.18339999999989
 21
-3.0
 31
0.0
  0
CIRCLE
  5
B6
330
2F
100
AcDbEntity
  8
hw_VTP
 62
4
100
AcDbCircle
 10
0.0
 20
0.0
 30
0.0
 40
3.5
  0
ARC
  5
B7
330
2F
100
AcDbEntity
  8
hw_VTP
 62
4
100
AcDbCircle
 10
49.71516730124221
 20
4.760132698757387
 30
0.0
 40
0.6586219474140103
100
AcDbArc
 50
270.0
 51
0.0
  0
LINE
  5
B8
330
2F
100
AcDbEntity
  8
hw_VTP
 62
4
100
AcDbLine
 10
50.37378924865606
 20
7.0257921978623
 30
0.0
 11
49.08260324357707
 21
7.025792197861846
 31
0.0
  0
ARC
  5
B9
330
2F
100
AcDbEntity
  8
hw_VTP
100
AcDbCircle
 10
55.22409666195926
 20
7.5
 30
0.0
 40
0.4937142857142798
100
AcDbArc
 50
314.9999999999908
 51
45.00000000000921
  0
ARC
  5
BA
330
2F
100
AcDbEntity
  8
hw_VTP
100
AcDbCircle
 10
57.49330333804028
 20
7.5
 30
0.0
 40
0.4937142857142798
100
AcDbArc
 50
134.9999999999908
 51
225.0000000000092
  0
ARC
  5
BB
330
2F
100
AcDbEntity
  8
hw_VTP
100
AcDbCircle
 10
56.35869999999977
 20
6.365396661959039
 30
0.0
 40
0.4937142857142798
100
AcDbArc
 50
44.99999999999078
 51
134.9999999999908
  0
LINE
  5
BC
330
2F
100
AcDbEntity
  8
hw_VTP
100
AcDbLine
 10
56.00959128060276
 20
6.714505381356047
 30
0.0
 11
55.74775974105431
 21
6.452673841808517
 31
0.0
  0
LINE
  5
BD
330
2F
100
AcDbEntity
  8
hw_VTP
100
AcDbLine
 10
55.57320538135536
 20
7.150891280602536
 30
0.0
 11
55.31137384180784
 21
6.889059741055008
 31
0.0
  0
LINE
  5
BE
330
2F
100
AcDbEntity
  8
hw_VTP
100
AcDbLine
 10
55.74775974105431
 20
6.452673841808517
 30
0.0
 11
55.31137384180784
 21
6.889059741055008
 31
0.0
  0
LINE
  5
BF
330
2F
100
AcDbEntity
  8
hw_VTP
100
AcDbLine
 10
58.08857804802574
 20
6.206507851220067
 30
0.0
 11
57.14419461864327
 21
7.150891280602536
 31
0.0
  0
LINE
  5
C0
330
2F
100
AcDbEntity
  8
hw_VTP
100
AcDbLine
 10
57.65219214878015
 20
5.770121951973577
 30
0.0
 11
56.70780871939678
 21
6.714505381356047
 31
0.0
  0
LINE
  5
C1
330
2F
100
AcDbEntity
  8
hw_VTP
 62
4
100
AcDbLine
 10
59.09856730124193
 20
4.101510751343538
 30
0.0
 11
53.61883269875761
 21
4.101510751343538
 31
0.0
  0
ARC
  5
C2
330
2F
100
AcDbEntity
  8
hw_VTP
 62
4
100
AcDbCircle
 10
53.61883269875761
 20
4.760132698757843
 30
0.0
 40
0.6586219474140103
100
AcDbArc
 50
180.0
 51
270.0
  0
LINE
  5
C3
330
2F
100
AcDbEntity
  8
hw_VTP
 62
4
100
AcDbLine
 10
52.96021075134376
 20
7.025792197861846
 30
0.0
 11
54.25139675642276
 21
7.0257921978623
 31
0.0
  0
ARC
  5
C4
330
2F
100
AcDbEntity
  8
hw_VTP
 62
4
100
AcDbCircle
 10
59.09856730124193
 20
4.760132698757387
 30
0.0
 40
0.6586219474140103
100
AcDbArc
 50
270.0
 51
0.0
  0
LINE
  5
C5
330
2F
100
AcDbEntity
  8
hw_VTP
 62
4
100
AcDbLine
 10
59.75718924865578
 20
7.0257921978623
 30
0.0
 11
58.46600324357678
 21
7.025792197861846
 31
0.0
  0
LINE
  5
C6
330
2F
100
AcDbEntity
  8
hw_VTP
 62
4
100
AcDbLine
 10
56.83290780213791
 20
4.101510751343538
 30
0.0
 11
56.83290780213791
 21
5.392696756422537
 31
0.0
  0
LINE
  5
C7
330
2F
100
AcDbEntity
  8
hw_VTP
 62
4
100
AcDbLine
 10
55.88449219786161
 20
4.101510751343538
 30
0.0
 11
55.88449219786161
 21
5.392696756422537
 31
0.0
  0
ARC
  5
C8
330
2F
100
AcDbEntity
  8
hw_VTP
100
AcDbCircle
 10
64.60749666195807
 20
7.499999999999544
 30
0.0
 40
0.4937142857142798
100
AcDbArc
 50
314.9999999999908
 51
45.00000000000921
  0
ARC
  5
C9
330
2F
100
AcDbEntity
  8
hw_VTP
100
AcDbCircle
 10
66.87670333804088
 20
7.499999999999544
 30
0.0
 40
0.4937142857142798
100
AcDbArc
 50
134.9999999999908
 51
225.0000000000092
  0
ARC
  5
CA
330
2F
100
AcDbEntity
  8
hw_VTP
100
AcDbCircle
 10
65.74209999999948
 20
6.365396661958583
 30
0.0
 40
0.4937142857142798
100
AcDbArc
 50
44.99999999999078
 51
134.9999999999908
  0
LINE
  5
CB
330
2F
100
AcDbEntity
  8
hw_VTP
100
AcDbLine
 10
65.39299128060246
 20
6.714505381356047
 30
0.0
 11
65.13115974105493
 21
6.452673841808064
 31
0.0
  0
LINE
  5
CC
330
2F
100
AcDbEntity
  8
hw_VTP
100
AcDbLine
 10
64.95660538135598
 20
7.150891280602536
 30
0.0
 11
64.69477384180755
 21
6.889059741054552
 31
0.0
  0
LINE
  5
CD
330
2F
100
AcDbEntity
  8
hw_VTP
100
AcDbLine
 10
65.13115974105493
 20
6.452673841808064
 30
0.0
 11
64.69477384180755
 21
6.889059741054552
 31
0.0
  0
LINE
  5
CE
330
2F
100
AcDbEntity
  8
hw_VTP
100
AcDbLine
 10
67.47197804802634
 20
6.206507851219612
 30
0.0
 11
66.52759461864298
 21
7.150891280602536
 31
0.0
  0
LINE
  5
CF
330
2F
100
AcDbEntity
  8
hw_VTP
100
AcDbLine
 10
67.03559214877896
 20
5.770121951973122
 30
0.0
 11
66.0912087193974
 21
6.714505381356047
 31
0.0
  0
LINE
  5
D0
330
2F
100
AcDbEntity
  8
hw_VTP
 62
4
100
AcDbLine
 10
68.48196730124255
 20
4.101510751343538
 30
0.0
 11
63.00223269875733
 21
4.101510751343538
 31
0.0
  0
ARC
  5
D1
330
2F
100
AcDbEntity
  8
hw_VTP
 62
4
100
AcDbCircle
 10
63.00223269875733
 20
4.760132698757387
 30
0.0
 40
0.6586219474140103
100
AcDbArc
 50
180.0
 51
270.0
  0
LINE
  5
D2
330
2F
100
AcDbEntity
  8
hw_VTP
 62
4
100
AcDbLine
 10
62.34361075134348
 20
7.025792197861392
 30
0.0
 11
63.63479675642247
 21
7.025792197861846
 31
0.0
  0
ARC
  5
D3
330
2F
100
AcDbEntity
  8
hw_VTP
 62
4
100
AcDbCircle
 10
68.48196730124255
 20
4.760132698757387
 30
0.0
 40
0.6586219474140103
100
AcDbArc
 50
270.0
 51
0.0
  0
LINE
  5
D4
330
2F
100
AcDbEntity
  8
hw_VTP
 62
4
100
AcDbLine
 10
69.14058924865638
 20
7.025792197861846
 30
0.0
 11
67.8494032435774
 21
7.025792197861392
 31
0.0
  0
LINE
  5
D5
330
2F
100
AcDbEntity
  8
hw_VTP
 62
4
100
AcDbLine
 10
66.21630780213764
 20
4.101510751343538
 30
0.0
 11
66.21630780213764
 21
5.392696756422537
 31
0.0
  0
LINE
  5
D6
330
2F
100
AcDbEntity
  8
hw_VTP
 62
4
100
AcDbLine
 10
65.26789219786133
 20
4.101510751343538
 30
0.0
 11
65.26789219786222
 21
5.392696756422537
 31
0.0
  0
ARC
  5
D7
330
2F
100
AcDbEntity
  8
hw_VTP
100
AcDbCircle
 10
27.07389666195922
 20
7.5
 30
0.0
 40
0.4937142857142798
100
AcDbArc
 50
314.9999999999908
 51
45.00000000000921
  0
ARC
  5
D8
330
2F
100
AcDbEntity
  8
hw_VTP
100
AcDbCircle
 10
29.34310333804115
 20
7.5
 30
0.0
 40
0.4937142857142798
100
AcDbArc
 50
134.9999999999908
 51
225.0000000000092
  0
ARC
  5
D9
330
2F
100
AcDbEntity
  8
hw_VTP
100
AcDbCircle
 10
28.20849999999973
 20
6.365396661959039
 30
0.0
 40
0.4937142857142798
100
AcDbArc
 50
44.99999999999078
 51
134.9999999999908
  0
LINE
  5
DA
330
2F
100
AcDbEntity
  8
hw_VTP
100
AcDbLine
 10
27.85939128060272
 20
6.714505381356047
 30
0.0
 11
27.59755974105428
 21
6.452673841808517
 31
0.0
  0
LINE
  5
DB
330
2F
100
AcDbEntity
  8
hw_VTP
100
AcDbLine
 10
27.42300538135623
 20
7.150891280602536
 30
0.0
 11
27.16117384180871
 21
6.889059741055008
 31
0.0
  0
LINE
  5
DC
330
2F
100
AcDbEntity
  8
hw_VTP
100
AcDbLine
 10
27.59755974105428
 20
6.452673841808517
 30
0.0
 11
27.16117384180871
 21
6.889059741055008
 31
0.0
  0
LINE
  5
DD
330
2F
100
AcDbEntity
  8
hw_VTP
100
AcDbLine
 10
29.93837804802661
 20
6.206507851220067
 30
0.0
 11
28.99399461864414
 21
7.150891280602536
 31
0.0
  0
LINE
  5
DE
330
2F
100
AcDbEntity
  8
hw_VTP
100
AcDbLine
 10
29.50199214878012
 20
5.770121951973577
 30
0.0
 11
28.55760871939674
 21
6.714505381356047
 31
0.0
  0
ARC
  5
DF
330
2F
100
AcDbEntity
  8
hw_VTP
 62
4
100
AcDbCircle
 10
30.94836730124189
 20
4.760132698757387
 30
0.0
 40
0.6586219474140103
100
AcDbArc
 50
270.0
 51
0.0
  0
LINE
  5
E0
330
2F
100
AcDbEntity
  8
hw_VTP
 62
4
100
AcDbLine
 10
31.60698924865574
 20
7.0257921978623
 30
0.0
 11
30.31580324357674
 21
7.025792197861846
 31
0.0
  0
LINE
  5
E1
330
2F
100
AcDbEntity
  8
hw_VTP
 62
4
100
AcDbLine
 10
28.68270780213789
 20
4.101510751343538
 30
0.0
 11
28.68270780213789
 21
5.392696756422537
 31
0.0
  0
LINE
  5
E2
330
2F
100
AcDbEntity
  8
hw_VTP
 62
4
100
AcDbLine
 10
27.73429219786158
 20
4.101510751343538
 30
0.0
 11
27.73429219786158
 21
5.392696756422537
 31
0.0
  0
ARC
  5
E3
330
2F
100
AcDbEntity
  8
hw_VTP
100
AcDbCircle
 10
36.45729666195894
 20
7.5
 30
0.0
 40
0.4937142857142798
100
AcDbArc
 50
314.9999999999908
 51
45.00000000000921
  0
ARC
  5
E4
330
2F
100
AcDbEntity
  8
hw_VTP
100
AcDbCircle
 10
38.72650333804086
 20
7.5
 30
0.0
 40
0.4937142857142798
100
AcDbArc
 50
134.9999999999908
 51
225.0000000000092
  0
ARC
  5
E5
330
2F
100
AcDbEntity
  8
hw_VTP
100
AcDbCircle
 10
37.59189999999943
 20
6.365396661959039
 30
0.0
 40
0.4937142857142798
100
AcDbArc
 50
44.99999999999078
 51
134.9999999999908
  0
LINE
  5
E6
330
2F
100
AcDbEntity
  8
hw_VTP
100
AcDbLine
 10
37.24279128060243
 20
6.714505381356047
 30
0.0
 11
36.9809597410549
 21
6.452673841808517
 31
0.0
  0
LINE
  5
E7
330
2F
100
AcDbEntity
  8
hw_VTP
100
AcDbLine
 10
36.80640538135595
 20
7.150891280602536
 30
0.0
 11
36.54457384180751
 21
6.889059741055008
 31
0.0
  0
LINE
  5
E8
330
2F
100
AcDbEntity
  8
hw_VTP
100
AcDbLine
 10
36.9809597410549
 20
6.452673841808517
 30
0.0
 11
36.54457384180751
 21
6.889059741055008
 31
0.0
  0
LINE
  5
E9
330
2F
100
AcDbEntity
  8
hw_VTP
100
AcDbLine
 10
39.32177804802632
 20
6.206507851220067
 30
0.0
 11
38.37739461864385
 21
7.150891280602536
 31
0.0
  0
LINE
  5
EA
330
2F
100
AcDbEntity
  8
hw_VTP
100
AcDbLine
 10
38.88539214877983
 20
5.770121951973577
 30
0.0
 11
37.94100871939736
 21
6.714505381356047
 31
0.0
  0
LINE
  5
EB
330
2F
100
AcDbEntity
  8
hw_VTP
 62
4
100
AcDbLine
 10
40.3317673012425
 20
4.101510751343538
 30
0.0
 11
34.85203269875729
 21
4.101510751343538
 31
0.0
  0
ARC
  5
EC
330
2F
100
AcDbEntity
  8
hw_VTP
 62
4
100
AcDbCircle
 10
34.85203269875729
 20
4.760132698757843
 30
0.0
 40
0.6586219474140103
100
AcDbArc
 50
180.0
 51
270.0
  0
LINE
  5
ED
330
2F
100
AcDbEntity
  8
hw_VTP
 62
4
100
AcDbLine
 10
34.19341075134344
 20
7.025792197861846
 30
0.0
 11
35.48459675642244
 21
7.0257921978623
 31
0.0
  0
ARC
  5
EE
330
2F
100
AcDbEntity
  8
hw_VTP
 62
4
100
AcDbCircle
 10
40.3317673012425
 20
4.760132698757387
 30
0.0
 40
0.6586219474140103
100
AcDbArc
 50
270.0
 51
0.0
  0
LINE
  5
EF
330
2F
100
AcDbEntity
  8
hw_VTP
 62
4
100
AcDbLine
 10
40.99038924865634
 20
7.0257921978623
 30
0.0
 11
39.69920324357736
 21
7.025792197861846
 31
0.0
  0
LINE
  5
F0
330
2F
100
AcDbEntity
  8
hw_VTP
 62
4
100
AcDbLine
 10
38.06610780213759
 20
4.101510751343538
 30
0.0
 11
38.0661078021385
 21
5.392696756422537
 31
0.0
  0
LINE
  5
F1
330
2F
100
AcDbEntity
  8
hw_VTP
 62
4
100
AcDbLine
 10
37.11769219786129
 20
4.101510751343538
 30
0.0
 11
37.11769219786221
 21
5.392696756422537
 31
0.0
  0
ARC
  5
F2
330
2F
100
AcDbEntity
  8
hw_VTP
100
AcDbCircle
 10
45.84069666195865
 20
7.5
 30
0.0
 40
0.4937142857142798
100
AcDbArc
 50
314.9999999999908
 51
45.00000000000921
  0
ARC
  5
F3
330
2F
100
AcDbEntity
  8
hw_VTP
100
AcDbCircle
 10
48.10990333804148
 20
7.5
 30
0.0
 40
0.4937142857142798
100
AcDbArc
 50
134.9999999999908
 51
225.0000000000092
  0
ARC
  5
F4
330
2F
100
AcDbEntity
  8
hw_VTP
100
AcDbCircle
 10
46.97530000000006
 20
6.365396661959039
 30
0.0
 40
0.4937142857142798
100
AcDbArc
 50
44.99999999999078
 51
134.9999999999908
  0
LINE
  5
F5
330
2F
100
AcDbEntity
  8
hw_VTP
100
AcDbLine
 10
46.62619128060214
 20
6.714505381356047
 30
0.0
 11
46.36435974105461
 21
6.452673841808517
 31
0.0
  0
LINE
  5
F6
330
2F
100
AcDbEntity
  8
hw_VTP
100
AcDbLine
 10
46.18980538135565
 20
7.150891280602536
 30
0.0
 11
45.92797384180811
 21
6.889059741055008
 31
0.0
  0
LINE
  5
F7
330
2F
100
AcDbEntity
  8
hw_VTP
100
AcDbLine
 10
46.36435974105461
 20
6.452673841808517
 30
0.0
 11
45.92797384180811
 21
6.889059741055008
 31
0.0
  0
LINE
  5
F8
330
2F
100
AcDbEntity
  8
hw_VTP
100
AcDbLine
 10
48.70517804802694
 20
6.206507851220067
 30
0.0
 11
47.76079461864354
 21
7.150891280602536
 31
0.0
  0
LINE
  5
F9
330
2F
100
AcDbEntity
  8
hw_VTP
100
AcDbLine
 10
48.26879214877953
 20
5.770121951973577
 30
0.0
 11
47.32440871939707
 21
6.714505381356047
 31
0.0
  0
ARC
  5
FA
330
2F
100
AcDbEntity
  8
hw_VTP
 62
4
100
AcDbCircle
 10
44.235432698757
 20
4.760132698757843
 30
0.0
 40
0.6586219474140103
100
AcDbArc
 50
180.0
 51
270.0
  0
LINE
  5
FB
330
2F
100
AcDbEntity
  8
hw_VTP
 62
4
100
AcDbLine
 10
43.57681075134315
 20
7.025792197861846
 30
0.0
 11
44.86799675642213
 21
7.0257921978623
 31
0.0
  0
LINE
  5
FC
330
2F
100
AcDbEntity
  8
hw_VTP
 62
4
100
AcDbLine
 10
47.4495078021373
 20
4.101510751343538
 30
0.0
 11
47.4495078021373
 21
5.392696756422537
 31
0.0
  0
LINE
  5
FD
330
2F
100
AcDbEntity
  8
hw_VTP
 62
4
100
AcDbLine
 10
46.501092197861
 20
4.101510751343538
 30
0.0
 11
46.5010921978619
 21
5.392696756422537
 31
0.0
  0
LINE
  5
FE
330
2F
100
AcDbEntity
  8
hw_VTP
 62
4
100
AcDbLine
 10
18.35089219786186
 20
4.101510751343538
 30
0.0
 11
18.35089219786186
 21
5.392696756422537
 31
0.0
  0
LINE
  5
FF
330
2F
100
AcDbEntity
  8
hw_VTP
 62
4
100
AcDbLine
 10
19.29930780213817
 20
4.101510751343538
 30
0.0
 11
19.29930780213817
 21
5.392696756422537
 31
0.0
  0
LINE
  5
100
330
2F
100
AcDbEntity
  8
hw_VTP
 62
4
100
AcDbLine
 10
22.22358924865603
 20
7.0257921978623
 30
0.0
 11
20.93240324357703
 21
7.025792197861846
 31
0.0
  0
ARC
  5
101
330
2F
100
AcDbEntity
  8
hw_VTP
 62
4
100
AcDbCircle
 10
21.56496730124218
 20
4.760132698757387
 30
0.0
 40
0.6586219474140103
100
AcDbArc
 50
270.0
 51
0.0
  0
LINE
  5
102
330
2F
100
AcDbEntity
  8
hw_VTP
 62
4
100
AcDbLine
 10
15.4266107513431
 20
7.025792197861846
 30
0.0
 11
16.7177967564221
 21
7.0257921978623
 31
0.0
  0
ARC
  5
103
330
2F
100
AcDbEntity
  8
hw_VTP
 62
4
100
AcDbCircle
 10
16.08523269875786
 20
4.760132698757843
 30
0.0
 40
0.6586219474140103
100
AcDbArc
 50
180.0
 51
270.0
  0
LINE
  5
104
330
2F
100
AcDbEntity
  8
hw_VTP
 62
4
100
AcDbLine
 10
21.56496730124218
 20
4.101510751343538
 30
0.0
 11
16.08523269875786
 21
4.101510751343538
 31
0.0
  0
LINE
  5
105
330
2F
100
AcDbEntity
  8
hw_VTP
100
AcDbLine
 10
20.1185921487795
 20
5.770121951973577
 30
0.0
 11
19.17420871939703
 21
6.714505381356047
 31
0.0
  0
LINE
  5
106
330
2F
100
AcDbEntity
  8
hw_VTP
100
AcDbLine
 10
20.5549780480269
 20
6.206507851220067
 30
0.0
 11
19.61059461864351
 21
7.150891280602536
 31
0.0
  0
LINE
  5
107
330
2F
100
AcDbEntity
  8
hw_VTP
100
AcDbLine
 10
18.21415974105457
 20
6.452673841808517
 30
0.0
 11
17.77777384180807
 21
6.889059741055008
 31
0.0
  0
LINE
  5
108
330
2F
100
AcDbEntity
  8
hw_VTP
100
AcDbLine
 10
18.03960538135652
 20
7.150891280602536
 30
0.0
 11
17.77777384180807
 21
6.889059741055008
 31
0.0
  0
LINE
  5
109
330
2F
100
AcDbEntity
  8
hw_VTP
100
AcDbLine
 10
18.47599128060301
 20
6.714505381356047
 30
0.0
 11
18.21415974105457
 21
6.452673841808517
 31
0.0
  0
ARC
  5
10A
330
2F
100
AcDbEntity
  8
hw_VTP
100
AcDbCircle
 10
18.82510000000002
 20
6.365396661959039
 30
0.0
 40
0.4937142857142798
100
AcDbArc
 50
44.99999999999078
 51
134.9999999999908
  0
ARC
  5
10B
330
2F
100
AcDbEntity
  8
hw_VTP
100
AcDbCircle
 10
19.95970333804143
 20
7.5
 30
0.0
 40
0.4937142857142798
100
AcDbArc
 50
134.9999999999908
 51
225.0000000000092
  0
ARC
  5
10C
330
2F
100
AcDbEntity
  8
hw_VTP
100
AcDbCircle
 10
17.6904966619586
 20
7.5
 30
0.0
 40
0.4937142857142798
100
AcDbArc
 50
314.9999999999908
 51
45.00000000000921
  0
ARC
  5
10D
330
2F
100
AcDbEntity
  8
hw_VTP
 62
4
100
AcDbCircle
 10
25.46863269875757
 20
4.760132698757843
 30
0.0
 40
0.6586219474140103
100
AcDbArc
 50
180.0
 51
270.0
  0
LINE
  5
10E
330
2F
100
AcDbEntity
  8
hw_VTP
 62
4
100
AcDbLine
 10
30.94836730124189
 20
4.101510751343538
 30
0.0
 11
25.46863269875757
 21
4.101510751343538
 31
0.0
  0
LINE
  5
10F
330
2F
100
AcDbEntity
  8
hw_VTP
 62
4
100
AcDbLine
 10
24.81001075134372
 20
7.025792197861846
 30
0.0
 11
26.10119675642272
 21
7.0257921978623
 31
0.0
  0
LINE
  5
110
330
2F
100
AcDbEntity
  8
hw_VTP
 62
4
100
AcDbLine
 10
49.71516730124221
 20
4.101510751343538
 30
0.0
 11
44.235432698757
 21
4.101510751343538
 31
0.0
  0
ARC
  5
111
330
2F
100
AcDbEntity
  8
hw_VTP
 62
3
100
AcDbCircle
 10
51.66699999999945
 20
-11.25000000000045
 30
0.0
 40
0.75
100
AcDbArc
 50
180.0
 51
0.0
  0
ARC
  5
112
330
2F
100
AcDbEntity
  8
hw_VTP
 62
3
100
AcDbCircle
 10
51.66699999999945
 20
-11.05000000000018
 30
0.0
 40
0.95
100
AcDbArc
 50
180.0
 51
0.0
  0
ARC
  5
113
330
2F
100
AcDbEntity
  8
hw_VTP
 62
3
100
AcDbCircle
 10
61.05040000000007
 20
-11.25000000000045
 30
0.0
 40
0.75
100
AcDbArc
 50
180.0
 51
0.0
  0
ARC
  5
114
330
2F
100
AcDbEntity
  8
hw_VTP
 62
3
100
AcDbCircle
 10
61.05040000000007
 20
-11.05000000000063
 30
0.0
 40
0.95
100
AcDbArc
 50
180.0
 51
0.0
  0
ARC
  5
115
330
2F
100
AcDbEntity
  8
hw_VTP
 62
3
100
AcDbCircle
 10
70.4337999999998
 20
-11.25000000000045
 30
0.0
 40
0.75
100
AcDbArc
 50
180.0
 51
0.0
  0
ARC
  5
116
330
2F
100
AcDbEntity
  8
hw_VTP
 62
3
100
AcDbCircle
 10
70.4337999999998
 20
-11.05000000000063
 30
0.0
 40
0.95
100
AcDbArc
 50
180.0
 51
0.0
  0
LINE
  5
117
330
2F
100
AcDbEntity
  8
hw_VTP
 62
4
100
AcDbLine
 10
50.37378924865606
 20
-7.0257921978623
 30
0.0
 11
49.08260324357707
 21
-7.025792197861846
 31
0.0
  0
LINE
  5
118
330
2F
100
AcDbEntity
  8
hw_VTP
 62
4
100
AcDbLine
 10
50.37378924865606
 20
-7.974207802138607
 30
0.0
 11
49.08260324357707
 21
-7.974207802137696
 31
0.0
  0
ARC
  5
119
330
2F
100
AcDbEntity
  8
hw_VTP
 62
4
100
AcDbCircle
 10
49.71516730124132
 20
-10.23986730124261
 30
0.0
 40
0.6586219474140103
100
AcDbArc
 50
270.0
 51
0.0
  0
LINE
  5
11A
330
2F
100
AcDbEntity
  8
hw_VTP
 62
4
100
AcDbLine
 10
50.37378924865606
 20
-10.23986730124261
 30
0.0
 11
50.37378924865606
 21
-4.760132698757387
 31
0.0
  0
ARC
  5
11B
330
2F
100
AcDbEntity
  8
hw_VTP
 62
4
100
AcDbCircle
 10
49.71516730124221
 20
-4.760132698757387
 30
0.0
 40
0.6586219474140103
100
AcDbArc
 50
0.0
 51
90.0
  0
LINE
  5
11C
330
2F
100
AcDbEntity
  8
hw_VTP
 62
4
100
AcDbLine
 10
55.88449219786161
 20
-4.101510751343538
 30
0.0
 11
55.88449219786161
 21
-5.392696756422537
 31
0.0
  0
LINE
  5
11D
330
2F
100
AcDbEntity
  8
hw_VTP
 62
4
100
AcDbLine
 10
56.83290780213791
 20
-4.101510751343538
 30
0.0
 11
56.83290780213791
 21
-5.392696756422537
 31
0.0
  0
LINE
  5
11E
330
2F
100
AcDbEntity
  8
hw_VTP
 62
4
100
AcDbLine
 10
59.75718924865578
 20
-7.0257921978623
 30
0.0
 11
58.46600324357678
 21
-7.025792197861846
 31
0.0
  0
LINE
  5
11F
330
2F
100
AcDbEntity
  8
hw_VTP
 62
4
100
AcDbLine
 10
59.75718924865578
 20
-7.974207802138607
 30
0.0
 11
58.46600324357678
 21
-7.974207802137696
 31
0.0
  0
LINE
  5
120
330
2F
100
AcDbEntity
  8
hw_VTP
 62
4
100
AcDbLine
 10
55.88449219786161
 20
-10.89848924865646
 30
0.0
 11
55.88449219786161
 21
-9.607303243577462
 31
0.0
  0
LINE
  5
121
330
2F
100
AcDbEntity
  8
hw_VTP
 62
4
100
AcDbLine
 10
56.83290780213791
 20
-10.89848924865646
 30
0.0
 11
56.83290780213791
 21
-9.607303243577462
 31
0.0
  0
ARC
  5
122
330
2F
100
AcDbEntity
  8
hw_VTP
 62
4
100
AcDbCircle
 10
59.09856730124193
 20
-10.23986730124261
 30
0.0
 40
0.6586219474140103
100
AcDbArc
 50
270.0
 51
0.0
  0
LINE
  5
123
330
2F
100
AcDbEntity
  8
hw_VTP
 62
4
100
AcDbLine
 10
59.75718924865578
 20
-10.23986730124261
 30
0.0
 11
59.75718924865578
 21
-4.760132698757387
 31
0.0
  0
ARC
  5
124
330
2F
100
AcDbEntity
  8
hw_VTP
 62
4
100
AcDbCircle
 10
59.09856730124193
 20
-4.760132698757387
 30
0.0
 40
0.6586219474140103
100
AcDbArc
 50
0.0
 51
90.0
  0
LINE
  5
125
330
2F
100
AcDbEntity
  8
hw_VTP
 62
4
100
AcDbLine
 10
52.96021075134376
 20
-7.974207802138152
 30
0.0
 11
54.25139675642276
 21
-7.974207802138152
 31
0.0
  0
LINE
  5
126
330
2F
100
AcDbEntity
  8
hw_VTP
 62
4
100
AcDbLine
 10
52.96021075134376
 20
-7.025792197861846
 30
0.0
 11
54.25139675642276
 21
-7.0257921978623
 31
0.0
  0
ARC
  5
127
330
2F
100
AcDbEntity
  8
hw_VTP
 62
4
100
AcDbCircle
 10
53.61883269875761
 20
-10.23986730124261
 30
0.0
 40
0.6586219474140103
100
AcDbArc
 50
180.0
 51
270.0
  0
LINE
  5
128
330
2F
100
AcDbEntity
  8
hw_VTP
 62
4
100
AcDbLine
 10
52.96021075134376
 20
-4.760132698757843
 30
0.0
 11
52.96021075134376
 21
-10.23986730124261
 31
0.0
  0
ARC
  5
129
330
2F
100
AcDbEntity
  8
hw_VTP
 62
4
100
AcDbCircle
 10
53.61883269875761
 20
-4.760132698757843
 30
0.0
 40
0.6586219474140103
100
AcDbArc
 50
90.0
 51
180.0
  0
LINE
  5
12A
330
2F
100
AcDbEntity
  8
hw_VTP
 62
4
100
AcDbLine
 10
53.61883269875761
 20
-10.89848924865646
 30
0.0
 11
59.09856730124193
 21
-10.89848924865646
 31
0.0
  0
LINE
  5
12B
330
2F
100
AcDbEntity
  8
hw_VTP
 62
4
100
AcDbLine
 10
59.09856730124193
 20
-4.101510751343538
 30
0.0
 11
53.61883269875761
 21
-4.101510751343538
 31
0.0
  0
LINE
  5
12C
330
2F
100
AcDbEntity
  8
hw_VTP
100
AcDbLine
 10
57.65219214878015
 20
-5.770121951973577
 30
0.0
 11
56.70780871939678
 21
-6.714505381356047
 31
0.0
  0
LINE
  5
12D
330
2F
100
AcDbEntity
  8
hw_VTP
100
AcDbLine
 10
58.08857804802574
 20
-6.206507851220067
 30
0.0
 11
57.14419461864327
 21
-7.150891280602536
 31
0.0
  0
LINE
  5
12E
330
2F
100
AcDbEntity
  8
hw_VTP
100
AcDbLine
 10
57.40602615819079
 20
-8.110940258944991
 30
0.0
 11
56.96964025894522
 21
-8.547326158191481
 31
0.0
  0
LINE
  5
12F
330
2F
100
AcDbEntity
  8
hw_VTP
100
AcDbLine
 10
57.40602615819079
 20
-8.110940258944991
 30
0.0
 11
57.14419461864327
 21
-7.849108719397462
 31
0.0
  0
LINE
  5
130
330
2F
100
AcDbEntity
  8
hw_VTP
100
AcDbLine
 10
56.96964025894522
 20
-8.547326158191481
 30
0.0
 11
56.70780871939678
 21
-8.28549461864395
 31
0.0
  0
ARC
  5
131
330
2F
100
AcDbEntity
  8
hw_VTP
100
AcDbCircle
 10
56.35869999999977
 20
-8.634603338040959
 30
0.0
 40
0.4937142857142798
100
AcDbArc
 50
45.00000000000921
 51
134.9999999999908
  0
LINE
  5
132
330
2F
100
AcDbEntity
  8
hw_VTP
100
AcDbLine
 10
55.74775974105431
 20
-6.452673841808517
 30
0.0
 11
55.31137384180784
 21
-6.889059741055008
 31
0.0
  0
LINE
  5
133
330
2F
100
AcDbEntity
  8
hw_VTP
100
AcDbLine
 10
55.57320538135536
 20
-7.150891280602536
 30
0.0
 11
55.31137384180784
 21
-6.889059741055008
 31
0.0
  0
LINE
  5
134
330
2F
100
AcDbEntity
  8
hw_VTP
100
AcDbLine
 10
56.00959128060276
 20
-6.714505381356047
 30
0.0
 11
55.74775974105431
 21
-6.452673841808517
 31
0.0
  0
ARC
  5
135
330
2F
100
AcDbEntity
  8
hw_VTP
100
AcDbCircle
 10
56.35869999999977
 20
-6.365396661959039
 30
0.0
 40
0.4937142857142798
100
AcDbArc
 50
225.0000000000092
 51
315.0000000000092
  0
ARC
  5
136
330
2F
100
AcDbEntity
  8
hw_VTP
100
AcDbCircle
 10
57.49330333804028
 20
-7.5
 30
0.0
 40
0.4937142857142798
100
AcDbArc
 50
134.9999999999908
 51
225.0000000000092
  0
ARC
  5
137
330
2F
100
AcDbEntity
  8
hw_VTP
100
AcDbCircle
 10
55.22409666195926
 20
-7.5
 30
0.0
 40
0.4937142857142798
100
AcDbArc
 50
314.9999999999908
 51
45.00000000000921
  0
LINE
  5
138
330
2F
100
AcDbEntity
  8
hw_VTP
100
AcDbLine
 10
55.57320538135536
 20
-7.849108719397462
 30
0.0
 11
54.62882195197289
 21
-8.793492148779931
 31
0.0
  0
LINE
  5
139
330
2F
100
AcDbEntity
  8
hw_VTP
100
AcDbLine
 10
56.00959128060276
 20
-8.28549461864395
 30
0.0
 11
55.06520785121939
 21
-9.22987804802642
 31
0.0
  0
CIRCLE
  5
13A
330
2F
100
AcDbEntity
  8
hw_VTP
100
AcDbCircle
 10
56.35869999999977
 20
-7.5
 30
0.0
 40
2.159999999999973
  0
LINE
  5
13B
330
2F
100
AcDbEntity
  8
hw_VTP
 62
4
100
AcDbLine
 10
65.26789219786133
 20
-4.101510751343538
 30
0.0
 11
65.26789219786222
 21
-5.392696756422991
 31
0.0
  0
LINE
  5
13C
330
2F
100
AcDbEntity
  8
hw_VTP
 62
4
100
AcDbLine
 10
66.21630780213764
 20
-4.101510751343538
 30
0.0
 11
66.21630780213764
 21
-5.392696756422991
 31
0.0
  0
LINE
  5
13D
330
2F
100
AcDbEntity
  8
hw_VTP
 62
4
100
AcDbLine
 10
69.14058924865638
 20
-7.0257921978623
 30
0.0
 11
67.8494032435774
 21
-7.0257921978623
 31
0.0
  0
LINE
  5
13E
330
2F
100
AcDbEntity
  8
hw_VTP
 62
4
100
AcDbLine
 10
69.14058924865638
 20
-7.974207802138607
 30
0.0
 11
67.8494032435774
 21
-7.974207802137696
 31
0.0
  0
LINE
  5
13F
330
2F
100
AcDbEntity
  8
hw_VTP
 62
4
100
AcDbLine
 10
65.26789219786133
 20
-10.89848924865646
 30
0.0
 11
65.26789219786133
 21
-9.607303243577462
 31
0.0
  0
LINE
  5
140
330
2F
100
AcDbEntity
  8
hw_VTP
 62
4
100
AcDbLine
 10
66.21630780213764
 20
-10.89848924865646
 30
0.0
 11
66.21630780213764
 21
-9.607303243577462
 31
0.0
  0
ARC
  5
141
330
2F
100
AcDbEntity
  8
hw_VTP
 62
4
100
AcDbCircle
 10
68.48196730124164
 20
-10.23986730124261
 30
0.0
 40
0.6586219474140103
100
AcDbArc
 50
270.0
 51
0.0
  0
LINE
  5
142
330
2F
100
AcDbEntity
  8
hw_VTP
 62
4
100
AcDbLine
 10
69.14058924865549
 20
-10.23986730124261
 30
0.0
 11
69.14058924865638
 21
-4.760132698757843
 31
0.0
  0
ARC
  5
143
330
2F
100
AcDbEntity
  8
hw_VTP
 62
4
100
AcDbCircle
 10
68.48196730124255
 20
-4.760132698757843
 30
0.0
 40
0.6586219474140103
100
AcDbArc
 50
0.0
 51
90.0
  0
LINE
  5
144
330
2F
100
AcDbEntity
  8
hw_VTP
 62
4
100
AcDbLine
 10
62.34361075134348
 20
-7.974207802138607
 30
0.0
 11
63.63479675642247
 21
-7.974207802138152
 31
0.0
  0
LINE
  5
145
330
2F
100
AcDbEntity
  8
hw_VTP
 62
4
100
AcDbLine
 10
62.34361075134348
 20
-7.0257921978623
 30
0.0
 11
63.63479675642247
 21
-7.0257921978623
 31
0.0
  0
ARC
  5
146
330
2F
100
AcDbEntity
  8
hw_VTP
 62
4
100
AcDbCircle
 10
63.00223269875733
 20
-10.23986730124261
 30
0.0
 40
0.6586219474140103
100
AcDbArc
 50
180.0
 51
270.0
  0
LINE
  5
147
330
2F
100
AcDbEntity
  8
hw_VTP
 62
4
100
AcDbLine
 10
62.34361075134348
 20
-4.760132698757843
 30
0.0
 11
62.34361075134348
 21
-10.23986730124261
 31
0.0
  0
ARC
  5
148
330
2F
100
AcDbEntity
  8
hw_VTP
 62
4
100
AcDbCircle
 10
63.00223269875733
 20
-4.760132698757843
 30
0.0
 40
0.6586219474140103
100
AcDbArc
 50
90.0
 51
180.0
  0
LINE
  5
149
330
2F
100
AcDbEntity
  8
hw_VTP
 62
4
100
AcDbLine
 10
63.00223269875733
 20
-10.89848924865646
 30
0.0
 11
68.48196730124164
 21
-10.89848924865646
 31
0.0
  0
LINE
  5
14A
330
2F
100
AcDbEntity
  8
hw_VTP
 62
4
100
AcDbLine
 10
68.48196730124255
 20
-4.101510751343993
 30
0.0
 11
63.00223269875733
 21
-4.101510751343993
 31
0.0
  0
LINE
  5
14B
330
2F
100
AcDbEntity
  8
hw_VTP
100
AcDbLine
 10
67.03559214877896
 20
-5.770121951973577
 30
0.0
 11
66.0912087193974
 21
-6.714505381356047
 31
0.0
  0
LINE
  5
14C
330
2F
100
AcDbEntity
  8
hw_VTP
100
AcDbLine
 10
67.47197804802634
 20
-6.206507851220067
 30
0.0
 11
66.52759461864298
 21
-7.150891280602991
 31
0.0
  0
LINE
  5
14D
330
2F
100
AcDbEntity
  8
hw_VTP
100
AcDbLine
 10
66.78942615819142
 20
-8.110940258945448
 30
0.0
 11
66.35304025894493
 21
-8.547326158191934
 31
0.0
  0
LINE
  5
14E
330
2F
100
AcDbEntity
  8
hw_VTP
100
AcDbLine
 10
66.78942615819142
 20
-8.110940258945448
 30
0.0
 11
66.52759461864298
 21
-7.849108719397462
 31
0.0
  0
LINE
  5
14F
330
2F
100
AcDbEntity
  8
hw_VTP
100
AcDbLine
 10
66.35304025894493
 20
-8.547326158191934
 30
0.0
 11
66.0912087193974
 21
-8.28549461864395
 31
0.0
  0
ARC
  5
150
330
2F
100
AcDbEntity
  8
hw_VTP
100
AcDbCircle
 10
65.74209999999948
 20
-8.634603338040959
 30
0.0
 40
0.4937142857142798
100
AcDbArc
 50
45.00000000000921
 51
134.9999999999908
  0
LINE
  5
151
330
2F
100
AcDbEntity
  8
hw_VTP
100
AcDbLine
 10
65.13115974105493
 20
-6.452673841808517
 30
0.0
 11
64.69477384180755
 21
-6.889059741055008
 31
0.0
  0
LINE
  5
152
330
2F
100
AcDbEntity
  8
hw_VTP
100
AcDbLine
 10
64.95660538135598
 20
-7.150891280602991
 30
0.0
 11
64.69477384180755
 21
-6.889059741055008
 31
0.0
  0
LINE
  5
153
330
2F
100
AcDbEntity
  8
hw_VTP
100
AcDbLine
 10
65.39299128060246
 20
-6.714505381356502
 30
0.0
 11
65.13115974105493
 21
-6.452673841808517
 31
0.0
  0
ARC
  5
154
330
2F
100
AcDbEntity
  8
hw_VTP
100
AcDbCircle
 10
65.74209999999948
 20
-6.365396661959039
 30
0.0
 40
0.4937142857142798
100
AcDbArc
 50
225.0000000000092
 51
315.0000000000092
  0
ARC
  5
155
330
2F
100
AcDbEntity
  8
hw_VTP
100
AcDbCircle
 10
66.87670333804088
 20
-7.500000000000453
 30
0.0
 40
0.4937142857142798
100
AcDbArc
 50
134.9999999999908
 51
225.0000000000092
  0
ARC
  5
156
330
2F
100
AcDbEntity
  8
hw_VTP
100
AcDbCircle
 10
64.60749666195807
 20
-7.500000000000453
 30
0.0
 40
0.4937142857142798
100
AcDbArc
 50
314.9999999999908
 51
45.00000000000921
  0
LINE
  5
157
330
2F
100
AcDbEntity
  8
hw_VTP
100
AcDbLine
 10
64.95660538135598
 20
-7.849108719397462
 30
0.0
 11
64.0122219519726
 21
-8.793492148780388
 31
0.0
  0
LINE
  5
158
330
2F
100
AcDbEntity
  8
hw_VTP
100
AcDbLine
 10
65.39299128060246
 20
-8.28549461864395
 30
0.0
 11
64.44860785122
 21
-9.229878048026876
 31
0.0
  0
CIRCLE
  5
159
330
2F
100
AcDbEntity
  8
hw_VTP
100
AcDbCircle
 10
65.74209999999948
 20
-7.500000000000453
 30
0.0
 40
2.159999999999973
  0
LINE
  5
15A
330
2F
100
AcDbEntity
  8
hw_VTP
 62
4
100
AcDbLine
 10
71.72701075134319
 20
-4.760132698758297
 30
0.0
 11
71.72701075134319
 21
-10.23986730124261
 31
0.0
  0
ARC
  5
15B
330
2F
100
AcDbEntity
  8
hw_VTP
 62
3
100
AcDbCircle
 10
32.90020000000004
 20
-11.25000000000045
 30
0.0
 40
0.75
100
AcDbArc
 50
180.0
 51
0.0
  0
ARC
  5
15C
330
2F
100
AcDbEntity
  8
hw_VTP
 62
3
100
AcDbCircle
 10
32.90020000000004
 20
-11.05000000000018
 30
0.0
 40
0.95
100
AcDbArc
 50
180.0
 51
0.0
  0
ARC
  5
15D
330
2F
100
AcDbEntity
  8
hw_VTP
 62
3
100
AcDbCircle
 10
42.28359999999975
 20
-11.25000000000045
 30
0.0
 40
0.75
100
AcDbArc
 50
180.0
 51
0.0
  0
ARC
  5
15E
330
2F
100
AcDbEntity
  8
hw_VTP
 62
3
100
AcDbCircle
 10
42.28359999999975
 20
-11.05000000000018
 30
0.0
 40
0.95
100
AcDbArc
 50
180.0
 51
0.0
  0
LINE
  5
15F
330
2F
100
AcDbEntity
  8
hw_VTP
 62
4
100
AcDbLine
 10
27.73429219786158
 20
-4.101510751343538
 30
0.0
 11
27.73429219786158
 21
-5.392696756422537
 31
0.0
  0
LINE
  5
160
330
2F
100
AcDbEntity
  8
hw_VTP
 62
4
100
AcDbLine
 10
28.68270780213789
 20
-4.101510751343538
 30
0.0
 11
28.68270780213789
 21
-5.392696756422537
 31
0.0
  0
LINE
  5
161
330
2F
100
AcDbEntity
  8
hw_VTP
 62
4
100
AcDbLine
 10
31.60698924865574
 20
-7.0257921978623
 30
0.0
 11
30.31580324357674
 21
-7.025792197861846
 31
0.0
  0
LINE
  5
162
330
2F
100
AcDbEntity
  8
hw_VTP
 62
4
100
AcDbLine
 10
31.60698924865574
 20
-7.974207802138607
 30
0.0
 11
30.31580324357674
 21
-7.974207802137696
 31
0.0
  0
LINE
  5
163
330
2F
100
AcDbEntity
  8
hw_VTP
 62
4
100
AcDbLine
 10
27.73429219786158
 20
-10.89848924865646
 30
0.0
 11
27.73429219786158
 21
-9.607303243577462
 31
0.0
  0
LINE
  5
164
330
2F
100
AcDbEntity
  8
hw_VTP
 62
4
100
AcDbLine
 10
28.68270780213789
 20
-10.89848924865646
 30
0.0
 11
28.68270780213789
 21
-9.607303243577462
 31
0.0
  0
ARC
  5
165
330
2F
100
AcDbEntity
  8
hw_VTP
 62
4
100
AcDbCircle
 10
30.94836730124189
 20
-10.23986730124261
 30
0.0
 40
0.6586219474140103
100
AcDbArc
 50
270.0
 51
0.0
  0
LINE
  5
166
330
2F
100
AcDbEntity
  8
hw_VTP
 62
4
100
AcDbLine
 10
31.60698924865574
 20
-10.23986730124261
 30
0.0
 11
31.60698924865574
 21
-4.760132698757387
 31
0.0
  0
ARC
  5
167
330
2F
100
AcDbEntity
  8
hw_VTP
 62
4
100
AcDbCircle
 10
30.94836730124189
 20
-4.760132698757387
 30
0.0
 40
0.6586219474140103
100
AcDbArc
 50
0.0
 51
90.0
  0
LINE
  5
168
330
2F
100
AcDbEntity
  8
hw_VTP
100
AcDbLine
 10
29.50199214878012
 20
-5.770121951973577
 30
0.0
 11
28.55760871939674
 21
-6.714505381356047
 31
0.0
  0
LINE
  5
169
330
2F
100
AcDbEntity
  8
hw_VTP
100
AcDbLine
 10
29.93837804802661
 20
-6.206507851220067
 30
0.0
 11
28.99399461864414
 21
-7.150891280602536
 31
0.0
  0
LINE
  5
16A
330
2F
100
AcDbEntity
  8
hw_VTP
100
AcDbLine
 10
29.25582615819167
 20
-8.110940258944991
 30
0.0
 11
28.81944025894518
 21
-8.547326158191481
 31
0.0
  0
LINE
  5
16B
330
2F
100
AcDbEntity
  8
hw_VTP
100
AcDbLine
 10
29.25582615819167
 20
-8.110940258944991
 30
0.0
 11
28.99399461864414
 21
-7.849108719397462
 31
0.0
  0
LINE
  5
16C
330
2F
100
AcDbEntity
  8
hw_VTP
100
AcDbLine
 10
28.81944025894518
 20
-8.547326158191481
 30
0.0
 11
28.55760871939674
 21
-8.28549461864395
 31
0.0
  0
ARC
  5
16D
330
2F
100
AcDbEntity
  8
hw_VTP
100
AcDbCircle
 10
28.20849999999973
 20
-8.634603338040959
 30
0.0
 40
0.4937142857142798
100
AcDbArc
 50
45.00000000000921
 51
134.9999999999908
  0
LINE
  5
16E
330
2F
100
AcDbEntity
  8
hw_VTP
100
AcDbLine
 10
27.59755974105428
 20
-6.452673841808517
 30
0.0
 11
27.16117384180871
 21
-6.889059741055008
 31
0.0
  0
LINE
  5
16F
330
2F
100
AcDbEntity
  8
hw_VTP
100
AcDbLine
 10
27.42300538135623
 20
-7.150891280602536
 30
0.0
 11
27.16117384180871
 21
-6.889059741055008
 31
0.0
  0
LINE
  5
170
330
2F
100
AcDbEntity
  8
hw_VTP
100
AcDbLine
 10
27.85939128060272
 20
-6.714505381356047
 30
0.0
 11
27.59755974105428
 21
-6.452673841808517
 31
0.0
  0
ARC
  5
171
330
2F
100
AcDbEntity
  8
hw_VTP
100
AcDbCircle
 10
28.20849999999973
 20
-6.365396661959039
 30
0.0
 40
0.4937142857142798
100
AcDbArc
 50
225.0000000000092
 51
315.0000000000092
  0
ARC
  5
172
330
2F
100
AcDbEntity
  8
hw_VTP
100
AcDbCircle
 10
29.34310333804115
 20
-7.5
 30
0.0
 40
0.4937142857142798
100
AcDbArc
 50
134.9999999999908
 51
225.0000000000092
  0
ARC
  5
173
330
2F
100
AcDbEntity
  8
hw_VTP
100
AcDbCircle
 10
27.07389666195922
 20
-7.5
 30
0.0
 40
0.4937142857142798
100
AcDbArc
 50
314.9999999999908
 51
45.00000000000921
  0
LINE
  5
174
330
2F
100
AcDbEntity
  8
hw_VTP
100
AcDbLine
 10
27.42300538135623
 20
-7.849108719397462
 30
0.0
 11
26.47862195197376
 21
-8.793492148779931
 31
0.0
  0
LINE
  5
175
330
2F
100
AcDbEntity
  8
hw_VTP
100
AcDbLine
 10
27.85939128060272
 20
-8.28549461864395
 30
0.0
 11
26.91500785121935
 21
-9.22987804802642
 31
0.0
  0
CIRCLE
  5
176
330
2F
100
AcDbEntity
  8
hw_VTP
100
AcDbCircle
 10
28.20849999999973
 20
-7.5
 30
0.0
 40
2.159999999999973
  0
LINE
  5
177
330
2F
100
AcDbEntity
  8
hw_VTP
 62
4
100
AcDbLine
 10
37.11769219786129
 20
-4.101510751343538
 30
0.0
 11
37.11769219786221
 21
-5.392696756422537
 31
0.0
  0
LINE
  5
178
330
2F
100
AcDbEntity
  8
hw_VTP
 62
4
100
AcDbLine
 10
38.06610780213759
 20
-4.101510751343538
 30
0.0
 11
38.0661078021385
 21
-5.392696756422537
 31
0.0
  0
LINE
  5
179
330
2F
100
AcDbEntity
  8
hw_VTP
 62
4
100
AcDbLine
 10
40.99038924865634
 20
-7.0257921978623
 30
0.0
 11
39.69920324357736
 21
-7.025792197861846
 31
0.0
  0
LINE
  5
17A
330
2F
100
AcDbEntity
  8
hw_VTP
 62
4
100
AcDbLine
 10
40.99038924865634
 20
-7.974207802138607
 30
0.0
 11
39.69920324357736
 21
-7.974207802137696
 31
0.0
  0
LINE
  5
17B
330
2F
100
AcDbEntity
  8
hw_VTP
 62
4
100
AcDbLine
 10
37.11769219786129
 20
-10.89848924865646
 30
0.0
 11
37.11769219786221
 21
-9.607303243577462
 31
0.0
  0
LINE
  5
17C
330
2F
100
AcDbEntity
  8
hw_VTP
 62
4
100
AcDbLine
 10
38.06610780213759
 20
-10.89848924865646
 30
0.0
 11
38.0661078021385
 21
-9.607303243577462
 31
0.0
  0
ARC
  5
17D
330
2F
100
AcDbEntity
  8
hw_VTP
 62
4
100
AcDbCircle
 10
40.3317673012425
 20
-10.23986730124261
 30
0.0
 40
0.6586219474140103
100
AcDbArc
 50
270.0
 51
0.0
  0
LINE
  5
17E
330
2F
100
AcDbEntity
  8
hw_VTP
 62
4
100
AcDbLine
 10
40.99038924865634
 20
-10.23986730124261
 30
0.0
 11
40.99038924865634
 21
-4.760132698757387
 31
0.0
  0
ARC
  5
17F
330
2F
100
AcDbEntity
  8
hw_VTP
 62
4
100
AcDbCircle
 10
40.3317673012425
 20
-4.760132698757387
 30
0.0
 40
0.6586219474140103
100
AcDbArc
 50
0.0
 51
90.0
  0
LINE
  5
180
330
2F
100
AcDbEntity
  8
hw_VTP
 62
4
100
AcDbLine
 10
34.19341075134344
 20
-7.974207802138152
 30
0.0
 11
35.48459675642244
 21
-7.974207802138152
 31
0.0
  0
LINE
  5
181
330
2F
100
AcDbEntity
  8
hw_VTP
 62
4
100
AcDbLine
 10
34.19341075134344
 20
-7.025792197861846
 30
0.0
 11
35.48459675642244
 21
-7.0257921978623
 31
0.0
  0
ARC
  5
182
330
2F
100
AcDbEntity
  8
hw_VTP
 62
4
100
AcDbCircle
 10
34.85203269875729
 20
-10.23986730124261
 30
0.0
 40
0.6586219474140103
100
AcDbArc
 50
180.0
 51
270.0
  0
LINE
  5
183
330
2F
100
AcDbEntity
  8
hw_VTP
 62
4
100
AcDbLine
 10
34.19341075134344
 20
-4.760132698757843
 30
0.0
 11
34.19341075134344
 21
-10.23986730124261
 31
0.0
  0
ARC
  5
184
330
2F
100
AcDbEntity
  8
hw_VTP
 62
4
100
AcDbCircle
 10
34.85203269875729
 20
-4.760132698757843
 30
0.0
 40
0.6586219474140103
100
AcDbArc
 50
90.0
 51
180.0
  0
LINE
  5
185
330
2F
100
AcDbEntity
  8
hw_VTP
 62
4
100
AcDbLine
 10
34.85203269875729
 20
-10.89848924865646
 30
0.0
 11
40.3317673012425
 21
-10.89848924865646
 31
0.0
  0
LINE
  5
186
330
2F
100
AcDbEntity
  8
hw_VTP
 62
4
100
AcDbLine
 10
40.3317673012425
 20
-4.101510751343538
 30
0.0
 11
34.85203269875729
 21
-4.101510751343538
 31
0.0
  0
LINE
  5
187
330
2F
100
AcDbEntity
  8
hw_VTP
100
AcDbLine
 10
38.88539214877983
 20
-5.770121951973577
 30
0.0
 11
37.94100871939736
 21
-6.714505381356047
 31
0.0
  0
LINE
  5
188
330
2F
100
AcDbEntity
  8
hw_VTP
100
AcDbLine
 10
39.32177804802632
 20
-6.206507851220067
 30
0.0
 11
38.37739461864385
 21
-7.150891280602536
 31
0.0
  0
LINE
  5
189
330
2F
100
AcDbEntity
  8
hw_VTP
100
AcDbLine
 10
38.63922615819138
 20
-8.110940258944991
 30
0.0
 11
38.2028402589449
 21
-8.547326158191481
 31
0.0
  0
LINE
  5
18A
330
2F
100
AcDbEntity
  8
hw_VTP
100
AcDbLine
 10
38.63922615819138
 20
-8.110940258944991
 30
0.0
 11
38.37739461864385
 21
-7.849108719397462
 31
0.0
  0
LINE
  5
18B
330
2F
100
AcDbEntity
  8
hw_VTP
100
AcDbLine
 10
38.2028402589449
 20
-8.547326158191481
 30
0.0
 11
37.94100871939736
 21
-8.28549461864395
 31
0.0
  0
ARC
  5
18C
330
2F
100
AcDbEntity
  8
hw_VTP
100
AcDbCircle
 10
37.59189999999943
 20
-8.634603338040959
 30
0.0
 40
0.4937142857142798
100
AcDbArc
 50
45.00000000000921
 51
134.9999999999908
  0
LINE
  5
18D
330
2F
100
AcDbEntity
  8
hw_VTP
100
AcDbLine
 10
36.9809597410549
 20
-6.452673841808517
 30
0.0
 11
36.54457384180751
 21
-6.889059741055008
 31
0.0
  0
LINE
  5
18E
330
2F
100
AcDbEntity
  8
hw_VTP
100
AcDbLine
 10
36.80640538135595
 20
-7.150891280602536
 30
0.0
 11
36.54457384180751
 21
-6.889059741055008
 31
0.0
  0
LINE
  5
18F
330
2F
100
AcDbEntity
  8
hw_VTP
100
AcDbLine
 10
37.24279128060243
 20
-6.714505381356047
 30
0.0
 11
36.9809597410549
 21
-6.452673841808517
 31
0.0
  0
ARC
  5
190
330
2F
100
AcDbEntity
  8
hw_VTP
100
AcDbCircle
 10
37.59189999999943
 20
-6.365396661959039
 30
0.0
 40
0.4937142857142798
100
AcDbArc
 50
225.0000000000092
 51
315.0000000000092
  0
ARC
  5
191
330
2F
100
AcDbEntity
  8
hw_VTP
100
AcDbCircle
 10
38.72650333804086
 20
-7.5
 30
0.0
 40
0.4937142857142798
100
AcDbArc
 50
134.9999999999908
 51
225.0000000000092
  0
ARC
  5
192
330
2F
100
AcDbEntity
  8
hw_VTP
100
AcDbCircle
 10
36.45729666195894
 20
-7.5
 30
0.0
 40
0.4937142857142798
100
AcDbArc
 50
314.9999999999908
 51
45.00000000000921
  0
LINE
  5
193
330
2F
100
AcDbEntity
  8
hw_VTP
100
AcDbLine
 10
36.80640538135595
 20
-7.849108719397462
 30
0.0
 11
35.86202195197348
 21
-8.793492148779931
 31
0.0
  0
LINE
  5
194
330
2F
100
AcDbEntity
  8
hw_VTP
100
AcDbLine
 10
37.24279128060243
 20
-8.28549461864395
 30
0.0
 11
36.29840785121996
 21
-9.22987804802642
 31
0.0
  0
CIRCLE
  5
195
330
2F
100
AcDbEntity
  8
hw_VTP
100
AcDbCircle
 10
37.59189999999943
 20
-7.5
 30
0.0
 40
2.159999999999973
  0
LINE
  5
196
330
2F
100
AcDbEntity
  8
hw_VTP
 62
4
100
AcDbLine
 10
46.501092197861
 20
-4.101510751343538
 30
0.0
 11
46.5010921978619
 21
-5.392696756422537
 31
0.0
  0
LINE
  5
197
330
2F
100
AcDbEntity
  8
hw_VTP
 62
4
100
AcDbLine
 10
47.4495078021373
 20
-4.101510751343538
 30
0.0
 11
47.4495078021373
 21
-5.392696756422537
 31
0.0
  0
LINE
  5
198
330
2F
100
AcDbEntity
  8
hw_VTP
 62
4
100
AcDbLine
 10
46.501092197861
 20
-10.89848924865646
 30
0.0
 11
46.501092197861
 21
-9.607303243577462
 31
0.0
  0
LINE
  5
199
330
2F
100
AcDbEntity
  8
hw_VTP
 62
4
100
AcDbLine
 10
47.4495078021373
 20
-10.89848924865646
 30
0.0
 11
47.4495078021373
 21
-9.607303243577462
 31
0.0
  0
LINE
  5
19A
330
2F
100
AcDbEntity
  8
hw_VTP
 62
4
100
AcDbLine
 10
43.57681075134315
 20
-7.974207802138152
 30
0.0
 11
44.86799675642213
 21
-7.974207802138152
 31
0.0
  0
LINE
  5
19B
330
2F
100
AcDbEntity
  8
hw_VTP
 62
4
100
AcDbLine
 10
43.57681075134315
 20
-7.025792197861846
 30
0.0
 11
44.86799675642213
 21
-7.0257921978623
 31
0.0
  0
ARC
  5
19C
330
2F
100
AcDbEntity
  8
hw_VTP
 62
4
100
AcDbCircle
 10
44.235432698757
 20
-10.23986730124261
 30
0.0
 40
0.6586219474140103
100
AcDbArc
 50
180.0
 51
270.0
  0
LINE
  5
19D
330
2F
100
AcDbEntity
  8
hw_VTP
 62
4
100
AcDbLine
 10
43.57681075134315
 20
-4.760132698757843
 30
0.0
 11
43.57681075134315
 21
-10.23986730124261
 31
0.0
  0
ARC
  5
19E
330
2F
100
AcDbEntity
  8
hw_VTP
 62
4
100
AcDbCircle
 10
44.235432698757
 20
-4.760132698757843
 30
0.0
 40
0.6586219474140103
100
AcDbArc
 50
90.0
 51
180.0
  0
LINE
  5
19F
330
2F
100
AcDbEntity
  8
hw_VTP
100
AcDbLine
 10
48.26879214877953
 20
-5.770121951973577
 30
0.0
 11
47.32440871939707
 21
-6.714505381356047
 31
0.0
  0
LINE
  5
1A0
330
2F
100
AcDbEntity
  8
hw_VTP
100
AcDbLine
 10
48.70517804802694
 20
-6.206507851220067
 30
0.0
 11
47.76079461864354
 21
-7.150891280602536
 31
0.0
  0
LINE
  5
1A1
330
2F
100
AcDbEntity
  8
hw_VTP
100
AcDbLine
 10
48.02262615819199
 20
-8.110940258944991
 30
0.0
 11
47.5862402589446
 21
-8.547326158191481
 31
0.0
  0
LINE
  5
1A2
330
2F
100
AcDbEntity
  8
hw_VTP
100
AcDbLine
 10
48.02262615819199
 20
-8.110940258944991
 30
0.0
 11
47.76079461864354
 21
-7.849108719397462
 31
0.0
  0
LINE
  5
1A3
330
2F
100
AcDbEntity
  8
hw_VTP
100
AcDbLine
 10
47.5862402589446
 20
-8.547326158191481
 30
0.0
 11
47.32440871939707
 21
-8.28549461864395
 31
0.0
  0
ARC
  5
1A4
330
2F
100
AcDbEntity
  8
hw_VTP
100
AcDbCircle
 10
46.97530000000006
 20
-8.634603338040959
 30
0.0
 40
0.4937142857142798
100
AcDbArc
 50
45.00000000000921
 51
134.9999999999908
  0
LINE
  5
1A5
330
2F
100
AcDbEntity
  8
hw_VTP
100
AcDbLine
 10
46.36435974105461
 20
-6.452673841808517
 30
0.0
 11
45.92797384180811
 21
-6.889059741055008
 31
0.0
  0
LINE
  5
1A6
330
2F
100
AcDbEntity
  8
hw_VTP
100
AcDbLine
 10
46.18980538135565
 20
-7.150891280602536
 30
0.0
 11
45.92797384180811
 21
-6.889059741055008
 31
0.0
  0
LINE
  5
1A7
330
2F
100
AcDbEntity
  8
hw_VTP
100
AcDbLine
 10
46.62619128060214
 20
-6.714505381356047
 30
0.0
 11
46.36435974105461
 21
-6.452673841808517
 31
0.0
  0
ARC
  5
1A8
330
2F
100
AcDbEntity
  8
hw_VTP
100
AcDbCircle
 10
46.97530000000006
 20
-6.365396661959039
 30
0.0
 40
0.4937142857142798
100
AcDbArc
 50
225.0000000000092
 51
315.0000000000092
  0
ARC
  5
1A9
330
2F
100
AcDbEntity
  8
hw_VTP
100
AcDbCircle
 10
48.10990333804148
 20
-7.5
 30
0.0
 40
0.4937142857142798
100
AcDbArc
 50
134.9999999999908
 51
225.0000000000092
  0
ARC
  5
1AA
330
2F
100
AcDbEntity
  8
hw_VTP
100
AcDbCircle
 10
45.84069666195865
 20
-7.5
 30
0.0
 40
0.4937142857142798
100
AcDbArc
 50
314.9999999999908
 51
45.00000000000921
  0
LINE
  5
1AB
330
2F
100
AcDbEntity
  8
hw_VTP
100
AcDbLine
 10
46.18980538135565
 20
-7.849108719397462
 30
0.0
 11
45.24542195197319
 21
-8.793492148779931
 31
0.0
  0
LINE
  5
1AC
330
2F
100
AcDbEntity
  8
hw_VTP
100
AcDbLine
 10
46.62619128060214
 20
-8.28549461864395
 30
0.0
 11
45.68180785121967
 21
-9.22987804802642
 31
0.0
  0
ARC
  5
1AD
330
2F
100
AcDbEntity
  8
hw_VTP
 62
3
100
AcDbCircle
 10
23.51679999999943
 20
-11.05000000000018
 30
0.0
 40
0.95
100
AcDbArc
 50
180.0
 51
0.0
  0
ARC
  5
1AE
330
2F
100
AcDbEntity
  8
hw_VTP
 62
3
100
AcDbCircle
 10
23.51679999999943
 20
-11.25000000000045
 30
0.0
 40
0.75
100
AcDbArc
 50
180.0
 51
0.0
  0
CIRCLE
  5
1AF
330
2F
100
AcDbEntity
  8
hw_VTP
100
AcDbCircle
 10
18.82510000000002
 20
-7.5
 30
0.0
 40
2.159999999999973
  0
LINE
  5
1B0
330
2F
100
AcDbEntity
  8
hw_VTP
100
AcDbLine
 10
18.47599128060301
 20
-8.28549461864395
 30
0.0
 11
17.53160785122054
 21
-9.22987804802642
 31
0.0
  0
LINE
  5
1B1
330
2F
100
AcDbEntity
  8
hw_VTP
100
AcDbLine
 10
18.03960538135652
 20
-7.849108719397462
 30
0.0
 11
17.09522195197314
 21
-8.793492148779931
 31
0.0
  0
ARC
  5
1B2
330
2F
100
AcDbEntity
  8
hw_VTP
100
AcDbCircle
 10
17.6904966619586
 20
-7.5
 30
0.0
 40
0.4937142857142798
100
AcDbArc
 50
314.9999999999908
 51
45.00000000000921
  0
ARC
  5
1B3
330
2F
100
AcDbEntity
  8
hw_VTP
100
AcDbCircle
 10
19.95970333804143
 20
-7.5
 30
0.0
 40
0.4937142857142798
100
AcDbArc
 50
134.9999999999908
 51
225.0000000000092
  0
ARC
  5
1B4
330
2F
100
AcDbEntity
  8
hw_VTP
100
AcDbCircle
 10
18.82510000000002
 20
-6.365396661959039
 30
0.0
 40
0.4937142857142798
100
AcDbArc
 50
225.0000000000092
 51
315.0000000000092
  0
LINE
  5
1B5
330
2F
100
AcDbEntity
  8
hw_VTP
100
AcDbLine
 10
18.47599128060301
 20
-6.714505381356047
 30
0.0
 11
18.21415974105457
 21
-6.452673841808517
 31
0.0
  0
LINE
  5
1B6
330
2F
100
AcDbEntity
  8
hw_VTP
100
AcDbLine
 10
18.03960538135652
 20
-7.150891280602536
 30
0.0
 11
17.77777384180807
 21
-6.889059741055008
 31
0.0
  0
LINE
  5
1B7
330
2F
100
AcDbEntity
  8
hw_VTP
100
AcDbLine
 10
18.21415974105457
 20
-6.452673841808517
 30
0.0
 11
17.77777384180807
 21
-6.889059741055008
 31
0.0
  0
ARC
  5
1B8
330
2F
100
AcDbEntity
  8
hw_VTP
100
AcDbCircle
 10
18.82510000000002
 20
-8.634603338040959
 30
0.0
 40
0.4937142857142798
100
AcDbArc
 50
45.00000000000921
 51
134.9999999999908
  0
LINE
  5
1B9
330
2F
100
AcDbEntity
  8
hw_VTP
100
AcDbLine
 10
19.43604025894456
 20
-8.547326158191481
 30
0.0
 11
19.17420871939703
 21
-8.28549461864395
 31
0.0
  0
LINE
  5
1BA
330
2F
100
AcDbEntity
  8
hw_VTP
100
AcDbLine
 10
19.87242615819196
 20
-8.110940258944991
 30
0.0
 11
19.61059461864351
 21
-7.849108719397462
 31
0.0
  0
LINE
  5
1BB
330
2F
100
AcDbEntity
  8
hw_VTP
100
AcDbLine
 10
19.87242615819196
 20
-8.110940258944991
 30
0.0
 11
19.43604025894456
 21
-8.547326158191481
 31
0.0
  0
LINE
  5
1BC
330
2F
100
AcDbEntity
  8
hw_VTP
100
AcDbLine
 10
20.5549780480269
 20
-6.206507851220067
 30
0.0
 11
19.61059461864351
 21
-7.150891280602536
 31
0.0
  0
LINE
  5
1BD
330
2F
100
AcDbEntity
  8
hw_VTP
100
AcDbLine
 10
20.1185921487795
 20
-5.770121951973577
 30
0.0
 11
19.17420871939703
 21
-6.714505381356047
 31
0.0
  0
LINE
  5
1BE
330
2F
100
AcDbEntity
  8
hw_VTP
 62
4
100
AcDbLine
 10
21.56496730124218
 20
-4.101510751343538
 30
0.0
 11
16.08523269875786
 21
-4.101510751343538
 31
0.0
  0
LINE
  5
1BF
330
2F
100
AcDbEntity
  8
hw_VTP
 62
4
100
AcDbLine
 10
16.08523269875695
 20
-10.89848924865646
 30
0.0
 11
21.56496730124218
 21
-10.89848924865646
 31
0.0
  0
ARC
  5
1C0
330
2F
100
AcDbEntity
  8
hw_VTP
 62
4
100
AcDbCircle
 10
16.08523269875786
 20
-4.760132698757843
 30
0.0
 40
0.6586219474140103
100
AcDbArc
 50
90.0
 51
180.0
  0
LINE
  5
1C1
330
2F
100
AcDbEntity
  8
hw_VTP
 62
4
100
AcDbLine
 10
15.4266107513431
 20
-4.760132698757843
 30
0.0
 11
15.4266107513431
 21
-10.23986730124261
 31
0.0
  0
ARC
  5
1C2
330
2F
100
AcDbEntity
  8
hw_VTP
 62
4
100
AcDbCircle
 10
16.08523269875695
 20
-10.23986730124261
 30
0.0
 40
0.6586219474140103
100
AcDbArc
 50
180.0
 51
270.0
  0
LINE
  5
1C3
330
2F
100
AcDbEntity
  8
hw_VTP
 62
4
100
AcDbLine
 10
15.4266107513431
 20
-7.025792197861846
 30
0.0
 11
16.7177967564221
 21
-7.0257921978623
 31
0.0
  0
LINE
  5
1C4
330
2F
100
AcDbEntity
  8
hw_VTP
 62
4
100
AcDbLine
 10
15.4266107513431
 20
-7.974207802138152
 30
0.0
 11
16.7177967564221
 21
-7.974207802138152
 31
0.0
  0
ARC
  5
1C5
330
2F
100
AcDbEntity
  8
hw_VTP
 62
4
100
AcDbCircle
 10
21.56496730124218
 20
-4.760132698757387
 30
0.0
 40
0.6586219474140103
100
AcDbArc
 50
0.0
 51
90.0
  0
LINE
  5
1C6
330
2F
100
AcDbEntity
  8
hw_VTP
 62
4
100
AcDbLine
 10
22.22358924865603
 20
-10.23986730124261
 30
0.0
 11
22.22358924865603
 21
-4.760132698757387
 31
0.0
  0
ARC
  5
1C7
330
2F
100
AcDbEntity
  8
hw_VTP
 62
4
100
AcDbCircle
 10
21.56496730124218
 20
-10.23986730124261
 30
0.0
 40
0.6586219474140103
100
AcDbArc
 50
270.0
 51
0.0
  0
LINE
  5
1C8
330
2F
100
AcDbEntity
  8
hw_VTP
 62
4
100
AcDbLine
 10
19.29930780213817
 20
-10.89848924865646
 30
0.0
 11
19.29930780213817
 21
-9.607303243577462
 31
0.0
  0
LINE
  5
1C9
330
2F
100
AcDbEntity
  8
hw_VTP
 62
4
100
AcDbLine
 10
18.35089219786186
 20
-10.89848924865646
 30
0.0
 11
18.35089219786186
 21
-9.607303243577462
 31
0.0
  0
LINE
  5
1CA
330
2F
100
AcDbEntity
  8
hw_VTP
 62
4
100
AcDbLine
 10
22.22358924865603
 20
-7.974207802138607
 30
0.0
 11
20.93240324357703
 21
-7.974207802137696
 31
0.0
  0
LINE
  5
1CB
330
2F
100
AcDbEntity
  8
hw_VTP
 62
4
100
AcDbLine
 10
22.22358924865603
 20
-7.0257921978623
 30
0.0
 11
20.93240324357703
 21
-7.025792197861846
 31
0.0
  0
LINE
  5
1CC
330
2F
100
AcDbEntity
  8
hw_VTP
 62
4
100
AcDbLine
 10
19.29930780213817
 20
-4.101510751343538
 30
0.0
 11
19.29930780213817
 21
-5.392696756422537
 31
0.0
  0
LINE
  5
1CD
330
2F
100
AcDbEntity
  8
hw_VTP
 62
4
100
AcDbLine
 10
18.35089219786186
 20
-4.101510751343538
 30
0.0
 11
18.35089219786186
 21
-5.392696756422537
 31
0.0
  0
ARC
  5
1CE
330
2F
100
AcDbEntity
  8
hw_VTP
 62
4
100
AcDbCircle
 10
25.46863269875757
 20
-10.23986730124261
 30
0.0
 40
0.6586219474140103
100
AcDbArc
 50
180.0
 51
270.0
  0
LINE
  5
1CF
330
2F
100
AcDbEntity
  8
hw_VTP
 62
4
100
AcDbLine
 10
24.81001075134372
 20
-4.760132698757843
 30
0.0
 11
24.81001075134372
 21
-10.23986730124261
 31
0.0
  0
ARC
  5
1D0
330
2F
100
AcDbEntity
  8
hw_VTP
 62
4
100
AcDbCircle
 10
25.46863269875757
 20
-4.760132698757843
 30
0.0
 40
0.6586219474140103
100
AcDbArc
 50
90.0
 51
180.0
  0
LINE
  5
1D1
330
2F
100
AcDbEntity
  8
hw_VTP
 62
4
100
AcDbLine
 10
24.81001075134372
 20
-7.974207802138152
 30
0.0
 11
26.10119675642272
 21
-7.974207802138152
 31
0.0
  0
LINE
  5
1D2
330
2F
100
AcDbEntity
  8
hw_VTP
 62
4
100
AcDbLine
 10
24.81001075134372
 20
-7.025792197861846
 30
0.0
 11
26.10119675642272
 21
-7.0257921978623
 31
0.0
  0
LINE
  5
1D3
330
2F
100
AcDbEntity
  8
hw_VTP
 62
4
100
AcDbLine
 10
25.46863269875757
 20
-10.89848924865646
 30
0.0
 11
30.94836730124189
 21
-10.89848924865646
 31
0.0
  0
LINE
  5
1D4
330
2F
100
AcDbEntity
  8
hw_VTP
 62
4
100
AcDbLine
 10
30.94836730124189
 20
-4.101510751343538
 30
0.0
 11
25.46863269875757
 21
-4.101510751343538
 31
0.0
  0
LINE
  5
1D5
330
2F
100
AcDbEntity
  8
hw_VTP
 62
4
100
AcDbLine
 10
44.235432698757
 20
-10.89848924865646
 30
0.0
 11
49.71516730124132
 21
-10.89848924865646
 31
0.0
  0
LINE
  5
1D6
330
2F
100
AcDbEntity
  8
hw_VTP
 62
4
100
AcDbLine
 10
49.71516730124221
 20
-4.101510751343538
 30
0.0
 11
44.235432698757
 21
-4.101510751343538
 31
0.0
  0
CIRCLE
  5
1D7
330
2F
100
AcDbEntity
  8
hw_VTP
100
AcDbCircle
 10
46.97530000000006
 20
-7.5
 30
0.0
 40
2.159999999999973
  0
LINE
  5
1D8
330
2F
100
AcDbEntity
  8
hw_VTP
 62
3
100
AcDbLine
 10
15.08339999999953
 20
-11.05000000000018
 30
0.0
 11
15.08339999999953
 21
-3.0
 31
0.0
  0
LINE
  5
1D9
330
2F
100
AcDbEntity
  8
hw_VTP
 62
3
100
AcDbLine
 10
14.88340000000062
 20
-11.25000000000045
 30
0.0
 11
14.88340000000062
 21
-3.0
 31
0.0
  0
LINE
  5
1DA
330
2F
100
AcDbEntity
  8
hw_VTP
 62
3
100
AcDbLine
 10
22.56680000000051
 20
-11.05000000000018
 30
0.0
 11
22.56680000000051
 21
-3.0
 31
0.0
  0
LINE
  5
1DB
330
2F
100
AcDbEntity
  8
hw_VTP
 62
3
100
AcDbLine
 10
22.76679999999942
 20
-11.25000000000045
 30
0.0
 11
22.76679999999942
 21
-3.0
 31
0.0
  0
LINE
  5
1DC
330
2F
100
AcDbEntity
  8
hw_VTP
 62
3
100
AcDbLine
 10
24.26679999999942
 20
-11.25000000000045
 30
0.0
 11
24.26679999999942
 21
-3.0
 31
0.0
  0
LINE
  5
1DD
330
2F
100
AcDbEntity
  8
hw_VTP
 62
3
100
AcDbLine
 10
24.46680000000015
 20
-11.05000000000018
 30
0.0
 11
24.46680000000015
 21
-3.0
 31
0.0
  0
LINE
  5
1DE
330
2F
100
AcDbEntity
  8
hw_VTP
 62
3
100
AcDbLine
 10
33.85019999999986
 20
-11.05000000000018
 30
0.0
 11
33.85019999999986
 21
-3.0
 31
0.0
  0
LINE
  5
1DF
330
2F
100
AcDbEntity
  8
hw_VTP
 62
3
100
AcDbLine
 10
33.65020000000004
 20
-11.25000000000045
 30
0.0
 11
33.65020000000004
 21
-3.0
 31
0.0
  0
LINE
  5
1E0
330
2F
100
AcDbEntity
  8
hw_VTP
 62
3
100
AcDbLine
 10
32.15020000000004
 20
-11.25000000000045
 30
0.0
 11
32.15020000000004
 21
-3.0
 31
0.0
  0
LINE
  5
1E1
330
2F
100
AcDbEntity
  8
hw_VTP
 62
3
100
AcDbLine
 10
31.95020000000023
 20
-11.05000000000018
 30
0.0
 11
31.95019999999932
 21
-3.0
 31
0.0
  0
LINE
  5
1E2
330
2F
100
AcDbEntity
  8
hw_VTP
 62
3
100
AcDbLine
 10
43.23359999999957
 20
-11.05000000000018
 30
0.0
 11
43.23359999999957
 21
-3.0
 31
0.0
  0
LINE
  5
1E3
330
2F
100
AcDbEntity
  8
hw_VTP
 62
3
100
AcDbLine
 10
43.03359999999975
 20
-11.25000000000045
 30
0.0
 11
43.03359999999975
 21
-3.0
 31
0.0
  0
LINE
  5
1E4
330
2F
100
AcDbEntity
  8
hw_VTP
 62
3
100
AcDbLine
 10
41.53359999999975
 20
-11.25000000000045
 30
0.0
 11
41.53359999999975
 21
-3.0
 31
0.0
  0
LINE
  5
1E5
330
2F
100
AcDbEntity
  8
hw_VTP
 62
3
100
AcDbLine
 10
41.33359999999992
 20
-11.05000000000018
 30
0.0
 11
41.33359999999992
 21
-3.0
 31
0.0
  0
LINE
  5
1E6
330
2F
100
AcDbEntity
  8
hw_VTP
 62
3
100
AcDbLine
 10
52.61700000000018
 20
-11.05000000000018
 30
0.0
 11
52.61700000000018
 21
-3.0
 31
0.0
  0
LINE
  5
1E7
330
2F
100
AcDbEntity
  8
hw_VTP
 62
3
100
AcDbLine
 10
52.41699999999945
 20
-11.25000000000045
 30
0.0
 11
52.41699999999945
 21
-3.0
 31
0.0
  0
LINE
  5
1E8
330
2F
100
AcDbEntity
  8
hw_VTP
 62
3
100
AcDbLine
 10
50.91699999999946
 20
-11.25000000000045
 30
0.0
 11
50.91699999999946
 21
-3.0
 31
0.0
  0
LINE
  5
1E9
330
2F
100
AcDbEntity
  8
hw_VTP
 62
3
100
AcDbLine
 10
50.71699999999964
 20
-11.05000000000018
 30
0.0
 11
50.71699999999964
 21
-3.0
 31
0.0
  0
LINE
  5
1EA
330
2F
100
AcDbEntity
  8
hw_VTP
 62
3
100
AcDbLine
 10
62.00039999999989
 20
-11.05000000000063
 30
0.0
 11
62.00039999999989
 21
-3.000000000000453
 31
0.0
  0
LINE
  5
1EB
330
2F
100
AcDbEntity
  8
hw_VTP
 62
3
100
AcDbLine
 10
61.80040000000007
 20
-11.25000000000045
 30
0.0
 11
61.80040000000007
 21
-3.000000000000453
 31
0.0
  0
LINE
  5
1EC
330
2F
100
AcDbEntity
  8
hw_VTP
 62
3
100
AcDbLine
 10
60.30040000000007
 20
-11.25000000000045
 30
0.0
 11
60.30040000000007
 21
-3.000000000000453
 31
0.0
  0
LINE
  5
1ED
330
2F
100
AcDbEntity
  8
hw_VTP
 62
3
100
AcDbLine
 10
60.10039999999936
 20
-11.05000000000063
 30
0.0
 11
60.10039999999936
 21
-3.000000000000453
 31
0.0
  0
LINE
  5
1EE
330
2F
100
AcDbEntity
  8
hw_VTP
 62
3
100
AcDbLine
 10
71.38379999999961
 20
-11.05000000000063
 30
0.0
 11
71.38379999999961
 21
-3.000000000000453
 31
0.0
  0
LINE
  5
1EF
330
2F
100
AcDbEntity
  8
hw_VTP
 62
3
100
AcDbLine
 10
71.1837999999998
 20
-11.25000000000045
 30
0.0
 11
71.1837999999998
 21
-3.000000000000453
 31
0.0
  0
LINE
  5
1F0
330
2F
100
AcDbEntity
  8
hw_VTP
 62
3
100
AcDbLine
 10
69.68379999999979
 20
-11.25000000000045
 30
0.0
 11
69.68379999999979
 21
-3.000000000000453
 31
0.0
  0
LINE
  5
1F1
330
2F
100
AcDbEntity
  8
hw_VTP
 62
3
100
AcDbLine
 10
69.48379999999997
 20
-11.05000000000063
 30
0.0
 11
69.48379999999997
 21
-3.000000000000453
 31
0.0
  0
ARC
  5
1F2
330
2F
100
AcDbEntity
  8
hw_VTP
 62
3
100
AcDbCircle
 10
14.13340000000062
 20
11.25000000000045
 30
0.0
 40
0.75
100
AcDbArc
 50
0.0
 51
180.0
  0
ARC
  5
1F3
330
2F
100
AcDbEntity
  8
hw_VTP
 62
3
100
AcDbCircle
 10
14.13340000000062
 20
11.05000000000018
 30
0.0
 40
0.95
100
AcDbArc
 50
0.0
 51
180.0
  0
LINE
  5
1F4
330
2F
100
AcDbEntity
  8
hw_VTP
 62
4
100
AcDbLine
 10
6.109185639934366
 20
10.89848924865646
 30
0.0
 11
11.58892024241868
 21
10.89848924865646
 31
0.0
  0
LINE
  5
1F5
330
2F
100
AcDbEntity
  8
hw_VTP
100
AcDbLine
 10
8.499944221779513
 20
8.28549461864395
 30
0.0
 11
7.555560792396136
 21
9.22987804802642
 31
0.0
  0
ARC
  5
1F6
330
2F
100
AcDbEntity
  8
hw_VTP
 62
4
100
AcDbCircle
 10
6.109185639934366
 20
10.23986730124261
 30
0.0
 40
0.6586219474140103
100
AcDbArc
 50
90.0
 51
180.0
  0
LINE
  5
1F7
330
2F
100
AcDbEntity
  8
hw_VTP
 62
4
100
AcDbLine
 10
5.450563692520518
 20
7.974207802138152
 30
0.0
 11
6.741749697599517
 21
7.974207802138152
 31
0.0
  0
ARC
  5
1F8
330
2F
100
AcDbEntity
  8
hw_VTP
 62
4
100
AcDbCircle
 10
11.58892024241868
 20
10.23986730124261
 30
0.0
 40
0.6586219474140103
100
AcDbArc
 50
0.0
 51
90.0
  0
LINE
  5
1F9
330
2F
100
AcDbEntity
  8
hw_VTP
100
AcDbLine
 10
9.89637909936755
 20
8.110940258944991
 30
0.0
 11
9.459993200121973
 21
8.547326158191481
 31
0.0
  0
LINE
  5
1FA
330
2F
100
AcDbEntity
  8
hw_VTP
100
AcDbLine
 10
9.459993200121973
 20
8.547326158191481
 30
0.0
 11
9.198161660573534
 21
8.28549461864395
 31
0.0
  0
ARC
  5
1FB
330
2F
100
AcDbEntity
  8
hw_VTP
100
AcDbCircle
 10
8.849052941176524
 20
8.634603338040959
 30
0.0
 40
0.4937142857142798
100
AcDbArc
 50
225.0000000000092
 51
314.9999999999908
  0
LINE
  5
1FC
330
2F
100
AcDbEntity
  8
hw_VTP
 62
4
100
AcDbLine
 10
9.323260743314677
 20
10.89848924865646
 30
0.0
 11
9.323260743314677
 21
9.607303243577462
 31
0.0
  0
LINE
  5
1FD
330
2F
100
AcDbEntity
  8
hw_VTP
 62
4
100
AcDbLine
 10
8.374845139038367
 20
10.89848924865646
 30
0.0
 11
8.374845139038367
 21
9.607303243577462
 31
0.0
  0
LINE
  5
1FE
330
2F
100
AcDbEntity
  8
hw_VTP
 62
4
100
AcDbLine
 10
12.24754218983253
 20
7.974207802138607
 30
0.0
 11
10.95635618475353
 21
7.974207802137696
 31
0.0
  0
ARC
  5
1FF
330
2F
100
AcDbEntity
  8
hw_VTP
 62
3
100
AcDbCircle
 10
51.66699999999945
 20
11.05000000000018
 30
0.0
 40
0.95
100
AcDbArc
 50
0.0
 51
180.0
  0
ARC
  5
200
330
2F
100
AcDbEntity
  8
hw_VTP
 62
3
100
AcDbCircle
 10
51.66699999999945
 20
11.25000000000045
 30
0.0
 40
0.75
100
AcDbArc
 50
0.0
 51
180.0
  0
ARC
  5
201
330
2F
100
AcDbEntity
  8
hw_VTP
 62
3
100
AcDbCircle
 10
61.05040000000007
 20
11.04999999999972
 30
0.0
 40
0.95
100
AcDbArc
 50
0.0
 51
180.0
  0
ARC
  5
202
330
2F
100
AcDbEntity
  8
hw_VTP
 62
3
100
AcDbCircle
 10
61.05040000000007
 20
11.25
 30
0.0
 40
0.75
100
AcDbArc
 50
0.0
 51
180.0
  0
ARC
  5
203
330
2F
100
AcDbEntity
  8
hw_VTP
 62
3
100
AcDbCircle
 10
70.4337999999998
 20
11.04999999999972
 30
0.0
 40
0.95
100
AcDbArc
 50
0.0
 51
180.0
  0
ARC
  5
204
330
2F
100
AcDbEntity
  8
hw_VTP
 62
3
100
AcDbCircle
 10
70.4337999999998
 20
11.25
 30
0.0
 40
0.75
100
AcDbArc
 50
0.0
 51
180.0
  0
ARC
  5
205
330
2F
100
AcDbEntity
  8
hw_VTP
 62
4
100
AcDbCircle
 10
49.71516730124132
 20
10.23986730124261
 30
0.0
 40
0.6586219474140103
100
AcDbArc
 50
0.0
 51
90.0
  0
LINE
  5
206
330
2F
100
AcDbEntity
  8
hw_VTP
 62
4
100
AcDbLine
 10
50.37378924865606
 20
7.974207802138607
 30
0.0
 11
49.08260324357707
 21
7.974207802137696
 31
0.0
  0
LINE
  5
207
330
2F
100
AcDbEntity
  8
hw_VTP
100
AcDbLine
 10
56.00959128060276
 20
8.28549461864395
 30
0.0
 11
55.06520785121939
 21
9.22987804802642
 31
0.0
  0
ARC
  5
208
330
2F
100
AcDbEntity
  8
hw_VTP
100
AcDbCircle
 10
56.35869999999977
 20
8.634603338040959
 30
0.0
 40
0.4937142857142798
100
AcDbArc
 50
225.0000000000092
 51
314.9999999999908
  0
LINE
  5
209
330
2F
100
AcDbEntity
  8
hw_VTP
100
AcDbLine
 10
56.96964025894522
 20
8.547326158191481
 30
0.0
 11
56.70780871939678
 21
8.28549461864395
 31
0.0
  0
LINE
  5
20A
330
2F
100
AcDbEntity
  8
hw_VTP
100
AcDbLine
 10
57.40602615819079
 20
8.110940258944991
 30
0.0
 11
56.96964025894522
 21
8.547326158191481
 31
0.0
  0
LINE
  5
20B
330
2F
100
AcDbEntity
  8
hw_VTP
 62
4
100
AcDbLine
 10
53.61883269875761
 20
10.89848924865646
 30
0.0
 11
59.09856730124193
 21
10.89848924865646
 31
0.0
  0
ARC
  5
20C
330
2F
100
AcDbEntity
  8
hw_VTP
 62
4
100
AcDbCircle
 10
53.61883269875761
 20
10.23986730124261
 30
0.0
 40
0.6586219474140103
100
AcDbArc
 50
90.0
 51
180.0
  0
LINE
  5
20D
330
2F
100
AcDbEntity
  8
hw_VTP
 62
4
100
AcDbLine
 10
52.96021075134376
 20
7.974207802138152
 30
0.0
 11
54.25139675642276
 21
7.974207802138152
 31
0.0
  0
ARC
  5
20E
330
2F
100
AcDbEntity
  8
hw_VTP
 62
4
100
AcDbCircle
 10
59.09856730124193
 20
10.23986730124261
 30
0.0
 40
0.6586219474140103
100
AcDbArc
 50
0.0
 51
90.0
  0
LINE
  5
20F
330
2F
100
AcDbEntity
  8
hw_VTP
 62
4
100
AcDbLine
 10
56.83290780213791
 20
10.89848924865646
 30
0.0
 11
56.83290780213791
 21
9.607303243577462
 31
0.0
  0
LINE
  5
210
330
2F
100
AcDbEntity
  8
hw_VTP
 62
4
100
AcDbLine
 10
55.88449219786161
 20
10.89848924865646
 30
0.0
 11
55.88449219786161
 21
9.607303243577462
 31
0.0
  0
LINE
  5
211
330
2F
100
AcDbEntity
  8
hw_VTP
 62
4
100
AcDbLine
 10
59.75718924865578
 20
7.974207802138607
 30
0.0
 11
58.46600324357678
 21
7.974207802137696
 31
0.0
  0
LINE
  5
212
330
2F
100
AcDbEntity
  8
hw_VTP
100
AcDbLine
 10
65.39299128060246
 20
8.285494618643497
 30
0.0
 11
64.44860785122
 21
9.22987804802642
 31
0.0
  0
ARC
  5
213
330
2F
100
AcDbEntity
  8
hw_VTP
100
AcDbCircle
 10
65.74209999999948
 20
8.634603338040959
 30
0.0
 40
0.4937142857142798
100
AcDbArc
 50
225.0000000000092
 51
314.9999999999908
  0
LINE
  5
214
330
2F
100
AcDbEntity
  8
hw_VTP
100
AcDbLine
 10
66.35304025894493
 20
8.547326158191481
 30
0.0
 11
66.0912087193974
 21
8.285494618643497
 31
0.0
  0
LINE
  5
215
330
2F
100
AcDbEntity
  8
hw_VTP
100
AcDbLine
 10
66.78942615819142
 20
8.110940258944991
 30
0.0
 11
66.35304025894493
 21
8.547326158191481
 31
0.0
  0
LINE
  5
216
330
2F
100
AcDbEntity
  8
hw_VTP
 62
4
100
AcDbLine
 10
63.00223269875733
 20
10.898489248656
 30
0.0
 11
68.48196730124164
 21
10.898489248656
 31
0.0
  0
ARC
  5
217
330
2F
100
AcDbEntity
  8
hw_VTP
 62
4
100
AcDbCircle
 10
63.00223269875733
 20
10.23986730124216
 30
0.0
 40
0.6586219474140103
100
AcDbArc
 50
90.0
 51
180.0
  0
LINE
  5
218
330
2F
100
AcDbEntity
  8
hw_VTP
 62
4
100
AcDbLine
 10
62.34361075134348
 20
7.974207802137696
 30
0.0
 11
63.63479675642247
 21
7.974207802137696
 31
0.0
  0
ARC
  5
219
330
2F
100
AcDbEntity
  8
hw_VTP
 62
4
100
AcDbCircle
 10
68.48196730124164
 20
10.23986730124216
 30
0.0
 40
0.6586219474140103
100
AcDbArc
 50
0.0
 51
90.0
  0
LINE
  5
21A
330
2F
100
AcDbEntity
  8
hw_VTP
 62
4
100
AcDbLine
 10
66.21630780213764
 20
10.898489248656
 30
0.0
 11
66.21630780213764
 21
9.607303243577007
 31
0.0
  0
LINE
  5
21B
330
2F
100
AcDbEntity
  8
hw_VTP
 62
4
100
AcDbLine
 10
65.26789219786133
 20
10.898489248656
 30
0.0
 11
65.26789219786133
 21
9.607303243577007
 31
0.0
  0
LINE
  5
21C
330
2F
100
AcDbEntity
  8
hw_VTP
 62
4
100
AcDbLine
 10
69.14058924865638
 20
7.974207802138152
 30
0.0
 11
67.8494032435774
 21
7.974207802137696
 31
0.0
  0
ARC
  5
21D
330
2F
100
AcDbEntity
  8
hw_VTP
 62
3
100
AcDbCircle
 10
32.90020000000004
 20
11.05000000000018
 30
0.0
 40
0.95
100
AcDbArc
 50
0.0
 51
180.0
  0
ARC
  5
21E
330
2F
100
AcDbEntity
  8
hw_VTP
 62
3
100
AcDbCircle
 10
32.90020000000004
 20
11.25000000000045
 30
0.0
 40
0.75
100
AcDbArc
 50
0.0
 51
180.0
  0
ARC
  5
21F
330
2F
100
AcDbEntity
  8
hw_VTP
 62
3
100
AcDbCircle
 10
42.28359999999975
 20
11.05000000000018
 30
0.0
 40
0.95
100
AcDbArc
 50
0.0
 51
180.0
  0
ARC
  5
220
330
2F
100
AcDbEntity
  8
hw_VTP
 62
3
100
AcDbCircle
 10
42.28359999999975
 20
11.25000000000045
 30
0.0
 40
0.75
100
AcDbArc
 50
0.0
 51
180.0
  0
LINE
  5
221
330
2F
100
AcDbEntity
  8
hw_VTP
100
AcDbLine
 10
27.85939128060272
 20
8.28549461864395
 30
0.0
 11
26.91500785121935
 21
9.22987804802642
 31
0.0
  0
ARC
  5
222
330
2F
100
AcDbEntity
  8
hw_VTP
100
AcDbCircle
 10
28.20849999999973
 20
8.634603338040959
 30
0.0
 40
0.4937142857142798
100
AcDbArc
 50
225.0000000000092
 51
314.9999999999908
  0
LINE
  5
223
330
2F
100
AcDbEntity
  8
hw_VTP
100
AcDbLine
 10
28.81944025894518
 20
8.547326158191481
 30
0.0
 11
28.55760871939674
 21
8.28549461864395
 31
0.0
  0
LINE
  5
224
330
2F
100
AcDbEntity
  8
hw_VTP
100
AcDbLine
 10
29.25582615819167
 20
8.110940258944991
 30
0.0
 11
28.81944025894518
 21
8.547326158191481
 31
0.0
  0
ARC
  5
225
330
2F
100
AcDbEntity
  8
hw_VTP
 62
4
100
AcDbCircle
 10
30.94836730124189
 20
10.23986730124261
 30
0.0
 40
0.6586219474140103
100
AcDbArc
 50
0.0
 51
90.0
  0
LINE
  5
226
330
2F
100
AcDbEntity
  8
hw_VTP
 62
4
100
AcDbLine
 10
28.68270780213789
 20
10.89848924865646
 30
0.0
 11
28.68270780213789
 21
9.607303243577462
 31
0.0
  0
LINE
  5
227
330
2F
100
AcDbEntity
  8
hw_VTP
 62
4
100
AcDbLine
 10
27.73429219786158
 20
10.89848924865646
 30
0.0
 11
27.73429219786158
 21
9.607303243577462
 31
0.0
  0
LINE
  5
228
330
2F
100
AcDbEntity
  8
hw_VTP
 62
4
100
AcDbLine
 10
31.60698924865574
 20
7.974207802138607
 30
0.0
 11
30.31580324357674
 21
7.974207802137696
 31
0.0
  0
LINE
  5
229
330
2F
100
AcDbEntity
  8
hw_VTP
100
AcDbLine
 10
37.24279128060243
 20
8.28549461864395
 30
0.0
 11
36.29840785121996
 21
9.22987804802642
 31
0.0
  0
ARC
  5
22A
330
2F
100
AcDbEntity
  8
hw_VTP
100
AcDbCircle
 10
37.59189999999943
 20
8.634603338040959
 30
0.0
 40
0.4937142857142798
100
AcDbArc
 50
225.0000000000092
 51
314.9999999999908
  0
LINE
  5
22B
330
2F
100
AcDbEntity
  8
hw_VTP
100
AcDbLine
 10
38.2028402589449
 20
8.547326158191481
 30
0.0
 11
37.94100871939736
 21
8.28549461864395
 31
0.0
  0
LINE
  5
22C
330
2F
100
AcDbEntity
  8
hw_VTP
100
AcDbLine
 10
38.63922615819138
 20
8.110940258944991
 30
0.0
 11
38.2028402589449
 21
8.547326158191481
 31
0.0
  0
LINE
  5
22D
330
2F
100
AcDbEntity
  8
hw_VTP
 62
4
100
AcDbLine
 10
34.85203269875729
 20
10.89848924865646
 30
0.0
 11
40.3317673012425
 21
10.89848924865646
 31
0.0
  0
ARC
  5
22E
330
2F
100
AcDbEntity
  8
hw_VTP
 62
4
100
AcDbCircle
 10
34.85203269875729
 20
10.23986730124261
 30
0.0
 40
0.6586219474140103
100
AcDbArc
 50
90.0
 51
180.0
  0
LINE
  5
22F
330
2F
100
AcDbEntity
  8
hw_VTP
 62
4
100
AcDbLine
 10
34.19341075134344
 20
7.974207802138152
 30
0.0
 11
35.48459675642244
 21
7.974207802138152
 31
0.0
  0
ARC
  5
230
330
2F
100
AcDbEntity
  8
hw_VTP
 62
4
100
AcDbCircle
 10
40.3317673012425
 20
10.23986730124261
 30
0.0
 40
0.6586219474140103
100
AcDbArc
 50
0.0
 51
90.0
  0
LINE
  5
231
330
2F
100
AcDbEntity
  8
hw_VTP
 62
4
100
AcDbLine
 10
38.06610780213759
 20
10.89848924865646
 30
0.0
 11
38.0661078021385
 21
9.607303243577462
 31
0.0
  0
LINE
  5
232
330
2F
100
AcDbEntity
  8
hw_VTP
 62
4
100
AcDbLine
 10
37.11769219786129
 20
10.89848924865646
 30
0.0
 11
37.11769219786221
 21
9.607303243577462
 31
0.0
  0
LINE
  5
233
330
2F
100
AcDbEntity
  8
hw_VTP
 62
4
100
AcDbLine
 10
40.99038924865634
 20
7.974207802138607
 30
0.0
 11
39.69920324357736
 21
7.974207802137696
 31
0.0
  0
LINE
  5
234
330
2F
100
AcDbEntity
  8
hw_VTP
100
AcDbLine
 10
46.62619128060214
 20
8.28549461864395
 30
0.0
 11
45.68180785121967
 21
9.22987804802642
 31
0.0
  0
ARC
  5
235
330
2F
100
AcDbEntity
  8
hw_VTP
100
AcDbCircle
 10
46.97530000000006
 20
8.634603338040959
 30
0.0
 40
0.4937142857142798
100
AcDbArc
 50
225.0000000000092
 51
314.9999999999908
  0
LINE
  5
236
330
2F
100
AcDbEntity
  8
hw_VTP
100
AcDbLine
 10
47.5862402589446
 20
8.547326158191481
 30
0.0
 11
47.32440871939707
 21
8.28549461864395
 31
0.0
  0
LINE
  5
237
330
2F
100
AcDbEntity
  8
hw_VTP
100
AcDbLine
 10
48.02262615819199
 20
8.110940258944991
 30
0.0
 11
47.5862402589446
 21
8.547326158191481
 31
0.0
  0
ARC
  5
238
330
2F
100
AcDbEntity
  8
hw_VTP
 62
4
100
AcDbCircle
 10
44.235432698757
 20
10.23986730124261
 30
0.0
 40
0.6586219474140103
100
AcDbArc
 50
90.0
 51
180.0
  0
LINE
  5
239
330
2F
100
AcDbEntity
  8
hw_VTP
 62
4
100
AcDbLine
 10
43.57681075134315
 20
7.974207802138152
 30
0.0
 11
44.86799675642213
 21
7.974207802138152
 31
0.0
  0
LINE
  5
23A
330
2F
100
AcDbEntity
  8
hw_VTP
 62
4
100
AcDbLine
 10
47.4495078021373
 20
10.89848924865646
 30
0.0
 11
47.4495078021373
 21
9.607303243577462
 31
0.0
  0
LINE
  5
23B
330
2F
100
AcDbEntity
  8
hw_VTP
 62
4
100
AcDbLine
 10
46.501092197861
 20
10.89848924865646
 30
0.0
 11
46.501092197861
 21
9.607303243577462
 31
0.0
  0
ARC
  5
23C
330
2F
100
AcDbEntity
  8
hw_VTP
 62
3
100
AcDbCircle
 10
23.51679999999943
 20
11.25000000000045
 30
0.0
 40
0.75
100
AcDbArc
 50
0.0
 51
180.0
  0
ARC
  5
23D
330
2F
100
AcDbEntity
  8
hw_VTP
 62
3
100
AcDbCircle
 10
23.51679999999943
 20
11.05000000000018
 30
0.0
 40
0.95
100
AcDbArc
 50
0.0
 51
180.0
  0
LINE
  5
23E
330
2F
100
AcDbEntity
  8
hw_VTP
 62
4
100
AcDbLine
 10
22.22358924865603
 20
7.974207802138607
 30
0.0
 11
20.93240324357703
 21
7.974207802137696
 31
0.0
  0
LINE
  5
23F
330
2F
100
AcDbEntity
  8
hw_VTP
 62
4
100
AcDbLine
 10
18.35089219786186
 20
10.89848924865646
 30
0.0
 11
18.35089219786186
 21
9.607303243577462
 31
0.0
  0
LINE
  5
240
330
2F
100
AcDbEntity
  8
hw_VTP
 62
4
100
AcDbLine
 10
19.29930780213817
 20
10.89848924865646
 30
0.0
 11
19.29930780213817
 21
9.607303243577462
 31
0.0
  0
ARC
  5
241
330
2F
100
AcDbEntity
  8
hw_VTP
 62
4
100
AcDbCircle
 10
21.56496730124218
 20
10.23986730124261
 30
0.0
 40
0.6586219474140103
100
AcDbArc
 50
0.0
 51
90.0
  0
LINE
  5
242
330
2F
100
AcDbEntity
  8
hw_VTP
 62
4
100
AcDbLine
 10
15.4266107513431
 20
7.974207802138152
 30
0.0
 11
16.7177967564221
 21
7.974207802138152
 31
0.0
  0
ARC
  5
243
330
2F
100
AcDbEntity
  8
hw_VTP
 62
4
100
AcDbCircle
 10
16.08523269875695
 20
10.23986730124261
 30
0.0
 40
0.6586219474140103
100
AcDbArc
 50
90.0
 51
180.0
  0
LINE
  5
244
330
2F
100
AcDbEntity
  8
hw_VTP
 62
4
100
AcDbLine
 10
16.08523269875695
 20
10.89848924865646
 30
0.0
 11
21.56496730124218
 21
10.89848924865646
 31
0.0
  0
LINE
  5
245
330
2F
100
AcDbEntity
  8
hw_VTP
100
AcDbLine
 10
19.87242615819196
 20
8.110940258944991
 30
0.0
 11
19.43604025894456
 21
8.547326158191481
 31
0.0
  0
LINE
  5
246
330
2F
100
AcDbEntity
  8
hw_VTP
100
AcDbLine
 10
19.43604025894456
 20
8.547326158191481
 30
0.0
 11
19.17420871939703
 21
8.28549461864395
 31
0.0
  0
ARC
  5
247
330
2F
100
AcDbEntity
  8
hw_VTP
100
AcDbCircle
 10
18.82510000000002
 20
8.634603338040959
 30
0.0
 40
0.4937142857142798
100
AcDbArc
 50
225.0000000000092
 51
314.9999999999908
  0
LINE
  5
248
330
2F
100
AcDbEntity
  8
hw_VTP
100
AcDbLine
 10
18.47599128060301
 20
8.28549461864395
 30
0.0
 11
17.53160785122054
 21
9.22987804802642
 31
0.0
  0
ARC
  5
249
330
2F
100
AcDbEntity
  8
hw_VTP
 62
4
100
AcDbCircle
 10
25.46863269875757
 20
10.23986730124261
 30
0.0
 40
0.6586219474140103
100
AcDbArc
 50
90.0
 51
180.0
  0
LINE
  5
24A
330
2F
100
AcDbEntity
  8
hw_VTP
 62
4
100
AcDbLine
 10
25.46863269875757
 20
10.89848924865646
 30
0.0
 11
30.94836730124189
 21
10.89848924865646
 31
0.0
  0
LINE
  5
24B
330
2F
100
AcDbEntity
  8
hw_VTP
 62
4
100
AcDbLine
 10
24.81001075134372
 20
7.974207802138152
 30
0.0
 11
26.10119675642272
 21
7.974207802138152
 31
0.0
  0
LINE
  5
24C
330
2F
100
AcDbEntity
  8
hw_VTP
 62
4
100
AcDbLine
 10
44.235432698757
 20
10.89848924865646
 30
0.0
 11
49.71516730124132
 21
10.89848924865646
 31
0.0
  0
LINE
  5
24D
330
2F
100
AcDbEntity
  8
hw_VTP
 62
4
100
AcDbLine
 10
97.46643630747985
 20
10.23986730124261
 30
0.0
 11
97.46643630747985
 21
4.760132698757387
 31
0.0
  0
LINE
  5
24E
330
2F
100
AcDbEntity
  8
hw_VTP
100
AcDbLine
 10
107.25
 20
12.0
 30
0.0
 11
107.25
 21
-12.0
 31
0.0
  0
LINE
  5
24F
330
2F
100
AcDbEntity
  8
hw_VTP
100
AcDbLine
 10
98.25000000000001
 20
12.0
 30
0.0
 11
98.25000000000001
 21
-12.0
 31
0.0
  0
LINE
  5
250
330
2F
100
AcDbEntity
  8
hw_VTP
 62
3
100
AcDbLine
 10
80.76719999999932
 20
11.04999999999972
 30
0.0
 11
80.76719999999932
 21
2.999999999999545
 31
0.0
  0
LINE
  5
251
330
2F
100
AcDbEntity
  8
hw_VTP
 62
3
100
AcDbLine
 10
80.5671999999995
 20
11.24999999999954
 30
0.0
 11
80.5671999999995
 21
2.999999999999545
 31
0.0
  0
LINE
  5
252
330
2F
100
AcDbEntity
  8
hw_VTP
 62
3
100
AcDbLine
 10
79.0671999999995
 20
11.24999999999954
 30
0.0
 11
79.0671999999995
 21
2.999999999999545
 31
0.0
  0
LINE
  5
253
330
2F
100
AcDbEntity
  8
hw_VTP
 62
3
100
AcDbLine
 10
78.86719999999968
 20
11.04999999999972
 30
0.0
 11
78.86719999999968
 21
2.999999999999545
 31
0.0
  0
LINE
  5
254
330
2F
100
AcDbEntity
  8
hw_VTP
 62
3
100
AcDbLine
 10
90.15059999999905
 20
11.04999999999972
 30
0.0
 11
90.15059999999905
 21
2.999999999999545
 31
0.0
  0
LINE
  5
255
330
2F
100
AcDbEntity
  8
hw_VTP
 62
3
100
AcDbLine
 10
89.95060000000014
 20
11.24999999999954
 30
0.0
 11
89.95060000000014
 21
2.999999999999545
 31
0.0
  0
LINE
  5
256
330
2F
100
AcDbEntity
  8
hw_VTP
 62
3
100
AcDbLine
 10
88.45060000000014
 20
11.24999999999954
 30
0.0
 11
88.45060000000014
 21
2.999999999999545
 31
0.0
  0
LINE
  5
257
330
2F
100
AcDbEntity
  8
hw_VTP
 62
3
100
AcDbLine
 10
88.25059999999941
 20
11.04999999999972
 30
0.0
 11
88.25059999999941
 21
2.999999999999545
 31
0.0
  0
CIRCLE
  5
258
330
2F
100
AcDbEntity
  8
hw_VTP
100
AcDbCircle
 10
75.1255000000001
 20
7.499999999999544
 30
0.0
 40
2.159999999999973
  0
LINE
  5
259
330
2F
100
AcDbEntity
  8
hw_VTP
100
AcDbLine
 10
74.3400053813557
 20
7.849108719397007
 30
0.0
 11
73.39562195197324
 21
8.793492148779931
 31
0.0
  0
LINE
  5
25A
330
2F
100
AcDbEntity
  8
hw_VTP
100
AcDbLine
 10
76.17282615819113
 20
8.110940258944991
 30
0.0
 11
75.91099461864358
 21
7.849108719397007
 31
0.0
  0
LINE
  5
25B
330
2F
100
AcDbEntity
  8
hw_VTP
 62
4
100
AcDbLine
 10
78.5239892486552
 20
10.2398673012417
 30
0.0
 11
78.5239892486561
 21
4.760132698757387
 31
0.0
  0
CIRCLE
  5
25C
330
2F
100
AcDbEntity
  8
hw_VTP
100
AcDbCircle
 10
84.50889999999981
 20
7.5
 30
0.0
 40
2.159999999999973
  0
LINE
  5
25D
330
2F
100
AcDbEntity
  8
hw_VTP
100
AcDbLine
 10
83.7234053813554
 20
7.849108719397462
 30
0.0
 11
82.77902195197294
 21
8.793492148779931
 31
0.0
  0
LINE
  5
25E
330
2F
100
AcDbEntity
  8
hw_VTP
100
AcDbLine
 10
85.55622615819084
 20
8.110940258944991
 30
0.0
 11
85.29439461864331
 21
7.849108719397462
 31
0.0
  0
LINE
  5
25F
330
2F
100
AcDbEntity
  8
hw_VTP
 62
4
100
AcDbLine
 10
81.11041075134378
 20
4.760132698757843
 30
0.0
 11
81.11041075134291
 21
10.23986730124261
 31
0.0
  0
LINE
  5
260
330
2F
100
AcDbEntity
  8
hw_VTP
 62
4
100
AcDbLine
 10
87.90738924865582
 20
10.23986730124261
 30
0.0
 11
87.90738924865582
 21
4.760132698757387
 31
0.0
  0
LINE
  5
261
330
2F
100
AcDbEntity
  8
hw_VTP
100
AcDbLine
 10
93.28245244017944
 20
7.849108719397462
 30
0.0
 11
92.33806901079693
 21
8.793492148779931
 31
0.0
  0
LINE
  5
262
330
2F
100
AcDbEntity
  8
hw_VTP
 62
4
100
AcDbLine
 10
90.66945781016693
 20
4.760132698757843
 30
0.0
 11
90.66945781016693
 21
10.23986730124261
 31
0.0
  0
CIRCLE
  5
263
330
2F
100
AcDbEntity
  8
hw_VTP
100
AcDbCircle
 10
94.06794705882385
 20
7.5
 30
0.0
 40
2.159999999999973
  0
LINE
  5
264
330
2F
100
AcDbEntity
  8
hw_VTP
100
AcDbLine
 10
95.11527321701485
 20
8.110940258944991
 30
0.0
 11
94.85344167746736
 21
7.849108719397462
 31
0.0
  0
ARC
  5
265
330
2F
100
AcDbEntity
  8
hw_VTP
 62
4
100
AcDbCircle
 10
96.80781436006599
 20
4.760132698757387
 30
0.0
 40
0.6586219474140103
100
AcDbArc
 50
270.0
 51
0.0
  0
LINE
  5
266
330
2F
100
AcDbEntity
  8
hw_VTP
 62
4
100
AcDbLine
 10
97.46643630747985
 20
7.0257921978623
 30
0.0
 11
96.17525030240085
 21
7.025792197861846
 31
0.0
  0
ARC
  5
267
330
2F
100
AcDbEntity
  8
hw_VTP
 62
4
100
AcDbCircle
 10
102.5
 20
0.0
 30
0.0
 40
2.75
100
AcDbArc
 50
313.3417582272223
 51
46.65824177277765
  0
ARC
  5
268
330
2F
100
AcDbEntity
  8
hw_VTP
 62
4
100
AcDbCircle
 10
102.5
 20
0.0
 30
0.0
 40
2.75
100
AcDbArc
 50
133.3417582272223
 51
226.6582417727776
  0
LINE
  5
269
330
2F
100
AcDbEntity
  8
hw_VTP
 62
4
100
AcDbLine
 10
104.3874586088177
 20
-2.0
 30
0.0
 11
100.6125413911822
 21
-2.0
 31
0.0
  0
LINE
  5
26A
330
2F
100
AcDbEntity
  8
hw_VTP
 62
4
100
AcDbLine
 10
104.3874586088177
 20
2.0
 30
0.0
 11
100.6125413911822
 21
2.0
 31
0.0
  0
LINE
  5
26B
330
2F
100
AcDbEntity
  8
hw_VTP
 62
4
100
AcDbLine
 10
97.46643630747985
 20
-7.0257921978623
 30
0.0
 11
96.17525030240085
 21
-7.025792197861846
 31
0.0
  0
LINE
  5
26C
330
2F
100
AcDbEntity
  8
hw_VTP
 62
4
100
AcDbLine
 10
97.46643630747985
 20
-7.974207802138607
 30
0.0
 11
96.17525030240085
 21
-7.974207802137696
 31
0.0
  0
ARC
  5
26D
330
2F
100
AcDbEntity
  8
hw_VTP
 62
4
100
AcDbCircle
 10
96.8078143600651
 20
-10.23986730124261
 30
0.0
 40
0.6586219474140103
100
AcDbArc
 50
270.0
 51
0.0
  0
LINE
  5
26E
330
2F
100
AcDbEntity
  8
hw_VTP
 62
4
100
AcDbLine
 10
97.46643630747985
 20
-10.23986730124261
 30
0.0
 11
97.46643630747985
 21
-4.760132698757387
 31
0.0
  0
ARC
  5
26F
330
2F
100
AcDbEntity
  8
hw_VTP
 62
4
100
AcDbCircle
 10
96.80781436006599
 20
-4.760132698757387
 30
0.0
 40
0.6586219474140103
100
AcDbArc
 50
0.0
 51
90.0
  0
CIRCLE
  5
270
330
2F
100
AcDbEntity
  8
hw_VTP
 62
4
100
AcDbCircle
 10
102.5
 20
0.0
 30
0.0
 40
3.5
  0
ARC
  5
271
330
2F
100
AcDbEntity
  8
hw_VTP
100
AcDbCircle
 10
73.99089666195869
 20
7.499999999999544
 30
0.0
 40
0.4937142857142798
100
AcDbArc
 50
314.9999999999908
 51
45.00000000000921
  0
ARC
  5
272
330
2F
100
AcDbEntity
  8
hw_VTP
100
AcDbCircle
 10
76.2601033380406
 20
7.499999999999544
 30
0.0
 40
0.4937142857142798
100
AcDbArc
 50
134.9999999999908
 51
225.0000000000092
  0
ARC
  5
273
330
2F
100
AcDbEntity
  8
hw_VTP
100
AcDbCircle
 10
75.1255000000001
 20
6.365396661958583
 30
0.0
 40
0.4937142857142798
100
AcDbArc
 50
44.99999999999078
 51
134.9999999999908
  0
LINE
  5
274
330
2F
100
AcDbEntity
  8
hw_VTP
100
AcDbLine
 10
74.77639128060218
 20
6.714505381356047
 30
0.0
 11
74.51455974105376
 21
6.452673841808064
 31
0.0
  0
LINE
  5
275
330
2F
100
AcDbEntity
  8
hw_VTP
100
AcDbLine
 10
74.3400053813557
 20
7.150891280602536
 30
0.0
 11
74.07817384180815
 21
6.889059741054552
 31
0.0
  0
LINE
  5
276
330
2F
100
AcDbEntity
  8
hw_VTP
100
AcDbLine
 10
74.51455974105376
 20
6.452673841808064
 30
0.0
 11
74.07817384180815
 21
6.889059741054552
 31
0.0
  0
LINE
  5
277
330
2F
100
AcDbEntity
  8
hw_VTP
100
AcDbLine
 10
76.85537804802605
 20
6.206507851219612
 30
0.0
 11
75.91099461864358
 21
7.150891280602536
 31
0.0
  0
LINE
  5
278
330
2F
100
AcDbEntity
  8
hw_VTP
100
AcDbLine
 10
76.41899214877958
 20
5.770121951973122
 30
0.0
 11
75.47460871939711
 21
6.714505381356047
 31
0.0
  0
LINE
  5
279
330
2F
100
AcDbEntity
  8
hw_VTP
 62
4
100
AcDbLine
 10
77.86536730124133
 20
4.101510751343538
 30
0.0
 11
72.38563269875704
 21
4.101510751343538
 31
0.0
  0
ARC
  5
27A
330
2F
100
AcDbEntity
  8
hw_VTP
 62
4
100
AcDbCircle
 10
77.86536730124133
 20
4.760132698757387
 30
0.0
 40
0.6586219474140103
100
AcDbArc
 50
270.0
 51
0.0
  0
LINE
  5
27B
330
2F
100
AcDbEntity
  8
hw_VTP
 62
4
100
AcDbLine
 10
78.5239892486561
 20
7.025792197861846
 30
0.0
 11
77.23280324357711
 21
7.025792197861392
 31
0.0
  0
LINE
  5
27C
330
2F
100
AcDbEntity
  8
hw_VTP
 62
4
100
AcDbLine
 10
75.59970780213735
 20
4.101510751343538
 30
0.0
 11
75.59970780213735
 21
5.392696756422537
 31
0.0
  0
LINE
  5
27D
330
2F
100
AcDbEntity
  8
hw_VTP
 62
4
100
AcDbLine
 10
74.65129219786105
 20
4.101510751343538
 30
0.0
 11
74.65129219786105
 21
5.392696756422537
 31
0.0
  0
ARC
  5
27E
330
2F
100
AcDbEntity
  8
hw_VTP
100
AcDbCircle
 10
83.37429666195841
 20
7.5
 30
0.0
 40
0.4937142857142798
100
AcDbArc
 50
314.9999999999908
 51
45.00000000000921
  0
ARC
  5
27F
330
2F
100
AcDbEntity
  8
hw_VTP
100
AcDbCircle
 10
85.64350333804032
 20
7.5
 30
0.0
 40
0.4937142857142798
100
AcDbArc
 50
134.9999999999908
 51
225.0000000000092
  0
ARC
  5
280
330
2F
100
AcDbEntity
  8
hw_VTP
100
AcDbCircle
 10
84.50889999999981
 20
6.365396661959039
 30
0.0
 40
0.4937142857142798
100
AcDbArc
 50
44.99999999999078
 51
134.9999999999908
  0
LINE
  5
281
330
2F
100
AcDbEntity
  8
hw_VTP
100
AcDbLine
 10
84.1597912806028
 20
6.714505381356047
 30
0.0
 11
83.89795974105436
 21
6.452673841808517
 31
0.0
  0
LINE
  5
282
330
2F
100
AcDbEntity
  8
hw_VTP
100
AcDbLine
 10
83.7234053813554
 20
7.150891280602536
 30
0.0
 11
83.46157384180788
 21
6.889059741055008
 31
0.0
  0
LINE
  5
283
330
2F
100
AcDbEntity
  8
hw_VTP
100
AcDbLine
 10
83.89795974105436
 20
6.452673841808517
 30
0.0
 11
83.46157384180788
 21
6.889059741055008
 31
0.0
  0
LINE
  5
284
330
2F
100
AcDbEntity
  8
hw_VTP
100
AcDbLine
 10
86.23877804802578
 20
6.206507851220067
 30
0.0
 11
85.29439461864331
 21
7.150891280602536
 31
0.0
  0
LINE
  5
285
330
2F
100
AcDbEntity
  8
hw_VTP
100
AcDbLine
 10
85.80239214877929
 20
5.770121951973577
 30
0.0
 11
84.8580087193968
 21
6.714505381356047
 31
0.0
  0
LINE
  5
286
330
2F
100
AcDbEntity
  8
hw_VTP
 62
4
100
AcDbLine
 10
87.24876730124197
 20
4.101510751343538
 30
0.0
 11
81.76903269875766
 21
4.101510751343538
 31
0.0
  0
ARC
  5
287
330
2F
100
AcDbEntity
  8
hw_VTP
 62
4
100
AcDbCircle
 10
81.76903269875766
 20
4.760132698757843
 30
0.0
 40
0.6586219474140103
100
AcDbArc
 50
180.0
 51
270.0
  0
LINE
  5
288
330
2F
100
AcDbEntity
  8
hw_VTP
 62
4
100
AcDbLine
 10
81.11041075134378
 20
7.025792197861846
 30
0.0
 11
82.4015967564228
 21
7.0257921978623
 31
0.0
  0
ARC
  5
289
330
2F
100
AcDbEntity
  8
hw_VTP
 62
4
100
AcDbCircle
 10
87.24876730124197
 20
4.760132698757387
 30
0.0
 40
0.6586219474140103
100
AcDbArc
 50
270.0
 51
0.0
  0
LINE
  5
28A
330
2F
100
AcDbEntity
  8
hw_VTP
 62
4
100
AcDbLine
 10
87.90738924865582
 20
7.0257921978623
 30
0.0
 11
86.61620324357683
 21
7.025792197861846
 31
0.0
  0
LINE
  5
28B
330
2F
100
AcDbEntity
  8
hw_VTP
 62
4
100
AcDbLine
 10
84.98310780213797
 20
4.101510751343538
 30
0.0
 11
84.98310780213797
 21
5.392696756422537
 31
0.0
  0
LINE
  5
28C
330
2F
100
AcDbEntity
  8
hw_VTP
 62
4
100
AcDbLine
 10
84.03469219786165
 20
4.101510751343538
 30
0.0
 11
84.03469219786165
 21
5.392696756422537
 31
0.0
  0
ARC
  5
28D
330
2F
100
AcDbEntity
  8
hw_VTP
100
AcDbCircle
 10
92.93334372078243
 20
7.5
 30
0.0
 40
0.4937142857142798
100
AcDbArc
 50
314.9999999999908
 51
45.00000000000921
  0
ARC
  5
28E
330
2F
100
AcDbEntity
  8
hw_VTP
100
AcDbCircle
 10
95.20255039686435
 20
7.5
 30
0.0
 40
0.4937142857142798
100
AcDbArc
 50
134.9999999999908
 51
225.0000000000092
  0
ARC
  5
28F
330
2F
100
AcDbEntity
  8
hw_VTP
100
AcDbCircle
 10
94.06794705882385
 20
6.365396661959039
 30
0.0
 40
0.4937142857142798
100
AcDbArc
 50
44.99999999999078
 51
134.9999999999908
  0
LINE
  5
290
330
2F
100
AcDbEntity
  8
hw_VTP
100
AcDbLine
 10
93.71883833942593
 20
6.714505381356047
 30
0.0
 11
93.45700679987841
 21
6.452673841808517
 31
0.0
  0
LINE
  5
291
330
2F
100
AcDbEntity
  8
hw_VTP
100
AcDbLine
 10
93.28245244017944
 20
7.150891280602536
 30
0.0
 11
93.02062090063193
 21
6.889059741055008
 31
0.0
  0
LINE
  5
292
330
2F
100
AcDbEntity
  8
hw_VTP
100
AcDbLine
 10
93.45700679987841
 20
6.452673841808517
 30
0.0
 11
93.02062090063193
 21
6.889059741055008
 31
0.0
  0
ARC
  5
293
330
2F
100
AcDbEntity
  8
hw_VTP
 62
4
100
AcDbCircle
 10
91.32807975758078
 20
4.760132698757843
 30
0.0
 40
0.6586219474140103
100
AcDbArc
 50
180.0
 51
270.0
  0
LINE
  5
294
330
2F
100
AcDbEntity
  8
hw_VTP
 62
4
100
AcDbLine
 10
90.66945781016693
 20
7.025792197861846
 30
0.0
 11
91.96064381524592
 21
7.0257921978623
 31
0.0
  0
LINE
  5
295
330
2F
100
AcDbEntity
  8
hw_VTP
 62
4
100
AcDbLine
 10
94.54215486096108
 20
4.101510751343538
 30
0.0
 11
94.54215486096108
 21
5.392696756422537
 31
0.0
  0
LINE
  5
296
330
2F
100
AcDbEntity
  8
hw_VTP
 62
4
100
AcDbLine
 10
93.59373925668478
 20
4.101510751343538
 30
0.0
 11
93.5937392566857
 21
5.392696756422537
 31
0.0
  0
ARC
  5
297
330
2F
100
AcDbEntity
  8
hw_VTP
 62
3
100
AcDbCircle
 10
79.8171999999995
 20
-11.25000000000045
 30
0.0
 40
0.75
100
AcDbArc
 50
180.0
 51
0.0
  0
ARC
  5
298
330
2F
100
AcDbEntity
  8
hw_VTP
 62
3
100
AcDbCircle
 10
79.8171999999995
 20
-11.05000000000063
 30
0.0
 40
0.95
100
AcDbArc
 50
180.0
 51
0.0
  0
ARC
  5
299
330
2F
100
AcDbEntity
  8
hw_VTP
 62
3
100
AcDbCircle
 10
89.20060000000011
 20
-11.25000000000045
 30
0.0
 40
0.75
100
AcDbArc
 50
180.0
 51
0.0
  0
ARC
  5
29A
330
2F
100
AcDbEntity
  8
hw_VTP
 62
3
100
AcDbCircle
 10
89.20060000000011
 20
-11.05000000000063
 30
0.0
 40
0.95
100
AcDbArc
 50
180.0
 51
0.0
  0
LINE
  5
29B
330
2F
100
AcDbEntity
  8
hw_VTP
 62
4
100
AcDbLine
 10
74.65129219786105
 20
-4.101510751343993
 30
0.0
 11
74.65129219786105
 21
-5.392696756422991
 31
0.0
  0
LINE
  5
29C
330
2F
100
AcDbEntity
  8
hw_VTP
 62
4
100
AcDbLine
 10
75.59970780213735
 20
-4.101510751343993
 30
0.0
 11
75.59970780213735
 21
-5.392696756422991
 31
0.0
  0
LINE
  5
29D
330
2F
100
AcDbEntity
  8
hw_VTP
 62
4
100
AcDbLine
 10
78.5239892486561
 20
-7.0257921978623
 30
0.0
 11
77.23280324357711
 21
-7.0257921978623
 31
0.0
  0
LINE
  5
29E
330
2F
100
AcDbEntity
  8
hw_VTP
 62
4
100
AcDbLine
 10
78.5239892486561
 20
-7.974207802138607
 30
0.0
 11
77.23280324357711
 21
-7.974207802138152
 31
0.0
  0
LINE
  5
29F
330
2F
100
AcDbEntity
  8
hw_VTP
 62
4
100
AcDbLine
 10
74.65129219786105
 20
-10.89848924865646
 30
0.0
 11
74.65129219786105
 21
-9.607303243577462
 31
0.0
  0
LINE
  5
2A0
330
2F
100
AcDbEntity
  8
hw_VTP
 62
4
100
AcDbLine
 10
75.59970780213735
 20
-10.89848924865646
 30
0.0
 11
75.59970780213735
 21
-9.607303243577462
 31
0.0
  0
ARC
  5
2A1
330
2F
100
AcDbEntity
  8
hw_VTP
 62
4
100
AcDbCircle
 10
77.86536730124133
 20
-10.23986730124261
 30
0.0
 40
0.6586219474140103
100
AcDbArc
 50
270.0
 51
0.0
  0
LINE
  5
2A2
330
2F
100
AcDbEntity
  8
hw_VTP
 62
4
100
AcDbLine
 10
78.5239892486552
 20
-10.23986730124261
 30
0.0
 11
78.5239892486561
 21
-4.760132698758297
 31
0.0
  0
ARC
  5
2A3
330
2F
100
AcDbEntity
  8
hw_VTP
 62
4
100
AcDbCircle
 10
77.86536730124133
 20
-4.760132698758297
 30
0.0
 40
0.6586219474140103
100
AcDbArc
 50
0.0
 51
90.0
  0
LINE
  5
2A4
330
2F
100
AcDbEntity
  8
hw_VTP
 62
4
100
AcDbLine
 10
72.38563269875704
 20
-10.89848924865646
 30
0.0
 11
77.86536730124133
 21
-10.89848924865646
 31
0.0
  0
LINE
  5
2A5
330
2F
100
AcDbEntity
  8
hw_VTP
 62
4
100
AcDbLine
 10
77.86536730124133
 20
-4.101510751343993
 30
0.0
 11
72.38563269875704
 21
-4.101510751343993
 31
0.0
  0
LINE
  5
2A6
330
2F
100
AcDbEntity
  8
hw_VTP
100
AcDbLine
 10
76.41899214877958
 20
-5.770121951973577
 30
0.0
 11
75.47460871939711
 21
-6.714505381356502
 31
0.0
  0
LINE
  5
2A7
330
2F
100
AcDbEntity
  8
hw_VTP
100
AcDbLine
 10
76.85537804802605
 20
-6.206507851220067
 30
0.0
 11
75.91099461864358
 21
-7.150891280602991
 31
0.0
  0
LINE
  5
2A8
330
2F
100
AcDbEntity
  8
hw_VTP
100
AcDbLine
 10
76.17282615819113
 20
-8.110940258945448
 30
0.0
 11
75.73644025894464
 21
-8.547326158191934
 31
0.0
  0
LINE
  5
2A9
330
2F
100
AcDbEntity
  8
hw_VTP
100
AcDbLine
 10
76.17282615819113
 20
-8.110940258945448
 30
0.0
 11
75.91099461864358
 21
-7.849108719397462
 31
0.0
  0
LINE
  5
2AA
330
2F
100
AcDbEntity
  8
hw_VTP
100
AcDbLine
 10
75.73644025894464
 20
-8.547326158191934
 30
0.0
 11
75.47460871939711
 21
-8.28549461864395
 31
0.0
  0
ARC
  5
2AB
330
2F
100
AcDbEntity
  8
hw_VTP
100
AcDbCircle
 10
75.1255000000001
 20
-8.634603338041416
 30
0.0
 40
0.4937142857142798
100
AcDbArc
 50
45.00000000000921
 51
134.9999999999908
  0
LINE
  5
2AC
330
2F
100
AcDbEntity
  8
hw_VTP
100
AcDbLine
 10
74.51455974105376
 20
-6.452673841808517
 30
0.0
 11
74.07817384180815
 21
-6.889059741055008
 31
0.0
  0
LINE
  5
2AD
330
2F
100
AcDbEntity
  8
hw_VTP
100
AcDbLine
 10
74.3400053813557
 20
-7.150891280603445
 30
0.0
 11
74.07817384180815
 21
-6.889059741055008
 31
0.0
  0
LINE
  5
2AE
330
2F
100
AcDbEntity
  8
hw_VTP
100
AcDbLine
 10
74.77639128060218
 20
-6.714505381356502
 30
0.0
 11
74.51455974105376
 21
-6.452673841808517
 31
0.0
  0
ARC
  5
2AF
330
2F
100
AcDbEntity
  8
hw_VTP
100
AcDbCircle
 10
75.1255000000001
 20
-6.365396661959039
 30
0.0
 40
0.4937142857142798
100
AcDbArc
 50
225.0000000000092
 51
315.0000000000092
  0
ARC
  5
2B0
330
2F
100
AcDbEntity
  8
hw_VTP
100
AcDbCircle
 10
76.2601033380406
 20
-7.500000000000453
 30
0.0
 40
0.4937142857142798
100
AcDbArc
 50
134.9999999999908
 51
225.0000000000092
  0
ARC
  5
2B1
330
2F
100
AcDbEntity
  8
hw_VTP
100
AcDbCircle
 10
73.99089666195869
 20
-7.500000000000453
 30
0.0
 40
0.4937142857142798
100
AcDbArc
 50
314.9999999999908
 51
45.00000000000921
  0
LINE
  5
2B2
330
2F
100
AcDbEntity
  8
hw_VTP
100
AcDbLine
 10
74.3400053813557
 20
-7.849108719397462
 30
0.0
 11
73.39562195197324
 21
-8.793492148780388
 31
0.0
  0
LINE
  5
2B3
330
2F
100
AcDbEntity
  8
hw_VTP
100
AcDbLine
 10
74.77639128060218
 20
-8.28549461864395
 30
0.0
 11
73.8320078512197
 21
-9.229878048026876
 31
0.0
  0
CIRCLE
  5
2B4
330
2F
100
AcDbEntity
  8
hw_VTP
100
AcDbCircle
 10
75.1255000000001
 20
-7.500000000000453
 30
0.0
 40
2.159999999999973
  0
LINE
  5
2B5
330
2F
100
AcDbEntity
  8
hw_VTP
 62
4
100
AcDbLine
 10
84.03469219786165
 20
-4.101510751343538
 30
0.0
 11
84.03469219786165
 21
-5.392696756422537
 31
0.0
  0
LINE
  5
2B6
330
2F
100
AcDbEntity
  8
hw_VTP
 62
4
100
AcDbLine
 10
84.98310780213797
 20
-4.101510751343538
 30
0.0
 11
84.98310780213797
 21
-5.392696756422537
 31
0.0
  0
LINE
  5
2B7
330
2F
100
AcDbEntity
  8
hw_VTP
 62
4
100
AcDbLine
 10
87.90738924865582
 20
-7.0257921978623
 30
0.0
 11
86.61620324357683
 21
-7.025792197861846
 31
0.0
  0
LINE
  5
2B8
330
2F
100
AcDbEntity
  8
hw_VTP
 62
4
100
AcDbLine
 10
87.90738924865582
 20
-7.974207802138607
 30
0.0
 11
86.61620324357683
 21
-7.974207802137696
 31
0.0
  0
LINE
  5
2B9
330
2F
100
AcDbEntity
  8
hw_VTP
 62
4
100
AcDbLine
 10
84.03469219786165
 20
-10.89848924865646
 30
0.0
 11
84.03469219786165
 21
-9.607303243577462
 31
0.0
  0
LINE
  5
2BA
330
2F
100
AcDbEntity
  8
hw_VTP
 62
4
100
AcDbLine
 10
84.98310780213797
 20
-10.89848924865646
 30
0.0
 11
84.98310780213797
 21
-9.607303243577462
 31
0.0
  0
ARC
  5
2BB
330
2F
100
AcDbEntity
  8
hw_VTP
 62
4
100
AcDbCircle
 10
87.24876730124197
 20
-10.23986730124261
 30
0.0
 40
0.6586219474140103
100
AcDbArc
 50
270.0
 51
0.0
  0
LINE
  5
2BC
330
2F
100
AcDbEntity
  8
hw_VTP
 62
4
100
AcDbLine
 10
87.90738924865582
 20
-10.23986730124261
 30
0.0
 11
87.90738924865582
 21
-4.760132698757387
 31
0.0
  0
ARC
  5
2BD
330
2F
100
AcDbEntity
  8
hw_VTP
 62
4
100
AcDbCircle
 10
87.24876730124197
 20
-4.760132698757387
 30
0.0
 40
0.6586219474140103
100
AcDbArc
 50
0.0
 51
90.0
  0
LINE
  5
2BE
330
2F
100
AcDbEntity
  8
hw_VTP
 62
4
100
AcDbLine
 10
81.11041075134378
 20
-7.974207802138152
 30
0.0
 11
82.4015967564228
 21
-7.974207802138152
 31
0.0
  0
LINE
  5
2BF
330
2F
100
AcDbEntity
  8
hw_VTP
 62
4
100
AcDbLine
 10
81.11041075134378
 20
-7.025792197861846
 30
0.0
 11
82.4015967564228
 21
-7.0257921978623
 31
0.0
  0
ARC
  5
2C0
330
2F
100
AcDbEntity
  8
hw_VTP
 62
4
100
AcDbCircle
 10
81.76903269875766
 20
-10.23986730124261
 30
0.0
 40
0.6586219474140103
100
AcDbArc
 50
180.0
 51
270.0
  0
LINE
  5
2C1
330
2F
100
AcDbEntity
  8
hw_VTP
 62
4
100
AcDbLine
 10
81.11041075134378
 20
-4.760132698757843
 30
0.0
 11
81.11041075134291
 21
-10.23986730124261
 31
0.0
  0
ARC
  5
2C2
330
2F
100
AcDbEntity
  8
hw_VTP
 62
4
100
AcDbCircle
 10
81.76903269875766
 20
-4.760132698757843
 30
0.0
 40
0.6586219474140103
100
AcDbArc
 50
90.0
 51
180.0
  0
LINE
  5
2C3
330
2F
100
AcDbEntity
  8
hw_VTP
 62
4
100
AcDbLine
 10
81.76903269875766
 20
-10.89848924865646
 30
0.0
 11
87.24876730124197
 21
-10.89848924865646
 31
0.0
  0
LINE
  5
2C4
330
2F
100
AcDbEntity
  8
hw_VTP
 62
4
100
AcDbLine
 10
87.24876730124197
 20
-4.101510751343538
 30
0.0
 11
81.76903269875766
 21
-4.101510751343538
 31
0.0
  0
LINE
  5
2C5
330
2F
100
AcDbEntity
  8
hw_VTP
100
AcDbLine
 10
85.80239214877929
 20
-5.770121951973577
 30
0.0
 11
84.8580087193968
 21
-6.714505381356047
 31
0.0
  0
LINE
  5
2C6
330
2F
100
AcDbEntity
  8
hw_VTP
100
AcDbLine
 10
86.23877804802578
 20
-6.206507851220067
 30
0.0
 11
85.29439461864331
 21
-7.150891280602536
 31
0.0
  0
LINE
  5
2C7
330
2F
100
AcDbEntity
  8
hw_VTP
100
AcDbLine
 10
85.55622615819084
 20
-8.110940258944991
 30
0.0
 11
85.11984025894525
 21
-8.547326158191481
 31
0.0
  0
LINE
  5
2C8
330
2F
100
AcDbEntity
  8
hw_VTP
100
AcDbLine
 10
85.55622615819084
 20
-8.110940258944991
 30
0.0
 11
85.29439461864331
 21
-7.849108719397462
 31
0.0
  0
LINE
  5
2C9
330
2F
100
AcDbEntity
  8
hw_VTP
100
AcDbLine
 10
85.11984025894525
 20
-8.547326158191481
 30
0.0
 11
84.8580087193968
 21
-8.28549461864395
 31
0.0
  0
ARC
  5
2CA
330
2F
100
AcDbEntity
  8
hw_VTP
100
AcDbCircle
 10
84.5088999999989
 20
-8.634603338040959
 30
0.0
 40
0.4937142857142798
100
AcDbArc
 50
45.00000000000921
 51
134.9999999999908
  0
LINE
  5
2CB
330
2F
100
AcDbEntity
  8
hw_VTP
100
AcDbLine
 10
83.89795974105436
 20
-6.452673841808517
 30
0.0
 11
83.46157384180788
 21
-6.889059741055008
 31
0.0
  0
LINE
  5
2CC
330
2F
100
AcDbEntity
  8
hw_VTP
100
AcDbLine
 10
83.7234053813554
 20
-7.150891280602536
 30
0.0
 11
83.46157384180788
 21
-6.889059741055008
 31
0.0
  0
LINE
  5
2CD
330
2F
100
AcDbEntity
  8
hw_VTP
100
AcDbLine
 10
84.1597912806028
 20
-6.714505381356047
 30
0.0
 11
83.89795974105436
 21
-6.452673841808517
 31
0.0
  0
ARC
  5
2CE
330
2F
100
AcDbEntity
  8
hw_VTP
100
AcDbCircle
 10
84.50889999999981
 20
-6.365396661959039
 30
0.0
 40
0.4937142857142798
100
AcDbArc
 50
225.0000000000092
 51
315.0000000000092
  0
ARC
  5
2CF
330
2F
100
AcDbEntity
  8
hw_VTP
100
AcDbCircle
 10
85.64350333804032
 20
-7.5
 30
0.0
 40
0.4937142857142798
100
AcDbArc
 50
134.9999999999908
 51
225.0000000000092
  0
ARC
  5
2D0
330
2F
100
AcDbEntity
  8
hw_VTP
100
AcDbCircle
 10
83.37429666195841
 20
-7.5
 30
0.0
 40
0.4937142857142798
100
AcDbArc
 50
314.9999999999908
 51
45.00000000000921
  0
LINE
  5
2D1
330
2F
100
AcDbEntity
  8
hw_VTP
100
AcDbLine
 10
83.7234053813554
 20
-7.849108719397462
 30
0.0
 11
82.77902195197294
 21
-8.793492148779931
 31
0.0
  0
LINE
  5
2D2
330
2F
100
AcDbEntity
  8
hw_VTP
100
AcDbLine
 10
84.1597912806028
 20
-8.28549461864395
 30
0.0
 11
83.21540785121944
 21
-9.22987804802642
 31
0.0
  0
CIRCLE
  5
2D3
330
2F
100
AcDbEntity
  8
hw_VTP
100
AcDbCircle
 10
84.50889999999981
 20
-7.5
 30
0.0
 40
2.159999999999973
  0
LINE
  5
2D4
330
2F
100
AcDbEntity
  8
hw_VTP
 62
4
100
AcDbLine
 10
93.59373925668478
 20
-4.101510751343538
 30
0.0
 11
93.5937392566857
 21
-5.392696756422537
 31
0.0
  0
LINE
  5
2D5
330
2F
100
AcDbEntity
  8
hw_VTP
 62
4
100
AcDbLine
 10
94.54215486096108
 20
-4.101510751343538
 30
0.0
 11
94.54215486096108
 21
-5.392696756422537
 31
0.0
  0
LINE
  5
2D6
330
2F
100
AcDbEntity
  8
hw_VTP
 62
4
100
AcDbLine
 10
93.59373925668478
 20
-10.89848924865646
 30
0.0
 11
93.59373925668478
 21
-9.607303243577462
 31
0.0
  0
LINE
  5
2D7
330
2F
100
AcDbEntity
  8
hw_VTP
 62
4
100
AcDbLine
 10
94.54215486096108
 20
-10.89848924865646
 30
0.0
 11
94.54215486096108
 21
-9.607303243577462
 31
0.0
  0
LINE
  5
2D8
330
2F
100
AcDbEntity
  8
hw_VTP
 62
4
100
AcDbLine
 10
90.66945781016693
 20
-7.974207802138152
 30
0.0
 11
91.96064381524592
 21
-7.974207802138152
 31
0.0
  0
LINE
  5
2D9
330
2F
100
AcDbEntity
  8
hw_VTP
 62
4
100
AcDbLine
 10
90.66945781016693
 20
-7.025792197861846
 30
0.0
 11
91.96064381524592
 21
-7.0257921978623
 31
0.0
  0
ARC
  5
2DA
330
2F
100
AcDbEntity
  8
hw_VTP
 62
4
100
AcDbCircle
 10
91.32807975758078
 20
-10.23986730124261
 30
0.0
 40
0.6586219474140103
100
AcDbArc
 50
180.0
 51
270.0
  0
LINE
  5
2DB
330
2F
100
AcDbEntity
  8
hw_VTP
 62
4
100
AcDbLine
 10
90.66945781016693
 20
-4.760132698757843
 30
0.0
 11
90.66945781016693
 21
-10.23986730124261
 31
0.0
  0
ARC
  5
2DC
330
2F
100
AcDbEntity
  8
hw_VTP
 62
4
100
AcDbCircle
 10
91.32807975758078
 20
-4.760132698757843
 30
0.0
 40
0.6586219474140103
100
AcDbArc
 50
90.0
 51
180.0
  0
LINE
  5
2DD
330
2F
100
AcDbEntity
  8
hw_VTP
100
AcDbLine
 10
94.67888731776839
 20
-8.547326158191481
 30
0.0
 11
94.41705577822084
 21
-8.28549461864395
 31
0.0
  0
ARC
  5
2DE
330
2F
100
AcDbEntity
  8
hw_VTP
100
AcDbCircle
 10
94.06794705882385
 20
-8.634603338040959
 30
0.0
 40
0.4937142857142798
100
AcDbArc
 50
45.00000000000921
 51
134.9999999999908
  0
LINE
  5
2DF
330
2F
100
AcDbEntity
  8
hw_VTP
100
AcDbLine
 10
93.45700679987841
 20
-6.452673841808517
 30
0.0
 11
93.02062090063193
 21
-6.889059741055008
 31
0.0
  0
LINE
  5
2E0
330
2F
100
AcDbEntity
  8
hw_VTP
100
AcDbLine
 10
93.28245244017944
 20
-7.150891280602536
 30
0.0
 11
93.02062090063193
 21
-6.889059741055008
 31
0.0
  0
LINE
  5
2E1
330
2F
100
AcDbEntity
  8
hw_VTP
100
AcDbLine
 10
93.71883833942593
 20
-6.714505381356047
 30
0.0
 11
93.45700679987841
 21
-6.452673841808517
 31
0.0
  0
ARC
  5
2E2
330
2F
100
AcDbEntity
  8
hw_VTP
100
AcDbCircle
 10
94.06794705882385
 20
-6.365396661959039
 30
0.0
 40
0.4937142857142798
100
AcDbArc
 50
225.0000000000092
 51
315.0000000000092
  0
ARC
  5
2E3
330
2F
100
AcDbEntity
  8
hw_VTP
100
AcDbCircle
 10
95.20255039686435
 20
-7.5
 30
0.0
 40
0.4937142857142798
100
AcDbArc
 50
134.9999999999908
 51
225.0000000000092
  0
ARC
  5
2E4
330
2F
100
AcDbEntity
  8
hw_VTP
100
AcDbCircle
 10
92.93334372078243
 20
-7.5
 30
0.0
 40
0.4937142857142798
100
AcDbArc
 50
314.9999999999908
 51
45.00000000000921
  0
LINE
  5
2E5
330
2F
100
AcDbEntity
  8
hw_VTP
100
AcDbLine
 10
93.28245244017944
 20
-7.849108719397462
 30
0.0
 11
92.33806901079693
 21
-8.793492148779931
 31
0.0
  0
LINE
  5
2E6
330
2F
100
AcDbEntity
  8
hw_VTP
100
AcDbLine
 10
93.71883833942593
 20
-8.28549461864395
 30
0.0
 11
92.77445491004345
 21
-9.22987804802642
 31
0.0
  0
LINE
  5
2E7
330
2F
100
AcDbEntity
  8
hw_VTP
 62
3
100
AcDbLine
 10
80.76719999999932
 20
-11.05000000000063
 30
0.0
 11
80.76719999999932
 21
-3.000000000000453
 31
0.0
  0
LINE
  5
2E8
330
2F
100
AcDbEntity
  8
hw_VTP
 62
3
100
AcDbLine
 10
80.5671999999995
 20
-11.25000000000045
 30
0.0
 11
80.5671999999995
 21
-3.000000000000453
 31
0.0
  0
LINE
  5
2E9
330
2F
100
AcDbEntity
  8
hw_VTP
 62
3
100
AcDbLine
 10
79.0671999999995
 20
-11.25000000000045
 30
0.0
 11
79.0671999999995
 21
-3.000000000000453
 31
0.0
  0
LINE
  5
2EA
330
2F
100
AcDbEntity
  8
hw_VTP
 62
3
100
AcDbLine
 10
78.86719999999968
 20
-11.05000000000063
 30
0.0
 11
78.86719999999968
 21
-3.000000000000453
 31
0.0
  0
LINE
  5
2EB
330
2F
100
AcDbEntity
  8
hw_VTP
 62
3
100
AcDbLine
 10
90.15059999999905
 20
-11.05000000000063
 30
0.0
 11
90.15059999999905
 21
-3.000000000000453
 31
0.0
  0
LINE
  5
2EC
330
2F
100
AcDbEntity
  8
hw_VTP
 62
3
100
AcDbLine
 10
89.95060000000014
 20
-11.25000000000045
 30
0.0
 11
89.95060000000014
 21
-3.000000000000453
 31
0.0
  0
LINE
  5
2ED
330
2F
100
AcDbEntity
  8
hw_VTP
 62
3
100
AcDbLine
 10
88.45060000000014
 20
-11.25000000000045
 30
0.0
 11
88.45060000000014
 21
-3.000000000000453
 31
0.0
  0
LINE
  5
2EE
330
2F
100
AcDbEntity
  8
hw_VTP
 62
3
100
AcDbLine
 10
88.25059999999941
 20
-11.05000000000063
 30
0.0
 11
88.25059999999941
 21
-3.000000000000453
 31
0.0
  0
LINE
  5
2EF
330
2F
100
AcDbEntity
  8
hw_VTP
100
AcDbLine
 10
95.7978251068498
 20
6.206507851220067
 30
0.0
 11
94.85344167746736
 21
7.150891280602536
 31
0.0
  0
LINE
  5
2F0
330
2F
100
AcDbEntity
  8
hw_VTP
100
AcDbLine
 10
95.36143920760333
 20
5.770121951973577
 30
0.0
 11
94.41705577822084
 21
6.714505381356047
 31
0.0
  0
LINE
  5
2F1
330
2F
100
AcDbEntity
  8
hw_VTP
 62
4
100
AcDbLine
 10
96.80781436006599
 20
4.101510751343538
 30
0.0
 11
91.32807975758078
 21
4.101510751343538
 31
0.0
  0
LINE
  5
2F2
330
2F
100
AcDbEntity
  8
hw_VTP
 62
4
100
AcDbLine
 10
91.32807975758078
 20
-10.89848924865646
 30
0.0
 11
96.8078143600651
 21
-10.89848924865646
 31
0.0
  0
LINE
  5
2F3
330
2F
100
AcDbEntity
  8
hw_VTP
 62
4
100
AcDbLine
 10
96.80781436006599
 20
-4.101510751343538
 30
0.0
 11
91.32807975758078
 21
-4.101510751343538
 31
0.0
  0
LINE
  5
2F4
330
2F
100
AcDbEntity
  8
hw_VTP
100
AcDbLine
 10
95.36143920760333
 20
-5.770121951973577
 30
0.0
 11
94.41705577822084
 21
-6.714505381356047
 31
0.0
  0
LINE
  5
2F5
330
2F
100
AcDbEntity
  8
hw_VTP
100
AcDbLine
 10
95.7978251068498
 20
-6.206507851220067
 30
0.0
 11
94.85344167746736
 21
-7.150891280602536
 31
0.0
  0
LINE
  5
2F6
330
2F
100
AcDbEntity
  8
hw_VTP
100
AcDbLine
 10
95.11527321701485
 20
-8.110940258944991
 30
0.0
 11
94.67888731776839
 21
-8.547326158191481
 31
0.0
  0
LINE
  5
2F7
330
2F
100
AcDbEntity
  8
hw_VTP
100
AcDbLine
 10
95.11527321701485
 20
-8.110940258944991
 30
0.0
 11
94.85344167746736
 21
-7.849108719397462
 31
0.0
  0
CIRCLE
  5
2F8
330
2F
100
AcDbEntity
  8
hw_VTP
100
AcDbCircle
 10
94.06794705882385
 20
-7.5
 30
0.0
 40
2.159999999999973
  0
ARC
  5
2F9
330
2F
100
AcDbEntity
  8
hw_VTP
 62
4
100
AcDbCircle
 10
96.8078143600651
 20
10.23986730124261
 30
0.0
 40
0.6586219474140103
100
AcDbArc
 50
0.0
 51
90.0
  0
LINE
  5
2FA
330
2F
100
AcDbEntity
  8
hw_VTP
 62
4
100
AcDbLine
 10
97.46643630747985
 20
7.974207802138607
 30
0.0
 11
96.17525030240085
 21
7.974207802137696
 31
0.0
  0
ARC
  5
2FB
330
2F
100
AcDbEntity
  8
hw_VTP
 62
3
100
AcDbCircle
 10
79.8171999999995
 20
11.04999999999972
 30
0.0
 40
0.95
100
AcDbArc
 50
0.0
 51
180.0
  0
ARC
  5
2FC
330
2F
100
AcDbEntity
  8
hw_VTP
 62
3
100
AcDbCircle
 10
79.8171999999995
 20
11.24999999999954
 30
0.0
 40
0.75
100
AcDbArc
 50
0.0
 51
180.0
  0
ARC
  5
2FD
330
2F
100
AcDbEntity
  8
hw_VTP
 62
3
100
AcDbCircle
 10
89.20060000000011
 20
11.04999999999972
 30
0.0
 40
0.95
100
AcDbArc
 50
0.0
 51
180.0
  0
ARC
  5
2FE
330
2F
100
AcDbEntity
  8
hw_VTP
 62
3
100
AcDbCircle
 10
89.20060000000011
 20
11.24999999999954
 30
0.0
 40
0.75
100
AcDbArc
 50
0.0
 51
180.0
  0
LINE
  5
2FF
330
2F
100
AcDbEntity
  8
hw_VTP
100
AcDbLine
 10
74.77639128060218
 20
8.285494618643497
 30
0.0
 11
73.8320078512197
 21
9.22987804802642
 31
0.0
  0
ARC
  5
300
330
2F
100
AcDbEntity
  8
hw_VTP
100
AcDbCircle
 10
75.1255000000001
 20
8.634603338040506
 30
0.0
 40
0.4937142857142798
100
AcDbArc
 50
225.0000000000092
 51
314.9999999999908
  0
LINE
  5
301
330
2F
100
AcDbEntity
  8
hw_VTP
100
AcDbLine
 10
75.73644025894464
 20
8.547326158191481
 30
0.0
 11
75.47460871939711
 21
8.285494618643497
 31
0.0
  0
LINE
  5
302
330
2F
100
AcDbEntity
  8
hw_VTP
100
AcDbLine
 10
76.17282615819113
 20
8.110940258944991
 30
0.0
 11
75.73644025894464
 21
8.547326158191481
 31
0.0
  0
LINE
  5
303
330
2F
100
AcDbEntity
  8
hw_VTP
 62
4
100
AcDbLine
 10
72.38563269875704
 20
10.898489248656
 30
0.0
 11
77.86536730124133
 21
10.898489248656
 31
0.0
  0
ARC
  5
304
330
2F
100
AcDbEntity
  8
hw_VTP
 62
4
100
AcDbCircle
 10
77.86536730124133
 20
10.2398673012417
 30
0.0
 40
0.6586219474140103
100
AcDbArc
 50
0.0
 51
90.0
  0
LINE
  5
305
330
2F
100
AcDbEntity
  8
hw_VTP
 62
4
100
AcDbLine
 10
75.59970780213735
 20
10.898489248656
 30
0.0
 11
75.59970780213735
 21
9.607303243577007
 31
0.0
  0
LINE
  5
306
330
2F
100
AcDbEntity
  8
hw_VTP
 62
4
100
AcDbLine
 10
74.65129219786105
 20
10.898489248656
 30
0.0
 11
74.65129219786105
 21
9.607303243577007
 31
0.0
  0
LINE
  5
307
330
2F
100
AcDbEntity
  8
hw_VTP
 62
4
100
AcDbLine
 10
78.5239892486561
 20
7.974207802138152
 30
0.0
 11
77.23280324357711
 21
7.974207802137696
 31
0.0
  0
LINE
  5
308
330
2F
100
AcDbEntity
  8
hw_VTP
100
AcDbLine
 10
84.1597912806028
 20
8.28549461864395
 30
0.0
 11
83.21540785121944
 21
9.22987804802642
 31
0.0
  0
ARC
  5
309
330
2F
100
AcDbEntity
  8
hw_VTP
100
AcDbCircle
 10
84.5088999999989
 20
8.634603338040959
 30
0.0
 40
0.4937142857142798
100
AcDbArc
 50
225.0000000000092
 51
314.9999999999908
  0
LINE
  5
30A
330
2F
100
AcDbEntity
  8
hw_VTP
100
AcDbLine
 10
85.11984025894525
 20
8.547326158191481
 30
0.0
 11
84.8580087193968
 21
8.28549461864395
 31
0.0
  0
LINE
  5
30B
330
2F
100
AcDbEntity
  8
hw_VTP
100
AcDbLine
 10
85.55622615819084
 20
8.110940258944991
 30
0.0
 11
85.11984025894525
 21
8.547326158191481
 31
0.0
  0
LINE
  5
30C
330
2F
100
AcDbEntity
  8
hw_VTP
 62
4
100
AcDbLine
 10
81.76903269875766
 20
10.89848924865646
 30
0.0
 11
87.24876730124197
 21
10.89848924865646
 31
0.0
  0
ARC
  5
30D
330
2F
100
AcDbEntity
  8
hw_VTP
 62
4
100
AcDbCircle
 10
81.76903269875766
 20
10.23986730124261
 30
0.0
 40
0.6586219474140103
100
AcDbArc
 50
90.0
 51
180.0
  0
LINE
  5
30E
330
2F
100
AcDbEntity
  8
hw_VTP
 62
4
100
AcDbLine
 10
81.11041075134378
 20
7.974207802138152
 30
0.0
 11
82.4015967564228
 21
7.974207802138152
 31
0.0
  0
ARC
  5
30F
330
2F
100
AcDbEntity
  8
hw_VTP
 62
4
100
AcDbCircle
 10
87.24876730124197
 20
10.23986730124261
 30
0.0
 40
0.6586219474140103
100
AcDbArc
 50
0.0
 51
90.0
  0
LINE
  5
310
330
2F
100
AcDbEntity
  8
hw_VTP
 62
4
100
AcDbLine
 10
84.98310780213797
 20
10.89848924865646
 30
0.0
 11
84.98310780213797
 21
9.607303243577462
 31
0.0
  0
LINE
  5
311
330
2F
100
AcDbEntity
  8
hw_VTP
 62
4
100
AcDbLine
 10
84.03469219786165
 20
10.89848924865646
 30
0.0
 11
84.03469219786165
 21
9.607303243577462
 31
0.0
  0
LINE
  5
312
330
2F
100
AcDbEntity
  8
hw_VTP
 62
4
100
AcDbLine
 10
87.90738924865582
 20
7.974207802138607
 30
0.0
 11
86.61620324357683
 21
7.974207802137696
 31
0.0
  0
LINE
  5
313
330
2F
100
AcDbEntity
  8
hw_VTP
100
AcDbLine
 10
93.71883833942593
 20
8.28549461864395
 30
0.0
 11
92.77445491004345
 21
9.22987804802642
 31
0.0
  0
ARC
  5
314
330
2F
100
AcDbEntity
  8
hw_VTP
100
AcDbCircle
 10
94.06794705882385
 20
8.634603338040959
 30
0.0
 40
0.4937142857142798
100
AcDbArc
 50
225.0000000000092
 51
314.9999999999908
  0
LINE
  5
315
330
2F
100
AcDbEntity
  8
hw_VTP
100
AcDbLine
 10
94.67888731776839
 20
8.547326158191481
 30
0.0
 11
94.41705577822084
 21
8.28549461864395
 31
0.0
  0
ARC
  5
316
330
2F
100
AcDbEntity
  8
hw_VTP
 62
4
100
AcDbCircle
 10
91.32807975758078
 20
10.23986730124261
 30
0.0
 40
0.6586219474140103
100
AcDbArc
 50
90.0
 51
180.0
  0
LINE
  5
317
330
2F
100
AcDbEntity
  8
hw_VTP
 62
4
100
AcDbLine
 10
90.66945781016693
 20
7.974207802138152
 30
0.0
 11
91.96064381524592
 21
7.974207802138152
 31
0.0
  0
LINE
  5
318
330
2F
100
AcDbEntity
  8
hw_VTP
 62
4
100
AcDbLine
 10
94.54215486096108
 20
10.89848924865646
 30
0.0
 11
94.54215486096108
 21
9.607303243577462
 31
0.0
  0
LINE
  5
319
330
2F
100
AcDbEntity
  8
hw_VTP
 62
4
100
AcDbLine
 10
93.59373925668478
 20
10.89848924865646
 30
0.0
 11
93.59373925668478
 21
9.607303243577462
 31
0.0
  0
LINE
  5
31A
330
2F
100
AcDbEntity
  8
hw_VTP
100
AcDbLine
 10
95.11527321701485
 20
8.110940258944991
 30
0.0
 11
94.67888731776839
 21
8.547326158191481
 31
0.0
  0
LINE
  5
31B
330
2F
100
AcDbEntity
  8
hw_VTP
 62
4
100
AcDbLine
 10
91.32807975758078
 20
10.89848924865646
 30
0.0
 11
96.8078143600651
 21
10.89848924865646
 31
0.0
  0
ENDBLK
  5
31
330
2F
100
AcDbEntity
  8
0
100
AcDbBlockEnd
  0
ENDSEC
  0
SECTION
  2
ENTITIES
  0
INSERT
  5
31D
330
17
100
AcDbEntity
  8
0
100
AcDbBlockReference
  2
CD_10P-10A
 10
4.75
 20
12.000000000000629
 30
0.0
  0
ENDSEC
  0
SECTION
  2
OBJECTS
  0
DICTIONARY
  5
A
330
0
100
AcDbDictionary
281
1
  3
ACAD_COLOR
350
B
  3
ACAD_GROUP
350
C
  3
ACAD_LAYOUT
350
D
  3
ACAD_MATERIAL
350
E
  3
ACAD_MLEADERSTYLE
350
F
  3
ACAD_MLINESTYLE
350
10
  3
ACAD_PLOTSETTINGS
350
11
  3
ACAD_PLOTSTYLENAME
350
12
  3
ACAD_SCALELIST
350
14
  3
ACAD_TABLESTYLE
350
15
  3
ACAD_VISUALSTYLE
350
16
  3
EZDXF_META
350
2D
  0
DICTIONARY
  5
B
330
A
100
AcDbDictionary
281
1
  0
DICTIONARY
  5
C
330
A
100
AcDbDictionary
281
1
  0
DICTIONARY
  5
D
330
A
100
AcDbDictionary
281
1
  3
Model
350
1A
  3
Layout1
350
1E
  0
DICTIONARY
  5
E
330
A
100
AcDbDictionary
281
1
  3
ByBlock
350
1F
  3
ByLayer
350
20
  3
Global
350
21
  0
DICTIONARY
  5
F
330
A
100
AcDbDictionary
281
1
  3
Standard
350
2C
  0
DICTIONARY
  5
10
330
A
100
AcDbDictionary
281
1
  3
Standard
350
22
  0
DICTIONARY
  5
11
330
A
100
AcDbDictionary
281
1
  0
ACDBDICTIONARYWDFLT
  5
12
330
A
100
AcDbDictionary
281
1
  3
Normal
350
13
100
AcDbDictionaryWithDefault
340
13
  0
ACDBPLACEHOLDER
  5
13
330
12
  0
DICTIONARY
  5
14
330
A
100
AcDbDictionary
281
1
  0
DICTIONARY
  5
15
330
A
100
AcDbDictionary
281
1
  0
DICTIONARY
  5
16
330
A
100
AcDbDictionary
281
1
  0
LAYOUT
  5
1A
330
D
100
AcDbPlotSettings
  1

  4
A3
  6

 40
7.5
 41
20.0
 42
7.5
 43
20.0
 44
420.0
 45
297.0
 46
0.0
 47
0.0
 48
0.0
 49
0.0
140
0.0
141
0.0
142
1.0
143
1.0
 70
1024
 72
1
 73
0
 74
5
  7

 75
16
 76
0
 77
2
 78
300
147
1.0
148
0.0
149
0.0
100
AcDbLayout
  1
Model
 70
1
 71
0
 10
0.0
 20
0.0
 11
420.0
 21
297.0
 12
0.0
 22
0.0
 32
0.0
 14
1e+20
 24
1e+20
 34
1e+20
 15
-1e+20
 25
-1e+20
 35
-1e+20
146
0.0
 13
0.0
 23
0.0
 33
0.0
 16
1.0
 26
0.0
 36
0.0
 17
0.0
 27
1.0
 37
0.0
 76
1
330
17
  0
LAYOUT
  5
1E
330
D
100
AcDbPlotSettings
  1

  4
A3
  6

 40
7.5
 41
20.0
 42
7.5
 43
20.0
 44
420.0
 45
297.0
 46
0.0
 47
0.0
 48
0.0
 49
0.0
140
0.0
141
0.0
142
1.0
143
1.0
 70
0
 72
1
 73
0
 74
5
  7

 75
16
 76
0
 77
2
 78
300
147
1.0
148
0.0
149
0.0
100
AcDbLayout
  1
Layout1
 70
1
 71
1
 10
0.0
 20
0.0
 11
420.0
 21
297.0
 12
0.0
 22
0.0
 32
0.0
 14
1e+20
 24
1e+20
 34
1e+20
 15
-1e+20
 25
-1e+20
 35
-1e+20
146
0.0
 13
0.0
 23
0.0
 33
0.0
 16
1.0
 26
0.0
 36
0.0
 17
0.0
 27
1.0
 37
0.0
 76
1
330
1B
  0
MATERIAL
  5
1F
102
{ACAD_REACTORS
330
E
102
}
330
E
100
AcDbMaterial
  1
ByBlock
  2

 70
0
 40
1.0
 71
1
 41
1.0
 91
-1023410177
 42
1.0
 72
1
  3

 73
1
 74
1
 75
1
 44
0.5
 73
0
 45
1.0
 46
1.0
 77
1
  4

 78
1
 79
1
170
1
 48
1.0
171
1
  6

172
1
173
1
174
1
140
1.0
141
1.0
175
1
  7

176
1
177
1
178
1
143
1.0
179
1
  8

270
1
271
1
272
1
145
1.0
146
1.0
273
1
  9

274
1
275
1
276
1
 42
1.0
 72
1
  3

 73
1
 74
1
 75
1
 94
63
  0
MATERIAL
  5
20
102
{ACAD_REACTORS
330
E
102
}
330
E
100
AcDbMaterial
  1
ByLayer
  2

 70
0
 40
1.0
 71
1
 41
1.0
 91
-1023410177
 42
1.0
 72
1
  3

 73
1
 74
1
 75
1
 44
0.5
 73
0
 45
1.0
 46
1.0
 77
1
  4

 78
1
 79
1
170
1
 48
1.0
171
1
  6

172
1
173
1
174
1
140
1.0
141
1.0
175
1
  7

176
1
177
1
178
1
143
1.0
179
1
  8

270
1
271
1
272
1
145
1.0
146
1.0
273
1
  9

274
1
275
1
276
1
 42
1.0
 72
1
  3

 73
1
 74
1
 75
1
 94
63
  0
MATERIAL
  5
21
102
{ACAD_REACTORS
330
E
102
}
330
E
100
AcDbMaterial
  1
Global
  2

 70
0
 40
1.0
 71
1
 41
1.0
 91
-1023410177
 42
1.0
 72
1
  3

 73
1
 74
1
 75
1
 44
0.5
 73
0
 45
1.0
 46
1.0
 77
1
  4

 78
1
 79
1
170
1
 48
1.0
171
1
  6

172
1
173
1
174
1
140
1.0
141
1.0
175
1
  7

176
1
177
1
178
1
143
1.0
179
1
  8

270
1
271
1
272
1
145
1.0
146
1.0
273
1
  9

274
1
275
1
276
1
 42
1.0
 72
1
  3

 73
1
 74
1
 75
1
 94
63
  0
MLINESTYLE
  5
22
102
{ACAD_REACTORS
330
10
102
}
330
10
100
AcDbMlineStyle
  2
Standard
 70
0
  3

 62
256
 51
90.0
 52
90.0
 71
2
 49
0.5
 62
256
  6
BYLAYER
 49
-0.5
 62
256
  6
BYLAYER
  0
MLEADERSTYLE
  5
2C
102
{ACAD_REACTORS
330
F
102
}
330
F
100
AcDbMLeaderStyle
179
2
170
2
171
1
172
0
 90
2
 40
0.0
 41
0.0
173
1
 91
-1056964608
 92
-2
290
1
 42
2.0
291
1
 43
8.0
  3
Standard
 44
4.0
300

342
29
174
1
175
1
176
0
178
1
 93
-1056964608
 45
4.0
292
0
297
0
 46
4.0
 94
-1056964608
 47
1.0
 49
1.0
140
1.0
294
1
141
0.0
177
0
142
1.0
295
0
296
0
143
3.75
271
0
272
9
273
9
  0
DICTIONARY
  5
2D
330
A
100
AcDbDictionary
280
1
281
1
  3
CREATED_BY_EZDXF
350
2E
  3
WRITTEN_BY_EZDXF
350
321
  0
DICTIONARYVAR
  5
2E
330
2D
100
DictionaryVariables
280
0
  1
1.4.4 @ 2026-09-23T12:53:24.894363+00:00
  0
DICTIONARYVAR
  5
321
330
2D
100
DictionaryVariables
280
0
  1
1.4.4 @ 2026-09-23T12:53:25.035517+00:00
  0
ENDSEC
  0
EOF
