  0
SECTION
  2
HEADER
  9
$ACADVER
  1
AC1032
  9
$ACADMAINTVER
 90
4
  9
$DWGCODEPAGE
  3
ANSI_1252
  9
$LASTSAVEDBY
  1
ezdxf
  9
$REQUIREDVERSIONS
160
0
  9
$INSBASE
 10
0.0
 20
0.0
 30
0.0
  9
$EXTMIN
 10
1e+20
 20
1e+20
 30
1e+20
  9
$EXTMAX
 10
-1e+20
 20
-1e+20
 30
-1e+20
  9
$LIMMIN
 10
0.0
 20
0.0
  9
$LIMMAX
 10
420.0
 20
297.0
  9
$ORTHOMODE
 70
0
  9
$REGENMODE
 70
1
  9
$FILLMODE
 70
1
  9
$QTEXTMODE
 70
0
  9
$MIRRTEXT
 70
1
  9
$LTSCALE
 40
1.0
  9
$ATTMODE
 70
1
  9
$TEXTSIZE
 40
2.5
  9
$TRACEWID
 40
1.0
  9
$TEXTSTYLE
  7
Standard
  9
$CLAYER
  8
0
  9
$CELTYPE
  6
ByLayer
  9
$CECOLOR
 62
256
  9
$CELTSCALE
 40
1.0
  9
$DISPSILH
 70
0
  9
$DIMSCALE
 40
1.0
  9
$DIMASZ
 40
2.5
  9
$DIMEXO
 40
0.625
  9
$DIMDLI
 40
3.75
  9
$DIMRND
 40
0.0
  9
$DIMDLE
 40
0.0
  9
$DIMEXE
 40
1.25
  9
$DIMTP
 40
0.0
  9
$DIMTM
 40
0.0
  9
$DIMTXT
 40
2.5
  9
$DIMCEN
 40
2.5
  9
$DIMTSZ
 40
0.0
  9
$DIMTOL
 70
0
  9
$DIMLIM
 70
0
  9
$DIMTIH
 70
0
  9
$DIMTOH
 70
0
  9
$DIMSE1
 70
0
  9
$DIMSE2
 70
0
  9
$DIMTAD
 70
1
  9
$DIMZIN
 70
8
  9
$DIMBLK
  1

  9
$DIMASO
 70
1
  9
$DIMSHO
 70
1
  9
$DIMPOST
  1

  9
$DIMAPOST
  1

  9
$DIMALT
 70
0
  9
$DIMALTD
 70
3
  9
$DIMALTF
 40
0.03937007874
  9
$DIMLFAC
 40
1.0
  9
$DIMTOFL
 70
1
  9
$DIMTVP
 40
0.0
  9
$DIMTIX
 70
0
  9
$DIMSOXD
 70
0
  9
$DIMSAH
 70
0
  9
$DIMBLK1
  1

  9
$DIMBLK2
  1

  9
$DIMSTYLE
  2
ISO-25
  9
$DIMCLRD
 70
0
  9
$DIMCLRE
 70
0
  9
$DIMCLRT
 70
0
  9
$DIMTFAC
 40
1.0
  9
$DIMGAP
 40
0.625
  9
$DIMJUST
 70
0
  9
$DIMSD1
 70
0
  9
$DIMSD2
 70
0
  9
$DIMTOLJ
 70
0
  9
$DIMTZIN
 70
8
  9
$DIMALTZ
 70
0
  9
$DIMALTTZ
 70
0
  9
$DIMUPT
 70
0
  9
$DIMDEC
 70
2
  9
$DIMTDEC
 70
2
  9
$DIMALTU
 70
2
  9
$DIMALTTD
 70
3
  9
$DIMTXSTY
  7
Standard
  9
$DIMAUNIT
 70
0
  9
$DIMADEC
 70
0
  9
$DIMALTRND
 40
0.0
  9
$DIMAZIN
 70
0
  9
$DIMDSEP
 70
44
  9
$DIMATFIT
 70
3
  9
$DIMFRAC
 70
0
  9
$DIMLDRBLK
  1

  9
$DIMLUNIT
 70
2
  9
$DIMLWD
 70
-2
  9
$DIMLWE
 70
-2
  9
$DIMTMOVE
 70
0
  9
$DIMFXL
 40
1.0
  9
$DIMFXLON
 70
0
  9
$DIMJOGANG
 40
0.785398163397
  9
$DIMTFILL
 70
0
  9
$DIMTFILLCLR
 70
0
  9
$DIMARCSYM
 70
0
  9
$DIMLTYPE
  6

  9
$DIMLTEX1
  6

  9
$DIMLTEX2
  6

  9
$DIMTXTDIRECTION
 70
0
  9
$LUNITS
 70
2
  9
$LUPREC
 70
4
  9
$SKETCHINC
 40
1.0
  9
$FILLETRAD
 40
10.0
  9
$AUNITS
 70
0
  9
$AUPREC
 70
2
  9
$MENU
  1
.
  9
$ELEVATION
 40
0.0
  9
$PELEVATION
 40
0.0
  9
$THICKNESS
 40
0.0
  9
$LIMCHECK
 70
0
  9
$CHAMFERA
 40
0.0
  9
$CHAMFERB
 40
0.0
  9
$CHAMFERC
 40
0.0
  9
$CHAMFERD
 40
0.0
  9
$SKPOLY
 70
0
  9
$TDCREATE
 40
2461307.828900463
  9
$TDUCREATE
 40
2458532.153996898
  9
$TDUPDATE
 40
2461307.828900463
  9
$TDUUPDATE
 40
2458532.1544311
  9
$TDINDWG
 40
0.0
  9
$TDUSRTIMER
 40
0.0
  9
$USRTIMER
 70
1
  9
$ANGBASE
 50
0.0
  9
$ANGDIR
 70
0
  9
$PDMODE
 70
0
  9
$PDSIZE
 40
0.0
  9
$PLINEWID
 40
0.0
  9
$SPLFRAME
 70
0
  9
$SPLINETYPE
 70
6
  9
$SPLINESEGS
 70
8
  9
$HANDSEED
  5
11A
  9
$SURFTAB1
 70
6
  9
$SURFTAB2
 70
6
  9
$SURFTYPE
 70
6
  9
$SURFU
 70
6
  9
$SURFV
 70
6
  9
$UCSBASE
  2

  9
$UCSNAME
  2

  9
$UCSORG
 10
0.0
 20
0.0
 30
0.0
  9
$UCSXDIR
 10
1.0
 20
0.0
 30
0.0
  9
$UCSYDIR
 10
0.0
 20
1.0
 30
0.0
  9
$UCSORTHOREF
  2

  9
$UCSORTHOVIEW
 70
0
  9
$UCSORGTOP
 10
0.0
 20
0.0
 30
0.0
  9
$UCSORGBOTTOM
 10
0.0
 20
0.0
 30
0.0
  9
$UCSORGLEFT
 10
0.0
 20
0.0
 30
0.0
  9
$UCSORGRIGHT
 10
0.0
 20
0.0
 30
0.0
  9
$UCSORGFRONT
 10
0.0
 20
0.0
 30
0.0
  9
$UCSORGBACK
 10
0.0
 20
0.0
 30
0.0
  9
$PUCSBASE
  2

  9
$PUCSNAME
  2

  9
$PUCSORG
 10
0.0
 20
0.0
 30
0.0
  9
$PUCSXDIR
 10
1.0
 20
0.0
 30
0.0
  9
$PUCSYDIR
 10
0.0
 20
1.0
 30
0.0
  9
$PUCSORTHOREF
  2

  9
$PUCSORTHOVIEW
 70
0
  9
$PUCSORGTOP
 10
0.0
 20
0.0
 30
0.0
  9
$PUCSORGBOTTOM
 10
0.0
 20
0.0
 30
0.0
  9
$PUCSORGLEFT
 10
0.0
 20
0.0
 30
0.0
  9
$PUCSORGRIGHT
 10
0.0
 20
0.0
 30
0.0
  9
$PUCSORGFRONT
 10
0.0
 20
0.0
 30
0.0
  9
$PUCSORGBACK
 10
0.0
 20
0.0
 30
0.0
  9
$USERI1
 70
0
  9
$USERI2
 70
0
  9
$USERI3
 70
0
  9
$USERI4
 70
0
  9
$USERI5
 70
0
  9
$USERR1
 40
0.0
  9
$USERR2
 40
0.0
  9
$USERR3
 40
0.0
  9
$USERR4
 40
0.0
  9
$USERR5
 40
0.0
  9
$WORLDVIEW
 70
1
  9
$SHADEDGE
 70
3
  9
$SHADEDIF
 70
70
  9
$TILEMODE
 70
1
  9
$MAXACTVP
 70
64
  9
$PINSBASE
 10
0.0
 20
0.0
 30
0.0
  9
$PLIMCHECK
 70
0
  9
$PEXTMIN
 10
1e+20
 20
1e+20
 30
1e+20
  9
$PEXTMAX
 10
-1e+20
 20
-1e+20
 30
-1e+20
  9
$PLIMMIN
 10
0.0
 20
0.0
  9
$PLIMMAX
 10
420.0
 20
297.0
  9
$UNITMODE
 70
0
  9
$VISRETAIN
 70
1
  9
$PLINEGEN
 70
0
  9
$PSLTSCALE
 70
1
  9
$TREEDEPTH
 70
3020
  9
$CMLSTYLE
  2
Standard
  9
$CMLJUST
 70
0
  9
$CMLSCALE
 40
20.0
  9
$PROXYGRAPHICS
 70
1
  9
$MEASUREMENT
 70
1
  9
$CELWEIGHT
370
-1
  9
$ENDCAPS
280
0
  9
$JOINSTYLE
280
0
  9
$LWDISPLAY
290
0
  9
$INSUNITS
 70
4
  9
$HYPERLINKBASE
  1

  9
$STYLESHEET
  1

  9
$XEDIT
290
1
  9
$CEPSNTYPE
380
0
  9
$PSTYLEMODE
290
1
  9
$FINGERPRINTGUID
  2
{9A4ACECB-E1FE-4F56-B17D-73EF1DB57807}
  9
$VERSIONGUID
  2
{579BE891-DED4-4293-A8BC-CDD911E8D669}
  9
$EXTNAMES
290
1
  9
$PSVPSCALE
 40
0.0
  9
$OLESTARTUP
290
0
  9
$SORTENTS
280
127
  9
$INDEXCTL
280
0
  9
$HIDETEXT
280
1
  9
$XCLIPFRAME
280
1
  9
$HALOGAP
280
0
  9
$OBSCOLOR
 70
257
  9
$OBSLTYPE
280
0
  9
$INTERSECTIONDISPLAY
280
0
  9
$INTERSECTIONCOLOR
 70
257
  9
$DIMASSOC
280
2
  9
$PROJECTNAME
  1

  9
$CAMERADISPLAY
290
0
  9
$LENSLENGTH
 40
50.0
  9
$CAMERAHEIGHT
 40
0.0
  9
$STEPSPERSEC
 40
24.0
  9
$STEPSIZE
 40
100.0
  9
$3DDWFPREC
 40
2.0
  9
$PSOLWIDTH
 40
0.005
  9
$PSOLHEIGHT
 40
0.08
  9
$LOFTANG1
 40
1.570796326795
  9
$LOFTANG2
 40
1.570796326795
  9
$LOFTMAG1
 40
0.0
  9
$LOFTMAG2
 40
0.0
  9
$LOFTPARAM
 70
7
  9
$LOFTNORMALS
280
1
  9
$LATITUDE
 40
37.795
  9
$LONGITUDE
 40
-122.394
  9
$NORTHDIRECTION
 40
0.0
  9
$TIMEZONE
 70
-8000
  9
$LIGHTGLYPHDISPLAY
280
1
  9
$TILEMODELIGHTSYNCH
280
1
  9
$CMATERIAL
347
20
  9
$SOLIDHIST
280
0
  9
$SHOWHIST
280
1
  9
$DWFFRAME
280
2
  9
$DGNFRAME
280
2
  9
$REALWORLDSCALE
290
1
  9
$INTERFERECOLOR
 62
256
  9
$CSHADOW
280
0
  9
$SHADOWPLANELOCATION
 40
0.0
  0
ENDSEC
  0
SECTION
  2
CLASSES
  0
CLASS
  1
ACDBDICTIONARYWDFLT
  2
AcDbDictionaryWithDefault
  3
ObjectDBX Classes
 90
0
 91
0
280
0
281
0
  0
CLASS
  1
SUN
  2
AcDbSun
  3
SCENEOE
 90
1153
 91
0
280
0
281
0
  0
CLASS
  1
VISUALSTYLE
  2
AcDbVisualStyle
  3
ObjectDBX Classes
 90
4095
 91
0
280
0
281
0
  0
CLASS
  1
MATERIAL
  2
AcDbMaterial
  3
ObjectDBX Classes
 90
1153
 91
0
280
0
281
0
  0
CLASS
  1
SCALE
  2
AcDbScale
  3
ObjectDBX Classes
 90
1153
 91
0
280
0
281
0
  0
CLASS
  1
TABLESTYLE
  2
AcDbTableStyle
  3
ObjectDBX Classes
 90
4095
 91
0
280
0
281
0
  0
CLASS
  1
MLEADERSTYLE
  2
AcDbMLeaderStyle
  3
ACDB_MLEADERSTYLE_CLASS
 90
4095
 91
0
280
0
281
0
  0
CLASS
  1
DICTIONARYVAR
  2
AcDbDictionaryVar
  3
ObjectDBX Classes
 90
0
 91
0
280
0
281
0
  0
CLASS
  1
CELLSTYLEMAP
  2
AcDbCellStyleMap
  3
ObjectDBX Classes
 90
1152
 91
0
280
0
281
0
  0
CLASS
  1
MENTALRAYRENDERSETTINGS
  2
AcDbMentalRayRenderSettings
  3
SCENEOE
 90
1024
 91
0
280
0
281
0
  0
CLASS
  1
ACDBDETAILVIEWSTYLE
  2
AcDbDetailViewStyle
  3
ObjectDBX Classes
 90
1025
 91
0
280
0
281
0
  0
CLASS
  1
ACDBSECTIONVIEWSTYLE
  2
AcDbSectionViewStyle
  3
ObjectDBX Classes
 90
1025
 91
0
280
0
281
0
  0
CLASS
  1
RASTERVARIABLES
  2
AcDbRasterVariables
  3
ISM
 90
0
 91
0
280
0
281
0
  0
CLASS
  1
ACDBPLACEHOLDER
  2
AcDbPlaceHolder
  3
ObjectDBX Classes
 90
0
 91
0
280
0
281
0
  0
CLASS
  1
LAYOUT
  2
AcDbLayout
  3
ObjectDBX Classes
 90
0
 91
0
280
0
281
0
  0
ENDSEC
  0
SECTION
  2
TABLES
  0
TABLE
  2
VPORT
  5
8
330
0
100
AcDbSymbolTable
 70
1
  0
VPORT
  5
23
330
8
100
AcDbSymbolTableRecord
100
AcDbViewportTableRecord
  2
*Active
 70
0
 10
0.0
 20
0.0
 11
1.0
 21
1.0
 12
0.0
 22
0.0
 13
0.0
 23
0.0
 14
0.5
 24
0.5
 15
0.5
 25
0.5
 16
0.0
 26
0.0
 36
1.0
 17
0.0
 27
0.0
 37
0.0
 40
1000.0
 41
1.34
 42
50.0
 43
0.0
 44
0.0
 50
0.0
 51
0.0
 71
0
 72
1000
 73
1
 74
3
 75
0
 76
0
 77
0
 78
0
281
0
 65
0
146
0.0
  0
ENDTAB
  0
TABLE
  2
LTYPE
  5
2
330
0
100
AcDbSymbolTable
 70
3
  0
LTYPE
  5
24
330
2
100
AcDbSymbolTableRecord
100
AcDbLinetypeTableRecord
  2
ByBlock
 70
0
  3

 72
65
 73
0
 40
0.0
  0
LTYPE
  5
25
330
2
100
AcDbSymbolTableRecord
100
AcDbLinetypeTableRecord
  2
ByLayer
 70
0
  3

 72
65
 73
0
 40
0.0
  0
LTYPE
  5
26
330
2
100
AcDbSymbolTableRecord
100
AcDbLinetypeTableRecord
  2
Continuous
 70
0
  3

 72
65
 73
0
 40
0.0
  0
ENDTAB
  0
TABLE
  2
LAYER
  5
1
330
0
100
AcDbSymbolTable
 70
2
  0
LAYER
  5
27
330
1
100
AcDbSymbolTableRecord
100
AcDbLayerTableRecord
  2
0
 70
0
 62
7
  6
Continuous
370
-3
390
13
347
21
  0
LAYER
  5
28
330
1
100
AcDbSymbolTableRecord
100
AcDbLayerTableRecord
  2
Defpoints
 70
0
 62
7
  6
Continuous
290
0
370
-3
390
13
347
21
  0
ENDTAB
  0
TABLE
  2
STYLE
  5
5
330
0
100
AcDbSymbolTable
 70
2
  0
STYLE
  5
29
330
5
100
AcDbSymbolTableRecord
100
AcDbTextStyleTableRecord
  2
Standard
 70
0
 40
0.0
 41
1.0
 50
0.0
 71
0
 42
2.5
  3
txt
  4

  0
STYLE
  5
114
330
5
100
AcDbSymbolTableRecord
100
AcDbTextStyleTableRecord
  2
SIMPLEX
 70
0
 40
0.0
 41
0.7
 50
0.0
 71
0
 42
7.0
  3
SIMPLEX.shx
  4

  0
ENDTAB
  0
TABLE
  2
VIEW
  5
7
330
0
100
AcDbSymbolTable
 70
0
  0
ENDTAB
  0
TABLE
  2
UCS
  5
6
330
0
100
AcDbSymbolTable
 70
0
  0
ENDTAB
  0
TABLE
  2
APPID
  5
3
330
0
100
AcDbSymbolTable
 70
3
  0
APPID
  5
2A
330
3
100
AcDbSymbolTableRecord
100
AcDbRegAppTableRecord
  2
ACAD
 70
0
  0
APPID
  5
117
330
3
100
AcDbSymbolTableRecord
100
AcDbRegAppTableRecord
  2
HATCHBACKGROUNDCOLOR
 70
0
  0
APPID
  5
118
330
3
100
AcDbSymbolTableRecord
100
AcDbRegAppTableRecord
  2
EZDXF
 70
0
  0
ENDTAB
  0
TABLE
  2
DIMSTYLE
  5
4
330
0
100
AcDbSymbolTable
 70
1
100
AcDbDimStyleTable
  0
DIMSTYLE
105
2B
330
4
100
AcDbSymbolTableRecord
100
AcDbDimStyleTableRecord
  2
Standard
 70
0
 40
1.0
 41
2.5
 42
0.625
 43
3.75
 44
1.25
 45
0.0
 46
0.0
 47
0.0
 48
0.0
 49
2.5
140
2.5
141
2.5
142
0.0
143
0.03937007874
144
1.0
145
0.0
146
1.0
147
0.625
148
0.0
 69
0
 70
0
 71
0
 72
0
 73
0
 74
0
 75
0
 76
0
 77
1
 78
8
 79
3
170
0
171
3
172
1
173
0
174
0
175
0
176
0
177
0
178
0
179
2
271
2
272
2
273
2
274
3
275
0
276
0
277
2
278
44
279
0
280
0
281
0
282
0
283
0
284
8
285
0
286
0
288
0
289
3
290
0
371
-2
372
-2
  0
ENDTAB
  0
TABLE
  2
BLOCK_RECORD
  5
9
330
0
100
AcDbSymbolTable
 70
3
  0
BLOCK_RECORD
  5
17
330
9
100
AcDbSymbolTableRecord
100
AcDbBlockTableRecord
  2
*Model_Space
340
1A
 70
0
280
1
281
0
  0
BLOCK_RECORD
  5
1B
330
9
100
AcDbSymbolTableRecord
100
AcDbBlockTableRecord
  2
*Paper_Space
340
1E
 70
0
280
1
281
0
  0
BLOCK_RECORD
  5
2F
330
9
100
AcDbSymbolTableRecord
100
AcDbBlockTableRecord
  2
RM
340
0
 70
0
280
1
281
0
  0
ENDTAB
  0
ENDSEC
  0
SECTION
  2
BLOCKS
  0
BLOCK
  5
18
330
17
100
AcDbEntity
  8
0
100
AcDbBlockBegin
  2
*Model_Space
 70
0
 10
0.0
 20
0.0
 30
0.0
  3
*Model_Space
  1

  0
ENDBLK
  5
19
330
17
100
AcDbEntity
  8
0
100
AcDbBlockEnd
  0
BLOCK
  5
1C
330
1B
100
AcDbEntity
  8
0
100
AcDbBlockBegin
  2
*Paper_Space
 70
0
 10
0.0
 20
0.0
 30
0.0
  3
*Paper_Space
  1

  0
ENDBLK
  5
1D
330
1B
100
AcDbEntity
  8
0
100
AcDbBlockEnd
  0
BLOCK
  5
30
330
2F
100
AcDbEntity
  8
0
100
AcDbBlockBegin
  2
RM
 70
0
 10
0.0
 20
0.0
 30
0.0
  3
RM
  1

  0
SPLINE
  5
32
330
2F
100
AcDbEntity
  8
0
100
AcDbSpline
210
1.0
220
0.0
230
0.0
 70
8
 71
2
 72
6
 73
3
 74
0
 42
1e-09
 40
0.0
 40
0.0
 40
0.0
 40
1.0
 40
1.0
 40
1.0
 10
33937.14318799612
 20
3533.72188298383
 30
-12.09876315320016
 10
33937.14318799612
 20
3538.080729468049
 30
-8.441256676000169
 10
33937.14318799612
 20
3547.37188298375
 30
-8.441256676000169
  0
SPLINE
  5
33
330
2F
100
AcDbEntity
  8
0
100
AcDbSpline
210
1.0
220
0.0
230
0.0
 70
8
 71
2
 72
6
 73
3
 74
0
 42
1e-09
 40
0.0
 40
0.0
 40
0.0
 40
0.7881503665000003
 40
0.7881503665000003
 40
0.7881503665000003
 10
33919.2431879948
 20
3533.72188298383
 30
-12.09876315320016
 10
33919.2431879948
 20
3536.40064871849
 30
-9.851011811780165
 10
33919.2431879948
 20
3544.971503507151
 30
-8.644116732560166
  0
LINE
  5
34
330
2F
100
AcDbEntity
  8
0
100
AcDbLine
 10
33931.36420170549
 20
3530.921882985671
 30
-1.673e-13
 11
33925.02217428797
 21
3530.921882985671
 31
-1.673e-13
  0
LINE
  5
35
330
2F
100
AcDbEntity
  8
0
100
AcDbLine
 10
33931.19318799621
 20
3532.42188298541
 30
-1.673e-13
 11
33925.19318799472
 21
3532.42188298541
 31
-1.673e-13
  0
LINE
  5
36
330
2F
100
AcDbEntity
  8
0
100
AcDbLine
 10
33937.14318799612
 20
3533.72188298383
 30
-1.673e-13
 11
33919.2431879948
 21
3533.72188298383
 31
-1.673e-13
  0
LINE
  5
37
330
2F
100
AcDbEntity
  8
0
100
AcDbLine
 10
33919.2431879948
 20
3544.97188298569
 30
-1.673e-13
 11
33937.14318799612
 21
3544.97188298569
 31
-1.673e-13
  0
LINE
  5
38
330
2F
100
AcDbEntity
  8
0
100
AcDbLine
 10
33936.94318799479
 20
3548.221882985551
 30
-1.673e-13
 11
33936.64318799535
 21
3548.221882985551
 31
-1.673e-13
  0
LINE
  5
39
330
2F
100
AcDbEntity
  8
0
100
AcDbLine
 10
33919.74318799557
 20
3548.221882985551
 30
-1.673e-13
 11
33919.44318799613
 21
3548.221882985551
 31
-1.673e-13
  0
LINE
  5
3A
330
2F
100
AcDbEntity
  8
0
100
AcDbLine
 10
33925.29318799537
 20
3548.221882985551
 30
-1.673e-13
 11
33925.69318799547
 21
3548.221882985551
 31
-1.673e-13
  0
LINE
  5
3B
330
2F
100
AcDbEntity
  8
0
100
AcDbLine
 10
33930.69318799545
 20
3548.221882985551
 30
-1.673e-13
 11
33931.09318799556
 21
3548.221882985551
 31
-1.673e-13
  0
LINE
  5
3C
330
2F
100
AcDbEntity
  8
0
100
AcDbLine
 10
33922.29318799589
 20
3550.95188298401
 30
-1.673e-13
 11
33923.09318799608
 21
3550.95188298401
 31
-1.673e-13
  0
LINE
  5
3D
330
2F
100
AcDbEntity
  8
0
100
AcDbLine
 10
33927.79318799663
 20
3550.95188298401
 30
-1.673e-13
 11
33928.59318799429
 21
3550.95188298401
 31
-1.673e-13
  0
LINE
  5
3E
330
2F
100
AcDbEntity
  8
0
100
AcDbLine
 10
33933.29318799482
 20
3550.95188298401
 30
-1.673e-13
 11
33934.09318799503
 21
3550.95188298401
 31
-1.673e-13
  0
LINE
  5
3F
330
2F
100
AcDbEntity
  8
0
100
AcDbLine
 10
33920.42823766432
 20
3552.051882983651
 30
-1.673e-13
 11
33922.29318799589
 21
3552.051882983651
 31
-1.673e-13
  0
LINE
  5
40
330
2F
100
AcDbEntity
  8
0
100
AcDbLine
 10
33923.09318799608
 20
3552.051882983651
 30
-1.673e-13
 11
33924.95813832511
 21
3552.051882983651
 31
-1.673e-13
  0
LINE
  5
41
330
2F
100
AcDbEntity
  8
0
100
AcDbLine
 10
33925.92823766507
 20
3552.051882983651
 30
-1.673e-13
 11
33927.79318799663
 21
3552.051882983651
 31
-1.673e-13
  0
LINE
  5
42
330
2F
100
AcDbEntity
  8
0
100
AcDbLine
 10
33928.59318799429
 20
3552.051882983651
 30
-1.673e-13
 11
33930.45813832585
 21
3552.051882983651
 31
-1.673e-13
  0
LINE
  5
43
330
2F
100
AcDbEntity
  8
0
100
AcDbLine
 10
33931.42823766581
 20
3552.051882983651
 30
-1.673e-13
 11
33933.29318799482
 21
3552.051882983651
 31
-1.673e-13
  0
LINE
  5
44
330
2F
100
AcDbEntity
  8
0
100
AcDbLine
 10
33934.09318799503
 20
3552.051882983651
 30
-1.673e-13
 11
33935.95813832658
 21
3552.051882983651
 31
-1.673e-13
  0
LINE
  5
45
330
2F
100
AcDbEntity
  8
0
100
AcDbLine
 10
33935.95813832658
 20
3552.85188298385
 30
-1.673e-13
 11
33934.09318799503
 21
3552.85188298385
 31
-1.673e-13
  0
LINE
  5
46
330
2F
100
AcDbEntity
  8
0
100
AcDbLine
 10
33930.45813832585
 20
3552.85188298385
 30
-1.673e-13
 11
33928.59318799429
 21
3552.85188298385
 31
-1.673e-13
  0
LINE
  5
47
330
2F
100
AcDbEntity
  8
0
100
AcDbLine
 10
33924.95813832511
 20
3552.85188298385
 30
-1.673e-13
 11
33923.09318799608
 21
3552.85188298385
 31
-1.673e-13
  0
LINE
  5
48
330
2F
100
AcDbEntity
  8
0
100
AcDbLine
 10
33920.42823766432
 20
3552.85188298385
 30
-1.673e-13
 11
33922.29318799589
 21
3552.85188298385
 31
-1.673e-13
  0
LINE
  5
49
330
2F
100
AcDbEntity
  8
0
100
AcDbLine
 10
33925.92823766507
 20
3552.85188298385
 30
-1.673e-13
 11
33927.79318799663
 21
3552.85188298385
 31
-1.673e-13
  0
LINE
  5
4A
330
2F
100
AcDbEntity
  8
0
100
AcDbLine
 10
33931.42823766581
 20
3552.85188298385
 30
-1.673e-13
 11
33933.29318799482
 21
3552.85188298385
 31
-1.673e-13
  0
LINE
  5
4B
330
2F
100
AcDbEntity
  8
0
100
AcDbLine
 10
33934.09318799503
 20
3553.95188298349
 30
-1.673e-13
 11
33933.29318799482
 21
3553.95188298349
 31
-1.673e-13
  0
LINE
  5
4C
330
2F
100
AcDbEntity
  8
0
100
AcDbLine
 10
33928.59318799429
 20
3553.95188298349
 30
-1.673e-13
 11
33927.79318799663
 21
3553.95188298349
 31
-1.673e-13
  0
LINE
  5
4D
330
2F
100
AcDbEntity
  8
0
100
AcDbLine
 10
33923.09318799608
 20
3553.95188298349
 30
-1.673e-13
 11
33922.29318799589
 21
3553.95188298349
 31
-1.673e-13
  0
LINE
  5
4E
330
2F
100
AcDbEntity
  8
0
100
AcDbLine
 10
33919.2431879948
 20
3556.221882985011
 30
-1.673e-13
 11
33919.70579861391
 21
3556.221882985011
 31
-1.673e-13
  0
LINE
  5
4F
330
2F
100
AcDbEntity
  8
0
100
AcDbLine
 10
33919.74318799557
 20
3556.221882985011
 30
-1.673e-13
 11
33936.64318799535
 21
3556.221882985011
 31
-1.673e-13
  0
LINE
  5
50
330
2F
100
AcDbEntity
  8
0
100
AcDbLine
 10
33936.680577377
 20
3556.221882985011
 30
-1.673e-13
 11
33937.14318799612
 21
3556.221882985011
 31
-1.673e-13
  0
LINE
  5
51
330
2F
100
AcDbEntity
  8
0
100
AcDbLine
 10
33936.54318799469
 20
3556.37188298473
 30
-1.673e-13
 11
33919.84318799623
 21
3556.37188298473
 31
-1.673e-13
  0
LINE
  5
52
330
2F
100
AcDbEntity
  8
0
100
AcDbLine
 10
33923.61263535445
 20
3531.908852769412
 30
-1.673e-13
 11
33922.9527463237
 21
3533.72188298383
 31
-1.673e-13
  0
LINE
  5
53
330
2F
100
AcDbEntity
  8
0
100
AcDbLine
 10
33919.2431879948
 20
3544.97188298569
 30
-1.673e-13
 11
33919.2431879948
 21
3533.72188298383
 31
-1.673e-13
  0
LINE
  5
54
330
2F
100
AcDbEntity
  8
0
100
AcDbLine
 10
33919.2431879948
 20
3544.97188298569
 30
-1.673e-13
 11
33919.2431879948
 21
3623.221882985251
 31
-1.673e-13
  0
LINE
  5
55
330
2F
100
AcDbEntity
  8
0
100
AcDbLine
 10
33919.34318799547
 20
3556.871882985491
 30
-1.673e-13
 11
33919.34318799547
 21
3597.35939716905
 31
-1.673e-13
  0
LINE
  5
56
330
2F
100
AcDbEntity
  8
0
100
AcDbLine
 10
33919.94318799434
 20
3620.271882984829
 30
-1.673e-13
 11
33919.94318799434
 21
3612.47188298415
 31
-1.673e-13
  0
LINE
  5
57
330
2F
100
AcDbEntity
  8
0
100
AcDbLine
 10
33919.94318799434
 20
3609.021882985511
 30
-1.673e-13
 11
33919.94318799434
 21
3601.22188298483
 31
-1.673e-13
  0
LINE
  5
58
330
2F
100
AcDbEntity
  8
0
100
AcDbLine
 10
33919.94318799434
 20
3548.42188298433
 30
-1.673e-13
 11
33919.94318799434
 21
3556.221882985011
 31
-1.673e-13
  0
LINE
  5
59
330
2F
100
AcDbEntity
  8
0
100
AcDbLine
 10
33921.24318799532
 20
3601.22188298483
 30
-1.673e-13
 11
33921.24318799532
 21
3597.521882985809
 31
-1.673e-13
  0
LINE
  5
5A
330
2F
100
AcDbEntity
  8
0
100
AcDbLine
 10
33921.31818799517
 20
3597.521882985809
 30
-1.673e-13
 11
33921.31818799517
 21
3601.121882984171
 31
-1.673e-13
  0
LINE
  5
5B
330
2F
100
AcDbEntity
  8
0
100
AcDbLine
 10
33922.29318799589
 20
3617.74188298515
 30
-1.673e-13
 11
33922.29318799589
 21
3616.64188298551
 31
-1.673e-13
  0
LINE
  5
5C
330
2F
100
AcDbEntity
  8
0
100
AcDbLine
 10
33922.29318799589
 20
3615.84188298531
 30
-1.673e-13
 11
33922.29318799589
 21
3614.741882985671
 31
-1.673e-13
  0
LINE
  5
5D
330
2F
100
AcDbEntity
  8
0
100
AcDbLine
 10
33922.29318799589
 20
3606.491882985829
 30
-1.673e-13
 11
33922.29318799589
 21
3605.39188298365
 31
-1.673e-13
  0
LINE
  5
5E
330
2F
100
AcDbEntity
  8
0
100
AcDbLine
 10
33922.29318799589
 20
3604.591882985991
 30
-1.673e-13
 11
33922.29318799589
 21
3603.49188298381
 31
-1.673e-13
  0
LINE
  5
5F
330
2F
100
AcDbEntity
  8
0
100
AcDbLine
 10
33922.29318799589
 20
3553.95188298349
 30
-1.673e-13
 11
33922.29318799589
 21
3552.85188298385
 31
-1.673e-13
  0
LINE
  5
60
330
2F
100
AcDbEntity
  8
0
100
AcDbLine
 10
33922.29318799589
 20
3552.051882983651
 30
-1.673e-13
 11
33922.29318799589
 21
3550.95188298401
 31
-1.673e-13
  0
LINE
  5
61
330
2F
100
AcDbEntity
  8
0
100
AcDbLine
 10
33922.34318799495
 20
3556.37188298473
 30
-1.673e-13
 11
33922.34318799495
 21
3563.38938538607
 31
-1.673e-13
  0
LINE
  5
62
330
2F
100
AcDbEntity
  8
0
100
AcDbLine
 10
33923.09318799608
 20
3550.95188298401
 30
-1.673e-13
 11
33923.09318799608
 21
3552.051882983651
 31
-1.673e-13
  0
LINE
  5
63
330
2F
100
AcDbEntity
  8
0
100
AcDbLine
 10
33923.09318799608
 20
3552.85188298385
 30
-1.673e-13
 11
33923.09318799608
 21
3553.95188298349
 31
-1.673e-13
  0
LINE
  5
64
330
2F
100
AcDbEntity
  8
0
100
AcDbLine
 10
33923.09318799608
 20
3603.49188298381
 30
-1.673e-13
 11
33923.09318799608
 21
3604.591882985991
 31
-1.673e-13
  0
LINE
  5
65
330
2F
100
AcDbEntity
  8
0
100
AcDbLine
 10
33923.09318799608
 20
3605.39188298365
 30
-1.673e-13
 11
33923.09318799608
 21
3606.491882985829
 31
-1.673e-13
  0
LINE
  5
66
330
2F
100
AcDbEntity
  8
0
100
AcDbLine
 10
33923.09318799608
 20
3614.741882985671
 30
-1.673e-13
 11
33923.09318799608
 21
3615.84188298531
 31
-1.673e-13
  0
LINE
  5
67
330
2F
100
AcDbEntity
  8
0
100
AcDbLine
 10
33923.09318799608
 20
3616.64188298551
 30
-1.673e-13
 11
33923.09318799608
 21
3617.74188298515
 31
-1.673e-13
  0
LINE
  5
68
330
2F
100
AcDbEntity
  8
0
100
AcDbLine
 10
33924.14318799667
 20
3563.56332409839
 30
-1.673e-13
 11
33924.14318799667
 21
3556.37188298473
 31
-1.673e-13
  0
LINE
  5
69
330
2F
100
AcDbEntity
  8
0
100
AcDbLine
 10
33925.09318799659
 20
3548.42188298433
 30
-1.673e-13
 11
33925.09318799659
 21
3555.405941142171
 31
-1.673e-13
  0
LINE
  5
6A
330
2F
100
AcDbEntity
  8
0
100
AcDbLine
 10
33925.09318799659
 20
3602.037814215549
 30
-1.673e-13
 11
33925.09318799659
 21
3609.021882985511
 31
-1.673e-13
  0
LINE
  5
6B
330
2F
100
AcDbEntity
  8
0
100
AcDbLine
 10
33925.09318799659
 20
3613.287814217411
 30
-1.673e-13
 11
33925.09318799659
 21
3620.271882984829
 31
-1.673e-13
  0
LINE
  5
6C
330
2F
100
AcDbEntity
  8
0
100
AcDbLine
 10
33925.19318799472
 20
3532.42188298541
 30
-1.673e-13
 11
33925.19318799472
 21
3533.72188298383
 31
-1.673e-13
  0
LINE
  5
6D
330
2F
100
AcDbEntity
  8
0
100
AcDbLine
 10
33925.79328829564
 20
3548.32182942777
 30
-1.673e-13
 11
33925.79318799612
 21
3555.18365789103
 31
-1.673e-13
  0
LINE
  5
6E
330
2F
100
AcDbEntity
  8
0
100
AcDbLine
 10
33925.79318799612
 20
3602.26011359061
 30
-1.673e-13
 11
33925.79318799612
 21
3609.12188298363
 31
-1.673e-13
  0
LINE
  5
6F
330
2F
100
AcDbEntity
  8
0
100
AcDbLine
 10
33925.79318799612
 20
3613.51011358993
 30
-1.673e-13
 11
33925.79318799612
 21
3620.37188298549
 31
-1.673e-13
  0
LINE
  5
70
330
2F
100
AcDbEntity
  8
0
100
AcDbLine
 10
33927.79318799663
 20
3617.74188298515
 30
-1.673e-13
 11
33927.79318799663
 21
3616.64188298551
 31
-1.673e-13
  0
LINE
  5
71
330
2F
100
AcDbEntity
  8
0
100
AcDbLine
 10
33927.79318799663
 20
3615.84188298531
 30
-1.673e-13
 11
33927.79318799663
 21
3614.741882985671
 31
-1.673e-13
  0
LINE
  5
72
330
2F
100
AcDbEntity
  8
0
100
AcDbLine
 10
33927.79318799663
 20
3606.491882985829
 30
-1.673e-13
 11
33927.79318799663
 21
3605.39188298365
 31
-1.673e-13
  0
LINE
  5
73
330
2F
100
AcDbEntity
  8
0
100
AcDbLine
 10
33927.79318799663
 20
3604.591882985991
 30
-1.673e-13
 11
33927.79318799663
 21
3603.49188298381
 31
-1.673e-13
  0
LINE
  5
74
330
2F
100
AcDbEntity
  8
0
100
AcDbLine
 10
33927.79318799663
 20
3553.95188298349
 30
-1.673e-13
 11
33927.79318799663
 21
3552.85188298385
 31
-1.673e-13
  0
LINE
  5
75
330
2F
100
AcDbEntity
  8
0
100
AcDbLine
 10
33927.79318799663
 20
3552.051882983651
 30
-1.673e-13
 11
33927.79318799663
 21
3550.95188298401
 31
-1.673e-13
  0
LINE
  5
76
330
2F
100
AcDbEntity
  8
0
100
AcDbLine
 10
33928.59318799429
 20
3550.95188298401
 30
-1.673e-13
 11
33928.59318799429
 21
3552.051882983651
 31
-1.673e-13
  0
LINE
  5
77
330
2F
100
AcDbEntity
  8
0
100
AcDbLine
 10
33928.59318799429
 20
3552.85188298385
 30
-1.673e-13
 11
33928.59318799429
 21
3553.95188298349
 31
-1.673e-13
  0
LINE
  5
78
330
2F
100
AcDbEntity
  8
0
100
AcDbLine
 10
33928.59318799429
 20
3603.49188298381
 30
-1.673e-13
 11
33928.59318799429
 21
3604.591882985991
 31
-1.673e-13
  0
LINE
  5
79
330
2F
100
AcDbEntity
  8
0
100
AcDbLine
 10
33928.59318799429
 20
3605.39188298365
 30
-1.673e-13
 11
33928.59318799429
 21
3606.491882985829
 31
-1.673e-13
  0
LINE
  5
7A
330
2F
100
AcDbEntity
  8
0
100
AcDbLine
 10
33928.59318799429
 20
3614.741882985671
 30
-1.673e-13
 11
33928.59318799429
 21
3615.84188298531
 31
-1.673e-13
  0
LINE
  5
7B
330
2F
100
AcDbEntity
  8
0
100
AcDbLine
 10
33928.59318799429
 20
3616.64188298551
 30
-1.673e-13
 11
33928.59318799429
 21
3617.74188298515
 31
-1.673e-13
  0
LINE
  5
7C
330
2F
100
AcDbEntity
  8
0
100
AcDbLine
 10
33925.79330924049
 20
3549.95104766539
 30
-1.673e-13
 11
33925.79318799612
 21
3549.53359283355
 31
-1.673e-13
  0
LINE
  5
7D
330
2F
100
AcDbEntity
  8
0
100
AcDbLine
 10
33930.59318799478
 20
3548.32188298367
 30
-1.673e-13
 11
33930.59318799478
 21
3555.18365237923
 31
-1.673e-13
  0
LINE
  5
7E
330
2F
100
AcDbEntity
  8
0
100
AcDbLine
 10
33930.59318799478
 20
3602.260108078809
 30
-1.673e-13
 11
33930.59308769526
 21
3609.121936542071
 31
-1.673e-13
  0
LINE
  5
7F
330
2F
100
AcDbEntity
  8
0
100
AcDbLine
 10
33930.59318799478
 20
3613.510108080671
 30
-1.673e-13
 11
33930.59308769526
 21
3620.371936543929
 31
-1.673e-13
  0
LINE
  5
80
330
2F
100
AcDbEntity
  8
0
100
AcDbLine
 10
33931.19318799621
 20
3533.72188298383
 30
-1.673e-13
 11
33931.19318799621
 21
3532.42188298541
 31
-1.673e-13
  0
LINE
  5
81
330
2F
100
AcDbEntity
  8
0
100
AcDbLine
 10
33931.29318799433
 20
3620.271882984829
 30
-1.673e-13
 11
33931.29318799433
 21
3613.28779795125
 31
-1.673e-13
  0
LINE
  5
82
330
2F
100
AcDbEntity
  8
0
100
AcDbLine
 10
33931.29318799433
 20
3609.021882985511
 30
-1.673e-13
 11
33931.29318799433
 21
3602.03779795193
 31
-1.673e-13
  0
LINE
  5
83
330
2F
100
AcDbEntity
  8
0
100
AcDbLine
 10
33931.29318799433
 20
3548.42188298433
 30
-1.673e-13
 11
33931.29318799433
 21
3555.40595175429
 31
-1.673e-13
  0
LINE
  5
84
330
2F
100
AcDbEntity
  8
0
100
AcDbLine
 10
33933.29318799482
 20
3617.74188298515
 30
-1.673e-13
 11
33933.29318799482
 21
3616.64188298551
 31
-1.673e-13
  0
LINE
  5
85
330
2F
100
AcDbEntity
  8
0
100
AcDbLine
 10
33933.29318799482
 20
3615.84188298531
 30
-1.673e-13
 11
33933.29318799482
 21
3614.741882985671
 31
-1.673e-13
  0
LINE
  5
86
330
2F
100
AcDbEntity
  8
0
100
AcDbLine
 10
33933.29318799482
 20
3606.491882985829
 30
-1.673e-13
 11
33933.29318799482
 21
3605.39188298365
 31
-1.673e-13
  0
LINE
  5
87
330
2F
100
AcDbEntity
  8
0
100
AcDbLine
 10
33933.29318799482
 20
3604.591882985991
 30
-1.673e-13
 11
33933.29318799482
 21
3603.49188298381
 31
-1.673e-13
  0
LINE
  5
88
330
2F
100
AcDbEntity
  8
0
100
AcDbLine
 10
33933.29318799482
 20
3553.95188298349
 30
-1.673e-13
 11
33933.29318799482
 21
3552.85188298385
 31
-1.673e-13
  0
LINE
  5
89
330
2F
100
AcDbEntity
  8
0
100
AcDbLine
 10
33933.29318799482
 20
3552.051882983651
 30
-1.673e-13
 11
33933.29318799482
 21
3550.95188298401
 31
-1.673e-13
  0
LINE
  5
8A
330
2F
100
AcDbEntity
  8
0
100
AcDbLine
 10
33934.09318799503
 20
3550.95188298401
 30
-1.673e-13
 11
33934.09318799503
 21
3552.051882983651
 31
-1.673e-13
  0
LINE
  5
8B
330
2F
100
AcDbEntity
  8
0
100
AcDbLine
 10
33934.09318799503
 20
3552.85188298385
 30
-1.673e-13
 11
33934.09318799503
 21
3553.95188298349
 31
-1.673e-13
  0
LINE
  5
8C
330
2F
100
AcDbEntity
  8
0
100
AcDbLine
 10
33934.09318799503
 20
3603.49188298381
 30
-1.673e-13
 11
33934.09318799503
 21
3604.591882985991
 31
-1.673e-13
  0
LINE
  5
8D
330
2F
100
AcDbEntity
  8
0
100
AcDbLine
 10
33934.09318799503
 20
3605.39188298365
 30
-1.673e-13
 11
33934.09318799503
 21
3606.491882985829
 31
-1.673e-13
  0
LINE
  5
8E
330
2F
100
AcDbEntity
  8
0
100
AcDbLine
 10
33934.09318799503
 20
3614.741882985671
 30
-1.673e-13
 11
33934.09318799503
 21
3615.84188298531
 31
-1.673e-13
  0
LINE
  5
8F
330
2F
100
AcDbEntity
  8
0
100
AcDbLine
 10
33934.09318799503
 20
3616.64188298551
 30
-1.673e-13
 11
33934.09318799503
 21
3617.74188298515
 31
-1.673e-13
  0
LINE
  5
90
330
2F
100
AcDbEntity
  8
0
100
AcDbLine
 10
33935.06818799576
 20
3601.121882984171
 30
-1.673e-13
 11
33935.06818799576
 21
3597.521882985809
 31
-1.673e-13
  0
LINE
  5
91
330
2F
100
AcDbEntity
  8
0
100
AcDbLine
 10
33935.14318799561
 20
3601.22188298483
 30
-1.673e-13
 11
33935.14318799561
 21
3597.521882985809
 31
-1.673e-13
  0
LINE
  5
92
330
2F
100
AcDbEntity
  8
0
100
AcDbLine
 10
33936.44318799657
 20
3548.42188298433
 30
-1.673e-13
 11
33936.44318799657
 21
3556.221882985011
 31
-1.673e-13
  0
LINE
  5
93
330
2F
100
AcDbEntity
  8
0
100
AcDbLine
 10
33936.44318799657
 20
3601.22188298483
 30
-1.673e-13
 11
33936.44318799657
 21
3609.021882985511
 31
-1.673e-13
  0
LINE
  5
94
330
2F
100
AcDbEntity
  8
0
100
AcDbLine
 10
33936.44318799657
 20
3612.47188298415
 30
-1.673e-13
 11
33936.44318799657
 21
3620.271882984829
 31
-1.673e-13
  0
LINE
  5
95
330
2F
100
AcDbEntity
  8
0
100
AcDbLine
 10
33937.04318799545
 20
3597.35939716905
 30
-1.673e-13
 11
33937.04318799545
 21
3556.871882985491
 31
-1.673e-13
  0
LINE
  5
96
330
2F
100
AcDbEntity
  8
0
100
AcDbLine
 10
33937.14318799612
 20
3544.97188298569
 30
-1.673e-13
 11
33937.14318799612
 21
3533.72188298383
 31
-1.673e-13
  0
LINE
  5
97
330
2F
100
AcDbEntity
  8
0
100
AcDbLine
 10
33937.14318799612
 20
3544.97188298569
 30
-1.673e-13
 11
33937.14318799612
 21
3623.221882985251
 31
-1.673e-13
  0
LINE
  5
98
330
2F
100
AcDbEntity
  8
0
100
AcDbLine
 10
33933.4336296672
 20
3533.72188298383
 30
-1.673e-13
 11
33932.77374063647
 21
3531.908852769412
 31
-1.673e-13
  0
LINE
  5
99
330
2F
100
AcDbEntity
  8
0
100
AcDbLine
 10
33936.24241156042
 20
3597.521882985809
 30
-1.673e-13
 11
33935.06818799576
 21
3597.521882985809
 31
-1.673e-13
  0
LINE
  5
9A
330
2F
100
AcDbEntity
  8
0
100
AcDbLine
 10
33921.31818799517
 20
3597.521882985809
 30
-1.673e-13
 11
33920.14396443049
 21
3597.521882985809
 31
-1.673e-13
  0
LINE
  5
9B
330
2F
100
AcDbEntity
  8
0
100
AcDbLine
 10
33936.64318799535
 20
3597.683216498552
 30
-1.673e-13
 11
33935.14318799561
 21
3597.683216498552
 31
-1.673e-13
  0
LINE
  5
9C
330
2F
100
AcDbEntity
  8
0
100
AcDbLine
 10
33919.74318799557
 20
3597.683216498552
 30
-1.673e-13
 11
33921.24318799532
 21
3597.683216498552
 31
-1.673e-13
  0
LINE
  5
9D
330
2F
100
AcDbEntity
  8
0
100
AcDbLine
 10
33921.31818799517
 20
3599.32188298499
 30
-1.673e-13
 11
33935.06818799576
 21
3599.32188298499
 31
-1.673e-13
  0
LINE
  5
9E
330
2F
100
AcDbEntity
  8
0
100
AcDbLine
 10
33921.31818799517
 20
3601.121882984171
 30
-1.673e-13
 11
33935.06818799576
 21
3601.121882984171
 31
-1.673e-13
  0
LINE
  5
9F
330
2F
100
AcDbEntity
  8
0
100
AcDbLine
 10
33937.14318799612
 20
3601.22188298483
 30
-1.673e-13
 11
33936.680577377
 21
3601.22188298483
 31
-1.673e-13
  0
LINE
  5
A0
330
2F
100
AcDbEntity
  8
0
100
AcDbLine
 10
33919.70579861391
 20
3601.22188298483
 30
-1.673e-13
 11
33919.2431879948
 21
3601.22188298483
 31
-1.673e-13
  0
LINE
  5
A1
330
2F
100
AcDbEntity
  8
0
100
AcDbLine
 10
33919.74318799557
 20
3601.22188298483
 30
-1.673e-13
 11
33936.64318799535
 21
3601.22188298483
 31
-1.673e-13
  0
LINE
  5
A2
330
2F
100
AcDbEntity
  8
0
100
AcDbLine
 10
33922.29318799589
 20
3603.49188298381
 30
-1.673e-13
 11
33923.09318799608
 21
3603.49188298381
 31
-1.673e-13
  0
LINE
  5
A3
330
2F
100
AcDbEntity
  8
0
100
AcDbLine
 10
33927.79318799663
 20
3603.49188298381
 30
-1.673e-13
 11
33928.59318799429
 21
3603.49188298381
 31
-1.673e-13
  0
LINE
  5
A4
330
2F
100
AcDbEntity
  8
0
100
AcDbLine
 10
33933.29318799482
 20
3603.49188298381
 30
-1.673e-13
 11
33934.09318799503
 21
3603.49188298381
 31
-1.673e-13
  0
LINE
  5
A5
330
2F
100
AcDbEntity
  8
0
100
AcDbLine
 10
33920.42823766432
 20
3604.591882985991
 30
-1.673e-13
 11
33922.29318799589
 21
3604.591882985991
 31
-1.673e-13
  0
LINE
  5
A6
330
2F
100
AcDbEntity
  8
0
100
AcDbLine
 10
33923.09318799608
 20
3604.591882985991
 30
-1.673e-13
 11
33924.95813832511
 21
3604.591882985991
 31
-1.673e-13
  0
LINE
  5
A7
330
2F
100
AcDbEntity
  8
0
100
AcDbLine
 10
33925.92823766507
 20
3604.591882985991
 30
-1.673e-13
 11
33927.79318799663
 21
3604.591882985991
 31
-1.673e-13
  0
LINE
  5
A8
330
2F
100
AcDbEntity
  8
0
100
AcDbLine
 10
33928.59318799429
 20
3604.591882985991
 30
-1.673e-13
 11
33930.45813832585
 21
3604.591882985991
 31
-1.673e-13
  0
LINE
  5
A9
330
2F
100
AcDbEntity
  8
0
100
AcDbLine
 10
33931.42823766581
 20
3604.591882985991
 30
-1.673e-13
 11
33933.29318799482
 21
3604.591882985991
 31
-1.673e-13
  0
LINE
  5
AA
330
2F
100
AcDbEntity
  8
0
100
AcDbLine
 10
33934.09318799503
 20
3604.591882985991
 30
-1.673e-13
 11
33935.95813832658
 21
3604.591882985991
 31
-1.673e-13
  0
LINE
  5
AB
330
2F
100
AcDbEntity
  8
0
100
AcDbLine
 10
33935.95813832658
 20
3605.39188298365
 30
-1.673e-13
 11
33934.09318799503
 21
3605.39188298365
 31
-1.673e-13
  0
LINE
  5
AC
330
2F
100
AcDbEntity
  8
0
100
AcDbLine
 10
33930.45813832585
 20
3605.39188298365
 30
-1.673e-13
 11
33928.59318799429
 21
3605.39188298365
 31
-1.673e-13
  0
LINE
  5
AD
330
2F
100
AcDbEntity
  8
0
100
AcDbLine
 10
33924.95813832511
 20
3605.39188298365
 30
-1.673e-13
 11
33923.09318799608
 21
3605.39188298365
 31
-1.673e-13
  0
LINE
  5
AE
330
2F
100
AcDbEntity
  8
0
100
AcDbLine
 10
33920.42823766432
 20
3605.39188298365
 30
-1.673e-13
 11
33922.29318799589
 21
3605.39188298365
 31
-1.673e-13
  0
LINE
  5
AF
330
2F
100
AcDbEntity
  8
0
100
AcDbLine
 10
33925.92823766507
 20
3605.39188298365
 30
-1.673e-13
 11
33927.79318799663
 21
3605.39188298365
 31
-1.673e-13
  0
LINE
  5
B0
330
2F
100
AcDbEntity
  8
0
100
AcDbLine
 10
33931.42823766581
 20
3605.39188298365
 30
-1.673e-13
 11
33933.29318799482
 21
3605.39188298365
 31
-1.673e-13
  0
LINE
  5
B1
330
2F
100
AcDbEntity
  8
0
100
AcDbLine
 10
33934.09318799503
 20
3606.491882985829
 30
-1.673e-13
 11
33933.29318799482
 21
3606.491882985829
 31
-1.673e-13
  0
LINE
  5
B2
330
2F
100
AcDbEntity
  8
0
100
AcDbLine
 10
33928.59318799429
 20
3606.491882985829
 30
-1.673e-13
 11
33927.79318799663
 21
3606.491882985829
 31
-1.673e-13
  0
LINE
  5
B3
330
2F
100
AcDbEntity
  8
0
100
AcDbLine
 10
33923.09318799608
 20
3606.491882985829
 30
-1.673e-13
 11
33922.29318799589
 21
3606.491882985829
 31
-1.673e-13
  0
LINE
  5
B4
330
2F
100
AcDbEntity
  8
0
100
AcDbLine
 10
33936.94318799225
 20
3609.22188298429
 30
-1.673e-13
 11
33936.6431879928
 21
3609.22188298429
 31
-1.673e-13
  0
LINE
  5
B5
330
2F
100
AcDbEntity
  8
0
100
AcDbLine
 10
33931.09318799556
 20
3609.22188298429
 30
-1.673e-13
 11
33930.69318799545
 21
3609.22188298429
 31
-1.673e-13
  0
LINE
  5
B6
330
2F
100
AcDbEntity
  8
0
100
AcDbLine
 10
33925.69318799547
 20
3609.22188298429
 30
-1.673e-13
 11
33925.29318799537
 21
3609.22188298429
 31
-1.673e-13
  0
LINE
  5
B7
330
2F
100
AcDbEntity
  8
0
100
AcDbLine
 10
33919.44318799613
 20
3609.22188298429
 30
-1.673e-13
 11
33919.74318799557
 21
3609.22188298429
 31
-1.673e-13
  0
LINE
  5
B8
330
2F
100
AcDbEntity
  8
0
100
AcDbLine
 10
33919.2431879948
 20
3612.47188298415
 30
-1.673e-13
 11
33937.14318799612
 21
3612.47188298415
 31
-1.673e-13
  0
LINE
  5
B9
330
2F
100
AcDbEntity
  8
0
100
AcDbLine
 10
33922.29318799589
 20
3614.741882985671
 30
-1.673e-13
 11
33923.09318799608
 21
3614.741882985671
 31
-1.673e-13
  0
LINE
  5
BA
330
2F
100
AcDbEntity
  8
0
100
AcDbLine
 10
33927.79318799663
 20
3614.741882985671
 30
-1.673e-13
 11
33928.59318799429
 21
3614.741882985671
 31
-1.673e-13
  0
LINE
  5
BB
330
2F
100
AcDbEntity
  8
0
100
AcDbLine
 10
33933.29318799482
 20
3614.741882985671
 30
-1.673e-13
 11
33934.09318799503
 21
3614.741882985671
 31
-1.673e-13
  0
LINE
  5
BC
330
2F
100
AcDbEntity
  8
0
100
AcDbLine
 10
33920.42823766432
 20
3615.84188298531
 30
-1.673e-13
 11
33922.29318799589
 21
3615.84188298531
 31
-1.673e-13
  0
LINE
  5
BD
330
2F
100
AcDbEntity
  8
0
100
AcDbLine
 10
33923.09318799608
 20
3615.84188298531
 30
-1.673e-13
 11
33924.95813832511
 21
3615.84188298531
 31
-1.673e-13
  0
LINE
  5
BE
330
2F
100
AcDbEntity
  8
0
100
AcDbLine
 10
33925.92823766507
 20
3615.84188298531
 30
-1.673e-13
 11
33927.79318799663
 21
3615.84188298531
 31
-1.673e-13
  0
LINE
  5
BF
330
2F
100
AcDbEntity
  8
0
100
AcDbLine
 10
33928.59318799429
 20
3615.84188298531
 30
-1.673e-13
 11
33930.45813832585
 21
3615.84188298531
 31
-1.673e-13
  0
LINE
  5
C0
330
2F
100
AcDbEntity
  8
0
100
AcDbLine
 10
33931.42823766581
 20
3615.84188298531
 30
-1.673e-13
 11
33933.29318799482
 21
3615.84188298531
 31
-1.673e-13
  0
LINE
  5
C1
330
2F
100
AcDbEntity
  8
0
100
AcDbLine
 10
33934.09318799503
 20
3615.84188298531
 30
-1.673e-13
 11
33935.95813832658
 21
3615.84188298531
 31
-1.673e-13
  0
LINE
  5
C2
330
2F
100
AcDbEntity
  8
0
100
AcDbLine
 10
33935.95813832658
 20
3616.64188298551
 30
-1.673e-13
 11
33934.09318799503
 21
3616.64188298551
 31
-1.673e-13
  0
LINE
  5
C3
330
2F
100
AcDbEntity
  8
0
100
AcDbLine
 10
33930.45813832585
 20
3616.64188298551
 30
-1.673e-13
 11
33928.59318799429
 21
3616.64188298551
 31
-1.673e-13
  0
LINE
  5
C4
330
2F
100
AcDbEntity
  8
0
100
AcDbLine
 10
33924.95813832511
 20
3616.64188298551
 30
-1.673e-13
 11
33923.09318799608
 21
3616.64188298551
 31
-1.673e-13
  0
LINE
  5
C5
330
2F
100
AcDbEntity
  8
0
100
AcDbLine
 10
33920.42823766432
 20
3616.64188298551
 30
-1.673e-13
 11
33922.29318799589
 21
3616.64188298551
 31
-1.673e-13
  0
LINE
  5
C6
330
2F
100
AcDbEntity
  8
0
100
AcDbLine
 10
33925.92823766507
 20
3616.64188298551
 30
-1.673e-13
 11
33927.79318799663
 21
3616.64188298551
 31
-1.673e-13
  0
LINE
  5
C7
330
2F
100
AcDbEntity
  8
0
100
AcDbLine
 10
33931.42823766581
 20
3616.64188298551
 30
-1.673e-13
 11
33933.29318799482
 21
3616.64188298551
 31
-1.673e-13
  0
LINE
  5
C8
330
2F
100
AcDbEntity
  8
0
100
AcDbLine
 10
33934.09318799503
 20
3617.74188298515
 30
-1.673e-13
 11
33933.29318799482
 21
3617.74188298515
 31
-1.673e-13
  0
LINE
  5
C9
330
2F
100
AcDbEntity
  8
0
100
AcDbLine
 10
33928.59318799429
 20
3617.74188298515
 30
-1.673e-13
 11
33927.79318799663
 21
3617.74188298515
 31
-1.673e-13
  0
LINE
  5
CA
330
2F
100
AcDbEntity
  8
0
100
AcDbLine
 10
33923.09318799608
 20
3617.74188298515
 30
-1.673e-13
 11
33922.29318799589
 21
3617.74188298515
 31
-1.673e-13
  0
LINE
  5
CB
330
2F
100
AcDbEntity
  8
0
100
AcDbLine
 10
33936.94318799225
 20
3620.47188298361
 30
-1.673e-13
 11
33936.6431879928
 21
3620.47188298361
 31
-1.673e-13
  0
LINE
  5
CC
330
2F
100
AcDbEntity
  8
0
100
AcDbLine
 10
33931.09318799556
 20
3620.47188298361
 30
-1.673e-13
 11
33930.69318799545
 21
3620.47188298361
 31
-1.673e-13
  0
LINE
  5
CD
330
2F
100
AcDbEntity
  8
0
100
AcDbLine
 10
33925.69318799547
 20
3620.47188298361
 30
-1.673e-13
 11
33925.29318799537
 21
3620.47188298361
 31
-1.673e-13
  0
LINE
  5
CE
330
2F
100
AcDbEntity
  8
0
100
AcDbLine
 10
33919.44318799613
 20
3620.47188298361
 30
-1.673e-13
 11
33919.74318799557
 21
3620.47188298361
 31
-1.673e-13
  0
LINE
  5
CF
330
2F
100
AcDbEntity
  8
0
100
AcDbLine
 10
33936.64318799789
 20
3623.721882986011
 30
-1.673e-13
 11
33919.74318799557
 21
3623.721882986011
 31
-1.673e-13
  0
ARC
  5
D0
330
2F
100
AcDbEntity
  8
0
100
AcDbCircle
 10
33931.36420170549
 20
3532.42188298541
 30
-1.673e-13
 40
1.499999999739996
100
AcDbArc
 50
270.0
 51
339.999999999984
  0
ARC
  5
D1
330
2F
100
AcDbEntity
  8
0
100
AcDbCircle
 10
33925.02217428797
 20
3532.42188298541
 30
-1.673e-13
 40
1.499999999739996
100
AcDbArc
 50
200.000000000016
 51
270.0
  0
ARC
  5
D2
330
2F
100
AcDbEntity
  8
0
100
AcDbCircle
 10
33931.09318799556
 20
3620.271882984829
 30
-1.673e-13
 40
0.19999999878
100
AcDbArc
 50
0.0
 51
90.0
  0
ARC
  5
D3
330
2F
100
AcDbEntity
  8
0
100
AcDbCircle
 10
33930.69318799545
 20
3620.37188298549
 30
-1.673e-13
 40
0.10000000066
100
AcDbArc
 50
90.0
 51
179.9694554067068
  0
CIRCLE
  5
D4
330
2F
100
AcDbEntity
  8
0
100
AcDbCircle
 10
33933.69318799493
 20
3616.241882985411
 30
-1.673e-13
 40
2.349999999
  0
CIRCLE
  5
D5
330
2F
100
AcDbEntity
  8
0
100
AcDbCircle
 10
33928.19318799673
 20
3616.241882985411
 30
-1.673e-13
 40
2.349999999
  0
ARC
  5
D6
330
2F
100
AcDbEntity
  8
0
100
AcDbCircle
 10
33925.29318799537
 20
3620.271882984829
 30
-1.673e-13
 40
0.19999999878
100
AcDbArc
 50
90.0
 51
180.0
  0
ARC
  5
D7
330
2F
100
AcDbEntity
  8
0
100
AcDbCircle
 10
33925.69318799547
 20
3620.37188298549
 30
-1.673e-13
 40
0.10000000066
100
AcDbArc
 50
0.0
 51
90.0
  0
ARC
  5
D8
330
2F
100
AcDbEntity
  8
0
100
AcDbCircle
 10
33936.64318799535
 20
3620.271882984829
 30
-1.673e-13
 40
0.19999999878
100
AcDbArc
 50
90.0
 51
179.9999850140943
  0
ARC
  5
D9
330
2F
100
AcDbEntity
  8
0
100
AcDbCircle
 10
33919.74318799557
 20
3623.221882985251
 30
-1.673e-13
 40
0.5000000007600001
100
AcDbArc
 50
90.0
 51
180.0
  0
ARC
  5
DA
330
2F
100
AcDbEntity
  8
0
100
AcDbCircle
 10
33919.44318799613
 20
3620.271882984829
 30
-1.673e-13
 40
0.19999999878
100
AcDbArc
 50
90.0
 51
179.9999898478893
  0
ARC
  5
DB
330
2F
100
AcDbEntity
  8
0
100
AcDbCircle
 10
33936.94318799479
 20
3620.271882984829
 30
-1.673e-13
 40
0.19999999878
100
AcDbArc
 50
0.0
 51
90.0
  0
ARC
  5
DC
330
2F
100
AcDbEntity
  8
0
100
AcDbCircle
 10
33919.74318799557
 20
3620.271882984829
 30
-1.673e-13
 40
0.19999999878
100
AcDbArc
 50
0.0
 51
90.0
  0
CIRCLE
  5
DD
330
2F
100
AcDbEntity
  8
0
100
AcDbCircle
 10
33922.69318799599
 20
3616.241882985411
 30
-1.673e-13
 40
2.349999999
  0
ARC
  5
DE
330
2F
100
AcDbEntity
  8
0
100
AcDbCircle
 10
33925.29318799537
 20
3548.42188298433
 30
-1.673e-13
 40
0.19999999878
100
AcDbArc
 50
180.0
 51
270.0
  0
ARC
  5
DF
330
2F
100
AcDbEntity
  8
0
100
AcDbCircle
 10
33925.69318799547
 20
3548.32188298367
 30
-1.673e-13
 40
0.10000000066
100
AcDbArc
 50
270.0
 51
359.9694554067069
  0
CIRCLE
  5
E0
330
2F
100
AcDbEntity
  8
0
100
AcDbCircle
 10
33922.69318799599
 20
3552.45188298375
 30
-1.673e-13
 40
2.349999999
  0
CIRCLE
  5
E1
330
2F
100
AcDbEntity
  8
0
100
AcDbCircle
 10
33928.19318799673
 20
3552.45188298375
 30
-1.673e-13
 40
2.349999999
  0
ARC
  5
E2
330
2F
100
AcDbEntity
  8
0
100
AcDbCircle
 10
33931.09318799556
 20
3548.42188298433
 30
-1.673e-13
 40
0.19999999878
100
AcDbArc
 50
270.0
 51
0.0
  0
ARC
  5
E3
330
2F
100
AcDbEntity
  8
0
100
AcDbCircle
 10
33930.69318799545
 20
3548.32188298367
 30
-1.673e-13
 40
0.10000000066
100
AcDbArc
 50
180.0
 51
270.0
  0
ARC
  5
E4
330
2F
100
AcDbEntity
  8
0
100
AcDbCircle
 10
33919.74318799557
 20
3548.42188298433
 30
-1.673e-13
 40
0.19999999878
100
AcDbArc
 50
270.0
 51
359.9999850140943
  0
ARC
  5
E5
330
2F
100
AcDbEntity
  8
0
100
AcDbCircle
 10
33936.64318799535
 20
3545.47188298391
 30
-1.673e-13
 40
0.5000000007600001
100
AcDbArc
 50
270.0
 51
0.0
  0
ARC
  5
E6
330
2F
100
AcDbEntity
  8
0
100
AcDbCircle
 10
33936.94318799479
 20
3548.42188298433
 30
-1.673e-13
 40
0.19999999878
100
AcDbArc
 50
270.0
 51
359.9999898478893
  0
ARC
  5
E7
330
2F
100
AcDbEntity
  8
0
100
AcDbCircle
 10
33919.44318799613
 20
3548.42188298433
 30
-1.673e-13
 40
0.19999999878
100
AcDbArc
 50
180.0
 51
270.0
  0
ARC
  5
E8
330
2F
100
AcDbEntity
  8
0
100
AcDbCircle
 10
33936.64318799535
 20
3548.42188298433
 30
-1.673e-13
 40
0.19999999878
100
AcDbArc
 50
180.0
 51
270.0
  0
CIRCLE
  5
E9
330
2F
100
AcDbEntity
  8
0
100
AcDbCircle
 10
33933.69318799493
 20
3552.45188298375
 30
-1.673e-13
 40
2.349999999
  0
ARC
  5
EA
330
2F
100
AcDbEntity
  8
0
100
AcDbCircle
 10
33919.74318799557
 20
3545.47188298391
 30
-1.673e-13
 40
0.5000000007600001
100
AcDbArc
 50
180.0
 51
270.0
  0
ARC
  5
EB
330
2F
100
AcDbEntity
  8
0
100
AcDbCircle
 10
33931.09318799556
 20
3609.021882985511
 30
-1.673e-13
 40
0.19999999878
100
AcDbArc
 50
0.0
 51
90.0
  0
ARC
  5
EC
330
2F
100
AcDbEntity
  8
0
100
AcDbCircle
 10
33930.69318799545
 20
3609.12188298363
 30
-1.673e-13
 40
0.10000000066
100
AcDbArc
 50
90.0
 51
179.9694554067068
  0
CIRCLE
  5
ED
330
2F
100
AcDbEntity
  8
0
100
AcDbCircle
 10
33933.69318799493
 20
3604.99188298355
 30
-1.673e-13
 40
2.349999999
  0
CIRCLE
  5
EE
330
2F
100
AcDbEntity
  8
0
100
AcDbCircle
 10
33928.19318799673
 20
3604.99188298355
 30
-1.673e-13
 40
2.349999999
  0
ARC
  5
EF
330
2F
100
AcDbEntity
  8
0
100
AcDbCircle
 10
33925.29318799537
 20
3609.021882985511
 30
-1.673e-13
 40
0.19999999878
100
AcDbArc
 50
90.0
 51
180.0
  0
ARC
  5
F0
330
2F
100
AcDbEntity
  8
0
100
AcDbCircle
 10
33925.69318799547
 20
3609.12188298363
 30
-1.673e-13
 40
0.10000000066
100
AcDbArc
 50
0.0
 51
90.0
  0
ARC
  5
F1
330
2F
100
AcDbEntity
  8
0
100
AcDbCircle
 10
33936.64318799535
 20
3609.021882985511
 30
-1.673e-13
 40
0.19999999878
100
AcDbArc
 50
90.0
 51
179.9999850140943
  0
ARC
  5
F2
330
2F
100
AcDbEntity
  8
0
100
AcDbCircle
 10
33919.74318799557
 20
3611.97188298593
 30
-1.673e-13
 40
0.5000000007600001
100
AcDbArc
 50
90.0
 51
180.0
  0
ARC
  5
F3
330
2F
100
AcDbEntity
  8
0
100
AcDbCircle
 10
33919.44318799613
 20
3609.021882985511
 30
-1.673e-13
 40
0.19999999878
100
AcDbArc
 50
90.0
 51
179.9999898478893
  0
ARC
  5
F4
330
2F
100
AcDbEntity
  8
0
100
AcDbCircle
 10
33936.94318799479
 20
3609.021882985511
 30
-1.673e-13
 40
0.19999999878
100
AcDbArc
 50
0.0
 51
90.0
  0
ARC
  5
F5
330
2F
100
AcDbEntity
  8
0
100
AcDbCircle
 10
33919.74318799557
 20
3609.021882985511
 30
-1.673e-13
 40
0.19999999878
100
AcDbArc
 50
0.0
 51
90.0
  0
CIRCLE
  5
F6
330
2F
100
AcDbEntity
  8
0
100
AcDbCircle
 10
33922.69318799599
 20
3604.99188298355
 30
-1.673e-13
 40
2.349999999
  0
ARC
  5
F7
330
2F
100
AcDbEntity
  8
0
100
AcDbCircle
 10
33936.64318799535
 20
3611.97188298593
 30
-1.673e-13
 40
0.5000000007600001
100
AcDbArc
 50
0.0
 51
90.0
  0
ARC
  5
F8
330
2F
100
AcDbEntity
  8
0
100
AcDbCircle
 10
33919.84318799623
 20
3556.871882985491
 30
-1.673e-13
 40
0.5000000007600001
100
AcDbArc
 50
180.0
 51
270.0
  0
ARC
  5
F9
330
2F
100
AcDbEntity
  8
0
100
AcDbCircle
 10
33936.54318799469
 20
3556.871882985491
 30
-1.673e-13
 40
0.5000000007600001
100
AcDbArc
 50
270.0
 51
0.0
  0
ARC
  5
FA
330
2F
100
AcDbEntity
  8
0
100
AcDbCircle
 10
33919.74318799557
 20
3600.721882984072
 30
-1.673e-13
 40
0.5000000007600001
100
AcDbArc
 50
90.0
 51
180.0
  0
ARC
  5
FB
330
2F
100
AcDbEntity
  8
0
100
AcDbCircle
 10
33936.64318799535
 20
3600.721882984072
 30
-1.673e-13
 40
0.5000000007600001
100
AcDbArc
 50
0.0
 51
90.0
  0
ARC
  5
FC
330
2F
100
AcDbEntity
  8
0
100
AcDbCircle
 10
33936.64318799535
 20
3556.72188298577
 30
-1.673e-13
 40
0.5000000007600001
100
AcDbArc
 50
270.0
 51
0.0
  0
ARC
  5
FD
330
2F
100
AcDbEntity
  8
0
100
AcDbCircle
 10
33936.64318799535
 20
3623.221882985251
 30
-1.673e-13
 40
0.5000000007600001
100
AcDbArc
 50
0.0
 51
90.0
  0
ARC
  5
FE
330
2F
100
AcDbEntity
  8
0
100
AcDbCircle
 10
33919.74318799557
 20
3556.72188298577
 30
-1.673e-13
 40
0.5000000007600001
100
AcDbArc
 50
180.0
 51
270.0
  0
SPLINE
  5
FF
330
2F
100
AcDbEntity
  8
0
100
AcDbSpline
 70
1064
 71
3
 72
10
 73
6
 74
4
 42
1e-09
 12
-0.2843238380666493
 22
0.9587283009836779
 32
0.0
 13
0.0
 23
1.0
 33
0.0
 40
0.0
 40
0.0
 40
0.0
 40
0.0
 40
0.3153874512636694
 40
0.6644720901785321
 40
1.046649055553326
 40
1.046649055553326
 40
1.046649055553326
 40
1.046649055553326
 10
33930.70561603003
 20
3612.47188298415
 30
-1.673e-13
 10
33930.67572530649
 20
3612.572673275917
 30
-1.673e-13
 10
33930.6372549881
 20
3612.791807015086
 30
-1.673e-13
 10
33930.60184149727
 20
3613.138788337198
 30
-1.673e-13
 10
33930.59318799478
 20
3613.382706076399
 30
-1.673e-13
 10
33930.59318799478
 20
3613.51009839819
 30
-1.673e-13
 11
33930.70561603003
 21
3612.47188298415
 31
-1.673e-13
 11
33930.64280776601
 21
3612.780953148329
 31
-1.673e-13
 11
33930.60662758182
 21
3613.12815781333
 31
-1.673e-13
 11
33930.59318799478
 21
3613.51009839819
 31
-1.673e-13
  0
SPLINE
  5
100
330
2F
100
AcDbEntity
  8
0
100
AcDbSpline
 70
1064
 71
3
 72
10
 73
6
 74
4
 42
1e-09
 12
0.0
 22
-1.0
 32
0.0
 13
0.1867488210235371
 23
-0.9824076943134754
 33
0.0
 40
0.0
 40
0.0
 40
0.0
 40
0.0
 40
0.2890917977658705
 40
0.5624064213688128
 40
0.8194249358228697
 40
0.8194249358228697
 40
0.8194249358228697
 40
0.8194249358228697
 10
33925.09318799659
 20
3613.28779795125
 30
-1.673e-13
 10
33925.09318799659
 20
3613.191434018661
 30
-1.673e-13
 10
33925.09796672667
 20
3613.003920153476
 30
-1.673e-13
 10
33925.11858084057
 20
3612.731489006885
 30
-1.673e-13
 10
33925.14215666521
 20
3612.556048639544
 30
-1.673e-13
 10
33925.15815596673
 20
3612.47188298415
 30
-1.673e-13
 11
33925.09318799659
 21
3613.28779795125
 31
-1.673e-13
 11
33925.10057645527
 21
3612.99880058411
 31
-1.673e-13
 11
33925.12170903937
 21
3612.726304166951
 31
-1.673e-13
 11
33925.15815596673
 21
3612.47188298415
 31
-1.673e-13
  0
SPLINE
  5
101
330
2F
100
AcDbEntity
  8
0
100
AcDbSpline
 70
1064
 71
3
 72
10
 73
6
 74
4
 42
1e-09
 12
0.2843238363971801
 22
0.9587283014787816
 32
0.0
 13
0.0
 23
1.0
 33
0.0
 40
0.0
 40
0.0
 40
0.0
 40
0.0
 40
0.3144911272629504
 40
0.6635692573806028
 40
1.046649864688403
 40
1.046649864688403
 40
1.046649864688403
 40
1.046649864688403
 10
33925.68075996089
 20
3612.47188298415
 30
-1.673e-13
 10
33925.71056573549
 20
3612.572386832241
 30
-1.673e-13
 10
33925.74903562222
 20
3612.791209859003
 30
-1.673e-13
 10
33925.7845037077
 20
3613.138187783508
 30
-1.673e-13
 10
33925.79318799612
 20
3613.382404862421
 30
-1.673e-13
 10
33925.79318799612
 20
3613.51009839819
 30
-1.673e-13
 11
33925.68075996089
 21
3612.47188298415
 31
-1.673e-13
 11
33925.74344032321
 21
3612.78006449123
 31
-1.673e-13
 11
33925.77968559235
 21
3613.127255823771
 31
-1.673e-13
 11
33925.79318799612
 21
3613.51009839819
 31
-1.673e-13
  0
SPLINE
  5
102
330
2F
100
AcDbEntity
  8
0
100
AcDbSpline
 70
1064
 71
3
 72
10
 73
6
 74
4
 42
1e-09
 12
0.0
 22
-1.0
 32
0.0
 13
-0.1867488235465231
 23
-0.9824076938338734
 33
0.0
 40
0.0
 40
0.0
 40
0.0
 40
0.0
 40
0.2887409388484526
 40
0.5620552199113418
 40
0.8194248444745958
 40
0.8194248444745958
 40
0.8194248444745958
 40
0.8194248444745958
 10
33931.29318799433
 20
3613.28779795125
 30
-1.673e-13
 10
33931.29318799433
 20
3613.191550971634
 30
-1.673e-13
 10
33931.28841792859
 20
3613.004154271131
 30
-1.673e-13
 10
33931.26782140176
 20
3612.731722052868
 30
-1.673e-13
 10
33931.24424118239
 20
3612.556163617261
 30
-1.673e-13
 10
33931.22822002418
 20
3612.47188298415
 30
-1.673e-13
 11
33931.29318799433
 21
3613.28779795125
 31
-1.673e-13
 11
33931.28581748076
 21
3612.99915109903
 31
-1.673e-13
 11
33931.26470413969
 21
3612.72665353379
 31
-1.673e-13
 11
33931.22822002418
 21
3612.47188298415
 31
-1.673e-13
  0
SPLINE
  5
103
330
2F
100
AcDbEntity
  8
0
100
AcDbSpline
 70
1064
 71
3
 72
10
 73
6
 74
4
 42
1e-09
 12
0.2843238380666493
 22
-0.9587283009836779
 32
0.0
 13
0.0
 23
-1.0
 33
0.0
 40
0.0
 40
0.0
 40
0.0
 40
0.0
 40
0.3153874512677922
 40
0.664472090179488
 40
1.046649055552464
 40
1.046649055552464
 40
1.046649055552464
 40
1.046649055552464
 10
33925.68075996089
 20
3556.221882985011
 30
-1.673e-13
 10
33925.71065068443
 20
3556.121092693242
 30
-1.673e-13
 10
33925.74912100283
 20
3555.901958954075
 30
-1.673e-13
 10
33925.78453449363
 20
3555.55497763196
 30
-1.673e-13
 10
33925.79318799612
 20
3555.311059892762
 30
-1.673e-13
 10
33925.79318799612
 20
3555.183667570971
 30
-1.673e-13
 11
33925.68075996089
 21
3556.221882985011
 31
-1.673e-13
 11
33925.74356822491
 21
3555.912812820829
 31
-1.673e-13
 11
33925.77974840909
 21
3555.56560815583
 31
-1.673e-13
 11
33925.79318799612
 21
3555.183667570971
 31
-1.673e-13
  0
SPLINE
  5
104
330
2F
100
AcDbEntity
  8
0
100
AcDbSpline
 70
1064
 71
3
 72
10
 73
6
 74
4
 42
1e-09
 12
0.0
 22
1.0
 32
0.0
 13
-0.1867488210235371
 23
0.9824076943134754
 33
0.0
 40
0.0
 40
0.0
 40
0.0
 40
0.0
 40
0.2890917977654159
 40
0.5624064239014257
 40
0.8194249358409345
 40
0.8194249358409345
 40
0.8194249358409345
 40
0.8194249358409345
 10
33931.29318799433
 20
3555.405968017911
 30
-1.673e-13
 10
33931.29318799433
 20
3555.502331950499
 30
-1.673e-13
 10
33931.28840926407
 20
3555.689845816514
 30
-1.673e-13
 10
33931.26779515077
 20
3555.962276963174
 30
-1.673e-13
 10
33931.24421932554
 20
3556.137717330441
 30
-1.673e-13
 10
33931.22822002418
 20
3556.221882985011
 30
-1.673e-13
 11
33931.29318799433
 21
3555.405968017911
 31
-1.673e-13
 11
33931.28579953565
 21
3555.69496538505
 31
-1.673e-13
 11
33931.26466695155
 21
3555.96746180475
 31
-1.673e-13
 11
33931.22822002418
 21
3556.221882985011
 31
-1.673e-13
  0
SPLINE
  5
105
330
2F
100
AcDbEntity
  8
0
100
AcDbSpline
 70
1064
 71
3
 72
10
 73
6
 74
4
 42
1e-09
 12
-0.2843238363971801
 22
-0.9587283014787816
 32
0.0
 13
0.0
 23
-1.0
 33
0.0
 40
0.0
 40
0.0
 40
0.0
 40
0.0
 40
0.3144911272638417
 40
0.6635692573789294
 40
1.046649864688408
 40
1.046649864688408
 40
1.046649864688408
 40
1.046649864688408
 10
33930.70561603003
 20
3556.221882985011
 30
-1.673e-13
 10
33930.67581025543
 20
3556.12137913692
 30
-1.673e-13
 10
33930.63734036869
 20
3555.902556110159
 30
-1.673e-13
 10
33930.60187228324
 20
3555.555578185651
 30
-1.673e-13
 10
33930.59318799478
 20
3555.311361106741
 30
-1.673e-13
 10
33930.59318799478
 20
3555.183667570971
 30
-1.673e-13
 11
33930.70561603003
 21
3556.221882985011
 31
-1.673e-13
 11
33930.6429356677
 21
3555.91370147793
 31
-1.673e-13
 11
33930.60669039857
 21
3555.566510145391
 31
-1.673e-13
 11
33930.59318799478
 21
3555.183667570971
 31
-1.673e-13
  0
SPLINE
  5
106
330
2F
100
AcDbEntity
  8
0
100
AcDbSpline
 70
1064
 71
3
 72
10
 73
6
 74
4
 42
1e-09
 12
0.0
 22
1.0
 32
0.0
 13
0.1867488235465231
 23
0.9824076938338734
 33
0.0
 40
0.0
 40
0.0
 40
0.0
 40
0.0
 40
0.2887409388464679
 40
0.562055219910736
 40
0.8194248444730899
 40
0.8194248444730899
 40
0.8194248444730899
 40
0.8194248444730899
 10
33925.09318799659
 20
3555.405968017911
 30
-1.673e-13
 10
33925.09318799659
 20
3555.502214997527
 30
-1.673e-13
 10
33925.09795806238
 20
3555.689611698028
 30
-1.673e-13
 10
33925.11855458914
 20
3555.962043916293
 30
-1.673e-13
 10
33925.14213480853
 20
3556.137602351901
 30
-1.673e-13
 10
33925.15815596673
 20
3556.221882985011
 30
-1.673e-13
 11
33925.09318799659
 21
3555.405968017911
 31
-1.673e-13
 11
33925.10055851018
 21
3555.694614870129
 31
-1.673e-13
 11
33925.12167185123
 21
3555.967112435372
 31
-1.673e-13
 11
33925.15815596673
 21
3556.221882985011
 31
-1.673e-13
  0
SPLINE
  5
107
330
2F
100
AcDbEntity
  8
0
100
AcDbSpline
 70
1064
 71
3
 72
10
 73
6
 74
4
 42
1e-09
 12
-0.2843238380666493
 22
0.9587283009836779
 32
0.0
 13
0.0
 23
1.0
 33
0.0
 40
0.0
 40
0.0
 40
0.0
 40
0.0
 40
0.3153874487761144
 40
0.6644720876923341
 40
1.046649055603957
 40
1.046649055603957
 40
1.046649055603957
 40
1.046649055603957
 10
33930.70561603003
 20
3601.22188298483
 30
-1.673e-13
 10
33930.67572530672
 20
3601.322673275802
 30
-1.673e-13
 10
33930.63725498774
 20
3601.541807014
 30
-1.673e-13
 10
33930.60184149724
 20
3601.888788336199
 30
-1.673e-13
 10
33930.59318799478
 20
3602.132706076234
 30
-1.673e-13
 10
33930.59318799478
 20
3602.260098398871
 30
-1.673e-13
 11
33930.70561603003
 21
3601.22188298483
 31
-1.673e-13
 11
33930.64280776601
 21
3601.53095314647
 31
-1.673e-13
 11
33930.60662758182
 21
3601.878157811472
 31
-1.673e-13
 11
33930.59318799478
 21
3602.260098398871
 31
-1.673e-13
  0
SPLINE
  5
108
330
2F
100
AcDbEntity
  8
0
100
AcDbSpline
 70
1064
 71
3
 72
10
 73
6
 74
4
 42
1e-09
 12
0.0
 22
-1.0
 32
0.0
 13
0.1867488210235371
 23
-0.9824076943134754
 33
0.0
 40
0.0
 40
0.0
 40
0.0
 40
0.0
 40
0.2890917977658705
 40
0.5624064239032406
 40
0.8194249358409486
 40
0.8194249358409486
 40
0.8194249358409486
 40
0.8194249358409486
 10
33925.09318799659
 20
3602.03779795193
 30
-1.673e-13
 10
33925.09318799659
 20
3601.941434019341
 30
-1.673e-13
 10
33925.09796672685
 20
3601.753920153327
 30
-1.673e-13
 10
33925.11858084015
 20
3601.481489006668
 30
-1.673e-13
 10
33925.14215666537
 20
3601.3060486394
 30
-1.673e-13
 10
33925.15815596673
 20
3601.22188298483
 30
-1.673e-13
 11
33925.09318799659
 21
3602.03779795193
 31
-1.673e-13
 11
33925.10057645527
 21
3601.74880058479
 31
-1.673e-13
 11
33925.12170903937
 21
3601.476304165089
 31
-1.673e-13
 11
33925.15815596673
 21
3601.22188298483
 31
-1.673e-13
  0
SPLINE
  5
109
330
2F
100
AcDbEntity
  8
0
100
AcDbSpline
 70
1064
 71
3
 72
10
 73
6
 74
4
 42
1e-09
 12
0.2843238363971801
 22
0.9587283014787816
 32
0.0
 13
0.0
 23
1.0
 33
0.0
 40
0.0
 40
0.0
 40
0.0
 40
0.0
 40
0.3144911247741416
 40
0.663569257417378
 40
1.046649864726996
 40
1.046649864726996
 40
1.046649864726996
 40
1.046649864726996
 10
33925.68075996089
 20
3601.22188298483
 30
-1.673e-13
 10
33925.71056573526
 20
3601.322386832125
 30
-1.673e-13
 10
33925.74903562279
 20
3601.54120985874
 30
-1.673e-13
 10
33925.78450370745
 20
3601.888187783377
 30
-1.673e-13
 10
33925.79318799612
 20
3602.132404863101
 30
-1.673e-13
 10
33925.79318799612
 20
3602.260098398871
 30
-1.673e-13
 11
33925.68075996089
 21
3601.22188298483
 31
-1.673e-13
 11
33925.74344032321
 21
3601.53006448937
 31
-1.673e-13
 11
33925.77968559235
 21
3601.87725582445
 31
-1.673e-13
 11
33925.79318799612
 21
3602.260098398871
 31
-1.673e-13
  0
SPLINE
  5
10A
330
2F
100
AcDbEntity
  8
0
100
AcDbSpline
 70
1064
 71
3
 72
10
 73
6
 74
4
 42
1e-09
 12
0.0
 22
-1.0
 32
0.0
 13
-0.1867488235465231
 23
-0.9824076938338734
 33
0.0
 40
0.0
 40
0.0
 40
0.0
 40
0.0
 40
0.2887409413860251
 40
0.5620552199171931
 40
0.8194248444813474
 40
0.8194248444813474
 40
0.8194248444813474
 40
0.8194248444813474
 10
33931.29318799433
 20
3602.03779795193
 30
-1.673e-13
 10
33931.29318799433
 20
3601.941550971468
 30
-1.673e-13
 10
33931.2884179288
 20
3601.754154270951
 30
-1.673e-13
 10
33931.26782140158
 20
3601.481722052716
 30
-1.673e-13
 10
33931.24424118239
 20
3601.30616361794
 30
-1.673e-13
 10
33931.22822002418
 20
3601.22188298483
 30
-1.673e-13
 11
33931.29318799433
 21
3602.03779795193
 31
-1.673e-13
 11
33931.28581748076
 21
3601.749151097171
 31
-1.673e-13
 11
33931.26470413969
 21
3601.476653534471
 31
-1.673e-13
 11
33931.22822002418
 21
3601.22188298483
 31
-1.673e-13
  0
SPLINE
  5
10B
330
2F
100
AcDbEntity
  8
0
100
AcDbSpline
 70
1064
 71
3
 72
15
 73
11
 74
9
 42
1e-09
 12
0.0
 22
1.0
 32
0.0
 13
0.9968879927486515
 23
0.0788310212642483
 33
0.0
 40
0.0
 40
0.0
 40
0.0
 40
0.0
 40
0.0220441937821861
 40
0.0498475251696995
 40
0.0862657869919643
 40
0.1321149343577829
 40
0.1872439261209804
 40
0.2508435810852332
 40
0.3216912802786953
 40
0.3981390205835585
 40
0.3981390205835585
 40
0.3981390205835585
 40
0.3981390205835585
 10
33919.34318799547
 20
3597.35939716905
 30
-1.673e-13
 10
33919.34318799547
 20
3597.366745233645
 30
-1.673e-13
 10
33919.3488738575
 20
3597.383378055894
 30
-1.673e-13
 10
33919.36962057904
 20
3597.403995232311
 30
-1.673e-13
 10
33919.40110419219
 20
3597.423168924428
 30
-1.673e-13
 10
33919.44350542887
 20
3597.440812497561
 30
-1.673e-13
 10
33919.49610341037
 20
3597.456620900995
 30
-1.673e-13
 10
33919.55788871016
 20
3597.470120257249
 30
-1.673e-13
 10
33919.6273912103
 20
3597.480897060331
 30
-1.673e-13
 10
33919.67625929376
 20
3597.485884042936
 30
-1.673e-13
 10
33919.70166257189
 20
3597.48789286075
 30
-1.673e-13
 11
33919.34318799547
 21
3597.35939716905
 31
-1.673e-13
 11
33919.34944948916
 21
3597.380533398049
 31
-1.673e-13
 11
33919.36809678233
 21
3597.401156290511
 31
-1.673e-13
 11
33919.39877060718
 21
3597.42078805719
 31
-1.673e-13
 11
33919.44087037312
 21
3597.43894718775
 31
-1.673e-13
 11
33919.49355799698
 21
3597.45517124471
 31
-1.673e-13
 11
33919.55563620658
 21
3597.46899918759
 31
-1.673e-13
 11
33919.62562095867
 21
3597.480023295589
 31
-1.673e-13
 11
33919.70166257189
 21
3597.48789286075
 31
-1.673e-13
  0
SPLINE
  5
10C
330
2F
100
AcDbEntity
  8
0
100
AcDbSpline
 70
1064
 71
3
 72
15
 73
11
 74
9
 42
1e-09
 12
0.9968879927535951
 22
-0.0788310212017334
 32
0.0
 13
0.0
 23
-1.0
 33
0.0
 40
0.0
 40
0.0
 40
0.0
 40
0.0
 40
0.076458573233376
 40
0.1473267884570756
 40
0.2109420619550974
 40
0.2660710595092972
 40
0.311905651617532
 40
0.3483063301535278
 40
0.3760984833913534
 40
0.3981392157904274
 40
0.3981392157904274
 40
0.3981392157904274
 40
0.3981392157904274
 10
33936.68471341903
 20
3597.48789286075
 30
-1.673e-13
 10
33936.7101202969
 20
3597.485883758281
 30
-1.673e-13
 10
33936.75899877055
 20
3597.480895557771
 30
-1.673e-13
 10
33936.82851660647
 20
3597.470115264153
 30
-1.673e-13
 10
33936.89031318984
 20
3597.456610868718
 30
-1.673e-13
 10
33936.94291042069
 20
3597.440798501401
 30
-1.673e-13
 10
33936.9852998738
 20
3597.423154477285
 30
-1.673e-13
 10
33937.01676867081
 20
3597.403984196214
 30
-1.673e-13
 10
33937.03750481046
 20
3597.383372140572
 30
-1.673e-13
 10
33937.04318799545
 20
3597.36674407985
 30
-1.673e-13
 10
33937.04318799545
 20
3597.35939716905
 30
-1.673e-13
 11
33936.68471341903
 21
3597.48789286075
 31
-1.673e-13
 11
33936.76076577899
 21
3597.480021903669
 31
-1.673e-13
 11
33936.83077060468
 21
3597.468993381151
 31
-1.673e-13
 11
33936.89286345483
 21
3597.455159329571
 31
-1.673e-13
 11
33936.94554981125
 21
3597.43893113749
 31
-1.673e-13
 11
33936.98763418986
 21
3597.42077308389
 31
-1.673e-13
 11
33937.01829070971
 21
3597.40114689759
 31
-1.673e-13
 11
33937.03692833057
 21
3597.38053032973
 31
-1.673e-13
 11
33937.04318799545
 21
3597.35939716905
 31
-1.673e-13
  0
SPLINE
  5
10D
330
2F
100
AcDbEntity
  8
0
100
AcDbSpline
 70
1064
 71
3
 72
9
 73
5
 74
3
 42
1e-09
 12
-0.9972268223934124
 22
-0.0744222056857868
 32
0.0
 13
-0.996887992474283
 23
-0.0788310247338823
 33
0.0
 40
0.0
 40
0.0
 40
0.0
 40
0.0
 40
0.2220120727950261
 40
0.4436062479239605
 40
0.4436062479239605
 40
0.4436062479239605
 40
0.4436062479239605
 10
33920.14396443049
 20
3597.521882985809
 30
-1.673e-13
 10
33920.07016563253
 20
3597.516375443093
 30
-1.673e-13
 10
33919.92271900752
 20
3597.505208543395
 30
-1.673e-13
 10
33919.77529742935
 20
3597.493715692717
 30
-1.673e-13
 10
33919.70166257189
 20
3597.48789286075
 30
-1.673e-13
 11
33920.14396443049
 21
3597.521882985809
 31
-1.673e-13
 11
33919.92258637947
 21
3597.50511638231
 31
-1.673e-13
 11
33919.70166257189
 21
3597.48789286075
 31
-1.673e-13
  0
SPLINE
  5
10E
330
2F
100
AcDbEntity
  8
0
100
AcDbSpline
 70
1064
 71
3
 72
9
 73
5
 74
3
 42
1e-09
 12
-0.996887992474283
 22
0.0788310247338823
 32
0.0
 13
-0.9972268223934124
 23
0.0744222056857868
 33
0.0
 40
0.0
 40
0.0
 40
0.0
 40
0.0
 40
0.2215941751289344
 40
0.4436062479312156
 40
0.4436062479312156
 40
0.4436062479312156
 40
0.4436062479312156
 10
33936.68471341903
 20
3597.48789286075
 30
-1.673e-13
 10
33936.61107856157
 20
3597.493715692717
 30
-1.673e-13
 10
33936.4636569834
 20
3597.505208543394
 30
-1.673e-13
 10
33936.31621035839
 20
3597.516375443093
 30
-1.673e-13
 10
33936.24241156042
 20
3597.521882985809
 30
-1.673e-13
 11
33936.68471341903
 21
3597.48789286075
 31
-1.673e-13
 11
33936.46378961145
 21
3597.50511638231
 31
-1.673e-13
 11
33936.24241156042
 21
3597.521882985809
 31
-1.673e-13
  0
SPLINE
  5
10F
330
2F
100
AcDbEntity
  8
0
100
AcDbSpline
 70
1064
 71
3
 72
9
 73
5
 74
3
 42
1e-09
 12
-0.9969203984597259
 22
-0.078420144955881
 32
0.0
 13
-0.9934763870470421
 23
-0.1140380128727078
 33
0.0
 40
0.0
 40
0.0
 40
0.0
 40
0.0
 40
0.9053799186583525
 40
1.808456900317051
 40
1.808456900317051
 40
1.808456900317051
 40
1.808456900317051
 10
33924.14318799667
 20
3563.56332409839
 30
-1.673e-13
 10
33923.84232409358
 20
3563.539657423569
 30
-1.673e-13
 10
33923.24176893226
 20
3563.487051497929
 30
-1.673e-13
 10
33922.64224988061
 20
3563.423713754224
 30
-1.673e-13
 10
33922.34318799495
 20
3563.38938538607
 30
-1.673e-13
 11
33924.14318799667
 21
3563.56332409839
 31
-1.673e-13
 11
33923.24126385692
 21
3563.48429471619
 31
-1.673e-13
 11
33922.34318799495
 21
3563.38938538607
 31
-1.673e-13
  0
SPLINE
  5
110
330
2F
100
AcDbEntity
  8
0
100
AcDbSpline
 70
1064
 71
3
 72
12
 73
8
 74
6
 42
1e-09
 12
1.0
 22
3.3034027e-09
 32
0.0
 13
0.0
 23
1.0
 33
0.0
 40
0.0
 40
0.0
 40
0.0
 40
0.0
 40
0.1563072386075808
 40
0.3116587403819622
 40
0.4654512165570786
 40
0.617668617483671
 40
0.7689041320106137
 40
0.7689041320106137
 40
0.7689041320106137
 40
0.7689041320106137
 10
33936.64318799535
 20
3597.683216498552
 30
-1.673e-13
 10
33936.69529040822
 20
3597.683216498725
 30
-1.673e-13
 10
33936.79986836831
 20
3597.699118386438
 30
-1.673e-13
 10
33936.94125843923
 20
3597.768511256195
 30
-1.673e-13
 10
33937.05392595223
 20
3597.876958073747
 30
-1.673e-13
 10
33937.12646717311
 20
3598.013863395153
 30
-1.673e-13
 10
33937.14318799612
 20
3598.115767573034
 30
-1.673e-13
 10
33937.14318799612
 20
3598.16617941121
 30
-1.673e-13
 11
33936.64318799535
 21
3597.683216498552
 31
-1.673e-13
 11
33936.79769750346
 21
3597.70685470375
 31
-1.673e-13
 11
33936.937082071
 21
3597.775455224411
 31
-1.673e-13
 11
33937.04769762067
 21
3597.88230243261
 31
-1.673e-13
 11
33937.11871666075
 21
3598.01693687505
 31
-1.673e-13
 11
33937.14318799612
 21
3598.16617941121
 31
-1.673e-13
  0
SPLINE
  5
111
330
2F
100
AcDbEntity
  8
0
100
AcDbSpline
 70
1064
 71
3
 72
12
 73
8
 74
6
 42
1e-09
 12
0.0
 22
-1.0
 32
0.0
 13
1.0
 23
0.0
 33
0.0
 40
0.0
 40
0.0
 40
0.0
 40
0.0
 40
0.1512348955284114
 40
0.3034519933833426
 40
0.4572445130949543
 40
0.612596361096101
 40
0.7689041339683995
 40
0.7689041339683995
 40
0.7689041339683995
 40
0.7689041339683995
 10
33919.2431879948
 20
3598.16617941121
 30
-1.673e-13
 10
33919.2431879948
 20
3598.115767779368
 30
-1.673e-13
 10
33919.25990869403
 20
3598.013863917423
 30
-1.673e-13
 10
33919.33244954699
 20
3597.876958748079
 30
-1.673e-13
 10
33919.44511688022
 20
3597.768511697853
 30
-1.673e-13
 10
33919.58650714408
 20
3597.699118485766
 30
-1.673e-13
 10
33919.69108540461
 20
3597.68321649601
 30
-1.673e-13
 10
33919.74318799557
 20
3597.68321649601
 30
-1.673e-13
 11
33919.2431879948
 21
3598.16617941121
 31
-1.673e-13
 11
33919.26765912951
 21
3598.016937469413
 31
-1.673e-13
 11
33919.33867780891
 21
3597.88230317937
 31
-1.673e-13
 11
33919.44929319093
 21
3597.775455734949
 31
-1.673e-13
 11
33919.58867797185
 21
3597.70685486377
 31
-1.673e-13
 11
33919.74318799557
 21
3597.68321649601
 31
-1.673e-13
  0
SPLINE
  5
112
330
2F
100
AcDbEntity
  8
0
100
AcDbSpline
 70
1064
 71
3
 72
10
 73
6
 74
4
 42
1e-09
 12
0.6931505760923776
 22
0.7207928127158353
 32
0.0
 13
0.0
 23
1.0
 33
0.0
 40
0.0
 40
0.0
 40
0.0
 40
0.0
 40
0.0685958994846365
 40
0.1644168106137213
 40
0.2533517372768835
 40
0.2533517372768835
 40
0.2533517372768835
 40
0.2533517372768835
 10
33937.04551135632
 20
3596.57546915855
 30
-1.673e-13
 10
33937.06136045206
 20
3596.591950302327
 30
-1.673e-13
 10
33937.09612018181
 20
3596.634708072145
 30
-1.673e-13
 10
33937.13365788073
 20
3596.711675370752
 30
-1.673e-13
 10
33937.14318799612
 20
3596.773620311096
 30
-1.673e-13
 10
33937.14318799612
 20
3596.80326528665
 30
-1.673e-13
 11
33937.04551135632
 21
3596.57546915855
 31
-1.673e-13
 11
33937.08855440713
 21
3596.628879768009
 31
-1.673e-13
 11
33937.12987838087
 21
3596.71533192937
 31
-1.673e-13
 11
33937.14318799612
 21
3596.80326528665
 31
-1.673e-13
  0
MTEXT
  5
113
330
2F
100
AcDbEntity
  8
0
  6
ByBlock
100
AcDbMText
 10
33922.72516463405
 20
3586.204621746234
 30
0.0
 40
8.0
 41
98.89623498625589
 46
0.0
 71
1
 72
5
  1
{\fArial|b0|i0|c0|p34;< U }
  7
SIMPLEX
  0
ENDBLK
  5
31
330
2F
100
AcDbEntity
  8
0
100
AcDbBlockEnd
  0
ENDSEC
  0
SECTION
  2
ENTITIES
  0
INSERT
  5
115
330
17
100
AcDbEntity
  8
0
100
AcDbBlockReference
  2
RM
 10
-33919.24318799479
 20
-3530.92188298567
 30
12.09876315320016
  0
ENDSEC
  0
SECTION
  2
OBJECTS
  0
DICTIONARY
  5
A
330
0
100
AcDbDictionary
281
1
  3
ACAD_COLOR
350
B
  3
ACAD_GROUP
350
C
  3
ACAD_LAYOUT
350
D
  3
ACAD_MATERIAL
350
E
  3
ACAD_MLEADERSTYLE
350
F
  3
ACAD_MLINESTYLE
350
10
  3
ACAD_PLOTSETTINGS
350
11
  3
ACAD_PLOTSTYLENAME
350
12
  3
ACAD_SCALELIST
350
14
  3
ACAD_TABLESTYLE
350
15
  3
ACAD_VISUALSTYLE
350
16
  3
EZDXF_META
350
2D
  0
DICTIONARY
  5
B
330
A
100
AcDbDictionary
281
1
  0
DICTIONARY
  5
C
330
A
100
AcDbDictionary
281
1
  0
DICTIONARY
  5
D
330
A
100
AcDbDictionary
281
1
  3
Model
350
1A
  3
Layout1
350
1E
  0
DICTIONARY
  5
E
330
A
100
AcDbDictionary
281
1
  3
ByBlock
350
1F
  3
ByLayer
350
20
  3
Global
350
21
  0
DICTIONARY
  5
F
330
A
100
AcDbDictionary
281
1
  3
Standard
350
2C
  0
DICTIONARY
  5
10
330
A
100
AcDbDictionary
281
1
  3
Standard
350
22
  0
DICTIONARY
  5
11
330
A
100
AcDbDictionary
281
1
  0
ACDBDICTIONARYWDFLT
  5
12
330
A
100
AcDbDictionary
281
1
  3
Normal
350
13
100
AcDbDictionaryWithDefault
340
13
  0
ACDBPLACEHOLDER
  5
13
330
12
  0
DICTIONARY
  5
14
330
A
100
AcDbDictionary
281
1
  0
DICTIONARY
  5
15
330
A
100
AcDbDictionary
281
1
  0
DICTIONARY
  5
16
330
A
100
AcDbDictionary
281
1
  0
LAYOUT
  5
1A
330
D
100
AcDbPlotSettings
  1

  4
A3
  6

 40
7.5
 41
20.0
 42
7.5
 43
20.0
 44
420.0
 45
297.0
 46
0.0
 47
0.0
 48
0.0
 49
0.0
140
0.0
141
0.0
142
1.0
143
1.0
 70
1024
 72
1
 73
0
 74
5
  7

 75
16
 76
0
 77
2
 78
300
147
1.0
148
0.0
149
0.0
100
AcDbLayout
  1
Model
 70
1
 71
0
 10
0.0
 20
0.0
 11
420.0
 21
297.0
 12
0.0
 22
0.0
 32
0.0
 14
1e+20
 24
1e+20
 34
1e+20
 15
-1e+20
 25
-1e+20
 35
-1e+20
146
0.0
 13
0.0
 23
0.0
 33
0.0
 16
1.0
 26
0.0
 36
0.0
 17
0.0
 27
1.0
 37
0.0
 76
1
330
17
  0
LAYOUT
  5
1E
330
D
100
AcDbPlotSettings
  1

  4
A3
  6

 40
7.5
 41
20.0
 42
7.5
 43
20.0
 44
420.0
 45
297.0
 46
0.0
 47
0.0
 48
0.0
 49
0.0
140
0.0
141
0.0
142
1.0
143
1.0
 70
0
 72
1
 73
0
 74
5
  7

 75
16
 76
0
 77
2
 78
300
147
1.0
148
0.0
149
0.0
100
AcDbLayout
  1
Layout1
 70
1
 71
1
 10
0.0
 20
0.0
 11
420.0
 21
297.0
 12
0.0
 22
0.0
 32
0.0
 14
1e+20
 24
1e+20
 34
1e+20
 15
-1e+20
 25
-1e+20
 35
-1e+20
146
0.0
 13
0.0
 23
0.0
 33
0.0
 16
1.0
 26
0.0
 36
0.0
 17
0.0
 27
1.0
 37
0.0
 76
1
330
1B
  0
MATERIAL
  5
1F
102
{ACAD_REACTORS
330
E
102
}
330
E
100
AcDbMaterial
  1
ByBlock
  2

 70
0
 40
1.0
 71
1
 41
1.0
 91
-1023410177
 42
1.0
 72
1
  3

 73
1
 74
1
 75
1
 44
0.5
 73
0
 45
1.0
 46
1.0
 77
1
  4

 78
1
 79
1
170
1
 48
1.0
171
1
  6

172
1
173
1
174
1
140
1.0
141
1.0
175
1
  7

176
1
177
1
178
1
143
1.0
179
1
  8

270
1
271
1
272
1
145
1.0
146
1.0
273
1
  9

274
1
275
1
276
1
 42
1.0
 72
1
  3

 73
1
 74
1
 75
1
 94
63
  0
MATERIAL
  5
20
102
{ACAD_REACTORS
330
E
102
}
330
E
100
AcDbMaterial
  1
ByLayer
  2

 70
0
 40
1.0
 71
1
 41
1.0
 91
-1023410177
 42
1.0
 72
1
  3

 73
1
 74
1
 75
1
 44
0.5
 73
0
 45
1.0
 46
1.0
 77
1
  4

 78
1
 79
1
170
1
 48
1.0
171
1
  6

172
1
173
1
174
1
140
1.0
141
1.0
175
1
  7

176
1
177
1
178
1
143
1.0
179
1
  8

270
1
271
1
272
1
145
1.0
146
1.0
273
1
  9

274
1
275
1
276
1
 42
1.0
 72
1
  3

 73
1
 74
1
 75
1
 94
63
  0
MATERIAL
  5
21
102
{ACAD_REACTORS
330
E
102
}
330
E
100
AcDbMaterial
  1
Global
  2

 70
0
 40
1.0
 71
1
 41
1.0
 91
-1023410177
 42
1.0
 72
1
  3

 73
1
 74
1
 75
1
 44
0.5
 73
0
 45
1.0
 46
1.0
 77
1
  4

 78
1
 79
1
170
1
 48
1.0
171
1
  6

172
1
173
1
174
1
140
1.0
141
1.0
175
1
  7

176
1
177
1
178
1
143
1.0
179
1
  8

270
1
271
1
272
1
145
1.0
146
1.0
273
1
  9

274
1
275
1
276
1
 42
1.0
 72
1
  3

 73
1
 74
1
 75
1
 94
63
  0
MLINESTYLE
  5
22
102
{ACAD_REACTORS
330
10
102
}
330
10
100
AcDbMlineStyle
  2
Standard
 70
0
  3

 62
256
 51
90.0
 52
90.0
 71
2
 49
0.5
 62
256
  6
BYLAYER
 49
-0.5
 62
256
  6
BYLAYER
  0
MLEADERSTYLE
  5
2C
102
{ACAD_REACTORS
330
F
102
}
330
F
100
AcDbMLeaderStyle
179
2
170
2
171
1
172
0
 90
2
 40
0.0
 41
0.0
173
1
 91
-1056964608
 92
-2
290
1
 42
2.0
291
1
 43
8.0
  3
Standard
 44
4.0
300

342
29
174
1
175
1
176
0
178
1
 93
-1056964608
 45
4.0
292
0
297
0
 46
4.0
 94
-1056964608
 47
1.0
 49
1.0
140
1.0
294
1
141
0.0
177
0
142
1.0
295
0
296
0
143
3.75
271
0
272
9
273
9
  0
DICTIONARY
  5
2D
330
A
100
AcDbDictionary
280
1
281
1
  3
CREATED_BY_EZDXF
350
2E
  3
WRITTEN_BY_EZDXF
350
119
  0
DICTIONARYVAR
  5
2E
330
2D
100
DictionaryVariables
280
0
  1
1.4.4 @ 2026-09-23T12:53:37.452067+00:00
  0
DICTIONARYVAR
  5
119
330
2D
100
DictionaryVariables
280
0
  1
1.4.4 @ 2026-09-23T12:53:37.506970+00:00
  0
ENDSEC
  0
EOF
