  0
SECTION
  2
HEADER
  9
$ACADVER
  1
AC1032
  9
$ACADMAINTVER
 90
4
  9
$DWGCODEPAGE
  3
ANSI_1252
  9
$LASTSAVEDBY
  1
ezdxf
  9
$REQUIREDVERSIONS
160
0
  9
$INSBASE
 10
0.0
 20
0.0
 30
0.0
  9
$EXTMIN
 10
1e+20
 20
1e+20
 30
1e+20
  9
$EXTMAX
 10
-1e+20
 20
-1e+20
 30
-1e+20
  9
$LIMMIN
 10
0.0
 20
0.0
  9
$LIMMAX
 10
420.0
 20
297.0
  9
$ORTHOMODE
 70
0
  9
$REGENMODE
 70
1
  9
$FILLMODE
 70
1
  9
$QTEXTMODE
 70
0
  9
$MIRRTEXT
 70
1
  9
$LTSCALE
 40
1.0
  9
$ATTMODE
 70
1
  9
$TEXTSIZE
 40
2.5
  9
$TRACEWID
 40
1.0
  9
$TEXTSTYLE
  7
Standard
  9
$CLAYER
  8
0
  9
$CELTYPE
  6
ByLayer
  9
$CECOLOR
 62
256
  9
$CELTSCALE
 40
1.0
  9
$DISPSILH
 70
0
  9
$DIMSCALE
 40
1.0
  9
$DIMASZ
 40
2.5
  9
$DIMEXO
 40
0.625
  9
$DIMDLI
 40
3.75
  9
$DIMRND
 40
0.0
  9
$DIMDLE
 40
0.0
  9
$DIMEXE
 40
1.25
  9
$DIMTP
 40
0.0
  9
$DIMTM
 40
0.0
  9
$DIMTXT
 40
2.5
  9
$DIMCEN
 40
2.5
  9
$DIMTSZ
 40
0.0
  9
$DIMTOL
 70
0
  9
$DIMLIM
 70
0
  9
$DIMTIH
 70
0
  9
$DIMTOH
 70
0
  9
$DIMSE1
 70
0
  9
$DIMSE2
 70
0
  9
$DIMTAD
 70
1
  9
$DIMZIN
 70
8
  9
$DIMBLK
  1

  9
$DIMASO
 70
1
  9
$DIMSHO
 70
1
  9
$DIMPOST
  1

  9
$DIMAPOST
  1

  9
$DIMALT
 70
0
  9
$DIMALTD
 70
3
  9
$DIMALTF
 40
0.03937007874
  9
$DIMLFAC
 40
1.0
  9
$DIMTOFL
 70
1
  9
$DIMTVP
 40
0.0
  9
$DIMTIX
 70
0
  9
$DIMSOXD
 70
0
  9
$DIMSAH
 70
0
  9
$DIMBLK1
  1

  9
$DIMBLK2
  1

  9
$DIMSTYLE
  2
ISO-25
  9
$DIMCLRD
 70
0
  9
$DIMCLRE
 70
0
  9
$DIMCLRT
 70
0
  9
$DIMTFAC
 40
1.0
  9
$DIMGAP
 40
0.625
  9
$DIMJUST
 70
0
  9
$DIMSD1
 70
0
  9
$DIMSD2
 70
0
  9
$DIMTOLJ
 70
0
  9
$DIMTZIN
 70
8
  9
$DIMALTZ
 70
0
  9
$DIMALTTZ
 70
0
  9
$DIMUPT
 70
0
  9
$DIMDEC
 70
2
  9
$DIMTDEC
 70
2
  9
$DIMALTU
 70
2
  9
$DIMALTTD
 70
3
  9
$DIMTXSTY
  7
Standard
  9
$DIMAUNIT
 70
0
  9
$DIMADEC
 70
0
  9
$DIMALTRND
 40
0.0
  9
$DIMAZIN
 70
0
  9
$DIMDSEP
 70
44
  9
$DIMATFIT
 70
3
  9
$DIMFRAC
 70
0
  9
$DIMLDRBLK
  1

  9
$DIMLUNIT
 70
2
  9
$DIMLWD
 70
-2
  9
$DIMLWE
 70
-2
  9
$DIMTMOVE
 70
0
  9
$DIMFXL
 40
1.0
  9
$DIMFXLON
 70
0
  9
$DIMJOGANG
 40
0.785398163397
  9
$DIMTFILL
 70
0
  9
$DIMTFILLCLR
 70
0
  9
$DIMARCSYM
 70
0
  9
$DIMLTYPE
  6

  9
$DIMLTEX1
  6

  9
$DIMLTEX2
  6

  9
$DIMTXTDIRECTION
 70
0
  9
$LUNITS
 70
2
  9
$LUPREC
 70
4
  9
$SKETCHINC
 40
1.0
  9
$FILLETRAD
 40
10.0
  9
$AUNITS
 70
0
  9
$AUPREC
 70
2
  9
$MENU
  1
.
  9
$ELEVATION
 40
0.0
  9
$PELEVATION
 40
0.0
  9
$THICKNESS
 40
0.0
  9
$LIMCHECK
 70
0
  9
$CHAMFERA
 40
0.0
  9
$CHAMFERB
 40
0.0
  9
$CHAMFERC
 40
0.0
  9
$CHAMFERD
 40
0.0
  9
$SKPOLY
 70
0
  9
$TDCREATE
 40
2461307.828738426
  9
$TDUCREATE
 40
2458532.153996898
  9
$TDUPDATE
 40
2461307.828738426
  9
$TDUUPDATE
 40
2458532.1544311
  9
$TDINDWG
 40
0.0
  9
$TDUSRTIMER
 40
0.0
  9
$USRTIMER
 70
1
  9
$ANGBASE
 50
0.0
  9
$ANGDIR
 70
0
  9
$PDMODE
 70
0
  9
$PDSIZE
 40
0.0
  9
$PLINEWID
 40
0.0
  9
$SPLFRAME
 70
0
  9
$SPLINETYPE
 70
6
  9
$SPLINESEGS
 70
8
  9
$HANDSEED
  5
C6
  9
$SURFTAB1
 70
6
  9
$SURFTAB2
 70
6
  9
$SURFTYPE
 70
6
  9
$SURFU
 70
6
  9
$SURFV
 70
6
  9
$UCSBASE
  2

  9
$UCSNAME
  2

  9
$UCSORG
 10
0.0
 20
0.0
 30
0.0
  9
$UCSXDIR
 10
1.0
 20
0.0
 30
0.0
  9
$UCSYDIR
 10
0.0
 20
1.0
 30
0.0
  9
$UCSORTHOREF
  2

  9
$UCSORTHOVIEW
 70
0
  9
$UCSORGTOP
 10
0.0
 20
0.0
 30
0.0
  9
$UCSORGBOTTOM
 10
0.0
 20
0.0
 30
0.0
  9
$UCSORGLEFT
 10
0.0
 20
0.0
 30
0.0
  9
$UCSORGRIGHT
 10
0.0
 20
0.0
 30
0.0
  9
$UCSORGFRONT
 10
0.0
 20
0.0
 30
0.0
  9
$UCSORGBACK
 10
0.0
 20
0.0
 30
0.0
  9
$PUCSBASE
  2

  9
$PUCSNAME
  2

  9
$PUCSORG
 10
0.0
 20
0.0
 30
0.0
  9
$PUCSXDIR
 10
1.0
 20
0.0
 30
0.0
  9
$PUCSYDIR
 10
0.0
 20
1.0
 30
0.0
  9
$PUCSORTHOREF
  2

  9
$PUCSORTHOVIEW
 70
0
  9
$PUCSORGTOP
 10
0.0
 20
0.0
 30
0.0
  9
$PUCSORGBOTTOM
 10
0.0
 20
0.0
 30
0.0
  9
$PUCSORGLEFT
 10
0.0
 20
0.0
 30
0.0
  9
$PUCSORGRIGHT
 10
0.0
 20
0.0
 30
0.0
  9
$PUCSORGFRONT
 10
0.0
 20
0.0
 30
0.0
  9
$PUCSORGBACK
 10
0.0
 20
0.0
 30
0.0
  9
$USERI1
 70
0
  9
$USERI2
 70
0
  9
$USERI3
 70
0
  9
$USERI4
 70
0
  9
$USERI5
 70
0
  9
$USERR1
 40
0.0
  9
$USERR2
 40
0.0
  9
$USERR3
 40
0.0
  9
$USERR4
 40
0.0
  9
$USERR5
 40
0.0
  9
$WORLDVIEW
 70
1
  9
$SHADEDGE
 70
3
  9
$SHADEDIF
 70
70
  9
$TILEMODE
 70
1
  9
$MAXACTVP
 70
64
  9
$PINSBASE
 10
0.0
 20
0.0
 30
0.0
  9
$PLIMCHECK
 70
0
  9
$PEXTMIN
 10
1e+20
 20
1e+20
 30
1e+20
  9
$PEXTMAX
 10
-1e+20
 20
-1e+20
 30
-1e+20
  9
$PLIMMIN
 10
0.0
 20
0.0
  9
$PLIMMAX
 10
420.0
 20
297.0
  9
$UNITMODE
 70
0
  9
$VISRETAIN
 70
1
  9
$PLINEGEN
 70
0
  9
$PSLTSCALE
 70
1
  9
$TREEDEPTH
 70
3020
  9
$CMLSTYLE
  2
Standard
  9
$CMLJUST
 70
0
  9
$CMLSCALE
 40
20.0
  9
$PROXYGRAPHICS
 70
1
  9
$MEASUREMENT
 70
1
  9
$CELWEIGHT
370
-1
  9
$ENDCAPS
280
0
  9
$JOINSTYLE
280
0
  9
$LWDISPLAY
290
0
  9
$INSUNITS
 70
4
  9
$HYPERLINKBASE
  1

  9
$STYLESHEET
  1

  9
$XEDIT
290
1
  9
$CEPSNTYPE
380
0
  9
$PSTYLEMODE
290
1
  9
$FINGERPRINTGUID
  2
{8DD68E85-4EAA-4807-819E-6F7FC6DCB28A}
  9
$VERSIONGUID
  2
{BA36D2BA-90EF-43BB-95DC-A76A4A487FA2}
  9
$EXTNAMES
290
1
  9
$PSVPSCALE
 40
0.0
  9
$OLESTARTUP
290
0
  9
$SORTENTS
280
127
  9
$INDEXCTL
280
0
  9
$HIDETEXT
280
1
  9
$XCLIPFRAME
280
1
  9
$HALOGAP
280
0
  9
$OBSCOLOR
 70
257
  9
$OBSLTYPE
280
0
  9
$INTERSECTIONDISPLAY
280
0
  9
$INTERSECTIONCOLOR
 70
257
  9
$DIMASSOC
280
2
  9
$PROJECTNAME
  1

  9
$CAMERADISPLAY
290
0
  9
$LENSLENGTH
 40
50.0
  9
$CAMERAHEIGHT
 40
0.0
  9
$STEPSPERSEC
 40
24.0
  9
$STEPSIZE
 40
100.0
  9
$3DDWFPREC
 40
2.0
  9
$PSOLWIDTH
 40
0.005
  9
$PSOLHEIGHT
 40
0.08
  9
$LOFTANG1
 40
1.570796326795
  9
$LOFTANG2
 40
1.570796326795
  9
$LOFTMAG1
 40
0.0
  9
$LOFTMAG2
 40
0.0
  9
$LOFTPARAM
 70
7
  9
$LOFTNORMALS
280
1
  9
$LATITUDE
 40
37.795
  9
$LONGITUDE
 40
-122.394
  9
$NORTHDIRECTION
 40
0.0
  9
$TIMEZONE
 70
-8000
  9
$LIGHTGLYPHDISPLAY
280
1
  9
$TILEMODELIGHTSYNCH
280
1
  9
$CMATERIAL
347
20
  9
$SOLIDHIST
280
0
  9
$SHOWHIST
280
1
  9
$DWFFRAME
280
2
  9
$DGNFRAME
280
2
  9
$REALWORLDSCALE
290
1
  9
$INTERFERECOLOR
 62
256
  9
$CSHADOW
280
0
  9
$SHADOWPLANELOCATION
 40
0.0
  0
ENDSEC
  0
SECTION
  2
CLASSES
  0
CLASS
  1
ACDBDICTIONARYWDFLT
  2
AcDbDictionaryWithDefault
  3
ObjectDBX Classes
 90
0
 91
0
280
0
281
0
  0
CLASS
  1
SUN
  2
AcDbSun
  3
SCENEOE
 90
1153
 91
0
280
0
281
0
  0
CLASS
  1
VISUALSTYLE
  2
AcDbVisualStyle
  3
ObjectDBX Classes
 90
4095
 91
0
280
0
281
0
  0
CLASS
  1
MATERIAL
  2
AcDbMaterial
  3
ObjectDBX Classes
 90
1153
 91
0
280
0
281
0
  0
CLASS
  1
SCALE
  2
AcDbScale
  3
ObjectDBX Classes
 90
1153
 91
0
280
0
281
0
  0
CLASS
  1
TABLESTYLE
  2
AcDbTableStyle
  3
ObjectDBX Classes
 90
4095
 91
0
280
0
281
0
  0
CLASS
  1
MLEADERSTYLE
  2
AcDbMLeaderStyle
  3
ACDB_MLEADERSTYLE_CLASS
 90
4095
 91
0
280
0
281
0
  0
CLASS
  1
DICTIONARYVAR
  2
AcDbDictionaryVar
  3
ObjectDBX Classes
 90
0
 91
0
280
0
281
0
  0
CLASS
  1
CELLSTYLEMAP
  2
AcDbCellStyleMap
  3
ObjectDBX Classes
 90
1152
 91
0
280
0
281
0
  0
CLASS
  1
MENTALRAYRENDERSETTINGS
  2
AcDbMentalRayRenderSettings
  3
SCENEOE
 90
1024
 91
0
280
0
281
0
  0
CLASS
  1
ACDBDETAILVIEWSTYLE
  2
AcDbDetailViewStyle
  3
ObjectDBX Classes
 90
1025
 91
0
280
0
281
0
  0
CLASS
  1
ACDBSECTIONVIEWSTYLE
  2
AcDbSectionViewStyle
  3
ObjectDBX Classes
 90
1025
 91
0
280
0
281
0
  0
CLASS
  1
RASTERVARIABLES
  2
AcDbRasterVariables
  3
ISM
 90
0
 91
0
280
0
281
0
  0
CLASS
  1
ACDBPLACEHOLDER
  2
AcDbPlaceHolder
  3
ObjectDBX Classes
 90
0
 91
0
280
0
281
0
  0
CLASS
  1
LAYOUT
  2
AcDbLayout
  3
ObjectDBX Classes
 90
0
 91
0
280
0
281
0
  0
ENDSEC
  0
SECTION
  2
TABLES
  0
TABLE
  2
VPORT
  5
8
330
0
100
AcDbSymbolTable
 70
1
  0
VPORT
  5
23
330
8
100
AcDbSymbolTableRecord
100
AcDbViewportTableRecord
  2
*Active
 70
0
 10
0.0
 20
0.0
 11
1.0
 21
1.0
 12
0.0
 22
0.0
 13
0.0
 23
0.0
 14
0.5
 24
0.5
 15
0.5
 25
0.5
 16
0.0
 26
0.0
 36
1.0
 17
0.0
 27
0.0
 37
0.0
 40
1000.0
 41
1.34
 42
50.0
 43
0.0
 44
0.0
 50
0.0
 51
0.0
 71
0
 72
1000
 73
1
 74
3
 75
0
 76
0
 77
0
 78
0
281
0
 65
0
146
0.0
  0
ENDTAB
  0
TABLE
  2
LTYPE
  5
2
330
0
100
AcDbSymbolTable
 70
4
  0
LTYPE
  5
24
330
2
100
AcDbSymbolTableRecord
100
AcDbLinetypeTableRecord
  2
ByBlock
 70
0
  3

 72
65
 73
0
 40
0.0
  0
LTYPE
  5
25
330
2
100
AcDbSymbolTableRecord
100
AcDbLinetypeTableRecord
  2
ByLayer
 70
0
  3

 72
65
 73
0
 40
0.0
  0
LTYPE
  5
26
330
2
100
AcDbSymbolTableRecord
100
AcDbLinetypeTableRecord
  2
Continuous
 70
0
  3

 72
65
 73
0
 40
0.0
  0
LTYPE
  5
BF
330
2
100
AcDbSymbolTableRecord
100
AcDbLinetypeTableRecord
  2
A1S100-NITODNKO$0$XREF1$0$HIDDEN
 70
0
  3
Hidden __ __ __ __ __ __ __ __ __ __ __ __ __ _
 72
65
 73
2
 40
0.375
 49
0.25
 74
0
 49
-0.125
 74
0
  0
ENDTAB
  0
TABLE
  2
LAYER
  5
1
330
0
100
AcDbSymbolTable
 70
6
  0
LAYER
  5
27
330
1
100
AcDbSymbolTableRecord
100
AcDbLayerTableRecord
  2
0
 70
0
 62
7
  6
Continuous
370
-3
390
13
347
21
  0
LAYER
  5
28
330
1
100
AcDbSymbolTableRecord
100
AcDbLayerTableRecord
  2
Defpoints
 70
0
 62
7
  6
Continuous
290
0
370
-3
390
13
347
21
  0
LAYER
  5
BB
330
1
100
AcDbSymbolTableRecord
100
AcDbLayerTableRecord
  2
Layer1
 70
0
 62
7
  6
Continuous
370
30
390
F
347
EE
  0
LAYER
  5
BC
330
1
100
AcDbSymbolTableRecord
100
AcDbLayerTableRecord
  2
KICHTHUOC
 70
0
 62
5
  6
Continuous
370
-3
390
F
347
EE
  0
LAYER
  5
BD
330
1
100
AcDbSymbolTableRecord
100
AcDbLayerTableRecord
  2
DIEN
 70
0
 62
1
  6
Continuous
370
20
390
F
347
EE
  0
LAYER
  5
BE
330
1
100
AcDbSymbolTableRecord
100
AcDbLayerTableRecord
  2
TEXT
 70
0
 62
7
  6
Continuous
370
-3
390
F
347
EE
  0
ENDTAB
  0
TABLE
  2
STYLE
  5
5
330
0
100
AcDbSymbolTable
 70
2
  0
STYLE
  5
29
330
5
100
AcDbSymbolTableRecord
100
AcDbTextStyleTableRecord
  2
Standard
 70
0
 40
0.0
 41
1.0
 50
0.0
 71
0
 42
2.5
  3
txt
  4

  0
STYLE
  5
C0
330
5
100
AcDbSymbolTableRecord
100
AcDbTextStyleTableRecord
  2
ROMANS
 70
0
 40
0.0
 41
1.0
 50
0.0
 71
0
 42
50.0
  3
romans.shx
  4
vns.shx
  0
ENDTAB
  0
TABLE
  2
VIEW
  5
7
330
0
100
AcDbSymbolTable
 70
0
  0
ENDTAB
  0
TABLE
  2
UCS
  5
6
330
0
100
AcDbSymbolTable
 70
0
  0
ENDTAB
  0
TABLE
  2
APPID
  5
3
330
0
100
AcDbSymbolTable
 70
3
  0
APPID
  5
2A
330
3
100
AcDbSymbolTableRecord
100
AcDbRegAppTableRecord
  2
ACAD
 70
0
  0
APPID
  5
C3
330
3
100
AcDbSymbolTableRecord
100
AcDbRegAppTableRecord
  2
HATCHBACKGROUNDCOLOR
 70
0
  0
APPID
  5
C4
330
3
100
AcDbSymbolTableRecord
100
AcDbRegAppTableRecord
  2
EZDXF
 70
0
  0
ENDTAB
  0
TABLE
  2
DIMSTYLE
  5
4
330
0
100
AcDbSymbolTable
 70
1
100
AcDbDimStyleTable
  0
DIMSTYLE
105
2B
330
4
100
AcDbSymbolTableRecord
100
AcDbDimStyleTableRecord
  2
Standard
 70
0
 40
1.0
 41
2.5
 42
0.625
 43
3.75
 44
1.25
 45
0.0
 46
0.0
 47
0.0
 48
0.0
 49
2.5
140
2.5
141
2.5
142
0.0
143
0.03937007874
144
1.0
145
0.0
146
1.0
147
0.625
148
0.0
 69
0
 70
0
 71
0
 72
0
 73
0
 74
0
 75
0
 76
0
 77
1
 78
8
 79
3
170
0
171
3
172
1
173
0
174
0
175
0
176
0
177
0
178
0
179
2
271
2
272
2
273
2
274
3
275
0
276
0
277
2
278
44
279
0
280
0
281
0
282
0
283
0
284
8
285
0
286
0
288
0
289
3
290
0
371
-2
372
-2
  0
ENDTAB
  0
TABLE
  2
BLOCK_RECORD
  5
9
330
0
100
AcDbSymbolTable
 70
3
  0
BLOCK_RECORD
  5
17
330
9
100
AcDbSymbolTableRecord
100
AcDbBlockTableRecord
  2
*Model_Space
340
1A
 70
0
280
1
281
0
  0
BLOCK_RECORD
  5
1B
330
9
100
AcDbSymbolTableRecord
100
AcDbBlockTableRecord
  2
*Paper_Space
340
1E
 70
0
280
1
281
0
  0
BLOCK_RECORD
  5
2F
330
9
100
AcDbSymbolTableRecord
100
AcDbBlockTableRecord
  2
APFC(12STEP-DELAB)
340
0
 70
0
280
1
281
0
  0
ENDTAB
  0
ENDSEC
  0
SECTION
  2
BLOCKS
  0
BLOCK
  5
18
330
17
100
AcDbEntity
  8
0
100
AcDbBlockBegin
  2
*Model_Space
 70
0
 10
0.0
 20
0.0
 30
0.0
  3
*Model_Space
  1

  0
ENDBLK
  5
19
330
17
100
AcDbEntity
  8
0
100
AcDbBlockEnd
  0
BLOCK
  5
1C
330
1B
100
AcDbEntity
  8
0
100
AcDbBlockBegin
  2
*Paper_Space
 70
0
 10
0.0
 20
0.0
 30
0.0
  3
*Paper_Space
  1

  0
ENDBLK
  5
1D
330
1B
100
AcDbEntity
  8
0
100
AcDbBlockEnd
  0
BLOCK
  5
30
330
2F
100
AcDbEntity
  8
0
100
AcDbBlockBegin
  2
APFC(12STEP-DELAB)
 70
0
 10
0.0
 20
0.0
 30
0.0
  3
APFC(12STEP-DELAB)
  1

  0
LWPOLYLINE
  5
32
330
2F
100
AcDbEntity
  8
DIEN
 62
3
100
AcDbPolyline
 90
4
 70
1
 10
193.9878776886162
 20
16.40596340275078
 10
337.9878776886144
 20
16.40596340275078
 10
337.9878776886144
 20
160.4059634027508
 10
193.9878776886162
 20
160.4059634027508
  0
LWPOLYLINE
  5
33
330
2F
100
AcDbEntity
  8
DIEN
 62
1
100
AcDbPolyline
 90
4
 70
1
 10
203.9878776886162
 20
26.47551230079262
 10
327.9878776886144
 20
26.47551230079262
 10
327.9878776886144
 20
150.4755123007926
 10
203.9878776886162
 20
150.4755123007926
  0
CIRCLE
  5
34
330
2F
100
AcDbEntity
  8
DIEN
100
AcDbCircle
 10
310.5889797882082
 20
141.1887839734117
 30
0.0
 40
1.377311900723724
  0
CIRCLE
  5
35
330
2F
100
AcDbEntity
  8
DIEN
100
AcDbCircle
 10
303.5889797882082
 20
141.1887839734117
 30
0.0
 40
1.377311900723724
  0
CIRCLE
  5
36
330
2F
100
AcDbEntity
  8
DIEN
100
AcDbCircle
 10
296.5889797882082
 20
141.1887839734117
 30
0.0
 40
1.377311900723724
  0
CIRCLE
  5
37
330
2F
100
AcDbEntity
  8
DIEN
100
AcDbCircle
 10
289.5889797882082
 20
141.1887839734117
 30
0.0
 40
1.377311900723724
  0
CIRCLE
  5
38
330
2F
100
AcDbEntity
  8
DIEN
100
AcDbCircle
 10
282.5889797882082
 20
141.1887839734117
 30
0.0
 40
1.377311900723724
  0
CIRCLE
  5
39
330
2F
100
AcDbEntity
  8
DIEN
100
AcDbCircle
 10
275.5889797882082
 20
141.1887839734117
 30
0.0
 40
1.377311900723724
  0
CIRCLE
  5
3A
330
2F
100
AcDbEntity
  8
DIEN
100
AcDbCircle
 10
268.5889797882083
 20
141.1887839734117
 30
0.0
 40
1.377311900723724
  0
CIRCLE
  5
3B
330
2F
100
AcDbEntity
  8
DIEN
100
AcDbCircle
 10
261.58897978821
 20
141.1887839734117
 30
0.0
 40
1.377311900723724
  0
CIRCLE
  5
3C
330
2F
100
AcDbEntity
  8
DIEN
100
AcDbCircle
 10
254.5889797882101
 20
141.1887839734117
 30
0.0
 40
1.377311900723724
  0
CIRCLE
  5
3D
330
2F
100
AcDbEntity
  8
DIEN
100
AcDbCircle
 10
247.58897978821
 20
141.1887839734117
 30
0.0
 40
1.377311900723724
  0
CIRCLE
  5
3E
330
2F
100
AcDbEntity
  8
DIEN
100
AcDbCircle
 10
240.58897978821
 20
141.1887839734117
 30
0.0
 40
1.377311900723724
  0
CIRCLE
  5
3F
330
2F
100
AcDbEntity
  8
DIEN
100
AcDbCircle
 10
233.5889797882101
 20
141.1887839734117
 30
0.0
 40
1.377311900723724
  0
CIRCLE
  5
40
330
2F
100
AcDbEntity
  8
DIEN
100
AcDbCircle
 10
226.58897978821
 20
141.1887839734117
 30
0.0
 40
1.377311900723724
  0
CIRCLE
  5
41
330
2F
100
AcDbEntity
  8
DIEN
100
AcDbCircle
 10
219.5889797882101
 20
141.1887839734117
 30
0.0
 40
1.377311900723724
  0
CIRCLE
  5
42
330
2F
100
AcDbEntity
  8
DIEN
100
AcDbCircle
 10
219.5889797882101
 20
126.1887839734117
 30
0.0
 40
1.377311900723724
  0
LWPOLYLINE
  5
43
330
2F
100
AcDbEntity
  8
DIEN
100
AcDbPolyline
 90
8
 70
1
 10
224.9619108511961
 20
127.2615668874859
 10
251.4349524829249
 20
127.2615668875005
 42
-0.4142135623731313
 10
253.4349524829249
 20
125.2615668875005
 10
253.4349524829249
 20
117.2032465408701
 42
-0.4142135623731046
 10
251.4349524829249
 20
115.2032465408701
 10
224.9619108511961
 20
115.2032465408774
 42
-0.4142135623730951
 10
222.9619108511961
 20
117.2032465408774
 10
222.9619108511961
 20
125.2615668874859
 42
-0.4142135623730951
  0
LWPOLYLINE
  5
44
330
2F
100
AcDbEntity
  8
DIEN
100
AcDbPolyline
 90
4
 70
1
 10
226.3994090221167
 20
125.5968546942968
 10
230.8846876497646
 20
125.5968546942968
 10
230.8846876497646
 20
121.6134701518676
 10
226.3994090221167
 20
121.6134701518676
  0
LWPOLYLINE
  5
45
330
2F
100
AcDbEntity
  8
DIEN
100
AcDbPolyline
 90
4
 70
1
 10
226.3994090221167
 20
121.6134701518676
 10
230.8846876497646
 20
121.6134701518676
 10
230.8846876497646
 20
117.6300856094385
 10
226.3994090221167
 20
117.6300856094385
  0
LWPOLYLINE
  5
46
330
2F
100
AcDbEntity
  8
DIEN
100
AcDbPolyline
 90
4
 70
1
 10
235.6395510241109
 20
125.5968546942968
 10
240.1248296517588
 20
125.5968546942968
 10
240.1248296517588
 20
121.6134701518676
 10
235.6395510241109
 20
121.6134701518676
  0
LWPOLYLINE
  5
47
330
2F
100
AcDbEntity
  8
DIEN
100
AcDbPolyline
 90
4
 70
1
 10
235.6395510241109
 20
121.6134701518676
 10
240.1248296517588
 20
121.6134701518676
 10
240.1248296517588
 20
117.6300856094385
 10
235.6395510241109
 20
117.6300856094385
  0
LWPOLYLINE
  5
48
330
2F
100
AcDbEntity
  8
DIEN
100
AcDbPolyline
 90
4
 70
1
 10
244.815729052656
 20
125.5968546942968
 10
249.3010076803057
 20
125.5968546942968
 10
249.3010076803057
 20
121.6134701518676
 10
244.815729052656
 20
121.6134701518676
  0
LWPOLYLINE
  5
49
330
2F
100
AcDbEntity
  8
DIEN
100
AcDbPolyline
 90
4
 70
1
 10
244.815729052656
 20
121.6134701518676
 10
249.3010076803057
 20
121.6134701518676
 10
249.3010076803057
 20
117.6300856094385
 10
244.815729052656
 20
117.6300856094385
  0
CIRCLE
  5
4A
330
2F
100
AcDbEntity
  8
DIEN
100
AcDbCircle
 10
233.221400807508
 20
117.6336735786826
 30
0.0
 40
0.2584393129125237
  0
HATCH
  5
4B
330
2F
100
AcDbEntity
  8
DIEN
100
AcDbHatch
 10
0.0
 20
0.0
 30
0.0
210
0.0
220
0.0
230
1.0
  2
ANSI31
 70
0
 71
0
 91
1
 92
7
 72
1
 73
1
 93
2
 10
233.4798401204207
 20
117.6336735786826
 42
1.0
 10
232.9629614945952
 20
117.6336735786826
 42
1.0
 97
0
 75
0
 76
1
 52
0.0
 41
1.28
 77
0
 78
1
 53
45.0
 43
-9759.402480329418
 44
-23025.77302783488
 45
-0.1131370849898476
 46
0.1131370849898476
 79
0
 47
0.0198983212652056
 98
1
 10
233.1758459775974
 20
117.6470756990238
  0
CIRCLE
  5
4C
330
2F
100
AcDbEntity
  8
DIEN
100
AcDbCircle
 10
242.4730875266796
 20
117.6336735786826
 30
0.0
 40
0.2584393129125237
  0
HATCH
  5
4D
330
2F
100
AcDbEntity
  8
DIEN
100
AcDbHatch
 10
0.0
 20
0.0
 30
0.0
210
0.0
220
0.0
230
1.0
  2
ANSI31
 70
0
 71
0
 91
1
 92
7
 72
1
 73
1
 93
2
 10
242.7315268395923
 20
117.6336735786826
 42
1.0
 10
242.2146482137669
 20
117.6336735786826
 42
1.0
 97
0
 75
0
 76
1
 52
0.0
 41
1.28
 77
0
 78
1
 53
45.0
 43
-9750.150793610244
 44
-23025.77302783488
 45
-0.1131370849898476
 46
0.1131370849898476
 79
0
 47
0.0198983212652056
 98
1
 10
242.427532696769
 20
117.6470756990238
  0
CIRCLE
  5
4E
330
2F
100
AcDbEntity
  8
DIEN
100
AcDbCircle
 10
250.7054069222595
 20
117.6336735786826
 30
0.0
 40
0.2584393129125237
  0
HATCH
  5
4F
330
2F
100
AcDbEntity
  8
DIEN
100
AcDbHatch
 10
0.0
 20
0.0
 30
0.0
210
0.0
220
0.0
230
1.0
  2
ANSI31
 70
0
 71
0
 91
1
 92
7
 72
1
 73
1
 93
2
 10
250.4469676093468
 20
117.6336735786826
 42
1.0
 10
250.9638462351722
 20
117.6336735786826
 42
1.0
 97
0
 75
0
 76
1
 52
0.0
 41
1.28
 77
0
 78
1
 53
45.0
 43
-9741.918474214668
 44
-23025.77302783488
 45
-0.1131370849898476
 46
0.1131370849898476
 79
0
 47
0.0198983212652056
 98
1
 10
250.659852092349
 20
117.6470756990238
  0
CIRCLE
  5
50
330
2F
100
AcDbEntity
  8
DIEN
100
AcDbCircle
 10
219.5889797882101
 20
121.0391798635246
 30
0.0
 40
1.377311900723724
  0
CIRCLE
  5
51
330
2F
100
AcDbEntity
  8
DIEN
100
AcDbCircle
 10
259.9072691917517
 20
126.1887839734117
 30
0.0
 40
1.377311900723724
  0
CIRCLE
  5
52
330
2F
100
AcDbEntity
  8
DIEN
100
AcDbCircle
 10
259.9072691917517
 20
121.0391798635246
 30
0.0
 40
1.377311900723724
  0
CIRCLE
  5
53
330
2F
100
AcDbEntity
  8
DIEN
100
AcDbCircle
 10
259.9072691917517
 20
115.8895757536374
 30
0.0
 40
1.377311900723724
  0
CIRCLE
  5
54
330
2F
100
AcDbEntity
  8
DIEN
100
AcDbCircle
 10
259.9072691917517
 20
110.7399716437503
 30
0.0
 40
1.377311900723724
  0
CIRCLE
  5
55
330
2F
100
AcDbEntity
  8
DIEN
100
AcDbCircle
 10
259.9072691917517
 20
105.5903675338631
 30
0.0
 40
1.377311900723724
  0
CIRCLE
  5
56
330
2F
100
AcDbEntity
  8
DIEN
100
AcDbCircle
 10
259.9072691917517
 20
100.440763423976
 30
0.0
 40
1.377311900723724
  0
TEXT
  5
57
330
2F
100
AcDbEntity
  8
TEXT
  6
Continuous
100
AcDbText
 10
262.3572308174698
 20
124.8632293549235
 30
0.0
 40
2.528064
  1
Cos 
  7
ROMANS
 41
0.8
100
AcDbText
  0
TEXT
  5
58
330
2F
100
AcDbEntity
  8
TEXT
  6
Continuous
100
AcDbText
 10
262.3572308174698
 20
114.5640211351492
 30
0.0
 40
2.528064
  1
Voltage
  7
ROMANS
 41
0.8
100
AcDbText
  0
TEXT
  5
59
330
2F
100
AcDbEntity
  8
TEXT
  6
Continuous
100
AcDbText
 10
262.3572308174698
 20
109.4144170252621
 30
0.0
 40
2.528064
  1
THD-I(%)
  7
ROMANS
 41
0.8
100
AcDbText
  0
TEXT
  5
5A
330
2F
100
AcDbEntity
  8
TEXT
  6
Continuous
100
AcDbText
 10
262.3572308174698
 20
104.2648129153749
 30
0.0
 40
2.528064
  1
Tot.Op-hr(x100)
  7
ROMANS
 41
0.8
100
AcDbText
  0
TEXT
  5
5B
330
2F
100
AcDbEntity
  8
TEXT
  6
Continuous
100
AcDbText
 10
262.3572308174698
 20
99.11520880548778
 30
0.0
 40
2.528064
  1
Alam
  7
ROMANS
 41
0.8
100
AcDbText
  0
TEXT
  5
5C
330
2F
100
AcDbEntity
  8
TEXT
  6
Continuous
100
AcDbText
 10
262.3572308174698
 20
119.7136252450364
 30
0.0
 40
2.528064
  1
Isec. (A)
  7
ROMANS
 41
0.8
100
AcDbText
  0
CIRCLE
  5
5D
330
2F
100
AcDbEntity
  8
DIEN
 62
3
100
AcDbCircle
 10
288.8826422494712
 20
121.0224866120261
 30
0.0
 40
1.945431472515338
  0
CIRCLE
  5
5E
330
2F
100
AcDbEntity
  8
DIEN
 62
3
100
AcDbCircle
 10
288.8826422494712
 20
115.8614902067638
 30
0.0
 40
1.945431472515338
  0
CIRCLE
  5
5F
330
2F
100
AcDbEntity
  8
DIEN
 62
3
100
AcDbCircle
 10
288.8826422494712
 20
110.7280789192446
 30
0.0
 40
1.945431472515338
  0
LWPOLYLINE
  5
60
330
2F
100
AcDbEntity
  8
DIEN
 62
3
100
AcDbPolyline
 90
8
 70
1
 10
295.6233726469636
 20
122.941407711638
 10
297.6143340656381
 20
122.941407711638
 42
-0.4142135623731861
 10
298.6143340656381
 20
121.941407711638
 10
298.6143340656381
 20
120.0208818088504
 42
-0.4142135623727387
 10
297.6143340656381
 20
119.0208818088504
 10
295.6233726469618
 20
119.0208818088504
 42
-0.4142135623731864
 10
294.6233726469618
 20
120.0208818088504
 10
294.6233726469636
 20
121.941407711638
 42
-0.4142135623730951
  0
TEXT
  5
61
330
2F
100
AcDbEntity
  8
TEXT
  6
Continuous
100
AcDbText
 10
294.7299812593483
 20
119.7136252450364
 30
0.0
 40
2.528064
  1
PF
  7
ROMANS
 41
0.8
100
AcDbText
  0
LWPOLYLINE
  5
62
330
2F
100
AcDbEntity
  8
DIEN
 62
3
100
AcDbPolyline
 90
8
 70
1
 10
295.6233726469636
 20
117.7804113063757
 10
300.8157641203834
 20
117.7804113063757
 42
-0.4142135623731861
 10
301.8157641203834
 20
116.7804113063757
 10
301.8157641203834
 20
114.8598854035881
 42
-0.4142135623727387
 10
300.8157641203834
 20
113.8598854035881
 10
295.6233726469618
 20
113.8598854035881
 42
-0.4142135623731864
 10
294.6233726469618
 20
114.8598854035881
 10
294.6233726469636
 20
116.7804113063757
 42
-0.4142135623730951
  0
TEXT
  5
63
330
2F
100
AcDbEntity
  8
TEXT
  6
Continuous
100
AcDbText
 10
294.7299812593483
 20
114.5526288397741
 30
0.0
 40
2.528064
  1
Freq
  7
ROMANS
 41
0.8
100
AcDbText
  0
LWPOLYLINE
  5
64
330
2F
100
AcDbEntity
  8
DIEN
 62
3
100
AcDbPolyline
 90
8
 70
1
 10
295.6233726469636
 20
112.404537581373
 10
318.8125334312317
 20
112.404537581373
 42
-0.4142135623731861
 10
319.8125334312317
 20
111.404537581373
 10
319.8125334312317
 20
105.7299995774447
 42
-0.4142135623727387
 10
318.8125334312317
 20
104.7299995774447
 10
295.6233726469618
 20
104.7299995774447
 42
-0.4142135623731864
 10
294.6233726469618
 20
105.7299995774447
 10
294.6233726469636
 20
111.404537581373
 42
-0.4142135623730951
  0
TEXT
  5
65
330
2F
100
AcDbEntity
  8
TEXT
  6
Continuous
100
AcDbText
 10
294.7299812593483
 20
109.4192175522548
 30
0.0
 40
2.528064
  1
nth
  7
ROMANS
 41
0.8
100
AcDbText
  0
TEXT
  5
66
330
2F
100
AcDbEntity
  8
TEXT
  6
Continuous
100
AcDbText
 10
300.0813973284639
 20
109.4064921735989
 30
0.0
 40
2.528064
  1
Hamonic
  7
ROMANS
 41
0.8
100
AcDbText
  0
TEXT
  5
67
330
2F
100
AcDbEntity
  8
TEXT
  6
Continuous
100
AcDbText
 10
294.7299812593483
 20
106.1439684556608
 30
0.0
 40
2.528064
  1
(1st,3rd,...,11th)
  7
ROMANS
 41
0.8
100
AcDbText
  0
TEXT
  5
68
330
2F
100
AcDbEntity
  8
TEXT
  6
Continuous
100
AcDbText
 10
313.5901784980633
 20
109.4064921735989
 30
0.0
 40
2.528064
  1
I(A)
  7
ROMANS
 41
0.8
100
AcDbText
  0
CIRCLE
  5
69
330
2F
100
AcDbEntity
  8
DIEN
100
AcDbCircle
 10
211.8581847727164
 20
102.8716213190782
 30
0.0
 40
1.377311900723724
  0
CIRCLE
  5
6A
330
2F
100
AcDbEntity
  8
DIEN
100
AcDbCircle
 10
211.8581847727164
 20
97.72201720919114
 30
0.0
 40
1.377311900723724
  0
CIRCLE
  5
6B
330
2F
100
AcDbEntity
  8
DIEN
100
AcDbCircle
 10
211.8581847727164
 20
92.57241309930396
 30
0.0
 40
1.377311900723724
  0
CIRCLE
  5
6C
330
2F
100
AcDbEntity
  8
DIEN
100
AcDbCircle
 10
211.8581847727164
 20
87.42280898941681
 30
0.0
 40
1.377311900723724
  0
CIRCLE
  5
6D
330
2F
100
AcDbEntity
  8
DIEN
100
AcDbCircle
 10
211.8581847727164
 20
82.27320487952964
 30
0.0
 40
1.377311900723724
  0
CIRCLE
  5
6E
330
2F
100
AcDbEntity
  8
DIEN
100
AcDbCircle
 10
211.8581847727164
 20
77.12360076964252
 30
0.0
 40
1.377311900723724
  0
TEXT
  5
6F
330
2F
100
AcDbEntity
  8
TEXT
  6
Continuous
100
AcDbText
 10
214.3081463984345
 20
101.54606670059
 30
0.0
 40
2.528064
  1
C/K (1st Cap/CT ratio)
  7
ROMANS
 41
0.8
100
AcDbText
  0
TEXT
  5
70
330
2F
100
AcDbEntity
  8
TEXT
  6
Continuous
100
AcDbText
 10
214.3081463984345
 20
91.24685848081572
 30
0.0
 40
2.528064
  1
No.Comnected Steps
  7
ROMANS
 41
0.8
100
AcDbText
  0
TEXT
  5
71
330
2F
100
AcDbEntity
  8
TEXT
  6
Continuous
100
AcDbText
 10
214.3081463984345
 20
86.09725437092855
 30
0.0
 40
2.528064
  1
Switching Program
  7
ROMANS
 41
0.8
100
AcDbText
  0
TEXT
  5
72
330
2F
100
AcDbEntity
  8
TEXT
  6
Continuous
100
AcDbText
 10
214.3081463984345
 20
75.79804615115427
 30
0.0
 40
2.528064
  1
Voltage >(V)
  7
ROMANS
 41
0.8
100
AcDbText
  0
TEXT
  5
73
330
2F
100
AcDbEntity
  8
TEXT
  6
Continuous
100
AcDbText
 10
214.3081463984345
 20
96.3964625907029
 30
0.0
 40
2.528064
  1
Target Cos
  7
ROMANS
 41
0.8
100
AcDbText
  0
TEXT
  5
74
330
2F
100
AcDbEntity
  8
TEXT
  6
Continuous
100
AcDbText
 10
214.3567767262994
 20
81.20889252953204
 30
0.0
 40
2.528064
  1
Switching Time(sec)
  7
ROMANS
 41
0.8
100
AcDbText
  0
CIRCLE
  5
75
330
2F
100
AcDbEntity
  8
DIEN
100
AcDbCircle
 10
211.8581847727164
 20
71.97399665975534
 30
0.0
 40
1.377311900723724
  0
TEXT
  5
76
330
2F
100
AcDbEntity
  8
TEXT
  6
Continuous
100
AcDbText
 10
214.3081463984345
 20
70.64844204126709
 30
0.0
 40
2.528064
  1
THD-I >(%)
  7
ROMANS
 41
0.8
100
AcDbText
  0
LWPOLYLINE
  5
77
330
2F
100
AcDbEntity
  8
DIEN
100
AcDbPolyline
 90
3
 70
1
 10
286.9850709193142
 20
79.79233454859786
 10
285.5524126688142
 20
77.3108976688527
 10
288.4177291698143
 20
77.3108976688527
  0
LWPOLYLINE
  5
78
330
2F
100
AcDbEntity
  8
DIEN
100
AcDbPolyline
 90
3
 70
1
 10
286.7299869069375
 20
58.64261331996385
 10
288.2087972930749
 20
61.20398804352589
 10
285.2511765208001
 20
61.20398804352589
  0
TEXT
  5
79
330
2F
100
AcDbEntity
  8
TEXT
  6
Continuous
100
AcDbText
 10
264.8514542176781
 20
78.79477734419197
 30
0.0
 40
1.011225599999999
  1
select
  7
ROMANS
 41
0.8
100
AcDbText
  0
TEXT
  5
7A
330
2F
100
AcDbEntity
  8
TEXT
  6
Continuous
100
AcDbText
 10
265.6555892045144
 20
77.2022491986645
 30
0.0
 40
1.011225599999999
  1
set
  7
ROMANS
 41
0.8
100
AcDbText
  0
TEXT
  5
7B
330
2F
100
AcDbEntity
  8
TEXT
  6
Continuous
100
AcDbText
 10
286.2249761455041
 20
75.64437535896286
 30
0.0
 40
1.011225599999999
  1
Up
  7
ROMANS
 41
0.8
100
AcDbText
  0
TEXT
  5
7C
330
2F
100
AcDbEntity
  8
TEXT
  6
Continuous
100
AcDbText
 10
285.5262377816944
 20
61.73922164252871
 30
0.0
 40
1.011225599999999
  1
Down
  7
ROMANS
 41
0.8
100
AcDbText
  0
CIRCLE
  5
7D
330
2F
100
AcDbEntity
  8
DIEN
 62
3
100
AcDbCircle
 10
266.6464697941137
 20
78.22922259038752
 30
0.0
 40
3.175046365638263
  0
CIRCLE
  5
7E
330
2F
100
AcDbEntity
  8
DIEN
 62
1
100
AcDbCircle
 10
266.6464697941137
 20
78.04211929025041
 30
0.0
 40
5.555602257253485
  0
CIRCLE
  5
7F
330
2F
100
AcDbEntity
  8
DIEN
 62
3
100
AcDbCircle
 10
286.8949671555784
 20
60.61045614863543
 30
0.0
 40
2.980490333028138
  0
CIRCLE
  5
80
330
2F
100
AcDbEntity
  8
DIEN
 62
1
100
AcDbCircle
 10
286.8949671555784
 20
60.61045614863543
 30
0.0
 40
5.584594083798886
  0
CIRCLE
  5
81
330
2F
100
AcDbEntity
  8
DIEN
 62
3
100
AcDbCircle
 10
286.9363178907188
 20
77.96269878872408
 30
0.0
 40
2.980490333028138
  0
CIRCLE
  5
82
330
2F
100
AcDbEntity
  8
DIEN
 62
1
100
AcDbCircle
 10
286.9363178907188
 20
77.96269878872408
 30
0.0
 40
5.584594083798886
  0
CIRCLE
  5
83
330
2F
100
AcDbEntity
  8
DIEN
 62
1
100
AcDbCircle
 10
266.6464697941137
 20
78.22922259038752
 30
0.0
 40
4.977031684967361
  0
CIRCLE
  5
84
330
2F
100
AcDbEntity
  8
DIEN
 62
1
100
AcDbCircle
 10
286.8949671555784
 20
60.61045614863543
 30
0.0
 40
5.069997873431709
  0
CIRCLE
  5
85
330
2F
100
AcDbEntity
  8
DIEN
 62
1
100
AcDbCircle
 10
286.9363178907188
 20
77.96269878872408
 30
0.0
 40
5.069997873431709
  0
CIRCLE
  5
86
330
2F
100
AcDbEntity
  8
DIEN
 62
3
100
AcDbCircle
 10
266.6464697941137
 20
60.69424960086326
 30
0.0
 40
3.175046365638263
  0
CIRCLE
  5
87
330
2F
100
AcDbEntity
  8
DIEN
 62
1
100
AcDbCircle
 10
266.6464697941137
 20
60.50714630071161
 30
0.0
 40
5.555602257253485
  0
CIRCLE
  5
88
330
2F
100
AcDbEntity
  8
DIEN
 62
1
100
AcDbCircle
 10
266.6464697941137
 20
60.69424960086326
 30
0.0
 40
4.977031684967361
  0
CIRCLE
  5
89
330
2F
100
AcDbEntity
  8
DIEN
100
AcDbCircle
 10
211.8581847727164
 20
62.89006939047249
 30
0.0
 40
1.377311900723724
  0
TEXT
  5
8A
330
2F
100
AcDbEntity
  8
TEXT
  6
Continuous
100
AcDbText
 10
214.3081463984345
 20
61.56451477198425
 30
0.0
 40
2.528064
  1
Auto
  7
ROMANS
 41
0.8
100
AcDbText
  0
CIRCLE
  5
8B
330
2F
100
AcDbEntity
  8
DIEN
100
AcDbCircle
 10
211.8581847727164
 20
57.54069229181187
 30
0.0
 40
1.377311900723724
  0
TEXT
  5
8C
330
2F
100
AcDbEntity
  8
TEXT
  6
Continuous
100
AcDbText
 10
214.3081463984345
 20
56.66184736778814
 30
0.0
 40
2.528064
  1
Manual
  7
ROMANS
 41
0.8
100
AcDbText
  0
TEXT
  5
8D
330
2F
100
AcDbEntity
  8
TEXT
  6
Continuous
100
AcDbText
 10
307.1688820622258
 20
134.5657021433508
 30
0.0
 40
2.528064
  1
NV-8s/14s
  7
ROMANS
 41
0.8
100
AcDbText
  0
LINE
  5
8E
330
2F
100
AcDbEntity
  8
DIEN
 62
3
100
AcDbLine
 10
307.4117141782153
 20
133.0399968932906
 30
0.0
 11
324.5884475042658
 21
133.0399968932906
 31
0.0
  0
LWPOLYLINE
  5
8F
330
2F
100
AcDbEntity
  8
DIEN
 62
3
100
AcDbPolyline
 90
10
 70
0
 10
283.4363178907188
 20
97.01149718122178
 10
258.2010553600794
 20
97.01149718122178
 42
-0.4142135623731161
 10
256.2010553600794
 20
99.01149718122178
 10
256.201055360083
 20
126.1887839734117
 42
-0.4142135623731128
 10
258.201055360083
 20
128.1887839734118
 10
321.1465071575021
 20
128.1887839733972
 42
-0.4142135623730132
 10
323.1465071575003
 20
126.1887839733972
 10
323.146507157504
 20
99.01149718122907
 42
-0.4142135623730703
 10
321.146507157504
 20
97.01149718122906
 10
290.4363178907188
 20
97.01149718122178
  0
LINE
  5
90
330
2F
100
AcDbEntity
  8
DIEN
 62
3
370
0
100
AcDbLine
 10
321.1465071575021
 20
128.1887839733972
 30
0.0
 11
258.201055360083
 21
128.1887839734118
 31
0.0
  0
ARC
  5
91
330
2F
100
AcDbEntity
  8
DIEN
 62
3
370
0
100
AcDbCircle
 10
258.201055360083
 20
126.1887839734117
 30
0.0
 40
1.999999999999938
100
AcDbArc
 50
90.0
 51
180.0
  0
LINE
  5
92
330
2F
100
AcDbEntity
  8
DIEN
 62
3
370
0
100
AcDbLine
 10
256.201055360083
 20
126.1887839734117
 30
0.0
 11
256.2010553600794
 21
99.01149718122178
 31
0.0
  0
ARC
  5
93
330
2F
100
AcDbEntity
  8
DIEN
 62
3
370
0
100
AcDbCircle
 10
258.2010553600794
 20
99.01149718122178
 30
0.0
 40
1.999999999999928
100
AcDbArc
 50
180.0
 51
270.0
  0
ARC
  5
94
330
2F
100
AcDbEntity
  8
DIEN
 62
3
370
0
100
AcDbCircle
 10
321.146507157504
 20
99.01149718122907
 30
0.0
 40
2.000000000000083
100
AcDbArc
 50
270.0
 51
0.0
  0
LINE
  5
95
330
2F
100
AcDbEntity
  8
DIEN
 62
3
370
0
100
AcDbLine
 10
323.146507157504
 20
99.01149718122907
 30
0.0
 11
323.1465071575003
 21
126.1887839733972
 31
0.0
  0
ARC
  5
96
330
2F
100
AcDbEntity
  8
DIEN
 62
3
370
0
100
AcDbCircle
 10
321.1465071575003
 20
126.1887839733972
 30
0.0
 40
1.999999999999825
100
AcDbArc
 50
0.0
 51
90.0
  0
HATCH
  5
97
330
2F
100
AcDbEntity
  8
DIEN
 62
3
100
AcDbHatch
 10
0.0
 20
0.0
 30
0.0
210
0.0
220
0.0
230
1.0
  2
AR-CONC
 70
0
 71
0
 91
1
 92
7
 72
1
 73
1
 93
20
 10
258.201055360083
 20
126.1887839734117
 42
0.0
 10
258.7257575643434
 20
128.1887839734118
 42
0.0
 10
258.201055360083
 20
128.1887839734118
 42
0.4142135623731128
 10
256.201055360083
 20
126.1887839734117
 42
0.0
 10
256.2010553600794
 20
99.01149718122178
 42
0.4142135623731161
 10
258.2010553600794
 20
97.01149718122178
 42
0.0
 10
321.146507157504
 20
97.01149718122906
 42
0.4142135623730951
 10
323.146507157504
 20
99.01149718122907
 42
0.0
 10
323.1465071575003
 20
126.1887839733972
 42
0.4142135623730132
 10
321.1465071575021
 20
128.1887839733972
 42
0.0
 10
268.5399008482127
 20
128.1887839734045
 42
0.0
 10
271.434534089105
 20
124.7734398542816
 42
0.0
 10
303.8248530885867
 20
124.4530461777176
 42
0.0
 10
303.8248530885885
 20
114.3787081483533
 42
0.0
 10
321.1600087904772
 20
114.3787081483606
 42
0.0
 10
321.1600087904772
 20
102.3386734315936
 42
0.0
 10
271.9823695272607
 20
102.3386734315936
 42
0.0
 10
271.9823695272626
 20
98.34284236121312
 42
0.0
 10
258.201055360083
 20
98.34284236121312
 42
0.0
 10
258.201055360083
 20
123.790180560034
 42
0.0
 97
0
 75
0
 76
1
 52
0.0
 41
1.0
 77
0
 78
13
 53
50.0
 43
-7127.545772596585
 44
-27664.14251438656
 45
7.172601826007534
 46
-0.6275213498259511
 79
2
 49
0.75
 49
-8.25
 53
355.0
 43
-7127.545772596585
 44
-27664.14251438656
 45
-1.38751333613
 46
7.521921337000117
 79
2
 49
0.6
 49
-6.599999999999997
 53
100.4514
 43
-7126.948055796585
 44
-27664.19480778656
 45
5.785093817140214
 46
6.894395420609535
 79
2
 49
0.6374018999999991
 49
-7.01142111999999
 53
46.18419999999999
 43
-7127.545772596585
 44
-27662.14251438656
 45
10.67241048625644
 46
-1.655190143290178
 79
2
 49
1.125
 49
-12.375
 53
96.63559999999995
 43
-7126.656405146585
 44
-27662.28044745656
 45
9.346627055487033
 46
9.741178709004416
 79
2
 49
0.9561028799999988
 49
-10.51712999999998
 53
351.1842000000001
 43
-7127.545772596585
 44
-27662.14251438656
 45
9.346619451336274
 46
9.741186009253246
 79
2
 49
0.9
 49
-9.9
 53
21.0
 43
-7126.545772596585
 44
-27662.64251438656
 45
5.969070521184614
 46
-4.026188906653388
 79
2
 49
0.75
 49
-8.25
 53
326.0
 43
-7126.545772596585
 44
-27662.64251438656
 45
2.433153319215815
 46
7.25150045046853
 79
2
 49
0.6
 49
-6.599999999999997
 53
71.45140000000002
 43
-7126.048350266586
 44
-27662.97803044656
 45
8.402226285814898
 46
3.225304967099523
 79
2
 49
0.6374019000000001
 49
-7.011421119999997
 53
37.5
 43
-7127.545772596585
 44
-27664.14251438656
 45
0.1215985531729067
 46
3.328938538313114
 79
6
 49
0.0
 49
-6.519999999999997
 49
0.0
 49
-6.7
 49
0.0
 49
-6.625
 53
7.499999999999999
 43
-7127.545772596585
 44
-27664.14251438656
 45
2.630695374421486
 46
3.944117118823602
 79
6
 49
0.0
 49
-3.819999999999998
 49
0.0
 49
-6.37
 49
0.0
 49
-2.524999999999999
 53
327.5
 43
-7129.775772596587
 44
-27664.14251438656
 45
5.33822436172409
 46
-0.225548717343798
 79
6
 49
0.0
 49
-2.5
 49
0.0
 49
-7.799999999999998
 49
0.0
 49
-10.35
 53
317.5
 43
-7130.775772596585
 44
-27664.14251438656
 45
5.831861693423862
 46
1.001049823323175
 79
6
 49
0.0
 49
-3.25
 49
0.0
 49
-5.179999999999997
 49
0.0
 49
-7.349999999999997
 47
0.1531668371056998
 98
1
 10
257.6115917392581
 20
124.3484588410574
  0
LINE
  5
98
330
2F
100
AcDbEntity
  8
DIEN
 62
3
100
AcDbLine
 10
285.4363178907188
 20
83.54729287252118
 30
0.0
 11
284.7575835507377
 21
83.10476138621742
 31
0.0
  0
LINE
  5
99
330
2F
100
AcDbEntity
  8
DIEN
 62
3
100
AcDbLine
 10
288.4363178907188
 20
83.54729287252118
 30
0.0
 11
289.7344498854327
 21
82.79572562714745
 31
0.0
  0
LINE
  5
9A
330
2F
100
AcDbEntity
  8
Layer1
 62
3
 48
0.05
100
AcDbLine
 10
288.4363178907188
 20
83.54729287252118
 30
0.0
 11
288.4363178907188
 21
95.01149718122178
 31
0.0
  0
ARC
  5
9B
330
2F
100
AcDbEntity
  8
DIEN
  6
A1S100-NITODNKO$0$XREF1$0$HIDDEN
 62
3
100
AcDbCircle
 10
290.4363178907188
 20
95.01149718122178
 30
0.0
 40
2.0
100
AcDbArc
 50
90.0
 51
180.0
  0
LINE
  5
9C
330
2F
100
AcDbEntity
  8
DIEN
  6
A1S100-NITODNKO$0$XREF1$0$HIDDEN
 62
3
100
AcDbLine
 10
290.4363178907188
 20
97.01149718122178
 30
0.0
 11
321.146507157504
 21
97.01149718122906
 31
0.0
  0
LINE
  5
9D
330
2F
100
AcDbEntity
  8
DIEN
  6
A1S100-NITODNKO$0$XREF1$0$HIDDEN
 62
3
100
AcDbLine
 10
258.2010553600794
 20
97.01149718122178
 30
0.0
 11
283.4363178907188
 21
97.01149718122178
 31
0.0
  0
ARC
  5
9E
330
2F
100
AcDbEntity
  8
DIEN
  6
A1S100-NITODNKO$0$XREF1$0$HIDDEN
 62
3
100
AcDbCircle
 10
283.4363178907188
 20
95.01149718122178
 30
0.0
 40
2.0
100
AcDbArc
 50
0.0
 51
90.0
  0
LINE
  5
9F
330
2F
100
AcDbEntity
  8
Layer1
 62
3
 48
0.05
100
AcDbLine
 10
285.4363178907188
 20
95.01149718122178
 30
0.0
 11
285.4363178907188
 21
83.54729287252118
 31
0.0
  0
TEXT
  5
A0
330
2F
100
AcDbEntity
  8
TEXT
  6
Continuous
100
AcDbText
 10
264.5655063414452
 20
60.90278026587474
 30
0.0
 40
1.011225599999999
  1
Cancel
  7
ROMANS
 41
0.8
100
AcDbText
  0
TEXT
  5
A1
330
2F
100
AcDbEntity
  8
TEXT
  6
Continuous
100
AcDbText
 10
264.5448950113478
 20
59.89224437048688
 30
0.0
 40
1.011225599999999
  1
Reset,
  7
ROMANS
 41
0.8
100
AcDbText
  0
TEXT
  5
A2
330
2F
100
AcDbEntity
  8
TEXT
  6
Continuous
100
AcDbText
 10
265.271024614236
 20
58.87481754326291
 30
0.0
 40
1.011225599999999
  1
Test
  7
ROMANS
 41
0.8
100
AcDbText
  0
LWPOLYLINE
  5
A3
330
2F
100
AcDbEntity
  8
Layer1
 62
3
 48
0.05
100
AcDbPolyline
 90
2
 70
0
 10
260.3284086211624
 20
61.02580073191347
 10
226.5892387684125
 20
61.02580073191347
  0
LWPOLYLINE
  5
A4
330
2F
100
AcDbEntity
  8
Layer1
 62
3
 48
0.05
100
AcDbPolyline
 90
2
 70
0
 10
260.3284086211624
 20
57.50820235565335
 10
226.6682460512075
 20
57.48587474521627
  0
LINE
  5
A5
330
2F
100
AcDbEntity
  8
Layer1
 62
3
100
AcDbLine
 10
260.3284086211624
 20
63.01612390959782
 30
0.0
 11
262.0230502522663
 21
63.58752098261175
 31
0.0
  0
LINE
  5
A6
330
2F
100
AcDbEntity
  8
Layer1
 62
3
100
AcDbLine
 10
260.3284086211624
 20
57.50820235565335
 30
0.0
 11
262.2285636236775
 21
57.13864195753558
 31
0.0
  0
LINE
  5
A7
330
2F
100
AcDbEntity
  8
Layer1
 62
3
100
AcDbLine
 10
260.3284086211624
 20
59.49852553333767
 30
0.0
 11
261.1831923356276
 21
59.49852553333767
 31
0.0
  0
LINE
  5
A8
330
2F
100
AcDbEntity
  8
Layer1
 62
3
100
AcDbLine
 10
260.3284086211624
 20
61.02580073191347
 30
0.0
 11
261.1151305329749
 21
61.02580073191347
 31
0.0
  0
CIRCLE
  5
A9
330
2F
100
AcDbEntity
  8
Layer1
 62
3
100
AcDbCircle
 10
211.8581847727164
 20
62.89006939047249
 30
0.0
 40
1.83444995998434
  0
LINE
  5
AA
330
2F
100
AcDbEntity
  8
Layer1
 62
3
100
AcDbLine
 10
211.8581847727164
 20
64.72451935045683
 30
0.0
 11
221.7664561880793
 21
64.72451935045683
 31
0.0
  0
LINE
  5
AB
330
2F
100
AcDbEntity
  8
Layer1
 62
3
 48
0.05
100
AcDbLine
 10
221.7664561880793
 20
64.72451935045683
 30
0.0
 11
226.5892387684125
 21
63.01612390959782
 31
0.0
  0
LINE
  5
AC
330
2F
100
AcDbEntity
  8
Layer1
 62
3
 48
0.05
100
AcDbLine
 10
226.5892387684125
 20
61.02580073191347
 30
0.0
 11
211.8543039339111
 21
61.05562353551068
 31
0.0
  0
LINE
  5
AD
330
2F
100
AcDbEntity
  8
Layer1
 62
3
100
AcDbLine
 10
211.8581847727164
 20
55.82213452523138
 30
0.0
 11
221.7664561880793
 21
55.82213452523138
 31
0.0
  0
LINE
  5
AE
330
2F
100
AcDbEntity
  8
Layer1
 62
3
 48
0.05
100
AcDbLine
 10
221.7664561880793
 20
55.82213452523138
 30
0.0
 11
226.6682460512075
 21
57.50820235565335
 31
0.0
  0
LINE
  5
AF
330
2F
100
AcDbEntity
  8
Layer1
 62
3
 48
0.05
100
AcDbLine
 10
226.6682460512075
 20
59.49852553333767
 30
0.0
 11
211.8543039339111
 21
59.49103034017753
 31
0.0
  0
CIRCLE
  5
B0
330
2F
100
AcDbEntity
  8
Layer1
 62
3
100
AcDbCircle
 10
211.8581847727164
 20
57.65658448521572
 30
0.0
 40
1.83444995998434
  0
LWPOLYLINE
  5
B1
330
2F
100
AcDbEntity
  8
Layer1
 62
3
 48
0.05
100
AcDbPolyline
 90
4
 70
0
 10
252.3832963990226
 20
68.27177679121814
 10
252.4001740505937
 20
75.25580845859805
 42
-0.4135059332901227
 10
254.4001682106355
 20
77.2509752610713
 10
261.0467146493884
 20
77.2509752610713
  0
LINE
  5
B2
330
2F
100
AcDbEntity
  8
Layer1
 62
3
100
AcDbLine
 10
209.7633674889948
 20
107.8716409463159
 30
0.0
 11
209.7633674889948
 21
68.27177679120359
 31
0.0
  0
LINE
  5
B3
330
2F
100
AcDbEntity
  8
Layer1
 62
3
100
AcDbLine
 10
209.7633674889948
 20
68.27177679120359
 30
0.0
 11
252.3832963990226
 21
68.27177679121814
 31
0.0
  0
LINE
  5
B4
330
2F
100
AcDbEntity
  8
Layer1
 62
3
100
AcDbLine
 10
261.0467146493884
 20
79.2509752610713
 30
0.0
 11
262.6812877915818
 21
81.93339775979985
 31
0.0
  0
LINE
  5
B5
330
2F
100
AcDbEntity
  8
Layer1
 62
3
100
AcDbLine
 10
261.0467146493884
 20
77.2509752610713
 30
0.0
 11
262.724655077398
 21
74.10713698170002
 31
0.0
  0
LWPOLYLINE
  5
B6
330
2F
100
AcDbEntity
  8
Layer1
 62
3
 48
0.05
100
AcDbPolyline
 90
6
 70
0
 10
261.0467146493884
 20
79.2509752610713
 10
254.3832963990226
 20
79.2509752610713
 42
-0.4142135623730951
 10
252.3832963990226
 20
81.2509752610713
 10
252.3832963990226
 20
105.8716409463013
 42
0.4142135623730132
 10
250.3832963990244
 20
107.8716409463013
 10
209.7633674889948
 20
107.8716409463159
  0
TEXT
  5
B7
330
2F
100
AcDbEntity
  8
TEXT
  6
Continuous
100
AcDbText
 10
223.6136454163643
 20
37.5955344544127
 30
0.0
 40
5.0
  1
POWER FACTOR CONTROLLER
  7
ROMANS
 41
0.8
100
AcDbText
  0
LWPOLYLINE
  5
B8
330
2F
100
AcDbEntity
  8
Layer1
 62
3
 48
0.05
100
AcDbPolyline
 90
2
 70
0
 10
226.5892387684125
 20
63.01612390959782
 10
260.3284086211624
 20
63.01612390959782
  0
LWPOLYLINE
  5
B9
330
2F
100
AcDbEntity
  8
Layer1
 62
3
 48
0.05
100
AcDbPolyline
 90
2
 70
0
 10
226.6682460512075
 20
59.47619792290061
 10
260.3284086211624
 20
59.49852553333767
  0
LWPOLYLINE
  5
BA
330
2F
100
AcDbEntity
  8
KICHTHUOC
100
AcDbPolyline
 90
4
 70
1
 10
197.9878776886162
 20
20.47551230079262
 10
333.9878776886144
 20
20.47551230079262
 10
333.9878776886144
 20
156.4755123007926
 10
197.9878776886162
 20
156.4755123007926
  0
ENDBLK
  5
31
330
2F
100
AcDbEntity
  8
0
100
AcDbBlockEnd
  0
ENDSEC
  0
SECTION
  2
ENTITIES
  0
INSERT
  5
C1
330
17
100
AcDbEntity
  8
0
100
AcDbBlockReference
  2
APFC(12STEP-DELAB)
 10
-193.9878776886162
 20
-16.40596340275078
 30
0.0
  0
ENDSEC
  0
SECTION
  2
OBJECTS
  0
DICTIONARY
  5
A
330
0
100
AcDbDictionary
281
1
  3
ACAD_COLOR
350
B
  3
ACAD_GROUP
350
C
  3
ACAD_LAYOUT
350
D
  3
ACAD_MATERIAL
350
E
  3
ACAD_MLEADERSTYLE
350
F
  3
ACAD_MLINESTYLE
350
10
  3
ACAD_PLOTSETTINGS
350
11
  3
ACAD_PLOTSTYLENAME
350
12
  3
ACAD_SCALELIST
350
14
  3
ACAD_TABLESTYLE
350
15
  3
ACAD_VISUALSTYLE
350
16
  3
EZDXF_META
350
2D
  0
DICTIONARY
  5
B
330
A
100
AcDbDictionary
281
1
  0
DICTIONARY
  5
C
330
A
100
AcDbDictionary
281
1
  0
DICTIONARY
  5
D
330
A
100
AcDbDictionary
281
1
  3
Model
350
1A
  3
Layout1
350
1E
  0
DICTIONARY
  5
E
330
A
100
AcDbDictionary
281
1
  3
ByBlock
350
1F
  3
ByLayer
350
20
  3
Global
350
21
  0
DICTIONARY
  5
F
330
A
100
AcDbDictionary
281
1
  3
Standard
350
2C
  0
DICTIONARY
  5
10
330
A
100
AcDbDictionary
281
1
  3
Standard
350
22
  0
DICTIONARY
  5
11
330
A
100
AcDbDictionary
281
1
  0
ACDBDICTIONARYWDFLT
  5
12
330
A
100
AcDbDictionary
281
1
  3
Normal
350
13
100
AcDbDictionaryWithDefault
340
13
  0
ACDBPLACEHOLDER
  5
13
330
12
  0
DICTIONARY
  5
14
330
A
100
AcDbDictionary
281
1
  0
DICTIONARY
  5
15
330
A
100
AcDbDictionary
281
1
  0
DICTIONARY
  5
16
330
A
100
AcDbDictionary
281
1
  0
LAYOUT
  5
1A
330
D
100
AcDbPlotSettings
  1

  4
A3
  6

 40
7.5
 41
20.0
 42
7.5
 43
20.0
 44
420.0
 45
297.0
 46
0.0
 47
0.0
 48
0.0
 49
0.0
140
0.0
141
0.0
142
1.0
143
1.0
 70
1024
 72
1
 73
0
 74
5
  7

 75
16
 76
0
 77
2
 78
300
147
1.0
148
0.0
149
0.0
100
AcDbLayout
  1
Model
 70
1
 71
0
 10
0.0
 20
0.0
 11
420.0
 21
297.0
 12
0.0
 22
0.0
 32
0.0
 14
1e+20
 24
1e+20
 34
1e+20
 15
-1e+20
 25
-1e+20
 35
-1e+20
146
0.0
 13
0.0
 23
0.0
 33
0.0
 16
1.0
 26
0.0
 36
0.0
 17
0.0
 27
1.0
 37
0.0
 76
1
330
17
  0
LAYOUT
  5
1E
330
D
100
AcDbPlotSettings
  1

  4
A3
  6

 40
7.5
 41
20.0
 42
7.5
 43
20.0
 44
420.0
 45
297.0
 46
0.0
 47
0.0
 48
0.0
 49
0.0
140
0.0
141
0.0
142
1.0
143
1.0
 70
0
 72
1
 73
0
 74
5
  7

 75
16
 76
0
 77
2
 78
300
147
1.0
148
0.0
149
0.0
100
AcDbLayout
  1
Layout1
 70
1
 71
1
 10
0.0
 20
0.0
 11
420.0
 21
297.0
 12
0.0
 22
0.0
 32
0.0
 14
1e+20
 24
1e+20
 34
1e+20
 15
-1e+20
 25
-1e+20
 35
-1e+20
146
0.0
 13
0.0
 23
0.0
 33
0.0
 16
1.0
 26
0.0
 36
0.0
 17
0.0
 27
1.0
 37
0.0
 76
1
330
1B
  0
MATERIAL
  5
1F
102
{ACAD_REACTORS
330
E
102
}
330
E
100
AcDbMaterial
  1
ByBlock
  2

 70
0
 40
1.0
 71
1
 41
1.0
 91
-1023410177
 42
1.0
 72
1
  3

 73
1
 74
1
 75
1
 44
0.5
 73
0
 45
1.0
 46
1.0
 77
1
  4

 78
1
 79
1
170
1
 48
1.0
171
1
  6

172
1
173
1
174
1
140
1.0
141
1.0
175
1
  7

176
1
177
1
178
1
143
1.0
179
1
  8

270
1
271
1
272
1
145
1.0
146
1.0
273
1
  9

274
1
275
1
276
1
 42
1.0
 72
1
  3

 73
1
 74
1
 75
1
 94
63
  0
MATERIAL
  5
20
102
{ACAD_REACTORS
330
E
102
}
330
E
100
AcDbMaterial
  1
ByLayer
  2

 70
0
 40
1.0
 71
1
 41
1.0
 91
-1023410177
 42
1.0
 72
1
  3

 73
1
 74
1
 75
1
 44
0.5
 73
0
 45
1.0
 46
1.0
 77
1
  4

 78
1
 79
1
170
1
 48
1.0
171
1
  6

172
1
173
1
174
1
140
1.0
141
1.0
175
1
  7

176
1
177
1
178
1
143
1.0
179
1
  8

270
1
271
1
272
1
145
1.0
146
1.0
273
1
  9

274
1
275
1
276
1
 42
1.0
 72
1
  3

 73
1
 74
1
 75
1
 94
63
  0
MATERIAL
  5
21
102
{ACAD_REACTORS
330
E
102
}
330
E
100
AcDbMaterial
  1
Global
  2

 70
0
 40
1.0
 71
1
 41
1.0
 91
-1023410177
 42
1.0
 72
1
  3

 73
1
 74
1
 75
1
 44
0.5
 73
0
 45
1.0
 46
1.0
 77
1
  4

 78
1
 79
1
170
1
 48
1.0
171
1
  6

172
1
173
1
174
1
140
1.0
141
1.0
175
1
  7

176
1
177
1
178
1
143
1.0
179
1
  8

270
1
271
1
272
1
145
1.0
146
1.0
273
1
  9

274
1
275
1
276
1
 42
1.0
 72
1
  3

 73
1
 74
1
 75
1
 94
63
  0
MLINESTYLE
  5
22
102
{ACAD_REACTORS
330
10
102
}
330
10
100
AcDbMlineStyle
  2
Standard
 70
0
  3

 62
256
 51
90.0
 52
90.0
 71
2
 49
0.5
 62
256
  6
BYLAYER
 49
-0.5
 62
256
  6
BYLAYER
  0
MLEADERSTYLE
  5
2C
102
{ACAD_REACTORS
330
F
102
}
330
F
100
AcDbMLeaderStyle
179
2
170
2
171
1
172
0
 90
2
 40
0.0
 41
0.0
173
1
 91
-1056964608
 92
-2
290
1
 42
2.0
291
1
 43
8.0
  3
Standard
 44
4.0
300

342
29
174
1
175
1
176
0
178
1
 93
-1056964608
 45
4.0
292
0
297
0
 46
4.0
 94
-1056964608
 47
1.0
 49
1.0
140
1.0
294
1
141
0.0
177
0
142
1.0
295
0
296
0
143
3.75
271
0
272
9
273
9
  0
DICTIONARY
  5
2D
330
A
100
AcDbDictionary
280
1
281
1
  3
CREATED_BY_EZDXF
350
2E
  3
WRITTEN_BY_EZDXF
350
C5
  0
DICTIONARYVAR
  5
2E
330
2D
100
DictionaryVariables
280
0
  1
1.4.4 @ 2026-09-23T12:53:23.464595+00:00
  0
DICTIONARYVAR
  5
C5
330
2D
100
DictionaryVariables
280
0
  1
1.4.4 @ 2026-09-23T12:53:23.533571+00:00
  0
ENDSEC
  0
EOF
