  0
SECTION
  2
HEADER
  9
$ACADVER
  1
AC1032
  9
$ACADMAINTVER
 90
4
  9
$DWGCODEPAGE
  3
ANSI_1252
  9
$LASTSAVEDBY
  1
ezdxf
  9
$REQUIREDVERSIONS
160
0
  9
$INSBASE
 10
0.0
 20
0.0
 30
0.0
  9
$EXTMIN
 10
1e+20
 20
1e+20
 30
1e+20
  9
$EXTMAX
 10
-1e+20
 20
-1e+20
 30
-1e+20
  9
$LIMMIN
 10
0.0
 20
0.0
  9
$LIMMAX
 10
420.0
 20
297.0
  9
$ORTHOMODE
 70
0
  9
$REGENMODE
 70
1
  9
$FILLMODE
 70
1
  9
$QTEXTMODE
 70
0
  9
$MIRRTEXT
 70
1
  9
$LTSCALE
 40
1.0
  9
$ATTMODE
 70
1
  9
$TEXTSIZE
 40
2.5
  9
$TRACEWID
 40
1.0
  9
$TEXTSTYLE
  7
Standard
  9
$CLAYER
  8
0
  9
$CELTYPE
  6
ByLayer
  9
$CECOLOR
 62
256
  9
$CELTSCALE
 40
1.0
  9
$DISPSILH
 70
0
  9
$DIMSCALE
 40
1.0
  9
$DIMASZ
 40
2.5
  9
$DIMEXO
 40
0.625
  9
$DIMDLI
 40
3.75
  9
$DIMRND
 40
0.0
  9
$DIMDLE
 40
0.0
  9
$DIMEXE
 40
1.25
  9
$DIMTP
 40
0.0
  9
$DIMTM
 40
0.0
  9
$DIMTXT
 40
2.5
  9
$DIMCEN
 40
2.5
  9
$DIMTSZ
 40
0.0
  9
$DIMTOL
 70
0
  9
$DIMLIM
 70
0
  9
$DIMTIH
 70
0
  9
$DIMTOH
 70
0
  9
$DIMSE1
 70
0
  9
$DIMSE2
 70
0
  9
$DIMTAD
 70
1
  9
$DIMZIN
 70
8
  9
$DIMBLK
  1

  9
$DIMASO
 70
1
  9
$DIMSHO
 70
1
  9
$DIMPOST
  1

  9
$DIMAPOST
  1

  9
$DIMALT
 70
0
  9
$DIMALTD
 70
3
  9
$DIMALTF
 40
0.03937007874
  9
$DIMLFAC
 40
1.0
  9
$DIMTOFL
 70
1
  9
$DIMTVP
 40
0.0
  9
$DIMTIX
 70
0
  9
$DIMSOXD
 70
0
  9
$DIMSAH
 70
0
  9
$DIMBLK1
  1

  9
$DIMBLK2
  1

  9
$DIMSTYLE
  2
ISO-25
  9
$DIMCLRD
 70
0
  9
$DIMCLRE
 70
0
  9
$DIMCLRT
 70
0
  9
$DIMTFAC
 40
1.0
  9
$DIMGAP
 40
0.625
  9
$DIMJUST
 70
0
  9
$DIMSD1
 70
0
  9
$DIMSD2
 70
0
  9
$DIMTOLJ
 70
0
  9
$DIMTZIN
 70
8
  9
$DIMALTZ
 70
0
  9
$DIMALTTZ
 70
0
  9
$DIMUPT
 70
0
  9
$DIMDEC
 70
2
  9
$DIMTDEC
 70
2
  9
$DIMALTU
 70
2
  9
$DIMALTTD
 70
3
  9
$DIMTXSTY
  7
Standard
  9
$DIMAUNIT
 70
0
  9
$DIMADEC
 70
0
  9
$DIMALTRND
 40
0.0
  9
$DIMAZIN
 70
0
  9
$DIMDSEP
 70
44
  9
$DIMATFIT
 70
3
  9
$DIMFRAC
 70
0
  9
$DIMLDRBLK
  1

  9
$DIMLUNIT
 70
2
  9
$DIMLWD
 70
-2
  9
$DIMLWE
 70
-2
  9
$DIMTMOVE
 70
0
  9
$DIMFXL
 40
1.0
  9
$DIMFXLON
 70
0
  9
$DIMJOGANG
 40
0.785398163397
  9
$DIMTFILL
 70
0
  9
$DIMTFILLCLR
 70
0
  9
$DIMARCSYM
 70
0
  9
$DIMLTYPE
  6

  9
$DIMLTEX1
  6

  9
$DIMLTEX2
  6

  9
$DIMTXTDIRECTION
 70
0
  9
$LUNITS
 70
2
  9
$LUPREC
 70
4
  9
$SKETCHINC
 40
1.0
  9
$FILLETRAD
 40
10.0
  9
$AUNITS
 70
0
  9
$AUPREC
 70
2
  9
$MENU
  1
.
  9
$ELEVATION
 40
0.0
  9
$PELEVATION
 40
0.0
  9
$THICKNESS
 40
0.0
  9
$LIMCHECK
 70
0
  9
$CHAMFERA
 40
0.0
  9
$CHAMFERB
 40
0.0
  9
$CHAMFERC
 40
0.0
  9
$CHAMFERD
 40
0.0
  9
$SKPOLY
 70
0
  9
$TDCREATE
 40
2461307.828900463
  9
$TDUCREATE
 40
2458532.153996898
  9
$TDUPDATE
 40
2461307.828900463
  9
$TDUUPDATE
 40
2458532.1544311
  9
$TDINDWG
 40
0.0
  9
$TDUSRTIMER
 40
0.0
  9
$USRTIMER
 70
1
  9
$ANGBASE
 50
0.0
  9
$ANGDIR
 70
0
  9
$PDMODE
 70
0
  9
$PDSIZE
 40
0.0
  9
$PLINEWID
 40
0.0
  9
$SPLFRAME
 70
0
  9
$SPLINETYPE
 70
6
  9
$SPLINESEGS
 70
8
  9
$HANDSEED
  5
16E
  9
$SURFTAB1
 70
6
  9
$SURFTAB2
 70
6
  9
$SURFTYPE
 70
6
  9
$SURFU
 70
6
  9
$SURFV
 70
6
  9
$UCSBASE
  2

  9
$UCSNAME
  2

  9
$UCSORG
 10
0.0
 20
0.0
 30
0.0
  9
$UCSXDIR
 10
1.0
 20
0.0
 30
0.0
  9
$UCSYDIR
 10
0.0
 20
1.0
 30
0.0
  9
$UCSORTHOREF
  2

  9
$UCSORTHOVIEW
 70
0
  9
$UCSORGTOP
 10
0.0
 20
0.0
 30
0.0
  9
$UCSORGBOTTOM
 10
0.0
 20
0.0
 30
0.0
  9
$UCSORGLEFT
 10
0.0
 20
0.0
 30
0.0
  9
$UCSORGRIGHT
 10
0.0
 20
0.0
 30
0.0
  9
$UCSORGFRONT
 10
0.0
 20
0.0
 30
0.0
  9
$UCSORGBACK
 10
0.0
 20
0.0
 30
0.0
  9
$PUCSBASE
  2

  9
$PUCSNAME
  2

  9
$PUCSORG
 10
0.0
 20
0.0
 30
0.0
  9
$PUCSXDIR
 10
1.0
 20
0.0
 30
0.0
  9
$PUCSYDIR
 10
0.0
 20
1.0
 30
0.0
  9
$PUCSORTHOREF
  2

  9
$PUCSORTHOVIEW
 70
0
  9
$PUCSORGTOP
 10
0.0
 20
0.0
 30
0.0
  9
$PUCSORGBOTTOM
 10
0.0
 20
0.0
 30
0.0
  9
$PUCSORGLEFT
 10
0.0
 20
0.0
 30
0.0
  9
$PUCSORGRIGHT
 10
0.0
 20
0.0
 30
0.0
  9
$PUCSORGFRONT
 10
0.0
 20
0.0
 30
0.0
  9
$PUCSORGBACK
 10
0.0
 20
0.0
 30
0.0
  9
$USERI1
 70
0
  9
$USERI2
 70
0
  9
$USERI3
 70
0
  9
$USERI4
 70
0
  9
$USERI5
 70
0
  9
$USERR1
 40
0.0
  9
$USERR2
 40
0.0
  9
$USERR3
 40
0.0
  9
$USERR4
 40
0.0
  9
$USERR5
 40
0.0
  9
$WORLDVIEW
 70
1
  9
$SHADEDGE
 70
3
  9
$SHADEDIF
 70
70
  9
$TILEMODE
 70
1
  9
$MAXACTVP
 70
64
  9
$PINSBASE
 10
0.0
 20
0.0
 30
0.0
  9
$PLIMCHECK
 70
0
  9
$PEXTMIN
 10
1e+20
 20
1e+20
 30
1e+20
  9
$PEXTMAX
 10
-1e+20
 20
-1e+20
 30
-1e+20
  9
$PLIMMIN
 10
0.0
 20
0.0
  9
$PLIMMAX
 10
420.0
 20
297.0
  9
$UNITMODE
 70
0
  9
$VISRETAIN
 70
1
  9
$PLINEGEN
 70
0
  9
$PSLTSCALE
 70
1
  9
$TREEDEPTH
 70
3020
  9
$CMLSTYLE
  2
Standard
  9
$CMLJUST
 70
0
  9
$CMLSCALE
 40
20.0
  9
$PROXYGRAPHICS
 70
1
  9
$MEASUREMENT
 70
1
  9
$CELWEIGHT
370
-1
  9
$ENDCAPS
280
0
  9
$JOINSTYLE
280
0
  9
$LWDISPLAY
290
0
  9
$INSUNITS
 70
4
  9
$HYPERLINKBASE
  1

  9
$STYLESHEET
  1

  9
$XEDIT
290
1
  9
$CEPSNTYPE
380
0
  9
$PSTYLEMODE
290
1
  9
$FINGERPRINTGUID
  2
{260AEECC-DC52-430C-A339-B02576B4F296}
  9
$VERSIONGUID
  2
{2FFF3305-A13F-4B4F-98F4-95A8FA8CC9A7}
  9
$EXTNAMES
290
1
  9
$PSVPSCALE
 40
0.0
  9
$OLESTARTUP
290
0
  9
$SORTENTS
280
127
  9
$INDEXCTL
280
0
  9
$HIDETEXT
280
1
  9
$XCLIPFRAME
280
1
  9
$HALOGAP
280
0
  9
$OBSCOLOR
 70
257
  9
$OBSLTYPE
280
0
  9
$INTERSECTIONDISPLAY
280
0
  9
$INTERSECTIONCOLOR
 70
257
  9
$DIMASSOC
280
2
  9
$PROJECTNAME
  1

  9
$CAMERADISPLAY
290
0
  9
$LENSLENGTH
 40
50.0
  9
$CAMERAHEIGHT
 40
0.0
  9
$STEPSPERSEC
 40
24.0
  9
$STEPSIZE
 40
100.0
  9
$3DDWFPREC
 40
2.0
  9
$PSOLWIDTH
 40
0.005
  9
$PSOLHEIGHT
 40
0.08
  9
$LOFTANG1
 40
1.570796326795
  9
$LOFTANG2
 40
1.570796326795
  9
$LOFTMAG1
 40
0.0
  9
$LOFTMAG2
 40
0.0
  9
$LOFTPARAM
 70
7
  9
$LOFTNORMALS
280
1
  9
$LATITUDE
 40
37.795
  9
$LONGITUDE
 40
-122.394
  9
$NORTHDIRECTION
 40
0.0
  9
$TIMEZONE
 70
-8000
  9
$LIGHTGLYPHDISPLAY
280
1
  9
$TILEMODELIGHTSYNCH
280
1
  9
$CMATERIAL
347
20
  9
$SOLIDHIST
280
0
  9
$SHOWHIST
280
1
  9
$DWFFRAME
280
2
  9
$DGNFRAME
280
2
  9
$REALWORLDSCALE
290
1
  9
$INTERFERECOLOR
 62
256
  9
$CSHADOW
280
0
  9
$SHADOWPLANELOCATION
 40
0.0
  0
ENDSEC
  0
SECTION
  2
CLASSES
  0
CLASS
  1
ACDBDICTIONARYWDFLT
  2
AcDbDictionaryWithDefault
  3
ObjectDBX Classes
 90
0
 91
0
280
0
281
0
  0
CLASS
  1
SUN
  2
AcDbSun
  3
SCENEOE
 90
1153
 91
0
280
0
281
0
  0
CLASS
  1
VISUALSTYLE
  2
AcDbVisualStyle
  3
ObjectDBX Classes
 90
4095
 91
0
280
0
281
0
  0
CLASS
  1
MATERIAL
  2
AcDbMaterial
  3
ObjectDBX Classes
 90
1153
 91
0
280
0
281
0
  0
CLASS
  1
SCALE
  2
AcDbScale
  3
ObjectDBX Classes
 90
1153
 91
0
280
0
281
0
  0
CLASS
  1
TABLESTYLE
  2
AcDbTableStyle
  3
ObjectDBX Classes
 90
4095
 91
0
280
0
281
0
  0
CLASS
  1
MLEADERSTYLE
  2
AcDbMLeaderStyle
  3
ACDB_MLEADERSTYLE_CLASS
 90
4095
 91
0
280
0
281
0
  0
CLASS
  1
DICTIONARYVAR
  2
AcDbDictionaryVar
  3
ObjectDBX Classes
 90
0
 91
0
280
0
281
0
  0
CLASS
  1
CELLSTYLEMAP
  2
AcDbCellStyleMap
  3
ObjectDBX Classes
 90
1152
 91
0
280
0
281
0
  0
CLASS
  1
MENTALRAYRENDERSETTINGS
  2
AcDbMentalRayRenderSettings
  3
SCENEOE
 90
1024
 91
0
280
0
281
0
  0
CLASS
  1
ACDBDETAILVIEWSTYLE
  2
AcDbDetailViewStyle
  3
ObjectDBX Classes
 90
1025
 91
0
280
0
281
0
  0
CLASS
  1
ACDBSECTIONVIEWSTYLE
  2
AcDbSectionViewStyle
  3
ObjectDBX Classes
 90
1025
 91
0
280
0
281
0
  0
CLASS
  1
RASTERVARIABLES
  2
AcDbRasterVariables
  3
ISM
 90
0
 91
0
280
0
281
0
  0
CLASS
  1
ACDBPLACEHOLDER
  2
AcDbPlaceHolder
  3
ObjectDBX Classes
 90
0
 91
0
280
0
281
0
  0
CLASS
  1
LAYOUT
  2
AcDbLayout
  3
ObjectDBX Classes
 90
0
 91
0
280
0
281
0
  0
ENDSEC
  0
SECTION
  2
TABLES
  0
TABLE
  2
VPORT
  5
8
330
0
100
AcDbSymbolTable
 70
1
  0
VPORT
  5
23
330
8
100
AcDbSymbolTableRecord
100
AcDbViewportTableRecord
  2
*Active
 70
0
 10
0.0
 20
0.0
 11
1.0
 21
1.0
 12
0.0
 22
0.0
 13
0.0
 23
0.0
 14
0.5
 24
0.5
 15
0.5
 25
0.5
 16
0.0
 26
0.0
 36
1.0
 17
0.0
 27
0.0
 37
0.0
 40
1000.0
 41
1.34
 42
50.0
 43
0.0
 44
0.0
 50
0.0
 51
0.0
 71
0
 72
1000
 73
1
 74
3
 75
0
 76
0
 77
0
 78
0
281
0
 65
0
146
0.0
  0
ENDTAB
  0
TABLE
  2
LTYPE
  5
2
330
0
100
AcDbSymbolTable
 70
4
  0
LTYPE
  5
24
330
2
100
AcDbSymbolTableRecord
100
AcDbLinetypeTableRecord
  2
ByBlock
 70
0
  3

 72
65
 73
0
 40
0.0
  0
LTYPE
  5
25
330
2
100
AcDbSymbolTableRecord
100
AcDbLinetypeTableRecord
  2
ByLayer
 70
0
  3

 72
65
 73
0
 40
0.0
  0
LTYPE
  5
26
330
2
100
AcDbSymbolTableRecord
100
AcDbLinetypeTableRecord
  2
Continuous
 70
0
  3

 72
65
 73
0
 40
0.0
  0
LTYPE
  5
168
330
2
100
AcDbSymbolTableRecord
100
AcDbLinetypeTableRecord
  2
AI9-LTYPE3
 70
0
  3
Illustrator Dash Style No.3
 72
65
 73
2
 40
1.41111111111111
 49
0.7055555555555558
 74
0
 49
-0.7055555555555558
 74
0
  0
ENDTAB
  0
TABLE
  2
LAYER
  5
1
330
0
100
AcDbSymbolTable
 70
3
  0
LAYER
  5
27
330
1
100
AcDbSymbolTableRecord
100
AcDbLayerTableRecord
  2
0
 70
0
 62
7
  6
Continuous
370
-3
390
13
347
21
  0
LAYER
  5
28
330
1
100
AcDbSymbolTableRecord
100
AcDbLayerTableRecord
  2
Defpoints
 70
0
 62
7
  6
Continuous
290
0
370
-3
390
13
347
21
  0
LAYER
  5
167
330
1
100
AcDbSymbolTableRecord
100
AcDbLayerTableRecord
  2
PV
 70
0
 62
7
  6
Continuous
370
-3
390
F
347
EE
  0
ENDTAB
  0
TABLE
  2
STYLE
  5
5
330
0
100
AcDbSymbolTable
 70
1
  0
STYLE
  5
29
330
5
100
AcDbSymbolTableRecord
100
AcDbTextStyleTableRecord
  2
Standard
 70
0
 40
0.0
 41
1.0
 50
0.0
 71
0
 42
2.5
  3
txt
  4

  0
ENDTAB
  0
TABLE
  2
VIEW
  5
7
330
0
100
AcDbSymbolTable
 70
0
  0
ENDTAB
  0
TABLE
  2
UCS
  5
6
330
0
100
AcDbSymbolTable
 70
0
  0
ENDTAB
  0
TABLE
  2
APPID
  5
3
330
0
100
AcDbSymbolTable
 70
3
  0
APPID
  5
2A
330
3
100
AcDbSymbolTableRecord
100
AcDbRegAppTableRecord
  2
ACAD
 70
0
  0
APPID
  5
16B
330
3
100
AcDbSymbolTableRecord
100
AcDbRegAppTableRecord
  2
HATCHBACKGROUNDCOLOR
 70
0
  0
APPID
  5
16C
330
3
100
AcDbSymbolTableRecord
100
AcDbRegAppTableRecord
  2
EZDXF
 70
0
  0
ENDTAB
  0
TABLE
  2
DIMSTYLE
  5
4
330
0
100
AcDbSymbolTable
 70
1
100
AcDbDimStyleTable
  0
DIMSTYLE
105
2B
330
4
100
AcDbSymbolTableRecord
100
AcDbDimStyleTableRecord
  2
Standard
 70
0
 40
1.0
 41
2.5
 42
0.625
 43
3.75
 44
1.25
 45
0.0
 46
0.0
 47
0.0
 48
0.0
 49
2.5
140
2.5
141
2.5
142
0.0
143
0.03937007874
144
1.0
145
0.0
146
1.0
147
0.625
148
0.0
 69
0
 70
0
 71
0
 72
0
 73
0
 74
0
 75
0
 76
0
 77
1
 78
8
 79
3
170
0
171
3
172
1
173
0
174
0
175
0
176
0
177
0
178
0
179
2
271
2
272
2
273
2
274
3
275
0
276
0
277
2
278
44
279
0
280
0
281
0
282
0
283
0
284
8
285
0
286
0
288
0
289
3
290
0
371
-2
372
-2
  0
ENDTAB
  0
TABLE
  2
BLOCK_RECORD
  5
9
330
0
100
AcDbSymbolTable
 70
3
  0
BLOCK_RECORD
  5
17
330
9
100
AcDbSymbolTableRecord
100
AcDbBlockTableRecord
  2
*Model_Space
340
1A
 70
0
280
1
281
0
  0
BLOCK_RECORD
  5
1B
330
9
100
AcDbSymbolTableRecord
100
AcDbBlockTableRecord
  2
*Paper_Space
340
1E
 70
0
280
1
281
0
  0
BLOCK_RECORD
  5
2F
330
9
100
AcDbSymbolTableRecord
100
AcDbBlockTableRecord
  2
PS-2420S
340
0
 70
0
280
1
281
0
  0
ENDTAB
  0
ENDSEC
  0
SECTION
  2
BLOCKS
  0
BLOCK
  5
18
330
17
100
AcDbEntity
  8
0
100
AcDbBlockBegin
  2
*Model_Space
 70
0
 10
0.0
 20
0.0
 30
0.0
  3
*Model_Space
  1

  0
ENDBLK
  5
19
330
17
100
AcDbEntity
  8
0
100
AcDbBlockEnd
  0
BLOCK
  5
1C
330
1B
100
AcDbEntity
  8
0
100
AcDbBlockBegin
  2
*Paper_Space
 70
0
 10
0.0
 20
0.0
 30
0.0
  3
*Paper_Space
  1

  0
ENDBLK
  5
1D
330
1B
100
AcDbEntity
  8
0
100
AcDbBlockEnd
  0
BLOCK
  5
30
330
2F
100
AcDbEntity
  8
0
100
AcDbBlockBegin
  2
PS-2420S
 70
0
 10
0.0
 20
0.0
 30
0.0
  3
PS-2420S
  1

  0
LINE
  5
32
330
2F
100
AcDbEntity
  8
PV
  6
Continuous
 62
2
100
AcDbLine
 10
416959.1527326689
 20
62346.14680882233
 30
0.0
 11
416959.1527326689
 21
61824.56038791331
 31
0.0
  0
LINE
  5
33
330
2F
100
AcDbEntity
  8
PV
  6
Continuous
 62
2
100
AcDbLine
 10
417258.1513179022
 20
62346.14680882233
 30
0.0
 11
417258.1513179022
 21
61824.56038791331
 31
0.0
  0
LINE
  5
34
330
2F
100
AcDbEntity
  8
PV
  6
Continuous
 62
3
100
AcDbLine
 10
416969.0350246239
 20
62336.26451686787
 30
0.0
 11
416969.0350246239
 21
61880.78789400372
 31
0.0
  0
LINE
  5
35
330
2F
100
AcDbEntity
  8
PV
  6
Continuous
 62
3
100
AcDbLine
 10
417025.5968627208
 20
62264.75274950843
 30
0.0
 11
417025.5968627208
 21
61939.17650591693
 31
0.0
  0
LINE
  5
36
330
2F
100
AcDbEntity
  8
PV
  6
Continuous
 62
3
100
AcDbLine
 10
417248.2690512943
 20
62336.26451686787
 30
0.0
 11
417248.2690512943
 21
61834.44266719527
 31
0.0
  0
LINE
  5
37
330
2F
100
AcDbEntity
  8
PV
  6
Continuous
 62
3
100
AcDbLine
 10
417191.7071878514
 20
62264.75274950843
 30
0.0
 11
417191.7071878514
 21
61945.82091892202
 31
0.0
  0
LINE
  5
38
330
2F
100
AcDbEntity
  8
PV
 62
3
100
AcDbLine
 10
416910.7335681872
 20
61645.76538366934
 30
0.0
 11
416915.6887165928
 21
61645.76538366934
 31
0.0
  0
LINE
  5
39
330
2F
100
AcDbEntity
  8
PV
 62
3
100
AcDbLine
 10
416910.7335681872
 20
61564.83129302616
 30
0.0
 11
416915.6887165928
 21
61564.83129302616
 31
0.0
  0
ARC
  5
3A
330
2F
100
AcDbEntity
  8
PV
 62
2
100
AcDbCircle
 10
417268.7997890064
 20
61805.99122501601
 30
0.0
 40
129.5857063949053
100
AcDbArc
 50
180.340188254011
 51
202.7233224638747
  0
ARC
  5
3B
330
2F
100
AcDbEntity
  8
PV
 62
2
100
AcDbCircle
 10
417068.1036956596
 20
61805.99122501601
 30
0.0
 40
129.5857063949083
100
AcDbArc
 50
337.2766775361252
 51
359.6598117459889
  0
LINE
  5
3C
330
2F
100
AcDbEntity
  8
PV
 62
3
100
AcDbLine
 10
417151.9345809765
 20
61798.61496215843
 30
0.0
 11
417151.9345809765
 21
61782.09780080261
 31
0.0
  0
LINE
  5
3D
330
2F
100
AcDbEntity
  8
PV
 62
3
100
AcDbLine
 10
417184.9689036881
 20
61798.61496215843
 30
0.0
 11
417184.9689036881
 21
61782.09780080261
 31
0.0
  0
LINE
  5
3E
330
2F
100
AcDbEntity
  8
PV
  6
AI9-LTYPE3
 62
3
100
AcDbLine
 10
417095.9322398887
 20
61596.00743508542
 30
0.0
 11
417135.9337460841
 21
61596.00743508542
 31
0.0
  0
LINE
  5
3F
330
2F
100
AcDbEntity
  8
PV
  6
AI9-LTYPE3
 62
3
100
AcDbLine
 10
417095.9322398887
 20
61614.58924161054
 30
0.0
 11
417135.9337460841
 21
61614.58924161054
 31
0.0
  0
ARC
  5
40
330
2F
100
AcDbEntity
  8
PV
  6
AI9-LTYPE3
 62
3
100
AcDbCircle
 10
417135.9337460841
 20
61637.81666493898
 30
0.0
 40
41.80889951011693
100
AcDbArc
 50
270.0
 51
0.0
  0
ARC
  5
41
330
2F
100
AcDbEntity
  8
PV
 62
2
100
AcDbCircle
 10
417193.6404134004
 20
61751.54105229459
 30
0.0
 40
7.444184024156627
100
AcDbArc
 50
143.8283212714535
 51
266.8201698826372
  0
ARC
  5
42
330
2F
100
AcDbEntity
  8
PV
 62
2
100
AcDbCircle
 10
417189.7855087999
 20
61735.8497490065
 30
0.0
 40
3.303432271149076
100
AcDbArc
 50
90.0
 51
177.5459683244202
  0
LINE
  5
43
330
2F
100
AcDbEntity
  8
PV
 62
3
100
AcDbLine
 10
417191.575768231
 20
61739.15318127785
 30
0.0
 11
417145.3277164348
 21
61739.15318127785
 31
0.0
  0
LINE
  5
44
330
2F
100
AcDbEntity
  8
PV
 62
3
100
AcDbLine
 10
417193.2274843664
 20
61744.10832968464
 30
0.0
 11
417143.6760002984
 21
61744.10832968464
 31
0.0
  0
ARC
  5
45
330
2F
100
AcDbEntity
  8
PV
 62
2
100
AcDbCircle
 10
417191.575768231
 20
61740.8048974133
 30
0.0
 40
1.651716135574537
100
AcDbArc
 50
270.0
 51
0.0
  0
LINE
  5
46
330
2F
100
AcDbEntity
  8
PV
 62
2
100
AcDbLine
 10
417193.2274843664
 20
61744.10832968464
 30
0.0
 11
417193.2274843664
 21
61740.8048974133
 31
0.0
  0
LINE
  5
47
330
2F
100
AcDbEntity
  8
PV
 62
2
100
AcDbLine
 10
417186.4851061193
 20
61735.99119483602
 30
0.0
 11
417184.2108024725
 21
61682.92410975387
 31
0.0
  0
LINE
  5
48
330
2F
100
AcDbEntity
  8
PV
 62
2
100
AcDbLine
 10
417150.4183785463
 20
61735.99119483602
 30
0.0
 11
417152.6926821932
 21
61682.92410975387
 31
0.0
  0
LINE
  5
49
330
2F
100
AcDbEntity
  8
PV
 62
3
100
AcDbLine
 10
417157.7155874516
 20
61692.90512948173
 30
0.0
 11
417157.7155874516
 21
61687.94998107495
 31
0.0
  0
ARC
  5
4A
330
2F
100
AcDbEntity
  8
PV
 62
3
100
AcDbCircle
 10
417165.9741681287
 20
61690.42755527812
 30
0.0
 40
2.477574203361806
100
AcDbArc
 50
0.0
 51
90.0
  0
ARC
  5
4B
330
2F
100
AcDbEntity
  8
PV
  6
AI9-LTYPE3
 62
3
100
AcDbCircle
 10
417135.9337460841
 20
61637.81666493898
 30
0.0
 40
23.22725815651694
100
AcDbArc
 50
270.0
 51
0.0
  0
ARC
  5
4C
330
2F
100
AcDbEntity
  8
PV
 62
2
100
AcDbCircle
 10
417154.3428835324
 20
61682.99483266816
 30
0.0
 40
1.651716135574537
100
AcDbArc
 50
182.4540316755798
 51
270.0
  0
LINE
  5
4D
330
2F
100
AcDbEntity
  8
PV
 62
2
100
AcDbLine
 10
417182.5606011323
 20
61681.34311653273
 30
0.0
 11
417154.3428835324
 21
61681.34311653273
 31
0.0
  0
ARC
  5
4E
330
2F
100
AcDbEntity
  8
PV
 62
2
100
AcDbCircle
 10
417182.5606011323
 20
61682.99483266816
 30
0.0
 40
1.651716135574537
100
AcDbArc
 50
270.0
 51
357.5459683244202
  0
LINE
  5
4F
330
2F
100
AcDbEntity
  8
PV
 62
3
100
AcDbLine
 10
417168.4517423329
 20
61690.42755527812
 30
0.0
 11
417168.4517423329
 21
61690.42755527812
 31
0.0
  0
ARC
  5
50
330
2F
100
AcDbEntity
  8
PV
 62
3
100
AcDbCircle
 10
417165.9741681287
 20
61690.42755527812
 30
0.0
 40
2.477574203361806
100
AcDbArc
 50
270.0
 51
0.0
  0
LINE
  5
51
330
2F
100
AcDbEntity
  8
PV
 62
3
100
AcDbLine
 10
417165.9741681287
 20
61687.94998107495
 30
0.0
 11
417152.4772877075
 21
61687.94998107495
 31
0.0
  0
LINE
  5
52
330
2F
100
AcDbEntity
  8
PV
  6
AI9-LTYPE3
 62
3
100
AcDbLine
 10
417159.1608390701
 20
61660.88023802608
 30
0.0
 11
417159.1608390701
 21
61637.81666493898
 31
0.0
  0
LINE
  5
53
330
2F
100
AcDbEntity
  8
PV
  6
AI9-LTYPE3
 62
3
100
AcDbLine
 10
417177.7426455948
 20
61660.88023802608
 30
0.0
 11
417177.7426455948
 21
61637.81666493898
 31
0.0
  0
LINE
  5
54
330
2F
100
AcDbEntity
  8
PV
  6
Continuous
 62
3
100
AcDbLine
 10
417177.7426455948
 20
61681.34311653273
 30
0.0
 11
417177.7426455948
 21
61660.88023802608
 31
0.0
  0
LINE
  5
55
330
2F
100
AcDbEntity
  8
PV
  6
Continuous
 62
3
100
AcDbLine
 10
417159.1608390701
 20
61681.34311653273
 30
0.0
 11
417159.1608390701
 21
61660.88023802608
 31
0.0
  0
LINE
  5
56
330
2F
100
AcDbEntity
  8
PV
  6
Continuous
 62
3
100
AcDbLine
 10
417168.4517423329
 20
61681.34311653273
 30
0.0
 11
417168.4517423329
 21
61660.61992756294
 31
0.0
  0
ARC
  5
57
330
2F
100
AcDbEntity
  8
PV
 62
2
100
AcDbCircle
 10
417143.2630712646
 20
61751.54105229459
 30
0.0
 40
7.444184024156627
100
AcDbArc
 50
273.1798301173626
 51
36.1716787285464
  0
ARC
  5
58
330
2F
100
AcDbEntity
  8
PV
 62
2
100
AcDbCircle
 10
417145.3277164348
 20
61740.8048974133
 30
0.0
 40
1.651716135574537
100
AcDbArc
 50
180.0
 51
270.0
  0
ARC
  5
59
330
2F
100
AcDbEntity
  8
PV
 62
2
100
AcDbCircle
 10
417147.1179758659
 20
61735.8497490065
 30
0.0
 40
3.303432271149076
100
AcDbArc
 50
2.454031675579781
 51
90.0
  0
LINE
  5
5A
330
2F
100
AcDbEntity
  8
PV
 62
2
100
AcDbLine
 10
417143.6760002984
 20
61744.10832968464
 30
0.0
 11
417143.6760002984
 21
61740.8048974133
 31
0.0
  0
LINE
  5
5B
330
2F
100
AcDbEntity
  8
PV
 62
3
100
AcDbLine
 10
417157.7155874516
 20
61732.54631673563
 30
0.0
 11
417157.7155874516
 21
61727.59116832883
 31
0.0
  0
ARC
  5
5C
330
2F
100
AcDbEntity
  8
PV
 62
3
100
AcDbCircle
 10
417165.9741681287
 20
61730.06874253199
 30
0.0
 40
2.477574203361806
100
AcDbArc
 50
270.0
 51
0.0
  0
ARC
  5
5D
330
2F
100
AcDbEntity
  8
PV
 62
3
100
AcDbCircle
 10
417165.9741681287
 20
61730.06874253199
 30
0.0
 40
2.477574203361806
100
AcDbArc
 50
0.0
 51
90.0
  0
LINE
  5
5E
330
2F
100
AcDbEntity
  8
PV
 62
3
100
AcDbLine
 10
417168.4517423329
 20
61730.06874253199
 30
0.0
 11
417168.4517423329
 21
61730.06874253199
 31
0.0
  0
LINE
  5
5F
330
2F
100
AcDbEntity
  8
PV
 62
3
100
AcDbLine
 10
417165.9741681287
 20
61727.59116832883
 30
0.0
 11
417150.7783796821
 21
61727.59116832883
 31
0.0
  0
LINE
  5
60
330
2F
100
AcDbEntity
  8
PV
 62
3
100
AcDbLine
 10
417165.9741681287
 20
61732.54631673563
 30
0.0
 11
417150.566016179
 21
61732.54631673563
 31
0.0
  0
LINE
  5
61
330
2F
100
AcDbEntity
  8
PV
 62
3
100
AcDbLine
 10
417157.7155874516
 20
61712.72572310892
 30
0.0
 11
417157.7155874516
 21
61707.77057470213
 31
0.0
  0
LINE
  5
62
330
2F
100
AcDbEntity
  8
PV
 62
3
100
AcDbLine
 10
417179.1878972133
 20
61702.81542629532
 30
0.0
 11
417179.1878972133
 21
61697.86027788853
 31
0.0
  0
LINE
  5
63
330
2F
100
AcDbEntity
  8
PV
 62
3
100
AcDbLine
 10
417179.1878972133
 20
61722.63601992202
 30
0.0
 11
417179.1878972133
 21
61717.68087151524
 31
0.0
  0
LINE
  5
64
330
2F
100
AcDbEntity
  8
PV
 62
3
100
AcDbLine
 10
417168.4517423329
 20
61720.15844571888
 30
0.0
 11
417168.4517423329
 21
61720.15844571888
 31
0.0
  0
ARC
  5
65
330
2F
100
AcDbEntity
  8
PV
 62
3
100
AcDbCircle
 10
417170.9293165361
 20
61720.15844571888
 30
0.0
 40
2.477574203361806
100
AcDbArc
 50
180.0
 51
270.0
  0
ARC
  5
66
330
2F
100
AcDbEntity
  8
PV
 62
3
100
AcDbCircle
 10
417170.9293165361
 20
61700.33785209216
 30
0.0
 40
2.477574203361806
100
AcDbArc
 50
90.0
 51
180.0
  0
ARC
  5
67
330
2F
100
AcDbEntity
  8
PV
 62
3
100
AcDbCircle
 10
417170.9293165361
 20
61700.33785209216
 30
0.0
 40
2.477574203361806
100
AcDbArc
 50
180.0
 51
270.0
  0
LINE
  5
68
330
2F
100
AcDbEntity
  8
PV
 62
3
100
AcDbLine
 10
417168.4517423329
 20
61700.33785209216
 30
0.0
 11
417168.4517423329
 21
61700.33785209216
 31
0.0
  0
ARC
  5
69
330
2F
100
AcDbEntity
  8
PV
 62
3
100
AcDbCircle
 10
417165.9741681287
 20
61710.24814890528
 30
0.0
 40
2.477574203361806
100
AcDbArc
 50
0.0
 51
90.0
  0
ARC
  5
6A
330
2F
100
AcDbEntity
  8
PV
 62
3
100
AcDbCircle
 10
417165.9741681287
 20
61710.24814890528
 30
0.0
 40
2.477574203361806
100
AcDbArc
 50
270.0
 51
0.0
  0
LINE
  5
6B
330
2F
100
AcDbEntity
  8
PV
 62
3
100
AcDbLine
 10
417168.4517423329
 20
61710.24814890528
 30
0.0
 11
417168.4517423329
 21
61710.24814890528
 31
0.0
  0
LINE
  5
6C
330
2F
100
AcDbEntity
  8
PV
 62
3
100
AcDbLine
 10
417165.9741681287
 20
61692.90512948173
 30
0.0
 11
417152.2649242035
 21
61692.90512948173
 31
0.0
  0
LINE
  5
6D
330
2F
100
AcDbEntity
  8
PV
 62
3
100
AcDbLine
 10
417165.9741681287
 20
61712.72572310892
 30
0.0
 11
417151.4154701908
 21
61712.72572310892
 31
0.0
  0
LINE
  5
6E
330
2F
100
AcDbEntity
  8
PV
 62
3
100
AcDbLine
 10
417165.9741681287
 20
61707.77057470213
 30
0.0
 11
417151.6278336937
 21
61707.77057470213
 31
0.0
  0
ARC
  5
6F
330
2F
100
AcDbEntity
  8
PV
 62
3
100
AcDbCircle
 10
417170.9293165361
 20
61720.15844571888
 30
0.0
 40
2.477574203361806
100
AcDbArc
 50
90.0
 51
180.0
  0
LINE
  5
70
330
2F
100
AcDbEntity
  8
PV
 62
3
100
AcDbLine
 10
417186.4851061193
 20
61735.99119483602
 30
0.0
 11
417150.4183785463
 21
61735.99119483602
 31
0.0
  0
LINE
  5
71
330
2F
100
AcDbEntity
  8
PV
 62
3
100
AcDbLine
 10
417184.9689036881
 20
61782.09780080261
 30
0.0
 11
417151.9345809765
 21
61782.09780080261
 31
0.0
  0
LINE
  5
72
330
2F
100
AcDbEntity
  8
PV
 62
3
100
AcDbLine
 10
417170.9293165361
 20
61717.68087151524
 30
0.0
 11
417185.700377977
 21
61717.68087151524
 31
0.0
  0
LINE
  5
73
330
2F
100
AcDbEntity
  8
PV
 62
3
100
AcDbLine
 10
417170.9293165361
 20
61722.63601992202
 30
0.0
 11
417185.9127414808
 21
61722.63601992202
 31
0.0
  0
LINE
  5
74
330
2F
100
AcDbEntity
  8
PV
 62
3
100
AcDbLine
 10
417170.9293165361
 20
61702.81542629532
 30
0.0
 11
417185.0632874681
 21
61702.81542629532
 31
0.0
  0
LINE
  5
75
330
2F
100
AcDbEntity
  8
PV
 62
3
100
AcDbLine
 10
417170.9293165361
 20
61697.86027788853
 30
0.0
 11
417184.8509239652
 21
61697.86027788853
 31
0.0
  0
ARC
  5
76
330
2F
100
AcDbEntity
  8
PV
 62
3
100
AcDbCircle
 10
416981.8758879428
 20
61605.29833834775
 30
0.0
 40
55.86394550203618
100
AcDbArc
 50
157.5422163521675
 51
202.4577836478325
  0
ARC
  5
77
330
2F
100
AcDbEntity
  8
PV
 62
3
100
AcDbCircle
 10
416983.7424801126
 20
61605.29833834775
 30
0.0
 40
58.80415316003806
100
AcDbArc
 50
157.5422163521675
 51
202.4577836478325
  0
LINE
  5
78
330
2F
100
AcDbEntity
  8
PV
 62
3
100
AcDbLine
 10
416966.8093309891
 20
61619.34528910852
 30
0.0
 11
416966.8093309891
 21
61591.25138758699
 31
0.0
  0
LINE
  5
79
330
2F
100
AcDbEntity
  8
PV
 62
3
100
AcDbLine
 10
416967.8829464768
 20
61620.08460230678
 30
0.0
 11
416967.8829464768
 21
61590.5120743892
 31
0.0
  0
LINE
  5
7A
330
2F
100
AcDbEntity
  8
PV
 62
3
100
AcDbLine
 10
416990.0159426942
 20
61630.07408038171
 30
0.0
 11
416990.0159426942
 21
61580.52259631426
 31
0.0
  0
LINE
  5
7B
330
2F
100
AcDbEntity
  8
PV
 62
3
100
AcDbLine
 10
417013.3051402062
 20
61605.13316673429
 30
0.0
 11
417013.3051402062
 21
61588.17210666713
 31
0.0
  0
LINE
  5
7C
330
2F
100
AcDbEntity
  8
PV
 62
3
100
AcDbLine
 10
417020.2423479757
 20
61605.13316673429
 30
0.0
 11
417020.2423479757
 21
61588.60568215295
 31
0.0
  0
LINE
  5
7D
330
2F
100
AcDbEntity
  8
PV
 62
3
100
AcDbLine
 10
417035.9336512624
 20
61605.95902480202
 30
0.0
 11
417035.9336512624
 21
61589.58638860815
 31
0.0
  0
LINE
  5
7E
330
2F
100
AcDbEntity
  8
PV
 62
3
100
AcDbLine
 10
416996.6228072367
 20
61626.57062932122
 30
0.0
 11
416996.6228072367
 21
61584.02604737476
 31
0.0
  0
LINE
  5
7F
330
2F
100
AcDbEntity
  8
PV
 62
3
100
AcDbLine
 10
417041.2191428965
 20
61605.95902480202
 30
0.0
 11
417041.2191428965
 21
61589.91673183551
 31
0.0
  0
LINE
  5
80
330
2F
100
AcDbEntity
  8
PV
 62
3
100
AcDbLine
 10
417049.4777235747
 20
61618.6120768275
 30
0.0
 11
417049.4777235747
 21
61591.98459986847
 31
0.0
  0
LINE
  5
81
330
2F
100
AcDbEntity
  8
PV
 62
3
100
AcDbLine
 10
416918.9921488645
 20
61642.46195139846
 30
0.0
 11
416918.9921488645
 21
61568.9488130614
 31
0.0
  0
LINE
  5
82
330
2F
100
AcDbEntity
  8
PV
 62
3
100
AcDbLine
 10
417047.9290386611
 20
61590.3361003205
 30
0.0
 11
416999.7201770643
 21
61587.3230464707
 31
0.0
  0
LINE
  5
83
330
2F
100
AcDbEntity
  8
PV
  6
Continuous
 62
3
100
AcDbLine
 10
417049.4777235747
 20
61596.00743508542
 30
0.0
 11
417095.9322398887
 21
61596.00743508542
 31
0.0
  0
LINE
  5
84
330
2F
100
AcDbEntity
  8
PV
 62
3
100
AcDbLine
 10
417013.3051402062
 20
61597.37010089697
 30
0.0
 11
417020.2423479757
 21
61597.37010089697
 31
0.0
  0
ARC
  5
85
330
2F
100
AcDbEntity
  8
PV
 62
3
100
AcDbCircle
 10
417047.8260074384
 20
61591.98459986847
 30
0.0
 40
1.651716135574537
100
AcDbArc
 50
273.5763343881361
 51
0.0
  0
LINE
  5
86
330
2F
100
AcDbEntity
  8
PV
 62
3
100
AcDbLine
 10
417035.9336512624
 20
61597.37010089697
 30
0.0
 11
417041.2191428965
 21
61597.37010089697
 31
0.0
  0
ARC
  5
87
330
2F
100
AcDbEntity
  8
PV
 62
3
100
AcDbCircle
 10
416929.1251210687
 20
61702.21120835345
 30
0.0
 40
118.258379184335
100
AcDbArc
 50
270.5443271406157
 51
288.028975333097
  0
ARC
  5
88
330
2F
100
AcDbEntity
  8
PV
 62
3
100
AcDbCircle
 10
416928.2153570871
 20
61707.31188572215
 30
0.0
 40
124.4825044045632
100
AcDbArc
 50
270.5443271406157
 51
288.028975333097
  0
ARC
  5
89
330
2F
100
AcDbEntity
  8
PV
 62
3
100
AcDbCircle
 10
416921.0815945765
 20
61696.7289830746
 30
0.0
 40
124.4825044045632
100
AcDbArc
 50
270.5443271406157
 51
297.307341317835
  0
ARC
  5
8A
330
2F
100
AcDbEntity
  8
PV
 62
3
100
AcDbCircle
 10
416965.2402006606
 20
61591.25138758699
 30
0.0
 40
1.569130328795811
100
AcDbArc
 50
288.028975333097
 51
0.0
  0
ARC
  5
8B
330
2F
100
AcDbEntity
  8
PV
 62
3
100
AcDbCircle
 10
416966.2312303422
 20
61590.5120743892
 30
0.0
 40
1.651716135574537
100
AcDbArc
 50
288.028975333097
 51
0.0
  0
ARC
  5
8C
330
2F
100
AcDbEntity
  8
PV
 62
3
100
AcDbCircle
 10
416982.5832200847
 20
61580.10966728038
 30
0.0
 40
7.444184024156627
100
AcDbArc
 50
3.179830122347105
 51
126.171678717231
  0
ARC
  5
8D
330
2F
100
AcDbEntity
  8
PV
 62
3
100
AcDbCircle
 10
416999.9262395077
 20
61584.02604737476
 30
0.0
 40
3.303432271149076
100
AcDbArc
 50
93.57633438813612
 51
180.0
  0
LINE
  5
8E
330
2F
100
AcDbEntity
  8
PV
 62
3
100
AcDbLine
 10
416996.6228072367
 20
61583.82602858513
 30
0.0
 11
416996.6228072367
 21
61584.02604737476
 31
0.0
  0
LINE
  5
8F
330
2F
100
AcDbEntity
  8
PV
 62
3
100
AcDbLine
 10
416996.6228072367
 20
61583.82602858513
 30
0.0
 11
416996.6228072367
 21
61583.82602858513
 31
0.0
  0
ARC
  5
90
330
2F
100
AcDbEntity
  8
PV
 62
3
100
AcDbCircle
 10
416993.319374966
 20
61583.82602858513
 30
0.0
 40
3.303432271149076
100
AcDbArc
 50
270.0
 51
0.0
  0
LINE
  5
91
330
2F
100
AcDbEntity
  8
PV
 62
3
100
AcDbLine
 10
416990.0159426942
 20
61580.52259631426
 30
0.0
 11
416993.319374966
 21
61580.52259631426
 31
0.0
  0
LINE
  5
92
330
2F
100
AcDbEntity
  8
PV
 62
3
100
AcDbLine
 10
416918.9921488645
 20
61568.9488130614
 30
0.0
 11
416918.9921488645
 21
61568.1347252975
 31
0.0
  0
ARC
  5
93
330
2F
100
AcDbEntity
  8
PV
 62
3
100
AcDbCircle
 10
416915.6887165928
 20
61568.1347252975
 30
0.0
 40
3.303432271149076
100
AcDbArc
 50
270.0
 51
0.0
  0
ARC
  5
94
330
2F
100
AcDbEntity
  8
PV
 62
3
100
AcDbCircle
 10
416922.2955811354
 20
61568.9488130614
 30
0.0
 40
3.303432271149076
100
AcDbArc
 50
90.54432714061574
 51
180.0
  0
LINE
  5
95
330
2F
100
AcDbEntity
  8
PV
 62
3
100
AcDbLine
 10
417002.4038137118
 20
61613.226575799
 30
0.0
 11
417009.3410214804
 21
61613.226575799
 31
0.0
  0
ARC
  5
96
330
2F
100
AcDbEntity
  8
PV
 62
3
100
AcDbCircle
 10
417005.8724175957
 20
61605.46350996122
 30
0.0
 40
3.46860388470653
100
AcDbArc
 50
180.0
 51
270.0
  0
LINE
  5
97
330
2F
100
AcDbEntity
  8
PV
 62
3
100
AcDbLine
 10
417047.9290386611
 20
61620.26057637548
 30
0.0
 11
416999.7201770643
 21
61623.27363022527
 31
0.0
  0
LINE
  5
98
330
2F
100
AcDbEntity
  8
PV
  6
Continuous
 62
3
100
AcDbLine
 10
417049.4777235747
 20
61605.29833834775
 30
0.0
 11
417096.1922200085
 21
61605.29833834775
 31
0.0
  0
LINE
  5
99
330
2F
100
AcDbEntity
  8
PV
  6
Continuous
 62
3
100
AcDbLine
 10
417049.4777235747
 20
61614.58924161054
 30
0.0
 11
417095.9322398887
 21
61614.58924161054
 31
0.0
  0
ARC
  5
9A
330
2F
100
AcDbEntity
  8
PV
 62
3
100
AcDbCircle
 10
417005.8724175957
 20
61605.46350996122
 30
0.0
 40
3.46860388470653
100
AcDbArc
 50
270.0
 51
0.0
  0
LINE
  5
9B
330
2F
100
AcDbEntity
  8
PV
 62
3
100
AcDbLine
 10
417005.8724175957
 20
61601.99490607642
 30
0.0
 11
417005.8724175957
 21
61601.99490607642
 31
0.0
  0
LINE
  5
9C
330
2F
100
AcDbEntity
  8
PV
 62
3
100
AcDbLine
 10
417009.3410214804
 20
61605.46350996122
 30
0.0
 11
417009.3410214804
 21
61622.67232744924
 31
0.0
  0
LINE
  5
9D
330
2F
100
AcDbEntity
  8
PV
 62
3
100
AcDbLine
 10
417025.0323247682
 20
61613.226575799
 30
0.0
 11
417030.3178164022
 21
61613.226575799
 31
0.0
  0
ARC
  5
9E
330
2F
100
AcDbEntity
  8
PV
 62
3
100
AcDbCircle
 10
417027.6750705852
 20
61604.63765189348
 30
0.0
 40
2.642745816919259
100
AcDbArc
 50
180.0
 51
270.0
  0
ARC
  5
9F
330
2F
100
AcDbEntity
  8
PV
 62
3
100
AcDbCircle
 10
417027.6750705852
 20
61604.63765189348
 30
0.0
 40
2.642745816919259
100
AcDbArc
 50
270.0
 51
0.0
  0
LINE
  5
A0
330
2F
100
AcDbEntity
  8
PV
 62
3
100
AcDbLine
 10
417027.6750705852
 20
61601.99490607642
 30
0.0
 11
417027.6750705852
 21
61601.99490607642
 31
0.0
  0
LINE
  5
A1
330
2F
100
AcDbEntity
  8
PV
 62
3
100
AcDbLine
 10
417025.0323247682
 20
61604.63765189348
 30
0.0
 11
417025.0323247682
 21
61621.6916209936
 31
0.0
  0
LINE
  5
A2
330
2F
100
AcDbEntity
  8
PV
 62
3
100
AcDbLine
 10
417030.3178164022
 20
61604.63765189348
 30
0.0
 11
417030.3178164022
 21
61621.36127776622
 31
0.0
  0
ARC
  5
A3
330
2F
100
AcDbEntity
  8
PV
 62
3
100
AcDbCircle
 10
417016.77374409
 20
61605.13316673429
 30
0.0
 40
3.46860388470653
100
AcDbArc
 50
0.0
 51
90.0
  0
LINE
  5
A4
330
2F
100
AcDbEntity
  8
PV
 62
3
100
AcDbLine
 10
417016.77374409
 20
61608.6017706191
 30
0.0
 11
417016.77374409
 21
61608.6017706191
 31
0.0
  0
ARC
  5
A5
330
2F
100
AcDbEntity
  8
PV
 62
3
100
AcDbCircle
 10
417038.5763970795
 20
61605.95902480202
 30
0.0
 40
2.642745816919259
100
AcDbArc
 50
90.0
 51
180.0
  0
LINE
  5
A6
330
2F
100
AcDbEntity
  8
PV
 62
3
100
AcDbLine
 10
417038.5763970795
 20
61608.6017706191
 30
0.0
 11
417038.5763970795
 21
61608.6017706191
 31
0.0
  0
ARC
  5
A7
330
2F
100
AcDbEntity
  8
PV
 62
3
100
AcDbCircle
 10
417016.77374409
 20
61605.13316673429
 30
0.0
 40
3.46860388470653
100
AcDbArc
 50
90.0
 51
180.0
  0
ARC
  5
A8
330
2F
100
AcDbEntity
  8
PV
 62
3
100
AcDbCircle
 10
417047.8260074384
 20
61618.6120768275
 30
0.0
 40
1.651716135574537
100
AcDbArc
 50
0.0
 51
86.42366561186383
  0
ARC
  5
A9
330
2F
100
AcDbEntity
  8
PV
 62
3
100
AcDbCircle
 10
417038.5763970795
 20
61605.95902480202
 30
0.0
 40
2.642745816919259
100
AcDbArc
 50
0.0
 51
90.0
  0
ARC
  5
AA
330
2F
100
AcDbEntity
  8
PV
 62
3
100
AcDbCircle
 10
416929.1251210687
 20
61508.38546834205
 30
0.0
 40
118.2583791843428
100
AcDbArc
 50
71.97102466690293
 51
89.45567285938424
  0
ARC
  5
AB
330
2F
100
AcDbEntity
  8
PV
 62
3
100
AcDbCircle
 10
416928.2153570871
 20
61503.28479097383
 30
0.0
 40
124.4825044045714
100
AcDbArc
 50
71.97102466690293
 51
89.45567285938424
  0
ARC
  5
AC
330
2F
100
AcDbEntity
  8
PV
 62
3
100
AcDbCircle
 10
416921.0815945765
 20
61513.8676936209
 30
0.0
 40
124.4825044045714
100
AcDbArc
 50
62.692658682165
 51
89.45567285938424
  0
ARC
  5
AD
330
2F
100
AcDbEntity
  8
PV
 62
3
100
AcDbCircle
 10
416965.2402006606
 20
61619.34528910852
 30
0.0
 40
1.569130328795811
100
AcDbArc
 50
0.0
 51
71.97102466690293
  0
ARC
  5
AE
330
2F
100
AcDbEntity
  8
PV
 62
3
100
AcDbCircle
 10
416966.2312303422
 20
61620.08460230678
 30
0.0
 40
1.651716135574537
100
AcDbArc
 50
0.0
 51
71.97102466690293
  0
ARC
  5
AF
330
2F
100
AcDbEntity
  8
PV
 62
3
100
AcDbCircle
 10
416982.5832200847
 20
61630.48700941557
 30
0.0
 40
7.444184024156627
100
AcDbArc
 50
233.8283212827689
 51
356.8201698776529
  0
LINE
  5
B0
330
2F
100
AcDbEntity
  8
PV
 62
3
100
AcDbLine
 10
417002.4038137118
 20
61605.46350996122
 30
0.0
 11
417002.4038137118
 21
61623.10590293463
 31
0.0
  0
ARC
  5
B1
330
2F
100
AcDbEntity
  8
PV
 62
3
100
AcDbCircle
 10
416999.9262395077
 20
61626.57062932122
 30
0.0
 40
3.303432271149076
100
AcDbArc
 50
180.0
 51
266.4236656118638
  0
ARC
  5
B2
330
2F
100
AcDbEntity
  8
PV
 62
3
100
AcDbCircle
 10
416993.319374966
 20
61626.77064811036
 30
0.0
 40
3.303432271149076
100
AcDbArc
 50
0.0
 51
90.0
  0
LINE
  5
B3
330
2F
100
AcDbEntity
  8
PV
 62
3
100
AcDbLine
 10
416996.6228072367
 20
61626.77064811036
 30
0.0
 11
416996.6228072367
 21
61626.57062932122
 31
0.0
  0
LINE
  5
B4
330
2F
100
AcDbEntity
  8
PV
 62
3
100
AcDbLine
 10
416990.0159426942
 20
61630.07408038171
 30
0.0
 11
416993.319374966
 21
61630.07408038171
 31
0.0
  0
ARC
  5
B5
330
2F
100
AcDbEntity
  8
PV
 62
3
100
AcDbCircle
 10
416915.6887165928
 20
61642.46195139846
 30
0.0
 40
3.303432271149076
100
AcDbArc
 50
0.0
 51
90.0
  0
LINE
  5
B6
330
2F
100
AcDbEntity
  8
PV
 62
3
100
AcDbLine
 10
416918.9921488645
 20
61642.46195139846
 30
0.0
 11
416918.9921488645
 21
61641.64786363457
 31
0.0
  0
ARC
  5
B7
330
2F
100
AcDbEntity
  8
PV
 62
3
100
AcDbCircle
 10
416922.2955811354
 20
61641.64786363457
 30
0.0
 40
3.303432271149076
100
AcDbArc
 50
180.0
 51
269.4556728593842
  0
LINE
  5
B8
330
2F
100
AcDbEntity
  8
PV
  6
Continuous
 62
2
100
AcDbLine
 10
417123.6019545482
 20
61807.9493554008
 30
0.0
 11
416975.7637651819
 21
61807.9493554008
 31
0.0
  0
LINE
  5
B9
330
2F
100
AcDbEntity
  8
PV
  6
Continuous
 62
3
100
AcDbLine
 10
417231.6580187823
 20
61817.83163468231
 30
0.0
 11
417095.3673053966
 21
61817.83163468231
 31
0.0
  0
LINE
  5
BA
330
2F
100
AcDbEntity
  8
PV
  6
Continuous
 62
3
100
AcDbLine
 10
417181.7405683431
 20
61935.85429941414
 30
0.0
 11
417028.9190692225
 21
61935.85429941414
 31
0.0
  0
LINE
  5
BB
330
2F
100
AcDbEntity
  8
PV
  6
Continuous
 62
3
100
AcDbLine
 10
417191.7071878514
 20
61945.82091892202
 30
0.0
 11
417181.7405683431
 21
61935.85429941414
 31
0.0
  0
LINE
  5
BC
330
2F
100
AcDbEntity
  8
PV
  6
Continuous
 62
3
100
AcDbLine
 10
417213.3015301175
 20
61811.52441783034
 30
0.0
 11
417123.6019545482
 21
61811.52441783034
 31
0.0
  0
LINE
  5
BD
330
2F
100
AcDbEntity
  8
PV
 62
3
100
AcDbLine
 10
417197.6871179319
 20
61805.22182670068
 30
0.0
 11
417139.216366733
 21
61805.22182670068
 31
0.0
  0
LINE
  5
BE
330
2F
100
AcDbEntity
  8
PV
  6
Continuous
 62
2
100
AcDbLine
 10
417241.5402853903
 20
61807.9493554008
 30
0.0
 11
417213.3015301175
 21
61807.9493554008
 31
0.0
  0
ARC
  5
BF
330
2F
100
AcDbEntity
  8
PV
  6
Continuous
 62
3
100
AcDbCircle
 10
417231.6580187811
 20
61834.44266719527
 30
0.0
 40
16.61103251302042
100
AcDbArc
 50
270.0
 51
0.0
  0
ARC
  5
C0
330
2F
100
AcDbEntity
  8
PV
  6
Continuous
 62
2
100
AcDbCircle
 10
417241.5402853893
 20
61824.56038791331
 30
0.0
 40
16.61103251302042
100
AcDbArc
 50
270.0
 51
0.0
  0
LINE
  5
C1
330
2F
100
AcDbEntity
  8
PV
  6
Continuous
 62
2
100
AcDbLine
 10
417205.9926859509
 20
61805.22182670068
 30
0.0
 11
417205.9926859509
 21
61804.62453821645
 31
0.0
  0
ARC
  5
C2
330
2F
100
AcDbEntity
  8
PV
  6
Continuous
 62
2
100
AcDbCircle
 10
417209.9793236157
 20
61807.94674471923
 30
0.0
 40
3.322206502604084
100
AcDbArc
 50
270.0
 51
0.0
  0
LINE
  5
C3
330
2F
100
AcDbEntity
  8
PV
  6
Continuous
 62
2
100
AcDbLine
 10
417205.9926859509
 20
61804.62453821645
 30
0.0
 11
417209.9793236157
 21
61804.62453821645
 31
0.0
  0
LINE
  5
C4
330
2F
100
AcDbEntity
  8
PV
  6
Continuous
 62
2
100
AcDbLine
 10
417197.6871179319
 20
61805.22182670068
 30
0.0
 11
417205.9926859509
 21
61805.22182670068
 31
0.0
  0
LINE
  5
C5
330
2F
100
AcDbEntity
  8
PV
  6
Continuous
 62
3
100
AcDbLine
 10
417213.3015301175
 20
61811.52441783034
 30
0.0
 11
417213.3015301175
 21
61807.94674471923
 31
0.0
  0
LINE
  5
C6
330
2F
100
AcDbEntity
  8
PV
 62
3
100
AcDbLine
 10
417184.9689036881
 20
61798.61496215843
 30
0.0
 11
417151.9345809765
 21
61798.61496215843
 31
0.0
  0
LINE
  5
C7
330
2F
100
AcDbEntity
  8
PV
  6
Continuous
 62
2
100
AcDbLine
 10
417130.9107987148
 20
61805.22182670068
 30
0.0
 11
417139.216366733
 21
61805.22182670068
 31
0.0
  0
LINE
  5
C8
330
2F
100
AcDbEntity
  8
PV
  6
Continuous
 62
2
100
AcDbLine
 10
417130.9107987148
 20
61805.22182670068
 30
0.0
 11
417130.9107987148
 21
61804.62453821645
 31
0.0
  0
LINE
  5
C9
330
2F
100
AcDbEntity
  8
PV
  6
Continuous
 62
2
100
AcDbLine
 10
417126.9241610491
 20
61804.62453821645
 30
0.0
 11
417130.9107987148
 21
61804.62453821645
 31
0.0
  0
ARC
  5
CA
330
2F
100
AcDbEntity
  8
PV
  6
Continuous
 62
2
100
AcDbCircle
 10
417126.9241610491
 20
61807.94674471923
 30
0.0
 40
3.322206502604084
100
AcDbArc
 50
180.0
 51
270.0
  0
LINE
  5
CB
330
2F
100
AcDbEntity
  8
PV
  6
Continuous
 62
3
100
AcDbLine
 10
417123.6019545482
 20
61811.52441783034
 30
0.0
 11
417123.6019545482
 21
61807.9493554008
 31
0.0
  0
LINE
  5
CC
330
2F
100
AcDbEntity
  8
PV
  6
Continuous
 62
3
100
AcDbLine
 10
416985.7303846902
 20
61870.86781053031
 30
0.0
 11
417005.6636237061
 21
61870.86781053031
 31
0.0
  0
LINE
  5
CD
330
2F
100
AcDbEntity
  8
PV
  6
Continuous
 62
3
100
AcDbLine
 10
417010.6469334592
 20
61839.53930081117
 30
0.0
 11
416980.747074936
 21
61839.53930081117
 31
0.0
  0
LINE
  5
CE
330
2F
100
AcDbEntity
  8
PV
  6
Continuous
 62
3
100
AcDbLine
 10
417012.3080367106
 20
61808.06536598381
 30
0.0
 11
416977.4248684332
 21
61808.06536598381
 31
0.0
  0
LINE
  5
CF
330
2F
100
AcDbEntity
  8
PV
  6
Continuous
 62
3
100
AcDbLine
 10
417088.722892391
 20
61877.46568750094
 30
0.0
 11
416972.3572311257
 21
61877.46568750094
 31
0.0
  0
ARC
  5
D0
330
2F
100
AcDbEntity
  8
PV
  6
Continuous
 62
3
100
AcDbCircle
 10
417088.722892391
 20
61874.14348099817
 30
0.0
 40
3.322206502604084
100
AcDbArc
 50
0.0
 51
90.0
  0
ARC
  5
D1
330
2F
100
AcDbEntity
  8
PV
  6
Continuous
 62
3
100
AcDbCircle
 10
417050.8983729794
 20
61819.57707815961
 30
0.0
 40
1.661103251302042
100
AcDbArc
 50
0.0
 51
90.0
  0
ARC
  5
D2
330
2F
100
AcDbEntity
  8
PV
  6
Continuous
 62
3
100
AcDbCircle
 10
417050.8983729794
 20
61813.09832938264
 30
0.0
 40
1.661103251302042
100
AcDbArc
 50
270.0
 51
0.0
  0
LINE
  5
D3
330
2F
100
AcDbEntity
  8
PV
  6
Continuous
 62
3
100
AcDbLine
 10
417057.1578244953
 20
61870.28650296636
 30
0.0
 11
417007.3247269565
 21
61870.28650296636
 31
0.0
  0
LINE
  5
D4
330
2F
100
AcDbEntity
  8
PV
  6
Continuous
 62
3
100
AcDbLine
 10
417058.8189277476
 20
61870.86781053031
 30
0.0
 11
417057.1578244953
 21
61870.28650296636
 31
0.0
  0
LINE
  5
D5
330
2F
100
AcDbEntity
  8
PV
  6
Continuous
 62
3
100
AcDbLine
 10
417082.3284965134
 20
61871.0712789499
 30
0.0
 11
417078.7521667625
 21
61871.0712789499
 31
0.0
  0
ARC
  5
D6
330
2F
100
AcDbEntity
  8
PV
  6
Continuous
 62
3
100
AcDbCircle
 10
417082.3284965134
 20
61867.74907244759
 30
0.0
 40
3.322206502604084
100
AcDbArc
 50
0.0
 51
90.0
  0
ARC
  5
D7
330
2F
100
AcDbEntity
  8
PV
  6
Continuous
 62
3
100
AcDbCircle
 10
417064.7521402758
 20
61859.20042174699
 30
0.0
 40
2.322725815651695
100
AcDbArc
 50
270.0
 51
0.0
  0
ARC
  5
D8
330
2F
100
AcDbEntity
  8
PV
  6
Continuous
 62
3
100
AcDbCircle
 10
417073.1141183837
 20
61859.20042174699
 30
0.0
 40
2.322725815651695
100
AcDbArc
 50
180.0
 51
270.0
  0
LINE
  5
D9
330
2F
100
AcDbEntity
  8
PV
  6
Continuous
 62
3
100
AcDbLine
 10
417070.7914751549
 20
61861.98785789747
 30
0.0
 11
417067.0751138493
 21
61861.98785789747
 31
0.0
  0
LINE
  5
DA
330
2F
100
AcDbEntity
  8
PV
  6
Continuous
 62
3
100
AcDbLine
 10
417070.7914751549
 20
61861.98785789747
 30
0.0
 11
417070.7914751549
 21
61859.20042174699
 31
0.0
  0
LINE
  5
DB
330
2F
100
AcDbEntity
  8
PV
  6
Continuous
 62
3
100
AcDbLine
 10
417067.0751138493
 20
61861.98785789747
 30
0.0
 11
417067.0751138493
 21
61859.20042174699
 31
0.0
  0
LINE
  5
DC
330
2F
100
AcDbEntity
  8
PV
  6
Continuous
 62
3
100
AcDbLine
 10
417078.2241977645
 20
61853.16141721203
 30
0.0
 11
417073.1141183837
 21
61853.16141721203
 31
0.0
  0
LINE
  5
DD
330
2F
100
AcDbEntity
  8
PV
  6
Continuous
 62
3
100
AcDbLine
 10
417078.2241977645
 20
61856.87777851678
 30
0.0
 11
417073.1141183837
 21
61856.87777851678
 31
0.0
  0
LINE
  5
DE
330
2F
100
AcDbEntity
  8
PV
  6
Continuous
 62
3
100
AcDbLine
 10
417078.7521667625
 20
61870.86781053031
 30
0.0
 11
417058.8189277476
 21
61870.86781053031
 31
0.0
  0
LINE
  5
DF
330
2F
100
AcDbEntity
  8
PV
  6
Continuous
 62
3
100
AcDbLine
 10
417064.7521402758
 20
61853.16141721203
 30
0.0
 11
417059.6423912388
 21
61853.16141721203
 31
0.0
  0
LINE
  5
E0
330
2F
100
AcDbEntity
  8
PV
  6
Continuous
 62
3
100
AcDbLine
 10
417064.7521402758
 20
61856.87777851678
 30
0.0
 11
417059.6423912388
 21
61856.87777851678
 31
0.0
  0
LINE
  5
E1
330
2F
100
AcDbEntity
  8
PV
  6
Continuous
 62
3
100
AcDbLine
 10
417053.8356179934
 20
61842.80352736887
 30
0.0
 11
417052.5594762317
 21
61845.75134184088
 31
0.0
  0
LINE
  5
E2
330
2F
100
AcDbEntity
  8
PV
  6
Continuous
 62
3
100
AcDbLine
 10
417083.7354765168
 20
61842.80352736887
 30
0.0
 11
417083.7354765168
 21
61811.38757248612
 31
0.0
  0
ARC
  5
E3
330
2F
100
AcDbEntity
  8
PV
  6
Continuous
 62
3
100
AcDbCircle
 10
417080.413270014
 20
61851.13803993463
 30
0.0
 40
1.661103251302042
100
AcDbArc
 50
180.0
 51
270.0
  0
LINE
  5
E4
330
2F
100
AcDbEntity
  8
PV
  6
Continuous
 62
3
100
AcDbLine
 10
417085.6507030153
 20
61846.15473018046
 30
0.0
 11
417083.7354765168
 21
61842.80352736887
 31
0.0
  0
LINE
  5
E5
330
2F
100
AcDbEntity
  8
PV
  6
Continuous
 62
3
100
AcDbLine
 10
417085.6507030153
 20
61849.47693668322
 30
0.0
 11
417080.413270014
 21
61849.47693668322
 31
0.0
  0
LINE
  5
E6
330
2F
100
AcDbEntity
  8
PV
  6
Continuous
 62
3
100
AcDbLine
 10
417070.7914751549
 20
61848.05133783183
 30
0.0
 11
417067.0751138493
 21
61848.05133783183
 31
0.0
  0
LINE
  5
E7
330
2F
100
AcDbEntity
  8
PV
  6
Continuous
 62
3
100
AcDbLine
 10
417067.0751138493
 20
61850.83877398231
 30
0.0
 11
417067.0751138493
 21
61848.05133783183
 31
0.0
  0
LINE
  5
E8
330
2F
100
AcDbEntity
  8
PV
  6
Continuous
 62
3
100
AcDbLine
 10
417070.7914751549
 20
61850.83877398231
 30
0.0
 11
417070.7914751549
 21
61848.05133783183
 31
0.0
  0
LINE
  5
E9
330
2F
100
AcDbEntity
  8
PV
  6
Continuous
 62
3
100
AcDbLine
 10
417083.7354765168
 20
61839.53930081117
 30
0.0
 11
417053.8356179934
 21
61839.53930081117
 31
0.0
  0
LINE
  5
EA
330
2F
100
AcDbEntity
  8
PV
  6
Continuous
 62
3
100
AcDbLine
 10
417085.6507030153
 20
61867.74907244759
 30
0.0
 11
417085.6507030153
 21
61814.75941996062
 31
0.0
  0
LINE
  5
EB
330
2F
100
AcDbEntity
  8
PV
  6
Continuous
 62
3
100
AcDbLine
 10
417052.5594762317
 20
61870.28650296636
 30
0.0
 11
417052.5594762317
 21
61813.09832938264
 31
0.0
  0
LINE
  5
EC
330
2F
100
AcDbEntity
  8
PV
  6
Continuous
 62
3
100
AcDbLine
 10
417078.7521667625
 20
61871.0712789499
 30
0.0
 11
417078.7521667625
 21
61851.13803993463
 31
0.0
  0
CIRCLE
  5
ED
330
2F
100
AcDbEntity
  8
PV
  6
Continuous
 62
3
100
AcDbCircle
 10
417068.9332945025
 20
61855.01959786441
 30
0.0
 40
9.290903262606776
  0
ARC
  5
EE
330
2F
100
AcDbEntity
  8
PV
  6
Continuous
 62
3
100
AcDbCircle
 10
417064.7521402758
 20
61850.83877398231
 30
0.0
 40
2.322725815651695
100
AcDbArc
 50
0.0
 51
89.99979999685326
  0
ARC
  5
EF
330
2F
100
AcDbEntity
  8
PV
  6
Continuous
 62
3
100
AcDbCircle
 10
417073.1141183837
 20
61850.83877398231
 30
0.0
 40
2.322725815651695
100
AcDbArc
 50
89.99979999685326
 51
180.0
  0
ARC
  5
F0
330
2F
100
AcDbEntity
  8
PV
  6
Continuous
 62
3
100
AcDbCircle
 10
417052.1745147412
 20
61809.72646923519
 30
0.0
 40
1.661103251302042
100
AcDbArc
 50
270.0
 51
0.0
  0
LINE
  5
F1
330
2F
100
AcDbEntity
  8
PV
  6
Continuous
 62
3
100
AcDbLine
 10
417087.0576830185
 20
61808.06536598381
 30
0.0
 11
417052.1745147412
 21
61808.06536598381
 31
0.0
  0
ARC
  5
F2
330
2F
100
AcDbEntity
  8
PV
  6
Continuous
 62
3
100
AcDbCircle
 10
417087.0576830185
 20
61811.38757248612
 30
0.0
 40
3.322206502604084
100
AcDbArc
 50
180.0
 51
270.0
  0
LINE
  5
F3
330
2F
100
AcDbEntity
  8
PV
  6
Continuous
 62
3
100
AcDbLine
 10
417053.8356179934
 20
61842.80352736887
 30
0.0
 11
417053.8356179934
 21
61809.72646923519
 31
0.0
  0
ARC
  5
F4
330
2F
100
AcDbEntity
  8
PV
  6
Continuous
 62
3
100
AcDbCircle
 10
417095.3673053966
 20
61821.15384118509
 30
0.0
 40
3.322206502604084
100
AcDbArc
 50
180.0
 51
270.0
  0
LINE
  5
F5
330
2F
100
AcDbEntity
  8
PV
  6
Continuous
 62
3
100
AcDbLine
 10
417092.0450988938
 20
61874.14348099817
 30
0.0
 11
417092.0450988938
 21
61821.15384118509
 31
0.0
  0
ARC
  5
F6
330
2F
100
AcDbEntity
  8
PV
  6
Continuous
 62
3
100
AcDbCircle
 10
417088.972909518
 20
61814.75941996062
 30
0.0
 40
3.322206502604084
100
AcDbArc
 50
180.0
 51
270.0
  0
LINE
  5
F7
330
2F
100
AcDbEntity
  8
PV
  6
Continuous
 62
3
100
AcDbLine
 10
417005.6636237061
 20
61870.86781053031
 30
0.0
 11
417007.3247269565
 21
61870.28650296636
 31
0.0
  0
ARC
  5
F8
330
2F
100
AcDbEntity
  8
PV
  6
Continuous
 62
3
100
AcDbCircle
 10
417035.9505053343
 20
61859.20042174699
 30
0.0
 40
2.322725815651695
100
AcDbArc
 50
180.0
 51
270.0
  0
ARC
  5
F9
330
2F
100
AcDbEntity
  8
PV
  6
Continuous
 62
3
100
AcDbCircle
 10
417027.5885272263
 20
61859.20042174699
 30
0.0
 40
2.322725815651695
100
AcDbArc
 50
270.0
 51
0.0
  0
LINE
  5
FA
330
2F
100
AcDbEntity
  8
PV
  6
Continuous
 62
3
100
AcDbLine
 10
417033.6278621028
 20
61861.98785789747
 30
0.0
 11
417029.911500798
 21
61861.98785789747
 31
0.0
  0
LINE
  5
FB
330
2F
100
AcDbEntity
  8
PV
  6
Continuous
 62
3
100
AcDbLine
 10
417027.5885272263
 20
61853.16141721203
 30
0.0
 11
417022.4787781886
 21
61853.16141721203
 31
0.0
  0
LINE
  5
FC
330
2F
100
AcDbEntity
  8
PV
  6
Continuous
 62
3
100
AcDbLine
 10
417027.5885272263
 20
61856.87777851678
 30
0.0
 11
417022.4787781886
 21
61856.87777851678
 31
0.0
  0
LINE
  5
FD
330
2F
100
AcDbEntity
  8
PV
  6
Continuous
 62
3
100
AcDbLine
 10
417033.6278621028
 20
61861.98785789747
 30
0.0
 11
417033.6278621028
 21
61859.20042174699
 31
0.0
  0
LINE
  5
FE
330
2F
100
AcDbEntity
  8
PV
  6
Continuous
 62
3
100
AcDbLine
 10
417029.911500798
 20
61861.98785789747
 30
0.0
 11
417029.911500798
 21
61859.20042174699
 31
0.0
  0
LINE
  5
FF
330
2F
100
AcDbEntity
  8
PV
  6
Continuous
 62
3
100
AcDbLine
 10
417013.5841784724
 20
61811.43722613128
 30
0.0
 11
417014.3541014516
 21
61811.43722613128
 31
0.0
  0
LINE
  5
100
330
2F
100
AcDbEntity
  8
PV
  6
Continuous
 62
3
100
AcDbLine
 10
417013.5841784724
 20
61821.238181411
 30
0.0
 11
417014.3541014516
 21
61821.238181411
 31
0.0
  0
ARC
  5
101
330
2F
100
AcDbEntity
  8
PV
  6
Continuous
 62
3
100
AcDbCircle
 10
417013.5841784724
 20
61819.57707815961
 30
0.0
 40
1.661103251302042
100
AcDbArc
 50
90.0
 51
180.0
  0
ARC
  5
102
330
2F
100
AcDbEntity
  8
PV
  6
Continuous
 62
3
100
AcDbCircle
 10
417013.5841784724
 20
61813.09832938264
 30
0.0
 40
1.661103251302042
100
AcDbArc
 50
180.0
 51
270.0
  0
LINE
  5
103
330
2F
100
AcDbEntity
  8
PV
  6
Continuous
 62
3
100
AcDbLine
 10
417010.6469334592
 20
61842.80352736887
 30
0.0
 11
417011.9230752201
 21
61845.75134184088
 31
0.0
  0
LINE
  5
104
330
2F
100
AcDbEntity
  8
PV
  6
Continuous
 62
3
100
AcDbLine
 10
417033.6278621028
 20
61848.05133783183
 30
0.0
 11
417029.911500798
 21
61848.05133783183
 31
0.0
  0
LINE
  5
105
330
2F
100
AcDbEntity
  8
PV
  6
Continuous
 62
3
100
AcDbLine
 10
417029.911500798
 20
61850.83877398231
 30
0.0
 11
417029.911500798
 21
61848.05133783183
 31
0.0
  0
LINE
  5
106
330
2F
100
AcDbEntity
  8
PV
  6
Continuous
 62
3
100
AcDbLine
 10
417033.6278621028
 20
61850.83877398231
 30
0.0
 11
417033.6278621028
 21
61848.05133783183
 31
0.0
  0
ARC
  5
107
330
2F
100
AcDbEntity
  8
PV
  6
Continuous
 62
3
100
AcDbCircle
 10
417014.3541014516
 20
61819.57707815961
 30
0.0
 40
1.661103251302042
100
AcDbArc
 50
0.0
 51
90.0
  0
ARC
  5
108
330
2F
100
AcDbEntity
  8
PV
  6
Continuous
 62
3
100
AcDbCircle
 10
417014.3541014516
 20
61813.09832938264
 30
0.0
 40
1.661103251302042
100
AcDbArc
 50
270.0
 51
0.0
  0
LINE
  5
109
330
2F
100
AcDbEntity
  8
PV
  6
Continuous
 62
3
100
AcDbLine
 10
417017.2913464639
 20
61842.80352736887
 30
0.0
 11
417016.015204702
 21
61845.75134184088
 31
0.0
  0
LINE
  5
10A
330
2F
100
AcDbEntity
  8
PV
  6
Continuous
 62
3
100
AcDbLine
 10
417011.9230752201
 20
61870.28650296636
 30
0.0
 11
417011.9230752201
 21
61813.09832938264
 31
0.0
  0
LINE
  5
10B
330
2F
100
AcDbEntity
  8
PV
  6
Continuous
 62
3
100
AcDbLine
 10
417016.015204702
 20
61870.28650296636
 30
0.0
 11
417016.015204702
 21
61813.09832938264
 31
0.0
  0
ARC
  5
10C
330
2F
100
AcDbEntity
  8
PV
  6
Continuous
 62
3
100
AcDbCircle
 10
417027.5885272263
 20
61850.83877398231
 30
0.0
 40
2.322725815651695
100
AcDbArc
 50
0.0
 51
89.99979999685326
  0
ARC
  5
10D
330
2F
100
AcDbEntity
  8
PV
  6
Continuous
 62
3
100
AcDbCircle
 10
417035.9505053343
 20
61850.83877398231
 30
0.0
 40
2.322725815651695
100
AcDbArc
 50
89.99979999685326
 51
180.0
  0
LINE
  5
10E
330
2F
100
AcDbEntity
  8
PV
  6
Continuous
 62
3
100
AcDbLine
 10
417050.8983729794
 20
61821.238181411
 30
0.0
 11
417050.1284500002
 21
61821.238181411
 31
0.0
  0
LINE
  5
10F
330
2F
100
AcDbEntity
  8
PV
  6
Continuous
 62
3
100
AcDbLine
 10
417050.8983729794
 20
61811.43722613128
 30
0.0
 11
417050.1284500002
 21
61811.43722613128
 31
0.0
  0
ARC
  5
110
330
2F
100
AcDbEntity
  8
PV
  6
Continuous
 62
3
100
AcDbCircle
 10
417050.1284500002
 20
61819.57707815961
 30
0.0
 40
1.661103251302042
100
AcDbArc
 50
90.0
 51
180.0
  0
ARC
  5
111
330
2F
100
AcDbEntity
  8
PV
  6
Continuous
 62
3
100
AcDbCircle
 10
417050.1284500002
 20
61813.09832938264
 30
0.0
 40
1.661103251302042
100
AcDbArc
 50
180.0
 51
270.0
  0
LINE
  5
112
330
2F
100
AcDbEntity
  8
PV
  6
Continuous
 62
3
100
AcDbLine
 10
417047.1912049871
 20
61842.80352736887
 30
0.0
 11
417048.4673467496
 21
61845.75134184088
 31
0.0
  0
LINE
  5
113
330
2F
100
AcDbEntity
  8
PV
  6
Continuous
 62
3
100
AcDbLine
 10
417048.4673467496
 20
61870.28650296636
 30
0.0
 11
417048.4673467496
 21
61813.09832938264
 31
0.0
  0
LINE
  5
114
330
2F
100
AcDbEntity
  8
PV
  6
Continuous
 62
3
100
AcDbLine
 10
417047.1912049871
 20
61839.53930081117
 30
0.0
 11
417017.2913464639
 21
61839.53930081117
 31
0.0
  0
CIRCLE
  5
115
330
2F
100
AcDbEntity
  8
PV
  6
Continuous
 62
3
100
AcDbCircle
 10
417031.7696814504
 20
61855.01959786441
 30
0.0
 40
9.290903262606776
  0
LINE
  5
116
330
2F
100
AcDbEntity
  8
PV
  6
Continuous
 62
3
100
AcDbLine
 10
417041.060584714
 20
61853.16141721203
 30
0.0
 11
417035.9505053343
 21
61853.16141721203
 31
0.0
  0
LINE
  5
117
330
2F
100
AcDbEntity
  8
PV
  6
Continuous
 62
3
100
AcDbLine
 10
417041.060584714
 20
61856.87777851678
 30
0.0
 11
417035.9505053343
 21
61856.87777851678
 31
0.0
  0
ARC
  5
118
330
2F
100
AcDbEntity
  8
PV
  6
Continuous
 62
3
100
AcDbCircle
 10
417012.3080367106
 20
61809.72646923519
 30
0.0
 40
1.661103251302042
100
AcDbArc
 50
180.0
 51
270.0
  0
ARC
  5
119
330
2F
100
AcDbEntity
  8
PV
  6
Continuous
 62
3
100
AcDbCircle
 10
417015.6302432133
 20
61809.72646923519
 30
0.0
 40
1.661103251302042
100
AcDbArc
 50
270.0
 51
0.0
  0
ARC
  5
11A
330
2F
100
AcDbEntity
  8
PV
  6
Continuous
 62
3
100
AcDbCircle
 10
417048.8523082385
 20
61809.72646923519
 30
0.0
 40
1.661103251302042
100
AcDbArc
 50
180.0
 51
270.0
  0
LINE
  5
11B
330
2F
100
AcDbEntity
  8
PV
  6
Continuous
 62
3
100
AcDbLine
 10
417048.8523082385
 20
61808.06536598381
 30
0.0
 11
417015.6302432133
 21
61808.06536598381
 31
0.0
  0
LINE
  5
11C
330
2F
100
AcDbEntity
  8
PV
  6
Continuous
 62
3
100
AcDbLine
 10
417047.1912049871
 20
61842.80352736887
 30
0.0
 11
417047.1912049871
 21
61809.72646923519
 31
0.0
  0
LINE
  5
11D
330
2F
100
AcDbEntity
  8
PV
  6
Continuous
 62
3
100
AcDbLine
 10
417010.6469334592
 20
61842.80352736887
 30
0.0
 11
417010.6469334592
 21
61809.72646923519
 31
0.0
  0
LINE
  5
11E
330
2F
100
AcDbEntity
  8
PV
  6
Continuous
 62
3
100
AcDbLine
 10
417017.2913464639
 20
61842.80352736887
 30
0.0
 11
417017.2913464639
 21
61809.72646923519
 31
0.0
  0
ARC
  5
11F
330
2F
100
AcDbEntity
  8
PV
  6
Continuous
 62
3
100
AcDbCircle
 10
417028.9190692225
 20
61939.17650591693
 30
0.0
 40
3.322206502604084
100
AcDbArc
 50
180.0
 51
270.0
  0
ARC
  5
120
330
2F
100
AcDbEntity
  8
PV
  6
Continuous
 62
3
100
AcDbCircle
 10
416972.3572311257
 20
61880.78789400372
 30
0.0
 40
3.322206502604084
100
AcDbArc
 50
180.0
 51
270.0
  0
ARC
  5
121
330
2F
100
AcDbEntity
  8
PV
  6
Continuous
 62
2
100
AcDbCircle
 10
416975.7637651819
 20
61824.56038791331
 30
0.0
 40
16.61103251302042
100
AcDbArc
 50
180.0
 51
270.0
  0
ARC
  5
122
330
2F
100
AcDbEntity
  8
PV
  6
Continuous
 62
3
100
AcDbCircle
 10
416965.9628099021
 20
61874.39348545269
 30
0.0
 40
3.322206502604084
100
AcDbArc
 50
180.0
 51
270.0
  0
LINE
  5
123
330
2F
100
AcDbEntity
  8
PV
  6
Continuous
 62
3
100
AcDbLine
 10
416990.4249141743
 20
61853.16141721203
 30
0.0
 11
416985.3151651383
 21
61853.16141721203
 31
0.0
  0
LINE
  5
124
330
2F
100
AcDbEntity
  8
PV
  6
Continuous
 62
3
100
AcDbLine
 10
416990.4249141743
 20
61856.87777851678
 30
0.0
 11
416985.3151651383
 21
61856.87777851678
 31
0.0
  0
LINE
  5
125
330
2F
100
AcDbEntity
  8
PV
  6
Continuous
 62
3
100
AcDbLine
 10
416965.9628099021
 20
61871.0712789499
 30
0.0
 11
416985.7303846902
 21
61871.0712789499
 31
0.0
  0
LINE
  5
126
330
2F
100
AcDbEntity
  8
PV
  6
Continuous
 62
3
100
AcDbLine
 10
416978.8318737825
 20
61849.47693668322
 30
0.0
 11
416978.8318737825
 21
61815.29714434844
 31
0.0
  0
LINE
  5
127
330
2F
100
AcDbEntity
  8
PV
  6
Continuous
 62
3
100
AcDbLine
 10
416980.747074936
 20
61842.80352736887
 30
0.0
 11
416980.747074936
 21
61811.38757248612
 31
0.0
  0
ARC
  5
128
330
2F
100
AcDbEntity
  8
PV
  6
Continuous
 62
3
100
AcDbCircle
 10
416975.5096672797
 20
61815.29714434844
 30
0.0
 40
3.322206502604084
100
AcDbArc
 50
253.6451562652737
 51
0.0
  0
LINE
  5
129
330
2F
100
AcDbEntity
  8
PV
  6
Continuous
 62
3
100
AcDbLine
 10
416978.8318737825
 20
61846.15473018046
 30
0.0
 11
416980.747074936
 21
61842.80352736887
 31
0.0
  0
LINE
  5
12A
330
2F
100
AcDbEntity
  8
PV
  6
Continuous
 62
3
100
AcDbLine
 10
416984.0692814378
 20
61849.47693668322
 30
0.0
 11
416978.8318737825
 21
61849.47693668322
 31
0.0
  0
ARC
  5
12B
330
2F
100
AcDbEntity
  8
PV
  6
Continuous
 62
3
100
AcDbCircle
 10
416984.0692814378
 20
61851.13803993463
 30
0.0
 40
1.661103251302042
100
AcDbArc
 50
270.0
 51
0.0
  0
ARC
  5
12C
330
2F
100
AcDbEntity
  8
PV
  6
Continuous
 62
3
100
AcDbCircle
 10
416979.2516359114
 20
61828.04824597126
 30
0.0
 40
16.61103251302042
100
AcDbArc
 50
180.0
 51
253.6450477541055
  0
LINE
  5
12D
330
2F
100
AcDbEntity
  8
PV
  6
Continuous
 62
3
100
AcDbLine
 10
416962.6406033994
 20
61874.39348545269
 30
0.0
 11
416962.6406033994
 21
61828.04824597126
 31
0.0
  0
LINE
  5
12E
330
2F
100
AcDbEntity
  8
PV
  6
Continuous
 62
3
100
AcDbLine
 10
416985.7303846902
 20
61871.0712789499
 30
0.0
 11
416985.7303846902
 21
61851.13803993463
 31
0.0
  0
LINE
  5
12F
330
2F
100
AcDbEntity
  8
PV
  6
Continuous
 62
3
100
AcDbLine
 10
416996.4642490535
 20
61861.98785789747
 30
0.0
 11
416992.7478877489
 21
61861.98785789747
 31
0.0
  0
ARC
  5
130
330
2F
100
AcDbEntity
  8
PV
  6
Continuous
 62
3
100
AcDbCircle
 10
416998.7868922823
 20
61859.20042174699
 30
0.0
 40
2.322725815651695
100
AcDbArc
 50
180.0
 51
270.0
  0
LINE
  5
131
330
2F
100
AcDbEntity
  8
PV
  6
Continuous
 62
3
100
AcDbLine
 10
416996.4642490535
 20
61861.98785789747
 30
0.0
 11
416996.4642490535
 21
61859.20042174699
 31
0.0
  0
LINE
  5
132
330
2F
100
AcDbEntity
  8
PV
  6
Continuous
 62
3
100
AcDbLine
 10
417003.896971663
 20
61853.16141721203
 30
0.0
 11
416998.7868922823
 21
61853.16141721203
 31
0.0
  0
LINE
  5
133
330
2F
100
AcDbEntity
  8
PV
  6
Continuous
 62
3
100
AcDbLine
 10
417003.896971663
 20
61856.87777851678
 30
0.0
 11
416998.7868922823
 21
61856.87777851678
 31
0.0
  0
LINE
  5
134
330
2F
100
AcDbEntity
  8
PV
  6
Continuous
 62
3
100
AcDbLine
 10
416992.7478877489
 20
61861.98785789747
 30
0.0
 11
416992.7478877489
 21
61859.20042174699
 31
0.0
  0
LINE
  5
135
330
2F
100
AcDbEntity
  8
PV
  6
Continuous
 62
3
100
AcDbLine
 10
416996.4642490535
 20
61848.05133783183
 30
0.0
 11
416992.7478877489
 21
61848.05133783183
 31
0.0
  0
LINE
  5
136
330
2F
100
AcDbEntity
  8
PV
  6
Continuous
 62
3
100
AcDbLine
 10
416996.4642490535
 20
61850.83877398231
 30
0.0
 11
416996.4642490535
 21
61848.05133783183
 31
0.0
  0
LINE
  5
137
330
2F
100
AcDbEntity
  8
PV
  6
Continuous
 62
3
100
AcDbLine
 10
416992.7478877489
 20
61850.83877398231
 30
0.0
 11
416992.7478877489
 21
61848.05133783183
 31
0.0
  0
ARC
  5
138
330
2F
100
AcDbEntity
  8
PV
  6
Continuous
 62
3
100
AcDbCircle
 10
416998.7868922823
 20
61850.83877398231
 30
0.0
 40
2.322725815651695
100
AcDbArc
 50
89.99979999685326
 51
180.0
  0
CIRCLE
  5
139
330
2F
100
AcDbEntity
  8
PV
  6
Continuous
 62
3
100
AcDbCircle
 10
416994.6060684011
 20
61855.01959786441
 30
0.0
 40
9.290903262606776
  0
ARC
  5
13A
330
2F
100
AcDbEntity
  8
PV
  6
Continuous
 62
3
100
AcDbCircle
 10
416990.4249141743
 20
61859.20042174699
 30
0.0
 40
2.322725815651695
100
AcDbArc
 50
270.0
 51
0.0
  0
ARC
  5
13B
330
2F
100
AcDbEntity
  8
PV
  6
Continuous
 62
3
100
AcDbCircle
 10
416990.4249141743
 20
61850.83877398231
 30
0.0
 40
2.322725815651695
100
AcDbArc
 50
0.0
 51
89.99979999685326
  0
ARC
  5
13C
330
2F
100
AcDbEntity
  8
PV
  6
Continuous
 62
3
100
AcDbCircle
 10
416977.4248684332
 20
61811.38757248612
 30
0.0
 40
3.322206502604084
100
AcDbArc
 50
270.0
 51
0.0
  0
LINE
  5
13D
330
2F
100
AcDbEntity
  8
PV
 62
3
100
AcDbLine
 10
416910.7335681872
 20
61645.76538366934
 30
0.0
 11
416910.7335681872
 21
61564.83129302616
 31
0.0
  0
LINE
  5
13E
330
2F
100
AcDbEntity
  8
PV
 62
3
100
AcDbLine
 10
416860.5213976656
 20
61587.29463246994
 30
0.0
 11
416910.7335681872
 21
61587.29463246994
 31
0.0
  0
LINE
  5
13F
330
2F
100
AcDbEntity
  8
PV
 62
3
100
AcDbLine
 10
416860.5213976656
 20
61581.34845438197
 30
0.0
 11
416910.7335681872
 21
61581.34845438197
 31
0.0
  0
LINE
  5
140
330
2F
100
AcDbEntity
  8
PV
 62
3
100
AcDbLine
 10
416854.5752195775
 20
61584.32154342596
 30
0.0
 11
416860.5213976656
 21
61581.34845438197
 31
0.0
  0
LINE
  5
141
330
2F
100
AcDbEntity
  8
PV
 62
3
100
AcDbLine
 10
416854.5752195775
 20
61584.32154342596
 30
0.0
 11
416860.5213976656
 21
61587.29463246994
 31
0.0
  0
LINE
  5
142
330
2F
100
AcDbEntity
  8
PV
 62
3
100
AcDbLine
 10
416860.5213976656
 20
61629.24822231398
 30
0.0
 11
416910.7335681872
 21
61629.24822231398
 31
0.0
  0
LINE
  5
143
330
2F
100
AcDbEntity
  8
PV
 62
3
100
AcDbLine
 10
416860.5213976656
 20
61623.30204422602
 30
0.0
 11
416910.7335681872
 21
61623.30204422602
 31
0.0
  0
LINE
  5
144
330
2F
100
AcDbEntity
  8
PV
 62
3
100
AcDbLine
 10
416854.5752195775
 20
61626.27513327
 30
0.0
 11
416860.5213976656
 21
61623.30204422602
 31
0.0
  0
LINE
  5
145
330
2F
100
AcDbEntity
  8
PV
 62
3
100
AcDbLine
 10
416854.5752195775
 20
61626.27513327
 30
0.0
 11
416860.5213976656
 21
61629.24822231398
 31
0.0
  0
LINE
  5
146
330
2F
100
AcDbEntity
  8
PV
  6
Continuous
 62
2
100
AcDbLine
 10
417241.5402853903
 20
62362.75784133577
 30
0.0
 11
416975.7637651819
 21
62362.75784133577
 31
0.0
  0
LINE
  5
147
330
2F
100
AcDbEntity
  8
PV
  6
Continuous
 62
3
100
AcDbLine
 10
417188.3849813477
 20
62268.0749560112
 30
0.0
 11
417028.9190692225
 21
62268.0749560112
 31
0.0
  0
LINE
  5
148
330
2F
100
AcDbEntity
  8
PV
  6
Continuous
 62
3
100
AcDbLine
 10
417231.6580187823
 20
62352.87554938084
 30
0.0
 11
416985.6460571359
 21
62352.87554938084
 31
0.0
  0
ARC
  5
149
330
2F
100
AcDbEntity
  8
PV
  6
Continuous
 62
3
100
AcDbCircle
 10
417231.6580187823
 20
62336.26451686787
 30
0.0
 40
16.61103251302042
100
AcDbArc
 50
0.0
 51
90.0
  0
ARC
  5
14A
330
2F
100
AcDbEntity
  8
PV
  6
Continuous
 62
3
100
AcDbCircle
 10
417188.3849813477
 20
62264.75274950843
 30
0.0
 40
3.322206502604084
100
AcDbArc
 50
0.0
 51
90.0
  0
ARC
  5
14B
330
2F
100
AcDbEntity
  8
PV
  6
Continuous
 62
2
100
AcDbCircle
 10
417241.5402853903
 20
62346.14680882233
 30
0.0
 40
16.61103251302042
100
AcDbArc
 50
0.0
 51
90.0
  0
ARC
  5
14C
330
2F
100
AcDbEntity
  8
PV
  6
Continuous
 62
3
100
AcDbCircle
 10
416985.6460571359
 20
62336.26451686787
 30
0.0
 40
16.61103251302042
100
AcDbArc
 50
90.0
 51
180.0
  0
ARC
  5
14D
330
2F
100
AcDbEntity
  8
PV
  6
Continuous
 62
3
100
AcDbCircle
 10
417028.9190692225
 20
62264.75274950843
 30
0.0
 40
3.322206502604084
100
AcDbArc
 50
90.0
 51
180.0
  0
ARC
  5
14E
330
2F
100
AcDbEntity
  8
PV
  6
Continuous
 62
2
100
AcDbCircle
 10
416975.7637651819
 20
62346.14680882233
 30
0.0
 40
16.61103251302042
100
AcDbArc
 50
90.0
 51
180.0
  0
LINE
  5
14F
330
2F
100
AcDbEntity
  8
PV
 62
3
100
AcDbLine
 10
417095.9322398887
 20
61614.58924161054
 30
0.0
 11
417099.1259982078
 21
61612.28443691478
 31
0.0
  0
LINE
  5
150
330
2F
100
AcDbEntity
  8
PV
 62
3
100
AcDbLine
 10
417099.1259982078
 20
61612.28443691478
 30
0.0
 11
417100.5775263473
 21
61609.94395515107
 31
0.0
  0
LINE
  5
151
330
2F
100
AcDbEntity
  8
PV
 62
3
100
AcDbLine
 10
417100.5775263473
 20
61609.94395515107
 30
0.0
 11
417099.1259982078
 21
61607.56746597512
 31
0.0
  0
LINE
  5
152
330
2F
100
AcDbEntity
  8
PV
 62
3
100
AcDbLine
 10
417099.1259982078
 20
61607.56746597512
 30
0.0
 11
417095.9322398887
 21
61605.29833834775
 31
0.0
  0
LINE
  5
153
330
2F
100
AcDbEntity
  8
PV
 62
3
100
AcDbLine
 10
417095.9322398887
 20
61605.29833834775
 30
0.0
 11
417092.7384815676
 21
61603.17224933829
 31
0.0
  0
LINE
  5
154
330
2F
100
AcDbEntity
  8
PV
 62
3
100
AcDbLine
 10
417092.7384815676
 20
61603.17224933829
 30
0.0
 11
417091.2866230854
 21
61600.65305188827
 31
0.0
  0
LINE
  5
155
330
2F
100
AcDbEntity
  8
PV
 62
3
100
AcDbLine
 10
417091.2866230854
 20
61600.65305188827
 30
0.0
 11
417092.7384815676
 21
61597.59770738071
 31
0.0
  0
LINE
  5
156
330
2F
100
AcDbEntity
  8
PV
 62
3
100
AcDbLine
 10
417092.7384815676
 20
61597.59770738071
 30
0.0
 11
417095.9322398887
 21
61596.00743508542
 31
0.0
  0
LINE
  5
157
330
2F
100
AcDbEntity
  8
PV
 62
3
100
AcDbLine
 10
417095.9322398887
 20
61596.00743508542
 30
0.0
 11
417099.1259982078
 21
61597.57986884628
 31
0.0
  0
LINE
  5
158
330
2F
100
AcDbEntity
  8
PV
 62
3
100
AcDbLine
 10
417099.1259982078
 20
61597.57986884628
 30
0.0
 11
417100.5775263473
 21
61600.65305188827
 31
0.0
  0
LINE
  5
159
330
2F
100
AcDbEntity
  8
PV
 62
3
100
AcDbLine
 10
417100.5775263473
 20
61600.65305188827
 30
0.0
 11
417099.1259982078
 21
61603.22576494112
 31
0.0
  0
LINE
  5
15A
330
2F
100
AcDbEntity
  8
PV
 62
3
100
AcDbLine
 10
417099.1259982078
 20
61603.22576494112
 30
0.0
 11
417095.9322398887
 21
61605.29833834775
 31
0.0
  0
LINE
  5
15B
330
2F
100
AcDbEntity
  8
PV
 62
3
100
AcDbLine
 10
417177.7426455948
 20
61660.88023802608
 30
0.0
 11
417175.4378408999
 21
61657.68647970648
 31
0.0
  0
LINE
  5
15C
330
2F
100
AcDbEntity
  8
PV
 62
3
100
AcDbLine
 10
417175.4378408999
 20
61657.68647970648
 30
0.0
 11
417173.0973591361
 21
61656.23462122322
 31
0.0
  0
LINE
  5
15D
330
2F
100
AcDbEntity
  8
PV
 62
3
100
AcDbLine
 10
417173.0973591361
 20
61656.23462122322
 30
0.0
 11
417170.7208699597
 21
61657.68647970648
 31
0.0
  0
LINE
  5
15E
330
2F
100
AcDbEntity
  8
PV
 62
3
100
AcDbLine
 10
417170.7208699597
 20
61657.68647970648
 30
0.0
 11
417168.4517423329
 21
61660.88023802608
 31
0.0
  0
LINE
  5
15F
330
2F
100
AcDbEntity
  8
PV
 62
3
100
AcDbLine
 10
417168.4517423329
 20
61660.88023802608
 30
0.0
 11
417166.3256533235
 21
61664.07399634615
 31
0.0
  0
LINE
  5
160
330
2F
100
AcDbEntity
  8
PV
 62
3
100
AcDbLine
 10
417166.3256533235
 20
61664.07399634615
 30
0.0
 11
417163.8064558725
 21
61665.52552448602
 31
0.0
  0
LINE
  5
161
330
2F
100
AcDbEntity
  8
PV
 62
3
100
AcDbLine
 10
417163.8064558725
 20
61665.52552448602
 30
0.0
 11
417160.7511113663
 21
61664.07399634615
 31
0.0
  0
LINE
  5
162
330
2F
100
AcDbEntity
  8
PV
 62
3
100
AcDbLine
 10
417160.7511113663
 20
61664.07399634615
 30
0.0
 11
417159.1608390701
 21
61660.88023802608
 31
0.0
  0
LINE
  5
163
330
2F
100
AcDbEntity
  8
PV
 62
3
100
AcDbLine
 10
417159.1608390701
 20
61660.88023802608
 30
0.0
 11
417160.7332728314
 21
61657.68647970648
 31
0.0
  0
LINE
  5
164
330
2F
100
AcDbEntity
  8
PV
 62
3
100
AcDbLine
 10
417160.7332728314
 20
61657.68647970648
 30
0.0
 11
417163.8064558725
 21
61656.23462122322
 31
0.0
  0
LINE
  5
165
330
2F
100
AcDbEntity
  8
PV
 62
3
100
AcDbLine
 10
417163.8064558725
 20
61656.23462122322
 30
0.0
 11
417166.3791689254
 21
61657.68647970648
 31
0.0
  0
LINE
  5
166
330
2F
100
AcDbEntity
  8
PV
 62
3
100
AcDbLine
 10
417166.3791689254
 20
61657.68647970648
 30
0.0
 11
417168.4517423329
 21
61660.88023802608
 31
0.0
  0
ENDBLK
  5
31
330
2F
100
AcDbEntity
  8
0
100
AcDbBlockEnd
  0
ENDSEC
  0
SECTION
  2
ENTITIES
  0
INSERT
  5
169
330
17
100
AcDbEntity
  8
0
100
AcDbBlockReference
  2
PS-2420S
 10
-416854.5752195775
 20
-61564.83129302616
 30
0.0
  0
ENDSEC
  0
SECTION
  2
OBJECTS
  0
DICTIONARY
  5
A
330
0
100
AcDbDictionary
281
1
  3
ACAD_COLOR
350
B
  3
ACAD_GROUP
350
C
  3
ACAD_LAYOUT
350
D
  3
ACAD_MATERIAL
350
E
  3
ACAD_MLEADERSTYLE
350
F
  3
ACAD_MLINESTYLE
350
10
  3
ACAD_PLOTSETTINGS
350
11
  3
ACAD_PLOTSTYLENAME
350
12
  3
ACAD_SCALELIST
350
14
  3
ACAD_TABLESTYLE
350
15
  3
ACAD_VISUALSTYLE
350
16
  3
EZDXF_META
350
2D
  0
DICTIONARY
  5
B
330
A
100
AcDbDictionary
281
1
  0
DICTIONARY
  5
C
330
A
100
AcDbDictionary
281
1
  0
DICTIONARY
  5
D
330
A
100
AcDbDictionary
281
1
  3
Model
350
1A
  3
Layout1
350
1E
  0
DICTIONARY
  5
E
330
A
100
AcDbDictionary
281
1
  3
ByBlock
350
1F
  3
ByLayer
350
20
  3
Global
350
21
  0
DICTIONARY
  5
F
330
A
100
AcDbDictionary
281
1
  3
Standard
350
2C
  0
DICTIONARY
  5
10
330
A
100
AcDbDictionary
281
1
  3
Standard
350
22
  0
DICTIONARY
  5
11
330
A
100
AcDbDictionary
281
1
  0
ACDBDICTIONARYWDFLT
  5
12
330
A
100
AcDbDictionary
281
1
  3
Normal
350
13
100
AcDbDictionaryWithDefault
340
13
  0
ACDBPLACEHOLDER
  5
13
330
12
  0
DICTIONARY
  5
14
330
A
100
AcDbDictionary
281
1
  0
DICTIONARY
  5
15
330
A
100
AcDbDictionary
281
1
  0
DICTIONARY
  5
16
330
A
100
AcDbDictionary
281
1
  0
LAYOUT
  5
1A
330
D
100
AcDbPlotSettings
  1

  4
A3
  6

 40
7.5
 41
20.0
 42
7.5
 43
20.0
 44
420.0
 45
297.0
 46
0.0
 47
0.0
 48
0.0
 49
0.0
140
0.0
141
0.0
142
1.0
143
1.0
 70
1024
 72
1
 73
0
 74
5
  7

 75
16
 76
0
 77
2
 78
300
147
1.0
148
0.0
149
0.0
100
AcDbLayout
  1
Model
 70
1
 71
0
 10
0.0
 20
0.0
 11
420.0
 21
297.0
 12
0.0
 22
0.0
 32
0.0
 14
1e+20
 24
1e+20
 34
1e+20
 15
-1e+20
 25
-1e+20
 35
-1e+20
146
0.0
 13
0.0
 23
0.0
 33
0.0
 16
1.0
 26
0.0
 36
0.0
 17
0.0
 27
1.0
 37
0.0
 76
1
330
17
  0
LAYOUT
  5
1E
330
D
100
AcDbPlotSettings
  1

  4
A3
  6

 40
7.5
 41
20.0
 42
7.5
 43
20.0
 44
420.0
 45
297.0
 46
0.0
 47
0.0
 48
0.0
 49
0.0
140
0.0
141
0.0
142
1.0
143
1.0
 70
0
 72
1
 73
0
 74
5
  7

 75
16
 76
0
 77
2
 78
300
147
1.0
148
0.0
149
0.0
100
AcDbLayout
  1
Layout1
 70
1
 71
1
 10
0.0
 20
0.0
 11
420.0
 21
297.0
 12
0.0
 22
0.0
 32
0.0
 14
1e+20
 24
1e+20
 34
1e+20
 15
-1e+20
 25
-1e+20
 35
-1e+20
146
0.0
 13
0.0
 23
0.0
 33
0.0
 16
1.0
 26
0.0
 36
0.0
 17
0.0
 27
1.0
 37
0.0
 76
1
330
1B
  0
MATERIAL
  5
1F
102
{ACAD_REACTORS
330
E
102
}
330
E
100
AcDbMaterial
  1
ByBlock
  2

 70
0
 40
1.0
 71
1
 41
1.0
 91
-1023410177
 42
1.0
 72
1
  3

 73
1
 74
1
 75
1
 44
0.5
 73
0
 45
1.0
 46
1.0
 77
1
  4

 78
1
 79
1
170
1
 48
1.0
171
1
  6

172
1
173
1
174
1
140
1.0
141
1.0
175
1
  7

176
1
177
1
178
1
143
1.0
179
1
  8

270
1
271
1
272
1
145
1.0
146
1.0
273
1
  9

274
1
275
1
276
1
 42
1.0
 72
1
  3

 73
1
 74
1
 75
1
 94
63
  0
MATERIAL
  5
20
102
{ACAD_REACTORS
330
E
102
}
330
E
100
AcDbMaterial
  1
ByLayer
  2

 70
0
 40
1.0
 71
1
 41
1.0
 91
-1023410177
 42
1.0
 72
1
  3

 73
1
 74
1
 75
1
 44
0.5
 73
0
 45
1.0
 46
1.0
 77
1
  4

 78
1
 79
1
170
1
 48
1.0
171
1
  6

172
1
173
1
174
1
140
1.0
141
1.0
175
1
  7

176
1
177
1
178
1
143
1.0
179
1
  8

270
1
271
1
272
1
145
1.0
146
1.0
273
1
  9

274
1
275
1
276
1
 42
1.0
 72
1
  3

 73
1
 74
1
 75
1
 94
63
  0
MATERIAL
  5
21
102
{ACAD_REACTORS
330
E
102
}
330
E
100
AcDbMaterial
  1
Global
  2

 70
0
 40
1.0
 71
1
 41
1.0
 91
-1023410177
 42
1.0
 72
1
  3

 73
1
 74
1
 75
1
 44
0.5
 73
0
 45
1.0
 46
1.0
 77
1
  4

 78
1
 79
1
170
1
 48
1.0
171
1
  6

172
1
173
1
174
1
140
1.0
141
1.0
175
1
  7

176
1
177
1
178
1
143
1.0
179
1
  8

270
1
271
1
272
1
145
1.0
146
1.0
273
1
  9

274
1
275
1
276
1
 42
1.0
 72
1
  3

 73
1
 74
1
 75
1
 94
63
  0
MLINESTYLE
  5
22
102
{ACAD_REACTORS
330
10
102
}
330
10
100
AcDbMlineStyle
  2
Standard
 70
0
  3

 62
256
 51
90.0
 52
90.0
 71
2
 49
0.5
 62
256
  6
BYLAYER
 49
-0.5
 62
256
  6
BYLAYER
  0
MLEADERSTYLE
  5
2C
102
{ACAD_REACTORS
330
F
102
}
330
F
100
AcDbMLeaderStyle
179
2
170
2
171
1
172
0
 90
2
 40
0.0
 41
0.0
173
1
 91
-1056964608
 92
-2
290
1
 42
2.0
291
1
 43
8.0
  3
Standard
 44
4.0
300

342
29
174
1
175
1
176
0
178
1
 93
-1056964608
 45
4.0
292
0
297
0
 46
4.0
 94
-1056964608
 47
1.0
 49
1.0
140
1.0
294
1
141
0.0
177
0
142
1.0
295
0
296
0
143
3.75
271
0
272
9
273
9
  0
DICTIONARY
  5
2D
330
A
100
AcDbDictionary
280
1
281
1
  3
CREATED_BY_EZDXF
350
2E
  3
WRITTEN_BY_EZDXF
350
16D
  0
DICTIONARYVAR
  5
2E
330
2D
100
DictionaryVariables
280
0
  1
1.4.4 @ 2026-09-23T12:53:37.178420+00:00
  0
DICTIONARYVAR
  5
16D
330
2D
100
DictionaryVariables
280
0
  1
1.4.4 @ 2026-09-23T12:53:37.229512+00:00
  0
ENDSEC
  0
EOF
