<svg viewBox="0 0 800.0 1500.0" width="100%" height="100%" xmlns="http://www.w3.org/2000/svg">
<rect x="0" y="0" width="800.0" height="1500.0" fill="#f1f5f9" stroke="#334155" stroke-width="3"/>
<rect x="0" y="0" width="800.0" height="100.0" fill="#0f172a" stroke="#334155" stroke-width="1.5"/>
<text x="400.0" y="54.0" fill="#64748b" font-size="11" font-family="sans-serif" font-weight="bold" text-anchor="middle">CHÂN ĐẾ 100mm</text>
<rect x="15" y="115.0" width="770.0" height="1370.0" rx="4" fill="#e2e8f0" stroke="#64748b" stroke-width="2"/>
<rect x="340.0" y="870.0000000000001" width="120.0" height="75.0" rx="3" fill="#fef08a" stroke="#ca8a04" stroke-width="1.5"/>
<text x="400.0" y="894.0000000000001" fill="#b91c1c" font-size="11" font-family="sans-serif" font-weight="bold" text-anchor="middle">NGUY HIỂM</text>
<text x="400.0" y="914.0000000000001" fill="#1e293b" font-size="9.5" font-family="sans-serif" font-weight="bold" text-anchor="middle">CÓ ĐIỆN 380V</text>
<text x="400.0" y="932.0000000000001" fill="#475569" font-size="7" font-family="sans-serif" text-anchor="middle">KHÔNG PHẬN SỰ MIỄN VÀO</text>
<rect x="755.0" y="730.0" width="20" height="70" rx="3" fill="#475569" stroke="#0f172a" stroke-width="1.5"/>
<circle cx="765.0" cy="750.0" r="4" fill="#cbd5e1"/>
<g transform="translate(340.0, 80.0)"><svg viewBox="0 0 30.0 30.0" width="30.0" height="30.0" xmlns="http://www.w3.org/2000/svg"><circle cx="15.0" cy="15.0" r="14.2" fill="#334155" stroke="#64748b" stroke-width="2"/><circle cx="15.0" cy="15.0" r="12.5" fill="#0f172a"/><circle cx="15.0" cy="15.0" r="10.3" fill="#e53935"/><circle cx="11.9" cy="11.9" r="2.9" fill="#ffffff" opacity="0.4"/><text x="15.0" y="18.5" fill="#ffffff" font-size="8.5" font-family="sans-serif" font-weight="bold" text-anchor="middle">220V</text></svg></g>
<g transform="translate(400.0, 80.0)"><svg viewBox="0 0 30.0 30.0" width="30.0" height="30.0" xmlns="http://www.w3.org/2000/svg"><circle cx="15.0" cy="15.0" r="14.2" fill="#334155" stroke="#64748b" stroke-width="2"/><circle cx="15.0" cy="15.0" r="12.5" fill="#0f172a"/><circle cx="15.0" cy="15.0" r="10.3" fill="#f9a825"/><circle cx="11.9" cy="11.9" r="2.9" fill="#ffffff" opacity="0.4"/><text x="15.0" y="18.5" fill="#ffffff" font-size="8.5" font-family="sans-serif" font-weight="bold" text-anchor="middle">220V</text></svg></g>
<g transform="translate(460.0, 80.0)"><svg viewBox="0 0 30.0 30.0" width="30.0" height="30.0" xmlns="http://www.w3.org/2000/svg"><circle cx="15.0" cy="15.0" r="14.2" fill="#334155" stroke="#64748b" stroke-width="2"/><circle cx="15.0" cy="15.0" r="12.5" fill="#0f172a"/><circle cx="15.0" cy="15.0" r="10.3" fill="#1565c0"/><circle cx="11.9" cy="11.9" r="2.9" fill="#ffffff" opacity="0.4"/><text x="15.0" y="18.5" fill="#ffffff" font-size="8.5" font-family="sans-serif" font-weight="bold" text-anchor="middle">220V</text></svg></g>
<g transform="translate(352.0, 185.0)"><svg viewBox="0 0 96.0 96.0" width="96.0" height="96.0" xmlns="http://www.w3.org/2000/svg"><rect x="2" y="2" width="92.0" height="92.0" rx="4" fill="#1e293b" stroke="#0f172a" stroke-width="2.5"/><rect x="8" y="8" width="80.0" height="49.9" rx="2" fill="#022c22" stroke="#059669" stroke-width="1"/><text x="14" y="22" fill="#34d399" font-size="8" font-family="monospace" font-weight="bold">U: 380.5 V</text><text x="14" y="34" fill="#34d399" font-size="8" font-family="monospace" font-weight="bold">I: 245.2 A</text><text x="14" y="46" fill="#34d399" font-size="8" font-family="monospace" font-weight="bold">P: 158.4 kW</text><circle cx="28.8" cy="76.8" r="4" fill="#475569" stroke="#94a3b8"/><circle cx="48.0" cy="76.8" r="4" fill="#475569" stroke="#94a3b8"/><circle cx="67.2" cy="76.8" r="4" fill="#475569" stroke="#94a3b8"/><text x="48.0" y="91.0" fill="#94a3b8" font-size="7" font-family="sans-serif" text-anchor="middle">MFM 96x96</text></svg></g>
</svg>