  0
SECTION
  2
HEADER
  9
$ACADVER
  1
AC1032
  9
$ACADMAINTVER
 90
4
  9
$DWGCODEPAGE
  3
ANSI_1252
  9
$LASTSAVEDBY
  1
ezdxf
  9
$REQUIREDVERSIONS
160
0
  9
$INSBASE
 10
0.0
 20
0.0
 30
0.0
  9
$EXTMIN
 10
1e+20
 20
1e+20
 30
1e+20
  9
$EXTMAX
 10
-1e+20
 20
-1e+20
 30
-1e+20
  9
$LIMMIN
 10
0.0
 20
0.0
  9
$LIMMAX
 10
420.0
 20
297.0
  9
$ORTHOMODE
 70
0
  9
$REGENMODE
 70
1
  9
$FILLMODE
 70
1
  9
$QTEXTMODE
 70
0
  9
$MIRRTEXT
 70
1
  9
$LTSCALE
 40
1.0
  9
$ATTMODE
 70
1
  9
$TEXTSIZE
 40
2.5
  9
$TRACEWID
 40
1.0
  9
$TEXTSTYLE
  7
Standard
  9
$CLAYER
  8
0
  9
$CELTYPE
  6
ByLayer
  9
$CECOLOR
 62
256
  9
$CELTSCALE
 40
1.0
  9
$DISPSILH
 70
0
  9
$DIMSCALE
 40
1.0
  9
$DIMASZ
 40
2.5
  9
$DIMEXO
 40
0.625
  9
$DIMDLI
 40
3.75
  9
$DIMRND
 40
0.0
  9
$DIMDLE
 40
0.0
  9
$DIMEXE
 40
1.25
  9
$DIMTP
 40
0.0
  9
$DIMTM
 40
0.0
  9
$DIMTXT
 40
2.5
  9
$DIMCEN
 40
2.5
  9
$DIMTSZ
 40
0.0
  9
$DIMTOL
 70
0
  9
$DIMLIM
 70
0
  9
$DIMTIH
 70
0
  9
$DIMTOH
 70
0
  9
$DIMSE1
 70
0
  9
$DIMSE2
 70
0
  9
$DIMTAD
 70
1
  9
$DIMZIN
 70
8
  9
$DIMBLK
  1

  9
$DIMASO
 70
1
  9
$DIMSHO
 70
1
  9
$DIMPOST
  1

  9
$DIMAPOST
  1

  9
$DIMALT
 70
0
  9
$DIMALTD
 70
3
  9
$DIMALTF
 40
0.03937007874
  9
$DIMLFAC
 40
1.0
  9
$DIMTOFL
 70
1
  9
$DIMTVP
 40
0.0
  9
$DIMTIX
 70
0
  9
$DIMSOXD
 70
0
  9
$DIMSAH
 70
0
  9
$DIMBLK1
  1

  9
$DIMBLK2
  1

  9
$DIMSTYLE
  2
ISO-25
  9
$DIMCLRD
 70
0
  9
$DIMCLRE
 70
0
  9
$DIMCLRT
 70
0
  9
$DIMTFAC
 40
1.0
  9
$DIMGAP
 40
0.625
  9
$DIMJUST
 70
0
  9
$DIMSD1
 70
0
  9
$DIMSD2
 70
0
  9
$DIMTOLJ
 70
0
  9
$DIMTZIN
 70
8
  9
$DIMALTZ
 70
0
  9
$DIMALTTZ
 70
0
  9
$DIMUPT
 70
0
  9
$DIMDEC
 70
2
  9
$DIMTDEC
 70
2
  9
$DIMALTU
 70
2
  9
$DIMALTTD
 70
3
  9
$DIMTXSTY
  7
Standard
  9
$DIMAUNIT
 70
0
  9
$DIMADEC
 70
0
  9
$DIMALTRND
 40
0.0
  9
$DIMAZIN
 70
0
  9
$DIMDSEP
 70
44
  9
$DIMATFIT
 70
3
  9
$DIMFRAC
 70
0
  9
$DIMLDRBLK
  1

  9
$DIMLUNIT
 70
2
  9
$DIMLWD
 70
-2
  9
$DIMLWE
 70
-2
  9
$DIMTMOVE
 70
0
  9
$DIMFXL
 40
1.0
  9
$DIMFXLON
 70
0
  9
$DIMJOGANG
 40
0.785398163397
  9
$DIMTFILL
 70
0
  9
$DIMTFILLCLR
 70
0
  9
$DIMARCSYM
 70
0
  9
$DIMLTYPE
  6

  9
$DIMLTEX1
  6

  9
$DIMLTEX2
  6

  9
$DIMTXTDIRECTION
 70
0
  9
$LUNITS
 70
2
  9
$LUPREC
 70
4
  9
$SKETCHINC
 40
1.0
  9
$FILLETRAD
 40
10.0
  9
$AUNITS
 70
0
  9
$AUPREC
 70
2
  9
$MENU
  1
.
  9
$ELEVATION
 40
0.0
  9
$PELEVATION
 40
0.0
  9
$THICKNESS
 40
0.0
  9
$LIMCHECK
 70
0
  9
$CHAMFERA
 40
0.0
  9
$CHAMFERB
 40
0.0
  9
$CHAMFERC
 40
0.0
  9
$CHAMFERD
 40
0.0
  9
$SKPOLY
 70
0
  9
$TDCREATE
 40
2461307.5441203704
  9
$TDUCREATE
 40
2458532.153996898
  9
$TDUPDATE
 40
2461307.5441203704
  9
$TDUUPDATE
 40
2458532.1544311
  9
$TDINDWG
 40
0.0
  9
$TDUSRTIMER
 40
0.0
  9
$USRTIMER
 70
1
  9
$ANGBASE
 50
0.0
  9
$ANGDIR
 70
0
  9
$PDMODE
 70
0
  9
$PDSIZE
 40
0.0
  9
$PLINEWID
 40
0.0
  9
$SPLFRAME
 70
0
  9
$SPLINETYPE
 70
6
  9
$SPLINESEGS
 70
8
  9
$HANDSEED
  5
153
  9
$SURFTAB1
 70
6
  9
$SURFTAB2
 70
6
  9
$SURFTYPE
 70
6
  9
$SURFU
 70
6
  9
$SURFV
 70
6
  9
$UCSBASE
  2

  9
$UCSNAME
  2

  9
$UCSORG
 10
0.0
 20
0.0
 30
0.0
  9
$UCSXDIR
 10
1.0
 20
0.0
 30
0.0
  9
$UCSYDIR
 10
0.0
 20
1.0
 30
0.0
  9
$UCSORTHOREF
  2

  9
$UCSORTHOVIEW
 70
0
  9
$UCSORGTOP
 10
0.0
 20
0.0
 30
0.0
  9
$UCSORGBOTTOM
 10
0.0
 20
0.0
 30
0.0
  9
$UCSORGLEFT
 10
0.0
 20
0.0
 30
0.0
  9
$UCSORGRIGHT
 10
0.0
 20
0.0
 30
0.0
  9
$UCSORGFRONT
 10
0.0
 20
0.0
 30
0.0
  9
$UCSORGBACK
 10
0.0
 20
0.0
 30
0.0
  9
$PUCSBASE
  2

  9
$PUCSNAME
  2

  9
$PUCSORG
 10
0.0
 20
0.0
 30
0.0
  9
$PUCSXDIR
 10
1.0
 20
0.0
 30
0.0
  9
$PUCSYDIR
 10
0.0
 20
1.0
 30
0.0
  9
$PUCSORTHOREF
  2

  9
$PUCSORTHOVIEW
 70
0
  9
$PUCSORGTOP
 10
0.0
 20
0.0
 30
0.0
  9
$PUCSORGBOTTOM
 10
0.0
 20
0.0
 30
0.0
  9
$PUCSORGLEFT
 10
0.0
 20
0.0
 30
0.0
  9
$PUCSORGRIGHT
 10
0.0
 20
0.0
 30
0.0
  9
$PUCSORGFRONT
 10
0.0
 20
0.0
 30
0.0
  9
$PUCSORGBACK
 10
0.0
 20
0.0
 30
0.0
  9
$USERI1
 70
0
  9
$USERI2
 70
0
  9
$USERI3
 70
0
  9
$USERI4
 70
0
  9
$USERI5
 70
0
  9
$USERR1
 40
0.0
  9
$USERR2
 40
0.0
  9
$USERR3
 40
0.0
  9
$USERR4
 40
0.0
  9
$USERR5
 40
0.0
  9
$WORLDVIEW
 70
1
  9
$SHADEDGE
 70
3
  9
$SHADEDIF
 70
70
  9
$TILEMODE
 70
1
  9
$MAXACTVP
 70
64
  9
$PINSBASE
 10
0.0
 20
0.0
 30
0.0
  9
$PLIMCHECK
 70
0
  9
$PEXTMIN
 10
1e+20
 20
1e+20
 30
1e+20
  9
$PEXTMAX
 10
-1e+20
 20
-1e+20
 30
-1e+20
  9
$PLIMMIN
 10
0.0
 20
0.0
  9
$PLIMMAX
 10
420.0
 20
297.0
  9
$UNITMODE
 70
0
  9
$VISRETAIN
 70
1
  9
$PLINEGEN
 70
0
  9
$PSLTSCALE
 70
1
  9
$TREEDEPTH
 70
3020
  9
$CMLSTYLE
  2
Standard
  9
$CMLJUST
 70
0
  9
$CMLSCALE
 40
20.0
  9
$PROXYGRAPHICS
 70
1
  9
$MEASUREMENT
 70
1
  9
$CELWEIGHT
370
-1
  9
$ENDCAPS
280
0
  9
$JOINSTYLE
280
0
  9
$LWDISPLAY
290
0
  9
$INSUNITS
 70
4
  9
$HYPERLINKBASE
  1

  9
$STYLESHEET
  1

  9
$XEDIT
290
1
  9
$CEPSNTYPE
380
0
  9
$PSTYLEMODE
290
1
  9
$FINGERPRINTGUID
  2
{19A37C24-8B50-4F25-9202-0FD7FA7E3104}
  9
$VERSIONGUID
  2
{AD577C7F-65CD-4B86-AD34-3899A525F42F}
  9
$EXTNAMES
290
1
  9
$PSVPSCALE
 40
0.0
  9
$OLESTARTUP
290
0
  9
$SORTENTS
280
127
  9
$INDEXCTL
280
0
  9
$HIDETEXT
280
1
  9
$XCLIPFRAME
280
1
  9
$HALOGAP
280
0
  9
$OBSCOLOR
 70
257
  9
$OBSLTYPE
280
0
  9
$INTERSECTIONDISPLAY
280
0
  9
$INTERSECTIONCOLOR
 70
257
  9
$DIMASSOC
280
2
  9
$PROJECTNAME
  1

  9
$CAMERADISPLAY
290
0
  9
$LENSLENGTH
 40
50.0
  9
$CAMERAHEIGHT
 40
0.0
  9
$STEPSPERSEC
 40
24.0
  9
$STEPSIZE
 40
100.0
  9
$3DDWFPREC
 40
2.0
  9
$PSOLWIDTH
 40
0.005
  9
$PSOLHEIGHT
 40
0.08
  9
$LOFTANG1
 40
1.570796326795
  9
$LOFTANG2
 40
1.570796326795
  9
$LOFTMAG1
 40
0.0
  9
$LOFTMAG2
 40
0.0
  9
$LOFTPARAM
 70
7
  9
$LOFTNORMALS
280
1
  9
$LATITUDE
 40
37.795
  9
$LONGITUDE
 40
-122.394
  9
$NORTHDIRECTION
 40
0.0
  9
$TIMEZONE
 70
-8000
  9
$LIGHTGLYPHDISPLAY
280
1
  9
$TILEMODELIGHTSYNCH
280
1
  9
$CMATERIAL
347
20
  9
$SOLIDHIST
280
0
  9
$SHOWHIST
280
1
  9
$DWFFRAME
280
2
  9
$DGNFRAME
280
2
  9
$REALWORLDSCALE
290
1
  9
$INTERFERECOLOR
 62
256
  9
$CSHADOW
280
0
  9
$SHADOWPLANELOCATION
 40
0.0
  0
ENDSEC
  0
SECTION
  2
CLASSES
  0
CLASS
  1
ACDBDICTIONARYWDFLT
  2
AcDbDictionaryWithDefault
  3
ObjectDBX Classes
 90
0
 91
0
280
0
281
0
  0
CLASS
  1
SUN
  2
AcDbSun
  3
SCENEOE
 90
1153
 91
0
280
0
281
0
  0
CLASS
  1
VISUALSTYLE
  2
AcDbVisualStyle
  3
ObjectDBX Classes
 90
4095
 91
0
280
0
281
0
  0
CLASS
  1
MATERIAL
  2
AcDbMaterial
  3
ObjectDBX Classes
 90
1153
 91
0
280
0
281
0
  0
CLASS
  1
SCALE
  2
AcDbScale
  3
ObjectDBX Classes
 90
1153
 91
0
280
0
281
0
  0
CLASS
  1
TABLESTYLE
  2
AcDbTableStyle
  3
ObjectDBX Classes
 90
4095
 91
0
280
0
281
0
  0
CLASS
  1
MLEADERSTYLE
  2
AcDbMLeaderStyle
  3
ACDB_MLEADERSTYLE_CLASS
 90
4095
 91
0
280
0
281
0
  0
CLASS
  1
DICTIONARYVAR
  2
AcDbDictionaryVar
  3
ObjectDBX Classes
 90
0
 91
0
280
0
281
0
  0
CLASS
  1
CELLSTYLEMAP
  2
AcDbCellStyleMap
  3
ObjectDBX Classes
 90
1152
 91
0
280
0
281
0
  0
CLASS
  1
MENTALRAYRENDERSETTINGS
  2
AcDbMentalRayRenderSettings
  3
SCENEOE
 90
1024
 91
0
280
0
281
0
  0
CLASS
  1
ACDBDETAILVIEWSTYLE
  2
AcDbDetailViewStyle
  3
ObjectDBX Classes
 90
1025
 91
0
280
0
281
0
  0
CLASS
  1
ACDBSECTIONVIEWSTYLE
  2
AcDbSectionViewStyle
  3
ObjectDBX Classes
 90
1025
 91
0
280
0
281
0
  0
CLASS
  1
RASTERVARIABLES
  2
AcDbRasterVariables
  3
ISM
 90
0
 91
0
280
0
281
0
  0
CLASS
  1
LAYOUT
  2
AcDbLayout
  3
ObjectDBX Classes
 90
0
 91
0
280
0
281
0
  0
CLASS
  1
ACDBPLACEHOLDER
  2
AcDbPlaceHolder
  3
ObjectDBX Classes
 90
0
 91
0
280
0
281
0
  0
ENDSEC
  0
SECTION
  2
TABLES
  0
TABLE
  2
VPORT
  5
8
330
0
100
AcDbSymbolTable
 70
1
  0
VPORT
  5
23
330
8
100
AcDbSymbolTableRecord
100
AcDbViewportTableRecord
  2
*Active
 70
0
 10
0.0
 20
0.0
 11
1.0
 21
1.0
 12
0.0
 22
0.0
 13
0.0
 23
0.0
 14
0.5
 24
0.5
 15
0.5
 25
0.5
 16
0.0
 26
0.0
 36
1.0
 17
0.0
 27
0.0
 37
0.0
 40
1000.0
 41
1.34
 42
50.0
 43
0.0
 44
0.0
 50
0.0
 51
0.0
 71
0
 72
1000
 73
1
 74
3
 75
0
 76
0
 77
0
 78
0
281
0
 65
0
146
0.0
  0
ENDTAB
  0
TABLE
  2
LTYPE
  5
2
330
0
100
AcDbSymbolTable
 70
3
  0
LTYPE
  5
24
330
2
100
AcDbSymbolTableRecord
100
AcDbLinetypeTableRecord
  2
ByBlock
 70
0
  3

 72
65
 73
0
 40
0.0
  0
LTYPE
  5
25
330
2
100
AcDbSymbolTableRecord
100
AcDbLinetypeTableRecord
  2
ByLayer
 70
0
  3

 72
65
 73
0
 40
0.0
  0
LTYPE
  5
26
330
2
100
AcDbSymbolTableRecord
100
AcDbLinetypeTableRecord
  2
Continuous
 70
0
  3

 72
65
 73
0
 40
0.0
  0
ENDTAB
  0
TABLE
  2
LAYER
  5
1
330
0
100
AcDbSymbolTable
 70
3
  0
LAYER
  5
27
330
1
100
AcDbSymbolTableRecord
100
AcDbLayerTableRecord
  2
0
 70
0
 62
7
  6
Continuous
370
-3
390
13
347
21
  0
LAYER
  5
28
330
1
100
AcDbSymbolTableRecord
100
AcDbLayerTableRecord
  2
Defpoints
 70
0
 62
7
  6
Continuous
290
0
370
-3
390
13
347
21
  0
LAYER
  5
14C
330
1
100
AcDbSymbolTableRecord
100
AcDbLayerTableRecord
  2
INSIDE
 70
0
 62
6
  6
Continuous
370
-3
390
F
347
98
348
0
  0
ENDTAB
  0
TABLE
  2
STYLE
  5
5
330
0
100
AcDbSymbolTable
 70
2
  0
STYLE
  5
29
330
5
100
AcDbSymbolTableRecord
100
AcDbTextStyleTableRecord
  2
Standard
 70
0
 40
0.0
 41
1.0
 50
0.0
 71
0
 42
2.5
  3
txt
  4

  0
STYLE
  5
14D
330
5
100
AcDbSymbolTableRecord
100
AcDbTextStyleTableRecord
  2
Helvetica-Narrow
 70
0
 40
0.0
 41
1.0
 50
0.0
 71
0
 42
0.2
  3

  4

  0
ENDTAB
  0
TABLE
  2
VIEW
  5
7
330
0
100
AcDbSymbolTable
 70
0
  0
ENDTAB
  0
TABLE
  2
UCS
  5
6
330
0
100
AcDbSymbolTable
 70
0
  0
ENDTAB
  0
TABLE
  2
APPID
  5
3
330
0
100
AcDbSymbolTable
 70
3
  0
APPID
  5
2A
330
3
100
AcDbSymbolTableRecord
100
AcDbRegAppTableRecord
  2
ACAD
 70
0
  0
APPID
  5
150
330
3
100
AcDbSymbolTableRecord
100
AcDbRegAppTableRecord
  2
HATCHBACKGROUNDCOLOR
 70
0
  0
APPID
  5
151
330
3
100
AcDbSymbolTableRecord
100
AcDbRegAppTableRecord
  2
EZDXF
 70
0
  0
ENDTAB
  0
TABLE
  2
DIMSTYLE
  5
4
330
0
100
AcDbSymbolTable
 70
1
100
AcDbDimStyleTable
  0
DIMSTYLE
105
2B
330
4
100
AcDbSymbolTableRecord
100
AcDbDimStyleTableRecord
  2
Standard
 70
0
 40
1.0
 41
2.5
 42
0.625
 43
3.75
 44
1.25
 45
0.0
 46
0.0
 47
0.0
 48
0.0
 49
2.5
140
2.5
141
2.5
142
0.0
143
0.03937007874
144
1.0
145
0.0
146
1.0
147
0.625
148
0.0
 69
0
 70
0
 71
0
 72
0
 73
0
 74
0
 75
0
 76
0
 77
1
 78
8
 79
3
170
0
171
3
172
1
173
0
174
0
175
0
176
0
177
0
178
0
179
2
271
2
272
2
273
2
274
3
275
0
276
0
277
2
278
44
279
0
280
0
281
0
282
0
283
0
284
8
285
0
286
0
288
0
289
3
290
0
371
-2
372
-2
  0
ENDTAB
  0
TABLE
  2
BLOCK_RECORD
  5
9
330
0
100
AcDbSymbolTable
 70
4
  0
BLOCK_RECORD
  5
17
330
9
100
AcDbSymbolTableRecord
100
AcDbBlockTableRecord
  2
*Model_Space
340
1A
 70
0
280
1
281
0
  0
BLOCK_RECORD
  5
1B
330
9
100
AcDbSymbolTableRecord
100
AcDbBlockTableRecord
  2
*Paper_Space
340
1E
 70
0
280
1
281
0
  0
BLOCK_RECORD
  5
2F
330
9
100
AcDbSymbolTableRecord
100
AcDbBlockTableRecord
  2
TỤ KHÔ 20KVA
340
0
 70
0
280
1
281
0
  0
BLOCK_RECORD
  5
140
330
9
100
AcDbSymbolTableRecord
100
AcDbBlockTableRecord
  2
Nuintek
340
0
 70
0
280
1
281
0
  0
ENDTAB
  0
ENDSEC
  0
SECTION
  2
BLOCKS
  0
BLOCK
  5
18
330
17
100
AcDbEntity
  8
0
100
AcDbBlockBegin
  2
*Model_Space
 70
0
 10
0.0
 20
0.0
 30
0.0
  3
*Model_Space
  1

  0
ENDBLK
  5
19
330
17
100
AcDbEntity
  8
0
100
AcDbBlockEnd
  0
BLOCK
  5
1C
330
1B
100
AcDbEntity
  8
0
100
AcDbBlockBegin
  2
*Paper_Space
 70
0
 10
0.0
 20
0.0
 30
0.0
  3
*Paper_Space
  1

  0
ENDBLK
  5
1D
330
1B
100
AcDbEntity
  8
0
100
AcDbBlockEnd
  0
BLOCK
  5
30
330
2F
100
AcDbEntity
  8
0
100
AcDbBlockBegin
  2
TỤ KHÔ 20KVA
 70
0
 10
0.0
 20
0.0
 30
0.0
  3
TỤ KHÔ 20KVA
  1

  0
LWPOLYLINE
  5
32
330
2F
100
AcDbEntity
  8
0
 62
126
100
AcDbPolyline
 90
6
 70
1
 10
-41.33529814786402
 20
37.84272749005913
 10
-41.33529814786402
 20
-176.9299570553935
 42
0.4142135623730951
 10
-41.10798269332394
 20
-177.1572725099408
 10
42.53322944838487
 20
-177.1572725099408
 42
0.3050936777262625
 10
42.80062435748163
 20
-176.9299570553935
 10
42.80062435748163
 20
37.84272749005913
  0
LWPOLYLINE
  5
33
330
2F
100
AcDbEntity
  8
0
 62
150
100
AcDbPolyline
 90
8
 70
1
 10
-17.70184262246425
 20
-26.9910887099627
 10
19.20724828663856
 20
-26.9910887099627
 42
-0.4142135623730951
 10
19.84361192299161
 20
-27.62745234631575
 10
19.84361192299161
 20
-77.26381598268335
 42
-0.4142135623730951
 10
19.20724828663856
 20
-77.90017961905096
 10
-17.70184262246425
 20
-77.90017961905096
 42
-0.4142135623730951
 10
-18.33820625881731
 20
-77.26381598268335
 10
-18.33820625881731
 20
-27.62745234631575
 42
-0.4142135623730951
  0
INSERT
  5
34
330
2F
100
AcDbEntity
  8
0
100
AcDbBlockReference
  2
Nuintek
 10
-5.193330509453744
 20
-32.92324655687981
 30
0.0
 41
1.052729924980667
 42
1.052729924980667
 43
1.052729924980667
  0
TEXT
  5
36
330
2F
100
AcDbEntity
  8
0
100
AcDbText
 10
-14.66268748412525
 20
-39.41599869947889
 30
0.0
 40
2.545454545454478
  1
PowerSH Capacitor
  7
Helvetica-Narrow
 72
1
 11
0.7527028320798764
 21
-38.14327142675166
 31
0.0
100
AcDbText
 73
2
  0
TEXT
  5
37
330
2F
100
AcDbEntity
  8
0
100
AcDbText
 10
-10.70945431044333
 20
-50.52017210217311
 30
0.0
 40
1.590909090909048
  1
V
  7
Helvetica-Narrow
 11
-10.70945431044333
 21
-49.72471755671858
 31
0.0
100
AcDbText
 73
2
  0
LWPOLYLINE
  5
38
330
2F
100
AcDbEntity
  8
0
 62
1
100
AcDbPolyline
 90
4
 70
1
 10
-15.15599118024352
 20
-48.45199028399065
 10
-11.33780936206699
 20
-48.45199028399065
 10
-11.33780936206699
 20
-50.99744482943197
 10
-15.15599118024352
 20
-50.99744482943197
  0
LWPOLYLINE
  5
39
330
2F
100
AcDbEntity
  8
0
 62
1
100
AcDbPolyline
 90
4
 70
1
 10
-15.15599118024352
 20
-51.33728238522735
 10
-11.33780936206699
 20
-51.33728238522735
 10
-11.33780936206699
 20
-53.88273693068322
 10
-15.15599118024352
 20
-53.88273693068322
  0
LWPOLYLINE
  5
3A
330
2F
100
AcDbEntity
  8
0
 62
1
100
AcDbPolyline
 90
4
 70
1
 10
-15.15599118024352
 20
-54.22257448645678
 10
-11.33780936206699
 20
-54.22257448645678
 10
-11.33780936206699
 20
-56.76802903191265
 10
-15.15599118024352
 20
-56.76802903191265
  0
TEXT
  5
3B
330
2F
100
AcDbEntity
  8
0
100
AcDbText
 10
-10.70945431044333
 20
-53.40546420340981
 30
0.0
 40
1.590909090909048
  1
V
  7
Helvetica-Narrow
 11
-10.70945431044333
 21
-52.61000965795529
 31
0.0
100
AcDbText
 73
2
  0
TEXT
  5
3C
330
2F
100
AcDbEntity
  8
0
100
AcDbText
 10
-10.70945431044333
 20
-56.29075630463924
 30
0.0
 40
1.590909090909048
  1
V
  7
Helvetica-Narrow
 11
-10.70945431044333
 21
-55.49530175918471
 31
0.0
100
AcDbText
 73
2
  0
TEXT
  5
3D
330
2F
100
AcDbEntity
  8
0
100
AcDbText
 10
-0.9281515787263288
 20
-50.52017210217311
 30
0.0
 40
1.590909090909048
  1
kvar
  7
Helvetica-Narrow
 11
-0.9281515787263288
 21
-49.72471755671858
 31
0.0
100
AcDbText
 73
2
  0
LWPOLYLINE
  5
3E
330
2F
100
AcDbEntity
  8
0
 62
1
100
AcDbPolyline
 90
4
 70
1
 10
-5.610536634802201
 20
-48.45199028399065
 10
-1.792354816611123
 20
-48.45199028399065
 10
-1.792354816611123
 20
-50.99744482943197
 10
-5.610536634802201
 20
-50.99744482943197
  0
LWPOLYLINE
  5
3F
330
2F
100
AcDbEntity
  8
0
 62
1
100
AcDbPolyline
 90
4
 70
1
 10
-5.610536634802201
 20
-51.33728238522735
 10
-1.792354816611123
 20
-51.33728238522735
 10
-1.792354816611123
 20
-53.88273693068322
 10
-5.610536634802201
 20
-53.88273693068322
  0
LWPOLYLINE
  5
40
330
2F
100
AcDbEntity
  8
0
 62
1
100
AcDbPolyline
 90
4
 70
1
 10
-5.610536634802201
 20
-54.22257448645678
 10
-1.792354816611123
 20
-54.22257448645678
 10
-1.792354816611123
 20
-56.76802903191265
 10
-5.610536634802201
 20
-56.76802903191265
  0
TEXT
  5
41
330
2F
100
AcDbEntity
  8
0
100
AcDbText
 10
-0.9281515787263288
 20
-53.40546420340981
 30
0.0
 40
1.590909090909048
  1
kvar
  7
Helvetica-Narrow
 11
-0.9281515787263288
 21
-52.61000965795529
 31
0.0
100
AcDbText
 73
2
  0
TEXT
  5
42
330
2F
100
AcDbEntity
  8
0
100
AcDbText
 10
-0.9281515787263288
 20
-56.29075630463924
 30
0.0
 40
1.590909090909048
  1
kvar
  7
Helvetica-Narrow
 11
-0.9281515787263288
 21
-55.49530175918471
 31
0.0
100
AcDbText
 73
2
  0
TEXT
  5
43
330
2F
100
AcDbEntity
  8
0
100
AcDbText
 10
9.65418205318906
 20
-50.52017210217311
 30
0.0
 40
1.590909090909048
  1
kvar
  7
Helvetica-Narrow
 11
9.65418205318906
 21
-49.72471755671858
 31
0.0
100
AcDbText
 73
2
  0
LWPOLYLINE
  5
44
330
2F
100
AcDbEntity
  8
0
 62
1
100
AcDbPolyline
 90
4
 70
1
 10
5.207645183388876
 20
-48.45199028399065
 10
9.025827001565403
 20
-48.45199028399065
 10
9.025827001565403
 20
-50.99744482943197
 10
5.207645183388876
 20
-50.99744482943197
  0
LWPOLYLINE
  5
45
330
2F
100
AcDbEntity
  8
0
 62
1
100
AcDbPolyline
 90
4
 70
1
 10
5.207645183388876
 20
-51.33728238522735
 10
9.025827001565403
 20
-51.33728238522735
 10
9.025827001565403
 20
-53.88273693068322
 10
5.207645183388876
 20
-53.88273693068322
  0
LWPOLYLINE
  5
46
330
2F
100
AcDbEntity
  8
0
 62
1
100
AcDbPolyline
 90
4
 70
1
 10
5.207645183388876
 20
-54.22257448645678
 10
9.025827001565403
 20
-54.22257448645678
 10
9.025827001565403
 20
-56.76802903191265
 10
5.207645183388876
 20
-56.76802903191265
  0
TEXT
  5
47
330
2F
100
AcDbEntity
  8
0
100
AcDbText
 10
9.65418205318906
 20
-53.40546420340981
 30
0.0
 40
1.590909090909048
  1
kvar
  7
Helvetica-Narrow
 11
9.65418205318906
 21
-52.61000965795529
 31
0.0
100
AcDbText
 73
2
  0
TEXT
  5
48
330
2F
100
AcDbEntity
  8
0
100
AcDbText
 10
9.65418205318906
 20
-56.29075630463924
 30
0.0
 40
1.590909090909048
  1
kvar
  7
Helvetica-Narrow
 11
9.65418205318906
 21
-55.49530175918471
 31
0.0
100
AcDbText
 73
2
  0
TEXT
  5
49
330
2F
100
AcDbEntity
  8
0
100
AcDbText
 10
-14.38085531069547
 20
-47.35604665468155
 30
0.0
 40
1.272727272727239
  1
Un
  7
Helvetica-Narrow
 72
1
 11
-13.24690027116981
 21
-46.71968301831793
 31
0.0
100
AcDbText
 73
2
  0
TEXT
  5
4A
330
2F
100
AcDbEntity
  8
0
100
AcDbText
 10
-4.394318676040938
 20
-47.35604665468155
 30
0.0
 40
1.272727272727239
  1
Qn / 50Hz
  7
Helvetica-Narrow
 11
-4.394318676040938
 21
-46.71968301831793
 31
0.0
100
AcDbText
 73
2
  0
TEXT
  5
4B
330
2F
100
AcDbEntity
  8
0
100
AcDbText
 10
6.423863142135587
 20
-47.35604665468155
 30
0.0
 40
1.272727272727239
  1
Qn / 60Hz
  7
Helvetica-Narrow
 11
6.423863142135587
 21
-46.71968301831793
 31
0.0
100
AcDbText
 73
2
  0
LWPOLYLINE
  5
4C
330
2F
100
AcDbEntity
  8
0
 62
1
100
AcDbPolyline
 90
4
 70
1
 10
-8.474172998434597
 20
-42.49589186500952
 10
1.071281547035823
 20
-42.49589186500952
 10
1.071281547035823
 20
-45.04134641046539
 10
-8.474172998434597
 20
-45.04134641046539
  0
TEXT
  5
4D
330
2F
100
AcDbEntity
  8
0
100
AcDbText
 10
-14.38085531069547
 20
-44.40498277410108
 30
0.0
 40
1.272727272727239
  1
Un
  7
Helvetica-Narrow
 72
1
 11
-13.24690027116981
 21
-43.76861913773746
 31
0.0
100
AcDbText
 73
2
  0
TEXT
  5
4E
330
2F
100
AcDbEntity
  8
0
100
AcDbText
 10
1.935484784906066
 20
-44.56407368319198
 30
0.0
 40
1.590909090909048
  1
uF
  7
Helvetica-Narrow
 11
1.935484784906066
 21
-43.76861913773746
 31
0.0
100
AcDbText
 73
2
  0
TEXT
  5
4F
330
2F
100
AcDbEntity
  8
0
100
AcDbText
 10
5.145857966959511
 20
-44.56407368319198
 30
0.0
 40
1.590909090909048
  1
-5 ~+ 10%%%
  7
Helvetica-Narrow
 11
5.145857966959511
 21
-43.76861913773746
 31
0.0
100
AcDbText
 73
2
  0
LWPOLYLINE
  5
50
330
2F
100
AcDbEntity
  8
0
 62
0
370
30
100
AcDbPolyline
 90
3
 70
1
 10
13.69593456261259
 20
-44.53588524853103
 10
15.56074662319202
 20
-44.53588524853103
 10
14.62834059288775
 20
-42.92100980440728
  0
TEXT
  5
51
330
2F
100
AcDbEntity
  8
0
100
AcDbText
 10
-13.24690027116981
 20
-59.65621566357733
 30
0.0
 40
1.590909090909048
  1
Overpressure Disconnector
  7
Helvetica-Narrow
 11
-13.24690027116981
 21
-58.86076111812281
 31
0.0
100
AcDbText
 73
2
  0
LWPOLYLINE
  5
52
330
2F
100
AcDbEntity
  8
0
 62
1
100
AcDbPolyline
 90
4
 70
1
 10
-13.24690027116981
 20
-63.57989746098747
 10
12.20764518338887
 20
-63.57989746098747
 10
12.20764518338887
 20
-66.12535200643606
 10
-13.24690027116981
 20
-66.12535200643606
  0
TEXT
  5
53
330
2F
100
AcDbEntity
  8
0
100
AcDbText
 10
-13.24690027116981
 20
-62.36226087304387
 30
0.0
 40
1.590909090909048
  1
Dry Type       Non PCB
  7
Helvetica-Narrow
 11
-13.24690027116981
 21
-61.56680632758934
 31
0.0
100
AcDbText
 73
2
  0
TEXT
  5
54
330
2F
100
AcDbEntity
  8
0
100
AcDbText
 10
-13.24690027116981
 20
-68.68224265239407
 30
0.0
 40
1.590909090909048
  1
Serial No.
  7
Helvetica-Narrow
 11
-13.24690027116981
 21
-67.88678810693955
 31
0.0
100
AcDbText
 73
2
  0
TEXT
  5
55
330
2F
100
AcDbEntity
  8
0
100
AcDbText
 10
-13.24690027116981
 20
-72.3487214611768
 30
0.0
 40
1.909090909090858
  1
NUINTEK CO., LTD.
  7
Helvetica-Narrow
 11
-13.24690027116981
 21
-71.39417600663135
 31
0.0
100
AcDbText
 73
2
  0
TEXT
  5
56
330
2F
100
AcDbEntity
  8
0
100
AcDbText
 10
-13.24690027116981
 20
-75.5512462363503
 30
0.0
 40
1.909090909090858
  1
Made in KOREA
  7
Helvetica-Narrow
 11
-13.24690027116981
 21
-74.59670078180488
 31
0.0
100
AcDbText
 73
2
  0
LINE
  5
57
330
2F
100
AcDbEntity
  8
0
 62
126
100
AcDbLine
 10
20.47997555935922
 20
46.90562129360341
 30
0.0
 11
-18.97456989518491
 21
46.90562129360341
 31
0.0
  0
LINE
  5
58
330
2F
100
AcDbEntity
  8
0
 62
126
100
AcDbLine
 10
-0.5437225004827724
 20
79.64957166047543
 30
0.0
 11
0.7949887705215133
 21
79.64957166047543
 31
0.0
  0
LINE
  5
59
330
2F
100
AcDbEntity
  8
0
 62
126
100
AcDbLine
 10
-6.961028086454689
 20
79.64957166047543
 30
0.0
 11
-5.622316815464955
 21
79.64957166047543
 31
0.0
  0
LINE
  5
5A
330
2F
100
AcDbEntity
  8
0
 62
126
100
AcDbLine
 10
7.29230809440537
 20
79.64957166047543
 30
0.0
 11
8.243357566567054
 21
79.64957166047543
 31
0.0
  0
LINE
  5
5B
330
2F
100
AcDbEntity
  8
0
 62
126
100
AcDbLine
 10
19.54772452899829
 20
78.1774875176402
 30
0.0
 11
-18.04231886482398
 21
78.1774875176402
 31
0.0
  0
LINE
  5
5C
330
2F
100
AcDbEntity
  8
0
 62
126
100
AcDbLine
 10
-17.14562464995492
 20
50.52421631474726
 30
0.0
 11
-15.80058332762223
 21
51.4657452403685
 31
0.0
  0
LINE
  5
5D
330
2F
100
AcDbEntity
  8
0
 62
126
100
AcDbLine
 10
-8.178682501177036
 20
50.52421631474726
 30
0.0
 11
-9.523723823495175
 21
51.4657452403685
 31
0.0
  0
LINE
  5
5E
330
2F
100
AcDbEntity
  8
0
 62
126
100
AcDbLine
 10
-17.14562464995492
 20
60.02917499242767
 30
0.0
 11
-15.80058332762223
 21
59.0876460668137
 31
0.0
  0
LINE
  5
5F
330
2F
100
AcDbEntity
  8
0
 62
126
100
AcDbLine
 10
-8.178682501177036
 20
60.02917499242767
 30
0.0
 11
-9.523723823495175
 21
59.0876460668137
 31
0.0
  0
LINE
  5
60
330
2F
100
AcDbEntity
  8
0
 62
126
100
AcDbLine
 10
-9.923267405709566
 20
58.32545599274317
 30
0.0
 11
-15.39707093093261
 21
58.32545599274317
 31
0.0
  0
LINE
  5
61
330
2F
100
AcDbEntity
  8
0
 62
126
100
AcDbLine
 10
-13.64840712943646
 20
52.51490322003383
 30
0.0
 11
-15.39707093093261
 21
53.19028248782569
 31
0.0
  0
LINE
  5
62
330
2F
100
AcDbEntity
  8
0
 62
126
100
AcDbLine
 10
-11.49301400573699
 20
52.51544512854025
 30
0.0
 11
-9.923267405709566
 21
53.12646524352612
 31
0.0
  0
LWPOLYLINE
  5
63
330
2F
100
AcDbEntity
  8
0
 62
126
100
AcDbPolyline
 90
6
 70
1
 10
-18.04231886482398
 20
64.40272093048998
 42
-0.4142135623730951
 10
-17.5939717573749
 20
64.8510680379245
 10
-17.5939717573749
 20
64.8510680379245
 42
-0.4142135623730951
 10
-17.14562464995492
 20
64.40272093048998
 10
-17.14562464995492
 20
60.92586920729672
 10
-18.04231886482398
 20
60.92586920729672
  0
LINE
  5
64
330
2F
100
AcDbEntity
  8
0
 62
126
100
AcDbLine
 10
-8.178682501177036
 20
49.62752209986366
 30
0.0
 11
-8.178682501177036
 21
48.10497996296044
 31
0.0
  0
ARC
  5
65
330
2F
100
AcDbEntity
  8
0
 62
126
100
AcDbCircle
 10
-7.730335393742507
 20
48.10497996296044
 30
0.0
 40
0.4483471074379269
100
AcDbArc
 50
180.0
 51
270.0
  0
ARC
  5
66
330
2F
100
AcDbEntity
  8
0
 62
126
100
AcDbCircle
 10
-7.730335393742507
 20
48.10497996296044
 30
0.0
 40
0.4483471074379672
100
AcDbArc
 50
270.0
 51
0.0
  0
LINE
  5
67
330
2F
100
AcDbEntity
  8
0
 62
126
100
AcDbLine
 10
-7.281988286307978
 20
48.10497996296044
 30
0.0
 11
-7.281988286307978
 21
49.62752209986366
 31
0.0
  0
LINE
  5
68
330
2F
100
AcDbEntity
  8
0
 62
126
100
AcDbLine
 10
-18.04231886482398
 20
49.62752209986366
 30
0.0
 11
-18.04231886482398
 21
48.10497996296044
 31
0.0
  0
ARC
  5
69
330
2F
100
AcDbEntity
  8
0
 62
126
100
AcDbCircle
 10
-17.5939717573749
 20
48.10497996296044
 30
0.0
 40
0.4483471074379672
100
AcDbArc
 50
180.0
 51
270.0
  0
ARC
  5
6A
330
2F
100
AcDbEntity
  8
0
 62
126
100
AcDbCircle
 10
-17.5939717573749
 20
48.10497996296044
 30
0.0
 40
0.4483471074379672
100
AcDbArc
 50
270.0
 51
0.0
  0
LINE
  5
6B
330
2F
100
AcDbEntity
  8
0
 62
126
100
AcDbLine
 10
-17.14562464995492
 20
48.10497996296044
 30
0.0
 11
-17.14562464995492
 21
49.62752209986366
 31
0.0
  0
LWPOLYLINE
  5
6C
330
2F
100
AcDbEntity
  8
0
 62
126
100
AcDbPolyline
 90
4
 70
1
 10
-18.04231886482398
 20
60.92586920729672
 10
-7.281988286307978
 20
60.92586920729672
 10
-7.281988286307978
 20
49.62752209986366
 10
-18.04231886482398
 20
49.62752209986366
  0
LWPOLYLINE
  5
6D
330
2F
100
AcDbEntity
  8
0
 62
126
100
AcDbPolyline
 90
4
 70
1
 10
-17.14562464995492
 20
60.02917499242767
 10
-8.178682501177036
 20
60.02917499242767
 10
-8.178682501177036
 20
50.52421631474726
 10
-17.14562464995492
 20
50.52421631474726
  0
LWPOLYLINE
  5
6E
330
2F
100
AcDbEntity
  8
0
 62
126
100
AcDbPolyline
 90
4
 70
1
 10
-15.80058332762223
 20
59.0876460668137
 10
-9.523723823495175
 20
59.0876460668137
 10
-9.523723823495175
 20
51.4657452403685
 10
-15.80058332762223
 20
51.4657452403685
  0
LWPOLYLINE
  5
6F
330
2F
100
AcDbEntity
  8
0
 62
126
100
AcDbPolyline
 90
4
 70
0
 10
-15.39707093093261
 20
59.0876460668137
 10
-15.39707093093261
 20
53.21714223329627
 42
0.3099445346571803
 10
-15.2823456290464
 20
53.04984755045598
 10
-13.64840712943646
 20
52.41877816677015
  0
LWPOLYLINE
  5
70
330
2F
100
AcDbEntity
  8
0
 62
126
100
AcDbPolyline
 90
4
 70
0
 10
-11.49301400573699
 20
52.41922212186773
 10
-10.0375534830348
 20
52.98575665421822
 42
0.3092248975359518
 10
-9.923267405709566
 20
53.15288103388457
 10
-9.923267405709566
 20
59.0876460668137
  0
LWPOLYLINE
  5
71
330
2F
100
AcDbEntity
  8
0
 62
126
100
AcDbPolyline
 90
4
 70
1
 10
-13.64840712943646
 20
52.51490322003383
 10
-11.49301400573699
 20
52.51490322003383
 10
-11.49301400573699
 20
51.4657452403685
 10
-13.64840712943646
 20
51.4657452403685
  0
LWPOLYLINE
  5
72
330
2F
100
AcDbEntity
  8
0
 62
126
100
AcDbPolyline
 90
5
 70
1
 10
-7.281988286307978
 20
64.40272093048998
 42
0.4142135623731083
 10
-7.730335393742507
 20
64.8510680379245
 42
0.4142135623730818
 10
-8.178682501177036
 20
64.40272093048998
 10
-8.178682501177036
 20
60.92586920729672
 10
-7.281988286307978
 20
60.92586920729672
  0
LINE
  5
73
330
2F
100
AcDbEntity
  8
0
 62
126
100
AcDbLine
 10
-3.730768242294516
 20
50.52421631474726
 30
0.0
 11
-2.385726919976377
 21
51.4657452403685
 31
0.0
  0
LINE
  5
74
330
2F
100
AcDbEntity
  8
0
 62
126
100
AcDbLine
 10
5.23617390646882
 20
50.52421631474726
 30
0.0
 11
3.891132584150682
 21
51.4657452403685
 31
0.0
  0
LINE
  5
75
330
2F
100
AcDbEntity
  8
0
 62
126
100
AcDbLine
 10
-3.730768242294516
 20
60.02917499242767
 30
0.0
 11
-2.385726919976377
 21
59.0876460668137
 31
0.0
  0
LINE
  5
76
330
2F
100
AcDbEntity
  8
0
 62
126
100
AcDbLine
 10
5.23617390646882
 20
60.02917499242767
 30
0.0
 11
3.891132584150682
 21
59.0876460668137
 31
0.0
  0
LINE
  5
77
330
2F
100
AcDbEntity
  8
0
 62
126
100
AcDbLine
 10
3.491589001950842
 20
58.32545599274317
 30
0.0
 11
-1.982214523286756
 21
58.32545599274317
 31
0.0
  0
LINE
  5
78
330
2F
100
AcDbEntity
  8
0
 62
126
100
AcDbLine
 10
-0.2335507218051589
 20
52.51490322003383
 30
0.0
 11
-1.982214523286756
 21
53.19028248782569
 31
0.0
  0
LINE
  5
79
330
2F
100
AcDbEntity
  8
0
 62
126
100
AcDbLine
 10
1.921842401908861
 20
52.51544512854025
 30
0.0
 11
3.491589001950842
 21
53.12646524352612
 31
0.0
  0
LWPOLYLINE
  5
7A
330
2F
100
AcDbEntity
  8
0
 62
126
100
AcDbPolyline
 90
6
 70
1
 10
-4.627462457163574
 20
64.40272093048998
 42
-0.4142135623730951
 10
-4.179115349729045
 20
64.8510680379245
 10
-4.179115349729045
 20
64.8510680379245
 42
-0.4142135623730951
 10
-3.730768242294516
 20
64.40272093048998
 10
-3.730768242294516
 20
60.92586920729672
 10
-4.627462457163574
 20
60.92586920729672
  0
LINE
  5
7B
330
2F
100
AcDbEntity
  8
0
 62
126
100
AcDbLine
 10
5.23617390646882
 20
49.62752209986366
 30
0.0
 11
5.23617390646882
 21
48.10497996296044
 31
0.0
  0
ARC
  5
7C
330
2F
100
AcDbEntity
  8
0
 62
126
100
AcDbCircle
 10
5.684521013903349
 20
48.10497996296044
 30
0.0
 40
0.4483471074379269
100
AcDbArc
 50
180.0
 51
270.0
  0
ARC
  5
7D
330
2F
100
AcDbEntity
  8
0
 62
126
100
AcDbCircle
 10
5.684521013903349
 20
48.10497996296044
 30
0.0
 40
0.4483471074379672
100
AcDbArc
 50
270.0
 51
0.0
  0
LINE
  5
7E
330
2F
100
AcDbEntity
  8
0
 62
126
100
AcDbLine
 10
6.132868121337878
 20
48.10497996296044
 30
0.0
 11
6.132868121337878
 21
49.62752209986366
 31
0.0
  0
LINE
  5
7F
330
2F
100
AcDbEntity
  8
0
 62
126
100
AcDbLine
 10
-4.627462457163574
 20
49.62752209986366
 30
0.0
 11
-4.627462457163574
 21
48.10497996296044
 31
0.0
  0
ARC
  5
80
330
2F
100
AcDbEntity
  8
0
 62
126
100
AcDbCircle
 10
-4.179115349729045
 20
48.10497996296044
 30
0.0
 40
0.4483471074379672
100
AcDbArc
 50
180.0
 51
270.0
  0
ARC
  5
81
330
2F
100
AcDbEntity
  8
0
 62
126
100
AcDbCircle
 10
-4.179115349729045
 20
48.10497996296044
 30
0.0
 40
0.4483471074379672
100
AcDbArc
 50
270.0
 51
0.0
  0
LINE
  5
82
330
2F
100
AcDbEntity
  8
0
 62
126
100
AcDbLine
 10
-3.730768242294516
 20
48.10497996296044
 30
0.0
 11
-3.730768242294516
 21
49.62752209986366
 31
0.0
  0
LWPOLYLINE
  5
83
330
2F
100
AcDbEntity
  8
0
 62
126
100
AcDbPolyline
 90
4
 70
1
 10
-4.627462457163574
 20
60.92586920729672
 10
6.132868121337878
 20
60.92586920729672
 10
6.132868121337878
 20
49.62752209986366
 10
-4.627462457163574
 20
49.62752209986366
  0
LWPOLYLINE
  5
84
330
2F
100
AcDbEntity
  8
0
 62
126
100
AcDbPolyline
 90
4
 70
1
 10
-3.730768242294516
 20
60.02917499242767
 10
5.23617390646882
 20
60.02917499242767
 10
5.23617390646882
 20
50.52421631474726
 10
-3.730768242294516
 20
50.52421631474726
  0
LWPOLYLINE
  5
85
330
2F
100
AcDbEntity
  8
0
 62
126
100
AcDbPolyline
 90
4
 70
1
 10
-2.385726919976377
 20
59.0876460668137
 10
3.891132584150682
 20
59.0876460668137
 10
3.891132584150682
 20
51.4657452403685
 10
-2.385726919976377
 20
51.4657452403685
  0
LWPOLYLINE
  5
86
330
2F
100
AcDbEntity
  8
0
 62
126
100
AcDbPolyline
 90
4
 70
0
 10
-1.982214523286756
 20
59.0876460668137
 10
-1.982214523286756
 20
53.21714223329627
 42
0.3099445346571803
 10
-1.867489221400546
 20
53.04984755045598
 10
-0.2335507218051589
 20
52.41877816677015
  0
LWPOLYLINE
  5
87
330
2F
100
AcDbEntity
  8
0
 62
126
100
AcDbPolyline
 90
4
 70
0
 10
1.921842401908861
 20
52.41922212186773
 10
3.377302924611058
 20
52.98575665421822
 42
0.3092248975359518
 10
3.491589001950842
 20
53.15288103388457
 10
3.491589001950842
 20
59.0876460668137
  0
LWPOLYLINE
  5
88
330
2F
100
AcDbEntity
  8
0
 62
126
100
AcDbPolyline
 90
4
 70
1
 10
-0.2335507218051589
 20
52.51490322003383
 10
1.921842401908861
 20
52.51490322003383
 10
1.921842401908861
 20
51.4657452403685
 10
-0.2335507218051589
 20
51.4657452403685
  0
LWPOLYLINE
  5
89
330
2F
100
AcDbEntity
  8
0
 62
126
100
AcDbPolyline
 90
5
 70
1
 10
6.132868121337878
 20
64.40272093048998
 42
0.4142135623731083
 10
5.684521013903349
 20
64.8510680379245
 42
0.4142135623730818
 10
5.23617390646882
 20
64.40272093048998
 10
5.23617390646882
 20
60.92586920729672
 10
6.132868121337878
 20
60.92586920729672
  0
LINE
  5
8A
330
2F
100
AcDbEntity
  8
0
 62
126
100
AcDbLine
 10
9.684088165365893
 20
50.52421631474726
 30
0.0
 11
11.02912948766948
 21
51.4657452403685
 31
0.0
  0
LINE
  5
8B
330
2F
100
AcDbEntity
  8
0
 62
126
100
AcDbLine
 10
18.65103031412923
 20
50.52421631474726
 30
0.0
 11
17.30598899179654
 21
51.4657452403685
 31
0.0
  0
LINE
  5
8C
330
2F
100
AcDbEntity
  8
0
 62
126
100
AcDbLine
 10
9.684088165365893
 20
60.02917499242767
 30
0.0
 11
11.02912948766948
 21
59.0876460668137
 31
0.0
  0
LINE
  5
8D
330
2F
100
AcDbEntity
  8
0
 62
126
100
AcDbLine
 10
18.65103031412923
 20
60.02917499242767
 30
0.0
 11
17.30598899179654
 21
59.0876460668137
 31
0.0
  0
LINE
  5
8E
330
2F
100
AcDbEntity
  8
0
 62
126
100
AcDbLine
 10
16.9064454095967
 20
58.32545599274317
 30
0.0
 11
11.4326418843591
 21
58.32545599274317
 31
0.0
  0
LINE
  5
8F
330
2F
100
AcDbEntity
  8
0
 62
126
100
AcDbLine
 10
13.1813056858407
 20
52.51490322003383
 30
0.0
 11
11.4326418843591
 21
53.19028248782569
 31
0.0
  0
LINE
  5
90
330
2F
100
AcDbEntity
  8
0
 62
126
100
AcDbLine
 10
15.33669880955472
 20
52.51544512854025
 30
0.0
 11
16.9064454095967
 21
53.12646524352612
 31
0.0
  0
LWPOLYLINE
  5
91
330
2F
100
AcDbEntity
  8
0
 62
126
100
AcDbPolyline
 90
6
 70
1
 10
8.787393950482281
 20
64.40272093048998
 42
-0.4142135623730951
 10
9.235741057916812
 20
64.8510680379245
 10
9.235741057916812
 20
64.8510680379245
 42
-0.4142135623730951
 10
9.684088165365893
 20
64.40272093048998
 10
9.684088165365893
 20
60.92586920729672
 10
8.787393950482281
 20
60.92586920729672
  0
LINE
  5
92
330
2F
100
AcDbEntity
  8
0
 62
126
100
AcDbLine
 10
18.65103031412923
 20
49.62752209986366
 30
0.0
 11
18.65103031412923
 21
48.10497996296044
 31
0.0
  0
ARC
  5
93
330
2F
100
AcDbEntity
  8
0
 62
126
100
AcDbCircle
 10
19.09937742156376
 20
48.10497996296044
 30
0.0
 40
0.4483471074379269
100
AcDbArc
 50
180.0
 51
270.0
  0
ARC
  5
94
330
2F
100
AcDbEntity
  8
0
 62
126
100
AcDbCircle
 10
19.09937742156376
 20
48.10497996296044
 30
0.0
 40
0.4483471074379672
100
AcDbArc
 50
270.0
 51
0.0
  0
LINE
  5
95
330
2F
100
AcDbEntity
  8
0
 62
126
100
AcDbLine
 10
19.54772452899829
 20
48.10497996296044
 30
0.0
 11
19.54772452899829
 21
49.62752209986366
 31
0.0
  0
LINE
  5
96
330
2F
100
AcDbEntity
  8
0
 62
126
100
AcDbLine
 10
8.787393950482281
 20
49.62752209986366
 30
0.0
 11
8.787393950482281
 21
48.10497996296044
 31
0.0
  0
ARC
  5
97
330
2F
100
AcDbEntity
  8
0
 62
126
100
AcDbCircle
 10
9.235741057916812
 20
48.10497996296044
 30
0.0
 40
0.4483471074379672
100
AcDbArc
 50
180.0
 51
270.0
  0
ARC
  5
98
330
2F
100
AcDbEntity
  8
0
 62
126
100
AcDbCircle
 10
9.235741057916812
 20
48.10497996296044
 30
0.0
 40
0.4483471074379672
100
AcDbArc
 50
270.0
 51
0.0
  0
LINE
  5
99
330
2F
100
AcDbEntity
  8
0
 62
126
100
AcDbLine
 10
9.684088165365893
 20
48.10497996296044
 30
0.0
 11
9.684088165365893
 21
49.62752209986366
 31
0.0
  0
LWPOLYLINE
  5
9A
330
2F
100
AcDbEntity
  8
0
 62
126
100
AcDbPolyline
 90
4
 70
1
 10
8.787393950482281
 20
60.92586920729672
 10
19.54772452899829
 20
60.92586920729672
 10
19.54772452899829
 20
49.62752209986366
 10
8.787393950482281
 20
49.62752209986366
  0
LWPOLYLINE
  5
9B
330
2F
100
AcDbEntity
  8
0
 62
126
100
AcDbPolyline
 90
4
 70
1
 10
9.684088165365893
 20
60.02917499242767
 10
18.65103031412923
 20
60.02917499242767
 10
18.65103031412923
 20
50.52421631474726
 10
9.684088165365893
 20
50.52421631474726
  0
LWPOLYLINE
  5
9C
330
2F
100
AcDbEntity
  8
0
 62
126
100
AcDbPolyline
 90
4
 70
1
 10
11.02912948766948
 20
59.0876460668137
 10
17.30598899179654
 20
59.0876460668137
 10
17.30598899179654
 20
51.4657452403685
 10
11.02912948766948
 20
51.4657452403685
  0
LWPOLYLINE
  5
9D
330
2F
100
AcDbEntity
  8
0
 62
126
100
AcDbPolyline
 90
4
 70
0
 10
11.4326418843591
 20
59.0876460668137
 10
11.4326418843591
 20
53.21714223329627
 42
0.3099445346571803
 10
11.54736718624531
 20
53.04984755045598
 10
13.1813056858407
 20
52.41877816677015
  0
LWPOLYLINE
  5
9E
330
2F
100
AcDbEntity
  8
0
 62
126
100
AcDbPolyline
 90
4
 70
0
 10
15.33669880955472
 20
52.41922212186773
 10
16.79215933225691
 20
52.98575665421822
 42
0.3092248975359518
 10
16.9064454095967
 20
53.15288103388457
 10
16.9064454095967
 20
59.0876460668137
  0
LWPOLYLINE
  5
9F
330
2F
100
AcDbEntity
  8
0
 62
126
100
AcDbPolyline
 90
4
 70
1
 10
13.1813056858407
 20
52.51490322003383
 10
15.33669880955472
 20
52.51490322003383
 10
15.33669880955472
 20
51.4657452403685
 10
13.1813056858407
 20
51.4657452403685
  0
LWPOLYLINE
  5
A0
330
2F
100
AcDbEntity
  8
0
 62
126
100
AcDbPolyline
 90
5
 70
1
 10
19.54772452899829
 20
64.40272093048998
 42
0.4142135623731083
 10
19.09937742156376
 20
64.8510680379245
 42
0.4142135623730818
 10
18.65103031412923
 20
64.40272093048998
 10
18.65103031412923
 20
60.92586920729672
 10
19.54772452899829
 20
60.92586920729672
  0
LWPOLYLINE
  5
A1
330
2F
100
AcDbEntity
  8
0
 62
126
100
AcDbPolyline
 90
4
 70
0
 10
-7.317545063470106
 20
79.38056339602053
 10
-7.317545063470106
 20
79.64957166047543
 10
-6.961028086454689
 20
79.64957166047543
 10
-6.961028086454689
 20
79.38056339602053
  0
LWPOLYLINE
  5
A2
330
2F
100
AcDbEntity
  8
0
 62
126
100
AcDbPolyline
 90
4
 70
0
 10
-5.243264470013173
 20
79.38056339602053
 10
-5.243264470013173
 20
79.64957166047543
 10
-5.622316815464955
 20
79.64957166047543
 10
-5.622316815464955
 20
79.38056339602053
  0
LWPOLYLINE
  5
A3
330
2F
100
AcDbEntity
  8
0
 62
126
100
AcDbPolyline
 90
4
 70
0
 10
-2.553181825376896
 20
79.38056339602053
 10
-2.553181825376896
 20
79.64957166047543
 10
-4.627462418833829
 20
79.64957166047543
 10
-4.627462418833829
 20
79.38056339602053
  0
LWPOLYLINE
  5
A4
330
2F
100
AcDbEntity
  8
0
 62
126
100
AcDbPolyline
 90
4
 70
0
 10
-1.904969139923423
 20
79.38056339602053
 10
-1.904969139923423
 20
79.64957166047543
 10
-1.54845216293711
 20
79.64957166047543
 10
-1.54845216293711
 20
79.38056339602053
  0
LWPOLYLINE
  5
A5
330
2F
100
AcDbEntity
  8
0
 62
126
100
AcDbPolyline
 90
4
 70
0
 10
-0.9002394774836375
 20
79.38056339602053
 10
-0.9002394774836375
 20
79.64957166047543
 10
-0.5437225004827724
 20
79.64957166047543
 10
-0.5437225004827724
 20
79.38056339602053
  0
LWPOLYLINE
  5
A6
330
2F
100
AcDbEntity
  8
0
 62
126
100
AcDbPolyline
 90
4
 70
0
 10
1.174041115958743
 20
79.38056339602053
 10
1.174041115958743
 20
79.64957166047543
 10
0.7949887705215133
 20
79.64957166047543
 10
0.7949887705215133
 20
79.38056339602053
  0
LWPOLYLINE
  5
A7
330
2F
100
AcDbEntity
  8
0
 62
126
100
AcDbPolyline
 90
4
 70
0
 10
2.454261169743176
 20
79.38056339602053
 10
2.454261169743176
 20
79.64957166047543
 10
2.810778146729489
 20
79.64957166047543
 10
2.810778146729489
 20
79.38056339602053
  0
LWPOLYLINE
  5
A8
330
2F
100
AcDbEntity
  8
0
 62
126
100
AcDbPolyline
 90
4
 70
0
 10
4.058587566239793
 20
79.38056339602053
 10
4.058587566239793
 20
79.64957166047543
 10
6.03563625687434
 20
79.64957166047543
 10
6.03563625687434
 20
79.38056339602053
  0
LWPOLYLINE
  5
A9
330
2F
100
AcDbEntity
  8
0
 62
126
100
AcDbPolyline
 90
4
 70
0
 10
8.709513584359001
 20
79.38056339602053
 10
8.709513584359001
 20
79.64957166047543
 10
8.243357566567054
 20
79.64957166047543
 10
8.243357566567054
 20
79.38056339602053
  0
LWPOLYLINE
  5
AA
330
2F
100
AcDbEntity
  8
0
 62
126
100
AcDbPolyline
 90
4
 70
0
 10
7.29230809440537
 20
79.38056339602053
 10
7.29230809440537
 20
79.64957166047543
 10
6.862107430820969
 20
79.64957166047543
 10
6.862107430820969
 20
79.38056339602053
  0
LWPOLYLINE
  5
AB
330
2F
100
AcDbEntity
  8
0
 62
126
100
AcDbPolyline
 90
3
 70
0
 10
6.505590453820104
 20
79.38056339602053
 10
6.505590453820104
 20
79.64957166047543
 10
6.862107430820969
 20
79.64957166047543
  0
LWPOLYLINE
  5
AC
330
2F
100
AcDbEntity
  8
0
 62
126
100
AcDbPolyline
 90
3
 70
0
 10
2.810778146729489
 20
79.64957166047543
 10
3.685865272101864
 20
79.64957166047543
 10
3.685865272101864
 20
79.38056339602053
  0
LWPOLYLINE
  5
AD
330
2F
100
AcDbEntity
  8
0
 62
126
100
AcDbPolyline
 90
3
 70
0
 10
2.454261169743176
 20
79.64957166047543
 10
1.579174044370802
 20
79.64957166047543
 10
1.579174044370802
 20
79.38056339602053
  0
LINE
  5
AE
330
2F
100
AcDbEntity
  8
0
 62
126
100
AcDbLine
 10
-18.04231886482398
 20
79.38056339602053
 30
0.0
 11
-18.04231886482398
 21
52.89542480771206
 31
0.0
  0
LINE
  5
AF
330
2F
100
AcDbEntity
  8
0
 62
126
100
AcDbLine
 10
19.54772452899829
 20
79.38056339602053
 30
0.0
 11
19.54772452899829
 21
52.89542480771206
 31
0.0
  0
LWPOLYLINE
  5
B0
330
2F
100
AcDbEntity
  8
0
 62
126
100
AcDbPolyline
 90
6
 70
1
 10
-18.97456989518491
 20
39.13842558097395
 10
20.47997555935922
 20
39.13842558097395
 10
20.47997555935922
 20
78.93221628857872
 42
0.4142135623730832
 10
20.03162845192469
 20
79.38056339602053
 10
-18.52622278775038
 20
79.38056339602053
 42
0.4142135623730966
 10
-18.97456989518491
 20
78.93221628857872
  0
LWPOLYLINE
  5
B1
330
2F
100
AcDbEntity
  8
0
 62
126
100
AcDbPolyline
 90
8
 70
1
 10
-42.06252814785353
 20
39.13842558097395
 42
0.4142135623731125
 10
-42.28984360240815
 20
38.91111012641932
 10
-42.28984360240815
 20
38.07004294460649
 42
0.4142135623730894
 10
-42.06252814785353
 20
37.84272749005913
 10
43.52785435747114
 20
37.84272749005913
 42
0.4142135623730951
 10
43.75516981201122
 20
38.07004294460649
 10
43.75516981201122
 20
38.91111012641932
 42
0.4142135623730951
 10
43.52785435747114
 20
39.13842558097395
  0
LINE
  5
B2
330
2F
100
AcDbEntity
  8
0
 62
126
100
AcDbLine
 10
19.54772452899829
 20
64.85108227676255
 30
0.0
 11
-18.04231886482398
 21
64.85108227676255
 31
0.0
  0
TEXT
  5
B3
330
2F
100
AcDbEntity
  8
0
100
AcDbText
 10
-14.91012341044211
 20
-50.29549038107244
 30
0.0
 40
1.272727272727239
  1
440
  7
Helvetica-Narrow
 11
-14.91012341044211
 21
-49.65912674470883
 31
0.0
100
AcDbText
 73
2
  0
TEXT
  5
B4
330
2F
100
AcDbEntity
  8
0
100
AcDbText
 10
-14.91012341044211
 20
-53.18078248230914
 30
0.0
 40
1.272727272727239
  1
415
  7
Helvetica-Narrow
 11
-14.91012341044211
 21
-52.54441884594553
 31
0.0
100
AcDbText
 73
2
  0
TEXT
  5
B5
330
2F
100
AcDbEntity
  8
0
100
AcDbText
 10
-14.91012341044211
 20
-56.06607458353857
 30
0.0
 40
1.272727272727239
  1
400
  7
Helvetica-Narrow
 11
-14.91012341044211
 21
-55.42971094717495
 31
0.0
100
AcDbText
 73
2
  0
TEXT
  5
B6
330
2F
100
AcDbEntity
  8
0
100
AcDbText
 10
6.102093932047637
 20
-50.31362834624189
 30
0.0
 40
1.272727272727239
  1
20
  7
Helvetica-Narrow
 11
6.102093932047637
 21
-49.67726470987827
 31
0.0
100
AcDbText
 73
2
  0
TEXT
  5
B7
330
2F
100
AcDbEntity
  8
0
100
AcDbText
 10
-4.716087886114337
 20
-50.31362834624189
 30
0.0
 40
1.272727272727239
  1
20
  7
Helvetica-Narrow
 11
-4.716087886114337
 21
-49.67726470987827
 31
0.0
100
AcDbText
 73
2
  0
LINE
  5
B8
330
2F
100
AcDbEntity
  8
0
 62
126
100
AcDbLine
 10
-5.283093535890884
 20
-179.0140469350458
 30
0.0
 11
6.703593700632836
 21
-178.7619033882379
 31
0.0
  0
LINE
  5
B9
330
2F
100
AcDbEntity
  8
0
 62
126
100
AcDbLine
 10
-5.278568223901174
 20
-180.5951830294375
 30
0.0
 11
6.708119012622546
 21
-180.343039482615
 31
0.0
  0
LINE
  5
BA
330
2F
100
AcDbEntity
  8
0
 62
126
100
AcDbLine
 10
-5.281128580096492
 20
-180.7675541206713
 30
0.0
 11
6.709851453113287
 21
-180.5059996062641
 31
0.0
  0
LINE
  5
BB
330
2F
100
AcDbEntity
  8
0
 62
126
100
AcDbLine
 10
-5.278568223901174
 20
-182.1200116177801
 30
0.0
 11
6.708119012622546
 21
-181.8678680709577
 31
0.0
  0
LINE
  5
BC
330
2F
100
AcDbEntity
  8
0
 62
126
100
AcDbLine
 10
-5.281128580096492
 20
-182.2923827089994
 30
0.0
 11
6.709851453113287
 21
-182.0308281946068
 31
0.0
  0
LINE
  5
BD
330
2F
100
AcDbEntity
  8
0
 62
126
100
AcDbLine
 10
-5.288155822298222
 20
-177.5990342186864
 30
0.0
 11
6.70282421092611
 21
-177.3374797042938
 31
0.0
  0
LINE
  5
BE
330
2F
100
AcDbEntity
  8
0
 62
126
100
AcDbLine
 10
-5.288155822298222
 20
-177.9203310743628
 30
0.0
 11
6.70282421092611
 21
-177.6587765599702
 31
0.0
  0
LINE
  5
BF
330
2F
100
AcDbEntity
  8
0
 62
126
100
AcDbLine
 10
-5.288155822298222
 20
-178.7235715829897
 30
0.0
 11
6.70282421092611
 21
-178.4620170685825
 31
0.0
  0
LINE
  5
C0
330
2F
100
AcDbEntity
  8
0
 62
126
100
AcDbLine
 10
-4.060698523706605
 20
-184.7204682862006
 30
0.0
 11
-8.013823523706606
 21
-184.7204682862006
 31
0.0
  0
LINE
  5
C1
330
2F
100
AcDbEntity
  8
0
 62
126
100
AcDbLine
 10
-4.060698523706605
 20
-191.8930044482781
 30
0.0
 11
-4.060698523706605
 21
-186.6531071750882
 31
0.0
  0
LINE
  5
C2
330
2F
100
AcDbEntity
  8
0
 62
126
100
AcDbLine
 10
5.707912587404052
 20
-191.8930044482781
 30
0.0
 11
5.707912587404052
 21
-186.6531071750882
 31
0.0
  0
ARC
  5
C3
330
2F
100
AcDbEntity
  8
0
 62
126
100
AcDbCircle
 10
0.8236070318559995
 20
-191.8587738417641
 30
0.0
 40
7.138305555555758
100
AcDbArc
 50
46.82422833772897
 51
133.175771662271
  0
LINE
  5
C4
330
2F
100
AcDbEntity
  8
0
 62
126
100
AcDbLine
 10
5.707912587404052
 20
-184.7204682862006
 30
0.0
 11
9.661037587404053
 21
-184.7204682862006
 31
0.0
  0
ARC
  5
C5
330
2F
100
AcDbEntity
  8
0
 62
126
100
AcDbCircle
 10
8.057903718526857
 20
-187.0794455636
 30
0.0
 40
2.388351468659658
100
AcDbArc
 50
16.65126858436962
 51
169.7171684086303
  0
LINE
  5
C6
330
2F
100
AcDbEntity
  8
0
 62
126
100
AcDbLine
 10
0.8236070318559995
 20
-184.7204682862006
 30
0.0
 11
7.684475087404052
 21
-184.7204682862006
 31
0.0
  0
ARC
  5
C7
330
2F
100
AcDbEntity
  8
0
 62
126
100
AcDbCircle
 10
-6.404879252626642
 20
-187.073503106812
 30
0.0
 40
2.38157847430125
100
AcDbArc
 50
10.16711751469008
 51
159.7769601324924
  0
LINE
  5
C8
330
2F
100
AcDbEntity
  8
0
 62
126
100
AcDbLine
 10
0.8236070318559995
 20
-184.7204682862006
 30
0.0
 11
-4.060698523706605
 21
-184.7204682862006
 31
0.0
  0
ARC
  5
C9
330
2F
100
AcDbEntity
  8
0
 62
126
100
AcDbCircle
 10
0.8236070318559995
 20
-185.3003110262884
 30
0.0
 40
8.204879482134018
100
AcDbArc
 50
233.4664931240566
 51
306.5335068759434
  0
ARC
  5
CA
330
2F
100
AcDbEntity
  8
0
 62
126
100
AcDbCircle
 10
-6.433435408482409
 20
-190.9530599048098
 30
0.0
 40
2.552131671600688
100
AcDbArc
 50
201.7155109884368
 51
338.3893220220666
  0
ARC
  5
CB
330
2F
100
AcDbEntity
  8
0
 62
126
100
AcDbCircle
 10
8.075943381354364
 20
-190.9589425183453
 30
0.0
 40
2.545592569517785
100
AcDbArc
 50
201.5265916192965
 51
338.9500507641958
  0
LWPOLYLINE
  5
CC
330
2F
100
AcDbEntity
  8
0
 62
126
100
AcDbPolyline
 90
4
 70
0
 10
-5.287376622462261
 20
-195.4431861430726
 10
-5.287376622462261
 20
-177.1572725099408
 10
6.712623377537738
 20
-177.1572725099408
 10
6.712623377537738
 20
-195.4431861430726
  0
LWPOLYLINE
  5
CD
330
2F
100
AcDbEntity
  8
0
 62
126
100
AcDbPolyline
 90
4
 70
1
 10
-13.489770060198
 20
-184.7204682862006
 10
14.91932084890482
 20
-184.7204682862006
 10
14.91932084890482
 20
-183.142185457918
 10
-13.489770060198
 20
-183.142185457918
  0
LWPOLYLINE
  5
CE
330
2F
100
AcDbEntity
  8
0
 62
126
100
AcDbPolyline
 90
8
 70
1
 10
-8.804448523700785
 20
-186.6531071750882
 10
-8.013823523706606
 20
-184.7204682862006
 10
9.661037587404053
 20
-184.7204682862006
 10
10.45166258741278
 20
-186.6531071750882
 10
10.45166258741278
 20
-191.9239405084167
 10
9.661037587404053
 20
-193.5051905084197
 10
-8.013823523706606
 20
-193.5051905084197
 10
-8.804448523700785
 20
-191.9239405084167
  0
TEXT
  5
CF
330
2F
100
AcDbEntity
  8
0
 62
126
100
AcDbText
 10
-4.753498946404869
 20
-189.8682077986682
 30
0.0
 40
1.5
  1
M12x15mm
  7
Helvetica-Narrow
 72
1
 11
0.8236070318559995
 21
-189.1182077986682
 31
0.0
100
AcDbText
 73
2
  0
LINE
  5
D0
330
2F
100
AcDbEntity
  8
0
 62
126
100
AcDbLine
 10
-5.277798734194448
 20
-182.4198979374209
 30
0.0
 11
6.708888502329273
 21
-182.167754390613
 31
0.0
  0
LINE
  5
D1
330
2F
100
AcDbEntity
  8
0
 62
126
100
AcDbLine
 10
-5.273273422204738
 20
-184.0010340318126
 30
0.0
 11
6.712623377537738
 21
-183.7489071120667
 31
0.0
  0
LINE
  5
D2
330
2F
100
AcDbEntity
  8
0
 62
126
100
AcDbLine
 10
-5.275833778400055
 20
-184.1734051230464
 30
0.0
 11
6.712623377537738
 21
-183.9119056391659
 31
0.0
  0
LINE
  5
D3
330
2F
100
AcDbEntity
  8
0
 62
126
100
AcDbLine
 10
-5.275833778400055
 20
-185.6982337113745
 30
0.0
 11
6.715146254809724
 21
-185.4366791969819
 31
0.0
  0
LINE
  5
D4
330
2F
100
AcDbEntity
  8
0
 62
126
100
AcDbLine
 10
-5.282861020601785
 20
-182.1294225853648
 30
0.0
 11
6.708119012622546
 21
-181.8678680709577
 31
0.0
  0
LINE
  5
D5
330
2F
100
AcDbEntity
  8
0
 62
126
100
AcDbLine
 10
-5.272503932498011
 20
-185.8257489397961
 30
0.0
 11
6.714183304025709
 21
-185.5736053929881
 31
0.0
  0
LINE
  5
D6
330
2F
100
AcDbEntity
  8
0
 62
126
100
AcDbLine
 10
-5.287376622462261
 20
-195.4431861430726
 30
0.0
 11
6.712623377537738
 21
-195.4431861430726
 31
0.0
  0
LINE
  5
D7
330
2F
100
AcDbEntity
  8
0
 62
126
100
AcDbLine
 10
-5.267978620508301
 20
-193.8625087066698
 30
0.0
 11
6.718708616015419
 21
-193.6103651598473
 31
0.0
  0
LINE
  5
D8
330
2F
100
AcDbEntity
  8
0
 62
126
100
AcDbLine
 10
-5.270538976703619
 20
-194.034879797889
 30
0.0
 11
6.72044105650616
 21
-193.7733252834964
 31
0.0
  0
HATCH
  5
D9
330
2F
100
AcDbEntity
  8
0
 62
126
 60
1
100
AcDbHatch
 10
0.0
 20
0.0
 30
0.0
210
0.0
220
0.0
230
1.0
  2
DASH
 70
0
 71
0
 91
7
 92
16
 93
1
 72
2
 10
13.51616424725557
 20
8.406275532501112
 40
3.962599301979839
 50
0.0
 51
360.0
 73
1
 97
1
330
3660DC
 92
16
 93
1
 72
2
 10
0.7326631048088075
 20
8.406275532501112
 40
3.962599301979839
 50
0.0
 51
360.0
 73
1
 97
1
330
3660DA
 92
16
 93
1
 72
2
 10
-11.84011736027264
 20
8.406275532501112
 40
3.962599301979839
 50
0.0
 51
360.0
 73
1
 97
1
330
3660DB
 92
16
 93
1
 72
2
 10
-11.84011736027264
 20
-14.23714905024657
 40
3.962599301979839
 50
0.0
 51
360.0
 73
1
 97
1
330
3660D8
 92
16
 93
1
 72
2
 10
0.7326631048088075
 20
-14.23714905024657
 40
3.962599301979839
 50
0.0
 51
360.0
 73
1
 97
1
330
3660D7
 92
16
 93
1
 72
2
 10
13.51616424725557
 20
-14.23714905024657
 40
3.962599301979839
 50
0.0
 51
360.0
 73
1
 97
1
330
3660D9
 92
1
 93
8
 72
1
 10
-21.91076147794615
 20
-25.55886134161678
 11
23.37608768754922
 21
-25.55886134161678
 72
2
 10
23.37608768754922
 20
-19.89800519593531
 40
5.660856145681464
 50
270.0
 51
360.0
 73
1
 72
1
 10
29.03694383323068
 20
-19.89800519593531
 11
29.03694383323068
 21
14.06713167818258
 72
2
 10
23.37608768754922
 20
14.06713167818258
 40
5.660856145681464
 50
0.0
 51
90.0
 73
1
 72
1
 10
23.37608768754922
 20
19.72798782386404
 11
-21.91076147794615
 21
19.72798782386404
 72
2
 10
-21.91076147794615
 20
14.06713167818257
 40
5.660856145681465
 50
90.0
 51
180.0
 73
1
 72
1
 10
-27.57161762362762
 20
14.06713167818258
 11
-27.57161762362762
 21
-19.89800519593531
 72
2
 10
-21.91076147794615
 20
-19.89800519593531
 40
5.660856145681467
 50
180.0
 51
270.0
 73
1
 97
1
330
3660D4
 75
0
 76
1
 52
0.0
 41
0.5660856145685486
 77
0
 78
1
 53
0.0
 43
-78406.91484179237
 44
-39821.65612841546
 45
1.797321826255141
 46
1.797321826255141
 79
2
 49
1.797321826255141
 49
-1.797321826255141
 98
1
 10
-78406.91484179237
 20
-39821.65612841546
  0
LWPOLYLINE
  5
DA
330
2F
100
AcDbEntity
  8
0
 62
126
 60
1
100
AcDbPolyline
 90
8
 70
1
 10
-21.91076147794615
 20
-25.55886134161678
 10
23.37608768754922
 20
-25.55886134161678
 42
0.4142135623730951
 10
29.03694383323068
 20
-19.89800519593531
 10
29.03694383323068
 20
14.06713167818258
 42
0.4142135623730951
 10
23.37608768754922
 20
19.72798782386404
 10
-21.91076147794615
 20
19.72798782386404
 42
0.4142135623730951
 10
-27.57161762362762
 20
14.06713167818258
 10
-27.57161762362762
 20
-19.89800519593531
 42
0.4142135623730951
  0
CIRCLE
  5
DB
330
2F
100
AcDbEntity
  8
0
 62
126
 60
1
100
AcDbCircle
 10
0.7326631048088075
 20
-2.915436758876367
 30
0.0
 40
43.02250670720969
  0
CIRCLE
  5
DC
330
2F
100
AcDbEntity
  8
0
 62
126
 60
1
100
AcDbCircle
 10
0.7326631048088075
 20
-2.915436758876367
 30
0.0
 40
40.75816424893549
  0
CIRCLE
  5
DD
330
2F
100
AcDbEntity
  8
0
 62
126
 60
1
100
AcDbCircle
 10
0.7326631048088075
 20
-14.23714905024657
 30
0.0
 40
3.962599301979839
  0
CIRCLE
  5
DE
330
2F
100
AcDbEntity
  8
0
 62
126
 60
1
100
AcDbCircle
 10
-11.84011736027264
 20
-14.23714905024657
 30
0.0
 40
3.962599301979839
  0
CIRCLE
  5
DF
330
2F
100
AcDbEntity
  8
0
 62
126
 60
1
100
AcDbCircle
 10
13.51616424725557
 20
-14.23714905024657
 30
0.0
 40
3.962599301979839
  0
CIRCLE
  5
E0
330
2F
100
AcDbEntity
  8
0
 62
126
 60
1
100
AcDbCircle
 10
0.7326631048088075
 20
8.406275532501112
 30
0.0
 40
3.962599301979839
  0
CIRCLE
  5
E1
330
2F
100
AcDbEntity
  8
0
 62
126
 60
1
100
AcDbCircle
 10
-11.84011736027264
 20
8.406275532501112
 30
0.0
 40
3.962599301979839
  0
CIRCLE
  5
E2
330
2F
100
AcDbEntity
  8
0
 62
126
 60
1
100
AcDbCircle
 10
13.51616424725557
 20
8.406275532501112
 30
0.0
 40
3.962599301979839
  0
ARC
  5
E3
330
2F
100
AcDbEntity
  8
INSIDE
 62
4
 60
1
100
AcDbCircle
 10
13.60316916321221
 20
10.01249987792276
 30
0.0
 40
0.5687185709146015
100
AcDbArc
 50
221.8994695256492
 51
311.8994695259282
  0
LINE
  5
E4
330
2F
100
AcDbEntity
  8
INSIDE
 62
4
 60
1
100
AcDbLine
 10
13.98297402059302
 20
9.589192562585467
 30
0.0
 11
15.6406792402156
 21
11.07653868606745
 31
0.0
  0
LINE
  5
E5
330
2F
100
AcDbEntity
  8
INSIDE
 62
4
 60
1
100
AcDbLine
 10
13.17986184788219
 20
9.632695020556511
 30
0.0
 11
12.42025213312058
 21
10.47930965122383
 31
0.0
  0
ARC
  5
E6
330
2F
100
AcDbEntity
  8
INSIDE
 62
4
 60
1
100
AcDbCircle
 10
15.12238859270633
 20
8.319270616573576
 30
0.0
 40
0.5687185709146015
100
AcDbArc
 50
131.8994695259282
 51
221.8994695256492
  0
LINE
  5
E7
330
2F
100
AcDbEntity
  8
INSIDE
 62
4
 60
1
100
AcDbLine
 10
14.74258373532552
 20
8.742577931910873
 30
0.0
 11
16.40028895496266
 21
10.22992405539286
 31
0.0
  0
LINE
  5
E8
330
2F
100
AcDbEntity
  8
INSIDE
 62
4
 60
1
100
AcDbLine
 10
15.45869099209426
 20
7.092851128525452
 30
0.0
 11
14.69908127736175
 21
7.939465759192771
 31
0.0
  0
ARC
  5
E9
330
2F
100
AcDbEntity
  8
INSIDE
 62
4
 60
1
100
AcDbCircle
 10
13.42915933135714
 20
6.800051187079461
 30
0.0
 40
0.5687185709146015
100
AcDbArc
 50
41.89946952564918
 51
131.8994695259282
  0
LINE
  5
EA
330
2F
100
AcDbEntity
  8
INSIDE
 62
4
 60
1
100
AcDbLine
 10
14.61207636141967
 20
6.333241413778395
 30
0.0
 11
13.85246664668716
 21
7.179856044452989
 31
0.0
  0
LINE
  5
EB
330
2F
100
AcDbEntity
  8
INSIDE
 62
4
 60
1
100
AcDbLine
 10
11.39164925432464
 20
5.736012378934773
 30
0.0
 11
13.04935447397634
 21
7.223358502416758
 31
0.0
  0
ARC
  5
EC
330
2F
100
AcDbEntity
  8
INSIDE
 62
4
 60
1
100
AcDbCircle
 10
11.90993990184847
 20
8.493280448435925
 30
0.0
 40
0.5687185709146015
100
AcDbArc
 50
311.8994695259282
 51
41.89946952564918
  0
LINE
  5
ED
330
2F
100
AcDbEntity
  8
INSIDE
 62
4
 60
1
100
AcDbLine
 10
12.33324721719305
 20
8.873085305802176
 30
0.0
 11
11.57363750244599
 21
9.719699936484046
 31
0.0
  0
LINE
  5
EE
330
2F
100
AcDbEntity
  8
INSIDE
 62
4
 60
1
100
AcDbLine
 10
10.63203953959214
 20
6.582627009609367
 30
0.0
 11
12.28974475922928
 21
8.069973133091352
 31
0.0
  0
LINE
  5
EF
330
2F
100
AcDbEntity
  8
INSIDE
  6
Continuous
 62
4
 60
1
100
AcDbLine
 10
14.61207636141967
 20
6.333241413778395
 30
0.0
 11
15.45869099209426
 21
7.092851128525452
 31
0.0
  0
LINE
  5
F0
330
2F
100
AcDbEntity
  8
INSIDE
  6
Continuous
 62
4
 60
1
100
AcDbLine
 10
11.57363750244599
 20
9.719699936484046
 30
0.0
 11
12.42025213312058
 21
10.47930965122383
 31
0.0
  0
CIRCLE
  5
F1
330
2F
100
AcDbEntity
  8
INSIDE
  6
Continuous
 62
4
 60
1
100
AcDbCircle
 10
13.51616424727012
 20
8.406275532501112
 30
0.0
 40
3.412311425487608
  0
ARC
  5
F2
330
2F
100
AcDbEntity
  8
INSIDE
 62
4
 60
1
100
AcDbCircle
 10
0.8196680207508961
 20
10.01249987792276
 30
0.0
 40
0.5687185709146015
100
AcDbArc
 50
221.8994695256492
 51
311.8994695259282
  0
LINE
  5
F3
330
2F
100
AcDbEntity
  8
INSIDE
 62
4
 60
1
100
AcDbLine
 10
1.1994728781317
 20
9.589192562585467
 30
0.0
 11
2.857178097768837
 21
11.07653868606745
 31
0.0
  0
LINE
  5
F4
330
2F
100
AcDbEntity
  8
INSIDE
 62
4
 60
1
100
AcDbLine
 10
0.3963607054208751
 20
9.632695020556511
 30
0.0
 11
-0.3632490093261822
 21
10.47930965122383
 31
0.0
  0
ARC
  5
F5
330
2F
100
AcDbEntity
  8
INSIDE
 62
4
 60
1
100
AcDbCircle
 10
2.33888745024501
 20
8.319270616573576
 30
0.0
 40
0.5687185709146015
100
AcDbArc
 50
131.8994695259282
 51
221.8994695256492
  0
LINE
  5
F6
330
2F
100
AcDbEntity
  8
INSIDE
 62
4
 60
1
100
AcDbLine
 10
1.959082592864206
 20
8.742577931910873
 30
0.0
 11
3.616787812501343
 21
10.22992405539286
 31
0.0
  0
LINE
  5
F7
330
2F
100
AcDbEntity
  8
INSIDE
 62
4
 60
1
100
AcDbLine
 10
2.675189849647495
 20
7.092851128525452
 30
0.0
 11
1.915580134900437
 21
7.939465759192771
 31
0.0
  0
ARC
  5
F8
330
2F
100
AcDbEntity
  8
INSIDE
 62
4
 60
1
100
AcDbCircle
 10
0.6456581888958226
 20
6.800051187079461
 30
0.0
 40
0.5687185709146015
100
AcDbArc
 50
41.89946952564918
 51
131.8994695259282
  0
LINE
  5
F9
330
2F
100
AcDbEntity
  8
INSIDE
 62
4
 60
1
100
AcDbLine
 10
1.8285752189729
 20
6.333241413778395
 30
0.0
 11
1.068965504225843
 21
7.179856044452989
 31
0.0
  0
LINE
  5
FA
330
2F
100
AcDbEntity
  8
INSIDE
 62
4
 60
1
100
AcDbLine
 10
-1.391851888122118
 20
5.736012378934773
 30
0.0
 11
0.265853331515018
 21
7.223358502416758
 31
0.0
  0
ARC
  5
FB
330
2F
100
AcDbEntity
  8
INSIDE
 62
4
 60
1
100
AcDbCircle
 10
-0.8735612406128439
 20
8.493280448435925
 30
0.0
 40
0.5687185709146015
100
AcDbArc
 50
311.8994695259282
 51
41.89946952564918
  0
LINE
  5
FC
330
2F
100
AcDbEntity
  8
INSIDE
 62
4
 60
1
100
AcDbLine
 10
-0.4502539252682709
 20
8.873085305802176
 30
0.0
 11
-1.209863640000776
 21
9.719699936484046
 31
0.0
  0
LINE
  5
FD
330
2F
100
AcDbEntity
  8
INSIDE
 62
4
 60
1
100
AcDbLine
 10
-2.151461602869176
 20
6.582627009609367
 30
0.0
 11
-0.4937563832320393
 21
8.069973133091352
 31
0.0
  0
LINE
  5
FE
330
2F
100
AcDbEntity
  8
INSIDE
  6
Continuous
 62
4
 60
1
100
AcDbLine
 10
1.8285752189729
 20
6.333241413778395
 30
0.0
 11
2.675189849647495
 21
7.092851128525452
 31
0.0
  0
LINE
  5
FF
330
2F
100
AcDbEntity
  8
INSIDE
  6
Continuous
 62
4
 60
1
100
AcDbLine
 10
-1.209863640000776
 20
9.719699936484046
 30
0.0
 11
-0.3632490093261822
 21
10.47930965122383
 31
0.0
  0
CIRCLE
  5
100
330
2F
100
AcDbEntity
  8
INSIDE
  6
Continuous
 62
4
 60
1
100
AcDbCircle
 10
0.7326631048233594
 20
8.406275532501112
 30
0.0
 40
3.412311425487608
  0
ARC
  5
101
330
2F
100
AcDbEntity
  8
INSIDE
 62
4
 60
1
100
AcDbCircle
 10
-11.753112444316
 20
10.01249987792276
 30
0.0
 40
0.5687185709146015
100
AcDbArc
 50
221.8994695256492
 51
311.8994695259282
  0
LINE
  5
102
330
2F
100
AcDbEntity
  8
INSIDE
 62
4
 60
1
100
AcDbLine
 10
-11.37330758693519
 20
9.589192562585467
 30
0.0
 11
-9.715602367312613
 21
11.07653868606745
 31
0.0
  0
LINE
  5
103
330
2F
100
AcDbEntity
  8
INSIDE
 62
4
 60
1
100
AcDbLine
 10
-12.17641975966057
 20
9.632695020556511
 30
0.0
 11
-12.93602947440763
 21
10.47930965122383
 31
0.0
  0
ARC
  5
104
330
2F
100
AcDbEntity
  8
INSIDE
 62
4
 60
1
100
AcDbCircle
 10
-10.23389301483643
 20
8.319270616573576
 30
0.0
 40
0.5687185709146015
100
AcDbArc
 50
131.8994695259282
 51
221.8994695256492
  0
LINE
  5
105
330
2F
100
AcDbEntity
  8
INSIDE
 62
4
 60
1
100
AcDbLine
 10
-10.61369787220269
 20
8.742577931910873
 30
0.0
 11
-8.955992652580107
 21
10.22992405539286
 31
0.0
  0
LINE
  5
106
330
2F
100
AcDbEntity
  8
INSIDE
 62
4
 60
1
100
AcDbLine
 10
-9.89759061543395
 20
7.092851128525452
 30
0.0
 11
-10.65720033016646
 21
7.939465759192771
 31
0.0
  0
ARC
  5
107
330
2F
100
AcDbEntity
  8
INSIDE
 62
4
 60
1
100
AcDbCircle
 10
-11.92712227618562
 20
6.800051187079461
 30
0.0
 40
0.5687185709146015
100
AcDbArc
 50
41.89946952564918
 51
131.8994695259282
  0
LINE
  5
108
330
2F
100
AcDbEntity
  8
INSIDE
 62
4
 60
1
100
AcDbLine
 10
-10.74420524610854
 20
6.333241413778395
 30
0.0
 11
-11.50381496084105
 21
7.179856044452989
 31
0.0
  0
LINE
  5
109
330
2F
100
AcDbEntity
  8
INSIDE
 62
4
 60
1
100
AcDbLine
 10
-13.96463235320356
 20
5.736012378934773
 30
0.0
 11
-12.30692713355187
 21
7.223358502416758
 31
0.0
  0
ARC
  5
10A
330
2F
100
AcDbEntity
  8
INSIDE
 62
4
 60
1
100
AcDbCircle
 10
-13.44634170567974
 20
8.493280448435925
 30
0.0
 40
0.5687185709146015
100
AcDbArc
 50
311.8994695259282
 51
41.89946952564918
  0
LINE
  5
10B
330
2F
100
AcDbEntity
  8
INSIDE
 62
4
 60
1
100
AcDbLine
 10
-13.02303439034972
 20
8.873085305802176
 30
0.0
 11
-13.78264410508222
 21
9.719699936484046
 31
0.0
  0
LINE
  5
10C
330
2F
100
AcDbEntity
  8
INSIDE
 62
4
 60
1
100
AcDbLine
 10
-14.72424206793607
 20
6.582627009609367
 30
0.0
 11
-13.06653684831349
 21
8.069973133091352
 31
0.0
  0
LINE
  5
10D
330
2F
100
AcDbEntity
  8
INSIDE
  6
Continuous
 62
4
 60
1
100
AcDbLine
 10
-10.74420524610854
 20
6.333241413778395
 30
0.0
 11
-9.89759061543395
 21
7.092851128525452
 31
0.0
  0
LINE
  5
10E
330
2F
100
AcDbEntity
  8
INSIDE
  6
Continuous
 62
4
 60
1
100
AcDbLine
 10
-13.78264410508222
 20
9.719699936484046
 30
0.0
 11
-12.93602947440763
 21
10.47930965122383
 31
0.0
  0
CIRCLE
  5
10F
330
2F
100
AcDbEntity
  8
INSIDE
  6
Continuous
 62
4
 60
1
100
AcDbCircle
 10
-11.84011736025809
 20
8.406275532501112
 30
0.0
 40
3.412311425487608
  0
ARC
  5
110
330
2F
100
AcDbEntity
  8
INSIDE
 62
4
 60
1
100
AcDbCircle
 10
13.60316916321221
 20
-12.6309247048322
 30
0.0
 40
0.5687185709146015
100
AcDbArc
 50
221.8994695256492
 51
311.8994695259282
  0
LINE
  5
111
330
2F
100
AcDbEntity
  8
INSIDE
 62
4
 60
1
100
AcDbLine
 10
13.98297402059302
 20
-13.05423202016949
 30
0.0
 11
15.6406792402156
 21
-11.56688589668023
 31
0.0
  0
LINE
  5
112
330
2F
100
AcDbEntity
  8
INSIDE
 62
4
 60
1
100
AcDbLine
 10
13.17986184788219
 20
-13.01072956219845
 30
0.0
 11
12.42025213312058
 21
-12.16411493152385
 31
0.0
  0
ARC
  5
113
330
2F
100
AcDbEntity
  8
INSIDE
 62
4
 60
1
100
AcDbCircle
 10
15.12238859270633
 20
-14.32415396618138
 30
0.0
 40
0.5687185709146015
100
AcDbArc
 50
131.8994695259282
 51
221.8994695256492
  0
LINE
  5
114
330
2F
100
AcDbEntity
  8
INSIDE
 62
4
 60
1
100
AcDbLine
 10
14.74258373532552
 20
-13.90084665084408
 30
0.0
 11
16.40028895496266
 21
-12.41350052735483
 31
0.0
  0
LINE
  5
115
330
2F
100
AcDbEntity
  8
INSIDE
 62
4
 60
1
100
AcDbLine
 10
15.45869099209426
 20
-15.55057345422951
 30
0.0
 11
14.69908127736175
 21
-14.70395882355491
 31
0.0
  0
ARC
  5
116
330
2F
100
AcDbEntity
  8
INSIDE
 62
4
 60
1
100
AcDbCircle
 10
13.42915933135714
 20
-15.8433733956755
 30
0.0
 40
0.5687185709146015
100
AcDbArc
 50
41.89946952564918
 51
131.8994695259282
  0
LINE
  5
117
330
2F
100
AcDbEntity
  8
INSIDE
 62
4
 60
1
100
AcDbLine
 10
14.61207636141967
 20
-16.31018316896929
 30
0.0
 11
13.85246664668716
 21
-15.46356853829469
 31
0.0
  0
LINE
  5
118
330
2F
100
AcDbEntity
  8
INSIDE
 62
4
 60
1
100
AcDbLine
 10
11.39164925432464
 20
-16.90741220381291
 30
0.0
 11
13.04935447397634
 21
-15.4200660803382
 31
0.0
  0
ARC
  5
119
330
2F
100
AcDbEntity
  8
INSIDE
 62
4
 60
1
100
AcDbCircle
 10
11.90993990184847
 20
-14.15014413431903
 30
0.0
 40
0.5687185709146015
100
AcDbArc
 50
311.8994695259282
 51
41.89946952564918
  0
LINE
  5
11A
330
2F
100
AcDbEntity
  8
INSIDE
 62
4
 60
1
100
AcDbLine
 10
12.33324721719305
 20
-13.7703392769455
 30
0.0
 11
11.57363750244599
 21
-12.92372464626363
 31
0.0
  0
LINE
  5
11B
330
2F
100
AcDbEntity
  8
INSIDE
 62
4
 60
1
100
AcDbLine
 10
10.63203953959214
 20
-16.06079757313831
 30
0.0
 11
12.28974475922928
 21
-14.5734514496636
 31
0.0
  0
LINE
  5
11C
330
2F
100
AcDbEntity
  8
INSIDE
  6
Continuous
 62
4
 60
1
100
AcDbLine
 10
14.61207636141967
 20
-16.31018316896929
 30
0.0
 11
15.45869099209426
 21
-15.55057345422951
 31
0.0
  0
LINE
  5
11D
330
2F
100
AcDbEntity
  8
INSIDE
  6
Continuous
 62
4
 60
1
100
AcDbLine
 10
11.57363750244599
 20
-12.92372464626363
 30
0.0
 11
12.42025213312058
 21
-12.16411493152385
 31
0.0
  0
CIRCLE
  5
11E
330
2F
100
AcDbEntity
  8
INSIDE
  6
Continuous
 62
4
 60
1
100
AcDbCircle
 10
13.51616424727012
 20
-14.23714905024657
 30
0.0
 40
3.412311425487608
  0
ARC
  5
11F
330
2F
100
AcDbEntity
  8
INSIDE
 62
4
 60
1
100
AcDbCircle
 10
0.8196680207508961
 20
-12.6309247048322
 30
0.0
 40
0.5687185709146015
100
AcDbArc
 50
221.8994695256492
 51
311.8994695259282
  0
LINE
  5
120
330
2F
100
AcDbEntity
  8
INSIDE
 62
4
 60
1
100
AcDbLine
 10
1.1994728781317
 20
-13.05423202016949
 30
0.0
 11
2.857178097768837
 21
-11.56688589668023
 31
0.0
  0
LINE
  5
121
330
2F
100
AcDbEntity
  8
INSIDE
 62
4
 60
1
100
AcDbLine
 10
0.3963607054208751
 20
-13.01072956219845
 30
0.0
 11
-0.3632490093261822
 21
-12.16411493152385
 31
0.0
  0
ARC
  5
122
330
2F
100
AcDbEntity
  8
INSIDE
 62
4
 60
1
100
AcDbCircle
 10
2.33888745024501
 20
-14.32415396618138
 30
0.0
 40
0.5687185709146015
100
AcDbArc
 50
131.8994695259282
 51
221.8994695256492
  0
LINE
  5
123
330
2F
100
AcDbEntity
  8
INSIDE
 62
4
 60
1
100
AcDbLine
 10
1.959082592864206
 20
-13.90084665084408
 30
0.0
 11
3.616787812501343
 21
-12.41350052735483
 31
0.0
  0
LINE
  5
124
330
2F
100
AcDbEntity
  8
INSIDE
 62
4
 60
1
100
AcDbLine
 10
2.675189849647495
 20
-15.55057345422951
 30
0.0
 11
1.915580134900437
 21
-14.70395882355491
 31
0.0
  0
ARC
  5
125
330
2F
100
AcDbEntity
  8
INSIDE
 62
4
 60
1
100
AcDbCircle
 10
0.6456581888958226
 20
-15.8433733956755
 30
0.0
 40
0.5687185709146015
100
AcDbArc
 50
41.89946952564918
 51
131.8994695259282
  0
LINE
  5
126
330
2F
100
AcDbEntity
  8
INSIDE
 62
4
 60
1
100
AcDbLine
 10
1.8285752189729
 20
-16.31018316896929
 30
0.0
 11
1.068965504225843
 21
-15.46356853829469
 31
0.0
  0
LINE
  5
127
330
2F
100
AcDbEntity
  8
INSIDE
 62
4
 60
1
100
AcDbLine
 10
-1.391851888122118
 20
-16.90741220381291
 30
0.0
 11
0.265853331515018
 21
-15.4200660803382
 31
0.0
  0
ARC
  5
128
330
2F
100
AcDbEntity
  8
INSIDE
 62
4
 60
1
100
AcDbCircle
 10
-0.8735612406128439
 20
-14.15014413431903
 30
0.0
 40
0.5687185709146015
100
AcDbArc
 50
311.8994695259282
 51
41.89946952564918
  0
LINE
  5
129
330
2F
100
AcDbEntity
  8
INSIDE
 62
4
 60
1
100
AcDbLine
 10
-0.4502539252682709
 20
-13.7703392769455
 30
0.0
 11
-1.209863640000776
 21
-12.92372464626363
 31
0.0
  0
LINE
  5
12A
330
2F
100
AcDbEntity
  8
INSIDE
 62
4
 60
1
100
AcDbLine
 10
-2.151461602869176
 20
-16.06079757313831
 30
0.0
 11
-0.4937563832320393
 21
-14.5734514496636
 31
0.0
  0
LINE
  5
12B
330
2F
100
AcDbEntity
  8
INSIDE
  6
Continuous
 62
4
 60
1
100
AcDbLine
 10
1.8285752189729
 20
-16.31018316896929
 30
0.0
 11
2.675189849647495
 21
-15.55057345422951
 31
0.0
  0
LINE
  5
12C
330
2F
100
AcDbEntity
  8
INSIDE
  6
Continuous
 62
4
 60
1
100
AcDbLine
 10
-1.209863640000776
 20
-12.92372464626363
 30
0.0
 11
-0.3632490093261822
 21
-12.16411493152385
 31
0.0
  0
CIRCLE
  5
12D
330
2F
100
AcDbEntity
  8
INSIDE
  6
Continuous
 62
4
 60
1
100
AcDbCircle
 10
0.7326631048233594
 20
-14.23714905024657
 30
0.0
 40
3.412311425487608
  0
ARC
  5
12E
330
2F
100
AcDbEntity
  8
INSIDE
 62
4
 60
1
100
AcDbCircle
 10
-11.753112444316
 20
-12.6309247048322
 30
0.0
 40
0.5687185709146015
100
AcDbArc
 50
221.8994695256492
 51
311.8994695259282
  0
LINE
  5
12F
330
2F
100
AcDbEntity
  8
INSIDE
 62
4
 60
1
100
AcDbLine
 10
-11.37330758693519
 20
-13.05423202016949
 30
0.0
 11
-9.715602367312613
 21
-11.56688589668023
 31
0.0
  0
LINE
  5
130
330
2F
100
AcDbEntity
  8
INSIDE
 62
4
 60
1
100
AcDbLine
 10
-12.17641975966057
 20
-13.01072956219845
 30
0.0
 11
-12.93602947440763
 21
-12.16411493152385
 31
0.0
  0
ARC
  5
131
330
2F
100
AcDbEntity
  8
INSIDE
 62
4
 60
1
100
AcDbCircle
 10
-10.23389301483643
 20
-14.32415396618138
 30
0.0
 40
0.5687185709146015
100
AcDbArc
 50
131.8994695259282
 51
221.8994695256492
  0
LINE
  5
132
330
2F
100
AcDbEntity
  8
INSIDE
 62
4
 60
1
100
AcDbLine
 10
-10.61369787220269
 20
-13.90084665084408
 30
0.0
 11
-8.955992652580107
 21
-12.41350052735483
 31
0.0
  0
LINE
  5
133
330
2F
100
AcDbEntity
  8
INSIDE
 62
4
 60
1
100
AcDbLine
 10
-9.89759061543395
 20
-15.55057345422951
 30
0.0
 11
-10.65720033016646
 21
-14.70395882355491
 31
0.0
  0
ARC
  5
134
330
2F
100
AcDbEntity
  8
INSIDE
 62
4
 60
1
100
AcDbCircle
 10
-11.92712227618562
 20
-15.8433733956755
 30
0.0
 40
0.5687185709146015
100
AcDbArc
 50
41.89946952564918
 51
131.8994695259282
  0
LINE
  5
135
330
2F
100
AcDbEntity
  8
INSIDE
 62
4
 60
1
100
AcDbLine
 10
-10.74420524610854
 20
-16.31018316896929
 30
0.0
 11
-11.50381496084105
 21
-15.46356853829469
 31
0.0
  0
LINE
  5
136
330
2F
100
AcDbEntity
  8
INSIDE
 62
4
 60
1
100
AcDbLine
 10
-13.96463235320356
 20
-16.90741220381291
 30
0.0
 11
-12.30692713355187
 21
-15.4200660803382
 31
0.0
  0
ARC
  5
137
330
2F
100
AcDbEntity
  8
INSIDE
 62
4
 60
1
100
AcDbCircle
 10
-13.44634170567974
 20
-14.15014413431903
 30
0.0
 40
0.5687185709146015
100
AcDbArc
 50
311.8994695259282
 51
41.89946952564918
  0
LINE
  5
138
330
2F
100
AcDbEntity
  8
INSIDE
 62
4
 60
1
100
AcDbLine
 10
-13.02303439034972
 20
-13.7703392769455
 30
0.0
 11
-13.78264410508222
 21
-12.92372464626363
 31
0.0
  0
LINE
  5
139
330
2F
100
AcDbEntity
  8
INSIDE
 62
4
 60
1
100
AcDbLine
 10
-14.72424206793607
 20
-16.06079757313831
 30
0.0
 11
-13.06653684831349
 21
-14.5734514496636
 31
0.0
  0
LINE
  5
13A
330
2F
100
AcDbEntity
  8
INSIDE
  6
Continuous
 62
4
 60
1
100
AcDbLine
 10
-10.74420524610854
 20
-16.31018316896929
 30
0.0
 11
-9.89759061543395
 21
-15.55057345422951
 31
0.0
  0
LINE
  5
13B
330
2F
100
AcDbEntity
  8
INSIDE
  6
Continuous
 62
4
 60
1
100
AcDbLine
 10
-13.78264410508222
 20
-12.92372464626363
 30
0.0
 11
-12.93602947440763
 21
-12.16411493152385
 31
0.0
  0
CIRCLE
  5
13C
330
2F
100
AcDbEntity
  8
INSIDE
  6
Continuous
 62
4
 60
1
100
AcDbCircle
 10
-11.84011736025809
 20
-14.23714905024657
 30
0.0
 40
3.412311425487608
  0
LINE
  5
13D
330
2F
100
AcDbEntity
  8
0
 62
251
370
9
 60
1
100
AcDbLine
 10
0.7326631048088075
 20
3.084563241123632
 30
0.0
 11
0.7326631048088075
 21
-8.915436758876368
 31
0.0
  0
LINE
  5
13E
330
2F
100
AcDbEntity
  8
0
 62
251
370
9
 60
1
100
AcDbLine
 10
-5.267336895191192
 20
-2.915436758876367
 30
0.0
 11
6.732663104808807
 21
-2.915436758876367
 31
0.0
  0
CIRCLE
  5
13F
330
2F
100
AcDbEntity
  8
0
 62
251
370
9
 60
1
100
AcDbCircle
 10
0.7326631048088075
 20
-2.915436758876367
 30
0.0
 40
4.0
  0
ENDBLK
  5
31
330
2F
100
AcDbEntity
  8
0
100
AcDbBlockEnd
  0
BLOCK
  5
141
330
140
100
AcDbEntity
  8
0
100
AcDbBlockBegin
  2
Nuintek
 70
0
 10
0.0
 20
0.0
 30
0.0
  3
Nuintek
  1

  0
LWPOLYLINE
  5
143
330
140
100
AcDbEntity
  8
0
 62
150
100
AcDbPolyline
 90
13
 70
1
 10
1.822844466424413
 20
2.331771021328762
 10
1.822844466424413
 20
3.833845513473534
 10
-2.803801207955245
 20
3.833845513473534
 10
-2.803801207955245
 20
3.833845513473534
 10
-2.803801207955245
 20
-0.9937686702195094
 10
0.183414180664414
 20
-0.9937686702195094
 10
0.183414180664414
 20
-0.2304657404801276
 10
-0.1845563293458383
 20
-0.2304657404801276
 10
-0.1845563293458383
 20
-0.625798160209257
 10
-2.435681722030039
 20
-0.625798160209257
 10
-2.435681722030039
 20
3.46686817622961
 10
1.454824297775786
 20
3.46686817622961
 10
1.454824297775786
 20
2.331771021328762
  0
LWPOLYLINE
  5
144
330
140
100
AcDbEntity
  8
0
 62
150
100
AcDbPolyline
 90
20
 70
1
 10
-0.1146121704341567
 20
2.84e-14
 10
0.1146121704341567
 20
-1.42e-14
 42
0.4142135623738234
 10
0.1546121704342056
 20
0.0400000000000347
 10
0.1546121704341488
 20
1.578358753399896
 42
-0.7047199659112873
 10
0.1741234969857714
 20
1.58532706168323
 10
1.448040919274234
 20
0.0293213943030963
 42
0.2248667671231916
 10
1.509941476013352
 20
1.279e-13
 10
1.749523520106436
 20
-1.42e-14
 42
0.4142135623738234
 10
1.789523520106428
 20
0.0400000000000347
 10
1.789523520106371
 20
2.069896225279237
 42
0.4142135623735113
 10
1.749523520106379
 20
2.109896225279271
 10
1.492043414029353
 20
2.109896225279271
 42
0.4142135623735114
 10
1.452043414029361
 20
2.069896225279265
 10
1.452043414029418
 20
0.810286556587016
 42
-0.7066016661988462
 10
1.432497181336941
 20
0.8033611030447217
 10
0.3977575255679824
 20
2.080263160131906
 42
0.2261868371009028
 10
0.3356031059862801
 20
2.109896225279285
 10
-0.1146121704341567
 20
2.109896225279285
 42
0.4142135623731991
 10
-0.1546121704341488
 20
2.069896225279237
 10
-0.1546121704341488
 20
0.0400000000000347
 42
0.4142135623730951
  0
LWPOLYLINE
  5
145
330
140
100
AcDbEntity
  8
0
 62
150
100
AcDbPolyline
 90
20
 70
1
 10
5.891699452611845
 20
2.84e-14
 10
6.120923793480159
 20
-1.42e-14
 42
0.4142135623738234
 10
6.160923793480236
 20
0.0400000000000347
 10
6.160923793480179
 20
1.578358753399896
 42
-0.7047199659112873
 10
6.180435120031773
 20
1.58532706168323
 10
7.454352542320265
 20
0.0293213943030963
 42
0.2248667671231916
 10
7.516253099059412
 20
1.279e-13
 10
7.755835143152438
 20
-1.42e-14
 42
0.4142135623738234
 10
7.795835143152459
 20
0.0400000000000347
 10
7.795835143152402
 20
2.069896225279237
 42
0.4142135623735113
 10
7.755835143152438
 20
2.109896225279271
 10
7.498355037075356
 20
2.109896225279271
 42
0.4142135623735114
 10
7.458355037075392
 20
2.069896225279265
 10
7.458355037075449
 20
0.810286556587016
 42
-0.7066016661988462
 10
7.438808804383
 20
0.8033611030447217
 10
6.404069148614013
 20
2.080263160131906
 42
0.2261868371009028
 10
6.341914729032311
 20
2.109896225279285
 10
5.891699452611845
 20
2.109896225279285
 42
0.4142135623731991
 10
5.851699452611882
 20
2.069896225279237
 10
5.851699452611882
 20
0.0400000000000347
 42
0.4142135623730951
  0
LWPOLYLINE
  5
146
330
140
100
AcDbEntity
  8
0
 62
150
100
AcDbPolyline
 90
8
 70
1
 10
4.817012064410079
 20
2.069896225279251
 10
4.817012064410135
 20
0.0400000000000489
 42
0.4142135623725748
 10
4.857012064410099
 20
4.26e-14
 10
5.229104307747917
 20
7.11e-14
 42
0.414213562372887
 10
5.269104307747937
 20
0.0400000000000489
 10
5.269104307747937
 20
2.069896225279251
 42
0.4142135623727829
 10
5.229104307747917
 20
2.109896225279214
 10
4.857012064410099
 20
2.109896225279257
 42
0.4142135623730951
  0
CIRCLE
  5
147
330
140
100
AcDbEntity
  8
0
 62
150
100
AcDbCircle
 10
5.038624573484611
 20
2.688022092693643
 30
0.0
 40
0.3262572522985683
  0
LWPOLYLINE
  5
148
330
140
100
AcDbEntity
  8
0
 62
150
100
AcDbPolyline
 90
16
 70
1
 10
9.856494861702657
 20
2.109896225279271
 10
8.146747877723925
 20
2.109896225279271
 42
0.4142135623730951
 10
8.106747877723905
 20
2.069896225279265
 10
8.106747877723905
 20
1.887202028524328
 42
0.4142135623728868
 10
8.146747877723925
 20
1.847202028524321
 10
8.735401442810172
 20
1.847202028524279
 42
-0.4142135623727829
 10
8.775401442810193
 20
1.807202028524315
 10
8.77540144281025
 20
0.0400000000000631
 42
0.4142135623723667
 10
8.815401442810211
 20
5.68e-14
 10
9.260938812235253
 20
5.68e-14
 42
0.4142135623730951
 10
9.300938812235273
 20
0.0400000000000631
 10
9.300938812235273
 20
1.807202028524315
 42
-0.4142135623730951
 10
9.340938812235294
 20
1.847202028524321
 10
9.856494861702657
 20
1.847202028524321
 42
0.4142135623731991
 10
9.896494861702678
 20
1.887202028524328
 10
9.896494861702678
 20
2.069896225279265
 42
0.4142135623730951
  0
LWPOLYLINE
  5
149
330
140
100
AcDbEntity
  8
0
 62
150
100
AcDbPolyline
 90
18
 70
1
 10
11.68132564048701
 20
2.109896225279271
 10
10.36992157313281
 20
2.109896225279314
 42
0.4142135623731782
 10
10.21992157313283
 20
1.959896225279265
 10
10.21992157313283
 20
0.1500000000000625
 42
0.4142135623731228
 10
10.36992157313281
 20
4.26e-14
 10
11.68132564048701
 20
5.68e-14
 10
11.68132564048701
 20
0.2589201402421679
 10
10.74190831674425
 20
0.2589201402421679
 42
-0.4142135623722627
 10
10.70190831674429
 20
0.2989201402421742
 10
10.70190831674423
 20
0.9373068316139239
 42
-0.4142135623722627
 10
10.74190831674425
 20
0.9773068316138733
 10
11.66027037783598
 20
0.9773068316139301
 10
11.66027037783598
 20
1.236226971855984
 10
10.74190831674431
 20
1.236226971855984
 42
-0.4142135623728868
 10
10.70190831674429
 20
1.27622697185599
 10
10.70190831674429
 20
1.807946908099239
 42
-0.4142135623723667
 10
10.74190831674425
 20
1.847946908099245
 10
11.68132564048701
 20
1.847946908099288
  0
LWPOLYLINE
  5
14A
330
140
100
AcDbEntity
  8
0
 62
150
100
AcDbPolyline
 90
22
 70
1
 10
13.02409363346945
 20
1.14261634248406
 10
13.86424909582186
 20
2.068107870273493
 42
0.6505594749546204
 10
13.84572475679991
 20
2.109896225279271
 10
13.58095258765351
 20
2.10989622527947
 42
0.2086318930553114
 10
13.47100215565288
 20
2.061930055467499
 10
12.76899291034689
 20
1.306992727773945
 42
-0.6817620796744714
 10
12.74992987866685
 20
1.314475208654428
 10
12.74992987866685
 20
2.069896225279279
 42
0.414213562372991
 10
12.70992987866683
 20
2.109896225279285
 10
12.22928385194396
 20
2.109896225279257
 42
0.414213562372887
 10
12.18928385194394
 20
2.069896225279279
 10
12.18928385194394
 20
0.0400000000000631
 42
0.4142135623727829
 10
12.22928385194396
 20
5.68e-14
 10
12.70992987866683
 20
5.68e-14
 42
0.4142135623722627
 10
12.74992987866679
 20
0.0400000000000631
 10
12.74992987866685
 20
0.8791032649097729
 42
-0.6871520075210037
 10
12.76910189253786
 20
0.8864665650728937
 10
13.52454585241773
 20
0.049591361411899
 42
0.21246501940317
 10
13.63598240520386
 20
2.132e-13
 10
13.98718337993554
 20
5.68e-14
 42
0.6563112205950516
 10
14.00543464642518
 20
0.0420848257681854
 10
13.02453054952119
 20
1.088419253245803
 42
-0.3903610326755418
  0
SPLINE
  5
14B
330
140
100
AcDbEntity
  8
0
 62
150
100
AcDbSpline
 70
13
 71
3
 72
65
 73
61
 74
0
 42
1e-09
 40
0.0
 40
0.0
 40
0.0
 40
0.0
 40
1.0
 40
1.0
 40
1.0
 40
2.0
 40
2.0
 40
2.0
 40
3.0
 40
3.0
 40
3.0
 40
4.0
 40
4.0
 40
4.0
 40
5.0
 40
5.0
 40
5.0
 40
6.570796326794541
 40
6.570796326794541
 40
6.570796326794541
 40
7.570796326794541
 40
7.570796326794541
 40
7.570796326794541
 40
9.141592653589438
 40
9.141592653589438
 40
9.141592653589438
 40
10.14159265358943
 40
10.14159265358943
 40
10.14159265358943
 40
11.14159265358944
 40
11.14159265358944
 40
11.14159265358944
 40
12.14159265358944
 40
12.14159265358944
 40
12.14159265358944
 40
13.14159265358944
 40
13.14159265358944
 40
13.14159265358944
 40
14.14159265358944
 40
14.14159265358944
 40
14.14159265358944
 40
15.14159265358944
 40
15.14159265358944
 40
15.14159265358944
 40
15.92699081698777
 40
15.92699081698777
 40
15.92699081698777
 40
16.71238898038611
 40
16.71238898038611
 40
16.71238898038611
 40
17.71238898038611
 40
17.71238898038611
 40
17.71238898038611
 40
18.49778714378356
 40
18.49778714378356
 40
18.49778714378356
 40
19.28318530718101
 40
19.28318530718101
 40
19.28318530718101
 40
20.28318530718101
 40
20.28318530718101
 40
20.28318530718101
 40
20.28318530718101
 41
1.0
 41
1.0
 41
1.0
 41
1.0
 41
1.0
 41
1.0
 41
1.0
 41
1.0
 41
1.0
 41
1.0
 41
1.0
 41
1.0
 41
1.0
 41
1.0
 41
1.0
 41
1.0
 41
0.8047378541244486
 41
0.8047378541244486
 41
1.0
 41
1.0
 41
1.0
 41
1.0
 41
0.8047378541243649
 41
0.8047378541243649
 41
0.9999999999999998
 41
1.0
 41
1.0
 41
1.0
 41
1.0
 41
1.0
 41
1.0
 41
1.0
 41
1.0
 41
1.0
 41
1.0
 41
1.0
 41
1.0
 41
1.0
 41
1.0
 41
1.0
 41
1.0
 41
1.0
 41
1.0
 41
0.9492530216740778
 41
0.9492530216740778
 41
1.0
 41
0.9492530216740778
 41
0.9492530216740778
 41
1.0
 41
1.0
 41
1.0
 41
1.0
 41
0.9492530216741911
 41
0.9492530216741911
 41
1.0
 41
0.9492530216741911
 41
0.9492530216741911
 41
1.0
 41
1.0
 41
1.0
 41
1.0
 10
2.309499122038687
 20
0.8486661290207707
 30
0.0
 10
2.309499122038687
 20
0.5323902615143368
 30
0.0
 10
2.408617764141325
 20
0.3031163283540934
 30
0.0
 10
2.607153000176538
 20
0.1613905745659565
 30
0.0
 10
2.754440521457325
 20
0.053780305309374
 30
0.0
 10
2.951634974257757
 20
5.68e-14
 30
0.0
 10
3.199381920876135
 20
5.68e-14
 30
0.0
 10
3.442361638214919
 20
5.68e-14
 30
0.0
 10
3.819221044485942
 20
0.053780305309374
 30
0.0
 10
3.96874320449146
 20
0.1613905745659565
 30
0.0
 10
4.169463420613254
 20
0.3031163283540934
 30
0.0
 10
4.269773870035663
 20
0.5323902615143368
 30
0.0
 10
4.269773870035663
 20
0.8486661290252754
 30
0.0
 10
4.269773870035663
 20
1.256024226724747
 30
0.0
 10
4.269773870035663
 20
1.66253812757624
 30
0.0
 10
4.269773870035663
 20
2.069896225279265
 30
0.0
 10
4.26977387003555
 20
2.093327682784348
 30
0.0
 10
4.253205327540655
 20
2.109896225279271
 30
0.0
 10
4.229773870035586
 20
2.109896225279257
 30
0.0
 10
4.142705702051813
 20
2.109896225279285
 30
0.0
 10
4.055637534067983
 20
2.109896225279285
 30
0.0
 10
3.968569366084153
 20
2.109896225279285
 30
0.0
 10
3.945137908579084
 20
2.109896225279328
 30
0.0
 10
3.92856936608419
 20
2.093327682784348
 30
0.0
 10
3.92856936608419
 20
2.069896225279293
 30
0.0
 10
3.928569366084133
 20
1.657537052937527
 30
0.0
 10
3.928569366084133
 20
1.246022077447321
 30
0.0
 10
3.928569366084133
 20
0.8336629051055837
 30
0.0
 10
3.928569366084133
 20
0.6876168497848881
 30
0.0
 10
3.878265165457918
 20
0.570968708352467
 30
0.0
 10
3.778054033312031
 20
0.4838674567252213
 30
0.0
 10
3.677644266612816
 20
0.3987028919927127
 30
0.0
 10
3.54480740908545
 20
0.3560461216690385
 30
0.0
 10
3.37994072983659
 20
0.3560461216690385
 30
0.0
 10
3.212591118671355
 20
0.3560461216690385
 30
0.0
 10
3.078810747015722
 20
0.3987028919927127
 30
0.0
 10
2.978450638954882
 20
0.4838674567252213
 30
0.0
 10
2.880325169618828
 20
0.570968708352467
 30
0.0
 10
2.83126243495073
 20
0.6876168497848881
 30
0.0
 10
2.83126243495073
 20
0.833662905107559
 30
0.0
 10
2.83126243495073
 20
1.246022077446696
 30
0.0
 10
2.83126243495073
 20
1.657537052937229
 30
0.0
 10
2.83126243495073
 20
2.069896225279293
 30
0.0
 10
2.831262434950787
 20
2.080646669361883
 30
0.0
 10
2.8271484181098
 20
2.090578784615217
 30
0.0
 10
2.819546706198224
 20
2.098180496526779
 30
0.0
 10
2.811944994286619
 20
2.105782208438341
 30
0.0
 10
2.802012879033298
 20
2.109896225279314
 30
0.0
 10
2.791262434950681
 20
2.109896225279314
 30
0.0
 10
2.644007997313366
 20
2.109896225279285
 30
0.0
 10
2.496753559676022
 20
2.109896225279285
 30
0.0
 10
2.349499122038679
 20
2.109896225279285
 30
0.0
 10
2.33874867795609
 20
2.109896225279356
 30
0.0
 10
2.328816562702797
 20
2.105782208438341
 30
0.0
 10
2.321214850791221
 20
2.098180496526765
 30
0.0
 10
2.313613138879645
 20
2.090578784615175
 30
0.0
 10
2.309499122038715
 20
2.080646669361854
 30
0.0
 10
2.309499122038715
 20
2.069896225279279
 30
0.0
 10
2.309499122038687
 20
1.662538127575942
 30
0.0
 10
2.309499122038687
 20
1.256024226724122
 30
0.0
 10
2.309499122038687
 20
0.8486661290207707
 30
0.0
  0
ENDBLK
  5
142
330
140
100
AcDbEntity
  8
0
100
AcDbBlockEnd
  0
ENDSEC
  0
SECTION
  2
ENTITIES
  0
INSERT
  5
14E
330
17
100
AcDbEntity
  8
0
100
AcDbBlockReference
  2
TỤ KHÔ 20KVA
 10
42.28984360240815
 20
195.4431861430726
 30
0.0
  0
ENDSEC
  0
SECTION
  2
OBJECTS
  0
DICTIONARY
  5
A
330
0
100
AcDbDictionary
281
1
  3
ACAD_COLOR
350
B
  3
ACAD_GROUP
350
C
  3
ACAD_LAYOUT
350
D
  3
ACAD_MATERIAL
350
E
  3
ACAD_MLEADERSTYLE
350
F
  3
ACAD_MLINESTYLE
350
10
  3
ACAD_PLOTSETTINGS
350
11
  3
ACAD_PLOTSTYLENAME
350
12
  3
ACAD_SCALELIST
350
14
  3
ACAD_TABLESTYLE
350
15
  3
ACAD_VISUALSTYLE
350
16
  3
EZDXF_META
350
2D
  0
DICTIONARY
  5
B
330
A
100
AcDbDictionary
281
1
  0
DICTIONARY
  5
C
330
A
100
AcDbDictionary
281
1
  0
DICTIONARY
  5
D
330
A
100
AcDbDictionary
281
1
  3
Model
350
1A
  3
Layout1
350
1E
  0
DICTIONARY
  5
E
330
A
100
AcDbDictionary
281
1
  3
ByBlock
350
1F
  3
ByLayer
350
20
  3
Global
350
21
  0
DICTIONARY
  5
F
330
A
100
AcDbDictionary
281
1
  3
Standard
350
2C
  0
DICTIONARY
  5
10
330
A
100
AcDbDictionary
281
1
  3
Standard
350
22
  0
DICTIONARY
  5
11
330
A
100
AcDbDictionary
281
1
  0
ACDBDICTIONARYWDFLT
  5
12
330
A
100
AcDbDictionary
281
1
  3
Normal
350
13
100
AcDbDictionaryWithDefault
340
13
  0
ACDBPLACEHOLDER
  5
13
330
12
  0
DICTIONARY
  5
14
330
A
100
AcDbDictionary
281
1
  0
DICTIONARY
  5
15
330
A
100
AcDbDictionary
281
1
  0
DICTIONARY
  5
16
330
A
100
AcDbDictionary
281
1
  0
LAYOUT
  5
1A
330
D
100
AcDbPlotSettings
  1

  4
A3
  6

 40
7.5
 41
20.0
 42
7.5
 43
20.0
 44
420.0
 45
297.0
 46
0.0
 47
0.0
 48
0.0
 49
0.0
140
0.0
141
0.0
142
1.0
143
1.0
 70
1024
 72
1
 73
0
 74
5
  7

 75
16
 76
0
 77
2
 78
300
147
1.0
148
0.0
149
0.0
100
AcDbLayout
  1
Model
 70
1
 71
0
 10
0.0
 20
0.0
 11
420.0
 21
297.0
 12
0.0
 22
0.0
 32
0.0
 14
1e+20
 24
1e+20
 34
1e+20
 15
-1e+20
 25
-1e+20
 35
-1e+20
146
0.0
 13
0.0
 23
0.0
 33
0.0
 16
1.0
 26
0.0
 36
0.0
 17
0.0
 27
1.0
 37
0.0
 76
1
330
17
  0
LAYOUT
  5
1E
330
D
100
AcDbPlotSettings
  1

  4
A3
  6

 40
7.5
 41
20.0
 42
7.5
 43
20.0
 44
420.0
 45
297.0
 46
0.0
 47
0.0
 48
0.0
 49
0.0
140
0.0
141
0.0
142
1.0
143
1.0
 70
0
 72
1
 73
0
 74
5
  7

 75
16
 76
0
 77
2
 78
300
147
1.0
148
0.0
149
0.0
100
AcDbLayout
  1
Layout1
 70
1
 71
1
 10
0.0
 20
0.0
 11
420.0
 21
297.0
 12
0.0
 22
0.0
 32
0.0
 14
1e+20
 24
1e+20
 34
1e+20
 15
-1e+20
 25
-1e+20
 35
-1e+20
146
0.0
 13
0.0
 23
0.0
 33
0.0
 16
1.0
 26
0.0
 36
0.0
 17
0.0
 27
1.0
 37
0.0
 76
1
330
1B
  0
MATERIAL
  5
1F
102
{ACAD_REACTORS
330
E
102
}
330
E
100
AcDbMaterial
  1
ByBlock
  2

 70
0
 40
1.0
 71
1
 41
1.0
 91
-1023410177
 42
1.0
 72
1
  3

 73
1
 74
1
 75
1
 44
0.5
 73
0
 45
1.0
 46
1.0
 77
1
  4

 78
1
 79
1
170
1
 48
1.0
171
1
  6

172
1
173
1
174
1
140
1.0
141
1.0
175
1
  7

176
1
177
1
178
1
143
1.0
179
1
  8

270
1
271
1
272
1
145
1.0
146
1.0
273
1
  9

274
1
275
1
276
1
 42
1.0
 72
1
  3

 73
1
 74
1
 75
1
 94
63
  0
MATERIAL
  5
20
102
{ACAD_REACTORS
330
E
102
}
330
E
100
AcDbMaterial
  1
ByLayer
  2

 70
0
 40
1.0
 71
1
 41
1.0
 91
-1023410177
 42
1.0
 72
1
  3

 73
1
 74
1
 75
1
 44
0.5
 73
0
 45
1.0
 46
1.0
 77
1
  4

 78
1
 79
1
170
1
 48
1.0
171
1
  6

172
1
173
1
174
1
140
1.0
141
1.0
175
1
  7

176
1
177
1
178
1
143
1.0
179
1
  8

270
1
271
1
272
1
145
1.0
146
1.0
273
1
  9

274
1
275
1
276
1
 42
1.0
 72
1
  3

 73
1
 74
1
 75
1
 94
63
  0
MATERIAL
  5
21
102
{ACAD_REACTORS
330
E
102
}
330
E
100
AcDbMaterial
  1
Global
  2

 70
0
 40
1.0
 71
1
 41
1.0
 91
-1023410177
 42
1.0
 72
1
  3

 73
1
 74
1
 75
1
 44
0.5
 73
0
 45
1.0
 46
1.0
 77
1
  4

 78
1
 79
1
170
1
 48
1.0
171
1
  6

172
1
173
1
174
1
140
1.0
141
1.0
175
1
  7

176
1
177
1
178
1
143
1.0
179
1
  8

270
1
271
1
272
1
145
1.0
146
1.0
273
1
  9

274
1
275
1
276
1
 42
1.0
 72
1
  3

 73
1
 74
1
 75
1
 94
63
  0
MLINESTYLE
  5
22
102
{ACAD_REACTORS
330
10
102
}
330
10
100
AcDbMlineStyle
  2
Standard
 70
0
  3

 62
256
 51
90.0
 52
90.0
 71
2
 49
0.5
 62
256
  6
BYLAYER
 49
-0.5
 62
256
  6
BYLAYER
  0
MLEADERSTYLE
  5
2C
102
{ACAD_REACTORS
330
F
102
}
330
F
100
AcDbMLeaderStyle
179
2
170
2
171
1
172
0
 90
2
 40
0.0
 41
0.0
173
1
 91
-1056964608
 92
-2
290
1
 42
2.0
291
1
 43
8.0
  3
Standard
 44
4.0
300

342
29
174
1
175
1
176
0
178
1
 93
-1056964608
 45
4.0
292
0
297
0
 46
4.0
 94
-1056964608
 47
1.0
 49
1.0
140
1.0
294
1
141
0.0
177
0
142
1.0
295
0
296
0
143
3.75
271
0
272
9
273
9
  0
DICTIONARY
  5
2D
330
A
100
AcDbDictionary
280
1
281
1
  3
CREATED_BY_EZDXF
350
2E
  3
WRITTEN_BY_EZDXF
350
152
  0
DICTIONARYVAR
  5
2E
330
2D
100
DictionaryVariables
280
0
  1
1.4.4 @ 2026-09-23T06:03:32.006500+00:00
  0
DICTIONARYVAR
  5
152
330
2D
100
DictionaryVariables
280
0
  1
1.4.4 @ 2026-09-23T06:03:32.172078+00:00
  0
ENDSEC
  0
EOF
