  0
SECTION
  2
HEADER
  9
$ACADVER
  1
AC1032
  9
$ACADMAINTVER
 90
4
  9
$DWGCODEPAGE
  3
ANSI_1252
  9
$LASTSAVEDBY
  1
ezdxf
  9
$REQUIREDVERSIONS
160
0
  9
$INSBASE
 10
0.0
 20
0.0
 30
0.0
  9
$EXTMIN
 10
1e+20
 20
1e+20
 30
1e+20
  9
$EXTMAX
 10
-1e+20
 20
-1e+20
 30
-1e+20
  9
$LIMMIN
 10
0.0
 20
0.0
  9
$LIMMAX
 10
420.0
 20
297.0
  9
$ORTHOMODE
 70
0
  9
$REGENMODE
 70
1
  9
$FILLMODE
 70
1
  9
$QTEXTMODE
 70
0
  9
$MIRRTEXT
 70
1
  9
$LTSCALE
 40
1.0
  9
$ATTMODE
 70
1
  9
$TEXTSIZE
 40
2.5
  9
$TRACEWID
 40
1.0
  9
$TEXTSTYLE
  7
Standard
  9
$CLAYER
  8
0
  9
$CELTYPE
  6
ByLayer
  9
$CECOLOR
 62
256
  9
$CELTSCALE
 40
1.0
  9
$DISPSILH
 70
0
  9
$DIMSCALE
 40
1.0
  9
$DIMASZ
 40
2.5
  9
$DIMEXO
 40
0.625
  9
$DIMDLI
 40
3.75
  9
$DIMRND
 40
0.0
  9
$DIMDLE
 40
0.0
  9
$DIMEXE
 40
1.25
  9
$DIMTP
 40
0.0
  9
$DIMTM
 40
0.0
  9
$DIMTXT
 40
2.5
  9
$DIMCEN
 40
2.5
  9
$DIMTSZ
 40
0.0
  9
$DIMTOL
 70
0
  9
$DIMLIM
 70
0
  9
$DIMTIH
 70
0
  9
$DIMTOH
 70
0
  9
$DIMSE1
 70
0
  9
$DIMSE2
 70
0
  9
$DIMTAD
 70
1
  9
$DIMZIN
 70
8
  9
$DIMBLK
  1

  9
$DIMASO
 70
1
  9
$DIMSHO
 70
1
  9
$DIMPOST
  1

  9
$DIMAPOST
  1

  9
$DIMALT
 70
0
  9
$DIMALTD
 70
3
  9
$DIMALTF
 40
0.03937007874
  9
$DIMLFAC
 40
1.0
  9
$DIMTOFL
 70
1
  9
$DIMTVP
 40
0.0
  9
$DIMTIX
 70
0
  9
$DIMSOXD
 70
0
  9
$DIMSAH
 70
0
  9
$DIMBLK1
  1

  9
$DIMBLK2
  1

  9
$DIMSTYLE
  2
ISO-25
  9
$DIMCLRD
 70
0
  9
$DIMCLRE
 70
0
  9
$DIMCLRT
 70
0
  9
$DIMTFAC
 40
1.0
  9
$DIMGAP
 40
0.625
  9
$DIMJUST
 70
0
  9
$DIMSD1
 70
0
  9
$DIMSD2
 70
0
  9
$DIMTOLJ
 70
0
  9
$DIMTZIN
 70
8
  9
$DIMALTZ
 70
0
  9
$DIMALTTZ
 70
0
  9
$DIMUPT
 70
0
  9
$DIMDEC
 70
2
  9
$DIMTDEC
 70
2
  9
$DIMALTU
 70
2
  9
$DIMALTTD
 70
3
  9
$DIMTXSTY
  7
Standard
  9
$DIMAUNIT
 70
0
  9
$DIMADEC
 70
0
  9
$DIMALTRND
 40
0.0
  9
$DIMAZIN
 70
0
  9
$DIMDSEP
 70
44
  9
$DIMATFIT
 70
3
  9
$DIMFRAC
 70
0
  9
$DIMLDRBLK
  1

  9
$DIMLUNIT
 70
2
  9
$DIMLWD
 70
-2
  9
$DIMLWE
 70
-2
  9
$DIMTMOVE
 70
0
  9
$DIMFXL
 40
1.0
  9
$DIMFXLON
 70
0
  9
$DIMJOGANG
 40
0.785398163397
  9
$DIMTFILL
 70
0
  9
$DIMTFILLCLR
 70
0
  9
$DIMARCSYM
 70
0
  9
$DIMLTYPE
  6

  9
$DIMLTEX1
  6

  9
$DIMLTEX2
  6

  9
$DIMTXTDIRECTION
 70
0
  9
$LUNITS
 70
2
  9
$LUPREC
 70
4
  9
$SKETCHINC
 40
1.0
  9
$FILLETRAD
 40
10.0
  9
$AUNITS
 70
0
  9
$AUPREC
 70
2
  9
$MENU
  1
.
  9
$ELEVATION
 40
0.0
  9
$PELEVATION
 40
0.0
  9
$THICKNESS
 40
0.0
  9
$LIMCHECK
 70
0
  9
$CHAMFERA
 40
0.0
  9
$CHAMFERB
 40
0.0
  9
$CHAMFERC
 40
0.0
  9
$CHAMFERD
 40
0.0
  9
$SKPOLY
 70
0
  9
$TDCREATE
 40
2461307.543645833
  9
$TDUCREATE
 40
2458532.153996898
  9
$TDUPDATE
 40
2461307.5436574076
  9
$TDUUPDATE
 40
2458532.1544311
  9
$TDINDWG
 40
0.0
  9
$TDUSRTIMER
 40
0.0
  9
$USRTIMER
 70
1
  9
$ANGBASE
 50
0.0
  9
$ANGDIR
 70
0
  9
$PDMODE
 70
0
  9
$PDSIZE
 40
0.0
  9
$PLINEWID
 40
0.0
  9
$SPLFRAME
 70
0
  9
$SPLINETYPE
 70
6
  9
$SPLINESEGS
 70
8
  9
$HANDSEED
  5
111
  9
$SURFTAB1
 70
6
  9
$SURFTAB2
 70
6
  9
$SURFTYPE
 70
6
  9
$SURFU
 70
6
  9
$SURFV
 70
6
  9
$UCSBASE
  2

  9
$UCSNAME
  2

  9
$UCSORG
 10
0.0
 20
0.0
 30
0.0
  9
$UCSXDIR
 10
1.0
 20
0.0
 30
0.0
  9
$UCSYDIR
 10
0.0
 20
1.0
 30
0.0
  9
$UCSORTHOREF
  2

  9
$UCSORTHOVIEW
 70
0
  9
$UCSORGTOP
 10
0.0
 20
0.0
 30
0.0
  9
$UCSORGBOTTOM
 10
0.0
 20
0.0
 30
0.0
  9
$UCSORGLEFT
 10
0.0
 20
0.0
 30
0.0
  9
$UCSORGRIGHT
 10
0.0
 20
0.0
 30
0.0
  9
$UCSORGFRONT
 10
0.0
 20
0.0
 30
0.0
  9
$UCSORGBACK
 10
0.0
 20
0.0
 30
0.0
  9
$PUCSBASE
  2

  9
$PUCSNAME
  2

  9
$PUCSORG
 10
0.0
 20
0.0
 30
0.0
  9
$PUCSXDIR
 10
1.0
 20
0.0
 30
0.0
  9
$PUCSYDIR
 10
0.0
 20
1.0
 30
0.0
  9
$PUCSORTHOREF
  2

  9
$PUCSORTHOVIEW
 70
0
  9
$PUCSORGTOP
 10
0.0
 20
0.0
 30
0.0
  9
$PUCSORGBOTTOM
 10
0.0
 20
0.0
 30
0.0
  9
$PUCSORGLEFT
 10
0.0
 20
0.0
 30
0.0
  9
$PUCSORGRIGHT
 10
0.0
 20
0.0
 30
0.0
  9
$PUCSORGFRONT
 10
0.0
 20
0.0
 30
0.0
  9
$PUCSORGBACK
 10
0.0
 20
0.0
 30
0.0
  9
$USERI1
 70
0
  9
$USERI2
 70
0
  9
$USERI3
 70
0
  9
$USERI4
 70
0
  9
$USERI5
 70
0
  9
$USERR1
 40
0.0
  9
$USERR2
 40
0.0
  9
$USERR3
 40
0.0
  9
$USERR4
 40
0.0
  9
$USERR5
 40
0.0
  9
$WORLDVIEW
 70
1
  9
$SHADEDGE
 70
3
  9
$SHADEDIF
 70
70
  9
$TILEMODE
 70
1
  9
$MAXACTVP
 70
64
  9
$PINSBASE
 10
0.0
 20
0.0
 30
0.0
  9
$PLIMCHECK
 70
0
  9
$PEXTMIN
 10
1e+20
 20
1e+20
 30
1e+20
  9
$PEXTMAX
 10
-1e+20
 20
-1e+20
 30
-1e+20
  9
$PLIMMIN
 10
0.0
 20
0.0
  9
$PLIMMAX
 10
420.0
 20
297.0
  9
$UNITMODE
 70
0
  9
$VISRETAIN
 70
1
  9
$PLINEGEN
 70
0
  9
$PSLTSCALE
 70
1
  9
$TREEDEPTH
 70
3020
  9
$CMLSTYLE
  2
Standard
  9
$CMLJUST
 70
0
  9
$CMLSCALE
 40
20.0
  9
$PROXYGRAPHICS
 70
1
  9
$MEASUREMENT
 70
1
  9
$CELWEIGHT
370
-1
  9
$ENDCAPS
280
0
  9
$JOINSTYLE
280
0
  9
$LWDISPLAY
290
0
  9
$INSUNITS
 70
4
  9
$HYPERLINKBASE
  1

  9
$STYLESHEET
  1

  9
$XEDIT
290
1
  9
$CEPSNTYPE
380
0
  9
$PSTYLEMODE
290
1
  9
$FINGERPRINTGUID
  2
{3808CF21-5EBE-4674-B245-F02A83057500}
  9
$VERSIONGUID
  2
{31878B6F-9B28-48E9-AA21-AAF1C1A94231}
  9
$EXTNAMES
290
1
  9
$PSVPSCALE
 40
0.0
  9
$OLESTARTUP
290
0
  9
$SORTENTS
280
127
  9
$INDEXCTL
280
0
  9
$HIDETEXT
280
1
  9
$XCLIPFRAME
280
1
  9
$HALOGAP
280
0
  9
$OBSCOLOR
 70
257
  9
$OBSLTYPE
280
0
  9
$INTERSECTIONDISPLAY
280
0
  9
$INTERSECTIONCOLOR
 70
257
  9
$DIMASSOC
280
2
  9
$PROJECTNAME
  1

  9
$CAMERADISPLAY
290
0
  9
$LENSLENGTH
 40
50.0
  9
$CAMERAHEIGHT
 40
0.0
  9
$STEPSPERSEC
 40
24.0
  9
$STEPSIZE
 40
100.0
  9
$3DDWFPREC
 40
2.0
  9
$PSOLWIDTH
 40
0.005
  9
$PSOLHEIGHT
 40
0.08
  9
$LOFTANG1
 40
1.570796326795
  9
$LOFTANG2
 40
1.570796326795
  9
$LOFTMAG1
 40
0.0
  9
$LOFTMAG2
 40
0.0
  9
$LOFTPARAM
 70
7
  9
$LOFTNORMALS
280
1
  9
$LATITUDE
 40
37.795
  9
$LONGITUDE
 40
-122.394
  9
$NORTHDIRECTION
 40
0.0
  9
$TIMEZONE
 70
-8000
  9
$LIGHTGLYPHDISPLAY
280
1
  9
$TILEMODELIGHTSYNCH
280
1
  9
$CMATERIAL
347
20
  9
$SOLIDHIST
280
0
  9
$SHOWHIST
280
1
  9
$DWFFRAME
280
2
  9
$DGNFRAME
280
2
  9
$REALWORLDSCALE
290
1
  9
$INTERFERECOLOR
 62
256
  9
$CSHADOW
280
0
  9
$SHADOWPLANELOCATION
 40
0.0
  0
ENDSEC
  0
SECTION
  2
CLASSES
  0
CLASS
  1
ACDBDICTIONARYWDFLT
  2
AcDbDictionaryWithDefault
  3
ObjectDBX Classes
 90
0
 91
0
280
0
281
0
  0
CLASS
  1
SUN
  2
AcDbSun
  3
SCENEOE
 90
1153
 91
0
280
0
281
0
  0
CLASS
  1
VISUALSTYLE
  2
AcDbVisualStyle
  3
ObjectDBX Classes
 90
4095
 91
0
280
0
281
0
  0
CLASS
  1
MATERIAL
  2
AcDbMaterial
  3
ObjectDBX Classes
 90
1153
 91
0
280
0
281
0
  0
CLASS
  1
SCALE
  2
AcDbScale
  3
ObjectDBX Classes
 90
1153
 91
0
280
0
281
0
  0
CLASS
  1
TABLESTYLE
  2
AcDbTableStyle
  3
ObjectDBX Classes
 90
4095
 91
0
280
0
281
0
  0
CLASS
  1
MLEADERSTYLE
  2
AcDbMLeaderStyle
  3
ACDB_MLEADERSTYLE_CLASS
 90
4095
 91
0
280
0
281
0
  0
CLASS
  1
DICTIONARYVAR
  2
AcDbDictionaryVar
  3
ObjectDBX Classes
 90
0
 91
0
280
0
281
0
  0
CLASS
  1
CELLSTYLEMAP
  2
AcDbCellStyleMap
  3
ObjectDBX Classes
 90
1152
 91
0
280
0
281
0
  0
CLASS
  1
MENTALRAYRENDERSETTINGS
  2
AcDbMentalRayRenderSettings
  3
SCENEOE
 90
1024
 91
0
280
0
281
0
  0
CLASS
  1
ACDBDETAILVIEWSTYLE
  2
AcDbDetailViewStyle
  3
ObjectDBX Classes
 90
1025
 91
0
280
0
281
0
  0
CLASS
  1
ACDBSECTIONVIEWSTYLE
  2
AcDbSectionViewStyle
  3
ObjectDBX Classes
 90
1025
 91
0
280
0
281
0
  0
CLASS
  1
RASTERVARIABLES
  2
AcDbRasterVariables
  3
ISM
 90
0
 91
0
280
0
281
0
  0
CLASS
  1
LAYOUT
  2
AcDbLayout
  3
ObjectDBX Classes
 90
0
 91
0
280
0
281
0
  0
CLASS
  1
ACDBPLACEHOLDER
  2
AcDbPlaceHolder
  3
ObjectDBX Classes
 90
0
 91
0
280
0
281
0
  0
ENDSEC
  0
SECTION
  2
TABLES
  0
TABLE
  2
VPORT
  5
8
330
0
100
AcDbSymbolTable
 70
1
  0
VPORT
  5
23
330
8
100
AcDbSymbolTableRecord
100
AcDbViewportTableRecord
  2
*Active
 70
0
 10
0.0
 20
0.0
 11
1.0
 21
1.0
 12
0.0
 22
0.0
 13
0.0
 23
0.0
 14
0.5
 24
0.5
 15
0.5
 25
0.5
 16
0.0
 26
0.0
 36
1.0
 17
0.0
 27
0.0
 37
0.0
 40
1000.0
 41
1.34
 42
50.0
 43
0.0
 44
0.0
 50
0.0
 51
0.0
 71
0
 72
1000
 73
1
 74
3
 75
0
 76
0
 77
0
 78
0
281
0
 65
0
146
0.0
  0
ENDTAB
  0
TABLE
  2
LTYPE
  5
2
330
0
100
AcDbSymbolTable
 70
3
  0
LTYPE
  5
24
330
2
100
AcDbSymbolTableRecord
100
AcDbLinetypeTableRecord
  2
ByBlock
 70
0
  3

 72
65
 73
0
 40
0.0
  0
LTYPE
  5
25
330
2
100
AcDbSymbolTableRecord
100
AcDbLinetypeTableRecord
  2
ByLayer
 70
0
  3

 72
65
 73
0
 40
0.0
  0
LTYPE
  5
26
330
2
100
AcDbSymbolTableRecord
100
AcDbLinetypeTableRecord
  2
Continuous
 70
0
  3

 72
65
 73
0
 40
0.0
  0
ENDTAB
  0
TABLE
  2
LAYER
  5
1
330
0
100
AcDbSymbolTable
 70
2
  0
LAYER
  5
27
330
1
100
AcDbSymbolTableRecord
100
AcDbLayerTableRecord
  2
0
 70
0
 62
7
  6
Continuous
370
-3
390
13
347
21
  0
LAYER
  5
28
330
1
100
AcDbSymbolTableRecord
100
AcDbLayerTableRecord
  2
Defpoints
 70
0
 62
7
  6
Continuous
290
0
370
-3
390
13
347
21
  0
ENDTAB
  0
TABLE
  2
STYLE
  5
5
330
0
100
AcDbSymbolTable
 70
2
  0
STYLE
  5
29
330
5
100
AcDbSymbolTableRecord
100
AcDbTextStyleTableRecord
  2
Standard
 70
0
 40
0.0
 41
1.0
 50
0.0
 71
0
 42
2.5
  3
txt
  4

  0
STYLE
  5
10B
330
5
100
AcDbSymbolTableRecord
100
AcDbTextStyleTableRecord
  2
ss
 70
0
 40
2.5
 41
1.0
 50
0.0
 71
0
 42
2.5
  3
romans.shx
  4
gsg1.shx
  0
ENDTAB
  0
TABLE
  2
VIEW
  5
7
330
0
100
AcDbSymbolTable
 70
0
  0
ENDTAB
  0
TABLE
  2
UCS
  5
6
330
0
100
AcDbSymbolTable
 70
0
  0
ENDTAB
  0
TABLE
  2
APPID
  5
3
330
0
100
AcDbSymbolTable
 70
3
  0
APPID
  5
2A
330
3
100
AcDbSymbolTableRecord
100
AcDbRegAppTableRecord
  2
ACAD
 70
0
  0
APPID
  5
10E
330
3
100
AcDbSymbolTableRecord
100
AcDbRegAppTableRecord
  2
HATCHBACKGROUNDCOLOR
 70
0
  0
APPID
  5
10F
330
3
100
AcDbSymbolTableRecord
100
AcDbRegAppTableRecord
  2
EZDXF
 70
0
  0
ENDTAB
  0
TABLE
  2
DIMSTYLE
  5
4
330
0
100
AcDbSymbolTable
 70
1
100
AcDbDimStyleTable
  0
DIMSTYLE
105
2B
330
4
100
AcDbSymbolTableRecord
100
AcDbDimStyleTableRecord
  2
Standard
 70
0
 40
1.0
 41
2.5
 42
0.625
 43
3.75
 44
1.25
 45
0.0
 46
0.0
 47
0.0
 48
0.0
 49
2.5
140
2.5
141
2.5
142
0.0
143
0.03937007874
144
1.0
145
0.0
146
1.0
147
0.625
148
0.0
 69
0
 70
0
 71
0
 72
0
 73
0
 74
0
 75
0
 76
0
 77
1
 78
8
 79
3
170
0
171
3
172
1
173
0
174
0
175
0
176
0
177
0
178
0
179
2
271
2
272
2
273
2
274
3
275
0
276
0
277
2
278
44
279
0
280
0
281
0
282
0
283
0
284
8
285
0
286
0
288
0
289
3
290
0
371
-2
372
-2
  0
ENDTAB
  0
TABLE
  2
BLOCK_RECORD
  5
9
330
0
100
AcDbSymbolTable
 70
3
  0
BLOCK_RECORD
  5
17
330
9
100
AcDbSymbolTableRecord
100
AcDbBlockTableRecord
  2
*Model_Space
340
1A
 70
0
280
1
281
0
  0
BLOCK_RECORD
  5
1B
330
9
100
AcDbSymbolTableRecord
100
AcDbBlockTableRecord
  2
*Paper_Space
340
1E
 70
0
280
1
281
0
  0
BLOCK_RECORD
  5
2F
330
9
100
AcDbSymbolTableRecord
100
AcDbBlockTableRecord
  2
CC MC 265a
340
0
 70
0
280
1
281
0
  0
ENDTAB
  0
ENDSEC
  0
SECTION
  2
BLOCKS
  0
BLOCK
  5
18
330
17
100
AcDbEntity
  8
0
100
AcDbBlockBegin
  2
*Model_Space
 70
0
 10
0.0
 20
0.0
 30
0.0
  3
*Model_Space
  1

  0
ENDBLK
  5
19
330
17
100
AcDbEntity
  8
0
100
AcDbBlockEnd
  0
BLOCK
  5
1C
330
1B
100
AcDbEntity
  8
0
100
AcDbBlockBegin
  2
*Paper_Space
 70
0
 10
0.0
 20
0.0
 30
0.0
  3
*Paper_Space
  1

  0
ENDBLK
  5
1D
330
1B
100
AcDbEntity
  8
0
100
AcDbBlockEnd
  0
BLOCK
  5
30
330
2F
100
AcDbEntity
  8
0
100
AcDbBlockBegin
  2
CC MC 265a
 70
0
 10
0.0
 20
0.0
 30
0.0
  3
CC MC 265a
  1

  0
LINE
  5
32
330
2F
100
AcDbEntity
  8
0
 62
7
100
AcDbLine
 10
3935.877342419081
 20
627.9151350214698
 30
0.0
 11
4018.257240204428
 21
627.9151350214698
 31
0.0
  0
LINE
  5
33
330
2F
100
AcDbEntity
  8
0
 62
7
100
AcDbLine
 10
4018.257240204428
 20
627.9151350214698
 30
0.0
 11
4018.257240204428
 21
654.6851520572451
 31
0.0
  0
LINE
  5
34
330
2F
100
AcDbEntity
  8
0
 62
7
100
AcDbLine
 10
4018.257240204428
 20
654.6851520572451
 30
0.0
 11
4021.5
 21
654.6851520572451
 31
0.0
  0
LINE
  5
35
330
2F
100
AcDbEntity
  8
0
 62
7
100
AcDbLine
 10
4021.5
 20
654.6851520572451
 30
0.0
 11
4021.5
 21
613.6331929431052
 31
0.0
  0
LINE
  5
36
330
2F
100
AcDbEntity
  8
0
 62
7
100
AcDbLine
 10
4021.5
 20
613.6331929431052
 30
0.0
 11
4016.877342419079
 21
608.3205864695107
 31
0.0
  0
LINE
  5
37
330
2F
100
AcDbEntity
  8
0
 62
7
100
AcDbLine
 10
4016.877342419079
 20
608.3205864695107
 30
0.0
 11
4016.877342419079
 21
603.3529544422536
 31
0.0
  0
LINE
  5
38
330
2F
100
AcDbEntity
  8
0
 62
7
100
AcDbLine
 10
4016.877342419079
 20
603.3529544422536
 30
0.0
 11
4020.672061328791
 21
603.3529544422536
 31
0.0
  0
LINE
  5
39
330
2F
100
AcDbEntity
  8
0
 62
7
100
AcDbLine
 10
4020.672061328791
 20
603.3529544422536
 30
0.0
 11
4020.672061328791
 21
597.4883888545194
 31
0.0
  0
LINE
  5
3A
330
2F
100
AcDbEntity
  8
0
 62
7
100
AcDbLine
 10
4020.672061328791
 20
597.4883888545194
 30
0.0
 11
4016.877342419079
 21
597.4883888545194
 31
0.0
  0
LINE
  5
3B
330
2F
100
AcDbEntity
  8
0
 62
7
100
AcDbLine
 10
4016.877342419079
 20
597.4883888545194
 30
0.0
 11
4016.877342419079
 21
586.8631759073302
 31
0.0
  0
LINE
  5
3C
330
2F
100
AcDbEntity
  8
0
 62
7
100
AcDbLine
 10
4016.877342419079
 20
586.8631759073302
 30
0.0
 11
4018.46422487223
 21
586.8631759073302
 31
0.0
  0
LINE
  5
3D
330
2F
100
AcDbEntity
  8
0
 62
7
100
AcDbLine
 10
4018.257240204428
 20
627.9151350214698
 30
0.0
 11
4018.257240204428
 21
613.7021878323727
 31
0.0
  0
LINE
  5
3E
330
2F
100
AcDbEntity
  8
0
 62
7
100
AcDbLine
 10
4018.257240204428
 20
613.7021878323727
 30
0.0
 11
4012.875638841568
 21
608.3895813587782
 31
0.0
  0
LINE
  5
3F
330
2F
100
AcDbEntity
  8
0
 62
7
100
AcDbLine
 10
4012.875638841568
 20
608.3895813587782
 30
0.0
 11
4012.875638841568
 21
587.1391554644
 31
0.0
  0
LINE
  5
40
330
2F
100
AcDbEntity
  8
0
 62
7
100
AcDbLine
 10
4016.877342419079
 20
587.1391554644
 30
0.0
 11
4012.875638841568
 21
587.1391554644
 31
0.0
  0
LINE
  5
41
330
2F
100
AcDbEntity
  8
0
 62
7
100
AcDbLine
 10
4018.257240204428
 20
613.7021878323727
 30
0.0
 11
4021.5
 21
613.7021878323727
 31
0.0
  0
LINE
  5
42
330
2F
100
AcDbEntity
  8
0
 62
7
100
AcDbLine
 10
4012.875638841568
 20
608.3895813587782
 30
0.0
 11
4016.941237858862
 21
608.3940185420964
 31
0.0
  0
LINE
  5
43
330
2F
100
AcDbEntity
  8
0
 62
7
100
AcDbLine
 10
4017.153321976149
 20
603.3529544422536
 30
0.0
 11
4017.153321976149
 21
597.4883888545194
 31
0.0
  0
LINE
  5
44
330
2F
100
AcDbEntity
  8
0
 62
7
100
AcDbLine
 10
4016.877342419079
 20
603.559939110056
 30
0.0
 11
4005.355195911413
 21
603.559939110056
 31
0.0
  0
LINE
  5
45
330
2F
100
AcDbEntity
  8
0
 62
7
100
AcDbLine
 10
4005.355195911413
 20
606.6647091270917
 30
0.0
 11
4005.355195911413
 21
594.7285932838207
 31
0.0
  0
LINE
  5
46
330
2F
100
AcDbEntity
  8
0
 62
7
100
AcDbLine
 10
4005.355195911413
 20
594.7285932838207
 30
0.0
 11
3999.628620102214
 21
594.7285932838207
 31
0.0
  0
LINE
  5
47
330
2F
100
AcDbEntity
  8
0
 62
7
100
AcDbLine
 10
4005.355195911413
 20
606.6647091270917
 30
0.0
 11
3999.559625212948
 21
606.6647091270917
 31
0.0
  0
LINE
  5
48
330
2F
100
AcDbEntity
  8
0
 62
7
100
AcDbLine
 10
3999.559625212948
 20
606.6647091270917
 30
0.0
 11
3999.559625212948
 21
627.9151350214698
 31
0.0
  0
LINE
  5
49
330
2F
100
AcDbEntity
  8
0
 62
7
100
AcDbLine
 10
3999.628620102214
 20
594.7285932838207
 30
0.0
 11
3999.628620102214
 21
569.9594280368021
 31
0.0
  0
LINE
  5
4A
330
2F
100
AcDbEntity
  8
0
 62
7
100
AcDbLine
 10
3999.628620102214
 20
569.9594280368021
 30
0.0
 11
3973.134582623508
 21
569.9594280368021
 31
0.0
  0
LINE
  5
4B
330
2F
100
AcDbEntity
  8
0
 62
7
100
AcDbLine
 10
3973.134582623508
 20
569.9594280368021
 30
0.0
 11
3973.134582623508
 21
569.1314893655926
 31
0.0
  0
LINE
  5
4C
330
2F
100
AcDbEntity
  8
0
 62
7
100
AcDbLine
 10
3973.134582623508
 20
569.1314893655926
 30
0.0
 11
3940.431005110733
 21
569.1314893655926
 31
0.0
  0
LINE
  5
4D
330
2F
100
AcDbEntity
  8
0
 62
7
100
AcDbLine
 10
3999.283645655879
 20
604.3878777812655
 30
0.0
 11
3999.283645655879
 21
597.143414408182
 31
0.0
  0
ARC
  5
4E
330
2F
100
AcDbEntity
  8
0
 62
7
100
AcDbCircle
 10
4001.626016831031
 20
603.2965572330756
 30
0.0
 40
2.584121371199611
100
AcDbArc
 50
61.18853501922499
 51
155.0189910498782
  0
ARC
  5
4F
330
2F
100
AcDbEntity
  8
0
 62
7
100
AcDbCircle
 10
4001.626016831031
 20
598.2347349563717
 30
0.0
 40
2.584121371199611
100
AcDbArc
 50
204.9810089501218
 51
298.811464980775
  0
LINE
  5
50
330
2F
100
AcDbEntity
  8
0
 62
7
100
AcDbLine
 10
4002.871379897785
 20
605.5607908988122
 30
0.0
 11
4002.871379897784
 21
595.9705012906352
 31
0.0
  0
ARC
  5
51
330
2F
100
AcDbEntity
  8
0
 62
7
100
AcDbCircle
 10
4003.906303236798
 20
604.3102585308401
 30
0.0
 40
1.623236742122731
100
AcDbArc
 50
70.12092564611098
 51
129.6106882399443
  0
ARC
  5
52
330
2F
100
AcDbEntity
  8
0
 62
7
100
AcDbCircle
 10
4003.906303236798
 20
597.2210336586068
 30
0.0
 40
1.623236742122731
100
AcDbArc
 50
230.3893117600556
 51
289.879074353889
  0
LINE
  5
53
330
2F
100
AcDbEntity
  8
0
 62
7
100
AcDbLine
 10
4004.458262350937
 20
605.836770455882
 30
0.0
 11
4004.458262350937
 21
594.7285932838207
 31
0.0
  0
LINE
  5
54
330
2F
100
AcDbEntity
  8
0
 62
7
100
AcDbLine
 10
4004.458262350937
 20
605.836770455882
 30
0.0
 11
4004.458262350937
 21
606.6647091270917
 31
0.0
  0
LINE
  5
55
330
2F
100
AcDbEntity
  8
0
 62
7
100
AcDbLine
 10
3999.283645655879
 20
602.1110464354392
 30
0.0
 11
4000.87052810903
 21
600.73114865009
 31
0.0
  0
LINE
  5
56
330
2F
100
AcDbEntity
  8
0
 62
7
100
AcDbLine
 10
4000.87052810903
 20
600.73114865009
 30
0.0
 11
3999.283645655879
 21
599.5582355325431
 31
0.0
  0
ARC
  5
57
330
2F
100
AcDbEntity
  8
0
 62
7
100
AcDbCircle
 10
3911.269736951086
 20
639.4876527635982
 30
0.0
 40
27.19296625527173
100
AcDbArc
 50
277.5313899591826
 51
334.8132355987918
  0
LINE
  5
58
330
2F
100
AcDbEntity
  8
0
 62
7
100
AcDbLine
 10
3914.833901192504
 20
612.5292747148258
 30
0.0
 11
3895.377342419081
 21
612.5292747148258
 31
0.0
  0
LINE
  5
59
330
2F
100
AcDbEntity
  8
0
 62
7
100
AcDbLine
 10
3895.377342419081
 20
612.5292747148258
 30
0.0
 11
3895.377342419081
 21
648.406617133906
 31
0.0
  0
LINE
  5
5A
330
2F
100
AcDbEntity
  8
0
 62
7
100
AcDbLine
 10
3895.377342419081
 20
648.406617133906
 30
0.0
 11
3888.270868824531
 21
648.406617133906
 31
0.0
  0
LINE
  5
5B
330
2F
100
AcDbEntity
  8
0
 62
7
100
AcDbLine
 10
3888.270868824531
 20
648.406617133906
 30
0.0
 11
3888.270868824531
 21
612.4602798255582
 31
0.0
  0
LINE
  5
5C
330
2F
100
AcDbEntity
  8
0
 62
7
100
AcDbLine
 10
3888.270868824531
 20
612.4602798255582
 30
0.0
 11
3826.520442930153
 21
612.4602798255582
 31
0.0
  0
LINE
  5
5D
330
2F
100
AcDbEntity
  8
0
 62
7
100
AcDbLine
 10
3826.520442930153
 20
612.4602798255582
 30
0.0
 11
3823.760647359455
 21
610.1144535904648
 31
0.0
  0
LINE
  5
5E
330
2F
100
AcDbEntity
  8
0
 62
7
100
AcDbLine
 10
3823.760647359455
 20
610.1144535904648
 30
0.0
 11
3823.760647359455
 21
556.9193939652519
 31
0.0
  0
LINE
  5
5F
330
2F
100
AcDbEntity
  8
0
 62
7
100
AcDbLine
 10
3823.760647359455
 20
556.9193939652519
 30
0.0
 11
3817.413117546848
 21
556.9193939652519
 31
0.0
  0
LINE
  5
60
330
2F
100
AcDbEntity
  8
0
 62
7
100
AcDbLine
 10
3817.413117546848
 20
556.9193939652519
 30
0.0
 11
3817.413117546848
 21
544.3623241185738
 31
0.0
  0
LINE
  5
61
330
2F
100
AcDbEntity
  8
0
 62
7
100
AcDbLine
 10
3817.413117546848
 20
544.3623241185738
 30
0.0
 11
3823.760647359455
 21
544.3623241185738
 31
0.0
  0
LINE
  5
62
330
2F
100
AcDbEntity
  8
0
 62
7
100
AcDbLine
 10
3886.614991482113
 20
633.5727159414017
 30
0.0
 11
3896.895229982965
 21
633.5727159414017
 31
0.0
  0
LINE
  5
63
330
2F
100
AcDbEntity
  8
0
 62
7
100
AcDbLine
 10
3888.270868824531
 20
640.6791895359503
 30
0.0
 11
3895.377342419081
 21
640.6791895359503
 31
0.0
  0
LINE
  5
64
330
2F
100
AcDbEntity
  8
0
 62
7
100
AcDbLine
 10
3888.270868824531
 20
626.604232125388
 30
0.0
 11
3895.377342419081
 21
626.604232125388
 31
0.0
  0
LINE
  5
65
330
2F
100
AcDbEntity
  8
0
 62
7
100
AcDbLine
 10
3888.270868824531
 20
613.0812338289657
 30
0.0
 11
3895.377342419081
 21
613.0812338289657
 31
0.0
  0
ARC
  5
66
330
2F
100
AcDbEntity
  8
0
 62
7
100
AcDbCircle
 10
3979.745099449103
 20
542.3144303598624
 30
0.0
 40
47.58941759848611
100
AcDbArc
 50
145.7011913695061
 51
158.0630691863656
  0
LINE
  5
67
330
2F
100
AcDbEntity
  8
0
 62
7
100
AcDbLine
 10
3935.60136286201
 20
560.0931588715551
 30
0.0
 11
3912.419080068143
 21
560.0931588715551
 31
0.0
  0
ARC
  5
68
330
2F
100
AcDbEntity
  8
0
 62
7
100
AcDbCircle
 10
3933.326687606474
 20
545.5902175385057
 30
0.0
 40
25.44530134006526
100
AcDbArc
 50
145.2521870380941
 51
183.6995909683295
  0
LINE
  5
69
330
2F
100
AcDbEntity
  8
0
 62
7
100
AcDbLine
 10
3907.93441226576
 20
543.9483547829691
 30
0.0
 11
3851.841567291311
 21
543.9483547829691
 31
0.0
  0
LINE
  5
6A
330
2F
100
AcDbEntity
  8
0
 62
7
100
AcDbLine
 10
3907.93441226576
 20
543.9483547829691
 30
0.0
 11
3917.593696763204
 21
543.9483547829691
 31
0.0
  0
ARC
  5
6B
330
2F
100
AcDbEntity
  8
0
 62
7
100
AcDbCircle
 10
3932.937797005291
 20
543.4953488652787
 30
0.0
 40
15.35078586264202
100
AcDbArc
 50
138.7955870814297
 51
178.3089402643835
  0
LINE
  5
6C
330
2F
100
AcDbEntity
  8
0
 62
7
100
AcDbLine
 10
3921.388415672913
 20
553.6076392804138
 30
0.0
 11
3942.914821124361
 21
553.6076392804138
 31
0.0
  0
ARC
  5
6D
330
2F
100
AcDbEntity
  8
0
 62
7
100
AcDbCircle
 10
3956.564310051108
 20
552.9291895359504
 30
0.0
 40
13.66633974468388
100
AcDbArc
 50
138.2743775249474
 51
177.1544471813492
  0
LINE
  5
6E
330
2F
100
AcDbEntity
  8
0
 62
7
100
AcDbLine
 10
3946.364565587734
 20
562.0250157710439
 30
0.0
 11
3968.166950596252
 21
562.0250157710439
 31
0.0
  0
LINE
  5
6F
330
2F
100
AcDbEntity
  8
0
 62
7
100
AcDbLine
 10
3968.166950596252
 20
562.0250157710439
 30
0.0
 11
3968.166950596252
 21
569.1314893655926
 31
0.0
  0
ARC
  5
70
330
2F
100
AcDbEntity
  8
0
 62
7
100
AcDbCircle
 10
3969.784130805125
 20
564.5595280293952
 30
0.0
 40
4.474138984479028
100
AcDbArc
 50
134.4838847117529
 51
214.5051595723426
  0
LINE
  5
71
330
2F
100
AcDbEntity
  8
0
 62
7
100
AcDbLine
 10
3966.649063032369
 20
567.7515915802431
 30
0.0
 11
3968.166950596252
 21
567.7515915802431
 31
0.0
  0
LINE
  5
72
330
2F
100
AcDbEntity
  8
0
 62
7
100
AcDbLine
 10
3965.549353527349
 20
566.0033358628908
 30
0.0
 11
3966.925042589437
 21
564.7848113417425
 31
0.0
  0
LINE
  5
73
330
2F
100
AcDbEntity
  8
0
 62
7
100
AcDbLine
 10
3966.925042589437
 20
564.7848113417425
 30
0.0
 11
3965.462518269457
 21
563.4012600362337
 31
0.0
  0
CIRCLE
  5
74
330
2F
100
AcDbEntity
  8
0
 62
7
100
AcDbCircle
 10
3962.164395229983
 20
555.3325115121002
 30
0.0
 40
1.706839296465232
  0
CIRCLE
  5
75
330
2F
100
AcDbEntity
  8
0
 62
7
100
AcDbCircle
 10
3962.164395229983
 20
555.3325115121002
 30
0.0
 40
2.212144434228949
  0
CIRCLE
  5
76
330
2F
100
AcDbEntity
  8
0
 62
7
100
AcDbCircle
 10
3941.60391822828
 20
548.2260379175516
 30
0.0
 40
1.191036453690117
  0
CIRCLE
  5
77
330
2F
100
AcDbEntity
  8
0
 62
7
100
AcDbCircle
 10
3941.60391822828
 20
548.2260379175516
 30
0.0
 40
2.00204100240596
  0
CIRCLE
  5
78
330
2F
100
AcDbEntity
  8
0
 62
7
100
AcDbCircle
 10
3941.60391822828
 20
548.2260379175516
 30
0.0
 40
3.54300680815635
  0
CIRCLE
  5
79
330
2F
100
AcDbEntity
  8
0
 62
7
100
AcDbCircle
 10
3941.60391822828
 20
548.2260379175516
 30
0.0
 40
4.424288868457898
  0
LWPOLYLINE
  5
7A
330
2F
100
AcDbEntity
  8
0
 62
7
100
AcDbPolyline
 90
4
 70
1
 10
3947.744463373084
 20
549.4679459243658
 10
3951.056218057922
 20
549.4679459243658
 10
3951.056218057922
 20
547.8120685819468
 10
3947.744463373084
 20
547.8120685819468
  0
LWPOLYLINE
  5
7B
330
2F
100
AcDbEntity
  8
0
 62
7
100
AcDbPolyline
 90
4
 70
1
 10
3947.330494037478
 20
549.8129203707033
 10
3951.40119250426
 20
549.8129203707033
 10
3951.40119250426
 20
547.5360890248771
 10
3947.330494037478
 20
547.5360890248771
  0
CIRCLE
  5
7C
330
2F
100
AcDbEntity
  8
0
 62
7
100
AcDbCircle
 10
3932.703577512777
 20
548.2260379175516
 30
0.0
 40
1.706839296465232
  0
CIRCLE
  5
7D
330
2F
100
AcDbEntity
  8
0
 62
7
100
AcDbCircle
 10
3932.703577512777
 20
548.2260379175516
 30
0.0
 40
2.212144434228949
  0
LINE
  5
7E
330
2F
100
AcDbEntity
  8
0
 62
7
100
AcDbLine
 10
3973.134582623508
 20
569.1314893655926
 30
0.0
 11
3973.134582623508
 21
505.5871963502603
 31
0.0
  0
CIRCLE
  5
7F
330
2F
100
AcDbEntity
  8
0
 62
7
100
AcDbCircle
 10
3982.379897785349
 20
553.1936699448087
 30
0.0
 40
3.251555724374113
  0
CIRCLE
  5
80
330
2F
100
AcDbEntity
  8
0
 62
7
100
AcDbCircle
 10
3982.379897785349
 20
553.1936699448087
 30
0.0
 40
5.053610719780677
  0
LINE
  5
81
330
2F
100
AcDbEntity
  8
0
 62
7
100
AcDbLine
 10
3981.689948892674
 20
558.1999611701153
 30
0.0
 11
3981.689948892674
 21
556.3711823608675
 31
0.0
  0
LINE
  5
82
330
2F
100
AcDbEntity
  8
0
 62
7
100
AcDbLine
 10
3981.689948892674
 20
550.0161575287501
 30
0.0
 11
3981.689948892674
 21
548.1873787195024
 31
0.0
  0
LINE
  5
83
330
2F
100
AcDbEntity
  8
0
 62
7
100
AcDbLine
 10
3982.931856899489
 20
558.2170475379626
 30
0.0
 11
3982.931856899489
 21
556.3980350558764
 31
0.0
  0
LINE
  5
84
330
2F
100
AcDbEntity
  8
0
 62
7
100
AcDbLine
 10
3982.931856899489
 20
549.9893048337411
 30
0.0
 11
3982.931856899489
 21
548.1702923516551
 31
0.0
  0
LINE
  5
85
330
2F
100
AcDbEntity
  8
0
 62
7
100
AcDbLine
 10
3977.394569424669
 20
554.0216086160183
 30
0.0
 11
3979.235516735695
 21
554.0216086160183
 31
0.0
  0
LINE
  5
86
330
2F
100
AcDbEntity
  8
0
 62
7
100
AcDbLine
 10
3985.524278835004
 20
554.0216086160183
 30
0.0
 11
3987.365226146028
 21
554.0216086160183
 31
0.0
  0
LINE
  5
87
330
2F
100
AcDbEntity
  8
0
 62
7
100
AcDbLine
 10
3977.343270868825
 20
552.7797006092042
 30
0.0
 11
3979.154801815012
 21
552.7797006092042
 31
0.0
  0
LINE
  5
88
330
2F
100
AcDbEntity
  8
0
 62
7
100
AcDbLine
 10
3985.604993755688
 20
552.7797006092042
 30
0.0
 11
3987.416524701874
 21
552.7797006092042
 31
0.0
  0
LINE
  5
89
330
2F
100
AcDbEntity
  8
0
 62
7
100
AcDbLine
 10
3831.971039182283
 20
612.4602798255582
 30
0.0
 11
3831.971039182283
 21
453.9100242889317
 31
0.0
  0
LINE
  5
8A
330
2F
100
AcDbEntity
  8
0
 62
7
100
AcDbLine
 10
3935.877342419081
 20
438.4551690930202
 30
0.0
 11
4018.257240204428
 21
438.4551690930202
 31
0.0
  0
LINE
  5
8B
330
2F
100
AcDbEntity
  8
0
 62
7
100
AcDbLine
 10
4018.257240204428
 20
438.4551690930202
 30
0.0
 11
4018.257240204428
 21
411.6851520572451
 31
0.0
  0
LINE
  5
8C
330
2F
100
AcDbEntity
  8
0
 62
7
100
AcDbLine
 10
4018.257240204428
 20
411.6851520572451
 30
0.0
 11
4021.5
 21
411.6851520572451
 31
0.0
  0
LINE
  5
8D
330
2F
100
AcDbEntity
  8
0
 62
7
100
AcDbLine
 10
4021.5
 20
411.6851520572451
 30
0.0
 11
4021.5
 21
452.7371111713846
 31
0.0
  0
LINE
  5
8E
330
2F
100
AcDbEntity
  8
0
 62
7
100
AcDbLine
 10
4021.5
 20
452.7371111713846
 30
0.0
 11
4016.877342419079
 21
458.0497176449791
 31
0.0
  0
LINE
  5
8F
330
2F
100
AcDbEntity
  8
0
 62
7
100
AcDbLine
 10
4016.877342419079
 20
458.0497176449791
 30
0.0
 11
4016.877342419079
 21
463.0173496722366
 31
0.0
  0
LINE
  5
90
330
2F
100
AcDbEntity
  8
0
 62
7
100
AcDbLine
 10
4016.877342419079
 20
463.0173496722366
 30
0.0
 11
4020.672061328791
 21
463.0173496722366
 31
0.0
  0
LINE
  5
91
330
2F
100
AcDbEntity
  8
0
 62
7
100
AcDbLine
 10
4020.672061328791
 20
463.0173496722366
 30
0.0
 11
4020.672061328791
 21
468.8819152599707
 31
0.0
  0
LINE
  5
92
330
2F
100
AcDbEntity
  8
0
 62
7
100
AcDbLine
 10
4020.672061328791
 20
468.8819152599707
 30
0.0
 11
4016.877342419079
 21
468.8819152599707
 31
0.0
  0
LINE
  5
93
330
2F
100
AcDbEntity
  8
0
 62
7
100
AcDbLine
 10
4016.877342419079
 20
468.8819152599707
 30
0.0
 11
4016.877342419079
 21
479.5071282071599
 31
0.0
  0
LINE
  5
94
330
2F
100
AcDbEntity
  8
0
 62
7
100
AcDbLine
 10
4016.877342419079
 20
479.5071282071599
 30
0.0
 11
4018.46422487223
 21
479.5071282071599
 31
0.0
  0
LINE
  5
95
330
2F
100
AcDbEntity
  8
0
 62
7
100
AcDbLine
 10
4018.257240204428
 20
438.4551690930202
 30
0.0
 11
4018.257240204428
 21
452.6681162821173
 31
0.0
  0
LINE
  5
96
330
2F
100
AcDbEntity
  8
0
 62
7
100
AcDbLine
 10
4018.257240204428
 20
452.6681162821173
 30
0.0
 11
4012.875638841568
 21
457.9807227557118
 31
0.0
  0
LINE
  5
97
330
2F
100
AcDbEntity
  8
0
 62
7
100
AcDbLine
 10
4012.875638841568
 20
457.9807227557118
 30
0.0
 11
4012.875638841568
 21
479.2311486500899
 31
0.0
  0
LINE
  5
98
330
2F
100
AcDbEntity
  8
0
 62
7
100
AcDbLine
 10
4016.877342419079
 20
479.2311486500899
 30
0.0
 11
4012.875638841568
 21
479.2311486500899
 31
0.0
  0
LINE
  5
99
330
2F
100
AcDbEntity
  8
0
 62
7
100
AcDbLine
 10
4018.257240204428
 20
452.6681162821173
 30
0.0
 11
4021.5
 21
452.6681162821173
 31
0.0
  0
LINE
  5
9A
330
2F
100
AcDbEntity
  8
0
 62
7
100
AcDbLine
 10
4012.875638841568
 20
457.9807227557118
 30
0.0
 11
4016.941237858862
 21
457.9762855723936
 31
0.0
  0
LINE
  5
9B
330
2F
100
AcDbEntity
  8
0
 62
7
100
AcDbLine
 10
4017.153321976149
 20
463.0173496722366
 30
0.0
 11
4017.153321976149
 21
468.8819152599707
 31
0.0
  0
LINE
  5
9C
330
2F
100
AcDbEntity
  8
0
 62
7
100
AcDbLine
 10
4016.877342419079
 20
462.8103650044342
 30
0.0
 11
4005.355195911413
 21
462.8103650044342
 31
0.0
  0
LINE
  5
9D
330
2F
100
AcDbEntity
  8
0
 62
7
100
AcDbLine
 10
4005.355195911413
 20
459.7055949873984
 30
0.0
 11
4005.355195911413
 21
471.6417108306692
 31
0.0
  0
LINE
  5
9E
330
2F
100
AcDbEntity
  8
0
 62
7
100
AcDbLine
 10
4005.355195911413
 20
471.6417108306692
 30
0.0
 11
3999.628620102214
 21
471.6417108306692
 31
0.0
  0
LINE
  5
9F
330
2F
100
AcDbEntity
  8
0
 62
7
100
AcDbLine
 10
4005.355195911413
 20
459.7055949873984
 30
0.0
 11
3999.559625212948
 21
459.7055949873984
 31
0.0
  0
LINE
  5
A0
330
2F
100
AcDbEntity
  8
0
 62
7
100
AcDbLine
 10
3999.559625212948
 20
459.7055949873984
 30
0.0
 11
3999.559625212948
 21
438.4551690930202
 31
0.0
  0
LINE
  5
A1
330
2F
100
AcDbEntity
  8
0
 62
7
100
AcDbLine
 10
3999.628620102214
 20
471.6417108306692
 30
0.0
 11
3999.628620102214
 21
496.410876077688
 31
0.0
  0
LINE
  5
A2
330
2F
100
AcDbEntity
  8
0
 62
7
100
AcDbLine
 10
3999.628620102214
 20
496.410876077688
 30
0.0
 11
3973.134582623508
 21
496.410876077688
 31
0.0
  0
LINE
  5
A3
330
2F
100
AcDbEntity
  8
0
 62
7
100
AcDbLine
 10
3973.134582623508
 20
496.410876077688
 30
0.0
 11
3973.134582623508
 21
497.2388147488975
 31
0.0
  0
LINE
  5
A4
330
2F
100
AcDbEntity
  8
0
 62
7
100
AcDbLine
 10
3973.134582623508
 20
497.2388147488975
 30
0.0
 11
3940.431005110733
 21
497.2388147488975
 31
0.0
  0
LINE
  5
A5
330
2F
100
AcDbEntity
  8
0
 62
7
100
AcDbLine
 10
3999.283645655879
 20
461.9824263332246
 30
0.0
 11
3999.283645655879
 21
469.2268897063081
 31
0.0
  0
ARC
  5
A6
330
2F
100
AcDbEntity
  8
0
 62
7
100
AcDbCircle
 10
4001.626016831031
 20
463.0737468814142
 30
0.0
 40
2.584121371199611
100
AcDbArc
 50
204.9810089501218
 51
298.811464980775
  0
ARC
  5
A7
330
2F
100
AcDbEntity
  8
0
 62
7
100
AcDbCircle
 10
4001.626016831031
 20
468.1355691581183
 30
0.0
 40
2.584121371199611
100
AcDbArc
 50
61.18853501922499
 51
155.0189910498782
  0
LINE
  5
A8
330
2F
100
AcDbEntity
  8
0
 62
7
100
AcDbLine
 10
4002.871379897785
 20
460.8095132156779
 30
0.0
 11
4002.871379897784
 21
470.399802823855
 31
0.0
  0
ARC
  5
A9
330
2F
100
AcDbEntity
  8
0
 62
7
100
AcDbCircle
 10
4003.906303236798
 20
462.0600455836497
 30
0.0
 40
1.623236742122731
100
AcDbArc
 50
230.3893117600556
 51
289.879074353889
  0
ARC
  5
AA
330
2F
100
AcDbEntity
  8
0
 62
7
100
AcDbCircle
 10
4003.906303236798
 20
469.1492704558831
 30
0.0
 40
1.623236742122731
100
AcDbArc
 50
70.12092564611098
 51
129.6106882399443
  0
LINE
  5
AB
330
2F
100
AcDbEntity
  8
0
 62
7
100
AcDbLine
 10
4004.458262350937
 20
460.5335336586078
 30
0.0
 11
4004.458262350937
 21
471.6417108306692
 31
0.0
  0
LINE
  5
AC
330
2F
100
AcDbEntity
  8
0
 62
7
100
AcDbLine
 10
4004.458262350937
 20
460.5335336586078
 30
0.0
 11
4004.458262350937
 21
459.7055949873984
 31
0.0
  0
LINE
  5
AD
330
2F
100
AcDbEntity
  8
0
 62
7
100
AcDbLine
 10
3999.283645655879
 20
464.2592576790508
 30
0.0
 11
4000.87052810903
 21
465.6391554644001
 31
0.0
  0
LINE
  5
AE
330
2F
100
AcDbEntity
  8
0
 62
7
100
AcDbLine
 10
4000.87052810903
 20
465.6391554644001
 30
0.0
 11
3999.283645655879
 21
466.8120685819468
 31
0.0
  0
ARC
  5
AF
330
2F
100
AcDbEntity
  8
0
 62
7
100
AcDbCircle
 10
3911.269736951086
 20
426.8826513508916
 30
0.0
 40
27.19296625527173
100
AcDbArc
 50
25.18676440120812
 51
82.4686100408173
  0
LINE
  5
B0
330
2F
100
AcDbEntity
  8
0
 62
7
100
AcDbLine
 10
3914.833901192504
 20
453.8410293996641
 30
0.0
 11
3895.377342419081
 21
453.8410293996641
 31
0.0
  0
LINE
  5
B1
330
2F
100
AcDbEntity
  8
0
 62
7
100
AcDbLine
 10
3895.377342419081
 20
453.8410293996641
 30
0.0
 11
3895.377342419081
 21
417.963686980584
 31
0.0
  0
LINE
  5
B2
330
2F
100
AcDbEntity
  8
0
 62
7
100
AcDbLine
 10
3895.377342419081
 20
417.963686980584
 30
0.0
 11
3888.270868824531
 21
417.963686980584
 31
0.0
  0
LINE
  5
B3
330
2F
100
AcDbEntity
  8
0
 62
7
100
AcDbLine
 10
3888.270868824531
 20
417.963686980584
 30
0.0
 11
3888.270868824531
 21
453.9100242889317
 31
0.0
  0
LINE
  5
B4
330
2F
100
AcDbEntity
  8
0
 62
7
100
AcDbLine
 10
3888.270868824531
 20
453.9100242889317
 30
0.0
 11
3826.520442930153
 21
453.9100242889317
 31
0.0
  0
LINE
  5
B5
330
2F
100
AcDbEntity
  8
0
 62
7
100
AcDbLine
 10
3826.520442930153
 20
453.9100242889317
 30
0.0
 11
3823.760647359455
 21
456.2558505240253
 31
0.0
  0
LINE
  5
B6
330
2F
100
AcDbEntity
  8
0
 62
7
100
AcDbLine
 10
3823.760647359455
 20
456.2558505240253
 30
0.0
 11
3823.760647359455
 21
509.4509101492382
 31
0.0
  0
LINE
  5
B7
330
2F
100
AcDbEntity
  8
0
 62
7
100
AcDbLine
 10
3823.760647359455
 20
509.4509101492382
 30
0.0
 11
3817.413117546848
 21
509.4509101492382
 31
0.0
  0
LINE
  5
B8
330
2F
100
AcDbEntity
  8
0
 62
7
100
AcDbLine
 10
3817.413117546848
 20
509.4509101492382
 30
0.0
 11
3817.413117546848
 21
522.0079799959162
 31
0.0
  0
LINE
  5
B9
330
2F
100
AcDbEntity
  8
0
 62
7
100
AcDbLine
 10
3817.413117546848
 20
522.0079799959162
 30
0.0
 11
3823.760647359455
 21
522.0079799959162
 31
0.0
  0
LINE
  5
BA
330
2F
100
AcDbEntity
  8
0
 62
7
100
AcDbLine
 10
3886.614991482113
 20
432.7975881730883
 30
0.0
 11
3896.895229982965
 21
432.7975881730883
 31
0.0
  0
LINE
  5
BB
330
2F
100
AcDbEntity
  8
0
 62
7
100
AcDbLine
 10
3888.270868824531
 20
425.6911145785396
 30
0.0
 11
3895.377342419081
 21
425.6911145785396
 31
0.0
  0
LINE
  5
BC
330
2F
100
AcDbEntity
  8
0
 62
7
100
AcDbLine
 10
3888.270868824531
 20
439.7660719891018
 30
0.0
 11
3895.377342419081
 21
439.7660719891018
 31
0.0
  0
LINE
  5
BD
330
2F
100
AcDbEntity
  8
0
 62
7
100
AcDbLine
 10
3888.270868824531
 20
453.2890702855243
 30
0.0
 11
3895.377342419081
 21
453.2890702855243
 31
0.0
  0
ARC
  5
BE
330
2F
100
AcDbEntity
  8
0
 62
7
100
AcDbCircle
 10
3979.745099449103
 20
524.0558737546278
 30
0.0
 40
47.58941759848611
100
AcDbArc
 50
201.9369308136343
 51
214.2988086304939
  0
LINE
  5
BF
330
2F
100
AcDbEntity
  8
0
 62
7
100
AcDbLine
 10
3935.60136286201
 20
506.277145242935
 30
0.0
 11
3912.419080068143
 21
506.277145242935
 31
0.0
  0
ARC
  5
C0
330
2F
100
AcDbEntity
  8
0
 62
7
100
AcDbCircle
 10
3933.326687606474
 20
520.7800865759843
 30
0.0
 40
25.44530134006526
100
AcDbArc
 50
176.3004090316703
 51
214.7478129619059
  0
LINE
  5
C1
330
2F
100
AcDbEntity
  8
0
 62
7
100
AcDbLine
 10
3907.93441226576
 20
522.4219493315209
 30
0.0
 11
3851.841567291311
 21
522.4219493315209
 31
0.0
  0
LINE
  5
C2
330
2F
100
AcDbEntity
  8
0
 62
7
100
AcDbLine
 10
3907.93441226576
 20
522.4219493315209
 30
0.0
 11
3917.593696763204
 21
522.4219493315209
 31
0.0
  0
ARC
  5
C3
330
2F
100
AcDbEntity
  8
0
 62
7
100
AcDbCircle
 10
3932.937797005291
 20
522.8749552492113
 30
0.0
 40
15.35078586264202
100
AcDbArc
 50
181.6910597356164
 51
221.2044129185704
  0
LINE
  5
C4
330
2F
100
AcDbEntity
  8
0
 62
7
100
AcDbLine
 10
3921.388415672913
 20
512.7626648340763
 30
0.0
 11
3942.914821124361
 21
512.7626648340763
 31
0.0
  0
ARC
  5
C5
330
2F
100
AcDbEntity
  8
0
 62
7
100
AcDbCircle
 10
3956.564310051108
 20
513.4411145785398
 30
0.0
 40
13.66633974468388
100
AcDbArc
 50
182.8455528186507
 51
221.7256224750525
  0
LINE
  5
C6
330
2F
100
AcDbEntity
  8
0
 62
7
100
AcDbLine
 10
3946.364565587734
 20
504.345288343446
 30
0.0
 11
3968.166950596252
 21
504.345288343446
 31
0.0
  0
LINE
  5
C7
330
2F
100
AcDbEntity
  8
0
 62
7
100
AcDbLine
 10
3968.166950596252
 20
504.345288343446
 30
0.0
 11
3968.166950596252
 21
497.2388147488975
 31
0.0
  0
ARC
  5
C8
330
2F
100
AcDbEntity
  8
0
 62
7
100
AcDbCircle
 10
3969.784130805125
 20
501.8107760850949
 30
0.0
 40
4.474138984479028
100
AcDbArc
 50
145.4948404276574
 51
225.5161152882471
  0
LINE
  5
C9
330
2F
100
AcDbEntity
  8
0
 62
7
100
AcDbLine
 10
3966.649063032369
 20
498.6187125342468
 30
0.0
 11
3968.166950596252
 21
498.6187125342468
 31
0.0
  0
LINE
  5
CA
330
2F
100
AcDbEntity
  8
0
 62
7
100
AcDbLine
 10
3965.549353527349
 20
500.3669682515993
 30
0.0
 11
3966.925042589437
 21
501.5854927727475
 31
0.0
  0
LINE
  5
CB
330
2F
100
AcDbEntity
  8
0
 62
7
100
AcDbLine
 10
3966.925042589437
 20
501.5854927727475
 30
0.0
 11
3965.462518269457
 21
502.9690440782561
 31
0.0
  0
CIRCLE
  5
CC
330
2F
100
AcDbEntity
  8
0
 62
7
100
AcDbCircle
 10
3962.164395229983
 20
511.0377926023899
 30
0.0
 40
1.706839296465232
  0
CIRCLE
  5
CD
330
2F
100
AcDbEntity
  8
0
 62
7
100
AcDbCircle
 10
3962.164395229983
 20
511.0377926023899
 30
0.0
 40
2.212144434228949
  0
CIRCLE
  5
CE
330
2F
100
AcDbEntity
  8
0
 62
7
100
AcDbCircle
 10
3941.60391822828
 20
518.1442661969382
 30
0.0
 40
1.191036453690117
  0
CIRCLE
  5
CF
330
2F
100
AcDbEntity
  8
0
 62
7
100
AcDbCircle
 10
3941.60391822828
 20
518.1442661969382
 30
0.0
 40
2.00204100240596
  0
CIRCLE
  5
D0
330
2F
100
AcDbEntity
  8
0
 62
7
100
AcDbCircle
 10
3941.60391822828
 20
518.1442661969382
 30
0.0
 40
3.54300680815635
  0
CIRCLE
  5
D1
330
2F
100
AcDbEntity
  8
0
 62
7
100
AcDbCircle
 10
3941.60391822828
 20
518.1442661969382
 30
0.0
 40
4.424288868457898
  0
LWPOLYLINE
  5
D2
330
2F
100
AcDbEntity
  8
0
 62
7
100
AcDbPolyline
 90
4
 70
1
 10
3947.744463373084
 20
516.9023581901241
 10
3951.056218057922
 20
516.9023581901241
 10
3951.056218057922
 20
518.5582355325432
 10
3947.744463373084
 20
518.5582355325432
  0
LWPOLYLINE
  5
D3
330
2F
100
AcDbEntity
  8
0
 62
7
100
AcDbPolyline
 90
4
 70
1
 10
3947.330494037478
 20
516.5573837437865
 10
3951.40119250426
 20
516.5573837437865
 10
3951.40119250426
 20
518.834215089613
 10
3947.330494037478
 20
518.834215089613
  0
CIRCLE
  5
D4
330
2F
100
AcDbEntity
  8
0
 62
7
100
AcDbCircle
 10
3932.703577512777
 20
518.1442661969382
 30
0.0
 40
1.706839296465232
  0
CIRCLE
  5
D5
330
2F
100
AcDbEntity
  8
0
 62
7
100
AcDbCircle
 10
3932.703577512777
 20
518.1442661969382
 30
0.0
 40
2.212144434228949
  0
LINE
  5
D6
330
2F
100
AcDbEntity
  8
0
 62
7
100
AcDbLine
 10
3973.134582623508
 20
497.2388147488975
 30
0.0
 11
3973.134582623508
 21
505.5871963502603
 31
0.0
  0
CIRCLE
  5
D7
330
2F
100
AcDbEntity
  8
0
 62
7
100
AcDbCircle
 10
3982.379897785349
 20
513.1766341696812
 30
0.0
 40
3.251555724374113
  0
CIRCLE
  5
D8
330
2F
100
AcDbEntity
  8
0
 62
7
100
AcDbCircle
 10
3982.379897785349
 20
513.1766341696812
 30
0.0
 40
5.053610719780677
  0
LINE
  5
D9
330
2F
100
AcDbEntity
  8
0
 62
7
100
AcDbLine
 10
3981.689948892674
 20
508.1703429443748
 30
0.0
 11
3981.689948892674
 21
509.9991217536223
 31
0.0
  0
LINE
  5
DA
330
2F
100
AcDbEntity
  8
0
 62
7
100
AcDbLine
 10
3981.689948892674
 20
516.3541465857398
 30
0.0
 11
3981.689948892674
 21
518.1829253949874
 31
0.0
  0
LINE
  5
DB
330
2F
100
AcDbEntity
  8
0
 62
7
100
AcDbLine
 10
3982.931856899489
 20
508.1532565765273
 30
0.0
 11
3982.931856899489
 21
509.9722690586133
 31
0.0
  0
LINE
  5
DC
330
2F
100
AcDbEntity
  8
0
 62
7
100
AcDbLine
 10
3982.931856899489
 20
516.3809992807489
 30
0.0
 11
3982.931856899489
 21
518.200011762835
 31
0.0
  0
LINE
  5
DD
330
2F
100
AcDbEntity
  8
0
 62
7
100
AcDbLine
 10
3977.394569424669
 20
512.3486954984716
 30
0.0
 11
3979.235516735695
 21
512.3486954984716
 31
0.0
  0
LINE
  5
DE
330
2F
100
AcDbEntity
  8
0
 62
7
100
AcDbLine
 10
3985.524278835004
 20
512.3486954984716
 30
0.0
 11
3987.365226146028
 21
512.3486954984716
 31
0.0
  0
LINE
  5
DF
330
2F
100
AcDbEntity
  8
0
 62
7
100
AcDbLine
 10
3977.343270868825
 20
513.5906035052859
 30
0.0
 11
3979.154801815012
 21
513.5906035052859
 31
0.0
  0
LINE
  5
E0
330
2F
100
AcDbEntity
  8
0
 62
7
100
AcDbLine
 10
3985.604993755688
 20
513.5906035052859
 30
0.0
 11
3987.416524701874
 21
513.5906035052859
 31
0.0
  0
LINE
  5
E1
330
2F
100
AcDbEntity
  8
0
 62
7
100
AcDbLine
 10
4018.46422487223
 20
586.8631759073302
 30
0.0
 11
4018.46422487223
 21
479.5071282071599
 31
0.0
  0
LINE
  5
E2
330
2F
100
AcDbEntity
  8
0
 62
7
100
AcDbLine
 10
3907.93441226576
 20
543.9483547829691
 30
0.0
 11
3907.93441226576
 21
522.4219493315209
 31
0.0
  0
ARC
  5
E3
330
2F
100
AcDbEntity
  8
0
 62
7
100
AcDbCircle
 10
3895.778077821183
 20
533.3429183880914
 30
0.0
 40
1.988227145780824
100
AcDbArc
 50
112.0281883475771
 51
245.8099632791185
  0
LINE
  5
E4
330
2F
100
AcDbEntity
  8
0
 62
7
100
AcDbLine
 10
3894.963373083476
 20
531.529274714826
 30
0.0
 11
3907.93441226576
 21
531.529274714826
 31
0.0
  0
LINE
  5
E5
330
2F
100
AcDbEntity
  8
0
 62
7
100
AcDbLine
 10
3895.032367972742
 20
535.1860038460013
 30
0.0
 11
3907.93441226576
 21
535.1860038460013
 31
0.0
  0
LINE
  5
E6
330
2F
100
AcDbEntity
  8
0
 62
7
100
AcDbLine
 10
3906.347529812607
 20
543.9483547829691
 30
0.0
 11
3906.347529812607
 21
535.1860038460013
 31
0.0
  0
LINE
  5
E7
330
2F
100
AcDbEntity
  8
0
 62
7
100
AcDbLine
 10
3906.416524701874
 20
531.529274714826
 30
0.0
 11
3906.416524701874
 21
522.4219493315209
 31
0.0
  0
LINE
  5
E8
330
2F
100
AcDbEntity
  8
0
 62
7
100
AcDbLine
 10
3851.841567291311
 20
543.9483547829691
 30
0.0
 11
3851.841567291311
 21
522.4219493315209
 31
0.0
  0
LWPOLYLINE
  5
E9
330
2F
100
AcDbEntity
  8
0
 62
7
100
AcDbPolyline
 90
4
 70
1
 10
3851.841567291311
 20
539.8776563161886
 10
3858.327086882453
 20
539.8776563161886
 10
3858.327086882453
 20
526.6306375768362
 10
3851.841567291311
 20
526.6306375768362
  0
LINE
  5
EA
330
2F
100
AcDbEntity
  8
0
 62
7
100
AcDbLine
 10
3855.981260647359
 20
543.9483547829691
 30
0.0
 11
3855.981260647359
 21
539.8776563161886
 31
0.0
  0
LINE
  5
EB
330
2F
100
AcDbEntity
  8
0
 62
7
100
AcDbLine
 10
3855.981260647359
 20
522.5599391100558
 30
0.0
 11
3855.981260647359
 21
526.6306375768362
 31
0.0
  0
LINE
  5
EC
330
2F
100
AcDbEntity
  8
0
 62
7
100
AcDbLine
 10
3855.291311754685
 20
536.4279118528156
 30
0.0
 11
3855.291311754685
 21
530.1493769294767
 31
0.0
  0
ARC
  5
ED
330
2F
100
AcDbEntity
  8
0
 62
7
100
AcDbCircle
 10
3859.118532389091
 20
536.1205709824425
 30
0.0
 40
3.839541143812646
100
AcDbArc
 50
101.8956697530483
 51
175.4087758074487
  0
ARC
  5
EE
330
2F
100
AcDbEntity
  8
0
 62
7
100
AcDbCircle
 10
3860.308170472599
 20
531.4087274644767
 30
0.0
 40
5.172507628367339
100
AcDbArc
 50
194.0914346744363
 51
247.480208279904
  0
ARC
  5
EF
330
2F
100
AcDbEntity
  8
0
 62
7
100
AcDbCircle
 10
3855.244420151605
 20
530.1367760165772
 30
0.0
 40
1.371638052156884
100
AcDbArc
 50
293.6896735941228
 51
351.852814646038
  0
LINE
  5
F0
330
2F
100
AcDbEntity
  8
0
 62
7
100
AcDbLine
 10
3856.602214650767
 20
529.9423922616743
 30
0.0
 11
3856.602214650767
 21
531.3222900470234
 31
0.0
  0
LINE
  5
F1
330
2F
100
AcDbEntity
  8
0
 62
7
100
AcDbLine
 10
3856.602214650767
 20
531.3222900470234
 30
0.0
 11
3858.327086882453
 21
533.2541469465125
 31
0.0
  0
ARC
  5
F2
330
2F
100
AcDbEntity
  8
0
 62
7
100
AcDbCircle
 10
3855.321237659402
 20
536.5228448560244
 30
0.0
 40
1.512855861557581
100
AcDbArc
 50
5.71190852903183
 51
73.33975086570207
  0
LINE
  5
F3
330
2F
100
AcDbEntity
  8
0
 62
7
100
AcDbLine
 10
3856.826582048718
 20
536.673414200198
 30
0.0
 11
3856.734690964232
 21
535.2965794509983
 31
0.0
  0
LINE
  5
F4
330
2F
100
AcDbEntity
  8
0
 62
7
100
AcDbLine
 10
3856.734690964232
 20
535.2965794509983
 30
0.0
 11
3858.327086882453
 21
533.2541469465125
 31
0.0
  0
LWPOLYLINE
  5
F5
330
2F
100
AcDbEntity
  8
0
 62
7
100
AcDbPolyline
 90
4
 70
1
 10
3912.695059625214
 20
536.2209271850132
 10
3933.46252129472
 20
536.2209271850132
 10
3933.46252129472
 20
530.3563615972791
 10
3912.695059625214
 20
530.3563615972791
  0
LINE
  5
F6
330
2F
100
AcDbEntity
  8
0
 62
7
100
AcDbLine
 10
3921.73339011925
 20
536.2209271850132
 30
0.0
 11
3921.73339011925
 21
530.3563615972791
 31
0.0
  0
LINE
  5
F7
330
2F
100
AcDbEntity
  8
0
 62
7
100
AcDbLine
 10
3915.247870528109
 20
536.2209271850132
 30
0.0
 11
3915.247870528109
 21
530.3563615972791
 31
0.0
  0
LINE
  5
F8
330
2F
100
AcDbEntity
  8
0
 62
7
100
AcDbLine
 10
3823.760647359455
 20
544.3623241185738
 30
0.0
 11
3823.760647359455
 21
522.0079799959162
 31
0.0
  0
LINE
  5
F9
330
2F
100
AcDbEntity
  8
0
 62
7
100
AcDbLine
 10
3823.760647359455
 20
556.9193939652519
 30
0.0
 11
3823.760647359455
 21
544.3623241185738
 31
0.0
  0
LINE
  5
FA
330
2F
100
AcDbEntity
  8
0
 62
7
100
AcDbLine
 10
3821.48381601363
 20
556.9193939652519
 30
0.0
 11
3821.48381601363
 21
550.2268897063079
 31
0.0
  0
LINE
  5
FB
330
2F
100
AcDbEntity
  8
0
 62
7
100
AcDbLine
 10
3821.48381601363
 20
550.2268897063079
 30
0.0
 11
3823.760647359455
 21
550.2268897063079
 31
0.0
  0
LINE
  5
FC
330
2F
100
AcDbEntity
  8
0
 62
7
100
AcDbLine
 10
3817.413117546848
 20
519.5931588715551
 30
0.0
 11
3819.689948892675
 21
519.5931588715551
 31
0.0
  0
LINE
  5
FD
330
2F
100
AcDbEntity
  8
0
 62
7
100
AcDbLine
 10
3819.689948892675
 20
519.5931588715551
 30
0.0
 11
3819.689948892675
 21
514.1425626194257
 31
0.0
  0
LINE
  5
FE
330
2F
100
AcDbEntity
  8
0
 62
7
100
AcDbLine
 10
3823.760647359455
 20
522.0079799959162
 30
0.0
 11
3823.760647359455
 21
509.4509101492382
 31
0.0
  0
LINE
  5
FF
330
2F
100
AcDbEntity
  8
0
 62
7
100
AcDbLine
 10
3819.689948892675
 20
514.1425626194257
 30
0.0
 11
3823.760647359455
 21
514.1425626194257
 31
0.0
  0
LINE
  5
100
330
2F
100
AcDbEntity
  8
0
 62
7
100
AcDbLine
 10
3823.760647359455
 20
562.2320004388464
 30
0.0
 11
3827.003407155025
 21
559.2652202003455
 31
0.0
  0
LINE
  5
101
330
2F
100
AcDbEntity
  8
0
 62
7
100
AcDbLine
 10
3827.003407155025
 20
559.2652202003455
 30
0.0
 11
3823.760647359455
 21
559.2652202003455
 31
0.0
  0
LINE
  5
102
330
2F
100
AcDbEntity
  8
0
 62
7
100
AcDbLine
 10
3827.003407155025
 20
559.2652202003455
 30
0.0
 11
3827.003407155025
 21
507.2430736926794
 31
0.0
  0
LINE
  5
103
330
2F
100
AcDbEntity
  8
0
 62
7
100
AcDbLine
 10
3823.760647359455
 20
504.2762934541785
 30
0.0
 11
3827.003407155025
 21
507.2430736926794
 31
0.0
  0
LINE
  5
104
330
2F
100
AcDbEntity
  8
0
 62
7
100
AcDbLine
 10
3827.003407155025
 20
507.2430736926794
 30
0.0
 11
3823.760647359455
 21
507.2430736926794
 31
0.0
  0
LINE
  5
105
330
2F
100
AcDbEntity
  8
0
 62
7
100
AcDbLine
 10
3830.246166950596
 20
612.4602798255582
 30
0.0
 11
3828.24531516184
 21
610.1144535904648
 31
0.0
  0
LINE
  5
106
330
2F
100
AcDbEntity
  8
0
 62
7
100
AcDbLine
 10
3828.24531516184
 20
610.1144535904648
 30
0.0
 11
3828.24531516184
 21
456.4628351918277
 31
0.0
  0
LINE
  5
107
330
2F
100
AcDbEntity
  8
0
 62
7
100
AcDbLine
 10
3828.24531516184
 20
456.4628351918277
 30
0.0
 11
3830.453151618399
 21
453.9100242889317
 31
0.0
  0
LINE
  5
108
330
2F
100
AcDbEntity
  8
0
 62
7
100
AcDbLine
 10
4016.877342419079
 20
468.8819152599707
 30
0.0
 11
4005.355195911413
 21
468.8819152599707
 31
0.0
  0
LINE
  5
109
330
2F
100
AcDbEntity
  8
0
 62
7
100
AcDbLine
 10
4017.153321976149
 20
597.4883888545194
 30
0.0
 11
4005.355195911413
 21
597.4883888545194
 31
0.0
  0
MTEXT
  5
10A
330
2F
100
AcDbEntity
  8
0
 62
3
100
AcDbMText
 10
3950.537190200057
 20
537.1903388608507
 30
0.0
 40
4.0
 41
34.46280979994299
 46
0.0
 71
1
 72
5
  1
{\fTimes New Roman|b0|i0|c0|p18;MC-265a/330a/400a}
  7
ss
101
Embedded Object
 70
1
 10
1.0
 20
0.0
 30
0.0
 11
3950.537190200057
 21
537.1903388608507
 31
0.0
 40
34.46280979994299
 41
0.0
 42
48.77289113193943
 43
4.190338860850757
 71
2
 72
1
 44
34.46280979994299
 45
12.5
 73
0
 74
0
 46
0.0
  0
ENDBLK
  5
31
330
2F
100
AcDbEntity
  8
0
100
AcDbBlockEnd
  0
ENDSEC
  0
SECTION
  2
ENTITIES
  0
INSERT
  5
10C
330
17
100
AcDbEntity
  8
0
100
AcDbBlockReference
  2
CC MC 265a
 10
-3817.413117546848
 20
-411.6851520572451
 30
0.0
  0
ENDSEC
  0
SECTION
  2
OBJECTS
  0
DICTIONARY
  5
A
330
0
100
AcDbDictionary
281
1
  3
ACAD_COLOR
350
B
  3
ACAD_GROUP
350
C
  3
ACAD_LAYOUT
350
D
  3
ACAD_MATERIAL
350
E
  3
ACAD_MLEADERSTYLE
350
F
  3
ACAD_MLINESTYLE
350
10
  3
ACAD_PLOTSETTINGS
350
11
  3
ACAD_PLOTSTYLENAME
350
12
  3
ACAD_SCALELIST
350
14
  3
ACAD_TABLESTYLE
350
15
  3
ACAD_VISUALSTYLE
350
16
  3
EZDXF_META
350
2D
  0
DICTIONARY
  5
B
330
A
100
AcDbDictionary
281
1
  0
DICTIONARY
  5
C
330
A
100
AcDbDictionary
281
1
  0
DICTIONARY
  5
D
330
A
100
AcDbDictionary
281
1
  3
Model
350
1A
  3
Layout1
350
1E
  0
DICTIONARY
  5
E
330
A
100
AcDbDictionary
281
1
  3
ByBlock
350
1F
  3
ByLayer
350
20
  3
Global
350
21
  0
DICTIONARY
  5
F
330
A
100
AcDbDictionary
281
1
  3
Standard
350
2C
  0
DICTIONARY
  5
10
330
A
100
AcDbDictionary
281
1
  3
Standard
350
22
  0
DICTIONARY
  5
11
330
A
100
AcDbDictionary
281
1
  0
ACDBDICTIONARYWDFLT
  5
12
330
A
100
AcDbDictionary
281
1
  3
Normal
350
13
100
AcDbDictionaryWithDefault
340
13
  0
ACDBPLACEHOLDER
  5
13
330
12
  0
DICTIONARY
  5
14
330
A
100
AcDbDictionary
281
1
  0
DICTIONARY
  5
15
330
A
100
AcDbDictionary
281
1
  0
DICTIONARY
  5
16
330
A
100
AcDbDictionary
281
1
  0
LAYOUT
  5
1A
330
D
100
AcDbPlotSettings
  1

  4
A3
  6

 40
7.5
 41
20.0
 42
7.5
 43
20.0
 44
420.0
 45
297.0
 46
0.0
 47
0.0
 48
0.0
 49
0.0
140
0.0
141
0.0
142
1.0
143
1.0
 70
1024
 72
1
 73
0
 74
5
  7

 75
16
 76
0
 77
2
 78
300
147
1.0
148
0.0
149
0.0
100
AcDbLayout
  1
Model
 70
1
 71
0
 10
0.0
 20
0.0
 11
420.0
 21
297.0
 12
0.0
 22
0.0
 32
0.0
 14
1e+20
 24
1e+20
 34
1e+20
 15
-1e+20
 25
-1e+20
 35
-1e+20
146
0.0
 13
0.0
 23
0.0
 33
0.0
 16
1.0
 26
0.0
 36
0.0
 17
0.0
 27
1.0
 37
0.0
 76
1
330
17
  0
LAYOUT
  5
1E
330
D
100
AcDbPlotSettings
  1

  4
A3
  6

 40
7.5
 41
20.0
 42
7.5
 43
20.0
 44
420.0
 45
297.0
 46
0.0
 47
0.0
 48
0.0
 49
0.0
140
0.0
141
0.0
142
1.0
143
1.0
 70
0
 72
1
 73
0
 74
5
  7

 75
16
 76
0
 77
2
 78
300
147
1.0
148
0.0
149
0.0
100
AcDbLayout
  1
Layout1
 70
1
 71
1
 10
0.0
 20
0.0
 11
420.0
 21
297.0
 12
0.0
 22
0.0
 32
0.0
 14
1e+20
 24
1e+20
 34
1e+20
 15
-1e+20
 25
-1e+20
 35
-1e+20
146
0.0
 13
0.0
 23
0.0
 33
0.0
 16
1.0
 26
0.0
 36
0.0
 17
0.0
 27
1.0
 37
0.0
 76
1
330
1B
  0
MATERIAL
  5
1F
102
{ACAD_REACTORS
330
E
102
}
330
E
100
AcDbMaterial
  1
ByBlock
  2

 70
0
 40
1.0
 71
1
 41
1.0
 91
-1023410177
 42
1.0
 72
1
  3

 73
1
 74
1
 75
1
 44
0.5
 73
0
 45
1.0
 46
1.0
 77
1
  4

 78
1
 79
1
170
1
 48
1.0
171
1
  6

172
1
173
1
174
1
140
1.0
141
1.0
175
1
  7

176
1
177
1
178
1
143
1.0
179
1
  8

270
1
271
1
272
1
145
1.0
146
1.0
273
1
  9

274
1
275
1
276
1
 42
1.0
 72
1
  3

 73
1
 74
1
 75
1
 94
63
  0
MATERIAL
  5
20
102
{ACAD_REACTORS
330
E
102
}
330
E
100
AcDbMaterial
  1
ByLayer
  2

 70
0
 40
1.0
 71
1
 41
1.0
 91
-1023410177
 42
1.0
 72
1
  3

 73
1
 74
1
 75
1
 44
0.5
 73
0
 45
1.0
 46
1.0
 77
1
  4

 78
1
 79
1
170
1
 48
1.0
171
1
  6

172
1
173
1
174
1
140
1.0
141
1.0
175
1
  7

176
1
177
1
178
1
143
1.0
179
1
  8

270
1
271
1
272
1
145
1.0
146
1.0
273
1
  9

274
1
275
1
276
1
 42
1.0
 72
1
  3

 73
1
 74
1
 75
1
 94
63
  0
MATERIAL
  5
21
102
{ACAD_REACTORS
330
E
102
}
330
E
100
AcDbMaterial
  1
Global
  2

 70
0
 40
1.0
 71
1
 41
1.0
 91
-1023410177
 42
1.0
 72
1
  3

 73
1
 74
1
 75
1
 44
0.5
 73
0
 45
1.0
 46
1.0
 77
1
  4

 78
1
 79
1
170
1
 48
1.0
171
1
  6

172
1
173
1
174
1
140
1.0
141
1.0
175
1
  7

176
1
177
1
178
1
143
1.0
179
1
  8

270
1
271
1
272
1
145
1.0
146
1.0
273
1
  9

274
1
275
1
276
1
 42
1.0
 72
1
  3

 73
1
 74
1
 75
1
 94
63
  0
MLINESTYLE
  5
22
102
{ACAD_REACTORS
330
10
102
}
330
10
100
AcDbMlineStyle
  2
Standard
 70
0
  3

 62
256
 51
90.0
 52
90.0
 71
2
 49
0.5
 62
256
  6
BYLAYER
 49
-0.5
 62
256
  6
BYLAYER
  0
MLEADERSTYLE
  5
2C
102
{ACAD_REACTORS
330
F
102
}
330
F
100
AcDbMLeaderStyle
179
2
170
2
171
1
172
0
 90
2
 40
0.0
 41
0.0
173
1
 91
-1056964608
 92
-2
290
1
 42
2.0
291
1
 43
8.0
  3
Standard
 44
4.0
300

342
29
174
1
175
1
176
0
178
1
 93
-1056964608
 45
4.0
292
0
297
0
 46
4.0
 94
-1056964608
 47
1.0
 49
1.0
140
1.0
294
1
141
0.0
177
0
142
1.0
295
0
296
0
143
3.75
271
0
272
9
273
9
  0
DICTIONARY
  5
2D
330
A
100
AcDbDictionary
280
1
281
1
  3
CREATED_BY_EZDXF
350
2E
  3
WRITTEN_BY_EZDXF
350
110
  0
DICTIONARYVAR
  5
2E
330
2D
100
DictionaryVariables
280
0
  1
1.4.4 @ 2026-09-23T06:02:51.996054+00:00
  0
DICTIONARYVAR
  5
110
330
2D
100
DictionaryVariables
280
0
  1
1.4.4 @ 2026-09-23T06:02:52.036277+00:00
  0
ENDSEC
  0
EOF
