  0
SECTION
  2
HEADER
  9
$ACADVER
  1
AC1032
  9
$ACADMAINTVER
 90
4
  9
$DWGCODEPAGE
  3
ANSI_1252
  9
$LASTSAVEDBY
  1
ezdxf
  9
$REQUIREDVERSIONS
160
0
  9
$INSBASE
 10
0.0
 20
0.0
 30
0.0
  9
$EXTMIN
 10
1e+20
 20
1e+20
 30
1e+20
  9
$EXTMAX
 10
-1e+20
 20
-1e+20
 30
-1e+20
  9
$LIMMIN
 10
0.0
 20
0.0
  9
$LIMMAX
 10
420.0
 20
297.0
  9
$ORTHOMODE
 70
0
  9
$REGENMODE
 70
1
  9
$FILLMODE
 70
1
  9
$QTEXTMODE
 70
0
  9
$MIRRTEXT
 70
1
  9
$LTSCALE
 40
1.0
  9
$ATTMODE
 70
1
  9
$TEXTSIZE
 40
2.5
  9
$TRACEWID
 40
1.0
  9
$TEXTSTYLE
  7
Standard
  9
$CLAYER
  8
0
  9
$CELTYPE
  6
ByLayer
  9
$CECOLOR
 62
256
  9
$CELTSCALE
 40
1.0
  9
$DISPSILH
 70
0
  9
$DIMSCALE
 40
1.0
  9
$DIMASZ
 40
2.5
  9
$DIMEXO
 40
0.625
  9
$DIMDLI
 40
3.75
  9
$DIMRND
 40
0.0
  9
$DIMDLE
 40
0.0
  9
$DIMEXE
 40
1.25
  9
$DIMTP
 40
0.0
  9
$DIMTM
 40
0.0
  9
$DIMTXT
 40
2.5
  9
$DIMCEN
 40
2.5
  9
$DIMTSZ
 40
0.0
  9
$DIMTOL
 70
0
  9
$DIMLIM
 70
0
  9
$DIMTIH
 70
0
  9
$DIMTOH
 70
0
  9
$DIMSE1
 70
0
  9
$DIMSE2
 70
0
  9
$DIMTAD
 70
1
  9
$DIMZIN
 70
8
  9
$DIMBLK
  1

  9
$DIMASO
 70
1
  9
$DIMSHO
 70
1
  9
$DIMPOST
  1

  9
$DIMAPOST
  1

  9
$DIMALT
 70
0
  9
$DIMALTD
 70
3
  9
$DIMALTF
 40
0.03937007874
  9
$DIMLFAC
 40
1.0
  9
$DIMTOFL
 70
1
  9
$DIMTVP
 40
0.0
  9
$DIMTIX
 70
0
  9
$DIMSOXD
 70
0
  9
$DIMSAH
 70
0
  9
$DIMBLK1
  1

  9
$DIMBLK2
  1

  9
$DIMSTYLE
  2
ISO-25
  9
$DIMCLRD
 70
0
  9
$DIMCLRE
 70
0
  9
$DIMCLRT
 70
0
  9
$DIMTFAC
 40
1.0
  9
$DIMGAP
 40
0.625
  9
$DIMJUST
 70
0
  9
$DIMSD1
 70
0
  9
$DIMSD2
 70
0
  9
$DIMTOLJ
 70
0
  9
$DIMTZIN
 70
8
  9
$DIMALTZ
 70
0
  9
$DIMALTTZ
 70
0
  9
$DIMUPT
 70
0
  9
$DIMDEC
 70
2
  9
$DIMTDEC
 70
2
  9
$DIMALTU
 70
2
  9
$DIMALTTD
 70
3
  9
$DIMTXSTY
  7
Standard
  9
$DIMAUNIT
 70
0
  9
$DIMADEC
 70
0
  9
$DIMALTRND
 40
0.0
  9
$DIMAZIN
 70
0
  9
$DIMDSEP
 70
44
  9
$DIMATFIT
 70
3
  9
$DIMFRAC
 70
0
  9
$DIMLDRBLK
  1

  9
$DIMLUNIT
 70
2
  9
$DIMLWD
 70
-2
  9
$DIMLWE
 70
-2
  9
$DIMTMOVE
 70
0
  9
$DIMFXL
 40
1.0
  9
$DIMFXLON
 70
0
  9
$DIMJOGANG
 40
0.785398163397
  9
$DIMTFILL
 70
0
  9
$DIMTFILLCLR
 70
0
  9
$DIMARCSYM
 70
0
  9
$DIMLTYPE
  6

  9
$DIMLTEX1
  6

  9
$DIMLTEX2
  6

  9
$DIMTXTDIRECTION
 70
0
  9
$LUNITS
 70
2
  9
$LUPREC
 70
4
  9
$SKETCHINC
 40
1.0
  9
$FILLETRAD
 40
10.0
  9
$AUNITS
 70
0
  9
$AUPREC
 70
2
  9
$MENU
  1
.
  9
$ELEVATION
 40
0.0
  9
$PELEVATION
 40
0.0
  9
$THICKNESS
 40
0.0
  9
$LIMCHECK
 70
0
  9
$CHAMFERA
 40
0.0
  9
$CHAMFERB
 40
0.0
  9
$CHAMFERC
 40
0.0
  9
$CHAMFERD
 40
0.0
  9
$SKPOLY
 70
0
  9
$TDCREATE
 40
2461307.5436574076
  9
$TDUCREATE
 40
2458532.153996898
  9
$TDUPDATE
 40
2461307.5436574076
  9
$TDUUPDATE
 40
2458532.1544311
  9
$TDINDWG
 40
0.0
  9
$TDUSRTIMER
 40
0.0
  9
$USRTIMER
 70
1
  9
$ANGBASE
 50
0.0
  9
$ANGDIR
 70
0
  9
$PDMODE
 70
0
  9
$PDSIZE
 40
0.0
  9
$PLINEWID
 40
0.0
  9
$SPLFRAME
 70
0
  9
$SPLINETYPE
 70
6
  9
$SPLINESEGS
 70
8
  9
$HANDSEED
  5
15C
  9
$SURFTAB1
 70
6
  9
$SURFTAB2
 70
6
  9
$SURFTYPE
 70
6
  9
$SURFU
 70
6
  9
$SURFV
 70
6
  9
$UCSBASE
  2

  9
$UCSNAME
  2

  9
$UCSORG
 10
0.0
 20
0.0
 30
0.0
  9
$UCSXDIR
 10
1.0
 20
0.0
 30
0.0
  9
$UCSYDIR
 10
0.0
 20
1.0
 30
0.0
  9
$UCSORTHOREF
  2

  9
$UCSORTHOVIEW
 70
0
  9
$UCSORGTOP
 10
0.0
 20
0.0
 30
0.0
  9
$UCSORGBOTTOM
 10
0.0
 20
0.0
 30
0.0
  9
$UCSORGLEFT
 10
0.0
 20
0.0
 30
0.0
  9
$UCSORGRIGHT
 10
0.0
 20
0.0
 30
0.0
  9
$UCSORGFRONT
 10
0.0
 20
0.0
 30
0.0
  9
$UCSORGBACK
 10
0.0
 20
0.0
 30
0.0
  9
$PUCSBASE
  2

  9
$PUCSNAME
  2

  9
$PUCSORG
 10
0.0
 20
0.0
 30
0.0
  9
$PUCSXDIR
 10
1.0
 20
0.0
 30
0.0
  9
$PUCSYDIR
 10
0.0
 20
1.0
 30
0.0
  9
$PUCSORTHOREF
  2

  9
$PUCSORTHOVIEW
 70
0
  9
$PUCSORGTOP
 10
0.0
 20
0.0
 30
0.0
  9
$PUCSORGBOTTOM
 10
0.0
 20
0.0
 30
0.0
  9
$PUCSORGLEFT
 10
0.0
 20
0.0
 30
0.0
  9
$PUCSORGRIGHT
 10
0.0
 20
0.0
 30
0.0
  9
$PUCSORGFRONT
 10
0.0
 20
0.0
 30
0.0
  9
$PUCSORGBACK
 10
0.0
 20
0.0
 30
0.0
  9
$USERI1
 70
0
  9
$USERI2
 70
0
  9
$USERI3
 70
0
  9
$USERI4
 70
0
  9
$USERI5
 70
0
  9
$USERR1
 40
0.0
  9
$USERR2
 40
0.0
  9
$USERR3
 40
0.0
  9
$USERR4
 40
0.0
  9
$USERR5
 40
0.0
  9
$WORLDVIEW
 70
1
  9
$SHADEDGE
 70
3
  9
$SHADEDIF
 70
70
  9
$TILEMODE
 70
1
  9
$MAXACTVP
 70
64
  9
$PINSBASE
 10
0.0
 20
0.0
 30
0.0
  9
$PLIMCHECK
 70
0
  9
$PEXTMIN
 10
1e+20
 20
1e+20
 30
1e+20
  9
$PEXTMAX
 10
-1e+20
 20
-1e+20
 30
-1e+20
  9
$PLIMMIN
 10
0.0
 20
0.0
  9
$PLIMMAX
 10
420.0
 20
297.0
  9
$UNITMODE
 70
0
  9
$VISRETAIN
 70
1
  9
$PLINEGEN
 70
0
  9
$PSLTSCALE
 70
1
  9
$TREEDEPTH
 70
3020
  9
$CMLSTYLE
  2
Standard
  9
$CMLJUST
 70
0
  9
$CMLSCALE
 40
20.0
  9
$PROXYGRAPHICS
 70
1
  9
$MEASUREMENT
 70
1
  9
$CELWEIGHT
370
-1
  9
$ENDCAPS
280
0
  9
$JOINSTYLE
280
0
  9
$LWDISPLAY
290
0
  9
$INSUNITS
 70
4
  9
$HYPERLINKBASE
  1

  9
$STYLESHEET
  1

  9
$XEDIT
290
1
  9
$CEPSNTYPE
380
0
  9
$PSTYLEMODE
290
1
  9
$FINGERPRINTGUID
  2
{1FF5E2E0-544C-4A46-92B4-9940946452BD}
  9
$VERSIONGUID
  2
{0F240BA1-BEAD-4807-84CF-EBA8FDB04AF5}
  9
$EXTNAMES
290
1
  9
$PSVPSCALE
 40
0.0
  9
$OLESTARTUP
290
0
  9
$SORTENTS
280
127
  9
$INDEXCTL
280
0
  9
$HIDETEXT
280
1
  9
$XCLIPFRAME
280
1
  9
$HALOGAP
280
0
  9
$OBSCOLOR
 70
257
  9
$OBSLTYPE
280
0
  9
$INTERSECTIONDISPLAY
280
0
  9
$INTERSECTIONCOLOR
 70
257
  9
$DIMASSOC
280
2
  9
$PROJECTNAME
  1

  9
$CAMERADISPLAY
290
0
  9
$LENSLENGTH
 40
50.0
  9
$CAMERAHEIGHT
 40
0.0
  9
$STEPSPERSEC
 40
24.0
  9
$STEPSIZE
 40
100.0
  9
$3DDWFPREC
 40
2.0
  9
$PSOLWIDTH
 40
0.005
  9
$PSOLHEIGHT
 40
0.08
  9
$LOFTANG1
 40
1.570796326795
  9
$LOFTANG2
 40
1.570796326795
  9
$LOFTMAG1
 40
0.0
  9
$LOFTMAG2
 40
0.0
  9
$LOFTPARAM
 70
7
  9
$LOFTNORMALS
280
1
  9
$LATITUDE
 40
37.795
  9
$LONGITUDE
 40
-122.394
  9
$NORTHDIRECTION
 40
0.0
  9
$TIMEZONE
 70
-8000
  9
$LIGHTGLYPHDISPLAY
280
1
  9
$TILEMODELIGHTSYNCH
280
1
  9
$CMATERIAL
347
20
  9
$SOLIDHIST
280
0
  9
$SHOWHIST
280
1
  9
$DWFFRAME
280
2
  9
$DGNFRAME
280
2
  9
$REALWORLDSCALE
290
1
  9
$INTERFERECOLOR
 62
256
  9
$CSHADOW
280
0
  9
$SHADOWPLANELOCATION
 40
0.0
  0
ENDSEC
  0
SECTION
  2
CLASSES
  0
CLASS
  1
ACDBDICTIONARYWDFLT
  2
AcDbDictionaryWithDefault
  3
ObjectDBX Classes
 90
0
 91
0
280
0
281
0
  0
CLASS
  1
SUN
  2
AcDbSun
  3
SCENEOE
 90
1153
 91
0
280
0
281
0
  0
CLASS
  1
VISUALSTYLE
  2
AcDbVisualStyle
  3
ObjectDBX Classes
 90
4095
 91
0
280
0
281
0
  0
CLASS
  1
MATERIAL
  2
AcDbMaterial
  3
ObjectDBX Classes
 90
1153
 91
0
280
0
281
0
  0
CLASS
  1
SCALE
  2
AcDbScale
  3
ObjectDBX Classes
 90
1153
 91
0
280
0
281
0
  0
CLASS
  1
TABLESTYLE
  2
AcDbTableStyle
  3
ObjectDBX Classes
 90
4095
 91
0
280
0
281
0
  0
CLASS
  1
MLEADERSTYLE
  2
AcDbMLeaderStyle
  3
ACDB_MLEADERSTYLE_CLASS
 90
4095
 91
0
280
0
281
0
  0
CLASS
  1
DICTIONARYVAR
  2
AcDbDictionaryVar
  3
ObjectDBX Classes
 90
0
 91
0
280
0
281
0
  0
CLASS
  1
CELLSTYLEMAP
  2
AcDbCellStyleMap
  3
ObjectDBX Classes
 90
1152
 91
0
280
0
281
0
  0
CLASS
  1
MENTALRAYRENDERSETTINGS
  2
AcDbMentalRayRenderSettings
  3
SCENEOE
 90
1024
 91
0
280
0
281
0
  0
CLASS
  1
ACDBDETAILVIEWSTYLE
  2
AcDbDetailViewStyle
  3
ObjectDBX Classes
 90
1025
 91
0
280
0
281
0
  0
CLASS
  1
ACDBSECTIONVIEWSTYLE
  2
AcDbSectionViewStyle
  3
ObjectDBX Classes
 90
1025
 91
0
280
0
281
0
  0
CLASS
  1
RASTERVARIABLES
  2
AcDbRasterVariables
  3
ISM
 90
0
 91
0
280
0
281
0
  0
CLASS
  1
LAYOUT
  2
AcDbLayout
  3
ObjectDBX Classes
 90
0
 91
0
280
0
281
0
  0
CLASS
  1
ACDBPLACEHOLDER
  2
AcDbPlaceHolder
  3
ObjectDBX Classes
 90
0
 91
0
280
0
281
0
  0
ENDSEC
  0
SECTION
  2
TABLES
  0
TABLE
  2
VPORT
  5
8
330
0
100
AcDbSymbolTable
 70
1
  0
VPORT
  5
23
330
8
100
AcDbSymbolTableRecord
100
AcDbViewportTableRecord
  2
*Active
 70
0
 10
0.0
 20
0.0
 11
1.0
 21
1.0
 12
0.0
 22
0.0
 13
0.0
 23
0.0
 14
0.5
 24
0.5
 15
0.5
 25
0.5
 16
0.0
 26
0.0
 36
1.0
 17
0.0
 27
0.0
 37
0.0
 40
1000.0
 41
1.34
 42
50.0
 43
0.0
 44
0.0
 50
0.0
 51
0.0
 71
0
 72
1000
 73
1
 74
3
 75
0
 76
0
 77
0
 78
0
281
0
 65
0
146
0.0
  0
ENDTAB
  0
TABLE
  2
LTYPE
  5
2
330
0
100
AcDbSymbolTable
 70
3
  0
LTYPE
  5
24
330
2
100
AcDbSymbolTableRecord
100
AcDbLinetypeTableRecord
  2
ByBlock
 70
0
  3

 72
65
 73
0
 40
0.0
  0
LTYPE
  5
25
330
2
100
AcDbSymbolTableRecord
100
AcDbLinetypeTableRecord
  2
ByLayer
 70
0
  3

 72
65
 73
0
 40
0.0
  0
LTYPE
  5
26
330
2
100
AcDbSymbolTableRecord
100
AcDbLinetypeTableRecord
  2
Continuous
 70
0
  3

 72
65
 73
0
 40
0.0
  0
ENDTAB
  0
TABLE
  2
LAYER
  5
1
330
0
100
AcDbSymbolTable
 70
2
  0
LAYER
  5
27
330
1
100
AcDbSymbolTableRecord
100
AcDbLayerTableRecord
  2
0
 70
0
 62
7
  6
Continuous
370
-3
390
13
347
21
  0
LAYER
  5
28
330
1
100
AcDbSymbolTableRecord
100
AcDbLayerTableRecord
  2
Defpoints
 70
0
 62
7
  6
Continuous
290
0
370
-3
390
13
347
21
  0
ENDTAB
  0
TABLE
  2
STYLE
  5
5
330
0
100
AcDbSymbolTable
 70
2
  0
STYLE
  5
29
330
5
100
AcDbSymbolTableRecord
100
AcDbTextStyleTableRecord
  2
Standard
 70
0
 40
0.0
 41
1.0
 50
0.0
 71
0
 42
2.5
  3
txt
  4

  0
STYLE
  5
156
330
5
100
AcDbSymbolTableRecord
100
AcDbTextStyleTableRecord
  2
ss
 70
0
 40
2.5
 41
1.0
 50
0.0
 71
0
 42
2.5
  3
romans.shx
  4
gsg1.shx
  0
ENDTAB
  0
TABLE
  2
VIEW
  5
7
330
0
100
AcDbSymbolTable
 70
0
  0
ENDTAB
  0
TABLE
  2
UCS
  5
6
330
0
100
AcDbSymbolTable
 70
0
  0
ENDTAB
  0
TABLE
  2
APPID
  5
3
330
0
100
AcDbSymbolTable
 70
3
  0
APPID
  5
2A
330
3
100
AcDbSymbolTableRecord
100
AcDbRegAppTableRecord
  2
ACAD
 70
0
  0
APPID
  5
159
330
3
100
AcDbSymbolTableRecord
100
AcDbRegAppTableRecord
  2
HATCHBACKGROUNDCOLOR
 70
0
  0
APPID
  5
15A
330
3
100
AcDbSymbolTableRecord
100
AcDbRegAppTableRecord
  2
EZDXF
 70
0
  0
ENDTAB
  0
TABLE
  2
DIMSTYLE
  5
4
330
0
100
AcDbSymbolTable
 70
1
100
AcDbDimStyleTable
  0
DIMSTYLE
105
2B
330
4
100
AcDbSymbolTableRecord
100
AcDbDimStyleTableRecord
  2
Standard
 70
0
 40
1.0
 41
2.5
 42
0.625
 43
3.75
 44
1.25
 45
0.0
 46
0.0
 47
0.0
 48
0.0
 49
2.5
140
2.5
141
2.5
142
0.0
143
0.03937007874
144
1.0
145
0.0
146
1.0
147
0.625
148
0.0
 69
0
 70
0
 71
0
 72
0
 73
0
 74
0
 75
0
 76
0
 77
1
 78
8
 79
3
170
0
171
3
172
1
173
0
174
0
175
0
176
0
177
0
178
0
179
2
271
2
272
2
273
2
274
3
275
0
276
0
277
2
278
44
279
0
280
0
281
0
282
0
283
0
284
8
285
0
286
0
288
0
289
3
290
0
371
-2
372
-2
  0
ENDTAB
  0
TABLE
  2
BLOCK_RECORD
  5
9
330
0
100
AcDbSymbolTable
 70
3
  0
BLOCK_RECORD
  5
17
330
9
100
AcDbSymbolTableRecord
100
AcDbBlockTableRecord
  2
*Model_Space
340
1A
 70
0
280
1
281
0
  0
BLOCK_RECORD
  5
1B
330
9
100
AcDbSymbolTableRecord
100
AcDbBlockTableRecord
  2
*Paper_Space
340
1E
 70
0
280
1
281
0
  0
BLOCK_RECORD
  5
2F
330
9
100
AcDbSymbolTableRecord
100
AcDbBlockTableRecord
  2
MC 500a
340
0
 70
0
280
1
281
0
  0
ENDTAB
  0
ENDSEC
  0
SECTION
  2
BLOCKS
  0
BLOCK
  5
18
330
17
100
AcDbEntity
  8
0
100
AcDbBlockBegin
  2
*Model_Space
 70
0
 10
0.0
 20
0.0
 30
0.0
  3
*Model_Space
  1

  0
ENDBLK
  5
19
330
17
100
AcDbEntity
  8
0
100
AcDbBlockEnd
  0
BLOCK
  5
1C
330
1B
100
AcDbEntity
  8
0
100
AcDbBlockBegin
  2
*Paper_Space
 70
0
 10
0.0
 20
0.0
 30
0.0
  3
*Paper_Space
  1

  0
ENDBLK
  5
1D
330
1B
100
AcDbEntity
  8
0
100
AcDbBlockEnd
  0
BLOCK
  5
30
330
2F
100
AcDbEntity
  8
0
100
AcDbBlockBegin
  2
MC 500a
 70
0
 10
0.0
 20
0.0
 30
0.0
  3
MC 500a
  1

  0
LWPOLYLINE
  5
32
330
2F
100
AcDbEntity
  8
0
 62
7
100
AcDbPolyline
 90
2
 70
0
 10
4238.844827586207
 20
675.2413793103447
 10
4278.517241379311
 20
675.2413793103447
  0
LWPOLYLINE
  5
33
330
2F
100
AcDbEntity
  8
0
 62
7
100
AcDbPolyline
 90
2
 70
0
 10
4318.862068965517
 20
675.2413793103447
 10
4358.53448275862
 20
675.2413793103447
  0
LWPOLYLINE
  5
34
330
2F
100
AcDbEntity
  8
0
 62
7
100
AcDbPolyline
 90
2
 70
0
 10
4398.879310344828
 20
675.2413793103447
 10
4436.53448275862
 20
675.2413793103447
  0
LWPOLYLINE
  5
35
330
2F
100
AcDbEntity
  8
0
 62
7
100
AcDbPolyline
 90
2
 70
0
 10
4441.577586206896
 20
669.5258620689656
 10
4441.577586206896
 20
390.8103448275862
  0
LWPOLYLINE
  5
36
330
2F
100
AcDbEntity
  8
0
 62
7
100
AcDbPolyline
 90
2
 70
0
 10
4436.53448275862
 20
383.0775862068965
 10
4429.810344827585
 20
383.0775862068965
  0
LWPOLYLINE
  5
37
330
2F
100
AcDbEntity
  8
0
 62
7
100
AcDbPolyline
 90
2
 70
0
 10
4417.370689655172
 20
383.0775862068965
 10
4398.879310344828
 20
383.0775862068965
  0
LWPOLYLINE
  5
38
330
2F
100
AcDbEntity
  8
0
 62
7
100
AcDbPolyline
 90
2
 70
0
 10
4358.53448275862
 20
383.0775862068965
 10
4318.862068965517
 20
383.0775862068965
  0
LWPOLYLINE
  5
39
330
2F
100
AcDbEntity
  8
0
 62
7
100
AcDbPolyline
 90
2
 70
0
 10
4278.517241379311
 20
383.0775862068965
 10
4238.844827586207
 20
383.0775862068965
  0
LWPOLYLINE
  5
3A
330
2F
100
AcDbEntity
  8
0
 62
7
100
AcDbPolyline
 90
2
 70
0
 10
4198.5
 20
383.0775862068965
 10
4180.008620689656
 20
383.0775862068965
  0
LWPOLYLINE
  5
3B
330
2F
100
AcDbEntity
  8
0
 62
7
100
AcDbPolyline
 90
2
 70
0
 10
4167.568965517242
 20
383.0775862068965
 10
4161.181034482758
 20
383.0775862068965
  0
LWPOLYLINE
  5
3C
330
2F
100
AcDbEntity
  8
0
 62
7
100
AcDbPolyline
 90
2
 70
0
 10
4156.137931034481
 20
390.8103448275862
 10
4156.137931034481
 20
669.5258620689656
  0
LWPOLYLINE
  5
3D
330
2F
100
AcDbEntity
  8
0
 62
7
100
AcDbPolyline
 90
2
 70
0
 10
4161.181034482758
 20
675.2413793103447
 10
4198.5
 20
675.2413793103447
  0
LWPOLYLINE
  5
3E
330
2F
100
AcDbEntity
  8
0
 62
7
100
AcDbPolyline
 90
4
 70
1
 10
4198.5
 20
686.0
 10
4238.844827586207
 20
686.0
 10
4238.844827586207
 20
645.9913793103448
 10
4198.5
 20
645.9913793103448
  0
CIRCLE
  5
3F
330
2F
100
AcDbEntity
  8
0
 62
7
100
AcDbCircle
 10
4218.672413793103
 20
665.4913793103447
 30
0.0
 40
9.102456352699217
  0
CIRCLE
  5
40
330
2F
100
AcDbEntity
  8
0
 62
7
100
AcDbCircle
 10
4173.956896551724
 20
654.3965517241379
 30
0.0
 40
5.803830892790092
  0
CIRCLE
  5
41
330
2F
100
AcDbEntity
  8
0
 62
7
100
AcDbCircle
 10
4173.620689655172
 20
639.9396551724138
 30
0.0
 40
2.710586656755545
  0
LWPOLYLINE
  5
42
330
2F
100
AcDbEntity
  8
0
 62
7
100
AcDbPolyline
 90
8
 70
1
 10
4185.051724137931
 20
645.9913793103448
 10
4412.663793103447
 20
645.9913793103448
 42
-0.4142135623730951
 10
4416.025862068964
 20
642.6293103448274
 10
4416.025862068964
 20
417.706896551724
 42
-0.4142135623730951
 10
4412.663793103447
 20
414.3448275862068
 10
4185.051724137931
 20
414.3448275862068
 42
-0.4142135623730951
 10
4181.689655172414
 20
417.706896551724
 10
4181.689655172414
 20
642.6293103448274
 42
-0.4142135623730951
  0
LINE
  5
43
330
2F
100
AcDbEntity
  8
0
 62
7
100
AcDbLine
 10
4182.674382373597
 20
645.0066521091615
 30
0.0
 11
4415.041134867784
 21
645.0066521091613
 31
0.0
  0
LINE
  5
44
330
2F
100
AcDbEntity
  8
0
 62
7
100
AcDbLine
 10
4415.960572961375
 20
643.2886663164127
 30
0.0
 11
4181.754944280004
 21
643.2886663164127
 31
0.0
  0
LINE
  5
45
330
2F
100
AcDbEntity
  8
0
 62
7
100
AcDbLine
 10
4182.674382373597
 20
415.3295547873899
 30
0.0
 11
4415.041134867784
 21
415.32955478739
 31
0.0
  0
LINE
  5
46
330
2F
100
AcDbEntity
  8
0
 62
7
100
AcDbLine
 10
4415.960572961375
 20
417.0475405801387
 30
0.0
 11
4181.754944280004
 21
417.0475405801387
 31
0.0
  0
LINE
  5
47
330
2F
100
AcDbEntity
  8
0
 62
7
100
AcDbLine
 10
4173.620689655172
 20
661.7931034482757
 30
0.0
 11
4173.620689655172
 21
647.6724137931031
 31
0.0
  0
LINE
  5
48
330
2F
100
AcDbEntity
  8
0
 62
7
100
AcDbLine
 10
4166.896551724136
 20
654.3965517241379
 30
0.0
 11
4180.681034482758
 21
654.3965517241379
 31
0.0
  0
LWPOLYLINE
  5
49
330
2F
100
AcDbEntity
  8
0
 62
7
100
AcDbPolyline
 90
4
 70
1
 10
4278.517241379311
 20
686.0
 10
4318.862068965517
 20
686.0
 10
4318.862068965517
 20
645.9913793103448
 10
4278.517241379311
 20
645.9913793103448
  0
CIRCLE
  5
4A
330
2F
100
AcDbEntity
  8
0
 62
7
100
AcDbCircle
 10
4298.689655172414
 20
665.4913793103447
 30
0.0
 40
9.102456352699217
  0
LWPOLYLINE
  5
4B
330
2F
100
AcDbEntity
  8
0
 62
7
100
AcDbPolyline
 90
4
 70
1
 10
4398.879310344828
 20
686.0
 10
4358.53448275862
 20
686.0
 10
4358.53448275862
 20
645.9913793103448
 10
4398.879310344828
 20
645.9913793103448
  0
CIRCLE
  5
4C
330
2F
100
AcDbEntity
  8
0
 62
7
100
AcDbCircle
 10
4378.706896551725
 20
665.4913793103447
 30
0.0
 40
9.102456352699217
  0
CIRCLE
  5
4D
330
2F
100
AcDbEntity
  8
0
 62
7
100
AcDbCircle
 10
4423.422413793104
 20
654.3965517241379
 30
0.0
 40
5.803830892790092
  0
CIRCLE
  5
4E
330
2F
100
AcDbEntity
  8
0
 62
7
100
AcDbCircle
 10
4423.758620689655
 20
639.9396551724138
 30
0.0
 40
2.710586656755545
  0
LINE
  5
4F
330
2F
100
AcDbEntity
  8
0
 62
7
100
AcDbLine
 10
4423.758620689655
 20
661.7931034482757
 30
0.0
 11
4423.758620689655
 21
647.6724137931031
 31
0.0
  0
LINE
  5
50
330
2F
100
AcDbEntity
  8
0
 62
7
100
AcDbLine
 10
4430.482758620689
 20
654.3965517241379
 30
0.0
 11
4416.698275862069
 21
654.3965517241379
 31
0.0
  0
LINE
  5
51
330
2F
100
AcDbEntity
  8
0
 62
7
100
AcDbLine
 10
4161.181034482758
 20
675.2413793103447
 30
0.0
 11
4161.181034482758
 21
669.5258620689656
 31
0.0
  0
LINE
  5
52
330
2F
100
AcDbEntity
  8
0
 62
7
100
AcDbLine
 10
4161.181034482758
 20
669.5258620689656
 30
0.0
 11
4156.137931034481
 21
669.5258620689656
 31
0.0
  0
LINE
  5
53
330
2F
100
AcDbEntity
  8
0
 62
7
100
AcDbLine
 10
4436.53448275862
 20
675.2413793103447
 30
0.0
 11
4436.53448275862
 21
669.5258620689656
 31
0.0
  0
LINE
  5
54
330
2F
100
AcDbEntity
  8
0
 62
7
100
AcDbLine
 10
4436.53448275862
 20
669.5258620689656
 30
0.0
 11
4441.577586206896
 21
669.5258620689656
 31
0.0
  0
LWPOLYLINE
  5
55
330
2F
100
AcDbEntity
  8
0
 62
7
100
AcDbPolyline
 90
4
 70
1
 10
4198.5
 20
374.3362068965516
 10
4238.844827586207
 20
374.3362068965516
 10
4238.844827586207
 20
414.3448275862068
 10
4198.5
 20
414.3448275862068
  0
CIRCLE
  5
56
330
2F
100
AcDbEntity
  8
0
 62
7
100
AcDbCircle
 10
4218.672413793103
 20
394.8448275862069
 30
0.0
 40
9.102456352699217
  0
LWPOLYLINE
  5
57
330
2F
100
AcDbEntity
  8
0
 62
7
100
AcDbPolyline
 90
4
 70
1
 10
4278.517241379311
 20
374.3362068965516
 10
4318.862068965517
 20
374.3362068965516
 10
4318.862068965517
 20
414.3448275862068
 10
4278.517241379311
 20
414.3448275862068
  0
CIRCLE
  5
58
330
2F
100
AcDbEntity
  8
0
 62
7
100
AcDbCircle
 10
4298.689655172414
 20
394.8448275862069
 30
0.0
 40
9.102456352699217
  0
LWPOLYLINE
  5
59
330
2F
100
AcDbEntity
  8
0
 62
7
100
AcDbPolyline
 90
4
 70
1
 10
4398.879310344828
 20
374.3362068965516
 10
4358.53448275862
 20
374.3362068965516
 10
4358.53448275862
 20
414.3448275862068
 10
4398.879310344828
 20
414.3448275862068
  0
CIRCLE
  5
5A
330
2F
100
AcDbEntity
  8
0
 62
7
100
AcDbCircle
 10
4378.706896551725
 20
394.8448275862069
 30
0.0
 40
9.102456352699217
  0
LINE
  5
5B
330
2F
100
AcDbEntity
  8
0
 62
7
100
AcDbLine
 10
4161.181034482758
 20
383.0775862068965
 30
0.0
 11
4161.181034482758
 21
390.8103448275862
 31
0.0
  0
LINE
  5
5C
330
2F
100
AcDbEntity
  8
0
 62
7
100
AcDbLine
 10
4161.181034482758
 20
390.8103448275862
 30
0.0
 11
4156.137931034481
 21
390.8103448275862
 31
0.0
  0
LINE
  5
5D
330
2F
100
AcDbEntity
  8
0
 62
7
100
AcDbLine
 10
4436.53448275862
 20
383.0775862068965
 30
0.0
 11
4436.53448275862
 21
390.8103448275862
 31
0.0
  0
LINE
  5
5E
330
2F
100
AcDbEntity
  8
0
 62
7
100
AcDbLine
 10
4436.53448275862
 20
390.8103448275862
 30
0.0
 11
4441.577586206896
 21
390.8103448275862
 31
0.0
  0
CIRCLE
  5
5F
330
2F
100
AcDbEntity
  8
0
 62
7
100
AcDbCircle
 10
4173.956896551724
 20
419.0517241379309
 30
0.0
 40
2.353448275862068
  0
CIRCLE
  5
60
330
2F
100
AcDbEntity
  8
0
 62
7
100
AcDbCircle
 10
4339.03448275862
 20
403.2499999999997
 30
0.0
 40
3.362068965517241
  0
CIRCLE
  5
61
330
2F
100
AcDbEntity
  8
0
 62
7
100
AcDbCircle
 10
4339.03448275862
 20
403.2499999999997
 30
0.0
 40
6.724137931034483
  0
CIRCLE
  5
62
330
2F
100
AcDbEntity
  8
0
 62
7
100
AcDbCircle
 10
4424.094827586207
 20
418.7155172413793
 30
0.0
 40
2.689655172413793
  0
LINE
  5
63
330
2F
100
AcDbEntity
  8
0
 62
7
100
AcDbLine
 10
4167.568965517242
 20
383.0775862068965
 30
0.0
 11
4167.568965517242
 21
404.2586206896551
 31
0.0
  0
ARC
  5
64
330
2F
100
AcDbEntity
  8
0
 62
7
100
AcDbCircle
 10
4173.798146618343
 20
404.0806440867664
 30
0.0
 40
6.231723105331223
100
AcDbArc
 50
4.732892439570942
 51
178.3634229583817
  0
LINE
  5
65
330
2F
100
AcDbEntity
  8
0
 62
7
100
AcDbLine
 10
4180.008620689656
 20
404.5948275862068
 30
0.0
 11
4180.008620689656
 21
383.0775862068965
 31
0.0
  0
LINE
  5
66
330
2F
100
AcDbEntity
  8
0
 62
7
100
AcDbLine
 10
4429.810344827585
 20
383.0775862068965
 30
0.0
 11
4429.810344827585
 21
404.2586206896551
 31
0.0
  0
ARC
  5
67
330
2F
100
AcDbEntity
  8
0
 62
7
100
AcDbCircle
 10
4423.581163726483
 20
404.0806440867664
 30
0.0
 40
6.231723105331223
100
AcDbArc
 50
1.636577041618296
 51
175.2671075604226
  0
LINE
  5
68
330
2F
100
AcDbEntity
  8
0
 62
7
100
AcDbLine
 10
4417.370689655172
 20
404.5948275862068
 30
0.0
 11
4417.370689655172
 21
383.0775862068965
 31
0.0
  0
LINE
  5
69
330
2F
100
AcDbEntity
  8
0
 62
7
100
AcDbLine
 10
4208.58620689655
 20
645.9913793103448
 30
0.0
 11
4208.586206896552
 21
415.3295547873899
 31
0.0
  0
LINE
  5
6A
330
2F
100
AcDbEntity
  8
0
 62
7
100
AcDbLine
 10
4208.58620689655
 20
570.3448275862069
 30
0.0
 11
4212.28448275862
 21
566.9827586206894
 31
0.0
  0
LINE
  5
6B
330
2F
100
AcDbEntity
  8
0
 62
7
100
AcDbLine
 10
4212.28448275862
 20
566.9827586206894
 30
0.0
 11
4208.58620689655
 21
566.9827586206894
 31
0.0
  0
LINE
  5
6C
330
2F
100
AcDbEntity
  8
0
 62
7
100
AcDbLine
 10
4212.28448275862
 20
566.9827586206894
 30
0.0
 11
4212.28448275862
 21
494.3620689655172
 31
0.0
  0
LINE
  5
6D
330
2F
100
AcDbEntity
  8
0
 62
7
100
AcDbLine
 10
4208.58620689655
 20
490.9999999999998
 30
0.0
 11
4212.28448275862
 21
494.3620689655172
 31
0.0
  0
LINE
  5
6E
330
2F
100
AcDbEntity
  8
0
 62
7
100
AcDbLine
 10
4212.28448275862
 20
494.3620689655172
 30
0.0
 11
4208.58620689655
 21
494.3620689655172
 31
0.0
  0
LWPOLYLINE
  5
6F
330
2F
100
AcDbEntity
  8
0
 62
7
100
AcDbPolyline
 90
4
 70
1
 10
4212.28448275862
 20
546.1379310344827
 10
4271.456896551725
 20
546.1379310344827
 10
4271.456896551725
 20
515.8793103448274
 10
4212.28448275862
 20
515.8793103448274
  0
LINE
  5
70
330
2F
100
AcDbEntity
  8
0
 62
7
100
AcDbLine
 10
4388.793103448275
 20
645.9913793103448
 30
0.0
 11
4388.793103448275
 21
415.3295547873899
 31
0.0
  0
LINE
  5
71
330
2F
100
AcDbEntity
  8
0
 62
7
100
AcDbLine
 10
4388.793103448275
 20
570.3448275862069
 30
0.0
 11
4385.094827586207
 21
566.9827586206894
 31
0.0
  0
LINE
  5
72
330
2F
100
AcDbEntity
  8
0
 62
7
100
AcDbLine
 10
4385.094827586207
 20
566.9827586206894
 30
0.0
 11
4388.793103448275
 21
566.9827586206894
 31
0.0
  0
LINE
  5
73
330
2F
100
AcDbEntity
  8
0
 62
7
100
AcDbLine
 10
4385.094827586207
 20
566.9827586206894
 30
0.0
 11
4385.094827586207
 21
494.3620689655172
 31
0.0
  0
LINE
  5
74
330
2F
100
AcDbEntity
  8
0
 62
7
100
AcDbLine
 10
4388.793103448275
 20
490.9999999999998
 30
0.0
 11
4385.094827586207
 21
494.3620689655172
 31
0.0
  0
LINE
  5
75
330
2F
100
AcDbEntity
  8
0
 62
7
100
AcDbLine
 10
4385.094827586207
 20
494.3620689655172
 30
0.0
 11
4388.793103448275
 21
494.3620689655172
 31
0.0
  0
LWPOLYLINE
  5
76
330
2F
100
AcDbEntity
  8
0
 62
7
100
AcDbPolyline
 90
4
 70
1
 10
4385.094827586207
 20
546.1379310344827
 10
4325.922413793104
 20
546.1379310344827
 10
4325.922413793104
 20
515.8793103448274
 10
4385.094827586207
 20
515.8793103448274
  0
LWPOLYLINE
  5
77
330
2F
100
AcDbEntity
  8
0
 62
7
100
AcDbPolyline
 90
4
 70
1
 10
4181.689655172414
 20
565.9741379310344
 10
4157.482758620689
 20
565.9741379310344
 10
4157.482758620689
 20
492.6810344827584
 10
4181.689655172414
 20
492.6810344827584
  0
LINE
  5
78
330
2F
100
AcDbEntity
  8
0
 62
7
100
AcDbLine
 10
4171.26724137931
 20
565.9741379310344
 30
0.0
 11
4171.26724137931
 21
492.6810344827584
 31
0.0
  0
LINE
  5
79
330
2F
100
AcDbEntity
  8
0
 62
7
100
AcDbLine
 10
4169.586206896553
 20
565.9741379310344
 30
0.0
 11
4169.586206896553
 21
492.6810344827584
 31
0.0
  0
LINE
  5
7A
330
2F
100
AcDbEntity
  8
0
 62
7
100
AcDbLine
 10
4169.586206896553
 20
558.2413793103447
 30
0.0
 11
4171.26724137931
 21
558.2413793103447
 31
0.0
  0
LINE
  5
7B
330
2F
100
AcDbEntity
  8
0
 62
7
100
AcDbLine
 10
4169.586206896553
 20
549.8362068965516
 30
0.0
 11
4171.26724137931
 21
549.8362068965516
 31
0.0
  0
LINE
  5
7C
330
2F
100
AcDbEntity
  8
0
 62
7
100
AcDbLine
 10
4171.26724137931
 20
556.5603448275862
 30
0.0
 11
4180.344827586207
 21
556.5603448275862
 31
0.0
  0
LINE
  5
7D
330
2F
100
AcDbEntity
  8
0
 62
7
100
AcDbLine
 10
4180.344827586207
 20
565.9741379310344
 30
0.0
 11
4180.344827586207
 21
540.0862068965516
 31
0.0
  0
LINE
  5
7E
330
2F
100
AcDbEntity
  8
0
 62
7
100
AcDbLine
 10
4180.344827586207
 20
540.0862068965516
 30
0.0
 11
4171.26724137931
 21
540.0862068965516
 31
0.0
  0
LINE
  5
7F
330
2F
100
AcDbEntity
  8
0
 62
7
100
AcDbLine
 10
4171.26724137931
 20
548.4913793103447
 30
0.0
 11
4180.344827586207
 21
548.4913793103447
 31
0.0
  0
CIRCLE
  5
80
330
2F
100
AcDbEntity
  8
0
 62
7
100
AcDbCircle
 10
4175.974137931033
 20
560.9310344827584
 30
0.0
 40
3.362068965517241
  0
CIRCLE
  5
81
330
2F
100
AcDbEntity
  8
0
 62
7
100
AcDbCircle
 10
4175.974137931033
 20
560.9310344827584
 30
0.0
 40
3.698275862068964
  0
LINE
  5
82
330
2F
100
AcDbEntity
  8
0
 62
7
100
AcDbLine
 10
4173.620689655172
 20
562.2758620689654
 30
0.0
 11
4174.629310344828
 21
562.9482758620688
 31
0.0
  0
LINE
  5
83
330
2F
100
AcDbEntity
  8
0
 62
7
100
AcDbLine
 10
4174.629310344828
 20
562.9482758620688
 30
0.0
 11
4175.653213166143
 21
561.8219827586203
 31
0.0
  0
LINE
  5
84
330
2F
100
AcDbEntity
  8
0
 62
7
100
AcDbLine
 10
4176.463166144201
 20
560.9310344827582
 30
0.0
 11
4177.637477313974
 21
559.6392921960073
 31
0.0
  0
LINE
  5
85
330
2F
100
AcDbEntity
  8
0
 62
7
100
AcDbLine
 10
4176.699637023594
 20
558.8890199637021
 30
0.0
 11
4175.653213166143
 21
560.0400862068968
 31
0.0
  0
LINE
  5
86
330
2F
100
AcDbEntity
  8
0
 62
7
100
AcDbLine
 10
4174.843260188088
 20
560.9310344827588
 30
0.0
 11
4173.620689655172
 21
562.2758620689654
 31
0.0
  0
LINE
  5
87
330
2F
100
AcDbEntity
  8
0
 62
7
100
AcDbLine
 10
4173.620689655172
 20
559.5862068965516
 30
0.0
 11
4174.843260188088
 21
560.9310344827588
 31
0.0
  0
LINE
  5
88
330
2F
100
AcDbEntity
  8
0
 62
7
100
AcDbLine
 10
4175.653213166143
 20
561.8219827586202
 30
0.0
 11
4176.982758620689
 21
563.2844827586207
 31
0.0
  0
LINE
  5
89
330
2F
100
AcDbEntity
  8
0
 62
7
100
AcDbLine
 10
4176.982758620689
 20
563.2844827586207
 30
0.0
 11
4177.869675456388
 21
562.4781947261663
 31
0.0
  0
LINE
  5
8A
330
2F
100
AcDbEntity
  8
0
 62
7
100
AcDbLine
 10
4177.869675456388
 20
562.4781947261663
 30
0.0
 11
4176.463166144201
 21
560.9310344827584
 31
0.0
  0
LINE
  5
8B
330
2F
100
AcDbEntity
  8
0
 62
7
100
AcDbLine
 10
4175.653213166143
 20
560.0400862068965
 30
0.0
 11
4174.629310344828
 21
558.9137931034477
 31
0.0
  0
LINE
  5
8C
330
2F
100
AcDbEntity
  8
0
 62
7
100
AcDbLine
 10
4174.629310344828
 20
558.9137931034477
 30
0.0
 11
4173.620689655172
 21
559.5862068965516
 31
0.0
  0
LINE
  5
8D
330
2F
100
AcDbEntity
  8
0
 62
7
100
AcDbLine
 10
4176.699637023594
 20
558.8890199637021
 30
0.0
 11
4177.637477313974
 21
559.6392921960072
 31
0.0
  0
CIRCLE
  5
8E
330
2F
100
AcDbEntity
  8
0
 62
7
100
AcDbCircle
 10
4175.974137931033
 20
552.5258620689654
 30
0.0
 40
3.362068965517241
  0
CIRCLE
  5
8F
330
2F
100
AcDbEntity
  8
0
 62
7
100
AcDbCircle
 10
4175.974137931033
 20
552.5258620689654
 30
0.0
 40
3.698275862068964
  0
LINE
  5
90
330
2F
100
AcDbEntity
  8
0
 62
7
100
AcDbLine
 10
4173.620689655172
 20
553.8706896551722
 30
0.0
 11
4174.629310344828
 21
554.5431034482758
 31
0.0
  0
LINE
  5
91
330
2F
100
AcDbEntity
  8
0
 62
7
100
AcDbLine
 10
4174.629310344828
 20
554.5431034482758
 30
0.0
 11
4175.653213166143
 21
553.4168103448274
 31
0.0
  0
LINE
  5
92
330
2F
100
AcDbEntity
  8
0
 62
7
100
AcDbLine
 10
4176.463166144201
 20
552.5258620689651
 30
0.0
 11
4177.637477313974
 21
551.2341197822141
 31
0.0
  0
LINE
  5
93
330
2F
100
AcDbEntity
  8
0
 62
7
100
AcDbLine
 10
4176.699637023594
 20
550.483847549909
 30
0.0
 11
4175.653213166143
 21
551.6349137931037
 31
0.0
  0
LINE
  5
94
330
2F
100
AcDbEntity
  8
0
 62
7
100
AcDbLine
 10
4174.843260188088
 20
552.5258620689657
 30
0.0
 11
4173.620689655172
 21
553.8706896551722
 31
0.0
  0
LINE
  5
95
330
2F
100
AcDbEntity
  8
0
 62
7
100
AcDbLine
 10
4173.620689655172
 20
551.1810344827586
 30
0.0
 11
4174.843260188088
 21
552.5258620689657
 31
0.0
  0
LINE
  5
96
330
2F
100
AcDbEntity
  8
0
 62
7
100
AcDbLine
 10
4175.653213166143
 20
553.4168103448272
 30
0.0
 11
4176.982758620689
 21
554.8793103448274
 31
0.0
  0
LINE
  5
97
330
2F
100
AcDbEntity
  8
0
 62
7
100
AcDbLine
 10
4176.982758620689
 20
554.8793103448274
 30
0.0
 11
4177.869675456388
 21
554.0730223123732
 31
0.0
  0
LINE
  5
98
330
2F
100
AcDbEntity
  8
0
 62
7
100
AcDbLine
 10
4177.869675456388
 20
554.0730223123732
 30
0.0
 11
4176.463166144201
 21
552.5258620689654
 31
0.0
  0
LINE
  5
99
330
2F
100
AcDbEntity
  8
0
 62
7
100
AcDbLine
 10
4175.653213166143
 20
551.6349137931034
 30
0.0
 11
4174.629310344828
 21
550.5086206896549
 31
0.0
  0
LINE
  5
9A
330
2F
100
AcDbEntity
  8
0
 62
7
100
AcDbLine
 10
4174.629310344828
 20
550.5086206896549
 30
0.0
 11
4173.620689655172
 21
551.1810344827586
 31
0.0
  0
LINE
  5
9B
330
2F
100
AcDbEntity
  8
0
 62
7
100
AcDbLine
 10
4176.699637023594
 20
550.483847549909
 30
0.0
 11
4177.637477313974
 21
551.2341197822141
 31
0.0
  0
CIRCLE
  5
9C
330
2F
100
AcDbEntity
  8
0
 62
7
100
AcDbCircle
 10
4175.637931034482
 20
544.1206896551723
 30
0.0
 40
3.362068965517241
  0
CIRCLE
  5
9D
330
2F
100
AcDbEntity
  8
0
 62
7
100
AcDbCircle
 10
4175.637931034482
 20
544.1206896551723
 30
0.0
 40
3.698275862068964
  0
LINE
  5
9E
330
2F
100
AcDbEntity
  8
0
 62
7
100
AcDbLine
 10
4173.28448275862
 20
545.4655172413793
 30
0.0
 11
4174.293103448277
 21
546.1379310344827
 31
0.0
  0
LINE
  5
9F
330
2F
100
AcDbEntity
  8
0
 62
7
100
AcDbLine
 10
4174.293103448277
 20
546.1379310344827
 30
0.0
 11
4175.317006269593
 21
545.0116379310343
 31
0.0
  0
LINE
  5
A0
330
2F
100
AcDbEntity
  8
0
 62
7
100
AcDbLine
 10
4176.126959247649
 20
544.120689655172
 30
0.0
 11
4177.301270417421
 21
542.828947368421
 31
0.0
  0
LINE
  5
A1
330
2F
100
AcDbEntity
  8
0
 62
7
100
AcDbLine
 10
4176.363430127042
 20
542.0786751361157
 30
0.0
 11
4175.317006269593
 21
543.2297413793106
 31
0.0
  0
LINE
  5
A2
330
2F
100
AcDbEntity
  8
0
 62
7
100
AcDbLine
 10
4174.507053291536
 20
544.1206896551726
 30
0.0
 11
4173.28448275862
 21
545.4655172413793
 31
0.0
  0
LINE
  5
A3
330
2F
100
AcDbEntity
  8
0
 62
7
100
AcDbLine
 10
4173.28448275862
 20
542.7758620689655
 30
0.0
 11
4174.507053291536
 21
544.1206896551726
 31
0.0
  0
LINE
  5
A4
330
2F
100
AcDbEntity
  8
0
 62
7
100
AcDbLine
 10
4175.317006269593
 20
545.0116379310339
 30
0.0
 11
4176.646551724139
 21
546.4741379310344
 31
0.0
  0
LINE
  5
A5
330
2F
100
AcDbEntity
  8
0
 62
7
100
AcDbLine
 10
4176.646551724139
 20
546.4741379310344
 30
0.0
 11
4177.533468559838
 21
545.6678498985801
 31
0.0
  0
LINE
  5
A6
330
2F
100
AcDbEntity
  8
0
 62
7
100
AcDbLine
 10
4177.533468559838
 20
545.6678498985801
 30
0.0
 11
4176.126959247649
 21
544.1206896551723
 31
0.0
  0
LINE
  5
A7
330
2F
100
AcDbEntity
  8
0
 62
7
100
AcDbLine
 10
4175.317006269593
 20
543.2297413793103
 30
0.0
 11
4174.293103448277
 21
542.1034482758616
 31
0.0
  0
LINE
  5
A8
330
2F
100
AcDbEntity
  8
0
 62
7
100
AcDbLine
 10
4174.293103448277
 20
542.1034482758616
 30
0.0
 11
4173.28448275862
 21
542.7758620689655
 31
0.0
  0
LINE
  5
A9
330
2F
100
AcDbEntity
  8
0
 62
7
100
AcDbLine
 10
4176.363430127042
 20
542.0786751361157
 30
0.0
 11
4177.301270417421
 21
542.828947368421
 31
0.0
  0
LINE
  5
AA
330
2F
100
AcDbEntity
  8
0
 62
7
100
AcDbLine
 10
4169.586206896553
 20
500.4137931034482
 30
0.0
 11
4171.26724137931
 21
500.4137931034482
 31
0.0
  0
LINE
  5
AB
330
2F
100
AcDbEntity
  8
0
 62
7
100
AcDbLine
 10
4169.586206896553
 20
508.8189655172413
 30
0.0
 11
4171.26724137931
 21
508.8189655172413
 31
0.0
  0
LINE
  5
AC
330
2F
100
AcDbEntity
  8
0
 62
7
100
AcDbLine
 10
4171.26724137931
 20
502.0948275862068
 30
0.0
 11
4180.344827586207
 21
502.0948275862068
 31
0.0
  0
LINE
  5
AD
330
2F
100
AcDbEntity
  8
0
 62
7
100
AcDbLine
 10
4180.344827586207
 20
492.6810344827584
 30
0.0
 11
4180.344827586207
 21
518.5689655172414
 31
0.0
  0
LINE
  5
AE
330
2F
100
AcDbEntity
  8
0
 62
7
100
AcDbLine
 10
4180.344827586207
 20
518.5689655172414
 30
0.0
 11
4171.26724137931
 21
518.5689655172414
 31
0.0
  0
LINE
  5
AF
330
2F
100
AcDbEntity
  8
0
 62
7
100
AcDbLine
 10
4171.26724137931
 20
510.1637931034481
 30
0.0
 11
4180.344827586207
 21
510.1637931034481
 31
0.0
  0
CIRCLE
  5
B0
330
2F
100
AcDbEntity
  8
0
 62
7
100
AcDbCircle
 10
4175.974137931033
 20
497.7241379310344
 30
0.0
 40
3.362068965517241
  0
CIRCLE
  5
B1
330
2F
100
AcDbEntity
  8
0
 62
7
100
AcDbCircle
 10
4175.974137931033
 20
497.7241379310344
 30
0.0
 40
3.698275862068964
  0
LINE
  5
B2
330
2F
100
AcDbEntity
  8
0
 62
7
100
AcDbLine
 10
4173.620689655172
 20
496.3793103448274
 30
0.0
 11
4174.629310344828
 21
495.7068965517239
 31
0.0
  0
LINE
  5
B3
330
2F
100
AcDbEntity
  8
0
 62
7
100
AcDbLine
 10
4174.629310344828
 20
495.7068965517239
 30
0.0
 11
4175.653213166143
 21
496.8331896551724
 31
0.0
  0
LINE
  5
B4
330
2F
100
AcDbEntity
  8
0
 62
7
100
AcDbLine
 10
4176.463166144201
 20
497.7241379310347
 30
0.0
 11
4177.637477313974
 21
499.0158802177856
 31
0.0
  0
LINE
  5
B5
330
2F
100
AcDbEntity
  8
0
 62
7
100
AcDbLine
 10
4176.699637023594
 20
499.7661524500909
 30
0.0
 11
4175.653213166143
 21
498.6150862068962
 31
0.0
  0
LINE
  5
B6
330
2F
100
AcDbEntity
  8
0
 62
7
100
AcDbLine
 10
4174.843260188088
 20
497.724137931034
 30
0.0
 11
4173.620689655172
 21
496.3793103448274
 31
0.0
  0
LINE
  5
B7
330
2F
100
AcDbEntity
  8
0
 62
7
100
AcDbLine
 10
4173.620689655172
 20
499.0689655172412
 30
0.0
 11
4174.843260188088
 21
497.724137931034
 31
0.0
  0
LINE
  5
B8
330
2F
100
AcDbEntity
  8
0
 62
7
100
AcDbLine
 10
4175.653213166143
 20
496.8331896551726
 30
0.0
 11
4176.982758620689
 21
495.3706896551723
 31
0.0
  0
LINE
  5
B9
330
2F
100
AcDbEntity
  8
0
 62
7
100
AcDbLine
 10
4176.982758620689
 20
495.3706896551723
 30
0.0
 11
4177.869675456388
 21
496.1769776876267
 31
0.0
  0
LINE
  5
BA
330
2F
100
AcDbEntity
  8
0
 62
7
100
AcDbLine
 10
4177.869675456388
 20
496.1769776876267
 30
0.0
 11
4176.463166144201
 21
497.7241379310345
 31
0.0
  0
LINE
  5
BB
330
2F
100
AcDbEntity
  8
0
 62
7
100
AcDbLine
 10
4175.653213166143
 20
498.6150862068965
 30
0.0
 11
4174.629310344828
 21
499.7413793103452
 31
0.0
  0
LINE
  5
BC
330
2F
100
AcDbEntity
  8
0
 62
7
100
AcDbLine
 10
4174.629310344828
 20
499.7413793103452
 30
0.0
 11
4173.620689655172
 21
499.0689655172412
 31
0.0
  0
LINE
  5
BD
330
2F
100
AcDbEntity
  8
0
 62
7
100
AcDbLine
 10
4176.699637023594
 20
499.7661524500909
 30
0.0
 11
4177.637477313974
 21
499.0158802177858
 31
0.0
  0
CIRCLE
  5
BE
330
2F
100
AcDbEntity
  8
0
 62
7
100
AcDbCircle
 10
4175.974137931033
 20
506.1293103448274
 30
0.0
 40
3.362068965517241
  0
CIRCLE
  5
BF
330
2F
100
AcDbEntity
  8
0
 62
7
100
AcDbCircle
 10
4175.974137931033
 20
506.1293103448274
 30
0.0
 40
3.698275862068964
  0
LINE
  5
C0
330
2F
100
AcDbEntity
  8
0
 62
7
100
AcDbLine
 10
4173.620689655172
 20
504.7844827586206
 30
0.0
 11
4174.629310344828
 21
504.1120689655172
 31
0.0
  0
LINE
  5
C1
330
2F
100
AcDbEntity
  8
0
 62
7
100
AcDbLine
 10
4174.629310344828
 20
504.1120689655172
 30
0.0
 11
4175.653213166143
 21
505.2383620689655
 31
0.0
  0
LINE
  5
C2
330
2F
100
AcDbEntity
  8
0
 62
7
100
AcDbLine
 10
4176.463166144201
 20
506.1293103448279
 30
0.0
 11
4177.637477313974
 21
507.4210526315787
 31
0.0
  0
LINE
  5
C3
330
2F
100
AcDbEntity
  8
0
 62
7
100
AcDbLine
 10
4176.699637023594
 20
508.1713248638839
 30
0.0
 11
4175.653213166143
 21
507.0202586206893
 31
0.0
  0
LINE
  5
C4
330
2F
100
AcDbEntity
  8
0
 62
7
100
AcDbLine
 10
4174.843260188088
 20
506.1293103448273
 30
0.0
 11
4173.620689655172
 21
504.7844827586206
 31
0.0
  0
LINE
  5
C5
330
2F
100
AcDbEntity
  8
0
 62
7
100
AcDbLine
 10
4173.620689655172
 20
507.4741379310344
 30
0.0
 11
4174.843260188088
 21
506.1293103448273
 31
0.0
  0
LINE
  5
C6
330
2F
100
AcDbEntity
  8
0
 62
7
100
AcDbLine
 10
4175.653213166143
 20
505.2383620689656
 30
0.0
 11
4176.982758620689
 21
503.7758620689653
 31
0.0
  0
LINE
  5
C7
330
2F
100
AcDbEntity
  8
0
 62
7
100
AcDbLine
 10
4176.982758620689
 20
503.7758620689653
 30
0.0
 11
4177.869675456388
 21
504.5821501014198
 31
0.0
  0
LINE
  5
C8
330
2F
100
AcDbEntity
  8
0
 62
7
100
AcDbLine
 10
4177.869675456388
 20
504.5821501014198
 30
0.0
 11
4176.463166144201
 21
506.1293103448276
 31
0.0
  0
LINE
  5
C9
330
2F
100
AcDbEntity
  8
0
 62
7
100
AcDbLine
 10
4175.653213166143
 20
507.0202586206896
 30
0.0
 11
4174.629310344828
 21
508.1465517241381
 31
0.0
  0
LINE
  5
CA
330
2F
100
AcDbEntity
  8
0
 62
7
100
AcDbLine
 10
4174.629310344828
 20
508.1465517241381
 30
0.0
 11
4173.620689655172
 21
507.4741379310344
 31
0.0
  0
LINE
  5
CB
330
2F
100
AcDbEntity
  8
0
 62
7
100
AcDbLine
 10
4176.699637023594
 20
508.1713248638838
 30
0.0
 11
4177.637477313974
 21
507.4210526315789
 31
0.0
  0
CIRCLE
  5
CC
330
2F
100
AcDbEntity
  8
0
 62
7
100
AcDbCircle
 10
4175.637931034482
 20
514.5344827586207
 30
0.0
 40
3.362068965517241
  0
CIRCLE
  5
CD
330
2F
100
AcDbEntity
  8
0
 62
7
100
AcDbCircle
 10
4175.637931034482
 20
514.5344827586207
 30
0.0
 40
3.698275862068964
  0
LINE
  5
CE
330
2F
100
AcDbEntity
  8
0
 62
7
100
AcDbLine
 10
4173.28448275862
 20
513.1896551724137
 30
0.0
 11
4174.293103448277
 21
512.5172413793101
 31
0.0
  0
LINE
  5
CF
330
2F
100
AcDbEntity
  8
0
 62
7
100
AcDbLine
 10
4174.293103448277
 20
512.5172413793101
 30
0.0
 11
4175.317006269593
 21
513.6435344827587
 31
0.0
  0
LINE
  5
D0
330
2F
100
AcDbEntity
  8
0
 62
7
100
AcDbLine
 10
4176.126959247649
 20
514.534482758621
 30
0.0
 11
4177.301270417421
 21
515.8262250453716
 31
0.0
  0
LINE
  5
D1
330
2F
100
AcDbEntity
  8
0
 62
7
100
AcDbLine
 10
4176.363430127042
 20
516.576497277677
 30
0.0
 11
4175.317006269593
 21
515.4254310344822
 31
0.0
  0
LINE
  5
D2
330
2F
100
AcDbEntity
  8
0
 62
7
100
AcDbLine
 10
4174.507053291536
 20
514.5344827586204
 30
0.0
 11
4173.28448275862
 21
513.1896551724137
 31
0.0
  0
LINE
  5
D3
330
2F
100
AcDbEntity
  8
0
 62
7
100
AcDbLine
 10
4173.28448275862
 20
515.8793103448274
 30
0.0
 11
4174.507053291536
 21
514.5344827586204
 31
0.0
  0
LINE
  5
D4
330
2F
100
AcDbEntity
  8
0
 62
7
100
AcDbLine
 10
4175.317006269593
 20
513.6435344827588
 30
0.0
 11
4176.646551724139
 21
512.1810344827586
 31
0.0
  0
LINE
  5
D5
330
2F
100
AcDbEntity
  8
0
 62
7
100
AcDbLine
 10
4176.646551724139
 20
512.1810344827586
 30
0.0
 11
4177.533468559838
 21
512.9873225152127
 31
0.0
  0
LINE
  5
D6
330
2F
100
AcDbEntity
  8
0
 62
7
100
AcDbLine
 10
4177.533468559838
 20
512.9873225152127
 30
0.0
 11
4176.126959247649
 21
514.5344827586207
 31
0.0
  0
LINE
  5
D7
330
2F
100
AcDbEntity
  8
0
 62
7
100
AcDbLine
 10
4175.317006269593
 20
515.4254310344827
 30
0.0
 11
4174.293103448277
 21
516.551724137931
 31
0.0
  0
LINE
  5
D8
330
2F
100
AcDbEntity
  8
0
 62
7
100
AcDbLine
 10
4174.293103448277
 20
516.551724137931
 30
0.0
 11
4173.28448275862
 21
515.8793103448274
 31
0.0
  0
LINE
  5
D9
330
2F
100
AcDbEntity
  8
0
 62
7
100
AcDbLine
 10
4176.363430127042
 20
516.576497277677
 30
0.0
 11
4177.301270417421
 21
515.8262250453718
 31
0.0
  0
LINE
  5
DA
330
2F
100
AcDbEntity
  8
0
 62
7
100
AcDbLine
 10
4180.344827586207
 20
502.0948275862068
 30
0.0
 11
4181.689655172414
 21
502.0948275862068
 31
0.0
  0
LINE
  5
DB
330
2F
100
AcDbEntity
  8
0
 62
7
100
AcDbLine
 10
4180.344827586207
 20
556.5603448275862
 30
0.0
 11
4181.689655172414
 21
556.5603448275862
 31
0.0
  0
LWPOLYLINE
  5
DC
330
2F
100
AcDbEntity
  8
0
 62
7
100
AcDbPolyline
 90
4
 70
1
 10
4415.689655172413
 20
565.9741379310344
 10
4439.896551724138
 20
565.9741379310344
 10
4439.896551724138
 20
492.6810344827584
 10
4415.689655172413
 20
492.6810344827584
  0
LINE
  5
DD
330
2F
100
AcDbEntity
  8
0
 62
7
100
AcDbLine
 10
4426.112068965517
 20
565.9741379310344
 30
0.0
 11
4426.112068965517
 21
492.6810344827584
 31
0.0
  0
LINE
  5
DE
330
2F
100
AcDbEntity
  8
0
 62
7
100
AcDbLine
 10
4427.793103448276
 20
565.9741379310344
 30
0.0
 11
4427.793103448276
 21
492.6810344827584
 31
0.0
  0
LINE
  5
DF
330
2F
100
AcDbEntity
  8
0
 62
7
100
AcDbLine
 10
4427.793103448276
 20
558.2413793103447
 30
0.0
 11
4426.112068965517
 21
558.2413793103447
 31
0.0
  0
LINE
  5
E0
330
2F
100
AcDbEntity
  8
0
 62
7
100
AcDbLine
 10
4427.793103448276
 20
549.8362068965516
 30
0.0
 11
4426.112068965517
 21
549.8362068965516
 31
0.0
  0
LINE
  5
E1
330
2F
100
AcDbEntity
  8
0
 62
7
100
AcDbLine
 10
4426.112068965517
 20
556.5603448275862
 30
0.0
 11
4417.03448275862
 21
556.5603448275862
 31
0.0
  0
LINE
  5
E2
330
2F
100
AcDbEntity
  8
0
 62
7
100
AcDbLine
 10
4417.03448275862
 20
565.9741379310344
 30
0.0
 11
4417.03448275862
 21
540.0862068965516
 31
0.0
  0
LINE
  5
E3
330
2F
100
AcDbEntity
  8
0
 62
7
100
AcDbLine
 10
4417.03448275862
 20
540.0862068965516
 30
0.0
 11
4426.112068965517
 21
540.0862068965516
 31
0.0
  0
LINE
  5
E4
330
2F
100
AcDbEntity
  8
0
 62
7
100
AcDbLine
 10
4426.112068965517
 20
548.4913793103447
 30
0.0
 11
4417.03448275862
 21
548.4913793103447
 31
0.0
  0
CIRCLE
  5
E5
330
2F
100
AcDbEntity
  8
0
 62
7
100
AcDbCircle
 10
4421.405172413794
 20
560.9310344827584
 30
0.0
 40
3.362068965517241
  0
CIRCLE
  5
E6
330
2F
100
AcDbEntity
  8
0
 62
7
100
AcDbCircle
 10
4421.405172413794
 20
560.9310344827584
 30
0.0
 40
3.698275862068964
  0
LINE
  5
E7
330
2F
100
AcDbEntity
  8
0
 62
7
100
AcDbLine
 10
4423.758620689655
 20
562.2758620689654
 30
0.0
 11
4422.749999999999
 21
562.9482758620688
 31
0.0
  0
LINE
  5
E8
330
2F
100
AcDbEntity
  8
0
 62
7
100
AcDbLine
 10
4422.749999999999
 20
562.9482758620688
 30
0.0
 11
4421.726097178683
 21
561.8219827586203
 31
0.0
  0
LINE
  5
E9
330
2F
100
AcDbEntity
  8
0
 62
7
100
AcDbLine
 10
4420.916144200627
 20
560.9310344827582
 30
0.0
 11
4419.741833030853
 21
559.6392921960073
 31
0.0
  0
LINE
  5
EA
330
2F
100
AcDbEntity
  8
0
 62
7
100
AcDbLine
 10
4420.679673321234
 20
558.8890199637021
 30
0.0
 11
4421.726097178683
 21
560.0400862068968
 31
0.0
  0
LINE
  5
EB
330
2F
100
AcDbEntity
  8
0
 62
7
100
AcDbLine
 10
4422.53605015674
 20
560.9310344827588
 30
0.0
 11
4423.758620689655
 21
562.2758620689654
 31
0.0
  0
LINE
  5
EC
330
2F
100
AcDbEntity
  8
0
 62
7
100
AcDbLine
 10
4423.758620689655
 20
559.5862068965516
 30
0.0
 11
4422.53605015674
 21
560.9310344827588
 31
0.0
  0
LINE
  5
ED
330
2F
100
AcDbEntity
  8
0
 62
7
100
AcDbLine
 10
4421.726097178683
 20
561.8219827586202
 30
0.0
 11
4420.396551724137
 21
563.2844827586207
 31
0.0
  0
LINE
  5
EE
330
2F
100
AcDbEntity
  8
0
 62
7
100
AcDbLine
 10
4420.396551724137
 20
563.2844827586207
 30
0.0
 11
4419.509634888438
 21
562.4781947261663
 31
0.0
  0
LINE
  5
EF
330
2F
100
AcDbEntity
  8
0
 62
7
100
AcDbLine
 10
4419.509634888438
 20
562.4781947261663
 30
0.0
 11
4420.916144200626
 21
560.9310344827584
 31
0.0
  0
LINE
  5
F0
330
2F
100
AcDbEntity
  8
0
 62
7
100
AcDbLine
 10
4421.726097178683
 20
560.0400862068965
 30
0.0
 11
4422.749999999999
 21
558.9137931034477
 31
0.0
  0
LINE
  5
F1
330
2F
100
AcDbEntity
  8
0
 62
7
100
AcDbLine
 10
4422.749999999999
 20
558.9137931034477
 30
0.0
 11
4423.758620689655
 21
559.5862068965516
 31
0.0
  0
LINE
  5
F2
330
2F
100
AcDbEntity
  8
0
 62
7
100
AcDbLine
 10
4420.679673321234
 20
558.8890199637021
 30
0.0
 11
4419.741833030853
 21
559.6392921960072
 31
0.0
  0
CIRCLE
  5
F3
330
2F
100
AcDbEntity
  8
0
 62
7
100
AcDbCircle
 10
4421.405172413794
 20
552.5258620689654
 30
0.0
 40
3.362068965517241
  0
CIRCLE
  5
F4
330
2F
100
AcDbEntity
  8
0
 62
7
100
AcDbCircle
 10
4421.405172413794
 20
552.5258620689654
 30
0.0
 40
3.698275862068964
  0
LINE
  5
F5
330
2F
100
AcDbEntity
  8
0
 62
7
100
AcDbLine
 10
4423.758620689655
 20
553.8706896551722
 30
0.0
 11
4422.749999999999
 21
554.5431034482758
 31
0.0
  0
LINE
  5
F6
330
2F
100
AcDbEntity
  8
0
 62
7
100
AcDbLine
 10
4422.749999999999
 20
554.5431034482758
 30
0.0
 11
4421.726097178683
 21
553.4168103448274
 31
0.0
  0
LINE
  5
F7
330
2F
100
AcDbEntity
  8
0
 62
7
100
AcDbLine
 10
4420.916144200627
 20
552.5258620689651
 30
0.0
 11
4419.741833030853
 21
551.2341197822141
 31
0.0
  0
LINE
  5
F8
330
2F
100
AcDbEntity
  8
0
 62
7
100
AcDbLine
 10
4420.679673321234
 20
550.483847549909
 30
0.0
 11
4421.726097178683
 21
551.6349137931037
 31
0.0
  0
LINE
  5
F9
330
2F
100
AcDbEntity
  8
0
 62
7
100
AcDbLine
 10
4422.53605015674
 20
552.5258620689657
 30
0.0
 11
4423.758620689655
 21
553.8706896551722
 31
0.0
  0
LINE
  5
FA
330
2F
100
AcDbEntity
  8
0
 62
7
100
AcDbLine
 10
4423.758620689655
 20
551.1810344827586
 30
0.0
 11
4422.53605015674
 21
552.5258620689657
 31
0.0
  0
LINE
  5
FB
330
2F
100
AcDbEntity
  8
0
 62
7
100
AcDbLine
 10
4421.726097178683
 20
553.4168103448272
 30
0.0
 11
4420.396551724137
 21
554.8793103448274
 31
0.0
  0
LINE
  5
FC
330
2F
100
AcDbEntity
  8
0
 62
7
100
AcDbLine
 10
4420.396551724137
 20
554.8793103448274
 30
0.0
 11
4419.509634888438
 21
554.0730223123732
 31
0.0
  0
LINE
  5
FD
330
2F
100
AcDbEntity
  8
0
 62
7
100
AcDbLine
 10
4419.509634888438
 20
554.0730223123732
 30
0.0
 11
4420.916144200626
 21
552.5258620689654
 31
0.0
  0
LINE
  5
FE
330
2F
100
AcDbEntity
  8
0
 62
7
100
AcDbLine
 10
4421.726097178683
 20
551.6349137931034
 30
0.0
 11
4422.749999999999
 21
550.5086206896549
 31
0.0
  0
LINE
  5
FF
330
2F
100
AcDbEntity
  8
0
 62
7
100
AcDbLine
 10
4422.749999999999
 20
550.5086206896549
 30
0.0
 11
4423.758620689655
 21
551.1810344827586
 31
0.0
  0
LINE
  5
100
330
2F
100
AcDbEntity
  8
0
 62
7
100
AcDbLine
 10
4420.679673321234
 20
550.483847549909
 30
0.0
 11
4419.741833030853
 21
551.2341197822141
 31
0.0
  0
CIRCLE
  5
101
330
2F
100
AcDbEntity
  8
0
 62
7
100
AcDbCircle
 10
4421.741379310345
 20
544.1206896551723
 30
0.0
 40
3.362068965517241
  0
CIRCLE
  5
102
330
2F
100
AcDbEntity
  8
0
 62
7
100
AcDbCircle
 10
4421.741379310345
 20
544.1206896551723
 30
0.0
 40
3.698275862068964
  0
LINE
  5
103
330
2F
100
AcDbEntity
  8
0
 62
7
100
AcDbLine
 10
4424.094827586207
 20
545.4655172413793
 30
0.0
 11
4423.086206896551
 21
546.1379310344827
 31
0.0
  0
LINE
  5
104
330
2F
100
AcDbEntity
  8
0
 62
7
100
AcDbLine
 10
4423.086206896551
 20
546.1379310344827
 30
0.0
 11
4422.062304075235
 21
545.0116379310343
 31
0.0
  0
LINE
  5
105
330
2F
100
AcDbEntity
  8
0
 62
7
100
AcDbLine
 10
4421.252351097177
 20
544.120689655172
 30
0.0
 11
4420.078039927404
 21
542.828947368421
 31
0.0
  0
LINE
  5
106
330
2F
100
AcDbEntity
  8
0
 62
7
100
AcDbLine
 10
4421.015880217786
 20
542.0786751361157
 30
0.0
 11
4422.062304075235
 21
543.2297413793106
 31
0.0
  0
LINE
  5
107
330
2F
100
AcDbEntity
  8
0
 62
7
100
AcDbLine
 10
4422.872257053291
 20
544.1206896551726
 30
0.0
 11
4424.094827586207
 21
545.4655172413793
 31
0.0
  0
LINE
  5
108
330
2F
100
AcDbEntity
  8
0
 62
7
100
AcDbLine
 10
4424.094827586207
 20
542.7758620689655
 30
0.0
 11
4422.872257053291
 21
544.1206896551726
 31
0.0
  0
LINE
  5
109
330
2F
100
AcDbEntity
  8
0
 62
7
100
AcDbLine
 10
4422.062304075235
 20
545.0116379310339
 30
0.0
 11
4420.732758620689
 21
546.4741379310344
 31
0.0
  0
LINE
  5
10A
330
2F
100
AcDbEntity
  8
0
 62
7
100
AcDbLine
 10
4420.732758620689
 20
546.4741379310344
 30
0.0
 11
4419.845841784989
 21
545.6678498985801
 31
0.0
  0
LINE
  5
10B
330
2F
100
AcDbEntity
  8
0
 62
7
100
AcDbLine
 10
4419.845841784989
 20
545.6678498985801
 30
0.0
 11
4421.252351097177
 21
544.1206896551723
 31
0.0
  0
LINE
  5
10C
330
2F
100
AcDbEntity
  8
0
 62
7
100
AcDbLine
 10
4422.062304075233
 20
543.2297413793103
 30
0.0
 11
4423.086206896551
 21
542.1034482758616
 31
0.0
  0
LINE
  5
10D
330
2F
100
AcDbEntity
  8
0
 62
7
100
AcDbLine
 10
4423.086206896551
 20
542.1034482758616
 30
0.0
 11
4424.094827586207
 21
542.7758620689655
 31
0.0
  0
LINE
  5
10E
330
2F
100
AcDbEntity
  8
0
 62
7
100
AcDbLine
 10
4421.015880217786
 20
542.0786751361157
 30
0.0
 11
4420.078039927404
 21
542.828947368421
 31
0.0
  0
LINE
  5
10F
330
2F
100
AcDbEntity
  8
0
 62
7
100
AcDbLine
 10
4427.793103448276
 20
500.4137931034482
 30
0.0
 11
4426.112068965517
 21
500.4137931034482
 31
0.0
  0
LINE
  5
110
330
2F
100
AcDbEntity
  8
0
 62
7
100
AcDbLine
 10
4427.793103448276
 20
508.8189655172413
 30
0.0
 11
4426.112068965517
 21
508.8189655172413
 31
0.0
  0
LINE
  5
111
330
2F
100
AcDbEntity
  8
0
 62
7
100
AcDbLine
 10
4426.112068965517
 20
502.0948275862068
 30
0.0
 11
4417.03448275862
 21
502.0948275862068
 31
0.0
  0
LINE
  5
112
330
2F
100
AcDbEntity
  8
0
 62
7
100
AcDbLine
 10
4417.03448275862
 20
492.6810344827584
 30
0.0
 11
4417.03448275862
 21
518.5689655172414
 31
0.0
  0
LINE
  5
113
330
2F
100
AcDbEntity
  8
0
 62
7
100
AcDbLine
 10
4417.03448275862
 20
518.5689655172414
 30
0.0
 11
4426.112068965517
 21
518.5689655172414
 31
0.0
  0
LINE
  5
114
330
2F
100
AcDbEntity
  8
0
 62
7
100
AcDbLine
 10
4426.112068965517
 20
510.1637931034481
 30
0.0
 11
4417.03448275862
 21
510.1637931034481
 31
0.0
  0
CIRCLE
  5
115
330
2F
100
AcDbEntity
  8
0
 62
7
100
AcDbCircle
 10
4421.405172413794
 20
497.7241379310344
 30
0.0
 40
3.362068965517241
  0
CIRCLE
  5
116
330
2F
100
AcDbEntity
  8
0
 62
7
100
AcDbCircle
 10
4421.405172413794
 20
497.7241379310344
 30
0.0
 40
3.698275862068964
  0
LINE
  5
117
330
2F
100
AcDbEntity
  8
0
 62
7
100
AcDbLine
 10
4423.758620689655
 20
496.3793103448274
 30
0.0
 11
4422.749999999999
 21
495.7068965517239
 31
0.0
  0
LINE
  5
118
330
2F
100
AcDbEntity
  8
0
 62
7
100
AcDbLine
 10
4422.749999999999
 20
495.7068965517239
 30
0.0
 11
4421.726097178683
 21
496.8331896551724
 31
0.0
  0
LINE
  5
119
330
2F
100
AcDbEntity
  8
0
 62
7
100
AcDbLine
 10
4420.916144200627
 20
497.7241379310347
 30
0.0
 11
4419.741833030853
 21
499.0158802177856
 31
0.0
  0
LINE
  5
11A
330
2F
100
AcDbEntity
  8
0
 62
7
100
AcDbLine
 10
4420.679673321234
 20
499.7661524500909
 30
0.0
 11
4421.726097178683
 21
498.6150862068962
 31
0.0
  0
LINE
  5
11B
330
2F
100
AcDbEntity
  8
0
 62
7
100
AcDbLine
 10
4422.53605015674
 20
497.724137931034
 30
0.0
 11
4423.758620689655
 21
496.3793103448274
 31
0.0
  0
LINE
  5
11C
330
2F
100
AcDbEntity
  8
0
 62
7
100
AcDbLine
 10
4423.758620689655
 20
499.0689655172412
 30
0.0
 11
4422.53605015674
 21
497.724137931034
 31
0.0
  0
LINE
  5
11D
330
2F
100
AcDbEntity
  8
0
 62
7
100
AcDbLine
 10
4421.726097178683
 20
496.8331896551726
 30
0.0
 11
4420.396551724137
 21
495.3706896551723
 31
0.0
  0
LINE
  5
11E
330
2F
100
AcDbEntity
  8
0
 62
7
100
AcDbLine
 10
4420.396551724137
 20
495.3706896551723
 30
0.0
 11
4419.509634888438
 21
496.1769776876267
 31
0.0
  0
LINE
  5
11F
330
2F
100
AcDbEntity
  8
0
 62
7
100
AcDbLine
 10
4419.509634888438
 20
496.1769776876267
 30
0.0
 11
4420.916144200626
 21
497.7241379310345
 31
0.0
  0
LINE
  5
120
330
2F
100
AcDbEntity
  8
0
 62
7
100
AcDbLine
 10
4421.726097178683
 20
498.6150862068965
 30
0.0
 11
4422.749999999999
 21
499.7413793103452
 31
0.0
  0
LINE
  5
121
330
2F
100
AcDbEntity
  8
0
 62
7
100
AcDbLine
 10
4422.749999999999
 20
499.7413793103452
 30
0.0
 11
4423.758620689655
 21
499.0689655172412
 31
0.0
  0
LINE
  5
122
330
2F
100
AcDbEntity
  8
0
 62
7
100
AcDbLine
 10
4420.679673321234
 20
499.7661524500909
 30
0.0
 11
4419.741833030853
 21
499.0158802177858
 31
0.0
  0
CIRCLE
  5
123
330
2F
100
AcDbEntity
  8
0
 62
7
100
AcDbCircle
 10
4421.405172413794
 20
506.1293103448274
 30
0.0
 40
3.362068965517241
  0
CIRCLE
  5
124
330
2F
100
AcDbEntity
  8
0
 62
7
100
AcDbCircle
 10
4421.405172413794
 20
506.1293103448274
 30
0.0
 40
3.698275862068964
  0
LINE
  5
125
330
2F
100
AcDbEntity
  8
0
 62
7
100
AcDbLine
 10
4423.758620689655
 20
504.7844827586206
 30
0.0
 11
4422.749999999999
 21
504.1120689655172
 31
0.0
  0
LINE
  5
126
330
2F
100
AcDbEntity
  8
0
 62
7
100
AcDbLine
 10
4422.749999999999
 20
504.1120689655172
 30
0.0
 11
4421.726097178683
 21
505.2383620689655
 31
0.0
  0
LINE
  5
127
330
2F
100
AcDbEntity
  8
0
 62
7
100
AcDbLine
 10
4420.916144200627
 20
506.1293103448279
 30
0.0
 11
4419.741833030853
 21
507.4210526315787
 31
0.0
  0
LINE
  5
128
330
2F
100
AcDbEntity
  8
0
 62
7
100
AcDbLine
 10
4420.679673321234
 20
508.1713248638839
 30
0.0
 11
4421.726097178683
 21
507.0202586206893
 31
0.0
  0
LINE
  5
129
330
2F
100
AcDbEntity
  8
0
 62
7
100
AcDbLine
 10
4422.53605015674
 20
506.1293103448273
 30
0.0
 11
4423.758620689655
 21
504.7844827586206
 31
0.0
  0
LINE
  5
12A
330
2F
100
AcDbEntity
  8
0
 62
7
100
AcDbLine
 10
4423.758620689655
 20
507.4741379310344
 30
0.0
 11
4422.53605015674
 21
506.1293103448273
 31
0.0
  0
LINE
  5
12B
330
2F
100
AcDbEntity
  8
0
 62
7
100
AcDbLine
 10
4421.726097178683
 20
505.2383620689656
 30
0.0
 11
4420.396551724137
 21
503.7758620689653
 31
0.0
  0
LINE
  5
12C
330
2F
100
AcDbEntity
  8
0
 62
7
100
AcDbLine
 10
4420.396551724137
 20
503.7758620689653
 30
0.0
 11
4419.509634888438
 21
504.5821501014198
 31
0.0
  0
LINE
  5
12D
330
2F
100
AcDbEntity
  8
0
 62
7
100
AcDbLine
 10
4419.509634888438
 20
504.5821501014198
 30
0.0
 11
4420.916144200626
 21
506.1293103448276
 31
0.0
  0
LINE
  5
12E
330
2F
100
AcDbEntity
  8
0
 62
7
100
AcDbLine
 10
4421.726097178683
 20
507.0202586206896
 30
0.0
 11
4422.749999999999
 21
508.1465517241381
 31
0.0
  0
LINE
  5
12F
330
2F
100
AcDbEntity
  8
0
 62
7
100
AcDbLine
 10
4422.749999999999
 20
508.1465517241381
 30
0.0
 11
4423.758620689655
 21
507.4741379310344
 31
0.0
  0
LINE
  5
130
330
2F
100
AcDbEntity
  8
0
 62
7
100
AcDbLine
 10
4420.679673321234
 20
508.1713248638838
 30
0.0
 11
4419.741833030853
 21
507.4210526315789
 31
0.0
  0
CIRCLE
  5
131
330
2F
100
AcDbEntity
  8
0
 62
7
100
AcDbCircle
 10
4421.741379310345
 20
514.5344827586207
 30
0.0
 40
3.362068965517241
  0
CIRCLE
  5
132
330
2F
100
AcDbEntity
  8
0
 62
7
100
AcDbCircle
 10
4421.741379310345
 20
514.5344827586207
 30
0.0
 40
3.698275862068964
  0
LINE
  5
133
330
2F
100
AcDbEntity
  8
0
 62
7
100
AcDbLine
 10
4424.094827586207
 20
513.1896551724137
 30
0.0
 11
4423.086206896551
 21
512.5172413793101
 31
0.0
  0
LINE
  5
134
330
2F
100
AcDbEntity
  8
0
 62
7
100
AcDbLine
 10
4423.086206896551
 20
512.5172413793101
 30
0.0
 11
4422.062304075235
 21
513.6435344827587
 31
0.0
  0
LINE
  5
135
330
2F
100
AcDbEntity
  8
0
 62
7
100
AcDbLine
 10
4421.252351097177
 20
514.534482758621
 30
0.0
 11
4420.078039927404
 21
515.8262250453716
 31
0.0
  0
LINE
  5
136
330
2F
100
AcDbEntity
  8
0
 62
7
100
AcDbLine
 10
4421.015880217786
 20
516.576497277677
 30
0.0
 11
4422.062304075235
 21
515.4254310344822
 31
0.0
  0
LINE
  5
137
330
2F
100
AcDbEntity
  8
0
 62
7
100
AcDbLine
 10
4422.872257053291
 20
514.5344827586204
 30
0.0
 11
4424.094827586207
 21
513.1896551724137
 31
0.0
  0
LINE
  5
138
330
2F
100
AcDbEntity
  8
0
 62
7
100
AcDbLine
 10
4424.094827586207
 20
515.8793103448274
 30
0.0
 11
4422.872257053291
 21
514.5344827586204
 31
0.0
  0
LINE
  5
139
330
2F
100
AcDbEntity
  8
0
 62
7
100
AcDbLine
 10
4422.062304075235
 20
513.6435344827588
 30
0.0
 11
4420.732758620689
 21
512.1810344827586
 31
0.0
  0
LINE
  5
13A
330
2F
100
AcDbEntity
  8
0
 62
7
100
AcDbLine
 10
4420.732758620689
 20
512.1810344827586
 30
0.0
 11
4419.845841784989
 21
512.9873225152127
 31
0.0
  0
LINE
  5
13B
330
2F
100
AcDbEntity
  8
0
 62
7
100
AcDbLine
 10
4419.845841784989
 20
512.9873225152127
 30
0.0
 11
4421.252351097177
 21
514.5344827586207
 31
0.0
  0
LINE
  5
13C
330
2F
100
AcDbEntity
  8
0
 62
7
100
AcDbLine
 10
4422.062304075233
 20
515.4254310344827
 30
0.0
 11
4423.086206896551
 21
516.551724137931
 31
0.0
  0
LINE
  5
13D
330
2F
100
AcDbEntity
  8
0
 62
7
100
AcDbLine
 10
4423.086206896551
 20
516.551724137931
 30
0.0
 11
4424.094827586207
 21
515.8793103448274
 31
0.0
  0
LINE
  5
13E
330
2F
100
AcDbEntity
  8
0
 62
7
100
AcDbLine
 10
4421.015880217786
 20
516.576497277677
 30
0.0
 11
4420.078039927404
 21
515.8262250453718
 31
0.0
  0
LINE
  5
13F
330
2F
100
AcDbEntity
  8
0
 62
7
100
AcDbLine
 10
4417.03448275862
 20
502.0948275862068
 30
0.0
 11
4415.689655172413
 21
502.0948275862068
 31
0.0
  0
LINE
  5
140
330
2F
100
AcDbEntity
  8
0
 62
7
100
AcDbLine
 10
4417.03448275862
 20
556.5603448275862
 30
0.0
 11
4415.689655172413
 21
556.5603448275862
 31
0.0
  0
LWPOLYLINE
  5
141
330
2F
100
AcDbEntity
  8
0
 62
7
100
AcDbPolyline
 90
4
 70
1
 10
4287.594827586207
 20
553.8706896551722
 10
4310.120689655172
 20
553.8706896551722
 10
4310.120689655172
 20
544.4568965517238
 10
4287.594827586207
 20
544.4568965517238
  0
LWPOLYLINE
  5
142
330
2F
100
AcDbEntity
  8
0
 62
7
100
AcDbPolyline
 90
4
 70
1
 10
4273.137931034482
 20
544.4568965517238
 10
4324.577586206896
 20
544.4568965517238
 10
4324.577586206896
 20
516.5517241379309
 10
4273.137931034482
 20
516.5517241379309
  0
LWPOLYLINE
  5
143
330
2F
100
AcDbEntity
  8
0
 62
7
100
AcDbPolyline
 90
6
 70
0
 10
4312.810344827584
 20
514.8706896551723
 10
4324.577586206896
 20
514.8706896551723
 10
4324.577586206896
 20
506.1293103448274
 10
4273.137931034482
 20
506.1293103448274
 10
4273.137931034482
 20
514.8706896551723
 10
4284.905172413792
 20
514.8706896551723
  0
LINE
  5
144
330
2F
100
AcDbEntity
  8
0
 62
7
100
AcDbLine
 10
4312.810344827584
 20
516.5517241379309
 30
0.0
 11
4312.810344827584
 21
514.8706896551723
 31
0.0
  0
LINE
  5
145
330
2F
100
AcDbEntity
  8
0
 62
7
100
AcDbLine
 10
4284.905172413792
 20
516.5517241379309
 30
0.0
 11
4284.905172413792
 21
514.8706896551723
 31
0.0
  0
MTEXT
  5
146
330
2F
100
AcDbEntity
  8
0
 62
3
100
AcDbMText
 10
4214.181805204968
 20
427.0208089898813
 30
0.0
 40
4.0
 41
21.5
 46
0.0
 71
1
 72
5
  1
\A1;\pxt5;{\fTimes New Roman|b0|i0|c0|p18;U/2 /T1}
  7
ss
101
Embedded Object
 70
1
 10
1.0
 20
0.0
 30
0.0
 11
4214.181805204968
 21
427.0208089898813
 31
0.0
 40
21.5
 41
0.0
 42
17.78514780100937
 43
4.193222782984859
 71
2
 72
1
 44
21.5
 45
12.5
 73
0
 74
0
 46
0.0
  0
MTEXT
  5
147
330
2F
100
AcDbEntity
  8
0
 62
3
100
AcDbMText
 10
4287.03557080683
 20
427.0208089898813
 30
0.0
 40
4.0
 41
21.5
 46
0.0
 71
1
 72
5
  1
\A1;{\fTimes New Roman|b0|i0|c0|p18;V/4 /T2}
  7
ss
101
Embedded Object
 70
1
 10
1.0
 20
0.0
 30
0.0
 11
4287.03557080683
 21
427.0208089898813
 31
0.0
 40
21.5
 41
0.0
 42
18.24080749819755
 43
4.190338860850757
 71
2
 72
1
 44
21.5
 45
12.5
 73
0
 74
0
 46
0.0
  0
MTEXT
  5
148
330
2F
100
AcDbEntity
  8
0
 62
3
100
AcDbMText
 10
4365.344159763885
 20
427.0208089898813
 30
0.0
 40
4.0
 41
21.5
 46
0.0
 71
1
 72
5
  1
\A1;{\fTimes New Roman|b0|i0|c0|p18;W/6 /T3}
  7
ss
101
Embedded Object
 70
1
 10
1.0
 20
0.0
 30
0.0
 11
4365.344159763885
 21
427.0208089898813
 31
0.0
 40
21.5
 41
0.0
 42
19.2790194664744
 43
4.190338860850757
 71
2
 72
1
 44
21.5
 45
12.5
 73
0
 74
0
 46
0.0
  0
MTEXT
  5
149
330
2F
100
AcDbEntity
  8
0
 62
3
100
AcDbMText
 10
4212.525862068964
 20
637.0092733013449
 30
0.0
 40
4.0
 41
21.5
 46
0.0
 71
1
 72
5
  1
\A1;{\fTimes New Roman|b0|i0|c0|p18;R/1 /L1}
  7
ss
101
Embedded Object
 70
1
 10
1.0
 20
0.0
 30
0.0
 11
4212.525862068964
 21
637.0092733013449
 31
0.0
 40
21.5
 41
0.0
 42
17.39005046863734
 43
4.18168709444845
 71
2
 72
1
 44
21.5
 45
12.5
 73
0
 74
0
 46
0.0
  0
MTEXT
  5
14A
330
2F
100
AcDbEntity
  8
0
 62
3
100
AcDbMText
 10
4288.025862068964
 20
636.5092733013449
 30
0.0
 40
4.0
 41
21.5
 46
0.0
 71
1
 72
5
  1
\A1;{\fTimes New Roman|b0|i0|c0|p18;S/3 /L2}
  7
ss
101
Embedded Object
 70
1
 10
1.0
 20
0.0
 30
0.0
 11
4288.025862068964
 21
636.5092733013449
 31
0.0
 40
21.5
 41
0.0
 42
16.94304253785147
 43
4.190338860850757
 71
2
 72
1
 44
21.5
 45
12.5
 73
0
 74
0
 46
0.0
  0
MTEXT
  5
14B
330
2F
100
AcDbEntity
  8
0
 62
3
100
AcDbMText
 10
4369.143039983073
 20
636.5092733013449
 30
0.0
 40
4.0
 41
21.5
 46
0.0
 71
1
 72
5
  1
\A1;{\fTimes New Roman|b0|i0|c0|p18;T/5 /L3}
  7
ss
101
Embedded Object
 70
1
 10
1.0
 20
0.0
 30
0.0
 11
4369.143039983073
 21
636.5092733013449
 31
0.0
 40
21.5
 41
0.0
 42
17.211247296323
 43
4.18168709444845
 71
2
 72
1
 44
21.5
 45
12.5
 73
0
 74
0
 46
0.0
  0
MTEXT
  5
14C
330
2F
100
AcDbEntity
  8
0
 62
3
100
AcDbMText
 10
4189.739993676301
 20
554.17488299655
 30
0.0
 40
3.0
 41
5.0
 46
0.0
 71
1
 72
5
  1
{\fTimes New Roman|b0|i0|c0|p18;13}
  7
ss
101
Embedded Object
 70
1
 10
1.0
 20
0.0
 30
0.0
 11
4189.739993676301
 21
554.17488299655
 31
0.0
 40
5.0
 41
0.0
 42
3.542898341744773
 43
3.051910598413842
 71
2
 72
1
 44
5.0
 45
12.5
 73
0
 74
0
 46
0.0
  0
MTEXT
  5
14D
330
2F
100
AcDbEntity
  8
0
 62
3
100
AcDbMText
 10
4189.739993676301
 20
545.17488299655
 30
0.0
 40
3.0
 41
5.0
 46
0.0
 71
1
 72
5
  1
{\fTimes New Roman|b0|i0|c0|p18;21}
  7
ss
101
Embedded Object
 70
1
 10
1.0
 20
0.0
 30
0.0
 11
4189.739993676301
 21
545.17488299655
 31
0.0
 40
5.0
 41
0.0
 42
3.793799567411679
 43
3.0
 71
2
 72
1
 44
5.0
 45
12.5
 73
0
 74
0
 46
0.0
  0
MTEXT
  5
14E
330
2F
100
AcDbEntity
  8
0
 62
3
100
AcDbMText
 10
4190.954125283637
 20
507.5221797862034
 30
0.0
 40
3.0
 41
5.0
 46
0.0
 71
1
 72
5
  1
{\fTimes New Roman|b0|i0|c0|p18;22}
  7
ss
101
Embedded Object
 70
1
 10
1.0
 20
0.0
 30
0.0
 11
4190.954125283637
 21
507.5221797862034
 31
0.0
 40
5.0
 41
0.0
 42
4.150684931506849
 43
3.0
 71
2
 72
1
 44
5.0
 45
12.5
 73
0
 74
0
 46
0.0
  0
MTEXT
  5
14F
330
2F
100
AcDbEntity
  8
0
 62
3
100
AcDbMText
 10
4190.954125283637
 20
499.0221797862033
 30
0.0
 40
3.0
 41
5.0
 46
0.0
 71
1
 72
5
  1
{\fTimes New Roman|b0|i0|c0|p18;14}
  7
ss
101
Embedded Object
 70
1
 10
1.0
 20
0.0
 30
0.0
 11
4190.954125283637
 21
499.0221797862033
 31
0.0
 40
5.0
 41
0.0
 42
3.757029560201874
 43
3.0
 71
2
 72
1
 44
5.0
 45
12.5
 73
0
 74
0
 46
0.0
  0
MTEXT
  5
150
330
2F
100
AcDbEntity
  8
0
 62
3
100
AcDbMText
 10
4401.707091842427
 20
553.67488299655
 30
0.0
 40
3.0
 41
5.0
 46
0.0
 71
1
 72
5
  1
{\fTimes New Roman|b0|i0|c0|p18;43}
  7
ss
101
Embedded Object
 70
1
 10
1.0
 20
0.0
 30
0.0
 11
4401.707091842427
 21
553.67488299655
 31
0.0
 40
5.0
 41
0.0
 42
3.992790194664744
 43
3.051910598413842
 71
2
 72
1
 44
5.0
 45
12.5
 73
0
 74
0
 46
0.0
  0
MTEXT
  5
151
330
2F
100
AcDbEntity
  8
0
 62
3
100
AcDbMText
 10
4401.707091842427
 20
544.6748829965499
 30
0.0
 40
3.0
 41
5.0
 46
0.0
 71
1
 72
5
  1
{\fTimes New Roman|b0|i0|c0|p18;31}
  7
ss
101
Embedded Object
 70
1
 10
1.0
 20
0.0
 30
0.0
 11
4401.707091842427
 21
544.6748829965499
 31
0.0
 40
5.0
 41
0.0
 42
3.709444844989184
 43
3.051910598413842
 71
2
 72
1
 44
5.0
 45
12.5
 73
0
 74
0
 46
0.0
  0
MTEXT
  5
152
330
2F
100
AcDbEntity
  8
0
 62
3
100
AcDbMText
 10
4401.707091842427
 20
507.67488299655
 30
0.0
 40
3.0
 41
5.0
 46
0.0
 71
1
 72
5
  1
{\fTimes New Roman|b0|i0|c0|p18;32}
  7
ss
101
Embedded Object
 70
1
 10
1.0
 20
0.0
 30
0.0
 11
4401.707091842427
 21
507.67488299655
 31
0.0
 40
5.0
 41
0.0
 42
4.066330209084354
 43
3.051910598413842
 71
2
 72
1
 44
5.0
 45
12.5
 73
0
 74
0
 46
0.0
  0
MTEXT
  5
153
330
2F
100
AcDbEntity
  8
0
 62
3
100
AcDbMText
 10
4401.707091842427
 20
499.17488299655
 30
0.0
 40
3.0
 41
5.0
 46
0.0
 71
1
 72
5
  1
{\fTimes New Roman|b0|i0|c0|p18;44}
  7
ss
101
Embedded Object
 70
1
 10
1.0
 20
0.0
 30
0.0
 11
4401.707091842427
 21
499.17488299655
 31
0.0
 40
5.0
 41
0.0
 42
4.206921413121845
 43
3.0
 71
2
 72
1
 44
5.0
 45
12.5
 73
0
 74
0
 46
0.0
  0
MTEXT
  5
154
330
2F
100
AcDbEntity
  8
0
 62
3
100
AcDbMText
 10
4274.777183876358
 20
533.17488299655
 30
0.0
 40
4.0
 41
34.46280979994299
 46
0.0
 71
1
 72
5
  1
{\fTimes New Roman|b0|i0|c0|p18;MC-500a/630a/800a}
  7
ss
101
Embedded Object
 70
1
 10
1.0
 20
0.0
 30
0.0
 11
4274.777183876358
 21
533.17488299655
 31
0.0
 40
34.46280979994299
 41
0.0
 42
48.77289113193943
 43
4.190338860850757
 71
2
 72
1
 44
34.46280979994299
 45
12.5
 73
0
 74
0
 46
0.0
  0
MTEXT
  5
155
330
2F
100
AcDbEntity
  8
0
 62
3
100
AcDbMText
 10
4373.525862068965
 20
667.3275862068964
 30
0.0
 40
4.0
 41
5.0
 46
0.0
 71
1
 72
5
  1
{\fTimes New Roman|b0|i0|c0|p18;M16}
  7
ss
101
Embedded Object
 70
1
 10
1.0
 20
0.0
 30
0.0
 11
4373.525862068965
 21
667.3275862068964
 31
0.0
 40
5.0
 41
0.0
 42
10.83201153568853
 43
4.069214131218457
 71
2
 72
1
 44
5.0
 45
12.5
 73
0
 74
0
 46
0.0
  0
ENDBLK
  5
31
330
2F
100
AcDbEntity
  8
0
100
AcDbBlockEnd
  0
ENDSEC
  0
SECTION
  2
ENTITIES
  0
INSERT
  5
157
330
17
100
AcDbEntity
  8
0
100
AcDbBlockReference
  2
MC 500a
 10
-4156.137931034481
 20
-374.3362068965516
 30
0.0
  0
ENDSEC
  0
SECTION
  2
OBJECTS
  0
DICTIONARY
  5
A
330
0
100
AcDbDictionary
281
1
  3
ACAD_COLOR
350
B
  3
ACAD_GROUP
350
C
  3
ACAD_LAYOUT
350
D
  3
ACAD_MATERIAL
350
E
  3
ACAD_MLEADERSTYLE
350
F
  3
ACAD_MLINESTYLE
350
10
  3
ACAD_PLOTSETTINGS
350
11
  3
ACAD_PLOTSTYLENAME
350
12
  3
ACAD_SCALELIST
350
14
  3
ACAD_TABLESTYLE
350
15
  3
ACAD_VISUALSTYLE
350
16
  3
EZDXF_META
350
2D
  0
DICTIONARY
  5
B
330
A
100
AcDbDictionary
281
1
  0
DICTIONARY
  5
C
330
A
100
AcDbDictionary
281
1
  0
DICTIONARY
  5
D
330
A
100
AcDbDictionary
281
1
  3
Model
350
1A
  3
Layout1
350
1E
  0
DICTIONARY
  5
E
330
A
100
AcDbDictionary
281
1
  3
ByBlock
350
1F
  3
ByLayer
350
20
  3
Global
350
21
  0
DICTIONARY
  5
F
330
A
100
AcDbDictionary
281
1
  3
Standard
350
2C
  0
DICTIONARY
  5
10
330
A
100
AcDbDictionary
281
1
  3
Standard
350
22
  0
DICTIONARY
  5
11
330
A
100
AcDbDictionary
281
1
  0
ACDBDICTIONARYWDFLT
  5
12
330
A
100
AcDbDictionary
281
1
  3
Normal
350
13
100
AcDbDictionaryWithDefault
340
13
  0
ACDBPLACEHOLDER
  5
13
330
12
  0
DICTIONARY
  5
14
330
A
100
AcDbDictionary
281
1
  0
DICTIONARY
  5
15
330
A
100
AcDbDictionary
281
1
  0
DICTIONARY
  5
16
330
A
100
AcDbDictionary
281
1
  0
LAYOUT
  5
1A
330
D
100
AcDbPlotSettings
  1

  4
A3
  6

 40
7.5
 41
20.0
 42
7.5
 43
20.0
 44
420.0
 45
297.0
 46
0.0
 47
0.0
 48
0.0
 49
0.0
140
0.0
141
0.0
142
1.0
143
1.0
 70
1024
 72
1
 73
0
 74
5
  7

 75
16
 76
0
 77
2
 78
300
147
1.0
148
0.0
149
0.0
100
AcDbLayout
  1
Model
 70
1
 71
0
 10
0.0
 20
0.0
 11
420.0
 21
297.0
 12
0.0
 22
0.0
 32
0.0
 14
1e+20
 24
1e+20
 34
1e+20
 15
-1e+20
 25
-1e+20
 35
-1e+20
146
0.0
 13
0.0
 23
0.0
 33
0.0
 16
1.0
 26
0.0
 36
0.0
 17
0.0
 27
1.0
 37
0.0
 76
1
330
17
  0
LAYOUT
  5
1E
330
D
100
AcDbPlotSettings
  1

  4
A3
  6

 40
7.5
 41
20.0
 42
7.5
 43
20.0
 44
420.0
 45
297.0
 46
0.0
 47
0.0
 48
0.0
 49
0.0
140
0.0
141
0.0
142
1.0
143
1.0
 70
0
 72
1
 73
0
 74
5
  7

 75
16
 76
0
 77
2
 78
300
147
1.0
148
0.0
149
0.0
100
AcDbLayout
  1
Layout1
 70
1
 71
1
 10
0.0
 20
0.0
 11
420.0
 21
297.0
 12
0.0
 22
0.0
 32
0.0
 14
1e+20
 24
1e+20
 34
1e+20
 15
-1e+20
 25
-1e+20
 35
-1e+20
146
0.0
 13
0.0
 23
0.0
 33
0.0
 16
1.0
 26
0.0
 36
0.0
 17
0.0
 27
1.0
 37
0.0
 76
1
330
1B
  0
MATERIAL
  5
1F
102
{ACAD_REACTORS
330
E
102
}
330
E
100
AcDbMaterial
  1
ByBlock
  2

 70
0
 40
1.0
 71
1
 41
1.0
 91
-1023410177
 42
1.0
 72
1
  3

 73
1
 74
1
 75
1
 44
0.5
 73
0
 45
1.0
 46
1.0
 77
1
  4

 78
1
 79
1
170
1
 48
1.0
171
1
  6

172
1
173
1
174
1
140
1.0
141
1.0
175
1
  7

176
1
177
1
178
1
143
1.0
179
1
  8

270
1
271
1
272
1
145
1.0
146
1.0
273
1
  9

274
1
275
1
276
1
 42
1.0
 72
1
  3

 73
1
 74
1
 75
1
 94
63
  0
MATERIAL
  5
20
102
{ACAD_REACTORS
330
E
102
}
330
E
100
AcDbMaterial
  1
ByLayer
  2

 70
0
 40
1.0
 71
1
 41
1.0
 91
-1023410177
 42
1.0
 72
1
  3

 73
1
 74
1
 75
1
 44
0.5
 73
0
 45
1.0
 46
1.0
 77
1
  4

 78
1
 79
1
170
1
 48
1.0
171
1
  6

172
1
173
1
174
1
140
1.0
141
1.0
175
1
  7

176
1
177
1
178
1
143
1.0
179
1
  8

270
1
271
1
272
1
145
1.0
146
1.0
273
1
  9

274
1
275
1
276
1
 42
1.0
 72
1
  3

 73
1
 74
1
 75
1
 94
63
  0
MATERIAL
  5
21
102
{ACAD_REACTORS
330
E
102
}
330
E
100
AcDbMaterial
  1
Global
  2

 70
0
 40
1.0
 71
1
 41
1.0
 91
-1023410177
 42
1.0
 72
1
  3

 73
1
 74
1
 75
1
 44
0.5
 73
0
 45
1.0
 46
1.0
 77
1
  4

 78
1
 79
1
170
1
 48
1.0
171
1
  6

172
1
173
1
174
1
140
1.0
141
1.0
175
1
  7

176
1
177
1
178
1
143
1.0
179
1
  8

270
1
271
1
272
1
145
1.0
146
1.0
273
1
  9

274
1
275
1
276
1
 42
1.0
 72
1
  3

 73
1
 74
1
 75
1
 94
63
  0
MLINESTYLE
  5
22
102
{ACAD_REACTORS
330
10
102
}
330
10
100
AcDbMlineStyle
  2
Standard
 70
0
  3

 62
256
 51
90.0
 52
90.0
 71
2
 49
0.5
 62
256
  6
BYLAYER
 49
-0.5
 62
256
  6
BYLAYER
  0
MLEADERSTYLE
  5
2C
102
{ACAD_REACTORS
330
F
102
}
330
F
100
AcDbMLeaderStyle
179
2
170
2
171
1
172
0
 90
2
 40
0.0
 41
0.0
173
1
 91
-1056964608
 92
-2
290
1
 42
2.0
291
1
 43
8.0
  3
Standard
 44
4.0
300

342
29
174
1
175
1
176
0
178
1
 93
-1056964608
 45
4.0
292
0
297
0
 46
4.0
 94
-1056964608
 47
1.0
 49
1.0
140
1.0
294
1
141
0.0
177
0
142
1.0
295
0
296
0
143
3.75
271
0
272
9
273
9
  0
DICTIONARY
  5
2D
330
A
100
AcDbDictionary
280
1
281
1
  3
CREATED_BY_EZDXF
350
2E
  3
WRITTEN_BY_EZDXF
350
15B
  0
DICTIONARYVAR
  5
2E
330
2D
100
DictionaryVariables
280
0
  1
1.4.4 @ 2026-09-23T06:02:52.172736+00:00
  0
DICTIONARYVAR
  5
15B
330
2D
100
DictionaryVariables
280
0
  1
1.4.4 @ 2026-09-23T06:02:52.274463+00:00
  0
ENDSEC
  0
EOF
