  0
SECTION
  2
HEADER
  9
$ACADVER
  1
AC1032
  9
$ACADMAINTVER
 90
4
  9
$DWGCODEPAGE
  3
ANSI_1252
  9
$LASTSAVEDBY
  1
ezdxf
  9
$REQUIREDVERSIONS
160
0
  9
$INSBASE
 10
0.0
 20
0.0
 30
0.0
  9
$EXTMIN
 10
1e+20
 20
1e+20
 30
1e+20
  9
$EXTMAX
 10
-1e+20
 20
-1e+20
 30
-1e+20
  9
$LIMMIN
 10
0.0
 20
0.0
  9
$LIMMAX
 10
420.0
 20
297.0
  9
$ORTHOMODE
 70
0
  9
$REGENMODE
 70
1
  9
$FILLMODE
 70
1
  9
$QTEXTMODE
 70
0
  9
$MIRRTEXT
 70
1
  9
$LTSCALE
 40
1.0
  9
$ATTMODE
 70
1
  9
$TEXTSIZE
 40
2.5
  9
$TRACEWID
 40
1.0
  9
$TEXTSTYLE
  7
Standard
  9
$CLAYER
  8
0
  9
$CELTYPE
  6
ByLayer
  9
$CECOLOR
 62
256
  9
$CELTSCALE
 40
1.0
  9
$DISPSILH
 70
0
  9
$DIMSCALE
 40
1.0
  9
$DIMASZ
 40
2.5
  9
$DIMEXO
 40
0.625
  9
$DIMDLI
 40
3.75
  9
$DIMRND
 40
0.0
  9
$DIMDLE
 40
0.0
  9
$DIMEXE
 40
1.25
  9
$DIMTP
 40
0.0
  9
$DIMTM
 40
0.0
  9
$DIMTXT
 40
2.5
  9
$DIMCEN
 40
2.5
  9
$DIMTSZ
 40
0.0
  9
$DIMTOL
 70
0
  9
$DIMLIM
 70
0
  9
$DIMTIH
 70
0
  9
$DIMTOH
 70
0
  9
$DIMSE1
 70
0
  9
$DIMSE2
 70
0
  9
$DIMTAD
 70
1
  9
$DIMZIN
 70
8
  9
$DIMBLK
  1

  9
$DIMASO
 70
1
  9
$DIMSHO
 70
1
  9
$DIMPOST
  1

  9
$DIMAPOST
  1

  9
$DIMALT
 70
0
  9
$DIMALTD
 70
3
  9
$DIMALTF
 40
0.03937007874
  9
$DIMLFAC
 40
1.0
  9
$DIMTOFL
 70
1
  9
$DIMTVP
 40
0.0
  9
$DIMTIX
 70
0
  9
$DIMSOXD
 70
0
  9
$DIMSAH
 70
0
  9
$DIMBLK1
  1

  9
$DIMBLK2
  1

  9
$DIMSTYLE
  2
ISO-25
  9
$DIMCLRD
 70
0
  9
$DIMCLRE
 70
0
  9
$DIMCLRT
 70
0
  9
$DIMTFAC
 40
1.0
  9
$DIMGAP
 40
0.625
  9
$DIMJUST
 70
0
  9
$DIMSD1
 70
0
  9
$DIMSD2
 70
0
  9
$DIMTOLJ
 70
0
  9
$DIMTZIN
 70
8
  9
$DIMALTZ
 70
0
  9
$DIMALTTZ
 70
0
  9
$DIMUPT
 70
0
  9
$DIMDEC
 70
2
  9
$DIMTDEC
 70
2
  9
$DIMALTU
 70
2
  9
$DIMALTTD
 70
3
  9
$DIMTXSTY
  7
Standard
  9
$DIMAUNIT
 70
0
  9
$DIMADEC
 70
0
  9
$DIMALTRND
 40
0.0
  9
$DIMAZIN
 70
0
  9
$DIMDSEP
 70
44
  9
$DIMATFIT
 70
3
  9
$DIMFRAC
 70
0
  9
$DIMLDRBLK
  1

  9
$DIMLUNIT
 70
2
  9
$DIMLWD
 70
-2
  9
$DIMLWE
 70
-2
  9
$DIMTMOVE
 70
0
  9
$DIMFXL
 40
1.0
  9
$DIMFXLON
 70
0
  9
$DIMJOGANG
 40
0.785398163397
  9
$DIMTFILL
 70
0
  9
$DIMTFILLCLR
 70
0
  9
$DIMARCSYM
 70
0
  9
$DIMLTYPE
  6

  9
$DIMLTEX1
  6

  9
$DIMLTEX2
  6

  9
$DIMTXTDIRECTION
 70
0
  9
$LUNITS
 70
2
  9
$LUPREC
 70
4
  9
$SKETCHINC
 40
1.0
  9
$FILLETRAD
 40
10.0
  9
$AUNITS
 70
0
  9
$AUPREC
 70
2
  9
$MENU
  1
.
  9
$ELEVATION
 40
0.0
  9
$PELEVATION
 40
0.0
  9
$THICKNESS
 40
0.0
  9
$LIMCHECK
 70
0
  9
$CHAMFERA
 40
0.0
  9
$CHAMFERB
 40
0.0
  9
$CHAMFERC
 40
0.0
  9
$CHAMFERD
 40
0.0
  9
$SKPOLY
 70
0
  9
$TDCREATE
 40
2461307.544224537
  9
$TDUCREATE
 40
2458532.153996898
  9
$TDUPDATE
 40
2461307.544224537
  9
$TDUUPDATE
 40
2458532.1544311
  9
$TDINDWG
 40
0.0
  9
$TDUSRTIMER
 40
0.0
  9
$USRTIMER
 70
1
  9
$ANGBASE
 50
0.0
  9
$ANGDIR
 70
0
  9
$PDMODE
 70
0
  9
$PDSIZE
 40
0.0
  9
$PLINEWID
 40
0.0
  9
$SPLFRAME
 70
0
  9
$SPLINETYPE
 70
6
  9
$SPLINESEGS
 70
8
  9
$HANDSEED
  5
145
  9
$SURFTAB1
 70
6
  9
$SURFTAB2
 70
6
  9
$SURFTYPE
 70
6
  9
$SURFU
 70
6
  9
$SURFV
 70
6
  9
$UCSBASE
  2

  9
$UCSNAME
  2

  9
$UCSORG
 10
0.0
 20
0.0
 30
0.0
  9
$UCSXDIR
 10
1.0
 20
0.0
 30
0.0
  9
$UCSYDIR
 10
0.0
 20
1.0
 30
0.0
  9
$UCSORTHOREF
  2

  9
$UCSORTHOVIEW
 70
0
  9
$UCSORGTOP
 10
0.0
 20
0.0
 30
0.0
  9
$UCSORGBOTTOM
 10
0.0
 20
0.0
 30
0.0
  9
$UCSORGLEFT
 10
0.0
 20
0.0
 30
0.0
  9
$UCSORGRIGHT
 10
0.0
 20
0.0
 30
0.0
  9
$UCSORGFRONT
 10
0.0
 20
0.0
 30
0.0
  9
$UCSORGBACK
 10
0.0
 20
0.0
 30
0.0
  9
$PUCSBASE
  2

  9
$PUCSNAME
  2

  9
$PUCSORG
 10
0.0
 20
0.0
 30
0.0
  9
$PUCSXDIR
 10
1.0
 20
0.0
 30
0.0
  9
$PUCSYDIR
 10
0.0
 20
1.0
 30
0.0
  9
$PUCSORTHOREF
  2

  9
$PUCSORTHOVIEW
 70
0
  9
$PUCSORGTOP
 10
0.0
 20
0.0
 30
0.0
  9
$PUCSORGBOTTOM
 10
0.0
 20
0.0
 30
0.0
  9
$PUCSORGLEFT
 10
0.0
 20
0.0
 30
0.0
  9
$PUCSORGRIGHT
 10
0.0
 20
0.0
 30
0.0
  9
$PUCSORGFRONT
 10
0.0
 20
0.0
 30
0.0
  9
$PUCSORGBACK
 10
0.0
 20
0.0
 30
0.0
  9
$USERI1
 70
0
  9
$USERI2
 70
0
  9
$USERI3
 70
0
  9
$USERI4
 70
0
  9
$USERI5
 70
0
  9
$USERR1
 40
0.0
  9
$USERR2
 40
0.0
  9
$USERR3
 40
0.0
  9
$USERR4
 40
0.0
  9
$USERR5
 40
0.0
  9
$WORLDVIEW
 70
1
  9
$SHADEDGE
 70
3
  9
$SHADEDIF
 70
70
  9
$TILEMODE
 70
1
  9
$MAXACTVP
 70
64
  9
$PINSBASE
 10
0.0
 20
0.0
 30
0.0
  9
$PLIMCHECK
 70
0
  9
$PEXTMIN
 10
1e+20
 20
1e+20
 30
1e+20
  9
$PEXTMAX
 10
-1e+20
 20
-1e+20
 30
-1e+20
  9
$PLIMMIN
 10
0.0
 20
0.0
  9
$PLIMMAX
 10
420.0
 20
297.0
  9
$UNITMODE
 70
0
  9
$VISRETAIN
 70
1
  9
$PLINEGEN
 70
0
  9
$PSLTSCALE
 70
1
  9
$TREEDEPTH
 70
3020
  9
$CMLSTYLE
  2
Standard
  9
$CMLJUST
 70
0
  9
$CMLSCALE
 40
20.0
  9
$PROXYGRAPHICS
 70
1
  9
$MEASUREMENT
 70
1
  9
$CELWEIGHT
370
-1
  9
$ENDCAPS
280
0
  9
$JOINSTYLE
280
0
  9
$LWDISPLAY
290
0
  9
$INSUNITS
 70
4
  9
$HYPERLINKBASE
  1

  9
$STYLESHEET
  1

  9
$XEDIT
290
1
  9
$CEPSNTYPE
380
0
  9
$PSTYLEMODE
290
1
  9
$FINGERPRINTGUID
  2
{D40C323A-BE82-4408-8994-A6D4EAF5C925}
  9
$VERSIONGUID
  2
{819C45A5-F58C-46E2-8181-CA2156FCFE15}
  9
$EXTNAMES
290
1
  9
$PSVPSCALE
 40
0.0
  9
$OLESTARTUP
290
0
  9
$SORTENTS
280
127
  9
$INDEXCTL
280
0
  9
$HIDETEXT
280
1
  9
$XCLIPFRAME
280
1
  9
$HALOGAP
280
0
  9
$OBSCOLOR
 70
257
  9
$OBSLTYPE
280
0
  9
$INTERSECTIONDISPLAY
280
0
  9
$INTERSECTIONCOLOR
 70
257
  9
$DIMASSOC
280
2
  9
$PROJECTNAME
  1

  9
$CAMERADISPLAY
290
0
  9
$LENSLENGTH
 40
50.0
  9
$CAMERAHEIGHT
 40
0.0
  9
$STEPSPERSEC
 40
24.0
  9
$STEPSIZE
 40
100.0
  9
$3DDWFPREC
 40
2.0
  9
$PSOLWIDTH
 40
0.005
  9
$PSOLHEIGHT
 40
0.08
  9
$LOFTANG1
 40
1.570796326795
  9
$LOFTANG2
 40
1.570796326795
  9
$LOFTMAG1
 40
0.0
  9
$LOFTMAG2
 40
0.0
  9
$LOFTPARAM
 70
7
  9
$LOFTNORMALS
280
1
  9
$LATITUDE
 40
37.795
  9
$LONGITUDE
 40
-122.394
  9
$NORTHDIRECTION
 40
0.0
  9
$TIMEZONE
 70
-8000
  9
$LIGHTGLYPHDISPLAY
280
1
  9
$TILEMODELIGHTSYNCH
280
1
  9
$CMATERIAL
347
20
  9
$SOLIDHIST
280
0
  9
$SHOWHIST
280
1
  9
$DWFFRAME
280
2
  9
$DGNFRAME
280
2
  9
$REALWORLDSCALE
290
1
  9
$INTERFERECOLOR
 62
256
  9
$CSHADOW
280
0
  9
$SHADOWPLANELOCATION
 40
0.0
  0
ENDSEC
  0
SECTION
  2
CLASSES
  0
CLASS
  1
ACDBDICTIONARYWDFLT
  2
AcDbDictionaryWithDefault
  3
ObjectDBX Classes
 90
0
 91
0
280
0
281
0
  0
CLASS
  1
SUN
  2
AcDbSun
  3
SCENEOE
 90
1153
 91
0
280
0
281
0
  0
CLASS
  1
VISUALSTYLE
  2
AcDbVisualStyle
  3
ObjectDBX Classes
 90
4095
 91
0
280
0
281
0
  0
CLASS
  1
MATERIAL
  2
AcDbMaterial
  3
ObjectDBX Classes
 90
1153
 91
0
280
0
281
0
  0
CLASS
  1
SCALE
  2
AcDbScale
  3
ObjectDBX Classes
 90
1153
 91
0
280
0
281
0
  0
CLASS
  1
TABLESTYLE
  2
AcDbTableStyle
  3
ObjectDBX Classes
 90
4095
 91
0
280
0
281
0
  0
CLASS
  1
MLEADERSTYLE
  2
AcDbMLeaderStyle
  3
ACDB_MLEADERSTYLE_CLASS
 90
4095
 91
0
280
0
281
0
  0
CLASS
  1
DICTIONARYVAR
  2
AcDbDictionaryVar
  3
ObjectDBX Classes
 90
0
 91
0
280
0
281
0
  0
CLASS
  1
CELLSTYLEMAP
  2
AcDbCellStyleMap
  3
ObjectDBX Classes
 90
1152
 91
0
280
0
281
0
  0
CLASS
  1
MENTALRAYRENDERSETTINGS
  2
AcDbMentalRayRenderSettings
  3
SCENEOE
 90
1024
 91
0
280
0
281
0
  0
CLASS
  1
ACDBDETAILVIEWSTYLE
  2
AcDbDetailViewStyle
  3
ObjectDBX Classes
 90
1025
 91
0
280
0
281
0
  0
CLASS
  1
ACDBSECTIONVIEWSTYLE
  2
AcDbSectionViewStyle
  3
ObjectDBX Classes
 90
1025
 91
0
280
0
281
0
  0
CLASS
  1
RASTERVARIABLES
  2
AcDbRasterVariables
  3
ISM
 90
0
 91
0
280
0
281
0
  0
CLASS
  1
LAYOUT
  2
AcDbLayout
  3
ObjectDBX Classes
 90
0
 91
0
280
0
281
0
  0
CLASS
  1
ACDBPLACEHOLDER
  2
AcDbPlaceHolder
  3
ObjectDBX Classes
 90
0
 91
0
280
0
281
0
  0
ENDSEC
  0
SECTION
  2
TABLES
  0
TABLE
  2
VPORT
  5
8
330
0
100
AcDbSymbolTable
 70
1
  0
VPORT
  5
23
330
8
100
AcDbSymbolTableRecord
100
AcDbViewportTableRecord
  2
*Active
 70
0
 10
0.0
 20
0.0
 11
1.0
 21
1.0
 12
0.0
 22
0.0
 13
0.0
 23
0.0
 14
0.5
 24
0.5
 15
0.5
 25
0.5
 16
0.0
 26
0.0
 36
1.0
 17
0.0
 27
0.0
 37
0.0
 40
1000.0
 41
1.34
 42
50.0
 43
0.0
 44
0.0
 50
0.0
 51
0.0
 71
0
 72
1000
 73
1
 74
3
 75
0
 76
0
 77
0
 78
0
281
0
 65
0
146
0.0
  0
ENDTAB
  0
TABLE
  2
LTYPE
  5
2
330
0
100
AcDbSymbolTable
 70
6
  0
LTYPE
  5
24
330
2
100
AcDbSymbolTableRecord
100
AcDbLinetypeTableRecord
  2
ByBlock
 70
0
  3

 72
65
 73
0
 40
0.0
  0
LTYPE
  5
25
330
2
100
AcDbSymbolTableRecord
100
AcDbLinetypeTableRecord
  2
ByLayer
 70
0
  3

 72
65
 73
0
 40
0.0
  0
LTYPE
  5
26
330
2
100
AcDbSymbolTableRecord
100
AcDbLinetypeTableRecord
  2
Continuous
 70
0
  3

 72
65
 73
0
 40
0.0
  0
LTYPE
  5
13C
330
2
100
AcDbSymbolTableRecord
100
AcDbLinetypeTableRecord
  2
DASHDOT
 70
0
  3
Dash dot __ . __ . __ . __ . __ . __ . __ . __
 72
65
 73
4
 40
25.4
 49
12.7
 74
0
 49
-6.349999999999997
 74
0
 49
0.0
 74
0
 49
-6.349999999999997
 74
0
  0
LTYPE
  5
13D
330
2
100
AcDbSymbolTableRecord
100
AcDbLinetypeTableRecord
  2
CENTER
 70
0
  3
Center ____ _ ____ _ ____ _ ____ _ ____ _ ____
 72
65
 73
4
 40
50.8
 49
31.75
 74
0
 49
-6.349999999999998
 74
0
 49
6.349999999999998
 74
0
 49
-6.349999999999998
 74
0
  0
LTYPE
  5
13E
330
2
100
AcDbSymbolTableRecord
100
AcDbLinetypeTableRecord
  2
CENTERLINE
 70
0
  3
_ 
 72
65
 73
5
 40
30.0
 49
12.0
 74
0
 49
-1.5
 74
0
 49
3.0
 74
0
 49
-1.5
 74
0
 49
12.0
 74
0
  0
ENDTAB
  0
TABLE
  2
LAYER
  5
1
330
0
100
AcDbSymbolTable
 70
8
  0
LAYER
  5
27
330
1
100
AcDbSymbolTableRecord
100
AcDbLayerTableRecord
  2
0
 70
0
 62
7
  6
Continuous
370
-3
390
13
347
21
  0
LAYER
  5
28
330
1
100
AcDbSymbolTableRecord
100
AcDbLayerTableRecord
  2
Defpoints
 70
0
 62
7
  6
Continuous
290
0
370
-3
390
13
347
21
  0
LAYER
  5
136
330
1
100
AcDbSymbolTableRecord
100
AcDbLayerTableRecord
  2
17
 70
0
 62
2
  6
CENTER
370
-3
390
F
347
98
348
0
  0
LAYER
  5
137
330
1
100
AcDbSymbolTableRecord
100
AcDbLayerTableRecord
  2
19
 70
0
 62
7
  6
Continuous
370
-3
390
F
347
98
348
0
  0
LAYER
  5
138
330
1
100
AcDbSymbolTableRecord
100
AcDbLayerTableRecord
  2
12
 70
0
 62
3
  6
Continuous
370
-3
390
F
347
98
348
0
  0
LAYER
  5
139
330
1
100
AcDbSymbolTableRecord
100
AcDbLayerTableRecord
  2
26
 70
0
 62
2
  6
Continuous
370
-3
390
F
347
98
348
0
  0
LAYER
  5
13A
330
1
100
AcDbSymbolTableRecord
100
AcDbLayerTableRecord
  2
10
 70
0
 62
4
  6
Continuous
370
-3
390
F
347
98
348
0
  0
LAYER
  5
13B
330
1
100
AcDbSymbolTableRecord
100
AcDbLayerTableRecord
  2
11
 70
0
 62
7
  6
Continuous
370
-3
390
F
347
98
348
0
  0
ENDTAB
  0
TABLE
  2
STYLE
  5
5
330
0
100
AcDbSymbolTable
 70
2
  0
STYLE
  5
29
330
5
100
AcDbSymbolTableRecord
100
AcDbTextStyleTableRecord
  2
Standard
 70
0
 40
0.0
 41
1.0
 50
0.0
 71
0
 42
2.5
  3
txt
  4

  0
STYLE
  5
13F
330
5
100
AcDbSymbolTableRecord
100
AcDbTextStyleTableRecord
  2
STANDARD1
 70
0
 40
0.0
 41
1.0
 50
0.0
 71
0
 42
5.0
  3
monotxt_.ttf
  4
BIGFONT
  0
ENDTAB
  0
TABLE
  2
VIEW
  5
7
330
0
100
AcDbSymbolTable
 70
0
  0
ENDTAB
  0
TABLE
  2
UCS
  5
6
330
0
100
AcDbSymbolTable
 70
0
  0
ENDTAB
  0
TABLE
  2
APPID
  5
3
330
0
100
AcDbSymbolTable
 70
3
  0
APPID
  5
2A
330
3
100
AcDbSymbolTableRecord
100
AcDbRegAppTableRecord
  2
ACAD
 70
0
  0
APPID
  5
142
330
3
100
AcDbSymbolTableRecord
100
AcDbRegAppTableRecord
  2
HATCHBACKGROUNDCOLOR
 70
0
  0
APPID
  5
143
330
3
100
AcDbSymbolTableRecord
100
AcDbRegAppTableRecord
  2
EZDXF
 70
0
  0
ENDTAB
  0
TABLE
  2
DIMSTYLE
  5
4
330
0
100
AcDbSymbolTable
 70
1
100
AcDbDimStyleTable
  0
DIMSTYLE
105
2B
330
4
100
AcDbSymbolTableRecord
100
AcDbDimStyleTableRecord
  2
Standard
 70
0
 40
1.0
 41
2.5
 42
0.625
 43
3.75
 44
1.25
 45
0.0
 46
0.0
 47
0.0
 48
0.0
 49
2.5
140
2.5
141
2.5
142
0.0
143
0.03937007874
144
1.0
145
0.0
146
1.0
147
0.625
148
0.0
 69
0
 70
0
 71
0
 72
0
 73
0
 74
0
 75
0
 76
0
 77
1
 78
8
 79
3
170
0
171
3
172
1
173
0
174
0
175
0
176
0
177
0
178
0
179
2
271
2
272
2
273
2
274
3
275
0
276
0
277
2
278
44
279
0
280
0
281
0
282
0
283
0
284
8
285
0
286
0
288
0
289
3
290
0
371
-2
372
-2
  0
ENDTAB
  0
TABLE
  2
BLOCK_RECORD
  5
9
330
0
100
AcDbSymbolTable
 70
3
  0
BLOCK_RECORD
  5
17
330
9
100
AcDbSymbolTableRecord
100
AcDbBlockTableRecord
  2
*Model_Space
340
1A
 70
0
280
1
281
0
  0
BLOCK_RECORD
  5
1B
330
9
100
AcDbSymbolTableRecord
100
AcDbBlockTableRecord
  2
*Paper_Space
340
1E
 70
0
280
1
281
0
  0
BLOCK_RECORD
  5
2F
330
9
100
AcDbSymbolTableRecord
100
AcDbBlockTableRecord
  2
ac3200a
340
0
 70
0
280
1
281
0
  0
ENDTAB
  0
ENDSEC
  0
SECTION
  2
BLOCKS
  0
BLOCK
  5
18
330
17
100
AcDbEntity
  8
0
100
AcDbBlockBegin
  2
*Model_Space
 70
0
 10
0.0
 20
0.0
 30
0.0
  3
*Model_Space
  1

  0
ENDBLK
  5
19
330
17
100
AcDbEntity
  8
0
100
AcDbBlockEnd
  0
BLOCK
  5
1C
330
1B
100
AcDbEntity
  8
0
100
AcDbBlockBegin
  2
*Paper_Space
 70
0
 10
0.0
 20
0.0
 30
0.0
  3
*Paper_Space
  1

  0
ENDBLK
  5
1D
330
1B
100
AcDbEntity
  8
0
100
AcDbBlockEnd
  0
BLOCK
  5
30
330
2F
100
AcDbEntity
  8
0
100
AcDbBlockBegin
  2
ac3200a
 70
0
 10
0.0
 20
0.0
 30
0.0
  3
ac3200a
  1

  0
LINE
  5
32
330
2F
100
AcDbEntity
  8
10
  6
Continuous
 62
4
100
AcDbLine
 10
-36.10737999994308
 20
0.0
 30
0.0
 11
0.0
 21
0.0
 31
0.0
  0
LINE
  5
33
330
2F
100
AcDbEntity
  8
10
  6
Continuous
 62
4
100
AcDbLine
 10
137.4916399999056
 20
24.25049999996554
 30
0.0
 11
-137.5083600000944
 21
24.25049999996554
 31
0.0
  0
LINE
  5
34
330
2F
100
AcDbEntity
  8
10
  6
Continuous
 62
4
100
AcDbLine
 10
137.4916399999056
 20
64.25049999996554
 30
0.0
 11
-137.5083600000944
 21
64.25049999996554
 31
0.0
  0
LINE
  5
35
330
2F
100
AcDbEntity
  8
10
  6
Continuous
 62
4
100
AcDbLine
 10
137.4916399999056
 20
32.65040000004229
 30
0.0
 11
-137.5083600000944
 21
32.65040000004229
 31
0.0
  0
LINE
  5
36
330
2F
100
AcDbEntity
  8
10
  6
Continuous
 62
4
100
AcDbLine
 10
181.5001000000629
 20
4.248299999977461
 30
0.0
 11
-226.4997799999546
 21
4.248299999977461
 31
0.0
  0
LINE
  5
37
330
2F
100
AcDbEntity
  8
10
  6
Continuous
 62
4
100
AcDbLine
 10
112.5001600000541
 20
0.0
 30
0.0
 11
-112.5
 21
0.0
 31
0.0
  0
LINE
  5
38
330
2F
100
AcDbEntity
  8
10
  6
Continuous
 62
4
100
AcDbLine
 10
170.5004900000058
 20
-345.7497999999905
 30
0.0
 11
-215.4998699999414
 21
-345.7497999999905
 31
0.0
  0
LINE
  5
39
330
2F
100
AcDbEntity
  8
10
  6
Continuous
 62
4
100
AcDbLine
 10
112.5004600000102
 20
-341.4997999999905
 30
0.0
 11
-112.5
 21
-341.4997999999905
 31
0.0
  0
LINE
  5
3A
330
2F
100
AcDbEntity
  8
17
  6
Continuous
100
AcDbLine
 10
24.5
 20
-161.7473585944535
 30
0.0
 11
-70.5
 21
-161.7473585944535
 31
0.0
  0
LINE
  5
3B
330
2F
100
AcDbEntity
  8
11
  6
Continuous
100
AcDbLine
 10
-117.5
 20
2.250017798505723
 30
0.0
 11
117.5
 21
2.250017798505723
 31
0.0
  0
LINE
  5
3C
330
2F
100
AcDbEntity
  8
11
  6
Continuous
100
AcDbLine
 10
-117.5
 20
-342.7499822014943
 30
0.0
 11
117.5
 21
-342.7499822014943
 31
0.0
  0
LINE
  5
3D
330
2F
100
AcDbEntity
  8
10
  6
Continuous
 62
4
100
AcDbLine
 10
-214.4999700000044
 20
-88.69810000003781
 30
0.0
 11
-214.4999700000044
 21
-196.2499000000534
 31
0.0
  0
LINE
  5
3E
330
2F
100
AcDbEntity
  8
10
  6
Continuous
 62
4
100
AcDbLine
 10
-231.9995099999942
 20
-224.0174999999581
 30
0.0
 11
-231.9995099999942
 21
-141.0823000000091
 31
0.0
  0
LINE
  5
3F
330
2F
100
AcDbEntity
  8
10
  6
Continuous
 62
4
100
AcDbLine
 10
-228.7995899999514
 20
-141.0825999999651
 30
0.0
 11
-228.7995899999514
 21
-224.0119999999879
 31
0.0
  0
LINE
  5
40
330
2F
100
AcDbEntity
  8
10
  6
Continuous
 62
4
100
AcDbLine
 10
-231.9995099999942
 20
-224.0174999999581
 30
0.0
 11
-231.9995099999942
 21
-141.0823000000091
 31
0.0
  0
LINE
  5
41
330
2F
100
AcDbEntity
  8
10
  6
Continuous
 62
4
100
AcDbLine
 10
-228.7995899999514
 20
-141.0825999999651
 30
0.0
 11
-228.7995899999514
 21
-224.0119999999879
 31
0.0
  0
LINE
  5
42
330
2F
100
AcDbEntity
  8
10
  6
Continuous
 62
4
100
AcDbLine
 10
-45.70738000003621
 20
-7.199999999953433
 30
0.0
 11
-45.70738000003621
 21
-184.5
 31
0.0
  0
LINE
  5
43
330
2F
100
AcDbEntity
  8
10
  6
Continuous
 62
4
100
AcDbLine
 10
-104.3073799998965
 20
-7.199999999953433
 30
0.0
 11
-104.3073799998965
 21
-184.5
 31
0.0
  0
LINE
  5
44
330
2F
100
AcDbEntity
  8
10
  6
Continuous
 62
4
100
AcDbLine
 10
-36.10737999994308
 20
0.0
 30
0.0
 11
-36.10737999994308
 21
-341.501500000013
 31
0.0
  0
LINE
  5
45
330
2F
100
AcDbEntity
  8
10
  6
Continuous
 62
4
100
AcDbLine
 10
-114.0000799999106
 20
-1.499599999981001
 30
0.0
 11
-113.9999299999326
 21
-339.998900000006
 31
0.0
  0
LINE
  5
46
330
2F
100
AcDbEntity
  8
17
  6
Continuous
 62
1
100
AcDbLine
 10
-105.5
 20
-141.7473585944535
 30
0.0
 11
-105.5
 21
-161.7473585944535
 31
0.0
  0
LINE
  5
47
330
2F
100
AcDbEntity
  8
17
  6
Continuous
 62
1
100
AcDbLine
 10
-200.5
 20
-141.7473585944535
 30
0.0
 11
-200.5
 21
-161.7473585944535
 31
0.0
  0
LINE
  5
48
330
2F
100
AcDbEntity
  8
17
  6
DASHDOT
 62
1
100
AcDbLine
 10
-165.5
 20
-165.180873433841
 30
0.0
 11
-165.5
 21
-137.0130344610807
 31
0.0
  0
LINE
  5
49
330
2F
100
AcDbEntity
  8
17
  6
DASHDOT
 62
1
100
AcDbLine
 10
-140.5
 20
-165.180873433841
 30
0.0
 11
-140.5
 21
-137.0130344610807
 31
0.0
  0
LINE
  5
4A
330
2F
100
AcDbEntity
  8
17
  6
DASHDOT
 62
1
100
AcDbLine
 10
-115.5
 20
-165.180873433841
 30
0.0
 11
-115.5
 21
-137.0130344610807
 31
0.0
  0
LINE
  5
4B
330
2F
100
AcDbEntity
  8
17
  6
DASHDOT
 62
1
100
AcDbLine
 10
-190.5
 20
-165.180873433841
 30
0.0
 11
-190.5
 21
-137.0130344610807
 31
0.0
  0
LINE
  5
4C
330
2F
100
AcDbEntity
  8
17
  6
Continuous
100
AcDbLine
 10
-70.5
 20
-141.7473585944535
 30
0.0
 11
-70.5
 21
-161.7473585944535
 31
0.0
  0
LINE
  5
4D
330
2F
100
AcDbEntity
  8
17
  6
DASHDOT
100
AcDbLine
 10
-35.5
 20
-165.180873433841
 30
0.0
 11
-35.5
 21
-137.0130344610807
 31
0.0
  0
LINE
  5
4E
330
2F
100
AcDbEntity
  8
17
  6
DASHDOT
100
AcDbLine
 10
-60.5
 20
-165.180873433841
 30
0.0
 11
-60.5
 21
-137.0130344610807
 31
0.0
  0
LINE
  5
4F
330
2F
100
AcDbEntity
  8
11
  6
Continuous
100
AcDbLine
 10
-117.5
 20
-342.7499822014943
 30
0.0
 11
-117.5
 21
2.250017798505723
 31
0.0
  0
LINE
  5
50
330
2F
100
AcDbEntity
  8
10
  6
Continuous
 62
4
100
AcDbLine
 10
-259.9998399999458
 20
-342.549800000037
 30
0.0
 11
-226.9995099999942
 21
-342.549800000037
 31
0.0
  0
LINE
  5
51
330
2F
100
AcDbEntity
  8
10
  6
Continuous
 62
4
100
AcDbLine
 10
-259.9998399999458
 20
-345.7497999999905
 30
0.0
 11
-226.9995099999942
 21
-345.7497999999905
 31
0.0
  0
LINE
  5
52
330
2F
100
AcDbEntity
  8
10
  6
Continuous
 62
4
100
AcDbLine
 10
-259.9998399999458
 20
-342.549800000037
 30
0.0
 11
-226.9995099999942
 21
-342.549800000037
 31
0.0
  0
LINE
  5
53
330
2F
100
AcDbEntity
  8
10
  6
Continuous
 62
4
100
AcDbLine
 10
-259.9998399999458
 20
-345.7497999999905
 30
0.0
 11
-226.9995099999942
 21
-345.7497999999905
 31
0.0
  0
LINE
  5
54
330
2F
100
AcDbEntity
  8
12
  6
Continuous
100
AcDbLine
 10
-260.0
 20
-345.2499822014943
 30
0.0
 11
-227.0009810922202
 21
-345.2499822014943
 31
0.0
  0
LINE
  5
55
330
2F
100
AcDbEntity
  8
10
  6
CENTERLINE
 62
4
100
AcDbLine
 10
-245.999599999981
 20
-356.8024000000442
 30
0.0
 11
-245.999599999981
 21
-331.2711000000127
 31
0.0
  0
LINE
  5
56
330
2F
100
AcDbEntity
  8
12
  6
DASHDOT
100
AcDbLine
 10
-246.0
 20
-356.5773675185628
 30
0.0
 11
-246.0
 21
-330.4605005633785
 31
0.0
  0
LINE
  5
57
330
2F
100
AcDbEntity
  8
10
  6
Continuous
 62
4
100
AcDbLine
 10
-259.9998399999458
 20
-342.549800000037
 30
0.0
 11
-259.9998399999458
 21
-345.7497999999905
 31
0.0
  0
LINE
  5
58
330
2F
100
AcDbEntity
  8
10
  6
Continuous
 62
4
100
AcDbLine
 10
-259.9998399999458
 20
-342.549800000037
 30
0.0
 11
-259.9998399999458
 21
-345.7497999999905
 31
0.0
  0
POINT
  5
59
330
2F
100
AcDbEntity
  8
10
  6
Continuous
 62
4
100
AcDbPoint
 10
-245.999599999981
 20
-342.549800000037
 30
0.0
  0
LINE
  5
5A
330
2F
100
AcDbEntity
  8
17
  6
Continuous
 62
1
100
AcDbLine
 10
-105.5
 20
-161.7473585944535
 30
0.0
 11
-200.5
 21
-161.7473585944535
 31
0.0
  0
LINE
  5
5B
330
2F
100
AcDbEntity
  8
17
  6
Continuous
100
AcDbLine
 10
-105.5
 20
-253.7498000001215
 30
0.0
 11
-200.5
 21
-253.7498000001215
 31
0.0
  0
LINE
  5
5C
330
2F
100
AcDbEntity
  8
10
  6
Continuous
 62
4
100
AcDbLine
 10
-214.4999700000044
 20
-302.9505000000354
 30
0.0
 11
-214.4999700000044
 21
-196.2499000000534
 31
0.0
  0
LINE
  5
5D
330
2F
100
AcDbEntity
  8
10
  6
Continuous
 62
4
100
AcDbLine
 10
-221.799619999947
 20
-340.5498000000371
 30
0.0
 11
-221.799619999947
 21
-198.25
 31
0.0
  0
LINE
  5
5E
330
2F
100
AcDbEntity
  8
10
  6
Continuous
 62
4
100
AcDbLine
 10
-224.9995399999898
 20
-340.5498000000371
 30
0.0
 11
-224.9995399999898
 21
-232.5498000000371
 31
0.0
  0
LINE
  5
5F
330
2F
100
AcDbEntity
  8
10
  6
Continuous
 62
4
100
AcDbLine
 10
-221.799619999947
 20
-340.5498000000371
 30
0.0
 11
-221.799619999947
 21
-198.25
 31
0.0
  0
LINE
  5
60
330
2F
100
AcDbEntity
  8
10
  6
Continuous
 62
4
100
AcDbLine
 10
-224.9995399999898
 20
-340.5498000000371
 30
0.0
 11
-224.9995399999898
 21
-232.5498000000371
 31
0.0
  0
LINE
  5
61
330
2F
100
AcDbEntity
  8
17
  6
Continuous
100
AcDbLine
 10
-200.5
 20
-253.7498000001215
 30
0.0
 11
-200.5
 21
-273.7498000001215
 31
0.0
  0
LINE
  5
62
330
2F
100
AcDbEntity
  8
17
  6
DASHDOT
100
AcDbLine
 10
-190.5
 20
-277.1833148395089
 30
0.0
 11
-190.5
 21
-249.0154758667486
 31
0.0
  0
LINE
  5
63
330
2F
100
AcDbEntity
  8
10
  6
Continuous
 62
4
100
AcDbLine
 10
-217.5
 20
-305.9503000000259
 30
0.0
 11
-217.5
 21
-328.9997999999905
 31
0.0
  0
LINE
  5
64
330
2F
100
AcDbEntity
  8
10
  6
Continuous
 62
4
100
AcDbLine
 10
-217.5
 20
-328.9997999999905
 30
0.0
 11
-217.5
 21
-343.749700000044
 31
0.0
  0
ARC
  5
65
330
2F
100
AcDbEntity
  8
10
  6
Continuous
 62
4
100
AcDbCircle
 10
-215.5000299999956
 20
-343.749700000044
 30
0.0
 40
2.0000005
100
AcDbArc
 50
180.0000199969796
 51
270.0
  0
ARC
  5
66
330
2F
100
AcDbEntity
  8
10
  6
Continuous
 62
4
100
AcDbCircle
 10
-226.9995099999942
 20
-340.5498000000371
 30
0.0
 40
5.200000999999996
100
AcDbArc
 50
270.0
 51
359.9999299972311
  0
ARC
  5
67
330
2F
100
AcDbEntity
  8
10
  6
Continuous
 62
4
100
AcDbCircle
 10
-226.9995099999942
 20
-340.5498000000371
 30
0.0
 40
2.0000005
100
AcDbArc
 50
270.0
 51
359.9999299972311
  0
ARC
  5
68
330
2F
100
AcDbEntity
  8
10
  6
Continuous
 62
4
100
AcDbCircle
 10
-226.9995099999942
 20
-340.5498000000371
 30
0.0
 40
5.200000999999996
100
AcDbArc
 50
270.0
 51
359.9999299972311
  0
ARC
  5
69
330
2F
100
AcDbEntity
  8
10
  6
Continuous
 62
4
100
AcDbCircle
 10
-226.9995099999942
 20
-340.5498000000371
 30
0.0
 40
2.0000005
100
AcDbArc
 50
270.0
 51
359.9999299972311
  0
LINE
  5
6A
330
2F
100
AcDbEntity
  8
10
  6
Continuous
 62
4
100
AcDbLine
 10
-217.4988899999298
 20
-305.9477999999653
 30
0.0
 11
-214.4988599999342
 21
-302.9479000000283
 31
0.0
  0
LINE
  5
6B
330
2F
100
AcDbEntity
  8
10
  6
Continuous
 62
4
100
AcDbLine
 10
-224.9993300000205
 20
-228.0180999999866
 30
0.0
 11
-224.9994900000747
 21
-198.2493999999715
 31
0.0
  0
LINE
  5
6C
330
2F
100
AcDbEntity
  8
10
  6
Continuous
 62
4
100
AcDbLine
 10
-224.9993300000205
 20
-228.0180999999866
 30
0.0
 11
-224.9994900000747
 21
-198.2493999999715
 31
0.0
  0
LINE
  5
6D
330
2F
100
AcDbEntity
  8
10
  6
Continuous
 62
4
100
AcDbLine
 10
-222.8833600000944
 20
-230.1341999999713
 30
0.0
 11
-228.6526500000618
 21
-224.3645000000252
 31
0.0
  0
LINE
  5
6E
330
2F
100
AcDbEntity
  8
10
  6
Continuous
 62
4
100
AcDbLine
 10
-225.1468499999027
 20
-232.4015000000363
 30
0.0
 11
-230.9163399999961
 21
-226.6321999999927
 31
0.0
  0
LINE
  5
6F
330
2F
100
AcDbEntity
  8
10
  6
Continuous
 62
4
100
AcDbLine
 10
-222.8833600000944
 20
-230.1341999999713
 30
0.0
 11
-228.6526500000618
 21
-224.3645000000252
 31
0.0
  0
LINE
  5
70
330
2F
100
AcDbEntity
  8
10
  6
Continuous
 62
4
100
AcDbLine
 10
-225.1468499999027
 20
-232.4015000000363
 30
0.0
 11
-230.9163399999961
 21
-226.6321999999927
 31
0.0
  0
ARC
  5
71
330
2F
100
AcDbEntity
  8
10
  6
Continuous
 62
4
100
AcDbCircle
 10
-228.2990999999456
 20
-224.0174999999581
 30
0.0
 40
3.700000599999996
100
AcDbArc
 50
180.0000199969796
 51
225.0021699949014
  0
ARC
  5
72
330
2F
100
AcDbEntity
  8
10
  6
Continuous
 62
4
100
AcDbCircle
 10
-228.2990999999456
 20
-224.0119999999879
 30
0.0
 40
0.50000023
100
AcDbArc
 50
180.0000199969796
 51
225.0135899972689
  0
ARC
  5
73
330
2F
100
AcDbEntity
  8
10
  6
Continuous
 62
4
100
AcDbCircle
 10
-228.2990999999456
 20
-224.0174999999581
 30
0.0
 40
3.700000599999996
100
AcDbArc
 50
180.0000199969796
 51
225.0021699949014
  0
ARC
  5
74
330
2F
100
AcDbEntity
  8
10
  6
Continuous
 62
4
100
AcDbCircle
 10
-228.2990999999456
 20
-224.0119999999879
 30
0.0
 40
0.50000023
100
AcDbArc
 50
180.0000199969796
 51
225.0135899972689
  0
ARC
  5
75
330
2F
100
AcDbEntity
  8
10
  6
Continuous
 62
4
100
AcDbCircle
 10
-225.4992599999532
 20
-232.7515999999596
 30
0.0
 40
3.700000599999996
100
AcDbArc
 50
0.0
 51
44.99966299838876
  0
ARC
  5
76
330
2F
100
AcDbEntity
  8
10
  6
Continuous
 62
4
100
AcDbCircle
 10
-225.4995699999854
 20
-232.7567999999737
 30
0.0
 40
0.50000023
100
AcDbArc
 50
0.0
 51
44.99258000894733
  0
ARC
  5
77
330
2F
100
AcDbEntity
  8
10
  6
Continuous
 62
4
100
AcDbCircle
 10
-225.4992599999532
 20
-232.7515999999596
 30
0.0
 40
3.700000599999996
100
AcDbArc
 50
0.0
 51
44.99966299838876
  0
ARC
  5
78
330
2F
100
AcDbEntity
  8
10
  6
Continuous
 62
4
100
AcDbCircle
 10
-225.4995699999854
 20
-232.7567999999737
 30
0.0
 40
0.50000023
100
AcDbArc
 50
0.0
 51
44.99258000894733
  0
LINE
  5
79
330
2F
100
AcDbEntity
  8
10
  6
Continuous
 62
4
100
AcDbLine
 10
-226.0000599999912
 20
-176.7499000000534
 30
0.0
 11
-226.0000599999912
 21
-196.2499000000534
 31
0.0
  0
ARC
  5
7A
330
2F
100
AcDbEntity
  8
10
  6
Continuous
 62
4
100
AcDbCircle
 10
-224.0000899999868
 20
-196.2499000000534
 30
0.0
 40
2.0000005
100
AcDbArc
 50
180.0000199969796
 51
270.0
  0
LINE
  5
7B
330
2F
100
AcDbEntity
  8
10
  6
Continuous
 62
4
100
AcDbLine
 10
-214.4999700000044
 20
-198.25
 30
0.0
 11
-224.0000899999868
 21
-198.25
 31
0.0
  0
LINE
  5
7C
330
2F
100
AcDbEntity
  8
10
  6
Continuous
 62
4
100
AcDbLine
 10
-217.5
 20
-174.2499000000534
 30
0.0
 11
-217.5
 21
-159.7499000000534
 31
0.0
  0
LINE
  5
7D
330
2F
100
AcDbEntity
  8
10
  6
Continuous
 62
4
100
AcDbLine
 10
-214.4999700000044
 20
-159.2499000000534
 30
0.0
 11
-216.9999700000044
 21
-159.2499000000534
 31
0.0
  0
ARC
  5
7E
330
2F
100
AcDbEntity
  8
10
  6
Continuous
 62
4
100
AcDbCircle
 10
-216.9999700000044
 20
-159.7499000000534
 30
0.0
 40
0.50000023
100
AcDbArc
 50
90.0
 51
180.0000199969796
  0
LINE
  5
7F
330
2F
100
AcDbEntity
  8
10
  6
Continuous
 62
4
100
AcDbLine
 10
-224.0000899999868
 20
-174.7499000000534
 30
0.0
 11
-218.0000299999956
 21
-174.7499000000534
 31
0.0
  0
ARC
  5
80
330
2F
100
AcDbEntity
  8
10
  6
Continuous
 62
4
100
AcDbCircle
 10
-224.0000899999868
 20
-176.7499000000534
 30
0.0
 40
2.0000005
100
AcDbArc
 50
90.0
 51
180.0000199969796
  0
ARC
  5
81
330
2F
100
AcDbEntity
  8
10
  6
Continuous
 62
4
100
AcDbCircle
 10
-218.0000299999956
 20
-174.2499000000534
 30
0.0
 40
0.50000023
100
AcDbArc
 50
270.0
 51
359.9999299972311
  0
LINE
  5
82
330
2F
100
AcDbEntity
  8
17
  6
Continuous
100
AcDbLine
 10
-105.5
 20
-253.7498000001215
 30
0.0
 11
-105.5
 21
-273.7498000001215
 31
0.0
  0
LINE
  5
83
330
2F
100
AcDbEntity
  8
17
  6
DASHDOT
100
AcDbLine
 10
-115.5
 20
-277.1833148395089
 30
0.0
 11
-115.5
 21
-249.0154758667486
 31
0.0
  0
ARC
  5
84
330
2F
100
AcDbEntity
  8
10
  6
Continuous
 62
4
100
AcDbCircle
 10
-112.5
 20
-339.999700000044
 30
0.0
 40
1.500000399999999
100
AcDbArc
 50
180.0000199969796
 51
270.0
  0
LINE
  5
85
330
2F
100
AcDbEntity
  8
10
  6
Continuous
 62
4
100
AcDbLine
 10
-45.70738000003621
 20
-184.5
 30
0.0
 11
-104.3073799998965
 21
-184.5
 31
0.0
  0
LINE
  5
86
330
2F
100
AcDbEntity
  8
10
  6
Continuous
 62
4
100
AcDbLine
 10
-137.5083600000944
 20
31.90989999996964
 30
0.0
 11
-137.5083600000944
 21
64.25049999996554
 31
0.0
  0
LINE
  5
87
330
2F
100
AcDbEntity
  8
26
  6
Continuous
 62
1
100
AcDbLine
 10
-200.5
 20
-141.7473585944535
 30
0.0
 11
-105.5
 21
-141.7473585944535
 31
0.0
  0
LINE
  5
88
330
2F
100
AcDbEntity
  8
10
  6
Continuous
 62
4
100
AcDbLine
 10
-228.5000599999912
 20
-64.44949999998789
 30
0.0
 11
-228.5000599999912
 21
2.248400000040419
 31
0.0
  0
LINE
  5
89
330
2F
100
AcDbEntity
  8
10
  6
Continuous
 62
4
100
AcDbLine
 10
-224.9998399999459
 20
-132.3427000000374
 30
0.0
 11
-224.9998399999459
 21
-70.50919999997132
 31
0.0
  0
LINE
  5
8A
330
2F
100
AcDbEntity
  8
10
  6
Continuous
 62
4
100
AcDbLine
 10
-221.799619999947
 20
-132.3429000000469
 30
0.0
 11
-221.799619999947
 21
-76.05209999997167
 31
0.0
  0
LINE
  5
8B
330
2F
100
AcDbEntity
  8
10
  6
Continuous
 62
4
100
AcDbLine
 10
-224.9998399999459
 20
-132.3427000000374
 30
0.0
 11
-224.9998399999459
 21
-70.50919999997132
 31
0.0
  0
LINE
  5
8C
330
2F
100
AcDbEntity
  8
10
  6
Continuous
 62
4
100
AcDbLine
 10
-221.799619999947
 20
-132.3429000000469
 30
0.0
 11
-221.799619999947
 21
-76.05209999997167
 31
0.0
  0
LINE
  5
8D
330
2F
100
AcDbEntity
  8
10
  6
Continuous
 62
4
100
AcDbLine
 10
-222.8831299999729
 20
-134.9581000000471
 30
0.0
 11
-228.6530800000765
 21
-140.7280999999493
 31
0.0
  0
LINE
  5
8E
330
2F
100
AcDbEntity
  8
10
  6
Continuous
 62
4
100
AcDbLine
 10
-225.1461600000039
 20
-132.6953000000212
 30
0.0
 11
-230.9157100000884
 21
-138.4649999999674
 31
0.0
  0
LINE
  5
8F
330
2F
100
AcDbEntity
  8
10
  6
Continuous
 62
4
100
AcDbLine
 10
-222.8831299999729
 20
-134.9581000000471
 30
0.0
 11
-228.6530800000765
 21
-140.7280999999493
 31
0.0
  0
ARC
  5
90
330
2F
100
AcDbEntity
  8
10
  6
Continuous
 62
4
100
AcDbCircle
 10
-228.2990999999456
 20
-141.0823000000091
 30
0.0
 40
3.700000599999996
100
AcDbArc
 50
134.9976500010251
 51
180.0000199969796
  0
ARC
  5
91
330
2F
100
AcDbEntity
  8
10
  6
Continuous
 62
4
100
AcDbCircle
 10
-228.2990999999456
 20
-141.0825999999651
 30
0.0
 40
0.50000023
100
AcDbArc
 50
134.9839400021865
 51
180.0000199969796
  0
ARC
  5
92
330
2F
100
AcDbEntity
  8
10
  6
Continuous
 62
4
100
AcDbCircle
 10
-228.2990999999456
 20
-141.0823000000091
 30
0.0
 40
3.700000599999996
100
AcDbArc
 50
134.9976500010251
 51
180.0000199969796
  0
ARC
  5
93
330
2F
100
AcDbEntity
  8
10
  6
Continuous
 62
4
100
AcDbCircle
 10
-228.2990999999456
 20
-141.0825999999651
 30
0.0
 40
0.50000023
100
AcDbArc
 50
134.9839400021865
 51
180.0000199969796
  0
ARC
  5
94
330
2F
100
AcDbEntity
  8
10
  6
Continuous
 62
4
100
AcDbCircle
 10
-225.4995699999854
 20
-132.3427000000374
 30
0.0
 40
0.50000023
100
AcDbArc
 50
315.0111699917081
 51
359.9999299972311
  0
ARC
  5
95
330
2F
100
AcDbEntity
  8
10
  6
Continuous
 62
4
100
AcDbCircle
 10
-225.4992599999532
 20
-132.3429000000469
 30
0.0
 40
3.700000599999996
100
AcDbArc
 50
315.0013300042396
 51
359.9999299972311
  0
ARC
  5
96
330
2F
100
AcDbEntity
  8
10
  6
Continuous
 62
4
100
AcDbCircle
 10
-225.4995699999854
 20
-132.3427000000374
 30
0.0
 40
0.50000023
100
AcDbArc
 50
315.0111699917081
 51
359.9999299972311
  0
ARC
  5
97
330
2F
100
AcDbEntity
  8
10
  6
Continuous
 62
4
100
AcDbCircle
 10
-225.4992599999532
 20
-132.3429000000469
 30
0.0
 40
3.700000599999996
100
AcDbArc
 50
315.0013300042396
 51
359.9999299972311
  0
LINE
  5
98
330
2F
100
AcDbEntity
  8
10
  6
Continuous
 62
4
100
AcDbLine
 10
-228.4978700000793
 20
-64.45010000001639
 30
0.0
 11
-214.4982799999416
 21
-88.6983000000473
 31
0.0
  0
ARC
  5
99
330
2F
100
AcDbEntity
  8
10
  6
Continuous
 62
4
100
AcDbCircle
 10
-226.5000899999868
 20
2.248400000040419
 30
0.0
 40
2.0000005
100
AcDbArc
 50
90.0
 51
180.0000199969796
  0
LINE
  5
9A
330
2F
100
AcDbEntity
  8
10
  6
Continuous
 62
4
100
AcDbLine
 10
-137.5083600000944
 20
4.248299999977461
 30
0.0
 11
-137.5083600000944
 21
31.90989999996964
 31
0.0
  0
LINE
  5
9B
330
2F
100
AcDbEntity
  8
10
  6
Continuous
 62
4
100
AcDbLine
 10
-45.70738000003621
 20
-7.199999999953433
 30
0.0
 11
-104.3073799998965
 21
-7.199999999953433
 31
0.0
  0
ARC
  5
9C
330
2F
100
AcDbEntity
  8
10
  6
Continuous
 62
4
100
AcDbCircle
 10
-112.501500000013
 20
-1.518700000015087
 30
0.0
 40
1.500000399999999
100
AcDbArc
 50
90.0
 51
180.0000199969796
  0
ARC
  5
9D
330
2F
100
AcDbEntity
  8
10
  6
Continuous
 62
4
100
AcDbCircle
 10
-112.5
 20
-1.5
 30
0.0
 40
1.500000399999999
100
AcDbArc
 50
90.0
 51
180.0000199969796
  0
LINE
  5
9E
330
2F
100
AcDbEntity
  8
10
  6
Continuous
 62
4
100
AcDbLine
 10
169.4999700000044
 20
-88.6988999999594
 30
0.0
 11
169.4999700000044
 21
-196.2499000000534
 31
0.0
  0
LINE
  5
9F
330
2F
100
AcDbEntity
  8
10
  6
Continuous
 62
4
100
AcDbLine
 10
183.7998999999836
 20
-141.0825999999651
 30
0.0
 11
183.7998999999836
 21
-224.0119999999879
 31
0.0
  0
LINE
  5
A0
330
2F
100
AcDbEntity
  8
10
  6
Continuous
 62
4
100
AcDbLine
 10
186.9998200000263
 20
-224.0174999999581
 30
0.0
 11
186.9998200000263
 21
-141.0823000000091
 31
0.0
  0
LINE
  5
A1
330
2F
100
AcDbEntity
  8
10
  6
Continuous
 62
4
100
AcDbLine
 10
183.7998999999836
 20
-141.0825999999651
 30
0.0
 11
183.7998999999836
 21
-224.0119999999879
 31
0.0
  0
LINE
  5
A2
330
2F
100
AcDbEntity
  8
10
  6
Continuous
 62
4
100
AcDbLine
 10
186.9998200000263
 20
-224.0174999999581
 30
0.0
 11
186.9998200000263
 21
-141.0823000000091
 31
0.0
  0
LINE
  5
A3
330
2F
100
AcDbEntity
  8
10
  6
Continuous
 62
4
100
AcDbLine
 10
114.0000799999106
 20
-1.499700000043958
 30
0.0
 11
114.0002399999648
 21
-339.9986999999965
 31
0.0
  0
LINE
  5
A4
330
2F
100
AcDbEntity
  8
10
  6
Continuous
 62
4
100
AcDbLine
 10
84.40002999990246
 20
-86.2506000000285
 30
0.0
 11
84.40002999990246
 21
-306.7499000000534
 31
0.0
  0
LINE
  5
A5
330
2F
100
AcDbEntity
  8
10
  6
Continuous
 62
4
100
AcDbLine
 10
109.3997200001031
 20
-86.250400000019
 30
0.0
 11
109.3995600000489
 21
-306.749199999962
 31
0.0
  0
LINE
  5
A6
330
2F
100
AcDbEntity
  8
17
  6
Continuous
100
AcDbLine
 10
24.5
 20
-141.7473585944535
 30
0.0
 11
24.5
 21
-161.7473585944535
 31
0.0
  0
LINE
  5
A7
330
2F
100
AcDbEntity
  8
17
  6
DASHDOT
100
AcDbLine
 10
-10.5
 20
-165.180873433841
 30
0.0
 11
-10.5
 21
-137.0130344610807
 31
0.0
  0
LINE
  5
A8
330
2F
100
AcDbEntity
  8
17
  6
DASHDOT
100
AcDbLine
 10
14.5
 20
-165.180873433841
 30
0.0
 11
14.5
 21
-137.0130344610807
 31
0.0
  0
LINE
  5
A9
330
2F
100
AcDbEntity
  8
17
  6
Continuous
 62
5
100
AcDbLine
 10
59.5
 20
-141.7473585944535
 30
0.0
 11
59.5
 21
-161.7473585944535
 31
0.0
  0
LINE
  5
AA
330
2F
100
AcDbEntity
  8
17
  6
Continuous
100
AcDbLine
 10
154.5
 20
-141.7473585944535
 30
0.0
 11
154.5
 21
-161.7473585944535
 31
0.0
  0
LINE
  5
AB
330
2F
100
AcDbEntity
  8
17
  6
DASHDOT
 62
5
100
AcDbLine
 10
94.50000000000001
 20
-165.180873433841
 30
0.0
 11
94.50000000000001
 21
-137.0130344610807
 31
0.0
  0
LINE
  5
AC
330
2F
100
AcDbEntity
  8
17
  6
DASHDOT
 62
5
100
AcDbLine
 10
119.5
 20
-165.180873433841
 30
0.0
 11
119.5
 21
-137.0130344610807
 31
0.0
  0
LINE
  5
AD
330
2F
100
AcDbEntity
  8
17
  6
DASHDOT
 62
5
100
AcDbLine
 10
144.5
 20
-165.180873433841
 30
0.0
 11
144.5
 21
-137.0130344610807
 31
0.0
  0
LINE
  5
AE
330
2F
100
AcDbEntity
  8
17
  6
DASHDOT
 62
5
100
AcDbLine
 10
69.5
 20
-165.180873433841
 30
0.0
 11
69.5
 21
-137.0130344610807
 31
0.0
  0
LINE
  5
AF
330
2F
100
AcDbEntity
  8
11
  6
Continuous
100
AcDbLine
 10
117.5
 20
-342.7499822014943
 30
0.0
 11
117.5
 21
2.250017798505723
 31
0.0
  0
LINE
  5
B0
330
2F
100
AcDbEntity
  8
10
  6
Continuous
 62
4
100
AcDbLine
 10
215.0001600000542
 20
-345.7497999999905
 30
0.0
 11
181.9998200000263
 21
-345.7497999999905
 31
0.0
  0
LINE
  5
B1
330
2F
100
AcDbEntity
  8
10
  6
Continuous
 62
4
100
AcDbLine
 10
215.0001600000542
 20
-342.549800000037
 30
0.0
 11
181.9998200000263
 21
-342.549800000037
 31
0.0
  0
LINE
  5
B2
330
2F
100
AcDbEntity
  8
10
  6
Continuous
 62
4
100
AcDbLine
 10
215.0001600000542
 20
-345.7497999999905
 30
0.0
 11
181.9998200000263
 21
-345.7497999999905
 31
0.0
  0
LINE
  5
B3
330
2F
100
AcDbEntity
  8
10
  6
Continuous
 62
4
100
AcDbLine
 10
215.0001600000542
 20
-342.549800000037
 30
0.0
 11
181.9998200000263
 21
-342.549800000037
 31
0.0
  0
LINE
  5
B4
330
2F
100
AcDbEntity
  8
12
  6
Continuous
100
AcDbLine
 10
215.0
 20
-345.2499822014943
 30
0.0
 11
181.997977018822
 21
-345.2499822014943
 31
0.0
  0
LINE
  5
B5
330
2F
100
AcDbEntity
  8
10
  6
Continuous
 62
4
100
AcDbLine
 10
108.4018000001087
 20
-314.5498999999836
 30
0.0
 11
-13.69964000000618
 21
-314.5498999999836
 31
0.0
  0
LINE
  5
B6
330
2F
100
AcDbEntity
  8
10
  6
Continuous
 62
4
100
AcDbLine
 10
108.4014900000766
 20
-335.9492999999784
 30
0.0
 11
-13.69949000002816
 21
-335.9492999999784
 31
0.0
  0
LINE
  5
B7
330
2F
100
AcDbEntity
  8
17
  6
Continuous
 62
5
100
AcDbLine
 10
154.5
 20
-161.7473585944535
 30
0.0
 11
59.5
 21
-161.7473585944535
 31
0.0
  0
LINE
  5
B8
330
2F
100
AcDbEntity
  8
10
  6
Continuous
 62
4
100
AcDbLine
 10
-14.39971000002697
 20
-335.2493999999715
 30
0.0
 11
-14.39971000002697
 21
-315.2497999999905
 31
0.0
  0
ARC
  5
B9
330
2F
100
AcDbEntity
  8
10
  6
Continuous
 62
4
100
AcDbCircle
 10
-13.69964000000618
 20
-335.2493999999715
 30
0.0
 40
0.6999999299999998
100
AcDbArc
 50
180.0000199969796
 51
270.0
  0
ARC
  5
BA
330
2F
100
AcDbEntity
  8
10
  6
Continuous
 62
4
100
AcDbCircle
 10
-13.69964000000618
 20
-315.2497999999905
 30
0.0
 40
0.6999999299999998
100
AcDbArc
 50
90.0
 51
180.0000199969796
  0
LINE
  5
BB
330
2F
100
AcDbEntity
  8
10
  6
Continuous
 62
4
100
AcDbLine
 10
51.30062999995425
 20
-204.0459000000264
 30
0.0
 11
26.30077999993228
 21
-204.0453999999445
 31
0.0
  0
LINE
  5
BC
330
2F
100
AcDbEntity
  8
10
  6
Continuous
 62
4
100
AcDbLine
 10
26.30126999993809
 20
-192.0455999999539
 30
0.0
 11
51.30065999994986
 21
-192.0459000000264
 31
0.0
  0
LINE
  5
BD
330
2F
100
AcDbEntity
  8
10
  6
Continuous
 62
4
100
AcDbLine
 10
-14.69833000004291
 20
-192.0448999999789
 30
0.0
 11
10.30105999996886
 21
-192.0452000000514
 31
0.0
  0
LINE
  5
BE
330
2F
100
AcDbEntity
  8
10
  6
Continuous
 62
4
100
AcDbLine
 10
-14.69848000002093
 20
-204.0450000000419
 30
0.0
 11
10.30090999999083
 21
-204.0452999999979
 31
0.0
  0
ARC
  5
BF
330
2F
100
AcDbEntity
  8
10
  6
Continuous
 62
4
100
AcDbCircle
 10
-14.69923999998718
 20
-192.5455000000074
 30
0.0
 40
0.50000023
100
AcDbArc
 50
89.97200600166538
 51
180.0000199969796
  0
ARC
  5
C0
330
2F
100
AcDbEntity
  8
10
  6
Continuous
 62
4
100
AcDbCircle
 10
-14.69923999998718
 20
-203.545599999954
 30
0.0
 40
0.50000023
100
AcDbArc
 50
180.0000199969796
 51
270.0
  0
LINE
  5
C1
330
2F
100
AcDbEntity
  8
10
  6
Continuous
 62
4
100
AcDbLine
 10
-15.19972999999299
 20
-192.5455000000074
 30
0.0
 11
-15.19972999999299
 21
-203.545599999954
 31
0.0
  0
ARC
  5
C2
330
2F
100
AcDbEntity
  8
10
  6
Continuous
 62
4
100
AcDbCircle
 10
10.30059999995865
 20
-192.5457999999635
 30
0.0
 40
0.50000023
100
AcDbArc
 50
0.0
 51
89.97200600166538
  0
ARC
  5
C3
330
2F
100
AcDbEntity
  8
10
  6
Continuous
 62
4
100
AcDbCircle
 10
10.30059999995865
 20
-203.5459000000265
 30
0.0
 40
0.50000023
100
AcDbArc
 50
270.0
 51
359.9999299972311
  0
LINE
  5
C4
330
2F
100
AcDbEntity
  8
10
  6
Continuous
 62
4
100
AcDbLine
 10
10.80032999999821
 20
-192.5457999999635
 30
0.0
 11
10.80032999999821
 21
-203.5459000000265
 31
0.0
  0
ARC
  5
C5
330
2F
100
AcDbEntity
  8
10
  6
Continuous
 62
4
100
AcDbCircle
 10
26.30050999997184
 20
-192.5461000000359
 30
0.0
 40
0.50000023
100
AcDbArc
 50
89.97200600166538
 51
180.0000199969796
  0
ARC
  5
C6
330
2F
100
AcDbEntity
  8
10
  6
Continuous
 62
4
100
AcDbCircle
 10
26.30050999997184
 20
-203.5461999999825
 30
0.0
 40
0.50000023
100
AcDbArc
 50
180.0000199969796
 51
270.0
  0
LINE
  5
C7
330
2F
100
AcDbEntity
  8
10
  6
Continuous
 62
4
100
AcDbLine
 10
25.80001999996603
 20
-192.5461000000359
 30
0.0
 11
25.80001999996603
 21
-203.5461999999825
 31
0.0
  0
ARC
  5
C8
330
2F
100
AcDbEntity
  8
10
  6
Continuous
 62
4
100
AcDbCircle
 10
51.30035999999382
 20
-192.546399999992
 30
0.0
 40
0.50000023
100
AcDbArc
 50
0.0
 51
89.97200600166538
  0
ARC
  5
C9
330
2F
100
AcDbEntity
  8
10
  6
Continuous
 62
4
100
AcDbCircle
 10
51.30035999999382
 20
-203.546500000055
 30
0.0
 40
0.50000023
100
AcDbArc
 50
270.0
 51
359.9999299972311
  0
LINE
  5
CA
330
2F
100
AcDbEntity
  8
10
  6
Continuous
 62
4
100
AcDbLine
 10
51.80007999995723
 20
-192.546399999992
 30
0.0
 11
51.80007999995723
 21
-203.546500000055
 31
0.0
  0
LINE
  5
CB
330
2F
100
AcDbEntity
  8
10
  6
Continuous
 62
4
100
AcDbLine
 10
169.4999700000044
 20
-302.9494000000414
 30
0.0
 11
169.4999700000044
 21
-196.2499000000534
 31
0.0
  0
LINE
  5
CC
330
2F
100
AcDbEntity
  8
10
  6
Continuous
 62
4
100
AcDbLine
 10
179.999850000022
 20
-340.5498000000371
 30
0.0
 11
179.999850000022
 21
-232.5498000000371
 31
0.0
  0
LINE
  5
CD
330
2F
100
AcDbEntity
  8
10
  6
Continuous
 62
4
100
AcDbLine
 10
176.7999299999792
 20
-340.5498000000371
 30
0.0
 11
176.7999299999792
 21
-198.25
 31
0.0
  0
LINE
  5
CE
330
2F
100
AcDbEntity
  8
10
  6
Continuous
 62
4
100
AcDbLine
 10
179.999850000022
 20
-340.5498000000371
 30
0.0
 11
179.999850000022
 21
-232.5498000000371
 31
0.0
  0
LINE
  5
CF
330
2F
100
AcDbEntity
  8
10
  6
Continuous
 62
4
100
AcDbLine
 10
176.7999299999792
 20
-340.5498000000371
 30
0.0
 11
176.7999299999792
 21
-198.25
 31
0.0
  0
LINE
  5
D0
330
2F
100
AcDbEntity
  8
10
  6
Continuous
 62
4
100
AcDbLine
 10
109.100989999948
 20
-335.2480000000214
 30
0.0
 11
109.1012999999802
 21
-315.2484000000404
 31
0.0
  0
ARC
  5
D1
330
2F
100
AcDbEntity
  8
10
  6
Continuous
 62
4
100
AcDbCircle
 10
108.4014900000766
 20
-335.2493999999715
 30
0.0
 40
0.6999999299999998
100
AcDbArc
 50
270.0
 51
359.9999299972311
  0
ARC
  5
D2
330
2F
100
AcDbEntity
  8
10
  6
Continuous
 62
4
100
AcDbCircle
 10
112.5004600000102
 20
-339.999700000044
 30
0.0
 40
1.500000399999999
100
AcDbArc
 50
270.0
 51
0.0004700023922663
  0
ARC
  5
D3
330
2F
100
AcDbEntity
  8
10
  6
Continuous
 62
4
100
AcDbCircle
 10
106.3999999999069
 20
-306.7499000000534
 30
0.0
 40
3.0000007
100
AcDbArc
 50
270.0
 51
359.9999299972311
  0
LINE
  5
D4
330
2F
100
AcDbEntity
  8
10
  6
Continuous
 62
4
100
AcDbLine
 10
87.39990999992006
 20
-309.7499000000535
 30
0.0
 11
106.3999999999069
 21
-309.7499000000535
 31
0.0
  0
ARC
  5
D5
330
2F
100
AcDbEntity
  8
10
  6
Continuous
 62
4
100
AcDbCircle
 10
87.39990999992006
 20
-306.7499000000534
 30
0.0
 40
3.0000007
100
AcDbArc
 50
179.9996900001251
 51
270.0
  0
ARC
  5
D6
330
2F
100
AcDbEntity
  8
10
  6
Continuous
 62
4
100
AcDbCircle
 10
108.4018000001087
 20
-315.2497999999905
 30
0.0
 40
0.6999999299999998
100
AcDbArc
 50
0.0
 51
90.0
  0
LINE
  5
D7
330
2F
100
AcDbEntity
  8
10
  6
Continuous
 62
4
100
AcDbLine
 10
172.5002299998887
 20
-305.9488999999594
 30
0.0
 11
172.5005300000775
 21
-328.998799999943
 31
0.0
  0
ARC
  5
D8
330
2F
100
AcDbEntity
  8
10
  6
Continuous
 62
4
100
AcDbCircle
 10
181.9998200000263
 20
-340.5498000000371
 30
0.0
 40
5.200000999999996
100
AcDbArc
 50
180.0000700027689
 51
270.0
  0
ARC
  5
D9
330
2F
100
AcDbEntity
  8
10
  6
Continuous
 62
4
100
AcDbCircle
 10
181.9998200000263
 20
-340.5498000000371
 30
0.0
 40
5.200000999999996
100
AcDbArc
 50
180.0000700027689
 51
270.0
  0
LINE
  5
DA
330
2F
100
AcDbEntity
  8
10
  6
Continuous
 62
4
100
AcDbLine
 10
172.5004600000102
 20
-329.4997999999905
 30
0.0
 11
172.5004600000102
 21
-343.749700000044
 31
0.0
  0
ARC
  5
DB
330
2F
100
AcDbEntity
  8
10
  6
Continuous
 62
4
100
AcDbCircle
 10
170.5004900000058
 20
-343.749700000044
 30
0.0
 40
2.0000005
100
AcDbArc
 50
270.0
 51
359.9999299972311
  0
ARC
  5
DC
330
2F
100
AcDbEntity
  8
10
  6
Continuous
 62
4
100
AcDbCircle
 10
181.9998200000263
 20
-340.5498000000371
 30
0.0
 40
2.0000005
100
AcDbArc
 50
180.0000700027689
 51
270.0
  0
ARC
  5
DD
330
2F
100
AcDbEntity
  8
10
  6
Continuous
 62
4
100
AcDbCircle
 10
181.9998200000263
 20
-340.5498000000371
 30
0.0
 40
2.0000005
100
AcDbArc
 50
180.0000700027689
 51
270.0
  0
LINE
  5
DE
330
2F
100
AcDbEntity
  8
10
  6
Continuous
 62
4
100
AcDbLine
 10
172.4987099999562
 20
-305.9470000000438
 30
0.0
 11
169.5002200000454
 21
-302.9481999999843
 31
0.0
  0
LINE
  5
DF
330
2F
100
AcDbEntity
  8
10
  6
Continuous
 62
4
100
AcDbLine
 10
84.40002999990246
 20
-243.6315000000177
 30
0.0
 11
109.4000299999025
 21
-243.6315000000177
 31
0.0
  0
LINE
  5
E0
330
2F
100
AcDbEntity
  8
10
  6
Continuous
 62
4
100
AcDbLine
 10
179.9986300000455
 20
-228.0182000000495
 30
0.0
 11
179.9990900000557
 21
-197.9819000000134
 31
0.0
  0
LINE
  5
E1
330
2F
100
AcDbEntity
  8
10
  6
Continuous
 62
4
100
AcDbLine
 10
179.9986300000455
 20
-228.0182000000495
 30
0.0
 11
179.9990900000557
 21
-197.9819000000134
 31
0.0
  0
ARC
  5
E2
330
2F
100
AcDbEntity
  8
10
  6
Continuous
 62
4
100
AcDbCircle
 10
180.4995800000615
 20
-232.7515999999596
 30
0.0
 40
3.700000599999996
100
AcDbArc
 50
135.0003300023584
 51
180.0000199969796
  0
ARC
  5
E3
330
2F
100
AcDbEntity
  8
10
  6
Continuous
 62
4
100
AcDbCircle
 10
180.4995800000615
 20
-232.7515999999596
 30
0.0
 40
3.700000599999996
100
AcDbArc
 50
135.0003300023584
 51
180.0000199969796
  0
ARC
  5
E4
330
2F
100
AcDbEntity
  8
10
  6
Continuous
 62
4
100
AcDbCircle
 10
183.2994099999778
 20
-224.0174999999581
 30
0.0
 40
3.700000599999996
100
AcDbArc
 50
314.9978300050987
 51
359.9999800030204
  0
ARC
  5
E5
330
2F
100
AcDbEntity
  8
10
  6
Continuous
 62
4
100
AcDbCircle
 10
183.2994099999778
 20
-224.0174999999581
 30
0.0
 40
3.700000599999996
100
AcDbArc
 50
314.9978300050987
 51
359.9999800030204
  0
LINE
  5
E6
330
2F
100
AcDbEntity
  8
10
  6
Continuous
 62
4
100
AcDbLine
 10
177.8815200000535
 20
-230.1350000000093
 30
0.0
 11
183.6511500000488
 21
-224.3652999999467
 31
0.0
  0
ARC
  5
E7
330
2F
100
AcDbEntity
  8
10
  6
Continuous
 62
4
100
AcDbCircle
 10
180.4998800000175
 20
-232.7567999999737
 30
0.0
 40
0.50000023
100
AcDbArc
 50
135.0074299945544
 51
180.0000199969796
  0
ARC
  5
E8
330
2F
100
AcDbEntity
  8
10
  6
Continuous
 62
4
100
AcDbCircle
 10
183.2994099999778
 20
-224.0119999999879
 30
0.0
 40
0.50000023
100
AcDbArc
 50
314.9864100027311
 51
359.9999800030204
  0
LINE
  5
E9
330
2F
100
AcDbEntity
  8
10
  6
Continuous
 62
4
100
AcDbLine
 10
177.8815200000535
 20
-230.1350000000093
 30
0.0
 11
183.6511500000488
 21
-224.3652999999467
 31
0.0
  0
ARC
  5
EA
330
2F
100
AcDbEntity
  8
10
  6
Continuous
 62
4
100
AcDbCircle
 10
180.4998800000175
 20
-232.7567999999737
 30
0.0
 40
0.50000023
100
AcDbArc
 50
135.0074299945544
 51
180.0000199969796
  0
ARC
  5
EB
330
2F
100
AcDbEntity
  8
10
  6
Continuous
 62
4
100
AcDbCircle
 10
183.2994099999778
 20
-224.0119999999879
 30
0.0
 40
0.50000023
100
AcDbArc
 50
314.9864100027311
 51
359.9999800030204
  0
LINE
  5
EC
330
2F
100
AcDbEntity
  8
10
  6
Continuous
 62
4
100
AcDbLine
 10
180.1439900000114
 20
-232.4024000000209
 30
0.0
 11
185.9136099999305
 21
-226.6328000000212
 31
0.0
  0
LINE
  5
ED
330
2F
100
AcDbEntity
  8
10
  6
Continuous
 62
4
100
AcDbLine
 10
180.1439900000114
 20
-232.4024000000209
 30
0.0
 11
185.9136099999305
 21
-226.6328000000212
 31
0.0
  0
LINE
  5
EE
330
2F
100
AcDbEntity
  8
10
  6
Continuous
 62
4
100
AcDbLine
 10
180.9992400000337
 20
-176.749599999981
 30
0.0
 11
180.9995500000659
 21
-196.2495000000344
 31
0.0
  0
LINE
  5
EF
330
2F
100
AcDbEntity
  8
10
  6
Continuous
 62
4
100
AcDbLine
 10
169.4999700000044
 20
-198.25
 30
0.0
 11
179.0001000000629
 21
-198.25
 31
0.0
  0
ARC
  5
F0
330
2F
100
AcDbEntity
  8
10
  6
Continuous
 62
4
100
AcDbCircle
 10
179.0001000000629
 20
-196.2499000000534
 30
0.0
 40
2.0000005
100
AcDbArc
 50
270.0
 51
0.000750000127615
  0
LINE
  5
F1
330
2F
100
AcDbEntity
  8
10
  6
Continuous
 62
4
100
AcDbLine
 10
179.000250000041
 20
-174.7499000000534
 30
0.0
 11
173.0000299999956
 21
-174.7499000000534
 31
0.0
  0
ARC
  5
F2
330
2F
100
AcDbEntity
  8
10
  6
Continuous
 62
4
100
AcDbCircle
 10
172.0
 20
-159.7499000000534
 30
0.0
 40
0.5
100
AcDbArc
 50
0.0
 51
90.0
  0
LINE
  5
F3
330
2F
100
AcDbEntity
  8
10
  6
Continuous
 62
4
100
AcDbLine
 10
172.5
 20
-174.2499000000534
 30
0.0
 11
172.5
 21
-159.7499000000534
 31
0.0
  0
LINE
  5
F4
330
2F
100
AcDbEntity
  8
10
  6
Continuous
 62
4
100
AcDbLine
 10
169.4999700000044
 20
-159.2499000000534
 30
0.0
 11
172.0
 21
-159.2499000000534
 31
0.0
  0
ARC
  5
F5
330
2F
100
AcDbEntity
  8
10
  6
Continuous
 62
4
100
AcDbCircle
 10
173.0000299999956
 20
-174.2499000000534
 30
0.0
 40
0.50000023
100
AcDbArc
 50
180.0000199969796
 51
270.0
  0
ARC
  5
F6
330
2F
100
AcDbEntity
  8
10
  6
Continuous
 62
4
100
AcDbCircle
 10
179.000250000041
 20
-176.7499000000534
 30
0.0
 40
2.0000005
100
AcDbArc
 50
0.0
 51
90.0
  0
LINE
  5
F7
330
2F
100
AcDbEntity
  8
10
  6
CENTERLINE
 62
4
100
AcDbLine
 10
200.9999100000132
 20
-356.8024000000442
 30
0.0
 11
200.9999100000132
 21
-331.2711000000127
 31
0.0
  0
LINE
  5
F8
330
2F
100
AcDbEntity
  8
12
  6
DASHDOT
100
AcDbLine
 10
201.0
 20
-356.5773675185628
 30
0.0
 11
201.0
 21
-330.4605005633785
 31
0.0
  0
LINE
  5
F9
330
2F
100
AcDbEntity
  8
10
  6
Continuous
 62
4
100
AcDbLine
 10
215.0001600000542
 20
-342.549800000037
 30
0.0
 11
215.0001600000542
 21
-345.7497999999905
 31
0.0
  0
LINE
  5
FA
330
2F
100
AcDbEntity
  8
10
  6
Continuous
 62
4
100
AcDbLine
 10
215.0001600000542
 20
-342.549800000037
 30
0.0
 11
215.0001600000542
 21
-345.7497999999905
 31
0.0
  0
TEXT
  5
FB
330
2F
100
AcDbEntity
  8
19
  6
Continuous
100
AcDbText
 10
-24.40554926916957
 20
-56.4547748498153
 30
0.0
 40
12.8
  1
AE2500-SW 3P FIX
 50
2.5045208121e-06
  7
STANDARD1
 41
0.63398439437151
100
AcDbText
  0
LINE
  5
FC
330
2F
100
AcDbEntity
  8
10
  6
Continuous
 62
4
100
AcDbLine
 10
137.4916399999056
 20
4.24800000002142
 30
0.0
 11
137.4916399999056
 21
64.25049999996554
 31
0.0
  0
LINE
  5
FD
330
2F
100
AcDbEntity
  8
10
  6
Continuous
 62
4
100
AcDbLine
 10
-5.799709999933838
 20
-151.6506999999983
 30
0.0
 11
-1.799619999947026
 21
-151.6506999999983
 31
0.0
  0
ARC
  5
FE
330
2F
100
AcDbEntity
  8
10
  6
Continuous
 62
4
100
AcDbCircle
 10
-5.799709999933838
 20
-149.1506999999983
 30
0.0
 40
2.500000599999998
100
AcDbArc
 50
180.0000199969796
 51
270.0
  0
ARC
  5
FF
330
2F
100
AcDbEntity
  8
10
  6
Continuous
 62
4
100
AcDbCircle
 10
-1.799619999947026
 20
-149.1506999999983
 30
0.0
 40
2.500000599999998
100
AcDbArc
 50
270.0
 51
359.9999299972311
  0
LINE
  5
100
330
2F
100
AcDbEntity
  8
10
  6
Continuous
 62
4
100
AcDbLine
 10
-8.299709999933839
 20
-136.3506000000052
 30
0.0
 11
-8.299709999933839
 21
-149.1506999999983
 31
0.0
  0
LINE
  5
101
330
2F
100
AcDbEntity
  8
10
  6
Continuous
 62
4
100
AcDbLine
 10
0.7003800000529737
 20
-136.3506000000052
 30
0.0
 11
0.7003800000529737
 21
-149.1506999999983
 31
0.0
  0
POINT
  5
102
330
2F
100
AcDbEntity
  8
10
  6
Continuous
 62
4
100
AcDbPoint
 10
0.0
 20
0.0
 30
0.0
  0
LINE
  5
103
330
2F
100
AcDbEntity
  8
10
  6
Continuous
 62
4
100
AcDbLine
 10
183.4998200000264
 20
-64.44999999995343
 30
0.0
 11
183.4999700000044
 21
2.248600000049918
 31
0.0
  0
LINE
  5
104
330
2F
100
AcDbEntity
  8
10
  6
Continuous
 62
4
100
AcDbLine
 10
176.7999299999792
 20
-132.3429000000469
 30
0.0
 11
176.7999299999792
 21
-76.0555999999633
 31
0.0
  0
LINE
  5
105
330
2F
100
AcDbEntity
  8
10
  6
Continuous
 62
4
100
AcDbLine
 10
180.0001600000541
 20
-132.3427000000374
 30
0.0
 11
180.0001600000541
 21
-70.51269999996293
 31
0.0
  0
LINE
  5
106
330
2F
100
AcDbEntity
  8
10
  6
Continuous
 62
4
100
AcDbLine
 10
176.7999299999792
 20
-132.3429000000469
 30
0.0
 11
176.7999299999792
 21
-76.0555999999633
 31
0.0
  0
LINE
  5
107
330
2F
100
AcDbEntity
  8
10
  6
Continuous
 62
4
100
AcDbLine
 10
180.0001600000541
 20
-132.3427000000374
 30
0.0
 11
180.0001600000541
 21
-70.51269999996293
 31
0.0
  0
ARC
  5
108
330
2F
100
AcDbEntity
  8
10
  6
Continuous
 62
4
100
AcDbCircle
 10
180.4995800000615
 20
-132.3429000000469
 30
0.0
 40
3.700000599999996
100
AcDbArc
 50
180.0000700027689
 51
224.9986699957604
  0
ARC
  5
109
330
2F
100
AcDbEntity
  8
10
  6
Continuous
 62
4
100
AcDbCircle
 10
180.4995800000615
 20
-132.3429000000469
 30
0.0
 40
3.700000599999996
100
AcDbArc
 50
180.0000700027689
 51
224.9986699957604
  0
ARC
  5
10A
330
2F
100
AcDbEntity
  8
10
  6
Continuous
 62
4
100
AcDbCircle
 10
183.2994099999778
 20
-141.0823000000091
 30
0.0
 40
3.700000599999996
100
AcDbArc
 50
0.0
 51
45.0023680019174
  0
ARC
  5
10B
330
2F
100
AcDbEntity
  8
10
  6
Continuous
 62
4
100
AcDbCircle
 10
183.2994099999778
 20
-141.0823000000091
 30
0.0
 40
3.700000599999996
100
AcDbArc
 50
0.0
 51
45.0023680019174
  0
LINE
  5
10C
330
2F
100
AcDbEntity
  8
10
  6
Continuous
 62
4
100
AcDbLine
 10
177.8810900000389
 20
-134.9590999999782
 30
0.0
 11
183.6503900000825
 21
-140.7284000000218
 31
0.0
  0
ARC
  5
10D
330
2F
100
AcDbEntity
  8
10
  6
Continuous
 62
4
100
AcDbCircle
 10
180.4998800000175
 20
-132.3427000000374
 30
0.0
 40
0.50000023
100
AcDbArc
 50
180.0000700027689
 51
224.98883999337
  0
ARC
  5
10E
330
2F
100
AcDbEntity
  8
10
  6
Continuous
 62
4
100
AcDbCircle
 10
183.2994099999778
 20
-141.0825999999651
 30
0.0
 40
0.50000023
100
AcDbArc
 50
0.0
 51
45.01608300508689
  0
LINE
  5
10F
330
2F
100
AcDbEntity
  8
10
  6
Continuous
 62
4
100
AcDbLine
 10
177.8810900000389
 20
-134.9590999999782
 30
0.0
 11
183.6503900000825
 21
-140.7284000000218
 31
0.0
  0
ARC
  5
110
330
2F
100
AcDbEntity
  8
10
  6
Continuous
 62
4
100
AcDbCircle
 10
180.4998800000175
 20
-132.3427000000374
 30
0.0
 40
0.50000023
100
AcDbArc
 50
180.0000700027689
 51
224.98883999337
  0
ARC
  5
111
330
2F
100
AcDbEntity
  8
10
  6
Continuous
 62
4
100
AcDbCircle
 10
183.2994099999778
 20
-141.0825999999651
 30
0.0
 40
0.50000023
100
AcDbArc
 50
0.0
 51
45.01608300508689
  0
LINE
  5
112
330
2F
100
AcDbEntity
  8
10
  6
Continuous
 62
4
100
AcDbLine
 10
180.1431700000539
 20
-132.6951000000117
 30
0.0
 11
185.9121600000653
 21
-138.4647000000113
 31
0.0
  0
LINE
  5
113
330
2F
100
AcDbEntity
  8
10
  6
Continuous
 62
4
100
AcDbLine
 10
180.1431700000539
 20
-132.6951000000117
 30
0.0
 11
185.9121600000653
 21
-138.4647000000113
 31
0.0
  0
LINE
  5
114
330
2F
100
AcDbEntity
  8
10
  6
Continuous
 62
4
100
AcDbLine
 10
183.498149999883
 20
-64.4488999999594
 30
0.0
 11
169.4980399999767
 21
-88.69770000001881
 31
0.0
  0
ARC
  5
115
330
2F
100
AcDbEntity
  8
10
  6
Continuous
 62
4
100
AcDbCircle
 10
112.5001600000541
 20
-1.5
 30
0.0
 40
1.500000399999999
100
AcDbArc
 50
0.0
 51
90.0
  0
ARC
  5
116
330
2F
100
AcDbEntity
  8
10
  6
Continuous
 62
4
100
AcDbCircle
 10
181.5001000000629
 20
2.248400000040419
 30
0.0
 40
2.0000005
100
AcDbArc
 50
359.9996000003766
 51
90.0
  0
LWPOLYLINE
  5
117
330
2F
100
AcDbEntity
  8
17
  6
Continuous
 62
1
100
AcDbPolyline
 90
4
 70
1
 10
-200.5
 20
-161.7473585944535
 10
-105.5
 20
-161.7473585944535
 10
-105.5
 20
-141.7473585944535
 10
-200.5
 20
-141.7473585944535
  0
LWPOLYLINE
  5
118
330
2F
100
AcDbEntity
  8
17
  6
Continuous
100
AcDbPolyline
 90
4
 70
1
 10
-70.5
 20
-161.7473585944535
 10
24.5
 20
-161.7473585944535
 10
24.5
 20
-141.7473585944535
 10
-70.5
 20
-141.7473585944535
  0
LWPOLYLINE
  5
119
330
2F
100
AcDbEntity
  8
17
  6
Continuous
 62
5
100
AcDbPolyline
 90
4
 70
1
 10
59.5
 20
-161.7473585944535
 10
154.5
 20
-161.7473585944535
 10
154.5
 20
-141.7473585944535
 10
59.5
 20
-141.7473585944535
  0
LINE
  5
11A
330
2F
100
AcDbEntity
  8
10
  6
Continuous
 62
4
100
AcDbLine
 10
-5.799709999933838
 20
-133.8506000000052
 30
0.0
 11
-1.799619999947026
 21
-133.8506000000052
 31
0.0
  0
ARC
  5
11B
330
2F
100
AcDbEntity
  8
10
  6
Continuous
 62
4
100
AcDbCircle
 10
-5.799709999933838
 20
-136.3506000000052
 30
0.0
 40
2.500000599999998
100
AcDbArc
 50
90.0
 51
179.9999800030203
  0
ARC
  5
11C
330
2F
100
AcDbEntity
  8
10
  6
Continuous
 62
4
100
AcDbCircle
 10
-1.799619999947026
 20
-136.3506000000052
 30
0.0
 40
2.500000599999998
100
AcDbArc
 50
7.0002768886e-05
 51
90.0
  0
LINE
  5
11D
330
2F
100
AcDbEntity
  8
10
  6
Continuous
 62
4
100
AcDbLine
 10
84.40002999990246
 20
-86.2506000000285
 30
0.0
 11
109.3997199998703
 21
-86.25061814044602
 31
0.0
  0
LINE
  5
11E
330
2F
100
AcDbEntity
  8
17
  6
Continuous
100
AcDbLine
 10
24.5
 20
-273.7498000001215
 30
0.0
 11
-70.5
 21
-273.7498000001215
 31
0.0
  0
LINE
  5
11F
330
2F
100
AcDbEntity
  8
17
  6
Continuous
 62
1
100
AcDbLine
 10
-105.5
 20
-253.7498000001215
 30
0.0
 11
-105.5
 21
-273.7498000001215
 31
0.0
  0
LINE
  5
120
330
2F
100
AcDbEntity
  8
17
  6
Continuous
 62
1
100
AcDbLine
 10
-200.5
 20
-253.7498000001215
 30
0.0
 11
-200.5
 21
-273.7498000001215
 31
0.0
  0
LINE
  5
121
330
2F
100
AcDbEntity
  8
17
  6
DASHDOT
 62
1
100
AcDbLine
 10
-165.5
 20
-277.1833148395089
 30
0.0
 11
-165.5
 21
-249.0154758667486
 31
0.0
  0
LINE
  5
122
330
2F
100
AcDbEntity
  8
17
  6
DASHDOT
 62
1
100
AcDbLine
 10
-140.5
 20
-277.1833148395089
 30
0.0
 11
-140.5
 21
-249.0154758667486
 31
0.0
  0
LINE
  5
123
330
2F
100
AcDbEntity
  8
17
  6
DASHDOT
 62
1
100
AcDbLine
 10
-115.5
 20
-277.1833148395089
 30
0.0
 11
-115.5
 21
-249.0154758667486
 31
0.0
  0
LINE
  5
124
330
2F
100
AcDbEntity
  8
17
  6
DASHDOT
 62
1
100
AcDbLine
 10
-190.5
 20
-277.1833148395089
 30
0.0
 11
-190.5
 21
-249.0154758667486
 31
0.0
  0
LINE
  5
125
330
2F
100
AcDbEntity
  8
17
  6
Continuous
100
AcDbLine
 10
-70.5
 20
-253.7498000001215
 30
0.0
 11
-70.5
 21
-273.7498000001215
 31
0.0
  0
LINE
  5
126
330
2F
100
AcDbEntity
  8
17
  6
DASHDOT
100
AcDbLine
 10
-35.5
 20
-277.1833148395089
 30
0.0
 11
-35.5
 21
-249.0154758667486
 31
0.0
  0
LINE
  5
127
330
2F
100
AcDbEntity
  8
17
  6
DASHDOT
100
AcDbLine
 10
-60.5
 20
-277.1833148395089
 30
0.0
 11
-60.5
 21
-249.0154758667486
 31
0.0
  0
LINE
  5
128
330
2F
100
AcDbEntity
  8
17
  6
Continuous
 62
1
100
AcDbLine
 10
-105.5
 20
-273.7498000001215
 30
0.0
 11
-200.5
 21
-273.7498000001215
 31
0.0
  0
LINE
  5
129
330
2F
100
AcDbEntity
  8
26
  6
Continuous
 62
1
100
AcDbLine
 10
-200.5
 20
-253.7498000001215
 30
0.0
 11
-105.5
 21
-253.7498000001215
 31
0.0
  0
LINE
  5
12A
330
2F
100
AcDbEntity
  8
17
  6
DASHDOT
100
AcDbLine
 10
-10.5
 20
-277.1833148395089
 30
0.0
 11
-10.5
 21
-249.0154758667486
 31
0.0
  0
LINE
  5
12B
330
2F
100
AcDbEntity
  8
17
  6
DASHDOT
100
AcDbLine
 10
14.5
 20
-277.1833148395089
 30
0.0
 11
14.5
 21
-249.0154758667486
 31
0.0
  0
LINE
  5
12C
330
2F
100
AcDbEntity
  8
17
  6
Continuous
 62
5
100
AcDbLine
 10
59.5
 20
-253.7498000001215
 30
0.0
 11
59.5
 21
-273.7498000001215
 31
0.0
  0
LINE
  5
12D
330
2F
100
AcDbEntity
  8
17
  6
Continuous
100
AcDbLine
 10
154.5
 20
-253.7498000001215
 30
0.0
 11
154.5
 21
-273.7498000001215
 31
0.0
  0
LINE
  5
12E
330
2F
100
AcDbEntity
  8
17
  6
DASHDOT
 62
5
100
AcDbLine
 10
94.50000000000001
 20
-277.1833148395089
 30
0.0
 11
94.50000000000001
 21
-249.0154758667486
 31
0.0
  0
LINE
  5
12F
330
2F
100
AcDbEntity
  8
17
  6
DASHDOT
 62
5
100
AcDbLine
 10
119.5
 20
-277.1833148395089
 30
0.0
 11
119.5
 21
-249.0154758667486
 31
0.0
  0
LINE
  5
130
330
2F
100
AcDbEntity
  8
17
  6
DASHDOT
 62
5
100
AcDbLine
 10
144.5
 20
-277.1833148395089
 30
0.0
 11
144.5
 21
-249.0154758667486
 31
0.0
  0
LINE
  5
131
330
2F
100
AcDbEntity
  8
17
  6
DASHDOT
 62
5
100
AcDbLine
 10
69.5
 20
-277.1833148395089
 30
0.0
 11
69.5
 21
-249.0154758667486
 31
0.0
  0
LINE
  5
132
330
2F
100
AcDbEntity
  8
17
  6
Continuous
 62
5
100
AcDbLine
 10
154.5
 20
-273.7498000001215
 30
0.0
 11
59.5
 21
-273.7498000001215
 31
0.0
  0
LWPOLYLINE
  5
133
330
2F
100
AcDbEntity
  8
17
  6
Continuous
 62
1
100
AcDbPolyline
 90
4
 70
1
 10
-200.5
 20
-273.7498000001215
 10
-105.5
 20
-273.7498000001215
 10
-105.5
 20
-253.7498000001215
 10
-200.5
 20
-253.7498000001215
  0
LWPOLYLINE
  5
134
330
2F
100
AcDbEntity
  8
17
  6
Continuous
100
AcDbPolyline
 90
4
 70
1
 10
-70.5
 20
-273.7498000001215
 10
24.5
 20
-273.7498000001215
 10
24.5
 20
-253.7498000001215
 10
-70.5
 20
-253.7498000001215
  0
LWPOLYLINE
  5
135
330
2F
100
AcDbEntity
  8
17
  6
Continuous
 62
5
100
AcDbPolyline
 90
4
 70
1
 10
59.5
 20
-273.7498000001215
 10
154.5
 20
-273.7498000001215
 10
154.5
 20
-253.7498000001215
 10
59.5
 20
-253.7498000001215
  0
ENDBLK
  5
31
330
2F
100
AcDbEntity
  8
0
100
AcDbBlockEnd
  0
ENDSEC
  0
SECTION
  2
ENTITIES
  0
INSERT
  5
140
330
17
100
AcDbEntity
  8
0
100
AcDbBlockReference
  2
ac3200a
 10
260.0
 20
356.8024000000442
 30
0.0
  0
ENDSEC
  0
SECTION
  2
OBJECTS
  0
DICTIONARY
  5
A
330
0
100
AcDbDictionary
281
1
  3
ACAD_COLOR
350
B
  3
ACAD_GROUP
350
C
  3
ACAD_LAYOUT
350
D
  3
ACAD_MATERIAL
350
E
  3
ACAD_MLEADERSTYLE
350
F
  3
ACAD_MLINESTYLE
350
10
  3
ACAD_PLOTSETTINGS
350
11
  3
ACAD_PLOTSTYLENAME
350
12
  3
ACAD_SCALELIST
350
14
  3
ACAD_TABLESTYLE
350
15
  3
ACAD_VISUALSTYLE
350
16
  3
EZDXF_META
350
2D
  0
DICTIONARY
  5
B
330
A
100
AcDbDictionary
281
1
  0
DICTIONARY
  5
C
330
A
100
AcDbDictionary
281
1
  0
DICTIONARY
  5
D
330
A
100
AcDbDictionary
281
1
  3
Model
350
1A
  3
Layout1
350
1E
  0
DICTIONARY
  5
E
330
A
100
AcDbDictionary
281
1
  3
ByBlock
350
1F
  3
ByLayer
350
20
  3
Global
350
21
  0
DICTIONARY
  5
F
330
A
100
AcDbDictionary
281
1
  3
Standard
350
2C
  0
DICTIONARY
  5
10
330
A
100
AcDbDictionary
281
1
  3
Standard
350
22
  0
DICTIONARY
  5
11
330
A
100
AcDbDictionary
281
1
  0
ACDBDICTIONARYWDFLT
  5
12
330
A
100
AcDbDictionary
281
1
  3
Normal
350
13
100
AcDbDictionaryWithDefault
340
13
  0
ACDBPLACEHOLDER
  5
13
330
12
  0
DICTIONARY
  5
14
330
A
100
AcDbDictionary
281
1
  0
DICTIONARY
  5
15
330
A
100
AcDbDictionary
281
1
  0
DICTIONARY
  5
16
330
A
100
AcDbDictionary
281
1
  0
LAYOUT
  5
1A
330
D
100
AcDbPlotSettings
  1

  4
A3
  6

 40
7.5
 41
20.0
 42
7.5
 43
20.0
 44
420.0
 45
297.0
 46
0.0
 47
0.0
 48
0.0
 49
0.0
140
0.0
141
0.0
142
1.0
143
1.0
 70
1024
 72
1
 73
0
 74
5
  7

 75
16
 76
0
 77
2
 78
300
147
1.0
148
0.0
149
0.0
100
AcDbLayout
  1
Model
 70
1
 71
0
 10
0.0
 20
0.0
 11
420.0
 21
297.0
 12
0.0
 22
0.0
 32
0.0
 14
1e+20
 24
1e+20
 34
1e+20
 15
-1e+20
 25
-1e+20
 35
-1e+20
146
0.0
 13
0.0
 23
0.0
 33
0.0
 16
1.0
 26
0.0
 36
0.0
 17
0.0
 27
1.0
 37
0.0
 76
1
330
17
  0
LAYOUT
  5
1E
330
D
100
AcDbPlotSettings
  1

  4
A3
  6

 40
7.5
 41
20.0
 42
7.5
 43
20.0
 44
420.0
 45
297.0
 46
0.0
 47
0.0
 48
0.0
 49
0.0
140
0.0
141
0.0
142
1.0
143
1.0
 70
0
 72
1
 73
0
 74
5
  7

 75
16
 76
0
 77
2
 78
300
147
1.0
148
0.0
149
0.0
100
AcDbLayout
  1
Layout1
 70
1
 71
1
 10
0.0
 20
0.0
 11
420.0
 21
297.0
 12
0.0
 22
0.0
 32
0.0
 14
1e+20
 24
1e+20
 34
1e+20
 15
-1e+20
 25
-1e+20
 35
-1e+20
146
0.0
 13
0.0
 23
0.0
 33
0.0
 16
1.0
 26
0.0
 36
0.0
 17
0.0
 27
1.0
 37
0.0
 76
1
330
1B
  0
MATERIAL
  5
1F
102
{ACAD_REACTORS
330
E
102
}
330
E
100
AcDbMaterial
  1
ByBlock
  2

 70
0
 40
1.0
 71
1
 41
1.0
 91
-1023410177
 42
1.0
 72
1
  3

 73
1
 74
1
 75
1
 44
0.5
 73
0
 45
1.0
 46
1.0
 77
1
  4

 78
1
 79
1
170
1
 48
1.0
171
1
  6

172
1
173
1
174
1
140
1.0
141
1.0
175
1
  7

176
1
177
1
178
1
143
1.0
179
1
  8

270
1
271
1
272
1
145
1.0
146
1.0
273
1
  9

274
1
275
1
276
1
 42
1.0
 72
1
  3

 73
1
 74
1
 75
1
 94
63
  0
MATERIAL
  5
20
102
{ACAD_REACTORS
330
E
102
}
330
E
100
AcDbMaterial
  1
ByLayer
  2

 70
0
 40
1.0
 71
1
 41
1.0
 91
-1023410177
 42
1.0
 72
1
  3

 73
1
 74
1
 75
1
 44
0.5
 73
0
 45
1.0
 46
1.0
 77
1
  4

 78
1
 79
1
170
1
 48
1.0
171
1
  6

172
1
173
1
174
1
140
1.0
141
1.0
175
1
  7

176
1
177
1
178
1
143
1.0
179
1
  8

270
1
271
1
272
1
145
1.0
146
1.0
273
1
  9

274
1
275
1
276
1
 42
1.0
 72
1
  3

 73
1
 74
1
 75
1
 94
63
  0
MATERIAL
  5
21
102
{ACAD_REACTORS
330
E
102
}
330
E
100
AcDbMaterial
  1
Global
  2

 70
0
 40
1.0
 71
1
 41
1.0
 91
-1023410177
 42
1.0
 72
1
  3

 73
1
 74
1
 75
1
 44
0.5
 73
0
 45
1.0
 46
1.0
 77
1
  4

 78
1
 79
1
170
1
 48
1.0
171
1
  6

172
1
173
1
174
1
140
1.0
141
1.0
175
1
  7

176
1
177
1
178
1
143
1.0
179
1
  8

270
1
271
1
272
1
145
1.0
146
1.0
273
1
  9

274
1
275
1
276
1
 42
1.0
 72
1
  3

 73
1
 74
1
 75
1
 94
63
  0
MLINESTYLE
  5
22
102
{ACAD_REACTORS
330
10
102
}
330
10
100
AcDbMlineStyle
  2
Standard
 70
0
  3

 62
256
 51
90.0
 52
90.0
 71
2
 49
0.5
 62
256
  6
BYLAYER
 49
-0.5
 62
256
  6
BYLAYER
  0
MLEADERSTYLE
  5
2C
102
{ACAD_REACTORS
330
F
102
}
330
F
100
AcDbMLeaderStyle
179
2
170
2
171
1
172
0
 90
2
 40
0.0
 41
0.0
173
1
 91
-1056964608
 92
-2
290
1
 42
2.0
291
1
 43
8.0
  3
Standard
 44
4.0
300

342
29
174
1
175
1
176
0
178
1
 93
-1056964608
 45
4.0
292
0
297
0
 46
4.0
 94
-1056964608
 47
1.0
 49
1.0
140
1.0
294
1
141
0.0
177
0
142
1.0
295
0
296
0
143
3.75
271
0
272
9
273
9
  0
DICTIONARY
  5
2D
330
A
100
AcDbDictionary
280
1
281
1
  3
CREATED_BY_EZDXF
350
2E
  3
WRITTEN_BY_EZDXF
350
144
  0
DICTIONARYVAR
  5
2E
330
2D
100
DictionaryVariables
280
0
  1
1.4.4 @ 2026-09-23T06:03:41.886013+00:00
  0
DICTIONARYVAR
  5
144
330
2D
100
DictionaryVariables
280
0
  1
1.4.4 @ 2026-09-23T06:03:41.931848+00:00
  0
ENDSEC
  0
EOF
