  0
SECTION
  2
HEADER
  9
$ACADVER
  1
AC1032
  9
$ACADMAINTVER
 90
4
  9
$DWGCODEPAGE
  3
ANSI_1252
  9
$LASTSAVEDBY
  1
ezdxf
  9
$REQUIREDVERSIONS
160
0
  9
$INSBASE
 10
0.0
 20
0.0
 30
0.0
  9
$EXTMIN
 10
1e+20
 20
1e+20
 30
1e+20
  9
$EXTMAX
 10
-1e+20
 20
-1e+20
 30
-1e+20
  9
$LIMMIN
 10
0.0
 20
0.0
  9
$LIMMAX
 10
420.0
 20
297.0
  9
$ORTHOMODE
 70
0
  9
$REGENMODE
 70
1
  9
$FILLMODE
 70
1
  9
$QTEXTMODE
 70
0
  9
$MIRRTEXT
 70
1
  9
$LTSCALE
 40
1.0
  9
$ATTMODE
 70
1
  9
$TEXTSIZE
 40
2.5
  9
$TRACEWID
 40
1.0
  9
$TEXTSTYLE
  7
Standard
  9
$CLAYER
  8
0
  9
$CELTYPE
  6
ByLayer
  9
$CECOLOR
 62
256
  9
$CELTSCALE
 40
1.0
  9
$DISPSILH
 70
0
  9
$DIMSCALE
 40
1.0
  9
$DIMASZ
 40
2.5
  9
$DIMEXO
 40
0.625
  9
$DIMDLI
 40
3.75
  9
$DIMRND
 40
0.0
  9
$DIMDLE
 40
0.0
  9
$DIMEXE
 40
1.25
  9
$DIMTP
 40
0.0
  9
$DIMTM
 40
0.0
  9
$DIMTXT
 40
2.5
  9
$DIMCEN
 40
2.5
  9
$DIMTSZ
 40
0.0
  9
$DIMTOL
 70
0
  9
$DIMLIM
 70
0
  9
$DIMTIH
 70
0
  9
$DIMTOH
 70
0
  9
$DIMSE1
 70
0
  9
$DIMSE2
 70
0
  9
$DIMTAD
 70
1
  9
$DIMZIN
 70
8
  9
$DIMBLK
  1

  9
$DIMASO
 70
1
  9
$DIMSHO
 70
1
  9
$DIMPOST
  1

  9
$DIMAPOST
  1

  9
$DIMALT
 70
0
  9
$DIMALTD
 70
3
  9
$DIMALTF
 40
0.03937007874
  9
$DIMLFAC
 40
1.0
  9
$DIMTOFL
 70
1
  9
$DIMTVP
 40
0.0
  9
$DIMTIX
 70
0
  9
$DIMSOXD
 70
0
  9
$DIMSAH
 70
0
  9
$DIMBLK1
  1

  9
$DIMBLK2
  1

  9
$DIMSTYLE
  2
ISO-25
  9
$DIMCLRD
 70
0
  9
$DIMCLRE
 70
0
  9
$DIMCLRT
 70
0
  9
$DIMTFAC
 40
1.0
  9
$DIMGAP
 40
0.625
  9
$DIMJUST
 70
0
  9
$DIMSD1
 70
0
  9
$DIMSD2
 70
0
  9
$DIMTOLJ
 70
0
  9
$DIMTZIN
 70
8
  9
$DIMALTZ
 70
0
  9
$DIMALTTZ
 70
0
  9
$DIMUPT
 70
0
  9
$DIMDEC
 70
2
  9
$DIMTDEC
 70
2
  9
$DIMALTU
 70
2
  9
$DIMALTTD
 70
3
  9
$DIMTXSTY
  7
Standard
  9
$DIMAUNIT
 70
0
  9
$DIMADEC
 70
0
  9
$DIMALTRND
 40
0.0
  9
$DIMAZIN
 70
0
  9
$DIMDSEP
 70
44
  9
$DIMATFIT
 70
3
  9
$DIMFRAC
 70
0
  9
$DIMLDRBLK
  1

  9
$DIMLUNIT
 70
2
  9
$DIMLWD
 70
-2
  9
$DIMLWE
 70
-2
  9
$DIMTMOVE
 70
0
  9
$DIMFXL
 40
1.0
  9
$DIMFXLON
 70
0
  9
$DIMJOGANG
 40
0.785398163397
  9
$DIMTFILL
 70
0
  9
$DIMTFILLCLR
 70
0
  9
$DIMARCSYM
 70
0
  9
$DIMLTYPE
  6

  9
$DIMLTEX1
  6

  9
$DIMLTEX2
  6

  9
$DIMTXTDIRECTION
 70
0
  9
$LUNITS
 70
2
  9
$LUPREC
 70
4
  9
$SKETCHINC
 40
1.0
  9
$FILLETRAD
 40
10.0
  9
$AUNITS
 70
0
  9
$AUPREC
 70
2
  9
$MENU
  1
.
  9
$ELEVATION
 40
0.0
  9
$PELEVATION
 40
0.0
  9
$THICKNESS
 40
0.0
  9
$LIMCHECK
 70
0
  9
$CHAMFERA
 40
0.0
  9
$CHAMFERB
 40
0.0
  9
$CHAMFERC
 40
0.0
  9
$CHAMFERD
 40
0.0
  9
$SKPOLY
 70
0
  9
$TDCREATE
 40
2461307.543645833
  9
$TDUCREATE
 40
2458532.153996898
  9
$TDUPDATE
 40
2461307.543645833
  9
$TDUUPDATE
 40
2458532.1544311
  9
$TDINDWG
 40
0.0
  9
$TDUSRTIMER
 40
0.0
  9
$USRTIMER
 70
1
  9
$ANGBASE
 50
0.0
  9
$ANGDIR
 70
0
  9
$PDMODE
 70
0
  9
$PDSIZE
 40
0.0
  9
$PLINEWID
 40
0.0
  9
$SPLFRAME
 70
0
  9
$SPLINETYPE
 70
6
  9
$SPLINESEGS
 70
8
  9
$HANDSEED
  5
10E
  9
$SURFTAB1
 70
6
  9
$SURFTAB2
 70
6
  9
$SURFTYPE
 70
6
  9
$SURFU
 70
6
  9
$SURFV
 70
6
  9
$UCSBASE
  2

  9
$UCSNAME
  2

  9
$UCSORG
 10
0.0
 20
0.0
 30
0.0
  9
$UCSXDIR
 10
1.0
 20
0.0
 30
0.0
  9
$UCSYDIR
 10
0.0
 20
1.0
 30
0.0
  9
$UCSORTHOREF
  2

  9
$UCSORTHOVIEW
 70
0
  9
$UCSORGTOP
 10
0.0
 20
0.0
 30
0.0
  9
$UCSORGBOTTOM
 10
0.0
 20
0.0
 30
0.0
  9
$UCSORGLEFT
 10
0.0
 20
0.0
 30
0.0
  9
$UCSORGRIGHT
 10
0.0
 20
0.0
 30
0.0
  9
$UCSORGFRONT
 10
0.0
 20
0.0
 30
0.0
  9
$UCSORGBACK
 10
0.0
 20
0.0
 30
0.0
  9
$PUCSBASE
  2

  9
$PUCSNAME
  2

  9
$PUCSORG
 10
0.0
 20
0.0
 30
0.0
  9
$PUCSXDIR
 10
1.0
 20
0.0
 30
0.0
  9
$PUCSYDIR
 10
0.0
 20
1.0
 30
0.0
  9
$PUCSORTHOREF
  2

  9
$PUCSORTHOVIEW
 70
0
  9
$PUCSORGTOP
 10
0.0
 20
0.0
 30
0.0
  9
$PUCSORGBOTTOM
 10
0.0
 20
0.0
 30
0.0
  9
$PUCSORGLEFT
 10
0.0
 20
0.0
 30
0.0
  9
$PUCSORGRIGHT
 10
0.0
 20
0.0
 30
0.0
  9
$PUCSORGFRONT
 10
0.0
 20
0.0
 30
0.0
  9
$PUCSORGBACK
 10
0.0
 20
0.0
 30
0.0
  9
$USERI1
 70
0
  9
$USERI2
 70
0
  9
$USERI3
 70
0
  9
$USERI4
 70
0
  9
$USERI5
 70
0
  9
$USERR1
 40
0.0
  9
$USERR2
 40
0.0
  9
$USERR3
 40
0.0
  9
$USERR4
 40
0.0
  9
$USERR5
 40
0.0
  9
$WORLDVIEW
 70
1
  9
$SHADEDGE
 70
3
  9
$SHADEDIF
 70
70
  9
$TILEMODE
 70
1
  9
$MAXACTVP
 70
64
  9
$PINSBASE
 10
0.0
 20
0.0
 30
0.0
  9
$PLIMCHECK
 70
0
  9
$PEXTMIN
 10
1e+20
 20
1e+20
 30
1e+20
  9
$PEXTMAX
 10
-1e+20
 20
-1e+20
 30
-1e+20
  9
$PLIMMIN
 10
0.0
 20
0.0
  9
$PLIMMAX
 10
420.0
 20
297.0
  9
$UNITMODE
 70
0
  9
$VISRETAIN
 70
1
  9
$PLINEGEN
 70
0
  9
$PSLTSCALE
 70
1
  9
$TREEDEPTH
 70
3020
  9
$CMLSTYLE
  2
Standard
  9
$CMLJUST
 70
0
  9
$CMLSCALE
 40
20.0
  9
$PROXYGRAPHICS
 70
1
  9
$MEASUREMENT
 70
1
  9
$CELWEIGHT
370
-1
  9
$ENDCAPS
280
0
  9
$JOINSTYLE
280
0
  9
$LWDISPLAY
290
0
  9
$INSUNITS
 70
4
  9
$HYPERLINKBASE
  1

  9
$STYLESHEET
  1

  9
$XEDIT
290
1
  9
$CEPSNTYPE
380
0
  9
$PSTYLEMODE
290
1
  9
$FINGERPRINTGUID
  2
{A64621EC-4DC3-4773-8FB3-730DBF91D697}
  9
$VERSIONGUID
  2
{9E5D01E0-2673-434D-A217-FB6CF2683D28}
  9
$EXTNAMES
290
1
  9
$PSVPSCALE
 40
0.0
  9
$OLESTARTUP
290
0
  9
$SORTENTS
280
127
  9
$INDEXCTL
280
0
  9
$HIDETEXT
280
1
  9
$XCLIPFRAME
280
1
  9
$HALOGAP
280
0
  9
$OBSCOLOR
 70
257
  9
$OBSLTYPE
280
0
  9
$INTERSECTIONDISPLAY
280
0
  9
$INTERSECTIONCOLOR
 70
257
  9
$DIMASSOC
280
2
  9
$PROJECTNAME
  1

  9
$CAMERADISPLAY
290
0
  9
$LENSLENGTH
 40
50.0
  9
$CAMERAHEIGHT
 40
0.0
  9
$STEPSPERSEC
 40
24.0
  9
$STEPSIZE
 40
100.0
  9
$3DDWFPREC
 40
2.0
  9
$PSOLWIDTH
 40
0.005
  9
$PSOLHEIGHT
 40
0.08
  9
$LOFTANG1
 40
1.570796326795
  9
$LOFTANG2
 40
1.570796326795
  9
$LOFTMAG1
 40
0.0
  9
$LOFTMAG2
 40
0.0
  9
$LOFTPARAM
 70
7
  9
$LOFTNORMALS
280
1
  9
$LATITUDE
 40
37.795
  9
$LONGITUDE
 40
-122.394
  9
$NORTHDIRECTION
 40
0.0
  9
$TIMEZONE
 70
-8000
  9
$LIGHTGLYPHDISPLAY
280
1
  9
$TILEMODELIGHTSYNCH
280
1
  9
$CMATERIAL
347
20
  9
$SOLIDHIST
280
0
  9
$SHOWHIST
280
1
  9
$DWFFRAME
280
2
  9
$DGNFRAME
280
2
  9
$REALWORLDSCALE
290
1
  9
$INTERFERECOLOR
 62
256
  9
$CSHADOW
280
0
  9
$SHADOWPLANELOCATION
 40
0.0
  0
ENDSEC
  0
SECTION
  2
CLASSES
  0
CLASS
  1
ACDBDICTIONARYWDFLT
  2
AcDbDictionaryWithDefault
  3
ObjectDBX Classes
 90
0
 91
0
280
0
281
0
  0
CLASS
  1
SUN
  2
AcDbSun
  3
SCENEOE
 90
1153
 91
0
280
0
281
0
  0
CLASS
  1
VISUALSTYLE
  2
AcDbVisualStyle
  3
ObjectDBX Classes
 90
4095
 91
0
280
0
281
0
  0
CLASS
  1
MATERIAL
  2
AcDbMaterial
  3
ObjectDBX Classes
 90
1153
 91
0
280
0
281
0
  0
CLASS
  1
SCALE
  2
AcDbScale
  3
ObjectDBX Classes
 90
1153
 91
0
280
0
281
0
  0
CLASS
  1
TABLESTYLE
  2
AcDbTableStyle
  3
ObjectDBX Classes
 90
4095
 91
0
280
0
281
0
  0
CLASS
  1
MLEADERSTYLE
  2
AcDbMLeaderStyle
  3
ACDB_MLEADERSTYLE_CLASS
 90
4095
 91
0
280
0
281
0
  0
CLASS
  1
DICTIONARYVAR
  2
AcDbDictionaryVar
  3
ObjectDBX Classes
 90
0
 91
0
280
0
281
0
  0
CLASS
  1
CELLSTYLEMAP
  2
AcDbCellStyleMap
  3
ObjectDBX Classes
 90
1152
 91
0
280
0
281
0
  0
CLASS
  1
MENTALRAYRENDERSETTINGS
  2
AcDbMentalRayRenderSettings
  3
SCENEOE
 90
1024
 91
0
280
0
281
0
  0
CLASS
  1
ACDBDETAILVIEWSTYLE
  2
AcDbDetailViewStyle
  3
ObjectDBX Classes
 90
1025
 91
0
280
0
281
0
  0
CLASS
  1
ACDBSECTIONVIEWSTYLE
  2
AcDbSectionViewStyle
  3
ObjectDBX Classes
 90
1025
 91
0
280
0
281
0
  0
CLASS
  1
RASTERVARIABLES
  2
AcDbRasterVariables
  3
ISM
 90
0
 91
0
280
0
281
0
  0
CLASS
  1
LAYOUT
  2
AcDbLayout
  3
ObjectDBX Classes
 90
0
 91
0
280
0
281
0
  0
CLASS
  1
ACDBPLACEHOLDER
  2
AcDbPlaceHolder
  3
ObjectDBX Classes
 90
0
 91
0
280
0
281
0
  0
ENDSEC
  0
SECTION
  2
TABLES
  0
TABLE
  2
VPORT
  5
8
330
0
100
AcDbSymbolTable
 70
1
  0
VPORT
  5
23
330
8
100
AcDbSymbolTableRecord
100
AcDbViewportTableRecord
  2
*Active
 70
0
 10
0.0
 20
0.0
 11
1.0
 21
1.0
 12
0.0
 22
0.0
 13
0.0
 23
0.0
 14
0.5
 24
0.5
 15
0.5
 25
0.5
 16
0.0
 26
0.0
 36
1.0
 17
0.0
 27
0.0
 37
0.0
 40
1000.0
 41
1.34
 42
50.0
 43
0.0
 44
0.0
 50
0.0
 51
0.0
 71
0
 72
1000
 73
1
 74
3
 75
0
 76
0
 77
0
 78
0
281
0
 65
0
146
0.0
  0
ENDTAB
  0
TABLE
  2
LTYPE
  5
2
330
0
100
AcDbSymbolTable
 70
3
  0
LTYPE
  5
24
330
2
100
AcDbSymbolTableRecord
100
AcDbLinetypeTableRecord
  2
ByBlock
 70
0
  3

 72
65
 73
0
 40
0.0
  0
LTYPE
  5
25
330
2
100
AcDbSymbolTableRecord
100
AcDbLinetypeTableRecord
  2
ByLayer
 70
0
  3

 72
65
 73
0
 40
0.0
  0
LTYPE
  5
26
330
2
100
AcDbSymbolTableRecord
100
AcDbLinetypeTableRecord
  2
Continuous
 70
0
  3

 72
65
 73
0
 40
0.0
  0
ENDTAB
  0
TABLE
  2
LAYER
  5
1
330
0
100
AcDbSymbolTable
 70
2
  0
LAYER
  5
27
330
1
100
AcDbSymbolTableRecord
100
AcDbLayerTableRecord
  2
0
 70
0
 62
7
  6
Continuous
370
-3
390
13
347
21
  0
LAYER
  5
28
330
1
100
AcDbSymbolTableRecord
100
AcDbLayerTableRecord
  2
Defpoints
 70
0
 62
7
  6
Continuous
290
0
370
-3
390
13
347
21
  0
ENDTAB
  0
TABLE
  2
STYLE
  5
5
330
0
100
AcDbSymbolTable
 70
2
  0
STYLE
  5
29
330
5
100
AcDbSymbolTableRecord
100
AcDbTextStyleTableRecord
  2
Standard
 70
0
 40
0.0
 41
1.0
 50
0.0
 71
0
 42
2.5
  3
txt
  4

  0
STYLE
  5
108
330
5
100
AcDbSymbolTableRecord
100
AcDbTextStyleTableRecord
  2
ss
 70
0
 40
2.5
 41
1.0
 50
0.0
 71
0
 42
2.5
  3
romans.shx
  4
gsg1.shx
  0
ENDTAB
  0
TABLE
  2
VIEW
  5
7
330
0
100
AcDbSymbolTable
 70
0
  0
ENDTAB
  0
TABLE
  2
UCS
  5
6
330
0
100
AcDbSymbolTable
 70
0
  0
ENDTAB
  0
TABLE
  2
APPID
  5
3
330
0
100
AcDbSymbolTable
 70
3
  0
APPID
  5
2A
330
3
100
AcDbSymbolTableRecord
100
AcDbRegAppTableRecord
  2
ACAD
 70
0
  0
APPID
  5
10B
330
3
100
AcDbSymbolTableRecord
100
AcDbRegAppTableRecord
  2
HATCHBACKGROUNDCOLOR
 70
0
  0
APPID
  5
10C
330
3
100
AcDbSymbolTableRecord
100
AcDbRegAppTableRecord
  2
EZDXF
 70
0
  0
ENDTAB
  0
TABLE
  2
DIMSTYLE
  5
4
330
0
100
AcDbSymbolTable
 70
1
100
AcDbDimStyleTable
  0
DIMSTYLE
105
2B
330
4
100
AcDbSymbolTableRecord
100
AcDbDimStyleTableRecord
  2
Standard
 70
0
 40
1.0
 41
2.5
 42
0.625
 43
3.75
 44
1.25
 45
0.0
 46
0.0
 47
0.0
 48
0.0
 49
2.5
140
2.5
141
2.5
142
0.0
143
0.03937007874
144
1.0
145
0.0
146
1.0
147
0.625
148
0.0
 69
0
 70
0
 71
0
 72
0
 73
0
 74
0
 75
0
 76
0
 77
1
 78
8
 79
3
170
0
171
3
172
1
173
0
174
0
175
0
176
0
177
0
178
0
179
2
271
2
272
2
273
2
274
3
275
0
276
0
277
2
278
44
279
0
280
0
281
0
282
0
283
0
284
8
285
0
286
0
288
0
289
3
290
0
371
-2
372
-2
  0
ENDTAB
  0
TABLE
  2
BLOCK_RECORD
  5
9
330
0
100
AcDbSymbolTable
 70
3
  0
BLOCK_RECORD
  5
17
330
9
100
AcDbSymbolTableRecord
100
AcDbBlockTableRecord
  2
*Model_Space
340
1A
 70
0
280
1
281
0
  0
BLOCK_RECORD
  5
1B
330
9
100
AcDbSymbolTableRecord
100
AcDbBlockTableRecord
  2
*Paper_Space
340
1E
 70
0
280
1
281
0
  0
BLOCK_RECORD
  5
2F
330
9
100
AcDbSymbolTableRecord
100
AcDbBlockTableRecord
  2
CC MC185a
340
0
 70
0
280
1
281
0
  0
ENDTAB
  0
ENDSEC
  0
SECTION
  2
BLOCKS
  0
BLOCK
  5
18
330
17
100
AcDbEntity
  8
0
100
AcDbBlockBegin
  2
*Model_Space
 70
0
 10
0.0
 20
0.0
 30
0.0
  3
*Model_Space
  1

  0
ENDBLK
  5
19
330
17
100
AcDbEntity
  8
0
100
AcDbBlockEnd
  0
BLOCK
  5
1C
330
1B
100
AcDbEntity
  8
0
100
AcDbBlockBegin
  2
*Paper_Space
 70
0
 10
0.0
 20
0.0
 30
0.0
  3
*Paper_Space
  1

  0
ENDBLK
  5
1D
330
1B
100
AcDbEntity
  8
0
100
AcDbBlockEnd
  0
BLOCK
  5
30
330
2F
100
AcDbEntity
  8
0
100
AcDbBlockBegin
  2
CC MC185a
 70
0
 10
0.0
 20
0.0
 30
0.0
  3
CC MC185a
  1

  0
LINE
  5
32
330
2F
100
AcDbEntity
  8
0
 62
7
100
AcDbLine
 10
3376.706950207469
 20
625.7022682398177
 30
0.0
 11
3318.534232365145
 21
625.7022682398177
 31
0.0
  0
LINE
  5
33
330
2F
100
AcDbEntity
  8
0
 62
7
100
AcDbLine
 10
3318.534232365145
 20
625.7022682398177
 30
0.0
 11
3315.691390041495
 21
622.9647163725976
 31
0.0
  0
LINE
  5
34
330
2F
100
AcDbEntity
  8
0
 62
7
100
AcDbLine
 10
3315.691390041495
 20
622.9647163725976
 30
0.0
 11
3315.691390041495
 21
582.3226001900252
 31
0.0
  0
LINE
  5
35
330
2F
100
AcDbEntity
  8
0
 62
7
100
AcDbLine
 10
3315.691390041495
 20
582.3226001900252
 30
0.0
 11
3310.110995850622
 21
582.3226001900252
 31
0.0
  0
LINE
  5
36
330
2F
100
AcDbEntity
  8
0
 62
7
100
AcDbLine
 10
3310.110995850622
 20
582.3226001900252
 30
0.0
 11
3310.110995850622
 21
568.3189694846308
 31
0.0
  0
LINE
  5
37
330
2F
100
AcDbEntity
  8
0
 62
7
100
AcDbLine
 10
3310.110995850622
 20
568.3189694846308
 30
0.0
 11
3315.691390041495
 21
568.3189694846308
 31
0.0
  0
LINE
  5
38
330
2F
100
AcDbEntity
  8
0
 62
7
100
AcDbLine
 10
3315.691390041495
 20
582.3226001900252
 30
0.0
 11
3315.691390041495
 21
568.3189694846308
 31
0.0
  0
LINE
  5
39
330
2F
100
AcDbEntity
  8
0
 62
7
100
AcDbLine
 10
3313.480290456431
 20
582.3226001900252
 30
0.0
 11
3313.480290456431
 21
576.4263346298592
 31
0.0
  0
LINE
  5
3A
330
2F
100
AcDbEntity
  8
0
 62
7
100
AcDbLine
 10
3313.480290456431
 20
576.4263346298592
 30
0.0
 11
3315.691390041495
 21
576.4263346298592
 31
0.0
  0
LINE
  5
3B
330
2F
100
AcDbEntity
  8
0
 62
7
100
AcDbLine
 10
3376.706950207469
 20
625.7022682398177
 30
0.0
 11
3376.706950207469
 21
653.920110563469
 31
0.0
  0
LINE
  5
3C
330
2F
100
AcDbEntity
  8
0
 62
7
100
AcDbLine
 10
3376.706950207469
 20
653.920110563469
 30
0.0
 11
3381.129149377593
 21
653.920110563469
 31
0.0
  0
LINE
  5
3D
330
2F
100
AcDbEntity
  8
0
 62
7
100
AcDbLine
 10
3381.129149377593
 20
653.920110563469
 30
0.0
 11
3381.129149377593
 21
625.7022682398177
 31
0.0
  0
LINE
  5
3E
330
2F
100
AcDbEntity
  8
0
 62
7
100
AcDbLine
 10
3376.706950207469
 20
625.7022682398177
 30
0.0
 11
3405.135373443984
 21
625.7022682398177
 31
0.0
  0
LINE
  5
3F
330
2F
100
AcDbEntity
  8
0
 62
7
100
AcDbLine
 10
3376.706950207469
 20
646.6550690696932
 30
0.0
 11
3381.129149377593
 21
646.6550690696932
 31
0.0
  0
LINE
  5
40
330
2F
100
AcDbEntity
  8
0
 62
7
100
AcDbLine
 10
3376.706950207469
 20
635.9154425136765
 30
0.0
 11
3381.129149377593
 21
635.9154425136765
 31
0.0
  0
LINE
  5
41
330
2F
100
AcDbEntity
  8
0
 62
7
100
AcDbLine
 10
3405.135373443984
 20
625.7022682398177
 30
0.0
 11
3405.135373443984
 21
632.7567288207306
 31
0.0
  0
LINE
  5
42
330
2F
100
AcDbEntity
  8
0
 62
7
100
AcDbLine
 10
3405.135373443984
 20
632.7567288207306
 30
0.0
 11
3412.084543568466
 21
644.2333885717679
 31
0.0
  0
ARC
  5
43
330
2F
100
AcDbEntity
  8
0
 62
7
100
AcDbCircle
 10
3416.187978774338
 20
640.7327701549149
 30
0.0
 40
5.393747286368491
100
AcDbArc
 50
101.2255676934002
 51
139.5326843292911
  0
LINE
  5
44
330
2F
100
AcDbEntity
  8
0
 62
7
100
AcDbLine
 10
3415.137966804979
 20
646.0233263311039
 30
0.0
 11
3451.46317427386
 21
646.0233263311039
 31
0.0
  0
ARC
  5
45
330
2F
100
AcDbEntity
  8
0
 62
7
100
AcDbCircle
 10
3456.262889225806
 20
643.7712804574295
 30
0.0
 40
5.301789720185036
100
AcDbArc
 50
112.8895561636252
 51
154.8638384082273
  0
LINE
  5
46
330
2F
100
AcDbEntity
  8
0
 62
7
100
AcDbLine
 10
3454.20072614108
 20
648.6555877418922
 30
0.0
 11
3458.833506224067
 21
648.6555877418922
 31
0.0
  0
LINE
  5
47
330
2F
100
AcDbEntity
  8
0
 62
7
100
AcDbLine
 10
3458.833506224067
 20
648.6555877418922
 30
0.0
 11
3458.833506224067
 21
646.8656499825562
 31
0.0
  0
LINE
  5
48
330
2F
100
AcDbEntity
  8
0
 62
7
100
AcDbLine
 10
3458.833506224067
 20
646.8656499825562
 30
0.0
 11
3485.15612033195
 21
646.8656499825562
 31
0.0
  0
LINE
  5
49
330
2F
100
AcDbEntity
  8
0
 62
7
100
AcDbLine
 10
3485.15612033195
 20
646.0233263311039
 30
0.0
 11
3492.0
 21
646.0233263311039
 31
0.0
  0
LINE
  5
4A
330
2F
100
AcDbEntity
  8
0
 62
7
100
AcDbLine
 10
3451.756215621614
 20
646.5639256662488
 30
0.0
 11
3458.833506224067
 21
646.5639256662488
 31
0.0
  0
LINE
  5
4B
330
2F
100
AcDbEntity
  8
0
 62
7
100
AcDbLine
 10
3458.833506224067
 20
646.5639256662488
 30
0.0
 11
3458.833506224067
 21
646.8656499825562
 31
0.0
  0
LINE
  5
4C
330
2F
100
AcDbEntity
  8
0
 62
7
100
AcDbLine
 10
3492.0
 20
646.0233263311039
 30
0.0
 11
3492.0
 21
661.0798616008136
 31
0.0
  0
LINE
  5
4D
330
2F
100
AcDbEntity
  8
0
 62
7
100
AcDbLine
 10
3492.0
 20
661.0798616008136
 30
0.0
 11
3494.632261410789
 21
661.0798616008136
 31
0.0
  0
LINE
  5
4E
330
2F
100
AcDbEntity
  8
0
 62
7
100
AcDbLine
 10
3494.632261410789
 20
661.0798616008136
 30
0.0
 11
3494.632261410789
 21
626.3340109784069
 31
0.0
  0
ARC
  5
4F
330
2F
100
AcDbEntity
  8
0
 62
7
100
AcDbCircle
 10
3490.713952282158
 20
626.311448737743
 30
0.0
 40
3.918374086558723
100
AcDbArc
 50
285.9302902383813
 51
0.3299144699795301
  0
LINE
  5
50
330
2F
100
AcDbEntity
  8
0
 62
7
100
AcDbLine
 10
3491.789419087137
 20
622.5435545468716
 30
0.0
 11
3488.209543568466
 21
622.5435545468716
 31
0.0
  0
LINE
  5
51
330
2F
100
AcDbEntity
  8
0
 62
7
100
AcDbLine
 10
3488.209543568466
 20
622.5435545468716
 30
0.0
 11
3488.209543568466
 21
618.0160649203156
 31
0.0
  0
LINE
  5
52
330
2F
100
AcDbEntity
  8
0
 62
7
100
AcDbLine
 10
3488.209543568466
 20
618.0160649203156
 30
0.0
 11
3490.315352697098
 21
618.0160649203156
 31
0.0
  0
LINE
  5
53
330
2F
100
AcDbEntity
  8
0
 62
7
100
AcDbLine
 10
3490.315352697098
 20
618.0160649203156
 30
0.0
 11
3490.315352697098
 21
610.3298616008136
 31
0.0
  0
LINE
  5
54
330
2F
100
AcDbEntity
  8
0
 62
7
100
AcDbLine
 10
3490.315352697098
 20
610.3298616008136
 30
0.0
 11
3488.209543568466
 21
610.3298616008136
 31
0.0
  0
LINE
  5
55
330
2F
100
AcDbEntity
  8
0
 62
7
100
AcDbLine
 10
3488.209543568466
 20
610.3298616008136
 30
0.0
 11
3488.209543568466
 21
607.3817288207306
 31
0.0
  0
LINE
  5
56
330
2F
100
AcDbEntity
  8
0
 62
7
100
AcDbLine
 10
3488.209543568466
 20
607.3817288207306
 30
0.0
 11
3491.368257261412
 21
604.2230151277845
 31
0.0
  0
ARC
  5
57
330
2F
100
AcDbEntity
  8
0
 62
7
100
AcDbCircle
 10
3492.094271687737
 20
602.0117406416317
 30
0.0
 40
2.3274088167619
100
AcDbArc
 50
0.0043056871847225
 51
108.1762481545133
  0
LINE
  5
58
330
2F
100
AcDbEntity
  8
0
 62
7
100
AcDbLine
 10
3491.578838174275
 20
646.0233263311039
 30
0.0
 11
3491.578838174275
 21
627.0710441734276
 31
0.0
  0
LINE
  5
59
330
2F
100
AcDbEntity
  8
0
 62
7
100
AcDbLine
 10
3491.578838174275
 20
627.0710441734276
 30
0.0
 11
3491.578838174275
 21
625.7022682398177
 31
0.0
  0
LINE
  5
5A
330
2F
100
AcDbEntity
  8
0
 62
7
100
AcDbLine
 10
3491.578838174275
 20
625.7022682398177
 30
0.0
 11
3485.682572614109
 21
625.7022682398177
 31
0.0
  0
LINE
  5
5B
330
2F
100
AcDbEntity
  8
0
 62
7
100
AcDbLine
 10
3485.682572614109
 20
625.7022682398177
 30
0.0
 11
3485.682572614109
 21
604.2230151277845
 31
0.0
  0
LINE
  5
5C
330
2F
100
AcDbEntity
  8
0
 62
7
100
AcDbLine
 10
3485.682572614109
 20
604.2230151277845
 30
0.0
 11
3491.368257261412
 21
604.2230151277845
 31
0.0
  0
LINE
  5
5D
330
2F
100
AcDbEntity
  8
0
 62
7
100
AcDbLine
 10
3488.209543568466
 20
607.3817288207306
 30
0.0
 11
3488.209543568466
 21
604.2230151277845
 31
0.0
  0
LINE
  5
5E
330
2F
100
AcDbEntity
  8
0
 62
7
100
AcDbLine
 10
3485.682572614109
 20
605.1706292356683
 30
0.0
 11
3488.209543568466
 21
605.1706292356683
 31
0.0
  0
LINE
  5
5F
330
2F
100
AcDbEntity
  8
0
 62
7
100
AcDbLine
 10
3488.209543568466
 20
618.0160649203156
 30
0.0
 11
3488.209543568466
 21
610.3298616008136
 31
0.0
  0
ARC
  5
60
330
2F
100
AcDbEntity
  8
0
 62
7
100
AcDbCircle
 10
3490.199533195022
 20
625.6075068290291
 30
0.0
 40
1.382556310161221
100
AcDbArc
 50
292.8548199617925
 51
3.930175545730338
  0
LINE
  5
61
330
2F
100
AcDbEntity
  8
0
 62
7
100
AcDbLine
 10
3490.736514522821
 20
624.3334923062079
 30
0.0
 11
3488.104253112033
 21
624.3334923062079
 31
0.0
  0
ARC
  5
62
330
2F
100
AcDbEntity
  8
0
 62
7
100
AcDbCircle
 10
3490.085511334886
 20
619.8381034285634
 30
0.0
 40
4.912627128825403
100
AcDbArc
 50
113.7845853982598
 51
153.6693545616038
  0
LINE
  5
63
330
2F
100
AcDbEntity
  8
0
 62
7
100
AcDbLine
 10
3488.104253112033
 20
624.3334923062079
 30
0.0
 11
3488.104253112033
 21
625.7022682398177
 31
0.0
  0
LINE
  5
64
330
2F
100
AcDbEntity
  8
0
 62
7
100
AcDbLine
 10
3491.578838174275
 20
636.5471852522659
 30
0.0
 11
3494.632261410789
 21
636.5471852522659
 31
0.0
  0
LINE
  5
65
330
2F
100
AcDbEntity
  8
0
 62
7
100
AcDbLine
 10
3492.0
 20
657.4999860821414
 30
0.0
 11
3494.632261410789
 21
657.4999860821414
 31
0.0
  0
LINE
  5
66
330
2F
100
AcDbEntity
  8
0
 62
7
100
AcDbLine
 10
3492.0
 20
650.6561064140916
 30
0.0
 11
3494.632261410789
 21
650.6561064140916
 31
0.0
  0
LINE
  5
67
330
2F
100
AcDbEntity
  8
0
 62
7
100
AcDbLine
 10
3489.578319502076
 20
654.0254010199008
 30
0.0
 11
3496.001037344399
 21
654.0254010199008
 31
0.0
  0
ARC
  5
68
330
2F
100
AcDbEntity
  8
0
 62
7
100
AcDbCircle
 10
3404.294293772404
 20
650.1441838168479
 30
0.0
 40
24.4563826452036
100
AcDbArc
 50
271.9708482902278
 51
329.428596811353
  0
LINE
  5
69
330
2F
100
AcDbEntity
  8
0
 62
7
100
AcDbLine
 10
3425.351141078838
 20
637.7053802730126
 30
0.0
 11
3474.627074688797
 21
637.7053802730126
 31
0.0
  0
LINE
  5
6A
330
2F
100
AcDbEntity
  8
0
 62
7
100
AcDbLine
 10
3474.627074688797
 20
637.7053802730126
 30
0.0
 11
3475.574688796682
 21
637.7053802730126
 31
0.0
  0
LINE
  5
6B
330
2F
100
AcDbEntity
  8
0
 62
7
100
AcDbLine
 10
3475.574688796682
 20
637.7053802730126
 30
0.0
 11
3475.574688796682
 21
646.8656499825562
 31
0.0
  0
LINE
  5
6C
330
2F
100
AcDbEntity
  8
0
 62
7
100
AcDbLine
 10
3475.574688796682
 20
637.7053802730126
 30
0.0
 11
3475.574688796682
 21
595.6944881568301
 31
0.0
  0
LINE
  5
6D
330
2F
100
AcDbEntity
  8
0
 62
7
100
AcDbLine
 10
3475.574688796682
 20
595.6944881568301
 30
0.0
 11
3427.035788381743
 21
595.6944881568301
 31
0.0
  0
LWPOLYLINE
  5
6E
330
2F
100
AcDbEntity
  8
0
 62
7
100
AcDbPolyline
 90
4
 70
1
 10
3475.574688796682
 20
619.9112931360831
 10
3480.102178423236
 20
619.9112931360831
 10
3480.102178423236
 20
608.4346333850458
 10
3475.574688796682
 20
608.4346333850458
  0
ARC
  5
6F
330
2F
100
AcDbEntity
  8
0
 62
7
100
AcDbCircle
 10
3482.211277878632
 20
614.1203180323489
 30
0.0
 40
6.636797884726834
100
AcDbArc
 50
144.0561633219422
 51
215.9438366780578
  0
LINE
  5
70
330
2F
100
AcDbEntity
  8
0
 62
7
100
AcDbLine
 10
3476.838174273858
 20
618.0160649203156
 30
0.0
 11
3478.628112033195
 21
618.0160649203156
 31
0.0
  0
LINE
  5
71
330
2F
100
AcDbEntity
  8
0
 62
7
100
AcDbLine
 10
3478.628112033195
 20
618.0160649203156
 30
0.0
 11
3478.628112033195
 21
610.224571144382
 31
0.0
  0
LINE
  5
72
330
2F
100
AcDbEntity
  8
0
 62
7
100
AcDbLine
 10
3476.838174273858
 20
610.224571144382
 30
0.0
 11
3478.628112033195
 21
610.224571144382
 31
0.0
  0
LINE
  5
73
330
2F
100
AcDbEntity
  8
0
 62
7
100
AcDbLine
 10
3478.628112033195
 20
618.0160649203156
 30
0.0
 11
3480.102178423236
 21
619.9112931360831
 31
0.0
  0
LINE
  5
74
330
2F
100
AcDbEntity
  8
0
 62
7
100
AcDbLine
 10
3478.628112033195
 20
610.224571144382
 30
0.0
 11
3480.102178423236
 21
608.4346333850458
 31
0.0
  0
ARC
  5
75
330
2F
100
AcDbEntity
  8
0
 62
7
100
AcDbCircle
 10
3462.531140805854
 20
570.322258958315
 30
0.0
 40
43.63106758049518
100
AcDbArc
 50
144.4426537955598
 51
158.3364268724703
  0
LINE
  5
76
330
2F
100
AcDbEntity
  8
0
 62
7
100
AcDbLine
 10
3421.98184647303
 20
586.428927990855
 30
0.0
 11
3398.607365145229
 21
586.428927990855
 31
0.0
  0
LINE
  5
77
330
2F
100
AcDbEntity
  8
0
 62
7
100
AcDbLine
 10
3427.772821576764
 20
646.0233263311039
 30
0.0
 11
3427.772821576764
 21
637.7053802730126
 31
0.0
  0
ARC
  5
78
330
2F
100
AcDbEntity
  8
0
 62
7
100
AcDbCircle
 10
3414.703433549736
 20
573.1987007687698
 30
0.0
 40
20.83560247342448
100
AcDbArc
 50
140.581369439853
 51
180.6791064903809
  0
LINE
  5
79
330
2F
100
AcDbEntity
  8
0
 62
7
100
AcDbLine
 10
3393.869294605809
 20
572.9517495676184
 30
0.0
 11
3393.869294605809
 21
570.0036167875355
 31
0.0
  0
LINE
  5
7A
330
2F
100
AcDbEntity
  8
0
 62
7
100
AcDbLine
 10
3393.869294605809
 20
570.0036167875355
 30
0.0
 11
3340.065871369296
 21
570.0036167875355
 31
0.0
  0
LINE
  5
7B
330
2F
100
AcDbEntity
  8
0
 62
7
100
AcDbLine
 10
3393.869294605809
 20
570.0036167875355
 30
0.0
 11
3403.871887966805
 21
570.0036167875355
 31
0.0
  0
ARC
  5
7C
330
2F
100
AcDbEntity
  8
0
 62
7
100
AcDbCircle
 10
3440.670902489627
 20
563.0018014348384
 30
0.0
 40
37.45921633035184
100
AcDbArc
 50
153.9031000221214
 51
169.2270023320557
  0
LINE
  5
7D
330
2F
100
AcDbEntity
  8
0
 62
7
100
AcDbLine
 10
3407.030601659753
 20
579.4797578663738
 30
0.0
 11
3428.19398340249
 21
579.4797578663738
 31
0.0
  0
ARC
  5
7E
330
2F
100
AcDbEntity
  8
0
 62
7
100
AcDbCircle
 10
3475.983316044261
 20
563.1121057225286
 30
0.0
 40
50.5145558334201
100
AcDbArc
 50
150.3344732452852
 51
161.0938764434678
  0
LINE
  5
7F
330
2F
100
AcDbEntity
  8
0
 62
7
100
AcDbLine
 10
3432.089730290458
 20
588.1135752937596
 30
0.0
 11
3453.884854771786
 21
588.1135752937596
 31
0.0
  0
LINE
  5
80
330
2F
100
AcDbEntity
  8
0
 62
7
100
AcDbLine
 10
3453.884854771786
 20
588.1135752937596
 30
0.0
 11
3453.884854771786
 21
595.6944881568301
 31
0.0
  0
CIRCLE
  5
81
330
2F
100
AcDbEntity
  8
0
 62
7
100
AcDbCircle
 10
3468.309647302906
 20
579.1638864970791
 30
0.0
 40
3.474585062240663
  0
CIRCLE
  5
82
330
2F
100
AcDbEntity
  8
0
 62
7
100
AcDbCircle
 10
3468.309647302906
 20
579.1638864970791
 30
0.0
 40
5.159232365145228
  0
LINE
  5
83
330
2F
100
AcDbEntity
  8
0
 62
7
100
AcDbLine
 10
3467.677904564317
 20
584.2842946555954
 30
0.0
 11
3467.677904564317
 21
582.5805577524072
 31
0.0
  0
LINE
  5
84
330
2F
100
AcDbEntity
  8
0
 62
7
100
AcDbLine
 10
3467.677904564317
 20
575.7472152417508
 30
0.0
 11
3467.677904564317
 21
574.0434783385626
 31
0.0
  0
LINE
  5
85
330
2F
100
AcDbEntity
  8
0
 62
7
100
AcDbLine
 10
3468.836099585062
 20
584.2961887672275
 30
0.0
 11
3468.836099585062
 21
582.5983572495178
 31
0.0
  0
LINE
  5
86
330
2F
100
AcDbEntity
  8
0
 62
7
100
AcDbLine
 10
3468.836099585062
 20
575.7294157446404
 30
0.0
 11
3468.836099585062
 21
574.0315842269302
 31
0.0
  0
LINE
  5
87
330
2F
100
AcDbEntity
  8
0
 62
7
100
AcDbLine
 10
3463.219640479356
 20
580.0062101485313
 30
0.0
 11
3464.938707935169
 21
580.0062101485313
 31
0.0
  0
LINE
  5
88
330
2F
100
AcDbEntity
  8
0
 62
7
100
AcDbLine
 10
3471.68058667064
 20
580.0062101485313
 30
0.0
 11
3473.399654126453
 21
580.0062101485313
 31
0.0
  0
LINE
  5
89
330
2F
100
AcDbEntity
  8
0
 62
7
100
AcDbLine
 10
3463.177345032756
 20
578.6374342149213
 30
0.0
 11
3464.875176550466
 21
578.6374342149213
 31
0.0
  0
LINE
  5
8A
330
2F
100
AcDbEntity
  8
0
 62
7
100
AcDbLine
 10
3471.744118055344
 20
578.6374342149213
 30
0.0
 11
3473.441949573054
 21
578.6374342149213
 31
0.0
  0
CIRCLE
  5
8B
330
2F
100
AcDbEntity
  8
0
 62
7
100
AcDbCircle
 10
3448.199170124482
 20
581.2696956257098
 30
0.0
 40
1.684647302904563
  0
CIRCLE
  5
8C
330
2F
100
AcDbEntity
  8
0
 62
7
100
AcDbCircle
 10
3448.199170124482
 20
581.2696956257098
 30
0.0
 40
2.105809128630705
  0
CIRCLE
  5
8D
330
2F
100
AcDbEntity
  8
0
 62
7
100
AcDbCircle
 10
3427.456950207468
 20
574.2152350447969
 30
0.0
 40
1.368775933609958
  0
CIRCLE
  5
8E
330
2F
100
AcDbEntity
  8
0
 62
7
100
AcDbCircle
 10
3427.456950207468
 20
574.2152350447969
 30
0.0
 40
1.789937759336098
  0
CIRCLE
  5
8F
330
2F
100
AcDbEntity
  8
0
 62
7
100
AcDbCircle
 10
3427.456950207468
 20
574.2152350447969
 30
0.0
 40
3.685165975103734
  0
CIRCLE
  5
90
330
2F
100
AcDbEntity
  8
0
 62
7
100
AcDbCircle
 10
3427.456950207468
 20
574.2152350447969
 30
0.0
 40
4.316908713692946
  0
CIRCLE
  5
91
330
2F
100
AcDbEntity
  8
0
 62
7
100
AcDbCircle
 10
3418.61255186722
 20
574.2152350447969
 30
0.0
 40
1.684647302904563
  0
CIRCLE
  5
92
330
2F
100
AcDbEntity
  8
0
 62
7
100
AcDbCircle
 10
3418.61255186722
 20
574.2152350447969
 30
0.0
 40
2.105809128630705
  0
LWPOLYLINE
  5
93
330
2F
100
AcDbEntity
  8
0
 62
7
100
AcDbPolyline
 90
4
 70
1
 10
3433.66908713693
 20
575.5840109784069
 10
3437.03838174274
 20
575.5840109784069
 10
3437.03838174274
 20
573.6887827626392
 10
3433.66908713693
 20
573.6887827626392
  0
LWPOLYLINE
  5
94
330
2F
100
AcDbEntity
  8
0
 62
7
100
AcDbPolyline
 90
4
 70
1
 10
3433.247925311203
 20
576.1104632605646
 10
3437.459543568466
 20
576.1104632605646
 10
3437.459543568466
 20
573.2676209369129
 10
3433.247925311203
 20
573.2676209369129
  0
LINE
  5
95
330
2F
100
AcDbEntity
  8
0
 62
7
100
AcDbLine
 10
3376.706950207469
 20
493.562745418241
 30
0.0
 11
3318.534232365145
 21
493.562745418241
 31
0.0
  0
LINE
  5
96
330
2F
100
AcDbEntity
  8
0
 62
7
100
AcDbLine
 10
3318.534232365145
 20
493.562745418241
 30
0.0
 11
3315.691390041495
 21
496.3002972854608
 31
0.0
  0
LINE
  5
97
330
2F
100
AcDbEntity
  8
0
 62
7
100
AcDbLine
 10
3315.691390041495
 20
496.3002972854608
 30
0.0
 11
3315.691390041495
 21
536.9424134680334
 31
0.0
  0
LINE
  5
98
330
2F
100
AcDbEntity
  8
0
 62
7
100
AcDbLine
 10
3315.691390041495
 20
536.9424134680334
 30
0.0
 11
3310.110995850622
 21
536.9424134680334
 31
0.0
  0
LINE
  5
99
330
2F
100
AcDbEntity
  8
0
 62
7
100
AcDbLine
 10
3310.110995850622
 20
536.9424134680334
 30
0.0
 11
3310.110995850622
 21
550.9460441734277
 31
0.0
  0
LINE
  5
9A
330
2F
100
AcDbEntity
  8
0
 62
7
100
AcDbLine
 10
3310.110995850622
 20
550.9460441734277
 30
0.0
 11
3315.691390041495
 21
550.9460441734277
 31
0.0
  0
LINE
  5
9B
330
2F
100
AcDbEntity
  8
0
 62
7
100
AcDbLine
 10
3315.691390041495
 20
536.9424134680334
 30
0.0
 11
3315.691390041495
 21
550.9460441734277
 31
0.0
  0
LINE
  5
9C
330
2F
100
AcDbEntity
  8
0
 62
7
100
AcDbLine
 10
3376.706950207469
 20
493.562745418241
 30
0.0
 11
3376.706950207469
 21
465.3449030945894
 31
0.0
  0
LINE
  5
9D
330
2F
100
AcDbEntity
  8
0
 62
7
100
AcDbLine
 10
3376.706950207469
 20
465.3449030945894
 30
0.0
 11
3381.129149377593
 21
465.3449030945894
 31
0.0
  0
LINE
  5
9E
330
2F
100
AcDbEntity
  8
0
 62
7
100
AcDbLine
 10
3381.129149377593
 20
465.3449030945894
 30
0.0
 11
3381.129149377593
 21
493.562745418241
 31
0.0
  0
LINE
  5
9F
330
2F
100
AcDbEntity
  8
0
 62
7
100
AcDbLine
 10
3376.706950207469
 20
493.562745418241
 30
0.0
 11
3405.135373443984
 21
493.562745418241
 31
0.0
  0
LINE
  5
A0
330
2F
100
AcDbEntity
  8
0
 62
7
100
AcDbLine
 10
3376.706950207469
 20
472.6099445883654
 30
0.0
 11
3381.129149377593
 21
472.6099445883654
 31
0.0
  0
LINE
  5
A1
330
2F
100
AcDbEntity
  8
0
 62
7
100
AcDbLine
 10
3376.706950207469
 20
483.349571144382
 30
0.0
 11
3381.129149377593
 21
483.349571144382
 31
0.0
  0
LINE
  5
A2
330
2F
100
AcDbEntity
  8
0
 62
7
100
AcDbLine
 10
3485.15612033195
 20
473.2416873269547
 30
0.0
 11
3492.0
 21
473.2416873269547
 31
0.0
  0
LINE
  5
A3
330
2F
100
AcDbEntity
  8
0
 62
7
100
AcDbLine
 10
3492.0
 20
473.2416873269547
 30
0.0
 11
3492.0
 21
458.1851520572451
 31
0.0
  0
LINE
  5
A4
330
2F
100
AcDbEntity
  8
0
 62
7
100
AcDbLine
 10
3492.0
 20
458.1851520572451
 30
0.0
 11
3494.632261410789
 21
458.1851520572451
 31
0.0
  0
LINE
  5
A5
330
2F
100
AcDbEntity
  8
0
 62
7
100
AcDbLine
 10
3494.632261410789
 20
458.1851520572451
 30
0.0
 11
3494.632261410789
 21
492.9310026796517
 31
0.0
  0
ARC
  5
A6
330
2F
100
AcDbEntity
  8
0
 62
7
100
AcDbCircle
 10
3490.713952282158
 20
492.9535649203156
 30
0.0
 40
3.918374086558723
100
AcDbArc
 50
359.6700855300205
 51
74.06970976161558
  0
LINE
  5
A7
330
2F
100
AcDbEntity
  8
0
 62
7
100
AcDbLine
 10
3491.789419087137
 20
496.7214591111869
 30
0.0
 11
3488.209543568466
 21
496.7214591111869
 31
0.0
  0
LINE
  5
A8
330
2F
100
AcDbEntity
  8
0
 62
7
100
AcDbLine
 10
3488.209543568466
 20
496.7214591111869
 30
0.0
 11
3488.209543568466
 21
501.2489487377429
 31
0.0
  0
LINE
  5
A9
330
2F
100
AcDbEntity
  8
0
 62
7
100
AcDbLine
 10
3488.209543568466
 20
501.2489487377429
 30
0.0
 11
3490.315352697098
 21
501.2489487377429
 31
0.0
  0
LINE
  5
AA
330
2F
100
AcDbEntity
  8
0
 62
7
100
AcDbLine
 10
3490.315352697098
 20
501.2489487377429
 30
0.0
 11
3490.315352697098
 21
508.935152057245
 31
0.0
  0
LINE
  5
AB
330
2F
100
AcDbEntity
  8
0
 62
7
100
AcDbLine
 10
3490.315352697098
 20
508.935152057245
 30
0.0
 11
3488.209543568466
 21
508.935152057245
 31
0.0
  0
LINE
  5
AC
330
2F
100
AcDbEntity
  8
0
 62
7
100
AcDbLine
 10
3488.209543568466
 20
508.935152057245
 30
0.0
 11
3488.209543568466
 21
511.8832848373281
 31
0.0
  0
LINE
  5
AD
330
2F
100
AcDbEntity
  8
0
 62
7
100
AcDbLine
 10
3488.209543568466
 20
511.8832848373281
 30
0.0
 11
3491.368257261412
 21
515.0419985302741
 31
0.0
  0
LINE
  5
AE
330
2F
100
AcDbEntity
  8
0
 62
7
100
AcDbLine
 10
3491.578838174275
 20
473.2416873269547
 30
0.0
 11
3491.578838174275
 21
492.1939694846309
 31
0.0
  0
LINE
  5
AF
330
2F
100
AcDbEntity
  8
0
 62
7
100
AcDbLine
 10
3491.578838174275
 20
492.1939694846309
 30
0.0
 11
3491.578838174275
 21
493.562745418241
 31
0.0
  0
LINE
  5
B0
330
2F
100
AcDbEntity
  8
0
 62
7
100
AcDbLine
 10
3491.578838174275
 20
493.562745418241
 30
0.0
 11
3485.682572614109
 21
493.562745418241
 31
0.0
  0
LINE
  5
B1
330
2F
100
AcDbEntity
  8
0
 62
7
100
AcDbLine
 10
3485.682572614109
 20
493.562745418241
 30
0.0
 11
3485.682572614109
 21
515.0419985302741
 31
0.0
  0
LINE
  5
B2
330
2F
100
AcDbEntity
  8
0
 62
7
100
AcDbLine
 10
3485.682572614109
 20
515.0419985302741
 30
0.0
 11
3491.368257261412
 21
515.0419985302741
 31
0.0
  0
LINE
  5
B3
330
2F
100
AcDbEntity
  8
0
 62
7
100
AcDbLine
 10
3488.209543568466
 20
511.8832848373281
 30
0.0
 11
3488.209543568466
 21
515.0419985302741
 31
0.0
  0
LINE
  5
B4
330
2F
100
AcDbEntity
  8
0
 62
7
100
AcDbLine
 10
3485.682572614109
 20
514.0943844223902
 30
0.0
 11
3488.209543568466
 21
514.0943844223902
 31
0.0
  0
LINE
  5
B5
330
2F
100
AcDbEntity
  8
0
 62
7
100
AcDbLine
 10
3488.209543568466
 20
501.2489487377429
 30
0.0
 11
3488.209543568466
 21
508.935152057245
 31
0.0
  0
ARC
  5
B6
330
2F
100
AcDbEntity
  8
0
 62
7
100
AcDbCircle
 10
3490.199533195022
 20
493.6575068290293
 30
0.0
 40
1.382556310161221
100
AcDbArc
 50
356.0698244542696
 51
67.14518003820754
  0
LINE
  5
B7
330
2F
100
AcDbEntity
  8
0
 62
7
100
AcDbLine
 10
3490.736514522821
 20
494.9315213518509
 30
0.0
 11
3488.104253112033
 21
494.9315213518509
 31
0.0
  0
ARC
  5
B8
330
2F
100
AcDbEntity
  8
0
 62
7
100
AcDbCircle
 10
3490.085511334886
 20
499.4269102294953
 30
0.0
 40
4.912627128825403
100
AcDbArc
 50
206.3306454384072
 51
246.2154146017401
  0
LINE
  5
B9
330
2F
100
AcDbEntity
  8
0
 62
7
100
AcDbLine
 10
3488.104253112033
 20
494.9315213518509
 30
0.0
 11
3488.104253112033
 21
493.562745418241
 31
0.0
  0
ARC
  5
BA
330
2F
100
AcDbEntity
  8
0
 62
7
100
AcDbCircle
 10
3404.294293772404
 20
469.1208298412107
 30
0.0
 40
24.4563826452036
100
AcDbArc
 50
30.57140318865224
 51
88.02915170977215
  0
LINE
  5
BB
330
2F
100
AcDbEntity
  8
0
 62
7
100
AcDbLine
 10
3425.351141078838
 20
481.5596333850458
 30
0.0
 11
3474.627074688797
 21
481.5596333850458
 31
0.0
  0
LINE
  5
BC
330
2F
100
AcDbEntity
  8
0
 62
7
100
AcDbLine
 10
3474.627074688797
 20
481.5596333850458
 30
0.0
 11
3475.574688796682
 21
481.5596333850458
 31
0.0
  0
LINE
  5
BD
330
2F
100
AcDbEntity
  8
0
 62
7
100
AcDbLine
 10
3475.574688796682
 20
481.5596333850458
 30
0.0
 11
3475.574688796682
 21
473.2416873269547
 31
0.0
  0
LINE
  5
BE
330
2F
100
AcDbEntity
  8
0
 62
7
100
AcDbLine
 10
3475.574688796682
 20
481.5596333850458
 30
0.0
 11
3475.574688796682
 21
523.5705255012285
 31
0.0
  0
LINE
  5
BF
330
2F
100
AcDbEntity
  8
0
 62
7
100
AcDbLine
 10
3475.574688796682
 20
523.5705255012285
 30
0.0
 11
3427.035788381743
 21
523.5705255012285
 31
0.0
  0
LWPOLYLINE
  5
C0
330
2F
100
AcDbEntity
  8
0
 62
7
100
AcDbPolyline
 90
4
 70
1
 10
3475.574688796682
 20
499.3537205219753
 10
3480.102178423236
 20
499.3537205219753
 10
3480.102178423236
 20
510.8303802730127
 10
3475.574688796682
 20
510.8303802730127
  0
ARC
  5
C1
330
2F
100
AcDbEntity
  8
0
 62
7
100
AcDbCircle
 10
3482.211277878632
 20
505.1446956257096
 30
0.0
 40
6.636797884726834
100
AcDbArc
 50
144.0561633219422
 51
215.9438366780578
  0
LINE
  5
C2
330
2F
100
AcDbEntity
  8
0
 62
7
100
AcDbLine
 10
3476.838174273858
 20
501.2489487377429
 30
0.0
 11
3478.628112033195
 21
501.2489487377429
 31
0.0
  0
LINE
  5
C3
330
2F
100
AcDbEntity
  8
0
 62
7
100
AcDbLine
 10
3478.628112033195
 20
501.2489487377429
 30
0.0
 11
3478.628112033195
 21
509.0404425136767
 31
0.0
  0
LINE
  5
C4
330
2F
100
AcDbEntity
  8
0
 62
7
100
AcDbLine
 10
3476.838174273858
 20
509.0404425136767
 30
0.0
 11
3478.628112033195
 21
509.0404425136767
 31
0.0
  0
LINE
  5
C5
330
2F
100
AcDbEntity
  8
0
 62
7
100
AcDbLine
 10
3478.628112033195
 20
501.2489487377429
 30
0.0
 11
3480.102178423236
 21
499.3537205219753
 31
0.0
  0
LINE
  5
C6
330
2F
100
AcDbEntity
  8
0
 62
7
100
AcDbLine
 10
3478.628112033195
 20
509.0404425136767
 30
0.0
 11
3480.102178423236
 21
510.8303802730127
 31
0.0
  0
ARC
  5
C7
330
2F
100
AcDbEntity
  8
0
 62
7
100
AcDbCircle
 10
3462.531140805854
 20
548.9427546997433
 30
0.0
 40
43.63106758049518
100
AcDbArc
 50
201.6635731275178
 51
215.5573462044402
  0
LINE
  5
C8
330
2F
100
AcDbEntity
  8
0
 62
7
100
AcDbLine
 10
3421.98184647303
 20
532.8360856672036
 30
0.0
 11
3398.607365145229
 21
532.8360856672036
 31
0.0
  0
ARC
  5
C9
330
2F
100
AcDbEntity
  8
0
 62
7
100
AcDbCircle
 10
3414.703433549736
 20
546.0663128892885
 30
0.0
 40
20.83560247342448
100
AcDbArc
 50
179.320893509619
 51
219.418630560147
  0
LINE
  5
CA
330
2F
100
AcDbEntity
  8
0
 62
7
100
AcDbLine
 10
3393.869294605809
 20
546.31326409044
 30
0.0
 11
3393.869294605809
 21
549.2613968705231
 31
0.0
  0
LINE
  5
CB
330
2F
100
AcDbEntity
  8
0
 62
7
100
AcDbLine
 10
3393.869294605809
 20
549.2613968705231
 30
0.0
 11
3340.065871369296
 21
549.2613968705231
 31
0.0
  0
LINE
  5
CC
330
2F
100
AcDbEntity
  8
0
 62
7
100
AcDbLine
 10
3393.869294605809
 20
549.2613968705231
 30
0.0
 11
3403.871887966805
 21
549.2613968705231
 31
0.0
  0
ARC
  5
CD
330
2F
100
AcDbEntity
  8
0
 62
7
100
AcDbCircle
 10
3440.670902489627
 20
556.2632122232201
 30
0.0
 40
37.45921633035184
100
AcDbArc
 50
190.7729976679315
 51
206.0968999778917
  0
LINE
  5
CE
330
2F
100
AcDbEntity
  8
0
 62
7
100
AcDbLine
 10
3407.030601659753
 20
539.7852557916849
 30
0.0
 11
3428.19398340249
 21
539.7852557916849
 31
0.0
  0
ARC
  5
CF
330
2F
100
AcDbEntity
  8
0
 62
7
100
AcDbCircle
 10
3475.983316044261
 20
556.15290793553
 30
0.0
 40
50.5145558334201
100
AcDbArc
 50
198.9061235565321
 51
209.6655267547148
  0
LINE
  5
D0
330
2F
100
AcDbEntity
  8
0
 62
7
100
AcDbLine
 10
3432.089730290458
 20
531.151438364299
 30
0.0
 11
3453.884854771786
 21
531.151438364299
 31
0.0
  0
LINE
  5
D1
330
2F
100
AcDbEntity
  8
0
 62
7
100
AcDbLine
 10
3453.884854771786
 20
531.151438364299
 30
0.0
 11
3453.884854771786
 21
523.5705255012285
 31
0.0
  0
CIRCLE
  5
D2
330
2F
100
AcDbEntity
  8
0
 62
7
100
AcDbCircle
 10
3468.309647302906
 20
540.1011271609794
 30
0.0
 40
3.474585062240663
  0
CIRCLE
  5
D3
330
2F
100
AcDbEntity
  8
0
 62
7
100
AcDbCircle
 10
3468.309647302906
 20
540.1011271609794
 30
0.0
 40
5.159232365145228
  0
LINE
  5
D4
330
2F
100
AcDbEntity
  8
0
 62
7
100
AcDbLine
 10
3467.677904564317
 20
534.980719002463
 30
0.0
 11
3467.677904564317
 21
536.6844559056512
 31
0.0
  0
LINE
  5
D5
330
2F
100
AcDbEntity
  8
0
 62
7
100
AcDbLine
 10
3467.677904564317
 20
543.5177984163076
 30
0.0
 11
3467.677904564317
 21
545.2215353194958
 31
0.0
  0
LINE
  5
D6
330
2F
100
AcDbEntity
  8
0
 62
7
100
AcDbLine
 10
3468.836099585062
 20
534.9688248908308
 30
0.0
 11
3468.836099585062
 21
536.6666564085408
 31
0.0
  0
LINE
  5
D7
330
2F
100
AcDbEntity
  8
0
 62
7
100
AcDbLine
 10
3468.836099585062
 20
543.5355979134183
 30
0.0
 11
3468.836099585062
 21
545.2334294311281
 31
0.0
  0
LINE
  5
D8
330
2F
100
AcDbEntity
  8
0
 62
7
100
AcDbLine
 10
3463.219640479356
 20
539.2588035095273
 30
0.0
 11
3464.938707935169
 21
539.2588035095273
 31
0.0
  0
LINE
  5
D9
330
2F
100
AcDbEntity
  8
0
 62
7
100
AcDbLine
 10
3471.68058667064
 20
539.2588035095273
 30
0.0
 11
3473.399654126453
 21
539.2588035095273
 31
0.0
  0
LINE
  5
DA
330
2F
100
AcDbEntity
  8
0
 62
7
100
AcDbLine
 10
3463.177345032756
 20
540.6275794431372
 30
0.0
 11
3464.875176550466
 21
540.6275794431372
 31
0.0
  0
LINE
  5
DB
330
2F
100
AcDbEntity
  8
0
 62
7
100
AcDbLine
 10
3471.744118055344
 20
540.6275794431372
 30
0.0
 11
3473.441949573054
 21
540.6275794431372
 31
0.0
  0
CIRCLE
  5
DC
330
2F
100
AcDbEntity
  8
0
 62
7
100
AcDbCircle
 10
3448.199170124482
 20
537.9953180323489
 30
0.0
 40
1.684647302904563
  0
CIRCLE
  5
DD
330
2F
100
AcDbEntity
  8
0
 62
7
100
AcDbCircle
 10
3448.199170124482
 20
537.9953180323489
 30
0.0
 40
2.105809128630705
  0
CIRCLE
  5
DE
330
2F
100
AcDbEntity
  8
0
 62
7
100
AcDbCircle
 10
3427.456950207468
 20
545.0497786132617
 30
0.0
 40
1.368775933609958
  0
CIRCLE
  5
DF
330
2F
100
AcDbEntity
  8
0
 62
7
100
AcDbCircle
 10
3427.456950207468
 20
545.0497786132617
 30
0.0
 40
1.789937759336098
  0
CIRCLE
  5
E0
330
2F
100
AcDbEntity
  8
0
 62
7
100
AcDbCircle
 10
3427.456950207468
 20
545.0497786132617
 30
0.0
 40
3.685165975103734
  0
CIRCLE
  5
E1
330
2F
100
AcDbEntity
  8
0
 62
7
100
AcDbCircle
 10
3427.456950207468
 20
545.0497786132617
 30
0.0
 40
4.316908713692946
  0
CIRCLE
  5
E2
330
2F
100
AcDbEntity
  8
0
 62
7
100
AcDbCircle
 10
3418.61255186722
 20
545.0497786132617
 30
0.0
 40
1.684647302904563
  0
CIRCLE
  5
E3
330
2F
100
AcDbEntity
  8
0
 62
7
100
AcDbCircle
 10
3418.61255186722
 20
545.0497786132617
 30
0.0
 40
2.105809128630705
  0
LWPOLYLINE
  5
E4
330
2F
100
AcDbEntity
  8
0
 62
7
100
AcDbPolyline
 90
4
 70
1
 10
3433.66908713693
 20
543.6810026796518
 10
3437.03838174274
 20
543.6810026796518
 10
3437.03838174274
 20
545.5762308954191
 10
3433.66908713693
 20
545.5762308954191
  0
LWPOLYLINE
  5
E5
330
2F
100
AcDbEntity
  8
0
 62
7
100
AcDbPolyline
 90
4
 70
1
 10
3433.247925311203
 20
543.154550397494
 10
3437.459543568466
 20
543.154550397494
 10
3437.459543568466
 20
545.9973927211454
 10
3433.247925311203
 20
545.9973927211454
  0
LINE
  5
E6
330
2F
100
AcDbEntity
  8
0
 62
7
100
AcDbLine
 10
3494.421680497926
 20
602.0119155427222
 30
0.0
 11
3494.421680497926
 21
517.253098115336
 31
0.0
  0
LINE
  5
E7
330
2F
100
AcDbEntity
  8
0
 62
7
100
AcDbLine
 10
3491.368257261412
 20
515.0419985302741
 30
0.0
 11
3494.421680497926
 21
517.253098115336
 31
0.0
  0
LINE
  5
E8
330
2F
100
AcDbEntity
  8
0
 62
7
100
AcDbLine
 10
3485.15612033195
 20
473.2416873269547
 30
0.0
 11
3475.574688796682
 21
473.2416873269547
 31
0.0
  0
LINE
  5
E9
330
2F
100
AcDbEntity
  8
0
 62
7
100
AcDbLine
 10
3340.065871369296
 20
570.0036167875355
 30
0.0
 11
3340.065871369296
 21
549.2613968705231
 31
0.0
  0
LINE
  5
EA
330
2F
100
AcDbEntity
  8
0
 62
7
100
AcDbLine
 10
3341.013485477179
 20
570.0036167875355
 30
0.0
 11
3341.013485477179
 21
566.002579443137
 31
0.0
  0
LINE
  5
EB
330
2F
100
AcDbEntity
  8
0
 62
7
100
AcDbLine
 10
3341.013485477179
 20
566.002579443137
 30
0.0
 11
3346.383298755187
 21
566.002579443137
 31
0.0
  0
LINE
  5
EC
330
2F
100
AcDbEntity
  8
0
 62
7
100
AcDbLine
 10
3346.383298755187
 20
566.002579443137
 30
0.0
 11
3346.383298755187
 21
552.9465628456269
 31
0.0
  0
LINE
  5
ED
330
2F
100
AcDbEntity
  8
0
 62
7
100
AcDbLine
 10
3346.383298755187
 20
552.9465628456269
 30
0.0
 11
3341.11877593361
 21
552.9465628456269
 31
0.0
  0
LINE
  5
EE
330
2F
100
AcDbEntity
  8
0
 62
7
100
AcDbLine
 10
3341.11877593361
 20
552.9465628456269
 30
0.0
 11
3341.11877593361
 21
549.2613968705231
 31
0.0
  0
LINE
  5
EF
330
2F
100
AcDbEntity
  8
0
 62
7
100
AcDbLine
 10
3341.013485477179
 20
566.002579443137
 30
0.0
 11
3340.065871369296
 21
565.0549653352534
 31
0.0
  0
LINE
  5
F0
330
2F
100
AcDbEntity
  8
0
 62
7
100
AcDbLine
 10
3341.11877593361
 20
552.9465628456269
 30
0.0
 11
3340.065871369296
 21
553.8941769535106
 31
0.0
  0
LWPOLYLINE
  5
F1
330
2F
100
AcDbEntity
  8
0
 62
7
100
AcDbPolyline
 90
4
 70
1
 10
3398.712655601662
 20
562.212123011602
 10
3419.349585062241
 20
562.212123011602
 10
3419.349585062241
 20
556.737019277162
 10
3398.712655601662
 20
556.737019277162
  0
LINE
  5
F2
330
2F
100
AcDbEntity
  8
0
 62
7
100
AcDbLine
 10
3459.465248962657
 20
595.6944881568301
 30
0.0
 11
3459.465248962657
 21
523.5705255012285
 31
0.0
  0
LINE
  5
F3
330
2F
100
AcDbEntity
  8
0
 62
7
100
AcDbLine
 10
3393.869294605809
 20
570.0036167875355
 30
0.0
 11
3393.869294605809
 21
549.2613968705231
 31
0.0
  0
LINE
  5
F4
330
2F
100
AcDbEntity
  8
0
 62
7
100
AcDbLine
 10
3393.869294605809
 20
565.2655462481163
 30
0.0
 11
3385.65663900415
 21
565.2655462481163
 31
0.0
  0
ARC
  5
F5
330
2F
100
AcDbEntity
  8
0
 62
7
100
AcDbCircle
 10
3390.725955183051
 20
560.3285419702181
 30
0.0
 40
7.076155577829521
100
AcDbArc
 50
135.7575683551046
 51
169.810208530288
  0
ARC
  5
F6
330
2F
100
AcDbEntity
  8
0
 62
7
100
AcDbCircle
 10
3383.945669087137
 20
559.5008937584898
 30
0.0
 40
2.087633896242928
100
AcDbArc
 50
95.06361685298502
 51
246.9911299172155
  0
LINE
  5
F7
330
2F
100
AcDbEntity
  8
0
 62
7
100
AcDbLine
 10
3383.129668049793
 20
557.5793429286143
 30
0.0
 11
3393.869294605809
 21
557.5793429286143
 31
0.0
  0
LINE
  5
F8
330
2F
100
AcDbEntity
  8
0
 62
7
100
AcDbLine
 10
3392.500518672199
 20
565.2655462481163
 30
0.0
 11
3392.500518672199
 21
568.740131310357
 31
0.0
  0
LINE
  5
F9
330
2F
100
AcDbEntity
  8
0
 62
7
100
AcDbLine
 10
3392.395228215768
 20
557.5793429286143
 30
0.0
 11
3392.395228215768
 21
549.9984300655437
 31
0.0
  0
LINE
  5
FA
330
2F
100
AcDbEntity
  8
0
 62
7
100
AcDbLine
 10
3315.691390041495
 20
568.3189694846308
 30
0.0
 11
3315.691390041495
 21
550.9460441734277
 31
0.0
  0
LINE
  5
FB
330
2F
100
AcDbEntity
  8
0
 62
7
100
AcDbLine
 10
3315.691390041495
 20
584.7442806879505
 30
0.0
 11
3318.955394190873
 21
581.4802765385728
 31
0.0
  0
LINE
  5
FC
330
2F
100
AcDbEntity
  8
0
 62
7
100
AcDbLine
 10
3318.955394190873
 20
581.4802765385728
 30
0.0
 11
3318.955394190873
 21
537.047703924465
 31
0.0
  0
LINE
  5
FD
330
2F
100
AcDbEntity
  8
0
 62
7
100
AcDbLine
 10
3318.955394190873
 20
581.4802765385728
 30
0.0
 11
3315.691390041495
 21
581.4802765385728
 31
0.0
  0
LINE
  5
FE
330
2F
100
AcDbEntity
  8
0
 62
7
100
AcDbLine
 10
3315.691390041495
 20
533.7836997750874
 30
0.0
 11
3318.955394190873
 21
537.047703924465
 31
0.0
  0
LINE
  5
FF
330
2F
100
AcDbEntity
  8
0
 62
7
100
AcDbLine
 10
3318.955394190873
 20
537.047703924465
 30
0.0
 11
3315.691390041495
 21
537.047703924465
 31
0.0
  0
LINE
  5
100
330
2F
100
AcDbEntity
  8
0
 62
7
100
AcDbLine
 10
3310.110995850622
 20
545.4709404389878
 30
0.0
 11
3311.795643153528
 21
545.4709404389878
 31
0.0
  0
LINE
  5
101
330
2F
100
AcDbEntity
  8
0
 62
7
100
AcDbLine
 10
3311.795643153528
 20
545.4709404389878
 30
0.0
 11
3311.795643153528
 21
540.1011271609794
 31
0.0
  0
LINE
  5
102
330
2F
100
AcDbEntity
  8
0
 62
7
100
AcDbLine
 10
3311.795643153528
 20
540.1011271609794
 30
0.0
 11
3315.691390041495
 21
540.1011271609794
 31
0.0
  0
LINE
  5
103
330
2F
100
AcDbEntity
  8
0
 62
7
100
AcDbLine
 10
3322.429979253113
 20
625.7022682398176
 30
0.0
 11
3320.11358921162
 21
623.2805877418924
 31
0.0
  0
LINE
  5
104
330
2F
100
AcDbEntity
  8
0
 62
7
100
AcDbLine
 10
3320.11358921162
 20
623.2805877418924
 30
0.0
 11
3320.11358921162
 21
495.6685545468716
 31
0.0
  0
LINE
  5
105
330
2F
100
AcDbEntity
  8
0
 62
7
100
AcDbLine
 10
3320.11358921162
 20
495.6685545468716
 30
0.0
 11
3322.429979253113
 21
493.5627454182408
 31
0.0
  0
LINE
  5
106
330
2F
100
AcDbEntity
  8
0
 62
7
100
AcDbLine
 10
3324.009336099585
 20
625.7022682398177
 30
0.0
 11
3324.009336099585
 21
493.562745418241
 31
0.0
  0
MTEXT
  5
107
330
2F
100
AcDbEntity
  8
0
 62
3
100
AcDbMText
 10
3421.251321807393
 20
561.4229558587647
 30
0.0
 40
4.0
 41
34.46280979994299
 46
0.0
 71
1
 72
5
  1
{\fTimes New Roman|b0|i0|c0|p18;MC-185a/225a}
  7
ss
101
Embedded Object
 70
1
 10
1.0
 20
0.0
 30
0.0
 11
3421.251321807393
 21
561.4229558587647
 31
0.0
 40
34.46280979994299
 41
0.0
 42
35.65104542177361
 43
4.190338860850757
 71
2
 72
1
 44
34.46280979994299
 45
12.5
 73
0
 74
0
 46
0.0
  0
ENDBLK
  5
31
330
2F
100
AcDbEntity
  8
0
100
AcDbBlockEnd
  0
ENDSEC
  0
SECTION
  2
ENTITIES
  0
INSERT
  5
109
330
17
100
AcDbEntity
  8
0
100
AcDbBlockReference
  2
CC MC185a
 10
-3310.110995850622
 20
-458.1851520572451
 30
0.0
  0
ENDSEC
  0
SECTION
  2
OBJECTS
  0
DICTIONARY
  5
A
330
0
100
AcDbDictionary
281
1
  3
ACAD_COLOR
350
B
  3
ACAD_GROUP
350
C
  3
ACAD_LAYOUT
350
D
  3
ACAD_MATERIAL
350
E
  3
ACAD_MLEADERSTYLE
350
F
  3
ACAD_MLINESTYLE
350
10
  3
ACAD_PLOTSETTINGS
350
11
  3
ACAD_PLOTSTYLENAME
350
12
  3
ACAD_SCALELIST
350
14
  3
ACAD_TABLESTYLE
350
15
  3
ACAD_VISUALSTYLE
350
16
  3
EZDXF_META
350
2D
  0
DICTIONARY
  5
B
330
A
100
AcDbDictionary
281
1
  0
DICTIONARY
  5
C
330
A
100
AcDbDictionary
281
1
  0
DICTIONARY
  5
D
330
A
100
AcDbDictionary
281
1
  3
Model
350
1A
  3
Layout1
350
1E
  0
DICTIONARY
  5
E
330
A
100
AcDbDictionary
281
1
  3
ByBlock
350
1F
  3
ByLayer
350
20
  3
Global
350
21
  0
DICTIONARY
  5
F
330
A
100
AcDbDictionary
281
1
  3
Standard
350
2C
  0
DICTIONARY
  5
10
330
A
100
AcDbDictionary
281
1
  3
Standard
350
22
  0
DICTIONARY
  5
11
330
A
100
AcDbDictionary
281
1
  0
ACDBDICTIONARYWDFLT
  5
12
330
A
100
AcDbDictionary
281
1
  3
Normal
350
13
100
AcDbDictionaryWithDefault
340
13
  0
ACDBPLACEHOLDER
  5
13
330
12
  0
DICTIONARY
  5
14
330
A
100
AcDbDictionary
281
1
  0
DICTIONARY
  5
15
330
A
100
AcDbDictionary
281
1
  0
DICTIONARY
  5
16
330
A
100
AcDbDictionary
281
1
  0
LAYOUT
  5
1A
330
D
100
AcDbPlotSettings
  1

  4
A3
  6

 40
7.5
 41
20.0
 42
7.5
 43
20.0
 44
420.0
 45
297.0
 46
0.0
 47
0.0
 48
0.0
 49
0.0
140
0.0
141
0.0
142
1.0
143
1.0
 70
1024
 72
1
 73
0
 74
5
  7

 75
16
 76
0
 77
2
 78
300
147
1.0
148
0.0
149
0.0
100
AcDbLayout
  1
Model
 70
1
 71
0
 10
0.0
 20
0.0
 11
420.0
 21
297.0
 12
0.0
 22
0.0
 32
0.0
 14
1e+20
 24
1e+20
 34
1e+20
 15
-1e+20
 25
-1e+20
 35
-1e+20
146
0.0
 13
0.0
 23
0.0
 33
0.0
 16
1.0
 26
0.0
 36
0.0
 17
0.0
 27
1.0
 37
0.0
 76
1
330
17
  0
LAYOUT
  5
1E
330
D
100
AcDbPlotSettings
  1

  4
A3
  6

 40
7.5
 41
20.0
 42
7.5
 43
20.0
 44
420.0
 45
297.0
 46
0.0
 47
0.0
 48
0.0
 49
0.0
140
0.0
141
0.0
142
1.0
143
1.0
 70
0
 72
1
 73
0
 74
5
  7

 75
16
 76
0
 77
2
 78
300
147
1.0
148
0.0
149
0.0
100
AcDbLayout
  1
Layout1
 70
1
 71
1
 10
0.0
 20
0.0
 11
420.0
 21
297.0
 12
0.0
 22
0.0
 32
0.0
 14
1e+20
 24
1e+20
 34
1e+20
 15
-1e+20
 25
-1e+20
 35
-1e+20
146
0.0
 13
0.0
 23
0.0
 33
0.0
 16
1.0
 26
0.0
 36
0.0
 17
0.0
 27
1.0
 37
0.0
 76
1
330
1B
  0
MATERIAL
  5
1F
102
{ACAD_REACTORS
330
E
102
}
330
E
100
AcDbMaterial
  1
ByBlock
  2

 70
0
 40
1.0
 71
1
 41
1.0
 91
-1023410177
 42
1.0
 72
1
  3

 73
1
 74
1
 75
1
 44
0.5
 73
0
 45
1.0
 46
1.0
 77
1
  4

 78
1
 79
1
170
1
 48
1.0
171
1
  6

172
1
173
1
174
1
140
1.0
141
1.0
175
1
  7

176
1
177
1
178
1
143
1.0
179
1
  8

270
1
271
1
272
1
145
1.0
146
1.0
273
1
  9

274
1
275
1
276
1
 42
1.0
 72
1
  3

 73
1
 74
1
 75
1
 94
63
  0
MATERIAL
  5
20
102
{ACAD_REACTORS
330
E
102
}
330
E
100
AcDbMaterial
  1
ByLayer
  2

 70
0
 40
1.0
 71
1
 41
1.0
 91
-1023410177
 42
1.0
 72
1
  3

 73
1
 74
1
 75
1
 44
0.5
 73
0
 45
1.0
 46
1.0
 77
1
  4

 78
1
 79
1
170
1
 48
1.0
171
1
  6

172
1
173
1
174
1
140
1.0
141
1.0
175
1
  7

176
1
177
1
178
1
143
1.0
179
1
  8

270
1
271
1
272
1
145
1.0
146
1.0
273
1
  9

274
1
275
1
276
1
 42
1.0
 72
1
  3

 73
1
 74
1
 75
1
 94
63
  0
MATERIAL
  5
21
102
{ACAD_REACTORS
330
E
102
}
330
E
100
AcDbMaterial
  1
Global
  2

 70
0
 40
1.0
 71
1
 41
1.0
 91
-1023410177
 42
1.0
 72
1
  3

 73
1
 74
1
 75
1
 44
0.5
 73
0
 45
1.0
 46
1.0
 77
1
  4

 78
1
 79
1
170
1
 48
1.0
171
1
  6

172
1
173
1
174
1
140
1.0
141
1.0
175
1
  7

176
1
177
1
178
1
143
1.0
179
1
  8

270
1
271
1
272
1
145
1.0
146
1.0
273
1
  9

274
1
275
1
276
1
 42
1.0
 72
1
  3

 73
1
 74
1
 75
1
 94
63
  0
MLINESTYLE
  5
22
102
{ACAD_REACTORS
330
10
102
}
330
10
100
AcDbMlineStyle
  2
Standard
 70
0
  3

 62
256
 51
90.0
 52
90.0
 71
2
 49
0.5
 62
256
  6
BYLAYER
 49
-0.5
 62
256
  6
BYLAYER
  0
MLEADERSTYLE
  5
2C
102
{ACAD_REACTORS
330
F
102
}
330
F
100
AcDbMLeaderStyle
179
2
170
2
171
1
172
0
 90
2
 40
0.0
 41
0.0
173
1
 91
-1056964608
 92
-2
290
1
 42
2.0
291
1
 43
8.0
  3
Standard
 44
4.0
300

342
29
174
1
175
1
176
0
178
1
 93
-1056964608
 45
4.0
292
0
297
0
 46
4.0
 94
-1056964608
 47
1.0
 49
1.0
140
1.0
294
1
141
0.0
177
0
142
1.0
295
0
296
0
143
3.75
271
0
272
9
273
9
  0
DICTIONARY
  5
2D
330
A
100
AcDbDictionary
280
1
281
1
  3
CREATED_BY_EZDXF
350
2E
  3
WRITTEN_BY_EZDXF
350
10D
  0
DICTIONARYVAR
  5
2E
330
2D
100
DictionaryVariables
280
0
  1
1.4.4 @ 2026-09-23T06:02:51.638283+00:00
  0
DICTIONARYVAR
  5
10D
330
2D
100
DictionaryVariables
280
0
  1
1.4.4 @ 2026-09-23T06:02:51.677537+00:00
  0
ENDSEC
  0
EOF
