  0
SECTION
  2
HEADER
  9
$ACADVER
  1
AC1032
  9
$ACADMAINTVER
 90
4
  9
$DWGCODEPAGE
  3
ANSI_1252
  9
$LASTSAVEDBY
  1
ezdxf
  9
$REQUIREDVERSIONS
160
0
  9
$INSBASE
 10
0.0
 20
0.0
 30
0.0
  9
$EXTMIN
 10
1e+20
 20
1e+20
 30
1e+20
  9
$EXTMAX
 10
-1e+20
 20
-1e+20
 30
-1e+20
  9
$LIMMIN
 10
0.0
 20
0.0
  9
$LIMMAX
 10
420.0
 20
297.0
  9
$ORTHOMODE
 70
0
  9
$REGENMODE
 70
1
  9
$FILLMODE
 70
1
  9
$QTEXTMODE
 70
0
  9
$MIRRTEXT
 70
1
  9
$LTSCALE
 40
1.0
  9
$ATTMODE
 70
1
  9
$TEXTSIZE
 40
2.5
  9
$TRACEWID
 40
1.0
  9
$TEXTSTYLE
  7
Standard
  9
$CLAYER
  8
0
  9
$CELTYPE
  6
ByLayer
  9
$CECOLOR
 62
256
  9
$CELTSCALE
 40
1.0
  9
$DISPSILH
 70
0
  9
$DIMSCALE
 40
1.0
  9
$DIMASZ
 40
2.5
  9
$DIMEXO
 40
0.625
  9
$DIMDLI
 40
3.75
  9
$DIMRND
 40
0.0
  9
$DIMDLE
 40
0.0
  9
$DIMEXE
 40
1.25
  9
$DIMTP
 40
0.0
  9
$DIMTM
 40
0.0
  9
$DIMTXT
 40
2.5
  9
$DIMCEN
 40
2.5
  9
$DIMTSZ
 40
0.0
  9
$DIMTOL
 70
0
  9
$DIMLIM
 70
0
  9
$DIMTIH
 70
0
  9
$DIMTOH
 70
0
  9
$DIMSE1
 70
0
  9
$DIMSE2
 70
0
  9
$DIMTAD
 70
1
  9
$DIMZIN
 70
8
  9
$DIMBLK
  1

  9
$DIMASO
 70
1
  9
$DIMSHO
 70
1
  9
$DIMPOST
  1

  9
$DIMAPOST
  1

  9
$DIMALT
 70
0
  9
$DIMALTD
 70
3
  9
$DIMALTF
 40
0.03937007874
  9
$DIMLFAC
 40
1.0
  9
$DIMTOFL
 70
1
  9
$DIMTVP
 40
0.0
  9
$DIMTIX
 70
0
  9
$DIMSOXD
 70
0
  9
$DIMSAH
 70
0
  9
$DIMBLK1
  1

  9
$DIMBLK2
  1

  9
$DIMSTYLE
  2
ISO-25
  9
$DIMCLRD
 70
0
  9
$DIMCLRE
 70
0
  9
$DIMCLRT
 70
0
  9
$DIMTFAC
 40
1.0
  9
$DIMGAP
 40
0.625
  9
$DIMJUST
 70
0
  9
$DIMSD1
 70
0
  9
$DIMSD2
 70
0
  9
$DIMTOLJ
 70
0
  9
$DIMTZIN
 70
8
  9
$DIMALTZ
 70
0
  9
$DIMALTTZ
 70
0
  9
$DIMUPT
 70
0
  9
$DIMDEC
 70
2
  9
$DIMTDEC
 70
2
  9
$DIMALTU
 70
2
  9
$DIMALTTD
 70
3
  9
$DIMTXSTY
  7
Standard
  9
$DIMAUNIT
 70
0
  9
$DIMADEC
 70
0
  9
$DIMALTRND
 40
0.0
  9
$DIMAZIN
 70
0
  9
$DIMDSEP
 70
44
  9
$DIMATFIT
 70
3
  9
$DIMFRAC
 70
0
  9
$DIMLDRBLK
  1

  9
$DIMLUNIT
 70
2
  9
$DIMLWD
 70
-2
  9
$DIMLWE
 70
-2
  9
$DIMTMOVE
 70
0
  9
$DIMFXL
 40
1.0
  9
$DIMFXLON
 70
0
  9
$DIMJOGANG
 40
0.785398163397
  9
$DIMTFILL
 70
0
  9
$DIMTFILLCLR
 70
0
  9
$DIMARCSYM
 70
0
  9
$DIMLTYPE
  6

  9
$DIMLTEX1
  6

  9
$DIMLTEX2
  6

  9
$DIMTXTDIRECTION
 70
0
  9
$LUNITS
 70
2
  9
$LUPREC
 70
4
  9
$SKETCHINC
 40
1.0
  9
$FILLETRAD
 40
10.0
  9
$AUNITS
 70
0
  9
$AUPREC
 70
2
  9
$MENU
  1
.
  9
$ELEVATION
 40
0.0
  9
$PELEVATION
 40
0.0
  9
$THICKNESS
 40
0.0
  9
$LIMCHECK
 70
0
  9
$CHAMFERA
 40
0.0
  9
$CHAMFERB
 40
0.0
  9
$CHAMFERC
 40
0.0
  9
$CHAMFERD
 40
0.0
  9
$SKPOLY
 70
0
  9
$TDCREATE
 40
2461307.54375
  9
$TDUCREATE
 40
2458532.153996898
  9
$TDUPDATE
 40
2461307.54375
  9
$TDUUPDATE
 40
2458532.1544311
  9
$TDINDWG
 40
0.0
  9
$TDUSRTIMER
 40
0.0
  9
$USRTIMER
 70
1
  9
$ANGBASE
 50
0.0
  9
$ANGDIR
 70
0
  9
$PDMODE
 70
0
  9
$PDSIZE
 40
0.0
  9
$PLINEWID
 40
0.0
  9
$SPLFRAME
 70
0
  9
$SPLINETYPE
 70
6
  9
$SPLINESEGS
 70
8
  9
$HANDSEED
  5
FA
  9
$SURFTAB1
 70
6
  9
$SURFTAB2
 70
6
  9
$SURFTYPE
 70
6
  9
$SURFU
 70
6
  9
$SURFV
 70
6
  9
$UCSBASE
  2

  9
$UCSNAME
  2

  9
$UCSORG
 10
0.0
 20
0.0
 30
0.0
  9
$UCSXDIR
 10
1.0
 20
0.0
 30
0.0
  9
$UCSYDIR
 10
0.0
 20
1.0
 30
0.0
  9
$UCSORTHOREF
  2

  9
$UCSORTHOVIEW
 70
0
  9
$UCSORGTOP
 10
0.0
 20
0.0
 30
0.0
  9
$UCSORGBOTTOM
 10
0.0
 20
0.0
 30
0.0
  9
$UCSORGLEFT
 10
0.0
 20
0.0
 30
0.0
  9
$UCSORGRIGHT
 10
0.0
 20
0.0
 30
0.0
  9
$UCSORGFRONT
 10
0.0
 20
0.0
 30
0.0
  9
$UCSORGBACK
 10
0.0
 20
0.0
 30
0.0
  9
$PUCSBASE
  2

  9
$PUCSNAME
  2

  9
$PUCSORG
 10
0.0
 20
0.0
 30
0.0
  9
$PUCSXDIR
 10
1.0
 20
0.0
 30
0.0
  9
$PUCSYDIR
 10
0.0
 20
1.0
 30
0.0
  9
$PUCSORTHOREF
  2

  9
$PUCSORTHOVIEW
 70
0
  9
$PUCSORGTOP
 10
0.0
 20
0.0
 30
0.0
  9
$PUCSORGBOTTOM
 10
0.0
 20
0.0
 30
0.0
  9
$PUCSORGLEFT
 10
0.0
 20
0.0
 30
0.0
  9
$PUCSORGRIGHT
 10
0.0
 20
0.0
 30
0.0
  9
$PUCSORGFRONT
 10
0.0
 20
0.0
 30
0.0
  9
$PUCSORGBACK
 10
0.0
 20
0.0
 30
0.0
  9
$USERI1
 70
0
  9
$USERI2
 70
0
  9
$USERI3
 70
0
  9
$USERI4
 70
0
  9
$USERI5
 70
0
  9
$USERR1
 40
0.0
  9
$USERR2
 40
0.0
  9
$USERR3
 40
0.0
  9
$USERR4
 40
0.0
  9
$USERR5
 40
0.0
  9
$WORLDVIEW
 70
1
  9
$SHADEDGE
 70
3
  9
$SHADEDIF
 70
70
  9
$TILEMODE
 70
1
  9
$MAXACTVP
 70
64
  9
$PINSBASE
 10
0.0
 20
0.0
 30
0.0
  9
$PLIMCHECK
 70
0
  9
$PEXTMIN
 10
1e+20
 20
1e+20
 30
1e+20
  9
$PEXTMAX
 10
-1e+20
 20
-1e+20
 30
-1e+20
  9
$PLIMMIN
 10
0.0
 20
0.0
  9
$PLIMMAX
 10
420.0
 20
297.0
  9
$UNITMODE
 70
0
  9
$VISRETAIN
 70
1
  9
$PLINEGEN
 70
0
  9
$PSLTSCALE
 70
1
  9
$TREEDEPTH
 70
3020
  9
$CMLSTYLE
  2
Standard
  9
$CMLJUST
 70
0
  9
$CMLSCALE
 40
20.0
  9
$PROXYGRAPHICS
 70
1
  9
$MEASUREMENT
 70
1
  9
$CELWEIGHT
370
-1
  9
$ENDCAPS
280
0
  9
$JOINSTYLE
280
0
  9
$LWDISPLAY
290
0
  9
$INSUNITS
 70
4
  9
$HYPERLINKBASE
  1

  9
$STYLESHEET
  1

  9
$XEDIT
290
1
  9
$CEPSNTYPE
380
0
  9
$PSTYLEMODE
290
1
  9
$FINGERPRINTGUID
  2
{CA2EA750-34A5-40C0-AA76-639A493E3736}
  9
$VERSIONGUID
  2
{579FEA57-E6C7-4060-9DF4-A64E4A22806E}
  9
$EXTNAMES
290
1
  9
$PSVPSCALE
 40
0.0
  9
$OLESTARTUP
290
0
  9
$SORTENTS
280
127
  9
$INDEXCTL
280
0
  9
$HIDETEXT
280
1
  9
$XCLIPFRAME
280
1
  9
$HALOGAP
280
0
  9
$OBSCOLOR
 70
257
  9
$OBSLTYPE
280
0
  9
$INTERSECTIONDISPLAY
280
0
  9
$INTERSECTIONCOLOR
 70
257
  9
$DIMASSOC
280
2
  9
$PROJECTNAME
  1

  9
$CAMERADISPLAY
290
0
  9
$LENSLENGTH
 40
50.0
  9
$CAMERAHEIGHT
 40
0.0
  9
$STEPSPERSEC
 40
24.0
  9
$STEPSIZE
 40
100.0
  9
$3DDWFPREC
 40
2.0
  9
$PSOLWIDTH
 40
0.005
  9
$PSOLHEIGHT
 40
0.08
  9
$LOFTANG1
 40
1.570796326795
  9
$LOFTANG2
 40
1.570796326795
  9
$LOFTMAG1
 40
0.0
  9
$LOFTMAG2
 40
0.0
  9
$LOFTPARAM
 70
7
  9
$LOFTNORMALS
280
1
  9
$LATITUDE
 40
37.795
  9
$LONGITUDE
 40
-122.394
  9
$NORTHDIRECTION
 40
0.0
  9
$TIMEZONE
 70
-8000
  9
$LIGHTGLYPHDISPLAY
280
1
  9
$TILEMODELIGHTSYNCH
280
1
  9
$CMATERIAL
347
20
  9
$SOLIDHIST
280
0
  9
$SHOWHIST
280
1
  9
$DWFFRAME
280
2
  9
$DGNFRAME
280
2
  9
$REALWORLDSCALE
290
1
  9
$INTERFERECOLOR
 62
256
  9
$CSHADOW
280
0
  9
$SHADOWPLANELOCATION
 40
0.0
  0
ENDSEC
  0
SECTION
  2
CLASSES
  0
CLASS
  1
ACDBDICTIONARYWDFLT
  2
AcDbDictionaryWithDefault
  3
ObjectDBX Classes
 90
0
 91
0
280
0
281
0
  0
CLASS
  1
SUN
  2
AcDbSun
  3
SCENEOE
 90
1153
 91
0
280
0
281
0
  0
CLASS
  1
VISUALSTYLE
  2
AcDbVisualStyle
  3
ObjectDBX Classes
 90
4095
 91
0
280
0
281
0
  0
CLASS
  1
MATERIAL
  2
AcDbMaterial
  3
ObjectDBX Classes
 90
1153
 91
0
280
0
281
0
  0
CLASS
  1
SCALE
  2
AcDbScale
  3
ObjectDBX Classes
 90
1153
 91
0
280
0
281
0
  0
CLASS
  1
TABLESTYLE
  2
AcDbTableStyle
  3
ObjectDBX Classes
 90
4095
 91
0
280
0
281
0
  0
CLASS
  1
MLEADERSTYLE
  2
AcDbMLeaderStyle
  3
ACDB_MLEADERSTYLE_CLASS
 90
4095
 91
0
280
0
281
0
  0
CLASS
  1
DICTIONARYVAR
  2
AcDbDictionaryVar
  3
ObjectDBX Classes
 90
0
 91
0
280
0
281
0
  0
CLASS
  1
CELLSTYLEMAP
  2
AcDbCellStyleMap
  3
ObjectDBX Classes
 90
1152
 91
0
280
0
281
0
  0
CLASS
  1
MENTALRAYRENDERSETTINGS
  2
AcDbMentalRayRenderSettings
  3
SCENEOE
 90
1024
 91
0
280
0
281
0
  0
CLASS
  1
ACDBDETAILVIEWSTYLE
  2
AcDbDetailViewStyle
  3
ObjectDBX Classes
 90
1025
 91
0
280
0
281
0
  0
CLASS
  1
ACDBSECTIONVIEWSTYLE
  2
AcDbSectionViewStyle
  3
ObjectDBX Classes
 90
1025
 91
0
280
0
281
0
  0
CLASS
  1
RASTERVARIABLES
  2
AcDbRasterVariables
  3
ISM
 90
0
 91
0
280
0
281
0
  0
CLASS
  1
LAYOUT
  2
AcDbLayout
  3
ObjectDBX Classes
 90
0
 91
0
280
0
281
0
  0
CLASS
  1
ACDBPLACEHOLDER
  2
AcDbPlaceHolder
  3
ObjectDBX Classes
 90
0
 91
0
280
0
281
0
  0
ENDSEC
  0
SECTION
  2
TABLES
  0
TABLE
  2
VPORT
  5
8
330
0
100
AcDbSymbolTable
 70
1
  0
VPORT
  5
23
330
8
100
AcDbSymbolTableRecord
100
AcDbViewportTableRecord
  2
*Active
 70
0
 10
0.0
 20
0.0
 11
1.0
 21
1.0
 12
0.0
 22
0.0
 13
0.0
 23
0.0
 14
0.5
 24
0.5
 15
0.5
 25
0.5
 16
0.0
 26
0.0
 36
1.0
 17
0.0
 27
0.0
 37
0.0
 40
1000.0
 41
1.34
 42
50.0
 43
0.0
 44
0.0
 50
0.0
 51
0.0
 71
0
 72
1000
 73
1
 74
3
 75
0
 76
0
 77
0
 78
0
281
0
 65
0
146
0.0
  0
ENDTAB
  0
TABLE
  2
LTYPE
  5
2
330
0
100
AcDbSymbolTable
 70
3
  0
LTYPE
  5
24
330
2
100
AcDbSymbolTableRecord
100
AcDbLinetypeTableRecord
  2
ByBlock
 70
0
  3

 72
65
 73
0
 40
0.0
  0
LTYPE
  5
25
330
2
100
AcDbSymbolTableRecord
100
AcDbLinetypeTableRecord
  2
ByLayer
 70
0
  3

 72
65
 73
0
 40
0.0
  0
LTYPE
  5
26
330
2
100
AcDbSymbolTableRecord
100
AcDbLinetypeTableRecord
  2
Continuous
 70
0
  3

 72
65
 73
0
 40
0.0
  0
ENDTAB
  0
TABLE
  2
LAYER
  5
1
330
0
100
AcDbSymbolTable
 70
2
  0
LAYER
  5
27
330
1
100
AcDbSymbolTableRecord
100
AcDbLayerTableRecord
  2
0
 70
0
 62
7
  6
Continuous
370
-3
390
13
347
21
  0
LAYER
  5
28
330
1
100
AcDbSymbolTableRecord
100
AcDbLayerTableRecord
  2
Defpoints
 70
0
 62
7
  6
Continuous
290
0
370
-3
390
13
347
21
  0
ENDTAB
  0
TABLE
  2
STYLE
  5
5
330
0
100
AcDbSymbolTable
 70
1
  0
STYLE
  5
29
330
5
100
AcDbSymbolTableRecord
100
AcDbTextStyleTableRecord
  2
Standard
 70
0
 40
0.0
 41
1.0
 50
0.0
 71
0
 42
2.5
  3
txt
  4

  0
ENDTAB
  0
TABLE
  2
VIEW
  5
7
330
0
100
AcDbSymbolTable
 70
0
  0
ENDTAB
  0
TABLE
  2
UCS
  5
6
330
0
100
AcDbSymbolTable
 70
0
  0
ENDTAB
  0
TABLE
  2
APPID
  5
3
330
0
100
AcDbSymbolTable
 70
3
  0
APPID
  5
2A
330
3
100
AcDbSymbolTableRecord
100
AcDbRegAppTableRecord
  2
ACAD
 70
0
  0
APPID
  5
F7
330
3
100
AcDbSymbolTableRecord
100
AcDbRegAppTableRecord
  2
HATCHBACKGROUNDCOLOR
 70
0
  0
APPID
  5
F8
330
3
100
AcDbSymbolTableRecord
100
AcDbRegAppTableRecord
  2
EZDXF
 70
0
  0
ENDTAB
  0
TABLE
  2
DIMSTYLE
  5
4
330
0
100
AcDbSymbolTable
 70
1
100
AcDbDimStyleTable
  0
DIMSTYLE
105
2B
330
4
100
AcDbSymbolTableRecord
100
AcDbDimStyleTableRecord
  2
Standard
 70
0
 40
1.0
 41
2.5
 42
0.625
 43
3.75
 44
1.25
 45
0.0
 46
0.0
 47
0.0
 48
0.0
 49
2.5
140
2.5
141
2.5
142
0.0
143
0.03937007874
144
1.0
145
0.0
146
1.0
147
0.625
148
0.0
 69
0
 70
0
 71
0
 72
0
 73
0
 74
0
 75
0
 76
0
 77
1
 78
8
 79
3
170
0
171
3
172
1
173
0
174
0
175
0
176
0
177
0
178
0
179
2
271
2
272
2
273
2
274
3
275
0
276
0
277
2
278
44
279
0
280
0
281
0
282
0
283
0
284
8
285
0
286
0
288
0
289
3
290
0
371
-2
372
-2
  0
ENDTAB
  0
TABLE
  2
BLOCK_RECORD
  5
9
330
0
100
AcDbSymbolTable
 70
3
  0
BLOCK_RECORD
  5
17
330
9
100
AcDbSymbolTableRecord
100
AcDbBlockTableRecord
  2
*Model_Space
340
1A
 70
0
280
1
281
0
  0
BLOCK_RECORD
  5
1B
330
9
100
AcDbSymbolTableRecord
100
AcDbBlockTableRecord
  2
*Paper_Space
340
1E
 70
0
280
1
281
0
  0
BLOCK_RECORD
  5
2F
330
9
100
AcDbSymbolTableRecord
100
AcDbBlockTableRecord
  2
HCC2 LS 800AF
340
0
 70
0
280
1
281
0
  0
ENDTAB
  0
ENDSEC
  0
SECTION
  2
BLOCKS
  0
BLOCK
  5
18
330
17
100
AcDbEntity
  8
0
100
AcDbBlockBegin
  2
*Model_Space
 70
0
 10
0.0
 20
0.0
 30
0.0
  3
*Model_Space
  1

  0
ENDBLK
  5
19
330
17
100
AcDbEntity
  8
0
100
AcDbBlockEnd
  0
BLOCK
  5
1C
330
1B
100
AcDbEntity
  8
0
100
AcDbBlockBegin
  2
*Paper_Space
 70
0
 10
0.0
 20
0.0
 30
0.0
  3
*Paper_Space
  1

  0
ENDBLK
  5
1D
330
1B
100
AcDbEntity
  8
0
100
AcDbBlockEnd
  0
BLOCK
  5
30
330
2F
100
AcDbEntity
  8
0
100
AcDbBlockBegin
  2
HCC2 LS 800AF
 70
0
 10
0.0
 20
0.0
 30
0.0
  3
HCC2 LS 800AF
  1

  0
LINE
  5
32
330
2F
100
AcDbEntity
  8
0
 62
7
100
AcDbLine
 10
95.0
 20
-212.5000000000136
 30
0.0
 11
105.0
 21
-212.5000000000146
 31
0.0
  0
LINE
  5
33
330
2F
100
AcDbEntity
  8
0
 62
7
100
AcDbLine
 10
105.0
 20
-212.5000000000146
 30
0.0
 11
105.0
 21
-185.5000000000145
 31
0.0
  0
LINE
  5
34
330
2F
100
AcDbEntity
  8
0
 62
7
100
AcDbLine
 10
105.0
 20
-185.5000000000145
 30
0.0
 11
109.0
 21
-185.5000000000145
 31
0.0
  0
LINE
  5
35
330
2F
100
AcDbEntity
  8
0
 62
7
100
AcDbLine
 10
109.0
 20
-185.5000000000145
 30
0.0
 11
109.0
 21
-89.50000000001455
 31
0.0
  0
LINE
  5
36
330
2F
100
AcDbEntity
  8
0
 62
7
100
AcDbLine
 10
109.0
 20
-89.50000000001455
 30
0.0
 11
105.0
 21
-89.50000000001455
 31
0.0
  0
LINE
  5
37
330
2F
100
AcDbEntity
  8
0
 62
7
100
AcDbLine
 10
105.0
 20
-89.50000000001455
 30
0.0
 11
105.0
 21
-62.50000000001455
 31
0.0
  0
LINE
  5
38
330
2F
100
AcDbEntity
  8
0
 62
7
100
AcDbLine
 10
105.0
 20
-62.50000000001455
 30
0.0
 11
95.0
 21
-62.50000000001455
 31
0.0
  0
LINE
  5
39
330
2F
100
AcDbEntity
  8
0
 62
7
100
AcDbLine
 10
95.0
 20
-254.2500000000146
 30
0.0
 11
95.0
 21
-212.5000000000146
 31
0.0
  0
LINE
  5
3A
330
2F
100
AcDbEntity
  8
0
 62
7
100
AcDbLine
 10
95.0
 20
-62.50000000001455
 30
0.0
 11
95.0
 21
-20.75000000001455
 31
0.0
  0
LINE
  5
3B
330
2F
100
AcDbEntity
  8
0
 62
7
100
AcDbLine
 10
95.0
 20
-20.75000000001455
 30
0.0
 11
95.0
 21
-11.25
 31
0.0
  0
LINE
  5
3C
330
2F
100
AcDbEntity
  8
0
 62
7
100
AcDbLine
 10
95.0
 20
-11.25
 30
0.0
 11
95.0
 21
-8.000000005107722
 31
0.0
  0
LINE
  5
3D
330
2F
100
AcDbEntity
  8
0
 62
7
100
AcDbLine
 10
95.0
 20
-254.2500000000146
 30
0.0
 11
95.0
 21
-212.5000000000146
 31
0.0
  0
LINE
  5
3E
330
2F
100
AcDbEntity
  8
0
 62
7
100
AcDbLine
 10
95.0
 20
-266.9999999874999
 30
0.0
 11
95.0
 21
-263.7500000000145
 31
0.0
  0
LINE
  5
3F
330
2F
100
AcDbEntity
  8
0
 62
7
100
AcDbLine
 10
95.0
 20
-263.7500000000145
 30
0.0
 11
95.0
 21
-254.2500000000146
 31
0.0
  0
LINE
  5
40
330
2F
100
AcDbEntity
  8
0
 62
7
100
AcDbLine
 10
0.0
 20
-275.0000000000146
 30
0.0
 11
86.99999999937427
 21
-275.0000000000146
 31
0.0
  0
LINE
  5
41
330
2F
100
AcDbEntity
  8
0
 62
7
100
AcDbLine
 10
0.0
 20
-275.0000000000146
 30
0.0
 11
86.99999999497959
 21
-275.0000000000146
 31
0.0
  0
LINE
  5
42
330
2F
100
AcDbEntity
  8
0
 62
7
100
AcDbLine
 10
28.76393202249892
 20
-275.0000000000146
 30
0.0
 11
28.76393202249892
 21
-277.5
 31
0.0
  0
LINE
  5
43
330
2F
100
AcDbEntity
  8
0
 62
7
100
AcDbLine
 10
2.0
 20
-277.5
 30
0.0
 11
28.76393202249892
 21
-277.5
 31
0.0
  0
LINE
  5
44
330
2F
100
AcDbEntity
  8
0
 62
7
100
AcDbLine
 10
28.76393202249892
 20
-277.5
 30
0.0
 11
28.76393202249892
 21
-275.0000000000146
 31
0.0
  0
LINE
  5
45
330
2F
100
AcDbEntity
  8
0
 62
7
100
AcDbLine
 10
2.0
 20
-275.0000000000146
 30
0.0
 11
2.0
 21
-277.5
 31
0.0
  0
LINE
  5
46
330
2F
100
AcDbEntity
  8
0
 62
7
100
AcDbLine
 10
28.76393202249892
 20
-277.5
 30
0.0
 11
2.0
 21
-277.5
 31
0.0
  0
LINE
  5
47
330
2F
100
AcDbEntity
  8
0
 62
7
100
AcDbLine
 10
2.0
 20
-277.5
 30
0.0
 11
2.0
 21
-275.0000000000146
 31
0.0
  0
LINE
  5
48
330
2F
100
AcDbEntity
  8
0
 62
7
100
AcDbLine
 10
86.99999998760175
 20
0.0
 30
0.0
 11
0.0
 21
0.0
 31
0.0
  0
LINE
  5
49
330
2F
100
AcDbEntity
  8
0
 62
7
100
AcDbLine
 10
28.76393202249892
 20
2.499999999985448
 30
0.0
 11
2.0
 21
2.499999999985448
 31
0.0
  0
ARC
  5
4A
330
2F
100
AcDbEntity
  8
0
 62
7
100
AcDbCircle
 10
87.0
 20
-8.00000000001455
 30
0.0
 40
8.000000000000043
100
AcDbArc
 50
0.0
 51
90.00000008921268
  0
ARC
  5
4B
330
2F
100
AcDbEntity
  8
0
 62
7
100
AcDbCircle
 10
87.0
 20
-8.00000000001455
 30
0.0
 40
8.000000000000009
100
AcDbArc
 50
0.0
 51
90.0
  0
LINE
  5
4C
330
2F
100
AcDbEntity
  8
0
 62
7
100
AcDbLine
 10
95.0
 20
-11.25
 30
0.0
 11
95.0
 21
-8.000000000625732
 31
0.0
  0
LINE
  5
4D
330
2F
100
AcDbEntity
  8
0
 62
7
100
AcDbLine
 10
95.0
 20
-62.50000000001455
 30
0.0
 11
95.0
 21
-20.75000000001455
 31
0.0
  0
LINE
  5
4E
330
2F
100
AcDbEntity
  8
0
 62
7
100
AcDbLine
 10
105.0
 20
-62.50000000001455
 30
0.0
 11
95.0
 21
-62.50000000001455
 31
0.0
  0
LINE
  5
4F
330
2F
100
AcDbEntity
  8
0
 62
7
100
AcDbLine
 10
105.0
 20
-212.5000000000146
 30
0.0
 11
105.0
 21
-185.5000000000145
 31
0.0
  0
LINE
  5
50
330
2F
100
AcDbEntity
  8
0
 62
7
100
AcDbLine
 10
105.0
 20
-89.50000000001455
 30
0.0
 11
105.0
 21
-62.50000000001455
 31
0.0
  0
ARC
  5
51
330
2F
100
AcDbEntity
  8
0
 62
7
100
AcDbCircle
 10
23.00769276292704
 20
-145.9000000000087
 30
0.0
 40
69.99999999999662
100
AcDbArc
 50
343.8852758487271
 51
16.11472415127287
  0
LINE
  5
52
330
2F
100
AcDbEntity
  8
0
 62
7
100
AcDbLine
 10
90.25724273535889
 20
-165.3293084927281
 30
0.0
 11
109.0000000000436
 21
-170.7443456647306
 31
0.0
  0
LINE
  5
53
330
2F
100
AcDbEntity
  8
0
 62
7
100
AcDbLine
 10
109.0000000000436
 20
-121.0556543352868
 30
0.0
 11
90.25724273535889
 21
-126.4706915072602
 31
0.0
  0
ARC
  5
54
330
2F
100
AcDbEntity
  8
0
 62
7
100
AcDbCircle
 10
23.00769276295614
 20
-145.9000000000087
 30
0.0
 40
74.46514277486548
100
AcDbArc
 50
5.529927312261617
 51
13.23005105442231
  0
SPLINE
  5
55
330
2F
100
AcDbEntity
  8
0
 62
7
100
AcDbSpline
 70
8
 71
3
 72
35
 73
31
 74
0
 42
1e-09
 40
0.001393310032231
 40
0.001393310032231
 40
0.001393310032231
 40
0.001393310032231
 40
0.1
 40
0.1
 40
0.1
 40
0.2
 40
0.2
 40
0.2
 40
0.3
 40
0.3
 40
0.3
 40
0.4
 40
0.4
 40
0.4
 40
0.5
 40
0.5
 40
0.5
 40
0.6
 40
0.6
 40
0.6
 40
0.7
 40
0.7
 40
0.7
 40
0.8
 40
0.8
 40
0.8
 40
0.9
 40
0.9
 40
0.9
 40
1.0
 40
1.0
 40
1.0
 40
1.0
 10
97.12627472361783
 20
-138.7241170084307
 30
0.0
 10
96.74003399453068
 20
-138.7892599929328
 30
0.0
 10
96.40352009009801
 20
-138.8933046900638
 30
0.0
 10
96.10415500795354
 20
-139.0146045252331
 30
0.0
 10
95.80055990479013
 20
-139.1376183239772
 30
0.0
 10
95.53508694554328
 20
-139.2783816241863
 30
0.0
 10
95.3007215737016
 20
-139.4264581847674
 30
0.0
 10
95.066356201889
 20
-139.5745347453194
 30
0.0
 10
94.86311918788122
 20
-139.7299229805794
 30
0.0
 10
94.6819484516891
 20
-139.8885096736339
 30
0.0
 10
94.50077771546785
 20
-140.0470963666594
 30
0.0
 10
94.34178624620836
 20
-140.2088720162719
 30
0.0
 10
94.19980091004982
 20
-140.3722568939411
 30
0.0
 10
94.05781557393495
 20
-140.5356417715811
 30
0.0
 10
93.93286535219521
 20
-140.7006334569159
 30
0.0
 10
93.82097977452213
 20
-140.8674819091975
 30
0.0
 10
93.70909419684904
 20
-141.0343303614791
 30
0.0
 10
93.61029820813565
 20
-141.2030339850025
 30
0.0
 10
93.52156293517328
 20
-141.3767550244374
 30
0.0
 10
93.43282766219635
 20
-141.5504760638287
 30
0.0
 10
93.35425652046978
 20
-141.7292078816536
 30
0.0
 10
93.28557275401545
 20
-141.9143604566779
 30
0.0
 10
93.21688898754655
 20
-142.0995130317024
 30
0.0
 10
93.15814282665087
 20
-142.2910835457587
 30
0.0
 10
93.110109961548
 20
-142.4930763030861
 30
0.0
 10
93.06207709640148
 20
-142.6950690604135
 30
0.0
 10
93.02479008944647
 20
-142.9074817897199
 30
0.0
 10
93.00166985789838
 20
-143.1264231904788
 30
0.0
 10
92.97854962635029
 20
-143.3453645912377
 30
0.0
 10
92.96931252878858
 20
-143.5708456441789
 30
0.0
 10
92.9762402416236
 20
-143.8018189510621
 30
0.0
  0
SPLINE
  5
56
330
2F
100
AcDbEntity
  8
0
 62
7
100
AcDbSpline
 70
8
 71
3
 72
29
 73
25
 74
0
 42
1e-09
 40
7.027e-13
 40
7.027e-13
 40
7.027e-13
 40
7.027e-13
 40
0.1246074580984
 40
0.1246074580984
 40
0.1246074580984
 40
0.2487705460375
 40
0.2487705460375
 40
0.2487705460375
 40
0.3726455090605
 40
0.3726455090605
 40
0.3726455090605
 40
0.4969286484166
 40
0.4969286484166
 40
0.4969286484166
 40
0.6223369862729001
 40
0.6223369862729001
 40
0.6223369862729001
 40
0.7481464654918
 40
0.7481464654918
 40
0.7481464654918
 40
0.8743897555770999
 40
0.8743897555770999
 40
0.8743897555770999
 40
1.0
 40
1.0
 40
1.0
 40
1.0
 10
90.25724273535889
 20
-126.4706915072456
 30
0.0
 10
90.3849385416106
 20
-126.6854264935536
 30
0.0
 10
90.52142344176536
 20
-126.8840991763136
 30
0.0
 10
90.66878962874762
 20
-127.0687797083374
 30
0.0
 10
90.8156302842981
 20
-127.2528016399883
 30
0.0
 10
90.9733229564008
 20
-127.4229219498957
 30
0.0
 10
91.14203319941589
 20
-127.581680232819
 30
0.0
 10
91.31035194425203
 20
-127.7400701114238
 30
0.0
 10
91.48950323121971
 20
-127.8871863641106
 30
0.0
 10
91.68035908970342
 20
-128.0224738892139
 30
0.0
 10
91.87184383103158
 20
-128.1582071957964
 30
0.0
 10
92.07510852492123
 20
-128.2820388815307
 30
0.0
 10
92.29038156404567
 20
-128.3923641330475
 30
0.0
 10
92.50760357952095
 20
-128.5036882152053
 30
0.0
 10
92.73705934993632
 20
-128.6012650109041
 30
0.0
 10
92.97816140245413
 20
-128.6823169878043
 30
0.0
 10
93.22003466369642
 20
-128.763628224231
 30
0.0
 10
93.47365605628875
 20
-128.8283102032874
 30
0.0
 10
93.73671696649399
 20
-128.8727547435701
 30
0.0
 10
94.00068495211598
 20
-128.91735253566
 30
0.0
 10
94.27418803564797
 20
-128.9415678114019
 30
0.0
 10
94.5518228022702
 20
-128.9428442357894
 30
0.0
 10
94.82806537224678
 20
-128.944114259546
 30
0.0
 10
95.10836256355105
 20
-128.9226792227564
 30
0.0
 10
95.38610214345681
 20
-128.876027326376
 30
0.0
  0
ELLIPSE
  5
57
330
2F
100
AcDbEntity
  8
0
 62
7
100
AcDbEllipse
 10
95.4949527939898
 20
-128.8580464871629
 30
0.0
 11
-4.944490078734837
 21
-0.8167818668815744
 31
0.0
210
0.0
220
0.0
230
-1.0
 40
1e-05
 41
1.565089528828619
 42
1.587413899074953
  0
ARC
  5
58
330
2F
100
AcDbEntity
  8
0
 62
7
100
AcDbCircle
 10
23.00769276292704
 20
-145.9000000000087
 30
0.0
 40
69.9999999999972
100
AcDbArc
 50
1.717641818969734
 51
16.11472415127287
  0
ARC
  5
59
330
2F
100
AcDbEntity
  8
0
 62
7
100
AcDbCircle
 10
23.00769276292704
 20
-145.9000000000087
 30
0.0
 40
74.46514277487941
100
AcDbArc
 50
5.529948945715277
 51
13.23005105442231
  0
LINE
  5
5A
330
2F
100
AcDbEntity
  8
0
 62
7
100
AcDbLine
 10
97.12627201351279
 20
-138.7240890225366
 30
0.0
 11
113.0
 21
-136.101902901355
 31
0.0
  0
LINE
  5
5B
330
2F
100
AcDbEntity
  8
0
 62
7
100
AcDbLine
 10
113.0
 20
-125.9663819968264
 30
0.0
 11
95.49645627704739
 21
-128.8577978923567
 31
0.0
  0
LINE
  5
5C
330
2F
100
AcDbEntity
  8
0
 62
7
100
AcDbLine
 10
113.0
 20
-136.101902901355
 30
0.0
 11
142.0689130944229
 21
-131.3000000000029
 31
0.0
  0
LINE
  5
5D
330
2F
100
AcDbEntity
  8
0
 62
7
100
AcDbLine
 10
142.0689130944229
 20
-131.3000000000029
 30
0.0
 11
140.4390973579284
 21
-121.4337088698521
 31
0.0
  0
LINE
  5
5E
330
2F
100
AcDbEntity
  8
0
 62
7
100
AcDbLine
 10
140.4390973579284
 20
-121.4337088698521
 30
0.0
 11
113.0
 21
-125.9663819968264
 31
0.0
  0
LINE
  5
5F
330
2F
100
AcDbEntity
  8
0
 62
7
100
AcDbLine
 10
97.1426768778474
 20
-138.7213790978276
 30
0.0
 11
113.0
 21
-136.101902901355
 31
0.0
  0
LINE
  5
60
330
2F
100
AcDbEntity
  8
0
 62
7
100
AcDbLine
 10
113.0
 20
-136.101902901355
 30
0.0
 11
142.0689130944229
 21
-131.3000000000029
 31
0.0
  0
SPLINE
  5
61
330
2F
100
AcDbEntity
  8
0
 62
7
100
AcDbSpline
 70
8
 71
3
 72
35
 73
31
 74
0
 42
1e-09
 40
0.0
 40
0.0
 40
0.0
 40
0.0
 40
0.1
 40
0.1
 40
0.1
 40
0.2
 40
0.2
 40
0.2
 40
0.3
 40
0.3
 40
0.3
 40
0.4
 40
0.4
 40
0.4
 40
0.5
 40
0.5
 40
0.5
 40
0.6
 40
0.6
 40
0.6
 40
0.7
 40
0.7
 40
0.7
 40
0.8
 40
0.8
 40
0.8
 40
0.9
 40
0.9
 40
0.9
 40
1.0
 40
1.0
 40
1.0
 40
1.0
 10
92.97624024335528
 20
-143.801818951033
 30
0.0
 10
92.96930773336499
 20
-143.5708457882429
 30
0.0
 10
92.97853476875753
 20
-143.3453742968704
 30
0.0
 10
93.00166985789838
 20
-143.1264231904788
 30
0.0
 10
93.02480494702468
 20
-142.9074720840872
 30
0.0
 10
93.06199509836733
 20
-142.6950415583123
 30
0.0
 10
93.110109961548
 20
-142.4930763030861
 30
0.0
 10
93.15822482471413
 20
-142.2911110478308
 30
0.0
 10
93.21694961760659
 20
-142.0995359014923
 30
0.0
 10
93.28557275401545
 20
-141.9143604566779
 30
0.0
 10
93.35419589040976
 20
-141.7291850118927
 30
0.0
 10
93.4328091135103
 20
-141.550451512754
 30
0.0
 10
93.52156293514417
 20
-141.3767550244374
 30
0.0
 10
93.61031675680715
 20
-141.2030585360626
 30
0.0
 10
93.70911069060094
 20
-141.034341776307
 30
0.0
 10
93.82097977452213
 20
-140.8674819091829
 30
0.0
 10
93.93284885844332
 20
-140.7006220420735
 30
0.0
 10
94.05782332540548
 20
-140.5356478817266
 30
0.0
 10
94.19980091004982
 20
-140.3722568939411
 30
0.0
 10
94.34177849473782
 20
-140.2088659061264
 30
0.0
 10
94.50074285385197
 20
-140.0470236064429
 30
0.0
 10
94.6819484516891
 20
-139.8885096736339
 30
0.0
 10
94.86315404951165
 20
-139.7299957407958
 30
0.0
 10
95.0664503901935
 20
-139.5746751834376
 30
0.0
 10
95.3007215737016
 20
-139.4264581847674
 30
0.0
 10
95.53499275719516
 20
-139.2782411860535
 30
0.0
 10
95.80032942215622
 20
-139.137114303172
 30
0.0
 10
96.10415500795354
 20
-139.014604525204
 30
0.0
 10
96.40798059375084
 20
-138.8920947472797
 30
0.0
 10
96.74979437676666
 20
-138.7876504136657
 30
0.0
 10
97.14268147437544
 20
-138.7214063592691
 30
0.0
  0
ARC
  5
62
330
2F
100
AcDbEntity
  8
0
 62
7
100
AcDbCircle
 10
23.00769276295614
 20
-145.9000000000087
 30
0.0
 40
69.99999999999633
100
AcDbArc
 50
343.8852758487271
 51
1.717641818969734
  0
LINE
  5
63
330
2F
100
AcDbEntity
  8
0
 62
7
100
AcDbLine
 10
90.25724273535889
 20
-165.3293084927281
 30
0.0
 11
109.0000000000436
 21
-170.7443456647306
 31
0.0
  0
SPLINE
  5
64
330
2F
100
AcDbEntity
  8
0
 62
7
100
AcDbSpline
 70
8
 71
3
 72
23
 73
19
 74
0
 42
1e-09
 40
6.21e-13
 40
6.21e-13
 40
6.21e-13
 40
6.21e-13
 40
0.2518535345097
 40
0.2518535345097
 40
0.2518535345097
 40
0.3776630137289
 40
0.3776630137289
 40
0.3776630137289
 40
0.5030713515854001
 40
0.5030713515854001
 40
0.5030713515854001
 40
0.6273544909419
 40
0.6273544909419
 40
0.6273544909419
 40
0.7512294539653
 40
0.7512294539653
 40
0.7512294539653
 40
1.0
 40
1.0
 40
1.0
 40
1.0
 10
95.38610214345681
 20
-128.8760273264197
 30
0.0
 10
94.82873739913339
 20
-128.9680985839368
 30
0.0
 10
94.26337373508431
 20
-128.9619016900688
 30
0.0
 10
93.73671696652309
 20
-128.8727547435992
 30
0.0
 10
93.47363384594792
 20
-128.8282227860472
 30
0.0
 10
93.22003290362773
 20
-128.7636155463988
 30
0.0
 10
92.97816140245413
 20
-128.682316987848
 30
0.0
 10
92.73706110443162
 20
-128.6012776483403
 30
0.0
 10
92.50758656137623
 20
-128.5037038075534
 30
0.0
 10
92.29038156406023
 20
-128.3923641330766
 30
0.0
 10
92.07512539041635
 20
-128.2820234291575
 30
0.0
 10
91.87188226965372
 20
-128.1581889141962
 30
0.0
 10
91.68035908970342
 20
-128.0224738892429
 30
0.0
 10
91.48946491882089
 20
-127.8872045856987
 30
0.0
 10
91.31017823884031
 20
-127.7401381493109
 30
0.0
 10
91.14203319941589
 20
-127.581680232819
 30
0.0
 10
90.80435775434309
 20
-127.2634588469518
 30
0.0
 10
90.50912540488935
 20
-126.9005536169134
 30
0.0
 10
90.25724273535889
 20
-126.4706915072893
 30
0.0
  0
LINE
  5
65
330
2F
100
AcDbEntity
  8
0
 62
7
100
AcDbLine
 10
109.0000000000436
 20
-121.0556543352868
 30
0.0
 11
90.25724273535889
 21
-126.4706915072602
 31
0.0
  0
LINE
  5
66
330
2F
100
AcDbEntity
  8
0
 62
7
100
AcDbLine
 10
140.4390973579284
 20
-121.4337088698521
 30
0.0
 11
113.0
 21
-125.9663819968264
 31
0.0
  0
LINE
  5
67
330
2F
100
AcDbEntity
  8
0
 62
7
100
AcDbLine
 10
113.0
 20
-125.9663819968264
 30
0.0
 11
95.49645627704739
 21
-128.8577978923567
 31
0.0
  0
LINE
  5
68
330
2F
100
AcDbEntity
  8
0
 62
7
100
AcDbLine
 10
95.49645627704739
 20
-128.8577978923567
 30
0.0
 11
95.38610214345681
 21
-128.8760273264051
 31
0.0
  0
LINE
  5
69
330
2F
100
AcDbEntity
  8
0
 62
7
100
AcDbLine
 10
142.0689130944229
 20
-131.3000000000029
 30
0.0
 11
140.4390973579284
 21
-121.4337088698521
 31
0.0
  0
LINE
  5
6A
330
2F
100
AcDbEntity
  8
0
 62
7
100
AcDbLine
 10
105.0
 20
-185.5000000000145
 30
0.0
 11
109.0
 21
-185.5000000000145
 31
0.0
  0
LINE
  5
6B
330
2F
100
AcDbEntity
  8
0
 62
7
100
AcDbLine
 10
109.0
 20
-185.5000000000145
 30
0.0
 11
109.0
 21
-89.50000000001455
 31
0.0
  0
LINE
  5
6C
330
2F
100
AcDbEntity
  8
0
 62
7
100
AcDbLine
 10
109.0
 20
-89.50000000001455
 30
0.0
 11
105.0
 21
-89.50000000001455
 31
0.0
  0
LINE
  5
6D
330
2F
100
AcDbEntity
  8
0
 62
7
100
AcDbLine
 10
109.0000000000145
 20
-162.5000000000145
 30
0.0
 11
110.0000000000145
 21
-162.5000000000145
 31
0.0
  0
LINE
  5
6E
330
2F
100
AcDbEntity
  8
0
 62
7
100
AcDbLine
 10
110.0000000000145
 20
-157.5000000000145
 30
0.0
 11
110.0000000000145
 21
-162.5000000000145
 31
0.0
  0
LINE
  5
6F
330
2F
100
AcDbEntity
  8
0
 62
7
100
AcDbLine
 10
109.0000000000145
 20
-157.5000000000145
 30
0.0
 11
110.0000000000145
 21
-157.5000000000145
 31
0.0
  0
LINE
  5
70
330
2F
100
AcDbEntity
  8
0
 62
7
100
AcDbLine
 10
110.0000000000145
 20
-162.5000000000145
 30
0.0
 11
110.0000000000145
 21
-167.5
 31
0.0
  0
LINE
  5
71
330
2F
100
AcDbEntity
  8
0
 62
7
100
AcDbLine
 10
110.0000000000145
 20
-162.5000000000145
 30
0.0
 11
109.0000000000145
 21
-162.5000000000145
 31
0.0
  0
LINE
  5
72
330
2F
100
AcDbEntity
  8
0
 62
7
100
AcDbLine
 10
109.0000000000145
 20
-167.5
 30
0.0
 11
110.0000000000145
 21
-167.5
 31
0.0
  0
LINE
  5
73
330
2F
100
AcDbEntity
  8
0
 62
7
100
AcDbLine
 10
110.0000000000145
 20
-157.5000000000145
 30
0.0
 11
110.0000000000145
 21
-167.5
 31
0.0
  0
LINE
  5
74
330
2F
100
AcDbEntity
  8
0
 62
7
100
AcDbLine
 10
110.0
 20
-175.2021275758598
 30
0.0
 11
110.0
 21
-175.0106382369995
 31
0.0
  0
LINE
  5
75
330
2F
100
AcDbEntity
  8
0
 62
7
100
AcDbLine
 10
110.0
 20
-175.0106382369995
 30
0.0
 11
110.0
 21
-174.7553191185143
 31
0.0
  0
LINE
  5
76
330
2F
100
AcDbEntity
  8
0
 62
7
100
AcDbLine
 10
110.0
 20
-174.7553191185143
 30
0.0
 11
110.0
 21
-174.5638297796395
 31
0.0
  0
LINE
  5
77
330
2F
100
AcDbEntity
  8
0
 62
7
100
AcDbLine
 10
110.0
 20
-174.5638297796395
 30
0.0
 11
110.0
 21
-174.5
 31
0.0
  0
LINE
  5
78
330
2F
100
AcDbEntity
  8
0
 62
7
100
AcDbLine
 10
110.0000000000145
 20
-177.5000000000145
 30
0.0
 11
110.0000000000145
 21
-176.1595744490478
 31
0.0
  0
LINE
  5
79
330
2F
100
AcDbEntity
  8
0
 62
7
100
AcDbLine
 10
110.0
 20
-176.1595744490478
 30
0.0
 11
110.0
 21
-176.0957446694519
 31
0.0
  0
LINE
  5
7A
330
2F
100
AcDbEntity
  8
0
 62
7
100
AcDbLine
 10
110.0
 20
-176.0957446694519
 30
0.0
 11
110.0
 21
-175.904255330548
 31
0.0
  0
LINE
  5
7B
330
2F
100
AcDbEntity
  8
0
 62
7
100
AcDbLine
 10
110.0
 20
-175.904255330548
 30
0.0
 11
110.0
 21
-175.6489362120483
 31
0.0
  0
LINE
  5
7C
330
2F
100
AcDbEntity
  8
0
 62
7
100
AcDbLine
 10
110.0
 20
-175.6489362120483
 30
0.0
 11
110.0
 21
-175.4574468731734
 31
0.0
  0
LINE
  5
7D
330
2F
100
AcDbEntity
  8
0
 62
7
100
AcDbLine
 10
110.0
 20
-175.4574468731734
 30
0.0
 11
110.0
 21
-175.2021275758598
 31
0.0
  0
LINE
  5
7E
330
2F
100
AcDbEntity
  8
0
 62
7
100
AcDbLine
 10
110.0000000000145
 20
-175.8404255509231
 30
0.0
 11
109.0000000000145
 21
-175.8404255509231
 31
0.0
  0
LINE
  5
7F
330
2F
100
AcDbEntity
  8
0
 62
7
100
AcDbLine
 10
109.0000000000145
 20
-175.8404255509231
 30
0.0
 11
110.0000000000145
 21
-175.8404255509231
 31
0.0
  0
LINE
  5
80
330
2F
100
AcDbEntity
  8
0
 62
7
100
AcDbLine
 10
110.0000000000145
 20
-175.9680851101875
 30
0.0
 11
109.0000000000145
 21
-175.9680851101875
 31
0.0
  0
LINE
  5
81
330
2F
100
AcDbEntity
  8
0
 62
7
100
AcDbLine
 10
109.0000000000145
 20
-175.9680851101875
 30
0.0
 11
110.0000000000145
 21
-175.9680851101875
 31
0.0
  0
LINE
  5
82
330
2F
100
AcDbEntity
  8
0
 62
7
100
AcDbLine
 10
110.0000000000145
 20
-176.2234042286873
 30
0.0
 11
109.0000000000145
 21
-176.2234042286873
 31
0.0
  0
LINE
  5
83
330
2F
100
AcDbEntity
  8
0
 62
7
100
AcDbLine
 10
109.0000000000145
 20
-176.2234042286873
 30
0.0
 11
110.0000000000145
 21
-176.2234042286873
 31
0.0
  0
LINE
  5
84
330
2F
100
AcDbEntity
  8
0
 62
7
100
AcDbLine
 10
110.0000000000145
 20
-177.244680859163
 30
0.0
 11
109.0000000000145
 21
-177.244680859163
 31
0.0
  0
LINE
  5
85
330
2F
100
AcDbEntity
  8
0
 62
7
100
AcDbLine
 10
109.0000000000145
 20
-177.244680859163
 30
0.0
 11
110.0000000000145
 21
-177.244680859163
 31
0.0
  0
LINE
  5
86
330
2F
100
AcDbEntity
  8
0
 62
7
100
AcDbLine
 10
110.0000000000145
 20
-176.6702127754688
 30
0.0
 11
109.0000000000145
 21
-176.6702127754688
 31
0.0
  0
LINE
  5
87
330
2F
100
AcDbEntity
  8
0
 62
7
100
AcDbLine
 10
109.0000000000145
 20
-176.6702127754688
 30
0.0
 11
110.0000000000145
 21
-176.6702127754688
 31
0.0
  0
LINE
  5
88
330
2F
100
AcDbEntity
  8
0
 62
7
100
AcDbLine
 10
110.0000000000145
 20
-176.8617021143291
 30
0.0
 11
109.0000000000145
 21
-176.8617021143291
 31
0.0
  0
LINE
  5
89
330
2F
100
AcDbEntity
  8
0
 62
7
100
AcDbLine
 10
109.0000000000145
 20
-176.8617021143291
 30
0.0
 11
110.0000000000145
 21
-176.8617021143291
 31
0.0
  0
LINE
  5
8A
330
2F
100
AcDbEntity
  8
0
 62
7
100
AcDbLine
 10
110.0000000000145
 20
-176.5425532162189
 30
0.0
 11
109.0000000000145
 21
-176.5425532162189
 31
0.0
  0
LINE
  5
8B
330
2F
100
AcDbEntity
  8
0
 62
7
100
AcDbLine
 10
109.0000000000145
 20
-176.5425532162189
 30
0.0
 11
110.0000000000145
 21
-176.5425532162189
 31
0.0
  0
LINE
  5
8C
330
2F
100
AcDbEntity
  8
0
 62
7
100
AcDbLine
 10
110.0000000000145
 20
-176.3510637879226
 30
0.0
 11
109.0000000000145
 21
-176.3510637879226
 31
0.0
  0
LINE
  5
8D
330
2F
100
AcDbEntity
  8
0
 62
7
100
AcDbLine
 10
109.0000000000145
 20
-176.3510637879226
 30
0.0
 11
110.0000000000145
 21
-176.3510637879226
 31
0.0
  0
LINE
  5
8E
330
2F
100
AcDbEntity
  8
0
 62
7
100
AcDbLine
 10
110.0000000000145
 20
-174.6914893388602
 30
0.0
 11
109.0000000000145
 21
-174.6914893388602
 31
0.0
  0
LINE
  5
8F
330
2F
100
AcDbEntity
  8
0
 62
7
100
AcDbLine
 10
109.0000000000145
 20
-174.6914893388602
 30
0.0
 11
110.0000000000145
 21
-174.6914893388602
 31
0.0
  0
LINE
  5
90
330
2F
100
AcDbEntity
  8
0
 62
7
100
AcDbLine
 10
110.0000000000145
 20
-174.9468084573891
 30
0.0
 11
109.0000000000145
 21
-174.9468084573891
 31
0.0
  0
LINE
  5
91
330
2F
100
AcDbEntity
  8
0
 62
7
100
AcDbLine
 10
109.0000000000145
 20
-174.9468084573891
 30
0.0
 11
110.0000000000145
 21
-174.9468084573891
 31
0.0
  0
LINE
  5
92
330
2F
100
AcDbEntity
  8
0
 62
7
100
AcDbLine
 10
110.0000000000145
 20
-175.5212766528275
 30
0.0
 11
109.0000000000145
 21
-175.5212766528275
 31
0.0
  0
LINE
  5
93
330
2F
100
AcDbEntity
  8
0
 62
7
100
AcDbLine
 10
109.0000000000145
 20
-175.5212766528275
 30
0.0
 11
110.0000000000145
 21
-175.5212766528275
 31
0.0
  0
LINE
  5
94
330
2F
100
AcDbEntity
  8
0
 62
7
100
AcDbLine
 10
110.0000000000145
 20
-176.4787234365794
 30
0.0
 11
109.0000000000145
 21
-176.4787234365794
 31
0.0
  0
LINE
  5
95
330
2F
100
AcDbEntity
  8
0
 62
7
100
AcDbLine
 10
109.0000000000145
 20
-176.4787234365794
 30
0.0
 11
110.0000000000145
 21
-176.4787234365794
 31
0.0
  0
LINE
  5
96
330
2F
100
AcDbEntity
  8
0
 62
7
100
AcDbLine
 10
110.0000000000145
 20
-176.7978723347332
 30
0.0
 11
109.0000000000145
 21
-176.7978723347332
 31
0.0
  0
LINE
  5
97
330
2F
100
AcDbEntity
  8
0
 62
7
100
AcDbLine
 10
109.0000000000145
 20
-176.7978723347332
 30
0.0
 11
110.0000000000145
 21
-176.7978723347332
 31
0.0
  0
LINE
  5
98
330
2F
100
AcDbEntity
  8
0
 62
7
100
AcDbLine
 10
110.0000000000145
 20
-177.0531914979365
 30
0.0
 11
109.0000000000145
 21
-177.0531914979365
 31
0.0
  0
LINE
  5
99
330
2F
100
AcDbEntity
  8
0
 62
7
100
AcDbLine
 10
109.0000000000145
 20
-177.0531914979365
 30
0.0
 11
110.0000000000145
 21
-177.0531914979365
 31
0.0
  0
LINE
  5
9A
330
2F
100
AcDbEntity
  8
0
 62
7
100
AcDbLine
 10
110.0000000000145
 20
-177.308510638788
 30
0.0
 11
109.0000000000145
 21
-177.308510638788
 31
0.0
  0
LINE
  5
9B
330
2F
100
AcDbEntity
  8
0
 62
7
100
AcDbLine
 10
109.0000000000145
 20
-177.308510638788
 30
0.0
 11
110.0000000000145
 21
-177.308510638788
 31
0.0
  0
LINE
  5
9C
330
2F
100
AcDbEntity
  8
0
 62
7
100
AcDbLine
 10
110.0000000000145
 20
-177.4361702147871
 30
0.0
 11
109.0000000000145
 21
-177.4361702147871
 31
0.0
  0
LINE
  5
9D
330
2F
100
AcDbEntity
  8
0
 62
7
100
AcDbLine
 10
109.0000000000145
 20
-177.4361702147871
 30
0.0
 11
110.0000000000145
 21
-177.4361702147871
 31
0.0
  0
LINE
  5
9E
330
2F
100
AcDbEntity
  8
0
 62
7
100
AcDbLine
 10
110.0000000000145
 20
-177.1170212775614
 30
0.0
 11
109.0000000000145
 21
-177.1170212775614
 31
0.0
  0
LINE
  5
9F
330
2F
100
AcDbEntity
  8
0
 62
7
100
AcDbLine
 10
109.0000000000145
 20
-177.1170212775614
 30
0.0
 11
110.0000000000145
 21
-177.1170212775614
 31
0.0
  0
LINE
  5
A0
330
2F
100
AcDbEntity
  8
0
 62
7
100
AcDbLine
 10
110.0000000000145
 20
-176.9255318939831
 30
0.0
 11
109.0000000000145
 21
-176.9255318939831
 31
0.0
  0
LINE
  5
A1
330
2F
100
AcDbEntity
  8
0
 62
7
100
AcDbLine
 10
109.0000000000145
 20
-176.9255318939831
 30
0.0
 11
110.0000000000145
 21
-176.9255318939831
 31
0.0
  0
LINE
  5
A2
330
2F
100
AcDbEntity
  8
0
 62
7
100
AcDbLine
 10
110.0000000000145
 20
-176.7340425551083
 30
0.0
 11
109.0000000000145
 21
-176.7340425551083
 31
0.0
  0
LINE
  5
A3
330
2F
100
AcDbEntity
  8
0
 62
7
100
AcDbLine
 10
109.0000000000145
 20
-176.7340425551083
 30
0.0
 11
110.0000000000145
 21
-176.7340425551083
 31
0.0
  0
LINE
  5
A4
330
2F
100
AcDbEntity
  8
0
 62
7
100
AcDbLine
 10
110.0000000000145
 20
-175.2659575342986
 30
0.0
 11
109.0000000000145
 21
-175.2659575342986
 31
0.0
  0
LINE
  5
A5
330
2F
100
AcDbEntity
  8
0
 62
7
100
AcDbLine
 10
109.0000000000145
 20
-175.2659575342986
 30
0.0
 11
110.0000000000145
 21
-175.2659575342986
 31
0.0
  0
LINE
  5
A6
330
2F
100
AcDbEntity
  8
0
 62
7
100
AcDbLine
 10
110.0000000000145
 20
-175.074468016639
 30
0.0
 11
109.0000000000145
 21
-175.074468016639
 31
0.0
  0
LINE
  5
A7
330
2F
100
AcDbEntity
  8
0
 62
7
100
AcDbLine
 10
109.0000000000145
 20
-175.074468016639
 30
0.0
 11
110.0000000000145
 21
-175.074468016639
 31
0.0
  0
LINE
  5
A8
330
2F
100
AcDbEntity
  8
0
 62
7
100
AcDbLine
 10
110.0000000000145
 20
-176.0319148897979
 30
0.0
 11
109.0000000000145
 21
-176.0319148897979
 31
0.0
  0
LINE
  5
A9
330
2F
100
AcDbEntity
  8
0
 62
7
100
AcDbLine
 10
109.0000000000145
 20
-176.0319148897979
 30
0.0
 11
110.0000000000145
 21
-176.0319148897979
 31
0.0
  0
LINE
  5
AA
330
2F
100
AcDbEntity
  8
0
 62
7
100
AcDbLine
 10
109.0
 20
-175.0106382369995
 30
0.0
 11
110.0
 21
-175.0106382369995
 31
0.0
  0
LINE
  5
AB
330
2F
100
AcDbEntity
  8
0
 62
7
100
AcDbLine
 10
110.0
 20
-175.0106382369995
 30
0.0
 11
110.0
 21
-175.2021275758598
 31
0.0
  0
LINE
  5
AC
330
2F
100
AcDbEntity
  8
0
 62
7
100
AcDbLine
 10
110.0
 20
-175.2021275758598
 30
0.0
 11
109.0
 21
-175.2021275758598
 31
0.0
  0
LINE
  5
AD
330
2F
100
AcDbEntity
  8
0
 62
7
100
AcDbLine
 10
109.0
 20
-175.2021275758598
 30
0.0
 11
110.0
 21
-175.2021275758598
 31
0.0
  0
LINE
  5
AE
330
2F
100
AcDbEntity
  8
0
 62
7
100
AcDbLine
 10
110.0
 20
-175.2021275758598
 30
0.0
 11
110.0
 21
-175.4574468731734
 31
0.0
  0
LINE
  5
AF
330
2F
100
AcDbEntity
  8
0
 62
7
100
AcDbLine
 10
110.0
 20
-175.4574468731734
 30
0.0
 11
109.0
 21
-175.4574468731734
 31
0.0
  0
LINE
  5
B0
330
2F
100
AcDbEntity
  8
0
 62
7
100
AcDbLine
 10
109.0
 20
-175.4574468731734
 30
0.0
 11
110.0
 21
-175.4574468731734
 31
0.0
  0
LINE
  5
B1
330
2F
100
AcDbEntity
  8
0
 62
7
100
AcDbLine
 10
110.0
 20
-175.4574468731734
 30
0.0
 11
110.0
 21
-175.6489362120483
 31
0.0
  0
LINE
  5
B2
330
2F
100
AcDbEntity
  8
0
 62
7
100
AcDbLine
 10
110.0
 20
-175.6489362120483
 30
0.0
 11
109.0
 21
-175.6489362120483
 31
0.0
  0
LINE
  5
B3
330
2F
100
AcDbEntity
  8
0
 62
7
100
AcDbLine
 10
109.0
 20
-175.6489362120483
 30
0.0
 11
110.0
 21
-175.6489362120483
 31
0.0
  0
LINE
  5
B4
330
2F
100
AcDbEntity
  8
0
 62
7
100
AcDbLine
 10
110.0
 20
-175.6489362120483
 30
0.0
 11
110.0
 21
-175.904255330548
 31
0.0
  0
LINE
  5
B5
330
2F
100
AcDbEntity
  8
0
 62
7
100
AcDbLine
 10
110.0
 20
-175.904255330548
 30
0.0
 11
109.0
 21
-175.904255330548
 31
0.0
  0
LINE
  5
B6
330
2F
100
AcDbEntity
  8
0
 62
7
100
AcDbLine
 10
109.0
 20
-175.904255330548
 30
0.0
 11
110.0
 21
-175.904255330548
 31
0.0
  0
LINE
  5
B7
330
2F
100
AcDbEntity
  8
0
 62
7
100
AcDbLine
 10
110.0
 20
-175.904255330548
 30
0.0
 11
110.0
 21
-176.0957446694519
 31
0.0
  0
LINE
  5
B8
330
2F
100
AcDbEntity
  8
0
 62
7
100
AcDbLine
 10
110.0
 20
-176.0957446694519
 30
0.0
 11
109.0
 21
-176.0957446694519
 31
0.0
  0
LINE
  5
B9
330
2F
100
AcDbEntity
  8
0
 62
7
100
AcDbLine
 10
109.0
 20
-176.0957446694519
 30
0.0
 11
110.0
 21
-176.0957446694519
 31
0.0
  0
LINE
  5
BA
330
2F
100
AcDbEntity
  8
0
 62
7
100
AcDbLine
 10
110.0
 20
-176.0957446694519
 30
0.0
 11
110.0
 21
-176.1595744490478
 31
0.0
  0
LINE
  5
BB
330
2F
100
AcDbEntity
  8
0
 62
7
100
AcDbLine
 10
110.0
 20
-176.1595744490478
 30
0.0
 11
109.0
 21
-176.1595744490478
 31
0.0
  0
LINE
  5
BC
330
2F
100
AcDbEntity
  8
0
 62
7
100
AcDbLine
 10
109.0
 20
-176.1595744490478
 30
0.0
 11
110.0
 21
-176.1595744490478
 31
0.0
  0
LINE
  5
BD
330
2F
100
AcDbEntity
  8
0
 62
7
100
AcDbLine
 10
110.0000000000145
 20
-176.1595744490478
 30
0.0
 11
110.0000000000145
 21
-177.5000000000145
 31
0.0
  0
LINE
  5
BE
330
2F
100
AcDbEntity
  8
0
 62
7
100
AcDbLine
 10
110.0000000000145
 20
-177.5000000000145
 30
0.0
 11
109.0000000000145
 21
-177.5000000000145
 31
0.0
  0
LINE
  5
BF
330
2F
100
AcDbEntity
  8
0
 62
7
100
AcDbLine
 10
109.0000000000145
 20
-177.5000000000145
 30
0.0
 11
110.0000000000145
 21
-177.5000000000145
 31
0.0
  0
LINE
  5
C0
330
2F
100
AcDbEntity
  8
0
 62
7
100
AcDbLine
 10
110.0
 20
-174.5
 30
0.0
 11
109.0
 21
-174.5
 31
0.0
  0
LINE
  5
C1
330
2F
100
AcDbEntity
  8
0
 62
7
100
AcDbLine
 10
109.0
 20
-174.5
 30
0.0
 11
110.0
 21
-174.5
 31
0.0
  0
LINE
  5
C2
330
2F
100
AcDbEntity
  8
0
 62
7
100
AcDbLine
 10
110.0
 20
-174.5
 30
0.0
 11
110.0
 21
-174.5638297796395
 31
0.0
  0
LINE
  5
C3
330
2F
100
AcDbEntity
  8
0
 62
7
100
AcDbLine
 10
110.0
 20
-174.5638297796395
 30
0.0
 11
109.0
 21
-174.5638297796395
 31
0.0
  0
LINE
  5
C4
330
2F
100
AcDbEntity
  8
0
 62
7
100
AcDbLine
 10
109.0
 20
-174.5638297796395
 30
0.0
 11
110.0
 21
-174.5638297796395
 31
0.0
  0
LINE
  5
C5
330
2F
100
AcDbEntity
  8
0
 62
7
100
AcDbLine
 10
110.0
 20
-174.5638297796395
 30
0.0
 11
110.0
 21
-174.7553191185143
 31
0.0
  0
LINE
  5
C6
330
2F
100
AcDbEntity
  8
0
 62
7
100
AcDbLine
 10
110.0
 20
-174.7553191185143
 30
0.0
 11
109.0
 21
-174.7553191185143
 31
0.0
  0
LINE
  5
C7
330
2F
100
AcDbEntity
  8
0
 62
7
100
AcDbLine
 10
109.0
 20
-174.7553191185143
 30
0.0
 11
110.0
 21
-174.7553191185143
 31
0.0
  0
LINE
  5
C8
330
2F
100
AcDbEntity
  8
0
 62
7
100
AcDbLine
 10
110.0
 20
-174.7553191185143
 30
0.0
 11
110.0
 21
-175.0106382369995
 31
0.0
  0
LINE
  5
C9
330
2F
100
AcDbEntity
  8
0
 62
7
100
AcDbLine
 10
110.0
 20
-175.0106382369995
 30
0.0
 11
109.0
 21
-175.0106382369995
 31
0.0
  0
LINE
  5
CA
330
2F
100
AcDbEntity
  8
0
 62
7
100
AcDbLine
 10
110.0
 20
-175.7765957712981
 30
0.0
 11
109.0
 21
-175.7765957712981
 31
0.0
  0
LINE
  5
CB
330
2F
100
AcDbEntity
  8
0
 62
7
100
AcDbLine
 10
109.0
 20
-175.7765957712981
 30
0.0
 11
110.0
 21
-175.7765957712981
 31
0.0
  0
LINE
  5
CC
330
2F
100
AcDbEntity
  8
0
 62
7
100
AcDbLine
 10
110.0
 20
-175.7127659917023
 30
0.0
 11
109.0
 21
-175.7127659917023
 31
0.0
  0
LINE
  5
CD
330
2F
100
AcDbEntity
  8
0
 62
7
100
AcDbLine
 10
109.0
 20
-175.7127659917023
 30
0.0
 11
110.0
 21
-175.7127659917023
 31
0.0
  0
LINE
  5
CE
330
2F
100
AcDbEntity
  8
0
 62
7
100
AcDbLine
 10
110.0
 20
-175.5851064324524
 30
0.0
 11
109.0
 21
-175.5851064324524
 31
0.0
  0
LINE
  5
CF
330
2F
100
AcDbEntity
  8
0
 62
7
100
AcDbLine
 10
109.0
 20
-175.5851064324524
 30
0.0
 11
110.0
 21
-175.5851064324524
 31
0.0
  0
LINE
  5
D0
330
2F
100
AcDbEntity
  8
0
 62
7
100
AcDbLine
 10
110.0
 20
-175.3936170935485
 30
0.0
 11
109.0
 21
-175.3936170935485
 31
0.0
  0
LINE
  5
D1
330
2F
100
AcDbEntity
  8
0
 62
7
100
AcDbLine
 10
109.0
 20
-175.3936170935485
 30
0.0
 11
110.0
 21
-175.3936170935485
 31
0.0
  0
LINE
  5
D2
330
2F
100
AcDbEntity
  8
0
 62
7
100
AcDbLine
 10
110.0
 20
-174.8829786777351
 30
0.0
 11
109.0
 21
-174.8829786777351
 31
0.0
  0
LINE
  5
D3
330
2F
100
AcDbEntity
  8
0
 62
7
100
AcDbLine
 10
109.0
 20
-174.8829786777351
 30
0.0
 11
110.0
 21
-174.8829786777351
 31
0.0
  0
LINE
  5
D4
330
2F
100
AcDbEntity
  8
0
 62
7
100
AcDbLine
 10
110.0
 20
-174.8191488981101
 30
0.0
 11
109.0
 21
-174.8191488981101
 31
0.0
  0
LINE
  5
D5
330
2F
100
AcDbEntity
  8
0
 62
7
100
AcDbLine
 10
109.0
 20
-174.8191488981101
 30
0.0
 11
110.0
 21
-174.8191488981101
 31
0.0
  0
LINE
  5
D6
330
2F
100
AcDbEntity
  8
0
 62
7
100
AcDbLine
 10
110.0000000000145
 20
-162.5000000000145
 30
0.0
 11
111.0000000000145
 21
-162.5000000000145
 31
0.0
  0
LINE
  5
D7
330
2F
100
AcDbEntity
  8
0
 62
7
100
AcDbLine
 10
111.0000000000145
 20
-158.7500000000145
 30
0.0
 11
111.0000000000145
 21
-162.5000000000145
 31
0.0
  0
LINE
  5
D8
330
2F
100
AcDbEntity
  8
0
 62
7
100
AcDbLine
 10
110.0000000000145
 20
-158.7500000000145
 30
0.0
 11
111.0000000000145
 21
-158.7500000000145
 31
0.0
  0
LINE
  5
D9
330
2F
100
AcDbEntity
  8
0
 62
7
100
AcDbLine
 10
111.0000000000145
 20
-162.5000000000145
 30
0.0
 11
111.0000000000145
 21
-166.2500000000145
 31
0.0
  0
LINE
  5
DA
330
2F
100
AcDbEntity
  8
0
 62
7
100
AcDbLine
 10
111.0000000000145
 20
-162.5000000000145
 30
0.0
 11
110.0000000000145
 21
-162.5000000000145
 31
0.0
  0
LINE
  5
DB
330
2F
100
AcDbEntity
  8
0
 62
7
100
AcDbLine
 10
110.0000000000145
 20
-166.2500000000145
 30
0.0
 11
111.0000000000145
 21
-166.2500000000145
 31
0.0
  0
LINE
  5
DC
330
2F
100
AcDbEntity
  8
0
 62
7
100
AcDbLine
 10
111.0000000000145
 20
-158.7500000000145
 30
0.0
 11
111.0000000000145
 21
-166.2500000000145
 31
0.0
  0
LINE
  5
DD
330
2F
100
AcDbEntity
  8
0
 62
7
100
AcDbLine
 10
95.0
 20
-212.5000000000136
 30
0.0
 11
105.0
 21
-212.5000000000146
 31
0.0
  0
LINE
  5
DE
330
2F
100
AcDbEntity
  8
0
 62
7
100
AcDbLine
 10
95.0
 20
-11.25
 30
0.0
 11
95.0
 21
-20.75000000001455
 31
0.0
  0
LINE
  5
DF
330
2F
100
AcDbEntity
  8
0
 62
7
100
AcDbLine
 10
87.0
 20
0.0
 30
0.0
 11
0.0
 21
0.0
 31
0.0
  0
LINE
  5
E0
330
2F
100
AcDbEntity
  8
0
 62
7
100
AcDbLine
 10
28.76393202249892
 20
2.499999999985448
 30
0.0
 11
28.76393202249892
 21
0.0
 31
0.0
  0
LINE
  5
E1
330
2F
100
AcDbEntity
  8
0
 62
7
100
AcDbLine
 10
2.0
 20
0.0
 30
0.0
 11
2.0
 21
2.499999999985448
 31
0.0
  0
LINE
  5
E2
330
2F
100
AcDbEntity
  8
0
 62
7
100
AcDbLine
 10
2.0
 20
2.499999999985448
 30
0.0
 11
28.76393202249892
 21
2.499999999985448
 31
0.0
  0
LINE
  5
E3
330
2F
100
AcDbEntity
  8
0
 62
7
100
AcDbLine
 10
28.76393202249892
 20
2.499999999985448
 30
0.0
 11
28.76393202249892
 21
0.0
 31
0.0
  0
LINE
  5
E4
330
2F
100
AcDbEntity
  8
0
 62
7
100
AcDbLine
 10
2.0
 20
2.499999999985448
 30
0.0
 11
2.0
 21
0.0
 31
0.0
  0
ARC
  5
E5
330
2F
100
AcDbEntity
  8
0
 62
7
100
AcDbCircle
 10
87.0
 20
-267.0
 30
0.0
 40
8.000000000000009
100
AcDbArc
 50
269.999999968317
 51
0.0
  0
ARC
  5
E6
330
2F
100
AcDbEntity
  8
0
 62
7
100
AcDbCircle
 10
87.0
 20
-267.0
 30
0.0
 40
7.999999999999986
100
AcDbArc
 50
270.0
 51
0.0
  0
LINE
  5
E7
330
2F
100
AcDbEntity
  8
0
 62
7
100
AcDbLine
 10
95.0
 20
-267.0
 30
0.0
 11
95.0
 21
-263.7500000000145
 31
0.0
  0
LINE
  5
E8
330
2F
100
AcDbEntity
  8
0
 62
7
100
AcDbLine
 10
95.0
 20
-254.2500000000146
 30
0.0
 11
95.0
 21
-263.7500000000145
 31
0.0
  0
LWPOLYLINE
  5
E9
330
2F
100
AcDbEntity
  8
0
 62
7
100
AcDbPolyline
 90
4
 70
1
 10
30.0
 20
0.0
 10
35.0
 20
0.0
 10
35.0
 20
-28.0
 10
30.0
 20
-28.0
  0
LINE
  5
EA
330
2F
100
AcDbEntity
  8
0
 62
7
100
AcDbLine
 10
30.0
 20
-9.50000000001455
 30
0.0
 11
35.0
 21
-9.50000000001455
 31
0.0
  0
LINE
  5
EB
330
2F
100
AcDbEntity
  8
0
 62
7
100
AcDbLine
 10
27.0
 20
-15.50000000001455
 30
0.0
 11
38.0
 21
-15.50000000001455
 31
0.0
  0
LINE
  5
EC
330
2F
100
AcDbEntity
  8
0
 62
7
100
AcDbLine
 10
30.0
 20
-21.50000000001455
 30
0.0
 11
35.0
 21
-21.50000000001455
 31
0.0
  0
LINE
  5
ED
330
2F
100
AcDbEntity
  8
0
 62
7
100
AcDbLine
 10
35.0
 20
-28.0
 30
0.0
 11
95.0
 21
-28.0
 31
0.0
  0
LWPOLYLINE
  5
EE
330
2F
100
AcDbEntity
  8
0
 62
7
100
AcDbPolyline
 90
4
 70
1
 10
30.0
 20
-275.0000000000146
 10
35.0
 20
-275.0000000000146
 10
35.0
 20
-247.0000000000145
 10
30.0
 20
-247.0000000000145
  0
LINE
  5
EF
330
2F
100
AcDbEntity
  8
0
 62
7
100
AcDbLine
 10
30.0
 20
-265.5
 30
0.0
 11
35.0
 21
-265.5
 31
0.0
  0
LINE
  5
F0
330
2F
100
AcDbEntity
  8
0
 62
7
100
AcDbLine
 10
27.0
 20
-259.5
 30
0.0
 11
38.0
 21
-259.5
 31
0.0
  0
LINE
  5
F1
330
2F
100
AcDbEntity
  8
0
 62
7
100
AcDbLine
 10
30.0
 20
-253.5
 30
0.0
 11
35.0
 21
-253.5
 31
0.0
  0
LINE
  5
F2
330
2F
100
AcDbEntity
  8
0
 62
7
100
AcDbLine
 10
35.0
 20
-247.0000000000145
 30
0.0
 11
95.0
 21
-247.0000000000145
 31
0.0
  0
LINE
  5
F3
330
2F
100
AcDbEntity
  8
0
 62
7
100
AcDbLine
 10
0.0
 20
0.0
 30
0.0
 11
0.0
 21
-275.0000000000146
 31
0.0
  0
MTEXT
  5
F4
330
2F
100
AcDbEntity
  8
0
100
AcDbMText
 10
61.84503589400356
 20
-47.00056416498045
 30
0.0
 40
6.0
 41
37.68671622717443
 46
0.0
 71
3
 72
5
  1
\pxqc;{\C1;LS MCCB\PABN/S/L\P800AF}
101
Embedded Object
 70
1
 10
1.0
 20
0.0
 30
0.0
 11
61.84503589400356
 21
-47.00056416498045
 31
0.0
 40
37.68671622717443
 41
0.0
 42
36.20054570259209
 43
26.33151432469304
 71
2
 72
1
 44
37.68671622717443
 45
1.0
 73
0
 74
0
 46
0.0
  0
ENDBLK
  5
31
330
2F
100
AcDbEntity
  8
0
100
AcDbBlockEnd
  0
ENDSEC
  0
SECTION
  2
ENTITIES
  0
INSERT
  5
F5
330
17
100
AcDbEntity
  8
0
100
AcDbBlockReference
  2
HCC2 LS 800AF
 10
0.0
 20
277.5
 30
0.0
  0
ENDSEC
  0
SECTION
  2
OBJECTS
  0
DICTIONARY
  5
A
330
0
100
AcDbDictionary
281
1
  3
ACAD_COLOR
350
B
  3
ACAD_GROUP
350
C
  3
ACAD_LAYOUT
350
D
  3
ACAD_MATERIAL
350
E
  3
ACAD_MLEADERSTYLE
350
F
  3
ACAD_MLINESTYLE
350
10
  3
ACAD_PLOTSETTINGS
350
11
  3
ACAD_PLOTSTYLENAME
350
12
  3
ACAD_SCALELIST
350
14
  3
ACAD_TABLESTYLE
350
15
  3
ACAD_VISUALSTYLE
350
16
  3
EZDXF_META
350
2D
  0
DICTIONARY
  5
B
330
A
100
AcDbDictionary
281
1
  0
DICTIONARY
  5
C
330
A
100
AcDbDictionary
281
1
  0
DICTIONARY
  5
D
330
A
100
AcDbDictionary
281
1
  3
Model
350
1A
  3
Layout1
350
1E
  0
DICTIONARY
  5
E
330
A
100
AcDbDictionary
281
1
  3
ByBlock
350
1F
  3
ByLayer
350
20
  3
Global
350
21
  0
DICTIONARY
  5
F
330
A
100
AcDbDictionary
281
1
  3
Standard
350
2C
  0
DICTIONARY
  5
10
330
A
100
AcDbDictionary
281
1
  3
Standard
350
22
  0
DICTIONARY
  5
11
330
A
100
AcDbDictionary
281
1
  0
ACDBDICTIONARYWDFLT
  5
12
330
A
100
AcDbDictionary
281
1
  3
Normal
350
13
100
AcDbDictionaryWithDefault
340
13
  0
ACDBPLACEHOLDER
  5
13
330
12
  0
DICTIONARY
  5
14
330
A
100
AcDbDictionary
281
1
  0
DICTIONARY
  5
15
330
A
100
AcDbDictionary
281
1
  0
DICTIONARY
  5
16
330
A
100
AcDbDictionary
281
1
  0
LAYOUT
  5
1A
330
D
100
AcDbPlotSettings
  1

  4
A3
  6

 40
7.5
 41
20.0
 42
7.5
 43
20.0
 44
420.0
 45
297.0
 46
0.0
 47
0.0
 48
0.0
 49
0.0
140
0.0
141
0.0
142
1.0
143
1.0
 70
1024
 72
1
 73
0
 74
5
  7

 75
16
 76
0
 77
2
 78
300
147
1.0
148
0.0
149
0.0
100
AcDbLayout
  1
Model
 70
1
 71
0
 10
0.0
 20
0.0
 11
420.0
 21
297.0
 12
0.0
 22
0.0
 32
0.0
 14
1e+20
 24
1e+20
 34
1e+20
 15
-1e+20
 25
-1e+20
 35
-1e+20
146
0.0
 13
0.0
 23
0.0
 33
0.0
 16
1.0
 26
0.0
 36
0.0
 17
0.0
 27
1.0
 37
0.0
 76
1
330
17
  0
LAYOUT
  5
1E
330
D
100
AcDbPlotSettings
  1

  4
A3
  6

 40
7.5
 41
20.0
 42
7.5
 43
20.0
 44
420.0
 45
297.0
 46
0.0
 47
0.0
 48
0.0
 49
0.0
140
0.0
141
0.0
142
1.0
143
1.0
 70
0
 72
1
 73
0
 74
5
  7

 75
16
 76
0
 77
2
 78
300
147
1.0
148
0.0
149
0.0
100
AcDbLayout
  1
Layout1
 70
1
 71
1
 10
0.0
 20
0.0
 11
420.0
 21
297.0
 12
0.0
 22
0.0
 32
0.0
 14
1e+20
 24
1e+20
 34
1e+20
 15
-1e+20
 25
-1e+20
 35
-1e+20
146
0.0
 13
0.0
 23
0.0
 33
0.0
 16
1.0
 26
0.0
 36
0.0
 17
0.0
 27
1.0
 37
0.0
 76
1
330
1B
  0
MATERIAL
  5
1F
102
{ACAD_REACTORS
330
E
102
}
330
E
100
AcDbMaterial
  1
ByBlock
  2

 70
0
 40
1.0
 71
1
 41
1.0
 91
-1023410177
 42
1.0
 72
1
  3

 73
1
 74
1
 75
1
 44
0.5
 73
0
 45
1.0
 46
1.0
 77
1
  4

 78
1
 79
1
170
1
 48
1.0
171
1
  6

172
1
173
1
174
1
140
1.0
141
1.0
175
1
  7

176
1
177
1
178
1
143
1.0
179
1
  8

270
1
271
1
272
1
145
1.0
146
1.0
273
1
  9

274
1
275
1
276
1
 42
1.0
 72
1
  3

 73
1
 74
1
 75
1
 94
63
  0
MATERIAL
  5
20
102
{ACAD_REACTORS
330
E
102
}
330
E
100
AcDbMaterial
  1
ByLayer
  2

 70
0
 40
1.0
 71
1
 41
1.0
 91
-1023410177
 42
1.0
 72
1
  3

 73
1
 74
1
 75
1
 44
0.5
 73
0
 45
1.0
 46
1.0
 77
1
  4

 78
1
 79
1
170
1
 48
1.0
171
1
  6

172
1
173
1
174
1
140
1.0
141
1.0
175
1
  7

176
1
177
1
178
1
143
1.0
179
1
  8

270
1
271
1
272
1
145
1.0
146
1.0
273
1
  9

274
1
275
1
276
1
 42
1.0
 72
1
  3

 73
1
 74
1
 75
1
 94
63
  0
MATERIAL
  5
21
102
{ACAD_REACTORS
330
E
102
}
330
E
100
AcDbMaterial
  1
Global
  2

 70
0
 40
1.0
 71
1
 41
1.0
 91
-1023410177
 42
1.0
 72
1
  3

 73
1
 74
1
 75
1
 44
0.5
 73
0
 45
1.0
 46
1.0
 77
1
  4

 78
1
 79
1
170
1
 48
1.0
171
1
  6

172
1
173
1
174
1
140
1.0
141
1.0
175
1
  7

176
1
177
1
178
1
143
1.0
179
1
  8

270
1
271
1
272
1
145
1.0
146
1.0
273
1
  9

274
1
275
1
276
1
 42
1.0
 72
1
  3

 73
1
 74
1
 75
1
 94
63
  0
MLINESTYLE
  5
22
102
{ACAD_REACTORS
330
10
102
}
330
10
100
AcDbMlineStyle
  2
Standard
 70
0
  3

 62
256
 51
90.0
 52
90.0
 71
2
 49
0.5
 62
256
  6
BYLAYER
 49
-0.5
 62
256
  6
BYLAYER
  0
MLEADERSTYLE
  5
2C
102
{ACAD_REACTORS
330
F
102
}
330
F
100
AcDbMLeaderStyle
179
2
170
2
171
1
172
0
 90
2
 40
0.0
 41
0.0
173
1
 91
-1056964608
 92
-2
290
1
 42
2.0
291
1
 43
8.0
  3
Standard
 44
4.0
300

342
29
174
1
175
1
176
0
178
1
 93
-1056964608
 45
4.0
292
0
297
0
 46
4.0
 94
-1056964608
 47
1.0
 49
1.0
140
1.0
294
1
141
0.0
177
0
142
1.0
295
0
296
0
143
3.75
271
0
272
9
273
9
  0
DICTIONARY
  5
2D
330
A
100
AcDbDictionary
280
1
281
1
  3
CREATED_BY_EZDXF
350
2E
  3
WRITTEN_BY_EZDXF
350
F9
  0
DICTIONARYVAR
  5
2E
330
2D
100
DictionaryVariables
280
0
  1
1.4.4 @ 2026-09-23T06:03:00.925614+00:00
  0
DICTIONARYVAR
  5
F9
330
2D
100
DictionaryVariables
280
0
  1
1.4.4 @ 2026-09-23T06:03:00.960378+00:00
  0
ENDSEC
  0
EOF
