  0
SECTION
  2
HEADER
  9
$ACADVER
  1
AC1032
  9
$ACADMAINTVER
 90
4
  9
$DWGCODEPAGE
  3
ANSI_1252
  9
$LASTSAVEDBY
  1
ezdxf
  9
$REQUIREDVERSIONS
160
0
  9
$INSBASE
 10
0.0
 20
0.0
 30
0.0
  9
$EXTMIN
 10
1e+20
 20
1e+20
 30
1e+20
  9
$EXTMAX
 10
-1e+20
 20
-1e+20
 30
-1e+20
  9
$LIMMIN
 10
0.0
 20
0.0
  9
$LIMMAX
 10
420.0
 20
297.0
  9
$ORTHOMODE
 70
0
  9
$REGENMODE
 70
1
  9
$FILLMODE
 70
1
  9
$QTEXTMODE
 70
0
  9
$MIRRTEXT
 70
1
  9
$LTSCALE
 40
1.0
  9
$ATTMODE
 70
1
  9
$TEXTSIZE
 40
2.5
  9
$TRACEWID
 40
1.0
  9
$TEXTSTYLE
  7
Standard
  9
$CLAYER
  8
0
  9
$CELTYPE
  6
ByLayer
  9
$CECOLOR
 62
256
  9
$CELTSCALE
 40
1.0
  9
$DISPSILH
 70
0
  9
$DIMSCALE
 40
1.0
  9
$DIMASZ
 40
2.5
  9
$DIMEXO
 40
0.625
  9
$DIMDLI
 40
3.75
  9
$DIMRND
 40
0.0
  9
$DIMDLE
 40
0.0
  9
$DIMEXE
 40
1.25
  9
$DIMTP
 40
0.0
  9
$DIMTM
 40
0.0
  9
$DIMTXT
 40
2.5
  9
$DIMCEN
 40
2.5
  9
$DIMTSZ
 40
0.0
  9
$DIMTOL
 70
0
  9
$DIMLIM
 70
0
  9
$DIMTIH
 70
0
  9
$DIMTOH
 70
0
  9
$DIMSE1
 70
0
  9
$DIMSE2
 70
0
  9
$DIMTAD
 70
1
  9
$DIMZIN
 70
8
  9
$DIMBLK
  1

  9
$DIMASO
 70
1
  9
$DIMSHO
 70
1
  9
$DIMPOST
  1

  9
$DIMAPOST
  1

  9
$DIMALT
 70
0
  9
$DIMALTD
 70
3
  9
$DIMALTF
 40
0.03937007874
  9
$DIMLFAC
 40
1.0
  9
$DIMTOFL
 70
1
  9
$DIMTVP
 40
0.0
  9
$DIMTIX
 70
0
  9
$DIMSOXD
 70
0
  9
$DIMSAH
 70
0
  9
$DIMBLK1
  1

  9
$DIMBLK2
  1

  9
$DIMSTYLE
  2
ISO-25
  9
$DIMCLRD
 70
0
  9
$DIMCLRE
 70
0
  9
$DIMCLRT
 70
0
  9
$DIMTFAC
 40
1.0
  9
$DIMGAP
 40
0.625
  9
$DIMJUST
 70
0
  9
$DIMSD1
 70
0
  9
$DIMSD2
 70
0
  9
$DIMTOLJ
 70
0
  9
$DIMTZIN
 70
8
  9
$DIMALTZ
 70
0
  9
$DIMALTTZ
 70
0
  9
$DIMUPT
 70
0
  9
$DIMDEC
 70
2
  9
$DIMTDEC
 70
2
  9
$DIMALTU
 70
2
  9
$DIMALTTD
 70
3
  9
$DIMTXSTY
  7
Standard
  9
$DIMAUNIT
 70
0
  9
$DIMADEC
 70
0
  9
$DIMALTRND
 40
0.0
  9
$DIMAZIN
 70
0
  9
$DIMDSEP
 70
44
  9
$DIMATFIT
 70
3
  9
$DIMFRAC
 70
0
  9
$DIMLDRBLK
  1

  9
$DIMLUNIT
 70
2
  9
$DIMLWD
 70
-2
  9
$DIMLWE
 70
-2
  9
$DIMTMOVE
 70
0
  9
$DIMFXL
 40
1.0
  9
$DIMFXLON
 70
0
  9
$DIMJOGANG
 40
0.785398163397
  9
$DIMTFILL
 70
0
  9
$DIMTFILLCLR
 70
0
  9
$DIMARCSYM
 70
0
  9
$DIMLTYPE
  6

  9
$DIMLTEX1
  6

  9
$DIMLTEX2
  6

  9
$DIMTXTDIRECTION
 70
0
  9
$LUNITS
 70
2
  9
$LUPREC
 70
4
  9
$SKETCHINC
 40
1.0
  9
$FILLETRAD
 40
10.0
  9
$AUNITS
 70
0
  9
$AUPREC
 70
2
  9
$MENU
  1
.
  9
$ELEVATION
 40
0.0
  9
$PELEVATION
 40
0.0
  9
$THICKNESS
 40
0.0
  9
$LIMCHECK
 70
0
  9
$CHAMFERA
 40
0.0
  9
$CHAMFERB
 40
0.0
  9
$CHAMFERC
 40
0.0
  9
$CHAMFERD
 40
0.0
  9
$SKPOLY
 70
0
  9
$TDCREATE
 40
2461307.5438078702
  9
$TDUCREATE
 40
2458532.153996898
  9
$TDUPDATE
 40
2461307.5438194443
  9
$TDUUPDATE
 40
2458532.1544311
  9
$TDINDWG
 40
0.0
  9
$TDUSRTIMER
 40
0.0
  9
$USRTIMER
 70
1
  9
$ANGBASE
 50
0.0
  9
$ANGDIR
 70
0
  9
$PDMODE
 70
0
  9
$PDSIZE
 40
0.0
  9
$PLINEWID
 40
0.0
  9
$SPLFRAME
 70
0
  9
$SPLINETYPE
 70
6
  9
$SPLINESEGS
 70
8
  9
$HANDSEED
  5
C2
  9
$SURFTAB1
 70
6
  9
$SURFTAB2
 70
6
  9
$SURFTYPE
 70
6
  9
$SURFU
 70
6
  9
$SURFV
 70
6
  9
$UCSBASE
  2

  9
$UCSNAME
  2

  9
$UCSORG
 10
0.0
 20
0.0
 30
0.0
  9
$UCSXDIR
 10
1.0
 20
0.0
 30
0.0
  9
$UCSYDIR
 10
0.0
 20
1.0
 30
0.0
  9
$UCSORTHOREF
  2

  9
$UCSORTHOVIEW
 70
0
  9
$UCSORGTOP
 10
0.0
 20
0.0
 30
0.0
  9
$UCSORGBOTTOM
 10
0.0
 20
0.0
 30
0.0
  9
$UCSORGLEFT
 10
0.0
 20
0.0
 30
0.0
  9
$UCSORGRIGHT
 10
0.0
 20
0.0
 30
0.0
  9
$UCSORGFRONT
 10
0.0
 20
0.0
 30
0.0
  9
$UCSORGBACK
 10
0.0
 20
0.0
 30
0.0
  9
$PUCSBASE
  2

  9
$PUCSNAME
  2

  9
$PUCSORG
 10
0.0
 20
0.0
 30
0.0
  9
$PUCSXDIR
 10
1.0
 20
0.0
 30
0.0
  9
$PUCSYDIR
 10
0.0
 20
1.0
 30
0.0
  9
$PUCSORTHOREF
  2

  9
$PUCSORTHOVIEW
 70
0
  9
$PUCSORGTOP
 10
0.0
 20
0.0
 30
0.0
  9
$PUCSORGBOTTOM
 10
0.0
 20
0.0
 30
0.0
  9
$PUCSORGLEFT
 10
0.0
 20
0.0
 30
0.0
  9
$PUCSORGRIGHT
 10
0.0
 20
0.0
 30
0.0
  9
$PUCSORGFRONT
 10
0.0
 20
0.0
 30
0.0
  9
$PUCSORGBACK
 10
0.0
 20
0.0
 30
0.0
  9
$USERI1
 70
0
  9
$USERI2
 70
0
  9
$USERI3
 70
0
  9
$USERI4
 70
0
  9
$USERI5
 70
0
  9
$USERR1
 40
0.0
  9
$USERR2
 40
0.0
  9
$USERR3
 40
0.0
  9
$USERR4
 40
0.0
  9
$USERR5
 40
0.0
  9
$WORLDVIEW
 70
1
  9
$SHADEDGE
 70
3
  9
$SHADEDIF
 70
70
  9
$TILEMODE
 70
1
  9
$MAXACTVP
 70
64
  9
$PINSBASE
 10
0.0
 20
0.0
 30
0.0
  9
$PLIMCHECK
 70
0
  9
$PEXTMIN
 10
1e+20
 20
1e+20
 30
1e+20
  9
$PEXTMAX
 10
-1e+20
 20
-1e+20
 30
-1e+20
  9
$PLIMMIN
 10
0.0
 20
0.0
  9
$PLIMMAX
 10
420.0
 20
297.0
  9
$UNITMODE
 70
0
  9
$VISRETAIN
 70
1
  9
$PLINEGEN
 70
0
  9
$PSLTSCALE
 70
1
  9
$TREEDEPTH
 70
3020
  9
$CMLSTYLE
  2
Standard
  9
$CMLJUST
 70
0
  9
$CMLSCALE
 40
20.0
  9
$PROXYGRAPHICS
 70
1
  9
$MEASUREMENT
 70
1
  9
$CELWEIGHT
370
-1
  9
$ENDCAPS
280
0
  9
$JOINSTYLE
280
0
  9
$LWDISPLAY
290
0
  9
$INSUNITS
 70
4
  9
$HYPERLINKBASE
  1

  9
$STYLESHEET
  1

  9
$XEDIT
290
1
  9
$CEPSNTYPE
380
0
  9
$PSTYLEMODE
290
1
  9
$FINGERPRINTGUID
  2
{5C40E1FA-8CA0-428A-8BC4-B2AECBE4C977}
  9
$VERSIONGUID
  2
{89665FD4-F29A-4BD0-8C0B-135A7472123F}
  9
$EXTNAMES
290
1
  9
$PSVPSCALE
 40
0.0
  9
$OLESTARTUP
290
0
  9
$SORTENTS
280
127
  9
$INDEXCTL
280
0
  9
$HIDETEXT
280
1
  9
$XCLIPFRAME
280
1
  9
$HALOGAP
280
0
  9
$OBSCOLOR
 70
257
  9
$OBSLTYPE
280
0
  9
$INTERSECTIONDISPLAY
280
0
  9
$INTERSECTIONCOLOR
 70
257
  9
$DIMASSOC
280
2
  9
$PROJECTNAME
  1

  9
$CAMERADISPLAY
290
0
  9
$LENSLENGTH
 40
50.0
  9
$CAMERAHEIGHT
 40
0.0
  9
$STEPSPERSEC
 40
24.0
  9
$STEPSIZE
 40
100.0
  9
$3DDWFPREC
 40
2.0
  9
$PSOLWIDTH
 40
0.005
  9
$PSOLHEIGHT
 40
0.08
  9
$LOFTANG1
 40
1.570796326795
  9
$LOFTANG2
 40
1.570796326795
  9
$LOFTMAG1
 40
0.0
  9
$LOFTMAG2
 40
0.0
  9
$LOFTPARAM
 70
7
  9
$LOFTNORMALS
280
1
  9
$LATITUDE
 40
37.795
  9
$LONGITUDE
 40
-122.394
  9
$NORTHDIRECTION
 40
0.0
  9
$TIMEZONE
 70
-8000
  9
$LIGHTGLYPHDISPLAY
280
1
  9
$TILEMODELIGHTSYNCH
280
1
  9
$CMATERIAL
347
20
  9
$SOLIDHIST
280
0
  9
$SHOWHIST
280
1
  9
$DWFFRAME
280
2
  9
$DGNFRAME
280
2
  9
$REALWORLDSCALE
290
1
  9
$INTERFERECOLOR
 62
256
  9
$CSHADOW
280
0
  9
$SHADOWPLANELOCATION
 40
0.0
  0
ENDSEC
  0
SECTION
  2
CLASSES
  0
CLASS
  1
ACDBDICTIONARYWDFLT
  2
AcDbDictionaryWithDefault
  3
ObjectDBX Classes
 90
0
 91
0
280
0
281
0
  0
CLASS
  1
SUN
  2
AcDbSun
  3
SCENEOE
 90
1153
 91
0
280
0
281
0
  0
CLASS
  1
VISUALSTYLE
  2
AcDbVisualStyle
  3
ObjectDBX Classes
 90
4095
 91
0
280
0
281
0
  0
CLASS
  1
MATERIAL
  2
AcDbMaterial
  3
ObjectDBX Classes
 90
1153
 91
0
280
0
281
0
  0
CLASS
  1
SCALE
  2
AcDbScale
  3
ObjectDBX Classes
 90
1153
 91
0
280
0
281
0
  0
CLASS
  1
TABLESTYLE
  2
AcDbTableStyle
  3
ObjectDBX Classes
 90
4095
 91
0
280
0
281
0
  0
CLASS
  1
MLEADERSTYLE
  2
AcDbMLeaderStyle
  3
ACDB_MLEADERSTYLE_CLASS
 90
4095
 91
0
280
0
281
0
  0
CLASS
  1
DICTIONARYVAR
  2
AcDbDictionaryVar
  3
ObjectDBX Classes
 90
0
 91
0
280
0
281
0
  0
CLASS
  1
CELLSTYLEMAP
  2
AcDbCellStyleMap
  3
ObjectDBX Classes
 90
1152
 91
0
280
0
281
0
  0
CLASS
  1
MENTALRAYRENDERSETTINGS
  2
AcDbMentalRayRenderSettings
  3
SCENEOE
 90
1024
 91
0
280
0
281
0
  0
CLASS
  1
ACDBDETAILVIEWSTYLE
  2
AcDbDetailViewStyle
  3
ObjectDBX Classes
 90
1025
 91
0
280
0
281
0
  0
CLASS
  1
ACDBSECTIONVIEWSTYLE
  2
AcDbSectionViewStyle
  3
ObjectDBX Classes
 90
1025
 91
0
280
0
281
0
  0
CLASS
  1
RASTERVARIABLES
  2
AcDbRasterVariables
  3
ISM
 90
0
 91
0
280
0
281
0
  0
CLASS
  1
LAYOUT
  2
AcDbLayout
  3
ObjectDBX Classes
 90
0
 91
0
280
0
281
0
  0
CLASS
  1
ACDBPLACEHOLDER
  2
AcDbPlaceHolder
  3
ObjectDBX Classes
 90
0
 91
0
280
0
281
0
  0
ENDSEC
  0
SECTION
  2
TABLES
  0
TABLE
  2
VPORT
  5
8
330
0
100
AcDbSymbolTable
 70
1
  0
VPORT
  5
23
330
8
100
AcDbSymbolTableRecord
100
AcDbViewportTableRecord
  2
*Active
 70
0
 10
0.0
 20
0.0
 11
1.0
 21
1.0
 12
0.0
 22
0.0
 13
0.0
 23
0.0
 14
0.5
 24
0.5
 15
0.5
 25
0.5
 16
0.0
 26
0.0
 36
1.0
 17
0.0
 27
0.0
 37
0.0
 40
1000.0
 41
1.34
 42
50.0
 43
0.0
 44
0.0
 50
0.0
 51
0.0
 71
0
 72
1000
 73
1
 74
3
 75
0
 76
0
 77
0
 78
0
281
0
 65
0
146
0.0
  0
ENDTAB
  0
TABLE
  2
LTYPE
  5
2
330
0
100
AcDbSymbolTable
 70
4
  0
LTYPE
  5
24
330
2
100
AcDbSymbolTableRecord
100
AcDbLinetypeTableRecord
  2
ByBlock
 70
0
  3

 72
65
 73
0
 40
0.0
  0
LTYPE
  5
25
330
2
100
AcDbSymbolTableRecord
100
AcDbLinetypeTableRecord
  2
ByLayer
 70
0
  3

 72
65
 73
0
 40
0.0
  0
LTYPE
  5
26
330
2
100
AcDbSymbolTableRecord
100
AcDbLinetypeTableRecord
  2
Continuous
 70
0
  3

 72
65
 73
0
 40
0.0
  0
LTYPE
  5
BB
330
2
100
AcDbSymbolTableRecord
100
AcDbLinetypeTableRecord
  2
HIDDEN
 70
0
  3
Hidden __ __ __ __ __ __ __ __ __ __ __ __ __ _
 72
65
 73
2
 40
0.375
 49
0.25
 74
0
 49
-0.125
 74
0
  0
ENDTAB
  0
TABLE
  2
LAYER
  5
1
330
0
100
AcDbSymbolTable
 70
2
  0
LAYER
  5
27
330
1
100
AcDbSymbolTableRecord
100
AcDbLayerTableRecord
  2
0
 70
0
 62
7
  6
Continuous
370
-3
390
13
347
21
  0
LAYER
  5
28
330
1
100
AcDbSymbolTableRecord
100
AcDbLayerTableRecord
  2
Defpoints
 70
0
 62
7
  6
Continuous
290
0
370
-3
390
13
347
21
  0
ENDTAB
  0
TABLE
  2
STYLE
  5
5
330
0
100
AcDbSymbolTable
 70
2
  0
STYLE
  5
29
330
5
100
AcDbSymbolTableRecord
100
AcDbTextStyleTableRecord
  2
Standard
 70
0
 40
0.0
 41
1.0
 50
0.0
 71
0
 42
2.5
  3
txt
  4

  0
STYLE
  5
BC
330
5
100
AcDbSymbolTableRecord
100
AcDbTextStyleTableRecord
  2
WD_IEC
 70
0
 40
0.0
 41
1.0
 50
0.0
 71
0
 42
5.0
  3
isocp2.shx
  4

  0
ENDTAB
  0
TABLE
  2
VIEW
  5
7
330
0
100
AcDbSymbolTable
 70
0
  0
ENDTAB
  0
TABLE
  2
UCS
  5
6
330
0
100
AcDbSymbolTable
 70
0
  0
ENDTAB
  0
TABLE
  2
APPID
  5
3
330
0
100
AcDbSymbolTable
 70
3
  0
APPID
  5
2A
330
3
100
AcDbSymbolTableRecord
100
AcDbRegAppTableRecord
  2
ACAD
 70
0
  0
APPID
  5
BF
330
3
100
AcDbSymbolTableRecord
100
AcDbRegAppTableRecord
  2
HATCHBACKGROUNDCOLOR
 70
0
  0
APPID
  5
C0
330
3
100
AcDbSymbolTableRecord
100
AcDbRegAppTableRecord
  2
EZDXF
 70
0
  0
ENDTAB
  0
TABLE
  2
DIMSTYLE
  5
4
330
0
100
AcDbSymbolTable
 70
1
100
AcDbDimStyleTable
  0
DIMSTYLE
105
2B
330
4
100
AcDbSymbolTableRecord
100
AcDbDimStyleTableRecord
  2
Standard
 70
0
 40
1.0
 41
2.5
 42
0.625
 43
3.75
 44
1.25
 45
0.0
 46
0.0
 47
0.0
 48
0.0
 49
2.5
140
2.5
141
2.5
142
0.0
143
0.03937007874
144
1.0
145
0.0
146
1.0
147
0.625
148
0.0
 69
0
 70
0
 71
0
 72
0
 73
0
 74
0
 75
0
 76
0
 77
1
 78
8
 79
3
170
0
171
3
172
1
173
0
174
0
175
0
176
0
177
0
178
0
179
2
271
2
272
2
273
2
274
3
275
0
276
0
277
2
278
44
279
0
280
0
281
0
282
0
283
0
284
8
285
0
286
0
288
0
289
3
290
0
371
-2
372
-2
  0
ENDTAB
  0
TABLE
  2
BLOCK_RECORD
  5
9
330
0
100
AcDbSymbolTable
 70
5
  0
BLOCK_RECORD
  5
17
330
9
100
AcDbSymbolTableRecord
100
AcDbBlockTableRecord
  2
*Model_Space
340
1A
 70
0
280
1
281
0
  0
BLOCK_RECORD
  5
1B
330
9
100
AcDbSymbolTableRecord
100
AcDbBlockTableRecord
  2
*Paper_Space
340
1E
 70
0
280
1
281
0
  0
BLOCK_RECORD
  5
2F
330
9
100
AcDbSymbolTableRecord
100
AcDbBlockTableRecord
  2
MC 95AF
340
0
 70
0
280
1
281
0
  0
BLOCK_RECORD
  5
AA
330
9
100
AcDbSymbolTableRecord
100
AcDbBlockTableRecord
  2
Vis MC LS
340
0
 70
0
280
1
281
0
  0
BLOCK_RECORD
  5
B5
330
9
100
AcDbSymbolTableRecord
100
AcDbBlockTableRecord
  2
*U4827
340
0
 70
0
280
1
281
0
  0
ENDTAB
  0
ENDSEC
  0
SECTION
  2
BLOCKS
  0
BLOCK
  5
18
330
17
100
AcDbEntity
  8
0
100
AcDbBlockBegin
  2
*Model_Space
 70
0
 10
0.0
 20
0.0
 30
0.0
  3
*Model_Space
  1

  0
ENDBLK
  5
19
330
17
100
AcDbEntity
  8
0
100
AcDbBlockEnd
  0
BLOCK
  5
1C
330
1B
100
AcDbEntity
  8
0
100
AcDbBlockBegin
  2
*Paper_Space
 70
0
 10
0.0
 20
0.0
 30
0.0
  3
*Paper_Space
  1

  0
ENDBLK
  5
1D
330
1B
100
AcDbEntity
  8
0
100
AcDbBlockEnd
  0
BLOCK
  5
30
330
2F
100
AcDbEntity
  8
0
100
AcDbBlockBegin
  2
MC 95AF
 70
2
 10
0.0
 20
0.0
 30
0.0
  3
MC 95AF
  1

  4
Drawn by Hawee Sep.2015
  0
ATTDEF
  5
32
330
2F
100
AcDbEntity
  8
Defpoints
  6
ByBlock
 62
8
370
-2
 48
0.5
 60
1
100
AcDbText
 10
-0.0001049999999871
 20
-43.00004999999977
 30
0.0
 40
0.0001
  1
fmt
  7
WD_IEC
 72
1
 11
1.29e-14
 21
-42.99999999999977
 31
0.0
100
AcDbAttributeDefinition
  3
Author
  2
AUTHOR
 70
15
 74
2
280
1
 71
1
 72
0
 11
1.29e-14
 21
-42.99999999999977
 31
0.0
  0
ATTDEF
  5
33
330
2F
100
AcDbEntity
  8
Defpoints
  6
ByBlock
 62
8
370
-2
 48
0.5
 60
1
100
AcDbText
 10
-7.69803149478e-05
 20
-43.00004999999977
 30
0.0
 40
0.0001
  1
LS
  7
WD_IEC
 72
1
 11
1.29e-14
 21
-42.99999999999977
 31
0.0
100
AcDbAttributeDefinition
  3
Origin
  2
ORIGIN
 70
13
 74
2
280
1
 71
1
 72
0
 11
1.29e-14
 21
-42.99999999999977
 31
0.0
  0
ATTDEF
  5
34
330
2F
100
AcDbEntity
  8
0
  6
ByBlock
 62
1
370
-2
 48
0.5
100
AcDbText
 10
31.37499999999977
 20
-10.74999999999995
 30
0.0
 40
5.0
  1
Type
  7
WD_IEC
 41
0.5
 72
1
 11
34.99999999999977
 21
-8.24999999999995
 31
0.0
100
AcDbAttributeDefinition
  3
Type
  2
TYPE
 70
12
 74
2
280
1
 71
1
 72
0
 11
34.99999999999977
 21
-8.24999999999995
 31
0.0
  0
TEXT
  5
35
330
2F
100
AcDbEntity
  8
0
  6
ByBlock
 62
8
370
9
 48
0.5
100
AcDbText
 10
24.78484537421675
 20
-16.44999999999994
 30
0.0
 40
2.5
  1
MC 95AF/3P Series
  7
WD_IEC
 41
0.75
 72
1
 11
35.5
 21
-15.19999999999994
 31
0.0
100
AcDbText
 73
2
  0
LINE
  5
36
330
2F
100
AcDbEntity
  8
Defpoints
  6
ByBlock
 62
6
370
18
 48
0.5
 60
1
100
AcDbLine
 10
0.0
 20
0.0
 30
0.0
 11
0.0
 21
0.0
 31
0.0
  0
ATTDEF
  5
37
330
2F
100
AcDbEntity
  8
Defpoints
  6
ByBlock
 62
8
370
-2
 48
0.5
 60
1
100
AcDbText
 10
-0.0001399999999871
 20
-43.00004999999977
 30
0.0
 40
0.0001
  1
Rate
  7
WD_IEC
 72
1
 11
1.29e-14
 21
-42.99999999999977
 31
0.0
100
AcDbAttributeDefinition
  3
Rate
  2
RATE
 70
12
 74
2
280
1
 71
1
 72
0
 11
1.29e-14
 21
-42.99999999999977
 31
0.0
  0
LWPOLYLINE
  5
38
330
2F
100
AcDbEntity
  8
0
  6
ByBlock
 62
0
370
18
 48
0.5
100
AcDbPolyline
 90
4
 70
1
 10
70.0
 20
-69.99999999999977
 10
-7.1e-15
 20
-69.99999999999977
 10
0.0
 20
70.00000000000023
 10
70.0
 20
70.00000000000023
  0
INSERT
  5
39
330
2F
100
AcDbEntity
  8
0
  6
ByBlock
 62
0
370
9
 48
0.5
100
AcDbBlockReference
  2
Vis MC LS
 10
35.0
 20
51.5000000000003
 30
0.0
 41
1.184615384615383
 42
1.184615384615383
 43
1.184615384615383
  0
INSERT
  5
3B
330
2F
100
AcDbEntity
  8
0
  6
ByBlock
 62
0
370
9
 48
0.5
100
AcDbBlockReference
  2
Vis MC LS
 10
48.2
 20
64.20000000000005
 30
0.0
 41
-1.0
  0
LWPOLYLINE
  5
3D
330
2F
100
AcDbEntity
  8
0
  6
ByBlock
 62
0
370
9
 48
0.5
100
AcDbPolyline
 90
4
 70
1
 10
0.0
 20
42.00000000000023
 10
70.0
 20
42.00000000000023
 10
70.0
 20
43.00000000000022
 10
0.0
 20
43.00000000000022
  0
LWPOLYLINE
  5
3E
330
2F
100
AcDbEntity
  8
0
  6
ByBlock
 62
0
370
9
 48
0.5
100
AcDbPolyline
 90
4
 70
1
 10
-7.1e-15
 20
-41.99999999999977
 10
70.0
 20
-41.99999999999977
 10
70.0
 20
-42.99999999999977
 10
-7.1e-15
 20
-42.99999999999977
  0
LWPOLYLINE
  5
3F
330
2F
100
AcDbEntity
  8
0
  6
ByBlock
 62
150
370
9
 48
0.5
100
AcDbPolyline
 90
8
 70
1
 10
30.5
 20
6.40000000000009
 10
30.5
 20
11.70000000000004
 10
24.80000000000018
 20
11.70000000000004
 10
24.80000000000018
 20
-12.19999999999994
 10
45.19999999999981
 20
-12.19999999999994
 10
45.19999999999981
 20
11.70000000000004
 10
39.5
 20
11.70000000000004
 10
39.5
 20
6.40000000000009
  0
LWPOLYLINE
  5
40
330
2F
100
AcDbEntity
  8
0
  6
ByBlock
 62
150
370
9
 48
0.5
100
AcDbPolyline
 90
10
 70
0
 10
26.14999999999964
 20
11.70000000000004
 10
26.14999999999964
 20
5.499999999999971
 42
0.4142135623730951
 10
26.64999999999964
 20
4.999999999999971
 10
27.59999999999946
 20
5.0
 10
27.59999999999946
 20
-4.299999999999954
 10
42.39999999999963
 20
-4.299999999999954
 10
42.39999999999963
 20
5.0
 10
43.34999999999945
 20
4.999999999999971
 42
0.4142135623730944
 10
43.84999999999945
 20
5.499999999999971
 10
43.84999999999945
 20
11.70000000000004
  0
LINE
  5
41
330
2F
100
AcDbEntity
  8
0
  6
ByBlock
 62
150
370
9
 48
0.5
100
AcDbLine
 10
24.80000000000018
 20
-4.299999999999956
 30
0.0
 11
45.19999999999981
 21
-4.299999999999954
 31
0.0
  0
LWPOLYLINE
  5
42
330
2F
100
AcDbEntity
  8
0
  6
ByBlock
 62
150
370
9
 48
0.5
100
AcDbPolyline
 90
4
 70
1
 10
29.09999999999945
 20
-4.0
 10
32.69999999999982
 20
-4.0
 10
32.69999999999982
 20
4.0
 10
29.09999999999945
 20
4.0
  0
LWPOLYLINE
  5
43
330
2F
100
AcDbEntity
  8
0
  6
ByBlock
 62
150
370
9
 48
0.5
100
AcDbPolyline
 90
4
 70
0
 10
35.80000000000018
 20
-4.299999999999954
 10
35.80000000000018
 20
-2.399999999999977
 10
34.19999999999982
 20
-2.399999999999977
 10
34.19999999999982
 20
-4.299999999999954
  0
LWPOLYLINE
  5
44
330
2F
100
AcDbEntity
  8
0
  6
ByBlock
 62
150
370
9
 48
0.5
100
AcDbPolyline
 90
4
 70
0
 10
33.80000000000018
 20
-4.299999999999954
 10
33.80000000000018
 20
-2.0
 10
36.19999999999982
 20
-2.0
 10
36.19999999999982
 20
-4.299999999999954
  0
LWPOLYLINE
  5
45
330
2F
100
AcDbEntity
  8
0
  6
ByBlock
 62
150
370
9
 48
0.5
100
AcDbPolyline
 90
4
 70
1
 10
40.89999999999963
 20
-4.0
 10
40.89999999999963
 20
4.0
 10
37.30000000000018
 20
4.0
 10
37.30000000000018
 20
-4.0
  0
LWPOLYLINE
  5
46
330
2F
100
AcDbEntity
  8
0
  6
ByBlock
 62
150
370
9
 48
0.5
100
AcDbPolyline
 90
4
 70
0
 10
33.80000000000018
 20
4.300000000000068
 10
33.80000000000018
 20
2.0
 10
36.19999999999982
 20
2.0
 10
36.19999999999982
 20
4.300000000000068
  0
LWPOLYLINE
  5
47
330
2F
100
AcDbEntity
  8
0
  6
ByBlock
 62
150
370
9
 48
0.5
100
AcDbPolyline
 90
4
 70
0
 10
34.19999999999982
 20
4.300000000000068
 10
34.19999999999982
 20
2.40000000000009
 10
35.80000000000018
 20
2.40000000000009
 10
35.80000000000018
 20
4.300000000000068
  0
LWPOLYLINE
  5
48
330
2F
100
AcDbEntity
  8
0
  6
ByBlock
 62
150
370
9
 48
0.5
100
AcDbPolyline
 90
6
 70
0
 10
30.00000000000003
 20
11.70000000000004
 10
30.0
 20
4.300000000000068
 10
30.0
 20
5.5
 10
40.0
 20
5.5
 10
40.0
 20
4.300000000000068
 10
40.0
 20
11.70000000000004
  0
LWPOLYLINE
  5
49
330
2F
100
AcDbEntity
  8
0
  6
ByBlock
 62
150
370
9
 48
0.5
100
AcDbPolyline
 90
4
 70
0
 10
28.59999999999946
 20
-4.299999999999954
 10
28.59999999999946
 20
4.300000000000068
 10
41.39999999999964
 20
4.300000000000068
 10
41.39999999999964
 20
-4.299999999999954
  0
LWPOLYLINE
  5
4A
330
2F
100
AcDbEntity
  8
0
  6
ByBlock
 62
150
370
9
 48
0.5
100
AcDbPolyline
 90
9
 70
0
 10
37.75
 20
12.5
 10
37.75
 20
13.90000000000009
 10
32.25
 20
13.90000000000009
 10
32.25
 20
12.5
 10
37.75
 20
12.5
 10
37.75
 20
7.300000000000068
 10
32.25
 20
7.300000000000068
 10
32.25
 20
12.5
 10
37.75
 20
12.5
  0
LWPOLYLINE
  5
4B
330
2F
100
AcDbEntity
  8
0
  6
ByBlock
 62
0
370
9
 48
0.5
100
AcDbPolyline
 90
60
 70
0
 10
23.80000000000018
 20
10.10000000000002
 10
1.638477631099732
 20
10.10000000000002
 10
1.638477631099732
 20
9.5
 10
23.80000000000018
 20
9.5
 10
23.80000000000018
 20
8.700000000000045
 10
1.638477631099732
 20
8.700000000000045
 10
1.638477631099732
 20
8.100000000000023
 10
23.80000000000018
 20
8.100000000000023
 10
23.80000000000018
 20
7.300000000000068
 10
1.638477631099732
 20
7.300000000000068
 10
1.638477631099732
 20
6.700000000000045
 10
23.80000000000018
 20
6.700000000000045
 10
23.80000000000018
 20
5.90000000000009
 10
1.638477631099732
 20
5.90000000000009
 10
1.638477631099732
 20
5.300000000000068
 10
23.80000000000018
 20
5.300000000000068
 10
23.80000000000018
 20
4.5
 10
1.638477631099732
 20
4.5
 10
1.638477631099732
 20
3.90000000000009
 10
23.80000000000018
 20
3.90000000000009
 10
23.80000000000018
 20
3.100000000000022
 10
1.638477631099732
 20
3.100000000000022
 10
1.638477631099732
 20
2.5
 10
23.80000000000018
 20
2.5
 10
23.80000000000018
 20
1.700000000000045
 10
1.638477631099732
 20
1.700000000000045
 10
1.638477631099732
 20
1.100000000000022
 10
23.80000000000018
 20
1.100000000000022
 10
23.80000000000018
 20
0.3000000000000682
 10
1.638477631099732
 20
0.3000000000000682
 10
1.638477631099732
 20
-0.2999999999999545
 10
23.80000000000018
 20
-0.2999999999999545
 10
23.80000000000018
 20
-1.099999999999909
 10
1.638477631099732
 20
-1.099999999999909
 10
1.638477631099732
 20
-1.699999999999931
 10
23.80000000000018
 20
-1.699999999999931
 10
23.80000000000018
 20
-2.5
 10
1.638477631099732
 20
-2.5
 10
1.638477631099732
 20
-3.099999999999909
 10
23.80000000000018
 20
-3.099999999999909
 10
23.80000000000018
 20
-3.899999999999977
 10
1.638477631099732
 20
-3.899999999999977
 10
1.638477631099732
 20
-4.5
 10
23.80000000000018
 20
-4.5
 10
23.80000000000018
 20
-5.299999999999954
 10
1.638477631099732
 20
-5.299999999999954
 10
1.638477631099732
 20
-5.899999999999991
 10
23.80000000000018
 20
-5.899999999999991
 10
23.80000000000018
 20
-6.699999999999945
 10
1.638477631099732
 20
-6.699999999999945
 10
1.638477631099732
 20
-7.299999999999968
 10
23.80000000000018
 20
-7.299999999999968
 10
23.80000000000018
 20
-8.099999999999923
 10
1.638477631099732
 20
-8.099999999999923
 10
1.638477631099732
 20
-8.699999999999944
 10
23.80000000000018
 20
-8.699999999999944
 10
23.80000000000018
 20
-9.4999999999999
 10
1.638477631099732
 20
-9.500000000000014
 10
1.638477631099732
 20
-10.09999999999992
 10
23.80000000000018
 20
-10.09999999999992
  0
LWPOLYLINE
  5
4C
330
2F
100
AcDbEntity
  8
0
  6
ByBlock
 62
0
370
9
 48
0.5
100
AcDbPolyline
 90
60
 70
0
 10
46.19999999999985
 20
10.10000000000002
 10
68.36152236890031
 20
10.10000000000002
 10
68.36152236890031
 20
9.5
 10
46.19999999999985
 20
9.5
 10
46.19999999999985
 20
8.700000000000045
 10
68.36152236890031
 20
8.700000000000045
 10
68.36152236890031
 20
8.100000000000023
 10
46.19999999999985
 20
8.100000000000023
 10
46.19999999999985
 20
7.300000000000068
 10
68.36152236890031
 20
7.300000000000068
 10
68.36152236890031
 20
6.700000000000045
 10
46.19999999999985
 20
6.700000000000045
 10
46.19999999999985
 20
5.90000000000009
 10
68.36152236890031
 20
5.90000000000009
 10
68.36152236890031
 20
5.300000000000068
 10
46.19999999999985
 20
5.300000000000068
 10
46.19999999999985
 20
4.5
 10
68.36152236890031
 20
4.5
 10
68.36152236890031
 20
3.90000000000009
 10
46.19999999999985
 20
3.90000000000009
 10
46.19999999999985
 20
3.100000000000022
 10
68.36152236890031
 20
3.100000000000022
 10
68.36152236890031
 20
2.5
 10
46.19999999999985
 20
2.5
 10
46.19999999999985
 20
1.700000000000045
 10
68.36152236890031
 20
1.700000000000045
 10
68.36152236890031
 20
1.100000000000022
 10
46.19999999999985
 20
1.100000000000022
 10
46.19999999999985
 20
0.3000000000000682
 10
68.36152236890031
 20
0.3000000000000682
 10
68.36152236890031
 20
-0.2999999999999545
 10
46.19999999999985
 20
-0.2999999999999545
 10
46.19999999999985
 20
-1.099999999999909
 10
68.36152236890031
 20
-1.099999999999909
 10
68.36152236890031
 20
-1.699999999999931
 10
46.19999999999985
 20
-1.699999999999931
 10
46.19999999999985
 20
-2.5
 10
68.36152236890031
 20
-2.5
 10
68.36152236890031
 20
-3.099999999999909
 10
46.19999999999985
 20
-3.099999999999909
 10
46.19999999999985
 20
-3.899999999999977
 10
68.36152236890031
 20
-3.899999999999977
 10
68.36152236890031
 20
-4.5
 10
46.19999999999985
 20
-4.5
 10
46.19999999999985
 20
-5.299999999999954
 10
68.36152236890031
 20
-5.299999999999954
 10
68.36152236890031
 20
-5.899999999999991
 10
46.19999999999985
 20
-5.899999999999991
 10
46.19999999999985
 20
-6.699999999999945
 10
68.36152236890031
 20
-6.699999999999945
 10
68.36152236890031
 20
-7.299999999999968
 10
46.19999999999985
 20
-7.299999999999968
 10
46.19999999999985
 20
-8.099999999999923
 10
68.36152236890031
 20
-8.099999999999923
 10
68.36152236890031
 20
-8.699999999999944
 10
46.19999999999985
 20
-8.699999999999944
 10
46.19999999999985
 20
-9.4999999999999
 10
68.36152236890031
 20
-9.500000000000014
 10
68.36152236890031
 20
-10.09999999999992
 10
46.19999999999985
 20
-10.09999999999992
  0
LWPOLYLINE
  5
4D
330
2F
100
AcDbEntity
  8
0
  6
ByBlock
 62
0
370
18
 48
0.5
 60
1
100
AcDbPolyline
 90
8
 70
1
 10
66.0
 20
-70.0
 10
4.0
 20
-70.0
 42
-0.4142135623730951
 10
0.0
 20
-66.0
 10
0.0
 20
66.0
 42
-0.4142135623730951
 10
4.0
 20
70.0
 10
66.0
 20
70.0
 42
-0.4142135623730951
 10
70.0
 20
66.0
 10
70.0
 20
-66.0
 42
-0.4142135623730951
  0
INSERT
  5
4E
330
2F
100
AcDbEntity
  8
0
  6
ByBlock
 62
0
370
9
 48
0.5
100
AcDbBlockReference
  2
*U4827
 10
2.999999999999997
 20
24.19000000001691
 30
0.0
  0
LINE
  5
50
330
2F
100
AcDbEntity
  8
Defpoints
  6
ByBlock
 62
2
370
18
 48
0.5
 60
1
100
AcDbLine
 10
0.0
 20
0.0
 30
0.0
 11
0.0
 21
0.0
 31
0.0
  0
INSERT
  5
51
330
2F
100
AcDbEntity
  8
0
  6
ByBlock
 62
0
370
9
 48
0.5
 60
1
100
AcDbBlockReference
  2
*U4827
 10
98.24560000000179
 20
-3.000000000000142
 30
0.0
  0
INSERT
  5
53
330
2F
100
AcDbEntity
  8
0
  6
ByBlock
 62
0
370
9
 48
0.5
 60
1
100
AcDbBlockReference
  2
*U4827
 10
29.24560000000003
 20
-2.999999999999992
 30
0.0
  0
TEXT
  5
55
330
2F
100
AcDbEntity
  8
0
  6
ByBlock
 62
8
370
18
 48
0.5
 60
1
100
AcDbText
 10
22.14181444906009
 20
-7.499999999999992
 30
0.0
 40
3.0
  1
MC 95AF/3P Series
  7
WD_IEC
 41
0.75
 72
1
 11
35.0
 21
-5.999999999999992
 31
0.0
100
AcDbText
 73
2
  0
TEXT
  5
56
330
2F
100
AcDbEntity
  8
0
  6
ByBlock
 62
8
370
18
 48
0.5
 60
1
100
AcDbText
 10
91.14181444906193
 20
-7.500000000000142
 30
0.0
 40
3.0
  1
MC 95AF/3P Series
  7
WD_IEC
 41
0.75
 72
1
 11
104.0000000000018
 21
-6.000000000000142
 31
0.0
100
AcDbText
 73
2
  0
INSERT
  5
57
330
2F
100
AcDbEntity
  8
0
  6
ByBlock
 62
0
370
9
 48
0.5
100
AcDbBlockReference
  2
Vis MC LS
 10
12.4999999999992
 20
51.5000000000003
 30
0.0
 41
1.184615384615383
 42
1.184615384615383
 43
1.184615384615383
  0
INSERT
  5
59
330
2F
100
AcDbEntity
  8
0
  6
ByBlock
 62
0
370
9
 48
0.5
100
AcDbBlockReference
  2
Vis MC LS
 10
57.4999999999992
 20
51.5000000000003
 30
0.0
 41
1.184615384615383
 42
1.184615384615383
 43
1.184615384615383
  0
INSERT
  5
5B
330
2F
100
AcDbEntity
  8
0
  6
ByBlock
 62
0
370
9
 48
0.5
100
AcDbBlockReference
  2
Vis MC LS
 10
35.0
 20
-50.49999999999977
 30
0.0
 41
1.184615384615383
 42
1.184615384615383
 43
1.184615384615383
  0
INSERT
  5
5D
330
2F
100
AcDbEntity
  8
0
  6
ByBlock
 62
0
370
9
 48
0.5
100
AcDbBlockReference
  2
Vis MC LS
 10
12.49999999999919
 20
-50.49999999999977
 30
0.0
 41
1.184615384615383
 42
1.184615384615383
 43
1.184615384615383
  0
INSERT
  5
5F
330
2F
100
AcDbEntity
  8
0
  6
ByBlock
 62
0
370
9
 48
0.5
100
AcDbBlockReference
  2
Vis MC LS
 10
57.49999999999919
 20
-50.49999999999977
 30
0.0
 41
1.184615384615383
 42
1.184615384615383
 43
1.184615384615383
  0
LWPOLYLINE
  5
61
330
2F
100
AcDbEntity
  8
0
  6
ByBlock
 62
0
370
9
 48
0.5
100
AcDbPolyline
 90
65
 70
0
 10
-4.7e-15
 20
22.50000000000023
 10
1.838477631099517
 20
21.20000000001744
 10
1.83847763109952
 20
10.09999999999991
 10
1.638477631099702
 20
10.09999999999991
 10
1.638477631099702
 20
9.5
 10
1.83847763109952
 20
9.5
 10
1.83847763109952
 20
8.699999999999932
 10
1.638477631099702
 20
8.699999999999932
 10
1.638477631099702
 20
8.099999999999909
 10
1.83847763109952
 20
8.099999999999909
 10
1.83847763109952
 20
7.299999999999954
 10
1.638477631099702
 20
7.299999999999954
 10
1.638477631099702
 20
6.699999999999931
 10
1.83847763109952
 20
6.699999999999931
 10
1.83847763109952
 20
5.899999999999977
 10
1.638477631099702
 20
5.899999999999977
 10
1.638477631099702
 20
5.299999999999954
 10
1.83847763109952
 20
5.299999999999954
 10
1.83847763109952
 20
4.499999999999971
 10
1.638477631099702
 20
4.5
 10
1.638477631099702
 20
3.899999999999977
 10
1.83847763109952
 20
3.899999999999977
 10
1.83847763109952
 20
3.099999999999909
 10
1.638477631099702
 20
3.099999999999909
 10
1.638477631099702
 20
2.499999999999971
 10
1.83847763109952
 20
2.499999999999971
 10
1.83847763109952
 20
1.699999999999931
 10
1.638477631099702
 20
1.699999999999931
 10
1.638477631099702
 20
1.099999999999909
 10
1.83847763109952
 20
1.099999999999909
 10
1.83847763109952
 20
0.2999999999999545
 10
1.638477631099702
 20
0.2999999999999545
 10
1.638477631099702
 20
0.0
 10
1.638477631099702
 20
-0.2999999999999829
 10
1.83847763109952
 20
-0.2999999999999829
 10
1.83847763109952
 20
-1.099999999999937
 10
1.638477631099702
 20
-1.099999999999937
 10
1.638477631099702
 20
-1.69999999999996
 10
1.83847763109952
 20
-1.69999999999996
 10
1.83847763109952
 20
-2.5
 10
1.638477631099702
 20
-2.5
 10
1.638477631099702
 20
-3.099999999999937
 10
1.83847763109952
 20
-3.099999999999937
 10
1.83847763109952
 20
-3.900000000000005
 10
1.638477631099702
 20
-3.900000000000005
 10
1.638477631099702
 20
-4.500000000000028
 10
1.83847763109952
 20
-4.5
 10
1.83847763109952
 20
-5.299999999999982
 10
1.638477631099702
 20
-5.299999999999982
 10
1.638477631099702
 20
-5.899999999999991
 10
1.83847763109952
 20
-5.899999999999991
 10
1.83847763109952
 20
-6.699999999999945
 10
1.638477631099702
 20
-6.699999999999945
 10
1.638477631099702
 20
-7.299999999999968
 10
1.83847763109952
 20
-7.299999999999968
 10
1.83847763109952
 20
-8.099999999999923
 10
1.638477631099702
 20
-8.099999999999923
 10
1.638477631099702
 20
-8.699999999999944
 10
1.83847763109952
 20
-8.699999999999944
 10
1.83847763109952
 20
-9.500000000000014
 10
1.638477631099702
 20
-9.500000000000014
 10
1.638477631099702
 20
-10.09999999999992
 10
1.83847763109952
 20
-10.09999999999992
 10
1.838477631099523
 20
-21.20000000001697
 10
1.8e-15
 20
-22.49999999999977
  0
LWPOLYLINE
  5
62
330
2F
100
AcDbEntity
  8
0
  6
ByBlock
 62
0
370
9
 48
0.5
100
AcDbPolyline
 90
65
 70
0
 10
70.0
 20
-22.49999999999977
 10
68.16152236890049
 20
-21.20000000001697
 10
68.16152236890049
 20
-10.09999999999992
 10
68.36152236890031
 20
-10.09999999999992
 10
68.36152236890031
 20
-9.500000000000014
 10
68.16152236890049
 20
-9.500000000000014
 10
68.16152236890049
 20
-8.699999999999944
 10
68.36152236890031
 20
-8.699999999999944
 10
68.36152236890031
 20
-8.099999999999923
 10
68.16152236890049
 20
-8.099999999999923
 10
68.16152236890049
 20
-7.299999999999968
 10
68.36152236890031
 20
-7.299999999999968
 10
68.36152236890031
 20
-6.699999999999945
 10
68.16152236890049
 20
-6.699999999999945
 10
68.16152236890049
 20
-5.899999999999991
 10
68.36152236890031
 20
-5.899999999999991
 10
68.36152236890031
 20
-5.299999999999982
 10
68.16152236890049
 20
-5.299999999999982
 10
68.16152236890049
 20
-4.5
 10
68.36152236890031
 20
-4.500000000000028
 10
68.36152236890031
 20
-3.900000000000005
 10
68.16152236890049
 20
-3.900000000000005
 10
68.16152236890049
 20
-3.099999999999937
 10
68.36152236890031
 20
-3.099999999999937
 10
68.36152236890031
 20
-2.5
 10
68.16152236890049
 20
-2.5
 10
68.16152236890049
 20
-1.69999999999996
 10
68.36152236890031
 20
-1.69999999999996
 10
68.36152236890031
 20
-1.099999999999937
 10
68.16152236890049
 20
-1.099999999999937
 10
68.16152236890049
 20
-0.2999999999999829
 10
68.36152236890031
 20
-0.2999999999999829
 10
68.36152236890031
 20
0.0
 10
68.36152236890031
 20
0.2999999999999545
 10
68.16152236890049
 20
0.2999999999999545
 10
68.16152236890049
 20
1.099999999999909
 10
68.36152236890031
 20
1.099999999999909
 10
68.36152236890031
 20
1.699999999999931
 10
68.16152236890049
 20
1.699999999999931
 10
68.16152236890049
 20
2.499999999999971
 10
68.36152236890031
 20
2.499999999999971
 10
68.36152236890031
 20
3.099999999999909
 10
68.16152236890049
 20
3.099999999999909
 10
68.16152236890049
 20
3.899999999999977
 10
68.36152236890031
 20
3.899999999999977
 10
68.36152236890031
 20
4.5
 10
68.16152236890049
 20
4.499999999999971
 10
68.16152236890049
 20
5.299999999999954
 10
68.36152236890031
 20
5.299999999999954
 10
68.36152236890031
 20
5.899999999999977
 10
68.16152236890049
 20
5.899999999999977
 10
68.16152236890049
 20
6.699999999999931
 10
68.36152236890031
 20
6.699999999999931
 10
68.36152236890031
 20
7.299999999999954
 10
68.16152236890049
 20
7.299999999999954
 10
68.16152236890049
 20
8.099999999999909
 10
68.36152236890031
 20
8.099999999999909
 10
68.36152236890031
 20
8.699999999999932
 10
68.16152236890049
 20
8.699999999999932
 10
68.16152236890049
 20
9.5
 10
68.36152236890031
 20
9.5
 10
68.36152236890031
 20
10.09999999999991
 10
68.16152236890049
 20
10.09999999999991
 10
68.16152236890049
 20
21.20000000001744
 10
70.0
 20
22.50000000000023
  0
INSERT
  5
63
330
2F
100
AcDbEntity
  8
0
  6
ByBlock
 62
0
370
9
 48
0.5
100
AcDbBlockReference
  2
Vis MC LS
 10
35.0
 20
64.20000000000005
 30
0.0
 41
-1.0
  0
INSERT
  5
65
330
2F
100
AcDbEntity
  8
0
  6
ByBlock
 62
0
370
9
 48
0.5
100
AcDbBlockReference
  2
Vis MC LS
 10
21.8
 20
64.20000000000005
 30
0.0
 41
-1.0
  0
INSERT
  5
67
330
2F
100
AcDbEntity
  8
0
  6
ByBlock
 62
0
370
9
 48
0.5
100
AcDbBlockReference
  2
Vis MC LS
 10
48.2
 20
-64.19999999999959
 30
0.0
 50
180.0
  0
INSERT
  5
69
330
2F
100
AcDbEntity
  8
0
  6
ByBlock
 62
0
370
9
 48
0.5
100
AcDbBlockReference
  2
Vis MC LS
 10
35.0
 20
-64.19999999999959
 30
0.0
 50
180.0
  0
INSERT
  5
6B
330
2F
100
AcDbEntity
  8
0
  6
ByBlock
 62
0
370
9
 48
0.5
100
AcDbBlockReference
  2
Vis MC LS
 10
21.8
 20
-64.19999999999959
 30
0.0
 50
180.0
  0
LWPOLYLINE
  5
6D
330
2F
100
AcDbEntity
  8
0
  6
ByBlock
 62
0
370
18
 48
0.5
100
AcDbPolyline
 90
4
 70
1
 10
-7e-16
 20
60.00000000000023
 10
70.0
 20
60.00000000000023
 10
70.0
 20
-57.99999999999977
 10
-7e-16
 20
-57.99999999999977
  0
INSERT
  5
6E
330
2F
100
AcDbEntity
  8
0
  6
ByBlock
 62
0
370
9
 48
0.5
100
AcDbBlockReference
  2
Vis MC LS
 10
46.24999999999931
 20
32.50000000000011
 30
0.0
  0
INSERT
  5
70
330
2F
100
AcDbEntity
  8
0
  6
ByBlock
 62
0
370
9
 48
0.5
100
AcDbBlockReference
  2
Vis MC LS
 10
23.75
 20
-32.49999999999978
 30
0.0
 50
180.0
  0
LWPOLYLINE
  5
72
330
2F
100
AcDbEntity
  8
0
  6
ByBlock
 62
0
370
18
 48
0.5
 60
1
100
AcDbPolyline
 90
7
 70
0
 10
6.900000000001455
 20
-36.19999999999996
 10
4.000000000001818
 20
-36.19999999999996
 10
3.500000000001818
 20
-35.00000000000014
 10
2.500000000001818
 20
-35.00000000000014
 10
0.8928932188007365
 20
-36.60710678120032
 42
0.198912367379433
 10
0.6000000000003638
 20
-37.3142135624004
 10
0.6000000000003638
 20
-38.65025773880021
  0
LWPOLYLINE
  5
73
330
2F
100
AcDbEntity
  8
0
  6
ByBlock
 62
0
370
18
 48
0.5
 60
1
100
AcDbPolyline
 90
9
 70
0
 10
127.5000000000018
 20
-43.00000000000014
 42
-0.4142135623730951
 10
128.0000000000018
 20
-43.50000000000014
 10
128.0000000000018
 20
-51.50000000000014
 10
126.5740747248392
 20
-59.58682408882541
 42
-0.3639702342662651
 10
126.0816708484017
 20
-60.00000000000014
 10
8.500000000001817
 20
-60.00000000000014
 42
0.4142135623730951
 10
8.000000000001817
 20
-60.49999999999991
 10
8.000000000001817
 20
-69.50000000000014
 42
-0.4142135623730951
 10
7.500000000001818
 20
-70.00000000000014
  0
LWPOLYLINE
  5
74
330
2F
100
AcDbEntity
  8
0
  6
ByBlock
 62
0
370
18
 48
0.5
 60
1
100
AcDbPolyline
 90
3
 70
0
 10
118.4121320343565
 20
-61.08786796555631
 42
0.1989123673798877
 10
118.5000000000018
 20
-60.87573593120047
 10
118.5000000000018
 20
-60.00000000000014
  0
LWPOLYLINE
  5
75
330
2F
100
AcDbEntity
  8
0
  6
ByBlock
 62
0
370
18
 48
0.5
 60
1
100
AcDbPolyline
 90
6
 70
0
 10
66.00000000000182
 20
-60.00000000000014
 10
66.00000000000091
 20
-61.69999999999996
 42
0.4142135623730951
 10
66.30000000000109
 20
-62.00000000000014
 10
117.3757359312003
 20
-62.00000000000014
 42
0.1989123673797406
 10
117.5878679655561
 20
-61.91213203435578
 10
118.4121320342001
 20
-61.08786796559994
  0
LWPOLYLINE
  5
76
330
2F
100
AcDbEntity
  8
0
  6
ByBlock
 62
0
370
18
 48
0.5
 60
1
100
AcDbPolyline
 90
13
 70
0
 10
62.50000000000182
 20
-60.00000000000014
 10
62.50000000000182
 20
-43.00000000000014
 10
128.5000000000018
 20
-43.00000000000014
 10
129.5000000000018
 20
-42.00000000000014
 10
129.5000000000018
 20
41.99999999999985
 10
128.5000000000018
 20
42.99999999999985
 10
62.50000000000182
 20
42.99999999999985
 10
62.50000000000182
 20
59.99999999999985
 10
126.0816708484017
 20
59.99999999999985
 42
-0.3639702342659381
 10
126.5740747248392
 20
59.5868240888245
 10
128.0000000000018
 20
51.49999999999986
 10
128.0000000000018
 20
43.49999999999986
 42
-0.4142135623730951
 10
127.5000000000018
 20
42.99999999999985
  0
LWPOLYLINE
  5
77
330
2F
100
AcDbEntity
  8
0
  6
ByBlock
 62
0
370
18
 48
0.5
 60
1
100
AcDbPolyline
 90
2
 70
0
 10
126.0816708486727
 20
59.99996672596544
 42
-0.3639544246305999
 10
126.5740747236644
 20
59.58682408871798
  0
LWPOLYLINE
  5
78
330
2F
100
AcDbEntity
  8
0
  6
ByBlock
 62
0
370
18
 48
0.5
 60
1
100
AcDbPolyline
 90
3
 70
0
 10
118.4121320343565
 20
61.0878679657562
 42
-0.1989123673798877
 10
118.5000000000018
 20
60.87573593140027
 10
118.5000000000018
 20
59.99999999999985
  0
LWPOLYLINE
  5
79
330
2F
100
AcDbEntity
  8
0
  6
ByBlock
 62
0
370
18
 48
0.5
 60
1
100
AcDbPolyline
 90
6
 70
0
 10
118.4121320342001
 20
61.08786796559965
 10
117.5878679655561
 20
61.91213203435561
 42
0.1989123673797406
 10
117.3757359312003
 20
61.99999999999985
 10
66.30000000000109
 20
61.99999999999985
 42
0.4142135623730951
 10
66.00000000000091
 20
61.69999999999967
 10
66.00000000000182
 20
59.99999999999985
  0
LWPOLYLINE
  5
7A
330
2F
100
AcDbEntity
  8
0
  6
ByBlock
 62
0
370
18
 48
0.5
 60
1
100
AcDbPolyline
 90
2
 70
0
 10
124.5000000000018
 20
-43.00000000000014
 10
124.5000000000018
 20
42.99999999999985
  0
LWPOLYLINE
  5
7B
330
2F
100
AcDbEntity
  8
0
  6
ByBlock
 62
0
370
18
 48
0.5
 60
1
100
AcDbPolyline
 90
2
 70
0
 10
129.5000000000018
 20
-23.65000000006458
 10
126.7000000000007
 20
-21.85000000000051
  0
LWPOLYLINE
  5
7C
330
2F
100
AcDbEntity
  8
0
  6
ByBlock
 62
0
370
18
 48
0.5
 60
1
100
AcDbPolyline
 90
2
 70
0
 10
126.7000000000007
 20
21.85000000000022
 10
129.5000000000018
 20
21.85000000000022
  0
LWPOLYLINE
  5
7D
330
2F
100
AcDbEntity
  8
0
  6
ByBlock
 62
0
370
18
 48
0.5
 60
1
100
AcDbPolyline
 90
4
 70
0
 10
129.5000000000018
 20
23.65000000006407
 10
126.7000000000007
 20
21.85000000000022
 10
126.7000000000007
 20
-21.85000000000051
 10
129.5000000000018
 20
-21.85000000000051
  0
LWPOLYLINE
  5
7E
330
2F
100
AcDbEntity
  8
0
  6
ByBlock
 62
0
370
18
 48
0.5
 60
1
100
AcDbPolyline
 90
2
 70
0
 10
62.52637460340157
 20
69.72170401099979
 10
62.52101594840133
 20
69.75209445339974
  0
LWPOLYLINE
  5
7F
330
2F
100
AcDbEntity
  8
0
  6
ByBlock
 62
0
370
18
 48
0.5
 60
1
100
AcDbPolyline
 90
2
 70
0
 10
44.50000000000182
 20
-60.00000000000014
 10
44.50000000000182
 20
59.99999999999985
  0
LWPOLYLINE
  5
80
330
2F
100
AcDbEntity
  8
0
  6
ByBlock
 62
0
370
18
 48
0.5
 60
1
100
AcDbPolyline
 90
2
 70
0
 10
34.90000000000146
 20
10.39999999999949
 10
34.90000000000146
 20
13.60000000000022
  0
LWPOLYLINE
  5
81
330
2F
100
AcDbEntity
  8
0
  6
ByBlock
 62
0
370
18
 48
0.5
 60
1
100
AcDbPolyline
 90
2
 70
0
 10
62.07882969060119
 20
69.99999999999984
 42
-0.3650458095970516
 10
62.57155974847325
 20
69.58495345825347
  0
LWPOLYLINE
  5
82
330
2F
100
AcDbEntity
  8
0
  6
ByBlock
 62
0
370
18
 48
0.5
 60
1
100
AcDbPolyline
 90
5
 70
0
 10
5.000000000001818
 20
-21.39559109380039
 10
5.000000000001818
 20
10.80000000000004
 10
4.200000000000727
 20
11.80000000000004
 10
4.200000000000727
 20
13.80000000000004
 10
5.000000000001818
 20
14.80000000000004
  0
LWPOLYLINE
  5
83
330
2F
100
AcDbEntity
  8
0
  6
ByBlock
 62
0
370
18
 48
0.5
 60
1
100
AcDbPolyline
 90
2
 70
0
 10
26.90000000000146
 20
-13.6000000000005
 10
34.90000000000146
 20
-13.6000000000005
  0
LWPOLYLINE
  5
84
330
2F
100
AcDbEntity
  8
0
  6
ByBlock
 62
0
370
18
 48
0.5
 60
1
100
AcDbPolyline
 90
3
 70
0
 10
24.00000000000182
 20
13.89999999999949
 10
5.000000000001818
 20
13.89999999999949
 10
5.000000000001818
 20
21.39559109400019
  0
LWPOLYLINE
  5
85
330
2F
100
AcDbEntity
  8
0
  6
ByBlock
 62
0
370
18
 48
0.5
 60
1
100
AcDbPolyline
 90
2
 70
0
 10
24.00000000000182
 20
-10.1000000000005
 10
5.000000000001818
 20
-10.1000000000005
  0
LWPOLYLINE
  5
86
330
2F
100
AcDbEntity
  8
0
  6
ByBlock
 62
0
370
18
 48
0.5
 60
1
100
AcDbPolyline
 90
24
 70
0
 10
63.50000000000182
 20
-60.00000000000014
 10
63.50000000000182
 20
-64.19999999999996
 10
62.57156291324463
 20
-69.58493510326856
 42
-0.3650458095977276
 10
62.07882969072034
 20
-69.99999999999967
 10
0.0
 20
-70.00000000000014
 10
0.0
 20
-58.00000000000014
 10
0.5
 20
-57.50000000000014
 10
0.5
 20
-38.67705265800046
 10
3.400000000001455
 20
-37.89999999999978
 10
6.900000000001455
 20
-37.89999999999978
 10
6.900000000001455
 20
-24.80000000000032
 42
0.4142135623730951
 10
2.900000000001455
 20
-20.80000000000032
 10
0.5
 20
-20.80000000000032
 10
0.5
 20
-19.53205080760031
 10
3.500000000001818
 20
-17.80000000000032
 10
5.000000000001818
 20
-17.80000000000032
 10
5.000000000001818
 20
-16.39999999999978
 10
3.900000000001455
 20
-16.39999999999978
 10
3.400000000001455
 20
-15.1000000000005
 10
2.400000000001455
 20
-15.1000000000005
 10
0.8928932188011913
 20
-16.60710678119986
 42
0.1989123673795829
 10
0.6000000000003638
 20
-17.3142135624004
 10
0.6000000000003638
 20
-19.39999999999978
 10
0.7287187077999988
 20
-19.39999999999978
  0
LWPOLYLINE
  5
87
330
2F
100
AcDbEntity
  8
0
  6
ByBlock
 62
0
370
18
 48
0.5
 60
1
100
AcDbPolyline
 90
3
 70
0
 10
62.57155974860143
 20
69.58495345820015
 10
63.50000000000182
 20
64.19999999999968
 10
63.50000000000182
 20
59.99999999999985
  0
LWPOLYLINE
  5
88
330
2F
100
AcDbEntity
  8
0
  6
ByBlock
 62
0
370
18
 48
0.5
 60
1
100
AcDbPolyline
 90
17
 70
0
 10
5.000000000001818
 20
17.80000000000004
 10
3.900000000001455
 20
17.80000000000004
 10
3.513795634200505
 20
16.51265211440008
 10
2.555969349001316
 20
15.80000000000004
 10
0.5
 20
15.80000000000004
 10
0.5
 20
20.80000000000004
 10
2.900000000001455
 20
20.80000000000004
 42
0.4142135623730951
 10
6.900000000001455
 20
24.80000000000004
 10
6.900000000001455
 20
37.89999999999949
 10
3.700000000000727
 20
37.89999999999949
 10
2.700000000000727
 20
34.8999999999995
 10
0.5
 20
34.8999999999995
 10
0.5
 20
57.49999999999985
 10
0.0
 20
57.99999999999986
 10
0.0
 20
69.99999999999984
 10
62.22557362240149
 20
69.99999999999984
 42
-0.3639702342664383
 10
62.52101594830515
 20
69.75209445329969
  0
LWPOLYLINE
  5
89
330
2F
100
AcDbEntity
  8
0
  6
ByBlock
 62
0
370
18
 48
0.5
 60
1
100
AcDbPolyline
 90
2
 70
0
 10
35.40000000000146
 20
-14.1000000000005
 10
35.40000000000146
 20
-9.899999999999778
  0
LWPOLYLINE
  5
8A
330
2F
100
AcDbEntity
  8
0
  6
ByBlock
 62
0
370
18
 48
0.5
 60
1
100
AcDbPolyline
 90
2
 70
0
 10
24.50000000000182
 20
14.39999999999949
 10
5.000000000001818
 20
14.39999999999949
  0
LWPOLYLINE
  5
8B
330
2F
100
AcDbEntity
  8
0
  6
ByBlock
 62
0
370
18
 48
0.5
 60
1
100
AcDbPolyline
 90
2
 70
0
 10
5.000000000001818
 20
9.600000000000222
 10
24.50000000000182
 20
9.600000000000222
  0
LWPOLYLINE
  5
8C
330
2F
100
AcDbEntity
  8
0
  6
ByBlock
 62
0
370
18
 48
0.5
 60
1
100
AcDbPolyline
 90
2
 70
0
 10
35.40000000000146
 20
14.10000000000022
 10
26.40000000000146
 20
14.10000000000022
  0
LWPOLYLINE
  5
8D
330
2F
100
AcDbEntity
  8
0
  6
ByBlock
 62
0
370
18
 48
0.5
 60
1
100
AcDbPolyline
 90
2
 70
0
 10
24.50000000000182
 20
-9.600000000000504
 10
5.000000000001818
 20
-9.600000000000504
  0
LWPOLYLINE
  5
8E
330
2F
100
AcDbEntity
  8
0
  6
ByBlock
 62
0
370
18
 48
0.5
 60
1
100
AcDbPolyline
 90
2
 70
0
 10
5.000000000001818
 20
-14.39999999999978
 10
24.50000000000182
 20
-14.39999999999978
  0
LWPOLYLINE
  5
8F
330
2F
100
AcDbEntity
  8
0
  6
ByBlock
 62
0
370
18
 48
0.5
 60
1
100
AcDbPolyline
 90
6
 70
0
 10
24.00000000000182
 20
10.10000000000022
 10
24.50000000000182
 20
9.600000000000222
 10
24.50000000000182
 20
14.39999999999949
 10
24.00000000000182
 20
13.89999999999949
 10
24.00000000000182
 20
10.10000000000022
 10
5.000000000001818
 20
10.10000000000022
  0
LWPOLYLINE
  5
90
330
2F
100
AcDbEntity
  8
0
  6
ByBlock
 62
0
370
18
 48
0.5
 60
1
100
AcDbPolyline
 90
3
 70
0
 10
26.40000000000146
 20
9.899999999999494
 10
26.40000000000146
 20
14.10000000000022
 10
26.90000000000146
 20
13.60000000000022
  0
LWPOLYLINE
  5
91
330
2F
100
AcDbEntity
  8
0
  6
ByBlock
 62
0
370
18
 48
0.5
 60
1
100
AcDbPolyline
 90
5
 70
0
 10
26.90000000000146
 20
10.39999999999949
 10
26.90000000000146
 20
13.60000000000022
 10
34.90000000000146
 20
13.60000000000022
 10
35.40000000000146
 20
14.10000000000022
 10
35.40000000000146
 20
9.899999999999494
  0
LWPOLYLINE
  5
92
330
2F
100
AcDbEntity
  8
0
  6
ByBlock
 62
0
370
18
 48
0.5
 60
1
100
AcDbPolyline
 90
4
 70
1
 10
35.40000000000146
 20
9.899999999999494
 10
34.90000000000146
 20
10.39999999999949
 10
26.90000000000146
 20
10.39999999999949
 10
26.40000000000146
 20
9.899999999999494
  0
LWPOLYLINE
  5
93
330
2F
100
AcDbEntity
  8
0
  6
ByBlock
 62
0
370
18
 48
0.5
 60
1
100
AcDbPolyline
 90
6
 70
0
 10
24.00000000000182
 20
-13.89999999999978
 10
24.50000000000182
 20
-14.39999999999978
 10
24.50000000000182
 20
-9.600000000000504
 10
24.00000000000182
 20
-10.1000000000005
 10
24.00000000000182
 20
-13.89999999999978
 10
5.000000000001818
 20
-13.89999999999978
  0
LWPOLYLINE
  5
94
330
2F
100
AcDbEntity
  8
0
  6
ByBlock
 62
0
370
18
 48
0.5
 60
1
100
AcDbPolyline
 90
3
 70
0
 10
26.90000000000146
 20
-10.39999999999978
 10
26.90000000000146
 20
-13.6000000000005
 10
26.40000000000146
 20
-14.1000000000005
  0
LWPOLYLINE
  5
95
330
2F
100
AcDbEntity
  8
0
  6
ByBlock
 62
0
370
18
 48
0.5
 60
1
100
AcDbPolyline
 90
5
 70
0
 10
26.40000000000146
 20
-9.899999999999778
 10
26.40000000000146
 20
-14.1000000000005
 10
35.40000000000146
 20
-14.1000000000005
 10
34.90000000000146
 20
-13.6000000000005
 10
34.90000000000146
 20
-10.39999999999978
  0
LWPOLYLINE
  5
96
330
2F
100
AcDbEntity
  8
0
  6
ByBlock
 62
0
370
18
 48
0.5
 60
1
100
AcDbPolyline
 90
4
 70
1
 10
26.90000000000146
 20
-10.39999999999978
 10
26.40000000000146
 20
-9.899999999999778
 10
35.40000000000146
 20
-9.899999999999778
 10
34.90000000000146
 20
-10.39999999999978
  0
LWPOLYLINE
  5
97
330
2F
100
AcDbEntity
  8
0
  6
ByBlock
 62
0
370
18
 48
0.5
 60
1
100
AcDbPolyline
 90
6
 70
0
 10
7.500000000001818
 20
69.99999999999984
 42
-0.4142135623730951
 10
8.000000000001817
 20
69.49999999999984
 10
8.000000000001817
 20
60.49999999999963
 42
0.4142135623730951
 10
8.500000000001817
 20
59.99999999999985
 10
62.20000000000073
 20
59.99999999999985
 42
-0.3033467316920891
 10
62.47716387997479
 20
59.81480498089215
  0
LWPOLYLINE
  5
98
330
2F
100
AcDbEntity
  8
0
  6
ByBlock
 62
0
370
18
 48
0.5
 60
1
100
AcDbPolyline
 90
8
 70
1
 10
83.0000000000018
 20
-3.000000000000142
 42
0.4142135623730951
 10
83.50000000000182
 20
-2.500000000000142
 10
83.50000000000182
 20
2.49999999999963
 42
0.4142135623730951
 10
83.0000000000018
 20
2.99999999999963
 10
69.00000000000182
 20
2.99999999999963
 42
0.4142135623730951
 10
68.50000000000182
 20
2.49999999999963
 10
68.50000000000182
 20
-2.500000000000142
 42
0.4142135623730951
 10
69.00000000000182
 20
-3.000000000000142
  0
LWPOLYLINE
  5
99
330
2F
100
AcDbEntity
  8
0
  6
ByBlock
 62
0
370
18
 48
0.5
 60
1
100
AcDbPolyline
 90
4
 70
1
 10
72.90000000000146
 20
-26.44999999999996
 10
72.90000000000146
 20
-20.85000000000051
 10
66.40000000000146
 20
-20.85000000000051
 10
66.40000000000146
 20
-26.44999999999996
  0
LWPOLYLINE
  5
9A
330
2F
100
AcDbEntity
  8
0
  6
ByBlock
 62
150
370
18
 48
0.5
 60
1
100
AcDbPolyline
 90
2
 70
0
 10
129.5000000000018
 20
4.066987297999588
 10
131.8000000000011
 20
4.066987297999588
  0
LWPOLYLINE
  5
9B
330
2F
100
AcDbEntity
  8
0
  6
ByBlock
 62
150
370
18
 48
0.5
 60
1
100
AcDbPolyline
 90
2
 70
0
 10
131.8000000000011
 20
4.933012701800038
 10
129.5000000000018
 20
4.933012701800038
  0
LWPOLYLINE
  5
9C
330
2F
100
AcDbEntity
  8
0
  6
ByBlock
 62
150
370
18
 48
0.5
 60
1
100
AcDbPolyline
 90
4
 70
0
 10
129.5000000000018
 20
3.633974596200317
 10
131.8000000000011
 20
3.633974596200317
 10
131.8000000000011
 20
5.366025403800307
 10
129.5000000000018
 20
5.366025403800307
  0
LWPOLYLINE
  5
9D
330
2F
100
AcDbEntity
  8
0
  6
ByBlock
 62
150
370
18
 48
0.5
 60
1
100
AcDbPolyline
 90
4
 70
0
 10
129.5000000000018
 20
6.999999999999857
 10
131.8000000000011
 20
6.999999999999857
 10
131.8000000000011
 20
10.49999999999986
 10
132.3000000000011
 20
11.49999999999986
  0
LWPOLYLINE
  5
9E
330
2F
100
AcDbEntity
  8
0
  6
ByBlock
 62
150
370
18
 48
0.5
 60
1
100
AcDbPolyline
 90
2
 70
0
 10
129.5000000000018
 20
7.499999999999857
 10
131.8000000000011
 20
7.499999999999857
  0
LWPOLYLINE
  5
9F
330
2F
100
AcDbEntity
  8
0
  6
ByBlock
 62
150
370
18
 48
0.5
 60
1
100
AcDbPolyline
 90
2
 70
0
 10
129.5000000000018
 20
10.99999999999986
 10
132.0500000000011
 20
10.99999999999986
  0
LWPOLYLINE
  5
A0
330
2F
100
AcDbEntity
  8
0
  6
ByBlock
 62
150
370
18
 48
0.5
 60
1
100
AcDbPolyline
 90
6
 70
0
 10
133.5000000000018
 20
4.999999999999857
 10
135.3000000000011
 20
4.999999999999857
 42
-0.4142135623730951
 10
135.8000000000011
 20
4.499999999999857
 10
135.8000000000011
 20
-4.500000000000142
 42
-0.4142135623730951
 10
135.3000000000011
 20
-5.000000000000142
 10
133.5000000000018
 20
-5.000000000000142
  0
LWPOLYLINE
  5
A1
330
2F
100
AcDbEntity
  8
0
  6
ByBlock
 62
150
370
18
 48
0.5
 60
1
100
AcDbPolyline
 90
4
 70
0
 10
129.5000000000018
 20
11.49999999999986
 10
133.2000000000007
 20
11.49999999999963
 42
-0.4142135623728953
 10
133.5000000000009
 20
11.19999999999967
 10
133.5000000000018
 20
-5.399999999999778
  0
LWPOLYLINE
  5
A2
330
2F
100
AcDbEntity
  8
0
  6
ByBlock
 62
150
370
18
 48
0.5
 60
1
100
AcDbPolyline
 90
7
 70
0
 10
131.8000000000011
 20
-12.00000000000014
 10
131.8000000000011
 20
-5.399999999999778
 10
135.5000000000018
 20
-5.400000000000005
 42
-0.4142135623732949
 10
135.8000000000011
 20
-5.69999999999996
 10
135.800000000002
 20
-11.6999999999999
 42
-0.4142135623728953
 10
135.5000000000018
 20
-11.99999999999991
 10
129.5000000000018
 20
-12.00000000000014
  0
LWPOLYLINE
  5
A3
330
2F
100
AcDbEntity
  8
0
  6
HIDDEN
 62
10
370
18
 48
0.5
 60
1
100
AcDbPolyline
 90
4
 70
0
 10
82.0
 20
45.03361329579988
 10
82.0
 20
60.99999999999963
 10
85.0
 20
60.99999999999963
 10
85.0
 20
45.03361329579988
  0
LWPOLYLINE
  5
A4
330
2F
100
AcDbEntity
  8
0
  6
HIDDEN
 62
10
370
18
 48
0.5
 60
1
100
AcDbPolyline
 90
4
 70
0
 10
82.0
 20
-44.96638670420011
 10
82.0
 20
-60.96638670420034
 10
85.0
 20
-60.96638670420034
 10
85.0
 20
-44.96638670420011
  0
LWPOLYLINE
  5
A5
330
2F
100
AcDbEntity
  8
0
  6
ByBlock
 62
0
370
18
 48
0.5
 60
1
100
AcDbPolyline
 90
4
 70
1
 10
72.90000000000146
 20
26.44999999999968
 10
72.90000000000146
 20
20.85000000000022
 10
66.40000000000146
 20
20.85000000000022
 10
66.40000000000146
 20
26.44999999999968
  0
LWPOLYLINE
  5
A6
330
2F
100
AcDbEntity
  8
0
  6
ByBlock
 62
112
370
9
 48
0.5
 60
1
100
AcDbPolyline
 90
4
 70
1
 10
7.500000000000909
 20
67.5999999999999
 42
-0.9999999999999998
 10
7.500000000000909
 20
62.40000000000009
 10
5.000000000000909
 20
62.40000000000009
 42
-0.9999999999999998
 10
5.000000000000909
 20
67.5999999999999
  0
LWPOLYLINE
  5
A7
330
2F
100
AcDbEntity
  8
0
  6
ByBlock
 62
112
370
9
 48
0.5
 60
1
100
AcDbPolyline
 90
4
 70
1
 10
62.5
 20
67.5999999999999
 42
0.9999999999999998
 10
62.5
 20
62.40000000000009
 10
65.0
 20
62.40000000000009
 42
0.9999999999999998
 10
65.0
 20
67.5999999999999
  0
LWPOLYLINE
  5
A8
330
2F
100
AcDbEntity
  8
0
  6
ByBlock
 62
112
370
9
 48
0.5
 60
1
100
AcDbPolyline
 90
4
 70
1
 10
7.500000000000909
 20
-67.59999999999968
 42
0.9999999999999998
 10
7.500000000000909
 20
-62.39999999999986
 10
5.000000000000909
 20
-62.39999999999986
 42
0.9999999999999998
 10
5.000000000000909
 20
-67.59999999999968
  0
LWPOLYLINE
  5
A9
330
2F
100
AcDbEntity
  8
0
  6
ByBlock
 62
112
370
9
 48
0.5
 60
1
100
AcDbPolyline
 90
4
 70
1
 10
62.5
 20
-67.59999999999968
 42
-0.9999999999999998
 10
62.5
 20
-62.39999999999986
 10
65.0
 20
-62.39999999999986
 42
-0.9999999999999998
 10
65.0
 20
-67.59999999999968
  0
ENDBLK
  5
31
330
2F
100
AcDbEntity
  8
0
100
AcDbBlockEnd
  0
BLOCK
  5
AB
330
AA
100
AcDbEntity
  8
0
100
AcDbBlockBegin
  2
Vis MC LS
 70
0
 10
0.0
 20
0.0
 30
0.0
  3
Vis MC LS
  1

  4
Drawn by Hawee Sep.2015
  0
CIRCLE
  5
AD
330
AA
100
AcDbEntity
  8
0
  6
ByBlock
 62
8
370
9
 48
0.25
100
AcDbCircle
 10
0.0
 20
0.0
 30
0.0
 40
3.0
  0
CIRCLE
  5
AE
330
AA
100
AcDbEntity
  8
0
  6
ByBlock
 62
8
370
9
 48
0.25
100
AcDbCircle
 10
0.0
 20
0.0
 30
0.0
 40
3.25
  0
LWPOLYLINE
  5
AF
330
AA
100
AcDbEntity
  8
0
  6
ByBlock
 62
8
370
9
 48
0.25
100
AcDbPolyline
 90
18
 70
1
 10
1.900000000001
 20
1.137e-13
 10
1.900000000001
 20
0.4000000000002047
 10
0.6019627386008324
 20
0.4000000000002047
 42
-0.3964416871298089
 10
0.4000000000010005
 20
0.6019627386000366
 10
0.4000000000005457
 20
1.900000000000204
 10
-0.3999999999996362
 20
1.900000000000204
 10
-0.3999999999996362
 20
0.6019627386000366
 42
-0.3964416871298089
 10
-0.6019627385994683
 20
0.4000000000002047
 10
-1.899999999999636
 20
0.4000000000002047
 10
-1.899999999999636
 20
1.137e-13
 10
-1.899999999999636
 20
-0.3999999999999772
 10
-0.6019627385994683
 20
-0.3999999999999772
 42
-0.3964416871298089
 10
-0.3999999999996362
 20
-0.6019627385998092
 10
-0.3999999999996362
 20
-1.899999999999977
 10
0.4000000000005457
 20
-1.899999999999977
 10
0.4000000000010005
 20
-0.6019627385998092
 42
-0.3964416871298089
 10
0.6019627386008324
 20
-0.3999999999999772
 10
1.900000000001
 20
-0.3999999999999772
  0
LWPOLYLINE
  5
B0
330
AA
100
AcDbEntity
  8
0
  6
ByBlock
 62
8
370
9
 48
0.25
100
AcDbPolyline
 90
32
 70
1
 10
1.900000000001
 20
0.4000000000003184
 10
1.980000000000472
 20
0.4800000000001319
 10
2.929517444820703
 20
0.4800000000001319
 42
0.010278464558734
 10
2.907313615609382
 20
0.6000000000000228
 10
1.104906846500853
 20
0.6000000000000228
 42
-0.4214328411449986
 10
0.6000000000003638
 20
1.104906846495623
 10
0.6000000000003638
 20
2.100000000000022
 10
4.547e-13
 20
2.100000000000022
 10
-0.599999999999909
 20
2.100000000000022
 10
-0.599999999999909
 20
1.104906846500057
 42
-0.4214328411476481
 10
-1.104906846500398
 20
0.6000000000000228
 10
-2.907313615608927
 20
0.6000000000000228
 42
0.010278464558734
 10
-2.929517444820248
 20
0.4800000000001319
 10
-1.980000000000018
 20
0.4800000000001319
 10
-1.90000000000009
 20
0.400000000000432
 10
-1.90000000000009
 20
1.137e-13
 10
-1.90000000000009
 20
-0.3999999999999772
 10
-1.980000000000018
 20
-0.4799999999999045
 10
-2.929517444820248
 20
-0.4799999999999045
 42
0.010278464558734
 10
-2.907313615608927
 20
-0.5999999999997954
 10
-1.104906846500398
 20
-0.5999999999997954
 42
-0.4214328411449985
 10
-0.599999999999909
 20
-1.104906846495396
 10
-0.599999999999909
 20
-2.099999999999795
 10
0.0
 20
-2.099999999999795
 10
0.6000000000003638
 20
-2.099999999999795
 10
0.6000000000003638
 20
-1.104906846499829
 42
-0.4214328411476481
 10
1.104906846500853
 20
-0.5999999999997954
 10
2.907313615609382
 20
-0.5999999999997954
 42
0.010278464558734
 10
2.929517444820703
 20
-0.4799999999999045
 10
1.980000000000018
 20
-0.4799999999999045
 10
1.900000000000545
 20
-0.400000000000091
 10
1.900000000000545
 20
1.137e-13
  0
LWPOLYLINE
  5
B1
330
AA
100
AcDbEntity
  8
0
  6
ByBlock
 62
8
370
9
 48
0.25
100
AcDbPolyline
 90
9
 70
0
 10
-0.599999999999909
 20
2.100000000000022
 10
-0.3999999999996362
 20
1.900000000000204
 10
0.4000000000005457
 20
-1.899999999999977
 10
0.6000000000003638
 20
-2.099999999999795
 10
-0.599999999999909
 20
-2.099999999999795
 10
-0.3999999999996362
 20
-1.899999999999977
 10
0.4000000000005457
 20
1.900000000000204
 10
0.6000000000003638
 20
2.100000000000022
 10
-0.599999999999909
 20
2.100000000000022
  0
LWPOLYLINE
  5
B2
330
AA
100
AcDbEntity
  8
0
  6
ByBlock
 62
8
370
9
 48
0.25
100
AcDbPolyline
 90
9
 70
0
 10
-1.980000000000018
 20
0.4800000000001319
 10
-1.90000000000009
 20
0.400000000000432
 10
1.900000000001
 20
-0.4000000000005457
 10
1.980000000000018
 20
-0.4799999999999045
 10
1.980000000000018
 20
0.4800000000001319
 10
1.900000000001
 20
0.4000000000002047
 10
-1.899999999999636
 20
-0.3999999999999772
 10
-1.980000000000018
 20
-0.4799999999999045
 10
-1.980000000000018
 20
0.4800000000001319
  0
LWPOLYLINE
  5
B3
330
AA
100
AcDbEntity
  8
0
  6
ByBlock
 62
8
370
9
 48
0.25
100
AcDbPolyline
 90
5
 70
1
 10
2.929517444820248
 20
0.4800000000001319
 10
1.980000000000018
 20
0.4800000000001319
 10
1.980000000000018
 20
-0.4799999999999045
 10
2.929517444820248
 20
-0.4799999999999045
 42
0.0406239289029566
 10
2.968580883100003
 20
0.0
 42
0.0406239289029758
  0
LWPOLYLINE
  5
B4
330
AA
100
AcDbEntity
  8
0
  6
ByBlock
 62
8
370
9
 48
0.25
100
AcDbPolyline
 90
5
 70
1
 10
-1.980000000000018
 20
0.4800000000001319
 10
-2.929517444820248
 20
0.4800000000001319
 42
0.0406239289029758
 10
-2.968580883100003
 20
0.0
 42
0.0406239289029566
 10
-2.929517444820248
 20
-0.4799999999999045
 10
-1.980000000000018
 20
-0.4799999999999045
  0
ENDBLK
  5
AC
330
AA
100
AcDbEntity
  8
0
100
AcDbBlockEnd
  0
BLOCK
  5
B6
330
B5
100
AcDbEntity
  8
0
100
AcDbBlockBegin
  2
*U4827
 70
1
 10
0.0
 20
0.0
 30
0.0
  3
*U4827
  1

  0
HATCH
  5
B8
330
B5
100
AcDbEntity
  8
0
 62
10
100
AcDbHatch
 10
0.0
 20
0.0
 30
0.0
210
0.0
220
0.0
230
1.0
  2
SOLID
 70
1
 71
0
 91
1
 92
1
 93
1
 72
4
 94
3
 73
0
 74
0
 95
20
 96
16
 40
0.0
 40
0.0
 40
0.0
 40
0.0
 40
1.0
 40
1.0
 40
1.0
 40
2.0
 40
2.0
 40
2.0
 40
3.0
 40
3.0
 40
3.0
 40
4.0
 40
4.0
 40
4.0
 40
5.0
 40
5.0
 40
5.0
 40
5.0
 10
10.55965344402352
 20
6.722726179139024
 10
10.55965344402352
 20
6.722726179139024
 10
15.52923669506018
 20
6.722726179139024
 10
15.52923669506018
 20
6.722726179139024
 10
15.52923669506018
 20
6.722726179139024
 10
12.52271882028216
 20
5.193988276710064
 10
12.52271882028216
 20
5.193988276710064
 10
12.52271882028216
 20
5.193988276710064
 10
12.62818988486704
 20
5.684606487257273
 10
12.66077925875638
 20
5.830962402722065
 10
12.69573876892807
 20
5.985613795177428
 10
12.64122563442465
 20
6.088714723480742
 10
12.45102219772623
 20
6.14737559648062
 10
12.25489342032037
 20
6.207221537622454
 10
10.55965344402352
 20
6.722726179139024
 10
10.55965344402352
 20
6.722726179139024
 97
0
 97
0
 75
0
 76
1
 98
1
 10
7.78674212662363
 20
3.347652112380594
450
0
451
0
460
0.0
461
0.0
452
0
462
0.0
453
0
470

  0
HATCH
  5
B9
330
B5
100
AcDbEntity
  8
0
 62
152
100
AcDbHatch
 10
0.0
 20
0.0
 30
0.0
210
0.0
220
0.0
230
1.0
  2
SOLID
 70
1
 71
0
 91
1
 92
1
 93
1
 72
4
 94
3
 73
0
 74
0
 95
86
 96
82
 40
0.0
 40
0.0
 40
0.0
 40
0.0
 40
1.0
 40
1.0
 40
1.0
 40
2.0
 40
2.0
 40
2.0
 40
3.0
 40
3.0
 40
3.0
 40
4.0
 40
4.0
 40
4.0
 40
5.0
 40
5.0
 40
5.0
 40
6.0
 40
6.0
 40
6.0
 40
7.0
 40
7.0
 40
7.0
 40
8.0
 40
8.0
 40
8.0
 40
9.0
 40
9.0
 40
9.0
 40
10.0
 40
10.0
 40
10.0
 40
11.0
 40
11.0
 40
11.0
 40
12.0
 40
12.0
 40
12.0
 40
13.0
 40
13.0
 40
13.0
 40
14.0
 40
14.0
 40
14.0
 40
15.0
 40
15.0
 40
15.0
 40
16.0
 40
16.0
 40
16.0
 40
17.0
 40
17.0
 40
17.0
 40
18.0
 40
18.0
 40
18.0
 40
19.0
 40
19.0
 40
19.0
 40
20.0
 40
20.0
 40
20.0
 40
21.0
 40
21.0
 40
21.0
 40
22.0
 40
22.0
 40
22.0
 40
23.0
 40
23.0
 40
23.0
 40
24.0
 40
24.0
 40
24.0
 40
25.0
 40
25.0
 40
25.0
 40
26.0
 40
26.0
 40
26.0
 40
27.0
 40
27.0
 40
27.0
 40
27.0
 10
8.563998693875536
 20
2.468496959398421
 10
8.956256248684129
 20
2.468496959398421
 10
9.180826661484438
 20
2.369543769590001
 10
9.180826661484438
 20
2.107051176266626
 10
9.180826661484438
 20
1.936401363902278
 10
9.064689983624293
 20
1.711238417032945
 10
8.959811453109216
 20
1.628876181204098
 10
8.718650086329333
 20
1.443413017071938
 10
8.507115423086637
 20
1.423859392738645
 10
7.380411887632917
 20
1.423859392738645
 10
7.380411887632917
 20
1.423859392738645
 10
1.984500372722237
 20
1.423859392738645
 10
1.984500372722237
 20
1.423859392738645
 10
1.984500372722237
 20
1.423859392738645
 10
3.076540665040734
 20
6.000000020824757
 10
3.076540665040734
 20
6.000000020824757
 10
3.076540665040734
 20
6.000000020824757
 10
1.269904283448436
 20
6.000000020824757
 10
1.269904283448436
 20
6.000000020824757
 10
1.145472128598502
 20
6.000000020824757
 10
1.0989582040484
 20
5.965633044722872
 10
1.061332290557892
 20
5.818092061116903
 10
1.061332290557892
 20
5.818092061116903
 10
0.0442475581870774
 20
1.605767352446499
 10
0.0442475581870774
 20
1.605767352446499
 10
-0.1471409466540869
 20
0.7691092446051134
 10
0.2857051920003002
 20
2.08247615e-08
 10
1.248573056901033
 20
2.08247615e-08
 10
2.21114465476843
 20
2.08247615e-08
 10
2.761905073492378
 20
2.08247615e-08
 10
3.579898358105179
 20
2.08247615e-08
 10
4.15406387262241
 20
2.08247615e-08
 10
4.886139716985187
 20
0.4935809017256892
 10
5.287877816926307
 20
1.061821075535481
 10
5.3385394799713
 20
1.132925164020821
 10
5.42712332354014
 20
1.145960913576089
 10
5.391571279298643
 20
0.9942721914744465
 10
5.320763457848988
 20
0.6944499516962486
 10
5.236031085738574
 20
0.3324116344930843
 10
5.214403592157836
 20
0.2429389898156256
 10
5.173815008312043
 20
0.066956370815209
 10
5.2659540563091
 20
2.08247615e-08
 10
5.349501360279905
 20
2.08247615e-08
 10
5.349501360279905
 20
2.08247615e-08
 10
7.432554885857117
 20
2.08247615e-08
 10
8.095304243943186
 20
2.08247615e-08
 10
10.42514820997125
 20
2.08247615e-08
 10
11.31394931603684
 20
1.115149141899291
 10
11.41468010805702
 20
2.443610528429061
 10
11.46563803813848
 20
3.117914300895885
 10
10.98450037272145
 20
3.63223387427128
 10
9.64833604327092
 20
3.63223387427128
 10
9.64833604327092
 20
3.63223387427128
 10
8.986475486291123
 20
3.63223387427128
 10
8.622067032804043
 20
3.63223387427128
 10
8.25469590896481
 20
3.63223387427128
 10
7.8802143762754
 20
3.763776437968261
 10
7.8802143762754
 20
4.091447779071103
 10
7.8802143762754
 20
4.426822063092362
 10
8.308023975328622
 20
4.729606973224279
 10
8.8584881270161
 20
4.729606973224279
 10
8.8584881270161
 20
4.729606973224279
 10
11.35957443948067
 20
4.729606973224279
 10
11.35957443948067
 20
4.729606973224279
 10
11.35957443948067
 20
4.729606973224279
 10
11.55866588723868
 20
5.520639957621055
 10
11.60192087440016
 20
5.703732985470084
 10
11.65584147483378
 20
5.934228738975486
 10
11.58770005670294
 20
6.000000020824757
 10
11.41823531247898
 20
6.000000020824757
 10
11.41823531247898
 20
6.000000020824757
 10
8.328762667803089
 20
6.000000020824757
 10
8.328762667803089
 20
6.000000020824757
 10
6.532791899486056
 20
6.000000020824757
 10
5.726945563321468
 20
4.801303595780207
 10
5.726945563321468
 20
3.944499329534941
 10
5.726945563321468
 20
3.087102529219087
 10
6.417840289768649
 20
2.469682027540378
 10
8.198405172248846
 20
2.469682027540378
 10
8.198405172248846
 20
2.469682027540378
 10
8.563998693875536
 20
2.468496959398421
 10
8.563998693875536
 20
2.468496959398421
 97
0
 97
0
 75
0
 76
1
 98
1
 10
7.78674212662363
 20
3.375074087583192
450
0
451
0
460
0.0
461
0.0
452
0
462
0.0
453
0
470

  0
LINE
  5
BA
330
B5
100
AcDbEntity
  8
Defpoints
  6
ByBlock
 62
2
370
9
100
AcDbLine
 10
5.7544
 20
3.0
 30
0.0
 11
5.7544
 21
3.0
 31
0.0
  0
ENDBLK
  5
B7
330
B5
100
AcDbEntity
  8
0
100
AcDbBlockEnd
  0
ENDSEC
  0
SECTION
  2
ENTITIES
  0
INSERT
  5
BD
330
17
100
AcDbEntity
  8
0
100
AcDbBlockReference
  2
MC 95AF
 10
7.1e-15
 20
70.00000000000014
 30
0.0
  0
ENDSEC
  0
SECTION
  2
OBJECTS
  0
DICTIONARY
  5
A
330
0
100
AcDbDictionary
281
1
  3
ACAD_COLOR
350
B
  3
ACAD_GROUP
350
C
  3
ACAD_LAYOUT
350
D
  3
ACAD_MATERIAL
350
E
  3
ACAD_MLEADERSTYLE
350
F
  3
ACAD_MLINESTYLE
350
10
  3
ACAD_PLOTSETTINGS
350
11
  3
ACAD_PLOTSTYLENAME
350
12
  3
ACAD_SCALELIST
350
14
  3
ACAD_TABLESTYLE
350
15
  3
ACAD_VISUALSTYLE
350
16
  3
EZDXF_META
350
2D
  0
DICTIONARY
  5
B
330
A
100
AcDbDictionary
281
1
  0
DICTIONARY
  5
C
330
A
100
AcDbDictionary
281
1
  0
DICTIONARY
  5
D
330
A
100
AcDbDictionary
281
1
  3
Model
350
1A
  3
Layout1
350
1E
  0
DICTIONARY
  5
E
330
A
100
AcDbDictionary
281
1
  3
ByBlock
350
1F
  3
ByLayer
350
20
  3
Global
350
21
  0
DICTIONARY
  5
F
330
A
100
AcDbDictionary
281
1
  3
Standard
350
2C
  0
DICTIONARY
  5
10
330
A
100
AcDbDictionary
281
1
  3
Standard
350
22
  0
DICTIONARY
  5
11
330
A
100
AcDbDictionary
281
1
  0
ACDBDICTIONARYWDFLT
  5
12
330
A
100
AcDbDictionary
281
1
  3
Normal
350
13
100
AcDbDictionaryWithDefault
340
13
  0
ACDBPLACEHOLDER
  5
13
330
12
  0
DICTIONARY
  5
14
330
A
100
AcDbDictionary
281
1
  0
DICTIONARY
  5
15
330
A
100
AcDbDictionary
281
1
  0
DICTIONARY
  5
16
330
A
100
AcDbDictionary
281
1
  0
LAYOUT
  5
1A
330
D
100
AcDbPlotSettings
  1

  4
A3
  6

 40
7.5
 41
20.0
 42
7.5
 43
20.0
 44
420.0
 45
297.0
 46
0.0
 47
0.0
 48
0.0
 49
0.0
140
0.0
141
0.0
142
1.0
143
1.0
 70
1024
 72
1
 73
0
 74
5
  7

 75
16
 76
0
 77
2
 78
300
147
1.0
148
0.0
149
0.0
100
AcDbLayout
  1
Model
 70
1
 71
0
 10
0.0
 20
0.0
 11
420.0
 21
297.0
 12
0.0
 22
0.0
 32
0.0
 14
1e+20
 24
1e+20
 34
1e+20
 15
-1e+20
 25
-1e+20
 35
-1e+20
146
0.0
 13
0.0
 23
0.0
 33
0.0
 16
1.0
 26
0.0
 36
0.0
 17
0.0
 27
1.0
 37
0.0
 76
1
330
17
  0
LAYOUT
  5
1E
330
D
100
AcDbPlotSettings
  1

  4
A3
  6

 40
7.5
 41
20.0
 42
7.5
 43
20.0
 44
420.0
 45
297.0
 46
0.0
 47
0.0
 48
0.0
 49
0.0
140
0.0
141
0.0
142
1.0
143
1.0
 70
0
 72
1
 73
0
 74
5
  7

 75
16
 76
0
 77
2
 78
300
147
1.0
148
0.0
149
0.0
100
AcDbLayout
  1
Layout1
 70
1
 71
1
 10
0.0
 20
0.0
 11
420.0
 21
297.0
 12
0.0
 22
0.0
 32
0.0
 14
1e+20
 24
1e+20
 34
1e+20
 15
-1e+20
 25
-1e+20
 35
-1e+20
146
0.0
 13
0.0
 23
0.0
 33
0.0
 16
1.0
 26
0.0
 36
0.0
 17
0.0
 27
1.0
 37
0.0
 76
1
330
1B
  0
MATERIAL
  5
1F
102
{ACAD_REACTORS
330
E
102
}
330
E
100
AcDbMaterial
  1
ByBlock
  2

 70
0
 40
1.0
 71
1
 41
1.0
 91
-1023410177
 42
1.0
 72
1
  3

 73
1
 74
1
 75
1
 44
0.5
 73
0
 45
1.0
 46
1.0
 77
1
  4

 78
1
 79
1
170
1
 48
1.0
171
1
  6

172
1
173
1
174
1
140
1.0
141
1.0
175
1
  7

176
1
177
1
178
1
143
1.0
179
1
  8

270
1
271
1
272
1
145
1.0
146
1.0
273
1
  9

274
1
275
1
276
1
 42
1.0
 72
1
  3

 73
1
 74
1
 75
1
 94
63
  0
MATERIAL
  5
20
102
{ACAD_REACTORS
330
E
102
}
330
E
100
AcDbMaterial
  1
ByLayer
  2

 70
0
 40
1.0
 71
1
 41
1.0
 91
-1023410177
 42
1.0
 72
1
  3

 73
1
 74
1
 75
1
 44
0.5
 73
0
 45
1.0
 46
1.0
 77
1
  4

 78
1
 79
1
170
1
 48
1.0
171
1
  6

172
1
173
1
174
1
140
1.0
141
1.0
175
1
  7

176
1
177
1
178
1
143
1.0
179
1
  8

270
1
271
1
272
1
145
1.0
146
1.0
273
1
  9

274
1
275
1
276
1
 42
1.0
 72
1
  3

 73
1
 74
1
 75
1
 94
63
  0
MATERIAL
  5
21
102
{ACAD_REACTORS
330
E
102
}
330
E
100
AcDbMaterial
  1
Global
  2

 70
0
 40
1.0
 71
1
 41
1.0
 91
-1023410177
 42
1.0
 72
1
  3

 73
1
 74
1
 75
1
 44
0.5
 73
0
 45
1.0
 46
1.0
 77
1
  4

 78
1
 79
1
170
1
 48
1.0
171
1
  6

172
1
173
1
174
1
140
1.0
141
1.0
175
1
  7

176
1
177
1
178
1
143
1.0
179
1
  8

270
1
271
1
272
1
145
1.0
146
1.0
273
1
  9

274
1
275
1
276
1
 42
1.0
 72
1
  3

 73
1
 74
1
 75
1
 94
63
  0
MLINESTYLE
  5
22
102
{ACAD_REACTORS
330
10
102
}
330
10
100
AcDbMlineStyle
  2
Standard
 70
0
  3

 62
256
 51
90.0
 52
90.0
 71
2
 49
0.5
 62
256
  6
BYLAYER
 49
-0.5
 62
256
  6
BYLAYER
  0
MLEADERSTYLE
  5
2C
102
{ACAD_REACTORS
330
F
102
}
330
F
100
AcDbMLeaderStyle
179
2
170
2
171
1
172
0
 90
2
 40
0.0
 41
0.0
173
1
 91
-1056964608
 92
-2
290
1
 42
2.0
291
1
 43
8.0
  3
Standard
 44
4.0
300

342
29
174
1
175
1
176
0
178
1
 93
-1056964608
 45
4.0
292
0
297
0
 46
4.0
 94
-1056964608
 47
1.0
 49
1.0
140
1.0
294
1
141
0.0
177
0
142
1.0
295
0
296
0
143
3.75
271
0
272
9
273
9
  0
DICTIONARY
  5
2D
330
A
100
AcDbDictionary
280
1
281
1
  3
CREATED_BY_EZDXF
350
2E
  3
WRITTEN_BY_EZDXF
350
C1
  0
DICTIONARYVAR
  5
2E
330
2D
100
DictionaryVariables
280
0
  1
1.4.4 @ 2026-09-23T06:03:05.801173+00:00
  0
DICTIONARYVAR
  5
C1
330
2D
100
DictionaryVariables
280
0
  1
1.4.4 @ 2026-09-23T06:03:06.122134+00:00
  0
ENDSEC
  0
EOF
