  0
SECTION
  2
HEADER
  9
$ACADVER
  1
AC1032
  9
$ACADMAINTVER
 90
4
  9
$DWGCODEPAGE
  3
ANSI_1252
  9
$LASTSAVEDBY
  1
ezdxf
  9
$REQUIREDVERSIONS
160
0
  9
$INSBASE
 10
0.0
 20
0.0
 30
0.0
  9
$EXTMIN
 10
1e+20
 20
1e+20
 30
1e+20
  9
$EXTMAX
 10
-1e+20
 20
-1e+20
 30
-1e+20
  9
$LIMMIN
 10
0.0
 20
0.0
  9
$LIMMAX
 10
420.0
 20
297.0
  9
$ORTHOMODE
 70
0
  9
$REGENMODE
 70
1
  9
$FILLMODE
 70
1
  9
$QTEXTMODE
 70
0
  9
$MIRRTEXT
 70
1
  9
$LTSCALE
 40
1.0
  9
$ATTMODE
 70
1
  9
$TEXTSIZE
 40
2.5
  9
$TRACEWID
 40
1.0
  9
$TEXTSTYLE
  7
Standard
  9
$CLAYER
  8
0
  9
$CELTYPE
  6
ByLayer
  9
$CECOLOR
 62
256
  9
$CELTSCALE
 40
1.0
  9
$DISPSILH
 70
0
  9
$DIMSCALE
 40
1.0
  9
$DIMASZ
 40
2.5
  9
$DIMEXO
 40
0.625
  9
$DIMDLI
 40
3.75
  9
$DIMRND
 40
0.0
  9
$DIMDLE
 40
0.0
  9
$DIMEXE
 40
1.25
  9
$DIMTP
 40
0.0
  9
$DIMTM
 40
0.0
  9
$DIMTXT
 40
2.5
  9
$DIMCEN
 40
2.5
  9
$DIMTSZ
 40
0.0
  9
$DIMTOL
 70
0
  9
$DIMLIM
 70
0
  9
$DIMTIH
 70
0
  9
$DIMTOH
 70
0
  9
$DIMSE1
 70
0
  9
$DIMSE2
 70
0
  9
$DIMTAD
 70
1
  9
$DIMZIN
 70
8
  9
$DIMBLK
  1

  9
$DIMASO
 70
1
  9
$DIMSHO
 70
1
  9
$DIMPOST
  1

  9
$DIMAPOST
  1

  9
$DIMALT
 70
0
  9
$DIMALTD
 70
3
  9
$DIMALTF
 40
0.03937007874
  9
$DIMLFAC
 40
1.0
  9
$DIMTOFL
 70
1
  9
$DIMTVP
 40
0.0
  9
$DIMTIX
 70
0
  9
$DIMSOXD
 70
0
  9
$DIMSAH
 70
0
  9
$DIMBLK1
  1

  9
$DIMBLK2
  1

  9
$DIMSTYLE
  2
ISO-25
  9
$DIMCLRD
 70
0
  9
$DIMCLRE
 70
0
  9
$DIMCLRT
 70
0
  9
$DIMTFAC
 40
1.0
  9
$DIMGAP
 40
0.625
  9
$DIMJUST
 70
0
  9
$DIMSD1
 70
0
  9
$DIMSD2
 70
0
  9
$DIMTOLJ
 70
0
  9
$DIMTZIN
 70
8
  9
$DIMALTZ
 70
0
  9
$DIMALTTZ
 70
0
  9
$DIMUPT
 70
0
  9
$DIMDEC
 70
2
  9
$DIMTDEC
 70
2
  9
$DIMALTU
 70
2
  9
$DIMALTTD
 70
3
  9
$DIMTXSTY
  7
Standard
  9
$DIMAUNIT
 70
0
  9
$DIMADEC
 70
0
  9
$DIMALTRND
 40
0.0
  9
$DIMAZIN
 70
0
  9
$DIMDSEP
 70
44
  9
$DIMATFIT
 70
3
  9
$DIMFRAC
 70
0
  9
$DIMLDRBLK
  1

  9
$DIMLUNIT
 70
2
  9
$DIMLWD
 70
-2
  9
$DIMLWE
 70
-2
  9
$DIMTMOVE
 70
0
  9
$DIMFXL
 40
1.0
  9
$DIMFXLON
 70
0
  9
$DIMJOGANG
 40
0.785398163397
  9
$DIMTFILL
 70
0
  9
$DIMTFILLCLR
 70
0
  9
$DIMARCSYM
 70
0
  9
$DIMLTYPE
  6

  9
$DIMLTEX1
  6

  9
$DIMLTEX2
  6

  9
$DIMTXTDIRECTION
 70
0
  9
$LUNITS
 70
2
  9
$LUPREC
 70
4
  9
$SKETCHINC
 40
1.0
  9
$FILLETRAD
 40
10.0
  9
$AUNITS
 70
0
  9
$AUPREC
 70
2
  9
$MENU
  1
.
  9
$ELEVATION
 40
0.0
  9
$PELEVATION
 40
0.0
  9
$THICKNESS
 40
0.0
  9
$LIMCHECK
 70
0
  9
$CHAMFERA
 40
0.0
  9
$CHAMFERB
 40
0.0
  9
$CHAMFERC
 40
0.0
  9
$CHAMFERD
 40
0.0
  9
$SKPOLY
 70
0
  9
$TDCREATE
 40
2461307.543773148
  9
$TDUCREATE
 40
2458532.153996898
  9
$TDUPDATE
 40
2461307.543773148
  9
$TDUUPDATE
 40
2458532.1544311
  9
$TDINDWG
 40
0.0
  9
$TDUSRTIMER
 40
0.0
  9
$USRTIMER
 70
1
  9
$ANGBASE
 50
0.0
  9
$ANGDIR
 70
0
  9
$PDMODE
 70
0
  9
$PDSIZE
 40
0.0
  9
$PLINEWID
 40
0.0
  9
$SPLFRAME
 70
0
  9
$SPLINETYPE
 70
6
  9
$SPLINESEGS
 70
8
  9
$HANDSEED
  5
C2
  9
$SURFTAB1
 70
6
  9
$SURFTAB2
 70
6
  9
$SURFTYPE
 70
6
  9
$SURFU
 70
6
  9
$SURFV
 70
6
  9
$UCSBASE
  2

  9
$UCSNAME
  2

  9
$UCSORG
 10
0.0
 20
0.0
 30
0.0
  9
$UCSXDIR
 10
1.0
 20
0.0
 30
0.0
  9
$UCSYDIR
 10
0.0
 20
1.0
 30
0.0
  9
$UCSORTHOREF
  2

  9
$UCSORTHOVIEW
 70
0
  9
$UCSORGTOP
 10
0.0
 20
0.0
 30
0.0
  9
$UCSORGBOTTOM
 10
0.0
 20
0.0
 30
0.0
  9
$UCSORGLEFT
 10
0.0
 20
0.0
 30
0.0
  9
$UCSORGRIGHT
 10
0.0
 20
0.0
 30
0.0
  9
$UCSORGFRONT
 10
0.0
 20
0.0
 30
0.0
  9
$UCSORGBACK
 10
0.0
 20
0.0
 30
0.0
  9
$PUCSBASE
  2

  9
$PUCSNAME
  2

  9
$PUCSORG
 10
0.0
 20
0.0
 30
0.0
  9
$PUCSXDIR
 10
1.0
 20
0.0
 30
0.0
  9
$PUCSYDIR
 10
0.0
 20
1.0
 30
0.0
  9
$PUCSORTHOREF
  2

  9
$PUCSORTHOVIEW
 70
0
  9
$PUCSORGTOP
 10
0.0
 20
0.0
 30
0.0
  9
$PUCSORGBOTTOM
 10
0.0
 20
0.0
 30
0.0
  9
$PUCSORGLEFT
 10
0.0
 20
0.0
 30
0.0
  9
$PUCSORGRIGHT
 10
0.0
 20
0.0
 30
0.0
  9
$PUCSORGFRONT
 10
0.0
 20
0.0
 30
0.0
  9
$PUCSORGBACK
 10
0.0
 20
0.0
 30
0.0
  9
$USERI1
 70
0
  9
$USERI2
 70
0
  9
$USERI3
 70
0
  9
$USERI4
 70
0
  9
$USERI5
 70
0
  9
$USERR1
 40
0.0
  9
$USERR2
 40
0.0
  9
$USERR3
 40
0.0
  9
$USERR4
 40
0.0
  9
$USERR5
 40
0.0
  9
$WORLDVIEW
 70
1
  9
$SHADEDGE
 70
3
  9
$SHADEDIF
 70
70
  9
$TILEMODE
 70
1
  9
$MAXACTVP
 70
64
  9
$PINSBASE
 10
0.0
 20
0.0
 30
0.0
  9
$PLIMCHECK
 70
0
  9
$PEXTMIN
 10
1e+20
 20
1e+20
 30
1e+20
  9
$PEXTMAX
 10
-1e+20
 20
-1e+20
 30
-1e+20
  9
$PLIMMIN
 10
0.0
 20
0.0
  9
$PLIMMAX
 10
420.0
 20
297.0
  9
$UNITMODE
 70
0
  9
$VISRETAIN
 70
1
  9
$PLINEGEN
 70
0
  9
$PSLTSCALE
 70
1
  9
$TREEDEPTH
 70
3020
  9
$CMLSTYLE
  2
Standard
  9
$CMLJUST
 70
0
  9
$CMLSCALE
 40
20.0
  9
$PROXYGRAPHICS
 70
1
  9
$MEASUREMENT
 70
1
  9
$CELWEIGHT
370
-1
  9
$ENDCAPS
280
0
  9
$JOINSTYLE
280
0
  9
$LWDISPLAY
290
0
  9
$INSUNITS
 70
4
  9
$HYPERLINKBASE
  1

  9
$STYLESHEET
  1

  9
$XEDIT
290
1
  9
$CEPSNTYPE
380
0
  9
$PSTYLEMODE
290
1
  9
$FINGERPRINTGUID
  2
{8CACCD5C-C34B-4252-95C1-5B550A4D9B5B}
  9
$VERSIONGUID
  2
{4196BA3B-0B28-43A5-9E9B-D8AF076758F3}
  9
$EXTNAMES
290
1
  9
$PSVPSCALE
 40
0.0
  9
$OLESTARTUP
290
0
  9
$SORTENTS
280
127
  9
$INDEXCTL
280
0
  9
$HIDETEXT
280
1
  9
$XCLIPFRAME
280
1
  9
$HALOGAP
280
0
  9
$OBSCOLOR
 70
257
  9
$OBSLTYPE
280
0
  9
$INTERSECTIONDISPLAY
280
0
  9
$INTERSECTIONCOLOR
 70
257
  9
$DIMASSOC
280
2
  9
$PROJECTNAME
  1

  9
$CAMERADISPLAY
290
0
  9
$LENSLENGTH
 40
50.0
  9
$CAMERAHEIGHT
 40
0.0
  9
$STEPSPERSEC
 40
24.0
  9
$STEPSIZE
 40
100.0
  9
$3DDWFPREC
 40
2.0
  9
$PSOLWIDTH
 40
0.005
  9
$PSOLHEIGHT
 40
0.08
  9
$LOFTANG1
 40
1.570796326795
  9
$LOFTANG2
 40
1.570796326795
  9
$LOFTMAG1
 40
0.0
  9
$LOFTMAG2
 40
0.0
  9
$LOFTPARAM
 70
7
  9
$LOFTNORMALS
280
1
  9
$LATITUDE
 40
37.795
  9
$LONGITUDE
 40
-122.394
  9
$NORTHDIRECTION
 40
0.0
  9
$TIMEZONE
 70
-8000
  9
$LIGHTGLYPHDISPLAY
280
1
  9
$TILEMODELIGHTSYNCH
280
1
  9
$CMATERIAL
347
20
  9
$SOLIDHIST
280
0
  9
$SHOWHIST
280
1
  9
$DWFFRAME
280
2
  9
$DGNFRAME
280
2
  9
$REALWORLDSCALE
290
1
  9
$INTERFERECOLOR
 62
256
  9
$CSHADOW
280
0
  9
$SHADOWPLANELOCATION
 40
0.0
  0
ENDSEC
  0
SECTION
  2
CLASSES
  0
CLASS
  1
ACDBDICTIONARYWDFLT
  2
AcDbDictionaryWithDefault
  3
ObjectDBX Classes
 90
0
 91
0
280
0
281
0
  0
CLASS
  1
SUN
  2
AcDbSun
  3
SCENEOE
 90
1153
 91
0
280
0
281
0
  0
CLASS
  1
VISUALSTYLE
  2
AcDbVisualStyle
  3
ObjectDBX Classes
 90
4095
 91
0
280
0
281
0
  0
CLASS
  1
MATERIAL
  2
AcDbMaterial
  3
ObjectDBX Classes
 90
1153
 91
0
280
0
281
0
  0
CLASS
  1
SCALE
  2
AcDbScale
  3
ObjectDBX Classes
 90
1153
 91
0
280
0
281
0
  0
CLASS
  1
TABLESTYLE
  2
AcDbTableStyle
  3
ObjectDBX Classes
 90
4095
 91
0
280
0
281
0
  0
CLASS
  1
MLEADERSTYLE
  2
AcDbMLeaderStyle
  3
ACDB_MLEADERSTYLE_CLASS
 90
4095
 91
0
280
0
281
0
  0
CLASS
  1
DICTIONARYVAR
  2
AcDbDictionaryVar
  3
ObjectDBX Classes
 90
0
 91
0
280
0
281
0
  0
CLASS
  1
CELLSTYLEMAP
  2
AcDbCellStyleMap
  3
ObjectDBX Classes
 90
1152
 91
0
280
0
281
0
  0
CLASS
  1
MENTALRAYRENDERSETTINGS
  2
AcDbMentalRayRenderSettings
  3
SCENEOE
 90
1024
 91
0
280
0
281
0
  0
CLASS
  1
ACDBDETAILVIEWSTYLE
  2
AcDbDetailViewStyle
  3
ObjectDBX Classes
 90
1025
 91
0
280
0
281
0
  0
CLASS
  1
ACDBSECTIONVIEWSTYLE
  2
AcDbSectionViewStyle
  3
ObjectDBX Classes
 90
1025
 91
0
280
0
281
0
  0
CLASS
  1
RASTERVARIABLES
  2
AcDbRasterVariables
  3
ISM
 90
0
 91
0
280
0
281
0
  0
CLASS
  1
LAYOUT
  2
AcDbLayout
  3
ObjectDBX Classes
 90
0
 91
0
280
0
281
0
  0
CLASS
  1
ACDBPLACEHOLDER
  2
AcDbPlaceHolder
  3
ObjectDBX Classes
 90
0
 91
0
280
0
281
0
  0
ENDSEC
  0
SECTION
  2
TABLES
  0
TABLE
  2
VPORT
  5
8
330
0
100
AcDbSymbolTable
 70
1
  0
VPORT
  5
23
330
8
100
AcDbSymbolTableRecord
100
AcDbViewportTableRecord
  2
*Active
 70
0
 10
0.0
 20
0.0
 11
1.0
 21
1.0
 12
0.0
 22
0.0
 13
0.0
 23
0.0
 14
0.5
 24
0.5
 15
0.5
 25
0.5
 16
0.0
 26
0.0
 36
1.0
 17
0.0
 27
0.0
 37
0.0
 40
1000.0
 41
1.34
 42
50.0
 43
0.0
 44
0.0
 50
0.0
 51
0.0
 71
0
 72
1000
 73
1
 74
3
 75
0
 76
0
 77
0
 78
0
281
0
 65
0
146
0.0
  0
ENDTAB
  0
TABLE
  2
LTYPE
  5
2
330
0
100
AcDbSymbolTable
 70
5
  0
LTYPE
  5
24
330
2
100
AcDbSymbolTableRecord
100
AcDbLinetypeTableRecord
  2
ByBlock
 70
0
  3

 72
65
 73
0
 40
0.0
  0
LTYPE
  5
25
330
2
100
AcDbSymbolTableRecord
100
AcDbLinetypeTableRecord
  2
ByLayer
 70
0
  3

 72
65
 73
0
 40
0.0
  0
LTYPE
  5
26
330
2
100
AcDbSymbolTableRecord
100
AcDbLinetypeTableRecord
  2
Continuous
 70
0
  3

 72
65
 73
0
 40
0.0
  0
LTYPE
  5
BA
330
2
100
AcDbSymbolTableRecord
100
AcDbLinetypeTableRecord
  2
HIDDEN
 70
0
  3
Hidden __ __ __ __ __ __ __ __ __ __ __ __ __ _
 72
65
 73
2
 40
0.375
 49
0.25
 74
0
 49
-0.125
 74
0
  0
LTYPE
  5
BB
330
2
100
AcDbSymbolTableRecord
100
AcDbLinetypeTableRecord
  2
CENTER
 70
0
  3
Center ____ _ ____ _ ____ _ ____ _ ____ _ ____
 72
65
 73
4
 40
50.8
 49
31.75
 74
0
 49
-6.349999999999998
 74
0
 49
6.349999999999998
 74
0
 49
-6.349999999999998
 74
0
  0
ENDTAB
  0
TABLE
  2
LAYER
  5
1
330
0
100
AcDbSymbolTable
 70
3
  0
LAYER
  5
27
330
1
100
AcDbSymbolTableRecord
100
AcDbLayerTableRecord
  2
0
 70
0
 62
7
  6
Continuous
370
-3
390
13
347
21
  0
LAYER
  5
28
330
1
100
AcDbSymbolTableRecord
100
AcDbLayerTableRecord
  2
Defpoints
 70
0
 62
7
  6
Continuous
290
0
370
-3
390
13
347
21
  0
LAYER
  5
B9
330
1
100
AcDbSymbolTableRecord
100
AcDbLayerTableRecord
  2
hw_Text
 70
0
 62
7
  6
Continuous
370
13
390
13
347
21
348
0
  0
ENDTAB
  0
TABLE
  2
STYLE
  5
5
330
0
100
AcDbSymbolTable
 70
2
  0
STYLE
  5
29
330
5
100
AcDbSymbolTableRecord
100
AcDbTextStyleTableRecord
  2
Standard
 70
0
 40
0.0
 41
1.0
 50
0.0
 71
0
 42
2.5
  3
txt
  4

  0
STYLE
  5
BC
330
5
100
AcDbSymbolTableRecord
100
AcDbTextStyleTableRecord
  2
WD_IEC
 70
0
 40
0.0
 41
1.0
 50
0.0
 71
0
 42
5.0
  3
isocp2.shx
  4

  0
ENDTAB
  0
TABLE
  2
VIEW
  5
7
330
0
100
AcDbSymbolTable
 70
0
  0
ENDTAB
  0
TABLE
  2
UCS
  5
6
330
0
100
AcDbSymbolTable
 70
0
  0
ENDTAB
  0
TABLE
  2
APPID
  5
3
330
0
100
AcDbSymbolTable
 70
3
  0
APPID
  5
2A
330
3
100
AcDbSymbolTableRecord
100
AcDbRegAppTableRecord
  2
ACAD
 70
0
  0
APPID
  5
BF
330
3
100
AcDbSymbolTableRecord
100
AcDbRegAppTableRecord
  2
HATCHBACKGROUNDCOLOR
 70
0
  0
APPID
  5
C0
330
3
100
AcDbSymbolTableRecord
100
AcDbRegAppTableRecord
  2
EZDXF
 70
0
  0
ENDTAB
  0
TABLE
  2
DIMSTYLE
  5
4
330
0
100
AcDbSymbolTable
 70
1
100
AcDbDimStyleTable
  0
DIMSTYLE
105
2B
330
4
100
AcDbSymbolTableRecord
100
AcDbDimStyleTableRecord
  2
Standard
 70
0
 40
1.0
 41
2.5
 42
0.625
 43
3.75
 44
1.25
 45
0.0
 46
0.0
 47
0.0
 48
0.0
 49
2.5
140
2.5
141
2.5
142
0.0
143
0.03937007874
144
1.0
145
0.0
146
1.0
147
0.625
148
0.0
 69
0
 70
0
 71
0
 72
0
 73
0
 74
0
 75
0
 76
0
 77
1
 78
8
 79
3
170
0
171
3
172
1
173
0
174
0
175
0
176
0
177
0
178
0
179
2
271
2
272
2
273
2
274
3
275
0
276
0
277
2
278
44
279
0
280
0
281
0
282
0
283
0
284
8
285
0
286
0
288
0
289
3
290
0
371
-2
372
-2
  0
ENDTAB
  0
TABLE
  2
BLOCK_RECORD
  5
9
330
0
100
AcDbSymbolTable
 70
5
  0
BLOCK_RECORD
  5
17
330
9
100
AcDbSymbolTableRecord
100
AcDbBlockTableRecord
  2
*Model_Space
340
1A
 70
0
280
1
281
0
  0
BLOCK_RECORD
  5
1B
330
9
100
AcDbSymbolTableRecord
100
AcDbBlockTableRecord
  2
*Paper_Space
340
1E
 70
0
280
1
281
0
  0
BLOCK_RECORD
  5
2F
330
9
100
AcDbSymbolTableRecord
100
AcDbBlockTableRecord
  2
Metasol 1000AF ELCB
340
0
 70
0
280
1
281
0
  0
BLOCK_RECORD
  5
A7
330
9
100
AcDbSymbolTableRecord
100
AcDbBlockTableRecord
  2
*U3866
340
0
 70
0
280
1
281
0
  0
BLOCK_RECORD
  5
B3
330
9
100
AcDbSymbolTableRecord
100
AcDbBlockTableRecord
  2
*U3876
340
0
 70
0
280
1
281
0
  0
ENDTAB
  0
ENDSEC
  0
SECTION
  2
BLOCKS
  0
BLOCK
  5
18
330
17
100
AcDbEntity
  8
0
100
AcDbBlockBegin
  2
*Model_Space
 70
0
 10
0.0
 20
0.0
 30
0.0
  3
*Model_Space
  1

  0
ENDBLK
  5
19
330
17
100
AcDbEntity
  8
0
100
AcDbBlockEnd
  0
BLOCK
  5
1C
330
1B
100
AcDbEntity
  8
0
100
AcDbBlockBegin
  2
*Paper_Space
 70
0
 10
0.0
 20
0.0
 30
0.0
  3
*Paper_Space
  1

  0
ENDBLK
  5
1D
330
1B
100
AcDbEntity
  8
0
100
AcDbBlockEnd
  0
BLOCK
  5
30
330
2F
100
AcDbEntity
  8
0
100
AcDbBlockBegin
  2
Metasol 1000AF ELCB
 70
2
 10
0.0
 20
0.0
 30
0.0
  3
Metasol 1000AF ELCB
  1

  4
Drawn by Hawee Sep.2015
  0
ATTDEF
  5
32
330
2F
100
AcDbEntity
  8
Defpoints
 62
8
 60
1
100
AcDbText
 10
65.99989499999994
 20
-85.00004999999989
 30
0.0
 40
0.0001
  1
fmt
  7
WD_IEC
 72
1
 11
65.99999999999994
 21
-84.99999999999989
 31
0.0
100
AcDbAttributeDefinition
  3
Author:
  2
AUTHOR
 70
15
 74
2
280
1
 71
1
 72
0
 11
65.99999999999994
 21
-84.99999999999989
 31
0.0
  0
ATTDEF
  5
33
330
2F
100
AcDbEntity
  8
Defpoints
 62
8
 60
1
100
AcDbText
 10
65.99992301968499
 20
-85.00004999999989
 30
0.0
 40
0.0001
  1
LS
  7
WD_IEC
 72
1
 11
65.99999999999994
 21
-84.99999999999989
 31
0.0
100
AcDbAttributeDefinition
  3
Origin
  2
ORIGIN
 70
13
 74
2
280
1
 71
1
 72
0
 11
65.99999999999994
 21
-84.99999999999989
 31
0.0
  0
ATTDEF
  5
34
330
2F
100
AcDbEntity
  8
hw_Text
100
AcDbText
 10
85.85502525316934
 20
-67.01665666366667
 30
0.0
 40
8.0
  1
EBS 1003b
  7
WD_IEC
 72
1
 11
109.9999999999999
 21
-63.01665666366666
 31
0.0
100
AcDbAttributeDefinition
  3
Type
  2
TYPE
 70
12
 74
2
280
1
 71
1
 72
0
 11
109.9999999999999
 21
-63.01665666366666
 31
0.0
  0
ATTDEF
  5
35
330
2F
100
AcDbEntity
  8
Defpoints
 62
8
 60
1
100
AcDbText
 10
65.99983369980309
 20
-85.00004999999989
 30
0.0
 40
0.0001
  1
Poles
  7
WD_IEC
 72
1
 11
65.99999999999994
 21
-84.99999999999989
 31
0.0
100
AcDbAttributeDefinition
  3
Poles:
  2
POLES
 70
13
 74
2
280
1
 71
1
 72
0
 11
65.99999999999994
 21
-84.99999999999989
 31
0.0
  0
ATTDEF
  5
36
330
2F
100
AcDbEntity
  8
hw_Text
 62
1
100
AcDbText
 10
95.99999999999991
 20
-77.68332333033332
 30
0.0
 40
8.0
  1
1000A
  7
WD_IEC
 72
1
 11
109.9999999999999
 21
-73.68332333033332
 31
0.0
100
AcDbAttributeDefinition
  3
Rate
  2
RATE
 70
12
 74
2
280
1
 71
1
 72
0
 11
109.9999999999999
 21
-73.68332333033332
 31
0.0
  0
INSERT
  5
37
330
2F
100
AcDbEntity
  8
0
  6
ByBlock
 62
0
370
9
 60
1
100
AcDbBlockReference
  2
*U3866
 10
109.9999999999999
 20
25.00000000000006
 30
0.0
  0
TEXT
  5
39
330
2F
100
AcDbEntity
  8
Defpoints
  6
ByBlock
 62
8
370
9
100
AcDbText
 10
92.460130681963
 20
-82.99999999999989
 30
0.0
 40
2.0
  1
%%UELCB Series%%U: EBS1003b, EBS1203b
  7
WD_IEC
 41
0.9
 72
1
 11
109.9999999999999
 21
-81.99999999999989
 31
0.0
100
AcDbText
 73
2
  0
LINE
  5
3A
330
2F
100
AcDbEntity
  8
Defpoints
  6
ByBlock
 62
2
370
9
 60
1
100
AcDbLine
 10
63.49999999999994
 20
27.50000000000006
 30
0.0
 11
63.49999999999994
 21
27.50000000000006
 31
0.0
  0
LINE
  5
3B
330
2F
100
AcDbEntity
  8
Defpoints
  6
ByBlock
 62
2
370
9
 60
1
100
AcDbLine
 10
156.4999999999999
 20
-87.49999999999989
 30
0.0
 11
156.4999999999999
 21
-87.49999999999989
 31
0.0
  0
CIRCLE
  5
3C
330
2F
100
AcDbEntity
  8
0
  6
ByBlock
 62
112
370
9
100
AcDbCircle
 10
145.0
 20
180.0
 30
0.0
 40
5.099999999999999
  0
CIRCLE
  5
3D
330
2F
100
AcDbEntity
  8
0
  6
ByBlock
 62
112
370
9
100
AcDbCircle
 10
75.00000000000006
 20
180.0
 30
0.0
 40
5.099999999999999
  0
CIRCLE
  5
3E
330
2F
100
AcDbEntity
  8
0
  6
ByBlock
 62
112
370
9
100
AcDbCircle
 10
145.0
 20
-179.9999999999999
 30
0.0
 40
5.099999999999999
  0
CIRCLE
  5
3F
330
2F
100
AcDbEntity
  8
0
  6
ByBlock
 62
112
370
9
100
AcDbCircle
 10
75.00000000000006
 20
-179.9999999999999
 30
0.0
 40
5.099999999999999
  0
CIRCLE
  5
40
330
2F
100
AcDbEntity
  8
0
  6
ByBlock
 62
0
370
9
100
AcDbCircle
 10
75.00000000000006
 20
180.0
 30
0.0
 40
9.0
  0
CIRCLE
  5
41
330
2F
100
AcDbEntity
  8
0
  6
ByBlock
 62
0
370
9
100
AcDbCircle
 10
145.0
 20
180.0
 30
0.0
 40
9.0
  0
CIRCLE
  5
42
330
2F
100
AcDbEntity
  8
0
  6
ByBlock
 62
0
370
9
100
AcDbCircle
 10
75.00000000000006
 20
-179.9999999999999
 30
0.0
 40
9.0
  0
CIRCLE
  5
43
330
2F
100
AcDbEntity
  8
0
  6
ByBlock
 62
0
370
9
100
AcDbCircle
 10
145.0
 20
-179.9999999999999
 30
0.0
 40
9.0
  0
LWPOLYLINE
  5
44
330
2F
100
AcDbEntity
  8
0
  6
ByBlock
 62
0
370
18
100
AcDbPolyline
 90
52
 70
1
 10
213.4998080008817
 20
200.0
 10
146.4934826234893
 20
200.0
 42
0.4104007966009215
 10
146.0
 20
199.5000424780399
 10
145.9999999999985
 20
198.400000000001
 42
-5.000000000008308
 10
144.0000000000015
 20
198.400000000001
 10
144.0
 20
199.5000400120003
 42
0.41051297890272
 10
143.5063253773922
 20
200.0
 10
76.49348262348934
 20
200.0
 42
0.4104007966008884
 10
76.00000000000006
 20
199.5000424780399
 10
75.99999999999847
 20
198.400000000001
 42
-5.000000000008395
 10
74.00000000000165
 20
198.400000000001
 10
74.00000000000006
 20
199.5000400120003
 42
0.41051297890272
 10
73.50632537739222
 20
200.0
 10
6.499999999999829
 20
200.0
 42
0.4142135623730951
 10
5.999999999999829
 20
199.5
 10
5.999999999999829
 20
198.4000000000026
 42
-5.000000000008065
 10
4.000000000001307
 20
198.4000000000033
 10
4.000000000000738
 20
199.5000000000003
 42
0.4142135623729619
 10
3.500000000000738
 20
200.0
 10
-5.68e-14
 20
200.0
 10
5.68e-14
 20
-199.9999999999999
 10
3.506325377389941
 20
-199.9999999999999
 42
0.4105129789040485
 10
4.000000000000056
 20
-199.500040012
 10
4.000000000001648
 20
-198.4000000000008
 42
-5.000000000008365
 10
5.999999999998465
 20
-198.4000000000008
 10
6.000000000000056
 20
-199.500040012
 42
0.4104022373011198
 10
6.493482623489228
 20
-199.9999999999999
 10
73.50632537738994
 20
-199.9999999999999
 42
0.4105129789040485
 10
74.00000000000006
 20
-199.500040012
 10
74.00000000000165
 20
-198.4000000000008
 42
-5.000000000008342
 10
75.99999999999847
 20
-198.4000000000008
 10
76.00000000000006
 20
-199.500040012
 42
0.4104022373011188
 10
76.49348262348934
 20
-199.9999999999999
 10
143.5063253773899
 20
-199.9999999999999
 42
0.4105129789040485
 10
144.0
 20
-199.500040012
 10
144.0000000000015
 20
-198.4000000000008
 42
-5.000000000008308
 10
145.9999999999985
 20
-198.4000000000008
 10
146.0
 20
-199.500040012
 42
0.4104022373011188
 10
146.4934826234893
 20
-199.9999999999999
 10
213.5065173765107
 20
-199.9999999999999
 42
0.4104022373011157
 10
214.0000000000001
 20
-199.500040012
 10
214.0000000000017
 20
-198.4000000000008
 42
-5.000000000008377
 10
215.9999999999985
 20
-198.4000000000008
 10
216.0000000000001
 20
-199.500040012
 42
0.4105129789040485
 10
216.4936746226071
 20
-199.9999999999999
 10
220.0000000000001
 20
-199.9999999999999
 10
220.0000000000001
 20
200.0
 10
216.4998080008808
 20
200.0
 42
0.4142135623729619
 10
215.9998080008808
 20
199.5000000000003
 10
215.9998080008803
 20
198.4000000000033
 42
-5.000000000008065
 10
213.9998080008817
 20
198.4000000000026
 10
213.9998080008817
 20
199.5
 42
0.4142135623730951
  0
LWPOLYLINE
  5
45
330
2F
100
AcDbEntity
  8
0
  6
ByBlock
 62
0
370
9
100
AcDbPolyline
 90
4
 70
1
 10
-5.68e-14
 20
-84.99999999999989
 10
219.9999999999999
 20
-84.99999999999989
 10
219.9999999999999
 20
25.00000000000006
 10
-5.68e-14
 20
25.00000000000006
  0
LWPOLYLINE
  5
46
330
2F
100
AcDbEntity
  8
0
  6
ByBlock
 62
0
370
18
100
AcDbPolyline
 90
4
 70
1
 10
65.99999999999994
 20
-84.99999999999989
 10
153.9999999999999
 20
-84.99999999999989
 10
153.9999999999999
 20
25.00000000000006
 10
65.99999999999994
 20
25.00000000000006
  0
HATCH
  5
47
330
2F
100
AcDbEntity
  8
0
  6
ByBlock
 62
10
370
9
100
AcDbHatch
 10
0.0
 20
0.0
 30
0.0
210
0.0
220
0.0
230
1.0
  2
SOLID
 70
1
 71
0
 91
1
 92
7
 72
0
 73
1
 93
4
 10
87.49999999999994
 20
-43.56943926500043
 10
87.49999999999994
 20
-53.6999799940001
 10
132.4999999999999
 20
-53.6999799940001
 10
132.4999999999999
 20
-43.56943926500043
 97
2
330
22BC21
330
22BC1E
 75
0
 76
1
 47
0.1409765931562687
 98
1
 10
107.2417823505658
 20
-48.08971978608281
450
0
451
0
460
0.0
461
0.0
452
1
462
1.0
453
2
463
0
 63
5
421
255
463
1
 63
7
421
16777215
470
LINEAR
  0
LWPOLYLINE
  5
48
330
2F
100
AcDbEntity
  8
0
  6
ByBlock
 62
0
370
9
100
AcDbPolyline
 90
4
 70
1
 10
87.49999999999994
 20
-53.6999799940001
 10
132.4999999999999
 20
-53.6999799940001
 10
132.4999999999999
 20
1.00002000600017
 10
87.49999999999994
 20
1.00002000600017
  0
HATCH
  5
49
330
2F
100
AcDbEntity
  8
0
  6
ByBlock
 62
254
370
9
100
AcDbHatch
 10
0.0
 20
0.0
 30
0.0
210
0.0
220
0.0
230
1.0
  2
SOLID
 70
1
 71
0
 91
2
 92
7
 72
1
 73
1
 93
8
 10
91.43487337683491
 20
-25.10011450399742
 42
0.4090280877246372
 10
89.49999999999903
 20
-27.06495197748026
 42
0.0
 10
89.49999999999903
 20
-38.53496580450929
 42
0.4090280877258751
 10
91.43487337683493
 20
-40.49980327800057
 42
0.0
 10
128.5651266231649
 20
-40.49980327800057
 42
0.4090280877258509
 10
130.5000000000008
 20
-38.53496580450946
 42
0.0
 10
130.5000000000008
 20
-27.06495197748031
 42
0.4090280877246462
 10
128.5651266231649
 20
-25.10011450399742
 42
0.0
 97
1
330
22BC22
 92
22
 72
0
 73
1
 93
4
 10
119.2499999999999
 20
-36.2999799939991
 10
100.749999999999
 20
-36.2999799939991
 10
100.749999999999
 20
-29.2999799939991
 10
119.2499999999999
 20
-29.2999799939991
 97
1
330
22BC20
 75
0
 76
1
 47
0.0936442410821651
 98
2
 10
122.1232816746827
 20
-30.77694903690798
 10
122.1232816746827
 20
-30.77694903690798
450
0
451
0
460
0.0
461
0.0
452
1
462
1.0
453
2
463
0
 63
5
421
255
463
1
 63
7
421
16777215
470
LINEAR
  0
LWPOLYLINE
  5
4A
330
2F
100
AcDbEntity
  8
0
  6
ByBlock
 62
0
370
9
100
AcDbPolyline
 90
4
 70
1
 10
119.2499999999999
 20
-36.2999799939991
 10
119.2499999999999
 20
-29.2999799939991
 10
100.749999999999
 20
-29.2999799939991
 10
100.749999999999
 20
-36.2999799939991
  0
LWPOLYLINE
  5
4B
330
2F
100
AcDbEntity
  8
0
  6
ByBlock
 62
0
370
9
100
AcDbPolyline
 90
4
 70
1
 10
87.49999999999994
 20
-22.04065523249864
 10
132.4999999999999
 20
-22.04065523249864
 10
132.4999999999999
 20
-43.56943926500043
 10
87.49999999999994
 20
-43.56943926500043
  0
LWPOLYLINE
  5
4C
330
2F
100
AcDbEntity
  8
0
  6
ByBlock
 62
0
370
9
100
AcDbPolyline
 90
8
 70
1
 10
128.4999999999999
 20
-25.10011450399742
 42
-0.4194181204924644
 10
130.5000000000008
 20
-27.0696141729988
 10
130.5000000000008
 20
-38.53030360899919
 42
-0.4194181204924502
 10
128.4999999999999
 20
-40.49980327800057
 10
91.49999999999994
 20
-40.49980327800057
 42
-0.4194181204924502
 10
89.49999999999903
 20
-38.53030360899919
 10
89.49999999999903
 20
-27.0696141729988
 42
-0.4194181204924644
 10
91.49999999999994
 20
-25.10011450399742
  0
CIRCLE
  5
4D
330
2F
100
AcDbEntity
  8
0
  6
ByBlock
 62
0
370
9
100
AcDbCircle
 10
144.9999562194395
 20
-98.49999999999994
 30
0.0
 40
10.0
  0
HATCH
  5
4E
330
2F
100
AcDbEntity
  8
0
  6
ByBlock
 62
10
370
9
100
AcDbHatch
 10
0.0
 20
0.0
 30
0.0
210
0.0
220
0.0
230
1.0
  2
SOLID
 70
1
 71
0
 91
2
 92
7
 72
1
 73
1
 93
2
 10
136.9999562194395
 20
-98.49999999999994
 42
1.0
 10
152.9999562194395
 20
-98.49999999999994
 42
1.0
 97
1
330
22BC25
 92
22
 72
0
 73
1
 93
8
 10
149.0420514027054
 20
-93.49879511738777
 10
149.0420514027054
 20
-94.84499765469641
 10
146.3845220414901
 20
-94.84499765469641
 10
146.3845220414901
 20
-103.4592988649351
 10
143.6153903973889
 20
-103.4592988649351
 10
143.6153903973889
 20
-94.84499765469641
 10
140.9718113215343
 20
-94.84499765469641
 10
140.9718113215343
 20
-93.49879511738777
 97
1
330
22BC55
 75
0
 76
1
 47
0.0336508877051416
 98
2
 10
146.7259908828528
 20
-92.49854125987241
 10
146.7259908828528
 20
-92.49854125987241
450
0
451
0
460
0.0
461
0.0
452
1
462
1.0
453
2
463
0
 63
5
421
255
463
1
 63
7
421
16777215
470
LINEAR
  0
CIRCLE
  5
4F
330
2F
100
AcDbEntity
  8
0
  6
ByBlock
 62
0
370
9
100
AcDbCircle
 10
144.9999562194395
 20
-98.49999999999994
 30
0.0
 40
8.0
  0
CIRCLE
  5
50
330
2F
100
AcDbEntity
  8
0
  6
ByBlock
 62
0
370
9
100
AcDbCircle
 10
59.99995621943952
 20
-120.4999999999999
 30
0.0
 40
10.0
  0
HATCH
  5
51
330
2F
100
AcDbEntity
  8
0
  6
ByBlock
 62
9
370
9
100
AcDbHatch
 10
0.0
 20
0.0
 30
0.0
210
0.0
220
0.0
230
1.0
  2
SOLID
 70
1
 71
0
 91
1
 92
7
 72
1
 73
1
 93
2
 10
51.99995621943952
 20
-120.4999999999999
 42
1.0
 10
67.99995621943953
 20
-120.4999999999999
 42
1.0
 97
1
330
22BC28
 75
0
 76
1
 47
0.2306950067313298
 98
1
 10
59.24289623169176
 20
-119.8755147896356
450
0
451
0
460
0.0
461
0.0
452
1
462
1.0
453
2
463
0
 63
5
421
255
463
1
 63
7
421
16777215
470
LINEAR
  0
CIRCLE
  5
52
330
2F
100
AcDbEntity
  8
0
  6
ByBlock
 62
0
370
9
100
AcDbCircle
 10
59.99995621943952
 20
-120.4999999999999
 30
0.0
 40
8.0
  0
CIRCLE
  5
53
330
2F
100
AcDbEntity
  8
0
  6
ByBlock
 62
0
370
9
100
AcDbCircle
 10
159.9999562194394
 20
-120.4999999999999
 30
0.0
 40
10.0
  0
HATCH
  5
54
330
2F
100
AcDbEntity
  8
0
  6
ByBlock
 62
9
370
9
100
AcDbHatch
 10
0.0
 20
0.0
 30
0.0
210
0.0
220
0.0
230
1.0
  2
SOLID
 70
1
 71
0
 91
1
 92
7
 72
1
 73
1
 93
2
 10
167.9999562194394
 20
-120.4999999999999
 42
1.0
 10
151.9999562194394
 20
-120.4999999999999
 42
1.0
 97
1
330
22BC2B
 75
0
 76
1
 47
0.2306950067313298
 98
1
 10
160.3465382083902
 20
-121.0289907939454
450
0
451
0
460
0.0
461
0.0
452
1
462
1.0
453
2
463
0
 63
5
421
255
463
1
 63
7
421
16777215
470
LINEAR
  0
CIRCLE
  5
55
330
2F
100
AcDbEntity
  8
0
  6
ByBlock
 62
0
370
9
100
AcDbCircle
 10
159.9999562194394
 20
-120.4999999999999
 30
0.0
 40
8.0
  0
CIRCLE
  5
56
330
2F
100
AcDbEntity
  8
0
  6
ByBlock
 62
0
370
9
100
AcDbCircle
 10
129.9999562194395
 20
-120.4999999999999
 30
0.0
 40
10.0
  0
HATCH
  5
57
330
2F
100
AcDbEntity
  8
0
  6
ByBlock
 62
9
370
9
100
AcDbHatch
 10
0.0
 20
0.0
 30
0.0
210
0.0
220
0.0
230
1.0
  2
SOLID
 70
1
 71
0
 91
1
 92
7
 72
1
 73
1
 93
2
 10
137.9999562194395
 20
-120.4999999999999
 42
1.0
 10
121.9999562194395
 20
-120.4999999999999
 42
1.0
 97
1
330
22BC2E
 75
0
 76
1
 47
0.2306950067313298
 98
1
 10
129.1844568277857
 20
-122.1824667982552
450
0
451
0
460
0.0
461
0.0
452
1
462
1.0
453
2
463
0
 63
5
421
255
463
1
 63
7
421
16777215
470
LINEAR
  0
CIRCLE
  5
58
330
2F
100
AcDbEntity
  8
0
  6
ByBlock
 62
0
370
9
100
AcDbCircle
 10
129.9999562194395
 20
-120.4999999999999
 30
0.0
 40
8.0
  0
HATCH
  5
59
330
2F
100
AcDbEntity
  8
0
  6
ByBlock
 62
10
370
9
 60
1
100
AcDbHatch
 10
0.0
 20
0.0
 30
0.0
210
0.0
220
0.0
230
1.0
  2
SOLID
 70
1
 71
0
 91
3
 92
7
 72
0
 73
1
 93
4
 10
31.5
 20
290.0
 10
31.5
 20
277.0000200060001
 10
48.50000000000001
 20
277.0000200060001
 10
48.5
 20
290.0
 97
2
330
22BC30
330
22BC44
 92
7
 72
0
 73
1
 93
4
 10
48.5
 20
263.0000200060001
 10
31.5
 20
263.0000200060001
 10
31.5
 20
237.0000200060002
 10
48.50000000000001
 20
237.0000200060002
 97
3
330
22BC44
330
22BC30
330
22BC45
 92
7
 72
0
 73
1
 93
4
 10
31.5
 20
200.0
 10
48.50000000000001
 20
200.0
 10
48.5
 20
223.0000200060001
 10
31.5
 20
223.0000200060001
 97
3
330
22BC45
330
22BC30
330
22BC31
 75
0
 76
1
 47
0.4299193285173365
 98
3
 10
42.06185870024319
 20
285.2746906758942
 10
42.92219782436177
 20
250.8811429668357
 10
39.48083394490345
 20
212.1884013129536
450
0
451
0
460
0.0
461
0.0
452
1
462
1.0
453
2
463
0
 63
5
421
255
463
1
 63
7
421
16777215
470
LINEAR
  0
LWPOLYLINE
  5
5A
330
2F
100
AcDbEntity
  8
0
  6
ByBlock
 62
0
370
9
 60
1
100
AcDbPolyline
 90
4
 70
0
 10
48.5
 20
200.0
 10
48.5
 20
290.0
 10
31.5
 20
290.0
 10
31.5
 20
200.0
  0
LWPOLYLINE
  5
5B
330
2F
100
AcDbEntity
  8
0
  6
ByBlock
 62
0
370
18
 60
1
100
AcDbPolyline
 90
6
 70
0
 10
102.5000000000004
 20
24.45566820140945
 10
102.5
 20
200.0
 10
0.0
 20
200.0000000000001
 10
0.0
 20
-365.0000000000001
 10
102.5
 20
-365.0000000000001
 10
102.5000000000004
 20
-84.45569121805786
  0
LWPOLYLINE
  5
5C
330
2F
100
AcDbEntity
  8
0
  6
ByBlock
 62
0
370
18
 60
1
100
AcDbPolyline
 90
6
 70
0
 10
122.5
 20
-25.19062538310939
 10
156.6975299200003
 20
-26.00355790410961
 42
-0.4072693206768651
 10
158.6499999999996
 20
-28.00299305102115
 10
158.6499999999996
 20
-37.5969497201086
 42
-0.4072693206768573
 10
156.6975299198027
 20
-39.59638486711284
 10
122.5
 20
-40.40931738810925
  0
LWPOLYLINE
  5
5D
330
2F
100
AcDbEntity
  8
0
  6
ByBlock
 62
0
370
18
 60
1
100
AcDbPolyline
 90
6
 70
0
 10
102.5000000000008
 20
-84.4556912180582
 10
120.7437386868109
 20
-82.21564177416992
 42
0.3788661086953036
 10
122.5000000000004
 20
-80.23054947088733
 10
122.4999999999991
 20
20.23052529943865
 42
0.3788660908679942
 10
120.7437388105966
 20
22.21561758752213
 10
102.5000000000004
 20
24.45566820140957
  0
LINE
  5
5E
330
2F
100
AcDbEntity
  8
0
  6
ByBlock
 62
0
370
18
 48
5.0
 60
1
100
AcDbLine
 10
163.6499999999996
 20
-20.29997138560887
 30
0.0
 11
139.6499999999996
 21
-20.29997138560887
 31
0.0
  0
LINE
  5
5F
330
2F
100
AcDbEntity
  8
0
  6
ByBlock
 62
0
370
18
 48
5.0
 60
1
100
AcDbLine
 10
163.6499999999996
 20
-45.29997138560887
 30
0.0
 11
139.6499999999996
 21
-45.29997138560887
 31
0.0
  0
LINE
  5
60
330
2F
100
AcDbEntity
  8
0
  6
ByBlock
 62
0
370
18
 48
5.0
 60
1
100
AcDbLine
 10
134.6499999999996
 20
-40.79997138560886
 30
0.0
 11
134.6499999999996
 21
-24.79997138560887
 31
0.0
  0
LINE
  5
61
330
2F
100
AcDbEntity
  8
0
  6
ByBlock
 62
0
370
18
 48
5.0
 60
1
100
AcDbLine
 10
139.6499999999996
 20
-45.29997138560887
 30
0.0
 11
135.6499999999996
 21
-40.79997138560886
 31
0.0
  0
LINE
  5
62
330
2F
100
AcDbEntity
  8
0
  6
ByBlock
 62
0
370
18
 48
5.0
 60
1
100
AcDbLine
 10
138.1499999999996
 20
-40.79997138560886
 30
0.0
 11
134.6499999999996
 21
-40.79997138560886
 31
0.0
  0
LINE
  5
63
330
2F
100
AcDbEntity
  8
0
  6
ByBlock
 62
0
370
18
 48
5.0
 60
1
100
AcDbLine
 10
142.1499999999996
 20
-45.29997138560887
 30
0.0
 11
138.1499999999996
 21
-40.79997138560886
 31
0.0
  0
LINE
  5
64
330
2F
100
AcDbEntity
  8
0
  6
ByBlock
 62
0
370
18
 48
5.0
 60
1
100
AcDbLine
 10
139.6499999999996
 20
-20.29997138560887
 30
0.0
 11
135.6499999999996
 21
-24.79997138560887
 31
0.0
  0
LINE
  5
65
330
2F
100
AcDbEntity
  8
0
  6
ByBlock
 62
0
370
18
 48
5.0
 60
1
100
AcDbLine
 10
138.1499999999996
 20
-24.79997138560842
 30
0.0
 11
134.6499999999996
 21
-24.79997138560887
 31
0.0
  0
LINE
  5
66
330
2F
100
AcDbEntity
  8
0
  6
ByBlock
 62
0
370
18
 48
5.0
 60
1
100
AcDbLine
 10
138.1499999999996
 20
-24.79997138560842
 30
0.0
 11
142.1499999999996
 21
-20.29997138560887
 31
0.0
  0
LINE
  5
67
330
2F
100
AcDbEntity
  8
0
  6
ByBlock
 62
0
370
18
 48
5.0
 60
1
100
AcDbLine
 10
204.1407214368783
 20
-23.55037333581689
 30
0.0
 11
163.6499999999996
 21
-20.29997138560887
 31
0.0
  0
LINE
  5
68
330
2F
100
AcDbEntity
  8
0
  6
ByBlock
 62
0
370
18
 48
5.0
 60
1
100
AcDbLine
 10
204.1407214368783
 20
-42.0495694354004
 30
0.0
 11
163.6499999999996
 21
-45.29997138560887
 31
0.0
  0
LINE
  5
69
330
2F
100
AcDbEntity
  8
0
  6
ByBlock
 62
0
370
18
 48
5.0
 60
1
100
AcDbLine
 10
163.6499999999996
 20
-45.29997138560887
 30
0.0
 11
163.6499999999996
 21
-20.29997138560887
 31
0.0
  0
CIRCLE
  5
6A
330
2F
100
AcDbEntity
  8
0
  6
ByBlock
 62
0
370
18
 48
5.0
 60
1
100
AcDbCircle
 10
214.6499999999996
 20
-32.79997138560887
 30
0.0
 40
14.0
  0
CIRCLE
  5
6B
330
2F
100
AcDbEntity
  8
0
  6
ByBlock
 62
0
370
18
 48
5.0
 60
1
100
AcDbCircle
 10
214.6499999999996
 20
-32.79997138560887
 30
0.0
 40
10.0
  0
LINE
  5
6C
330
2F
100
AcDbEntity
  8
0
  6
CENTER
 62
4
370
9
 48
0.25
 60
1
100
AcDbLine
 10
31.5
 20
230.0000200060001
 30
0.0
 11
48.5
 21
230.0000200060001
 31
0.0
  0
LINE
  5
6D
330
2F
100
AcDbEntity
  8
0
  6
CENTER
 62
4
370
9
 48
0.25
 60
1
100
AcDbLine
 10
31.5
 20
270.0000200060001
 30
0.0
 11
48.5
 21
270.0000200060001
 31
0.0
  0
LWPOLYLINE
  5
6E
330
2F
100
AcDbEntity
  8
0
  6
ByBlock
 62
0
370
9
 60
1
100
AcDbPolyline
 90
4
 70
1
 10
31.5
 20
277.0000200060001
 10
48.5
 20
277.0000200060001
 10
48.5
 20
263.0000200060001
 10
31.5
 20
263.0000200060001
  0
LWPOLYLINE
  5
6F
330
2F
100
AcDbEntity
  8
0
  6
ByBlock
 62
0
370
9
 60
1
100
AcDbPolyline
 90
4
 70
1
 10
31.5
 20
237.0000200060002
 10
48.5
 20
237.0000200060002
 10
48.5
 20
223.0000200060001
 10
31.5
 20
223.0000200060001
  0
HATCH
  5
70
330
2F
100
AcDbEntity
  8
0
  6
ByBlock
 62
10
370
9
 60
1
100
AcDbHatch
 10
0.0
 20
0.0
 30
0.0
210
0.0
220
0.0
230
1.0
  2
SOLID
 70
1
 71
0
 91
3
 92
7
 72
0
 73
1
 93
4
 10
48.5
 20
-454.9999999999998
 10
31.5
 20
-454.9999999999998
 10
31.5
 20
-442.000020006
 10
48.5
 20
-442.000020006
 97
0
 92
7
 72
0
 73
1
 93
4
 10
48.5
 20
-428.0000200059999
 10
31.5
 20
-428.0000200059999
 10
31.5
 20
-402.0000200060001
 10
48.5
 20
-402.0000200060001
 97
0
 92
7
 72
0
 73
1
 93
4
 10
48.5
 20
-388.000020006
 10
31.5
 20
-388.000020006
 10
31.5
 20
-365.0000000000001
 10
48.5
 20
-364.9999999999999
 97
0
 75
0
 76
1
 47
0.4299193285173365
 98
3
 10
42.06185870024319
 20
-450.2746906758941
 10
42.92219782436177
 20
-415.8811429668356
 10
39.48083394490345
 20
-377.1884013129536
450
0
451
0
460
0.0
461
0.0
452
1
462
1.0
453
2
463
0
 63
5
421
255
463
1
 63
7
421
16777215
470
LINEAR
  0
LWPOLYLINE
  5
71
330
2F
100
AcDbEntity
  8
0
  6
ByBlock
 62
0
370
9
 60
1
100
AcDbPolyline
 90
4
 70
0
 10
48.5
 20
-364.9999999999999
 10
48.5
 20
-454.9999999999998
 10
31.5
 20
-454.9999999999998
 10
31.5
 20
-364.9999999999999
  0
LINE
  5
72
330
2F
100
AcDbEntity
  8
0
  6
CENTER
 62
4
370
9
 48
0.25
 60
1
100
AcDbLine
 10
31.5
 20
-395.0000200060001
 30
0.0
 11
48.5
 21
-395.0000200060001
 31
0.0
  0
LINE
  5
73
330
2F
100
AcDbEntity
  8
0
  6
CENTER
 62
4
370
9
 48
0.25
 60
1
100
AcDbLine
 10
31.5
 20
-435.000020006
 30
0.0
 11
48.5
 21
-435.000020006
 31
0.0
  0
LWPOLYLINE
  5
74
330
2F
100
AcDbEntity
  8
0
  6
ByBlock
 62
0
370
9
 60
1
100
AcDbPolyline
 90
4
 70
1
 10
31.5
 20
-442.000020006
 10
48.5
 20
-442.000020006
 10
48.5
 20
-428.0000200059999
 10
31.5
 20
-428.0000200059999
  0
LWPOLYLINE
  5
75
330
2F
100
AcDbEntity
  8
0
  6
ByBlock
 62
0
370
9
 60
1
100
AcDbPolyline
 90
4
 70
1
 10
31.5
 20
-402.0000200060001
 10
48.5
 20
-402.0000200060001
 10
48.5
 20
-388.000020006
 10
31.5
 20
-388.000020006
  0
LINE
  5
76
330
2F
100
AcDbEntity
  8
0
  6
ByBlock
 62
112
370
9
 60
1
100
AcDbLine
 10
105.0
 20
24.14870664090617
 30
0.0
 11
105.0
 21
-84.14872981580092
 31
0.0
  0
LWPOLYLINE
  5
77
330
2F
100
AcDbEntity
  8
0
  6
ByBlock
 62
150
370
9
100
AcDbPolyline
 90
4
 70
1
 10
50.00000000000017
 20
-65.99997999399983
 10
62.00000000000017
 20
-65.99997999399983
 10
62.00000000000017
 20
-43.99997999399983
 10
50.00000000000017
 20
-43.99997999399983
  0
LWPOLYLINE
  5
78
330
2F
100
AcDbEntity
  8
0
  6
ByBlock
 62
0
370
9
100
AcDbPolyline
 90
102
 70
1
 10
56.90932163154974
 20
-51.06148677201566
 10
57.06315818515958
 20
-51.08684444568763
 10
57.21361371561323
 20
-51.11896416567208
 10
57.35899771133126
 20
-51.15615542039069
 10
57.49931017231649
 20
-51.19841820984408
 10
57.63624161014451
 20
-51.24406202245342
 10
57.76810151323963
 20
-51.29477736979771
 10
57.89658039317709
 20
-51.3522547634538
 10
58.01998773838096
 20
-51.41311318026675
 10
58.14001406042763
 20
-51.47904313181351
 10
58.25327833616239
 20
-51.5483541065168
 10
58.31920828770961
 20
-51.59230740754839
 10
58.44092512133483
 20
-51.68190452118921
 10
58.55418939706959
 20
-51.77657316956436
 10
58.65900111491379
 20
-51.87631335267411
 10
58.75536027486686
 20
-51.98281558209612
 10
58.8432668769297
 20
-52.09269883467448
 10
58.92272092110187
 20
-52.20934413356582
 10
58.9954129189611
 20
-52.33106096719047
 10
59.05796184735226
 20
-52.45784933555075
 10
59.11205821785216
 20
-52.58970923864456
 10
59.15770203046173
 20
-52.72664067647309
 10
59.19658379675849
 20
-52.87033416061314
 10
59.22532249358681
 20
-53.01740866791153
 10
59.24729914410244
 20
-53.17124522152011
 10
59.25913272514941
 20
-53.33015330986296
 10
59.26420425988379
 20
-53.49413293294202
 10
59.25913272514953
 20
-53.66149357917919
 10
59.24222760936828
 20
-53.82209217909935
 10
59.21686993569602
 20
-53.97592873271122
 10
59.17967868097668
 20
-54.12300324000978
 10
59.13403486836756
 20
-54.26331570099313
 10
59.07655747471068
 20
-54.39686611566651
 10
59.00893701158548
 20
-54.52365448402559
 10
58.93117347899277
 20
-54.64199029449298
 10
58.8432668769297
 20
-54.75525457022815
 10
58.74352669382023
 20
-54.86006628807212
 10
58.66576316122581
 20
-54.93275828593192
 10
58.56433246653825
 20
-55.01559335325999
 10
58.4510681908037
 20
-55.09504739743227
 10
58.33104186875681
 20
-55.16942990686977
 10
58.2008724772391
 20
-55.23874088157396
 10
58.06225052783446
 20
-55.30467083311998
 10
57.91517602053381
 20
-55.36552924993396
 10
57.75795844376995
 20
-55.42300664358947
 10
57.59228830911587
 20
-55.47541250251072
 10
57.41816561656668
 20
-55.52274682669889
 10
59.35549188510282
 20
-58.9680094229264
 10
56.83832014526825
 20
-58.9680094229264
 10
54.92466103882595
 20
-54.91247214699422
 10
55.05483043034184
 20
-54.92092470488484
 10
55.2103574955251
 20
-54.92261521646293
 10
55.49436344066004
 20
-54.92261521646293
 10
55.6059372048108
 20
-54.9209247048849
 10
55.7631547815792
 20
-54.91078163541596
 10
55.91361031203149
 20
-54.89049549647853
 10
56.05561328459277
 20
-54.86006628807257
 10
56.0809709582665
 20
-54.85499475333779
 10
56.23311700029859
 20
-54.81104145230625
 10
56.37004843812639
 20
-54.74849252391567
 10
56.49345578332958
 20
-54.66734796816564
 10
56.54755215382937
 20
-54.62339466713473
 10
56.66419745272088
 20
-54.51520192613378
 10
56.76393763583002
 20
-54.40024713882173
 10
56.84677270315905
 20
-54.2768397936174
 10
56.91101214312737
 20
-54.14667040210265
 10
56.93806032837762
 20
-54.07566891582121
 10
56.98032311783123
 20
-53.9370469664139
 10
57.00906181465933
 20
-53.78828194753845
 10
57.02765744201866
 20
-53.63106437077283
 10
57.03272897675316
 20
-53.46539423611744
 10
57.03272897675316
 20
-53.34367740249007
 10
57.02258590728439
 20
-53.22027005728654
 10
56.99553772203427
 20
-53.05290941105187
 10
56.95834646731538
 20
-52.897382345864
 10
56.90594060839322
 20
-52.75537937330085
 10
56.84339168000275
 20
-52.62520998178541
 10
56.76731865898688
 20
-52.50856468289436
 10
56.67941205692414
 20
-52.40375296505039
 10
56.57967187381444
 20
-52.31077482825327
 10
56.46809810965788
 20
-52.2313207840811
 10
56.34469076445481
 20
-52.16370032095608
 10
56.20775932662701
 20
-52.10960395045612
 10
56.17563960664148
 20
-52.09777036940892
 10
56.08435198142257
 20
-52.07579371889318
 10
55.97784975200062
 20
-52.05381706837755
 10
55.85444240679686
 20
-52.0369119525962
 10
55.71412994581232
 20
-52.0216973483931
 10
55.55860288062359
 20
-52.00817325576799
 10
55.38617069965636
 20
-51.99972069787747
 10
55.19683340290732
 20
-51.99295865156495
 10
54.99228150195159
 20
-51.98788711683062
 10
54.77082448521622
 20
-51.98619660525236
 10
54.77082448521622
 20
-58.9680094229264
 10
52.59175506100752
 20
-58.9680094229264
 10
52.59175506100752
 20
-50.9989378436249
 10
56.06575635406324
 20
-50.9989378436249
 10
56.07082788879944
 20
-50.9989378436249
 10
56.24664109292297
 20
-51.00231886678114
 10
56.41907327389304
 20
-51.00908091309372
 10
56.5864339201276
 20
-51.02091449414064
 10
56.75041354320564
 20
-51.03951012149997
  0
LWPOLYLINE
  5
79
330
2F
100
AcDbEntity
  8
0
  6
HIDDEN
 62
8
370
9
 60
1
100
AcDbPolyline
 90
4
 70
0
 10
0.0
 20
184.4999799939998
 10
21.40000000000009
 20
184.4999799939998
 10
21.40000000000009
 20
175.4999799939998
 10
0.0
 20
175.4999799939998
  0
LINE
  5
7A
330
2F
100
AcDbEntity
  8
0
  6
CENTER
 62
4
370
9
 60
1
100
AcDbLine
 10
0.0
 20
179.9999799939998
 30
0.0
 11
102.5000000000001
 21
179.9999799940001
 31
0.0
  0
LWPOLYLINE
  5
7B
330
2F
100
AcDbEntity
  8
0
  6
HIDDEN
 62
8
370
9
 60
1
100
AcDbPolyline
 90
4
 70
0
 10
102.5000000000002
 20
170.9999799940001
 10
21.40000000000009
 20
170.9999799939998
 10
21.40000000000009
 20
188.9999799939998
 10
102.5
 20
188.9999799940001
  0
LWPOLYLINE
  5
7C
330
2F
100
AcDbEntity
  8
0
  6
HIDDEN
 62
8
370
9
 60
1
100
AcDbPolyline
 90
4
 70
0
 10
0.0
 20
-349.4999799939998
 10
21.40000000000009
 20
-349.4999799939998
 10
21.40000000000009
 20
-340.4999799939998
 10
0.0
 20
-340.4999799939998
  0
LINE
  5
7D
330
2F
100
AcDbEntity
  8
0
  6
CENTER
 62
4
370
9
 60
1
100
AcDbLine
 10
0.0
 20
-344.9999799939998
 30
0.0
 11
102.5000000000001
 21
-344.999979994
 31
0.0
  0
LWPOLYLINE
  5
7E
330
2F
100
AcDbEntity
  8
0
  6
HIDDEN
 62
8
370
9
 60
1
100
AcDbPolyline
 90
4
 70
0
 10
102.5000000000002
 20
-335.9999799940001
 10
21.40000000000009
 20
-335.9999799939998
 10
21.40000000000009
 20
-353.9999799939999
 10
102.5
 20
-353.9999799940001
  0
LWPOLYLINE
  5
7F
330
2F
100
AcDbEntity
  8
0
 62
7
370
0
100
AcDbPolyline
 90
8
 70
1
 10
149.0420514027054
 20
-93.49879511738777
 10
140.9718113215343
 20
-93.49879511738777
 10
140.9718113215343
 20
-94.84499765469641
 10
143.6153903973889
 20
-94.84499765469641
 10
143.6153903973889
 20
-103.4592988649351
 10
146.3845220414901
 20
-103.4592988649351
 10
146.3845220414901
 20
-94.84499765469641
 10
149.0420514027054
 20
-94.84499765469641
  0
INSERT
  5
80
330
2F
100
AcDbEntity
  8
0
  6
ByBlock
 62
0
370
9
100
AcDbBlockReference
  2
*U3876
 10
95.6139999999999
 20
5.500000000000056
 30
0.0
 41
2.5
 42
2.5
 43
2.5
  0
HATCH
  5
82
330
2F
100
AcDbEntity
  8
0
  6
ByBlock
 62
9
370
9
100
AcDbHatch
 10
0.0
 20
0.0
 30
0.0
210
0.0
220
0.0
230
1.0
  2
SOLID
 70
1
 71
0
 91
1
 92
7
 72
0
 73
1
 93
67
 10
54.77082448521622
 20
-51.98239644699432
 10
55.52387293025965
 20
-52.0010670695983
 10
56.17716633602391
 20
-52.07190611359662
 10
56.72060485583276
 20
-52.36968064499895
 10
57.03272897675316
 20
-53.01923624799614
 10
57.03272897675316
 20
-53.82716371383694
 10
56.78591722892403
 20
-54.47504455188439
 10
56.2161163078904
 20
-54.84970817119411
 10
55.67538905548097
 20
-54.92261521646293
 10
54.92944718081785
 20
-54.92261521646293
 10
56.83832014526825
 20
-58.9680094229264
 10
59.35549188510282
 20
-58.9680094229264
 10
57.41816561656668
 20
-55.52274682669889
 10
57.59228830911574
 20
-55.47541250251075
 10
57.75795844376993
 20
-55.42300664358947
 10
57.91517602053371
 20
-55.36552924993399
 10
58.06225052783446
 20
-55.30467083311999
 10
58.20087247723908
 20
-55.23874088157397
 10
58.33104186875679
 20
-55.16942990686978
 10
58.45106819080363
 20
-55.09504739743232
 10
58.56433246653823
 20
-55.01559335326
 10
58.66576316122586
 20
-54.9327582859319
 10
58.74352669382016
 20
-54.86006628807218
 10
58.84326687692971
 20
-54.75525457022814
 10
58.93117347899271
 20
-54.64199029449307
 10
59.00893701158549
 20
-54.52365448402559
 10
59.07655747471068
 20
-54.39686611566653
 10
59.13403486836756
 20
-54.26331570099314
 10
59.17967868097665
 20
-54.12300324000986
 10
59.21686993569604
 20
-53.97592873271114
 10
59.24222760936828
 20
-53.82209217909936
 10
59.25913272514953
 20
-53.66149357917922
 10
59.26420425988379
 20
-53.49413293294204
 10
59.2591327251494
 20
-53.33015330986288
 10
59.24729914410245
 20
-53.17124522152017
 10
59.22532249358681
 20
-53.01740866791151
 10
59.19658379675851
 20
-52.87033416061322
 10
59.15770203046172
 20
-52.72664067647307
 10
59.11205821785217
 20
-52.58970923864458
 10
59.05796184735226
 20
-52.45784933555074
 10
58.99541291896112
 20
-52.33106096719049
 10
58.92272092110188
 20
-52.20934413356584
 10
58.84326687692969
 20
-52.09269883467447
 10
58.75536027486687
 20
-51.98281558209614
 10
58.65900111491378
 20
-51.87631335267411
 10
58.5541893970696
 20
-51.77657316956436
 10
58.44092512133483
 20
-51.68190452118921
 10
58.31920828770961
 20
-51.59230740754838
 10
58.25327833616241
 20
-51.5483541065168
 10
58.14001406042764
 20
-51.47904313181352
 10
58.01998773838093
 20
-51.41311318026673
 10
57.89658039317703
 20
-51.35225476345378
 10
57.76810151323962
 20
-51.29477736979771
 10
57.63624161014448
 20
-51.2440620224534
 10
57.49931017231653
 20
-51.19841820984409
 10
57.35899771133129
 20
-51.1561554203907
 10
57.21361371561316
 20
-51.11896416567207
 10
57.06315818515962
 20
-51.08684444568764
 10
56.90932163154965
 20
-51.06148677201564
 10
56.75041354320549
 20
-51.03951012149995
 10
56.58643392012758
 20
-51.02091449414064
 10
56.41907327389299
 20
-51.00908091309372
 10
56.24664109292311
 20
-51.00231886678114
 10
56.07082788879972
 20
-50.9989378436249
 10
52.59175506100752
 20
-50.9989378436249
 10
52.59175506100752
 20
-58.9680094229264
 10
54.77082448521622
 20
-58.9680094229264
 97
0
 75
0
 76
1
 47
0.0516225541133879
 98
1
 10
54.01116499639923
 20
-54.06528589115791
450
0
451
0
460
0.0
461
0.0
452
1
462
1.0
453
2
463
0
 63
5
421
255
463
1
 63
7
421
16777215
470
LINEAR
  0
INSERT
  5
83
330
2F
100
AcDbEntity
  8
0
  6
ByBlock
 62
0
370
9
 60
1
100
AcDbBlockReference
  2
*U3876
 10
38.11399999999998
 20
-7.499999999999943
 30
0.0
 41
2.5
 42
2.5
 43
2.5
  0
TEXT
  5
85
330
2F
100
AcDbEntity
  8
Defpoints
  6
ByBlock
 62
8
370
9
 60
1
100
AcDbText
 10
34.74229538405376
 20
-20.99999999999994
 30
0.0
 40
2.0
  1
%%UELCB Series%%U: EBS1003b, EBS1203b
  7
WD_IEC
 41
0.9
 11
34.74229538405376
 21
-19.99999999999994
 31
0.0
100
AcDbText
 73
2
  0
TEXT
  5
86
330
2F
100
AcDbEntity
  8
Defpoints
  6
ByBlock
 62
8
370
9
 60
1
100
AcDbText
 10
34.74229538405376
 20
-24.99999999999995
 30
0.0
 40
2.0
  1
%%USize%%U: W220 - H565+2x90 - D159/Dc105
  7
WD_IEC
 41
0.9
 11
34.74229538405376
 21
-23.99999999999995
 31
0.0
100
AcDbText
 73
2
  0
LWPOLYLINE
  5
87
330
2F
100
AcDbEntity
  8
0
  6
ByBlock
 62
0
370
9
100
AcDbPolyline
 90
12
 70
1
 10
84.29636685401826
 20
120.0110215178149
 10
84.29636685401826
 20
105.0661678260294
 10
93.9106487378642
 20
105.0661678260294
 10
93.9106487378642
 20
107.0636281423228
 10
88.49584667562308
 20
107.0636281423228
 10
88.49584667562308
 20
111.6361276615486
 10
93.39323431858335
 20
111.6361276615486
 10
93.39323431858335
 20
113.6576537647854
 10
88.49584667562308
 20
113.6576537647854
 10
88.49584667562308
 20
117.9774625211066
 10
93.68202376190291
 20
117.9774625211066
 10
93.68202376190291
 20
120.0110215178149
  0
LWPOLYLINE
  5
88
330
2F
100
AcDbEntity
  8
0
  6
ByBlock
 62
0
370
9
100
AcDbPolyline
 90
6
 70
1
 10
96.54585240815484
 20
120.0110215178149
 10
96.54585240815484
 20
105.0661678260294
 10
106.1120027181141
 20
105.0661678260294
 10
106.1120027181141
 20
107.0636281423228
 10
100.7453322297596
 20
107.0636281423228
 10
100.7453322297596
 20
120.0110215178149
  0
LWPOLYLINE
  5
89
330
2F
100
AcDbEntity
  8
0
  6
ByBlock
 62
0
370
9
100
AcDbPolyline
 90
101
 70
1
 10
113.1151467186127
 20
120.0832188786448
 10
112.3931731103139
 20
119.9027254765701
 10
111.7193310759016
 20
119.6380018201939
 10
111.0695548284327
 20
119.3010808029878
 10
110.4558772613787
 20
118.8919624249518
 10
109.8903312682113
 20
118.3986137926143
 10
109.4451142097603
 20
117.9413638406916
 10
108.9517655774228
 20
117.3517520605809
 10
108.5306143059152
 20
116.738074493527
 10
108.1696275017658
 20
116.088298246058
 10
107.8808380584463
 20
115.4024233181741
 10
107.6522130824849
 20
114.7045154968186
 10
107.4837525738819
 20
113.9705089950482
 10
107.3874894261088
 20
113.2004038128628
 10
107.3513907456938
 20
112.406232843734
 10
107.3513907456938
 20
112.3821670567908
 10
107.3513907456938
 20
111.9489828918114
 10
107.3874894261088
 20
111.4676671529456
 10
107.5198512542968
 20
110.6855290772885
 10
107.7123775498432
 20
109.9394896820465
 10
107.9650683127478
 20
109.2415818606909
 10
108.3019893299539
 20
108.5797727197503
 10
108.6990748145182
 20
107.9660951526963
 10
109.1563247664408
 20
107.3764833725857
 10
109.6857720791933
 20
106.8350031663615
 10
110.0106602029278
 20
106.5582466165136
 10
110.6123048765101
 20
106.100996664591
 10
111.2500482305074
 20
105.7159440734984
 10
111.911857371448
 20
105.3910559497639
 10
112.6097651928035
 20
105.1263322933876
 10
113.3317388011023
 20
104.9338059978413
 10
114.0898110898161
 20
104.8014441696531
 10
114.8719491654731
 20
104.7292468088233
 10
115.3051333304524
 20
104.7172139153517
 10
116.1354029799961
 20
104.7533125957666
 10
116.9295739491247
 20
104.8495757435398
 10
117.6756133443669
 20
105.0060033586712
 10
118.385554059194
 20
105.2225954411609
 10
119.0473632001346
 20
105.5113848844803
 10
119.3842842173407
 20
105.6918782865551
 10
119.985928890923
 20
106.0889637711194
 10
120.5514748840905
 20
106.5582466165136
 10
121.0568564098996
 20
107.1117597162094
 10
121.5261392552939
 20
107.7254372832634
 10
121.9472905268015
 20
108.4233451046189
 10
122.0916852484613
 20
108.7001016544667
 10
120.2987841211859
 20
109.9033910016315
 10
119.8896657431499
 20
109.1332858194461
 10
119.4685144716423
 20
108.4714766785055
 10
119.0112645197197
 20
107.9179635788097
 10
118.7585737568151
 20
107.6652728159052
 10
118.1448961897611
 20
107.1839570770393
 10
117.4710541553488
 20
106.8711018467765
 10
116.74908054705
 20
106.7026413381734
 10
116.2797977016558
 20
106.6665426577585
 10
115.521725412942
 20
106.7267071251168
 10
114.8358504850582
 20
106.919233420663
 10
114.2101400245325
 20
107.2441215443975
 10
113.6325611378935
 20
107.6893386028485
 10
113.1271796120843
 20
108.2669174894875
 10
112.898554636123
 20
108.6038385066936
 10
112.5375678319736
 20
109.2415818606909
 10
112.2487783886541
 20
109.9274567885748
 10
112.0321863061644
 20
110.6494303968736
 10
111.8998244779763
 20
111.4075026855874
 10
111.8276271171465
 20
112.2016736547161
 10
111.8276271171465
 20
112.5024959915072
 10
111.8516929040898
 20
113.3447985345225
 10
111.9359231583913
 20
114.1389695036512
 10
112.080317880051
 20
114.8850088988933
 10
112.284877069069
 20
115.5829167202488
 10
112.4774033646154
 20
116.088298246058
 10
112.8624559557081
 20
116.8223047478284
 10
113.3197059076306
 20
117.4239494214108
 10
113.8611861138548
 20
117.8811993733334
 10
114.4748636809088
 20
118.2060874970679
 10
115.0765083544911
 20
118.3865808991425
 10
115.8466135366765
 20
118.4948769403874
 10
116.0030411518079
 20
118.4948769403874
 10
116.7611134405217
 20
118.4226795795575
 10
117.4590212618772
 20
118.1699888166529
 10
118.1087975093461
 20
117.7729033320885
 10
118.2411593375343
 20
117.6525743973721
 10
118.7224750764001
 20
117.1832915519779
 10
119.1797250283227
 20
116.5936797718672
 10
119.612909193302
 20
115.88373905704
 10
119.7934025953767
 20
115.5588509333055
 10
121.6945997638969
 20
116.9546665760165
 10
121.1892182380877
 20
117.6285086104288
 10
120.6597709253353
 20
118.2301532840111
 10
120.1182907191112
 20
118.7475677032919
 10
119.5527447259438
 20
119.192784761743
 10
119.0834618805495
 20
119.4936070985341
 10
118.421652739609
 20
119.8064623287969
 10
117.7237449182534
 20
120.0471201982298
 10
116.9777055230113
 20
120.2035478133612
 10
116.1835345538826
 20
120.2877780676628
 10
115.762383282375
 20
120.2998109611345
 10
114.9922781001896
 20
120.2637122807195
 10
114.6553570829835
 20
120.2396464937762
 10
113.8611861138548
 20
120.2035478133612
  0
LWPOLYLINE
  5
8A
330
2F
100
AcDbEntity
  8
0
  6
ByBlock
 62
0
370
9
100
AcDbPolyline
 90
19
 70
1
 10
129.7446054964287
 20
111.7323908093219
 10
130.4184475308409
 20
111.3714040051724
 10
130.4425133177842
 20
111.3473382182291
 10
130.9117961631784
 20
110.805858012005
 10
131.1163553521965
 20
110.3004764861958
 10
131.2487171803846
 20
109.578502877897
 10
131.2727829673279
 20
109.0370226716729
 10
131.1524540326114
 20
108.2548845960158
 10
130.8155330154053
 20
107.6532399224335
 10
130.2499870222379
 20
107.2441215443975
 10
130.213888341823
 20
107.2200557574543
 10
129.6363094551839
 20
107.0395623553796
 10
128.8782371664702
 20
106.9312663141347
 10
127.9757701560966
 20
106.8951676337197
 10
127.2778623347411
 20
106.8951676337197
 10
127.2778623347411
 20
111.8045881701517
 10
127.9035727952668
 20
111.828653957095
 10
128.541316149264
 20
111.8406868505666
 10
129.4076844792226
 20
111.8045881701517
  0
LWPOLYLINE
  5
8B
330
2F
100
AcDbEntity
  8
0
  6
ByBlock
 62
0
370
9
100
AcDbPolyline
 90
17
 70
1
 10
128.3247240667744
 20
118.133890136238
 10
129.1188950359031
 20
118.0737256688797
 10
129.6724081355989
 20
117.9654296276349
 10
129.7927370703153
 20
117.92933094722
 10
130.3703159569544
 20
117.5683441430706
 10
130.7553685480471
 20
117.0268639368465
 10
130.9478948435934
 20
116.3048903285476
 10
130.9839935240084
 20
115.8356074831534
 10
130.8756974827635
 20
115.029403620553
 10
130.5748751459724
 20
114.4036931600274
 10
130.0574607266915
 20
113.9825418885198
 10
129.8168028572586
 20
113.8742458472749
 10
129.3354871183927
 20
113.7659498060301
 10
128.6135135100939
 20
113.6937524452003
 10
127.6388491388905
 20
113.6576537647854
 10
127.2778623347411
 20
113.6576537647854
 10
127.2778623347411
 20
118.1579559231813
  0
LWPOLYLINE
  5
8C
330
2F
100
AcDbEntity
  8
0
  6
ByBlock
 62
0
370
9
100
AcDbPolyline
 90
41
 70
1
 10
130.5026777851425
 20
105.0661678260294
 10
131.3810790085727
 20
105.0902336129728
 10
132.1872828711731
 20
105.1864967607459
 10
132.9092564794719
 20
105.354957269349
 10
133.5590327269408
 20
105.5715493518386
 10
133.8117234898454
 20
105.6918782865551
 10
134.4614997373144
 20
106.100996664591
 10
134.9668812631235
 20
106.6063781904002
 10
135.3399009607446
 20
107.2200557574543
 10
135.5685259367058
 20
107.9179635788097
 10
135.6407232975357
 20
108.351147743789
 10
135.664789084479
 20
108.6519700805802
 10
135.6768219779507
 20
108.8805950565415
 10
135.6046246171207
 20
109.6507002387268
 10
135.3639667476879
 20
110.3486080600824
 10
134.9668812631235
 20
110.9622856271364
 10
134.6058944589741
 20
111.3353053247575
 10
134.06441425275
 20
111.7444237027935
 10
133.4266708987527
 20
112.1054105069428
 10
132.6806315035106
 20
112.4182657372057
 10
132.0669539364566
 20
112.610792032752
 10
132.9092564794719
 20
112.851449902185
 10
133.6071643008274
 20
113.1643051324478
 10
134.1727102939948
 20
113.5493577235405
 10
134.3171050156545
 20
113.6817195517287
 10
134.7502891806338
 20
114.247265544896
 10
135.0390786239534
 20
114.9090746858366
 10
135.1714404521415
 20
115.6912127614936
 10
135.1834733456132
 20
116.0281337786998
 10
135.1112759847833
 20
116.7982389608851
 10
134.9067167957652
 20
117.4961467822407
 10
134.5577628850875
 20
118.1218572427663
 10
134.0764471462217
 20
118.6633374489905
 10
133.5229340465259
 20
119.0965216139697
 10
132.8972235860002
 20
119.4334426311758
 10
132.223381551588
 20
119.6861333940804
 10
131.4893750498176
 20
119.8666267961551
 10
130.6952040806888
 20
119.9749228374
 10
129.9852633658617
 20
120.0110215178149
 10
123.1866785543812
 20
120.0110215178149
 10
123.1866785543812
 20
105.0661678260294
  0
LINE
  5
8D
330
2F
100
AcDbEntity
  8
0
  6
ByBlock
 62
0
370
18
 60
1
100
AcDbLine
 10
0.0
 20
-200.0
 30
0.0
 11
102.5
 21
-200.0000000000002
 31
0.0
  0
LWPOLYLINE
  5
8E
330
2F
100
AcDbEntity
  8
0
  6
HIDDEN
 62
8
370
9
 60
1
100
AcDbPolyline
 90
4
 70
0
 10
0.0
 20
-184.4999799939998
 10
21.40000000000009
 20
-184.4999799939998
 10
21.40000000000009
 20
-175.4999799939998
 10
0.0
 20
-175.4999799939998
  0
LINE
  5
8F
330
2F
100
AcDbEntity
  8
0
  6
CENTER
 62
4
370
9
 60
1
100
AcDbLine
 10
0.0
 20
-179.9999799939998
 30
0.0
 11
102.5000000000001
 21
-179.999979994
 31
0.0
  0
LWPOLYLINE
  5
90
330
2F
100
AcDbEntity
  8
0
  6
HIDDEN
 62
8
370
9
 60
1
100
AcDbPolyline
 90
4
 70
0
 10
102.5000000000002
 20
-170.999979994
 10
21.40000000000009
 20
-170.9999799939998
 10
21.40000000000009
 20
-188.9999799939998
 10
102.5
 20
-188.999979994
  0
LWPOLYLINE
  5
91
330
2F
100
AcDbEntity
  8
0
  6
ByBlock
 62
0
370
18
100
AcDbPolyline
 90
28
 70
1
 10
-9.59995604049e-05
 20
-199.9999999999999
 10
-9.5999560358e-05
 20
-365.0000000000005
 10
3.506229377829527
 20
-365.0000000000005
 42
0.4105129789040485
 10
3.999904000439642
 20
-364.5000400120006
 10
3.999904000441233
 20
-363.4000000000015
 42
-5.000000000008365
 10
5.99990400043805
 20
-363.4000000000015
 10
5.999904000439642
 20
-364.5000400120006
 42
0.4104022373011198
 10
6.493386623928813
 20
-365.0000000000005
 10
73.50622937782953
 20
-365.0000000000005
 42
0.4105129789040485
 10
73.99990400043964
 20
-364.5000400120006
 10
73.99990400044123
 20
-363.4000000000015
 42
-5.000000000008342
 10
75.99990400043805
 20
-363.4000000000015
 10
75.99990400043964
 20
-364.5000400120006
 42
0.4104022373011188
 10
76.49338662392891
 20
-365.0000000000005
 10
143.5062293778295
 20
-365.0000000000005
 42
0.4105129789040485
 10
143.9999040004396
 20
-364.5000400120006
 10
143.9999040004411
 20
-363.4000000000015
 42
-5.000000000008308
 10
145.9999040004381
 20
-363.4000000000015
 10
145.9999040004396
 20
-364.5000400120006
 42
0.4104022373011188
 10
146.4933866239289
 20
-365.0000000000005
 10
213.5064213769503
 20
-365.0000000000005
 42
0.4104022373011157
 10
213.9999040004397
 20
-364.5000400120006
 10
213.9999040004413
 20
-363.4000000000015
 42
-5.000000000008377
 10
215.9999040004381
 20
-363.4000000000015
 10
215.9999040004397
 20
-364.5000400120006
 42
0.4105129789040485
 10
216.4935786230466
 20
-365.0000000000005
 10
219.9999040004397
 20
-365.0000000000005
 10
219.9999040004397
 20
-199.9999999999999
  0
CIRCLE
  5
92
330
2F
100
AcDbEntity
  8
0
  6
ByBlock
 62
112
370
9
100
AcDbCircle
 10
145.0
 20
-344.9999999999999
 30
0.0
 40
5.099999999999999
  0
CIRCLE
  5
93
330
2F
100
AcDbEntity
  8
0
  6
ByBlock
 62
112
370
9
100
AcDbCircle
 10
75.00000000000006
 20
-344.9999999999999
 30
0.0
 40
5.099999999999999
  0
CIRCLE
  5
94
330
2F
100
AcDbEntity
  8
0
  6
ByBlock
 62
0
370
9
100
AcDbCircle
 10
75.00000000000006
 20
-344.9999999999999
 30
0.0
 40
9.0
  0
CIRCLE
  5
95
330
2F
100
AcDbEntity
  8
0
  6
ByBlock
 62
0
370
9
100
AcDbCircle
 10
145.0
 20
-344.9999999999999
 30
0.0
 40
9.0
  0
LINE
  5
96
330
2F
100
AcDbEntity
  8
Defpoints
  6
ByBlock
 62
2
370
9
 60
1
100
AcDbLine
 10
49.00000000000017
 20
-42.99997999399983
 30
0.0
 11
49.00000000000017
 21
-42.99997999399983
 31
0.0
  0
LINE
  5
97
330
2F
100
AcDbEntity
  8
Defpoints
  6
ByBlock
 62
2
370
9
 60
1
100
AcDbLine
 10
63.00000000000018
 20
-66.99997999399982
 30
0.0
 11
63.00000000000018
 21
-66.99997999399982
 31
0.0
  0
LWPOLYLINE
  5
98
330
2F
100
AcDbEntity
  8
0
  6
ByBlock
 62
150
370
9
100
AcDbPolyline
 90
4
 70
1
 10
74.99990400043998
 20
-206.999979994
 10
144.9999040004392
 20
-206.9999799939999
 10
144.9999040004412
 20
-241.9999799939999
 10
74.99990400043998
 20
-241.999979994
  0
LWPOLYLINE
  5
99
330
2F
100
AcDbEntity
  8
0
  6
ByBlock
 62
0
370
9
100
AcDbPolyline
 90
4
 70
1
 10
94.24990400044055
 20
-216.4999799939999
 10
94.24990400044055
 20
-232.499979994
 10
99.24990400044055
 20
-232.499979994
 10
99.24990400044055
 20
-216.4999799939999
  0
HATCH
  5
9A
330
2F
100
AcDbEntity
  8
0
  6
ByBlock
 62
9
370
18
100
AcDbHatch
 10
0.0
 20
0.0
 30
0.0
210
0.0
220
0.0
230
1.0
  2
SOLID
 70
1
 71
0
 91
1
 92
7
 72
0
 73
1
 93
4
 10
95.24990400044055
 20
-231.499979994
 10
98.24990400044057
 20
-231.4999799939999
 10
98.24990400044057
 20
-217.499979994
 10
95.24990400044055
 20
-217.499979994
 97
1
330
22BC81
 75
0
 76
1
 47
0.0568976195343065
 98
1
 10
96.44179658046524
 20
-226.1600713088865
450
0
451
0
460
0.0
461
0.0
452
1
462
1.0
453
2
463
0
 63
5
421
255
463
1
 63
7
421
16777215
470
LINEAR
  0
LWPOLYLINE
  5
9B
330
2F
100
AcDbEntity
  8
0
  6
ByBlock
 62
0
370
9
100
AcDbPolyline
 90
4
 70
1
 10
95.24990400044055
 20
-217.499979994
 10
95.24990400044055
 20
-231.4999799939999
 10
98.24990400044057
 20
-231.4999799939999
 10
98.24990400044057
 20
-217.499979994
  0
CIRCLE
  5
9C
330
2F
100
AcDbEntity
  8
0
  6
ByBlock
 62
0
370
9
100
AcDbCircle
 10
123.2499040004405
 20
-224.4999799939999
 30
0.0
 40
8.0
  0
HATCH
  5
9D
330
2F
100
AcDbEntity
  8
0
  6
ByBlock
 62
10
370
18
100
AcDbHatch
 10
0.0
 20
0.0
 30
0.0
210
0.0
220
0.0
230
1.0
  2
SOLID
 70
1
 71
0
 91
1
 92
7
 72
1
 73
1
 93
2
 10
116.2499040004405
 20
-224.4999799939999
 42
1.0
 10
130.2499040004405
 20
-224.4999799939999
 42
1.0
 97
1
330
22BC84
 75
0
 76
1
 47
0.1185941906457398
 98
1
 10
122.652655907288
 20
-224.4114172573276
450
0
451
0
460
0.0
461
0.0
452
1
462
1.0
453
2
463
0
 63
5
421
255
463
1
 63
7
421
16777215
470
LINEAR
  0
CIRCLE
  5
9E
330
2F
100
AcDbEntity
  8
0
  6
ByBlock
 62
0
370
9
100
AcDbCircle
 10
123.2499040004405
 20
-224.4999799939999
 30
0.0
 40
7.0
  0
LINE
  5
9F
330
2F
100
AcDbEntity
  8
Defpoints
  6
ByBlock
 62
2
370
9
 60
1
100
AcDbLine
 10
73.99990400043998
 20
-205.999979994
 30
0.0
 11
73.99990400043998
 21
-205.999979994
 31
0.0
  0
LINE
  5
A0
330
2F
100
AcDbEntity
  8
Defpoints
  6
ByBlock
 62
2
370
9
 60
1
100
AcDbLine
 10
145.9999040004392
 20
-242.999979994
 30
0.0
 11
145.9999040004392
 21
-242.999979994
 31
0.0
  0
LWPOLYLINE
  5
A1
330
2F
100
AcDbEntity
  8
0
  6
ByBlock
 62
0
370
9
 60
1
100
AcDbPolyline
 90
12
 70
1
 10
26.79636685401855
 20
31.96668971922448
 10
26.79636685401855
 20
17.02183602743896
 10
36.41064873786448
 20
17.02183602743896
 10
36.41064873786448
 20
19.01929634373228
 10
30.99584667562337
 20
19.01929634373228
 10
30.99584667562337
 20
23.59179586295814
 10
35.89323431858364
 20
23.59179586295814
 10
35.89323431858364
 20
25.61332196619487
 10
30.99584667562337
 20
25.61332196619487
 10
30.99584667562337
 20
29.93313072251608
 10
36.1820237619032
 20
29.93313072251608
 10
36.1820237619032
 20
31.96668971922448
  0
LWPOLYLINE
  5
A2
330
2F
100
AcDbEntity
  8
0
  6
ByBlock
 62
0
370
9
 60
1
100
AcDbPolyline
 90
6
 70
1
 10
39.04585240815513
 20
31.96668971922448
 10
39.04585240815513
 20
17.02183602743896
 10
48.61200271811444
 20
17.02183602743896
 10
48.61200271811444
 20
19.01929634373228
 10
43.24533222975989
 20
19.01929634373228
 10
43.24533222975989
 20
31.96668971922448
  0
LWPOLYLINE
  5
A3
330
2F
100
AcDbEntity
  8
0
  6
ByBlock
 62
0
370
9
 60
1
100
AcDbPolyline
 90
101
 70
1
 10
55.61514671861297
 20
32.03888708005429
 10
54.89317311031417
 20
31.85839367797958
 10
54.21933107590191
 20
31.59367002160339
 10
53.56955482843298
 20
31.25674900439726
 10
52.95587726137902
 20
30.84763062636132
 10
52.39033126821161
 20
30.35428199402379
 10
51.94511420976064
 20
29.89703204210112
 10
51.45176557742312
 20
29.30742026199046
 10
51.03061430591552
 20
28.69374269493649
 10
50.66962750176609
 20
28.04396644746756
 10
50.38083805844658
 20
27.35809151958366
 10
50.15221308248524
 20
26.6601836982281
 10
49.98375257388218
 20
25.92617719645769
 10
49.88748942610905
 20
25.15607201427231
 10
49.85139074569409
 20
24.36190104514351
 10
49.85139074569409
 20
24.33783525820031
 10
49.85139074569409
 20
23.90465109322095
 10
49.88748942610905
 20
23.42333535435507
 10
50.01985125429715
 20
22.64119727869804
 10
50.21237754984352
 20
21.89515788345598
 10
50.46506831274811
 20
21.19725006210043
 10
50.80198932995418
 20
20.53544092115983
 10
51.19907481451853
 20
19.92176335410586
 10
51.65632476644114
 20
19.3321515739952
 10
52.18577207919358
 20
18.79067136777105
 10
52.51066020292805
 20
18.51391481792309
 10
53.11230487651042
 20
18.05666486600053
 10
53.7500482305077
 20
17.6716122749079
 10
54.41185737144829
 20
17.34672415117343
 10
55.10976519280379
 20
17.08200049479713
 10
55.8317388011026
 20
16.88947419925087
 10
56.58981108981638
 20
16.75711237106266
 10
57.37194916547341
 20
16.68491501023284
 10
57.80513333045272
 20
16.67288211676118
 10
58.63540297999637
 20
16.70898079717615
 10
59.42957394912506
 20
16.80524394494928
 10
60.17561334436718
 20
16.96167156008069
 10
60.88555405919433
 20
17.17826364257037
 10
61.54736320013492
 20
17.46705308588987
 10
61.88428421734105
 20
17.64754648796459
 10
62.48592889092336
 20
18.04463197252887
 10
63.05147488409076
 20
18.51391481792309
 10
63.55685640989995
 20
19.0674279176189
 10
64.02613925529417
 20
19.68110548467287
 10
64.44729052680182
 20
20.37901330602843
 10
64.59168524846157
 20
20.65576985587627
 10
62.79878412118623
 20
21.85905920304101
 10
62.38966574315018
 20
21.08895402085564
 10
61.96851447164258
 20
20.42714487991505
 10
61.51126451971996
 20
19.87363178021924
 10
61.25857375681537
 20
19.6209410173147
 10
60.64489618976139
 20
19.13962527844883
 10
59.97105415534915
 20
18.82677004818602
 10
59.24908054705034
 20
18.65830953958296
 10
58.77979770165612
 20
18.62221085916799
 10
58.02172541294234
 20
18.68237532652627
 10
57.3358504850585
 20
18.87490162207253
 10
56.71014002453282
 20
19.19978974580699
 10
56.13256113789382
 20
19.64500680425802
 10
55.62717961208463
 20
20.22258569089702
 10
55.39855463612335
 20
20.55950670810315
 10
55.03756783197392
 20
21.19725006210043
 10
54.74877838865442
 20
21.88312498998433
 10
54.53218630616473
 20
22.60509859828308
 10
54.39982447797664
 20
23.36317088699691
 10
54.32762711714676
 20
24.1573418561256
 10
54.32762711714676
 20
24.45816419291676
 10
54.35169290409007
 20
25.30046673593207
 10
54.4359231583916
 20
26.09463770506075
 10
54.58031788005135
 20
26.84067710030281
 10
54.78487706906932
 20
27.53858492165837
 10
54.9774033646157
 20
28.04396644746756
 10
55.36245595570838
 20
28.77797294923797
 10
55.81970590763095
 20
29.37961762282028
 10
56.36118611385509
 20
29.83686757474295
 10
56.97486368090906
 20
30.16175569847742
 10
57.57650835449144
 20
30.34224910055203
 10
58.34661353667681
 20
30.45054514179692
 10
58.50304115180822
 20
30.45054514179692
 10
59.26111344052199
 20
30.37834778096699
 10
59.9590212618775
 20
30.12565701806245
 10
60.60879750934643
 20
29.72857153349806
 10
60.74115933753458
 20
29.60824259878162
 10
61.22247507640046
 20
29.1389597533874
 10
61.67972502832302
 20
28.54934797327674
 10
62.11290919330233
 20
27.83940725844953
 10
62.29340259537704
 20
27.51451913471506
 10
64.19459976389723
 20
28.91033477742606
 10
63.68921823808804
 20
29.5841768118383
 10
63.15977092533561
 20
30.18582148542062
 10
62.61829071911151
 20
30.70323590470146
 10
62.0527447259441
 20
31.14845296315248
 10
61.58346188054983
 20
31.44927529994364
 10
60.92165273960929
 20
31.76213053020645
 10
60.22374491825374
 20
32.00278839963933
 10
59.47770552301162
 20
32.15921601477074
 10
58.68353455388294
 20
32.24344626907232
 10
58.26238328237528
 20
32.25547916254398
 10
57.4922781001899
 20
32.21938048212901
 10
57.15535708298379
 20
32.1953146951857
 10
56.36118611385509
 20
32.15921601477074
  0
LWPOLYLINE
  5
A4
330
2F
100
AcDbEntity
  8
0
  6
ByBlock
 62
0
370
9
 60
1
100
AcDbPolyline
 90
19
 70
1
 10
72.24460549642905
 20
23.68805901073138
 10
72.91844753084123
 20
23.32707220658194
 10
72.94251331778455
 20
23.30300641963864
 10
73.41179616317876
 20
22.76152621341449
 10
73.61635535219679
 20
22.2561446876053
 10
73.74871718038489
 20
21.53417107930655
 10
73.7727829673282
 20
20.9926908730824
 10
73.65245403261176
 20
20.21055279742537
 10
73.31553301540563
 20
19.60890812384305
 10
72.74998702223823
 20
19.19978974580699
 10
72.71388834182326
 20
19.1757239588638
 10
72.1363094551842
 20
18.99523055678908
 10
71.37823716647048
 20
18.88693451554418
 10
70.47577015609696
 20
18.85083583512922
 10
69.7778623347414
 20
18.85083583512922
 10
69.7778623347414
 20
23.7602563715612
 10
70.40357279526708
 20
23.78432215850451
 10
71.04131614926436
 20
23.79635505197617
 10
71.90768447922292
 20
23.7602563715612
  0
LWPOLYLINE
  5
A5
330
2F
100
AcDbEntity
  8
0
  6
ByBlock
 62
0
370
9
 60
1
100
AcDbPolyline
 90
17
 70
1
 10
70.82472406677466
 20
30.08955833764749
 10
71.61889503590342
 20
30.02939387028921
 10
72.17240813559917
 20
29.92109782904443
 10
72.29273707031561
 20
29.88499914862946
 10
72.87031595695466
 20
29.52401234448014
 10
73.25536854804734
 20
28.98253213825599
 10
73.44789484359373
 20
28.26055852995713
 10
73.4839935240087
 20
27.79127568456291
 10
73.37569748276385
 20
26.98507182196256
 10
73.07487514597268
 20
26.35936136143694
 10
72.55746072669186
 20
25.93821008992934
 10
72.31680285725892
 20
25.82991404868444
 10
71.83548711839305
 20
25.72161800743966
 10
71.11351351009424
 20
25.64942064660984
 10
70.13884913889083
 20
25.61332196619487
 10
69.7778623347414
 20
25.61332196619487
 10
69.7778623347414
 20
30.1136241245908
  0
LWPOLYLINE
  5
A6
330
2F
100
AcDbEntity
  8
0
  6
ByBlock
 62
0
370
9
 60
1
100
AcDbPolyline
 90
41
 70
1
 10
73.00267778514282
 20
17.02183602743896
 10
73.88107900857304
 20
17.04590181438227
 10
74.68728287117338
 20
17.1421649621554
 10
75.40925647947219
 20
17.31062547075846
 10
76.05903272694113
 20
17.52721755324815
 10
76.31172348984572
 20
17.64754648796459
 10
76.96149973731465
 20
18.05666486600053
 10
77.46688126312378
 20
18.56204639180971
 10
77.83990096074487
 20
19.1757239588638
 10
78.06852593670615
 20
19.87363178021924
 10
78.14072329753603
 20
20.30681594519849
 10
78.16478908447932
 20
20.60763828198977
 10
78.176821977951
 20
20.83626325795099
 10
78.10462461712106
 20
21.60636844013636
 10
77.86396674768818
 20
22.30427626149192
 10
77.46688126312378
 20
22.91795382854589
 10
77.1058944589744
 20
23.29097352616698
 10
76.56441425275031
 20
23.70009190420304
 10
75.92667089875303
 20
24.06107870835235
 10
75.18063150351091
 20
24.37393393861517
 10
74.56695393645688
 20
24.56646023416154
 10
75.40925647947219
 20
24.80711810359454
 10
76.10716430082769
 20
25.11997333385735
 10
76.6727102939951
 20
25.50502592494998
 10
76.81710501565485
 20
25.63738775313819
 10
77.25028918063416
 20
26.20293374630553
 10
77.53907862395371
 20
26.86474288724613
 10
77.6714404521418
 20
27.64688096290316
 10
77.68347334561346
 20
27.98380198010928
 10
77.61127598478359
 20
28.75390716229465
 10
77.40671679576556
 20
29.45181498365021
 10
77.05776288508784
 20
30.07752544417583
 10
76.57644714622197
 20
30.61900565039998
 10
76.02293404652616
 20
31.05218981537924
 10
75.39722358600054
 20
31.38911083258536
 10
74.72338155158829
 20
31.6418015954899
 10
73.98937504981788
 20
31.82229499756461
 10
73.19520408068914
 20
31.93059103880951
 10
72.48526336586198
 20
31.96668971922448
 10
65.68667855438147
 20
31.96668971922448
 10
65.68667855438147
 20
17.02183602743896
  0
ENDBLK
  5
31
330
2F
100
AcDbEntity
  8
0
100
AcDbBlockEnd
  0
BLOCK
  5
A8
330
A7
100
AcDbEntity
  8
0
100
AcDbBlockBegin
  2
*U3866
 70
1
 10
0.0
 20
0.0
 30
0.0
  3
*U3866
  1

  0
LWPOLYLINE
  5
AA
330
A7
100
AcDbEntity
  8
0
  6
ByBlock
 62
0
370
18
100
AcDbPolyline
 90
8
 70
1
 10
8.0
 20
25.5
 10
8.0
 20
69.5
 42
0.4142135623730951
 10
5.0
 20
72.5
 10
-5.0
 20
72.5
 42
0.4142135623730951
 10
-8.0
 20
69.5
 10
-8.0
 20
25.5
 42
0.4142135623730951
 10
-5.0
 20
22.5
 10
5.0
 20
22.5
 42
0.4142135623730951
  0
CIRCLE
  5
AB
330
A7
100
AcDbEntity
  8
0
  6
ByBlock
 62
5
370
9
100
AcDbCircle
 10
0.0
 20
26.5
 30
0.0
 40
1.25
  0
CIRCLE
  5
AC
330
A7
100
AcDbEntity
  8
0
  6
ByBlock
 62
0
370
9
100
AcDbCircle
 10
0.0
 20
26.5
 30
0.0
 40
2.0
  0
CIRCLE
  5
AD
330
A7
100
AcDbEntity
  8
0
  6
ByBlock
 62
0
370
9
100
AcDbCircle
 10
0.0
 20
26.5
 30
0.0
 40
3.0
  0
LWPOLYLINE
  5
AE
330
A7
100
AcDbEntity
  8
0
  6
HIDDEN
 62
6
370
9
 48
10.0
100
AcDbPolyline
 90
6
 70
0
 10
-8.0
 20
30.0
 10
5.500000000000028
 20
30.0
 42
0.4142135623730951
 10
6.500000000000028
 20
31.0
 10
6.5
 20
64.00000000000006
 42
0.4142135623730951
 10
5.5
 20
65.00000000000006
 10
-8.0
 20
65.0
  0
TEXT
  5
AF
330
A7
100
AcDbEntity
  8
0
100
AcDbText
 10
1.999999999999999
 20
34.97748214331266
 30
0.0
 40
4.0
  1
NAME LOAD
 50
90.0
  7
WD_IEC
 41
0.9
 72
1
 11
0.0
 21
47.5
 31
0.0
100
AcDbText
 73
2
  0
CIRCLE
  5
B0
330
A7
100
AcDbEntity
  8
0
  6
ByBlock
 62
5
370
9
100
AcDbCircle
 10
0.0
 20
68.5
 30
0.0
 40
1.25
  0
CIRCLE
  5
B1
330
A7
100
AcDbEntity
  8
0
  6
ByBlock
 62
0
370
9
100
AcDbCircle
 10
0.0
 20
68.5
 30
0.0
 40
2.0
  0
CIRCLE
  5
B2
330
A7
100
AcDbEntity
  8
0
  6
ByBlock
 62
0
370
9
100
AcDbCircle
 10
0.0
 20
68.5
 30
0.0
 40
3.0
  0
ENDBLK
  5
A9
330
A7
100
AcDbEntity
  8
0
100
AcDbBlockEnd
  0
BLOCK
  5
B4
330
B3
100
AcDbEntity
  8
0
100
AcDbBlockBegin
  2
*U3876
 70
1
 10
0.0
 20
0.0
 30
0.0
  3
*U3876
  1

  0
HATCH
  5
B6
330
B3
100
AcDbEntity
  8
0
 62
10
100
AcDbHatch
 10
0.0
 20
0.0
 30
0.0
210
0.0
220
0.0
230
1.0
  2
SOLID
 70
1
 71
0
 91
1
 92
1
 93
1
 72
4
 94
3
 73
0
 74
0
 95
20
 96
16
 40
0.0
 40
0.0
 40
0.0
 40
0.0
 40
1.0
 40
1.0
 40
1.0
 40
2.0
 40
2.0
 40
2.0
 40
3.0
 40
3.0
 40
3.0
 40
4.0
 40
4.0
 40
4.0
 40
5.0
 40
5.0
 40
5.0
 40
5.0
 10
10.55965344402352
 20
6.722726179139024
 10
10.55965344402352
 20
6.722726179139024
 10
15.52923669506018
 20
6.722726179139024
 10
15.52923669506018
 20
6.722726179139024
 10
15.52923669506018
 20
6.722726179139024
 10
12.52271882028216
 20
5.193988276710064
 10
12.52271882028216
 20
5.193988276710064
 10
12.52271882028216
 20
5.193988276710064
 10
12.62818988486704
 20
5.684606487257273
 10
12.66077925875638
 20
5.830962402722065
 10
12.69573876892807
 20
5.985613795177428
 10
12.64122563442465
 20
6.088714723480742
 10
12.45102219772623
 20
6.14737559648062
 10
12.25489342032037
 20
6.207221537622454
 10
10.55965344402352
 20
6.722726179139024
 10
10.55965344402352
 20
6.722726179139024
 97
0
 97
0
 75
0
 76
1
 98
1
 10
7.786742126623629
 20
3.347652112380593
450
0
451
0
460
0.0
461
0.0
452
0
462
0.0
453
2
463
0
 63
5
421
255
463
1
 63
51
421
16777113
470
LINEAR
  0
HATCH
  5
B7
330
B3
100
AcDbEntity
  8
0
 62
152
100
AcDbHatch
 10
0.0
 20
0.0
 30
0.0
210
0.0
220
0.0
230
1.0
  2
SOLID
 70
1
 71
0
 91
1
 92
1
 93
1
 72
4
 94
3
 73
0
 74
0
 95
86
 96
82
 40
0.0
 40
0.0
 40
0.0
 40
0.0
 40
1.0
 40
1.0
 40
1.0
 40
2.0
 40
2.0
 40
2.0
 40
3.0
 40
3.0
 40
3.0
 40
4.0
 40
4.0
 40
4.0
 40
5.0
 40
5.0
 40
5.0
 40
6.0
 40
6.0
 40
6.0
 40
7.0
 40
7.0
 40
7.0
 40
8.0
 40
8.0
 40
8.0
 40
9.0
 40
9.0
 40
9.0
 40
10.0
 40
10.0
 40
10.0
 40
11.0
 40
11.0
 40
11.0
 40
12.0
 40
12.0
 40
12.0
 40
13.0
 40
13.0
 40
13.0
 40
14.0
 40
14.0
 40
14.0
 40
15.0
 40
15.0
 40
15.0
 40
16.0
 40
16.0
 40
16.0
 40
17.0
 40
17.0
 40
17.0
 40
18.0
 40
18.0
 40
18.0
 40
19.0
 40
19.0
 40
19.0
 40
20.0
 40
20.0
 40
20.0
 40
21.0
 40
21.0
 40
21.0
 40
22.0
 40
22.0
 40
22.0
 40
23.0
 40
23.0
 40
23.0
 40
24.0
 40
24.0
 40
24.0
 40
25.0
 40
25.0
 40
25.0
 40
26.0
 40
26.0
 40
26.0
 40
27.0
 40
27.0
 40
27.0
 40
27.0
 10
8.563998693875536
 20
2.468496959398422
 10
8.956256248684127
 20
2.468496959398422
 10
9.180826661484438
 20
2.36954376959
 10
9.180826661484438
 20
2.107051176266626
 10
9.180826661484438
 20
1.936401363902279
 10
9.06468998362429
 20
1.711238417032944
 10
8.959811453109216
 20
1.628876181204098
 10
8.718650086329333
 20
1.443413017071938
 10
8.507115423086638
 20
1.423859392738645
 10
7.380411887632917
 20
1.423859392738645
 10
7.380411887632917
 20
1.423859392738645
 10
1.984500372722237
 20
1.423859392738645
 10
1.984500372722237
 20
1.423859392738645
 10
1.984500372722237
 20
1.423859392738645
 10
3.076540665040734
 20
6.000000020824757
 10
3.076540665040734
 20
6.000000020824757
 10
3.076540665040734
 20
6.000000020824757
 10
1.269904283448434
 20
6.000000020824757
 10
1.269904283448434
 20
6.000000020824757
 10
1.145472128598502
 20
6.000000020824757
 10
1.098958204048402
 20
5.965633044722872
 10
1.061332290557894
 20
5.818092061116903
 10
1.061332290557894
 20
5.818092061116903
 10
0.0442475581870774
 20
1.6057673524465
 10
0.0442475581870774
 20
1.6057673524465
 10
-0.1471409466540852
 20
0.7691092446051134
 10
0.2857051920002984
 20
2.08247624e-08
 10
1.248573056901033
 20
2.08247624e-08
 10
2.21114465476843
 20
2.08247624e-08
 10
2.761905073492378
 20
2.08247624e-08
 10
3.579898358105179
 20
2.08247624e-08
 10
4.15406387262241
 20
2.08247624e-08
 10
4.886139716985187
 20
0.4935809017256894
 10
5.287877816926307
 20
1.06182107553548
 10
5.338539479971302
 20
1.132925164020821
 10
5.42712332354014
 20
1.145960913576089
 10
5.391571279298645
 20
0.9942721914744475
 10
5.32076345784899
 20
0.6944499516962495
 10
5.236031085738574
 20
0.3324116344930843
 10
5.214403592157836
 20
0.2429389898156256
 10
5.173815008312043
 20
0.066956370815209
 10
5.265954056309098
 20
2.08247624e-08
 10
5.349501360279905
 20
2.08247624e-08
 10
5.349501360279905
 20
2.08247624e-08
 10
7.432554885857115
 20
2.08247624e-08
 10
8.095304243943186
 20
2.08247624e-08
 10
10.42514820997125
 20
2.08247624e-08
 10
11.31394931603684
 20
1.115149141899291
 10
11.41468010805702
 20
2.443610528429061
 10
11.46563803813848
 20
3.117914300895886
 10
10.98450037272145
 20
3.63223387427128
 10
9.64833604327092
 20
3.63223387427128
 10
9.64833604327092
 20
3.63223387427128
 10
8.986475486291123
 20
3.63223387427128
 10
8.622067032804043
 20
3.63223387427128
 10
8.254695908964813
 20
3.63223387427128
 10
7.8802143762754
 20
3.76377643796826
 10
7.8802143762754
 20
4.091447779071103
 10
7.8802143762754
 20
4.426822063092362
 10
8.308023975328624
 20
4.729606973224279
 10
8.8584881270161
 20
4.729606973224279
 10
8.8584881270161
 20
4.729606973224279
 10
11.35957443948067
 20
4.729606973224279
 10
11.35957443948067
 20
4.729606973224279
 10
11.35957443948067
 20
4.729606973224279
 10
11.55866588723868
 20
5.520639957621055
 10
11.60192087440016
 20
5.703732985470084
 10
11.65584147483378
 20
5.934228738975486
 10
11.58770005670294
 20
6.000000020824757
 10
11.41823531247898
 20
6.000000020824757
 10
11.41823531247898
 20
6.000000020824757
 10
8.32876266780309
 20
6.000000020824757
 10
8.32876266780309
 20
6.000000020824757
 10
6.532791899486056
 20
6.000000020824757
 10
5.726945563321468
 20
4.801303595780207
 10
5.726945563321468
 20
3.944499329534941
 10
5.726945563321468
 20
3.087102529219087
 10
6.417840289768648
 20
2.469682027540379
 10
8.198405172248847
 20
2.469682027540379
 10
8.198405172248847
 20
2.469682027540379
 10
8.563998693875536
 20
2.468496959398422
 10
8.563998693875536
 20
2.468496959398422
 97
0
 97
0
 75
0
 76
1
 98
1
 10
7.786742126623629
 20
3.375074087583191
450
0
451
0
460
0.0
461
0.0
452
0
462
0.0
453
2
463
0
 63
5
421
255
463
1
 63
51
421
16777113
470
LINEAR
  0
LINE
  5
B8
330
B3
100
AcDbEntity
  8
Defpoints
  6
ByBlock
 62
2
370
9
100
AcDbLine
 10
5.7544
 20
3.0
 30
0.0
 11
5.7544
 21
3.0
 31
0.0
  0
ENDBLK
  5
B5
330
B3
100
AcDbEntity
  8
0
100
AcDbBlockEnd
  0
ENDSEC
  0
SECTION
  2
ENTITIES
  0
INSERT
  5
BD
330
17
100
AcDbEntity
  8
0
100
AcDbBlockReference
  2
Metasol 1000AF ELCB
 10
9.59995604049e-05
 20
454.9999999999998
 30
0.0
  0
ENDSEC
  0
SECTION
  2
OBJECTS
  0
DICTIONARY
  5
A
330
0
100
AcDbDictionary
281
1
  3
ACAD_COLOR
350
B
  3
ACAD_GROUP
350
C
  3
ACAD_LAYOUT
350
D
  3
ACAD_MATERIAL
350
E
  3
ACAD_MLEADERSTYLE
350
F
  3
ACAD_MLINESTYLE
350
10
  3
ACAD_PLOTSETTINGS
350
11
  3
ACAD_PLOTSTYLENAME
350
12
  3
ACAD_SCALELIST
350
14
  3
ACAD_TABLESTYLE
350
15
  3
ACAD_VISUALSTYLE
350
16
  3
EZDXF_META
350
2D
  0
DICTIONARY
  5
B
330
A
100
AcDbDictionary
281
1
  0
DICTIONARY
  5
C
330
A
100
AcDbDictionary
281
1
  0
DICTIONARY
  5
D
330
A
100
AcDbDictionary
281
1
  3
Model
350
1A
  3
Layout1
350
1E
  0
DICTIONARY
  5
E
330
A
100
AcDbDictionary
281
1
  3
ByBlock
350
1F
  3
ByLayer
350
20
  3
Global
350
21
  0
DICTIONARY
  5
F
330
A
100
AcDbDictionary
281
1
  3
Standard
350
2C
  0
DICTIONARY
  5
10
330
A
100
AcDbDictionary
281
1
  3
Standard
350
22
  0
DICTIONARY
  5
11
330
A
100
AcDbDictionary
281
1
  0
ACDBDICTIONARYWDFLT
  5
12
330
A
100
AcDbDictionary
281
1
  3
Normal
350
13
100
AcDbDictionaryWithDefault
340
13
  0
ACDBPLACEHOLDER
  5
13
330
12
  0
DICTIONARY
  5
14
330
A
100
AcDbDictionary
281
1
  0
DICTIONARY
  5
15
330
A
100
AcDbDictionary
281
1
  0
DICTIONARY
  5
16
330
A
100
AcDbDictionary
281
1
  0
LAYOUT
  5
1A
330
D
100
AcDbPlotSettings
  1

  4
A3
  6

 40
7.5
 41
20.0
 42
7.5
 43
20.0
 44
420.0
 45
297.0
 46
0.0
 47
0.0
 48
0.0
 49
0.0
140
0.0
141
0.0
142
1.0
143
1.0
 70
1024
 72
1
 73
0
 74
5
  7

 75
16
 76
0
 77
2
 78
300
147
1.0
148
0.0
149
0.0
100
AcDbLayout
  1
Model
 70
1
 71
0
 10
0.0
 20
0.0
 11
420.0
 21
297.0
 12
0.0
 22
0.0
 32
0.0
 14
1e+20
 24
1e+20
 34
1e+20
 15
-1e+20
 25
-1e+20
 35
-1e+20
146
0.0
 13
0.0
 23
0.0
 33
0.0
 16
1.0
 26
0.0
 36
0.0
 17
0.0
 27
1.0
 37
0.0
 76
1
330
17
  0
LAYOUT
  5
1E
330
D
100
AcDbPlotSettings
  1

  4
A3
  6

 40
7.5
 41
20.0
 42
7.5
 43
20.0
 44
420.0
 45
297.0
 46
0.0
 47
0.0
 48
0.0
 49
0.0
140
0.0
141
0.0
142
1.0
143
1.0
 70
0
 72
1
 73
0
 74
5
  7

 75
16
 76
0
 77
2
 78
300
147
1.0
148
0.0
149
0.0
100
AcDbLayout
  1
Layout1
 70
1
 71
1
 10
0.0
 20
0.0
 11
420.0
 21
297.0
 12
0.0
 22
0.0
 32
0.0
 14
1e+20
 24
1e+20
 34
1e+20
 15
-1e+20
 25
-1e+20
 35
-1e+20
146
0.0
 13
0.0
 23
0.0
 33
0.0
 16
1.0
 26
0.0
 36
0.0
 17
0.0
 27
1.0
 37
0.0
 76
1
330
1B
  0
MATERIAL
  5
1F
102
{ACAD_REACTORS
330
E
102
}
330
E
100
AcDbMaterial
  1
ByBlock
  2

 70
0
 40
1.0
 71
1
 41
1.0
 91
-1023410177
 42
1.0
 72
1
  3

 73
1
 74
1
 75
1
 44
0.5
 73
0
 45
1.0
 46
1.0
 77
1
  4

 78
1
 79
1
170
1
 48
1.0
171
1
  6

172
1
173
1
174
1
140
1.0
141
1.0
175
1
  7

176
1
177
1
178
1
143
1.0
179
1
  8

270
1
271
1
272
1
145
1.0
146
1.0
273
1
  9

274
1
275
1
276
1
 42
1.0
 72
1
  3

 73
1
 74
1
 75
1
 94
63
  0
MATERIAL
  5
20
102
{ACAD_REACTORS
330
E
102
}
330
E
100
AcDbMaterial
  1
ByLayer
  2

 70
0
 40
1.0
 71
1
 41
1.0
 91
-1023410177
 42
1.0
 72
1
  3

 73
1
 74
1
 75
1
 44
0.5
 73
0
 45
1.0
 46
1.0
 77
1
  4

 78
1
 79
1
170
1
 48
1.0
171
1
  6

172
1
173
1
174
1
140
1.0
141
1.0
175
1
  7

176
1
177
1
178
1
143
1.0
179
1
  8

270
1
271
1
272
1
145
1.0
146
1.0
273
1
  9

274
1
275
1
276
1
 42
1.0
 72
1
  3

 73
1
 74
1
 75
1
 94
63
  0
MATERIAL
  5
21
102
{ACAD_REACTORS
330
E
102
}
330
E
100
AcDbMaterial
  1
Global
  2

 70
0
 40
1.0
 71
1
 41
1.0
 91
-1023410177
 42
1.0
 72
1
  3

 73
1
 74
1
 75
1
 44
0.5
 73
0
 45
1.0
 46
1.0
 77
1
  4

 78
1
 79
1
170
1
 48
1.0
171
1
  6

172
1
173
1
174
1
140
1.0
141
1.0
175
1
  7

176
1
177
1
178
1
143
1.0
179
1
  8

270
1
271
1
272
1
145
1.0
146
1.0
273
1
  9

274
1
275
1
276
1
 42
1.0
 72
1
  3

 73
1
 74
1
 75
1
 94
63
  0
MLINESTYLE
  5
22
102
{ACAD_REACTORS
330
10
102
}
330
10
100
AcDbMlineStyle
  2
Standard
 70
0
  3

 62
256
 51
90.0
 52
90.0
 71
2
 49
0.5
 62
256
  6
BYLAYER
 49
-0.5
 62
256
  6
BYLAYER
  0
MLEADERSTYLE
  5
2C
102
{ACAD_REACTORS
330
F
102
}
330
F
100
AcDbMLeaderStyle
179
2
170
2
171
1
172
0
 90
2
 40
0.0
 41
0.0
173
1
 91
-1056964608
 92
-2
290
1
 42
2.0
291
1
 43
8.0
  3
Standard
 44
4.0
300

342
29
174
1
175
1
176
0
178
1
 93
-1056964608
 45
4.0
292
0
297
0
 46
4.0
 94
-1056964608
 47
1.0
 49
1.0
140
1.0
294
1
141
0.0
177
0
142
1.0
295
0
296
0
143
3.75
271
0
272
9
273
9
  0
DICTIONARY
  5
2D
330
A
100
AcDbDictionary
280
1
281
1
  3
CREATED_BY_EZDXF
350
2E
  3
WRITTEN_BY_EZDXF
350
C1
  0
DICTIONARYVAR
  5
2E
330
2D
100
DictionaryVariables
280
0
  1
1.4.4 @ 2026-09-23T06:03:02.431861+00:00
  0
DICTIONARYVAR
  5
C1
330
2D
100
DictionaryVariables
280
0
  1
1.4.4 @ 2026-09-23T06:03:02.513122+00:00
  0
ENDSEC
  0
EOF
