  0
SECTION
  2
HEADER
  9
$ACADVER
  1
AC1032
  9
$ACADMAINTVER
 90
4
  9
$DWGCODEPAGE
  3
ANSI_1252
  9
$LASTSAVEDBY
  1
ezdxf
  9
$REQUIREDVERSIONS
160
0
  9
$INSBASE
 10
0.0
 20
0.0
 30
0.0
  9
$EXTMIN
 10
1e+20
 20
1e+20
 30
1e+20
  9
$EXTMAX
 10
-1e+20
 20
-1e+20
 30
-1e+20
  9
$LIMMIN
 10
0.0
 20
0.0
  9
$LIMMAX
 10
420.0
 20
297.0
  9
$ORTHOMODE
 70
0
  9
$REGENMODE
 70
1
  9
$FILLMODE
 70
1
  9
$QTEXTMODE
 70
0
  9
$MIRRTEXT
 70
1
  9
$LTSCALE
 40
1.0
  9
$ATTMODE
 70
1
  9
$TEXTSIZE
 40
2.5
  9
$TRACEWID
 40
1.0
  9
$TEXTSTYLE
  7
Standard
  9
$CLAYER
  8
0
  9
$CELTYPE
  6
ByLayer
  9
$CECOLOR
 62
256
  9
$CELTSCALE
 40
1.0
  9
$DISPSILH
 70
0
  9
$DIMSCALE
 40
1.0
  9
$DIMASZ
 40
2.5
  9
$DIMEXO
 40
0.625
  9
$DIMDLI
 40
3.75
  9
$DIMRND
 40
0.0
  9
$DIMDLE
 40
0.0
  9
$DIMEXE
 40
1.25
  9
$DIMTP
 40
0.0
  9
$DIMTM
 40
0.0
  9
$DIMTXT
 40
2.5
  9
$DIMCEN
 40
2.5
  9
$DIMTSZ
 40
0.0
  9
$DIMTOL
 70
0
  9
$DIMLIM
 70
0
  9
$DIMTIH
 70
0
  9
$DIMTOH
 70
0
  9
$DIMSE1
 70
0
  9
$DIMSE2
 70
0
  9
$DIMTAD
 70
1
  9
$DIMZIN
 70
8
  9
$DIMBLK
  1

  9
$DIMASO
 70
1
  9
$DIMSHO
 70
1
  9
$DIMPOST
  1

  9
$DIMAPOST
  1

  9
$DIMALT
 70
0
  9
$DIMALTD
 70
3
  9
$DIMALTF
 40
0.03937007874
  9
$DIMLFAC
 40
1.0
  9
$DIMTOFL
 70
1
  9
$DIMTVP
 40
0.0
  9
$DIMTIX
 70
0
  9
$DIMSOXD
 70
0
  9
$DIMSAH
 70
0
  9
$DIMBLK1
  1

  9
$DIMBLK2
  1

  9
$DIMSTYLE
  2
ISO-25
  9
$DIMCLRD
 70
0
  9
$DIMCLRE
 70
0
  9
$DIMCLRT
 70
0
  9
$DIMTFAC
 40
1.0
  9
$DIMGAP
 40
0.625
  9
$DIMJUST
 70
0
  9
$DIMSD1
 70
0
  9
$DIMSD2
 70
0
  9
$DIMTOLJ
 70
0
  9
$DIMTZIN
 70
8
  9
$DIMALTZ
 70
0
  9
$DIMALTTZ
 70
0
  9
$DIMUPT
 70
0
  9
$DIMDEC
 70
2
  9
$DIMTDEC
 70
2
  9
$DIMALTU
 70
2
  9
$DIMALTTD
 70
3
  9
$DIMTXSTY
  7
Standard
  9
$DIMAUNIT
 70
0
  9
$DIMADEC
 70
0
  9
$DIMALTRND
 40
0.0
  9
$DIMAZIN
 70
0
  9
$DIMDSEP
 70
44
  9
$DIMATFIT
 70
3
  9
$DIMFRAC
 70
0
  9
$DIMLDRBLK
  1

  9
$DIMLUNIT
 70
2
  9
$DIMLWD
 70
-2
  9
$DIMLWE
 70
-2
  9
$DIMTMOVE
 70
0
  9
$DIMFXL
 40
1.0
  9
$DIMFXLON
 70
0
  9
$DIMJOGANG
 40
0.785398163397
  9
$DIMTFILL
 70
0
  9
$DIMTFILLCLR
 70
0
  9
$DIMARCSYM
 70
0
  9
$DIMLTYPE
  6

  9
$DIMLTEX1
  6

  9
$DIMLTEX2
  6

  9
$DIMTXTDIRECTION
 70
0
  9
$LUNITS
 70
2
  9
$LUPREC
 70
4
  9
$SKETCHINC
 40
1.0
  9
$FILLETRAD
 40
10.0
  9
$AUNITS
 70
0
  9
$AUPREC
 70
2
  9
$MENU
  1
.
  9
$ELEVATION
 40
0.0
  9
$PELEVATION
 40
0.0
  9
$THICKNESS
 40
0.0
  9
$LIMCHECK
 70
0
  9
$CHAMFERA
 40
0.0
  9
$CHAMFERB
 40
0.0
  9
$CHAMFERC
 40
0.0
  9
$CHAMFERD
 40
0.0
  9
$SKPOLY
 70
0
  9
$TDCREATE
 40
2461307.543645833
  9
$TDUCREATE
 40
2458532.153996898
  9
$TDUPDATE
 40
2461307.543645833
  9
$TDUUPDATE
 40
2458532.1544311
  9
$TDINDWG
 40
0.0
  9
$TDUSRTIMER
 40
0.0
  9
$USRTIMER
 70
1
  9
$ANGBASE
 50
0.0
  9
$ANGDIR
 70
0
  9
$PDMODE
 70
0
  9
$PDSIZE
 40
0.0
  9
$PLINEWID
 40
0.0
  9
$SPLFRAME
 70
0
  9
$SPLINETYPE
 70
6
  9
$SPLINESEGS
 70
8
  9
$HANDSEED
  5
1F6
  9
$SURFTAB1
 70
6
  9
$SURFTAB2
 70
6
  9
$SURFTYPE
 70
6
  9
$SURFU
 70
6
  9
$SURFV
 70
6
  9
$UCSBASE
  2

  9
$UCSNAME
  2

  9
$UCSORG
 10
0.0
 20
0.0
 30
0.0
  9
$UCSXDIR
 10
1.0
 20
0.0
 30
0.0
  9
$UCSYDIR
 10
0.0
 20
1.0
 30
0.0
  9
$UCSORTHOREF
  2

  9
$UCSORTHOVIEW
 70
0
  9
$UCSORGTOP
 10
0.0
 20
0.0
 30
0.0
  9
$UCSORGBOTTOM
 10
0.0
 20
0.0
 30
0.0
  9
$UCSORGLEFT
 10
0.0
 20
0.0
 30
0.0
  9
$UCSORGRIGHT
 10
0.0
 20
0.0
 30
0.0
  9
$UCSORGFRONT
 10
0.0
 20
0.0
 30
0.0
  9
$UCSORGBACK
 10
0.0
 20
0.0
 30
0.0
  9
$PUCSBASE
  2

  9
$PUCSNAME
  2

  9
$PUCSORG
 10
0.0
 20
0.0
 30
0.0
  9
$PUCSXDIR
 10
1.0
 20
0.0
 30
0.0
  9
$PUCSYDIR
 10
0.0
 20
1.0
 30
0.0
  9
$PUCSORTHOREF
  2

  9
$PUCSORTHOVIEW
 70
0
  9
$PUCSORGTOP
 10
0.0
 20
0.0
 30
0.0
  9
$PUCSORGBOTTOM
 10
0.0
 20
0.0
 30
0.0
  9
$PUCSORGLEFT
 10
0.0
 20
0.0
 30
0.0
  9
$PUCSORGRIGHT
 10
0.0
 20
0.0
 30
0.0
  9
$PUCSORGFRONT
 10
0.0
 20
0.0
 30
0.0
  9
$PUCSORGBACK
 10
0.0
 20
0.0
 30
0.0
  9
$USERI1
 70
0
  9
$USERI2
 70
0
  9
$USERI3
 70
0
  9
$USERI4
 70
0
  9
$USERI5
 70
0
  9
$USERR1
 40
0.0
  9
$USERR2
 40
0.0
  9
$USERR3
 40
0.0
  9
$USERR4
 40
0.0
  9
$USERR5
 40
0.0
  9
$WORLDVIEW
 70
1
  9
$SHADEDGE
 70
3
  9
$SHADEDIF
 70
70
  9
$TILEMODE
 70
1
  9
$MAXACTVP
 70
64
  9
$PINSBASE
 10
0.0
 20
0.0
 30
0.0
  9
$PLIMCHECK
 70
0
  9
$PEXTMIN
 10
1e+20
 20
1e+20
 30
1e+20
  9
$PEXTMAX
 10
-1e+20
 20
-1e+20
 30
-1e+20
  9
$PLIMMIN
 10
0.0
 20
0.0
  9
$PLIMMAX
 10
420.0
 20
297.0
  9
$UNITMODE
 70
0
  9
$VISRETAIN
 70
1
  9
$PLINEGEN
 70
0
  9
$PSLTSCALE
 70
1
  9
$TREEDEPTH
 70
3020
  9
$CMLSTYLE
  2
Standard
  9
$CMLJUST
 70
0
  9
$CMLSCALE
 40
20.0
  9
$PROXYGRAPHICS
 70
1
  9
$MEASUREMENT
 70
1
  9
$CELWEIGHT
370
-1
  9
$ENDCAPS
280
0
  9
$JOINSTYLE
280
0
  9
$LWDISPLAY
290
0
  9
$INSUNITS
 70
4
  9
$HYPERLINKBASE
  1

  9
$STYLESHEET
  1

  9
$XEDIT
290
1
  9
$CEPSNTYPE
380
0
  9
$PSTYLEMODE
290
1
  9
$FINGERPRINTGUID
  2
{FB2A3A1B-DFD6-4F2E-8AE9-E53004098581}
  9
$VERSIONGUID
  2
{2334B486-4867-4060-82CD-C993354FD615}
  9
$EXTNAMES
290
1
  9
$PSVPSCALE
 40
0.0
  9
$OLESTARTUP
290
0
  9
$SORTENTS
280
127
  9
$INDEXCTL
280
0
  9
$HIDETEXT
280
1
  9
$XCLIPFRAME
280
1
  9
$HALOGAP
280
0
  9
$OBSCOLOR
 70
257
  9
$OBSLTYPE
280
0
  9
$INTERSECTIONDISPLAY
280
0
  9
$INTERSECTIONCOLOR
 70
257
  9
$DIMASSOC
280
2
  9
$PROJECTNAME
  1

  9
$CAMERADISPLAY
290
0
  9
$LENSLENGTH
 40
50.0
  9
$CAMERAHEIGHT
 40
0.0
  9
$STEPSPERSEC
 40
24.0
  9
$STEPSIZE
 40
100.0
  9
$3DDWFPREC
 40
2.0
  9
$PSOLWIDTH
 40
0.005
  9
$PSOLHEIGHT
 40
0.08
  9
$LOFTANG1
 40
1.570796326795
  9
$LOFTANG2
 40
1.570796326795
  9
$LOFTMAG1
 40
0.0
  9
$LOFTMAG2
 40
0.0
  9
$LOFTPARAM
 70
7
  9
$LOFTNORMALS
280
1
  9
$LATITUDE
 40
37.795
  9
$LONGITUDE
 40
-122.394
  9
$NORTHDIRECTION
 40
0.0
  9
$TIMEZONE
 70
-8000
  9
$LIGHTGLYPHDISPLAY
280
1
  9
$TILEMODELIGHTSYNCH
280
1
  9
$CMATERIAL
347
20
  9
$SOLIDHIST
280
0
  9
$SHOWHIST
280
1
  9
$DWFFRAME
280
2
  9
$DGNFRAME
280
2
  9
$REALWORLDSCALE
290
1
  9
$INTERFERECOLOR
 62
256
  9
$CSHADOW
280
0
  9
$SHADOWPLANELOCATION
 40
0.0
  0
ENDSEC
  0
SECTION
  2
CLASSES
  0
CLASS
  1
ACDBDICTIONARYWDFLT
  2
AcDbDictionaryWithDefault
  3
ObjectDBX Classes
 90
0
 91
0
280
0
281
0
  0
CLASS
  1
SUN
  2
AcDbSun
  3
SCENEOE
 90
1153
 91
0
280
0
281
0
  0
CLASS
  1
VISUALSTYLE
  2
AcDbVisualStyle
  3
ObjectDBX Classes
 90
4095
 91
0
280
0
281
0
  0
CLASS
  1
MATERIAL
  2
AcDbMaterial
  3
ObjectDBX Classes
 90
1153
 91
0
280
0
281
0
  0
CLASS
  1
SCALE
  2
AcDbScale
  3
ObjectDBX Classes
 90
1153
 91
0
280
0
281
0
  0
CLASS
  1
TABLESTYLE
  2
AcDbTableStyle
  3
ObjectDBX Classes
 90
4095
 91
0
280
0
281
0
  0
CLASS
  1
MLEADERSTYLE
  2
AcDbMLeaderStyle
  3
ACDB_MLEADERSTYLE_CLASS
 90
4095
 91
0
280
0
281
0
  0
CLASS
  1
DICTIONARYVAR
  2
AcDbDictionaryVar
  3
ObjectDBX Classes
 90
0
 91
0
280
0
281
0
  0
CLASS
  1
CELLSTYLEMAP
  2
AcDbCellStyleMap
  3
ObjectDBX Classes
 90
1152
 91
0
280
0
281
0
  0
CLASS
  1
MENTALRAYRENDERSETTINGS
  2
AcDbMentalRayRenderSettings
  3
SCENEOE
 90
1024
 91
0
280
0
281
0
  0
CLASS
  1
ACDBDETAILVIEWSTYLE
  2
AcDbDetailViewStyle
  3
ObjectDBX Classes
 90
1025
 91
0
280
0
281
0
  0
CLASS
  1
ACDBSECTIONVIEWSTYLE
  2
AcDbSectionViewStyle
  3
ObjectDBX Classes
 90
1025
 91
0
280
0
281
0
  0
CLASS
  1
RASTERVARIABLES
  2
AcDbRasterVariables
  3
ISM
 90
0
 91
0
280
0
281
0
  0
CLASS
  1
LAYOUT
  2
AcDbLayout
  3
ObjectDBX Classes
 90
0
 91
0
280
0
281
0
  0
CLASS
  1
ACDBPLACEHOLDER
  2
AcDbPlaceHolder
  3
ObjectDBX Classes
 90
0
 91
0
280
0
281
0
  0
ENDSEC
  0
SECTION
  2
TABLES
  0
TABLE
  2
VPORT
  5
8
330
0
100
AcDbSymbolTable
 70
1
  0
VPORT
  5
23
330
8
100
AcDbSymbolTableRecord
100
AcDbViewportTableRecord
  2
*Active
 70
0
 10
0.0
 20
0.0
 11
1.0
 21
1.0
 12
0.0
 22
0.0
 13
0.0
 23
0.0
 14
0.5
 24
0.5
 15
0.5
 25
0.5
 16
0.0
 26
0.0
 36
1.0
 17
0.0
 27
0.0
 37
0.0
 40
1000.0
 41
1.34
 42
50.0
 43
0.0
 44
0.0
 50
0.0
 51
0.0
 71
0
 72
1000
 73
1
 74
3
 75
0
 76
0
 77
0
 78
0
281
0
 65
0
146
0.0
  0
ENDTAB
  0
TABLE
  2
LTYPE
  5
2
330
0
100
AcDbSymbolTable
 70
3
  0
LTYPE
  5
24
330
2
100
AcDbSymbolTableRecord
100
AcDbLinetypeTableRecord
  2
ByBlock
 70
0
  3

 72
65
 73
0
 40
0.0
  0
LTYPE
  5
25
330
2
100
AcDbSymbolTableRecord
100
AcDbLinetypeTableRecord
  2
ByLayer
 70
0
  3

 72
65
 73
0
 40
0.0
  0
LTYPE
  5
26
330
2
100
AcDbSymbolTableRecord
100
AcDbLinetypeTableRecord
  2
Continuous
 70
0
  3

 72
65
 73
0
 40
0.0
  0
ENDTAB
  0
TABLE
  2
LAYER
  5
1
330
0
100
AcDbSymbolTable
 70
2
  0
LAYER
  5
27
330
1
100
AcDbSymbolTableRecord
100
AcDbLayerTableRecord
  2
0
 70
0
 62
7
  6
Continuous
370
-3
390
13
347
21
  0
LAYER
  5
28
330
1
100
AcDbSymbolTableRecord
100
AcDbLayerTableRecord
  2
Defpoints
 70
0
 62
7
  6
Continuous
290
0
370
-3
390
13
347
21
  0
ENDTAB
  0
TABLE
  2
STYLE
  5
5
330
0
100
AcDbSymbolTable
 70
2
  0
STYLE
  5
29
330
5
100
AcDbSymbolTableRecord
100
AcDbTextStyleTableRecord
  2
Standard
 70
0
 40
0.0
 41
1.0
 50
0.0
 71
0
 42
2.5
  3
txt
  4

  0
STYLE
  5
1F0
330
5
100
AcDbSymbolTableRecord
100
AcDbTextStyleTableRecord
  2
ss
 70
0
 40
2.5
 41
1.0
 50
0.0
 71
0
 42
2.5
  3
romans.shx
  4
gsg1.shx
  0
ENDTAB
  0
TABLE
  2
VIEW
  5
7
330
0
100
AcDbSymbolTable
 70
0
  0
ENDTAB
  0
TABLE
  2
UCS
  5
6
330
0
100
AcDbSymbolTable
 70
0
  0
ENDTAB
  0
TABLE
  2
APPID
  5
3
330
0
100
AcDbSymbolTable
 70
3
  0
APPID
  5
2A
330
3
100
AcDbSymbolTableRecord
100
AcDbRegAppTableRecord
  2
ACAD
 70
0
  0
APPID
  5
1F3
330
3
100
AcDbSymbolTableRecord
100
AcDbRegAppTableRecord
  2
HATCHBACKGROUNDCOLOR
 70
0
  0
APPID
  5
1F4
330
3
100
AcDbSymbolTableRecord
100
AcDbRegAppTableRecord
  2
EZDXF
 70
0
  0
ENDTAB
  0
TABLE
  2
DIMSTYLE
  5
4
330
0
100
AcDbSymbolTable
 70
1
100
AcDbDimStyleTable
  0
DIMSTYLE
105
2B
330
4
100
AcDbSymbolTableRecord
100
AcDbDimStyleTableRecord
  2
Standard
 70
0
 40
1.0
 41
2.5
 42
0.625
 43
3.75
 44
1.25
 45
0.0
 46
0.0
 47
0.0
 48
0.0
 49
2.5
140
2.5
141
2.5
142
0.0
143
0.03937007874
144
1.0
145
0.0
146
1.0
147
0.625
148
0.0
 69
0
 70
0
 71
0
 72
0
 73
0
 74
0
 75
0
 76
0
 77
1
 78
8
 79
3
170
0
171
3
172
1
173
0
174
0
175
0
176
0
177
0
178
0
179
2
271
2
272
2
273
2
274
3
275
0
276
0
277
2
278
44
279
0
280
0
281
0
282
0
283
0
284
8
285
0
286
0
288
0
289
3
290
0
371
-2
372
-2
  0
ENDTAB
  0
TABLE
  2
BLOCK_RECORD
  5
9
330
0
100
AcDbSymbolTable
 70
3
  0
BLOCK_RECORD
  5
17
330
9
100
AcDbSymbolTableRecord
100
AcDbBlockTableRecord
  2
*Model_Space
340
1A
 70
0
280
1
281
0
  0
BLOCK_RECORD
  5
1B
330
9
100
AcDbSymbolTableRecord
100
AcDbBlockTableRecord
  2
*Paper_Space
340
1E
 70
0
280
1
281
0
  0
BLOCK_RECORD
  5
2F
330
9
100
AcDbSymbolTableRecord
100
AcDbBlockTableRecord
  2
MC 265a
340
0
 70
0
280
1
281
0
  0
ENDTAB
  0
ENDSEC
  0
SECTION
  2
BLOCKS
  0
BLOCK
  5
18
330
17
100
AcDbEntity
  8
0
100
AcDbBlockBegin
  2
*Model_Space
 70
0
 10
0.0
 20
0.0
 30
0.0
  3
*Model_Space
  1

  0
ENDBLK
  5
19
330
17
100
AcDbEntity
  8
0
100
AcDbBlockEnd
  0
BLOCK
  5
1C
330
1B
100
AcDbEntity
  8
0
100
AcDbBlockBegin
  2
*Paper_Space
 70
0
 10
0.0
 20
0.0
 30
0.0
  3
*Paper_Space
  1

  0
ENDBLK
  5
1D
330
1B
100
AcDbEntity
  8
0
100
AcDbBlockEnd
  0
BLOCK
  5
30
330
2F
100
AcDbEntity
  8
0
100
AcDbBlockBegin
  2
MC 265a
 70
0
 10
0.0
 20
0.0
 30
0.0
  3
MC 265a
  1

  0
LWPOLYLINE
  5
32
330
2F
100
AcDbEntity
  8
0
 62
7
100
AcDbPolyline
 90
2
 70
0
 10
3751.469938650306
 20
411.6851520572452
 10
3720.461349693252
 20
411.6851520572452
  0
LWPOLYLINE
  5
33
330
2F
100
AcDbEntity
  8
0
 62
7
100
AcDbPolyline
 90
2
 70
0
 10
3709.28036809816
 20
411.6851520572452
 10
3659.189570552147
 20
411.6851520572452
  0
LWPOLYLINE
  5
34
330
2F
100
AcDbEntity
  8
0
 62
7
100
AcDbPolyline
 90
2
 70
0
 10
3648.008588957055
 20
411.6851520572452
 10
3617.0
 20
411.6851520572452
  0
LWPOLYLINE
  5
35
330
2F
100
AcDbEntity
  8
0
 62
7
100
AcDbPolyline
 90
10
 70
0
 10
3605.520858895707
 20
411.6851520572452
 10
3605.222699386504
 20
411.6851520572452
 42
-0.4142135623730951
 10
3602.837423312884
 20
414.0704281308647
 10
3602.837423312884
 20
652.1507962290243
 42
-0.4142135623730951
 10
3605.222699386504
 20
654.536072302644
 10
3763.247239263804
 20
654.536072302644
 42
-0.4142135623730951
 10
3765.632515337423
 20
652.1507962290243
 10
3765.632515337423
 20
414.0704281308647
 42
-0.4142135623730951
 10
3763.247239263804
 20
411.6851520572452
 10
3762.949079754601
 20
411.6851520572452
  0
LWPOLYLINE
  5
36
330
2F
100
AcDbEntity
  8
0
 62
7
100
AcDbPolyline
 90
5
 70
0
 10
3614.018404907977
 20
613.5391397873065
 10
3614.018404907977
 20
648.2747226093923
 10
3643.983435582822
 20
648.2747226093923
 10
3643.983435582822
 20
612.495581505098
 10
3621.472392638036
 20
612.495581505098
  0
CIRCLE
  5
37
330
2F
100
AcDbEntity
  8
0
 62
7
100
AcDbCircle
 10
3629.224539877301
 20
633.515826903871
 30
0.0
 40
7.21151643988913
  0
ARC
  5
38
330
2F
100
AcDbEntity
  8
0
 62
7
100
AcDbCircle
 10
3611.334969325155
 20
645.5912870265704
 30
0.0
 40
4.939919129772706
100
AcDbArc
 50
32.90273144284046
 51
302.9027314428704
  0
LWPOLYLINE
  5
39
330
2F
100
AcDbEntity
  8
0
 62
7
100
AcDbPolyline
 90
4
 70
1
 10
3669.02883435583
 20
648.2747226093923
 10
3698.993865030675
 20
648.2747226093923
 10
3698.993865030675
 20
612.495581505098
 10
3669.02883435583
 20
612.495581505098
  0
CIRCLE
  5
3A
330
2F
100
AcDbEntity
  8
0
 62
7
100
AcDbCircle
 10
3684.234969325153
 20
633.515826903871
 30
0.0
 40
7.21151643988913
  0
LINE
  5
3B
330
2F
100
AcDbEntity
  8
0
 62
7
100
AcDbLine
 10
3643.983435582822
 20
612.495581505098
 30
0.0
 11
3669.02883435583
 21
612.495581505098
 31
0.0
  0
LINE
  5
3C
330
2F
100
AcDbEntity
  8
0
 62
7
100
AcDbLine
 10
3643.983435582822
 20
627.701716474423
 30
0.0
 11
3669.02883435583
 21
627.701716474423
 31
0.0
  0
LINE
  5
3D
330
2F
100
AcDbEntity
  8
0
 62
7
100
AcDbLine
 10
3643.983435582822
 20
614.7317778241163
 30
0.0
 11
3669.02883435583
 21
614.7317778241163
 31
0.0
  0
LWPOLYLINE
  5
3E
330
2F
100
AcDbEntity
  8
0
 62
7
100
AcDbPolyline
 90
4
 70
1
 10
3655.611656441718
 20
627.701716474423
 10
3667.239877300614
 20
627.701716474423
 10
3667.239877300614
 20
616.5207348793311
 10
3655.611656441718
 20
616.5207348793311
  0
LINE
  5
3F
330
2F
100
AcDbEntity
  8
0
 62
7
100
AcDbLine
 10
3655.611656441718
 20
625.0182808916011
 30
0.0
 11
3667.239877300614
 21
625.0182808916011
 31
0.0
  0
LINE
  5
40
330
2F
100
AcDbEntity
  8
0
 62
7
100
AcDbLine
 10
3656.953374233129
 20
625.0182808916009
 30
0.0
 11
3656.953374233129
 21
616.5207348793311
 31
0.0
  0
LINE
  5
41
330
2F
100
AcDbEntity
  8
0
 62
7
100
AcDbLine
 10
3665.898159509203
 20
625.0182808916009
 30
0.0
 11
3665.898159509203
 21
616.5207348793311
 31
0.0
  0
CIRCLE
  5
42
330
2F
100
AcDbEntity
  8
0
 62
7
100
AcDbCircle
 10
3661.425766871165
 20
620.9931275173678
 30
0.0
 40
3.130674846625766
  0
LINE
  5
43
330
2F
100
AcDbEntity
  8
0
 62
7
100
AcDbLine
 10
3656.953374233129
 20
620.769507885466
 30
0.0
 11
3658.30308865279
 21
620.769507885466
 31
0.0
  0
LINE
  5
44
330
2F
100
AcDbEntity
  8
0
 62
7
100
AcDbLine
 10
3664.548445089542
 20
620.769507885466
 30
0.0
 11
3665.898159509203
 21
620.769507885466
 31
0.0
  0
LINE
  5
45
330
2F
100
AcDbEntity
  8
0
 62
7
100
AcDbLine
 10
3665.898159509203
 20
621.8876060449753
 30
0.0
 11
3664.425939059382
 21
621.8876060449753
 31
0.0
  0
LINE
  5
46
330
2F
100
AcDbEntity
  8
0
 62
7
100
AcDbLine
 10
3658.42559468295
 20
621.8876060449753
 30
0.0
 11
3656.953374233129
 21
621.8876060449753
 31
0.0
  0
LINE
  5
47
330
2F
100
AcDbEntity
  8
0
 62
7
100
AcDbLine
 10
3660.978527607362
 20
625.0182808916011
 30
0.0
 11
3660.978527607362
 21
624.0916920295587
 31
0.0
  0
LINE
  5
48
330
2F
100
AcDbEntity
  8
0
 62
7
100
AcDbLine
 10
3660.978527607362
 20
617.8945630051771
 30
0.0
 11
3660.978527607362
 21
616.5207348793311
 31
0.0
  0
LINE
  5
49
330
2F
100
AcDbEntity
  8
0
 62
7
100
AcDbLine
 10
3662.320245398774
 20
625.0182808916011
 30
0.0
 11
3662.320245398774
 21
623.9932997055839
 31
0.0
  0
LINE
  5
4A
330
2F
100
AcDbEntity
  8
0
 62
7
100
AcDbLine
 10
3662.320245398774
 20
617.9929553291518
 30
0.0
 11
3662.320245398774
 21
616.5207348793311
 31
0.0
  0
LINE
  5
4B
330
2F
100
AcDbEntity
  8
0
 62
7
100
AcDbLine
 10
3659.212045457426
 20
623.206848931107
 30
0.0
 11
3661.187088822262
 21
621.0441116261944
 31
0.0
  0
LINE
  5
4C
330
2F
100
AcDbEntity
  8
0
 62
7
100
AcDbLine
 10
3661.625906678491
 20
620.563591671734
 30
0.0
 11
3663.485907682904
 21
618.635810221987
 31
0.0
  0
LINE
  5
4D
330
2F
100
AcDbEntity
  8
0
 62
7
100
AcDbLine
 10
3660.084049079756
 20
620.0986489897606
 30
0.0
 11
3661.187088822262
 21
621.0441116261946
 31
0.0
  0
LINE
  5
4E
330
2F
100
AcDbEntity
  8
0
 62
7
100
AcDbLine
 10
3661.701372570711
 20
621.4849262677216
 30
0.0
 11
3662.733081642283
 21
622.3692483290716
 31
0.0
  0
LINE
  5
4F
330
2F
100
AcDbEntity
  8
0
 62
7
100
AcDbLine
 10
3662.733081642283
 20
622.3692483290715
 30
0.0
 11
3663.214723926382
 21
621.8876060449753
 31
0.0
  0
LINE
  5
50
330
2F
100
AcDbEntity
  8
0
 62
7
100
AcDbLine
 10
3663.214723926382
 20
621.8876060449753
 30
0.0
 11
3662.149781097439
 21
621.0001536875251
 31
0.0
  0
LINE
  5
51
330
2F
100
AcDbEntity
  8
0
 62
7
100
AcDbLine
 10
3661.625906678491
 20
620.5635916717339
 30
0.0
 11
3660.531288343558
 21
619.6514097259567
 31
0.0
  0
LINE
  5
52
330
2F
100
AcDbEntity
  8
0
 62
7
100
AcDbLine
 10
3660.531288343558
 20
619.6514097259567
 30
0.0
 11
3660.084049079756
 21
620.0986489897602
 31
0.0
  0
LINE
  5
53
330
2F
100
AcDbEntity
  8
0
 62
7
100
AcDbLine
 10
3659.725023759242
 20
623.6215486903416
 30
0.0
 11
3661.701372570711
 21
621.4849262677216
 31
0.0
  0
LINE
  5
54
330
2F
100
AcDbEntity
  8
0
 62
7
100
AcDbLine
 10
3662.149781097439
 20
621.0001536875254
 30
0.0
 11
3663.913870063348
 21
619.0930044949424
 31
0.0
  0
LINE
  5
55
330
2F
100
AcDbEntity
  8
0
 62
7
100
AcDbLine
 10
3614.018404907977
 20
613.5391397873065
 30
0.0
 11
3619.683435582822
 21
613.5391397873065
 31
0.0
  0
ARC
  5
56
330
2F
100
AcDbEntity
  8
0
 62
7
100
AcDbCircle
 10
3619.429999999999
 20
611.049507885466
 30
0.0
 40
2.502498072187526
100
AcDbArc
 50
35.29960805605628
 51
84.18751761692197
  0
LINE
  5
57
330
2F
100
AcDbEntity
  8
0
 62
7
100
AcDbLine
 10
3621.472392638036
 20
612.495581505098
 30
0.0
 11
3616.8509202454
 21
612.495581505098
 31
0.0
  0
ARC
  5
58
330
2F
100
AcDbEntity
  8
0
 62
7
100
AcDbCircle
 10
3617.580626412659
 20
610.7105476013201
 30
0.0
 40
1.928423482581451
100
AcDbArc
 50
112.2343123139228
 51
184.5506831935786
  0
LINE
  5
59
330
2F
100
AcDbEntity
  8
0
 62
7
100
AcDbLine
 10
3650.095705521472
 20
640.8207348793311
 30
0.0
 11
3657.400613496932
 21
633.9630661676745
 31
0.0
  0
ARC
  5
5A
330
2F
100
AcDbEntity
  8
0
 62
7
100
AcDbCircle
 10
3653.912790748996
 20
643.3003923803243
 30
0.0
 40
4.551795355286688
100
AcDbArc
 50
59.71926849447897
 51
213.0085865686872
  0
LINE
  5
5B
330
2F
100
AcDbEntity
  8
0
 62
7
100
AcDbLine
 10
3656.207975460123
 20
647.2311643271837
 30
0.0
 11
3662.916564417179
 21
640.3734956155273
 31
0.0
  0
ARC
  5
5C
330
2F
100
AcDbEntity
  8
0
 62
7
100
AcDbCircle
 10
3659.205687282374
 20
637.9882195419077
 30
0.0
 40
4.411366121394771
100
AcDbArc
 50
245.8462247044498
 51
32.73208195316995
  0
ARC
  5
5D
330
2F
100
AcDbEntity
  8
0
 62
7
100
AcDbCircle
 10
3607.942727272727
 20
621.9513037583047
 30
0.0
 40
5.880327680919846
100
AcDbArc
 50
102.0661659108506
 51
150.2502049687917
  0
LINE
  5
5E
330
2F
100
AcDbEntity
  8
0
 62
7
100
AcDbLine
 10
3606.713496932516
 20
627.701716474423
 30
0.0
 11
3614.018404907977
 21
627.701716474423
 31
0.0
  0
LWPOLYLINE
  5
5F
330
2F
100
AcDbEntity
  8
0
 62
7
100
AcDbPolyline
 90
5
 70
0
 10
3754.451533742332
 20
613.5391397873065
 10
3754.451533742332
 20
648.2747226093923
 10
3724.486503067485
 20
648.2747226093923
 10
3724.486503067485
 20
612.495581505098
 10
3746.99754601227
 20
612.495581505098
  0
CIRCLE
  5
60
330
2F
100
AcDbEntity
  8
0
 62
7
100
AcDbCircle
 10
3739.245398773006
 20
633.515826903871
 30
0.0
 40
7.21151643988913
  0
ARC
  5
61
330
2F
100
AcDbEntity
  8
0
 62
7
100
AcDbCircle
 10
3757.134969325154
 20
645.5912870265704
 30
0.0
 40
4.939919129772706
100
AcDbArc
 50
237.097268557114
 51
147.0972685571595
  0
LINE
  5
62
330
2F
100
AcDbEntity
  8
0
 62
7
100
AcDbLine
 10
3724.486503067485
 20
612.495581505098
 30
0.0
 11
3699.441104294479
 21
612.495581505098
 31
0.0
  0
LINE
  5
63
330
2F
100
AcDbEntity
  8
0
 62
7
100
AcDbLine
 10
3724.486503067485
 20
627.701716474423
 30
0.0
 11
3699.441104294479
 21
627.701716474423
 31
0.0
  0
LINE
  5
64
330
2F
100
AcDbEntity
  8
0
 62
7
100
AcDbLine
 10
3724.486503067485
 20
614.7317778241163
 30
0.0
 11
3699.441104294479
 21
614.7317778241163
 31
0.0
  0
LWPOLYLINE
  5
65
330
2F
100
AcDbEntity
  8
0
 62
7
100
AcDbPolyline
 90
4
 70
1
 10
3712.858282208589
 20
627.701716474423
 10
3701.230061349694
 20
627.701716474423
 10
3701.230061349694
 20
616.5207348793311
 10
3712.858282208589
 20
616.5207348793311
  0
LINE
  5
66
330
2F
100
AcDbEntity
  8
0
 62
7
100
AcDbLine
 10
3712.858282208589
 20
625.0182808916011
 30
0.0
 11
3701.230061349694
 21
625.0182808916011
 31
0.0
  0
LINE
  5
67
330
2F
100
AcDbEntity
  8
0
 62
7
100
AcDbLine
 10
3711.516564417178
 20
625.0182808916009
 30
0.0
 11
3711.516564417178
 21
616.5207348793311
 31
0.0
  0
LINE
  5
68
330
2F
100
AcDbEntity
  8
0
 62
7
100
AcDbLine
 10
3702.571779141105
 20
625.0182808916009
 30
0.0
 11
3702.571779141105
 21
616.5207348793311
 31
0.0
  0
CIRCLE
  5
69
330
2F
100
AcDbEntity
  8
0
 62
7
100
AcDbCircle
 10
3707.044171779142
 20
620.9931275173678
 30
0.0
 40
3.130674846625766
  0
LINE
  5
6A
330
2F
100
AcDbEntity
  8
0
 62
7
100
AcDbLine
 10
3711.516564417178
 20
620.769507885466
 30
0.0
 11
3710.166849997518
 21
620.769507885466
 31
0.0
  0
LINE
  5
6B
330
2F
100
AcDbEntity
  8
0
 62
7
100
AcDbLine
 10
3703.921493560765
 20
620.769507885466
 30
0.0
 11
3702.571779141105
 21
620.769507885466
 31
0.0
  0
LINE
  5
6C
330
2F
100
AcDbEntity
  8
0
 62
7
100
AcDbLine
 10
3702.571779141105
 20
621.8876060449753
 30
0.0
 11
3704.043999590926
 21
621.8876060449753
 31
0.0
  0
LINE
  5
6D
330
2F
100
AcDbEntity
  8
0
 62
7
100
AcDbLine
 10
3710.044343967358
 20
621.8876060449753
 30
0.0
 11
3711.516564417178
 21
621.8876060449753
 31
0.0
  0
LINE
  5
6E
330
2F
100
AcDbEntity
  8
0
 62
7
100
AcDbLine
 10
3707.491411042945
 20
625.0182808916011
 30
0.0
 11
3707.491411042945
 21
624.0916920295587
 31
0.0
  0
LINE
  5
6F
330
2F
100
AcDbEntity
  8
0
 62
7
100
AcDbLine
 10
3707.491411042945
 20
617.8945630051771
 30
0.0
 11
3707.491411042945
 21
616.5207348793311
 31
0.0
  0
LINE
  5
70
330
2F
100
AcDbEntity
  8
0
 62
7
100
AcDbLine
 10
3706.149693251534
 20
625.0182808916011
 30
0.0
 11
3706.149693251534
 21
623.9932997055839
 31
0.0
  0
LINE
  5
71
330
2F
100
AcDbEntity
  8
0
 62
7
100
AcDbLine
 10
3706.149693251534
 20
617.9929553291518
 30
0.0
 11
3706.149693251534
 21
616.5207348793311
 31
0.0
  0
LINE
  5
72
330
2F
100
AcDbEntity
  8
0
 62
7
100
AcDbLine
 10
3709.257893192881
 20
623.206848931107
 30
0.0
 11
3707.282849828045
 21
621.0441116261944
 31
0.0
  0
LINE
  5
73
330
2F
100
AcDbEntity
  8
0
 62
7
100
AcDbLine
 10
3706.844031971816
 20
620.563591671734
 30
0.0
 11
3704.984030967402
 21
618.635810221987
 31
0.0
  0
LINE
  5
74
330
2F
100
AcDbEntity
  8
0
 62
7
100
AcDbLine
 10
3708.385889570552
 20
620.0986489897606
 30
0.0
 11
3707.282849828045
 21
621.0441116261946
 31
0.0
  0
LINE
  5
75
330
2F
100
AcDbEntity
  8
0
 62
7
100
AcDbLine
 10
3706.768566079598
 20
621.4849262677216
 30
0.0
 11
3705.736857008023
 21
622.3692483290716
 31
0.0
  0
LINE
  5
76
330
2F
100
AcDbEntity
  8
0
 62
7
100
AcDbLine
 10
3705.736857008023
 20
622.3692483290715
 30
0.0
 11
3705.255214723928
 21
621.8876060449753
 31
0.0
  0
LINE
  5
77
330
2F
100
AcDbEntity
  8
0
 62
7
100
AcDbLine
 10
3705.255214723928
 20
621.8876060449753
 30
0.0
 11
3706.320157552867
 21
621.0001536875251
 31
0.0
  0
LINE
  5
78
330
2F
100
AcDbEntity
  8
0
 62
7
100
AcDbLine
 10
3706.844031971816
 20
620.5635916717339
 30
0.0
 11
3707.938650306748
 21
619.6514097259567
 31
0.0
  0
LINE
  5
79
330
2F
100
AcDbEntity
  8
0
 62
7
100
AcDbLine
 10
3707.938650306748
 20
619.6514097259567
 30
0.0
 11
3708.385889570552
 21
620.0986489897602
 31
0.0
  0
LINE
  5
7A
330
2F
100
AcDbEntity
  8
0
 62
7
100
AcDbLine
 10
3708.744914891067
 20
623.6215486903416
 30
0.0
 11
3706.768566079598
 21
621.4849262677216
 31
0.0
  0
LINE
  5
7B
330
2F
100
AcDbEntity
  8
0
 62
7
100
AcDbLine
 10
3706.320157552867
 20
621.0001536875254
 30
0.0
 11
3704.55606858696
 21
619.0930044949424
 31
0.0
  0
LINE
  5
7C
330
2F
100
AcDbEntity
  8
0
 62
7
100
AcDbLine
 10
3754.451533742332
 20
613.5391397873065
 30
0.0
 11
3748.786503067485
 21
613.5391397873065
 31
0.0
  0
ARC
  5
7D
330
2F
100
AcDbEntity
  8
0
 62
7
100
AcDbCircle
 10
3749.039938650307
 20
611.049507885466
 30
0.0
 40
2.502498072187526
100
AcDbArc
 50
95.812482383078
 51
144.7003919439218
  0
LINE
  5
7E
330
2F
100
AcDbEntity
  8
0
 62
7
100
AcDbLine
 10
3746.99754601227
 20
612.495581505098
 30
0.0
 11
3751.619018404908
 21
612.495581505098
 31
0.0
  0
ARC
  5
7F
330
2F
100
AcDbEntity
  8
0
 62
7
100
AcDbCircle
 10
3750.889312237649
 20
610.7105476013201
 30
0.0
 40
1.928423482581451
100
AcDbArc
 50
355.4493168064468
 51
67.7656876860772
  0
LINE
  5
80
330
2F
100
AcDbEntity
  8
0
 62
7
100
AcDbLine
 10
3718.374233128834
 20
640.8207348793311
 30
0.0
 11
3711.069325153374
 21
633.9630661676745
 31
0.0
  0
ARC
  5
81
330
2F
100
AcDbEntity
  8
0
 62
7
100
AcDbCircle
 10
3714.557147901312
 20
643.3003923803243
 30
0.0
 40
4.551795355286688
100
AcDbArc
 50
326.9914134313128
 51
120.280731505521
  0
LINE
  5
82
330
2F
100
AcDbEntity
  8
0
 62
7
100
AcDbLine
 10
3712.261963190184
 20
647.2311643271837
 30
0.0
 11
3705.55337423313
 21
640.3734956155273
 31
0.0
  0
ARC
  5
83
330
2F
100
AcDbEntity
  8
0
 62
7
100
AcDbCircle
 10
3709.264251367932
 20
637.9882195419077
 30
0.0
 40
4.411366121394771
100
AcDbArc
 50
147.2679180468047
 51
294.1537752955503
  0
ARC
  5
84
330
2F
100
AcDbEntity
  8
0
 62
7
100
AcDbCircle
 10
3760.527211377579
 20
621.9513037583047
 30
0.0
 40
5.880327680919846
100
AcDbArc
 50
29.7497950312083
 51
77.93383408914936
  0
LINE
  5
85
330
2F
100
AcDbEntity
  8
0
 62
7
100
AcDbLine
 10
3761.756441717792
 20
627.701716474423
 30
0.0
 11
3754.451533742332
 21
627.701716474423
 31
0.0
  0
LWPOLYLINE
  5
86
330
2F
100
AcDbEntity
  8
0
 62
7
100
AcDbPolyline
 90
4
 70
1
 10
3724.486503067485
 20
624.8692011369999
 10
3713.454601226994
 20
624.8692011369999
 10
3713.454601226994
 20
617.4152134069385
 10
3724.486503067485
 20
617.4152134069385
  0
CIRCLE
  5
87
330
2F
100
AcDbEntity
  8
0
 62
7
100
AcDbCircle
 10
3609.247852760738
 20
600.7182808916011
 30
0.0
 40
5.068711656441716
  0
CIRCLE
  5
88
330
2F
100
AcDbEntity
  8
0
 62
7
100
AcDbCircle
 10
3609.247852760738
 20
600.7182808916011
 30
0.0
 40
6.410429447852759
  0
LINE
  5
89
330
2F
100
AcDbEntity
  8
0
 62
7
100
AcDbLine
 10
3615.658282208589
 20
610.5575446952821
 30
0.0
 11
3615.658282208589
 21
455.5145999100065
 31
0.0
  0
LINE
  5
8A
330
2F
100
AcDbEntity
  8
0
 62
7
100
AcDbLine
 10
3609.247852760738
 20
607.1287103394538
 30
0.0
 11
3602.837423312884
 21
607.1287103394538
 31
0.0
  0
LINE
  5
8B
330
2F
100
AcDbEntity
  8
0
 62
7
100
AcDbLine
 10
3609.247852760738
 20
594.3078514437482
 30
0.0
 11
3602.837423312884
 21
594.3078514437482
 31
0.0
  0
LWPOLYLINE
  5
8C
330
2F
100
AcDbEntity
  8
0
 62
7
100
AcDbPolyline
 90
4
 70
0
 10
3609.170331288345
 20
601.666428130865
 10
3611.317079754603
 20
603.276489480558
 10
3612.211558282209
 20
602.0838514437484
 10
3610.064809815951
 20
600.4737900940551
  0
LWPOLYLINE
  5
8D
330
2F
100
AcDbEntity
  8
0
 62
7
100
AcDbPolyline
 90
4
 70
0
 10
3609.110699386504
 20
599.7582072719692
 10
3606.725423312884
 20
597.9692502167543
 10
3605.830944785277
 20
599.1618882535641
 10
3608.216220858896
 20
600.9508453087789
  0
LWPOLYLINE
  5
8E
330
2F
100
AcDbEntity
  8
0
 62
7
100
AcDbPolyline
 90
4
 70
0
 10
3610.064809815951
 20
600.4737900940551
 10
3611.585423312884
 20
598.4463054314783
 10
3610.631312883435
 20
597.7307226093927
 10
3609.110699386504
 20
599.7582072719692
  0
LWPOLYLINE
  5
8F
330
2F
100
AcDbEntity
  8
0
 62
7
100
AcDbPolyline
 90
4
 70
0
 10
3608.216220858896
 20
600.9508453087792
 10
3606.695607361963
 20
602.9783299713557
 10
3607.649717791411
 20
603.6939127934418
 10
3609.170331288345
 20
601.6664281308649
  0
LINE
  5
90
330
2F
100
AcDbEntity
  8
0
 62
7
100
AcDbLine
 10
3602.837423312884
 20
569.4115324253434
 30
0.0
 11
3615.658282208589
 21
569.4115324253434
 31
0.0
  0
CIRCLE
  5
91
330
2F
100
AcDbEntity
  8
0
 62
7
100
AcDbCircle
 10
3609.098773006135
 20
564.640980278104
 30
0.0
 40
3.269574272680427
  0
CIRCLE
  5
92
330
2F
100
AcDbEntity
  8
0
 62
7
100
AcDbCircle
 10
3609.098773006135
 20
564.640980278104
 30
0.0
 40
3.42883435582822
  0
LINE
  5
93
330
2F
100
AcDbEntity
  8
0
 62
7
100
AcDbLine
 10
3610.291411042946
 20
566.8771765971225
 30
0.0
 11
3611.334969325155
 21
565.9826980695152
 31
0.0
  0
LINE
  5
94
330
2F
100
AcDbEntity
  8
0
 62
7
100
AcDbLine
 10
3611.334969325155
 20
565.9826980695152
 30
0.0
 11
3610.067791411043
 21
564.7155201554046
 31
0.0
  0
LINE
  5
95
330
2F
100
AcDbEntity
  8
0
 62
7
100
AcDbLine
 10
3609.173312883437
 20
563.8210416277972
 30
0.0
 11
3607.906134969325
 21
562.553863713687
 31
0.0
  0
LINE
  5
96
330
2F
100
AcDbEntity
  8
0
 62
7
100
AcDbLine
 10
3607.906134969325
 20
562.553863713687
 30
0.0
 11
3606.937116564417
 21
563.5228821185949
 31
0.0
  0
LINE
  5
97
330
2F
100
AcDbEntity
  8
0
 62
7
100
AcDbLine
 10
3606.937116564417
 20
563.5228821185949
 30
0.0
 11
3608.204294478527
 21
564.7900600327052
 31
0.0
  0
LINE
  5
98
330
2F
100
AcDbEntity
  8
0
 62
7
100
AcDbLine
 10
3609.098773006135
 20
565.6845385603125
 30
0.0
 11
3610.291411042946
 21
566.8771765971225
 31
0.0
  0
LINE
  5
99
330
2F
100
AcDbEntity
  8
0
 62
7
100
AcDbLine
 10
3607.011656441719
 20
565.9826980695152
 30
0.0
 11
3607.906134969325
 21
566.8771765971225
 31
0.0
  0
LINE
  5
9A
330
2F
100
AcDbEntity
  8
0
 62
7
100
AcDbLine
 10
3607.906134969325
 20
566.8771765971225
 30
0.0
 11
3609.098773006135
 21
565.6845385603125
 31
0.0
  0
LINE
  5
9B
330
2F
100
AcDbEntity
  8
0
 62
7
100
AcDbLine
 10
3610.067791411043
 20
564.7155201554046
 30
0.0
 11
3611.334969325155
 21
563.4483422412942
 31
0.0
  0
LINE
  5
9C
330
2F
100
AcDbEntity
  8
0
 62
7
100
AcDbLine
 10
3611.334969325155
 20
563.4483422412942
 30
0.0
 11
3610.440490797546
 21
562.553863713687
 31
0.0
  0
LINE
  5
9D
330
2F
100
AcDbEntity
  8
0
 62
7
100
AcDbLine
 10
3610.440490797546
 20
562.553863713687
 30
0.0
 11
3609.173312883437
 21
563.8210416277972
 31
0.0
  0
LINE
  5
9E
330
2F
100
AcDbEntity
  8
0
 62
7
100
AcDbLine
 10
3608.204294478527
 20
564.7900600327052
 30
0.0
 11
3607.011656441719
 21
565.9826980695152
 31
0.0
  0
CIRCLE
  5
9F
330
2F
100
AcDbEntity
  8
0
 62
7
100
AcDbCircle
 10
3609.098773006135
 20
556.4415937750366
 30
0.0
 40
3.269574272680427
  0
CIRCLE
  5
A0
330
2F
100
AcDbEntity
  8
0
 62
7
100
AcDbCircle
 10
3609.098773006135
 20
556.4415937750366
 30
0.0
 40
3.42883435582822
  0
LINE
  5
A1
330
2F
100
AcDbEntity
  8
0
 62
7
100
AcDbLine
 10
3610.291411042946
 20
558.677790094055
 30
0.0
 11
3611.334969325155
 21
557.7833115664477
 31
0.0
  0
LINE
  5
A2
330
2F
100
AcDbEntity
  8
0
 62
7
100
AcDbLine
 10
3611.334969325155
 20
557.7833115664477
 30
0.0
 11
3610.067791411043
 21
556.5161336523372
 31
0.0
  0
LINE
  5
A3
330
2F
100
AcDbEntity
  8
0
 62
7
100
AcDbLine
 10
3609.173312883437
 20
555.6216551247298
 30
0.0
 11
3607.906134969325
 21
554.3544772106193
 31
0.0
  0
LINE
  5
A4
330
2F
100
AcDbEntity
  8
0
 62
7
100
AcDbLine
 10
3607.906134969325
 20
554.3544772106193
 30
0.0
 11
3606.937116564417
 21
555.3234956155273
 31
0.0
  0
LINE
  5
A5
330
2F
100
AcDbEntity
  8
0
 62
7
100
AcDbLine
 10
3606.937116564417
 20
555.3234956155273
 30
0.0
 11
3608.204294478527
 21
556.5906735296379
 31
0.0
  0
LINE
  5
A6
330
2F
100
AcDbEntity
  8
0
 62
7
100
AcDbLine
 10
3609.098773006135
 20
557.485152057245
 30
0.0
 11
3610.291411042946
 21
558.677790094055
 31
0.0
  0
LINE
  5
A7
330
2F
100
AcDbEntity
  8
0
 62
7
100
AcDbLine
 10
3607.011656441719
 20
557.7833115664477
 30
0.0
 11
3607.906134969325
 21
558.677790094055
 31
0.0
  0
LINE
  5
A8
330
2F
100
AcDbEntity
  8
0
 62
7
100
AcDbLine
 10
3607.906134969325
 20
558.677790094055
 30
0.0
 11
3609.098773006135
 21
557.485152057245
 31
0.0
  0
LINE
  5
A9
330
2F
100
AcDbEntity
  8
0
 62
7
100
AcDbLine
 10
3610.067791411043
 20
556.5161336523372
 30
0.0
 11
3611.334969325155
 21
555.2489557382268
 31
0.0
  0
LINE
  5
AA
330
2F
100
AcDbEntity
  8
0
 62
7
100
AcDbLine
 10
3611.334969325155
 20
555.2489557382268
 30
0.0
 11
3610.440490797546
 21
554.3544772106193
 31
0.0
  0
LINE
  5
AB
330
2F
100
AcDbEntity
  8
0
 62
7
100
AcDbLine
 10
3610.440490797546
 20
554.3544772106193
 30
0.0
 11
3609.173312883437
 21
555.6216551247298
 31
0.0
  0
LINE
  5
AC
330
2F
100
AcDbEntity
  8
0
 62
7
100
AcDbLine
 10
3608.204294478527
 20
556.5906735296379
 30
0.0
 11
3607.011656441719
 21
557.7833115664477
 31
0.0
  0
CIRCLE
  5
AD
330
2F
100
AcDbEntity
  8
0
 62
7
100
AcDbCircle
 10
3609.098773006135
 20
548.093127517368
 30
0.0
 40
3.269574272680427
  0
CIRCLE
  5
AE
330
2F
100
AcDbEntity
  8
0
 62
7
100
AcDbCircle
 10
3609.098773006135
 20
548.093127517368
 30
0.0
 40
3.42883435582822
  0
LINE
  5
AF
330
2F
100
AcDbEntity
  8
0
 62
7
100
AcDbLine
 10
3610.291411042946
 20
550.3293238363863
 30
0.0
 11
3611.334969325155
 21
549.4348453087788
 31
0.0
  0
LINE
  5
B0
330
2F
100
AcDbEntity
  8
0
 62
7
100
AcDbLine
 10
3611.334969325155
 20
549.4348453087788
 30
0.0
 11
3610.067791411043
 21
548.1676673946687
 31
0.0
  0
LINE
  5
B1
330
2F
100
AcDbEntity
  8
0
 62
7
100
AcDbLine
 10
3609.173312883437
 20
547.2731888670612
 30
0.0
 11
3607.906134969325
 21
546.0060109529506
 31
0.0
  0
LINE
  5
B2
330
2F
100
AcDbEntity
  8
0
 62
7
100
AcDbLine
 10
3607.906134969325
 20
546.0060109529506
 30
0.0
 11
3606.937116564417
 21
546.9750293578585
 31
0.0
  0
LINE
  5
B3
330
2F
100
AcDbEntity
  8
0
 62
7
100
AcDbLine
 10
3606.937116564417
 20
546.9750293578585
 30
0.0
 11
3608.204294478527
 21
548.2422072719693
 31
0.0
  0
LINE
  5
B4
330
2F
100
AcDbEntity
  8
0
 62
7
100
AcDbLine
 10
3609.098773006135
 20
549.1366857995765
 30
0.0
 11
3610.291411042946
 21
550.3293238363863
 31
0.0
  0
LINE
  5
B5
330
2F
100
AcDbEntity
  8
0
 62
7
100
AcDbLine
 10
3607.011656441719
 20
549.4348453087788
 30
0.0
 11
3607.906134969325
 21
550.3293238363863
 31
0.0
  0
LINE
  5
B6
330
2F
100
AcDbEntity
  8
0
 62
7
100
AcDbLine
 10
3607.906134969325
 20
550.3293238363863
 30
0.0
 11
3609.098773006135
 21
549.1366857995765
 31
0.0
  0
LINE
  5
B7
330
2F
100
AcDbEntity
  8
0
 62
7
100
AcDbLine
 10
3610.067791411043
 20
548.1676673946687
 30
0.0
 11
3611.334969325155
 21
546.9004894805581
 31
0.0
  0
LINE
  5
B8
330
2F
100
AcDbEntity
  8
0
 62
7
100
AcDbLine
 10
3611.334969325155
 20
546.9004894805581
 30
0.0
 11
3610.440490797546
 21
546.0060109529506
 31
0.0
  0
LINE
  5
B9
330
2F
100
AcDbEntity
  8
0
 62
7
100
AcDbLine
 10
3610.440490797546
 20
546.0060109529506
 30
0.0
 11
3609.173312883437
 21
547.2731888670612
 31
0.0
  0
LINE
  5
BA
330
2F
100
AcDbEntity
  8
0
 62
7
100
AcDbLine
 10
3608.204294478527
 20
548.2422072719693
 30
0.0
 11
3607.011656441719
 21
549.4348453087788
 31
0.0
  0
LINE
  5
BB
330
2F
100
AcDbEntity
  8
0
 62
7
100
AcDbLine
 10
3615.658282208589
 20
543.6207348793312
 30
0.0
 11
3604.477300613498
 21
543.6207348793312
 31
0.0
  0
ARC
  5
BC
330
2F
100
AcDbEntity
  8
0
 62
7
100
AcDbCircle
 10
3604.632114204814
 20
541.1035805612565
 30
0.0
 40
2.521910606872864
100
AcDbArc
 50
93.51945303551052
 51
135.3684565253584
  0
LINE
  5
BD
330
2F
100
AcDbEntity
  8
0
 62
7
100
AcDbLine
 10
3604.626380368099
 20
560.7649066584722
 30
0.0
 11
3604.626380368099
 21
543.6207348793312
 31
0.0
  0
LINE
  5
BE
330
2F
100
AcDbEntity
  8
0
 62
7
100
AcDbLine
 10
3604.626380368099
 20
552.1928207689017
 30
0.0
 11
3613.422085889571
 21
552.1928207689017
 31
0.0
  0
LINE
  5
BF
330
2F
100
AcDbEntity
  8
0
 62
7
100
AcDbLine
 10
3613.422085889571
 20
569.4115324253434
 30
0.0
 11
3613.422085889571
 21
543.6207348793312
 31
0.0
  0
LINE
  5
C0
330
2F
100
AcDbEntity
  8
0
 62
7
100
AcDbLine
 10
3604.626380368099
 20
560.7649066584722
 30
0.0
 11
3613.422085889571
 21
560.7649066584722
 31
0.0
  0
LINE
  5
C1
330
2F
100
AcDbEntity
  8
0
 62
7
100
AcDbLine
 10
3602.837423312884
 20
496.8096919345458
 30
0.0
 11
3615.658282208589
 21
496.8096919345458
 31
0.0
  0
CIRCLE
  5
C2
330
2F
100
AcDbEntity
  8
0
 62
7
100
AcDbCircle
 10
3609.098773006135
 20
501.5802440817851
 30
0.0
 40
3.269574272680427
  0
CIRCLE
  5
C3
330
2F
100
AcDbEntity
  8
0
 62
7
100
AcDbCircle
 10
3609.098773006135
 20
501.5802440817851
 30
0.0
 40
3.42883435582822
  0
LINE
  5
C4
330
2F
100
AcDbEntity
  8
0
 62
7
100
AcDbLine
 10
3610.291411042946
 20
499.3440477627666
 30
0.0
 11
3611.334969325155
 21
500.2385262903738
 31
0.0
  0
LINE
  5
C5
330
2F
100
AcDbEntity
  8
0
 62
7
100
AcDbLine
 10
3611.334969325155
 20
500.2385262903738
 30
0.0
 11
3610.067791411043
 21
501.5057042044844
 31
0.0
  0
LINE
  5
C6
330
2F
100
AcDbEntity
  8
0
 62
7
100
AcDbLine
 10
3609.173312883437
 20
502.4001827320918
 30
0.0
 11
3607.906134969325
 21
503.6673606462023
 31
0.0
  0
LINE
  5
C7
330
2F
100
AcDbEntity
  8
0
 62
7
100
AcDbLine
 10
3607.906134969325
 20
503.6673606462023
 30
0.0
 11
3606.937116564417
 21
502.6983422412943
 31
0.0
  0
LINE
  5
C8
330
2F
100
AcDbEntity
  8
0
 62
7
100
AcDbLine
 10
3606.937116564417
 20
502.6983422412943
 30
0.0
 11
3608.204294478527
 21
501.4311643271838
 31
0.0
  0
LINE
  5
C9
330
2F
100
AcDbEntity
  8
0
 62
7
100
AcDbLine
 10
3609.098773006135
 20
500.5366857995765
 30
0.0
 11
3610.291411042946
 21
499.3440477627666
 31
0.0
  0
LINE
  5
CA
330
2F
100
AcDbEntity
  8
0
 62
7
100
AcDbLine
 10
3607.011656441719
 20
500.2385262903738
 30
0.0
 11
3607.906134969325
 21
499.3440477627666
 31
0.0
  0
LINE
  5
CB
330
2F
100
AcDbEntity
  8
0
 62
7
100
AcDbLine
 10
3607.906134969325
 20
499.3440477627666
 30
0.0
 11
3609.098773006135
 21
500.5366857995765
 31
0.0
  0
LINE
  5
CC
330
2F
100
AcDbEntity
  8
0
 62
7
100
AcDbLine
 10
3610.067791411043
 20
501.5057042044844
 30
0.0
 11
3611.334969325155
 21
502.7728821185949
 31
0.0
  0
LINE
  5
CD
330
2F
100
AcDbEntity
  8
0
 62
7
100
AcDbLine
 10
3611.334969325155
 20
502.7728821185949
 30
0.0
 11
3610.440490797546
 21
503.6673606462023
 31
0.0
  0
LINE
  5
CE
330
2F
100
AcDbEntity
  8
0
 62
7
100
AcDbLine
 10
3610.440490797546
 20
503.6673606462023
 30
0.0
 11
3609.173312883437
 21
502.4001827320918
 31
0.0
  0
LINE
  5
CF
330
2F
100
AcDbEntity
  8
0
 62
7
100
AcDbLine
 10
3608.204294478527
 20
501.4311643271838
 30
0.0
 11
3607.011656441719
 21
500.2385262903738
 31
0.0
  0
CIRCLE
  5
D0
330
2F
100
AcDbEntity
  8
0
 62
7
100
AcDbCircle
 10
3609.098773006135
 20
509.7796305848524
 30
0.0
 40
3.269574272680427
  0
CIRCLE
  5
D1
330
2F
100
AcDbEntity
  8
0
 62
7
100
AcDbCircle
 10
3609.098773006135
 20
509.7796305848524
 30
0.0
 40
3.42883435582822
  0
LINE
  5
D2
330
2F
100
AcDbEntity
  8
0
 62
7
100
AcDbLine
 10
3610.291411042946
 20
507.5434342658342
 30
0.0
 11
3611.334969325155
 21
508.4379127934416
 31
0.0
  0
LINE
  5
D3
330
2F
100
AcDbEntity
  8
0
 62
7
100
AcDbLine
 10
3611.334969325155
 20
508.4379127934416
 30
0.0
 11
3610.067791411043
 21
509.7050907075518
 31
0.0
  0
LINE
  5
D4
330
2F
100
AcDbEntity
  8
0
 62
7
100
AcDbLine
 10
3609.173312883437
 20
510.5995692351593
 30
0.0
 11
3607.906134969325
 21
511.8667471492697
 31
0.0
  0
LINE
  5
D5
330
2F
100
AcDbEntity
  8
0
 62
7
100
AcDbLine
 10
3607.906134969325
 20
511.8667471492697
 30
0.0
 11
3606.937116564417
 21
510.8977287443616
 31
0.0
  0
LINE
  5
D6
330
2F
100
AcDbEntity
  8
0
 62
7
100
AcDbLine
 10
3606.937116564417
 20
510.8977287443616
 30
0.0
 11
3608.204294478527
 21
509.6305508302513
 31
0.0
  0
LINE
  5
D7
330
2F
100
AcDbEntity
  8
0
 62
7
100
AcDbLine
 10
3609.098773006135
 20
508.7360723026439
 30
0.0
 11
3610.291411042946
 21
507.5434342658342
 31
0.0
  0
LINE
  5
D8
330
2F
100
AcDbEntity
  8
0
 62
7
100
AcDbLine
 10
3607.011656441719
 20
508.4379127934416
 30
0.0
 11
3607.906134969325
 21
507.5434342658342
 31
0.0
  0
LINE
  5
D9
330
2F
100
AcDbEntity
  8
0
 62
7
100
AcDbLine
 10
3607.906134969325
 20
507.5434342658342
 30
0.0
 11
3609.098773006135
 21
508.7360723026439
 31
0.0
  0
LINE
  5
DA
330
2F
100
AcDbEntity
  8
0
 62
7
100
AcDbLine
 10
3610.067791411043
 20
509.7050907075518
 30
0.0
 11
3611.334969325155
 21
510.9722686216622
 31
0.0
  0
LINE
  5
DB
330
2F
100
AcDbEntity
  8
0
 62
7
100
AcDbLine
 10
3611.334969325155
 20
510.9722686216622
 30
0.0
 11
3610.440490797546
 21
511.8667471492697
 31
0.0
  0
LINE
  5
DC
330
2F
100
AcDbEntity
  8
0
 62
7
100
AcDbLine
 10
3610.440490797546
 20
511.8667471492697
 30
0.0
 11
3609.173312883437
 21
510.5995692351593
 31
0.0
  0
LINE
  5
DD
330
2F
100
AcDbEntity
  8
0
 62
7
100
AcDbLine
 10
3608.204294478527
 20
509.6305508302513
 30
0.0
 11
3607.011656441719
 21
508.4379127934416
 31
0.0
  0
CIRCLE
  5
DE
330
2F
100
AcDbEntity
  8
0
 62
7
100
AcDbCircle
 10
3609.098773006135
 20
518.1280968425212
 30
0.0
 40
3.269574272680427
  0
CIRCLE
  5
DF
330
2F
100
AcDbEntity
  8
0
 62
7
100
AcDbCircle
 10
3609.098773006135
 20
518.1280968425212
 30
0.0
 40
3.42883435582822
  0
LINE
  5
E0
330
2F
100
AcDbEntity
  8
0
 62
7
100
AcDbLine
 10
3610.291411042946
 20
515.8919005235028
 30
0.0
 11
3611.334969325155
 21
516.7863790511103
 31
0.0
  0
LINE
  5
E1
330
2F
100
AcDbEntity
  8
0
 62
7
100
AcDbLine
 10
3611.334969325155
 20
516.7863790511103
 30
0.0
 11
3610.067791411043
 21
518.0535569652207
 31
0.0
  0
LINE
  5
E2
330
2F
100
AcDbEntity
  8
0
 62
7
100
AcDbLine
 10
3609.173312883437
 20
518.948035492828
 30
0.0
 11
3607.906134969325
 21
520.2152134069383
 31
0.0
  0
LINE
  5
E3
330
2F
100
AcDbEntity
  8
0
 62
7
100
AcDbLine
 10
3607.906134969325
 20
520.2152134069383
 30
0.0
 11
3606.937116564417
 21
519.2461950020303
 31
0.0
  0
LINE
  5
E4
330
2F
100
AcDbEntity
  8
0
 62
7
100
AcDbLine
 10
3606.937116564417
 20
519.2461950020303
 30
0.0
 11
3608.204294478527
 21
517.9790170879199
 31
0.0
  0
LINE
  5
E5
330
2F
100
AcDbEntity
  8
0
 62
7
100
AcDbLine
 10
3609.098773006135
 20
517.0845385603127
 30
0.0
 11
3610.291411042946
 21
515.8919005235028
 31
0.0
  0
LINE
  5
E6
330
2F
100
AcDbEntity
  8
0
 62
7
100
AcDbLine
 10
3607.011656441719
 20
516.7863790511103
 30
0.0
 11
3607.906134969325
 21
515.8919005235028
 31
0.0
  0
LINE
  5
E7
330
2F
100
AcDbEntity
  8
0
 62
7
100
AcDbLine
 10
3607.906134969325
 20
515.8919005235028
 30
0.0
 11
3609.098773006135
 21
517.0845385603127
 31
0.0
  0
LINE
  5
E8
330
2F
100
AcDbEntity
  8
0
 62
7
100
AcDbLine
 10
3610.067791411043
 20
518.0535569652207
 30
0.0
 11
3611.334969325155
 21
519.3207348793312
 31
0.0
  0
LINE
  5
E9
330
2F
100
AcDbEntity
  8
0
 62
7
100
AcDbLine
 10
3611.334969325155
 20
519.3207348793312
 30
0.0
 11
3610.440490797546
 21
520.2152134069383
 31
0.0
  0
LINE
  5
EA
330
2F
100
AcDbEntity
  8
0
 62
7
100
AcDbLine
 10
3610.440490797546
 20
520.2152134069383
 30
0.0
 11
3609.173312883437
 21
518.948035492828
 31
0.0
  0
LINE
  5
EB
330
2F
100
AcDbEntity
  8
0
 62
7
100
AcDbLine
 10
3608.204294478527
 20
517.9790170879199
 30
0.0
 11
3607.011656441719
 21
516.7863790511103
 31
0.0
  0
LINE
  5
EC
330
2F
100
AcDbEntity
  8
0
 62
7
100
AcDbLine
 10
3615.658282208589
 20
522.600489480558
 30
0.0
 11
3604.477300613498
 21
522.600489480558
 31
0.0
  0
ARC
  5
ED
330
2F
100
AcDbEntity
  8
0
 62
7
100
AcDbCircle
 10
3604.632114204814
 20
525.1176437986327
 30
0.0
 40
2.521910606872864
100
AcDbArc
 50
224.6315434746415
 51
266.4805469644895
  0
LINE
  5
EE
330
2F
100
AcDbEntity
  8
0
 62
7
100
AcDbLine
 10
3604.626380368099
 20
505.456317701417
 30
0.0
 11
3604.626380368099
 21
522.600489480558
 31
0.0
  0
LINE
  5
EF
330
2F
100
AcDbEntity
  8
0
 62
7
100
AcDbLine
 10
3604.626380368099
 20
514.0284035909876
 30
0.0
 11
3613.422085889571
 21
514.0284035909876
 31
0.0
  0
LINE
  5
F0
330
2F
100
AcDbEntity
  8
0
 62
7
100
AcDbLine
 10
3613.422085889571
 20
496.8096919345458
 30
0.0
 11
3613.422085889571
 21
522.600489480558
 31
0.0
  0
LINE
  5
F1
330
2F
100
AcDbEntity
  8
0
 62
7
100
AcDbLine
 10
3604.626380368099
 20
505.456317701417
 30
0.0
 11
3613.422085889571
 21
505.456317701417
 31
0.0
  0
CIRCLE
  5
F2
330
2F
100
AcDbEntity
  8
0
 62
7
100
AcDbCircle
 10
3609.247852760738
 20
465.5029434682882
 30
0.0
 40
5.068711656441716
  0
CIRCLE
  5
F3
330
2F
100
AcDbEntity
  8
0
 62
7
100
AcDbCircle
 10
3609.247852760738
 20
465.5029434682882
 30
0.0
 40
6.410429447852759
  0
LINE
  5
F4
330
2F
100
AcDbEntity
  8
0
 62
7
100
AcDbLine
 10
3609.247852760738
 20
459.0925140204354
 30
0.0
 11
3602.837423312884
 21
459.0925140204354
 31
0.0
  0
LINE
  5
F5
330
2F
100
AcDbEntity
  8
0
 62
7
100
AcDbLine
 10
3609.247852760738
 20
471.9133729161408
 30
0.0
 11
3602.837423312884
 21
471.9133729161408
 31
0.0
  0
LWPOLYLINE
  5
F6
330
2F
100
AcDbEntity
  8
0
 62
7
100
AcDbPolyline
 90
4
 70
0
 10
3609.170331288345
 20
464.5547962290243
 10
3611.317079754603
 20
462.9447348793309
 10
3612.211558282209
 20
464.137372916141
 10
3610.064809815951
 20
465.7474342658341
  0
LWPOLYLINE
  5
F7
330
2F
100
AcDbEntity
  8
0
 62
7
100
AcDbPolyline
 90
4
 70
0
 10
3609.110699386504
 20
466.4630170879198
 10
3606.725423312884
 20
468.2519741431347
 10
3605.830944785277
 20
467.0593361063248
 10
3608.216220858896
 20
465.2703790511101
  0
LWPOLYLINE
  5
F8
330
2F
100
AcDbEntity
  8
0
 62
7
100
AcDbPolyline
 90
4
 70
0
 10
3610.064809815951
 20
465.7474342658339
 10
3611.585423312884
 20
467.7749189284106
 10
3610.631312883435
 20
468.4905017504966
 10
3609.110699386504
 20
466.4630170879198
  0
LWPOLYLINE
  5
F9
330
2F
100
AcDbEntity
  8
0
 62
7
100
AcDbPolyline
 90
4
 70
0
 10
3608.216220858896
 20
465.2703790511098
 10
3606.695607361963
 20
463.2428943885334
 10
3607.649717791411
 20
462.5273115664474
 10
3609.170331288345
 20
464.5547962290243
  0
CIRCLE
  5
FA
330
2F
100
AcDbEntity
  8
0
 62
7
100
AcDbCircle
 10
3608.949693251533
 20
533.3342318118464
 30
0.0
 40
2.981595092024538
  0
CIRCLE
  5
FB
330
2F
100
AcDbEntity
  8
0
 62
7
100
AcDbCircle
 10
3608.949693251533
 20
533.3342318118464
 30
0.0
 40
4.472392638036809
  0
ARC
  5
FC
330
2F
100
AcDbEntity
  8
0
 62
7
100
AcDbCircle
 10
3609.086013200486
 20
533.1992847533747
 30
0.0
 40
6.573654282319191
100
AcDbArc
 50
270.1112141647239
 51
84.68366143024272
  0
LINE
  5
FD
330
2F
100
AcDbEntity
  8
0
 62
7
100
AcDbLine
 10
3609.69509202454
 20
539.7446612596992
 30
0.0
 11
3602.837423312884
 21
539.7446612596992
 31
0.0
  0
LINE
  5
FE
330
2F
100
AcDbEntity
  8
0
 62
7
100
AcDbLine
 10
3609.098773006135
 20
526.6256428547912
 30
0.0
 11
3602.837423312884
 21
526.6256428547912
 31
0.0
  0
LINE
  5
FF
330
2F
100
AcDbEntity
  8
0
 62
7
100
AcDbLine
 10
3607.314352273029
 20
537.4969179389507
 30
0.0
 11
3607.314352273029
 21
538.9992624866929
 31
0.0
  0
LINE
  5
100
330
2F
100
AcDbEntity
  8
0
 62
7
100
AcDbLine
 10
3607.314352273029
 20
538.9992624866929
 30
0.0
 11
3611.036809815951
 21
538.9992624866929
 31
0.0
  0
LINE
  5
101
330
2F
100
AcDbEntity
  8
0
 62
7
100
AcDbLine
 10
3611.036809815951
 20
538.9992624866929
 30
0.0
 11
3611.070053809771
 21
537.2720442771426
 31
0.0
  0
LWPOLYLINE
  5
102
330
2F
100
AcDbEntity
  8
0
 62
7
100
AcDbPolyline
 90
4
 70
0
 10
3608.204294478527
 20
533.9305508302514
 10
3608.204294478527
 20
535.1231888670611
 10
3609.993251533742
 20
535.1231888670611
 10
3609.993251533742
 20
533.9305508302514
  0
LWPOLYLINE
  5
103
330
2F
100
AcDbEntity
  8
0
 62
7
100
AcDbPolyline
 90
4
 70
0
 10
3609.993251533742
 20
532.2906735296378
 10
3609.993251533742
 20
531.2471152474293
 10
3608.204294478527
 20
531.2471152474293
 10
3608.204294478527
 20
532.2906735296378
  0
LWPOLYLINE
  5
104
330
2F
100
AcDbEntity
  8
0
 62
7
100
AcDbPolyline
 90
4
 70
0
 10
3609.993251533742
 20
533.9305508302514
 10
3611.782208588958
 20
533.9305508302514
 10
3611.782208588958
 20
532.2906735296378
 10
3609.993251533742
 20
532.2906735296378
  0
LWPOLYLINE
  5
105
330
2F
100
AcDbEntity
  8
0
 62
7
100
AcDbPolyline
 90
4
 70
0
 10
3608.204294478527
 20
532.2906735296378
 10
3606.106495857331
 20
532.2906735296378
 10
3606.106495857331
 20
533.9305508302514
 10
3608.204294478527
 20
533.9305508302514
  0
ARC
  5
106
330
2F
100
AcDbEntity
  8
0
 62
7
100
AcDbCircle
 10
3618.190379252649
 20
456.1764236690688
 30
0.0
 40
2.61715993561678
100
AcDbArc
 50
194.6479189426551
 51
276.591391609638
  0
CIRCLE
  5
107
330
2F
100
AcDbEntity
  8
0
 62
7
100
AcDbCircle
 10
3759.222085889571
 20
600.7182808916011
 30
0.0
 40
5.068711656441716
  0
CIRCLE
  5
108
330
2F
100
AcDbEntity
  8
0
 62
7
100
AcDbCircle
 10
3759.222085889571
 20
600.7182808916011
 30
0.0
 40
6.410429447852759
  0
LINE
  5
109
330
2F
100
AcDbEntity
  8
0
 62
7
100
AcDbLine
 10
3752.811656441718
 20
610.5575446952821
 30
0.0
 11
3752.811656441718
 21
455.5145999100065
 31
0.0
  0
LINE
  5
10A
330
2F
100
AcDbEntity
  8
0
 62
7
100
AcDbLine
 10
3759.222085889571
 20
607.1287103394538
 30
0.0
 11
3765.632515337423
 21
607.1287103394538
 31
0.0
  0
LINE
  5
10B
330
2F
100
AcDbEntity
  8
0
 62
7
100
AcDbLine
 10
3759.222085889571
 20
594.3078514437482
 30
0.0
 11
3765.632515337423
 21
594.3078514437482
 31
0.0
  0
LWPOLYLINE
  5
10C
330
2F
100
AcDbEntity
  8
0
 62
7
100
AcDbPolyline
 90
4
 70
0
 10
3759.299607361965
 20
601.666428130865
 10
3757.152858895705
 20
603.276489480558
 10
3756.258380368098
 20
602.0838514437484
 10
3758.405128834355
 20
600.4737900940551
  0
LWPOLYLINE
  5
10D
330
2F
100
AcDbEntity
  8
0
 62
7
100
AcDbPolyline
 90
4
 70
0
 10
3759.359239263804
 20
599.7582072719692
 10
3761.744515337424
 20
597.9692502167543
 10
3762.638993865031
 20
599.1618882535641
 10
3760.253717791411
 20
600.9508453087789
  0
LWPOLYLINE
  5
10E
330
2F
100
AcDbEntity
  8
0
 62
7
100
AcDbPolyline
 90
4
 70
0
 10
3758.405128834355
 20
600.4737900940551
 10
3756.884515337424
 20
598.4463054314783
 10
3757.838625766871
 20
597.7307226093927
 10
3759.359239263804
 20
599.7582072719692
  0
LWPOLYLINE
  5
10F
330
2F
100
AcDbEntity
  8
0
 62
7
100
AcDbPolyline
 90
4
 70
0
 10
3760.253717791411
 20
600.9508453087792
 10
3761.774331288344
 20
602.9783299713557
 10
3760.820220858896
 20
603.6939127934418
 10
3759.299607361965
 20
601.6664281308649
  0
LINE
  5
110
330
2F
100
AcDbEntity
  8
0
 62
7
100
AcDbLine
 10
3765.632515337423
 20
569.4115324253434
 30
0.0
 11
3752.811656441718
 21
569.4115324253434
 31
0.0
  0
CIRCLE
  5
111
330
2F
100
AcDbEntity
  8
0
 62
7
100
AcDbCircle
 10
3759.371165644172
 20
564.640980278104
 30
0.0
 40
3.269574272680427
  0
CIRCLE
  5
112
330
2F
100
AcDbEntity
  8
0
 62
7
100
AcDbCircle
 10
3759.371165644172
 20
564.640980278104
 30
0.0
 40
3.42883435582822
  0
LINE
  5
113
330
2F
100
AcDbEntity
  8
0
 62
7
100
AcDbLine
 10
3758.178527607362
 20
566.8771765971225
 30
0.0
 11
3757.134969325154
 21
565.9826980695152
 31
0.0
  0
LINE
  5
114
330
2F
100
AcDbEntity
  8
0
 62
7
100
AcDbLine
 10
3757.134969325154
 20
565.9826980695152
 30
0.0
 11
3758.402147239265
 21
564.7155201554046
 31
0.0
  0
LINE
  5
115
330
2F
100
AcDbEntity
  8
0
 62
7
100
AcDbLine
 10
3759.296625766872
 20
563.8210416277972
 30
0.0
 11
3760.563803680982
 21
562.553863713687
 31
0.0
  0
LINE
  5
116
330
2F
100
AcDbEntity
  8
0
 62
7
100
AcDbLine
 10
3760.563803680982
 20
562.553863713687
 30
0.0
 11
3761.532822085889
 21
563.5228821185949
 31
0.0
  0
LINE
  5
117
330
2F
100
AcDbEntity
  8
0
 62
7
100
AcDbLine
 10
3761.532822085889
 20
563.5228821185949
 30
0.0
 11
3760.265644171779
 21
564.7900600327052
 31
0.0
  0
LINE
  5
118
330
2F
100
AcDbEntity
  8
0
 62
7
100
AcDbLine
 10
3759.371165644172
 20
565.6845385603125
 30
0.0
 11
3758.178527607362
 21
566.8771765971225
 31
0.0
  0
LINE
  5
119
330
2F
100
AcDbEntity
  8
0
 62
7
100
AcDbLine
 10
3761.45828220859
 20
565.9826980695152
 30
0.0
 11
3760.563803680982
 21
566.8771765971225
 31
0.0
  0
LINE
  5
11A
330
2F
100
AcDbEntity
  8
0
 62
7
100
AcDbLine
 10
3760.563803680982
 20
566.8771765971225
 30
0.0
 11
3759.371165644172
 21
565.6845385603125
 31
0.0
  0
LINE
  5
11B
330
2F
100
AcDbEntity
  8
0
 62
7
100
AcDbLine
 10
3758.402147239265
 20
564.7155201554046
 30
0.0
 11
3757.134969325154
 21
563.4483422412942
 31
0.0
  0
LINE
  5
11C
330
2F
100
AcDbEntity
  8
0
 62
7
100
AcDbLine
 10
3757.134969325154
 20
563.4483422412942
 30
0.0
 11
3758.029447852762
 21
562.553863713687
 31
0.0
  0
LINE
  5
11D
330
2F
100
AcDbEntity
  8
0
 62
7
100
AcDbLine
 10
3758.029447852762
 20
562.553863713687
 30
0.0
 11
3759.296625766872
 21
563.8210416277972
 31
0.0
  0
LINE
  5
11E
330
2F
100
AcDbEntity
  8
0
 62
7
100
AcDbLine
 10
3760.265644171779
 20
564.7900600327052
 30
0.0
 11
3761.45828220859
 21
565.9826980695152
 31
0.0
  0
CIRCLE
  5
11F
330
2F
100
AcDbEntity
  8
0
 62
7
100
AcDbCircle
 10
3759.371165644172
 20
556.4415937750366
 30
0.0
 40
3.269574272680427
  0
CIRCLE
  5
120
330
2F
100
AcDbEntity
  8
0
 62
7
100
AcDbCircle
 10
3759.371165644172
 20
556.4415937750366
 30
0.0
 40
3.42883435582822
  0
LINE
  5
121
330
2F
100
AcDbEntity
  8
0
 62
7
100
AcDbLine
 10
3758.178527607362
 20
558.677790094055
 30
0.0
 11
3757.134969325154
 21
557.7833115664477
 31
0.0
  0
LINE
  5
122
330
2F
100
AcDbEntity
  8
0
 62
7
100
AcDbLine
 10
3757.134969325154
 20
557.7833115664477
 30
0.0
 11
3758.402147239265
 21
556.5161336523372
 31
0.0
  0
LINE
  5
123
330
2F
100
AcDbEntity
  8
0
 62
7
100
AcDbLine
 10
3759.296625766872
 20
555.6216551247298
 30
0.0
 11
3760.563803680982
 21
554.3544772106193
 31
0.0
  0
LINE
  5
124
330
2F
100
AcDbEntity
  8
0
 62
7
100
AcDbLine
 10
3760.563803680982
 20
554.3544772106193
 30
0.0
 11
3761.532822085889
 21
555.3234956155273
 31
0.0
  0
LINE
  5
125
330
2F
100
AcDbEntity
  8
0
 62
7
100
AcDbLine
 10
3761.532822085889
 20
555.3234956155273
 30
0.0
 11
3760.265644171779
 21
556.5906735296379
 31
0.0
  0
LINE
  5
126
330
2F
100
AcDbEntity
  8
0
 62
7
100
AcDbLine
 10
3759.371165644172
 20
557.485152057245
 30
0.0
 11
3758.178527607362
 21
558.677790094055
 31
0.0
  0
LINE
  5
127
330
2F
100
AcDbEntity
  8
0
 62
7
100
AcDbLine
 10
3761.45828220859
 20
557.7833115664477
 30
0.0
 11
3760.563803680982
 21
558.677790094055
 31
0.0
  0
LINE
  5
128
330
2F
100
AcDbEntity
  8
0
 62
7
100
AcDbLine
 10
3760.563803680982
 20
558.677790094055
 30
0.0
 11
3759.371165644172
 21
557.485152057245
 31
0.0
  0
LINE
  5
129
330
2F
100
AcDbEntity
  8
0
 62
7
100
AcDbLine
 10
3758.402147239265
 20
556.5161336523372
 30
0.0
 11
3757.134969325154
 21
555.2489557382268
 31
0.0
  0
LINE
  5
12A
330
2F
100
AcDbEntity
  8
0
 62
7
100
AcDbLine
 10
3757.134969325154
 20
555.2489557382268
 30
0.0
 11
3758.029447852762
 21
554.3544772106193
 31
0.0
  0
LINE
  5
12B
330
2F
100
AcDbEntity
  8
0
 62
7
100
AcDbLine
 10
3758.029447852762
 20
554.3544772106193
 30
0.0
 11
3759.296625766872
 21
555.6216551247298
 31
0.0
  0
LINE
  5
12C
330
2F
100
AcDbEntity
  8
0
 62
7
100
AcDbLine
 10
3760.265644171779
 20
556.5906735296379
 30
0.0
 11
3761.45828220859
 21
557.7833115664477
 31
0.0
  0
CIRCLE
  5
12D
330
2F
100
AcDbEntity
  8
0
 62
7
100
AcDbCircle
 10
3759.371165644172
 20
548.093127517368
 30
0.0
 40
3.269574272680427
  0
CIRCLE
  5
12E
330
2F
100
AcDbEntity
  8
0
 62
7
100
AcDbCircle
 10
3759.371165644172
 20
548.093127517368
 30
0.0
 40
3.42883435582822
  0
LINE
  5
12F
330
2F
100
AcDbEntity
  8
0
 62
7
100
AcDbLine
 10
3758.178527607362
 20
550.3293238363863
 30
0.0
 11
3757.134969325154
 21
549.4348453087788
 31
0.0
  0
LINE
  5
130
330
2F
100
AcDbEntity
  8
0
 62
7
100
AcDbLine
 10
3757.134969325154
 20
549.4348453087788
 30
0.0
 11
3758.402147239265
 21
548.1676673946687
 31
0.0
  0
LINE
  5
131
330
2F
100
AcDbEntity
  8
0
 62
7
100
AcDbLine
 10
3759.296625766872
 20
547.2731888670612
 30
0.0
 11
3760.563803680982
 21
546.0060109529506
 31
0.0
  0
LINE
  5
132
330
2F
100
AcDbEntity
  8
0
 62
7
100
AcDbLine
 10
3760.563803680982
 20
546.0060109529506
 30
0.0
 11
3761.532822085889
 21
546.9750293578585
 31
0.0
  0
LINE
  5
133
330
2F
100
AcDbEntity
  8
0
 62
7
100
AcDbLine
 10
3761.532822085889
 20
546.9750293578585
 30
0.0
 11
3760.265644171779
 21
548.2422072719693
 31
0.0
  0
LINE
  5
134
330
2F
100
AcDbEntity
  8
0
 62
7
100
AcDbLine
 10
3759.371165644172
 20
549.1366857995765
 30
0.0
 11
3758.178527607362
 21
550.3293238363863
 31
0.0
  0
LINE
  5
135
330
2F
100
AcDbEntity
  8
0
 62
7
100
AcDbLine
 10
3761.45828220859
 20
549.4348453087788
 30
0.0
 11
3760.563803680982
 21
550.3293238363863
 31
0.0
  0
LINE
  5
136
330
2F
100
AcDbEntity
  8
0
 62
7
100
AcDbLine
 10
3760.563803680982
 20
550.3293238363863
 30
0.0
 11
3759.371165644172
 21
549.1366857995765
 31
0.0
  0
LINE
  5
137
330
2F
100
AcDbEntity
  8
0
 62
7
100
AcDbLine
 10
3758.402147239265
 20
548.1676673946687
 30
0.0
 11
3757.134969325154
 21
546.9004894805581
 31
0.0
  0
LINE
  5
138
330
2F
100
AcDbEntity
  8
0
 62
7
100
AcDbLine
 10
3757.134969325154
 20
546.9004894805581
 30
0.0
 11
3758.029447852762
 21
546.0060109529506
 31
0.0
  0
LINE
  5
139
330
2F
100
AcDbEntity
  8
0
 62
7
100
AcDbLine
 10
3758.029447852762
 20
546.0060109529506
 30
0.0
 11
3759.296625766872
 21
547.2731888670612
 31
0.0
  0
LINE
  5
13A
330
2F
100
AcDbEntity
  8
0
 62
7
100
AcDbLine
 10
3760.265644171779
 20
548.2422072719693
 30
0.0
 11
3761.45828220859
 21
549.4348453087788
 31
0.0
  0
LINE
  5
13B
330
2F
100
AcDbEntity
  8
0
 62
7
100
AcDbLine
 10
3752.811656441718
 20
543.6207348793312
 30
0.0
 11
3763.99263803681
 21
543.6207348793312
 31
0.0
  0
ARC
  5
13C
330
2F
100
AcDbEntity
  8
0
 62
7
100
AcDbCircle
 10
3763.837824445494
 20
541.1035805612565
 30
0.0
 40
2.521910606872864
100
AcDbArc
 50
44.63154347464153
 51
86.48054696448943
  0
LINE
  5
13D
330
2F
100
AcDbEntity
  8
0
 62
7
100
AcDbLine
 10
3763.843558282208
 20
560.7649066584722
 30
0.0
 11
3763.843558282208
 21
543.6207348793312
 31
0.0
  0
LINE
  5
13E
330
2F
100
AcDbEntity
  8
0
 62
7
100
AcDbLine
 10
3763.843558282208
 20
552.1928207689017
 30
0.0
 11
3755.047852760738
 21
552.1928207689017
 31
0.0
  0
LINE
  5
13F
330
2F
100
AcDbEntity
  8
0
 62
7
100
AcDbLine
 10
3755.047852760738
 20
569.4115324253434
 30
0.0
 11
3755.047852760738
 21
543.6207348793312
 31
0.0
  0
LINE
  5
140
330
2F
100
AcDbEntity
  8
0
 62
7
100
AcDbLine
 10
3763.843558282208
 20
560.7649066584722
 30
0.0
 11
3755.047852760738
 21
560.7649066584722
 31
0.0
  0
LINE
  5
141
330
2F
100
AcDbEntity
  8
0
 62
7
100
AcDbLine
 10
3765.632515337423
 20
496.8096919345458
 30
0.0
 11
3752.811656441718
 21
496.8096919345458
 31
0.0
  0
CIRCLE
  5
142
330
2F
100
AcDbEntity
  8
0
 62
7
100
AcDbCircle
 10
3759.371165644172
 20
501.5802440817851
 30
0.0
 40
3.269574272680427
  0
CIRCLE
  5
143
330
2F
100
AcDbEntity
  8
0
 62
7
100
AcDbCircle
 10
3759.371165644172
 20
501.5802440817851
 30
0.0
 40
3.42883435582822
  0
LINE
  5
144
330
2F
100
AcDbEntity
  8
0
 62
7
100
AcDbLine
 10
3758.178527607362
 20
499.3440477627666
 30
0.0
 11
3757.134969325154
 21
500.2385262903738
 31
0.0
  0
LINE
  5
145
330
2F
100
AcDbEntity
  8
0
 62
7
100
AcDbLine
 10
3757.134969325154
 20
500.2385262903738
 30
0.0
 11
3758.402147239265
 21
501.5057042044844
 31
0.0
  0
LINE
  5
146
330
2F
100
AcDbEntity
  8
0
 62
7
100
AcDbLine
 10
3759.296625766872
 20
502.4001827320918
 30
0.0
 11
3760.563803680982
 21
503.6673606462023
 31
0.0
  0
LINE
  5
147
330
2F
100
AcDbEntity
  8
0
 62
7
100
AcDbLine
 10
3760.563803680982
 20
503.6673606462023
 30
0.0
 11
3761.532822085889
 21
502.6983422412943
 31
0.0
  0
LINE
  5
148
330
2F
100
AcDbEntity
  8
0
 62
7
100
AcDbLine
 10
3761.532822085889
 20
502.6983422412943
 30
0.0
 11
3760.265644171779
 21
501.4311643271838
 31
0.0
  0
LINE
  5
149
330
2F
100
AcDbEntity
  8
0
 62
7
100
AcDbLine
 10
3759.371165644172
 20
500.5366857995765
 30
0.0
 11
3758.178527607362
 21
499.3440477627666
 31
0.0
  0
LINE
  5
14A
330
2F
100
AcDbEntity
  8
0
 62
7
100
AcDbLine
 10
3761.45828220859
 20
500.2385262903738
 30
0.0
 11
3760.563803680982
 21
499.3440477627666
 31
0.0
  0
LINE
  5
14B
330
2F
100
AcDbEntity
  8
0
 62
7
100
AcDbLine
 10
3760.563803680982
 20
499.3440477627666
 30
0.0
 11
3759.371165644172
 21
500.5366857995765
 31
0.0
  0
LINE
  5
14C
330
2F
100
AcDbEntity
  8
0
 62
7
100
AcDbLine
 10
3758.402147239265
 20
501.5057042044844
 30
0.0
 11
3757.134969325154
 21
502.7728821185949
 31
0.0
  0
LINE
  5
14D
330
2F
100
AcDbEntity
  8
0
 62
7
100
AcDbLine
 10
3757.134969325154
 20
502.7728821185949
 30
0.0
 11
3758.029447852762
 21
503.6673606462023
 31
0.0
  0
LINE
  5
14E
330
2F
100
AcDbEntity
  8
0
 62
7
100
AcDbLine
 10
3758.029447852762
 20
503.6673606462023
 30
0.0
 11
3759.296625766872
 21
502.4001827320918
 31
0.0
  0
LINE
  5
14F
330
2F
100
AcDbEntity
  8
0
 62
7
100
AcDbLine
 10
3760.265644171779
 20
501.4311643271838
 30
0.0
 11
3761.45828220859
 21
500.2385262903738
 31
0.0
  0
CIRCLE
  5
150
330
2F
100
AcDbEntity
  8
0
 62
7
100
AcDbCircle
 10
3759.371165644172
 20
509.7796305848524
 30
0.0
 40
3.269574272680427
  0
CIRCLE
  5
151
330
2F
100
AcDbEntity
  8
0
 62
7
100
AcDbCircle
 10
3759.371165644172
 20
509.7796305848524
 30
0.0
 40
3.42883435582822
  0
LINE
  5
152
330
2F
100
AcDbEntity
  8
0
 62
7
100
AcDbLine
 10
3758.178527607362
 20
507.5434342658342
 30
0.0
 11
3757.134969325154
 21
508.4379127934416
 31
0.0
  0
LINE
  5
153
330
2F
100
AcDbEntity
  8
0
 62
7
100
AcDbLine
 10
3757.134969325154
 20
508.4379127934416
 30
0.0
 11
3758.402147239265
 21
509.7050907075518
 31
0.0
  0
LINE
  5
154
330
2F
100
AcDbEntity
  8
0
 62
7
100
AcDbLine
 10
3759.296625766872
 20
510.5995692351593
 30
0.0
 11
3760.563803680982
 21
511.8667471492697
 31
0.0
  0
LINE
  5
155
330
2F
100
AcDbEntity
  8
0
 62
7
100
AcDbLine
 10
3760.563803680982
 20
511.8667471492697
 30
0.0
 11
3761.532822085889
 21
510.8977287443616
 31
0.0
  0
LINE
  5
156
330
2F
100
AcDbEntity
  8
0
 62
7
100
AcDbLine
 10
3761.532822085889
 20
510.8977287443616
 30
0.0
 11
3760.265644171779
 21
509.6305508302513
 31
0.0
  0
LINE
  5
157
330
2F
100
AcDbEntity
  8
0
 62
7
100
AcDbLine
 10
3759.371165644172
 20
508.7360723026439
 30
0.0
 11
3758.178527607362
 21
507.5434342658342
 31
0.0
  0
LINE
  5
158
330
2F
100
AcDbEntity
  8
0
 62
7
100
AcDbLine
 10
3761.45828220859
 20
508.4379127934416
 30
0.0
 11
3760.563803680982
 21
507.5434342658342
 31
0.0
  0
LINE
  5
159
330
2F
100
AcDbEntity
  8
0
 62
7
100
AcDbLine
 10
3760.563803680982
 20
507.5434342658342
 30
0.0
 11
3759.371165644172
 21
508.7360723026439
 31
0.0
  0
LINE
  5
15A
330
2F
100
AcDbEntity
  8
0
 62
7
100
AcDbLine
 10
3758.402147239265
 20
509.7050907075518
 30
0.0
 11
3757.134969325154
 21
510.9722686216622
 31
0.0
  0
LINE
  5
15B
330
2F
100
AcDbEntity
  8
0
 62
7
100
AcDbLine
 10
3757.134969325154
 20
510.9722686216622
 30
0.0
 11
3758.029447852762
 21
511.8667471492697
 31
0.0
  0
LINE
  5
15C
330
2F
100
AcDbEntity
  8
0
 62
7
100
AcDbLine
 10
3758.029447852762
 20
511.8667471492697
 30
0.0
 11
3759.296625766872
 21
510.5995692351593
 31
0.0
  0
LINE
  5
15D
330
2F
100
AcDbEntity
  8
0
 62
7
100
AcDbLine
 10
3760.265644171779
 20
509.6305508302513
 30
0.0
 11
3761.45828220859
 21
508.4379127934416
 31
0.0
  0
CIRCLE
  5
15E
330
2F
100
AcDbEntity
  8
0
 62
7
100
AcDbCircle
 10
3759.371165644172
 20
518.1280968425212
 30
0.0
 40
3.269574272680427
  0
CIRCLE
  5
15F
330
2F
100
AcDbEntity
  8
0
 62
7
100
AcDbCircle
 10
3759.371165644172
 20
518.1280968425212
 30
0.0
 40
3.42883435582822
  0
LINE
  5
160
330
2F
100
AcDbEntity
  8
0
 62
7
100
AcDbLine
 10
3758.178527607362
 20
515.8919005235028
 30
0.0
 11
3757.134969325154
 21
516.7863790511103
 31
0.0
  0
LINE
  5
161
330
2F
100
AcDbEntity
  8
0
 62
7
100
AcDbLine
 10
3757.134969325154
 20
516.7863790511103
 30
0.0
 11
3758.402147239265
 21
518.0535569652207
 31
0.0
  0
LINE
  5
162
330
2F
100
AcDbEntity
  8
0
 62
7
100
AcDbLine
 10
3759.296625766872
 20
518.948035492828
 30
0.0
 11
3760.563803680982
 21
520.2152134069383
 31
0.0
  0
LINE
  5
163
330
2F
100
AcDbEntity
  8
0
 62
7
100
AcDbLine
 10
3760.563803680982
 20
520.2152134069383
 30
0.0
 11
3761.532822085889
 21
519.2461950020303
 31
0.0
  0
LINE
  5
164
330
2F
100
AcDbEntity
  8
0
 62
7
100
AcDbLine
 10
3761.532822085889
 20
519.2461950020303
 30
0.0
 11
3760.265644171779
 21
517.9790170879199
 31
0.0
  0
LINE
  5
165
330
2F
100
AcDbEntity
  8
0
 62
7
100
AcDbLine
 10
3759.371165644172
 20
517.0845385603127
 30
0.0
 11
3758.178527607362
 21
515.8919005235028
 31
0.0
  0
LINE
  5
166
330
2F
100
AcDbEntity
  8
0
 62
7
100
AcDbLine
 10
3761.45828220859
 20
516.7863790511103
 30
0.0
 11
3760.563803680982
 21
515.8919005235028
 31
0.0
  0
LINE
  5
167
330
2F
100
AcDbEntity
  8
0
 62
7
100
AcDbLine
 10
3760.563803680982
 20
515.8919005235028
 30
0.0
 11
3759.371165644172
 21
517.0845385603127
 31
0.0
  0
LINE
  5
168
330
2F
100
AcDbEntity
  8
0
 62
7
100
AcDbLine
 10
3758.402147239265
 20
518.0535569652207
 30
0.0
 11
3757.134969325154
 21
519.3207348793312
 31
0.0
  0
LINE
  5
169
330
2F
100
AcDbEntity
  8
0
 62
7
100
AcDbLine
 10
3757.134969325154
 20
519.3207348793312
 30
0.0
 11
3758.029447852762
 21
520.2152134069383
 31
0.0
  0
LINE
  5
16A
330
2F
100
AcDbEntity
  8
0
 62
7
100
AcDbLine
 10
3758.029447852762
 20
520.2152134069383
 30
0.0
 11
3759.296625766872
 21
518.948035492828
 31
0.0
  0
LINE
  5
16B
330
2F
100
AcDbEntity
  8
0
 62
7
100
AcDbLine
 10
3760.265644171779
 20
517.9790170879199
 30
0.0
 11
3761.45828220859
 21
516.7863790511103
 31
0.0
  0
LINE
  5
16C
330
2F
100
AcDbEntity
  8
0
 62
7
100
AcDbLine
 10
3752.811656441718
 20
522.600489480558
 30
0.0
 11
3763.99263803681
 21
522.600489480558
 31
0.0
  0
ARC
  5
16D
330
2F
100
AcDbEntity
  8
0
 62
7
100
AcDbCircle
 10
3763.837824445494
 20
525.1176437986327
 30
0.0
 40
2.521910606872864
100
AcDbArc
 50
273.5194530355105
 51
315.3684565253584
  0
LINE
  5
16E
330
2F
100
AcDbEntity
  8
0
 62
7
100
AcDbLine
 10
3763.843558282208
 20
505.456317701417
 30
0.0
 11
3763.843558282208
 21
522.600489480558
 31
0.0
  0
LINE
  5
16F
330
2F
100
AcDbEntity
  8
0
 62
7
100
AcDbLine
 10
3763.843558282208
 20
514.0284035909876
 30
0.0
 11
3755.047852760738
 21
514.0284035909876
 31
0.0
  0
LINE
  5
170
330
2F
100
AcDbEntity
  8
0
 62
7
100
AcDbLine
 10
3755.047852760738
 20
496.8096919345458
 30
0.0
 11
3755.047852760738
 21
522.600489480558
 31
0.0
  0
LINE
  5
171
330
2F
100
AcDbEntity
  8
0
 62
7
100
AcDbLine
 10
3763.843558282208
 20
505.456317701417
 30
0.0
 11
3755.047852760738
 21
505.456317701417
 31
0.0
  0
CIRCLE
  5
172
330
2F
100
AcDbEntity
  8
0
 62
7
100
AcDbCircle
 10
3759.222085889571
 20
465.5029434682882
 30
0.0
 40
5.068711656441716
  0
CIRCLE
  5
173
330
2F
100
AcDbEntity
  8
0
 62
7
100
AcDbCircle
 10
3759.222085889571
 20
465.5029434682882
 30
0.0
 40
6.410429447852759
  0
LINE
  5
174
330
2F
100
AcDbEntity
  8
0
 62
7
100
AcDbLine
 10
3759.222085889571
 20
459.0925140204354
 30
0.0
 11
3765.632515337423
 21
459.0925140204354
 31
0.0
  0
LINE
  5
175
330
2F
100
AcDbEntity
  8
0
 62
7
100
AcDbLine
 10
3759.222085889571
 20
471.9133729161408
 30
0.0
 11
3765.632515337423
 21
471.9133729161408
 31
0.0
  0
LWPOLYLINE
  5
176
330
2F
100
AcDbEntity
  8
0
 62
7
100
AcDbPolyline
 90
4
 70
0
 10
3759.299607361965
 20
464.5547962290243
 10
3757.152858895705
 20
462.9447348793309
 10
3756.258380368098
 20
464.137372916141
 10
3758.405128834355
 20
465.7474342658341
  0
LWPOLYLINE
  5
177
330
2F
100
AcDbEntity
  8
0
 62
7
100
AcDbPolyline
 90
4
 70
0
 10
3759.359239263804
 20
466.4630170879198
 10
3761.744515337424
 20
468.2519741431347
 10
3762.638993865031
 20
467.0593361063248
 10
3760.253717791411
 20
465.2703790511101
  0
LWPOLYLINE
  5
178
330
2F
100
AcDbEntity
  8
0
 62
7
100
AcDbPolyline
 90
4
 70
0
 10
3758.405128834355
 20
465.7474342658339
 10
3756.884515337424
 20
467.7749189284106
 10
3757.838625766871
 20
468.4905017504966
 10
3759.359239263804
 20
466.4630170879198
  0
LWPOLYLINE
  5
179
330
2F
100
AcDbEntity
  8
0
 62
7
100
AcDbPolyline
 90
4
 70
0
 10
3760.253717791411
 20
465.2703790511098
 10
3761.774331288344
 20
463.2428943885334
 10
3760.820220858896
 20
462.5273115664474
 10
3759.299607361965
 20
464.5547962290243
  0
CIRCLE
  5
17A
330
2F
100
AcDbEntity
  8
0
 62
7
100
AcDbCircle
 10
3759.520245398773
 20
533.3342318118464
 30
0.0
 40
2.981595092024538
  0
CIRCLE
  5
17B
330
2F
100
AcDbEntity
  8
0
 62
7
100
AcDbCircle
 10
3759.520245398773
 20
533.3342318118464
 30
0.0
 40
4.472392638036809
  0
ARC
  5
17C
330
2F
100
AcDbEntity
  8
0
 62
7
100
AcDbCircle
 10
3759.383925449821
 20
533.1992847533747
 30
0.0
 40
6.573654282319191
100
AcDbArc
 50
95.31633856975728
 51
269.8887858352762
  0
LINE
  5
17D
330
2F
100
AcDbEntity
  8
0
 62
7
100
AcDbLine
 10
3758.774846625767
 20
539.7446612596992
 30
0.0
 11
3765.632515337423
 21
539.7446612596992
 31
0.0
  0
LINE
  5
17E
330
2F
100
AcDbEntity
  8
0
 62
7
100
AcDbLine
 10
3759.371165644172
 20
526.6256428547912
 30
0.0
 11
3765.632515337423
 21
526.6256428547912
 31
0.0
  0
LINE
  5
17F
330
2F
100
AcDbEntity
  8
0
 62
7
100
AcDbLine
 10
3761.15558637728
 20
537.4969179389507
 30
0.0
 11
3761.15558637728
 21
538.9992624866929
 31
0.0
  0
LINE
  5
180
330
2F
100
AcDbEntity
  8
0
 62
7
100
AcDbLine
 10
3761.15558637728
 20
538.9992624866929
 30
0.0
 11
3757.433128834356
 21
538.9992624866929
 31
0.0
  0
LINE
  5
181
330
2F
100
AcDbEntity
  8
0
 62
7
100
AcDbLine
 10
3757.433128834356
 20
538.9992624866929
 30
0.0
 11
3757.399884840538
 21
537.2720442771426
 31
0.0
  0
LWPOLYLINE
  5
182
330
2F
100
AcDbEntity
  8
0
 62
7
100
AcDbPolyline
 90
4
 70
0
 10
3760.265644171779
 20
533.9305508302514
 10
3760.265644171779
 20
535.1231888670611
 10
3758.476687116564
 20
535.1231888670611
 10
3758.476687116564
 20
533.9305508302514
  0
LWPOLYLINE
  5
183
330
2F
100
AcDbEntity
  8
0
 62
7
100
AcDbPolyline
 90
4
 70
0
 10
3758.476687116564
 20
532.2906735296378
 10
3758.476687116564
 20
531.2471152474293
 10
3760.265644171779
 20
531.2471152474293
 10
3760.265644171779
 20
532.2906735296378
  0
LWPOLYLINE
  5
184
330
2F
100
AcDbEntity
  8
0
 62
7
100
AcDbPolyline
 90
4
 70
0
 10
3758.476687116564
 20
533.9305508302514
 10
3756.68773006135
 20
533.9305508302514
 10
3756.68773006135
 20
532.2906735296378
 10
3758.476687116564
 20
532.2906735296378
  0
LWPOLYLINE
  5
185
330
2F
100
AcDbEntity
  8
0
 62
7
100
AcDbPolyline
 90
4
 70
0
 10
3760.265644171779
 20
532.2906735296378
 10
3762.363442792977
 20
532.2906735296378
 10
3762.363442792977
 20
533.9305508302514
 10
3760.265644171779
 20
533.9305508302514
  0
ARC
  5
186
330
2F
100
AcDbEntity
  8
0
 62
7
100
AcDbCircle
 10
3750.279559397658
 20
456.1764236690688
 30
0.0
 40
2.61715993561678
100
AcDbArc
 50
263.4086083902702
 51
345.3520810573447
  0
LINE
  5
187
330
2F
100
AcDbEntity
  8
0
 62
7
100
AcDbLine
 10
3618.490797546014
 20
453.57656310019
 30
0.0
 11
3749.979141104294
 21
453.5765631001901
 31
0.0
  0
LINE
  5
188
330
2F
100
AcDbEntity
  8
0
 62
7
100
AcDbLine
 10
3615.658282208589
 20
456.4090784376133
 30
0.0
 11
3752.811656441718
 21
456.4090784376133
 31
0.0
  0
LINE
  5
189
330
2F
100
AcDbEntity
  8
0
 62
7
100
AcDbLine
 10
3615.658282208589
 20
609.9612256768771
 30
0.0
 11
3752.811656441718
 21
609.9612256768771
 31
0.0
  0
LINE
  5
18A
330
2F
100
AcDbEntity
  8
0
 62
7
100
AcDbLine
 10
3629.373619631902
 20
612.495581505098
 30
0.0
 11
3629.373619631902
 21
453.5765631001901
 31
0.0
  0
LINE
  5
18B
330
2F
100
AcDbEntity
  8
0
 62
7
100
AcDbLine
 10
3629.373619631902
 20
562.1066244498832
 30
0.0
 11
3631.907975460123
 21
559.27410911246
 31
0.0
  0
LINE
  5
18C
330
2F
100
AcDbEntity
  8
0
 62
7
100
AcDbLine
 10
3631.907975460123
 20
559.27410911246
 30
0.0
 11
3629.373619631902
 21
559.27410911246
 31
0.0
  0
LINE
  5
18D
330
2F
100
AcDbEntity
  8
0
 62
7
100
AcDbLine
 10
3631.907975460123
 20
559.27410911246
 30
0.0
 11
3631.907975460123
 21
507.3943545112329
 31
0.0
  0
LINE
  5
18E
330
2F
100
AcDbEntity
  8
0
 62
7
100
AcDbLine
 10
3629.373619631902
 20
504.5618391738097
 30
0.0
 11
3631.907975460123
 21
507.3943545112329
 31
0.0
  0
LINE
  5
18F
330
2F
100
AcDbEntity
  8
0
 62
7
100
AcDbLine
 10
3631.907975460123
 20
507.3943545112329
 30
0.0
 11
3629.373619631902
 21
507.3943545112329
 31
0.0
  0
LWPOLYLINE
  5
190
330
2F
100
AcDbEntity
  8
0
 62
7
100
AcDbPolyline
 90
4
 70
1
 10
3665.152760736197
 20
543.3225753701286
 10
3631.907975460123
 20
543.3225753701286
 10
3631.907975460123
 20
523.196808498963
 10
3665.152760736197
 20
523.196808498963
  0
LINE
  5
191
330
2F
100
AcDbEntity
  8
0
 62
7
100
AcDbLine
 10
3739.096319018405
 20
612.495581505098
 30
0.0
 11
3739.096319018405
 21
453.5765631001901
 31
0.0
  0
LINE
  5
192
330
2F
100
AcDbEntity
  8
0
 62
7
100
AcDbLine
 10
3739.096319018405
 20
562.1066244498832
 30
0.0
 11
3736.561963190184
 21
559.27410911246
 31
0.0
  0
LINE
  5
193
330
2F
100
AcDbEntity
  8
0
 62
7
100
AcDbLine
 10
3736.561963190184
 20
559.27410911246
 30
0.0
 11
3739.096319018405
 21
559.27410911246
 31
0.0
  0
LINE
  5
194
330
2F
100
AcDbEntity
  8
0
 62
7
100
AcDbLine
 10
3736.561963190184
 20
559.27410911246
 30
0.0
 11
3736.561963190184
 21
507.3943545112329
 31
0.0
  0
LINE
  5
195
330
2F
100
AcDbEntity
  8
0
 62
7
100
AcDbLine
 10
3739.096319018405
 20
504.5618391738097
 30
0.0
 11
3736.561963190184
 21
507.3943545112329
 31
0.0
  0
LINE
  5
196
330
2F
100
AcDbEntity
  8
0
 62
7
100
AcDbLine
 10
3736.561963190184
 20
507.3943545112329
 30
0.0
 11
3739.096319018405
 21
507.3943545112329
 31
0.0
  0
LWPOLYLINE
  5
197
330
2F
100
AcDbEntity
  8
0
 62
7
100
AcDbPolyline
 90
4
 70
1
 10
3703.317177914111
 20
543.3225753701286
 10
3736.561963190184
 20
543.3225753701286
 10
3736.561963190184
 20
523.196808498963
 10
3703.317177914111
 20
523.196808498963
  0
ARC
  5
198
330
2F
100
AcDbEntity
  8
0
 62
7
100
AcDbCircle
 10
3607.942727272727
 20
444.2699206015843
 30
0.0
 40
5.880327680919846
100
AcDbArc
 50
209.7497950312082
 51
257.9338340891494
  0
LINE
  5
199
330
2F
100
AcDbEntity
  8
0
 62
7
100
AcDbLine
 10
3606.713496932516
 20
438.519507885466
 30
0.0
 11
3614.018404907977
 21
438.519507885466
 31
0.0
  0
ARC
  5
19A
330
2F
100
AcDbEntity
  8
0
 62
7
100
AcDbCircle
 10
3760.527211377579
 20
444.2699206015843
 30
0.0
 40
5.880327680919846
100
AcDbArc
 50
282.0661659108507
 51
330.2502049687917
  0
LINE
  5
19B
330
2F
100
AcDbEntity
  8
0
 62
7
100
AcDbLine
 10
3761.756441717792
 20
438.519507885466
 30
0.0
 11
3754.451533742332
 21
438.519507885466
 31
0.0
  0
LWPOLYLINE
  5
19C
330
2F
100
AcDbEntity
  8
0
 62
7
100
AcDbPolyline
 90
5
 70
0
 10
3614.018404907977
 20
452.6820845725826
 10
3614.018404907977
 20
417.9465017504966
 10
3643.983435582822
 20
417.9465017504966
 10
3643.983435582822
 20
453.7256428547912
 10
3621.472392638036
 20
453.7256428547912
  0
CIRCLE
  5
19D
330
2F
100
AcDbEntity
  8
0
 62
7
100
AcDbCircle
 10
3629.224539877301
 20
432.7053974560183
 30
0.0
 40
7.21151643988913
  0
LWPOLYLINE
  5
19E
330
2F
100
AcDbEntity
  8
0
 62
7
100
AcDbPolyline
 90
4
 70
1
 10
3669.02883435583
 20
417.9465017504966
 10
3698.993865030675
 20
417.9465017504966
 10
3698.993865030675
 20
453.7256428547912
 10
3669.02883435583
 20
453.7256428547912
  0
CIRCLE
  5
19F
330
2F
100
AcDbEntity
  8
0
 62
7
100
AcDbCircle
 10
3684.234969325153
 20
432.7053974560183
 30
0.0
 40
7.21151643988913
  0
LINE
  5
1A0
330
2F
100
AcDbEntity
  8
0
 62
7
100
AcDbLine
 10
3614.018404907977
 20
452.6820845725826
 30
0.0
 11
3619.683435582822
 21
452.6820845725826
 31
0.0
  0
ARC
  5
1A1
330
2F
100
AcDbEntity
  8
0
 62
7
100
AcDbCircle
 10
3619.429999999999
 20
455.1717164744231
 30
0.0
 40
2.502498072187526
100
AcDbArc
 50
275.812482383078
 51
324.7003919439218
  0
LWPOLYLINE
  5
1A2
330
2F
100
AcDbEntity
  8
0
 62
7
100
AcDbPolyline
 90
5
 70
0
 10
3754.451533742332
 20
452.6820845725826
 10
3754.451533742332
 20
417.9465017504966
 10
3724.486503067485
 20
417.9465017504966
 10
3724.486503067485
 20
453.7256428547912
 10
3746.99754601227
 20
453.7256428547912
  0
CIRCLE
  5
1A3
330
2F
100
AcDbEntity
  8
0
 62
7
100
AcDbCircle
 10
3739.245398773006
 20
432.7053974560183
 30
0.0
 40
7.21151643988913
  0
LINE
  5
1A4
330
2F
100
AcDbEntity
  8
0
 62
7
100
AcDbLine
 10
3754.451533742332
 20
452.6820845725826
 30
0.0
 11
3748.786503067485
 21
452.6820845725826
 31
0.0
  0
ARC
  5
1A5
330
2F
100
AcDbEntity
  8
0
 62
7
100
AcDbCircle
 10
3749.039938650307
 20
455.1717164744231
 30
0.0
 40
2.502498072187526
100
AcDbArc
 50
215.2996080560781
 51
264.187517616922
  0
CIRCLE
  5
1A6
330
2F
100
AcDbEntity
  8
0
 62
7
100
AcDbCircle
 10
3684.234969325153
 20
432.7053974560183
 30
0.0
 40
2.683435582822085
  0
LINE
  5
1A7
330
2F
100
AcDbEntity
  8
0
 62
7
100
AcDbLine
 10
3643.983435582822
 20
438.8176673946684
 30
0.0
 11
3669.02883435583
 21
438.8176673946684
 31
0.0
  0
LINE
  5
1A8
330
2F
100
AcDbEntity
  8
0
 62
7
100
AcDbLine
 10
3698.993865030675
 20
438.8176673946684
 30
0.0
 11
3724.486503067485
 21
438.8176673946684
 31
0.0
  0
ARC
  5
1A9
330
2F
100
AcDbEntity
  8
0
 62
7
100
AcDbCircle
 10
3605.053621128235
 20
413.7595423011476
 30
0.0
 40
2.126359803830891
100
AcDbArc
 50
282.6935266437774
 51
352.2855792002646
  0
LINE
  5
1AA
330
2F
100
AcDbEntity
  8
0
 62
7
100
AcDbLine
 10
3607.160736196319
 20
413.4741091124598
 30
0.0
 11
3607.160736196319
 21
421.375336106325
 31
0.0
  0
ARC
  5
1AB
330
2F
100
AcDbEntity
  8
0
 62
7
100
AcDbCircle
 10
3612.34412458707
 20
420.3317778241164
 30
0.0
 40
5.287393412422726
100
AcDbArc
 50
60.93332600864342
 51
168.6169551290198
  0
LINE
  5
1AC
330
2F
100
AcDbEntity
  8
0
 62
7
100
AcDbLine
 10
3614.912883435583
 20
424.9532502167544
 30
0.0
 11
3614.912883435583
 21
419.1391397873066
 31
0.0
  0
LINE
  5
1AD
330
2F
100
AcDbEntity
  8
0
 62
7
100
AcDbLine
 10
3614.912883435583
 20
419.1391397873066
 30
0.0
 11
3615.80736196319
 21
419.1391397873066
 31
0.0
  0
LINE
  5
1AE
330
2F
100
AcDbEntity
  8
0
 62
7
100
AcDbLine
 10
3615.80736196319
 20
419.1391397873066
 30
0.0
 11
3615.80736196319
 21
413.3250293578586
 31
0.0
  0
ARC
  5
1AF
330
2F
100
AcDbEntity
  8
0
 62
7
100
AcDbCircle
 10
3617.936609762604
 20
413.6199480028306
 30
0.0
 40
2.149575120450054
100
AcDbArc
 50
187.8857721528429
 51
244.1689746173744
  0
ARC
  5
1B0
330
2F
100
AcDbEntity
  8
0
 62
7
100
AcDbCircle
 10
3647.655334755935
 20
413.9634796112595
 30
0.0
 40
2.305550904662565
100
AcDbArc
 50
278.8135186036799
 51
6.375768133458433
  0
LINE
  5
1B1
330
2F
100
AcDbEntity
  8
0
 62
7
100
AcDbLine
 10
3649.946625766871
 20
414.2195078854659
 30
0.0
 11
3649.946625766871
 21
423.6115324253433
 31
0.0
  0
ARC
  5
1B2
330
2F
100
AcDbEntity
  8
0
 62
7
100
AcDbCircle
 10
3654.926099542038
 20
422.9301749553701
 30
0.0
 40
5.025873762785709
100
AcDbArc
 50
125.1341930569218
 51
172.2084212074711
  0
LINE
  5
1B3
330
2F
100
AcDbEntity
  8
0
 62
7
100
AcDbLine
 10
3652.033742331289
 20
427.0403667811715
 30
0.0
 11
3657.698773006135
 21
432.2581581922145
 31
0.0
  0
ARC
  5
1B4
330
2F
100
AcDbEntity
  8
0
 62
7
100
AcDbCircle
 10
3658.850683068749
 20
428.3336720749542
 30
0.0
 40
4.090047441891147
100
AcDbArc
 50
337.1010738299083
 51
106.3579503237502
  0
LINE
  5
1B5
330
2F
100
AcDbEntity
  8
0
 62
7
100
AcDbLine
 10
3662.618404907976
 20
426.7422072719691
 30
0.0
 11
3658.496170814976
 21
422.3623335481569
 31
0.0
  0
ARC
  5
1B6
330
2F
100
AcDbEntity
  8
0
 62
7
100
AcDbCircle
 10
3660.233128834356
 20
420.7275495299167
 30
0.0
 40
2.385276073619631
100
AcDbArc
 50
136.7357045889376
 51
180.0
  0
LINE
  5
1B7
330
2F
100
AcDbEntity
  8
0
 62
7
100
AcDbLine
 10
3657.847852760737
 20
420.7275495299167
 30
0.0
 11
3657.847852760737
 21
413.7722686216624
 31
0.0
  0
ARC
  5
1B8
330
2F
100
AcDbEntity
  8
0
 62
7
100
AcDbCircle
 10
3660.8145398773
 20
414.2045999100059
 30
0.0
 40
2.998023147087055
100
AcDbArc
 50
188.2912714916974
 51
237.1791810524989
  0
ARC
  5
1B9
330
2F
100
AcDbEntity
  8
0
 62
7
100
AcDbCircle
 10
3763.416317522072
 20
413.7595423011476
 30
0.0
 40
2.126359803830891
100
AcDbArc
 50
187.7144207997353
 51
257.3064733563162
  0
LINE
  5
1BA
330
2F
100
AcDbEntity
  8
0
 62
7
100
AcDbLine
 10
3761.309202453988
 20
413.4741091124598
 30
0.0
 11
3761.309202453988
 21
421.375336106325
 31
0.0
  0
ARC
  5
1BB
330
2F
100
AcDbEntity
  8
0
 62
7
100
AcDbCircle
 10
3756.125814063238
 20
420.3317778241164
 30
0.0
 40
5.287393412422726
100
AcDbArc
 50
11.38304487098016
 51
119.0666739913565
  0
LINE
  5
1BC
330
2F
100
AcDbEntity
  8
0
 62
7
100
AcDbLine
 10
3753.557055214724
 20
424.9532502167544
 30
0.0
 11
3753.557055214724
 21
419.1391397873066
 31
0.0
  0
LINE
  5
1BD
330
2F
100
AcDbEntity
  8
0
 62
7
100
AcDbLine
 10
3753.557055214724
 20
419.1391397873066
 30
0.0
 11
3752.662576687117
 21
419.1391397873066
 31
0.0
  0
LINE
  5
1BE
330
2F
100
AcDbEntity
  8
0
 62
7
100
AcDbLine
 10
3752.662576687117
 20
419.1391397873066
 30
0.0
 11
3752.662576687117
 21
413.3250293578586
 31
0.0
  0
ARC
  5
1BF
330
2F
100
AcDbEntity
  8
0
 62
7
100
AcDbCircle
 10
3750.533328887704
 20
413.6199480028306
 30
0.0
 40
2.149575120450054
100
AcDbArc
 50
295.8310253826256
 51
352.114227847157
  0
ARC
  5
1C0
330
2F
100
AcDbEntity
  8
0
 62
7
100
AcDbCircle
 10
3720.814603894372
 20
413.9634796112595
 30
0.0
 40
2.305550904662565
100
AcDbArc
 50
173.6242318665416
 51
261.1864813962278
  0
LINE
  5
1C1
330
2F
100
AcDbEntity
  8
0
 62
7
100
AcDbLine
 10
3718.523312883436
 20
414.2195078854659
 30
0.0
 11
3718.523312883436
 21
423.6115324253433
 31
0.0
  0
ARC
  5
1C2
330
2F
100
AcDbEntity
  8
0
 62
7
100
AcDbCircle
 10
3713.543839108269
 20
422.9301749553701
 30
0.0
 40
5.025873762785709
100
AcDbArc
 50
7.791578792528872
 51
54.86580694307835
  0
LINE
  5
1C3
330
2F
100
AcDbEntity
  8
0
 62
7
100
AcDbLine
 10
3716.436196319019
 20
427.0403667811715
 30
0.0
 11
3710.771165644171
 21
432.2581581922145
 31
0.0
  0
ARC
  5
1C4
330
2F
100
AcDbEntity
  8
0
 62
7
100
AcDbCircle
 10
3709.619255581557
 20
428.3336720749542
 30
0.0
 40
4.090047441891147
100
AcDbArc
 50
73.64204967631763
 51
202.8989261700917
  0
LINE
  5
1C5
330
2F
100
AcDbEntity
  8
0
 62
7
100
AcDbLine
 10
3705.851533742333
 20
426.7422072719691
 30
0.0
 11
3709.973767835331
 21
422.3623335481569
 31
0.0
  0
LINE
  5
1C6
330
2F
100
AcDbEntity
  8
0
 62
7
100
AcDbLine
 10
3710.62208588957
 20
420.7275495299167
 30
0.0
 11
3710.62208588957
 21
413.7722686216624
 31
0.0
  0
ARC
  5
1C7
330
2F
100
AcDbEntity
  8
0
 62
7
100
AcDbCircle
 10
3708.236809815951
 20
420.7275495299167
 30
0.0
 40
2.385276073619631
100
AcDbArc
 50
0.0
 51
43.26429541106231
  0
ARC
  5
1C8
330
2F
100
AcDbEntity
  8
0
 62
7
100
AcDbCircle
 10
3707.655398773006
 20
414.2045999100059
 30
0.0
 40
2.998023147087055
100
AcDbArc
 50
302.8208189475011
 51
351.7087285083026
  0
LWPOLYLINE
  5
1C9
330
2F
100
AcDbEntity
  8
0
 62
7
100
AcDbPolyline
 90
4
 70
1
 10
3673.203067484664
 20
555.8452747566317
 10
3694.819631901841
 20
555.8452747566317
 10
3694.819631901841
 20
544.6642931615397
 10
3673.203067484664
 20
544.6642931615397
  0
LWPOLYLINE
  5
1CA
330
2F
100
AcDbEntity
  8
0
 62
7
100
AcDbPolyline
 90
4
 70
1
 10
3667.239877300614
 20
544.6642931615397
 10
3700.93190184049
 20
544.6642931615397
 10
3700.93190184049
 20
522.0041704621531
 10
3667.239877300614
 20
522.0041704621531
  0
LWPOLYLINE
  5
1CB
330
2F
100
AcDbEntity
  8
0
 62
7
100
AcDbPolyline
 90
6
 70
0
 10
3697.950306748467
 20
519.3207348793312
 10
3703.913496932516
 20
519.3207348793312
 10
3703.913496932516
 20
509.0342318118463
 10
3664.109202453988
 20
509.0342318118463
 10
3664.109202453988
 20
519.3207348793312
 10
3670.37055214724
 20
519.3207348793312
  0
LINE
  5
1CC
330
2F
100
AcDbEntity
  8
0
 62
7
100
AcDbLine
 10
3697.950306748467
 20
522.0041704621531
 30
0.0
 11
3697.950306748467
 21
519.3207348793312
 31
0.0
  0
LINE
  5
1CD
330
2F
100
AcDbEntity
  8
0
 62
7
100
AcDbLine
 10
3670.37055214724
 20
522.0041704621531
 30
0.0
 11
3670.37055214724
 21
519.3207348793312
 31
0.0
  0
LINE
  5
1CE
330
2F
100
AcDbEntity
  8
0
 62
7
100
AcDbLine
 10
3670.37055214724
 20
520.2152134069383
 30
0.0
 11
3663.214723926382
 21
520.2152134069383
 31
0.0
  0
LINE
  5
1CF
330
2F
100
AcDbEntity
  8
0
 62
7
100
AcDbLine
 10
3663.214723926382
 20
520.2152134069383
 30
0.0
 11
3663.214723926382
 21
513.9538637136869
 31
0.0
  0
LINE
  5
1D0
330
2F
100
AcDbEntity
  8
0
 62
7
100
AcDbLine
 10
3663.214723926382
 20
513.9538637136869
 30
0.0
 11
3664.109202453988
 21
513.9538637136869
 31
0.0
  0
LINE
  5
1D1
330
2F
100
AcDbEntity
  8
0
 62
7
100
AcDbLine
 10
3697.950306748467
 20
520.2152134069383
 30
0.0
 11
3704.807975460123
 21
520.2152134069383
 31
0.0
  0
LINE
  5
1D2
330
2F
100
AcDbEntity
  8
0
 62
7
100
AcDbLine
 10
3704.807975460123
 20
520.2152134069383
 30
0.0
 11
3704.807975460123
 21
513.9538637136869
 31
0.0
  0
LINE
  5
1D3
330
2F
100
AcDbEntity
  8
0
 62
7
100
AcDbLine
 10
3704.807975460123
 20
513.9538637136869
 30
0.0
 11
3703.913496932516
 21
513.9538637136869
 31
0.0
  0
LINE
  5
1D4
330
2F
100
AcDbEntity
  8
0
 62
7
100
AcDbLine
 10
3692.136196319019
 20
555.8452747566317
 30
0.0
 11
3692.136196319019
 21
556.7397532842391
 31
0.0
  0
LINE
  5
1D5
330
2F
100
AcDbEntity
  8
0
 62
7
100
AcDbLine
 10
3692.136196319019
 20
556.7397532842391
 30
0.0
 11
3695.565030674847
 21
556.7397532842391
 31
0.0
  0
LINE
  5
1D6
330
2F
100
AcDbEntity
  8
0
 62
7
100
AcDbLine
 10
3695.565030674847
 20
556.7397532842391
 30
0.0
 11
3695.565030674847
 21
549.8820845725827
 31
0.0
  0
LINE
  5
1D7
330
2F
100
AcDbEntity
  8
0
 62
7
100
AcDbLine
 10
3695.565030674847
 20
549.8820845725827
 30
0.0
 11
3694.819631901841
 21
549.8820845725827
 31
0.0
  0
LINE
  5
1D8
330
2F
100
AcDbEntity
  8
0
 62
7
100
AcDbLine
 10
3675.886503067486
 20
555.8452747566317
 30
0.0
 11
3675.886503067486
 21
556.7397532842391
 31
0.0
  0
LINE
  5
1D9
330
2F
100
AcDbEntity
  8
0
 62
7
100
AcDbLine
 10
3675.886503067486
 20
556.7397532842391
 30
0.0
 11
3672.457668711656
 21
556.7397532842391
 31
0.0
  0
LINE
  5
1DA
330
2F
100
AcDbEntity
  8
0
 62
7
100
AcDbLine
 10
3672.457668711656
 20
556.7397532842391
 30
0.0
 11
3672.457668711656
 21
549.8820845725827
 31
0.0
  0
LINE
  5
1DB
330
2F
100
AcDbEntity
  8
0
 62
7
100
AcDbLine
 10
3672.457668711656
 20
549.8820845725827
 30
0.0
 11
3673.203067484664
 21
549.8820845725827
 31
0.0
  0
LINE
  5
1DC
330
2F
100
AcDbEntity
  8
0
 62
7
100
AcDbLine
 10
3672.28773006135
 20
417.9465017504966
 30
0.0
 11
3672.28773006135
 21
411.6851520572452
 31
0.0
  0
LINE
  5
1DD
330
2F
100
AcDbEntity
  8
0
 62
7
100
AcDbLine
 10
3673.28773006135
 20
417.9465017504966
 30
0.0
 11
3673.28773006135
 21
411.6851520572452
 31
0.0
  0
LINE
  5
1DE
330
2F
100
AcDbEntity
  8
0
 62
7
100
AcDbLine
 10
3695.734969325155
 20
417.9465017504966
 30
0.0
 11
3695.734969325155
 21
411.6851520572452
 31
0.0
  0
LINE
  5
1DF
330
2F
100
AcDbEntity
  8
0
 62
7
100
AcDbLine
 10
3694.734969325154
 20
417.9465017504966
 30
0.0
 11
3694.734969325154
 21
411.6851520572452
 31
0.0
  0
MTEXT
  5
1E0
330
2F
100
AcDbEntity
  8
0
 62
3
100
AcDbMText
 10
3733.546369646794
 20
434.763110508877
 30
0.0
 40
4.0
 41
5.0
 46
0.0
 71
1
 72
5
  1
{\fTimes New Roman|b0|i0|c0|p18;M12}
  7
ss
101
Embedded Object
 70
1
 10
1.0
 20
0.0
 30
0.0
 11
3733.546369646794
 21
434.763110508877
 31
0.0
 40
5.0
 41
0.0
 42
10.81470800288392
 43
4.0
 71
2
 72
1
 44
5.0
 45
12.5
 73
0
 74
0
 46
0.0
  0
MTEXT
  5
1E1
330
2F
100
AcDbEntity
  8
0
 62
3
100
AcDbMText
 10
3632.78773006135
 20
606.7177593970923
 30
0.0
 40
4.0
 41
21.5
 46
0.0
 71
1
 72
5
  1
\A1;{\fTimes New Roman|b0|i0|c0|p18;R/1 /L1}
  7
ss
101
Embedded Object
 70
1
 10
1.0
 20
0.0
 30
0.0
 11
3632.78773006135
 21
606.7177593970923
 31
0.0
 40
21.5
 41
0.0
 42
17.39005046863734
 43
4.18168709444845
 71
2
 72
1
 44
21.5
 45
12.5
 73
0
 74
0
 46
0.0
  0
MTEXT
  5
1E2
330
2F
100
AcDbEntity
  8
0
 62
3
100
AcDbMText
 10
3672.78773006135
 20
606.2177593970923
 30
0.0
 40
4.0
 41
21.5
 46
0.0
 71
1
 72
5
  1
\A1;{\fTimes New Roman|b0|i0|c0|p18;S/3 /L2}
  7
ss
101
Embedded Object
 70
1
 10
1.0
 20
0.0
 30
0.0
 11
3672.78773006135
 21
606.2177593970923
 31
0.0
 40
21.5
 41
0.0
 42
16.94304253785147
 43
4.190338860850757
 71
2
 72
1
 44
21.5
 45
12.5
 73
0
 74
0
 46
0.0
  0
MTEXT
  5
1E3
330
2F
100
AcDbEntity
  8
0
 62
3
100
AcDbMText
 10
3718.90490797546
 20
606.2177593970925
 30
0.0
 40
4.0
 41
21.5
 46
0.0
 71
1
 72
5
  1
\A1;{\fTimes New Roman|b0|i0|c0|p18;T/5 /L3}
  7
ss
101
Embedded Object
 70
1
 10
1.0
 20
0.0
 30
0.0
 11
3718.90490797546
 21
606.2177593970925
 31
0.0
 40
21.5
 41
0.0
 42
17.211247296323
 43
4.18168709444845
 71
2
 72
1
 44
21.5
 45
12.5
 73
0
 74
0
 46
0.0
  0
MTEXT
  5
1E4
330
2F
100
AcDbEntity
  8
0
 62
3
100
AcDbMText
 10
3631.883328369767
 20
465.2292950856288
 30
0.0
 40
4.0
 41
21.5
 46
0.0
 71
1
 72
5
  1
\A1;\pxt5;{\fTimes New Roman|b0|i0|c0|p18;U/2 /T1}
  7
ss
101
Embedded Object
 70
1
 10
1.0
 20
0.0
 30
0.0
 11
3631.883328369767
 21
465.2292950856288
 31
0.0
 40
21.5
 41
0.0
 42
17.78514780100937
 43
4.193222782984859
 71
2
 72
1
 44
21.5
 45
12.5
 73
0
 74
0
 46
0.0
  0
MTEXT
  5
1E5
330
2F
100
AcDbEntity
  8
0
 62
3
100
AcDbMText
 10
3674.297438799214
 20
465.2292950856288
 30
0.0
 40
4.0
 41
21.5
 46
0.0
 71
1
 72
5
  1
\A1;{\fTimes New Roman|b0|i0|c0|p18;V/4 /T2}
  7
ss
101
Embedded Object
 70
1
 10
1.0
 20
0.0
 30
0.0
 11
3674.297438799214
 21
465.2292950856288
 31
0.0
 40
21.5
 41
0.0
 42
18.24080749819755
 43
4.190338860850757
 71
2
 72
1
 44
21.5
 45
12.5
 73
0
 74
0
 46
0.0
  0
MTEXT
  5
1E6
330
2F
100
AcDbEntity
  8
0
 62
3
100
AcDbMText
 10
3717.106027756269
 20
465.2292950856288
 30
0.0
 40
4.0
 41
21.5
 46
0.0
 71
1
 72
5
  1
\A1;{\fTimes New Roman|b0|i0|c0|p18;W/6 /T3}
  7
ss
101
Embedded Object
 70
1
 10
1.0
 20
0.0
 30
0.0
 11
3717.106027756269
 21
465.2292950856288
 31
0.0
 40
21.5
 41
0.0
 42
19.2790194664744
 43
4.190338860850757
 71
2
 72
1
 44
21.5
 45
12.5
 73
0
 74
0
 46
0.0
  0
MTEXT
  5
1E7
330
2F
100
AcDbEntity
  8
0
 62
3
100
AcDbMText
 10
3660.539051868744
 20
504.3833690922975
 30
0.0
 40
4.0
 41
34.46280979994299
 46
0.0
 71
1
 72
5
  1
{\fTimes New Roman|b0|i0|c0|p18;MC-265a/330a/400a}
  7
ss
101
Embedded Object
 70
1
 10
1.0
 20
0.0
 30
0.0
 11
3660.539051868744
 21
504.3833690922975
 31
0.0
 40
34.46280979994299
 41
0.0
 42
48.77289113193943
 43
4.190338860850757
 71
2
 72
1
 44
34.46280979994299
 45
12.5
 73
0
 74
0
 46
0.0
  0
MTEXT
  5
1E8
330
2F
100
AcDbEntity
  8
0
 62
3
100
AcDbMText
 10
3620.001861668685
 20
557.3833690922972
 30
0.0
 40
3.0
 41
5.0
 46
0.0
 71
1
 72
5
  1
{\fTimes New Roman|b0|i0|c0|p18;13}
  7
ss
101
Embedded Object
 70
1
 10
1.0
 20
0.0
 30
0.0
 11
3620.001861668685
 21
557.3833690922972
 31
0.0
 40
5.0
 41
0.0
 42
3.542898341744773
 43
3.051910598413842
 71
2
 72
1
 44
5.0
 45
12.5
 73
0
 74
0
 46
0.0
  0
MTEXT
  5
1E9
330
2F
100
AcDbEntity
  8
0
 62
3
100
AcDbMText
 10
3620.001861668685
 20
548.3833690922972
 30
0.0
 40
3.0
 41
5.0
 46
0.0
 71
1
 72
5
  1
{\fTimes New Roman|b0|i0|c0|p18;21}
  7
ss
101
Embedded Object
 70
1
 10
1.0
 20
0.0
 30
0.0
 11
3620.001861668685
 21
548.3833690922972
 31
0.0
 40
5.0
 41
0.0
 42
3.793799567411679
 43
3.0
 71
2
 72
1
 44
5.0
 45
12.5
 73
0
 74
0
 46
0.0
  0
MTEXT
  5
1EA
330
2F
100
AcDbEntity
  8
0
 62
3
100
AcDbMText
 10
3620.001861668685
 20
518.3833690922972
 30
0.0
 40
3.0
 41
5.0
 46
0.0
 71
1
 72
5
  1
{\fTimes New Roman|b0|i0|c0|p18;22}
  7
ss
101
Embedded Object
 70
1
 10
1.0
 20
0.0
 30
0.0
 11
3620.001861668685
 21
518.3833690922972
 31
0.0
 40
5.0
 41
0.0
 42
4.150684931506849
 43
3.0
 71
2
 72
1
 44
5.0
 45
12.5
 73
0
 74
0
 46
0.0
  0
MTEXT
  5
1EB
330
2F
100
AcDbEntity
  8
0
 62
3
100
AcDbMText
 10
3620.001861668685
 20
509.8833690922973
 30
0.0
 40
3.0
 41
5.0
 46
0.0
 71
1
 72
5
  1
{\fTimes New Roman|b0|i0|c0|p18;14}
  7
ss
101
Embedded Object
 70
1
 10
1.0
 20
0.0
 30
0.0
 11
3620.001861668685
 21
509.8833690922973
 31
0.0
 40
5.0
 41
0.0
 42
3.757029560201874
 43
3.0
 71
2
 72
1
 44
5.0
 45
12.5
 73
0
 74
0
 46
0.0
  0
MTEXT
  5
1EC
330
2F
100
AcDbEntity
  8
0
 62
3
100
AcDbMText
 10
3746.468959834813
 20
557.8833690922975
 30
0.0
 40
3.0
 41
5.0
 46
0.0
 71
1
 72
5
  1
{\fTimes New Roman|b0|i0|c0|p18;43}
  7
ss
101
Embedded Object
 70
1
 10
1.0
 20
0.0
 30
0.0
 11
3746.468959834813
 21
557.8833690922975
 31
0.0
 40
5.0
 41
0.0
 42
3.992790194664744
 43
3.051910598413842
 71
2
 72
1
 44
5.0
 45
12.5
 73
0
 74
0
 46
0.0
  0
MTEXT
  5
1ED
330
2F
100
AcDbEntity
  8
0
 62
3
100
AcDbMText
 10
3746.468959834813
 20
548.8833690922972
 30
0.0
 40
3.0
 41
5.0
 46
0.0
 71
1
 72
5
  1
{\fTimes New Roman|b0|i0|c0|p18;31}
  7
ss
101
Embedded Object
 70
1
 10
1.0
 20
0.0
 30
0.0
 11
3746.468959834813
 21
548.8833690922972
 31
0.0
 40
5.0
 41
0.0
 42
3.709444844989184
 43
3.051910598413842
 71
2
 72
1
 44
5.0
 45
12.5
 73
0
 74
0
 46
0.0
  0
MTEXT
  5
1EE
330
2F
100
AcDbEntity
  8
0
 62
3
100
AcDbMText
 10
3746.468959834813
 20
518.8833690922972
 30
0.0
 40
3.0
 41
5.0
 46
0.0
 71
1
 72
5
  1
{\fTimes New Roman|b0|i0|c0|p18;32}
  7
ss
101
Embedded Object
 70
1
 10
1.0
 20
0.0
 30
0.0
 11
3746.468959834813
 21
518.8833690922972
 31
0.0
 40
5.0
 41
0.0
 42
4.066330209084354
 43
3.051910598413842
 71
2
 72
1
 44
5.0
 45
12.5
 73
0
 74
0
 46
0.0
  0
MTEXT
  5
1EF
330
2F
100
AcDbEntity
  8
0
 62
3
100
AcDbMText
 10
3746.468959834813
 20
510.3833690922973
 30
0.0
 40
3.0
 41
5.0
 46
0.0
 71
1
 72
5
  1
{\fTimes New Roman|b0|i0|c0|p18;44}
  7
ss
101
Embedded Object
 70
1
 10
1.0
 20
0.0
 30
0.0
 11
3746.468959834813
 21
510.3833690922973
 31
0.0
 40
5.0
 41
0.0
 42
4.206921413121845
 43
3.0
 71
2
 72
1
 44
5.0
 45
12.5
 73
0
 74
0
 46
0.0
  0
ENDBLK
  5
31
330
2F
100
AcDbEntity
  8
0
100
AcDbBlockEnd
  0
ENDSEC
  0
SECTION
  2
ENTITIES
  0
INSERT
  5
1F1
330
17
100
AcDbEntity
  8
0
100
AcDbBlockReference
  2
MC 265a
 10
-3602.8374233128834
 20
-411.68515205724475
 30
0.0
  0
ENDSEC
  0
SECTION
  2
OBJECTS
  0
DICTIONARY
  5
A
330
0
100
AcDbDictionary
281
1
  3
ACAD_COLOR
350
B
  3
ACAD_GROUP
350
C
  3
ACAD_LAYOUT
350
D
  3
ACAD_MATERIAL
350
E
  3
ACAD_MLEADERSTYLE
350
F
  3
ACAD_MLINESTYLE
350
10
  3
ACAD_PLOTSETTINGS
350
11
  3
ACAD_PLOTSTYLENAME
350
12
  3
ACAD_SCALELIST
350
14
  3
ACAD_TABLESTYLE
350
15
  3
ACAD_VISUALSTYLE
350
16
  3
EZDXF_META
350
2D
  0
DICTIONARY
  5
B
330
A
100
AcDbDictionary
281
1
  0
DICTIONARY
  5
C
330
A
100
AcDbDictionary
281
1
  0
DICTIONARY
  5
D
330
A
100
AcDbDictionary
281
1
  3
Model
350
1A
  3
Layout1
350
1E
  0
DICTIONARY
  5
E
330
A
100
AcDbDictionary
281
1
  3
ByBlock
350
1F
  3
ByLayer
350
20
  3
Global
350
21
  0
DICTIONARY
  5
F
330
A
100
AcDbDictionary
281
1
  3
Standard
350
2C
  0
DICTIONARY
  5
10
330
A
100
AcDbDictionary
281
1
  3
Standard
350
22
  0
DICTIONARY
  5
11
330
A
100
AcDbDictionary
281
1
  0
ACDBDICTIONARYWDFLT
  5
12
330
A
100
AcDbDictionary
281
1
  3
Normal
350
13
100
AcDbDictionaryWithDefault
340
13
  0
ACDBPLACEHOLDER
  5
13
330
12
  0
DICTIONARY
  5
14
330
A
100
AcDbDictionary
281
1
  0
DICTIONARY
  5
15
330
A
100
AcDbDictionary
281
1
  0
DICTIONARY
  5
16
330
A
100
AcDbDictionary
281
1
  0
LAYOUT
  5
1A
330
D
100
AcDbPlotSettings
  1

  4
A3
  6

 40
7.5
 41
20.0
 42
7.5
 43
20.0
 44
420.0
 45
297.0
 46
0.0
 47
0.0
 48
0.0
 49
0.0
140
0.0
141
0.0
142
1.0
143
1.0
 70
1024
 72
1
 73
0
 74
5
  7

 75
16
 76
0
 77
2
 78
300
147
1.0
148
0.0
149
0.0
100
AcDbLayout
  1
Model
 70
1
 71
0
 10
0.0
 20
0.0
 11
420.0
 21
297.0
 12
0.0
 22
0.0
 32
0.0
 14
1e+20
 24
1e+20
 34
1e+20
 15
-1e+20
 25
-1e+20
 35
-1e+20
146
0.0
 13
0.0
 23
0.0
 33
0.0
 16
1.0
 26
0.0
 36
0.0
 17
0.0
 27
1.0
 37
0.0
 76
1
330
17
  0
LAYOUT
  5
1E
330
D
100
AcDbPlotSettings
  1

  4
A3
  6

 40
7.5
 41
20.0
 42
7.5
 43
20.0
 44
420.0
 45
297.0
 46
0.0
 47
0.0
 48
0.0
 49
0.0
140
0.0
141
0.0
142
1.0
143
1.0
 70
0
 72
1
 73
0
 74
5
  7

 75
16
 76
0
 77
2
 78
300
147
1.0
148
0.0
149
0.0
100
AcDbLayout
  1
Layout1
 70
1
 71
1
 10
0.0
 20
0.0
 11
420.0
 21
297.0
 12
0.0
 22
0.0
 32
0.0
 14
1e+20
 24
1e+20
 34
1e+20
 15
-1e+20
 25
-1e+20
 35
-1e+20
146
0.0
 13
0.0
 23
0.0
 33
0.0
 16
1.0
 26
0.0
 36
0.0
 17
0.0
 27
1.0
 37
0.0
 76
1
330
1B
  0
MATERIAL
  5
1F
102
{ACAD_REACTORS
330
E
102
}
330
E
100
AcDbMaterial
  1
ByBlock
  2

 70
0
 40
1.0
 71
1
 41
1.0
 91
-1023410177
 42
1.0
 72
1
  3

 73
1
 74
1
 75
1
 44
0.5
 73
0
 45
1.0
 46
1.0
 77
1
  4

 78
1
 79
1
170
1
 48
1.0
171
1
  6

172
1
173
1
174
1
140
1.0
141
1.0
175
1
  7

176
1
177
1
178
1
143
1.0
179
1
  8

270
1
271
1
272
1
145
1.0
146
1.0
273
1
  9

274
1
275
1
276
1
 42
1.0
 72
1
  3

 73
1
 74
1
 75
1
 94
63
  0
MATERIAL
  5
20
102
{ACAD_REACTORS
330
E
102
}
330
E
100
AcDbMaterial
  1
ByLayer
  2

 70
0
 40
1.0
 71
1
 41
1.0
 91
-1023410177
 42
1.0
 72
1
  3

 73
1
 74
1
 75
1
 44
0.5
 73
0
 45
1.0
 46
1.0
 77
1
  4

 78
1
 79
1
170
1
 48
1.0
171
1
  6

172
1
173
1
174
1
140
1.0
141
1.0
175
1
  7

176
1
177
1
178
1
143
1.0
179
1
  8

270
1
271
1
272
1
145
1.0
146
1.0
273
1
  9

274
1
275
1
276
1
 42
1.0
 72
1
  3

 73
1
 74
1
 75
1
 94
63
  0
MATERIAL
  5
21
102
{ACAD_REACTORS
330
E
102
}
330
E
100
AcDbMaterial
  1
Global
  2

 70
0
 40
1.0
 71
1
 41
1.0
 91
-1023410177
 42
1.0
 72
1
  3

 73
1
 74
1
 75
1
 44
0.5
 73
0
 45
1.0
 46
1.0
 77
1
  4

 78
1
 79
1
170
1
 48
1.0
171
1
  6

172
1
173
1
174
1
140
1.0
141
1.0
175
1
  7

176
1
177
1
178
1
143
1.0
179
1
  8

270
1
271
1
272
1
145
1.0
146
1.0
273
1
  9

274
1
275
1
276
1
 42
1.0
 72
1
  3

 73
1
 74
1
 75
1
 94
63
  0
MLINESTYLE
  5
22
102
{ACAD_REACTORS
330
10
102
}
330
10
100
AcDbMlineStyle
  2
Standard
 70
0
  3

 62
256
 51
90.0
 52
90.0
 71
2
 49
0.5
 62
256
  6
BYLAYER
 49
-0.5
 62
256
  6
BYLAYER
  0
MLEADERSTYLE
  5
2C
102
{ACAD_REACTORS
330
F
102
}
330
F
100
AcDbMLeaderStyle
179
2
170
2
171
1
172
0
 90
2
 40
0.0
 41
0.0
173
1
 91
-1056964608
 92
-2
290
1
 42
2.0
291
1
 43
8.0
  3
Standard
 44
4.0
300

342
29
174
1
175
1
176
0
178
1
 93
-1056964608
 45
4.0
292
0
297
0
 46
4.0
 94
-1056964608
 47
1.0
 49
1.0
140
1.0
294
1
141
0.0
177
0
142
1.0
295
0
296
0
143
3.75
271
0
272
9
273
9
  0
DICTIONARY
  5
2D
330
A
100
AcDbDictionary
280
1
281
1
  3
CREATED_BY_EZDXF
350
2E
  3
WRITTEN_BY_EZDXF
350
1F5
  0
DICTIONARYVAR
  5
2E
330
2D
100
DictionaryVariables
280
0
  1
1.4.4 @ 2026-09-23T06:02:51.753361+00:00
  0
DICTIONARYVAR
  5
1F5
330
2D
100
DictionaryVariables
280
0
  1
1.4.4 @ 2026-09-23T06:02:51.838691+00:00
  0
ENDSEC
  0
EOF
