  0
SECTION
  2
HEADER
  9
$ACADVER
  1
AC1032
  9
$ACADMAINTVER
 90
4
  9
$DWGCODEPAGE
  3
ANSI_1252
  9
$LASTSAVEDBY
  1
ezdxf
  9
$REQUIREDVERSIONS
160
0
  9
$INSBASE
 10
0.0
 20
0.0
 30
0.0
  9
$EXTMIN
 10
1e+20
 20
1e+20
 30
1e+20
  9
$EXTMAX
 10
-1e+20
 20
-1e+20
 30
-1e+20
  9
$LIMMIN
 10
0.0
 20
0.0
  9
$LIMMAX
 10
420.0
 20
297.0
  9
$ORTHOMODE
 70
0
  9
$REGENMODE
 70
1
  9
$FILLMODE
 70
1
  9
$QTEXTMODE
 70
0
  9
$MIRRTEXT
 70
1
  9
$LTSCALE
 40
1.0
  9
$ATTMODE
 70
1
  9
$TEXTSIZE
 40
2.5
  9
$TRACEWID
 40
1.0
  9
$TEXTSTYLE
  7
Standard
  9
$CLAYER
  8
0
  9
$CELTYPE
  6
ByLayer
  9
$CECOLOR
 62
256
  9
$CELTSCALE
 40
1.0
  9
$DISPSILH
 70
0
  9
$DIMSCALE
 40
1.0
  9
$DIMASZ
 40
2.5
  9
$DIMEXO
 40
0.625
  9
$DIMDLI
 40
3.75
  9
$DIMRND
 40
0.0
  9
$DIMDLE
 40
0.0
  9
$DIMEXE
 40
1.25
  9
$DIMTP
 40
0.0
  9
$DIMTM
 40
0.0
  9
$DIMTXT
 40
2.5
  9
$DIMCEN
 40
2.5
  9
$DIMTSZ
 40
0.0
  9
$DIMTOL
 70
0
  9
$DIMLIM
 70
0
  9
$DIMTIH
 70
0
  9
$DIMTOH
 70
0
  9
$DIMSE1
 70
0
  9
$DIMSE2
 70
0
  9
$DIMTAD
 70
1
  9
$DIMZIN
 70
8
  9
$DIMBLK
  1

  9
$DIMASO
 70
1
  9
$DIMSHO
 70
1
  9
$DIMPOST
  1

  9
$DIMAPOST
  1

  9
$DIMALT
 70
0
  9
$DIMALTD
 70
3
  9
$DIMALTF
 40
0.03937007874
  9
$DIMLFAC
 40
1.0
  9
$DIMTOFL
 70
1
  9
$DIMTVP
 40
0.0
  9
$DIMTIX
 70
0
  9
$DIMSOXD
 70
0
  9
$DIMSAH
 70
0
  9
$DIMBLK1
  1

  9
$DIMBLK2
  1

  9
$DIMSTYLE
  2
ISO-25
  9
$DIMCLRD
 70
0
  9
$DIMCLRE
 70
0
  9
$DIMCLRT
 70
0
  9
$DIMTFAC
 40
1.0
  9
$DIMGAP
 40
0.625
  9
$DIMJUST
 70
0
  9
$DIMSD1
 70
0
  9
$DIMSD2
 70
0
  9
$DIMTOLJ
 70
0
  9
$DIMTZIN
 70
8
  9
$DIMALTZ
 70
0
  9
$DIMALTTZ
 70
0
  9
$DIMUPT
 70
0
  9
$DIMDEC
 70
2
  9
$DIMTDEC
 70
2
  9
$DIMALTU
 70
2
  9
$DIMALTTD
 70
3
  9
$DIMTXSTY
  7
Standard
  9
$DIMAUNIT
 70
0
  9
$DIMADEC
 70
0
  9
$DIMALTRND
 40
0.0
  9
$DIMAZIN
 70
0
  9
$DIMDSEP
 70
44
  9
$DIMATFIT
 70
3
  9
$DIMFRAC
 70
0
  9
$DIMLDRBLK
  1

  9
$DIMLUNIT
 70
2
  9
$DIMLWD
 70
-2
  9
$DIMLWE
 70
-2
  9
$DIMTMOVE
 70
0
  9
$DIMFXL
 40
1.0
  9
$DIMFXLON
 70
0
  9
$DIMJOGANG
 40
0.785398163397
  9
$DIMTFILL
 70
0
  9
$DIMTFILLCLR
 70
0
  9
$DIMARCSYM
 70
0
  9
$DIMLTYPE
  6

  9
$DIMLTEX1
  6

  9
$DIMLTEX2
  6

  9
$DIMTXTDIRECTION
 70
0
  9
$LUNITS
 70
2
  9
$LUPREC
 70
4
  9
$SKETCHINC
 40
1.0
  9
$FILLETRAD
 40
10.0
  9
$AUNITS
 70
0
  9
$AUPREC
 70
2
  9
$MENU
  1
.
  9
$ELEVATION
 40
0.0
  9
$PELEVATION
 40
0.0
  9
$THICKNESS
 40
0.0
  9
$LIMCHECK
 70
0
  9
$CHAMFERA
 40
0.0
  9
$CHAMFERB
 40
0.0
  9
$CHAMFERC
 40
0.0
  9
$CHAMFERD
 40
0.0
  9
$SKPOLY
 70
0
  9
$TDCREATE
 40
2461307.5438194443
  9
$TDUCREATE
 40
2458532.153996898
  9
$TDUPDATE
 40
2461307.5438194443
  9
$TDUUPDATE
 40
2458532.1544311
  9
$TDINDWG
 40
0.0
  9
$TDUSRTIMER
 40
0.0
  9
$USRTIMER
 70
1
  9
$ANGBASE
 50
0.0
  9
$ANGDIR
 70
0
  9
$PDMODE
 70
0
  9
$PDSIZE
 40
0.0
  9
$PLINEWID
 40
0.0
  9
$SPLFRAME
 70
0
  9
$SPLINETYPE
 70
6
  9
$SPLINESEGS
 70
8
  9
$HANDSEED
  5
74
  9
$SURFTAB1
 70
6
  9
$SURFTAB2
 70
6
  9
$SURFTYPE
 70
6
  9
$SURFU
 70
6
  9
$SURFV
 70
6
  9
$UCSBASE
  2

  9
$UCSNAME
  2

  9
$UCSORG
 10
0.0
 20
0.0
 30
0.0
  9
$UCSXDIR
 10
1.0
 20
0.0
 30
0.0
  9
$UCSYDIR
 10
0.0
 20
1.0
 30
0.0
  9
$UCSORTHOREF
  2

  9
$UCSORTHOVIEW
 70
0
  9
$UCSORGTOP
 10
0.0
 20
0.0
 30
0.0
  9
$UCSORGBOTTOM
 10
0.0
 20
0.0
 30
0.0
  9
$UCSORGLEFT
 10
0.0
 20
0.0
 30
0.0
  9
$UCSORGRIGHT
 10
0.0
 20
0.0
 30
0.0
  9
$UCSORGFRONT
 10
0.0
 20
0.0
 30
0.0
  9
$UCSORGBACK
 10
0.0
 20
0.0
 30
0.0
  9
$PUCSBASE
  2

  9
$PUCSNAME
  2

  9
$PUCSORG
 10
0.0
 20
0.0
 30
0.0
  9
$PUCSXDIR
 10
1.0
 20
0.0
 30
0.0
  9
$PUCSYDIR
 10
0.0
 20
1.0
 30
0.0
  9
$PUCSORTHOREF
  2

  9
$PUCSORTHOVIEW
 70
0
  9
$PUCSORGTOP
 10
0.0
 20
0.0
 30
0.0
  9
$PUCSORGBOTTOM
 10
0.0
 20
0.0
 30
0.0
  9
$PUCSORGLEFT
 10
0.0
 20
0.0
 30
0.0
  9
$PUCSORGRIGHT
 10
0.0
 20
0.0
 30
0.0
  9
$PUCSORGFRONT
 10
0.0
 20
0.0
 30
0.0
  9
$PUCSORGBACK
 10
0.0
 20
0.0
 30
0.0
  9
$USERI1
 70
0
  9
$USERI2
 70
0
  9
$USERI3
 70
0
  9
$USERI4
 70
0
  9
$USERI5
 70
0
  9
$USERR1
 40
0.0
  9
$USERR2
 40
0.0
  9
$USERR3
 40
0.0
  9
$USERR4
 40
0.0
  9
$USERR5
 40
0.0
  9
$WORLDVIEW
 70
1
  9
$SHADEDGE
 70
3
  9
$SHADEDIF
 70
70
  9
$TILEMODE
 70
1
  9
$MAXACTVP
 70
64
  9
$PINSBASE
 10
0.0
 20
0.0
 30
0.0
  9
$PLIMCHECK
 70
0
  9
$PEXTMIN
 10
1e+20
 20
1e+20
 30
1e+20
  9
$PEXTMAX
 10
-1e+20
 20
-1e+20
 30
-1e+20
  9
$PLIMMIN
 10
0.0
 20
0.0
  9
$PLIMMAX
 10
420.0
 20
297.0
  9
$UNITMODE
 70
0
  9
$VISRETAIN
 70
1
  9
$PLINEGEN
 70
0
  9
$PSLTSCALE
 70
1
  9
$TREEDEPTH
 70
3020
  9
$CMLSTYLE
  2
Standard
  9
$CMLJUST
 70
0
  9
$CMLSCALE
 40
20.0
  9
$PROXYGRAPHICS
 70
1
  9
$MEASUREMENT
 70
1
  9
$CELWEIGHT
370
-1
  9
$ENDCAPS
280
0
  9
$JOINSTYLE
280
0
  9
$LWDISPLAY
290
0
  9
$INSUNITS
 70
4
  9
$HYPERLINKBASE
  1

  9
$STYLESHEET
  1

  9
$XEDIT
290
1
  9
$CEPSNTYPE
380
0
  9
$PSTYLEMODE
290
1
  9
$FINGERPRINTGUID
  2
{6BB08202-CB49-4D7D-AD57-D40AE8B15D65}
  9
$VERSIONGUID
  2
{D27275F6-F6DE-4BAB-8DBF-9E5174C3F20D}
  9
$EXTNAMES
290
1
  9
$PSVPSCALE
 40
0.0
  9
$OLESTARTUP
290
0
  9
$SORTENTS
280
127
  9
$INDEXCTL
280
0
  9
$HIDETEXT
280
1
  9
$XCLIPFRAME
280
1
  9
$HALOGAP
280
0
  9
$OBSCOLOR
 70
257
  9
$OBSLTYPE
280
0
  9
$INTERSECTIONDISPLAY
280
0
  9
$INTERSECTIONCOLOR
 70
257
  9
$DIMASSOC
280
2
  9
$PROJECTNAME
  1

  9
$CAMERADISPLAY
290
0
  9
$LENSLENGTH
 40
50.0
  9
$CAMERAHEIGHT
 40
0.0
  9
$STEPSPERSEC
 40
24.0
  9
$STEPSIZE
 40
100.0
  9
$3DDWFPREC
 40
2.0
  9
$PSOLWIDTH
 40
0.005
  9
$PSOLHEIGHT
 40
0.08
  9
$LOFTANG1
 40
1.570796326795
  9
$LOFTANG2
 40
1.570796326795
  9
$LOFTMAG1
 40
0.0
  9
$LOFTMAG2
 40
0.0
  9
$LOFTPARAM
 70
7
  9
$LOFTNORMALS
280
1
  9
$LATITUDE
 40
37.795
  9
$LONGITUDE
 40
-122.394
  9
$NORTHDIRECTION
 40
0.0
  9
$TIMEZONE
 70
-8000
  9
$LIGHTGLYPHDISPLAY
280
1
  9
$TILEMODELIGHTSYNCH
280
1
  9
$CMATERIAL
347
20
  9
$SOLIDHIST
280
0
  9
$SHOWHIST
280
1
  9
$DWFFRAME
280
2
  9
$DGNFRAME
280
2
  9
$REALWORLDSCALE
290
1
  9
$INTERFERECOLOR
 62
256
  9
$CSHADOW
280
0
  9
$SHADOWPLANELOCATION
 40
0.0
  0
ENDSEC
  0
SECTION
  2
CLASSES
  0
CLASS
  1
ACDBDICTIONARYWDFLT
  2
AcDbDictionaryWithDefault
  3
ObjectDBX Classes
 90
0
 91
0
280
0
281
0
  0
CLASS
  1
SUN
  2
AcDbSun
  3
SCENEOE
 90
1153
 91
0
280
0
281
0
  0
CLASS
  1
VISUALSTYLE
  2
AcDbVisualStyle
  3
ObjectDBX Classes
 90
4095
 91
0
280
0
281
0
  0
CLASS
  1
MATERIAL
  2
AcDbMaterial
  3
ObjectDBX Classes
 90
1153
 91
0
280
0
281
0
  0
CLASS
  1
SCALE
  2
AcDbScale
  3
ObjectDBX Classes
 90
1153
 91
0
280
0
281
0
  0
CLASS
  1
TABLESTYLE
  2
AcDbTableStyle
  3
ObjectDBX Classes
 90
4095
 91
0
280
0
281
0
  0
CLASS
  1
MLEADERSTYLE
  2
AcDbMLeaderStyle
  3
ACDB_MLEADERSTYLE_CLASS
 90
4095
 91
0
280
0
281
0
  0
CLASS
  1
DICTIONARYVAR
  2
AcDbDictionaryVar
  3
ObjectDBX Classes
 90
0
 91
0
280
0
281
0
  0
CLASS
  1
CELLSTYLEMAP
  2
AcDbCellStyleMap
  3
ObjectDBX Classes
 90
1152
 91
0
280
0
281
0
  0
CLASS
  1
MENTALRAYRENDERSETTINGS
  2
AcDbMentalRayRenderSettings
  3
SCENEOE
 90
1024
 91
0
280
0
281
0
  0
CLASS
  1
ACDBDETAILVIEWSTYLE
  2
AcDbDetailViewStyle
  3
ObjectDBX Classes
 90
1025
 91
0
280
0
281
0
  0
CLASS
  1
ACDBSECTIONVIEWSTYLE
  2
AcDbSectionViewStyle
  3
ObjectDBX Classes
 90
1025
 91
0
280
0
281
0
  0
CLASS
  1
RASTERVARIABLES
  2
AcDbRasterVariables
  3
ISM
 90
0
 91
0
280
0
281
0
  0
CLASS
  1
LAYOUT
  2
AcDbLayout
  3
ObjectDBX Classes
 90
0
 91
0
280
0
281
0
  0
CLASS
  1
ACDBPLACEHOLDER
  2
AcDbPlaceHolder
  3
ObjectDBX Classes
 90
0
 91
0
280
0
281
0
  0
ENDSEC
  0
SECTION
  2
TABLES
  0
TABLE
  2
VPORT
  5
8
330
0
100
AcDbSymbolTable
 70
1
  0
VPORT
  5
23
330
8
100
AcDbSymbolTableRecord
100
AcDbViewportTableRecord
  2
*Active
 70
0
 10
0.0
 20
0.0
 11
1.0
 21
1.0
 12
0.0
 22
0.0
 13
0.0
 23
0.0
 14
0.5
 24
0.5
 15
0.5
 25
0.5
 16
0.0
 26
0.0
 36
1.0
 17
0.0
 27
0.0
 37
0.0
 40
1000.0
 41
1.34
 42
50.0
 43
0.0
 44
0.0
 50
0.0
 51
0.0
 71
0
 72
1000
 73
1
 74
3
 75
0
 76
0
 77
0
 78
0
281
0
 65
0
146
0.0
  0
ENDTAB
  0
TABLE
  2
LTYPE
  5
2
330
0
100
AcDbSymbolTable
 70
4
  0
LTYPE
  5
24
330
2
100
AcDbSymbolTableRecord
100
AcDbLinetypeTableRecord
  2
ByBlock
 70
0
  3

 72
65
 73
0
 40
0.0
  0
LTYPE
  5
25
330
2
100
AcDbSymbolTableRecord
100
AcDbLinetypeTableRecord
  2
ByLayer
 70
0
  3

 72
65
 73
0
 40
0.0
  0
LTYPE
  5
26
330
2
100
AcDbSymbolTableRecord
100
AcDbLinetypeTableRecord
  2
Continuous
 70
0
  3

 72
65
 73
0
 40
0.0
  0
LTYPE
  5
6D
330
2
100
AcDbSymbolTableRecord
100
AcDbLinetypeTableRecord
  2
HIDDEN
 70
0
  3
Hidden __ __ __ __ __ __ __ __ __ __ __ __ __ _
 72
65
 73
2
 40
0.375
 49
0.25
 74
0
 49
-0.125
 74
0
  0
ENDTAB
  0
TABLE
  2
LAYER
  5
1
330
0
100
AcDbSymbolTable
 70
2
  0
LAYER
  5
27
330
1
100
AcDbSymbolTableRecord
100
AcDbLayerTableRecord
  2
0
 70
0
 62
7
  6
Continuous
370
-3
390
13
347
21
  0
LAYER
  5
28
330
1
100
AcDbSymbolTableRecord
100
AcDbLayerTableRecord
  2
Defpoints
 70
0
 62
7
  6
Continuous
290
0
370
-3
390
13
347
21
  0
ENDTAB
  0
TABLE
  2
STYLE
  5
5
330
0
100
AcDbSymbolTable
 70
2
  0
STYLE
  5
29
330
5
100
AcDbSymbolTableRecord
100
AcDbTextStyleTableRecord
  2
Standard
 70
0
 40
0.0
 41
1.0
 50
0.0
 71
0
 42
2.5
  3
txt
  4

  0
STYLE
  5
6E
330
5
100
AcDbSymbolTableRecord
100
AcDbTextStyleTableRecord
  2
WD_IEC
 70
0
 40
0.0
 41
1.0
 50
0.0
 71
0
 42
5.0
  3
isocp2.shx
  4

  0
ENDTAB
  0
TABLE
  2
VIEW
  5
7
330
0
100
AcDbSymbolTable
 70
0
  0
ENDTAB
  0
TABLE
  2
UCS
  5
6
330
0
100
AcDbSymbolTable
 70
0
  0
ENDTAB
  0
TABLE
  2
APPID
  5
3
330
0
100
AcDbSymbolTable
 70
3
  0
APPID
  5
2A
330
3
100
AcDbSymbolTableRecord
100
AcDbRegAppTableRecord
  2
ACAD
 70
0
  0
APPID
  5
71
330
3
100
AcDbSymbolTableRecord
100
AcDbRegAppTableRecord
  2
HATCHBACKGROUNDCOLOR
 70
0
  0
APPID
  5
72
330
3
100
AcDbSymbolTableRecord
100
AcDbRegAppTableRecord
  2
EZDXF
 70
0
  0
ENDTAB
  0
TABLE
  2
DIMSTYLE
  5
4
330
0
100
AcDbSymbolTable
 70
1
100
AcDbDimStyleTable
  0
DIMSTYLE
105
2B
330
4
100
AcDbSymbolTableRecord
100
AcDbDimStyleTableRecord
  2
Standard
 70
0
 40
1.0
 41
2.5
 42
0.625
 43
3.75
 44
1.25
 45
0.0
 46
0.0
 47
0.0
 48
0.0
 49
2.5
140
2.5
141
2.5
142
0.0
143
0.03937007874
144
1.0
145
0.0
146
1.0
147
0.625
148
0.0
 69
0
 70
0
 71
0
 72
0
 73
0
 74
0
 75
0
 76
0
 77
1
 78
8
 79
3
170
0
171
3
172
1
173
0
174
0
175
0
176
0
177
0
178
0
179
2
271
2
272
2
273
2
274
3
275
0
276
0
277
2
278
44
279
0
280
0
281
0
282
0
283
0
284
8
285
0
286
0
288
0
289
3
290
0
371
-2
372
-2
  0
ENDTAB
  0
TABLE
  2
BLOCK_RECORD
  5
9
330
0
100
AcDbSymbolTable
 70
5
  0
BLOCK_RECORD
  5
17
330
9
100
AcDbSymbolTableRecord
100
AcDbBlockTableRecord
  2
*Model_Space
340
1A
 70
0
280
1
281
0
  0
BLOCK_RECORD
  5
1B
330
9
100
AcDbSymbolTableRecord
100
AcDbBlockTableRecord
  2
*Paper_Space
340
1E
 70
0
280
1
281
0
  0
BLOCK_RECORD
  5
2F
330
9
100
AcDbSymbolTableRecord
100
AcDbBlockTableRecord
  2
OLR MT-32
340
0
 70
0
280
1
281
0
  0
BLOCK_RECORD
  5
5C
330
9
100
AcDbSymbolTableRecord
100
AcDbBlockTableRecord
  2
Logo LS
340
0
 70
0
280
1
281
0
  0
BLOCK_RECORD
  5
62
330
9
100
AcDbSymbolTableRecord
100
AcDbBlockTableRecord
  2
Vis MC LS
340
0
 70
0
280
1
281
0
  0
ENDTAB
  0
ENDSEC
  0
SECTION
  2
BLOCKS
  0
BLOCK
  5
18
330
17
100
AcDbEntity
  8
0
100
AcDbBlockBegin
  2
*Model_Space
 70
0
 10
0.0
 20
0.0
 30
0.0
  3
*Model_Space
  1

  0
ENDBLK
  5
19
330
17
100
AcDbEntity
  8
0
100
AcDbBlockEnd
  0
BLOCK
  5
1C
330
1B
100
AcDbEntity
  8
0
100
AcDbBlockBegin
  2
*Paper_Space
 70
0
 10
0.0
 20
0.0
 30
0.0
  3
*Paper_Space
  1

  0
ENDBLK
  5
1D
330
1B
100
AcDbEntity
  8
0
100
AcDbBlockEnd
  0
BLOCK
  5
30
330
2F
100
AcDbEntity
  8
0
100
AcDbBlockBegin
  2
OLR MT-32
 70
2
 10
0.0
 20
0.0
 30
0.0
  3
OLR MT-32
  1

  4
Drawn by Hawee Sep.2015
  0
ATTDEF
  5
32
330
2F
100
AcDbEntity
  8
Defpoints
  6
ByBlock
 62
8
370
18
 60
1
100
AcDbText
 10
22.50014
 20
-56.39999999999965
 30
0.0
 40
0.0001
  1
fmt
  7
WD_IEC
 72
1
 11
22.500245
 21
-56.39994999999966
 31
0.0
100
AcDbAttributeDefinition
  3
Author
  2
AUTHOR
 70
15
 74
2
280
1
 71
1
 72
0
 11
22.500245
 21
-56.39994999999966
 31
0.0
  0
ATTDEF
  5
33
330
2F
100
AcDbEntity
  8
Defpoints
  6
ByBlock
 62
8
370
18
 60
1
100
AcDbText
 10
22.50016801968504
 20
-56.39999999999965
 30
0.0
 40
0.0001
  1
LS
  7
WD_IEC
 72
1
 11
22.500245
 21
-56.39994999999966
 31
0.0
100
AcDbAttributeDefinition
  3
Origin
  2
ORIGIN
 70
13
 74
2
280
1
 71
1
 72
0
 11
22.500245
 21
-56.39994999999966
 31
0.0
  0
ATTDEF
  5
34
330
2F
100
AcDbEntity
  8
0
  6
ByBlock
 62
1
370
18
100
AcDbText
 10
1.0
 20
-25.09999999999965
 30
0.0
 40
4.0
  1
Type
  7
WD_IEC
 41
0.5
100
AcDbAttributeDefinition
  3
Type
  2
TYPE
 70
12
280
1
 71
1
 72
0
  0
INSERT
  5
35
330
2F
100
AcDbEntity
  8
0
  6
ByBlock
 62
0
370
18
100
AcDbBlockReference
  2
Logo LS
 10
1.0
 20
-17.09999999999964
 30
0.0
  0
LWPOLYLINE
  5
37
330
2F
100
AcDbEntity
  8
0
  6
ByBlock
 62
150
370
9
 60
1
100
AcDbPolyline
 90
26
 70
0
 10
89.0000000000885
 20
-12.0
 10
89.8000000000885
 20
-11.99999999999994
 42
-0.4142135623730951
 10
90.00000000008849
 20
-12.19999999999993
 10
90.00000000008849
 20
-18.40000000000015
 42
-0.4142135623730951
 10
89.80000000008845
 20
-18.60000000000013
 10
89.7000000000883
 20
-18.60000000000013
 10
89.7000000000883
 20
-18.30000000000001
 42
0.4142135623731173
 10
89.40000000008828
 20
-18.0
 10
89.0000000000885
 20
-18.0
 10
89.0000000000885
 20
-11.99999999993775
 42
-0.1734400604718462
 10
86.34958896686638
 20
-12.48266484455706
 10
86.3500000000884
 20
-18.0
 10
89.40000000008828
 20
-18.0
 42
-0.4142135623730951
 10
89.7000000000883
 20
-18.30000000000001
 10
89.7000000000883
 20
-20.5
 10
86.70000000008831
 20
-20.5
 10
86.70000000008831
 20
-22.10000000000014
 10
89.7000000000883
 20
-22.10000000000014
 10
89.7000000000883
 20
-24.20156211870011
 42
-0.4142135623730951
 10
89.40000000008828
 20
-24.50156211870012
 10
86.3500000000884
 20
-24.50156211870012
 10
86.3500000000884
 20
-24.90000000000009
 10
86.60000000008841
 20
-24.90000000000009
 10
87.05771847358828
 20
-24.74742717550021
 10
87.09999999988831
 20
-24.7333333334002
 10
87.7953136438885
 20
-24.50156211870012
  0
LWPOLYLINE
  5
38
330
2F
100
AcDbEntity
  8
0
  6
ByBlock
 62
0
370
18
 60
1
100
AcDbPolyline
 90
64
 70
0
 10
81.50000000000003
 20
-14.20000000000004
 10
75.59999999999995
 20
-14.20000000000004
 10
74.6
 20
-13.20000000000004
 10
74.6
 20
-8.0
 10
0.0
 20
-8.0
 10
48.00000000000001
 20
-8.0
 10
48.00000000000001
 20
-56.40000000000009
 10
48.00000000000001
 20
-39.40000000000009
 10
52.69999999999988
 20
-39.40000000000009
 10
53.00000000000007
 20
-39.40000000000009
 10
53.00000000000007
 20
-44.60000000000014
 10
50.91934162754752
 20
-56.40000000000009
 10
0.0
 20
-56.40000000000009
 10
0.0
 20
0.0
 10
3.599999999999909
 20
0.0
 10
3.599999999999909
 20
2.199999999999818
 10
1.599999999999909
 20
2.199999999999818
 10
0.7999999999997272
 20
3.0
 10
0.7999999999997272
 20
4.0
 10
1.599999999999909
 20
4.799999999999954
 10
3.599999999999909
 20
4.799999999999954
 10
6.599999999999894
 20
4.799999999999954
 10
7.215384615299839
 20
0.0
 10
8.599999999999895
 20
0.0
 10
8.599999999999895
 20
-3.0
 10
80.29999999999978
 20
-3.0
 10
80.29999999999978
 20
-3.0
 10
80.29999999999978
 20
7.299999999999748
 10
82.29999999996429
 20
7.299999999999748
 10
86.29999999999977
 20
0.9999999998458406
 10
86.29999999999977
 20
-7.308846547467567
 42
-0.8777440592531688
 10
85.84999999999995
 20
-10.75000000000347
 10
85.09999999999997
 20
-10.75
 10
85.09999999999997
 20
-26.60000000000008
 42
-0.4142135623730951
 10
84.8
 20
-26.90000000000009
 10
81.50000000000003
 20
-26.90000000000009
 10
81.50000000000003
 20
7.299999999999748
 10
81.49999999988175
 20
-39.10000000000014
 10
77.89999999983887
 20
-41.10000000000013
 10
66.39999999999985
 20
-41.10000000000013
 10
65.39999999999996
 20
-39.10000000000014
 10
48.00000000000001
 20
-39.10000000000014
 10
82.70701685234779
 20
-39.10000000000014
 10
84.09999999999994
 20
-31.20000000000004
 10
84.09999999999994
 20
-27.20000000000005
 10
81.50000000000003
 20
-27.20000000000005
 10
81.50000000000003
 20
-27.20000000000005
 10
81.50000000000003
 20
-26.90000000000009
 10
84.28333333338837
 20
-26.90000000000009
 10
84.15000000008835
 20
-27.10000000000014
 10
84.15000000008835
 20
-27.80000000000013
 42
0.4142135623730951
 10
84.45000000008837
 20
-28.10000000000014
 10
86.13149530568835
 20
-28.10000000000014
 42
0.1316524976237348
 10
86.38149545776359
 20
-28.03301270185665
 10
86.5547005383883
 20
-27.9330127019
 42
0.4142135623175683
 10
86.73771324030137
 20
-27.25000000002268
 10
86.39019237894608
 20
-26.64807621140011
 42
-0.131652497575502
 10
86.3500000000884
 20
-26.49807621141218
 10
86.3500000000884
 20
-10.67705098312848
 10
86.3500000000884
 20
-11.0
 10
85.15000000008835
 20
-11.0
 10
85.15000000008835
 20
-26.90000000000009
 10
85.69848275578832
 20
-27.85000000000014
 42
0.4142135623730951
 10
86.38149545768833
 20
-28.03301270189235
  0
LWPOLYLINE
  5
39
330
2F
100
AcDbEntity
  8
0
  6
HIDDEN
 62
10
370
9
 48
0.25
 60
1
100
AcDbPolyline
 90
4
 70
0
 10
31.00000000008852
 20
-39.40000000000009
 10
31.00000000008852
 20
-49.80000000000007
 10
32.60000000008854
 20
-49.80000000000007
 10
32.60000000008866
 20
-39.40000000000009
  0
LWPOLYLINE
  5
3A
330
2F
100
AcDbEntity
  8
0
  6
ByBlock
 62
0
370
9
 60
1
100
AcDbPolyline
 90
4
 70
0
 10
64.68652984446356
 20
3.706622732190545
 10
64.15000002588822
 20
-3.0
 10
66.11372197678843
 20
-3.0
 10
66.2206038673372
 20
3.725676225442369
  0
LWPOLYLINE
  5
3B
330
2F
100
AcDbEntity
  8
0
  6
ByBlock
 62
0
370
18
100
AcDbPolyline
 90
4
 70
0
 10
0.0
 20
3.197e-13
 10
0.0
 20
-56.39999999999965
 10
44.99999999999999
 20
-56.39999999999965
 10
44.99999999999999
 20
3.197e-13
  0
INSERT
  5
3C
330
2F
100
AcDbEntity
  8
0
370
9
100
AcDbBlockReference
  2
Vis MC LS
 10
22.49999999999991
 20
-44.59999999999964
 30
0.0
 41
1.230769230769226
 42
1.230769230769226
 43
1.230769230769226
  0
INSERT
  5
3E
330
2F
100
AcDbEntity
  8
0
370
9
100
AcDbBlockReference
  2
Vis MC LS
 10
8.199999999999903
 20
-44.59999999999964
 30
0.0
 41
1.230769230769226
 42
1.230769230769226
 43
1.230769230769226
  0
INSERT
  5
40
330
2F
100
AcDbEntity
  8
0
370
9
100
AcDbBlockReference
  2
Vis MC LS
 10
36.79999999999991
 20
-44.59999999999964
 30
0.0
 41
1.230769230769226
 42
1.230769230769226
 43
1.230769230769226
  0
INSERT
  5
42
330
2F
100
AcDbEntity
  8
0
370
9
100
AcDbBlockReference
  2
Vis MC LS
 10
27.50000000000075
 20
-31.19999999999956
 30
0.0
  0
INSERT
  5
44
330
2F
100
AcDbEntity
  8
0
370
9
100
AcDbBlockReference
  2
Vis MC LS
 10
17.50000000000074
 20
-31.19999999999956
 30
0.0
  0
INSERT
  5
46
330
2F
100
AcDbEntity
  8
0
370
9
100
AcDbBlockReference
  2
Vis MC LS
 10
7.500000000000742
 20
-31.19999999999956
 30
0.0
  0
INSERT
  5
48
330
2F
100
AcDbEntity
  8
0
370
9
100
AcDbBlockReference
  2
Vis MC LS
 10
37.50000000000075
 20
-31.19999999999956
 30
0.0
  0
LWPOLYLINE
  5
4A
330
2F
100
AcDbEntity
  8
0
  6
ByBlock
 62
0
370
18
100
AcDbPolyline
 90
4
 70
1
 10
0.0
 20
-39.09999999999964
 10
44.99999999999999
 20
-39.09999999999964
 10
44.99999999999999
 20
-27.09999999999965
 10
0.0
 20
-27.09999999999965
  0
LWPOLYLINE
  5
4B
330
2F
100
AcDbEntity
  8
0
  6
ByBlock
 62
0
370
18
100
AcDbPolyline
 90
6
 70
1
 10
0.2999999999999971
 20
-10.74999999999968
 10
2.0
 20
-10.74999999999968
 10
2.0
 20
-7.24999999999968
 10
0.2999999999999971
 20
-7.24999999999968
 42
0.4142135623730951
 10
0.0
 20
-7.549999999999691
 10
0.0
 20
-10.44999999999967
 42
0.4142135623730951
  0
LWPOLYLINE
  5
4C
330
2F
100
AcDbEntity
  8
0
  6
ByBlock
 62
0
370
18
100
AcDbPolyline
 90
6
 70
1
 10
44.69999999999999
 20
-10.74999999999968
 10
42.99999999999999
 20
-10.74999999999968
 10
42.99999999999999
 20
-7.24999999999968
 10
44.69999999999999
 20
-7.24999999999968
 42
-0.4142135623730951
 10
44.99999999999999
 20
-7.549999999999691
 10
44.99999999999999
 20
-10.44999999999967
 42
-0.4142135623730951
  0
LWPOLYLINE
  5
4D
330
2F
100
AcDbEntity
  8
0
  6
ByBlock
 62
0
370
18
100
AcDbPolyline
 90
4
 70
1
 10
2.0
 20
-9.99999999999968
 10
42.99999999999999
 20
-9.99999999999968
 10
42.99999999999999
 20
-7.99999999999968
 10
2.0
 20
-7.99999999999968
  0
LWPOLYLINE
  5
4E
330
2F
100
AcDbEntity
  8
0
  6
HIDDEN
 62
250
370
9
 48
0.5
100
AcDbPolyline
 90
4
 70
0
 10
31.3499999999999
 20
8.000000000000433
 10
31.3499999999999
 20
18.15000000000029
 10
33.64999999999986
 20
18.15000000000029
 10
33.64999999999986
 20
8.000000000000433
  0
LWPOLYLINE
  5
4F
330
2F
100
AcDbEntity
  8
0
  6
HIDDEN
 62
250
370
9
 48
0.5
100
AcDbPolyline
 90
4
 70
0
 10
5.049999999999954
 20
7.000000000000433
 10
5.049999999999954
 20
18.15000000000029
 10
2.75
 20
18.15000000000029
 10
2.75
 20
7.000000000000433
  0
LWPOLYLINE
  5
50
330
2F
100
AcDbEntity
  8
0
  6
HIDDEN
 62
250
370
9
 48
0.5
100
AcDbPolyline
 90
6
 70
0
 10
19.3499999999999
 20
18.15000000000029
 10
19.3499999999999
 20
8.000000000000433
 10
19.3499999999999
 20
18.15000000000029
 10
17.04999999999994
 20
18.15000000000029
 10
17.04999999999994
 20
8.000000000000433
 10
17.04999999999994
 20
18.15000000000029
  0
LWPOLYLINE
  5
51
330
2F
100
AcDbEntity
  8
0
  6
HIDDEN
 62
250
370
9
 48
0.5
100
AcDbPolyline
 90
4
 70
0
 10
6.288940133999858
 20
2.763248325000382
 10
5.949999999999818
 20
7.000000000000433
 10
1.849999999999909
 20
7.000000000000433
 10
1.36999999999989
 20
1.000000000000433
  0
LWPOLYLINE
  5
52
330
2F
100
AcDbEntity
  8
0
  6
HIDDEN
 62
250
370
9
 48
0.5
100
AcDbPolyline
 90
4
 70
1
 10
12.5
 20
1.843396680900447
 10
32.5
 20
1.843396680900447
 10
32.5
 20
7.052855533600428
 10
12.5
 20
7.052855533600428
  0
LWPOLYLINE
  5
53
330
2F
100
AcDbEntity
  8
0
  6
HIDDEN
 62
250
370
9
 48
0.5
100
AcDbPolyline
 90
6
 70
0
 10
41.99999999999999
 20
1.000000000000433
 42
-0.4142135623730951
 10
37.99999999999999
 20
5.000000000000433
 10
37.99999999999999
 20
8.000000000000433
 10
7.0
 20
8.000000000000433
 10
7.000000000000007
 20
5.000000000000433
 42
-0.4142135623730951
 10
3.000000000000007
 20
1.000000000000433
  0
LWPOLYLINE
  5
54
330
2F
100
AcDbEntity
  8
0
  6
HIDDEN
 62
250
370
9
 48
0.5
100
AcDbPolyline
 90
4
 70
0
 10
44.99999999999999
 20
3.197e-13
 10
45.0
 20
1.000000000000433
 10
0.0
 20
1.000000000000376
 10
0.0
 20
3.197e-13
  0
INSERT
  5
55
330
2F
100
AcDbEntity
  8
0
370
9
100
AcDbBlockReference
  2
Vis MC LS
 10
35.09999999999939
 20
-21.29999999999952
 30
0.0
 41
1.230769230769226
 42
1.230769230769226
 43
1.230769230769226
  0
CIRCLE
  5
57
330
2F
100
AcDbEntity
  8
0
  6
ByBlock
 62
8
370
9
100
AcDbCircle
 10
24.09999999999999
 20
-15.29999999999958
 30
0.0
 40
3.25
  0
CIRCLE
  5
58
330
2F
100
AcDbEntity
  8
0
  6
ByBlock
 62
8
370
9
100
AcDbCircle
 10
24.09999999999999
 20
-15.29999999999958
 30
0.0
 40
3.5
  0
LWPOLYLINE
  5
59
330
2F
100
AcDbEntity
  8
0
  6
HIDDEN
 62
250
370
9
 48
0.5
 60
1
100
AcDbPolyline
 90
8
 70
0
 10
66.2206038673372
 20
3.725676225442365
 10
66.2726381763885
 20
7.0
 10
66.0500000000882
 20
7.0
 10
66.0500000000882
 20
18.14999999999986
 10
68.3500000000884
 20
18.14999999999986
 10
68.3500000000884
 20
7.0
 10
68.12736184958821
 20
7.0
 10
68.17900961445824
 20
3.749999999999998
  0
LWPOLYLINE
  5
5A
330
2F
100
AcDbEntity
  8
0
  6
HIDDEN
 62
250
370
9
 48
0.5
 60
1
100
AcDbPolyline
 90
4
 70
0
 10
69.70848029458013
 20
3.768996318852966
 10
69.45000000008831
 20
7.0
 10
64.9500000258884
 20
7.0
 10
64.68652984446356
 20
3.706622732190545
  0
LWPOLYLINE
  5
5B
330
2F
100
AcDbEntity
  8
0
  6
ByBlock
 62
0
370
9
 60
1
100
AcDbPolyline
 90
4
 70
0
 10
68.17900961445824
 20
3.750000000000007
 10
68.28627804918828
 20
-3.0
 10
70.25000000008849
 20
-3.0
 10
69.70848029458013
 20
3.768996318852966
  0
ENDBLK
  5
31
330
2F
100
AcDbEntity
  8
0
100
AcDbBlockEnd
  0
BLOCK
  5
5D
330
5C
100
AcDbEntity
  8
0
100
AcDbBlockBegin
  2
Logo LS
 70
0
 10
0.0
 20
0.0
 30
0.0
  3
Logo LS
  1

  0
HATCH
  5
5F
330
5C
100
AcDbEntity
  8
0
 62
10
100
AcDbHatch
 10
0.0
 20
0.0
 30
0.0
210
0.0
220
0.0
230
1.0
  2
SOLID
 70
1
 71
0
 91
1
 92
1
 93
1
 72
4
 94
3
 73
0
 74
0
 95
20
 96
16
 40
0.0
 40
0.0
 40
0.0
 40
0.0
 40
1.0
 40
1.0
 40
1.0
 40
2.0
 40
2.0
 40
2.0
 40
3.0
 40
3.0
 40
3.0
 40
4.0
 40
4.0
 40
4.0
 40
5.0
 40
5.0
 40
5.0
 40
5.0
 10
10.55965344402352
 20
6.722726179139024
 10
10.55965344402352
 20
6.722726179139024
 10
15.52923669506018
 20
6.722726179139024
 10
15.52923669506018
 20
6.722726179139024
 10
15.52923669506018
 20
6.722726179139024
 10
12.52271882028216
 20
5.193988276710064
 10
12.52271882028216
 20
5.193988276710064
 10
12.52271882028216
 20
5.193988276710064
 10
12.62818988486704
 20
5.684606487257273
 10
12.66077925875638
 20
5.830962402722065
 10
12.69573876892807
 20
5.985613795177428
 10
12.64122563442465
 20
6.088714723480742
 10
12.45102219772623
 20
6.14737559648062
 10
12.25489342032037
 20
6.207221537622454
 10
10.55965344402352
 20
6.722726179139024
 10
10.55965344402352
 20
6.722726179139024
 97
0
 97
0
 75
0
 76
1
 98
1
 10
7.78674212662363
 20
3.347652112380594
450
0
451
0
460
0.0
461
0.0
452
0
462
0.0
453
2
463
0
 63
5
421
255
463
1
 63
51
421
16777113
470
LINEAR
  0
HATCH
  5
60
330
5C
100
AcDbEntity
  8
0
 62
152
100
AcDbHatch
 10
0.0
 20
0.0
 30
0.0
210
0.0
220
0.0
230
1.0
  2
SOLID
 70
1
 71
0
 91
1
 92
1
 93
1
 72
4
 94
3
 73
0
 74
0
 95
86
 96
82
 40
0.0
 40
0.0
 40
0.0
 40
0.0
 40
1.0
 40
1.0
 40
1.0
 40
2.0
 40
2.0
 40
2.0
 40
3.0
 40
3.0
 40
3.0
 40
4.0
 40
4.0
 40
4.0
 40
5.0
 40
5.0
 40
5.0
 40
6.0
 40
6.0
 40
6.0
 40
7.0
 40
7.0
 40
7.0
 40
8.0
 40
8.0
 40
8.0
 40
9.0
 40
9.0
 40
9.0
 40
10.0
 40
10.0
 40
10.0
 40
11.0
 40
11.0
 40
11.0
 40
12.0
 40
12.0
 40
12.0
 40
13.0
 40
13.0
 40
13.0
 40
14.0
 40
14.0
 40
14.0
 40
15.0
 40
15.0
 40
15.0
 40
16.0
 40
16.0
 40
16.0
 40
17.0
 40
17.0
 40
17.0
 40
18.0
 40
18.0
 40
18.0
 40
19.0
 40
19.0
 40
19.0
 40
20.0
 40
20.0
 40
20.0
 40
21.0
 40
21.0
 40
21.0
 40
22.0
 40
22.0
 40
22.0
 40
23.0
 40
23.0
 40
23.0
 40
24.0
 40
24.0
 40
24.0
 40
25.0
 40
25.0
 40
25.0
 40
26.0
 40
26.0
 40
26.0
 40
27.0
 40
27.0
 40
27.0
 40
27.0
 10
8.563998693875536
 20
2.468496959398421
 10
8.956256248684129
 20
2.468496959398421
 10
9.180826661484438
 20
2.369543769590001
 10
9.180826661484438
 20
2.107051176266626
 10
9.180826661484438
 20
1.936401363902278
 10
9.064689983624293
 20
1.711238417032945
 10
8.959811453109216
 20
1.628876181204098
 10
8.718650086329333
 20
1.443413017071938
 10
8.507115423086637
 20
1.423859392738645
 10
7.380411887632917
 20
1.423859392738645
 10
7.380411887632917
 20
1.423859392738645
 10
1.984500372722238
 20
1.423859392738645
 10
1.984500372722238
 20
1.423859392738645
 10
1.984500372722238
 20
1.423859392738645
 10
3.076540665040734
 20
6.000000020824757
 10
3.076540665040734
 20
6.000000020824757
 10
3.076540665040734
 20
6.000000020824757
 10
1.269904283448435
 20
6.000000020824757
 10
1.269904283448435
 20
6.000000020824757
 10
1.145472128598502
 20
6.000000020824757
 10
1.098958204048402
 20
5.965633044722872
 10
1.061332290557894
 20
5.818092061116903
 10
1.061332290557894
 20
5.818092061116903
 10
0.0442475581870767
 20
1.605767352446499
 10
0.0442475581870767
 20
1.605767352446499
 10
-0.1471409466540857
 20
0.7691092446051134
 10
0.2857051920002991
 20
2.08247616e-08
 10
1.248573056901034
 20
2.08247616e-08
 10
2.211144654768431
 20
2.08247616e-08
 10
2.761905073492378
 20
2.08247616e-08
 10
3.57989835810518
 20
2.08247616e-08
 10
4.15406387262241
 20
2.08247616e-08
 10
4.886139716985188
 20
0.4935809017256891
 10
5.287877816926307
 20
1.061821075535481
 10
5.3385394799713
 20
1.132925164020821
 10
5.427123323540141
 20
1.145960913576089
 10
5.391571279298643
 20
0.9942721914744465
 10
5.320763457848988
 20
0.6944499516962487
 10
5.236031085738575
 20
0.3324116344930843
 10
5.214403592157835
 20
0.2429389898156256
 10
5.173815008312044
 20
0.0669563708152089
 10
5.2659540563091
 20
2.08247616e-08
 10
5.349501360279904
 20
2.08247616e-08
 10
5.349501360279904
 20
2.08247616e-08
 10
7.432554885857117
 20
2.08247616e-08
 10
8.095304243943186
 20
2.08247616e-08
 10
10.42514820997125
 20
2.08247616e-08
 10
11.31394931603684
 20
1.115149141899291
 10
11.41468010805702
 20
2.443610528429061
 10
11.46563803813848
 20
3.117914300895885
 10
10.98450037272145
 20
3.63223387427128
 10
9.64833604327092
 20
3.63223387427128
 10
9.64833604327092
 20
3.63223387427128
 10
8.986475486291123
 20
3.63223387427128
 10
8.622067032804043
 20
3.63223387427128
 10
8.25469590896481
 20
3.63223387427128
 10
7.880214376275401
 20
3.763776437968261
 10
7.880214376275401
 20
4.091447779071103
 10
7.880214376275401
 20
4.426822063092362
 10
8.308023975328622
 20
4.729606973224279
 10
8.8584881270161
 20
4.729606973224279
 10
8.8584881270161
 20
4.729606973224279
 10
11.35957443948067
 20
4.729606973224279
 10
11.35957443948067
 20
4.729606973224279
 10
11.35957443948067
 20
4.729606973224279
 10
11.55866588723868
 20
5.520639957621055
 10
11.60192087440016
 20
5.703732985470084
 10
11.65584147483378
 20
5.934228738975486
 10
11.58770005670294
 20
6.000000020824757
 10
11.41823531247898
 20
6.000000020824757
 10
11.41823531247898
 20
6.000000020824757
 10
8.328762667803089
 20
6.000000020824757
 10
8.328762667803089
 20
6.000000020824757
 10
6.532791899486055
 20
6.000000020824757
 10
5.726945563321468
 20
4.801303595780207
 10
5.726945563321468
 20
3.944499329534941
 10
5.726945563321468
 20
3.087102529219087
 10
6.417840289768649
 20
2.469682027540378
 10
8.198405172248846
 20
2.469682027540378
 10
8.198405172248846
 20
2.469682027540378
 10
8.563998693875536
 20
2.468496959398421
 10
8.563998693875536
 20
2.468496959398421
 97
0
 97
0
 75
0
 76
1
 98
1
 10
7.78674212662363
 20
3.375074087583192
450
0
451
0
460
0.0
461
0.0
452
0
462
0.0
453
2
463
0
 63
5
421
255
463
1
 63
51
421
16777113
470
LINEAR
  0
LINE
  5
61
330
5C
100
AcDbEntity
  8
Defpoints
  6
ByBlock
 62
2
370
9
100
AcDbLine
 10
5.7544
 20
3.0
 30
0.0
 11
5.7544
 21
3.0
 31
0.0
  0
ENDBLK
  5
5E
330
5C
100
AcDbEntity
  8
0
100
AcDbBlockEnd
  0
BLOCK
  5
63
330
62
100
AcDbEntity
  8
0
100
AcDbBlockBegin
  2
Vis MC LS
 70
0
 10
0.0
 20
0.0
 30
0.0
  3
Vis MC LS
  1

  4
Drawn by Hawee Sep.2015
  0
CIRCLE
  5
65
330
62
100
AcDbEntity
  8
0
  6
ByBlock
 62
8
370
9
 48
0.25
100
AcDbCircle
 10
0.0
 20
0.0
 30
0.0
 40
3.0
  0
CIRCLE
  5
66
330
62
100
AcDbEntity
  8
0
  6
ByBlock
 62
8
370
9
 48
0.25
100
AcDbCircle
 10
0.0
 20
0.0
 30
0.0
 40
3.25
  0
LWPOLYLINE
  5
67
330
62
100
AcDbEntity
  8
0
  6
ByBlock
 62
8
370
9
 48
0.25
100
AcDbPolyline
 90
18
 70
1
 10
1.900000000001
 20
1.137e-13
 10
1.900000000001
 20
0.4000000000002047
 10
0.6019627386008324
 20
0.4000000000002047
 42
-0.3964416871298089
 10
0.4000000000010005
 20
0.6019627386000366
 10
0.4000000000005457
 20
1.900000000000204
 10
-0.3999999999996362
 20
1.900000000000204
 10
-0.3999999999996362
 20
0.6019627386000366
 42
-0.3964416871298089
 10
-0.6019627385994683
 20
0.4000000000002047
 10
-1.899999999999636
 20
0.4000000000002047
 10
-1.899999999999636
 20
1.137e-13
 10
-1.899999999999636
 20
-0.3999999999999772
 10
-0.6019627385994683
 20
-0.3999999999999772
 42
-0.3964416871298089
 10
-0.3999999999996362
 20
-0.6019627385998092
 10
-0.3999999999996362
 20
-1.899999999999977
 10
0.4000000000005457
 20
-1.899999999999977
 10
0.4000000000010005
 20
-0.6019627385998092
 42
-0.3964416871298089
 10
0.6019627386008324
 20
-0.3999999999999772
 10
1.900000000001
 20
-0.3999999999999772
  0
LWPOLYLINE
  5
68
330
62
100
AcDbEntity
  8
0
  6
ByBlock
 62
8
370
9
 48
0.25
100
AcDbPolyline
 90
32
 70
1
 10
1.900000000001
 20
0.4000000000003184
 10
1.980000000000472
 20
0.4800000000001319
 10
2.929517444820703
 20
0.4800000000001319
 42
0.010278464558734
 10
2.907313615609382
 20
0.6000000000000228
 10
1.104906846500853
 20
0.6000000000000228
 42
-0.4214328411449986
 10
0.6000000000003638
 20
1.104906846495623
 10
0.6000000000003638
 20
2.100000000000022
 10
4.547e-13
 20
2.100000000000022
 10
-0.599999999999909
 20
2.100000000000022
 10
-0.599999999999909
 20
1.104906846500057
 42
-0.4214328411476481
 10
-1.104906846500398
 20
0.6000000000000228
 10
-2.907313615608927
 20
0.6000000000000228
 42
0.010278464558734
 10
-2.929517444820248
 20
0.4800000000001319
 10
-1.980000000000018
 20
0.4800000000001319
 10
-1.90000000000009
 20
0.400000000000432
 10
-1.90000000000009
 20
1.137e-13
 10
-1.90000000000009
 20
-0.3999999999999772
 10
-1.980000000000018
 20
-0.4799999999999045
 10
-2.929517444820248
 20
-0.4799999999999045
 42
0.010278464558734
 10
-2.907313615608927
 20
-0.5999999999997954
 10
-1.104906846500398
 20
-0.5999999999997954
 42
-0.4214328411449985
 10
-0.599999999999909
 20
-1.104906846495396
 10
-0.599999999999909
 20
-2.099999999999795
 10
0.0
 20
-2.099999999999795
 10
0.6000000000003638
 20
-2.099999999999795
 10
0.6000000000003638
 20
-1.104906846499829
 42
-0.4214328411476481
 10
1.104906846500853
 20
-0.5999999999997954
 10
2.907313615609382
 20
-0.5999999999997954
 42
0.010278464558734
 10
2.929517444820703
 20
-0.4799999999999045
 10
1.980000000000018
 20
-0.4799999999999045
 10
1.900000000000545
 20
-0.400000000000091
 10
1.900000000000545
 20
1.137e-13
  0
LWPOLYLINE
  5
69
330
62
100
AcDbEntity
  8
0
  6
ByBlock
 62
8
370
9
 48
0.25
100
AcDbPolyline
 90
9
 70
0
 10
-0.599999999999909
 20
2.100000000000022
 10
-0.3999999999996362
 20
1.900000000000204
 10
0.4000000000005457
 20
-1.899999999999977
 10
0.6000000000003638
 20
-2.099999999999795
 10
-0.599999999999909
 20
-2.099999999999795
 10
-0.3999999999996362
 20
-1.899999999999977
 10
0.4000000000005457
 20
1.900000000000204
 10
0.6000000000003638
 20
2.100000000000022
 10
-0.599999999999909
 20
2.100000000000022
  0
LWPOLYLINE
  5
6A
330
62
100
AcDbEntity
  8
0
  6
ByBlock
 62
8
370
9
 48
0.25
100
AcDbPolyline
 90
9
 70
0
 10
-1.980000000000018
 20
0.4800000000001319
 10
-1.90000000000009
 20
0.400000000000432
 10
1.900000000001
 20
-0.4000000000005457
 10
1.980000000000018
 20
-0.4799999999999045
 10
1.980000000000018
 20
0.4800000000001319
 10
1.900000000001
 20
0.4000000000002047
 10
-1.899999999999636
 20
-0.3999999999999772
 10
-1.980000000000018
 20
-0.4799999999999045
 10
-1.980000000000018
 20
0.4800000000001319
  0
LWPOLYLINE
  5
6B
330
62
100
AcDbEntity
  8
0
  6
ByBlock
 62
8
370
9
 48
0.25
100
AcDbPolyline
 90
5
 70
1
 10
2.929517444820248
 20
0.4800000000001319
 10
1.980000000000018
 20
0.4800000000001319
 10
1.980000000000018
 20
-0.4799999999999045
 10
2.929517444820248
 20
-0.4799999999999045
 42
0.0406239289029566
 10
2.968580883100003
 20
0.0
 42
0.0406239289029758
  0
LWPOLYLINE
  5
6C
330
62
100
AcDbEntity
  8
0
  6
ByBlock
 62
8
370
9
 48
0.25
100
AcDbPolyline
 90
5
 70
1
 10
-1.980000000000018
 20
0.4800000000001319
 10
-2.929517444820248
 20
0.4800000000001319
 42
0.0406239289029758
 10
-2.968580883100003
 20
0.0
 42
0.0406239289029566
 10
-2.929517444820248
 20
-0.4799999999999045
 10
-1.980000000000018
 20
-0.4799999999999045
  0
ENDBLK
  5
64
330
62
100
AcDbEntity
  8
0
100
AcDbBlockEnd
  0
ENDSEC
  0
SECTION
  2
ENTITIES
  0
INSERT
  5
6F
330
17
100
AcDbEntity
  8
0
100
AcDbBlockReference
  2
OLR MT-32
 10
8.452639489884312e-29
 20
56.40000000000009
 30
0.0
  0
ENDSEC
  0
SECTION
  2
OBJECTS
  0
DICTIONARY
  5
A
330
0
100
AcDbDictionary
281
1
  3
ACAD_COLOR
350
B
  3
ACAD_GROUP
350
C
  3
ACAD_LAYOUT
350
D
  3
ACAD_MATERIAL
350
E
  3
ACAD_MLEADERSTYLE
350
F
  3
ACAD_MLINESTYLE
350
10
  3
ACAD_PLOTSETTINGS
350
11
  3
ACAD_PLOTSTYLENAME
350
12
  3
ACAD_SCALELIST
350
14
  3
ACAD_TABLESTYLE
350
15
  3
ACAD_VISUALSTYLE
350
16
  3
EZDXF_META
350
2D
  0
DICTIONARY
  5
B
330
A
100
AcDbDictionary
281
1
  0
DICTIONARY
  5
C
330
A
100
AcDbDictionary
281
1
  0
DICTIONARY
  5
D
330
A
100
AcDbDictionary
281
1
  3
Model
350
1A
  3
Layout1
350
1E
  0
DICTIONARY
  5
E
330
A
100
AcDbDictionary
281
1
  3
ByBlock
350
1F
  3
ByLayer
350
20
  3
Global
350
21
  0
DICTIONARY
  5
F
330
A
100
AcDbDictionary
281
1
  3
Standard
350
2C
  0
DICTIONARY
  5
10
330
A
100
AcDbDictionary
281
1
  3
Standard
350
22
  0
DICTIONARY
  5
11
330
A
100
AcDbDictionary
281
1
  0
ACDBDICTIONARYWDFLT
  5
12
330
A
100
AcDbDictionary
281
1
  3
Normal
350
13
100
AcDbDictionaryWithDefault
340
13
  0
ACDBPLACEHOLDER
  5
13
330
12
  0
DICTIONARY
  5
14
330
A
100
AcDbDictionary
281
1
  0
DICTIONARY
  5
15
330
A
100
AcDbDictionary
281
1
  0
DICTIONARY
  5
16
330
A
100
AcDbDictionary
281
1
  0
LAYOUT
  5
1A
330
D
100
AcDbPlotSettings
  1

  4
A3
  6

 40
7.5
 41
20.0
 42
7.5
 43
20.0
 44
420.0
 45
297.0
 46
0.0
 47
0.0
 48
0.0
 49
0.0
140
0.0
141
0.0
142
1.0
143
1.0
 70
1024
 72
1
 73
0
 74
5
  7

 75
16
 76
0
 77
2
 78
300
147
1.0
148
0.0
149
0.0
100
AcDbLayout
  1
Model
 70
1
 71
0
 10
0.0
 20
0.0
 11
420.0
 21
297.0
 12
0.0
 22
0.0
 32
0.0
 14
1e+20
 24
1e+20
 34
1e+20
 15
-1e+20
 25
-1e+20
 35
-1e+20
146
0.0
 13
0.0
 23
0.0
 33
0.0
 16
1.0
 26
0.0
 36
0.0
 17
0.0
 27
1.0
 37
0.0
 76
1
330
17
  0
LAYOUT
  5
1E
330
D
100
AcDbPlotSettings
  1

  4
A3
  6

 40
7.5
 41
20.0
 42
7.5
 43
20.0
 44
420.0
 45
297.0
 46
0.0
 47
0.0
 48
0.0
 49
0.0
140
0.0
141
0.0
142
1.0
143
1.0
 70
0
 72
1
 73
0
 74
5
  7

 75
16
 76
0
 77
2
 78
300
147
1.0
148
0.0
149
0.0
100
AcDbLayout
  1
Layout1
 70
1
 71
1
 10
0.0
 20
0.0
 11
420.0
 21
297.0
 12
0.0
 22
0.0
 32
0.0
 14
1e+20
 24
1e+20
 34
1e+20
 15
-1e+20
 25
-1e+20
 35
-1e+20
146
0.0
 13
0.0
 23
0.0
 33
0.0
 16
1.0
 26
0.0
 36
0.0
 17
0.0
 27
1.0
 37
0.0
 76
1
330
1B
  0
MATERIAL
  5
1F
102
{ACAD_REACTORS
330
E
102
}
330
E
100
AcDbMaterial
  1
ByBlock
  2

 70
0
 40
1.0
 71
1
 41
1.0
 91
-1023410177
 42
1.0
 72
1
  3

 73
1
 74
1
 75
1
 44
0.5
 73
0
 45
1.0
 46
1.0
 77
1
  4

 78
1
 79
1
170
1
 48
1.0
171
1
  6

172
1
173
1
174
1
140
1.0
141
1.0
175
1
  7

176
1
177
1
178
1
143
1.0
179
1
  8

270
1
271
1
272
1
145
1.0
146
1.0
273
1
  9

274
1
275
1
276
1
 42
1.0
 72
1
  3

 73
1
 74
1
 75
1
 94
63
  0
MATERIAL
  5
20
102
{ACAD_REACTORS
330
E
102
}
330
E
100
AcDbMaterial
  1
ByLayer
  2

 70
0
 40
1.0
 71
1
 41
1.0
 91
-1023410177
 42
1.0
 72
1
  3

 73
1
 74
1
 75
1
 44
0.5
 73
0
 45
1.0
 46
1.0
 77
1
  4

 78
1
 79
1
170
1
 48
1.0
171
1
  6

172
1
173
1
174
1
140
1.0
141
1.0
175
1
  7

176
1
177
1
178
1
143
1.0
179
1
  8

270
1
271
1
272
1
145
1.0
146
1.0
273
1
  9

274
1
275
1
276
1
 42
1.0
 72
1
  3

 73
1
 74
1
 75
1
 94
63
  0
MATERIAL
  5
21
102
{ACAD_REACTORS
330
E
102
}
330
E
100
AcDbMaterial
  1
Global
  2

 70
0
 40
1.0
 71
1
 41
1.0
 91
-1023410177
 42
1.0
 72
1
  3

 73
1
 74
1
 75
1
 44
0.5
 73
0
 45
1.0
 46
1.0
 77
1
  4

 78
1
 79
1
170
1
 48
1.0
171
1
  6

172
1
173
1
174
1
140
1.0
141
1.0
175
1
  7

176
1
177
1
178
1
143
1.0
179
1
  8

270
1
271
1
272
1
145
1.0
146
1.0
273
1
  9

274
1
275
1
276
1
 42
1.0
 72
1
  3

 73
1
 74
1
 75
1
 94
63
  0
MLINESTYLE
  5
22
102
{ACAD_REACTORS
330
10
102
}
330
10
100
AcDbMlineStyle
  2
Standard
 70
0
  3

 62
256
 51
90.0
 52
90.0
 71
2
 49
0.5
 62
256
  6
BYLAYER
 49
-0.5
 62
256
  6
BYLAYER
  0
MLEADERSTYLE
  5
2C
102
{ACAD_REACTORS
330
F
102
}
330
F
100
AcDbMLeaderStyle
179
2
170
2
171
1
172
0
 90
2
 40
0.0
 41
0.0
173
1
 91
-1056964608
 92
-2
290
1
 42
2.0
291
1
 43
8.0
  3
Standard
 44
4.0
300

342
29
174
1
175
1
176
0
178
1
 93
-1056964608
 45
4.0
292
0
297
0
 46
4.0
 94
-1056964608
 47
1.0
 49
1.0
140
1.0
294
1
141
0.0
177
0
142
1.0
295
0
296
0
143
3.75
271
0
272
9
273
9
  0
DICTIONARY
  5
2D
330
A
100
AcDbDictionary
280
1
281
1
  3
CREATED_BY_EZDXF
350
2E
  3
WRITTEN_BY_EZDXF
350
73
  0
DICTIONARYVAR
  5
2E
330
2D
100
DictionaryVariables
280
0
  1
1.4.4 @ 2026-09-23T06:03:06.317796+00:00
  0
DICTIONARYVAR
  5
73
330
2D
100
DictionaryVariables
280
0
  1
1.4.4 @ 2026-09-23T06:03:06.387415+00:00
  0
ENDSEC
  0
EOF
