  0
SECTION
  2
HEADER
  9
$ACADVER
  1
AC1032
  9
$ACADMAINTVER
 90
4
  9
$DWGCODEPAGE
  3
ANSI_1252
  9
$LASTSAVEDBY
  1
ezdxf
  9
$REQUIREDVERSIONS
160
0
  9
$INSBASE
 10
0.0
 20
0.0
 30
0.0
  9
$EXTMIN
 10
1e+20
 20
1e+20
 30
1e+20
  9
$EXTMAX
 10
-1e+20
 20
-1e+20
 30
-1e+20
  9
$LIMMIN
 10
0.0
 20
0.0
  9
$LIMMAX
 10
420.0
 20
297.0
  9
$ORTHOMODE
 70
0
  9
$REGENMODE
 70
1
  9
$FILLMODE
 70
1
  9
$QTEXTMODE
 70
0
  9
$MIRRTEXT
 70
1
  9
$LTSCALE
 40
1.0
  9
$ATTMODE
 70
1
  9
$TEXTSIZE
 40
2.5
  9
$TRACEWID
 40
1.0
  9
$TEXTSTYLE
  7
Standard
  9
$CLAYER
  8
0
  9
$CELTYPE
  6
ByLayer
  9
$CECOLOR
 62
256
  9
$CELTSCALE
 40
1.0
  9
$DISPSILH
 70
0
  9
$DIMSCALE
 40
1.0
  9
$DIMASZ
 40
2.5
  9
$DIMEXO
 40
0.625
  9
$DIMDLI
 40
3.75
  9
$DIMRND
 40
0.0
  9
$DIMDLE
 40
0.0
  9
$DIMEXE
 40
1.25
  9
$DIMTP
 40
0.0
  9
$DIMTM
 40
0.0
  9
$DIMTXT
 40
2.5
  9
$DIMCEN
 40
2.5
  9
$DIMTSZ
 40
0.0
  9
$DIMTOL
 70
0
  9
$DIMLIM
 70
0
  9
$DIMTIH
 70
0
  9
$DIMTOH
 70
0
  9
$DIMSE1
 70
0
  9
$DIMSE2
 70
0
  9
$DIMTAD
 70
1
  9
$DIMZIN
 70
8
  9
$DIMBLK
  1

  9
$DIMASO
 70
1
  9
$DIMSHO
 70
1
  9
$DIMPOST
  1

  9
$DIMAPOST
  1

  9
$DIMALT
 70
0
  9
$DIMALTD
 70
3
  9
$DIMALTF
 40
0.03937007874
  9
$DIMLFAC
 40
1.0
  9
$DIMTOFL
 70
1
  9
$DIMTVP
 40
0.0
  9
$DIMTIX
 70
0
  9
$DIMSOXD
 70
0
  9
$DIMSAH
 70
0
  9
$DIMBLK1
  1

  9
$DIMBLK2
  1

  9
$DIMSTYLE
  2
ISO-25
  9
$DIMCLRD
 70
0
  9
$DIMCLRE
 70
0
  9
$DIMCLRT
 70
0
  9
$DIMTFAC
 40
1.0
  9
$DIMGAP
 40
0.625
  9
$DIMJUST
 70
0
  9
$DIMSD1
 70
0
  9
$DIMSD2
 70
0
  9
$DIMTOLJ
 70
0
  9
$DIMTZIN
 70
8
  9
$DIMALTZ
 70
0
  9
$DIMALTTZ
 70
0
  9
$DIMUPT
 70
0
  9
$DIMDEC
 70
2
  9
$DIMTDEC
 70
2
  9
$DIMALTU
 70
2
  9
$DIMALTTD
 70
3
  9
$DIMTXSTY
  7
Standard
  9
$DIMAUNIT
 70
0
  9
$DIMADEC
 70
0
  9
$DIMALTRND
 40
0.0
  9
$DIMAZIN
 70
0
  9
$DIMDSEP
 70
44
  9
$DIMATFIT
 70
3
  9
$DIMFRAC
 70
0
  9
$DIMLDRBLK
  1

  9
$DIMLUNIT
 70
2
  9
$DIMLWD
 70
-2
  9
$DIMLWE
 70
-2
  9
$DIMTMOVE
 70
0
  9
$DIMFXL
 40
1.0
  9
$DIMFXLON
 70
0
  9
$DIMJOGANG
 40
0.785398163397
  9
$DIMTFILL
 70
0
  9
$DIMTFILLCLR
 70
0
  9
$DIMARCSYM
 70
0
  9
$DIMLTYPE
  6

  9
$DIMLTEX1
  6

  9
$DIMLTEX2
  6

  9
$DIMTXTDIRECTION
 70
0
  9
$LUNITS
 70
2
  9
$LUPREC
 70
4
  9
$SKETCHINC
 40
1.0
  9
$FILLETRAD
 40
10.0
  9
$AUNITS
 70
0
  9
$AUPREC
 70
2
  9
$MENU
  1
.
  9
$ELEVATION
 40
0.0
  9
$PELEVATION
 40
0.0
  9
$THICKNESS
 40
0.0
  9
$LIMCHECK
 70
0
  9
$CHAMFERA
 40
0.0
  9
$CHAMFERB
 40
0.0
  9
$CHAMFERC
 40
0.0
  9
$CHAMFERD
 40
0.0
  9
$SKPOLY
 70
0
  9
$TDCREATE
 40
2461307.5441666665
  9
$TDUCREATE
 40
2458532.153996898
  9
$TDUPDATE
 40
2461307.5441666665
  9
$TDUUPDATE
 40
2458532.1544311
  9
$TDINDWG
 40
0.0
  9
$TDUSRTIMER
 40
0.0
  9
$USRTIMER
 70
1
  9
$ANGBASE
 50
0.0
  9
$ANGDIR
 70
0
  9
$PDMODE
 70
0
  9
$PDSIZE
 40
0.0
  9
$PLINEWID
 40
0.0
  9
$SPLFRAME
 70
0
  9
$SPLINETYPE
 70
6
  9
$SPLINESEGS
 70
8
  9
$HANDSEED
  5
152
  9
$SURFTAB1
 70
6
  9
$SURFTAB2
 70
6
  9
$SURFTYPE
 70
6
  9
$SURFU
 70
6
  9
$SURFV
 70
6
  9
$UCSBASE
  2

  9
$UCSNAME
  2

  9
$UCSORG
 10
0.0
 20
0.0
 30
0.0
  9
$UCSXDIR
 10
1.0
 20
0.0
 30
0.0
  9
$UCSYDIR
 10
0.0
 20
1.0
 30
0.0
  9
$UCSORTHOREF
  2

  9
$UCSORTHOVIEW
 70
0
  9
$UCSORGTOP
 10
0.0
 20
0.0
 30
0.0
  9
$UCSORGBOTTOM
 10
0.0
 20
0.0
 30
0.0
  9
$UCSORGLEFT
 10
0.0
 20
0.0
 30
0.0
  9
$UCSORGRIGHT
 10
0.0
 20
0.0
 30
0.0
  9
$UCSORGFRONT
 10
0.0
 20
0.0
 30
0.0
  9
$UCSORGBACK
 10
0.0
 20
0.0
 30
0.0
  9
$PUCSBASE
  2

  9
$PUCSNAME
  2

  9
$PUCSORG
 10
0.0
 20
0.0
 30
0.0
  9
$PUCSXDIR
 10
1.0
 20
0.0
 30
0.0
  9
$PUCSYDIR
 10
0.0
 20
1.0
 30
0.0
  9
$PUCSORTHOREF
  2

  9
$PUCSORTHOVIEW
 70
0
  9
$PUCSORGTOP
 10
0.0
 20
0.0
 30
0.0
  9
$PUCSORGBOTTOM
 10
0.0
 20
0.0
 30
0.0
  9
$PUCSORGLEFT
 10
0.0
 20
0.0
 30
0.0
  9
$PUCSORGRIGHT
 10
0.0
 20
0.0
 30
0.0
  9
$PUCSORGFRONT
 10
0.0
 20
0.0
 30
0.0
  9
$PUCSORGBACK
 10
0.0
 20
0.0
 30
0.0
  9
$USERI1
 70
0
  9
$USERI2
 70
0
  9
$USERI3
 70
0
  9
$USERI4
 70
0
  9
$USERI5
 70
0
  9
$USERR1
 40
0.0
  9
$USERR2
 40
0.0
  9
$USERR3
 40
0.0
  9
$USERR4
 40
0.0
  9
$USERR5
 40
0.0
  9
$WORLDVIEW
 70
1
  9
$SHADEDGE
 70
3
  9
$SHADEDIF
 70
70
  9
$TILEMODE
 70
1
  9
$MAXACTVP
 70
64
  9
$PINSBASE
 10
0.0
 20
0.0
 30
0.0
  9
$PLIMCHECK
 70
0
  9
$PEXTMIN
 10
1e+20
 20
1e+20
 30
1e+20
  9
$PEXTMAX
 10
-1e+20
 20
-1e+20
 30
-1e+20
  9
$PLIMMIN
 10
0.0
 20
0.0
  9
$PLIMMAX
 10
420.0
 20
297.0
  9
$UNITMODE
 70
0
  9
$VISRETAIN
 70
1
  9
$PLINEGEN
 70
0
  9
$PSLTSCALE
 70
1
  9
$TREEDEPTH
 70
3020
  9
$CMLSTYLE
  2
Standard
  9
$CMLJUST
 70
0
  9
$CMLSCALE
 40
20.0
  9
$PROXYGRAPHICS
 70
1
  9
$MEASUREMENT
 70
1
  9
$CELWEIGHT
370
-1
  9
$ENDCAPS
280
0
  9
$JOINSTYLE
280
0
  9
$LWDISPLAY
290
0
  9
$INSUNITS
 70
4
  9
$HYPERLINKBASE
  1

  9
$STYLESHEET
  1

  9
$XEDIT
290
1
  9
$CEPSNTYPE
380
0
  9
$PSTYLEMODE
290
1
  9
$FINGERPRINTGUID
  2
{14080A0C-D7DA-4DEB-872D-FED5845854FE}
  9
$VERSIONGUID
  2
{68E1A1B6-FAC9-4986-B16B-7F63177B6988}
  9
$EXTNAMES
290
1
  9
$PSVPSCALE
 40
0.0
  9
$OLESTARTUP
290
0
  9
$SORTENTS
280
127
  9
$INDEXCTL
280
0
  9
$HIDETEXT
280
1
  9
$XCLIPFRAME
280
1
  9
$HALOGAP
280
0
  9
$OBSCOLOR
 70
257
  9
$OBSLTYPE
280
0
  9
$INTERSECTIONDISPLAY
280
0
  9
$INTERSECTIONCOLOR
 70
257
  9
$DIMASSOC
280
2
  9
$PROJECTNAME
  1

  9
$CAMERADISPLAY
290
0
  9
$LENSLENGTH
 40
50.0
  9
$CAMERAHEIGHT
 40
0.0
  9
$STEPSPERSEC
 40
24.0
  9
$STEPSIZE
 40
100.0
  9
$3DDWFPREC
 40
2.0
  9
$PSOLWIDTH
 40
0.005
  9
$PSOLHEIGHT
 40
0.08
  9
$LOFTANG1
 40
1.570796326795
  9
$LOFTANG2
 40
1.570796326795
  9
$LOFTMAG1
 40
0.0
  9
$LOFTMAG2
 40
0.0
  9
$LOFTPARAM
 70
7
  9
$LOFTNORMALS
280
1
  9
$LATITUDE
 40
37.795
  9
$LONGITUDE
 40
-122.394
  9
$NORTHDIRECTION
 40
0.0
  9
$TIMEZONE
 70
-8000
  9
$LIGHTGLYPHDISPLAY
280
1
  9
$TILEMODELIGHTSYNCH
280
1
  9
$CMATERIAL
347
20
  9
$SOLIDHIST
280
0
  9
$SHOWHIST
280
1
  9
$DWFFRAME
280
2
  9
$DGNFRAME
280
2
  9
$REALWORLDSCALE
290
1
  9
$INTERFERECOLOR
 62
256
  9
$CSHADOW
280
0
  9
$SHADOWPLANELOCATION
 40
0.0
  0
ENDSEC
  0
SECTION
  2
CLASSES
  0
CLASS
  1
ACDBDICTIONARYWDFLT
  2
AcDbDictionaryWithDefault
  3
ObjectDBX Classes
 90
0
 91
0
280
0
281
0
  0
CLASS
  1
SUN
  2
AcDbSun
  3
SCENEOE
 90
1153
 91
0
280
0
281
0
  0
CLASS
  1
VISUALSTYLE
  2
AcDbVisualStyle
  3
ObjectDBX Classes
 90
4095
 91
0
280
0
281
0
  0
CLASS
  1
MATERIAL
  2
AcDbMaterial
  3
ObjectDBX Classes
 90
1153
 91
0
280
0
281
0
  0
CLASS
  1
SCALE
  2
AcDbScale
  3
ObjectDBX Classes
 90
1153
 91
0
280
0
281
0
  0
CLASS
  1
TABLESTYLE
  2
AcDbTableStyle
  3
ObjectDBX Classes
 90
4095
 91
0
280
0
281
0
  0
CLASS
  1
MLEADERSTYLE
  2
AcDbMLeaderStyle
  3
ACDB_MLEADERSTYLE_CLASS
 90
4095
 91
0
280
0
281
0
  0
CLASS
  1
DICTIONARYVAR
  2
AcDbDictionaryVar
  3
ObjectDBX Classes
 90
0
 91
0
280
0
281
0
  0
CLASS
  1
CELLSTYLEMAP
  2
AcDbCellStyleMap
  3
ObjectDBX Classes
 90
1152
 91
0
280
0
281
0
  0
CLASS
  1
MENTALRAYRENDERSETTINGS
  2
AcDbMentalRayRenderSettings
  3
SCENEOE
 90
1024
 91
0
280
0
281
0
  0
CLASS
  1
ACDBDETAILVIEWSTYLE
  2
AcDbDetailViewStyle
  3
ObjectDBX Classes
 90
1025
 91
0
280
0
281
0
  0
CLASS
  1
ACDBSECTIONVIEWSTYLE
  2
AcDbSectionViewStyle
  3
ObjectDBX Classes
 90
1025
 91
0
280
0
281
0
  0
CLASS
  1
RASTERVARIABLES
  2
AcDbRasterVariables
  3
ISM
 90
0
 91
0
280
0
281
0
  0
CLASS
  1
LAYOUT
  2
AcDbLayout
  3
ObjectDBX Classes
 90
0
 91
0
280
0
281
0
  0
CLASS
  1
ACDBPLACEHOLDER
  2
AcDbPlaceHolder
  3
ObjectDBX Classes
 90
0
 91
0
280
0
281
0
  0
ENDSEC
  0
SECTION
  2
TABLES
  0
TABLE
  2
VPORT
  5
8
330
0
100
AcDbSymbolTable
 70
1
  0
VPORT
  5
23
330
8
100
AcDbSymbolTableRecord
100
AcDbViewportTableRecord
  2
*Active
 70
0
 10
0.0
 20
0.0
 11
1.0
 21
1.0
 12
0.0
 22
0.0
 13
0.0
 23
0.0
 14
0.5
 24
0.5
 15
0.5
 25
0.5
 16
0.0
 26
0.0
 36
1.0
 17
0.0
 27
0.0
 37
0.0
 40
1000.0
 41
1.34
 42
50.0
 43
0.0
 44
0.0
 50
0.0
 51
0.0
 71
0
 72
1000
 73
1
 74
3
 75
0
 76
0
 77
0
 78
0
281
0
 65
0
146
0.0
  0
ENDTAB
  0
TABLE
  2
LTYPE
  5
2
330
0
100
AcDbSymbolTable
 70
4
  0
LTYPE
  5
24
330
2
100
AcDbSymbolTableRecord
100
AcDbLinetypeTableRecord
  2
ByBlock
 70
0
  3

 72
65
 73
0
 40
0.0
  0
LTYPE
  5
25
330
2
100
AcDbSymbolTableRecord
100
AcDbLinetypeTableRecord
  2
ByLayer
 70
0
  3

 72
65
 73
0
 40
0.0
  0
LTYPE
  5
26
330
2
100
AcDbSymbolTableRecord
100
AcDbLinetypeTableRecord
  2
Continuous
 70
0
  3

 72
65
 73
0
 40
0.0
  0
LTYPE
  5
14A
330
2
100
AcDbSymbolTableRecord
100
AcDbLinetypeTableRecord
  2
CENTER
 70
0
  3
Center ____ _ ____ _ ____ _ ____ _ ____ _ ____
 72
65
 73
4
 40
50.8
 49
31.75
 74
0
 49
-6.349999999999998
 74
0
 49
6.349999999999998
 74
0
 49
-6.349999999999998
 74
0
  0
ENDTAB
  0
TABLE
  2
LAYER
  5
1
330
0
100
AcDbSymbolTable
 70
5
  0
LAYER
  5
27
330
1
100
AcDbSymbolTableRecord
100
AcDbLayerTableRecord
  2
0
 70
0
 62
7
  6
Continuous
370
-3
390
13
347
21
  0
LAYER
  5
28
330
1
100
AcDbSymbolTableRecord
100
AcDbLayerTableRecord
  2
Defpoints
 70
0
 62
7
  6
Continuous
290
0
370
-3
390
13
347
21
  0
LAYER
  5
147
330
1
100
AcDbSymbolTableRecord
100
AcDbLayerTableRecord
  2
hw_Continuous
 70
0
 62
3
  6
Continuous
370
13
390
13
347
21
348
0
  0
LAYER
  5
148
330
1
100
AcDbSymbolTableRecord
100
AcDbLayerTableRecord
  2
hw_Text
 70
0
 62
7
  6
Continuous
370
13
390
13
347
21
348
0
  0
LAYER
  5
149
330
1
100
AcDbSymbolTableRecord
100
AcDbLayerTableRecord
  2
hw_Center
 70
0
 62
4
  6
CENTER
370
9
390
13
347
21
348
0
  0
ENDTAB
  0
TABLE
  2
STYLE
  5
5
330
0
100
AcDbSymbolTable
 70
3
  0
STYLE
  5
29
330
5
100
AcDbSymbolTableRecord
100
AcDbTextStyleTableRecord
  2
Standard
 70
0
 40
0.0
 41
1.0
 50
0.0
 71
0
 42
2.5
  3
txt
  4

  0
STYLE
  5
14B
330
5
100
AcDbSymbolTableRecord
100
AcDbTextStyleTableRecord
  2
WD_IEC
 70
0
 40
0.0
 41
1.0
 50
0.0
 71
0
 42
5.0
  3
isocp2.shx
  4

  0
STYLE
  5
14C
330
5
100
AcDbSymbolTableRecord
100
AcDbTextStyleTableRecord
  2
hw_Standard
 70
0
 40
0.0
 41
0.9
 50
0.0
 71
0
 42
2.0
  3
complex.shx
  4

  0
ENDTAB
  0
TABLE
  2
VIEW
  5
7
330
0
100
AcDbSymbolTable
 70
0
  0
ENDTAB
  0
TABLE
  2
UCS
  5
6
330
0
100
AcDbSymbolTable
 70
0
  0
ENDTAB
  0
TABLE
  2
APPID
  5
3
330
0
100
AcDbSymbolTable
 70
3
  0
APPID
  5
2A
330
3
100
AcDbSymbolTableRecord
100
AcDbRegAppTableRecord
  2
ACAD
 70
0
  0
APPID
  5
14F
330
3
100
AcDbSymbolTableRecord
100
AcDbRegAppTableRecord
  2
HATCHBACKGROUNDCOLOR
 70
0
  0
APPID
  5
150
330
3
100
AcDbSymbolTableRecord
100
AcDbRegAppTableRecord
  2
EZDXF
 70
0
  0
ENDTAB
  0
TABLE
  2
DIMSTYLE
  5
4
330
0
100
AcDbSymbolTable
 70
1
100
AcDbDimStyleTable
  0
DIMSTYLE
105
2B
330
4
100
AcDbSymbolTableRecord
100
AcDbDimStyleTableRecord
  2
Standard
 70
0
 40
1.0
 41
2.5
 42
0.625
 43
3.75
 44
1.25
 45
0.0
 46
0.0
 47
0.0
 48
0.0
 49
2.5
140
2.5
141
2.5
142
0.0
143
0.03937007874
144
1.0
145
0.0
146
1.0
147
0.625
148
0.0
 69
0
 70
0
 71
0
 72
0
 73
0
 74
0
 75
0
 76
0
 77
1
 78
8
 79
3
170
0
171
3
172
1
173
0
174
0
175
0
176
0
177
0
178
0
179
2
271
2
272
2
273
2
274
3
275
0
276
0
277
2
278
44
279
0
280
0
281
0
282
0
283
0
284
8
285
0
286
0
288
0
289
3
290
0
371
-2
372
-2
  0
ENDTAB
  0
TABLE
  2
BLOCK_RECORD
  5
9
330
0
100
AcDbSymbolTable
 70
3
  0
BLOCK_RECORD
  5
17
330
9
100
AcDbSymbolTableRecord
100
AcDbBlockTableRecord
  2
*Model_Space
340
1A
 70
0
280
1
281
0
  0
BLOCK_RECORD
  5
1B
330
9
100
AcDbSymbolTableRecord
100
AcDbBlockTableRecord
  2
*Paper_Space
340
1E
 70
0
280
1
281
0
  0
BLOCK_RECORD
  5
2F
330
9
100
AcDbSymbolTableRecord
100
AcDbBlockTableRecord
  2
hwLS MCCB_Frame 800A_Metasol
340
0
 70
0
280
1
281
0
  0
ENDTAB
  0
ENDSEC
  0
SECTION
  2
BLOCKS
  0
BLOCK
  5
18
330
17
100
AcDbEntity
  8
0
100
AcDbBlockBegin
  2
*Model_Space
 70
0
 10
0.0
 20
0.0
 30
0.0
  3
*Model_Space
  1

  0
ENDBLK
  5
19
330
17
100
AcDbEntity
  8
0
100
AcDbBlockEnd
  0
BLOCK
  5
1C
330
1B
100
AcDbEntity
  8
0
100
AcDbBlockBegin
  2
*Paper_Space
 70
0
 10
0.0
 20
0.0
 30
0.0
  3
*Paper_Space
  1

  0
ENDBLK
  5
1D
330
1B
100
AcDbEntity
  8
0
100
AcDbBlockEnd
  0
BLOCK
  5
30
330
2F
100
AcDbEntity
  8
0
100
AcDbBlockBegin
  2
hwLS MCCB_Frame 800A_Metasol
 70
2
 10
0.0
 20
0.0
 30
0.0
  3
hwLS MCCB_Frame 800A_Metasol
  1

  0
LWPOLYLINE
  5
32
330
2F
100
AcDbEntity
  8
0
 60
1
100
AcDbPolyline
 90
4
 70
1
 10
0.0
 20
-139.9999999999999
 10
209.9999999999991
 20
-139.9999999999999
 10
209.9999999999991
 20
139.9999999999999
 10
0.0
 20
139.9999999999999
  0
LWPOLYLINE
  5
33
330
2F
100
AcDbEntity
  8
0
 60
1
100
AcDbPolyline
 90
4
 70
1
 10
0.0
 20
-75.00000000000006
 10
209.9999999999991
 20
-75.00000000000006
 10
209.9999999999991
 20
74.99999999999994
 10
0.0
 20
74.99999999999994
  0
LWPOLYLINE
  5
34
330
2F
100
AcDbEntity
  8
0
 60
1
100
AcDbPolyline
 90
4
 70
1
 10
0.0
 20
-48.00000000000006
 10
209.9999999999991
 20
-48.00000000000006
 10
209.9999999999991
 20
47.99999999999994
 10
0.0
 20
47.99999999999994
  0
LWPOLYLINE
  5
35
330
2F
100
AcDbEntity
  8
0
 62
1
 60
1
100
AcDbPolyline
 90
6
 70
1
 10
82.99999999999817
 20
-139.9999999999999
 10
126.9999999999982
 20
-139.9999999999999
 10
126.9999999999982
 20
-121.5
 10
123.9999999999982
 20
-118.5
 10
85.99999999999818
 20
-118.5
 10
82.99999999999817
 20
-121.5
  0
LWPOLYLINE
  5
36
330
2F
100
AcDbEntity
  8
0
 60
1
100
AcDbPolyline
 90
4
 70
0
 10
126.9999999999982
 20
-139.9999999999999
 10
126.9999999999982
 20
-118.0
 10
82.99999999999817
 20
-118.0
 10
82.99999999999817
 20
-139.9999999999999
  0
CIRCLE
  5
37
330
2F
100
AcDbEntity
  8
0
 62
1
 60
1
100
AcDbCircle
 10
104.9999999999982
 20
-128.9999999999999
 30
0.0
 40
7.0
  0
LWPOLYLINE
  5
38
330
2F
100
AcDbEntity
  8
0
 62
1
 60
1
100
AcDbPolyline
 90
6
 70
1
 10
152.9999999999982
 20
-139.9999999999999
 10
197.0
 20
-139.9999999999999
 10
197.0
 20
-121.5
 10
193.999999999999
 20
-118.5
 10
155.9999999999982
 20
-118.5
 10
152.9999999999982
 20
-121.5
  0
LWPOLYLINE
  5
39
330
2F
100
AcDbEntity
  8
0
 60
1
100
AcDbPolyline
 90
4
 70
0
 10
197.0
 20
-139.9999999999999
 10
197.0
 20
-118.0
 10
152.9999999999982
 20
-118.0
 10
152.9999999999982
 20
-139.9999999999999
  0
CIRCLE
  5
3A
330
2F
100
AcDbEntity
  8
0
 62
1
 60
1
100
AcDbCircle
 10
174.9999999999982
 20
-128.9999999999999
 30
0.0
 40
7.0
  0
LWPOLYLINE
  5
3B
330
2F
100
AcDbEntity
  8
0
 62
1
 60
1
100
AcDbPolyline
 90
6
 70
1
 10
12.99999999999909
 20
-139.9999999999999
 10
56.99999999999818
 20
-139.9999999999999
 10
56.99999999999818
 20
-121.5
 10
53.99999999999818
 20
-118.5
 10
16.0
 20
-118.5
 10
12.99999999999909
 20
-121.5
  0
LWPOLYLINE
  5
3C
330
2F
100
AcDbEntity
  8
0
 60
1
100
AcDbPolyline
 90
4
 70
0
 10
56.99999999999818
 20
-139.9999999999999
 10
56.99999999999818
 20
-118.0
 10
12.99999999999909
 20
-118.0
 10
12.99999999999909
 20
-139.9999999999999
  0
CIRCLE
  5
3D
330
2F
100
AcDbEntity
  8
0
 62
1
 60
1
100
AcDbCircle
 10
34.99999999999818
 20
-128.9999999999999
 30
0.0
 40
7.0
  0
CIRCLE
  5
3E
330
2F
100
AcDbEntity
  8
hw_Continuous
 60
1
100
AcDbCircle
 10
139.9999999999982
 20
-121.5
 30
0.0
 40
3.0
  0
CIRCLE
  5
3F
330
2F
100
AcDbEntity
  8
hw_Continuous
 60
1
100
AcDbCircle
 10
69.99999999999818
 20
-121.5
 30
0.0
 40
3.0
  0
LWPOLYLINE
  5
40
330
2F
100
AcDbEntity
  8
0
 60
1
100
AcDbPolyline
 90
4
 70
1
 10
76.99999999999909
 20
-48.00000000000006
 10
133.0
 20
-48.00000000000006
 10
133.0
 20
47.99999999999994
 10
76.99999999999909
 20
47.99999999999994
  0
HATCH
  5
41
330
2F
100
AcDbEntity
  8
0
 62
1
 60
1
100
AcDbHatch
 10
0.0
 20
0.0
 30
0.0
210
0.0
220
0.0
230
1.0
  2
SOLID
 70
1
 71
0
 91
1
 92
7
 72
0
 73
1
 93
4
 10
80.99999999999818
 20
-4.000000000000056
 10
80.99999999999818
 20
-19.00000000000005
 10
128.9999999999982
 20
-19.00000000000005
 10
128.9999999999982
 20
-4.000000000000056
 97
0
 75
0
 76
1
 47
0.3083972622876851
 98
1
 10
102.5617474931187
 20
-10.56087639847624
450
0
451
0
460
0.0
461
0.0
452
1
462
1.0
453
2
463
0
 63
5
421
255
463
1
 63
7
421
16777215
470
LINEAR
  0
LWPOLYLINE
  5
42
330
2F
100
AcDbEntity
  8
0
 60
1
100
AcDbPolyline
 90
4
 70
1
 10
80.99999999999818
 20
-19.00000000000005
 10
128.9999999999982
 20
-19.00000000000005
 10
128.9999999999982
 20
40.99999999999982
 10
80.99999999999818
 20
40.99999999999982
  0
LWPOLYLINE
  5
43
330
2F
100
AcDbEntity
  8
0
 60
1
100
AcDbPolyline
 90
2
 70
0
 10
80.99999999999818
 20
-4.000000000000056
 10
128.9999999999982
 20
-4.000000000000056
  0
HATCH
  5
44
330
2F
100
AcDbEntity
  8
0
 62
7
 60
1
100
AcDbHatch
 10
0.0
 20
0.0
 30
0.0
210
0.0
220
0.0
230
1.0
  2
SOLID
 70
1
 71
0
 91
3
 92
7
 72
1
 73
1
 93
2
 10
105.6368505134687
 20
-11.62049691420924
 42
1.0
 10
99.63685051346965
 20
-11.62049691420924
 42
1.0
 97
0
 92
22
 72
1
 73
1
 93
2
 10
104.9368505134698
 20
-11.62049691420924
 42
-1.0
 10
100.3368505134676
 20
-11.62049691420924
 42
-1.0
 97
0
 92
7
 72
0
 73
1
 93
10
 10
106.6368505134696
 20
-14.62049691420924
 10
107.3225647991839
 20
-14.62049691420924
 10
107.3225647991839
 20
-9.991925485637864
 10
110.4082790848988
 20
-14.62049691420924
 10
111.265421942041
 20
-14.62049691420924
 10
111.265421942041
 20
-8.62049691420924
 10
110.4082790848988
 20
-8.62049691420924
 10
110.4082790848988
 20
-13.24906834278079
 10
107.4939933706128
 20
-8.62049691420924
 10
106.6368505134696
 20
-8.62049691420924
 97
0
 75
0
 76
1
 47
0.0121935949817836
 98
3
 10
103.9795473561298
 20
-9.154343089702081
 10
103.9795473561298
 20
-9.154343089702081
 10
107.0540498424307
 20
-9.325052954014382
450
0
451
0
460
0.0
461
0.0
452
1
462
1.0
453
2
463
0
 63
5
421
255
463
1
 63
7
421
16777215
470
LINEAR
  0
LWPOLYLINE
  5
45
330
2F
100
AcDbEntity
  8
0
 62
7
370
0
 60
1
100
AcDbPolyline
 90
10
 70
1
 10
107.3225647991839
 20
-14.62049691420924
 10
107.3225647991839
 20
-9.991925485637864
 10
110.4082790848988
 20
-14.62049691420924
 10
111.265421942041
 20
-14.62049691420924
 10
111.265421942041
 20
-8.62049691420924
 10
110.4082790848988
 20
-8.62049691420924
 10
110.4082790848988
 20
-13.24906834278079
 10
107.4939933706128
 20
-8.62049691420924
 10
106.6368505134696
 20
-8.62049691420924
 10
106.6368505134696
 20
-14.62049691420924
  0
CIRCLE
  5
46
330
2F
100
AcDbEntity
  8
0
 62
7
 60
1
100
AcDbCircle
 10
102.6368505134678
 20
-11.62049691420924
 30
0.0
 40
3.0
  0
CIRCLE
  5
47
330
2F
100
AcDbEntity
  8
0
 62
7
 60
1
100
AcDbCircle
 10
102.6368505134678
 20
-11.62049691420924
 30
0.0
 40
2.299999999999998
  0
TEXT
  5
48
330
2F
100
AcDbEntity
  8
Defpoints
 62
254
 60
1
100
AcDbText
 10
164.5151898271187
 20
1.024338489252329
 30
0.0
 40
2.0
  1
ABN800c
  7
WD_IEC
 41
0.75
 11
164.5151898271187
 21
2.024338489252329
 31
0.0
100
AcDbText
 73
2
  0
TEXT
  5
49
330
2F
100
AcDbEntity
  8
Defpoints
 62
254
 60
1
100
AcDbText
 10
164.5151898271187
 20
-2.213756748842968
 30
0.0
 40
2.0
  1
ABS800c
  7
WD_IEC
 41
0.75
 11
164.5151898271187
 21
-1.213756748842968
 31
0.0
100
AcDbText
 73
2
  0
TEXT
  5
4A
330
2F
100
AcDbEntity
  8
Defpoints
 62
254
 60
1
100
AcDbText
 10
164.5151898271187
 20
-5.451851986938152
 30
0.0
 40
2.0
  1
ABL800c
  7
WD_IEC
 41
0.75
 11
164.5151898271187
 21
-4.451851986938152
 31
0.0
100
AcDbText
 73
2
  0
LWPOLYLINE
  5
4B
330
2F
100
AcDbEntity
  8
0
 62
1
 60
1
100
AcDbPolyline
 90
6
 70
1
 10
82.99999999999817
 20
139.9999999999999
 10
126.9999999999982
 20
139.9999999999999
 10
126.9999999999982
 20
121.4999999999999
 10
123.9999999999982
 20
118.4999999999999
 10
85.99999999999818
 20
118.4999999999999
 10
82.99999999999817
 20
121.4999999999999
  0
LWPOLYLINE
  5
4C
330
2F
100
AcDbEntity
  8
0
 60
1
100
AcDbPolyline
 90
4
 70
0
 10
126.9999999999982
 20
139.9999999999999
 10
126.9999999999982
 20
117.9999999999999
 10
82.99999999999817
 20
117.9999999999999
 10
82.99999999999817
 20
139.9999999999999
  0
CIRCLE
  5
4D
330
2F
100
AcDbEntity
  8
0
 62
1
 60
1
100
AcDbCircle
 10
104.9999999999982
 20
128.9999999999999
 30
0.0
 40
7.0
  0
LWPOLYLINE
  5
4E
330
2F
100
AcDbEntity
  8
0
 62
1
 60
1
100
AcDbPolyline
 90
6
 70
1
 10
152.9999999999982
 20
139.9999999999999
 10
197.0
 20
139.9999999999999
 10
197.0
 20
121.4999999999999
 10
193.999999999999
 20
118.4999999999999
 10
155.9999999999982
 20
118.4999999999999
 10
152.9999999999982
 20
121.4999999999999
  0
LWPOLYLINE
  5
4F
330
2F
100
AcDbEntity
  8
0
 60
1
100
AcDbPolyline
 90
4
 70
0
 10
197.0
 20
139.9999999999999
 10
197.0
 20
117.9999999999999
 10
152.9999999999982
 20
117.9999999999999
 10
152.9999999999982
 20
139.9999999999999
  0
CIRCLE
  5
50
330
2F
100
AcDbEntity
  8
0
 62
1
 60
1
100
AcDbCircle
 10
174.9999999999982
 20
128.9999999999999
 30
0.0
 40
7.0
  0
LWPOLYLINE
  5
51
330
2F
100
AcDbEntity
  8
0
 62
1
 60
1
100
AcDbPolyline
 90
6
 70
1
 10
12.99999999999909
 20
139.9999999999999
 10
56.99999999999818
 20
139.9999999999999
 10
56.99999999999818
 20
121.4999999999999
 10
53.99999999999818
 20
118.4999999999999
 10
16.0
 20
118.4999999999999
 10
12.99999999999909
 20
121.4999999999999
  0
LWPOLYLINE
  5
52
330
2F
100
AcDbEntity
  8
0
 60
1
100
AcDbPolyline
 90
4
 70
0
 10
56.99999999999818
 20
139.9999999999999
 10
56.99999999999818
 20
117.9999999999999
 10
12.99999999999909
 20
117.9999999999999
 10
12.99999999999909
 20
139.9999999999999
  0
CIRCLE
  5
53
330
2F
100
AcDbEntity
  8
0
 62
1
 60
1
100
AcDbCircle
 10
34.99999999999818
 20
128.9999999999999
 30
0.0
 40
7.0
  0
CIRCLE
  5
54
330
2F
100
AcDbEntity
  8
hw_Continuous
 60
1
100
AcDbCircle
 10
139.9999999999982
 20
121.4999999999999
 30
0.0
 40
3.0
  0
CIRCLE
  5
55
330
2F
100
AcDbEntity
  8
hw_Continuous
 60
1
100
AcDbCircle
 10
69.99999999999818
 20
121.4999999999999
 30
0.0
 40
3.0
  0
TEXT
  5
56
330
2F
100
AcDbEntity
  8
hw_Text
 60
1
100
AcDbText
 10
12.55005617303959
 20
-102.6369644164143
 30
0.0
 40
8.0
  1
LOAD
  7
hw_Standard
 41
0.9
 11
12.55005617303959
 21
-98.6369644164143
 31
0.0
100
AcDbText
 73
2
  0
HATCH
  5
57
330
2F
100
AcDbEntity
  8
0
 62
1
100
AcDbHatch
 10
0.0
 20
0.0
 30
0.0
210
0.0
220
0.0
230
1.0
  2
ANSI31
 70
0
 71
0
 91
2
 92
7
 72
0
 73
1
 93
4
 10
64.5
 20
135.0
 10
74.5
 20
135.0
 10
74.5
 20
140.0
 10
64.5
 20
140.0
 97
0
 92
7
 72
0
 73
1
 93
5
 10
64.5
 20
123.0
 10
64.5
 20
120.0
 10
64.5
 20
118.5
 10
74.5
 20
118.5
 10
74.5
 20
123.0
 97
0
 75
0
 76
1
 52
0.0
 41
0.25
 77
0
 78
1
 53
45.0
 43
-4708.927130183451
 44
304.4976107841157
 45
-0.5612660075668221
 46
0.5612660075668221
 79
0
 47
0.1249934713549934
 98
2
 10
66.15175258201452
 20
137.6988925918031
 10
69.90553659926081
 20
121.3247498003258
  0
LWPOLYLINE
  5
58
330
2F
100
AcDbEntity
  8
0
100
AcDbPolyline
 90
14
 70
129
 10
14.0
 20
75.0
 10
0.0
 20
75.0
 10
0.0
 20
48.0
 10
-4.0
 20
48.0
 10
-4.0
 20
-48.0
 10
0.0
 20
-48.0
 10
0.0
 20
-75.0
 10
14.0
 20
-75.0
 10
14.0
 20
-136.9999999999999
 10
17.0
 20
-139.9999999999999
 10
109.0
 20
-139.9999999999999
 10
109.0
 20
140.0
 10
17.0
 20
140.0
 10
14.0
 20
137.0
  0
LWPOLYLINE
  5
59
330
2F
100
AcDbEntity
  8
hw_Continuous
100
AcDbPolyline
 90
2
 70
0
 10
0.0
 20
48.0
 10
0.0
 20
-48.0
  0
LWPOLYLINE
  5
5A
330
2F
100
AcDbEntity
  8
0
100
AcDbPolyline
 90
4
 70
128
 10
-4.0
 20
0.0
 10
-36.0
 20
-5.489658332504689
 10
-36.0
 20
4.51034166749531
 10
-4.0
 20
10.0
  0
LWPOLYLINE
  5
5B
330
2F
100
AcDbEntity
  8
0
 62
1
100
AcDbPolyline
 90
2
 70
0
 10
64.5
 20
135.0
 10
74.5
 20
135.0
  0
LWPOLYLINE
  5
5C
330
2F
100
AcDbEntity
  8
0
 62
1
100
AcDbPolyline
 90
2
 70
0
 10
64.5
 20
123.0
 10
74.5
 20
123.0
  0
LWPOLYLINE
  5
5D
330
2F
100
AcDbEntity
  8
0
 62
1
100
AcDbPolyline
 90
3
 70
0
 10
74.5
 20
140.0
 10
74.5
 20
118.5
 10
14.0
 20
118.5
  0
LWPOLYLINE
  5
5E
330
2F
100
AcDbEntity
  8
0
 62
1
100
AcDbPolyline
 90
2
 70
0
 10
64.5
 20
118.5
 10
64.5
 20
140.0
  0
LWPOLYLINE
  5
5F
330
2F
100
AcDbEntity
  8
0
 62
1
100
AcDbPolyline
 90
10
 70
1
 10
64.5
 20
138.0
 10
64.5
 20
120.0
 10
58.51600000000053
 20
120.0
 10
57.5
 20
121.016
 10
57.5
 20
128.611
 10
60.34424765090808
 20
128.611
 10
60.34424765090808
 20
130.3889999999999
 10
57.5
 20
130.3889999999999
 10
57.5
 20
136.9839999999999
 10
58.51600000000053
 20
138.0
  0
LWPOLYLINE
  5
60
330
2F
100
AcDbEntity
  8
hw_Center
 48
5.0
100
AcDbPolyline
 90
2
 70
0
 10
109.0
 20
129.5
 10
52.87654666199159
 20
129.5
  0
HATCH
  5
61
330
2F
100
AcDbEntity
  8
0
 62
1
100
AcDbHatch
 10
0.0
 20
0.0
 30
0.0
210
0.0
220
0.0
230
1.0
  2
ANSI31
 70
0
 71
0
 91
2
 92
7
 72
0
 73
1
 93
4
 10
64.5
 20
-135.0
 10
74.5
 20
-135.0
 10
74.5
 20
-139.9999999999999
 10
64.5
 20
-139.9999999999999
 97
0
 92
7
 72
0
 73
1
 93
5
 10
64.5
 20
-123.0
 10
64.5
 20
-119.9999999999999
 10
64.5
 20
-118.5
 10
74.5
 20
-118.5
 10
74.5
 20
-123.0
 97
0
 75
0
 76
1
 52
0.0
 41
0.25
 77
0
 78
1
 53
315.0
 43
-4708.927130183451
 44
-304.4976107841157
 45
-0.5612660075668221
 46
-0.5612660075668221
 79
0
 47
0.1249934713549934
 98
2
 10
66.15175258201452
 20
-137.698892591803
 10
69.90553659926081
 20
-121.3247498003258
  0
LWPOLYLINE
  5
62
330
2F
100
AcDbEntity
  8
0
 62
1
100
AcDbPolyline
 90
2
 70
0
 10
64.5
 20
-135.0
 10
74.5
 20
-135.0
  0
LWPOLYLINE
  5
63
330
2F
100
AcDbEntity
  8
0
 62
1
100
AcDbPolyline
 90
2
 70
0
 10
64.5
 20
-123.0
 10
74.5
 20
-123.0
  0
LWPOLYLINE
  5
64
330
2F
100
AcDbEntity
  8
0
 62
1
100
AcDbPolyline
 90
3
 70
0
 10
74.5
 20
-139.9999999999999
 10
74.5
 20
-118.5
 10
14.0
 20
-118.5
  0
LWPOLYLINE
  5
65
330
2F
100
AcDbEntity
  8
0
 62
1
100
AcDbPolyline
 90
2
 70
0
 10
64.5
 20
-118.5
 10
64.5
 20
-139.9999999999999
  0
LWPOLYLINE
  5
66
330
2F
100
AcDbEntity
  8
0
 62
1
100
AcDbPolyline
 90
10
 70
1
 10
64.5
 20
-138.0
 10
64.5
 20
-119.9999999999999
 10
58.51600000000053
 20
-119.9999999999999
 10
57.5
 20
-121.0160000000001
 10
57.5
 20
-128.611
 10
60.34424765090808
 20
-128.611
 10
60.34424765090808
 20
-130.389
 10
57.5
 20
-130.389
 10
57.5
 20
-136.9840000000001
 10
58.51600000000053
 20
-138.0
  0
LWPOLYLINE
  5
67
330
2F
100
AcDbEntity
  8
hw_Center
 48
5.0
100
AcDbPolyline
 90
2
 70
0
 10
109.0
 20
-129.5
 10
52.87654666199159
 20
-129.5
  0
LWPOLYLINE
  5
68
330
2F
100
AcDbEntity
  8
0
 60
1
100
AcDbPolyline
 90
8
 70
1
 10
76.99999999999909
 20
-113.0000000000002
 10
76.99999999999909
 20
-116.0000000000001
 10
133.0
 20
-116.0000000000001
 10
133.0
 20
-113.0000000000002
 10
209.9999999999991
 20
-113.0000000000002
 10
209.9999999999991
 20
0.0
 10
0.0
 20
0.0
 10
0.0
 20
-113.0000000000002
  0
LWPOLYLINE
  5
69
330
2F
100
AcDbEntity
  8
0
 60
1
100
AcDbPolyline
 90
4
 70
1
 10
79.99999999999818
 20
-145.0000000000001
 10
129.9999999999991
 20
-145.0000000000001
 10
129.9999999999991
 20
-116.0000000000001
 10
79.99999999999818
 20
-116.0000000000001
  0
LWPOLYLINE
  5
6A
330
2F
100
AcDbEntity
  8
hw_Continuous
 60
1
100
AcDbPolyline
 90
2
 70
0
 10
0.0
 20
-109.0000000000002
 10
209.9999999999991
 20
-109.0000000000002
  0
LWPOLYLINE
  5
6B
330
2F
100
AcDbEntity
  8
0
 60
1
100
AcDbPolyline
 90
2
 70
0
 10
0.0
 20
-95.00000000000011
 10
209.9999999999991
 20
-95.00000000000011
  0
LWPOLYLINE
  5
6C
330
2F
100
AcDbEntity
  8
0
 60
1
100
AcDbPolyline
 90
2
 70
0
 10
66.99999999999818
 20
0.0
 10
66.99999999999818
 20
-95.00000000000011
  0
LWPOLYLINE
  5
6D
330
2F
100
AcDbEntity
  8
0
 60
1
100
AcDbPolyline
 90
2
 70
0
 10
72.99999999999818
 20
0.0
 10
72.99999999999818
 20
-95.00000000000011
  0
LWPOLYLINE
  5
6E
330
2F
100
AcDbEntity
  8
hw_Center
 48
5.0
 60
1
100
AcDbPolyline
 90
2
 70
0
 10
69.99999999999818
 20
0.0
 10
69.99999999999818
 20
-95.00000000000011
  0
LWPOLYLINE
  5
6F
330
2F
100
AcDbEntity
  8
0
 62
1
 60
1
100
AcDbPolyline
 90
2
 70
0
 10
12.99999999999909
 20
-34.49999999999989
 10
12.99999999999909
 20
-95.00000000000011
  0
LWPOLYLINE
  5
70
330
2F
100
AcDbEntity
  8
0
 62
1
 60
1
100
AcDbPolyline
 90
2
 70
0
 10
56.99999999999818
 20
-34.49999999999989
 10
56.99999999999818
 20
-95.00000000000011
  0
LWPOLYLINE
  5
71
330
2F
100
AcDbEntity
  8
0
 62
1
 60
1
100
AcDbPolyline
 90
10
 70
1
 10
43.99999999999818
 20
-44.50000000000011
 10
25.99999999999818
 20
-44.50000000000011
 10
25.99999999999818
 20
-50.48399999999947
 10
27.0159999999969
 20
-51.49999999999977
 10
34.61099999999806
 20
-51.49999999999977
 10
34.61099999999806
 20
-48.65575234909295
 10
36.3889999999974
 20
-48.65575234909295
 10
36.3889999999974
 20
-51.49999999999977
 10
42.98399999999674
 20
-51.49999999999977
 10
43.99999999999818
 20
-50.48399999999947
  0
HATCH
  5
72
330
2F
100
AcDbEntity
  8
0
 62
1
 60
1
100
AcDbHatch
 10
0.0
 20
0.0
 30
0.0
210
0.0
220
0.0
230
1.0
  2
ANSI31
 70
0
 71
0
 91
2
 92
7
 72
0
 73
1
 93
4
 10
41.99999999999818
 20
-34.49999999999989
 10
41.99999999999818
 20
-44.50000000000011
 10
56.99999999999818
 20
-44.50000000000011
 10
56.99999999999818
 20
-34.49999999999989
 97
2
330
3A5DC9
330
3A5DC8
 92
7
 72
0
 73
1
 93
4
 10
27.99999999999818
 20
-44.50000000000011
 10
27.99999999999818
 20
-34.49999999999989
 10
12.99999999999909
 20
-34.49999999999989
 10
12.99999999999909
 20
-44.50000000000011
 97
2
330
3A5DC9
330
3A5DC8
 75
0
 76
1
 52
0.0
 41
0.25
 77
0
 78
1
 53
45.0
 43
-4295.372280392721
 44
462.5093540331929
 45
-0.5612660075668221
 46
0.5612660075668221
 79
0
 47
0.2337761214278981
 98
2
 10
51.023465701046
 20
-39.03860072583882
 10
18.96218865585069
 20
-41.37636164863136
  0
LWPOLYLINE
  5
73
330
2F
100
AcDbEntity
  8
0
 62
1
 60
1
100
AcDbPolyline
 90
4
 70
1
 10
27.99999999999818
 20
-44.50000000000011
 10
41.99999999999818
 20
-44.50000000000011
 10
41.99999999999818
 20
-34.49999999999989
 10
27.99999999999818
 20
-34.49999999999989
  0
LWPOLYLINE
  5
74
330
2F
100
AcDbEntity
  8
0
 62
1
 60
1
100
AcDbPolyline
 90
4
 70
1
 10
12.99999999999909
 20
-44.50000000000011
 10
56.99999999999818
 20
-44.50000000000011
 10
56.99999999999818
 20
-34.49999999999989
 10
12.99999999999909
 20
-34.49999999999989
  0
LWPOLYLINE
  5
75
330
2F
100
AcDbEntity
  8
0
 60
1
100
AcDbPolyline
 90
2
 70
0
 10
136.9999999999982
 20
0.0
 10
136.9999999999982
 20
-95.00000000000011
  0
LWPOLYLINE
  5
76
330
2F
100
AcDbEntity
  8
0
 60
1
100
AcDbPolyline
 90
2
 70
0
 10
142.9999999999981
 20
0.0
 10
142.9999999999981
 20
-95.00000000000011
  0
LWPOLYLINE
  5
77
330
2F
100
AcDbEntity
  8
hw_Center
 48
5.0
 60
1
100
AcDbPolyline
 90
2
 70
0
 10
139.9999999999982
 20
0.0
 10
139.9999999999982
 20
-95.00000000000011
  0
LWPOLYLINE
  5
78
330
2F
100
AcDbEntity
  8
0
 62
1
 60
1
100
AcDbPolyline
 90
2
 70
0
 10
82.99999999999817
 20
-34.49999999999989
 10
82.99999999999817
 20
-95.00000000000011
  0
LWPOLYLINE
  5
79
330
2F
100
AcDbEntity
  8
0
 62
1
 60
1
100
AcDbPolyline
 90
2
 70
0
 10
126.9999999999982
 20
-34.49999999999989
 10
126.9999999999982
 20
-95.00000000000011
  0
LWPOLYLINE
  5
7A
330
2F
100
AcDbEntity
  8
0
 62
1
 60
1
100
AcDbPolyline
 90
10
 70
1
 10
113.9999999999991
 20
-44.50000000000011
 10
95.99999999999818
 20
-44.50000000000011
 10
95.99999999999818
 20
-50.48399999999947
 10
97.01599999999871
 20
-51.49999999999977
 10
104.610999999998
 20
-51.49999999999977
 10
104.610999999998
 20
-48.65575234909295
 10
106.3890000000001
 20
-48.65575234909295
 10
106.3890000000001
 20
-51.49999999999977
 10
112.9839999999985
 20
-51.49999999999977
 10
113.9999999999991
 20
-50.48399999999947
  0
HATCH
  5
7B
330
2F
100
AcDbEntity
  8
0
 62
1
 60
1
100
AcDbHatch
 10
0.0
 20
0.0
 30
0.0
210
0.0
220
0.0
230
1.0
  2
ANSI31
 70
0
 71
0
 91
2
 92
7
 72
0
 73
1
 93
4
 10
111.9999999999982
 20
-34.49999999999989
 10
111.9999999999982
 20
-44.50000000000011
 10
126.9999999999982
 20
-44.50000000000011
 10
126.9999999999982
 20
-34.49999999999989
 97
0
 92
7
 72
0
 73
1
 93
4
 10
97.9999999999982
 20
-44.50000000000011
 10
97.9999999999982
 20
-34.49999999999989
 10
82.99999999999817
 20
-34.49999999999989
 10
82.99999999999817
 20
-44.50000000000011
 97
0
 75
0
 76
1
 52
0.0
 41
0.25
 77
0
 78
1
 53
45.0
 43
-4225.372280392721
 44
462.5093540331929
 45
-0.5612660075668221
 46
0.5612660075668221
 79
0
 47
0.2337761214278981
 98
2
 10
121.023465701046
 20
-39.03860072583882
 10
88.96218865585251
 20
-41.37636164863136
  0
LWPOLYLINE
  5
7C
330
2F
100
AcDbEntity
  8
0
 62
1
 60
1
100
AcDbPolyline
 90
4
 70
1
 10
97.9999999999982
 20
-44.50000000000011
 10
111.9999999999982
 20
-44.50000000000011
 10
111.9999999999982
 20
-34.49999999999989
 10
97.9999999999982
 20
-34.49999999999989
  0
LWPOLYLINE
  5
7D
330
2F
100
AcDbEntity
  8
0
 62
1
 60
1
100
AcDbPolyline
 90
4
 70
1
 10
82.99999999999817
 20
-44.50000000000011
 10
126.9999999999982
 20
-44.50000000000011
 10
126.9999999999982
 20
-34.49999999999989
 10
82.99999999999817
 20
-34.49999999999989
  0
LWPOLYLINE
  5
7E
330
2F
100
AcDbEntity
  8
0
 62
1
 60
1
100
AcDbPolyline
 90
2
 70
0
 10
152.9999999999982
 20
-34.49999999999989
 10
152.9999999999982
 20
-95.00000000000011
  0
LWPOLYLINE
  5
7F
330
2F
100
AcDbEntity
  8
0
 62
1
 60
1
100
AcDbPolyline
 90
2
 70
0
 10
197.0
 20
-34.49999999999989
 10
197.0
 20
-95.00000000000011
  0
LWPOLYLINE
  5
80
330
2F
100
AcDbEntity
  8
0
 62
1
 60
1
100
AcDbPolyline
 90
10
 70
1
 10
183.9999999999982
 20
-44.50000000000011
 10
165.9999999999982
 20
-44.50000000000011
 10
165.9999999999982
 20
-50.48399999999947
 10
167.0159999999987
 20
-51.49999999999977
 10
174.610999999998
 20
-51.49999999999977
 10
174.610999999998
 20
-48.65575234909295
 10
176.3889999999965
 20
-48.65575234909295
 10
176.3889999999965
 20
-51.49999999999977
 10
182.9839999999985
 20
-51.49999999999977
 10
183.9999999999982
 20
-50.48399999999947
  0
HATCH
  5
81
330
2F
100
AcDbEntity
  8
0
 62
1
 60
1
100
AcDbHatch
 10
0.0
 20
0.0
 30
0.0
210
0.0
220
0.0
230
1.0
  2
ANSI31
 70
0
 71
0
 91
2
 92
7
 72
0
 73
1
 93
4
 10
181.9999999999982
 20
-34.49999999999989
 10
181.9999999999982
 20
-44.50000000000011
 10
197.0
 20
-44.50000000000011
 10
197.0
 20
-34.49999999999989
 97
0
 92
7
 72
0
 73
1
 93
4
 10
167.9999999999982
 20
-44.50000000000011
 10
167.9999999999982
 20
-34.49999999999989
 10
152.9999999999982
 20
-34.49999999999989
 10
152.9999999999982
 20
-44.50000000000011
 97
0
 75
0
 76
1
 52
0.0
 41
0.25
 77
0
 78
1
 53
45.0
 43
-4155.372280392721
 44
462.5093540331929
 45
-0.5612660075668221
 46
0.5612660075668221
 79
0
 47
0.2337761214278981
 98
2
 10
191.0234657010469
 20
-39.03860072583882
 10
158.9621886558525
 20
-41.37636164863136
  0
LWPOLYLINE
  5
82
330
2F
100
AcDbEntity
  8
0
 62
1
 60
1
100
AcDbPolyline
 90
4
 70
1
 10
167.9999999999982
 20
-44.50000000000011
 10
181.9999999999982
 20
-44.50000000000011
 10
181.9999999999982
 20
-34.49999999999989
 10
167.9999999999982
 20
-34.49999999999989
  0
LWPOLYLINE
  5
83
330
2F
100
AcDbEntity
  8
0
 62
1
 60
1
100
AcDbPolyline
 90
4
 70
1
 10
152.9999999999982
 20
-44.50000000000011
 10
197.0
 20
-44.50000000000011
 10
197.0
 20
-34.49999999999989
 10
152.9999999999982
 20
-34.49999999999989
  0
LWPOLYLINE
  5
84
330
2F
100
AcDbEntity
  8
0
 60
1
100
AcDbPolyline
 90
8
 70
1
 10
76.99999999999909
 20
-113.0
 10
76.99999999999909
 20
-116.0000000000001
 10
133.0
 20
-116.0000000000001
 10
133.0
 20
-113.0
 10
209.9999999999991
 20
-113.0
 10
209.9999999999991
 20
0.0
 10
0.0
 20
0.0
 10
0.0
 20
-113.0
  0
LWPOLYLINE
  5
85
330
2F
100
AcDbEntity
  8
0
 60
1
100
AcDbPolyline
 90
4
 70
1
 10
79.99999999999818
 20
-145.0000000000002
 10
129.9999999999991
 20
-145.0000000000002
 10
129.9999999999991
 20
-116.0000000000001
 10
79.99999999999818
 20
-116.0000000000001
  0
LWPOLYLINE
  5
86
330
2F
100
AcDbEntity
  8
hw_Continuous
 60
1
100
AcDbPolyline
 90
2
 70
0
 10
0.0
 20
-109.0000000000002
 10
209.9999999999991
 20
-109.0000000000002
  0
LWPOLYLINE
  5
87
330
2F
100
AcDbEntity
  8
0
 60
1
100
AcDbPolyline
 90
2
 70
0
 10
0.0
 20
-95.00000000000023
 10
209.9999999999991
 20
-95.00000000000023
  0
LWPOLYLINE
  5
88
330
2F
100
AcDbEntity
  8
0
 60
1
100
AcDbPolyline
 90
2
 70
0
 10
66.99999999999818
 20
0.0
 10
66.99999999999818
 20
-95.00000000000023
  0
LWPOLYLINE
  5
89
330
2F
100
AcDbEntity
  8
0
 60
1
100
AcDbPolyline
 90
2
 70
0
 10
72.99999999999818
 20
0.0
 10
72.99999999999818
 20
-95.00000000000023
  0
LWPOLYLINE
  5
8A
330
2F
100
AcDbEntity
  8
hw_Center
 48
5.0
 60
1
100
AcDbPolyline
 90
2
 70
0
 10
69.99999999999818
 20
0.0
 10
69.99999999999818
 20
-95.00000000000023
  0
LWPOLYLINE
  5
8B
330
2F
100
AcDbEntity
  8
0
 62
1
 60
1
100
AcDbPolyline
 90
2
 70
0
 10
12.99999999999909
 20
-34.5
 10
12.99999999999909
 20
-95.00000000000023
  0
LWPOLYLINE
  5
8C
330
2F
100
AcDbEntity
  8
0
 62
1
 60
1
100
AcDbPolyline
 90
2
 70
0
 10
56.99999999999818
 20
-34.5
 10
56.99999999999818
 20
-95.00000000000023
  0
LWPOLYLINE
  5
8D
330
2F
100
AcDbEntity
  8
0
 62
1
 60
1
100
AcDbPolyline
 90
10
 70
1
 10
43.99999999999818
 20
-44.50000000000023
 10
25.99999999999818
 20
-44.50000000000023
 10
25.99999999999818
 20
-50.48399999999947
 10
27.0159999999969
 20
-51.5
 10
34.61099999999806
 20
-51.5
 10
34.61099999999806
 20
-48.65575234909306
 10
36.3889999999974
 20
-48.65575234909306
 10
36.3889999999974
 20
-51.5
 10
42.98399999999674
 20
-51.5
 10
43.99999999999818
 20
-50.48399999999947
  0
HATCH
  5
8E
330
2F
100
AcDbEntity
  8
0
 62
1
 60
1
100
AcDbHatch
 10
0.0
 20
0.0
 30
0.0
210
0.0
220
0.0
230
1.0
  2
ANSI31
 70
0
 71
0
 91
2
 92
7
 72
0
 73
1
 93
4
 10
41.99999999999818
 20
-34.5
 10
41.99999999999818
 20
-44.5
 10
56.99999999999818
 20
-44.50000000000023
 10
56.99999999999818
 20
-34.5
 97
0
 92
7
 72
0
 73
1
 93
4
 10
27.99999999999818
 20
-44.5
 10
27.99999999999818
 20
-34.5
 10
12.99999999999909
 20
-34.5
 10
12.99999999999909
 20
-44.5
 97
0
 75
0
 76
1
 52
0.0
 41
0.25
 77
0
 78
1
 53
45.0
 43
-4295.372280392721
 44
462.5093540331928
 45
-0.5612660075668221
 46
0.5612660075668221
 79
0
 47
0.2337761214278981
 98
2
 10
51.023465701046
 20
-39.03860072583882
 10
18.96218865585069
 20
-41.37636164863136
  0
LWPOLYLINE
  5
8F
330
2F
100
AcDbEntity
  8
0
 62
1
 60
1
100
AcDbPolyline
 90
4
 70
1
 10
27.99999999999818
 20
-44.50000000000023
 10
41.99999999999818
 20
-44.50000000000023
 10
41.99999999999818
 20
-34.5
 10
27.99999999999818
 20
-34.5
  0
LWPOLYLINE
  5
90
330
2F
100
AcDbEntity
  8
0
 62
1
 60
1
100
AcDbPolyline
 90
4
 70
1
 10
12.99999999999909
 20
-44.50000000000023
 10
56.99999999999818
 20
-44.50000000000023
 10
56.99999999999818
 20
-34.5
 10
12.99999999999909
 20
-34.5
  0
LWPOLYLINE
  5
91
330
2F
100
AcDbEntity
  8
0
 60
1
100
AcDbPolyline
 90
2
 70
0
 10
136.9999999999982
 20
0.0
 10
136.9999999999982
 20
-95.00000000000023
  0
LWPOLYLINE
  5
92
330
2F
100
AcDbEntity
  8
0
 60
1
100
AcDbPolyline
 90
2
 70
0
 10
142.9999999999981
 20
0.0
 10
142.9999999999981
 20
-95.00000000000023
  0
LWPOLYLINE
  5
93
330
2F
100
AcDbEntity
  8
hw_Center
 48
5.0
 60
1
100
AcDbPolyline
 90
2
 70
0
 10
139.9999999999982
 20
0.0
 10
139.9999999999982
 20
-95.00000000000023
  0
LWPOLYLINE
  5
94
330
2F
100
AcDbEntity
  8
0
 62
1
 60
1
100
AcDbPolyline
 90
2
 70
0
 10
152.9999999999982
 20
-34.5
 10
152.9999999999982
 20
-95.00000000000023
  0
LWPOLYLINE
  5
95
330
2F
100
AcDbEntity
  8
0
 62
1
 60
1
100
AcDbPolyline
 90
2
 70
0
 10
197.0
 20
-34.5
 10
197.0
 20
-95.00000000000023
  0
LWPOLYLINE
  5
96
330
2F
100
AcDbEntity
  8
0
 62
1
 60
1
100
AcDbPolyline
 90
10
 70
1
 10
183.9999999999982
 20
-44.50000000000023
 10
165.9999999999982
 20
-44.50000000000023
 10
165.9999999999982
 20
-50.48399999999947
 10
167.0159999999987
 20
-51.5
 10
174.610999999998
 20
-51.5
 10
174.610999999998
 20
-48.65575234909306
 10
176.3889999999965
 20
-48.65575234909306
 10
176.3889999999965
 20
-51.5
 10
182.9839999999985
 20
-51.5
 10
183.9999999999982
 20
-50.48399999999947
  0
HATCH
  5
97
330
2F
100
AcDbEntity
  8
0
 62
1
 60
1
100
AcDbHatch
 10
0.0
 20
0.0
 30
0.0
210
0.0
220
0.0
230
1.0
  2
ANSI31
 70
0
 71
0
 91
2
 92
7
 72
0
 73
1
 93
4
 10
181.9999999999982
 20
-34.5
 10
181.9999999999982
 20
-44.5
 10
197.0
 20
-44.50000000000023
 10
197.0
 20
-34.5
 97
0
 92
7
 72
0
 73
1
 93
4
 10
167.9999999999982
 20
-44.50000000000023
 10
167.9999999999982
 20
-34.5
 10
152.9999999999982
 20
-34.5
 10
152.9999999999982
 20
-44.5
 97
0
 75
0
 76
1
 52
0.0
 41
0.25
 77
0
 78
1
 53
45.0
 43
-4155.372280392721
 44
462.5093540331928
 45
-0.5612660075668221
 46
0.5612660075668221
 79
0
 47
0.2337761214278981
 98
2
 10
191.0234657010469
 20
-39.03860072583882
 10
158.9621886558525
 20
-41.37636164863136
  0
LWPOLYLINE
  5
98
330
2F
100
AcDbEntity
  8
0
 62
1
 60
1
100
AcDbPolyline
 90
4
 70
1
 10
167.9999999999982
 20
-44.50000000000023
 10
181.9999999999982
 20
-44.50000000000023
 10
181.9999999999982
 20
-34.5
 10
167.9999999999982
 20
-34.5
  0
LWPOLYLINE
  5
99
330
2F
100
AcDbEntity
  8
0
 62
1
 60
1
100
AcDbPolyline
 90
4
 70
1
 10
152.9999999999982
 20
-44.50000000000023
 10
197.0
 20
-44.50000000000023
 10
197.0
 20
-34.5
 10
152.9999999999982
 20
-34.5
  0
LWPOLYLINE
  5
9A
330
2F
100
AcDbEntity
  8
0
 60
1
100
AcDbPolyline
 90
4
 70
1
 10
0.0
 20
-139.9999999999999
 10
280.0
 20
-139.9999999999999
 10
280.0
 20
140.0
 10
0.0
 20
140.0
  0
LWPOLYLINE
  5
9B
330
2F
100
AcDbEntity
  8
0
 60
1
100
AcDbPolyline
 90
4
 70
1
 10
0.0
 20
-75.0
 10
280.0
 20
-75.0
 10
280.0
 20
75.0
 10
0.0
 20
75.0
  0
LWPOLYLINE
  5
9C
330
2F
100
AcDbEntity
  8
0
 60
1
100
AcDbPolyline
 90
4
 70
1
 10
0.0
 20
-48.0
 10
280.0
 20
-48.0
 10
280.0
 20
48.0
 10
0.0
 20
48.0
  0
LWPOLYLINE
  5
9D
330
2F
100
AcDbEntity
  8
0
 62
1
 60
1
100
AcDbPolyline
 90
6
 70
1
 10
83.0
 20
-139.9999999999999
 10
127.0
 20
-139.9999999999999
 10
127.0
 20
-121.5
 10
124.0
 20
-118.5
 10
86.0
 20
-118.5
 10
83.0
 20
-121.5
  0
LWPOLYLINE
  5
9E
330
2F
100
AcDbEntity
  8
0
 60
1
100
AcDbPolyline
 90
4
 70
0
 10
127.0
 20
-139.9999999999999
 10
127.0
 20
-118.0
 10
83.0
 20
-118.0
 10
83.0
 20
-139.9999999999999
  0
CIRCLE
  5
9F
330
2F
100
AcDbEntity
  8
0
 62
1
 60
1
100
AcDbCircle
 10
105.0
 20
-128.9999999999999
 30
0.0
 40
7.0
  0
LWPOLYLINE
  5
A0
330
2F
100
AcDbEntity
  8
0
 62
1
 60
1
100
AcDbPolyline
 90
6
 70
1
 10
153.0
 20
-139.9999999999999
 10
197.0
 20
-139.9999999999999
 10
197.0
 20
-121.5
 10
194.0
 20
-118.5
 10
156.0
 20
-118.5
 10
153.0
 20
-121.5
  0
LWPOLYLINE
  5
A1
330
2F
100
AcDbEntity
  8
0
 60
1
100
AcDbPolyline
 90
4
 70
0
 10
197.0
 20
-139.9999999999999
 10
197.0
 20
-118.0
 10
153.0
 20
-118.0
 10
153.0
 20
-139.9999999999999
  0
CIRCLE
  5
A2
330
2F
100
AcDbEntity
  8
0
 62
1
 60
1
100
AcDbCircle
 10
175.0
 20
-128.9999999999999
 30
0.0
 40
7.0
  0
LWPOLYLINE
  5
A3
330
2F
100
AcDbEntity
  8
0
 62
1
 60
1
100
AcDbPolyline
 90
6
 70
1
 10
13.0
 20
-139.9999999999999
 10
57.0
 20
-139.9999999999999
 10
57.0
 20
-121.5
 10
54.0
 20
-118.5
 10
16.0
 20
-118.5
 10
13.0
 20
-121.5
  0
LWPOLYLINE
  5
A4
330
2F
100
AcDbEntity
  8
0
 60
1
100
AcDbPolyline
 90
4
 70
0
 10
57.0
 20
-139.9999999999999
 10
57.0
 20
-118.0
 10
13.0
 20
-118.0
 10
13.0
 20
-139.9999999999999
  0
CIRCLE
  5
A5
330
2F
100
AcDbEntity
  8
0
 62
1
 60
1
100
AcDbCircle
 10
35.0
 20
-128.9999999999999
 30
0.0
 40
7.0
  0
CIRCLE
  5
A6
330
2F
100
AcDbEntity
  8
hw_Continuous
 60
1
100
AcDbCircle
 10
140.0
 20
-121.5
 30
0.0
 40
3.0
  0
CIRCLE
  5
A7
330
2F
100
AcDbEntity
  8
hw_Continuous
 60
1
100
AcDbCircle
 10
70.0
 20
-121.5
 30
0.0
 40
3.0
  0
LWPOLYLINE
  5
A8
330
2F
100
AcDbEntity
  8
0
 60
1
100
AcDbPolyline
 90
4
 70
1
 10
77.0
 20
-48.0
 10
133.0
 20
-48.0
 10
133.0
 20
48.0
 10
77.0
 20
48.0
  0
HATCH
  5
A9
330
2F
100
AcDbEntity
  8
0
 62
1
 60
1
100
AcDbHatch
 10
0.0
 20
0.0
 30
0.0
210
0.0
220
0.0
230
1.0
  2
SOLID
 70
1
 71
0
 91
1
 92
7
 72
0
 73
1
 93
4
 10
81.0
 20
-4.0
 10
81.0
 20
-19.0
 10
129.0
 20
-19.0
 10
129.0
 20
-4.0
 97
0
 75
0
 76
1
 47
0.3083972622876851
 98
1
 10
102.5617474931205
 20
-10.56087639847618
450
0
451
0
460
0.0
461
0.0
452
1
462
1.0
453
2
463
0
 63
5
421
255
463
1
 63
7
421
16777215
470
LINEAR
  0
LWPOLYLINE
  5
AA
330
2F
100
AcDbEntity
  8
0
 60
1
100
AcDbPolyline
 90
4
 70
1
 10
81.0
 20
-19.0
 10
129.0
 20
-19.0
 10
129.0
 20
40.99999999999988
 10
81.0
 20
40.99999999999988
  0
LWPOLYLINE
  5
AB
330
2F
100
AcDbEntity
  8
0
 60
1
100
AcDbPolyline
 90
2
 70
0
 10
81.0
 20
-4.0
 10
129.0
 20
-4.0
  0
HATCH
  5
AC
330
2F
100
AcDbEntity
  8
0
 62
7
 60
1
100
AcDbHatch
 10
0.0
 20
0.0
 30
0.0
210
0.0
220
0.0
230
1.0
  2
SOLID
 70
1
 71
0
 91
3
 92
7
 72
1
 73
1
 93
2
 10
105.6368505134696
 20
-11.62049691420918
 42
1.0
 10
99.63685051347149
 20
-11.62049691420918
 42
1.0
 97
0
 92
22
 72
1
 73
1
 93
2
 10
104.9368505134716
 20
-11.62049691420918
 42
-1.0
 10
100.3368505134713
 20
-11.62049691420918
 42
-1.0
 97
0
 92
7
 72
0
 73
1
 93
10
 10
106.6368505134705
 20
-14.62049691420918
 10
107.3225647991848
 20
-14.62049691420918
 10
107.3225647991848
 20
-9.991925485637807
 10
110.4082790849006
 20
-14.62049691420918
 10
111.2654219420428
 20
-14.62049691420918
 10
111.2654219420428
 20
-8.620496914209184
 10
110.4082790849006
 20
-8.620496914209184
 10
110.4082790849006
 20
-13.24906834278073
 10
107.4939933706128
 20
-8.620496914209184
 10
106.6368505134705
 20
-8.620496914209184
 97
0
 75
0
 76
1
 47
0.0121935949817836
 98
3
 10
103.9795473561325
 20
-9.154343089702024
 10
103.9795473561325
 20
-9.154343089702024
 10
107.0540498424316
 20
-9.325052954014325
450
0
451
0
460
0.0
461
0.0
452
1
462
1.0
453
2
463
0
 63
5
421
255
463
1
 63
7
421
16777215
470
LINEAR
  0
LWPOLYLINE
  5
AD
330
2F
100
AcDbEntity
  8
0
 62
7
370
0
 60
1
100
AcDbPolyline
 90
10
 70
1
 10
107.3225647991848
 20
-14.62049691420918
 10
107.3225647991848
 20
-9.991925485637807
 10
110.4082790849006
 20
-14.62049691420918
 10
111.2654219420428
 20
-14.62049691420918
 10
111.2654219420428
 20
-8.620496914209184
 10
110.4082790849006
 20
-8.620496914209184
 10
110.4082790849006
 20
-13.24906834278073
 10
107.4939933706128
 20
-8.620496914209184
 10
106.6368505134705
 20
-8.620496914209184
 10
106.6368505134705
 20
-14.62049691420918
  0
CIRCLE
  5
AE
330
2F
100
AcDbEntity
  8
0
 62
7
 60
1
100
AcDbCircle
 10
102.6368505134696
 20
-11.62049691420918
 30
0.0
 40
3.0
  0
CIRCLE
  5
AF
330
2F
100
AcDbEntity
  8
0
 62
7
 60
1
100
AcDbCircle
 10
102.6368505134696
 20
-11.62049691420918
 30
0.0
 40
2.299999999999998
  0
TEXT
  5
B0
330
2F
100
AcDbEntity
  8
Defpoints
 62
254
 60
1
100
AcDbText
 10
164.5151898271197
 20
1.024338489252386
 30
0.0
 40
2.0
  1
ABN800c
  7
WD_IEC
 41
0.75
 11
164.5151898271197
 21
2.024338489252386
 31
0.0
100
AcDbText
 73
2
  0
TEXT
  5
B1
330
2F
100
AcDbEntity
  8
Defpoints
 62
254
 60
1
100
AcDbText
 10
164.5151898271197
 20
-2.213756748842911
 30
0.0
 40
2.0
  1
ABS800c
  7
WD_IEC
 41
0.75
 11
164.5151898271197
 21
-1.213756748842911
 31
0.0
100
AcDbText
 73
2
  0
TEXT
  5
B2
330
2F
100
AcDbEntity
  8
Defpoints
 62
254
 60
1
100
AcDbText
 10
164.5151898271197
 20
-5.451851986938095
 30
0.0
 40
2.0
  1
ABL800c
  7
WD_IEC
 41
0.75
 11
164.5151898271197
 21
-4.451851986938095
 31
0.0
100
AcDbText
 73
2
  0
LWPOLYLINE
  5
B3
330
2F
100
AcDbEntity
  8
0
 62
1
 60
1
100
AcDbPolyline
 90
6
 70
1
 10
83.0
 20
140.0
 10
127.0
 20
140.0
 10
127.0
 20
121.5
 10
124.0
 20
118.5
 10
86.0
 20
118.5
 10
83.0
 20
121.5
  0
LWPOLYLINE
  5
B4
330
2F
100
AcDbEntity
  8
0
 60
1
100
AcDbPolyline
 90
4
 70
0
 10
127.0
 20
140.0
 10
127.0
 20
118.0
 10
83.0
 20
118.0
 10
83.0
 20
140.0
  0
CIRCLE
  5
B5
330
2F
100
AcDbEntity
  8
0
 62
1
 60
1
100
AcDbCircle
 10
105.0
 20
129.0
 30
0.0
 40
7.0
  0
LWPOLYLINE
  5
B6
330
2F
100
AcDbEntity
  8
0
 62
1
 60
1
100
AcDbPolyline
 90
6
 70
1
 10
153.0
 20
140.0
 10
197.0
 20
140.0
 10
197.0
 20
121.5
 10
194.0
 20
118.5
 10
156.0
 20
118.5
 10
153.0
 20
121.5
  0
LWPOLYLINE
  5
B7
330
2F
100
AcDbEntity
  8
0
 60
1
100
AcDbPolyline
 90
4
 70
0
 10
197.0
 20
140.0
 10
197.0
 20
118.0
 10
153.0
 20
118.0
 10
153.0
 20
140.0
  0
CIRCLE
  5
B8
330
2F
100
AcDbEntity
  8
0
 62
1
 60
1
100
AcDbCircle
 10
175.0
 20
129.0
 30
0.0
 40
7.0
  0
LWPOLYLINE
  5
B9
330
2F
100
AcDbEntity
  8
0
 62
1
 60
1
100
AcDbPolyline
 90
6
 70
1
 10
13.0
 20
140.0
 10
57.0
 20
140.0
 10
57.0
 20
121.5
 10
54.0
 20
118.5
 10
16.0
 20
118.5
 10
13.0
 20
121.5
  0
LWPOLYLINE
  5
BA
330
2F
100
AcDbEntity
  8
0
 60
1
100
AcDbPolyline
 90
4
 70
0
 10
57.0
 20
140.0
 10
57.0
 20
118.0
 10
13.0
 20
118.0
 10
13.0
 20
140.0
  0
CIRCLE
  5
BB
330
2F
100
AcDbEntity
  8
0
 62
1
 60
1
100
AcDbCircle
 10
35.0
 20
129.0
 30
0.0
 40
7.0
  0
CIRCLE
  5
BC
330
2F
100
AcDbEntity
  8
hw_Continuous
 60
1
100
AcDbCircle
 10
140.0
 20
121.5
 30
0.0
 40
3.0
  0
CIRCLE
  5
BD
330
2F
100
AcDbEntity
  8
hw_Continuous
 60
1
100
AcDbCircle
 10
70.0
 20
121.5
 30
0.0
 40
3.0
  0
TEXT
  5
BE
330
2F
100
AcDbEntity
  8
hw_Text
 60
1
100
AcDbText
 10
12.55005617304323
 20
-102.6369644164142
 30
0.0
 40
8.0
  1
LOAD
  7
hw_Standard
 41
0.9
 11
12.55005617304323
 21
-98.63696441641423
 31
0.0
100
AcDbText
 73
2
  0
LWPOLYLINE
  5
BF
330
2F
100
AcDbEntity
  8
0
 62
1
 60
1
100
AcDbPolyline
 90
6
 70
1
 10
223.0
 20
140.0
 10
267.0
 20
140.0
 10
267.0
 20
121.5
 10
264.0
 20
118.5
 10
226.0
 20
118.5
 10
223.0
 20
121.5
  0
LWPOLYLINE
  5
C0
330
2F
100
AcDbEntity
  8
0
 60
1
100
AcDbPolyline
 90
4
 70
0
 10
267.0
 20
140.0
 10
267.0
 20
118.0
 10
223.0
 20
118.0
 10
223.0
 20
140.0
  0
CIRCLE
  5
C1
330
2F
100
AcDbEntity
  8
0
 62
1
 60
1
100
AcDbCircle
 10
245.0
 20
129.0
 30
0.0
 40
7.0
  0
CIRCLE
  5
C2
330
2F
100
AcDbEntity
  8
hw_Continuous
 60
1
100
AcDbCircle
 10
210.0
 20
121.5
 30
0.0
 40
3.0
  0
LWPOLYLINE
  5
C3
330
2F
100
AcDbEntity
  8
0
 62
1
 60
1
100
AcDbPolyline
 90
6
 70
1
 10
223.0
 20
-139.9999999999999
 10
267.0
 20
-139.9999999999999
 10
267.0
 20
-121.5
 10
264.0
 20
-118.5
 10
226.0
 20
-118.5
 10
223.0
 20
-121.5
  0
LWPOLYLINE
  5
C4
330
2F
100
AcDbEntity
  8
0
 60
1
100
AcDbPolyline
 90
4
 70
0
 10
267.0
 20
-139.9999999999999
 10
267.0
 20
-118.0
 10
223.0
 20
-118.0
 10
223.0
 20
-139.9999999999999
  0
CIRCLE
  5
C5
330
2F
100
AcDbEntity
  8
0
 62
1
 60
1
100
AcDbCircle
 10
245.0
 20
-128.9999999999999
 30
0.0
 40
7.0
  0
CIRCLE
  5
C6
330
2F
100
AcDbEntity
  8
hw_Continuous
 60
1
100
AcDbCircle
 10
210.0
 20
-121.5
 30
0.0
 40
3.0
  0
LWPOLYLINE
  5
C7
330
2F
100
AcDbEntity
  8
hw_Center
 62
0
 48
5.0
 60
1
100
AcDbPolyline
 90
2
 70
0
 10
210.0
 20
75.0
 10
210.0
 20
-75.0
  0
TEXT
  5
C8
330
2F
100
AcDbEntity
  8
hw_Text
 62
254
 60
1
100
AcDbText
 10
240.9285714285714
 20
-5.000000000000012
 30
0.0
 40
10.0
  1
N
  7
hw_Standard
 41
0.9
 72
1
 11
245.0
 21
-1.24e-14
 31
0.0
100
AcDbText
 73
2
  0
LWPOLYLINE
  5
C9
330
2F
100
AcDbEntity
  8
0
 60
1
100
AcDbPolyline
 90
8
 70
1
 10
77.0
 20
-113.0000000000001
 10
77.0
 20
-116.0000000000001
 10
133.0
 20
-116.0000000000001
 10
133.0
 20
-113.0000000000001
 10
280.0
 20
-113.0000000000001
 10
280.0
 20
0.0
 10
0.0
 20
0.0
 10
0.0
 20
-113.0000000000001
  0
LWPOLYLINE
  5
CA
330
2F
100
AcDbEntity
  8
hw_Continuous
 60
1
100
AcDbPolyline
 90
2
 70
0
 10
0.0
 20
-109.0000000000001
 10
280.0
 20
-109.0000000000001
  0
LWPOLYLINE
  5
CB
330
2F
100
AcDbEntity
  8
0
 60
1
100
AcDbPolyline
 90
2
 70
0
 10
0.0
 20
-95.00000000000011
 10
280.0
 20
-95.00000000000011
  0
LWPOLYLINE
  5
CC
330
2F
100
AcDbEntity
  8
0
 60
1
100
AcDbPolyline
 90
2
 70
0
 10
67.0
 20
0.0
 10
67.0
 20
-95.00000000000011
  0
LWPOLYLINE
  5
CD
330
2F
100
AcDbEntity
  8
0
 60
1
100
AcDbPolyline
 90
2
 70
0
 10
73.0
 20
0.0
 10
73.0
 20
-95.00000000000011
  0
LWPOLYLINE
  5
CE
330
2F
100
AcDbEntity
  8
hw_Center
 48
5.0
 60
1
100
AcDbPolyline
 90
2
 70
0
 10
70.0
 20
0.0
 10
70.0
 20
-95.00000000000011
  0
LWPOLYLINE
  5
CF
330
2F
100
AcDbEntity
  8
0
 62
1
 60
1
100
AcDbPolyline
 90
2
 70
0
 10
13.0
 20
-34.49999999999989
 10
13.0
 20
-95.00000000000011
  0
LWPOLYLINE
  5
D0
330
2F
100
AcDbEntity
  8
0
 62
1
 60
1
100
AcDbPolyline
 90
2
 70
0
 10
57.0
 20
-34.49999999999989
 10
57.0
 20
-95.00000000000011
  0
LWPOLYLINE
  5
D1
330
2F
100
AcDbEntity
  8
0
 62
1
 60
1
100
AcDbPolyline
 90
10
 70
1
 10
44.0
 20
-44.49999999999988
 10
26.0
 20
-44.49999999999988
 10
26.0
 20
-50.48399999999912
 10
27.01600000000053
 20
-51.49999999999977
 10
34.61099999999988
 20
-51.49999999999977
 10
34.61099999999988
 20
-48.65575234909272
 10
36.38900000000012
 20
-48.65575234909272
 10
36.38900000000012
 20
-51.49999999999977
 10
42.98400000000038
 20
-51.49999999999977
 10
44.0
 20
-50.48399999999912
  0
HATCH
  5
D2
330
2F
100
AcDbEntity
  8
0
 62
1
 60
1
100
AcDbHatch
 10
0.0
 20
0.0
 30
0.0
210
0.0
220
0.0
230
1.0
  2
ANSI31
 70
0
 71
0
 91
2
 92
7
 72
0
 73
1
 93
4
 10
42.0
 20
-34.49999999999989
 10
42.0
 20
-44.5
 10
57.0
 20
-44.5
 10
57.0
 20
-34.49999999999989
 97
0
 92
7
 72
0
 73
1
 93
4
 10
28.0
 20
-44.5
 10
28.0
 20
-34.49999999999989
 10
13.0
 20
-34.49999999999989
 10
13.0
 20
-44.5
 97
0
 75
0
 76
1
 52
0.0
 41
0.25
 77
0
 78
1
 53
45.0
 43
-4295.372280392719
 44
462.509354033193
 45
-0.5612660075668221
 46
0.5612660075668221
 79
0
 47
0.2337761214278981
 98
2
 10
51.02346570104782
 20
-39.03860072583859
 10
18.96218865585433
 20
-41.37636164863113
  0
LWPOLYLINE
  5
D3
330
2F
100
AcDbEntity
  8
0
 62
1
 60
1
100
AcDbPolyline
 90
4
 70
1
 10
28.0
 20
-44.49999999999988
 10
42.0
 20
-44.49999999999988
 10
42.0
 20
-34.49999999999989
 10
28.0
 20
-34.49999999999989
  0
LWPOLYLINE
  5
D4
330
2F
100
AcDbEntity
  8
0
 62
1
 60
1
100
AcDbPolyline
 90
4
 70
1
 10
13.0
 20
-44.5
 10
57.0
 20
-44.5
 10
57.0
 20
-34.49999999999989
 10
13.0
 20
-34.49999999999989
  0
LWPOLYLINE
  5
D5
330
2F
100
AcDbEntity
  8
0
 60
1
100
AcDbPolyline
 90
2
 70
0
 10
137.0
 20
0.0
 10
137.0
 20
-95.00000000000011
  0
LWPOLYLINE
  5
D6
330
2F
100
AcDbEntity
  8
0
 60
1
100
AcDbPolyline
 90
2
 70
0
 10
143.0
 20
0.0
 10
143.0
 20
-95.00000000000011
  0
LWPOLYLINE
  5
D7
330
2F
100
AcDbEntity
  8
hw_Center
 48
5.0
 60
1
100
AcDbPolyline
 90
2
 70
0
 10
140.0
 20
0.0
 10
140.0
 20
-95.00000000000011
  0
LWPOLYLINE
  5
D8
330
2F
100
AcDbEntity
  8
0
 62
1
 60
1
100
AcDbPolyline
 90
2
 70
0
 10
83.0
 20
-34.49999999999989
 10
83.0
 20
-95.00000000000011
  0
LWPOLYLINE
  5
D9
330
2F
100
AcDbEntity
  8
0
 62
1
 60
1
100
AcDbPolyline
 90
2
 70
0
 10
127.0
 20
-34.49999999999989
 10
127.0
 20
-95.00000000000011
  0
LWPOLYLINE
  5
DA
330
2F
100
AcDbEntity
  8
0
 62
1
 60
1
100
AcDbPolyline
 90
10
 70
1
 10
114.0
 20
-44.49999999999988
 10
96.0
 20
-44.49999999999988
 10
96.0
 20
-50.48399999999912
 10
97.01599999999871
 20
-51.49999999999977
 10
104.6109999999998
 20
-51.49999999999977
 10
104.6109999999998
 20
-48.65575234909272
 10
106.3890000000001
 20
-48.65575234909272
 10
106.3890000000001
 20
-51.49999999999977
 10
112.9840000000003
 20
-51.49999999999977
 10
114.0
 20
-50.48399999999912
  0
HATCH
  5
DB
330
2F
100
AcDbEntity
  8
0
 62
1
 60
1
100
AcDbHatch
 10
0.0
 20
0.0
 30
0.0
210
0.0
220
0.0
230
1.0
  2
ANSI31
 70
0
 71
0
 91
2
 92
7
 72
0
 73
1
 93
4
 10
112.0
 20
-34.49999999999989
 10
112.0
 20
-44.5
 10
127.0
 20
-44.5
 10
127.0
 20
-34.49999999999989
 97
0
 92
7
 72
0
 73
1
 93
4
 10
98.0
 20
-44.5
 10
98.0
 20
-34.49999999999989
 10
83.0
 20
-34.49999999999989
 10
83.0
 20
-44.5
 97
0
 75
0
 76
1
 52
0.0
 41
0.25
 77
0
 78
1
 53
45.0
 43
-4225.372280392719
 44
462.509354033193
 45
-0.5612660075668221
 46
0.5612660075668221
 79
0
 47
0.2337761214278981
 98
2
 10
121.0234657010478
 20
-39.03860072583859
 10
88.96218865585433
 20
-41.37636164863113
  0
LWPOLYLINE
  5
DC
330
2F
100
AcDbEntity
  8
0
 62
1
 60
1
100
AcDbPolyline
 90
4
 70
1
 10
98.0
 20
-44.49999999999988
 10
112.0
 20
-44.49999999999988
 10
112.0
 20
-34.49999999999989
 10
98.0
 20
-34.49999999999989
  0
LWPOLYLINE
  5
DD
330
2F
100
AcDbEntity
  8
0
 62
1
 60
1
100
AcDbPolyline
 90
4
 70
1
 10
83.0
 20
-44.5
 10
127.0
 20
-44.5
 10
127.0
 20
-34.49999999999989
 10
83.0
 20
-34.49999999999989
  0
LWPOLYLINE
  5
DE
330
2F
100
AcDbEntity
  8
0
 62
1
 60
1
100
AcDbPolyline
 90
2
 70
0
 10
153.0
 20
-34.49999999999989
 10
153.0
 20
-95.00000000000011
  0
LWPOLYLINE
  5
DF
330
2F
100
AcDbEntity
  8
0
 62
1
 60
1
100
AcDbPolyline
 90
2
 70
0
 10
197.0
 20
-34.49999999999989
 10
197.0
 20
-95.00000000000011
  0
LWPOLYLINE
  5
E0
330
2F
100
AcDbEntity
  8
0
 62
1
 60
1
100
AcDbPolyline
 90
10
 70
1
 10
184.0
 20
-44.49999999999988
 10
166.0
 20
-44.49999999999988
 10
166.0
 20
-50.48399999999912
 10
167.0160000000005
 20
-51.49999999999977
 10
174.6109999999998
 20
-51.49999999999977
 10
174.6109999999998
 20
-48.65575234909272
 10
176.3890000000001
 20
-48.65575234909272
 10
176.3890000000001
 20
-51.49999999999977
 10
182.9840000000013
 20
-51.49999999999977
 10
184.0
 20
-50.48399999999912
  0
HATCH
  5
E1
330
2F
100
AcDbEntity
  8
0
 62
1
 60
1
100
AcDbHatch
 10
0.0
 20
0.0
 30
0.0
210
0.0
220
0.0
230
1.0
  2
ANSI31
 70
0
 71
0
 91
2
 92
7
 72
0
 73
1
 93
4
 10
182.0
 20
-34.49999999999989
 10
182.0
 20
-44.5
 10
197.0
 20
-44.5
 10
197.0
 20
-34.49999999999989
 97
0
 92
7
 72
0
 73
1
 93
4
 10
168.0
 20
-44.5
 10
168.0
 20
-34.49999999999989
 10
153.0
 20
-34.49999999999989
 10
153.0
 20
-44.5
 97
0
 75
0
 76
1
 52
0.0
 41
0.25
 77
0
 78
1
 53
45.0
 43
-4155.372280392719
 44
462.509354033193
 45
-0.5612660075668221
 46
0.5612660075668221
 79
0
 47
0.2337761214278981
 98
2
 10
191.0234657010478
 20
-39.03860072583859
 10
158.9621886558552
 20
-41.37636164863113
  0
LWPOLYLINE
  5
E2
330
2F
100
AcDbEntity
  8
0
 62
1
 60
1
100
AcDbPolyline
 90
4
 70
1
 10
168.0
 20
-44.49999999999988
 10
182.0
 20
-44.49999999999988
 10
182.0
 20
-34.49999999999989
 10
168.0
 20
-34.49999999999989
  0
LWPOLYLINE
  5
E3
330
2F
100
AcDbEntity
  8
0
 62
1
 60
1
100
AcDbPolyline
 90
4
 70
1
 10
153.0
 20
-44.5
 10
197.0
 20
-44.5
 10
197.0
 20
-34.49999999999989
 10
153.0
 20
-34.49999999999989
  0
LWPOLYLINE
  5
E4
330
2F
100
AcDbEntity
  8
0
 60
1
100
AcDbPolyline
 90
2
 70
0
 10
207.0
 20
0.0
 10
207.0
 20
-95.00000000000011
  0
LWPOLYLINE
  5
E5
330
2F
100
AcDbEntity
  8
0
 60
1
100
AcDbPolyline
 90
2
 70
0
 10
213.0
 20
0.0
 10
213.0
 20
-95.00000000000011
  0
LWPOLYLINE
  5
E6
330
2F
100
AcDbEntity
  8
hw_Center
 48
5.0
 60
1
100
AcDbPolyline
 90
2
 70
0
 10
210.0
 20
0.0
 10
210.0
 20
-95.00000000000011
  0
LWPOLYLINE
  5
E7
330
2F
100
AcDbEntity
  8
0
 62
1
 60
1
100
AcDbPolyline
 90
2
 70
0
 10
223.0
 20
-34.49999999999989
 10
223.0
 20
-95.00000000000011
  0
LWPOLYLINE
  5
E8
330
2F
100
AcDbEntity
  8
0
 62
1
 60
1
100
AcDbPolyline
 90
2
 70
0
 10
267.0
 20
-34.49999999999989
 10
267.0
 20
-95.00000000000011
  0
LWPOLYLINE
  5
E9
330
2F
100
AcDbEntity
  8
0
 62
1
 60
1
100
AcDbPolyline
 90
10
 70
1
 10
254.0
 20
-44.49999999999988
 10
236.0
 20
-44.49999999999988
 10
236.0
 20
-50.48399999999912
 10
237.0160000000005
 20
-51.49999999999977
 10
244.6109999999999
 20
-51.49999999999977
 10
244.6109999999999
 20
-48.65575234909272
 10
246.3890000000001
 20
-48.65575234909272
 10
246.3890000000001
 20
-51.49999999999977
 10
252.9840000000004
 20
-51.49999999999977
 10
254.0
 20
-50.48399999999912
  0
HATCH
  5
EA
330
2F
100
AcDbEntity
  8
0
 62
1
 60
1
100
AcDbHatch
 10
0.0
 20
0.0
 30
0.0
210
0.0
220
0.0
230
1.0
  2
ANSI31
 70
0
 71
0
 91
2
 92
7
 72
0
 73
1
 93
4
 10
252.0
 20
-34.49999999999989
 10
252.0
 20
-44.5
 10
267.0
 20
-44.5
 10
267.0
 20
-34.49999999999989
 97
0
 92
7
 72
0
 73
1
 93
4
 10
238.0
 20
-44.5
 10
238.0
 20
-34.49999999999989
 10
223.0
 20
-34.49999999999989
 10
223.0
 20
-44.5
 97
0
 75
0
 76
1
 52
0.0
 41
0.25
 77
0
 78
1
 53
45.0
 43
-4085.37228039272
 44
462.509354033193
 45
-0.5612660075668221
 46
0.5612660075668221
 79
0
 47
0.2337761214278981
 98
2
 10
261.0234657010478
 20
-39.03860072583859
 10
228.9621886558543
 20
-41.37636164863113
  0
LWPOLYLINE
  5
EB
330
2F
100
AcDbEntity
  8
0
 62
1
 60
1
100
AcDbPolyline
 90
4
 70
1
 10
238.0
 20
-44.49999999999988
 10
252.0
 20
-44.49999999999988
 10
252.0
 20
-34.49999999999989
 10
238.0
 20
-34.49999999999989
  0
LWPOLYLINE
  5
EC
330
2F
100
AcDbEntity
  8
0
 62
1
 60
1
100
AcDbPolyline
 90
4
 70
1
 10
223.0
 20
-44.5
 10
267.0
 20
-44.5
 10
267.0
 20
-34.49999999999989
 10
223.0
 20
-34.49999999999989
  0
LWPOLYLINE
  5
ED
330
2F
100
AcDbEntity
  8
0
 60
1
100
AcDbPolyline
 90
4
 70
1
 10
0.0
 20
-139.9999999999999
 10
210.0
 20
-139.9999999999999
 10
210.0
 20
139.9999999999997
 10
0.0
 20
139.9999999999997
  0
LWPOLYLINE
  5
EE
330
2F
100
AcDbEntity
  8
0
 60
1
100
AcDbPolyline
 90
4
 70
1
 10
0.0
 20
-74.99999999999989
 10
210.0
 20
-74.99999999999989
 10
210.0
 20
74.99999999999966
 10
0.0
 20
74.99999999999966
  0
LWPOLYLINE
  5
EF
330
2F
100
AcDbEntity
  8
0
 60
1
100
AcDbPolyline
 90
4
 70
1
 10
0.0
 20
-47.99999999999989
 10
210.0
 20
-47.99999999999989
 10
210.0
 20
47.99999999999966
 10
0.0
 20
47.99999999999966
  0
LWPOLYLINE
  5
F0
330
2F
100
AcDbEntity
  8
0
 60
1
100
AcDbPolyline
 90
4
 70
0
 10
127.0
 20
-139.9999999999999
 10
127.0
 20
-117.9999999999999
 10
83.0
 20
-117.9999999999999
 10
83.0
 20
-139.9999999999999
  0
LWPOLYLINE
  5
F1
330
2F
100
AcDbEntity
  8
0
 62
1
 60
1
100
AcDbPolyline
 90
6
 70
1
 10
153.0
 20
-139.9999999999999
 10
197.0
 20
-139.9999999999999
 10
197.0
 20
-121.4999999999999
 10
194.0
 20
-118.4999999999999
 10
156.0
 20
-118.4999999999999
 10
153.0
 20
-121.4999999999999
  0
LWPOLYLINE
  5
F2
330
2F
100
AcDbEntity
  8
0
 60
1
100
AcDbPolyline
 90
4
 70
0
 10
197.0
 20
-139.9999999999999
 10
197.0
 20
-117.9999999999999
 10
153.0
 20
-117.9999999999999
 10
153.0
 20
-139.9999999999999
  0
CIRCLE
  5
F3
330
2F
100
AcDbEntity
  8
0
 62
1
 60
1
100
AcDbCircle
 10
175.0
 20
-128.9999999999999
 30
0.0
 40
7.0
  0
LWPOLYLINE
  5
F4
330
2F
100
AcDbEntity
  8
0
 62
1
 60
1
100
AcDbPolyline
 90
6
 70
1
 10
13.0
 20
-139.9999999999999
 10
57.0
 20
-139.9999999999999
 10
57.0
 20
-121.4999999999999
 10
54.0
 20
-118.4999999999999
 10
16.0
 20
-118.4999999999999
 10
13.0
 20
-121.4999999999999
  0
LWPOLYLINE
  5
F5
330
2F
100
AcDbEntity
  8
0
 60
1
100
AcDbPolyline
 90
4
 70
0
 10
57.0
 20
-139.9999999999999
 10
57.0
 20
-117.9999999999999
 10
13.0
 20
-117.9999999999999
 10
13.0
 20
-139.9999999999999
  0
CIRCLE
  5
F6
330
2F
100
AcDbEntity
  8
0
 62
1
 60
1
100
AcDbCircle
 10
35.0
 20
-128.9999999999999
 30
0.0
 40
7.0
  0
CIRCLE
  5
F7
330
2F
100
AcDbEntity
  8
hw_Continuous
 60
1
100
AcDbCircle
 10
140.0
 20
-121.4999999999999
 30
0.0
 40
3.0
  0
CIRCLE
  5
F8
330
2F
100
AcDbEntity
  8
hw_Continuous
 60
1
100
AcDbCircle
 10
70.0
 20
-121.4999999999999
 30
0.0
 40
3.0
  0
LWPOLYLINE
  5
F9
330
2F
100
AcDbEntity
  8
0
 60
1
100
AcDbPolyline
 90
4
 70
1
 10
77.0
 20
-47.99999999999989
 10
133.0
 20
-47.99999999999989
 10
133.0
 20
47.99999999999966
 10
77.0
 20
47.99999999999966
  0
HATCH
  5
FA
330
2F
100
AcDbEntity
  8
0
 62
1
 60
1
100
AcDbHatch
 10
0.0
 20
0.0
 30
0.0
210
0.0
220
0.0
230
1.0
  2
SOLID
 70
1
 71
0
 91
1
 92
7
 72
0
 73
1
 93
4
 10
81.0
 20
-4.000000000000341
 10
81.0
 20
-19.00000000000034
 10
129.0
 20
-19.00000000000034
 10
129.0
 20
-4.000000000000341
 97
0
 75
0
 76
1
 47
0.3083972622876851
 98
1
 10
102.5617474931205
 20
-10.56087639847646
450
0
451
0
460
0.0
461
0.0
452
1
462
1.0
453
2
463
0
 63
5
421
255
463
1
 63
7
421
16777215
470
LINEAR
  0
LWPOLYLINE
  5
FB
330
2F
100
AcDbEntity
  8
0
 60
1
100
AcDbPolyline
 90
4
 70
1
 10
81.0
 20
-19.00000000000034
 10
129.0
 20
-19.00000000000034
 10
129.0
 20
40.99999999999965
 10
81.0
 20
40.99999999999965
  0
LWPOLYLINE
  5
FC
330
2F
100
AcDbEntity
  8
0
 60
1
100
AcDbPolyline
 90
2
 70
0
 10
81.0
 20
-4.000000000000341
 10
129.0
 20
-4.000000000000341
  0
HATCH
  5
FD
330
2F
100
AcDbEntity
  8
0
 62
7
 60
1
100
AcDbHatch
 10
0.0
 20
0.0
 30
0.0
210
0.0
220
0.0
230
1.0
  2
SOLID
 70
1
 71
0
 91
3
 92
7
 72
1
 73
1
 93
2
 10
105.6368505134696
 20
-11.62049691420952
 42
1.0
 10
99.63685051347149
 20
-11.62049691420952
 42
1.0
 97
0
 92
22
 72
1
 73
1
 93
2
 10
104.9368505134716
 20
-11.62049691420952
 42
-1.0
 10
100.3368505134713
 20
-11.62049691420952
 42
-1.0
 97
0
 92
7
 72
0
 73
1
 93
10
 10
106.6368505134696
 20
-14.62049691420929
 10
107.3225647991858
 20
-14.62049691420929
 10
107.3225647991858
 20
-9.991925485637921
 10
110.4082790849006
 20
-14.62049691420929
 10
111.2654219420428
 20
-14.62049691420929
 10
111.2654219420428
 20
-8.620496914209525
 10
110.4082790849006
 20
-8.620496914209525
 10
110.4082790849006
 20
-13.24906834278113
 10
107.4939933706128
 20
-8.620496914209525
 10
106.6368505134696
 20
-8.620496914209525
 97
0
 75
0
 76
1
 47
0.0121935949817836
 98
3
 10
103.9795473561325
 20
-9.154343089702365
 10
103.9795473561325
 20
-9.154343089702365
 10
107.0540498424307
 20
-9.325052954014723
450
0
451
0
460
0.0
461
0.0
452
1
462
1.0
453
2
463
0
 63
5
421
255
463
1
 63
7
421
16777215
470
LINEAR
  0
LWPOLYLINE
  5
FE
330
2F
100
AcDbEntity
  8
0
 62
7
370
0
 60
1
100
AcDbPolyline
 90
10
 70
1
 10
107.3225647991858
 20
-14.62049691420929
 10
107.3225647991858
 20
-9.991925485637921
 10
110.4082790849006
 20
-14.62049691420929
 10
111.2654219420428
 20
-14.62049691420929
 10
111.2654219420428
 20
-8.620496914209525
 10
110.4082790849006
 20
-8.620496914209525
 10
110.4082790849006
 20
-13.24906834278113
 10
107.4939933706128
 20
-8.620496914209525
 10
106.6368505134696
 20
-8.620496914209525
 10
106.6368505134696
 20
-14.62049691420929
  0
CIRCLE
  5
FF
330
2F
100
AcDbEntity
  8
0
 62
7
 60
1
100
AcDbCircle
 10
102.6368505134714
 20
-11.62049691420952
 30
0.0
 40
3.0
  0
CIRCLE
  5
100
330
2F
100
AcDbEntity
  8
0
 62
7
 60
1
100
AcDbCircle
 10
102.6368505134714
 20
-11.62049691420952
 30
0.0
 40
2.299999999999998
  0
TEXT
  5
101
330
2F
100
AcDbEntity
  8
Defpoints
 62
254
 60
1
100
AcDbText
 10
164.5151898271197
 20
1.024338489252045
 30
0.0
 40
2.0
  1
ABN800c
  7
WD_IEC
 41
0.75
 11
164.5151898271197
 21
2.024338489252045
 31
0.0
100
AcDbText
 73
2
  0
TEXT
  5
102
330
2F
100
AcDbEntity
  8
Defpoints
 62
254
 60
1
100
AcDbText
 10
164.5151898271197
 20
-2.213756748843138
 30
0.0
 40
2.0
  1
ABS800c
  7
WD_IEC
 41
0.75
 11
164.5151898271197
 21
-1.213756748843138
 31
0.0
100
AcDbText
 73
2
  0
TEXT
  5
103
330
2F
100
AcDbEntity
  8
Defpoints
 62
254
 60
1
100
AcDbText
 10
164.5151898271197
 20
-5.451851986938322
 30
0.0
 40
2.0
  1
ABL800c
  7
WD_IEC
 41
0.75
 11
164.5151898271197
 21
-4.451851986938322
 31
0.0
100
AcDbText
 73
2
  0
LWPOLYLINE
  5
104
330
2F
100
AcDbEntity
  8
0
 60
1
100
AcDbPolyline
 90
4
 70
0
 10
127.0
 20
139.9999999999997
 10
127.0
 20
117.9999999999996
 10
83.0
 20
117.9999999999996
 10
83.0
 20
139.9999999999997
  0
LWPOLYLINE
  5
105
330
2F
100
AcDbEntity
  8
0
 62
1
 60
1
100
AcDbPolyline
 90
6
 70
1
 10
153.0
 20
139.9999999999997
 10
197.0
 20
139.9999999999997
 10
197.0
 20
121.4999999999996
 10
194.0
 20
118.4999999999998
 10
156.0
 20
118.4999999999998
 10
153.0
 20
121.4999999999996
  0
LWPOLYLINE
  5
106
330
2F
100
AcDbEntity
  8
0
 60
1
100
AcDbPolyline
 90
4
 70
0
 10
197.0
 20
139.9999999999997
 10
197.0
 20
117.9999999999996
 10
153.0
 20
117.9999999999996
 10
153.0
 20
139.9999999999997
  0
CIRCLE
  5
107
330
2F
100
AcDbEntity
  8
0
 62
1
 60
1
100
AcDbCircle
 10
175.0
 20
128.9999999999995
 30
0.0
 40
7.0
  0
LWPOLYLINE
  5
108
330
2F
100
AcDbEntity
  8
0
 62
1
 60
1
100
AcDbPolyline
 90
6
 70
1
 10
13.0
 20
139.9999999999997
 10
57.0
 20
139.9999999999997
 10
57.0
 20
121.4999999999996
 10
54.0
 20
118.4999999999998
 10
16.0
 20
118.4999999999998
 10
13.0
 20
121.4999999999996
  0
LWPOLYLINE
  5
109
330
2F
100
AcDbEntity
  8
0
 60
1
100
AcDbPolyline
 90
4
 70
0
 10
57.0
 20
139.9999999999997
 10
57.0
 20
117.9999999999996
 10
13.0
 20
117.9999999999996
 10
13.0
 20
139.9999999999997
  0
CIRCLE
  5
10A
330
2F
100
AcDbEntity
  8
0
 62
1
 60
1
100
AcDbCircle
 10
35.0
 20
128.9999999999995
 30
0.0
 40
7.0
  0
CIRCLE
  5
10B
330
2F
100
AcDbEntity
  8
hw_Continuous
 60
1
100
AcDbCircle
 10
140.0
 20
121.4999999999996
 30
0.0
 40
3.0
  0
CIRCLE
  5
10C
330
2F
100
AcDbEntity
  8
hw_Continuous
 60
1
100
AcDbCircle
 10
70.0
 20
121.4999999999996
 30
0.0
 40
3.0
  0
TEXT
  5
10D
330
2F
100
AcDbEntity
  8
hw_Text
 60
1
100
AcDbText
 10
184.1346357129176
 20
90.4242046626183
 30
0.0
 40
5.0
  1
LINE
  7
hw_Standard
 41
0.9
 72
2
 11
198.7060642843462
 21
92.9242046626183
 31
0.0
100
AcDbText
 73
2
  0
TEXT
  5
10E
330
2F
100
AcDbEntity
  8
hw_Text
 60
1
100
AcDbText
 10
12.55005617304232
 20
-101.1369644164139
 30
0.0
 40
5.0
  1
LOAD
  7
hw_Standard
 41
0.9
 11
12.55005617304232
 21
-98.63696441641389
 31
0.0
100
AcDbText
 73
2
  0
LWPOLYLINE
  5
10F
330
2F
100
AcDbEntity
  8
0
 60
1
100
AcDbPolyline
 90
4
 70
1
 10
0.0
 20
-47.99999999999989
 10
209.9999999999991
 20
-47.99999999999989
 10
209.9999999999991
 20
47.99999999999989
 10
0.0
 20
47.99999999999989
  0
LWPOLYLINE
  5
110
330
2F
100
AcDbEntity
  8
0
 60
1
100
AcDbPolyline
 90
4
 70
1
 10
76.99999999999909
 20
-47.99999999999989
 10
133.0
 20
-47.99999999999989
 10
133.0
 20
47.99999999999989
 10
76.99999999999909
 20
47.99999999999989
  0
HATCH
  5
111
330
2F
100
AcDbEntity
  8
0
 62
1
 60
1
100
AcDbHatch
 10
0.0
 20
0.0
 30
0.0
210
0.0
220
0.0
230
1.0
  2
SOLID
 70
1
 71
0
 91
1
 92
7
 72
0
 73
1
 93
4
 10
80.99999999999818
 20
-4.000000000000113
 10
80.99999999999818
 20
-19.00000000000011
 10
128.9999999999982
 20
-19.00000000000011
 10
128.9999999999982
 20
-4.000000000000113
 97
0
 75
0
 76
1
 47
0.3083972622876851
 98
1
 10
102.5617474931187
 20
-10.56087639847612
450
0
451
0
460
0.0
461
0.0
452
1
462
1.0
453
2
463
0
 63
5
421
255
463
1
 63
7
421
16777215
470
LINEAR
  0
LWPOLYLINE
  5
112
330
2F
100
AcDbEntity
  8
0
 60
1
100
AcDbPolyline
 90
4
 70
1
 10
80.99999999999818
 20
-19.00000000000011
 10
128.9999999999982
 20
-19.00000000000011
 10
128.9999999999982
 20
40.99999999999988
 10
80.99999999999818
 20
40.99999999999988
  0
LWPOLYLINE
  5
113
330
2F
100
AcDbEntity
  8
0
 60
1
100
AcDbPolyline
 90
2
 70
0
 10
80.99999999999818
 20
-4.000000000000113
 10
128.9999999999982
 20
-4.000000000000113
  0
HATCH
  5
114
330
2F
100
AcDbEntity
  8
0
 62
7
 60
1
100
AcDbHatch
 10
0.0
 20
0.0
 30
0.0
210
0.0
220
0.0
230
1.0
  2
SOLID
 70
1
 71
0
 91
3
 92
7
 72
1
 73
1
 93
2
 10
105.6368505134687
 20
-11.62049691420907
 42
1.0
 10
99.63685051346965
 20
-11.62049691420907
 42
1.0
 97
0
 92
22
 72
1
 73
1
 93
2
 10
104.9368505134698
 20
-11.62049691420907
 42
-1.0
 10
100.3368505134676
 20
-11.62049691420907
 42
-1.0
 97
0
 92
7
 72
0
 73
1
 93
10
 10
106.6368505134696
 20
-14.62049691420929
 10
107.3225647991839
 20
-14.62049691420929
 10
107.3225647991839
 20
-9.991925485637694
 10
110.4082790848988
 20
-14.62049691420929
 10
111.265421942041
 20
-14.62049691420929
 10
111.265421942041
 20
-8.620496914209298
 10
110.4082790848988
 20
-8.620496914209298
 10
110.4082790848988
 20
-13.2490683427809
 10
107.4939933706128
 20
-8.620496914209298
 10
106.6368505134696
 20
-8.620496914209298
 97
0
 75
0
 76
1
 47
0.0121935949817836
 98
3
 10
103.9795473561298
 20
-9.15434308970191
 10
103.9795473561298
 20
-9.15434308970191
 10
107.0540498424307
 20
-9.325052954014266
450
0
451
0
460
0.0
461
0.0
452
1
462
1.0
453
2
463
0
 63
5
421
255
463
1
 63
7
421
16777215
470
LINEAR
  0
LWPOLYLINE
  5
115
330
2F
100
AcDbEntity
  8
0
 62
7
370
0
 60
1
100
AcDbPolyline
 90
10
 70
1
 10
107.3225647991839
 20
-14.62049691420929
 10
107.3225647991839
 20
-9.991925485637694
 10
110.4082790848988
 20
-14.62049691420929
 10
111.265421942041
 20
-14.62049691420929
 10
111.265421942041
 20
-8.620496914209298
 10
110.4082790848988
 20
-8.620496914209298
 10
110.4082790848988
 20
-13.2490683427809
 10
107.4939933706128
 20
-8.620496914209298
 10
106.6368505134696
 20
-8.620496914209298
 10
106.6368505134696
 20
-14.62049691420929
  0
CIRCLE
  5
116
330
2F
100
AcDbEntity
  8
0
 62
7
 60
1
100
AcDbCircle
 10
102.6368505134678
 20
-11.62049691420907
 30
0.0
 40
3.0
  0
CIRCLE
  5
117
330
2F
100
AcDbEntity
  8
0
 62
7
 60
1
100
AcDbCircle
 10
102.6368505134678
 20
-11.62049691420907
 30
0.0
 40
2.299999999999998
  0
TEXT
  5
118
330
2F
100
AcDbEntity
  8
Defpoints
 62
254
 60
1
100
AcDbText
 10
164.5151898271187
 20
1.024338489252272
 30
0.0
 40
2.0
  1
ABN800c
  7
WD_IEC
 41
0.75
 11
164.5151898271187
 21
2.024338489252272
 31
0.0
100
AcDbText
 73
2
  0
TEXT
  5
119
330
2F
100
AcDbEntity
  8
Defpoints
 62
254
 60
1
100
AcDbText
 10
164.5151898271187
 20
-2.213756748842911
 30
0.0
 40
2.0
  1
ABS800c
  7
WD_IEC
 41
0.75
 11
164.5151898271187
 21
-1.213756748842911
 31
0.0
100
AcDbText
 73
2
  0
TEXT
  5
11A
330
2F
100
AcDbEntity
  8
Defpoints
 62
254
 60
1
100
AcDbText
 10
164.5151898271187
 20
-5.451851986938095
 30
0.0
 40
2.0
  1
ABL800c
  7
WD_IEC
 41
0.75
 11
164.5151898271187
 21
-4.451851986938095
 31
0.0
100
AcDbText
 73
2
  0
LWPOLYLINE
  5
11B
330
2F
100
AcDbEntity
  8
0
 60
1
100
AcDbPolyline
 90
4
 70
1
 10
0.0
 20
-48.00000000000046
 10
279.9999999999982
 20
-48.00000000000046
 10
279.9999999999982
 20
48.00000000000046
 10
0.0
 20
48.00000000000046
  0
LWPOLYLINE
  5
11C
330
2F
100
AcDbEntity
  8
0
 60
1
100
AcDbPolyline
 90
4
 70
1
 10
76.99999999999909
 20
-48.00000000000046
 10
133.0
 20
-48.00000000000046
 10
133.0
 20
48.00000000000046
 10
76.99999999999909
 20
48.00000000000046
  0
HATCH
  5
11D
330
2F
100
AcDbEntity
  8
0
 62
1
 60
1
100
AcDbHatch
 10
0.0
 20
0.0
 30
0.0
210
0.0
220
0.0
230
1.0
  2
SOLID
 70
1
 71
0
 91
1
 92
7
 72
0
 73
1
 93
4
 10
80.99999999999818
 20
-4.000000000000454
 10
80.99999999999818
 20
-18.99999999999954
 10
128.9999999999982
 20
-18.99999999999954
 10
128.9999999999982
 20
-4.000000000000454
 97
0
 75
0
 76
1
 47
0.3083972622876851
 98
1
 10
102.5617474931187
 20
-10.56087639847556
450
0
451
0
460
0.0
461
0.0
452
1
462
1.0
453
2
463
0
 63
5
421
255
463
1
 63
7
421
16777215
470
LINEAR
  0
LWPOLYLINE
  5
11E
330
2F
100
AcDbEntity
  8
0
 60
1
100
AcDbPolyline
 90
4
 70
1
 10
80.99999999999818
 20
-18.99999999999954
 10
128.9999999999982
 20
-18.99999999999954
 10
128.9999999999982
 20
40.99999999999954
 10
80.99999999999818
 20
40.99999999999954
  0
LWPOLYLINE
  5
11F
330
2F
100
AcDbEntity
  8
0
 60
1
100
AcDbPolyline
 90
2
 70
0
 10
80.99999999999818
 20
-4.000000000000454
 10
128.9999999999982
 20
-4.000000000000454
  0
HATCH
  5
120
330
2F
100
AcDbEntity
  8
0
 62
7
 60
1
100
AcDbHatch
 10
0.0
 20
0.0
 30
0.0
210
0.0
220
0.0
230
1.0
  2
SOLID
 70
1
 71
0
 91
3
 92
7
 72
1
 73
1
 93
2
 10
105.6368505134687
 20
-11.62049691420952
 42
1.0
 10
99.63685051346965
 20
-11.62049691420952
 42
1.0
 97
0
 92
22
 72
1
 73
1
 93
2
 10
104.9368505134698
 20
-11.62049691420952
 42
-1.0
 10
100.3368505134676
 20
-11.62049691420952
 42
-1.0
 97
0
 92
7
 72
0
 73
1
 93
10
 10
106.6368505134696
 20
-14.62049691420861
 10
107.3225647991839
 20
-14.62049691420861
 10
107.3225647991839
 20
-9.991925485637466
 10
110.4082790848988
 20
-14.62049691420861
 10
111.265421942041
 20
-14.62049691420861
 10
111.265421942041
 20
-8.620496914208616
 10
110.4082790848988
 20
-8.620496914208616
 10
110.4082790848988
 20
-13.24906834278045
 10
107.4939933706128
 20
-8.620496914208616
 10
106.6368505134696
 20
-8.620496914208616
 97
0
 75
0
 76
1
 47
0.0121935949817836
 98
3
 10
103.9795473561298
 20
-9.15434308970157
 10
103.9795473561298
 20
-9.15434308970157
 10
107.0540498424307
 20
-9.325052954014607
450
0
451
0
460
0.0
461
0.0
452
1
462
1.0
453
2
463
0
 63
5
421
255
463
1
 63
7
421
16777215
470
LINEAR
  0
LWPOLYLINE
  5
121
330
2F
100
AcDbEntity
  8
0
 62
7
370
0
 60
1
100
AcDbPolyline
 90
10
 70
1
 10
107.3225647991839
 20
-14.62049691420861
 10
107.3225647991839
 20
-9.991925485637466
 10
110.4082790848988
 20
-14.62049691420861
 10
111.265421942041
 20
-14.62049691420861
 10
111.265421942041
 20
-8.620496914208616
 10
110.4082790848988
 20
-8.620496914208616
 10
110.4082790848988
 20
-13.24906834278045
 10
107.4939933706128
 20
-8.620496914208616
 10
106.6368505134696
 20
-8.620496914208616
 10
106.6368505134696
 20
-14.62049691420861
  0
CIRCLE
  5
122
330
2F
100
AcDbEntity
  8
0
 62
7
 60
1
100
AcDbCircle
 10
102.6368505134678
 20
-11.62049691420952
 30
0.0
 40
3.0
  0
CIRCLE
  5
123
330
2F
100
AcDbEntity
  8
0
 62
7
 60
1
100
AcDbCircle
 10
102.6368505134678
 20
-11.62049691420952
 30
0.0
 40
2.299999999999998
  0
TEXT
  5
124
330
2F
100
AcDbEntity
  8
Defpoints
 62
254
 60
1
100
AcDbText
 10
164.5151898271187
 20
1.024338489252386
 30
0.0
 40
2.0
  1
ABN800c
  7
WD_IEC
 41
0.75
 11
164.5151898271187
 21
2.024338489252386
 31
0.0
100
AcDbText
 73
2
  0
TEXT
  5
125
330
2F
100
AcDbEntity
  8
Defpoints
 62
254
 60
1
100
AcDbText
 10
164.5151898271187
 20
-2.21375674884257
 30
0.0
 40
2.0
  1
ABS800c
  7
WD_IEC
 41
0.75
 11
164.5151898271187
 21
-1.21375674884257
 31
0.0
100
AcDbText
 73
2
  0
TEXT
  5
126
330
2F
100
AcDbEntity
  8
Defpoints
 62
254
 60
1
100
AcDbText
 10
164.5151898271187
 20
-5.451851986937526
 30
0.0
 40
2.0
  1
ABL800c
  7
WD_IEC
 41
0.75
 11
164.5151898271187
 21
-4.451851986937526
 31
0.0
100
AcDbText
 73
2
  0
LWPOLYLINE
  5
127
330
2F
100
AcDbEntity
  8
hw_Center
 62
0
 48
5.0
 60
1
100
AcDbPolyline
 90
2
 70
0
 10
209.9999999999991
 20
48.00000000000046
 10
209.9999999999991
 20
-48.00000000000046
  0
TEXT
  5
128
330
2F
100
AcDbEntity
  8
hw_Text
 62
254
 48
2.0
 60
1
100
AcDbText
 10
240.1405652253523
 20
-9.339758243813549
 30
0.0
 40
10.0
  1
N
  7
hw_Standard
 41
0.9
 72
1
 11
244.2119937967809
 21
-4.339758243813548
 31
0.0
100
AcDbText
 73
2
  0
LWPOLYLINE
  5
129
330
2F
100
AcDbEntity
  8
0
 60
1
100
AcDbPolyline
 90
2
 70
0
 10
79.99999999999818
 20
-141.0000000000001
 10
129.9999999999991
 20
-141.0000000000001
  0
LWPOLYLINE
  5
12A
330
2F
100
AcDbEntity
  8
0
 60
1
100
AcDbPolyline
 90
2
 70
0
 10
79.99999999999818
 20
-141.0000000000001
 10
129.9999999999991
 20
-141.0000000000001
  0
TEXT
  5
12B
330
2F
100
AcDbEntity
  8
hw_Text
 62
254
 60
1
100
AcDbText
 10
240.9285714285714
 20
-74.75000000000006
 30
0.0
 40
10.0
  1
N
  7
hw_Standard
 41
0.9
 72
1
 11
245.0
 21
-69.75000000000006
 31
0.0
100
AcDbText
 73
2
  0
HATCH
  5
12C
330
2F
100
AcDbEntity
  8
0
 62
1
 60
1
100
AcDbHatch
 10
0.0
 20
0.0
 30
0.0
210
0.0
220
0.0
230
1.0
  2
SOLID
 70
1
 71
0
 91
1
 92
7
 72
0
 73
1
 93
4
 10
141.9999999999991
 20
-38.99999999999989
 10
136.9999999999991
 20
-38.99999999999989
 10
136.9999999999991
 20
-43.99999999999988
 10
141.9999999999991
 20
-43.99999999999988
 97
0
 75
0
 76
1
 47
0.1585650213740548
 98
1
 10
141.1271762039941
 20
-40.3530008803109
450
0
451
0
460
0.0
461
0.0
452
1
462
1.0
453
2
463
0
 63
5
421
255
463
1
 63
7
421
16777215
470
LINEAR
  0
LWPOLYLINE
  5
12D
330
2F
100
AcDbEntity
  8
0
 60
1
100
AcDbPolyline
 90
4
 70
1
 10
136.9999999999991
 20
-43.99999999999988
 10
141.9999999999991
 20
-43.99999999999988
 10
141.9999999999991
 20
-38.99999999999989
 10
136.9999999999991
 20
-38.99999999999989
  0
TEXT
  5
12E
330
2F
100
AcDbEntity
  8
hw_Text
 60
1
100
AcDbText
 10
144.8940343988506
 20
-42.99999999999989
 30
0.0
 40
3.0
  1
Trip
  7
hw_Standard
 41
0.9
 11
144.8940343988506
 21
-41.49999999999988
 31
0.0
100
AcDbText
 73
2
  0
HATCH
  5
12F
330
2F
100
AcDbEntity
  8
0
 62
1
 60
1
100
AcDbHatch
 10
0.0
 20
0.0
 30
0.0
210
0.0
220
0.0
230
1.0
  2
SOLID
 70
1
 71
0
 91
1
 92
7
 72
0
 73
1
 93
4
 10
141.9999999999991
 20
-39.00000000000046
 10
136.9999999999991
 20
-39.00000000000046
 10
136.9999999999991
 20
-44.00000000000045
 10
141.9999999999991
 20
-44.00000000000045
 97
0
 75
0
 76
1
 47
0.1585650213740548
 98
1
 10
141.1271762039941
 20
-40.35300088031045
450
0
451
0
460
0.0
461
0.0
452
1
462
1.0
453
2
463
0
 63
5
421
255
463
1
 63
7
421
16777215
470
LINEAR
  0
LWPOLYLINE
  5
130
330
2F
100
AcDbEntity
  8
0
 60
1
100
AcDbPolyline
 90
4
 70
1
 10
136.9999999999991
 20
-44.00000000000045
 10
141.9999999999991
 20
-44.00000000000045
 10
141.9999999999991
 20
-39.00000000000046
 10
136.9999999999991
 20
-39.00000000000046
  0
TEXT
  5
131
330
2F
100
AcDbEntity
  8
hw_Text
 60
1
100
AcDbText
 10
144.8940343988506
 20
-43.00000000000046
 30
0.0
 40
3.0
  1
Trip
  7
hw_Standard
 41
0.9
 11
144.8940343988506
 21
-41.50000000000045
 31
0.0
100
AcDbText
 73
2
  0
HATCH
  5
132
330
2F
100
AcDbEntity
  8
0
 62
1
 60
1
100
AcDbHatch
 10
0.0
 20
0.0
 30
0.0
210
0.0
220
0.0
230
1.0
  2
SOLID
 70
1
 71
0
 91
1
 92
7
 72
0
 73
1
 93
4
 10
141.9999999999991
 20
-39.00000000000006
 10
136.9999999999991
 20
-39.00000000000006
 10
136.9999999999991
 20
-44.00000000000005
 10
141.9999999999991
 20
-44.00000000000005
 97
0
 75
0
 76
1
 47
0.1585650213740548
 98
1
 10
141.1271762039941
 20
-40.35300088031084
450
0
451
0
460
0.0
461
0.0
452
1
462
1.0
453
2
463
0
 63
5
421
255
463
1
 63
7
421
16777215
470
LINEAR
  0
LWPOLYLINE
  5
133
330
2F
100
AcDbEntity
  8
0
 60
1
100
AcDbPolyline
 90
4
 70
1
 10
136.9999999999991
 20
-44.00000000000005
 10
141.9999999999991
 20
-44.00000000000005
 10
141.9999999999991
 20
-39.00000000000006
 10
136.9999999999991
 20
-39.00000000000006
  0
TEXT
  5
134
330
2F
100
AcDbEntity
  8
hw_Text
 60
1
100
AcDbText
 10
144.8940343988506
 20
-43.00000000000006
 30
0.0
 40
3.0
  1
Trip
  7
hw_Standard
 41
0.9
 11
144.8940343988506
 21
-41.50000000000005
 31
0.0
100
AcDbText
 73
2
  0
HATCH
  5
135
330
2F
100
AcDbEntity
  8
0
 62
1
 60
1
100
AcDbHatch
 10
0.0
 20
0.0
 30
0.0
210
0.0
220
0.0
230
1.0
  2
SOLID
 70
1
 71
0
 91
1
 92
7
 72
0
 73
1
 93
4
 10
142.0
 20
-39.0
 10
137.0
 20
-39.0
 10
137.0
 20
-44.0
 10
142.0
 20
-44.0
 97
0
 75
0
 76
1
 47
0.1585650213740548
 98
1
 10
141.127176203996
 20
-40.35300088031078
450
0
451
0
460
0.0
461
0.0
452
1
462
1.0
453
2
463
0
 63
5
421
255
463
1
 63
7
421
16777215
470
LINEAR
  0
LWPOLYLINE
  5
136
330
2F
100
AcDbEntity
  8
0
 60
1
100
AcDbPolyline
 90
4
 70
1
 10
137.0
 20
-44.0
 10
142.0
 20
-44.0
 10
142.0
 20
-39.0
 10
137.0
 20
-39.0
  0
TEXT
  5
137
330
2F
100
AcDbEntity
  8
hw_Text
 60
1
100
AcDbText
 10
144.8940343988506
 20
-43.0
 30
0.0
 40
3.0
  1
Trip
  7
hw_Standard
 41
0.9
 11
144.8940343988506
 21
-41.5
 31
0.0
100
AcDbText
 73
2
  0
HATCH
  5
138
330
2F
100
AcDbEntity
  8
0
 62
1
 60
1
100
AcDbHatch
 10
0.0
 20
0.0
 30
0.0
210
0.0
220
0.0
230
1.0
  2
SOLID
 70
1
 71
0
 91
1
 92
7
 72
0
 73
1
 93
4
 10
142.0
 20
-38.99999999999989
 10
137.0
 20
-38.99999999999989
 10
137.0
 20
-43.99999999999988
 10
142.0
 20
-43.99999999999988
 97
0
 75
0
 76
1
 47
0.1585650213740548
 98
1
 10
141.127176203996
 20
-40.3530008803109
450
0
451
0
460
0.0
461
0.0
452
1
462
1.0
453
2
463
0
 63
5
421
255
463
1
 63
7
421
16777215
470
LINEAR
  0
LWPOLYLINE
  5
139
330
2F
100
AcDbEntity
  8
0
 60
1
100
AcDbPolyline
 90
4
 70
1
 10
137.0
 20
-43.99999999999988
 10
142.0
 20
-43.99999999999988
 10
142.0
 20
-38.99999999999989
 10
137.0
 20
-38.99999999999989
  0
TEXT
  5
13A
330
2F
100
AcDbEntity
  8
hw_Text
 60
1
100
AcDbText
 10
144.8940343988506
 20
-42.99999999999989
 30
0.0
 40
3.0
  1
Trip
  7
hw_Standard
 41
0.9
 11
144.8940343988506
 21
-41.49999999999988
 31
0.0
100
AcDbText
 73
2
  0
TEXT
  5
13B
330
2F
100
AcDbEntity
  8
hw_Text
 60
1
100
AcDbText
 10
173.5563307750653
 20
90.34330479737127
 30
0.0
 40
8.0
  1
LINE
  7
hw_Standard
 41
0.9
 72
2
 11
196.870616489351
 21
94.34330479737127
 31
0.0
100
AcDbText
 73
2
  0
TEXT
  5
13C
330
2F
100
AcDbEntity
  8
hw_Text
 60
1
100
AcDbText
 10
243.8032666863237
 20
91.05917320488051
 30
0.0
 40
8.0
  1
LINE
  7
hw_Standard
 41
0.9
 72
2
 11
267.1175524006094
 21
95.05917320488052
 31
0.0
100
AcDbText
 73
2
  0
LWPOLYLINE
  5
13D
330
2F
100
AcDbEntity
  8
0
 60
1
100
AcDbPolyline
 90
4
 70
1
 10
80.0
 20
-145.0000000000001
 10
130.0
 20
-145.0000000000001
 10
130.0
 20
-116.0000000000001
 10
80.0
 20
-116.0000000000001
  0
ATTDEF
  5
13E
330
2F
100
AcDbEntity
  8
hw_Text
 60
1
100
AcDbText
 10
89.57142857142857
 20
-65.49999999999989
 30
0.0
 40
8.0
  1
ABN...
  7
hw_Standard
 41
0.9
 72
1
 11
105.0
 21
-61.49999999999988
 31
0.0
100
AcDbAttributeDefinition
  3
Input type:
  2
TYPE34
 70
8
 74
2
280
1
 71
1
 72
0
 11
105.0
 21
-61.49999999999988
 31
0.0
  0
ATTDEF
  5
13F
330
2F
100
AcDbEntity
  8
hw_Text
 60
1
100
AcDbText
 10
98.45022550412727
 20
56.31438644881052
 30
0.0
 40
8.0
  1
LS
  7
hw_Standard
 41
0.9
 72
1
 11
103.9359397898415
 21
60.31438644881053
 31
0.0
100
AcDbAttributeDefinition
  3
Input brand:
  2
BRAND34
 70
10
 74
2
280
1
 71
1
 72
0
 11
103.9359397898415
 21
60.31438644881053
 31
0.0
  0
ATTDEF
  5
140
330
2F
100
AcDbEntity
  8
hw_Text
 60
1
100
AcDbText
 10
89.57142857142766
 20
-65.50000000000017
 30
0.0
 40
8.0
  1
ABN...
  7
hw_Standard
 41
0.9
 72
1
 11
104.9999999999991
 21
-61.50000000000017
 31
0.0
100
AcDbAttributeDefinition
  3
Input type:
  2
TYPE31
 70
8
 74
2
280
1
 71
1
 72
0
 11
104.9999999999991
 21
-61.50000000000017
 31
0.0
  0
ATTDEF
  5
141
330
2F
100
AcDbEntity
  8
hw_Text
 60
1
100
AcDbText
 10
89.57142857142857
 20
-65.50000000000011
 30
0.0
 40
8.0
  1
ABN...
  7
hw_Standard
 41
0.9
 72
1
 11
105.0
 21
-61.50000000000011
 31
0.0
100
AcDbAttributeDefinition
  3
Input type:
  2
TYPE33
 70
8
 74
2
280
1
 71
1
 72
0
 11
105.0
 21
-61.50000000000011
 31
0.0
  0
ATTDEF
  5
142
330
2F
100
AcDbEntity
  8
hw_Text
 60
1
100
AcDbText
 10
98.45022550412908
 20
56.31438644881078
 30
0.0
 40
8.0
  1
LS
  7
hw_Standard
 41
0.9
 72
1
 11
103.9359397898433
 21
60.31438644881077
 31
0.0
100
AcDbAttributeDefinition
  3
Input brand:
  2
BRAND33
 70
10
 74
2
280
1
 71
1
 72
0
 11
103.9359397898433
 21
60.31438644881077
 31
0.0
  0
ATTDEF
  5
143
330
2F
100
AcDbEntity
  8
hw_Text
100
AcDbText
 10
45.11559389189264
 20
-8.228465921688326
 30
0.0
 40
6.0
  1
ABN...
  7
hw_Standard
 41
0.9
 72
1
 11
56.68702246332123
 21
-5.228465921688325
 31
0.0
100
AcDbAttributeDefinition
  3
Input type
  2
TYPE32
 70
8
 74
2
280
1
 71
1
 72
0
 11
56.68702246332123
 21
-5.228465921688325
 31
0.0
  0
ATTDEF
  5
144
330
2F
100
AcDbEntity
  8
hw_Text
100
AcDbText
 10
52.57273674903551
 20
1.771534078311674
 30
0.0
 40
6.0
  1
LS
  7
hw_Standard
 41
0.9
 72
1
 11
56.68702246332123
 21
4.771534078311674
 31
0.0
100
AcDbAttributeDefinition
  3
Input brand:
  2
BRAND32
 70
10
 74
2
280
1
 71
1
 72
0
 11
56.68702246332123
 21
4.771534078311674
 31
0.0
  0
ATTDEF
  5
145
330
2F
100
AcDbEntity
  8
hw_Text
 60
1
100
AcDbText
 10
98.45022550412727
 20
56.31438644881072
 30
0.0
 40
8.0
  1
LS
  7
hw_Standard
 41
0.9
 72
1
 11
103.9359397898415
 21
60.31438644881072
 31
0.0
100
AcDbAttributeDefinition
  3
Input brand:
  2
BRAND31
 70
10
 74
2
280
1
 71
1
 72
0
 11
103.9359397898415
 21
60.31438644881072
 31
0.0
  0
LINE
  5
146
330
2F
100
AcDbEntity
  8
0
 60
1
100
AcDbLine
 10
80.0
 20
-141.0000000000001
 30
0.0
 11
130.0
 21
-141.0000000000001
 31
0.0
  0
ENDBLK
  5
31
330
2F
100
AcDbEntity
  8
0
100
AcDbBlockEnd
  0
ENDSEC
  0
SECTION
  2
ENTITIES
  0
INSERT
  5
14D
330
17
100
AcDbEntity
  8
0
100
AcDbBlockReference
  2
hwLS MCCB_Frame 800A_Metasol
 10
36.0
 20
145.0000000000002
 30
0.0
  0
ENDSEC
  0
SECTION
  2
OBJECTS
  0
DICTIONARY
  5
A
330
0
100
AcDbDictionary
281
1
  3
ACAD_COLOR
350
B
  3
ACAD_GROUP
350
C
  3
ACAD_LAYOUT
350
D
  3
ACAD_MATERIAL
350
E
  3
ACAD_MLEADERSTYLE
350
F
  3
ACAD_MLINESTYLE
350
10
  3
ACAD_PLOTSETTINGS
350
11
  3
ACAD_PLOTSTYLENAME
350
12
  3
ACAD_SCALELIST
350
14
  3
ACAD_TABLESTYLE
350
15
  3
ACAD_VISUALSTYLE
350
16
  3
EZDXF_META
350
2D
  0
DICTIONARY
  5
B
330
A
100
AcDbDictionary
281
1
  0
DICTIONARY
  5
C
330
A
100
AcDbDictionary
281
1
  0
DICTIONARY
  5
D
330
A
100
AcDbDictionary
281
1
  3
Model
350
1A
  3
Layout1
350
1E
  0
DICTIONARY
  5
E
330
A
100
AcDbDictionary
281
1
  3
ByBlock
350
1F
  3
ByLayer
350
20
  3
Global
350
21
  0
DICTIONARY
  5
F
330
A
100
AcDbDictionary
281
1
  3
Standard
350
2C
  0
DICTIONARY
  5
10
330
A
100
AcDbDictionary
281
1
  3
Standard
350
22
  0
DICTIONARY
  5
11
330
A
100
AcDbDictionary
281
1
  0
ACDBDICTIONARYWDFLT
  5
12
330
A
100
AcDbDictionary
281
1
  3
Normal
350
13
100
AcDbDictionaryWithDefault
340
13
  0
ACDBPLACEHOLDER
  5
13
330
12
  0
DICTIONARY
  5
14
330
A
100
AcDbDictionary
281
1
  0
DICTIONARY
  5
15
330
A
100
AcDbDictionary
281
1
  0
DICTIONARY
  5
16
330
A
100
AcDbDictionary
281
1
  0
LAYOUT
  5
1A
330
D
100
AcDbPlotSettings
  1

  4
A3
  6

 40
7.5
 41
20.0
 42
7.5
 43
20.0
 44
420.0
 45
297.0
 46
0.0
 47
0.0
 48
0.0
 49
0.0
140
0.0
141
0.0
142
1.0
143
1.0
 70
1024
 72
1
 73
0
 74
5
  7

 75
16
 76
0
 77
2
 78
300
147
1.0
148
0.0
149
0.0
100
AcDbLayout
  1
Model
 70
1
 71
0
 10
0.0
 20
0.0
 11
420.0
 21
297.0
 12
0.0
 22
0.0
 32
0.0
 14
1e+20
 24
1e+20
 34
1e+20
 15
-1e+20
 25
-1e+20
 35
-1e+20
146
0.0
 13
0.0
 23
0.0
 33
0.0
 16
1.0
 26
0.0
 36
0.0
 17
0.0
 27
1.0
 37
0.0
 76
1
330
17
  0
LAYOUT
  5
1E
330
D
100
AcDbPlotSettings
  1

  4
A3
  6

 40
7.5
 41
20.0
 42
7.5
 43
20.0
 44
420.0
 45
297.0
 46
0.0
 47
0.0
 48
0.0
 49
0.0
140
0.0
141
0.0
142
1.0
143
1.0
 70
0
 72
1
 73
0
 74
5
  7

 75
16
 76
0
 77
2
 78
300
147
1.0
148
0.0
149
0.0
100
AcDbLayout
  1
Layout1
 70
1
 71
1
 10
0.0
 20
0.0
 11
420.0
 21
297.0
 12
0.0
 22
0.0
 32
0.0
 14
1e+20
 24
1e+20
 34
1e+20
 15
-1e+20
 25
-1e+20
 35
-1e+20
146
0.0
 13
0.0
 23
0.0
 33
0.0
 16
1.0
 26
0.0
 36
0.0
 17
0.0
 27
1.0
 37
0.0
 76
1
330
1B
  0
MATERIAL
  5
1F
102
{ACAD_REACTORS
330
E
102
}
330
E
100
AcDbMaterial
  1
ByBlock
  2

 70
0
 40
1.0
 71
1
 41
1.0
 91
-1023410177
 42
1.0
 72
1
  3

 73
1
 74
1
 75
1
 44
0.5
 73
0
 45
1.0
 46
1.0
 77
1
  4

 78
1
 79
1
170
1
 48
1.0
171
1
  6

172
1
173
1
174
1
140
1.0
141
1.0
175
1
  7

176
1
177
1
178
1
143
1.0
179
1
  8

270
1
271
1
272
1
145
1.0
146
1.0
273
1
  9

274
1
275
1
276
1
 42
1.0
 72
1
  3

 73
1
 74
1
 75
1
 94
63
  0
MATERIAL
  5
20
102
{ACAD_REACTORS
330
E
102
}
330
E
100
AcDbMaterial
  1
ByLayer
  2

 70
0
 40
1.0
 71
1
 41
1.0
 91
-1023410177
 42
1.0
 72
1
  3

 73
1
 74
1
 75
1
 44
0.5
 73
0
 45
1.0
 46
1.0
 77
1
  4

 78
1
 79
1
170
1
 48
1.0
171
1
  6

172
1
173
1
174
1
140
1.0
141
1.0
175
1
  7

176
1
177
1
178
1
143
1.0
179
1
  8

270
1
271
1
272
1
145
1.0
146
1.0
273
1
  9

274
1
275
1
276
1
 42
1.0
 72
1
  3

 73
1
 74
1
 75
1
 94
63
  0
MATERIAL
  5
21
102
{ACAD_REACTORS
330
E
102
}
330
E
100
AcDbMaterial
  1
Global
  2

 70
0
 40
1.0
 71
1
 41
1.0
 91
-1023410177
 42
1.0
 72
1
  3

 73
1
 74
1
 75
1
 44
0.5
 73
0
 45
1.0
 46
1.0
 77
1
  4

 78
1
 79
1
170
1
 48
1.0
171
1
  6

172
1
173
1
174
1
140
1.0
141
1.0
175
1
  7

176
1
177
1
178
1
143
1.0
179
1
  8

270
1
271
1
272
1
145
1.0
146
1.0
273
1
  9

274
1
275
1
276
1
 42
1.0
 72
1
  3

 73
1
 74
1
 75
1
 94
63
  0
MLINESTYLE
  5
22
102
{ACAD_REACTORS
330
10
102
}
330
10
100
AcDbMlineStyle
  2
Standard
 70
0
  3

 62
256
 51
90.0
 52
90.0
 71
2
 49
0.5
 62
256
  6
BYLAYER
 49
-0.5
 62
256
  6
BYLAYER
  0
MLEADERSTYLE
  5
2C
102
{ACAD_REACTORS
330
F
102
}
330
F
100
AcDbMLeaderStyle
179
2
170
2
171
1
172
0
 90
2
 40
0.0
 41
0.0
173
1
 91
-1056964608
 92
-2
290
1
 42
2.0
291
1
 43
8.0
  3
Standard
 44
4.0
300

342
29
174
1
175
1
176
0
178
1
 93
-1056964608
 45
4.0
292
0
297
0
 46
4.0
 94
-1056964608
 47
1.0
 49
1.0
140
1.0
294
1
141
0.0
177
0
142
1.0
295
0
296
0
143
3.75
271
0
272
9
273
9
  0
DICTIONARY
  5
2D
330
A
100
AcDbDictionary
280
1
281
1
  3
CREATED_BY_EZDXF
350
2E
  3
WRITTEN_BY_EZDXF
350
151
  0
DICTIONARYVAR
  5
2E
330
2D
100
DictionaryVariables
280
0
  1
1.4.4 @ 2026-09-23T06:03:36.479794+00:00
  0
DICTIONARYVAR
  5
151
330
2D
100
DictionaryVariables
280
0
  1
1.4.4 @ 2026-09-23T06:03:36.587730+00:00
  0
ENDSEC
  0
EOF
