  0
SECTION
  2
HEADER
  9
$ACADVER
  1
AC1032
  9
$ACADMAINTVER
 90
4
  9
$DWGCODEPAGE
  3
ANSI_1252
  9
$LASTSAVEDBY
  1
ezdxf
  9
$REQUIREDVERSIONS
160
0
  9
$INSBASE
 10
0.0
 20
0.0
 30
0.0
  9
$EXTMIN
 10
1e+20
 20
1e+20
 30
1e+20
  9
$EXTMAX
 10
-1e+20
 20
-1e+20
 30
-1e+20
  9
$LIMMIN
 10
0.0
 20
0.0
  9
$LIMMAX
 10
420.0
 20
297.0
  9
$ORTHOMODE
 70
0
  9
$REGENMODE
 70
1
  9
$FILLMODE
 70
1
  9
$QTEXTMODE
 70
0
  9
$MIRRTEXT
 70
1
  9
$LTSCALE
 40
1.0
  9
$ATTMODE
 70
1
  9
$TEXTSIZE
 40
2.5
  9
$TRACEWID
 40
1.0
  9
$TEXTSTYLE
  7
Standard
  9
$CLAYER
  8
0
  9
$CELTYPE
  6
ByLayer
  9
$CECOLOR
 62
256
  9
$CELTSCALE
 40
1.0
  9
$DISPSILH
 70
0
  9
$DIMSCALE
 40
1.0
  9
$DIMASZ
 40
2.5
  9
$DIMEXO
 40
0.625
  9
$DIMDLI
 40
3.75
  9
$DIMRND
 40
0.0
  9
$DIMDLE
 40
0.0
  9
$DIMEXE
 40
1.25
  9
$DIMTP
 40
0.0
  9
$DIMTM
 40
0.0
  9
$DIMTXT
 40
2.5
  9
$DIMCEN
 40
2.5
  9
$DIMTSZ
 40
0.0
  9
$DIMTOL
 70
0
  9
$DIMLIM
 70
0
  9
$DIMTIH
 70
0
  9
$DIMTOH
 70
0
  9
$DIMSE1
 70
0
  9
$DIMSE2
 70
0
  9
$DIMTAD
 70
1
  9
$DIMZIN
 70
8
  9
$DIMBLK
  1

  9
$DIMASO
 70
1
  9
$DIMSHO
 70
1
  9
$DIMPOST
  1

  9
$DIMAPOST
  1

  9
$DIMALT
 70
0
  9
$DIMALTD
 70
3
  9
$DIMALTF
 40
0.03937007874
  9
$DIMLFAC
 40
1.0
  9
$DIMTOFL
 70
1
  9
$DIMTVP
 40
0.0
  9
$DIMTIX
 70
0
  9
$DIMSOXD
 70
0
  9
$DIMSAH
 70
0
  9
$DIMBLK1
  1

  9
$DIMBLK2
  1

  9
$DIMSTYLE
  2
ISO-25
  9
$DIMCLRD
 70
0
  9
$DIMCLRE
 70
0
  9
$DIMCLRT
 70
0
  9
$DIMTFAC
 40
1.0
  9
$DIMGAP
 40
0.625
  9
$DIMJUST
 70
0
  9
$DIMSD1
 70
0
  9
$DIMSD2
 70
0
  9
$DIMTOLJ
 70
0
  9
$DIMTZIN
 70
8
  9
$DIMALTZ
 70
0
  9
$DIMALTTZ
 70
0
  9
$DIMUPT
 70
0
  9
$DIMDEC
 70
2
  9
$DIMTDEC
 70
2
  9
$DIMALTU
 70
2
  9
$DIMALTTD
 70
3
  9
$DIMTXSTY
  7
Standard
  9
$DIMAUNIT
 70
0
  9
$DIMADEC
 70
0
  9
$DIMALTRND
 40
0.0
  9
$DIMAZIN
 70
0
  9
$DIMDSEP
 70
44
  9
$DIMATFIT
 70
3
  9
$DIMFRAC
 70
0
  9
$DIMLDRBLK
  1

  9
$DIMLUNIT
 70
2
  9
$DIMLWD
 70
-2
  9
$DIMLWE
 70
-2
  9
$DIMTMOVE
 70
0
  9
$DIMFXL
 40
1.0
  9
$DIMFXLON
 70
0
  9
$DIMJOGANG
 40
0.785398163397
  9
$DIMTFILL
 70
0
  9
$DIMTFILLCLR
 70
0
  9
$DIMARCSYM
 70
0
  9
$DIMLTYPE
  6

  9
$DIMLTEX1
  6

  9
$DIMLTEX2
  6

  9
$DIMTXTDIRECTION
 70
0
  9
$LUNITS
 70
2
  9
$LUPREC
 70
4
  9
$SKETCHINC
 40
1.0
  9
$FILLETRAD
 40
10.0
  9
$AUNITS
 70
0
  9
$AUPREC
 70
2
  9
$MENU
  1
.
  9
$ELEVATION
 40
0.0
  9
$PELEVATION
 40
0.0
  9
$THICKNESS
 40
0.0
  9
$LIMCHECK
 70
0
  9
$CHAMFERA
 40
0.0
  9
$CHAMFERB
 40
0.0
  9
$CHAMFERC
 40
0.0
  9
$CHAMFERD
 40
0.0
  9
$SKPOLY
 70
0
  9
$TDCREATE
 40
2461307.877291667
  9
$TDUCREATE
 40
2458532.153996898
  9
$TDUPDATE
 40
2461307.877291667
  9
$TDUUPDATE
 40
2458532.1544311
  9
$TDINDWG
 40
0.0
  9
$TDUSRTIMER
 40
0.0
  9
$USRTIMER
 70
1
  9
$ANGBASE
 50
0.0
  9
$ANGDIR
 70
0
  9
$PDMODE
 70
0
  9
$PDSIZE
 40
0.0
  9
$PLINEWID
 40
0.0
  9
$SPLFRAME
 70
0
  9
$SPLINETYPE
 70
6
  9
$SPLINESEGS
 70
8
  9
$HANDSEED
  5
F7
  9
$SURFTAB1
 70
6
  9
$SURFTAB2
 70
6
  9
$SURFTYPE
 70
6
  9
$SURFU
 70
6
  9
$SURFV
 70
6
  9
$UCSBASE
  2

  9
$UCSNAME
  2

  9
$UCSORG
 10
0.0
 20
0.0
 30
0.0
  9
$UCSXDIR
 10
1.0
 20
0.0
 30
0.0
  9
$UCSYDIR
 10
0.0
 20
1.0
 30
0.0
  9
$UCSORTHOREF
  2

  9
$UCSORTHOVIEW
 70
0
  9
$UCSORGTOP
 10
0.0
 20
0.0
 30
0.0
  9
$UCSORGBOTTOM
 10
0.0
 20
0.0
 30
0.0
  9
$UCSORGLEFT
 10
0.0
 20
0.0
 30
0.0
  9
$UCSORGRIGHT
 10
0.0
 20
0.0
 30
0.0
  9
$UCSORGFRONT
 10
0.0
 20
0.0
 30
0.0
  9
$UCSORGBACK
 10
0.0
 20
0.0
 30
0.0
  9
$PUCSBASE
  2

  9
$PUCSNAME
  2

  9
$PUCSORG
 10
0.0
 20
0.0
 30
0.0
  9
$PUCSXDIR
 10
1.0
 20
0.0
 30
0.0
  9
$PUCSYDIR
 10
0.0
 20
1.0
 30
0.0
  9
$PUCSORTHOREF
  2

  9
$PUCSORTHOVIEW
 70
0
  9
$PUCSORGTOP
 10
0.0
 20
0.0
 30
0.0
  9
$PUCSORGBOTTOM
 10
0.0
 20
0.0
 30
0.0
  9
$PUCSORGLEFT
 10
0.0
 20
0.0
 30
0.0
  9
$PUCSORGRIGHT
 10
0.0
 20
0.0
 30
0.0
  9
$PUCSORGFRONT
 10
0.0
 20
0.0
 30
0.0
  9
$PUCSORGBACK
 10
0.0
 20
0.0
 30
0.0
  9
$USERI1
 70
0
  9
$USERI2
 70
0
  9
$USERI3
 70
0
  9
$USERI4
 70
0
  9
$USERI5
 70
0
  9
$USERR1
 40
0.0
  9
$USERR2
 40
0.0
  9
$USERR3
 40
0.0
  9
$USERR4
 40
0.0
  9
$USERR5
 40
0.0
  9
$WORLDVIEW
 70
1
  9
$SHADEDGE
 70
3
  9
$SHADEDIF
 70
70
  9
$TILEMODE
 70
1
  9
$MAXACTVP
 70
64
  9
$PINSBASE
 10
0.0
 20
0.0
 30
0.0
  9
$PLIMCHECK
 70
0
  9
$PEXTMIN
 10
1e+20
 20
1e+20
 30
1e+20
  9
$PEXTMAX
 10
-1e+20
 20
-1e+20
 30
-1e+20
  9
$PLIMMIN
 10
0.0
 20
0.0
  9
$PLIMMAX
 10
420.0
 20
297.0
  9
$UNITMODE
 70
0
  9
$VISRETAIN
 70
1
  9
$PLINEGEN
 70
0
  9
$PSLTSCALE
 70
1
  9
$TREEDEPTH
 70
3020
  9
$CMLSTYLE
  2
Standard
  9
$CMLJUST
 70
0
  9
$CMLSCALE
 40
20.0
  9
$PROXYGRAPHICS
 70
1
  9
$MEASUREMENT
 70
1
  9
$CELWEIGHT
370
-1
  9
$ENDCAPS
280
0
  9
$JOINSTYLE
280
0
  9
$LWDISPLAY
290
0
  9
$INSUNITS
 70
4
  9
$HYPERLINKBASE
  1

  9
$STYLESHEET
  1

  9
$XEDIT
290
1
  9
$CEPSNTYPE
380
0
  9
$PSTYLEMODE
290
1
  9
$FINGERPRINTGUID
  2
{E68E4BCE-A9AE-4222-AE91-310574C64AE3}
  9
$VERSIONGUID
  2
{867B7215-A828-4254-857D-44F1EC0B1E6F}
  9
$EXTNAMES
290
1
  9
$PSVPSCALE
 40
0.0
  9
$OLESTARTUP
290
0
  9
$SORTENTS
280
127
  9
$INDEXCTL
280
0
  9
$HIDETEXT
280
1
  9
$XCLIPFRAME
280
1
  9
$HALOGAP
280
0
  9
$OBSCOLOR
 70
257
  9
$OBSLTYPE
280
0
  9
$INTERSECTIONDISPLAY
280
0
  9
$INTERSECTIONCOLOR
 70
257
  9
$DIMASSOC
280
2
  9
$PROJECTNAME
  1

  9
$CAMERADISPLAY
290
0
  9
$LENSLENGTH
 40
50.0
  9
$CAMERAHEIGHT
 40
0.0
  9
$STEPSPERSEC
 40
24.0
  9
$STEPSIZE
 40
100.0
  9
$3DDWFPREC
 40
2.0
  9
$PSOLWIDTH
 40
0.005
  9
$PSOLHEIGHT
 40
0.08
  9
$LOFTANG1
 40
1.570796326795
  9
$LOFTANG2
 40
1.570796326795
  9
$LOFTMAG1
 40
0.0
  9
$LOFTMAG2
 40
0.0
  9
$LOFTPARAM
 70
7
  9
$LOFTNORMALS
280
1
  9
$LATITUDE
 40
37.795
  9
$LONGITUDE
 40
-122.394
  9
$NORTHDIRECTION
 40
0.0
  9
$TIMEZONE
 70
-8000
  9
$LIGHTGLYPHDISPLAY
280
1
  9
$TILEMODELIGHTSYNCH
280
1
  9
$CMATERIAL
347
20
  9
$SOLIDHIST
280
0
  9
$SHOWHIST
280
1
  9
$DWFFRAME
280
2
  9
$DGNFRAME
280
2
  9
$REALWORLDSCALE
290
1
  9
$INTERFERECOLOR
 62
256
  9
$CSHADOW
280
0
  9
$SHADOWPLANELOCATION
 40
0.0
  0
ENDSEC
  0
SECTION
  2
CLASSES
  0
CLASS
  1
ACDBDICTIONARYWDFLT
  2
AcDbDictionaryWithDefault
  3
ObjectDBX Classes
 90
0
 91
0
280
0
281
0
  0
CLASS
  1
SUN
  2
AcDbSun
  3
SCENEOE
 90
1153
 91
0
280
0
281
0
  0
CLASS
  1
VISUALSTYLE
  2
AcDbVisualStyle
  3
ObjectDBX Classes
 90
4095
 91
0
280
0
281
0
  0
CLASS
  1
MATERIAL
  2
AcDbMaterial
  3
ObjectDBX Classes
 90
1153
 91
0
280
0
281
0
  0
CLASS
  1
SCALE
  2
AcDbScale
  3
ObjectDBX Classes
 90
1153
 91
0
280
0
281
0
  0
CLASS
  1
TABLESTYLE
  2
AcDbTableStyle
  3
ObjectDBX Classes
 90
4095
 91
0
280
0
281
0
  0
CLASS
  1
MLEADERSTYLE
  2
AcDbMLeaderStyle
  3
ACDB_MLEADERSTYLE_CLASS
 90
4095
 91
0
280
0
281
0
  0
CLASS
  1
DICTIONARYVAR
  2
AcDbDictionaryVar
  3
ObjectDBX Classes
 90
0
 91
0
280
0
281
0
  0
CLASS
  1
CELLSTYLEMAP
  2
AcDbCellStyleMap
  3
ObjectDBX Classes
 90
1152
 91
0
280
0
281
0
  0
CLASS
  1
MENTALRAYRENDERSETTINGS
  2
AcDbMentalRayRenderSettings
  3
SCENEOE
 90
1024
 91
0
280
0
281
0
  0
CLASS
  1
ACDBDETAILVIEWSTYLE
  2
AcDbDetailViewStyle
  3
ObjectDBX Classes
 90
1025
 91
0
280
0
281
0
  0
CLASS
  1
ACDBSECTIONVIEWSTYLE
  2
AcDbSectionViewStyle
  3
ObjectDBX Classes
 90
1025
 91
0
280
0
281
0
  0
CLASS
  1
RASTERVARIABLES
  2
AcDbRasterVariables
  3
ISM
 90
0
 91
0
280
0
281
0
  0
CLASS
  1
LAYOUT
  2
AcDbLayout
  3
ObjectDBX Classes
 90
0
 91
0
280
0
281
0
  0
CLASS
  1
ACDBPLACEHOLDER
  2
AcDbPlaceHolder
  3
ObjectDBX Classes
 90
0
 91
0
280
0
281
0
  0
ENDSEC
  0
SECTION
  2
TABLES
  0
TABLE
  2
VPORT
  5
8
330
0
100
AcDbSymbolTable
 70
1
  0
VPORT
  5
23
330
8
100
AcDbSymbolTableRecord
100
AcDbViewportTableRecord
  2
*Active
 70
0
 10
0.0
 20
0.0
 11
1.0
 21
1.0
 12
0.0
 22
0.0
 13
0.0
 23
0.0
 14
0.5
 24
0.5
 15
0.5
 25
0.5
 16
0.0
 26
0.0
 36
1.0
 17
0.0
 27
0.0
 37
0.0
 40
1000.0
 41
1.34
 42
50.0
 43
0.0
 44
0.0
 50
0.0
 51
0.0
 71
0
 72
1000
 73
1
 74
3
 75
0
 76
0
 77
0
 78
0
281
0
 65
0
146
0.0
  0
ENDTAB
  0
TABLE
  2
LTYPE
  5
2
330
0
100
AcDbSymbolTable
 70
3
  0
LTYPE
  5
24
330
2
100
AcDbSymbolTableRecord
100
AcDbLinetypeTableRecord
  2
ByBlock
 70
0
  3

 72
65
 73
0
 40
0.0
  0
LTYPE
  5
25
330
2
100
AcDbSymbolTableRecord
100
AcDbLinetypeTableRecord
  2
ByLayer
 70
0
  3

 72
65
 73
0
 40
0.0
  0
LTYPE
  5
26
330
2
100
AcDbSymbolTableRecord
100
AcDbLinetypeTableRecord
  2
Continuous
 70
0
  3

 72
65
 73
0
 40
0.0
  0
ENDTAB
  0
TABLE
  2
LAYER
  5
1
330
0
100
AcDbSymbolTable
 70
3
  0
LAYER
  5
27
330
1
100
AcDbSymbolTableRecord
100
AcDbLayerTableRecord
  2
0
 70
0
 62
7
  6
Continuous
370
-3
390
13
347
21
  0
LAYER
  5
28
330
1
100
AcDbSymbolTableRecord
100
AcDbLayerTableRecord
  2
Defpoints
 70
0
 62
7
  6
Continuous
290
0
370
-3
390
13
347
21
  0
LAYER
  5
F2
330
1
100
AcDbSymbolTableRecord
100
AcDbLayerTableRecord
  2
hw_VTP
 70
2
 62
7
  6
Continuous
370
13
390
13
347
21
  0
ENDTAB
  0
TABLE
  2
STYLE
  5
5
330
0
100
AcDbSymbolTable
 70
2
  0
STYLE
  5
29
330
5
100
AcDbSymbolTableRecord
100
AcDbTextStyleTableRecord
  2
Standard
 70
0
 40
0.0
 41
1.0
 50
0.0
 71
0
 42
2.5
  3
txt
  4

  0
STYLE
  5
F3
330
5
100
AcDbSymbolTableRecord
100
AcDbTextStyleTableRecord
  2
ARIAL
 70
0
 40
0.0
 41
1.0
 50
0.0
 71
0
 42
10.0
  3
arial.ttf
  4

  0
ENDTAB
  0
TABLE
  2
VIEW
  5
7
330
0
100
AcDbSymbolTable
 70
0
  0
ENDTAB
  0
TABLE
  2
UCS
  5
6
330
0
100
AcDbSymbolTable
 70
0
  0
ENDTAB
  0
TABLE
  2
APPID
  5
3
330
0
100
AcDbSymbolTable
 70
3
  0
APPID
  5
2A
330
3
100
AcDbSymbolTableRecord
100
AcDbRegAppTableRecord
  2
ACAD
 70
0
  0
APPID
  5
F4
330
3
100
AcDbSymbolTableRecord
100
AcDbRegAppTableRecord
  2
HATCHBACKGROUNDCOLOR
 70
0
  0
APPID
  5
F5
330
3
100
AcDbSymbolTableRecord
100
AcDbRegAppTableRecord
  2
EZDXF
 70
0
  0
ENDTAB
  0
TABLE
  2
DIMSTYLE
  5
4
330
0
100
AcDbSymbolTable
 70
1
100
AcDbDimStyleTable
  0
DIMSTYLE
105
2B
330
4
100
AcDbSymbolTableRecord
100
AcDbDimStyleTableRecord
  2
Standard
 70
0
 40
1.0
 41
2.5
 42
0.625
 43
3.75
 44
1.25
 45
0.0
 46
0.0
 47
0.0
 48
0.0
 49
2.5
140
2.5
141
2.5
142
0.0
143
0.03937007874
144
1.0
145
0.0
146
1.0
147
0.625
148
0.0
 69
0
 70
0
 71
0
 72
0
 73
0
 74
0
 75
0
 76
0
 77
1
 78
8
 79
3
170
0
171
3
172
1
173
0
174
0
175
0
176
0
177
0
178
0
179
2
271
2
272
2
273
2
274
3
275
0
276
0
277
2
278
44
279
0
280
0
281
0
282
0
283
0
284
8
285
0
286
0
288
0
289
3
290
0
371
-2
372
-2
  0
ENDTAB
  0
TABLE
  2
BLOCK_RECORD
  5
9
330
0
100
AcDbSymbolTable
 70
3
  0
BLOCK_RECORD
  5
17
330
9
100
AcDbSymbolTableRecord
100
AcDbBlockTableRecord
  2
*Model_Space
340
1A
 70
0
280
1
281
0
  0
BLOCK_RECORD
  5
1B
330
9
100
AcDbSymbolTableRecord
100
AcDbBlockTableRecord
  2
*Paper_Space
340
1E
 70
0
280
1
281
0
  0
BLOCK_RECORD
  5
31
330
9
100
AcDbSymbolTableRecord
100
AcDbBlockTableRecord
  2
*U395
340
0
 70
0
280
1
281
0
  0
ENDTAB
  0
ENDSEC
  0
SECTION
  2
BLOCKS
  0
BLOCK
  5
18
330
17
100
AcDbEntity
  8
0
100
AcDbBlockBegin
  2
*Model_Space
 70
0
 10
0.0
 20
0.0
 30
0.0
  3
*Model_Space
  1

  0
ENDBLK
  5
19
330
17
100
AcDbEntity
  8
0
100
AcDbBlockEnd
  0
BLOCK
  5
1C
330
1B
100
AcDbEntity
  8
0
100
AcDbBlockBegin
  2
*Paper_Space
 70
0
 10
0.0
 20
0.0
 30
0.0
  3
*Paper_Space
  1

  0
ENDBLK
  5
1D
330
1B
100
AcDbEntity
  8
0
100
AcDbBlockEnd
  0
BLOCK
  5
32
330
31
100
AcDbEntity
  8
0
100
AcDbBlockBegin
  2
*U395
 70
1
 10
0.0
 20
0.0
 30
0.0
  3
*U395
  1

  0
LINE
  5
34
330
31
100
AcDbEntity
  8
hw_VTP
100
AcDbLine
 10
10.80000000000291
 20
0.0
 30
0.0
 11
0.0
 21
0.0
 31
0.0
  0
LINE
  5
35
330
31
100
AcDbEntity
  8
hw_VTP
100
AcDbLine
 10
0.0
 20
0.0
 30
0.0
 11
0.0
 21
40.49999999999999
 31
0.0
  0
LINE
  5
36
330
31
100
AcDbEntity
  8
hw_VTP
100
AcDbLine
 10
1.0
 20
1.30000000000291
 30
0.0
 11
0.0
 21
1.30000000000291
 31
0.0
  0
LINE
  5
37
330
31
100
AcDbEntity
  8
hw_VTP
100
AcDbLine
 10
2.0
 20
2.0
 30
0.0
 11
0.0
 21
2.0
 31
0.0
  0
LINE
  5
38
330
31
100
AcDbEntity
  8
hw_VTP
100
AcDbLine
 10
2.0
 20
4.549066693325585
 30
0.0
 11
0.0
 21
4.549066693325585
 31
0.0
  0
LINE
  5
39
330
31
100
AcDbEntity
  8
hw_VTP
100
AcDbLine
 10
2.0
 20
6.049066693325585
 30
0.0
 11
0.0
 21
6.049066693325585
 31
0.0
  0
LINE
  5
3A
330
31
100
AcDbEntity
  8
hw_VTP
100
AcDbLine
 10
2.0
 20
7.5
 30
0.0
 11
0.0
 21
7.5
 31
0.0
  0
LINE
  5
3B
330
31
100
AcDbEntity
  8
hw_VTP
100
AcDbLine
 10
2.0
 20
0.0
 30
0.0
 11
2.0
 21
18.05966422719939
 31
0.0
  0
LINE
  5
3C
330
31
100
AcDbEntity
  8
hw_VTP
100
AcDbLine
 10
3.0
 20
6.300402612243487
 30
0.0
 11
3.0
 21
7.5
 31
0.0
  0
LINE
  5
3D
330
31
100
AcDbEntity
  8
hw_VTP
100
AcDbLine
 10
10.80000000000291
 20
2.5
 30
0.0
 11
2.0
 21
2.5
 31
0.0
  0
LINE
  5
3E
330
31
100
AcDbEntity
  8
hw_VTP
100
AcDbLine
 10
10.80000000000291
 20
6.0
 30
0.0
 11
2.0
 21
6.0
 31
0.0
  0
LINE
  5
3F
330
31
100
AcDbEntity
  8
hw_VTP
100
AcDbLine
 10
2.0
 20
36.95093330667442
 30
0.0
 11
0.0
 21
36.95093330667442
 31
0.0
  0
LINE
  5
40
330
31
100
AcDbEntity
  8
hw_VTP
100
AcDbLine
 10
2.0
 20
35.5
 30
0.0
 11
0.0
 21
35.5
 31
0.0
  0
LINE
  5
41
330
31
100
AcDbEntity
  8
hw_VTP
100
AcDbLine
 10
3.0
 20
36.70034259039676
 30
0.0
 11
3.0
 21
35.5
 31
0.0
  0
LINE
  5
42
330
31
100
AcDbEntity
  8
hw_VTP
100
AcDbLine
 10
10.80000000000291
 20
40.49999999999999
 30
0.0
 11
1.0
 21
40.49999999999999
 31
0.0
  0
LINE
  5
43
330
31
100
AcDbEntity
  8
hw_VTP
100
AcDbLine
 10
2.0
 20
38.92287604179728
 30
0.0
 11
0.0
 21
38.92287604179728
 31
0.0
  0
LINE
  5
44
330
31
100
AcDbEntity
  8
hw_VTP
100
AcDbLine
 10
2.0
 20
37.44385609601887
 30
0.0
 11
0.0
 21
37.44385609601887
 31
0.0
  0
LINE
  5
45
330
31
100
AcDbEntity
  8
hw_VTP
100
AcDbLine
 10
10.80000000000291
 20
36.0
 30
0.0
 11
3.0
 21
36.0
 31
0.0
  0
LINE
  5
46
330
31
100
AcDbEntity
  8
hw_VTP
100
AcDbLine
 10
10.80000000000291
 20
7.0
 30
0.0
 11
3.0
 21
7.0
 31
0.0
  0
LINE
  5
47
330
31
100
AcDbEntity
  8
hw_VTP
100
AcDbLine
 10
10.80000000000291
 20
7.5
 30
0.0
 11
2.0
 21
7.5
 31
0.0
  0
LINE
  5
48
330
31
100
AcDbEntity
  8
hw_VTP
100
AcDbLine
 10
2.0
 20
35.5
 30
0.0
 11
10.80000000000291
 21
35.5
 31
0.0
  0
LINE
  5
49
330
31
100
AcDbEntity
  8
hw_VTP
100
AcDbLine
 10
0.0
 20
40.49999999999999
 30
0.0
 11
10.80000000000291
 21
40.49999999999999
 31
0.0
  0
LINE
  5
4A
330
31
100
AcDbEntity
  8
hw_VTP
100
AcDbLine
 10
10.80000000000291
 20
18.05966422719939
 30
0.0
 11
2.0
 21
18.05966422719939
 31
0.0
  0
LINE
  5
4B
330
31
100
AcDbEntity
  8
hw_VTP
100
AcDbLine
 10
2.0
 20
17.35966422719502
 30
0.0
 11
0.0
 21
17.35966422719502
 31
0.0
  0
LINE
  5
4C
330
31
100
AcDbEntity
  8
hw_VTP
100
AcDbLine
 10
2.0
 20
25.55966422719939
 30
0.0
 11
0.0
 21
25.55966422719939
 31
0.0
  0
LINE
  5
4D
330
31
100
AcDbEntity
  8
hw_VTP
100
AcDbLine
 10
2.0
 20
25.55966422719939
 30
0.0
 11
2.0
 21
40.49999999999999
 31
0.0
  0
LINE
  5
4E
330
31
100
AcDbEntity
  8
hw_VTP
100
AcDbLine
 10
10.80000000000291
 20
24.8596642272023
 30
0.0
 11
2.0
 21
24.8596642272023
 31
0.0
  0
LINE
  5
4F
330
31
100
AcDbEntity
  8
hw_VTP
 62
4
100
AcDbLine
 10
2.199999999997089
 20
35.40966422719794
 30
0.0
 11
10.80000000000291
 21
35.40966422719794
 31
0.0
  0
LINE
  5
50
330
31
100
AcDbEntity
  8
hw_VTP
 62
4
100
AcDbLine
 10
2.199999999997089
 20
7.509664227203757
 30
0.0
 11
10.80000000000291
 21
7.509664227203757
 31
0.0
  0
LINE
  5
51
330
31
100
AcDbEntity
  8
hw_VTP
 62
4
100
AcDbLine
 10
2.199999999997089
 20
7.509664227203757
 30
0.0
 11
2.199999999997089
 21
18.05966422719939
 31
0.0
  0
LINE
  5
52
330
31
100
AcDbEntity
  8
hw_VTP
 62
4
100
AcDbLine
 10
2.199999999997089
 20
24.8596642272023
 30
0.0
 11
2.199999999997089
 21
35.40966422719794
 31
0.0
  0
LINE
  5
53
330
31
100
AcDbEntity
  8
hw_VTP
100
AcDbLine
 10
2.0
 20
40.49999999999999
 30
0.0
 11
2.0
 21
24.8596642272023
 31
0.0
  0
LINE
  5
54
330
31
100
AcDbEntity
  8
hw_VTP
 62
4
100
AcDbLine
 10
10.80000000000291
 20
7.509664227203757
 30
0.0
 11
10.80000000000291
 21
18.05966422719939
 31
0.0
  0
LINE
  5
55
330
31
100
AcDbEntity
  8
hw_VTP
 62
4
100
AcDbLine
 10
10.80000000000291
 20
35.40966422719794
 30
0.0
 11
10.80000000000291
 21
24.8596642272023
 31
0.0
  0
LINE
  5
56
330
31
100
AcDbEntity
  8
hw_VTP
100
AcDbLine
 10
10.80000000000291
 20
40.49999999999999
 30
0.0
 11
10.80000000000291
 21
0.0
 31
0.0
  0
CIRCLE
  5
57
330
31
100
AcDbEntity
  8
hw_VTP
100
AcDbCircle
 10
6.5
 20
11.95212198016088
 30
0.0
 40
3.5
  0
LINE
  5
58
330
31
100
AcDbEntity
  8
hw_VTP
 62
0
100
AcDbLine
 10
5.510050506345578
 20
10.25506570531433
 30
0.0
 11
4.802943725153454
 21
10.96217248649918
 31
0.0
  0
LINE
  5
59
330
31
100
AcDbEntity
  8
hw_VTP
 62
0
100
AcDbLine
 10
8.197056274846545
 20
12.94207147382258
 30
0.0
 11
7.489949493654421
 21
13.64917825500743
 31
0.0
  0
LINE
  5
5A
330
31
100
AcDbEntity
  8
hw_VTP
 62
0
100
AcDbLine
 10
8.197056274846545
 20
12.94207147382258
 30
0.0
 11
7.772792206131271
 21
12.51780740511458
 31
0.0
  0
LINE
  5
5B
330
31
100
AcDbEntity
  8
hw_VTP
 62
0
100
AcDbLine
 10
7.489949493654421
 20
13.64917825500743
 30
0.0
 11
7.065685424953699
 21
13.22491418629943
 31
0.0
  0
LINE
  5
5C
330
31
100
AcDbEntity
  8
hw_VTP
 62
0
100
AcDbLine
 10
8.595936352183344
 20
9.149078846785414
 30
0.0
 11
7.065685424953699
 21
10.67932977402961
 31
0.0
  0
LINE
  5
5D
330
31
100
AcDbEntity
  8
hw_VTP
 62
0
100
AcDbLine
 10
9.303043133375468
 20
9.856185627970262
 30
0.0
 11
7.772792206131271
 21
11.38643655521446
 31
0.0
  0
LINE
  5
5E
330
31
100
AcDbEntity
  8
hw_VTP
 62
0
100
AcDbLine
 10
5.227207793868728
 20
12.51780740511458
 30
0.0
 11
3.696956866624532
 21
14.0480583323515
 31
0.0
  0
LINE
  5
5F
330
31
100
AcDbEntity
  8
hw_VTP
 62
0
100
AcDbLine
 10
5.9343145750463
 20
10.67932977402961
 30
0.0
 11
5.510050506345578
 21
10.25506570531433
 31
0.0
  0
LINE
  5
60
330
31
100
AcDbEntity
  8
hw_VTP
 62
0
100
AcDbLine
 10
5.9343145750463
 20
13.22491418629943
 30
0.0
 11
4.404063647816656
 21
14.75516511353635
 31
0.0
  0
LINE
  5
61
330
31
100
AcDbEntity
  8
hw_VTP
 62
0
100
AcDbLine
 10
5.227207793868728
 20
11.38643655521446
 30
0.0
 11
4.802943725153454
 21
10.96217248649918
 31
0.0
  0
ARC
  5
62
330
31
100
AcDbEntity
  8
hw_VTP
 62
0
100
AcDbCircle
 10
6.5
 20
10.11364434907591
 30
0.0
 40
0.8
100
AcDbArc
 50
44.99999999970522
 51
135.0000000002947
  0
ARC
  5
63
330
31
100
AcDbEntity
  8
hw_VTP
 62
0
100
AcDbCircle
 10
4.661522368915029
 20
11.95212198016088
 30
0.0
 40
0.8
100
AcDbArc
 50
315.0000000002948
 51
44.99999999970522
  0
ARC
  5
64
330
31
100
AcDbEntity
  8
hw_VTP
 62
0
100
AcDbCircle
 10
6.5
 20
13.79059961124585
 30
0.0
 40
0.8
100
AcDbArc
 50
224.9999999997053
 51
315.0000000002948
  0
ARC
  5
65
330
31
100
AcDbEntity
  8
hw_VTP
 62
0
100
AcDbCircle
 10
8.33847763108497
 20
11.95212198016088
 30
0.0
 40
0.8
100
AcDbArc
 50
135.0000000002947
 51
224.9999999997053
  0
LINE
  5
66
330
31
100
AcDbEntity
  8
hw_VTP
 62
0
100
AcDbLine
 10
7.10000000000582
 20
7.952121980160882
 30
0.0
 11
7.10000000000582
 21
8.503934050248063
 31
0.0
  0
LINE
  5
67
330
31
100
AcDbEntity
  8
hw_VTP
 62
0
100
AcDbLine
 10
5.899999999994179
 20
7.952121980160882
 30
0.0
 11
5.899999999994179
 21
8.503934050248063
 31
0.0
  0
LINE
  5
68
330
31
100
AcDbEntity
  8
hw_VTP
 62
0
100
AcDbLine
 10
10.5
 20
11.35212198016233
 30
0.0
 11
9.94818792991282
 21
11.35212198016233
 31
0.0
  0
LINE
  5
69
330
31
100
AcDbEntity
  8
hw_VTP
 62
0
100
AcDbLine
 10
10.5
 20
12.55212198015942
 30
0.0
 11
9.94818792991282
 21
12.55212198015942
 31
0.0
  0
LINE
  5
6A
330
31
100
AcDbEntity
  8
hw_VTP
 62
0
100
AcDbLine
 10
7.10000000000582
 20
15.95212198016088
 30
0.0
 11
7.10000000000582
 21
15.4003099100737
 31
0.0
  0
LINE
  5
6B
330
31
100
AcDbEntity
  8
hw_VTP
 62
0
100
AcDbLine
 10
5.899999999994179
 20
15.95212198016088
 30
0.0
 11
5.899999999994179
 21
15.4003099100737
 31
0.0
  0
LINE
  5
6C
330
31
100
AcDbEntity
  8
hw_VTP
 62
0
100
AcDbLine
 10
2.5
 20
12.55212198015942
 30
0.0
 11
3.05181207008718
 21
12.55212198015942
 31
0.0
  0
LINE
  5
6D
330
31
100
AcDbEntity
  8
hw_VTP
 62
0
100
AcDbLine
 10
2.5
 20
11.35212198016233
 30
0.0
 11
3.05181207008718
 21
11.35212198016233
 31
0.0
  0
LINE
  5
6E
330
31
100
AcDbEntity
  8
hw_VTP
 62
0
100
AcDbLine
 10
10.5
 20
7.952121980160882
 30
0.0
 11
2.5
 21
7.952121980160882
 31
0.0
  0
LINE
  5
6F
330
31
100
AcDbEntity
  8
hw_VTP
 62
0
100
AcDbLine
 10
10.5
 20
15.95212198016088
 30
0.0
 11
2.5
 21
15.95212198016088
 31
0.0
  0
LINE
  5
70
330
31
100
AcDbEntity
  8
hw_VTP
 62
0
100
AcDbLine
 10
10.5
 20
7.952121980160882
 30
0.0
 11
10.5
 21
15.95212198016088
 31
0.0
  0
LINE
  5
71
330
31
100
AcDbEntity
  8
hw_VTP
 62
0
100
AcDbLine
 10
2.5
 20
7.952121980160882
 30
0.0
 11
2.5
 21
15.95212198016088
 31
0.0
  0
LINE
  5
72
330
31
100
AcDbEntity
  8
hw_VTP
100
AcDbLine
 10
4.489592359910602
 20
7.952121980160882
 30
0.0
 11
2.5
 21
9.94171434007876
 31
0.0
  0
LINE
  5
73
330
31
100
AcDbEntity
  8
hw_VTP
100
AcDbLine
 10
10.5
 20
13.96252962025028
 30
0.0
 11
8.510407640089397
 21
15.95212198016088
 31
0.0
  0
LINE
  5
74
330
31
100
AcDbEntity
  8
hw_VTP
100
AcDbLine
 10
10.5
 20
9.94171434007876
 30
0.0
 11
8.510407640089397
 21
7.952121980160882
 31
0.0
  0
LINE
  5
75
330
31
100
AcDbEntity
  8
hw_VTP
100
AcDbLine
 10
4.489592359910602
 20
15.95212198016088
 30
0.0
 11
2.5
 21
13.96252962025028
 31
0.0
  0
CIRCLE
  5
76
330
31
100
AcDbEntity
  8
hw_VTP
100
AcDbCircle
 10
6.5
 20
30.95212198016088
 30
0.0
 40
3.5
  0
LINE
  5
77
330
31
100
AcDbEntity
  8
hw_VTP
 62
0
100
AcDbLine
 10
5.510050506345578
 20
29.25506570531434
 30
0.0
 11
4.802943725153454
 21
29.96217248649919
 31
0.0
  0
LINE
  5
78
330
31
100
AcDbEntity
  8
hw_VTP
 62
0
100
AcDbLine
 10
8.197056274846545
 20
31.94207147382258
 30
0.0
 11
7.489949493654421
 21
32.64917825500743
 31
0.0
  0
LINE
  5
79
330
31
100
AcDbEntity
  8
hw_VTP
 62
0
100
AcDbLine
 10
8.197056274846545
 20
31.94207147382258
 30
0.0
 11
7.772792206131271
 21
31.5178074051073
 31
0.0
  0
LINE
  5
7A
330
31
100
AcDbEntity
  8
hw_VTP
 62
0
100
AcDbLine
 10
7.489949493654421
 20
32.64917825500743
 30
0.0
 11
7.065685424953699
 21
32.22491418629943
 31
0.0
  0
LINE
  5
7B
330
31
100
AcDbEntity
  8
hw_VTP
 62
0
100
AcDbLine
 10
8.595936352183344
 20
28.14907884678542
 30
0.0
 11
7.065685424953699
 21
29.67932977402961
 31
0.0
  0
LINE
  5
7C
330
31
100
AcDbEntity
  8
hw_VTP
 62
0
100
AcDbLine
 10
9.303043133375468
 20
28.85618562797026
 30
0.0
 11
7.772792206131271
 21
30.38643655521446
 31
0.0
  0
LINE
  5
7D
330
31
100
AcDbEntity
  8
hw_VTP
 62
0
100
AcDbLine
 10
5.227207793868728
 20
31.5178074051073
 30
0.0
 11
3.696956866624532
 21
33.0480583323515
 31
0.0
  0
LINE
  5
7E
330
31
100
AcDbEntity
  8
hw_VTP
 62
0
100
AcDbLine
 10
5.9343145750463
 20
29.67932977402961
 30
0.0
 11
5.510050506345578
 21
29.25506570531434
 31
0.0
  0
LINE
  5
7F
330
31
100
AcDbEntity
  8
hw_VTP
 62
0
100
AcDbLine
 10
5.9343145750463
 20
32.22491418629943
 30
0.0
 11
4.404063647816656
 21
33.75516511353635
 31
0.0
  0
LINE
  5
80
330
31
100
AcDbEntity
  8
hw_VTP
 62
0
100
AcDbLine
 10
5.227207793868728
 20
30.38643655521446
 30
0.0
 11
4.802943725153454
 21
29.96217248649919
 31
0.0
  0
ARC
  5
81
330
31
100
AcDbEntity
  8
hw_VTP
 62
0
100
AcDbCircle
 10
6.5
 20
29.11364434907591
 30
0.0
 40
0.8
100
AcDbArc
 50
44.99999999970522
 51
135.0000000002947
  0
ARC
  5
82
330
31
100
AcDbEntity
  8
hw_VTP
 62
0
100
AcDbCircle
 10
4.661522368915029
 20
30.95212198016088
 30
0.0
 40
0.8
100
AcDbArc
 50
315.0000000002948
 51
44.99999999970522
  0
ARC
  5
83
330
31
100
AcDbEntity
  8
hw_VTP
 62
0
100
AcDbCircle
 10
6.5
 20
32.79059961124585
 30
0.0
 40
0.8
100
AcDbArc
 50
224.9999999997053
 51
315.0000000002948
  0
ARC
  5
84
330
31
100
AcDbEntity
  8
hw_VTP
 62
0
100
AcDbCircle
 10
8.33847763108497
 20
30.95212198016088
 30
0.0
 40
0.8
100
AcDbArc
 50
135.0000000002947
 51
224.9999999997053
  0
LINE
  5
85
330
31
100
AcDbEntity
  8
hw_VTP
 62
0
100
AcDbLine
 10
7.10000000000582
 20
26.95212198016089
 30
0.0
 11
7.10000000000582
 21
27.50393405024806
 31
0.0
  0
LINE
  5
86
330
31
100
AcDbEntity
  8
hw_VTP
 62
0
100
AcDbLine
 10
5.899999999994179
 20
26.95212198016089
 30
0.0
 11
5.899999999994179
 21
27.50393405024806
 31
0.0
  0
LINE
  5
87
330
31
100
AcDbEntity
  8
hw_VTP
 62
0
100
AcDbLine
 10
10.5
 20
30.35212198016234
 30
0.0
 11
9.94818792991282
 21
30.35212198016234
 31
0.0
  0
LINE
  5
88
330
31
100
AcDbEntity
  8
hw_VTP
 62
0
100
AcDbLine
 10
10.5
 20
31.55212198015943
 30
0.0
 11
9.94818792991282
 21
31.55212198015943
 31
0.0
  0
LINE
  5
89
330
31
100
AcDbEntity
  8
hw_VTP
 62
0
100
AcDbLine
 10
7.10000000000582
 20
34.95212198016088
 30
0.0
 11
7.10000000000582
 21
34.4003099100737
 31
0.0
  0
LINE
  5
8A
330
31
100
AcDbEntity
  8
hw_VTP
 62
0
100
AcDbLine
 10
5.899999999994179
 20
34.95212198016088
 30
0.0
 11
5.899999999994179
 21
34.4003099100737
 31
0.0
  0
LINE
  5
8B
330
31
100
AcDbEntity
  8
hw_VTP
 62
0
100
AcDbLine
 10
2.5
 20
31.55212198015943
 30
0.0
 11
3.05181207008718
 21
31.55212198015943
 31
0.0
  0
LINE
  5
8C
330
31
100
AcDbEntity
  8
hw_VTP
 62
0
100
AcDbLine
 10
2.5
 20
30.35212198016234
 30
0.0
 11
3.05181207008718
 21
30.35212198016234
 31
0.0
  0
LINE
  5
8D
330
31
100
AcDbEntity
  8
hw_VTP
 62
0
100
AcDbLine
 10
10.5
 20
26.95212198016089
 30
0.0
 11
2.5
 21
26.95212198016089
 31
0.0
  0
LINE
  5
8E
330
31
100
AcDbEntity
  8
hw_VTP
 62
0
100
AcDbLine
 10
10.5
 20
34.95212198016088
 30
0.0
 11
2.5
 21
34.95212198016088
 31
0.0
  0
LINE
  5
8F
330
31
100
AcDbEntity
  8
hw_VTP
 62
0
100
AcDbLine
 10
10.5
 20
26.95212198016089
 30
0.0
 11
10.5
 21
34.95212198016088
 31
0.0
  0
LINE
  5
90
330
31
100
AcDbEntity
  8
hw_VTP
 62
0
100
AcDbLine
 10
2.5
 20
26.95212198016089
 30
0.0
 11
2.5
 21
34.95212198016088
 31
0.0
  0
LINE
  5
91
330
31
100
AcDbEntity
  8
hw_VTP
100
AcDbLine
 10
4.489592359910602
 20
26.95212198016089
 30
0.0
 11
2.5
 21
28.94171434007876
 31
0.0
  0
LINE
  5
92
330
31
100
AcDbEntity
  8
hw_VTP
100
AcDbLine
 10
10.5
 20
32.96252962025028
 30
0.0
 11
8.510407640089397
 21
34.95212198016088
 31
0.0
  0
LINE
  5
93
330
31
100
AcDbEntity
  8
hw_VTP
100
AcDbLine
 10
10.5
 20
28.94171434007876
 30
0.0
 11
8.510407640089397
 21
26.95212198016089
 31
0.0
  0
LINE
  5
94
330
31
100
AcDbEntity
  8
hw_VTP
100
AcDbLine
 10
4.489592359910602
 20
34.95212198016088
 30
0.0
 11
2.5
 21
32.96252962025028
 31
0.0
  0
LINE
  5
95
330
31
100
AcDbEntity
  8
hw_VTP
100
AcDbLine
 10
10.80000000000291
 20
1.299308882640616
 30
0.0
 11
1.000001579348463
 21
1.299308882640616
 31
0.0
  0
LINE
  5
96
330
31
100
AcDbEntity
  8
hw_VTP
100
AcDbLine
 10
3.0
 20
36.70034259039676
 30
0.0
 11
2.0
 21
36.70034259039676
 31
0.0
  0
LINE
  5
97
330
31
100
AcDbEntity
  8
hw_VTP
100
AcDbLine
 10
10.80000000000291
 20
37.00068568250572
 30
0.0
 11
2.0
 21
37.00068568250572
 31
0.0
  0
LINE
  5
98
330
31
100
AcDbEntity
  8
hw_VTP
100
AcDbLine
 10
3.0
 20
6.300402612243487
 30
0.0
 11
2.0
 21
6.300402612243487
 31
0.0
  0
LINE
  5
99
330
31
100
AcDbEntity
  8
0
100
AcDbLine
 10
2.0
 20
24.8596642272023
 30
0.0
 11
2.0
 21
18.05966422719939
 31
0.0
  0
LWPOLYLINE
  5
9A
330
31
100
AcDbEntity
  8
0
 62
4
370
9
 60
1
100
AcDbPolyline
 90
2
 70
0
 10
32.48764666583156
 20
25.49319434901948
 10
32.48764666583156
 20
37.68777379008346
  0
LWPOLYLINE
  5
9B
330
31
100
AcDbEntity
  8
0
 62
4
370
9
 60
1
100
AcDbPolyline
 90
3
 70
0
 10
25.48764666583156
 20
40.4931943490122
 10
-1.512353334168437
 20
40.4931943490122
 10
-1.512353334168437
 20
39.49319434901221
  0
LWPOLYLINE
  5
9C
330
31
100
AcDbEntity
  8
0
 62
4
370
9
 60
1
100
AcDbPolyline
 90
2
 70
0
 10
-1.512353334168437
 20
31.49319434901948
 10
-1.512353334168437
 20
29.49319434901221
  0
LWPOLYLINE
  5
9D
330
31
100
AcDbEntity
  8
0
 62
4
370
9
 60
1
100
AcDbPolyline
 90
2
 70
0
 10
-1.512353334168437
 20
14.49319434901221
 10
-1.512353334168437
 20
12.49319434901221
  0
LWPOLYLINE
  5
9E
330
31
100
AcDbEntity
  8
0
 62
4
370
9
 60
1
100
AcDbPolyline
 90
3
 70
0
 10
-1.512353334168437
 20
4.793194349015118
 10
-1.512353334168437
 20
-0.5068056509877917
 10
4.487646665831562
 20
-0.5068056509877917
  0
LWPOLYLINE
  5
9F
330
31
100
AcDbEntity
  8
0
 62
4
370
9
 60
1
100
AcDbPolyline
 90
2
 70
0
 10
32.48764666583156
 20
3.853096300361665
 10
32.48764666584611
 20
16.99319434901221
  0
LINE
  5
A0
330
31
100
AcDbEntity
  8
0
 62
4
370
9
 60
1
100
AcDbLine
 10
32.48764666583156
 20
37.63329239765548
 30
0.0
 11
32.48764666581701
 21
25.49319434901948
 31
0.0
  0
LINE
  5
A1
330
31
100
AcDbEntity
  8
0
 62
4
370
9
 60
1
100
AcDbLine
 10
32.48764666584611
 20
16.99319434901221
 30
0.0
 11
32.48764666583156
 21
3.853096300361665
 31
0.0
  0
ARC
  5
A2
330
31
100
AcDbEntity
  8
0
 62
4
370
9
 60
1
100
AcDbCircle
 10
31.98764666583156
 20
3.853096300361665
 30
0.0
 40
0.5
100
AcDbArc
 50
258.6900675261434
 51
0.0
  0
ARC
  5
A3
330
31
100
AcDbEntity
  8
0
 62
4
370
9
 60
1
100
AcDbCircle
 10
32.23764666584612
 20
16.99319434901221
 30
0.0
 40
0.25
100
AcDbArc
 50
0.0
 51
90.0
  0
LINE
  5
A4
330
31
100
AcDbEntity
  8
0
 62
4
370
9
 60
1
100
AcDbLine
 10
27.98764666583156
 20
37.04319434901512
 30
0.0
 11
31.8895885982638
 21
38.12358273550156
 31
0.0
  0
ARC
  5
A5
330
31
100
AcDbEntity
  8
0
 62
4
370
9
 60
1
100
AcDbCircle
 10
31.98764666583156
 20
37.63329239765548
 30
0.0
 40
0.5
100
AcDbArc
 50
0.0
 51
101.3099324738566
  0
LINE
  5
A6
330
31
100
AcDbEntity
  8
0
 62
4
370
9
 60
1
100
AcDbLine
 10
27.98764666583156
 20
4.443194349009297
 30
0.0
 11
31.8895885982638
 21
3.362805962515574
 31
0.0
  0
LINE
  5
A7
330
31
100
AcDbEntity
  8
0
 62
4
370
9
 60
1
100
AcDbLine
 10
30.98764666583156
 20
26.24319434901221
 30
0.0
 11
30.98764666583156
 21
16.2431943490122
 31
0.0
  0
LINE
  5
A8
330
31
100
AcDbEntity
  8
0
 62
4
370
9
 60
1
100
AcDbLine
 10
30.98764666583156
 20
26.24319434901221
 30
0.0
 11
31.98764666583156
 21
25.57652768235524
 31
0.0
  0
LINE
  5
A9
330
31
100
AcDbEntity
  8
0
 62
4
370
9
 60
1
100
AcDbLine
 10
30.98764666583156
 20
16.2431943490122
 30
0.0
 11
31.98764666584612
 21
16.90986101568372
 31
0.0
  0
LINE
  5
AA
330
31
100
AcDbEntity
  8
0
 62
4
370
9
 60
1
100
AcDbLine
 10
-1.512353334168437
 20
-0.5068056509877917
 30
0.0
 11
-1.512353334168437
 21
0.9931943490122083
 31
0.0
  0
LINE
  5
AB
330
31
100
AcDbEntity
  8
0
 62
4
370
9
 60
1
100
AcDbLine
 10
4.487646665831562
 20
0.9931943490122083
 30
0.0
 11
4.487646665831562
 21
-0.5068056509877917
 31
0.0
  0
LINE
  5
AC
330
31
100
AcDbEntity
  8
0
 62
4
370
9
 60
1
100
AcDbLine
 10
25.48764666583156
 20
40.4931943490122
 30
0.0
 11
27.98764666583156
 21
37.04319434901512
 31
0.0
  0
LINE
  5
AD
330
31
100
AcDbEntity
  8
0
 62
4
370
9
 60
1
100
AcDbLine
 10
27.98764666583156
 20
4.443194349009297
 30
0.0
 11
23.98764666583156
 21
0.9931943490122083
 31
0.0
  0
LINE
  5
AE
330
31
100
AcDbEntity
  8
0
 62
4
370
9
 60
1
100
AcDbLine
 10
32.23764666584612
 20
17.24319434901221
 30
0.0
 11
32.23764666584612
 21
17.24319434901221
 31
0.0
  0
ARC
  5
AF
330
31
100
AcDbEntity
  8
0
 62
4
370
9
 60
1
100
AcDbCircle
 10
32.23764666584612
 20
16.99319434901221
 30
0.0
 40
0.25
100
AcDbArc
 50
90.0
 51
180.0000000025013
  0
LINE
  5
B0
330
31
100
AcDbEntity
  8
0
 62
4
370
9
 60
1
100
AcDbLine
 10
32.23764666581701
 20
25.24319434901948
 30
0.0
 11
32.23764666583156
 21
25.24319434901948
 31
0.0
  0
ARC
  5
B1
330
31
100
AcDbEntity
  8
0
 62
4
370
9
 60
1
100
AcDbCircle
 10
32.23764666583156
 20
25.49319434901948
 30
0.0
 40
0.25
100
AcDbArc
 50
180.0
 51
270.0
  0
ARC
  5
B2
330
31
100
AcDbEntity
  8
0
 62
4
370
9
 60
1
100
AcDbCircle
 10
32.23764666581701
 20
25.49319434901948
 30
0.0
 40
0.25
100
AcDbArc
 50
270.0
 51
0.0
  0
LINE
  5
B3
330
31
100
AcDbEntity
  8
0
 62
4
370
9
 60
1
100
AcDbLine
 10
31.98764666584612
 20
16.99319434899765
 30
0.0
 11
31.98764666584612
 21
16.90986101568372
 31
0.0
  0
LINE
  5
B4
330
31
100
AcDbEntity
  8
0
 62
4
370
9
 60
1
100
AcDbLine
 10
31.98764666583156
 20
25.49319434901948
 30
0.0
 11
31.98764666583156
 21
25.57652768235524
 31
0.0
  0
LINE
  5
B5
330
31
100
AcDbEntity
  8
0
 62
4
370
9
 60
1
100
AcDbLine
 10
4.487646665831562
 20
0.9931943490122083
 30
0.0
 11
23.98764666583156
 21
0.9931943490122083
 31
0.0
  0
LINE
  5
B6
330
31
100
AcDbEntity
  8
0
 62
4
370
9
 60
1
100
AcDbLine
 10
-1.512353334168437
 20
-0.5068056509877917
 30
0.0
 11
-1.512353334168437
 21
4.793194349015118
 31
0.0
  0
LINE
  5
B7
330
31
100
AcDbEntity
  8
0
 62
4
370
9
 60
1
100
AcDbLine
 10
-0.512353334153886
 20
5.793194349015118
 30
0.0
 11
0.4876466658315622
 21
5.793194349015118
 31
0.0
  0
LINE
  5
B8
330
31
100
AcDbEntity
  8
0
 62
4
370
9
 60
1
100
AcDbLine
 10
0.4876466658315622
 20
5.793194349015118
 30
0.0
 11
0.4876466658315622
 21
4.193194349009297
 31
0.0
  0
LINE
  5
B9
330
31
100
AcDbEntity
  8
0
 62
4
370
9
 60
1
100
AcDbLine
 10
0.4876466658315622
 20
4.193194349009297
 30
0.0
 11
3.487646665831562
 21
4.193194349009297
 31
0.0
  0
LINE
  5
BA
330
31
100
AcDbEntity
  8
0
 62
4
370
9
 60
1
100
AcDbLine
 10
1.887646665825741
 20
5.393194349006387
 30
0.0
 11
4.687646665828651
 21
5.393194349006387
 31
0.0
  0
LINE
  5
BB
330
31
100
AcDbEntity
  8
0
 62
4
370
9
 60
1
100
AcDbLine
 10
3.487646665831562
 20
4.193194349009297
 30
0.0
 11
3.487646665831562
 21
2.693194349009297
 31
0.0
  0
LINE
  5
BC
330
31
100
AcDbEntity
  8
0
 62
4
370
9
 60
1
100
AcDbLine
 10
4.687646665828651
 20
5.393194349006387
 30
0.0
 11
4.687646665814099
 21
3.893194349006387
 31
0.0
  0
LINE
  5
BD
330
31
100
AcDbEntity
  8
0
 62
4
370
9
 60
1
100
AcDbLine
 10
3.487646665831562
 20
2.693194349009297
 30
0.0
 11
11.48764666583156
 21
2.693194349009297
 31
0.0
  0
LINE
  5
BE
330
31
100
AcDbEntity
  8
0
 62
4
370
9
 60
1
100
AcDbLine
 10
4.687646665814099
 20
3.893194349006387
 30
0.0
 11
11.48764666583156
 21
3.893194349006387
 31
0.0
  0
LINE
  5
BF
330
31
100
AcDbEntity
  8
0
 62
4
370
9
 60
1
100
AcDbLine
 10
-1.512353334168437
 20
-0.5068056509877917
 30
0.0
 11
-1.512353334153885
 21
4.793194349015118
 31
0.0
  0
ARC
  5
C0
330
31
100
AcDbEntity
  8
0
 62
4
370
9
 60
1
100
AcDbCircle
 10
-0.512353334153886
 20
4.793194349015118
 30
0.0
 40
1.0
100
AcDbArc
 50
90.0
 51
180.0
  0
LINE
  5
C1
330
31
100
AcDbEntity
  8
0
 62
4
370
9
 60
1
100
AcDbLine
 10
-1.512353334168437
 20
12.49319434901221
 30
0.0
 11
-1.512353334168437
 21
14.49319434901221
 31
0.0
  0
LINE
  5
C2
330
31
100
AcDbEntity
  8
0
 62
4
370
9
 60
1
100
AcDbLine
 10
-1.512353334168437
 20
12.49319434901221
 30
0.0
 11
0.6876466658286517
 21
12.49319434901221
 31
0.0
  0
LINE
  5
C3
330
31
100
AcDbEntity
  8
0
 62
4
370
9
 60
1
100
AcDbLine
 10
1.887646665825741
 20
8.893194349006388
 30
0.0
 11
0.6876466658286517
 21
12.49319434901221
 31
0.0
  0
LINE
  5
C4
330
31
100
AcDbEntity
  8
0
 62
4
370
9
 60
1
100
AcDbLine
 10
11.48764666583156
 20
2.693194349009297
 30
0.0
 11
11.48764666583156
 21
3.893194349006387
 31
0.0
  0
LWPOLYLINE
  5
C5
330
31
100
AcDbEntity
  8
0
 62
4
370
9
 60
1
100
AcDbPolyline
 90
2
 70
0
 10
-1.512353334168437
 20
29.49319434901948
 10
-1.512353334168437
 20
31.49319434901948
  0
LINE
  5
C6
330
31
100
AcDbEntity
  8
0
 62
4
370
9
 60
1
100
AcDbLine
 10
-1.512353334168437
 20
31.49319434901948
 30
0.0
 11
-1.512353334168437
 21
29.49319434901948
 31
0.0
  0
LINE
  5
C7
330
31
100
AcDbEntity
  8
0
 62
4
370
9
 60
1
100
AcDbLine
 10
-1.512353334168437
 20
31.49319434901948
 30
0.0
 11
0.6876466658286517
 21
31.49319434901948
 31
0.0
  0
LINE
  5
C8
330
31
100
AcDbEntity
  8
0
 62
4
370
9
 60
1
100
AcDbLine
 10
1.887646665825741
 20
34.48843668579197
 30
0.0
 11
0.6876466658286517
 21
31.49319434901948
 31
0.0
  0
LINE
  5
C9
330
31
100
AcDbEntity
  8
0
 62
4
370
9
 60
1
100
AcDbLine
 10
-1.512353334168437
 20
40.4931943490122
 30
0.0
 11
-1.512353334168437
 21
39.49319434901221
 31
0.0
  0
LINE
  5
CA
330
31
100
AcDbEntity
  8
0
 62
4
370
9
 60
1
100
AcDbLine
 10
0.0876466658373829
 20
37.99319434901221
 30
0.0
 11
0.8876466658257413
 21
37.99319434901221
 31
0.0
  0
LINE
  5
CB
330
31
100
AcDbEntity
  8
0
 62
4
370
9
 60
1
100
AcDbLine
 10
1.887646665825741
 20
35.0931943490253
 30
0.0
 11
1.887646665825741
 21
38.99319434901221
 31
0.0
  0
LINE
  5
CC
330
31
100
AcDbEntity
  8
0
 62
4
370
9
 60
1
100
AcDbLine
 10
1.887646665825741
 20
38.99319434901221
 30
0.0
 11
0.8876466658257413
 21
38.99319434901221
 31
0.0
  0
LINE
  5
CD
330
31
100
AcDbEntity
  8
0
 62
4
370
9
 60
1
100
AcDbLine
 10
0.8876466658257413
 20
38.99319434901221
 30
0.0
 11
0.8876466658257413
 21
37.99319434901221
 31
0.0
  0
LINE
  5
CE
330
31
100
AcDbEntity
  8
0
 62
4
370
9
 60
1
100
AcDbLine
 10
0.8876466658257413
 20
37.99319434901221
 30
0.0
 11
0.087646665822831
 21
37.99319434901221
 31
0.0
  0
LINE
  5
CF
330
31
100
AcDbEntity
  8
0
 62
4
370
9
 60
1
100
AcDbLine
 10
-1.512353334168437
 20
39.49319434901221
 30
0.0
 11
0.0876466658373829
 21
37.99319434901221
 31
0.0
  0
CIRCLE
  5
D0
330
31
100
AcDbEntity
  8
0
 62
4
370
9
 60
1
100
AcDbCircle
 10
28.19136792358768
 20
21.27597650554193
 30
0.0
 40
1.749999999999154
  0
LWPOLYLINE
  5
D1
330
31
100
AcDbEntity
  8
0
 62
4
370
9
 60
1
100
AcDbPolyline
 90
8
 70
1
 10
4.446241259749513
 20
8.00825081422621
 10
4.446241259749513
 20
8.00825081422621
 42
0.4142135623730951
 10
5.446241259749513
 20
9.00825081422621
 10
5.446241259749513
 20
37.49319434901221
 42
0.4142135623730951
 10
4.446241259749513
 20
38.49319434901221
 10
4.446241259749513
 20
38.49319434901221
 42
0.4142135623730951
 10
3.446241259749513
 20
37.49319434901221
 10
3.446241259749513
 20
9.00825081422621
 42
0.4142135623730951
  0
LWPOLYLINE
  5
D2
330
31
100
AcDbEntity
  8
0
 62
4
370
9
 60
1
100
AcDbPolyline
 90
6
 70
1
 10
4.446241259749513
 20
8.208250814223298
 42
0.4142135623730951
 10
5.246241259752423
 20
9.00825081422621
 10
5.246241259752423
 20
37.49319434901221
 42
0.4142135623730951
 10
4.446241259749513
 20
38.29319434901512
 42
0.4142135623730951
 10
3.646241259746602
 20
37.49319434901221
 10
3.646241259746602
 20
9.00825081422621
 42
0.4142135623730951
  0
MTEXT
  5
D3
330
31
100
AcDbEntity
  8
0
 62
4
370
9
 60
1
100
AcDbMText
 10
21.86682933896372
 20
30.55006779385106
 30
0.0
 40
1.83708
 41
28.13669428848179
 46
0.0
 71
2
 72
5
  1
{\fTimes New Roman|b0|i0|c0|p18;\C7;HYBT25A\P600Vmax\P25A\P(6.0mm2)               }
  7
ARIAL
 11
-2e-16
 21
-1.0
 31
0.0
  0
LWPOLYLINE
  5
D4
330
31
100
AcDbEntity
  8
0
 62
4
370
9
 60
1
100
AcDbPolyline
 90
2
 70
0
 10
-1.512353334168437
 20
29.49319434901221
 10
-1.512353334168437
 20
31.49319434901221
  0
LINE
  5
D5
330
31
100
AcDbEntity
  8
0
 62
4
370
9
 60
1
100
AcDbLine
 10
-1.512353334168437
 20
31.49319434901221
 30
0.0
 11
-1.512353334168437
 21
29.49319434901221
 31
0.0
  0
LINE
  5
D6
330
31
100
AcDbEntity
  8
0
 62
4
370
9
 60
1
100
AcDbLine
 10
-1.512353334168437
 20
31.49319434901221
 30
0.0
 11
0.6876466658286517
 21
31.49319434901221
 31
0.0
  0
LINE
  5
D7
330
31
100
AcDbEntity
  8
0
 62
4
370
9
 60
1
100
AcDbLine
 10
1.887646665825741
 20
8.893194349006388
 30
0.0
 11
1.887646665825741
 21
5.393194349006387
 31
0.0
  0
LINE
  5
D8
330
31
100
AcDbEntity
  8
0
 62
4
370
9
 60
1
100
AcDbLine
 10
-1.512353334168437
 20
29.49319434901221
 30
0.0
 11
2.0
 21
29.49319434901221
 31
0.0
  0
LINE
  5
D9
330
31
100
AcDbEntity
  8
0
 62
4
370
9
 60
1
100
AcDbLine
 10
2.0
 20
29.49319434901221
 30
0.0
 11
2.0
 21
14.49319434901221
 31
0.0
  0
LINE
  5
DA
330
31
100
AcDbEntity
  8
0
 62
4
370
9
 60
1
100
AcDbLine
 10
-1.512353334168437
 20
14.49319434901221
 30
0.0
 11
2.0
 21
14.49319434901221
 31
0.0
  0
LWPOLYLINE
  5
DB
330
31
100
AcDbEntity
  8
0
 62
7
370
9
 60
1
100
AcDbPolyline
 90
4
 70
1
 10
9.505350691877538
 20
37.54122926976228
 10
23.47512923747126
 20
37.54122926976228
 10
23.47512923747126
 20
23.66307699517014
 10
9.505350691877538
 20
23.66307699517014
  0
LINE
  5
DC
330
31
100
AcDbEntity
  8
0
 62
7
370
9
 60
1
100
AcDbLine
 10
1.887646665825741
 20
38.99319434901221
 30
0.0
 11
1.887646665825741
 21
34.59319434901803
 31
0.0
  0
LINE
  5
DD
330
31
100
AcDbEntity
  8
0
 62
7
370
9
 60
1
100
AcDbLine
 10
0.9276466658193385
 20
35.09319434901803
 30
0.0
 11
-4.612353334174258
 21
35.09319434901803
 31
0.0
  0
LINE
  5
DE
330
31
100
AcDbEntity
  8
0
 62
7
370
9
 60
1
100
AcDbLine
 10
-4.112353334174265
 20
33.59319434901803
 30
0.0
 11
-4.112353334174265
 21
9.593194349025305
 31
0.0
  0
LINE
  5
DF
330
31
100
AcDbEntity
  8
0
 62
7
370
9
 60
1
100
AcDbLine
 10
1.887646665825741
 20
38.99319434901221
 30
0.0
 11
1.37588656990556
 21
38.99319434901221
 31
0.0
  0
LINE
  5
E0
330
31
100
AcDbEntity
  8
0
 62
7
370
9
 60
1
100
AcDbLine
 10
1.387646665825741
 20
34.09319434901803
 30
0.0
 11
-3.612353334174265
 21
34.09319434901803
 31
0.0
  0
LINE
  5
E1
330
31
100
AcDbEntity
  8
0
 62
7
370
9
 60
1
100
AcDbLine
 10
0.9276466658193385
 20
35.09319434901803
 30
0.0
 11
1.076126282292534
 21
38.80518476052051
 31
0.0
  0
ARC
  5
E2
330
31
100
AcDbEntity
  8
0
 62
7
370
9
 60
1
100
AcDbCircle
 10
1.37427014908637
 20
38.66279960995704
 30
0.0
 40
0.3303986931113237
100
AcDbArc
 50
89.71968878133102
 51
154.4721673009442
  0
LINE
  5
E3
330
31
100
AcDbEntity
  8
0
 62
7
370
9
 60
1
100
AcDbLine
 10
1.887646665825741
 20
4.193194349009297
 30
0.0
 11
1.887646665825741
 21
8.593194349025305
 31
0.0
  0
LINE
  5
E4
330
31
100
AcDbEntity
  8
0
 62
7
370
9
 60
1
100
AcDbLine
 10
1.387646665825741
 20
9.093194349025305
 30
0.0
 11
-3.612353334174265
 21
9.093194349025305
 31
0.0
  0
LINE
  5
E5
330
31
100
AcDbEntity
  8
0
 62
7
370
9
 60
1
100
AcDbLine
 10
0.4472468256931635
 20
8.093194349025305
 30
0.0
 11
-4.612353334174265
 21
8.093194349025305
 31
0.0
  0
LINE
  5
E6
330
31
100
AcDbEntity
  8
0
 62
7
370
9
 60
1
100
AcDbLine
 10
1.887646665825741
 20
4.193194349009297
 30
0.0
 11
1.37588656990556
 21
4.193194349009297
 31
0.0
  0
LINE
  5
E7
330
31
100
AcDbEntity
  8
0
 62
7
370
9
 60
1
100
AcDbLine
 10
1.387646665825741
 20
9.093194349025305
 30
0.0
 11
0.8876466658257413
 21
9.093194349025305
 31
0.0
  0
LINE
  5
E8
330
31
100
AcDbEntity
  8
0
 62
7
370
9
 60
1
100
AcDbLine
 10
0.9468473050539856
 20
7.6131783682015
 30
0.0
 11
1.076126282292534
 21
4.381203937522821
 31
0.0
  0
ARC
  5
E9
330
31
100
AcDbEntity
  8
0
 62
7
370
9
 60
1
100
AcDbCircle
 10
1.352490233454822
 20
4.488863445459889
 30
0.0
 40
0.2965933295836283
100
AcDbArc
 50
201.2837485331707
 51
274.5243953791481
  0
LINE
  5
EA
330
31
100
AcDbEntity
  8
0
 62
7
370
9
 60
1
100
AcDbLine
 10
-5.112353334174258
 20
34.59319434901803
 30
0.0
 11
-5.112353334174265
 21
8.593194349025305
 31
0.0
  0
ARC
  5
EB
330
31
100
AcDbEntity
  8
0
 62
7
370
9
 60
1
100
AcDbCircle
 10
1.387646665825741
 20
8.593194349025305
 30
0.0
 40
0.5
100
AcDbArc
 50
0.0
 51
90.0
  0
ARC
  5
EC
330
31
100
AcDbEntity
  8
0
 62
7
370
9
 60
1
100
AcDbCircle
 10
0.4472468256931635
 20
7.593194349025305
 30
0.0
 40
0.5
100
AcDbArc
 50
2.290610042840365
 51
90.0
  0
ARC
  5
ED
330
31
100
AcDbEntity
  8
0
 62
7
370
9
 60
1
100
AcDbCircle
 10
-3.612353334174265
 20
33.59319434901803
 30
0.0
 40
0.5
100
AcDbArc
 50
90.0
 51
180.0
  0
ARC
  5
EE
330
31
100
AcDbEntity
  8
0
 62
7
370
9
 60
1
100
AcDbCircle
 10
-4.612353334174258
 20
34.59319434901803
 30
0.0
 40
0.5
100
AcDbArc
 50
90.0
 51
180.0
  0
ARC
  5
EF
330
31
100
AcDbEntity
  8
0
 62
7
370
9
 60
1
100
AcDbCircle
 10
-3.612353334174265
 20
9.593194349025305
 30
0.0
 40
0.5
100
AcDbArc
 50
180.0
 51
270.0
  0
ARC
  5
F0
330
31
100
AcDbEntity
  8
0
 62
7
370
9
 60
1
100
AcDbCircle
 10
-4.612353334174265
 20
8.593194349025305
 30
0.0
 40
0.5
100
AcDbArc
 50
180.0
 51
270.0
  0
ARC
  5
F1
330
31
100
AcDbEntity
  8
0
 62
7
370
9
 60
1
100
AcDbCircle
 10
1.387646665825741
 20
34.59319434901803
 30
0.0
 40
0.5
100
AcDbArc
 50
270.0
 51
0.0
  0
ENDBLK
  5
33
330
31
100
AcDbEntity
  8
0
100
AcDbBlockEnd
  0
ENDSEC
  0
SECTION
  2
ENTITIES
  0
INSERT
  5
2F
330
17
100
AcDbEntity
  8
0
100
AcDbBlockReference
  2
*U395
 10
5.112353334174259
 20
0.5068056509880989
 30
0.0
  0
ENDSEC
  0
SECTION
  2
OBJECTS
  0
DICTIONARY
  5
A
330
0
100
AcDbDictionary
281
1
  3
ACAD_COLOR
350
B
  3
ACAD_GROUP
350
C
  3
ACAD_LAYOUT
350
D
  3
ACAD_MATERIAL
350
E
  3
ACAD_MLEADERSTYLE
350
F
  3
ACAD_MLINESTYLE
350
10
  3
ACAD_PLOTSETTINGS
350
11
  3
ACAD_PLOTSTYLENAME
350
12
  3
ACAD_SCALELIST
350
14
  3
ACAD_TABLESTYLE
350
15
  3
ACAD_VISUALSTYLE
350
16
  3
EZDXF_META
350
2D
  0
DICTIONARY
  5
B
330
A
100
AcDbDictionary
281
1
  0
DICTIONARY
  5
C
330
A
100
AcDbDictionary
281
1
  0
DICTIONARY
  5
D
330
A
100
AcDbDictionary
281
1
  3
Model
350
1A
  3
Layout1
350
1E
  0
DICTIONARY
  5
E
330
A
100
AcDbDictionary
281
1
  3
ByBlock
350
1F
  3
ByLayer
350
20
  3
Global
350
21
  0
DICTIONARY
  5
F
330
A
100
AcDbDictionary
281
1
  3
Standard
350
2C
  0
DICTIONARY
  5
10
330
A
100
AcDbDictionary
281
1
  3
Standard
350
22
  0
DICTIONARY
  5
11
330
A
100
AcDbDictionary
281
1
  0
ACDBDICTIONARYWDFLT
  5
12
330
A
100
AcDbDictionary
281
1
  3
Normal
350
13
100
AcDbDictionaryWithDefault
340
13
  0
ACDBPLACEHOLDER
  5
13
330
12
  0
DICTIONARY
  5
14
330
A
100
AcDbDictionary
281
1
  0
DICTIONARY
  5
15
330
A
100
AcDbDictionary
281
1
  0
DICTIONARY
  5
16
330
A
100
AcDbDictionary
281
1
  0
LAYOUT
  5
1A
330
D
100
AcDbPlotSettings
  1

  4
A3
  6

 40
7.5
 41
20.0
 42
7.5
 43
20.0
 44
420.0
 45
297.0
 46
0.0
 47
0.0
 48
0.0
 49
0.0
140
0.0
141
0.0
142
1.0
143
1.0
 70
1024
 72
1
 73
0
 74
5
  7

 75
16
 76
0
 77
2
 78
300
147
1.0
148
0.0
149
0.0
100
AcDbLayout
  1
Model
 70
1
 71
0
 10
0.0
 20
0.0
 11
420.0
 21
297.0
 12
0.0
 22
0.0
 32
0.0
 14
1e+20
 24
1e+20
 34
1e+20
 15
-1e+20
 25
-1e+20
 35
-1e+20
146
0.0
 13
0.0
 23
0.0
 33
0.0
 16
1.0
 26
0.0
 36
0.0
 17
0.0
 27
1.0
 37
0.0
 76
1
330
17
  0
LAYOUT
  5
1E
330
D
100
AcDbPlotSettings
  1

  4
A3
  6

 40
7.5
 41
20.0
 42
7.5
 43
20.0
 44
420.0
 45
297.0
 46
0.0
 47
0.0
 48
0.0
 49
0.0
140
0.0
141
0.0
142
1.0
143
1.0
 70
0
 72
1
 73
0
 74
5
  7

 75
16
 76
0
 77
2
 78
300
147
1.0
148
0.0
149
0.0
100
AcDbLayout
  1
Layout1
 70
1
 71
1
 10
0.0
 20
0.0
 11
420.0
 21
297.0
 12
0.0
 22
0.0
 32
0.0
 14
1e+20
 24
1e+20
 34
1e+20
 15
-1e+20
 25
-1e+20
 35
-1e+20
146
0.0
 13
0.0
 23
0.0
 33
0.0
 16
1.0
 26
0.0
 36
0.0
 17
0.0
 27
1.0
 37
0.0
 76
1
330
1B
  0
MATERIAL
  5
1F
102
{ACAD_REACTORS
330
E
102
}
330
E
100
AcDbMaterial
  1
ByBlock
  2

 70
0
 40
1.0
 71
1
 41
1.0
 91
-1023410177
 42
1.0
 72
1
  3

 73
1
 74
1
 75
1
 44
0.5
 73
0
 45
1.0
 46
1.0
 77
1
  4

 78
1
 79
1
170
1
 48
1.0
171
1
  6

172
1
173
1
174
1
140
1.0
141
1.0
175
1
  7

176
1
177
1
178
1
143
1.0
179
1
  8

270
1
271
1
272
1
145
1.0
146
1.0
273
1
  9

274
1
275
1
276
1
 42
1.0
 72
1
  3

 73
1
 74
1
 75
1
 94
63
  0
MATERIAL
  5
20
102
{ACAD_REACTORS
330
E
102
}
330
E
100
AcDbMaterial
  1
ByLayer
  2

 70
0
 40
1.0
 71
1
 41
1.0
 91
-1023410177
 42
1.0
 72
1
  3

 73
1
 74
1
 75
1
 44
0.5
 73
0
 45
1.0
 46
1.0
 77
1
  4

 78
1
 79
1
170
1
 48
1.0
171
1
  6

172
1
173
1
174
1
140
1.0
141
1.0
175
1
  7

176
1
177
1
178
1
143
1.0
179
1
  8

270
1
271
1
272
1
145
1.0
146
1.0
273
1
  9

274
1
275
1
276
1
 42
1.0
 72
1
  3

 73
1
 74
1
 75
1
 94
63
  0
MATERIAL
  5
21
102
{ACAD_REACTORS
330
E
102
}
330
E
100
AcDbMaterial
  1
Global
  2

 70
0
 40
1.0
 71
1
 41
1.0
 91
-1023410177
 42
1.0
 72
1
  3

 73
1
 74
1
 75
1
 44
0.5
 73
0
 45
1.0
 46
1.0
 77
1
  4

 78
1
 79
1
170
1
 48
1.0
171
1
  6

172
1
173
1
174
1
140
1.0
141
1.0
175
1
  7

176
1
177
1
178
1
143
1.0
179
1
  8

270
1
271
1
272
1
145
1.0
146
1.0
273
1
  9

274
1
275
1
276
1
 42
1.0
 72
1
  3

 73
1
 74
1
 75
1
 94
63
  0
MLINESTYLE
  5
22
102
{ACAD_REACTORS
330
10
102
}
330
10
100
AcDbMlineStyle
  2
Standard
 70
0
  3

 62
256
 51
90.0
 52
90.0
 71
2
 49
0.5
 62
256
  6
BYLAYER
 49
-0.5
 62
256
  6
BYLAYER
  0
MLEADERSTYLE
  5
2C
102
{ACAD_REACTORS
330
F
102
}
330
F
100
AcDbMLeaderStyle
179
2
170
2
171
1
172
0
 90
2
 40
0.0
 41
0.0
173
1
 91
-1056964608
 92
-2
290
1
 42
2.0
291
1
 43
8.0
  3
Standard
 44
4.0
300

342
29
174
1
175
1
176
0
178
1
 93
-1056964608
 45
4.0
292
0
297
0
 46
4.0
 94
-1056964608
 47
1.0
 49
1.0
140
1.0
294
1
141
0.0
177
0
142
1.0
295
0
296
0
143
3.75
271
0
272
9
273
9
  0
DICTIONARY
  5
2D
330
A
100
AcDbDictionary
280
1
281
1
  3
CREATED_BY_EZDXF
350
2E
  3
WRITTEN_BY_EZDXF
350
F6
  0
DICTIONARYVAR
  5
2E
330
2D
100
DictionaryVariables
280
0
  1
1.4.4 @ 2026-09-23T14:03:18.473638+00:00
  0
DICTIONARYVAR
  5
F6
330
2D
100
DictionaryVariables
280
0
  1
1.4.4 @ 2026-09-23T14:03:18.542982+00:00
  0
ENDSEC
  0
EOF
