  0
SECTION
  2
HEADER
  9
$ACADVER
  1
AC1032
  9
$ACADMAINTVER
 90
4
  9
$DWGCODEPAGE
  3
ANSI_1252
  9
$LASTSAVEDBY
  1
ezdxf
  9
$REQUIREDVERSIONS
160
0
  9
$INSBASE
 10
0.0
 20
0.0
 30
0.0
  9
$EXTMIN
 10
1e+20
 20
1e+20
 30
1e+20
  9
$EXTMAX
 10
-1e+20
 20
-1e+20
 30
-1e+20
  9
$LIMMIN
 10
0.0
 20
0.0
  9
$LIMMAX
 10
420.0
 20
297.0
  9
$ORTHOMODE
 70
0
  9
$REGENMODE
 70
1
  9
$FILLMODE
 70
1
  9
$QTEXTMODE
 70
0
  9
$MIRRTEXT
 70
1
  9
$LTSCALE
 40
1.0
  9
$ATTMODE
 70
1
  9
$TEXTSIZE
 40
2.5
  9
$TRACEWID
 40
1.0
  9
$TEXTSTYLE
  7
Standard
  9
$CLAYER
  8
0
  9
$CELTYPE
  6
ByLayer
  9
$CECOLOR
 62
256
  9
$CELTSCALE
 40
1.0
  9
$DISPSILH
 70
0
  9
$DIMSCALE
 40
1.0
  9
$DIMASZ
 40
2.5
  9
$DIMEXO
 40
0.625
  9
$DIMDLI
 40
3.75
  9
$DIMRND
 40
0.0
  9
$DIMDLE
 40
0.0
  9
$DIMEXE
 40
1.25
  9
$DIMTP
 40
0.0
  9
$DIMTM
 40
0.0
  9
$DIMTXT
 40
2.5
  9
$DIMCEN
 40
2.5
  9
$DIMTSZ
 40
0.0
  9
$DIMTOL
 70
0
  9
$DIMLIM
 70
0
  9
$DIMTIH
 70
0
  9
$DIMTOH
 70
0
  9
$DIMSE1
 70
0
  9
$DIMSE2
 70
0
  9
$DIMTAD
 70
1
  9
$DIMZIN
 70
8
  9
$DIMBLK
  1

  9
$DIMASO
 70
1
  9
$DIMSHO
 70
1
  9
$DIMPOST
  1

  9
$DIMAPOST
  1

  9
$DIMALT
 70
0
  9
$DIMALTD
 70
3
  9
$DIMALTF
 40
0.03937007874
  9
$DIMLFAC
 40
1.0
  9
$DIMTOFL
 70
1
  9
$DIMTVP
 40
0.0
  9
$DIMTIX
 70
0
  9
$DIMSOXD
 70
0
  9
$DIMSAH
 70
0
  9
$DIMBLK1
  1

  9
$DIMBLK2
  1

  9
$DIMSTYLE
  2
ISO-25
  9
$DIMCLRD
 70
0
  9
$DIMCLRE
 70
0
  9
$DIMCLRT
 70
0
  9
$DIMTFAC
 40
1.0
  9
$DIMGAP
 40
0.625
  9
$DIMJUST
 70
0
  9
$DIMSD1
 70
0
  9
$DIMSD2
 70
0
  9
$DIMTOLJ
 70
0
  9
$DIMTZIN
 70
8
  9
$DIMALTZ
 70
0
  9
$DIMALTTZ
 70
0
  9
$DIMUPT
 70
0
  9
$DIMDEC
 70
2
  9
$DIMTDEC
 70
2
  9
$DIMALTU
 70
2
  9
$DIMALTTD
 70
3
  9
$DIMTXSTY
  7
Standard
  9
$DIMAUNIT
 70
0
  9
$DIMADEC
 70
0
  9
$DIMALTRND
 40
0.0
  9
$DIMAZIN
 70
0
  9
$DIMDSEP
 70
44
  9
$DIMATFIT
 70
3
  9
$DIMFRAC
 70
0
  9
$DIMLDRBLK
  1

  9
$DIMLUNIT
 70
2
  9
$DIMLWD
 70
-2
  9
$DIMLWE
 70
-2
  9
$DIMTMOVE
 70
0
  9
$DIMFXL
 40
1.0
  9
$DIMFXLON
 70
0
  9
$DIMJOGANG
 40
0.785398163397
  9
$DIMTFILL
 70
0
  9
$DIMTFILLCLR
 70
0
  9
$DIMARCSYM
 70
0
  9
$DIMLTYPE
  6

  9
$DIMLTEX1
  6

  9
$DIMLTEX2
  6

  9
$DIMTXTDIRECTION
 70
0
  9
$LUNITS
 70
2
  9
$LUPREC
 70
4
  9
$SKETCHINC
 40
1.0
  9
$FILLETRAD
 40
10.0
  9
$AUNITS
 70
0
  9
$AUPREC
 70
2
  9
$MENU
  1
.
  9
$ELEVATION
 40
0.0
  9
$PELEVATION
 40
0.0
  9
$THICKNESS
 40
0.0
  9
$LIMCHECK
 70
0
  9
$CHAMFERA
 40
0.0
  9
$CHAMFERB
 40
0.0
  9
$CHAMFERC
 40
0.0
  9
$CHAMFERD
 40
0.0
  9
$SKPOLY
 70
0
  9
$TDCREATE
 40
2461307.8771180557
  9
$TDUCREATE
 40
2458532.153996898
  9
$TDUPDATE
 40
2461307.8771180557
  9
$TDUUPDATE
 40
2458532.1544311
  9
$TDINDWG
 40
0.0
  9
$TDUSRTIMER
 40
0.0
  9
$USRTIMER
 70
1
  9
$ANGBASE
 50
0.0
  9
$ANGDIR
 70
0
  9
$PDMODE
 70
0
  9
$PDSIZE
 40
0.0
  9
$PLINEWID
 40
0.0
  9
$SPLFRAME
 70
0
  9
$SPLINETYPE
 70
6
  9
$SPLINESEGS
 70
8
  9
$HANDSEED
  5
171
  9
$SURFTAB1
 70
6
  9
$SURFTAB2
 70
6
  9
$SURFTYPE
 70
6
  9
$SURFU
 70
6
  9
$SURFV
 70
6
  9
$UCSBASE
  2

  9
$UCSNAME
  2

  9
$UCSORG
 10
0.0
 20
0.0
 30
0.0
  9
$UCSXDIR
 10
1.0
 20
0.0
 30
0.0
  9
$UCSYDIR
 10
0.0
 20
1.0
 30
0.0
  9
$UCSORTHOREF
  2

  9
$UCSORTHOVIEW
 70
0
  9
$UCSORGTOP
 10
0.0
 20
0.0
 30
0.0
  9
$UCSORGBOTTOM
 10
0.0
 20
0.0
 30
0.0
  9
$UCSORGLEFT
 10
0.0
 20
0.0
 30
0.0
  9
$UCSORGRIGHT
 10
0.0
 20
0.0
 30
0.0
  9
$UCSORGFRONT
 10
0.0
 20
0.0
 30
0.0
  9
$UCSORGBACK
 10
0.0
 20
0.0
 30
0.0
  9
$PUCSBASE
  2

  9
$PUCSNAME
  2

  9
$PUCSORG
 10
0.0
 20
0.0
 30
0.0
  9
$PUCSXDIR
 10
1.0
 20
0.0
 30
0.0
  9
$PUCSYDIR
 10
0.0
 20
1.0
 30
0.0
  9
$PUCSORTHOREF
  2

  9
$PUCSORTHOVIEW
 70
0
  9
$PUCSORGTOP
 10
0.0
 20
0.0
 30
0.0
  9
$PUCSORGBOTTOM
 10
0.0
 20
0.0
 30
0.0
  9
$PUCSORGLEFT
 10
0.0
 20
0.0
 30
0.0
  9
$PUCSORGRIGHT
 10
0.0
 20
0.0
 30
0.0
  9
$PUCSORGFRONT
 10
0.0
 20
0.0
 30
0.0
  9
$PUCSORGBACK
 10
0.0
 20
0.0
 30
0.0
  9
$USERI1
 70
0
  9
$USERI2
 70
0
  9
$USERI3
 70
0
  9
$USERI4
 70
0
  9
$USERI5
 70
0
  9
$USERR1
 40
0.0
  9
$USERR2
 40
0.0
  9
$USERR3
 40
0.0
  9
$USERR4
 40
0.0
  9
$USERR5
 40
0.0
  9
$WORLDVIEW
 70
1
  9
$SHADEDGE
 70
3
  9
$SHADEDIF
 70
70
  9
$TILEMODE
 70
1
  9
$MAXACTVP
 70
64
  9
$PINSBASE
 10
0.0
 20
0.0
 30
0.0
  9
$PLIMCHECK
 70
0
  9
$PEXTMIN
 10
1e+20
 20
1e+20
 30
1e+20
  9
$PEXTMAX
 10
-1e+20
 20
-1e+20
 30
-1e+20
  9
$PLIMMIN
 10
0.0
 20
0.0
  9
$PLIMMAX
 10
420.0
 20
297.0
  9
$UNITMODE
 70
0
  9
$VISRETAIN
 70
1
  9
$PLINEGEN
 70
0
  9
$PSLTSCALE
 70
1
  9
$TREEDEPTH
 70
3020
  9
$CMLSTYLE
  2
Standard
  9
$CMLJUST
 70
0
  9
$CMLSCALE
 40
20.0
  9
$PROXYGRAPHICS
 70
1
  9
$MEASUREMENT
 70
1
  9
$CELWEIGHT
370
-1
  9
$ENDCAPS
280
0
  9
$JOINSTYLE
280
0
  9
$LWDISPLAY
290
0
  9
$INSUNITS
 70
4
  9
$HYPERLINKBASE
  1

  9
$STYLESHEET
  1

  9
$XEDIT
290
1
  9
$CEPSNTYPE
380
0
  9
$PSTYLEMODE
290
1
  9
$FINGERPRINTGUID
  2
{B1D1E0F8-909C-4BCA-A0BC-A7444EACA9A5}
  9
$VERSIONGUID
  2
{5E95C905-E775-4685-AE0E-14B612A9E2CC}
  9
$EXTNAMES
290
1
  9
$PSVPSCALE
 40
0.0
  9
$OLESTARTUP
290
0
  9
$SORTENTS
280
127
  9
$INDEXCTL
280
0
  9
$HIDETEXT
280
1
  9
$XCLIPFRAME
280
1
  9
$HALOGAP
280
0
  9
$OBSCOLOR
 70
257
  9
$OBSLTYPE
280
0
  9
$INTERSECTIONDISPLAY
280
0
  9
$INTERSECTIONCOLOR
 70
257
  9
$DIMASSOC
280
2
  9
$PROJECTNAME
  1

  9
$CAMERADISPLAY
290
0
  9
$LENSLENGTH
 40
50.0
  9
$CAMERAHEIGHT
 40
0.0
  9
$STEPSPERSEC
 40
24.0
  9
$STEPSIZE
 40
100.0
  9
$3DDWFPREC
 40
2.0
  9
$PSOLWIDTH
 40
0.005
  9
$PSOLHEIGHT
 40
0.08
  9
$LOFTANG1
 40
1.570796326795
  9
$LOFTANG2
 40
1.570796326795
  9
$LOFTMAG1
 40
0.0
  9
$LOFTMAG2
 40
0.0
  9
$LOFTPARAM
 70
7
  9
$LOFTNORMALS
280
1
  9
$LATITUDE
 40
37.795
  9
$LONGITUDE
 40
-122.394
  9
$NORTHDIRECTION
 40
0.0
  9
$TIMEZONE
 70
-8000
  9
$LIGHTGLYPHDISPLAY
280
1
  9
$TILEMODELIGHTSYNCH
280
1
  9
$CMATERIAL
347
20
  9
$SOLIDHIST
280
0
  9
$SHOWHIST
280
1
  9
$DWFFRAME
280
2
  9
$DGNFRAME
280
2
  9
$REALWORLDSCALE
290
1
  9
$INTERFERECOLOR
 62
256
  9
$CSHADOW
280
0
  9
$SHADOWPLANELOCATION
 40
0.0
  0
ENDSEC
  0
SECTION
  2
CLASSES
  0
CLASS
  1
ACDBDICTIONARYWDFLT
  2
AcDbDictionaryWithDefault
  3
ObjectDBX Classes
 90
0
 91
0
280
0
281
0
  0
CLASS
  1
SUN
  2
AcDbSun
  3
SCENEOE
 90
1153
 91
0
280
0
281
0
  0
CLASS
  1
VISUALSTYLE
  2
AcDbVisualStyle
  3
ObjectDBX Classes
 90
4095
 91
0
280
0
281
0
  0
CLASS
  1
MATERIAL
  2
AcDbMaterial
  3
ObjectDBX Classes
 90
1153
 91
0
280
0
281
0
  0
CLASS
  1
SCALE
  2
AcDbScale
  3
ObjectDBX Classes
 90
1153
 91
0
280
0
281
0
  0
CLASS
  1
TABLESTYLE
  2
AcDbTableStyle
  3
ObjectDBX Classes
 90
4095
 91
0
280
0
281
0
  0
CLASS
  1
MLEADERSTYLE
  2
AcDbMLeaderStyle
  3
ACDB_MLEADERSTYLE_CLASS
 90
4095
 91
0
280
0
281
0
  0
CLASS
  1
DICTIONARYVAR
  2
AcDbDictionaryVar
  3
ObjectDBX Classes
 90
0
 91
0
280
0
281
0
  0
CLASS
  1
CELLSTYLEMAP
  2
AcDbCellStyleMap
  3
ObjectDBX Classes
 90
1152
 91
0
280
0
281
0
  0
CLASS
  1
MENTALRAYRENDERSETTINGS
  2
AcDbMentalRayRenderSettings
  3
SCENEOE
 90
1024
 91
0
280
0
281
0
  0
CLASS
  1
ACDBDETAILVIEWSTYLE
  2
AcDbDetailViewStyle
  3
ObjectDBX Classes
 90
1025
 91
0
280
0
281
0
  0
CLASS
  1
ACDBSECTIONVIEWSTYLE
  2
AcDbSectionViewStyle
  3
ObjectDBX Classes
 90
1025
 91
0
280
0
281
0
  0
CLASS
  1
RASTERVARIABLES
  2
AcDbRasterVariables
  3
ISM
 90
0
 91
0
280
0
281
0
  0
CLASS
  1
LAYOUT
  2
AcDbLayout
  3
ObjectDBX Classes
 90
0
 91
0
280
0
281
0
  0
CLASS
  1
ACDBPLACEHOLDER
  2
AcDbPlaceHolder
  3
ObjectDBX Classes
 90
0
 91
0
280
0
281
0
  0
ENDSEC
  0
SECTION
  2
TABLES
  0
TABLE
  2
VPORT
  5
8
330
0
100
AcDbSymbolTable
 70
1
  0
VPORT
  5
23
330
8
100
AcDbSymbolTableRecord
100
AcDbViewportTableRecord
  2
*Active
 70
0
 10
0.0
 20
0.0
 11
1.0
 21
1.0
 12
0.0
 22
0.0
 13
0.0
 23
0.0
 14
0.5
 24
0.5
 15
0.5
 25
0.5
 16
0.0
 26
0.0
 36
1.0
 17
0.0
 27
0.0
 37
0.0
 40
1000.0
 41
1.34
 42
50.0
 43
0.0
 44
0.0
 50
0.0
 51
0.0
 71
0
 72
1000
 73
1
 74
3
 75
0
 76
0
 77
0
 78
0
281
0
 65
0
146
0.0
  0
ENDTAB
  0
TABLE
  2
LTYPE
  5
2
330
0
100
AcDbSymbolTable
 70
3
  0
LTYPE
  5
24
330
2
100
AcDbSymbolTableRecord
100
AcDbLinetypeTableRecord
  2
ByBlock
 70
0
  3

 72
65
 73
0
 40
0.0
  0
LTYPE
  5
25
330
2
100
AcDbSymbolTableRecord
100
AcDbLinetypeTableRecord
  2
ByLayer
 70
0
  3

 72
65
 73
0
 40
0.0
  0
LTYPE
  5
26
330
2
100
AcDbSymbolTableRecord
100
AcDbLinetypeTableRecord
  2
Continuous
 70
0
  3

 72
65
 73
0
 40
0.0
  0
ENDTAB
  0
TABLE
  2
LAYER
  5
1
330
0
100
AcDbSymbolTable
 70
3
  0
LAYER
  5
27
330
1
100
AcDbSymbolTableRecord
100
AcDbLayerTableRecord
  2
0
 70
0
 62
7
  6
Continuous
370
-3
390
13
347
21
  0
LAYER
  5
28
330
1
100
AcDbSymbolTableRecord
100
AcDbLayerTableRecord
  2
Defpoints
 70
0
 62
7
  6
Continuous
290
0
370
-3
390
13
347
21
  0
LAYER
  5
16C
330
1
100
AcDbSymbolTableRecord
100
AcDbLayerTableRecord
  2
hw_Punch
 70
0
 62
5
  6
Continuous
370
13
390
13
347
21
  0
ENDTAB
  0
TABLE
  2
STYLE
  5
5
330
0
100
AcDbSymbolTable
 70
2
  0
STYLE
  5
29
330
5
100
AcDbSymbolTableRecord
100
AcDbTextStyleTableRecord
  2
Standard
 70
0
 40
0.0
 41
1.0
 50
0.0
 71
0
 42
2.5
  3
txt
  4

  0
STYLE
  5
16D
330
5
100
AcDbSymbolTableRecord
100
AcDbTextStyleTableRecord
  2
hw_Block
 70
0
 40
0.0
 41
0.75
 50
0.0
 71
0
 42
3.0
  3
complex.shx
  4

  0
ENDTAB
  0
TABLE
  2
VIEW
  5
7
330
0
100
AcDbSymbolTable
 70
0
  0
ENDTAB
  0
TABLE
  2
UCS
  5
6
330
0
100
AcDbSymbolTable
 70
0
  0
ENDTAB
  0
TABLE
  2
APPID
  5
3
330
0
100
AcDbSymbolTable
 70
3
  0
APPID
  5
2A
330
3
100
AcDbSymbolTableRecord
100
AcDbRegAppTableRecord
  2
ACAD
 70
0
  0
APPID
  5
16E
330
3
100
AcDbSymbolTableRecord
100
AcDbRegAppTableRecord
  2
HATCHBACKGROUNDCOLOR
 70
0
  0
APPID
  5
16F
330
3
100
AcDbSymbolTableRecord
100
AcDbRegAppTableRecord
  2
EZDXF
 70
0
  0
ENDTAB
  0
TABLE
  2
DIMSTYLE
  5
4
330
0
100
AcDbSymbolTable
 70
1
100
AcDbDimStyleTable
  0
DIMSTYLE
105
2B
330
4
100
AcDbSymbolTableRecord
100
AcDbDimStyleTableRecord
  2
Standard
 70
0
 40
1.0
 41
2.5
 42
0.625
 43
3.75
 44
1.25
 45
0.0
 46
0.0
 47
0.0
 48
0.0
 49
2.5
140
2.5
141
2.5
142
0.0
143
0.03937007874
144
1.0
145
0.0
146
1.0
147
0.625
148
0.0
 69
0
 70
0
 71
0
 72
0
 73
0
 74
0
 75
0
 76
0
 77
1
 78
8
 79
3
170
0
171
3
172
1
173
0
174
0
175
0
176
0
177
0
178
0
179
2
271
2
272
2
273
2
274
3
275
0
276
0
277
2
278
44
279
0
280
0
281
0
282
0
283
0
284
8
285
0
286
0
288
0
289
3
290
0
371
-2
372
-2
  0
ENDTAB
  0
TABLE
  2
BLOCK_RECORD
  5
9
330
0
100
AcDbSymbolTable
 70
7
  0
BLOCK_RECORD
  5
17
330
9
100
AcDbSymbolTableRecord
100
AcDbBlockTableRecord
  2
*Model_Space
340
1A
 70
0
280
1
281
0
  0
BLOCK_RECORD
  5
1B
330
9
100
AcDbSymbolTableRecord
100
AcDbBlockTableRecord
  2
*Paper_Space
340
1E
 70
0
280
1
281
0
  0
BLOCK_RECORD
  5
31
330
9
100
AcDbSymbolTableRecord
100
AcDbBlockTableRecord
  2
*U199
340
0
 70
0
280
1
281
0
  0
BLOCK_RECORD
  5
5C
330
9
100
AcDbSymbolTableRecord
100
AcDbBlockTableRecord
  2
*U191
340
0
 70
0
280
1
281
0
  0
BLOCK_RECORD
  5
9F
330
9
100
AcDbSymbolTableRecord
100
AcDbBlockTableRecord
  2
*U192
340
0
 70
0
280
1
281
0
  0
BLOCK_RECORD
  5
E4
330
9
100
AcDbSymbolTableRecord
100
AcDbBlockTableRecord
  2
*U190
340
0
 70
0
280
1
281
0
  0
BLOCK_RECORD
  5
127
330
9
100
AcDbSymbolTableRecord
100
AcDbBlockTableRecord
  2
*U193
340
0
 70
0
280
1
281
0
  0
ENDTAB
  0
ENDSEC
  0
SECTION
  2
BLOCKS
  0
BLOCK
  5
18
330
17
100
AcDbEntity
  8
0
100
AcDbBlockBegin
  2
*Model_Space
 70
0
 10
0.0
 20
0.0
 30
0.0
  3
*Model_Space
  1

  0
ENDBLK
  5
19
330
17
100
AcDbEntity
  8
0
100
AcDbBlockEnd
  0
BLOCK
  5
1C
330
1B
100
AcDbEntity
  8
0
100
AcDbBlockBegin
  2
*Paper_Space
 70
0
 10
0.0
 20
0.0
 30
0.0
  3
*Paper_Space
  1

  0
ENDBLK
  5
1D
330
1B
100
AcDbEntity
  8
0
100
AcDbBlockEnd
  0
BLOCK
  5
32
330
31
100
AcDbEntity
  8
0
100
AcDbBlockBegin
  2
*U199
 70
1
 10
0.0
 20
0.0
 30
0.0
  3
*U199
  1

  0
INSERT
  5
34
330
31
100
AcDbEntity
  8
0
 60
1
380
2
100
AcDbBlockReference
  2
*U191
 10
57.0
 20
-119.9999999999999
 30
0.0
  0
INSERT
  5
36
330
31
100
AcDbEntity
  8
0
 60
1
380
2
100
AcDbBlockReference
 66
1
  2
*U192
 10
57.0
 20
2.84e-14
 30
0.0
  0
ATTRIB
  5
37
330
36
100
AcDbEntity
  8
0
100
AcDbText
 10
78.57142857142863
 20
22.99999999999994
 30
0.0
 40
5.0
  1
500
  7
hw_Block
 72
1
 11
85.00000000000006
 21
25.49999999999994
 31
0.0
100
AcDbAttribute
  2
MAX
 70
0
 74
2
280
1
 71
1
 72
0
 11
85.00000000000006
 21
25.49999999999994
 31
0.0
  0
SEQEND
  5
38
330
36
100
AcDbEntity
  8
0
  0
INSERT
  5
39
330
31
100
AcDbEntity
  8
0
 60
1
380
2
100
AcDbBlockReference
  2
*U190
 10
-60.0
 20
-119.9999999999999
 30
0.0
  0
INSERT
  5
3B
330
31
100
AcDbEntity
  8
0
 60
1
380
2
100
AcDbBlockReference
 66
1
  2
*U193
 10
-60.0
 20
2.84e-14
 30
0.0
  0
ATTRIB
  5
3C
330
3B
100
AcDbEntity
  8
0
100
AcDbText
 10
-38.54761904761899
 20
22.99999999999994
 30
0.0
 40
5.0
  1
400
  7
hw_Block
 72
1
 11
-31.99999999999994
 21
25.49999999999994
 31
0.0
100
AcDbAttribute
  2
MAX
 70
0
 74
2
280
1
 71
1
 72
0
 11
-31.99999999999994
 21
25.49999999999994
 31
0.0
  0
SEQEND
  5
3D
330
3B
100
AcDbEntity
  8
0
  0
INSERT
  5
3E
330
31
100
AcDbEntity
  8
0
 60
1
380
2
100
AcDbBlockReference
 66
1
  2
*U193
 10
60.0
 20
2.84e-14
 30
0.0
  0
ATTRIB
  5
3F
330
3E
100
AcDbEntity
  8
0
100
AcDbText
 10
81.452380952381
 20
22.99999999999994
 30
0.0
 40
5.0
  1
400
  7
hw_Block
 72
1
 11
88.00000000000006
 21
25.49999999999994
 31
0.0
100
AcDbAttribute
  2
MAX
 70
0
 74
2
280
1
 71
1
 72
0
 11
88.00000000000006
 21
25.49999999999994
 31
0.0
  0
SEQEND
  5
40
330
3E
100
AcDbEntity
  8
0
  0
INSERT
  5
41
330
31
100
AcDbEntity
  8
0
 60
1
380
2
100
AcDbBlockReference
 66
1
  2
*U193
 10
-180.0
 20
2.84e-14
 30
0.0
  0
ATTRIB
  5
42
330
41
100
AcDbEntity
  8
0
100
AcDbText
 10
-158.547619047619
 20
22.99999999999994
 30
0.0
 40
5.0
  1
400
  7
hw_Block
 72
1
 11
-151.9999999999999
 21
25.49999999999994
 31
0.0
100
AcDbAttribute
  2
MAX
 70
0
 74
2
280
1
 71
1
 72
0
 11
-151.9999999999999
 21
25.49999999999994
 31
0.0
  0
SEQEND
  5
43
330
41
100
AcDbEntity
  8
0
  0
INSERT
  5
44
330
31
100
AcDbEntity
  8
0
 60
1
380
2
100
AcDbBlockReference
 66
1
  2
*U192
 10
180.0
 20
2.84e-14
 30
0.0
  0
ATTRIB
  5
45
330
44
100
AcDbEntity
  8
0
100
AcDbText
 10
201.5714285714286
 20
22.99999999999994
 30
0.0
 40
5.0
  1
500
  7
hw_Block
 72
1
 11
208.0
 21
25.49999999999994
 31
0.0
100
AcDbAttribute
  2
MAX
 70
0
 74
2
280
1
 71
1
 72
0
 11
208.0
 21
25.49999999999994
 31
0.0
  0
SEQEND
  5
46
330
44
100
AcDbEntity
  8
0
  0
INSERT
  5
47
330
31
100
AcDbEntity
  8
0
 60
1
380
2
100
AcDbBlockReference
  2
*U191
 10
180.0
 20
-119.9999999999999
 30
0.0
  0
INSERT
  5
49
330
31
100
AcDbEntity
  8
0
 60
1
380
2
100
AcDbBlockReference
 66
1
  2
*U193
 10
-120.0
 20
2.84e-14
 30
0.0
  0
ATTRIB
  5
4A
330
49
100
AcDbEntity
  8
0
100
AcDbText
 10
-98.547619047619
 20
22.99999999999994
 30
0.0
 40
5.0
  1
400
  7
hw_Block
 72
1
 11
-91.99999999999993
 21
25.49999999999994
 31
0.0
100
AcDbAttribute
  2
MAX
 70
0
 74
2
280
1
 71
1
 72
0
 11
-91.99999999999993
 21
25.49999999999994
 31
0.0
  0
SEQEND
  5
4B
330
49
100
AcDbEntity
  8
0
  0
INSERT
  5
4C
330
31
100
AcDbEntity
  8
0
 60
1
380
2
100
AcDbBlockReference
 66
1
  2
*U193
 10
-240.0
 20
2.84e-14
 30
0.0
  0
ATTRIB
  5
4D
330
4C
100
AcDbEntity
  8
0
100
AcDbText
 10
-218.547619047619
 20
22.99999999999994
 30
0.0
 40
5.0
  1
400
  7
hw_Block
 72
1
 11
-212.0
 21
25.49999999999994
 31
0.0
100
AcDbAttribute
  2
MAX
 70
0
 74
2
280
1
 71
1
 72
0
 11
-212.0
 21
25.49999999999994
 31
0.0
  0
SEQEND
  5
4E
330
4C
100
AcDbEntity
  8
0
  0
INSERT
  5
4F
330
31
100
AcDbEntity
  8
0
 60
1
380
2
100
AcDbBlockReference
 66
1
  2
*U193
 10
0.0
 20
2.84e-14
 30
0.0
  0
ATTRIB
  5
50
330
4F
100
AcDbEntity
  8
0
100
AcDbText
 10
21.45238095238101
 20
22.99999999999994
 30
0.0
 40
5.0
  1
400
  7
hw_Block
 72
1
 11
28.00000000000006
 21
25.49999999999994
 31
0.0
100
AcDbAttribute
  2
MAX
 70
0
 74
2
280
1
 71
1
 72
0
 11
28.00000000000006
 21
25.49999999999994
 31
0.0
  0
SEQEND
  5
51
330
4F
100
AcDbEntity
  8
0
  0
INSERT
  5
52
330
31
100
AcDbEntity
  8
0
380
2
100
AcDbBlockReference
  2
*U191
 10
-120.0
 20
-119.9999999999999
 30
0.0
  0
INSERT
  5
54
330
31
100
AcDbEntity
  8
0
380
2
100
AcDbBlockReference
 66
1
  2
*U192
 10
-120.0
 20
2.84e-14
 30
0.0
  0
ATTRIB
  5
55
330
54
100
AcDbEntity
  8
0
100
AcDbText
 10
-98.42857142857137
 20
22.99999999999994
 30
0.0
 40
5.0
  1
500
  7
hw_Block
 72
1
 11
-91.99999999999993
 21
25.49999999999994
 31
0.0
100
AcDbAttribute
  2
MAX
 70
0
 74
2
280
1
 71
1
 72
0
 11
-91.99999999999993
 21
25.49999999999994
 31
0.0
  0
SEQEND
  5
56
330
54
100
AcDbEntity
  8
0
  0
INSERT
  5
57
330
31
100
AcDbEntity
  8
0
 60
1
380
2
100
AcDbBlockReference
  2
*U190
 10
-120.0
 20
-119.9999999999999
 30
0.0
  0
INSERT
  5
59
330
31
100
AcDbEntity
  8
0
 60
1
380
2
100
AcDbBlockReference
 66
1
  2
*U193
 10
-120.0
 20
2.84e-14
 30
0.0
  0
ATTRIB
  5
5A
330
59
100
AcDbEntity
  8
0
100
AcDbText
 10
-98.547619047619
 20
22.99999999999994
 30
0.0
 40
5.0
  1
400
  7
hw_Block
 72
1
 11
-91.99999999999993
 21
25.49999999999994
 31
0.0
100
AcDbAttribute
  2
MAX
 70
0
 74
2
280
1
 71
1
 72
0
 11
-91.99999999999993
 21
25.49999999999994
 31
0.0
  0
SEQEND
  5
5B
330
59
100
AcDbEntity
  8
0
  0
ENDBLK
  5
33
330
31
100
AcDbEntity
  8
0
100
AcDbBlockEnd
  0
BLOCK
  5
5D
330
5C
100
AcDbEntity
  8
0
100
AcDbBlockBegin
  2
*U191
 70
1
 10
0.0
 20
0.0
 30
0.0
  3
*U191
  1

  0
LWPOLYLINE
  5
5F
330
5C
100
AcDbEntity
  8
0
100
AcDbPolyline
 90
8
 70
1
 10
-27.0
 20
31.99999999999999
 10
27.0
 20
31.99999999999999
 42
0.4142135623730872
 10
29.75
 20
34.75
 10
29.75
 20
41.99999999999999
 42
0.4142135623731042
 10
27.0
 20
44.74999999999999
 10
-27.0
 20
44.74999999999999
 42
0.4142135623730876
 10
-29.75
 20
41.99999999999999
 10
-29.75
 20
34.75
 42
0.4142135623731039
  0
ARC
  5
60
330
5C
100
AcDbEntity
  8
0
100
AcDbCircle
 10
0.0
 20
0.0
 30
0.0
 40
14.0
100
AcDbArc
 50
92.83896606369566
 51
249.0882847874763
  0
LWPOLYLINE
  5
61
330
5C
100
AcDbEntity
  8
0
100
AcDbPolyline
 90
8
 70
1
 10
-27.0
 20
-29.75
 10
27.0
 20
-29.75
 42
0.4142135623730951
 10
29.75
 20
-27.0
 10
29.75
 20
27.0
 42
0.4142135623730951
 10
27.0
 20
29.75
 10
-27.0
 20
29.75
 42
0.4142135623730951
 10
-29.75
 20
27.0
 10
-29.75
 20
-27.0
 42
0.4142135623730951
  0
LWPOLYLINE
  5
62
330
5C
100
AcDbEntity
  8
0
100
AcDbPolyline
 90
8
 70
1
 10
-27.0
 20
-32.0
 10
27.0
 20
-32.0
 42
0.4142135623730951
 10
32.0
 20
-27.0
 10
32.0
 20
41.99999999999999
 42
0.4142135623730951
 10
27.0
 20
46.99999999999999
 10
-27.0
 20
46.99999999999999
 42
0.4142135623730951
 10
-32.0
 20
41.99999999999999
 10
-32.0
 20
-27.0
 42
0.4142135623730951
  0
CIRCLE
  5
63
330
5C
100
AcDbEntity
  8
hw_Punch
100
AcDbCircle
 10
-24.0
 20
24.0
 30
0.0
 40
2.25
  0
CIRCLE
  5
64
330
5C
100
AcDbEntity
  8
hw_Punch
100
AcDbCircle
 10
-24.0
 20
-24.0
 30
0.0
 40
2.25
  0
CIRCLE
  5
65
330
5C
100
AcDbEntity
  8
hw_Punch
100
AcDbCircle
 10
24.0
 20
24.0
 30
0.0
 40
2.25
  0
ARC
  5
66
330
5C
100
AcDbEntity
  8
0
100
AcDbCircle
 10
0.0
 20
0.0
 30
0.0
 40
14.0
100
AcDbArc
 50
290.9117152125237
 51
87.16103393630434
  0
CIRCLE
  5
67
330
5C
100
AcDbEntity
  8
hw_Punch
100
AcDbCircle
 10
24.0
 20
-24.0
 30
0.0
 40
2.25
  0
CIRCLE
  5
68
330
5C
100
AcDbEntity
  8
hw_Punch
100
AcDbCircle
 10
0.0
 20
0.0
 30
0.0
 40
7.5
  0
LWPOLYLINE
  5
69
330
5C
100
AcDbEntity
  8
0
 60
1
100
AcDbPolyline
 90
4
 70
1
 10
-57.5
 20
-25.0
 10
-54.5
 20
-25.0
 10
-54.5
 20
25.0
 10
-57.5
 20
25.0
  0
LWPOLYLINE
  5
6A
330
5C
100
AcDbEntity
  8
0
 60
1
100
AcDbPolyline
 90
4
 70
1
 10
-68.5
 20
-25.0
 10
-65.5
 20
-25.0
 10
-65.5
 20
25.0
 10
-68.5
 20
25.0
  0
LWPOLYLINE
  5
6B
330
5C
100
AcDbEntity
  8
0
 60
1
100
AcDbPolyline
 90
4
 70
1
 10
-65.5
 20
-21.5
 10
-57.5
 20
-21.5
 10
-57.5
 20
21.5
 10
-65.5
 20
21.5
  0
LWPOLYLINE
  5
6C
330
5C
100
AcDbEntity
  8
0
 60
1
100
AcDbPolyline
 90
4
 70
1
 10
-72.0
 20
-21.5
 10
-68.5
 20
-21.5
 10
-68.5
 20
21.5
 10
-72.0
 20
21.5
  0
LWPOLYLINE
  5
6D
330
5C
100
AcDbEntity
  8
0
 60
1
100
AcDbPolyline
 90
4
 70
1
 10
-7.5
 20
-30.0
 10
-2.0
 20
-30.0
 10
-2.0
 20
30.0
 10
-7.5
 20
30.0
  0
LWPOLYLINE
  5
6E
330
5C
100
AcDbEntity
  8
0
 60
1
100
AcDbPolyline
 90
4
 70
1
 10
-46.5
 20
-25.0
 10
-43.5
 20
-25.0
 10
-43.5
 20
25.0
 10
-46.5
 20
25.0
  0
LWPOLYLINE
  5
6F
330
5C
100
AcDbEntity
  8
0
 60
1
100
AcDbPolyline
 90
4
 70
1
 10
-35.5
 20
-25.0
 10
-32.5
 20
-25.0
 10
-32.5
 20
25.0
 10
-35.5
 20
25.0
  0
LWPOLYLINE
  5
70
330
5C
100
AcDbEntity
  8
0
 60
1
100
AcDbPolyline
 90
4
 70
1
 10
-24.5
 20
-25.0
 10
-21.5
 20
-25.0
 10
-21.5
 20
25.0
 10
-24.5
 20
25.0
  0
LWPOLYLINE
  5
71
330
5C
100
AcDbEntity
  8
0
 60
1
100
AcDbPolyline
 90
4
 70
1
 10
-21.5
 20
-21.5
 10
-7.5
 20
-21.5
 10
-7.5
 20
21.5
 10
-21.5
 20
21.5
  0
LWPOLYLINE
  5
72
330
5C
100
AcDbEntity
  8
0
 60
1
100
AcDbPolyline
 90
4
 70
1
 10
-32.5
 20
-21.5
 10
-24.5
 20
-21.5
 10
-24.5
 20
21.5
 10
-32.5
 20
21.5
  0
LWPOLYLINE
  5
73
330
5C
100
AcDbEntity
  8
0
 60
1
100
AcDbPolyline
 90
4
 70
1
 10
-54.5
 20
-21.5
 10
-46.5
 20
-21.5
 10
-46.5
 20
21.5
 10
-54.5
 20
21.5
  0
LWPOLYLINE
  5
74
330
5C
100
AcDbEntity
  8
0
 60
1
100
AcDbPolyline
 90
4
 70
1
 10
-43.5
 20
-21.5
 10
-35.5
 20
-21.5
 10
-35.5
 20
21.5
 10
-43.5
 20
21.5
  0
LINE
  5
75
330
5C
100
AcDbEntity
  8
0
 60
1
100
AcDbLine
 10
32.0
 20
14.0
 30
0.0
 11
32.0
 21
-24.0
 31
0.0
  0
LINE
  5
76
330
5C
100
AcDbEntity
  8
0
 60
1
100
AcDbLine
 10
14.0
 20
-14.0
 30
0.0
 11
14.0
 21
14.0
 31
0.0
  0
LINE
  5
77
330
5C
100
AcDbEntity
  8
0
 60
1
100
AcDbLine
 10
14.0
 20
-16.0
 30
0.0
 11
21.0
 21
-16.0
 31
0.0
  0
LINE
  5
78
330
5C
100
AcDbEntity
  8
0
 60
1
100
AcDbLine
 10
14.0
 20
-14.0
 30
0.0
 11
14.0
 21
-16.0
 31
0.0
  0
LINE
  5
79
330
5C
100
AcDbEntity
  8
0
 60
1
100
AcDbLine
 10
14.0
 20
-14.0
 30
0.0
 11
10.0
 21
-14.0
 31
0.0
  0
LINE
  5
7A
330
5C
100
AcDbEntity
  8
0
 60
1
100
AcDbLine
 10
21.0
 20
-24.0
 30
0.0
 11
32.0
 21
-24.0
 31
0.0
  0
LINE
  5
7B
330
5C
100
AcDbEntity
  8
0
 60
1
100
AcDbLine
 10
21.0
 20
-16.0
 30
0.0
 11
21.0
 21
-24.0
 31
0.0
  0
LINE
  5
7C
330
5C
100
AcDbEntity
  8
0
 60
1
100
AcDbLine
 10
10.0
 20
15.48095798565055
 30
0.0
 11
32.0
 21
14.0
 31
0.0
  0
LWPOLYLINE
  5
7D
330
5C
100
AcDbEntity
  8
0
 60
1
100
AcDbPolyline
 90
4
 70
1
 10
0.0
 20
6.0
 10
8.0
 20
6.0
 10
8.0
 20
-6.0
 10
0.0
 20
-6.0
  0
LINE
  5
7E
330
5C
100
AcDbEntity
  8
0
 60
1
100
AcDbLine
 10
8.0
 20
-3.0
 30
0.0
 11
10.0
 21
-3.0
 31
0.0
  0
LINE
  5
7F
330
5C
100
AcDbEntity
  8
0
 60
1
100
AcDbLine
 10
8.0
 20
3.0
 30
0.0
 11
10.0
 21
3.0
 31
0.0
  0
LINE
  5
80
330
5C
100
AcDbEntity
  8
0
 60
1
100
AcDbLine
 10
14.0
 20
14.0
 30
0.0
 11
10.0
 21
14.0
 31
0.0
  0
TEXT
  5
81
330
5C
100
AcDbEntity
  8
0
100
AcDbText
 10
-16.33928571428572
 20
35.87499999999999
 30
0.0
 40
5.0
  1
VOLTMETER
  7
hw_Block
 41
0.75
 72
1
 11
0.0
 21
38.375
 31
0.0
100
AcDbText
 73
2
  0
TEXT
  5
82
330
5C
100
AcDbEntity
  8
0
100
AcDbText
 10
-19.12418829098299
 20
13.40990257669728
 30
0.0
 40
5.0
  1
RS
  7
hw_Block
 41
0.75
 72
1
 11
-15.90990257669728
 21
15.90990257669728
 31
0.0
100
AcDbText
 73
2
  0
TEXT
  5
83
330
5C
100
AcDbEntity
  8
0
100
AcDbText
 10
-25.625
 20
-2.5
 30
0.0
 40
5.0
  1
ST
  7
hw_Block
 41
0.75
 72
1
 11
-22.5
 21
0.0
 31
0.0
100
AcDbText
 73
2
  0
TEXT
  5
84
330
5C
100
AcDbEntity
  8
0
100
AcDbText
 10
-19.2134740052687
 20
-18.40990257669728
 30
0.0
 40
5.0
  1
TR
  7
hw_Block
 41
0.75
 72
1
 11
-15.90990257669728
 21
-15.90990257669728
 31
0.0
100
AcDbText
 73
2
  0
TEXT
  5
85
330
5C
100
AcDbEntity
  8
0
100
AcDbText
 10
12.51704543384013
 20
-18.40990257669728
 30
0.0
 40
5.0
  1
TN
  7
hw_Block
 41
0.75
 72
1
 11
15.90990257669728
 21
-15.90990257669728
 31
0.0
100
AcDbText
 73
2
  0
TEXT
  5
86
330
5C
100
AcDbEntity
  8
0
100
AcDbText
 10
19.01785714285714
 20
-2.5
 30
0.0
 40
5.0
  1
SN
  7
hw_Block
 41
0.75
 72
1
 11
22.5
 21
0.0
 31
0.0
100
AcDbText
 73
2
  0
TEXT
  5
87
330
5C
100
AcDbEntity
  8
0
100
AcDbText
 10
12.24918829098299
 20
13.40990257669728
 30
0.0
 40
5.0
  1
RN
  7
hw_Block
 41
0.75
 72
1
 11
15.90990257669728
 21
15.90990257669728
 31
0.0
100
AcDbText
 73
2
  0
LWPOLYLINE
  5
88
330
5C
100
AcDbEntity
  8
hw_Punch
 60
1
100
AcDbPolyline
 90
4
 70
1
 10
-2.0
 20
-7.5
 10
0.0
 20
-7.5
 10
0.0
 20
7.5
 10
-2.0
 20
7.5
  0
HATCH
  5
89
330
5C
100
AcDbEntity
  8
0
100
AcDbHatch
 10
0.0
 20
0.0
 30
0.0
210
0.0
220
0.0
230
1.0
  2
SOLID
 70
1
 71
0
 91
1
 92
7
 72
0
 73
1
 93
42
 10
0.2354304577106632
 20
15.31511139575106
 10
0.229438656420908
 20
15.33024495830929
 10
0.2227516310470313
 20
15.3444556105855
 10
0.2151855067510864
 20
15.35821833958793
 10
0.2067701435686444
 20
15.37147883011357
 10
0.1975387530938403
 20
15.38418474906387
 10
0.1875277674077676
 20
15.39628595198122
 10
0.1767766952961599
 20
15.40773468094759
 10
0.1653279663306242
 20
15.41848575305836
 10
0.1532267634131547
 20
15.42849673874447
 10
0.1405208444629006
 20
15.43772812921922
 10
0.1272603539375616
 20
15.4461434924015
 10
0.1134976249343734
 20
15.45370961669786
 10
0.0992869726587547
 20
15.46039664207146
 10
0.0846844800614344
 20
15.46617817788901
 10
0.0697477765096706
 20
15.47103140706977
 10
0.0545358103490561
 20
15.47493717613519
 10
0.0391086162601079
 20
15.47788007079926
 10
0.0235270783297627
 20
15.47984847680125
 10
0.007852689769464
 20
15.48083462574193
 10
-0.0078526897695699
 20
15.48083462574193
 10
-0.02352707832966
 20
15.47984847680125
 10
-0.0391086162600849
 20
15.47788007079926
 10
-0.0545358103491556
 20
15.47493717613518
 10
-0.0697477765098238
 20
15.47103140706973
 10
-0.0846844800613683
 20
15.46617817788903
 10
-0.0992869726586134
 20
15.46039664207153
 10
-0.1134976249348242
 20
15.45370961669761
 10
-0.1272603539377164
 20
15.4461434924014
 10
-0.1405208444632144
 20
15.43772812921897
 10
-0.1532267634133707
 20
15.42849673874433
 10
-0.1653279663308288
 20
15.41848575305816
 10
-0.1767766952968425
 20
15.40773468094692
 10
-0.1875277674073196
 20
15.39628595198168
 10
-0.1975387530935989
 20
15.38418474906408
 10
-0.2067701435685788
 20
15.37147883011357
 10
-0.2151855067512734
 20
15.35821833958762
 10
-0.2227516310469215
 20
15.34445561058568
 10
-0.2294386564209922
 20
15.33024495830923
 10
-0.2354304577106632
 20
15.31511139575094
 10
-0.2354304577106632
 20
7.5
 10
0.2354304577106632
 20
7.5
 97
0
 75
0
 76
1
 47
0.0228522779943226
 98
1
 10
0.0955651971297584
 20
10.71142149318397
450
0
451
0
460
0.0
461
0.0
452
0
462
0.0
453
0
470

  0
CIRCLE
  5
8A
330
5C
100
AcDbEntity
  8
0
100
AcDbCircle
 10
0.0
 20
-14.0
 30
0.0
 40
2.5
  0
LINE
  5
8B
330
5C
100
AcDbEntity
  8
0
100
AcDbLine
 10
0.13799999999992
 20
-13.15199999999999
 30
0.0
 11
-0.1380000000000336
 21
-13.15199999999999
 31
0.0
  0
LINE
  5
8C
330
5C
100
AcDbEntity
  8
0
100
AcDbLine
 10
0.8479999999999563
 20
-13.86207999999999
 30
0.0
 11
0.13799999999992
 21
-13.86207999999999
 31
0.0
  0
LINE
  5
8D
330
5C
100
AcDbEntity
  8
0
100
AcDbLine
 10
0.8479999999999563
 20
-14.13796000000002
 30
0.0
 11
0.8479999999999563
 21
-13.86207999999999
 31
0.0
  0
LINE
  5
8E
330
5C
100
AcDbEntity
  8
0
100
AcDbLine
 10
0.13799999999992
 20
-14.13796000000002
 30
0.0
 11
0.8479999999999563
 21
-14.13796000000002
 31
0.0
  0
LINE
  5
8F
330
5C
100
AcDbEntity
  8
0
100
AcDbLine
 10
0.13799999999992
 20
-14.84803999999997
 30
0.0
 11
0.13799999999992
 21
-14.13796000000002
 31
0.0
  0
LINE
  5
90
330
5C
100
AcDbEntity
  8
0
100
AcDbLine
 10
-0.1380000000000336
 20
-14.84803999999997
 30
0.0
 11
0.13799999999992
 21
-14.84803999999997
 31
0.0
  0
LINE
  5
91
330
5C
100
AcDbEntity
  8
0
100
AcDbLine
 10
-0.1380000000000336
 20
-14.13796000000002
 30
0.0
 11
-0.1380000000000336
 21
-14.84803999999997
 31
0.0
  0
LINE
  5
92
330
5C
100
AcDbEntity
  8
0
100
AcDbLine
 10
-0.8480400000000827
 20
-14.13796000000002
 30
0.0
 11
-0.1380000000000336
 21
-14.13796000000002
 31
0.0
  0
LINE
  5
93
330
5C
100
AcDbEntity
  8
0
100
AcDbLine
 10
-0.8480400000000827
 20
-13.86207999999999
 30
0.0
 11
-0.8480400000000827
 21
-14.13796000000002
 31
0.0
  0
LINE
  5
94
330
5C
100
AcDbEntity
  8
0
100
AcDbLine
 10
-0.1380000000000336
 20
-13.86207999999999
 30
0.0
 11
-0.8480400000000827
 21
-13.86207999999999
 31
0.0
  0
LINE
  5
95
330
5C
100
AcDbEntity
  8
0
100
AcDbLine
 10
-0.1380000000000336
 20
-13.15199999999999
 30
0.0
 11
-0.1380000000000336
 21
-13.86207999999999
 31
0.0
  0
LINE
  5
96
330
5C
100
AcDbEntity
  8
0
100
AcDbLine
 10
0.13799999999992
 20
-13.86207999999999
 30
0.0
 11
0.13799999999992
 21
-13.15199999999999
 31
0.0
  0
CIRCLE
  5
97
330
5C
100
AcDbEntity
  8
0
100
AcDbCircle
 10
0.0
 20
-14.0
 30
0.0
 40
1.75
  0
LWPOLYLINE
  5
98
330
5C
100
AcDbEntity
  8
0
 60
1
100
AcDbPolyline
 90
4
 70
1
 10
0.0
 20
47.0
 10
10.0
 20
47.0
 10
10.0
 20
-32.0
 10
0.0
 20
-32.0
  0
TEXT
  5
99
330
5C
100
AcDbEntity
  8
0
100
AcDbText
 10
-1.25
 20
20.0
 30
0.0
 40
5.0
  1
0
  7
hw_Block
 41
0.75
 72
1
 11
0.0
 21
22.5
 31
0.0
100
AcDbText
 73
2
  0
TEXT
  5
9A
330
5C
100
AcDbEntity
  8
0
 60
1
100
AcDbText
 10
-1.25
 20
-25.0
 30
0.0
 40
5.0
  1
2
  7
hw_Block
 41
0.75
 72
1
 11
-5e-16
 21
-22.5
 31
0.0
100
AcDbText
 73
2
  0
TEXT
  5
9B
330
5C
100
AcDbEntity
  8
0
 60
1
100
AcDbText
 10
-23.75
 20
-2.5
 30
0.0
 40
5.0
  1
3
  7
hw_Block
 41
0.75
 72
1
 11
-22.5
 21
0.0
 31
0.0
100
AcDbText
 73
2
  0
TEXT
  5
9C
330
5C
100
AcDbEntity
  8
0
 60
1
100
AcDbText
 10
21.69642857142857
 20
-2.5
 30
0.0
 40
5.0
  1
1
  7
hw_Block
 41
0.75
 72
1
 11
22.5
 21
0.0
 31
0.0
100
AcDbText
 73
2
  0
TEXT
  5
9D
330
5C
100
AcDbEntity
  8
0
 60
1
100
AcDbText
 10
-13.39285714285714
 20
35.87499999999999
 30
0.0
 40
5.0
  1
AMMETER
  7
hw_Block
 41
0.75
 72
1
 11
0.0
 21
38.375
 31
0.0
100
AcDbText
 73
2
  0
LINE
  5
9E
330
5C
100
AcDbEntity
  8
Defpoints
 62
5
100
AcDbLine
 10
0.0
 20
0.0
 30
0.0
 11
0.0
 21
0.0
 31
0.0
  0
ENDBLK
  5
5E
330
5C
100
AcDbEntity
  8
0
100
AcDbBlockEnd
  0
BLOCK
  5
A0
330
9F
100
AcDbEntity
  8
0
100
AcDbBlockBegin
  2
*U192
 70
3
 10
0.0
 20
0.0
 30
0.0
  3
*U192
  1

  0
LWPOLYLINE
  5
A2
330
9F
100
AcDbEntity
  8
0
100
AcDbPolyline
 90
4
 70
1
 10
-48.0
 20
-48.00000000000003
 10
48.0
 20
-48.00000000000003
 10
48.0
 20
47.99999999999997
 10
-48.0
 20
47.99999999999997
  0
LWPOLYLINE
  5
A3
330
9F
100
AcDbEntity
  8
hw_Punch
100
AcDbPolyline
 90
4
 70
1
 10
-46.0
 20
-46.00000000000003
 10
46.0
 20
-46.00000000000003
 10
46.0
 20
45.99999999999996
 10
-46.0
 20
45.99999999999996
  0
LWPOLYLINE
  5
A4
330
9F
100
AcDbEntity
  8
0
100
AcDbPolyline
 90
5
 70
0
 10
40.49999999999999
 20
-6.000000000000028
 10
40.49999999999999
 20
40.49999999999994
 10
-40.5
 20
40.49999999999997
 10
-40.5
 20
-40.50000000000003
 10
5.999999999999992
 20
-40.50000000000003
  0
LINE
  5
A5
330
9F
100
AcDbEntity
  8
0
 62
1
100
AcDbLine
 10
10.99999999999982
 20
-26.75000000000003
 30
0.0
 11
-28.06755007218391
 21
-26.75000000000003
 31
0.0
  0
LINE
  5
A6
330
9F
100
AcDbEntity
  8
0
 62
1
100
AcDbLine
 10
10.99999999999982
 20
-29.25000000000003
 30
0.0
 11
-28.06755007218397
 21
-29.25000000000003
 31
0.0
  0
LINE
  5
A7
330
9F
100
AcDbEntity
  8
0
100
AcDbLine
 10
-10.57173018335408
 20
15.98262873752011
 30
0.0
 11
-13.86845925885445
 21
19.74182777491504
 31
0.0
  0
LINE
  5
A8
330
9F
100
AcDbEntity
  8
0
100
AcDbLine
 10
-30.37474700945831
 20
-24.17391694003664
 30
0.0
 11
-35.36404162565141
 21
-23.84690129388591
 31
0.0
  0
LINE
  5
A9
330
9F
100
AcDbEntity
  8
0
 62
1
100
AcDbLine
 10
-30.50000000000001
 20
-27.99999999999997
 30
0.0
 11
-35.50000000000012
 21
-27.99999999999997
 31
0.0
  0
LINE
  5
AA
330
9F
100
AcDbEntity
  8
0
 62
1
100
AcDbLine
 10
-30.50000000000001
 20
-28.00000000000003
 30
0.0
 11
-35.50000000000001
 21
-28.00000000000003
 31
0.0
  0
LINE
  5
AB
330
9F
100
AcDbEntity
  8
0
100
AcDbLine
 10
-29.99952439036793
 20
-20.36421775512699
 30
0.0
 11
-34.95674869723707
 21
-19.71158679402671
 31
0.0
  0
LINE
  5
AC
330
9F
100
AcDbEntity
  8
0
100
AcDbLine
 10
-29.37593890358898
 20
-16.58721616205653
 30
0.0
 11
-34.27986530560521
 21
-15.61176455197588
 31
0.0
  0
LINE
  5
AD
330
9F
100
AcDbEntity
  8
0
100
AcDbLine
 10
-40.5
 20
-40.50000000000003
 30
0.0
 11
-46.0
 21
-46.00000000000003
 31
0.0
  0
LINE
  5
AE
330
9F
100
AcDbEntity
  8
0
 62
1
100
AcDbLine
 10
-30.50000000000001
 20
-28.00000000000003
 30
0.0
 11
-28.06755007218397
 21
-29.25000000000003
 31
0.0
  0
LINE
  5
AF
330
9F
100
AcDbEntity
  8
0
 62
1
100
AcDbLine
 10
-30.50000000000001
 20
-28.00000000000003
 30
0.0
 11
-28.06755007218391
 21
-26.75000000000003
 31
0.0
  0
LINE
  5
B0
330
9F
100
AcDbEntity
  8
0
100
AcDbLine
 10
-28.5066608379105
 20
-12.85908586150253
 30
0.0
 11
-33.33628996935591
 21
-11.56499063598991
 31
0.0
  0
LINE
  5
B1
330
9F
100
AcDbEntity
  8
0
100
AcDbLine
 10
-20.64097231969891
 20
4.50085863164665
 30
0.0
 11
-24.79832038121175
 21
7.27870979674472
 31
0.0
  0
LINE
  5
B2
330
9F
100
AcDbEntity
  8
0
100
AcDbLine
 10
-26.04695265191027
 20
-5.61301920664232
 30
0.0
 11
-30.66635031446681
 21
-3.699602044816828
 31
0.0
  0
LINE
  5
B3
330
9F
100
AcDbEntity
  8
0
100
AcDbLine
 10
-27.3954125754637
 20
-9.195791279765103
 30
0.0
 11
-32.13006322293928
 21
-7.588593953249272
 31
0.0
  0
LINE
  5
B4
330
9F
100
AcDbEntity
  8
0
100
AcDbLine
 10
-24.46705537966228
 20
-2.12611162218846
 30
0.0
 11
-28.95141908732576
 21
0.0853318289065612
 31
0.0
  0
LINE
  5
B5
330
9F
100
AcDbEntity
  8
0
100
AcDbLine
 10
-22.6624861213897
 20
1.249999999999914
 30
0.0
 11
-26.99261314031197
 21
3.749999999999971
 31
0.0
  0
LINE
  5
B6
330
9F
100
AcDbEntity
  8
0
100
AcDbLine
 10
-13.36574669941309
 20
13.36574669941294
 30
0.0
 11
-16.90128060534585
 21
16.9012806053457
 31
0.0
  0
LINE
  5
B7
330
9F
100
AcDbEntity
  8
0
100
AcDbLine
 10
-15.98262873752021
 20
10.57173018335396
 30
0.0
 11
-19.74182777491513
 21
13.86845925885436
 31
0.0
  0
LINE
  5
B8
330
9F
100
AcDbEntity
  8
0
100
AcDbLine
 10
-18.41117040703728
 20
7.612543597010073
 30
0.0
 11
-22.37793710849349
 21
10.65635074205371
 31
0.0
  0
LINE
  5
B9
330
9F
100
AcDbEntity
  8
0
100
AcDbLine
 10
-40.5
 20
40.49999999999997
 30
0.0
 11
-46.0
 21
45.99999999999996
 31
0.0
  0
LINE
  5
BA
330
9F
100
AcDbEntity
  8
0
100
AcDbLine
 10
-4.500858631646799
 20
20.64097231969882
 30
0.0
 11
-7.278709796744813
 21
24.7983203812116
 31
0.0
  0
LINE
  5
BB
330
9F
100
AcDbEntity
  8
0
100
AcDbLine
 10
-1.250000000000007
 20
22.66248612138964
 30
0.0
 11
-3.750000000000063
 21
26.99261314031185
 31
0.0
  0
LWPOLYLINE
  5
BC
330
9F
100
AcDbEntity
  8
0
100
AcDbPolyline
 90
4
 70
0
 10
11.0
 20
-46.00000000000003
 10
10.99999999999982
 20
-26.00000000000013
 42
-0.4142135623730966
 10
25.99999999999983
 20
-11.00000000000003
 10
46.0
 20
-11.00000000000003
  0
LWPOLYLINE
  5
BD
330
9F
100
AcDbEntity
  8
0
100
AcDbPolyline
 90
2
 70
0
 10
30.5
 20
-6.000000000000028
 10
40.49999999999999
 20
-6.000000000000028
  0
LWPOLYLINE
  5
BE
330
9F
100
AcDbEntity
  8
0
100
AcDbPolyline
 90
2
 70
0
 10
5.999999999999992
 20
-40.50000000000003
 10
5.999999999999992
 20
-30.50000000000003
  0
LINE
  5
BF
330
9F
100
AcDbEntity
  8
0
100
AcDbLine
 10
11.0
 20
-46.00000000000003
 30
0.0
 11
5.999999999999992
 21
-40.50000000000003
 31
0.0
  0
LINE
  5
C0
330
9F
100
AcDbEntity
  8
0
100
AcDbLine
 10
10.99999999999988
 20
-30.50000000000003
 30
0.0
 11
5.999999999999992
 21
-30.50000000000003
 31
0.0
  0
LINE
  5
C1
330
9F
100
AcDbEntity
  8
0
100
AcDbLine
 10
31.30859393225148
 20
-25.75206623952829
 30
0.0
 11
25.75206623952823
 21
-31.30859393225151
 31
0.0
  0
CIRCLE
  5
C2
330
9F
100
AcDbEntity
  8
0
100
AcDbCircle
 10
28.0
 20
-28.00000000000003
 30
0.0
 40
4.0
  0
LINE
  5
C3
330
9F
100
AcDbEntity
  8
0
100
AcDbLine
 10
30.24793376047171
 20
-24.69140606774852
 30
0.0
 11
24.69140606774846
 21
-30.24793376047171
 31
0.0
  0
LINE
  5
C4
330
9F
100
AcDbEntity
  8
0
100
AcDbLine
 10
-7.612543597010194
 20
18.41117040703719
 30
0.0
 11
-10.65635074205381
 21
22.3779371084934
 31
0.0
  0
LINE
  5
C5
330
9F
100
AcDbEntity
  8
0
100
AcDbLine
 10
30.5
 20
-11.00000000000003
 30
0.0
 11
30.5
 21
-6.000000000000028
 31
0.0
  0
LINE
  5
C6
330
9F
100
AcDbEntity
  8
0
100
AcDbLine
 10
46.0
 20
-11.00000000000003
 30
0.0
 11
40.49999999999999
 21
-6.000000000000028
 31
0.0
  0
LINE
  5
C7
330
9F
100
AcDbEntity
  8
0
100
AcDbLine
 10
12.85908586150248
 20
28.50666083791046
 30
0.0
 11
11.56499063598988
 21
33.33628996935582
 31
0.0
  0
LINE
  5
C8
330
9F
100
AcDbEntity
  8
0
100
AcDbLine
 10
2.126111622188425
 20
24.46705537966224
 30
0.0
 11
-0.0853318289065968
 21
28.95141908732572
 31
0.0
  0
LINE
  5
C9
330
9F
100
AcDbEntity
  8
0
100
AcDbLine
 10
5.613019206642199
 20
26.04695265191023
 30
0.0
 11
3.699602044816735
 21
30.66635031446669
 31
0.0
  0
LINE
  5
CA
330
9F
100
AcDbEntity
  8
0
100
AcDbLine
 10
9.195791279764983
 20
27.39541257546361
 30
0.0
 11
7.588593953249123
 21
32.13006322293921
 31
0.0
  0
LINE
  5
CB
330
9F
100
AcDbEntity
  8
0
100
AcDbLine
 10
20.3642177551269
 20
29.99952439036787
 30
0.0
 11
19.71158679402663
 21
34.95674869723695
 31
0.0
  0
LINE
  5
CC
330
9F
100
AcDbEntity
  8
0
100
AcDbLine
 10
16.58721616205645
 20
29.37593890358895
 30
0.0
 11
15.61176455197579
 21
34.27986530560512
 31
0.0
  0
LINE
  5
CD
330
9F
100
AcDbEntity
  8
0
100
AcDbLine
 10
27.99999999999994
 20
30.49999999999997
 30
0.0
 11
27.99999999999994
 21
35.49999999999997
 31
0.0
  0
LINE
  5
CE
330
9F
100
AcDbEntity
  8
0
100
AcDbLine
 10
24.17391694003652
 20
30.37474700945828
 30
0.0
 11
23.84690129388582
 21
35.36404162565131
 31
0.0
  0
LINE
  5
CF
330
9F
100
AcDbEntity
  8
0
100
AcDbLine
 10
40.49999999999999
 20
40.49999999999994
 30
0.0
 11
46.0
 21
45.99999999999996
 31
0.0
  0
LWPOLYLINE
  5
D0
330
9F
100
AcDbEntity
  8
0
 60
1
100
AcDbPolyline
 90
4
 70
1
 10
-45.0
 20
44.0
 10
45.0
 20
44.0
 10
45.0
 20
62.0
 10
-45.0
 20
62.0
  0
LINE
  5
D1
330
9F
100
AcDbEntity
  8
0
 60
1
100
AcDbLine
 10
-48.0
 20
-5.999999999999985
 30
0.0
 11
48.0
 21
-5.999999999999985
 31
0.0
  0
LWPOLYLINE
  5
D2
330
9F
100
AcDbEntity
  8
0
 60
1
100
AcDbPolyline
 90
4
 70
1
 10
-62.00000000000001
 20
6.5
 10
-44.00000000000001
 20
6.5
 10
-44.00000000000001
 20
45.0
 10
-62.00000000000001
 20
45.0
  0
TEXT
  5
D3
330
9F
100
AcDbEntity
  8
0
100
AcDbText
 10
-34.90476190476191
 20
-30.50000000000003
 30
0.0
 40
5.0
  1
O
  7
hw_Block
 72
1
 11
-33.00000000000001
 21
-28.00000000000003
 31
0.0
100
AcDbText
 73
2
  0
TEXT
  5
D4
330
9F
100
AcDbEntity
  8
0
100
AcDbText
 10
17.60714285714285
 20
-43.50000000000003
 30
0.0
 40
5.0
  1
BEW 96
  7
hw_Block
 41
0.75
 72
1
 11
28.5
 21
-41.00000000000003
 31
0.0
100
AcDbText
 73
2
  0
LWPOLYLINE
  5
D5
330
9F
100
AcDbEntity
  8
0
 60
1
100
AcDbPolyline
 90
4
 70
1
 10
-48.0
 20
0.0
 10
48.0
 20
0.0
 10
48.0
 20
-5.999999999999985
 10
-48.0
 20
-5.999999999999985
  0
LWPOLYLINE
  5
D6
330
9F
100
AcDbEntity
  8
0
 60
1
100
AcDbPolyline
 90
4
 70
1
 10
-45.0
 20
62.0
 10
45.0
 20
62.0
 10
45.0
 20
44.0
 10
-45.0
 20
44.0
  0
LWPOLYLINE
  5
D7
330
9F
100
AcDbEntity
  8
0
 60
1
100
AcDbPolyline
 90
4
 70
1
 10
-45.0
 20
44.0
 10
45.0
 20
44.0
 10
45.0
 20
2.0
 10
-45.0
 20
2.0
  0
LWPOLYLINE
  5
D8
330
9F
100
AcDbEntity
  8
hw_Punch
 60
1
100
AcDbPolyline
 90
4
 70
1
 10
-46.0
 20
0.0
 10
46.0
 20
0.0
 10
46.0
 20
2.0
 10
-46.0
 20
2.0
  0
LWPOLYLINE
  5
D9
330
9F
100
AcDbEntity
  8
0
 60
1
100
AcDbPolyline
 90
4
 70
1
 10
-44.00000000000001
 20
45.0
 10
-2.000000000000014
 20
45.0
 10
-2.000000000000014
 20
-45.0
 10
-44.00000000000001
 20
-45.0
  0
LWPOLYLINE
  5
DA
330
9F
100
AcDbEntity
  8
0
 60
1
100
AcDbPolyline
 90
4
 70
1
 10
-1.42e-14
 20
48.0
 10
5.999999999999985
 20
48.0
 10
5.999999999999985
 20
-48.0
 10
-1.42e-14
 20
-48.0
  0
LWPOLYLINE
  5
DB
330
9F
100
AcDbEntity
  8
hw_Punch
 60
1
100
AcDbPolyline
 90
4
 70
1
 10
-2.000000000000014
 20
-46.0
 10
-1.42e-14
 20
-46.0
 10
-1.42e-14
 20
46.0
 10
-2.000000000000014
 20
46.0
  0
TEXT
  5
DC
330
9F
100
AcDbEntity
  8
0
 60
1
100
AcDbText
 10
-10.26785714285714
 20
25.5
 30
0.0
 40
5.0
  1
TAIWAN
  7
hw_Block
 41
0.75
 72
1
 11
3.6e-15
 21
28.0
 31
0.0
100
AcDbText
 73
2
  0
TEXT
  5
DD
330
9F
100
AcDbEntity
  8
0
 60
1
100
AcDbText
 10
-10.89285714285714
 20
15.5
 30
0.0
 40
5.0
  1
BEW 96
  7
hw_Block
 41
0.75
 72
1
 11
3.6e-15
 21
18.0
 31
0.0
100
AcDbText
 73
2
  0
TEXT
  5
DE
330
9F
100
AcDbEntity
  8
0
 60
1
100
AcDbText
 10
-25.50000000000002
 20
-10.26785714285714
 30
0.0
 40
5.0
  1
TAIWAN
 50
90.0
  7
hw_Block
 41
0.75
 72
1
 11
-28.00000000000002
 21
0.0
 31
0.0
100
AcDbText
 73
2
  0
TEXT
  5
DF
330
9F
100
AcDbEntity
  8
0
 60
1
100
AcDbText
 10
-15.50000000000001
 20
-10.89285714285715
 30
0.0
 40
5.0
  1
BEW 96
 50
90.0
  7
hw_Block
 41
0.75
 72
1
 11
-18.00000000000001
 21
0.0
 31
0.0
100
AcDbText
 73
2
  0
ATTDEF
  5
E0
330
9F
100
AcDbEntity
  8
0
100
AcDbText
 10
21.57142857142863
 20
22.99999999999991
 30
0.0
 40
5.0
  1
500
  7
hw_Block
 72
1
 11
28.00000000000006
 21
25.49999999999992
 31
0.0
100
AcDbAttributeDefinition
  3
Nhập mức đo Max:
  2
MAX
 70
0
 74
2
280
1
 71
1
 72
0
 11
28.00000000000006
 21
25.49999999999992
 31
0.0
  0
TEXT
  5
E1
330
9F
100
AcDbEntity
  8
0
100
AcDbText
 10
-35.85714285714286
 20
25.49999999999997
 30
0.0
 40
10.0
  1
V
  7
hw_Block
 41
1.25
 72
1
 11
-30.50000000000001
 21
30.49999999999997
 31
0.0
100
AcDbText
 73
2
  0
TEXT
  5
E2
330
9F
100
AcDbEntity
  8
0
 60
1
100
AcDbText
 10
-35.85714285714286
 20
25.49999999999997
 30
0.0
 40
10.0
  1
A
  7
hw_Block
 41
1.25
 72
1
 11
-30.50000000000001
 21
30.49999999999997
 31
0.0
100
AcDbText
 73
2
  0
LINE
  5
E3
330
9F
100
AcDbEntity
  8
Defpoints
 62
5
100
AcDbLine
 10
0.0
 20
0.0
 30
0.0
 11
0.0
 21
0.0
 31
0.0
  0
ENDBLK
  5
A1
330
9F
100
AcDbEntity
  8
0
100
AcDbBlockEnd
  0
BLOCK
  5
E5
330
E4
100
AcDbEntity
  8
0
100
AcDbBlockBegin
  2
*U190
 70
1
 10
0.0
 20
0.0
 30
0.0
  3
*U190
  1

  0
LWPOLYLINE
  5
E7
330
E4
100
AcDbEntity
  8
0
100
AcDbPolyline
 90
8
 70
1
 10
-27.0
 20
31.99999999999999
 10
27.0
 20
31.99999999999999
 42
0.4142135623730872
 10
29.75
 20
34.75
 10
29.75
 20
41.99999999999999
 42
0.4142135623731042
 10
27.0
 20
44.74999999999999
 10
-27.0
 20
44.74999999999999
 42
0.4142135623730876
 10
-29.75
 20
41.99999999999999
 10
-29.75
 20
34.75
 42
0.4142135623731039
  0
ARC
  5
E8
330
E4
100
AcDbEntity
  8
0
100
AcDbCircle
 10
0.0
 20
0.0
 30
0.0
 40
14.0
100
AcDbArc
 50
92.83896606369566
 51
249.0882847874763
  0
LWPOLYLINE
  5
E9
330
E4
100
AcDbEntity
  8
0
100
AcDbPolyline
 90
8
 70
1
 10
-27.0
 20
-29.75
 10
27.0
 20
-29.75
 42
0.4142135623730951
 10
29.75
 20
-27.0
 10
29.75
 20
27.0
 42
0.4142135623730951
 10
27.0
 20
29.75
 10
-27.0
 20
29.75
 42
0.4142135623730951
 10
-29.75
 20
27.0
 10
-29.75
 20
-27.0
 42
0.4142135623730951
  0
LWPOLYLINE
  5
EA
330
E4
100
AcDbEntity
  8
0
100
AcDbPolyline
 90
8
 70
1
 10
-27.0
 20
-32.0
 10
27.0
 20
-32.0
 42
0.4142135623730951
 10
32.0
 20
-27.0
 10
32.0
 20
41.99999999999999
 42
0.4142135623730951
 10
27.0
 20
46.99999999999999
 10
-27.0
 20
46.99999999999999
 42
0.4142135623730951
 10
-32.0
 20
41.99999999999999
 10
-32.0
 20
-27.0
 42
0.4142135623730951
  0
CIRCLE
  5
EB
330
E4
100
AcDbEntity
  8
hw_Punch
100
AcDbCircle
 10
-24.0
 20
24.0
 30
0.0
 40
2.25
  0
CIRCLE
  5
EC
330
E4
100
AcDbEntity
  8
hw_Punch
100
AcDbCircle
 10
-24.0
 20
-24.0
 30
0.0
 40
2.25
  0
CIRCLE
  5
ED
330
E4
100
AcDbEntity
  8
hw_Punch
100
AcDbCircle
 10
24.0
 20
24.0
 30
0.0
 40
2.25
  0
ARC
  5
EE
330
E4
100
AcDbEntity
  8
0
100
AcDbCircle
 10
0.0
 20
0.0
 30
0.0
 40
14.0
100
AcDbArc
 50
290.9117152125237
 51
87.16103393630434
  0
CIRCLE
  5
EF
330
E4
100
AcDbEntity
  8
hw_Punch
100
AcDbCircle
 10
24.0
 20
-24.0
 30
0.0
 40
2.25
  0
CIRCLE
  5
F0
330
E4
100
AcDbEntity
  8
hw_Punch
100
AcDbCircle
 10
0.0
 20
0.0
 30
0.0
 40
7.5
  0
LWPOLYLINE
  5
F1
330
E4
100
AcDbEntity
  8
0
 60
1
100
AcDbPolyline
 90
4
 70
1
 10
-57.5
 20
-25.0
 10
-54.5
 20
-25.0
 10
-54.5
 20
25.0
 10
-57.5
 20
25.0
  0
LWPOLYLINE
  5
F2
330
E4
100
AcDbEntity
  8
0
 60
1
100
AcDbPolyline
 90
4
 70
1
 10
-68.5
 20
-25.0
 10
-65.5
 20
-25.0
 10
-65.5
 20
25.0
 10
-68.5
 20
25.0
  0
LWPOLYLINE
  5
F3
330
E4
100
AcDbEntity
  8
0
 60
1
100
AcDbPolyline
 90
4
 70
1
 10
-65.5
 20
-21.5
 10
-57.5
 20
-21.5
 10
-57.5
 20
21.5
 10
-65.5
 20
21.5
  0
LWPOLYLINE
  5
F4
330
E4
100
AcDbEntity
  8
0
 60
1
100
AcDbPolyline
 90
4
 70
1
 10
-72.0
 20
-21.5
 10
-68.5
 20
-21.5
 10
-68.5
 20
21.5
 10
-72.0
 20
21.5
  0
LWPOLYLINE
  5
F5
330
E4
100
AcDbEntity
  8
0
 60
1
100
AcDbPolyline
 90
4
 70
1
 10
-7.5
 20
-30.0
 10
-2.0
 20
-30.0
 10
-2.0
 20
30.0
 10
-7.5
 20
30.0
  0
LWPOLYLINE
  5
F6
330
E4
100
AcDbEntity
  8
0
 60
1
100
AcDbPolyline
 90
4
 70
1
 10
-46.5
 20
-25.0
 10
-43.5
 20
-25.0
 10
-43.5
 20
25.0
 10
-46.5
 20
25.0
  0
LWPOLYLINE
  5
F7
330
E4
100
AcDbEntity
  8
0
 60
1
100
AcDbPolyline
 90
4
 70
1
 10
-35.5
 20
-25.0
 10
-32.5
 20
-25.0
 10
-32.5
 20
25.0
 10
-35.5
 20
25.0
  0
LWPOLYLINE
  5
F8
330
E4
100
AcDbEntity
  8
0
 60
1
100
AcDbPolyline
 90
4
 70
1
 10
-24.5
 20
-25.0
 10
-21.5
 20
-25.0
 10
-21.5
 20
25.0
 10
-24.5
 20
25.0
  0
LWPOLYLINE
  5
F9
330
E4
100
AcDbEntity
  8
0
 60
1
100
AcDbPolyline
 90
4
 70
1
 10
-21.5
 20
-21.5
 10
-7.5
 20
-21.5
 10
-7.5
 20
21.5
 10
-21.5
 20
21.5
  0
LWPOLYLINE
  5
FA
330
E4
100
AcDbEntity
  8
0
 60
1
100
AcDbPolyline
 90
4
 70
1
 10
-32.5
 20
-21.5
 10
-24.5
 20
-21.5
 10
-24.5
 20
21.5
 10
-32.5
 20
21.5
  0
LWPOLYLINE
  5
FB
330
E4
100
AcDbEntity
  8
0
 60
1
100
AcDbPolyline
 90
4
 70
1
 10
-54.5
 20
-21.5
 10
-46.5
 20
-21.5
 10
-46.5
 20
21.5
 10
-54.5
 20
21.5
  0
LWPOLYLINE
  5
FC
330
E4
100
AcDbEntity
  8
0
 60
1
100
AcDbPolyline
 90
4
 70
1
 10
-43.5
 20
-21.5
 10
-35.5
 20
-21.5
 10
-35.5
 20
21.5
 10
-43.5
 20
21.5
  0
LINE
  5
FD
330
E4
100
AcDbEntity
  8
0
 60
1
100
AcDbLine
 10
32.0
 20
14.0
 30
0.0
 11
32.0
 21
-24.0
 31
0.0
  0
LINE
  5
FE
330
E4
100
AcDbEntity
  8
0
 60
1
100
AcDbLine
 10
14.0
 20
-14.0
 30
0.0
 11
14.0
 21
14.0
 31
0.0
  0
LINE
  5
FF
330
E4
100
AcDbEntity
  8
0
 60
1
100
AcDbLine
 10
14.0
 20
-16.0
 30
0.0
 11
21.0
 21
-16.0
 31
0.0
  0
LINE
  5
100
330
E4
100
AcDbEntity
  8
0
 60
1
100
AcDbLine
 10
14.0
 20
-14.0
 30
0.0
 11
14.0
 21
-16.0
 31
0.0
  0
LINE
  5
101
330
E4
100
AcDbEntity
  8
0
 60
1
100
AcDbLine
 10
14.0
 20
-14.0
 30
0.0
 11
10.0
 21
-14.0
 31
0.0
  0
LINE
  5
102
330
E4
100
AcDbEntity
  8
0
 60
1
100
AcDbLine
 10
21.0
 20
-24.0
 30
0.0
 11
32.0
 21
-24.0
 31
0.0
  0
LINE
  5
103
330
E4
100
AcDbEntity
  8
0
 60
1
100
AcDbLine
 10
21.0
 20
-16.0
 30
0.0
 11
21.0
 21
-24.0
 31
0.0
  0
LINE
  5
104
330
E4
100
AcDbEntity
  8
0
 60
1
100
AcDbLine
 10
10.0
 20
15.48095798565055
 30
0.0
 11
32.0
 21
14.0
 31
0.0
  0
LWPOLYLINE
  5
105
330
E4
100
AcDbEntity
  8
0
 60
1
100
AcDbPolyline
 90
4
 70
1
 10
0.0
 20
6.0
 10
8.0
 20
6.0
 10
8.0
 20
-6.0
 10
0.0
 20
-6.0
  0
LINE
  5
106
330
E4
100
AcDbEntity
  8
0
 60
1
100
AcDbLine
 10
8.0
 20
-3.0
 30
0.0
 11
10.0
 21
-3.0
 31
0.0
  0
LINE
  5
107
330
E4
100
AcDbEntity
  8
0
 60
1
100
AcDbLine
 10
8.0
 20
3.0
 30
0.0
 11
10.0
 21
3.0
 31
0.0
  0
LINE
  5
108
330
E4
100
AcDbEntity
  8
0
 60
1
100
AcDbLine
 10
14.0
 20
14.0
 30
0.0
 11
10.0
 21
14.0
 31
0.0
  0
TEXT
  5
109
330
E4
100
AcDbEntity
  8
0
 60
1
100
AcDbText
 10
-16.33928571428572
 20
35.87499999999999
 30
0.0
 40
5.0
  1
VOLTMETER
  7
hw_Block
 41
0.75
 72
1
 11
0.0
 21
38.375
 31
0.0
100
AcDbText
 73
2
  0
TEXT
  5
10A
330
E4
100
AcDbEntity
  8
0
 60
1
100
AcDbText
 10
-19.12418829098299
 20
13.40990257669728
 30
0.0
 40
5.0
  1
RS
  7
hw_Block
 41
0.75
 72
1
 11
-15.90990257669728
 21
15.90990257669728
 31
0.0
100
AcDbText
 73
2
  0
TEXT
  5
10B
330
E4
100
AcDbEntity
  8
0
 60
1
100
AcDbText
 10
-25.625
 20
-2.5
 30
0.0
 40
5.0
  1
ST
  7
hw_Block
 41
0.75
 72
1
 11
-22.5
 21
0.0
 31
0.0
100
AcDbText
 73
2
  0
TEXT
  5
10C
330
E4
100
AcDbEntity
  8
0
 60
1
100
AcDbText
 10
-19.2134740052687
 20
-18.40990257669728
 30
0.0
 40
5.0
  1
TR
  7
hw_Block
 41
0.75
 72
1
 11
-15.90990257669728
 21
-15.90990257669728
 31
0.0
100
AcDbText
 73
2
  0
TEXT
  5
10D
330
E4
100
AcDbEntity
  8
0
 60
1
100
AcDbText
 10
12.51704543384013
 20
-18.40990257669728
 30
0.0
 40
5.0
  1
TN
  7
hw_Block
 41
0.75
 72
1
 11
15.90990257669728
 21
-15.90990257669728
 31
0.0
100
AcDbText
 73
2
  0
TEXT
  5
10E
330
E4
100
AcDbEntity
  8
0
 60
1
100
AcDbText
 10
19.01785714285714
 20
-2.5
 30
0.0
 40
5.0
  1
SN
  7
hw_Block
 41
0.75
 72
1
 11
22.5
 21
0.0
 31
0.0
100
AcDbText
 73
2
  0
TEXT
  5
10F
330
E4
100
AcDbEntity
  8
0
 60
1
100
AcDbText
 10
12.24918829098299
 20
13.40990257669728
 30
0.0
 40
5.0
  1
RN
  7
hw_Block
 41
0.75
 72
1
 11
15.90990257669728
 21
15.90990257669728
 31
0.0
100
AcDbText
 73
2
  0
LWPOLYLINE
  5
110
330
E4
100
AcDbEntity
  8
hw_Punch
 60
1
100
AcDbPolyline
 90
4
 70
1
 10
-2.0
 20
-7.5
 10
0.0
 20
-7.5
 10
0.0
 20
7.5
 10
-2.0
 20
7.5
  0
HATCH
  5
111
330
E4
100
AcDbEntity
  8
0
100
AcDbHatch
 10
0.0
 20
0.0
 30
0.0
210
0.0
220
0.0
230
1.0
  2
SOLID
 70
1
 71
0
 91
1
 92
7
 72
0
 73
1
 93
42
 10
0.2354304577106632
 20
15.31511139575106
 10
0.229438656420908
 20
15.33024495830929
 10
0.2227516310470313
 20
15.3444556105855
 10
0.2151855067510864
 20
15.35821833958793
 10
0.2067701435686444
 20
15.37147883011357
 10
0.1975387530938403
 20
15.38418474906387
 10
0.1875277674077676
 20
15.39628595198122
 10
0.1767766952961599
 20
15.40773468094759
 10
0.1653279663306242
 20
15.41848575305836
 10
0.1532267634131547
 20
15.42849673874447
 10
0.1405208444629006
 20
15.43772812921922
 10
0.1272603539375616
 20
15.4461434924015
 10
0.1134976249343734
 20
15.45370961669786
 10
0.0992869726587547
 20
15.46039664207146
 10
0.0846844800614344
 20
15.46617817788901
 10
0.0697477765096706
 20
15.47103140706977
 10
0.0545358103490561
 20
15.47493717613519
 10
0.0391086162601079
 20
15.47788007079926
 10
0.0235270783297627
 20
15.47984847680125
 10
0.007852689769464
 20
15.48083462574193
 10
-0.0078526897695699
 20
15.48083462574193
 10
-0.02352707832966
 20
15.47984847680125
 10
-0.0391086162600849
 20
15.47788007079926
 10
-0.0545358103491556
 20
15.47493717613518
 10
-0.0697477765098238
 20
15.47103140706973
 10
-0.0846844800613683
 20
15.46617817788903
 10
-0.0992869726586134
 20
15.46039664207153
 10
-0.1134976249348242
 20
15.45370961669761
 10
-0.1272603539377164
 20
15.4461434924014
 10
-0.1405208444632144
 20
15.43772812921897
 10
-0.1532267634133707
 20
15.42849673874433
 10
-0.1653279663308288
 20
15.41848575305816
 10
-0.1767766952968425
 20
15.40773468094692
 10
-0.1875277674073196
 20
15.39628595198168
 10
-0.1975387530935989
 20
15.38418474906408
 10
-0.2067701435685788
 20
15.37147883011357
 10
-0.2151855067512734
 20
15.35821833958762
 10
-0.2227516310469215
 20
15.34445561058568
 10
-0.2294386564209922
 20
15.33024495830923
 10
-0.2354304577106632
 20
15.31511139575094
 10
-0.2354304577106632
 20
7.5
 10
0.2354304577106632
 20
7.5
 97
0
 75
0
 76
1
 47
0.0228522779943226
 98
1
 10
0.0955651971297584
 20
10.71142149318397
450
0
451
0
460
0.0
461
0.0
452
0
462
0.0
453
0
470

  0
CIRCLE
  5
112
330
E4
100
AcDbEntity
  8
0
100
AcDbCircle
 10
0.0
 20
-14.0
 30
0.0
 40
2.5
  0
LINE
  5
113
330
E4
100
AcDbEntity
  8
0
100
AcDbLine
 10
0.13799999999992
 20
-13.15199999999999
 30
0.0
 11
-0.1380000000000336
 21
-13.15199999999999
 31
0.0
  0
LINE
  5
114
330
E4
100
AcDbEntity
  8
0
100
AcDbLine
 10
0.8479999999999563
 20
-13.86207999999999
 30
0.0
 11
0.13799999999992
 21
-13.86207999999999
 31
0.0
  0
LINE
  5
115
330
E4
100
AcDbEntity
  8
0
100
AcDbLine
 10
0.8479999999999563
 20
-14.13796000000002
 30
0.0
 11
0.8479999999999563
 21
-13.86207999999999
 31
0.0
  0
LINE
  5
116
330
E4
100
AcDbEntity
  8
0
100
AcDbLine
 10
0.13799999999992
 20
-14.13796000000002
 30
0.0
 11
0.8479999999999563
 21
-14.13796000000002
 31
0.0
  0
LINE
  5
117
330
E4
100
AcDbEntity
  8
0
100
AcDbLine
 10
0.13799999999992
 20
-14.84803999999997
 30
0.0
 11
0.13799999999992
 21
-14.13796000000002
 31
0.0
  0
LINE
  5
118
330
E4
100
AcDbEntity
  8
0
100
AcDbLine
 10
-0.1380000000000336
 20
-14.84803999999997
 30
0.0
 11
0.13799999999992
 21
-14.84803999999997
 31
0.0
  0
LINE
  5
119
330
E4
100
AcDbEntity
  8
0
100
AcDbLine
 10
-0.1380000000000336
 20
-14.13796000000002
 30
0.0
 11
-0.1380000000000336
 21
-14.84803999999997
 31
0.0
  0
LINE
  5
11A
330
E4
100
AcDbEntity
  8
0
100
AcDbLine
 10
-0.8480400000000827
 20
-14.13796000000002
 30
0.0
 11
-0.1380000000000336
 21
-14.13796000000002
 31
0.0
  0
LINE
  5
11B
330
E4
100
AcDbEntity
  8
0
100
AcDbLine
 10
-0.8480400000000827
 20
-13.86207999999999
 30
0.0
 11
-0.8480400000000827
 21
-14.13796000000002
 31
0.0
  0
LINE
  5
11C
330
E4
100
AcDbEntity
  8
0
100
AcDbLine
 10
-0.1380000000000336
 20
-13.86207999999999
 30
0.0
 11
-0.8480400000000827
 21
-13.86207999999999
 31
0.0
  0
LINE
  5
11D
330
E4
100
AcDbEntity
  8
0
100
AcDbLine
 10
-0.1380000000000336
 20
-13.15199999999999
 30
0.0
 11
-0.1380000000000336
 21
-13.86207999999999
 31
0.0
  0
LINE
  5
11E
330
E4
100
AcDbEntity
  8
0
100
AcDbLine
 10
0.13799999999992
 20
-13.86207999999999
 30
0.0
 11
0.13799999999992
 21
-13.15199999999999
 31
0.0
  0
CIRCLE
  5
11F
330
E4
100
AcDbEntity
  8
0
100
AcDbCircle
 10
0.0
 20
-14.0
 30
0.0
 40
1.75
  0
LWPOLYLINE
  5
120
330
E4
100
AcDbEntity
  8
0
 60
1
100
AcDbPolyline
 90
4
 70
1
 10
0.0
 20
47.0
 10
10.0
 20
47.0
 10
10.0
 20
-32.0
 10
0.0
 20
-32.0
  0
TEXT
  5
121
330
E4
100
AcDbEntity
  8
0
100
AcDbText
 10
-1.25
 20
20.0
 30
0.0
 40
5.0
  1
0
  7
hw_Block
 41
0.75
 72
1
 11
0.0
 21
22.5
 31
0.0
100
AcDbText
 73
2
  0
TEXT
  5
122
330
E4
100
AcDbEntity
  8
0
100
AcDbText
 10
-1.25
 20
-25.0
 30
0.0
 40
5.0
  1
2
  7
hw_Block
 41
0.75
 72
1
 11
-5e-16
 21
-22.5
 31
0.0
100
AcDbText
 73
2
  0
TEXT
  5
123
330
E4
100
AcDbEntity
  8
0
100
AcDbText
 10
-23.75
 20
-2.5
 30
0.0
 40
5.0
  1
3
  7
hw_Block
 41
0.75
 72
1
 11
-22.5
 21
0.0
 31
0.0
100
AcDbText
 73
2
  0
TEXT
  5
124
330
E4
100
AcDbEntity
  8
0
100
AcDbText
 10
21.69642857142857
 20
-2.5
 30
0.0
 40
5.0
  1
1
  7
hw_Block
 41
0.75
 72
1
 11
22.5
 21
0.0
 31
0.0
100
AcDbText
 73
2
  0
TEXT
  5
125
330
E4
100
AcDbEntity
  8
0
100
AcDbText
 10
-13.39285714285714
 20
35.87499999999999
 30
0.0
 40
5.0
  1
AMMETER
  7
hw_Block
 41
0.75
 72
1
 11
0.0
 21
38.375
 31
0.0
100
AcDbText
 73
2
  0
LINE
  5
126
330
E4
100
AcDbEntity
  8
Defpoints
 62
5
100
AcDbLine
 10
0.0
 20
0.0
 30
0.0
 11
0.0
 21
0.0
 31
0.0
  0
ENDBLK
  5
E6
330
E4
100
AcDbEntity
  8
0
100
AcDbBlockEnd
  0
BLOCK
  5
128
330
127
100
AcDbEntity
  8
0
100
AcDbBlockBegin
  2
*U193
 70
3
 10
0.0
 20
0.0
 30
0.0
  3
*U193
  1

  0
LWPOLYLINE
  5
12A
330
127
100
AcDbEntity
  8
0
100
AcDbPolyline
 90
4
 70
1
 10
-48.0
 20
-48.00000000000003
 10
48.0
 20
-48.00000000000003
 10
48.0
 20
47.99999999999997
 10
-48.0
 20
47.99999999999997
  0
LWPOLYLINE
  5
12B
330
127
100
AcDbEntity
  8
hw_Punch
100
AcDbPolyline
 90
4
 70
1
 10
-46.0
 20
-46.00000000000003
 10
46.0
 20
-46.00000000000003
 10
46.0
 20
45.99999999999996
 10
-46.0
 20
45.99999999999996
  0
LWPOLYLINE
  5
12C
330
127
100
AcDbEntity
  8
0
100
AcDbPolyline
 90
5
 70
0
 10
40.49999999999999
 20
-6.000000000000028
 10
40.49999999999999
 20
40.49999999999994
 10
-40.5
 20
40.49999999999997
 10
-40.5
 20
-40.50000000000003
 10
5.999999999999992
 20
-40.50000000000003
  0
LINE
  5
12D
330
127
100
AcDbEntity
  8
0
 62
1
100
AcDbLine
 10
10.99999999999982
 20
-26.75000000000003
 30
0.0
 11
-28.06755007218391
 21
-26.75000000000003
 31
0.0
  0
LINE
  5
12E
330
127
100
AcDbEntity
  8
0
 62
1
100
AcDbLine
 10
10.99999999999982
 20
-29.25000000000003
 30
0.0
 11
-28.06755007218397
 21
-29.25000000000003
 31
0.0
  0
LINE
  5
12F
330
127
100
AcDbEntity
  8
0
100
AcDbLine
 10
-10.57173018335408
 20
15.98262873752011
 30
0.0
 11
-13.86845925885445
 21
19.74182777491504
 31
0.0
  0
LINE
  5
130
330
127
100
AcDbEntity
  8
0
100
AcDbLine
 10
-30.37474700945831
 20
-24.17391694003664
 30
0.0
 11
-35.36404162565141
 21
-23.84690129388591
 31
0.0
  0
LINE
  5
131
330
127
100
AcDbEntity
  8
0
 62
1
100
AcDbLine
 10
-30.50000000000001
 20
-27.99999999999997
 30
0.0
 11
-35.50000000000012
 21
-27.99999999999997
 31
0.0
  0
LINE
  5
132
330
127
100
AcDbEntity
  8
0
 62
1
100
AcDbLine
 10
-30.50000000000001
 20
-28.00000000000003
 30
0.0
 11
-35.50000000000001
 21
-28.00000000000003
 31
0.0
  0
LINE
  5
133
330
127
100
AcDbEntity
  8
0
100
AcDbLine
 10
-29.99952439036793
 20
-20.36421775512699
 30
0.0
 11
-34.95674869723707
 21
-19.71158679402671
 31
0.0
  0
LINE
  5
134
330
127
100
AcDbEntity
  8
0
100
AcDbLine
 10
-29.37593890358898
 20
-16.58721616205653
 30
0.0
 11
-34.27986530560521
 21
-15.61176455197588
 31
0.0
  0
LINE
  5
135
330
127
100
AcDbEntity
  8
0
100
AcDbLine
 10
-40.5
 20
-40.50000000000003
 30
0.0
 11
-46.0
 21
-46.00000000000003
 31
0.0
  0
LINE
  5
136
330
127
100
AcDbEntity
  8
0
 62
1
100
AcDbLine
 10
-30.50000000000001
 20
-28.00000000000003
 30
0.0
 11
-28.06755007218397
 21
-29.25000000000003
 31
0.0
  0
LINE
  5
137
330
127
100
AcDbEntity
  8
0
 62
1
100
AcDbLine
 10
-30.50000000000001
 20
-28.00000000000003
 30
0.0
 11
-28.06755007218391
 21
-26.75000000000003
 31
0.0
  0
LINE
  5
138
330
127
100
AcDbEntity
  8
0
100
AcDbLine
 10
-28.5066608379105
 20
-12.85908586150253
 30
0.0
 11
-33.33628996935591
 21
-11.56499063598991
 31
0.0
  0
LINE
  5
139
330
127
100
AcDbEntity
  8
0
100
AcDbLine
 10
-20.64097231969891
 20
4.50085863164665
 30
0.0
 11
-24.79832038121175
 21
7.27870979674472
 31
0.0
  0
LINE
  5
13A
330
127
100
AcDbEntity
  8
0
100
AcDbLine
 10
-26.04695265191027
 20
-5.61301920664232
 30
0.0
 11
-30.66635031446681
 21
-3.699602044816828
 31
0.0
  0
LINE
  5
13B
330
127
100
AcDbEntity
  8
0
100
AcDbLine
 10
-27.3954125754637
 20
-9.195791279765103
 30
0.0
 11
-32.13006322293928
 21
-7.588593953249272
 31
0.0
  0
LINE
  5
13C
330
127
100
AcDbEntity
  8
0
100
AcDbLine
 10
-24.46705537966228
 20
-2.12611162218846
 30
0.0
 11
-28.95141908732576
 21
0.0853318289065612
 31
0.0
  0
LINE
  5
13D
330
127
100
AcDbEntity
  8
0
100
AcDbLine
 10
-22.6624861213897
 20
1.249999999999914
 30
0.0
 11
-26.99261314031197
 21
3.749999999999971
 31
0.0
  0
LINE
  5
13E
330
127
100
AcDbEntity
  8
0
100
AcDbLine
 10
-13.36574669941309
 20
13.36574669941294
 30
0.0
 11
-16.90128060534585
 21
16.9012806053457
 31
0.0
  0
LINE
  5
13F
330
127
100
AcDbEntity
  8
0
100
AcDbLine
 10
-15.98262873752021
 20
10.57173018335396
 30
0.0
 11
-19.74182777491513
 21
13.86845925885436
 31
0.0
  0
LINE
  5
140
330
127
100
AcDbEntity
  8
0
100
AcDbLine
 10
-18.41117040703728
 20
7.612543597010073
 30
0.0
 11
-22.37793710849349
 21
10.65635074205371
 31
0.0
  0
LINE
  5
141
330
127
100
AcDbEntity
  8
0
100
AcDbLine
 10
-40.5
 20
40.49999999999997
 30
0.0
 11
-46.0
 21
45.99999999999996
 31
0.0
  0
LINE
  5
142
330
127
100
AcDbEntity
  8
0
100
AcDbLine
 10
-4.500858631646799
 20
20.64097231969882
 30
0.0
 11
-7.278709796744813
 21
24.7983203812116
 31
0.0
  0
LINE
  5
143
330
127
100
AcDbEntity
  8
0
100
AcDbLine
 10
-1.250000000000007
 20
22.66248612138964
 30
0.0
 11
-3.750000000000063
 21
26.99261314031185
 31
0.0
  0
LWPOLYLINE
  5
144
330
127
100
AcDbEntity
  8
0
100
AcDbPolyline
 90
4
 70
0
 10
11.0
 20
-46.00000000000003
 10
10.99999999999982
 20
-26.00000000000013
 42
-0.4142135623730966
 10
25.99999999999983
 20
-11.00000000000003
 10
46.0
 20
-11.00000000000003
  0
LWPOLYLINE
  5
145
330
127
100
AcDbEntity
  8
0
100
AcDbPolyline
 90
2
 70
0
 10
30.5
 20
-6.000000000000028
 10
40.49999999999999
 20
-6.000000000000028
  0
LWPOLYLINE
  5
146
330
127
100
AcDbEntity
  8
0
100
AcDbPolyline
 90
2
 70
0
 10
5.999999999999992
 20
-40.50000000000003
 10
5.999999999999992
 20
-30.50000000000003
  0
LINE
  5
147
330
127
100
AcDbEntity
  8
0
100
AcDbLine
 10
11.0
 20
-46.00000000000003
 30
0.0
 11
5.999999999999992
 21
-40.50000000000003
 31
0.0
  0
LINE
  5
148
330
127
100
AcDbEntity
  8
0
100
AcDbLine
 10
10.99999999999988
 20
-30.50000000000003
 30
0.0
 11
5.999999999999992
 21
-30.50000000000003
 31
0.0
  0
LINE
  5
149
330
127
100
AcDbEntity
  8
0
100
AcDbLine
 10
31.30859393225148
 20
-25.75206623952829
 30
0.0
 11
25.75206623952823
 21
-31.30859393225151
 31
0.0
  0
CIRCLE
  5
14A
330
127
100
AcDbEntity
  8
0
100
AcDbCircle
 10
28.0
 20
-28.00000000000003
 30
0.0
 40
4.0
  0
LINE
  5
14B
330
127
100
AcDbEntity
  8
0
100
AcDbLine
 10
30.24793376047171
 20
-24.69140606774852
 30
0.0
 11
24.69140606774846
 21
-30.24793376047171
 31
0.0
  0
LINE
  5
14C
330
127
100
AcDbEntity
  8
0
100
AcDbLine
 10
-7.612543597010194
 20
18.41117040703719
 30
0.0
 11
-10.65635074205381
 21
22.3779371084934
 31
0.0
  0
LINE
  5
14D
330
127
100
AcDbEntity
  8
0
100
AcDbLine
 10
30.5
 20
-11.00000000000003
 30
0.0
 11
30.5
 21
-6.000000000000028
 31
0.0
  0
LINE
  5
14E
330
127
100
AcDbEntity
  8
0
100
AcDbLine
 10
46.0
 20
-11.00000000000003
 30
0.0
 11
40.49999999999999
 21
-6.000000000000028
 31
0.0
  0
LINE
  5
14F
330
127
100
AcDbEntity
  8
0
100
AcDbLine
 10
12.85908586150248
 20
28.50666083791046
 30
0.0
 11
11.56499063598988
 21
33.33628996935582
 31
0.0
  0
LINE
  5
150
330
127
100
AcDbEntity
  8
0
100
AcDbLine
 10
2.126111622188425
 20
24.46705537966224
 30
0.0
 11
-0.0853318289065968
 21
28.95141908732572
 31
0.0
  0
LINE
  5
151
330
127
100
AcDbEntity
  8
0
100
AcDbLine
 10
5.613019206642199
 20
26.04695265191023
 30
0.0
 11
3.699602044816735
 21
30.66635031446669
 31
0.0
  0
LINE
  5
152
330
127
100
AcDbEntity
  8
0
100
AcDbLine
 10
9.195791279764983
 20
27.39541257546361
 30
0.0
 11
7.588593953249123
 21
32.13006322293921
 31
0.0
  0
LINE
  5
153
330
127
100
AcDbEntity
  8
0
100
AcDbLine
 10
20.3642177551269
 20
29.99952439036787
 30
0.0
 11
19.71158679402663
 21
34.95674869723695
 31
0.0
  0
LINE
  5
154
330
127
100
AcDbEntity
  8
0
100
AcDbLine
 10
16.58721616205645
 20
29.37593890358895
 30
0.0
 11
15.61176455197579
 21
34.27986530560512
 31
0.0
  0
LINE
  5
155
330
127
100
AcDbEntity
  8
0
100
AcDbLine
 10
27.99999999999994
 20
30.49999999999997
 30
0.0
 11
27.99999999999994
 21
35.49999999999997
 31
0.0
  0
LINE
  5
156
330
127
100
AcDbEntity
  8
0
100
AcDbLine
 10
24.17391694003652
 20
30.37474700945828
 30
0.0
 11
23.84690129388582
 21
35.36404162565131
 31
0.0
  0
LINE
  5
157
330
127
100
AcDbEntity
  8
0
100
AcDbLine
 10
40.49999999999999
 20
40.49999999999994
 30
0.0
 11
46.0
 21
45.99999999999996
 31
0.0
  0
LWPOLYLINE
  5
158
330
127
100
AcDbEntity
  8
0
 60
1
100
AcDbPolyline
 90
4
 70
1
 10
-45.0
 20
44.0
 10
45.0
 20
44.0
 10
45.0
 20
62.0
 10
-45.0
 20
62.0
  0
LINE
  5
159
330
127
100
AcDbEntity
  8
0
 60
1
100
AcDbLine
 10
-48.0
 20
-5.999999999999985
 30
0.0
 11
48.0
 21
-5.999999999999985
 31
0.0
  0
LWPOLYLINE
  5
15A
330
127
100
AcDbEntity
  8
0
 60
1
100
AcDbPolyline
 90
4
 70
1
 10
-62.00000000000001
 20
6.5
 10
-44.00000000000001
 20
6.5
 10
-44.00000000000001
 20
45.0
 10
-62.00000000000001
 20
45.0
  0
TEXT
  5
15B
330
127
100
AcDbEntity
  8
0
100
AcDbText
 10
-34.90476190476191
 20
-30.50000000000003
 30
0.0
 40
5.0
  1
O
  7
hw_Block
 72
1
 11
-33.00000000000001
 21
-28.00000000000003
 31
0.0
100
AcDbText
 73
2
  0
TEXT
  5
15C
330
127
100
AcDbEntity
  8
0
100
AcDbText
 10
17.60714285714285
 20
-43.50000000000003
 30
0.0
 40
5.0
  1
BEW 96
  7
hw_Block
 41
0.75
 72
1
 11
28.5
 21
-41.00000000000003
 31
0.0
100
AcDbText
 73
2
  0
LWPOLYLINE
  5
15D
330
127
100
AcDbEntity
  8
0
 60
1
100
AcDbPolyline
 90
4
 70
1
 10
-48.0
 20
0.0
 10
48.0
 20
0.0
 10
48.0
 20
-5.999999999999985
 10
-48.0
 20
-5.999999999999985
  0
LWPOLYLINE
  5
15E
330
127
100
AcDbEntity
  8
0
 60
1
100
AcDbPolyline
 90
4
 70
1
 10
-45.0
 20
62.0
 10
45.0
 20
62.0
 10
45.0
 20
44.0
 10
-45.0
 20
44.0
  0
LWPOLYLINE
  5
15F
330
127
100
AcDbEntity
  8
0
 60
1
100
AcDbPolyline
 90
4
 70
1
 10
-45.0
 20
44.0
 10
45.0
 20
44.0
 10
45.0
 20
2.0
 10
-45.0
 20
2.0
  0
LWPOLYLINE
  5
160
330
127
100
AcDbEntity
  8
hw_Punch
 60
1
100
AcDbPolyline
 90
4
 70
1
 10
-46.0
 20
0.0
 10
46.0
 20
0.0
 10
46.0
 20
2.0
 10
-46.0
 20
2.0
  0
LWPOLYLINE
  5
161
330
127
100
AcDbEntity
  8
0
 60
1
100
AcDbPolyline
 90
4
 70
1
 10
-44.00000000000001
 20
45.0
 10
-2.000000000000014
 20
45.0
 10
-2.000000000000014
 20
-45.0
 10
-44.00000000000001
 20
-45.0
  0
LWPOLYLINE
  5
162
330
127
100
AcDbEntity
  8
0
 60
1
100
AcDbPolyline
 90
4
 70
1
 10
-1.42e-14
 20
48.0
 10
5.999999999999985
 20
48.0
 10
5.999999999999985
 20
-48.0
 10
-1.42e-14
 20
-48.0
  0
LWPOLYLINE
  5
163
330
127
100
AcDbEntity
  8
hw_Punch
 60
1
100
AcDbPolyline
 90
4
 70
1
 10
-2.000000000000014
 20
-46.0
 10
-1.42e-14
 20
-46.0
 10
-1.42e-14
 20
46.0
 10
-2.000000000000014
 20
46.0
  0
TEXT
  5
164
330
127
100
AcDbEntity
  8
0
 60
1
100
AcDbText
 10
-10.26785714285714
 20
25.5
 30
0.0
 40
5.0
  1
TAIWAN
  7
hw_Block
 41
0.75
 72
1
 11
3.6e-15
 21
28.0
 31
0.0
100
AcDbText
 73
2
  0
TEXT
  5
165
330
127
100
AcDbEntity
  8
0
 60
1
100
AcDbText
 10
-10.89285714285714
 20
15.5
 30
0.0
 40
5.0
  1
BEW 96
  7
hw_Block
 41
0.75
 72
1
 11
3.6e-15
 21
18.0
 31
0.0
100
AcDbText
 73
2
  0
TEXT
  5
166
330
127
100
AcDbEntity
  8
0
 60
1
100
AcDbText
 10
-25.50000000000002
 20
-10.26785714285714
 30
0.0
 40
5.0
  1
TAIWAN
 50
90.0
  7
hw_Block
 41
0.75
 72
1
 11
-28.00000000000002
 21
0.0
 31
0.0
100
AcDbText
 73
2
  0
TEXT
  5
167
330
127
100
AcDbEntity
  8
0
 60
1
100
AcDbText
 10
-15.50000000000001
 20
-10.89285714285715
 30
0.0
 40
5.0
  1
BEW 96
 50
90.0
  7
hw_Block
 41
0.75
 72
1
 11
-18.00000000000001
 21
0.0
 31
0.0
100
AcDbText
 73
2
  0
ATTDEF
  5
168
330
127
100
AcDbEntity
  8
0
100
AcDbText
 10
21.57142857142863
 20
22.99999999999991
 30
0.0
 40
5.0
  1
500
  7
hw_Block
 72
1
 11
28.00000000000006
 21
25.49999999999992
 31
0.0
100
AcDbAttributeDefinition
  3
Nhập mức đo Max:
  2
MAX
 70
0
 74
2
280
1
 71
1
 72
0
 11
28.00000000000006
 21
25.49999999999992
 31
0.0
  0
TEXT
  5
169
330
127
100
AcDbEntity
  8
0
 60
1
100
AcDbText
 10
-35.85714285714286
 20
25.49999999999997
 30
0.0
 40
10.0
  1
V
  7
hw_Block
 41
1.25
 72
1
 11
-30.50000000000001
 21
30.49999999999997
 31
0.0
100
AcDbText
 73
2
  0
TEXT
  5
16A
330
127
100
AcDbEntity
  8
0
100
AcDbText
 10
-35.85714285714286
 20
25.49999999999997
 30
0.0
 40
10.0
  1
A
  7
hw_Block
 41
1.25
 72
1
 11
-30.50000000000001
 21
30.49999999999997
 31
0.0
100
AcDbText
 73
2
  0
LINE
  5
16B
330
127
100
AcDbEntity
  8
Defpoints
 62
5
100
AcDbLine
 10
0.0
 20
0.0
 30
0.0
 11
0.0
 21
0.0
 31
0.0
  0
ENDBLK
  5
129
330
127
100
AcDbEntity
  8
0
100
AcDbBlockEnd
  0
ENDSEC
  0
SECTION
  2
ENTITIES
  0
INSERT
  5
2F
330
17
100
AcDbEntity
  8
0
100
AcDbBlockReference
  2
*U199
 10
302.0
 20
152.0
 30
0.0
  0
ENDSEC
  0
SECTION
  2
OBJECTS
  0
DICTIONARY
  5
A
330
0
100
AcDbDictionary
281
1
  3
ACAD_COLOR
350
B
  3
ACAD_GROUP
350
C
  3
ACAD_LAYOUT
350
D
  3
ACAD_MATERIAL
350
E
  3
ACAD_MLEADERSTYLE
350
F
  3
ACAD_MLINESTYLE
350
10
  3
ACAD_PLOTSETTINGS
350
11
  3
ACAD_PLOTSTYLENAME
350
12
  3
ACAD_SCALELIST
350
14
  3
ACAD_TABLESTYLE
350
15
  3
ACAD_VISUALSTYLE
350
16
  3
EZDXF_META
350
2D
  0
DICTIONARY
  5
B
330
A
100
AcDbDictionary
281
1
  0
DICTIONARY
  5
C
330
A
100
AcDbDictionary
281
1
  0
DICTIONARY
  5
D
330
A
100
AcDbDictionary
281
1
  3
Model
350
1A
  3
Layout1
350
1E
  0
DICTIONARY
  5
E
330
A
100
AcDbDictionary
281
1
  3
ByBlock
350
1F
  3
ByLayer
350
20
  3
Global
350
21
  0
DICTIONARY
  5
F
330
A
100
AcDbDictionary
281
1
  3
Standard
350
2C
  0
DICTIONARY
  5
10
330
A
100
AcDbDictionary
281
1
  3
Standard
350
22
  0
DICTIONARY
  5
11
330
A
100
AcDbDictionary
281
1
  0
ACDBDICTIONARYWDFLT
  5
12
330
A
100
AcDbDictionary
281
1
  3
Normal
350
13
100
AcDbDictionaryWithDefault
340
13
  0
ACDBPLACEHOLDER
  5
13
330
12
  0
DICTIONARY
  5
14
330
A
100
AcDbDictionary
281
1
  0
DICTIONARY
  5
15
330
A
100
AcDbDictionary
281
1
  0
DICTIONARY
  5
16
330
A
100
AcDbDictionary
281
1
  0
LAYOUT
  5
1A
330
D
100
AcDbPlotSettings
  1

  4
A3
  6

 40
7.5
 41
20.0
 42
7.5
 43
20.0
 44
420.0
 45
297.0
 46
0.0
 47
0.0
 48
0.0
 49
0.0
140
0.0
141
0.0
142
1.0
143
1.0
 70
1024
 72
1
 73
0
 74
5
  7

 75
16
 76
0
 77
2
 78
300
147
1.0
148
0.0
149
0.0
100
AcDbLayout
  1
Model
 70
1
 71
0
 10
0.0
 20
0.0
 11
420.0
 21
297.0
 12
0.0
 22
0.0
 32
0.0
 14
1e+20
 24
1e+20
 34
1e+20
 15
-1e+20
 25
-1e+20
 35
-1e+20
146
0.0
 13
0.0
 23
0.0
 33
0.0
 16
1.0
 26
0.0
 36
0.0
 17
0.0
 27
1.0
 37
0.0
 76
1
330
17
  0
LAYOUT
  5
1E
330
D
100
AcDbPlotSettings
  1

  4
A3
  6

 40
7.5
 41
20.0
 42
7.5
 43
20.0
 44
420.0
 45
297.0
 46
0.0
 47
0.0
 48
0.0
 49
0.0
140
0.0
141
0.0
142
1.0
143
1.0
 70
0
 72
1
 73
0
 74
5
  7

 75
16
 76
0
 77
2
 78
300
147
1.0
148
0.0
149
0.0
100
AcDbLayout
  1
Layout1
 70
1
 71
1
 10
0.0
 20
0.0
 11
420.0
 21
297.0
 12
0.0
 22
0.0
 32
0.0
 14
1e+20
 24
1e+20
 34
1e+20
 15
-1e+20
 25
-1e+20
 35
-1e+20
146
0.0
 13
0.0
 23
0.0
 33
0.0
 16
1.0
 26
0.0
 36
0.0
 17
0.0
 27
1.0
 37
0.0
 76
1
330
1B
  0
MATERIAL
  5
1F
102
{ACAD_REACTORS
330
E
102
}
330
E
100
AcDbMaterial
  1
ByBlock
  2

 70
0
 40
1.0
 71
1
 41
1.0
 91
-1023410177
 42
1.0
 72
1
  3

 73
1
 74
1
 75
1
 44
0.5
 73
0
 45
1.0
 46
1.0
 77
1
  4

 78
1
 79
1
170
1
 48
1.0
171
1
  6

172
1
173
1
174
1
140
1.0
141
1.0
175
1
  7

176
1
177
1
178
1
143
1.0
179
1
  8

270
1
271
1
272
1
145
1.0
146
1.0
273
1
  9

274
1
275
1
276
1
 42
1.0
 72
1
  3

 73
1
 74
1
 75
1
 94
63
  0
MATERIAL
  5
20
102
{ACAD_REACTORS
330
E
102
}
330
E
100
AcDbMaterial
  1
ByLayer
  2

 70
0
 40
1.0
 71
1
 41
1.0
 91
-1023410177
 42
1.0
 72
1
  3

 73
1
 74
1
 75
1
 44
0.5
 73
0
 45
1.0
 46
1.0
 77
1
  4

 78
1
 79
1
170
1
 48
1.0
171
1
  6

172
1
173
1
174
1
140
1.0
141
1.0
175
1
  7

176
1
177
1
178
1
143
1.0
179
1
  8

270
1
271
1
272
1
145
1.0
146
1.0
273
1
  9

274
1
275
1
276
1
 42
1.0
 72
1
  3

 73
1
 74
1
 75
1
 94
63
  0
MATERIAL
  5
21
102
{ACAD_REACTORS
330
E
102
}
330
E
100
AcDbMaterial
  1
Global
  2

 70
0
 40
1.0
 71
1
 41
1.0
 91
-1023410177
 42
1.0
 72
1
  3

 73
1
 74
1
 75
1
 44
0.5
 73
0
 45
1.0
 46
1.0
 77
1
  4

 78
1
 79
1
170
1
 48
1.0
171
1
  6

172
1
173
1
174
1
140
1.0
141
1.0
175
1
  7

176
1
177
1
178
1
143
1.0
179
1
  8

270
1
271
1
272
1
145
1.0
146
1.0
273
1
  9

274
1
275
1
276
1
 42
1.0
 72
1
  3

 73
1
 74
1
 75
1
 94
63
  0
MLINESTYLE
  5
22
102
{ACAD_REACTORS
330
10
102
}
330
10
100
AcDbMlineStyle
  2
Standard
 70
0
  3

 62
256
 51
90.0
 52
90.0
 71
2
 49
0.5
 62
256
  6
BYLAYER
 49
-0.5
 62
256
  6
BYLAYER
  0
MLEADERSTYLE
  5
2C
102
{ACAD_REACTORS
330
F
102
}
330
F
100
AcDbMLeaderStyle
179
2
170
2
171
1
172
0
 90
2
 40
0.0
 41
0.0
173
1
 91
-1056964608
 92
-2
290
1
 42
2.0
291
1
 43
8.0
  3
Standard
 44
4.0
300

342
29
174
1
175
1
176
0
178
1
 93
-1056964608
 45
4.0
292
0
297
0
 46
4.0
 94
-1056964608
 47
1.0
 49
1.0
140
1.0
294
1
141
0.0
177
0
142
1.0
295
0
296
0
143
3.75
271
0
272
9
273
9
  0
DICTIONARY
  5
2D
330
A
100
AcDbDictionary
280
1
281
1
  3
CREATED_BY_EZDXF
350
2E
  3
WRITTEN_BY_EZDXF
350
170
  0
DICTIONARYVAR
  5
2E
330
2D
100
DictionaryVariables
280
0
  1
1.4.4 @ 2026-09-23T14:03:03.299099+00:00
  0
DICTIONARYVAR
  5
170
330
2D
100
DictionaryVariables
280
0
  1
1.4.4 @ 2026-09-23T14:03:03.597755+00:00
  0
ENDSEC
  0
EOF
