  0
SECTION
  2
HEADER
  9
$ACADVER
  1
AC1032
  9
$ACADMAINTVER
 90
4
  9
$DWGCODEPAGE
  3
ANSI_1252
  9
$LASTSAVEDBY
  1
ezdxf
  9
$REQUIREDVERSIONS
160
0
  9
$INSBASE
 10
0.0
 20
0.0
 30
0.0
  9
$EXTMIN
 10
1e+20
 20
1e+20
 30
1e+20
  9
$EXTMAX
 10
-1e+20
 20
-1e+20
 30
-1e+20
  9
$LIMMIN
 10
0.0
 20
0.0
  9
$LIMMAX
 10
420.0
 20
297.0
  9
$ORTHOMODE
 70
0
  9
$REGENMODE
 70
1
  9
$FILLMODE
 70
1
  9
$QTEXTMODE
 70
0
  9
$MIRRTEXT
 70
1
  9
$LTSCALE
 40
1.0
  9
$ATTMODE
 70
1
  9
$TEXTSIZE
 40
2.5
  9
$TRACEWID
 40
1.0
  9
$TEXTSTYLE
  7
Standard
  9
$CLAYER
  8
0
  9
$CELTYPE
  6
ByLayer
  9
$CECOLOR
 62
256
  9
$CELTSCALE
 40
1.0
  9
$DISPSILH
 70
0
  9
$DIMSCALE
 40
1.0
  9
$DIMASZ
 40
2.5
  9
$DIMEXO
 40
0.625
  9
$DIMDLI
 40
3.75
  9
$DIMRND
 40
0.0
  9
$DIMDLE
 40
0.0
  9
$DIMEXE
 40
1.25
  9
$DIMTP
 40
0.0
  9
$DIMTM
 40
0.0
  9
$DIMTXT
 40
2.5
  9
$DIMCEN
 40
2.5
  9
$DIMTSZ
 40
0.0
  9
$DIMTOL
 70
0
  9
$DIMLIM
 70
0
  9
$DIMTIH
 70
0
  9
$DIMTOH
 70
0
  9
$DIMSE1
 70
0
  9
$DIMSE2
 70
0
  9
$DIMTAD
 70
1
  9
$DIMZIN
 70
8
  9
$DIMBLK
  1

  9
$DIMASO
 70
1
  9
$DIMSHO
 70
1
  9
$DIMPOST
  1

  9
$DIMAPOST
  1

  9
$DIMALT
 70
0
  9
$DIMALTD
 70
3
  9
$DIMALTF
 40
0.03937007874
  9
$DIMLFAC
 40
1.0
  9
$DIMTOFL
 70
1
  9
$DIMTVP
 40
0.0
  9
$DIMTIX
 70
0
  9
$DIMSOXD
 70
0
  9
$DIMSAH
 70
0
  9
$DIMBLK1
  1

  9
$DIMBLK2
  1

  9
$DIMSTYLE
  2
ISO-25
  9
$DIMCLRD
 70
0
  9
$DIMCLRE
 70
0
  9
$DIMCLRT
 70
0
  9
$DIMTFAC
 40
1.0
  9
$DIMGAP
 40
0.625
  9
$DIMJUST
 70
0
  9
$DIMSD1
 70
0
  9
$DIMSD2
 70
0
  9
$DIMTOLJ
 70
0
  9
$DIMTZIN
 70
8
  9
$DIMALTZ
 70
0
  9
$DIMALTTZ
 70
0
  9
$DIMUPT
 70
0
  9
$DIMDEC
 70
2
  9
$DIMTDEC
 70
2
  9
$DIMALTU
 70
2
  9
$DIMALTTD
 70
3
  9
$DIMTXSTY
  7
Standard
  9
$DIMAUNIT
 70
0
  9
$DIMADEC
 70
0
  9
$DIMALTRND
 40
0.0
  9
$DIMAZIN
 70
0
  9
$DIMDSEP
 70
44
  9
$DIMATFIT
 70
3
  9
$DIMFRAC
 70
0
  9
$DIMLDRBLK
  1

  9
$DIMLUNIT
 70
2
  9
$DIMLWD
 70
-2
  9
$DIMLWE
 70
-2
  9
$DIMTMOVE
 70
0
  9
$DIMFXL
 40
1.0
  9
$DIMFXLON
 70
0
  9
$DIMJOGANG
 40
0.785398163397
  9
$DIMTFILL
 70
0
  9
$DIMTFILLCLR
 70
0
  9
$DIMARCSYM
 70
0
  9
$DIMLTYPE
  6

  9
$DIMLTEX1
  6

  9
$DIMLTEX2
  6

  9
$DIMTXTDIRECTION
 70
0
  9
$LUNITS
 70
2
  9
$LUPREC
 70
4
  9
$SKETCHINC
 40
1.0
  9
$FILLETRAD
 40
10.0
  9
$AUNITS
 70
0
  9
$AUPREC
 70
2
  9
$MENU
  1
.
  9
$ELEVATION
 40
0.0
  9
$PELEVATION
 40
0.0
  9
$THICKNESS
 40
0.0
  9
$LIMCHECK
 70
0
  9
$CHAMFERA
 40
0.0
  9
$CHAMFERB
 40
0.0
  9
$CHAMFERC
 40
0.0
  9
$CHAMFERD
 40
0.0
  9
$SKPOLY
 70
0
  9
$TDCREATE
 40
2461307.8775925925
  9
$TDUCREATE
 40
2458532.153996898
  9
$TDUPDATE
 40
2461307.8775925925
  9
$TDUUPDATE
 40
2458532.1544311
  9
$TDINDWG
 40
0.0
  9
$TDUSRTIMER
 40
0.0
  9
$USRTIMER
 70
1
  9
$ANGBASE
 50
0.0
  9
$ANGDIR
 70
0
  9
$PDMODE
 70
0
  9
$PDSIZE
 40
0.0
  9
$PLINEWID
 40
0.0
  9
$SPLFRAME
 70
0
  9
$SPLINETYPE
 70
6
  9
$SPLINESEGS
 70
8
  9
$HANDSEED
  5
14A
  9
$SURFTAB1
 70
6
  9
$SURFTAB2
 70
6
  9
$SURFTYPE
 70
6
  9
$SURFU
 70
6
  9
$SURFV
 70
6
  9
$UCSBASE
  2

  9
$UCSNAME
  2

  9
$UCSORG
 10
0.0
 20
0.0
 30
0.0
  9
$UCSXDIR
 10
1.0
 20
0.0
 30
0.0
  9
$UCSYDIR
 10
0.0
 20
1.0
 30
0.0
  9
$UCSORTHOREF
  2

  9
$UCSORTHOVIEW
 70
0
  9
$UCSORGTOP
 10
0.0
 20
0.0
 30
0.0
  9
$UCSORGBOTTOM
 10
0.0
 20
0.0
 30
0.0
  9
$UCSORGLEFT
 10
0.0
 20
0.0
 30
0.0
  9
$UCSORGRIGHT
 10
0.0
 20
0.0
 30
0.0
  9
$UCSORGFRONT
 10
0.0
 20
0.0
 30
0.0
  9
$UCSORGBACK
 10
0.0
 20
0.0
 30
0.0
  9
$PUCSBASE
  2

  9
$PUCSNAME
  2

  9
$PUCSORG
 10
0.0
 20
0.0
 30
0.0
  9
$PUCSXDIR
 10
1.0
 20
0.0
 30
0.0
  9
$PUCSYDIR
 10
0.0
 20
1.0
 30
0.0
  9
$PUCSORTHOREF
  2

  9
$PUCSORTHOVIEW
 70
0
  9
$PUCSORGTOP
 10
0.0
 20
0.0
 30
0.0
  9
$PUCSORGBOTTOM
 10
0.0
 20
0.0
 30
0.0
  9
$PUCSORGLEFT
 10
0.0
 20
0.0
 30
0.0
  9
$PUCSORGRIGHT
 10
0.0
 20
0.0
 30
0.0
  9
$PUCSORGFRONT
 10
0.0
 20
0.0
 30
0.0
  9
$PUCSORGBACK
 10
0.0
 20
0.0
 30
0.0
  9
$USERI1
 70
0
  9
$USERI2
 70
0
  9
$USERI3
 70
0
  9
$USERI4
 70
0
  9
$USERI5
 70
0
  9
$USERR1
 40
0.0
  9
$USERR2
 40
0.0
  9
$USERR3
 40
0.0
  9
$USERR4
 40
0.0
  9
$USERR5
 40
0.0
  9
$WORLDVIEW
 70
1
  9
$SHADEDGE
 70
3
  9
$SHADEDIF
 70
70
  9
$TILEMODE
 70
1
  9
$MAXACTVP
 70
64
  9
$PINSBASE
 10
0.0
 20
0.0
 30
0.0
  9
$PLIMCHECK
 70
0
  9
$PEXTMIN
 10
1e+20
 20
1e+20
 30
1e+20
  9
$PEXTMAX
 10
-1e+20
 20
-1e+20
 30
-1e+20
  9
$PLIMMIN
 10
0.0
 20
0.0
  9
$PLIMMAX
 10
420.0
 20
297.0
  9
$UNITMODE
 70
0
  9
$VISRETAIN
 70
1
  9
$PLINEGEN
 70
0
  9
$PSLTSCALE
 70
1
  9
$TREEDEPTH
 70
3020
  9
$CMLSTYLE
  2
Standard
  9
$CMLJUST
 70
0
  9
$CMLSCALE
 40
20.0
  9
$PROXYGRAPHICS
 70
1
  9
$MEASUREMENT
 70
1
  9
$CELWEIGHT
370
-1
  9
$ENDCAPS
280
0
  9
$JOINSTYLE
280
0
  9
$LWDISPLAY
290
0
  9
$INSUNITS
 70
4
  9
$HYPERLINKBASE
  1

  9
$STYLESHEET
  1

  9
$XEDIT
290
1
  9
$CEPSNTYPE
380
0
  9
$PSTYLEMODE
290
1
  9
$FINGERPRINTGUID
  2
{D81268F6-6F47-46BF-A20F-FCBDD95DEE09}
  9
$VERSIONGUID
  2
{9FEF4F51-B3E3-4EB7-8502-649DC4976091}
  9
$EXTNAMES
290
1
  9
$PSVPSCALE
 40
0.0
  9
$OLESTARTUP
290
0
  9
$SORTENTS
280
127
  9
$INDEXCTL
280
0
  9
$HIDETEXT
280
1
  9
$XCLIPFRAME
280
1
  9
$HALOGAP
280
0
  9
$OBSCOLOR
 70
257
  9
$OBSLTYPE
280
0
  9
$INTERSECTIONDISPLAY
280
0
  9
$INTERSECTIONCOLOR
 70
257
  9
$DIMASSOC
280
2
  9
$PROJECTNAME
  1

  9
$CAMERADISPLAY
290
0
  9
$LENSLENGTH
 40
50.0
  9
$CAMERAHEIGHT
 40
0.0
  9
$STEPSPERSEC
 40
24.0
  9
$STEPSIZE
 40
100.0
  9
$3DDWFPREC
 40
2.0
  9
$PSOLWIDTH
 40
0.005
  9
$PSOLHEIGHT
 40
0.08
  9
$LOFTANG1
 40
1.570796326795
  9
$LOFTANG2
 40
1.570796326795
  9
$LOFTMAG1
 40
0.0
  9
$LOFTMAG2
 40
0.0
  9
$LOFTPARAM
 70
7
  9
$LOFTNORMALS
280
1
  9
$LATITUDE
 40
37.795
  9
$LONGITUDE
 40
-122.394
  9
$NORTHDIRECTION
 40
0.0
  9
$TIMEZONE
 70
-8000
  9
$LIGHTGLYPHDISPLAY
280
1
  9
$TILEMODELIGHTSYNCH
280
1
  9
$CMATERIAL
347
20
  9
$SOLIDHIST
280
0
  9
$SHOWHIST
280
1
  9
$DWFFRAME
280
2
  9
$DGNFRAME
280
2
  9
$REALWORLDSCALE
290
1
  9
$INTERFERECOLOR
 62
256
  9
$CSHADOW
280
0
  9
$SHADOWPLANELOCATION
 40
0.0
  0
ENDSEC
  0
SECTION
  2
CLASSES
  0
CLASS
  1
ACDBDICTIONARYWDFLT
  2
AcDbDictionaryWithDefault
  3
ObjectDBX Classes
 90
0
 91
0
280
0
281
0
  0
CLASS
  1
SUN
  2
AcDbSun
  3
SCENEOE
 90
1153
 91
0
280
0
281
0
  0
CLASS
  1
VISUALSTYLE
  2
AcDbVisualStyle
  3
ObjectDBX Classes
 90
4095
 91
0
280
0
281
0
  0
CLASS
  1
MATERIAL
  2
AcDbMaterial
  3
ObjectDBX Classes
 90
1153
 91
0
280
0
281
0
  0
CLASS
  1
SCALE
  2
AcDbScale
  3
ObjectDBX Classes
 90
1153
 91
0
280
0
281
0
  0
CLASS
  1
TABLESTYLE
  2
AcDbTableStyle
  3
ObjectDBX Classes
 90
4095
 91
0
280
0
281
0
  0
CLASS
  1
MLEADERSTYLE
  2
AcDbMLeaderStyle
  3
ACDB_MLEADERSTYLE_CLASS
 90
4095
 91
0
280
0
281
0
  0
CLASS
  1
DICTIONARYVAR
  2
AcDbDictionaryVar
  3
ObjectDBX Classes
 90
0
 91
0
280
0
281
0
  0
CLASS
  1
CELLSTYLEMAP
  2
AcDbCellStyleMap
  3
ObjectDBX Classes
 90
1152
 91
0
280
0
281
0
  0
CLASS
  1
MENTALRAYRENDERSETTINGS
  2
AcDbMentalRayRenderSettings
  3
SCENEOE
 90
1024
 91
0
280
0
281
0
  0
CLASS
  1
ACDBDETAILVIEWSTYLE
  2
AcDbDetailViewStyle
  3
ObjectDBX Classes
 90
1025
 91
0
280
0
281
0
  0
CLASS
  1
ACDBSECTIONVIEWSTYLE
  2
AcDbSectionViewStyle
  3
ObjectDBX Classes
 90
1025
 91
0
280
0
281
0
  0
CLASS
  1
RASTERVARIABLES
  2
AcDbRasterVariables
  3
ISM
 90
0
 91
0
280
0
281
0
  0
CLASS
  1
LAYOUT
  2
AcDbLayout
  3
ObjectDBX Classes
 90
0
 91
0
280
0
281
0
  0
CLASS
  1
ACDBPLACEHOLDER
  2
AcDbPlaceHolder
  3
ObjectDBX Classes
 90
0
 91
0
280
0
281
0
  0
ENDSEC
  0
SECTION
  2
TABLES
  0
TABLE
  2
VPORT
  5
8
330
0
100
AcDbSymbolTable
 70
1
  0
VPORT
  5
23
330
8
100
AcDbSymbolTableRecord
100
AcDbViewportTableRecord
  2
*Active
 70
0
 10
0.0
 20
0.0
 11
1.0
 21
1.0
 12
0.0
 22
0.0
 13
0.0
 23
0.0
 14
0.5
 24
0.5
 15
0.5
 25
0.5
 16
0.0
 26
0.0
 36
1.0
 17
0.0
 27
0.0
 37
0.0
 40
1000.0
 41
1.34
 42
50.0
 43
0.0
 44
0.0
 50
0.0
 51
0.0
 71
0
 72
1000
 73
1
 74
3
 75
0
 76
0
 77
0
 78
0
281
0
 65
0
146
0.0
  0
ENDTAB
  0
TABLE
  2
LTYPE
  5
2
330
0
100
AcDbSymbolTable
 70
3
  0
LTYPE
  5
24
330
2
100
AcDbSymbolTableRecord
100
AcDbLinetypeTableRecord
  2
ByBlock
 70
0
  3

 72
65
 73
0
 40
0.0
  0
LTYPE
  5
25
330
2
100
AcDbSymbolTableRecord
100
AcDbLinetypeTableRecord
  2
ByLayer
 70
0
  3

 72
65
 73
0
 40
0.0
  0
LTYPE
  5
26
330
2
100
AcDbSymbolTableRecord
100
AcDbLinetypeTableRecord
  2
Continuous
 70
0
  3

 72
65
 73
0
 40
0.0
  0
ENDTAB
  0
TABLE
  2
LAYER
  5
1
330
0
100
AcDbSymbolTable
 70
3
  0
LAYER
  5
27
330
1
100
AcDbSymbolTableRecord
100
AcDbLayerTableRecord
  2
0
 70
0
 62
7
  6
Continuous
370
-3
390
13
347
21
  0
LAYER
  5
28
330
1
100
AcDbSymbolTableRecord
100
AcDbLayerTableRecord
  2
Defpoints
 70
0
 62
7
  6
Continuous
290
0
370
-3
390
13
347
21
  0
LAYER
  5
145
330
1
100
AcDbSymbolTableRecord
100
AcDbLayerTableRecord
  2
INSIDE
 70
0
 62
6
  6
Continuous
370
-3
390
13
347
21
  0
ENDTAB
  0
TABLE
  2
STYLE
  5
5
330
0
100
AcDbSymbolTable
 70
2
  0
STYLE
  5
29
330
5
100
AcDbSymbolTableRecord
100
AcDbTextStyleTableRecord
  2
Standard
 70
0
 40
0.0
 41
1.0
 50
0.0
 71
0
 42
2.5
  3
txt
  4

  0
STYLE
  5
146
330
5
100
AcDbSymbolTableRecord
100
AcDbTextStyleTableRecord
  2
Helvetica-Narrow
 70
0
 40
0.0
 41
1.0
 50
0.0
 71
0
 42
0.2
  3

  4

  0
ENDTAB
  0
TABLE
  2
VIEW
  5
7
330
0
100
AcDbSymbolTable
 70
0
  0
ENDTAB
  0
TABLE
  2
UCS
  5
6
330
0
100
AcDbSymbolTable
 70
0
  0
ENDTAB
  0
TABLE
  2
APPID
  5
3
330
0
100
AcDbSymbolTable
 70
3
  0
APPID
  5
2A
330
3
100
AcDbSymbolTableRecord
100
AcDbRegAppTableRecord
  2
ACAD
 70
0
  0
APPID
  5
147
330
3
100
AcDbSymbolTableRecord
100
AcDbRegAppTableRecord
  2
HATCHBACKGROUNDCOLOR
 70
0
  0
APPID
  5
148
330
3
100
AcDbSymbolTableRecord
100
AcDbRegAppTableRecord
  2
EZDXF
 70
0
  0
ENDTAB
  0
TABLE
  2
DIMSTYLE
  5
4
330
0
100
AcDbSymbolTable
 70
1
100
AcDbDimStyleTable
  0
DIMSTYLE
105
2B
330
4
100
AcDbSymbolTableRecord
100
AcDbDimStyleTableRecord
  2
Standard
 70
0
 40
1.0
 41
2.5
 42
0.625
 43
3.75
 44
1.25
 45
0.0
 46
0.0
 47
0.0
 48
0.0
 49
2.5
140
2.5
141
2.5
142
0.0
143
0.03937007874
144
1.0
145
0.0
146
1.0
147
0.625
148
0.0
 69
0
 70
0
 71
0
 72
0
 73
0
 74
0
 75
0
 76
0
 77
1
 78
8
 79
3
170
0
171
3
172
1
173
0
174
0
175
0
176
0
177
0
178
0
179
2
271
2
272
2
273
2
274
3
275
0
276
0
277
2
278
44
279
0
280
0
281
0
282
0
283
0
284
8
285
0
286
0
288
0
289
3
290
0
371
-2
372
-2
  0
ENDTAB
  0
TABLE
  2
BLOCK_RECORD
  5
9
330
0
100
AcDbSymbolTable
 70
4
  0
BLOCK_RECORD
  5
17
330
9
100
AcDbSymbolTableRecord
100
AcDbBlockTableRecord
  2
*Model_Space
340
1A
 70
0
280
1
281
0
  0
BLOCK_RECORD
  5
1B
330
9
100
AcDbSymbolTableRecord
100
AcDbBlockTableRecord
  2
*Paper_Space
340
1E
 70
0
280
1
281
0
  0
BLOCK_RECORD
  5
31
330
9
100
AcDbSymbolTableRecord
100
AcDbBlockTableRecord
  2
*U456
340
0
 70
0
280
1
281
0
  0
BLOCK_RECORD
  5
139
330
9
100
AcDbSymbolTableRecord
100
AcDbBlockTableRecord
  2
Nuintek
340
0
 70
0
280
1
281
0
  0
ENDTAB
  0
ENDSEC
  0
SECTION
  2
BLOCKS
  0
BLOCK
  5
18
330
17
100
AcDbEntity
  8
0
100
AcDbBlockBegin
  2
*Model_Space
 70
0
 10
0.0
 20
0.0
 30
0.0
  3
*Model_Space
  1

  0
ENDBLK
  5
19
330
17
100
AcDbEntity
  8
0
100
AcDbBlockEnd
  0
BLOCK
  5
1C
330
1B
100
AcDbEntity
  8
0
100
AcDbBlockBegin
  2
*Paper_Space
 70
0
 10
0.0
 20
0.0
 30
0.0
  3
*Paper_Space
  1

  0
ENDBLK
  5
1D
330
1B
100
AcDbEntity
  8
0
100
AcDbBlockEnd
  0
BLOCK
  5
32
330
31
100
AcDbEntity
  8
0
100
AcDbBlockBegin
  2
*U456
 70
1
 10
0.0
 20
0.0
 30
0.0
  3
*U456
  1

  0
LWPOLYLINE
  5
34
330
31
100
AcDbEntity
  8
0
 62
126
100
AcDbPolyline
 90
6
 70
1
 10
-58.03149100000155
 20
60.0
 10
-58.03149100000155
 20
-212.6066929999943
 42
0.4142135623730951
 10
-57.6742809999996
 20
-212.9639029999962
 10
57.54831700000796
 20
-212.9639029999962
 42
0.3050936777262625
 10
57.96850899999845
 20
-212.6066929999943
 10
57.96850899999845
 20
60.0
  0
LWPOLYLINE
  5
35
330
31
100
AcDbEntity
  8
0
 62
150
100
AcDbPolyline
 90
8
 70
1
 10
-29.0
 20
0.0
 10
29.0
 20
0.0
 42
-0.4142135623730951
 10
30.0
 20
-1.0
 10
30.0
 20
-79.0
 42
-0.4142135623730951
 10
29.0
 20
-80.0
 10
-29.0
 20
-80.0
 42
-0.4142135623730951
 10
-30.0
 20
-79.0
 10
-30.0
 20
-1.0
 42
-0.4142135623730951
  0
INSERT
  5
36
330
31
100
AcDbEntity
  8
0
100
AcDbBlockReference
  2
Nuintek
 10
-9.343766679579858
 20
-9.321962330883252
 30
0.0
 41
1.654289882120792
 42
1.654289882120792
 43
1.654289882120792
  0
TEXT
  5
38
330
31
100
AcDbEntity
  8
0
100
AcDbText
 10
-24.22418478260869
 20
-19.52485855496343
 30
0.0
 40
4.0
  1
PowerSH Capacitor
  7
Helvetica-Narrow
 72
1
 11
0.0
 21
-17.52485855496343
 31
0.0
100
AcDbText
 73
2
  0
TEXT
  5
39
330
31
100
AcDbEntity
  8
0
100
AcDbText
 10
-18.01196122399415
 20
-36.97427390204393
 30
0.0
 40
2.5
  1
V
  7
Helvetica-Narrow
 11
-18.01196122399415
 21
-35.72427390204393
 31
0.0
100
AcDbText
 73
2
  0
LWPOLYLINE
  5
3A
330
31
100
AcDbEntity
  8
0
 62
1
100
AcDbPolyline
 90
4
 70
1
 10
-24.99937630510249
 20
-33.72427390204393
 10
-18.99937630510249
 20
-33.72427390204393
 10
-18.99937630510249
 20
-37.72427390204394
 10
-24.99937630510249
 20
-37.72427390204394
  0
LWPOLYLINE
  5
3B
330
31
100
AcDbEntity
  8
0
 62
1
100
AcDbPolyline
 90
4
 70
1
 10
-24.99937630510249
 20
-38.25830434684758
 10
-18.99937630510249
 20
-38.25830434684758
 10
-18.99937630510249
 20
-42.25830434684758
 10
-24.99937630510249
 20
-42.25830434684758
  0
LWPOLYLINE
  5
3C
330
31
100
AcDbEntity
  8
0
 62
1
100
AcDbPolyline
 90
4
 70
1
 10
-24.99937630510249
 20
-42.79233479164395
 10
-18.99937630510249
 20
-42.79233479164395
 10
-18.99937630510249
 20
-46.79233479164395
 10
-24.99937630510249
 20
-46.79233479164395
  0
TEXT
  5
3D
330
31
100
AcDbEntity
  8
0
100
AcDbText
 10
-18.01196122399415
 20
-41.50830434684758
 30
0.0
 40
2.5
  1
V
  7
Helvetica-Narrow
 11
-18.01196122399415
 21
-40.25830434684758
 31
0.0
100
AcDbText
 73
2
  0
TEXT
  5
3E
330
31
100
AcDbEntity
  8
0
100
AcDbText
 10
-18.01196122399415
 20
-46.04233479164395
 30
0.0
 40
2.5
  1
V
  7
Helvetica-Narrow
 11
-18.01196122399415
 21
-44.79233479164395
 31
0.0
100
AcDbText
 73
2
  0
TEXT
  5
3F
330
31
100
AcDbEntity
  8
0
100
AcDbText
 10
-2.641342645554686
 20
-36.97427390204393
 30
0.0
 40
2.5
  1
kvar
  7
Helvetica-Narrow
 11
-2.641342645554686
 21
-35.72427390204393
 31
0.0
100
AcDbText
 73
2
  0
LWPOLYLINE
  5
40
330
31
100
AcDbEntity
  8
0
 62
1
100
AcDbPolyline
 90
4
 70
1
 10
-9.999376305102487
 20
-33.72427390204393
 10
-3.999376305102487
 20
-33.72427390204393
 10
-3.999376305102487
 20
-37.72427390204394
 10
-9.999376305102487
 20
-37.72427390204394
  0
LWPOLYLINE
  5
41
330
31
100
AcDbEntity
  8
0
 62
1
100
AcDbPolyline
 90
4
 70
1
 10
-9.999376305102487
 20
-38.25830434684758
 10
-3.999376305102487
 20
-38.25830434684758
 10
-3.999376305102487
 20
-42.25830434684758
 10
-9.999376305102487
 20
-42.25830434684758
  0
LWPOLYLINE
  5
42
330
31
100
AcDbEntity
  8
0
 62
1
100
AcDbPolyline
 90
4
 70
1
 10
-9.999376305102487
 20
-42.79233479164395
 10
-3.999376305102487
 20
-42.79233479164395
 10
-3.999376305102487
 20
-46.79233479164395
 10
-9.999376305102487
 20
-46.79233479164395
  0
TEXT
  5
43
330
31
100
AcDbEntity
  8
0
100
AcDbText
 10
-2.641342645554686
 20
-41.50830434684758
 30
0.0
 40
2.5
  1
kvar
  7
Helvetica-Narrow
 11
-2.641342645554686
 21
-40.25830434684758
 31
0.0
100
AcDbText
 73
2
  0
TEXT
  5
44
330
31
100
AcDbEntity
  8
0
100
AcDbText
 10
-2.641342645554686
 20
-46.04233479164395
 30
0.0
 40
2.5
  1
kvar
  7
Helvetica-Narrow
 11
-2.641342645554686
 21
-44.79233479164395
 31
0.0
100
AcDbText
 73
2
  0
TEXT
  5
45
330
31
100
AcDbEntity
  8
0
100
AcDbText
 10
13.98803877600585
 20
-36.97427390204393
 30
0.0
 40
2.5
  1
kvar
  7
Helvetica-Narrow
 11
13.98803877600585
 21
-35.72427390204393
 31
0.0
100
AcDbText
 73
2
  0
LWPOLYLINE
  5
46
330
31
100
AcDbEntity
  8
0
 62
1
100
AcDbPolyline
 90
4
 70
1
 10
7.000623694897512
 20
-33.72427390204393
 10
13.00062369489751
 20
-33.72427390204393
 10
13.00062369489751
 20
-37.72427390204394
 10
7.000623694897512
 20
-37.72427390204394
  0
LWPOLYLINE
  5
47
330
31
100
AcDbEntity
  8
0
 62
1
100
AcDbPolyline
 90
4
 70
1
 10
7.000623694897512
 20
-38.25830434684758
 10
13.00062369489751
 20
-38.25830434684758
 10
13.00062369489751
 20
-42.25830434684758
 10
7.000623694897512
 20
-42.25830434684758
  0
LWPOLYLINE
  5
48
330
31
100
AcDbEntity
  8
0
 62
1
100
AcDbPolyline
 90
4
 70
1
 10
7.000623694897512
 20
-42.79233479164395
 10
13.00062369489751
 20
-42.79233479164395
 10
13.00062369489751
 20
-46.79233479164395
 10
7.000623694897512
 20
-46.79233479164395
  0
TEXT
  5
49
330
31
100
AcDbEntity
  8
0
100
AcDbText
 10
13.98803877600585
 20
-41.50830434684758
 30
0.0
 40
2.5
  1
kvar
  7
Helvetica-Narrow
 11
13.98803877600585
 21
-40.25830434684758
 31
0.0
100
AcDbText
 73
2
  0
TEXT
  5
4A
330
31
100
AcDbEntity
  8
0
100
AcDbText
 10
13.98803877600585
 20
-46.04233479164395
 30
0.0
 40
2.5
  1
kvar
  7
Helvetica-Narrow
 11
13.98803877600585
 21
-44.79233479164395
 31
0.0
100
AcDbText
 73
2
  0
TEXT
  5
4B
330
31
100
AcDbEntity
  8
0
100
AcDbText
 10
-23.78130565292857
 20
-32.00207677028084
 30
0.0
 40
2.0
  1
Un
  7
Helvetica-Narrow
 72
1
 11
-21.99937630510249
 21
-31.00207677028084
 31
0.0
100
AcDbText
 73
2
  0
TEXT
  5
4C
330
31
100
AcDbEntity
  8
0
100
AcDbText
 10
-8.088176655641291
 20
-32.00207677028084
 30
0.0
 40
2.0
  1
Qn / 50Hz
  7
Helvetica-Narrow
 11
-8.088176655641291
 21
-31.00207677028084
 31
0.0
100
AcDbText
 73
2
  0
TEXT
  5
4D
330
31
100
AcDbEntity
  8
0
100
AcDbText
 10
8.911823344358709
 20
-32.00207677028084
 30
0.0
 40
2.0
  1
Qn / 60Hz
  7
Helvetica-Narrow
 11
8.911823344358709
 21
-31.00207677028084
 31
0.0
100
AcDbText
 73
2
  0
LWPOLYLINE
  5
4E
330
31
100
AcDbEntity
  8
0
 62
1
100
AcDbPolyline
 90
4
 70
1
 10
-14.49937630510248
 20
-24.36469067222061
 10
0.5006236948975129
 20
-24.36469067222061
 10
0.5006236948975129
 20
-28.3646906722206
 10
-14.49937630510248
 20
-28.3646906722206
  0
TEXT
  5
4F
330
31
100
AcDbEntity
  8
0
100
AcDbText
 10
-23.78130565292857
 20
-27.3646906722206
 30
0.0
 40
2.0
  1
Un
  7
Helvetica-Narrow
 72
1
 11
-21.99937630510249
 21
-26.36469067222061
 31
0.0
100
AcDbText
 73
2
  0
TEXT
  5
50
330
31
100
AcDbEntity
  8
0
100
AcDbText
 10
1.858657354445313
 20
-27.61469067222061
 30
0.0
 40
2.5
  1
uF
  7
Helvetica-Narrow
 11
1.858657354445313
 21
-26.36469067222061
 31
0.0
100
AcDbText
 73
2
  0
TEXT
  5
51
330
31
100
AcDbEntity
  8
0
100
AcDbText
 10
6.903529497663839
 20
-27.61469067222061
 30
0.0
 40
2.5
  1
-5 ~+ 10%%%
  7
Helvetica-Narrow
 11
6.903529497663839
 21
-26.36469067222061
 31
0.0
100
AcDbText
 73
2
  0
LWPOLYLINE
  5
52
330
31
100
AcDbEntity
  8
0
 62
0
370
30
100
AcDbPolyline
 90
3
 70
1
 10
20.33936414796335
 20
-27.57039456062194
 10
23.26978310030245
 20
-27.57039456062194
 10
21.8045736241329
 20
-25.03273314842227
  0
TEXT
  5
53
330
31
100
AcDbEntity
  8
0
100
AcDbText
 10
-21.99937630510249
 20
-51.3309137842516
 30
0.0
 40
2.5
  1
Overpressure Disconnector
  7
Helvetica-Narrow
 11
-21.99937630510249
 21
-50.0809137842516
 31
0.0
100
AcDbText
 73
2
  0
LWPOLYLINE
  5
54
330
31
100
AcDbEntity
  8
0
 62
1
100
AcDbPolyline
 90
4
 70
1
 10
-21.99937630510249
 20
-57.49669946590438
 10
18.00062369489751
 20
-57.49669946590438
 10
18.00062369489751
 20
-61.49669946590439
 10
-21.99937630510249
 20
-61.49669946590439
  0
TEXT
  5
55
330
31
100
AcDbEntity
  8
0
100
AcDbText
 10
-21.99937630510249
 20
-55.58327054199617
 30
0.0
 40
2.5
  1
Dry Type       Non PCB
  7
Helvetica-Narrow
 11
-21.99937630510249
 21
-54.33327054199617
 31
0.0
100
AcDbText
 73
2
  0
TEXT
  5
56
330
31
100
AcDbEntity
  8
0
100
AcDbText
 10
-21.99937630510249
 20
-65.51467048097402
 30
0.0
 40
2.5
  1
Serial No.
  7
Helvetica-Narrow
 11
-21.99937630510249
 21
-64.26467048097402
 31
0.0
100
AcDbText
 73
2
  0
TEXT
  5
57
330
31
100
AcDbEntity
  8
0
100
AcDbText
 10
-21.99937630510249
 20
-71.27628003762948
 30
0.0
 40
3.0
  1
NUINTEK CO., LTD.
  7
Helvetica-Narrow
 11
-21.99937630510249
 21
-69.77628003762948
 31
0.0
100
AcDbText
 73
2
  0
TEXT
  5
58
330
31
100
AcDbEntity
  8
0
100
AcDbText
 10
-21.99937630510249
 20
-76.30881897005747
 30
0.0
 40
3.0
  1
Made in KOREA
  7
Helvetica-Narrow
 11
-21.99937630510249
 21
-74.80881897005747
 31
0.0
100
AcDbText
 73
2
  0
LINE
  5
59
330
31
100
AcDbEntity
  8
0
 62
126
100
AcDbLine
 10
-6.027207913430174
 20
-214.8206774251012
 30
0.0
 11
5.959479323093546
 21
-214.5685338782932
 31
0.0
  0
LINE
  5
5A
330
31
100
AcDbEntity
  8
0
 62
126
100
AcDbLine
 10
-6.022682601440465
 20
-216.4018135194929
 30
0.0
 11
5.964004635083256
 21
-216.1496699726704
 31
0.0
  0
LINE
  5
5B
330
31
100
AcDbEntity
  8
0
 62
126
100
AcDbLine
 10
-6.025242957635782
 20
-216.5741846107267
 30
0.0
 11
5.965737075573997
 21
-216.3126300963195
 31
0.0
  0
LINE
  5
5C
330
31
100
AcDbEntity
  8
0
 62
126
100
AcDbLine
 10
-6.022682601440465
 20
-217.9266421078355
 30
0.0
 11
5.964004635083256
 21
-217.674498561013
 31
0.0
  0
LINE
  5
5D
330
31
100
AcDbEntity
  8
0
 62
126
100
AcDbLine
 10
-6.025242957635782
 20
-218.0990131990547
 30
0.0
 11
5.965737075573997
 21
-217.8374586846621
 31
0.0
  0
LINE
  5
5E
330
31
100
AcDbEntity
  8
0
 62
126
100
AcDbLine
 10
-6.032270199837512
 20
-213.4056647087418
 30
0.0
 11
5.958709833386819
 21
-213.1441101943492
 31
0.0
  0
LINE
  5
5F
330
31
100
AcDbEntity
  8
0
 62
126
100
AcDbLine
 10
-6.032270199837512
 20
-213.7269615644182
 30
0.0
 11
5.958709833386819
 21
-213.4654070500255
 31
0.0
  0
LINE
  5
60
330
31
100
AcDbEntity
  8
0
 62
126
100
AcDbLine
 10
-6.032270199837512
 20
-214.5302020730451
 30
0.0
 11
5.958709833386819
 21
-214.2686475586379
 31
0.0
  0
LINE
  5
61
330
31
100
AcDbEntity
  8
0
 62
126
100
AcDbLine
 10
-4.804812901245895
 20
-219.7635341520363
 30
0.0
 11
-8.757937901245896
 21
-219.7635341520363
 31
0.0
  0
LINE
  5
62
330
31
100
AcDbEntity
  8
0
 62
126
100
AcDbLine
 10
-4.804812901245895
 20
-226.9360703141138
 30
0.0
 11
-4.804812901245895
 21
-221.6961730409239
 31
0.0
  0
LINE
  5
63
330
31
100
AcDbEntity
  8
0
 62
126
100
AcDbLine
 10
4.963798209864762
 20
-226.9360703141138
 30
0.0
 11
4.963798209864762
 21
-221.6961730409239
 31
0.0
  0
ARC
  5
64
330
31
100
AcDbEntity
  8
0
 62
126
100
AcDbCircle
 10
0.0794926543167094
 20
-226.9018397075997
 30
0.0
 40
7.138305555555758
100
AcDbArc
 50
46.82422833772897
 51
133.175771662271
  0
LINE
  5
65
330
31
100
AcDbEntity
  8
0
 62
126
100
AcDbLine
 10
4.963798209864762
 20
-219.7635341520363
 30
0.0
 11
8.916923209864763
 21
-219.7635341520363
 31
0.0
  0
ARC
  5
66
330
31
100
AcDbEntity
  8
0
 62
126
100
AcDbCircle
 10
7.313789340987568
 20
-222.1225114294357
 30
0.0
 40
2.388351468659658
100
AcDbArc
 50
16.65126858436962
 51
169.7171684086303
  0
LINE
  5
67
330
31
100
AcDbEntity
  8
0
 62
126
100
AcDbLine
 10
0.0794926543167094
 20
-219.7635341520363
 30
0.0
 11
6.940360709864762
 21
-219.7635341520363
 31
0.0
  0
ARC
  5
68
330
31
100
AcDbEntity
  8
0
 62
126
100
AcDbCircle
 10
-7.148993630165932
 20
-222.1165689726476
 30
0.0
 40
2.38157847430125
100
AcDbArc
 50
10.16711751469008
 51
159.7769601324924
  0
LINE
  5
69
330
31
100
AcDbEntity
  8
0
 62
126
100
AcDbLine
 10
0.0794926543167094
 20
-219.7635341520363
 30
0.0
 11
-4.804812901245895
 21
-219.7635341520363
 31
0.0
  0
ARC
  5
6A
330
31
100
AcDbEntity
  8
0
 62
126
100
AcDbCircle
 10
0.0794926543167094
 20
-220.3433768921241
 30
0.0
 40
8.204879482134018
100
AcDbArc
 50
233.4664931240566
 51
306.5335068759434
  0
ARC
  5
6B
330
31
100
AcDbEntity
  8
0
 62
126
100
AcDbCircle
 10
-7.1775497860217
 20
-225.9961257706454
 30
0.0
 40
2.552131671600688
100
AcDbArc
 50
201.7155109884368
 51
338.3893220220666
  0
ARC
  5
6C
330
31
100
AcDbEntity
  8
0
 62
126
100
AcDbCircle
 10
7.331829003815073
 20
-226.0020083841809
 30
0.0
 40
2.545592569517785
100
AcDbArc
 50
201.5265916192965
 51
338.9500507641958
  0
LWPOLYLINE
  5
6D
330
31
100
AcDbEntity
  8
0
 62
126
100
AcDbPolyline
 90
4
 70
0
 10
-6.031491000001551
 20
-218.1852513237536
 10
-6.031491000001551
 20
-212.9639029999962
 10
5.968508999998448
 20
-212.9639029999962
 10
5.968508999998448
 20
-218.1852513237536
  0
LWPOLYLINE
  5
6E
330
31
100
AcDbEntity
  8
0
 62
126
100
AcDbPolyline
 90
4
 70
1
 10
-14.23388443773729
 20
-219.7635341520363
 10
14.17520647136553
 20
-219.7635341520363
 10
14.17520647136553
 20
-218.1852513237536
 10
-14.23388443773729
 20
-218.1852513237536
  0
LWPOLYLINE
  5
6F
330
31
100
AcDbEntity
  8
0
 62
126
100
AcDbPolyline
 90
8
 70
1
 10
-9.548562901240075
 20
-221.6961730409239
 10
-8.757937901245896
 20
-219.7635341520363
 10
8.916923209864763
 20
-219.7635341520363
 10
9.707548209873494
 20
-221.6961730409239
 10
9.707548209873494
 20
-226.9670063742524
 10
8.916923209864763
 20
-228.5482563742553
 10
-8.757937901245896
 20
-228.5482563742553
 10
-9.548562901240075
 20
-226.9670063742524
  0
LWPOLYLINE
  5
70
330
31
100
AcDbEntity
  8
0
 62
126
100
AcDbPolyline
 90
8
 70
1
 10
-59.17428099999961
 20
62.03609700000379
 42
0.4142135623731125
 10
-59.53149100000155
 20
61.67888700000185
 10
-59.53149100000155
 20
60.35721000000194
 42
0.4142135623730894
 10
-59.17428099999961
 20
60.0
 10
59.1112989999965
 20
60.0
 42
0.4142135623730951
 10
59.46850899999844
 20
60.35721000000194
 10
59.46850899999844
 20
61.67888700000185
 42
0.4142135623730951
 10
59.1112989999965
 20
62.03609700000379
  0
TEXT
  5
71
330
31
100
AcDbEntity
  8
0
 62
126
100
AcDbText
 10
-5.497613323944159
 20
-224.9112736645038
 30
0.0
 40
1.5
  1
M12x15mm
  7
Helvetica-Narrow
 72
1
 11
0.0794926543167094
 21
-224.1612736645038
 31
0.0
100
AcDbText
 73
2
  0
TEXT
  5
72
330
31
100
AcDbEntity
  8
0
100
AcDbText
 10
8.647511222327012
 20
-36.51494118142812
 30
0.0
 40
1.919999999999949
  1
40
  7
Helvetica-Narrow
 11
8.647511222327012
 21
-35.55494118142815
 31
0.0
100
AcDbText
 73
2
  0
TEXT
  5
73
330
31
100
AcDbEntity
  8
0
100
AcDbText
 10
-8.352488777672988
 20
-36.51494118142812
 30
0.0
 40
1.919999999999949
  1
40
  7
Helvetica-Narrow
 11
-8.352488777672988
 21
-35.55494118142815
 31
0.0
100
AcDbText
 73
2
  0
TEXT
  5
74
330
31
100
AcDbEntity
  8
0
100
AcDbText
 10
-24.30586086619587
 20
-41.04897162623177
 30
0.0
 40
1.919999999999949
  1
415
  7
Helvetica-Narrow
 11
-24.30586086619587
 21
-40.08897162623179
 31
0.0
100
AcDbText
 73
2
  0
TEXT
  5
75
330
31
100
AcDbEntity
  8
0
100
AcDbText
 10
-24.30586086619587
 20
-45.58300207102814
 30
0.0
 40
1.919999999999949
  1
400
  7
Helvetica-Narrow
 11
-24.30586086619587
 21
-44.62300207102816
 31
0.0
100
AcDbText
 73
2
  0
TEXT
  5
76
330
31
100
AcDbEntity
  8
0
100
AcDbText
 10
-24.30586086619587
 20
-36.51494118142812
 30
0.0
 40
1.919999999999949
  1
440
  7
Helvetica-Narrow
 11
-24.30586086619587
 21
-35.55494118142815
 31
0.0
100
AcDbText
 73
2
  0
LINE
  5
77
330
31
100
AcDbEntity
  8
0
 62
126
100
AcDbLine
 10
30.96850899999845
 20
69.82914188339782
 30
0.0
 11
-31.03149100000155
 21
69.82914188339782
 31
0.0
  0
LINE
  5
78
330
31
100
AcDbEntity
  8
0
 62
126
100
AcDbLine
 10
-2.068730808314285
 20
112.4588242727332
 30
0.0
 11
0.0349583318165969
 21
112.4588242727332
 31
0.0
  0
LINE
  5
79
330
31
100
AcDbEntity
  8
0
 62
126
100
AcDbLine
 10
-12.15306815771328
 20
112.4588242727332
 30
0.0
 11
-10.04937901758239
 21
112.4588242727332
 31
0.0
  0
LINE
  5
7A
330
31
100
AcDbEntity
  8
0
 62
126
100
AcDbLine
 10
10.24503155506681
 20
112.4588242727332
 30
0.0
 11
11.73953786845959
 21
112.4588242727332
 31
0.0
  0
LINE
  5
7B
330
31
100
AcDbEntity
  8
0
 62
126
100
AcDbLine
 10
29.50354309513932
 20
110.1455491911329
 30
0.0
 11
-29.56652509514242
 21
110.1455491911329
 31
0.0
  0
LINE
  5
7C
330
31
100
AcDbEntity
  8
0
 62
126
100
AcDbLine
 10
-28.15743418605416
 20
75.51550548805972
 30
0.0
 11
-26.04379782240722
 21
76.99505094259801
 31
0.0
  0
LINE
  5
7D
330
31
100
AcDbEntity
  8
0
 62
126
100
AcDbLine
 10
-14.06652509514242
 20
75.51550548805972
 30
0.0
 11
-16.18016145877482
 21
76.99505094259801
 31
0.0
  0
LINE
  5
7E
330
31
100
AcDbEntity
  8
0
 62
126
100
AcDbLine
 10
-28.15743418605416
 20
90.45186912441568
 30
0.0
 11
-26.04379782240722
 21
88.97232366987735
 31
0.0
  0
LINE
  5
7F
330
31
100
AcDbEntity
  8
0
 62
126
100
AcDbLine
 10
-14.06652509514242
 20
90.45186912441568
 30
0.0
 11
-16.18016145877482
 21
88.97232366987735
 31
0.0
  0
LINE
  5
80
330
31
100
AcDbEntity
  8
0
 62
126
100
AcDbLine
 10
-16.80801565939328
 20
87.77459641061431
 30
0.0
 11
-25.40970691331313
 21
87.77459641061431
 31
0.0
  0
LINE
  5
81
330
31
100
AcDbEntity
  8
0
 62
126
100
AcDbLine
 10
-22.66180665383581
 20
78.6437277678051
 30
0.0
 11
-25.40970691331313
 21
79.70503804576583
 31
0.0
  0
LINE
  5
82
330
31
100
AcDbEntity
  8
0
 62
126
100
AcDbLine
 10
-19.27476031659171
 20
78.64457933830272
 30
0.0
 11
-16.80801565939328
 21
79.60475380471325
 31
0.0
  0
LWPOLYLINE
  5
83
330
31
100
AcDbEntity
  8
0
 62
126
100
AcDbPolyline
 90
6
 70
1
 10
-29.56652509514242
 20
97.32458416993904
 42
-0.4142135623730951
 10
-28.86197964058374
 20
98.02912962448318
 10
-28.86197964058374
 20
98.02912962448318
 42
-0.4142135623730951
 10
-28.15743418605416
 20
97.32458416993904
 10
-28.15743418605416
 20
91.86096003350394
 10
-29.56652509514242
 20
91.86096003350394
  0
LINE
  5
84
330
31
100
AcDbEntity
  8
0
 62
126
100
AcDbLine
 10
-14.06652509514242
 20
74.1064145789569
 30
0.0
 11
-14.06652509514242
 21
71.7138483638264
 31
0.0
  0
ARC
  5
85
330
31
100
AcDbEntity
  8
0
 62
126
100
AcDbCircle
 10
-13.36197964058374
 20
71.7138483638264
 30
0.0
 40
0.7045454545453324
100
AcDbArc
 50
180.0
 51
270.0
  0
ARC
  5
86
330
31
100
AcDbEntity
  8
0
 62
126
100
AcDbCircle
 10
-13.36197964058374
 20
71.7138483638264
 30
0.0
 40
0.7045454545453956
100
AcDbArc
 50
270.0
 51
0.0
  0
LINE
  5
87
330
31
100
AcDbEntity
  8
0
 62
126
100
AcDbLine
 10
-12.65743418605416
 20
71.7138483638264
 30
0.0
 11
-12.65743418605416
 21
74.1064145789569
 31
0.0
  0
LINE
  5
88
330
31
100
AcDbEntity
  8
0
 62
126
100
AcDbLine
 10
-29.56652509514242
 20
74.1064145789569
 30
0.0
 11
-29.56652509514242
 21
71.7138483638264
 31
0.0
  0
ARC
  5
89
330
31
100
AcDbEntity
  8
0
 62
126
100
AcDbCircle
 10
-28.86197964058374
 20
71.7138483638264
 30
0.0
 40
0.7045454545453956
100
AcDbArc
 50
180.0
 51
270.0
  0
ARC
  5
8A
330
31
100
AcDbEntity
  8
0
 62
126
100
AcDbCircle
 10
-28.86197964058374
 20
71.7138483638264
 30
0.0
 40
0.7045454545453956
100
AcDbArc
 50
270.0
 51
0.0
  0
LINE
  5
8B
330
31
100
AcDbEntity
  8
0
 62
126
100
AcDbLine
 10
-28.15743418605416
 20
71.7138483638264
 30
0.0
 11
-28.15743418605416
 21
74.1064145789569
 31
0.0
  0
LWPOLYLINE
  5
8C
330
31
100
AcDbEntity
  8
0
 62
126
100
AcDbPolyline
 90
4
 70
1
 10
-29.56652509514242
 20
91.86096003350394
 10
-12.65743418605416
 20
91.86096003350394
 10
-12.65743418605416
 20
74.1064145789569
 10
-29.56652509514242
 20
74.1064145789569
  0
LWPOLYLINE
  5
8D
330
31
100
AcDbEntity
  8
0
 62
126
100
AcDbPolyline
 90
4
 70
1
 10
-28.15743418605416
 20
90.45186912441568
 10
-14.06652509514242
 20
90.45186912441568
 10
-14.06652509514242
 20
75.51550548805972
 10
-28.15743418605416
 20
75.51550548805972
  0
LWPOLYLINE
  5
8E
330
31
100
AcDbEntity
  8
0
 62
126
100
AcDbPolyline
 90
4
 70
1
 10
-26.04379782240722
 20
88.97232366987735
 10
-16.18016145877482
 20
88.97232366987735
 10
-16.18016145877482
 20
76.99505094259801
 10
-26.04379782240722
 20
76.99505094259801
  0
LWPOLYLINE
  5
8F
330
31
100
AcDbEntity
  8
0
 62
126
100
AcDbPolyline
 90
4
 70
0
 10
-25.40970691331313
 20
88.97232366987735
 10
-25.40970691331313
 20
79.74724621721543
 42
0.3099445346571803
 10
-25.22942429607792
 20
79.484354572749
 10
-22.66180665383581
 20
78.49267411266919
  0
LWPOLYLINE
  5
90
330
31
100
AcDbEntity
  8
0
 62
126
100
AcDbPolyline
 90
4
 70
0
 10
-19.27476031659171
 20
78.49337175639812
 10
-16.98760806662903
 20
79.38364030722005
 42
0.3092248975359518
 10
-16.80801565939328
 20
79.64626433241938
 10
-16.80801565939328
 20
88.97232366987735
  0
LWPOLYLINE
  5
91
330
31
100
AcDbEntity
  8
0
 62
126
100
AcDbPolyline
 90
4
 70
1
 10
-22.66180665383581
 20
78.6437277678051
 10
-19.27476031659171
 20
78.6437277678051
 10
-19.27476031659171
 20
76.99505094259801
 10
-22.66180665383581
 20
76.99505094259801
  0
LWPOLYLINE
  5
92
330
31
100
AcDbEntity
  8
0
 62
126
100
AcDbPolyline
 90
5
 70
1
 10
-12.65743418605416
 20
97.32458416993904
 42
0.4142135623731083
 10
-13.36197964058374
 20
98.02912962448318
 42
0.4142135623730818
 10
-14.06652509514242
 20
97.32458416993904
 10
-14.06652509514242
 20
91.86096003350394
 10
-12.65743418605416
 20
91.86096003350394
  0
LINE
  5
93
330
31
100
AcDbEntity
  8
0
 62
126
100
AcDbLine
 10
-7.076945545457419
 20
75.51550548805972
 30
0.0
 11
-4.963309181825025
 21
76.99505094259801
 31
0.0
  0
LINE
  5
94
330
31
100
AcDbEntity
  8
0
 62
126
100
AcDbLine
 10
7.013963545454316
 20
75.51550548805972
 30
0.0
 11
4.900327181821921
 21
76.99505094259801
 31
0.0
  0
LINE
  5
95
330
31
100
AcDbEntity
  8
0
 62
126
100
AcDbLine
 10
-7.076945545457419
 20
90.45186912441568
 30
0.0
 11
-4.963309181825025
 21
88.97232366987735
 31
0.0
  0
LINE
  5
96
330
31
100
AcDbEntity
  8
0
 62
126
100
AcDbLine
 10
7.013963545454316
 20
90.45186912441568
 30
0.0
 11
4.900327181821921
 21
88.97232366987735
 31
0.0
  0
LINE
  5
97
330
31
100
AcDbEntity
  8
0
 62
126
100
AcDbLine
 10
4.272472981203463
 20
87.77459641061431
 30
0.0
 11
-4.32921827273094
 21
87.77459641061431
 31
0.0
  0
LINE
  5
98
330
31
100
AcDbEntity
  8
0
 62
126
100
AcDbLine
 10
-1.581318013253621
 20
78.6437277678051
 30
0.0
 11
-4.32921827273094
 21
79.70503804576583
 31
0.0
  0
LINE
  5
99
330
31
100
AcDbEntity
  8
0
 62
126
100
AcDbLine
 10
1.805728323990479
 20
78.64457933830272
 30
0.0
 11
4.272472981203463
 21
79.60475380471325
 31
0.0
  0
LWPOLYLINE
  5
9A
330
31
100
AcDbEntity
  8
0
 62
126
100
AcDbPolyline
 90
6
 70
1
 10
-8.486036454545683
 20
97.32458416993904
 42
-0.4142135623730951
 10
-7.781491000001551
 20
98.02912962448318
 10
-7.781491000001551
 20
98.02912962448318
 42
-0.4142135623730951
 10
-7.076945545457419
 20
97.32458416993904
 10
-7.076945545457419
 20
91.86096003350394
 10
-8.486036454545683
 20
91.86096003350394
  0
LINE
  5
9B
330
31
100
AcDbEntity
  8
0
 62
126
100
AcDbLine
 10
7.013963545454316
 20
74.1064145789569
 30
0.0
 11
7.013963545454316
 21
71.7138483638264
 31
0.0
  0
ARC
  5
9C
330
31
100
AcDbEntity
  8
0
 62
126
100
AcDbCircle
 10
7.718508999998448
 20
71.7138483638264
 30
0.0
 40
0.7045454545453324
100
AcDbArc
 50
180.0
 51
270.0
  0
ARC
  5
9D
330
31
100
AcDbEntity
  8
0
 62
126
100
AcDbCircle
 10
7.718508999998448
 20
71.7138483638264
 30
0.0
 40
0.7045454545453956
100
AcDbArc
 50
270.0
 51
0.0
  0
LINE
  5
9E
330
31
100
AcDbEntity
  8
0
 62
126
100
AcDbLine
 10
8.42305445454258
 20
71.7138483638264
 30
0.0
 11
8.42305445454258
 21
74.1064145789569
 31
0.0
  0
LINE
  5
9F
330
31
100
AcDbEntity
  8
0
 62
126
100
AcDbLine
 10
-8.486036454545683
 20
74.1064145789569
 30
0.0
 11
-8.486036454545683
 21
71.7138483638264
 31
0.0
  0
ARC
  5
A0
330
31
100
AcDbEntity
  8
0
 62
126
100
AcDbCircle
 10
-7.781491000001551
 20
71.7138483638264
 30
0.0
 40
0.7045454545453956
100
AcDbArc
 50
180.0
 51
270.0
  0
ARC
  5
A1
330
31
100
AcDbEntity
  8
0
 62
126
100
AcDbCircle
 10
-7.781491000001551
 20
71.7138483638264
 30
0.0
 40
0.7045454545453956
100
AcDbArc
 50
270.0
 51
0.0
  0
LINE
  5
A2
330
31
100
AcDbEntity
  8
0
 62
126
100
AcDbLine
 10
-7.076945545457419
 20
71.7138483638264
 30
0.0
 11
-7.076945545457419
 21
74.1064145789569
 31
0.0
  0
LWPOLYLINE
  5
A3
330
31
100
AcDbEntity
  8
0
 62
126
100
AcDbPolyline
 90
4
 70
1
 10
-8.486036454545683
 20
91.86096003350394
 10
8.42305445454258
 20
91.86096003350394
 10
8.42305445454258
 20
74.1064145789569
 10
-8.486036454545683
 20
74.1064145789569
  0
LWPOLYLINE
  5
A4
330
31
100
AcDbEntity
  8
0
 62
126
100
AcDbPolyline
 90
4
 70
1
 10
-7.076945545457419
 20
90.45186912441568
 10
7.013963545454316
 20
90.45186912441568
 10
7.013963545454316
 20
75.51550548805972
 10
-7.076945545457419
 20
75.51550548805972
  0
LWPOLYLINE
  5
A5
330
31
100
AcDbEntity
  8
0
 62
126
100
AcDbPolyline
 90
4
 70
1
 10
-4.963309181825025
 20
88.97232366987735
 10
4.900327181821921
 20
88.97232366987735
 10
4.900327181821921
 20
76.99505094259801
 10
-4.963309181825025
 20
76.99505094259801
  0
LWPOLYLINE
  5
A6
330
31
100
AcDbEntity
  8
0
 62
126
100
AcDbPolyline
 90
4
 70
0
 10
-4.32921827273094
 20
88.97232366987735
 10
-4.32921827273094
 20
79.74724621721543
 42
0.3099445346571803
 10
-4.148935655481182
 20
79.484354572749
 10
-1.581318013253621
 20
78.49267411266919
  0
LWPOLYLINE
  5
A7
330
31
100
AcDbEntity
  8
0
 62
126
100
AcDbPolyline
 90
4
 70
0
 10
1.805728323990479
 20
78.49337175639812
 10
4.092880573967704
 20
79.38364030722005
 42
0.3092248975359518
 10
4.272472981203463
 20
79.64626433241938
 10
4.272472981203463
 20
88.97232366987735
  0
LWPOLYLINE
  5
A8
330
31
100
AcDbEntity
  8
0
 62
126
100
AcDbPolyline
 90
4
 70
1
 10
-1.581318013253621
 20
78.6437277678051
 10
1.805728323990479
 20
78.6437277678051
 10
1.805728323990479
 20
76.99505094259801
 10
-1.581318013253621
 20
76.99505094259801
  0
LWPOLYLINE
  5
A9
330
31
100
AcDbEntity
  8
0
 62
126
100
AcDbPolyline
 90
5
 70
1
 10
8.42305445454258
 20
97.32458416993904
 42
0.4142135623731083
 10
7.718508999998448
 20
98.02912962448318
 42
0.4142135623730818
 10
7.013963545454316
 20
97.32458416993904
 10
7.013963545454316
 20
91.86096003350394
 10
8.42305445454258
 20
91.86096003350394
  0
LINE
  5
AA
330
31
100
AcDbEntity
  8
0
 62
126
100
AcDbLine
 10
14.00354309513932
 20
75.51550548805972
 30
0.0
 11
16.11717945877171
 21
76.99505094259801
 31
0.0
  0
LINE
  5
AB
330
31
100
AcDbEntity
  8
0
 62
126
100
AcDbLine
 10
28.09445218605106
 20
75.51550548805972
 30
0.0
 11
25.98081582240411
 21
76.99505094259801
 31
0.0
  0
LINE
  5
AC
330
31
100
AcDbEntity
  8
0
 62
126
100
AcDbLine
 10
14.00354309513932
 20
90.45186912441568
 30
0.0
 11
16.11717945877171
 21
88.97232366987735
 31
0.0
  0
LINE
  5
AD
330
31
100
AcDbEntity
  8
0
 62
126
100
AcDbLine
 10
28.09445218605106
 20
90.45186912441568
 30
0.0
 11
25.98081582240411
 21
88.97232366987735
 31
0.0
  0
LINE
  5
AE
330
31
100
AcDbEntity
  8
0
 62
126
100
AcDbLine
 10
25.35296162180021
 20
87.77459641061431
 30
0.0
 11
16.7512703678658
 21
87.77459641061431
 31
0.0
  0
LINE
  5
AF
330
31
100
AcDbEntity
  8
0
 62
126
100
AcDbLine
 10
19.49917062734312
 20
78.6437277678051
 30
0.0
 11
16.7512703678658
 21
79.70503804576583
 31
0.0
  0
LINE
  5
B0
330
31
100
AcDbEntity
  8
0
 62
126
100
AcDbLine
 10
22.88621696458722
 20
78.64457933830272
 30
0.0
 11
25.35296162180021
 21
79.60475380471325
 31
0.0
  0
LWPOLYLINE
  5
B1
330
31
100
AcDbEntity
  8
0
 62
126
100
AcDbPolyline
 90
6
 70
1
 10
12.59445218605106
 20
97.32458416993904
 42
-0.4142135623730951
 10
13.29899764059519
 20
98.02912962448318
 10
13.29899764059519
 20
98.02912962448318
 42
-0.4142135623730951
 10
14.00354309513932
 20
97.32458416993904
 10
14.00354309513932
 20
91.86096003350394
 10
12.59445218605106
 20
91.86096003350394
  0
LINE
  5
B2
330
31
100
AcDbEntity
  8
0
 62
126
100
AcDbLine
 10
28.09445218605106
 20
74.1064145789569
 30
0.0
 11
28.09445218605106
 21
71.7138483638264
 31
0.0
  0
ARC
  5
B3
330
31
100
AcDbEntity
  8
0
 62
126
100
AcDbCircle
 10
28.79899764059519
 20
71.7138483638264
 30
0.0
 40
0.7045454545453324
100
AcDbArc
 50
180.0
 51
270.0
  0
ARC
  5
B4
330
31
100
AcDbEntity
  8
0
 62
126
100
AcDbCircle
 10
28.79899764059519
 20
71.7138483638264
 30
0.0
 40
0.7045454545453956
100
AcDbArc
 50
270.0
 51
0.0
  0
LINE
  5
B5
330
31
100
AcDbEntity
  8
0
 62
126
100
AcDbLine
 10
29.50354309513932
 20
71.7138483638264
 30
0.0
 11
29.50354309513932
 21
74.1064145789569
 31
0.0
  0
LINE
  5
B6
330
31
100
AcDbEntity
  8
0
 62
126
100
AcDbLine
 10
12.59445218605106
 20
74.1064145789569
 30
0.0
 11
12.59445218605106
 21
71.7138483638264
 31
0.0
  0
ARC
  5
B7
330
31
100
AcDbEntity
  8
0
 62
126
100
AcDbCircle
 10
13.29899764059519
 20
71.7138483638264
 30
0.0
 40
0.7045454545453956
100
AcDbArc
 50
180.0
 51
270.0
  0
ARC
  5
B8
330
31
100
AcDbEntity
  8
0
 62
126
100
AcDbCircle
 10
13.29899764059519
 20
71.7138483638264
 30
0.0
 40
0.7045454545453956
100
AcDbArc
 50
270.0
 51
0.0
  0
LINE
  5
B9
330
31
100
AcDbEntity
  8
0
 62
126
100
AcDbLine
 10
14.00354309513932
 20
71.7138483638264
 30
0.0
 11
14.00354309513932
 21
74.1064145789569
 31
0.0
  0
LWPOLYLINE
  5
BA
330
31
100
AcDbEntity
  8
0
 62
126
100
AcDbPolyline
 90
4
 70
1
 10
12.59445218605106
 20
91.86096003350394
 10
29.50354309513932
 20
91.86096003350394
 10
29.50354309513932
 20
74.1064145789569
 10
12.59445218605106
 20
74.1064145789569
  0
LWPOLYLINE
  5
BB
330
31
100
AcDbEntity
  8
0
 62
126
100
AcDbPolyline
 90
4
 70
1
 10
14.00354309513932
 20
90.45186912441568
 10
28.09445218605106
 20
90.45186912441568
 10
28.09445218605106
 20
75.51550548805972
 10
14.00354309513932
 20
75.51550548805972
  0
LWPOLYLINE
  5
BC
330
31
100
AcDbEntity
  8
0
 62
126
100
AcDbPolyline
 90
4
 70
1
 10
16.11717945877171
 20
88.97232366987735
 10
25.98081582240411
 20
88.97232366987735
 10
25.98081582240411
 20
76.99505094259801
 10
16.11717945877171
 20
76.99505094259801
  0
LWPOLYLINE
  5
BD
330
31
100
AcDbEntity
  8
0
 62
126
100
AcDbPolyline
 90
4
 70
0
 10
16.7512703678658
 20
88.97232366987735
 10
16.7512703678658
 20
79.74724621721543
 42
0.3099445346571803
 10
16.93155298510101
 20
79.484354572749
 10
19.49917062734312
 20
78.49267411266919
  0
LWPOLYLINE
  5
BE
330
31
100
AcDbEntity
  8
0
 62
126
100
AcDbPolyline
 90
4
 70
0
 10
22.88621696458722
 20
78.49337175639812
 10
25.17336921454989
 20
79.38364030722005
 42
0.3092248975359518
 10
25.35296162180021
 20
79.64626433241938
 10
25.35296162180021
 20
88.97232366987735
  0
LWPOLYLINE
  5
BF
330
31
100
AcDbEntity
  8
0
 62
126
100
AcDbPolyline
 90
4
 70
1
 10
19.49917062734312
 20
78.6437277678051
 10
22.88621696458722
 20
78.6437277678051
 10
22.88621696458722
 20
76.99505094259801
 10
19.49917062734312
 20
76.99505094259801
  0
LWPOLYLINE
  5
C0
330
31
100
AcDbEntity
  8
0
 62
126
100
AcDbPolyline
 90
5
 70
1
 10
29.50354309513932
 20
97.32458416993904
 42
0.4142135623731083
 10
28.79899764059519
 20
98.02912962448318
 42
0.4142135623730818
 10
28.09445218605106
 20
97.32458416993904
 10
28.09445218605106
 20
91.86096003350394
 10
29.50354309513932
 20
91.86096003350394
  0
LWPOLYLINE
  5
C1
330
31
100
AcDbEntity
  8
0
 62
126
100
AcDbPolyline
 90
4
 70
0
 10
-12.71330912158009
 20
112.0360970000038
 10
-12.71330912158009
 20
112.4588242727332
 10
-12.15306815771328
 20
112.4588242727332
 10
-12.15306815771328
 20
112.0360970000038
  0
LWPOLYLINE
  5
C2
330
31
100
AcDbEntity
  8
0
 62
126
100
AcDbPolyline
 90
4
 70
0
 10
-9.453725331870373
 20
112.0360970000038
 10
-9.453725331870373
 20
112.4588242727332
 10
-10.04937901758239
 20
112.4588242727332
 10
-10.04937901758239
 20
112.0360970000038
  0
LWPOLYLINE
  5
C3
330
31
100
AcDbEntity
  8
0
 62
126
100
AcDbPolyline
 90
4
 70
0
 10
-5.226452604591031
 20
112.0360970000038
 10
-5.226452604591031
 20
112.4588242727332
 10
-8.486036394300754
 20
112.4588242727332
 10
-8.486036394300754
 20
112.0360970000038
  0
LWPOLYLINE
  5
C4
330
31
100
AcDbEntity
  8
0
 62
126
100
AcDbPolyline
 90
4
 70
0
 10
-4.207832670304924
 20
112.0360970000038
 10
-4.207832670304924
 20
112.4588242727332
 10
-3.647591706452658
 20
112.4588242727332
 10
-3.647591706452658
 20
112.0360970000038
  0
LWPOLYLINE
  5
C5
330
31
100
AcDbEntity
  8
0
 62
126
100
AcDbPolyline
 90
4
 70
0
 10
-2.628971772181103
 20
112.0360970000038
 10
-2.628971772181103
 20
112.4588242727332
 10
-2.068730808314285
 20
112.4588242727332
 10
-2.068730808314285
 20
112.0360970000038
  0
LWPOLYLINE
  5
C6
330
31
100
AcDbEntity
  8
0
 62
126
100
AcDbPolyline
 90
4
 70
0
 10
0.6306120175286197
 20
112.0360970000038
 10
0.6306120175286197
 20
112.4588242727332
 10
0.0349583318165969
 20
112.4588242727332
 10
0.0349583318165969
 20
112.0360970000038
  0
LWPOLYLINE
  5
C7
330
31
100
AcDbEntity
  8
0
 62
126
100
AcDbPolyline
 90
4
 70
0
 10
2.64238638774259
 20
112.0360970000038
 10
2.64238638774259
 20
112.4588242727332
 10
3.202627351594856
 20
112.4588242727332
 10
3.202627351594856
 20
112.0360970000038
  0
LWPOLYLINE
  5
C8
330
31
100
AcDbEntity
  8
0
 62
126
100
AcDbPolyline
 90
4
 70
0
 10
5.163470725092338
 20
112.0360970000038
 10
5.163470725092338
 20
112.4588242727332
 10
8.270261524652597
 20
112.4588242727332
 10
8.270261524652597
 20
112.0360970000038
  0
LWPOLYLINE
  5
C9
330
31
100
AcDbEntity
  8
0
 62
126
100
AcDbPolyline
 90
4
 70
0
 10
12.47206875355914
 20
112.0360970000038
 10
12.47206875355914
 20
112.4588242727332
 10
11.73953786845959
 20
112.4588242727332
 10
11.73953786845959
 20
112.0360970000038
  0
LWPOLYLINE
  5
CA
330
31
100
AcDbEntity
  8
0
 62
126
100
AcDbPolyline
 90
4
 70
0
 10
10.24503155506681
 20
112.0360970000038
 10
10.24503155506681
 20
112.4588242727332
 10
9.569001940864837
 20
112.4588242727332
 10
9.569001940864837
 20
112.0360970000038
  0
LWPOLYLINE
  5
CB
330
31
100
AcDbEntity
  8
0
 62
126
100
AcDbPolyline
 90
3
 70
0
 10
9.00876097701257
 20
112.0360970000038
 10
9.00876097701257
 20
112.4588242727332
 10
9.569001940864837
 20
112.4588242727332
  0
LWPOLYLINE
  5
CC
330
31
100
AcDbEntity
  8
0
 62
126
100
AcDbPolyline
 90
3
 70
0
 10
3.202627351594856
 20
112.4588242727332
 10
4.577764262881828
 20
112.4588242727332
 10
4.577764262881828
 20
112.0360970000038
  0
LWPOLYLINE
  5
CD
330
31
100
AcDbEntity
  8
0
 62
126
100
AcDbPolyline
 90
3
 70
0
 10
2.64238638774259
 20
112.4588242727332
 10
1.267249476455617
 20
112.4588242727332
 10
1.267249476455617
 20
112.0360970000038
  0
LINE
  5
CE
330
31
100
AcDbEntity
  8
0
 62
126
100
AcDbLine
 10
-29.56652509514242
 20
112.0360970000038
 30
0.0
 11
-29.56652509514242
 21
69.82914188339782
 31
0.0
  0
LINE
  5
CF
330
31
100
AcDbEntity
  8
0
 62
126
100
AcDbLine
 10
29.50354309513932
 20
112.0360970000038
 30
0.0
 11
29.50354309513932
 21
69.82914188339782
 31
0.0
  0
LWPOLYLINE
  5
D0
330
31
100
AcDbEntity
  8
0
 62
126
100
AcDbPolyline
 90
6
 70
1
 10
-31.03149100000155
 20
62.03609700000379
 10
30.96850899999845
 20
62.03609700000379
 10
30.96850899999845
 20
111.3315515454596
 42
0.4142135623730832
 10
30.26396354545432
 20
112.0360970000038
 10
-30.32694554545742
 20
112.0360970000038
 42
0.4142135623730966
 10
-31.03149100000155
 20
111.3315515454596
  0
LINE
  5
D1
330
31
100
AcDbEntity
  8
0
 62
126
100
AcDbLine
 10
29.50354309513932
 20
98.0353016680674
 30
0.0
 11
-29.56652509514242
 21
98.0353016680674
 31
0.0
  0
HATCH
  5
D2
330
31
100
AcDbEntity
  8
0
 62
126
 60
1
100
AcDbHatch
 10
0.0
 20
0.0
 30
0.0
210
0.0
220
0.0
230
1.0
  2
DASH
 70
0
 71
0
 91
7
 92
16
 93
1
 72
2
 10
23.58839254858322
 20
17.52726468559749
 40
4.339999999999999
 50
0.0
 51
360.0
 73
1
 97
1
330
1AD95
 92
16
 93
1
 72
2
 10
-0.0314910000015516
 20
17.52726468559749
 40
4.339999999999999
 50
0.0
 51
360.0
 73
1
 97
1
330
1AD93
 92
16
 93
1
 72
2
 10
-23.65137454860087
 20
17.52726468559749
 40
4.339999999999999
 50
0.0
 51
360.0
 73
1
 97
1
330
1AD94
 92
16
 93
1
 72
2
 10
-23.65137454860087
 20
-7.272735314412692
 40
4.339999999999999
 50
0.0
 51
360.0
 73
1
 97
1
330
1AD91
 92
16
 93
1
 72
2
 10
-0.0314910000015516
 20
-7.272735314412692
 40
4.339999999999999
 50
0.0
 51
360.0
 73
1
 97
1
330
1AD90
 92
16
 93
1
 72
2
 10
23.58839254858322
 20
-7.272735314412692
 40
4.339999999999999
 50
0.0
 51
360.0
 73
1
 97
1
330
1AD92
 92
1
 93
8
 72
1
 10
-24.83149100000446
 20
-19.67273531441415
 11
24.76850900000136
 21
-19.67273531441415
 72
2
 10
24.76850899999772
 20
-13.47273531441342
 40
6.200000000000727
 50
270.0000000000336
 51
360.0000000000337
 73
1
 72
1
 10
30.96850899999845
 20
-13.47273531440978
 11
30.96850899999845
 21
23.72726468558731
 72
2
 10
24.76850899999772
 20
23.72726468559095
 40
6.200000000000727
 50
359.9999999999663
 51
449.9999999999664
 73
1
 72
1
 10
24.76850900000136
 20
29.92726468559168
 11
-24.83149100000446
 21
29.92726468559168
 72
2
 10
-24.83149100000082
 20
23.72726468559095
 40
6.200000000000727
 50
90.0000000000336
 51
180.0000000000336
 73
1
 72
1
 10
-31.03149100000155
 20
23.72726468558731
 11
-31.03149100000155
 21
-13.47273531440978
 72
2
 10
-24.83149100000082
 20
-13.47273531441342
 40
6.200000000000727
 50
179.9999999999664
 51
269.9999999999664
 73
1
 97
1
330
1AD8D
 75
0
 76
1
 52
0.0
 41
0.6200000000000001
 77
0
 78
1
 53
0.0
 43
-85875.27757031831
 44
-43605.977828743
 45
1.968499999999999
 46
1.968499999999999
 79
2
 49
1.968499999999999
 49
-1.968499999999999
 98
1
 10
-85875.27757031831
 20
-43605.977828743
  0
LWPOLYLINE
  5
D3
330
31
100
AcDbEntity
  8
0
 62
126
 60
1
100
AcDbPolyline
 90
8
 70
1
 10
-24.83149100000446
 20
-19.67273531441415
 10
24.76850900000136
 20
-19.67273531441415
 42
0.4142135623730951
 10
30.96850899999845
 20
-13.47273531440978
 10
30.96850899999845
 20
23.72726468558731
 42
0.4142135623730951
 10
24.76850900000136
 20
29.92726468559168
 10
-24.83149100000446
 20
29.92726468559168
 42
0.4142135623730951
 10
-31.03149100000155
 20
23.72726468558731
 10
-31.03149100000155
 20
-13.47273531440978
 42
0.4142135623730951
  0
CIRCLE
  5
D4
330
31
100
AcDbEntity
  8
0
 62
126
 60
1
100
AcDbCircle
 10
-0.0314910000015516
 20
5.127264685588762
 30
0.0
 40
57.9212206096563
  0
CIRCLE
  5
D5
330
31
100
AcDbEntity
  8
0
 62
126
 60
1
100
AcDbCircle
 10
-0.0314910000015516
 20
5.127264685588762
 30
0.0
 40
54.87273531441124
  0
CIRCLE
  5
D6
330
31
100
AcDbEntity
  8
0
 62
126
 60
1
100
AcDbCircle
 10
-0.0314910000015516
 20
-7.272735314412692
 30
0.0
 40
4.339999999999999
  0
CIRCLE
  5
D7
330
31
100
AcDbEntity
  8
0
 62
126
 60
1
100
AcDbCircle
 10
-23.65137454860087
 20
-7.272735314412692
 30
0.0
 40
4.339999999999999
  0
CIRCLE
  5
D8
330
31
100
AcDbEntity
  8
0
 62
126
 60
1
100
AcDbCircle
 10
23.58839254858322
 20
-7.272735314412692
 30
0.0
 40
4.339999999999999
  0
CIRCLE
  5
D9
330
31
100
AcDbEntity
  8
0
 62
126
 60
1
100
AcDbCircle
 10
-0.0314910000015516
 20
17.52726468559749
 30
0.0
 40
4.339999999999999
  0
CIRCLE
  5
DA
330
31
100
AcDbEntity
  8
0
 62
126
 60
1
100
AcDbCircle
 10
-23.65137454860087
 20
17.52726468559749
 30
0.0
 40
4.339999999999999
  0
CIRCLE
  5
DB
330
31
100
AcDbEntity
  8
0
 62
126
 60
1
100
AcDbCircle
 10
23.58839254858322
 20
17.52726468559749
 30
0.0
 40
4.339999999999999
  0
ARC
  5
DC
330
31
100
AcDbEntity
  8
INSIDE
 62
4
 60
1
100
AcDbCircle
 10
23.68368387290684
 20
19.28646694852259
 30
0.0
 40
0.6228837209293809
100
AcDbArc
 50
221.8994695253392
 51
311.8994695259282
  0
LINE
  5
DD
330
31
100
AcDbEntity
  8
INSIDE
 62
4
 60
1
100
AcDbLine
 10
24.09966160757176
 20
18.82284355171769
 30
0.0
 11
25.91524781877524
 21
20.45184554864145
 31
0.0
  0
LINE
  5
DE
330
31
100
AcDbEntity
  8
INSIDE
 62
4
 60
1
100
AcDbLine
 10
23.22006047610194
 20
18.87048921387222
 30
0.0
 11
22.38810500677209
 21
19.79773600748204
 31
0.0
  0
ARC
  5
DF
330
31
100
AcDbEntity
  8
INSIDE
 62
4
 60
1
100
AcDbCircle
 10
25.34759481153742
 20
17.43197336130297
 30
0.0
 40
0.6228837209293809
100
AcDbArc
 50
131.8994695259282
 51
221.8994695253392
  0
LINE
  5
E0
330
31
100
AcDbEntity
  8
INSIDE
 62
4
 60
1
100
AcDbLine
 10
24.9316170768725
 20
17.89559675810788
 30
0.0
 11
26.74720328807598
 21
19.52459875502436
 31
0.0
  0
LINE
  5
E1
330
31
100
AcDbEntity
  8
INSIDE
 62
4
 60
1
100
AcDbLine
 10
25.71592688403325
 20
16.08874883302824
 30
0.0
 11
24.88397141473252
 21
17.01599562663805
 31
0.0
  0
ARC
  5
E2
330
31
100
AcDbEntity
  8
INSIDE
 62
4
 60
1
100
AcDbCircle
 10
23.4931012243178
 20
15.76806242266512
 30
0.0
 40
0.6228837209293809
100
AcDbArc
 50
41.89946952533918
 51
131.8994695259282
  0
LINE
  5
E3
330
31
100
AcDbEntity
  8
INSIDE
 62
4
 60
1
100
AcDbLine
 10
24.78868009042344
 20
15.25679336371295
 30
0.0
 11
23.9567246211227
 21
16.18404015732276
 31
0.0
  0
LINE
  5
E4
330
31
100
AcDbEntity
  8
INSIDE
 62
4
 60
1
100
AcDbLine
 10
21.26153727843484
 20
14.60268382255353
 30
0.0
 11
23.07712348965288
 21
16.23168581947002
 31
0.0
  0
ARC
  5
E5
330
31
100
AcDbEntity
  8
INSIDE
 62
4
 60
1
100
AcDbCircle
 10
21.82919028567267
 20
17.62255600989201
 30
0.0
 40
0.6228837209293809
100
AcDbArc
 50
311.8994695259282
 51
41.89946952533918
  0
LINE
  5
E6
330
31
100
AcDbEntity
  8
INSIDE
 62
4
 60
1
100
AcDbLine
 10
22.29281368247757
 20
18.03853374454966
 30
0.0
 11
21.46085821316228
 21
18.96578053816675
 31
0.0
  0
LINE
  5
E7
330
31
100
AcDbEntity
  8
INSIDE
 62
4
 60
1
100
AcDbLine
 10
20.42958180911956
 20
15.52993061616335
 30
0.0
 11
22.24516802032304
 21
17.15893261307983
 31
0.0
  0
LINE
  5
E8
330
31
100
AcDbEntity
  8
INSIDE
  6
Continuous
 62
4
 60
1
100
AcDbLine
 10
24.78868009042344
 20
15.25679336371295
 30
0.0
 11
25.71592688403325
 21
16.08874883302824
 31
0.0
  0
LINE
  5
E9
330
31
100
AcDbEntity
  8
INSIDE
  6
Continuous
 62
4
 60
1
100
AcDbLine
 10
21.46085821316228
 20
18.96578053816675
 30
0.0
 11
22.38810500677209
 21
19.79773600748204
 31
0.0
  0
CIRCLE
  5
EA
330
31
100
AcDbEntity
  8
INSIDE
  6
Continuous
 62
4
 60
1
100
AcDbCircle
 10
23.58839254859777
 20
17.52726468559749
 30
0.0
 40
3.737302325576284
  0
ARC
  5
EB
330
31
100
AcDbEntity
  8
INSIDE
 62
4
 60
1
100
AcDbCircle
 10
0.0638003243220737
 20
19.28646694852259
 30
0.0
 40
0.6228837209293809
100
AcDbArc
 50
221.8994695253392
 51
311.8994695259282
  0
LINE
  5
EC
330
31
100
AcDbEntity
  8
INSIDE
 62
4
 60
1
100
AcDbLine
 10
0.4797780589869945
 20
18.82284355171769
 30
0.0
 11
2.295364270190475
 21
20.45184554864145
 31
0.0
  0
LINE
  5
ED
330
31
100
AcDbEntity
  8
INSIDE
 62
4
 60
1
100
AcDbLine
 10
-0.3998230724828318
 20
18.87048921387222
 30
0.0
 11
-1.231778541812673
 21
19.79773600748204
 31
0.0
  0
ARC
  5
EE
330
31
100
AcDbEntity
  8
INSIDE
 62
4
 60
1
100
AcDbCircle
 10
1.727711262952652
 20
17.43197336130297
 30
0.0
 40
0.6228837209293809
100
AcDbArc
 50
131.8994695259282
 51
221.8994695253392
  0
LINE
  5
EF
330
31
100
AcDbEntity
  8
INSIDE
 62
4
 60
1
100
AcDbLine
 10
1.311733528287732
 20
17.89559675810788
 30
0.0
 11
3.127319739491213
 21
19.52459875502436
 31
0.0
  0
LINE
  5
F0
330
31
100
AcDbEntity
  8
INSIDE
 62
4
 60
1
100
AcDbLine
 10
2.096043335448484
 20
16.08874883302824
 30
0.0
 11
1.264087866147747
 21
17.01599562663805
 31
0.0
  0
ARC
  5
F1
330
31
100
AcDbEntity
  8
INSIDE
 62
4
 60
1
100
AcDbCircle
 10
-0.1267823242669692
 20
15.76806242266512
 30
0.0
 40
0.6228837209293809
100
AcDbArc
 50
41.89946952533918
 51
131.8994695259282
  0
LINE
  5
F2
330
31
100
AcDbEntity
  8
INSIDE
 62
4
 60
1
100
AcDbLine
 10
1.168796541838673
 20
15.25679336371295
 30
0.0
 11
0.3368410725379363
 21
16.18404015732276
 31
0.0
  0
LINE
  5
F3
330
31
100
AcDbEntity
  8
INSIDE
 62
4
 60
1
100
AcDbLine
 10
-2.358346270149922
 20
14.60268382255353
 30
0.0
 11
-0.54276005893189
 21
16.23168581947002
 31
0.0
  0
ARC
  5
F4
330
31
100
AcDbEntity
  8
INSIDE
 62
4
 60
1
100
AcDbCircle
 10
-1.7906932629121
 20
17.62255600989201
 30
0.0
 40
0.6228837209293809
100
AcDbArc
 50
311.8994695259282
 51
41.89946952533918
  0
LINE
  5
F5
330
31
100
AcDbEntity
  8
INSIDE
 62
4
 60
1
100
AcDbLine
 10
-1.327069866107194
 20
18.03853374454966
 30
0.0
 11
-2.159025335422484
 21
18.96578053816675
 31
0.0
  0
LINE
  5
F6
330
31
100
AcDbEntity
  8
INSIDE
 62
4
 60
1
100
AcDbLine
 10
-3.190301739465212
 20
15.52993061616335
 30
0.0
 11
-1.374715528261731
 21
17.15893261307983
 31
0.0
  0
LINE
  5
F7
330
31
100
AcDbEntity
  8
INSIDE
  6
Continuous
 62
4
 60
1
100
AcDbLine
 10
1.168796541838673
 20
15.25679336371295
 30
0.0
 11
2.096043335448484
 21
16.08874883302824
 31
0.0
  0
LINE
  5
F8
330
31
100
AcDbEntity
  8
INSIDE
  6
Continuous
 62
4
 60
1
100
AcDbLine
 10
-2.159025335422484
 20
18.96578053816675
 30
0.0
 11
-1.231778541812673
 21
19.79773600748204
 31
0.0
  0
CIRCLE
  5
F9
330
31
100
AcDbEntity
  8
INSIDE
  6
Continuous
 62
4
 60
1
100
AcDbCircle
 10
-0.0314909999869997
 20
17.52726468559749
 30
0.0
 40
3.737302325576284
  0
ARC
  5
FA
330
31
100
AcDbEntity
  8
INSIDE
 62
4
 60
1
100
AcDbCircle
 10
-23.55608322427725
 20
19.28646694852259
 30
0.0
 40
0.6228837209293809
100
AcDbArc
 50
221.8994695253392
 51
311.8994695259282
  0
LINE
  5
FB
330
31
100
AcDbEntity
  8
INSIDE
 62
4
 60
1
100
AcDbLine
 10
-23.14010548962688
 20
18.82284355171769
 30
0.0
 11
-21.32451927842339
 21
20.45184554864145
 31
0.0
  0
LINE
  5
FC
330
31
100
AcDbEntity
  8
INSIDE
 62
4
 60
1
100
AcDbLine
 10
-24.01970662108215
 20
18.87048921387222
 30
0.0
 11
-24.85166209041199
 21
19.79773600748204
 31
0.0
  0
ARC
  5
FD
330
31
100
AcDbEntity
  8
INSIDE
 62
4
 60
1
100
AcDbCircle
 10
-21.89217228564666
 20
17.43197336130297
 30
0.0
 40
0.6228837209293809
100
AcDbArc
 50
131.8994695259282
 51
221.8994695253392
  0
LINE
  5
FE
330
31
100
AcDbEntity
  8
INSIDE
 62
4
 60
1
100
AcDbLine
 10
-22.30815002031159
 20
17.89559675810788
 30
0.0
 11
-20.49256380910811
 21
19.52459875502436
 31
0.0
  0
LINE
  5
FF
330
31
100
AcDbEntity
  8
INSIDE
 62
4
 60
1
100
AcDbLine
 10
-21.52384021315083
 20
16.08874883302824
 30
0.0
 11
-22.35579568245157
 21
17.01599562663805
 31
0.0
  0
ARC
  5
100
330
31
100
AcDbEntity
  8
INSIDE
 62
4
 60
1
100
AcDbCircle
 10
-23.74666587288084
 20
15.76806242266512
 30
0.0
 40
0.6228837209293809
100
AcDbArc
 50
41.89946952533918
 51
131.8994695259282
  0
LINE
  5
101
330
31
100
AcDbEntity
  8
INSIDE
 62
4
 60
1
100
AcDbLine
 10
-22.45108700676064
 20
15.25679336371295
 30
0.0
 11
-23.28304247606138
 21
16.18404015732276
 31
0.0
  0
LINE
  5
102
330
31
100
AcDbEntity
  8
INSIDE
 62
4
 60
1
100
AcDbLine
 10
-25.9782298187638
 20
14.60268382255353
 30
0.0
 11
-24.16264360753121
 21
16.23168581947002
 31
0.0
  0
ARC
  5
103
330
31
100
AcDbEntity
  8
INSIDE
 62
4
 60
1
100
AcDbCircle
 10
-25.41057681152597
 20
17.62255600989201
 30
0.0
 40
0.6228837209293809
100
AcDbArc
 50
311.8994695259282
 51
41.89946952533918
  0
LINE
  5
104
330
31
100
AcDbEntity
  8
INSIDE
 62
4
 60
1
100
AcDbLine
 10
-24.94695341472107
 20
18.03853374454966
 30
0.0
 11
-25.7789088840218
 21
18.96578053816675
 31
0.0
  0
LINE
  5
105
330
31
100
AcDbEntity
  8
INSIDE
 62
4
 60
1
100
AcDbLine
 10
-26.81018528806453
 20
15.52993061616335
 30
0.0
 11
-24.99459907686105
 21
17.15893261307983
 31
0.0
  0
LINE
  5
106
330
31
100
AcDbEntity
  8
INSIDE
  6
Continuous
 62
4
 60
1
100
AcDbLine
 10
-22.45108700676064
 20
15.25679336371295
 30
0.0
 11
-21.52384021315083
 21
16.08874883302824
 31
0.0
  0
LINE
  5
107
330
31
100
AcDbEntity
  8
INSIDE
  6
Continuous
 62
4
 60
1
100
AcDbLine
 10
-25.7789088840218
 20
18.96578053816675
 30
0.0
 11
-24.85166209041199
 21
19.79773600748204
 31
0.0
  0
CIRCLE
  5
108
330
31
100
AcDbEntity
  8
INSIDE
  6
Continuous
 62
4
 60
1
100
AcDbCircle
 10
-23.65137454858632
 20
17.52726468559749
 30
0.0
 40
3.737302325576284
  0
ARC
  5
109
330
31
100
AcDbEntity
  8
INSIDE
 62
4
 60
1
100
AcDbCircle
 10
23.68368387290684
 20
-5.513533051487591
 30
0.0
 40
0.6228837209293809
100
AcDbArc
 50
221.8994695253392
 51
311.8994695259282
  0
LINE
  5
10A
330
31
100
AcDbEntity
  8
INSIDE
 62
4
 60
1
100
AcDbLine
 10
24.09966160757176
 20
-5.977156448292497
 30
0.0
 11
25.91524781877524
 21
-4.348154451368735
 31
0.0
  0
LINE
  5
10B
330
31
100
AcDbEntity
  8
INSIDE
 62
4
 60
1
100
AcDbLine
 10
23.22006047610194
 20
-5.92951078613796
 30
0.0
 11
22.38810500677209
 21
-5.002263992528149
 31
0.0
  0
ARC
  5
10C
330
31
100
AcDbEntity
  8
INSIDE
 62
4
 60
1
100
AcDbCircle
 10
25.34759481153742
 20
-7.368026638707213
 30
0.0
 40
0.6228837209293809
100
AcDbArc
 50
131.8994695259282
 51
221.8994695253392
  0
LINE
  5
10D
330
31
100
AcDbEntity
  8
INSIDE
 62
4
 60
1
100
AcDbLine
 10
24.9316170768725
 20
-6.904403241902308
 30
0.0
 11
26.74720328807598
 21
-5.275401244978546
 31
0.0
  0
LINE
  5
10E
330
31
100
AcDbEntity
  8
INSIDE
 62
4
 60
1
100
AcDbLine
 10
25.71592688403325
 20
-8.711251166981945
 30
0.0
 11
24.88397141473252
 21
-7.784004373372134
 31
0.0
  0
ARC
  5
10F
330
31
100
AcDbEntity
  8
INSIDE
 62
4
 60
1
100
AcDbCircle
 10
23.4931012243178
 20
-9.031937577345069
 30
0.0
 40
0.6228837209293809
100
AcDbArc
 50
41.89946952533918
 51
131.8994695259282
  0
LINE
  5
110
330
31
100
AcDbEntity
  8
INSIDE
 62
4
 60
1
100
AcDbLine
 10
24.78868009042344
 20
-9.543206636297233
 30
0.0
 11
23.9567246211227
 21
-8.615959842687422
 31
0.0
  0
LINE
  5
111
330
31
100
AcDbEntity
  8
INSIDE
 62
4
 60
1
100
AcDbLine
 10
21.26153727843484
 20
-10.19731617745665
 30
0.0
 11
23.07712348965288
 21
-8.568314180540163
 31
0.0
  0
ARC
  5
112
330
31
100
AcDbEntity
  8
INSIDE
 62
4
 60
1
100
AcDbCircle
 10
21.82919028567267
 20
-7.17744399011817
 30
0.0
 40
0.6228837209293809
100
AcDbArc
 50
311.8994695259282
 51
41.89946952533918
  0
LINE
  5
113
330
31
100
AcDbEntity
  8
INSIDE
 62
4
 60
1
100
AcDbLine
 10
22.29281368247757
 20
-6.761466255460526
 30
0.0
 11
21.46085821316228
 21
-5.834219461843439
 31
0.0
  0
LINE
  5
114
330
31
100
AcDbEntity
  8
INSIDE
 62
4
 60
1
100
AcDbLine
 10
20.42958180911956
 20
-9.270069383839562
 30
0.0
 11
22.24516802032304
 21
-7.641067386930352
 31
0.0
  0
LINE
  5
115
330
31
100
AcDbEntity
  8
INSIDE
  6
Continuous
 62
4
 60
1
100
AcDbLine
 10
24.78868009042344
 20
-9.543206636297233
 30
0.0
 11
25.71592688403325
 21
-8.711251166981945
 31
0.0
  0
LINE
  5
116
330
31
100
AcDbEntity
  8
INSIDE
  6
Continuous
 62
4
 60
1
100
AcDbLine
 10
21.46085821316228
 20
-5.834219461843439
 30
0.0
 11
22.38810500677209
 21
-5.002263992528149
 31
0.0
  0
CIRCLE
  5
117
330
31
100
AcDbEntity
  8
INSIDE
  6
Continuous
 62
4
 60
1
100
AcDbCircle
 10
23.58839254859777
 20
-7.272735314412692
 30
0.0
 40
3.737302325576284
  0
ARC
  5
118
330
31
100
AcDbEntity
  8
INSIDE
 62
4
 60
1
100
AcDbCircle
 10
0.0638003243220737
 20
-5.513533051487591
 30
0.0
 40
0.6228837209293809
100
AcDbArc
 50
221.8994695253392
 51
311.8994695259282
  0
LINE
  5
119
330
31
100
AcDbEntity
  8
INSIDE
 62
4
 60
1
100
AcDbLine
 10
0.4797780589869945
 20
-5.977156448292497
 30
0.0
 11
2.295364270190475
 21
-4.348154451368735
 31
0.0
  0
LINE
  5
11A
330
31
100
AcDbEntity
  8
INSIDE
 62
4
 60
1
100
AcDbLine
 10
-0.3998230724828318
 20
-5.92951078613796
 30
0.0
 11
-1.231778541812673
 21
-5.002263992528149
 31
0.0
  0
ARC
  5
11B
330
31
100
AcDbEntity
  8
INSIDE
 62
4
 60
1
100
AcDbCircle
 10
1.727711262952652
 20
-7.368026638707213
 30
0.0
 40
0.6228837209293809
100
AcDbArc
 50
131.8994695259282
 51
221.8994695253392
  0
LINE
  5
11C
330
31
100
AcDbEntity
  8
INSIDE
 62
4
 60
1
100
AcDbLine
 10
1.311733528287732
 20
-6.904403241902308
 30
0.0
 11
3.127319739491213
 21
-5.275401244978546
 31
0.0
  0
LINE
  5
11D
330
31
100
AcDbEntity
  8
INSIDE
 62
4
 60
1
100
AcDbLine
 10
2.096043335448484
 20
-8.711251166981945
 30
0.0
 11
1.264087866147747
 21
-7.784004373372134
 31
0.0
  0
ARC
  5
11E
330
31
100
AcDbEntity
  8
INSIDE
 62
4
 60
1
100
AcDbCircle
 10
-0.1267823242669692
 20
-9.031937577345069
 30
0.0
 40
0.6228837209293809
100
AcDbArc
 50
41.89946952533918
 51
131.8994695259282
  0
LINE
  5
11F
330
31
100
AcDbEntity
  8
INSIDE
 62
4
 60
1
100
AcDbLine
 10
1.168796541838673
 20
-9.543206636297233
 30
0.0
 11
0.3368410725379363
 21
-8.615959842687422
 31
0.0
  0
LINE
  5
120
330
31
100
AcDbEntity
  8
INSIDE
 62
4
 60
1
100
AcDbLine
 10
-2.358346270149922
 20
-10.19731617745665
 30
0.0
 11
-0.54276005893189
 21
-8.568314180540163
 31
0.0
  0
ARC
  5
121
330
31
100
AcDbEntity
  8
INSIDE
 62
4
 60
1
100
AcDbCircle
 10
-1.7906932629121
 20
-7.17744399011817
 30
0.0
 40
0.6228837209293809
100
AcDbArc
 50
311.8994695259282
 51
41.89946952533918
  0
LINE
  5
122
330
31
100
AcDbEntity
  8
INSIDE
 62
4
 60
1
100
AcDbLine
 10
-1.327069866107194
 20
-6.761466255460526
 30
0.0
 11
-2.159025335422484
 21
-5.834219461843439
 31
0.0
  0
LINE
  5
123
330
31
100
AcDbEntity
  8
INSIDE
 62
4
 60
1
100
AcDbLine
 10
-3.190301739465212
 20
-9.270069383839562
 30
0.0
 11
-1.374715528261731
 21
-7.641067386930352
 31
0.0
  0
LINE
  5
124
330
31
100
AcDbEntity
  8
INSIDE
  6
Continuous
 62
4
 60
1
100
AcDbLine
 10
1.168796541838673
 20
-9.543206636297233
 30
0.0
 11
2.096043335448484
 21
-8.711251166981945
 31
0.0
  0
LINE
  5
125
330
31
100
AcDbEntity
  8
INSIDE
  6
Continuous
 62
4
 60
1
100
AcDbLine
 10
-2.159025335422484
 20
-5.834219461843439
 30
0.0
 11
-1.231778541812673
 21
-5.002263992528149
 31
0.0
  0
CIRCLE
  5
126
330
31
100
AcDbEntity
  8
INSIDE
  6
Continuous
 62
4
 60
1
100
AcDbCircle
 10
-0.0314909999869997
 20
-7.272735314412692
 30
0.0
 40
3.737302325576284
  0
ARC
  5
127
330
31
100
AcDbEntity
  8
INSIDE
 62
4
 60
1
100
AcDbCircle
 10
-23.55608322427725
 20
-5.513533051487591
 30
0.0
 40
0.6228837209293809
100
AcDbArc
 50
221.8994695253392
 51
311.8994695259282
  0
LINE
  5
128
330
31
100
AcDbEntity
  8
INSIDE
 62
4
 60
1
100
AcDbLine
 10
-23.14010548962688
 20
-5.977156448292497
 30
0.0
 11
-21.32451927842339
 21
-4.348154451368735
 31
0.0
  0
LINE
  5
129
330
31
100
AcDbEntity
  8
INSIDE
 62
4
 60
1
100
AcDbLine
 10
-24.01970662108215
 20
-5.92951078613796
 30
0.0
 11
-24.85166209041199
 21
-5.002263992528149
 31
0.0
  0
ARC
  5
12A
330
31
100
AcDbEntity
  8
INSIDE
 62
4
 60
1
100
AcDbCircle
 10
-21.89217228564666
 20
-7.368026638707213
 30
0.0
 40
0.6228837209293809
100
AcDbArc
 50
131.8994695259282
 51
221.8994695253392
  0
LINE
  5
12B
330
31
100
AcDbEntity
  8
INSIDE
 62
4
 60
1
100
AcDbLine
 10
-22.30815002031159
 20
-6.904403241902308
 30
0.0
 11
-20.49256380910811
 21
-5.275401244978546
 31
0.0
  0
LINE
  5
12C
330
31
100
AcDbEntity
  8
INSIDE
 62
4
 60
1
100
AcDbLine
 10
-21.52384021315083
 20
-8.711251166981945
 30
0.0
 11
-22.35579568245157
 21
-7.784004373372134
 31
0.0
  0
ARC
  5
12D
330
31
100
AcDbEntity
  8
INSIDE
 62
4
 60
1
100
AcDbCircle
 10
-23.74666587288084
 20
-9.031937577345069
 30
0.0
 40
0.6228837209293809
100
AcDbArc
 50
41.89946952533918
 51
131.8994695259282
  0
LINE
  5
12E
330
31
100
AcDbEntity
  8
INSIDE
 62
4
 60
1
100
AcDbLine
 10
-22.45108700676064
 20
-9.543206636297233
 30
0.0
 11
-23.28304247606138
 21
-8.615959842687422
 31
0.0
  0
LINE
  5
12F
330
31
100
AcDbEntity
  8
INSIDE
 62
4
 60
1
100
AcDbLine
 10
-25.9782298187638
 20
-10.19731617745665
 30
0.0
 11
-24.16264360753121
 21
-8.568314180540163
 31
0.0
  0
ARC
  5
130
330
31
100
AcDbEntity
  8
INSIDE
 62
4
 60
1
100
AcDbCircle
 10
-25.41057681152597
 20
-7.17744399011817
 30
0.0
 40
0.6228837209293809
100
AcDbArc
 50
311.8994695259282
 51
41.89946952533918
  0
LINE
  5
131
330
31
100
AcDbEntity
  8
INSIDE
 62
4
 60
1
100
AcDbLine
 10
-24.94695341472107
 20
-6.761466255460526
 30
0.0
 11
-25.7789088840218
 21
-5.834219461843439
 31
0.0
  0
LINE
  5
132
330
31
100
AcDbEntity
  8
INSIDE
 62
4
 60
1
100
AcDbLine
 10
-26.81018528806453
 20
-9.270069383839562
 30
0.0
 11
-24.99459907686105
 21
-7.641067386930352
 31
0.0
  0
LINE
  5
133
330
31
100
AcDbEntity
  8
INSIDE
  6
Continuous
 62
4
 60
1
100
AcDbLine
 10
-22.45108700676064
 20
-9.543206636297233
 30
0.0
 11
-21.52384021315083
 21
-8.711251166981945
 31
0.0
  0
LINE
  5
134
330
31
100
AcDbEntity
  8
INSIDE
  6
Continuous
 62
4
 60
1
100
AcDbLine
 10
-25.7789088840218
 20
-5.834219461843439
 30
0.0
 11
-24.85166209041199
 21
-5.002263992528149
 31
0.0
  0
CIRCLE
  5
135
330
31
100
AcDbEntity
  8
INSIDE
  6
Continuous
 62
4
 60
1
100
AcDbCircle
 10
-23.65137454858632
 20
-7.272735314412692
 30
0.0
 40
3.737302325576284
  0
LINE
  5
136
330
31
100
AcDbEntity
  8
0
 62
251
370
9
 60
1
100
AcDbLine
 10
-0.0314910000015516
 20
11.12726468558876
 30
0.0
 11
-0.0314910000015516
 21
-0.872735314411237
 31
0.0
  0
LINE
  5
137
330
31
100
AcDbEntity
  8
0
 62
251
370
9
 60
1
100
AcDbLine
 10
-6.031491000001551
 20
5.127264685588762
 30
0.0
 11
5.968508999998448
 21
5.127264685588762
 31
0.0
  0
CIRCLE
  5
138
330
31
100
AcDbEntity
  8
0
 62
251
370
9
 60
1
100
AcDbCircle
 10
-0.0314910000015516
 20
5.127264685588762
 30
0.0
 40
4.0
  0
ENDBLK
  5
33
330
31
100
AcDbEntity
  8
0
100
AcDbBlockEnd
  0
BLOCK
  5
13A
330
139
100
AcDbEntity
  8
0
100
AcDbBlockBegin
  2
Nuintek
 70
0
 10
0.0
 20
0.0
 30
0.0
  3
Nuintek
  1

  0
LWPOLYLINE
  5
13C
330
139
100
AcDbEntity
  8
0
 62
150
100
AcDbPolyline
 90
13
 70
1
 10
1.822844466424413
 20
2.331771021328762
 10
1.822844466424413
 20
3.833845513473534
 10
-2.803801207955245
 20
3.833845513473534
 10
-2.803801207955245
 20
3.833845513473534
 10
-2.803801207955245
 20
-0.9937686702195094
 10
0.183414180664414
 20
-0.9937686702195094
 10
0.183414180664414
 20
-0.2304657404801276
 10
-0.1845563293458383
 20
-0.2304657404801276
 10
-0.1845563293458383
 20
-0.625798160209257
 10
-2.435681722030039
 20
-0.625798160209257
 10
-2.435681722030039
 20
3.46686817622961
 10
1.454824297775786
 20
3.46686817622961
 10
1.454824297775786
 20
2.331771021328762
  0
LWPOLYLINE
  5
13D
330
139
100
AcDbEntity
  8
0
 62
150
100
AcDbPolyline
 90
20
 70
1
 10
-0.1146121704341567
 20
2.84e-14
 10
0.1146121704341567
 20
-1.42e-14
 42
0.4142135623738234
 10
0.1546121704342056
 20
0.0400000000000347
 10
0.1546121704341488
 20
1.578358753399896
 42
-0.7047199659112873
 10
0.1741234969857714
 20
1.58532706168323
 10
1.448040919274234
 20
0.0293213943030963
 42
0.2248667671231916
 10
1.509941476013352
 20
1.279e-13
 10
1.749523520106436
 20
-1.42e-14
 42
0.4142135623738234
 10
1.789523520106428
 20
0.0400000000000347
 10
1.789523520106371
 20
2.069896225279237
 42
0.4142135623735113
 10
1.749523520106379
 20
2.109896225279271
 10
1.492043414029353
 20
2.109896225279271
 42
0.4142135623735114
 10
1.452043414029361
 20
2.069896225279265
 10
1.452043414029418
 20
0.810286556587016
 42
-0.7066016661988462
 10
1.432497181336941
 20
0.8033611030447217
 10
0.3977575255679824
 20
2.080263160131906
 42
0.2261868371009028
 10
0.3356031059862801
 20
2.109896225279285
 10
-0.1146121704341567
 20
2.109896225279285
 42
0.4142135623731991
 10
-0.1546121704341488
 20
2.069896225279237
 10
-0.1546121704341488
 20
0.0400000000000347
 42
0.4142135623730951
  0
LWPOLYLINE
  5
13E
330
139
100
AcDbEntity
  8
0
 62
150
100
AcDbPolyline
 90
20
 70
1
 10
5.891699452611845
 20
2.84e-14
 10
6.120923793480159
 20
-1.42e-14
 42
0.4142135623738234
 10
6.160923793480236
 20
0.0400000000000347
 10
6.160923793480179
 20
1.578358753399896
 42
-0.7047199659112873
 10
6.180435120031773
 20
1.58532706168323
 10
7.454352542320265
 20
0.0293213943030963
 42
0.2248667671231916
 10
7.516253099059412
 20
1.279e-13
 10
7.755835143152438
 20
-1.42e-14
 42
0.4142135623738234
 10
7.795835143152459
 20
0.0400000000000347
 10
7.795835143152402
 20
2.069896225279237
 42
0.4142135623735113
 10
7.755835143152438
 20
2.109896225279271
 10
7.498355037075356
 20
2.109896225279271
 42
0.4142135623735114
 10
7.458355037075392
 20
2.069896225279265
 10
7.458355037075449
 20
0.810286556587016
 42
-0.7066016661988462
 10
7.438808804383
 20
0.8033611030447217
 10
6.404069148614013
 20
2.080263160131906
 42
0.2261868371009028
 10
6.341914729032311
 20
2.109896225279285
 10
5.891699452611845
 20
2.109896225279285
 42
0.4142135623731991
 10
5.851699452611882
 20
2.069896225279237
 10
5.851699452611882
 20
0.0400000000000347
 42
0.4142135623730951
  0
LWPOLYLINE
  5
13F
330
139
100
AcDbEntity
  8
0
 62
150
100
AcDbPolyline
 90
8
 70
1
 10
4.817012064410079
 20
2.069896225279251
 10
4.817012064410135
 20
0.0400000000000489
 42
0.4142135623725748
 10
4.857012064410099
 20
4.26e-14
 10
5.229104307747917
 20
7.11e-14
 42
0.414213562372887
 10
5.269104307747937
 20
0.0400000000000489
 10
5.269104307747937
 20
2.069896225279251
 42
0.4142135623727829
 10
5.229104307747917
 20
2.109896225279214
 10
4.857012064410099
 20
2.109896225279257
 42
0.4142135623730951
  0
CIRCLE
  5
140
330
139
100
AcDbEntity
  8
0
 62
150
100
AcDbCircle
 10
5.038624573484611
 20
2.688022092693643
 30
0.0
 40
0.3262572522985683
  0
LWPOLYLINE
  5
141
330
139
100
AcDbEntity
  8
0
 62
150
100
AcDbPolyline
 90
16
 70
1
 10
9.856494861702657
 20
2.109896225279271
 10
8.146747877723925
 20
2.109896225279271
 42
0.4142135623730951
 10
8.106747877723905
 20
2.069896225279265
 10
8.106747877723905
 20
1.887202028524328
 42
0.4142135623728868
 10
8.146747877723925
 20
1.847202028524321
 10
8.735401442810172
 20
1.847202028524279
 42
-0.4142135623727829
 10
8.775401442810193
 20
1.807202028524315
 10
8.77540144281025
 20
0.0400000000000631
 42
0.4142135623723667
 10
8.815401442810211
 20
5.68e-14
 10
9.260938812235253
 20
5.68e-14
 42
0.4142135623730951
 10
9.300938812235273
 20
0.0400000000000631
 10
9.300938812235273
 20
1.807202028524315
 42
-0.4142135623730951
 10
9.340938812235294
 20
1.847202028524321
 10
9.856494861702657
 20
1.847202028524321
 42
0.4142135623731991
 10
9.896494861702678
 20
1.887202028524328
 10
9.896494861702678
 20
2.069896225279265
 42
0.4142135623730951
  0
LWPOLYLINE
  5
142
330
139
100
AcDbEntity
  8
0
 62
150
100
AcDbPolyline
 90
18
 70
1
 10
11.68132564048701
 20
2.109896225279271
 10
10.36992157313281
 20
2.109896225279314
 42
0.4142135623731782
 10
10.21992157313283
 20
1.959896225279265
 10
10.21992157313283
 20
0.1500000000000625
 42
0.4142135623731228
 10
10.36992157313281
 20
4.26e-14
 10
11.68132564048701
 20
5.68e-14
 10
11.68132564048701
 20
0.2589201402421679
 10
10.74190831674425
 20
0.2589201402421679
 42
-0.4142135623722627
 10
10.70190831674429
 20
0.2989201402421742
 10
10.70190831674423
 20
0.9373068316139239
 42
-0.4142135623722627
 10
10.74190831674425
 20
0.9773068316138733
 10
11.66027037783598
 20
0.9773068316139301
 10
11.66027037783598
 20
1.236226971855984
 10
10.74190831674431
 20
1.236226971855984
 42
-0.4142135623728868
 10
10.70190831674429
 20
1.27622697185599
 10
10.70190831674429
 20
1.807946908099239
 42
-0.4142135623723667
 10
10.74190831674425
 20
1.847946908099245
 10
11.68132564048701
 20
1.847946908099288
  0
LWPOLYLINE
  5
143
330
139
100
AcDbEntity
  8
0
 62
150
100
AcDbPolyline
 90
22
 70
1
 10
13.02409363346945
 20
1.14261634248406
 10
13.86424909582186
 20
2.068107870273493
 42
0.6505594749546204
 10
13.84572475679991
 20
2.109896225279271
 10
13.58095258765351
 20
2.10989622527947
 42
0.2086318930553114
 10
13.47100215565288
 20
2.061930055467499
 10
12.76899291034689
 20
1.306992727773945
 42
-0.6817620796744714
 10
12.74992987866685
 20
1.314475208654428
 10
12.74992987866685
 20
2.069896225279279
 42
0.414213562372991
 10
12.70992987866683
 20
2.109896225279285
 10
12.22928385194396
 20
2.109896225279257
 42
0.414213562372887
 10
12.18928385194394
 20
2.069896225279279
 10
12.18928385194394
 20
0.0400000000000631
 42
0.4142135623727829
 10
12.22928385194396
 20
5.68e-14
 10
12.70992987866683
 20
5.68e-14
 42
0.4142135623722627
 10
12.74992987866679
 20
0.0400000000000631
 10
12.74992987866685
 20
0.8791032649097729
 42
-0.6871520075210037
 10
12.76910189253786
 20
0.8864665650728937
 10
13.52454585241773
 20
0.049591361411899
 42
0.21246501940317
 10
13.63598240520386
 20
2.132e-13
 10
13.98718337993554
 20
5.68e-14
 42
0.6563112205950516
 10
14.00543464642518
 20
0.0420848257681854
 10
13.02453054952119
 20
1.088419253245803
 42
-0.3903610326755418
  0
SPLINE
  5
144
330
139
100
AcDbEntity
  8
0
 62
150
100
AcDbSpline
 70
13
 71
3
 72
65
 73
61
 74
0
 42
1e-09
 40
0.0
 40
0.0
 40
0.0
 40
0.0
 40
1.0
 40
1.0
 40
1.0
 40
2.0
 40
2.0
 40
2.0
 40
3.0
 40
3.0
 40
3.0
 40
4.0
 40
4.0
 40
4.0
 40
5.0
 40
5.0
 40
5.0
 40
6.570796326794541
 40
6.570796326794541
 40
6.570796326794541
 40
7.570796326794541
 40
7.570796326794541
 40
7.570796326794541
 40
9.141592653589438
 40
9.141592653589438
 40
9.141592653589438
 40
10.14159265358943
 40
10.14159265358943
 40
10.14159265358943
 40
11.14159265358944
 40
11.14159265358944
 40
11.14159265358944
 40
12.14159265358944
 40
12.14159265358944
 40
12.14159265358944
 40
13.14159265358944
 40
13.14159265358944
 40
13.14159265358944
 40
14.14159265358944
 40
14.14159265358944
 40
14.14159265358944
 40
15.14159265358944
 40
15.14159265358944
 40
15.14159265358944
 40
15.92699081698777
 40
15.92699081698777
 40
15.92699081698777
 40
16.71238898038611
 40
16.71238898038611
 40
16.71238898038611
 40
17.71238898038611
 40
17.71238898038611
 40
17.71238898038611
 40
18.49778714378356
 40
18.49778714378356
 40
18.49778714378356
 40
19.28318530718101
 40
19.28318530718101
 40
19.28318530718101
 40
20.28318530718101
 40
20.28318530718101
 40
20.28318530718101
 40
20.28318530718101
 41
1.0
 41
1.0
 41
1.0
 41
1.0
 41
1.0
 41
1.0
 41
1.0
 41
1.0
 41
1.0
 41
1.0
 41
1.0
 41
1.0
 41
1.0
 41
1.0
 41
1.0
 41
1.0
 41
0.8047378541244486
 41
0.8047378541244486
 41
1.0
 41
1.0
 41
1.0
 41
1.0
 41
0.8047378541243649
 41
0.8047378541243649
 41
0.9999999999999998
 41
1.0
 41
1.0
 41
1.0
 41
1.0
 41
1.0
 41
1.0
 41
1.0
 41
1.0
 41
1.0
 41
1.0
 41
1.0
 41
1.0
 41
1.0
 41
1.0
 41
1.0
 41
1.0
 41
1.0
 41
1.0
 41
0.9492530216740778
 41
0.9492530216740778
 41
1.0
 41
0.9492530216740778
 41
0.9492530216740778
 41
1.0
 41
1.0
 41
1.0
 41
1.0
 41
0.9492530216741911
 41
0.9492530216741911
 41
1.0
 41
0.9492530216741911
 41
0.9492530216741911
 41
1.0
 41
1.0
 41
1.0
 41
1.0
 10
2.309499122038687
 20
0.8486661290207707
 30
0.0
 10
2.309499122038687
 20
0.5323902615143368
 30
0.0
 10
2.408617764141325
 20
0.3031163283540934
 30
0.0
 10
2.607153000176538
 20
0.1613905745659565
 30
0.0
 10
2.754440521457325
 20
0.053780305309374
 30
0.0
 10
2.951634974257757
 20
5.68e-14
 30
0.0
 10
3.199381920876135
 20
5.68e-14
 30
0.0
 10
3.442361638214919
 20
5.68e-14
 30
0.0
 10
3.819221044485942
 20
0.053780305309374
 30
0.0
 10
3.96874320449146
 20
0.1613905745659565
 30
0.0
 10
4.169463420613254
 20
0.3031163283540934
 30
0.0
 10
4.269773870035663
 20
0.5323902615143368
 30
0.0
 10
4.269773870035663
 20
0.8486661290252754
 30
0.0
 10
4.269773870035663
 20
1.256024226724747
 30
0.0
 10
4.269773870035663
 20
1.66253812757624
 30
0.0
 10
4.269773870035663
 20
2.069896225279265
 30
0.0
 10
4.26977387003555
 20
2.093327682784348
 30
0.0
 10
4.253205327540655
 20
2.109896225279271
 30
0.0
 10
4.229773870035586
 20
2.109896225279257
 30
0.0
 10
4.142705702051813
 20
2.109896225279285
 30
0.0
 10
4.055637534067983
 20
2.109896225279285
 30
0.0
 10
3.968569366084153
 20
2.109896225279285
 30
0.0
 10
3.945137908579084
 20
2.109896225279328
 30
0.0
 10
3.92856936608419
 20
2.093327682784348
 30
0.0
 10
3.92856936608419
 20
2.069896225279293
 30
0.0
 10
3.928569366084133
 20
1.657537052937527
 30
0.0
 10
3.928569366084133
 20
1.246022077447321
 30
0.0
 10
3.928569366084133
 20
0.8336629051055837
 30
0.0
 10
3.928569366084133
 20
0.6876168497848881
 30
0.0
 10
3.878265165457918
 20
0.570968708352467
 30
0.0
 10
3.778054033312031
 20
0.4838674567252213
 30
0.0
 10
3.677644266612816
 20
0.3987028919927127
 30
0.0
 10
3.54480740908545
 20
0.3560461216690385
 30
0.0
 10
3.37994072983659
 20
0.3560461216690385
 30
0.0
 10
3.212591118671355
 20
0.3560461216690385
 30
0.0
 10
3.078810747015722
 20
0.3987028919927127
 30
0.0
 10
2.978450638954882
 20
0.4838674567252213
 30
0.0
 10
2.880325169618828
 20
0.570968708352467
 30
0.0
 10
2.83126243495073
 20
0.6876168497848881
 30
0.0
 10
2.83126243495073
 20
0.833662905107559
 30
0.0
 10
2.83126243495073
 20
1.246022077446696
 30
0.0
 10
2.83126243495073
 20
1.657537052937229
 30
0.0
 10
2.83126243495073
 20
2.069896225279293
 30
0.0
 10
2.831262434950787
 20
2.080646669361883
 30
0.0
 10
2.8271484181098
 20
2.090578784615217
 30
0.0
 10
2.819546706198224
 20
2.098180496526779
 30
0.0
 10
2.811944994286619
 20
2.105782208438341
 30
0.0
 10
2.802012879033298
 20
2.109896225279314
 30
0.0
 10
2.791262434950681
 20
2.109896225279314
 30
0.0
 10
2.644007997313366
 20
2.109896225279285
 30
0.0
 10
2.496753559676022
 20
2.109896225279285
 30
0.0
 10
2.349499122038679
 20
2.109896225279285
 30
0.0
 10
2.33874867795609
 20
2.109896225279356
 30
0.0
 10
2.328816562702797
 20
2.105782208438341
 30
0.0
 10
2.321214850791221
 20
2.098180496526765
 30
0.0
 10
2.313613138879645
 20
2.090578784615175
 30
0.0
 10
2.309499122038715
 20
2.080646669361854
 30
0.0
 10
2.309499122038715
 20
2.069896225279279
 30
0.0
 10
2.309499122038687
 20
1.662538127575942
 30
0.0
 10
2.309499122038687
 20
1.256024226724122
 30
0.0
 10
2.309499122038687
 20
0.8486661290207707
 30
0.0
  0
ENDBLK
  5
13B
330
139
100
AcDbEntity
  8
0
100
AcDbBlockEnd
  0
ENDSEC
  0
SECTION
  2
ENTITIES
  0
INSERT
  5
2F
330
17
100
AcDbEntity
  8
0
100
AcDbBlockReference
  2
*U456
 10
59.53149100000155
 20
228.54825745022572
 30
0.0
  0
ENDSEC
  0
SECTION
  2
OBJECTS
  0
DICTIONARY
  5
A
330
0
100
AcDbDictionary
281
1
  3
ACAD_COLOR
350
B
  3
ACAD_GROUP
350
C
  3
ACAD_LAYOUT
350
D
  3
ACAD_MATERIAL
350
E
  3
ACAD_MLEADERSTYLE
350
F
  3
ACAD_MLINESTYLE
350
10
  3
ACAD_PLOTSETTINGS
350
11
  3
ACAD_PLOTSTYLENAME
350
12
  3
ACAD_SCALELIST
350
14
  3
ACAD_TABLESTYLE
350
15
  3
ACAD_VISUALSTYLE
350
16
  3
EZDXF_META
350
2D
  0
DICTIONARY
  5
B
330
A
100
AcDbDictionary
281
1
  0
DICTIONARY
  5
C
330
A
100
AcDbDictionary
281
1
  0
DICTIONARY
  5
D
330
A
100
AcDbDictionary
281
1
  3
Model
350
1A
  3
Layout1
350
1E
  0
DICTIONARY
  5
E
330
A
100
AcDbDictionary
281
1
  3
ByBlock
350
1F
  3
ByLayer
350
20
  3
Global
350
21
  0
DICTIONARY
  5
F
330
A
100
AcDbDictionary
281
1
  3
Standard
350
2C
  0
DICTIONARY
  5
10
330
A
100
AcDbDictionary
281
1
  3
Standard
350
22
  0
DICTIONARY
  5
11
330
A
100
AcDbDictionary
281
1
  0
ACDBDICTIONARYWDFLT
  5
12
330
A
100
AcDbDictionary
281
1
  3
Normal
350
13
100
AcDbDictionaryWithDefault
340
13
  0
ACDBPLACEHOLDER
  5
13
330
12
  0
DICTIONARY
  5
14
330
A
100
AcDbDictionary
281
1
  0
DICTIONARY
  5
15
330
A
100
AcDbDictionary
281
1
  0
DICTIONARY
  5
16
330
A
100
AcDbDictionary
281
1
  0
LAYOUT
  5
1A
330
D
100
AcDbPlotSettings
  1

  4
A3
  6

 40
7.5
 41
20.0
 42
7.5
 43
20.0
 44
420.0
 45
297.0
 46
0.0
 47
0.0
 48
0.0
 49
0.0
140
0.0
141
0.0
142
1.0
143
1.0
 70
1024
 72
1
 73
0
 74
5
  7

 75
16
 76
0
 77
2
 78
300
147
1.0
148
0.0
149
0.0
100
AcDbLayout
  1
Model
 70
1
 71
0
 10
0.0
 20
0.0
 11
420.0
 21
297.0
 12
0.0
 22
0.0
 32
0.0
 14
1e+20
 24
1e+20
 34
1e+20
 15
-1e+20
 25
-1e+20
 35
-1e+20
146
0.0
 13
0.0
 23
0.0
 33
0.0
 16
1.0
 26
0.0
 36
0.0
 17
0.0
 27
1.0
 37
0.0
 76
1
330
17
  0
LAYOUT
  5
1E
330
D
100
AcDbPlotSettings
  1

  4
A3
  6

 40
7.5
 41
20.0
 42
7.5
 43
20.0
 44
420.0
 45
297.0
 46
0.0
 47
0.0
 48
0.0
 49
0.0
140
0.0
141
0.0
142
1.0
143
1.0
 70
0
 72
1
 73
0
 74
5
  7

 75
16
 76
0
 77
2
 78
300
147
1.0
148
0.0
149
0.0
100
AcDbLayout
  1
Layout1
 70
1
 71
1
 10
0.0
 20
0.0
 11
420.0
 21
297.0
 12
0.0
 22
0.0
 32
0.0
 14
1e+20
 24
1e+20
 34
1e+20
 15
-1e+20
 25
-1e+20
 35
-1e+20
146
0.0
 13
0.0
 23
0.0
 33
0.0
 16
1.0
 26
0.0
 36
0.0
 17
0.0
 27
1.0
 37
0.0
 76
1
330
1B
  0
MATERIAL
  5
1F
102
{ACAD_REACTORS
330
E
102
}
330
E
100
AcDbMaterial
  1
ByBlock
  2

 70
0
 40
1.0
 71
1
 41
1.0
 91
-1023410177
 42
1.0
 72
1
  3

 73
1
 74
1
 75
1
 44
0.5
 73
0
 45
1.0
 46
1.0
 77
1
  4

 78
1
 79
1
170
1
 48
1.0
171
1
  6

172
1
173
1
174
1
140
1.0
141
1.0
175
1
  7

176
1
177
1
178
1
143
1.0
179
1
  8

270
1
271
1
272
1
145
1.0
146
1.0
273
1
  9

274
1
275
1
276
1
 42
1.0
 72
1
  3

 73
1
 74
1
 75
1
 94
63
  0
MATERIAL
  5
20
102
{ACAD_REACTORS
330
E
102
}
330
E
100
AcDbMaterial
  1
ByLayer
  2

 70
0
 40
1.0
 71
1
 41
1.0
 91
-1023410177
 42
1.0
 72
1
  3

 73
1
 74
1
 75
1
 44
0.5
 73
0
 45
1.0
 46
1.0
 77
1
  4

 78
1
 79
1
170
1
 48
1.0
171
1
  6

172
1
173
1
174
1
140
1.0
141
1.0
175
1
  7

176
1
177
1
178
1
143
1.0
179
1
  8

270
1
271
1
272
1
145
1.0
146
1.0
273
1
  9

274
1
275
1
276
1
 42
1.0
 72
1
  3

 73
1
 74
1
 75
1
 94
63
  0
MATERIAL
  5
21
102
{ACAD_REACTORS
330
E
102
}
330
E
100
AcDbMaterial
  1
Global
  2

 70
0
 40
1.0
 71
1
 41
1.0
 91
-1023410177
 42
1.0
 72
1
  3

 73
1
 74
1
 75
1
 44
0.5
 73
0
 45
1.0
 46
1.0
 77
1
  4

 78
1
 79
1
170
1
 48
1.0
171
1
  6

172
1
173
1
174
1
140
1.0
141
1.0
175
1
  7

176
1
177
1
178
1
143
1.0
179
1
  8

270
1
271
1
272
1
145
1.0
146
1.0
273
1
  9

274
1
275
1
276
1
 42
1.0
 72
1
  3

 73
1
 74
1
 75
1
 94
63
  0
MLINESTYLE
  5
22
102
{ACAD_REACTORS
330
10
102
}
330
10
100
AcDbMlineStyle
  2
Standard
 70
0
  3

 62
256
 51
90.0
 52
90.0
 71
2
 49
0.5
 62
256
  6
BYLAYER
 49
-0.5
 62
256
  6
BYLAYER
  0
MLEADERSTYLE
  5
2C
102
{ACAD_REACTORS
330
F
102
}
330
F
100
AcDbMLeaderStyle
179
2
170
2
171
1
172
0
 90
2
 40
0.0
 41
0.0
173
1
 91
-1056964608
 92
-2
290
1
 42
2.0
291
1
 43
8.0
  3
Standard
 44
4.0
300

342
29
174
1
175
1
176
0
178
1
 93
-1056964608
 45
4.0
292
0
297
0
 46
4.0
 94
-1056964608
 47
1.0
 49
1.0
140
1.0
294
1
141
0.0
177
0
142
1.0
295
0
296
0
143
3.75
271
0
272
9
273
9
  0
DICTIONARY
  5
2D
330
A
100
AcDbDictionary
280
1
281
1
  3
CREATED_BY_EZDXF
350
2E
  3
WRITTEN_BY_EZDXF
350
149
  0
DICTIONARYVAR
  5
2E
330
2D
100
DictionaryVariables
280
0
  1
1.4.4 @ 2026-09-23T14:03:44.035621+00:00
  0
DICTIONARYVAR
  5
149
330
2D
100
DictionaryVariables
280
0
  1
1.4.4 @ 2026-09-23T14:03:44.341688+00:00
  0
ENDSEC
  0
EOF
