  0
SECTION
  2
HEADER
  9
$ACADVER
  1
AC1032
  9
$ACADMAINTVER
 90
4
  9
$DWGCODEPAGE
  3
ANSI_1252
  9
$LASTSAVEDBY
  1
ezdxf
  9
$REQUIREDVERSIONS
160
0
  9
$INSBASE
 10
0.0
 20
0.0
 30
0.0
  9
$EXTMIN
 10
1e+20
 20
1e+20
 30
1e+20
  9
$EXTMAX
 10
-1e+20
 20
-1e+20
 30
-1e+20
  9
$LIMMIN
 10
0.0
 20
0.0
  9
$LIMMAX
 10
420.0
 20
297.0
  9
$ORTHOMODE
 70
0
  9
$REGENMODE
 70
1
  9
$FILLMODE
 70
1
  9
$QTEXTMODE
 70
0
  9
$MIRRTEXT
 70
1
  9
$LTSCALE
 40
1.0
  9
$ATTMODE
 70
1
  9
$TEXTSIZE
 40
2.5
  9
$TRACEWID
 40
1.0
  9
$TEXTSTYLE
  7
Standard
  9
$CLAYER
  8
0
  9
$CELTYPE
  6
ByLayer
  9
$CECOLOR
 62
256
  9
$CELTSCALE
 40
1.0
  9
$DISPSILH
 70
0
  9
$DIMSCALE
 40
1.0
  9
$DIMASZ
 40
2.5
  9
$DIMEXO
 40
0.625
  9
$DIMDLI
 40
3.75
  9
$DIMRND
 40
0.0
  9
$DIMDLE
 40
0.0
  9
$DIMEXE
 40
1.25
  9
$DIMTP
 40
0.0
  9
$DIMTM
 40
0.0
  9
$DIMTXT
 40
2.5
  9
$DIMCEN
 40
2.5
  9
$DIMTSZ
 40
0.0
  9
$DIMTOL
 70
0
  9
$DIMLIM
 70
0
  9
$DIMTIH
 70
0
  9
$DIMTOH
 70
0
  9
$DIMSE1
 70
0
  9
$DIMSE2
 70
0
  9
$DIMTAD
 70
1
  9
$DIMZIN
 70
8
  9
$DIMBLK
  1

  9
$DIMASO
 70
1
  9
$DIMSHO
 70
1
  9
$DIMPOST
  1

  9
$DIMAPOST
  1

  9
$DIMALT
 70
0
  9
$DIMALTD
 70
3
  9
$DIMALTF
 40
0.03937007874
  9
$DIMLFAC
 40
1.0
  9
$DIMTOFL
 70
1
  9
$DIMTVP
 40
0.0
  9
$DIMTIX
 70
0
  9
$DIMSOXD
 70
0
  9
$DIMSAH
 70
0
  9
$DIMBLK1
  1

  9
$DIMBLK2
  1

  9
$DIMSTYLE
  2
ISO-25
  9
$DIMCLRD
 70
0
  9
$DIMCLRE
 70
0
  9
$DIMCLRT
 70
0
  9
$DIMTFAC
 40
1.0
  9
$DIMGAP
 40
0.625
  9
$DIMJUST
 70
0
  9
$DIMSD1
 70
0
  9
$DIMSD2
 70
0
  9
$DIMTOLJ
 70
0
  9
$DIMTZIN
 70
8
  9
$DIMALTZ
 70
0
  9
$DIMALTTZ
 70
0
  9
$DIMUPT
 70
0
  9
$DIMDEC
 70
2
  9
$DIMTDEC
 70
2
  9
$DIMALTU
 70
2
  9
$DIMALTTD
 70
3
  9
$DIMTXSTY
  7
Standard
  9
$DIMAUNIT
 70
0
  9
$DIMADEC
 70
0
  9
$DIMALTRND
 40
0.0
  9
$DIMAZIN
 70
0
  9
$DIMDSEP
 70
44
  9
$DIMATFIT
 70
3
  9
$DIMFRAC
 70
0
  9
$DIMLDRBLK
  1

  9
$DIMLUNIT
 70
2
  9
$DIMLWD
 70
-2
  9
$DIMLWE
 70
-2
  9
$DIMTMOVE
 70
0
  9
$DIMFXL
 40
1.0
  9
$DIMFXLON
 70
0
  9
$DIMJOGANG
 40
0.785398163397
  9
$DIMTFILL
 70
0
  9
$DIMTFILLCLR
 70
0
  9
$DIMARCSYM
 70
0
  9
$DIMLTYPE
  6

  9
$DIMLTEX1
  6

  9
$DIMLTEX2
  6

  9
$DIMTXTDIRECTION
 70
0
  9
$LUNITS
 70
2
  9
$LUPREC
 70
4
  9
$SKETCHINC
 40
1.0
  9
$FILLETRAD
 40
10.0
  9
$AUNITS
 70
0
  9
$AUPREC
 70
2
  9
$MENU
  1
.
  9
$ELEVATION
 40
0.0
  9
$PELEVATION
 40
0.0
  9
$THICKNESS
 40
0.0
  9
$LIMCHECK
 70
0
  9
$CHAMFERA
 40
0.0
  9
$CHAMFERB
 40
0.0
  9
$CHAMFERC
 40
0.0
  9
$CHAMFERD
 40
0.0
  9
$SKPOLY
 70
0
  9
$TDCREATE
 40
2461307.877291667
  9
$TDUCREATE
 40
2458532.153996898
  9
$TDUPDATE
 40
2461307.877291667
  9
$TDUUPDATE
 40
2458532.1544311
  9
$TDINDWG
 40
0.0
  9
$TDUSRTIMER
 40
0.0
  9
$USRTIMER
 70
1
  9
$ANGBASE
 50
0.0
  9
$ANGDIR
 70
0
  9
$PDMODE
 70
0
  9
$PDSIZE
 40
0.0
  9
$PLINEWID
 40
0.0
  9
$SPLFRAME
 70
0
  9
$SPLINETYPE
 70
6
  9
$SPLINESEGS
 70
8
  9
$HANDSEED
  5
F8
  9
$SURFTAB1
 70
6
  9
$SURFTAB2
 70
6
  9
$SURFTYPE
 70
6
  9
$SURFU
 70
6
  9
$SURFV
 70
6
  9
$UCSBASE
  2

  9
$UCSNAME
  2

  9
$UCSORG
 10
0.0
 20
0.0
 30
0.0
  9
$UCSXDIR
 10
1.0
 20
0.0
 30
0.0
  9
$UCSYDIR
 10
0.0
 20
1.0
 30
0.0
  9
$UCSORTHOREF
  2

  9
$UCSORTHOVIEW
 70
0
  9
$UCSORGTOP
 10
0.0
 20
0.0
 30
0.0
  9
$UCSORGBOTTOM
 10
0.0
 20
0.0
 30
0.0
  9
$UCSORGLEFT
 10
0.0
 20
0.0
 30
0.0
  9
$UCSORGRIGHT
 10
0.0
 20
0.0
 30
0.0
  9
$UCSORGFRONT
 10
0.0
 20
0.0
 30
0.0
  9
$UCSORGBACK
 10
0.0
 20
0.0
 30
0.0
  9
$PUCSBASE
  2

  9
$PUCSNAME
  2

  9
$PUCSORG
 10
0.0
 20
0.0
 30
0.0
  9
$PUCSXDIR
 10
1.0
 20
0.0
 30
0.0
  9
$PUCSYDIR
 10
0.0
 20
1.0
 30
0.0
  9
$PUCSORTHOREF
  2

  9
$PUCSORTHOVIEW
 70
0
  9
$PUCSORGTOP
 10
0.0
 20
0.0
 30
0.0
  9
$PUCSORGBOTTOM
 10
0.0
 20
0.0
 30
0.0
  9
$PUCSORGLEFT
 10
0.0
 20
0.0
 30
0.0
  9
$PUCSORGRIGHT
 10
0.0
 20
0.0
 30
0.0
  9
$PUCSORGFRONT
 10
0.0
 20
0.0
 30
0.0
  9
$PUCSORGBACK
 10
0.0
 20
0.0
 30
0.0
  9
$USERI1
 70
0
  9
$USERI2
 70
0
  9
$USERI3
 70
0
  9
$USERI4
 70
0
  9
$USERI5
 70
0
  9
$USERR1
 40
0.0
  9
$USERR2
 40
0.0
  9
$USERR3
 40
0.0
  9
$USERR4
 40
0.0
  9
$USERR5
 40
0.0
  9
$WORLDVIEW
 70
1
  9
$SHADEDGE
 70
3
  9
$SHADEDIF
 70
70
  9
$TILEMODE
 70
1
  9
$MAXACTVP
 70
64
  9
$PINSBASE
 10
0.0
 20
0.0
 30
0.0
  9
$PLIMCHECK
 70
0
  9
$PEXTMIN
 10
1e+20
 20
1e+20
 30
1e+20
  9
$PEXTMAX
 10
-1e+20
 20
-1e+20
 30
-1e+20
  9
$PLIMMIN
 10
0.0
 20
0.0
  9
$PLIMMAX
 10
420.0
 20
297.0
  9
$UNITMODE
 70
0
  9
$VISRETAIN
 70
1
  9
$PLINEGEN
 70
0
  9
$PSLTSCALE
 70
1
  9
$TREEDEPTH
 70
3020
  9
$CMLSTYLE
  2
Standard
  9
$CMLJUST
 70
0
  9
$CMLSCALE
 40
20.0
  9
$PROXYGRAPHICS
 70
1
  9
$MEASUREMENT
 70
1
  9
$CELWEIGHT
370
-1
  9
$ENDCAPS
280
0
  9
$JOINSTYLE
280
0
  9
$LWDISPLAY
290
0
  9
$INSUNITS
 70
4
  9
$HYPERLINKBASE
  1

  9
$STYLESHEET
  1

  9
$XEDIT
290
1
  9
$CEPSNTYPE
380
0
  9
$PSTYLEMODE
290
1
  9
$FINGERPRINTGUID
  2
{3C269F7B-9902-4F8A-960B-EEBFFBFAA0F0}
  9
$VERSIONGUID
  2
{22B5957E-0565-4421-8EDB-180467F1B3B9}
  9
$EXTNAMES
290
1
  9
$PSVPSCALE
 40
0.0
  9
$OLESTARTUP
290
0
  9
$SORTENTS
280
127
  9
$INDEXCTL
280
0
  9
$HIDETEXT
280
1
  9
$XCLIPFRAME
280
1
  9
$HALOGAP
280
0
  9
$OBSCOLOR
 70
257
  9
$OBSLTYPE
280
0
  9
$INTERSECTIONDISPLAY
280
0
  9
$INTERSECTIONCOLOR
 70
257
  9
$DIMASSOC
280
2
  9
$PROJECTNAME
  1

  9
$CAMERADISPLAY
290
0
  9
$LENSLENGTH
 40
50.0
  9
$CAMERAHEIGHT
 40
0.0
  9
$STEPSPERSEC
 40
24.0
  9
$STEPSIZE
 40
100.0
  9
$3DDWFPREC
 40
2.0
  9
$PSOLWIDTH
 40
0.005
  9
$PSOLHEIGHT
 40
0.08
  9
$LOFTANG1
 40
1.570796326795
  9
$LOFTANG2
 40
1.570796326795
  9
$LOFTMAG1
 40
0.0
  9
$LOFTMAG2
 40
0.0
  9
$LOFTPARAM
 70
7
  9
$LOFTNORMALS
280
1
  9
$LATITUDE
 40
37.795
  9
$LONGITUDE
 40
-122.394
  9
$NORTHDIRECTION
 40
0.0
  9
$TIMEZONE
 70
-8000
  9
$LIGHTGLYPHDISPLAY
280
1
  9
$TILEMODELIGHTSYNCH
280
1
  9
$CMATERIAL
347
20
  9
$SOLIDHIST
280
0
  9
$SHOWHIST
280
1
  9
$DWFFRAME
280
2
  9
$DGNFRAME
280
2
  9
$REALWORLDSCALE
290
1
  9
$INTERFERECOLOR
 62
256
  9
$CSHADOW
280
0
  9
$SHADOWPLANELOCATION
 40
0.0
  0
ENDSEC
  0
SECTION
  2
CLASSES
  0
CLASS
  1
ACDBDICTIONARYWDFLT
  2
AcDbDictionaryWithDefault
  3
ObjectDBX Classes
 90
0
 91
0
280
0
281
0
  0
CLASS
  1
SUN
  2
AcDbSun
  3
SCENEOE
 90
1153
 91
0
280
0
281
0
  0
CLASS
  1
VISUALSTYLE
  2
AcDbVisualStyle
  3
ObjectDBX Classes
 90
4095
 91
0
280
0
281
0
  0
CLASS
  1
MATERIAL
  2
AcDbMaterial
  3
ObjectDBX Classes
 90
1153
 91
0
280
0
281
0
  0
CLASS
  1
SCALE
  2
AcDbScale
  3
ObjectDBX Classes
 90
1153
 91
0
280
0
281
0
  0
CLASS
  1
TABLESTYLE
  2
AcDbTableStyle
  3
ObjectDBX Classes
 90
4095
 91
0
280
0
281
0
  0
CLASS
  1
MLEADERSTYLE
  2
AcDbMLeaderStyle
  3
ACDB_MLEADERSTYLE_CLASS
 90
4095
 91
0
280
0
281
0
  0
CLASS
  1
DICTIONARYVAR
  2
AcDbDictionaryVar
  3
ObjectDBX Classes
 90
0
 91
0
280
0
281
0
  0
CLASS
  1
CELLSTYLEMAP
  2
AcDbCellStyleMap
  3
ObjectDBX Classes
 90
1152
 91
0
280
0
281
0
  0
CLASS
  1
MENTALRAYRENDERSETTINGS
  2
AcDbMentalRayRenderSettings
  3
SCENEOE
 90
1024
 91
0
280
0
281
0
  0
CLASS
  1
ACDBDETAILVIEWSTYLE
  2
AcDbDetailViewStyle
  3
ObjectDBX Classes
 90
1025
 91
0
280
0
281
0
  0
CLASS
  1
ACDBSECTIONVIEWSTYLE
  2
AcDbSectionViewStyle
  3
ObjectDBX Classes
 90
1025
 91
0
280
0
281
0
  0
CLASS
  1
RASTERVARIABLES
  2
AcDbRasterVariables
  3
ISM
 90
0
 91
0
280
0
281
0
  0
CLASS
  1
LAYOUT
  2
AcDbLayout
  3
ObjectDBX Classes
 90
0
 91
0
280
0
281
0
  0
CLASS
  1
ACDBPLACEHOLDER
  2
AcDbPlaceHolder
  3
ObjectDBX Classes
 90
0
 91
0
280
0
281
0
  0
ENDSEC
  0
SECTION
  2
TABLES
  0
TABLE
  2
VPORT
  5
8
330
0
100
AcDbSymbolTable
 70
1
  0
VPORT
  5
23
330
8
100
AcDbSymbolTableRecord
100
AcDbViewportTableRecord
  2
*Active
 70
0
 10
0.0
 20
0.0
 11
1.0
 21
1.0
 12
0.0
 22
0.0
 13
0.0
 23
0.0
 14
0.5
 24
0.5
 15
0.5
 25
0.5
 16
0.0
 26
0.0
 36
1.0
 17
0.0
 27
0.0
 37
0.0
 40
1000.0
 41
1.34
 42
50.0
 43
0.0
 44
0.0
 50
0.0
 51
0.0
 71
0
 72
1000
 73
1
 74
3
 75
0
 76
0
 77
0
 78
0
281
0
 65
0
146
0.0
  0
ENDTAB
  0
TABLE
  2
LTYPE
  5
2
330
0
100
AcDbSymbolTable
 70
3
  0
LTYPE
  5
24
330
2
100
AcDbSymbolTableRecord
100
AcDbLinetypeTableRecord
  2
ByBlock
 70
0
  3

 72
65
 73
0
 40
0.0
  0
LTYPE
  5
25
330
2
100
AcDbSymbolTableRecord
100
AcDbLinetypeTableRecord
  2
ByLayer
 70
0
  3

 72
65
 73
0
 40
0.0
  0
LTYPE
  5
26
330
2
100
AcDbSymbolTableRecord
100
AcDbLinetypeTableRecord
  2
Continuous
 70
0
  3

 72
65
 73
0
 40
0.0
  0
ENDTAB
  0
TABLE
  2
LAYER
  5
1
330
0
100
AcDbSymbolTable
 70
4
  0
LAYER
  5
27
330
1
100
AcDbSymbolTableRecord
100
AcDbLayerTableRecord
  2
0
 70
0
 62
7
  6
Continuous
370
-3
390
13
347
21
  0
LAYER
  5
28
330
1
100
AcDbSymbolTableRecord
100
AcDbLayerTableRecord
  2
Defpoints
 70
0
 62
7
  6
Continuous
290
0
370
-3
390
13
347
21
  0
LAYER
  5
F2
330
1
100
AcDbSymbolTableRecord
100
AcDbLayerTableRecord
  2
hw_VTP
 70
2
 62
7
  6
Continuous
370
13
390
13
347
21
  0
LAYER
  5
F3
330
1
100
AcDbSymbolTableRecord
100
AcDbLayerTableRecord
  2
1-EMC-ACESS
 70
0
 62
4
  6
Continuous
370
-3
390
13
347
21
  0
ENDTAB
  0
TABLE
  2
STYLE
  5
5
330
0
100
AcDbSymbolTable
 70
2
  0
STYLE
  5
29
330
5
100
AcDbSymbolTableRecord
100
AcDbTextStyleTableRecord
  2
Standard
 70
0
 40
0.0
 41
1.0
 50
0.0
 71
0
 42
2.5
  3
txt
  4

  0
STYLE
  5
F4
330
5
100
AcDbSymbolTableRecord
100
AcDbTextStyleTableRecord
  2
ARIAL
 70
0
 40
0.0
 41
1.0
 50
0.0
 71
0
 42
10.0
  3
arial.ttf
  4

  0
ENDTAB
  0
TABLE
  2
VIEW
  5
7
330
0
100
AcDbSymbolTable
 70
0
  0
ENDTAB
  0
TABLE
  2
UCS
  5
6
330
0
100
AcDbSymbolTable
 70
0
  0
ENDTAB
  0
TABLE
  2
APPID
  5
3
330
0
100
AcDbSymbolTable
 70
3
  0
APPID
  5
2A
330
3
100
AcDbSymbolTableRecord
100
AcDbRegAppTableRecord
  2
ACAD
 70
0
  0
APPID
  5
F5
330
3
100
AcDbSymbolTableRecord
100
AcDbRegAppTableRecord
  2
HATCHBACKGROUNDCOLOR
 70
0
  0
APPID
  5
F6
330
3
100
AcDbSymbolTableRecord
100
AcDbRegAppTableRecord
  2
EZDXF
 70
0
  0
ENDTAB
  0
TABLE
  2
DIMSTYLE
  5
4
330
0
100
AcDbSymbolTable
 70
1
100
AcDbDimStyleTable
  0
DIMSTYLE
105
2B
330
4
100
AcDbSymbolTableRecord
100
AcDbDimStyleTableRecord
  2
Standard
 70
0
 40
1.0
 41
2.5
 42
0.625
 43
3.75
 44
1.25
 45
0.0
 46
0.0
 47
0.0
 48
0.0
 49
2.5
140
2.5
141
2.5
142
0.0
143
0.03937007874
144
1.0
145
0.0
146
1.0
147
0.625
148
0.0
 69
0
 70
0
 71
0
 72
0
 73
0
 74
0
 75
0
 76
0
 77
1
 78
8
 79
3
170
0
171
3
172
1
173
0
174
0
175
0
176
0
177
0
178
0
179
2
271
2
272
2
273
2
274
3
275
0
276
0
277
2
278
44
279
0
280
0
281
0
282
0
283
0
284
8
285
0
286
0
288
0
289
3
290
0
371
-2
372
-2
  0
ENDTAB
  0
TABLE
  2
BLOCK_RECORD
  5
9
330
0
100
AcDbSymbolTable
 70
3
  0
BLOCK_RECORD
  5
17
330
9
100
AcDbSymbolTableRecord
100
AcDbBlockTableRecord
  2
*Model_Space
340
1A
 70
0
280
1
281
0
  0
BLOCK_RECORD
  5
1B
330
9
100
AcDbSymbolTableRecord
100
AcDbBlockTableRecord
  2
*Paper_Space
340
1E
 70
0
280
1
281
0
  0
BLOCK_RECORD
  5
31
330
9
100
AcDbSymbolTableRecord
100
AcDbBlockTableRecord
  2
*U391
340
0
 70
0
280
1
281
0
  0
ENDTAB
  0
ENDSEC
  0
SECTION
  2
BLOCKS
  0
BLOCK
  5
18
330
17
100
AcDbEntity
  8
0
100
AcDbBlockBegin
  2
*Model_Space
 70
0
 10
0.0
 20
0.0
 30
0.0
  3
*Model_Space
  1

  0
ENDBLK
  5
19
330
17
100
AcDbEntity
  8
0
100
AcDbBlockEnd
  0
BLOCK
  5
1C
330
1B
100
AcDbEntity
  8
0
100
AcDbBlockBegin
  2
*Paper_Space
 70
0
 10
0.0
 20
0.0
 30
0.0
  3
*Paper_Space
  1

  0
ENDBLK
  5
1D
330
1B
100
AcDbEntity
  8
0
100
AcDbBlockEnd
  0
BLOCK
  5
32
330
31
100
AcDbEntity
  8
0
100
AcDbBlockBegin
  2
*U391
 70
1
 10
0.0
 20
0.0
 30
0.0
  3
*U391
  1

  0
LINE
  5
34
330
31
100
AcDbEntity
  8
hw_VTP
100
AcDbLine
 10
15.0
 20
0.0
 30
0.0
 11
0.0
 21
0.0
 31
0.0
  0
LINE
  5
35
330
31
100
AcDbEntity
  8
hw_VTP
100
AcDbLine
 10
0.0
 20
0.0
 30
0.0
 11
0.0
 21
50.00086103378271
 31
0.0
  0
LINE
  5
36
330
31
100
AcDbEntity
  8
hw_VTP
100
AcDbLine
 10
15.0
 20
50.00086103378271
 30
0.0
 11
0.0
 21
50.00086103378271
 31
0.0
  0
LINE
  5
37
330
31
100
AcDbEntity
  8
hw_VTP
100
AcDbLine
 10
15.0
 20
0.0
 30
0.0
 11
15.0
 21
50.00086103378271
 31
0.0
  0
LINE
  5
38
330
31
100
AcDbEntity
  8
hw_VTP
100
AcDbLine
 10
2.399999999994179
 20
1.29931046198908
 30
0.0
 11
2.399999999994179
 21
50.00086103378271
 31
0.0
  0
LINE
  5
39
330
31
100
AcDbEntity
  8
hw_VTP
100
AcDbLine
 10
15.0
 20
1.29931046198908
 30
0.0
 11
2.399999999994179
 21
1.29931046198908
 31
0.0
  0
LINE
  5
3A
330
31
100
AcDbEntity
  8
hw_VTP
100
AcDbLine
 10
15.0
 20
2.498506190233456
 30
0.0
 11
2.399999999994179
 21
2.498506190233456
 31
0.0
  0
LINE
  5
3B
330
31
100
AcDbEntity
  8
hw_VTP
100
AcDbLine
 10
2.399999999994179
 20
2.000110439475974
 30
0.0
 11
0.0
 21
2.000110439475974
 31
0.0
  0
LINE
  5
3C
330
31
100
AcDbEntity
  8
hw_VTP
100
AcDbLine
 10
2.399999999994179
 20
4.6531232225243
 30
0.0
 11
0.0
 21
4.6531232225243
 31
0.0
  0
LINE
  5
3D
330
31
100
AcDbEntity
  8
hw_VTP
100
AcDbLine
 10
2.399999999994179
 20
6.146422581274237
 30
0.0
 11
0.0
 21
6.146422581274237
 31
0.0
  0
LINE
  5
3E
330
31
100
AcDbEntity
  8
hw_VTP
100
AcDbLine
 10
2.399999999994179
 20
21.89861820339138
 30
0.0
 11
0.0
 21
21.89861820339138
 31
0.0
  0
LINE
  5
3F
330
31
100
AcDbEntity
  8
hw_VTP
100
AcDbLine
 10
15.0
 20
49.4978393790152
 30
0.0
 11
2.399999999994179
 21
49.4978393790152
 31
0.0
  0
LINE
  5
40
330
31
100
AcDbEntity
  8
hw_VTP
100
AcDbLine
 10
15.0
 20
5.001365057651128
 30
0.0
 11
2.399999999994179
 21
5.001365057651128
 31
0.0
  0
LINE
  5
41
330
31
100
AcDbEntity
  8
hw_VTP
100
AcDbLine
 10
4.399999999994179
 20
5.800102757144486
 30
0.0
 11
4.399999999994179
 21
7.001475497127103
 31
0.0
  0
LINE
  5
42
330
31
100
AcDbEntity
  8
hw_VTP
100
AcDbLine
 10
4.399999999994179
 20
44.99954656450427
 30
0.0
 11
4.399999999994179
 21
46.20059572782338
 31
0.0
  0
LINE
  5
43
330
31
100
AcDbEntity
  8
hw_VTP
100
AcDbLine
 10
4.399999999994179
 20
46.20059572782338
 30
0.0
 11
2.399999999994179
 21
46.20059572782338
 31
0.0
  0
LINE
  5
44
330
31
100
AcDbEntity
  8
hw_VTP
100
AcDbLine
 10
4.399999999994179
 20
44.99954656450427
 30
0.0
 11
2.399999999994179
 21
44.99954656450427
 31
0.0
  0
LINE
  5
45
330
31
100
AcDbEntity
  8
hw_VTP
100
AcDbLine
 10
4.399999999994179
 20
7.001475497127103
 30
0.0
 11
2.399999999994179
 21
7.001475497127103
 31
0.0
  0
LINE
  5
46
330
31
100
AcDbEntity
  8
hw_VTP
100
AcDbLine
 10
4.399999999994179
 20
5.800102757144486
 30
0.0
 11
2.399999999994179
 21
5.800102757144486
 31
0.0
  0
LINE
  5
47
330
31
100
AcDbEntity
  8
hw_VTP
100
AcDbLine
 10
15.0
 20
6.498727069185406
 30
0.0
 11
4.399999999994179
 21
6.498727069185406
 31
0.0
  0
LINE
  5
48
330
31
100
AcDbEntity
  8
hw_VTP
100
AcDbLine
 10
15.0
 20
46.99933476812293
 30
0.0
 11
2.399999999994179
 21
46.99933476812293
 31
0.0
  0
LINE
  5
49
330
31
100
AcDbEntity
  8
hw_VTP
100
AcDbLine
 10
15.0
 20
45.49979483865172
 30
0.0
 11
4.399999999994179
 21
45.49979483865172
 31
0.0
  0
LINE
  5
4A
330
31
100
AcDbEntity
  8
hw_VTP
100
AcDbLine
 10
2.399999999994179
 20
30.09772736585728
 30
0.0
 11
0.0
 21
30.09772736585728
 31
0.0
  0
LINE
  5
4B
330
31
100
AcDbEntity
  8
hw_VTP
100
AcDbLine
 10
15.0
 20
22.09915480871132
 30
0.0
 11
2.399999999994179
 21
22.09915480871132
 31
0.0
  0
LINE
  5
4C
330
31
100
AcDbEntity
  8
hw_VTP
100
AcDbLine
 10
15.0
 20
29.89936867847428
 30
0.0
 11
2.399999999994179
 21
29.89936867847428
 31
0.0
  0
LINE
  5
4D
330
31
100
AcDbEntity
  8
hw_VTP
 62
4
100
AcDbLine
 10
8.10000000000582
 20
18.69817278462142
 30
0.0
 11
6.699999999997089
 21
18.69817278462142
 31
0.0
  0
LINE
  5
4E
330
31
100
AcDbEntity
  8
hw_VTP
 62
4
100
AcDbLine
 10
2.399999999994179
 20
44.69817278462142
 30
0.0
 11
2.399999999994179
 21
33.29817278462724
 31
0.0
  0
LINE
  5
4F
330
31
100
AcDbEntity
  8
hw_VTP
 62
4
100
AcDbLine
 10
8.10000000000582
 20
33.29817278462724
 30
0.0
 11
8.10000000000582
 21
29.89936867847428
 31
0.0
  0
LINE
  5
50
330
31
100
AcDbEntity
  8
hw_VTP
 62
4
100
AcDbLine
 10
8.10000000000582
 20
33.29817278461997
 30
0.0
 11
6.699999999997089
 21
33.29817278461997
 31
0.0
  0
LINE
  5
51
330
31
100
AcDbEntity
  8
hw_VTP
 62
4
100
AcDbLine
 10
14.80000000000291
 20
44.69817278462869
 30
0.0
 11
14.80000000000291
 21
7.29817278462724
 31
0.0
  0
LINE
  5
52
330
31
100
AcDbEntity
  8
hw_VTP
 62
4
100
AcDbLine
 10
8.10000000000582
 20
22.09915480871132
 30
0.0
 11
8.10000000000582
 21
18.69817278462142
 31
0.0
  0
LINE
  5
53
330
31
100
AcDbEntity
  8
hw_VTP
 62
4
100
AcDbLine
 10
14.80000000000291
 20
44.69817278462142
 30
0.0
 11
2.399999999994179
 21
44.69817278462142
 31
0.0
  0
LINE
  5
54
330
31
100
AcDbEntity
  8
hw_VTP
 62
4
100
AcDbLine
 10
14.80000000000291
 20
7.29817278462724
 30
0.0
 11
2.399999999994179
 21
7.29817278462724
 31
0.0
  0
LINE
  5
55
330
31
100
AcDbEntity
  8
hw_VTP
 62
4
100
AcDbLine
 10
6.699999999997089
 20
33.29817278462724
 30
0.0
 11
6.699999999997089
 21
32.49817278462433
 31
0.0
  0
LINE
  5
56
330
31
100
AcDbEntity
  8
hw_VTP
 62
4
100
AcDbLine
 10
6.699999999997089
 20
19.49817278462433
 30
0.0
 11
6.699999999997089
 21
18.69817278462142
 31
0.0
  0
LINE
  5
57
330
31
100
AcDbEntity
  8
hw_VTP
 62
4
100
AcDbLine
 10
4.199999999997089
 20
32.49817278462433
 30
0.0
 11
2.399999999994179
 21
33.29817278462724
 31
0.0
  0
LINE
  5
58
330
31
100
AcDbEntity
  8
hw_VTP
 62
4
100
AcDbLine
 10
4.199999999997089
 20
19.49817278462433
 30
0.0
 11
2.399999999994179
 21
18.69817278462142
 31
0.0
  0
LINE
  5
59
330
31
100
AcDbEntity
  8
hw_VTP
 62
4
100
AcDbLine
 10
6.699999999997089
 20
19.49817278462433
 30
0.0
 11
4.199999999997089
 21
19.49817278462433
 31
0.0
  0
LINE
  5
5A
330
31
100
AcDbEntity
  8
hw_VTP
 62
4
100
AcDbLine
 10
6.699999999997089
 20
32.49817278462433
 30
0.0
 11
4.199999999997089
 21
32.49817278462433
 31
0.0
  0
LINE
  5
5B
330
31
100
AcDbEntity
  8
hw_VTP
 62
4
100
AcDbLine
 10
2.399999999994179
 20
18.69817278462142
 30
0.0
 11
2.399999999994179
 21
7.29817278462724
 31
0.0
  0
CIRCLE
  5
5C
330
31
100
AcDbEntity
  8
hw_VTP
100
AcDbCircle
 10
8.60000000000582
 20
13.96051081243786
 30
0.0
 40
4.6375
  0
LINE
  5
5D
330
31
100
AcDbEntity
  8
hw_VTP
 62
0
100
AcDbLine
 10
7.28831692089443
 20
11.71191124826146
 30
0.0
 11
6.351400435829418
 21
12.64882773334102
 31
0.0
  0
LINE
  5
5E
330
31
100
AcDbEntity
  8
hw_VTP
 62
0
100
AcDbLine
 10
10.84859956416767
 20
15.27219389154197
 30
0.0
 11
9.911683079102659
 21
16.20911037661426
 31
0.0
  0
LINE
  5
5F
330
31
100
AcDbEntity
  8
hw_VTP
 62
0
100
AcDbLine
 10
10.84859956416767
 20
15.27219389154197
 30
0.0
 11
10.28644967313448
 21
14.71004400049423
 31
0.0
  0
LINE
  5
60
330
31
100
AcDbEntity
  8
hw_VTP
 62
0
100
AcDbLine
 10
9.911683079102659
 20
16.20911037661426
 30
0.0
 11
9.34953318805492
 21
15.64696048556652
 31
0.0
  0
LINE
  5
61
330
31
100
AcDbEntity
  8
hw_VTP
 62
0
100
AcDbLine
 10
11.37711566664802
 20
10.24647866071609
 30
0.0
 11
9.34953318805492
 21
12.2740611393092
 31
0.0
  0
LINE
  5
62
330
31
100
AcDbEntity
  8
hw_VTP
 62
0
100
AcDbLine
 10
12.31403215172759
 20
11.18339514578838
 30
0.0
 11
10.28644967313448
 21
13.21097762438148
 31
0.0
  0
LINE
  5
63
330
31
100
AcDbEntity
  8
hw_VTP
 62
0
100
AcDbLine
 10
6.913550326862605
 20
14.71004400049423
 30
0.0
 11
4.885967848269501
 21
16.73762647908734
 31
0.0
  0
LINE
  5
64
330
31
100
AcDbEntity
  8
hw_VTP
 62
0
100
AcDbLine
 10
7.850466811942169
 20
12.2740611393092
 30
0.0
 11
7.28831692089443
 21
11.71191124826146
 31
0.0
  0
LINE
  5
65
330
31
100
AcDbEntity
  8
hw_VTP
 62
0
100
AcDbLine
 10
7.850466811942169
 20
15.64696048556652
 30
0.0
 11
5.822884333349065
 21
17.67454296415962
 31
0.0
  0
LINE
  5
66
330
31
100
AcDbEntity
  8
hw_VTP
 62
0
100
AcDbLine
 10
6.913550326862605
 20
13.21097762438148
 30
0.0
 11
6.351400435829418
 21
12.64882773334102
 31
0.0
  0
ARC
  5
67
330
31
100
AcDbEntity
  8
hw_VTP
 62
0
100
AcDbCircle
 10
8.60000000000582
 20
11.52452795125282
 30
0.0
 40
1.06
100
AcDbArc
 50
44.99999999970522
 51
135.0000000002947
  0
ARC
  5
68
330
31
100
AcDbEntity
  8
hw_VTP
 62
0
100
AcDbCircle
 10
6.164017138813505
 20
13.96051081243786
 30
0.0
 40
1.06
100
AcDbArc
 50
315.0000000002948
 51
44.99999999970522
  0
ARC
  5
69
330
31
100
AcDbEntity
  8
hw_VTP
 62
0
100
AcDbCircle
 10
8.60000000000582
 20
16.3964936736229
 30
0.0
 40
1.06
100
AcDbArc
 50
224.9999999997053
 51
315.0000000002948
  0
ARC
  5
6A
330
31
100
AcDbEntity
  8
hw_VTP
 62
0
100
AcDbCircle
 10
11.03598286118358
 20
13.96051081243786
 30
0.0
 40
1.06
100
AcDbArc
 50
135.0000000002947
 51
224.9999999997053
  0
LINE
  5
6B
330
31
100
AcDbEntity
  8
hw_VTP
 62
0
100
AcDbLine
 10
9.395000000004075
 20
8.660510812434948
 30
0.0
 11
9.395000000004075
 21
9.391661805304466
 31
0.0
  0
LINE
  5
6C
330
31
100
AcDbEntity
  8
hw_VTP
 62
0
100
AcDbLine
 10
7.804999999993015
 20
8.660510812434948
 30
0.0
 11
7.804999999993015
 21
9.391661805304466
 31
0.0
  0
LINE
  5
6D
330
31
100
AcDbEntity
  8
hw_VTP
 62
0
100
AcDbLine
 10
13.89999999999418
 20
13.1655108124396
 30
0.0
 11
13.16884900713921
 21
13.1655108124396
 31
0.0
  0
LINE
  5
6E
330
31
100
AcDbEntity
  8
hw_VTP
 62
0
100
AcDbLine
 10
13.89999999999418
 20
14.75551081243611
 30
0.0
 11
13.16884900713921
 21
14.75551081243611
 31
0.0
  0
LINE
  5
6F
330
31
100
AcDbEntity
  8
hw_VTP
 62
0
100
AcDbLine
 10
9.395000000004075
 20
19.26051081244077
 30
0.0
 11
9.395000000004075
 21
18.52935981957125
 31
0.0
  0
LINE
  5
70
330
31
100
AcDbEntity
  8
hw_VTP
 62
0
100
AcDbLine
 10
7.804999999993015
 20
19.26051081244077
 30
0.0
 11
7.804999999993015
 21
18.52935981957125
 31
0.0
  0
LINE
  5
71
330
31
100
AcDbEntity
  8
hw_VTP
 62
0
100
AcDbLine
 10
3.30000000000291
 20
14.75551081243611
 30
0.0
 11
4.031150992872426
 21
14.75551081243611
 31
0.0
  0
LINE
  5
72
330
31
100
AcDbEntity
  8
hw_VTP
 62
0
100
AcDbLine
 10
3.30000000000291
 20
13.1655108124396
 30
0.0
 11
4.031150992872426
 21
13.1655108124396
 31
0.0
  0
LINE
  5
73
330
31
100
AcDbEntity
  8
hw_VTP
 62
0
100
AcDbLine
 10
13.89999999999418
 20
8.660510812434948
 30
0.0
 11
3.30000000000291
 21
8.660510812434948
 31
0.0
  0
LINE
  5
74
330
31
100
AcDbEntity
  8
hw_VTP
 62
0
100
AcDbLine
 10
13.89999999999418
 20
19.26051081244077
 30
0.0
 11
3.30000000000291
 21
19.26051081244077
 31
0.0
  0
LINE
  5
75
330
31
100
AcDbEntity
  8
hw_VTP
 62
0
100
AcDbLine
 10
13.89999999999418
 20
8.660510812434948
 30
0.0
 11
13.89999999999418
 21
19.26051081244077
 31
0.0
  0
LINE
  5
76
330
31
100
AcDbEntity
  8
hw_VTP
 62
0
100
AcDbLine
 10
3.30000000000291
 20
8.660510812434948
 30
0.0
 11
3.30000000000291
 21
19.26051081244077
 31
0.0
  0
LINE
  5
77
330
31
100
AcDbEntity
  8
hw_VTP
100
AcDbLine
 10
5.936209876890643
 20
8.660510812434948
 30
0.0
 11
3.30000000000291
 21
11.29672068932268
 31
0.0
  0
LINE
  5
78
330
31
100
AcDbEntity
  8
hw_VTP
100
AcDbLine
 10
13.89999999999418
 20
16.62430093555304
 30
0.0
 11
11.26379012310644
 21
19.26051081244077
 31
0.0
  0
LINE
  5
79
330
31
100
AcDbEntity
  8
hw_VTP
100
AcDbLine
 10
13.89999999999418
 20
11.29672068932268
 30
0.0
 11
11.26379012310644
 21
8.660510812434948
 31
0.0
  0
LINE
  5
7A
330
31
100
AcDbEntity
  8
hw_VTP
100
AcDbLine
 10
5.936209876890643
 20
19.26051081244077
 30
0.0
 11
3.30000000000291
 21
16.62430093555304
 31
0.0
  0
CIRCLE
  5
7B
330
31
100
AcDbEntity
  8
hw_VTP
100
AcDbCircle
 10
8.60000000000582
 20
37.95966211655468
 30
0.0
 40
4.6375
  0
LINE
  5
7C
330
31
100
AcDbEntity
  8
hw_VTP
 62
0
100
AcDbLine
 10
7.28831692089443
 20
35.71106255238556
 30
0.0
 11
6.351400435829418
 21
36.64797903745784
 31
0.0
  0
LINE
  5
7D
330
31
100
AcDbEntity
  8
hw_VTP
 62
0
100
AcDbLine
 10
10.84859956416767
 20
39.2713451956588
 30
0.0
 11
9.911683079102659
 21
40.20826168073108
 31
0.0
  0
LINE
  5
7E
330
31
100
AcDbEntity
  8
hw_VTP
 62
0
100
AcDbLine
 10
10.84859956416767
 20
39.2713451956588
 30
0.0
 11
10.28644967313448
 21
38.70919530461833
 31
0.0
  0
LINE
  5
7F
330
31
100
AcDbEntity
  8
hw_VTP
 62
0
100
AcDbLine
 10
9.911683079102659
 20
40.20826168073108
 30
0.0
 11
9.34953318805492
 21
39.64611178968335
 31
0.0
  0
LINE
  5
80
330
31
100
AcDbEntity
  8
hw_VTP
 62
0
100
AcDbLine
 10
11.37711566664802
 20
34.24562996483292
 30
0.0
 11
9.34953318805492
 21
36.27321244342602
 31
0.0
  0
LINE
  5
81
330
31
100
AcDbEntity
  8
hw_VTP
 62
0
100
AcDbLine
 10
12.31403215172759
 20
35.1825464499052
 30
0.0
 11
10.28644967313448
 21
37.21012892849831
 31
0.0
  0
LINE
  5
82
330
31
100
AcDbEntity
  8
hw_VTP
 62
0
100
AcDbLine
 10
6.913550326877157
 20
38.70919530461833
 30
0.0
 11
4.885967848269501
 21
40.73677778321143
 31
0.0
  0
LINE
  5
83
330
31
100
AcDbEntity
  8
hw_VTP
 62
0
100
AcDbLine
 10
7.850466811942169
 20
36.27321244342602
 30
0.0
 11
7.28831692089443
 21
35.71106255238556
 31
0.0
  0
LINE
  5
84
330
31
100
AcDbEntity
  8
hw_VTP
 62
0
100
AcDbLine
 10
7.850466811942169
 20
39.64611178968335
 30
0.0
 11
5.822884333349065
 21
41.67369426828372
 31
0.0
  0
LINE
  5
85
330
31
100
AcDbEntity
  8
hw_VTP
 62
0
100
AcDbLine
 10
6.913550326877157
 20
37.21012892849831
 30
0.0
 11
6.351400435829418
 21
36.64797903745784
 31
0.0
  0
ARC
  5
86
330
31
100
AcDbEntity
  8
hw_VTP
 62
0
100
AcDbCircle
 10
8.60000000000582
 20
35.52367925536965
 30
0.0
 40
1.06
100
AcDbArc
 50
44.99999999970522
 51
135.0000000002947
  0
ARC
  5
87
330
31
100
AcDbEntity
  8
hw_VTP
 62
0
100
AcDbCircle
 10
6.164017138813505
 20
37.95966211655468
 30
0.0
 40
1.06
100
AcDbArc
 50
315.0000000002948
 51
44.99999999970522
  0
ARC
  5
88
330
31
100
AcDbEntity
  8
hw_VTP
 62
0
100
AcDbCircle
 10
8.60000000000582
 20
40.395644977747
 30
0.0
 40
1.06
100
AcDbArc
 50
224.9999999997053
 51
315.0000000002948
  0
ARC
  5
89
330
31
100
AcDbEntity
  8
hw_VTP
 62
0
100
AcDbCircle
 10
11.03598286118358
 20
37.95966211655468
 30
0.0
 40
1.06
100
AcDbArc
 50
135.0000000002947
 51
224.9999999997053
  0
LINE
  5
8A
330
31
100
AcDbEntity
  8
hw_VTP
 62
0
100
AcDbLine
 10
9.395000000004075
 20
32.65966211655905
 30
0.0
 11
9.395000000004075
 21
33.39081310942129
 31
0.0
  0
LINE
  5
8B
330
31
100
AcDbEntity
  8
hw_VTP
 62
0
100
AcDbLine
 10
7.804999999993015
 20
32.65966211655905
 30
0.0
 11
7.804999999993015
 21
33.39081310942129
 31
0.0
  0
LINE
  5
8C
330
31
100
AcDbEntity
  8
hw_VTP
 62
0
100
AcDbLine
 10
13.89999999999418
 20
37.16466211655643
 30
0.0
 11
13.16884900713921
 21
37.16466211655643
 31
0.0
  0
LINE
  5
8D
330
31
100
AcDbEntity
  8
hw_VTP
 62
0
100
AcDbLine
 10
13.89999999999418
 20
38.75466211656021
 30
0.0
 11
13.16884900713921
 21
38.75466211656021
 31
0.0
  0
LINE
  5
8E
330
31
100
AcDbEntity
  8
hw_VTP
 62
0
100
AcDbLine
 10
9.395000000004075
 20
43.25966211655759
 30
0.0
 11
9.395000000004075
 21
42.52851112369535
 31
0.0
  0
LINE
  5
8F
330
31
100
AcDbEntity
  8
hw_VTP
 62
0
100
AcDbLine
 10
7.804999999993015
 20
43.25966211655759
 30
0.0
 11
7.804999999993015
 21
42.52851112369535
 31
0.0
  0
LINE
  5
90
330
31
100
AcDbEntity
  8
hw_VTP
 62
0
100
AcDbLine
 10
3.30000000000291
 20
38.75466211656021
 30
0.0
 11
4.031150992872426
 21
38.75466211656021
 31
0.0
  0
LINE
  5
91
330
31
100
AcDbEntity
  8
hw_VTP
 62
0
100
AcDbLine
 10
3.30000000000291
 20
37.16466211655643
 30
0.0
 11
4.031150992872426
 21
37.16466211655643
 31
0.0
  0
LINE
  5
92
330
31
100
AcDbEntity
  8
hw_VTP
 62
0
100
AcDbLine
 10
13.89999999999418
 20
32.65966211655905
 30
0.0
 11
3.30000000000291
 21
32.65966211655905
 31
0.0
  0
LINE
  5
93
330
31
100
AcDbEntity
  8
hw_VTP
 62
0
100
AcDbLine
 10
13.89999999999418
 20
43.25966211655759
 30
0.0
 11
3.30000000000291
 21
43.25966211655759
 31
0.0
  0
LINE
  5
94
330
31
100
AcDbEntity
  8
hw_VTP
 62
0
100
AcDbLine
 10
13.89999999999418
 20
32.65966211655905
 30
0.0
 11
13.89999999999418
 21
43.25966211655759
 31
0.0
  0
LINE
  5
95
330
31
100
AcDbEntity
  8
hw_VTP
 62
0
100
AcDbLine
 10
3.30000000000291
 20
32.65966211655905
 30
0.0
 11
3.30000000000291
 21
43.25966211655759
 31
0.0
  0
LINE
  5
96
330
31
100
AcDbEntity
  8
hw_VTP
100
AcDbLine
 10
5.936209876890643
 20
32.65966211655905
 30
0.0
 11
3.30000000000291
 21
35.29587199344678
 31
0.0
  0
LINE
  5
97
330
31
100
AcDbEntity
  8
hw_VTP
100
AcDbLine
 10
13.89999999999418
 20
40.62345223966985
 30
0.0
 11
11.26379012310644
 21
43.25966211655759
 31
0.0
  0
LINE
  5
98
330
31
100
AcDbEntity
  8
hw_VTP
100
AcDbLine
 10
13.89999999999418
 20
35.29587199344678
 30
0.0
 11
11.26379012310644
 21
32.65966211655905
 31
0.0
  0
LINE
  5
99
330
31
100
AcDbEntity
  8
hw_VTP
100
AcDbLine
 10
5.936209876890643
 20
43.25966211655759
 30
0.0
 11
3.30000000000291
 21
40.62345223966985
 31
0.0
  0
LINE
  5
9A
330
31
100
AcDbEntity
  8
0
 62
7
370
9
 60
1
100
AcDbLine
 10
3.399999999994179
 20
43.50086103378271
 30
0.0
 11
3.399999999994178
 21
39.10086103378126
 31
0.0
  0
LINE
  5
9B
330
31
100
AcDbEntity
  8
0
 62
7
370
9
 60
1
100
AcDbLine
 10
1.959600159861597
 20
39.60086103378126
 30
0.0
 11
-3.10000000000582
 21
39.60086103378126
 31
0.0
  0
LINE
  5
9C
330
31
100
AcDbEntity
  8
0
 62
7
370
9
 60
1
100
AcDbLine
 10
-2.60000000000582
 20
38.10086103378126
 30
0.0
 11
-2.60000000000582
 21
14.10086103378853
 31
0.0
  0
LINE
  5
9D
330
31
100
AcDbEntity
  8
0
 62
7
370
9
 60
1
100
AcDbLine
 10
3.399999999994179
 20
43.50086103378271
 30
0.0
 11
2.888239904073998
 21
43.50086103378271
 31
0.0
  0
LINE
  5
9E
330
31
100
AcDbEntity
  8
0
 62
7
370
9
 60
1
100
AcDbLine
 10
2.899999999994178
 20
38.60086103378126
 30
0.0
 11
-2.10000000000582
 21
38.60086103378126
 31
0.0
  0
LINE
  5
9F
330
31
100
AcDbEntity
  8
0
 62
7
370
9
 60
1
100
AcDbLine
 10
2.459200639222422
 20
40.08087701460506
 30
0.0
 11
2.588479616460972
 21
43.31285144528374
 31
0.0
  0
ARC
  5
A0
330
31
100
AcDbEntity
  8
0
 62
7
370
9
 60
1
100
AcDbCircle
 10
2.877165497832456
 20
43.18554599600333
 30
0.0
 40
0.3155094539337546
100
AcDbArc
 50
87.98850052923636
 51
156.2033555550356
  0
LINE
  5
A1
330
31
100
AcDbEntity
  8
0
 62
7
370
9
 60
1
100
AcDbLine
 10
3.399999999994179
 20
8.700861033779802
 30
0.0
 11
3.399999999994179
 21
13.10086103378853
 31
0.0
  0
LINE
  5
A2
330
31
100
AcDbEntity
  8
0
 62
7
370
9
 60
1
100
AcDbLine
 10
2.936572453470551
 20
13.59952169560849
 30
0.0
 11
-2.10000000000582
 21
13.60086103378853
 31
0.0
  0
LINE
  5
A3
330
31
100
AcDbEntity
  8
0
 62
7
370
9
 60
1
100
AcDbLine
 10
1.959600159861597
 20
12.60086103378853
 30
0.0
 11
-3.10000000000582
 21
12.60086103378853
 31
0.0
  0
LINE
  5
A4
330
31
100
AcDbEntity
  8
0
 62
7
370
9
 60
1
100
AcDbLine
 10
-2.60000000000582
 20
13.60086103378853
 30
0.0
 11
-2.60000000000582
 21
13.60086103378853
 31
0.0
  0
LINE
  5
A5
330
31
100
AcDbEntity
  8
0
 62
7
370
9
 60
1
100
AcDbLine
 10
3.399999999994179
 20
8.700861033779802
 30
0.0
 11
2.888239904073998
 21
8.700861033779802
 31
0.0
  0
LINE
  5
A6
330
31
100
AcDbEntity
  8
0
 62
7
370
9
 60
1
100
AcDbLine
 10
2.899999999994179
 20
13.60086103378853
 30
0.0
 11
2.399999999994179
 21
13.60086103378853
 31
0.0
  0
LINE
  5
A7
330
31
100
AcDbEntity
  8
0
 62
7
370
9
 60
1
100
AcDbLine
 10
2.459200639222422
 20
12.12084505296473
 30
0.0
 11
2.588479616460972
 21
8.88887062228605
 31
0.0
  0
ARC
  5
A8
330
31
100
AcDbEntity
  8
0
 62
7
370
9
 60
1
100
AcDbCircle
 10
2.875411306079241
 20
9.013379208753708
 30
0.0
 40
0.312781365515458
100
AcDbArc
 50
203.4575219294597
 51
272.3506219848547
  0
LINE
  5
A9
330
31
100
AcDbEntity
  8
0
 62
7
370
9
 60
1
100
AcDbLine
 10
-3.60000000000582
 20
39.10086103378126
 30
0.0
 11
-3.60000000000582
 21
13.10086103378853
 31
0.0
  0
LWPOLYLINE
  5
AA
330
31
100
AcDbEntity
  8
0
 62
4
370
9
 60
1
100
AcDbPolyline
 90
2
 70
0
 10
44.00000000000001
 20
30.00086103378999
 10
44.00000000000001
 20
46.69544047485397
  0
LWPOLYLINE
  5
AB
330
31
100
AcDbEntity
  8
0
 62
4
370
9
 60
1
100
AcDbPolyline
 90
3
 70
0
 10
34.00000000000001
 20
50.00086103378271
 10
0.0
 20
50.00086103378271
 10
0.0
 20
44.00086103378271
  0
LWPOLYLINE
  5
AC
330
31
100
AcDbEntity
  8
0
 62
4
370
9
 60
1
100
AcDbPolyline
 90
2
 70
0
 10
0.0
 20
36.00086103378999
 10
0.0
 20
34.00086103378271
  0
LWPOLYLINE
  5
AD
330
31
100
AcDbEntity
  8
0
 62
4
370
9
 60
1
100
AcDbPolyline
 90
2
 70
0
 10
0.0
 20
19.00086103378271
 10
0.0
 20
17.00086103378271
  0
LWPOLYLINE
  5
AE
330
31
100
AcDbEntity
  8
0
 62
4
370
9
 60
1
100
AcDbPolyline
 90
3
 70
0
 10
0.0
 20
9.300861033785623
 10
0.0
 20
0.0008610337827129
 10
6.0
 20
0.0008610337827129
  0
LWPOLYLINE
  5
AF
330
31
100
AcDbEntity
  8
0
 62
4
370
9
 60
1
100
AcDbPolyline
 90
2
 70
0
 10
44.00000000000001
 20
4.860762985132169
 10
44.00000000001456
 20
21.50086103378271
  0
LINE
  5
B0
330
31
100
AcDbEntity
  8
0
 62
4
370
9
 60
1
100
AcDbLine
 10
44.00000000000001
 20
46.64095908242598
 30
0.0
 11
43.99999999998545
 21
30.00086103378999
 31
0.0
  0
LINE
  5
B1
330
31
100
AcDbEntity
  8
0
 62
4
370
9
 60
1
100
AcDbLine
 10
44.00000000001456
 20
21.50086103378271
 30
0.0
 11
44.00000000000001
 21
4.860762985132169
 31
0.0
  0
ARC
  5
B2
330
31
100
AcDbEntity
  8
0
 62
4
370
9
 60
1
100
AcDbCircle
 10
43.5
 20
4.860762985132169
 30
0.0
 40
0.5
100
AcDbArc
 50
258.690067526143
 51
0.0
  0
ARC
  5
B3
330
31
100
AcDbEntity
  8
0
 62
4
370
9
 60
1
100
AcDbCircle
 10
43.75000000001455
 20
21.50086103378271
 30
0.0
 40
0.25
100
AcDbArc
 50
0.0
 51
90.0
  0
LINE
  5
B4
330
31
100
AcDbEntity
  8
0
 62
4
370
9
 60
1
100
AcDbLine
 10
38.00000000000001
 20
46.05086103378562
 30
0.0
 11
43.40194193243224
 21
47.13124942027206
 31
0.0
  0
ARC
  5
B5
330
31
100
AcDbEntity
  8
0
 62
4
370
9
 60
1
100
AcDbCircle
 10
43.5
 20
46.64095908242598
 30
0.0
 40
0.5
100
AcDbArc
 50
0.0
 51
101.3099324738566
  0
LINE
  5
B6
330
31
100
AcDbEntity
  8
0
 62
4
370
9
 60
1
100
AcDbLine
 10
38.00000000000001
 20
5.450861033779802
 30
0.0
 11
43.40194193243224
 21
4.370472647286079
 31
0.0
  0
LINE
  5
B7
330
31
100
AcDbEntity
  8
0
 62
4
370
9
 60
1
100
AcDbLine
 10
42.5
 20
30.75086103378271
 30
0.0
 11
42.5
 21
20.75086103378271
 31
0.0
  0
LINE
  5
B8
330
31
100
AcDbEntity
  8
0
 62
4
370
9
 60
1
100
AcDbLine
 10
42.5
 20
30.75086103378271
 30
0.0
 11
43.5
 21
30.08419436712575
 31
0.0
  0
LINE
  5
B9
330
31
100
AcDbEntity
  8
0
 62
4
370
9
 60
1
100
AcDbLine
 10
42.5
 20
20.75086103378271
 30
0.0
 11
43.50000000001456
 21
21.41752770045423
 31
0.0
  0
LINE
  5
BA
330
31
100
AcDbEntity
  8
0
 62
4
370
9
 60
1
100
AcDbLine
 10
0.0
 20
0.0008610337827129
 30
0.0
 11
0.0
 21
1.500861033782713
 31
0.0
  0
LINE
  5
BB
330
31
100
AcDbEntity
  8
0
 62
4
370
9
 60
1
100
AcDbLine
 10
6.0
 20
1.500861033782713
 30
0.0
 11
6.0
 21
0.0008610337827129
 31
0.0
  0
LINE
  5
BC
330
31
100
AcDbEntity
  8
0
 62
4
370
9
 60
1
100
AcDbLine
 10
34.00000000000001
 20
50.00086103378271
 30
0.0
 11
38.00000000000001
 21
46.05086103378562
 31
0.0
  0
LINE
  5
BD
330
31
100
AcDbEntity
  8
0
 62
4
370
9
 60
1
100
AcDbLine
 10
38.00000000000001
 20
5.450861033779802
 30
0.0
 11
34.00000000000001
 21
1.500861033782713
 31
0.0
  0
LINE
  5
BE
330
31
100
AcDbEntity
  8
0
 62
4
370
9
 60
1
100
AcDbLine
 10
43.75000000001455
 20
21.75086103378271
 30
0.0
 11
43.75000000001455
 21
21.75086103378271
 31
0.0
  0
ARC
  5
BF
330
31
100
AcDbEntity
  8
0
 62
4
370
9
 60
1
100
AcDbCircle
 10
43.75000000001455
 20
21.50086103378271
 30
0.0
 40
0.25
100
AcDbArc
 50
90.0
 51
180.0000000025013
  0
LINE
  5
C0
330
31
100
AcDbEntity
  8
0
 62
4
370
9
 60
1
100
AcDbLine
 10
43.74999999998546
 20
29.75086103378999
 30
0.0
 11
43.75
 21
29.75086103378999
 31
0.0
  0
ARC
  5
C1
330
31
100
AcDbEntity
  8
0
 62
4
370
9
 60
1
100
AcDbCircle
 10
43.75
 20
30.00086103378999
 30
0.0
 40
0.25
100
AcDbArc
 50
180.0
 51
270.0
  0
ARC
  5
C2
330
31
100
AcDbEntity
  8
0
 62
4
370
9
 60
1
100
AcDbCircle
 10
43.74999999998546
 20
30.00086103378999
 30
0.0
 40
0.25
100
AcDbArc
 50
270.0
 51
0.0
  0
LINE
  5
C3
330
31
100
AcDbEntity
  8
0
 62
4
370
9
 60
1
100
AcDbLine
 10
43.50000000001456
 20
21.50086103376816
 30
0.0
 11
43.50000000001456
 21
21.41752770045423
 31
0.0
  0
LINE
  5
C4
330
31
100
AcDbEntity
  8
0
 62
4
370
9
 60
1
100
AcDbLine
 10
43.5
 20
30.00086103378999
 30
0.0
 11
43.5
 21
30.08419436712575
 31
0.0
  0
LINE
  5
C5
330
31
100
AcDbEntity
  8
0
 62
4
370
9
 60
1
100
AcDbLine
 10
6.0
 20
1.500861033782713
 30
0.0
 11
34.00000000000001
 21
1.500861033782713
 31
0.0
  0
LINE
  5
C6
330
31
100
AcDbEntity
  8
0
 62
4
370
9
 60
1
100
AcDbLine
 10
0.0
 20
0.0008610337827129
 30
0.0
 11
0.0
 21
9.300861033785623
 31
0.0
  0
LINE
  5
C7
330
31
100
AcDbEntity
  8
0
 62
4
370
9
 60
1
100
AcDbLine
 10
1.000000000014551
 20
10.30086103378562
 30
0.0
 11
2.0
 21
10.30086103378562
 31
0.0
  0
LINE
  5
C8
330
31
100
AcDbEntity
  8
0
 62
4
370
9
 60
1
100
AcDbLine
 10
2.0
 20
10.30086103378562
 30
0.0
 11
2.0
 21
8.700861033779802
 31
0.0
  0
LINE
  5
C9
330
31
100
AcDbEntity
  8
0
 62
4
370
9
 60
1
100
AcDbLine
 10
2.0
 20
8.700861033779802
 30
0.0
 11
5.0
 21
8.700861033779802
 31
0.0
  0
LINE
  5
CA
330
31
100
AcDbEntity
  8
0
 62
4
370
9
 60
1
100
AcDbLine
 10
3.399999999994179
 20
9.900861033776891
 30
0.0
 11
6.199999999997089
 21
9.900861033776891
 31
0.0
  0
LINE
  5
CB
330
31
100
AcDbEntity
  8
0
 62
4
370
9
 60
1
100
AcDbLine
 10
5.0
 20
8.700861033779802
 30
0.0
 11
5.0
 21
3.700861033779802
 31
0.0
  0
LINE
  5
CC
330
31
100
AcDbEntity
  8
0
 62
4
370
9
 60
1
100
AcDbLine
 10
6.199999999997089
 20
9.900861033776891
 30
0.0
 11
6.199999999982537
 21
4.900861033776892
 31
0.0
  0
LINE
  5
CD
330
31
100
AcDbEntity
  8
0
 62
4
370
9
 60
1
100
AcDbLine
 10
5.0
 20
3.700861033779802
 30
0.0
 11
15.0
 21
3.700861033779802
 31
0.0
  0
LINE
  5
CE
330
31
100
AcDbEntity
  8
0
 62
4
370
9
 60
1
100
AcDbLine
 10
6.199999999982537
 20
4.900861033776892
 30
0.0
 11
15.0
 21
4.900861033776892
 31
0.0
  0
LINE
  5
CF
330
31
100
AcDbEntity
  8
0
 62
4
370
9
 60
1
100
AcDbLine
 10
0.0
 20
0.0008610337827129
 30
0.0
 11
1.45519e-11
 21
9.300861033785623
 31
0.0
  0
ARC
  5
D0
330
31
100
AcDbEntity
  8
0
 62
4
370
9
 60
1
100
AcDbCircle
 10
1.000000000014551
 20
9.300861033785623
 30
0.0
 40
1.0
100
AcDbArc
 50
90.0
 51
180.0
  0
LINE
  5
D1
330
31
100
AcDbEntity
  8
0
 62
4
370
9
 60
1
100
AcDbLine
 10
0.0
 20
17.00086103378271
 30
0.0
 11
0.0
 21
19.00086103378271
 31
0.0
  0
LINE
  5
D2
330
31
100
AcDbEntity
  8
0
 62
4
370
9
 60
1
100
AcDbLine
 10
0.0
 20
19.00086103378271
 30
0.0
 11
2.199999999997089
 21
19.00086103378271
 31
0.0
  0
LINE
  5
D3
330
31
100
AcDbEntity
  8
0
 62
4
370
9
 60
1
100
AcDbLine
 10
0.0
 20
17.00086103378271
 30
0.0
 11
2.199999999997089
 21
17.00086103378271
 31
0.0
  0
LINE
  5
D4
330
31
100
AcDbEntity
  8
0
 62
4
370
9
 60
1
100
AcDbLine
 10
3.399999999994179
 20
13.40086103377689
 30
0.0
 11
2.199999999997089
 21
17.00086103378271
 31
0.0
  0
LINE
  5
D5
330
31
100
AcDbEntity
  8
0
 62
4
370
9
 60
1
100
AcDbLine
 10
15.0
 20
3.700861033779802
 30
0.0
 11
15.0
 21
4.900861033776892
 31
0.0
  0
LINE
  5
D6
330
31
100
AcDbEntity
  8
0
 62
4
370
9
 60
1
100
AcDbLine
 10
2.199999999997089
 20
19.00086103378271
 30
0.0
 11
2.199999999997089
 21
34.00086103378271
 31
0.0
  0
LINE
  5
D7
330
31
100
AcDbEntity
  8
0
 62
4
370
9
 60
1
100
AcDbLine
 10
2.199999999997089
 20
34.00086103378271
 30
0.0
 11
0.0
 21
34.00086103378271
 31
0.0
  0
LWPOLYLINE
  5
D8
330
31
100
AcDbEntity
  8
0
 62
4
370
9
 60
1
100
AcDbPolyline
 90
2
 70
0
 10
0.0
 20
34.00086103378999
 10
0.0
 20
36.00086103378999
  0
LINE
  5
D9
330
31
100
AcDbEntity
  8
0
 62
4
370
9
 60
1
100
AcDbLine
 10
0.0
 20
36.00086103378999
 30
0.0
 11
0.0
 21
34.00086103378999
 31
0.0
  0
LINE
  5
DA
330
31
100
AcDbEntity
  8
0
 62
4
370
9
 60
1
100
AcDbLine
 10
0.0
 20
34.00086103378999
 30
0.0
 11
2.199999999997089
 21
34.00086103378999
 31
0.0
  0
LINE
  5
DB
330
31
100
AcDbEntity
  8
0
 62
4
370
9
 60
1
100
AcDbLine
 10
0.0
 20
36.00086103378999
 30
0.0
 11
2.199999999997089
 21
36.00086103378999
 31
0.0
  0
LINE
  5
DC
330
31
100
AcDbEntity
  8
0
 62
4
370
9
 60
1
100
AcDbLine
 10
3.372975243677617
 20
38.93870549467577
 30
0.0
 11
2.199999999997089
 21
36.00086103378999
 31
0.0
  0
LINE
  5
DD
330
31
100
AcDbEntity
  8
0
 62
4
370
9
 60
1
100
AcDbLine
 10
0.0
 20
50.00086103378271
 30
0.0
 11
0.0
 21
44.00086103378271
 31
0.0
  0
LINE
  5
DE
330
31
100
AcDbEntity
  8
0
 62
4
370
9
 60
1
100
AcDbLine
 10
1.60000000000582
 20
42.50086103378271
 30
0.0
 11
2.399999999994179
 21
42.50086103378271
 31
0.0
  0
LINE
  5
DF
330
31
100
AcDbEntity
  8
0
 62
4
370
9
 60
1
100
AcDbLine
 10
3.399999999994179
 20
39.60086103379581
 30
0.0
 11
3.399999999994179
 21
43.50086103378271
 31
0.0
  0
LINE
  5
E0
330
31
100
AcDbEntity
  8
0
 62
4
370
9
 60
1
100
AcDbLine
 10
3.399999999994179
 20
43.50086103378271
 30
0.0
 11
2.399999999994179
 21
43.50086103378271
 31
0.0
  0
LINE
  5
E1
330
31
100
AcDbEntity
  8
0
 62
4
370
9
 60
1
100
AcDbLine
 10
2.399999999994179
 20
43.50086103378271
 30
0.0
 11
2.399999999994179
 21
42.50086103378271
 31
0.0
  0
LINE
  5
E2
330
31
100
AcDbEntity
  8
0
 62
4
370
9
 60
1
100
AcDbLine
 10
2.399999999994179
 20
42.50086103378271
 30
0.0
 11
1.599999999991268
 21
42.50086103378271
 31
0.0
  0
LINE
  5
E3
330
31
100
AcDbEntity
  8
0
 62
4
370
9
 60
1
100
AcDbLine
 10
0.0
 20
44.00086103378271
 30
0.0
 11
1.60000000000582
 21
42.50086103378271
 31
0.0
  0
MTEXT
  5
E4
330
31
100
AcDbEntity
  8
1-EMC-ACESS
  6
ByBlock
 62
4
370
9
 60
1
100
AcDbMText
 10
28.47281872457826
 20
40.49786405397753
 30
0.0
 40
2.268
 41
34.73665961540962
 46
0.0
 71
2
 72
5
  1
{\fTimes New Roman|b0|i0|c0|p18;\C7;HYBT60\P600Vmax\P60A   \P(14mm2)                      }
  7
ARIAL
 11
-2e-16
 21
-1.0
 31
0.0
  0
CIRCLE
  5
E5
330
31
100
AcDbEntity
  8
0
 62
4
370
9
 60
1
100
AcDbCircle
 10
39.70372125775612
 20
25.78364319031243
 30
0.0
 40
1.749999999999154
  0
LWPOLYLINE
  5
E6
330
31
100
AcDbEntity
  8
0
 62
4
370
9
 60
1
100
AcDbPolyline
 90
4
 70
1
 10
13.35194102991954
 20
48.05379735111637
 10
29.89766175801925
 20
48.05379735111637
 10
29.89766175801925
 20
32.79139524627681
 10
13.35194102991954
 20
32.79139524627681
  0
LWPOLYLINE
  5
E7
330
31
100
AcDbEntity
  8
0
 62
4
370
9
 60
1
100
AcDbPolyline
 90
8
 70
1
 10
5.45859459391795
 20
12.51591749899671
 10
5.45859459391795
 20
12.51591749899671
 42
0.4142135623730951
 10
6.45859459391795
 20
13.51591749899671
 10
6.45859459391795
 20
42.00086103378271
 42
0.4142135623730951
 10
5.45859459391795
 20
43.00086103378271
 10
5.45859459391795
 20
43.00086103378271
 42
0.4142135623730951
 10
4.45859459391795
 20
42.00086103378271
 10
4.45859459391795
 20
13.51591749899671
 42
0.4142135623730951
  0
LWPOLYLINE
  5
E8
330
31
100
AcDbEntity
  8
0
 62
4
370
9
 60
1
100
AcDbPolyline
 90
6
 70
1
 10
5.45859459391795
 20
12.7159174989938
 42
0.4142135623730951
 10
6.258594593920861
 20
13.51591749899671
 10
6.258594593920861
 20
42.00086103378271
 42
0.4142135623730951
 10
5.45859459391795
 20
42.80086103378562
 42
0.4142135623730951
 10
4.65859459391504
 20
42.00086103378271
 10
4.65859459391504
 20
13.51591749899671
 42
0.4142135623730951
  0
LINE
  5
E9
330
31
100
AcDbEntity
  8
0
 62
4
370
9
 60
1
100
AcDbLine
 10
3.399999999994179
 20
13.40086103377689
 30
0.0
 11
3.399999999994179
 21
9.900861033776891
 31
0.0
  0
ARC
  5
EA
330
31
100
AcDbEntity
  8
0
 62
7
370
9
 60
1
100
AcDbCircle
 10
-2.10000000000582
 20
38.10086103378126
 30
0.0
 40
0.5
100
AcDbArc
 50
90.0
 51
180.0
  0
ARC
  5
EB
330
31
100
AcDbEntity
  8
0
 62
7
370
9
 60
1
100
AcDbCircle
 10
-3.10000000000582
 20
39.10086103378126
 30
0.0
 40
0.5
100
AcDbArc
 50
90.0
 51
180.0
  0
ARC
  5
EC
330
31
100
AcDbEntity
  8
0
 62
7
370
9
 60
1
100
AcDbCircle
 10
-2.10000000000582
 20
14.10086103378853
 30
0.0
 40
0.5
100
AcDbArc
 50
180.0
 51
270.0
  0
ARC
  5
ED
330
31
100
AcDbEntity
  8
0
 62
7
370
9
 60
1
100
AcDbCircle
 10
-3.10000000000582
 20
13.10086103378853
 30
0.0
 40
0.5
100
AcDbArc
 50
180.0
 51
270.0
  0
ARC
  5
EE
330
31
100
AcDbEntity
  8
0
 62
7
370
9
 60
1
100
AcDbCircle
 10
2.899999999994179
 20
13.10086103378853
 30
0.0
 40
0.5
100
AcDbArc
 50
0.0
 51
90.0
  0
ARC
  5
EF
330
31
100
AcDbEntity
  8
0
 62
7
370
9
 60
1
100
AcDbCircle
 10
1.959600159861597
 20
12.10086103378853
 30
0.0
 40
0.5
100
AcDbArc
 50
2.290610042840371
 51
90.0
  0
ARC
  5
F0
330
31
100
AcDbEntity
  8
0
 62
7
370
9
 60
1
100
AcDbCircle
 10
2.899999999994178
 20
39.10086103378126
 30
0.0
 40
0.5
100
AcDbArc
 50
270.0
 51
0.0
  0
ARC
  5
F1
330
31
100
AcDbEntity
  8
0
 62
7
370
9
 60
1
100
AcDbCircle
 10
1.959600159861597
 20
40.10086103378125
 30
0.0
 40
0.5
100
AcDbArc
 50
270.0
 51
357.7093899571596
  0
ENDBLK
  5
33
330
31
100
AcDbEntity
  8
0
100
AcDbBlockEnd
  0
ENDSEC
  0
SECTION
  2
ENTITIES
  0
INSERT
  5
2F
330
17
100
AcDbEntity
  8
0
100
AcDbBlockReference
  2
*U391
 10
3.6000000000058208
 20
0.0
 30
0.0
  0
ENDSEC
  0
SECTION
  2
OBJECTS
  0
DICTIONARY
  5
A
330
0
100
AcDbDictionary
281
1
  3
ACAD_COLOR
350
B
  3
ACAD_GROUP
350
C
  3
ACAD_LAYOUT
350
D
  3
ACAD_MATERIAL
350
E
  3
ACAD_MLEADERSTYLE
350
F
  3
ACAD_MLINESTYLE
350
10
  3
ACAD_PLOTSETTINGS
350
11
  3
ACAD_PLOTSTYLENAME
350
12
  3
ACAD_SCALELIST
350
14
  3
ACAD_TABLESTYLE
350
15
  3
ACAD_VISUALSTYLE
350
16
  3
EZDXF_META
350
2D
  0
DICTIONARY
  5
B
330
A
100
AcDbDictionary
281
1
  0
DICTIONARY
  5
C
330
A
100
AcDbDictionary
281
1
  0
DICTIONARY
  5
D
330
A
100
AcDbDictionary
281
1
  3
Model
350
1A
  3
Layout1
350
1E
  0
DICTIONARY
  5
E
330
A
100
AcDbDictionary
281
1
  3
ByBlock
350
1F
  3
ByLayer
350
20
  3
Global
350
21
  0
DICTIONARY
  5
F
330
A
100
AcDbDictionary
281
1
  3
Standard
350
2C
  0
DICTIONARY
  5
10
330
A
100
AcDbDictionary
281
1
  3
Standard
350
22
  0
DICTIONARY
  5
11
330
A
100
AcDbDictionary
281
1
  0
ACDBDICTIONARYWDFLT
  5
12
330
A
100
AcDbDictionary
281
1
  3
Normal
350
13
100
AcDbDictionaryWithDefault
340
13
  0
ACDBPLACEHOLDER
  5
13
330
12
  0
DICTIONARY
  5
14
330
A
100
AcDbDictionary
281
1
  0
DICTIONARY
  5
15
330
A
100
AcDbDictionary
281
1
  0
DICTIONARY
  5
16
330
A
100
AcDbDictionary
281
1
  0
LAYOUT
  5
1A
330
D
100
AcDbPlotSettings
  1

  4
A3
  6

 40
7.5
 41
20.0
 42
7.5
 43
20.0
 44
420.0
 45
297.0
 46
0.0
 47
0.0
 48
0.0
 49
0.0
140
0.0
141
0.0
142
1.0
143
1.0
 70
1024
 72
1
 73
0
 74
5
  7

 75
16
 76
0
 77
2
 78
300
147
1.0
148
0.0
149
0.0
100
AcDbLayout
  1
Model
 70
1
 71
0
 10
0.0
 20
0.0
 11
420.0
 21
297.0
 12
0.0
 22
0.0
 32
0.0
 14
1e+20
 24
1e+20
 34
1e+20
 15
-1e+20
 25
-1e+20
 35
-1e+20
146
0.0
 13
0.0
 23
0.0
 33
0.0
 16
1.0
 26
0.0
 36
0.0
 17
0.0
 27
1.0
 37
0.0
 76
1
330
17
  0
LAYOUT
  5
1E
330
D
100
AcDbPlotSettings
  1

  4
A3
  6

 40
7.5
 41
20.0
 42
7.5
 43
20.0
 44
420.0
 45
297.0
 46
0.0
 47
0.0
 48
0.0
 49
0.0
140
0.0
141
0.0
142
1.0
143
1.0
 70
0
 72
1
 73
0
 74
5
  7

 75
16
 76
0
 77
2
 78
300
147
1.0
148
0.0
149
0.0
100
AcDbLayout
  1
Layout1
 70
1
 71
1
 10
0.0
 20
0.0
 11
420.0
 21
297.0
 12
0.0
 22
0.0
 32
0.0
 14
1e+20
 24
1e+20
 34
1e+20
 15
-1e+20
 25
-1e+20
 35
-1e+20
146
0.0
 13
0.0
 23
0.0
 33
0.0
 16
1.0
 26
0.0
 36
0.0
 17
0.0
 27
1.0
 37
0.0
 76
1
330
1B
  0
MATERIAL
  5
1F
102
{ACAD_REACTORS
330
E
102
}
330
E
100
AcDbMaterial
  1
ByBlock
  2

 70
0
 40
1.0
 71
1
 41
1.0
 91
-1023410177
 42
1.0
 72
1
  3

 73
1
 74
1
 75
1
 44
0.5
 73
0
 45
1.0
 46
1.0
 77
1
  4

 78
1
 79
1
170
1
 48
1.0
171
1
  6

172
1
173
1
174
1
140
1.0
141
1.0
175
1
  7

176
1
177
1
178
1
143
1.0
179
1
  8

270
1
271
1
272
1
145
1.0
146
1.0
273
1
  9

274
1
275
1
276
1
 42
1.0
 72
1
  3

 73
1
 74
1
 75
1
 94
63
  0
MATERIAL
  5
20
102
{ACAD_REACTORS
330
E
102
}
330
E
100
AcDbMaterial
  1
ByLayer
  2

 70
0
 40
1.0
 71
1
 41
1.0
 91
-1023410177
 42
1.0
 72
1
  3

 73
1
 74
1
 75
1
 44
0.5
 73
0
 45
1.0
 46
1.0
 77
1
  4

 78
1
 79
1
170
1
 48
1.0
171
1
  6

172
1
173
1
174
1
140
1.0
141
1.0
175
1
  7

176
1
177
1
178
1
143
1.0
179
1
  8

270
1
271
1
272
1
145
1.0
146
1.0
273
1
  9

274
1
275
1
276
1
 42
1.0
 72
1
  3

 73
1
 74
1
 75
1
 94
63
  0
MATERIAL
  5
21
102
{ACAD_REACTORS
330
E
102
}
330
E
100
AcDbMaterial
  1
Global
  2

 70
0
 40
1.0
 71
1
 41
1.0
 91
-1023410177
 42
1.0
 72
1
  3

 73
1
 74
1
 75
1
 44
0.5
 73
0
 45
1.0
 46
1.0
 77
1
  4

 78
1
 79
1
170
1
 48
1.0
171
1
  6

172
1
173
1
174
1
140
1.0
141
1.0
175
1
  7

176
1
177
1
178
1
143
1.0
179
1
  8

270
1
271
1
272
1
145
1.0
146
1.0
273
1
  9

274
1
275
1
276
1
 42
1.0
 72
1
  3

 73
1
 74
1
 75
1
 94
63
  0
MLINESTYLE
  5
22
102
{ACAD_REACTORS
330
10
102
}
330
10
100
AcDbMlineStyle
  2
Standard
 70
0
  3

 62
256
 51
90.0
 52
90.0
 71
2
 49
0.5
 62
256
  6
BYLAYER
 49
-0.5
 62
256
  6
BYLAYER
  0
MLEADERSTYLE
  5
2C
102
{ACAD_REACTORS
330
F
102
}
330
F
100
AcDbMLeaderStyle
179
2
170
2
171
1
172
0
 90
2
 40
0.0
 41
0.0
173
1
 91
-1056964608
 92
-2
290
1
 42
2.0
291
1
 43
8.0
  3
Standard
 44
4.0
300

342
29
174
1
175
1
176
0
178
1
 93
-1056964608
 45
4.0
292
0
297
0
 46
4.0
 94
-1056964608
 47
1.0
 49
1.0
140
1.0
294
1
141
0.0
177
0
142
1.0
295
0
296
0
143
3.75
271
0
272
9
273
9
  0
DICTIONARY
  5
2D
330
A
100
AcDbDictionary
280
1
281
1
  3
CREATED_BY_EZDXF
350
2E
  3
WRITTEN_BY_EZDXF
350
F7
  0
DICTIONARYVAR
  5
2E
330
2D
100
DictionaryVariables
280
0
  1
1.4.4 @ 2026-09-23T14:03:18.285979+00:00
  0
DICTIONARYVAR
  5
F7
330
2D
100
DictionaryVariables
280
0
  1
1.4.4 @ 2026-09-23T14:03:18.353283+00:00
  0
ENDSEC
  0
EOF
