  0
SECTION
  2
HEADER
  9
$ACADVER
  1
AC1032
  9
$ACADMAINTVER
 90
4
  9
$DWGCODEPAGE
  3
ANSI_1252
  9
$LASTSAVEDBY
  1
ezdxf
  9
$REQUIREDVERSIONS
160
0
  9
$INSBASE
 10
0.0
 20
0.0
 30
0.0
  9
$EXTMIN
 10
1e+20
 20
1e+20
 30
1e+20
  9
$EXTMAX
 10
-1e+20
 20
-1e+20
 30
-1e+20
  9
$LIMMIN
 10
0.0
 20
0.0
  9
$LIMMAX
 10
420.0
 20
297.0
  9
$ORTHOMODE
 70
0
  9
$REGENMODE
 70
1
  9
$FILLMODE
 70
1
  9
$QTEXTMODE
 70
0
  9
$MIRRTEXT
 70
1
  9
$LTSCALE
 40
1.0
  9
$ATTMODE
 70
1
  9
$TEXTSIZE
 40
2.5
  9
$TRACEWID
 40
1.0
  9
$TEXTSTYLE
  7
Standard
  9
$CLAYER
  8
0
  9
$CELTYPE
  6
ByLayer
  9
$CECOLOR
 62
256
  9
$CELTSCALE
 40
1.0
  9
$DISPSILH
 70
0
  9
$DIMSCALE
 40
1.0
  9
$DIMASZ
 40
2.5
  9
$DIMEXO
 40
0.625
  9
$DIMDLI
 40
3.75
  9
$DIMRND
 40
0.0
  9
$DIMDLE
 40
0.0
  9
$DIMEXE
 40
1.25
  9
$DIMTP
 40
0.0
  9
$DIMTM
 40
0.0
  9
$DIMTXT
 40
2.5
  9
$DIMCEN
 40
2.5
  9
$DIMTSZ
 40
0.0
  9
$DIMTOL
 70
0
  9
$DIMLIM
 70
0
  9
$DIMTIH
 70
0
  9
$DIMTOH
 70
0
  9
$DIMSE1
 70
0
  9
$DIMSE2
 70
0
  9
$DIMTAD
 70
1
  9
$DIMZIN
 70
8
  9
$DIMBLK
  1

  9
$DIMASO
 70
1
  9
$DIMSHO
 70
1
  9
$DIMPOST
  1

  9
$DIMAPOST
  1

  9
$DIMALT
 70
0
  9
$DIMALTD
 70
3
  9
$DIMALTF
 40
0.03937007874
  9
$DIMLFAC
 40
1.0
  9
$DIMTOFL
 70
1
  9
$DIMTVP
 40
0.0
  9
$DIMTIX
 70
0
  9
$DIMSOXD
 70
0
  9
$DIMSAH
 70
0
  9
$DIMBLK1
  1

  9
$DIMBLK2
  1

  9
$DIMSTYLE
  2
ISO-25
  9
$DIMCLRD
 70
0
  9
$DIMCLRE
 70
0
  9
$DIMCLRT
 70
0
  9
$DIMTFAC
 40
1.0
  9
$DIMGAP
 40
0.625
  9
$DIMJUST
 70
0
  9
$DIMSD1
 70
0
  9
$DIMSD2
 70
0
  9
$DIMTOLJ
 70
0
  9
$DIMTZIN
 70
8
  9
$DIMALTZ
 70
0
  9
$DIMALTTZ
 70
0
  9
$DIMUPT
 70
0
  9
$DIMDEC
 70
2
  9
$DIMTDEC
 70
2
  9
$DIMALTU
 70
2
  9
$DIMALTTD
 70
3
  9
$DIMTXSTY
  7
Standard
  9
$DIMAUNIT
 70
0
  9
$DIMADEC
 70
0
  9
$DIMALTRND
 40
0.0
  9
$DIMAZIN
 70
0
  9
$DIMDSEP
 70
44
  9
$DIMATFIT
 70
3
  9
$DIMFRAC
 70
0
  9
$DIMLDRBLK
  1

  9
$DIMLUNIT
 70
2
  9
$DIMLWD
 70
-2
  9
$DIMLWE
 70
-2
  9
$DIMTMOVE
 70
0
  9
$DIMFXL
 40
1.0
  9
$DIMFXLON
 70
0
  9
$DIMJOGANG
 40
0.785398163397
  9
$DIMTFILL
 70
0
  9
$DIMTFILLCLR
 70
0
  9
$DIMARCSYM
 70
0
  9
$DIMLTYPE
  6

  9
$DIMLTEX1
  6

  9
$DIMLTEX2
  6

  9
$DIMTXTDIRECTION
 70
0
  9
$LUNITS
 70
2
  9
$LUPREC
 70
4
  9
$SKETCHINC
 40
1.0
  9
$FILLETRAD
 40
10.0
  9
$AUNITS
 70
0
  9
$AUPREC
 70
2
  9
$MENU
  1
.
  9
$ELEVATION
 40
0.0
  9
$PELEVATION
 40
0.0
  9
$THICKNESS
 40
0.0
  9
$LIMCHECK
 70
0
  9
$CHAMFERA
 40
0.0
  9
$CHAMFERB
 40
0.0
  9
$CHAMFERC
 40
0.0
  9
$CHAMFERD
 40
0.0
  9
$SKPOLY
 70
0
  9
$TDCREATE
 40
2461307.877291667
  9
$TDUCREATE
 40
2458532.153996898
  9
$TDUPDATE
 40
2461307.877291667
  9
$TDUUPDATE
 40
2458532.1544311
  9
$TDINDWG
 40
0.0
  9
$TDUSRTIMER
 40
0.0
  9
$USRTIMER
 70
1
  9
$ANGBASE
 50
0.0
  9
$ANGDIR
 70
0
  9
$PDMODE
 70
0
  9
$PDSIZE
 40
0.0
  9
$PLINEWID
 40
0.0
  9
$SPLFRAME
 70
0
  9
$SPLINETYPE
 70
6
  9
$SPLINESEGS
 70
8
  9
$HANDSEED
  5
102
  9
$SURFTAB1
 70
6
  9
$SURFTAB2
 70
6
  9
$SURFTYPE
 70
6
  9
$SURFU
 70
6
  9
$SURFV
 70
6
  9
$UCSBASE
  2

  9
$UCSNAME
  2

  9
$UCSORG
 10
0.0
 20
0.0
 30
0.0
  9
$UCSXDIR
 10
1.0
 20
0.0
 30
0.0
  9
$UCSYDIR
 10
0.0
 20
1.0
 30
0.0
  9
$UCSORTHOREF
  2

  9
$UCSORTHOVIEW
 70
0
  9
$UCSORGTOP
 10
0.0
 20
0.0
 30
0.0
  9
$UCSORGBOTTOM
 10
0.0
 20
0.0
 30
0.0
  9
$UCSORGLEFT
 10
0.0
 20
0.0
 30
0.0
  9
$UCSORGRIGHT
 10
0.0
 20
0.0
 30
0.0
  9
$UCSORGFRONT
 10
0.0
 20
0.0
 30
0.0
  9
$UCSORGBACK
 10
0.0
 20
0.0
 30
0.0
  9
$PUCSBASE
  2

  9
$PUCSNAME
  2

  9
$PUCSORG
 10
0.0
 20
0.0
 30
0.0
  9
$PUCSXDIR
 10
1.0
 20
0.0
 30
0.0
  9
$PUCSYDIR
 10
0.0
 20
1.0
 30
0.0
  9
$PUCSORTHOREF
  2

  9
$PUCSORTHOVIEW
 70
0
  9
$PUCSORGTOP
 10
0.0
 20
0.0
 30
0.0
  9
$PUCSORGBOTTOM
 10
0.0
 20
0.0
 30
0.0
  9
$PUCSORGLEFT
 10
0.0
 20
0.0
 30
0.0
  9
$PUCSORGRIGHT
 10
0.0
 20
0.0
 30
0.0
  9
$PUCSORGFRONT
 10
0.0
 20
0.0
 30
0.0
  9
$PUCSORGBACK
 10
0.0
 20
0.0
 30
0.0
  9
$USERI1
 70
0
  9
$USERI2
 70
0
  9
$USERI3
 70
0
  9
$USERI4
 70
0
  9
$USERI5
 70
0
  9
$USERR1
 40
0.0
  9
$USERR2
 40
0.0
  9
$USERR3
 40
0.0
  9
$USERR4
 40
0.0
  9
$USERR5
 40
0.0
  9
$WORLDVIEW
 70
1
  9
$SHADEDGE
 70
3
  9
$SHADEDIF
 70
70
  9
$TILEMODE
 70
1
  9
$MAXACTVP
 70
64
  9
$PINSBASE
 10
0.0
 20
0.0
 30
0.0
  9
$PLIMCHECK
 70
0
  9
$PEXTMIN
 10
1e+20
 20
1e+20
 30
1e+20
  9
$PEXTMAX
 10
-1e+20
 20
-1e+20
 30
-1e+20
  9
$PLIMMIN
 10
0.0
 20
0.0
  9
$PLIMMAX
 10
420.0
 20
297.0
  9
$UNITMODE
 70
0
  9
$VISRETAIN
 70
1
  9
$PLINEGEN
 70
0
  9
$PSLTSCALE
 70
1
  9
$TREEDEPTH
 70
3020
  9
$CMLSTYLE
  2
Standard
  9
$CMLJUST
 70
0
  9
$CMLSCALE
 40
20.0
  9
$PROXYGRAPHICS
 70
1
  9
$MEASUREMENT
 70
1
  9
$CELWEIGHT
370
-1
  9
$ENDCAPS
280
0
  9
$JOINSTYLE
280
0
  9
$LWDISPLAY
290
0
  9
$INSUNITS
 70
4
  9
$HYPERLINKBASE
  1

  9
$STYLESHEET
  1

  9
$XEDIT
290
1
  9
$CEPSNTYPE
380
0
  9
$PSTYLEMODE
290
1
  9
$FINGERPRINTGUID
  2
{ED1DE3A4-340B-495F-AB42-5760B9FF0C08}
  9
$VERSIONGUID
  2
{A1A8E0FC-6D73-489A-8705-CBA15905F62E}
  9
$EXTNAMES
290
1
  9
$PSVPSCALE
 40
0.0
  9
$OLESTARTUP
290
0
  9
$SORTENTS
280
127
  9
$INDEXCTL
280
0
  9
$HIDETEXT
280
1
  9
$XCLIPFRAME
280
1
  9
$HALOGAP
280
0
  9
$OBSCOLOR
 70
257
  9
$OBSLTYPE
280
0
  9
$INTERSECTIONDISPLAY
280
0
  9
$INTERSECTIONCOLOR
 70
257
  9
$DIMASSOC
280
2
  9
$PROJECTNAME
  1

  9
$CAMERADISPLAY
290
0
  9
$LENSLENGTH
 40
50.0
  9
$CAMERAHEIGHT
 40
0.0
  9
$STEPSPERSEC
 40
24.0
  9
$STEPSIZE
 40
100.0
  9
$3DDWFPREC
 40
2.0
  9
$PSOLWIDTH
 40
0.005
  9
$PSOLHEIGHT
 40
0.08
  9
$LOFTANG1
 40
1.570796326795
  9
$LOFTANG2
 40
1.570796326795
  9
$LOFTMAG1
 40
0.0
  9
$LOFTMAG2
 40
0.0
  9
$LOFTPARAM
 70
7
  9
$LOFTNORMALS
280
1
  9
$LATITUDE
 40
37.795
  9
$LONGITUDE
 40
-122.394
  9
$NORTHDIRECTION
 40
0.0
  9
$TIMEZONE
 70
-8000
  9
$LIGHTGLYPHDISPLAY
280
1
  9
$TILEMODELIGHTSYNCH
280
1
  9
$CMATERIAL
347
20
  9
$SOLIDHIST
280
0
  9
$SHOWHIST
280
1
  9
$DWFFRAME
280
2
  9
$DGNFRAME
280
2
  9
$REALWORLDSCALE
290
1
  9
$INTERFERECOLOR
 62
256
  9
$CSHADOW
280
0
  9
$SHADOWPLANELOCATION
 40
0.0
  0
ENDSEC
  0
SECTION
  2
CLASSES
  0
CLASS
  1
ACDBDICTIONARYWDFLT
  2
AcDbDictionaryWithDefault
  3
ObjectDBX Classes
 90
0
 91
0
280
0
281
0
  0
CLASS
  1
SUN
  2
AcDbSun
  3
SCENEOE
 90
1153
 91
0
280
0
281
0
  0
CLASS
  1
VISUALSTYLE
  2
AcDbVisualStyle
  3
ObjectDBX Classes
 90
4095
 91
0
280
0
281
0
  0
CLASS
  1
MATERIAL
  2
AcDbMaterial
  3
ObjectDBX Classes
 90
1153
 91
0
280
0
281
0
  0
CLASS
  1
SCALE
  2
AcDbScale
  3
ObjectDBX Classes
 90
1153
 91
0
280
0
281
0
  0
CLASS
  1
TABLESTYLE
  2
AcDbTableStyle
  3
ObjectDBX Classes
 90
4095
 91
0
280
0
281
0
  0
CLASS
  1
MLEADERSTYLE
  2
AcDbMLeaderStyle
  3
ACDB_MLEADERSTYLE_CLASS
 90
4095
 91
0
280
0
281
0
  0
CLASS
  1
DICTIONARYVAR
  2
AcDbDictionaryVar
  3
ObjectDBX Classes
 90
0
 91
0
280
0
281
0
  0
CLASS
  1
CELLSTYLEMAP
  2
AcDbCellStyleMap
  3
ObjectDBX Classes
 90
1152
 91
0
280
0
281
0
  0
CLASS
  1
MENTALRAYRENDERSETTINGS
  2
AcDbMentalRayRenderSettings
  3
SCENEOE
 90
1024
 91
0
280
0
281
0
  0
CLASS
  1
ACDBDETAILVIEWSTYLE
  2
AcDbDetailViewStyle
  3
ObjectDBX Classes
 90
1025
 91
0
280
0
281
0
  0
CLASS
  1
ACDBSECTIONVIEWSTYLE
  2
AcDbSectionViewStyle
  3
ObjectDBX Classes
 90
1025
 91
0
280
0
281
0
  0
CLASS
  1
RASTERVARIABLES
  2
AcDbRasterVariables
  3
ISM
 90
0
 91
0
280
0
281
0
  0
CLASS
  1
LAYOUT
  2
AcDbLayout
  3
ObjectDBX Classes
 90
0
 91
0
280
0
281
0
  0
CLASS
  1
ACDBPLACEHOLDER
  2
AcDbPlaceHolder
  3
ObjectDBX Classes
 90
0
 91
0
280
0
281
0
  0
ENDSEC
  0
SECTION
  2
TABLES
  0
TABLE
  2
VPORT
  5
8
330
0
100
AcDbSymbolTable
 70
1
  0
VPORT
  5
23
330
8
100
AcDbSymbolTableRecord
100
AcDbViewportTableRecord
  2
*Active
 70
0
 10
0.0
 20
0.0
 11
1.0
 21
1.0
 12
0.0
 22
0.0
 13
0.0
 23
0.0
 14
0.5
 24
0.5
 15
0.5
 25
0.5
 16
0.0
 26
0.0
 36
1.0
 17
0.0
 27
0.0
 37
0.0
 40
1000.0
 41
1.34
 42
50.0
 43
0.0
 44
0.0
 50
0.0
 51
0.0
 71
0
 72
1000
 73
1
 74
3
 75
0
 76
0
 77
0
 78
0
281
0
 65
0
146
0.0
  0
ENDTAB
  0
TABLE
  2
LTYPE
  5
2
330
0
100
AcDbSymbolTable
 70
3
  0
LTYPE
  5
24
330
2
100
AcDbSymbolTableRecord
100
AcDbLinetypeTableRecord
  2
ByBlock
 70
0
  3

 72
65
 73
0
 40
0.0
  0
LTYPE
  5
25
330
2
100
AcDbSymbolTableRecord
100
AcDbLinetypeTableRecord
  2
ByLayer
 70
0
  3

 72
65
 73
0
 40
0.0
  0
LTYPE
  5
26
330
2
100
AcDbSymbolTableRecord
100
AcDbLinetypeTableRecord
  2
Continuous
 70
0
  3

 72
65
 73
0
 40
0.0
  0
ENDTAB
  0
TABLE
  2
LAYER
  5
1
330
0
100
AcDbSymbolTable
 70
3
  0
LAYER
  5
27
330
1
100
AcDbSymbolTableRecord
100
AcDbLayerTableRecord
  2
0
 70
0
 62
7
  6
Continuous
370
-3
390
13
347
21
  0
LAYER
  5
28
330
1
100
AcDbSymbolTableRecord
100
AcDbLayerTableRecord
  2
Defpoints
 70
0
 62
7
  6
Continuous
290
0
370
-3
390
13
347
21
  0
LAYER
  5
FD
330
1
100
AcDbSymbolTableRecord
100
AcDbLayerTableRecord
  2
hw_VTP
 70
2
 62
7
  6
Continuous
370
13
390
13
347
21
  0
ENDTAB
  0
TABLE
  2
STYLE
  5
5
330
0
100
AcDbSymbolTable
 70
2
  0
STYLE
  5
29
330
5
100
AcDbSymbolTableRecord
100
AcDbTextStyleTableRecord
  2
Standard
 70
0
 40
0.0
 41
1.0
 50
0.0
 71
0
 42
2.5
  3
txt
  4

  0
STYLE
  5
FE
330
5
100
AcDbSymbolTableRecord
100
AcDbTextStyleTableRecord
  2
ARIAL
 70
0
 40
0.0
 41
1.0
 50
0.0
 71
0
 42
10.0
  3
arial.ttf
  4

  0
ENDTAB
  0
TABLE
  2
VIEW
  5
7
330
0
100
AcDbSymbolTable
 70
0
  0
ENDTAB
  0
TABLE
  2
UCS
  5
6
330
0
100
AcDbSymbolTable
 70
0
  0
ENDTAB
  0
TABLE
  2
APPID
  5
3
330
0
100
AcDbSymbolTable
 70
3
  0
APPID
  5
2A
330
3
100
AcDbSymbolTableRecord
100
AcDbRegAppTableRecord
  2
ACAD
 70
0
  0
APPID
  5
FF
330
3
100
AcDbSymbolTableRecord
100
AcDbRegAppTableRecord
  2
HATCHBACKGROUNDCOLOR
 70
0
  0
APPID
  5
100
330
3
100
AcDbSymbolTableRecord
100
AcDbRegAppTableRecord
  2
EZDXF
 70
0
  0
ENDTAB
  0
TABLE
  2
DIMSTYLE
  5
4
330
0
100
AcDbSymbolTable
 70
1
100
AcDbDimStyleTable
  0
DIMSTYLE
105
2B
330
4
100
AcDbSymbolTableRecord
100
AcDbDimStyleTableRecord
  2
Standard
 70
0
 40
1.0
 41
2.5
 42
0.625
 43
3.75
 44
1.25
 45
0.0
 46
0.0
 47
0.0
 48
0.0
 49
2.5
140
2.5
141
2.5
142
0.0
143
0.03937007874
144
1.0
145
0.0
146
1.0
147
0.625
148
0.0
 69
0
 70
0
 71
0
 72
0
 73
0
 74
0
 75
0
 76
0
 77
1
 78
8
 79
3
170
0
171
3
172
1
173
0
174
0
175
0
176
0
177
0
178
0
179
2
271
2
272
2
273
2
274
3
275
0
276
0
277
2
278
44
279
0
280
0
281
0
282
0
283
0
284
8
285
0
286
0
288
0
289
3
290
0
371
-2
372
-2
  0
ENDTAB
  0
TABLE
  2
BLOCK_RECORD
  5
9
330
0
100
AcDbSymbolTable
 70
3
  0
BLOCK_RECORD
  5
17
330
9
100
AcDbSymbolTableRecord
100
AcDbBlockTableRecord
  2
*Model_Space
340
1A
 70
0
280
1
281
0
  0
BLOCK_RECORD
  5
1B
330
9
100
AcDbSymbolTableRecord
100
AcDbBlockTableRecord
  2
*Paper_Space
340
1E
 70
0
280
1
281
0
  0
BLOCK_RECORD
  5
31
330
9
100
AcDbSymbolTableRecord
100
AcDbBlockTableRecord
  2
*U397
340
0
 70
0
280
1
281
0
  0
ENDTAB
  0
ENDSEC
  0
SECTION
  2
BLOCKS
  0
BLOCK
  5
18
330
17
100
AcDbEntity
  8
0
100
AcDbBlockBegin
  2
*Model_Space
 70
0
 10
0.0
 20
0.0
 30
0.0
  3
*Model_Space
  1

  0
ENDBLK
  5
19
330
17
100
AcDbEntity
  8
0
100
AcDbBlockEnd
  0
BLOCK
  5
1C
330
1B
100
AcDbEntity
  8
0
100
AcDbBlockBegin
  2
*Paper_Space
 70
0
 10
0.0
 20
0.0
 30
0.0
  3
*Paper_Space
  1

  0
ENDBLK
  5
1D
330
1B
100
AcDbEntity
  8
0
100
AcDbBlockEnd
  0
BLOCK
  5
32
330
31
100
AcDbEntity
  8
0
100
AcDbBlockBegin
  2
*U397
 70
1
 10
0.0
 20
0.0
 30
0.0
  3
*U397
  1

  0
LINE
  5
34
330
31
100
AcDbEntity
  8
hw_VTP
100
AcDbLine
 10
8.10000000000582
 20
0.0
 30
0.0
 11
8.10000000000582
 21
40.49999999999999
 31
0.0
  0
LINE
  5
35
330
31
100
AcDbEntity
  8
hw_VTP
100
AcDbLine
 10
8.10000000000582
 20
0.0
 30
0.0
 11
0.0
 21
0.0
 31
0.0
  0
LINE
  5
36
330
31
100
AcDbEntity
  8
hw_VTP
100
AcDbLine
 10
0.0
 20
0.0
 30
0.0
 11
0.0
 21
40.49999999999999
 31
0.0
  0
LINE
  5
37
330
31
100
AcDbEntity
  8
hw_VTP
100
AcDbLine
 10
1.0
 20
4.549066693325585
 30
0.0
 11
0.0
 21
4.549066693325585
 31
0.0
  0
LINE
  5
38
330
31
100
AcDbEntity
  8
hw_VTP
100
AcDbLine
 10
1.0
 20
6.049066693325585
 30
0.0
 11
0.0
 21
6.049066693325585
 31
0.0
  0
LINE
  5
39
330
31
100
AcDbEntity
  8
hw_VTP
100
AcDbLine
 10
2.0
 20
7.5
 30
0.0
 11
0.0
 21
7.5
 31
0.0
  0
LINE
  5
3A
330
31
100
AcDbEntity
  8
hw_VTP
100
AcDbLine
 10
1.0
 20
0.0
 30
0.0
 11
1.0
 21
18.05966422719939
 31
0.0
  0
LINE
  5
3B
330
31
100
AcDbEntity
  8
hw_VTP
100
AcDbLine
 10
1.0
 20
24.8596642272023
 30
0.0
 11
1.0
 21
40.49999999999999
 31
0.0
  0
LINE
  5
3C
330
31
100
AcDbEntity
  8
hw_VTP
100
AcDbLine
 10
2.0
 20
6.299999999995634
 30
0.0
 11
2.0
 21
7.5
 31
0.0
  0
LINE
  5
3D
330
31
100
AcDbEntity
  8
hw_VTP
100
AcDbLine
 10
8.10000000000582
 20
2.5
 30
0.0
 11
1.0
 21
2.5
 31
0.0
  0
LINE
  5
3E
330
31
100
AcDbEntity
  8
hw_VTP
100
AcDbLine
 10
8.10000000000582
 20
6.0
 30
0.0
 11
1.0
 21
6.0
 31
0.0
  0
LINE
  5
3F
330
31
100
AcDbEntity
  8
hw_VTP
 62
4
100
AcDbLine
 10
1.0
 20
35.40000000000146
 30
0.0
 11
7.80000000000291
 21
35.40000000000146
 31
0.0
  0
LINE
  5
40
330
31
100
AcDbEntity
  8
hw_VTP
 62
4
100
AcDbLine
 10
1.0
 20
7.599999999998544
 30
0.0
 11
7.80000000000291
 21
7.599999999998544
 31
0.0
  0
LINE
  5
41
330
31
100
AcDbEntity
  8
hw_VTP
 62
4
100
AcDbLine
 10
7.80000000000291
 20
7.599999999998544
 30
0.0
 11
7.80000000000291
 21
18.05966422719939
 31
0.0
  0
LINE
  5
42
330
31
100
AcDbEntity
  8
hw_VTP
 62
4
100
AcDbLine
 10
7.80000000000291
 20
24.8596642272023
 30
0.0
 11
7.80000000000291
 21
35.40000000000146
 31
0.0
  0
LINE
  5
43
330
31
100
AcDbEntity
  8
hw_VTP
 62
4
100
AcDbLine
 10
1.0
 20
7.599999999998544
 30
0.0
 11
1.0
 21
18.05966422719939
 31
0.0
  0
LINE
  5
44
330
31
100
AcDbEntity
  8
hw_VTP
 62
4
100
AcDbLine
 10
1.0
 20
24.8596642272023
 30
0.0
 11
1.0
 21
35.40000000000146
 31
0.0
  0
LINE
  5
45
330
31
100
AcDbEntity
  8
hw_VTP
100
AcDbLine
 10
1.0
 20
36.95093330667442
 30
0.0
 11
0.0
 21
36.95093330667442
 31
0.0
  0
LINE
  5
46
330
31
100
AcDbEntity
  8
hw_VTP
100
AcDbLine
 10
2.0
 20
35.5
 30
0.0
 11
0.0
 21
35.5
 31
0.0
  0
LINE
  5
47
330
31
100
AcDbEntity
  8
hw_VTP
100
AcDbLine
 10
2.0
 20
36.70000000000437
 30
0.0
 11
2.0
 21
35.5
 31
0.0
  0
LINE
  5
48
330
31
100
AcDbEntity
  8
hw_VTP
100
AcDbLine
 10
8.10000000000582
 20
40.49999999999999
 30
0.0
 11
1.0
 21
40.49999999999999
 31
0.0
  0
LINE
  5
49
330
31
100
AcDbEntity
  8
hw_VTP
100
AcDbLine
 10
1.0
 20
38.92287604179728
 30
0.0
 11
0.0
 21
38.92287604179728
 31
0.0
  0
LINE
  5
4A
330
31
100
AcDbEntity
  8
hw_VTP
100
AcDbLine
 10
1.0
 20
37.44385609601887
 30
0.0
 11
0.0
 21
37.44385609601887
 31
0.0
  0
LINE
  5
4B
330
31
100
AcDbEntity
  8
hw_VTP
100
AcDbLine
 10
8.10000000000582
 20
37.0
 30
0.0
 11
1.0
 21
37.0
 31
0.0
  0
LINE
  5
4C
330
31
100
AcDbEntity
  8
hw_VTP
100
AcDbLine
 10
8.10000000000582
 20
36.0
 30
0.0
 11
2.0
 21
36.0
 31
0.0
  0
LINE
  5
4D
330
31
100
AcDbEntity
  8
hw_VTP
100
AcDbLine
 10
8.10000000000582
 20
7.0
 30
0.0
 11
2.0
 21
7.0
 31
0.0
  0
LINE
  5
4E
330
31
100
AcDbEntity
  8
hw_VTP
100
AcDbLine
 10
8.10000000000582
 20
7.5
 30
0.0
 11
2.0
 21
7.5
 31
0.0
  0
LINE
  5
4F
330
31
100
AcDbEntity
  8
hw_VTP
100
AcDbLine
 10
2.0
 20
35.5
 30
0.0
 11
8.10000000000582
 21
35.5
 31
0.0
  0
LINE
  5
50
330
31
100
AcDbEntity
  8
hw_VTP
100
AcDbLine
 10
0.0
 20
40.49999999999999
 30
0.0
 11
8.10000000000582
 21
40.49999999999999
 31
0.0
  0
CIRCLE
  5
51
330
31
100
AcDbEntity
  8
hw_VTP
100
AcDbCircle
 10
4.399999999994179
 20
12.0
 30
0.0
 40
3.000000000000085
  0
LINE
  5
52
330
31
100
AcDbEntity
  8
hw_VTP
100
AcDbLine
 10
3.410050506339757
 20
10.30294372515345
 30
0.0
 11
2.702943725147633
 21
11.0100505063383
 31
0.0
  0
LINE
  5
53
330
31
100
AcDbEntity
  8
hw_VTP
100
AcDbLine
 10
6.097056274840724
 20
12.9899494936617
 30
0.0
 11
5.389949493663152
 21
13.69705627484654
 31
0.0
  0
LINE
  5
54
330
31
100
AcDbEntity
  8
hw_VTP
100
AcDbLine
 10
3.410050506339757
 20
10.30294372515345
 30
0.0
 11
4.046446609412669
 21
10.93933982821909
 31
0.0
  0
LINE
  5
55
330
31
100
AcDbEntity
  8
hw_VTP
100
AcDbLine
 10
2.702943725147633
 20
11.0100505063383
 30
0.0
 11
3.339339828220545
 21
11.64644660940393
 31
0.0
  0
LINE
  5
56
330
31
100
AcDbEntity
  8
hw_VTP
100
AcDbLine
 10
6.138096675742417
 20
9.55479654307419
 30
0.0
 11
4.753553390590241
 21
10.93933982821909
 31
0.0
  0
LINE
  5
57
330
31
100
AcDbEntity
  8
hw_VTP
100
AcDbLine
 10
6.845203456934541
 20
10.26190332425904
 30
0.0
 11
5.460660171782365
 21
11.64644660940393
 31
0.0
  0
LINE
  5
58
330
31
100
AcDbEntity
  8
hw_VTP
100
AcDbLine
 10
4.046446609412669
 20
13.06066017178091
 30
0.0
 11
2.661903324260492
 21
14.44520345692581
 31
0.0
  0
LINE
  5
59
330
31
100
AcDbEntity
  8
hw_VTP
100
AcDbLine
 10
4.753553390590241
 20
13.06066017178091
 30
0.0
 11
5.389949493663152
 21
13.69705627484654
 31
0.0
  0
LINE
  5
5A
330
31
100
AcDbEntity
  8
hw_VTP
100
AcDbLine
 10
3.339339828220545
 20
12.35355339059606
 30
0.0
 11
1.954796543068368
 21
13.73809667574096
 31
0.0
  0
LINE
  5
5B
330
31
100
AcDbEntity
  8
hw_VTP
100
AcDbLine
 10
5.460660171782365
 20
12.35355339059606
 30
0.0
 11
6.097056274840724
 21
12.9899494936617
 31
0.0
  0
ARC
  5
5C
330
31
100
AcDbEntity
  8
hw_VTP
100
AcDbCircle
 10
4.399999999994179
 20
10.58578643762303
 30
0.0
 40
0.5
100
AcDbArc
 50
44.99999999970983
 51
135.0000000002901
  0
ARC
  5
5D
330
31
100
AcDbEntity
  8
hw_VTP
100
AcDbCircle
 10
5.814213562378427
 20
12.0
 30
0.0
 40
0.5
100
AcDbArc
 50
135.0000000002901
 51
224.9999999997098
  0
ARC
  5
5E
330
31
100
AcDbEntity
  8
hw_VTP
100
AcDbCircle
 10
4.399999999994179
 20
13.41421356237697
 30
0.0
 40
0.5
100
AcDbArc
 50
224.9999999997098
 51
315.0000000002902
  0
ARC
  5
5F
330
31
100
AcDbEntity
  8
hw_VTP
100
AcDbCircle
 10
2.985786437624483
 20
12.0
 30
0.0
 40
0.5
100
AcDbArc
 50
315.0000000002902
 51
44.99999999970983
  0
LINE
  5
60
330
31
100
AcDbEntity
  8
hw_VTP
100
AcDbLine
 10
1.199999999997089
 20
8.80000000000291
 30
0.0
 11
1.199999999997089
 21
15.19999999999709
 31
0.0
  0
LINE
  5
61
330
31
100
AcDbEntity
  8
hw_VTP
100
AcDbLine
 10
1.199999999997089
 20
15.19999999999709
 30
0.0
 11
7.60000000000582
 21
15.19999999999709
 31
0.0
  0
LINE
  5
62
330
31
100
AcDbEntity
  8
hw_VTP
100
AcDbLine
 10
7.60000000000582
 20
8.80000000000291
 30
0.0
 11
7.60000000000582
 21
15.19999999999709
 31
0.0
  0
LINE
  5
63
330
31
100
AcDbEntity
  8
hw_VTP
100
AcDbLine
 10
1.199999999997089
 20
8.80000000000291
 30
0.0
 11
7.60000000000582
 21
8.80000000000291
 31
0.0
  0
LINE
  5
64
330
31
100
AcDbEntity
  8
hw_VTP
100
AcDbLine
 10
3.899999999994179
 20
8.80000000000291
 30
0.0
 11
3.899999999994179
 21
9.04196010845044
 31
0.0
  0
LINE
  5
65
330
31
100
AcDbEntity
  8
hw_VTP
100
AcDbLine
 10
4.899999999994179
 20
9.04196010845044
 30
0.0
 11
4.899999999994179
 21
8.80000000000291
 31
0.0
  0
LINE
  5
66
330
31
100
AcDbEntity
  8
hw_VTP
100
AcDbLine
 10
7.358039891551015
 20
12.5
 30
0.0
 11
7.60000000000582
 21
12.5
 31
0.0
  0
LINE
  5
67
330
31
100
AcDbEntity
  8
hw_VTP
100
AcDbLine
 10
7.60000000000582
 20
11.5
 30
0.0
 11
7.358039891551015
 21
11.5
 31
0.0
  0
LINE
  5
68
330
31
100
AcDbEntity
  8
hw_VTP
100
AcDbLine
 10
3.899999999994179
 20
14.95803989154956
 30
0.0
 11
3.899999999994179
 21
15.19999999999709
 31
0.0
  0
LINE
  5
69
330
31
100
AcDbEntity
  8
hw_VTP
100
AcDbLine
 10
4.899999999994179
 20
15.19999999999709
 30
0.0
 11
4.899999999994179
 21
14.95803989154956
 31
0.0
  0
LINE
  5
6A
330
31
100
AcDbEntity
  8
hw_VTP
100
AcDbLine
 10
1.441960108451894
 20
11.5
 30
0.0
 11
1.199999999997089
 21
11.5
 31
0.0
  0
LINE
  5
6B
330
31
100
AcDbEntity
  8
hw_VTP
100
AcDbLine
 10
1.199999999997089
 20
12.5
 30
0.0
 11
1.441960108451894
 21
12.5
 31
0.0
  0
LINE
  5
6C
330
31
100
AcDbEntity
  8
hw_VTP
100
AcDbLine
 10
1.199999999997089
 20
13.74974746830412
 30
0.0
 11
2.650252531690057
 21
15.19999999999709
 31
0.0
  0
LINE
  5
6D
330
31
100
AcDbEntity
  8
hw_VTP
100
AcDbLine
 10
2.650252531690057
 20
8.80000000000291
 30
0.0
 11
1.199999999997089
 21
10.25025253169588
 31
0.0
  0
LINE
  5
6E
330
31
100
AcDbEntity
  8
hw_VTP
100
AcDbLine
 10
7.60000000000582
 20
10.25025253169588
 30
0.0
 11
6.149747468312853
 21
8.80000000000291
 31
0.0
  0
LINE
  5
6F
330
31
100
AcDbEntity
  8
hw_VTP
100
AcDbLine
 10
6.149747468312853
 20
15.19999999999709
 30
0.0
 11
7.60000000000582
 21
13.74974746830412
 31
0.0
  0
CIRCLE
  5
70
330
31
100
AcDbEntity
  8
hw_VTP
100
AcDbCircle
 10
4.399999999994179
 20
31.0
 30
0.0
 40
3.000000000000085
  0
LINE
  5
71
330
31
100
AcDbEntity
  8
hw_VTP
100
AcDbLine
 10
3.410050506339757
 20
29.30294372515346
 30
0.0
 11
2.702943725147633
 21
30.01005050633831
 31
0.0
  0
LINE
  5
72
330
31
100
AcDbEntity
  8
hw_VTP
100
AcDbLine
 10
6.097056274855276
 20
31.9899494936617
 30
0.0
 11
5.389949493663152
 21
32.69705627484654
 31
0.0
  0
LINE
  5
73
330
31
100
AcDbEntity
  8
hw_VTP
100
AcDbLine
 10
3.410050506339757
 20
29.30294372515346
 30
0.0
 11
4.046446609412669
 21
29.93933982821909
 31
0.0
  0
LINE
  5
74
330
31
100
AcDbEntity
  8
hw_VTP
100
AcDbLine
 10
2.702943725147633
 20
30.01005050633831
 30
0.0
 11
3.339339828220545
 21
30.64644660940394
 31
0.0
  0
LINE
  5
75
330
31
100
AcDbEntity
  8
hw_VTP
100
AcDbLine
 10
6.138096675742417
 20
28.55479654307419
 30
0.0
 11
4.753553390590241
 21
29.93933982821909
 31
0.0
  0
LINE
  5
76
330
31
100
AcDbEntity
  8
hw_VTP
100
AcDbLine
 10
6.845203456934541
 20
29.26190332425904
 30
0.0
 11
5.460660171782365
 21
30.64644660940394
 31
0.0
  0
LINE
  5
77
330
31
100
AcDbEntity
  8
hw_VTP
100
AcDbLine
 10
4.046446609412669
 20
32.06066017178091
 30
0.0
 11
2.661903324260492
 21
33.44520345692581
 31
0.0
  0
LINE
  5
78
330
31
100
AcDbEntity
  8
hw_VTP
100
AcDbLine
 10
4.753553390590241
 20
32.06066017178091
 30
0.0
 11
5.389949493663152
 21
32.69705627484654
 31
0.0
  0
LINE
  5
79
330
31
100
AcDbEntity
  8
hw_VTP
100
AcDbLine
 10
3.339339828220545
 20
31.35355339059606
 30
0.0
 11
1.954796543068368
 21
32.73809667574096
 31
0.0
  0
LINE
  5
7A
330
31
100
AcDbEntity
  8
hw_VTP
100
AcDbLine
 10
5.460660171782365
 20
31.35355339059606
 30
0.0
 11
6.097056274855276
 21
31.9899494936617
 31
0.0
  0
ARC
  5
7B
330
31
100
AcDbEntity
  8
hw_VTP
100
AcDbCircle
 10
4.399999999994179
 20
29.58578643762303
 30
0.0
 40
0.5
100
AcDbArc
 50
44.99999999970983
 51
135.0000000002901
  0
ARC
  5
7C
330
31
100
AcDbEntity
  8
hw_VTP
100
AcDbCircle
 10
5.814213562378427
 20
31.0
 30
0.0
 40
0.5
100
AcDbArc
 50
135.0000000002901
 51
224.9999999997098
  0
ARC
  5
7D
330
31
100
AcDbEntity
  8
hw_VTP
100
AcDbCircle
 10
4.399999999994179
 20
32.4142135623697
 30
0.0
 40
0.5
100
AcDbArc
 50
224.9999999997098
 51
315.0000000002902
  0
ARC
  5
7E
330
31
100
AcDbEntity
  8
hw_VTP
100
AcDbCircle
 10
2.985786437624483
 20
31.0
 30
0.0
 40
0.5
100
AcDbArc
 50
315.0000000002902
 51
44.99999999970983
  0
LINE
  5
7F
330
31
100
AcDbEntity
  8
hw_VTP
100
AcDbLine
 10
1.199999999997089
 20
27.80000000000291
 30
0.0
 11
1.199999999997089
 21
34.19999999999709
 31
0.0
  0
LINE
  5
80
330
31
100
AcDbEntity
  8
hw_VTP
100
AcDbLine
 10
1.199999999997089
 20
34.19999999999709
 30
0.0
 11
7.60000000000582
 21
34.19999999999709
 31
0.0
  0
LINE
  5
81
330
31
100
AcDbEntity
  8
hw_VTP
100
AcDbLine
 10
7.60000000000582
 20
27.80000000000291
 30
0.0
 11
7.60000000000582
 21
34.19999999999709
 31
0.0
  0
LINE
  5
82
330
31
100
AcDbEntity
  8
hw_VTP
100
AcDbLine
 10
1.199999999997089
 20
27.80000000000291
 30
0.0
 11
7.60000000000582
 21
27.80000000000291
 31
0.0
  0
LINE
  5
83
330
31
100
AcDbEntity
  8
hw_VTP
100
AcDbLine
 10
3.899999999994179
 20
27.80000000000291
 30
0.0
 11
3.899999999994179
 21
28.04196010845044
 31
0.0
  0
LINE
  5
84
330
31
100
AcDbEntity
  8
hw_VTP
100
AcDbLine
 10
4.899999999994179
 20
28.04196010845044
 30
0.0
 11
4.899999999994179
 21
27.80000000000291
 31
0.0
  0
LINE
  5
85
330
31
100
AcDbEntity
  8
hw_VTP
100
AcDbLine
 10
7.358039891551015
 20
31.5
 30
0.0
 11
7.60000000000582
 21
31.5
 31
0.0
  0
LINE
  5
86
330
31
100
AcDbEntity
  8
hw_VTP
100
AcDbLine
 10
7.60000000000582
 20
30.5
 30
0.0
 11
7.358039891551015
 21
30.5
 31
0.0
  0
LINE
  5
87
330
31
100
AcDbEntity
  8
hw_VTP
100
AcDbLine
 10
3.899999999994179
 20
33.95803989154956
 30
0.0
 11
3.899999999994179
 21
34.19999999999709
 31
0.0
  0
LINE
  5
88
330
31
100
AcDbEntity
  8
hw_VTP
100
AcDbLine
 10
4.899999999994179
 20
34.19999999999709
 30
0.0
 11
4.899999999994179
 21
33.95803989154956
 31
0.0
  0
LINE
  5
89
330
31
100
AcDbEntity
  8
hw_VTP
100
AcDbLine
 10
1.441960108451894
 20
30.5
 30
0.0
 11
1.199999999997089
 21
30.5
 31
0.0
  0
LINE
  5
8A
330
31
100
AcDbEntity
  8
hw_VTP
100
AcDbLine
 10
1.199999999997089
 20
31.5
 30
0.0
 11
1.441960108451894
 21
31.5
 31
0.0
  0
LINE
  5
8B
330
31
100
AcDbEntity
  8
hw_VTP
100
AcDbLine
 10
1.199999999997089
 20
32.74974746830412
 30
0.0
 11
2.650252531690057
 21
34.19999999999709
 31
0.0
  0
LINE
  5
8C
330
31
100
AcDbEntity
  8
hw_VTP
100
AcDbLine
 10
2.650252531690057
 20
27.80000000000291
 30
0.0
 11
1.199999999997089
 21
29.25025253169588
 31
0.0
  0
LINE
  5
8D
330
31
100
AcDbEntity
  8
hw_VTP
100
AcDbLine
 10
7.60000000000582
 20
29.25025253169588
 30
0.0
 11
6.149747468312853
 21
27.80000000000291
 31
0.0
  0
LINE
  5
8E
330
31
100
AcDbEntity
  8
hw_VTP
100
AcDbLine
 10
6.149747468312853
 20
34.19999999999709
 30
0.0
 11
7.60000000000582
 21
32.74974746830412
 31
0.0
  0
LINE
  5
8F
330
31
100
AcDbEntity
  8
hw_VTP
100
AcDbLine
 10
8.10000000000582
 20
18.05966422719939
 30
0.0
 11
1.0
 21
18.05966422719939
 31
0.0
  0
LINE
  5
90
330
31
100
AcDbEntity
  8
hw_VTP
100
AcDbLine
 10
1.0
 20
17.35966422719502
 30
0.0
 11
0.0
 21
17.35966422719502
 31
0.0
  0
LINE
  5
91
330
31
100
AcDbEntity
  8
hw_VTP
100
AcDbLine
 10
8.10000000000582
 20
24.8596642272023
 30
0.0
 11
1.0
 21
24.8596642272023
 31
0.0
  0
LINE
  5
92
330
31
100
AcDbEntity
  8
hw_VTP
100
AcDbLine
 10
1.0
 20
25.55966422719939
 30
0.0
 11
0.0
 21
25.55966422719939
 31
0.0
  0
LINE
  5
93
330
31
100
AcDbEntity
  8
hw_VTP
 62
4
100
AcDbLine
 10
1.0
 20
7.599999999998544
 30
0.0
 11
1.0
 21
18.05966422719939
 31
0.0
  0
LINE
  5
94
330
31
100
AcDbEntity
  8
hw_VTP
 62
4
100
AcDbLine
 10
1.0
 20
35.31932845440315
 30
0.0
 11
1.0
 21
24.8596642272023
 31
0.0
  0
LINE
  5
95
330
31
100
AcDbEntity
  8
hw_VTP
100
AcDbLine
 10
1.0
 20
1.30000000000291
 30
0.0
 11
0.0
 21
1.30000000000291
 31
0.0
  0
LINE
  5
96
330
31
100
AcDbEntity
  8
hw_VTP
100
AcDbLine
 10
1.0
 20
2.0
 30
0.0
 11
0.0
 21
2.0
 31
0.0
  0
LINE
  5
97
330
31
100
AcDbEntity
  8
hw_VTP
100
AcDbLine
 10
2.0
 20
6.299999999995634
 30
0.0
 11
1.0
 21
6.299999999995634
 31
0.0
  0
LINE
  5
98
330
31
100
AcDbEntity
  8
hw_VTP
100
AcDbLine
 10
2.0
 20
36.70000000000437
 30
0.0
 11
1.0
 21
36.70000000000437
 31
0.0
  0
LINE
  5
99
330
31
100
AcDbEntity
  8
0
100
AcDbLine
 10
1.0
 20
24.8596642272023
 30
0.0
 11
1.0
 21
18.05966422719939
 31
0.0
  0
LWPOLYLINE
  5
9A
330
31
100
AcDbEntity
  8
0
 62
4
370
9
 60
1
100
AcDbPolyline
 90
2
 70
0
 10
29.02052682761859
 20
25.50000000000727
 10
29.02052682761859
 20
37.69457944107126
  0
LWPOLYLINE
  5
9B
330
31
100
AcDbEntity
  8
0
 62
4
370
9
 60
1
100
AcDbPolyline
 90
3
 70
0
 10
22.02052682761859
 20
40.49999999999999
 10
-2.979473172381403
 20
40.49999999999999
 10
-2.979473172381403
 20
39.5
  0
LWPOLYLINE
  5
9C
330
31
100
AcDbEntity
  8
0
 62
4
370
9
 60
1
100
AcDbPolyline
 90
2
 70
0
 10
-2.979473172381403
 20
31.50000000000727
 10
-2.979473172381403
 20
29.5
  0
LWPOLYLINE
  5
9D
330
31
100
AcDbEntity
  8
0
 62
4
370
9
 60
1
100
AcDbPolyline
 90
2
 70
0
 10
-2.979473172381403
 20
14.5
 10
-2.979473172381403
 20
12.5
  0
LWPOLYLINE
  5
9E
330
31
100
AcDbEntity
  8
0
 62
4
370
9
 60
1
100
AcDbPolyline
 90
3
 70
0
 10
-2.979473172381403
 20
4.800000000002907
 10
-2.979473172381403
 20
-0.5000000000000027
 10
3.020526827618596
 20
-0.5000000000000027
  0
LWPOLYLINE
  5
9F
330
31
100
AcDbEntity
  8
0
 62
4
370
9
 60
1
100
AcDbPolyline
 90
2
 70
0
 10
29.02052682761859
 20
3.859901951349454
 10
29.02052682763315
 20
17.0
  0
LINE
  5
A0
330
31
100
AcDbEntity
  8
0
 62
4
370
9
 60
1
100
AcDbLine
 10
29.02052682761859
 20
37.64009804864327
 30
0.0
 11
29.02052682760404
 21
25.50000000000727
 31
0.0
  0
LINE
  5
A1
330
31
100
AcDbEntity
  8
0
 62
4
370
9
 60
1
100
AcDbLine
 10
29.02052682763315
 20
17.0
 30
0.0
 11
29.02052682761859
 21
3.859901951349454
 31
0.0
  0
ARC
  5
A2
330
31
100
AcDbEntity
  8
0
 62
4
370
9
 60
1
100
AcDbCircle
 10
28.52052682761859
 20
3.859901951349454
 30
0.0
 40
0.5
100
AcDbArc
 50
258.6900675261432
 51
0.0
  0
ARC
  5
A3
330
31
100
AcDbEntity
  8
0
 62
4
370
9
 60
1
100
AcDbCircle
 10
28.77052682763315
 20
17.0
 30
0.0
 40
0.25
100
AcDbArc
 50
0.0
 51
90.0
  0
LINE
  5
A4
330
31
100
AcDbEntity
  8
0
 62
4
370
9
 60
1
100
AcDbLine
 10
24.5205268276186
 20
37.05000000000291
 30
0.0
 11
28.42246876005083
 21
38.13038838648936
 31
0.0
  0
ARC
  5
A5
330
31
100
AcDbEntity
  8
0
 62
4
370
9
 60
1
100
AcDbCircle
 10
28.52052682761859
 20
37.64009804864327
 30
0.0
 40
0.5
100
AcDbArc
 50
0.0
 51
101.3099324738568
  0
LINE
  5
A6
330
31
100
AcDbEntity
  8
0
 62
4
370
9
 60
1
100
AcDbLine
 10
24.5205268276186
 20
4.449999999997086
 30
0.0
 11
28.42246876005083
 21
3.369611613503363
 31
0.0
  0
LINE
  5
A7
330
31
100
AcDbEntity
  8
0
 62
4
370
9
 60
1
100
AcDbLine
 10
27.52052682761859
 20
26.25
 30
0.0
 11
27.52052682761859
 21
16.25
 31
0.0
  0
LINE
  5
A8
330
31
100
AcDbEntity
  8
0
 62
4
370
9
 60
1
100
AcDbLine
 10
27.52052682761859
 20
26.25
 30
0.0
 11
28.52052682761859
 21
25.58333333334303
 31
0.0
  0
LINE
  5
A9
330
31
100
AcDbEntity
  8
0
 62
4
370
9
 60
1
100
AcDbLine
 10
27.52052682761859
 20
16.25
 30
0.0
 11
28.52052682763315
 21
16.91666666667151
 31
0.0
  0
LINE
  5
AA
330
31
100
AcDbEntity
  8
0
 62
4
370
9
 60
1
100
AcDbLine
 10
-2.979473172381403
 20
-0.5000000000000027
 30
0.0
 11
-2.979473172381403
 21
0.9999999999999973
 31
0.0
  0
LINE
  5
AB
330
31
100
AcDbEntity
  8
0
 62
4
370
9
 60
1
100
AcDbLine
 10
3.020526827618596
 20
0.9999999999999973
 30
0.0
 11
3.020526827618596
 21
-0.5000000000000027
 31
0.0
  0
LINE
  5
AC
330
31
100
AcDbEntity
  8
0
 62
4
370
9
 60
1
100
AcDbLine
 10
22.02052682761859
 20
40.49999999999999
 30
0.0
 11
24.5205268276186
 21
37.05000000000291
 31
0.0
  0
LINE
  5
AD
330
31
100
AcDbEntity
  8
0
 62
4
370
9
 60
1
100
AcDbLine
 10
24.5205268276186
 20
4.449999999997086
 30
0.0
 11
20.52052682761859
 21
0.9999999999999973
 31
0.0
  0
LINE
  5
AE
330
31
100
AcDbEntity
  8
0
 62
4
370
9
 60
1
100
AcDbLine
 10
28.77052682763315
 20
17.24999999999999
 30
0.0
 11
28.77052682763315
 21
17.24999999999999
 31
0.0
  0
ARC
  5
AF
330
31
100
AcDbEntity
  8
0
 62
4
370
9
 60
1
100
AcDbCircle
 10
28.77052682763315
 20
17.0
 30
0.0
 40
0.25
100
AcDbArc
 50
90.0
 51
180.0000000025013
  0
LINE
  5
B0
330
31
100
AcDbEntity
  8
0
 62
4
370
9
 60
1
100
AcDbLine
 10
28.77052682760404
 20
25.25000000000727
 30
0.0
 11
28.77052682761859
 21
25.25000000000727
 31
0.0
  0
ARC
  5
B1
330
31
100
AcDbEntity
  8
0
 62
4
370
9
 60
1
100
AcDbCircle
 10
28.77052682761859
 20
25.50000000000727
 30
0.0
 40
0.25
100
AcDbArc
 50
180.0
 51
270.0
  0
ARC
  5
B2
330
31
100
AcDbEntity
  8
0
 62
4
370
9
 60
1
100
AcDbCircle
 10
28.77052682760404
 20
25.50000000000727
 30
0.0
 40
0.25
100
AcDbArc
 50
270.0
 51
0.0
  0
LINE
  5
B3
330
31
100
AcDbEntity
  8
0
 62
4
370
9
 60
1
100
AcDbLine
 10
28.52052682763315
 20
16.99999999998544
 30
0.0
 11
28.52052682763315
 21
16.91666666667151
 31
0.0
  0
LINE
  5
B4
330
31
100
AcDbEntity
  8
0
 62
4
370
9
 60
1
100
AcDbLine
 10
28.52052682761859
 20
25.50000000000727
 30
0.0
 11
28.52052682761859
 21
25.58333333334303
 31
0.0
  0
LINE
  5
B5
330
31
100
AcDbEntity
  8
0
 62
4
370
9
 60
1
100
AcDbLine
 10
3.020526827618596
 20
0.9999999999999973
 30
0.0
 11
20.52052682761859
 21
0.9999999999999973
 31
0.0
  0
LINE
  5
B6
330
31
100
AcDbEntity
  8
0
 62
4
370
9
 60
1
100
AcDbLine
 10
-2.979473172381403
 20
-0.5000000000000027
 30
0.0
 11
-2.979473172381403
 21
4.800000000002907
 31
0.0
  0
LINE
  5
B7
330
31
100
AcDbEntity
  8
0
 62
4
370
9
 60
1
100
AcDbLine
 10
-1.979473172366851
 20
5.800000000002907
 30
0.0
 11
-0.9794731723814037
 21
5.800000000002907
 31
0.0
  0
LINE
  5
B8
330
31
100
AcDbEntity
  8
0
 62
4
370
9
 60
1
100
AcDbLine
 10
-0.9794731723814037
 20
5.800000000002907
 30
0.0
 11
-0.9794731723814037
 21
4.199999999997086
 31
0.0
  0
LINE
  5
B9
330
31
100
AcDbEntity
  8
0
 62
4
370
9
 60
1
100
AcDbLine
 10
-0.9794731723814037
 20
4.199999999997086
 30
0.0
 11
2.020526827618596
 21
4.199999999997086
 31
0.0
  0
LINE
  5
BA
330
31
100
AcDbEntity
  8
0
 62
4
370
9
 60
1
100
AcDbLine
 10
0.4205268276127754
 20
5.399999999994176
 30
0.0
 11
3.220526827615685
 21
5.399999999994176
 31
0.0
  0
LINE
  5
BB
330
31
100
AcDbEntity
  8
0
 62
4
370
9
 60
1
100
AcDbLine
 10
2.020526827618596
 20
4.199999999997086
 30
0.0
 11
2.020526827618596
 21
2.699999999997086
 31
0.0
  0
LINE
  5
BC
330
31
100
AcDbEntity
  8
0
 62
4
370
9
 60
1
100
AcDbLine
 10
3.220526827615685
 20
5.399999999994176
 30
0.0
 11
3.220526827601133
 21
3.899999999994176
 31
0.0
  0
LINE
  5
BD
330
31
100
AcDbEntity
  8
0
 62
4
370
9
 60
1
100
AcDbLine
 10
2.020526827618596
 20
2.699999999997086
 30
0.0
 11
10.02052682761859
 21
2.699999999997086
 31
0.0
  0
LINE
  5
BE
330
31
100
AcDbEntity
  8
0
 62
4
370
9
 60
1
100
AcDbLine
 10
3.220526827601133
 20
3.899999999994176
 30
0.0
 11
10.02052682761859
 21
3.899999999994176
 31
0.0
  0
LINE
  5
BF
330
31
100
AcDbEntity
  8
0
 62
4
370
9
 60
1
100
AcDbLine
 10
-2.979473172381403
 20
-0.5000000000000027
 30
0.0
 11
-2.979473172366851
 21
4.800000000002907
 31
0.0
  0
ARC
  5
C0
330
31
100
AcDbEntity
  8
0
 62
4
370
9
 60
1
100
AcDbCircle
 10
-1.979473172366851
 20
4.800000000002907
 30
0.0
 40
1.0
100
AcDbArc
 50
90.0
 51
180.0
  0
LINE
  5
C1
330
31
100
AcDbEntity
  8
0
 62
4
370
9
 60
1
100
AcDbLine
 10
-2.979473172381403
 20
12.5
 30
0.0
 11
-2.979473172381403
 21
14.5
 31
0.0
  0
LINE
  5
C2
330
31
100
AcDbEntity
  8
0
 62
4
370
9
 60
1
100
AcDbLine
 10
-2.979473172381403
 20
12.5
 30
0.0
 11
-0.7794731723843144
 21
12.5
 31
0.0
  0
LINE
  5
C3
330
31
100
AcDbEntity
  8
0
 62
4
370
9
 60
1
100
AcDbLine
 10
0.4205268276127754
 20
8.899999999994177
 30
0.0
 11
-0.7794731723843144
 21
12.5
 31
0.0
  0
LINE
  5
C4
330
31
100
AcDbEntity
  8
0
 62
4
370
9
 60
1
100
AcDbLine
 10
10.02052682761859
 20
2.699999999997086
 30
0.0
 11
10.02052682761859
 21
3.899999999994176
 31
0.0
  0
LWPOLYLINE
  5
C5
330
31
100
AcDbEntity
  8
0
 62
4
370
9
 60
1
100
AcDbPolyline
 90
2
 70
0
 10
-2.979473172381403
 20
29.50000000000727
 10
-2.979473172381403
 20
31.50000000000727
  0
LINE
  5
C6
330
31
100
AcDbEntity
  8
0
 62
4
370
9
 60
1
100
AcDbLine
 10
-2.979473172381403
 20
31.50000000000727
 30
0.0
 11
-2.979473172381403
 21
29.50000000000727
 31
0.0
  0
LINE
  5
C7
330
31
100
AcDbEntity
  8
0
 62
4
370
9
 60
1
100
AcDbLine
 10
-2.979473172381403
 20
31.50000000000727
 30
0.0
 11
-0.7794731723843144
 21
31.50000000000727
 31
0.0
  0
LINE
  5
C8
330
31
100
AcDbEntity
  8
0
 62
4
370
9
 60
1
100
AcDbLine
 10
0.40134110474688
 20
34.46282262976567
 30
0.0
 11
-0.7794731723843144
 21
31.50000000000727
 31
0.0
  0
LINE
  5
C9
330
31
100
AcDbEntity
  8
0
 62
4
370
9
 60
1
100
AcDbLine
 10
-2.979473172381403
 20
40.49999999999999
 30
0.0
 11
-2.979473172381403
 21
39.5
 31
0.0
  0
LINE
  5
CA
330
31
100
AcDbEntity
  8
0
 62
4
370
9
 60
1
100
AcDbLine
 10
-1.379473172375583
 20
38.0
 30
0.0
 11
-0.5794731723872247
 21
38.0
 31
0.0
  0
LINE
  5
CB
330
31
100
AcDbEntity
  8
0
 62
4
370
9
 60
1
100
AcDbLine
 10
0.4205268276127754
 20
35.1000000000131
 30
0.0
 11
0.4205268276127754
 21
39.0
 31
0.0
  0
LINE
  5
CC
330
31
100
AcDbEntity
  8
0
 62
4
370
9
 60
1
100
AcDbLine
 10
0.4205268276127754
 20
39.0
 30
0.0
 11
-0.5794731723872247
 21
39.0
 31
0.0
  0
LINE
  5
CD
330
31
100
AcDbEntity
  8
0
 62
4
370
9
 60
1
100
AcDbLine
 10
-0.5794731723872247
 20
39.0
 30
0.0
 11
-0.5794731723872247
 21
38.0
 31
0.0
  0
LINE
  5
CE
330
31
100
AcDbEntity
  8
0
 62
4
370
9
 60
1
100
AcDbLine
 10
-0.5794731723872247
 20
38.0
 30
0.0
 11
-1.379473172390135
 21
38.0
 31
0.0
  0
LINE
  5
CF
330
31
100
AcDbEntity
  8
0
 62
4
370
9
 60
1
100
AcDbLine
 10
-2.979473172381403
 20
39.5
 30
0.0
 11
-1.379473172375583
 21
38.0
 31
0.0
  0
CIRCLE
  5
D0
330
31
100
AcDbEntity
  8
0
 62
4
370
9
 60
1
100
AcDbCircle
 10
24.72424808537471
 20
21.28278215652972
 30
0.0
 40
1.749999999999154
  0
LWPOLYLINE
  5
D1
330
31
100
AcDbEntity
  8
0
 62
4
370
9
 60
1
100
AcDbPolyline
 90
8
 70
1
 10
2.979121421536547
 20
8.015056465214
 10
2.979121421536547
 20
8.015056465214
 42
0.4142135623730951
 10
3.979121421536547
 20
9.015056465214
 10
3.979121421536547
 20
37.5
 42
0.4142135623730951
 10
2.979121421536547
 20
38.5
 10
2.979121421536547
 20
38.5
 42
0.4142135623730951
 10
1.979121421536547
 20
37.5
 10
1.979121421536547
 20
9.015056465214
 42
0.4142135623730951
  0
LWPOLYLINE
  5
D2
330
31
100
AcDbEntity
  8
0
 62
4
370
9
 60
1
100
AcDbPolyline
 90
6
 70
1
 10
2.979121421536547
 20
8.21505646521109
 42
0.4142135623730951
 10
3.779121421539457
 20
9.015056465214
 10
3.779121421539457
 20
37.5
 42
0.4142135623730951
 10
2.979121421536547
 20
38.30000000000291
 42
0.4142135623730951
 10
2.179121421533636
 20
37.5
 10
2.179121421533636
 20
9.015056465214
 42
0.4142135623730951
  0
MTEXT
  5
D3
330
31
100
AcDbEntity
  8
0
 62
4
370
9
 60
1
100
AcDbMText
 10
14.88822760347102
 20
23.7005630630374
 30
0.0
 40
2.268
 41
34.73665961540962
 46
0.0
 71
2
 72
5
  1
{\fTimes New Roman|b0|i0|c0|p18;\C7;HYBT   -    15A\P600Vmax(2.0mm2)                 }
  7
ARIAL
 11
-2e-16
 21
-1.0
 31
0.0
  0
LWPOLYLINE
  5
D4
330
31
100
AcDbEntity
  8
0
 62
4
370
9
 60
1
100
AcDbPolyline
 90
4
 70
1
 10
6.19625187877682
 20
38.49983329299721
 10
16.67787030176259
 20
38.49983329299721
 10
16.67787030176259
 20
8.11518927264842
 10
6.19625187877682
 20
8.11518927264842
  0
ARC
  5
D5
330
31
100
AcDbEntity
  8
0
 62
4
370
9
 60
1
100
AcDbCircle
 10
0.5788420930621215
 20
13.55941572587471
 30
0.0
 40
1.0
100
AcDbArc
 50
119.2394110250396
 51
65.80492564604354
  0
LINE
  5
D6
330
31
100
AcDbEntity
  8
0
 62
4
370
9
 60
1
100
AcDbLine
 10
0.0903821080573835
 20
14.43200202134903
 30
0.0
 11
0.0903821080573835
 21
15.16888915927848
 31
0.0
  0
LINE
  5
D7
330
31
100
AcDbEntity
  8
0
 62
4
370
9
 60
1
100
AcDbLine
 10
0.0903821080573835
 20
15.16888915927848
 30
0.0
 11
-0.3297678354720119
 21
15.54213484254433
 31
0.0
  0
LINE
  5
D8
330
31
100
AcDbEntity
  8
0
 62
4
370
9
 60
1
100
AcDbLine
 10
-0.3297678354720119
 20
15.54213484254433
 30
0.0
 11
-1.994041006604675
 21
15.54213484254433
 31
0.0
  0
LINE
  5
D9
330
31
100
AcDbEntity
  8
0
 62
4
370
9
 60
1
100
AcDbLine
 10
-1.994041006604675
 20
15.54213484254433
 30
0.0
 11
-2.979473172381403
 21
14.5
 31
0.0
  0
LINE
  5
DA
330
31
100
AcDbEntity
  8
0
 62
4
370
9
 60
1
100
AcDbLine
 10
0.9886867115710629
 20
14.47157107924431
 30
0.0
 11
1.011313288428937
 21
29.53893652406986
 31
0.0
  0
LWPOLYLINE
  5
DB
330
31
100
AcDbEntity
  8
0
 62
4
370
9
 60
1
100
AcDbPolyline
 90
2
 70
0
 10
-2.979473172381403
 20
29.5
 10
-2.979473172381403
 20
31.5
  0
LINE
  5
DC
330
31
100
AcDbEntity
  8
0
 62
4
370
9
 60
1
100
AcDbLine
 10
-2.979473172381403
 20
31.5
 30
0.0
 11
-2.979473172381403
 21
29.5
 31
0.0
  0
LINE
  5
DD
330
31
100
AcDbEntity
  8
0
 62
4
370
9
 60
1
100
AcDbLine
 10
-2.979473172381403
 20
31.5
 30
0.0
 11
-0.7794731723843144
 21
31.5
 31
0.0
  0
ARC
  5
DE
330
31
100
AcDbEntity
  8
0
 62
4
370
9
 60
1
100
AcDbCircle
 10
0.5788420930621215
 20
30.44058427412528
 30
0.0
 40
1.0
100
AcDbArc
 50
295.6244909371286
 51
240.7605889749603
  0
LINE
  5
DF
330
31
100
AcDbEntity
  8
0
 62
4
370
9
 60
1
100
AcDbLine
 10
0.0903821080573835
 20
29.56799797865096
 30
0.0
 11
0.0903821080573835
 21
28.83111084072152
 31
0.0
  0
LINE
  5
E0
330
31
100
AcDbEntity
  8
0
 62
4
370
9
 60
1
100
AcDbLine
 10
0.0903821080573835
 20
28.83111084072152
 30
0.0
 11
-0.3297678354720119
 21
28.45786515745567
 31
0.0
  0
LINE
  5
E1
330
31
100
AcDbEntity
  8
0
 62
4
370
9
 60
1
100
AcDbLine
 10
-0.3297678354720119
 20
28.45786515745567
 30
0.0
 11
-1.994041006604675
 21
28.45786515745567
 31
0.0
  0
LINE
  5
E2
330
31
100
AcDbEntity
  8
0
 62
4
370
9
 60
1
100
AcDbLine
 10
-1.994041006604675
 20
28.45786515745567
 30
0.0
 11
-2.979473172381403
 21
29.5
 31
0.0
  0
LINE
  5
E3
330
31
100
AcDbEntity
  8
0
 62
4
370
9
 60
1
100
AcDbLine
 10
0.4205268276127754
 20
8.899999999994177
 30
0.0
 11
0.4205268276127754
 21
5.399999999994176
 31
0.0
  0
LINE
  5
E4
330
31
100
AcDbEntity
  8
0
 62
7
370
9
 60
1
100
AcDbLine
 10
0.4205268276127754
 20
39.0
 30
0.0
 11
0.4205268276127754
 21
34.59999999999855
 31
0.0
  0
LINE
  5
E5
330
31
100
AcDbEntity
  8
0
 62
7
370
9
 60
1
100
AcDbLine
 10
-1.019873012519806
 20
35.09999999999855
 30
0.0
 11
-6.079473172387224
 21
35.09999999999855
 31
0.0
  0
LINE
  5
E6
330
31
100
AcDbEntity
  8
0
 62
7
370
9
 60
1
100
AcDbLine
 10
-5.579473172387224
 20
33.59999999999855
 30
0.0
 11
-5.579473172387221
 21
9.599570430381485
 31
0.0
  0
LINE
  5
E7
330
31
100
AcDbEntity
  8
0
 62
7
370
9
 60
1
100
AcDbLine
 10
0.4205268276127754
 20
39.0
 30
0.0
 11
-0.0912332683074055
 21
39.0
 31
0.0
  0
LINE
  5
E8
330
31
100
AcDbEntity
  8
0
 62
7
370
9
 60
1
100
AcDbLine
 10
-0.0794731723872246
 20
34.09999999999854
 30
0.0
 11
-5.079473172387224
 21
34.09999999999854
 31
0.0
  0
LINE
  5
E9
330
31
100
AcDbEntity
  8
0
 62
7
370
9
 60
1
100
AcDbLine
 10
-0.5202725331589804
 20
35.58001598082235
 30
0.0
 11
-0.3909935559204314
 21
38.81199041150103
 31
0.0
  0
ARC
  5
EA
330
31
100
AcDbEntity
  8
0
 62
7
370
9
 60
1
100
AcDbCircle
 10
-0.1039110227161757
 20
38.68724132177441
 30
0.0
 40
0.3130155207980047
100
AcDbArc
 50
87.67877145372
 51
156.5130846305512
  0
LINE
  5
EB
330
31
100
AcDbEntity
  8
0
 62
7
370
9
 60
1
100
AcDbLine
 10
0.4205268276127754
 20
4.199999999997086
 30
0.0
 11
0.4205268276127754
 21
8.600000000005817
 31
0.0
  0
LINE
  5
EC
330
31
100
AcDbEntity
  8
0
 62
7
370
9
 60
1
100
AcDbLine
 10
-0.0104535471192868
 20
9.095213379598771
 30
0.0
 11
-5.079902926541549
 21
9.099570615070151
 31
0.0
  0
LINE
  5
ED
330
31
100
AcDbEntity
  8
0
 62
7
370
9
 60
1
100
AcDbLine
 10
-1.019873012519806
 20
8.100000000005817
 30
0.0
 11
-6.079473172387224
 21
8.100000000005817
 31
0.0
  0
LINE
  5
EE
330
31
100
AcDbEntity
  8
0
 62
7
370
9
 60
1
100
AcDbLine
 10
-5.579473172387224
 20
9.100000000005817
 30
0.0
 11
-5.579473172387224
 21
9.100000000005817
 31
0.0
  0
LINE
  5
EF
330
31
100
AcDbEntity
  8
0
 62
7
370
9
 60
1
100
AcDbLine
 10
0.4205268276127754
 20
4.199999999997086
 30
0.0
 11
-0.0912332683074055
 21
4.199999999997086
 31
0.0
  0
LINE
  5
F0
330
31
100
AcDbEntity
  8
0
 62
7
370
9
 60
1
100
AcDbLine
 10
-0.0794731723872246
 20
9.100000000005817
 30
0.0
 11
-0.5794731723872247
 21
9.100000000005817
 31
0.0
  0
LINE
  5
F1
330
31
100
AcDbEntity
  8
0
 62
7
370
9
 60
1
100
AcDbLine
 10
-0.5202725331589804
 20
7.619984019182014
 30
0.0
 11
-0.3909935559204314
 21
4.388009588503334
 31
0.0
  0
ARC
  5
F2
330
31
100
AcDbEntity
  8
0
 62
7
370
9
 60
1
100
AcDbCircle
 10
-0.0873714852801513
 20
4.539129123143663
 30
0.0
 40
0.3391511101741258
100
AcDbArc
 50
206.4605629801108
 51
269.3475809342039
  0
LINE
  5
F3
330
31
100
AcDbEntity
  8
0
 62
7
370
9
 60
1
100
AcDbLine
 10
-6.579473172387224
 20
34.59999999999855
 30
0.0
 11
-6.579473172387224
 21
8.600000000005817
 31
0.0
  0
XLINE
  5
F4
330
31
100
AcDbEntity
  8
0
 60
1
100
AcDbXline
 10
8.10000000000582
 20
40.49999999999999
 30
0.0
 11
1.0
 21
0.0
 31
0.0
  0
ARC
  5
F5
330
31
100
AcDbEntity
  8
0
 62
7
370
9
 60
1
100
AcDbCircle
 10
-0.0794731723872246
 20
8.600000000005817
 30
0.0
 40
0.5
100
AcDbArc
 50
0.0
 51
90.0
  0
ARC
  5
F6
330
31
100
AcDbEntity
  8
0
 62
7
370
9
 60
1
100
AcDbCircle
 10
-1.019873012519806
 20
7.600000000005818
 30
0.0
 40
0.5
100
AcDbArc
 50
2.290610042840373
 51
90.0
  0
ARC
  5
F7
330
31
100
AcDbEntity
  8
0
 62
7
370
9
 60
1
100
AcDbCircle
 10
-5.079473172387221
 20
9.599570430381485
 30
0.0
 40
0.5
100
AcDbArc
 50
180.0
 51
269.9507537953942
  0
ARC
  5
F8
330
31
100
AcDbEntity
  8
0
 62
7
370
9
 60
1
100
AcDbCircle
 10
-6.079473172387224
 20
8.600000000005817
 30
0.0
 40
0.5
100
AcDbArc
 50
180.0
 51
270.0
  0
ARC
  5
F9
330
31
100
AcDbEntity
  8
0
 62
7
370
9
 60
1
100
AcDbCircle
 10
-5.079473172387224
 20
33.59999999999855
 30
0.0
 40
0.5
100
AcDbArc
 50
90.0
 51
180.0
  0
ARC
  5
FA
330
31
100
AcDbEntity
  8
0
 62
7
370
9
 60
1
100
AcDbCircle
 10
-6.079473172387224
 20
34.59999999999855
 30
0.0
 40
0.5
100
AcDbArc
 50
90.0
 51
180.0
  0
ARC
  5
FB
330
31
100
AcDbEntity
  8
0
 62
7
370
9
 60
1
100
AcDbCircle
 10
-0.0794731723872246
 20
34.59999999999855
 30
0.0
 40
0.5
100
AcDbArc
 50
270.0
 51
0.0
  0
ARC
  5
FC
330
31
100
AcDbEntity
  8
0
 62
7
370
9
 60
1
100
AcDbCircle
 10
-1.019873012519806
 20
35.59999999999855
 30
0.0
 40
0.5
100
AcDbArc
 50
270.0
 51
357.7093899571596
  0
ENDBLK
  5
33
330
31
100
AcDbEntity
  8
0
100
AcDbBlockEnd
  0
ENDSEC
  0
SECTION
  2
ENTITIES
  0
INSERT
  5
2F
330
17
100
AcDbEntity
  8
0
100
AcDbBlockReference
  2
*U397
 10
6.579473172387225
 20
0.5
 30
0.0
  0
ENDSEC
  0
SECTION
  2
OBJECTS
  0
DICTIONARY
  5
A
330
0
100
AcDbDictionary
281
1
  3
ACAD_COLOR
350
B
  3
ACAD_GROUP
350
C
  3
ACAD_LAYOUT
350
D
  3
ACAD_MATERIAL
350
E
  3
ACAD_MLEADERSTYLE
350
F
  3
ACAD_MLINESTYLE
350
10
  3
ACAD_PLOTSETTINGS
350
11
  3
ACAD_PLOTSTYLENAME
350
12
  3
ACAD_SCALELIST
350
14
  3
ACAD_TABLESTYLE
350
15
  3
ACAD_VISUALSTYLE
350
16
  3
EZDXF_META
350
2D
  0
DICTIONARY
  5
B
330
A
100
AcDbDictionary
281
1
  0
DICTIONARY
  5
C
330
A
100
AcDbDictionary
281
1
  0
DICTIONARY
  5
D
330
A
100
AcDbDictionary
281
1
  3
Model
350
1A
  3
Layout1
350
1E
  0
DICTIONARY
  5
E
330
A
100
AcDbDictionary
281
1
  3
ByBlock
350
1F
  3
ByLayer
350
20
  3
Global
350
21
  0
DICTIONARY
  5
F
330
A
100
AcDbDictionary
281
1
  3
Standard
350
2C
  0
DICTIONARY
  5
10
330
A
100
AcDbDictionary
281
1
  3
Standard
350
22
  0
DICTIONARY
  5
11
330
A
100
AcDbDictionary
281
1
  0
ACDBDICTIONARYWDFLT
  5
12
330
A
100
AcDbDictionary
281
1
  3
Normal
350
13
100
AcDbDictionaryWithDefault
340
13
  0
ACDBPLACEHOLDER
  5
13
330
12
  0
DICTIONARY
  5
14
330
A
100
AcDbDictionary
281
1
  0
DICTIONARY
  5
15
330
A
100
AcDbDictionary
281
1
  0
DICTIONARY
  5
16
330
A
100
AcDbDictionary
281
1
  0
LAYOUT
  5
1A
330
D
100
AcDbPlotSettings
  1

  4
A3
  6

 40
7.5
 41
20.0
 42
7.5
 43
20.0
 44
420.0
 45
297.0
 46
0.0
 47
0.0
 48
0.0
 49
0.0
140
0.0
141
0.0
142
1.0
143
1.0
 70
1024
 72
1
 73
0
 74
5
  7

 75
16
 76
0
 77
2
 78
300
147
1.0
148
0.0
149
0.0
100
AcDbLayout
  1
Model
 70
1
 71
0
 10
0.0
 20
0.0
 11
420.0
 21
297.0
 12
0.0
 22
0.0
 32
0.0
 14
1e+20
 24
1e+20
 34
1e+20
 15
-1e+20
 25
-1e+20
 35
-1e+20
146
0.0
 13
0.0
 23
0.0
 33
0.0
 16
1.0
 26
0.0
 36
0.0
 17
0.0
 27
1.0
 37
0.0
 76
1
330
17
  0
LAYOUT
  5
1E
330
D
100
AcDbPlotSettings
  1

  4
A3
  6

 40
7.5
 41
20.0
 42
7.5
 43
20.0
 44
420.0
 45
297.0
 46
0.0
 47
0.0
 48
0.0
 49
0.0
140
0.0
141
0.0
142
1.0
143
1.0
 70
0
 72
1
 73
0
 74
5
  7

 75
16
 76
0
 77
2
 78
300
147
1.0
148
0.0
149
0.0
100
AcDbLayout
  1
Layout1
 70
1
 71
1
 10
0.0
 20
0.0
 11
420.0
 21
297.0
 12
0.0
 22
0.0
 32
0.0
 14
1e+20
 24
1e+20
 34
1e+20
 15
-1e+20
 25
-1e+20
 35
-1e+20
146
0.0
 13
0.0
 23
0.0
 33
0.0
 16
1.0
 26
0.0
 36
0.0
 17
0.0
 27
1.0
 37
0.0
 76
1
330
1B
  0
MATERIAL
  5
1F
102
{ACAD_REACTORS
330
E
102
}
330
E
100
AcDbMaterial
  1
ByBlock
  2

 70
0
 40
1.0
 71
1
 41
1.0
 91
-1023410177
 42
1.0
 72
1
  3

 73
1
 74
1
 75
1
 44
0.5
 73
0
 45
1.0
 46
1.0
 77
1
  4

 78
1
 79
1
170
1
 48
1.0
171
1
  6

172
1
173
1
174
1
140
1.0
141
1.0
175
1
  7

176
1
177
1
178
1
143
1.0
179
1
  8

270
1
271
1
272
1
145
1.0
146
1.0
273
1
  9

274
1
275
1
276
1
 42
1.0
 72
1
  3

 73
1
 74
1
 75
1
 94
63
  0
MATERIAL
  5
20
102
{ACAD_REACTORS
330
E
102
}
330
E
100
AcDbMaterial
  1
ByLayer
  2

 70
0
 40
1.0
 71
1
 41
1.0
 91
-1023410177
 42
1.0
 72
1
  3

 73
1
 74
1
 75
1
 44
0.5
 73
0
 45
1.0
 46
1.0
 77
1
  4

 78
1
 79
1
170
1
 48
1.0
171
1
  6

172
1
173
1
174
1
140
1.0
141
1.0
175
1
  7

176
1
177
1
178
1
143
1.0
179
1
  8

270
1
271
1
272
1
145
1.0
146
1.0
273
1
  9

274
1
275
1
276
1
 42
1.0
 72
1
  3

 73
1
 74
1
 75
1
 94
63
  0
MATERIAL
  5
21
102
{ACAD_REACTORS
330
E
102
}
330
E
100
AcDbMaterial
  1
Global
  2

 70
0
 40
1.0
 71
1
 41
1.0
 91
-1023410177
 42
1.0
 72
1
  3

 73
1
 74
1
 75
1
 44
0.5
 73
0
 45
1.0
 46
1.0
 77
1
  4

 78
1
 79
1
170
1
 48
1.0
171
1
  6

172
1
173
1
174
1
140
1.0
141
1.0
175
1
  7

176
1
177
1
178
1
143
1.0
179
1
  8

270
1
271
1
272
1
145
1.0
146
1.0
273
1
  9

274
1
275
1
276
1
 42
1.0
 72
1
  3

 73
1
 74
1
 75
1
 94
63
  0
MLINESTYLE
  5
22
102
{ACAD_REACTORS
330
10
102
}
330
10
100
AcDbMlineStyle
  2
Standard
 70
0
  3

 62
256
 51
90.0
 52
90.0
 71
2
 49
0.5
 62
256
  6
BYLAYER
 49
-0.5
 62
256
  6
BYLAYER
  0
MLEADERSTYLE
  5
2C
102
{ACAD_REACTORS
330
F
102
}
330
F
100
AcDbMLeaderStyle
179
2
170
2
171
1
172
0
 90
2
 40
0.0
 41
0.0
173
1
 91
-1056964608
 92
-2
290
1
 42
2.0
291
1
 43
8.0
  3
Standard
 44
4.0
300

342
29
174
1
175
1
176
0
178
1
 93
-1056964608
 45
4.0
292
0
297
0
 46
4.0
 94
-1056964608
 47
1.0
 49
1.0
140
1.0
294
1
141
0.0
177
0
142
1.0
295
0
296
0
143
3.75
271
0
272
9
273
9
  0
DICTIONARY
  5
2D
330
A
100
AcDbDictionary
280
1
281
1
  3
CREATED_BY_EZDXF
350
2E
  3
WRITTEN_BY_EZDXF
350
101
  0
DICTIONARYVAR
  5
2E
330
2D
100
DictionaryVariables
280
0
  1
1.4.4 @ 2026-09-23T14:03:18.557149+00:00
  0
DICTIONARYVAR
  5
101
330
2D
100
DictionaryVariables
280
0
  1
1.4.4 @ 2026-09-23T14:03:18.658661+00:00
  0
ENDSEC
  0
EOF
