  0
SECTION
  2
HEADER
  9
$ACADVER
  1
AC1032
  9
$ACADMAINTVER
 90
4
  9
$DWGCODEPAGE
  3
ANSI_1252
  9
$LASTSAVEDBY
  1
ezdxf
  9
$REQUIREDVERSIONS
160
0
  9
$INSBASE
 10
0.0
 20
0.0
 30
0.0
  9
$EXTMIN
 10
1e+20
 20
1e+20
 30
1e+20
  9
$EXTMAX
 10
-1e+20
 20
-1e+20
 30
-1e+20
  9
$LIMMIN
 10
0.0
 20
0.0
  9
$LIMMAX
 10
420.0
 20
297.0
  9
$ORTHOMODE
 70
0
  9
$REGENMODE
 70
1
  9
$FILLMODE
 70
1
  9
$QTEXTMODE
 70
0
  9
$MIRRTEXT
 70
1
  9
$LTSCALE
 40
1.0
  9
$ATTMODE
 70
1
  9
$TEXTSIZE
 40
2.5
  9
$TRACEWID
 40
1.0
  9
$TEXTSTYLE
  7
Standard
  9
$CLAYER
  8
0
  9
$CELTYPE
  6
ByLayer
  9
$CECOLOR
 62
256
  9
$CELTSCALE
 40
1.0
  9
$DISPSILH
 70
0
  9
$DIMSCALE
 40
1.0
  9
$DIMASZ
 40
2.5
  9
$DIMEXO
 40
0.625
  9
$DIMDLI
 40
3.75
  9
$DIMRND
 40
0.0
  9
$DIMDLE
 40
0.0
  9
$DIMEXE
 40
1.25
  9
$DIMTP
 40
0.0
  9
$DIMTM
 40
0.0
  9
$DIMTXT
 40
2.5
  9
$DIMCEN
 40
2.5
  9
$DIMTSZ
 40
0.0
  9
$DIMTOL
 70
0
  9
$DIMLIM
 70
0
  9
$DIMTIH
 70
0
  9
$DIMTOH
 70
0
  9
$DIMSE1
 70
0
  9
$DIMSE2
 70
0
  9
$DIMTAD
 70
1
  9
$DIMZIN
 70
8
  9
$DIMBLK
  1

  9
$DIMASO
 70
1
  9
$DIMSHO
 70
1
  9
$DIMPOST
  1

  9
$DIMAPOST
  1

  9
$DIMALT
 70
0
  9
$DIMALTD
 70
3
  9
$DIMALTF
 40
0.03937007874
  9
$DIMLFAC
 40
1.0
  9
$DIMTOFL
 70
1
  9
$DIMTVP
 40
0.0
  9
$DIMTIX
 70
0
  9
$DIMSOXD
 70
0
  9
$DIMSAH
 70
0
  9
$DIMBLK1
  1

  9
$DIMBLK2
  1

  9
$DIMSTYLE
  2
ISO-25
  9
$DIMCLRD
 70
0
  9
$DIMCLRE
 70
0
  9
$DIMCLRT
 70
0
  9
$DIMTFAC
 40
1.0
  9
$DIMGAP
 40
0.625
  9
$DIMJUST
 70
0
  9
$DIMSD1
 70
0
  9
$DIMSD2
 70
0
  9
$DIMTOLJ
 70
0
  9
$DIMTZIN
 70
8
  9
$DIMALTZ
 70
0
  9
$DIMALTTZ
 70
0
  9
$DIMUPT
 70
0
  9
$DIMDEC
 70
2
  9
$DIMTDEC
 70
2
  9
$DIMALTU
 70
2
  9
$DIMALTTD
 70
3
  9
$DIMTXSTY
  7
Standard
  9
$DIMAUNIT
 70
0
  9
$DIMADEC
 70
0
  9
$DIMALTRND
 40
0.0
  9
$DIMAZIN
 70
0
  9
$DIMDSEP
 70
44
  9
$DIMATFIT
 70
3
  9
$DIMFRAC
 70
0
  9
$DIMLDRBLK
  1

  9
$DIMLUNIT
 70
2
  9
$DIMLWD
 70
-2
  9
$DIMLWE
 70
-2
  9
$DIMTMOVE
 70
0
  9
$DIMFXL
 40
1.0
  9
$DIMFXLON
 70
0
  9
$DIMJOGANG
 40
0.785398163397
  9
$DIMTFILL
 70
0
  9
$DIMTFILLCLR
 70
0
  9
$DIMARCSYM
 70
0
  9
$DIMLTYPE
  6

  9
$DIMLTEX1
  6

  9
$DIMLTEX2
  6

  9
$DIMTXTDIRECTION
 70
0
  9
$LUNITS
 70
2
  9
$LUPREC
 70
4
  9
$SKETCHINC
 40
1.0
  9
$FILLETRAD
 40
10.0
  9
$AUNITS
 70
0
  9
$AUPREC
 70
2
  9
$MENU
  1
.
  9
$ELEVATION
 40
0.0
  9
$PELEVATION
 40
0.0
  9
$THICKNESS
 40
0.0
  9
$LIMCHECK
 70
0
  9
$CHAMFERA
 40
0.0
  9
$CHAMFERB
 40
0.0
  9
$CHAMFERC
 40
0.0
  9
$CHAMFERD
 40
0.0
  9
$SKPOLY
 70
0
  9
$TDCREATE
 40
2461307.878622685
  9
$TDUCREATE
 40
2458532.153996898
  9
$TDUPDATE
 40
2461307.878622685
  9
$TDUUPDATE
 40
2458532.1544311
  9
$TDINDWG
 40
0.0
  9
$TDUSRTIMER
 40
0.0
  9
$USRTIMER
 70
1
  9
$ANGBASE
 50
0.0
  9
$ANGDIR
 70
0
  9
$PDMODE
 70
0
  9
$PDSIZE
 40
0.0
  9
$PLINEWID
 40
0.0
  9
$SPLFRAME
 70
0
  9
$SPLINETYPE
 70
6
  9
$SPLINESEGS
 70
8
  9
$HANDSEED
  5
2EF
  9
$SURFTAB1
 70
6
  9
$SURFTAB2
 70
6
  9
$SURFTYPE
 70
6
  9
$SURFU
 70
6
  9
$SURFV
 70
6
  9
$UCSBASE
  2

  9
$UCSNAME
  2

  9
$UCSORG
 10
0.0
 20
0.0
 30
0.0
  9
$UCSXDIR
 10
1.0
 20
0.0
 30
0.0
  9
$UCSYDIR
 10
0.0
 20
1.0
 30
0.0
  9
$UCSORTHOREF
  2

  9
$UCSORTHOVIEW
 70
0
  9
$UCSORGTOP
 10
0.0
 20
0.0
 30
0.0
  9
$UCSORGBOTTOM
 10
0.0
 20
0.0
 30
0.0
  9
$UCSORGLEFT
 10
0.0
 20
0.0
 30
0.0
  9
$UCSORGRIGHT
 10
0.0
 20
0.0
 30
0.0
  9
$UCSORGFRONT
 10
0.0
 20
0.0
 30
0.0
  9
$UCSORGBACK
 10
0.0
 20
0.0
 30
0.0
  9
$PUCSBASE
  2

  9
$PUCSNAME
  2

  9
$PUCSORG
 10
0.0
 20
0.0
 30
0.0
  9
$PUCSXDIR
 10
1.0
 20
0.0
 30
0.0
  9
$PUCSYDIR
 10
0.0
 20
1.0
 30
0.0
  9
$PUCSORTHOREF
  2

  9
$PUCSORTHOVIEW
 70
0
  9
$PUCSORGTOP
 10
0.0
 20
0.0
 30
0.0
  9
$PUCSORGBOTTOM
 10
0.0
 20
0.0
 30
0.0
  9
$PUCSORGLEFT
 10
0.0
 20
0.0
 30
0.0
  9
$PUCSORGRIGHT
 10
0.0
 20
0.0
 30
0.0
  9
$PUCSORGFRONT
 10
0.0
 20
0.0
 30
0.0
  9
$PUCSORGBACK
 10
0.0
 20
0.0
 30
0.0
  9
$USERI1
 70
0
  9
$USERI2
 70
0
  9
$USERI3
 70
0
  9
$USERI4
 70
0
  9
$USERI5
 70
0
  9
$USERR1
 40
0.0
  9
$USERR2
 40
0.0
  9
$USERR3
 40
0.0
  9
$USERR4
 40
0.0
  9
$USERR5
 40
0.0
  9
$WORLDVIEW
 70
1
  9
$SHADEDGE
 70
3
  9
$SHADEDIF
 70
70
  9
$TILEMODE
 70
1
  9
$MAXACTVP
 70
64
  9
$PINSBASE
 10
0.0
 20
0.0
 30
0.0
  9
$PLIMCHECK
 70
0
  9
$PEXTMIN
 10
1e+20
 20
1e+20
 30
1e+20
  9
$PEXTMAX
 10
-1e+20
 20
-1e+20
 30
-1e+20
  9
$PLIMMIN
 10
0.0
 20
0.0
  9
$PLIMMAX
 10
420.0
 20
297.0
  9
$UNITMODE
 70
0
  9
$VISRETAIN
 70
1
  9
$PLINEGEN
 70
0
  9
$PSLTSCALE
 70
1
  9
$TREEDEPTH
 70
3020
  9
$CMLSTYLE
  2
Standard
  9
$CMLJUST
 70
0
  9
$CMLSCALE
 40
20.0
  9
$PROXYGRAPHICS
 70
1
  9
$MEASUREMENT
 70
1
  9
$CELWEIGHT
370
-1
  9
$ENDCAPS
280
0
  9
$JOINSTYLE
280
0
  9
$LWDISPLAY
290
0
  9
$INSUNITS
 70
4
  9
$HYPERLINKBASE
  1

  9
$STYLESHEET
  1

  9
$XEDIT
290
1
  9
$CEPSNTYPE
380
0
  9
$PSTYLEMODE
290
1
  9
$FINGERPRINTGUID
  2
{356CE281-8EEA-4336-A3F2-B0DC5BBB86E7}
  9
$VERSIONGUID
  2
{412B7BC1-AE23-4A64-8EC6-47183941F8F0}
  9
$EXTNAMES
290
1
  9
$PSVPSCALE
 40
0.0
  9
$OLESTARTUP
290
0
  9
$SORTENTS
280
127
  9
$INDEXCTL
280
0
  9
$HIDETEXT
280
1
  9
$XCLIPFRAME
280
1
  9
$HALOGAP
280
0
  9
$OBSCOLOR
 70
257
  9
$OBSLTYPE
280
0
  9
$INTERSECTIONDISPLAY
280
0
  9
$INTERSECTIONCOLOR
 70
257
  9
$DIMASSOC
280
2
  9
$PROJECTNAME
  1

  9
$CAMERADISPLAY
290
0
  9
$LENSLENGTH
 40
50.0
  9
$CAMERAHEIGHT
 40
0.0
  9
$STEPSPERSEC
 40
24.0
  9
$STEPSIZE
 40
100.0
  9
$3DDWFPREC
 40
2.0
  9
$PSOLWIDTH
 40
0.005
  9
$PSOLHEIGHT
 40
0.08
  9
$LOFTANG1
 40
1.570796326795
  9
$LOFTANG2
 40
1.570796326795
  9
$LOFTMAG1
 40
0.0
  9
$LOFTMAG2
 40
0.0
  9
$LOFTPARAM
 70
7
  9
$LOFTNORMALS
280
1
  9
$LATITUDE
 40
37.795
  9
$LONGITUDE
 40
-122.394
  9
$NORTHDIRECTION
 40
0.0
  9
$TIMEZONE
 70
-8000
  9
$LIGHTGLYPHDISPLAY
280
1
  9
$TILEMODELIGHTSYNCH
280
1
  9
$CMATERIAL
347
20
  9
$SOLIDHIST
280
0
  9
$SHOWHIST
280
1
  9
$DWFFRAME
280
2
  9
$DGNFRAME
280
2
  9
$REALWORLDSCALE
290
1
  9
$INTERFERECOLOR
 62
256
  9
$CSHADOW
280
0
  9
$SHADOWPLANELOCATION
 40
0.0
  0
ENDSEC
  0
SECTION
  2
CLASSES
  0
CLASS
  1
ACDBDICTIONARYWDFLT
  2
AcDbDictionaryWithDefault
  3
ObjectDBX Classes
 90
0
 91
0
280
0
281
0
  0
CLASS
  1
SUN
  2
AcDbSun
  3
SCENEOE
 90
1153
 91
0
280
0
281
0
  0
CLASS
  1
VISUALSTYLE
  2
AcDbVisualStyle
  3
ObjectDBX Classes
 90
4095
 91
0
280
0
281
0
  0
CLASS
  1
MATERIAL
  2
AcDbMaterial
  3
ObjectDBX Classes
 90
1153
 91
0
280
0
281
0
  0
CLASS
  1
SCALE
  2
AcDbScale
  3
ObjectDBX Classes
 90
1153
 91
0
280
0
281
0
  0
CLASS
  1
TABLESTYLE
  2
AcDbTableStyle
  3
ObjectDBX Classes
 90
4095
 91
0
280
0
281
0
  0
CLASS
  1
MLEADERSTYLE
  2
AcDbMLeaderStyle
  3
ACDB_MLEADERSTYLE_CLASS
 90
4095
 91
0
280
0
281
0
  0
CLASS
  1
DICTIONARYVAR
  2
AcDbDictionaryVar
  3
ObjectDBX Classes
 90
0
 91
0
280
0
281
0
  0
CLASS
  1
CELLSTYLEMAP
  2
AcDbCellStyleMap
  3
ObjectDBX Classes
 90
1152
 91
0
280
0
281
0
  0
CLASS
  1
MENTALRAYRENDERSETTINGS
  2
AcDbMentalRayRenderSettings
  3
SCENEOE
 90
1024
 91
0
280
0
281
0
  0
CLASS
  1
ACDBDETAILVIEWSTYLE
  2
AcDbDetailViewStyle
  3
ObjectDBX Classes
 90
1025
 91
0
280
0
281
0
  0
CLASS
  1
ACDBSECTIONVIEWSTYLE
  2
AcDbSectionViewStyle
  3
ObjectDBX Classes
 90
1025
 91
0
280
0
281
0
  0
CLASS
  1
RASTERVARIABLES
  2
AcDbRasterVariables
  3
ISM
 90
0
 91
0
280
0
281
0
  0
CLASS
  1
LAYOUT
  2
AcDbLayout
  3
ObjectDBX Classes
 90
0
 91
0
280
0
281
0
  0
CLASS
  1
ACDBPLACEHOLDER
  2
AcDbPlaceHolder
  3
ObjectDBX Classes
 90
0
 91
0
280
0
281
0
  0
ENDSEC
  0
SECTION
  2
TABLES
  0
TABLE
  2
VPORT
  5
8
330
0
100
AcDbSymbolTable
 70
1
  0
VPORT
  5
23
330
8
100
AcDbSymbolTableRecord
100
AcDbViewportTableRecord
  2
*Active
 70
0
 10
0.0
 20
0.0
 11
1.0
 21
1.0
 12
0.0
 22
0.0
 13
0.0
 23
0.0
 14
0.5
 24
0.5
 15
0.5
 25
0.5
 16
0.0
 26
0.0
 36
1.0
 17
0.0
 27
0.0
 37
0.0
 40
1000.0
 41
1.34
 42
50.0
 43
0.0
 44
0.0
 50
0.0
 51
0.0
 71
0
 72
1000
 73
1
 74
3
 75
0
 76
0
 77
0
 78
0
281
0
 65
0
146
0.0
  0
ENDTAB
  0
TABLE
  2
LTYPE
  5
2
330
0
100
AcDbSymbolTable
 70
3
  0
LTYPE
  5
24
330
2
100
AcDbSymbolTableRecord
100
AcDbLinetypeTableRecord
  2
ByBlock
 70
0
  3

 72
65
 73
0
 40
0.0
  0
LTYPE
  5
25
330
2
100
AcDbSymbolTableRecord
100
AcDbLinetypeTableRecord
  2
ByLayer
 70
0
  3

 72
65
 73
0
 40
0.0
  0
LTYPE
  5
26
330
2
100
AcDbSymbolTableRecord
100
AcDbLinetypeTableRecord
  2
Continuous
 70
0
  3

 72
65
 73
0
 40
0.0
  0
ENDTAB
  0
TABLE
  2
LAYER
  5
1
330
0
100
AcDbSymbolTable
 70
4
  0
LAYER
  5
27
330
1
100
AcDbSymbolTableRecord
100
AcDbLayerTableRecord
  2
0
 70
0
 62
7
  6
Continuous
370
-3
390
13
347
21
  0
LAYER
  5
28
330
1
100
AcDbSymbolTableRecord
100
AcDbLayerTableRecord
  2
Defpoints
 70
0
 62
7
  6
Continuous
290
0
370
-3
390
13
347
21
  0
LAYER
  5
2E9
330
1
100
AcDbSymbolTableRecord
100
AcDbLayerTableRecord
  2
00
 70
0
 62
7
  6
Continuous
370
0
390
13
347
21
  0
LAYER
  5
2EA
330
1
100
AcDbSymbolTableRecord
100
AcDbLayerTableRecord
  2
CONDUCTOR
 70
0
 62
7
  6
Continuous
370
-3
390
13
347
21
  0
ENDTAB
  0
TABLE
  2
STYLE
  5
5
330
0
100
AcDbSymbolTable
 70
2
  0
STYLE
  5
29
330
5
100
AcDbSymbolTableRecord
100
AcDbTextStyleTableRecord
  2
Standard
 70
0
 40
0.0
 41
1.0
 50
0.0
 71
0
 42
2.5
  3
txt
  4

  0
STYLE
  5
2EB
330
5
100
AcDbSymbolTableRecord
100
AcDbTextStyleTableRecord
  2
Helvetica-Narrow
 70
0
 40
0.0
 41
1.0
 50
0.0
 71
0
 42
0.2
  3

  4

  0
ENDTAB
  0
TABLE
  2
VIEW
  5
7
330
0
100
AcDbSymbolTable
 70
0
  0
ENDTAB
  0
TABLE
  2
UCS
  5
6
330
0
100
AcDbSymbolTable
 70
0
  0
ENDTAB
  0
TABLE
  2
APPID
  5
3
330
0
100
AcDbSymbolTable
 70
3
  0
APPID
  5
2A
330
3
100
AcDbSymbolTableRecord
100
AcDbRegAppTableRecord
  2
ACAD
 70
0
  0
APPID
  5
2EC
330
3
100
AcDbSymbolTableRecord
100
AcDbRegAppTableRecord
  2
HATCHBACKGROUNDCOLOR
 70
0
  0
APPID
  5
2ED
330
3
100
AcDbSymbolTableRecord
100
AcDbRegAppTableRecord
  2
EZDXF
 70
0
  0
ENDTAB
  0
TABLE
  2
DIMSTYLE
  5
4
330
0
100
AcDbSymbolTable
 70
1
100
AcDbDimStyleTable
  0
DIMSTYLE
105
2B
330
4
100
AcDbSymbolTableRecord
100
AcDbDimStyleTableRecord
  2
Standard
 70
0
 40
1.0
 41
2.5
 42
0.625
 43
3.75
 44
1.25
 45
0.0
 46
0.0
 47
0.0
 48
0.0
 49
2.5
140
2.5
141
2.5
142
0.0
143
0.03937007874
144
1.0
145
0.0
146
1.0
147
0.625
148
0.0
 69
0
 70
0
 71
0
 72
0
 73
0
 74
0
 75
0
 76
0
 77
1
 78
8
 79
3
170
0
171
3
172
1
173
0
174
0
175
0
176
0
177
0
178
0
179
2
271
2
272
2
273
2
274
3
275
0
276
0
277
2
278
44
279
0
280
0
281
0
282
0
283
0
284
8
285
0
286
0
288
0
289
3
290
0
371
-2
372
-2
  0
ENDTAB
  0
TABLE
  2
BLOCK_RECORD
  5
9
330
0
100
AcDbSymbolTable
 70
3
  0
BLOCK_RECORD
  5
17
330
9
100
AcDbSymbolTableRecord
100
AcDbBlockTableRecord
  2
*Model_Space
340
1A
 70
0
280
1
281
0
  0
BLOCK_RECORD
  5
1B
330
9
100
AcDbSymbolTableRecord
100
AcDbBlockTableRecord
  2
*Paper_Space
340
1E
 70
0
280
1
281
0
  0
BLOCK_RECORD
  5
31
330
9
100
AcDbSymbolTableRecord
100
AcDbBlockTableRecord
  2
*U1889
340
0
 70
0
280
1
281
0
  0
ENDTAB
  0
ENDSEC
  0
SECTION
  2
BLOCKS
  0
BLOCK
  5
18
330
17
100
AcDbEntity
  8
0
100
AcDbBlockBegin
  2
*Model_Space
 70
0
 10
0.0
 20
0.0
 30
0.0
  3
*Model_Space
  1

  0
ENDBLK
  5
19
330
17
100
AcDbEntity
  8
0
100
AcDbBlockEnd
  0
BLOCK
  5
1C
330
1B
100
AcDbEntity
  8
0
100
AcDbBlockBegin
  2
*Paper_Space
 70
0
 10
0.0
 20
0.0
 30
0.0
  3
*Paper_Space
  1

  0
ENDBLK
  5
1D
330
1B
100
AcDbEntity
  8
0
100
AcDbBlockEnd
  0
BLOCK
  5
32
330
31
100
AcDbEntity
  8
0
100
AcDbBlockBegin
  2
*U1889
 70
1
 10
0.0
 20
0.0
 30
0.0
  3
*U1889
  1

  0
LINE
  5
34
330
31
100
AcDbEntity
  8
0
 62
74
100
AcDbLine
 10
1653.012080733425
 20
1097.376661582589
 30
0.0
 11
1653.012080733425
 21
937.3766615825886
 31
0.0
  0
LINE
  5
35
330
31
100
AcDbEntity
  8
0
 62
74
100
AcDbLine
 10
1453.012080733425
 20
937.3766615825886
 30
0.0
 11
1453.012080733425
 21
1097.376661582589
 31
0.0
  0
LINE
  5
36
330
31
100
AcDbEntity
  8
0
 62
74
100
AcDbLine
 10
1653.012080733425
 20
937.3766615825886
 30
0.0
 11
1453.012080733425
 21
937.3766615825886
 31
0.0
  0
LINE
  5
37
330
31
100
AcDbEntity
  8
0
 62
74
100
AcDbLine
 10
1463.012080733425
 20
1107.376661582589
 30
0.0
 11
1643.012080733425
 21
1107.376661582589
 31
0.0
  0
LINE
  5
38
330
31
100
AcDbEntity
  8
0
 62
74
100
AcDbLine
 10
1463.012080733425
 20
1107.376661582589
 30
0.0
 11
1643.012080733425
 21
1107.376661582589
 31
0.0
  0
ARC
  5
39
330
31
100
AcDbEntity
  8
0
 62
74
100
AcDbCircle
 10
1463.012080733425
 20
1097.376661582589
 30
0.0
 40
10.0
100
AcDbArc
 50
90.0
 51
180.0
  0
LINE
  5
3A
330
31
100
AcDbEntity
  8
00
 62
74
370
5
100
AcDbLine
 10
1624.012080733425
 20
1171.376661582603
 30
0.0
 11
1623.012080733512
 21
1172.376661582589
 31
0.0
  0
LINE
  5
3B
330
31
100
AcDbEntity
  8
0
 62
74
370
5
100
AcDbLine
 10
1623.012080733512
 20
1170.376661582588
 30
0.0
 11
1624.012080733425
 21
1171.376661582603
 31
0.0
  0
LINE
  5
3C
330
31
100
AcDbEntity
  8
0
 62
74
370
5
100
AcDbLine
 10
1623.012080733512
 20
1168.376661582589
 30
0.0
 11
1624.012080733425
 21
1169.376661582574
 31
0.0
  0
LINE
  5
3D
330
31
100
AcDbEntity
  8
00
 62
74
370
5
100
AcDbLine
 10
1624.012080733425
 20
1169.376661582574
 30
0.0
 11
1623.012080733512
 21
1170.376661582588
 31
0.0
  0
LINE
  5
3E
330
31
100
AcDbEntity
  8
00
 62
74
370
5
100
AcDbLine
 10
1624.012080733425
 20
1167.376661582603
 30
0.0
 11
1623.012080733512
 21
1168.376661582589
 31
0.0
  0
LINE
  5
3F
330
31
100
AcDbEntity
  8
00
 62
74
370
5
100
AcDbLine
 10
1624.012080733425
 20
1167.376661582603
 30
0.0
 11
1623.012080733512
 21
1168.376661582589
 31
0.0
  0
LINE
  5
40
330
31
100
AcDbEntity
  8
00
 62
74
370
5
100
AcDbLine
 10
1612.012080733513
 20
1171.376661582603
 30
0.0
 11
1613.012080733425
 21
1172.376661582589
 31
0.0
  0
LINE
  5
41
330
31
100
AcDbEntity
  8
0
 62
74
370
5
100
AcDbLine
 10
1613.012080733425
 20
1170.376661582588
 30
0.0
 11
1612.012080733513
 21
1171.376661582603
 31
0.0
  0
LINE
  5
42
330
31
100
AcDbEntity
  8
0
 62
74
370
5
100
AcDbLine
 10
1613.012080733425
 20
1168.376661582589
 30
0.0
 11
1612.012080733513
 21
1169.376661582574
 31
0.0
  0
LINE
  5
43
330
31
100
AcDbEntity
  8
00
 62
74
370
5
100
AcDbLine
 10
1612.012080733513
 20
1169.376661582574
 30
0.0
 11
1613.012080733425
 21
1170.376661582588
 31
0.0
  0
LINE
  5
44
330
31
100
AcDbEntity
  8
00
 62
74
370
5
100
AcDbLine
 10
1612.012080733513
 20
1167.376661582603
 30
0.0
 11
1613.012080733425
 21
1168.376661582589
 31
0.0
  0
LINE
  5
45
330
31
100
AcDbEntity
  8
00
 62
74
370
5
100
AcDbLine
 10
1612.012080733513
 20
1167.376661582603
 30
0.0
 11
1613.012080733425
 21
1168.376661582589
 31
0.0
  0
LINE
  5
46
330
31
100
AcDbEntity
  8
00
 62
74
370
5
100
AcDbLine
 10
1613.012080733425
 20
1172.376661582589
 30
0.0
 11
1623.012080733512
 21
1172.376661582589
 31
0.0
  0
LINE
  5
47
330
31
100
AcDbEntity
  8
0
 62
74
370
5
100
AcDbLine
 10
1623.012080733512
 20
1170.376661582588
 30
0.0
 11
1613.012080733425
 21
1170.376661582588
 31
0.0
  0
LINE
  5
48
330
31
100
AcDbEntity
  8
0
 62
74
370
5
100
AcDbLine
 10
1623.012080733512
 20
1168.376661582589
 30
0.0
 11
1613.012080733425
 21
1168.376661582589
 31
0.0
  0
LINE
  5
49
330
31
100
AcDbEntity
  8
00
 62
74
370
5
100
AcDbLine
 10
1613.012080733425
 20
1170.376661582588
 30
0.0
 11
1623.012080733512
 21
1170.376661582588
 31
0.0
  0
LINE
  5
4A
330
31
100
AcDbEntity
  8
00
 62
74
370
5
100
AcDbLine
 10
1613.012080733425
 20
1168.376661582589
 30
0.0
 11
1623.012080733512
 21
1168.376661582589
 31
0.0
  0
LINE
  5
4B
330
31
100
AcDbEntity
  8
00
 62
74
370
5
100
AcDbLine
 10
1613.012080733425
 20
1168.376661582589
 30
0.0
 11
1623.012080733512
 21
1168.376661582589
 31
0.0
  0
LINE
  5
4C
330
31
100
AcDbEntity
  8
0
 62
74
370
5
100
AcDbLine
 10
1623.012080733512
 20
1151.868351084442
 30
0.0
 11
1623.012080733512
 21
1152.303661582585
 31
0.0
  0
LINE
  5
4D
330
31
100
AcDbEntity
  8
00
 62
74
370
5
100
AcDbLine
 10
1624.012080733425
 20
1165.376661582574
 30
0.0
 11
1623.012080733512
 21
1166.376661582589
 31
0.0
  0
LINE
  5
4E
330
31
100
AcDbEntity
  8
0
 62
74
370
5
100
AcDbLine
 10
1623.012080733512
 20
1164.376661582589
 30
0.0
 11
1624.012080733425
 21
1165.376661582574
 31
0.0
  0
LINE
  5
4F
330
31
100
AcDbEntity
  8
00
 62
74
370
5
100
AcDbLine
 10
1624.012080733425
 20
1163.376661582589
 30
0.0
 11
1623.012080733512
 21
1164.376661582589
 31
0.0
  0
LINE
  5
50
330
31
100
AcDbEntity
  8
00
 62
74
370
5
100
AcDbLine
 10
1624.012080733425
 20
1165.376661582574
 30
0.0
 11
1623.012080733512
 21
1166.376661582589
 31
0.0
  0
LINE
  5
51
330
31
100
AcDbEntity
  8
0
 62
74
370
5
100
AcDbLine
 10
1623.012080733512
 20
1164.376661582589
 30
0.0
 11
1624.012080733425
 21
1165.376661582574
 31
0.0
  0
ARC
  5
52
330
31
100
AcDbEntity
  8
00
 62
74
370
5
100
AcDbCircle
 10
1625.887080733425
 20
1157.533380827954
 30
0.0
 40
2.773099431950476
100
AcDbArc
 50
18.8097763490431
 51
161.1902236509568
  0
ARC
  5
53
330
31
100
AcDbEntity
  8
00
 62
74
370
5
100
AcDbCircle
 10
1625.887080733425
 20
1155.073942337215
 30
0.0
 40
2.773099431950476
100
AcDbArc
 50
198.8097763490431
 51
341.1902236509569
  0
LINE
  5
54
330
31
100
AcDbEntity
  8
00
 62
74
370
5
100
AcDbLine
 10
1623.262080733512
 20
1154.17981960543
 30
0.0
 11
1623.262080733512
 21
1158.427503559724
 31
0.0
  0
LINE
  5
55
330
31
100
AcDbEntity
  8
00
 62
74
370
5
100
AcDbLine
 10
1628.512080733512
 20
1158.427503559724
 30
0.0
 11
1628.512080733512
 21
1154.17981960543
 31
0.0
  0
LINE
  5
56
330
31
100
AcDbEntity
  8
0
 62
74
370
5
100
AcDbLine
 10
1623.012080733512
 20
1160.376661582589
 30
0.0
 11
1624.012080733425
 21
1161.376661582574
 31
0.0
  0
LINE
  5
57
330
31
100
AcDbEntity
  8
00
 62
74
370
5
100
AcDbLine
 10
1624.012080733425
 20
1161.376661582574
 30
0.0
 11
1623.012080733512
 21
1162.376661582588
 31
0.0
  0
LINE
  5
58
330
31
100
AcDbEntity
  8
00
 62
74
370
5
100
AcDbLine
 10
1624.012080733425
 20
1160.303661582585
 30
0.0
 11
1624.012080733425
 21
1161.376661582574
 31
0.0
  0
LINE
  5
59
330
31
100
AcDbEntity
  8
0
 62
74
370
5
100
AcDbLine
 10
1623.012080733512
 20
1162.376661582588
 30
0.0
 11
1624.012080733425
 21
1163.376661582589
 31
0.0
  0
LINE
  5
5A
330
31
100
AcDbEntity
  8
0
 62
74
370
5
100
AcDbLine
 10
1623.997854143025
 20
1148.854124494028
 30
0.0
 11
1624.012080733425
 21
1148.868351084443
 31
0.0
  0
LINE
  5
5B
330
31
100
AcDbEntity
  8
0
 62
74
370
5
100
AcDbLine
 10
1623.997854143025
 20
1148.854124494028
 30
0.0
 11
1624.012080733425
 21
1148.868351084443
 31
0.0
  0
LINE
  5
5C
330
31
100
AcDbEntity
  8
0
 62
74
370
5
100
AcDbLine
 10
1625.762080733425
 20
1148.854124494028
 30
0.0
 11
1623.512080733513
 21
1148.854124494028
 31
0.0
  0
LINE
  5
5D
330
31
100
AcDbEntity
  8
0
 62
74
370
5
100
AcDbLine
 10
1625.762080733425
 20
1146.854124494014
 30
0.0
 11
1623.512080733513
 21
1146.854124494014
 31
0.0
  0
ARC
  5
5E
330
31
100
AcDbEntity
  8
0
 62
74
370
5
100
AcDbCircle
 10
1627.572360812622
 20
1147.854124494029
 30
0.0
 40
0.5
100
AcDbArc
 50
270.0
 51
90.0
  0
LINE
  5
5F
330
31
100
AcDbEntity
  8
0
 62
74
370
5
100
AcDbLine
 10
1627.572360812622
 20
1148.354124494028
 30
0.0
 11
1625.762080733425
 21
1148.854124494028
 31
0.0
  0
LINE
  5
60
330
31
100
AcDbEntity
  8
0
 62
74
370
5
100
AcDbLine
 10
1627.572360812622
 20
1147.354124494028
 30
0.0
 11
1625.762080733425
 21
1146.854124494014
 31
0.0
  0
LINE
  5
61
330
31
100
AcDbEntity
  8
0
 62
74
370
5
100
AcDbLine
 10
1623.012080733512
 20
1149.868351084442
 30
0.0
 11
1624.012080733425
 21
1150.868351084428
 31
0.0
  0
LINE
  5
62
330
31
100
AcDbEntity
  8
00
 62
74
370
5
100
AcDbLine
 10
1624.012080733425
 20
1150.868351084428
 30
0.0
 11
1623.012080733512
 21
1151.868351084442
 31
0.0
  0
LINE
  5
63
330
31
100
AcDbEntity
  8
0
 62
74
370
5
100
AcDbLine
 10
1623.012080733512
 20
1145.868351084443
 30
0.0
 11
1624.012080733425
 21
1146.868351084428
 31
0.0
  0
LINE
  5
64
330
31
100
AcDbEntity
  8
00
 62
74
370
5
100
AcDbLine
 10
1624.012080733425
 20
1148.868351084443
 30
0.0
 11
1623.012080733512
 21
1149.868351084442
 31
0.0
  0
LINE
  5
65
330
31
100
AcDbEntity
  8
0
 62
74
370
5
100
AcDbLine
 10
1623.012080733512
 20
1145.868351084443
 30
0.0
 11
1624.012080733425
 21
1146.868351084428
 31
0.0
  0
LINE
  5
66
330
31
100
AcDbEntity
  8
00
 62
74
370
5
100
AcDbLine
 10
1624.012080733425
 20
1148.868351084443
 30
0.0
 11
1623.012080733512
 21
1149.868351084442
 31
0.0
  0
ARC
  5
67
330
31
100
AcDbEntity
  8
00
 62
74
370
5
100
AcDbCircle
 10
1625.887080733425
 20
1143.098070329812
 30
0.0
 40
2.773099431950476
100
AcDbArc
 50
18.8097763490431
 51
161.1902236509568
  0
ARC
  5
68
330
31
100
AcDbEntity
  8
00
 62
74
370
5
100
AcDbCircle
 10
1625.887080733425
 20
1140.638631839058
 30
0.0
 40
2.773099431950476
100
AcDbArc
 50
198.8097763490431
 51
341.1902236509569
  0
ARC
  5
69
330
31
100
AcDbEntity
  8
00
 62
74
370
5
100
AcDbCircle
 10
1625.887080733425
 20
1140.638631839058
 30
0.0
 40
2.773099431950476
100
AcDbArc
 50
198.8097763490431
 51
341.1902236509569
  0
LINE
  5
6A
330
31
100
AcDbEntity
  8
0
 62
74
100
AcDbLine
 10
1624.024799983331
 20
1138.583883468309
 30
0.0
 11
1624.025540840428
 21
1137.868351084428
 31
0.0
  0
LINE
  5
6B
330
31
100
AcDbEntity
  8
00
 62
74
370
5
100
AcDbLine
 10
1628.512080733512
 20
1143.992193061582
 30
0.0
 11
1628.512080733512
 21
1139.744509107288
 31
0.0
  0
LINE
  5
6C
330
31
100
AcDbEntity
  8
00
 62
74
370
5
100
AcDbLine
 10
1623.262080733512
 20
1139.744509107288
 30
0.0
 11
1623.262080733512
 21
1143.992193061568
 31
0.0
  0
LINE
  5
6D
330
31
100
AcDbEntity
  8
0
 62
74
370
5
100
AcDbLine
 10
1628.512080733512
 20
1139.744509107332
 30
0.0
 11
1628.512080733512
 21
1143.992193061582
 31
0.0
  0
LINE
  5
6E
330
31
100
AcDbEntity
  8
00
 62
74
370
5
100
AcDbLine
 10
1628.512080733425
 20
1139.744509107288
 30
0.0
 11
1628.512080733425
 21
1143.992193061611
 31
0.0
  0
LINE
  5
6F
330
31
100
AcDbEntity
  8
0
 62
74
370
5
100
AcDbLine
 10
1613.012080733425
 20
1151.868351084442
 30
0.0
 11
1613.012080733425
 21
1152.303661582585
 31
0.0
  0
LINE
  5
70
330
31
100
AcDbEntity
  8
00
 62
74
370
5
100
AcDbLine
 10
1612.012080733513
 20
1165.376661582574
 30
0.0
 11
1613.012080733425
 21
1166.376661582589
 31
0.0
  0
LINE
  5
71
330
31
100
AcDbEntity
  8
0
 62
74
370
5
100
AcDbLine
 10
1613.012080733425
 20
1164.376661582589
 30
0.0
 11
1612.012080733513
 21
1165.376661582574
 31
0.0
  0
LINE
  5
72
330
31
100
AcDbEntity
  8
00
 62
74
370
5
100
AcDbLine
 10
1612.012080733513
 20
1163.376661582589
 30
0.0
 11
1613.012080733425
 21
1164.376661582589
 31
0.0
  0
LINE
  5
73
330
31
100
AcDbEntity
  8
00
 62
74
370
5
100
AcDbLine
 10
1612.012080733513
 20
1165.376661582574
 30
0.0
 11
1613.012080733425
 21
1166.376661582589
 31
0.0
  0
LINE
  5
74
330
31
100
AcDbEntity
  8
0
 62
74
370
5
100
AcDbLine
 10
1613.012080733425
 20
1164.376661582589
 30
0.0
 11
1612.012080733513
 21
1165.376661582574
 31
0.0
  0
ARC
  5
75
330
31
100
AcDbEntity
  8
00
 62
74
370
5
100
AcDbCircle
 10
1610.137080733512
 20
1157.533380827954
 30
0.0
 40
2.773099431950017
100
AcDbArc
 50
18.8097763490431
 51
161.1902236509568
  0
LINE
  5
76
330
31
100
AcDbEntity
  8
00
 62
74
370
5
100
AcDbLine
 10
1612.762080733513
 20
1154.17981960543
 30
0.0
 11
1612.762080733513
 21
1158.427503559724
 31
0.0
  0
ARC
  5
77
330
31
100
AcDbEntity
  8
00
 62
74
370
5
100
AcDbCircle
 10
1610.137080733512
 20
1155.073942337215
 30
0.0
 40
2.773099431950017
100
AcDbArc
 50
198.8097763490431
 51
341.1902236509569
  0
LINE
  5
78
330
31
100
AcDbEntity
  8
00
 62
74
370
5
100
AcDbLine
 10
1607.512080733425
 20
1158.427503559724
 30
0.0
 11
1607.512080733425
 21
1154.179819605459
 31
0.0
  0
LINE
  5
79
330
31
100
AcDbEntity
  8
0
 62
74
370
5
100
AcDbLine
 10
1613.012080733425
 20
1160.376661582589
 30
0.0
 11
1612.012080733513
 21
1161.376661582574
 31
0.0
  0
LINE
  5
7A
330
31
100
AcDbEntity
  8
00
 62
74
370
5
100
AcDbLine
 10
1612.012080733513
 20
1161.376661582574
 30
0.0
 11
1613.012080733425
 21
1162.376661582588
 31
0.0
  0
LINE
  5
7B
330
31
100
AcDbEntity
  8
0
 62
74
370
5
100
AcDbLine
 10
1613.012080733425
 20
1162.376661582588
 30
0.0
 11
1612.012080733513
 21
1163.376661582589
 31
0.0
  0
LINE
  5
7C
330
31
100
AcDbEntity
  8
0
 62
74
370
5
100
AcDbLine
 10
1612.026307323941
 20
1148.854124494028
 30
0.0
 11
1612.012080733513
 21
1148.868351084443
 31
0.0
  0
LINE
  5
7D
330
31
100
AcDbEntity
  8
0
 62
74
370
5
100
AcDbLine
 10
1612.026307323941
 20
1148.854124494028
 30
0.0
 11
1612.012080733513
 21
1148.868351084443
 31
0.0
  0
LINE
  5
7E
330
31
100
AcDbEntity
  8
0
 62
74
370
5
100
AcDbLine
 10
1610.262080733425
 20
1148.854124494028
 30
0.0
 11
1612.512080733425
 21
1148.854124494028
 31
0.0
  0
LINE
  5
7F
330
31
100
AcDbEntity
  8
0
 62
74
370
5
100
AcDbLine
 10
1612.512080733425
 20
1146.854124494014
 30
0.0
 11
1610.262080733425
 21
1146.854124494014
 31
0.0
  0
ARC
  5
80
330
31
100
AcDbEntity
  8
0
 62
74
370
5
100
AcDbCircle
 10
1608.469029596535
 20
1147.854124494029
 30
0.0
 40
0.5
100
AcDbArc
 50
102.2459918914671
 51
257.7540081085328
  0
LINE
  5
81
330
31
100
AcDbEntity
  8
0
 62
74
370
5
100
AcDbLine
 10
1610.262080733425
 20
1148.854124494028
 30
0.0
 11
1608.362974941724
 21
1148.342747467454
 31
0.0
  0
LINE
  5
82
330
31
100
AcDbEntity
  8
0
 62
74
370
5
100
AcDbLine
 10
1610.262080733425
 20
1146.854124494014
 30
0.0
 11
1608.362974941724
 21
1147.365501520574
 31
0.0
  0
LINE
  5
83
330
31
100
AcDbEntity
  8
0
 62
74
370
5
100
AcDbLine
 10
1613.012080733425
 20
1149.868351084442
 30
0.0
 11
1612.012080733513
 21
1150.868351084428
 31
0.0
  0
LINE
  5
84
330
31
100
AcDbEntity
  8
00
 62
74
370
5
100
AcDbLine
 10
1612.012080733513
 20
1150.868351084428
 30
0.0
 11
1613.012080733425
 21
1151.868351084442
 31
0.0
  0
LINE
  5
85
330
31
100
AcDbEntity
  8
00
 62
74
370
5
100
AcDbLine
 10
1612.012080733513
 20
1148.868351084443
 30
0.0
 11
1613.012080733425
 21
1149.868351084442
 31
0.0
  0
LINE
  5
86
330
31
100
AcDbEntity
  8
0
 62
74
370
5
100
AcDbLine
 10
1613.012080733425
 20
1145.868351084443
 30
0.0
 11
1612.012080733513
 21
1146.868351084428
 31
0.0
  0
LINE
  5
87
330
31
100
AcDbEntity
  8
00
 62
74
370
5
100
AcDbLine
 10
1612.012080733513
 20
1148.868351084443
 30
0.0
 11
1613.012080733425
 21
1149.868351084442
 31
0.0
  0
ARC
  5
88
330
31
100
AcDbEntity
  8
00
 62
74
370
5
100
AcDbCircle
 10
1610.137080733512
 20
1143.098070329812
 30
0.0
 40
2.773099431950017
100
AcDbArc
 50
18.8097763490431
 51
161.1902236509568
  0
ARC
  5
89
330
31
100
AcDbEntity
  8
00
 62
74
370
5
100
AcDbCircle
 10
1610.137080733425
 20
1140.638631839058
 30
0.0
 40
2.773099431950017
100
AcDbArc
 50
198.8097763490431
 51
341.1902236509569
  0
ARC
  5
8A
330
31
100
AcDbEntity
  8
00
 62
74
370
5
100
AcDbCircle
 10
1610.137080733512
 20
1140.638631839058
 30
0.0
 40
2.773099431950017
100
AcDbArc
 50
198.8097763490431
 51
341.1902236509569
  0
LINE
  5
8B
330
31
100
AcDbEntity
  8
0
 62
74
100
AcDbLine
 10
1612.012080733513
 20
1138.595483420723
 30
0.0
 11
1612.012080733513
 21
1137.868351084428
 31
0.0
  0
LINE
  5
8C
330
31
100
AcDbEntity
  8
00
 62
74
370
5
100
AcDbLine
 10
1607.512080733425
 20
1143.992193061568
 30
0.0
 11
1607.512080733425
 21
1139.744509107303
 31
0.0
  0
LINE
  5
8D
330
31
100
AcDbEntity
  8
00
 62
74
370
5
100
AcDbLine
 10
1612.762080733513
 20
1139.744509107288
 30
0.0
 11
1612.762080733513
 21
1143.992193061568
 31
0.0
  0
LINE
  5
8E
330
31
100
AcDbEntity
  8
00
 62
74
370
5
100
AcDbLine
 10
1607.512080733425
 20
1139.744509107303
 30
0.0
 11
1607.512080733425
 21
1143.992193061568
 31
0.0
  0
LINE
  5
8F
330
31
100
AcDbEntity
  8
0
 62
74
370
5
100
AcDbLine
 10
1607.512080733425
 20
1139.744509107245
 30
0.0
 11
1607.512080733425
 21
1143.992193061568
 31
0.0
  0
LINE
  5
90
330
31
100
AcDbEntity
  8
00
 62
74
370
5
100
AcDbLine
 10
1613.012080733425
 20
1166.376661582589
 30
0.0
 11
1623.012080733512
 21
1166.376661582589
 31
0.0
  0
LINE
  5
91
330
31
100
AcDbEntity
  8
0
 62
74
370
5
100
AcDbLine
 10
1623.012080733512
 20
1164.376661582589
 30
0.0
 11
1613.012080733425
 21
1164.376661582589
 31
0.0
  0
LINE
  5
92
330
31
100
AcDbEntity
  8
0
 62
74
370
5
100
AcDbLine
 10
1623.012080733512
 20
1166.376661582589
 30
0.0
 11
1613.012080733425
 21
1166.376661582589
 31
0.0
  0
LINE
  5
93
330
31
100
AcDbEntity
  8
00
 62
74
370
5
100
AcDbLine
 10
1613.012080733425
 20
1164.376661582589
 30
0.0
 11
1623.012080733512
 21
1164.376661582589
 31
0.0
  0
LINE
  5
94
330
31
100
AcDbEntity
  8
00
 62
74
370
5
100
AcDbLine
 10
1613.012080733425
 20
1166.376661582589
 30
0.0
 11
1623.012080733512
 21
1166.376661582589
 31
0.0
  0
LINE
  5
95
330
31
100
AcDbEntity
  8
0
 62
74
370
5
100
AcDbLine
 10
1623.012080733512
 20
1164.376661582589
 30
0.0
 11
1613.012080733425
 21
1164.376661582589
 31
0.0
  0
LINE
  5
96
330
31
100
AcDbEntity
  8
0
 62
74
370
5
100
AcDbLine
 10
1623.012080733512
 20
1166.376661582589
 30
0.0
 11
1613.012080733425
 21
1166.376661582589
 31
0.0
  0
ARC
  5
97
330
31
100
AcDbEntity
  8
00
 62
74
370
5
100
AcDbCircle
 10
1618.012080733425
 20
1152.020119218855
 30
0.0
 40
8.283542363731021
100
AcDbArc
 50
50.66993661763213
 51
129.3300633823679
  0
ARC
  5
98
330
31
100
AcDbEntity
  8
00
 62
74
370
5
100
AcDbCircle
 10
1618.012080733425
 20
1160.587203946314
 30
0.0
 40
8.283542363731021
100
AcDbArc
 50
230.6699366176321
 51
309.3300633823679
  0
LINE
  5
99
330
31
100
AcDbEntity
  8
00
 62
74
370
5
100
AcDbLine
 10
1626.012080733425
 20
1152.303661582585
 30
0.0
 11
1610.012080733425
 21
1152.303661582585
 31
0.0
  0
LINE
  5
9A
330
31
100
AcDbEntity
  8
0
 62
74
370
5
100
AcDbLine
 10
1623.012080733512
 20
1162.376661582588
 30
0.0
 11
1613.012080733425
 21
1162.376661582588
 31
0.0
  0
LINE
  5
9B
330
31
100
AcDbEntity
  8
0
 62
74
370
5
100
AcDbLine
 10
1623.012080733512
 20
1160.376661582589
 30
0.0
 11
1613.012080733425
 21
1160.376661582589
 31
0.0
  0
LINE
  5
9C
330
31
100
AcDbEntity
  8
00
 62
74
370
5
100
AcDbLine
 10
1613.012080733425
 20
1162.376661582588
 30
0.0
 11
1623.012080733512
 21
1162.376661582588
 31
0.0
  0
LINE
  5
9D
330
31
100
AcDbEntity
  8
00
 62
74
370
5
100
AcDbLine
 10
1610.012080733425
 20
1160.303661582585
 30
0.0
 11
1624.025540840428
 21
1160.303661582585
 31
0.0
  0
LINE
  5
9E
330
31
100
AcDbEntity
  8
00
 62
74
370
5
100
AcDbLine
 10
1626.012080733512
 20
1160.303661582585
 30
0.0
 11
1610.012080733425
 21
1160.303661582585
 31
0.0
  0
HATCH
  5
9F
330
31
100
AcDbEntity
  8
0
 62
74
370
5
100
AcDbHatch
 10
0.0
 20
0.0
 30
0.0
210
0.0
220
0.0
230
1.0
  2
ANSI31
 70
0
 71
0
 91
1
 92
7
 72
1
 73
1
 93
10
 10
1627.572360812622
 20
1148.354124494028
 42
0.0
 10
1625.762080733425
 20
1148.854124494028
 42
0.0
 10
1623.512080733513
 20
1148.854124494028
 42
0.0
 10
1610.262080733425
 20
1148.854124494028
 42
0.0
 10
1608.315389099932
 20
1148.329933907328
 42
0.7279374760151648
 10
1608.315389099932
 20
1147.378315080671
 42
0.0
 10
1610.262080733425
 20
1146.854124494014
 42
0.0
 10
1612.512080733425
 20
1146.854124494014
 42
0.0
 10
1625.762080733425
 20
1146.854124494014
 42
0.0
 10
1627.572360812622
 20
1147.354124494028
 42
1.0
 97
0
 75
0
 76
1
 52
0.0
 41
20.0
 77
0
 78
1
 53
45.0
 43
543.9715507518205
 44
171.6187235244003
 45
-1.767766952966368
 46
1.767766952966368
 79
0
 47
0.1260975072300712
 98
1
 10
1619.342993092048
 20
1147.524070587475
  0
LINE
  5
A0
330
31
100
AcDbEntity
  8
0
 62
74
370
5
100
AcDbLine
 10
1610.262080733425
 20
1148.854124494028
 30
0.0
 11
1625.762080733425
 21
1148.854124494028
 31
0.0
  0
LINE
  5
A1
330
31
100
AcDbEntity
  8
0
 62
74
370
5
100
AcDbLine
 10
1625.762080733425
 20
1146.854124494014
 30
0.0
 11
1610.262080733425
 21
1146.854124494014
 31
0.0
  0
LINE
  5
A2
330
31
100
AcDbEntity
  8
0
 62
74
370
5
100
AcDbLine
 10
1623.012080733512
 20
1151.868351084442
 30
0.0
 11
1613.012080733425
 21
1151.868351084442
 31
0.0
  0
LINE
  5
A3
330
31
100
AcDbEntity
  8
0
 62
74
370
5
100
AcDbLine
 10
1623.012080733512
 20
1149.868351084442
 30
0.0
 11
1613.012080733425
 21
1149.868351084442
 31
0.0
  0
LINE
  5
A4
330
31
100
AcDbEntity
  8
00
 62
74
370
5
100
AcDbLine
 10
1613.012080733425
 20
1151.868351084442
 30
0.0
 11
1623.012080733512
 21
1151.868351084442
 31
0.0
  0
LINE
  5
A5
330
31
100
AcDbEntity
  8
0
 62
74
370
5
100
AcDbLine
 10
1623.012080733512
 20
1145.868351084443
 30
0.0
 11
1613.012080733425
 21
1145.868351084443
 31
0.0
  0
LINE
  5
A6
330
31
100
AcDbEntity
  8
00
 62
74
370
5
100
AcDbLine
 10
1613.012080733425
 20
1149.868351084442
 30
0.0
 11
1623.012080733512
 21
1149.868351084442
 31
0.0
  0
LINE
  5
A7
330
31
100
AcDbEntity
  8
00
 62
74
370
5
100
AcDbLine
 10
1613.012080733425
 20
1145.868351084443
 30
0.0
 11
1623.012080733512
 21
1145.868351084443
 31
0.0
  0
LINE
  5
A8
330
31
100
AcDbEntity
  8
0
 62
74
370
5
100
AcDbLine
 10
1623.012080733512
 20
1145.868351084443
 30
0.0
 11
1613.012080733425
 21
1145.868351084443
 31
0.0
  0
LINE
  5
A9
330
31
100
AcDbEntity
  8
00
 62
74
370
5
100
AcDbLine
 10
1613.012080733425
 20
1149.868351084442
 30
0.0
 11
1623.012080733512
 21
1149.868351084442
 31
0.0
  0
ARC
  5
AA
330
31
100
AcDbEntity
  8
00
 62
74
370
5
100
AcDbCircle
 10
1618.012080733425
 20
1146.151893448172
 30
0.0
 40
8.283542363731021
100
AcDbArc
 50
230.6699366176321
 51
309.3300633823679
  0
LINE
  5
AB
330
31
100
AcDbEntity
  8
00
 62
74
370
5
100
AcDbLine
 10
1611.998620626539
 20
1137.868351084428
 30
0.0
 11
1624.025540840428
 21
1137.868351084428
 31
0.0
  0
LINE
  5
AC
330
31
100
AcDbEntity
  8
00
 62
74
370
5
100
AcDbLine
 10
1626.012080733425
 20
1137.868351084428
 30
0.0
 11
1610.012080733425
 21
1137.868351084428
 31
0.0
  0
ARC
  5
AD
330
31
100
AcDbEntity
  8
00
 62
74
370
5
100
AcDbCircle
 10
1618.012080733425
 20
1146.151893448172
 30
0.0
 40
8.283542363731021
100
AcDbArc
 50
230.6699366176321
 51
309.3300633823679
  0
LINE
  5
AE
330
31
100
AcDbEntity
  8
00
 62
74
370
5
100
AcDbLine
 10
1626.012080733512
 20
1145.868351084443
 30
0.0
 11
1610.012080733425
 21
1145.868351084443
 31
0.0
  0
ARC
  5
AF
330
31
100
AcDbEntity
  8
00
 62
74
370
5
100
AcDbCircle
 10
1618.012080733425
 20
1137.584808720727
 30
0.0
 40
8.283542363731021
100
AcDbArc
 50
50.66993661763213
 51
129.3300633823679
  0
LINE
  5
B0
330
31
100
AcDbEntity
  8
00
 62
74
370
5
100
AcDbLine
 10
1610.012080733425
 20
1145.868351084443
 30
0.0
 11
1624.025540840428
 21
1145.868351084443
 31
0.0
  0
LINE
  5
B1
330
31
100
AcDbEntity
  8
00
 62
74
370
5
100
AcDbLine
 10
1626.012080733425
 20
1137.868351084428
 30
0.0
 11
1610.012080733512
 21
1137.868351084428
 31
0.0
  0
LINE
  5
B2
330
31
100
AcDbEntity
  8
0
 62
74
370
5
100
AcDbLine
 10
1633.012080733425
 20
1137.868351084428
 30
0.0
 11
1603.012080733425
 21
1137.868351084428
 31
0.0
  0
LINE
  5
B3
330
31
100
AcDbEntity
  8
0
 62
74
370
5
100
AcDbLine
 10
1613.012080733425
 20
1166.376661582589
 30
0.0
 11
1612.012080733513
 21
1167.376661582603
 31
0.0
  0
LINE
  5
B4
330
31
100
AcDbEntity
  8
0
 62
74
370
5
100
AcDbLine
 10
1613.012080733425
 20
1166.376661582589
 30
0.0
 11
1612.012080733513
 21
1167.376661582603
 31
0.0
  0
LINE
  5
B5
330
31
100
AcDbEntity
  8
0
 62
74
370
5
100
AcDbLine
 10
1623.012080733512
 20
1166.376661582589
 30
0.0
 11
1624.012080733425
 21
1167.376661582603
 31
0.0
  0
LINE
  5
B6
330
31
100
AcDbEntity
  8
0
 62
74
370
5
100
AcDbLine
 10
1623.012080733512
 20
1166.376661582589
 30
0.0
 11
1624.012080733425
 21
1167.376661582603
 31
0.0
  0
LINE
  5
B7
330
31
100
AcDbEntity
  8
00
 62
74
370
5
100
AcDbLine
 10
1548.012080733513
 20
1172.376661582589
 30
0.0
 11
1558.012080733513
 21
1172.376661582589
 31
0.0
  0
LINE
  5
B8
330
31
100
AcDbEntity
  8
0
 62
74
370
5
100
AcDbLine
 10
1558.012080733513
 20
1170.376661582588
 30
0.0
 11
1548.012080733513
 21
1170.376661582588
 31
0.0
  0
LINE
  5
B9
330
31
100
AcDbEntity
  8
0
 62
74
370
5
100
AcDbLine
 10
1558.012080733513
 20
1168.376661582589
 30
0.0
 11
1548.012080733513
 21
1168.376661582589
 31
0.0
  0
LINE
  5
BA
330
31
100
AcDbEntity
  8
00
 62
74
370
5
100
AcDbLine
 10
1548.012080733513
 20
1170.376661582588
 30
0.0
 11
1558.012080733513
 21
1170.376661582588
 31
0.0
  0
LINE
  5
BB
330
31
100
AcDbEntity
  8
00
 62
74
370
5
100
AcDbLine
 10
1548.012080733513
 20
1168.376661582589
 30
0.0
 11
1558.012080733513
 21
1168.376661582589
 31
0.0
  0
LINE
  5
BC
330
31
100
AcDbEntity
  8
00
 62
74
370
5
100
AcDbLine
 10
1548.012080733513
 20
1168.376661582589
 30
0.0
 11
1558.012080733513
 21
1168.376661582589
 31
0.0
  0
LINE
  5
BD
330
31
100
AcDbEntity
  8
00
 62
74
370
5
100
AcDbLine
 10
1547.012080733512
 20
1171.376661582603
 30
0.0
 11
1548.012080733513
 21
1172.376661582589
 31
0.0
  0
LINE
  5
BE
330
31
100
AcDbEntity
  8
0
 62
74
370
5
100
AcDbLine
 10
1548.012080733513
 20
1170.376661582588
 30
0.0
 11
1547.012080733512
 21
1171.376661582603
 31
0.0
  0
LINE
  5
BF
330
31
100
AcDbEntity
  8
0
 62
74
370
5
100
AcDbLine
 10
1548.012080733513
 20
1168.376661582589
 30
0.0
 11
1547.012080733512
 21
1169.376661582574
 31
0.0
  0
LINE
  5
C0
330
31
100
AcDbEntity
  8
00
 62
74
370
5
100
AcDbLine
 10
1547.012080733512
 20
1169.376661582574
 30
0.0
 11
1548.012080733513
 21
1170.376661582588
 31
0.0
  0
LINE
  5
C1
330
31
100
AcDbEntity
  8
00
 62
74
370
5
100
AcDbLine
 10
1547.012080733512
 20
1167.376661582603
 30
0.0
 11
1548.012080733513
 21
1168.376661582589
 31
0.0
  0
LINE
  5
C2
330
31
100
AcDbEntity
  8
00
 62
74
370
5
100
AcDbLine
 10
1547.012080733512
 20
1167.376661582603
 30
0.0
 11
1548.012080733513
 21
1168.376661582589
 31
0.0
  0
LINE
  5
C3
330
31
100
AcDbEntity
  8
00
 62
74
370
5
100
AcDbLine
 10
1559.012080733425
 20
1171.376661582603
 30
0.0
 11
1558.012080733513
 21
1172.376661582589
 31
0.0
  0
LINE
  5
C4
330
31
100
AcDbEntity
  8
0
 62
74
370
5
100
AcDbLine
 10
1558.012080733513
 20
1170.376661582588
 30
0.0
 11
1559.012080733425
 21
1171.376661582603
 31
0.0
  0
LINE
  5
C5
330
31
100
AcDbEntity
  8
0
 62
74
370
5
100
AcDbLine
 10
1558.012080733513
 20
1168.376661582589
 30
0.0
 11
1559.012080733425
 21
1169.376661582574
 31
0.0
  0
LINE
  5
C6
330
31
100
AcDbEntity
  8
00
 62
74
370
5
100
AcDbLine
 10
1559.012080733425
 20
1169.376661582574
 30
0.0
 11
1558.012080733513
 21
1170.376661582588
 31
0.0
  0
LINE
  5
C7
330
31
100
AcDbEntity
  8
00
 62
74
370
5
100
AcDbLine
 10
1559.012080733425
 20
1167.376661582603
 30
0.0
 11
1558.012080733513
 21
1168.376661582589
 31
0.0
  0
LINE
  5
C8
330
31
100
AcDbEntity
  8
00
 62
74
370
5
100
AcDbLine
 10
1559.012080733425
 20
1167.376661582603
 30
0.0
 11
1558.012080733513
 21
1168.376661582589
 31
0.0
  0
LINE
  5
C9
330
31
100
AcDbEntity
  8
00
 62
74
370
5
100
AcDbLine
 10
1563.512080733512
 20
1158.427503559724
 30
0.0
 11
1563.512080733512
 21
1154.17981960543
 31
0.0
  0
ARC
  5
CA
330
31
100
AcDbEntity
  8
0
 62
74
370
5
100
AcDbCircle
 10
1562.572360812622
 20
1147.854124494029
 30
0.0
 40
0.5
100
AcDbArc
 50
270.0
 51
90.0
  0
LINE
  5
CB
330
31
100
AcDbEntity
  8
0
 62
74
370
5
100
AcDbLine
 10
1558.012080733513
 20
1151.868351084442
 30
0.0
 11
1558.012080733513
 21
1152.303661582585
 31
0.0
  0
LINE
  5
CC
330
31
100
AcDbEntity
  8
0
 62
74
370
5
100
AcDbLine
 10
1548.012080733513
 20
1151.868351084442
 30
0.0
 11
1548.012080733513
 21
1152.303661582585
 31
0.0
  0
LINE
  5
CD
330
31
100
AcDbEntity
  8
00
 62
74
370
5
100
AcDbLine
 10
1548.012080733513
 20
1166.376661582589
 30
0.0
 11
1558.012080733513
 21
1166.376661582589
 31
0.0
  0
LINE
  5
CE
330
31
100
AcDbEntity
  8
0
 62
74
370
5
100
AcDbLine
 10
1558.012080733513
 20
1164.376661582589
 30
0.0
 11
1548.012080733513
 21
1164.376661582589
 31
0.0
  0
LINE
  5
CF
330
31
100
AcDbEntity
  8
0
 62
74
370
5
100
AcDbLine
 10
1558.012080733513
 20
1166.376661582589
 30
0.0
 11
1548.012080733513
 21
1166.376661582589
 31
0.0
  0
LINE
  5
D0
330
31
100
AcDbEntity
  8
00
 62
74
370
5
100
AcDbLine
 10
1548.012080733513
 20
1164.376661582589
 30
0.0
 11
1558.012080733513
 21
1164.376661582589
 31
0.0
  0
LINE
  5
D1
330
31
100
AcDbEntity
  8
00
 62
74
370
5
100
AcDbLine
 10
1548.012080733513
 20
1166.376661582589
 30
0.0
 11
1558.012080733513
 21
1166.376661582589
 31
0.0
  0
LINE
  5
D2
330
31
100
AcDbEntity
  8
0
 62
74
370
5
100
AcDbLine
 10
1558.012080733513
 20
1164.376661582589
 30
0.0
 11
1548.012080733513
 21
1164.376661582589
 31
0.0
  0
LINE
  5
D3
330
31
100
AcDbEntity
  8
0
 62
74
370
5
100
AcDbLine
 10
1558.012080733513
 20
1166.376661582589
 30
0.0
 11
1548.012080733513
 21
1166.376661582589
 31
0.0
  0
LINE
  5
D4
330
31
100
AcDbEntity
  8
00
 62
74
370
5
100
AcDbLine
 10
1547.012080733512
 20
1165.376661582574
 30
0.0
 11
1548.012080733513
 21
1166.376661582589
 31
0.0
  0
LINE
  5
D5
330
31
100
AcDbEntity
  8
0
 62
74
370
5
100
AcDbLine
 10
1548.012080733513
 20
1164.376661582589
 30
0.0
 11
1547.012080733512
 21
1165.376661582574
 31
0.0
  0
LINE
  5
D6
330
31
100
AcDbEntity
  8
00
 62
74
370
5
100
AcDbLine
 10
1547.012080733512
 20
1163.376661582589
 30
0.0
 11
1548.012080733513
 21
1164.376661582589
 31
0.0
  0
LINE
  5
D7
330
31
100
AcDbEntity
  8
00
 62
74
370
5
100
AcDbLine
 10
1547.012080733512
 20
1165.376661582574
 30
0.0
 11
1548.012080733513
 21
1166.376661582589
 31
0.0
  0
LINE
  5
D8
330
31
100
AcDbEntity
  8
0
 62
74
370
5
100
AcDbLine
 10
1548.012080733513
 20
1164.376661582589
 30
0.0
 11
1547.012080733512
 21
1165.376661582574
 31
0.0
  0
LINE
  5
D9
330
31
100
AcDbEntity
  8
00
 62
74
370
5
100
AcDbLine
 10
1559.012080733425
 20
1165.376661582574
 30
0.0
 11
1558.012080733513
 21
1166.376661582589
 31
0.0
  0
LINE
  5
DA
330
31
100
AcDbEntity
  8
0
 62
74
370
5
100
AcDbLine
 10
1558.012080733513
 20
1164.376661582589
 30
0.0
 11
1559.012080733425
 21
1165.376661582574
 31
0.0
  0
LINE
  5
DB
330
31
100
AcDbEntity
  8
00
 62
74
370
5
100
AcDbLine
 10
1559.012080733425
 20
1163.376661582589
 30
0.0
 11
1558.012080733513
 21
1164.376661582589
 31
0.0
  0
LINE
  5
DC
330
31
100
AcDbEntity
  8
00
 62
74
370
5
100
AcDbLine
 10
1559.012080733425
 20
1165.376661582574
 30
0.0
 11
1558.012080733513
 21
1166.376661582589
 31
0.0
  0
LINE
  5
DD
330
31
100
AcDbEntity
  8
0
 62
74
370
5
100
AcDbLine
 10
1558.012080733513
 20
1164.376661582589
 30
0.0
 11
1559.012080733425
 21
1165.376661582574
 31
0.0
  0
ARC
  5
DE
330
31
100
AcDbEntity
  8
00
 62
74
370
5
100
AcDbCircle
 10
1553.012080733425
 20
1152.020119218855
 30
0.0
 40
8.283542363731021
100
AcDbArc
 50
50.66993661763213
 51
129.3300633823679
  0
ARC
  5
DF
330
31
100
AcDbEntity
  8
00
 62
74
370
5
100
AcDbCircle
 10
1545.137080733512
 20
1157.533380827954
 30
0.0
 40
2.773099431950017
100
AcDbArc
 50
18.8097763490431
 51
161.1902236509568
  0
ARC
  5
E0
330
31
100
AcDbEntity
  8
00
 62
74
370
5
100
AcDbCircle
 10
1553.012080733425
 20
1160.587203946314
 30
0.0
 40
8.283542363731021
100
AcDbArc
 50
230.6699366176321
 51
309.3300633823679
  0
LINE
  5
E1
330
31
100
AcDbEntity
  8
00
 62
74
370
5
100
AcDbLine
 10
1561.012080733425
 20
1152.303661582585
 30
0.0
 11
1545.012080733425
 21
1152.303661582585
 31
0.0
  0
LINE
  5
E2
330
31
100
AcDbEntity
  8
00
 62
74
370
5
100
AcDbLine
 10
1547.762080733513
 20
1154.17981960543
 30
0.0
 11
1547.762080733513
 21
1158.427503559724
 31
0.0
  0
ARC
  5
E3
330
31
100
AcDbEntity
  8
00
 62
74
370
5
100
AcDbCircle
 10
1545.137080733512
 20
1155.073942337215
 30
0.0
 40
2.773099431950017
100
AcDbArc
 50
198.8097763490431
 51
341.1902236509569
  0
LINE
  5
E4
330
31
100
AcDbEntity
  8
00
 62
74
370
5
100
AcDbLine
 10
1542.512080733425
 20
1158.427503559724
 30
0.0
 11
1542.512080733425
 21
1154.179819605459
 31
0.0
  0
LINE
  5
E5
330
31
100
AcDbEntity
  8
00
 62
74
370
5
100
AcDbLine
 10
1558.262080733425
 20
1154.17981960543
 30
0.0
 11
1558.262080733425
 21
1158.427503559724
 31
0.0
  0
LINE
  5
E6
330
31
100
AcDbEntity
  8
0
 62
74
370
5
100
AcDbLine
 10
1558.012080733513
 20
1162.376661582588
 30
0.0
 11
1548.012080733513
 21
1162.376661582588
 31
0.0
  0
LINE
  5
E7
330
31
100
AcDbEntity
  8
0
 62
74
370
5
100
AcDbLine
 10
1558.012080733513
 20
1160.376661582589
 30
0.0
 11
1548.012080733513
 21
1160.376661582589
 31
0.0
  0
LINE
  5
E8
330
31
100
AcDbEntity
  8
00
 62
74
370
5
100
AcDbLine
 10
1548.012080733513
 20
1162.376661582588
 30
0.0
 11
1558.012080733513
 21
1162.376661582588
 31
0.0
  0
LINE
  5
E9
330
31
100
AcDbEntity
  8
0
 62
74
370
5
100
AcDbLine
 10
1548.012080733513
 20
1160.376661582589
 30
0.0
 11
1547.012080733512
 21
1161.376661582574
 31
0.0
  0
LINE
  5
EA
330
31
100
AcDbEntity
  8
00
 62
74
370
5
100
AcDbLine
 10
1547.012080733512
 20
1161.376661582574
 30
0.0
 11
1548.012080733513
 21
1162.376661582588
 31
0.0
  0
LINE
  5
EB
330
31
100
AcDbEntity
  8
0
 62
74
370
5
100
AcDbLine
 10
1558.012080733513
 20
1160.376661582589
 30
0.0
 11
1559.012080733425
 21
1161.376661582574
 31
0.0
  0
LINE
  5
EC
330
31
100
AcDbEntity
  8
00
 62
74
370
5
100
AcDbLine
 10
1559.012080733425
 20
1161.376661582574
 30
0.0
 11
1558.012080733513
 21
1162.376661582588
 31
0.0
  0
LINE
  5
ED
330
31
100
AcDbEntity
  8
00
 62
74
370
5
100
AcDbLine
 10
1545.012080733425
 20
1160.303661582585
 30
0.0
 11
1559.025540840427
 21
1160.303661582585
 31
0.0
  0
LINE
  5
EE
330
31
100
AcDbEntity
  8
00
 62
74
370
5
100
AcDbLine
 10
1561.012080733513
 20
1160.303661582585
 30
0.0
 11
1545.012080733425
 21
1160.303661582585
 31
0.0
  0
LINE
  5
EF
330
31
100
AcDbEntity
  8
00
 62
74
370
5
100
AcDbLine
 10
1559.012080733425
 20
1160.303661582585
 30
0.0
 11
1559.012080733425
 21
1161.376661582574
 31
0.0
  0
LINE
  5
F0
330
31
100
AcDbEntity
  8
0
 62
74
370
5
100
AcDbLine
 10
1548.012080733513
 20
1162.376661582588
 30
0.0
 11
1547.012080733512
 21
1163.376661582589
 31
0.0
  0
LINE
  5
F1
330
31
100
AcDbEntity
  8
0
 62
74
370
5
100
AcDbLine
 10
1558.012080733513
 20
1162.376661582588
 30
0.0
 11
1559.012080733425
 21
1163.376661582589
 31
0.0
  0
LINE
  5
F2
330
31
100
AcDbEntity
  8
0
 62
74
370
5
100
AcDbLine
 10
1558.997854143026
 20
1148.854124494028
 30
0.0
 11
1559.012080733425
 21
1148.868351084443
 31
0.0
  0
LINE
  5
F3
330
31
100
AcDbEntity
  8
0
 62
74
370
5
100
AcDbLine
 10
1558.997854143026
 20
1148.854124494028
 30
0.0
 11
1559.012080733425
 21
1148.868351084443
 31
0.0
  0
LINE
  5
F4
330
31
100
AcDbEntity
  8
0
 62
74
370
5
100
AcDbLine
 10
1547.026307323941
 20
1148.854124494028
 30
0.0
 11
1547.012080733512
 21
1148.868351084443
 31
0.0
  0
LINE
  5
F5
330
31
100
AcDbEntity
  8
0
 62
74
370
5
100
AcDbLine
 10
1547.026307323941
 20
1148.854124494028
 30
0.0
 11
1547.012080733512
 21
1148.868351084443
 31
0.0
  0
LINE
  5
F6
330
31
100
AcDbEntity
  8
0
 62
74
370
5
100
AcDbLine
 10
1548.012080733513
 20
1145.868351084443
 30
0.0
 11
1548.012080733513
 21
1144.189131100182
 31
0.0
  0
LINE
  5
F7
330
31
100
AcDbEntity
  8
0
 62
74
370
5
100
AcDbLine
 10
1558.012080733425
 20
1145.868351084443
 30
0.0
 11
1558.012080733425
 21
1144.189131100182
 31
0.0
  0
LINE
  5
F8
330
31
100
AcDbEntity
  8
0
 62
74
370
5
100
AcDbLine
 10
1545.262080733425
 20
1148.854124494028
 30
0.0
 11
1560.762080733425
 21
1148.854124494028
 31
0.0
  0
LINE
  5
F9
330
31
100
AcDbEntity
  8
0
 62
74
370
5
100
AcDbLine
 10
1560.762080733425
 20
1146.854124494014
 30
0.0
 11
1545.262080733425
 21
1146.854124494014
 31
0.0
  0
LINE
  5
FA
330
31
100
AcDbEntity
  8
0
 62
74
370
5
100
AcDbLine
 10
1545.262080733425
 20
1148.854124494028
 30
0.0
 11
1547.512080733425
 21
1148.854124494028
 31
0.0
  0
LINE
  5
FB
330
31
100
AcDbEntity
  8
0
 62
74
370
5
100
AcDbLine
 10
1547.512080733425
 20
1146.854124494014
 30
0.0
 11
1545.262080733425
 21
1146.854124494014
 31
0.0
  0
LINE
  5
FC
330
31
100
AcDbEntity
  8
0
 62
74
370
5
100
AcDbLine
 10
1560.762080733425
 20
1148.854124494028
 30
0.0
 11
1558.512080733425
 21
1148.854124494028
 31
0.0
  0
LINE
  5
FD
330
31
100
AcDbEntity
  8
0
 62
74
370
5
100
AcDbLine
 10
1560.762080733425
 20
1146.854124494014
 30
0.0
 11
1558.512080733425
 21
1146.854124494014
 31
0.0
  0
ARC
  5
FE
330
31
100
AcDbEntity
  8
0
 62
74
370
5
100
AcDbCircle
 10
1543.469029596535
 20
1147.854124494029
 30
0.0
 40
0.5
100
AcDbArc
 50
102.2459918914671
 51
257.7540081085328
  0
LINE
  5
FF
330
31
100
AcDbEntity
  8
0
 62
74
370
5
100
AcDbLine
 10
1545.262080733425
 20
1148.854124494028
 30
0.0
 11
1543.362974941724
 21
1148.342747467454
 31
0.0
  0
LINE
  5
100
330
31
100
AcDbEntity
  8
0
 62
74
370
5
100
AcDbLine
 10
1545.262080733425
 20
1146.854124494014
 30
0.0
 11
1543.362974941724
 21
1147.365501520574
 31
0.0
  0
LINE
  5
101
330
31
100
AcDbEntity
  8
0
 62
74
370
5
100
AcDbLine
 10
1558.012080733513
 20
1149.868351084442
 30
0.0
 11
1559.012080733425
 21
1150.868351084428
 31
0.0
  0
LINE
  5
102
330
31
100
AcDbEntity
  8
00
 62
74
370
5
100
AcDbLine
 10
1559.012080733425
 20
1150.868351084428
 30
0.0
 11
1558.012080733513
 21
1151.868351084442
 31
0.0
  0
LINE
  5
103
330
31
100
AcDbEntity
  8
0
 62
74
370
5
100
AcDbLine
 10
1558.012080733513
 20
1145.868351084443
 30
0.0
 11
1559.012080733425
 21
1146.868351084428
 31
0.0
  0
LINE
  5
104
330
31
100
AcDbEntity
  8
00
 62
74
370
5
100
AcDbLine
 10
1559.012080733425
 20
1148.868351084443
 30
0.0
 11
1558.012080733513
 21
1149.868351084442
 31
0.0
  0
LINE
  5
105
330
31
100
AcDbEntity
  8
0
 62
74
370
5
100
AcDbLine
 10
1558.012080733513
 20
1145.868351084443
 30
0.0
 11
1559.012080733425
 21
1146.868351084428
 31
0.0
  0
LINE
  5
106
330
31
100
AcDbEntity
  8
00
 62
74
370
5
100
AcDbLine
 10
1559.012080733425
 20
1148.868351084443
 30
0.0
 11
1558.012080733513
 21
1149.868351084442
 31
0.0
  0
LINE
  5
107
330
31
100
AcDbEntity
  8
0
 62
74
370
5
100
AcDbLine
 10
1548.012080733513
 20
1149.868351084442
 30
0.0
 11
1547.012080733512
 21
1150.868351084428
 31
0.0
  0
LINE
  5
108
330
31
100
AcDbEntity
  8
00
 62
74
370
5
100
AcDbLine
 10
1547.012080733512
 20
1150.868351084428
 30
0.0
 11
1548.012080733513
 21
1151.868351084442
 31
0.0
  0
LINE
  5
109
330
31
100
AcDbEntity
  8
00
 62
74
370
5
100
AcDbLine
 10
1547.012080733512
 20
1148.868351084443
 30
0.0
 11
1548.012080733513
 21
1149.868351084442
 31
0.0
  0
LINE
  5
10A
330
31
100
AcDbEntity
  8
0
 62
74
370
5
100
AcDbLine
 10
1548.012080733513
 20
1145.868351084443
 30
0.0
 11
1547.012080733512
 21
1146.868351084428
 31
0.0
  0
LINE
  5
10B
330
31
100
AcDbEntity
  8
00
 62
74
370
5
100
AcDbLine
 10
1547.012080733512
 20
1148.868351084443
 30
0.0
 11
1548.012080733513
 21
1149.868351084442
 31
0.0
  0
LINE
  5
10C
330
31
100
AcDbEntity
  8
0
 62
74
370
5
100
AcDbLine
 10
1558.012080733513
 20
1151.868351084442
 30
0.0
 11
1548.012080733513
 21
1151.868351084442
 31
0.0
  0
LINE
  5
10D
330
31
100
AcDbEntity
  8
0
 62
74
370
5
100
AcDbLine
 10
1558.012080733513
 20
1149.868351084442
 30
0.0
 11
1548.012080733513
 21
1149.868351084442
 31
0.0
  0
LINE
  5
10E
330
31
100
AcDbEntity
  8
00
 62
74
370
5
100
AcDbLine
 10
1548.012080733513
 20
1151.868351084442
 30
0.0
 11
1558.012080733513
 21
1151.868351084442
 31
0.0
  0
LINE
  5
10F
330
31
100
AcDbEntity
  8
0
 62
74
370
5
100
AcDbLine
 10
1558.012080733513
 20
1145.868351084443
 30
0.0
 11
1548.012080733513
 21
1145.868351084443
 31
0.0
  0
LINE
  5
110
330
31
100
AcDbEntity
  8
00
 62
74
370
5
100
AcDbLine
 10
1548.012080733513
 20
1149.868351084442
 30
0.0
 11
1558.012080733513
 21
1149.868351084442
 31
0.0
  0
LINE
  5
111
330
31
100
AcDbEntity
  8
00
 62
74
370
5
100
AcDbLine
 10
1548.012080733513
 20
1145.868351084443
 30
0.0
 11
1558.012080733513
 21
1145.868351084443
 31
0.0
  0
LINE
  5
112
330
31
100
AcDbEntity
  8
0
 62
74
370
5
100
AcDbLine
 10
1558.012080733513
 20
1145.868351084443
 30
0.0
 11
1548.012080733513
 21
1145.868351084443
 31
0.0
  0
LINE
  5
113
330
31
100
AcDbEntity
  8
00
 62
74
370
5
100
AcDbLine
 10
1548.012080733513
 20
1149.868351084442
 30
0.0
 11
1558.012080733513
 21
1149.868351084442
 31
0.0
  0
LINE
  5
114
330
31
100
AcDbEntity
  8
00
 62
74
370
5
100
AcDbLine
 10
1561.012080733513
 20
1145.868351084443
 30
0.0
 11
1545.012080733425
 21
1145.868351084443
 31
0.0
  0
ARC
  5
115
330
31
100
AcDbEntity
  8
00
 62
74
370
5
100
AcDbCircle
 10
1553.012080733425
 20
1137.584808720727
 30
0.0
 40
8.283542363731021
100
AcDbArc
 50
50.66993661763213
 51
129.3300633823679
  0
LINE
  5
116
330
31
100
AcDbEntity
  8
00
 62
74
370
5
100
AcDbLine
 10
1545.012080733425
 20
1145.868351084443
 30
0.0
 11
1559.025540840427
 21
1145.868351084443
 31
0.0
  0
ARC
  5
117
330
31
100
AcDbEntity
  8
00
 62
74
370
5
100
AcDbCircle
 10
1545.137080733512
 20
1143.098070329812
 30
0.0
 40
2.773099431950017
100
AcDbArc
 50
18.8097763490431
 51
161.1902236509568
  0
ARC
  5
118
330
31
100
AcDbEntity
  8
00
 62
74
370
5
100
AcDbCircle
 10
1560.887080733425
 20
1157.533380827954
 30
0.0
 40
2.773099431950476
100
AcDbArc
 50
18.8097763490431
 51
161.1902236509568
  0
ARC
  5
119
330
31
100
AcDbEntity
  8
00
 62
74
370
5
100
AcDbCircle
 10
1560.887080733425
 20
1155.073942337215
 30
0.0
 40
2.773099431950476
100
AcDbArc
 50
198.8097763490431
 51
341.1902236509569
  0
LINE
  5
11A
330
31
100
AcDbEntity
  8
0
 62
74
370
5
100
AcDbLine
 10
1562.572360812622
 20
1148.354124494028
 30
0.0
 11
1560.762080733425
 21
1148.854124494028
 31
0.0
  0
LINE
  5
11B
330
31
100
AcDbEntity
  8
0
 62
74
370
5
100
AcDbLine
 10
1562.572360812622
 20
1147.354124494028
 30
0.0
 11
1560.762080733425
 21
1146.854124494014
 31
0.0
  0
HATCH
  5
11C
330
31
100
AcDbEntity
  8
0
 62
74
370
5
100
AcDbHatch
 10
0.0
 20
0.0
 30
0.0
210
0.0
220
0.0
230
1.0
  2
ANSI31
 70
0
 71
0
 91
1
 92
7
 72
1
 73
1
 93
10
 10
1562.572360812622
 20
1148.354124494028
 42
0.0
 10
1560.762080733425
 20
1148.854124494028
 42
0.0
 10
1558.512080733425
 20
1148.854124494028
 42
0.0
 10
1545.262080733425
 20
1148.854124494028
 42
0.0
 10
1543.315389099932
 20
1148.329933907328
 42
0.7279374760151648
 10
1543.315389099932
 20
1147.378315080671
 42
0.0
 10
1545.262080733425
 20
1146.854124494014
 42
0.0
 10
1547.512080733425
 20
1146.854124494014
 42
0.0
 10
1560.762080733425
 20
1146.854124494014
 42
0.0
 10
1562.572360812622
 20
1147.354124494028
 42
1.0
 97
0
 75
0
 76
1
 52
0.0
 41
20.0
 77
0
 78
1
 53
45.0
 43
478.9715507518206
 44
171.6187235244003
 45
-1.767766952966368
 46
1.767766952966368
 79
0
 47
0.1260975072300712
 98
1
 10
1554.342993092047
 20
1147.524070587475
  0
ARC
  5
11D
330
31
100
AcDbEntity
  8
00
 62
74
370
5
100
AcDbCircle
 10
1560.887080733425
 20
1143.098070329812
 30
0.0
 40
2.773099431950476
100
AcDbArc
 50
18.8097763490431
 51
161.1902236509568
  0
LINE
  5
11E
330
31
100
AcDbEntity
  8
0
 62
74
370
5
100
AcDbLine
 10
1558.012080733425
 20
1139.547571068717
 30
0.0
 11
1558.012080733425
 21
1137.868351084428
 31
0.0
  0
LINE
  5
11F
330
31
100
AcDbEntity
  8
0
 62
74
370
5
100
AcDbLine
 10
1548.012080733513
 20
1139.547571068717
 30
0.0
 11
1548.012080733513
 21
1137.868351084428
 31
0.0
  0
ARC
  5
120
330
31
100
AcDbEntity
  8
00
 62
74
370
5
100
AcDbCircle
 10
1553.012080733425
 20
1146.151893448172
 30
0.0
 40
8.283542363731021
100
AcDbArc
 50
230.6699366176321
 51
309.3300633823679
  0
LINE
  5
121
330
31
100
AcDbEntity
  8
00
 62
74
370
5
100
AcDbLine
 10
1546.998620626539
 20
1137.868351084428
 30
0.0
 11
1559.025540840427
 21
1137.868351084428
 31
0.0
  0
LINE
  5
122
330
31
100
AcDbEntity
  8
00
 62
74
370
5
100
AcDbLine
 10
1561.012080733425
 20
1137.868351084428
 30
0.0
 11
1545.012080733425
 21
1137.868351084428
 31
0.0
  0
ARC
  5
123
330
31
100
AcDbEntity
  8
00
 62
74
370
5
100
AcDbCircle
 10
1553.012080733425
 20
1146.151893448172
 30
0.0
 40
8.283542363731021
100
AcDbArc
 50
230.6699366176321
 51
309.3300633823679
  0
LINE
  5
124
330
31
100
AcDbEntity
  8
00
 62
74
370
5
100
AcDbLine
 10
1561.012080733425
 20
1137.868351084428
 30
0.0
 11
1545.012080733513
 21
1137.868351084428
 31
0.0
  0
ARC
  5
125
330
31
100
AcDbEntity
  8
00
 62
74
370
5
100
AcDbCircle
 10
1545.137080733425
 20
1140.638631839058
 30
0.0
 40
2.773099431950017
100
AcDbArc
 50
198.8097763490431
 51
341.1902236509569
  0
ARC
  5
126
330
31
100
AcDbEntity
  8
00
 62
74
370
5
100
AcDbCircle
 10
1545.137080733512
 20
1140.638631839058
 30
0.0
 40
2.773099431950017
100
AcDbArc
 50
198.8097763490431
 51
341.1902236509569
  0
ARC
  5
127
330
31
100
AcDbEntity
  8
00
 62
74
370
5
100
AcDbCircle
 10
1560.887080733425
 20
1140.638631839058
 30
0.0
 40
2.773099431950476
100
AcDbArc
 50
198.8097763490431
 51
341.1902236509569
  0
ARC
  5
128
330
31
100
AcDbEntity
  8
00
 62
74
370
5
100
AcDbCircle
 10
1560.887080733425
 20
1140.638631839058
 30
0.0
 40
2.773099431950476
100
AcDbArc
 50
198.8097763490431
 51
341.1902236509569
  0
LINE
  5
129
330
31
100
AcDbEntity
  8
0
 62
74
370
5
100
AcDbLine
 10
1568.012080733425
 20
1137.868351084428
 30
0.0
 11
1538.012080733425
 21
1137.868351084428
 31
0.0
  0
LINE
  5
12A
330
31
100
AcDbEntity
  8
00
 62
74
370
5
100
AcDbLine
 10
1542.512080733425
 20
1143.992193061568
 30
0.0
 11
1542.512080733425
 21
1139.744509107303
 31
0.0
  0
LINE
  5
12B
330
31
100
AcDbEntity
  8
00
 62
74
370
5
100
AcDbLine
 10
1547.762080733513
 20
1139.744509107288
 30
0.0
 11
1547.762080733513
 21
1143.992193061568
 31
0.0
  0
LINE
  5
12C
330
31
100
AcDbEntity
  8
00
 62
74
370
5
100
AcDbLine
 10
1542.512080733425
 20
1139.744509107303
 30
0.0
 11
1542.512080733425
 21
1143.992193061568
 31
0.0
  0
LINE
  5
12D
330
31
100
AcDbEntity
  8
0
 62
74
370
5
100
AcDbLine
 10
1542.512080733425
 20
1139.744509107245
 30
0.0
 11
1542.512080733425
 21
1143.992193061568
 31
0.0
  0
LINE
  5
12E
330
31
100
AcDbEntity
  8
00
 62
74
370
5
100
AcDbLine
 10
1563.512080733512
 20
1143.992193061582
 30
0.0
 11
1563.512080733512
 21
1139.744509107288
 31
0.0
  0
LINE
  5
12F
330
31
100
AcDbEntity
  8
00
 62
74
370
5
100
AcDbLine
 10
1558.262080733425
 20
1139.744509107288
 30
0.0
 11
1558.262080733425
 21
1143.992193061568
 31
0.0
  0
LINE
  5
130
330
31
100
AcDbEntity
  8
0
 62
74
370
5
100
AcDbLine
 10
1563.512080733512
 20
1139.744509107332
 30
0.0
 11
1563.512080733512
 21
1143.992193061582
 31
0.0
  0
LINE
  5
131
330
31
100
AcDbEntity
  8
00
 62
74
370
5
100
AcDbLine
 10
1563.512080733425
 20
1139.744509107288
 30
0.0
 11
1563.512080733425
 21
1143.992193061611
 31
0.0
  0
LINE
  5
132
330
31
100
AcDbEntity
  8
0
 62
74
370
5
100
AcDbLine
 10
1548.012080733513
 20
1166.376661582589
 30
0.0
 11
1547.012080733512
 21
1167.376661582603
 31
0.0
  0
LINE
  5
133
330
31
100
AcDbEntity
  8
0
 62
74
370
5
100
AcDbLine
 10
1548.012080733513
 20
1166.376661582589
 30
0.0
 11
1547.012080733512
 21
1167.376661582603
 31
0.0
  0
LINE
  5
134
330
31
100
AcDbEntity
  8
0
 62
74
370
5
100
AcDbLine
 10
1558.012080733513
 20
1166.376661582589
 30
0.0
 11
1559.012080733425
 21
1167.376661582603
 31
0.0
  0
LINE
  5
135
330
31
100
AcDbEntity
  8
0
 62
74
370
5
100
AcDbLine
 10
1558.012080733513
 20
1166.376661582589
 30
0.0
 11
1559.012080733425
 21
1167.376661582603
 31
0.0
  0
LINE
  5
136
330
31
100
AcDbEntity
  8
00
 62
74
370
5
100
AcDbLine
 10
1494.012080733513
 20
1167.376661582603
 30
0.0
 11
1493.012080733512
 21
1168.376661582589
 31
0.0
  0
LINE
  5
137
330
31
100
AcDbEntity
  8
00
 62
74
370
5
100
AcDbLine
 10
1494.012080733513
 20
1167.376661582603
 30
0.0
 11
1493.012080733512
 21
1168.376661582589
 31
0.0
  0
LINE
  5
138
330
31
100
AcDbEntity
  8
00
 62
74
370
5
100
AcDbLine
 10
1494.012080733513
 20
1169.376661582574
 30
0.0
 11
1493.012080733512
 21
1170.376661582588
 31
0.0
  0
LINE
  5
139
330
31
100
AcDbEntity
  8
0
 62
74
370
5
100
AcDbLine
 10
1493.012080733512
 20
1168.376661582589
 30
0.0
 11
1494.012080733513
 21
1169.376661582574
 31
0.0
  0
LINE
  5
13A
330
31
100
AcDbEntity
  8
0
 62
74
370
5
100
AcDbLine
 10
1493.012080733512
 20
1170.376661582588
 30
0.0
 11
1494.012080733513
 21
1171.376661582603
 31
0.0
  0
LINE
  5
13B
330
31
100
AcDbEntity
  8
00
 62
74
370
5
100
AcDbLine
 10
1494.012080733513
 20
1171.376661582603
 30
0.0
 11
1493.012080733512
 21
1172.376661582589
 31
0.0
  0
LINE
  5
13C
330
31
100
AcDbEntity
  8
00
 62
74
370
5
100
AcDbLine
 10
1482.012080733513
 20
1167.376661582603
 30
0.0
 11
1483.012080733512
 21
1168.376661582589
 31
0.0
  0
LINE
  5
13D
330
31
100
AcDbEntity
  8
00
 62
74
370
5
100
AcDbLine
 10
1482.012080733513
 20
1167.376661582603
 30
0.0
 11
1483.012080733512
 21
1168.376661582589
 31
0.0
  0
LINE
  5
13E
330
31
100
AcDbEntity
  8
00
 62
74
370
5
100
AcDbLine
 10
1482.012080733513
 20
1169.376661582574
 30
0.0
 11
1483.012080733512
 21
1170.376661582588
 31
0.0
  0
LINE
  5
13F
330
31
100
AcDbEntity
  8
0
 62
74
370
5
100
AcDbLine
 10
1483.012080733512
 20
1168.376661582589
 30
0.0
 11
1482.012080733513
 21
1169.376661582574
 31
0.0
  0
LINE
  5
140
330
31
100
AcDbEntity
  8
0
 62
74
370
5
100
AcDbLine
 10
1483.012080733512
 20
1170.376661582588
 30
0.0
 11
1482.012080733513
 21
1171.376661582603
 31
0.0
  0
LINE
  5
141
330
31
100
AcDbEntity
  8
00
 62
74
370
5
100
AcDbLine
 10
1482.012080733513
 20
1171.376661582603
 30
0.0
 11
1483.012080733512
 21
1172.376661582589
 31
0.0
  0
LINE
  5
142
330
31
100
AcDbEntity
  8
00
 62
74
370
5
100
AcDbLine
 10
1483.012080733512
 20
1168.376661582589
 30
0.0
 11
1493.012080733512
 21
1168.376661582589
 31
0.0
  0
LINE
  5
143
330
31
100
AcDbEntity
  8
00
 62
74
370
5
100
AcDbLine
 10
1483.012080733512
 20
1168.376661582589
 30
0.0
 11
1493.012080733512
 21
1168.376661582589
 31
0.0
  0
LINE
  5
144
330
31
100
AcDbEntity
  8
00
 62
74
370
5
100
AcDbLine
 10
1483.012080733512
 20
1170.376661582588
 30
0.0
 11
1493.012080733512
 21
1170.376661582588
 31
0.0
  0
LINE
  5
145
330
31
100
AcDbEntity
  8
0
 62
74
370
5
100
AcDbLine
 10
1493.012080733512
 20
1168.376661582589
 30
0.0
 11
1483.012080733512
 21
1168.376661582589
 31
0.0
  0
LINE
  5
146
330
31
100
AcDbEntity
  8
0
 62
74
370
5
100
AcDbLine
 10
1493.012080733512
 20
1170.376661582588
 30
0.0
 11
1483.012080733512
 21
1170.376661582588
 31
0.0
  0
LINE
  5
147
330
31
100
AcDbEntity
  8
00
 62
74
370
5
100
AcDbLine
 10
1483.012080733512
 20
1172.376661582589
 30
0.0
 11
1493.012080733512
 21
1172.376661582589
 31
0.0
  0
LINE
  5
148
330
31
100
AcDbEntity
  8
0
 62
74
370
5
100
AcDbLine
 10
1495.762080733425
 20
1148.854124494028
 30
0.0
 11
1493.512080733512
 21
1148.854124494028
 31
0.0
  0
LINE
  5
149
330
31
100
AcDbEntity
  8
0
 62
74
370
5
100
AcDbLine
 10
1495.762080733425
 20
1146.854124494014
 30
0.0
 11
1493.512080733512
 21
1146.854124494014
 31
0.0
  0
ARC
  5
14A
330
31
100
AcDbEntity
  8
0
 62
74
370
5
100
AcDbCircle
 10
1497.572360812622
 20
1147.854124494029
 30
0.0
 40
0.5
100
AcDbArc
 50
270.0
 51
90.0
  0
LINE
  5
14B
330
31
100
AcDbEntity
  8
0
 62
74
370
5
100
AcDbLine
 10
1497.572360812622
 20
1148.354124494028
 30
0.0
 11
1495.762080733425
 21
1148.854124494028
 31
0.0
  0
LINE
  5
14C
330
31
100
AcDbEntity
  8
0
 62
74
370
5
100
AcDbLine
 10
1497.572360812622
 20
1147.354124494028
 30
0.0
 11
1495.762080733425
 21
1146.854124494014
 31
0.0
  0
LINE
  5
14D
330
31
100
AcDbEntity
  8
00
 62
74
370
5
100
AcDbLine
 10
1494.012080733513
 20
1160.303661582585
 30
0.0
 11
1494.012080733513
 21
1161.376661582574
 31
0.0
  0
LINE
  5
14E
330
31
100
AcDbEntity
  8
0
 62
74
370
5
100
AcDbLine
 10
1493.012080733512
 20
1164.376661582589
 30
0.0
 11
1494.012080733513
 21
1165.376661582574
 31
0.0
  0
LINE
  5
14F
330
31
100
AcDbEntity
  8
00
 62
74
370
5
100
AcDbLine
 10
1494.012080733513
 20
1165.376661582574
 30
0.0
 11
1493.012080733512
 21
1166.376661582589
 31
0.0
  0
LINE
  5
150
330
31
100
AcDbEntity
  8
00
 62
74
370
5
100
AcDbLine
 10
1494.012080733513
 20
1161.376661582574
 30
0.0
 11
1493.012080733512
 21
1162.376661582588
 31
0.0
  0
LINE
  5
151
330
31
100
AcDbEntity
  8
0
 62
74
370
5
100
AcDbLine
 10
1493.012080733512
 20
1160.376661582589
 30
0.0
 11
1494.012080733513
 21
1161.376661582574
 31
0.0
  0
LINE
  5
152
330
31
100
AcDbEntity
  8
0
 62
74
370
5
100
AcDbLine
 10
1493.012080733512
 20
1162.376661582588
 30
0.0
 11
1494.012080733513
 21
1163.376661582589
 31
0.0
  0
LINE
  5
153
330
31
100
AcDbEntity
  8
00
 62
74
370
5
100
AcDbLine
 10
1494.012080733513
 20
1163.376661582589
 30
0.0
 11
1493.012080733512
 21
1164.376661582589
 31
0.0
  0
LINE
  5
154
330
31
100
AcDbEntity
  8
0
 62
74
370
5
100
AcDbLine
 10
1493.012080733512
 20
1164.376661582589
 30
0.0
 11
1494.012080733513
 21
1165.376661582574
 31
0.0
  0
LINE
  5
155
330
31
100
AcDbEntity
  8
00
 62
74
370
5
100
AcDbLine
 10
1494.012080733513
 20
1165.376661582574
 30
0.0
 11
1493.012080733512
 21
1166.376661582589
 31
0.0
  0
LINE
  5
156
330
31
100
AcDbEntity
  8
00
 62
74
370
5
100
AcDbLine
 10
1498.512080733513
 20
1158.427503559724
 30
0.0
 11
1498.512080733513
 21
1154.17981960543
 31
0.0
  0
LINE
  5
157
330
31
100
AcDbEntity
  8
00
 62
74
370
5
100
AcDbLine
 10
1493.262080733425
 20
1154.17981960543
 30
0.0
 11
1493.262080733425
 21
1158.427503559724
 31
0.0
  0
ARC
  5
158
330
31
100
AcDbEntity
  8
00
 62
74
370
5
100
AcDbCircle
 10
1495.887080733513
 20
1155.073942337215
 30
0.0
 40
2.773099431950476
100
AcDbArc
 50
198.8097763490431
 51
341.1902236509569
  0
ARC
  5
159
330
31
100
AcDbEntity
  8
00
 62
74
370
5
100
AcDbCircle
 10
1495.887080733513
 20
1157.533380827954
 30
0.0
 40
2.773099431950476
100
AcDbArc
 50
18.8097763490431
 51
161.1902236509568
  0
LINE
  5
15A
330
31
100
AcDbEntity
  8
0
 62
74
370
5
100
AcDbLine
 10
1493.012080733512
 20
1149.868351084442
 30
0.0
 11
1494.012080733513
 21
1150.868351084428
 31
0.0
  0
LINE
  5
15B
330
31
100
AcDbEntity
  8
00
 62
74
370
5
100
AcDbLine
 10
1494.012080733513
 20
1150.868351084428
 30
0.0
 11
1493.012080733512
 21
1151.868351084442
 31
0.0
  0
LINE
  5
15C
330
31
100
AcDbEntity
  8
0
 62
74
370
5
100
AcDbLine
 10
1493.012080733512
 20
1145.868351084443
 30
0.0
 11
1494.012080733513
 21
1146.868351084428
 31
0.0
  0
LINE
  5
15D
330
31
100
AcDbEntity
  8
0
 62
74
370
5
100
AcDbLine
 10
1493.997854143026
 20
1148.854124494028
 30
0.0
 11
1494.012080733513
 21
1148.868351084443
 31
0.0
  0
LINE
  5
15E
330
31
100
AcDbEntity
  8
00
 62
74
370
5
100
AcDbLine
 10
1494.012080733513
 20
1148.868351084443
 30
0.0
 11
1493.012080733512
 21
1149.868351084442
 31
0.0
  0
LINE
  5
15F
330
31
100
AcDbEntity
  8
0
 62
74
370
5
100
AcDbLine
 10
1493.012080733512
 20
1145.868351084443
 30
0.0
 11
1494.012080733513
 21
1146.868351084428
 31
0.0
  0
LINE
  5
160
330
31
100
AcDbEntity
  8
0
 62
74
370
5
100
AcDbLine
 10
1493.997854143026
 20
1148.854124494028
 30
0.0
 11
1494.012080733513
 21
1148.868351084443
 31
0.0
  0
LINE
  5
161
330
31
100
AcDbEntity
  8
00
 62
74
370
5
100
AcDbLine
 10
1494.012080733513
 20
1148.868351084443
 30
0.0
 11
1493.012080733512
 21
1149.868351084442
 31
0.0
  0
ARC
  5
162
330
31
100
AcDbEntity
  8
00
 62
74
370
5
100
AcDbCircle
 10
1495.887080733513
 20
1143.098070329812
 30
0.0
 40
2.773099431950476
100
AcDbArc
 50
18.8097763490431
 51
161.1902236509568
  0
LINE
  5
163
330
31
100
AcDbEntity
  8
0
 62
74
370
5
100
AcDbLine
 10
1493.012080733425
 20
1145.868351084443
 30
0.0
 11
1493.012080733425
 21
1144.189131100182
 31
0.0
  0
LINE
  5
164
330
31
100
AcDbEntity
  8
0
 62
74
370
5
100
AcDbLine
 10
1493.012080733512
 20
1151.868351084442
 30
0.0
 11
1493.012080733512
 21
1152.303661582585
 31
0.0
  0
LINE
  5
165
330
31
100
AcDbEntity
  8
0
 62
74
370
5
100
AcDbLine
 10
1480.262080733425
 20
1148.854124494028
 30
0.0
 11
1482.512080733425
 21
1148.854124494028
 31
0.0
  0
LINE
  5
166
330
31
100
AcDbEntity
  8
0
 62
74
370
5
100
AcDbLine
 10
1482.512080733425
 20
1146.854124494014
 30
0.0
 11
1480.262080733425
 21
1146.854124494014
 31
0.0
  0
ARC
  5
167
330
31
100
AcDbEntity
  8
0
 62
74
370
5
100
AcDbCircle
 10
1478.469029596535
 20
1147.854124494029
 30
0.0
 40
0.5
100
AcDbArc
 50
102.2459918914671
 51
257.7540081085328
  0
LINE
  5
168
330
31
100
AcDbEntity
  8
0
 62
74
370
5
100
AcDbLine
 10
1480.262080733425
 20
1148.854124494028
 30
0.0
 11
1478.362974941637
 21
1148.342747467454
 31
0.0
  0
LINE
  5
169
330
31
100
AcDbEntity
  8
0
 62
74
370
5
100
AcDbLine
 10
1480.262080733425
 20
1146.854124494014
 30
0.0
 11
1478.362974941637
 21
1147.365501520574
 31
0.0
  0
LINE
  5
16A
330
31
100
AcDbEntity
  8
0
 62
74
370
5
100
AcDbLine
 10
1483.012080733512
 20
1164.376661582589
 30
0.0
 11
1482.012080733513
 21
1165.376661582574
 31
0.0
  0
LINE
  5
16B
330
31
100
AcDbEntity
  8
00
 62
74
370
5
100
AcDbLine
 10
1482.012080733513
 20
1165.376661582574
 30
0.0
 11
1483.012080733512
 21
1166.376661582589
 31
0.0
  0
LINE
  5
16C
330
31
100
AcDbEntity
  8
00
 62
74
370
5
100
AcDbLine
 10
1482.012080733513
 20
1161.376661582574
 30
0.0
 11
1483.012080733512
 21
1162.376661582588
 31
0.0
  0
LINE
  5
16D
330
31
100
AcDbEntity
  8
0
 62
74
370
5
100
AcDbLine
 10
1483.012080733512
 20
1160.376661582589
 30
0.0
 11
1482.012080733513
 21
1161.376661582574
 31
0.0
  0
LINE
  5
16E
330
31
100
AcDbEntity
  8
0
 62
74
370
5
100
AcDbLine
 10
1483.012080733512
 20
1162.376661582588
 30
0.0
 11
1482.012080733513
 21
1163.376661582589
 31
0.0
  0
LINE
  5
16F
330
31
100
AcDbEntity
  8
00
 62
74
370
5
100
AcDbLine
 10
1482.012080733513
 20
1163.376661582589
 30
0.0
 11
1483.012080733512
 21
1164.376661582589
 31
0.0
  0
LINE
  5
170
330
31
100
AcDbEntity
  8
0
 62
74
370
5
100
AcDbLine
 10
1483.012080733512
 20
1164.376661582589
 30
0.0
 11
1482.012080733513
 21
1165.376661582574
 31
0.0
  0
LINE
  5
171
330
31
100
AcDbEntity
  8
00
 62
74
370
5
100
AcDbLine
 10
1482.012080733513
 20
1165.376661582574
 30
0.0
 11
1483.012080733512
 21
1166.376661582589
 31
0.0
  0
LINE
  5
172
330
31
100
AcDbEntity
  8
00
 62
74
370
5
100
AcDbLine
 10
1477.512080733513
 20
1158.427503559724
 30
0.0
 11
1477.512080733513
 21
1154.179819605459
 31
0.0
  0
ARC
  5
173
330
31
100
AcDbEntity
  8
00
 62
74
370
5
100
AcDbCircle
 10
1480.137080733513
 20
1155.073942337215
 30
0.0
 40
2.773099431950017
100
AcDbArc
 50
198.8097763490431
 51
341.1902236509569
  0
ARC
  5
174
330
31
100
AcDbEntity
  8
00
 62
74
370
5
100
AcDbCircle
 10
1480.137080733513
 20
1157.533380827954
 30
0.0
 40
2.773099431950017
100
AcDbArc
 50
18.8097763490431
 51
161.1902236509568
  0
LINE
  5
175
330
31
100
AcDbEntity
  8
00
 62
74
370
5
100
AcDbLine
 10
1482.762080733512
 20
1154.17981960543
 30
0.0
 11
1482.762080733512
 21
1158.427503559724
 31
0.0
  0
LINE
  5
176
330
31
100
AcDbEntity
  8
0
 62
74
370
5
100
AcDbLine
 10
1483.012080733512
 20
1149.868351084442
 30
0.0
 11
1482.012080733513
 21
1150.868351084428
 31
0.0
  0
LINE
  5
177
330
31
100
AcDbEntity
  8
00
 62
74
370
5
100
AcDbLine
 10
1482.012080733513
 20
1150.868351084428
 30
0.0
 11
1483.012080733512
 21
1151.868351084442
 31
0.0
  0
LINE
  5
178
330
31
100
AcDbEntity
  8
00
 62
74
370
5
100
AcDbLine
 10
1482.012080733513
 20
1148.868351084443
 30
0.0
 11
1483.012080733512
 21
1149.868351084442
 31
0.0
  0
LINE
  5
179
330
31
100
AcDbEntity
  8
0
 62
74
370
5
100
AcDbLine
 10
1483.012080733512
 20
1145.868351084443
 30
0.0
 11
1482.012080733513
 21
1146.868351084428
 31
0.0
  0
LINE
  5
17A
330
31
100
AcDbEntity
  8
00
 62
74
370
5
100
AcDbLine
 10
1482.012080733513
 20
1148.868351084443
 30
0.0
 11
1483.012080733512
 21
1149.868351084442
 31
0.0
  0
ARC
  5
17B
330
31
100
AcDbEntity
  8
00
 62
74
370
5
100
AcDbCircle
 10
1480.137080733513
 20
1143.098070329812
 30
0.0
 40
2.773099431950017
100
AcDbArc
 50
18.8097763490431
 51
161.1902236509568
  0
LINE
  5
17C
330
31
100
AcDbEntity
  8
0
 62
74
370
5
100
AcDbLine
 10
1483.012080733512
 20
1145.868351084443
 30
0.0
 11
1483.012080733512
 21
1144.189131100182
 31
0.0
  0
LINE
  5
17D
330
31
100
AcDbEntity
  8
0
 62
74
370
5
100
AcDbLine
 10
1482.026307323941
 20
1148.854124494028
 30
0.0
 11
1482.012080733513
 21
1148.868351084443
 31
0.0
  0
LINE
  5
17E
330
31
100
AcDbEntity
  8
0
 62
74
370
5
100
AcDbLine
 10
1482.026307323941
 20
1148.854124494028
 30
0.0
 11
1482.012080733513
 21
1148.868351084443
 31
0.0
  0
LINE
  5
17F
330
31
100
AcDbEntity
  8
0
 62
74
370
5
100
AcDbLine
 10
1483.012080733512
 20
1151.868351084442
 30
0.0
 11
1483.012080733512
 21
1152.303661582585
 31
0.0
  0
LINE
  5
180
330
31
100
AcDbEntity
  8
0
 62
74
370
5
100
AcDbLine
 10
1480.262080733425
 20
1148.854124494028
 30
0.0
 11
1495.762080733425
 21
1148.854124494028
 31
0.0
  0
LINE
  5
181
330
31
100
AcDbEntity
  8
0
 62
74
370
5
100
AcDbLine
 10
1495.762080733425
 20
1146.854124494014
 30
0.0
 11
1480.262080733425
 21
1146.854124494014
 31
0.0
  0
LINE
  5
182
330
31
100
AcDbEntity
  8
0
 62
74
370
5
100
AcDbLine
 10
1493.012080733512
 20
1151.868351084442
 30
0.0
 11
1483.012080733512
 21
1151.868351084442
 31
0.0
  0
HATCH
  5
183
330
31
100
AcDbEntity
  8
0
 62
74
370
5
100
AcDbHatch
 10
0.0
 20
0.0
 30
0.0
210
0.0
220
0.0
230
1.0
  2
ANSI31
 70
0
 71
0
 91
1
 92
7
 72
1
 73
1
 93
10
 10
1497.572360812622
 20
1148.354124494028
 42
0.0
 10
1495.762080733425
 20
1148.854124494028
 42
0.0
 10
1493.512080733512
 20
1148.854124494028
 42
0.0
 10
1480.262080733425
 20
1148.854124494028
 42
0.0
 10
1478.315389099932
 20
1148.329933907328
 42
0.7279374760151648
 10
1478.315389099932
 20
1147.378315080671
 42
0.0
 10
1480.262080733425
 20
1146.854124494014
 42
0.0
 10
1482.512080733425
 20
1146.854124494014
 42
0.0
 10
1495.762080733425
 20
1146.854124494014
 42
0.0
 10
1497.572360812622
 20
1147.354124494028
 42
1.0
 97
0
 75
0
 76
1
 52
0.0
 41
20.0
 77
0
 78
1
 53
45.0
 43
413.9715507518205
 44
171.6187235244003
 45
-1.767766952966368
 46
1.767766952966368
 79
0
 47
0.1260975072300712
 98
1
 10
1489.342993092047
 20
1147.524070587475
  0
LINE
  5
184
330
31
100
AcDbEntity
  8
0
 62
74
370
5
100
AcDbLine
 10
1493.012080733512
 20
1149.868351084442
 30
0.0
 11
1483.012080733512
 21
1149.868351084442
 31
0.0
  0
LINE
  5
185
330
31
100
AcDbEntity
  8
00
 62
74
370
5
100
AcDbLine
 10
1483.012080733512
 20
1151.868351084442
 30
0.0
 11
1493.012080733512
 21
1151.868351084442
 31
0.0
  0
LINE
  5
186
330
31
100
AcDbEntity
  8
0
 62
74
370
5
100
AcDbLine
 10
1493.012080733512
 20
1145.868351084443
 30
0.0
 11
1483.012080733512
 21
1145.868351084443
 31
0.0
  0
LINE
  5
187
330
31
100
AcDbEntity
  8
00
 62
74
370
5
100
AcDbLine
 10
1483.012080733512
 20
1149.868351084442
 30
0.0
 11
1493.012080733512
 21
1149.868351084442
 31
0.0
  0
LINE
  5
188
330
31
100
AcDbEntity
  8
00
 62
74
370
5
100
AcDbLine
 10
1483.012080733512
 20
1145.868351084443
 30
0.0
 11
1493.012080733512
 21
1145.868351084443
 31
0.0
  0
LINE
  5
189
330
31
100
AcDbEntity
  8
0
 62
74
370
5
100
AcDbLine
 10
1493.012080733512
 20
1145.868351084443
 30
0.0
 11
1483.012080733512
 21
1145.868351084443
 31
0.0
  0
LINE
  5
18A
330
31
100
AcDbEntity
  8
00
 62
74
370
5
100
AcDbLine
 10
1483.012080733512
 20
1149.868351084442
 30
0.0
 11
1493.012080733512
 21
1149.868351084442
 31
0.0
  0
LINE
  5
18B
330
31
100
AcDbEntity
  8
0
 62
74
370
5
100
AcDbLine
 10
1493.012080733512
 20
1166.376661582589
 30
0.0
 11
1483.012080733512
 21
1166.376661582589
 31
0.0
  0
LINE
  5
18C
330
31
100
AcDbEntity
  8
0
 62
74
370
5
100
AcDbLine
 10
1493.012080733512
 20
1164.376661582589
 30
0.0
 11
1483.012080733512
 21
1164.376661582589
 31
0.0
  0
LINE
  5
18D
330
31
100
AcDbEntity
  8
00
 62
74
370
5
100
AcDbLine
 10
1483.012080733512
 20
1166.376661582589
 30
0.0
 11
1493.012080733512
 21
1166.376661582589
 31
0.0
  0
LINE
  5
18E
330
31
100
AcDbEntity
  8
00
 62
74
370
5
100
AcDbLine
 10
1483.012080733512
 20
1162.376661582588
 30
0.0
 11
1493.012080733512
 21
1162.376661582588
 31
0.0
  0
LINE
  5
18F
330
31
100
AcDbEntity
  8
0
 62
74
370
5
100
AcDbLine
 10
1493.012080733512
 20
1160.376661582589
 30
0.0
 11
1483.012080733512
 21
1160.376661582589
 31
0.0
  0
LINE
  5
190
330
31
100
AcDbEntity
  8
0
 62
74
370
5
100
AcDbLine
 10
1493.012080733512
 20
1162.376661582588
 30
0.0
 11
1483.012080733512
 21
1162.376661582588
 31
0.0
  0
LINE
  5
191
330
31
100
AcDbEntity
  8
00
 62
74
370
5
100
AcDbLine
 10
1483.012080733512
 20
1164.376661582589
 30
0.0
 11
1493.012080733512
 21
1164.376661582589
 31
0.0
  0
LINE
  5
192
330
31
100
AcDbEntity
  8
0
 62
74
370
5
100
AcDbLine
 10
1493.012080733512
 20
1166.376661582589
 30
0.0
 11
1483.012080733512
 21
1166.376661582589
 31
0.0
  0
LINE
  5
193
330
31
100
AcDbEntity
  8
0
 62
74
370
5
100
AcDbLine
 10
1493.012080733512
 20
1164.376661582589
 30
0.0
 11
1483.012080733512
 21
1164.376661582589
 31
0.0
  0
LINE
  5
194
330
31
100
AcDbEntity
  8
00
 62
74
370
5
100
AcDbLine
 10
1483.012080733512
 20
1166.376661582589
 30
0.0
 11
1493.012080733512
 21
1166.376661582589
 31
0.0
  0
LINE
  5
195
330
31
100
AcDbEntity
  8
00
 62
74
370
5
100
AcDbLine
 10
1496.012080733425
 20
1152.303661582585
 30
0.0
 11
1480.012080733512
 21
1152.303661582585
 31
0.0
  0
LINE
  5
196
330
31
100
AcDbEntity
  8
00
 62
74
370
5
100
AcDbLine
 10
1480.012080733512
 20
1145.868351084443
 30
0.0
 11
1494.025540840427
 21
1145.868351084443
 31
0.0
  0
ARC
  5
197
330
31
100
AcDbEntity
  8
00
 62
74
370
5
100
AcDbCircle
 10
1488.012080733425
 20
1137.584808720727
 30
0.0
 40
8.283542363731021
100
AcDbArc
 50
50.66993661763213
 51
129.3300633823679
  0
LINE
  5
198
330
31
100
AcDbEntity
  8
00
 62
74
370
5
100
AcDbLine
 10
1496.012080733512
 20
1145.868351084443
 30
0.0
 11
1480.012080733512
 21
1145.868351084443
 31
0.0
  0
ARC
  5
199
330
31
100
AcDbEntity
  8
00
 62
74
370
5
100
AcDbCircle
 10
1488.012080733425
 20
1160.587203946314
 30
0.0
 40
8.283542363731021
100
AcDbArc
 50
230.6699366176321
 51
309.3300633823679
  0
LINE
  5
19A
330
31
100
AcDbEntity
  8
00
 62
74
370
5
100
AcDbLine
 10
1496.012080733512
 20
1160.303661582585
 30
0.0
 11
1480.012080733512
 21
1160.303661582585
 31
0.0
  0
ARC
  5
19B
330
31
100
AcDbEntity
  8
00
 62
74
370
5
100
AcDbCircle
 10
1488.012080733425
 20
1152.020119218855
 30
0.0
 40
8.283542363731021
100
AcDbArc
 50
50.66993661763213
 51
129.3300633823679
  0
LINE
  5
19C
330
31
100
AcDbEntity
  8
00
 62
74
370
5
100
AcDbLine
 10
1480.012080733512
 20
1160.303661582585
 30
0.0
 11
1494.025540840427
 21
1160.303661582585
 31
0.0
  0
ARC
  5
19D
330
31
100
AcDbEntity
  8
00
 62
74
370
5
100
AcDbCircle
 10
1495.887080733513
 20
1140.638631839058
 30
0.0
 40
2.773099431950476
100
AcDbArc
 50
198.8097763490431
 51
341.1902236509569
  0
ARC
  5
19E
330
31
100
AcDbEntity
  8
00
 62
74
370
5
100
AcDbCircle
 10
1495.887080733425
 20
1140.638631839058
 30
0.0
 40
2.773099431950476
100
AcDbArc
 50
198.8097763490431
 51
341.1902236509569
  0
LINE
  5
19F
330
31
100
AcDbEntity
  8
0
 62
74
370
5
100
AcDbLine
 10
1493.012080733425
 20
1139.547571068717
 30
0.0
 11
1493.012080733425
 21
1137.868351084428
 31
0.0
  0
ARC
  5
1A0
330
31
100
AcDbEntity
  8
00
 62
74
370
5
100
AcDbCircle
 10
1480.137080733513
 20
1140.638631839058
 30
0.0
 40
2.773099431950017
100
AcDbArc
 50
198.8097763490431
 51
341.1902236509569
  0
ARC
  5
1A1
330
31
100
AcDbEntity
  8
00
 62
74
370
5
100
AcDbCircle
 10
1480.137080733425
 20
1140.638631839058
 30
0.0
 40
2.773099431950017
100
AcDbArc
 50
198.8097763490431
 51
341.1902236509569
  0
LINE
  5
1A2
330
31
100
AcDbEntity
  8
0
 62
74
370
5
100
AcDbLine
 10
1483.012080733512
 20
1139.547571068717
 30
0.0
 11
1483.012080733512
 21
1137.868351084428
 31
0.0
  0
LINE
  5
1A3
330
31
100
AcDbEntity
  8
0
 62
74
370
5
100
AcDbLine
 10
1503.012080733425
 20
1137.868351084428
 30
0.0
 11
1473.012080733425
 21
1137.868351084428
 31
0.0
  0
LINE
  5
1A4
330
31
100
AcDbEntity
  8
00
 62
74
370
5
100
AcDbLine
 10
1496.012080733425
 20
1137.868351084428
 30
0.0
 11
1480.012080733512
 21
1137.868351084428
 31
0.0
  0
ARC
  5
1A5
330
31
100
AcDbEntity
  8
00
 62
74
370
5
100
AcDbCircle
 10
1488.012080733425
 20
1146.151893448172
 30
0.0
 40
8.283542363731021
100
AcDbArc
 50
230.6699366176321
 51
309.3300633823679
  0
LINE
  5
1A6
330
31
100
AcDbEntity
  8
00
 62
74
370
5
100
AcDbLine
 10
1496.012080733425
 20
1137.868351084428
 30
0.0
 11
1480.012080733425
 21
1137.868351084428
 31
0.0
  0
LINE
  5
1A7
330
31
100
AcDbEntity
  8
00
 62
74
370
5
100
AcDbLine
 10
1481.998620626539
 20
1137.868351084428
 30
0.0
 11
1494.025540840427
 21
1137.868351084428
 31
0.0
  0
ARC
  5
1A8
330
31
100
AcDbEntity
  8
00
 62
74
370
5
100
AcDbCircle
 10
1488.012080733425
 20
1146.151893448172
 30
0.0
 40
8.283542363731021
100
AcDbArc
 50
230.6699366176321
 51
309.3300633823679
  0
LINE
  5
1A9
330
31
100
AcDbEntity
  8
0
 62
74
370
5
100
AcDbLine
 10
1477.512080733513
 20
1139.744509107245
 30
0.0
 11
1477.512080733513
 21
1143.992193061568
 31
0.0
  0
LINE
  5
1AA
330
31
100
AcDbEntity
  8
00
 62
74
370
5
100
AcDbLine
 10
1477.512080733425
 20
1139.744509107303
 30
0.0
 11
1477.512080733425
 21
1143.992193061568
 31
0.0
  0
LINE
  5
1AB
330
31
100
AcDbEntity
  8
00
 62
74
370
5
100
AcDbLine
 10
1482.762080733512
 20
1139.744509107288
 30
0.0
 11
1482.762080733512
 21
1143.992193061568
 31
0.0
  0
LINE
  5
1AC
330
31
100
AcDbEntity
  8
00
 62
74
370
5
100
AcDbLine
 10
1477.512080733513
 20
1143.992193061568
 30
0.0
 11
1477.512080733513
 21
1139.744509107303
 31
0.0
  0
LINE
  5
1AD
330
31
100
AcDbEntity
  8
00
 62
74
370
5
100
AcDbLine
 10
1498.512080733425
 20
1139.744509107288
 30
0.0
 11
1498.512080733425
 21
1143.992193061611
 31
0.0
  0
LINE
  5
1AE
330
31
100
AcDbEntity
  8
0
 62
74
370
5
100
AcDbLine
 10
1498.512080733513
 20
1139.744509107332
 30
0.0
 11
1498.512080733513
 21
1143.992193061582
 31
0.0
  0
LINE
  5
1AF
330
31
100
AcDbEntity
  8
00
 62
74
370
5
100
AcDbLine
 10
1493.262080733425
 20
1139.744509107288
 30
0.0
 11
1493.262080733425
 21
1143.992193061568
 31
0.0
  0
LINE
  5
1B0
330
31
100
AcDbEntity
  8
00
 62
74
370
5
100
AcDbLine
 10
1498.512080733513
 20
1143.992193061582
 30
0.0
 11
1498.512080733513
 21
1139.744509107288
 31
0.0
  0
LINE
  5
1B1
330
31
100
AcDbEntity
  8
0
 62
74
370
5
100
AcDbLine
 10
1483.012080733512
 20
1166.376661582589
 30
0.0
 11
1482.012080733513
 21
1167.376661582603
 31
0.0
  0
LINE
  5
1B2
330
31
100
AcDbEntity
  8
0
 62
74
370
5
100
AcDbLine
 10
1483.012080733512
 20
1166.376661582589
 30
0.0
 11
1482.012080733513
 21
1167.376661582603
 31
0.0
  0
LINE
  5
1B3
330
31
100
AcDbEntity
  8
0
 62
74
370
5
100
AcDbLine
 10
1493.012080733512
 20
1166.376661582589
 30
0.0
 11
1494.012080733513
 21
1167.376661582603
 31
0.0
  0
LINE
  5
1B4
330
31
100
AcDbEntity
  8
0
 62
74
370
5
100
AcDbLine
 10
1493.012080733512
 20
1166.376661582589
 30
0.0
 11
1494.012080733513
 21
1167.376661582603
 31
0.0
  0
ARC
  5
1B5
330
31
100
AcDbEntity
  8
0
 62
74
100
AcDbCircle
 10
1643.012080733425
 20
1097.376661582589
 30
0.0
 40
10.0
100
AcDbArc
 50
0.0
 51
90.0
  0
LINE
  5
1B6
330
31
100
AcDbEntity
  8
0
 62
74
370
5
100
AcDbLine
 10
1618.012080733425
 20
1107.376661582589
 30
0.0
 11
1633.012080733425
 21
1107.376661582589
 31
0.0
  0
LINE
  5
1B7
330
31
100
AcDbEntity
  8
0
 62
74
370
5
100
AcDbLine
 10
1618.012080733425
 20
1107.376661582589
 30
0.0
 11
1633.012080733425
 21
1107.376661582589
 31
0.0
  0
LINE
  5
1B8
330
31
100
AcDbEntity
  8
0
 62
74
370
5
100
AcDbLine
 10
1618.012080733425
 20
1107.376661582589
 30
0.0
 11
1633.012080733425
 21
1107.376661582589
 31
0.0
  0
LINE
  5
1B9
330
31
100
AcDbEntity
  8
0
 62
74
370
5
100
AcDbLine
 10
1553.012080733425
 20
1107.376661582589
 30
0.0
 11
1568.012080733425
 21
1107.376661582589
 31
0.0
  0
LINE
  5
1BA
330
31
100
AcDbEntity
  8
0
 62
74
370
5
100
AcDbLine
 10
1553.012080733425
 20
1107.376661582589
 30
0.0
 11
1568.012080733425
 21
1107.376661582589
 31
0.0
  0
LINE
  5
1BB
330
31
100
AcDbEntity
  8
0
 62
74
370
5
100
AcDbLine
 10
1553.012080733425
 20
1107.376661582589
 30
0.0
 11
1568.012080733425
 21
1107.376661582589
 31
0.0
  0
LINE
  5
1BC
330
31
100
AcDbEntity
  8
0
 62
74
370
5
100
AcDbLine
 10
1488.012080733425
 20
1107.376661582589
 30
0.0
 11
1503.012080733425
 21
1107.376661582589
 31
0.0
  0
LINE
  5
1BD
330
31
100
AcDbEntity
  8
0
 62
74
370
5
100
AcDbLine
 10
1568.012080733425
 20
1107.376661582589
 30
0.0
 11
1568.012080733425
 21
1137.868351084428
 31
0.0
  0
LINE
  5
1BE
330
31
100
AcDbEntity
  8
0
 62
74
370
5
100
AcDbLine
 10
1538.012080733425
 20
1137.868351084428
 30
0.0
 11
1538.012080733425
 21
1107.376661582589
 31
0.0
  0
LINE
  5
1BF
330
31
100
AcDbEntity
  8
0
 62
74
370
5
100
AcDbLine
 10
1568.012080733425
 20
1107.376661582589
 30
0.0
 11
1568.012080733425
 21
1135.868351084428
 31
0.0
  0
LINE
  5
1C0
330
31
100
AcDbEntity
  8
0
 62
74
370
5
100
AcDbLine
 10
1633.012080733425
 20
1107.376661582589
 30
0.0
 11
1633.012080733425
 21
1135.868351084428
 31
0.0
  0
LINE
  5
1C1
330
31
100
AcDbEntity
  8
0
 62
74
370
5
100
AcDbLine
 10
1603.012080733425
 20
1137.868351084428
 30
0.0
 11
1603.012080733425
 21
1107.376661582589
 31
0.0
  0
LINE
  5
1C2
330
31
100
AcDbEntity
  8
0
 62
74
370
5
100
AcDbLine
 10
1633.012080733425
 20
1107.376661582589
 30
0.0
 11
1633.012080733425
 21
1137.868351084428
 31
0.0
  0
LINE
  5
1C3
330
31
100
AcDbEntity
  8
0
 62
74
370
5
100
AcDbLine
 10
1503.012080733425
 20
1107.376661582589
 30
0.0
 11
1503.012080733425
 21
1135.868351084428
 31
0.0
  0
LINE
  5
1C4
330
31
100
AcDbEntity
  8
0
 62
74
370
5
100
AcDbLine
 10
1473.012080733425
 20
1137.868351084428
 30
0.0
 11
1473.012080733425
 21
1107.376661582589
 31
0.0
  0
LINE
  5
1C5
330
31
100
AcDbEntity
  8
0
 62
74
370
5
100
AcDbLine
 10
1503.012080733425
 20
1107.376661582589
 30
0.0
 11
1503.012080733425
 21
1137.868351084428
 31
0.0
  0
LINE
  5
1C6
330
31
100
AcDbEntity
  8
0
 62
74
370
5
100
AcDbLine
 10
1538.012080733425
 20
1137.868351084428
 30
0.0
 11
1538.012080733425
 21
1107.376661582589
 31
0.0
  0
LINE
  5
1C7
330
31
100
AcDbEntity
  8
0
 62
74
370
5
100
AcDbLine
 10
1568.012080733425
 20
1107.376661582589
 30
0.0
 11
1568.012080733425
 21
1137.868351084428
 31
0.0
  0
LINE
  5
1C8
330
31
100
AcDbEntity
  8
0
 62
74
370
5
100
AcDbLine
 10
1568.012080733425
 20
1107.376661582589
 30
0.0
 11
1568.012080733425
 21
1135.868351084428
 31
0.0
  0
LINE
  5
1C9
330
31
100
AcDbEntity
  8
0
 62
74
370
5
100
AcDbLine
 10
1603.012080733425
 20
1137.868351084428
 30
0.0
 11
1603.012080733425
 21
1107.376661582589
 31
0.0
  0
LINE
  5
1CA
330
31
100
AcDbEntity
  8
0
 62
74
370
5
100
AcDbLine
 10
1633.012080733425
 20
1107.376661582589
 30
0.0
 11
1633.012080733425
 21
1137.868351084428
 31
0.0
  0
LINE
  5
1CB
330
31
100
AcDbEntity
  8
0
 62
74
370
5
100
AcDbLine
 10
1633.012080733425
 20
1107.376661582589
 30
0.0
 11
1633.012080733425
 21
1135.868351084428
 31
0.0
  0
LINE
  5
1CC
330
31
100
AcDbEntity
  8
0
 62
74
370
5
100
AcDbLine
 10
1568.012080733425
 20
1107.376661582589
 30
0.0
 11
1568.012080733425
 21
1137.868351084428
 31
0.0
  0
LINE
  5
1CD
330
31
100
AcDbEntity
  8
0
 62
74
370
5
100
AcDbLine
 10
1538.012080733425
 20
1137.868351084428
 30
0.0
 11
1538.012080733425
 21
1107.376661582589
 31
0.0
  0
LINE
  5
1CE
330
31
100
AcDbEntity
  8
0
 62
74
370
5
100
AcDbLine
 10
1568.012080733425
 20
1107.376661582589
 30
0.0
 11
1568.012080733425
 21
1135.868351084428
 31
0.0
  0
LINE
  5
1CF
330
31
100
AcDbEntity
  8
0
 62
74
370
5
100
AcDbLine
 10
1633.012080733425
 20
1107.376661582589
 30
0.0
 11
1633.012080733425
 21
1137.868351084428
 31
0.0
  0
LINE
  5
1D0
330
31
100
AcDbEntity
  8
0
 62
74
370
5
100
AcDbLine
 10
1603.012080733425
 20
1137.868351084428
 30
0.0
 11
1603.012080733425
 21
1107.376661582589
 31
0.0
  0
LINE
  5
1D1
330
31
100
AcDbEntity
  8
0
 62
74
370
5
100
AcDbLine
 10
1633.012080733425
 20
1107.376661582589
 30
0.0
 11
1633.012080733425
 21
1135.868351084428
 31
0.0
  0
MTEXT
  5
1D2
330
31
100
AcDbEntity
  8
0
 62
7
100
AcDbMText
 10
1558.296166850233
 20
1050.962747202765
 30
0.0
 40
1.919999999999999
 41
0.0
 46
0.0
 71
5
 72
5
  1
{\fArial|b0|i0|c0|p34;\C5;Shamwha Capacitor Co,LTD}
  0
MTEXT
  5
1D3
330
31
100
AcDbEntity
  8
0
 62
7
100
AcDbMText
 10
1556.275078714397
 20
1047.660355333559
 30
0.0
 40
0.9599999999999999
 41
0.0
 46
0.0
 71
5
 72
5
  1
{\fArial|b0|i0|c0|p34;\C256;Power Capacitor}
  0
LWPOLYLINE
  5
1D4
330
31
100
AcDbEntity
  8
0
370
9
100
AcDbPolyline
 90
8
 70
1
 10
1527.516616657748
 20
988.1844160052722
 10
1578.507544809117
 20
988.1844160052722
 42
0.4142135623730951
 10
1579.707544809114
 20
989.3844160052691
 10
1579.707544809114
 20
1053.197586291135
 42
0.4142135623730951
 10
1578.507544809117
 20
1054.397586291133
 10
1527.516616657748
 20
1054.397586291133
 42
0.4142135623730951
 10
1526.316616657751
 20
1053.197586291135
 10
1526.316616657751
 20
989.3844160052691
 42
0.4142135623730951
  0
LINE
  5
1D5
330
31
100
AcDbEntity
  8
0
370
9
100
AcDbLine
 10
1529.187762001305
 20
1025.446041689873
 30
0.0
 11
1550.787762001296
 21
1025.446041689873
 31
0.0
  0
LINE
  5
1D6
330
31
100
AcDbEntity
  8
0
370
9
100
AcDbLine
 10
1529.187762001305
 20
1021.846041689875
 30
0.0
 11
1550.787762001296
 21
1021.846041689875
 31
0.0
  0
LWPOLYLINE
  5
1D7
330
31
100
AcDbEntity
  8
0
370
9
100
AcDbPolyline
 90
4
 70
1
 10
1529.187762001305
 20
1018.246041689869
 10
1550.787762001296
 20
1018.246041689869
 10
1550.787762001296
 20
1029.046041689872
 10
1529.187762001305
 20
1029.046041689872
  0
LINE
  5
1D8
330
31
100
AcDbEntity
  8
0
370
9
100
AcDbLine
 10
1529.187762001305
 20
1018.246041689869
 30
0.0
 11
1550.787762001296
 21
1018.246041689869
 31
0.0
  0
LINE
  5
1D9
330
31
100
AcDbEntity
  8
0
370
9
100
AcDbLine
 10
1578.547396465839
 20
1025.446041689873
 30
0.0
 11
1557.493020941424
 21
1025.446041689873
 31
0.0
  0
LINE
  5
1DA
330
31
100
AcDbEntity
  8
0
370
9
100
AcDbLine
 10
1578.547396465839
 20
1021.846041689875
 30
0.0
 11
1557.493020941424
 21
1021.846041689875
 31
0.0
  0
LWPOLYLINE
  5
1DB
330
31
100
AcDbEntity
  8
0
370
9
100
AcDbPolyline
 90
4
 70
1
 10
1578.547396465839
 20
1018.246041689869
 10
1557.493020941424
 20
1018.246041689869
 10
1557.493020941424
 20
1029.046041689872
 10
1578.547396465839
 20
1029.046041689872
  0
LINE
  5
1DC
330
31
100
AcDbEntity
  8
0
370
9
100
AcDbLine
 10
1578.547396465839
 20
1018.246041689869
 30
0.0
 11
1557.493020941424
 21
1018.246041689869
 31
0.0
  0
TEXT
  5
1DD
330
31
100
AcDbEntity
  8
0
100
AcDbText
 10
1530.295661832769
 20
1026.872898632628
 30
0.0
 40
0.9599999999999999
  1
Un(V)
  7
Helvetica-Narrow
 72
1
 11
1531.981531397986
 21
1027.352898632628
 31
0.0
100
AcDbText
 73
2
  0
LINE
  5
1DE
330
31
100
AcDbEntity
  8
0
370
9
100
AcDbLine
 10
1543.587762001299
 20
1029.046041689872
 30
0.0
 11
1543.587762001299
 21
1018.246041689869
 31
0.0
  0
LINE
  5
1DF
330
31
100
AcDbEntity
  8
0
370
9
100
AcDbLine
 10
1536.387762001302
 20
1029.046041689872
 30
0.0
 11
1536.387762001302
 21
1018.246041689869
 31
0.0
  0
TEXT
  5
1E0
330
31
100
AcDbEntity
  8
0
100
AcDbText
 10
1537.265688144186
 20
1026.872898632628
 30
0.0
 40
0.9599999999999999
  1
Qn(Kvar)
  7
Helvetica-Narrow
 72
1
 11
1539.878296839838
 21
1027.352898632628
 31
0.0
100
AcDbText
 73
2
  0
TEXT
  5
1E1
330
31
100
AcDbEntity
  8
0
100
AcDbText
 10
1545.420181784817
 20
1026.872898632628
 30
0.0
 40
0.9599999999999999
  1
In(A)
  7
Helvetica-Narrow
 72
1
 11
1546.833116567425
 21
1027.352898632628
 31
0.0
100
AcDbText
 73
2
  0
TEXT
  5
1E2
330
31
100
AcDbEntity
  8
0
 62
1
100
AcDbText
 10
1530.878053137117
 20
1023.272898632629
 30
0.0
 40
0.9599999999999999
  1
415
  7
Helvetica-Narrow
 72
1
 11
1531.981531397986
 21
1023.752898632629
 31
0.0
100
AcDbText
 73
2
  0
TEXT
  5
1E3
330
31
100
AcDbEntity
  8
0
 62
1
100
AcDbText
 10
1539.142644665925
 20
1023.272898632629
 30
0.0
 40
0.9599999999999999
  1
25
  7
Helvetica-Narrow
 72
1
 11
1539.878296839838
 21
1023.752898632629
 31
0.0
100
AcDbText
 73
2
  0
TEXT
  5
1E4
330
31
100
AcDbEntity
  8
0
 62
1
100
AcDbText
 10
1545.583551350034
 20
1023.272898632629
 30
0.0
 40
0.9599999999999999
  1
34.8
  7
Helvetica-Narrow
 72
1
 11
1546.833116567425
 21
1023.752898632629
 31
0.0
100
AcDbText
 73
2
  0
TEXT
  5
1E5
330
31
100
AcDbEntity
  8
0
100
AcDbText
 10
1558.600920772888
 20
1026.872898632628
 30
0.0
 40
0.9599999999999999
  1
Un(V)
  7
Helvetica-Narrow
 72
1
 11
1560.286790338106
 21
1027.352898632628
 31
0.0
100
AcDbText
 73
2
  0
LINE
  5
1E6
330
31
100
AcDbEntity
  8
0
370
9
100
AcDbLine
 10
1571.893020941418
 20
1029.046041689872
 30
0.0
 11
1571.893020941418
 21
1018.246041689869
 31
0.0
  0
LINE
  5
1E7
330
31
100
AcDbEntity
  8
0
370
9
100
AcDbLine
 10
1564.693020941421
 20
1029.046041689872
 30
0.0
 11
1564.693020941421
 21
1018.246041689869
 31
0.0
  0
TEXT
  5
1E8
330
31
100
AcDbEntity
  8
0
100
AcDbText
 10
1565.570947084306
 20
1026.872898632628
 30
0.0
 40
0.9599999999999999
  1
Qn(Kvar)
  7
Helvetica-Narrow
 72
1
 11
1568.183555779958
 21
1027.352898632628
 31
0.0
100
AcDbText
 73
2
  0
TEXT
  5
1E9
330
31
100
AcDbEntity
  8
0
100
AcDbText
 10
1573.725440724936
 20
1026.872898632628
 30
0.0
 40
0.9599999999999999
  1
In(A)
  7
Helvetica-Narrow
 72
1
 11
1575.138375507545
 21
1027.352898632628
 31
0.0
100
AcDbText
 73
2
  0
TEXT
  5
1EA
330
31
100
AcDbEntity
  8
0
100
AcDbText
 10
1536.568184977478
 20
1030.334319509555
 30
0.0
 40
0.9599999999999999
  1
Fn(50Hz)
  7
Helvetica-Narrow
 72
1
 11
1539.222206716608
 21
1030.814319509555
 31
0.0
100
AcDbText
 73
2
  0
TEXT
  5
1EB
330
31
100
AcDbEntity
  8
0
100
AcDbText
 10
1564.873443917627
 20
1030.334319509555
 30
0.0
 40
0.9599999999999999
  1
Fn(60Hz)
  7
Helvetica-Narrow
 72
1
 11
1567.527465656757
 21
1030.814319509555
 31
0.0
100
AcDbText
 73
2
  0
TEXT
  5
1EC
330
31
100
AcDbEntity
  8
0
100
AcDbText
 10
1532.052964981458
 20
1041.116676281412
 30
0.0
 40
1.44
  1
SMB
  7
Helvetica-Narrow
 72
1
 11
1534.099975851023
 21
1041.836676281412
 31
0.0
100
AcDbText
 73
2
  0
TEXT
  5
1ED
330
31
100
AcDbEntity
  8
0
100
AcDbText
 10
1532.447878606738
 20
1035.104862831171
 30
0.0
 40
1.44
  1
Cn
  7
Helvetica-Narrow
 72
1
 11
1533.662878606739
 21
1035.824862831171
 31
0.0
100
AcDbText
 73
2
  0
TEXT
  5
1EE
330
31
100
AcDbEntity
  8
0
100
AcDbText
 10
1544.176973119692
 20
1035.335014743466
 30
0.0
 40
0.9
  1
-5 ~ +10%%%
  7
Helvetica-Narrow
 11
1544.176973119692
 21
1035.785014743466
 31
0.0
100
AcDbText
 73
2
  0
TEXT
  5
1EF
330
31
100
AcDbEntity
  8
0
100
AcDbText
 10
1555.10306405121
 20
1035.319830378599
 30
0.0
 40
1.44
  1
Un=3/8kv
  7
Helvetica-Narrow
 72
1
 11
1559.583009703384
 21
1036.039830378599
 31
0.0
100
AcDbText
 73
2
  0
TEXT
  5
1F0
330
31
100
AcDbEntity
  8
0
100
AcDbText
 10
1571.166860536694
 20
1035.319830378599
 30
0.0
 40
1.44
  1
3Ph
  7
Helvetica-Narrow
 72
1
 11
1572.870012710607
 21
1036.039830378599
 31
0.0
100
AcDbText
 73
2
  0
TEXT
  5
1F1
330
31
100
AcDbEntity
  8
0
 62
1
100
AcDbText
 10
1538.654005675547
 20
999.4873148609857
 30
0.0
 40
1.44
  1
Warning
  7
Helvetica-Narrow
 72
1
 11
1542.492212197286
 21
1000.207314860986
 31
0.0
100
AcDbText
 73
2
  0
LWPOLYLINE
  5
1F2
330
31
100
AcDbEntity
  8
0
370
9
100
AcDbPolyline
 90
4
 70
1
 10
1529.0852322605
 20
990.90272332605
 10
1554.527911936494
 20
990.90272332605
 10
1554.527911936494
 20
1002.235828318292
 10
1529.0852322605
 20
1002.235828318292
  0
LINE
  5
1F3
330
31
100
AcDbEntity
  8
0
370
9
100
AcDbLine
 10
1551.082594414628
 20
1014.314137353424
 30
0.0
 11
1553.609718977904
 21
1014.314137353424
 31
0.0
  0
LWPOLYLINE
  5
1F4
330
31
100
AcDbEntity
  8
0
370
9
100
AcDbPolyline
 90
2
 70
0
 10
1551.082594414628
 20
1014.314137353424
 10
1552.346156696273
 20
1016.143276262658
  0
LWPOLYLINE
  5
1F5
330
31
100
AcDbEntity
  8
0
370
9
100
AcDbPolyline
 90
2
 70
0
 10
1553.609718977904
 20
1014.314137353424
 10
1552.346156696259
 20
1016.143276262658
  0
LINE
  5
1F6
330
31
100
AcDbEntity
  8
0
370
9
100
AcDbLine
 10
1557.75664737852
 20
1015.148527699574
 30
0.0
 11
1558.475663506565
 21
1015.148527699574
 31
0.0
  0
LINE
  5
1F7
330
31
100
AcDbEntity
  8
0
370
9
100
AcDbLine
 10
1555.681453850259
 20
1015.148527699574
 30
0.0
 11
1554.962437722214
 21
1015.148527699574
 31
0.0
  0
LWPOLYLINE
  5
1F8
330
31
100
AcDbEntity
  8
0
370
9
100
AcDbPolyline
 90
4
 70
1
 10
1555.681453850288
 20
1014.85456904104
 10
1557.75664737852
 20
1014.85456904104
 10
1557.75664737852
 20
1015.442486358108
 10
1555.681453850288
 20
1015.442486358108
  0
LINE
  5
1F9
330
31
100
AcDbEntity
  8
0
370
9
100
AcDbLine
 10
1560.654232416107
 20
1016.821453962701
 30
0.0
 11
1560.654232416107
 21
1013.450351141423
 31
0.0
  0
LINE
  5
1FA
330
31
100
AcDbEntity
  8
0
370
9
100
AcDbLine
 10
1561.280249130455
 20
1016.821453962701
 30
0.0
 11
1561.280249130455
 21
1013.450351141423
 31
0.0
  0
LINE
  5
1FB
330
31
100
AcDbEntity
  8
0
370
9
100
AcDbLine
 10
1559.61240840592
 20
1015.585696986637
 30
0.0
 11
1562.462340851381
 21
1015.585696986637
 31
0.0
  0
LINE
  5
1FC
330
31
100
AcDbEntity
  8
0
370
9
100
AcDbLine
 10
1562.462340851381
 20
1015.585696986637
 30
0.0
 11
1562.291713827938
 21
1015.585696986637
 31
0.0
  0
LINE
  5
1FD
330
31
100
AcDbEntity
  8
0
370
9
100
AcDbLine
 10
1562.462340851381
 20
1015.585696986637
 30
0.0
 11
1562.266734646583
 21
1015.685379121482
 31
0.0
  0
LINE
  5
1FE
330
31
100
AcDbEntity
  8
0
370
9
100
AcDbLine
 10
1562.462340851381
 20
1015.585696986637
 30
0.0
 11
1562.291713827938
 21
1015.585696986637
 31
0.0
  0
LINE
  5
1FF
330
31
100
AcDbEntity
  8
0
370
9
100
AcDbLine
 10
1562.462340851381
 20
1015.585696986637
 30
0.0
 11
1562.266734646583
 21
1015.486014851791
 31
0.0
  0
LINE
  5
200
330
31
100
AcDbEntity
  8
0
370
9
100
AcDbLine
 10
1562.462340851381
 20
1014.577004230756
 30
0.0
 11
1559.61240840592
 21
1014.577004230756
 31
0.0
  0
LINE
  5
201
330
31
100
AcDbEntity
  8
0
370
9
100
AcDbLine
 10
1559.61240840592
 20
1014.577004230756
 30
0.0
 11
1559.783035429348
 21
1014.577004230756
 31
0.0
  0
LINE
  5
202
330
31
100
AcDbEntity
  8
0
370
9
100
AcDbLine
 10
1559.61240840592
 20
1014.577004230756
 30
0.0
 11
1559.808014610703
 21
1014.477322095918
 31
0.0
  0
LINE
  5
203
330
31
100
AcDbEntity
  8
0
370
9
100
AcDbLine
 10
1559.61240840592
 20
1014.577004230756
 30
0.0
 11
1559.783035429348
 21
1014.577004230756
 31
0.0
  0
LINE
  5
204
330
31
100
AcDbEntity
  8
0
370
9
100
AcDbLine
 10
1559.61240840592
 20
1014.577004230756
 30
0.0
 11
1559.808014610703
 21
1014.676686365602
 31
0.0
  0
TEXT
  5
205
330
31
100
AcDbEntity
  8
0
100
AcDbText
 10
1530.996102155349
 20
1014.84877935744
 30
0.0
 40
0.9216000000000001
  1
-25/D (Max 45 C)
  7
Helvetica-Narrow
 72
1
 11
1536.078363024915
 21
1015.30957935744
 31
0.0
100
AcDbText
 73
2
  0
CIRCLE
  5
206
330
31
100
AcDbEntity
  8
0
370
9
100
AcDbCircle
 10
1543.381551231324
 20
1015.528601170256
 30
0.0
 40
0.1052221249532886
  0
TEXT
  5
207
330
31
100
AcDbEntity
  8
0
100
AcDbText
 10
1529.697244257303
 20
1012.221429629267
 30
0.0
 40
0.9216000000000001
  1
Non PCB
  7
Helvetica-Narrow
 72
1
 11
1532.314913822521
 21
1012.682229629267
 31
0.0
100
AcDbText
 73
2
  0
TEXT
  5
208
330
31
100
AcDbEntity
  8
0
100
AcDbText
 10
1530.622054070665
 20
1009.909143283826
 30
0.0
 40
0.9216000000000001
  1
Overpessure Disconnector
  7
Helvetica-Narrow
 72
1
 11
1538.250923635883
 21
1010.369943283826
 31
0.0
100
AcDbText
 73
2
  0
TEXT
  5
209
330
31
100
AcDbEntity
  8
0
100
AcDbText
 10
1531.447719546661
 20
1007.544471997951
 30
0.0
 40
0.9216000000000001
  1
IEC 60631 -1/-2:2014
  7
Helvetica-Narrow
 72
1
 11
1537.614363024922
 21
1008.005271997951
 31
0.0
100
AcDbText
 73
2
  0
TEXT
  5
20A
330
31
100
AcDbEntity
  8
0
100
AcDbText
 10
1530.027664888268
 20
1005.179612277048
 30
0.0
 40
0.9216000000000001
  1
Made in Korea
  7
Helvetica-Narrow
 72
1
 11
1534.322934453486
 21
1005.640412277048
 31
0.0
100
AcDbText
 73
2
  0
LINE
  5
20B
330
31
100
AcDbEntity
  8
0
 62
1
370
9
100
AcDbLine
 10
1535.251173564736
 20
999.4287115643244
 30
0.0
 11
1537.778298127997
 21
999.4287115643244
 31
0.0
  0
LWPOLYLINE
  5
20C
330
31
100
AcDbEntity
  8
0
 62
1
370
9
100
AcDbPolyline
 90
2
 70
0
 10
1535.251173564707
 20
999.4287115643244
 10
1536.514735846352
 20
1001.257850473558
  0
TEXT
  5
20D
330
31
100
AcDbEntity
  8
0
100
AcDbText
 10
1549.292379802052
 20
1041.116676281412
 30
0.0
 40
1.44
  1
SN
  7
Helvetica-Narrow
 72
1
 11
1550.602760236835
 21
1041.836676281412
 31
0.0
100
AcDbText
 73
2
  0
LWPOLYLINE
  5
20E
330
31
100
AcDbEntity
  8
0
 62
1
370
9
100
AcDbPolyline
 90
2
 70
0
 10
1537.778298127997
 20
999.4287115643244
 10
1536.514735846352
 20
1001.257850473558
  0
TEXT
  5
20F
330
31
100
AcDbEntity
  8
0
100
AcDbText
 10
1565.266903318299
 20
1041.116676281412
 30
0.0
 40
1.44
  1
Mfg
  7
Helvetica-Narrow
 72
1
 11
1567.105544622646
 21
1041.836676281412
 31
0.0
100
AcDbText
 73
2
  0
TEXT
  5
210
330
31
100
AcDbEntity
  8
0
100
AcDbText
 10
1532.30714496662
 20
996.3095463882069
 30
0.0
 40
0.9216000000000001
  1
Waite 5 minutes after isotating
  7
Helvetica-Narrow
 72
1
 11
1541.369753662272
 21
996.7703463882068
 31
0.0
100
AcDbText
 73
2
  0
TEXT
  5
211
330
31
100
AcDbEntity
  8
0
100
AcDbText
 10
1534.696292792707
 20
993.8984437498453
 30
0.0
 40
0.9216000000000001
  1
Supply before handing
  7
Helvetica-Narrow
 72
1
 11
1541.369753662272
 21
994.3592437498452
 31
0.0
100
AcDbText
 73
2
  0
LWPOLYLINE
  5
212
330
31
100
AcDbEntity
  8
0
 62
8
370
9
100
AcDbPolyline
 90
4
 70
0
 10
1653.012080733425
 20
969.3767302183556
 10
1628.012080733425
 20
969.3767302183556
 42
0.4142135623730951
 10
1623.012080733425
 20
964.3767302183558
 10
1623.012080733425
 20
937.3767302183556
  0
LWPOLYLINE
  5
213
330
31
100
AcDbEntity
  8
0
 62
8
370
9
100
AcDbPolyline
 90
4
 70
0
 10
1453.012080733425
 20
969.3767302183556
 10
1478.012080733425
 20
969.3767302183556
 42
-0.4142135623730951
 10
1483.012080733425
 20
964.3767302183558
 10
1483.012080733425
 20
937.3767302183556
  0
LWPOLYLINE
  5
214
330
31
100
AcDbEntity
  8
0
 62
74
 60
1
100
AcDbPolyline
 90
4
 70
1
 10
1453.012080733425
 20
1107.376661582589
 10
1653.012080733425
 20
1107.376661582589
 10
1653.012080733425
 20
987.3766615825886
 10
1453.012080733425
 20
987.3766615825886
  0
LWPOLYLINE
  5
215
330
31
100
AcDbEntity
  8
0
 62
74
370
5
 60
1
100
AcDbPolyline
 90
6
 70
1
 10
1613.780029925875
 20
1054.706788601514
 10
1609.547979118311
 20
1047.376661582589
 10
1613.78002992589
 20
1040.04653456367
 10
1622.244131541004
 20
1040.04653456367
 10
1626.476182348612
 20
1047.376661582589
 10
1622.244131541004
 20
1054.706788601514
  0
LWPOLYLINE
  5
216
330
31
100
AcDbEntity
  8
0
 62
74
370
5
 60
1
100
AcDbPolyline
 90
6
 70
1
 10
1612.625329387499
 20
1056.706788601514
 10
1607.238578041573
 20
1047.376661582589
 10
1612.625329387499
 20
1038.046534563663
 10
1623.398832079424
 20
1038.046534563663
 10
1628.785583425351
 20
1047.376661582589
 10
1623.398832079424
 20
1056.706788601514
  0
LWPOLYLINE
  5
217
330
31
100
AcDbEntity
  8
0
 62
74
370
5
 60
1
100
AcDbPolyline
 90
6
 70
1
 10
1548.780029925875
 20
1054.706788601514
 10
1544.547979118311
 20
1047.376661582589
 10
1548.78002992589
 20
1040.04653456367
 10
1557.244131541004
 20
1040.04653456367
 10
1561.476182348612
 20
1047.376661582589
 10
1557.244131541004
 20
1054.706788601514
  0
LWPOLYLINE
  5
218
330
31
100
AcDbEntity
  8
0
 62
74
370
5
 60
1
100
AcDbPolyline
 90
6
 70
1
 10
1547.625329387499
 20
1056.706788601514
 10
1542.238578041573
 20
1047.376661582589
 10
1547.625329387499
 20
1038.046534563663
 10
1558.398832079424
 20
1038.046534563663
 10
1563.785583425351
 20
1047.376661582589
 10
1558.398832079424
 20
1056.706788601514
  0
LWPOLYLINE
  5
219
330
31
100
AcDbEntity
  8
0
 62
74
370
5
 60
1
100
AcDbPolyline
 90
6
 70
1
 10
1483.780029925875
 20
1054.706788601514
 10
1479.547979118311
 20
1047.376661582589
 10
1483.78002992589
 20
1040.04653456367
 10
1492.244131541004
 20
1040.04653456367
 10
1496.476182348613
 20
1047.376661582589
 10
1492.244131541004
 20
1054.706788601514
  0
LWPOLYLINE
  5
21A
330
31
100
AcDbEntity
  8
0
 62
74
370
5
 60
1
100
AcDbPolyline
 90
6
 70
1
 10
1482.625329387499
 20
1056.706788601514
 10
1477.238578041573
 20
1047.376661582589
 10
1482.625329387499
 20
1038.046534563663
 10
1493.398832079424
 20
1038.046534563663
 10
1498.785583425351
 20
1047.376661582589
 10
1493.398832079424
 20
1056.706788601514
  0
CIRCLE
  5
21B
330
31
100
AcDbEntity
  8
0
 62
74
 60
1
100
AcDbCircle
 10
1618.012080733425
 20
1047.376661582589
 30
0.0
 40
15.0
  0
CIRCLE
  5
21C
330
31
100
AcDbEntity
  8
0
 62
74
 60
1
100
AcDbCircle
 10
1553.012080733425
 20
1047.376661582589
 30
0.0
 40
15.0
  0
CIRCLE
  5
21D
330
31
100
AcDbEntity
  8
0
 62
74
 60
1
100
AcDbCircle
 10
1488.012080733425
 20
1047.376661582589
 30
0.0
 40
15.0
  0
LINE
  5
21E
330
31
100
AcDbEntity
  8
0
 62
74
 60
1
100
AcDbLine
 10
1453.012080733425
 20
1107.376661582589
 30
0.0
 11
1653.012080733425
 21
1107.376661582589
 31
0.0
  0
LINE
  5
21F
330
31
100
AcDbEntity
  8
0
 62
74
 60
1
100
AcDbLine
 10
1653.012080733425
 20
1107.376661582589
 30
0.0
 11
1653.012080733425
 21
987.3766615825886
 31
0.0
  0
LINE
  5
220
330
31
100
AcDbEntity
  8
0
 62
74
 60
1
100
AcDbLine
 10
1653.012080733425
 20
987.3766615825886
 30
0.0
 11
1453.012080733425
 21
987.3766615825886
 31
0.0
  0
LINE
  5
221
330
31
100
AcDbEntity
  8
0
 62
74
 60
1
100
AcDbLine
 10
1453.012080733425
 20
987.3766615825886
 30
0.0
 11
1453.012080733425
 21
1107.376661582589
 31
0.0
  0
LINE
  5
222
330
31
100
AcDbEntity
  8
CONDUCTOR
 62
8
 48
100.0
 60
1
100
AcDbLine
 10
1465.012080733425
 20
983.8766615825887
 30
0.0
 11
1461.012080733425
 21
983.8766615825887
 31
0.0
  0
ARC
  5
223
330
31
100
AcDbEntity
  8
CONDUCTOR
 62
8
 48
100.0
 60
1
100
AcDbCircle
 10
1461.012080733425
 20
980.8766615825886
 30
0.0
 40
3.0
100
AcDbArc
 50
90.0
 51
180.0
  0
LINE
  5
224
330
31
100
AcDbEntity
  8
CONDUCTOR
 62
8
 48
100.0
 60
1
100
AcDbLine
 10
1458.012080733425
 20
980.8766615825886
 30
0.0
 11
1458.012080733425
 21
980.8766615825886
 31
0.0
  0
ARC
  5
225
330
31
100
AcDbEntity
  8
CONDUCTOR
 62
8
 48
100.0
 60
1
100
AcDbCircle
 10
1461.012080733425
 20
980.8766615825886
 30
0.0
 40
3.0
100
AcDbArc
 50
180.0
 51
270.0
  0
LINE
  5
226
330
31
100
AcDbEntity
  8
CONDUCTOR
 62
8
 48
100.0
 60
1
100
AcDbLine
 10
1461.012080733425
 20
977.8766615825887
 30
0.0
 11
1465.012080733425
 21
977.8766615825887
 31
0.0
  0
ARC
  5
227
330
31
100
AcDbEntity
  8
CONDUCTOR
 62
8
 48
100.0
 60
1
100
AcDbCircle
 10
1465.012080733425
 20
980.8766615825886
 30
0.0
 40
3.0
100
AcDbArc
 50
270.0
 51
0.0
  0
LINE
  5
228
330
31
100
AcDbEntity
  8
CONDUCTOR
 62
8
 48
100.0
 60
1
100
AcDbLine
 10
1468.012080733425
 20
980.8766615825886
 30
0.0
 11
1468.012080733425
 21
980.8766615825886
 31
0.0
  0
ARC
  5
229
330
31
100
AcDbEntity
  8
CONDUCTOR
 62
8
 48
100.0
 60
1
100
AcDbCircle
 10
1465.012080733425
 20
980.8766615825886
 30
0.0
 40
3.0
100
AcDbArc
 50
0.0
 51
90.0
  0
LINE
  5
22A
330
31
100
AcDbEntity
  8
CONDUCTOR
 62
8
 48
100.0
 60
1
100
AcDbLine
 10
1453.012080733425
 20
987.3766615825886
 30
0.0
 11
1453.012080733425
 21
977.3766615825886
 31
0.0
  0
ARC
  5
22B
330
31
100
AcDbEntity
  8
CONDUCTOR
 62
8
 48
100.0
 60
1
100
AcDbCircle
 10
1456.012080733425
 20
977.3766615825886
 30
0.0
 40
3.0
100
AcDbArc
 50
180.0
 51
270.0
  0
LINE
  5
22C
330
31
100
AcDbEntity
  8
CONDUCTOR
 62
8
 48
100.0
 60
1
100
AcDbLine
 10
1456.012080733425
 20
974.3766615825887
 30
0.0
 11
1470.012080733425
 21
974.3766615825887
 31
0.0
  0
ARC
  5
22D
330
31
100
AcDbEntity
  8
CONDUCTOR
 62
8
 48
100.0
 60
1
100
AcDbCircle
 10
1470.012080733425
 20
977.3766615825886
 30
0.0
 40
3.0
100
AcDbArc
 50
270.0
 51
0.0
  0
LINE
  5
22E
330
31
100
AcDbEntity
  8
CONDUCTOR
 62
8
 48
100.0
 60
1
100
AcDbLine
 10
1473.012080733425
 20
977.3766615825886
 30
0.0
 11
1473.012080733425
 21
987.3766615825886
 31
0.0
  0
LINE
  5
22F
330
31
100
AcDbEntity
  8
CONDUCTOR
 62
8
 48
100.0
 60
1
100
AcDbLine
 10
1653.012080733425
 20
987.3766615825886
 30
0.0
 11
1653.012080733425
 21
977.3766615825886
 31
0.0
  0
ARC
  5
230
330
31
100
AcDbEntity
  8
CONDUCTOR
 62
8
 48
100.0
 60
1
100
AcDbCircle
 10
1650.012080733425
 20
977.3766615825886
 30
0.0
 40
3.0
100
AcDbArc
 50
270.0
 51
0.0
  0
LINE
  5
231
330
31
100
AcDbEntity
  8
CONDUCTOR
 62
8
 48
100.0
 60
1
100
AcDbLine
 10
1650.012080733425
 20
974.3766615825887
 30
0.0
 11
1636.01208073344
 21
974.3766615825887
 31
0.0
  0
ARC
  5
232
330
31
100
AcDbEntity
  8
CONDUCTOR
 62
8
 48
100.0
 60
1
100
AcDbCircle
 10
1636.01208073344
 20
977.376661582596
 30
0.0
 40
3.000000000007275
100
AcDbArc
 50
180.0
 51
270.0
  0
LINE
  5
233
330
31
100
AcDbEntity
  8
CONDUCTOR
 62
8
 48
100.0
 60
1
100
AcDbLine
 10
1633.012080733425
 20
977.3766615825886
 30
0.0
 11
1633.012080733425
 21
987.3766615825886
 31
0.0
  0
LINE
  5
234
330
31
100
AcDbEntity
  8
CONDUCTOR
 62
8
 48
100.0
 60
1
100
AcDbLine
 10
1641.012080733425
 20
983.8766615825887
 30
0.0
 11
1645.012080733425
 21
983.8766615825887
 31
0.0
  0
ARC
  5
235
330
31
100
AcDbEntity
  8
CONDUCTOR
 62
8
 48
100.0
 60
1
100
AcDbCircle
 10
1645.012080733425
 20
980.8766615825886
 30
0.0
 40
3.0
100
AcDbArc
 50
0.0
 51
90.0
  0
LINE
  5
236
330
31
100
AcDbEntity
  8
CONDUCTOR
 62
8
 48
100.0
 60
1
100
AcDbLine
 10
1648.012080733425
 20
980.8766615825886
 30
0.0
 11
1648.012080733425
 21
980.8766615825886
 31
0.0
  0
ARC
  5
237
330
31
100
AcDbEntity
  8
CONDUCTOR
 62
8
 48
100.0
 60
1
100
AcDbCircle
 10
1645.012080733425
 20
980.8766615825886
 30
0.0
 40
3.0
100
AcDbArc
 50
270.0
 51
0.0
  0
LINE
  5
238
330
31
100
AcDbEntity
  8
CONDUCTOR
 62
8
 48
100.0
 60
1
100
AcDbLine
 10
1645.012080733425
 20
977.8766615825887
 30
0.0
 11
1641.012080733425
 21
977.8766615825887
 31
0.0
  0
ARC
  5
239
330
31
100
AcDbEntity
  8
CONDUCTOR
 62
8
 48
100.0
 60
1
100
AcDbCircle
 10
1641.01208073344
 20
980.8766615825813
 30
0.0
 40
2.999999999992724
100
AcDbArc
 50
180.0
 51
270.0
  0
LINE
  5
23A
330
31
100
AcDbEntity
  8
CONDUCTOR
 62
8
 48
100.0
 60
1
100
AcDbLine
 10
1638.01208073344
 20
980.8766615825886
 30
0.0
 11
1638.01208073344
 21
980.8766615825886
 31
0.0
  0
ARC
  5
23B
330
31
100
AcDbEntity
  8
CONDUCTOR
 62
8
 48
100.0
 60
1
100
AcDbCircle
 10
1641.01208073344
 20
980.876661582596
 30
0.0
 40
3.0
100
AcDbArc
 50
90.0
 51
180.0
  0
LINE
  5
23C
330
31
100
AcDbEntity
  8
CONDUCTOR
 62
8
 48
100.0
 60
1
100
AcDbLine
 10
1453.012080733425
 20
1107.376661582589
 30
0.0
 11
1453.012080733425
 21
1117.376661582588
 31
0.0
  0
ARC
  5
23D
330
31
100
AcDbEntity
  8
CONDUCTOR
 62
8
 48
100.0
 60
1
100
AcDbCircle
 10
1456.012080733425
 20
1117.376661582588
 30
0.0
 40
3.0
100
AcDbArc
 50
90.0
 51
180.0
  0
LINE
  5
23E
330
31
100
AcDbEntity
  8
CONDUCTOR
 62
8
 48
100.0
 60
1
100
AcDbLine
 10
1456.012080733425
 20
1120.376661582588
 30
0.0
 11
1470.012080733425
 21
1120.376661582588
 31
0.0
  0
ARC
  5
23F
330
31
100
AcDbEntity
  8
CONDUCTOR
 62
8
 48
100.0
 60
1
100
AcDbCircle
 10
1470.012080733425
 20
1117.376661582588
 30
0.0
 40
3.0
100
AcDbArc
 50
0.0
 51
90.0
  0
LINE
  5
240
330
31
100
AcDbEntity
  8
CONDUCTOR
 62
8
 48
100.0
 60
1
100
AcDbLine
 10
1473.012080733425
 20
1117.376661582588
 30
0.0
 11
1473.012080733425
 21
1107.376661582589
 31
0.0
  0
LINE
  5
241
330
31
100
AcDbEntity
  8
CONDUCTOR
 62
8
 48
100.0
 60
1
100
AcDbLine
 10
1465.012080733425
 20
1110.876661582588
 30
0.0
 11
1461.012080733425
 21
1110.876661582588
 31
0.0
  0
ARC
  5
242
330
31
100
AcDbEntity
  8
CONDUCTOR
 62
8
 48
100.0
 60
1
100
AcDbCircle
 10
1461.012080733425
 20
1113.876661582589
 30
0.0
 40
3.0
100
AcDbArc
 50
180.0
 51
270.0
  0
LINE
  5
243
330
31
100
AcDbEntity
  8
CONDUCTOR
 62
8
 48
100.0
 60
1
100
AcDbLine
 10
1458.012080733425
 20
1113.876661582589
 30
0.0
 11
1458.012080733425
 21
1113.876661582589
 31
0.0
  0
ARC
  5
244
330
31
100
AcDbEntity
  8
CONDUCTOR
 62
8
 48
100.0
 60
1
100
AcDbCircle
 10
1461.012080733425
 20
1113.876661582589
 30
0.0
 40
3.0
100
AcDbArc
 50
90.0
 51
180.0
  0
LINE
  5
245
330
31
100
AcDbEntity
  8
CONDUCTOR
 62
8
 48
100.0
 60
1
100
AcDbLine
 10
1461.012080733425
 20
1116.876661582588
 30
0.0
 11
1465.012080733425
 21
1116.876661582588
 31
0.0
  0
ARC
  5
246
330
31
100
AcDbEntity
  8
CONDUCTOR
 62
8
 48
100.0
 60
1
100
AcDbCircle
 10
1465.012080733425
 20
1113.876661582589
 30
0.0
 40
3.0
100
AcDbArc
 50
0.0
 51
90.0
  0
LINE
  5
247
330
31
100
AcDbEntity
  8
CONDUCTOR
 62
8
 48
100.0
 60
1
100
AcDbLine
 10
1468.012080733425
 20
1113.876661582589
 30
0.0
 11
1468.012080733425
 21
1113.876661582589
 31
0.0
  0
ARC
  5
248
330
31
100
AcDbEntity
  8
CONDUCTOR
 62
8
 48
100.0
 60
1
100
AcDbCircle
 10
1465.012080733425
 20
1113.876661582589
 30
0.0
 40
3.0
100
AcDbArc
 50
270.0
 51
0.0
  0
LINE
  5
249
330
31
100
AcDbEntity
  8
CONDUCTOR
 62
8
 48
100.0
 60
1
100
AcDbLine
 10
1641.012080733425
 20
1110.876661582588
 30
0.0
 11
1645.012080733425
 21
1110.876661582588
 31
0.0
  0
ARC
  5
24A
330
31
100
AcDbEntity
  8
CONDUCTOR
 62
8
 48
100.0
 60
1
100
AcDbCircle
 10
1645.012080733425
 20
1113.876661582589
 30
0.0
 40
3.0
100
AcDbArc
 50
270.0
 51
0.0
  0
LINE
  5
24B
330
31
100
AcDbEntity
  8
CONDUCTOR
 62
8
 48
100.0
 60
1
100
AcDbLine
 10
1648.012080733425
 20
1113.876661582589
 30
0.0
 11
1648.012080733425
 21
1113.876661582589
 31
0.0
  0
ARC
  5
24C
330
31
100
AcDbEntity
  8
CONDUCTOR
 62
8
 48
100.0
 60
1
100
AcDbCircle
 10
1645.012080733425
 20
1113.876661582589
 30
0.0
 40
3.0
100
AcDbArc
 50
0.0
 51
90.0
  0
LINE
  5
24D
330
31
100
AcDbEntity
  8
CONDUCTOR
 62
8
 48
100.0
 60
1
100
AcDbLine
 10
1645.012080733425
 20
1116.876661582588
 30
0.0
 11
1641.012080733425
 21
1116.876661582588
 31
0.0
  0
ARC
  5
24E
330
31
100
AcDbEntity
  8
CONDUCTOR
 62
8
 48
100.0
 60
1
100
AcDbCircle
 10
1641.01208073344
 20
1113.876661582596
 30
0.0
 40
2.999999999992724
100
AcDbArc
 50
90.0
 51
180.0
  0
LINE
  5
24F
330
31
100
AcDbEntity
  8
CONDUCTOR
 62
8
 48
100.0
 60
1
100
AcDbLine
 10
1638.01208073344
 20
1113.876661582589
 30
0.0
 11
1638.01208073344
 21
1113.876661582589
 31
0.0
  0
ARC
  5
250
330
31
100
AcDbEntity
  8
CONDUCTOR
 62
8
 48
100.0
 60
1
100
AcDbCircle
 10
1641.01208073344
 20
1113.876661582581
 30
0.0
 40
3.0
100
AcDbArc
 50
180.0
 51
270.0
  0
LINE
  5
251
330
31
100
AcDbEntity
  8
CONDUCTOR
 62
8
 48
100.0
 60
1
100
AcDbLine
 10
1653.012080733425
 20
1107.376661582589
 30
0.0
 11
1653.012080733425
 21
1117.376661582588
 31
0.0
  0
ARC
  5
252
330
31
100
AcDbEntity
  8
CONDUCTOR
 62
8
 48
100.0
 60
1
100
AcDbCircle
 10
1650.012080733425
 20
1117.376661582588
 30
0.0
 40
3.0
100
AcDbArc
 50
0.0
 51
90.0
  0
LINE
  5
253
330
31
100
AcDbEntity
  8
CONDUCTOR
 62
8
 48
100.0
 60
1
100
AcDbLine
 10
1650.012080733425
 20
1120.376661582588
 30
0.0
 11
1636.01208073344
 21
1120.376661582588
 31
0.0
  0
ARC
  5
254
330
31
100
AcDbEntity
  8
CONDUCTOR
 62
8
 48
100.0
 60
1
100
AcDbCircle
 10
1636.01208073344
 20
1117.376661582581
 30
0.0
 40
3.000000000007275
100
AcDbArc
 50
90.0
 51
180.0
  0
LINE
  5
255
330
31
100
AcDbEntity
  8
CONDUCTOR
 62
8
 48
100.0
 60
1
100
AcDbLine
 10
1633.012080733425
 20
1117.376661582588
 30
0.0
 11
1633.012080733425
 21
1107.376661582589
 31
0.0
  0
LINE
  5
256
330
31
100
AcDbEntity
  8
0
 62
74
 60
1
100
AcDbLine
 10
1613.012080733425
 20
1097.376661582589
 30
0.0
 11
1613.012080733425
 21
937.3766615825886
 31
0.0
  0
LINE
  5
257
330
31
100
AcDbEntity
  8
0
 62
74
 60
1
100
AcDbLine
 10
1493.012080733425
 20
937.3766615825886
 30
0.0
 11
1493.012080733425
 21
1097.376661582589
 31
0.0
  0
LINE
  5
258
330
31
100
AcDbEntity
  8
0
 62
74
 60
1
100
AcDbLine
 10
1613.012080733425
 20
937.3766615825886
 30
0.0
 11
1493.012080733425
 21
937.3766615825886
 31
0.0
  0
LINE
  5
259
330
31
100
AcDbEntity
  8
0
 62
74
 60
1
100
AcDbLine
 10
1503.012080733425
 20
1107.376661582589
 30
0.0
 11
1603.012080733425
 21
1107.376661582589
 31
0.0
  0
LINE
  5
25A
330
31
100
AcDbEntity
  8
0
 62
74
 60
1
100
AcDbLine
 10
1503.012080733425
 20
1107.376661582589
 30
0.0
 11
1603.012080733425
 21
1107.376661582589
 31
0.0
  0
ARC
  5
25B
330
31
100
AcDbEntity
  8
0
 62
74
 60
1
100
AcDbCircle
 10
1503.012080733425
 20
1097.376661582589
 30
0.0
 40
10.0
100
AcDbArc
 50
90.0
 51
180.0
  0
LINE
  5
25C
330
31
100
AcDbEntity
  8
00
 62
74
370
5
 60
1
100
AcDbLine
 10
1548.012080733513
 20
1172.376661582588
 30
0.0
 11
1558.012080733513
 21
1172.376661582588
 31
0.0
  0
LINE
  5
25D
330
31
100
AcDbEntity
  8
0
 62
74
370
5
 60
1
100
AcDbLine
 10
1558.012080733513
 20
1170.376661582588
 30
0.0
 11
1548.012080733513
 21
1170.376661582588
 31
0.0
  0
LINE
  5
25E
330
31
100
AcDbEntity
  8
0
 62
74
370
5
 60
1
100
AcDbLine
 10
1558.012080733513
 20
1168.376661582588
 30
0.0
 11
1548.012080733513
 21
1168.376661582588
 31
0.0
  0
LINE
  5
25F
330
31
100
AcDbEntity
  8
00
 62
74
370
5
 60
1
100
AcDbLine
 10
1548.012080733513
 20
1170.376661582588
 30
0.0
 11
1558.012080733513
 21
1170.376661582588
 31
0.0
  0
LINE
  5
260
330
31
100
AcDbEntity
  8
00
 62
74
370
5
 60
1
100
AcDbLine
 10
1548.012080733513
 20
1168.376661582588
 30
0.0
 11
1558.012080733513
 21
1168.376661582588
 31
0.0
  0
LINE
  5
261
330
31
100
AcDbEntity
  8
00
 62
74
370
5
 60
1
100
AcDbLine
 10
1548.012080733513
 20
1168.376661582588
 30
0.0
 11
1558.012080733513
 21
1168.376661582588
 31
0.0
  0
LINE
  5
262
330
31
100
AcDbEntity
  8
00
 62
74
370
5
 60
1
100
AcDbLine
 10
1547.012080733512
 20
1171.376661582603
 30
0.0
 11
1548.012080733513
 21
1172.376661582588
 31
0.0
  0
LINE
  5
263
330
31
100
AcDbEntity
  8
0
 62
74
370
5
 60
1
100
AcDbLine
 10
1548.012080733513
 20
1170.376661582588
 30
0.0
 11
1547.012080733512
 21
1171.376661582603
 31
0.0
  0
LINE
  5
264
330
31
100
AcDbEntity
  8
0
 62
74
370
5
 60
1
100
AcDbLine
 10
1548.012080733513
 20
1168.376661582588
 30
0.0
 11
1547.012080733512
 21
1169.376661582574
 31
0.0
  0
LINE
  5
265
330
31
100
AcDbEntity
  8
00
 62
74
370
5
 60
1
100
AcDbLine
 10
1547.012080733512
 20
1169.376661582574
 30
0.0
 11
1548.012080733513
 21
1170.376661582588
 31
0.0
  0
LINE
  5
266
330
31
100
AcDbEntity
  8
00
 62
74
370
5
 60
1
100
AcDbLine
 10
1547.012080733512
 20
1167.376661582603
 30
0.0
 11
1548.012080733513
 21
1168.376661582588
 31
0.0
  0
LINE
  5
267
330
31
100
AcDbEntity
  8
00
 62
74
370
5
 60
1
100
AcDbLine
 10
1547.012080733512
 20
1167.376661582603
 30
0.0
 11
1548.012080733513
 21
1168.376661582588
 31
0.0
  0
LINE
  5
268
330
31
100
AcDbEntity
  8
00
 62
74
370
5
 60
1
100
AcDbLine
 10
1559.012080733425
 20
1171.376661582603
 30
0.0
 11
1558.012080733513
 21
1172.376661582588
 31
0.0
  0
LINE
  5
269
330
31
100
AcDbEntity
  8
0
 62
74
370
5
 60
1
100
AcDbLine
 10
1558.012080733513
 20
1170.376661582588
 30
0.0
 11
1559.012080733425
 21
1171.376661582603
 31
0.0
  0
LINE
  5
26A
330
31
100
AcDbEntity
  8
0
 62
74
370
5
 60
1
100
AcDbLine
 10
1558.012080733513
 20
1168.376661582588
 30
0.0
 11
1559.012080733425
 21
1169.376661582574
 31
0.0
  0
LINE
  5
26B
330
31
100
AcDbEntity
  8
00
 62
74
370
5
 60
1
100
AcDbLine
 10
1559.012080733425
 20
1169.376661582574
 30
0.0
 11
1558.012080733513
 21
1170.376661582588
 31
0.0
  0
LINE
  5
26C
330
31
100
AcDbEntity
  8
00
 62
74
370
5
 60
1
100
AcDbLine
 10
1559.012080733425
 20
1167.376661582603
 30
0.0
 11
1558.012080733513
 21
1168.376661582588
 31
0.0
  0
LINE
  5
26D
330
31
100
AcDbEntity
  8
00
 62
74
370
5
 60
1
100
AcDbLine
 10
1559.012080733425
 20
1167.376661582603
 30
0.0
 11
1558.012080733513
 21
1168.376661582588
 31
0.0
  0
LINE
  5
26E
330
31
100
AcDbEntity
  8
00
 62
74
370
5
 60
1
100
AcDbLine
 10
1563.512080733512
 20
1158.427503559724
 30
0.0
 11
1563.512080733512
 21
1154.17981960543
 31
0.0
  0
ARC
  5
26F
330
31
100
AcDbEntity
  8
0
 62
74
370
5
 60
1
100
AcDbCircle
 10
1562.572360812622
 20
1147.854124494028
 30
0.0
 40
0.5
100
AcDbArc
 50
270.0
 51
90.0
  0
LINE
  5
270
330
31
100
AcDbEntity
  8
0
 62
74
370
5
 60
1
100
AcDbLine
 10
1558.012080733513
 20
1151.868351084442
 30
0.0
 11
1558.012080733513
 21
1152.303661582584
 31
0.0
  0
LINE
  5
271
330
31
100
AcDbEntity
  8
0
 62
74
370
5
 60
1
100
AcDbLine
 10
1548.012080733513
 20
1151.868351084442
 30
0.0
 11
1548.012080733513
 21
1152.303661582584
 31
0.0
  0
LINE
  5
272
330
31
100
AcDbEntity
  8
00
 62
74
370
5
 60
1
100
AcDbLine
 10
1548.012080733513
 20
1166.376661582588
 30
0.0
 11
1558.012080733513
 21
1166.376661582588
 31
0.0
  0
LINE
  5
273
330
31
100
AcDbEntity
  8
0
 62
74
370
5
 60
1
100
AcDbLine
 10
1558.012080733513
 20
1164.376661582588
 30
0.0
 11
1548.012080733513
 21
1164.376661582588
 31
0.0
  0
LINE
  5
274
330
31
100
AcDbEntity
  8
0
 62
74
370
5
 60
1
100
AcDbLine
 10
1558.012080733513
 20
1166.376661582588
 30
0.0
 11
1548.012080733513
 21
1166.376661582588
 31
0.0
  0
LINE
  5
275
330
31
100
AcDbEntity
  8
00
 62
74
370
5
 60
1
100
AcDbLine
 10
1548.012080733513
 20
1164.376661582588
 30
0.0
 11
1558.012080733513
 21
1164.376661582588
 31
0.0
  0
LINE
  5
276
330
31
100
AcDbEntity
  8
00
 62
74
370
5
 60
1
100
AcDbLine
 10
1548.012080733513
 20
1166.376661582588
 30
0.0
 11
1558.012080733513
 21
1166.376661582588
 31
0.0
  0
LINE
  5
277
330
31
100
AcDbEntity
  8
0
 62
74
370
5
 60
1
100
AcDbLine
 10
1558.012080733513
 20
1164.376661582588
 30
0.0
 11
1548.012080733513
 21
1164.376661582588
 31
0.0
  0
LINE
  5
278
330
31
100
AcDbEntity
  8
0
 62
74
370
5
 60
1
100
AcDbLine
 10
1558.012080733513
 20
1166.376661582588
 30
0.0
 11
1548.012080733513
 21
1166.376661582588
 31
0.0
  0
LINE
  5
279
330
31
100
AcDbEntity
  8
00
 62
74
370
5
 60
1
100
AcDbLine
 10
1547.012080733512
 20
1165.376661582574
 30
0.0
 11
1548.012080733513
 21
1166.376661582588
 31
0.0
  0
LINE
  5
27A
330
31
100
AcDbEntity
  8
0
 62
74
370
5
 60
1
100
AcDbLine
 10
1548.012080733513
 20
1164.376661582588
 30
0.0
 11
1547.012080733512
 21
1165.376661582574
 31
0.0
  0
LINE
  5
27B
330
31
100
AcDbEntity
  8
00
 62
74
370
5
 60
1
100
AcDbLine
 10
1547.012080733512
 20
1163.376661582588
 30
0.0
 11
1548.012080733513
 21
1164.376661582588
 31
0.0
  0
LINE
  5
27C
330
31
100
AcDbEntity
  8
00
 62
74
370
5
 60
1
100
AcDbLine
 10
1547.012080733512
 20
1165.376661582574
 30
0.0
 11
1548.012080733513
 21
1166.376661582588
 31
0.0
  0
LINE
  5
27D
330
31
100
AcDbEntity
  8
0
 62
74
370
5
 60
1
100
AcDbLine
 10
1548.012080733513
 20
1164.376661582588
 30
0.0
 11
1547.012080733512
 21
1165.376661582574
 31
0.0
  0
LINE
  5
27E
330
31
100
AcDbEntity
  8
00
 62
74
370
5
 60
1
100
AcDbLine
 10
1559.012080733425
 20
1165.376661582574
 30
0.0
 11
1558.012080733513
 21
1166.376661582588
 31
0.0
  0
LINE
  5
27F
330
31
100
AcDbEntity
  8
0
 62
74
370
5
 60
1
100
AcDbLine
 10
1558.012080733513
 20
1164.376661582588
 30
0.0
 11
1559.012080733425
 21
1165.376661582574
 31
0.0
  0
LINE
  5
280
330
31
100
AcDbEntity
  8
00
 62
74
370
5
 60
1
100
AcDbLine
 10
1559.012080733425
 20
1163.376661582588
 30
0.0
 11
1558.012080733513
 21
1164.376661582588
 31
0.0
  0
LINE
  5
281
330
31
100
AcDbEntity
  8
00
 62
74
370
5
 60
1
100
AcDbLine
 10
1559.012080733425
 20
1165.376661582574
 30
0.0
 11
1558.012080733513
 21
1166.376661582588
 31
0.0
  0
LINE
  5
282
330
31
100
AcDbEntity
  8
0
 62
74
370
5
 60
1
100
AcDbLine
 10
1558.012080733513
 20
1164.376661582588
 30
0.0
 11
1559.012080733425
 21
1165.376661582574
 31
0.0
  0
ARC
  5
283
330
31
100
AcDbEntity
  8
00
 62
74
370
5
 60
1
100
AcDbCircle
 10
1553.012080733425
 20
1152.020119218855
 30
0.0
 40
8.283542363731021
100
AcDbArc
 50
50.66993661763317
 51
129.3300633823668
  0
ARC
  5
284
330
31
100
AcDbEntity
  8
00
 62
74
370
5
 60
1
100
AcDbCircle
 10
1545.137080733512
 20
1157.533380827954
 30
0.0
 40
2.773099431950017
100
AcDbArc
 50
18.80977634904255
 51
161.1902236509574
  0
ARC
  5
285
330
31
100
AcDbEntity
  8
00
 62
74
370
5
 60
1
100
AcDbCircle
 10
1553.012080733425
 20
1160.587203946314
 30
0.0
 40
8.283542363731021
100
AcDbArc
 50
230.6699366176307
 51
309.3300633823668
  0
LINE
  5
286
330
31
100
AcDbEntity
  8
00
 62
74
370
5
 60
1
100
AcDbLine
 10
1561.012080733425
 20
1152.303661582584
 30
0.0
 11
1545.012080733425
 21
1152.303661582584
 31
0.0
  0
LINE
  5
287
330
31
100
AcDbEntity
  8
00
 62
74
370
5
 60
1
100
AcDbLine
 10
1547.762080733513
 20
1154.17981960543
 30
0.0
 11
1547.762080733513
 21
1158.427503559724
 31
0.0
  0
ARC
  5
288
330
31
100
AcDbEntity
  8
00
 62
74
370
5
 60
1
100
AcDbCircle
 10
1545.137080733512
 20
1155.073942337215
 30
0.0
 40
2.773099431950017
100
AcDbArc
 50
198.8097763490425
 51
341.1902236509575
  0
LINE
  5
289
330
31
100
AcDbEntity
  8
00
 62
74
370
5
 60
1
100
AcDbLine
 10
1542.512080733425
 20
1158.427503559724
 30
0.0
 11
1542.512080733425
 21
1154.179819605459
 31
0.0
  0
LINE
  5
28A
330
31
100
AcDbEntity
  8
00
 62
74
370
5
 60
1
100
AcDbLine
 10
1558.262080733425
 20
1154.17981960543
 30
0.0
 11
1558.262080733425
 21
1158.427503559724
 31
0.0
  0
LINE
  5
28B
330
31
100
AcDbEntity
  8
0
 62
74
370
5
 60
1
100
AcDbLine
 10
1558.012080733513
 20
1162.376661582588
 30
0.0
 11
1548.012080733513
 21
1162.376661582588
 31
0.0
  0
LINE
  5
28C
330
31
100
AcDbEntity
  8
0
 62
74
370
5
 60
1
100
AcDbLine
 10
1558.012080733513
 20
1160.376661582588
 30
0.0
 11
1548.012080733513
 21
1160.376661582588
 31
0.0
  0
LINE
  5
28D
330
31
100
AcDbEntity
  8
00
 62
74
370
5
 60
1
100
AcDbLine
 10
1548.012080733513
 20
1162.376661582588
 30
0.0
 11
1558.012080733513
 21
1162.376661582588
 31
0.0
  0
LINE
  5
28E
330
31
100
AcDbEntity
  8
0
 62
74
370
5
 60
1
100
AcDbLine
 10
1548.012080733513
 20
1160.376661582588
 30
0.0
 11
1547.012080733512
 21
1161.376661582574
 31
0.0
  0
LINE
  5
28F
330
31
100
AcDbEntity
  8
00
 62
74
370
5
 60
1
100
AcDbLine
 10
1547.012080733512
 20
1161.376661582574
 30
0.0
 11
1548.012080733513
 21
1162.376661582588
 31
0.0
  0
LINE
  5
290
330
31
100
AcDbEntity
  8
0
 62
74
370
5
 60
1
100
AcDbLine
 10
1558.012080733513
 20
1160.376661582588
 30
0.0
 11
1559.012080733425
 21
1161.376661582574
 31
0.0
  0
LINE
  5
291
330
31
100
AcDbEntity
  8
00
 62
74
370
5
 60
1
100
AcDbLine
 10
1559.012080733425
 20
1161.376661582574
 30
0.0
 11
1558.012080733513
 21
1162.376661582588
 31
0.0
  0
LINE
  5
292
330
31
100
AcDbEntity
  8
00
 62
74
370
5
 60
1
100
AcDbLine
 10
1545.012080733425
 20
1160.303661582584
 30
0.0
 11
1559.025540840427
 21
1160.303661582584
 31
0.0
  0
LINE
  5
293
330
31
100
AcDbEntity
  8
00
 62
74
370
5
 60
1
100
AcDbLine
 10
1561.012080733513
 20
1160.303661582584
 30
0.0
 11
1545.012080733425
 21
1160.303661582584
 31
0.0
  0
LINE
  5
294
330
31
100
AcDbEntity
  8
00
 62
74
370
5
 60
1
100
AcDbLine
 10
1559.012080733425
 20
1160.303661582584
 30
0.0
 11
1559.012080733425
 21
1161.376661582574
 31
0.0
  0
LINE
  5
295
330
31
100
AcDbEntity
  8
0
 62
74
370
5
 60
1
100
AcDbLine
 10
1548.012080733513
 20
1162.376661582588
 30
0.0
 11
1547.012080733512
 21
1163.376661582588
 31
0.0
  0
LINE
  5
296
330
31
100
AcDbEntity
  8
0
 62
74
370
5
 60
1
100
AcDbLine
 10
1558.012080733513
 20
1162.376661582588
 30
0.0
 11
1559.012080733425
 21
1163.376661582588
 31
0.0
  0
LINE
  5
297
330
31
100
AcDbEntity
  8
0
 62
74
370
5
 60
1
100
AcDbLine
 10
1558.997854143026
 20
1148.854124494028
 30
0.0
 11
1559.012080733425
 21
1148.868351084442
 31
0.0
  0
LINE
  5
298
330
31
100
AcDbEntity
  8
0
 62
74
370
5
 60
1
100
AcDbLine
 10
1558.997854143026
 20
1148.854124494028
 30
0.0
 11
1559.012080733425
 21
1148.868351084442
 31
0.0
  0
LINE
  5
299
330
31
100
AcDbEntity
  8
0
 62
74
370
5
 60
1
100
AcDbLine
 10
1547.026307323941
 20
1148.854124494028
 30
0.0
 11
1547.012080733512
 21
1148.868351084442
 31
0.0
  0
LINE
  5
29A
330
31
100
AcDbEntity
  8
0
 62
74
370
5
 60
1
100
AcDbLine
 10
1547.026307323941
 20
1148.854124494028
 30
0.0
 11
1547.012080733512
 21
1148.868351084442
 31
0.0
  0
LINE
  5
29B
330
31
100
AcDbEntity
  8
0
 62
74
370
5
 60
1
100
AcDbLine
 10
1548.012080733513
 20
1145.868351084442
 30
0.0
 11
1548.012080733513
 21
1144.189131100182
 31
0.0
  0
LINE
  5
29C
330
31
100
AcDbEntity
  8
0
 62
74
370
5
 60
1
100
AcDbLine
 10
1558.012080733513
 20
1145.868351084442
 30
0.0
 11
1558.012080733513
 21
1144.189131100182
 31
0.0
  0
LINE
  5
29D
330
31
100
AcDbEntity
  8
0
 62
74
370
5
 60
1
100
AcDbLine
 10
1545.262080733425
 20
1148.854124494028
 30
0.0
 11
1560.762080733425
 21
1148.854124494028
 31
0.0
  0
LINE
  5
29E
330
31
100
AcDbEntity
  8
0
 62
74
370
5
 60
1
100
AcDbLine
 10
1560.762080733425
 20
1146.854124494014
 30
0.0
 11
1545.262080733425
 21
1146.854124494014
 31
0.0
  0
LINE
  5
29F
330
31
100
AcDbEntity
  8
0
 62
74
370
5
 60
1
100
AcDbLine
 10
1545.262080733425
 20
1148.854124494028
 30
0.0
 11
1547.512080733425
 21
1148.854124494028
 31
0.0
  0
LINE
  5
2A0
330
31
100
AcDbEntity
  8
0
 62
74
370
5
 60
1
100
AcDbLine
 10
1547.512080733425
 20
1146.854124494014
 30
0.0
 11
1545.262080733425
 21
1146.854124494014
 31
0.0
  0
LINE
  5
2A1
330
31
100
AcDbEntity
  8
0
 62
74
370
5
 60
1
100
AcDbLine
 10
1560.762080733425
 20
1148.854124494028
 30
0.0
 11
1558.512080733512
 21
1148.854124494028
 31
0.0
  0
LINE
  5
2A2
330
31
100
AcDbEntity
  8
0
 62
74
370
5
 60
1
100
AcDbLine
 10
1560.762080733425
 20
1146.854124494014
 30
0.0
 11
1558.512080733512
 21
1146.854124494014
 31
0.0
  0
ARC
  5
2A3
330
31
100
AcDbEntity
  8
0
 62
74
370
5
 60
1
100
AcDbCircle
 10
1543.469029596535
 20
1147.854124494028
 30
0.0
 40
0.5
100
AcDbArc
 50
102.2459918914673
 51
257.7540081085327
  0
LINE
  5
2A4
330
31
100
AcDbEntity
  8
0
 62
74
370
5
 60
1
100
AcDbLine
 10
1545.262080733425
 20
1148.854124494028
 30
0.0
 11
1543.362974941724
 21
1148.342747467454
 31
0.0
  0
LINE
  5
2A5
330
31
100
AcDbEntity
  8
0
 62
74
370
5
 60
1
100
AcDbLine
 10
1545.262080733425
 20
1146.854124494014
 30
0.0
 11
1543.362974941724
 21
1147.365501520573
 31
0.0
  0
LINE
  5
2A6
330
31
100
AcDbEntity
  8
0
 62
74
370
5
 60
1
100
AcDbLine
 10
1558.012080733513
 20
1149.868351084442
 30
0.0
 11
1559.012080733425
 21
1150.868351084428
 31
0.0
  0
LINE
  5
2A7
330
31
100
AcDbEntity
  8
00
 62
74
370
5
 60
1
100
AcDbLine
 10
1559.012080733425
 20
1150.868351084428
 30
0.0
 11
1558.012080733513
 21
1151.868351084442
 31
0.0
  0
LINE
  5
2A8
330
31
100
AcDbEntity
  8
0
 62
74
370
5
 60
1
100
AcDbLine
 10
1558.012080733513
 20
1145.868351084442
 30
0.0
 11
1559.012080733425
 21
1146.868351084428
 31
0.0
  0
LINE
  5
2A9
330
31
100
AcDbEntity
  8
00
 62
74
370
5
 60
1
100
AcDbLine
 10
1559.012080733425
 20
1148.868351084442
 30
0.0
 11
1558.012080733513
 21
1149.868351084442
 31
0.0
  0
LINE
  5
2AA
330
31
100
AcDbEntity
  8
0
 62
74
370
5
 60
1
100
AcDbLine
 10
1558.012080733513
 20
1145.868351084442
 30
0.0
 11
1559.012080733425
 21
1146.868351084428
 31
0.0
  0
LINE
  5
2AB
330
31
100
AcDbEntity
  8
00
 62
74
370
5
 60
1
100
AcDbLine
 10
1559.012080733425
 20
1148.868351084442
 30
0.0
 11
1558.012080733513
 21
1149.868351084442
 31
0.0
  0
LINE
  5
2AC
330
31
100
AcDbEntity
  8
0
 62
74
370
5
 60
1
100
AcDbLine
 10
1548.012080733513
 20
1149.868351084442
 30
0.0
 11
1547.012080733512
 21
1150.868351084428
 31
0.0
  0
LINE
  5
2AD
330
31
100
AcDbEntity
  8
00
 62
74
370
5
 60
1
100
AcDbLine
 10
1547.012080733512
 20
1150.868351084428
 30
0.0
 11
1548.012080733513
 21
1151.868351084442
 31
0.0
  0
LINE
  5
2AE
330
31
100
AcDbEntity
  8
00
 62
74
370
5
 60
1
100
AcDbLine
 10
1547.012080733512
 20
1148.868351084442
 30
0.0
 11
1548.012080733513
 21
1149.868351084442
 31
0.0
  0
LINE
  5
2AF
330
31
100
AcDbEntity
  8
0
 62
74
370
5
 60
1
100
AcDbLine
 10
1548.012080733513
 20
1145.868351084442
 30
0.0
 11
1547.012080733512
 21
1146.868351084428
 31
0.0
  0
LINE
  5
2B0
330
31
100
AcDbEntity
  8
00
 62
74
370
5
 60
1
100
AcDbLine
 10
1547.012080733512
 20
1148.868351084442
 30
0.0
 11
1548.012080733513
 21
1149.868351084442
 31
0.0
  0
LINE
  5
2B1
330
31
100
AcDbEntity
  8
0
 62
74
370
5
 60
1
100
AcDbLine
 10
1558.012080733513
 20
1151.868351084442
 30
0.0
 11
1548.012080733513
 21
1151.868351084442
 31
0.0
  0
LINE
  5
2B2
330
31
100
AcDbEntity
  8
0
 62
74
370
5
 60
1
100
AcDbLine
 10
1558.012080733513
 20
1149.868351084442
 30
0.0
 11
1548.012080733513
 21
1149.868351084442
 31
0.0
  0
LINE
  5
2B3
330
31
100
AcDbEntity
  8
00
 62
74
370
5
 60
1
100
AcDbLine
 10
1548.012080733513
 20
1151.868351084442
 30
0.0
 11
1558.012080733513
 21
1151.868351084442
 31
0.0
  0
LINE
  5
2B4
330
31
100
AcDbEntity
  8
0
 62
74
370
5
 60
1
100
AcDbLine
 10
1558.012080733513
 20
1145.868351084442
 30
0.0
 11
1548.012080733513
 21
1145.868351084442
 31
0.0
  0
LINE
  5
2B5
330
31
100
AcDbEntity
  8
00
 62
74
370
5
 60
1
100
AcDbLine
 10
1548.012080733513
 20
1149.868351084442
 30
0.0
 11
1558.012080733513
 21
1149.868351084442
 31
0.0
  0
LINE
  5
2B6
330
31
100
AcDbEntity
  8
00
 62
74
370
5
 60
1
100
AcDbLine
 10
1548.012080733513
 20
1145.868351084442
 30
0.0
 11
1558.012080733513
 21
1145.868351084442
 31
0.0
  0
LINE
  5
2B7
330
31
100
AcDbEntity
  8
0
 62
74
370
5
 60
1
100
AcDbLine
 10
1558.012080733513
 20
1145.868351084442
 30
0.0
 11
1548.012080733513
 21
1145.868351084442
 31
0.0
  0
LINE
  5
2B8
330
31
100
AcDbEntity
  8
00
 62
74
370
5
 60
1
100
AcDbLine
 10
1548.012080733513
 20
1149.868351084442
 30
0.0
 11
1558.012080733513
 21
1149.868351084442
 31
0.0
  0
LINE
  5
2B9
330
31
100
AcDbEntity
  8
00
 62
74
370
5
 60
1
100
AcDbLine
 10
1561.012080733513
 20
1145.868351084442
 30
0.0
 11
1545.012080733425
 21
1145.868351084442
 31
0.0
  0
ARC
  5
2BA
330
31
100
AcDbEntity
  8
00
 62
74
370
5
 60
1
100
AcDbCircle
 10
1553.012080733425
 20
1137.584808720727
 30
0.0
 40
8.283542363731021
100
AcDbArc
 50
50.66993661763317
 51
129.3300633823668
  0
LINE
  5
2BB
330
31
100
AcDbEntity
  8
00
 62
74
370
5
 60
1
100
AcDbLine
 10
1545.012080733425
 20
1145.868351084442
 30
0.0
 11
1559.025540840427
 21
1145.868351084442
 31
0.0
  0
ARC
  5
2BC
330
31
100
AcDbEntity
  8
00
 62
74
370
5
 60
1
100
AcDbCircle
 10
1545.137080733512
 20
1143.098070329812
 30
0.0
 40
2.773099431950017
100
AcDbArc
 50
18.80977634904255
 51
161.1902236509574
  0
ARC
  5
2BD
330
31
100
AcDbEntity
  8
00
 62
74
370
5
 60
1
100
AcDbCircle
 10
1560.887080733425
 20
1157.533380827954
 30
0.0
 40
2.773099431950476
100
AcDbArc
 50
18.80977634904255
 51
161.1902236509574
  0
ARC
  5
2BE
330
31
100
AcDbEntity
  8
00
 62
74
370
5
 60
1
100
AcDbCircle
 10
1560.887080733425
 20
1155.073942337215
 30
0.0
 40
2.773099431950476
100
AcDbArc
 50
198.8097763490425
 51
341.1902236509575
  0
LINE
  5
2BF
330
31
100
AcDbEntity
  8
0
 62
74
370
5
 60
1
100
AcDbLine
 10
1562.572360812622
 20
1148.354124494028
 30
0.0
 11
1560.762080733425
 21
1148.854124494028
 31
0.0
  0
LINE
  5
2C0
330
31
100
AcDbEntity
  8
0
 62
74
370
5
 60
1
100
AcDbLine
 10
1562.572360812622
 20
1147.354124494028
 30
0.0
 11
1560.762080733425
 21
1146.854124494014
 31
0.0
  0
ARC
  5
2C1
330
31
100
AcDbEntity
  8
00
 62
74
370
5
 60
1
100
AcDbCircle
 10
1560.887080733425
 20
1143.098070329812
 30
0.0
 40
2.773099431950476
100
AcDbArc
 50
18.80977634904255
 51
161.1902236509574
  0
LINE
  5
2C2
330
31
100
AcDbEntity
  8
0
 62
74
370
5
 60
1
100
AcDbLine
 10
1558.012080733513
 20
1139.547571068717
 30
0.0
 11
1558.012080733513
 21
1137.868351084428
 31
0.0
  0
LINE
  5
2C3
330
31
100
AcDbEntity
  8
0
 62
74
370
5
 60
1
100
AcDbLine
 10
1548.012080733513
 20
1139.547571068717
 30
0.0
 11
1548.012080733513
 21
1137.868351084428
 31
0.0
  0
ARC
  5
2C4
330
31
100
AcDbEntity
  8
00
 62
74
370
5
 60
1
100
AcDbCircle
 10
1553.012080733425
 20
1146.151893448172
 30
0.0
 40
8.283542363731021
100
AcDbArc
 50
230.6699366176307
 51
309.3300633823668
  0
LINE
  5
2C5
330
31
100
AcDbEntity
  8
00
 62
74
370
5
 60
1
100
AcDbLine
 10
1546.998620626539
 20
1137.868351084428
 30
0.0
 11
1559.025540840427
 21
1137.868351084428
 31
0.0
  0
LINE
  5
2C6
330
31
100
AcDbEntity
  8
00
 62
74
370
5
 60
1
100
AcDbLine
 10
1561.012080733425
 20
1137.868351084428
 30
0.0
 11
1545.012080733425
 21
1137.868351084428
 31
0.0
  0
ARC
  5
2C7
330
31
100
AcDbEntity
  8
00
 62
74
370
5
 60
1
100
AcDbCircle
 10
1553.012080733425
 20
1146.151893448172
 30
0.0
 40
8.283542363731021
100
AcDbArc
 50
230.6699366176307
 51
309.3300633823668
  0
LINE
  5
2C8
330
31
100
AcDbEntity
  8
00
 62
74
370
5
 60
1
100
AcDbLine
 10
1561.012080733425
 20
1137.868351084428
 30
0.0
 11
1545.012080733513
 21
1137.868351084428
 31
0.0
  0
ARC
  5
2C9
330
31
100
AcDbEntity
  8
00
 62
74
370
5
 60
1
100
AcDbCircle
 10
1545.137080733512
 20
1140.638631839058
 30
0.0
 40
2.773099431950017
100
AcDbArc
 50
198.8097763490425
 51
341.1902236509575
  0
ARC
  5
2CA
330
31
100
AcDbEntity
  8
00
 62
74
370
5
 60
1
100
AcDbCircle
 10
1545.137080733512
 20
1140.638631839058
 30
0.0
 40
2.773099431950017
100
AcDbArc
 50
198.8097763490425
 51
341.1902236509575
  0
ARC
  5
2CB
330
31
100
AcDbEntity
  8
00
 62
74
370
5
 60
1
100
AcDbCircle
 10
1560.887080733425
 20
1140.638631839058
 30
0.0
 40
2.773099431950476
100
AcDbArc
 50
198.8097763490425
 51
341.1902236509575
  0
ARC
  5
2CC
330
31
100
AcDbEntity
  8
00
 62
74
370
5
 60
1
100
AcDbCircle
 10
1560.887080733425
 20
1140.638631839058
 30
0.0
 40
2.773099431950476
100
AcDbArc
 50
198.8097763490425
 51
341.1902236509575
  0
LINE
  5
2CD
330
31
100
AcDbEntity
  8
0
 62
74
370
5
 60
1
100
AcDbLine
 10
1568.012080733425
 20
1137.868351084428
 30
0.0
 11
1538.012080733425
 21
1137.868351084428
 31
0.0
  0
LINE
  5
2CE
330
31
100
AcDbEntity
  8
00
 62
74
370
5
 60
1
100
AcDbLine
 10
1542.512080733425
 20
1143.992193061568
 30
0.0
 11
1542.512080733425
 21
1139.744509107303
 31
0.0
  0
LINE
  5
2CF
330
31
100
AcDbEntity
  8
00
 62
74
370
5
 60
1
100
AcDbLine
 10
1547.762080733513
 20
1139.744509107288
 30
0.0
 11
1547.762080733513
 21
1143.992193061568
 31
0.0
  0
LINE
  5
2D0
330
31
100
AcDbEntity
  8
00
 62
74
370
5
 60
1
100
AcDbLine
 10
1542.512080733425
 20
1139.744509107303
 30
0.0
 11
1542.512080733425
 21
1143.992193061568
 31
0.0
  0
LINE
  5
2D1
330
31
100
AcDbEntity
  8
0
 62
74
370
5
 60
1
100
AcDbLine
 10
1542.512080733425
 20
1139.744509107244
 30
0.0
 11
1542.512080733425
 21
1143.992193061568
 31
0.0
  0
LINE
  5
2D2
330
31
100
AcDbEntity
  8
00
 62
74
370
5
 60
1
100
AcDbLine
 10
1563.512080733512
 20
1143.992193061582
 30
0.0
 11
1563.512080733512
 21
1139.744509107288
 31
0.0
  0
LINE
  5
2D3
330
31
100
AcDbEntity
  8
00
 62
74
370
5
 60
1
100
AcDbLine
 10
1558.262080733425
 20
1139.744509107288
 30
0.0
 11
1558.262080733425
 21
1143.992193061568
 31
0.0
  0
LINE
  5
2D4
330
31
100
AcDbEntity
  8
0
 62
74
370
5
 60
1
100
AcDbLine
 10
1563.512080733512
 20
1139.744509107332
 30
0.0
 11
1563.512080733512
 21
1143.992193061582
 31
0.0
  0
LINE
  5
2D5
330
31
100
AcDbEntity
  8
00
 62
74
370
5
 60
1
100
AcDbLine
 10
1563.512080733425
 20
1139.744509107288
 30
0.0
 11
1563.512080733425
 21
1143.992193061611
 31
0.0
  0
LINE
  5
2D6
330
31
100
AcDbEntity
  8
0
 62
74
370
5
 60
1
100
AcDbLine
 10
1548.012080733513
 20
1166.376661582588
 30
0.0
 11
1547.012080733512
 21
1167.376661582603
 31
0.0
  0
LINE
  5
2D7
330
31
100
AcDbEntity
  8
0
 62
74
370
5
 60
1
100
AcDbLine
 10
1548.012080733513
 20
1166.376661582588
 30
0.0
 11
1547.012080733512
 21
1167.376661582603
 31
0.0
  0
LINE
  5
2D8
330
31
100
AcDbEntity
  8
0
 62
74
370
5
 60
1
100
AcDbLine
 10
1558.012080733513
 20
1166.376661582588
 30
0.0
 11
1559.012080733425
 21
1167.376661582603
 31
0.0
  0
LINE
  5
2D9
330
31
100
AcDbEntity
  8
0
 62
74
370
5
 60
1
100
AcDbLine
 10
1558.012080733513
 20
1166.376661582588
 30
0.0
 11
1559.012080733425
 21
1167.376661582603
 31
0.0
  0
ARC
  5
2DA
330
31
100
AcDbEntity
  8
0
 62
74
 60
1
100
AcDbCircle
 10
1603.012080733425
 20
1097.376661582589
 30
0.0
 40
10.0
100
AcDbArc
 50
0.0
 51
90.0
  0
LINE
  5
2DB
330
31
100
AcDbEntity
  8
0
 62
74
370
5
 60
1
100
AcDbLine
 10
1553.012080733425
 20
1107.376661582589
 30
0.0
 11
1568.012080733425
 21
1107.376661582589
 31
0.0
  0
LINE
  5
2DC
330
31
100
AcDbEntity
  8
0
 62
74
370
5
 60
1
100
AcDbLine
 10
1553.012080733425
 20
1107.376661582589
 30
0.0
 11
1568.012080733425
 21
1107.376661582589
 31
0.0
  0
LINE
  5
2DD
330
31
100
AcDbEntity
  8
0
 62
74
370
5
 60
1
100
AcDbLine
 10
1553.012080733425
 20
1107.376661582589
 30
0.0
 11
1568.012080733425
 21
1107.376661582589
 31
0.0
  0
LINE
  5
2DE
330
31
100
AcDbEntity
  8
0
 62
74
370
5
 60
1
100
AcDbLine
 10
1568.012080733425
 20
1107.376661582589
 30
0.0
 11
1568.012080733425
 21
1137.868351084428
 31
0.0
  0
LINE
  5
2DF
330
31
100
AcDbEntity
  8
0
 62
74
370
5
 60
1
100
AcDbLine
 10
1538.012080733425
 20
1137.868351084428
 30
0.0
 11
1538.012080733425
 21
1107.376661582589
 31
0.0
  0
LINE
  5
2E0
330
31
100
AcDbEntity
  8
0
 62
74
370
5
 60
1
100
AcDbLine
 10
1568.012080733425
 20
1107.376661582589
 30
0.0
 11
1568.012080733425
 21
1135.868351084428
 31
0.0
  0
LINE
  5
2E1
330
31
100
AcDbEntity
  8
0
 62
74
370
5
 60
1
100
AcDbLine
 10
1538.012080733425
 20
1137.868351084428
 30
0.0
 11
1538.012080733425
 21
1107.376661582589
 31
0.0
  0
LINE
  5
2E2
330
31
100
AcDbEntity
  8
0
 62
74
370
5
 60
1
100
AcDbLine
 10
1568.012080733425
 20
1107.376661582589
 30
0.0
 11
1568.012080733425
 21
1137.868351084428
 31
0.0
  0
LINE
  5
2E3
330
31
100
AcDbEntity
  8
0
 62
74
370
5
 60
1
100
AcDbLine
 10
1568.012080733425
 20
1107.376661582589
 30
0.0
 11
1568.012080733425
 21
1135.868351084428
 31
0.0
  0
LINE
  5
2E4
330
31
100
AcDbEntity
  8
0
 62
74
370
5
 60
1
100
AcDbLine
 10
1568.012080733425
 20
1107.376661582589
 30
0.0
 11
1568.012080733425
 21
1137.868351084428
 31
0.0
  0
LINE
  5
2E5
330
31
100
AcDbEntity
  8
0
 62
74
370
5
 60
1
100
AcDbLine
 10
1538.012080733425
 20
1137.868351084428
 30
0.0
 11
1538.012080733425
 21
1107.376661582589
 31
0.0
  0
LINE
  5
2E6
330
31
100
AcDbEntity
  8
0
 62
74
370
5
 60
1
100
AcDbLine
 10
1568.012080733425
 20
1107.376661582589
 30
0.0
 11
1568.012080733425
 21
1135.868351084428
 31
0.0
  0
LINE
  5
2E7
330
31
100
AcDbEntity
  8
0
 62
8
370
9
 60
1
100
AcDbLine
 10
1493.012080733411
 20
969.3767302183556
 30
0.0
 11
1613.012080733411
 21
969.3767302183556
 31
0.0
  0
HATCH
  5
2E8
330
31
100
AcDbEntity
  8
0
 62
74
370
5
 60
1
100
AcDbHatch
 10
0.0
 20
0.0
 30
0.0
210
0.0
220
0.0
230
1.0
  2
ANSI31
 70
0
 71
0
 91
1
 92
7
 72
1
 73
1
 93
10
 10
1562.572360812622
 20
1148.354124494028
 42
0.0
 10
1560.762080733425
 20
1148.854124494028
 42
0.0
 10
1558.512080733512
 20
1148.854124494028
 42
0.0
 10
1545.262080733425
 20
1148.854124494028
 42
0.0
 10
1543.315389099932
 20
1148.329933907328
 42
0.7279374760151648
 10
1543.315389099932
 20
1147.378315080671
 42
0.0
 10
1545.262080733425
 20
1146.854124494014
 42
0.0
 10
1547.512080733425
 20
1146.854124494014
 42
0.0
 10
1560.762080733425
 20
1146.854124494014
 42
0.0
 10
1562.572360812622
 20
1147.354124494028
 42
1.0
 97
0
 75
0
 76
1
 52
0.0
 41
20.0
 77
0
 78
1
 53
45.0
 43
478.9715507518206
 44
171.6187235244005
 45
-1.767766952966368
 46
1.767766952966368
 79
0
 47
0.1260975072300712
 98
1
 10
1554.342993092018
 20
1147.524070587475
  0
ENDBLK
  5
33
330
31
100
AcDbEntity
  8
0
100
AcDbBlockEnd
  0
ENDSEC
  0
SECTION
  2
ENTITIES
  0
INSERT
  5
2F
330
17
100
AcDbEntity
  8
0
100
AcDbBlockReference
  2
*U1889
 10
-1453.0120807334251
 20
-937.3766615825889
 30
0.0
  0
ENDSEC
  0
SECTION
  2
OBJECTS
  0
DICTIONARY
  5
A
330
0
100
AcDbDictionary
281
1
  3
ACAD_COLOR
350
B
  3
ACAD_GROUP
350
C
  3
ACAD_LAYOUT
350
D
  3
ACAD_MATERIAL
350
E
  3
ACAD_MLEADERSTYLE
350
F
  3
ACAD_MLINESTYLE
350
10
  3
ACAD_PLOTSETTINGS
350
11
  3
ACAD_PLOTSTYLENAME
350
12
  3
ACAD_SCALELIST
350
14
  3
ACAD_TABLESTYLE
350
15
  3
ACAD_VISUALSTYLE
350
16
  3
EZDXF_META
350
2D
  0
DICTIONARY
  5
B
330
A
100
AcDbDictionary
281
1
  0
DICTIONARY
  5
C
330
A
100
AcDbDictionary
281
1
  0
DICTIONARY
  5
D
330
A
100
AcDbDictionary
281
1
  3
Model
350
1A
  3
Layout1
350
1E
  0
DICTIONARY
  5
E
330
A
100
AcDbDictionary
281
1
  3
ByBlock
350
1F
  3
ByLayer
350
20
  3
Global
350
21
  0
DICTIONARY
  5
F
330
A
100
AcDbDictionary
281
1
  3
Standard
350
2C
  0
DICTIONARY
  5
10
330
A
100
AcDbDictionary
281
1
  3
Standard
350
22
  0
DICTIONARY
  5
11
330
A
100
AcDbDictionary
281
1
  0
ACDBDICTIONARYWDFLT
  5
12
330
A
100
AcDbDictionary
281
1
  3
Normal
350
13
100
AcDbDictionaryWithDefault
340
13
  0
ACDBPLACEHOLDER
  5
13
330
12
  0
DICTIONARY
  5
14
330
A
100
AcDbDictionary
281
1
  0
DICTIONARY
  5
15
330
A
100
AcDbDictionary
281
1
  0
DICTIONARY
  5
16
330
A
100
AcDbDictionary
281
1
  0
LAYOUT
  5
1A
330
D
100
AcDbPlotSettings
  1

  4
A3
  6

 40
7.5
 41
20.0
 42
7.5
 43
20.0
 44
420.0
 45
297.0
 46
0.0
 47
0.0
 48
0.0
 49
0.0
140
0.0
141
0.0
142
1.0
143
1.0
 70
1024
 72
1
 73
0
 74
5
  7

 75
16
 76
0
 77
2
 78
300
147
1.0
148
0.0
149
0.0
100
AcDbLayout
  1
Model
 70
1
 71
0
 10
0.0
 20
0.0
 11
420.0
 21
297.0
 12
0.0
 22
0.0
 32
0.0
 14
1e+20
 24
1e+20
 34
1e+20
 15
-1e+20
 25
-1e+20
 35
-1e+20
146
0.0
 13
0.0
 23
0.0
 33
0.0
 16
1.0
 26
0.0
 36
0.0
 17
0.0
 27
1.0
 37
0.0
 76
1
330
17
  0
LAYOUT
  5
1E
330
D
100
AcDbPlotSettings
  1

  4
A3
  6

 40
7.5
 41
20.0
 42
7.5
 43
20.0
 44
420.0
 45
297.0
 46
0.0
 47
0.0
 48
0.0
 49
0.0
140
0.0
141
0.0
142
1.0
143
1.0
 70
0
 72
1
 73
0
 74
5
  7

 75
16
 76
0
 77
2
 78
300
147
1.0
148
0.0
149
0.0
100
AcDbLayout
  1
Layout1
 70
1
 71
1
 10
0.0
 20
0.0
 11
420.0
 21
297.0
 12
0.0
 22
0.0
 32
0.0
 14
1e+20
 24
1e+20
 34
1e+20
 15
-1e+20
 25
-1e+20
 35
-1e+20
146
0.0
 13
0.0
 23
0.0
 33
0.0
 16
1.0
 26
0.0
 36
0.0
 17
0.0
 27
1.0
 37
0.0
 76
1
330
1B
  0
MATERIAL
  5
1F
102
{ACAD_REACTORS
330
E
102
}
330
E
100
AcDbMaterial
  1
ByBlock
  2

 70
0
 40
1.0
 71
1
 41
1.0
 91
-1023410177
 42
1.0
 72
1
  3

 73
1
 74
1
 75
1
 44
0.5
 73
0
 45
1.0
 46
1.0
 77
1
  4

 78
1
 79
1
170
1
 48
1.0
171
1
  6

172
1
173
1
174
1
140
1.0
141
1.0
175
1
  7

176
1
177
1
178
1
143
1.0
179
1
  8

270
1
271
1
272
1
145
1.0
146
1.0
273
1
  9

274
1
275
1
276
1
 42
1.0
 72
1
  3

 73
1
 74
1
 75
1
 94
63
  0
MATERIAL
  5
20
102
{ACAD_REACTORS
330
E
102
}
330
E
100
AcDbMaterial
  1
ByLayer
  2

 70
0
 40
1.0
 71
1
 41
1.0
 91
-1023410177
 42
1.0
 72
1
  3

 73
1
 74
1
 75
1
 44
0.5
 73
0
 45
1.0
 46
1.0
 77
1
  4

 78
1
 79
1
170
1
 48
1.0
171
1
  6

172
1
173
1
174
1
140
1.0
141
1.0
175
1
  7

176
1
177
1
178
1
143
1.0
179
1
  8

270
1
271
1
272
1
145
1.0
146
1.0
273
1
  9

274
1
275
1
276
1
 42
1.0
 72
1
  3

 73
1
 74
1
 75
1
 94
63
  0
MATERIAL
  5
21
102
{ACAD_REACTORS
330
E
102
}
330
E
100
AcDbMaterial
  1
Global
  2

 70
0
 40
1.0
 71
1
 41
1.0
 91
-1023410177
 42
1.0
 72
1
  3

 73
1
 74
1
 75
1
 44
0.5
 73
0
 45
1.0
 46
1.0
 77
1
  4

 78
1
 79
1
170
1
 48
1.0
171
1
  6

172
1
173
1
174
1
140
1.0
141
1.0
175
1
  7

176
1
177
1
178
1
143
1.0
179
1
  8

270
1
271
1
272
1
145
1.0
146
1.0
273
1
  9

274
1
275
1
276
1
 42
1.0
 72
1
  3

 73
1
 74
1
 75
1
 94
63
  0
MLINESTYLE
  5
22
102
{ACAD_REACTORS
330
10
102
}
330
10
100
AcDbMlineStyle
  2
Standard
 70
0
  3

 62
256
 51
90.0
 52
90.0
 71
2
 49
0.5
 62
256
  6
BYLAYER
 49
-0.5
 62
256
  6
BYLAYER
  0
MLEADERSTYLE
  5
2C
102
{ACAD_REACTORS
330
F
102
}
330
F
100
AcDbMLeaderStyle
179
2
170
2
171
1
172
0
 90
2
 40
0.0
 41
0.0
173
1
 91
-1056964608
 92
-2
290
1
 42
2.0
291
1
 43
8.0
  3
Standard
 44
4.0
300

342
29
174
1
175
1
176
0
178
1
 93
-1056964608
 45
4.0
292
0
297
0
 46
4.0
 94
-1056964608
 47
1.0
 49
1.0
140
1.0
294
1
141
0.0
177
0
142
1.0
295
0
296
0
143
3.75
271
0
272
9
273
9
  0
DICTIONARY
  5
2D
330
A
100
AcDbDictionary
280
1
281
1
  3
CREATED_BY_EZDXF
350
2E
  3
WRITTEN_BY_EZDXF
350
2EE
  0
DICTIONARYVAR
  5
2E
330
2D
100
DictionaryVariables
280
0
  1
1.4.4 @ 2026-09-23T14:05:13.309067+00:00
  0
DICTIONARYVAR
  5
2EE
330
2D
100
DictionaryVariables
280
0
  1
1.4.4 @ 2026-09-23T14:05:13.587103+00:00
  0
ENDSEC
  0
EOF
