  0
SECTION
  2
HEADER
  9
$ACADVER
  1
AC1032
  9
$ACADMAINTVER
 90
4
  9
$DWGCODEPAGE
  3
ANSI_1252
  9
$LASTSAVEDBY
  1
ezdxf
  9
$REQUIREDVERSIONS
160
0
  9
$INSBASE
 10
0.0
 20
0.0
 30
0.0
  9
$EXTMIN
 10
1e+20
 20
1e+20
 30
1e+20
  9
$EXTMAX
 10
-1e+20
 20
-1e+20
 30
-1e+20
  9
$LIMMIN
 10
0.0
 20
0.0
  9
$LIMMAX
 10
420.0
 20
297.0
  9
$ORTHOMODE
 70
0
  9
$REGENMODE
 70
1
  9
$FILLMODE
 70
1
  9
$QTEXTMODE
 70
0
  9
$MIRRTEXT
 70
1
  9
$LTSCALE
 40
1.0
  9
$ATTMODE
 70
1
  9
$TEXTSIZE
 40
2.5
  9
$TRACEWID
 40
1.0
  9
$TEXTSTYLE
  7
Standard
  9
$CLAYER
  8
0
  9
$CELTYPE
  6
ByLayer
  9
$CECOLOR
 62
256
  9
$CELTSCALE
 40
1.0
  9
$DISPSILH
 70
0
  9
$DIMSCALE
 40
1.0
  9
$DIMASZ
 40
2.5
  9
$DIMEXO
 40
0.625
  9
$DIMDLI
 40
3.75
  9
$DIMRND
 40
0.0
  9
$DIMDLE
 40
0.0
  9
$DIMEXE
 40
1.25
  9
$DIMTP
 40
0.0
  9
$DIMTM
 40
0.0
  9
$DIMTXT
 40
2.5
  9
$DIMCEN
 40
2.5
  9
$DIMTSZ
 40
0.0
  9
$DIMTOL
 70
0
  9
$DIMLIM
 70
0
  9
$DIMTIH
 70
0
  9
$DIMTOH
 70
0
  9
$DIMSE1
 70
0
  9
$DIMSE2
 70
0
  9
$DIMTAD
 70
1
  9
$DIMZIN
 70
8
  9
$DIMBLK
  1

  9
$DIMASO
 70
1
  9
$DIMSHO
 70
1
  9
$DIMPOST
  1

  9
$DIMAPOST
  1

  9
$DIMALT
 70
0
  9
$DIMALTD
 70
3
  9
$DIMALTF
 40
0.03937007874
  9
$DIMLFAC
 40
1.0
  9
$DIMTOFL
 70
1
  9
$DIMTVP
 40
0.0
  9
$DIMTIX
 70
0
  9
$DIMSOXD
 70
0
  9
$DIMSAH
 70
0
  9
$DIMBLK1
  1

  9
$DIMBLK2
  1

  9
$DIMSTYLE
  2
ISO-25
  9
$DIMCLRD
 70
0
  9
$DIMCLRE
 70
0
  9
$DIMCLRT
 70
0
  9
$DIMTFAC
 40
1.0
  9
$DIMGAP
 40
0.625
  9
$DIMJUST
 70
0
  9
$DIMSD1
 70
0
  9
$DIMSD2
 70
0
  9
$DIMTOLJ
 70
0
  9
$DIMTZIN
 70
8
  9
$DIMALTZ
 70
0
  9
$DIMALTTZ
 70
0
  9
$DIMUPT
 70
0
  9
$DIMDEC
 70
2
  9
$DIMTDEC
 70
2
  9
$DIMALTU
 70
2
  9
$DIMALTTD
 70
3
  9
$DIMTXSTY
  7
Standard
  9
$DIMAUNIT
 70
0
  9
$DIMADEC
 70
0
  9
$DIMALTRND
 40
0.0
  9
$DIMAZIN
 70
0
  9
$DIMDSEP
 70
44
  9
$DIMATFIT
 70
3
  9
$DIMFRAC
 70
0
  9
$DIMLDRBLK
  1

  9
$DIMLUNIT
 70
2
  9
$DIMLWD
 70
-2
  9
$DIMLWE
 70
-2
  9
$DIMTMOVE
 70
0
  9
$DIMFXL
 40
1.0
  9
$DIMFXLON
 70
0
  9
$DIMJOGANG
 40
0.785398163397
  9
$DIMTFILL
 70
0
  9
$DIMTFILLCLR
 70
0
  9
$DIMARCSYM
 70
0
  9
$DIMLTYPE
  6

  9
$DIMLTEX1
  6

  9
$DIMLTEX2
  6

  9
$DIMTXTDIRECTION
 70
0
  9
$LUNITS
 70
2
  9
$LUPREC
 70
4
  9
$SKETCHINC
 40
1.0
  9
$FILLETRAD
 40
10.0
  9
$AUNITS
 70
0
  9
$AUPREC
 70
2
  9
$MENU
  1
.
  9
$ELEVATION
 40
0.0
  9
$PELEVATION
 40
0.0
  9
$THICKNESS
 40
0.0
  9
$LIMCHECK
 70
0
  9
$CHAMFERA
 40
0.0
  9
$CHAMFERB
 40
0.0
  9
$CHAMFERC
 40
0.0
  9
$CHAMFERD
 40
0.0
  9
$SKPOLY
 70
0
  9
$TDCREATE
 40
2461307.8775694445
  9
$TDUCREATE
 40
2458532.153996898
  9
$TDUPDATE
 40
2461307.8775694445
  9
$TDUUPDATE
 40
2458532.1544311
  9
$TDINDWG
 40
0.0
  9
$TDUSRTIMER
 40
0.0
  9
$USRTIMER
 70
1
  9
$ANGBASE
 50
0.0
  9
$ANGDIR
 70
0
  9
$PDMODE
 70
0
  9
$PDSIZE
 40
0.0
  9
$PLINEWID
 40
0.0
  9
$SPLFRAME
 70
0
  9
$SPLINETYPE
 70
6
  9
$SPLINESEGS
 70
8
  9
$HANDSEED
  5
153
  9
$SURFTAB1
 70
6
  9
$SURFTAB2
 70
6
  9
$SURFTYPE
 70
6
  9
$SURFU
 70
6
  9
$SURFV
 70
6
  9
$UCSBASE
  2

  9
$UCSNAME
  2

  9
$UCSORG
 10
0.0
 20
0.0
 30
0.0
  9
$UCSXDIR
 10
1.0
 20
0.0
 30
0.0
  9
$UCSYDIR
 10
0.0
 20
1.0
 30
0.0
  9
$UCSORTHOREF
  2

  9
$UCSORTHOVIEW
 70
0
  9
$UCSORGTOP
 10
0.0
 20
0.0
 30
0.0
  9
$UCSORGBOTTOM
 10
0.0
 20
0.0
 30
0.0
  9
$UCSORGLEFT
 10
0.0
 20
0.0
 30
0.0
  9
$UCSORGRIGHT
 10
0.0
 20
0.0
 30
0.0
  9
$UCSORGFRONT
 10
0.0
 20
0.0
 30
0.0
  9
$UCSORGBACK
 10
0.0
 20
0.0
 30
0.0
  9
$PUCSBASE
  2

  9
$PUCSNAME
  2

  9
$PUCSORG
 10
0.0
 20
0.0
 30
0.0
  9
$PUCSXDIR
 10
1.0
 20
0.0
 30
0.0
  9
$PUCSYDIR
 10
0.0
 20
1.0
 30
0.0
  9
$PUCSORTHOREF
  2

  9
$PUCSORTHOVIEW
 70
0
  9
$PUCSORGTOP
 10
0.0
 20
0.0
 30
0.0
  9
$PUCSORGBOTTOM
 10
0.0
 20
0.0
 30
0.0
  9
$PUCSORGLEFT
 10
0.0
 20
0.0
 30
0.0
  9
$PUCSORGRIGHT
 10
0.0
 20
0.0
 30
0.0
  9
$PUCSORGFRONT
 10
0.0
 20
0.0
 30
0.0
  9
$PUCSORGBACK
 10
0.0
 20
0.0
 30
0.0
  9
$USERI1
 70
0
  9
$USERI2
 70
0
  9
$USERI3
 70
0
  9
$USERI4
 70
0
  9
$USERI5
 70
0
  9
$USERR1
 40
0.0
  9
$USERR2
 40
0.0
  9
$USERR3
 40
0.0
  9
$USERR4
 40
0.0
  9
$USERR5
 40
0.0
  9
$WORLDVIEW
 70
1
  9
$SHADEDGE
 70
3
  9
$SHADEDIF
 70
70
  9
$TILEMODE
 70
1
  9
$MAXACTVP
 70
64
  9
$PINSBASE
 10
0.0
 20
0.0
 30
0.0
  9
$PLIMCHECK
 70
0
  9
$PEXTMIN
 10
1e+20
 20
1e+20
 30
1e+20
  9
$PEXTMAX
 10
-1e+20
 20
-1e+20
 30
-1e+20
  9
$PLIMMIN
 10
0.0
 20
0.0
  9
$PLIMMAX
 10
420.0
 20
297.0
  9
$UNITMODE
 70
0
  9
$VISRETAIN
 70
1
  9
$PLINEGEN
 70
0
  9
$PSLTSCALE
 70
1
  9
$TREEDEPTH
 70
3020
  9
$CMLSTYLE
  2
Standard
  9
$CMLJUST
 70
0
  9
$CMLSCALE
 40
20.0
  9
$PROXYGRAPHICS
 70
1
  9
$MEASUREMENT
 70
1
  9
$CELWEIGHT
370
-1
  9
$ENDCAPS
280
0
  9
$JOINSTYLE
280
0
  9
$LWDISPLAY
290
0
  9
$INSUNITS
 70
4
  9
$HYPERLINKBASE
  1

  9
$STYLESHEET
  1

  9
$XEDIT
290
1
  9
$CEPSNTYPE
380
0
  9
$PSTYLEMODE
290
1
  9
$FINGERPRINTGUID
  2
{8BF6C143-DC9E-45F9-8699-C0A605900C9E}
  9
$VERSIONGUID
  2
{4E90B21D-D70F-4A83-8196-EF8F8C91F206}
  9
$EXTNAMES
290
1
  9
$PSVPSCALE
 40
0.0
  9
$OLESTARTUP
290
0
  9
$SORTENTS
280
127
  9
$INDEXCTL
280
0
  9
$HIDETEXT
280
1
  9
$XCLIPFRAME
280
1
  9
$HALOGAP
280
0
  9
$OBSCOLOR
 70
257
  9
$OBSLTYPE
280
0
  9
$INTERSECTIONDISPLAY
280
0
  9
$INTERSECTIONCOLOR
 70
257
  9
$DIMASSOC
280
2
  9
$PROJECTNAME
  1

  9
$CAMERADISPLAY
290
0
  9
$LENSLENGTH
 40
50.0
  9
$CAMERAHEIGHT
 40
0.0
  9
$STEPSPERSEC
 40
24.0
  9
$STEPSIZE
 40
100.0
  9
$3DDWFPREC
 40
2.0
  9
$PSOLWIDTH
 40
0.005
  9
$PSOLHEIGHT
 40
0.08
  9
$LOFTANG1
 40
1.570796326795
  9
$LOFTANG2
 40
1.570796326795
  9
$LOFTMAG1
 40
0.0
  9
$LOFTMAG2
 40
0.0
  9
$LOFTPARAM
 70
7
  9
$LOFTNORMALS
280
1
  9
$LATITUDE
 40
37.795
  9
$LONGITUDE
 40
-122.394
  9
$NORTHDIRECTION
 40
0.0
  9
$TIMEZONE
 70
-8000
  9
$LIGHTGLYPHDISPLAY
280
1
  9
$TILEMODELIGHTSYNCH
280
1
  9
$CMATERIAL
347
20
  9
$SOLIDHIST
280
0
  9
$SHOWHIST
280
1
  9
$DWFFRAME
280
2
  9
$DGNFRAME
280
2
  9
$REALWORLDSCALE
290
1
  9
$INTERFERECOLOR
 62
256
  9
$CSHADOW
280
0
  9
$SHADOWPLANELOCATION
 40
0.0
  0
ENDSEC
  0
SECTION
  2
CLASSES
  0
CLASS
  1
ACDBDICTIONARYWDFLT
  2
AcDbDictionaryWithDefault
  3
ObjectDBX Classes
 90
0
 91
0
280
0
281
0
  0
CLASS
  1
SUN
  2
AcDbSun
  3
SCENEOE
 90
1153
 91
0
280
0
281
0
  0
CLASS
  1
VISUALSTYLE
  2
AcDbVisualStyle
  3
ObjectDBX Classes
 90
4095
 91
0
280
0
281
0
  0
CLASS
  1
MATERIAL
  2
AcDbMaterial
  3
ObjectDBX Classes
 90
1153
 91
0
280
0
281
0
  0
CLASS
  1
SCALE
  2
AcDbScale
  3
ObjectDBX Classes
 90
1153
 91
0
280
0
281
0
  0
CLASS
  1
TABLESTYLE
  2
AcDbTableStyle
  3
ObjectDBX Classes
 90
4095
 91
0
280
0
281
0
  0
CLASS
  1
MLEADERSTYLE
  2
AcDbMLeaderStyle
  3
ACDB_MLEADERSTYLE_CLASS
 90
4095
 91
0
280
0
281
0
  0
CLASS
  1
DICTIONARYVAR
  2
AcDbDictionaryVar
  3
ObjectDBX Classes
 90
0
 91
0
280
0
281
0
  0
CLASS
  1
CELLSTYLEMAP
  2
AcDbCellStyleMap
  3
ObjectDBX Classes
 90
1152
 91
0
280
0
281
0
  0
CLASS
  1
MENTALRAYRENDERSETTINGS
  2
AcDbMentalRayRenderSettings
  3
SCENEOE
 90
1024
 91
0
280
0
281
0
  0
CLASS
  1
ACDBDETAILVIEWSTYLE
  2
AcDbDetailViewStyle
  3
ObjectDBX Classes
 90
1025
 91
0
280
0
281
0
  0
CLASS
  1
ACDBSECTIONVIEWSTYLE
  2
AcDbSectionViewStyle
  3
ObjectDBX Classes
 90
1025
 91
0
280
0
281
0
  0
CLASS
  1
RASTERVARIABLES
  2
AcDbRasterVariables
  3
ISM
 90
0
 91
0
280
0
281
0
  0
CLASS
  1
LAYOUT
  2
AcDbLayout
  3
ObjectDBX Classes
 90
0
 91
0
280
0
281
0
  0
CLASS
  1
ACDBPLACEHOLDER
  2
AcDbPlaceHolder
  3
ObjectDBX Classes
 90
0
 91
0
280
0
281
0
  0
ENDSEC
  0
SECTION
  2
TABLES
  0
TABLE
  2
VPORT
  5
8
330
0
100
AcDbSymbolTable
 70
1
  0
VPORT
  5
23
330
8
100
AcDbSymbolTableRecord
100
AcDbViewportTableRecord
  2
*Active
 70
0
 10
0.0
 20
0.0
 11
1.0
 21
1.0
 12
0.0
 22
0.0
 13
0.0
 23
0.0
 14
0.5
 24
0.5
 15
0.5
 25
0.5
 16
0.0
 26
0.0
 36
1.0
 17
0.0
 27
0.0
 37
0.0
 40
1000.0
 41
1.34
 42
50.0
 43
0.0
 44
0.0
 50
0.0
 51
0.0
 71
0
 72
1000
 73
1
 74
3
 75
0
 76
0
 77
0
 78
0
281
0
 65
0
146
0.0
  0
ENDTAB
  0
TABLE
  2
LTYPE
  5
2
330
0
100
AcDbSymbolTable
 70
3
  0
LTYPE
  5
24
330
2
100
AcDbSymbolTableRecord
100
AcDbLinetypeTableRecord
  2
ByBlock
 70
0
  3

 72
65
 73
0
 40
0.0
  0
LTYPE
  5
25
330
2
100
AcDbSymbolTableRecord
100
AcDbLinetypeTableRecord
  2
ByLayer
 70
0
  3

 72
65
 73
0
 40
0.0
  0
LTYPE
  5
26
330
2
100
AcDbSymbolTableRecord
100
AcDbLinetypeTableRecord
  2
Continuous
 70
0
  3

 72
65
 73
0
 40
0.0
  0
ENDTAB
  0
TABLE
  2
LAYER
  5
1
330
0
100
AcDbSymbolTable
 70
3
  0
LAYER
  5
27
330
1
100
AcDbSymbolTableRecord
100
AcDbLayerTableRecord
  2
0
 70
0
 62
7
  6
Continuous
370
-3
390
13
347
21
  0
LAYER
  5
28
330
1
100
AcDbSymbolTableRecord
100
AcDbLayerTableRecord
  2
Defpoints
 70
0
 62
7
  6
Continuous
290
0
370
-3
390
13
347
21
  0
LAYER
  5
14E
330
1
100
AcDbSymbolTableRecord
100
AcDbLayerTableRecord
  2
INSIDE
 70
0
 62
6
  6
Continuous
370
-3
390
13
347
21
  0
ENDTAB
  0
TABLE
  2
STYLE
  5
5
330
0
100
AcDbSymbolTable
 70
2
  0
STYLE
  5
29
330
5
100
AcDbSymbolTableRecord
100
AcDbTextStyleTableRecord
  2
Standard
 70
0
 40
0.0
 41
1.0
 50
0.0
 71
0
 42
2.5
  3
txt
  4

  0
STYLE
  5
14F
330
5
100
AcDbSymbolTableRecord
100
AcDbTextStyleTableRecord
  2
Helvetica-Narrow
 70
0
 40
0.0
 41
1.0
 50
0.0
 71
0
 42
0.2
  3

  4

  0
ENDTAB
  0
TABLE
  2
VIEW
  5
7
330
0
100
AcDbSymbolTable
 70
0
  0
ENDTAB
  0
TABLE
  2
UCS
  5
6
330
0
100
AcDbSymbolTable
 70
0
  0
ENDTAB
  0
TABLE
  2
APPID
  5
3
330
0
100
AcDbSymbolTable
 70
3
  0
APPID
  5
2A
330
3
100
AcDbSymbolTableRecord
100
AcDbRegAppTableRecord
  2
ACAD
 70
0
  0
APPID
  5
150
330
3
100
AcDbSymbolTableRecord
100
AcDbRegAppTableRecord
  2
HATCHBACKGROUNDCOLOR
 70
0
  0
APPID
  5
151
330
3
100
AcDbSymbolTableRecord
100
AcDbRegAppTableRecord
  2
EZDXF
 70
0
  0
ENDTAB
  0
TABLE
  2
DIMSTYLE
  5
4
330
0
100
AcDbSymbolTable
 70
1
100
AcDbDimStyleTable
  0
DIMSTYLE
105
2B
330
4
100
AcDbSymbolTableRecord
100
AcDbDimStyleTableRecord
  2
Standard
 70
0
 40
1.0
 41
2.5
 42
0.625
 43
3.75
 44
1.25
 45
0.0
 46
0.0
 47
0.0
 48
0.0
 49
2.5
140
2.5
141
2.5
142
0.0
143
0.03937007874
144
1.0
145
0.0
146
1.0
147
0.625
148
0.0
 69
0
 70
0
 71
0
 72
0
 73
0
 74
0
 75
0
 76
0
 77
1
 78
8
 79
3
170
0
171
3
172
1
173
0
174
0
175
0
176
0
177
0
178
0
179
2
271
2
272
2
273
2
274
3
275
0
276
0
277
2
278
44
279
0
280
0
281
0
282
0
283
0
284
8
285
0
286
0
288
0
289
3
290
0
371
-2
372
-2
  0
ENDTAB
  0
TABLE
  2
BLOCK_RECORD
  5
9
330
0
100
AcDbSymbolTable
 70
4
  0
BLOCK_RECORD
  5
17
330
9
100
AcDbSymbolTableRecord
100
AcDbBlockTableRecord
  2
*Model_Space
340
1A
 70
0
280
1
281
0
  0
BLOCK_RECORD
  5
1B
330
9
100
AcDbSymbolTableRecord
100
AcDbBlockTableRecord
  2
*Paper_Space
340
1E
 70
0
280
1
281
0
  0
BLOCK_RECORD
  5
31
330
9
100
AcDbSymbolTableRecord
100
AcDbBlockTableRecord
  2
*U446
340
0
 70
0
280
1
281
0
  0
BLOCK_RECORD
  5
142
330
9
100
AcDbSymbolTableRecord
100
AcDbBlockTableRecord
  2
Nuintek
340
0
 70
0
280
1
281
0
  0
ENDTAB
  0
ENDSEC
  0
SECTION
  2
BLOCKS
  0
BLOCK
  5
18
330
17
100
AcDbEntity
  8
0
100
AcDbBlockBegin
  2
*Model_Space
 70
0
 10
0.0
 20
0.0
 30
0.0
  3
*Model_Space
  1

  0
ENDBLK
  5
19
330
17
100
AcDbEntity
  8
0
100
AcDbBlockEnd
  0
BLOCK
  5
1C
330
1B
100
AcDbEntity
  8
0
100
AcDbBlockBegin
  2
*Paper_Space
 70
0
 10
0.0
 20
0.0
 30
0.0
  3
*Paper_Space
  1

  0
ENDBLK
  5
1D
330
1B
100
AcDbEntity
  8
0
100
AcDbBlockEnd
  0
BLOCK
  5
32
330
31
100
AcDbEntity
  8
0
100
AcDbBlockBegin
  2
*U446
 70
1
 10
0.0
 20
0.0
 30
0.0
  3
*U446
  1

  0
LWPOLYLINE
  5
34
330
31
100
AcDbEntity
  8
0
 62
126
100
AcDbPolyline
 90
6
 70
1
 10
-37.21991954739497
 20
31.87234613948386
 10
-37.21991954739497
 20
-112.9379018477702
 42
0.4142135623730951
 10
-37.03016753465636
 20
-113.1276538605161
 10
36.96325473116303
 20
-113.1276538605161
 42
0.3050936777262625
 10
37.18646314564103
 20
-112.9379018477702
 10
37.18646314564103
 20
31.87234613948386
  0
LWPOLYLINE
  5
35
330
31
100
AcDbEntity
  8
0
 62
150
100
AcDbPolyline
 90
8
 70
1
 10
-15.40496730075392
 20
0.0
 10
15.40496730075392
 20
0.0
 42
-0.4142135623730951
 10
15.93617306974192
 20
-0.5312057689880021
 10
15.93617306974192
 20
-41.9652557503141
 42
-0.4142135623730951
 10
15.40496730075392
 20
-42.49646151930938
 10
-15.40496730075392
 20
-42.49646151930938
 42
-0.4142135623730951
 10
-15.93617306974192
 20
-41.9652557503141
 10
-15.93617306974192
 20
-0.5312057689880021
 42
-0.4142135623730951
  0
INSERT
  5
36
330
31
100
AcDbEntity
  8
0
100
AcDbBlockReference
  2
Nuintek
 10
-4.9634627642954
 20
-4.951880168482603
 30
0.0
 41
0.8787683289701816
 42
0.8787683289701816
 43
0.8787683289701816
  0
TEXT
  5
38
330
31
100
AcDbEntity
  8
0
100
AcDbText
 10
-12.86802670563481
 20
-10.37171750313374
 30
0.0
 40
2.124823075965498
  1
PowerSH Capacitor
  7
Helvetica-Narrow
 72
1
 11
0.0
 21
-9.309305965150998
 31
0.0
100
AcDbText
 73
2
  0
TEXT
  5
39
330
31
100
AcDbEntity
  8
0
100
AcDbText
 10
-9.568057713026064
 20
-19.64094760103456
 30
0.0
 40
1.328014422478436
  1
V
  7
Helvetica-Narrow
 11
-9.568057713026064
 21
-18.97694038979534
 31
0.0
100
AcDbText
 73
2
  0
LWPOLYLINE
  5
3A
330
31
100
AcDbEntity
  8
0
 62
1
100
AcDbPolyline
 90
4
 70
1
 10
-13.2798129144503
 20
-17.91452885181206
 10
-10.09257830050774
 20
-17.91452885181206
 10
-10.09257830050774
 20
-20.03935192777135
 10
-13.2798129144503
 20
-20.03935192777135
  0
LWPOLYLINE
  5
3B
330
31
100
AcDbEntity
  8
0
 62
1
100
AcDbPolyline
 90
4
 70
1
 10
-13.2798129144503
 20
-20.32303198087175
 10
-10.09257830050774
 20
-20.32303198087175
 10
-10.09257830050774
 20
-22.44785505683831
 10
-13.2798129144503
 20
-22.44785505683831
  0
LWPOLYLINE
  5
3C
330
31
100
AcDbEntity
  8
0
 62
1
100
AcDbPolyline
 90
4
 70
1
 10
-13.2798129144503
 20
-22.73153510993143
 10
-10.09257830050774
 20
-22.73153510993143
 10
-10.09257830050774
 20
-24.85635818589799
 10
-13.2798129144503
 20
-24.85635818589799
  0
TEXT
  5
3D
330
31
100
AcDbEntity
  8
0
100
AcDbText
 10
-9.568057713026064
 20
-22.04945073009425
 30
0.0
 40
1.328014422478436
  1
V
  7
Helvetica-Narrow
 11
-9.568057713026064
 21
-21.38544351885503
 31
0.0
100
AcDbText
 73
2
  0
TEXT
  5
3E
330
31
100
AcDbEntity
  8
0
100
AcDbText
 10
-9.568057713026064
 20
-24.45795385915393
 30
0.0
 40
1.328014422478436
  1
V
  7
Helvetica-Narrow
 11
-9.568057713026064
 21
-23.79394664791471
 31
0.0
100
AcDbText
 73
2
  0
TEXT
  5
3F
330
31
100
AcDbEntity
  8
0
100
AcDbText
 10
-1.403096451205783
 20
-19.64094760103456
 30
0.0
 40
1.328014422478436
  1
kvar
  7
Helvetica-Narrow
 11
-1.403096451205783
 21
-18.97694038979534
 31
0.0
100
AcDbText
 73
2
  0
LWPOLYLINE
  5
40
330
31
100
AcDbEntity
  8
0
 62
1
100
AcDbPolyline
 90
4
 70
1
 10
-5.311726379586616
 20
-17.91452885181206
 10
-2.1244917656295
 20
-17.91452885181206
 10
-2.1244917656295
 20
-20.03935192777135
 10
-5.311726379586616
 20
-20.03935192777135
  0
LWPOLYLINE
  5
41
330
31
100
AcDbEntity
  8
0
 62
1
100
AcDbPolyline
 90
4
 70
1
 10
-5.311726379586616
 20
-20.32303198087175
 10
-2.1244917656295
 20
-20.32303198087175
 10
-2.1244917656295
 20
-22.44785505683831
 10
-5.311726379586616
 20
-22.44785505683831
  0
LWPOLYLINE
  5
42
330
31
100
AcDbEntity
  8
0
 62
1
100
AcDbPolyline
 90
4
 70
1
 10
-5.311726379586616
 20
-22.73153510993143
 10
-2.1244917656295
 20
-22.73153510993143
 10
-2.1244917656295
 20
-24.85635818589799
 10
-5.311726379586616
 20
-24.85635818589799
  0
TEXT
  5
43
330
31
100
AcDbEntity
  8
0
100
AcDbText
 10
-1.403096451205783
 20
-22.04945073009425
 30
0.0
 40
1.328014422478436
  1
kvar
  7
Helvetica-Narrow
 11
-1.403096451205783
 21
-21.38544351885503
 31
0.0
100
AcDbText
 73
2
  0
TEXT
  5
44
330
31
100
AcDbEntity
  8
0
100
AcDbText
 10
-1.403096451205783
 20
-24.45795385915393
 30
0.0
 40
1.328014422478436
  1
kvar
  7
Helvetica-Narrow
 11
-1.403096451205783
 21
-23.79394664791471
 31
0.0
100
AcDbText
 73
2
  0
TEXT
  5
45
330
31
100
AcDbEntity
  8
0
100
AcDbText
 10
7.430526894691865
 20
-19.64094760103456
 30
0.0
 40
1.328014422478436
  1
kvar
  7
Helvetica-Narrow
 11
7.430526894691865
 21
-18.97694038979534
 31
0.0
100
AcDbText
 73
2
  0
LWPOLYLINE
  5
46
330
31
100
AcDbEntity
  8
0
 62
1
100
AcDbPolyline
 90
4
 70
1
 10
3.718771693267626
 20
-17.91452885181206
 10
6.906006307210191
 20
-17.91452885181206
 10
6.906006307210191
 20
-20.03935192777135
 10
3.718771693267626
 20
-20.03935192777135
  0
LWPOLYLINE
  5
47
330
31
100
AcDbEntity
  8
0
 62
1
100
AcDbPolyline
 90
4
 70
1
 10
3.718771693267626
 20
-20.32303198087175
 10
6.906006307210191
 20
-20.32303198087175
 10
6.906006307210191
 20
-22.44785505683831
 10
3.718771693267626
 20
-22.44785505683831
  0
LWPOLYLINE
  5
48
330
31
100
AcDbEntity
  8
0
 62
1
100
AcDbPolyline
 90
4
 70
1
 10
3.718771693267626
 20
-22.73153510993143
 10
6.906006307210191
 20
-22.73153510993143
 10
6.906006307210191
 20
-24.85635818589799
 10
3.718771693267626
 20
-24.85635818589799
  0
TEXT
  5
49
330
31
100
AcDbEntity
  8
0
100
AcDbText
 10
7.430526894691865
 20
-22.04945073009425
 30
0.0
 40
1.328014422478436
  1
kvar
  7
Helvetica-Narrow
 11
7.430526894691865
 21
-21.38544351885503
 31
0.0
100
AcDbText
 73
2
  0
TEXT
  5
4A
330
31
100
AcDbEntity
  8
0
100
AcDbText
 10
7.430526894691865
 20
-24.45795385915393
 30
0.0
 40
1.328014422478436
  1
kvar
  7
Helvetica-Narrow
 11
7.430526894691865
 21
-23.79394664791471
 31
0.0
100
AcDbText
 73
2
  0
TEXT
  5
4B
330
31
100
AcDbEntity
  8
0
100
AcDbText
 10
-12.63276675698655
 20
-16.99968780007812
 30
0.0
 40
1.062411537982749
  1
Un
  7
Helvetica-Narrow
 72
1
 11
-11.6861956074863
 21
-16.46848203108675
 31
0.0
100
AcDbText
 73
2
  0
TEXT
  5
4C
330
31
100
AcDbEntity
  8
0
100
AcDbText
 10
-4.296486100094625
 20
-16.99968780007812
 30
0.0
 40
1.062411537982749
  1
Qn / 50Hz
  7
Helvetica-Narrow
 11
-4.296486100094625
 21
-16.46848203108675
 31
0.0
100
AcDbText
 73
2
  0
TEXT
  5
4D
330
31
100
AcDbEntity
  8
0
100
AcDbText
 10
4.734011972759617
 20
-16.99968780007812
 30
0.0
 40
1.062411537982749
  1
Qn / 60Hz
  7
Helvetica-Narrow
 11
4.734011972759617
 21
-16.46848203108675
 31
0.0
100
AcDbText
 73
2
  0
LWPOLYLINE
  5
4E
330
31
100
AcDbEntity
  8
0
 62
1
100
AcDbPolyline
 90
4
 70
1
 10
-7.702152340047177
 20
-12.94266424477246
 10
0.2659341948310612
 20
-12.94266424477246
 10
0.2659341948310612
 20
-15.06748732073902
 10
-7.702152340047177
 20
-15.06748732073902
  0
TEXT
  5
4F
330
31
100
AcDbEntity
  8
0
100
AcDbText
 10
-12.63276675698655
 20
-14.53628155174711
 30
0.0
 40
1.062411537982749
  1
Un
  7
Helvetica-Narrow
 72
1
 11
-11.6861956074863
 21
-14.00507578275574
 31
0.0
100
AcDbText
 73
2
  0
TEXT
  5
50
330
31
100
AcDbEntity
  8
0
100
AcDbText
 10
0.9873295092547778
 20
-14.66908299399495
 30
0.0
 40
1.328014422478436
  1
uF
  7
Helvetica-Narrow
 11
0.9873295092547778
 21
-14.00507578275574
 31
0.0
100
AcDbText
 73
2
  0
TEXT
  5
51
330
31
100
AcDbEntity
  8
0
100
AcDbText
 10
3.667194695561192
 20
-14.66908299399495
 30
0.0
 40
1.328014422478436
  1
-5 ~+ 10%%%
  7
Helvetica-Narrow
 11
3.667194695561192
 21
-14.00507578275574
 31
0.0
100
AcDbText
 73
2
  0
LWPOLYLINE
  5
52
330
31
100
AcDbEntity
  8
0
 62
0
370
30
100
AcDbPolyline
 90
3
 70
1
 10
10.80438757302181
 20
-14.64555264396767
 10
12.36104302605963
 20
-14.64555264396767
 10
11.58271529953345
 20
-13.2975322620623
  0
TEXT
  5
53
330
31
100
AcDbEntity
  8
0
100
AcDbText
 10
-11.6861956074863
 20
-27.26727752979481
 30
0.0
 40
1.328014422478436
  1
Overpressure Disconnector
  7
Helvetica-Narrow
 11
-11.6861956074863
 21
-26.60327031855559
 31
0.0
100
AcDbText
 73
2
  0
LWPOLYLINE
  5
54
330
31
100
AcDbEntity
  8
0
 62
1
100
AcDbPolyline
 90
4
 70
1
 10
-11.6861956074863
 20
-30.54257845425309
 10
9.562035152179305
 20
-30.54257845425309
 10
9.562035152179305
 20
-32.66740153021237
 10
-11.6861956074863
 20
-32.66740153021237
  0
TEXT
  5
55
330
31
100
AcDbEntity
  8
0
100
AcDbText
 10
-11.6861956074863
 20
-29.52615397131434
 30
0.0
 40
1.328014422478436
  1
Dry Type       Non PCB
  7
Helvetica-Narrow
 11
-11.6861956074863
 21
-28.86214676007512
 31
0.0
100
AcDbText
 73
2
  0
TEXT
  5
56
330
31
100
AcDbEntity
  8
0
100
AcDbText
 10
-11.6861956074863
 20
-34.80177091306235
 30
0.0
 40
1.328014422478436
  1
Serial No.
  7
Helvetica-Narrow
 11
-11.6861956074863
 21
-34.13776370182314
 31
0.0
100
AcDbText
 73
2
  0
TEXT
  5
57
330
31
100
AcDbEntity
  8
0
100
AcDbText
 10
-11.6861956074863
 20
-37.86237114823376
 30
0.0
 40
1.593617306974124
  1
NUINTEK CO., LTD.
  7
Helvetica-Narrow
 11
-11.6861956074863
 21
-37.0655624947467
 31
0.0
100
AcDbText
 73
2
  0
TEXT
  5
58
330
31
100
AcDbEntity
  8
0
100
AcDbText
 10
-11.6861956074863
 20
-40.53568486180807
 30
0.0
 40
1.593617306974124
  1
Made in KOREA
  7
Helvetica-Narrow
 11
-11.6861956074863
 21
-39.73887620832102
 31
0.0
100
AcDbText
 73
2
  0
LINE
  5
59
330
31
100
AcDbEntity
  8
0
 62
126
100
AcDbLine
 10
16.46737883872993
 20
39.43761416722555
 30
0.0
 11
-16.46737883872993
 21
39.43761416722555
 31
0.0
  0
LINE
  5
5A
330
31
100
AcDbEntity
  8
0
 62
126
100
AcDbLine
 10
-1.082193538997671
 20
66.77068969279208
 30
0.0
 11
0.0352982684125891
 21
66.77068969279208
 31
0.0
  0
LINE
  5
5B
330
31
100
AcDbEntity
  8
0
 62
126
100
AcDbLine
 10
-6.439051715453388
 20
66.77068969279208
 30
0.0
 11
-5.321559908043127
 21
66.77068969279208
 31
0.0
  0
LINE
  5
5C
330
31
100
AcDbEntity
  8
0
 62
126
100
AcDbLine
 10
5.458948066429002
 20
66.77068969279208
 30
0.0
 11
6.252838441898347
 21
66.77068969279208
 31
0.0
  0
LINE
  5
5D
330
31
100
AcDbEntity
  8
0
 62
126
100
AcDbLine
 10
15.68918049869535
 20
65.54186462418147
 30
0.0
 11
-15.68918049869535
 21
65.54186462418147
 31
0.0
  0
LINE
  5
5E
330
31
100
AcDbEntity
  8
0
 62
126
100
AcDbLine
 10
-14.94066327875771
 20
42.45824331860058
 30
0.0
 11
-13.8178874488367
 21
43.24418639954092
 31
0.0
  0
LINE
  5
5F
330
31
100
AcDbEntity
  8
0
 62
126
100
AcDbLine
 10
-7.45549107932311
 20
42.45824331860058
 30
0.0
 11
-8.578266909244121
 21
43.24418639954092
 31
0.0
  0
LINE
  5
60
330
31
100
AcDbEntity
  8
0
 62
126
100
AcDbLine
 10
-14.94066327875771
 20
50.39252584998758
 30
0.0
 11
-13.8178874488367
 21
49.60658276905451
 31
0.0
  0
LINE
  5
61
330
31
100
AcDbEntity
  8
0
 62
126
100
AcDbLine
 10
-7.45549107932311
 20
50.39252584998758
 30
0.0
 11
-8.578266909244121
 21
49.60658276905451
 31
0.0
  0
LINE
  5
62
330
31
100
AcDbEntity
  8
0
 62
126
100
AcDbLine
 10
-8.91178668270004
 20
48.97034313925542
 30
0.0
 11
-13.48105469986331
 21
48.97034313925542
 31
0.0
  0
LINE
  5
63
330
31
100
AcDbEntity
  8
0
 62
126
100
AcDbLine
 10
-12.02135422940773
 20
44.11997304028773
 30
0.0
 11
-13.48105469986331
 21
44.6837471826293
 31
0.0
  0
LINE
  5
64
330
31
100
AcDbEntity
  8
0
 62
126
100
AcDbLine
 10
-10.22213567522703
 20
44.12042539945105
 30
0.0
 11
-8.91178668270004
 21
44.63047561524581
 31
0.0
  0
LWPOLYLINE
  5
65
330
31
100
AcDbEntity
  8
0
 62
126
100
AcDbPolyline
 90
6
 70
1
 10
-15.68918049869535
 20
54.04335173080472
 42
-0.4142135623730951
 10
-15.31492188871198
 20
54.41761034077353
 10
-15.31492188871198
 20
54.41761034077353
 42
-0.4142135623730951
 10
-14.94066327875771
 20
54.04335173080472
 10
-14.94066327875771
 20
51.14104306992522
 10
-15.68918049869535
 20
51.14104306992522
  0
LINE
  5
66
330
31
100
AcDbEntity
  8
0
 62
126
100
AcDbLine
 10
-7.45549107932311
 20
41.70972609865566
 30
0.0
 11
-7.45549107932311
 21
40.43878112248058
 31
0.0
  0
ARC
  5
67
330
31
100
AcDbEntity
  8
0
 62
126
100
AcDbCircle
 10
-7.08123246935429
 20
40.43878112248058
 30
0.0
 40
0.3742586099711309
100
AcDbArc
 50
180.0
 51
270.0
  0
ARC
  5
68
330
31
100
AcDbEntity
  8
0
 62
126
100
AcDbCircle
 10
-7.08123246935429
 20
40.43878112248058
 30
0.0
 40
0.3742586099711645
100
AcDbArc
 50
270.0
 51
0.0
  0
LINE
  5
69
330
31
100
AcDbEntity
  8
0
 62
126
100
AcDbLine
 10
-6.70697385938547
 20
40.43878112248058
 30
0.0
 11
-6.70697385938547
 21
41.70972609865566
 31
0.0
  0
LINE
  5
6A
330
31
100
AcDbEntity
  8
0
 62
126
100
AcDbLine
 10
-15.68918049869535
 20
41.70972609865566
 30
0.0
 11
-15.68918049869535
 21
40.43878112248058
 31
0.0
  0
ARC
  5
6B
330
31
100
AcDbEntity
  8
0
 62
126
100
AcDbCircle
 10
-15.31492188871198
 20
40.43878112248058
 30
0.0
 40
0.3742586099711645
100
AcDbArc
 50
180.0
 51
270.0
  0
ARC
  5
6C
330
31
100
AcDbEntity
  8
0
 62
126
100
AcDbCircle
 10
-15.31492188871198
 20
40.43878112248058
 30
0.0
 40
0.3742586099711645
100
AcDbArc
 50
270.0
 51
0.0
  0
LINE
  5
6D
330
31
100
AcDbEntity
  8
0
 62
126
100
AcDbLine
 10
-14.94066327875771
 20
40.43878112248058
 30
0.0
 11
-14.94066327875771
 21
41.70972609865566
 31
0.0
  0
LWPOLYLINE
  5
6E
330
31
100
AcDbEntity
  8
0
 62
126
100
AcDbPolyline
 90
4
 70
1
 10
-15.68918049869535
 20
51.14104306992522
 10
-6.70697385938547
 20
51.14104306992522
 10
-6.70697385938547
 20
41.70972609865566
 10
-15.68918049869535
 20
41.70972609865566
  0
LWPOLYLINE
  5
6F
330
31
100
AcDbEntity
  8
0
 62
126
100
AcDbPolyline
 90
4
 70
1
 10
-14.94066327875771
 20
50.39252584998758
 10
-7.45549107932311
 20
50.39252584998758
 10
-7.45549107932311
 20
42.45824331860058
 10
-14.94066327875771
 20
42.45824331860058
  0
LWPOLYLINE
  5
70
330
31
100
AcDbEntity
  8
0
 62
126
100
AcDbPolyline
 90
4
 70
1
 10
-13.8178874488367
 20
49.60658276905451
 10
-8.578266909244121
 20
49.60658276905451
 10
-8.578266909244121
 20
43.24418639954092
 10
-13.8178874488367
 20
43.24418639954092
  0
LWPOLYLINE
  5
71
330
31
100
AcDbEntity
  8
0
 62
126
100
AcDbPolyline
 90
4
 70
0
 10
-13.48105469986331
 20
49.60658276905451
 10
-13.48105469986331
 20
44.70616840680304
 42
0.3099445346571803
 10
-13.38528753352875
 20
44.5665188486455
 10
-12.02135422940773
 20
44.03973246725217
  0
LWPOLYLINE
  5
72
330
31
100
AcDbEntity
  8
0
 62
126
100
AcDbPolyline
 90
4
 70
0
 10
-10.22213567522703
 20
44.04010305962583
 10
-9.007187205483206
 20
44.51301884977874
 42
0.3092248975359518
 10
-8.91178668270004
 20
44.65252624703862
 10
-8.91178668270004
 20
49.60658276905451
  0
LWPOLYLINE
  5
73
330
31
100
AcDbEntity
  8
0
 62
126
100
AcDbPolyline
 90
4
 70
1
 10
-12.02135422940773
 20
44.11997304028773
 10
-10.22213567522703
 20
44.11997304028773
 10
-10.22213567522703
 20
43.24418639954092
 10
-12.02135422940773
 20
43.24418639954092
  0
LWPOLYLINE
  5
74
330
31
100
AcDbEntity
  8
0
 62
126
100
AcDbPolyline
 90
5
 70
1
 10
-6.70697385938547
 20
54.04335173080472
 42
0.4142135623731083
 10
-7.08123246935429
 20
54.41761034077353
 42
0.4142135623730818
 10
-7.45549107932311
 20
54.04335173080472
 10
-7.45549107932311
 20
51.14104306992522
 10
-6.70697385938547
 20
51.14104306992522
  0
LINE
  5
75
330
31
100
AcDbEntity
  8
0
 62
126
100
AcDbLine
 10
-3.7425860997173
 20
42.45824331860058
 30
0.0
 11
-2.619810269796289
 21
43.24418639954092
 31
0.0
  0
LINE
  5
76
330
31
100
AcDbEntity
  8
0
 62
126
100
AcDbLine
 10
3.7425860997173
 20
42.45824331860058
 30
0.0
 11
2.619810269796289
 21
43.24418639954092
 31
0.0
  0
LINE
  5
77
330
31
100
AcDbEntity
  8
0
 62
126
100
AcDbLine
 10
-3.7425860997173
 20
50.39252584998758
 30
0.0
 11
-2.619810269796289
 21
49.60658276905451
 31
0.0
  0
LINE
  5
78
330
31
100
AcDbEntity
  8
0
 62
126
100
AcDbLine
 10
3.7425860997173
 20
50.39252584998758
 30
0.0
 11
2.619810269796289
 21
49.60658276905451
 31
0.0
  0
LINE
  5
79
330
31
100
AcDbEntity
  8
0
 62
126
100
AcDbLine
 10
2.286290496354922
 20
48.97034313925542
 30
0.0
 11
-2.282977520822896
 21
48.97034313925542
 31
0.0
  0
LINE
  5
7A
330
31
100
AcDbEntity
  8
0
 62
126
100
AcDbLine
 10
-0.8232770503818755
 20
44.11997304028773
 30
0.0
 11
-2.282977520822896
 21
44.6837471826293
 31
0.0
  0
LINE
  5
7B
330
31
100
AcDbEntity
  8
0
 62
126
100
AcDbLine
 10
0.9759415038133737
 20
44.12042539945105
 30
0.0
 11
2.286290496354922
 21
44.63047561524581
 31
0.0
  0
LWPOLYLINE
  5
7C
330
31
100
AcDbEntity
  8
0
 62
126
100
AcDbPolyline
 90
6
 70
1
 10
-4.491103319654939
 20
54.04335173080472
 42
-0.4142135623730951
 10
-4.11684470968612
 20
54.41761034077353
 10
-4.11684470968612
 20
54.41761034077353
 42
-0.4142135623730951
 10
-3.7425860997173
 20
54.04335173080472
 10
-3.7425860997173
 20
51.14104306992522
 10
-4.491103319654939
 20
51.14104306992522
  0
LINE
  5
7D
330
31
100
AcDbEntity
  8
0
 62
126
100
AcDbLine
 10
3.7425860997173
 20
41.70972609865566
 30
0.0
 11
3.7425860997173
 21
40.43878112248058
 31
0.0
  0
ARC
  5
7E
330
31
100
AcDbEntity
  8
0
 62
126
100
AcDbCircle
 10
4.11684470968612
 20
40.43878112248058
 30
0.0
 40
0.3742586099711309
100
AcDbArc
 50
180.0
 51
270.0
  0
ARC
  5
7F
330
31
100
AcDbEntity
  8
0
 62
126
100
AcDbCircle
 10
4.11684470968612
 20
40.43878112248058
 30
0.0
 40
0.3742586099711645
100
AcDbArc
 50
270.0
 51
0.0
  0
LINE
  5
80
330
31
100
AcDbEntity
  8
0
 62
126
100
AcDbLine
 10
4.491103319654939
 20
40.43878112248058
 30
0.0
 11
4.491103319654939
 21
41.70972609865566
 31
0.0
  0
LINE
  5
81
330
31
100
AcDbEntity
  8
0
 62
126
100
AcDbLine
 10
-4.491103319654939
 20
41.70972609865566
 30
0.0
 11
-4.491103319654939
 21
40.43878112248058
 31
0.0
  0
ARC
  5
82
330
31
100
AcDbEntity
  8
0
 62
126
100
AcDbCircle
 10
-4.11684470968612
 20
40.43878112248058
 30
0.0
 40
0.3742586099711645
100
AcDbArc
 50
180.0
 51
270.0
  0
ARC
  5
83
330
31
100
AcDbEntity
  8
0
 62
126
100
AcDbCircle
 10
-4.11684470968612
 20
40.43878112248058
 30
0.0
 40
0.3742586099711645
100
AcDbArc
 50
270.0
 51
0.0
  0
LINE
  5
84
330
31
100
AcDbEntity
  8
0
 62
126
100
AcDbLine
 10
-3.7425860997173
 20
40.43878112248058
 30
0.0
 11
-3.7425860997173
 21
41.70972609865566
 31
0.0
  0
LWPOLYLINE
  5
85
330
31
100
AcDbEntity
  8
0
 62
126
100
AcDbPolyline
 90
4
 70
1
 10
-4.491103319654939
 20
51.14104306992522
 10
4.491103319654939
 20
51.14104306992522
 10
4.491103319654939
 20
41.70972609865566
 10
-4.491103319654939
 20
41.70972609865566
  0
LWPOLYLINE
  5
86
330
31
100
AcDbEntity
  8
0
 62
126
100
AcDbPolyline
 90
4
 70
1
 10
-3.7425860997173
 20
50.39252584998758
 10
3.7425860997173
 20
50.39252584998758
 10
3.7425860997173
 20
42.45824331860058
 10
-3.7425860997173
 20
42.45824331860058
  0
LWPOLYLINE
  5
87
330
31
100
AcDbEntity
  8
0
 62
126
100
AcDbPolyline
 90
4
 70
1
 10
-2.619810269796289
 20
49.60658276905451
 10
2.619810269796289
 20
49.60658276905451
 10
2.619810269796289
 20
43.24418639954092
 10
-2.619810269796289
 20
43.24418639954092
  0
LWPOLYLINE
  5
88
330
31
100
AcDbEntity
  8
0
 62
126
100
AcDbPolyline
 90
4
 70
0
 10
-2.282977520822896
 20
49.60658276905451
 10
-2.282977520822896
 20
44.70616840680304
 42
0.3099445346571803
 10
-2.187210354488343
 20
44.5665188486455
 10
-0.8232770503818755
 20
44.03973246725217
  0
LWPOLYLINE
  5
89
330
31
100
AcDbEntity
  8
0
 62
126
100
AcDbPolyline
 90
4
 70
0
 10
0.9759415038133737
 20
44.04010305962583
 10
2.190889973557204
 20
44.51301884977874
 42
0.3092248975359518
 10
2.286290496354922
 20
44.65252624703862
 10
2.286290496354922
 20
49.60658276905451
  0
LWPOLYLINE
  5
8A
330
31
100
AcDbEntity
  8
0
 62
126
100
AcDbPolyline
 90
4
 70
1
 10
-0.8232770503818755
 20
44.11997304028773
 10
0.9759415038133737
 20
44.11997304028773
 10
0.9759415038133737
 20
43.24418639954092
 10
-0.8232770503818755
 20
43.24418639954092
  0
LWPOLYLINE
  5
8B
330
31
100
AcDbEntity
  8
0
 62
126
100
AcDbPolyline
 90
5
 70
1
 10
4.491103319654939
 20
54.04335173080472
 42
0.4142135623731083
 10
4.11684470968612
 20
54.41761034077353
 42
0.4142135623730818
 10
3.7425860997173
 20
54.04335173080472
 10
3.7425860997173
 20
51.14104306992522
 10
4.491103319654939
 20
51.14104306992522
  0
LINE
  5
8C
330
31
100
AcDbEntity
  8
0
 62
126
100
AcDbLine
 10
7.455491079337662
 20
42.45824331860058
 30
0.0
 11
8.578266909244121
 21
43.24418639954092
 31
0.0
  0
LINE
  5
8D
330
31
100
AcDbEntity
  8
0
 62
126
100
AcDbLine
 10
14.94066327875771
 20
42.45824331860058
 30
0.0
 11
13.8178874488367
 21
43.24418639954092
 31
0.0
  0
LINE
  5
8E
330
31
100
AcDbEntity
  8
0
 62
126
100
AcDbLine
 10
7.455491079337662
 20
50.39252584998758
 30
0.0
 11
8.578266909244121
 21
49.60658276905451
 31
0.0
  0
LINE
  5
8F
330
31
100
AcDbEntity
  8
0
 62
126
100
AcDbLine
 10
14.94066327875771
 20
50.39252584998758
 30
0.0
 11
13.8178874488367
 21
49.60658276905451
 31
0.0
  0
LINE
  5
90
330
31
100
AcDbEntity
  8
0
 62
126
100
AcDbLine
 10
13.48436767539533
 20
48.97034313925542
 30
0.0
 11
8.915099658217512
 21
48.97034313925542
 31
0.0
  0
LINE
  5
91
330
31
100
AcDbEntity
  8
0
 62
126
100
AcDbLine
 10
10.37480012865853
 20
44.11997304028773
 30
0.0
 11
8.915099658217512
 21
44.6837471826293
 31
0.0
  0
LINE
  5
92
330
31
100
AcDbEntity
  8
0
 62
126
100
AcDbLine
 10
12.17401868285378
 20
44.12042539945105
 30
0.0
 11
13.48436767539533
 21
44.63047561524581
 31
0.0
  0
LWPOLYLINE
  5
93
330
31
100
AcDbEntity
  8
0
 62
126
100
AcDbPolyline
 90
6
 70
1
 10
6.70697385938547
 20
54.04335173080472
 42
-0.4142135623730951
 10
7.08123246935429
 20
54.41761034077353
 10
7.08123246935429
 20
54.41761034077353
 42
-0.4142135623730951
 10
7.455491079337662
 20
54.04335173080472
 10
7.455491079337662
 20
51.14104306992522
 10
6.70697385938547
 20
51.14104306992522
  0
LINE
  5
94
330
31
100
AcDbEntity
  8
0
 62
126
100
AcDbLine
 10
14.94066327875771
 20
41.70972609865566
 30
0.0
 11
14.94066327875771
 21
40.43878112248058
 31
0.0
  0
ARC
  5
95
330
31
100
AcDbEntity
  8
0
 62
126
100
AcDbCircle
 10
15.31492188872653
 20
40.43878112248058
 30
0.0
 40
0.3742586099711309
100
AcDbArc
 50
180.0
 51
270.0
  0
ARC
  5
96
330
31
100
AcDbEntity
  8
0
 62
126
100
AcDbCircle
 10
15.31492188872653
 20
40.43878112248058
 30
0.0
 40
0.3742586099711645
100
AcDbArc
 50
270.0
 51
0.0
  0
LINE
  5
97
330
31
100
AcDbEntity
  8
0
 62
126
100
AcDbLine
 10
15.68918049869535
 20
40.43878112248058
 30
0.0
 11
15.68918049869535
 21
41.70972609865566
 31
0.0
  0
LINE
  5
98
330
31
100
AcDbEntity
  8
0
 62
126
100
AcDbLine
 10
6.70697385938547
 20
41.70972609865566
 30
0.0
 11
6.70697385938547
 21
40.43878112248058
 31
0.0
  0
ARC
  5
99
330
31
100
AcDbEntity
  8
0
 62
126
100
AcDbCircle
 10
7.08123246935429
 20
40.43878112248058
 30
0.0
 40
0.3742586099711645
100
AcDbArc
 50
180.0
 51
270.0
  0
ARC
  5
9A
330
31
100
AcDbEntity
  8
0
 62
126
100
AcDbCircle
 10
7.08123246935429
 20
40.43878112248058
 30
0.0
 40
0.3742586099711645
100
AcDbArc
 50
270.0
 51
0.0
  0
LINE
  5
9B
330
31
100
AcDbEntity
  8
0
 62
126
100
AcDbLine
 10
7.455491079337662
 20
40.43878112248058
 30
0.0
 11
7.455491079337662
 21
41.70972609865566
 31
0.0
  0
LWPOLYLINE
  5
9C
330
31
100
AcDbEntity
  8
0
 62
126
100
AcDbPolyline
 90
4
 70
1
 10
6.70697385938547
 20
51.14104306992522
 10
15.68918049869535
 20
51.14104306992522
 10
15.68918049869535
 20
41.70972609865566
 10
6.70697385938547
 20
41.70972609865566
  0
LWPOLYLINE
  5
9D
330
31
100
AcDbEntity
  8
0
 62
126
100
AcDbPolyline
 90
4
 70
1
 10
7.455491079337662
 20
50.39252584998758
 10
14.94066327875771
 20
50.39252584998758
 10
14.94066327875771
 20
42.45824331860058
 10
7.455491079337662
 20
42.45824331860058
  0
LWPOLYLINE
  5
9E
330
31
100
AcDbEntity
  8
0
 62
126
100
AcDbPolyline
 90
4
 70
1
 10
8.578266909244121
 20
49.60658276905451
 10
13.8178874488367
 20
49.60658276905451
 10
13.8178874488367
 20
43.24418639954092
 10
8.578266909244121
 20
43.24418639954092
  0
LWPOLYLINE
  5
9F
330
31
100
AcDbEntity
  8
0
 62
126
100
AcDbPolyline
 90
4
 70
0
 10
8.915099658217512
 20
49.60658276905451
 10
8.915099658217512
 20
44.70616840680304
 42
0.3099445346571803
 10
9.010866824537516
 20
44.5665188486455
 10
10.37480012865853
 20
44.03973246725217
  0
LWPOLYLINE
  5
A0
330
31
100
AcDbEntity
  8
0
 62
126
100
AcDbPolyline
 90
4
 70
0
 10
12.17401868285378
 20
44.04010305962583
 10
13.38896715259761
 20
44.51301884977874
 42
0.3092248975359518
 10
13.48436767539533
 20
44.65252624703862
 10
13.48436767539533
 20
49.60658276905451
  0
LWPOLYLINE
  5
A1
330
31
100
AcDbEntity
  8
0
 62
126
100
AcDbPolyline
 90
4
 70
1
 10
10.37480012865853
 20
44.11997304028773
 10
12.17401868285378
 20
44.11997304028773
 10
12.17401868285378
 20
43.24418639954092
 10
10.37480012865853
 20
43.24418639954092
  0
LWPOLYLINE
  5
A2
330
31
100
AcDbEntity
  8
0
 62
126
100
AcDbPolyline
 90
5
 70
1
 10
15.68918049869535
 20
54.04335173080472
 42
0.4142135623731083
 10
15.31492188872653
 20
54.41761034077353
 42
0.4142135623730818
 10
14.94066327875771
 20
54.04335173080472
 10
14.94066327875771
 20
51.14104306992522
 10
15.68918049869535
 20
51.14104306992522
  0
LWPOLYLINE
  5
A3
330
31
100
AcDbEntity
  8
0
 62
126
100
AcDbPolyline
 90
4
 70
0
 10
-6.736654947482747
 20
66.54613452681224
 10
-6.736654947482747
 20
66.77068969279208
 10
-6.439051715453388
 20
66.77068969279208
 10
-6.439051715453388
 20
66.54613452681224
  0
LWPOLYLINE
  5
A4
330
31
100
AcDbEntity
  8
0
 62
126
100
AcDbPolyline
 90
4
 70
0
 10
-5.005145233881194
 20
66.54613452681224
 10
-5.005145233881194
 20
66.77068969279208
 10
-5.321559908043127
 20
66.77068969279208
 10
-5.321559908043127
 20
66.54613452681224
  0
LWPOLYLINE
  5
A5
330
31
100
AcDbEntity
  8
0
 62
126
100
AcDbPolyline
 90
4
 70
0
 10
-2.759593574039172
 20
66.54613452681224
 10
-2.759593574039172
 20
66.77068969279208
 10
-4.491103287655278
 20
66.77068969279208
 10
-4.491103287655278
 20
66.54613452681224
  0
LWPOLYLINE
  5
A6
330
31
100
AcDbEntity
  8
0
 62
126
100
AcDbPolyline
 90
4
 70
0
 10
-2.218496788540505
 20
66.54613452681224
 10
-2.218496788540505
 20
66.77068969279208
 10
-1.920893556525697
 20
66.77068969279208
 10
-1.920893556525697
 20
66.54613452681224
  0
LWPOLYLINE
  5
A7
330
31
100
AcDbEntity
  8
0
 62
126
100
AcDbPolyline
 90
4
 70
0
 10
-1.379796771027031
 20
66.54613452681224
 10
-1.379796771027031
 20
66.77068969279208
 10
-1.082193538997671
 20
66.77068969279208
 10
-1.082193538997671
 20
66.54613452681224
  0
LWPOLYLINE
  5
A8
330
31
100
AcDbEntity
  8
0
 62
126
100
AcDbPolyline
 90
4
 70
0
 10
0.3517129425745225
 20
66.54613452681224
 10
0.3517129425745225
 20
66.77068969279208
 10
0.0352982684125891
 20
66.77068969279208
 10
0.0352982684125891
 20
66.54613452681224
  0
LWPOLYLINE
  5
A9
330
31
100
AcDbEntity
  8
0
 62
126
100
AcDbPolyline
 90
4
 70
0
 10
1.420379093950032
 20
66.54613452681224
 10
1.420379093950032
 20
66.77068969279208
 10
1.71798232596484
 20
66.77068969279208
 10
1.71798232596484
 20
66.54613452681224
  0
LWPOLYLINE
  5
AA
330
31
100
AcDbEntity
  8
0
 62
126
100
AcDbPolyline
 90
4
 70
0
 10
2.759593638067599
 20
66.54613452681224
 10
2.759593638067599
 20
66.77068969279208
 10
4.409938833836349
 20
66.77068969279208
 10
4.409938833836349
 20
66.54613452681224
  0
LWPOLYLINE
  5
AB
330
31
100
AcDbEntity
  8
0
 62
126
100
AcDbPolyline
 90
4
 70
0
 10
6.641963074027444
 20
66.54613452681224
 10
6.641963074027444
 20
66.77068969279208
 10
6.252838441898347
 20
66.77068969279208
 10
6.252838441898347
 20
66.54613452681224
  0
LWPOLYLINE
  5
AC
330
31
100
AcDbEntity
  8
0
 62
126
100
AcDbPolyline
 90
4
 70
0
 10
5.458948066429002
 20
66.54613452681224
 10
5.458948066429002
 20
66.77068969279208
 10
5.099837235349696
 20
66.77068969279208
 10
5.099837235349696
 20
66.54613452681224
  0
LWPOLYLINE
  5
AD
330
31
100
AcDbEntity
  8
0
 62
126
100
AcDbPolyline
 90
3
 70
0
 10
4.802234003320336
 20
66.54613452681224
 10
4.802234003320336
 20
66.77068969279208
 10
5.099837235349696
 20
66.77068969279208
  0
LWPOLYLINE
  5
AE
330
31
100
AcDbEntity
  8
0
 62
126
100
AcDbPolyline
 90
3
 70
0
 10
1.71798232596484
 20
66.77068969279208
 10
2.448462986401864
 20
66.77068969279208
 10
2.448462986401864
 20
66.54613452681224
  0
LWPOLYLINE
  5
AF
330
31
100
AcDbEntity
  8
0
 62
126
100
AcDbPolyline
 90
3
 70
0
 10
1.420379093950032
 20
66.77068969279208
 10
0.6898984335130081
 20
66.77068969279208
 10
0.6898984335130081
 20
66.54613452681224
  0
LINE
  5
B0
330
31
100
AcDbEntity
  8
0
 62
126
100
AcDbLine
 10
-15.68918049869535
 20
66.54613452681224
 30
0.0
 11
-15.68918049869535
 21
44.43761416722554
 31
0.0
  0
LINE
  5
B1
330
31
100
AcDbEntity
  8
0
 62
126
100
AcDbLine
 10
15.68918049869535
 20
66.54613452681224
 30
0.0
 11
15.68918049869535
 21
44.43761416722554
 31
0.0
  0
LWPOLYLINE
  5
B2
330
31
100
AcDbEntity
  8
0
 62
126
100
AcDbPolyline
 90
6
 70
1
 10
-16.46737883872993
 20
32.95393261211575
 10
16.46737883872993
 20
32.95393261211575
 10
16.46737883872993
 20
66.1718759168434
 42
0.4142135623730832
 10
16.09312022876111
 20
66.54613452681224
 10
-16.09312022876111
 20
66.54613452681224
 42
0.4142135623730966
 10
-16.46737883872993
 20
66.1718759168434
  0
LWPOLYLINE
  5
B3
330
31
100
AcDbEntity
  8
0
 62
126
100
AcDbPolyline
 90
8
 70
1
 10
-37.82697618813836
 20
32.95393261211575
 42
0.4142135623731125
 10
-38.01672820087697
 20
32.76418059936986
 10
-38.01672820087697
 20
32.06209815222974
 42
0.4142135623730894
 10
-37.82697618813836
 20
31.87234613948386
 10
37.79351978638442
 20
31.87234613948386
 42
0.4142135623730951
 10
37.98327179912303
 20
32.06209815222974
 10
37.98327179912303
 20
32.76418059936986
 42
0.4142135623730951
 10
37.79351978638442
 20
32.95393261211575
  0
LINE
  5
B4
330
31
100
AcDbEntity
  8
0
 62
126
100
AcDbLine
 10
15.68918049869535
 20
54.41762222666875
 30
0.0
 11
-15.68918049869535
 21
54.41762222666875
 31
0.0
  0
TEXT
  5
B5
330
31
100
AcDbEntity
  8
0
100
AcDbText
 10
-13.07457432088267
 20
-19.45339410235074
 30
0.0
 40
1.062411537982749
  1
440
  7
Helvetica-Narrow
 11
-13.07457432088267
 21
-18.92218833335937
 31
0.0
100
AcDbText
 73
2
  0
TEXT
  5
B6
330
31
100
AcDbEntity
  8
0
100
AcDbText
 10
-13.07457432088267
 20
-21.86189723141043
 30
0.0
 40
1.062411537982749
  1
415
  7
Helvetica-Narrow
 11
-13.07457432088267
 21
-21.33069146241906
 31
0.0
100
AcDbText
 73
2
  0
TEXT
  5
B7
330
31
100
AcDbEntity
  8
0
100
AcDbText
 10
-13.07457432088267
 20
-24.27040036047011
 30
0.0
 40
1.062411537982749
  1
400
  7
Helvetica-Narrow
 11
-13.07457432088267
 21
-23.73919459147874
 31
0.0
100
AcDbText
 73
2
  0
TEXT
  5
B8
330
31
100
AcDbEntity
  8
0
100
AcDbText
 10
4.465414505975786
 20
-19.46853480364708
 30
0.0
 40
1.062411537982749
  1
10
  7
Helvetica-Narrow
 11
4.465414505975786
 21
-18.9373290346557
 31
0.0
100
AcDbText
 73
2
  0
TEXT
  5
B9
330
31
100
AcDbEntity
  8
0
100
AcDbText
 10
-4.565083566863904
 20
-19.46853480364708
 30
0.0
 40
1.062411537982749
  1
10
  7
Helvetica-Narrow
 11
-4.565083566863904
 21
-18.9373290346557
 31
0.0
100
AcDbText
 73
2
  0
LINE
  5
BA
330
31
100
AcDbEntity
  8
0
 62
126
100
AcDbLine
 10
-6.02388413195149
 20
-114.9844282856211
 30
0.0
 11
5.96280310457223
 21
-114.7322847388132
 31
0.0
  0
LINE
  5
BB
330
31
100
AcDbEntity
  8
0
 62
126
100
AcDbLine
 10
-6.01935881996178
 20
-116.5655643800128
 30
0.0
 11
5.96732841656194
 21
-116.3134208331903
 31
0.0
  0
LINE
  5
BC
330
31
100
AcDbEntity
  8
0
 62
126
100
AcDbLine
 10
-6.021919176157098
 20
-116.7379354712466
 30
0.0
 11
5.969060857052681
 21
-116.4763809568394
 31
0.0
  0
LINE
  5
BD
330
31
100
AcDbEntity
  8
0
 62
126
100
AcDbLine
 10
-6.01935881996178
 20
-118.0903929683554
 30
0.0
 11
5.96732841656194
 21
-117.8382494215329
 31
0.0
  0
LINE
  5
BE
330
31
100
AcDbEntity
  8
0
 62
126
100
AcDbLine
 10
-6.021919176157098
 20
-118.2627640595747
 30
0.0
 11
5.969060857052681
 21
-118.001209545182
 31
0.0
  0
LINE
  5
BF
330
31
100
AcDbEntity
  8
0
 62
126
100
AcDbLine
 10
-6.028946418358827
 20
-113.5694155692617
 30
0.0
 11
5.962033614865504
 21
-113.3078610548691
 31
0.0
  0
LINE
  5
C0
330
31
100
AcDbEntity
  8
0
 62
126
100
AcDbLine
 10
-6.028946418358827
 20
-113.8907124249381
 30
0.0
 11
5.962033614865504
 21
-113.6291579105455
 31
0.0
  0
LINE
  5
C1
330
31
100
AcDbEntity
  8
0
 62
126
100
AcDbLine
 10
-6.028946418358827
 20
-114.693952933565
 30
0.0
 11
5.962033614865504
 21
-114.4323984191578
 31
0.0
  0
LINE
  5
C2
330
31
100
AcDbEntity
  8
0
 62
126
100
AcDbLine
 10
-4.801489119767211
 20
-120.6908496367759
 30
0.0
 11
-8.754614119767211
 21
-120.6908496367759
 31
0.0
  0
LINE
  5
C3
330
31
100
AcDbEntity
  8
0
 62
126
100
AcDbLine
 10
-4.801489119767211
 20
-127.8633857988534
 30
0.0
 11
-4.801489119767211
 21
-122.6234885256635
 31
0.0
  0
LINE
  5
C4
330
31
100
AcDbEntity
  8
0
 62
126
100
AcDbLine
 10
4.967121991343447
 20
-127.8633857988534
 30
0.0
 11
4.967121991343447
 21
-122.6234885256635
 31
0.0
  0
ARC
  5
C5
330
31
100
AcDbEntity
  8
0
 62
126
100
AcDbCircle
 10
0.0828164357953938
 20
-127.8291551923394
 30
0.0
 40
7.138305555555758
100
AcDbArc
 50
46.82422833772897
 51
133.175771662271
  0
LINE
  5
C6
330
31
100
AcDbEntity
  8
0
 62
126
100
AcDbLine
 10
4.967121991343447
 20
-120.6908496367759
 30
0.0
 11
8.920246991343447
 21
-120.6908496367759
 31
0.0
  0
ARC
  5
C7
330
31
100
AcDbEntity
  8
0
 62
126
100
AcDbCircle
 10
7.317113122466253
 20
-123.0498269141753
 30
0.0
 40
2.388351468659658
100
AcDbArc
 50
16.65126858436338
 51
169.7171684086239
  0
LINE
  5
C8
330
31
100
AcDbEntity
  8
0
 62
126
100
AcDbLine
 10
0.0828164357953938
 20
-120.6908496367759
 30
0.0
 11
6.943684491343447
 21
-120.6908496367759
 31
0.0
  0
ARC
  5
C9
330
31
100
AcDbEntity
  8
0
 62
126
100
AcDbCircle
 10
-7.145669848687248
 20
-123.0438844573873
 30
0.0
 40
2.38157847430125
100
AcDbArc
 50
10.16711751469008
 51
159.7769601324984
  0
LINE
  5
CA
330
31
100
AcDbEntity
  8
0
 62
126
100
AcDbLine
 10
0.0828164357953938
 20
-120.6908496367759
 30
0.0
 11
-4.801489119767211
 21
-120.6908496367759
 31
0.0
  0
ARC
  5
CB
330
31
100
AcDbEntity
  8
0
 62
126
100
AcDbCircle
 10
0.0828164357953938
 20
-121.2706923768637
 30
0.0
 40
8.204879482134018
100
AcDbArc
 50
233.4664931240566
 51
306.5335068759434
  0
ARC
  5
CC
330
31
100
AcDbEntity
  8
0
 62
126
100
AcDbCircle
 10
-7.174226004543015
 20
-126.9234412553851
 30
0.0
 40
2.552131671600688
100
AcDbArc
 50
201.7155109884308
 51
338.3893220220666
  0
ARC
  5
CD
330
31
100
AcDbEntity
  8
0
 62
126
100
AcDbCircle
 10
7.335152785293757
 20
-126.9293238689206
 30
0.0
 40
2.545592569517785
100
AcDbArc
 50
201.5265916192965
 51
338.9500507642018
  0
LWPOLYLINE
  5
CE
330
31
100
AcDbEntity
  8
0
 62
126
100
AcDbPolyline
 90
4
 70
0
 10
-6.028167218522867
 20
-131.4135674936478
 10
-6.028167218522867
 20
-113.1276538605161
 10
5.971832781477132
 20
-113.1276538605161
 10
5.971832781477132
 20
-131.4135674936478
  0
LWPOLYLINE
  5
CF
330
31
100
AcDbEntity
  8
0
 62
126
100
AcDbPolyline
 90
4
 70
1
 10
-14.2305606562586
 20
-120.6908496367759
 10
14.17853025284421
 20
-120.6908496367759
 10
14.17853025284421
 20
-119.1125668084933
 10
-14.2305606562586
 20
-119.1125668084933
  0
LWPOLYLINE
  5
D0
330
31
100
AcDbEntity
  8
0
 62
126
100
AcDbPolyline
 90
8
 70
1
 10
-9.54523911976139
 20
-122.6234885256635
 10
-8.754614119767211
 20
-120.6908496367759
 10
8.920246991343447
 20
-120.6908496367759
 10
9.710871991352178
 20
-122.6234885256635
 10
9.710871991352178
 20
-127.894321858992
 10
8.920246991343447
 20
-129.4755718589949
 10
-8.754614119767211
 20
-129.4755718589949
 10
-9.54523911976139
 20
-127.894321858992
  0
TEXT
  5
D1
330
31
100
AcDbEntity
  8
0
 62
126
100
AcDbText
 10
-5.494289542465475
 20
-125.8385891492435
 30
0.0
 40
1.5
  1
M12x15mm
  7
Helvetica-Narrow
 72
1
 11
0.0828164357953938
 21
-125.0885891492435
 31
0.0
100
AcDbText
 73
2
  0
LINE
  5
D2
330
31
100
AcDbEntity
  8
0
 62
126
100
AcDbLine
 10
-6.018589330255053
 20
-118.3902792879962
 30
0.0
 11
5.968097906268667
 21
-118.1381357411883
 31
0.0
  0
LINE
  5
D3
330
31
100
AcDbEntity
  8
0
 62
126
100
AcDbLine
 10
-6.014064018265344
 20
-119.9714153823879
 30
0.0
 11
5.971832781477132
 21
-119.719288462642
 31
0.0
  0
LINE
  5
D4
330
31
100
AcDbEntity
  8
0
 62
126
100
AcDbLine
 10
-6.016624374460661
 20
-120.1437864736217
 30
0.0
 11
5.971832781477132
 21
-119.8822869897412
 31
0.0
  0
LINE
  5
D5
330
31
100
AcDbEntity
  8
0
 62
126
100
AcDbLine
 10
-6.016624374460661
 20
-121.6686150619498
 30
0.0
 11
5.974355658749118
 21
-121.4070605475572
 31
0.0
  0
LINE
  5
D6
330
31
100
AcDbEntity
  8
0
 62
126
100
AcDbLine
 10
-6.023651616662391
 20
-118.0998039359401
 30
0.0
 11
5.96732841656194
 21
-117.8382494215329
 31
0.0
  0
LINE
  5
D7
330
31
100
AcDbEntity
  8
0
 62
126
100
AcDbLine
 10
-6.013294528558617
 20
-121.7961302903713
 30
0.0
 11
5.973392707965103
 21
-121.5439867435634
 31
0.0
  0
LINE
  5
D8
330
31
100
AcDbEntity
  8
0
 62
126
100
AcDbLine
 10
-6.028167218522867
 20
-131.4135674936478
 30
0.0
 11
5.971832781477132
 21
-131.4135674936478
 31
0.0
  0
LINE
  5
D9
330
31
100
AcDbEntity
  8
0
 62
126
100
AcDbLine
 10
-6.008769216568907
 20
-129.8328900572451
 30
0.0
 11
5.977918019954813
 21
-129.5807465104226
 31
0.0
  0
LINE
  5
DA
330
31
100
AcDbEntity
  8
0
 62
126
100
AcDbLine
 10
-6.011329572764225
 20
-130.0052611484643
 30
0.0
 11
5.979650460445554
 21
-129.7437066340717
 31
0.0
  0
HATCH
  5
DB
330
31
100
AcDbEntity
  8
0
 62
126
 60
1
100
AcDbHatch
 10
0.0
 20
0.0
 30
0.0
210
0.0
220
0.0
230
1.0
  2
DASH
 70
0
 71
0
 91
7
 92
16
 93
1
 72
2
 10
11.27440940575617
 20
5.872346139491128
 40
3.5
 50
0.0
 51
360.0
 73
1
 97
1
330
1A2DF
 92
16
 93
1
 72
2
 10
-0.0167282008769689
 20
5.872346139491128
 40
3.5
 50
0.0
 51
360.0
 73
1
 97
1
330
1A2DD
 92
16
 93
1
 72
2
 10
-11.12174495232466
 20
5.872346139491128
 40
3.5
 50
0.0
 51
360.0
 73
1
 97
1
330
1A2DE
 92
16
 93
1
 72
2
 10
-11.12174495232466
 20
-14.12765386051615
 40
3.5
 50
0.0
 51
360.0
 73
1
 97
1
330
1A2DB
 92
16
 93
1
 72
2
 10
-0.0167282008769689
 20
-14.12765386051615
 40
3.5
 50
0.0
 51
360.0
 73
1
 97
1
330
1A2DA
 92
16
 93
1
 72
2
 10
11.27440940575617
 20
-14.12765386051615
 40
3.5
 50
0.0
 51
360.0
 73
1
 97
1
330
1A2DC
 92
1
 93
8
 72
1
 10
-20.01672820087697
 20
-24.12765386051615
 11
19.98327179912304
 21
-24.12765386051615
 72
2
 10
19.98327179912304
 20
-19.12765386051615
 40
5.0
 50
270.0
 51
360.0
 73
1
 72
1
 10
24.98327179912305
 20
-19.12765386051615
 11
24.98327179912305
 21
10.87234613948385
 72
2
 10
19.98327179912304
 20
10.87234613948385
 40
5.0
 50
0.0
 51
90.0
 73
1
 72
1
 10
19.98327179912304
 20
15.87234613948385
 11
-20.01672820087697
 21
15.87234613948385
 72
2
 10
-20.01672820087697
 20
10.87234613948385
 40
5.0
 50
90.0
 51
180.0
 73
1
 72
1
 10
-25.01672820087697
 20
10.87234613948385
 11
-25.01672820087697
 21
-19.12765386051615
 72
2
 10
-20.01672820087697
 20
-19.12765386051615
 40
5.0
 50
180.0
 51
270.0
 73
1
 97
1
330
1A2D7
 75
0
 76
1
 52
0.0
 41
0.5
 77
0
 78
1
 53
0.0
 43
-69254.24743732855
 44
-35174.37369694809
 45
1.587499999999999
 46
1.587499999999999
 79
2
 49
1.587499999999999
 49
-1.587499999999999
 98
1
 10
-69254.24743732855
 20
-35174.37369694809
  0
LWPOLYLINE
  5
DC
330
31
100
AcDbEntity
  8
0
 62
126
 60
1
100
AcDbPolyline
 90
8
 70
1
 10
-20.01672820087697
 20
-24.12765386051615
 10
19.98327179912304
 20
-24.12765386051615
 42
0.4142135623730951
 10
24.98327179912305
 20
-19.12765386051615
 10
24.98327179912305
 20
10.87234613948385
 42
0.4142135623730951
 10
19.98327179912304
 20
15.87234613948385
 10
-20.01672820087697
 20
15.87234613948385
 42
0.4142135623730951
 10
-25.01672820087697
 20
10.87234613948385
 10
-25.01672820087697
 20
-19.12765386051615
 42
0.4142135623730951
  0
CIRCLE
  5
DD
330
31
100
AcDbEntity
  8
0
 62
126
 60
1
100
AcDbCircle
 10
-0.0167282008769689
 20
-4.127653860516147
 30
0.0
 40
38.0
  0
CIRCLE
  5
DE
330
31
100
AcDbEntity
  8
0
 62
126
 60
1
100
AcDbCircle
 10
-0.0167282008769689
 20
-4.127653860516147
 30
0.0
 40
36.0
  0
CIRCLE
  5
DF
330
31
100
AcDbEntity
  8
0
 62
126
 60
1
100
AcDbCircle
 10
-0.0167282008769689
 20
-14.12765386051615
 30
0.0
 40
3.5
  0
CIRCLE
  5
E0
330
31
100
AcDbEntity
  8
0
 62
126
 60
1
100
AcDbCircle
 10
-11.12174495232466
 20
-14.12765386051615
 30
0.0
 40
3.5
  0
CIRCLE
  5
E1
330
31
100
AcDbEntity
  8
0
 62
126
 60
1
100
AcDbCircle
 10
11.27440940575617
 20
-14.12765386051615
 30
0.0
 40
3.5
  0
CIRCLE
  5
E2
330
31
100
AcDbEntity
  8
0
 62
126
 60
1
100
AcDbCircle
 10
-0.0167282008769689
 20
5.872346139491128
 30
0.0
 40
3.5
  0
CIRCLE
  5
E3
330
31
100
AcDbEntity
  8
0
 62
126
 60
1
100
AcDbCircle
 10
-11.12174495232466
 20
5.872346139491128
 30
0.0
 40
3.5
  0
CIRCLE
  5
E4
330
31
100
AcDbEntity
  8
0
 62
126
 60
1
100
AcDbCircle
 10
11.27440940575617
 20
5.872346139491128
 30
0.0
 40
3.5
  0
ARC
  5
E5
330
31
100
AcDbEntity
  8
INSIDE
 62
4
 60
1
100
AcDbCircle
 10
11.35125724795218
 20
7.291057641850784
 30
0.0
 40
0.5023255813946621
100
AcDbArc
 50
221.8994695256492
 51
311.8994695259281
  0
LINE
  5
E6
330
31
100
AcDbEntity
  8
INSIDE
 62
4
 60
1
100
AcDbLine
 10
11.68672316300218
 20
6.917167805717326
 30
0.0
 11
13.15090559139209
 21
8.230879093556723
 31
0.0
  0
LINE
  5
E7
330
31
100
AcDbEntity
  8
INSIDE
 62
4
 60
1
100
AcDbLine
 10
10.97736741181872
 20
6.955591726808052
 30
0.0
 11
10.3064355817187
 21
7.703371399074967
 31
0.0
  0
ARC
  5
E8
330
31
100
AcDbEntity
  8
INSIDE
 62
4
 60
1
100
AcDbCircle
 10
12.69312090813766
 20
5.795498297316953
 30
0.0
 40
0.5023255813946621
100
AcDbArc
 50
131.8994695259281
 51
221.8994695256492
  0
LINE
  5
E9
330
31
100
AcDbEntity
  8
INSIDE
 62
4
 60
1
100
AcDbLine
 10
12.35765499308765
 20
6.169388133450411
 30
0.0
 11
13.82183742147755
 21
7.483099421289807
 31
0.0
  0
LINE
  5
EA
330
31
100
AcDbEntity
  8
INSIDE
 62
4
 60
1
100
AcDbLine
 10
12.99016290208966
 20
4.712252710000029
 30
0.0
 11
12.3192310720042
 21
5.460032382266945
 31
0.0
  0
ARC
  5
EB
330
31
100
AcDbEntity
  8
INSIDE
 62
4
 60
1
100
AcDbCircle
 10
11.19756156360383
 20
4.453634637124196
 30
0.0
 40
0.5023255813946621
100
AcDbArc
 50
41.89946952564918
 51
131.8994695259281
  0
LINE
  5
EC
330
31
100
AcDbEntity
  8
INSIDE
 62
4
 60
1
100
AcDbLine
 10
12.24238322982275
 20
4.041320879907289
 30
0.0
 11
11.57145139973728
 21
4.789100552174204
 31
0.0
  0
LINE
  5
ED
330
31
100
AcDbEntity
  8
INSIDE
 62
4
 60
1
100
AcDbLine
 10
9.397913220149363
 20
3.513813185425533
 30
0.0
 11
10.86209564855382
 21
4.827524473257653
 31
0.0
  0
ARC
  5
EE
330
31
100
AcDbEntity
  8
INSIDE
 62
4
 60
1
100
AcDbCircle
 10
9.855697903403794
 20
5.949193981665302
 30
0.0
 40
0.5023255813946621
100
AcDbArc
 50
311.8994695259281
 51
41.89946952564918
  0
LINE
  5
EF
330
31
100
AcDbEntity
  8
INSIDE
 62
4
 60
1
100
AcDbLine
 10
10.22958773953725
 20
6.284659896708035
 30
0.0
 11
9.558655909451787
 21
7.032439568982226
 31
0.0
  0
LINE
  5
F0
330
31
100
AcDbEntity
  8
INSIDE
 62
4
 60
1
100
AcDbLine
 10
8.726981390063896
 20
4.261592857692448
 30
0.0
 11
10.1911638184538
 21
5.575304145524569
 31
0.0
  0
LINE
  5
F1
330
31
100
AcDbEntity
  8
INSIDE
  6
Continuous
 62
4
 60
1
100
AcDbLine
 10
12.24238322982275
 20
4.041320879907289
 30
0.0
 11
12.99016290208966
 21
4.712252710000029
 31
0.0
  0
LINE
  5
F2
330
31
100
AcDbEntity
  8
INSIDE
  6
Continuous
 62
4
 60
1
100
AcDbLine
 10
9.558655909451787
 20
7.032439568982226
 30
0.0
 11
10.3064355817187
 21
7.703371399074967
 31
0.0
  0
CIRCLE
  5
F3
330
31
100
AcDbEntity
  8
INSIDE
  6
Continuous
 62
4
 60
1
100
AcDbCircle
 10
11.27440940577072
 20
5.872346139491128
 30
0.0
 40
3.013953488367971
  0
ARC
  5
F4
330
31
100
AcDbEntity
  8
INSIDE
 62
4
 60
1
100
AcDbCircle
 10
0.0601196413190337
 20
7.291057641850784
 30
0.0
 40
0.5023255813946621
100
AcDbArc
 50
221.8994695256492
 51
311.8994695259281
  0
LINE
  5
F5
330
31
100
AcDbEntity
  8
INSIDE
 62
4
 60
1
100
AcDbLine
 10
0.395585556369042
 20
6.917167805717326
 30
0.0
 11
1.859767984758946
 21
8.230879093556723
 31
0.0
  0
LINE
  5
F6
330
31
100
AcDbEntity
  8
INSIDE
 62
4
 60
1
100
AcDbLine
 10
-0.313770194814424
 20
6.955591726808052
 30
0.0
 11
-0.9847020249144406
 21
7.703371399074967
 31
0.0
  0
ARC
  5
F7
330
31
100
AcDbEntity
  8
INSIDE
 62
4
 60
1
100
AcDbCircle
 10
1.401983301504515
 20
5.795498297316953
 30
0.0
 40
0.5023255813946621
100
AcDbArc
 50
131.8994695259281
 51
221.8994695256492
  0
LINE
  5
F8
330
31
100
AcDbEntity
  8
INSIDE
 62
4
 60
1
100
AcDbLine
 10
1.066517386454506
 20
6.169388133450411
 30
0.0
 11
2.53069981484441
 21
7.483099421289807
 31
0.0
  0
LINE
  5
F9
330
31
100
AcDbEntity
  8
INSIDE
 62
4
 60
1
100
AcDbLine
 10
1.699025295456522
 20
4.712252710000029
 30
0.0
 11
1.028093465371057
 21
5.460032382266945
 31
0.0
  0
ARC
  5
FA
330
31
100
AcDbEntity
  8
INSIDE
 62
4
 60
1
100
AcDbCircle
 10
-0.0935760430293158
 20
4.453634637124196
 30
0.0
 40
0.5023255813946621
100
AcDbArc
 50
41.89946952564918
 51
131.8994695259281
  0
LINE
  5
FB
330
31
100
AcDbEntity
  8
INSIDE
 62
4
 60
1
100
AcDbLine
 10
0.9512456231896067
 20
4.041320879907289
 30
0.0
 11
0.2803137931041419
 21
4.789100552174204
 31
0.0
  0
LINE
  5
FC
330
31
100
AcDbEntity
  8
INSIDE
 62
4
 60
1
100
AcDbLine
 10
-1.89322438648378
 20
3.513813185425533
 30
0.0
 11
-0.4290419580793241
 21
4.827524473257653
 31
0.0
  0
ARC
  5
FD
330
31
100
AcDbEntity
  8
INSIDE
 62
4
 60
1
100
AcDbCircle
 10
-1.435439703229349
 20
5.949193981665302
 30
0.0
 40
0.5023255813946621
100
AcDbArc
 50
311.8994695259281
 51
41.89946952564918
  0
LINE
  5
FE
330
31
100
AcDbEntity
  8
INSIDE
 62
4
 60
1
100
AcDbLine
 10
-1.061549867095891
 20
6.284659896708035
 30
0.0
 11
-1.732481697181356
 21
7.032439568982226
 31
0.0
  0
LINE
  5
FF
330
31
100
AcDbEntity
  8
INSIDE
 62
4
 60
1
100
AcDbLine
 10
-2.564156216569244
 20
4.261592857692448
 30
0.0
 11
-1.09997378817934
 21
5.575304145524569
 31
0.0
  0
LINE
  5
100
330
31
100
AcDbEntity
  8
INSIDE
  6
Continuous
 62
4
 60
1
100
AcDbLine
 10
0.9512456231896067
 20
4.041320879907289
 30
0.0
 11
1.699025295456522
 21
4.712252710000029
 31
0.0
  0
LINE
  5
101
330
31
100
AcDbEntity
  8
INSIDE
  6
Continuous
 62
4
 60
1
100
AcDbLine
 10
-1.732481697181356
 20
7.032439568982226
 30
0.0
 11
-0.9847020249144406
 21
7.703371399074967
 31
0.0
  0
CIRCLE
  5
102
330
31
100
AcDbEntity
  8
INSIDE
  6
Continuous
 62
4
 60
1
100
AcDbCircle
 10
-0.016728200862417
 20
5.872346139491128
 30
0.0
 40
3.013953488367971
  0
ARC
  5
103
330
31
100
AcDbEntity
  8
INSIDE
 62
4
 60
1
100
AcDbCircle
 10
-11.04489711012866
 20
7.291057641850784
 30
0.0
 40
0.5023255813946621
100
AcDbArc
 50
221.8994695256492
 51
311.8994695259281
  0
LINE
  5
104
330
31
100
AcDbEntity
  8
INSIDE
 62
4
 60
1
100
AcDbLine
 10
-10.70943119507865
 20
6.917167805717326
 30
0.0
 11
-9.245248766688746
 21
8.230879093556723
 31
0.0
  0
LINE
  5
105
330
31
100
AcDbEntity
  8
INSIDE
 62
4
 60
1
100
AcDbLine
 10
-11.41878694626211
 20
6.955591726808052
 30
0.0
 11
-12.08971877636213
 21
7.703371399074967
 31
0.0
  0
ARC
  5
106
330
31
100
AcDbEntity
  8
INSIDE
 62
4
 60
1
100
AcDbCircle
 10
-9.703033449943177
 20
5.795498297316953
 30
0.0
 40
0.5023255813946621
100
AcDbArc
 50
131.8994695259281
 51
221.8994695256492
  0
LINE
  5
107
330
31
100
AcDbEntity
  8
INSIDE
 62
4
 60
1
100
AcDbLine
 10
-10.03849936499318
 20
6.169388133450411
 30
0.0
 11
-8.574316936603282
 21
7.483099421289807
 31
0.0
  0
LINE
  5
108
330
31
100
AcDbEntity
  8
INSIDE
 62
4
 60
1
100
AcDbLine
 10
-9.40599145599117
 20
4.712252710000029
 30
0.0
 11
-10.07692328607663
 21
5.460032382266945
 31
0.0
  0
ARC
  5
109
330
31
100
AcDbEntity
  8
INSIDE
 62
4
 60
1
100
AcDbCircle
 10
-11.19859279447701
 20
4.453634637124196
 30
0.0
 40
0.5023255813946621
100
AcDbArc
 50
41.89946952564918
 51
131.8994695259281
  0
LINE
  5
10A
330
31
100
AcDbEntity
  8
INSIDE
 62
4
 60
1
100
AcDbLine
 10
-10.15377112825808
 20
4.041320879907289
 30
0.0
 11
-10.82470295834355
 21
4.789100552174204
 31
0.0
  0
LINE
  5
10B
330
31
100
AcDbEntity
  8
INSIDE
 62
4
 60
1
100
AcDbLine
 10
-12.99824113793147
 20
3.513813185425533
 30
0.0
 11
-11.53405870952701
 21
4.827524473257653
 31
0.0
  0
ARC
  5
10C
330
31
100
AcDbEntity
  8
INSIDE
 62
4
 60
1
100
AcDbCircle
 10
-12.54045645467704
 20
5.949193981665302
 30
0.0
 40
0.5023255813946621
100
AcDbArc
 50
311.8994695259281
 51
41.89946952564918
  0
LINE
  5
10D
330
31
100
AcDbEntity
  8
INSIDE
 62
4
 60
1
100
AcDbLine
 10
-12.16656661854358
 20
6.284659896708035
 30
0.0
 11
-12.83749844862905
 21
7.032439568982226
 31
0.0
  0
LINE
  5
10E
330
31
100
AcDbEntity
  8
INSIDE
 62
4
 60
1
100
AcDbLine
 10
-13.66917296801694
 20
4.261592857692448
 30
0.0
 11
-12.20499053962703
 21
5.575304145524569
 31
0.0
  0
LINE
  5
10F
330
31
100
AcDbEntity
  8
INSIDE
  6
Continuous
 62
4
 60
1
100
AcDbLine
 10
-10.15377112825808
 20
4.041320879907289
 30
0.0
 11
-9.40599145599117
 21
4.712252710000029
 31
0.0
  0
LINE
  5
110
330
31
100
AcDbEntity
  8
INSIDE
  6
Continuous
 62
4
 60
1
100
AcDbLine
 10
-12.83749844862905
 20
7.032439568982226
 30
0.0
 11
-12.08971877636213
 21
7.703371399074967
 31
0.0
  0
CIRCLE
  5
111
330
31
100
AcDbEntity
  8
INSIDE
  6
Continuous
 62
4
 60
1
100
AcDbCircle
 10
-11.12174495231011
 20
5.872346139491128
 30
0.0
 40
3.013953488367971
  0
ARC
  5
112
330
31
100
AcDbEntity
  8
INSIDE
 62
4
 60
1
100
AcDbCircle
 10
11.35125724795218
 20
-12.70894235815649
 30
0.0
 40
0.5023255813946621
100
AcDbArc
 50
221.8994695256492
 51
311.8994695259281
  0
LINE
  5
113
330
31
100
AcDbEntity
  8
INSIDE
 62
4
 60
1
100
AcDbLine
 10
11.68672316300218
 20
-13.08283219428995
 30
0.0
 11
13.15090559139209
 21
-11.76912090645055
 31
0.0
  0
LINE
  5
114
330
31
100
AcDbEntity
  8
INSIDE
 62
4
 60
1
100
AcDbLine
 10
10.97736741181872
 20
-13.04440827319922
 30
0.0
 11
10.3064355817187
 21
-12.29662860093231
 31
0.0
  0
ARC
  5
115
330
31
100
AcDbEntity
  8
INSIDE
 62
4
 60
1
100
AcDbCircle
 10
12.69312090813766
 20
-14.20450170269032
 30
0.0
 40
0.5023255813946621
100
AcDbArc
 50
131.8994695259281
 51
221.8994695256492
  0
LINE
  5
116
330
31
100
AcDbEntity
  8
INSIDE
 62
4
 60
1
100
AcDbLine
 10
12.35765499308765
 20
-13.83061186655686
 30
0.0
 11
13.82183742147755
 21
-12.51690057871747
 31
0.0
  0
LINE
  5
117
330
31
100
AcDbEntity
  8
INSIDE
 62
4
 60
1
100
AcDbLine
 10
12.99016290208966
 20
-15.28774729000724
 30
0.0
 11
12.3192310720042
 21
-14.53996761774033
 31
0.0
  0
ARC
  5
118
330
31
100
AcDbEntity
  8
INSIDE
 62
4
 60
1
100
AcDbCircle
 10
11.19756156360383
 20
-15.54636536288308
 30
0.0
 40
0.5023255813946621
100
AcDbArc
 50
41.89946952564918
 51
131.8994695259281
  0
LINE
  5
119
330
31
100
AcDbEntity
  8
INSIDE
 62
4
 60
1
100
AcDbLine
 10
12.24238322982275
 20
-15.95867912009999
 30
0.0
 11
11.57145139973728
 21
-15.21089944783307
 31
0.0
  0
LINE
  5
11A
330
31
100
AcDbEntity
  8
INSIDE
 62
4
 60
1
100
AcDbLine
 10
9.397913220149363
 20
-16.48618681458174
 30
0.0
 11
10.86209564855382
 21
-15.17247552674962
 31
0.0
  0
ARC
  5
11B
330
31
100
AcDbEntity
  8
INSIDE
 62
4
 60
1
100
AcDbCircle
 10
9.855697903403794
 20
-14.05080601834197
 30
0.0
 40
0.5023255813946621
100
AcDbArc
 50
311.8994695259281
 51
41.89946952564918
  0
LINE
  5
11C
330
31
100
AcDbEntity
  8
INSIDE
 62
4
 60
1
100
AcDbLine
 10
10.22958773953725
 20
-13.71534010329924
 30
0.0
 11
9.558655909451787
 21
-12.96756043102505
 31
0.0
  0
LINE
  5
11D
330
31
100
AcDbEntity
  8
INSIDE
 62
4
 60
1
100
AcDbLine
 10
8.726981390063896
 20
-15.73840714231482
 30
0.0
 11
10.1911638184538
 21
-14.42469585448271
 31
0.0
  0
LINE
  5
11E
330
31
100
AcDbEntity
  8
INSIDE
  6
Continuous
 62
4
 60
1
100
AcDbLine
 10
12.24238322982275
 20
-15.95867912009999
 30
0.0
 11
12.99016290208966
 21
-15.28774729000724
 31
0.0
  0
LINE
  5
11F
330
31
100
AcDbEntity
  8
INSIDE
  6
Continuous
 62
4
 60
1
100
AcDbLine
 10
9.558655909451787
 20
-12.96756043102505
 30
0.0
 11
10.3064355817187
 21
-12.29662860093231
 31
0.0
  0
CIRCLE
  5
120
330
31
100
AcDbEntity
  8
INSIDE
  6
Continuous
 62
4
 60
1
100
AcDbCircle
 10
11.27440940577072
 20
-14.12765386051615
 30
0.0
 40
3.013953488367971
  0
ARC
  5
121
330
31
100
AcDbEntity
  8
INSIDE
 62
4
 60
1
100
AcDbCircle
 10
0.0601196413190337
 20
-12.70894235815649
 30
0.0
 40
0.5023255813946621
100
AcDbArc
 50
221.8994695256492
 51
311.8994695259281
  0
LINE
  5
122
330
31
100
AcDbEntity
  8
INSIDE
 62
4
 60
1
100
AcDbLine
 10
0.395585556369042
 20
-13.08283219428995
 30
0.0
 11
1.859767984758946
 21
-11.76912090645055
 31
0.0
  0
LINE
  5
123
330
31
100
AcDbEntity
  8
INSIDE
 62
4
 60
1
100
AcDbLine
 10
-0.313770194814424
 20
-13.04440827319922
 30
0.0
 11
-0.9847020249144406
 21
-12.29662860093231
 31
0.0
  0
ARC
  5
124
330
31
100
AcDbEntity
  8
INSIDE
 62
4
 60
1
100
AcDbCircle
 10
1.401983301504515
 20
-14.20450170269032
 30
0.0
 40
0.5023255813946621
100
AcDbArc
 50
131.8994695259281
 51
221.8994695256492
  0
LINE
  5
125
330
31
100
AcDbEntity
  8
INSIDE
 62
4
 60
1
100
AcDbLine
 10
1.066517386454506
 20
-13.83061186655686
 30
0.0
 11
2.53069981484441
 21
-12.51690057871747
 31
0.0
  0
LINE
  5
126
330
31
100
AcDbEntity
  8
INSIDE
 62
4
 60
1
100
AcDbLine
 10
1.699025295456522
 20
-15.28774729000724
 30
0.0
 11
1.028093465371057
 21
-14.53996761774033
 31
0.0
  0
ARC
  5
127
330
31
100
AcDbEntity
  8
INSIDE
 62
4
 60
1
100
AcDbCircle
 10
-0.0935760430293158
 20
-15.54636536288308
 30
0.0
 40
0.5023255813946621
100
AcDbArc
 50
41.89946952564918
 51
131.8994695259281
  0
LINE
  5
128
330
31
100
AcDbEntity
  8
INSIDE
 62
4
 60
1
100
AcDbLine
 10
0.9512456231896067
 20
-15.95867912009999
 30
0.0
 11
0.2803137931041419
 21
-15.21089944783307
 31
0.0
  0
LINE
  5
129
330
31
100
AcDbEntity
  8
INSIDE
 62
4
 60
1
100
AcDbLine
 10
-1.89322438648378
 20
-16.48618681458174
 30
0.0
 11
-0.4290419580793241
 21
-15.17247552674962
 31
0.0
  0
ARC
  5
12A
330
31
100
AcDbEntity
  8
INSIDE
 62
4
 60
1
100
AcDbCircle
 10
-1.435439703229349
 20
-14.05080601834197
 30
0.0
 40
0.5023255813946621
100
AcDbArc
 50
311.8994695259281
 51
41.89946952564918
  0
LINE
  5
12B
330
31
100
AcDbEntity
  8
INSIDE
 62
4
 60
1
100
AcDbLine
 10
-1.061549867095891
 20
-13.71534010329924
 30
0.0
 11
-1.732481697181356
 21
-12.96756043102505
 31
0.0
  0
LINE
  5
12C
330
31
100
AcDbEntity
  8
INSIDE
 62
4
 60
1
100
AcDbLine
 10
-2.564156216569244
 20
-15.73840714231482
 30
0.0
 11
-1.09997378817934
 21
-14.42469585448271
 31
0.0
  0
LINE
  5
12D
330
31
100
AcDbEntity
  8
INSIDE
  6
Continuous
 62
4
 60
1
100
AcDbLine
 10
0.9512456231896067
 20
-15.95867912009999
 30
0.0
 11
1.699025295456522
 21
-15.28774729000724
 31
0.0
  0
LINE
  5
12E
330
31
100
AcDbEntity
  8
INSIDE
  6
Continuous
 62
4
 60
1
100
AcDbLine
 10
-1.732481697181356
 20
-12.96756043102505
 30
0.0
 11
-0.9847020249144406
 21
-12.29662860093231
 31
0.0
  0
CIRCLE
  5
12F
330
31
100
AcDbEntity
  8
INSIDE
  6
Continuous
 62
4
 60
1
100
AcDbCircle
 10
-0.016728200862417
 20
-14.12765386051615
 30
0.0
 40
3.013953488367971
  0
ARC
  5
130
330
31
100
AcDbEntity
  8
INSIDE
 62
4
 60
1
100
AcDbCircle
 10
-11.04489711012866
 20
-12.70894235815649
 30
0.0
 40
0.5023255813946621
100
AcDbArc
 50
221.8994695256492
 51
311.8994695259281
  0
LINE
  5
131
330
31
100
AcDbEntity
  8
INSIDE
 62
4
 60
1
100
AcDbLine
 10
-10.70943119507865
 20
-13.08283219428995
 30
0.0
 11
-9.245248766688746
 21
-11.76912090645055
 31
0.0
  0
LINE
  5
132
330
31
100
AcDbEntity
  8
INSIDE
 62
4
 60
1
100
AcDbLine
 10
-11.41878694626211
 20
-13.04440827319922
 30
0.0
 11
-12.08971877636213
 21
-12.29662860093231
 31
0.0
  0
ARC
  5
133
330
31
100
AcDbEntity
  8
INSIDE
 62
4
 60
1
100
AcDbCircle
 10
-9.703033449943177
 20
-14.20450170269032
 30
0.0
 40
0.5023255813946621
100
AcDbArc
 50
131.8994695259281
 51
221.8994695256492
  0
LINE
  5
134
330
31
100
AcDbEntity
  8
INSIDE
 62
4
 60
1
100
AcDbLine
 10
-10.03849936499318
 20
-13.83061186655686
 30
0.0
 11
-8.574316936603282
 21
-12.51690057871747
 31
0.0
  0
LINE
  5
135
330
31
100
AcDbEntity
  8
INSIDE
 62
4
 60
1
100
AcDbLine
 10
-9.40599145599117
 20
-15.28774729000724
 30
0.0
 11
-10.07692328607663
 21
-14.53996761774033
 31
0.0
  0
ARC
  5
136
330
31
100
AcDbEntity
  8
INSIDE
 62
4
 60
1
100
AcDbCircle
 10
-11.19859279447701
 20
-15.54636536288308
 30
0.0
 40
0.5023255813946621
100
AcDbArc
 50
41.89946952564918
 51
131.8994695259281
  0
LINE
  5
137
330
31
100
AcDbEntity
  8
INSIDE
 62
4
 60
1
100
AcDbLine
 10
-10.15377112825808
 20
-15.95867912009999
 30
0.0
 11
-10.82470295834355
 21
-15.21089944783307
 31
0.0
  0
LINE
  5
138
330
31
100
AcDbEntity
  8
INSIDE
 62
4
 60
1
100
AcDbLine
 10
-12.99824113793147
 20
-16.48618681458174
 30
0.0
 11
-11.53405870952701
 21
-15.17247552674962
 31
0.0
  0
ARC
  5
139
330
31
100
AcDbEntity
  8
INSIDE
 62
4
 60
1
100
AcDbCircle
 10
-12.54045645467704
 20
-14.05080601834197
 30
0.0
 40
0.5023255813946621
100
AcDbArc
 50
311.8994695259281
 51
41.89946952564918
  0
LINE
  5
13A
330
31
100
AcDbEntity
  8
INSIDE
 62
4
 60
1
100
AcDbLine
 10
-12.16656661854358
 20
-13.71534010329924
 30
0.0
 11
-12.83749844862905
 21
-12.96756043102505
 31
0.0
  0
LINE
  5
13B
330
31
100
AcDbEntity
  8
INSIDE
 62
4
 60
1
100
AcDbLine
 10
-13.66917296801694
 20
-15.73840714231482
 30
0.0
 11
-12.20499053962703
 21
-14.42469585448271
 31
0.0
  0
LINE
  5
13C
330
31
100
AcDbEntity
  8
INSIDE
  6
Continuous
 62
4
 60
1
100
AcDbLine
 10
-10.15377112825808
 20
-15.95867912009999
 30
0.0
 11
-9.40599145599117
 21
-15.28774729000724
 31
0.0
  0
LINE
  5
13D
330
31
100
AcDbEntity
  8
INSIDE
  6
Continuous
 62
4
 60
1
100
AcDbLine
 10
-12.83749844862905
 20
-12.96756043102505
 30
0.0
 11
-12.08971877636213
 21
-12.29662860093231
 31
0.0
  0
CIRCLE
  5
13E
330
31
100
AcDbEntity
  8
INSIDE
  6
Continuous
 62
4
 60
1
100
AcDbCircle
 10
-11.12174495231011
 20
-14.12765386051615
 30
0.0
 40
3.013953488367971
  0
LINE
  5
13F
330
31
100
AcDbEntity
  8
0
 62
251
370
9
 60
1
100
AcDbLine
 10
-0.0167282008769689
 20
1.872346139483852
 30
0.0
 11
-0.0167282008769689
 21
-10.12765386051615
 31
0.0
  0
LINE
  5
140
330
31
100
AcDbEntity
  8
0
 62
251
370
9
 60
1
100
AcDbLine
 10
-6.016728200876968
 20
-4.127653860516147
 30
0.0
 11
5.983271799123045
 21
-4.127653860516147
 31
0.0
  0
CIRCLE
  5
141
330
31
100
AcDbEntity
  8
0
 62
251
370
9
 60
1
100
AcDbCircle
 10
-0.0167282008769689
 20
-4.127653860516147
 30
0.0
 40
4.0
  0
ENDBLK
  5
33
330
31
100
AcDbEntity
  8
0
100
AcDbBlockEnd
  0
BLOCK
  5
143
330
142
100
AcDbEntity
  8
0
100
AcDbBlockBegin
  2
Nuintek
 70
0
 10
0.0
 20
0.0
 30
0.0
  3
Nuintek
  1

  0
LWPOLYLINE
  5
145
330
142
100
AcDbEntity
  8
0
 62
150
100
AcDbPolyline
 90
13
 70
1
 10
1.822844466424413
 20
2.331771021328762
 10
1.822844466424413
 20
3.833845513473534
 10
-2.803801207955245
 20
3.833845513473534
 10
-2.803801207955245
 20
3.833845513473534
 10
-2.803801207955245
 20
-0.9937686702195094
 10
0.183414180664414
 20
-0.9937686702195094
 10
0.183414180664414
 20
-0.2304657404801276
 10
-0.1845563293458383
 20
-0.2304657404801276
 10
-0.1845563293458383
 20
-0.625798160209257
 10
-2.435681722030039
 20
-0.625798160209257
 10
-2.435681722030039
 20
3.46686817622961
 10
1.454824297775786
 20
3.46686817622961
 10
1.454824297775786
 20
2.331771021328762
  0
LWPOLYLINE
  5
146
330
142
100
AcDbEntity
  8
0
 62
150
100
AcDbPolyline
 90
20
 70
1
 10
-0.1146121704341567
 20
2.84e-14
 10
0.1146121704341567
 20
-1.42e-14
 42
0.4142135623738234
 10
0.1546121704342056
 20
0.0400000000000347
 10
0.1546121704341488
 20
1.578358753399896
 42
-0.7047199659112873
 10
0.1741234969857714
 20
1.58532706168323
 10
1.448040919274234
 20
0.0293213943030963
 42
0.2248667671231916
 10
1.509941476013352
 20
1.279e-13
 10
1.749523520106436
 20
-1.42e-14
 42
0.4142135623738234
 10
1.789523520106428
 20
0.0400000000000347
 10
1.789523520106371
 20
2.069896225279237
 42
0.4142135623735113
 10
1.749523520106379
 20
2.109896225279271
 10
1.492043414029353
 20
2.109896225279271
 42
0.4142135623735114
 10
1.452043414029361
 20
2.069896225279265
 10
1.452043414029418
 20
0.810286556587016
 42
-0.7066016661988462
 10
1.432497181336941
 20
0.8033611030447217
 10
0.3977575255679824
 20
2.080263160131906
 42
0.2261868371009028
 10
0.3356031059862801
 20
2.109896225279285
 10
-0.1146121704341567
 20
2.109896225279285
 42
0.4142135623731991
 10
-0.1546121704341488
 20
2.069896225279237
 10
-0.1546121704341488
 20
0.0400000000000347
 42
0.4142135623730951
  0
LWPOLYLINE
  5
147
330
142
100
AcDbEntity
  8
0
 62
150
100
AcDbPolyline
 90
20
 70
1
 10
5.891699452611845
 20
2.84e-14
 10
6.120923793480159
 20
-1.42e-14
 42
0.4142135623738234
 10
6.160923793480236
 20
0.0400000000000347
 10
6.160923793480179
 20
1.578358753399896
 42
-0.7047199659112873
 10
6.180435120031773
 20
1.58532706168323
 10
7.454352542320265
 20
0.0293213943030963
 42
0.2248667671231916
 10
7.516253099059412
 20
1.279e-13
 10
7.755835143152438
 20
-1.42e-14
 42
0.4142135623738234
 10
7.795835143152459
 20
0.0400000000000347
 10
7.795835143152402
 20
2.069896225279237
 42
0.4142135623735113
 10
7.755835143152438
 20
2.109896225279271
 10
7.498355037075356
 20
2.109896225279271
 42
0.4142135623735114
 10
7.458355037075392
 20
2.069896225279265
 10
7.458355037075449
 20
0.810286556587016
 42
-0.7066016661988462
 10
7.438808804383
 20
0.8033611030447217
 10
6.404069148614013
 20
2.080263160131906
 42
0.2261868371009028
 10
6.341914729032311
 20
2.109896225279285
 10
5.891699452611845
 20
2.109896225279285
 42
0.4142135623731991
 10
5.851699452611882
 20
2.069896225279237
 10
5.851699452611882
 20
0.0400000000000347
 42
0.4142135623730951
  0
LWPOLYLINE
  5
148
330
142
100
AcDbEntity
  8
0
 62
150
100
AcDbPolyline
 90
8
 70
1
 10
4.817012064410079
 20
2.069896225279251
 10
4.817012064410135
 20
0.0400000000000489
 42
0.4142135623725748
 10
4.857012064410099
 20
4.26e-14
 10
5.229104307747917
 20
7.11e-14
 42
0.414213562372887
 10
5.269104307747937
 20
0.0400000000000489
 10
5.269104307747937
 20
2.069896225279251
 42
0.4142135623727829
 10
5.229104307747917
 20
2.109896225279214
 10
4.857012064410099
 20
2.109896225279257
 42
0.4142135623730951
  0
CIRCLE
  5
149
330
142
100
AcDbEntity
  8
0
 62
150
100
AcDbCircle
 10
5.038624573484611
 20
2.688022092693643
 30
0.0
 40
0.3262572522985683
  0
LWPOLYLINE
  5
14A
330
142
100
AcDbEntity
  8
0
 62
150
100
AcDbPolyline
 90
16
 70
1
 10
9.856494861702657
 20
2.109896225279271
 10
8.146747877723925
 20
2.109896225279271
 42
0.4142135623730951
 10
8.106747877723905
 20
2.069896225279265
 10
8.106747877723905
 20
1.887202028524328
 42
0.4142135623728868
 10
8.146747877723925
 20
1.847202028524321
 10
8.735401442810172
 20
1.847202028524279
 42
-0.4142135623727829
 10
8.775401442810193
 20
1.807202028524315
 10
8.77540144281025
 20
0.0400000000000631
 42
0.4142135623723667
 10
8.815401442810211
 20
5.68e-14
 10
9.260938812235253
 20
5.68e-14
 42
0.4142135623730951
 10
9.300938812235273
 20
0.0400000000000631
 10
9.300938812235273
 20
1.807202028524315
 42
-0.4142135623730951
 10
9.340938812235294
 20
1.847202028524321
 10
9.856494861702657
 20
1.847202028524321
 42
0.4142135623731991
 10
9.896494861702678
 20
1.887202028524328
 10
9.896494861702678
 20
2.069896225279265
 42
0.4142135623730951
  0
LWPOLYLINE
  5
14B
330
142
100
AcDbEntity
  8
0
 62
150
100
AcDbPolyline
 90
18
 70
1
 10
11.68132564048701
 20
2.109896225279271
 10
10.36992157313281
 20
2.109896225279314
 42
0.4142135623731782
 10
10.21992157313283
 20
1.959896225279265
 10
10.21992157313283
 20
0.1500000000000625
 42
0.4142135623731228
 10
10.36992157313281
 20
4.26e-14
 10
11.68132564048701
 20
5.68e-14
 10
11.68132564048701
 20
0.2589201402421679
 10
10.74190831674425
 20
0.2589201402421679
 42
-0.4142135623722627
 10
10.70190831674429
 20
0.2989201402421742
 10
10.70190831674423
 20
0.9373068316139239
 42
-0.4142135623722627
 10
10.74190831674425
 20
0.9773068316138733
 10
11.66027037783598
 20
0.9773068316139301
 10
11.66027037783598
 20
1.236226971855984
 10
10.74190831674431
 20
1.236226971855984
 42
-0.4142135623728868
 10
10.70190831674429
 20
1.27622697185599
 10
10.70190831674429
 20
1.807946908099239
 42
-0.4142135623723667
 10
10.74190831674425
 20
1.847946908099245
 10
11.68132564048701
 20
1.847946908099288
  0
LWPOLYLINE
  5
14C
330
142
100
AcDbEntity
  8
0
 62
150
100
AcDbPolyline
 90
22
 70
1
 10
13.02409363346945
 20
1.14261634248406
 10
13.86424909582186
 20
2.068107870273493
 42
0.6505594749546204
 10
13.84572475679991
 20
2.109896225279271
 10
13.58095258765351
 20
2.10989622527947
 42
0.2086318930553114
 10
13.47100215565288
 20
2.061930055467499
 10
12.76899291034689
 20
1.306992727773945
 42
-0.6817620796744714
 10
12.74992987866685
 20
1.314475208654428
 10
12.74992987866685
 20
2.069896225279279
 42
0.414213562372991
 10
12.70992987866683
 20
2.109896225279285
 10
12.22928385194396
 20
2.109896225279257
 42
0.414213562372887
 10
12.18928385194394
 20
2.069896225279279
 10
12.18928385194394
 20
0.0400000000000631
 42
0.4142135623727829
 10
12.22928385194396
 20
5.68e-14
 10
12.70992987866683
 20
5.68e-14
 42
0.4142135623722627
 10
12.74992987866679
 20
0.0400000000000631
 10
12.74992987866685
 20
0.8791032649097729
 42
-0.6871520075210037
 10
12.76910189253786
 20
0.8864665650728937
 10
13.52454585241773
 20
0.049591361411899
 42
0.21246501940317
 10
13.63598240520386
 20
2.132e-13
 10
13.98718337993554
 20
5.68e-14
 42
0.6563112205950516
 10
14.00543464642518
 20
0.0420848257681854
 10
13.02453054952119
 20
1.088419253245803
 42
-0.3903610326755418
  0
SPLINE
  5
14D
330
142
100
AcDbEntity
  8
0
 62
150
100
AcDbSpline
 70
13
 71
3
 72
65
 73
61
 74
0
 42
1e-09
 40
0.0
 40
0.0
 40
0.0
 40
0.0
 40
1.0
 40
1.0
 40
1.0
 40
2.0
 40
2.0
 40
2.0
 40
3.0
 40
3.0
 40
3.0
 40
4.0
 40
4.0
 40
4.0
 40
5.0
 40
5.0
 40
5.0
 40
6.570796326794541
 40
6.570796326794541
 40
6.570796326794541
 40
7.570796326794541
 40
7.570796326794541
 40
7.570796326794541
 40
9.141592653589438
 40
9.141592653589438
 40
9.141592653589438
 40
10.14159265358943
 40
10.14159265358943
 40
10.14159265358943
 40
11.14159265358944
 40
11.14159265358944
 40
11.14159265358944
 40
12.14159265358944
 40
12.14159265358944
 40
12.14159265358944
 40
13.14159265358944
 40
13.14159265358944
 40
13.14159265358944
 40
14.14159265358944
 40
14.14159265358944
 40
14.14159265358944
 40
15.14159265358944
 40
15.14159265358944
 40
15.14159265358944
 40
15.92699081698777
 40
15.92699081698777
 40
15.92699081698777
 40
16.71238898038611
 40
16.71238898038611
 40
16.71238898038611
 40
17.71238898038611
 40
17.71238898038611
 40
17.71238898038611
 40
18.49778714378356
 40
18.49778714378356
 40
18.49778714378356
 40
19.28318530718101
 40
19.28318530718101
 40
19.28318530718101
 40
20.28318530718101
 40
20.28318530718101
 40
20.28318530718101
 40
20.28318530718101
 41
1.0
 41
1.0
 41
1.0
 41
1.0
 41
1.0
 41
1.0
 41
1.0
 41
1.0
 41
1.0
 41
1.0
 41
1.0
 41
1.0
 41
1.0
 41
1.0
 41
1.0
 41
1.0
 41
0.8047378541244486
 41
0.8047378541244486
 41
1.0
 41
1.0
 41
1.0
 41
1.0
 41
0.8047378541243649
 41
0.8047378541243649
 41
0.9999999999999998
 41
1.0
 41
1.0
 41
1.0
 41
1.0
 41
1.0
 41
1.0
 41
1.0
 41
1.0
 41
1.0
 41
1.0
 41
1.0
 41
1.0
 41
1.0
 41
1.0
 41
1.0
 41
1.0
 41
1.0
 41
1.0
 41
0.9492530216740778
 41
0.9492530216740778
 41
1.0
 41
0.9492530216740778
 41
0.9492530216740778
 41
1.0
 41
1.0
 41
1.0
 41
1.0
 41
0.9492530216741911
 41
0.9492530216741911
 41
1.0
 41
0.9492530216741911
 41
0.9492530216741911
 41
1.0
 41
1.0
 41
1.0
 41
1.0
 10
2.309499122038687
 20
0.8486661290207707
 30
0.0
 10
2.309499122038687
 20
0.5323902615143368
 30
0.0
 10
2.408617764141325
 20
0.3031163283540934
 30
0.0
 10
2.607153000176538
 20
0.1613905745659565
 30
0.0
 10
2.754440521457325
 20
0.053780305309374
 30
0.0
 10
2.951634974257757
 20
5.68e-14
 30
0.0
 10
3.199381920876135
 20
5.68e-14
 30
0.0
 10
3.442361638214919
 20
5.68e-14
 30
0.0
 10
3.819221044485942
 20
0.053780305309374
 30
0.0
 10
3.96874320449146
 20
0.1613905745659565
 30
0.0
 10
4.169463420613254
 20
0.3031163283540934
 30
0.0
 10
4.269773870035663
 20
0.5323902615143368
 30
0.0
 10
4.269773870035663
 20
0.8486661290252754
 30
0.0
 10
4.269773870035663
 20
1.256024226724747
 30
0.0
 10
4.269773870035663
 20
1.66253812757624
 30
0.0
 10
4.269773870035663
 20
2.069896225279265
 30
0.0
 10
4.26977387003555
 20
2.093327682784348
 30
0.0
 10
4.253205327540655
 20
2.109896225279271
 30
0.0
 10
4.229773870035586
 20
2.109896225279257
 30
0.0
 10
4.142705702051813
 20
2.109896225279285
 30
0.0
 10
4.055637534067983
 20
2.109896225279285
 30
0.0
 10
3.968569366084153
 20
2.109896225279285
 30
0.0
 10
3.945137908579084
 20
2.109896225279328
 30
0.0
 10
3.92856936608419
 20
2.093327682784348
 30
0.0
 10
3.92856936608419
 20
2.069896225279293
 30
0.0
 10
3.928569366084133
 20
1.657537052937527
 30
0.0
 10
3.928569366084133
 20
1.246022077447321
 30
0.0
 10
3.928569366084133
 20
0.8336629051055837
 30
0.0
 10
3.928569366084133
 20
0.6876168497848881
 30
0.0
 10
3.878265165457918
 20
0.570968708352467
 30
0.0
 10
3.778054033312031
 20
0.4838674567252213
 30
0.0
 10
3.677644266612816
 20
0.3987028919927127
 30
0.0
 10
3.54480740908545
 20
0.3560461216690385
 30
0.0
 10
3.37994072983659
 20
0.3560461216690385
 30
0.0
 10
3.212591118671355
 20
0.3560461216690385
 30
0.0
 10
3.078810747015722
 20
0.3987028919927127
 30
0.0
 10
2.978450638954882
 20
0.4838674567252213
 30
0.0
 10
2.880325169618828
 20
0.570968708352467
 30
0.0
 10
2.83126243495073
 20
0.6876168497848881
 30
0.0
 10
2.83126243495073
 20
0.833662905107559
 30
0.0
 10
2.83126243495073
 20
1.246022077446696
 30
0.0
 10
2.83126243495073
 20
1.657537052937229
 30
0.0
 10
2.83126243495073
 20
2.069896225279293
 30
0.0
 10
2.831262434950787
 20
2.080646669361883
 30
0.0
 10
2.8271484181098
 20
2.090578784615217
 30
0.0
 10
2.819546706198224
 20
2.098180496526779
 30
0.0
 10
2.811944994286619
 20
2.105782208438341
 30
0.0
 10
2.802012879033298
 20
2.109896225279314
 30
0.0
 10
2.791262434950681
 20
2.109896225279314
 30
0.0
 10
2.644007997313366
 20
2.109896225279285
 30
0.0
 10
2.496753559676022
 20
2.109896225279285
 30
0.0
 10
2.349499122038679
 20
2.109896225279285
 30
0.0
 10
2.33874867795609
 20
2.109896225279356
 30
0.0
 10
2.328816562702797
 20
2.105782208438341
 30
0.0
 10
2.321214850791221
 20
2.098180496526765
 30
0.0
 10
2.313613138879645
 20
2.090578784615175
 30
0.0
 10
2.309499122038715
 20
2.080646669361854
 30
0.0
 10
2.309499122038715
 20
2.069896225279279
 30
0.0
 10
2.309499122038687
 20
1.662538127575942
 30
0.0
 10
2.309499122038687
 20
1.256024226724122
 30
0.0
 10
2.309499122038687
 20
0.8486661290207707
 30
0.0
  0
ENDBLK
  5
144
330
142
100
AcDbEntity
  8
0
100
AcDbBlockEnd
  0
ENDSEC
  0
SECTION
  2
ENTITIES
  0
INSERT
  5
2F
330
17
100
AcDbEntity
  8
0
100
AcDbBlockReference
  2
*U446
 10
38.01672820087697
 20
131.41356749364786
 30
0.0
  0
ENDSEC
  0
SECTION
  2
OBJECTS
  0
DICTIONARY
  5
A
330
0
100
AcDbDictionary
281
1
  3
ACAD_COLOR
350
B
  3
ACAD_GROUP
350
C
  3
ACAD_LAYOUT
350
D
  3
ACAD_MATERIAL
350
E
  3
ACAD_MLEADERSTYLE
350
F
  3
ACAD_MLINESTYLE
350
10
  3
ACAD_PLOTSETTINGS
350
11
  3
ACAD_PLOTSTYLENAME
350
12
  3
ACAD_SCALELIST
350
14
  3
ACAD_TABLESTYLE
350
15
  3
ACAD_VISUALSTYLE
350
16
  3
EZDXF_META
350
2D
  0
DICTIONARY
  5
B
330
A
100
AcDbDictionary
281
1
  0
DICTIONARY
  5
C
330
A
100
AcDbDictionary
281
1
  0
DICTIONARY
  5
D
330
A
100
AcDbDictionary
281
1
  3
Model
350
1A
  3
Layout1
350
1E
  0
DICTIONARY
  5
E
330
A
100
AcDbDictionary
281
1
  3
ByBlock
350
1F
  3
ByLayer
350
20
  3
Global
350
21
  0
DICTIONARY
  5
F
330
A
100
AcDbDictionary
281
1
  3
Standard
350
2C
  0
DICTIONARY
  5
10
330
A
100
AcDbDictionary
281
1
  3
Standard
350
22
  0
DICTIONARY
  5
11
330
A
100
AcDbDictionary
281
1
  0
ACDBDICTIONARYWDFLT
  5
12
330
A
100
AcDbDictionary
281
1
  3
Normal
350
13
100
AcDbDictionaryWithDefault
340
13
  0
ACDBPLACEHOLDER
  5
13
330
12
  0
DICTIONARY
  5
14
330
A
100
AcDbDictionary
281
1
  0
DICTIONARY
  5
15
330
A
100
AcDbDictionary
281
1
  0
DICTIONARY
  5
16
330
A
100
AcDbDictionary
281
1
  0
LAYOUT
  5
1A
330
D
100
AcDbPlotSettings
  1

  4
A3
  6

 40
7.5
 41
20.0
 42
7.5
 43
20.0
 44
420.0
 45
297.0
 46
0.0
 47
0.0
 48
0.0
 49
0.0
140
0.0
141
0.0
142
1.0
143
1.0
 70
1024
 72
1
 73
0
 74
5
  7

 75
16
 76
0
 77
2
 78
300
147
1.0
148
0.0
149
0.0
100
AcDbLayout
  1
Model
 70
1
 71
0
 10
0.0
 20
0.0
 11
420.0
 21
297.0
 12
0.0
 22
0.0
 32
0.0
 14
1e+20
 24
1e+20
 34
1e+20
 15
-1e+20
 25
-1e+20
 35
-1e+20
146
0.0
 13
0.0
 23
0.0
 33
0.0
 16
1.0
 26
0.0
 36
0.0
 17
0.0
 27
1.0
 37
0.0
 76
1
330
17
  0
LAYOUT
  5
1E
330
D
100
AcDbPlotSettings
  1

  4
A3
  6

 40
7.5
 41
20.0
 42
7.5
 43
20.0
 44
420.0
 45
297.0
 46
0.0
 47
0.0
 48
0.0
 49
0.0
140
0.0
141
0.0
142
1.0
143
1.0
 70
0
 72
1
 73
0
 74
5
  7

 75
16
 76
0
 77
2
 78
300
147
1.0
148
0.0
149
0.0
100
AcDbLayout
  1
Layout1
 70
1
 71
1
 10
0.0
 20
0.0
 11
420.0
 21
297.0
 12
0.0
 22
0.0
 32
0.0
 14
1e+20
 24
1e+20
 34
1e+20
 15
-1e+20
 25
-1e+20
 35
-1e+20
146
0.0
 13
0.0
 23
0.0
 33
0.0
 16
1.0
 26
0.0
 36
0.0
 17
0.0
 27
1.0
 37
0.0
 76
1
330
1B
  0
MATERIAL
  5
1F
102
{ACAD_REACTORS
330
E
102
}
330
E
100
AcDbMaterial
  1
ByBlock
  2

 70
0
 40
1.0
 71
1
 41
1.0
 91
-1023410177
 42
1.0
 72
1
  3

 73
1
 74
1
 75
1
 44
0.5
 73
0
 45
1.0
 46
1.0
 77
1
  4

 78
1
 79
1
170
1
 48
1.0
171
1
  6

172
1
173
1
174
1
140
1.0
141
1.0
175
1
  7

176
1
177
1
178
1
143
1.0
179
1
  8

270
1
271
1
272
1
145
1.0
146
1.0
273
1
  9

274
1
275
1
276
1
 42
1.0
 72
1
  3

 73
1
 74
1
 75
1
 94
63
  0
MATERIAL
  5
20
102
{ACAD_REACTORS
330
E
102
}
330
E
100
AcDbMaterial
  1
ByLayer
  2

 70
0
 40
1.0
 71
1
 41
1.0
 91
-1023410177
 42
1.0
 72
1
  3

 73
1
 74
1
 75
1
 44
0.5
 73
0
 45
1.0
 46
1.0
 77
1
  4

 78
1
 79
1
170
1
 48
1.0
171
1
  6

172
1
173
1
174
1
140
1.0
141
1.0
175
1
  7

176
1
177
1
178
1
143
1.0
179
1
  8

270
1
271
1
272
1
145
1.0
146
1.0
273
1
  9

274
1
275
1
276
1
 42
1.0
 72
1
  3

 73
1
 74
1
 75
1
 94
63
  0
MATERIAL
  5
21
102
{ACAD_REACTORS
330
E
102
}
330
E
100
AcDbMaterial
  1
Global
  2

 70
0
 40
1.0
 71
1
 41
1.0
 91
-1023410177
 42
1.0
 72
1
  3

 73
1
 74
1
 75
1
 44
0.5
 73
0
 45
1.0
 46
1.0
 77
1
  4

 78
1
 79
1
170
1
 48
1.0
171
1
  6

172
1
173
1
174
1
140
1.0
141
1.0
175
1
  7

176
1
177
1
178
1
143
1.0
179
1
  8

270
1
271
1
272
1
145
1.0
146
1.0
273
1
  9

274
1
275
1
276
1
 42
1.0
 72
1
  3

 73
1
 74
1
 75
1
 94
63
  0
MLINESTYLE
  5
22
102
{ACAD_REACTORS
330
10
102
}
330
10
100
AcDbMlineStyle
  2
Standard
 70
0
  3

 62
256
 51
90.0
 52
90.0
 71
2
 49
0.5
 62
256
  6
BYLAYER
 49
-0.5
 62
256
  6
BYLAYER
  0
MLEADERSTYLE
  5
2C
102
{ACAD_REACTORS
330
F
102
}
330
F
100
AcDbMLeaderStyle
179
2
170
2
171
1
172
0
 90
2
 40
0.0
 41
0.0
173
1
 91
-1056964608
 92
-2
290
1
 42
2.0
291
1
 43
8.0
  3
Standard
 44
4.0
300

342
29
174
1
175
1
176
0
178
1
 93
-1056964608
 45
4.0
292
0
297
0
 46
4.0
 94
-1056964608
 47
1.0
 49
1.0
140
1.0
294
1
141
0.0
177
0
142
1.0
295
0
296
0
143
3.75
271
0
272
9
273
9
  0
DICTIONARY
  5
2D
330
A
100
AcDbDictionary
280
1
281
1
  3
CREATED_BY_EZDXF
350
2E
  3
WRITTEN_BY_EZDXF
350
152
  0
DICTIONARYVAR
  5
2E
330
2D
100
DictionaryVariables
280
0
  1
1.4.4 @ 2026-09-23T14:03:42.474313+00:00
  0
DICTIONARYVAR
  5
152
330
2D
100
DictionaryVariables
280
0
  1
1.4.4 @ 2026-09-23T14:03:42.733981+00:00
  0
ENDSEC
  0
EOF
