  0
SECTION
  2
HEADER
  9
$ACADVER
  1
AC1032
  9
$ACADMAINTVER
 90
4
  9
$DWGCODEPAGE
  3
ANSI_1252
  9
$LASTSAVEDBY
  1
ezdxf
  9
$REQUIREDVERSIONS
160
0
  9
$INSBASE
 10
0.0
 20
0.0
 30
0.0
  9
$EXTMIN
 10
1e+20
 20
1e+20
 30
1e+20
  9
$EXTMAX
 10
-1e+20
 20
-1e+20
 30
-1e+20
  9
$LIMMIN
 10
0.0
 20
0.0
  9
$LIMMAX
 10
420.0
 20
297.0
  9
$ORTHOMODE
 70
0
  9
$REGENMODE
 70
1
  9
$FILLMODE
 70
1
  9
$QTEXTMODE
 70
0
  9
$MIRRTEXT
 70
1
  9
$LTSCALE
 40
1.0
  9
$ATTMODE
 70
1
  9
$TEXTSIZE
 40
2.5
  9
$TRACEWID
 40
1.0
  9
$TEXTSTYLE
  7
Standard
  9
$CLAYER
  8
0
  9
$CELTYPE
  6
ByLayer
  9
$CECOLOR
 62
256
  9
$CELTSCALE
 40
1.0
  9
$DISPSILH
 70
0
  9
$DIMSCALE
 40
1.0
  9
$DIMASZ
 40
2.5
  9
$DIMEXO
 40
0.625
  9
$DIMDLI
 40
3.75
  9
$DIMRND
 40
0.0
  9
$DIMDLE
 40
0.0
  9
$DIMEXE
 40
1.25
  9
$DIMTP
 40
0.0
  9
$DIMTM
 40
0.0
  9
$DIMTXT
 40
2.5
  9
$DIMCEN
 40
2.5
  9
$DIMTSZ
 40
0.0
  9
$DIMTOL
 70
0
  9
$DIMLIM
 70
0
  9
$DIMTIH
 70
0
  9
$DIMTOH
 70
0
  9
$DIMSE1
 70
0
  9
$DIMSE2
 70
0
  9
$DIMTAD
 70
1
  9
$DIMZIN
 70
8
  9
$DIMBLK
  1

  9
$DIMASO
 70
1
  9
$DIMSHO
 70
1
  9
$DIMPOST
  1

  9
$DIMAPOST
  1

  9
$DIMALT
 70
0
  9
$DIMALTD
 70
3
  9
$DIMALTF
 40
0.03937007874
  9
$DIMLFAC
 40
1.0
  9
$DIMTOFL
 70
1
  9
$DIMTVP
 40
0.0
  9
$DIMTIX
 70
0
  9
$DIMSOXD
 70
0
  9
$DIMSAH
 70
0
  9
$DIMBLK1
  1

  9
$DIMBLK2
  1

  9
$DIMSTYLE
  2
ISO-25
  9
$DIMCLRD
 70
0
  9
$DIMCLRE
 70
0
  9
$DIMCLRT
 70
0
  9
$DIMTFAC
 40
1.0
  9
$DIMGAP
 40
0.625
  9
$DIMJUST
 70
0
  9
$DIMSD1
 70
0
  9
$DIMSD2
 70
0
  9
$DIMTOLJ
 70
0
  9
$DIMTZIN
 70
8
  9
$DIMALTZ
 70
0
  9
$DIMALTTZ
 70
0
  9
$DIMUPT
 70
0
  9
$DIMDEC
 70
2
  9
$DIMTDEC
 70
2
  9
$DIMALTU
 70
2
  9
$DIMALTTD
 70
3
  9
$DIMTXSTY
  7
Standard
  9
$DIMAUNIT
 70
0
  9
$DIMADEC
 70
0
  9
$DIMALTRND
 40
0.0
  9
$DIMAZIN
 70
0
  9
$DIMDSEP
 70
44
  9
$DIMATFIT
 70
3
  9
$DIMFRAC
 70
0
  9
$DIMLDRBLK
  1

  9
$DIMLUNIT
 70
2
  9
$DIMLWD
 70
-2
  9
$DIMLWE
 70
-2
  9
$DIMTMOVE
 70
0
  9
$DIMFXL
 40
1.0
  9
$DIMFXLON
 70
0
  9
$DIMJOGANG
 40
0.785398163397
  9
$DIMTFILL
 70
0
  9
$DIMTFILLCLR
 70
0
  9
$DIMARCSYM
 70
0
  9
$DIMLTYPE
  6

  9
$DIMLTEX1
  6

  9
$DIMLTEX2
  6

  9
$DIMTXTDIRECTION
 70
0
  9
$LUNITS
 70
2
  9
$LUPREC
 70
4
  9
$SKETCHINC
 40
1.0
  9
$FILLETRAD
 40
10.0
  9
$AUNITS
 70
0
  9
$AUPREC
 70
2
  9
$MENU
  1
.
  9
$ELEVATION
 40
0.0
  9
$PELEVATION
 40
0.0
  9
$THICKNESS
 40
0.0
  9
$LIMCHECK
 70
0
  9
$CHAMFERA
 40
0.0
  9
$CHAMFERB
 40
0.0
  9
$CHAMFERC
 40
0.0
  9
$CHAMFERD
 40
0.0
  9
$SKPOLY
 70
0
  9
$TDCREATE
 40
2461307.877511574
  9
$TDUCREATE
 40
2458532.153996898
  9
$TDUPDATE
 40
2461307.877511574
  9
$TDUUPDATE
 40
2458532.1544311
  9
$TDINDWG
 40
0.0
  9
$TDUSRTIMER
 40
0.0
  9
$USRTIMER
 70
1
  9
$ANGBASE
 50
0.0
  9
$ANGDIR
 70
0
  9
$PDMODE
 70
0
  9
$PDSIZE
 40
0.0
  9
$PLINEWID
 40
0.0
  9
$SPLFRAME
 70
0
  9
$SPLINETYPE
 70
6
  9
$SPLINESEGS
 70
8
  9
$HANDSEED
  5
12D
  9
$SURFTAB1
 70
6
  9
$SURFTAB2
 70
6
  9
$SURFTYPE
 70
6
  9
$SURFU
 70
6
  9
$SURFV
 70
6
  9
$UCSBASE
  2

  9
$UCSNAME
  2

  9
$UCSORG
 10
0.0
 20
0.0
 30
0.0
  9
$UCSXDIR
 10
1.0
 20
0.0
 30
0.0
  9
$UCSYDIR
 10
0.0
 20
1.0
 30
0.0
  9
$UCSORTHOREF
  2

  9
$UCSORTHOVIEW
 70
0
  9
$UCSORGTOP
 10
0.0
 20
0.0
 30
0.0
  9
$UCSORGBOTTOM
 10
0.0
 20
0.0
 30
0.0
  9
$UCSORGLEFT
 10
0.0
 20
0.0
 30
0.0
  9
$UCSORGRIGHT
 10
0.0
 20
0.0
 30
0.0
  9
$UCSORGFRONT
 10
0.0
 20
0.0
 30
0.0
  9
$UCSORGBACK
 10
0.0
 20
0.0
 30
0.0
  9
$PUCSBASE
  2

  9
$PUCSNAME
  2

  9
$PUCSORG
 10
0.0
 20
0.0
 30
0.0
  9
$PUCSXDIR
 10
1.0
 20
0.0
 30
0.0
  9
$PUCSYDIR
 10
0.0
 20
1.0
 30
0.0
  9
$PUCSORTHOREF
  2

  9
$PUCSORTHOVIEW
 70
0
  9
$PUCSORGTOP
 10
0.0
 20
0.0
 30
0.0
  9
$PUCSORGBOTTOM
 10
0.0
 20
0.0
 30
0.0
  9
$PUCSORGLEFT
 10
0.0
 20
0.0
 30
0.0
  9
$PUCSORGRIGHT
 10
0.0
 20
0.0
 30
0.0
  9
$PUCSORGFRONT
 10
0.0
 20
0.0
 30
0.0
  9
$PUCSORGBACK
 10
0.0
 20
0.0
 30
0.0
  9
$USERI1
 70
0
  9
$USERI2
 70
0
  9
$USERI3
 70
0
  9
$USERI4
 70
0
  9
$USERI5
 70
0
  9
$USERR1
 40
0.0
  9
$USERR2
 40
0.0
  9
$USERR3
 40
0.0
  9
$USERR4
 40
0.0
  9
$USERR5
 40
0.0
  9
$WORLDVIEW
 70
1
  9
$SHADEDGE
 70
3
  9
$SHADEDIF
 70
70
  9
$TILEMODE
 70
1
  9
$MAXACTVP
 70
64
  9
$PINSBASE
 10
0.0
 20
0.0
 30
0.0
  9
$PLIMCHECK
 70
0
  9
$PEXTMIN
 10
1e+20
 20
1e+20
 30
1e+20
  9
$PEXTMAX
 10
-1e+20
 20
-1e+20
 30
-1e+20
  9
$PLIMMIN
 10
0.0
 20
0.0
  9
$PLIMMAX
 10
420.0
 20
297.0
  9
$UNITMODE
 70
0
  9
$VISRETAIN
 70
1
  9
$PLINEGEN
 70
0
  9
$PSLTSCALE
 70
1
  9
$TREEDEPTH
 70
3020
  9
$CMLSTYLE
  2
Standard
  9
$CMLJUST
 70
0
  9
$CMLSCALE
 40
20.0
  9
$PROXYGRAPHICS
 70
1
  9
$MEASUREMENT
 70
1
  9
$CELWEIGHT
370
-1
  9
$ENDCAPS
280
0
  9
$JOINSTYLE
280
0
  9
$LWDISPLAY
290
0
  9
$INSUNITS
 70
4
  9
$HYPERLINKBASE
  1

  9
$STYLESHEET
  1

  9
$XEDIT
290
1
  9
$CEPSNTYPE
380
0
  9
$PSTYLEMODE
290
1
  9
$FINGERPRINTGUID
  2
{CEFDD4A6-2C5A-494D-A463-0463443DAABC}
  9
$VERSIONGUID
  2
{CF236097-6BC7-4FE6-BA52-A6E1D4793A2D}
  9
$EXTNAMES
290
1
  9
$PSVPSCALE
 40
0.0
  9
$OLESTARTUP
290
0
  9
$SORTENTS
280
127
  9
$INDEXCTL
280
0
  9
$HIDETEXT
280
1
  9
$XCLIPFRAME
280
1
  9
$HALOGAP
280
0
  9
$OBSCOLOR
 70
257
  9
$OBSLTYPE
280
0
  9
$INTERSECTIONDISPLAY
280
0
  9
$INTERSECTIONCOLOR
 70
257
  9
$DIMASSOC
280
2
  9
$PROJECTNAME
  1

  9
$CAMERADISPLAY
290
0
  9
$LENSLENGTH
 40
50.0
  9
$CAMERAHEIGHT
 40
0.0
  9
$STEPSPERSEC
 40
24.0
  9
$STEPSIZE
 40
100.0
  9
$3DDWFPREC
 40
2.0
  9
$PSOLWIDTH
 40
0.005
  9
$PSOLHEIGHT
 40
0.08
  9
$LOFTANG1
 40
1.570796326795
  9
$LOFTANG2
 40
1.570796326795
  9
$LOFTMAG1
 40
0.0
  9
$LOFTMAG2
 40
0.0
  9
$LOFTPARAM
 70
7
  9
$LOFTNORMALS
280
1
  9
$LATITUDE
 40
37.795
  9
$LONGITUDE
 40
-122.394
  9
$NORTHDIRECTION
 40
0.0
  9
$TIMEZONE
 70
-8000
  9
$LIGHTGLYPHDISPLAY
280
1
  9
$TILEMODELIGHTSYNCH
280
1
  9
$CMATERIAL
347
20
  9
$SOLIDHIST
280
0
  9
$SHOWHIST
280
1
  9
$DWFFRAME
280
2
  9
$DGNFRAME
280
2
  9
$REALWORLDSCALE
290
1
  9
$INTERFERECOLOR
 62
256
  9
$CSHADOW
280
0
  9
$SHADOWPLANELOCATION
 40
0.0
  0
ENDSEC
  0
SECTION
  2
CLASSES
  0
CLASS
  1
ACDBDICTIONARYWDFLT
  2
AcDbDictionaryWithDefault
  3
ObjectDBX Classes
 90
0
 91
0
280
0
281
0
  0
CLASS
  1
SUN
  2
AcDbSun
  3
SCENEOE
 90
1153
 91
0
280
0
281
0
  0
CLASS
  1
VISUALSTYLE
  2
AcDbVisualStyle
  3
ObjectDBX Classes
 90
4095
 91
0
280
0
281
0
  0
CLASS
  1
MATERIAL
  2
AcDbMaterial
  3
ObjectDBX Classes
 90
1153
 91
0
280
0
281
0
  0
CLASS
  1
SCALE
  2
AcDbScale
  3
ObjectDBX Classes
 90
1153
 91
0
280
0
281
0
  0
CLASS
  1
TABLESTYLE
  2
AcDbTableStyle
  3
ObjectDBX Classes
 90
4095
 91
0
280
0
281
0
  0
CLASS
  1
MLEADERSTYLE
  2
AcDbMLeaderStyle
  3
ACDB_MLEADERSTYLE_CLASS
 90
4095
 91
0
280
0
281
0
  0
CLASS
  1
DICTIONARYVAR
  2
AcDbDictionaryVar
  3
ObjectDBX Classes
 90
0
 91
0
280
0
281
0
  0
CLASS
  1
CELLSTYLEMAP
  2
AcDbCellStyleMap
  3
ObjectDBX Classes
 90
1152
 91
0
280
0
281
0
  0
CLASS
  1
MENTALRAYRENDERSETTINGS
  2
AcDbMentalRayRenderSettings
  3
SCENEOE
 90
1024
 91
0
280
0
281
0
  0
CLASS
  1
ACDBDETAILVIEWSTYLE
  2
AcDbDetailViewStyle
  3
ObjectDBX Classes
 90
1025
 91
0
280
0
281
0
  0
CLASS
  1
ACDBSECTIONVIEWSTYLE
  2
AcDbSectionViewStyle
  3
ObjectDBX Classes
 90
1025
 91
0
280
0
281
0
  0
CLASS
  1
RASTERVARIABLES
  2
AcDbRasterVariables
  3
ISM
 90
0
 91
0
280
0
281
0
  0
CLASS
  1
LAYOUT
  2
AcDbLayout
  3
ObjectDBX Classes
 90
0
 91
0
280
0
281
0
  0
CLASS
  1
ACDBPLACEHOLDER
  2
AcDbPlaceHolder
  3
ObjectDBX Classes
 90
0
 91
0
280
0
281
0
  0
ENDSEC
  0
SECTION
  2
TABLES
  0
TABLE
  2
VPORT
  5
8
330
0
100
AcDbSymbolTable
 70
1
  0
VPORT
  5
23
330
8
100
AcDbSymbolTableRecord
100
AcDbViewportTableRecord
  2
*Active
 70
0
 10
0.0
 20
0.0
 11
1.0
 21
1.0
 12
0.0
 22
0.0
 13
0.0
 23
0.0
 14
0.5
 24
0.5
 15
0.5
 25
0.5
 16
0.0
 26
0.0
 36
1.0
 17
0.0
 27
0.0
 37
0.0
 40
1000.0
 41
1.34
 42
50.0
 43
0.0
 44
0.0
 50
0.0
 51
0.0
 71
0
 72
1000
 73
1
 74
3
 75
0
 76
0
 77
0
 78
0
281
0
 65
0
146
0.0
  0
ENDTAB
  0
TABLE
  2
LTYPE
  5
2
330
0
100
AcDbSymbolTable
 70
3
  0
LTYPE
  5
24
330
2
100
AcDbSymbolTableRecord
100
AcDbLinetypeTableRecord
  2
ByBlock
 70
0
  3

 72
65
 73
0
 40
0.0
  0
LTYPE
  5
25
330
2
100
AcDbSymbolTableRecord
100
AcDbLinetypeTableRecord
  2
ByLayer
 70
0
  3

 72
65
 73
0
 40
0.0
  0
LTYPE
  5
26
330
2
100
AcDbSymbolTableRecord
100
AcDbLinetypeTableRecord
  2
Continuous
 70
0
  3

 72
65
 73
0
 40
0.0
  0
ENDTAB
  0
TABLE
  2
LAYER
  5
1
330
0
100
AcDbSymbolTable
 70
2
  0
LAYER
  5
27
330
1
100
AcDbSymbolTableRecord
100
AcDbLayerTableRecord
  2
0
 70
0
 62
7
  6
Continuous
370
-3
390
13
347
21
  0
LAYER
  5
28
330
1
100
AcDbSymbolTableRecord
100
AcDbLayerTableRecord
  2
Defpoints
 70
0
 62
7
  6
Continuous
290
0
370
-3
390
13
347
21
  0
ENDTAB
  0
TABLE
  2
STYLE
  5
5
330
0
100
AcDbSymbolTable
 70
2
  0
STYLE
  5
29
330
5
100
AcDbSymbolTableRecord
100
AcDbTextStyleTableRecord
  2
Standard
 70
0
 40
0.0
 41
1.0
 50
0.0
 71
0
 42
2.5
  3
txt
  4

  0
STYLE
  5
129
330
5
100
AcDbSymbolTableRecord
100
AcDbTextStyleTableRecord
  2
ARIAL
 70
0
 40
0.0
 41
1.0
 50
0.0
 71
0
 42
10.0
  3
arial.ttf
  4

  0
ENDTAB
  0
TABLE
  2
VIEW
  5
7
330
0
100
AcDbSymbolTable
 70
0
  0
ENDTAB
  0
TABLE
  2
UCS
  5
6
330
0
100
AcDbSymbolTable
 70
0
  0
ENDTAB
  0
TABLE
  2
APPID
  5
3
330
0
100
AcDbSymbolTable
 70
3
  0
APPID
  5
2A
330
3
100
AcDbSymbolTableRecord
100
AcDbRegAppTableRecord
  2
ACAD
 70
0
  0
APPID
  5
12A
330
3
100
AcDbSymbolTableRecord
100
AcDbRegAppTableRecord
  2
HATCHBACKGROUNDCOLOR
 70
0
  0
APPID
  5
12B
330
3
100
AcDbSymbolTableRecord
100
AcDbRegAppTableRecord
  2
EZDXF
 70
0
  0
ENDTAB
  0
TABLE
  2
DIMSTYLE
  5
4
330
0
100
AcDbSymbolTable
 70
1
100
AcDbDimStyleTable
  0
DIMSTYLE
105
2B
330
4
100
AcDbSymbolTableRecord
100
AcDbDimStyleTableRecord
  2
Standard
 70
0
 40
1.0
 41
2.5
 42
0.625
 43
3.75
 44
1.25
 45
0.0
 46
0.0
 47
0.0
 48
0.0
 49
2.5
140
2.5
141
2.5
142
0.0
143
0.03937007874
144
1.0
145
0.0
146
1.0
147
0.625
148
0.0
 69
0
 70
0
 71
0
 72
0
 73
0
 74
0
 75
0
 76
0
 77
1
 78
8
 79
3
170
0
171
3
172
1
173
0
174
0
175
0
176
0
177
0
178
0
179
2
271
2
272
2
273
2
274
3
275
0
276
0
277
2
278
44
279
0
280
0
281
0
282
0
283
0
284
8
285
0
286
0
288
0
289
3
290
0
371
-2
372
-2
  0
ENDTAB
  0
TABLE
  2
BLOCK_RECORD
  5
9
330
0
100
AcDbSymbolTable
 70
3
  0
BLOCK_RECORD
  5
17
330
9
100
AcDbSymbolTableRecord
100
AcDbBlockTableRecord
  2
*Model_Space
340
1A
 70
0
280
1
281
0
  0
BLOCK_RECORD
  5
1B
330
9
100
AcDbSymbolTableRecord
100
AcDbBlockTableRecord
  2
*Paper_Space
340
1E
 70
0
280
1
281
0
  0
BLOCK_RECORD
  5
31
330
9
100
AcDbSymbolTableRecord
100
AcDbBlockTableRecord
  2
*U1909
340
0
 70
0
280
1
281
0
  0
ENDTAB
  0
ENDSEC
  0
SECTION
  2
BLOCKS
  0
BLOCK
  5
18
330
17
100
AcDbEntity
  8
0
100
AcDbBlockBegin
  2
*Model_Space
 70
0
 10
0.0
 20
0.0
 30
0.0
  3
*Model_Space
  1

  0
ENDBLK
  5
19
330
17
100
AcDbEntity
  8
0
100
AcDbBlockEnd
  0
BLOCK
  5
1C
330
1B
100
AcDbEntity
  8
0
100
AcDbBlockBegin
  2
*Paper_Space
 70
0
 10
0.0
 20
0.0
 30
0.0
  3
*Paper_Space
  1

  0
ENDBLK
  5
1D
330
1B
100
AcDbEntity
  8
0
100
AcDbBlockEnd
  0
BLOCK
  5
32
330
31
100
AcDbEntity
  8
0
100
AcDbBlockBegin
  2
*U1909
 70
1
 10
0.0
 20
0.0
 30
0.0
  3
*U1909
  1

  0
LWPOLYLINE
  5
34
330
31
100
AcDbEntity
  8
0
100
AcDbPolyline
 90
8
 70
1
 10
-36.00000000000728
 20
0.0
 10
36.00000000000728
 20
0.0
 42
0.4142135623730951
 10
37.00000000000728
 20
1.0
 10
37.00000000000728
 20
119.0
 42
0.4142135623730951
 10
36.00000000000728
 20
120.0
 10
-35.99999999999273
 20
120.0
 42
0.4142135623730951
 10
-36.99999999999273
 20
119.0
 10
-37.00000000000728
 20
1.0
 42
0.4142135623730951
  0
LWPOLYLINE
  5
35
330
31
100
AcDbEntity
  8
0
100
AcDbPolyline
 90
8
 70
1
 10
-20.99999999999273
 20
71.8520980590913
 10
21.00000000000727
 20
71.8520980590913
 42
0.4142135623730951
 10
22.00000000000728
 20
72.8520980590913
 10
22.00000000000728
 20
85.8520980590913
 42
0.4142135623730951
 10
21.00000000000727
 20
86.8520980590913
 10
-20.99999999999273
 20
86.8520980590913
 42
0.4142135623730951
 10
-21.99999999999272
 20
85.8520980590913
 10
-21.99999999999272
 20
72.8520980590913
 42
0.4142135623730951
  0
LWPOLYLINE
  5
36
330
31
100
AcDbEntity
  8
0
100
AcDbPolyline
 90
4
 70
0
 10
3.346400128801178
 20
81.73275682210102
 42
-0.1730033431015782
 10
3.523598600855621
 20
81.7959603703132
 10
5.164782011495844
 20
81.7959603703132
 42
-0.1730033431015092
 10
5.341980483535735
 20
81.73275682210102
  0
LWPOLYLINE
  5
37
330
31
100
AcDbEntity
  8
0
100
AcDbPolyline
 90
3
 70
0
 10
5.381578463282494
 20
81.69315884235425
 42
-0.1730033431016178
 10
5.44478201149468
 20
81.51596037031437
 10
5.44478201149468
 20
79.39510447723319
  0
LWPOLYLINE
  5
38
330
31
100
AcDbEntity
  8
0
100
AcDbPolyline
 90
4
 70
0
 10
5.341980483535735
 20
77.01500387394503
 42
-0.173003343101521
 10
5.164782011495844
 20
76.95180032573285
 10
3.523598600855621
 20
76.95180032573285
 42
-0.1600535475041646
 10
3.357547245301248
 20
77.00635200056445
 42
-0.1600535475041646
  0
LWPOLYLINE
  5
39
330
31
100
AcDbEntity
  8
0
100
AcDbPolyline
 90
3
 70
0
 10
3.298150275681109
 20
77.06574897017731
 42
-0.1600535475041259
 10
3.243598600856785
 20
77.23180032573168
 10
3.243598600856785
 20
79.3520980590913
  0
LWPOLYLINE
  5
3A
330
31
100
AcDbEntity
  8
0
100
AcDbPolyline
 90
4
 70
0
 10
4.862382011495355
 20
77.4950003257329
 42
-0.1622776601682571
 10
4.744782011497591
 20
77.45580032573366
 10
3.943598600839322
 20
77.45580032573366
 42
-0.1433289715803103
 10
3.837923528415558
 20
77.48672828367876
 42
-0.1433289715803103
  0
LWPOLYLINE
  5
3B
330
31
100
AcDbEntity
  8
0
100
AcDbPolyline
 90
3
 70
0
 10
3.778526558795419
 20
77.5461252532989
 42
-0.1433289715802567
 10
3.747598600843048
 20
77.65180032572994
 10
3.747598600843048
 20
79.06066028953524
  0
LWPOLYLINE
  5
3C
330
31
100
AcDbEntity
  8
0
100
AcDbPolyline
 90
4
 70
0
 10
3.826226165117986
 20
81.25293078578422
 42
-0.1619055040018182
 10
3.943598600839322
 20
81.29196037031964
 10
4.744782011497591
 20
81.29196037031964
 42
-0.1619055040018182
 10
4.862154447218927
 20
81.25293078578422
  0
LWPOLYLINE
  5
3D
330
31
100
AcDbEntity
  8
0
100
AcDbPolyline
 90
3
 70
0
 10
4.901752426965686
 20
81.21333280603744
 42
-0.1619055040017489
 10
4.940782011493865
 20
81.0959603703161
 10
4.940782011493865
 20
79.68701940097549
  0
LINE
  5
3E
330
31
100
AcDbEntity
  8
0
100
AcDbLine
 10
3.826226165117986
 20
81.25293078578422
 30
0.0
 11
3.345407691995205
 21
81.73374925892153
 31
0.0
  0
LINE
  5
3F
330
31
100
AcDbEntity
  8
0
100
AcDbLine
 10
4.901752426965686
 20
81.21333280603744
 30
0.0
 11
5.382570900088467
 21
81.69415127917478
 31
0.0
  0
LINE
  5
40
330
31
100
AcDbEntity
  8
0
100
AcDbLine
 10
4.862154447218927
 20
81.25293078578422
 30
0.0
 11
5.34297292035626
 21
81.73374925892153
 31
0.0
  0
LINE
  5
41
330
31
100
AcDbEntity
  8
0
100
AcDbLine
 10
3.837923528415558
 20
77.48672828367876
 30
0.0
 11
3.357547245301248
 21
77.00635200056445
 31
0.0
  0
LINE
  5
42
330
31
100
AcDbEntity
  8
0
100
AcDbLine
 10
3.778526558795419
 20
77.5461252532989
 30
0.0
 11
3.298150275681109
 21
77.06574897017731
 31
0.0
  0
LINE
  5
43
330
31
100
AcDbEntity
  8
0
100
AcDbLine
 10
4.862382011495355
 20
77.4950003257329
 30
0.0
 11
5.34297292035626
 21
77.01401143712451
 31
0.0
  0
LWPOLYLINE
  5
44
330
31
100
AcDbEntity
  8
0
100
AcDbPolyline
 90
2
 70
0
 10
4.940782011493865
 20
79.12188034802261
 10
3.747598600843048
 20
79.12188034802261
  0
LWPOLYLINE
  5
45
330
31
100
AcDbEntity
  8
0
100
AcDbPolyline
 90
2
 70
0
 10
3.747598600843048
 20
79.62588034802343
 10
4.940782011493865
 20
79.62588034802343
  0
LINE
  5
46
330
31
100
AcDbEntity
  8
0
100
AcDbLine
 10
3.747598600843048
 20
79.62588034802343
 30
0.0
 11
3.337973074558249
 21
79.37388034802302
 31
0.0
  0
LINE
  5
47
330
31
100
AcDbEntity
  8
0
100
AcDbLine
 10
3.337973074558249
 20
79.37388034802302
 30
0.0
 11
3.747598600843048
 21
79.12188034802261
 31
0.0
  0
LINE
  5
48
330
31
100
AcDbEntity
  8
0
100
AcDbLine
 10
3.243598600856785
 20
79.3520980590913
 30
0.0
 11
3.747598600843048
 21
79.06066028953524
 31
0.0
  0
LINE
  5
49
330
31
100
AcDbEntity
  8
0
100
AcDbLine
 10
4.940782011493865
 20
79.62588034802343
 30
0.0
 11
5.350407537778664
 21
79.37388034802302
 31
0.0
  0
LINE
  5
4A
330
31
100
AcDbEntity
  8
0
100
AcDbLine
 10
5.350407537778664
 20
79.37388034802302
 30
0.0
 11
4.940782011493865
 21
79.12188034802261
 31
0.0
  0
LINE
  5
4B
330
31
100
AcDbEntity
  8
0
100
AcDbLine
 10
4.940782011493865
 20
79.68701940097549
 30
0.0
 11
5.44478201149468
 21
79.39510447723319
 31
0.0
  0
LWPOLYLINE
  5
4C
330
31
100
AcDbEntity
  8
0
100
AcDbPolyline
 90
3
 70
0
 10
6.135732299873779
 20
79.39510447723319
 10
6.135732299873779
 20
81.51596037031437
 42
-0.1730033431015677
 10
6.198935848085966
 20
81.69315884235425
 42
-0.1730033431015677
  0
LWPOLYLINE
  5
4D
330
31
100
AcDbEntity
  8
0
100
AcDbPolyline
 90
4
 70
0
 10
6.238533827832725
 20
81.73275682210102
 42
-0.1730033431015782
 10
6.415732299887167
 20
81.7959603703132
 10
8.05691571051284
 20
81.7959603703132
 42
-0.1730033431015092
 10
8.234114182567282
 20
81.73275682210102
  0
LWPOLYLINE
  5
4E
330
31
100
AcDbEntity
  8
0
100
AcDbPolyline
 90
3
 70
0
 10
8.273712162314041
 20
81.69315884235425
 42
-0.1730033431016178
 10
8.336915710526227
 20
81.51596037031437
 10
8.336915710526227
 20
79.39510447723319
  0
LWPOLYLINE
  5
4F
330
31
100
AcDbEntity
  8
0
100
AcDbPolyline
 90
3
 70
0
 10
8.336915710526227
 20
79.3520980590913
 10
8.336915710526227
 20
77.23180032573168
 42
-0.1730033431016471
 10
8.273712162314041
 20
77.05460185369179
 42
-0.1730033431016471
  0
LWPOLYLINE
  5
50
330
31
100
AcDbEntity
  8
0
100
AcDbPolyline
 90
4
 70
0
 10
8.234114182567282
 20
77.01500387394503
 42
-0.173003343101521
 10
8.05691571051284
 20
76.95180032573285
 10
6.415732299887167
 20
76.95180032573285
 42
-0.1600535475041646
 10
6.249680944318242
 20
77.00635200056445
 42
-0.1600535475041646
  0
LWPOLYLINE
  5
51
330
31
100
AcDbEntity
  8
0
100
AcDbPolyline
 90
3
 70
0
 10
6.190283974712656
 20
77.06574897017731
 42
-0.1600535475041259
 10
6.135732299873779
 20
77.23180032573168
 10
6.135732299873779
 20
79.3520980590913
  0
LWPOLYLINE
  5
52
330
31
100
AcDbEntity
  8
0
100
AcDbPolyline
 90
3
 70
0
 10
7.832915710525412
 20
79.06066028953524
 10
7.832915710525412
 20
77.65180032572994
 42
-0.1616783592796193
 10
7.793989986246742
 20
77.53456691792258
 42
-0.1616783592796193
  0
LWPOLYLINE
  5
53
330
31
100
AcDbEntity
  8
0
100
AcDbPolyline
 90
4
 70
0
 10
7.754515710526902
 20
77.4950003257329
 42
-0.1622776601682571
 10
7.636915710529137
 20
77.45580032573366
 10
6.835732299870869
 20
77.45580032573366
 42
-0.1433289715803103
 10
6.730057227447105
 20
77.48672828367876
 42
-0.1433289715803103
  0
LWPOLYLINE
  5
54
330
31
100
AcDbEntity
  8
0
100
AcDbPolyline
 90
3
 70
0
 10
6.670660257826966
 20
77.5461252532989
 42
-0.1433289715802567
 10
6.639732299874594
 20
77.65180032572994
 10
6.639732299874594
 20
79.06066028953524
  0
LWPOLYLINE
  5
55
330
31
100
AcDbEntity
  8
0
100
AcDbPolyline
 90
3
 70
0
 10
6.639732299874594
 20
79.68701940097549
 10
6.639732299874594
 20
81.0959603703161
 42
-0.1619055040017489
 10
6.678761884402774
 20
81.21333280603744
 42
-0.1619055040017489
  0
LWPOLYLINE
  5
56
330
31
100
AcDbEntity
  8
0
100
AcDbPolyline
 90
4
 70
0
 10
6.718359864149533
 20
81.25293078578422
 42
-0.1619055040018182
 10
6.835732299870869
 20
81.29196037031964
 10
7.636915710529137
 20
81.29196037031964
 42
-0.1619055040018182
 10
7.754288146250473
 20
81.25293078578422
  0
LWPOLYLINE
  5
57
330
31
100
AcDbEntity
  8
0
100
AcDbPolyline
 90
3
 70
0
 10
7.793886125997232
 20
81.21333280603744
 42
-0.1619055040017489
 10
7.832915710525412
 20
81.0959603703161
 10
7.832915710525412
 20
79.68701940097549
  0
LINE
  5
58
330
31
100
AcDbEntity
  8
0
100
AcDbLine
 10
6.678761884402774
 20
81.21333280603744
 30
0.0
 11
6.197943411279993
 21
81.69415127917478
 31
0.0
  0
LINE
  5
59
330
31
100
AcDbEntity
  8
0
100
AcDbLine
 10
6.718359864149533
 20
81.25293078578422
 30
0.0
 11
6.237541391026752
 21
81.73374925892153
 31
0.0
  0
LINE
  5
5A
330
31
100
AcDbEntity
  8
0
100
AcDbLine
 10
7.793886125997232
 20
81.21333280603744
 30
0.0
 11
8.274704599120014
 21
81.69415127917478
 31
0.0
  0
LINE
  5
5B
330
31
100
AcDbEntity
  8
0
100
AcDbLine
 10
7.754288146250473
 20
81.25293078578422
 30
0.0
 11
8.235106619373253
 21
81.73374925892153
 31
0.0
  0
LINE
  5
5C
330
31
100
AcDbEntity
  8
0
100
AcDbLine
 10
6.730057227447105
 20
77.48672828367876
 30
0.0
 11
6.249680944318242
 21
77.00635200056445
 31
0.0
  0
LINE
  5
5D
330
31
100
AcDbEntity
  8
0
100
AcDbLine
 10
6.670660257826966
 20
77.5461252532989
 30
0.0
 11
6.190283974712656
 21
77.06574897017731
 31
0.0
  0
LINE
  5
5E
330
31
100
AcDbEntity
  8
0
100
AcDbLine
 10
7.754515710526902
 20
77.4950003257329
 30
0.0
 11
8.235106619373253
 21
77.01401143712451
 31
0.0
  0
LINE
  5
5F
330
31
100
AcDbEntity
  8
0
100
AcDbLine
 10
7.793989986246742
 20
77.53456691792258
 30
0.0
 11
8.274704599120014
 21
77.05360941687127
 31
0.0
  0
LINE
  5
60
330
31
100
AcDbEntity
  8
0
100
AcDbLine
 10
6.639732299874594
 20
79.68701940097549
 30
0.0
 11
6.135732299873779
 21
79.39510447723319
 31
0.0
  0
LINE
  5
61
330
31
100
AcDbEntity
  8
0
100
AcDbLine
 10
6.135732299873779
 20
79.3520980590913
 30
0.0
 11
6.639732299874594
 21
79.06066028953524
 31
0.0
  0
LINE
  5
62
330
31
100
AcDbEntity
  8
0
100
AcDbLine
 10
7.832915710525412
 20
79.68701940097549
 30
0.0
 11
8.336915710526227
 21
79.39510447723319
 31
0.0
  0
LINE
  5
63
330
31
100
AcDbEntity
  8
0
100
AcDbLine
 10
8.336915710526227
 20
79.3520980590913
 30
0.0
 11
7.832915710525412
 21
79.06066028953524
 31
0.0
  0
LWPOLYLINE
  5
64
330
31
100
AcDbEntity
  8
0
100
AcDbPolyline
 90
2
 70
0
 10
4.740782011496776
 20
79.12188034802261
 10
3.947598600840137
 20
79.12188034802261
  0
LWPOLYLINE
  5
65
330
31
100
AcDbEntity
  8
0
100
AcDbPolyline
 90
2
 70
0
 10
3.947598600840137
 20
79.62588034802343
 10
4.740782011496776
 20
79.62588034802343
  0
LWPOLYLINE
  5
66
330
31
100
AcDbEntity
  8
0
100
AcDbPolyline
 90
4
 70
0
 10
10.34640012880118
 20
81.73275682210102
 42
-0.1730033431015782
 10
10.52359860085562
 20
81.7959603703132
 10
12.16478201149584
 20
81.7959603703132
 42
-0.1730033431015092
 10
12.34198048353573
 20
81.73275682210102
  0
LWPOLYLINE
  5
67
330
31
100
AcDbEntity
  8
0
100
AcDbPolyline
 90
3
 70
0
 10
12.38157846328249
 20
81.69315884235425
 42
-0.1730033431016178
 10
12.44478201149468
 20
81.51596037031437
 10
12.44478201149468
 20
79.39510447723319
  0
LWPOLYLINE
  5
68
330
31
100
AcDbEntity
  8
0
100
AcDbPolyline
 90
4
 70
0
 10
12.34198048353573
 20
77.01500387394503
 42
-0.173003343101521
 10
12.16478201149584
 20
76.95180032573285
 10
10.52359860085562
 20
76.95180032573285
 42
-0.1600535475041646
 10
10.35754724530125
 20
77.00635200056445
 42
-0.1600535475041646
  0
LWPOLYLINE
  5
69
330
31
100
AcDbEntity
  8
0
100
AcDbPolyline
 90
3
 70
0
 10
10.29815027568111
 20
77.06574897017731
 42
-0.1600535475041259
 10
10.24359860085678
 20
77.23180032573168
 10
10.24359860085678
 20
79.3520980590913
  0
LWPOLYLINE
  5
6A
330
31
100
AcDbEntity
  8
0
100
AcDbPolyline
 90
4
 70
0
 10
11.86238201149535
 20
77.4950003257329
 42
-0.1622776601682571
 10
11.74478201149759
 20
77.45580032573366
 10
10.94359860083932
 20
77.45580032573366
 42
-0.1433289715803103
 10
10.83792352841556
 20
77.48672828367876
 42
-0.1433289715803103
  0
LWPOLYLINE
  5
6B
330
31
100
AcDbEntity
  8
0
100
AcDbPolyline
 90
3
 70
0
 10
10.77852655879542
 20
77.5461252532989
 42
-0.1433289715802567
 10
10.74759860084305
 20
77.65180032572994
 10
10.74759860084305
 20
79.06066028953524
  0
LWPOLYLINE
  5
6C
330
31
100
AcDbEntity
  8
0
100
AcDbPolyline
 90
4
 70
0
 10
10.82622616511798
 20
81.25293078578422
 42
-0.1619055040018182
 10
10.94359860083932
 20
81.29196037031964
 10
11.74478201149759
 20
81.29196037031964
 42
-0.1619055040018182
 10
11.86215444721892
 20
81.25293078578422
  0
LWPOLYLINE
  5
6D
330
31
100
AcDbEntity
  8
0
100
AcDbPolyline
 90
3
 70
0
 10
11.90175242696568
 20
81.21333280603744
 42
-0.1619055040017489
 10
11.94078201149386
 20
81.0959603703161
 10
11.94078201149386
 20
79.68701940097549
  0
LINE
  5
6E
330
31
100
AcDbEntity
  8
0
100
AcDbLine
 10
10.82622616511798
 20
81.25293078578422
 30
0.0
 11
10.3454076919952
 21
81.73374925892153
 31
0.0
  0
LINE
  5
6F
330
31
100
AcDbEntity
  8
0
100
AcDbLine
 10
11.90175242696568
 20
81.21333280603744
 30
0.0
 11
12.38257090008846
 21
81.69415127917478
 31
0.0
  0
LINE
  5
70
330
31
100
AcDbEntity
  8
0
100
AcDbLine
 10
11.86215444721892
 20
81.25293078578422
 30
0.0
 11
12.34297292035626
 21
81.73374925892153
 31
0.0
  0
LINE
  5
71
330
31
100
AcDbEntity
  8
0
100
AcDbLine
 10
10.83792352841556
 20
77.48672828367876
 30
0.0
 11
10.35754724530125
 21
77.00635200056445
 31
0.0
  0
LINE
  5
72
330
31
100
AcDbEntity
  8
0
100
AcDbLine
 10
10.77852655879542
 20
77.5461252532989
 30
0.0
 11
10.29815027568111
 21
77.06574897017731
 31
0.0
  0
LINE
  5
73
330
31
100
AcDbEntity
  8
0
100
AcDbLine
 10
11.86238201149535
 20
77.4950003257329
 30
0.0
 11
12.34297292035626
 21
77.01401143712451
 31
0.0
  0
LWPOLYLINE
  5
74
330
31
100
AcDbEntity
  8
0
100
AcDbPolyline
 90
2
 70
0
 10
11.94078201149386
 20
79.12188034802261
 10
10.74759860084305
 20
79.12188034802261
  0
LWPOLYLINE
  5
75
330
31
100
AcDbEntity
  8
0
100
AcDbPolyline
 90
2
 70
0
 10
10.74759860084305
 20
79.62588034802343
 10
11.94078201149386
 20
79.62588034802343
  0
LINE
  5
76
330
31
100
AcDbEntity
  8
0
100
AcDbLine
 10
10.74759860084305
 20
79.62588034802343
 30
0.0
 11
10.33797307455825
 21
79.37388034802302
 31
0.0
  0
LINE
  5
77
330
31
100
AcDbEntity
  8
0
100
AcDbLine
 10
10.33797307455825
 20
79.37388034802302
 30
0.0
 11
10.74759860084305
 21
79.12188034802261
 31
0.0
  0
LINE
  5
78
330
31
100
AcDbEntity
  8
0
100
AcDbLine
 10
10.24359860085678
 20
79.3520980590913
 30
0.0
 11
10.74759860084305
 21
79.06066028953524
 31
0.0
  0
LINE
  5
79
330
31
100
AcDbEntity
  8
0
100
AcDbLine
 10
11.94078201149386
 20
79.62588034802343
 30
0.0
 11
12.35040753777866
 21
79.37388034802302
 31
0.0
  0
LINE
  5
7A
330
31
100
AcDbEntity
  8
0
100
AcDbLine
 10
12.35040753777866
 20
79.37388034802302
 30
0.0
 11
11.94078201149386
 21
79.12188034802261
 31
0.0
  0
LINE
  5
7B
330
31
100
AcDbEntity
  8
0
100
AcDbLine
 10
11.94078201149386
 20
79.68701940097549
 30
0.0
 11
12.44478201149468
 21
79.39510447723319
 31
0.0
  0
LWPOLYLINE
  5
7C
330
31
100
AcDbEntity
  8
0
100
AcDbPolyline
 90
3
 70
0
 10
13.13573229987378
 20
79.39510447723319
 10
13.13573229987378
 20
81.51596037031437
 42
-0.1730033431015677
 10
13.19893584808596
 20
81.69315884235425
 42
-0.1730033431015677
  0
LWPOLYLINE
  5
7D
330
31
100
AcDbEntity
  8
0
100
AcDbPolyline
 90
4
 70
0
 10
13.23853382783272
 20
81.73275682210102
 42
-0.1730033431015782
 10
13.41573229988717
 20
81.7959603703132
 10
15.05691571051284
 20
81.7959603703132
 42
-0.1730033431015092
 10
15.23411418256728
 20
81.73275682210102
  0
LWPOLYLINE
  5
7E
330
31
100
AcDbEntity
  8
0
100
AcDbPolyline
 90
3
 70
0
 10
15.27371216231404
 20
81.69315884235425
 42
-0.1730033431016178
 10
15.33691571052623
 20
81.51596037031437
 10
15.33691571052623
 20
79.39510447723319
  0
LWPOLYLINE
  5
7F
330
31
100
AcDbEntity
  8
0
100
AcDbPolyline
 90
3
 70
0
 10
15.33691571052623
 20
79.3520980590913
 10
15.33691571052623
 20
77.23180032573168
 42
-0.1730033431016471
 10
15.27371216231404
 20
77.05460185369179
 42
-0.1730033431016471
  0
LWPOLYLINE
  5
80
330
31
100
AcDbEntity
  8
0
100
AcDbPolyline
 90
4
 70
0
 10
15.23411418256728
 20
77.01500387394503
 42
-0.173003343101521
 10
15.05691571051284
 20
76.95180032573285
 10
13.41573229988717
 20
76.95180032573285
 42
-0.1600535475041646
 10
13.24968094431824
 20
77.00635200056445
 42
-0.1600535475041646
  0
LWPOLYLINE
  5
81
330
31
100
AcDbEntity
  8
0
100
AcDbPolyline
 90
3
 70
0
 10
13.19028397471265
 20
77.06574897017731
 42
-0.1600535475041259
 10
13.13573229987378
 20
77.23180032573168
 10
13.13573229987378
 20
79.3520980590913
  0
LWPOLYLINE
  5
82
330
31
100
AcDbEntity
  8
0
100
AcDbPolyline
 90
3
 70
0
 10
14.83291571052541
 20
79.06066028953524
 10
14.83291571052541
 20
77.65180032572994
 42
-0.1616783592796193
 10
14.79398998624674
 20
77.53456691792258
 42
-0.1616783592796193
  0
LWPOLYLINE
  5
83
330
31
100
AcDbEntity
  8
0
100
AcDbPolyline
 90
4
 70
0
 10
14.7545157105269
 20
77.4950003257329
 42
-0.1622776601682571
 10
14.63691571052914
 20
77.45580032573366
 10
13.83573229987087
 20
77.45580032573366
 42
-0.1433289715803103
 10
13.7300572274471
 20
77.48672828367876
 42
-0.1433289715803103
  0
LWPOLYLINE
  5
84
330
31
100
AcDbEntity
  8
0
100
AcDbPolyline
 90
3
 70
0
 10
13.67066025782696
 20
77.5461252532989
 42
-0.1433289715802567
 10
13.63973229987459
 20
77.65180032572994
 10
13.63973229987459
 20
79.06066028953524
  0
LWPOLYLINE
  5
85
330
31
100
AcDbEntity
  8
0
100
AcDbPolyline
 90
3
 70
0
 10
13.63973229987459
 20
79.68701940097549
 10
13.63973229987459
 20
81.0959603703161
 42
-0.1619055040017489
 10
13.67876188440277
 20
81.21333280603744
 42
-0.1619055040017489
  0
LWPOLYLINE
  5
86
330
31
100
AcDbEntity
  8
0
100
AcDbPolyline
 90
4
 70
0
 10
13.71835986414953
 20
81.25293078578422
 42
-0.1619055040018182
 10
13.83573229987087
 20
81.29196037031964
 10
14.63691571052914
 20
81.29196037031964
 42
-0.1619055040018182
 10
14.75428814625047
 20
81.25293078578422
  0
LWPOLYLINE
  5
87
330
31
100
AcDbEntity
  8
0
100
AcDbPolyline
 90
3
 70
0
 10
14.79388612599723
 20
81.21333280603744
 42
-0.1619055040017489
 10
14.83291571052541
 20
81.0959603703161
 10
14.83291571052541
 20
79.68701940097549
  0
LINE
  5
88
330
31
100
AcDbEntity
  8
0
100
AcDbLine
 10
13.67876188440277
 20
81.21333280603744
 30
0.0
 11
13.19794341127999
 21
81.69415127917478
 31
0.0
  0
LINE
  5
89
330
31
100
AcDbEntity
  8
0
100
AcDbLine
 10
13.71835986414953
 20
81.25293078578422
 30
0.0
 11
13.23754139102675
 21
81.73374925892153
 31
0.0
  0
LINE
  5
8A
330
31
100
AcDbEntity
  8
0
100
AcDbLine
 10
14.79388612599723
 20
81.21333280603744
 30
0.0
 11
15.27470459912001
 21
81.69415127917478
 31
0.0
  0
LINE
  5
8B
330
31
100
AcDbEntity
  8
0
100
AcDbLine
 10
14.75428814625047
 20
81.25293078578422
 30
0.0
 11
15.23510661937325
 21
81.73374925892153
 31
0.0
  0
LINE
  5
8C
330
31
100
AcDbEntity
  8
0
100
AcDbLine
 10
13.7300572274471
 20
77.48672828367876
 30
0.0
 11
13.24968094431824
 21
77.00635200056445
 31
0.0
  0
LINE
  5
8D
330
31
100
AcDbEntity
  8
0
100
AcDbLine
 10
13.67066025782696
 20
77.5461252532989
 30
0.0
 11
13.19028397471265
 21
77.06574897017731
 31
0.0
  0
LINE
  5
8E
330
31
100
AcDbEntity
  8
0
100
AcDbLine
 10
14.7545157105269
 20
77.4950003257329
 30
0.0
 11
15.23510661937325
 21
77.01401143712451
 31
0.0
  0
LINE
  5
8F
330
31
100
AcDbEntity
  8
0
100
AcDbLine
 10
14.79398998624674
 20
77.53456691792258
 30
0.0
 11
15.27470459912001
 21
77.05360941687127
 31
0.0
  0
LINE
  5
90
330
31
100
AcDbEntity
  8
0
100
AcDbLine
 10
13.63973229987459
 20
79.68701940097549
 30
0.0
 11
13.13573229987378
 21
79.39510447723319
 31
0.0
  0
LINE
  5
91
330
31
100
AcDbEntity
  8
0
100
AcDbLine
 10
13.13573229987378
 20
79.3520980590913
 30
0.0
 11
13.63973229987459
 21
79.06066028953524
 31
0.0
  0
LINE
  5
92
330
31
100
AcDbEntity
  8
0
100
AcDbLine
 10
14.83291571052541
 20
79.68701940097549
 30
0.0
 11
15.33691571052623
 21
79.39510447723319
 31
0.0
  0
LINE
  5
93
330
31
100
AcDbEntity
  8
0
100
AcDbLine
 10
15.33691571052623
 20
79.3520980590913
 30
0.0
 11
14.83291571052541
 21
79.06066028953524
 31
0.0
  0
LWPOLYLINE
  5
94
330
31
100
AcDbEntity
  8
0
100
AcDbPolyline
 90
2
 70
0
 10
11.74078201149677
 20
79.12188034802261
 10
10.94759860084014
 20
79.12188034802261
  0
LWPOLYLINE
  5
95
330
31
100
AcDbEntity
  8
0
100
AcDbPolyline
 90
2
 70
0
 10
10.94759860084014
 20
79.62588034802343
 10
11.74078201149677
 20
79.62588034802343
  0
LWPOLYLINE
  5
96
330
31
100
AcDbEntity
  8
0
100
AcDbPolyline
 90
4
 70
0
 10
17.28994339844939
 20
78.38268236031604
 42
-0.1730033431015782
 10
17.34310294007446
 20
78.4016434247826
 10
17.83545796326507
 20
78.4016434247826
 42
-0.1730033431015092
 10
17.88861750487558
 20
78.38268236031604
  0
LWPOLYLINE
  5
97
330
31
100
AcDbEntity
  8
0
100
AcDbPolyline
 90
3
 70
0
 10
17.90049689880834
 20
78.37080296639056
 42
-0.1730033431016178
 10
17.91945796326763
 20
78.31764342478004
 10
17.91945796326763
 20
77.6813866568557
  0
LWPOLYLINE
  5
98
330
31
100
AcDbEntity
  8
0
100
AcDbPolyline
 90
4
 70
0
 10
17.88861750487558
 20
76.9673564758707
 42
-0.173003343101521
 10
17.83545796326507
 20
76.94839541140414
 10
17.34310294007446
 20
76.94839541140414
 42
-0.1600535475041646
 10
17.29328753340087
 20
76.9647609138558
 42
-0.1600535475041646
  0
LWPOLYLINE
  5
99
330
31
100
AcDbEntity
  8
0
100
AcDbPolyline
 90
3
 70
0
 10
17.27546844252356
 20
76.98258000474038
 42
-0.1600535475041259
 10
17.2591029400719
 20
77.0323954114067
 10
17.2591029400719
 20
77.6684847314175
  0
LWPOLYLINE
  5
9A
330
31
100
AcDbEntity
  8
0
100
AcDbPolyline
 90
4
 70
0
 10
17.74473796325765
 20
77.11135541140561
 42
-0.1622776601682571
 10
17.70945796326123
 20
77.09959541140438
 10
17.46910294006375
 20
77.09959541140438
 42
-0.1433289715803103
 10
17.43740041834098
 20
77.10887379878864
 42
-0.1433289715803103
  0
LWPOLYLINE
  5
9B
330
31
100
AcDbEntity
  8
0
100
AcDbPolyline
 90
3
 70
0
 10
17.41958132744912
 20
77.1266928896805
 42
-0.1433289715802567
 10
17.41030294006487
 20
77.15839541140326
 10
17.41030294006487
 20
77.5810534005434
  0
LWPOLYLINE
  5
9C
330
31
100
AcDbEntity
  8
0
100
AcDbPolyline
 90
4
 70
0
 10
17.43389120934444
 20
78.238734549421
 42
-0.1619055040018182
 10
17.46910294006375
 20
78.25044342478236
 10
17.70945796326123
 20
78.25044342478236
 42
-0.1619055040018182
 10
17.74466969398054
 20
78.238734549421
  0
LWPOLYLINE
  5
9D
330
31
100
AcDbEntity
  8
0
100
AcDbPolyline
 90
3
 70
0
 10
17.7565490879133
 20
78.22685515549551
 42
-0.1619055040017489
 10
17.76825796326011
 20
78.19164342478348
 10
17.76825796326011
 20
77.76896113398129
  0
LINE
  5
9E
330
31
100
AcDbEntity
  8
0
100
AcDbLine
 10
17.43389120934444
 20
78.238734549421
 30
0.0
 11
17.28964566741342
 21
78.38298009136656
 31
0.0
  0
LINE
  5
9F
330
31
100
AcDbEntity
  8
0
100
AcDbLine
 10
17.7565490879133
 20
78.22685515549551
 30
0.0
 11
17.90079462984431
 21
78.37110069744108
 31
0.0
  0
LINE
  5
A0
330
31
100
AcDbEntity
  8
0
100
AcDbLine
 10
17.74466969398054
 20
78.238734549421
 30
0.0
 11
17.8889152359261
 21
78.38298009136656
 31
0.0
  0
LINE
  5
A1
330
31
100
AcDbEntity
  8
0
100
AcDbLine
 10
17.43740041834098
 20
77.10887379878864
 30
0.0
 11
17.29328753340087
 21
76.9647609138558
 31
0.0
  0
LINE
  5
A2
330
31
100
AcDbEntity
  8
0
100
AcDbLine
 10
17.41958132744912
 20
77.1266928896805
 30
0.0
 11
17.27546844252356
 21
76.98258000474038
 31
0.0
  0
LINE
  5
A3
330
31
100
AcDbEntity
  8
0
100
AcDbLine
 10
17.74473796325765
 20
77.11135541140561
 30
0.0
 11
17.8889152359261
 21
76.96705874482018
 31
0.0
  0
LWPOLYLINE
  5
A4
330
31
100
AcDbEntity
  8
0
100
AcDbPolyline
 90
2
 70
0
 10
17.76825796326011
 20
77.59941941809689
 10
17.41030294006487
 20
77.59941941809689
  0
LWPOLYLINE
  5
A5
330
31
100
AcDbEntity
  8
0
100
AcDbPolyline
 90
2
 70
0
 10
17.41030294006487
 20
77.75061941808985
 10
17.76825796326011
 20
77.75061941808985
  0
LINE
  5
A6
330
31
100
AcDbEntity
  8
0
100
AcDbLine
 10
17.41030294006487
 20
77.75061941808985
 30
0.0
 11
17.28741528218234
 21
77.67501941809337
 31
0.0
  0
LINE
  5
A7
330
31
100
AcDbEntity
  8
0
100
AcDbLine
 10
17.28741528218234
 20
77.67501941809337
 30
0.0
 11
17.41030294006487
 21
77.59941941809689
 31
0.0
  0
LINE
  5
A8
330
31
100
AcDbEntity
  8
0
100
AcDbLine
 10
17.2591029400719
 20
77.6684847314175
 30
0.0
 11
17.41030294006487
 21
77.5810534005434
 31
0.0
  0
LINE
  5
A9
330
31
100
AcDbEntity
  8
0
100
AcDbLine
 10
17.76825796326011
 20
77.75061941808985
 30
0.0
 11
17.89114562114264
 21
77.67501941809337
 31
0.0
  0
LINE
  5
AA
330
31
100
AcDbEntity
  8
0
100
AcDbLine
 10
17.89114562114264
 20
77.67501941809337
 30
0.0
 11
17.76825796326011
 21
77.59941941809689
 31
0.0
  0
LINE
  5
AB
330
31
100
AcDbEntity
  8
0
100
AcDbLine
 10
17.76825796326011
 20
77.76896113398129
 30
0.0
 11
17.91945796326763
 21
77.6813866568557
 31
0.0
  0
LWPOLYLINE
  5
AC
330
31
100
AcDbEntity
  8
0
100
AcDbPolyline
 90
3
 70
0
 10
18.12674304977554
 20
77.6813866568557
 10
18.12674304977554
 20
78.31764342478004
 42
-0.1730033431015677
 10
18.14570411423483
 20
78.37080296639056
 42
-0.1730033431015677
  0
LWPOLYLINE
  5
AD
330
31
100
AcDbEntity
  8
0
100
AcDbPolyline
 90
4
 70
0
 10
18.15758350816759
 20
78.38268236031604
 42
-0.1730033431015782
 10
18.2107430497781
 20
78.4016434247826
 10
18.70309807296871
 20
78.4016434247826
 42
-0.1730033431015092
 10
18.75625761459378
 20
78.38268236031604
  0
LWPOLYLINE
  5
AE
330
31
100
AcDbEntity
  8
0
100
AcDbPolyline
 90
3
 70
0
 10
18.76813700851198
 20
78.37080296639056
 42
-0.1730033431016178
 10
18.78709807297127
 20
78.31764342478004
 10
18.78709807297127
 20
77.6813866568557
  0
LWPOLYLINE
  5
AF
330
31
100
AcDbEntity
  8
0
100
AcDbPolyline
 90
3
 70
0
 10
18.78709807297127
 20
77.6684847314175
 10
18.78709807297127
 20
77.0323954114067
 42
-0.1730033431016471
 10
18.76813700851198
 20
76.97923586979618
 42
-0.1730033431016471
  0
LWPOLYLINE
  5
B0
330
31
100
AcDbEntity
  8
0
100
AcDbPolyline
 90
4
 70
0
 10
18.75625761459378
 20
76.9673564758707
 42
-0.173003343101521
 10
18.70309807296871
 20
76.94839541140414
 10
18.2107430497781
 20
76.94839541140414
 42
-0.1600535475041646
 10
18.16092764310451
 20
76.9647609138558
 42
-0.1600535475041646
  0
LWPOLYLINE
  5
B1
330
31
100
AcDbEntity
  8
0
100
AcDbPolyline
 90
3
 70
0
 10
18.1431085522272
 20
76.98258000474038
 42
-0.1600535475041259
 10
18.12674304977554
 20
77.0323954114067
 10
18.12674304977554
 20
77.6684847314175
  0
LWPOLYLINE
  5
B2
330
31
100
AcDbEntity
  8
0
100
AcDbPolyline
 90
3
 70
0
 10
18.63589807297831
 20
77.5810534005434
 10
18.63589807297831
 20
77.15839541140326
 42
-0.1616783592796193
 10
18.62422035568306
 20
77.12322538906324
 42
-0.1616783592796193
  0
LWPOLYLINE
  5
B3
330
31
100
AcDbEntity
  8
0
100
AcDbPolyline
 90
4
 70
0
 10
18.61237807297584
 20
77.11135541140561
 42
-0.1622776601682571
 10
18.57709807297942
 20
77.09959541140438
 10
18.33674304978194
 20
77.09959541140438
 42
-0.1433289715803103
 10
18.30504052804463
 20
77.10887379878864
 42
-0.1433289715803103
  0
LWPOLYLINE
  5
B4
330
31
100
AcDbEntity
  8
0
100
AcDbPolyline
 90
3
 70
0
 10
18.28722143716731
 20
77.1266928896805
 42
-0.1433289715802567
 10
18.27794304978306
 20
77.15839541140326
 10
18.27794304978306
 20
77.5810534005434
  0
LWPOLYLINE
  5
B5
330
31
100
AcDbEntity
  8
0
100
AcDbPolyline
 90
3
 70
0
 10
18.27794304978306
 20
77.76896113398129
 10
18.27794304978306
 20
78.19164342478348
 42
-0.1619055040017489
 10
18.28965192512987
 20
78.22685515549551
 42
-0.1619055040017489
  0
LWPOLYLINE
  5
B6
330
31
100
AcDbEntity
  8
0
100
AcDbPolyline
 90
4
 70
0
 10
18.30153131906263
 20
78.238734549421
 42
-0.1619055040018182
 10
18.33674304978194
 20
78.25044342478236
 10
18.57709807297942
 20
78.25044342478236
 42
-0.1619055040018182
 10
18.61230980369873
 20
78.238734549421
  0
LWPOLYLINE
  5
B7
330
31
100
AcDbEntity
  8
0
100
AcDbPolyline
 90
3
 70
0
 10
18.62418919761694
 20
78.22685515549551
 42
-0.1619055040017489
 10
18.63589807297831
 20
78.19164342478348
 10
18.63589807297831
 20
77.76896113398129
  0
LINE
  5
B8
330
31
100
AcDbEntity
  8
0
100
AcDbLine
 10
18.28965192512987
 20
78.22685515549551
 30
0.0
 11
18.14540638319886
 21
78.37110069744108
 31
0.0
  0
LINE
  5
B9
330
31
100
AcDbEntity
  8
0
100
AcDbLine
 10
18.30153131906263
 20
78.238734549421
 30
0.0
 11
18.15728577713162
 21
78.38298009136656
 31
0.0
  0
LINE
  5
BA
330
31
100
AcDbEntity
  8
0
100
AcDbLine
 10
18.62418919761694
 20
78.22685515549551
 30
0.0
 11
18.76843473954795
 21
78.37110069744108
 31
0.0
  0
LINE
  5
BB
330
31
100
AcDbEntity
  8
0
100
AcDbLine
 10
18.61230980369873
 20
78.238734549421
 30
0.0
 11
18.75655534562975
 21
78.38298009136656
 31
0.0
  0
LINE
  5
BC
330
31
100
AcDbEntity
  8
0
100
AcDbLine
 10
18.30504052804463
 20
77.10887379878864
 30
0.0
 11
18.16092764310451
 21
76.9647609138558
 31
0.0
  0
LINE
  5
BD
330
31
100
AcDbEntity
  8
0
100
AcDbLine
 10
18.28722143716731
 20
77.1266928896805
 30
0.0
 11
18.1431085522272
 21
76.98258000474038
 31
0.0
  0
LINE
  5
BE
330
31
100
AcDbEntity
  8
0
100
AcDbLine
 10
18.61237807297584
 20
77.11135541140561
 30
0.0
 11
18.75655534562975
 21
76.96705874482018
 31
0.0
  0
LINE
  5
BF
330
31
100
AcDbEntity
  8
0
100
AcDbLine
 10
18.62422035568306
 20
77.12322538906324
 30
0.0
 11
18.76843473954795
 21
76.97893813874566
 31
0.0
  0
LINE
  5
C0
330
31
100
AcDbEntity
  8
0
100
AcDbLine
 10
18.27794304978306
 20
77.76896113398129
 30
0.0
 11
18.12674304977554
 21
77.6813866568557
 31
0.0
  0
LINE
  5
C1
330
31
100
AcDbEntity
  8
0
100
AcDbLine
 10
18.12674304977554
 20
77.6684847314175
 30
0.0
 11
18.27794304978306
 21
77.5810534005434
 31
0.0
  0
LINE
  5
C2
330
31
100
AcDbEntity
  8
0
100
AcDbLine
 10
18.63589807297831
 20
77.76896113398129
 30
0.0
 11
18.78709807297127
 21
77.6813866568557
 31
0.0
  0
LINE
  5
C3
330
31
100
AcDbEntity
  8
0
100
AcDbLine
 10
18.78709807297127
 20
77.6684847314175
 30
0.0
 11
18.63589807297831
 21
77.5810534005434
 31
0.0
  0
LWPOLYLINE
  5
C4
330
31
100
AcDbEntity
  8
0
100
AcDbPolyline
 90
2
 70
0
 10
17.70825796326244
 20
77.59941941809689
 10
17.47030294006254
 20
77.59941941809689
  0
LWPOLYLINE
  5
C5
330
31
100
AcDbEntity
  8
0
100
AcDbPolyline
 90
2
 70
0
 10
17.47030294006254
 20
77.75061941808985
 10
17.70825796326244
 20
77.75061941808985
  0
LWPOLYLINE
  5
C6
330
31
100
AcDbEntity
  8
0
100
AcDbPolyline
 90
4
 70
1
 10
9.23808093721891
 20
79.77388034802448
 10
9.438080937216
 20
79.77388034802448
 10
9.438080937216
 20
79.97388034802157
 10
9.23808093721891
 20
79.97388034802157
  0
LWPOLYLINE
  5
C7
330
31
100
AcDbEntity
  8
0
100
AcDbPolyline
 90
4
 70
1
 10
9.23808093721891
 20
78.77388034802448
 10
9.438080937216
 20
78.77388034802448
 10
9.438080937216
 20
78.97388034802157
 10
9.23808093721891
 20
78.97388034802157
  0
LWPOLYLINE
  5
C8
330
31
100
AcDbEntity
  8
0
100
AcDbPolyline
 90
4
 70
1
 10
9.23808093721891
 20
78.77388034802448
 10
9.438080937216
 20
78.77388034802448
 10
9.438080937216
 20
78.97388034802157
 10
9.23808093721891
 20
78.97388034802157
  0
LWPOLYLINE
  5
C9
330
31
100
AcDbEntity
  8
0
100
AcDbPolyline
 90
4
 70
0
 10
-18.64815375493344
 20
78.38268236031604
 42
-0.1730033431015782
 10
-18.59499421330838
 20
78.4016434247826
 10
-18.10263919011777
 20
78.4016434247826
 42
-0.1730033431015092
 10
-18.04947964850726
 20
78.38268236031604
  0
LWPOLYLINE
  5
CA
330
31
100
AcDbEntity
  8
0
100
AcDbPolyline
 90
3
 70
0
 10
-18.0376002545745
 20
78.37080296639056
 42
-0.1730033431016178
 10
-18.01863919011521
 20
78.31764342478004
 10
-18.01863919011521
 20
77.6813866568557
  0
LWPOLYLINE
  5
CB
330
31
100
AcDbEntity
  8
0
100
AcDbPolyline
 90
4
 70
0
 10
-18.04947964850726
 20
76.9673564758707
 42
-0.173003343101521
 10
-18.10263919011777
 20
76.94839541140414
 10
-18.59499421330838
 20
76.94839541140414
 42
-0.1600535475041646
 10
-18.64480961998197
 20
76.9647609138558
 42
-0.1600535475041646
  0
LWPOLYLINE
  5
CC
330
31
100
AcDbEntity
  8
0
100
AcDbPolyline
 90
3
 70
0
 10
-18.66262871085928
 20
76.98258000474038
 42
-0.1600535475041259
 10
-18.67899421331094
 20
77.0323954114067
 10
-18.67899421331094
 20
77.6684847314175
  0
LWPOLYLINE
  5
CD
330
31
100
AcDbEntity
  8
0
100
AcDbPolyline
 90
4
 70
0
 10
-18.19335919012519
 20
77.11135541140561
 42
-0.1622776601682571
 10
-18.22863919012161
 20
77.09959541140438
 10
-18.46899421331909
 20
77.09959541140438
 42
-0.1433289715803103
 10
-18.50069673504185
 20
77.10887379878864
 42
-0.1433289715803103
  0
LWPOLYLINE
  5
CE
330
31
100
AcDbEntity
  8
0
100
AcDbPolyline
 90
3
 70
0
 10
-18.51851582593372
 20
77.1266928896805
 42
-0.1433289715802567
 10
-18.52779421331797
 20
77.15839541140326
 10
-18.52779421331797
 20
77.5810534005434
  0
LWPOLYLINE
  5
CF
330
31
100
AcDbEntity
  8
0
100
AcDbPolyline
 90
4
 70
0
 10
-18.5042059440384
 20
78.238734549421
 42
-0.1619055040018182
 10
-18.46899421331909
 20
78.25044342478236
 10
-18.22863919012161
 20
78.25044342478236
 42
-0.1619055040018182
 10
-18.1934274594023
 20
78.238734549421
  0
LWPOLYLINE
  5
D0
330
31
100
AcDbEntity
  8
0
100
AcDbPolyline
 90
3
 70
0
 10
-18.18154806546954
 20
78.22685515549551
 42
-0.1619055040017489
 10
-18.16983919012273
 20
78.19164342478348
 10
-18.16983919012273
 20
77.76896113398129
  0
LINE
  5
D1
330
31
100
AcDbEntity
  8
0
100
AcDbLine
 10
-18.5042059440384
 20
78.238734549421
 30
0.0
 11
-18.64845148596941
 21
78.38298009136656
 31
0.0
  0
LINE
  5
D2
330
31
100
AcDbEntity
  8
0
100
AcDbLine
 10
-18.18154806546954
 20
78.22685515549551
 30
0.0
 11
-18.03730252353853
 21
78.37110069744108
 31
0.0
  0
LINE
  5
D3
330
31
100
AcDbEntity
  8
0
100
AcDbLine
 10
-18.1934274594023
 20
78.238734549421
 30
0.0
 11
-18.04918191745673
 21
78.38298009136656
 31
0.0
  0
LINE
  5
D4
330
31
100
AcDbEntity
  8
0
100
AcDbLine
 10
-18.50069673504185
 20
77.10887379878864
 30
0.0
 11
-18.64480961998197
 21
76.9647609138558
 31
0.0
  0
LINE
  5
D5
330
31
100
AcDbEntity
  8
0
100
AcDbLine
 10
-18.51851582593372
 20
77.1266928896805
 30
0.0
 11
-18.66262871085928
 21
76.98258000474038
 31
0.0
  0
LINE
  5
D6
330
31
100
AcDbEntity
  8
0
100
AcDbLine
 10
-18.19335919012519
 20
77.11135541140561
 30
0.0
 11
-18.04918191745673
 21
76.96705874482018
 31
0.0
  0
LWPOLYLINE
  5
D7
330
31
100
AcDbEntity
  8
0
100
AcDbPolyline
 90
2
 70
0
 10
-18.16983919012273
 20
77.59941941809689
 10
-18.52779421331797
 20
77.59941941809689
  0
LWPOLYLINE
  5
D8
330
31
100
AcDbEntity
  8
0
100
AcDbPolyline
 90
2
 70
0
 10
-18.52779421331797
 20
77.75061941808985
 10
-18.16983919012273
 20
77.75061941808985
  0
LINE
  5
D9
330
31
100
AcDbEntity
  8
0
100
AcDbLine
 10
-18.52779421331797
 20
77.75061941808985
 30
0.0
 11
-18.6506818712005
 21
77.67501941809337
 31
0.0
  0
LINE
  5
DA
330
31
100
AcDbEntity
  8
0
100
AcDbLine
 10
-18.6506818712005
 20
77.67501941809337
 30
0.0
 11
-18.52779421331797
 21
77.59941941809689
 31
0.0
  0
LINE
  5
DB
330
31
100
AcDbEntity
  8
0
100
AcDbLine
 10
-18.67899421331094
 20
77.6684847314175
 30
0.0
 11
-18.52779421331797
 21
77.5810534005434
 31
0.0
  0
LINE
  5
DC
330
31
100
AcDbEntity
  8
0
100
AcDbLine
 10
-18.16983919012273
 20
77.75061941808985
 30
0.0
 11
-18.0469515322402
 21
77.67501941809337
 31
0.0
  0
LINE
  5
DD
330
31
100
AcDbEntity
  8
0
100
AcDbLine
 10
-18.0469515322402
 20
77.67501941809337
 30
0.0
 11
-18.16983919012273
 21
77.59941941809689
 31
0.0
  0
LINE
  5
DE
330
31
100
AcDbEntity
  8
0
100
AcDbLine
 10
-18.16983919012273
 20
77.76896113398129
 30
0.0
 11
-18.01863919011521
 21
77.6813866568557
 31
0.0
  0
LWPOLYLINE
  5
DF
330
31
100
AcDbEntity
  8
0
100
AcDbPolyline
 90
2
 70
0
 10
-18.2298391901204
 20
77.59941941809689
 10
-18.4677942133203
 20
77.59941941809689
  0
LWPOLYLINE
  5
E0
330
31
100
AcDbEntity
  8
0
100
AcDbPolyline
 90
2
 70
0
 10
-18.4677942133203
 20
77.75061941808985
 10
-18.2298391901204
 20
77.75061941808985
  0
LWPOLYLINE
  5
E1
330
31
100
AcDbEntity
  8
0
100
AcDbPolyline
 90
3
 70
0
 10
-18.03500469259597
 20
76.98258000474038
 42
0.1600535475041259
 10
-18.01863919014431
 20
77.0323954114067
 10
-18.01863919014431
 20
77.6684847314175
  0
LWPOLYLINE
  5
E2
330
31
100
AcDbEntity
  8
0
100
AcDbPolyline
 90
3
 70
0
 10
-18.17911757752154
 20
77.1266928896805
 42
0.1433289715802567
 10
-18.16983919013728
 20
77.15839541140326
 10
-18.16983919013728
 20
77.5810534005434
  0
LINE
  5
E3
330
31
100
AcDbEntity
  8
0
100
AcDbLine
 10
-18.17911757752154
 20
77.1266928896805
 30
0.0
 11
-18.03500469259597
 21
76.98258000474038
 31
0.0
  0
LINE
  5
E4
330
31
100
AcDbEntity
  8
0
100
AcDbLine
 10
-18.01863919014431
 20
77.6684847314175
 30
0.0
 11
-18.16983919013728
 21
77.5810534005434
 31
0.0
  0
CIRCLE
  5
E5
330
31
100
AcDbEntity
  8
0
100
AcDbCircle
 10
-30.44811936740734
 20
112.095344371005
 30
0.0
 40
3.0
  0
CIRCLE
  5
E6
330
31
100
AcDbEntity
  8
0
100
AcDbCircle
 10
-16.50000000000727
 20
112.095344371005
 30
0.0
 40
3.0
  0
LINE
  5
E7
330
31
100
AcDbEntity
  8
0
100
AcDbLine
 10
-28.99855046596349
 20
110.6457754695611
 30
0.0
 11
-31.8976882688512
 21
113.5449132724488
 31
0.0
  0
LINE
  5
E8
330
31
100
AcDbEntity
  8
0
100
AcDbLine
 10
-28.99855046596349
 20
113.5449132724488
 30
0.0
 11
-31.8976882688512
 21
110.6457754695611
 31
0.0
  0
LINE
  5
E9
330
31
100
AcDbEntity
  8
0
100
AcDbLine
 10
-15.05043109856342
 20
113.5449132724488
 30
0.0
 11
-17.94956890145113
 21
110.6457754695611
 31
0.0
  0
LINE
  5
EA
330
31
100
AcDbEntity
  8
0
100
AcDbLine
 10
-15.05043109856342
 20
110.6457754695611
 30
0.0
 11
-17.94956890145113
 21
113.5449132724488
 31
0.0
  0
CIRCLE
  5
EB
330
31
100
AcDbEntity
  8
0
100
AcDbCircle
 10
30.4481193674219
 20
112.095344371005
 30
0.0
 40
3.0
  0
CIRCLE
  5
EC
330
31
100
AcDbEntity
  8
0
100
AcDbCircle
 10
16.50000000002183
 20
112.095344371005
 30
0.0
 40
3.0
  0
LINE
  5
ED
330
31
100
AcDbEntity
  8
0
100
AcDbLine
 10
28.99855046597804
 20
110.6457754695611
 30
0.0
 11
31.89768826886575
 21
113.5449132724488
 31
0.0
  0
LINE
  5
EE
330
31
100
AcDbEntity
  8
0
100
AcDbLine
 10
28.99855046597804
 20
113.5449132724488
 30
0.0
 11
31.89768826886575
 21
110.6457754695611
 31
0.0
  0
LINE
  5
EF
330
31
100
AcDbEntity
  8
0
100
AcDbLine
 10
15.05043109857797
 20
113.5449132724488
 30
0.0
 11
17.94956890146568
 21
110.6457754695611
 31
0.0
  0
LINE
  5
F0
330
31
100
AcDbEntity
  8
0
100
AcDbLine
 10
15.05043109857797
 20
110.6457754695611
 30
0.0
 11
17.94956890146568
 21
113.5449132724488
 31
0.0
  0
MTEXT
  5
F1
330
31
100
AcDbEntity
  8
0
 62
5
370
9
100
AcDbMText
 10
-16.03920403410939
 20
91.5116777110577
 30
0.0
 40
2.48832
 41
33.72683625294764
 46
100.0000000000031
 71
5
 72
5
  1
CHINT
  7
ARIAL
  0
CIRCLE
  5
F2
330
31
100
AcDbEntity
  8
0
100
AcDbCircle
 10
0.4047060053310361
 20
108.0
 30
0.0
 40
4.0
  0
MTEXT
  5
F3
330
31
100
AcDbEntity
  8
0
 62
253
370
9
100
AcDbMText
 10
7.680161958020789
 20
69.84417404039277
 30
0.0
 40
1.24416
 41
6.220121798671002
 46
100.0000000000031
 71
5
 72
5
  1
AUTO
  7
ARIAL
  0
LWPOLYLINE
  5
F4
330
31
100
AcDbEntity
  8
0
 62
253
100
AcDbPolyline
 90
8
 70
1
 10
4.87525304170299
 20
68.82817330879925
 10
10.18818892361628
 20
68.82817330878834
 42
0.4142135623730951
 10
10.63818892362064
 20
69.2781733087927
 10
10.63818892362064
 20
70.4621952254297
 42
0.4142135623730951
 10
10.18818892361628
 20
70.91219522543406
 10
4.87525304170299
 20
70.91219522543406
 42
0.4142135623730951
 10
4.425253041698624
 20
70.4621952254297
 10
4.425253041698624
 20
69.27817330880362
 42
0.4142135623725405
  0
MTEXT
  5
F5
330
31
100
AcDbEntity
  8
0
 62
253
370
9
100
AcDbMText
 10
-1.735738133203312
 20
69.84417404039277
 30
0.0
 40
1.24416
 41
6.220121798671002
 46
100.0000000000031
 71
5
 72
5
  1
ON
  7
ARIAL
  0
LWPOLYLINE
  5
F6
330
31
100
AcDbEntity
  8
0
 62
253
100
AcDbPolyline
 90
8
 70
1
 10
-4.540647049521112
 20
68.82817330879925
 10
0.772288832392178
 20
68.82817330878834
 42
0.4142135623730951
 10
1.222288832396543
 20
69.2781733087927
 10
1.222288832396543
 20
70.4621952254297
 42
0.4142135623730951
 10
0.772288832392178
 20
70.91219522543406
 10
-4.540647049521112
 20
70.91219522543406
 42
0.4142135623730951
 10
-4.990647049525477
 20
70.4621952254297
 10
-4.990647049525477
 20
69.27817330880362
 42
0.4142135623725405
  0
MTEXT
  5
F7
330
31
100
AcDbEntity
  8
0
 62
253
370
9
100
AcDbMText
 10
17.09606204924535
 20
69.84417404039277
 30
0.0
 40
1.24416
 41
6.220121798671002
 46
100.0000000000031
 71
5
 72
5
  1
OFF
  7
ARIAL
  0
LWPOLYLINE
  5
F8
330
31
100
AcDbEntity
  8
0
 62
253
100
AcDbPolyline
 90
8
 70
1
 10
14.29115313292754
 20
68.82817330879925
 10
19.60408901484084
 20
68.82817330878834
 42
0.4142135623730951
 10
20.0540890148452
 20
69.2781733087927
 10
20.0540890148452
 20
70.4621952254297
 42
0.4142135623730951
 10
19.60408901484084
 20
70.91219522543406
 10
14.29115313292754
 20
70.91219522543406
 42
0.4142135623730951
 10
13.84115313292318
 20
70.4621952254297
 10
13.84115313292318
 20
69.27817330880362
 42
0.4142135623725405
  0
LWPOLYLINE
  5
F9
330
31
100
AcDbEntity
  8
0
 62
253
100
AcDbPolyline
 90
3
 70
0
 10
6.927938017305677
 20
73.11473116835577
 10
7.857824099041863
 20
73.11473116835577
 10
7.39288105817377
 20
72.48410545147567
  0
LINE
  5
FA
330
31
100
AcDbEntity
  8
0
 62
253
100
AcDbLine
 10
6.927938017305677
 20
73.11473116835577
 30
0.0
 11
7.39288105817377
 21
72.48410545147567
 31
0.0
  0
MTEXT
  5
FB
330
31
100
AcDbEntity
  8
0
370
9
100
AcDbMText
 10
-15.57594457591313
 20
59.60627385373005
 30
0.0
 40
1.24416
 41
6.220121798671002
 46
100.0000000000031
 71
5
 72
5
  1
RESET
  7
ARIAL
  0
LWPOLYLINE
  5
FC
330
31
100
AcDbEntity
  8
0
 62
5
100
AcDbPolyline
 90
8
 70
1
 10
-18.38085349223183
 20
55.59027312213652
 10
-13.06791761031968
 20
55.59027312212561
 42
0.4142135623730951
 10
-11.61791761031327
 20
57.04027312212997
 10
-11.61791761031327
 20
60.22429503876697
 42
0.4142135623730951
 10
-13.06791761031763
 20
61.67429503877134
 10
-18.38085349223092
 20
61.67429503877134
 42
0.4142135623730951
 10
-19.83085349223529
 20
60.22429503876697
 10
-19.83085349223529
 20
57.04027312214089
 42
0.414213562372521
  0
LINE
  5
FD
330
31
100
AcDbEntity
  8
0
100
AcDbLine
 10
-18.83085349223529
 20
58.63228408045393
 30
0.0
 11
-12.61791761031327
 21
58.63228408044847
 31
0.0
  0
MTEXT
  5
FE
330
31
100
AcDbEntity
  8
0
370
9
100
AcDbMText
 10
-15.57594457591313
 20
57.68413876984914
 30
0.0
 40
1.24416
 41
6.220121798671002
 46
100.0000000000031
 71
5
 72
5
  1
RECAL
  7
ARIAL
  0
LWPOLYLINE
  5
FF
330
31
100
AcDbEntity
  8
0
 62
253
100
AcDbPolyline
 90
4
 70
1
 10
-34.27105598703929
 20
4.438413554882572
 42
-0.9999999999999998
 10
-32.14973564347747
 20
2.317093211320752
 10
-32.8568424246696
 20
1.609986430128628
 42
-0.9999999999999998
 10
-34.97816276823142
 20
3.731306773690448
  0
LWPOLYLINE
  5
100
330
31
100
AcDbEntity
  8
0
100
AcDbPolyline
 90
6
 70
1
 10
-29.00000000000728
 20
0.0
 10
-29.00000000000728
 20
0.0
 10
-36.00000000000728
 20
0.0
 42
-0.4142135623730951
 10
-37.00000000000728
 20
1.0
 10
-37.00000000000728
 20
8.0
 10
-37.00000000000728
 20
8.0
 42
-0.4142135623730951
  0
LWPOLYLINE
  5
101
330
31
100
AcDbEntity
  8
0
 62
253
100
AcDbPolyline
 90
4
 70
1
 10
34.27105598703906
 20
4.438413554882572
 42
0.9999999999999998
 10
32.14973564347725
 20
2.317093211320752
 10
32.85684242466937
 20
1.609986430128628
 42
0.9999999999999998
 10
34.97816276823119
 20
3.731306773690448
  0
LWPOLYLINE
  5
102
330
31
100
AcDbEntity
  8
0
100
AcDbPolyline
 90
6
 70
1
 10
29.00000000000705
 20
0.0
 10
29.00000000000705
 20
0.0
 10
36.00000000000705
 20
0.0
 42
0.4142135623730951
 10
37.00000000000705
 20
1.0
 10
37.00000000000705
 20
8.0
 10
37.00000000000705
 20
8.0
 42
0.4142135623730951
  0
MTEXT
  5
103
330
31
100
AcDbEntity
  8
0
370
9
100
AcDbMText
 10
-2.575944575913126
 20
58.62036221353537
 30
0.0
 40
1.24416
 41
6.220121798671002
 46
100.0000000000031
 71
5
 72
5
  1
HOUR
  7
ARIAL
  0
LWPOLYLINE
  5
104
330
31
100
AcDbEntity
  8
0
 62
5
100
AcDbPolyline
 90
8
 70
1
 10
-5.380853492231835
 20
55.59027312213652
 10
-0.0679176103196824
 20
55.59027312212561
 42
0.4142135623730951
 10
1.382082389686729
 20
57.04027312212997
 10
1.382082389686729
 20
60.22429503876697
 42
0.4142135623730951
 10
-0.067917610317636
 20
61.67429503877134
 10
-5.380853492230926
 20
61.67429503877134
 42
0.4142135623730951
 10
-6.830853492235291
 20
60.22429503876697
 10
-6.830853492235291
 20
57.04027312214089
 42
0.414213562372521
  0
MTEXT
  5
105
330
31
100
AcDbEntity
  8
0
370
9
100
AcDbMText
 10
10.42405542408687
 20
58.62036221353537
 30
0.0
 40
1.24416
 41
6.220121798671002
 46
100.0000000000031
 71
5
 72
5
  1
MINUTE
  7
ARIAL
  0
LWPOLYLINE
  5
106
330
31
100
AcDbEntity
  8
0
 62
5
100
AcDbPolyline
 90
8
 70
1
 10
7.619146507768164
 20
55.59027312213652
 10
12.93208238968032
 20
55.59027312212561
 42
0.4142135623730951
 10
14.38208238968673
 20
57.04027312212997
 10
14.38208238968673
 20
60.22429503876697
 42
0.4142135623730951
 10
12.93208238968236
 20
61.67429503877134
 10
7.619146507769073
 20
61.67429503877134
 42
0.4142135623730951
 10
6.169146507764708
 20
60.22429503876697
 10
6.169146507764708
 20
57.04027312214089
 42
0.414213562372521
  0
MTEXT
  5
107
330
31
100
AcDbEntity
  8
0
370
9
100
AcDbMText
 10
23.42405542408688
 20
58.62036221353537
 30
0.0
 40
1.24416
 41
6.220121798671002
 46
100.0000000000031
 71
5
 72
5
  1
HOUR
  7
ARIAL
  0
LWPOLYLINE
  5
108
330
31
100
AcDbEntity
  8
0
 62
5
100
AcDbPolyline
 90
8
 70
1
 10
20.61914650776817
 20
55.59027312213652
 10
25.93208238968032
 20
55.59027312212561
 42
0.4142135623730951
 10
27.38208238968673
 20
57.04027312212997
 10
27.38208238968673
 20
60.22429503876697
 42
0.4142135623730951
 10
25.93208238968236
 20
61.67429503877134
 10
20.61914650776907
 20
61.67429503877134
 42
0.4142135623730951
 10
19.16914650776471
 20
60.22429503876697
 10
19.16914650776471
 20
57.04027312214089
 42
0.414213562372521
  0
HATCH
  5
109
330
31
100
AcDbEntity
  8
0
 62
1
100
AcDbHatch
 10
0.0
 20
0.0
 30
0.0
210
0.0
220
0.0
230
1.0
  2
SOLID
 70
1
 71
0
 91
1
 92
1
 93
1
 72
2
 10
-22.96804625344657
 20
34.77384836470446
 40
0.75
 50
0.0
 51
360.0
 73
1
 97
1
330
78189
 75
0
 76
1
 98
1
 10
-135514.4632059913
 20
-56946.39845676217
450
1
451
0
460
0.0
461
0.0
452
1
462
0.5899999737739563
453
2
463
0
 63
13
421
16536663
463
1
 63
240
421
16527668
470
INVCYLINDER
  0
CIRCLE
  5
10A
330
31
100
AcDbEntity
  8
0
 62
1
100
AcDbCircle
 10
-22.96804625344657
 20
34.77384836470446
 30
0.0
 40
0.75
  0
LWPOLYLINE
  5
10B
330
31
100
AcDbEntity
  8
0
 62
5
100
AcDbPolyline
 90
8
 70
1
 10
-11.88085349223183
 20
43.59027312213652
 10
-6.567917610319682
 20
43.5902731221256
 42
0.4142135623730951
 10
-5.11791761031327
 20
45.04027312212997
 10
-5.11791761031327
 20
48.22429503876697
 42
0.4142135623730951
 10
-6.567917610317635
 20
49.67429503877133
 10
-11.88085349223092
 20
49.67429503877133
 42
0.4142135623730951
 10
-13.33085349223529
 20
48.22429503876697
 10
-13.33085349223529
 20
45.04027312214089
 42
0.414213562372521
  0
MTEXT
  5
10C
330
31
100
AcDbEntity
  8
0
370
9
100
AcDbMText
 10
3.924055424086873
 20
46.62036221353537
 30
0.0
 40
1.24416
 41
6.220121798671002
 46
100.0000000000031
 71
5
 72
5
  1
TIMER
  7
ARIAL
  0
LWPOLYLINE
  5
10D
330
31
100
AcDbEntity
  8
0
 62
5
100
AcDbPolyline
 90
8
 70
1
 10
1.119146507768164
 20
43.59027312213652
 10
6.432082389680317
 20
43.5902731221256
 42
0.4142135623730951
 10
7.882082389686729
 20
45.04027312212997
 10
7.882082389686729
 20
48.22429503876697
 42
0.4142135623730951
 10
6.432082389682364
 20
49.67429503877133
 10
1.119146507769073
 20
49.67429503877133
 42
0.4142135623730951
 10
-0.3308534922352919
 20
48.22429503876697
 10
-0.3308534922352919
 20
45.04027312214089
 42
0.414213562372521
  0
MTEXT
  5
10E
330
31
100
AcDbEntity
  8
0
370
9
100
AcDbMText
 10
16.92405542408687
 20
46.62036221353537
 30
0.0
 40
1.24416
 41
6.220121798671002
 46
100.0000000000031
 71
5
 72
5
  1
CLOCK
  7
ARIAL
  0
LWPOLYLINE
  5
10F
330
31
100
AcDbEntity
  8
0
 62
5
100
AcDbPolyline
 90
8
 70
1
 10
14.11914650776816
 20
43.59027312213652
 10
19.43208238968032
 20
43.5902731221256
 42
0.4142135623730951
 10
20.88208238968673
 20
45.04027312212997
 10
20.88208238968673
 20
48.22429503876697
 42
0.4142135623730951
 10
19.43208238968236
 20
49.67429503877133
 10
14.11914650776907
 20
49.67429503877133
 42
0.4142135623730951
 10
12.66914650776471
 20
48.22429503876697
 10
12.66914650776471
 20
45.04027312214089
 42
0.414213562372521
  0
MTEXT
  5
110
330
31
100
AcDbEntity
  8
0
370
9
100
AcDbMText
 10
-9.075944575913127
 20
47.60627385373005
 30
0.0
 40
1.24416
 41
6.220121798671002
 46
100.0000000000031
 71
5
 72
5
  1
AUTO
  7
ARIAL
  0
LINE
  5
111
330
31
100
AcDbEntity
  8
0
100
AcDbLine
 10
-12.33085349223529
 20
46.63228408045393
 30
0.0
 11
-6.11791761031327
 21
46.63228408044846
 31
0.0
  0
MTEXT
  5
112
330
31
100
AcDbEntity
  8
0
370
9
100
AcDbMText
 10
-9.075944575913127
 20
45.68413876984914
 30
0.0
 40
1.24416
 41
6.220121798671002
 46
100.0000000000031
 71
5
 72
5
  1
MANU
  7
ARIAL
  0
MTEXT
  5
113
330
31
100
AcDbEntity
  8
0
 62
253
370
9
100
AcDbMText
 10
-15.79821805096822
 20
34.91468223954098
 30
0.0
 40
1.86624
 41
9.330182698006503
 46
100.0000000000031
 71
5
 72
5
  1
POWER
  7
ARIAL
  0
HATCH
  5
114
330
31
100
AcDbEntity
  8
0
 62
1
100
AcDbHatch
 10
0.0
 20
0.0
 30
0.0
210
0.0
220
0.0
230
1.0
  2
SOLID
 70
1
 71
0
 91
1
 92
1
 93
1
 72
2
 10
-5.028951671494496
 20
34.77384836470446
 40
0.75
 50
0.0
 51
360.0
 73
1
 97
1
330
78194
 75
0
 76
1
 98
1
 10
-135496.5241114093
 20
-56946.39845676217
450
1
451
0
460
0.0
461
0.0
452
1
462
0.5899999737739563
453
2
463
0
 63
13
421
16536663
463
1
 63
240
421
16527668
470
INVCYLINDER
  0
CIRCLE
  5
115
330
31
100
AcDbEntity
  8
0
 62
1
100
AcDbCircle
 10
-5.028951671494496
 20
34.77384836470446
 30
0.0
 40
0.75
  0
MTEXT
  5
116
330
31
100
AcDbEntity
  8
0
 62
253
370
9
100
AcDbMText
 10
-1.17480409020186
 20
34.91468223954098
 30
0.0
 40
1.86624
 41
9.330182698006503
 46
100.0000000000031
 71
5
 72
5
  1
ON
  7
ARIAL
  0
LWPOLYLINE
  5
117
330
31
100
AcDbEntity
  8
0
100
AcDbPolyline
 90
4
 70
1
 10
-22.5
 20
20.0
 10
-22.5
 20
0.0
 10
22.5
 20
0.0
 10
22.5
 20
20.0
  0
LWPOLYLINE
  5
118
330
31
100
AcDbEntity
  8
0
100
AcDbPolyline
 90
4
 70
1
 10
-2.485362001027851
 20
18.58065950517323
 10
2.485362001027851
 20
18.58065950517323
 10
2.485362001027851
 20
20.0
 10
-2.485362001027851
 20
20.0
  0
LINE
  5
119
330
31
100
AcDbEntity
  8
0
100
AcDbLine
 10
-1.985362001027851
 20
14.82707000752896
 30
0.0
 11
1.985362001027851
 21
14.82707000752896
 31
0.0
  0
LINE
  5
11A
330
31
100
AcDbEntity
  8
0
100
AcDbLine
 10
-2.485362001027851
 20
16.82707000752896
 30
0.0
 11
2.485362001027851
 21
16.82707000752896
 31
0.0
  0
LINE
  5
11B
330
31
100
AcDbEntity
  8
0
100
AcDbLine
 10
-1.485362001027851
 20
12.82707000752896
 30
0.0
 11
1.485362001027851
 21
12.82707000752896
 31
0.0
  0
MTEXT
  5
11C
330
31
100
AcDbEntity
  8
0
 62
253
370
9
100
AcDbMText
 10
22.53463711156201
 20
33.87411111200572
 30
0.0
 40
2.48832
 41
12.440243597342
 46
100.0000000000031
 71
5
 72
5
  1
KG316T
  7
ARIAL
  0
LINE
  5
11D
330
31
100
AcDbEntity
  8
0
100
AcDbLine
 10
-36.99999999999568
 20
95.1571807344212
 30
0.0
 11
37.00000000000728
 21
95.1571807344212
 31
0.0
  0
LWPOLYLINE
  5
11E
330
31
100
AcDbEntity
  8
0
 62
5
100
AcDbPolyline
 90
4
 70
1
 10
-8.345994346209864
 20
90.19589646173927
 10
22.04629631945477
 20
90.19589646173927
 10
22.04629631945477
 20
91.51823726526754
 10
-8.345994346209864
 20
91.51823726526754
  0
MTEXT
  5
11F
330
31
100
AcDbEntity
  8
0
 62
253
370
9
100
AcDbMText
 10
-30.42544628425503
 20
117.5895714677015
 30
0.0
 40
2.48832
 41
12.440243597342
 46
100.0000000000031
 71
5
 72
5
  1
N
  7
ARIAL
  0
MTEXT
  5
120
330
31
100
AcDbEntity
  8
0
 62
253
370
9
100
AcDbMText
 10
-16.47732691685496
 20
117.5895714677015
 30
0.0
 40
2.48832
 41
12.440243597342
 46
100.0000000000031
 71
5
 72
5
  1
L
  7
ARIAL
  0
MTEXT
  5
121
330
31
100
AcDbEntity
  8
0
 62
253
370
9
100
AcDbMText
 10
16.52267308317414
 20
117.5895714677015
 30
0.0
 40
2.48832
 41
12.440243597342
 46
100.0000000000031
 71
5
 72
5
  1
N
  7
ARIAL
  0
MTEXT
  5
122
330
31
100
AcDbEntity
  8
0
 62
253
370
9
100
AcDbMText
 10
30.47079245057421
 20
117.5895714677015
 30
0.0
 40
2.48832
 41
12.440243597342
 46
100.0000000000031
 71
5
 72
5
  1
L
  7
ARIAL
  0
MTEXT
  5
123
330
31
100
AcDbEntity
  8
0
100
AcDbMText
 10
21.3253203143272
 20
110.938846386796
 30
0.0
 40
2.0
 41
3.162784658838063
 46
0.0
 71
1
 72
5
  1
{\Ftxt1|c0;Load}
  0
MTEXT
  5
124
330
31
100
AcDbEntity
  8
0
100
AcDbMText
 10
-26.7385290304469
 20
111.0567401301575
 30
0.0
 40
2.0
 41
3.162784658838063
 46
0.0
 71
1
 72
5
  1
{\Ftxt1|c0;Sourcl}
  0
LWPOLYLINE
  5
125
330
31
100
AcDbEntity
  8
0
 60
1
100
AcDbPolyline
 90
3
 70
0
 10
-15.99999999999272
 20
46.0
 10
-15.99999999999272
 20
120.0
 10
16.00000000000727
 20
120.0
  0
LWPOLYLINE
  5
126
330
31
100
AcDbEntity
  8
0
 60
1
100
AcDbPolyline
 90
7
 70
0
 10
17.00000000000727
 20
95.15718073442133
 10
26.00000000000728
 20
95.15718073442133
 42
-0.4142135623730951
 10
27.00000000000728
 20
94.15718073442135
 10
27.00000000002183
 20
1.000000000000005
 42
-0.4142135623730951
 10
26.00000000002183
 20
5.3e-15
 10
-15.99999999999272
 20
5.3e-15
 10
-15.99999999999272
 20
46.0
  0
LWPOLYLINE
  5
127
330
31
100
AcDbEntity
  8
0
 60
1
100
AcDbPolyline
 90
5
 70
1
 10
-15.99999999999272
 20
120.0
 10
16.00000000000727
 20
120.0
 42
-0.4142135623730951
 10
17.00000000000727
 20
119.0
 10
17.00000000000727
 20
95.15718073442133
 10
-15.99999999999272
 20
95.15718073442133
  0
LINE
  5
128
330
31
100
AcDbEntity
  8
0
 60
1
100
AcDbLine
 10
9.446149494156998
 20
5.3e-15
 30
0.0
 11
9.446149494156998
 21
120.0
 31
0.0
  0
ENDBLK
  5
33
330
31
100
AcDbEntity
  8
0
100
AcDbBlockEnd
  0
ENDSEC
  0
SECTION
  2
ENTITIES
  0
INSERT
  5
2F
330
17
100
AcDbEntity
  8
0
100
AcDbBlockReference
  2
*U1909
 10
37.000000000007276
 20
0.0
 30
0.0
  0
ENDSEC
  0
SECTION
  2
OBJECTS
  0
DICTIONARY
  5
A
330
0
100
AcDbDictionary
281
1
  3
ACAD_COLOR
350
B
  3
ACAD_GROUP
350
C
  3
ACAD_LAYOUT
350
D
  3
ACAD_MATERIAL
350
E
  3
ACAD_MLEADERSTYLE
350
F
  3
ACAD_MLINESTYLE
350
10
  3
ACAD_PLOTSETTINGS
350
11
  3
ACAD_PLOTSTYLENAME
350
12
  3
ACAD_SCALELIST
350
14
  3
ACAD_TABLESTYLE
350
15
  3
ACAD_VISUALSTYLE
350
16
  3
EZDXF_META
350
2D
  0
DICTIONARY
  5
B
330
A
100
AcDbDictionary
281
1
  0
DICTIONARY
  5
C
330
A
100
AcDbDictionary
281
1
  0
DICTIONARY
  5
D
330
A
100
AcDbDictionary
281
1
  3
Model
350
1A
  3
Layout1
350
1E
  0
DICTIONARY
  5
E
330
A
100
AcDbDictionary
281
1
  3
ByBlock
350
1F
  3
ByLayer
350
20
  3
Global
350
21
  0
DICTIONARY
  5
F
330
A
100
AcDbDictionary
281
1
  3
Standard
350
2C
  0
DICTIONARY
  5
10
330
A
100
AcDbDictionary
281
1
  3
Standard
350
22
  0
DICTIONARY
  5
11
330
A
100
AcDbDictionary
281
1
  0
ACDBDICTIONARYWDFLT
  5
12
330
A
100
AcDbDictionary
281
1
  3
Normal
350
13
100
AcDbDictionaryWithDefault
340
13
  0
ACDBPLACEHOLDER
  5
13
330
12
  0
DICTIONARY
  5
14
330
A
100
AcDbDictionary
281
1
  0
DICTIONARY
  5
15
330
A
100
AcDbDictionary
281
1
  0
DICTIONARY
  5
16
330
A
100
AcDbDictionary
281
1
  0
LAYOUT
  5
1A
330
D
100
AcDbPlotSettings
  1

  4
A3
  6

 40
7.5
 41
20.0
 42
7.5
 43
20.0
 44
420.0
 45
297.0
 46
0.0
 47
0.0
 48
0.0
 49
0.0
140
0.0
141
0.0
142
1.0
143
1.0
 70
1024
 72
1
 73
0
 74
5
  7

 75
16
 76
0
 77
2
 78
300
147
1.0
148
0.0
149
0.0
100
AcDbLayout
  1
Model
 70
1
 71
0
 10
0.0
 20
0.0
 11
420.0
 21
297.0
 12
0.0
 22
0.0
 32
0.0
 14
1e+20
 24
1e+20
 34
1e+20
 15
-1e+20
 25
-1e+20
 35
-1e+20
146
0.0
 13
0.0
 23
0.0
 33
0.0
 16
1.0
 26
0.0
 36
0.0
 17
0.0
 27
1.0
 37
0.0
 76
1
330
17
  0
LAYOUT
  5
1E
330
D
100
AcDbPlotSettings
  1

  4
A3
  6

 40
7.5
 41
20.0
 42
7.5
 43
20.0
 44
420.0
 45
297.0
 46
0.0
 47
0.0
 48
0.0
 49
0.0
140
0.0
141
0.0
142
1.0
143
1.0
 70
0
 72
1
 73
0
 74
5
  7

 75
16
 76
0
 77
2
 78
300
147
1.0
148
0.0
149
0.0
100
AcDbLayout
  1
Layout1
 70
1
 71
1
 10
0.0
 20
0.0
 11
420.0
 21
297.0
 12
0.0
 22
0.0
 32
0.0
 14
1e+20
 24
1e+20
 34
1e+20
 15
-1e+20
 25
-1e+20
 35
-1e+20
146
0.0
 13
0.0
 23
0.0
 33
0.0
 16
1.0
 26
0.0
 36
0.0
 17
0.0
 27
1.0
 37
0.0
 76
1
330
1B
  0
MATERIAL
  5
1F
102
{ACAD_REACTORS
330
E
102
}
330
E
100
AcDbMaterial
  1
ByBlock
  2

 70
0
 40
1.0
 71
1
 41
1.0
 91
-1023410177
 42
1.0
 72
1
  3

 73
1
 74
1
 75
1
 44
0.5
 73
0
 45
1.0
 46
1.0
 77
1
  4

 78
1
 79
1
170
1
 48
1.0
171
1
  6

172
1
173
1
174
1
140
1.0
141
1.0
175
1
  7

176
1
177
1
178
1
143
1.0
179
1
  8

270
1
271
1
272
1
145
1.0
146
1.0
273
1
  9

274
1
275
1
276
1
 42
1.0
 72
1
  3

 73
1
 74
1
 75
1
 94
63
  0
MATERIAL
  5
20
102
{ACAD_REACTORS
330
E
102
}
330
E
100
AcDbMaterial
  1
ByLayer
  2

 70
0
 40
1.0
 71
1
 41
1.0
 91
-1023410177
 42
1.0
 72
1
  3

 73
1
 74
1
 75
1
 44
0.5
 73
0
 45
1.0
 46
1.0
 77
1
  4

 78
1
 79
1
170
1
 48
1.0
171
1
  6

172
1
173
1
174
1
140
1.0
141
1.0
175
1
  7

176
1
177
1
178
1
143
1.0
179
1
  8

270
1
271
1
272
1
145
1.0
146
1.0
273
1
  9

274
1
275
1
276
1
 42
1.0
 72
1
  3

 73
1
 74
1
 75
1
 94
63
  0
MATERIAL
  5
21
102
{ACAD_REACTORS
330
E
102
}
330
E
100
AcDbMaterial
  1
Global
  2

 70
0
 40
1.0
 71
1
 41
1.0
 91
-1023410177
 42
1.0
 72
1
  3

 73
1
 74
1
 75
1
 44
0.5
 73
0
 45
1.0
 46
1.0
 77
1
  4

 78
1
 79
1
170
1
 48
1.0
171
1
  6

172
1
173
1
174
1
140
1.0
141
1.0
175
1
  7

176
1
177
1
178
1
143
1.0
179
1
  8

270
1
271
1
272
1
145
1.0
146
1.0
273
1
  9

274
1
275
1
276
1
 42
1.0
 72
1
  3

 73
1
 74
1
 75
1
 94
63
  0
MLINESTYLE
  5
22
102
{ACAD_REACTORS
330
10
102
}
330
10
100
AcDbMlineStyle
  2
Standard
 70
0
  3

 62
256
 51
90.0
 52
90.0
 71
2
 49
0.5
 62
256
  6
BYLAYER
 49
-0.5
 62
256
  6
BYLAYER
  0
MLEADERSTYLE
  5
2C
102
{ACAD_REACTORS
330
F
102
}
330
F
100
AcDbMLeaderStyle
179
2
170
2
171
1
172
0
 90
2
 40
0.0
 41
0.0
173
1
 91
-1056964608
 92
-2
290
1
 42
2.0
291
1
 43
8.0
  3
Standard
 44
4.0
300

342
29
174
1
175
1
176
0
178
1
 93
-1056964608
 45
4.0
292
0
297
0
 46
4.0
 94
-1056964608
 47
1.0
 49
1.0
140
1.0
294
1
141
0.0
177
0
142
1.0
295
0
296
0
143
3.75
271
0
272
9
273
9
  0
DICTIONARY
  5
2D
330
A
100
AcDbDictionary
280
1
281
1
  3
CREATED_BY_EZDXF
350
2E
  3
WRITTEN_BY_EZDXF
350
12C
  0
DICTIONARYVAR
  5
2E
330
2D
100
DictionaryVariables
280
0
  1
1.4.4 @ 2026-09-23T14:03:37.129494+00:00
  0
DICTIONARYVAR
  5
12C
330
2D
100
DictionaryVariables
280
0
  1
1.4.4 @ 2026-09-23T14:03:37.439742+00:00
  0
ENDSEC
  0
EOF
