  0
SECTION
  2
HEADER
  9
$ACADVER
  1
AC1032
  9
$ACADMAINTVER
 90
4
  9
$DWGCODEPAGE
  3
ANSI_1252
  9
$LASTSAVEDBY
  1
ezdxf
  9
$REQUIREDVERSIONS
160
0
  9
$INSBASE
 10
0.0
 20
0.0
 30
0.0
  9
$EXTMIN
 10
1e+20
 20
1e+20
 30
1e+20
  9
$EXTMAX
 10
-1e+20
 20
-1e+20
 30
-1e+20
  9
$LIMMIN
 10
0.0
 20
0.0
  9
$LIMMAX
 10
420.0
 20
297.0
  9
$ORTHOMODE
 70
0
  9
$REGENMODE
 70
1
  9
$FILLMODE
 70
1
  9
$QTEXTMODE
 70
0
  9
$MIRRTEXT
 70
1
  9
$LTSCALE
 40
1.0
  9
$ATTMODE
 70
1
  9
$TEXTSIZE
 40
2.5
  9
$TRACEWID
 40
1.0
  9
$TEXTSTYLE
  7
Standard
  9
$CLAYER
  8
0
  9
$CELTYPE
  6
ByLayer
  9
$CECOLOR
 62
256
  9
$CELTSCALE
 40
1.0
  9
$DISPSILH
 70
0
  9
$DIMSCALE
 40
1.0
  9
$DIMASZ
 40
2.5
  9
$DIMEXO
 40
0.625
  9
$DIMDLI
 40
3.75
  9
$DIMRND
 40
0.0
  9
$DIMDLE
 40
0.0
  9
$DIMEXE
 40
1.25
  9
$DIMTP
 40
0.0
  9
$DIMTM
 40
0.0
  9
$DIMTXT
 40
2.5
  9
$DIMCEN
 40
2.5
  9
$DIMTSZ
 40
0.0
  9
$DIMTOL
 70
0
  9
$DIMLIM
 70
0
  9
$DIMTIH
 70
0
  9
$DIMTOH
 70
0
  9
$DIMSE1
 70
0
  9
$DIMSE2
 70
0
  9
$DIMTAD
 70
1
  9
$DIMZIN
 70
8
  9
$DIMBLK
  1

  9
$DIMASO
 70
1
  9
$DIMSHO
 70
1
  9
$DIMPOST
  1

  9
$DIMAPOST
  1

  9
$DIMALT
 70
0
  9
$DIMALTD
 70
3
  9
$DIMALTF
 40
0.03937007874
  9
$DIMLFAC
 40
1.0
  9
$DIMTOFL
 70
1
  9
$DIMTVP
 40
0.0
  9
$DIMTIX
 70
0
  9
$DIMSOXD
 70
0
  9
$DIMSAH
 70
0
  9
$DIMBLK1
  1

  9
$DIMBLK2
  1

  9
$DIMSTYLE
  2
ISO-25
  9
$DIMCLRD
 70
0
  9
$DIMCLRE
 70
0
  9
$DIMCLRT
 70
0
  9
$DIMTFAC
 40
1.0
  9
$DIMGAP
 40
0.625
  9
$DIMJUST
 70
0
  9
$DIMSD1
 70
0
  9
$DIMSD2
 70
0
  9
$DIMTOLJ
 70
0
  9
$DIMTZIN
 70
8
  9
$DIMALTZ
 70
0
  9
$DIMALTTZ
 70
0
  9
$DIMUPT
 70
0
  9
$DIMDEC
 70
2
  9
$DIMTDEC
 70
2
  9
$DIMALTU
 70
2
  9
$DIMALTTD
 70
3
  9
$DIMTXSTY
  7
Standard
  9
$DIMAUNIT
 70
0
  9
$DIMADEC
 70
0
  9
$DIMALTRND
 40
0.0
  9
$DIMAZIN
 70
0
  9
$DIMDSEP
 70
44
  9
$DIMATFIT
 70
3
  9
$DIMFRAC
 70
0
  9
$DIMLDRBLK
  1

  9
$DIMLUNIT
 70
2
  9
$DIMLWD
 70
-2
  9
$DIMLWE
 70
-2
  9
$DIMTMOVE
 70
0
  9
$DIMFXL
 40
1.0
  9
$DIMFXLON
 70
0
  9
$DIMJOGANG
 40
0.785398163397
  9
$DIMTFILL
 70
0
  9
$DIMTFILLCLR
 70
0
  9
$DIMARCSYM
 70
0
  9
$DIMLTYPE
  6

  9
$DIMLTEX1
  6

  9
$DIMLTEX2
  6

  9
$DIMTXTDIRECTION
 70
0
  9
$LUNITS
 70
2
  9
$LUPREC
 70
4
  9
$SKETCHINC
 40
1.0
  9
$FILLETRAD
 40
10.0
  9
$AUNITS
 70
0
  9
$AUPREC
 70
2
  9
$MENU
  1
.
  9
$ELEVATION
 40
0.0
  9
$PELEVATION
 40
0.0
  9
$THICKNESS
 40
0.0
  9
$LIMCHECK
 70
0
  9
$CHAMFERA
 40
0.0
  9
$CHAMFERB
 40
0.0
  9
$CHAMFERC
 40
0.0
  9
$CHAMFERD
 40
0.0
  9
$SKPOLY
 70
0
  9
$TDCREATE
 40
2461307.8769791666
  9
$TDUCREATE
 40
2458532.153996898
  9
$TDUPDATE
 40
2461307.8769791666
  9
$TDUUPDATE
 40
2458532.1544311
  9
$TDINDWG
 40
0.0
  9
$TDUSRTIMER
 40
0.0
  9
$USRTIMER
 70
1
  9
$ANGBASE
 50
0.0
  9
$ANGDIR
 70
0
  9
$PDMODE
 70
0
  9
$PDSIZE
 40
0.0
  9
$PLINEWID
 40
0.0
  9
$SPLFRAME
 70
0
  9
$SPLINETYPE
 70
6
  9
$SPLINESEGS
 70
8
  9
$HANDSEED
  5
FE
  9
$SURFTAB1
 70
6
  9
$SURFTAB2
 70
6
  9
$SURFTYPE
 70
6
  9
$SURFU
 70
6
  9
$SURFV
 70
6
  9
$UCSBASE
  2

  9
$UCSNAME
  2

  9
$UCSORG
 10
0.0
 20
0.0
 30
0.0
  9
$UCSXDIR
 10
1.0
 20
0.0
 30
0.0
  9
$UCSYDIR
 10
0.0
 20
1.0
 30
0.0
  9
$UCSORTHOREF
  2

  9
$UCSORTHOVIEW
 70
0
  9
$UCSORGTOP
 10
0.0
 20
0.0
 30
0.0
  9
$UCSORGBOTTOM
 10
0.0
 20
0.0
 30
0.0
  9
$UCSORGLEFT
 10
0.0
 20
0.0
 30
0.0
  9
$UCSORGRIGHT
 10
0.0
 20
0.0
 30
0.0
  9
$UCSORGFRONT
 10
0.0
 20
0.0
 30
0.0
  9
$UCSORGBACK
 10
0.0
 20
0.0
 30
0.0
  9
$PUCSBASE
  2

  9
$PUCSNAME
  2

  9
$PUCSORG
 10
0.0
 20
0.0
 30
0.0
  9
$PUCSXDIR
 10
1.0
 20
0.0
 30
0.0
  9
$PUCSYDIR
 10
0.0
 20
1.0
 30
0.0
  9
$PUCSORTHOREF
  2

  9
$PUCSORTHOVIEW
 70
0
  9
$PUCSORGTOP
 10
0.0
 20
0.0
 30
0.0
  9
$PUCSORGBOTTOM
 10
0.0
 20
0.0
 30
0.0
  9
$PUCSORGLEFT
 10
0.0
 20
0.0
 30
0.0
  9
$PUCSORGRIGHT
 10
0.0
 20
0.0
 30
0.0
  9
$PUCSORGFRONT
 10
0.0
 20
0.0
 30
0.0
  9
$PUCSORGBACK
 10
0.0
 20
0.0
 30
0.0
  9
$USERI1
 70
0
  9
$USERI2
 70
0
  9
$USERI3
 70
0
  9
$USERI4
 70
0
  9
$USERI5
 70
0
  9
$USERR1
 40
0.0
  9
$USERR2
 40
0.0
  9
$USERR3
 40
0.0
  9
$USERR4
 40
0.0
  9
$USERR5
 40
0.0
  9
$WORLDVIEW
 70
1
  9
$SHADEDGE
 70
3
  9
$SHADEDIF
 70
70
  9
$TILEMODE
 70
1
  9
$MAXACTVP
 70
64
  9
$PINSBASE
 10
0.0
 20
0.0
 30
0.0
  9
$PLIMCHECK
 70
0
  9
$PEXTMIN
 10
1e+20
 20
1e+20
 30
1e+20
  9
$PEXTMAX
 10
-1e+20
 20
-1e+20
 30
-1e+20
  9
$PLIMMIN
 10
0.0
 20
0.0
  9
$PLIMMAX
 10
420.0
 20
297.0
  9
$UNITMODE
 70
0
  9
$VISRETAIN
 70
1
  9
$PLINEGEN
 70
0
  9
$PSLTSCALE
 70
1
  9
$TREEDEPTH
 70
3020
  9
$CMLSTYLE
  2
Standard
  9
$CMLJUST
 70
0
  9
$CMLSCALE
 40
20.0
  9
$PROXYGRAPHICS
 70
1
  9
$MEASUREMENT
 70
1
  9
$CELWEIGHT
370
-1
  9
$ENDCAPS
280
0
  9
$JOINSTYLE
280
0
  9
$LWDISPLAY
290
0
  9
$INSUNITS
 70
4
  9
$HYPERLINKBASE
  1

  9
$STYLESHEET
  1

  9
$XEDIT
290
1
  9
$CEPSNTYPE
380
0
  9
$PSTYLEMODE
290
1
  9
$FINGERPRINTGUID
  2
{BA4970A5-1FE1-4F54-8A1E-23AEE62F5F5E}
  9
$VERSIONGUID
  2
{41245BE0-B1B3-4B54-9452-487AA6366325}
  9
$EXTNAMES
290
1
  9
$PSVPSCALE
 40
0.0
  9
$OLESTARTUP
290
0
  9
$SORTENTS
280
127
  9
$INDEXCTL
280
0
  9
$HIDETEXT
280
1
  9
$XCLIPFRAME
280
1
  9
$HALOGAP
280
0
  9
$OBSCOLOR
 70
257
  9
$OBSLTYPE
280
0
  9
$INTERSECTIONDISPLAY
280
0
  9
$INTERSECTIONCOLOR
 70
257
  9
$DIMASSOC
280
2
  9
$PROJECTNAME
  1

  9
$CAMERADISPLAY
290
0
  9
$LENSLENGTH
 40
50.0
  9
$CAMERAHEIGHT
 40
0.0
  9
$STEPSPERSEC
 40
24.0
  9
$STEPSIZE
 40
100.0
  9
$3DDWFPREC
 40
2.0
  9
$PSOLWIDTH
 40
0.005
  9
$PSOLHEIGHT
 40
0.08
  9
$LOFTANG1
 40
1.570796326795
  9
$LOFTANG2
 40
1.570796326795
  9
$LOFTMAG1
 40
0.0
  9
$LOFTMAG2
 40
0.0
  9
$LOFTPARAM
 70
7
  9
$LOFTNORMALS
280
1
  9
$LATITUDE
 40
37.795
  9
$LONGITUDE
 40
-122.394
  9
$NORTHDIRECTION
 40
0.0
  9
$TIMEZONE
 70
-8000
  9
$LIGHTGLYPHDISPLAY
280
1
  9
$TILEMODELIGHTSYNCH
280
1
  9
$CMATERIAL
347
20
  9
$SOLIDHIST
280
0
  9
$SHOWHIST
280
1
  9
$DWFFRAME
280
2
  9
$DGNFRAME
280
2
  9
$REALWORLDSCALE
290
1
  9
$INTERFERECOLOR
 62
256
  9
$CSHADOW
280
0
  9
$SHADOWPLANELOCATION
 40
0.0
  0
ENDSEC
  0
SECTION
  2
CLASSES
  0
CLASS
  1
ACDBDICTIONARYWDFLT
  2
AcDbDictionaryWithDefault
  3
ObjectDBX Classes
 90
0
 91
0
280
0
281
0
  0
CLASS
  1
SUN
  2
AcDbSun
  3
SCENEOE
 90
1153
 91
0
280
0
281
0
  0
CLASS
  1
VISUALSTYLE
  2
AcDbVisualStyle
  3
ObjectDBX Classes
 90
4095
 91
0
280
0
281
0
  0
CLASS
  1
MATERIAL
  2
AcDbMaterial
  3
ObjectDBX Classes
 90
1153
 91
0
280
0
281
0
  0
CLASS
  1
SCALE
  2
AcDbScale
  3
ObjectDBX Classes
 90
1153
 91
0
280
0
281
0
  0
CLASS
  1
TABLESTYLE
  2
AcDbTableStyle
  3
ObjectDBX Classes
 90
4095
 91
0
280
0
281
0
  0
CLASS
  1
MLEADERSTYLE
  2
AcDbMLeaderStyle
  3
ACDB_MLEADERSTYLE_CLASS
 90
4095
 91
0
280
0
281
0
  0
CLASS
  1
DICTIONARYVAR
  2
AcDbDictionaryVar
  3
ObjectDBX Classes
 90
0
 91
0
280
0
281
0
  0
CLASS
  1
CELLSTYLEMAP
  2
AcDbCellStyleMap
  3
ObjectDBX Classes
 90
1152
 91
0
280
0
281
0
  0
CLASS
  1
MENTALRAYRENDERSETTINGS
  2
AcDbMentalRayRenderSettings
  3
SCENEOE
 90
1024
 91
0
280
0
281
0
  0
CLASS
  1
ACDBDETAILVIEWSTYLE
  2
AcDbDetailViewStyle
  3
ObjectDBX Classes
 90
1025
 91
0
280
0
281
0
  0
CLASS
  1
ACDBSECTIONVIEWSTYLE
  2
AcDbSectionViewStyle
  3
ObjectDBX Classes
 90
1025
 91
0
280
0
281
0
  0
CLASS
  1
RASTERVARIABLES
  2
AcDbRasterVariables
  3
ISM
 90
0
 91
0
280
0
281
0
  0
CLASS
  1
LAYOUT
  2
AcDbLayout
  3
ObjectDBX Classes
 90
0
 91
0
280
0
281
0
  0
CLASS
  1
ACDBPLACEHOLDER
  2
AcDbPlaceHolder
  3
ObjectDBX Classes
 90
0
 91
0
280
0
281
0
  0
ENDSEC
  0
SECTION
  2
TABLES
  0
TABLE
  2
VPORT
  5
8
330
0
100
AcDbSymbolTable
 70
1
  0
VPORT
  5
23
330
8
100
AcDbSymbolTableRecord
100
AcDbViewportTableRecord
  2
*Active
 70
0
 10
0.0
 20
0.0
 11
1.0
 21
1.0
 12
0.0
 22
0.0
 13
0.0
 23
0.0
 14
0.5
 24
0.5
 15
0.5
 25
0.5
 16
0.0
 26
0.0
 36
1.0
 17
0.0
 27
0.0
 37
0.0
 40
1000.0
 41
1.34
 42
50.0
 43
0.0
 44
0.0
 50
0.0
 51
0.0
 71
0
 72
1000
 73
1
 74
3
 75
0
 76
0
 77
0
 78
0
281
0
 65
0
146
0.0
  0
ENDTAB
  0
TABLE
  2
LTYPE
  5
2
330
0
100
AcDbSymbolTable
 70
3
  0
LTYPE
  5
24
330
2
100
AcDbSymbolTableRecord
100
AcDbLinetypeTableRecord
  2
ByBlock
 70
0
  3

 72
65
 73
0
 40
0.0
  0
LTYPE
  5
25
330
2
100
AcDbSymbolTableRecord
100
AcDbLinetypeTableRecord
  2
ByLayer
 70
0
  3

 72
65
 73
0
 40
0.0
  0
LTYPE
  5
26
330
2
100
AcDbSymbolTableRecord
100
AcDbLinetypeTableRecord
  2
Continuous
 70
0
  3

 72
65
 73
0
 40
0.0
  0
ENDTAB
  0
TABLE
  2
LAYER
  5
1
330
0
100
AcDbSymbolTable
 70
3
  0
LAYER
  5
27
330
1
100
AcDbSymbolTableRecord
100
AcDbLayerTableRecord
  2
0
 70
0
 62
7
  6
Continuous
370
-3
390
13
347
21
  0
LAYER
  5
28
330
1
100
AcDbSymbolTableRecord
100
AcDbLayerTableRecord
  2
Defpoints
 70
0
 62
7
  6
Continuous
290
0
370
-3
390
13
347
21
  0
LAYER
  5
FA
330
1
100
AcDbSymbolTableRecord
100
AcDbLayerTableRecord
  2
00
 70
0
 62
7
  6
Continuous
370
0
390
13
347
21
  0
ENDTAB
  0
TABLE
  2
STYLE
  5
5
330
0
100
AcDbSymbolTable
 70
1
  0
STYLE
  5
29
330
5
100
AcDbSymbolTableRecord
100
AcDbTextStyleTableRecord
  2
Standard
 70
0
 40
0.0
 41
1.0
 50
0.0
 71
0
 42
2.5
  3
txt
  4

  0
ENDTAB
  0
TABLE
  2
VIEW
  5
7
330
0
100
AcDbSymbolTable
 70
0
  0
ENDTAB
  0
TABLE
  2
UCS
  5
6
330
0
100
AcDbSymbolTable
 70
0
  0
ENDTAB
  0
TABLE
  2
APPID
  5
3
330
0
100
AcDbSymbolTable
 70
3
  0
APPID
  5
2A
330
3
100
AcDbSymbolTableRecord
100
AcDbRegAppTableRecord
  2
ACAD
 70
0
  0
APPID
  5
FB
330
3
100
AcDbSymbolTableRecord
100
AcDbRegAppTableRecord
  2
HATCHBACKGROUNDCOLOR
 70
0
  0
APPID
  5
FC
330
3
100
AcDbSymbolTableRecord
100
AcDbRegAppTableRecord
  2
EZDXF
 70
0
  0
ENDTAB
  0
TABLE
  2
DIMSTYLE
  5
4
330
0
100
AcDbSymbolTable
 70
1
100
AcDbDimStyleTable
  0
DIMSTYLE
105
2B
330
4
100
AcDbSymbolTableRecord
100
AcDbDimStyleTableRecord
  2
Standard
 70
0
 40
1.0
 41
2.5
 42
0.625
 43
3.75
 44
1.25
 45
0.0
 46
0.0
 47
0.0
 48
0.0
 49
2.5
140
2.5
141
2.5
142
0.0
143
0.03937007874
144
1.0
145
0.0
146
1.0
147
0.625
148
0.0
 69
0
 70
0
 71
0
 72
0
 73
0
 74
0
 75
0
 76
0
 77
1
 78
8
 79
3
170
0
171
3
172
1
173
0
174
0
175
0
176
0
177
0
178
0
179
2
271
2
272
2
273
2
274
3
275
0
276
0
277
2
278
44
279
0
280
0
281
0
282
0
283
0
284
8
285
0
286
0
288
0
289
3
290
0
371
-2
372
-2
  0
ENDTAB
  0
TABLE
  2
BLOCK_RECORD
  5
9
330
0
100
AcDbSymbolTable
 70
3
  0
BLOCK_RECORD
  5
17
330
9
100
AcDbSymbolTableRecord
100
AcDbBlockTableRecord
  2
*Model_Space
340
1A
 70
0
280
1
281
0
  0
BLOCK_RECORD
  5
1B
330
9
100
AcDbSymbolTableRecord
100
AcDbBlockTableRecord
  2
*Paper_Space
340
1E
 70
0
280
1
281
0
  0
BLOCK_RECORD
  5
31
330
9
100
AcDbSymbolTableRecord
100
AcDbBlockTableRecord
  2
A$C12C77F24
340
0
 70
0
280
1
281
0
  0
ENDTAB
  0
ENDSEC
  0
SECTION
  2
BLOCKS
  0
BLOCK
  5
18
330
17
100
AcDbEntity
  8
0
100
AcDbBlockBegin
  2
*Model_Space
 70
0
 10
0.0
 20
0.0
 30
0.0
  3
*Model_Space
  1

  0
ENDBLK
  5
19
330
17
100
AcDbEntity
  8
0
100
AcDbBlockEnd
  0
BLOCK
  5
1C
330
1B
100
AcDbEntity
  8
0
100
AcDbBlockBegin
  2
*Paper_Space
 70
0
 10
0.0
 20
0.0
 30
0.0
  3
*Paper_Space
  1

  0
ENDBLK
  5
1D
330
1B
100
AcDbEntity
  8
0
100
AcDbBlockEnd
  0
BLOCK
  5
32
330
31
100
AcDbEntity
  8
0
100
AcDbBlockBegin
  2
A$C12C77F24
 70
0
 10
0.0
 20
0.0
 30
0.0
  3
A$C12C77F24
  1

  0
LINE
  5
34
330
31
100
AcDbEntity
  8
0
 62
7
100
AcDbLine
 10
19.0000120478071
 20
81.99999472757189
 30
0.0
 11
19.0000120478071
 21
35.9999947275719
 31
0.0
  0
LINE
  5
35
330
31
100
AcDbEntity
  8
0
 62
7
100
AcDbLine
 10
25.00001204780711
 20
31.9999947275719
 30
0.0
 11
25.00001204780711
 21
15.9999947275719
 31
0.0
  0
LINE
  5
36
330
31
100
AcDbEntity
  8
0
 62
7
100
AcDbLine
 10
25.00001204780711
 20
15.9999947275719
 30
0.0
 11
14.00001204779255
 21
15.9999947275719
 31
0.0
  0
LINE
  5
37
330
31
100
AcDbEntity
  8
0
 62
7
100
AcDbLine
 10
25.00001204780711
 20
101.9999947275719
 30
0.0
 11
25.00001204780711
 21
85.9999947275719
 31
0.0
  0
LINE
  5
38
330
31
100
AcDbEntity
  8
0
 62
7
100
AcDbLine
 10
19.0000120478071
 20
35.9999947275719
 30
0.0
 11
25.00001204780711
 21
31.9999947275719
 31
0.0
  0
LINE
  5
39
330
31
100
AcDbEntity
  8
0
 62
7
100
AcDbLine
 10
19.0000120478071
 20
81.99999472757189
 30
0.0
 11
25.00001204780711
 21
85.9999947275719
 31
0.0
  0
LINE
  5
3A
330
31
100
AcDbEntity
  8
0
 62
7
100
AcDbLine
 10
1.2047807104e-05
 20
87.99999472757192
 30
0.0
 11
1.2047807104e-05
 21
29.99999472757192
 31
0.0
  0
LINE
  5
3B
330
31
100
AcDbEntity
  8
0
 62
7
100
AcDbLine
 10
14.0000120478071
 20
15.9999947275719
 30
0.0
 11
1.2047807104e-05
 21
29.99999472757192
 31
0.0
  0
LINE
  5
3C
330
31
100
AcDbEntity
  8
0
 62
7
100
AcDbLine
 10
25.00001204780711
 20
101.9999947275719
 30
0.0
 11
14.00001204779255
 21
101.9999947275719
 31
0.0
  0
LINE
  5
3D
330
31
100
AcDbEntity
  8
0
 62
7
100
AcDbLine
 10
14.0000120478071
 20
101.9999947275719
 30
0.0
 11
1.2047807104e-05
 21
87.99999472757192
 31
0.0
  0
LWPOLYLINE
  5
3E
330
31
100
AcDbEntity
  8
0
 62
7
100
AcDbPolyline
 90
4
 70
1
 10
60.0000120478071
 20
30.9999947275719
 10
60.0000120478071
 20
22.9999947275719
 10
25.00001204780711
 20
22.9999947275719
 10
25.00001204780711
 20
30.9999947275719
  0
LWPOLYLINE
  5
3F
330
31
100
AcDbEntity
  8
0
 62
7
100
AcDbPolyline
 90
4
 70
1
 10
60.0000120478071
 20
86.99999472757189
 10
60.0000120478071
 20
94.9999947275719
 10
25.00001204780711
 20
94.9999947275719
 10
25.00001204780711
 20
86.99999472757189
  0
LWPOLYLINE
  5
40
330
31
100
AcDbEntity
  8
0
 62
2
100
AcDbPolyline
 90
4
 70
1
 10
72.00001204780709
 20
82.99999472757192
 10
72.00001204780709
 20
34.99999472757191
 10
27.0000120478071
 20
34.99999472757191
 10
27.0000120478071
 20
82.99999472757192
  0
LWPOLYLINE
  5
41
330
31
100
AcDbEntity
  8
0
 62
2
100
AcDbPolyline
 90
4
 70
1
 10
83.0000120478071
 20
34.99999472757191
 10
83.0000120478071
 20
32.99999472757189
 10
27.0000120478071
 20
32.99999472757189
 10
27.0000120478071
 20
34.99999472757191
  0
LWPOLYLINE
  5
42
330
31
100
AcDbEntity
  8
0
 62
2
100
AcDbPolyline
 90
4
 70
1
 10
83.0000120478071
 20
82.99999472757192
 10
83.0000120478071
 20
84.9999947275719
 10
27.0000120478071
 20
84.9999947275719
 10
27.0000120478071
 20
82.99999472757192
  0
LWPOLYLINE
  5
43
330
31
100
AcDbEntity
  8
0
 62
2
100
AcDbPolyline
 90
4
 70
0
 10
55.0000120478071
 20
30.9999947275719
 10
55.0000120478071
 20
32.99999472757189
 10
40.0000120478071
 20
32.99999472757189
 10
40.0000120478071
 20
30.9999947275719
  0
LWPOLYLINE
  5
44
330
31
100
AcDbEntity
  8
0
 62
2
100
AcDbPolyline
 90
4
 70
0
 10
40.0000120478071
 20
22.9999947275719
 10
40.0000120478071
 20
17.9999947275719
 10
55.0000120478071
 20
17.9999947275719
 10
55.0000120478071
 20
22.9999947275719
  0
LWPOLYLINE
  5
45
330
31
100
AcDbEntity
  8
0
 62
2
100
AcDbPolyline
 90
4
 70
0
 10
55.0000120478071
 20
86.99999472757189
 10
55.0000120478071
 20
84.9999947275719
 10
40.0000120478071
 20
84.9999947275719
 10
40.0000120478071
 20
86.99999472757189
  0
LWPOLYLINE
  5
46
330
31
100
AcDbEntity
  8
0
 62
2
100
AcDbPolyline
 90
4
 70
0
 10
40.0000120478071
 20
94.9999947275719
 10
40.0000120478071
 20
99.9999947275719
 10
55.0000120478071
 20
99.9999947275719
 10
55.0000120478071
 20
94.9999947275719
  0
LWPOLYLINE
  5
47
330
31
100
AcDbEntity
  8
0
 62
7
100
AcDbPolyline
 90
4
 70
1
 10
25.00001204780711
 20
15.9999947275719
 10
25.00001204780711
 20
-5.2724280977e-06
 10
23.00001204780711
 20
-5.2724280977e-06
 10
23.00001204780711
 20
15.9999947275719
  0
LWPOLYLINE
  5
48
330
31
100
AcDbEntity
  8
0
 62
7
100
AcDbPolyline
 90
4
 70
1
 10
29.00001204780711
 20
16.9999947275719
 10
29.00001204780711
 20
2.999994727571901
 10
27.0000120478071
 20
2.999994727571901
 10
27.0000120478071
 20
16.9999947275719
  0
LWPOLYLINE
  5
49
330
31
100
AcDbEntity
  8
0
 62
7
100
AcDbPolyline
 90
4
 70
1
 10
27.0000120478071
 20
17.9999947275719
 10
27.0000120478071
 20
1.999994727571901
 10
25.00001204780711
 20
1.999994727571901
 10
25.00001204780711
 20
17.9999947275719
  0
LINE
  5
4A
330
31
100
AcDbEntity
  8
0
 62
7
 48
5.0
100
AcDbLine
 10
29.00001204780711
 20
13.14780336707918
 30
0.0
 11
29.00001204780711
 21
6.852186088079178
 31
0.0
  0
ARC
  5
4B
330
31
100
AcDbEntity
  8
0
 62
7
100
AcDbCircle
 10
33.21426623238949
 20
9.999994727586452
 30
0.0
 40
4.214254184579229
100
AcDbArc
 50
127.1902150712795
 51
232.8097849287204
  0
LINE
  5
4C
330
31
100
AcDbEntity
  8
0
 62
7
100
AcDbLine
 10
29.00001204780711
 20
14.70171655588638
 30
0.0
 11
29.00001204780711
 21
5.94070652224036
 31
0.0
  0
ARC
  5
4D
330
31
100
AcDbEntity
  8
0
 62
7
100
AcDbCircle
 10
30.47439707389276
 20
14.83412942395807
 30
0.0
 40
1.476920070900218
100
AcDbArc
 50
90.0
 51
270.0
  0
LINE
  5
4E
330
31
100
AcDbEntity
  8
0
 62
7
100
AcDbLine
 10
29.00001204780711
 20
5.298272899301081
 30
0.0
 11
29.00001204780711
 21
14.70171655590093
 31
0.0
  0
ARC
  5
4F
330
31
100
AcDbEntity
  8
0
 62
7
100
AcDbCircle
 10
30.47439707389276
 20
5.165860031214832
 30
0.0
 40
1.476920070900218
100
AcDbArc
 50
90.0
 51
270.0
  0
ARC
  5
50
330
31
100
AcDbEntity
  8
0
 62
7
100
AcDbCircle
 10
32.92361827866989
 20
5.165860031214832
 30
0.0
 40
1.476920070900218
100
AcDbArc
 50
270.0
 51
90.0
  0
ARC
  5
51
330
31
100
AcDbEntity
  8
0
 62
7
100
AcDbCircle
 10
32.92361827866989
 20
14.83412942395807
 30
0.0
 40
1.476920070900218
100
AcDbArc
 50
270.0
 51
90.0
  0
ARC
  5
52
330
31
100
AcDbEntity
  8
0
 62
7
100
AcDbCircle
 10
30.18374912023138
 20
9.999994727586452
 30
0.0
 40
4.214254184572687
100
AcDbArc
 50
307.1902150712795
 51
52.80978492872043
  0
LINE
  5
53
330
31
100
AcDbEntity
  8
0
 62
7
 48
5.0
100
AcDbLine
 10
29.00001204780711
 20
14.04717726408125
 30
0.0
 11
29.00001204780711
 21
6.852186088079178
 31
0.0
  0
LINE
  5
54
330
31
100
AcDbEntity
  8
0
 62
7
100
AcDbLine
 10
34.4005383495678
 20
14.83412942395807
 30
0.0
 11
34.4005383495678
 21
5.165860031214832
 31
0.0
  0
LINE
  5
55
330
31
100
AcDbEntity
  8
0
 62
7
100
AcDbLine
 10
32.92361827866989
 20
3.688939960316928
 30
0.0
 11
30.47439707389276
 21
3.688939960316928
 31
0.0
  0
LINE
  5
56
330
31
100
AcDbEntity
  8
0
 62
7
100
AcDbLine
 10
32.92361827866989
 20
6.642780102112737
 30
0.0
 11
30.47439707389276
 21
6.642780102112737
 31
0.0
  0
LINE
  5
57
330
31
100
AcDbEntity
  8
0
 62
7
100
AcDbLine
 10
32.92361827866989
 20
16.31104949487053
 30
0.0
 11
30.47439707389276
 21
16.31104949487053
 31
0.0
  0
LINE
  5
58
330
31
100
AcDbEntity
  8
0
 62
7
100
AcDbLine
 10
32.92361827866989
 20
13.35720935306017
 30
0.0
 11
30.47439707389276
 21
13.35720935306017
 31
0.0
  0
LINE
  5
59
330
31
100
AcDbEntity
  8
00
370
5
100
AcDbLine
 10
21.8385808908788
 20
3.499994728008459
 30
0.0
 11
19.209062252703
 21
3.499994728008459
 31
0.0
  0
LINE
  5
5A
330
31
100
AcDbEntity
  8
00
370
5
100
AcDbLine
 10
19.209062252703
 20
6.749994727819284
 30
0.0
 11
21.8385808908788
 21
6.749994727819284
 31
0.0
  0
ARC
  5
5B
330
31
100
AcDbEntity
  8
00
370
5
100
AcDbCircle
 10
19.76256680091319
 20
5.124994727892044
 30
0.0
 40
1.716680600599194
100
AcDbArc
 50
108.8097763494388
 51
251.1902236505612
  0
ARC
  5
5C
330
31
100
AcDbEntity
  8
00
370
5
100
AcDbCircle
 10
21.28507634268317
 20
5.124994727892044
 30
0.0
 40
1.716680600599194
100
AcDbArc
 50
288.8097763494388
 51
71.1902236505612
  0
ARC
  5
5D
330
31
100
AcDbEntity
  8
00
370
5
100
AcDbCircle
 10
19.76256680091319
 20
14.87499472713534
 30
0.0
 40
1.716680600598909
100
AcDbArc
 50
139.0549826158663
 51
251.1902236505612
  0
ARC
  5
5E
330
31
100
AcDbEntity
  8
00
370
5
100
AcDbCircle
 10
21.28507634268317
 20
14.87499472713534
 30
0.0
 40
1.716680600598909
100
AcDbArc
 50
288.8097763494388
 51
40.94501738413373
  0
LINE
  5
5F
330
31
100
AcDbEntity
  8
00
370
5
100
AcDbLine
 10
19.209062252703
 20
13.24999472726631
 30
0.0
 11
21.8385808908788
 21
13.24999472726631
 31
0.0
  0
LINE
  5
60
330
31
100
AcDbEntity
  8
00
370
5
100
AcDbLine
 10
18.04763109580381
 20
5.047613775568605
 30
0.0
 11
18.04763109580381
 21
14.95237567951699
 31
0.0
  0
ARC
  5
61
330
31
100
AcDbEntity
  8
00
370
5
100
AcDbCircle
 10
23.17553827294614
 20
9.999994727571902
 30
0.0
 40
5.12790717715332
100
AcDbArc
 50
140.6699366176298
 51
219.3300633823702
  0
LINE
  5
62
330
31
100
AcDbEntity
  8
00
370
5
100
AcDbLine
 10
23.00001204779255
 20
5.047613775510398
 30
0.0
 11
23.00001204779255
 21
14.95237567951699
 31
0.0
  0
ARC
  5
63
330
31
100
AcDbEntity
  8
00
370
5
100
AcDbCircle
 10
17.87210487065022
 20
9.999994727571902
 30
0.0
 40
5.12790717715332
100
AcDbArc
 50
320.6699366176299
 51
39.33006338237019
  0
LINE
  5
64
330
31
100
AcDbEntity
  8
00
370
5
100
AcDbLine
 10
23.00001204779255
 20
14.95237567951699
 30
0.0
 11
23.00001204779255
 21
6.277376566380553
 31
0.0
  0
LINE
  5
65
330
31
100
AcDbEntity
  8
0
 62
7
100
AcDbLine
 10
9.053892125783024
 20
13.59749031559477
 30
0.0
 11
8.154518228780942
 21
12.69811641859269
 31
0.0
  0
LINE
  5
66
330
31
100
AcDbEntity
  8
0
 62
7
100
AcDbLine
 10
9.053892125783024
 20
13.59749031559477
 30
0.0
 11
8.154518228780942
 21
12.69811641859269
 31
0.0
  0
LINE
  5
67
330
31
100
AcDbEntity
  8
0
 62
7
100
AcDbLine
 10
9.053892125783024
 20
6.402499139592691
 30
0.0
 11
8.154518228780942
 21
7.30187303659477
 31
0.0
  0
LINE
  5
68
330
31
100
AcDbEntity
  8
0
 62
7
100
AcDbLine
 10
9.053892125783024
 20
6.402499139592691
 30
0.0
 11
8.154518228780942
 21
7.30187303659477
 31
0.0
  0
LINE
  5
69
330
31
100
AcDbEntity
  8
0
 62
7
100
AcDbLine
 10
8.154518228780942
 20
7.30187303659477
 30
0.0
 11
8.154518228780942
 21
12.69811641859269
 31
0.0
  0
LINE
  5
6A
330
31
100
AcDbEntity
  8
0
 62
7
100
AcDbLine
 10
8.154518228780942
 20
12.69811641859269
 30
0.0
 11
8.154518228780942
 21
7.30187303659477
 31
0.0
  0
LINE
  5
6B
330
31
100
AcDbEntity
  8
0
 62
7
100
AcDbLine
 10
8.154518228780942
 20
7.30187303659477
 30
0.0
 11
8.154518228780942
 21
12.69811641859269
 31
0.0
  0
LINE
  5
6C
330
31
100
AcDbEntity
  8
0
 62
7
100
AcDbLine
 10
8.154518228780942
 20
12.69811641859269
 30
0.0
 11
8.154518228780942
 21
7.30187303659477
 31
0.0
  0
LINE
  5
6D
330
31
100
AcDbEntity
  8
0
 62
7
100
AcDbLine
 10
16.24888330179965
 20
13.59749031559477
 30
0.0
 11
15.34950940478302
 21
12.69811641859269
 31
0.0
  0
LINE
  5
6E
330
31
100
AcDbEntity
  8
0
 62
7
100
AcDbLine
 10
17.14825719878717
 20
12.69811641859269
 30
0.0
 11
16.24888330179965
 21
13.59749031559477
 31
0.0
  0
LINE
  5
6F
330
31
100
AcDbEntity
  8
0
 62
7
100
AcDbLine
 10
16.24888330179965
 20
13.59749031559477
 30
0.0
 11
15.34950940478302
 21
12.69811641859269
 31
0.0
  0
LINE
  5
70
330
31
100
AcDbEntity
  8
0
 62
7
100
AcDbLine
 10
17.14825719878717
 20
12.69811641859269
 30
0.0
 11
16.24888330179965
 21
13.59749031559477
 31
0.0
  0
LINE
  5
71
330
31
100
AcDbEntity
  8
0
 62
7
100
AcDbLine
 10
15.34950940478302
 20
12.69811641859269
 30
0.0
 11
14.45013550778094
 21
13.59749031559477
 31
0.0
  0
LINE
  5
72
330
31
100
AcDbEntity
  8
0
 62
7
100
AcDbLine
 10
9.953266022799653
 20
12.69811641859269
 30
0.0
 11
9.053892125783024
 21
13.59749031559477
 31
0.0
  0
LINE
  5
73
330
31
100
AcDbEntity
  8
0
 62
7
100
AcDbLine
 10
12.65138771379133
 20
13.59749031559477
 30
0.0
 11
11.75201381678926
 21
12.69811641859269
 31
0.0
  0
LINE
  5
74
330
31
100
AcDbEntity
  8
0
 62
7
100
AcDbLine
 10
13.55076161077886
 20
12.69811641859269
 30
0.0
 11
12.65138771379133
 21
13.59749031559477
 31
0.0
  0
LINE
  5
75
330
31
100
AcDbEntity
  8
0
 62
7
100
AcDbLine
 10
11.75201381678926
 20
12.69811641859269
 30
0.0
 11
10.85263991978718
 21
13.59749031559477
 31
0.0
  0
LINE
  5
76
330
31
100
AcDbEntity
  8
0
 62
7
100
AcDbLine
 10
10.85263991978718
 20
13.59749031559477
 30
0.0
 11
9.953266022799653
 21
12.69811641859269
 31
0.0
  0
LINE
  5
77
330
31
100
AcDbEntity
  8
0
 62
7
100
AcDbLine
 10
9.953266022799653
 20
12.69811641859269
 30
0.0
 11
9.053892125783024
 21
13.59749031559477
 31
0.0
  0
LINE
  5
78
330
31
100
AcDbEntity
  8
0
 62
7
100
AcDbLine
 10
13.55076161077886
 20
12.69811641859269
 30
0.0
 11
12.65138771379133
 21
13.59749031559477
 31
0.0
  0
LINE
  5
79
330
31
100
AcDbEntity
  8
0
 62
7
100
AcDbLine
 10
12.65138771379133
 20
13.59749031559477
 30
0.0
 11
11.75201381678926
 21
12.69811641859269
 31
0.0
  0
LINE
  5
7A
330
31
100
AcDbEntity
  8
0
 62
7
100
AcDbLine
 10
14.45013550778094
 20
13.59749031559477
 30
0.0
 11
13.55076161077886
 21
12.69811641859269
 31
0.0
  0
LINE
  5
7B
330
31
100
AcDbEntity
  8
0
 62
7
100
AcDbLine
 10
9.953266022799653
 20
7.30187303659477
 30
0.0
 11
9.953266022799653
 21
12.69811641859269
 31
0.0
  0
LINE
  5
7C
330
31
100
AcDbEntity
  8
0
 62
7
100
AcDbLine
 10
11.75201381678926
 20
12.69811641859269
 30
0.0
 11
11.75201381678926
 21
7.30187303659477
 31
0.0
  0
LINE
  5
7D
330
31
100
AcDbEntity
  8
0
 62
7
100
AcDbLine
 10
11.75201381678926
 20
7.30187303659477
 30
0.0
 11
11.75201381678926
 21
12.69811641859269
 31
0.0
  0
LINE
  5
7E
330
31
100
AcDbEntity
  8
0
 62
7
100
AcDbLine
 10
9.953266022799653
 20
12.69811641859269
 30
0.0
 11
9.953266022799653
 21
7.30187303659477
 31
0.0
  0
LINE
  5
7F
330
31
100
AcDbEntity
  8
0
 62
7
100
AcDbLine
 10
9.953266022799653
 20
7.30187303659477
 30
0.0
 11
9.953266022799653
 21
12.69811641859269
 31
0.0
  0
LINE
  5
80
330
31
100
AcDbEntity
  8
0
 62
7
100
AcDbLine
 10
15.34950940478302
 20
12.69811641859269
 30
0.0
 11
15.34950940478302
 21
7.30187303659477
 31
0.0
  0
LINE
  5
81
330
31
100
AcDbEntity
  8
0
 62
7
100
AcDbLine
 10
15.34950940478302
 20
12.69811641859269
 30
0.0
 11
15.34950940478302
 21
7.30187303659477
 31
0.0
  0
LINE
  5
82
330
31
100
AcDbEntity
  8
0
 62
7
100
AcDbLine
 10
13.55076161077886
 20
12.69811641859269
 30
0.0
 11
13.55076161077886
 21
7.30187303659477
 31
0.0
  0
LINE
  5
83
330
31
100
AcDbEntity
  8
0
 62
7
100
AcDbLine
 10
15.34950940478302
 20
7.30187303659477
 30
0.0
 11
15.34950940478302
 21
12.69811641859269
 31
0.0
  0
LINE
  5
84
330
31
100
AcDbEntity
  8
0
 62
7
100
AcDbLine
 10
13.55076161077886
 20
7.30187303659477
 30
0.0
 11
13.55076161077886
 21
12.69811641859269
 31
0.0
  0
LINE
  5
85
330
31
100
AcDbEntity
  8
0
 62
7
100
AcDbLine
 10
11.75201381678926
 20
12.69811641859269
 30
0.0
 11
11.75201381678926
 21
7.30187303659477
 31
0.0
  0
LINE
  5
86
330
31
100
AcDbEntity
  8
0
 62
7
100
AcDbLine
 10
17.14825719878717
 20
7.30187303659477
 30
0.0
 11
17.14825719878717
 21
12.69811641859269
 31
0.0
  0
LINE
  5
87
330
31
100
AcDbEntity
  8
0
 62
7
100
AcDbLine
 10
17.14825719878717
 20
12.69811641859269
 30
0.0
 11
17.14825719878717
 21
7.30187303659477
 31
0.0
  0
LINE
  5
88
330
31
100
AcDbEntity
  8
0
 62
7
100
AcDbLine
 10
17.14825719878717
 20
7.30187303659477
 30
0.0
 11
17.14825719878717
 21
12.69811641859269
 31
0.0
  0
LINE
  5
89
330
31
100
AcDbEntity
  8
0
 62
7
100
AcDbLine
 10
17.14825719878717
 20
12.69811641859269
 30
0.0
 11
17.14825719878717
 21
7.30187303659477
 31
0.0
  0
LINE
  5
8A
330
31
100
AcDbEntity
  8
0
 62
7
100
AcDbLine
 10
18.04763109578926
 20
13.59749031559477
 30
0.0
 11
17.14825719878717
 21
12.69811641859269
 31
0.0
  0
LINE
  5
8B
330
31
100
AcDbEntity
  8
0
 62
7
100
AcDbLine
 10
18.04763109578926
 20
6.402499139592691
 30
0.0
 11
17.14825719878717
 21
7.30187303659477
 31
0.0
  0
LINE
  5
8C
330
31
100
AcDbEntity
  8
0
 62
7
100
AcDbLine
 10
16.24888330179965
 20
6.402499139592691
 30
0.0
 11
15.34950940478302
 21
7.30187303659477
 31
0.0
  0
LINE
  5
8D
330
31
100
AcDbEntity
  8
0
 62
7
100
AcDbLine
 10
17.14825719878717
 20
7.30187303659477
 30
0.0
 11
16.24888330179965
 21
6.402499139592691
 31
0.0
  0
LINE
  5
8E
330
31
100
AcDbEntity
  8
0
 62
7
100
AcDbLine
 10
16.24888330179965
 20
6.402499139592691
 30
0.0
 11
15.34950940478302
 21
7.30187303659477
 31
0.0
  0
LINE
  5
8F
330
31
100
AcDbEntity
  8
0
 62
7
100
AcDbLine
 10
17.14825719878717
 20
7.30187303659477
 30
0.0
 11
16.24888330179965
 21
6.402499139592691
 31
0.0
  0
LINE
  5
90
330
31
100
AcDbEntity
  8
0
 62
7
100
AcDbLine
 10
15.34950940478302
 20
7.30187303659477
 30
0.0
 11
14.45013550778094
 21
6.402499139592691
 31
0.0
  0
LINE
  5
91
330
31
100
AcDbEntity
  8
0
 62
7
100
AcDbLine
 10
9.953266022799653
 20
7.30187303659477
 30
0.0
 11
9.053892125783024
 21
6.402499139592691
 31
0.0
  0
LINE
  5
92
330
31
100
AcDbEntity
  8
0
 62
7
100
AcDbLine
 10
12.65138771379133
 20
6.402499139592691
 30
0.0
 11
11.75201381678926
 21
7.30187303659477
 31
0.0
  0
LINE
  5
93
330
31
100
AcDbEntity
  8
0
 62
7
100
AcDbLine
 10
13.55076161077886
 20
7.30187303659477
 30
0.0
 11
12.65138771379133
 21
6.402499139592691
 31
0.0
  0
LINE
  5
94
330
31
100
AcDbEntity
  8
0
 62
7
100
AcDbLine
 10
11.75201381678926
 20
7.30187303659477
 30
0.0
 11
10.85263991978718
 21
6.402499139592691
 31
0.0
  0
LINE
  5
95
330
31
100
AcDbEntity
  8
0
 62
7
100
AcDbLine
 10
10.85263991978718
 20
6.402499139592691
 30
0.0
 11
9.953266022799653
 21
7.30187303659477
 31
0.0
  0
LINE
  5
96
330
31
100
AcDbEntity
  8
0
 62
7
100
AcDbLine
 10
9.953266022799653
 20
7.30187303659477
 30
0.0
 11
9.053892125783024
 21
6.402499139592691
 31
0.0
  0
LINE
  5
97
330
31
100
AcDbEntity
  8
0
 62
7
100
AcDbLine
 10
13.55076161077886
 20
7.30187303659477
 30
0.0
 11
12.65138771379133
 21
6.402499139592691
 31
0.0
  0
LINE
  5
98
330
31
100
AcDbEntity
  8
0
 62
7
100
AcDbLine
 10
12.65138771379133
 20
6.402499139592691
 30
0.0
 11
11.75201381678926
 21
7.30187303659477
 31
0.0
  0
LINE
  5
99
330
31
100
AcDbEntity
  8
0
 62
7
100
AcDbLine
 10
14.45013550778094
 20
6.402499139592691
 30
0.0
 11
13.55076161077886
 21
7.30187303659477
 31
0.0
  0
LWPOLYLINE
  5
9A
330
31
100
AcDbEntity
  8
0
 62
7
100
AcDbPolyline
 90
4
 70
1
 10
25.00001204780711
 20
101.9999947275864
 10
25.00001204780711
 20
117.9999947275864
 10
23.00001204780711
 20
117.9999947275864
 10
23.00001204780711
 20
101.9999947275864
  0
LWPOLYLINE
  5
9B
330
31
100
AcDbEntity
  8
0
 62
7
100
AcDbPolyline
 90
4
 70
1
 10
29.00001204780711
 20
100.9999947275864
 10
29.00001204780711
 20
114.9999947275864
 10
27.0000120478071
 20
114.9999947275864
 10
27.0000120478071
 20
100.9999947275864
  0
LWPOLYLINE
  5
9C
330
31
100
AcDbEntity
  8
0
 62
7
100
AcDbPolyline
 90
4
 70
1
 10
27.0000120478071
 20
99.99999472758645
 10
27.0000120478071
 20
115.9999947275864
 10
25.00001204780711
 20
115.9999947275864
 10
25.00001204780711
 20
99.99999472758645
  0
LINE
  5
9D
330
31
100
AcDbEntity
  8
0
 62
7
 48
5.0
100
AcDbLine
 10
29.00001204780711
 20
104.8521860880792
 30
0.0
 11
29.00001204780711
 21
111.1478033670792
 31
0.0
  0
ARC
  5
9E
330
31
100
AcDbEntity
  8
0
 62
7
100
AcDbCircle
 10
33.21426623238949
 20
107.9999947275719
 30
0.0
 40
4.214254184579228
100
AcDbArc
 50
127.1902150724477
 51
232.8097849287204
  0
LINE
  5
9F
330
31
100
AcDbEntity
  8
0
 62
7
100
AcDbLine
 10
29.00001204780711
 20
103.298272899272
 30
0.0
 11
29.00001204780711
 21
112.059282932918
 31
0.0
  0
ARC
  5
A0
330
31
100
AcDbEntity
  8
0
 62
7
100
AcDbCircle
 10
30.47439707389276
 20
103.1658600312002
 30
0.0
 40
1.476920070900218
100
AcDbArc
 50
90.0
 51
270.0
  0
LINE
  5
A1
330
31
100
AcDbEntity
  8
0
 62
7
100
AcDbLine
 10
29.00001204780711
 20
112.7017165558573
 30
0.0
 11
29.00001204780711
 21
103.2982728992574
 31
0.0
  0
ARC
  5
A2
330
31
100
AcDbEntity
  8
0
 62
7
100
AcDbCircle
 10
30.47439707389276
 20
112.8341294239435
 30
0.0
 40
1.476920070900218
100
AcDbArc
 50
90.0
 51
270.0
  0
ARC
  5
A3
330
31
100
AcDbEntity
  8
0
 62
7
100
AcDbCircle
 10
32.92361827866989
 20
112.8341294239435
 30
0.0
 40
1.476920070900218
100
AcDbArc
 50
270.0
 51
90.0
  0
ARC
  5
A4
330
31
100
AcDbEntity
  8
0
 62
7
100
AcDbCircle
 10
32.92361827866989
 20
103.1658600312002
 30
0.0
 40
1.476920070900218
100
AcDbArc
 50
270.0
 51
90.0
  0
ARC
  5
A5
330
31
100
AcDbEntity
  8
0
 62
7
100
AcDbCircle
 10
30.18374912023138
 20
107.9999947275719
 30
0.0
 40
4.214254184572685
100
AcDbArc
 50
307.1902150703634
 51
52.80978492846845
  0
LINE
  5
A6
330
31
100
AcDbEntity
  8
0
 62
7
 48
5.0
100
AcDbLine
 10
29.00001204780711
 20
103.9528121910771
 30
0.0
 11
29.00001204780711
 21
111.1478033670792
 31
0.0
  0
LINE
  5
A7
330
31
100
AcDbEntity
  8
0
 62
7
100
AcDbLine
 10
34.4005383495678
 20
103.1658600312002
 30
0.0
 11
34.4005383495678
 21
112.8341294239435
 31
0.0
  0
LINE
  5
A8
330
31
100
AcDbEntity
  8
0
 62
7
100
AcDbLine
 10
32.92361827866989
 20
114.3110494948414
 30
0.0
 11
30.47439707389276
 21
114.3110494948414
 31
0.0
  0
LINE
  5
A9
330
31
100
AcDbEntity
  8
0
 62
7
100
AcDbLine
 10
32.92361827866989
 20
111.3572093530456
 30
0.0
 11
30.47439707389276
 21
111.3572093530456
 31
0.0
  0
LINE
  5
AA
330
31
100
AcDbEntity
  8
0
 62
7
100
AcDbLine
 10
32.92361827866989
 20
104.6427801020982
 30
0.0
 11
30.47439707389276
 21
104.6427801020982
 31
0.0
  0
LINE
  5
AB
330
31
100
AcDbEntity
  8
00
370
5
100
AcDbLine
 10
21.8385808908788
 20
114.4999947271499
 30
0.0
 11
19.209062252703
 21
114.4999947271499
 31
0.0
  0
LINE
  5
AC
330
31
100
AcDbEntity
  8
00
370
5
100
AcDbLine
 10
19.209062252703
 20
111.249994727339
 30
0.0
 11
21.8385808908788
 21
111.249994727339
 31
0.0
  0
ARC
  5
AD
330
31
100
AcDbEntity
  8
00
370
5
100
AcDbCircle
 10
19.76256680091319
 20
112.8749947272663
 30
0.0
 40
1.716680600599194
100
AcDbArc
 50
108.8097763494388
 51
251.1902236505612
  0
ARC
  5
AE
330
31
100
AcDbEntity
  8
00
370
5
100
AcDbCircle
 10
21.28507634268317
 20
112.8749947272663
 30
0.0
 40
1.716680600599194
100
AcDbArc
 50
288.8097763494388
 51
71.1902236505612
  0
ARC
  5
AF
330
31
100
AcDbEntity
  8
00
370
5
100
AcDbCircle
 10
19.76256680091319
 20
103.124994728023
 30
0.0
 40
1.716680600598909
100
AcDbArc
 50
108.8097763494388
 51
220.9450173853099
  0
ARC
  5
B0
330
31
100
AcDbEntity
  8
00
370
5
100
AcDbCircle
 10
21.28507634268317
 20
103.124994728023
 30
0.0
 40
1.716680600598909
100
AcDbArc
 50
319.05498261469
 51
71.1902236505612
  0
LINE
  5
B1
330
31
100
AcDbEntity
  8
00
370
5
100
AcDbLine
 10
19.209062252703
 20
104.749994727892
 30
0.0
 11
21.8385808908788
 21
104.749994727892
 31
0.0
  0
LINE
  5
B2
330
31
100
AcDbEntity
  8
00
370
5
100
AcDbLine
 10
18.04763109580381
 20
112.9523756795897
 30
0.0
 11
18.04763109580381
 21
103.0476137756414
 31
0.0
  0
ARC
  5
B3
330
31
100
AcDbEntity
  8
00
370
5
100
AcDbCircle
 10
23.17553827294614
 20
107.9999947275864
 30
0.0
 40
5.12790717715332
100
AcDbArc
 50
140.6699366176298
 51
219.3300633823702
  0
LINE
  5
B4
330
31
100
AcDbEntity
  8
00
370
5
100
AcDbLine
 10
23.00001204779255
 20
112.9523756796479
 30
0.0
 11
23.00001204779255
 21
103.0476137756414
 31
0.0
  0
ARC
  5
B5
330
31
100
AcDbEntity
  8
00
370
5
100
AcDbCircle
 10
17.87210487065022
 20
107.9999947275864
 30
0.0
 40
5.12790717715332
100
AcDbArc
 50
320.6699366176299
 51
39.33006338237019
  0
LINE
  5
B6
330
31
100
AcDbEntity
  8
00
370
5
100
AcDbLine
 10
23.00001204779255
 20
103.0476137756414
 30
0.0
 11
23.00001204779255
 21
111.7226128887778
 31
0.0
  0
LINE
  5
B7
330
31
100
AcDbEntity
  8
0
 62
7
100
AcDbLine
 10
9.053892125783024
 20
104.4024991395636
 30
0.0
 11
8.154518228780942
 21
105.3018730365656
 31
0.0
  0
LINE
  5
B8
330
31
100
AcDbEntity
  8
0
 62
7
100
AcDbLine
 10
9.053892125783024
 20
104.4024991395636
 30
0.0
 11
8.154518228780942
 21
105.3018730365656
 31
0.0
  0
LINE
  5
B9
330
31
100
AcDbEntity
  8
0
 62
7
100
AcDbLine
 10
9.053892125783024
 20
111.5974903155656
 30
0.0
 11
8.154518228780942
 21
110.6981164185636
 31
0.0
  0
LINE
  5
BA
330
31
100
AcDbEntity
  8
0
 62
7
100
AcDbLine
 10
9.053892125783024
 20
111.5974903155656
 30
0.0
 11
8.154518228780942
 21
110.6981164185636
 31
0.0
  0
LINE
  5
BB
330
31
100
AcDbEntity
  8
0
 62
7
100
AcDbLine
 10
8.154518228780942
 20
110.6981164185636
 30
0.0
 11
8.154518228780942
 21
105.3018730365656
 31
0.0
  0
LINE
  5
BC
330
31
100
AcDbEntity
  8
0
 62
7
100
AcDbLine
 10
8.154518228780942
 20
105.3018730365656
 30
0.0
 11
8.154518228780942
 21
110.6981164185636
 31
0.0
  0
LINE
  5
BD
330
31
100
AcDbEntity
  8
0
 62
7
100
AcDbLine
 10
8.154518228780942
 20
110.6981164185636
 30
0.0
 11
8.154518228780942
 21
105.3018730365656
 31
0.0
  0
LINE
  5
BE
330
31
100
AcDbEntity
  8
0
 62
7
100
AcDbLine
 10
8.154518228780942
 20
105.3018730365656
 30
0.0
 11
8.154518228780942
 21
110.6981164185636
 31
0.0
  0
LINE
  5
BF
330
31
100
AcDbEntity
  8
0
 62
7
100
AcDbLine
 10
16.24888330179965
 20
104.4024991395636
 30
0.0
 11
15.34950940478302
 21
105.3018730365656
 31
0.0
  0
LINE
  5
C0
330
31
100
AcDbEntity
  8
0
 62
7
100
AcDbLine
 10
17.14825719878717
 20
105.3018730365656
 30
0.0
 11
16.24888330179965
 21
104.4024991395636
 31
0.0
  0
LINE
  5
C1
330
31
100
AcDbEntity
  8
0
 62
7
100
AcDbLine
 10
16.24888330179965
 20
104.4024991395636
 30
0.0
 11
15.34950940478302
 21
105.3018730365656
 31
0.0
  0
LINE
  5
C2
330
31
100
AcDbEntity
  8
0
 62
7
100
AcDbLine
 10
17.14825719878717
 20
105.3018730365656
 30
0.0
 11
16.24888330179965
 21
104.4024991395636
 31
0.0
  0
LINE
  5
C3
330
31
100
AcDbEntity
  8
0
 62
7
100
AcDbLine
 10
15.34950940478302
 20
105.3018730365656
 30
0.0
 11
14.45013550778094
 21
104.4024991395636
 31
0.0
  0
LINE
  5
C4
330
31
100
AcDbEntity
  8
0
 62
7
100
AcDbLine
 10
9.953266022799653
 20
105.3018730365656
 30
0.0
 11
9.053892125783024
 21
104.4024991395636
 31
0.0
  0
LINE
  5
C5
330
31
100
AcDbEntity
  8
0
 62
7
100
AcDbLine
 10
12.65138771379133
 20
104.4024991395636
 30
0.0
 11
11.75201381678926
 21
105.3018730365656
 31
0.0
  0
LINE
  5
C6
330
31
100
AcDbEntity
  8
0
 62
7
100
AcDbLine
 10
13.55076161077886
 20
105.3018730365656
 30
0.0
 11
12.65138771379133
 21
104.4024991395636
 31
0.0
  0
LINE
  5
C7
330
31
100
AcDbEntity
  8
0
 62
7
100
AcDbLine
 10
11.75201381678926
 20
105.3018730365656
 30
0.0
 11
10.85263991978718
 21
104.4024991395636
 31
0.0
  0
LINE
  5
C8
330
31
100
AcDbEntity
  8
0
 62
7
100
AcDbLine
 10
10.85263991978718
 20
104.4024991395636
 30
0.0
 11
9.953266022799653
 21
105.3018730365656
 31
0.0
  0
LINE
  5
C9
330
31
100
AcDbEntity
  8
0
 62
7
100
AcDbLine
 10
9.953266022799653
 20
105.3018730365656
 30
0.0
 11
9.053892125783024
 21
104.4024991395636
 31
0.0
  0
LINE
  5
CA
330
31
100
AcDbEntity
  8
0
 62
7
100
AcDbLine
 10
13.55076161077886
 20
105.3018730365656
 30
0.0
 11
12.65138771379133
 21
104.4024991395636
 31
0.0
  0
LINE
  5
CB
330
31
100
AcDbEntity
  8
0
 62
7
100
AcDbLine
 10
12.65138771379133
 20
104.4024991395636
 30
0.0
 11
11.75201381678926
 21
105.3018730365656
 31
0.0
  0
LINE
  5
CC
330
31
100
AcDbEntity
  8
0
 62
7
100
AcDbLine
 10
14.45013550778094
 20
104.4024991395636
 30
0.0
 11
13.55076161077886
 21
105.3018730365656
 31
0.0
  0
LINE
  5
CD
330
31
100
AcDbEntity
  8
0
 62
7
100
AcDbLine
 10
9.953266022799653
 20
110.6981164185636
 30
0.0
 11
9.953266022799653
 21
105.3018730365656
 31
0.0
  0
LINE
  5
CE
330
31
100
AcDbEntity
  8
0
 62
7
100
AcDbLine
 10
11.75201381678926
 20
105.3018730365656
 30
0.0
 11
11.75201381678926
 21
110.6981164185636
 31
0.0
  0
LINE
  5
CF
330
31
100
AcDbEntity
  8
0
 62
7
100
AcDbLine
 10
11.75201381678926
 20
110.6981164185636
 30
0.0
 11
11.75201381678926
 21
105.3018730365656
 31
0.0
  0
LINE
  5
D0
330
31
100
AcDbEntity
  8
0
 62
7
100
AcDbLine
 10
9.953266022799653
 20
105.3018730365656
 30
0.0
 11
9.953266022799653
 21
110.6981164185636
 31
0.0
  0
LINE
  5
D1
330
31
100
AcDbEntity
  8
0
 62
7
100
AcDbLine
 10
9.953266022799653
 20
110.6981164185636
 30
0.0
 11
9.953266022799653
 21
105.3018730365656
 31
0.0
  0
LINE
  5
D2
330
31
100
AcDbEntity
  8
0
 62
7
100
AcDbLine
 10
15.34950940478302
 20
105.3018730365656
 30
0.0
 11
15.34950940478302
 21
110.6981164185636
 31
0.0
  0
LINE
  5
D3
330
31
100
AcDbEntity
  8
0
 62
7
100
AcDbLine
 10
15.34950940478302
 20
105.3018730365656
 30
0.0
 11
15.34950940478302
 21
110.6981164185636
 31
0.0
  0
LINE
  5
D4
330
31
100
AcDbEntity
  8
0
 62
7
100
AcDbLine
 10
13.55076161077886
 20
105.3018730365656
 30
0.0
 11
13.55076161077886
 21
110.6981164185636
 31
0.0
  0
LINE
  5
D5
330
31
100
AcDbEntity
  8
0
 62
7
100
AcDbLine
 10
15.34950940478302
 20
110.6981164185636
 30
0.0
 11
15.34950940478302
 21
105.3018730365656
 31
0.0
  0
LINE
  5
D6
330
31
100
AcDbEntity
  8
0
 62
7
100
AcDbLine
 10
13.55076161077886
 20
110.6981164185636
 30
0.0
 11
13.55076161077886
 21
105.3018730365656
 31
0.0
  0
LINE
  5
D7
330
31
100
AcDbEntity
  8
0
 62
7
100
AcDbLine
 10
11.75201381678926
 20
105.3018730365656
 30
0.0
 11
11.75201381678926
 21
110.6981164185636
 31
0.0
  0
LINE
  5
D8
330
31
100
AcDbEntity
  8
0
 62
7
100
AcDbLine
 10
17.14825719878717
 20
110.6981164185636
 30
0.0
 11
17.14825719878717
 21
105.3018730365656
 31
0.0
  0
LINE
  5
D9
330
31
100
AcDbEntity
  8
0
 62
7
100
AcDbLine
 10
17.14825719878717
 20
105.3018730365656
 30
0.0
 11
17.14825719878717
 21
110.6981164185636
 31
0.0
  0
LINE
  5
DA
330
31
100
AcDbEntity
  8
0
 62
7
100
AcDbLine
 10
17.14825719878717
 20
110.6981164185636
 30
0.0
 11
17.14825719878717
 21
105.3018730365656
 31
0.0
  0
LINE
  5
DB
330
31
100
AcDbEntity
  8
0
 62
7
100
AcDbLine
 10
17.14825719878717
 20
105.3018730365656
 30
0.0
 11
17.14825719878717
 21
110.6981164185636
 31
0.0
  0
LINE
  5
DC
330
31
100
AcDbEntity
  8
0
 62
7
100
AcDbLine
 10
18.04763109578926
 20
104.4024991395636
 30
0.0
 11
17.14825719878717
 21
105.3018730365656
 31
0.0
  0
LINE
  5
DD
330
31
100
AcDbEntity
  8
0
 62
7
100
AcDbLine
 10
18.04763109578926
 20
111.5974903155656
 30
0.0
 11
17.14825719878717
 21
110.6981164185636
 31
0.0
  0
LINE
  5
DE
330
31
100
AcDbEntity
  8
0
 62
7
100
AcDbLine
 10
16.24888330179965
 20
111.5974903155656
 30
0.0
 11
15.34950940478302
 21
110.6981164185636
 31
0.0
  0
LINE
  5
DF
330
31
100
AcDbEntity
  8
0
 62
7
100
AcDbLine
 10
17.14825719878717
 20
110.6981164185636
 30
0.0
 11
16.24888330179965
 21
111.5974903155656
 31
0.0
  0
LINE
  5
E0
330
31
100
AcDbEntity
  8
0
 62
7
100
AcDbLine
 10
16.24888330179965
 20
111.5974903155656
 30
0.0
 11
15.34950940478302
 21
110.6981164185636
 31
0.0
  0
LINE
  5
E1
330
31
100
AcDbEntity
  8
0
 62
7
100
AcDbLine
 10
17.14825719878717
 20
110.6981164185636
 30
0.0
 11
16.24888330179965
 21
111.5974903155656
 31
0.0
  0
LINE
  5
E2
330
31
100
AcDbEntity
  8
0
 62
7
100
AcDbLine
 10
15.34950940478302
 20
110.6981164185636
 30
0.0
 11
14.45013550778094
 21
111.5974903155656
 31
0.0
  0
LINE
  5
E3
330
31
100
AcDbEntity
  8
0
 62
7
100
AcDbLine
 10
9.953266022799653
 20
110.6981164185636
 30
0.0
 11
9.053892125783024
 21
111.5974903155656
 31
0.0
  0
LINE
  5
E4
330
31
100
AcDbEntity
  8
0
 62
7
100
AcDbLine
 10
12.65138771379133
 20
111.5974903155656
 30
0.0
 11
11.75201381678926
 21
110.6981164185636
 31
0.0
  0
LINE
  5
E5
330
31
100
AcDbEntity
  8
0
 62
7
100
AcDbLine
 10
13.55076161077886
 20
110.6981164185636
 30
0.0
 11
12.65138771379133
 21
111.5974903155656
 31
0.0
  0
LINE
  5
E6
330
31
100
AcDbEntity
  8
0
 62
7
100
AcDbLine
 10
11.75201381678926
 20
110.6981164185636
 30
0.0
 11
10.85263991978718
 21
111.5974903155656
 31
0.0
  0
LINE
  5
E7
330
31
100
AcDbEntity
  8
0
 62
7
100
AcDbLine
 10
10.85263991978718
 20
111.5974903155656
 30
0.0
 11
9.953266022799653
 21
110.6981164185636
 31
0.0
  0
LINE
  5
E8
330
31
100
AcDbEntity
  8
0
 62
7
100
AcDbLine
 10
9.953266022799653
 20
110.6981164185636
 30
0.0
 11
9.053892125783024
 21
111.5974903155656
 31
0.0
  0
LINE
  5
E9
330
31
100
AcDbEntity
  8
0
 62
7
100
AcDbLine
 10
13.55076161077886
 20
110.6981164185636
 30
0.0
 11
12.65138771379133
 21
111.5974903155656
 31
0.0
  0
LINE
  5
EA
330
31
100
AcDbEntity
  8
0
 62
7
100
AcDbLine
 10
12.65138771379133
 20
111.5974903155656
 30
0.0
 11
11.75201381678926
 21
110.6981164185636
 31
0.0
  0
LINE
  5
EB
330
31
100
AcDbEntity
  8
0
 62
7
100
AcDbLine
 10
14.45013550778094
 20
111.5974903155656
 30
0.0
 11
13.55076161077886
 21
110.6981164185636
 31
0.0
  0
LINE
  5
EC
330
31
100
AcDbEntity
  8
0
 62
7
100
AcDbLine
 10
9.0000120478071
 20
50.49999472757189
 30
0.0
 11
9.0000120478071
 21
54.24999472757189
 31
0.0
  0
LINE
  5
ED
330
31
100
AcDbEntity
  8
0
 62
7
100
AcDbLine
 10
9.0000120478071
 20
54.24999472757189
 30
0.0
 11
19.0000120478071
 21
54.24999472757189
 31
0.0
  0
LINE
  5
EE
330
31
100
AcDbEntity
  8
0
 62
7
100
AcDbLine
 10
19.0000120478071
 20
38.74999472757191
 30
0.0
 11
9.0000120478071
 21
38.74999472757191
 31
0.0
  0
LINE
  5
EF
330
31
100
AcDbEntity
  8
0
 62
7
100
AcDbLine
 10
9.0000120478071
 20
38.74999472757191
 30
0.0
 11
9.0000120478071
 21
42.49999472757189
 31
0.0
  0
LINE
  5
F0
330
31
100
AcDbEntity
  8
0
 62
7
100
AcDbLine
 10
9.0000120478071
 20
42.49999472757189
 30
0.0
 11
1.2047807104e-05
 21
42.49999472757189
 31
0.0
  0
LINE
  5
F1
330
31
100
AcDbEntity
  8
0
 62
7
100
AcDbLine
 10
9.0000120478071
 20
50.49999472757189
 30
0.0
 11
1.2047807104e-05
 21
50.49999472757189
 31
0.0
  0
LINE
  5
F2
330
31
100
AcDbEntity
  8
0
 62
7
100
AcDbLine
 10
9.0000120478071
 20
67.4999947275719
 30
0.0
 11
9.0000120478071
 21
63.74999472757189
 31
0.0
  0
LINE
  5
F3
330
31
100
AcDbEntity
  8
0
 62
7
100
AcDbLine
 10
9.0000120478071
 20
63.74999472757189
 30
0.0
 11
19.0000120478071
 21
63.74999472757189
 31
0.0
  0
LINE
  5
F4
330
31
100
AcDbEntity
  8
0
 62
7
100
AcDbLine
 10
19.0000120478071
 20
79.2499947275719
 30
0.0
 11
9.0000120478071
 21
79.2499947275719
 31
0.0
  0
LINE
  5
F5
330
31
100
AcDbEntity
  8
0
 62
7
100
AcDbLine
 10
9.0000120478071
 20
79.2499947275719
 30
0.0
 11
9.0000120478071
 21
75.4999947275719
 31
0.0
  0
LINE
  5
F6
330
31
100
AcDbEntity
  8
0
 62
7
100
AcDbLine
 10
9.0000120478071
 20
75.4999947275719
 30
0.0
 11
1.2047807104e-05
 21
75.4999947275719
 31
0.0
  0
LINE
  5
F7
330
31
100
AcDbEntity
  8
0
 62
7
100
AcDbLine
 10
9.0000120478071
 20
67.4999947275719
 30
0.0
 11
1.2047807104e-05
 21
67.4999947275719
 31
0.0
  0
MTEXT
  5
F8
330
31
100
AcDbEntity
  8
0
 62
7
100
AcDbMText
 10
49.92447912675562
 20
58.9999947275719
 30
0.0
 40
2.0
 41
35.94652897797641
 46
0.0
 71
5
 72
5
  1
{\fTahoma|b0|i0|c0|p34;CHINT\PRT36-00(NT00)\PAC690V 160A}
  0
LINE
  5
F9
330
31
100
AcDbEntity
  8
0
 62
7
100
AcDbLine
 10
32.92361827866989
 20
101.6889399603023
 30
0.0
 11
30.47439707389276
 21
101.6889399603023
 31
0.0
  0
ENDBLK
  5
33
330
31
100
AcDbEntity
  8
0
100
AcDbBlockEnd
  0
ENDSEC
  0
SECTION
  2
ENTITIES
  0
INSERT
  5
2F
330
17
100
AcDbEntity
  8
0
 62
2
100
AcDbBlockReference
  2
A$C12C77F24
 10
-1.2047807103954256e-05
 20
5.272428097669035e-06
 30
0.0
  0
ENDSEC
  0
SECTION
  2
OBJECTS
  0
DICTIONARY
  5
A
330
0
100
AcDbDictionary
281
1
  3
ACAD_COLOR
350
B
  3
ACAD_GROUP
350
C
  3
ACAD_LAYOUT
350
D
  3
ACAD_MATERIAL
350
E
  3
ACAD_MLEADERSTYLE
350
F
  3
ACAD_MLINESTYLE
350
10
  3
ACAD_PLOTSETTINGS
350
11
  3
ACAD_PLOTSTYLENAME
350
12
  3
ACAD_SCALELIST
350
14
  3
ACAD_TABLESTYLE
350
15
  3
ACAD_VISUALSTYLE
350
16
  3
EZDXF_META
350
2D
  0
DICTIONARY
  5
B
330
A
100
AcDbDictionary
281
1
  0
DICTIONARY
  5
C
330
A
100
AcDbDictionary
281
1
  0
DICTIONARY
  5
D
330
A
100
AcDbDictionary
281
1
  3
Model
350
1A
  3
Layout1
350
1E
  0
DICTIONARY
  5
E
330
A
100
AcDbDictionary
281
1
  3
ByBlock
350
1F
  3
ByLayer
350
20
  3
Global
350
21
  0
DICTIONARY
  5
F
330
A
100
AcDbDictionary
281
1
  3
Standard
350
2C
  0
DICTIONARY
  5
10
330
A
100
AcDbDictionary
281
1
  3
Standard
350
22
  0
DICTIONARY
  5
11
330
A
100
AcDbDictionary
281
1
  0
ACDBDICTIONARYWDFLT
  5
12
330
A
100
AcDbDictionary
281
1
  3
Normal
350
13
100
AcDbDictionaryWithDefault
340
13
  0
ACDBPLACEHOLDER
  5
13
330
12
  0
DICTIONARY
  5
14
330
A
100
AcDbDictionary
281
1
  0
DICTIONARY
  5
15
330
A
100
AcDbDictionary
281
1
  0
DICTIONARY
  5
16
330
A
100
AcDbDictionary
281
1
  0
LAYOUT
  5
1A
330
D
100
AcDbPlotSettings
  1

  4
A3
  6

 40
7.5
 41
20.0
 42
7.5
 43
20.0
 44
420.0
 45
297.0
 46
0.0
 47
0.0
 48
0.0
 49
0.0
140
0.0
141
0.0
142
1.0
143
1.0
 70
1024
 72
1
 73
0
 74
5
  7

 75
16
 76
0
 77
2
 78
300
147
1.0
148
0.0
149
0.0
100
AcDbLayout
  1
Model
 70
1
 71
0
 10
0.0
 20
0.0
 11
420.0
 21
297.0
 12
0.0
 22
0.0
 32
0.0
 14
1e+20
 24
1e+20
 34
1e+20
 15
-1e+20
 25
-1e+20
 35
-1e+20
146
0.0
 13
0.0
 23
0.0
 33
0.0
 16
1.0
 26
0.0
 36
0.0
 17
0.0
 27
1.0
 37
0.0
 76
1
330
17
  0
LAYOUT
  5
1E
330
D
100
AcDbPlotSettings
  1

  4
A3
  6

 40
7.5
 41
20.0
 42
7.5
 43
20.0
 44
420.0
 45
297.0
 46
0.0
 47
0.0
 48
0.0
 49
0.0
140
0.0
141
0.0
142
1.0
143
1.0
 70
0
 72
1
 73
0
 74
5
  7

 75
16
 76
0
 77
2
 78
300
147
1.0
148
0.0
149
0.0
100
AcDbLayout
  1
Layout1
 70
1
 71
1
 10
0.0
 20
0.0
 11
420.0
 21
297.0
 12
0.0
 22
0.0
 32
0.0
 14
1e+20
 24
1e+20
 34
1e+20
 15
-1e+20
 25
-1e+20
 35
-1e+20
146
0.0
 13
0.0
 23
0.0
 33
0.0
 16
1.0
 26
0.0
 36
0.0
 17
0.0
 27
1.0
 37
0.0
 76
1
330
1B
  0
MATERIAL
  5
1F
102
{ACAD_REACTORS
330
E
102
}
330
E
100
AcDbMaterial
  1
ByBlock
  2

 70
0
 40
1.0
 71
1
 41
1.0
 91
-1023410177
 42
1.0
 72
1
  3

 73
1
 74
1
 75
1
 44
0.5
 73
0
 45
1.0
 46
1.0
 77
1
  4

 78
1
 79
1
170
1
 48
1.0
171
1
  6

172
1
173
1
174
1
140
1.0
141
1.0
175
1
  7

176
1
177
1
178
1
143
1.0
179
1
  8

270
1
271
1
272
1
145
1.0
146
1.0
273
1
  9

274
1
275
1
276
1
 42
1.0
 72
1
  3

 73
1
 74
1
 75
1
 94
63
  0
MATERIAL
  5
20
102
{ACAD_REACTORS
330
E
102
}
330
E
100
AcDbMaterial
  1
ByLayer
  2

 70
0
 40
1.0
 71
1
 41
1.0
 91
-1023410177
 42
1.0
 72
1
  3

 73
1
 74
1
 75
1
 44
0.5
 73
0
 45
1.0
 46
1.0
 77
1
  4

 78
1
 79
1
170
1
 48
1.0
171
1
  6

172
1
173
1
174
1
140
1.0
141
1.0
175
1
  7

176
1
177
1
178
1
143
1.0
179
1
  8

270
1
271
1
272
1
145
1.0
146
1.0
273
1
  9

274
1
275
1
276
1
 42
1.0
 72
1
  3

 73
1
 74
1
 75
1
 94
63
  0
MATERIAL
  5
21
102
{ACAD_REACTORS
330
E
102
}
330
E
100
AcDbMaterial
  1
Global
  2

 70
0
 40
1.0
 71
1
 41
1.0
 91
-1023410177
 42
1.0
 72
1
  3

 73
1
 74
1
 75
1
 44
0.5
 73
0
 45
1.0
 46
1.0
 77
1
  4

 78
1
 79
1
170
1
 48
1.0
171
1
  6

172
1
173
1
174
1
140
1.0
141
1.0
175
1
  7

176
1
177
1
178
1
143
1.0
179
1
  8

270
1
271
1
272
1
145
1.0
146
1.0
273
1
  9

274
1
275
1
276
1
 42
1.0
 72
1
  3

 73
1
 74
1
 75
1
 94
63
  0
MLINESTYLE
  5
22
102
{ACAD_REACTORS
330
10
102
}
330
10
100
AcDbMlineStyle
  2
Standard
 70
0
  3

 62
256
 51
90.0
 52
90.0
 71
2
 49
0.5
 62
256
  6
BYLAYER
 49
-0.5
 62
256
  6
BYLAYER
  0
MLEADERSTYLE
  5
2C
102
{ACAD_REACTORS
330
F
102
}
330
F
100
AcDbMLeaderStyle
179
2
170
2
171
1
172
0
 90
2
 40
0.0
 41
0.0
173
1
 91
-1056964608
 92
-2
290
1
 42
2.0
291
1
 43
8.0
  3
Standard
 44
4.0
300

342
29
174
1
175
1
176
0
178
1
 93
-1056964608
 45
4.0
292
0
297
0
 46
4.0
 94
-1056964608
 47
1.0
 49
1.0
140
1.0
294
1
141
0.0
177
0
142
1.0
295
0
296
0
143
3.75
271
0
272
9
273
9
  0
DICTIONARY
  5
2D
330
A
100
AcDbDictionary
280
1
281
1
  3
CREATED_BY_EZDXF
350
2E
  3
WRITTEN_BY_EZDXF
350
FD
  0
DICTIONARYVAR
  5
2E
330
2D
100
DictionaryVariables
280
0
  1
1.4.4 @ 2026-09-23T14:02:51.395366+00:00
  0
DICTIONARYVAR
  5
FD
330
2D
100
DictionaryVariables
280
0
  1
1.4.4 @ 2026-09-23T14:02:51.644871+00:00
  0
ENDSEC
  0
EOF
