  0
SECTION
  2
HEADER
  9
$ACADVER
  1
AC1032
  9
$ACADMAINTVER
 90
4
  9
$DWGCODEPAGE
  3
ANSI_1252
  9
$LASTSAVEDBY
  1
ezdxf
  9
$REQUIREDVERSIONS
160
0
  9
$INSBASE
 10
0.0
 20
0.0
 30
0.0
  9
$EXTMIN
 10
1e+20
 20
1e+20
 30
1e+20
  9
$EXTMAX
 10
-1e+20
 20
-1e+20
 30
-1e+20
  9
$LIMMIN
 10
0.0
 20
0.0
  9
$LIMMAX
 10
420.0
 20
297.0
  9
$ORTHOMODE
 70
0
  9
$REGENMODE
 70
1
  9
$FILLMODE
 70
1
  9
$QTEXTMODE
 70
0
  9
$MIRRTEXT
 70
1
  9
$LTSCALE
 40
1.0
  9
$ATTMODE
 70
1
  9
$TEXTSIZE
 40
2.5
  9
$TRACEWID
 40
1.0
  9
$TEXTSTYLE
  7
Standard
  9
$CLAYER
  8
0
  9
$CELTYPE
  6
ByLayer
  9
$CECOLOR
 62
256
  9
$CELTSCALE
 40
1.0
  9
$DISPSILH
 70
0
  9
$DIMSCALE
 40
1.0
  9
$DIMASZ
 40
2.5
  9
$DIMEXO
 40
0.625
  9
$DIMDLI
 40
3.75
  9
$DIMRND
 40
0.0
  9
$DIMDLE
 40
0.0
  9
$DIMEXE
 40
1.25
  9
$DIMTP
 40
0.0
  9
$DIMTM
 40
0.0
  9
$DIMTXT
 40
2.5
  9
$DIMCEN
 40
2.5
  9
$DIMTSZ
 40
0.0
  9
$DIMTOL
 70
0
  9
$DIMLIM
 70
0
  9
$DIMTIH
 70
0
  9
$DIMTOH
 70
0
  9
$DIMSE1
 70
0
  9
$DIMSE2
 70
0
  9
$DIMTAD
 70
1
  9
$DIMZIN
 70
8
  9
$DIMBLK
  1

  9
$DIMASO
 70
1
  9
$DIMSHO
 70
1
  9
$DIMPOST
  1

  9
$DIMAPOST
  1

  9
$DIMALT
 70
0
  9
$DIMALTD
 70
3
  9
$DIMALTF
 40
0.03937007874
  9
$DIMLFAC
 40
1.0
  9
$DIMTOFL
 70
1
  9
$DIMTVP
 40
0.0
  9
$DIMTIX
 70
0
  9
$DIMSOXD
 70
0
  9
$DIMSAH
 70
0
  9
$DIMBLK1
  1

  9
$DIMBLK2
  1

  9
$DIMSTYLE
  2
ISO-25
  9
$DIMCLRD
 70
0
  9
$DIMCLRE
 70
0
  9
$DIMCLRT
 70
0
  9
$DIMTFAC
 40
1.0
  9
$DIMGAP
 40
0.625
  9
$DIMJUST
 70
0
  9
$DIMSD1
 70
0
  9
$DIMSD2
 70
0
  9
$DIMTOLJ
 70
0
  9
$DIMTZIN
 70
8
  9
$DIMALTZ
 70
0
  9
$DIMALTTZ
 70
0
  9
$DIMUPT
 70
0
  9
$DIMDEC
 70
2
  9
$DIMTDEC
 70
2
  9
$DIMALTU
 70
2
  9
$DIMALTTD
 70
3
  9
$DIMTXSTY
  7
Standard
  9
$DIMAUNIT
 70
0
  9
$DIMADEC
 70
0
  9
$DIMALTRND
 40
0.0
  9
$DIMAZIN
 70
0
  9
$DIMDSEP
 70
44
  9
$DIMATFIT
 70
3
  9
$DIMFRAC
 70
0
  9
$DIMLDRBLK
  1

  9
$DIMLUNIT
 70
2
  9
$DIMLWD
 70
-2
  9
$DIMLWE
 70
-2
  9
$DIMTMOVE
 70
0
  9
$DIMFXL
 40
1.0
  9
$DIMFXLON
 70
0
  9
$DIMJOGANG
 40
0.785398163397
  9
$DIMTFILL
 70
0
  9
$DIMTFILLCLR
 70
0
  9
$DIMARCSYM
 70
0
  9
$DIMLTYPE
  6

  9
$DIMLTEX1
  6

  9
$DIMLTEX2
  6

  9
$DIMTXTDIRECTION
 70
0
  9
$LUNITS
 70
2
  9
$LUPREC
 70
4
  9
$SKETCHINC
 40
1.0
  9
$FILLETRAD
 40
10.0
  9
$AUNITS
 70
0
  9
$AUPREC
 70
2
  9
$MENU
  1
.
  9
$ELEVATION
 40
0.0
  9
$PELEVATION
 40
0.0
  9
$THICKNESS
 40
0.0
  9
$LIMCHECK
 70
0
  9
$CHAMFERA
 40
0.0
  9
$CHAMFERB
 40
0.0
  9
$CHAMFERC
 40
0.0
  9
$CHAMFERD
 40
0.0
  9
$SKPOLY
 70
0
  9
$TDCREATE
 40
2461307.877685185
  9
$TDUCREATE
 40
2458532.153996898
  9
$TDUPDATE
 40
2461307.877696759
  9
$TDUUPDATE
 40
2458532.1544311
  9
$TDINDWG
 40
0.0
  9
$TDUSRTIMER
 40
0.0
  9
$USRTIMER
 70
1
  9
$ANGBASE
 50
0.0
  9
$ANGDIR
 70
0
  9
$PDMODE
 70
0
  9
$PDSIZE
 40
0.0
  9
$PLINEWID
 40
0.0
  9
$SPLFRAME
 70
0
  9
$SPLINETYPE
 70
6
  9
$SPLINESEGS
 70
8
  9
$HANDSEED
  5
2FE
  9
$SURFTAB1
 70
6
  9
$SURFTAB2
 70
6
  9
$SURFTYPE
 70
6
  9
$SURFU
 70
6
  9
$SURFV
 70
6
  9
$UCSBASE
  2

  9
$UCSNAME
  2

  9
$UCSORG
 10
0.0
 20
0.0
 30
0.0
  9
$UCSXDIR
 10
1.0
 20
0.0
 30
0.0
  9
$UCSYDIR
 10
0.0
 20
1.0
 30
0.0
  9
$UCSORTHOREF
  2

  9
$UCSORTHOVIEW
 70
0
  9
$UCSORGTOP
 10
0.0
 20
0.0
 30
0.0
  9
$UCSORGBOTTOM
 10
0.0
 20
0.0
 30
0.0
  9
$UCSORGLEFT
 10
0.0
 20
0.0
 30
0.0
  9
$UCSORGRIGHT
 10
0.0
 20
0.0
 30
0.0
  9
$UCSORGFRONT
 10
0.0
 20
0.0
 30
0.0
  9
$UCSORGBACK
 10
0.0
 20
0.0
 30
0.0
  9
$PUCSBASE
  2

  9
$PUCSNAME
  2

  9
$PUCSORG
 10
0.0
 20
0.0
 30
0.0
  9
$PUCSXDIR
 10
1.0
 20
0.0
 30
0.0
  9
$PUCSYDIR
 10
0.0
 20
1.0
 30
0.0
  9
$PUCSORTHOREF
  2

  9
$PUCSORTHOVIEW
 70
0
  9
$PUCSORGTOP
 10
0.0
 20
0.0
 30
0.0
  9
$PUCSORGBOTTOM
 10
0.0
 20
0.0
 30
0.0
  9
$PUCSORGLEFT
 10
0.0
 20
0.0
 30
0.0
  9
$PUCSORGRIGHT
 10
0.0
 20
0.0
 30
0.0
  9
$PUCSORGFRONT
 10
0.0
 20
0.0
 30
0.0
  9
$PUCSORGBACK
 10
0.0
 20
0.0
 30
0.0
  9
$USERI1
 70
0
  9
$USERI2
 70
0
  9
$USERI3
 70
0
  9
$USERI4
 70
0
  9
$USERI5
 70
0
  9
$USERR1
 40
0.0
  9
$USERR2
 40
0.0
  9
$USERR3
 40
0.0
  9
$USERR4
 40
0.0
  9
$USERR5
 40
0.0
  9
$WORLDVIEW
 70
1
  9
$SHADEDGE
 70
3
  9
$SHADEDIF
 70
70
  9
$TILEMODE
 70
1
  9
$MAXACTVP
 70
64
  9
$PINSBASE
 10
0.0
 20
0.0
 30
0.0
  9
$PLIMCHECK
 70
0
  9
$PEXTMIN
 10
1e+20
 20
1e+20
 30
1e+20
  9
$PEXTMAX
 10
-1e+20
 20
-1e+20
 30
-1e+20
  9
$PLIMMIN
 10
0.0
 20
0.0
  9
$PLIMMAX
 10
420.0
 20
297.0
  9
$UNITMODE
 70
0
  9
$VISRETAIN
 70
1
  9
$PLINEGEN
 70
0
  9
$PSLTSCALE
 70
1
  9
$TREEDEPTH
 70
3020
  9
$CMLSTYLE
  2
Standard
  9
$CMLJUST
 70
0
  9
$CMLSCALE
 40
20.0
  9
$PROXYGRAPHICS
 70
1
  9
$MEASUREMENT
 70
1
  9
$CELWEIGHT
370
-1
  9
$ENDCAPS
280
0
  9
$JOINSTYLE
280
0
  9
$LWDISPLAY
290
0
  9
$INSUNITS
 70
4
  9
$HYPERLINKBASE
  1

  9
$STYLESHEET
  1

  9
$XEDIT
290
1
  9
$CEPSNTYPE
380
0
  9
$PSTYLEMODE
290
1
  9
$FINGERPRINTGUID
  2
{CB7505CF-969A-40E8-A27A-6303982ED4C7}
  9
$VERSIONGUID
  2
{8996DB17-9FC1-4D7B-B6DE-E5ADA0D6FAE5}
  9
$EXTNAMES
290
1
  9
$PSVPSCALE
 40
0.0
  9
$OLESTARTUP
290
0
  9
$SORTENTS
280
127
  9
$INDEXCTL
280
0
  9
$HIDETEXT
280
1
  9
$XCLIPFRAME
280
1
  9
$HALOGAP
280
0
  9
$OBSCOLOR
 70
257
  9
$OBSLTYPE
280
0
  9
$INTERSECTIONDISPLAY
280
0
  9
$INTERSECTIONCOLOR
 70
257
  9
$DIMASSOC
280
2
  9
$PROJECTNAME
  1

  9
$CAMERADISPLAY
290
0
  9
$LENSLENGTH
 40
50.0
  9
$CAMERAHEIGHT
 40
0.0
  9
$STEPSPERSEC
 40
24.0
  9
$STEPSIZE
 40
100.0
  9
$3DDWFPREC
 40
2.0
  9
$PSOLWIDTH
 40
0.005
  9
$PSOLHEIGHT
 40
0.08
  9
$LOFTANG1
 40
1.570796326795
  9
$LOFTANG2
 40
1.570796326795
  9
$LOFTMAG1
 40
0.0
  9
$LOFTMAG2
 40
0.0
  9
$LOFTPARAM
 70
7
  9
$LOFTNORMALS
280
1
  9
$LATITUDE
 40
37.795
  9
$LONGITUDE
 40
-122.394
  9
$NORTHDIRECTION
 40
0.0
  9
$TIMEZONE
 70
-8000
  9
$LIGHTGLYPHDISPLAY
280
1
  9
$TILEMODELIGHTSYNCH
280
1
  9
$CMATERIAL
347
20
  9
$SOLIDHIST
280
0
  9
$SHOWHIST
280
1
  9
$DWFFRAME
280
2
  9
$DGNFRAME
280
2
  9
$REALWORLDSCALE
290
1
  9
$INTERFERECOLOR
 62
256
  9
$CSHADOW
280
0
  9
$SHADOWPLANELOCATION
 40
0.0
  0
ENDSEC
  0
SECTION
  2
CLASSES
  0
CLASS
  1
ACDBDICTIONARYWDFLT
  2
AcDbDictionaryWithDefault
  3
ObjectDBX Classes
 90
0
 91
0
280
0
281
0
  0
CLASS
  1
SUN
  2
AcDbSun
  3
SCENEOE
 90
1153
 91
0
280
0
281
0
  0
CLASS
  1
VISUALSTYLE
  2
AcDbVisualStyle
  3
ObjectDBX Classes
 90
4095
 91
0
280
0
281
0
  0
CLASS
  1
MATERIAL
  2
AcDbMaterial
  3
ObjectDBX Classes
 90
1153
 91
0
280
0
281
0
  0
CLASS
  1
SCALE
  2
AcDbScale
  3
ObjectDBX Classes
 90
1153
 91
0
280
0
281
0
  0
CLASS
  1
TABLESTYLE
  2
AcDbTableStyle
  3
ObjectDBX Classes
 90
4095
 91
0
280
0
281
0
  0
CLASS
  1
MLEADERSTYLE
  2
AcDbMLeaderStyle
  3
ACDB_MLEADERSTYLE_CLASS
 90
4095
 91
0
280
0
281
0
  0
CLASS
  1
DICTIONARYVAR
  2
AcDbDictionaryVar
  3
ObjectDBX Classes
 90
0
 91
0
280
0
281
0
  0
CLASS
  1
CELLSTYLEMAP
  2
AcDbCellStyleMap
  3
ObjectDBX Classes
 90
1152
 91
0
280
0
281
0
  0
CLASS
  1
MENTALRAYRENDERSETTINGS
  2
AcDbMentalRayRenderSettings
  3
SCENEOE
 90
1024
 91
0
280
0
281
0
  0
CLASS
  1
ACDBDETAILVIEWSTYLE
  2
AcDbDetailViewStyle
  3
ObjectDBX Classes
 90
1025
 91
0
280
0
281
0
  0
CLASS
  1
ACDBSECTIONVIEWSTYLE
  2
AcDbSectionViewStyle
  3
ObjectDBX Classes
 90
1025
 91
0
280
0
281
0
  0
CLASS
  1
RASTERVARIABLES
  2
AcDbRasterVariables
  3
ISM
 90
0
 91
0
280
0
281
0
  0
CLASS
  1
LAYOUT
  2
AcDbLayout
  3
ObjectDBX Classes
 90
0
 91
0
280
0
281
0
  0
CLASS
  1
ACDBPLACEHOLDER
  2
AcDbPlaceHolder
  3
ObjectDBX Classes
 90
0
 91
0
280
0
281
0
  0
ENDSEC
  0
SECTION
  2
TABLES
  0
TABLE
  2
VPORT
  5
8
330
0
100
AcDbSymbolTable
 70
1
  0
VPORT
  5
23
330
8
100
AcDbSymbolTableRecord
100
AcDbViewportTableRecord
  2
*Active
 70
0
 10
0.0
 20
0.0
 11
1.0
 21
1.0
 12
0.0
 22
0.0
 13
0.0
 23
0.0
 14
0.5
 24
0.5
 15
0.5
 25
0.5
 16
0.0
 26
0.0
 36
1.0
 17
0.0
 27
0.0
 37
0.0
 40
1000.0
 41
1.34
 42
50.0
 43
0.0
 44
0.0
 50
0.0
 51
0.0
 71
0
 72
1000
 73
1
 74
3
 75
0
 76
0
 77
0
 78
0
281
0
 65
0
146
0.0
  0
ENDTAB
  0
TABLE
  2
LTYPE
  5
2
330
0
100
AcDbSymbolTable
 70
3
  0
LTYPE
  5
24
330
2
100
AcDbSymbolTableRecord
100
AcDbLinetypeTableRecord
  2
ByBlock
 70
0
  3

 72
65
 73
0
 40
0.0
  0
LTYPE
  5
25
330
2
100
AcDbSymbolTableRecord
100
AcDbLinetypeTableRecord
  2
ByLayer
 70
0
  3

 72
65
 73
0
 40
0.0
  0
LTYPE
  5
26
330
2
100
AcDbSymbolTableRecord
100
AcDbLinetypeTableRecord
  2
Continuous
 70
0
  3

 72
65
 73
0
 40
0.0
  0
ENDTAB
  0
TABLE
  2
LAYER
  5
1
330
0
100
AcDbSymbolTable
 70
3
  0
LAYER
  5
27
330
1
100
AcDbSymbolTableRecord
100
AcDbLayerTableRecord
  2
0
 70
0
 62
7
  6
Continuous
370
-3
390
13
347
21
  0
LAYER
  5
28
330
1
100
AcDbSymbolTableRecord
100
AcDbLayerTableRecord
  2
Defpoints
 70
0
 62
7
  6
Continuous
290
0
370
-3
390
13
347
21
  0
LAYER
  5
2F9
330
1
100
AcDbSymbolTableRecord
100
AcDbLayerTableRecord
  2
00
 70
0
 62
7
  6
Continuous
370
0
390
13
347
21
  0
ENDTAB
  0
TABLE
  2
STYLE
  5
5
330
0
100
AcDbSymbolTable
 70
2
  0
STYLE
  5
29
330
5
100
AcDbSymbolTableRecord
100
AcDbTextStyleTableRecord
  2
Standard
 70
0
 40
0.0
 41
1.0
 50
0.0
 71
0
 42
2.5
  3
txt
  4

  0
STYLE
  5
2FA
330
5
100
AcDbSymbolTableRecord
100
AcDbTextStyleTableRecord
  2
Helvetica-Narrow
 70
0
 40
0.0
 41
1.0
 50
0.0
 71
0
 42
0.2
  3

  4

  0
ENDTAB
  0
TABLE
  2
VIEW
  5
7
330
0
100
AcDbSymbolTable
 70
0
  0
ENDTAB
  0
TABLE
  2
UCS
  5
6
330
0
100
AcDbSymbolTable
 70
0
  0
ENDTAB
  0
TABLE
  2
APPID
  5
3
330
0
100
AcDbSymbolTable
 70
3
  0
APPID
  5
2A
330
3
100
AcDbSymbolTableRecord
100
AcDbRegAppTableRecord
  2
ACAD
 70
0
  0
APPID
  5
2FB
330
3
100
AcDbSymbolTableRecord
100
AcDbRegAppTableRecord
  2
HATCHBACKGROUNDCOLOR
 70
0
  0
APPID
  5
2FC
330
3
100
AcDbSymbolTableRecord
100
AcDbRegAppTableRecord
  2
EZDXF
 70
0
  0
ENDTAB
  0
TABLE
  2
DIMSTYLE
  5
4
330
0
100
AcDbSymbolTable
 70
1
100
AcDbDimStyleTable
  0
DIMSTYLE
105
2B
330
4
100
AcDbSymbolTableRecord
100
AcDbDimStyleTableRecord
  2
Standard
 70
0
 40
1.0
 41
2.5
 42
0.625
 43
3.75
 44
1.25
 45
0.0
 46
0.0
 47
0.0
 48
0.0
 49
2.5
140
2.5
141
2.5
142
0.0
143
0.03937007874
144
1.0
145
0.0
146
1.0
147
0.625
148
0.0
 69
0
 70
0
 71
0
 72
0
 73
0
 74
0
 75
0
 76
0
 77
1
 78
8
 79
3
170
0
171
3
172
1
173
0
174
0
175
0
176
0
177
0
178
0
179
2
271
2
272
2
273
2
274
3
275
0
276
0
277
2
278
44
279
0
280
0
281
0
282
0
283
0
284
8
285
0
286
0
288
0
289
3
290
0
371
-2
372
-2
  0
ENDTAB
  0
TABLE
  2
BLOCK_RECORD
  5
9
330
0
100
AcDbSymbolTable
 70
4
  0
BLOCK_RECORD
  5
17
330
9
100
AcDbSymbolTableRecord
100
AcDbBlockTableRecord
  2
*Model_Space
340
1A
 70
0
280
1
281
0
  0
BLOCK_RECORD
  5
1B
330
9
100
AcDbSymbolTableRecord
100
AcDbBlockTableRecord
  2
*Paper_Space
340
1E
 70
0
280
1
281
0
  0
BLOCK_RECORD
  5
31
330
9
100
AcDbSymbolTableRecord
100
AcDbBlockTableRecord
  2
*U468
340
0
 70
0
280
1
281
0
  0
BLOCK_RECORD
  5
2ED
330
9
100
AcDbSymbolTableRecord
100
AcDbBlockTableRecord
  2
Nuintek
340
0
 70
0
280
1
281
0
  0
ENDTAB
  0
ENDSEC
  0
SECTION
  2
BLOCKS
  0
BLOCK
  5
18
330
17
100
AcDbEntity
  8
0
100
AcDbBlockBegin
  2
*Model_Space
 70
0
 10
0.0
 20
0.0
 30
0.0
  3
*Model_Space
  1

  0
ENDBLK
  5
19
330
17
100
AcDbEntity
  8
0
100
AcDbBlockEnd
  0
BLOCK
  5
1C
330
1B
100
AcDbEntity
  8
0
100
AcDbBlockBegin
  2
*Paper_Space
 70
0
 10
0.0
 20
0.0
 30
0.0
  3
*Paper_Space
  1

  0
ENDBLK
  5
1D
330
1B
100
AcDbEntity
  8
0
100
AcDbBlockEnd
  0
BLOCK
  5
32
330
31
100
AcDbEntity
  8
0
100
AcDbBlockBegin
  2
*U468
 70
1
 10
0.0
 20
0.0
 30
0.0
  3
*U468
  1

  0
LINE
  5
34
330
31
100
AcDbEntity
  8
0
 62
74
100
AcDbLine
 10
85.0
 20
48.22143112007757
 30
0.0
 11
85.0
 21
-161.7785688799224
 31
0.0
  0
LINE
  5
35
330
31
100
AcDbEntity
  8
0
 62
74
100
AcDbLine
 10
-85.0
 20
-161.7785688799224
 30
0.0
 11
-85.0
 21
48.22143112007757
 31
0.0
  0
LINE
  5
36
330
31
100
AcDbEntity
  8
0
 62
74
100
AcDbLine
 10
85.0
 20
-161.7785688799224
 30
0.0
 11
-85.0
 21
-161.7785688799224
 31
0.0
  0
LINE
  5
37
330
31
100
AcDbEntity
  8
0
 62
74
100
AcDbLine
 10
-75.0
 20
58.22143112007757
 30
0.0
 11
75.0
 21
58.22143112007757
 31
0.0
  0
LINE
  5
38
330
31
100
AcDbEntity
  8
0
 62
74
100
AcDbLine
 10
-75.0
 20
58.22143112007757
 30
0.0
 11
75.0
 21
58.22143112007757
 31
0.0
  0
ARC
  5
39
330
31
100
AcDbEntity
  8
0
 62
74
100
AcDbCircle
 10
-75.0
 20
48.22143112007757
 30
0.0
 40
10.0
100
AcDbArc
 50
90.0
 51
180.0
  0
LINE
  5
3A
330
31
100
AcDbEntity
  8
00
 62
74
370
5
100
AcDbLine
 10
56.0
 20
122.2214311200921
 30
0.0
 11
55.00000000008731
 21
123.2214311200775
 31
0.0
  0
LINE
  5
3B
330
31
100
AcDbEntity
  8
0
 62
74
370
5
100
AcDbLine
 10
55.00000000008731
 20
121.2214311200775
 30
0.0
 11
56.0
 21
122.2214311200921
 31
0.0
  0
LINE
  5
3C
330
31
100
AcDbEntity
  8
0
 62
74
370
5
100
AcDbLine
 10
55.00000000008731
 20
119.2214311200775
 30
0.0
 11
56.0
 21
120.221431120063
 31
0.0
  0
LINE
  5
3D
330
31
100
AcDbEntity
  8
00
 62
74
370
5
100
AcDbLine
 10
56.0
 20
120.221431120063
 30
0.0
 11
55.00000000008731
 21
121.2214311200775
 31
0.0
  0
LINE
  5
3E
330
31
100
AcDbEntity
  8
00
 62
74
370
5
100
AcDbLine
 10
56.0
 20
118.2214311200921
 30
0.0
 11
55.00000000008731
 21
119.2214311200775
 31
0.0
  0
LINE
  5
3F
330
31
100
AcDbEntity
  8
00
 62
74
370
5
100
AcDbLine
 10
56.0
 20
118.2214311200921
 30
0.0
 11
55.00000000008731
 21
119.2214311200775
 31
0.0
  0
LINE
  5
40
330
31
100
AcDbEntity
  8
00
 62
74
370
5
100
AcDbLine
 10
44.00000000008731
 20
122.2214311200921
 30
0.0
 11
45.0
 21
123.2214311200775
 31
0.0
  0
LINE
  5
41
330
31
100
AcDbEntity
  8
0
 62
74
370
5
100
AcDbLine
 10
45.0
 20
121.2214311200775
 30
0.0
 11
44.00000000008731
 21
122.2214311200921
 31
0.0
  0
LINE
  5
42
330
31
100
AcDbEntity
  8
0
 62
74
370
5
100
AcDbLine
 10
45.0
 20
119.2214311200775
 30
0.0
 11
44.00000000008731
 21
120.221431120063
 31
0.0
  0
LINE
  5
43
330
31
100
AcDbEntity
  8
00
 62
74
370
5
100
AcDbLine
 10
44.00000000008731
 20
120.221431120063
 30
0.0
 11
45.0
 21
121.2214311200775
 31
0.0
  0
LINE
  5
44
330
31
100
AcDbEntity
  8
00
 62
74
370
5
100
AcDbLine
 10
44.00000000008731
 20
118.2214311200921
 30
0.0
 11
45.0
 21
119.2214311200775
 31
0.0
  0
LINE
  5
45
330
31
100
AcDbEntity
  8
00
 62
74
370
5
100
AcDbLine
 10
44.00000000008731
 20
118.2214311200921
 30
0.0
 11
45.0
 21
119.2214311200775
 31
0.0
  0
LINE
  5
46
330
31
100
AcDbEntity
  8
00
 62
74
370
5
100
AcDbLine
 10
45.0
 20
123.2214311200775
 30
0.0
 11
55.00000000008731
 21
123.2214311200775
 31
0.0
  0
LINE
  5
47
330
31
100
AcDbEntity
  8
0
 62
74
370
5
100
AcDbLine
 10
55.00000000008731
 20
121.2214311200775
 30
0.0
 11
45.0
 21
121.2214311200775
 31
0.0
  0
LINE
  5
48
330
31
100
AcDbEntity
  8
0
 62
74
370
5
100
AcDbLine
 10
55.00000000008731
 20
119.2214311200775
 30
0.0
 11
45.0
 21
119.2214311200775
 31
0.0
  0
LINE
  5
49
330
31
100
AcDbEntity
  8
00
 62
74
370
5
100
AcDbLine
 10
45.0
 20
121.2214311200775
 30
0.0
 11
55.00000000008731
 21
121.2214311200775
 31
0.0
  0
LINE
  5
4A
330
31
100
AcDbEntity
  8
00
 62
74
370
5
100
AcDbLine
 10
45.0
 20
119.2214311200775
 30
0.0
 11
55.00000000008731
 21
119.2214311200775
 31
0.0
  0
LINE
  5
4B
330
31
100
AcDbEntity
  8
00
 62
74
370
5
100
AcDbLine
 10
45.0
 20
119.2214311200775
 30
0.0
 11
55.00000000008731
 21
119.2214311200775
 31
0.0
  0
LINE
  5
4C
330
31
100
AcDbEntity
  8
0
 62
74
370
5
100
AcDbLine
 10
55.00000000008731
 20
102.7131206219317
 30
0.0
 11
55.00000000008731
 21
103.1484311200736
 31
0.0
  0
LINE
  5
4D
330
31
100
AcDbEntity
  8
00
 62
74
370
5
100
AcDbLine
 10
56.0
 20
116.221431120063
 30
0.0
 11
55.00000000008731
 21
117.2214311200775
 31
0.0
  0
LINE
  5
4E
330
31
100
AcDbEntity
  8
0
 62
74
370
5
100
AcDbLine
 10
55.00000000008731
 20
115.2214311200775
 30
0.0
 11
56.0
 21
116.221431120063
 31
0.0
  0
LINE
  5
4F
330
31
100
AcDbEntity
  8
00
 62
74
370
5
100
AcDbLine
 10
56.0
 20
114.2214311200775
 30
0.0
 11
55.00000000008731
 21
115.2214311200775
 31
0.0
  0
LINE
  5
50
330
31
100
AcDbEntity
  8
00
 62
74
370
5
100
AcDbLine
 10
56.0
 20
116.221431120063
 30
0.0
 11
55.00000000008731
 21
117.2214311200775
 31
0.0
  0
LINE
  5
51
330
31
100
AcDbEntity
  8
0
 62
74
370
5
100
AcDbLine
 10
55.00000000008731
 20
115.2214311200775
 30
0.0
 11
56.0
 21
116.221431120063
 31
0.0
  0
ARC
  5
52
330
31
100
AcDbEntity
  8
00
 62
74
370
5
100
AcDbCircle
 10
57.875
 20
108.3781503654434
 30
0.0
 40
2.773099431950476
100
AcDbArc
 50
18.8097763490431
 51
161.1902236509568
  0
ARC
  5
53
330
31
100
AcDbEntity
  8
00
 62
74
370
5
100
AcDbCircle
 10
57.875
 20
105.9187118747038
 30
0.0
 40
2.773099431950476
100
AcDbArc
 50
198.8097763490431
 51
341.1902236509569
  0
LINE
  5
54
330
31
100
AcDbEntity
  8
00
 62
74
370
5
100
AcDbLine
 10
55.25000000008731
 20
105.0245891429192
 30
0.0
 11
55.25000000008731
 21
109.2722730972134
 31
0.0
  0
LINE
  5
55
330
31
100
AcDbEntity
  8
00
 62
74
370
5
100
AcDbLine
 10
60.50000000008731
 20
109.2722730972134
 30
0.0
 11
60.50000000008731
 21
105.0245891429192
 31
0.0
  0
LINE
  5
56
330
31
100
AcDbEntity
  8
0
 62
74
370
5
100
AcDbLine
 10
55.00000000008731
 20
111.2214311200775
 30
0.0
 11
56.0
 21
112.221431120063
 31
0.0
  0
LINE
  5
57
330
31
100
AcDbEntity
  8
00
 62
74
370
5
100
AcDbLine
 10
56.0
 20
112.221431120063
 30
0.0
 11
55.00000000008731
 21
113.2214311200775
 31
0.0
  0
LINE
  5
58
330
31
100
AcDbEntity
  8
00
 62
74
370
5
100
AcDbLine
 10
56.0
 20
111.1484311200736
 30
0.0
 11
56.0
 21
112.221431120063
 31
0.0
  0
LINE
  5
59
330
31
100
AcDbEntity
  8
0
 62
74
370
5
100
AcDbLine
 10
55.00000000008731
 20
113.2214311200775
 30
0.0
 11
56.0
 21
114.2214311200775
 31
0.0
  0
LINE
  5
5A
330
31
100
AcDbEntity
  8
0
 62
74
370
5
100
AcDbLine
 10
55.98577340960037
 20
99.69889403151753
 30
0.0
 11
56.0
 21
99.7131206219317
 31
0.0
  0
LINE
  5
5B
330
31
100
AcDbEntity
  8
0
 62
74
370
5
100
AcDbLine
 10
55.98577340960037
 20
99.69889403151753
 30
0.0
 11
56.0
 21
99.7131206219317
 31
0.0
  0
LINE
  5
5C
330
31
100
AcDbEntity
  8
0
 62
74
370
5
100
AcDbLine
 10
57.75
 20
99.69889403151753
 30
0.0
 11
55.50000000008731
 21
99.69889403151753
 31
0.0
  0
LINE
  5
5D
330
31
100
AcDbEntity
  8
0
 62
74
370
5
100
AcDbLine
 10
57.75
 20
97.69889403150296
 30
0.0
 11
55.50000000008731
 21
97.69889403150296
 31
0.0
  0
ARC
  5
5E
330
31
100
AcDbEntity
  8
0
 62
74
370
5
100
AcDbCircle
 10
59.56028007919667
 20
98.69889403151753
 30
0.0
 40
0.5
100
AcDbArc
 50
270.0
 51
90.0
  0
LINE
  5
5F
330
31
100
AcDbEntity
  8
0
 62
74
370
5
100
AcDbLine
 10
59.56028007919667
 20
99.19889403151751
 30
0.0
 11
57.75
 21
99.69889403151753
 31
0.0
  0
LINE
  5
60
330
31
100
AcDbEntity
  8
0
 62
74
370
5
100
AcDbLine
 10
59.56028007919667
 20
98.19889403151751
 30
0.0
 11
57.75
 21
97.69889403150296
 31
0.0
  0
LINE
  5
61
330
31
100
AcDbEntity
  8
0
 62
74
370
5
100
AcDbLine
 10
55.00000000008731
 20
100.7131206219317
 30
0.0
 11
56.0
 21
101.7131206219171
 31
0.0
  0
LINE
  5
62
330
31
100
AcDbEntity
  8
00
 62
74
370
5
100
AcDbLine
 10
56.0
 20
101.7131206219171
 30
0.0
 11
55.00000000008731
 21
102.7131206219317
 31
0.0
  0
LINE
  5
63
330
31
100
AcDbEntity
  8
0
 62
74
370
5
100
AcDbLine
 10
55.00000000008731
 20
96.7131206219317
 30
0.0
 11
56.0
 21
97.71312062191714
 31
0.0
  0
LINE
  5
64
330
31
100
AcDbEntity
  8
00
 62
74
370
5
100
AcDbLine
 10
56.0
 20
99.7131206219317
 30
0.0
 11
55.00000000008731
 21
100.7131206219317
 31
0.0
  0
LINE
  5
65
330
31
100
AcDbEntity
  8
0
 62
74
370
5
100
AcDbLine
 10
55.00000000008731
 20
96.7131206219317
 30
0.0
 11
56.0
 21
97.71312062191714
 31
0.0
  0
LINE
  5
66
330
31
100
AcDbEntity
  8
00
 62
74
370
5
100
AcDbLine
 10
56.0
 20
99.7131206219317
 30
0.0
 11
55.00000000008731
 21
100.7131206219317
 31
0.0
  0
ARC
  5
67
330
31
100
AcDbEntity
  8
00
 62
74
370
5
100
AcDbCircle
 10
57.875
 20
93.94283986730147
 30
0.0
 40
2.773099431950476
100
AcDbArc
 50
18.8097763490431
 51
161.1902236509568
  0
ARC
  5
68
330
31
100
AcDbEntity
  8
00
 62
74
370
5
100
AcDbCircle
 10
57.875
 20
91.48340137654736
 30
0.0
 40
2.773099431950476
100
AcDbArc
 50
198.8097763490431
 51
341.1902236509569
  0
ARC
  5
69
330
31
100
AcDbEntity
  8
00
 62
74
370
5
100
AcDbCircle
 10
57.875
 20
91.48340137654736
 30
0.0
 40
2.773099431950476
100
AcDbArc
 50
198.8097763490431
 51
341.1902236509569
  0
LINE
  5
6A
330
31
100
AcDbEntity
  8
0
 62
74
100
AcDbLine
 10
56.01271924990578
 20
89.42865300579867
 30
0.0
 11
56.01346010700217
 21
88.71312062191714
 31
0.0
  0
LINE
  5
6B
330
31
100
AcDbEntity
  8
00
 62
74
370
5
100
AcDbLine
 10
60.50000000008731
 20
94.83696259907151
 30
0.0
 11
60.50000000008731
 21
90.58927864477732
 31
0.0
  0
LINE
  5
6C
330
31
100
AcDbEntity
  8
00
 62
74
370
5
100
AcDbLine
 10
55.25000000008731
 20
90.58927864477732
 30
0.0
 11
55.25000000008731
 21
94.83696259905697
 31
0.0
  0
LINE
  5
6D
330
31
100
AcDbEntity
  8
0
 62
74
370
5
100
AcDbLine
 10
60.50000000008731
 20
90.58927864482098
 30
0.0
 11
60.50000000008731
 21
94.83696259907151
 31
0.0
  0
LINE
  5
6E
330
31
100
AcDbEntity
  8
00
 62
74
370
5
100
AcDbLine
 10
60.5
 20
90.58927864477732
 30
0.0
 11
60.5
 21
94.83696259910062
 31
0.0
  0
LINE
  5
6F
330
31
100
AcDbEntity
  8
0
 62
74
370
5
100
AcDbLine
 10
45.0
 20
102.7131206219317
 30
0.0
 11
45.0
 21
103.1484311200736
 31
0.0
  0
LINE
  5
70
330
31
100
AcDbEntity
  8
00
 62
74
370
5
100
AcDbLine
 10
44.00000000008731
 20
116.221431120063
 30
0.0
 11
45.0
 21
117.2214311200775
 31
0.0
  0
LINE
  5
71
330
31
100
AcDbEntity
  8
0
 62
74
370
5
100
AcDbLine
 10
45.0
 20
115.2214311200775
 30
0.0
 11
44.00000000008731
 21
116.221431120063
 31
0.0
  0
LINE
  5
72
330
31
100
AcDbEntity
  8
00
 62
74
370
5
100
AcDbLine
 10
44.00000000008731
 20
114.2214311200775
 30
0.0
 11
45.0
 21
115.2214311200775
 31
0.0
  0
LINE
  5
73
330
31
100
AcDbEntity
  8
00
 62
74
370
5
100
AcDbLine
 10
44.00000000008731
 20
116.221431120063
 30
0.0
 11
45.0
 21
117.2214311200775
 31
0.0
  0
LINE
  5
74
330
31
100
AcDbEntity
  8
0
 62
74
370
5
100
AcDbLine
 10
45.0
 20
115.2214311200775
 30
0.0
 11
44.00000000008731
 21
116.221431120063
 31
0.0
  0
ARC
  5
75
330
31
100
AcDbEntity
  8
00
 62
74
370
5
100
AcDbCircle
 10
42.12500000008731
 20
108.3781503654434
 30
0.0
 40
2.773099431950017
100
AcDbArc
 50
18.8097763490431
 51
161.1902236509568
  0
LINE
  5
76
330
31
100
AcDbEntity
  8
00
 62
74
370
5
100
AcDbLine
 10
44.75000000008731
 20
105.0245891429192
 30
0.0
 11
44.75000000008731
 21
109.2722730972134
 31
0.0
  0
ARC
  5
77
330
31
100
AcDbEntity
  8
00
 62
74
370
5
100
AcDbCircle
 10
42.12500000008731
 20
105.9187118747038
 30
0.0
 40
2.773099431950017
100
AcDbArc
 50
198.8097763490431
 51
341.1902236509569
  0
LINE
  5
78
330
31
100
AcDbEntity
  8
00
 62
74
370
5
100
AcDbLine
 10
39.5
 20
109.2722730972134
 30
0.0
 11
39.5
 21
105.0245891429483
 31
0.0
  0
LINE
  5
79
330
31
100
AcDbEntity
  8
0
 62
74
370
5
100
AcDbLine
 10
45.0
 20
111.2214311200775
 30
0.0
 11
44.00000000008731
 21
112.221431120063
 31
0.0
  0
LINE
  5
7A
330
31
100
AcDbEntity
  8
00
 62
74
370
5
100
AcDbLine
 10
44.00000000008731
 20
112.221431120063
 30
0.0
 11
45.0
 21
113.2214311200775
 31
0.0
  0
LINE
  5
7B
330
31
100
AcDbEntity
  8
0
 62
74
370
5
100
AcDbLine
 10
45.0
 20
113.2214311200775
 30
0.0
 11
44.00000000008731
 21
114.2214311200775
 31
0.0
  0
LINE
  5
7C
330
31
100
AcDbEntity
  8
0
 62
74
370
5
100
AcDbLine
 10
44.01422659051604
 20
99.69889403151753
 30
0.0
 11
44.00000000008731
 21
99.7131206219317
 31
0.0
  0
LINE
  5
7D
330
31
100
AcDbEntity
  8
0
 62
74
370
5
100
AcDbLine
 10
44.01422659051604
 20
99.69889403151753
 30
0.0
 11
44.00000000008731
 21
99.7131206219317
 31
0.0
  0
LINE
  5
7E
330
31
100
AcDbEntity
  8
0
 62
74
370
5
100
AcDbLine
 10
42.25
 20
99.69889403151753
 30
0.0
 11
44.5
 21
99.69889403151753
 31
0.0
  0
LINE
  5
7F
330
31
100
AcDbEntity
  8
0
 62
74
370
5
100
AcDbLine
 10
44.5
 20
97.69889403150296
 30
0.0
 11
42.25
 21
97.69889403150296
 31
0.0
  0
ARC
  5
80
330
31
100
AcDbEntity
  8
0
 62
74
370
5
100
AcDbCircle
 10
40.45694886310957
 20
98.69889403151753
 30
0.0
 40
0.5
100
AcDbArc
 50
102.2459918914671
 51
257.7540081085328
  0
LINE
  5
81
330
31
100
AcDbEntity
  8
0
 62
74
370
5
100
AcDbLine
 10
42.25
 20
99.69889403151753
 30
0.0
 11
40.35089420829899
 21
99.18751700494317
 31
0.0
  0
LINE
  5
82
330
31
100
AcDbEntity
  8
0
 62
74
370
5
100
AcDbLine
 10
42.25
 20
97.69889403150296
 30
0.0
 11
40.35089420829899
 21
98.21027105806274
 31
0.0
  0
LINE
  5
83
330
31
100
AcDbEntity
  8
0
 62
74
370
5
100
AcDbLine
 10
45.0
 20
100.7131206219317
 30
0.0
 11
44.00000000008731
 21
101.7131206219171
 31
0.0
  0
LINE
  5
84
330
31
100
AcDbEntity
  8
00
 62
74
370
5
100
AcDbLine
 10
44.00000000008731
 20
101.7131206219171
 30
0.0
 11
45.0
 21
102.7131206219317
 31
0.0
  0
LINE
  5
85
330
31
100
AcDbEntity
  8
00
 62
74
370
5
100
AcDbLine
 10
44.00000000008731
 20
99.7131206219317
 30
0.0
 11
45.0
 21
100.7131206219317
 31
0.0
  0
LINE
  5
86
330
31
100
AcDbEntity
  8
0
 62
74
370
5
100
AcDbLine
 10
45.0
 20
96.7131206219317
 30
0.0
 11
44.00000000008731
 21
97.71312062191714
 31
0.0
  0
LINE
  5
87
330
31
100
AcDbEntity
  8
00
 62
74
370
5
100
AcDbLine
 10
44.00000000008731
 20
99.7131206219317
 30
0.0
 11
45.0
 21
100.7131206219317
 31
0.0
  0
ARC
  5
88
330
31
100
AcDbEntity
  8
00
 62
74
370
5
100
AcDbCircle
 10
42.12500000008731
 20
93.94283986730147
 30
0.0
 40
2.773099431950017
100
AcDbArc
 50
18.8097763490431
 51
161.1902236509568
  0
ARC
  5
89
330
31
100
AcDbEntity
  8
00
 62
74
370
5
100
AcDbCircle
 10
42.125
 20
91.48340137654736
 30
0.0
 40
2.773099431950017
100
AcDbArc
 50
198.8097763490431
 51
341.1902236509569
  0
ARC
  5
8A
330
31
100
AcDbEntity
  8
00
 62
74
370
5
100
AcDbCircle
 10
42.12500000008731
 20
91.48340137654736
 30
0.0
 40
2.773099431950017
100
AcDbArc
 50
198.8097763490431
 51
341.1902236509569
  0
LINE
  5
8B
330
31
100
AcDbEntity
  8
0
 62
74
100
AcDbLine
 10
44.00000000008731
 20
89.44025295821189
 30
0.0
 11
44.00000000008731
 21
88.71312062191714
 31
0.0
  0
LINE
  5
8C
330
31
100
AcDbEntity
  8
00
 62
74
370
5
100
AcDbLine
 10
39.5
 20
94.83696259905697
 30
0.0
 11
39.5
 21
90.58927864479188
 31
0.0
  0
LINE
  5
8D
330
31
100
AcDbEntity
  8
00
 62
74
370
5
100
AcDbLine
 10
44.75000000008731
 20
90.58927864477732
 30
0.0
 11
44.75000000008731
 21
94.83696259905697
 31
0.0
  0
LINE
  5
8E
330
31
100
AcDbEntity
  8
00
 62
74
370
5
100
AcDbLine
 10
39.5
 20
90.58927864479188
 30
0.0
 11
39.5
 21
94.83696259905697
 31
0.0
  0
LINE
  5
8F
330
31
100
AcDbEntity
  8
0
 62
74
370
5
100
AcDbLine
 10
39.5
 20
90.58927864473365
 30
0.0
 11
39.5
 21
94.83696259905697
 31
0.0
  0
LINE
  5
90
330
31
100
AcDbEntity
  8
00
 62
74
370
5
100
AcDbLine
 10
45.0
 20
117.2214311200775
 30
0.0
 11
55.00000000008731
 21
117.2214311200775
 31
0.0
  0
LINE
  5
91
330
31
100
AcDbEntity
  8
0
 62
74
370
5
100
AcDbLine
 10
55.00000000008731
 20
115.2214311200775
 30
0.0
 11
45.0
 21
115.2214311200775
 31
0.0
  0
LINE
  5
92
330
31
100
AcDbEntity
  8
0
 62
74
370
5
100
AcDbLine
 10
55.00000000008731
 20
117.2214311200775
 30
0.0
 11
45.0
 21
117.2214311200775
 31
0.0
  0
LINE
  5
93
330
31
100
AcDbEntity
  8
00
 62
74
370
5
100
AcDbLine
 10
45.0
 20
115.2214311200775
 30
0.0
 11
55.00000000008731
 21
115.2214311200775
 31
0.0
  0
LINE
  5
94
330
31
100
AcDbEntity
  8
00
 62
74
370
5
100
AcDbLine
 10
45.0
 20
117.2214311200775
 30
0.0
 11
55.00000000008731
 21
117.2214311200775
 31
0.0
  0
LINE
  5
95
330
31
100
AcDbEntity
  8
0
 62
74
370
5
100
AcDbLine
 10
55.00000000008731
 20
115.2214311200775
 30
0.0
 11
45.0
 21
115.2214311200775
 31
0.0
  0
LINE
  5
96
330
31
100
AcDbEntity
  8
0
 62
74
370
5
100
AcDbLine
 10
55.00000000008731
 20
117.2214311200775
 30
0.0
 11
45.0
 21
117.2214311200775
 31
0.0
  0
ARC
  5
97
330
31
100
AcDbEntity
  8
00
 62
74
370
5
100
AcDbCircle
 10
50.0
 20
102.8648887563438
 30
0.0
 40
8.283542363731021
100
AcDbArc
 50
50.66993661763627
 51
129.3300633823637
  0
ARC
  5
98
330
31
100
AcDbEntity
  8
00
 62
74
370
5
100
AcDbCircle
 10
50.0
 20
111.4319734838034
 30
0.0
 40
8.283542363731021
100
AcDbArc
 50
230.6699366176363
 51
309.3300633823637
  0
LINE
  5
99
330
31
100
AcDbEntity
  8
00
 62
74
370
5
100
AcDbLine
 10
58.0
 20
103.1484311200736
 30
0.0
 11
42.0
 21
103.1484311200736
 31
0.0
  0
LINE
  5
9A
330
31
100
AcDbEntity
  8
0
 62
74
370
5
100
AcDbLine
 10
55.00000000008731
 20
113.2214311200775
 30
0.0
 11
45.0
 21
113.2214311200775
 31
0.0
  0
LINE
  5
9B
330
31
100
AcDbEntity
  8
0
 62
74
370
5
100
AcDbLine
 10
55.00000000008731
 20
111.2214311200775
 30
0.0
 11
45.0
 21
111.2214311200775
 31
0.0
  0
LINE
  5
9C
330
31
100
AcDbEntity
  8
00
 62
74
370
5
100
AcDbLine
 10
45.0
 20
113.2214311200775
 30
0.0
 11
55.00000000008731
 21
113.2214311200775
 31
0.0
  0
LINE
  5
9D
330
31
100
AcDbEntity
  8
00
 62
74
370
5
100
AcDbLine
 10
42.0
 20
111.1484311200736
 30
0.0
 11
56.01346010700217
 21
111.1484311200736
 31
0.0
  0
LINE
  5
9E
330
31
100
AcDbEntity
  8
00
 62
74
370
5
100
AcDbLine
 10
58.00000000008731
 20
111.1484311200736
 30
0.0
 11
42.0
 21
111.1484311200736
 31
0.0
  0
LINE
  5
9F
330
31
100
AcDbEntity
  8
0
 62
74
370
5
100
AcDbLine
 10
40.17221310407331
 20
98.28788849924308
 30
0.0
 11
41.33751019556075
 21
99.4531855907378
 31
0.0
  0
LINE
  5
A0
330
31
100
AcDbEntity
  8
0
 62
74
370
5
100
AcDbLine
 10
43.11875254225742
 20
97.69889403150296
 30
0.0
 11
45.11875254227198
 21
99.69889403151753
 31
0.0
  0
LINE
  5
A1
330
31
100
AcDbEntity
  8
0
 62
74
370
5
100
AcDbLine
 10
46.65428644818894
 20
97.69889403150296
 30
0.0
 11
48.65428644820349
 21
99.69889403151753
 31
0.0
  0
LINE
  5
A2
330
31
100
AcDbEntity
  8
0
 62
74
370
5
100
AcDbLine
 10
50.18982035412046
 20
97.69889403150296
 30
0.0
 11
52.18982035413501
 21
99.69889403151753
 31
0.0
  0
LINE
  5
A3
330
31
100
AcDbEntity
  8
0
 62
74
370
5
100
AcDbLine
 10
53.72535426005197
 20
97.69889403150296
 30
0.0
 11
55.72535426006652
 21
99.69889403151753
 31
0.0
  0
LINE
  5
A4
330
31
100
AcDbEntity
  8
0
 62
74
370
5
100
AcDbLine
 10
57.26088816599804
 20
97.69889403150296
 30
0.0
 11
58.93389574209868
 21
99.3719016076109
 31
0.0
  0
LINE
  5
A5
330
31
100
AcDbEntity
  8
0
 62
74
370
5
100
AcDbLine
 10
42.25
 20
99.69889403151753
 30
0.0
 11
57.75
 21
99.69889403151753
 31
0.0
  0
LINE
  5
A6
330
31
100
AcDbEntity
  8
0
 62
74
370
5
100
AcDbLine
 10
57.75
 20
97.69889403150296
 30
0.0
 11
42.25
 21
97.69889403150296
 31
0.0
  0
LINE
  5
A7
330
31
100
AcDbEntity
  8
0
 62
74
370
5
100
AcDbLine
 10
55.00000000008731
 20
102.7131206219317
 30
0.0
 11
45.0
 21
102.7131206219317
 31
0.0
  0
LINE
  5
A8
330
31
100
AcDbEntity
  8
0
 62
74
370
5
100
AcDbLine
 10
55.00000000008731
 20
100.7131206219317
 30
0.0
 11
45.0
 21
100.7131206219317
 31
0.0
  0
LINE
  5
A9
330
31
100
AcDbEntity
  8
00
 62
74
370
5
100
AcDbLine
 10
45.0
 20
102.7131206219317
 30
0.0
 11
55.00000000008731
 21
102.7131206219317
 31
0.0
  0
LINE
  5
AA
330
31
100
AcDbEntity
  8
0
 62
74
370
5
100
AcDbLine
 10
55.00000000008731
 20
96.7131206219317
 30
0.0
 11
45.0
 21
96.7131206219317
 31
0.0
  0
LINE
  5
AB
330
31
100
AcDbEntity
  8
00
 62
74
370
5
100
AcDbLine
 10
45.0
 20
100.7131206219317
 30
0.0
 11
55.00000000008731
 21
100.7131206219317
 31
0.0
  0
LINE
  5
AC
330
31
100
AcDbEntity
  8
00
 62
74
370
5
100
AcDbLine
 10
45.0
 20
96.7131206219317
 30
0.0
 11
55.00000000008731
 21
96.7131206219317
 31
0.0
  0
LINE
  5
AD
330
31
100
AcDbEntity
  8
0
 62
74
370
5
100
AcDbLine
 10
55.00000000008731
 20
96.7131206219317
 30
0.0
 11
45.0
 21
96.7131206219317
 31
0.0
  0
LINE
  5
AE
330
31
100
AcDbEntity
  8
00
 62
74
370
5
100
AcDbLine
 10
45.0
 20
100.7131206219317
 30
0.0
 11
55.00000000008731
 21
100.7131206219317
 31
0.0
  0
ARC
  5
AF
330
31
100
AcDbEntity
  8
00
 62
74
370
5
100
AcDbCircle
 10
50.0
 20
96.9966629856615
 30
0.0
 40
8.283542363731021
100
AcDbArc
 50
230.6699366176363
 51
309.3300633823637
  0
LINE
  5
B0
330
31
100
AcDbEntity
  8
00
 62
74
370
5
100
AcDbLine
 10
43.98653989311424
 20
88.71312062191714
 30
0.0
 11
56.01346010700217
 21
88.71312062191714
 31
0.0
  0
LINE
  5
B1
330
31
100
AcDbEntity
  8
00
 62
74
370
5
100
AcDbLine
 10
58.0
 20
88.71312062191714
 30
0.0
 11
42.0
 21
88.71312062191714
 31
0.0
  0
ARC
  5
B2
330
31
100
AcDbEntity
  8
00
 62
74
370
5
100
AcDbCircle
 10
50.0
 20
96.9966629856615
 30
0.0
 40
8.283542363731021
100
AcDbArc
 50
230.6699366176363
 51
309.3300633823637
  0
LINE
  5
B3
330
31
100
AcDbEntity
  8
00
 62
74
370
5
100
AcDbLine
 10
58.00000000008731
 20
96.7131206219317
 30
0.0
 11
42.0
 21
96.7131206219317
 31
0.0
  0
ARC
  5
B4
330
31
100
AcDbEntity
  8
00
 62
74
370
5
100
AcDbCircle
 10
50.0
 20
88.42957825821645
 30
0.0
 40
8.283542363731021
100
AcDbArc
 50
50.66993661763627
 51
129.3300633823637
  0
LINE
  5
B5
330
31
100
AcDbEntity
  8
00
 62
74
370
5
100
AcDbLine
 10
42.0
 20
96.7131206219317
 30
0.0
 11
56.01346010700217
 21
96.7131206219317
 31
0.0
  0
LINE
  5
B6
330
31
100
AcDbEntity
  8
00
 62
74
370
5
100
AcDbLine
 10
58.0
 20
88.71312062191714
 30
0.0
 11
42.0000000000873
 21
88.71312062191714
 31
0.0
  0
LINE
  5
B7
330
31
100
AcDbEntity
  8
0
 62
74
370
5
100
AcDbLine
 10
65.0
 20
88.71312062191714
 30
0.0
 11
35.0
 21
88.71312062191714
 31
0.0
  0
LINE
  5
B8
330
31
100
AcDbEntity
  8
0
 62
74
370
5
100
AcDbLine
 10
45.0
 20
117.2214311200775
 30
0.0
 11
44.00000000008731
 21
118.2214311200921
 31
0.0
  0
LINE
  5
B9
330
31
100
AcDbEntity
  8
0
 62
74
370
5
100
AcDbLine
 10
45.0
 20
117.2214311200775
 30
0.0
 11
44.00000000008731
 21
118.2214311200921
 31
0.0
  0
LINE
  5
BA
330
31
100
AcDbEntity
  8
0
 62
74
370
5
100
AcDbLine
 10
55.00000000008731
 20
117.2214311200775
 30
0.0
 11
56.0
 21
118.2214311200921
 31
0.0
  0
LINE
  5
BB
330
31
100
AcDbEntity
  8
0
 62
74
370
5
100
AcDbLine
 10
55.00000000008731
 20
117.2214311200775
 30
0.0
 11
56.0
 21
118.2214311200921
 31
0.0
  0
LINE
  5
BC
330
31
100
AcDbEntity
  8
00
 62
74
370
5
100
AcDbLine
 10
-4.999999999912688
 20
123.2214311200775
 30
0.0
 11
5.000000000087311
 21
123.2214311200775
 31
0.0
  0
LINE
  5
BD
330
31
100
AcDbEntity
  8
0
 62
74
370
5
100
AcDbLine
 10
5.000000000087311
 20
121.2214311200775
 30
0.0
 11
-4.999999999912688
 21
121.2214311200775
 31
0.0
  0
LINE
  5
BE
330
31
100
AcDbEntity
  8
0
 62
74
370
5
100
AcDbLine
 10
5.000000000087311
 20
119.2214311200775
 30
0.0
 11
-4.999999999912688
 21
119.2214311200775
 31
0.0
  0
LINE
  5
BF
330
31
100
AcDbEntity
  8
00
 62
74
370
5
100
AcDbLine
 10
-4.999999999912688
 20
121.2214311200775
 30
0.0
 11
5.000000000087311
 21
121.2214311200775
 31
0.0
  0
LINE
  5
C0
330
31
100
AcDbEntity
  8
00
 62
74
370
5
100
AcDbLine
 10
-4.999999999912688
 20
119.2214311200775
 30
0.0
 11
5.000000000087311
 21
119.2214311200775
 31
0.0
  0
LINE
  5
C1
330
31
100
AcDbEntity
  8
00
 62
74
370
5
100
AcDbLine
 10
-4.999999999912688
 20
119.2214311200775
 30
0.0
 11
5.000000000087311
 21
119.2214311200775
 31
0.0
  0
LINE
  5
C2
330
31
100
AcDbEntity
  8
00
 62
74
370
5
100
AcDbLine
 10
-5.999999999912688
 20
122.2214311200921
 30
0.0
 11
-4.999999999912688
 21
123.2214311200775
 31
0.0
  0
LINE
  5
C3
330
31
100
AcDbEntity
  8
0
 62
74
370
5
100
AcDbLine
 10
-4.999999999912688
 20
121.2214311200775
 30
0.0
 11
-5.999999999912688
 21
122.2214311200921
 31
0.0
  0
LINE
  5
C4
330
31
100
AcDbEntity
  8
0
 62
74
370
5
100
AcDbLine
 10
-4.999999999912688
 20
119.2214311200775
 30
0.0
 11
-5.999999999912688
 21
120.221431120063
 31
0.0
  0
LINE
  5
C5
330
31
100
AcDbEntity
  8
00
 62
74
370
5
100
AcDbLine
 10
-5.999999999912688
 20
120.221431120063
 30
0.0
 11
-4.999999999912688
 21
121.2214311200775
 31
0.0
  0
LINE
  5
C6
330
31
100
AcDbEntity
  8
00
 62
74
370
5
100
AcDbLine
 10
-5.999999999912688
 20
118.2214311200921
 30
0.0
 11
-4.999999999912688
 21
119.2214311200775
 31
0.0
  0
LINE
  5
C7
330
31
100
AcDbEntity
  8
00
 62
74
370
5
100
AcDbLine
 10
-5.999999999912688
 20
118.2214311200921
 30
0.0
 11
-4.999999999912688
 21
119.2214311200775
 31
0.0
  0
LINE
  5
C8
330
31
100
AcDbEntity
  8
00
 62
74
370
5
100
AcDbLine
 10
6.0
 20
122.2214311200921
 30
0.0
 11
5.000000000087311
 21
123.2214311200775
 31
0.0
  0
LINE
  5
C9
330
31
100
AcDbEntity
  8
0
 62
74
370
5
100
AcDbLine
 10
5.000000000087311
 20
121.2214311200775
 30
0.0
 11
6.0
 21
122.2214311200921
 31
0.0
  0
LINE
  5
CA
330
31
100
AcDbEntity
  8
0
 62
74
370
5
100
AcDbLine
 10
5.000000000087311
 20
119.2214311200775
 30
0.0
 11
6.0
 21
120.221431120063
 31
0.0
  0
LINE
  5
CB
330
31
100
AcDbEntity
  8
00
 62
74
370
5
100
AcDbLine
 10
6.0
 20
120.221431120063
 30
0.0
 11
5.000000000087311
 21
121.2214311200775
 31
0.0
  0
LINE
  5
CC
330
31
100
AcDbEntity
  8
00
 62
74
370
5
100
AcDbLine
 10
6.0
 20
118.2214311200921
 30
0.0
 11
5.000000000087311
 21
119.2214311200775
 31
0.0
  0
LINE
  5
CD
330
31
100
AcDbEntity
  8
00
 62
74
370
5
100
AcDbLine
 10
6.0
 20
118.2214311200921
 30
0.0
 11
5.000000000087311
 21
119.2214311200775
 31
0.0
  0
LINE
  5
CE
330
31
100
AcDbEntity
  8
00
 62
74
370
5
100
AcDbLine
 10
10.50000000008731
 20
109.2722730972134
 30
0.0
 11
10.50000000008731
 21
105.0245891429192
 31
0.0
  0
ARC
  5
CF
330
31
100
AcDbEntity
  8
0
 62
74
370
5
100
AcDbCircle
 10
9.560280079196673
 20
98.69889403151753
 30
0.0
 40
0.5
100
AcDbArc
 50
270.0
 51
90.0
  0
LINE
  5
D0
330
31
100
AcDbEntity
  8
0
 62
74
370
5
100
AcDbLine
 10
5.000000000087311
 20
102.7131206219317
 30
0.0
 11
5.000000000087311
 21
103.1484311200736
 31
0.0
  0
LINE
  5
D1
330
31
100
AcDbEntity
  8
0
 62
74
370
5
100
AcDbLine
 10
-4.999999999912688
 20
102.7131206219317
 30
0.0
 11
-4.999999999912688
 21
103.1484311200736
 31
0.0
  0
LINE
  5
D2
330
31
100
AcDbEntity
  8
00
 62
74
370
5
100
AcDbLine
 10
-4.999999999912688
 20
117.2214311200775
 30
0.0
 11
5.000000000087311
 21
117.2214311200775
 31
0.0
  0
LINE
  5
D3
330
31
100
AcDbEntity
  8
0
 62
74
370
5
100
AcDbLine
 10
5.000000000087311
 20
115.2214311200775
 30
0.0
 11
-4.999999999912688
 21
115.2214311200775
 31
0.0
  0
LINE
  5
D4
330
31
100
AcDbEntity
  8
0
 62
74
370
5
100
AcDbLine
 10
5.000000000087311
 20
117.2214311200775
 30
0.0
 11
-4.999999999912688
 21
117.2214311200775
 31
0.0
  0
LINE
  5
D5
330
31
100
AcDbEntity
  8
00
 62
74
370
5
100
AcDbLine
 10
-4.999999999912688
 20
115.2214311200775
 30
0.0
 11
5.000000000087311
 21
115.2214311200775
 31
0.0
  0
LINE
  5
D6
330
31
100
AcDbEntity
  8
00
 62
74
370
5
100
AcDbLine
 10
-4.999999999912688
 20
117.2214311200775
 30
0.0
 11
5.000000000087311
 21
117.2214311200775
 31
0.0
  0
LINE
  5
D7
330
31
100
AcDbEntity
  8
0
 62
74
370
5
100
AcDbLine
 10
5.000000000087311
 20
115.2214311200775
 30
0.0
 11
-4.999999999912688
 21
115.2214311200775
 31
0.0
  0
LINE
  5
D8
330
31
100
AcDbEntity
  8
0
 62
74
370
5
100
AcDbLine
 10
5.000000000087311
 20
117.2214311200775
 30
0.0
 11
-4.999999999912688
 21
117.2214311200775
 31
0.0
  0
LINE
  5
D9
330
31
100
AcDbEntity
  8
00
 62
74
370
5
100
AcDbLine
 10
-5.999999999912688
 20
116.221431120063
 30
0.0
 11
-4.999999999912688
 21
117.2214311200775
 31
0.0
  0
LINE
  5
DA
330
31
100
AcDbEntity
  8
0
 62
74
370
5
100
AcDbLine
 10
-4.999999999912688
 20
115.2214311200775
 30
0.0
 11
-5.999999999912688
 21
116.221431120063
 31
0.0
  0
LINE
  5
DB
330
31
100
AcDbEntity
  8
00
 62
74
370
5
100
AcDbLine
 10
-5.999999999912688
 20
114.2214311200775
 30
0.0
 11
-4.999999999912688
 21
115.2214311200775
 31
0.0
  0
LINE
  5
DC
330
31
100
AcDbEntity
  8
00
 62
74
370
5
100
AcDbLine
 10
-5.999999999912688
 20
116.221431120063
 30
0.0
 11
-4.999999999912688
 21
117.2214311200775
 31
0.0
  0
LINE
  5
DD
330
31
100
AcDbEntity
  8
0
 62
74
370
5
100
AcDbLine
 10
-4.999999999912688
 20
115.2214311200775
 30
0.0
 11
-5.999999999912688
 21
116.221431120063
 31
0.0
  0
LINE
  5
DE
330
31
100
AcDbEntity
  8
00
 62
74
370
5
100
AcDbLine
 10
6.0
 20
116.221431120063
 30
0.0
 11
5.000000000087311
 21
117.2214311200775
 31
0.0
  0
LINE
  5
DF
330
31
100
AcDbEntity
  8
0
 62
74
370
5
100
AcDbLine
 10
5.000000000087311
 20
115.2214311200775
 30
0.0
 11
6.0
 21
116.221431120063
 31
0.0
  0
LINE
  5
E0
330
31
100
AcDbEntity
  8
00
 62
74
370
5
100
AcDbLine
 10
6.0
 20
114.2214311200775
 30
0.0
 11
5.000000000087311
 21
115.2214311200775
 31
0.0
  0
LINE
  5
E1
330
31
100
AcDbEntity
  8
00
 62
74
370
5
100
AcDbLine
 10
6.0
 20
116.221431120063
 30
0.0
 11
5.000000000087311
 21
117.2214311200775
 31
0.0
  0
LINE
  5
E2
330
31
100
AcDbEntity
  8
0
 62
74
370
5
100
AcDbLine
 10
5.000000000087311
 20
115.2214311200775
 30
0.0
 11
6.0
 21
116.221431120063
 31
0.0
  0
ARC
  5
E3
330
31
100
AcDbEntity
  8
00
 62
74
370
5
100
AcDbCircle
 10
0.0
 20
102.8648887563438
 30
0.0
 40
8.283542363731021
100
AcDbArc
 50
50.66993661763627
 51
129.3300633823637
  0
ARC
  5
E4
330
31
100
AcDbEntity
  8
00
 62
74
370
5
100
AcDbCircle
 10
-7.874999999912688
 20
108.3781503654434
 30
0.0
 40
2.773099431950017
100
AcDbArc
 50
18.8097763490431
 51
161.1902236509568
  0
ARC
  5
E5
330
31
100
AcDbEntity
  8
00
 62
74
370
5
100
AcDbCircle
 10
0.0
 20
111.4319734838034
 30
0.0
 40
8.283542363731021
100
AcDbArc
 50
230.6699366176363
 51
309.3300633823637
  0
LINE
  5
E6
330
31
100
AcDbEntity
  8
00
 62
74
370
5
100
AcDbLine
 10
8.0
 20
103.1484311200736
 30
0.0
 11
-8.0
 21
103.1484311200736
 31
0.0
  0
LINE
  5
E7
330
31
100
AcDbEntity
  8
00
 62
74
370
5
100
AcDbLine
 10
-5.249999999912688
 20
105.0245891429192
 30
0.0
 11
-5.249999999912688
 21
109.2722730972134
 31
0.0
  0
ARC
  5
E8
330
31
100
AcDbEntity
  8
00
 62
74
370
5
100
AcDbCircle
 10
-7.874999999912688
 20
105.9187118747038
 30
0.0
 40
2.773099431950017
100
AcDbArc
 50
198.8097763490431
 51
341.1902236509569
  0
LINE
  5
E9
330
31
100
AcDbEntity
  8
00
 62
74
370
5
100
AcDbLine
 10
-10.5
 20
109.2722730972134
 30
0.0
 11
-10.5
 21
105.0245891429483
 31
0.0
  0
LINE
  5
EA
330
31
100
AcDbEntity
  8
00
 62
74
370
5
100
AcDbLine
 10
5.25
 20
105.0245891429192
 30
0.0
 11
5.25
 21
109.2722730972134
 31
0.0
  0
LINE
  5
EB
330
31
100
AcDbEntity
  8
0
 62
74
370
5
100
AcDbLine
 10
5.000000000087311
 20
113.2214311200775
 30
0.0
 11
-4.999999999912688
 21
113.2214311200775
 31
0.0
  0
LINE
  5
EC
330
31
100
AcDbEntity
  8
0
 62
74
370
5
100
AcDbLine
 10
5.000000000087311
 20
111.2214311200775
 30
0.0
 11
-4.999999999912688
 21
111.2214311200775
 31
0.0
  0
LINE
  5
ED
330
31
100
AcDbEntity
  8
00
 62
74
370
5
100
AcDbLine
 10
-4.999999999912688
 20
113.2214311200775
 30
0.0
 11
5.000000000087311
 21
113.2214311200775
 31
0.0
  0
LINE
  5
EE
330
31
100
AcDbEntity
  8
0
 62
74
370
5
100
AcDbLine
 10
-4.999999999912688
 20
111.2214311200775
 30
0.0
 11
-5.999999999912688
 21
112.221431120063
 31
0.0
  0
LINE
  5
EF
330
31
100
AcDbEntity
  8
00
 62
74
370
5
100
AcDbLine
 10
-5.999999999912688
 20
112.221431120063
 30
0.0
 11
-4.999999999912688
 21
113.2214311200775
 31
0.0
  0
LINE
  5
F0
330
31
100
AcDbEntity
  8
0
 62
74
370
5
100
AcDbLine
 10
5.000000000087311
 20
111.2214311200775
 30
0.0
 11
6.0
 21
112.221431120063
 31
0.0
  0
LINE
  5
F1
330
31
100
AcDbEntity
  8
00
 62
74
370
5
100
AcDbLine
 10
6.0
 20
112.221431120063
 30
0.0
 11
5.000000000087311
 21
113.2214311200775
 31
0.0
  0
LINE
  5
F2
330
31
100
AcDbEntity
  8
00
 62
74
370
5
100
AcDbLine
 10
-8.0
 20
111.1484311200736
 30
0.0
 11
6.013460107002174
 21
111.1484311200736
 31
0.0
  0
LINE
  5
F3
330
31
100
AcDbEntity
  8
00
 62
74
370
5
100
AcDbLine
 10
8.000000000087311
 20
111.1484311200736
 30
0.0
 11
-8.0
 21
111.1484311200736
 31
0.0
  0
LINE
  5
F4
330
31
100
AcDbEntity
  8
00
 62
74
370
5
100
AcDbLine
 10
6.0
 20
111.1484311200736
 30
0.0
 11
6.0
 21
112.221431120063
 31
0.0
  0
LINE
  5
F5
330
31
100
AcDbEntity
  8
0
 62
74
370
5
100
AcDbLine
 10
-4.999999999912688
 20
113.2214311200775
 30
0.0
 11
-5.999999999912688
 21
114.2214311200775
 31
0.0
  0
LINE
  5
F6
330
31
100
AcDbEntity
  8
0
 62
74
370
5
100
AcDbLine
 10
5.000000000087311
 20
113.2214311200775
 30
0.0
 11
6.0
 21
114.2214311200775
 31
0.0
  0
LINE
  5
F7
330
31
100
AcDbEntity
  8
0
 62
74
370
5
100
AcDbLine
 10
5.985773409600369
 20
99.69889403151753
 30
0.0
 11
6.0
 21
99.7131206219317
 31
0.0
  0
LINE
  5
F8
330
31
100
AcDbEntity
  8
0
 62
74
370
5
100
AcDbLine
 10
5.985773409600369
 20
99.69889403151753
 30
0.0
 11
6.0
 21
99.7131206219317
 31
0.0
  0
LINE
  5
F9
330
31
100
AcDbEntity
  8
0
 62
74
370
5
100
AcDbLine
 10
-5.985773409483954
 20
99.69889403151753
 30
0.0
 11
-5.999999999912688
 21
99.7131206219317
 31
0.0
  0
LINE
  5
FA
330
31
100
AcDbEntity
  8
0
 62
74
370
5
100
AcDbLine
 10
-5.985773409483954
 20
99.69889403151753
 30
0.0
 11
-5.999999999912688
 21
99.7131206219317
 31
0.0
  0
LINE
  5
FB
330
31
100
AcDbEntity
  8
0
 62
74
370
5
100
AcDbLine
 10
-4.999999999912688
 20
96.7131206219317
 30
0.0
 11
-4.999999999912688
 21
95.03390063767142
 31
0.0
  0
LINE
  5
FC
330
31
100
AcDbEntity
  8
0
 62
74
370
5
100
AcDbLine
 10
5.0
 20
96.7131206219317
 30
0.0
 11
5.0
 21
95.03390063767142
 31
0.0
  0
LINE
  5
FD
330
31
100
AcDbEntity
  8
0
 62
74
370
5
100
AcDbLine
 10
-7.75
 20
99.69889403151753
 30
0.0
 11
7.75
 21
99.69889403151753
 31
0.0
  0
LINE
  5
FE
330
31
100
AcDbEntity
  8
0
 62
74
370
5
100
AcDbLine
 10
7.75
 20
97.69889403150296
 30
0.0
 11
-7.75
 21
97.69889403150296
 31
0.0
  0
LINE
  5
FF
330
31
100
AcDbEntity
  8
0
 62
74
370
5
100
AcDbLine
 10
-7.75
 20
99.69889403151753
 30
0.0
 11
-5.5
 21
99.69889403151753
 31
0.0
  0
LINE
  5
100
330
31
100
AcDbEntity
  8
0
 62
74
370
5
100
AcDbLine
 10
-5.5
 20
97.69889403150296
 30
0.0
 11
-7.75
 21
97.69889403150296
 31
0.0
  0
LINE
  5
101
330
31
100
AcDbEntity
  8
0
 62
74
370
5
100
AcDbLine
 10
7.75
 20
99.69889403151753
 30
0.0
 11
5.5
 21
99.69889403151753
 31
0.0
  0
LINE
  5
102
330
31
100
AcDbEntity
  8
0
 62
74
370
5
100
AcDbLine
 10
7.75
 20
97.69889403150296
 30
0.0
 11
5.5
 21
97.69889403150296
 31
0.0
  0
ARC
  5
103
330
31
100
AcDbEntity
  8
0
 62
74
370
5
100
AcDbCircle
 10
-9.543051136890426
 20
98.69889403151753
 30
0.0
 40
0.5
100
AcDbArc
 50
102.2459918914671
 51
257.7540081085328
  0
LINE
  5
104
330
31
100
AcDbEntity
  8
0
 62
74
370
5
100
AcDbLine
 10
-7.75
 20
99.69889403151753
 30
0.0
 11
-9.649105791701002
 21
99.18751700494317
 31
0.0
  0
LINE
  5
105
330
31
100
AcDbEntity
  8
0
 62
74
370
5
100
AcDbLine
 10
-7.75
 20
97.69889403150296
 30
0.0
 11
-9.649105791701002
 21
98.21027105806274
 31
0.0
  0
LINE
  5
106
330
31
100
AcDbEntity
  8
0
 62
74
370
5
100
AcDbLine
 10
5.000000000087311
 20
100.7131206219317
 30
0.0
 11
6.0
 21
101.7131206219171
 31
0.0
  0
LINE
  5
107
330
31
100
AcDbEntity
  8
00
 62
74
370
5
100
AcDbLine
 10
6.0
 20
101.7131206219171
 30
0.0
 11
5.000000000087311
 21
102.7131206219317
 31
0.0
  0
LINE
  5
108
330
31
100
AcDbEntity
  8
0
 62
74
370
5
100
AcDbLine
 10
5.000000000087311
 20
96.7131206219317
 30
0.0
 11
6.0
 21
97.71312062191714
 31
0.0
  0
LINE
  5
109
330
31
100
AcDbEntity
  8
00
 62
74
370
5
100
AcDbLine
 10
6.0
 20
99.7131206219317
 30
0.0
 11
5.000000000087311
 21
100.7131206219317
 31
0.0
  0
LINE
  5
10A
330
31
100
AcDbEntity
  8
0
 62
74
370
5
100
AcDbLine
 10
5.000000000087311
 20
96.7131206219317
 30
0.0
 11
6.0
 21
97.71312062191714
 31
0.0
  0
LINE
  5
10B
330
31
100
AcDbEntity
  8
00
 62
74
370
5
100
AcDbLine
 10
6.0
 20
99.7131206219317
 30
0.0
 11
5.000000000087311
 21
100.7131206219317
 31
0.0
  0
LINE
  5
10C
330
31
100
AcDbEntity
  8
0
 62
74
370
5
100
AcDbLine
 10
-4.999999999912688
 20
100.7131206219317
 30
0.0
 11
-5.999999999912688
 21
101.7131206219171
 31
0.0
  0
LINE
  5
10D
330
31
100
AcDbEntity
  8
00
 62
74
370
5
100
AcDbLine
 10
-5.999999999912688
 20
101.7131206219171
 30
0.0
 11
-4.999999999912688
 21
102.7131206219317
 31
0.0
  0
LINE
  5
10E
330
31
100
AcDbEntity
  8
00
 62
74
370
5
100
AcDbLine
 10
-5.999999999912688
 20
99.7131206219317
 30
0.0
 11
-4.999999999912688
 21
100.7131206219317
 31
0.0
  0
LINE
  5
10F
330
31
100
AcDbEntity
  8
0
 62
74
370
5
100
AcDbLine
 10
-4.999999999912688
 20
96.7131206219317
 30
0.0
 11
-5.999999999912688
 21
97.71312062191714
 31
0.0
  0
LINE
  5
110
330
31
100
AcDbEntity
  8
00
 62
74
370
5
100
AcDbLine
 10
-5.999999999912688
 20
99.7131206219317
 30
0.0
 11
-4.999999999912688
 21
100.7131206219317
 31
0.0
  0
LINE
  5
111
330
31
100
AcDbEntity
  8
0
 62
74
370
5
100
AcDbLine
 10
5.000000000087311
 20
102.7131206219317
 30
0.0
 11
-4.999999999912688
 21
102.7131206219317
 31
0.0
  0
LINE
  5
112
330
31
100
AcDbEntity
  8
0
 62
74
370
5
100
AcDbLine
 10
5.000000000087311
 20
100.7131206219317
 30
0.0
 11
-4.999999999912688
 21
100.7131206219317
 31
0.0
  0
LINE
  5
113
330
31
100
AcDbEntity
  8
00
 62
74
370
5
100
AcDbLine
 10
-4.999999999912688
 20
102.7131206219317
 30
0.0
 11
5.000000000087311
 21
102.7131206219317
 31
0.0
  0
LINE
  5
114
330
31
100
AcDbEntity
  8
0
 62
74
370
5
100
AcDbLine
 10
5.000000000087311
 20
96.7131206219317
 30
0.0
 11
-4.999999999912688
 21
96.7131206219317
 31
0.0
  0
LINE
  5
115
330
31
100
AcDbEntity
  8
00
 62
74
370
5
100
AcDbLine
 10
-4.999999999912688
 20
100.7131206219317
 30
0.0
 11
5.000000000087311
 21
100.7131206219317
 31
0.0
  0
LINE
  5
116
330
31
100
AcDbEntity
  8
00
 62
74
370
5
100
AcDbLine
 10
-4.999999999912688
 20
96.7131206219317
 30
0.0
 11
5.000000000087311
 21
96.7131206219317
 31
0.0
  0
LINE
  5
117
330
31
100
AcDbEntity
  8
0
 62
74
370
5
100
AcDbLine
 10
5.000000000087311
 20
96.7131206219317
 30
0.0
 11
-4.999999999912688
 21
96.7131206219317
 31
0.0
  0
LINE
  5
118
330
31
100
AcDbEntity
  8
00
 62
74
370
5
100
AcDbLine
 10
-4.999999999912688
 20
100.7131206219317
 30
0.0
 11
5.000000000087311
 21
100.7131206219317
 31
0.0
  0
LINE
  5
119
330
31
100
AcDbEntity
  8
00
 62
74
370
5
100
AcDbLine
 10
8.000000000087311
 20
96.7131206219317
 30
0.0
 11
-8.0
 21
96.7131206219317
 31
0.0
  0
ARC
  5
11A
330
31
100
AcDbEntity
  8
00
 62
74
370
5
100
AcDbCircle
 10
0.0
 20
88.42957825821645
 30
0.0
 40
8.283542363731021
100
AcDbArc
 50
50.66993661763627
 51
129.3300633823637
  0
LINE
  5
11B
330
31
100
AcDbEntity
  8
00
 62
74
370
5
100
AcDbLine
 10
-8.0
 20
96.7131206219317
 30
0.0
 11
6.013460107002174
 21
96.7131206219317
 31
0.0
  0
ARC
  5
11C
330
31
100
AcDbEntity
  8
00
 62
74
370
5
100
AcDbCircle
 10
-7.874999999912688
 20
93.94283986730147
 30
0.0
 40
2.773099431950017
100
AcDbArc
 50
18.8097763490431
 51
161.1902236509568
  0
ARC
  5
11D
330
31
100
AcDbEntity
  8
00
 62
74
370
5
100
AcDbCircle
 10
7.875
 20
108.3781503654434
 30
0.0
 40
2.773099431950476
100
AcDbArc
 50
18.8097763490431
 51
161.1902236509568
  0
ARC
  5
11E
330
31
100
AcDbEntity
  8
00
 62
74
370
5
100
AcDbCircle
 10
7.875
 20
105.9187118747038
 30
0.0
 40
2.773099431950476
100
AcDbArc
 50
198.8097763490431
 51
341.1902236509569
  0
LINE
  5
11F
330
31
100
AcDbEntity
  8
0
 62
74
370
5
100
AcDbLine
 10
-9.827786895926693
 20
98.28788849924308
 30
0.0
 11
-8.662489804439247
 21
99.4531855907378
 31
0.0
  0
LINE
  5
120
330
31
100
AcDbEntity
  8
0
 62
74
370
5
100
AcDbLine
 10
-6.881247457742574
 20
97.69889403150296
 30
0.0
 11
-4.881247457728022
 21
99.69889403151753
 31
0.0
  0
LINE
  5
121
330
31
100
AcDbEntity
  8
0
 62
74
370
5
100
AcDbLine
 10
-3.345713551811059
 20
97.69889403150296
 30
0.0
 11
-1.345713551796507
 21
99.69889403151753
 31
0.0
  0
LINE
  5
122
330
31
100
AcDbEntity
  8
0
 62
74
370
5
100
AcDbLine
 10
0.1898203541204566
 20
97.69889403150296
 30
0.0
 11
2.189820354135008
 21
99.69889403151753
 31
0.0
  0
LINE
  5
123
330
31
100
AcDbEntity
  8
0
 62
74
370
5
100
AcDbLine
 10
3.725354260051972
 20
97.69889403150296
 30
0.0
 11
5.725354260066524
 21
99.69889403151753
 31
0.0
  0
LINE
  5
124
330
31
100
AcDbEntity
  8
0
 62
74
370
5
100
AcDbLine
 10
7.260888165983487
 20
97.69889403149568
 30
0.0
 11
8.933895742098684
 21
99.3719016076109
 31
0.0
  0
LINE
  5
125
330
31
100
AcDbEntity
  8
0
 62
74
370
5
100
AcDbLine
 10
9.560280079196673
 20
99.19889403151751
 30
0.0
 11
7.75
 21
99.69889403151753
 31
0.0
  0
LINE
  5
126
330
31
100
AcDbEntity
  8
0
 62
74
370
5
100
AcDbLine
 10
9.560280079196673
 20
98.19889403151751
 30
0.0
 11
7.75
 21
97.69889403150296
 31
0.0
  0
ARC
  5
127
330
31
100
AcDbEntity
  8
00
 62
74
370
5
100
AcDbCircle
 10
7.875
 20
93.94283986730147
 30
0.0
 40
2.773099431950476
100
AcDbArc
 50
18.8097763490431
 51
161.1902236509568
  0
LINE
  5
128
330
31
100
AcDbEntity
  8
0
 62
74
370
5
100
AcDbLine
 10
5.0
 20
90.39234060620652
 30
0.0
 11
5.0
 21
88.71312062191714
 31
0.0
  0
LINE
  5
129
330
31
100
AcDbEntity
  8
0
 62
74
370
5
100
AcDbLine
 10
-4.999999999912688
 20
90.39234060620652
 30
0.0
 11
-4.999999999912688
 21
88.71312062191714
 31
0.0
  0
ARC
  5
12A
330
31
100
AcDbEntity
  8
00
 62
74
370
5
100
AcDbCircle
 10
0.0
 20
96.9966629856615
 30
0.0
 40
8.283542363731021
100
AcDbArc
 50
230.6699366176363
 51
309.3300633823637
  0
LINE
  5
12B
330
31
100
AcDbEntity
  8
00
 62
74
370
5
100
AcDbLine
 10
-6.013460106885759
 20
88.71312062191714
 30
0.0
 11
6.013460107002174
 21
88.71312062191714
 31
0.0
  0
LINE
  5
12C
330
31
100
AcDbEntity
  8
00
 62
74
370
5
100
AcDbLine
 10
8.0
 20
88.71312062191714
 30
0.0
 11
-8.0
 21
88.71312062191714
 31
0.0
  0
ARC
  5
12D
330
31
100
AcDbEntity
  8
00
 62
74
370
5
100
AcDbCircle
 10
0.0
 20
96.9966629856615
 30
0.0
 40
8.283542363731021
100
AcDbArc
 50
230.6699366176363
 51
309.3300633823637
  0
LINE
  5
12E
330
31
100
AcDbEntity
  8
00
 62
74
370
5
100
AcDbLine
 10
8.0
 20
88.71312062191714
 30
0.0
 11
-7.999999999912688
 21
88.71312062191714
 31
0.0
  0
ARC
  5
12F
330
31
100
AcDbEntity
  8
00
 62
74
370
5
100
AcDbCircle
 10
-7.875
 20
91.48340137654736
 30
0.0
 40
2.773099431950017
100
AcDbArc
 50
198.8097763490431
 51
341.1902236509569
  0
ARC
  5
130
330
31
100
AcDbEntity
  8
00
 62
74
370
5
100
AcDbCircle
 10
-7.874999999912688
 20
91.48340137654736
 30
0.0
 40
2.773099431950017
100
AcDbArc
 50
198.8097763490431
 51
341.1902236509569
  0
ARC
  5
131
330
31
100
AcDbEntity
  8
00
 62
74
370
5
100
AcDbCircle
 10
7.875
 20
91.48340137654736
 30
0.0
 40
2.773099431950476
100
AcDbArc
 50
198.8097763490431
 51
341.1902236509569
  0
ARC
  5
132
330
31
100
AcDbEntity
  8
00
 62
74
370
5
100
AcDbCircle
 10
7.875
 20
91.48340137654736
 30
0.0
 40
2.773099431950476
100
AcDbArc
 50
198.8097763490431
 51
341.1902236509569
  0
LINE
  5
133
330
31
100
AcDbEntity
  8
0
 62
74
370
5
100
AcDbLine
 10
15.0
 20
88.71312062191714
 30
0.0
 11
-15.0
 21
88.71312062191714
 31
0.0
  0
LINE
  5
134
330
31
100
AcDbEntity
  8
00
 62
74
370
5
100
AcDbLine
 10
-10.5
 20
94.83696259905697
 30
0.0
 11
-10.5
 21
90.58927864479188
 31
0.0
  0
LINE
  5
135
330
31
100
AcDbEntity
  8
00
 62
74
370
5
100
AcDbLine
 10
-5.249999999912688
 20
90.58927864477732
 30
0.0
 11
-5.249999999912688
 21
94.83696259905697
 31
0.0
  0
LINE
  5
136
330
31
100
AcDbEntity
  8
00
 62
74
370
5
100
AcDbLine
 10
-10.5
 20
90.58927864479188
 30
0.0
 11
-10.5
 21
94.83696259905697
 31
0.0
  0
LINE
  5
137
330
31
100
AcDbEntity
  8
0
 62
74
370
5
100
AcDbLine
 10
-10.5
 20
90.58927864473365
 30
0.0
 11
-10.5
 21
94.83696259905697
 31
0.0
  0
LINE
  5
138
330
31
100
AcDbEntity
  8
00
 62
74
370
5
100
AcDbLine
 10
10.50000000008731
 20
94.83696259907151
 30
0.0
 11
10.50000000008731
 21
90.58927864477732
 31
0.0
  0
LINE
  5
139
330
31
100
AcDbEntity
  8
00
 62
74
370
5
100
AcDbLine
 10
5.25
 20
90.58927864477732
 30
0.0
 11
5.25
 21
94.83696259905697
 31
0.0
  0
LINE
  5
13A
330
31
100
AcDbEntity
  8
0
 62
74
370
5
100
AcDbLine
 10
10.50000000008731
 20
90.58927864482098
 30
0.0
 11
10.50000000008731
 21
94.83696259907151
 31
0.0
  0
LINE
  5
13B
330
31
100
AcDbEntity
  8
00
 62
74
370
5
100
AcDbLine
 10
10.5
 20
90.58927864477732
 30
0.0
 11
10.5
 21
94.83696259910062
 31
0.0
  0
LINE
  5
13C
330
31
100
AcDbEntity
  8
0
 62
74
370
5
100
AcDbLine
 10
-4.999999999912688
 20
117.2214311200775
 30
0.0
 11
-5.999999999912688
 21
118.2214311200921
 31
0.0
  0
LINE
  5
13D
330
31
100
AcDbEntity
  8
0
 62
74
370
5
100
AcDbLine
 10
-4.999999999912688
 20
117.2214311200775
 30
0.0
 11
-5.999999999912688
 21
118.2214311200921
 31
0.0
  0
LINE
  5
13E
330
31
100
AcDbEntity
  8
0
 62
74
370
5
100
AcDbLine
 10
5.000000000087311
 20
117.2214311200775
 30
0.0
 11
6.0
 21
118.2214311200921
 31
0.0
  0
LINE
  5
13F
330
31
100
AcDbEntity
  8
0
 62
74
370
5
100
AcDbLine
 10
5.000000000087311
 20
117.2214311200775
 30
0.0
 11
6.0
 21
118.2214311200921
 31
0.0
  0
LINE
  5
140
330
31
100
AcDbEntity
  8
00
 62
74
370
5
100
AcDbLine
 10
-43.99999999991268
 20
118.2214311200921
 30
0.0
 11
-44.99999999991269
 21
119.2214311200775
 31
0.0
  0
LINE
  5
141
330
31
100
AcDbEntity
  8
00
 62
74
370
5
100
AcDbLine
 10
-43.99999999991268
 20
118.2214311200921
 30
0.0
 11
-44.99999999991269
 21
119.2214311200775
 31
0.0
  0
LINE
  5
142
330
31
100
AcDbEntity
  8
00
 62
74
370
5
100
AcDbLine
 10
-43.99999999991268
 20
120.221431120063
 30
0.0
 11
-44.99999999991269
 21
121.2214311200775
 31
0.0
  0
LINE
  5
143
330
31
100
AcDbEntity
  8
0
 62
74
370
5
100
AcDbLine
 10
-44.99999999991269
 20
119.2214311200775
 30
0.0
 11
-43.99999999991268
 21
120.221431120063
 31
0.0
  0
LINE
  5
144
330
31
100
AcDbEntity
  8
0
 62
74
370
5
100
AcDbLine
 10
-44.99999999991269
 20
121.2214311200775
 30
0.0
 11
-43.99999999991268
 21
122.2214311200921
 31
0.0
  0
LINE
  5
145
330
31
100
AcDbEntity
  8
00
 62
74
370
5
100
AcDbLine
 10
-43.99999999991268
 20
122.2214311200921
 30
0.0
 11
-44.99999999991269
 21
123.2214311200775
 31
0.0
  0
LINE
  5
146
330
31
100
AcDbEntity
  8
00
 62
74
370
5
100
AcDbLine
 10
-55.99999999991268
 20
118.2214311200921
 30
0.0
 11
-54.99999999991269
 21
119.2214311200775
 31
0.0
  0
LINE
  5
147
330
31
100
AcDbEntity
  8
00
 62
74
370
5
100
AcDbLine
 10
-55.99999999991268
 20
118.2214311200921
 30
0.0
 11
-54.99999999991269
 21
119.2214311200775
 31
0.0
  0
LINE
  5
148
330
31
100
AcDbEntity
  8
00
 62
74
370
5
100
AcDbLine
 10
-55.99999999991268
 20
120.221431120063
 30
0.0
 11
-54.99999999991269
 21
121.2214311200775
 31
0.0
  0
LINE
  5
149
330
31
100
AcDbEntity
  8
0
 62
74
370
5
100
AcDbLine
 10
-54.99999999991269
 20
119.2214311200775
 30
0.0
 11
-55.99999999991268
 21
120.221431120063
 31
0.0
  0
LINE
  5
14A
330
31
100
AcDbEntity
  8
0
 62
74
370
5
100
AcDbLine
 10
-54.99999999991269
 20
121.2214311200775
 30
0.0
 11
-55.99999999991268
 21
122.2214311200921
 31
0.0
  0
LINE
  5
14B
330
31
100
AcDbEntity
  8
00
 62
74
370
5
100
AcDbLine
 10
-55.99999999991268
 20
122.2214311200921
 30
0.0
 11
-54.99999999991269
 21
123.2214311200775
 31
0.0
  0
LINE
  5
14C
330
31
100
AcDbEntity
  8
00
 62
74
370
5
100
AcDbLine
 10
-54.99999999991269
 20
119.2214311200775
 30
0.0
 11
-44.99999999991269
 21
119.2214311200775
 31
0.0
  0
LINE
  5
14D
330
31
100
AcDbEntity
  8
00
 62
74
370
5
100
AcDbLine
 10
-54.99999999991269
 20
119.2214311200775
 30
0.0
 11
-44.99999999991269
 21
119.2214311200775
 31
0.0
  0
LINE
  5
14E
330
31
100
AcDbEntity
  8
00
 62
74
370
5
100
AcDbLine
 10
-54.99999999991269
 20
121.2214311200775
 30
0.0
 11
-44.99999999991269
 21
121.2214311200775
 31
0.0
  0
LINE
  5
14F
330
31
100
AcDbEntity
  8
0
 62
74
370
5
100
AcDbLine
 10
-44.99999999991269
 20
119.2214311200775
 30
0.0
 11
-54.99999999991269
 21
119.2214311200775
 31
0.0
  0
LINE
  5
150
330
31
100
AcDbEntity
  8
0
 62
74
370
5
100
AcDbLine
 10
-44.99999999991269
 20
121.2214311200775
 30
0.0
 11
-54.99999999991269
 21
121.2214311200775
 31
0.0
  0
LINE
  5
151
330
31
100
AcDbEntity
  8
00
 62
74
370
5
100
AcDbLine
 10
-54.99999999991269
 20
123.2214311200775
 30
0.0
 11
-44.99999999991269
 21
123.2214311200775
 31
0.0
  0
LINE
  5
152
330
31
100
AcDbEntity
  8
0
 62
74
370
5
100
AcDbLine
 10
-42.25
 20
99.69889403151753
 30
0.0
 11
-44.49999999991269
 21
99.69889403151753
 31
0.0
  0
LINE
  5
153
330
31
100
AcDbEntity
  8
0
 62
74
370
5
100
AcDbLine
 10
-42.25
 20
97.69889403150296
 30
0.0
 11
-44.49999999991269
 21
97.69889403150296
 31
0.0
  0
ARC
  5
154
330
31
100
AcDbEntity
  8
0
 62
74
370
5
100
AcDbCircle
 10
-40.43971992080332
 20
98.69889403151753
 30
0.0
 40
0.5
100
AcDbArc
 50
270.0
 51
90.0
  0
LINE
  5
155
330
31
100
AcDbEntity
  8
0
 62
74
370
5
100
AcDbLine
 10
-40.43971992080332
 20
99.19889403151751
 30
0.0
 11
-42.25
 21
99.69889403151753
 31
0.0
  0
LINE
  5
156
330
31
100
AcDbEntity
  8
0
 62
74
370
5
100
AcDbLine
 10
-40.43971992080332
 20
98.19889403151751
 30
0.0
 11
-42.25
 21
97.69889403150296
 31
0.0
  0
LINE
  5
157
330
31
100
AcDbEntity
  8
00
 62
74
370
5
100
AcDbLine
 10
-43.99999999991268
 20
111.1484311200736
 30
0.0
 11
-43.99999999991268
 21
112.221431120063
 31
0.0
  0
LINE
  5
158
330
31
100
AcDbEntity
  8
0
 62
74
370
5
100
AcDbLine
 10
-44.99999999991269
 20
115.2214311200775
 30
0.0
 11
-43.99999999991268
 21
116.221431120063
 31
0.0
  0
LINE
  5
159
330
31
100
AcDbEntity
  8
00
 62
74
370
5
100
AcDbLine
 10
-43.99999999991268
 20
116.221431120063
 30
0.0
 11
-44.99999999991269
 21
117.2214311200775
 31
0.0
  0
LINE
  5
15A
330
31
100
AcDbEntity
  8
00
 62
74
370
5
100
AcDbLine
 10
-43.99999999991268
 20
112.221431120063
 30
0.0
 11
-44.99999999991269
 21
113.2214311200775
 31
0.0
  0
LINE
  5
15B
330
31
100
AcDbEntity
  8
0
 62
74
370
5
100
AcDbLine
 10
-44.99999999991269
 20
111.2214311200775
 30
0.0
 11
-43.99999999991268
 21
112.221431120063
 31
0.0
  0
LINE
  5
15C
330
31
100
AcDbEntity
  8
0
 62
74
370
5
100
AcDbLine
 10
-44.99999999991269
 20
113.2214311200775
 30
0.0
 11
-43.99999999991268
 21
114.2214311200775
 31
0.0
  0
LINE
  5
15D
330
31
100
AcDbEntity
  8
00
 62
74
370
5
100
AcDbLine
 10
-43.99999999991268
 20
114.2214311200775
 30
0.0
 11
-44.99999999991269
 21
115.2214311200775
 31
0.0
  0
LINE
  5
15E
330
31
100
AcDbEntity
  8
0
 62
74
370
5
100
AcDbLine
 10
-44.99999999991269
 20
115.2214311200775
 30
0.0
 11
-43.99999999991268
 21
116.221431120063
 31
0.0
  0
LINE
  5
15F
330
31
100
AcDbEntity
  8
00
 62
74
370
5
100
AcDbLine
 10
-43.99999999991268
 20
116.221431120063
 30
0.0
 11
-44.99999999991269
 21
117.2214311200775
 31
0.0
  0
LINE
  5
160
330
31
100
AcDbEntity
  8
00
 62
74
370
5
100
AcDbLine
 10
-39.49999999991269
 20
109.2722730972134
 30
0.0
 11
-39.49999999991269
 21
105.0245891429192
 31
0.0
  0
LINE
  5
161
330
31
100
AcDbEntity
  8
00
 62
74
370
5
100
AcDbLine
 10
-44.75
 20
105.0245891429192
 30
0.0
 11
-44.75
 21
109.2722730972134
 31
0.0
  0
ARC
  5
162
330
31
100
AcDbEntity
  8
00
 62
74
370
5
100
AcDbCircle
 10
-42.12499999991268
 20
105.9187118747038
 30
0.0
 40
2.773099431950476
100
AcDbArc
 50
198.8097763490431
 51
341.1902236509569
  0
ARC
  5
163
330
31
100
AcDbEntity
  8
00
 62
74
370
5
100
AcDbCircle
 10
-42.12499999991268
 20
108.3781503654434
 30
0.0
 40
2.773099431950476
100
AcDbArc
 50
18.8097763490431
 51
161.1902236509568
  0
LINE
  5
164
330
31
100
AcDbEntity
  8
0
 62
74
370
5
100
AcDbLine
 10
-44.99999999991269
 20
100.7131206219317
 30
0.0
 11
-43.99999999991268
 21
101.7131206219171
 31
0.0
  0
LINE
  5
165
330
31
100
AcDbEntity
  8
00
 62
74
370
5
100
AcDbLine
 10
-43.99999999991268
 20
101.7131206219171
 30
0.0
 11
-44.99999999991269
 21
102.7131206219317
 31
0.0
  0
LINE
  5
166
330
31
100
AcDbEntity
  8
0
 62
74
370
5
100
AcDbLine
 10
-44.99999999991269
 20
96.7131206219317
 30
0.0
 11
-43.99999999991268
 21
97.71312062191714
 31
0.0
  0
LINE
  5
167
330
31
100
AcDbEntity
  8
0
 62
74
370
5
100
AcDbLine
 10
-44.01422659039963
 20
99.69889403151753
 30
0.0
 11
-43.99999999991268
 21
99.7131206219317
 31
0.0
  0
LINE
  5
168
330
31
100
AcDbEntity
  8
00
 62
74
370
5
100
AcDbLine
 10
-43.99999999991268
 20
99.7131206219317
 30
0.0
 11
-44.99999999991269
 21
100.7131206219317
 31
0.0
  0
LINE
  5
169
330
31
100
AcDbEntity
  8
0
 62
74
370
5
100
AcDbLine
 10
-44.99999999991269
 20
96.7131206219317
 30
0.0
 11
-43.99999999991268
 21
97.71312062191714
 31
0.0
  0
LINE
  5
16A
330
31
100
AcDbEntity
  8
0
 62
74
370
5
100
AcDbLine
 10
-44.01422659039963
 20
99.69889403151753
 30
0.0
 11
-43.99999999991268
 21
99.7131206219317
 31
0.0
  0
LINE
  5
16B
330
31
100
AcDbEntity
  8
00
 62
74
370
5
100
AcDbLine
 10
-43.99999999991268
 20
99.7131206219317
 30
0.0
 11
-44.99999999991269
 21
100.7131206219317
 31
0.0
  0
ARC
  5
16C
330
31
100
AcDbEntity
  8
00
 62
74
370
5
100
AcDbCircle
 10
-42.12499999991268
 20
93.94283986730147
 30
0.0
 40
2.773099431950476
100
AcDbArc
 50
18.8097763490431
 51
161.1902236509568
  0
LINE
  5
16D
330
31
100
AcDbEntity
  8
0
 62
74
370
5
100
AcDbLine
 10
-45.0
 20
96.7131206219317
 30
0.0
 11
-45.0
 21
95.03390063767142
 31
0.0
  0
LINE
  5
16E
330
31
100
AcDbEntity
  8
0
 62
74
370
5
100
AcDbLine
 10
-44.99999999991269
 20
102.7131206219317
 30
0.0
 11
-44.99999999991269
 21
103.1484311200736
 31
0.0
  0
LINE
  5
16F
330
31
100
AcDbEntity
  8
0
 62
74
370
5
100
AcDbLine
 10
-57.75
 20
99.69889403151753
 30
0.0
 11
-55.5
 21
99.69889403151753
 31
0.0
  0
LINE
  5
170
330
31
100
AcDbEntity
  8
0
 62
74
370
5
100
AcDbLine
 10
-55.5
 20
97.69889403150296
 30
0.0
 11
-57.75
 21
97.69889403150296
 31
0.0
  0
ARC
  5
171
330
31
100
AcDbEntity
  8
0
 62
74
370
5
100
AcDbCircle
 10
-59.54305113689042
 20
98.69889403151753
 30
0.0
 40
0.5
100
AcDbArc
 50
102.2459918914671
 51
257.7540081085328
  0
LINE
  5
172
330
31
100
AcDbEntity
  8
0
 62
74
370
5
100
AcDbLine
 10
-57.75
 20
99.69889403151753
 30
0.0
 11
-59.64910579178831
 21
99.18751700494317
 31
0.0
  0
LINE
  5
173
330
31
100
AcDbEntity
  8
0
 62
74
370
5
100
AcDbLine
 10
-57.75
 20
97.69889403150296
 30
0.0
 11
-59.64910579178831
 21
98.21027105806274
 31
0.0
  0
LINE
  5
174
330
31
100
AcDbEntity
  8
0
 62
74
370
5
100
AcDbLine
 10
-54.99999999991269
 20
115.2214311200775
 30
0.0
 11
-55.99999999991268
 21
116.221431120063
 31
0.0
  0
LINE
  5
175
330
31
100
AcDbEntity
  8
00
 62
74
370
5
100
AcDbLine
 10
-55.99999999991268
 20
116.221431120063
 30
0.0
 11
-54.99999999991269
 21
117.2214311200775
 31
0.0
  0
LINE
  5
176
330
31
100
AcDbEntity
  8
00
 62
74
370
5
100
AcDbLine
 10
-55.99999999991268
 20
112.221431120063
 30
0.0
 11
-54.99999999991269
 21
113.2214311200775
 31
0.0
  0
LINE
  5
177
330
31
100
AcDbEntity
  8
0
 62
74
370
5
100
AcDbLine
 10
-54.99999999991269
 20
111.2214311200775
 30
0.0
 11
-55.99999999991268
 21
112.221431120063
 31
0.0
  0
LINE
  5
178
330
31
100
AcDbEntity
  8
0
 62
74
370
5
100
AcDbLine
 10
-54.99999999991269
 20
113.2214311200775
 30
0.0
 11
-55.99999999991268
 21
114.2214311200775
 31
0.0
  0
LINE
  5
179
330
31
100
AcDbEntity
  8
00
 62
74
370
5
100
AcDbLine
 10
-55.99999999991268
 20
114.2214311200775
 30
0.0
 11
-54.99999999991269
 21
115.2214311200775
 31
0.0
  0
LINE
  5
17A
330
31
100
AcDbEntity
  8
0
 62
74
370
5
100
AcDbLine
 10
-54.99999999991269
 20
115.2214311200775
 30
0.0
 11
-55.99999999991268
 21
116.221431120063
 31
0.0
  0
LINE
  5
17B
330
31
100
AcDbEntity
  8
00
 62
74
370
5
100
AcDbLine
 10
-55.99999999991268
 20
116.221431120063
 30
0.0
 11
-54.99999999991269
 21
117.2214311200775
 31
0.0
  0
LINE
  5
17C
330
31
100
AcDbEntity
  8
00
 62
74
370
5
100
AcDbLine
 10
-60.49999999991269
 20
109.2722730972134
 30
0.0
 11
-60.49999999991269
 21
105.0245891429483
 31
0.0
  0
ARC
  5
17D
330
31
100
AcDbEntity
  8
00
 62
74
370
5
100
AcDbCircle
 10
-57.87499999991268
 20
105.9187118747038
 30
0.0
 40
2.773099431950017
100
AcDbArc
 50
198.8097763490431
 51
341.1902236509569
  0
ARC
  5
17E
330
31
100
AcDbEntity
  8
00
 62
74
370
5
100
AcDbCircle
 10
-57.87499999991268
 20
108.3781503654434
 30
0.0
 40
2.773099431950017
100
AcDbArc
 50
18.8097763490431
 51
161.1902236509568
  0
LINE
  5
17F
330
31
100
AcDbEntity
  8
00
 62
74
370
5
100
AcDbLine
 10
-55.24999999991269
 20
105.0245891429192
 30
0.0
 11
-55.24999999991269
 21
109.2722730972134
 31
0.0
  0
LINE
  5
180
330
31
100
AcDbEntity
  8
0
 62
74
370
5
100
AcDbLine
 10
-54.99999999991269
 20
100.7131206219317
 30
0.0
 11
-55.99999999991268
 21
101.7131206219171
 31
0.0
  0
LINE
  5
181
330
31
100
AcDbEntity
  8
00
 62
74
370
5
100
AcDbLine
 10
-55.99999999991268
 20
101.7131206219171
 30
0.0
 11
-54.99999999991269
 21
102.7131206219317
 31
0.0
  0
LINE
  5
182
330
31
100
AcDbEntity
  8
00
 62
74
370
5
100
AcDbLine
 10
-55.99999999991268
 20
99.7131206219317
 30
0.0
 11
-54.99999999991269
 21
100.7131206219317
 31
0.0
  0
LINE
  5
183
330
31
100
AcDbEntity
  8
0
 62
74
370
5
100
AcDbLine
 10
-54.99999999991269
 20
96.7131206219317
 30
0.0
 11
-55.99999999991268
 21
97.71312062191714
 31
0.0
  0
LINE
  5
184
330
31
100
AcDbEntity
  8
00
 62
74
370
5
100
AcDbLine
 10
-55.99999999991268
 20
99.7131206219317
 30
0.0
 11
-54.99999999991269
 21
100.7131206219317
 31
0.0
  0
ARC
  5
185
330
31
100
AcDbEntity
  8
00
 62
74
370
5
100
AcDbCircle
 10
-57.87499999991268
 20
93.94283986730147
 30
0.0
 40
2.773099431950017
100
AcDbArc
 50
18.8097763490431
 51
161.1902236509568
  0
LINE
  5
186
330
31
100
AcDbEntity
  8
0
 62
74
370
5
100
AcDbLine
 10
-54.99999999991269
 20
96.7131206219317
 30
0.0
 11
-54.99999999991269
 21
95.03390063767142
 31
0.0
  0
LINE
  5
187
330
31
100
AcDbEntity
  8
0
 62
74
370
5
100
AcDbLine
 10
-55.98577340948395
 20
99.69889403151753
 30
0.0
 11
-55.99999999991268
 21
99.7131206219317
 31
0.0
  0
LINE
  5
188
330
31
100
AcDbEntity
  8
0
 62
74
370
5
100
AcDbLine
 10
-55.98577340948395
 20
99.69889403151753
 30
0.0
 11
-55.99999999991268
 21
99.7131206219317
 31
0.0
  0
LINE
  5
189
330
31
100
AcDbEntity
  8
0
 62
74
370
5
100
AcDbLine
 10
-54.99999999991269
 20
102.7131206219317
 30
0.0
 11
-54.99999999991269
 21
103.1484311200736
 31
0.0
  0
LINE
  5
18A
330
31
100
AcDbEntity
  8
0
 62
74
370
5
100
AcDbLine
 10
-57.75
 20
99.69889403151753
 30
0.0
 11
-42.25
 21
99.69889403151753
 31
0.0
  0
LINE
  5
18B
330
31
100
AcDbEntity
  8
0
 62
74
370
5
100
AcDbLine
 10
-42.25
 20
97.69889403150296
 30
0.0
 11
-57.75
 21
97.69889403150296
 31
0.0
  0
LINE
  5
18C
330
31
100
AcDbEntity
  8
0
 62
74
370
5
100
AcDbLine
 10
-59.82778689592669
 20
98.28788849924308
 30
0.0
 11
-58.66248980443924
 21
99.4531855907378
 31
0.0
  0
LINE
  5
18D
330
31
100
AcDbEntity
  8
0
 62
74
370
5
100
AcDbLine
 10
-56.88124745774257
 20
97.69889403150296
 30
0.0
 11
-54.88124745772802
 21
99.69889403151753
 31
0.0
  0
LINE
  5
18E
330
31
100
AcDbEntity
  8
0
 62
74
370
5
100
AcDbLine
 10
-53.34571355181106
 20
97.69889403150296
 30
0.0
 11
-51.34571355179651
 21
99.69889403151753
 31
0.0
  0
LINE
  5
18F
330
31
100
AcDbEntity
  8
0
 62
74
370
5
100
AcDbLine
 10
-49.81017964586499
 20
97.69889403151024
 30
0.0
 11
-47.81017964585044
 21
99.69889403152477
 31
0.0
  0
LINE
  5
190
330
31
100
AcDbEntity
  8
0
 62
74
370
5
100
AcDbLine
 10
-46.27464573993347
 20
97.69889403151024
 30
0.0
 11
-44.27464573991892
 21
99.69889403152477
 31
0.0
  0
LINE
  5
191
330
31
100
AcDbEntity
  8
0
 62
74
370
5
100
AcDbLine
 10
-42.73911183400196
 20
97.69889403150296
 30
0.0
 11
-41.06610425790131
 21
99.3719016076109
 31
0.0
  0
LINE
  5
192
330
31
100
AcDbEntity
  8
0
 62
74
370
5
100
AcDbLine
 10
-44.99999999991269
 20
102.7131206219317
 30
0.0
 11
-54.99999999991269
 21
102.7131206219317
 31
0.0
  0
LINE
  5
193
330
31
100
AcDbEntity
  8
0
 62
74
370
5
100
AcDbLine
 10
-44.99999999991269
 20
100.7131206219317
 30
0.0
 11
-54.99999999991269
 21
100.7131206219317
 31
0.0
  0
LINE
  5
194
330
31
100
AcDbEntity
  8
00
 62
74
370
5
100
AcDbLine
 10
-54.99999999991269
 20
102.7131206219317
 30
0.0
 11
-44.99999999991269
 21
102.7131206219317
 31
0.0
  0
LINE
  5
195
330
31
100
AcDbEntity
  8
0
 62
74
370
5
100
AcDbLine
 10
-44.99999999991269
 20
96.7131206219317
 30
0.0
 11
-54.99999999991269
 21
96.7131206219317
 31
0.0
  0
LINE
  5
196
330
31
100
AcDbEntity
  8
00
 62
74
370
5
100
AcDbLine
 10
-54.99999999991269
 20
100.7131206219317
 30
0.0
 11
-44.99999999991269
 21
100.7131206219317
 31
0.0
  0
LINE
  5
197
330
31
100
AcDbEntity
  8
00
 62
74
370
5
100
AcDbLine
 10
-54.99999999991269
 20
96.7131206219317
 30
0.0
 11
-44.99999999991269
 21
96.7131206219317
 31
0.0
  0
LINE
  5
198
330
31
100
AcDbEntity
  8
0
 62
74
370
5
100
AcDbLine
 10
-44.99999999991269
 20
96.7131206219317
 30
0.0
 11
-54.99999999991269
 21
96.7131206219317
 31
0.0
  0
LINE
  5
199
330
31
100
AcDbEntity
  8
00
 62
74
370
5
100
AcDbLine
 10
-54.99999999991269
 20
100.7131206219317
 30
0.0
 11
-44.99999999991269
 21
100.7131206219317
 31
0.0
  0
LINE
  5
19A
330
31
100
AcDbEntity
  8
0
 62
74
370
5
100
AcDbLine
 10
-44.99999999991269
 20
117.2214311200775
 30
0.0
 11
-54.99999999991269
 21
117.2214311200775
 31
0.0
  0
LINE
  5
19B
330
31
100
AcDbEntity
  8
0
 62
74
370
5
100
AcDbLine
 10
-44.99999999991269
 20
115.2214311200775
 30
0.0
 11
-54.99999999991269
 21
115.2214311200775
 31
0.0
  0
LINE
  5
19C
330
31
100
AcDbEntity
  8
00
 62
74
370
5
100
AcDbLine
 10
-54.99999999991269
 20
117.2214311200775
 30
0.0
 11
-44.99999999991269
 21
117.2214311200775
 31
0.0
  0
LINE
  5
19D
330
31
100
AcDbEntity
  8
00
 62
74
370
5
100
AcDbLine
 10
-54.99999999991269
 20
113.2214311200775
 30
0.0
 11
-44.99999999991269
 21
113.2214311200775
 31
0.0
  0
LINE
  5
19E
330
31
100
AcDbEntity
  8
0
 62
74
370
5
100
AcDbLine
 10
-44.99999999991269
 20
111.2214311200775
 30
0.0
 11
-54.99999999991269
 21
111.2214311200775
 31
0.0
  0
LINE
  5
19F
330
31
100
AcDbEntity
  8
0
 62
74
370
5
100
AcDbLine
 10
-44.99999999991269
 20
113.2214311200775
 30
0.0
 11
-54.99999999991269
 21
113.2214311200775
 31
0.0
  0
LINE
  5
1A0
330
31
100
AcDbEntity
  8
00
 62
74
370
5
100
AcDbLine
 10
-54.99999999991269
 20
115.2214311200775
 30
0.0
 11
-44.99999999991269
 21
115.2214311200775
 31
0.0
  0
LINE
  5
1A1
330
31
100
AcDbEntity
  8
0
 62
74
370
5
100
AcDbLine
 10
-44.99999999991269
 20
117.2214311200775
 30
0.0
 11
-54.99999999991269
 21
117.2214311200775
 31
0.0
  0
LINE
  5
1A2
330
31
100
AcDbEntity
  8
0
 62
74
370
5
100
AcDbLine
 10
-44.99999999991269
 20
115.2214311200775
 30
0.0
 11
-54.99999999991269
 21
115.2214311200775
 31
0.0
  0
LINE
  5
1A3
330
31
100
AcDbEntity
  8
00
 62
74
370
5
100
AcDbLine
 10
-54.99999999991269
 20
117.2214311200775
 30
0.0
 11
-44.99999999991269
 21
117.2214311200775
 31
0.0
  0
LINE
  5
1A4
330
31
100
AcDbEntity
  8
00
 62
74
370
5
100
AcDbLine
 10
-42.0
 20
103.1484311200736
 30
0.0
 11
-57.99999999991269
 21
103.1484311200736
 31
0.0
  0
LINE
  5
1A5
330
31
100
AcDbEntity
  8
00
 62
74
370
5
100
AcDbLine
 10
-57.99999999991269
 20
96.7131206219317
 30
0.0
 11
-43.98653989299782
 21
96.7131206219317
 31
0.0
  0
ARC
  5
1A6
330
31
100
AcDbEntity
  8
00
 62
74
370
5
100
AcDbCircle
 10
-50.0
 20
88.42957825821645
 30
0.0
 40
8.283542363731021
100
AcDbArc
 50
50.66993661763627
 51
129.3300633823637
  0
LINE
  5
1A7
330
31
100
AcDbEntity
  8
00
 62
74
370
5
100
AcDbLine
 10
-41.99999999991269
 20
96.7131206219317
 30
0.0
 11
-57.99999999991269
 21
96.7131206219317
 31
0.0
  0
ARC
  5
1A8
330
31
100
AcDbEntity
  8
00
 62
74
370
5
100
AcDbCircle
 10
-50.0
 20
111.4319734838034
 30
0.0
 40
8.283542363731021
100
AcDbArc
 50
230.6699366176363
 51
309.3300633823637
  0
LINE
  5
1A9
330
31
100
AcDbEntity
  8
00
 62
74
370
5
100
AcDbLine
 10
-41.99999999991269
 20
111.1484311200736
 30
0.0
 11
-57.99999999991269
 21
111.1484311200736
 31
0.0
  0
ARC
  5
1AA
330
31
100
AcDbEntity
  8
00
 62
74
370
5
100
AcDbCircle
 10
-50.0
 20
102.8648887563438
 30
0.0
 40
8.283542363731021
100
AcDbArc
 50
50.66993661763627
 51
129.3300633823637
  0
LINE
  5
1AB
330
31
100
AcDbEntity
  8
00
 62
74
370
5
100
AcDbLine
 10
-57.99999999991269
 20
111.1484311200736
 30
0.0
 11
-43.98653989299782
 21
111.1484311200736
 31
0.0
  0
ARC
  5
1AC
330
31
100
AcDbEntity
  8
00
 62
74
370
5
100
AcDbCircle
 10
-42.12499999991268
 20
91.48340137654736
 30
0.0
 40
2.773099431950476
100
AcDbArc
 50
198.8097763490431
 51
341.1902236509569
  0
ARC
  5
1AD
330
31
100
AcDbEntity
  8
00
 62
74
370
5
100
AcDbCircle
 10
-42.125
 20
91.48340137654736
 30
0.0
 40
2.773099431950476
100
AcDbArc
 50
198.8097763490431
 51
341.1902236509569
  0
LINE
  5
1AE
330
31
100
AcDbEntity
  8
0
 62
74
370
5
100
AcDbLine
 10
-45.0
 20
90.39234060620652
 30
0.0
 11
-45.0
 21
88.71312062191714
 31
0.0
  0
ARC
  5
1AF
330
31
100
AcDbEntity
  8
00
 62
74
370
5
100
AcDbCircle
 10
-57.87499999991268
 20
91.48340137654736
 30
0.0
 40
2.773099431950017
100
AcDbArc
 50
198.8097763490431
 51
341.1902236509569
  0
ARC
  5
1B0
330
31
100
AcDbEntity
  8
00
 62
74
370
5
100
AcDbCircle
 10
-57.875
 20
91.48340137654736
 30
0.0
 40
2.773099431950017
100
AcDbArc
 50
198.8097763490431
 51
341.1902236509569
  0
LINE
  5
1B1
330
31
100
AcDbEntity
  8
0
 62
74
370
5
100
AcDbLine
 10
-54.99999999991269
 20
90.39234060620652
 30
0.0
 11
-54.99999999991269
 21
88.71312062191714
 31
0.0
  0
LINE
  5
1B2
330
31
100
AcDbEntity
  8
0
 62
74
370
5
100
AcDbLine
 10
-35.0
 20
88.71312062191714
 30
0.0
 11
-65.0
 21
88.71312062191714
 31
0.0
  0
LINE
  5
1B3
330
31
100
AcDbEntity
  8
00
 62
74
370
5
100
AcDbLine
 10
-42.0
 20
88.71312062191714
 30
0.0
 11
-57.99999999991269
 21
88.71312062191714
 31
0.0
  0
ARC
  5
1B4
330
31
100
AcDbEntity
  8
00
 62
74
370
5
100
AcDbCircle
 10
-50.0
 20
96.9966629856615
 30
0.0
 40
8.283542363731021
100
AcDbArc
 50
230.6699366176363
 51
309.3300633823637
  0
LINE
  5
1B5
330
31
100
AcDbEntity
  8
00
 62
74
370
5
100
AcDbLine
 10
-42.0
 20
88.71312062191714
 30
0.0
 11
-58.0
 21
88.71312062191714
 31
0.0
  0
LINE
  5
1B6
330
31
100
AcDbEntity
  8
00
 62
74
370
5
100
AcDbLine
 10
-56.01346010688576
 20
88.71312062191714
 30
0.0
 11
-43.98653989299782
 21
88.71312062191714
 31
0.0
  0
ARC
  5
1B7
330
31
100
AcDbEntity
  8
00
 62
74
370
5
100
AcDbCircle
 10
-50.0
 20
96.9966629856615
 30
0.0
 40
8.283542363731021
100
AcDbArc
 50
230.6699366176363
 51
309.3300633823637
  0
LINE
  5
1B8
330
31
100
AcDbEntity
  8
0
 62
74
370
5
100
AcDbLine
 10
-60.49999999991269
 20
90.58927864473365
 30
0.0
 11
-60.49999999991269
 21
94.83696259905697
 31
0.0
  0
LINE
  5
1B9
330
31
100
AcDbEntity
  8
00
 62
74
370
5
100
AcDbLine
 10
-60.5
 20
90.58927864479188
 30
0.0
 11
-60.5
 21
94.83696259905697
 31
0.0
  0
LINE
  5
1BA
330
31
100
AcDbEntity
  8
00
 62
74
370
5
100
AcDbLine
 10
-55.24999999991269
 20
90.58927864477732
 30
0.0
 11
-55.24999999991269
 21
94.83696259905697
 31
0.0
  0
LINE
  5
1BB
330
31
100
AcDbEntity
  8
00
 62
74
370
5
100
AcDbLine
 10
-60.49999999991269
 20
94.83696259905697
 30
0.0
 11
-60.49999999991269
 21
90.58927864479188
 31
0.0
  0
LINE
  5
1BC
330
31
100
AcDbEntity
  8
00
 62
74
370
5
100
AcDbLine
 10
-39.5
 20
90.58927864477732
 30
0.0
 11
-39.5
 21
94.83696259910062
 31
0.0
  0
LINE
  5
1BD
330
31
100
AcDbEntity
  8
0
 62
74
370
5
100
AcDbLine
 10
-39.49999999991269
 20
90.58927864482098
 30
0.0
 11
-39.49999999991269
 21
94.83696259907151
 31
0.0
  0
LINE
  5
1BE
330
31
100
AcDbEntity
  8
00
 62
74
370
5
100
AcDbLine
 10
-44.75
 20
90.58927864477732
 30
0.0
 11
-44.75
 21
94.83696259905697
 31
0.0
  0
LINE
  5
1BF
330
31
100
AcDbEntity
  8
00
 62
74
370
5
100
AcDbLine
 10
-39.49999999991269
 20
94.83696259907151
 30
0.0
 11
-39.49999999991269
 21
90.58927864477732
 31
0.0
  0
LINE
  5
1C0
330
31
100
AcDbEntity
  8
0
 62
74
370
5
100
AcDbLine
 10
-54.99999999991269
 20
117.2214311200775
 30
0.0
 11
-55.99999999991268
 21
118.2214311200921
 31
0.0
  0
LINE
  5
1C1
330
31
100
AcDbEntity
  8
0
 62
74
370
5
100
AcDbLine
 10
-54.99999999991269
 20
117.2214311200775
 30
0.0
 11
-55.99999999991268
 21
118.2214311200921
 31
0.0
  0
LINE
  5
1C2
330
31
100
AcDbEntity
  8
0
 62
74
370
5
100
AcDbLine
 10
-44.99999999991269
 20
117.2214311200775
 30
0.0
 11
-43.99999999991268
 21
118.2214311200921
 31
0.0
  0
LINE
  5
1C3
330
31
100
AcDbEntity
  8
0
 62
74
370
5
100
AcDbLine
 10
-44.99999999991269
 20
117.2214311200775
 30
0.0
 11
-43.99999999991268
 21
118.2214311200921
 31
0.0
  0
ARC
  5
1C4
330
31
100
AcDbEntity
  8
0
 62
74
100
AcDbCircle
 10
75.0
 20
48.22143112007757
 30
0.0
 40
10.0
100
AcDbArc
 50
0.0
 51
90.0
  0
LINE
  5
1C5
330
31
100
AcDbEntity
  8
0
 62
74
370
5
100
AcDbLine
 10
50.0
 20
58.22143112007757
 30
0.0
 11
65.0
 21
58.22143112007757
 31
0.0
  0
LINE
  5
1C6
330
31
100
AcDbEntity
  8
0
 62
74
370
5
100
AcDbLine
 10
50.0
 20
58.22143112007757
 30
0.0
 11
65.0
 21
58.22143112007757
 31
0.0
  0
LINE
  5
1C7
330
31
100
AcDbEntity
  8
0
 62
74
370
5
100
AcDbLine
 10
50.0
 20
58.22143112007757
 30
0.0
 11
65.0
 21
58.22143112007757
 31
0.0
  0
LINE
  5
1C8
330
31
100
AcDbEntity
  8
0
 62
74
370
5
100
AcDbLine
 10
0.0
 20
58.22143112007757
 30
0.0
 11
15.0
 21
58.22143112007757
 31
0.0
  0
LINE
  5
1C9
330
31
100
AcDbEntity
  8
0
 62
74
370
5
100
AcDbLine
 10
0.0
 20
58.22143112007757
 30
0.0
 11
15.0
 21
58.22143112007757
 31
0.0
  0
LINE
  5
1CA
330
31
100
AcDbEntity
  8
0
 62
74
370
5
100
AcDbLine
 10
0.0
 20
58.22143112007757
 30
0.0
 11
15.0
 21
58.22143112007757
 31
0.0
  0
LINE
  5
1CB
330
31
100
AcDbEntity
  8
0
 62
74
370
5
100
AcDbLine
 10
-50.0
 20
58.22143112007757
 30
0.0
 11
-35.0
 21
58.22143112007757
 31
0.0
  0
LINE
  5
1CC
330
31
100
AcDbEntity
  8
0
 62
74
370
5
100
AcDbLine
 10
15.0
 20
58.22143112007757
 30
0.0
 11
15.0
 21
88.71312062191714
 31
0.0
  0
LINE
  5
1CD
330
31
100
AcDbEntity
  8
0
 62
74
370
5
100
AcDbLine
 10
-15.0
 20
88.71312062191714
 30
0.0
 11
-15.0
 21
58.22143112007757
 31
0.0
  0
LINE
  5
1CE
330
31
100
AcDbEntity
  8
0
 62
74
370
5
100
AcDbLine
 10
15.0
 20
58.22143112007757
 30
0.0
 11
15.0
 21
86.71312062191716
 31
0.0
  0
LINE
  5
1CF
330
31
100
AcDbEntity
  8
0
 62
74
370
5
100
AcDbLine
 10
65.0
 20
58.22143112007757
 30
0.0
 11
65.0
 21
86.71312062191716
 31
0.0
  0
LINE
  5
1D0
330
31
100
AcDbEntity
  8
0
 62
74
370
5
100
AcDbLine
 10
35.0
 20
88.71312062191714
 30
0.0
 11
35.0
 21
58.22143112007757
 31
0.0
  0
LINE
  5
1D1
330
31
100
AcDbEntity
  8
0
 62
74
370
5
100
AcDbLine
 10
65.0
 20
58.22143112007757
 30
0.0
 11
65.0
 21
88.71312062191714
 31
0.0
  0
LINE
  5
1D2
330
31
100
AcDbEntity
  8
0
 62
74
370
5
100
AcDbLine
 10
-35.0
 20
58.22143112007757
 30
0.0
 11
-35.0
 21
86.71312062191716
 31
0.0
  0
LINE
  5
1D3
330
31
100
AcDbEntity
  8
0
 62
74
370
5
100
AcDbLine
 10
-65.0
 20
88.71312062191714
 30
0.0
 11
-65.0
 21
58.22143112007757
 31
0.0
  0
LINE
  5
1D4
330
31
100
AcDbEntity
  8
0
 62
74
370
5
100
AcDbLine
 10
-35.0
 20
58.22143112007757
 30
0.0
 11
-35.0
 21
88.71312062191714
 31
0.0
  0
LINE
  5
1D5
330
31
100
AcDbEntity
  8
0
 62
74
370
5
100
AcDbLine
 10
-15.0
 20
88.71312062191714
 30
0.0
 11
-15.0
 21
58.22143112007757
 31
0.0
  0
LINE
  5
1D6
330
31
100
AcDbEntity
  8
0
 62
74
370
5
100
AcDbLine
 10
15.0
 20
58.22143112007757
 30
0.0
 11
15.0
 21
88.71312062191714
 31
0.0
  0
LINE
  5
1D7
330
31
100
AcDbEntity
  8
0
 62
74
370
5
100
AcDbLine
 10
15.0
 20
58.22143112007757
 30
0.0
 11
15.0
 21
86.71312062191716
 31
0.0
  0
LINE
  5
1D8
330
31
100
AcDbEntity
  8
0
 62
74
370
5
100
AcDbLine
 10
35.0
 20
88.71312062191714
 30
0.0
 11
35.0
 21
58.22143112007757
 31
0.0
  0
LINE
  5
1D9
330
31
100
AcDbEntity
  8
0
 62
74
370
5
100
AcDbLine
 10
65.0
 20
58.22143112007757
 30
0.0
 11
65.0
 21
88.71312062191714
 31
0.0
  0
LINE
  5
1DA
330
31
100
AcDbEntity
  8
0
 62
74
370
5
100
AcDbLine
 10
65.0
 20
58.22143112007757
 30
0.0
 11
65.0
 21
86.71312062191716
 31
0.0
  0
LINE
  5
1DB
330
31
100
AcDbEntity
  8
0
 62
74
370
5
100
AcDbLine
 10
15.0
 20
58.22143112007757
 30
0.0
 11
15.0
 21
88.71312062191714
 31
0.0
  0
LINE
  5
1DC
330
31
100
AcDbEntity
  8
0
 62
74
370
5
100
AcDbLine
 10
-15.0
 20
88.71312062191714
 30
0.0
 11
-15.0
 21
58.22143112007757
 31
0.0
  0
LINE
  5
1DD
330
31
100
AcDbEntity
  8
0
 62
74
370
5
100
AcDbLine
 10
15.0
 20
58.22143112007757
 30
0.0
 11
15.0
 21
86.71312062191716
 31
0.0
  0
LINE
  5
1DE
330
31
100
AcDbEntity
  8
0
 62
74
370
5
100
AcDbLine
 10
65.0
 20
58.22143112007757
 30
0.0
 11
65.0
 21
88.71312062191714
 31
0.0
  0
LINE
  5
1DF
330
31
100
AcDbEntity
  8
0
 62
74
370
5
100
AcDbLine
 10
35.0
 20
88.71312062191714
 30
0.0
 11
35.0
 21
58.22143112007757
 31
0.0
  0
LINE
  5
1E0
330
31
100
AcDbEntity
  8
0
 62
74
370
5
100
AcDbLine
 10
65.0
 20
58.22143112007757
 30
0.0
 11
65.0
 21
86.71312062191716
 31
0.0
  0
LINE
  5
1E1
330
31
100
AcDbEntity
  8
0
 62
74
100
AcDbLine
 10
55.0
 20
-129.7785002441626
 30
0.0
 11
55.0
 21
-161.7785002441626
 31
0.0
  0
LINE
  5
1E2
330
31
100
AcDbEntity
  8
0
 62
74
100
AcDbLine
 10
55.0
 20
-161.7785002441626
 30
0.0
 11
106.0
 21
-161.7785002441626
 31
0.0
  0
LINE
  5
1E3
330
31
100
AcDbEntity
  8
0
 62
74
100
AcDbLine
 10
106.0
 20
-161.7785002441626
 30
0.0
 11
106.0
 21
-159.7785002441626
 31
0.0
  0
LINE
  5
1E4
330
31
100
AcDbEntity
  8
0
 62
74
100
AcDbLine
 10
106.0
 20
-159.7785002441626
 30
0.0
 11
85.0
 21
-159.7785002441626
 31
0.0
  0
LINE
  5
1E5
330
31
100
AcDbEntity
  8
0
 62
74
100
AcDbLine
 10
85.0
 20
-159.7785002441626
 30
0.0
 11
85.0
 21
-129.7785002441626
 31
0.0
  0
LINE
  5
1E6
330
31
100
AcDbEntity
  8
0
 62
74
100
AcDbLine
 10
85.0
 20
-129.7785002441626
 30
0.0
 11
55.0
 21
-129.7785002441626
 31
0.0
  0
LINE
  5
1E7
330
31
100
AcDbEntity
  8
0
 62
74
100
AcDbLine
 10
-55.0
 20
-129.7785002441626
 30
0.0
 11
-55.0
 21
-161.7785002441626
 31
0.0
  0
LINE
  5
1E8
330
31
100
AcDbEntity
  8
0
 62
74
100
AcDbLine
 10
-55.0
 20
-161.7785002441626
 30
0.0
 11
-106.0
 21
-161.7785002441626
 31
0.0
  0
LINE
  5
1E9
330
31
100
AcDbEntity
  8
0
 62
74
100
AcDbLine
 10
-106.0
 20
-161.7785002441626
 30
0.0
 11
-106.0
 21
-159.7785002441626
 31
0.0
  0
LINE
  5
1EA
330
31
100
AcDbEntity
  8
0
 62
74
100
AcDbLine
 10
-106.0
 20
-159.7785002441626
 30
0.0
 11
-85.0
 21
-159.7785002441626
 31
0.0
  0
LINE
  5
1EB
330
31
100
AcDbEntity
  8
0
 62
74
100
AcDbLine
 10
-85.0
 20
-159.7785002441626
 30
0.0
 11
-85.0
 21
-129.7785002441626
 31
0.0
  0
LINE
  5
1EC
330
31
100
AcDbEntity
  8
0
 62
74
100
AcDbLine
 10
-85.0
 20
-129.7785002441626
 30
0.0
 11
-55.0
 21
-129.7785002441626
 31
0.0
  0
LINE
  5
1ED
330
31
100
AcDbEntity
  8
0
 62
74
370
5
100
AcDbLine
 10
0.0
 20
-22.79759056767511
 30
0.0
 11
12.0
 21
-22.79759056767511
 31
0.0
  0
LINE
  5
1EE
330
31
100
AcDbEntity
  8
0
 62
74
370
5
100
AcDbLine
 10
0.0
 20
-22.79759056767511
 30
0.0
 11
12.0
 21
-22.79759056767511
 31
0.0
  0
LINE
  5
1EF
330
31
100
AcDbEntity
  8
0
 62
74
370
5
100
AcDbLine
 10
0.0
 20
-22.79759056767511
 30
0.0
 11
12.0
 21
-22.79759056767511
 31
0.0
  0
LWPOLYLINE
  5
1F0
330
31
100
AcDbEntity
  8
0
 62
150
100
AcDbPolyline
 90
8
 70
1
 10
-28.82559999999648
 20
-22.79759056767511
 10
28.82560000001104
 20
-22.79759056767511
 42
-0.4142135623730951
 10
29.44000000000233
 20
-23.41199056767369
 10
29.44000000000233
 20
-65.98574782967921
 42
-0.4142135623730951
 10
28.82560000001104
 20
-66.60014782967778
 10
-28.82559999999648
 20
-66.60014782967778
 42
-0.4142135623730951
 10
-29.43999999998778
 20
-65.98574782967921
 10
-29.43999999998778
 20
-23.41199056767369
 42
-0.4142135623730951
  0
INSERT
  5
1F1
330
31
100
AcDbEntity
  8
0
100
AcDbBlockReference
  2
Nuintek
 10
-21.71589715812297
 20
-63.55446490457985
 30
0.0
 41
0.8469964196410728
 42
0.8469964196410728
 43
0.8469964196410728
  0
TEXT
  5
1F3
330
31
100
AcDbEntity
  8
0
100
AcDbText
 10
-16.33763946322201
 20
-26.73257424431893
 30
0.0
 40
2.048
  1
Shunt PowerSH Capacitor
  7
Helvetica-Narrow
 72
1
 11
0.3023605367779965
 21
-25.70857424431892
 31
0.0
100
AcDbText
 73
2
  0
TEXT
  5
1F4
330
31
100
AcDbEntity
  8
0
100
AcDbText
 10
-1.98055126942927
 20
-61.58047549662225
 30
0.0
 40
1.536
  1
NUINTEK CO., LTD.
  7
Helvetica-Narrow
 11
-1.98055126942927
 21
-60.81247549662226
 31
0.0
100
AcDbText
 73
2
  0
TEXT
  5
1F5
330
31
100
AcDbEntity
  8
0
100
AcDbText
 10
-1.98055126942927
 20
-64.15713543002423
 30
0.0
 40
1.536
  1
Made in KOREA
  7
Helvetica-Narrow
 11
-1.98055126942927
 21
-63.38913543002423
 31
0.0
100
AcDbText
 73
2
  0
LINE
  5
1F6
330
31
100
AcDbEntity
  8
0
370
9
100
AcDbLine
 10
-29.43999999998778
 20
-31.35134314774337
 30
0.0
 11
29.44000000000233
 21
-31.35134314774337
 31
0.0
  0
LINE
  5
1F7
330
31
100
AcDbEntity
  8
0
370
9
100
AcDbLine
 10
-29.43999999998778
 20
-35.19134314773987
 30
0.0
 11
29.44000000000233
 21
-35.19134314773987
 31
0.0
  0
LINE
  5
1F8
330
31
100
AcDbEntity
  8
0
370
9
100
AcDbLine
 10
-29.43999999998778
 20
-39.03134314774366
 30
0.0
 11
29.44000000000233
 21
-39.03134314774366
 31
0.0
  0
LINE
  5
1F9
330
31
100
AcDbEntity
  8
0
370
9
100
AcDbLine
 10
-29.43999999998778
 20
-42.87134314774016
 30
0.0
 11
29.44000000000233
 21
-42.87134314774016
 31
0.0
  0
LINE
  5
1FA
330
31
100
AcDbEntity
  8
0
370
9
100
AcDbLine
 10
-29.43999999998778
 20
-46.71134314774394
 30
0.0
 11
29.44000000000233
 21
-46.71134314774394
 31
0.0
  0
LINE
  5
1FB
330
31
100
AcDbEntity
  8
0
370
9
100
AcDbLine
 10
-29.43999999998778
 20
-50.55134314774773
 30
0.0
 11
29.44000000000233
 21
-50.55134314774773
 31
0.0
  0
LINE
  5
1FC
330
31
100
AcDbEntity
  8
0
370
9
100
AcDbLine
 10
-29.43999999998778
 20
-54.39134314774424
 30
0.0
 11
29.44000000000233
 21
-54.39134314774424
 31
0.0
  0
LINE
  5
1FD
330
31
100
AcDbEntity
  8
0
370
9
100
AcDbLine
 10
-29.43999999998778
 20
-58.23134314774802
 30
0.0
 11
29.44000000000233
 21
-58.23134314774802
 31
0.0
  0
LINE
  5
1FE
330
31
100
AcDbEntity
  8
0
370
9
100
AcDbLine
 10
-17.3219669067621
 20
-31.35134314774337
 30
0.0
 11
-17.3219669067621
 21
-54.39134314774424
 31
0.0
  0
LINE
  5
1FF
330
31
100
AcDbEntity
  8
0
370
9
100
AcDbLine
 10
1.45519e-11
 20
-31.35134314774337
 30
0.0
 11
1.45519e-11
 21
-58.23134314774802
 31
0.0
  0
LINE
  5
200
330
31
100
AcDbEntity
  8
0
370
9
100
AcDbLine
 10
12.11803309324023
 20
-31.35134314774337
 30
0.0
 11
12.11803309324023
 21
-54.39134314774424
 31
0.0
  0
TEXT
  5
201
330
31
100
AcDbEntity
  8
0
100
AcDbText
 10
-27.41832708861017
 20
-33.70016415102197
 30
0.0
 40
1.024
  1
Type
  7
Helvetica-Narrow
 72
1
 11
-25.8781531755667
 21
-33.18816415102197
 31
0.0
100
AcDbText
 73
2
  0
TEXT
  5
202
330
31
100
AcDbEntity
  8
0
100
AcDbText
 10
-26.79050100165365
 20
-37.54016415101848
 30
0.0
 40
1.024
  1
Un
  7
Helvetica-Narrow
 72
1
 11
-25.8781531755667
 21
-37.02816415101847
 31
0.0
100
AcDbText
 73
2
  0
TEXT
  5
203
330
31
100
AcDbEntity
  8
0
100
AcDbText
 10
-26.48232708861018
 20
-41.38016415102225
 30
0.0
 40
1.024
  1
In
  7
Helvetica-Narrow
 72
1
 11
-25.8781531755667
 21
-40.86816415102226
 31
0.0
100
AcDbText
 73
2
  0
TEXT
  5
204
330
31
100
AcDbEntity
  8
0
100
AcDbText
 10
-26.64510969730583
 20
-45.22016415102604
 30
0.0
 40
1.024
  1
Fn
  7
Helvetica-Narrow
 72
1
 11
-25.8781531755667
 21
-44.70816415102603
 31
0.0
100
AcDbText
 73
2
  0
TEXT
  5
205
330
31
100
AcDbEntity
  8
0
100
AcDbText
 10
-28.47337012478209
 20
-49.06016415102254
 30
0.0
 40
1.024
  1
Connection
  7
Helvetica-Narrow
 72
1
 11
-24.79337012478209
 21
-48.54816415102255
 31
0.0
100
AcDbText
 73
2
  0
TEXT
  5
206
330
31
100
AcDbEntity
  8
0
100
AcDbText
 10
-28.11467491469713
 20
-52.90016415101906
 30
0.0
 40
1.024
  1
Lot No
  7
Helvetica-Narrow
 72
1
 11
-25.8781531755667
 21
-52.38816415101905
 31
0.0
100
AcDbText
 73
2
  0
TEXT
  5
207
330
31
100
AcDbEntity
  8
0
100
AcDbText
 10
-26.9997218518682
 20
-56.74016415101556
 30
0.0
 40
1.024
  1
Internal Protection
  7
Helvetica-Narrow
 72
1
 11
-21.00076533012907
 21
-56.22816415101556
 31
0.0
100
AcDbText
 73
2
  0
TEXT
  5
208
330
31
100
AcDbEntity
  8
0
100
AcDbText
 10
2.697846824435633
 20
-33.70016415102197
 30
0.0
 40
1.024
  1
Cn
  7
Helvetica-Narrow
 72
1
 11
3.561846824435633
 21
-33.18816415102197
 31
0.0
100
AcDbText
 73
2
  0
TEXT
  5
209
330
31
100
AcDbEntity
  8
0
100
AcDbText
 10
2.599064215739981
 20
-37.54016415101848
 30
0.0
 40
1.024
  1
Qn
  7
Helvetica-Narrow
 72
1
 11
3.561846824435633
 21
-37.02816415101847
 31
0.0
100
AcDbText
 73
2
  0
TEXT
  5
20A
330
31
100
AcDbEntity
  8
0
100
AcDbText
 10
1.682890302696502
 20
-41.38016415102225
 30
0.0
 40
1.024
  1
Phase
  7
Helvetica-Narrow
 72
1
 11
3.561846824435633
 21
-40.86816415102226
 31
0.0
100
AcDbText
 73
2
  0
TEXT
  5
20B
330
31
100
AcDbEntity
  8
0
100
AcDbText
 10
1.165541243700569
 20
-45.19848494723219
 30
0.0
 40
0.8192000000000002
  1
Discharge Device
  7
Helvetica-Narrow
 72
1
 11
5.612706461091875
 21
-44.78888494723219
 31
0.0
100
AcDbText
 73
2
  0
TEXT
  5
20C
330
31
100
AcDbEntity
  8
0
100
AcDbText
 10
2.098379066246069
 20
-56.74016415101556
 30
0.0
 40
1.024
  1
Overpressune Interrupter
  7
Helvetica-Narrow
 72
1
 11
10.21559645755042
 21
-56.22816415101556
 31
0.0
100
AcDbText
 73
2
  0
TEXT
  5
20D
330
31
100
AcDbEntity
  8
0
100
AcDbText
 10
1.607141243700569
 20
-49.03848494723597
 30
0.0
 40
0.8192000000000002
  1
Insulation Level
  7
Helvetica-Narrow
 72
1
 11
5.612706461091875
 21
-48.62888494723597
 31
0.0
100
AcDbText
 73
2
  0
TEXT
  5
20E
330
31
100
AcDbEntity
  8
0
100
AcDbText
 10
1.769645591526656
 20
-52.87848494723248
 30
0.0
 40
0.8192000000000002
  1
Ambient Temp
  7
Helvetica-Narrow
 72
1
 11
5.612706461091875
 21
-52.46888494723248
 31
0.0
100
AcDbText
 73
2
  0
TEXT
  5
20F
330
31
100
AcDbEntity
  8
0
100
AcDbText
 10
20.36843824552017
 20
-30.68561890498
 30
0.0
 40
1.024
  1
Non PCB
  7
Helvetica-Narrow
 72
1
 11
23.2769599846506
 21
-30.17361890498
 31
0.0
100
AcDbText
 73
2
  0
TEXT
  5
210
330
31
100
AcDbEntity
  8
0
100
AcDbText
 10
-15.30029399536994
 20
-33.70016415102197
 30
0.0
 40
1.024
  1
Type
  7
Helvetica-Narrow
 72
1
 11
-13.76012008232647
 21
-33.18816415102197
 31
0.0
100
AcDbText
 73
2
  0
TEXT
  5
211
330
31
100
AcDbEntity
  8
0
 62
1
100
AcDbText
 10
-14.66320768936553
 20
-37.5102613174318
 30
0.0
 40
1.024
  1
440 VAC
  7
Helvetica-Narrow
 72
1
 11
-11.86285986327857
 21
-36.9982613174318
 31
0.0
100
AcDbText
 73
2
  0
TEXT
  5
212
330
31
100
AcDbEntity
  8
0
100
AcDbText
 10
-14.43364247197422
 20
-41.3502613174283
 30
0.0
 40
1.024
  1
18/23 A
  7
Helvetica-Narrow
 72
1
 11
-11.86285986327857
 21
-40.83826131742831
 31
0.0
100
AcDbText
 73
2
  0
TEXT
  5
213
330
31
100
AcDbEntity
  8
0
100
AcDbText
 10
-14.30102015028199
 20
-45.22016415102604
 30
0.0
 40
1.024
  1
50 Hz
  7
Helvetica-Narrow
 72
1
 11
-12.42067232419504
 21
-44.70816415102603
 31
0.0
100
AcDbText
 73
2
  0
TEXT
  5
214
330
31
100
AcDbEntity
  8
0
100
AcDbText
 10
-8.664263605771525
 20
-49.06016415102254
 30
0.0
 40
1.024
  1
Delta
  7
Helvetica-Narrow
 72
1
 11
-6.98078534490196
 21
-48.54816415102255
 31
0.0
100
AcDbText
 73
2
  0
TEXT
  5
215
330
31
100
AcDbEntity
  8
0
100
AcDbText
 10
-15.27146200581657
 20
-52.90016415101906
 30
0.0
 40
1.024
  1
1222122
  7
Helvetica-Narrow
 72
1
 11
-12.52502722320787
 21
-52.38816415101905
 31
0.0
100
AcDbText
 73
2
  0
LWPOLYLINE
  5
216
330
31
100
AcDbEntity
  8
0
370
9
100
AcDbPolyline
 90
4
 70
0
 10
-14.998726473641
 20
-49.06080020611558
 10
-13.43813961523119
 20
-49.06080020611558
 10
-14.2632482919289
 20
-47.8237809474333
 10
-14.998726473641
 20
-49.06080020611558
  0
LINE
  5
217
330
31
100
AcDbEntity
  8
0
370
9
100
AcDbLine
 10
-12.32600065199949
 20
-48.36162550576705
 30
0.0
 11
-11.30355126780341
 21
-48.36162550576705
 31
0.0
  0
LINE
  5
218
330
31
100
AcDbEntity
  8
0
370
9
100
AcDbLine
 10
-12.32600065199949
 20
-49.01588789196399
 30
0.0
 11
-11.30355126780341
 21
-49.01588789196399
 31
0.0
  0
TEXT
  5
219
330
31
100
AcDbEntity
  8
0
100
AcDbText
 10
15.25383180054654
 20
-33.70016415102197
 30
0.0
 40
1.024
  1
184.82
  7
Helvetica-Narrow
 72
1
 11
17.37139701793785
 21
-33.18816415102197
 31
0.0
100
AcDbText
 73
2
  0
TEXT
  5
21A
330
31
100
AcDbEntity
  8
0
 62
1
100
AcDbText
 10
15.2007923106368
 20
-37.5102613174318
 30
0.0
 40
1.024
  1
15 KVA
  7
Helvetica-Narrow
 72
1
 11
17.57714013672375
 21
-36.9982613174318
 31
0.0
100
AcDbText
 73
2
  0
TEXT
  5
21B
330
31
100
AcDbEntity
  8
0
100
AcDbText
 10
15.66751405660466
 20
-41.3502613174283
 30
0.0
 40
1.024
  1
3
  7
Helvetica-Narrow
 72
1
 11
16.05986188269162
 21
-40.83826131742831
 31
0.0
100
AcDbText
 73
2
  0
TEXT
  5
21C
330
31
100
AcDbEntity
  8
0
100
AcDbText
 10
15.88539306342898
 20
-49.06016415102254
 30
0.0
 40
1.024
  1
3/8 KV
  7
Helvetica-Narrow
 72
1
 11
18.07495828082028
 21
-48.54816415102255
 31
0.0
100
AcDbText
 73
2
  0
TEXT
  5
21D
330
31
100
AcDbEntity
  8
0
100
AcDbText
 10
15.42880784629534
 20
-52.90016415101906
 30
0.0
 40
1.024
  1
-25/55
  7
Helvetica-Narrow
 72
1
 11
17.57246002020838
 21
-52.38816415101905
 31
0.0
100
AcDbText
 73
2
  0
CIRCLE
  5
21E
330
31
100
AcDbEntity
  8
0
370
9
100
AcDbCircle
 10
18.62901634426089
 20
-40.86454964658628
 30
0.0
 40
0.4320816149469465
  0
LINE
  5
21F
330
31
100
AcDbEntity
  8
0
370
9
100
AcDbLine
 10
18.10429094807478
 20
-41.55861473652771
 30
0.0
 11
19.10741984982451
 21
-40.21673233714977
 31
0.0
  0
LWPOLYLINE
  5
220
330
31
100
AcDbEntity
  8
0
370
9
100
AcDbPolyline
 90
4
 70
1
 10
16.95563804554694
 20
-44.98147306688338
 10
20.17057814045984
 20
-44.98147306688338
 10
20.17057814045984
 20
-44.20585743369452
 10
16.95563804554694
 20
-44.20585743369452
  0
LINE
  5
221
330
31
100
AcDbEntity
  8
0
370
9
100
AcDbLine
 10
20.17057814045984
 20
-44.59366525028167
 30
0.0
 11
21.1396746327664
 21
-44.59366525028167
 31
0.0
  0
LINE
  5
222
330
31
100
AcDbEntity
  8
0
370
9
100
AcDbLine
 10
16.95563804554694
 20
-44.59366525028167
 30
0.0
 11
15.98654155322583
 21
-44.59366525028167
 31
0.0
  0
LINE
  5
223
330
31
100
AcDbEntity
  8
0
 62
74
 60
1
100
AcDbLine
 10
-84.99999999999999
 20
58.22143112007757
 30
0.0
 11
85.0
 21
58.22143112007757
 31
0.0
  0
LINE
  5
224
330
31
100
AcDbEntity
  8
0
 62
74
 60
1
100
AcDbLine
 10
85.0
 20
58.22143112007757
 30
0.0
 11
85.0
 21
-1.778568879922431
 31
0.0
  0
LINE
  5
225
330
31
100
AcDbEntity
  8
0
 62
74
 60
1
100
AcDbLine
 10
85.0
 20
-1.778568879922431
 30
0.0
 11
-84.99999999999999
 21
-1.778568879922431
 31
0.0
  0
LINE
  5
226
330
31
100
AcDbEntity
  8
0
 62
74
 60
1
100
AcDbLine
 10
-84.99999999999999
 20
-1.778568879922431
 30
0.0
 11
-84.99999999999999
 21
58.22143112007757
 31
0.0
  0
CIRCLE
  5
227
330
31
100
AcDbEntity
  8
0
 62
74
 60
1
100
AcDbCircle
 10
50.0
 20
28.22143112007757
 30
0.0
 40
15.0
  0
LINE
  5
228
330
31
100
AcDbEntity
  8
0
 62
74
370
5
 60
1
100
AcDbLine
 10
45.76794919245003
 20
35.55155813900342
 30
0.0
 11
41.53589838488551
 21
28.22143112007757
 31
0.0
  0
LINE
  5
229
330
31
100
AcDbEntity
  8
0
 62
74
370
5
 60
1
100
AcDbLine
 10
41.53589838488551
 20
28.22143112007757
 30
0.0
 11
45.76794919246458
 21
20.89130410115899
 31
0.0
  0
LINE
  5
22A
330
31
100
AcDbEntity
  8
0
 62
74
370
5
 60
1
100
AcDbLine
 10
45.76794919246458
 20
20.89130410115899
 30
0.0
 11
54.23205080757907
 21
20.89130410115899
 31
0.0
  0
LINE
  5
22B
330
31
100
AcDbEntity
  8
0
 62
74
370
5
 60
1
100
AcDbLine
 10
54.23205080757907
 20
20.89130410115899
 30
0.0
 11
58.46410161518725
 21
28.22143112007757
 31
0.0
  0
LINE
  5
22C
330
31
100
AcDbEntity
  8
0
 62
74
370
5
 60
1
100
AcDbLine
 10
58.46410161518725
 20
28.22143112007757
 30
0.0
 11
54.23205080757907
 21
35.55155813900342
 31
0.0
  0
LINE
  5
22D
330
31
100
AcDbEntity
  8
0
 62
74
370
5
 60
1
100
AcDbLine
 10
54.23205080757907
 20
35.55155813900342
 30
0.0
 11
45.76794919245003
 21
35.55155813900342
 31
0.0
  0
LINE
  5
22E
330
31
100
AcDbEntity
  8
0
 62
74
370
5
 60
1
100
AcDbLine
 10
44.61324865407369
 20
37.55155813900342
 30
0.0
 11
39.22649730814737
 21
28.22143112007757
 31
0.0
  0
LINE
  5
22F
330
31
100
AcDbEntity
  8
0
 62
74
370
5
 60
1
100
AcDbLine
 10
39.22649730814737
 20
28.22143112007757
 30
0.0
 11
44.61324865407369
 21
18.89130410115171
 31
0.0
  0
LINE
  5
230
330
31
100
AcDbEntity
  8
0
 62
74
370
5
 60
1
100
AcDbLine
 10
44.61324865407369
 20
18.89130410115171
 30
0.0
 11
55.38675134599907
 21
18.89130410115171
 31
0.0
  0
LINE
  5
231
330
31
100
AcDbEntity
  8
0
 62
74
370
5
 60
1
100
AcDbLine
 10
55.38675134599907
 20
18.89130410115171
 30
0.0
 11
60.77350269192539
 21
28.22143112007757
 31
0.0
  0
LINE
  5
232
330
31
100
AcDbEntity
  8
0
 62
74
370
5
 60
1
100
AcDbLine
 10
60.77350269192539
 20
28.22143112007757
 30
0.0
 11
55.38675134599907
 21
37.55155813900342
 31
0.0
  0
LINE
  5
233
330
31
100
AcDbEntity
  8
0
 62
74
370
5
 60
1
100
AcDbLine
 10
55.38675134599907
 20
37.55155813900342
 30
0.0
 11
44.61324865407369
 21
37.55155813900342
 31
0.0
  0
CIRCLE
  5
234
330
31
100
AcDbEntity
  8
0
 62
74
 60
1
100
AcDbCircle
 10
0.0
 20
28.22143112007757
 30
0.0
 40
15.0
  0
LINE
  5
235
330
31
100
AcDbEntity
  8
0
 62
74
370
5
 60
1
100
AcDbLine
 10
-4.232050807549967
 20
35.55155813900342
 30
0.0
 11
-8.464101615114487
 21
28.22143112007757
 31
0.0
  0
LINE
  5
236
330
31
100
AcDbEntity
  8
0
 62
74
370
5
 60
1
100
AcDbLine
 10
-8.464101615114487
 20
28.22143112007757
 30
0.0
 11
-4.232050807535415
 21
20.89130410115899
 31
0.0
  0
LINE
  5
237
330
31
100
AcDbEntity
  8
0
 62
74
370
5
 60
1
100
AcDbLine
 10
-4.232050807535415
 20
20.89130410115899
 30
0.0
 11
4.232050807579071
 21
20.89130410115899
 31
0.0
  0
LINE
  5
238
330
31
100
AcDbEntity
  8
0
 62
74
370
5
 60
1
100
AcDbLine
 10
4.232050807579071
 20
20.89130410115899
 30
0.0
 11
8.464101615187246
 21
28.22143112007757
 31
0.0
  0
LINE
  5
239
330
31
100
AcDbEntity
  8
0
 62
74
370
5
 60
1
100
AcDbLine
 10
8.464101615187246
 20
28.22143112007757
 30
0.0
 11
4.232050807579071
 21
35.55155813900342
 31
0.0
  0
LINE
  5
23A
330
31
100
AcDbEntity
  8
0
 62
74
370
5
 60
1
100
AcDbLine
 10
4.232050807579071
 20
35.55155813900342
 30
0.0
 11
-4.232050807549967
 21
35.55155813900342
 31
0.0
  0
LINE
  5
23B
330
31
100
AcDbEntity
  8
0
 62
74
370
5
 60
1
100
AcDbLine
 10
-5.386751345926313
 20
37.55155813900342
 30
0.0
 11
-10.77350269185262
 21
28.22143112007757
 31
0.0
  0
LINE
  5
23C
330
31
100
AcDbEntity
  8
0
 62
74
370
5
 60
1
100
AcDbLine
 10
-10.77350269185262
 20
28.22143112007757
 30
0.0
 11
-5.386751345926313
 21
18.89130410115171
 31
0.0
  0
LINE
  5
23D
330
31
100
AcDbEntity
  8
0
 62
74
370
5
 60
1
100
AcDbLine
 10
-5.386751345926313
 20
18.89130410115171
 30
0.0
 11
5.386751345999073
 21
18.89130410115171
 31
0.0
  0
LINE
  5
23E
330
31
100
AcDbEntity
  8
0
 62
74
370
5
 60
1
100
AcDbLine
 10
5.386751345999073
 20
18.89130410115171
 30
0.0
 11
10.77350269192538
 21
28.22143112007757
 31
0.0
  0
LINE
  5
23F
330
31
100
AcDbEntity
  8
0
 62
74
370
5
 60
1
100
AcDbLine
 10
10.77350269192538
 20
28.22143112007757
 30
0.0
 11
5.386751345999073
 21
37.55155813900342
 31
0.0
  0
LINE
  5
240
330
31
100
AcDbEntity
  8
0
 62
74
370
5
 60
1
100
AcDbLine
 10
5.386751345999073
 20
37.55155813900342
 30
0.0
 11
-5.386751345926313
 21
37.55155813900342
 31
0.0
  0
CIRCLE
  5
241
330
31
100
AcDbEntity
  8
0
 62
74
 60
1
100
AcDbCircle
 10
-49.99999999999999
 20
28.22143112007757
 30
0.0
 40
15.0
  0
LINE
  5
242
330
31
100
AcDbEntity
  8
0
 62
74
370
5
 60
1
100
AcDbLine
 10
-54.23205080754995
 20
35.55155813900342
 30
0.0
 11
-58.46410161511447
 21
28.22143112007757
 31
0.0
  0
LINE
  5
243
330
31
100
AcDbEntity
  8
0
 62
74
370
5
 60
1
100
AcDbLine
 10
-58.46410161511447
 20
28.22143112007757
 30
0.0
 11
-54.2320508075354
 21
20.89130410115899
 31
0.0
  0
LINE
  5
244
330
31
100
AcDbEntity
  8
0
 62
74
370
5
 60
1
100
AcDbLine
 10
-54.2320508075354
 20
20.89130410115899
 30
0.0
 11
-45.76794919242092
 21
20.89130410115899
 31
0.0
  0
LINE
  5
245
330
31
100
AcDbEntity
  8
0
 62
74
370
5
 60
1
100
AcDbLine
 10
-45.76794919242092
 20
20.89130410115899
 30
0.0
 11
-41.53589838481275
 21
28.22143112007757
 31
0.0
  0
LINE
  5
246
330
31
100
AcDbEntity
  8
0
 62
74
370
5
 60
1
100
AcDbLine
 10
-41.53589838481275
 20
28.22143112007757
 30
0.0
 11
-45.76794919242092
 21
35.55155813900342
 31
0.0
  0
LINE
  5
247
330
31
100
AcDbEntity
  8
0
 62
74
370
5
 60
1
100
AcDbLine
 10
-45.76794919242092
 20
35.55155813900342
 30
0.0
 11
-54.23205080754995
 21
35.55155813900342
 31
0.0
  0
LINE
  5
248
330
31
100
AcDbEntity
  8
0
 62
74
370
5
 60
1
100
AcDbLine
 10
-55.38675134592629
 20
37.55155813900342
 30
0.0
 11
-60.77350269185261
 21
28.22143112007757
 31
0.0
  0
LINE
  5
249
330
31
100
AcDbEntity
  8
0
 62
74
370
5
 60
1
100
AcDbLine
 10
-60.77350269185261
 20
28.22143112007757
 30
0.0
 11
-55.38675134592629
 21
18.89130410115171
 31
0.0
  0
LINE
  5
24A
330
31
100
AcDbEntity
  8
0
 62
74
370
5
 60
1
100
AcDbLine
 10
-55.38675134592629
 20
18.89130410115171
 30
0.0
 11
-44.61324865400093
 21
18.89130410115171
 31
0.0
  0
LINE
  5
24B
330
31
100
AcDbEntity
  8
0
 62
74
370
5
 60
1
100
AcDbLine
 10
-44.61324865400093
 20
18.89130410115171
 30
0.0
 11
-39.22649730807462
 21
28.22143112007757
 31
0.0
  0
LINE
  5
24C
330
31
100
AcDbEntity
  8
0
 62
74
370
5
 60
1
100
AcDbLine
 10
-39.22649730807462
 20
28.22143112007757
 30
0.0
 11
-44.61324865400093
 21
37.55155813900342
 31
0.0
  0
LINE
  5
24D
330
31
100
AcDbEntity
  8
0
 62
74
370
5
 60
1
100
AcDbLine
 10
-44.61324865400093
 20
37.55155813900342
 30
0.0
 11
-55.38675134592629
 21
37.55155813900342
 31
0.0
  0
LINE
  5
24E
330
31
100
AcDbEntity
  8
0
 62
74
 60
1
100
AcDbLine
 10
85.0
 20
58.22143112007757
 30
0.0
 11
106.0
 21
58.22143112007757
 31
0.0
  0
LINE
  5
24F
330
31
100
AcDbEntity
  8
0
 62
74
 60
1
100
AcDbLine
 10
106.0
 20
58.22143112007757
 30
0.0
 11
106.0
 21
-1.778568879922431
 31
0.0
  0
LINE
  5
250
330
31
100
AcDbEntity
  8
0
 62
74
 60
1
100
AcDbLine
 10
106.0
 20
-1.778568879922431
 30
0.0
 11
85.0
 21
-1.778568879922431
 31
0.0
  0
LINE
  5
251
330
31
100
AcDbEntity
  8
0
 62
74
 60
1
100
AcDbLine
 10
85.0
 20
-1.778568879922431
 30
0.0
 11
85.0
 21
58.22143112007757
 31
0.0
  0
LINE
  5
252
330
31
100
AcDbEntity
  8
0
 62
74
 60
1
100
AcDbLine
 10
-84.99999999999999
 20
58.22143112007757
 30
0.0
 11
-106.0
 21
58.22143112007757
 31
0.0
  0
LINE
  5
253
330
31
100
AcDbEntity
  8
0
 62
74
 60
1
100
AcDbLine
 10
-106.0
 20
58.22143112007757
 30
0.0
 11
-106.0
 21
-1.778568879922431
 31
0.0
  0
LINE
  5
254
330
31
100
AcDbEntity
  8
0
 62
74
 60
1
100
AcDbLine
 10
-106.0
 20
-1.778568879922431
 30
0.0
 11
-84.99999999999999
 21
-1.778568879922431
 31
0.0
  0
LINE
  5
255
330
31
100
AcDbEntity
  8
0
 62
74
 60
1
100
AcDbLine
 10
-84.99999999999999
 20
-1.778568879922431
 30
0.0
 11
-84.99999999999999
 21
58.22143112007757
 31
0.0
  0
LINE
  5
256
330
31
100
AcDbEntity
  8
0
 62
74
 60
1
100
AcDbLine
 10
30.00000000000002
 20
48.22143112007757
 30
0.0
 11
30.00000000000002
 21
-161.7785688799224
 31
0.0
  0
LINE
  5
257
330
31
100
AcDbEntity
  8
0
 62
74
 60
1
100
AcDbLine
 10
-30.0
 20
-161.7785688799224
 30
0.0
 11
-30.0
 21
48.22143112007757
 31
0.0
  0
LINE
  5
258
330
31
100
AcDbEntity
  8
0
 62
74
 60
1
100
AcDbLine
 10
30.00000000000002
 20
-161.7785688799224
 30
0.0
 11
-30.0
 21
-161.7785688799224
 31
0.0
  0
LINE
  5
259
330
31
100
AcDbEntity
  8
0
 62
74
 60
1
100
AcDbLine
 10
-20.0
 20
58.22143112007757
 30
0.0
 11
20.0
 21
58.22143112007757
 31
0.0
  0
LINE
  5
25A
330
31
100
AcDbEntity
  8
0
 62
74
 60
1
100
AcDbLine
 10
-20.0
 20
58.22143112007757
 30
0.0
 11
20.0
 21
58.22143112007757
 31
0.0
  0
ARC
  5
25B
330
31
100
AcDbEntity
  8
0
 62
74
 60
1
100
AcDbCircle
 10
-20.0
 20
48.22143112007757
 30
0.0
 40
10.0
100
AcDbArc
 50
90.0
 51
180.0
  0
LINE
  5
25C
330
31
100
AcDbEntity
  8
00
 62
74
370
5
 60
1
100
AcDbLine
 10
-4.999999999912688
 20
123.2214311200775
 30
0.0
 11
5.000000000087311
 21
123.2214311200775
 31
0.0
  0
LINE
  5
25D
330
31
100
AcDbEntity
  8
0
 62
74
370
5
 60
1
100
AcDbLine
 10
5.000000000087311
 20
121.2214311200775
 30
0.0
 11
-4.999999999912688
 21
121.2214311200775
 31
0.0
  0
LINE
  5
25E
330
31
100
AcDbEntity
  8
0
 62
74
370
5
 60
1
100
AcDbLine
 10
5.000000000087311
 20
119.2214311200775
 30
0.0
 11
-4.999999999912688
 21
119.2214311200775
 31
0.0
  0
LINE
  5
25F
330
31
100
AcDbEntity
  8
00
 62
74
370
5
 60
1
100
AcDbLine
 10
-4.999999999912688
 20
121.2214311200775
 30
0.0
 11
5.000000000087311
 21
121.2214311200775
 31
0.0
  0
LINE
  5
260
330
31
100
AcDbEntity
  8
00
 62
74
370
5
 60
1
100
AcDbLine
 10
-4.999999999912688
 20
119.2214311200775
 30
0.0
 11
5.000000000087311
 21
119.2214311200775
 31
0.0
  0
LINE
  5
261
330
31
100
AcDbEntity
  8
00
 62
74
370
5
 60
1
100
AcDbLine
 10
-4.999999999912688
 20
119.2214311200775
 30
0.0
 11
5.000000000087311
 21
119.2214311200775
 31
0.0
  0
LINE
  5
262
330
31
100
AcDbEntity
  8
00
 62
74
370
5
 60
1
100
AcDbLine
 10
-5.999999999912688
 20
122.2214311200921
 30
0.0
 11
-4.999999999912688
 21
123.2214311200775
 31
0.0
  0
LINE
  5
263
330
31
100
AcDbEntity
  8
0
 62
74
370
5
 60
1
100
AcDbLine
 10
-4.999999999912688
 20
121.2214311200775
 30
0.0
 11
-5.999999999912688
 21
122.2214311200921
 31
0.0
  0
LINE
  5
264
330
31
100
AcDbEntity
  8
0
 62
74
370
5
 60
1
100
AcDbLine
 10
-4.999999999912688
 20
119.2214311200775
 30
0.0
 11
-5.999999999912688
 21
120.221431120063
 31
0.0
  0
LINE
  5
265
330
31
100
AcDbEntity
  8
00
 62
74
370
5
 60
1
100
AcDbLine
 10
-5.999999999912688
 20
120.221431120063
 30
0.0
 11
-4.999999999912688
 21
121.2214311200775
 31
0.0
  0
LINE
  5
266
330
31
100
AcDbEntity
  8
00
 62
74
370
5
 60
1
100
AcDbLine
 10
-5.999999999912688
 20
118.2214311200921
 30
0.0
 11
-4.999999999912688
 21
119.2214311200775
 31
0.0
  0
LINE
  5
267
330
31
100
AcDbEntity
  8
00
 62
74
370
5
 60
1
100
AcDbLine
 10
-5.999999999912688
 20
118.2214311200921
 30
0.0
 11
-4.999999999912688
 21
119.2214311200775
 31
0.0
  0
LINE
  5
268
330
31
100
AcDbEntity
  8
00
 62
74
370
5
 60
1
100
AcDbLine
 10
6.0
 20
122.2214311200921
 30
0.0
 11
5.000000000087311
 21
123.2214311200775
 31
0.0
  0
LINE
  5
269
330
31
100
AcDbEntity
  8
0
 62
74
370
5
 60
1
100
AcDbLine
 10
5.000000000087311
 20
121.2214311200775
 30
0.0
 11
6.0
 21
122.2214311200921
 31
0.0
  0
LINE
  5
26A
330
31
100
AcDbEntity
  8
0
 62
74
370
5
 60
1
100
AcDbLine
 10
5.000000000087311
 20
119.2214311200775
 30
0.0
 11
6.0
 21
120.221431120063
 31
0.0
  0
LINE
  5
26B
330
31
100
AcDbEntity
  8
00
 62
74
370
5
 60
1
100
AcDbLine
 10
6.0
 20
120.221431120063
 30
0.0
 11
5.000000000087311
 21
121.2214311200775
 31
0.0
  0
LINE
  5
26C
330
31
100
AcDbEntity
  8
00
 62
74
370
5
 60
1
100
AcDbLine
 10
6.0
 20
118.2214311200921
 30
0.0
 11
5.000000000087311
 21
119.2214311200775
 31
0.0
  0
LINE
  5
26D
330
31
100
AcDbEntity
  8
00
 62
74
370
5
 60
1
100
AcDbLine
 10
6.0
 20
118.2214311200921
 30
0.0
 11
5.000000000087311
 21
119.2214311200775
 31
0.0
  0
LINE
  5
26E
330
31
100
AcDbEntity
  8
00
 62
74
370
5
 60
1
100
AcDbLine
 10
10.50000000008731
 20
109.2722730972134
 30
0.0
 11
10.50000000008731
 21
105.0245891429192
 31
0.0
  0
ARC
  5
26F
330
31
100
AcDbEntity
  8
0
 62
74
370
5
 60
1
100
AcDbCircle
 10
9.560280079196673
 20
98.69889403151753
 30
0.0
 40
0.5
100
AcDbArc
 50
270.0
 51
90.0
  0
LINE
  5
270
330
31
100
AcDbEntity
  8
0
 62
74
370
5
 60
1
100
AcDbLine
 10
5.000000000087311
 20
102.7131206219317
 30
0.0
 11
5.000000000087311
 21
103.1484311200736
 31
0.0
  0
LINE
  5
271
330
31
100
AcDbEntity
  8
0
 62
74
370
5
 60
1
100
AcDbLine
 10
-4.999999999912688
 20
102.7131206219317
 30
0.0
 11
-4.999999999912688
 21
103.1484311200736
 31
0.0
  0
LINE
  5
272
330
31
100
AcDbEntity
  8
00
 62
74
370
5
 60
1
100
AcDbLine
 10
-4.999999999912688
 20
117.2214311200775
 30
0.0
 11
5.000000000087311
 21
117.2214311200775
 31
0.0
  0
LINE
  5
273
330
31
100
AcDbEntity
  8
0
 62
74
370
5
 60
1
100
AcDbLine
 10
5.000000000087311
 20
115.2214311200775
 30
0.0
 11
-4.999999999912688
 21
115.2214311200775
 31
0.0
  0
LINE
  5
274
330
31
100
AcDbEntity
  8
0
 62
74
370
5
 60
1
100
AcDbLine
 10
5.000000000087311
 20
117.2214311200775
 30
0.0
 11
-4.999999999912688
 21
117.2214311200775
 31
0.0
  0
LINE
  5
275
330
31
100
AcDbEntity
  8
00
 62
74
370
5
 60
1
100
AcDbLine
 10
-4.999999999912688
 20
115.2214311200775
 30
0.0
 11
5.000000000087311
 21
115.2214311200775
 31
0.0
  0
LINE
  5
276
330
31
100
AcDbEntity
  8
00
 62
74
370
5
 60
1
100
AcDbLine
 10
-4.999999999912688
 20
117.2214311200775
 30
0.0
 11
5.000000000087311
 21
117.2214311200775
 31
0.0
  0
LINE
  5
277
330
31
100
AcDbEntity
  8
0
 62
74
370
5
 60
1
100
AcDbLine
 10
5.000000000087311
 20
115.2214311200775
 30
0.0
 11
-4.999999999912688
 21
115.2214311200775
 31
0.0
  0
LINE
  5
278
330
31
100
AcDbEntity
  8
0
 62
74
370
5
 60
1
100
AcDbLine
 10
5.000000000087311
 20
117.2214311200775
 30
0.0
 11
-4.999999999912688
 21
117.2214311200775
 31
0.0
  0
LINE
  5
279
330
31
100
AcDbEntity
  8
00
 62
74
370
5
 60
1
100
AcDbLine
 10
-5.999999999912688
 20
116.221431120063
 30
0.0
 11
-4.999999999912688
 21
117.2214311200775
 31
0.0
  0
LINE
  5
27A
330
31
100
AcDbEntity
  8
0
 62
74
370
5
 60
1
100
AcDbLine
 10
-4.999999999912688
 20
115.2214311200775
 30
0.0
 11
-5.999999999912688
 21
116.221431120063
 31
0.0
  0
LINE
  5
27B
330
31
100
AcDbEntity
  8
00
 62
74
370
5
 60
1
100
AcDbLine
 10
-5.999999999912688
 20
114.2214311200775
 30
0.0
 11
-4.999999999912688
 21
115.2214311200775
 31
0.0
  0
LINE
  5
27C
330
31
100
AcDbEntity
  8
00
 62
74
370
5
 60
1
100
AcDbLine
 10
-5.999999999912688
 20
116.221431120063
 30
0.0
 11
-4.999999999912688
 21
117.2214311200775
 31
0.0
  0
LINE
  5
27D
330
31
100
AcDbEntity
  8
0
 62
74
370
5
 60
1
100
AcDbLine
 10
-4.999999999912688
 20
115.2214311200775
 30
0.0
 11
-5.999999999912688
 21
116.221431120063
 31
0.0
  0
LINE
  5
27E
330
31
100
AcDbEntity
  8
00
 62
74
370
5
 60
1
100
AcDbLine
 10
6.0
 20
116.221431120063
 30
0.0
 11
5.000000000087311
 21
117.2214311200775
 31
0.0
  0
LINE
  5
27F
330
31
100
AcDbEntity
  8
0
 62
74
370
5
 60
1
100
AcDbLine
 10
5.000000000087311
 20
115.2214311200775
 30
0.0
 11
6.0
 21
116.221431120063
 31
0.0
  0
LINE
  5
280
330
31
100
AcDbEntity
  8
00
 62
74
370
5
 60
1
100
AcDbLine
 10
6.0
 20
114.2214311200775
 30
0.0
 11
5.000000000087311
 21
115.2214311200775
 31
0.0
  0
LINE
  5
281
330
31
100
AcDbEntity
  8
00
 62
74
370
5
 60
1
100
AcDbLine
 10
6.0
 20
116.221431120063
 30
0.0
 11
5.000000000087311
 21
117.2214311200775
 31
0.0
  0
LINE
  5
282
330
31
100
AcDbEntity
  8
0
 62
74
370
5
 60
1
100
AcDbLine
 10
5.000000000087311
 20
115.2214311200775
 30
0.0
 11
6.0
 21
116.221431120063
 31
0.0
  0
ARC
  5
283
330
31
100
AcDbEntity
  8
00
 62
74
370
5
 60
1
100
AcDbCircle
 10
0.0
 20
102.8648887563438
 30
0.0
 40
8.283542363731021
100
AcDbArc
 50
50.66993661762961
 51
129.3300633823704
  0
ARC
  5
284
330
31
100
AcDbEntity
  8
00
 62
74
370
5
 60
1
100
AcDbCircle
 10
-7.874999999912688
 20
108.3781503654434
 30
0.0
 40
2.773099431950017
100
AcDbArc
 50
18.80977634904461
 51
161.1902236509554
  0
ARC
  5
285
330
31
100
AcDbEntity
  8
00
 62
74
370
5
 60
1
100
AcDbCircle
 10
0.0
 20
111.4319734838034
 30
0.0
 40
8.283542363731021
100
AcDbArc
 50
230.6699366176296
 51
309.3300633823704
  0
LINE
  5
286
330
31
100
AcDbEntity
  8
00
 62
74
370
5
 60
1
100
AcDbLine
 10
8.0
 20
103.1484311200736
 30
0.0
 11
-8.0
 21
103.1484311200736
 31
0.0
  0
LINE
  5
287
330
31
100
AcDbEntity
  8
00
 62
74
370
5
 60
1
100
AcDbLine
 10
-5.249999999912688
 20
105.0245891429192
 30
0.0
 11
-5.249999999912688
 21
109.2722730972134
 31
0.0
  0
ARC
  5
288
330
31
100
AcDbEntity
  8
00
 62
74
370
5
 60
1
100
AcDbCircle
 10
-7.874999999912688
 20
105.9187118747038
 30
0.0
 40
2.773099431950017
100
AcDbArc
 50
198.8097763490446
 51
341.1902236509554
  0
LINE
  5
289
330
31
100
AcDbEntity
  8
00
 62
74
370
5
 60
1
100
AcDbLine
 10
-10.5
 20
109.2722730972134
 30
0.0
 11
-10.5
 21
105.0245891429483
 31
0.0
  0
LINE
  5
28A
330
31
100
AcDbEntity
  8
00
 62
74
370
5
 60
1
100
AcDbLine
 10
5.25
 20
105.0245891429192
 30
0.0
 11
5.25
 21
109.2722730972134
 31
0.0
  0
LINE
  5
28B
330
31
100
AcDbEntity
  8
0
 62
74
370
5
 60
1
100
AcDbLine
 10
5.000000000087311
 20
113.2214311200775
 30
0.0
 11
-4.999999999912688
 21
113.2214311200775
 31
0.0
  0
LINE
  5
28C
330
31
100
AcDbEntity
  8
0
 62
74
370
5
 60
1
100
AcDbLine
 10
5.000000000087311
 20
111.2214311200775
 30
0.0
 11
-4.999999999912688
 21
111.2214311200775
 31
0.0
  0
LINE
  5
28D
330
31
100
AcDbEntity
  8
00
 62
74
370
5
 60
1
100
AcDbLine
 10
-4.999999999912688
 20
113.2214311200775
 30
0.0
 11
5.000000000087311
 21
113.2214311200775
 31
0.0
  0
LINE
  5
28E
330
31
100
AcDbEntity
  8
0
 62
74
370
5
 60
1
100
AcDbLine
 10
-4.999999999912688
 20
111.2214311200775
 30
0.0
 11
-5.999999999912688
 21
112.221431120063
 31
0.0
  0
LINE
  5
28F
330
31
100
AcDbEntity
  8
00
 62
74
370
5
 60
1
100
AcDbLine
 10
-5.999999999912688
 20
112.221431120063
 30
0.0
 11
-4.999999999912688
 21
113.2214311200775
 31
0.0
  0
LINE
  5
290
330
31
100
AcDbEntity
  8
0
 62
74
370
5
 60
1
100
AcDbLine
 10
5.000000000087311
 20
111.2214311200775
 30
0.0
 11
6.0
 21
112.221431120063
 31
0.0
  0
LINE
  5
291
330
31
100
AcDbEntity
  8
00
 62
74
370
5
 60
1
100
AcDbLine
 10
6.0
 20
112.221431120063
 30
0.0
 11
5.000000000087311
 21
113.2214311200775
 31
0.0
  0
LINE
  5
292
330
31
100
AcDbEntity
  8
00
 62
74
370
5
 60
1
100
AcDbLine
 10
-8.0
 20
111.1484311200736
 30
0.0
 11
6.013460107002174
 21
111.1484311200736
 31
0.0
  0
LINE
  5
293
330
31
100
AcDbEntity
  8
00
 62
74
370
5
 60
1
100
AcDbLine
 10
8.000000000087311
 20
111.1484311200736
 30
0.0
 11
-8.0
 21
111.1484311200736
 31
0.0
  0
LINE
  5
294
330
31
100
AcDbEntity
  8
00
 62
74
370
5
 60
1
100
AcDbLine
 10
6.0
 20
111.1484311200736
 30
0.0
 11
6.0
 21
112.221431120063
 31
0.0
  0
LINE
  5
295
330
31
100
AcDbEntity
  8
0
 62
74
370
5
 60
1
100
AcDbLine
 10
-4.999999999912688
 20
113.2214311200775
 30
0.0
 11
-5.999999999912688
 21
114.2214311200775
 31
0.0
  0
LINE
  5
296
330
31
100
AcDbEntity
  8
0
 62
74
370
5
 60
1
100
AcDbLine
 10
5.000000000087311
 20
113.2214311200775
 30
0.0
 11
6.0
 21
114.2214311200775
 31
0.0
  0
LINE
  5
297
330
31
100
AcDbEntity
  8
0
 62
74
370
5
 60
1
100
AcDbLine
 10
5.985773409600369
 20
99.69889403151753
 30
0.0
 11
6.0
 21
99.7131206219317
 31
0.0
  0
LINE
  5
298
330
31
100
AcDbEntity
  8
0
 62
74
370
5
 60
1
100
AcDbLine
 10
5.985773409600369
 20
99.69889403151753
 30
0.0
 11
6.0
 21
99.7131206219317
 31
0.0
  0
LINE
  5
299
330
31
100
AcDbEntity
  8
0
 62
74
370
5
 60
1
100
AcDbLine
 10
-5.985773409483954
 20
99.69889403151753
 30
0.0
 11
-5.999999999912688
 21
99.7131206219317
 31
0.0
  0
LINE
  5
29A
330
31
100
AcDbEntity
  8
0
 62
74
370
5
 60
1
100
AcDbLine
 10
-5.985773409483954
 20
99.69889403151753
 30
0.0
 11
-5.999999999912688
 21
99.7131206219317
 31
0.0
  0
LINE
  5
29B
330
31
100
AcDbEntity
  8
0
 62
74
370
5
 60
1
100
AcDbLine
 10
-4.999999999912688
 20
96.7131206219317
 30
0.0
 11
-4.999999999912688
 21
95.03390063767142
 31
0.0
  0
LINE
  5
29C
330
31
100
AcDbEntity
  8
0
 62
74
370
5
 60
1
100
AcDbLine
 10
5.000000000087311
 20
96.7131206219317
 30
0.0
 11
5.000000000087311
 21
95.03390063767142
 31
0.0
  0
LINE
  5
29D
330
31
100
AcDbEntity
  8
0
 62
74
370
5
 60
1
100
AcDbLine
 10
-7.75
 20
99.69889403151753
 30
0.0
 11
7.75
 21
99.69889403151753
 31
0.0
  0
LINE
  5
29E
330
31
100
AcDbEntity
  8
0
 62
74
370
5
 60
1
100
AcDbLine
 10
7.75
 20
97.69889403150296
 30
0.0
 11
-7.75
 21
97.69889403150296
 31
0.0
  0
LINE
  5
29F
330
31
100
AcDbEntity
  8
0
 62
74
370
5
 60
1
100
AcDbLine
 10
-7.75
 20
99.69889403151753
 30
0.0
 11
-5.5
 21
99.69889403151753
 31
0.0
  0
LINE
  5
2A0
330
31
100
AcDbEntity
  8
0
 62
74
370
5
 60
1
100
AcDbLine
 10
-5.5
 20
97.69889403150296
 30
0.0
 11
-7.75
 21
97.69889403150296
 31
0.0
  0
LINE
  5
2A1
330
31
100
AcDbEntity
  8
0
 62
74
370
5
 60
1
100
AcDbLine
 10
7.75
 20
99.69889403151753
 30
0.0
 11
5.500000000087311
 21
99.69889403151753
 31
0.0
  0
LINE
  5
2A2
330
31
100
AcDbEntity
  8
0
 62
74
370
5
 60
1
100
AcDbLine
 10
7.75
 20
97.69889403150296
 30
0.0
 11
5.500000000087311
 21
97.69889403150296
 31
0.0
  0
ARC
  5
2A3
330
31
100
AcDbEntity
  8
0
 62
74
370
5
 60
1
100
AcDbCircle
 10
-9.543051136890426
 20
98.69889403151753
 30
0.0
 40
0.5
100
AcDbArc
 50
102.2459918914673
 51
257.7540081085327
  0
LINE
  5
2A4
330
31
100
AcDbEntity
  8
0
 62
74
370
5
 60
1
100
AcDbLine
 10
-7.75
 20
99.69889403151753
 30
0.0
 11
-9.649105791701002
 21
99.18751700494317
 31
0.0
  0
LINE
  5
2A5
330
31
100
AcDbEntity
  8
0
 62
74
370
5
 60
1
100
AcDbLine
 10
-7.75
 20
97.69889403150296
 30
0.0
 11
-9.649105791701002
 21
98.21027105806274
 31
0.0
  0
LINE
  5
2A6
330
31
100
AcDbEntity
  8
0
 62
74
370
5
 60
1
100
AcDbLine
 10
5.000000000087311
 20
100.7131206219317
 30
0.0
 11
6.0
 21
101.7131206219171
 31
0.0
  0
LINE
  5
2A7
330
31
100
AcDbEntity
  8
00
 62
74
370
5
 60
1
100
AcDbLine
 10
6.0
 20
101.7131206219171
 30
0.0
 11
5.000000000087311
 21
102.7131206219317
 31
0.0
  0
LINE
  5
2A8
330
31
100
AcDbEntity
  8
0
 62
74
370
5
 60
1
100
AcDbLine
 10
5.000000000087311
 20
96.7131206219317
 30
0.0
 11
6.0
 21
97.71312062191714
 31
0.0
  0
LINE
  5
2A9
330
31
100
AcDbEntity
  8
00
 62
74
370
5
 60
1
100
AcDbLine
 10
6.0
 20
99.7131206219317
 30
0.0
 11
5.000000000087311
 21
100.7131206219317
 31
0.0
  0
LINE
  5
2AA
330
31
100
AcDbEntity
  8
0
 62
74
370
5
 60
1
100
AcDbLine
 10
5.000000000087311
 20
96.7131206219317
 30
0.0
 11
6.0
 21
97.71312062191714
 31
0.0
  0
LINE
  5
2AB
330
31
100
AcDbEntity
  8
00
 62
74
370
5
 60
1
100
AcDbLine
 10
6.0
 20
99.7131206219317
 30
0.0
 11
5.000000000087311
 21
100.7131206219317
 31
0.0
  0
LINE
  5
2AC
330
31
100
AcDbEntity
  8
0
 62
74
370
5
 60
1
100
AcDbLine
 10
-4.999999999912688
 20
100.7131206219317
 30
0.0
 11
-5.999999999912688
 21
101.7131206219171
 31
0.0
  0
LINE
  5
2AD
330
31
100
AcDbEntity
  8
00
 62
74
370
5
 60
1
100
AcDbLine
 10
-5.999999999912688
 20
101.7131206219171
 30
0.0
 11
-4.999999999912688
 21
102.7131206219317
 31
0.0
  0
LINE
  5
2AE
330
31
100
AcDbEntity
  8
00
 62
74
370
5
 60
1
100
AcDbLine
 10
-5.999999999912688
 20
99.7131206219317
 30
0.0
 11
-4.999999999912688
 21
100.7131206219317
 31
0.0
  0
LINE
  5
2AF
330
31
100
AcDbEntity
  8
0
 62
74
370
5
 60
1
100
AcDbLine
 10
-4.999999999912688
 20
96.7131206219317
 30
0.0
 11
-5.999999999912688
 21
97.71312062191714
 31
0.0
  0
LINE
  5
2B0
330
31
100
AcDbEntity
  8
00
 62
74
370
5
 60
1
100
AcDbLine
 10
-5.999999999912688
 20
99.7131206219317
 30
0.0
 11
-4.999999999912688
 21
100.7131206219317
 31
0.0
  0
LINE
  5
2B1
330
31
100
AcDbEntity
  8
0
 62
74
370
5
 60
1
100
AcDbLine
 10
5.000000000087311
 20
102.7131206219317
 30
0.0
 11
-4.999999999912688
 21
102.7131206219317
 31
0.0
  0
LINE
  5
2B2
330
31
100
AcDbEntity
  8
0
 62
74
370
5
 60
1
100
AcDbLine
 10
5.000000000087311
 20
100.7131206219317
 30
0.0
 11
-4.999999999912688
 21
100.7131206219317
 31
0.0
  0
LINE
  5
2B3
330
31
100
AcDbEntity
  8
00
 62
74
370
5
 60
1
100
AcDbLine
 10
-4.999999999912688
 20
102.7131206219317
 30
0.0
 11
5.000000000087311
 21
102.7131206219317
 31
0.0
  0
LINE
  5
2B4
330
31
100
AcDbEntity
  8
0
 62
74
370
5
 60
1
100
AcDbLine
 10
5.000000000087311
 20
96.7131206219317
 30
0.0
 11
-4.999999999912688
 21
96.7131206219317
 31
0.0
  0
LINE
  5
2B5
330
31
100
AcDbEntity
  8
00
 62
74
370
5
 60
1
100
AcDbLine
 10
-4.999999999912688
 20
100.7131206219317
 30
0.0
 11
5.000000000087311
 21
100.7131206219317
 31
0.0
  0
LINE
  5
2B6
330
31
100
AcDbEntity
  8
00
 62
74
370
5
 60
1
100
AcDbLine
 10
-4.999999999912688
 20
96.7131206219317
 30
0.0
 11
5.000000000087311
 21
96.7131206219317
 31
0.0
  0
LINE
  5
2B7
330
31
100
AcDbEntity
  8
0
 62
74
370
5
 60
1
100
AcDbLine
 10
5.000000000087311
 20
96.7131206219317
 30
0.0
 11
-4.999999999912688
 21
96.7131206219317
 31
0.0
  0
LINE
  5
2B8
330
31
100
AcDbEntity
  8
00
 62
74
370
5
 60
1
100
AcDbLine
 10
-4.999999999912688
 20
100.7131206219317
 30
0.0
 11
5.000000000087311
 21
100.7131206219317
 31
0.0
  0
LINE
  5
2B9
330
31
100
AcDbEntity
  8
00
 62
74
370
5
 60
1
100
AcDbLine
 10
8.000000000087311
 20
96.7131206219317
 30
0.0
 11
-8.0
 21
96.7131206219317
 31
0.0
  0
ARC
  5
2BA
330
31
100
AcDbEntity
  8
00
 62
74
370
5
 60
1
100
AcDbCircle
 10
0.0
 20
88.42957825821645
 30
0.0
 40
8.283542363731021
100
AcDbArc
 50
50.66993661762961
 51
129.3300633823704
  0
LINE
  5
2BB
330
31
100
AcDbEntity
  8
00
 62
74
370
5
 60
1
100
AcDbLine
 10
-8.0
 20
96.7131206219317
 30
0.0
 11
6.013460107002174
 21
96.7131206219317
 31
0.0
  0
ARC
  5
2BC
330
31
100
AcDbEntity
  8
00
 62
74
370
5
 60
1
100
AcDbCircle
 10
-7.874999999912688
 20
93.94283986730147
 30
0.0
 40
2.773099431950017
100
AcDbArc
 50
18.80977634904461
 51
161.1902236509554
  0
ARC
  5
2BD
330
31
100
AcDbEntity
  8
00
 62
74
370
5
 60
1
100
AcDbCircle
 10
7.875
 20
108.3781503654434
 30
0.0
 40
2.773099431950476
100
AcDbArc
 50
18.80977634904461
 51
161.1902236509554
  0
ARC
  5
2BE
330
31
100
AcDbEntity
  8
00
 62
74
370
5
 60
1
100
AcDbCircle
 10
7.875
 20
105.9187118747038
 30
0.0
 40
2.773099431950476
100
AcDbArc
 50
198.8097763490446
 51
341.1902236509554
  0
LINE
  5
2BF
330
31
100
AcDbEntity
  8
0
 62
74
370
5
 60
1
100
AcDbLine
 10
-9.827786895926693
 20
98.28788849924308
 30
0.0
 11
-8.662489804439247
 21
99.4531855907378
 31
0.0
  0
LINE
  5
2C0
330
31
100
AcDbEntity
  8
0
 62
74
370
5
 60
1
100
AcDbLine
 10
-6.881247457742574
 20
97.69889403150296
 30
0.0
 11
-4.881247457728022
 21
99.69889403151753
 31
0.0
  0
LINE
  5
2C1
330
31
100
AcDbEntity
  8
0
 62
74
370
5
 60
1
100
AcDbLine
 10
-3.345713551811059
 20
97.69889403150296
 30
0.0
 11
-1.345713551796507
 21
99.69889403151753
 31
0.0
  0
LINE
  5
2C2
330
31
100
AcDbEntity
  8
0
 62
74
370
5
 60
1
100
AcDbLine
 10
0.1898203541204566
 20
97.69889403150296
 30
0.0
 11
2.189820354135008
 21
99.69889403151753
 31
0.0
  0
LINE
  5
2C3
330
31
100
AcDbEntity
  8
0
 62
74
370
5
 60
1
100
AcDbLine
 10
3.725354260051972
 20
97.69889403150296
 30
0.0
 11
5.725354260066524
 21
99.69889403151753
 31
0.0
  0
LINE
  5
2C4
330
31
100
AcDbEntity
  8
0
 62
74
370
5
 60
1
100
AcDbLine
 10
7.260888165983487
 20
97.69889403149568
 30
0.0
 11
8.933895742098684
 21
99.3719016076109
 31
0.0
  0
LINE
  5
2C5
330
31
100
AcDbEntity
  8
0
 62
74
370
5
 60
1
100
AcDbLine
 10
9.560280079196673
 20
99.19889403151751
 30
0.0
 11
7.75
 21
99.69889403151753
 31
0.0
  0
LINE
  5
2C6
330
31
100
AcDbEntity
  8
0
 62
74
370
5
 60
1
100
AcDbLine
 10
9.560280079196673
 20
98.19889403151751
 30
0.0
 11
7.75
 21
97.69889403150296
 31
0.0
  0
ARC
  5
2C7
330
31
100
AcDbEntity
  8
00
 62
74
370
5
 60
1
100
AcDbCircle
 10
7.875
 20
93.94283986730147
 30
0.0
 40
2.773099431950476
100
AcDbArc
 50
18.80977634904461
 51
161.1902236509554
  0
LINE
  5
2C8
330
31
100
AcDbEntity
  8
0
 62
74
370
5
 60
1
100
AcDbLine
 10
5.000000000087311
 20
90.39234060620652
 30
0.0
 11
5.000000000087311
 21
88.71312062191714
 31
0.0
  0
LINE
  5
2C9
330
31
100
AcDbEntity
  8
0
 62
74
370
5
 60
1
100
AcDbLine
 10
-4.999999999912688
 20
90.39234060620652
 30
0.0
 11
-4.999999999912688
 21
88.71312062191714
 31
0.0
  0
ARC
  5
2CA
330
31
100
AcDbEntity
  8
00
 62
74
370
5
 60
1
100
AcDbCircle
 10
0.0
 20
96.9966629856615
 30
0.0
 40
8.283542363731021
100
AcDbArc
 50
230.6699366176296
 51
309.3300633823704
  0
LINE
  5
2CB
330
31
100
AcDbEntity
  8
00
 62
74
370
5
 60
1
100
AcDbLine
 10
-6.013460106885759
 20
88.71312062191714
 30
0.0
 11
6.013460107002174
 21
88.71312062191714
 31
0.0
  0
LINE
  5
2CC
330
31
100
AcDbEntity
  8
00
 62
74
370
5
 60
1
100
AcDbLine
 10
8.0
 20
88.71312062191714
 30
0.0
 11
-8.0
 21
88.71312062191714
 31
0.0
  0
ARC
  5
2CD
330
31
100
AcDbEntity
  8
00
 62
74
370
5
 60
1
100
AcDbCircle
 10
0.0
 20
96.9966629856615
 30
0.0
 40
8.283542363731021
100
AcDbArc
 50
230.6699366176296
 51
309.3300633823704
  0
LINE
  5
2CE
330
31
100
AcDbEntity
  8
00
 62
74
370
5
 60
1
100
AcDbLine
 10
8.0
 20
88.71312062191714
 30
0.0
 11
-7.999999999912688
 21
88.71312062191714
 31
0.0
  0
ARC
  5
2CF
330
31
100
AcDbEntity
  8
00
 62
74
370
5
 60
1
100
AcDbCircle
 10
-7.874999999912688
 20
91.48340137654736
 30
0.0
 40
2.773099431950017
100
AcDbArc
 50
198.8097763490446
 51
341.1902236509554
  0
ARC
  5
2D0
330
31
100
AcDbEntity
  8
00
 62
74
370
5
 60
1
100
AcDbCircle
 10
-7.874999999912688
 20
91.48340137654736
 30
0.0
 40
2.773099431950017
100
AcDbArc
 50
198.8097763490446
 51
341.1902236509554
  0
ARC
  5
2D1
330
31
100
AcDbEntity
  8
00
 62
74
370
5
 60
1
100
AcDbCircle
 10
7.875
 20
91.48340137654736
 30
0.0
 40
2.773099431950476
100
AcDbArc
 50
198.8097763490446
 51
341.1902236509554
  0
ARC
  5
2D2
330
31
100
AcDbEntity
  8
00
 62
74
370
5
 60
1
100
AcDbCircle
 10
7.875
 20
91.48340137654736
 30
0.0
 40
2.773099431950476
100
AcDbArc
 50
198.8097763490446
 51
341.1902236509554
  0
LINE
  5
2D3
330
31
100
AcDbEntity
  8
0
 62
74
370
5
 60
1
100
AcDbLine
 10
15.0
 20
88.71312062191714
 30
0.0
 11
-15.0
 21
88.71312062191714
 31
0.0
  0
LINE
  5
2D4
330
31
100
AcDbEntity
  8
00
 62
74
370
5
 60
1
100
AcDbLine
 10
-10.5
 20
94.83696259905697
 30
0.0
 11
-10.5
 21
90.58927864479188
 31
0.0
  0
LINE
  5
2D5
330
31
100
AcDbEntity
  8
00
 62
74
370
5
 60
1
100
AcDbLine
 10
-5.249999999912688
 20
90.58927864477732
 30
0.0
 11
-5.249999999912688
 21
94.83696259905697
 31
0.0
  0
LINE
  5
2D6
330
31
100
AcDbEntity
  8
00
 62
74
370
5
 60
1
100
AcDbLine
 10
-10.5
 20
90.58927864479188
 30
0.0
 11
-10.5
 21
94.83696259905697
 31
0.0
  0
LINE
  5
2D7
330
31
100
AcDbEntity
  8
0
 62
74
370
5
 60
1
100
AcDbLine
 10
-10.5
 20
90.58927864473365
 30
0.0
 11
-10.5
 21
94.83696259905697
 31
0.0
  0
LINE
  5
2D8
330
31
100
AcDbEntity
  8
00
 62
74
370
5
 60
1
100
AcDbLine
 10
10.50000000008731
 20
94.83696259907151
 30
0.0
 11
10.50000000008731
 21
90.58927864477732
 31
0.0
  0
LINE
  5
2D9
330
31
100
AcDbEntity
  8
00
 62
74
370
5
 60
1
100
AcDbLine
 10
5.25
 20
90.58927864477732
 30
0.0
 11
5.25
 21
94.83696259905697
 31
0.0
  0
LINE
  5
2DA
330
31
100
AcDbEntity
  8
0
 62
74
370
5
 60
1
100
AcDbLine
 10
10.50000000008731
 20
90.58927864482098
 30
0.0
 11
10.50000000008731
 21
94.83696259907151
 31
0.0
  0
LINE
  5
2DB
330
31
100
AcDbEntity
  8
00
 62
74
370
5
 60
1
100
AcDbLine
 10
10.5
 20
90.58927864477732
 30
0.0
 11
10.5
 21
94.83696259910062
 31
0.0
  0
LINE
  5
2DC
330
31
100
AcDbEntity
  8
0
 62
74
370
5
 60
1
100
AcDbLine
 10
-4.999999999912688
 20
117.2214311200775
 30
0.0
 11
-5.999999999912688
 21
118.2214311200921
 31
0.0
  0
LINE
  5
2DD
330
31
100
AcDbEntity
  8
0
 62
74
370
5
 60
1
100
AcDbLine
 10
-4.999999999912688
 20
117.2214311200775
 30
0.0
 11
-5.999999999912688
 21
118.2214311200921
 31
0.0
  0
LINE
  5
2DE
330
31
100
AcDbEntity
  8
0
 62
74
370
5
 60
1
100
AcDbLine
 10
5.000000000087311
 20
117.2214311200775
 30
0.0
 11
6.0
 21
118.2214311200921
 31
0.0
  0
LINE
  5
2DF
330
31
100
AcDbEntity
  8
0
 62
74
370
5
 60
1
100
AcDbLine
 10
5.000000000087311
 20
117.2214311200775
 30
0.0
 11
6.0
 21
118.2214311200921
 31
0.0
  0
ARC
  5
2E0
330
31
100
AcDbEntity
  8
0
 62
74
 60
1
100
AcDbCircle
 10
20.0
 20
48.22143112007757
 30
0.0
 40
10.0
100
AcDbArc
 50
0.0
 51
90.0
  0
LINE
  5
2E1
330
31
100
AcDbEntity
  8
0
 62
74
370
5
 60
1
100
AcDbLine
 10
0.0
 20
58.22143112007757
 30
0.0
 11
15.0
 21
58.22143112007757
 31
0.0
  0
LINE
  5
2E2
330
31
100
AcDbEntity
  8
0
 62
74
370
5
 60
1
100
AcDbLine
 10
0.0
 20
58.22143112007757
 30
0.0
 11
15.0
 21
58.22143112007757
 31
0.0
  0
LINE
  5
2E3
330
31
100
AcDbEntity
  8
0
 62
74
370
5
 60
1
100
AcDbLine
 10
0.0
 20
58.22143112007757
 30
0.0
 11
15.0
 21
58.22143112007757
 31
0.0
  0
LINE
  5
2E4
330
31
100
AcDbEntity
  8
0
 62
74
370
5
 60
1
100
AcDbLine
 10
15.0
 20
58.22143112007757
 30
0.0
 11
15.0
 21
88.71312062191714
 31
0.0
  0
LINE
  5
2E5
330
31
100
AcDbEntity
  8
0
 62
74
370
5
 60
1
100
AcDbLine
 10
-15.0
 20
88.71312062191714
 30
0.0
 11
-15.0
 21
58.22143112007757
 31
0.0
  0
LINE
  5
2E6
330
31
100
AcDbEntity
  8
0
 62
74
370
5
 60
1
100
AcDbLine
 10
15.0
 20
58.22143112007757
 30
0.0
 11
15.0
 21
86.71312062191716
 31
0.0
  0
LINE
  5
2E7
330
31
100
AcDbEntity
  8
0
 62
74
370
5
 60
1
100
AcDbLine
 10
-15.0
 20
88.71312062191714
 30
0.0
 11
-15.0
 21
58.22143112007757
 31
0.0
  0
LINE
  5
2E8
330
31
100
AcDbEntity
  8
0
 62
74
370
5
 60
1
100
AcDbLine
 10
15.0
 20
58.22143112007757
 30
0.0
 11
15.0
 21
88.71312062191714
 31
0.0
  0
LINE
  5
2E9
330
31
100
AcDbEntity
  8
0
 62
74
370
5
 60
1
100
AcDbLine
 10
15.0
 20
58.22143112007757
 30
0.0
 11
15.0
 21
86.71312062191716
 31
0.0
  0
LINE
  5
2EA
330
31
100
AcDbEntity
  8
0
 62
74
370
5
 60
1
100
AcDbLine
 10
15.0
 20
58.22143112007757
 30
0.0
 11
15.0
 21
88.71312062191714
 31
0.0
  0
LINE
  5
2EB
330
31
100
AcDbEntity
  8
0
 62
74
370
5
 60
1
100
AcDbLine
 10
-15.0
 20
88.71312062191714
 30
0.0
 11
-15.0
 21
58.22143112007757
 31
0.0
  0
LINE
  5
2EC
330
31
100
AcDbEntity
  8
0
 62
74
370
5
 60
1
100
AcDbLine
 10
15.0
 20
58.22143112007757
 30
0.0
 11
15.0
 21
86.71312062191716
 31
0.0
  0
ENDBLK
  5
33
330
31
100
AcDbEntity
  8
0
100
AcDbBlockEnd
  0
BLOCK
  5
2EE
330
2ED
100
AcDbEntity
  8
0
100
AcDbBlockBegin
  2
Nuintek
 70
0
 10
0.0
 20
0.0
 30
0.0
  3
Nuintek
  1

  0
LWPOLYLINE
  5
2F0
330
2ED
100
AcDbEntity
  8
0
 62
150
100
AcDbPolyline
 90
13
 70
1
 10
1.822844466424413
 20
2.331771021328762
 10
1.822844466424413
 20
3.833845513473534
 10
-2.803801207955245
 20
3.833845513473534
 10
-2.803801207955245
 20
3.833845513473534
 10
-2.803801207955245
 20
-0.9937686702195094
 10
0.183414180664414
 20
-0.9937686702195094
 10
0.183414180664414
 20
-0.2304657404801276
 10
-0.1845563293458383
 20
-0.2304657404801276
 10
-0.1845563293458383
 20
-0.625798160209257
 10
-2.435681722030039
 20
-0.625798160209257
 10
-2.435681722030039
 20
3.46686817622961
 10
1.454824297775786
 20
3.46686817622961
 10
1.454824297775786
 20
2.331771021328762
  0
LWPOLYLINE
  5
2F1
330
2ED
100
AcDbEntity
  8
0
 62
150
100
AcDbPolyline
 90
20
 70
1
 10
-0.1146121704341567
 20
2.84e-14
 10
0.1146121704341567
 20
-1.42e-14
 42
0.4142135623738234
 10
0.1546121704342056
 20
0.0400000000000347
 10
0.1546121704341488
 20
1.578358753399896
 42
-0.7047199659112873
 10
0.1741234969857714
 20
1.58532706168323
 10
1.448040919274234
 20
0.0293213943030963
 42
0.2248667671231916
 10
1.509941476013352
 20
1.279e-13
 10
1.749523520106436
 20
-1.42e-14
 42
0.4142135623738234
 10
1.789523520106428
 20
0.0400000000000347
 10
1.789523520106371
 20
2.069896225279237
 42
0.4142135623735113
 10
1.749523520106379
 20
2.109896225279271
 10
1.492043414029353
 20
2.109896225279271
 42
0.4142135623735114
 10
1.452043414029361
 20
2.069896225279265
 10
1.452043414029418
 20
0.810286556587016
 42
-0.7066016661988462
 10
1.432497181336941
 20
0.8033611030447217
 10
0.3977575255679824
 20
2.080263160131906
 42
0.2261868371009028
 10
0.3356031059862801
 20
2.109896225279285
 10
-0.1146121704341567
 20
2.109896225279285
 42
0.4142135623731991
 10
-0.1546121704341488
 20
2.069896225279237
 10
-0.1546121704341488
 20
0.0400000000000347
 42
0.4142135623730951
  0
LWPOLYLINE
  5
2F2
330
2ED
100
AcDbEntity
  8
0
 62
150
100
AcDbPolyline
 90
20
 70
1
 10
5.891699452611845
 20
2.84e-14
 10
6.120923793480159
 20
-1.42e-14
 42
0.4142135623738234
 10
6.160923793480236
 20
0.0400000000000347
 10
6.160923793480179
 20
1.578358753399896
 42
-0.7047199659112873
 10
6.180435120031773
 20
1.58532706168323
 10
7.454352542320265
 20
0.0293213943030963
 42
0.2248667671231916
 10
7.516253099059412
 20
1.279e-13
 10
7.755835143152438
 20
-1.42e-14
 42
0.4142135623738234
 10
7.795835143152459
 20
0.0400000000000347
 10
7.795835143152402
 20
2.069896225279237
 42
0.4142135623735113
 10
7.755835143152438
 20
2.109896225279271
 10
7.498355037075356
 20
2.109896225279271
 42
0.4142135623735114
 10
7.458355037075392
 20
2.069896225279265
 10
7.458355037075449
 20
0.810286556587016
 42
-0.7066016661988462
 10
7.438808804383
 20
0.8033611030447217
 10
6.404069148614013
 20
2.080263160131906
 42
0.2261868371009028
 10
6.341914729032311
 20
2.109896225279285
 10
5.891699452611845
 20
2.109896225279285
 42
0.4142135623731991
 10
5.851699452611882
 20
2.069896225279237
 10
5.851699452611882
 20
0.0400000000000347
 42
0.4142135623730951
  0
LWPOLYLINE
  5
2F3
330
2ED
100
AcDbEntity
  8
0
 62
150
100
AcDbPolyline
 90
8
 70
1
 10
4.817012064410079
 20
2.069896225279251
 10
4.817012064410135
 20
0.0400000000000489
 42
0.4142135623725748
 10
4.857012064410099
 20
4.26e-14
 10
5.229104307747917
 20
7.11e-14
 42
0.414213562372887
 10
5.269104307747937
 20
0.0400000000000489
 10
5.269104307747937
 20
2.069896225279251
 42
0.4142135623727829
 10
5.229104307747917
 20
2.109896225279214
 10
4.857012064410099
 20
2.109896225279257
 42
0.4142135623730951
  0
CIRCLE
  5
2F4
330
2ED
100
AcDbEntity
  8
0
 62
150
100
AcDbCircle
 10
5.038624573484611
 20
2.688022092693643
 30
0.0
 40
0.3262572522985683
  0
LWPOLYLINE
  5
2F5
330
2ED
100
AcDbEntity
  8
0
 62
150
100
AcDbPolyline
 90
16
 70
1
 10
9.856494861702657
 20
2.109896225279271
 10
8.146747877723925
 20
2.109896225279271
 42
0.4142135623730951
 10
8.106747877723905
 20
2.069896225279265
 10
8.106747877723905
 20
1.887202028524328
 42
0.4142135623728868
 10
8.146747877723925
 20
1.847202028524321
 10
8.735401442810172
 20
1.847202028524279
 42
-0.4142135623727829
 10
8.775401442810193
 20
1.807202028524315
 10
8.77540144281025
 20
0.0400000000000631
 42
0.4142135623723667
 10
8.815401442810211
 20
5.68e-14
 10
9.260938812235253
 20
5.68e-14
 42
0.4142135623730951
 10
9.300938812235273
 20
0.0400000000000631
 10
9.300938812235273
 20
1.807202028524315
 42
-0.4142135623730951
 10
9.340938812235294
 20
1.847202028524321
 10
9.856494861702657
 20
1.847202028524321
 42
0.4142135623731991
 10
9.896494861702678
 20
1.887202028524328
 10
9.896494861702678
 20
2.069896225279265
 42
0.4142135623730951
  0
LWPOLYLINE
  5
2F6
330
2ED
100
AcDbEntity
  8
0
 62
150
100
AcDbPolyline
 90
18
 70
1
 10
11.68132564048701
 20
2.109896225279271
 10
10.36992157313281
 20
2.109896225279314
 42
0.4142135623731782
 10
10.21992157313283
 20
1.959896225279265
 10
10.21992157313283
 20
0.1500000000000625
 42
0.4142135623731228
 10
10.36992157313281
 20
4.26e-14
 10
11.68132564048701
 20
5.68e-14
 10
11.68132564048701
 20
0.2589201402421679
 10
10.74190831674425
 20
0.2589201402421679
 42
-0.4142135623722627
 10
10.70190831674429
 20
0.2989201402421742
 10
10.70190831674423
 20
0.9373068316139239
 42
-0.4142135623722627
 10
10.74190831674425
 20
0.9773068316138733
 10
11.66027037783598
 20
0.9773068316139301
 10
11.66027037783598
 20
1.236226971855984
 10
10.74190831674431
 20
1.236226971855984
 42
-0.4142135623728868
 10
10.70190831674429
 20
1.27622697185599
 10
10.70190831674429
 20
1.807946908099239
 42
-0.4142135623723667
 10
10.74190831674425
 20
1.847946908099245
 10
11.68132564048701
 20
1.847946908099288
  0
LWPOLYLINE
  5
2F7
330
2ED
100
AcDbEntity
  8
0
 62
150
100
AcDbPolyline
 90
22
 70
1
 10
13.02409363346945
 20
1.14261634248406
 10
13.86424909582186
 20
2.068107870273493
 42
0.6505594749546204
 10
13.84572475679991
 20
2.109896225279271
 10
13.58095258765351
 20
2.10989622527947
 42
0.2086318930553114
 10
13.47100215565288
 20
2.061930055467499
 10
12.76899291034689
 20
1.306992727773945
 42
-0.6817620796744714
 10
12.74992987866685
 20
1.314475208654428
 10
12.74992987866685
 20
2.069896225279279
 42
0.414213562372991
 10
12.70992987866683
 20
2.109896225279285
 10
12.22928385194396
 20
2.109896225279257
 42
0.414213562372887
 10
12.18928385194394
 20
2.069896225279279
 10
12.18928385194394
 20
0.0400000000000631
 42
0.4142135623727829
 10
12.22928385194396
 20
5.68e-14
 10
12.70992987866683
 20
5.68e-14
 42
0.4142135623722627
 10
12.74992987866679
 20
0.0400000000000631
 10
12.74992987866685
 20
0.8791032649097729
 42
-0.6871520075210037
 10
12.76910189253786
 20
0.8864665650728937
 10
13.52454585241773
 20
0.049591361411899
 42
0.21246501940317
 10
13.63598240520386
 20
2.132e-13
 10
13.98718337993554
 20
5.68e-14
 42
0.6563112205950516
 10
14.00543464642518
 20
0.0420848257681854
 10
13.02453054952119
 20
1.088419253245803
 42
-0.3903610326755418
  0
SPLINE
  5
2F8
330
2ED
100
AcDbEntity
  8
0
 62
150
100
AcDbSpline
 70
13
 71
3
 72
65
 73
61
 74
0
 42
1e-09
 40
0.0
 40
0.0
 40
0.0
 40
0.0
 40
1.0
 40
1.0
 40
1.0
 40
2.0
 40
2.0
 40
2.0
 40
3.0
 40
3.0
 40
3.0
 40
4.0
 40
4.0
 40
4.0
 40
5.0
 40
5.0
 40
5.0
 40
6.570796326794541
 40
6.570796326794541
 40
6.570796326794541
 40
7.570796326794541
 40
7.570796326794541
 40
7.570796326794541
 40
9.141592653589438
 40
9.141592653589438
 40
9.141592653589438
 40
10.14159265358943
 40
10.14159265358943
 40
10.14159265358943
 40
11.14159265358944
 40
11.14159265358944
 40
11.14159265358944
 40
12.14159265358944
 40
12.14159265358944
 40
12.14159265358944
 40
13.14159265358944
 40
13.14159265358944
 40
13.14159265358944
 40
14.14159265358944
 40
14.14159265358944
 40
14.14159265358944
 40
15.14159265358944
 40
15.14159265358944
 40
15.14159265358944
 40
15.92699081698777
 40
15.92699081698777
 40
15.92699081698777
 40
16.71238898038611
 40
16.71238898038611
 40
16.71238898038611
 40
17.71238898038611
 40
17.71238898038611
 40
17.71238898038611
 40
18.49778714378356
 40
18.49778714378356
 40
18.49778714378356
 40
19.28318530718101
 40
19.28318530718101
 40
19.28318530718101
 40
20.28318530718101
 40
20.28318530718101
 40
20.28318530718101
 40
20.28318530718101
 41
1.0
 41
1.0
 41
1.0
 41
1.0
 41
1.0
 41
1.0
 41
1.0
 41
1.0
 41
1.0
 41
1.0
 41
1.0
 41
1.0
 41
1.0
 41
1.0
 41
1.0
 41
1.0
 41
0.8047378541244486
 41
0.8047378541244486
 41
1.0
 41
1.0
 41
1.0
 41
1.0
 41
0.8047378541243649
 41
0.8047378541243649
 41
0.9999999999999998
 41
1.0
 41
1.0
 41
1.0
 41
1.0
 41
1.0
 41
1.0
 41
1.0
 41
1.0
 41
1.0
 41
1.0
 41
1.0
 41
1.0
 41
1.0
 41
1.0
 41
1.0
 41
1.0
 41
1.0
 41
1.0
 41
0.9492530216740778
 41
0.9492530216740778
 41
1.0
 41
0.9492530216740778
 41
0.9492530216740778
 41
1.0
 41
1.0
 41
1.0
 41
1.0
 41
0.9492530216741911
 41
0.9492530216741911
 41
1.0
 41
0.9492530216741911
 41
0.9492530216741911
 41
1.0
 41
1.0
 41
1.0
 41
1.0
 10
2.309499122038687
 20
0.8486661290207707
 30
0.0
 10
2.309499122038687
 20
0.5323902615143368
 30
0.0
 10
2.408617764141325
 20
0.3031163283540934
 30
0.0
 10
2.607153000176538
 20
0.1613905745659565
 30
0.0
 10
2.754440521457325
 20
0.053780305309374
 30
0.0
 10
2.951634974257757
 20
5.68e-14
 30
0.0
 10
3.199381920876135
 20
5.68e-14
 30
0.0
 10
3.442361638214919
 20
5.68e-14
 30
0.0
 10
3.819221044485942
 20
0.053780305309374
 30
0.0
 10
3.96874320449146
 20
0.1613905745659565
 30
0.0
 10
4.169463420613254
 20
0.3031163283540934
 30
0.0
 10
4.269773870035663
 20
0.5323902615143368
 30
0.0
 10
4.269773870035663
 20
0.8486661290252754
 30
0.0
 10
4.269773870035663
 20
1.256024226724747
 30
0.0
 10
4.269773870035663
 20
1.66253812757624
 30
0.0
 10
4.269773870035663
 20
2.069896225279265
 30
0.0
 10
4.26977387003555
 20
2.093327682784348
 30
0.0
 10
4.253205327540655
 20
2.109896225279271
 30
0.0
 10
4.229773870035586
 20
2.109896225279257
 30
0.0
 10
4.142705702051813
 20
2.109896225279285
 30
0.0
 10
4.055637534067983
 20
2.109896225279285
 30
0.0
 10
3.968569366084153
 20
2.109896225279285
 30
0.0
 10
3.945137908579084
 20
2.109896225279328
 30
0.0
 10
3.92856936608419
 20
2.093327682784348
 30
0.0
 10
3.92856936608419
 20
2.069896225279293
 30
0.0
 10
3.928569366084133
 20
1.657537052937527
 30
0.0
 10
3.928569366084133
 20
1.246022077447321
 30
0.0
 10
3.928569366084133
 20
0.8336629051055837
 30
0.0
 10
3.928569366084133
 20
0.6876168497848881
 30
0.0
 10
3.878265165457918
 20
0.570968708352467
 30
0.0
 10
3.778054033312031
 20
0.4838674567252213
 30
0.0
 10
3.677644266612816
 20
0.3987028919927127
 30
0.0
 10
3.54480740908545
 20
0.3560461216690385
 30
0.0
 10
3.37994072983659
 20
0.3560461216690385
 30
0.0
 10
3.212591118671355
 20
0.3560461216690385
 30
0.0
 10
3.078810747015722
 20
0.3987028919927127
 30
0.0
 10
2.978450638954882
 20
0.4838674567252213
 30
0.0
 10
2.880325169618828
 20
0.570968708352467
 30
0.0
 10
2.83126243495073
 20
0.6876168497848881
 30
0.0
 10
2.83126243495073
 20
0.833662905107559
 30
0.0
 10
2.83126243495073
 20
1.246022077446696
 30
0.0
 10
2.83126243495073
 20
1.657537052937229
 30
0.0
 10
2.83126243495073
 20
2.069896225279293
 30
0.0
 10
2.831262434950787
 20
2.080646669361883
 30
0.0
 10
2.8271484181098
 20
2.090578784615217
 30
0.0
 10
2.819546706198224
 20
2.098180496526779
 30
0.0
 10
2.811944994286619
 20
2.105782208438341
 30
0.0
 10
2.802012879033298
 20
2.109896225279314
 30
0.0
 10
2.791262434950681
 20
2.109896225279314
 30
0.0
 10
2.644007997313366
 20
2.109896225279285
 30
0.0
 10
2.496753559676022
 20
2.109896225279285
 30
0.0
 10
2.349499122038679
 20
2.109896225279285
 30
0.0
 10
2.33874867795609
 20
2.109896225279356
 30
0.0
 10
2.328816562702797
 20
2.105782208438341
 30
0.0
 10
2.321214850791221
 20
2.098180496526765
 30
0.0
 10
2.313613138879645
 20
2.090578784615175
 30
0.0
 10
2.309499122038715
 20
2.080646669361854
 30
0.0
 10
2.309499122038715
 20
2.069896225279279
 30
0.0
 10
2.309499122038687
 20
1.662538127575942
 30
0.0
 10
2.309499122038687
 20
1.256024226724122
 30
0.0
 10
2.309499122038687
 20
0.8486661290207707
 30
0.0
  0
ENDBLK
  5
2EF
330
2ED
100
AcDbEntity
  8
0
100
AcDbBlockEnd
  0
ENDSEC
  0
SECTION
  2
ENTITIES
  0
INSERT
  5
2F
330
17
100
AcDbEntity
  8
0
100
AcDbBlockReference
  2
*U468
 10
106.0
 20
161.7785688799222
 30
0.0
  0
ENDSEC
  0
SECTION
  2
OBJECTS
  0
DICTIONARY
  5
A
330
0
100
AcDbDictionary
281
1
  3
ACAD_COLOR
350
B
  3
ACAD_GROUP
350
C
  3
ACAD_LAYOUT
350
D
  3
ACAD_MATERIAL
350
E
  3
ACAD_MLEADERSTYLE
350
F
  3
ACAD_MLINESTYLE
350
10
  3
ACAD_PLOTSETTINGS
350
11
  3
ACAD_PLOTSTYLENAME
350
12
  3
ACAD_SCALELIST
350
14
  3
ACAD_TABLESTYLE
350
15
  3
ACAD_VISUALSTYLE
350
16
  3
EZDXF_META
350
2D
  0
DICTIONARY
  5
B
330
A
100
AcDbDictionary
281
1
  0
DICTIONARY
  5
C
330
A
100
AcDbDictionary
281
1
  0
DICTIONARY
  5
D
330
A
100
AcDbDictionary
281
1
  3
Model
350
1A
  3
Layout1
350
1E
  0
DICTIONARY
  5
E
330
A
100
AcDbDictionary
281
1
  3
ByBlock
350
1F
  3
ByLayer
350
20
  3
Global
350
21
  0
DICTIONARY
  5
F
330
A
100
AcDbDictionary
281
1
  3
Standard
350
2C
  0
DICTIONARY
  5
10
330
A
100
AcDbDictionary
281
1
  3
Standard
350
22
  0
DICTIONARY
  5
11
330
A
100
AcDbDictionary
281
1
  0
ACDBDICTIONARYWDFLT
  5
12
330
A
100
AcDbDictionary
281
1
  3
Normal
350
13
100
AcDbDictionaryWithDefault
340
13
  0
ACDBPLACEHOLDER
  5
13
330
12
  0
DICTIONARY
  5
14
330
A
100
AcDbDictionary
281
1
  0
DICTIONARY
  5
15
330
A
100
AcDbDictionary
281
1
  0
DICTIONARY
  5
16
330
A
100
AcDbDictionary
281
1
  0
LAYOUT
  5
1A
330
D
100
AcDbPlotSettings
  1

  4
A3
  6

 40
7.5
 41
20.0
 42
7.5
 43
20.0
 44
420.0
 45
297.0
 46
0.0
 47
0.0
 48
0.0
 49
0.0
140
0.0
141
0.0
142
1.0
143
1.0
 70
1024
 72
1
 73
0
 74
5
  7

 75
16
 76
0
 77
2
 78
300
147
1.0
148
0.0
149
0.0
100
AcDbLayout
  1
Model
 70
1
 71
0
 10
0.0
 20
0.0
 11
420.0
 21
297.0
 12
0.0
 22
0.0
 32
0.0
 14
1e+20
 24
1e+20
 34
1e+20
 15
-1e+20
 25
-1e+20
 35
-1e+20
146
0.0
 13
0.0
 23
0.0
 33
0.0
 16
1.0
 26
0.0
 36
0.0
 17
0.0
 27
1.0
 37
0.0
 76
1
330
17
  0
LAYOUT
  5
1E
330
D
100
AcDbPlotSettings
  1

  4
A3
  6

 40
7.5
 41
20.0
 42
7.5
 43
20.0
 44
420.0
 45
297.0
 46
0.0
 47
0.0
 48
0.0
 49
0.0
140
0.0
141
0.0
142
1.0
143
1.0
 70
0
 72
1
 73
0
 74
5
  7

 75
16
 76
0
 77
2
 78
300
147
1.0
148
0.0
149
0.0
100
AcDbLayout
  1
Layout1
 70
1
 71
1
 10
0.0
 20
0.0
 11
420.0
 21
297.0
 12
0.0
 22
0.0
 32
0.0
 14
1e+20
 24
1e+20
 34
1e+20
 15
-1e+20
 25
-1e+20
 35
-1e+20
146
0.0
 13
0.0
 23
0.0
 33
0.0
 16
1.0
 26
0.0
 36
0.0
 17
0.0
 27
1.0
 37
0.0
 76
1
330
1B
  0
MATERIAL
  5
1F
102
{ACAD_REACTORS
330
E
102
}
330
E
100
AcDbMaterial
  1
ByBlock
  2

 70
0
 40
1.0
 71
1
 41
1.0
 91
-1023410177
 42
1.0
 72
1
  3

 73
1
 74
1
 75
1
 44
0.5
 73
0
 45
1.0
 46
1.0
 77
1
  4

 78
1
 79
1
170
1
 48
1.0
171
1
  6

172
1
173
1
174
1
140
1.0
141
1.0
175
1
  7

176
1
177
1
178
1
143
1.0
179
1
  8

270
1
271
1
272
1
145
1.0
146
1.0
273
1
  9

274
1
275
1
276
1
 42
1.0
 72
1
  3

 73
1
 74
1
 75
1
 94
63
  0
MATERIAL
  5
20
102
{ACAD_REACTORS
330
E
102
}
330
E
100
AcDbMaterial
  1
ByLayer
  2

 70
0
 40
1.0
 71
1
 41
1.0
 91
-1023410177
 42
1.0
 72
1
  3

 73
1
 74
1
 75
1
 44
0.5
 73
0
 45
1.0
 46
1.0
 77
1
  4

 78
1
 79
1
170
1
 48
1.0
171
1
  6

172
1
173
1
174
1
140
1.0
141
1.0
175
1
  7

176
1
177
1
178
1
143
1.0
179
1
  8

270
1
271
1
272
1
145
1.0
146
1.0
273
1
  9

274
1
275
1
276
1
 42
1.0
 72
1
  3

 73
1
 74
1
 75
1
 94
63
  0
MATERIAL
  5
21
102
{ACAD_REACTORS
330
E
102
}
330
E
100
AcDbMaterial
  1
Global
  2

 70
0
 40
1.0
 71
1
 41
1.0
 91
-1023410177
 42
1.0
 72
1
  3

 73
1
 74
1
 75
1
 44
0.5
 73
0
 45
1.0
 46
1.0
 77
1
  4

 78
1
 79
1
170
1
 48
1.0
171
1
  6

172
1
173
1
174
1
140
1.0
141
1.0
175
1
  7

176
1
177
1
178
1
143
1.0
179
1
  8

270
1
271
1
272
1
145
1.0
146
1.0
273
1
  9

274
1
275
1
276
1
 42
1.0
 72
1
  3

 73
1
 74
1
 75
1
 94
63
  0
MLINESTYLE
  5
22
102
{ACAD_REACTORS
330
10
102
}
330
10
100
AcDbMlineStyle
  2
Standard
 70
0
  3

 62
256
 51
90.0
 52
90.0
 71
2
 49
0.5
 62
256
  6
BYLAYER
 49
-0.5
 62
256
  6
BYLAYER
  0
MLEADERSTYLE
  5
2C
102
{ACAD_REACTORS
330
F
102
}
330
F
100
AcDbMLeaderStyle
179
2
170
2
171
1
172
0
 90
2
 40
0.0
 41
0.0
173
1
 91
-1056964608
 92
-2
290
1
 42
2.0
291
1
 43
8.0
  3
Standard
 44
4.0
300

342
29
174
1
175
1
176
0
178
1
 93
-1056964608
 45
4.0
292
0
297
0
 46
4.0
 94
-1056964608
 47
1.0
 49
1.0
140
1.0
294
1
141
0.0
177
0
142
1.0
295
0
296
0
143
3.75
271
0
272
9
273
9
  0
DICTIONARY
  5
2D
330
A
100
AcDbDictionary
280
1
281
1
  3
CREATED_BY_EZDXF
350
2E
  3
WRITTEN_BY_EZDXF
350
2FD
  0
DICTIONARYVAR
  5
2E
330
2D
100
DictionaryVariables
280
0
  1
1.4.4 @ 2026-09-23T14:03:52.917287+00:00
  0
DICTIONARYVAR
  5
2FD
330
2D
100
DictionaryVariables
280
0
  1
1.4.4 @ 2026-09-23T14:03:53.525274+00:00
  0
ENDSEC
  0
EOF
