  0
SECTION
  2
HEADER
  9
$ACADVER
  1
AC1032
  9
$ACADMAINTVER
 90
4
  9
$DWGCODEPAGE
  3
ANSI_1252
  9
$LASTSAVEDBY
  1
ezdxf
  9
$REQUIREDVERSIONS
160
0
  9
$INSBASE
 10
0.0
 20
0.0
 30
0.0
  9
$EXTMIN
 10
1e+20
 20
1e+20
 30
1e+20
  9
$EXTMAX
 10
-1e+20
 20
-1e+20
 30
-1e+20
  9
$LIMMIN
 10
0.0
 20
0.0
  9
$LIMMAX
 10
420.0
 20
297.0
  9
$ORTHOMODE
 70
0
  9
$REGENMODE
 70
1
  9
$FILLMODE
 70
1
  9
$QTEXTMODE
 70
0
  9
$MIRRTEXT
 70
1
  9
$LTSCALE
 40
1.0
  9
$ATTMODE
 70
1
  9
$TEXTSIZE
 40
2.5
  9
$TRACEWID
 40
1.0
  9
$TEXTSTYLE
  7
Standard
  9
$CLAYER
  8
0
  9
$CELTYPE
  6
ByLayer
  9
$CECOLOR
 62
256
  9
$CELTSCALE
 40
1.0
  9
$DISPSILH
 70
0
  9
$DIMSCALE
 40
1.0
  9
$DIMASZ
 40
2.5
  9
$DIMEXO
 40
0.625
  9
$DIMDLI
 40
3.75
  9
$DIMRND
 40
0.0
  9
$DIMDLE
 40
0.0
  9
$DIMEXE
 40
1.25
  9
$DIMTP
 40
0.0
  9
$DIMTM
 40
0.0
  9
$DIMTXT
 40
2.5
  9
$DIMCEN
 40
2.5
  9
$DIMTSZ
 40
0.0
  9
$DIMTOL
 70
0
  9
$DIMLIM
 70
0
  9
$DIMTIH
 70
0
  9
$DIMTOH
 70
0
  9
$DIMSE1
 70
0
  9
$DIMSE2
 70
0
  9
$DIMTAD
 70
1
  9
$DIMZIN
 70
8
  9
$DIMBLK
  1

  9
$DIMASO
 70
1
  9
$DIMSHO
 70
1
  9
$DIMPOST
  1

  9
$DIMAPOST
  1

  9
$DIMALT
 70
0
  9
$DIMALTD
 70
3
  9
$DIMALTF
 40
0.03937007874
  9
$DIMLFAC
 40
1.0
  9
$DIMTOFL
 70
1
  9
$DIMTVP
 40
0.0
  9
$DIMTIX
 70
0
  9
$DIMSOXD
 70
0
  9
$DIMSAH
 70
0
  9
$DIMBLK1
  1

  9
$DIMBLK2
  1

  9
$DIMSTYLE
  2
ISO-25
  9
$DIMCLRD
 70
0
  9
$DIMCLRE
 70
0
  9
$DIMCLRT
 70
0
  9
$DIMTFAC
 40
1.0
  9
$DIMGAP
 40
0.625
  9
$DIMJUST
 70
0
  9
$DIMSD1
 70
0
  9
$DIMSD2
 70
0
  9
$DIMTOLJ
 70
0
  9
$DIMTZIN
 70
8
  9
$DIMALTZ
 70
0
  9
$DIMALTTZ
 70
0
  9
$DIMUPT
 70
0
  9
$DIMDEC
 70
2
  9
$DIMTDEC
 70
2
  9
$DIMALTU
 70
2
  9
$DIMALTTD
 70
3
  9
$DIMTXSTY
  7
Standard
  9
$DIMAUNIT
 70
0
  9
$DIMADEC
 70
0
  9
$DIMALTRND
 40
0.0
  9
$DIMAZIN
 70
0
  9
$DIMDSEP
 70
44
  9
$DIMATFIT
 70
3
  9
$DIMFRAC
 70
0
  9
$DIMLDRBLK
  1

  9
$DIMLUNIT
 70
2
  9
$DIMLWD
 70
-2
  9
$DIMLWE
 70
-2
  9
$DIMTMOVE
 70
0
  9
$DIMFXL
 40
1.0
  9
$DIMFXLON
 70
0
  9
$DIMJOGANG
 40
0.785398163397
  9
$DIMTFILL
 70
0
  9
$DIMTFILLCLR
 70
0
  9
$DIMARCSYM
 70
0
  9
$DIMLTYPE
  6

  9
$DIMLTEX1
  6

  9
$DIMLTEX2
  6

  9
$DIMTXTDIRECTION
 70
0
  9
$LUNITS
 70
2
  9
$LUPREC
 70
4
  9
$SKETCHINC
 40
1.0
  9
$FILLETRAD
 40
10.0
  9
$AUNITS
 70
0
  9
$AUPREC
 70
2
  9
$MENU
  1
.
  9
$ELEVATION
 40
0.0
  9
$PELEVATION
 40
0.0
  9
$THICKNESS
 40
0.0
  9
$LIMCHECK
 70
0
  9
$CHAMFERA
 40
0.0
  9
$CHAMFERB
 40
0.0
  9
$CHAMFERC
 40
0.0
  9
$CHAMFERD
 40
0.0
  9
$SKPOLY
 70
0
  9
$TDCREATE
 40
2461307.8771180557
  9
$TDUCREATE
 40
2458532.153996898
  9
$TDUPDATE
 40
2461307.8771180557
  9
$TDUUPDATE
 40
2458532.1544311
  9
$TDINDWG
 40
0.0
  9
$TDUSRTIMER
 40
0.0
  9
$USRTIMER
 70
1
  9
$ANGBASE
 50
0.0
  9
$ANGDIR
 70
0
  9
$PDMODE
 70
0
  9
$PDSIZE
 40
0.0
  9
$PLINEWID
 40
0.0
  9
$SPLFRAME
 70
0
  9
$SPLINETYPE
 70
6
  9
$SPLINESEGS
 70
8
  9
$HANDSEED
  5
BC
  9
$SURFTAB1
 70
6
  9
$SURFTAB2
 70
6
  9
$SURFTYPE
 70
6
  9
$SURFU
 70
6
  9
$SURFV
 70
6
  9
$UCSBASE
  2

  9
$UCSNAME
  2

  9
$UCSORG
 10
0.0
 20
0.0
 30
0.0
  9
$UCSXDIR
 10
1.0
 20
0.0
 30
0.0
  9
$UCSYDIR
 10
0.0
 20
1.0
 30
0.0
  9
$UCSORTHOREF
  2

  9
$UCSORTHOVIEW
 70
0
  9
$UCSORGTOP
 10
0.0
 20
0.0
 30
0.0
  9
$UCSORGBOTTOM
 10
0.0
 20
0.0
 30
0.0
  9
$UCSORGLEFT
 10
0.0
 20
0.0
 30
0.0
  9
$UCSORGRIGHT
 10
0.0
 20
0.0
 30
0.0
  9
$UCSORGFRONT
 10
0.0
 20
0.0
 30
0.0
  9
$UCSORGBACK
 10
0.0
 20
0.0
 30
0.0
  9
$PUCSBASE
  2

  9
$PUCSNAME
  2

  9
$PUCSORG
 10
0.0
 20
0.0
 30
0.0
  9
$PUCSXDIR
 10
1.0
 20
0.0
 30
0.0
  9
$PUCSYDIR
 10
0.0
 20
1.0
 30
0.0
  9
$PUCSORTHOREF
  2

  9
$PUCSORTHOVIEW
 70
0
  9
$PUCSORGTOP
 10
0.0
 20
0.0
 30
0.0
  9
$PUCSORGBOTTOM
 10
0.0
 20
0.0
 30
0.0
  9
$PUCSORGLEFT
 10
0.0
 20
0.0
 30
0.0
  9
$PUCSORGRIGHT
 10
0.0
 20
0.0
 30
0.0
  9
$PUCSORGFRONT
 10
0.0
 20
0.0
 30
0.0
  9
$PUCSORGBACK
 10
0.0
 20
0.0
 30
0.0
  9
$USERI1
 70
0
  9
$USERI2
 70
0
  9
$USERI3
 70
0
  9
$USERI4
 70
0
  9
$USERI5
 70
0
  9
$USERR1
 40
0.0
  9
$USERR2
 40
0.0
  9
$USERR3
 40
0.0
  9
$USERR4
 40
0.0
  9
$USERR5
 40
0.0
  9
$WORLDVIEW
 70
1
  9
$SHADEDGE
 70
3
  9
$SHADEDIF
 70
70
  9
$TILEMODE
 70
1
  9
$MAXACTVP
 70
64
  9
$PINSBASE
 10
0.0
 20
0.0
 30
0.0
  9
$PLIMCHECK
 70
0
  9
$PEXTMIN
 10
1e+20
 20
1e+20
 30
1e+20
  9
$PEXTMAX
 10
-1e+20
 20
-1e+20
 30
-1e+20
  9
$PLIMMIN
 10
0.0
 20
0.0
  9
$PLIMMAX
 10
420.0
 20
297.0
  9
$UNITMODE
 70
0
  9
$VISRETAIN
 70
1
  9
$PLINEGEN
 70
0
  9
$PSLTSCALE
 70
1
  9
$TREEDEPTH
 70
3020
  9
$CMLSTYLE
  2
Standard
  9
$CMLJUST
 70
0
  9
$CMLSCALE
 40
20.0
  9
$PROXYGRAPHICS
 70
1
  9
$MEASUREMENT
 70
1
  9
$CELWEIGHT
370
-1
  9
$ENDCAPS
280
0
  9
$JOINSTYLE
280
0
  9
$LWDISPLAY
290
0
  9
$INSUNITS
 70
4
  9
$HYPERLINKBASE
  1

  9
$STYLESHEET
  1

  9
$XEDIT
290
1
  9
$CEPSNTYPE
380
0
  9
$PSTYLEMODE
290
1
  9
$FINGERPRINTGUID
  2
{51E8ADE3-D6F7-494B-A439-B0C2A8D0CFA5}
  9
$VERSIONGUID
  2
{6E247C15-6603-4E68-88EB-A59BDB94E8BB}
  9
$EXTNAMES
290
1
  9
$PSVPSCALE
 40
0.0
  9
$OLESTARTUP
290
0
  9
$SORTENTS
280
127
  9
$INDEXCTL
280
0
  9
$HIDETEXT
280
1
  9
$XCLIPFRAME
280
1
  9
$HALOGAP
280
0
  9
$OBSCOLOR
 70
257
  9
$OBSLTYPE
280
0
  9
$INTERSECTIONDISPLAY
280
0
  9
$INTERSECTIONCOLOR
 70
257
  9
$DIMASSOC
280
2
  9
$PROJECTNAME
  1

  9
$CAMERADISPLAY
290
0
  9
$LENSLENGTH
 40
50.0
  9
$CAMERAHEIGHT
 40
0.0
  9
$STEPSPERSEC
 40
24.0
  9
$STEPSIZE
 40
100.0
  9
$3DDWFPREC
 40
2.0
  9
$PSOLWIDTH
 40
0.005
  9
$PSOLHEIGHT
 40
0.08
  9
$LOFTANG1
 40
1.570796326795
  9
$LOFTANG2
 40
1.570796326795
  9
$LOFTMAG1
 40
0.0
  9
$LOFTMAG2
 40
0.0
  9
$LOFTPARAM
 70
7
  9
$LOFTNORMALS
280
1
  9
$LATITUDE
 40
37.795
  9
$LONGITUDE
 40
-122.394
  9
$NORTHDIRECTION
 40
0.0
  9
$TIMEZONE
 70
-8000
  9
$LIGHTGLYPHDISPLAY
280
1
  9
$TILEMODELIGHTSYNCH
280
1
  9
$CMATERIAL
347
20
  9
$SOLIDHIST
280
0
  9
$SHOWHIST
280
1
  9
$DWFFRAME
280
2
  9
$DGNFRAME
280
2
  9
$REALWORLDSCALE
290
1
  9
$INTERFERECOLOR
 62
256
  9
$CSHADOW
280
0
  9
$SHADOWPLANELOCATION
 40
0.0
  0
ENDSEC
  0
SECTION
  2
CLASSES
  0
CLASS
  1
ACDBDICTIONARYWDFLT
  2
AcDbDictionaryWithDefault
  3
ObjectDBX Classes
 90
0
 91
0
280
0
281
0
  0
CLASS
  1
SUN
  2
AcDbSun
  3
SCENEOE
 90
1153
 91
0
280
0
281
0
  0
CLASS
  1
VISUALSTYLE
  2
AcDbVisualStyle
  3
ObjectDBX Classes
 90
4095
 91
0
280
0
281
0
  0
CLASS
  1
MATERIAL
  2
AcDbMaterial
  3
ObjectDBX Classes
 90
1153
 91
0
280
0
281
0
  0
CLASS
  1
SCALE
  2
AcDbScale
  3
ObjectDBX Classes
 90
1153
 91
0
280
0
281
0
  0
CLASS
  1
TABLESTYLE
  2
AcDbTableStyle
  3
ObjectDBX Classes
 90
4095
 91
0
280
0
281
0
  0
CLASS
  1
MLEADERSTYLE
  2
AcDbMLeaderStyle
  3
ACDB_MLEADERSTYLE_CLASS
 90
4095
 91
0
280
0
281
0
  0
CLASS
  1
DICTIONARYVAR
  2
AcDbDictionaryVar
  3
ObjectDBX Classes
 90
0
 91
0
280
0
281
0
  0
CLASS
  1
CELLSTYLEMAP
  2
AcDbCellStyleMap
  3
ObjectDBX Classes
 90
1152
 91
0
280
0
281
0
  0
CLASS
  1
MENTALRAYRENDERSETTINGS
  2
AcDbMentalRayRenderSettings
  3
SCENEOE
 90
1024
 91
0
280
0
281
0
  0
CLASS
  1
ACDBDETAILVIEWSTYLE
  2
AcDbDetailViewStyle
  3
ObjectDBX Classes
 90
1025
 91
0
280
0
281
0
  0
CLASS
  1
ACDBSECTIONVIEWSTYLE
  2
AcDbSectionViewStyle
  3
ObjectDBX Classes
 90
1025
 91
0
280
0
281
0
  0
CLASS
  1
RASTERVARIABLES
  2
AcDbRasterVariables
  3
ISM
 90
0
 91
0
280
0
281
0
  0
CLASS
  1
LAYOUT
  2
AcDbLayout
  3
ObjectDBX Classes
 90
0
 91
0
280
0
281
0
  0
CLASS
  1
ACDBPLACEHOLDER
  2
AcDbPlaceHolder
  3
ObjectDBX Classes
 90
0
 91
0
280
0
281
0
  0
ENDSEC
  0
SECTION
  2
TABLES
  0
TABLE
  2
VPORT
  5
8
330
0
100
AcDbSymbolTable
 70
1
  0
VPORT
  5
23
330
8
100
AcDbSymbolTableRecord
100
AcDbViewportTableRecord
  2
*Active
 70
0
 10
0.0
 20
0.0
 11
1.0
 21
1.0
 12
0.0
 22
0.0
 13
0.0
 23
0.0
 14
0.5
 24
0.5
 15
0.5
 25
0.5
 16
0.0
 26
0.0
 36
1.0
 17
0.0
 27
0.0
 37
0.0
 40
1000.0
 41
1.34
 42
50.0
 43
0.0
 44
0.0
 50
0.0
 51
0.0
 71
0
 72
1000
 73
1
 74
3
 75
0
 76
0
 77
0
 78
0
281
0
 65
0
146
0.0
  0
ENDTAB
  0
TABLE
  2
LTYPE
  5
2
330
0
100
AcDbSymbolTable
 70
3
  0
LTYPE
  5
24
330
2
100
AcDbSymbolTableRecord
100
AcDbLinetypeTableRecord
  2
ByBlock
 70
0
  3

 72
65
 73
0
 40
0.0
  0
LTYPE
  5
25
330
2
100
AcDbSymbolTableRecord
100
AcDbLinetypeTableRecord
  2
ByLayer
 70
0
  3

 72
65
 73
0
 40
0.0
  0
LTYPE
  5
26
330
2
100
AcDbSymbolTableRecord
100
AcDbLinetypeTableRecord
  2
Continuous
 70
0
  3

 72
65
 73
0
 40
0.0
  0
ENDTAB
  0
TABLE
  2
LAYER
  5
1
330
0
100
AcDbSymbolTable
 70
3
  0
LAYER
  5
27
330
1
100
AcDbSymbolTableRecord
100
AcDbLayerTableRecord
  2
0
 70
0
 62
7
  6
Continuous
370
-3
390
13
347
21
  0
LAYER
  5
28
330
1
100
AcDbSymbolTableRecord
100
AcDbLayerTableRecord
  2
Defpoints
 70
0
 62
7
  6
Continuous
290
0
370
-3
390
13
347
21
  0
LAYER
  5
B7
330
1
100
AcDbSymbolTableRecord
100
AcDbLayerTableRecord
  2
OBJ1
 70
0
 62
2
  6
Continuous
370
-3
390
13
347
21
  0
ENDTAB
  0
TABLE
  2
STYLE
  5
5
330
0
100
AcDbSymbolTable
 70
2
  0
STYLE
  5
29
330
5
100
AcDbSymbolTableRecord
100
AcDbTextStyleTableRecord
  2
Standard
 70
0
 40
0.0
 41
1.0
 50
0.0
 71
0
 42
2.5
  3
txt
  4

  0
STYLE
  5
B8
330
5
100
AcDbSymbolTableRecord
100
AcDbTextStyleTableRecord
  2
HTXT1
 70
0
 40
3.0
 41
0.8
 50
0.0
 71
0
 42
3.0
  3
romans.shx
  4
extfont.shx
  0
ENDTAB
  0
TABLE
  2
VIEW
  5
7
330
0
100
AcDbSymbolTable
 70
0
  0
ENDTAB
  0
TABLE
  2
UCS
  5
6
330
0
100
AcDbSymbolTable
 70
0
  0
ENDTAB
  0
TABLE
  2
APPID
  5
3
330
0
100
AcDbSymbolTable
 70
3
  0
APPID
  5
2A
330
3
100
AcDbSymbolTableRecord
100
AcDbRegAppTableRecord
  2
ACAD
 70
0
  0
APPID
  5
B9
330
3
100
AcDbSymbolTableRecord
100
AcDbRegAppTableRecord
  2
HATCHBACKGROUNDCOLOR
 70
0
  0
APPID
  5
BA
330
3
100
AcDbSymbolTableRecord
100
AcDbRegAppTableRecord
  2
EZDXF
 70
0
  0
ENDTAB
  0
TABLE
  2
DIMSTYLE
  5
4
330
0
100
AcDbSymbolTable
 70
1
100
AcDbDimStyleTable
  0
DIMSTYLE
105
2B
330
4
100
AcDbSymbolTableRecord
100
AcDbDimStyleTableRecord
  2
Standard
 70
0
 40
1.0
 41
2.5
 42
0.625
 43
3.75
 44
1.25
 45
0.0
 46
0.0
 47
0.0
 48
0.0
 49
2.5
140
2.5
141
2.5
142
0.0
143
0.03937007874
144
1.0
145
0.0
146
1.0
147
0.625
148
0.0
 69
0
 70
0
 71
0
 72
0
 73
0
 74
0
 75
0
 76
0
 77
1
 78
8
 79
3
170
0
171
3
172
1
173
0
174
0
175
0
176
0
177
0
178
0
179
2
271
2
272
2
273
2
274
3
275
0
276
0
277
2
278
44
279
0
280
0
281
0
282
0
283
0
284
8
285
0
286
0
288
0
289
3
290
0
371
-2
372
-2
  0
ENDTAB
  0
TABLE
  2
BLOCK_RECORD
  5
9
330
0
100
AcDbSymbolTable
 70
3
  0
BLOCK_RECORD
  5
17
330
9
100
AcDbSymbolTableRecord
100
AcDbBlockTableRecord
  2
*Model_Space
340
1A
 70
0
280
1
281
0
  0
BLOCK_RECORD
  5
1B
330
9
100
AcDbSymbolTableRecord
100
AcDbBlockTableRecord
  2
*Paper_Space
340
1E
 70
0
280
1
281
0
  0
BLOCK_RECORD
  5
31
330
9
100
AcDbSymbolTableRecord
100
AcDbBlockTableRecord
  2
*U198
340
0
 70
0
280
1
281
0
  0
ENDTAB
  0
ENDSEC
  0
SECTION
  2
BLOCKS
  0
BLOCK
  5
18
330
17
100
AcDbEntity
  8
0
100
AcDbBlockBegin
  2
*Model_Space
 70
0
 10
0.0
 20
0.0
 30
0.0
  3
*Model_Space
  1

  0
ENDBLK
  5
19
330
17
100
AcDbEntity
  8
0
100
AcDbBlockEnd
  0
BLOCK
  5
1C
330
1B
100
AcDbEntity
  8
0
100
AcDbBlockBegin
  2
*Paper_Space
 70
0
 10
0.0
 20
0.0
 30
0.0
  3
*Paper_Space
  1

  0
ENDBLK
  5
1D
330
1B
100
AcDbEntity
  8
0
100
AcDbBlockEnd
  0
BLOCK
  5
32
330
31
100
AcDbEntity
  8
0
100
AcDbBlockBegin
  2
*U198
 70
1
 10
0.0
 20
0.0
 30
0.0
  3
*U198
  1

  0
LINE
  5
34
330
31
100
AcDbEntity
  8
OBJ1
 62
19
370
15
 60
1
100
AcDbLine
 10
-23.5
 20
27.80862478003837
 30
0.0
 11
-23.5
 21
18.80862478003837
 31
0.0
  0
LINE
  5
35
330
31
100
AcDbEntity
  8
OBJ1
 62
19
370
15
 60
1
100
AcDbLine
 10
23.5
 20
27.80862478003837
 30
0.0
 11
23.5
 21
18.80862478003837
 31
0.0
  0
LINE
  5
36
330
31
100
AcDbEntity
  8
OBJ1
 62
19
370
15
 60
1
100
AcDbLine
 10
23.5
 20
27.80862478003837
 30
0.0
 11
23.5
 21
18.80862478003837
 31
0.0
  0
LINE
  5
37
330
31
100
AcDbEntity
  8
OBJ1
 62
19
370
15
 60
1
100
AcDbLine
 10
-23.5
 20
18.80862478003837
 30
0.0
 11
-23.5
 21
27.80862478003837
 31
0.0
  0
HATCH
  5
38
330
31
100
AcDbEntity
  8
OBJ1
 62
251
370
15
 60
1
420
5855577
100
AcDbHatch
 10
0.0
 20
0.0
 30
0.0
210
0.0
220
0.0
230
1.0
  2
SOLID
 70
1
 71
0
 91
1
 92
7
 72
1
 73
1
 93
4
 10
3.615173999511171
 20
-1.232026958576168
 42
0.0
 10
-5.82077e-11
 20
4.451501763222039
 42
0.0
 10
-5.82077e-11
 20
-4.691375219961627
 42
-0.4142135623951165
 10
3.0
 20
-7.691375220165355
 42
0.0
 97
0
 75
0
 76
1
 47
0.0907530172219409
 98
6
 10
1.416081948031204
 20
-2.066675957641561
 10
-0.8547525519970804
 20
-2.066675957641561
 10
1.597833567997438
 20
-13.95540458761388
 10
-1.127379981975534
 20
-13.95540458761388
 10
0.6894290479831398
 20
-22.66772713762475
 10
-0.9456283620093016
 20
-22.48615156763117
450
0
451
0
460
0.0
461
0.0
452
0
462
0.0
453
0
470

  0
HATCH
  5
39
330
31
100
AcDbEntity
  8
OBJ1
 62
251
370
15
 60
1
420
5855577
100
AcDbHatch
 10
0.0
 20
0.0
 30
0.0
210
0.0
220
0.0
230
1.0
  2
SOLID
 70
1
 71
0
 91
1
 92
7
 72
1
 73
1
 93
4
 10
0.0
 20
4.451501763192936
 42
0.0
 10
-3.615173999511171
 20
-1.232026958605274
 42
0.0
 10
-3.0
 20
-7.691375219699692
 42
-0.4142135623468118
 10
-5.82077e-11
 20
-4.691375219961627
 42
0.0
 97
0
 75
0
 76
1
 47
0.0907530172219409
 98
6
 10
1.416081948031204
 20
-2.066675957641561
 10
-0.8547525519970804
 20
-2.066675957641561
 10
1.597833567997438
 20
-13.95540458761388
 10
-1.127379981975534
 20
-13.95540458761388
 10
0.6894290479831398
 20
-22.66772713762475
 10
-0.9456283620093016
 20
-22.48615156763117
450
0
451
0
460
0.0
461
0.0
452
0
462
0.0
453
0
470

  0
HATCH
  5
3A
330
31
100
AcDbEntity
  8
OBJ1
 62
251
370
15
 60
1
420
6184542
100
AcDbHatch
 10
0.0
 20
0.0
 30
0.0
210
0.0
220
0.0
230
1.0
  2
SOLID
 70
1
 71
0
 91
1
 92
7
 72
1
 73
1
 93
4
 10
-3.0
 20
-7.691375219699692
 42
0.0
 10
-2.946067767625208
 20
-8.257665524142793
 42
0.8260874793167513
 10
2.946067767712517
 20
-8.257665523706235
 42
0.0
 10
3.0
 20
-7.691375220281767
 42
1.0
 97
0
 75
0
 76
1
 47
0.0905376747545513
 98
1
 10
-1.255737652012612
 20
-5.416298127616752
450
0
451
0
460
0.0
461
0.0
452
0
462
0.0
453
0
470

  0
LINE
  5
3B
330
31
100
AcDbEntity
  8
OBJ1
 62
19
370
15
 60
1
100
AcDbLine
 10
3.615173999569376
 20
-1.232026958605274
 30
0.0
 11
0.0
 21
4.451501763163832
 31
0.0
  0
LINE
  5
3C
330
31
100
AcDbEntity
  8
OBJ1
 62
19
370
15
 60
1
100
AcDbLine
 10
0.0
 20
4.451501763163832
 30
0.0
 11
-3.615173999511171
 21
-1.232026958605274
 31
0.0
  0
CIRCLE
  5
3D
330
31
100
AcDbEntity
  8
OBJ1
 62
19
370
15
 60
1
100
AcDbCircle
 10
0.0
 20
-7.691375219961627
 30
0.0
 40
3.0
  0
LINE
  5
3E
330
31
100
AcDbEntity
  8
OBJ1
 62
0
370
15
 60
1
100
AcDbLine
 10
0.0
 20
-4.691375219961627
 30
0.0
 11
-5.82077e-11
 21
4.451501763163832
 31
0.0
  0
LINE
  5
3F
330
31
100
AcDbEntity
  8
OBJ1
  6
ByBlock
 62
3
100
AcDbLine
 10
25.0
 20
-21.14287698312546
 30
0.0
 11
25.0
 21
-18.14287698312546
 31
0.0
  0
LINE
  5
40
330
31
100
AcDbEntity
  8
OBJ1
 62
19
370
15
100
AcDbLine
 10
-23.5
 20
26.5
 30
0.0
 11
23.5
 21
26.5
 31
0.0
  0
LINE
  5
41
330
31
100
AcDbEntity
  8
OBJ1
 62
19
370
15
100
AcDbLine
 10
-23.5
 20
26.5
 30
0.0
 11
-23.5
 21
17.5
 31
0.0
  0
LINE
  5
42
330
31
100
AcDbEntity
  8
OBJ1
 62
19
370
15
100
AcDbLine
 10
23.5
 20
26.5
 30
0.0
 11
23.5
 21
17.5
 31
0.0
  0
LINE
  5
43
330
31
100
AcDbEntity
  8
OBJ1
 62
19
370
15
100
AcDbLine
 10
-23.5
 20
26.5
 30
0.0
 11
23.5
 21
26.5
 31
0.0
  0
LINE
  5
44
330
31
100
AcDbEntity
  8
OBJ1
 62
19
370
15
100
AcDbLine
 10
23.5
 20
26.5
 30
0.0
 11
23.5
 21
17.5
 31
0.0
  0
LINE
  5
45
330
31
100
AcDbEntity
  8
OBJ1
 62
19
370
15
100
AcDbLine
 10
-23.5
 20
17.5
 30
0.0
 11
-23.5
 21
26.5
 31
0.0
  0
MTEXT
  5
46
330
31
100
AcDbEntity
  8
OBJ1
  6
ByBlock
 62
250
370
18
420
3552822
100
AcDbMText
 10
-3.374297218164428
 20
10.99137656000675
 30
0.0
 40
3.0
 41
9.599390539995511
 46
0.0
 71
1
 72
5
  1
OFF
  7
HTXT1
  0
HATCH
  5
47
330
31
100
AcDbEntity
  8
OBJ1
 62
250
370
15
 60
1
100
AcDbHatch
 10
0.0
 20
0.0
 30
0.0
210
0.0
220
0.0
230
1.0
  2
SOLID
 70
1
 71
0
 91
3
 92
7
 72
0
 73
1
 93
4
 10
25.0
 20
37.0
 10
-25.0
 20
37.0
 10
-25.0
 20
-25.0
 10
25.0
 20
-25.0
 97
0
 92
22
 72
0
 73
1
 93
4
 10
23.5
 20
-23.5
 10
-23.5
 20
-23.5
 10
-23.5
 20
25.0
 10
23.5
 20
25.0
 97
0
 92
22
 72
0
 73
1
 93
4
 10
23.50000000002911
 20
26.50000000000364
 10
-23.5
 20
26.5
 10
-23.5
 20
35.5
 10
23.5
 20
35.5
 97
0
 75
0
 76
1
 47
0.1619558545051125
 98
4
 10
24.39316469803453
 20
13.33505126234377
 10
24.39316469803453
 20
13.33505126234377
 10
24.39316469803453
 20
13.33505126234377
 10
4.779194198024922
 20
1.674361332348779
450
0
451
0
460
0.0
461
0.0
452
0
462
0.0
453
0
470

  0
LINE
  5
48
330
31
100
AcDbEntity
  8
OBJ1
 62
19
370
15
 60
1
100
AcDbLine
 10
-25.0
 20
37.0
 30
0.0
 11
-25.0
 21
-25.0
 31
0.0
  0
LINE
  5
49
330
31
100
AcDbEntity
  8
OBJ1
 62
19
370
15
 60
1
100
AcDbLine
 10
25.0
 20
37.0
 30
0.0
 11
25.0
 21
-25.0
 31
0.0
  0
HATCH
  5
4A
330
31
100
AcDbEntity
  8
OBJ1
 62
9
370
15
 60
1
420
12763824
100
AcDbHatch
 10
0.0
 20
0.0
 30
0.0
210
0.0
220
0.0
230
1.0
  2
SOLID
 70
1
 71
0
 91
2
 92
7
 72
0
 73
1
 93
4
 10
23.5
 20
25.0
 10
-23.5
 20
25.0
 10
-23.5
 20
-23.5
 10
23.5
 20
-23.5
 97
0
 92
22
 72
1
 73
1
 93
2
 10
12.14287698312546
 20
0.0
 42
-1.0
 10
-12.14287698312546
 20
0.0
 42
-1.0
 97
0
 75
0
 76
1
 47
0.2283841455202729
 98
3
 10
17.47705571801634
 20
12.2947826423333
 10
17.47705571801634
 20
12.2947826423333
 10
5.361930918006691
 20
31.4791944323224
450
0
451
0
460
0.0
461
0.0
452
0
462
0.0
453
0
470

  0
HATCH
  5
4B
330
31
100
AcDbEntity
  8
OBJ1
 62
9
370
15
 60
1
420
12763824
100
AcDbHatch
 10
0.0
 20
0.0
 30
0.0
210
0.0
220
0.0
230
1.0
  2
SOLID
 70
1
 71
0
 91
1
 92
7
 72
0
 73
1
 93
4
 10
-23.5
 20
26.5
 10
23.5
 20
26.5
 10
23.5
 20
35.5
 10
-23.5
 20
35.5
 97
0
 75
0
 76
1
 47
0.2283841455202729
 98
3
 10
17.47705571801634
 20
12.2947826423333
 10
17.47705571801634
 20
12.2947826423333
 10
5.361930918006691
 20
31.4791944323224
450
0
451
0
460
0.0
461
0.0
452
0
462
0.0
453
0
470

  0
LINE
  5
4C
330
31
100
AcDbEntity
  8
OBJ1
 62
19
370
15
 60
1
100
AcDbLine
 10
-23.5
 20
25.0
 30
0.0
 11
-23.5
 21
-23.5
 31
0.0
  0
LINE
  5
4D
330
31
100
AcDbEntity
  8
OBJ1
 62
19
370
15
 60
1
100
AcDbLine
 10
23.5
 20
25.0
 30
0.0
 11
23.5
 21
-23.5
 31
0.0
  0
LINE
  5
4E
330
31
100
AcDbEntity
  8
OBJ1
 62
19
370
15
 60
1
100
AcDbLine
 10
-25.0
 20
37.0
 30
0.0
 11
25.0
 21
37.0
 31
0.0
  0
LINE
  5
4F
330
31
100
AcDbEntity
  8
OBJ1
 62
19
370
15
 60
1
100
AcDbLine
 10
-23.5
 20
35.5
 30
0.0
 11
23.5
 21
35.5
 31
0.0
  0
LINE
  5
50
330
31
100
AcDbEntity
  8
OBJ1
 62
19
370
15
 60
1
100
AcDbLine
 10
-23.5
 20
26.5
 30
0.0
 11
23.5
 21
26.5
 31
0.0
  0
LINE
  5
51
330
31
100
AcDbEntity
  8
OBJ1
 62
19
370
15
 60
1
100
AcDbLine
 10
-23.5
 20
-23.5
 30
0.0
 11
23.5
 21
-23.5
 31
0.0
  0
LINE
  5
52
330
31
100
AcDbEntity
  8
OBJ1
 62
19
370
15
 60
1
100
AcDbLine
 10
-25.0
 20
-25.0
 30
0.0
 11
25.0
 21
-25.0
 31
0.0
  0
LINE
  5
53
330
31
100
AcDbEntity
  8
OBJ1
 62
19
370
15
 60
1
100
AcDbLine
 10
-23.5
 20
35.5
 30
0.0
 11
-23.5
 21
26.5
 31
0.0
  0
LINE
  5
54
330
31
100
AcDbEntity
  8
OBJ1
 62
19
370
15
 60
1
100
AcDbLine
 10
-23.5
 20
25.0
 30
0.0
 11
23.5
 21
25.0
 31
0.0
  0
LINE
  5
55
330
31
100
AcDbEntity
  8
OBJ1
 62
19
370
15
 60
1
100
AcDbLine
 10
23.5
 20
35.5
 30
0.0
 11
23.5
 21
26.5
 31
0.0
  0
CIRCLE
  5
56
330
31
100
AcDbEntity
  8
OBJ1
 62
19
370
15
 60
1
100
AcDbCircle
 10
0.0
 20
0.0
 30
0.0
 40
12.14287698312546
  0
LINE
  5
57
330
31
100
AcDbEntity
  8
OBJ1
 62
19
370
15
 60
1
100
AcDbLine
 10
-23.5
 20
25.0
 30
0.0
 11
23.5
 21
25.0
 31
0.0
  0
LINE
  5
58
330
31
100
AcDbEntity
  8
OBJ1
 62
19
370
15
 60
1
100
AcDbLine
 10
23.5
 20
25.0
 30
0.0
 11
23.5
 21
-23.5
 31
0.0
  0
LINE
  5
59
330
31
100
AcDbEntity
  8
OBJ1
 62
19
370
15
 60
1
100
AcDbLine
 10
23.5
 20
-23.5
 30
0.0
 11
-23.5
 21
-23.5
 31
0.0
  0
LINE
  5
5A
330
31
100
AcDbEntity
  8
OBJ1
 62
19
370
15
 60
1
100
AcDbLine
 10
-23.5
 20
-23.5
 30
0.0
 11
-23.5
 21
25.0
 31
0.0
  0
LINE
  5
5B
330
31
100
AcDbEntity
  8
OBJ1
 62
19
370
15
 60
1
100
AcDbLine
 10
-23.5
 20
35.5
 30
0.0
 11
23.5
 21
35.5
 31
0.0
  0
LINE
  5
5C
330
31
100
AcDbEntity
  8
OBJ1
 62
19
370
15
 60
1
100
AcDbLine
 10
23.5
 20
35.5
 30
0.0
 11
23.5
 21
26.5
 31
0.0
  0
LINE
  5
5D
330
31
100
AcDbEntity
  8
OBJ1
 62
19
370
15
 60
1
100
AcDbLine
 10
23.5
 20
26.5
 30
0.0
 11
-23.5
 21
26.5
 31
0.0
  0
LINE
  5
5E
330
31
100
AcDbEntity
  8
OBJ1
 62
19
370
15
 60
1
100
AcDbLine
 10
-23.5
 20
26.5
 30
0.0
 11
-23.5
 21
35.5
 31
0.0
  0
HATCH
  5
5F
330
31
100
AcDbEntity
  8
OBJ1
 62
250
370
15
 60
1
100
AcDbHatch
 10
0.0
 20
0.0
 30
0.0
210
0.0
220
0.0
230
1.0
  2
SOLID
 70
1
 71
0
 91
1
 92
7
 72
1
 73
1
 93
5
 10
0.0
 20
12.14287698312546
 42
0.0
 10
3.615173999569376
 20
6.459348261385457
 42
0.0
 10
3.0
 20
-1.74623e-10
 42
-0.0475113991151647
 10
2.946067767712517
 20
-0.5662903037446086
 42
0.0
 10
1.857144735433394
 20
-12.00001978577347
 42
0.9260311840062136
 97
0
 75
0
 76
1
 47
0.1144384454788031
 98
1
 10
8.121797508036254
 20
2.302877202339002
450
0
451
0
460
0.0
461
0.0
452
0
462
0.0
453
0
470

  0
HATCH
  5
60
330
31
100
AcDbEntity
  8
OBJ1
 62
250
370
15
 60
1
100
AcDbHatch
 10
0.0
 20
0.0
 30
0.0
210
0.0
220
0.0
230
1.0
  2
SOLID
 70
1
 71
0
 91
1
 92
7
 72
1
 73
1
 93
5
 10
-1.85714473540429
 20
-12.00001978577347
 42
0.0
 10
-2.946067767596101
 20
-0.56629030421027
 42
-0.047511399192574
 10
-3.0
 20
2.619345e-10
 42
0.0
 10
-3.615173999511171
 20
6.459348261385457
 42
0.0
 10
-1.164153e-10
 20
12.14287698297994
 42
0.9260311839993423
 97
0
 75
0
 76
1
 47
0.1144384454788031
 98
1
 10
-8.715333491971247
 20
4.019485662342049
450
0
451
0
460
0.0
461
0.0
452
0
462
0.0
453
0
470

  0
HATCH
  5
61
330
31
100
AcDbEntity
  8
OBJ1
 62
250
370
15
 60
1
420
1842204
100
AcDbHatch
 10
0.0
 20
0.0
 30
0.0
210
0.0
220
0.0
230
1.0
  2
SOLID
 70
1
 71
0
 91
1
 92
7
 72
1
 73
1
 93
4
 10
1.857144735433394
 20
-12.00001978577347
 42
13.00000818907002
 10
-1.85714473540429
 20
-12.00001978577347
 42
0.0
 10
-1.0
 20
-21.00006913865218
 42
0.0
 10
1.0
 20
-21.00006913865218
 42
0.0
 97
0
 75
0
 76
1
 47
0.1449938966174611
 98
4
 10
1.336521407996769
 20
5.298874142346902
 10
-0.9321914719766935
 20
5.298874142346902
 10
-0.4360873319674285
 20
-7.445825837668962
 10
-0.1457797719631344
 20
-16.43537190766074
450
0
451
0
460
0.0
461
0.0
452
0
462
0.0
453
0
470

  0
HATCH
  5
62
330
31
100
AcDbEntity
  8
OBJ1
 62
251
370
15
 60
1
420
5855577
100
AcDbHatch
 10
0.0
 20
0.0
 30
0.0
210
0.0
220
0.0
230
1.0
  2
SOLID
 70
1
 71
0
 91
1
 92
7
 72
1
 73
1
 93
4
 10
3.615173999511171
 20
6.459348261385457
 42
0.0
 10
-5.82077e-11
 20
12.14287698318367
 42
0.0
 10
-5.82077e-11
 20
3.0
 42
-0.4142135623951165
 10
3.0
 20
-2.037268e-10
 42
0.0
 97
0
 75
0
 76
1
 47
0.0907530172219409
 98
6
 10
1.416081948031204
 20
5.624699262320063
 10
-0.8547525519970804
 20
5.624699262320063
 10
1.597833567997438
 20
-6.264029367652255
 10
-1.127379981975534
 20
-6.264029367652255
 10
0.6894290479831398
 20
-14.97635191766312
 10
-0.9456283620093016
 20
-14.79477634766954
450
0
451
0
460
0.0
461
0.0
452
0
462
0.0
453
0
470

  0
HATCH
  5
63
330
31
100
AcDbEntity
  8
OBJ1
 62
251
370
15
 60
1
420
5855577
100
AcDbHatch
 10
0.0
 20
0.0
 30
0.0
210
0.0
220
0.0
230
1.0
  2
SOLID
 70
1
 71
0
 91
1
 92
7
 72
1
 73
1
 93
4
 10
0.0
 20
-12.14287698312546
 42
-0.0384047862840253
 10
-1.857144735462495
 20
-12.00001978577347
 42
0.0
 10
-1.000000000058204
 20
-21.00006913865218
 42
0.0
 10
0.0
 20
-21.00006913865218
 42
0.0
 97
0
 75
0
 76
1
 47
0.0907530172219409
 98
6
 10
1.416081948031204
 20
5.624699262320063
 10
-0.8547525519970804
 20
5.624699262320063
 10
1.597833567997438
 20
-6.264029367652255
 10
-1.127379981975534
 20
-6.264029367652255
 10
0.6894290479831398
 20
-14.97635191766312
 10
-0.9456283620093016
 20
-14.79477634766954
450
0
451
0
460
0.0
461
0.0
452
0
462
0.0
453
0
470

  0
HATCH
  5
64
330
31
100
AcDbEntity
  8
OBJ1
 62
251
370
15
 60
1
420
5855577
100
AcDbHatch
 10
0.0
 20
0.0
 30
0.0
210
0.0
220
0.0
230
1.0
  2
SOLID
 70
1
 71
0
 91
1
 92
7
 72
1
 73
1
 93
4
 10
1.85714473540429
 20
-12.00001978577347
 42
-0.0384047862843253
 10
0.0
 20
-12.14287698312546
 42
0.0
 10
0.0
 20
-21.00006913865218
 42
0.0
 10
1.0
 20
-21.00006913865218
 42
0.0
 97
0
 75
0
 76
1
 47
0.0907530172219409
 98
6
 10
1.416081948031204
 20
5.624699262320063
 10
-0.8547525519970804
 20
5.624699262320063
 10
1.597833567997438
 20
-6.264029367652255
 10
-1.127379981975534
 20
-6.264029367652255
 10
0.6894290479831398
 20
-14.97635191766312
 10
-0.9456283620093016
 20
-14.79477634766954
450
0
451
0
460
0.0
461
0.0
452
0
462
0.0
453
0
470

  0
HATCH
  5
65
330
31
100
AcDbEntity
  8
OBJ1
 62
251
370
15
 60
1
420
5855577
100
AcDbHatch
 10
0.0
 20
0.0
 30
0.0
210
0.0
220
0.0
230
1.0
  2
SOLID
 70
1
 71
0
 91
1
 92
7
 72
1
 73
1
 93
4
 10
0.0
 20
-3.0
 42
-0.3596247954553621
 10
-2.946067767625208
 20
-0.566290304181166
 42
0.0
 10
-1.857144735462495
 20
-12.00001978577347
 42
0.0384047862840137
 10
0.0
 20
-12.14287698312546
 42
0.0
 97
0
 75
0
 76
1
 47
0.0907530172219409
 98
6
 10
1.416081948031204
 20
5.624699262320063
 10
-0.8547525519970804
 20
5.624699262320063
 10
1.597833567997438
 20
-6.264029367652255
 10
-1.127379981975534
 20
-6.264029367652255
 10
0.6894290479831398
 20
-14.97635191766312
 10
-0.9456283620093016
 20
-14.79477634766954
450
0
451
0
460
0.0
461
0.0
452
0
462
0.0
453
0
470

  0
HATCH
  5
66
330
31
100
AcDbEntity
  8
OBJ1
 62
251
370
15
 60
1
420
5855577
100
AcDbHatch
 10
0.0
 20
0.0
 30
0.0
210
0.0
220
0.0
230
1.0
  2
SOLID
 70
1
 71
0
 91
1
 92
7
 72
1
 73
1
 93
4
 10
2.946067767683416
 20
-0.566290303657297
 42
-0.3596247955051104
 10
0.0
 20
-3.0
 42
0.0
 10
0.0
 20
-12.14287698312546
 42
0.0384047862843253
 10
1.85714473540429
 20
-12.00001978577347
 42
0.0
 97
0
 75
0
 76
1
 47
0.0907530172219409
 98
6
 10
1.416081948031204
 20
5.624699262320063
 10
-0.8547525519970804
 20
5.624699262320063
 10
1.597833567997438
 20
-6.264029367652255
 10
-1.127379981975534
 20
-6.264029367652255
 10
0.6894290479831398
 20
-14.97635191766312
 10
-0.9456283620093016
 20
-14.79477634766954
450
0
451
0
460
0.0
461
0.0
452
0
462
0.0
453
0
470

  0
HATCH
  5
67
330
31
100
AcDbEntity
  8
OBJ1
 62
251
370
15
 60
1
420
5855577
100
AcDbHatch
 10
0.0
 20
0.0
 30
0.0
210
0.0
220
0.0
230
1.0
  2
SOLID
 70
1
 71
0
 91
1
 92
7
 72
1
 73
1
 93
4
 10
0.0
 20
12.14287698315456
 42
0.0
 10
-3.615173999511171
 20
6.459348261356352
 42
0.0
 10
-3.0
 20
2.619345e-10
 42
-0.4142135623468118
 10
-5.82077e-11
 20
3.0
 42
0.0
 97
0
 75
0
 76
1
 47
0.0907530172219409
 98
6
 10
1.416081948031204
 20
5.624699262320063
 10
-0.8547525519970804
 20
5.624699262320063
 10
1.597833567997438
 20
-6.264029367652255
 10
-1.127379981975534
 20
-6.264029367652255
 10
0.6894290479831398
 20
-14.97635191766312
 10
-0.9456283620093016
 20
-14.79477634766954
450
0
451
0
460
0.0
461
0.0
452
0
462
0.0
453
0
470

  0
ARC
  5
68
330
31
100
AcDbEntity
  8
OBJ1
 62
19
370
15
 60
1
100
AcDbCircle
 10
0.0
 20
0.0
 30
0.0
 40
12.14287698312546
100
AcDbArc
 50
278.7974051901996
 51
261.2025948098004
  0
HATCH
  5
69
330
31
100
AcDbEntity
  8
OBJ1
 62
251
370
15
 60
1
420
6184542
100
AcDbHatch
 10
0.0
 20
0.0
 30
0.0
210
0.0
220
0.0
230
1.0
  2
SOLID
 70
1
 71
0
 91
1
 92
7
 72
1
 73
1
 93
4
 10
-3.0
 20
2.619345e-10
 42
0.0
 10
-2.946067767625208
 20
-0.566290304181166
 42
0.8260874793167513
 10
2.946067767712517
 20
-0.5662903037446086
 42
0.0
 10
3.0
 20
-3.201421e-10
 42
1.0
 97
0
 75
0
 76
1
 47
0.0905376747545513
 98
1
 10
-1.255737652012612
 20
2.275077092344872
450
0
451
0
460
0.0
461
0.0
452
0
462
0.0
453
0
470

  0
LINE
  5
6A
330
31
100
AcDbEntity
  8
OBJ1
 62
19
370
15
 60
1
100
AcDbLine
 10
3.615173999569376
 20
6.459348261356352
 30
0.0
 11
1.0
 21
-21.00006913865218
 31
0.0
  0
LINE
  5
6B
330
31
100
AcDbEntity
  8
OBJ1
 62
19
370
15
 60
1
100
AcDbLine
 10
3.615173999569376
 20
6.459348261356352
 30
0.0
 11
0.0
 21
12.14287698312546
 31
0.0
  0
LINE
  5
6C
330
31
100
AcDbEntity
  8
OBJ1
 62
19
370
15
 60
1
100
AcDbLine
 10
0.0
 20
12.14287698312546
 30
0.0
 11
-3.615173999511171
 21
6.459348261356352
 31
0.0
  0
LINE
  5
6D
330
31
100
AcDbEntity
  8
OBJ1
 62
19
370
15
 60
1
100
AcDbLine
 10
-3.615173999511171
 20
6.459348261356352
 30
0.0
 11
-1.0
 21
-21.00006913865218
 31
0.0
  0
LINE
  5
6E
330
31
100
AcDbEntity
  8
OBJ1
 62
19
370
15
 60
1
100
AcDbLine
 10
-1.0
 20
-21.00006913865218
 30
0.0
 11
1.0
 21
-21.00006913865218
 31
0.0
  0
CIRCLE
  5
6F
330
31
100
AcDbEntity
  8
OBJ1
 62
19
370
15
 60
1
100
AcDbCircle
 10
0.0
 20
0.0
 30
0.0
 40
3.0
  0
LINE
  5
70
330
31
100
AcDbEntity
  8
OBJ1
 62
19
370
15
 60
1
100
AcDbLine
 10
0.0
 20
-3.0
 30
0.0
 11
0.0
 21
-21.00006913865218
 31
0.0
  0
LINE
  5
71
330
31
100
AcDbEntity
  8
OBJ1
 62
0
370
15
 60
1
100
AcDbLine
 10
0.0
 20
3.0
 30
0.0
 11
-5.82077e-11
 21
12.14287698312546
 31
0.0
  0
MTEXT
  5
72
330
31
100
AcDbEntity
  8
OBJ1
 62
19
370
25
 60
1
420
3086360
100
AcDbMText
 10
-14.00119792000623
 20
32.9951754923386
 30
0.0
 40
4.0
 41
34.90395350803737
 46
0.0
 71
1
 72
5
  1
VOLT METER
  7
HTXT1
  0
MTEXT
  5
73
330
31
100
AcDbEntity
  8
OBJ1
  6
ByBlock
 62
250
370
18
 60
1
420
3552822
100
AcDbMText
 10
12.18676153785782
 20
-9.142876983125461
 30
0.0
 40
3.0
 41
12.81323846217128
 46
0.0
 71
1
 72
5
  1
T-N
  7
HTXT1
  0
MTEXT
  5
74
330
31
100
AcDbEntity
  8
OBJ1
  6
ByBlock
 62
250
370
18
 60
1
420
3552822
100
AcDbMText
 10
14.5622248853906
 20
1.5
 30
0.0
 40
3.0
 41
11.9679034777655
 46
0.0
 71
1
 72
5
  1
S-N
  7
HTXT1
  0
MTEXT
  5
75
330
31
100
AcDbEntity
  8
OBJ1
  6
ByBlock
 62
250
370
18
 60
1
420
3552822
100
AcDbMText
 10
11.26632076082751
 20
12.27286768480553
 30
0.0
 40
3.0
 41
15.97303621919127
 46
0.0
 71
1
 72
5
  1
R-N
  7
HTXT1
  0
MTEXT
  5
76
330
31
100
AcDbEntity
  8
OBJ1
  6
ByBlock
 62
250
370
18
 60
1
420
3552822
100
AcDbMText
 10
-18.50187444180483
 20
-9.139765839994652
 30
0.0
 40
3.0
 41
22.0
 46
0.0
 71
1
 72
5
  1
R-S
  7
HTXT1
  0
MTEXT
  5
77
330
31
100
AcDbEntity
  8
OBJ1
  6
ByBlock
 62
250
370
18
 60
1
420
3552822
100
AcDbMText
 10
-21.43635679996805
 20
1.494170194811885
 30
0.0
 40
3.0
 41
12.91185369013692
 46
0.0
 71
1
 72
5
  1
S-T
  7
HTXT1
  0
MTEXT
  5
78
330
31
100
AcDbEntity
  8
OBJ1
  6
ByBlock
 62
250
370
18
 60
1
420
3552822
100
AcDbMText
 10
-17.00968854001257
 20
12.26630454999394
 30
0.0
 40
3.0
 41
25.0
 46
0.0
 71
1
 72
5
  1
R-T
  7
HTXT1
  0
MTEXT
  5
79
330
31
100
AcDbEntity
  8
OBJ1
  6
ByBlock
 62
250
370
18
 60
1
420
3552822
100
AcDbMText
 10
-3.374297218164428
 20
19.99137656000675
 30
0.0
 40
3.0
 41
9.599390539995511
 46
0.0
 71
1
 72
5
  1
OFF
  7
HTXT1
  0
HATCH
  5
7A
330
31
100
AcDbEntity
  8
OBJ1
 62
250
370
15
100
AcDbHatch
 10
0.0
 20
0.0
 30
0.0
210
0.0
220
0.0
230
1.0
  2
SOLID
 70
1
 71
0
 91
2
 92
7
 72
0
 73
1
 93
4
 10
25.0
 20
37.0
 10
-25.0
 20
37.0
 10
-25.0
 20
-25.0
 10
25.0
 20
-25.0
 97
0
 92
22
 72
0
 73
1
 93
4
 10
23.5
 20
-23.5
 10
-23.5
 20
-23.5
 10
-23.5
 20
25.0
 10
23.5
 20
25.0
 97
0
 75
0
 76
1
 47
0.14414000391715
 98
3
 10
24.11042037000881
 20
21.44801890233066
 10
24.11042037000881
 20
21.44801890233066
 10
3.913359539990778
 20
1.556745462323305
450
0
451
0
460
0.0
461
0.0
452
0
462
0.0
453
0
470

  0
LINE
  5
7B
330
31
100
AcDbEntity
  8
OBJ1
 62
19
370
15
100
AcDbLine
 10
-25.0
 20
37.0
 30
0.0
 11
-25.0
 21
-25.0
 31
0.0
  0
LINE
  5
7C
330
31
100
AcDbEntity
  8
OBJ1
 62
19
370
15
100
AcDbLine
 10
25.0
 20
37.0
 30
0.0
 11
25.0
 21
-25.0
 31
0.0
  0
HATCH
  5
7D
330
31
100
AcDbEntity
  8
OBJ1
 62
9
370
15
420
12763824
100
AcDbHatch
 10
0.0
 20
0.0
 30
0.0
210
0.0
220
0.0
230
1.0
  2
SOLID
 70
1
 71
0
 91
1
 92
7
 72
0
 73
1
 93
4
 10
-23.5
 20
25.0
 10
-23.5
 20
-23.5
 10
23.5
 20
-23.5
 10
23.5
 20
25.0
 97
0
 75
0
 76
1
 47
0.2283841455202729
 98
2
 10
12.85419575998093
 20
18.68958657231997
 10
8.51125131000299
 20
31.93585505231749
450
0
451
0
460
0.0
461
0.0
452
0
462
0.0
453
0
470

  0
HATCH
  5
7E
330
31
100
AcDbEntity
  8
OBJ1
 62
9
370
15
420
12763824
100
AcDbHatch
 10
0.0
 20
0.0
 30
0.0
210
0.0
220
0.0
230
1.0
  2
SOLID
 70
1
 71
0
 91
1
 92
7
 72
0
 73
1
 93
4
 10
-23.5
 20
26.5
 10
23.5
 20
26.5
 10
23.5
 20
35.5
 10
-23.5
 20
35.5
 97
0
 75
0
 76
1
 47
0.2283841455202729
 98
3
 10
12.85419575998093
 20
18.68958657231997
 10
12.85419575998093
 20
18.68958657231997
 10
8.51125131000299
 20
31.93585505231749
450
0
451
0
460
0.0
461
0.0
452
0
462
0.0
453
0
470

  0
LINE
  5
7F
330
31
100
AcDbEntity
  8
OBJ1
 62
19
370
15
100
AcDbLine
 10
-23.5
 20
25.0
 30
0.0
 11
-23.5
 21
-23.5
 31
0.0
  0
LINE
  5
80
330
31
100
AcDbEntity
  8
OBJ1
 62
19
370
15
100
AcDbLine
 10
23.5
 20
25.0
 30
0.0
 11
23.5
 21
-23.5
 31
0.0
  0
LINE
  5
81
330
31
100
AcDbEntity
  8
OBJ1
 62
19
370
15
100
AcDbLine
 10
-25.0
 20
37.0
 30
0.0
 11
25.0
 21
37.0
 31
0.0
  0
LINE
  5
82
330
31
100
AcDbEntity
  8
OBJ1
 62
19
370
15
100
AcDbLine
 10
-23.5
 20
35.5
 30
0.0
 11
23.5
 21
35.5
 31
0.0
  0
LINE
  5
83
330
31
100
AcDbEntity
  8
OBJ1
 62
19
370
15
100
AcDbLine
 10
-23.5
 20
26.5
 30
0.0
 11
23.5
 21
26.5
 31
0.0
  0
LINE
  5
84
330
31
100
AcDbEntity
  8
OBJ1
 62
19
370
15
100
AcDbLine
 10
-23.5
 20
-23.5
 30
0.0
 11
23.5
 21
-23.5
 31
0.0
  0
LINE
  5
85
330
31
100
AcDbEntity
  8
OBJ1
 62
19
370
15
100
AcDbLine
 10
-25.0
 20
-25.0
 30
0.0
 11
25.0
 21
-25.0
 31
0.0
  0
LINE
  5
86
330
31
100
AcDbEntity
  8
OBJ1
 62
19
370
15
100
AcDbLine
 10
-23.5
 20
35.5
 30
0.0
 11
-23.5
 21
26.5
 31
0.0
  0
LINE
  5
87
330
31
100
AcDbEntity
  8
OBJ1
 62
19
370
15
100
AcDbLine
 10
-23.5
 20
25.0
 30
0.0
 11
23.5
 21
25.0
 31
0.0
  0
LINE
  5
88
330
31
100
AcDbEntity
  8
OBJ1
 62
19
370
15
100
AcDbLine
 10
23.5
 20
35.5
 30
0.0
 11
23.5
 21
26.5
 31
0.0
  0
ARC
  5
89
330
31
100
AcDbEntity
  8
OBJ1
 62
19
370
15
100
AcDbCircle
 10
0.0
 20
0.0
 30
0.0
 40
12.14287698312546
100
AcDbArc
 50
8.797405190199473
 51
351.2025948098005
  0
LINE
  5
8A
330
31
100
AcDbEntity
  8
OBJ1
 62
19
370
15
100
AcDbLine
 10
-23.5
 20
35.5
 30
0.0
 11
23.5
 21
35.5
 31
0.0
  0
LINE
  5
8B
330
31
100
AcDbEntity
  8
OBJ1
 62
19
370
15
100
AcDbLine
 10
23.5
 20
35.5
 30
0.0
 11
23.5
 21
26.5
 31
0.0
  0
LINE
  5
8C
330
31
100
AcDbEntity
  8
OBJ1
 62
19
370
15
100
AcDbLine
 10
23.5
 20
26.5
 30
0.0
 11
-23.5
 21
26.5
 31
0.0
  0
LINE
  5
8D
330
31
100
AcDbEntity
  8
OBJ1
 62
19
370
15
100
AcDbLine
 10
-23.5
 20
26.5
 30
0.0
 11
-23.5
 21
35.5
 31
0.0
  0
LINE
  5
8E
330
31
100
AcDbEntity
  8
OBJ1
 62
19
370
15
100
AcDbLine
 10
-23.5
 20
25.0
 30
0.0
 11
23.5
 21
25.0
 31
0.0
  0
LINE
  5
8F
330
31
100
AcDbEntity
  8
OBJ1
 62
19
370
15
100
AcDbLine
 10
23.5
 20
25.0
 30
0.0
 11
23.5
 21
-23.5
 31
0.0
  0
LINE
  5
90
330
31
100
AcDbEntity
  8
OBJ1
 62
19
370
15
100
AcDbLine
 10
23.5
 20
-23.5
 30
0.0
 11
-23.5
 21
-23.5
 31
0.0
  0
LINE
  5
91
330
31
100
AcDbEntity
  8
OBJ1
 62
19
370
15
100
AcDbLine
 10
-23.5
 20
-23.5
 30
0.0
 11
-23.5
 21
25.0
 31
0.0
  0
HATCH
  5
92
330
31
100
AcDbEntity
  8
OBJ1
 62
250
370
15
420
3355443
100
AcDbHatch
 10
0.0
 20
0.0
 30
0.0
210
0.0
220
0.0
230
1.0
  2
SOLID
 70
1
 71
0
 91
1
 92
7
 72
1
 73
1
 93
5
 10
-12.14287698324187
 20
-8.73115e-11
 42
0.0
 10
-6.459348261239937
 20
3.615173999511171
 42
0.0
 10
-1.74623e-10
 20
3.0
 42
-0.0475113991602068
 10
0.5662903039192316
 20
2.946067767654312
 42
0.0
 10
12.00001978577347
 20
1.857144735433394
 42
0.9260311840056523
 97
0
 75
0
 76
1
 47
0.1026985424242202
 98
2
 10
0.1517373999813572
 20
8.001511842332548
 10
3.029707189998589
 20
-8.430299817671767
450
0
451
0
460
0.0
461
0.0
452
0
462
0.0
453
0
470

  0
HATCH
  5
93
330
31
100
AcDbEntity
  8
OBJ1
 62
250
370
15
420
3355443
100
AcDbHatch
 10
0.0
 20
0.0
 30
0.0
210
0.0
220
0.0
230
1.0
  2
SOLID
 70
1
 71
0
 91
1
 92
7
 72
1
 73
1
 93
5
 10
-12.14287698312546
 20
0.0
 42
0.9260311839910468
 10
12.00001978574437
 20
-1.85714473540429
 42
0.0
 10
0.5662903039192316
 20
-2.946067767654312
 42
-0.0475113991421929
 10
2.91038e-11
 20
-3.0
 42
0.0
 10
-6.459348261269042
 20
-3.615173999540274
 42
0.0
 97
0
 75
0
 76
1
 47
0.1026985424242202
 98
2
 10
0.1517373999813572
 20
8.001511842332548
 10
3.029707189998589
 20
-8.430299817671767
450
0
451
0
460
0.0
461
0.0
452
0
462
0.0
453
0
470

  0
ARC
  5
94
330
31
100
AcDbEntity
  8
OBJ1
 62
19
370
15
100
AcDbCircle
 10
0.0
 20
0.0
 30
0.0
 40
12.14287698312546
100
AcDbArc
 50
8.797405190199473
 51
351.2025948098005
  0
HATCH
  5
95
330
31
100
AcDbEntity
  8
OBJ1
 62
251
370
15
420
6184542
100
AcDbHatch
 10
0.0
 20
0.0
 30
0.0
210
0.0
220
0.0
230
1.0
  2
SOLID
 70
1
 71
0
 91
1
 92
7
 72
1
 73
1
 93
6
 10
3.0
 20
0.0
 42
0.3596247954814271
 10
0.5662903039192316
 20
2.946067767683416
 42
0.0
 10
0.0
 20
3.0
 42
0.4142135623730951
 10
-3.0
 20
0.0
 42
0.4142135623759365
 10
2.91038e-11
 20
-3.0
 42
0.0
 10
0.5662903039192316
 20
-2.946067767654312
 42
0.3596247954817695
 97
0
 75
0
 76
1
 47
0.0571401516771486
 98
1
 10
0.2337731599691324
 20
-0.1425608276913408
450
0
451
0
460
0.0
461
0.0
452
0
462
0.0
453
0
470

  0
HATCH
  5
96
330
31
100
AcDbEntity
  8
OBJ1
 62
251
370
15
420
5395026
100
AcDbHatch
 10
0.0
 20
0.0
 30
0.0
210
0.0
220
0.0
230
1.0
  2
SOLID
 70
1
 71
0
 91
1
 92
7
 72
1
 73
1
 93
4
 10
2.91038e-11
 20
3.0
 42
0.0
 10
-6.459348261327249
 20
3.615173999540274
 42
0.0
 10
-12.14287698318367
 20
-2.91038e-11
 42
0.0
 10
-3.0
 20
-2.91038e-11
 42
-0.4142135623787779
 97
0
 75
0
 76
1
 47
0.0571401516771486
 98
4
 10
-4.169990900030825
 20
1.742986792320149
 10
-5.027830280014313
 20
-1.285476017685139
 10
6.410145959991495
 20
-1.399786977679468
 10
6.353215969982556
 20
1.343092842318583
450
0
451
0
460
0.0
461
0.0
452
0
462
0.0
453
0
470

  0
HATCH
  5
97
330
31
100
AcDbEntity
  8
OBJ1
 62
251
370
15
420
5395026
100
AcDbHatch
 10
0.0
 20
0.0
 30
0.0
210
0.0
220
0.0
230
1.0
  2
SOLID
 70
1
 71
0
 91
1
 92
7
 72
1
 73
1
 93
4
 10
0.5662903038901277
 20
2.946067767683416
 42
-0.3596247954843745
 10
3.0
 20
0.0
 42
0.0
 10
21.00006913865218
 20
0.0
 42
0.0
 10
21.00006913865218
 20
1.0
 42
0.0
 97
0
 75
0
 76
1
 47
0.0571401516771486
 98
4
 10
-4.169990900030825
 20
1.742986792320149
 10
-5.027830280014313
 20
-1.285476017685139
 10
6.410145959991495
 20
-1.399786977679468
 10
6.353215969982556
 20
1.343092842318583
450
0
451
0
460
0.0
461
0.0
452
0
462
0.0
453
0
470

  0
HATCH
  5
98
330
31
100
AcDbEntity
  8
OBJ1
 62
251
370
15
420
5395026
100
AcDbHatch
 10
0.0
 20
0.0
 30
0.0
210
0.0
220
0.0
230
1.0
  2
SOLID
 70
1
 71
0
 91
1
 92
7
 72
1
 73
1
 93
4
 10
3.0
 20
0.0
 42
-0.3596247954814271
 10
0.5662903039192316
 20
-2.946067767654312
 42
0.0
 10
21.00006913865218
 20
-1.0
 42
0.0
 10
21.00006913865218
 20
0.0
 42
0.0
 97
0
 75
0
 76
1
 47
0.0571401516771486
 98
4
 10
-4.169990900030825
 20
1.742986792320149
 10
-5.027830280014313
 20
-1.285476017685139
 10
6.410145959991495
 20
-1.399786977679468
 10
6.353215969982556
 20
1.343092842318583
450
0
451
0
460
0.0
461
0.0
452
0
462
0.0
453
0
470

  0
HATCH
  5
99
330
31
100
AcDbEntity
  8
OBJ1
 62
251
370
15
420
5395026
100
AcDbHatch
 10
0.0
 20
0.0
 30
0.0
210
0.0
220
0.0
230
1.0
  2
SOLID
 70
1
 71
0
 91
1
 92
7
 72
1
 73
1
 93
4
 10
-3.0
 20
-2.91038e-11
 42
0.0
 10
-12.14287698309636
 20
-2.91038e-11
 42
0.0
 10
-6.459348261298146
 20
-3.615173999540274
 42
0.0
 10
5.82077e-11
 20
-3.0
 42
-0.414213562374516
 97
0
 75
0
 76
1
 47
0.0571401516771486
 98
4
 10
-4.169990900030825
 20
1.742986792320149
 10
-5.027830280014313
 20
-1.285476017685139
 10
6.410145959991495
 20
-1.399786977679468
 10
6.353215969982556
 20
1.343092842318583
450
0
451
0
460
0.0
461
0.0
452
0
462
0.0
453
0
470

  0
LINE
  5
9A
330
31
100
AcDbEntity
  8
OBJ1
 62
19
370
15
100
AcDbLine
 10
-6.459348261298146
 20
3.615173999540274
 30
0.0
 11
21.00006913865218
 21
1.0
 31
0.0
  0
LINE
  5
9B
330
31
100
AcDbEntity
  8
OBJ1
 62
19
370
15
100
AcDbLine
 10
-6.459348261298146
 20
-3.615173999540274
 30
0.0
 11
21.00006913865218
 21
-1.0
 31
0.0
  0
LINE
  5
9C
330
31
100
AcDbEntity
  8
OBJ1
 62
19
370
15
100
AcDbLine
 10
-12.14287698315456
 20
-2.91038e-11
 30
0.0
 11
-6.459348261298146
 21
3.615173999540274
 31
0.0
  0
LINE
  5
9D
330
31
100
AcDbEntity
  8
OBJ1
 62
19
370
15
100
AcDbLine
 10
-12.14287698309636
 20
-2.91038e-11
 30
0.0
 11
-6.459348261298146
 21
-3.615173999540274
 31
0.0
  0
LINE
  5
9E
330
31
100
AcDbEntity
  8
OBJ1
 62
19
370
15
100
AcDbLine
 10
21.00006913865218
 20
1.0
 30
0.0
 11
21.00006913865218
 21
-1.0
 31
0.0
  0
CIRCLE
  5
9F
330
31
100
AcDbEntity
  8
OBJ1
 62
19
370
15
100
AcDbCircle
 10
0.0
 20
0.0
 30
0.0
 40
3.0
  0
LINE
  5
A0
330
31
100
AcDbEntity
  8
OBJ1
 62
19
370
15
100
AcDbLine
 10
-12.14287698309636
 20
-2.91038e-11
 30
0.0
 11
-3.0
 21
-2.91038e-11
 31
0.0
  0
LINE
  5
A1
330
31
100
AcDbEntity
  8
OBJ1
 62
19
370
15
100
AcDbLine
 10
3.0
 20
0.0
 30
0.0
 11
21.00006913865218
 21
0.0
 31
0.0
  0
MTEXT
  5
A2
330
31
100
AcDbEntity
  8
OBJ1
 62
19
370
25
420
3086360
100
AcDbMText
 10
-11.55702462198678
 20
33.0
 30
0.0
 40
4.0
 41
54.63538395197247
 46
0.0
 71
1
 72
5
  1
AM METER
  7
HTXT1
  0
MTEXT
  5
A3
330
31
100
AcDbEntity
  8
OBJ1
  6
ByBlock
 62
250
370
18
420
3552822
100
AcDbMText
 10
-19.51184550314792
 20
1.496475911379089
 30
0.0
 40
3.0
 41
16.09009678999427
 46
0.0
 71
1
 72
5
  1
T
  7
HTXT1
  0
MTEXT
  5
A4
330
31
100
AcDbEntity
  8
OBJ1
  6
ByBlock
 62
250
370
18
420
3552822
100
AcDbMText
 10
-0.7956931031076238
 20
-17.54439457863918
 30
0.0
 40
3.0
 41
11.75345522999123
 46
0.0
 71
1
 72
5
  1
S
  7
HTXT1
  0
MTEXT
  5
A5
330
31
100
AcDbEntity
  8
OBJ1
  6
ByBlock
 62
250
370
18
420
3552822
100
AcDbMText
 10
-3.374297218164428
 20
19.99137656000675
 30
0.0
 40
3.0
 41
9.599390539995511
 46
0.0
 71
1
 72
5
  1
OFF
  7
HTXT1
  0
LINE
  5
A6
330
31
100
AcDbEntity
  8
0
 60
1
100
AcDbLine
 10
20.0
 20
37.0
 30
0.0
 11
25.0
 21
37.0
 31
0.0
  0
LINE
  5
A7
330
31
100
AcDbEntity
  8
0
 60
1
100
AcDbLine
 10
25.0
 20
37.0
 30
0.0
 11
25.0
 21
-25.0
 31
0.0
  0
LINE
  5
A8
330
31
100
AcDbEntity
  8
0
 60
1
100
AcDbLine
 10
25.0
 20
-25.0
 30
0.0
 11
20.0
 21
-25.0
 31
0.0
  0
LINE
  5
A9
330
31
100
AcDbEntity
  8
0
 60
1
100
AcDbLine
 10
25.0
 20
-2.896954853491476
 30
0.0
 11
27.31968100736413
 21
-2.896954853491476
 31
0.0
  0
LINE
  5
AA
330
31
100
AcDbEntity
  8
0
 60
1
100
AcDbLine
 10
25.0
 20
3.10304514650852
 30
0.0
 11
27.31968100736413
 21
3.10304514650852
 31
0.0
  0
LINE
  5
AB
330
31
100
AcDbEntity
  8
0
 60
1
100
AcDbLine
 10
29.35678942030063
 20
-21.000069138654
 30
0.0
 11
31.24131915651924
 21
-21.00006913865218
 31
0.0
  0
LINE
  5
AC
330
31
100
AcDbEntity
  8
0
 60
1
100
AcDbLine
 10
27.31968100736413
 20
-12.00003456932609
 30
0.0
 11
29.35678942030063
 21
-12.00003456932609
 31
0.0
  0
LWPOLYLINE
  5
AD
330
31
100
AcDbEntity
  8
0
 60
1
100
AcDbPolyline
 90
4
 70
1
 10
27.31968100736413
 20
11.98757046744504
 10
29.35678942030063
 20
11.98757046744504
 10
29.35678942030063
 20
-12.00003456932609
 10
27.31968100736413
 20
-12.00003456932609
  0
LINE
  5
AE
330
31
100
AcDbEntity
  8
0
 60
1
100
AcDbLine
 10
36.19000726233208
 20
8.987570467446856
 30
0.0
 11
36.19000726233208
 21
-3.363315098920791
 31
0.0
  0
ARC
  5
AF
330
31
100
AcDbEntity
  8
0
 60
1
100
AcDbCircle
 10
33.19000726233208
 20
8.987570467446856
 30
0.0
 40
3.0
100
AcDbArc
 50
0.0
 51
90.0
  0
LINE
  5
B0
330
31
100
AcDbEntity
  8
0
 60
1
100
AcDbLine
 10
36.09660049390368
 20
-4.726917146499545
 30
0.0
 11
34.21329712599072
 21
-18.40914975292617
 31
0.0
  0
ARC
  5
B1
330
31
100
AcDbEntity
  8
0
 60
1
100
AcDbCircle
 10
31.24131915651924
 20
-18.00006913865218
 30
0.0
 40
3.0
100
AcDbArc
 50
270.0
 51
352.1627187072957
  0
ARC
  5
B2
330
31
100
AcDbEntity
  8
0
 60
1
100
AcDbCircle
 10
26.19000726233208
 20
-3.363315098920791
 30
0.0
 40
10.0
100
AcDbArc
 50
352.1627187072957
 51
0.0
  0
LINE
  5
B3
330
31
100
AcDbEntity
  8
0
 60
1
100
AcDbLine
 10
29.35678942030063
 20
-12.00003456932609
 30
0.0
 11
29.35678942030063
 21
-21.00006913865218
 31
0.0
  0
LINE
  5
B4
330
31
100
AcDbEntity
  8
0
 60
1
100
AcDbLine
 10
29.35678942030063
 20
-21.00006913865218
 30
0.0
 11
31.24131915651924
 21
-21.00006913865218
 31
0.0
  0
LINE
  5
B5
330
31
100
AcDbEntity
  8
0
 60
1
100
AcDbLine
 10
29.35678942030063
 20
11.98757046744504
 30
0.0
 11
33.19000726233026
 21
11.98757046744685
 31
0.0
  0
LINE
  5
B6
330
31
100
AcDbEntity
  8
0
 60
1
100
AcDbLine
 10
20.0
 20
37.0
 30
0.0
 11
20.0
 21
-25.0
 31
0.0
  0
ENDBLK
  5
33
330
31
100
AcDbEntity
  8
0
100
AcDbBlockEnd
  0
ENDSEC
  0
SECTION
  2
ENTITIES
  0
INSERT
  5
2F
330
17
100
AcDbEntity
  8
0
100
AcDbBlockReference
  2
*U198
 10
25.0
 20
25.0
 30
0.0
  0
ENDSEC
  0
SECTION
  2
OBJECTS
  0
DICTIONARY
  5
A
330
0
100
AcDbDictionary
281
1
  3
ACAD_COLOR
350
B
  3
ACAD_GROUP
350
C
  3
ACAD_LAYOUT
350
D
  3
ACAD_MATERIAL
350
E
  3
ACAD_MLEADERSTYLE
350
F
  3
ACAD_MLINESTYLE
350
10
  3
ACAD_PLOTSETTINGS
350
11
  3
ACAD_PLOTSTYLENAME
350
12
  3
ACAD_SCALELIST
350
14
  3
ACAD_TABLESTYLE
350
15
  3
ACAD_VISUALSTYLE
350
16
  3
EZDXF_META
350
2D
  0
DICTIONARY
  5
B
330
A
100
AcDbDictionary
281
1
  0
DICTIONARY
  5
C
330
A
100
AcDbDictionary
281
1
  0
DICTIONARY
  5
D
330
A
100
AcDbDictionary
281
1
  3
Model
350
1A
  3
Layout1
350
1E
  0
DICTIONARY
  5
E
330
A
100
AcDbDictionary
281
1
  3
ByBlock
350
1F
  3
ByLayer
350
20
  3
Global
350
21
  0
DICTIONARY
  5
F
330
A
100
AcDbDictionary
281
1
  3
Standard
350
2C
  0
DICTIONARY
  5
10
330
A
100
AcDbDictionary
281
1
  3
Standard
350
22
  0
DICTIONARY
  5
11
330
A
100
AcDbDictionary
281
1
  0
ACDBDICTIONARYWDFLT
  5
12
330
A
100
AcDbDictionary
281
1
  3
Normal
350
13
100
AcDbDictionaryWithDefault
340
13
  0
ACDBPLACEHOLDER
  5
13
330
12
  0
DICTIONARY
  5
14
330
A
100
AcDbDictionary
281
1
  0
DICTIONARY
  5
15
330
A
100
AcDbDictionary
281
1
  0
DICTIONARY
  5
16
330
A
100
AcDbDictionary
281
1
  0
LAYOUT
  5
1A
330
D
100
AcDbPlotSettings
  1

  4
A3
  6

 40
7.5
 41
20.0
 42
7.5
 43
20.0
 44
420.0
 45
297.0
 46
0.0
 47
0.0
 48
0.0
 49
0.0
140
0.0
141
0.0
142
1.0
143
1.0
 70
1024
 72
1
 73
0
 74
5
  7

 75
16
 76
0
 77
2
 78
300
147
1.0
148
0.0
149
0.0
100
AcDbLayout
  1
Model
 70
1
 71
0
 10
0.0
 20
0.0
 11
420.0
 21
297.0
 12
0.0
 22
0.0
 32
0.0
 14
1e+20
 24
1e+20
 34
1e+20
 15
-1e+20
 25
-1e+20
 35
-1e+20
146
0.0
 13
0.0
 23
0.0
 33
0.0
 16
1.0
 26
0.0
 36
0.0
 17
0.0
 27
1.0
 37
0.0
 76
1
330
17
  0
LAYOUT
  5
1E
330
D
100
AcDbPlotSettings
  1

  4
A3
  6

 40
7.5
 41
20.0
 42
7.5
 43
20.0
 44
420.0
 45
297.0
 46
0.0
 47
0.0
 48
0.0
 49
0.0
140
0.0
141
0.0
142
1.0
143
1.0
 70
0
 72
1
 73
0
 74
5
  7

 75
16
 76
0
 77
2
 78
300
147
1.0
148
0.0
149
0.0
100
AcDbLayout
  1
Layout1
 70
1
 71
1
 10
0.0
 20
0.0
 11
420.0
 21
297.0
 12
0.0
 22
0.0
 32
0.0
 14
1e+20
 24
1e+20
 34
1e+20
 15
-1e+20
 25
-1e+20
 35
-1e+20
146
0.0
 13
0.0
 23
0.0
 33
0.0
 16
1.0
 26
0.0
 36
0.0
 17
0.0
 27
1.0
 37
0.0
 76
1
330
1B
  0
MATERIAL
  5
1F
102
{ACAD_REACTORS
330
E
102
}
330
E
100
AcDbMaterial
  1
ByBlock
  2

 70
0
 40
1.0
 71
1
 41
1.0
 91
-1023410177
 42
1.0
 72
1
  3

 73
1
 74
1
 75
1
 44
0.5
 73
0
 45
1.0
 46
1.0
 77
1
  4

 78
1
 79
1
170
1
 48
1.0
171
1
  6

172
1
173
1
174
1
140
1.0
141
1.0
175
1
  7

176
1
177
1
178
1
143
1.0
179
1
  8

270
1
271
1
272
1
145
1.0
146
1.0
273
1
  9

274
1
275
1
276
1
 42
1.0
 72
1
  3

 73
1
 74
1
 75
1
 94
63
  0
MATERIAL
  5
20
102
{ACAD_REACTORS
330
E
102
}
330
E
100
AcDbMaterial
  1
ByLayer
  2

 70
0
 40
1.0
 71
1
 41
1.0
 91
-1023410177
 42
1.0
 72
1
  3

 73
1
 74
1
 75
1
 44
0.5
 73
0
 45
1.0
 46
1.0
 77
1
  4

 78
1
 79
1
170
1
 48
1.0
171
1
  6

172
1
173
1
174
1
140
1.0
141
1.0
175
1
  7

176
1
177
1
178
1
143
1.0
179
1
  8

270
1
271
1
272
1
145
1.0
146
1.0
273
1
  9

274
1
275
1
276
1
 42
1.0
 72
1
  3

 73
1
 74
1
 75
1
 94
63
  0
MATERIAL
  5
21
102
{ACAD_REACTORS
330
E
102
}
330
E
100
AcDbMaterial
  1
Global
  2

 70
0
 40
1.0
 71
1
 41
1.0
 91
-1023410177
 42
1.0
 72
1
  3

 73
1
 74
1
 75
1
 44
0.5
 73
0
 45
1.0
 46
1.0
 77
1
  4

 78
1
 79
1
170
1
 48
1.0
171
1
  6

172
1
173
1
174
1
140
1.0
141
1.0
175
1
  7

176
1
177
1
178
1
143
1.0
179
1
  8

270
1
271
1
272
1
145
1.0
146
1.0
273
1
  9

274
1
275
1
276
1
 42
1.0
 72
1
  3

 73
1
 74
1
 75
1
 94
63
  0
MLINESTYLE
  5
22
102
{ACAD_REACTORS
330
10
102
}
330
10
100
AcDbMlineStyle
  2
Standard
 70
0
  3

 62
256
 51
90.0
 52
90.0
 71
2
 49
0.5
 62
256
  6
BYLAYER
 49
-0.5
 62
256
  6
BYLAYER
  0
MLEADERSTYLE
  5
2C
102
{ACAD_REACTORS
330
F
102
}
330
F
100
AcDbMLeaderStyle
179
2
170
2
171
1
172
0
 90
2
 40
0.0
 41
0.0
173
1
 91
-1056964608
 92
-2
290
1
 42
2.0
291
1
 43
8.0
  3
Standard
 44
4.0
300

342
29
174
1
175
1
176
0
178
1
 93
-1056964608
 45
4.0
292
0
297
0
 46
4.0
 94
-1056964608
 47
1.0
 49
1.0
140
1.0
294
1
141
0.0
177
0
142
1.0
295
0
296
0
143
3.75
271
0
272
9
273
9
  0
DICTIONARY
  5
2D
330
A
100
AcDbDictionary
280
1
281
1
  3
CREATED_BY_EZDXF
350
2E
  3
WRITTEN_BY_EZDXF
350
BB
  0
DICTIONARYVAR
  5
2E
330
2D
100
DictionaryVariables
280
0
  1
1.4.4 @ 2026-09-23T14:03:03.620102+00:00
  0
DICTIONARYVAR
  5
BB
330
2D
100
DictionaryVariables
280
0
  1
1.4.4 @ 2026-09-23T14:03:03.686058+00:00
  0
ENDSEC
  0
EOF
