  0
SECTION
  2
HEADER
  9
$ACADVER
  1
AC1032
  9
$ACADMAINTVER
 90
4
  9
$DWGCODEPAGE
  3
ANSI_1252
  9
$LASTSAVEDBY
  1
ezdxf
  9
$REQUIREDVERSIONS
160
0
  9
$INSBASE
 10
0.0
 20
0.0
 30
0.0
  9
$EXTMIN
 10
1e+20
 20
1e+20
 30
1e+20
  9
$EXTMAX
 10
-1e+20
 20
-1e+20
 30
-1e+20
  9
$LIMMIN
 10
0.0
 20
0.0
  9
$LIMMAX
 10
420.0
 20
297.0
  9
$ORTHOMODE
 70
0
  9
$REGENMODE
 70
1
  9
$FILLMODE
 70
1
  9
$QTEXTMODE
 70
0
  9
$MIRRTEXT
 70
1
  9
$LTSCALE
 40
1.0
  9
$ATTMODE
 70
1
  9
$TEXTSIZE
 40
2.5
  9
$TRACEWID
 40
1.0
  9
$TEXTSTYLE
  7
Standard
  9
$CLAYER
  8
0
  9
$CELTYPE
  6
ByLayer
  9
$CECOLOR
 62
256
  9
$CELTSCALE
 40
1.0
  9
$DISPSILH
 70
0
  9
$DIMSCALE
 40
1.0
  9
$DIMASZ
 40
2.5
  9
$DIMEXO
 40
0.625
  9
$DIMDLI
 40
3.75
  9
$DIMRND
 40
0.0
  9
$DIMDLE
 40
0.0
  9
$DIMEXE
 40
1.25
  9
$DIMTP
 40
0.0
  9
$DIMTM
 40
0.0
  9
$DIMTXT
 40
2.5
  9
$DIMCEN
 40
2.5
  9
$DIMTSZ
 40
0.0
  9
$DIMTOL
 70
0
  9
$DIMLIM
 70
0
  9
$DIMTIH
 70
0
  9
$DIMTOH
 70
0
  9
$DIMSE1
 70
0
  9
$DIMSE2
 70
0
  9
$DIMTAD
 70
1
  9
$DIMZIN
 70
8
  9
$DIMBLK
  1

  9
$DIMASO
 70
1
  9
$DIMSHO
 70
1
  9
$DIMPOST
  1

  9
$DIMAPOST
  1

  9
$DIMALT
 70
0
  9
$DIMALTD
 70
3
  9
$DIMALTF
 40
0.03937007874
  9
$DIMLFAC
 40
1.0
  9
$DIMTOFL
 70
1
  9
$DIMTVP
 40
0.0
  9
$DIMTIX
 70
0
  9
$DIMSOXD
 70
0
  9
$DIMSAH
 70
0
  9
$DIMBLK1
  1

  9
$DIMBLK2
  1

  9
$DIMSTYLE
  2
ISO-25
  9
$DIMCLRD
 70
0
  9
$DIMCLRE
 70
0
  9
$DIMCLRT
 70
0
  9
$DIMTFAC
 40
1.0
  9
$DIMGAP
 40
0.625
  9
$DIMJUST
 70
0
  9
$DIMSD1
 70
0
  9
$DIMSD2
 70
0
  9
$DIMTOLJ
 70
0
  9
$DIMTZIN
 70
8
  9
$DIMALTZ
 70
0
  9
$DIMALTTZ
 70
0
  9
$DIMUPT
 70
0
  9
$DIMDEC
 70
2
  9
$DIMTDEC
 70
2
  9
$DIMALTU
 70
2
  9
$DIMALTTD
 70
3
  9
$DIMTXSTY
  7
Standard
  9
$DIMAUNIT
 70
0
  9
$DIMADEC
 70
0
  9
$DIMALTRND
 40
0.0
  9
$DIMAZIN
 70
0
  9
$DIMDSEP
 70
44
  9
$DIMATFIT
 70
3
  9
$DIMFRAC
 70
0
  9
$DIMLDRBLK
  1

  9
$DIMLUNIT
 70
2
  9
$DIMLWD
 70
-2
  9
$DIMLWE
 70
-2
  9
$DIMTMOVE
 70
0
  9
$DIMFXL
 40
1.0
  9
$DIMFXLON
 70
0
  9
$DIMJOGANG
 40
0.785398163397
  9
$DIMTFILL
 70
0
  9
$DIMTFILLCLR
 70
0
  9
$DIMARCSYM
 70
0
  9
$DIMLTYPE
  6

  9
$DIMLTEX1
  6

  9
$DIMLTEX2
  6

  9
$DIMTXTDIRECTION
 70
0
  9
$LUNITS
 70
2
  9
$LUPREC
 70
4
  9
$SKETCHINC
 40
1.0
  9
$FILLETRAD
 40
10.0
  9
$AUNITS
 70
0
  9
$AUPREC
 70
2
  9
$MENU
  1
.
  9
$ELEVATION
 40
0.0
  9
$PELEVATION
 40
0.0
  9
$THICKNESS
 40
0.0
  9
$LIMCHECK
 70
0
  9
$CHAMFERA
 40
0.0
  9
$CHAMFERB
 40
0.0
  9
$CHAMFERC
 40
0.0
  9
$CHAMFERD
 40
0.0
  9
$SKPOLY
 70
0
  9
$TDCREATE
 40
2461307.8775810185
  9
$TDUCREATE
 40
2458532.153996898
  9
$TDUPDATE
 40
2461307.8775925925
  9
$TDUUPDATE
 40
2458532.1544311
  9
$TDINDWG
 40
0.0
  9
$TDUSRTIMER
 40
0.0
  9
$USRTIMER
 70
1
  9
$ANGBASE
 50
0.0
  9
$ANGDIR
 70
0
  9
$PDMODE
 70
0
  9
$PDSIZE
 40
0.0
  9
$PLINEWID
 40
0.0
  9
$SPLFRAME
 70
0
  9
$SPLINETYPE
 70
6
  9
$SPLINESEGS
 70
8
  9
$HANDSEED
  5
153
  9
$SURFTAB1
 70
6
  9
$SURFTAB2
 70
6
  9
$SURFTYPE
 70
6
  9
$SURFU
 70
6
  9
$SURFV
 70
6
  9
$UCSBASE
  2

  9
$UCSNAME
  2

  9
$UCSORG
 10
0.0
 20
0.0
 30
0.0
  9
$UCSXDIR
 10
1.0
 20
0.0
 30
0.0
  9
$UCSYDIR
 10
0.0
 20
1.0
 30
0.0
  9
$UCSORTHOREF
  2

  9
$UCSORTHOVIEW
 70
0
  9
$UCSORGTOP
 10
0.0
 20
0.0
 30
0.0
  9
$UCSORGBOTTOM
 10
0.0
 20
0.0
 30
0.0
  9
$UCSORGLEFT
 10
0.0
 20
0.0
 30
0.0
  9
$UCSORGRIGHT
 10
0.0
 20
0.0
 30
0.0
  9
$UCSORGFRONT
 10
0.0
 20
0.0
 30
0.0
  9
$UCSORGBACK
 10
0.0
 20
0.0
 30
0.0
  9
$PUCSBASE
  2

  9
$PUCSNAME
  2

  9
$PUCSORG
 10
0.0
 20
0.0
 30
0.0
  9
$PUCSXDIR
 10
1.0
 20
0.0
 30
0.0
  9
$PUCSYDIR
 10
0.0
 20
1.0
 30
0.0
  9
$PUCSORTHOREF
  2

  9
$PUCSORTHOVIEW
 70
0
  9
$PUCSORGTOP
 10
0.0
 20
0.0
 30
0.0
  9
$PUCSORGBOTTOM
 10
0.0
 20
0.0
 30
0.0
  9
$PUCSORGLEFT
 10
0.0
 20
0.0
 30
0.0
  9
$PUCSORGRIGHT
 10
0.0
 20
0.0
 30
0.0
  9
$PUCSORGFRONT
 10
0.0
 20
0.0
 30
0.0
  9
$PUCSORGBACK
 10
0.0
 20
0.0
 30
0.0
  9
$USERI1
 70
0
  9
$USERI2
 70
0
  9
$USERI3
 70
0
  9
$USERI4
 70
0
  9
$USERI5
 70
0
  9
$USERR1
 40
0.0
  9
$USERR2
 40
0.0
  9
$USERR3
 40
0.0
  9
$USERR4
 40
0.0
  9
$USERR5
 40
0.0
  9
$WORLDVIEW
 70
1
  9
$SHADEDGE
 70
3
  9
$SHADEDIF
 70
70
  9
$TILEMODE
 70
1
  9
$MAXACTVP
 70
64
  9
$PINSBASE
 10
0.0
 20
0.0
 30
0.0
  9
$PLIMCHECK
 70
0
  9
$PEXTMIN
 10
1e+20
 20
1e+20
 30
1e+20
  9
$PEXTMAX
 10
-1e+20
 20
-1e+20
 30
-1e+20
  9
$PLIMMIN
 10
0.0
 20
0.0
  9
$PLIMMAX
 10
420.0
 20
297.0
  9
$UNITMODE
 70
0
  9
$VISRETAIN
 70
1
  9
$PLINEGEN
 70
0
  9
$PSLTSCALE
 70
1
  9
$TREEDEPTH
 70
3020
  9
$CMLSTYLE
  2
Standard
  9
$CMLJUST
 70
0
  9
$CMLSCALE
 40
20.0
  9
$PROXYGRAPHICS
 70
1
  9
$MEASUREMENT
 70
1
  9
$CELWEIGHT
370
-1
  9
$ENDCAPS
280
0
  9
$JOINSTYLE
280
0
  9
$LWDISPLAY
290
0
  9
$INSUNITS
 70
4
  9
$HYPERLINKBASE
  1

  9
$STYLESHEET
  1

  9
$XEDIT
290
1
  9
$CEPSNTYPE
380
0
  9
$PSTYLEMODE
290
1
  9
$FINGERPRINTGUID
  2
{C1660756-1BFF-454C-9EE2-ECF824A22D8D}
  9
$VERSIONGUID
  2
{EAA1CBC3-6E2B-48E4-9753-7CCF4E31E474}
  9
$EXTNAMES
290
1
  9
$PSVPSCALE
 40
0.0
  9
$OLESTARTUP
290
0
  9
$SORTENTS
280
127
  9
$INDEXCTL
280
0
  9
$HIDETEXT
280
1
  9
$XCLIPFRAME
280
1
  9
$HALOGAP
280
0
  9
$OBSCOLOR
 70
257
  9
$OBSLTYPE
280
0
  9
$INTERSECTIONDISPLAY
280
0
  9
$INTERSECTIONCOLOR
 70
257
  9
$DIMASSOC
280
2
  9
$PROJECTNAME
  1

  9
$CAMERADISPLAY
290
0
  9
$LENSLENGTH
 40
50.0
  9
$CAMERAHEIGHT
 40
0.0
  9
$STEPSPERSEC
 40
24.0
  9
$STEPSIZE
 40
100.0
  9
$3DDWFPREC
 40
2.0
  9
$PSOLWIDTH
 40
0.005
  9
$PSOLHEIGHT
 40
0.08
  9
$LOFTANG1
 40
1.570796326795
  9
$LOFTANG2
 40
1.570796326795
  9
$LOFTMAG1
 40
0.0
  9
$LOFTMAG2
 40
0.0
  9
$LOFTPARAM
 70
7
  9
$LOFTNORMALS
280
1
  9
$LATITUDE
 40
37.795
  9
$LONGITUDE
 40
-122.394
  9
$NORTHDIRECTION
 40
0.0
  9
$TIMEZONE
 70
-8000
  9
$LIGHTGLYPHDISPLAY
280
1
  9
$TILEMODELIGHTSYNCH
280
1
  9
$CMATERIAL
347
20
  9
$SOLIDHIST
280
0
  9
$SHOWHIST
280
1
  9
$DWFFRAME
280
2
  9
$DGNFRAME
280
2
  9
$REALWORLDSCALE
290
1
  9
$INTERFERECOLOR
 62
256
  9
$CSHADOW
280
0
  9
$SHADOWPLANELOCATION
 40
0.0
  0
ENDSEC
  0
SECTION
  2
CLASSES
  0
CLASS
  1
ACDBDICTIONARYWDFLT
  2
AcDbDictionaryWithDefault
  3
ObjectDBX Classes
 90
0
 91
0
280
0
281
0
  0
CLASS
  1
SUN
  2
AcDbSun
  3
SCENEOE
 90
1153
 91
0
280
0
281
0
  0
CLASS
  1
VISUALSTYLE
  2
AcDbVisualStyle
  3
ObjectDBX Classes
 90
4095
 91
0
280
0
281
0
  0
CLASS
  1
MATERIAL
  2
AcDbMaterial
  3
ObjectDBX Classes
 90
1153
 91
0
280
0
281
0
  0
CLASS
  1
SCALE
  2
AcDbScale
  3
ObjectDBX Classes
 90
1153
 91
0
280
0
281
0
  0
CLASS
  1
TABLESTYLE
  2
AcDbTableStyle
  3
ObjectDBX Classes
 90
4095
 91
0
280
0
281
0
  0
CLASS
  1
MLEADERSTYLE
  2
AcDbMLeaderStyle
  3
ACDB_MLEADERSTYLE_CLASS
 90
4095
 91
0
280
0
281
0
  0
CLASS
  1
DICTIONARYVAR
  2
AcDbDictionaryVar
  3
ObjectDBX Classes
 90
0
 91
0
280
0
281
0
  0
CLASS
  1
CELLSTYLEMAP
  2
AcDbCellStyleMap
  3
ObjectDBX Classes
 90
1152
 91
0
280
0
281
0
  0
CLASS
  1
MENTALRAYRENDERSETTINGS
  2
AcDbMentalRayRenderSettings
  3
SCENEOE
 90
1024
 91
0
280
0
281
0
  0
CLASS
  1
ACDBDETAILVIEWSTYLE
  2
AcDbDetailViewStyle
  3
ObjectDBX Classes
 90
1025
 91
0
280
0
281
0
  0
CLASS
  1
ACDBSECTIONVIEWSTYLE
  2
AcDbSectionViewStyle
  3
ObjectDBX Classes
 90
1025
 91
0
280
0
281
0
  0
CLASS
  1
RASTERVARIABLES
  2
AcDbRasterVariables
  3
ISM
 90
0
 91
0
280
0
281
0
  0
CLASS
  1
LAYOUT
  2
AcDbLayout
  3
ObjectDBX Classes
 90
0
 91
0
280
0
281
0
  0
CLASS
  1
ACDBPLACEHOLDER
  2
AcDbPlaceHolder
  3
ObjectDBX Classes
 90
0
 91
0
280
0
281
0
  0
ENDSEC
  0
SECTION
  2
TABLES
  0
TABLE
  2
VPORT
  5
8
330
0
100
AcDbSymbolTable
 70
1
  0
VPORT
  5
23
330
8
100
AcDbSymbolTableRecord
100
AcDbViewportTableRecord
  2
*Active
 70
0
 10
0.0
 20
0.0
 11
1.0
 21
1.0
 12
0.0
 22
0.0
 13
0.0
 23
0.0
 14
0.5
 24
0.5
 15
0.5
 25
0.5
 16
0.0
 26
0.0
 36
1.0
 17
0.0
 27
0.0
 37
0.0
 40
1000.0
 41
1.34
 42
50.0
 43
0.0
 44
0.0
 50
0.0
 51
0.0
 71
0
 72
1000
 73
1
 74
3
 75
0
 76
0
 77
0
 78
0
281
0
 65
0
146
0.0
  0
ENDTAB
  0
TABLE
  2
LTYPE
  5
2
330
0
100
AcDbSymbolTable
 70
3
  0
LTYPE
  5
24
330
2
100
AcDbSymbolTableRecord
100
AcDbLinetypeTableRecord
  2
ByBlock
 70
0
  3

 72
65
 73
0
 40
0.0
  0
LTYPE
  5
25
330
2
100
AcDbSymbolTableRecord
100
AcDbLinetypeTableRecord
  2
ByLayer
 70
0
  3

 72
65
 73
0
 40
0.0
  0
LTYPE
  5
26
330
2
100
AcDbSymbolTableRecord
100
AcDbLinetypeTableRecord
  2
Continuous
 70
0
  3

 72
65
 73
0
 40
0.0
  0
ENDTAB
  0
TABLE
  2
LAYER
  5
1
330
0
100
AcDbSymbolTable
 70
3
  0
LAYER
  5
27
330
1
100
AcDbSymbolTableRecord
100
AcDbLayerTableRecord
  2
0
 70
0
 62
7
  6
Continuous
370
-3
390
13
347
21
  0
LAYER
  5
28
330
1
100
AcDbSymbolTableRecord
100
AcDbLayerTableRecord
  2
Defpoints
 70
0
 62
7
  6
Continuous
290
0
370
-3
390
13
347
21
  0
LAYER
  5
14E
330
1
100
AcDbSymbolTableRecord
100
AcDbLayerTableRecord
  2
INSIDE
 70
0
 62
6
  6
Continuous
370
-3
390
13
347
21
  0
ENDTAB
  0
TABLE
  2
STYLE
  5
5
330
0
100
AcDbSymbolTable
 70
2
  0
STYLE
  5
29
330
5
100
AcDbSymbolTableRecord
100
AcDbTextStyleTableRecord
  2
Standard
 70
0
 40
0.0
 41
1.0
 50
0.0
 71
0
 42
2.5
  3
txt
  4

  0
STYLE
  5
14F
330
5
100
AcDbSymbolTableRecord
100
AcDbTextStyleTableRecord
  2
Helvetica-Narrow
 70
0
 40
0.0
 41
1.0
 50
0.0
 71
0
 42
0.2
  3

  4

  0
ENDTAB
  0
TABLE
  2
VIEW
  5
7
330
0
100
AcDbSymbolTable
 70
0
  0
ENDTAB
  0
TABLE
  2
UCS
  5
6
330
0
100
AcDbSymbolTable
 70
0
  0
ENDTAB
  0
TABLE
  2
APPID
  5
3
330
0
100
AcDbSymbolTable
 70
3
  0
APPID
  5
2A
330
3
100
AcDbSymbolTableRecord
100
AcDbRegAppTableRecord
  2
ACAD
 70
0
  0
APPID
  5
150
330
3
100
AcDbSymbolTableRecord
100
AcDbRegAppTableRecord
  2
HATCHBACKGROUNDCOLOR
 70
0
  0
APPID
  5
151
330
3
100
AcDbSymbolTableRecord
100
AcDbRegAppTableRecord
  2
EZDXF
 70
0
  0
ENDTAB
  0
TABLE
  2
DIMSTYLE
  5
4
330
0
100
AcDbSymbolTable
 70
1
100
AcDbDimStyleTable
  0
DIMSTYLE
105
2B
330
4
100
AcDbSymbolTableRecord
100
AcDbDimStyleTableRecord
  2
Standard
 70
0
 40
1.0
 41
2.5
 42
0.625
 43
3.75
 44
1.25
 45
0.0
 46
0.0
 47
0.0
 48
0.0
 49
2.5
140
2.5
141
2.5
142
0.0
143
0.03937007874
144
1.0
145
0.0
146
1.0
147
0.625
148
0.0
 69
0
 70
0
 71
0
 72
0
 73
0
 74
0
 75
0
 76
0
 77
1
 78
8
 79
3
170
0
171
3
172
1
173
0
174
0
175
0
176
0
177
0
178
0
179
2
271
2
272
2
273
2
274
3
275
0
276
0
277
2
278
44
279
0
280
0
281
0
282
0
283
0
284
8
285
0
286
0
288
0
289
3
290
0
371
-2
372
-2
  0
ENDTAB
  0
TABLE
  2
BLOCK_RECORD
  5
9
330
0
100
AcDbSymbolTable
 70
4
  0
BLOCK_RECORD
  5
17
330
9
100
AcDbSymbolTableRecord
100
AcDbBlockTableRecord
  2
*Model_Space
340
1A
 70
0
280
1
281
0
  0
BLOCK_RECORD
  5
1B
330
9
100
AcDbSymbolTableRecord
100
AcDbBlockTableRecord
  2
*Paper_Space
340
1E
 70
0
280
1
281
0
  0
BLOCK_RECORD
  5
31
330
9
100
AcDbSymbolTableRecord
100
AcDbBlockTableRecord
  2
*U454
340
0
 70
0
280
1
281
0
  0
BLOCK_RECORD
  5
142
330
9
100
AcDbSymbolTableRecord
100
AcDbBlockTableRecord
  2
Nuintek
340
0
 70
0
280
1
281
0
  0
ENDTAB
  0
ENDSEC
  0
SECTION
  2
BLOCKS
  0
BLOCK
  5
18
330
17
100
AcDbEntity
  8
0
100
AcDbBlockBegin
  2
*Model_Space
 70
0
 10
0.0
 20
0.0
 30
0.0
  3
*Model_Space
  1

  0
ENDBLK
  5
19
330
17
100
AcDbEntity
  8
0
100
AcDbBlockEnd
  0
BLOCK
  5
1C
330
1B
100
AcDbEntity
  8
0
100
AcDbBlockBegin
  2
*Paper_Space
 70
0
 10
0.0
 20
0.0
 30
0.0
  3
*Paper_Space
  1

  0
ENDBLK
  5
1D
330
1B
100
AcDbEntity
  8
0
100
AcDbBlockEnd
  0
BLOCK
  5
32
330
31
100
AcDbEntity
  8
0
100
AcDbBlockBegin
  2
*U454
 70
1
 10
0.0
 20
0.0
 30
0.0
  3
*U454
  1

  0
LWPOLYLINE
  5
34
330
31
100
AcDbEntity
  8
0
 62
126
100
AcDbPolyline
 90
6
 70
1
 10
-57.04011520966742
 20
53.9918519951832
 10
-57.04011520966742
 20
-139.5721638048046
 42
0.4142135623730951
 10
-56.82578920966625
 20
-139.786489804813
 10
56.75021080965962
 20
-139.786489804813
 42
0.3050936777262625
 10
57.00232600965683
 20
-139.5721638048046
 10
57.00232600965683
 20
53.9918519951832
  0
LWPOLYLINE
  5
35
330
31
100
AcDbEntity
  8
0
 62
150
100
AcDbPolyline
 90
8
 70
1
 10
-17.40000000000145
 20
-12.0081480048168
 10
17.40000000000145
 20
-12.0081480048168
 42
-0.4142135623730951
 10
18.00000000000727
 20
-12.60814800481535
 10
18.00000000000727
 20
-59.40814800481098
 42
-0.4142135623730951
 10
17.40000000000145
 20
-60.00814800481681
 10
-17.40000000000145
 20
-60.00814800481681
 42
-0.4142135623730951
 10
-17.99999999999272
 20
-59.40814800481098
 10
-17.99999999999272
 20
-12.60814800481535
 42
-0.4142135623730951
  0
INSERT
  5
36
330
31
100
AcDbEntity
  8
0
100
AcDbBlockReference
  2
Nuintek
 10
-5.606260007734817
 20
-17.6013254033453
 30
0.0
 41
0.9925739292666548
 42
0.9925739292666548
 43
0.9925739292666548
  0
TEXT
  5
38
330
31
100
AcDbEntity
  8
0
100
AcDbText
 10
-14.53451086955755
 20
-23.72306313779192
 30
0.0
 40
2.399999999999936
  1
PowerSH Capacitor
  7
Helvetica-Narrow
 72
1
 11
7.276e-12
 21
-22.52306313779195
 31
0.0
100
AcDbText
 73
2
  0
TEXT
  5
39
330
31
100
AcDbEntity
  8
0
100
AcDbText
 10
-10.8071767343863
 20
-34.19271234604751
 30
0.0
 40
1.49999999999996
  1
V
  7
Helvetica-Narrow
 11
-10.8071767343863
 21
-33.44271234604753
 31
0.0
100
AcDbText
 73
2
  0
LWPOLYLINE
  5
3A
330
31
100
AcDbEntity
  8
0
 62
1
100
AcDbPolyline
 90
4
 70
1
 10
-14.99962578305712
 20
-32.24271234605044
 10
-11.39962578306586
 20
-32.24271234605044
 10
-11.39962578306586
 20
-34.64271234603734
 10
-14.99962578305712
 20
-34.64271234603734
  0
LWPOLYLINE
  5
3B
330
31
100
AcDbEntity
  8
0
 62
1
100
AcDbPolyline
 90
4
 70
1
 10
-14.99962578305712
 20
-34.96313061292972
 10
-11.39962578306586
 20
-34.96313061292972
 10
-11.39962578306586
 20
-37.36313061293117
 10
-14.99962578305712
 20
-37.36313061293117
  0
LWPOLYLINE
  5
3C
330
31
100
AcDbEntity
  8
0
 62
1
100
AcDbPolyline
 90
4
 70
1
 10
-14.99962578305712
 20
-37.683548879809
 10
-11.39962578306586
 20
-37.683548879809
 10
-11.39962578306586
 20
-40.08354887981044
 10
-14.99962578305712
 20
-40.08354887981044
  0
TEXT
  5
3D
330
31
100
AcDbEntity
  8
0
100
AcDbText
 10
-10.8071767343863
 20
-36.91313061292678
 30
0.0
 40
1.49999999999996
  1
V
  7
Helvetica-Narrow
 11
-10.8071767343863
 21
-36.16313061292681
 31
0.0
100
AcDbText
 73
2
  0
TEXT
  5
3E
330
31
100
AcDbEntity
  8
0
100
AcDbText
 10
-10.8071767343863
 20
-39.63354887980607
 30
0.0
 40
1.49999999999996
  1
V
  7
Helvetica-Narrow
 11
-10.8071767343863
 21
-38.88354887980609
 31
0.0
100
AcDbText
 73
2
  0
TEXT
  5
3F
330
31
100
AcDbEntity
  8
0
100
AcDbText
 10
-1.584805587342998
 20
-34.19271234604751
 30
0.0
 40
1.49999999999996
  1
kvar
  7
Helvetica-Narrow
 11
-1.584805587342998
 21
-33.44271234604753
 31
0.0
100
AcDbText
 73
2
  0
LWPOLYLINE
  5
40
330
31
100
AcDbEntity
  8
0
 62
1
100
AcDbPolyline
 90
4
 70
1
 10
-5.999625783057126
 20
-32.24271234605044
 10
-2.399625783051305
 20
-32.24271234605044
 10
-2.399625783051305
 20
-34.64271234603734
 10
-5.999625783057126
 20
-34.64271234603734
  0
LWPOLYLINE
  5
41
330
31
100
AcDbEntity
  8
0
 62
1
100
AcDbPolyline
 90
4
 70
1
 10
-5.999625783057126
 20
-34.96313061292972
 10
-2.399625783051305
 20
-34.96313061292972
 10
-2.399625783051305
 20
-37.36313061293117
 10
-5.999625783057126
 20
-37.36313061293117
  0
LWPOLYLINE
  5
42
330
31
100
AcDbEntity
  8
0
 62
1
100
AcDbPolyline
 90
4
 70
1
 10
-5.999625783057126
 20
-37.683548879809
 10
-2.399625783051305
 20
-37.683548879809
 10
-2.399625783051305
 20
-40.08354887981044
 10
-5.999625783057126
 20
-40.08354887981044
  0
TEXT
  5
43
330
31
100
AcDbEntity
  8
0
100
AcDbText
 10
-1.584805587342998
 20
-36.91313061292678
 30
0.0
 40
1.49999999999996
  1
kvar
  7
Helvetica-Narrow
 11
-1.584805587342998
 21
-36.16313061292681
 31
0.0
100
AcDbText
 73
2
  0
TEXT
  5
44
330
31
100
AcDbEntity
  8
0
100
AcDbText
 10
-1.584805587342998
 20
-39.63354887980607
 30
0.0
 40
1.49999999999996
  1
kvar
  7
Helvetica-Narrow
 11
-1.584805587342998
 21
-38.88354887980609
 31
0.0
100
AcDbText
 73
2
  0
TEXT
  5
45
330
31
100
AcDbEntity
  8
0
100
AcDbText
 10
8.392823265610787
 20
-34.19271234604751
 30
0.0
 40
1.49999999999996
  1
kvar
  7
Helvetica-Narrow
 11
8.392823265610787
 21
-33.44271234604753
 31
0.0
100
AcDbText
 73
2
  0
LWPOLYLINE
  5
46
330
31
100
AcDbEntity
  8
0
 62
1
100
AcDbPolyline
 90
4
 70
1
 10
4.200374216939962
 20
-32.24271234605044
 10
7.800374216931231
 20
-32.24271234605044
 10
7.800374216931231
 20
-34.64271234603734
 10
4.200374216939962
 20
-34.64271234603734
  0
LWPOLYLINE
  5
47
330
31
100
AcDbEntity
  8
0
 62
1
100
AcDbPolyline
 90
4
 70
1
 10
4.200374216939962
 20
-34.96313061292972
 10
7.800374216931231
 20
-34.96313061292972
 10
7.800374216931231
 20
-37.36313061293117
 10
4.200374216939962
 20
-37.36313061293117
  0
LWPOLYLINE
  5
48
330
31
100
AcDbEntity
  8
0
 62
1
100
AcDbPolyline
 90
4
 70
1
 10
4.200374216939962
 20
-37.683548879809
 10
7.800374216931231
 20
-37.683548879809
 10
7.800374216931231
 20
-40.08354887981044
 10
4.200374216939962
 20
-40.08354887981044
  0
TEXT
  5
49
330
31
100
AcDbEntity
  8
0
100
AcDbText
 10
8.392823265610787
 20
-36.91313061292678
 30
0.0
 40
1.49999999999996
  1
kvar
  7
Helvetica-Narrow
 11
8.392823265610787
 21
-36.16313061292681
 31
0.0
100
AcDbText
 73
2
  0
TEXT
  5
4A
330
31
100
AcDbEntity
  8
0
100
AcDbText
 10
8.392823265610787
 20
-39.63354887980607
 30
0.0
 40
1.49999999999996
  1
kvar
  7
Helvetica-Narrow
 11
8.392823265610787
 21
-38.88354887980609
 31
0.0
100
AcDbText
 73
2
  0
TEXT
  5
4B
330
31
100
AcDbEntity
  8
0
100
AcDbText
 10
-14.26878339176439
 20
-31.2093940669882
 30
0.0
 40
1.199999999999968
  1
Un
  7
Helvetica-Narrow
 72
1
 11
-13.19962578306877
 21
-30.60939406698822
 31
0.0
100
AcDbText
 73
2
  0
TEXT
  5
4C
330
31
100
AcDbEntity
  8
0
100
AcDbText
 10
-4.852905993386229
 20
-31.2093940669882
 30
0.0
 40
1.199999999999968
  1
Qn / 50Hz
  7
Helvetica-Narrow
 11
-4.852905993386229
 21
-30.60939406698822
 31
0.0
100
AcDbText
 73
2
  0
TEXT
  5
4D
330
31
100
AcDbEntity
  8
0
100
AcDbText
 10
5.347094006625411
 20
-31.2093940669882
 30
0.0
 40
1.199999999999968
  1
Qn / 60Hz
  7
Helvetica-Narrow
 11
5.347094006625411
 21
-30.60939406698822
 31
0.0
100
AcDbText
 73
2
  0
LWPOLYLINE
  5
4E
330
31
100
AcDbEntity
  8
0
 62
1
100
AcDbPolyline
 90
4
 70
1
 10
-8.699625783054216
 20
-26.62696240815353
 10
0.3003742169457837
 20
-26.62696240815353
 10
0.3003742169457837
 20
-29.02696240815499
 10
-8.699625783054216
 20
-29.02696240815499
  0
TEXT
  5
4F
330
31
100
AcDbEntity
  8
0
100
AcDbText
 10
-14.26878339176439
 20
-28.4269624081506
 30
0.0
 40
1.199999999999968
  1
Un
  7
Helvetica-Narrow
 72
1
 11
-13.19962578306877
 21
-27.82696240815062
 31
0.0
100
AcDbText
 73
2
  0
TEXT
  5
50
330
31
100
AcDbEntity
  8
0
100
AcDbText
 10
1.115194412668643
 20
-28.5769624081506
 30
0.0
 40
1.49999999999996
  1
uF
  7
Helvetica-Narrow
 11
1.115194412668643
 21
-27.82696240815062
 31
0.0
100
AcDbText
 73
2
  0
TEXT
  5
51
330
31
100
AcDbEntity
  8
0
100
AcDbText
 10
4.142117698596848
 20
-28.5769624081506
 30
0.0
 40
1.49999999999996
  1
-5 ~+ 10%%%
  7
Helvetica-Narrow
 11
4.142117698596848
 21
-27.82696240815062
 31
0.0
100
AcDbText
 73
2
  0
LWPOLYLINE
  5
52
330
31
100
AcDbEntity
  8
0
 62
0
370
30
100
AcDbPolyline
 90
3
 70
1
 10
12.20361848879111
 20
-28.55038474118851
 10
13.9618698601771
 20
-28.55038474118851
 10
13.0827441744841
 20
-27.02778789387162
  0
TEXT
  5
53
330
31
100
AcDbEntity
  8
0
100
AcDbText
 10
-13.19962578306877
 20
-42.80669627537211
 30
0.0
 40
1.49999999999996
  1
Overpressure Disconnector
  7
Helvetica-Narrow
 11
-13.19962578306877
 21
-42.05669627537213
 31
0.0
100
AcDbText
 73
2
  0
LWPOLYLINE
  5
54
330
31
100
AcDbEntity
  8
0
 62
1
100
AcDbPolyline
 90
4
 70
1
 10
-13.19962578306877
 20
-46.50616768436089
 10
10.80037421694578
 20
-46.50616768436089
 10
10.80037421694578
 20
-48.90616768435506
 10
-13.19962578306877
 20
-48.90616768435506
  0
TEXT
  5
55
330
31
100
AcDbEntity
  8
0
100
AcDbText
 10
-13.19962578306877
 20
-45.35811033001594
 30
0.0
 40
1.49999999999996
  1
Dry Type       Non PCB
  7
Helvetica-Narrow
 11
-13.19962578306877
 21
-44.60811033001596
 31
0.0
100
AcDbText
 73
2
  0
TEXT
  5
56
330
31
100
AcDbEntity
  8
0
100
AcDbText
 10
-13.19962578306877
 20
-51.31695029340265
 30
0.0
 40
1.49999999999996
  1
Serial No.
  7
Helvetica-Narrow
 11
-13.19962578306877
 21
-50.56695029340267
 31
0.0
100
AcDbText
 73
2
  0
TEXT
  5
57
330
31
100
AcDbEntity
  8
0
100
AcDbText
 10
-13.19962578306877
 20
-54.77391602739738
 30
0.0
 40
1.799999999999952
  1
NUINTEK CO., LTD.
  7
Helvetica-Narrow
 11
-13.19962578306877
 21
-53.87391602739739
 31
0.0
100
AcDbText
 73
2
  0
TEXT
  5
58
330
31
100
AcDbEntity
  8
0
100
AcDbText
 10
-13.19962578306877
 20
-57.79343938684689
 30
0.0
 40
1.799999999999952
  1
Made in KOREA
  7
Helvetica-Narrow
 11
-13.19962578306877
 21
-56.89343938684692
 31
0.0
100
AcDbText
 73
2
  0
LWPOLYLINE
  5
59
330
31
100
AcDbEntity
  8
0
 62
126
100
AcDbPolyline
 90
8
 70
1
 10
-57.72578920966044
 20
55.21351019518693
 42
0.4142135623731125
 10
-57.9401152096616
 20
54.99918419517848
 10
-57.9401152096616
 20
54.20617799518436
 42
0.4142135623730894
 10
-57.72578920966044
 20
53.9918519951832
 10
57.68800000964984
 20
53.9918519951832
 42
0.4142135623730951
 10
57.90232600965101
 20
54.20617799518436
 10
57.90232600965101
 20
54.99918419517848
 42
0.4142135623730951
 10
57.68800000964984
 20
55.21351019518693
  0
TEXT
  5
5A
330
31
100
AcDbEntity
  8
0
100
AcDbText
 10
-14.76780760009569
 20
-33.98086958043935
 30
0.0
 40
1.199999999999968
  1
440
  7
Helvetica-Narrow
 11
-14.76780760009569
 21
-33.38086958043937
 31
0.0
100
AcDbText
 73
2
  0
TEXT
  5
5B
330
31
100
AcDbEntity
  8
0
100
AcDbText
 10
-14.76780760009569
 20
-36.70128784731863
 30
0.0
 40
1.199999999999968
  1
415
  7
Helvetica-Narrow
 11
-14.76780760009569
 21
-36.10128784731865
 31
0.0
100
AcDbText
 73
2
  0
TEXT
  5
5C
330
31
100
AcDbEntity
  8
0
100
AcDbText
 10
-14.76780760009569
 20
-39.42170611419791
 30
0.0
 40
1.199999999999968
  1
400
  7
Helvetica-Narrow
 11
-14.76780760009569
 21
-38.82170611419793
 31
0.0
100
AcDbText
 73
2
  0
TEXT
  5
5D
330
31
100
AcDbEntity
  8
0
100
AcDbText
 10
5.043711608544981
 20
-33.99797109045252
 30
0.0
 40
1.199999999999968
  1
30
  7
Helvetica-Narrow
 11
5.043711608544981
 21
-33.39797109045253
 31
0.0
100
AcDbText
 73
2
  0
TEXT
  5
5E
330
31
100
AcDbEntity
  8
0
100
AcDbText
 10
-5.156288391437556
 20
-33.99797109045252
 30
0.0
 40
1.199999999999968
  1
30
  7
Helvetica-Narrow
 11
-5.156288391437556
 21
-33.39797109045253
 31
0.0
100
AcDbText
 73
2
  0
LINE
  5
5F
330
31
100
AcDbEntity
  8
0
 62
126
100
AcDbLine
 10
-6.03350611343194
 20
-141.643264229918
 30
0.0
 11
5.953181123091781
 21
-141.3911206831101
 31
0.0
  0
LINE
  5
60
330
31
100
AcDbEntity
  8
0
 62
126
100
AcDbLine
 10
-6.02898080144223
 20
-143.2244003243097
 30
0.0
 11
5.95770643508149
 21
-142.9722567774872
 31
0.0
  0
LINE
  5
61
330
31
100
AcDbEntity
  8
0
 62
126
100
AcDbLine
 10
-6.031541157637548
 20
-143.3967714155435
 30
0.0
 11
5.959438875572232
 21
-143.1352169011363
 31
0.0
  0
LINE
  5
62
330
31
100
AcDbEntity
  8
0
 62
126
100
AcDbLine
 10
-6.02898080144223
 20
-144.7492289126524
 30
0.0
 11
5.95770643508149
 21
-144.4970853658299
 31
0.0
  0
LINE
  5
63
330
31
100
AcDbEntity
  8
0
 62
126
100
AcDbLine
 10
-6.031541157637548
 20
-144.9216000038716
 30
0.0
 11
5.959438875572232
 21
-144.660045489479
 31
0.0
  0
LINE
  5
64
330
31
100
AcDbEntity
  8
0
 62
126
100
AcDbLine
 10
-6.038568399839277
 20
-140.2282515135587
 30
0.0
 11
5.952411633385054
 21
-139.966696999166
 31
0.0
  0
LINE
  5
65
330
31
100
AcDbEntity
  8
0
 62
126
100
AcDbLine
 10
-6.038568399839277
 20
-140.549548369235
 30
0.0
 11
5.952411633385054
 21
-140.2879938548424
 31
0.0
  0
LINE
  5
66
330
31
100
AcDbEntity
  8
0
 62
126
100
AcDbLine
 10
-6.038568399839277
 20
-141.3527888778619
 30
0.0
 11
5.952411633385054
 21
-141.0912343634547
 31
0.0
  0
LINE
  5
67
330
31
100
AcDbEntity
  8
0
 62
126
100
AcDbLine
 10
-4.811111101247661
 20
-147.3496855810729
 30
0.0
 11
-8.764236101247661
 21
-147.3496855810729
 31
0.0
  0
LINE
  5
68
330
31
100
AcDbEntity
  8
0
 62
126
100
AcDbLine
 10
-4.811111101247661
 20
-154.5222217431503
 30
0.0
 11
-4.811111101247661
 21
-149.2823244699605
 31
0.0
  0
LINE
  5
69
330
31
100
AcDbEntity
  8
0
 62
126
100
AcDbLine
 10
4.957500009862997
 20
-154.5222217431503
 30
0.0
 11
4.957500009862997
 21
-149.2823244699605
 31
0.0
  0
ARC
  5
6A
330
31
100
AcDbEntity
  8
0
 62
126
100
AcDbCircle
 10
0.0731944543149439
 20
-154.4879911366363
 30
0.0
 40
7.138305555555758
100
AcDbArc
 50
46.82422833772897
 51
133.175771662271
  0
LINE
  5
6B
330
31
100
AcDbEntity
  8
0
 62
126
100
AcDbLine
 10
4.957500009862997
 20
-147.3496855810729
 30
0.0
 11
8.910625009862997
 21
-147.3496855810729
 31
0.0
  0
ARC
  5
6C
330
31
100
AcDbEntity
  8
0
 62
126
100
AcDbCircle
 10
7.307491140985803
 20
-149.7086628584723
 30
0.0
 40
2.388351468659658
100
AcDbArc
 50
16.65126858436338
 51
169.7171684086239
  0
LINE
  5
6D
330
31
100
AcDbEntity
  8
0
 62
126
100
AcDbLine
 10
0.0731944543149439
 20
-147.3496855810729
 30
0.0
 11
6.934062509862997
 21
-147.3496855810729
 31
0.0
  0
ARC
  5
6E
330
31
100
AcDbEntity
  8
0
 62
126
100
AcDbCircle
 10
-7.155291830167698
 20
-149.7027204016842
 30
0.0
 40
2.38157847430125
100
AcDbArc
 50
10.16711751469008
 51
159.7769601324984
  0
LINE
  5
6F
330
31
100
AcDbEntity
  8
0
 62
126
100
AcDbLine
 10
0.0731944543149439
 20
-147.3496855810729
 30
0.0
 11
-4.811111101247661
 21
-147.3496855810729
 31
0.0
  0
ARC
  5
70
330
31
100
AcDbEntity
  8
0
 62
126
100
AcDbCircle
 10
0.0731944543149439
 20
-147.9295283211606
 30
0.0
 40
8.204879482134018
100
AcDbArc
 50
233.4664931240566
 51
306.5335068759434
  0
ARC
  5
71
330
31
100
AcDbEntity
  8
0
 62
126
100
AcDbCircle
 10
-7.183847986023465
 20
-153.582277199682
 30
0.0
 40
2.552131671600688
100
AcDbArc
 50
201.7155109884308
 51
338.3893220220666
  0
ARC
  5
72
330
31
100
AcDbEntity
  8
0
 62
126
100
AcDbCircle
 10
7.325530803813308
 20
-153.5881598132175
 30
0.0
 40
2.545592569517785
100
AcDbArc
 50
201.5265916192965
 51
338.9500507642018
  0
LWPOLYLINE
  5
73
330
31
100
AcDbEntity
  8
0
 62
126
100
AcDbPolyline
 90
4
 70
0
 10
-6.037789200003317
 20
-158.0724034379448
 10
-6.037789200003317
 20
-139.786489804813
 10
5.962210799996682
 20
-139.786489804813
 10
5.962210799996682
 20
-158.0724034379448
  0
LWPOLYLINE
  5
74
330
31
100
AcDbEntity
  8
0
 62
126
100
AcDbPolyline
 90
4
 70
1
 10
-14.24018263773905
 20
-147.3496855810729
 10
14.16890827136376
 20
-147.3496855810729
 10
14.16890827136376
 20
-145.7714027527902
 10
-14.24018263773905
 20
-145.7714027527902
  0
LWPOLYLINE
  5
75
330
31
100
AcDbEntity
  8
0
 62
126
100
AcDbPolyline
 90
8
 70
1
 10
-9.55486110124184
 20
-149.2823244699605
 10
-8.764236101247661
 20
-147.3496855810729
 10
8.910625009862997
 20
-147.3496855810729
 10
9.701250009871728
 20
-149.2823244699605
 10
9.701250009871728
 20
-154.5531578032889
 10
8.910625009862997
 20
-156.1344078032919
 10
-8.764236101247661
 20
-156.1344078032919
 10
-9.55486110124184
 20
-154.5531578032889
  0
TEXT
  5
76
330
31
100
AcDbEntity
  8
0
 62
126
100
AcDbText
 10
-5.503911523945925
 20
-152.4974250935404
 30
0.0
 40
1.5
  1
M12x15mm
  7
Helvetica-Narrow
 72
1
 11
0.0731944543149439
 21
-151.7474250935404
 31
0.0
100
AcDbText
 73
2
  0
LINE
  5
77
330
31
100
AcDbEntity
  8
0
 62
126
100
AcDbLine
 10
-6.028211311735503
 20
-145.0491152322931
 30
0.0
 11
5.958475924788217
 21
-144.7969716854852
 31
0.0
  0
LINE
  5
78
330
31
100
AcDbEntity
  8
0
 62
126
100
AcDbLine
 10
-6.023685999745794
 20
-146.6302513266848
 30
0.0
 11
5.962210799996682
 21
-146.3781244069389
 31
0.0
  0
LINE
  5
79
330
31
100
AcDbEntity
  8
0
 62
126
100
AcDbLine
 10
-6.026246355941111
 20
-146.8026224179186
 30
0.0
 11
5.962210799996682
 21
-146.5411229340381
 31
0.0
  0
LINE
  5
7A
330
31
100
AcDbEntity
  8
0
 62
126
100
AcDbLine
 10
-6.026246355941111
 20
-148.3274510062467
 30
0.0
 11
5.964733677268668
 21
-148.0658964918541
 31
0.0
  0
LINE
  5
7B
330
31
100
AcDbEntity
  8
0
 62
126
100
AcDbLine
 10
-6.033273598142841
 20
-144.758639880237
 30
0.0
 11
5.95770643508149
 21
-144.4970853658299
 31
0.0
  0
LINE
  5
7C
330
31
100
AcDbEntity
  8
0
 62
126
100
AcDbLine
 10
-6.022916510039067
 20
-148.4549662346683
 30
0.0
 11
5.963770726484654
 21
-148.2028226878603
 31
0.0
  0
LINE
  5
7D
330
31
100
AcDbEntity
  8
0
 62
126
100
AcDbLine
 10
-6.037789200003317
 20
-158.0724034379448
 30
0.0
 11
5.962210799996682
 21
-158.0724034379448
 31
0.0
  0
LINE
  5
7E
330
31
100
AcDbEntity
  8
0
 62
126
100
AcDbLine
 10
-6.018391198049357
 20
-156.491726001542
 30
0.0
 11
5.968296038474363
 21
-156.2395824547195
 31
0.0
  0
LINE
  5
7F
330
31
100
AcDbEntity
  8
0
 62
126
100
AcDbLine
 10
-6.020951554244675
 20
-156.6640970927613
 30
0.0
 11
5.970028478965105
 21
-156.4025425783686
 31
0.0
  0
LINE
  5
80
330
31
100
AcDbEntity
  8
0
 62
126
100
AcDbLine
 10
30.98110539999471
 20
63.00655507858095
 30
0.0
 11
-31.0188946000053
 21
63.00655507858095
 31
0.0
  0
LINE
  5
81
330
31
100
AcDbEntity
  8
0
 62
126
100
AcDbLine
 10
-2.05613440831803
 20
105.6362374679163
 30
0.0
 11
0.047554731812852
 21
105.6362374679163
 31
0.0
  0
LINE
  5
82
330
31
100
AcDbEntity
  8
0
 62
126
100
AcDbLine
 10
-12.14047175771702
 20
105.6362374679163
 30
0.0
 11
-10.03678261758614
 21
105.6362374679163
 31
0.0
  0
LINE
  5
83
330
31
100
AcDbEntity
  8
0
 62
126
100
AcDbLine
 10
10.25762795506307
 20
105.6362374679163
 30
0.0
 11
11.75213426845584
 21
105.6362374679163
 31
0.0
  0
LINE
  5
84
330
31
100
AcDbEntity
  8
0
 62
126
100
AcDbLine
 10
29.51613949513557
 20
103.322962386316
 30
0.0
 11
-29.55392869514617
 21
103.322962386316
 31
0.0
  0
LINE
  5
85
330
31
100
AcDbEntity
  8
0
 62
126
100
AcDbLine
 10
-28.1448377860579
 20
68.69291868324285
 30
0.0
 11
-26.03120142241096
 21
70.17246413778116
 31
0.0
  0
LINE
  5
86
330
31
100
AcDbEntity
  8
0
 62
126
100
AcDbLine
 10
-14.05392869514617
 20
68.69291868324285
 30
0.0
 11
-16.16756505877856
 21
70.17246413778116
 31
0.0
  0
LINE
  5
87
330
31
100
AcDbEntity
  8
0
 62
126
100
AcDbLine
 10
-28.1448377860579
 20
83.62928231959881
 30
0.0
 11
-26.03120142241096
 21
82.1497368650605
 31
0.0
  0
LINE
  5
88
330
31
100
AcDbEntity
  8
0
 62
126
100
AcDbLine
 10
-14.05392869514617
 20
83.62928231959881
 30
0.0
 11
-16.16756505877856
 21
82.1497368650605
 31
0.0
  0
LINE
  5
89
330
31
100
AcDbEntity
  8
0
 62
126
100
AcDbLine
 10
-16.79541925939702
 20
80.95200960579746
 30
0.0
 11
-25.39711051331688
 21
80.95200960579746
 31
0.0
  0
LINE
  5
8A
330
31
100
AcDbEntity
  8
0
 62
126
100
AcDbLine
 10
-22.64921025383956
 20
71.82114096298824
 30
0.0
 11
-25.39711051331688
 21
72.88245124094897
 31
0.0
  0
LINE
  5
8B
330
31
100
AcDbEntity
  8
0
 62
126
100
AcDbLine
 10
-19.26216391659545
 20
71.82199253348585
 30
0.0
 11
-16.79541925939702
 21
72.78216699989639
 31
0.0
  0
LWPOLYLINE
  5
8C
330
31
100
AcDbEntity
  8
0
 62
126
100
AcDbPolyline
 90
6
 70
1
 10
-29.55392869514617
 20
90.50199736512216
 42
-0.4142135623730951
 10
-28.84938324058749
 20
91.20654281966631
 10
-28.84938324058749
 20
91.20654281966631
 42
-0.4142135623730951
 10
-28.1448377860579
 20
90.50199736512216
 10
-28.1448377860579
 20
85.03837322868708
 10
-29.55392869514617
 20
85.03837322868708
  0
LINE
  5
8D
330
31
100
AcDbEntity
  8
0
 62
126
100
AcDbLine
 10
-14.05392869514617
 20
67.28382777414004
 30
0.0
 11
-14.05392869514617
 21
64.89126155900954
 31
0.0
  0
ARC
  5
8E
330
31
100
AcDbEntity
  8
0
 62
126
100
AcDbCircle
 10
-13.34938324058748
 20
64.89126155900954
 30
0.0
 40
0.7045454545453324
100
AcDbArc
 50
180.0
 51
270.0
  0
ARC
  5
8F
330
31
100
AcDbEntity
  8
0
 62
126
100
AcDbCircle
 10
-13.34938324058748
 20
64.89126155900954
 30
0.0
 40
0.7045454545453956
100
AcDbArc
 50
270.0
 51
0.0
  0
LINE
  5
90
330
31
100
AcDbEntity
  8
0
 62
126
100
AcDbLine
 10
-12.6448377860579
 20
64.89126155900954
 30
0.0
 11
-12.6448377860579
 21
67.28382777414004
 31
0.0
  0
LINE
  5
91
330
31
100
AcDbEntity
  8
0
 62
126
100
AcDbLine
 10
-29.55392869514617
 20
67.28382777414004
 30
0.0
 11
-29.55392869514617
 21
64.89126155900954
 31
0.0
  0
ARC
  5
92
330
31
100
AcDbEntity
  8
0
 62
126
100
AcDbCircle
 10
-28.84938324058749
 20
64.89126155900954
 30
0.0
 40
0.7045454545453956
100
AcDbArc
 50
180.0
 51
270.0
  0
ARC
  5
93
330
31
100
AcDbEntity
  8
0
 62
126
100
AcDbCircle
 10
-28.84938324058749
 20
64.89126155900954
 30
0.0
 40
0.7045454545453956
100
AcDbArc
 50
270.0
 51
0.0
  0
LINE
  5
94
330
31
100
AcDbEntity
  8
0
 62
126
100
AcDbLine
 10
-28.1448377860579
 20
64.89126155900954
 30
0.0
 11
-28.1448377860579
 21
67.28382777414004
 31
0.0
  0
LWPOLYLINE
  5
95
330
31
100
AcDbEntity
  8
0
 62
126
100
AcDbPolyline
 90
4
 70
1
 10
-29.55392869514617
 20
85.03837322868708
 10
-12.6448377860579
 20
85.03837322868708
 10
-12.6448377860579
 20
67.28382777414004
 10
-29.55392869514617
 20
67.28382777414004
  0
LWPOLYLINE
  5
96
330
31
100
AcDbEntity
  8
0
 62
126
100
AcDbPolyline
 90
4
 70
1
 10
-28.1448377860579
 20
83.62928231959881
 10
-14.05392869514617
 20
83.62928231959881
 10
-14.05392869514617
 20
68.69291868324285
 10
-28.1448377860579
 20
68.69291868324285
  0
LWPOLYLINE
  5
97
330
31
100
AcDbEntity
  8
0
 62
126
100
AcDbPolyline
 90
4
 70
1
 10
-26.03120142241096
 20
82.1497368650605
 10
-16.16756505877856
 20
82.1497368650605
 10
-16.16756505877856
 20
70.17246413778116
 10
-26.03120142241096
 20
70.17246413778116
  0
LWPOLYLINE
  5
98
330
31
100
AcDbEntity
  8
0
 62
126
100
AcDbPolyline
 90
4
 70
0
 10
-25.39711051331688
 20
82.1497368650605
 10
-25.39711051331688
 20
72.92465941239857
 42
0.3099445346571803
 10
-25.21682789608167
 20
72.66176776793213
 10
-22.64921025383956
 20
71.67008730785233
  0
LWPOLYLINE
  5
99
330
31
100
AcDbEntity
  8
0
 62
126
100
AcDbPolyline
 90
4
 70
0
 10
-19.26216391659545
 20
71.67078495158125
 10
-16.97501166663278
 20
72.56105350240318
 42
0.3092248975359518
 10
-16.79541925939702
 20
72.82367752760251
 10
-16.79541925939702
 20
82.1497368650605
  0
LWPOLYLINE
  5
9A
330
31
100
AcDbEntity
  8
0
 62
126
100
AcDbPolyline
 90
4
 70
1
 10
-22.64921025383956
 20
71.82114096298824
 10
-19.26216391659545
 20
71.82114096298824
 10
-19.26216391659545
 20
70.17246413778116
 10
-22.64921025383956
 20
70.17246413778116
  0
LWPOLYLINE
  5
9B
330
31
100
AcDbEntity
  8
0
 62
126
100
AcDbPolyline
 90
5
 70
1
 10
-12.6448377860579
 20
90.50199736512216
 42
0.4142135623731083
 10
-13.34938324058748
 20
91.20654281966631
 42
0.4142135623730818
 10
-14.05392869514617
 20
90.50199736512216
 10
-14.05392869514617
 20
85.03837322868708
 10
-12.6448377860579
 20
85.03837322868708
  0
LINE
  5
9C
330
31
100
AcDbEntity
  8
0
 62
126
100
AcDbLine
 10
-7.064349145461164
 20
68.69291868324285
 30
0.0
 11
-4.950712781828769
 21
70.17246413778116
 31
0.0
  0
LINE
  5
9D
330
31
100
AcDbEntity
  8
0
 62
126
100
AcDbLine
 10
7.026559945450571
 20
68.69291868324285
 30
0.0
 11
4.912923581818176
 21
70.17246413778116
 31
0.0
  0
LINE
  5
9E
330
31
100
AcDbEntity
  8
0
 62
126
100
AcDbLine
 10
-7.064349145461164
 20
83.62928231959881
 30
0.0
 11
-4.950712781828769
 21
82.1497368650605
 31
0.0
  0
LINE
  5
9F
330
31
100
AcDbEntity
  8
0
 62
126
100
AcDbLine
 10
7.026559945450571
 20
83.62928231959881
 30
0.0
 11
4.912923581818176
 21
82.1497368650605
 31
0.0
  0
LINE
  5
A0
330
31
100
AcDbEntity
  8
0
 62
126
100
AcDbLine
 10
4.285069381199718
 20
80.95200960579746
 30
0.0
 11
-4.316621872734685
 21
80.95200960579746
 31
0.0
  0
LINE
  5
A1
330
31
100
AcDbEntity
  8
0
 62
126
100
AcDbLine
 10
-1.568721613257366
 20
71.82114096298824
 30
0.0
 11
-4.316621872734685
 21
72.88245124094897
 31
0.0
  0
LINE
  5
A2
330
31
100
AcDbEntity
  8
0
 62
126
100
AcDbLine
 10
1.818324723986734
 20
71.82199253348585
 30
0.0
 11
4.285069381199718
 21
72.78216699989639
 31
0.0
  0
LWPOLYLINE
  5
A3
330
31
100
AcDbEntity
  8
0
 62
126
100
AcDbPolyline
 90
6
 70
1
 10
-8.473440054549428
 20
90.50199736512216
 42
-0.4142135623730951
 10
-7.768894600005296
 20
91.20654281966631
 10
-7.768894600005296
 20
91.20654281966631
 42
-0.4142135623730951
 10
-7.064349145461164
 20
90.50199736512216
 10
-7.064349145461164
 20
85.03837322868708
 10
-8.473440054549428
 20
85.03837322868708
  0
LINE
  5
A4
330
31
100
AcDbEntity
  8
0
 62
126
100
AcDbLine
 10
7.026559945450571
 20
67.28382777414004
 30
0.0
 11
7.026559945450571
 21
64.89126155900954
 31
0.0
  0
ARC
  5
A5
330
31
100
AcDbEntity
  8
0
 62
126
100
AcDbCircle
 10
7.731105399994703
 20
64.89126155900954
 30
0.0
 40
0.7045454545453324
100
AcDbArc
 50
180.0
 51
270.0
  0
ARC
  5
A6
330
31
100
AcDbEntity
  8
0
 62
126
100
AcDbCircle
 10
7.731105399994703
 20
64.89126155900954
 30
0.0
 40
0.7045454545453956
100
AcDbArc
 50
270.0
 51
0.0
  0
LINE
  5
A7
330
31
100
AcDbEntity
  8
0
 62
126
100
AcDbLine
 10
8.435650854538835
 20
64.89126155900954
 30
0.0
 11
8.435650854538835
 21
67.28382777414004
 31
0.0
  0
LINE
  5
A8
330
31
100
AcDbEntity
  8
0
 62
126
100
AcDbLine
 10
-8.473440054549428
 20
67.28382777414004
 30
0.0
 11
-8.473440054549428
 21
64.89126155900954
 31
0.0
  0
ARC
  5
A9
330
31
100
AcDbEntity
  8
0
 62
126
100
AcDbCircle
 10
-7.768894600005296
 20
64.89126155900954
 30
0.0
 40
0.7045454545453956
100
AcDbArc
 50
180.0
 51
270.0
  0
ARC
  5
AA
330
31
100
AcDbEntity
  8
0
 62
126
100
AcDbCircle
 10
-7.768894600005296
 20
64.89126155900954
 30
0.0
 40
0.7045454545453956
100
AcDbArc
 50
270.0
 51
0.0
  0
LINE
  5
AB
330
31
100
AcDbEntity
  8
0
 62
126
100
AcDbLine
 10
-7.064349145461164
 20
64.89126155900954
 30
0.0
 11
-7.064349145461164
 21
67.28382777414004
 31
0.0
  0
LWPOLYLINE
  5
AC
330
31
100
AcDbEntity
  8
0
 62
126
100
AcDbPolyline
 90
4
 70
1
 10
-8.473440054549428
 20
85.03837322868708
 10
8.435650854538835
 20
85.03837322868708
 10
8.435650854538835
 20
67.28382777414004
 10
-8.473440054549428
 20
67.28382777414004
  0
LWPOLYLINE
  5
AD
330
31
100
AcDbEntity
  8
0
 62
126
100
AcDbPolyline
 90
4
 70
1
 10
-7.064349145461164
 20
83.62928231959881
 10
7.026559945450571
 20
83.62928231959881
 10
7.026559945450571
 20
68.69291868324285
 10
-7.064349145461164
 20
68.69291868324285
  0
LWPOLYLINE
  5
AE
330
31
100
AcDbEntity
  8
0
 62
126
100
AcDbPolyline
 90
4
 70
1
 10
-4.950712781828769
 20
82.1497368650605
 10
4.912923581818176
 20
82.1497368650605
 10
4.912923581818176
 20
70.17246413778116
 10
-4.950712781828769
 20
70.17246413778116
  0
LWPOLYLINE
  5
AF
330
31
100
AcDbEntity
  8
0
 62
126
100
AcDbPolyline
 90
4
 70
0
 10
-4.316621872734685
 20
82.1497368650605
 10
-4.316621872734685
 20
72.92465941239857
 42
0.3099445346571803
 10
-4.136339255484926
 20
72.66176776793213
 10
-1.568721613257366
 20
71.67008730785233
  0
LWPOLYLINE
  5
B0
330
31
100
AcDbEntity
  8
0
 62
126
100
AcDbPolyline
 90
4
 70
0
 10
1.818324723986734
 20
71.67078495158125
 10
4.105476973963959
 20
72.56105350240318
 42
0.3092248975359518
 10
4.285069381199718
 20
72.82367752760251
 10
4.285069381199718
 20
82.1497368650605
  0
LWPOLYLINE
  5
B1
330
31
100
AcDbEntity
  8
0
 62
126
100
AcDbPolyline
 90
4
 70
1
 10
-1.568721613257366
 20
71.82114096298824
 10
1.818324723986734
 20
71.82114096298824
 10
1.818324723986734
 20
70.17246413778116
 10
-1.568721613257366
 20
70.17246413778116
  0
LWPOLYLINE
  5
B2
330
31
100
AcDbEntity
  8
0
 62
126
100
AcDbPolyline
 90
5
 70
1
 10
8.435650854538835
 20
90.50199736512216
 42
0.4142135623731083
 10
7.731105399994703
 20
91.20654281966631
 42
0.4142135623730818
 10
7.026559945450571
 20
90.50199736512216
 10
7.026559945450571
 20
85.03837322868708
 10
8.435650854538835
 20
85.03837322868708
  0
LINE
  5
B3
330
31
100
AcDbEntity
  8
0
 62
126
100
AcDbLine
 10
14.01613949513557
 20
68.69291868324285
 30
0.0
 11
16.12977585876797
 21
70.17246413778116
 31
0.0
  0
LINE
  5
B4
330
31
100
AcDbEntity
  8
0
 62
126
100
AcDbLine
 10
28.10704858604731
 20
68.69291868324285
 30
0.0
 11
25.99341222240037
 21
70.17246413778116
 31
0.0
  0
LINE
  5
B5
330
31
100
AcDbEntity
  8
0
 62
126
100
AcDbLine
 10
14.01613949513557
 20
83.62928231959881
 30
0.0
 11
16.12977585876797
 21
82.1497368650605
 31
0.0
  0
LINE
  5
B6
330
31
100
AcDbEntity
  8
0
 62
126
100
AcDbLine
 10
28.10704858604731
 20
83.62928231959881
 30
0.0
 11
25.99341222240037
 21
82.1497368650605
 31
0.0
  0
LINE
  5
B7
330
31
100
AcDbEntity
  8
0
 62
126
100
AcDbLine
 10
25.36555802179646
 20
80.95200960579746
 30
0.0
 11
16.76386676786205
 21
80.95200960579746
 31
0.0
  0
LINE
  5
B8
330
31
100
AcDbEntity
  8
0
 62
126
100
AcDbLine
 10
19.51176702733937
 20
71.82114096298824
 30
0.0
 11
16.76386676786205
 21
72.88245124094897
 31
0.0
  0
LINE
  5
B9
330
31
100
AcDbEntity
  8
0
 62
126
100
AcDbLine
 10
22.89881336458348
 20
71.82199253348585
 30
0.0
 11
25.36555802179646
 21
72.78216699989639
 31
0.0
  0
LWPOLYLINE
  5
BA
330
31
100
AcDbEntity
  8
0
 62
126
100
AcDbPolyline
 90
6
 70
1
 10
12.60704858604731
 20
90.50199736512216
 42
-0.4142135623730951
 10
13.31159404059144
 20
91.20654281966631
 10
13.31159404059144
 20
91.20654281966631
 42
-0.4142135623730951
 10
14.01613949513557
 20
90.50199736512216
 10
14.01613949513557
 20
85.03837322868708
 10
12.60704858604731
 20
85.03837322868708
  0
LINE
  5
BB
330
31
100
AcDbEntity
  8
0
 62
126
100
AcDbLine
 10
28.10704858604731
 20
67.28382777414004
 30
0.0
 11
28.10704858604731
 21
64.89126155900954
 31
0.0
  0
ARC
  5
BC
330
31
100
AcDbEntity
  8
0
 62
126
100
AcDbCircle
 10
28.81159404059145
 20
64.89126155900954
 30
0.0
 40
0.7045454545453324
100
AcDbArc
 50
180.0
 51
270.0
  0
ARC
  5
BD
330
31
100
AcDbEntity
  8
0
 62
126
100
AcDbCircle
 10
28.81159404059145
 20
64.89126155900954
 30
0.0
 40
0.7045454545453956
100
AcDbArc
 50
270.0
 51
0.0
  0
LINE
  5
BE
330
31
100
AcDbEntity
  8
0
 62
126
100
AcDbLine
 10
29.51613949513557
 20
64.89126155900954
 30
0.0
 11
29.51613949513557
 21
67.28382777414004
 31
0.0
  0
LINE
  5
BF
330
31
100
AcDbEntity
  8
0
 62
126
100
AcDbLine
 10
12.60704858604731
 20
67.28382777414004
 30
0.0
 11
12.60704858604731
 21
64.89126155900954
 31
0.0
  0
ARC
  5
C0
330
31
100
AcDbEntity
  8
0
 62
126
100
AcDbCircle
 10
13.31159404059144
 20
64.89126155900954
 30
0.0
 40
0.7045454545453956
100
AcDbArc
 50
180.0
 51
270.0
  0
ARC
  5
C1
330
31
100
AcDbEntity
  8
0
 62
126
100
AcDbCircle
 10
13.31159404059144
 20
64.89126155900954
 30
0.0
 40
0.7045454545453956
100
AcDbArc
 50
270.0
 51
0.0
  0
LINE
  5
C2
330
31
100
AcDbEntity
  8
0
 62
126
100
AcDbLine
 10
14.01613949513557
 20
64.89126155900954
 30
0.0
 11
14.01613949513557
 21
67.28382777414004
 31
0.0
  0
LWPOLYLINE
  5
C3
330
31
100
AcDbEntity
  8
0
 62
126
100
AcDbPolyline
 90
4
 70
1
 10
12.60704858604731
 20
85.03837322868708
 10
29.51613949513557
 20
85.03837322868708
 10
29.51613949513557
 20
67.28382777414004
 10
12.60704858604731
 20
67.28382777414004
  0
LWPOLYLINE
  5
C4
330
31
100
AcDbEntity
  8
0
 62
126
100
AcDbPolyline
 90
4
 70
1
 10
14.01613949513557
 20
83.62928231959881
 10
28.10704858604731
 20
83.62928231959881
 10
28.10704858604731
 20
68.69291868324285
 10
14.01613949513557
 20
68.69291868324285
  0
LWPOLYLINE
  5
C5
330
31
100
AcDbEntity
  8
0
 62
126
100
AcDbPolyline
 90
4
 70
1
 10
16.12977585876797
 20
82.1497368650605
 10
25.99341222240037
 20
82.1497368650605
 10
25.99341222240037
 20
70.17246413778116
 10
16.12977585876797
 20
70.17246413778116
  0
LWPOLYLINE
  5
C6
330
31
100
AcDbEntity
  8
0
 62
126
100
AcDbPolyline
 90
4
 70
0
 10
16.76386676786205
 20
82.1497368650605
 10
16.76386676786205
 20
72.92465941239857
 42
0.3099445346571803
 10
16.94414938509726
 20
72.66176776793213
 10
19.51176702733937
 20
71.67008730785233
  0
LWPOLYLINE
  5
C7
330
31
100
AcDbEntity
  8
0
 62
126
100
AcDbPolyline
 90
4
 70
0
 10
22.89881336458348
 20
71.67078495158125
 10
25.18596561454615
 20
72.56105350240318
 42
0.3092248975359518
 10
25.36555802179646
 20
72.82367752760251
 10
25.36555802179646
 20
82.1497368650605
  0
LWPOLYLINE
  5
C8
330
31
100
AcDbEntity
  8
0
 62
126
100
AcDbPolyline
 90
4
 70
1
 10
19.51176702733937
 20
71.82114096298824
 10
22.89881336458348
 20
71.82114096298824
 10
22.89881336458348
 20
70.17246413778116
 10
19.51176702733937
 20
70.17246413778116
  0
LWPOLYLINE
  5
C9
330
31
100
AcDbEntity
  8
0
 62
126
100
AcDbPolyline
 90
5
 70
1
 10
29.51613949513557
 20
90.50199736512216
 42
0.4142135623731083
 10
28.81159404059145
 20
91.20654281966631
 42
0.4142135623730818
 10
28.10704858604731
 20
90.50199736512216
 10
28.10704858604731
 20
85.03837322868708
 10
29.51613949513557
 20
85.03837322868708
  0
LWPOLYLINE
  5
CA
330
31
100
AcDbEntity
  8
0
 62
126
100
AcDbPolyline
 90
4
 70
0
 10
-12.70071272158384
 20
105.2135101951869
 10
-12.70071272158384
 20
105.6362374679163
 10
-12.14047175771702
 20
105.6362374679163
 10
-12.14047175771702
 20
105.2135101951869
  0
LWPOLYLINE
  5
CB
330
31
100
AcDbEntity
  8
0
 62
126
100
AcDbPolyline
 90
4
 70
0
 10
-9.441128931874118
 20
105.2135101951869
 10
-9.441128931874118
 20
105.6362374679163
 10
-10.03678261758614
 20
105.6362374679163
 10
-10.03678261758614
 20
105.2135101951869
  0
LWPOLYLINE
  5
CC
330
31
100
AcDbEntity
  8
0
 62
126
100
AcDbPolyline
 90
4
 70
0
 10
-5.213856204594776
 20
105.2135101951869
 10
-5.213856204594776
 20
105.6362374679163
 10
-8.4734399943045
 20
105.6362374679163
 10
-8.4734399943045
 20
105.2135101951869
  0
LWPOLYLINE
  5
CD
330
31
100
AcDbEntity
  8
0
 62
126
100
AcDbPolyline
 90
4
 70
0
 10
-4.195236270308669
 20
105.2135101951869
 10
-4.195236270308669
 20
105.6362374679163
 10
-3.634995306456403
 20
105.6362374679163
 10
-3.634995306456403
 20
105.2135101951869
  0
LWPOLYLINE
  5
CE
330
31
100
AcDbEntity
  8
0
 62
126
100
AcDbPolyline
 90
4
 70
0
 10
-2.616375372184847
 20
105.2135101951869
 10
-2.616375372184847
 20
105.6362374679163
 10
-2.05613440831803
 20
105.6362374679163
 10
-2.05613440831803
 20
105.2135101951869
  0
LWPOLYLINE
  5
CF
330
31
100
AcDbEntity
  8
0
 62
126
100
AcDbPolyline
 90
4
 70
0
 10
0.6432084175248747
 20
105.2135101951869
 10
0.6432084175248747
 20
105.6362374679163
 10
0.047554731812852
 20
105.6362374679163
 10
0.047554731812852
 20
105.2135101951869
  0
LWPOLYLINE
  5
D0
330
31
100
AcDbEntity
  8
0
 62
126
100
AcDbPolyline
 90
4
 70
0
 10
2.654982787738845
 20
105.2135101951869
 10
2.654982787738845
 20
105.6362374679163
 10
3.215223751591111
 20
105.6362374679163
 10
3.215223751591111
 20
105.2135101951869
  0
LWPOLYLINE
  5
D1
330
31
100
AcDbEntity
  8
0
 62
126
100
AcDbPolyline
 90
4
 70
0
 10
5.176067125088593
 20
105.2135101951869
 10
5.176067125088593
 20
105.6362374679163
 10
8.282857924648852
 20
105.6362374679163
 10
8.282857924648852
 20
105.2135101951869
  0
LWPOLYLINE
  5
D2
330
31
100
AcDbEntity
  8
0
 62
126
100
AcDbPolyline
 90
4
 70
0
 10
12.4846651535554
 20
105.2135101951869
 10
12.4846651535554
 20
105.6362374679163
 10
11.75213426845584
 20
105.6362374679163
 10
11.75213426845584
 20
105.2135101951869
  0
LWPOLYLINE
  5
D3
330
31
100
AcDbEntity
  8
0
 62
126
100
AcDbPolyline
 90
4
 70
0
 10
10.25762795506307
 20
105.2135101951869
 10
10.25762795506307
 20
105.6362374679163
 10
9.581598340861092
 20
105.6362374679163
 10
9.581598340861092
 20
105.2135101951869
  0
LWPOLYLINE
  5
D4
330
31
100
AcDbEntity
  8
0
 62
126
100
AcDbPolyline
 90
3
 70
0
 10
9.021357377008826
 20
105.2135101951869
 10
9.021357377008826
 20
105.6362374679163
 10
9.581598340861092
 20
105.6362374679163
  0
LWPOLYLINE
  5
D5
330
31
100
AcDbEntity
  8
0
 62
126
100
AcDbPolyline
 90
3
 70
0
 10
3.215223751591111
 20
105.6362374679163
 10
4.590360662878083
 20
105.6362374679163
 10
4.590360662878083
 20
105.2135101951869
  0
LWPOLYLINE
  5
D6
330
31
100
AcDbEntity
  8
0
 62
126
100
AcDbPolyline
 90
3
 70
0
 10
2.654982787738845
 20
105.6362374679163
 10
1.279845876451872
 20
105.6362374679163
 10
1.279845876451872
 20
105.2135101951869
  0
LINE
  5
D7
330
31
100
AcDbEntity
  8
0
 62
126
100
AcDbLine
 10
-29.55392869514617
 20
105.2135101951869
 30
0.0
 11
-29.55392869514617
 21
63.00655507858095
 31
0.0
  0
LINE
  5
D8
330
31
100
AcDbEntity
  8
0
 62
126
100
AcDbLine
 10
29.51613949513557
 20
105.2135101951869
 30
0.0
 11
29.51613949513557
 21
63.00655507858095
 31
0.0
  0
LWPOLYLINE
  5
D9
330
31
100
AcDbEntity
  8
0
 62
126
100
AcDbPolyline
 90
6
 70
1
 10
-31.0188946000053
 20
55.21351019518693
 10
30.98110539999471
 20
55.21351019518693
 10
30.98110539999471
 20
104.5089647406428
 42
0.4142135623730832
 10
30.27655994545057
 20
105.2135101951869
 10
-30.31434914546117
 20
105.2135101951869
 42
0.4142135623730966
 10
-31.0188946000053
 20
104.5089647406428
  0
LINE
  5
DA
330
31
100
AcDbEntity
  8
0
 62
126
100
AcDbLine
 10
29.51613949513557
 20
91.21271486325055
 30
0.0
 11
-29.55392869514617
 21
91.21271486325055
 31
0.0
  0
HATCH
  5
DB
330
31
100
AcDbEntity
  8
0
 62
126
 60
1
100
AcDbHatch
 10
0.0
 20
0.0
 30
0.0
210
0.0
220
0.0
230
1.0
  2
DASH
 70
0
 71
0
 91
7
 92
16
 93
1
 72
2
 10
23.60098894857947
 20
11.51911668078068
 40
4.339999999999999
 50
0.0
 51
360.0
 73
1
 97
1
330
1AB7F
 92
16
 93
1
 72
2
 10
-0.0188946000052965
 20
11.51911668078068
 40
4.339999999999999
 50
0.0
 51
360.0
 73
1
 97
1
330
1AB7D
 92
16
 93
1
 72
2
 10
-23.63877814860462
 20
11.51911668078068
 40
4.339999999999999
 50
0.0
 51
360.0
 73
1
 97
1
330
1AB7E
 92
16
 93
1
 72
2
 10
-23.63877814860462
 20
-13.2808833192295
 40
4.339999999999999
 50
0.0
 51
360.0
 73
1
 97
1
330
1AB7B
 92
16
 93
1
 72
2
 10
-0.0188946000052965
 20
-13.2808833192295
 40
4.339999999999999
 50
0.0
 51
360.0
 73
1
 97
1
330
1AB7A
 92
16
 93
1
 72
2
 10
23.60098894857947
 20
-13.2808833192295
 40
4.339999999999999
 50
0.0
 51
360.0
 73
1
 97
1
330
1AB7C
 92
1
 93
8
 72
1
 10
-24.81889460000821
 20
-25.68088331923096
 11
24.78110539999761
 21
-25.68088331923096
 72
2
 10
24.78110539999398
 20
-19.48088331923023
 40
6.200000000000727
 50
270.0000000000336
 51
360.0000000000337
 73
1
 72
1
 10
30.98110539999471
 20
-19.48088331922659
 11
30.98110539999471
 21
17.7191166807705
 72
2
 10
24.78110539999398
 20
17.71911668077413
 40
6.200000000000727
 50
359.9999999999663
 51
449.9999999999664
 73
1
 72
1
 10
24.78110539999761
 20
23.91911668077487
 11
-24.81889460000821
 21
23.91911668077487
 72
2
 10
-24.81889460000457
 20
17.71911668077413
 40
6.200000000000727
 50
90.0000000000336
 51
180.0000000000336
 73
1
 72
1
 10
-31.0188946000053
 20
17.7191166807705
 11
-31.0188946000053
 21
-19.48088331922659
 72
2
 10
-24.81889460000457
 20
-19.48088331923023
 40
6.200000000000727
 50
179.9999999999664
 51
269.9999999999664
 73
1
 97
1
330
1AB77
 75
0
 76
1
 52
0.0
 41
0.6200000000000001
 77
0
 78
1
 53
0.0
 43
-85875.26497391833
 44
-43611.98597674782
 45
1.968499999999999
 46
1.968499999999999
 79
2
 49
1.968499999999999
 49
-1.968499999999999
 98
1
 10
-85875.26497391833
 20
-43611.98597674782
  0
LWPOLYLINE
  5
DC
330
31
100
AcDbEntity
  8
0
 62
126
 60
1
100
AcDbPolyline
 90
8
 70
1
 10
-24.81889460000821
 20
-25.68088331923096
 10
24.78110539999761
 20
-25.68088331923096
 42
0.4142135623730951
 10
30.98110539999471
 20
-19.48088331922659
 10
30.98110539999471
 20
17.7191166807705
 42
0.4142135623730951
 10
24.78110539999761
 20
23.91911668077487
 10
-24.81889460000821
 20
23.91911668077487
 42
0.4142135623730951
 10
-31.0188946000053
 20
17.7191166807705
 10
-31.0188946000053
 20
-19.48088331922659
 42
0.4142135623730951
  0
CIRCLE
  5
DD
330
31
100
AcDbEntity
  8
0
 62
126
 60
1
100
AcDbCircle
 10
-0.0188946000052965
 20
-0.8808833192280474
 30
0.0
 40
57.9212206096563
  0
CIRCLE
  5
DE
330
31
100
AcDbEntity
  8
0
 62
126
 60
1
100
AcDbCircle
 10
-0.0188946000052965
 20
-0.8808833192280474
 30
0.0
 40
54.87273531441124
  0
CIRCLE
  5
DF
330
31
100
AcDbEntity
  8
0
 62
126
 60
1
100
AcDbCircle
 10
-0.0188946000052965
 20
-13.2808833192295
 30
0.0
 40
4.339999999999999
  0
CIRCLE
  5
E0
330
31
100
AcDbEntity
  8
0
 62
126
 60
1
100
AcDbCircle
 10
-23.63877814860462
 20
-13.2808833192295
 30
0.0
 40
4.339999999999999
  0
CIRCLE
  5
E1
330
31
100
AcDbEntity
  8
0
 62
126
 60
1
100
AcDbCircle
 10
23.60098894857947
 20
-13.2808833192295
 30
0.0
 40
4.339999999999999
  0
CIRCLE
  5
E2
330
31
100
AcDbEntity
  8
0
 62
126
 60
1
100
AcDbCircle
 10
-0.0188946000052965
 20
11.51911668078068
 30
0.0
 40
4.339999999999999
  0
CIRCLE
  5
E3
330
31
100
AcDbEntity
  8
0
 62
126
 60
1
100
AcDbCircle
 10
-23.63877814860462
 20
11.51911668078068
 30
0.0
 40
4.339999999999999
  0
CIRCLE
  5
E4
330
31
100
AcDbEntity
  8
0
 62
126
 60
1
100
AcDbCircle
 10
23.60098894857947
 20
11.51911668078068
 30
0.0
 40
4.339999999999999
  0
ARC
  5
E5
330
31
100
AcDbEntity
  8
INSIDE
 62
4
 60
1
100
AcDbCircle
 10
23.6962802729031
 20
13.27831894370578
 30
0.0
 40
0.6228837209293809
100
AcDbArc
 50
221.8994695253392
 51
311.8994695259281
  0
LINE
  5
E6
330
31
100
AcDbEntity
  8
INSIDE
 62
4
 60
1
100
AcDbLine
 10
24.11225800756802
 20
12.81469554690088
 30
0.0
 11
25.9278442187715
 21
14.44369754382464
 31
0.0
  0
LINE
  5
E7
330
31
100
AcDbEntity
  8
INSIDE
 62
4
 60
1
100
AcDbLine
 10
23.23265687609819
 20
12.86234120905541
 30
0.0
 11
22.40070140676835
 21
13.78958800266522
 31
0.0
  0
ARC
  5
E8
330
31
100
AcDbEntity
  8
INSIDE
 62
4
 60
1
100
AcDbCircle
 10
25.36019121153368
 20
11.42382535648616
 30
0.0
 40
0.6228837209293809
100
AcDbArc
 50
131.8994695259281
 51
221.8994695253392
  0
LINE
  5
E9
330
31
100
AcDbEntity
  8
INSIDE
 62
4
 60
1
100
AcDbLine
 10
24.94421347686876
 20
11.88744875329106
 30
0.0
 11
26.75979968807224
 21
13.51645075020755
 31
0.0
  0
LINE
  5
EA
330
31
100
AcDbEntity
  8
INSIDE
 62
4
 60
1
100
AcDbLine
 10
25.72852328402951
 20
10.08060082821143
 30
0.0
 11
24.89656781472877
 21
11.00784762182124
 31
0.0
  0
ARC
  5
EB
330
31
100
AcDbEntity
  8
INSIDE
 62
4
 60
1
100
AcDbCircle
 10
23.50569762431405
 20
9.759914417848307
 30
0.0
 40
0.6228837209293809
100
AcDbArc
 50
41.89946952533925
 51
131.8994695259281
  0
LINE
  5
EC
330
31
100
AcDbEntity
  8
INSIDE
 62
4
 60
1
100
AcDbLine
 10
24.8012764904197
 20
9.248645358896141
 30
0.0
 11
23.96932102111896
 21
10.17589215250595
 31
0.0
  0
LINE
  5
ED
330
31
100
AcDbEntity
  8
INSIDE
 62
4
 60
1
100
AcDbLine
 10
21.2741336784311
 20
8.594535817736727
 30
0.0
 11
23.08971988964913
 21
10.22353781465321
 31
0.0
  0
ARC
  5
EE
330
31
100
AcDbEntity
  8
INSIDE
 62
4
 60
1
100
AcDbCircle
 10
21.84178668566892
 20
11.6144080050752
 30
0.0
 40
0.6228837209293809
100
AcDbArc
 50
311.8994695259281
 51
41.89946952533925
  0
LINE
  5
EF
330
31
100
AcDbEntity
  8
INSIDE
 62
4
 60
1
100
AcDbLine
 10
22.30541008247383
 20
12.03038573973285
 30
0.0
 11
21.47345461315854
 21
12.95763253334994
 31
0.0
  0
LINE
  5
F0
330
31
100
AcDbEntity
  8
INSIDE
 62
4
 60
1
100
AcDbLine
 10
20.44217820911581
 20
9.521782611346538
 30
0.0
 11
22.25776442031929
 21
11.15078460826302
 31
0.0
  0
LINE
  5
F1
330
31
100
AcDbEntity
  8
INSIDE
  6
Continuous
 62
4
 60
1
100
AcDbLine
 10
24.8012764904197
 20
9.248645358896141
 30
0.0
 11
25.72852328402951
 21
10.08060082821143
 31
0.0
  0
LINE
  5
F2
330
31
100
AcDbEntity
  8
INSIDE
  6
Continuous
 62
4
 60
1
100
AcDbLine
 10
21.47345461315854
 20
12.95763253334994
 30
0.0
 11
22.40070140676835
 21
13.78958800266522
 31
0.0
  0
CIRCLE
  5
F3
330
31
100
AcDbEntity
  8
INSIDE
  6
Continuous
 62
4
 60
1
100
AcDbCircle
 10
23.60098894859402
 20
11.51911668078068
 30
0.0
 40
3.737302325576284
  0
ARC
  5
F4
330
31
100
AcDbEntity
  8
INSIDE
 62
4
 60
1
100
AcDbCircle
 10
0.0763967243183288
 20
13.27831894370578
 30
0.0
 40
0.6228837209293809
100
AcDbArc
 50
221.8994695253392
 51
311.8994695259281
  0
LINE
  5
F5
330
31
100
AcDbEntity
  8
INSIDE
 62
4
 60
1
100
AcDbLine
 10
0.4923744589832495
 20
12.81469554690088
 30
0.0
 11
2.30796067018673
 21
14.44369754382464
 31
0.0
  0
LINE
  5
F6
330
31
100
AcDbEntity
  8
INSIDE
 62
4
 60
1
100
AcDbLine
 10
-0.3872266724865767
 20
12.86234120905541
 30
0.0
 11
-1.219182141816418
 21
13.78958800266522
 31
0.0
  0
ARC
  5
F7
330
31
100
AcDbEntity
  8
INSIDE
 62
4
 60
1
100
AcDbCircle
 10
1.740307662948907
 20
11.42382535648616
 30
0.0
 40
0.6228837209293809
100
AcDbArc
 50
131.8994695259281
 51
221.8994695253392
  0
LINE
  5
F8
330
31
100
AcDbEntity
  8
INSIDE
 62
4
 60
1
100
AcDbLine
 10
1.324329928283987
 20
11.88744875329106
 30
0.0
 11
3.139916139487468
 21
13.51645075020755
 31
0.0
  0
LINE
  5
F9
330
31
100
AcDbEntity
  8
INSIDE
 62
4
 60
1
100
AcDbLine
 10
2.108639735444739
 20
10.08060082821143
 30
0.0
 11
1.276684266144002
 21
11.00784762182124
 31
0.0
  0
ARC
  5
FA
330
31
100
AcDbEntity
  8
INSIDE
 62
4
 60
1
100
AcDbCircle
 10
-0.1141859242707142
 20
9.759914417848307
 30
0.0
 40
0.6228837209293809
100
AcDbArc
 50
41.89946952533925
 51
131.8994695259281
  0
LINE
  5
FB
330
31
100
AcDbEntity
  8
INSIDE
 62
4
 60
1
100
AcDbLine
 10
1.181392941834928
 20
9.248645358896141
 30
0.0
 11
0.3494374725341913
 21
10.17589215250595
 31
0.0
  0
LINE
  5
FC
330
31
100
AcDbEntity
  8
INSIDE
 62
4
 60
1
100
AcDbLine
 10
-2.345749870153667
 20
8.594535817736727
 30
0.0
 11
-0.5301636589356349
 21
10.22353781465321
 31
0.0
  0
ARC
  5
FD
330
31
100
AcDbEntity
  8
INSIDE
 62
4
 60
1
100
AcDbCircle
 10
-1.778096862915845
 20
11.6144080050752
 30
0.0
 40
0.6228837209293809
100
AcDbArc
 50
311.8994695259281
 51
41.89946952533925
  0
LINE
  5
FE
330
31
100
AcDbEntity
  8
INSIDE
 62
4
 60
1
100
AcDbLine
 10
-1.314473466110939
 20
12.03038573973285
 30
0.0
 11
-2.146428935426229
 21
12.95763253334994
 31
0.0
  0
LINE
  5
FF
330
31
100
AcDbEntity
  8
INSIDE
 62
4
 60
1
100
AcDbLine
 10
-3.177705339468957
 20
9.521782611346538
 30
0.0
 11
-1.362119128265476
 21
11.15078460826302
 31
0.0
  0
LINE
  5
100
330
31
100
AcDbEntity
  8
INSIDE
  6
Continuous
 62
4
 60
1
100
AcDbLine
 10
1.181392941834928
 20
9.248645358896141
 30
0.0
 11
2.108639735444739
 21
10.08060082821143
 31
0.0
  0
LINE
  5
101
330
31
100
AcDbEntity
  8
INSIDE
  6
Continuous
 62
4
 60
1
100
AcDbLine
 10
-2.146428935426229
 20
12.95763253334994
 30
0.0
 11
-1.219182141816418
 21
13.78958800266522
 31
0.0
  0
CIRCLE
  5
102
330
31
100
AcDbEntity
  8
INSIDE
  6
Continuous
 62
4
 60
1
100
AcDbCircle
 10
-0.0188945999907446
 20
11.51911668078068
 30
0.0
 40
3.737302325576284
  0
ARC
  5
103
330
31
100
AcDbEntity
  8
INSIDE
 62
4
 60
1
100
AcDbCircle
 10
-23.54348682428099
 20
13.27831894370578
 30
0.0
 40
0.6228837209293809
100
AcDbArc
 50
221.8994695253392
 51
311.8994695259281
  0
LINE
  5
104
330
31
100
AcDbEntity
  8
INSIDE
 62
4
 60
1
100
AcDbLine
 10
-23.12750908963062
 20
12.81469554690088
 30
0.0
 11
-21.31192287842714
 21
14.44369754382464
 31
0.0
  0
LINE
  5
105
330
31
100
AcDbEntity
  8
INSIDE
 62
4
 60
1
100
AcDbLine
 10
-24.0071102210859
 20
12.86234120905541
 30
0.0
 11
-24.83906569041574
 21
13.78958800266522
 31
0.0
  0
ARC
  5
106
330
31
100
AcDbEntity
  8
INSIDE
 62
4
 60
1
100
AcDbCircle
 10
-21.87957588565041
 20
11.42382535648616
 30
0.0
 40
0.6228837209293809
100
AcDbArc
 50
131.8994695259281
 51
221.8994695253392
  0
LINE
  5
107
330
31
100
AcDbEntity
  8
INSIDE
 62
4
 60
1
100
AcDbLine
 10
-22.29555362031533
 20
11.88744875329106
 30
0.0
 11
-20.47996740911185
 21
13.51645075020755
 31
0.0
  0
LINE
  5
108
330
31
100
AcDbEntity
  8
INSIDE
 62
4
 60
1
100
AcDbLine
 10
-21.51124381315458
 20
10.08060082821143
 30
0.0
 11
-22.34319928245532
 21
11.00784762182124
 31
0.0
  0
ARC
  5
109
330
31
100
AcDbEntity
  8
INSIDE
 62
4
 60
1
100
AcDbCircle
 10
-23.73406947288458
 20
9.759914417848307
 30
0.0
 40
0.6228837209293809
100
AcDbArc
 50
41.89946952533925
 51
131.8994695259281
  0
LINE
  5
10A
330
31
100
AcDbEntity
  8
INSIDE
 62
4
 60
1
100
AcDbLine
 10
-22.43849060676439
 20
9.248645358896141
 30
0.0
 11
-23.27044607606513
 21
10.17589215250595
 31
0.0
  0
LINE
  5
10B
330
31
100
AcDbEntity
  8
INSIDE
 62
4
 60
1
100
AcDbLine
 10
-25.96563341876754
 20
8.594535817736727
 30
0.0
 11
-24.15004720753496
 21
10.22353781465321
 31
0.0
  0
ARC
  5
10C
330
31
100
AcDbEntity
  8
INSIDE
 62
4
 60
1
100
AcDbCircle
 10
-25.39798041152972
 20
11.6144080050752
 30
0.0
 40
0.6228837209293809
100
AcDbArc
 50
311.8994695259281
 51
41.89946952533925
  0
LINE
  5
10D
330
31
100
AcDbEntity
  8
INSIDE
 62
4
 60
1
100
AcDbLine
 10
-24.93435701472481
 20
12.03038573973285
 30
0.0
 11
-25.76631248402555
 21
12.95763253334994
 31
0.0
  0
LINE
  5
10E
330
31
100
AcDbEntity
  8
INSIDE
 62
4
 60
1
100
AcDbLine
 10
-26.79758888806828
 20
9.521782611346538
 30
0.0
 11
-24.9820026768648
 21
11.15078460826302
 31
0.0
  0
LINE
  5
10F
330
31
100
AcDbEntity
  8
INSIDE
  6
Continuous
 62
4
 60
1
100
AcDbLine
 10
-22.43849060676439
 20
9.248645358896141
 30
0.0
 11
-21.51124381315458
 21
10.08060082821143
 31
0.0
  0
LINE
  5
110
330
31
100
AcDbEntity
  8
INSIDE
  6
Continuous
 62
4
 60
1
100
AcDbLine
 10
-25.76631248402555
 20
12.95763253334994
 30
0.0
 11
-24.83906569041574
 21
13.78958800266522
 31
0.0
  0
CIRCLE
  5
111
330
31
100
AcDbEntity
  8
INSIDE
  6
Continuous
 62
4
 60
1
100
AcDbCircle
 10
-23.63877814859006
 20
11.51911668078068
 30
0.0
 40
3.737302325576284
  0
ARC
  5
112
330
31
100
AcDbEntity
  8
INSIDE
 62
4
 60
1
100
AcDbCircle
 10
23.6962802729031
 20
-11.5216810563044
 30
0.0
 40
0.6228837209293809
100
AcDbArc
 50
221.8994695253392
 51
311.8994695259281
  0
LINE
  5
113
330
31
100
AcDbEntity
  8
INSIDE
 62
4
 60
1
100
AcDbLine
 10
24.11225800756802
 20
-11.98530445310931
 30
0.0
 11
25.9278442187715
 21
-10.35630245618554
 31
0.0
  0
LINE
  5
114
330
31
100
AcDbEntity
  8
INSIDE
 62
4
 60
1
100
AcDbLine
 10
23.23265687609819
 20
-11.93765879095477
 30
0.0
 11
22.40070140676835
 21
-11.01041199734496
 31
0.0
  0
ARC
  5
115
330
31
100
AcDbEntity
  8
INSIDE
 62
4
 60
1
100
AcDbCircle
 10
25.36019121153368
 20
-13.37617464352402
 30
0.0
 40
0.6228837209293809
100
AcDbArc
 50
131.8994695259281
 51
221.8994695253392
  0
LINE
  5
116
330
31
100
AcDbEntity
  8
INSIDE
 62
4
 60
1
100
AcDbLine
 10
24.94421347686876
 20
-12.91255124671912
 30
0.0
 11
26.75979968807224
 21
-11.28354924979535
 31
0.0
  0
LINE
  5
117
330
31
100
AcDbEntity
  8
INSIDE
 62
4
 60
1
100
AcDbLine
 10
25.72852328402951
 20
-14.71939917179875
 30
0.0
 11
24.89656781472877
 21
-13.79215237818894
 31
0.0
  0
ARC
  5
118
330
31
100
AcDbEntity
  8
INSIDE
 62
4
 60
1
100
AcDbCircle
 10
23.50569762431405
 20
-15.04008558216188
 30
0.0
 40
0.6228837209293809
100
AcDbArc
 50
41.89946952533925
 51
131.8994695259281
  0
LINE
  5
119
330
31
100
AcDbEntity
  8
INSIDE
 62
4
 60
1
100
AcDbLine
 10
24.8012764904197
 20
-15.55135464111404
 30
0.0
 11
23.96932102111896
 21
-14.62410784750423
 31
0.0
  0
LINE
  5
11A
330
31
100
AcDbEntity
  8
INSIDE
 62
4
 60
1
100
AcDbLine
 10
21.2741336784311
 20
-16.20546418227346
 30
0.0
 11
23.08971988964913
 21
-14.57646218535697
 31
0.0
  0
ARC
  5
11B
330
31
100
AcDbEntity
  8
INSIDE
 62
4
 60
1
100
AcDbCircle
 10
21.84178668566892
 20
-13.18559199493498
 30
0.0
 40
0.6228837209293809
100
AcDbArc
 50
311.8994695259281
 51
41.89946952533925
  0
LINE
  5
11C
330
31
100
AcDbEntity
  8
INSIDE
 62
4
 60
1
100
AcDbLine
 10
22.30541008247383
 20
-12.76961426027733
 30
0.0
 11
21.47345461315854
 21
-11.84236746666025
 31
0.0
  0
LINE
  5
11D
330
31
100
AcDbEntity
  8
INSIDE
 62
4
 60
1
100
AcDbLine
 10
20.44217820911581
 20
-15.27821738865637
 30
0.0
 11
22.25776442031929
 21
-13.64921539174716
 31
0.0
  0
LINE
  5
11E
330
31
100
AcDbEntity
  8
INSIDE
  6
Continuous
 62
4
 60
1
100
AcDbLine
 10
24.8012764904197
 20
-15.55135464111404
 30
0.0
 11
25.72852328402951
 21
-14.71939917179875
 31
0.0
  0
LINE
  5
11F
330
31
100
AcDbEntity
  8
INSIDE
  6
Continuous
 62
4
 60
1
100
AcDbLine
 10
21.47345461315854
 20
-11.84236746666025
 30
0.0
 11
22.40070140676835
 21
-11.01041199734496
 31
0.0
  0
CIRCLE
  5
120
330
31
100
AcDbEntity
  8
INSIDE
  6
Continuous
 62
4
 60
1
100
AcDbCircle
 10
23.60098894859402
 20
-13.2808833192295
 30
0.0
 40
3.737302325576284
  0
ARC
  5
121
330
31
100
AcDbEntity
  8
INSIDE
 62
4
 60
1
100
AcDbCircle
 10
0.0763967243183288
 20
-11.5216810563044
 30
0.0
 40
0.6228837209293809
100
AcDbArc
 50
221.8994695253392
 51
311.8994695259281
  0
LINE
  5
122
330
31
100
AcDbEntity
  8
INSIDE
 62
4
 60
1
100
AcDbLine
 10
0.4923744589832495
 20
-11.98530445310931
 30
0.0
 11
2.30796067018673
 21
-10.35630245618554
 31
0.0
  0
LINE
  5
123
330
31
100
AcDbEntity
  8
INSIDE
 62
4
 60
1
100
AcDbLine
 10
-0.3872266724865767
 20
-11.93765879095477
 30
0.0
 11
-1.219182141816418
 21
-11.01041199734496
 31
0.0
  0
ARC
  5
124
330
31
100
AcDbEntity
  8
INSIDE
 62
4
 60
1
100
AcDbCircle
 10
1.740307662948907
 20
-13.37617464352402
 30
0.0
 40
0.6228837209293809
100
AcDbArc
 50
131.8994695259281
 51
221.8994695253392
  0
LINE
  5
125
330
31
100
AcDbEntity
  8
INSIDE
 62
4
 60
1
100
AcDbLine
 10
1.324329928283987
 20
-12.91255124671912
 30
0.0
 11
3.139916139487468
 21
-11.28354924979535
 31
0.0
  0
LINE
  5
126
330
31
100
AcDbEntity
  8
INSIDE
 62
4
 60
1
100
AcDbLine
 10
2.108639735444739
 20
-14.71939917179875
 30
0.0
 11
1.276684266144002
 21
-13.79215237818894
 31
0.0
  0
ARC
  5
127
330
31
100
AcDbEntity
  8
INSIDE
 62
4
 60
1
100
AcDbCircle
 10
-0.1141859242707142
 20
-15.04008558216188
 30
0.0
 40
0.6228837209293809
100
AcDbArc
 50
41.89946952533925
 51
131.8994695259281
  0
LINE
  5
128
330
31
100
AcDbEntity
  8
INSIDE
 62
4
 60
1
100
AcDbLine
 10
1.181392941834928
 20
-15.55135464111404
 30
0.0
 11
0.3494374725341913
 21
-14.62410784750423
 31
0.0
  0
LINE
  5
129
330
31
100
AcDbEntity
  8
INSIDE
 62
4
 60
1
100
AcDbLine
 10
-2.345749870153667
 20
-16.20546418227346
 30
0.0
 11
-0.5301636589356349
 21
-14.57646218535697
 31
0.0
  0
ARC
  5
12A
330
31
100
AcDbEntity
  8
INSIDE
 62
4
 60
1
100
AcDbCircle
 10
-1.778096862915845
 20
-13.18559199493498
 30
0.0
 40
0.6228837209293809
100
AcDbArc
 50
311.8994695259281
 51
41.89946952533925
  0
LINE
  5
12B
330
31
100
AcDbEntity
  8
INSIDE
 62
4
 60
1
100
AcDbLine
 10
-1.314473466110939
 20
-12.76961426027733
 30
0.0
 11
-2.146428935426229
 21
-11.84236746666025
 31
0.0
  0
LINE
  5
12C
330
31
100
AcDbEntity
  8
INSIDE
 62
4
 60
1
100
AcDbLine
 10
-3.177705339468957
 20
-15.27821738865637
 30
0.0
 11
-1.362119128265476
 21
-13.64921539174716
 31
0.0
  0
LINE
  5
12D
330
31
100
AcDbEntity
  8
INSIDE
  6
Continuous
 62
4
 60
1
100
AcDbLine
 10
1.181392941834928
 20
-15.55135464111404
 30
0.0
 11
2.108639735444739
 21
-14.71939917179875
 31
0.0
  0
LINE
  5
12E
330
31
100
AcDbEntity
  8
INSIDE
  6
Continuous
 62
4
 60
1
100
AcDbLine
 10
-2.146428935426229
 20
-11.84236746666025
 30
0.0
 11
-1.219182141816418
 21
-11.01041199734496
 31
0.0
  0
CIRCLE
  5
12F
330
31
100
AcDbEntity
  8
INSIDE
  6
Continuous
 62
4
 60
1
100
AcDbCircle
 10
-0.0188945999907446
 20
-13.2808833192295
 30
0.0
 40
3.737302325576284
  0
ARC
  5
130
330
31
100
AcDbEntity
  8
INSIDE
 62
4
 60
1
100
AcDbCircle
 10
-23.54348682428099
 20
-11.5216810563044
 30
0.0
 40
0.6228837209293809
100
AcDbArc
 50
221.8994695253392
 51
311.8994695259281
  0
LINE
  5
131
330
31
100
AcDbEntity
  8
INSIDE
 62
4
 60
1
100
AcDbLine
 10
-23.12750908963062
 20
-11.98530445310931
 30
0.0
 11
-21.31192287842714
 21
-10.35630245618554
 31
0.0
  0
LINE
  5
132
330
31
100
AcDbEntity
  8
INSIDE
 62
4
 60
1
100
AcDbLine
 10
-24.0071102210859
 20
-11.93765879095477
 30
0.0
 11
-24.83906569041574
 21
-11.01041199734496
 31
0.0
  0
ARC
  5
133
330
31
100
AcDbEntity
  8
INSIDE
 62
4
 60
1
100
AcDbCircle
 10
-21.87957588565041
 20
-13.37617464352402
 30
0.0
 40
0.6228837209293809
100
AcDbArc
 50
131.8994695259281
 51
221.8994695253392
  0
LINE
  5
134
330
31
100
AcDbEntity
  8
INSIDE
 62
4
 60
1
100
AcDbLine
 10
-22.29555362031533
 20
-12.91255124671912
 30
0.0
 11
-20.47996740911185
 21
-11.28354924979535
 31
0.0
  0
LINE
  5
135
330
31
100
AcDbEntity
  8
INSIDE
 62
4
 60
1
100
AcDbLine
 10
-21.51124381315458
 20
-14.71939917179875
 30
0.0
 11
-22.34319928245532
 21
-13.79215237818894
 31
0.0
  0
ARC
  5
136
330
31
100
AcDbEntity
  8
INSIDE
 62
4
 60
1
100
AcDbCircle
 10
-23.73406947288458
 20
-15.04008558216188
 30
0.0
 40
0.6228837209293809
100
AcDbArc
 50
41.89946952533925
 51
131.8994695259281
  0
LINE
  5
137
330
31
100
AcDbEntity
  8
INSIDE
 62
4
 60
1
100
AcDbLine
 10
-22.43849060676439
 20
-15.55135464111404
 30
0.0
 11
-23.27044607606513
 21
-14.62410784750423
 31
0.0
  0
LINE
  5
138
330
31
100
AcDbEntity
  8
INSIDE
 62
4
 60
1
100
AcDbLine
 10
-25.96563341876754
 20
-16.20546418227346
 30
0.0
 11
-24.15004720753496
 21
-14.57646218535697
 31
0.0
  0
ARC
  5
139
330
31
100
AcDbEntity
  8
INSIDE
 62
4
 60
1
100
AcDbCircle
 10
-25.39798041152972
 20
-13.18559199493498
 30
0.0
 40
0.6228837209293809
100
AcDbArc
 50
311.8994695259281
 51
41.89946952533925
  0
LINE
  5
13A
330
31
100
AcDbEntity
  8
INSIDE
 62
4
 60
1
100
AcDbLine
 10
-24.93435701472481
 20
-12.76961426027733
 30
0.0
 11
-25.76631248402555
 21
-11.84236746666025
 31
0.0
  0
LINE
  5
13B
330
31
100
AcDbEntity
  8
INSIDE
 62
4
 60
1
100
AcDbLine
 10
-26.79758888806828
 20
-15.27821738865637
 30
0.0
 11
-24.9820026768648
 21
-13.64921539174716
 31
0.0
  0
LINE
  5
13C
330
31
100
AcDbEntity
  8
INSIDE
  6
Continuous
 62
4
 60
1
100
AcDbLine
 10
-22.43849060676439
 20
-15.55135464111404
 30
0.0
 11
-21.51124381315458
 21
-14.71939917179875
 31
0.0
  0
LINE
  5
13D
330
31
100
AcDbEntity
  8
INSIDE
  6
Continuous
 62
4
 60
1
100
AcDbLine
 10
-25.76631248402555
 20
-11.84236746666025
 30
0.0
 11
-24.83906569041574
 21
-11.01041199734496
 31
0.0
  0
CIRCLE
  5
13E
330
31
100
AcDbEntity
  8
INSIDE
  6
Continuous
 62
4
 60
1
100
AcDbCircle
 10
-23.63877814859006
 20
-13.2808833192295
 30
0.0
 40
3.737302325576284
  0
LINE
  5
13F
330
31
100
AcDbEntity
  8
0
 62
251
370
9
 60
1
100
AcDbLine
 10
-0.0188946000052965
 20
5.119116680771952
 30
0.0
 11
-0.0188946000052965
 21
-6.880883319228047
 31
0.0
  0
LINE
  5
140
330
31
100
AcDbEntity
  8
0
 62
251
370
9
 60
1
100
AcDbLine
 10
-6.018894600005296
 20
-0.8808833192280474
 30
0.0
 11
5.981105399994703
 21
-0.8808833192280474
 31
0.0
  0
CIRCLE
  5
141
330
31
100
AcDbEntity
  8
0
 62
251
370
9
 60
1
100
AcDbCircle
 10
-0.0188946000052965
 20
-0.8808833192280474
 30
0.0
 40
4.0
  0
ENDBLK
  5
33
330
31
100
AcDbEntity
  8
0
100
AcDbBlockEnd
  0
BLOCK
  5
143
330
142
100
AcDbEntity
  8
0
100
AcDbBlockBegin
  2
Nuintek
 70
0
 10
0.0
 20
0.0
 30
0.0
  3
Nuintek
  1

  0
LWPOLYLINE
  5
145
330
142
100
AcDbEntity
  8
0
 62
150
100
AcDbPolyline
 90
13
 70
1
 10
1.822844466424413
 20
2.331771021328762
 10
1.822844466424413
 20
3.833845513473534
 10
-2.803801207955245
 20
3.833845513473534
 10
-2.803801207955245
 20
3.833845513473534
 10
-2.803801207955245
 20
-0.9937686702195094
 10
0.183414180664414
 20
-0.9937686702195094
 10
0.183414180664414
 20
-0.2304657404801276
 10
-0.1845563293458383
 20
-0.2304657404801276
 10
-0.1845563293458383
 20
-0.625798160209257
 10
-2.435681722030039
 20
-0.625798160209257
 10
-2.435681722030039
 20
3.46686817622961
 10
1.454824297775786
 20
3.46686817622961
 10
1.454824297775786
 20
2.331771021328762
  0
LWPOLYLINE
  5
146
330
142
100
AcDbEntity
  8
0
 62
150
100
AcDbPolyline
 90
20
 70
1
 10
-0.1146121704341567
 20
2.84e-14
 10
0.1146121704341567
 20
-1.42e-14
 42
0.4142135623738234
 10
0.1546121704342056
 20
0.0400000000000347
 10
0.1546121704341488
 20
1.578358753399896
 42
-0.7047199659112873
 10
0.1741234969857714
 20
1.58532706168323
 10
1.448040919274234
 20
0.0293213943030963
 42
0.2248667671231916
 10
1.509941476013352
 20
1.279e-13
 10
1.749523520106436
 20
-1.42e-14
 42
0.4142135623738234
 10
1.789523520106428
 20
0.0400000000000347
 10
1.789523520106371
 20
2.069896225279237
 42
0.4142135623735113
 10
1.749523520106379
 20
2.109896225279271
 10
1.492043414029353
 20
2.109896225279271
 42
0.4142135623735114
 10
1.452043414029361
 20
2.069896225279265
 10
1.452043414029418
 20
0.810286556587016
 42
-0.7066016661988462
 10
1.432497181336941
 20
0.8033611030447217
 10
0.3977575255679824
 20
2.080263160131906
 42
0.2261868371009028
 10
0.3356031059862801
 20
2.109896225279285
 10
-0.1146121704341567
 20
2.109896225279285
 42
0.4142135623731991
 10
-0.1546121704341488
 20
2.069896225279237
 10
-0.1546121704341488
 20
0.0400000000000347
 42
0.4142135623730951
  0
LWPOLYLINE
  5
147
330
142
100
AcDbEntity
  8
0
 62
150
100
AcDbPolyline
 90
20
 70
1
 10
5.891699452611845
 20
2.84e-14
 10
6.120923793480159
 20
-1.42e-14
 42
0.4142135623738234
 10
6.160923793480236
 20
0.0400000000000347
 10
6.160923793480179
 20
1.578358753399896
 42
-0.7047199659112873
 10
6.180435120031773
 20
1.58532706168323
 10
7.454352542320265
 20
0.0293213943030963
 42
0.2248667671231916
 10
7.516253099059412
 20
1.279e-13
 10
7.755835143152438
 20
-1.42e-14
 42
0.4142135623738234
 10
7.795835143152459
 20
0.0400000000000347
 10
7.795835143152402
 20
2.069896225279237
 42
0.4142135623735113
 10
7.755835143152438
 20
2.109896225279271
 10
7.498355037075356
 20
2.109896225279271
 42
0.4142135623735114
 10
7.458355037075392
 20
2.069896225279265
 10
7.458355037075449
 20
0.810286556587016
 42
-0.7066016661988462
 10
7.438808804383
 20
0.8033611030447217
 10
6.404069148614013
 20
2.080263160131906
 42
0.2261868371009028
 10
6.341914729032311
 20
2.109896225279285
 10
5.891699452611845
 20
2.109896225279285
 42
0.4142135623731991
 10
5.851699452611882
 20
2.069896225279237
 10
5.851699452611882
 20
0.0400000000000347
 42
0.4142135623730951
  0
LWPOLYLINE
  5
148
330
142
100
AcDbEntity
  8
0
 62
150
100
AcDbPolyline
 90
8
 70
1
 10
4.817012064410079
 20
2.069896225279251
 10
4.817012064410135
 20
0.0400000000000489
 42
0.4142135623725748
 10
4.857012064410099
 20
4.26e-14
 10
5.229104307747917
 20
7.11e-14
 42
0.414213562372887
 10
5.269104307747937
 20
0.0400000000000489
 10
5.269104307747937
 20
2.069896225279251
 42
0.4142135623727829
 10
5.229104307747917
 20
2.109896225279214
 10
4.857012064410099
 20
2.109896225279257
 42
0.4142135623730951
  0
CIRCLE
  5
149
330
142
100
AcDbEntity
  8
0
 62
150
100
AcDbCircle
 10
5.038624573484611
 20
2.688022092693643
 30
0.0
 40
0.3262572522985683
  0
LWPOLYLINE
  5
14A
330
142
100
AcDbEntity
  8
0
 62
150
100
AcDbPolyline
 90
16
 70
1
 10
9.856494861702657
 20
2.109896225279271
 10
8.146747877723925
 20
2.109896225279271
 42
0.4142135623730951
 10
8.106747877723905
 20
2.069896225279265
 10
8.106747877723905
 20
1.887202028524328
 42
0.4142135623728868
 10
8.146747877723925
 20
1.847202028524321
 10
8.735401442810172
 20
1.847202028524279
 42
-0.4142135623727829
 10
8.775401442810193
 20
1.807202028524315
 10
8.77540144281025
 20
0.0400000000000631
 42
0.4142135623723667
 10
8.815401442810211
 20
5.68e-14
 10
9.260938812235253
 20
5.68e-14
 42
0.4142135623730951
 10
9.300938812235273
 20
0.0400000000000631
 10
9.300938812235273
 20
1.807202028524315
 42
-0.4142135623730951
 10
9.340938812235294
 20
1.847202028524321
 10
9.856494861702657
 20
1.847202028524321
 42
0.4142135623731991
 10
9.896494861702678
 20
1.887202028524328
 10
9.896494861702678
 20
2.069896225279265
 42
0.4142135623730951
  0
LWPOLYLINE
  5
14B
330
142
100
AcDbEntity
  8
0
 62
150
100
AcDbPolyline
 90
18
 70
1
 10
11.68132564048701
 20
2.109896225279271
 10
10.36992157313281
 20
2.109896225279314
 42
0.4142135623731782
 10
10.21992157313283
 20
1.959896225279265
 10
10.21992157313283
 20
0.1500000000000625
 42
0.4142135623731228
 10
10.36992157313281
 20
4.26e-14
 10
11.68132564048701
 20
5.68e-14
 10
11.68132564048701
 20
0.2589201402421679
 10
10.74190831674425
 20
0.2589201402421679
 42
-0.4142135623722627
 10
10.70190831674429
 20
0.2989201402421742
 10
10.70190831674423
 20
0.9373068316139239
 42
-0.4142135623722627
 10
10.74190831674425
 20
0.9773068316138733
 10
11.66027037783598
 20
0.9773068316139301
 10
11.66027037783598
 20
1.236226971855984
 10
10.74190831674431
 20
1.236226971855984
 42
-0.4142135623728868
 10
10.70190831674429
 20
1.27622697185599
 10
10.70190831674429
 20
1.807946908099239
 42
-0.4142135623723667
 10
10.74190831674425
 20
1.847946908099245
 10
11.68132564048701
 20
1.847946908099288
  0
LWPOLYLINE
  5
14C
330
142
100
AcDbEntity
  8
0
 62
150
100
AcDbPolyline
 90
22
 70
1
 10
13.02409363346945
 20
1.14261634248406
 10
13.86424909582186
 20
2.068107870273493
 42
0.6505594749546204
 10
13.84572475679991
 20
2.109896225279271
 10
13.58095258765351
 20
2.10989622527947
 42
0.2086318930553114
 10
13.47100215565288
 20
2.061930055467499
 10
12.76899291034689
 20
1.306992727773945
 42
-0.6817620796744714
 10
12.74992987866685
 20
1.314475208654428
 10
12.74992987866685
 20
2.069896225279279
 42
0.414213562372991
 10
12.70992987866683
 20
2.109896225279285
 10
12.22928385194396
 20
2.109896225279257
 42
0.414213562372887
 10
12.18928385194394
 20
2.069896225279279
 10
12.18928385194394
 20
0.0400000000000631
 42
0.4142135623727829
 10
12.22928385194396
 20
5.68e-14
 10
12.70992987866683
 20
5.68e-14
 42
0.4142135623722627
 10
12.74992987866679
 20
0.0400000000000631
 10
12.74992987866685
 20
0.8791032649097729
 42
-0.6871520075210037
 10
12.76910189253786
 20
0.8864665650728937
 10
13.52454585241773
 20
0.049591361411899
 42
0.21246501940317
 10
13.63598240520386
 20
2.132e-13
 10
13.98718337993554
 20
5.68e-14
 42
0.6563112205950516
 10
14.00543464642518
 20
0.0420848257681854
 10
13.02453054952119
 20
1.088419253245803
 42
-0.3903610326755418
  0
SPLINE
  5
14D
330
142
100
AcDbEntity
  8
0
 62
150
100
AcDbSpline
 70
13
 71
3
 72
65
 73
61
 74
0
 42
1e-09
 40
0.0
 40
0.0
 40
0.0
 40
0.0
 40
1.0
 40
1.0
 40
1.0
 40
2.0
 40
2.0
 40
2.0
 40
3.0
 40
3.0
 40
3.0
 40
4.0
 40
4.0
 40
4.0
 40
5.0
 40
5.0
 40
5.0
 40
6.570796326794541
 40
6.570796326794541
 40
6.570796326794541
 40
7.570796326794541
 40
7.570796326794541
 40
7.570796326794541
 40
9.141592653589438
 40
9.141592653589438
 40
9.141592653589438
 40
10.14159265358943
 40
10.14159265358943
 40
10.14159265358943
 40
11.14159265358944
 40
11.14159265358944
 40
11.14159265358944
 40
12.14159265358944
 40
12.14159265358944
 40
12.14159265358944
 40
13.14159265358944
 40
13.14159265358944
 40
13.14159265358944
 40
14.14159265358944
 40
14.14159265358944
 40
14.14159265358944
 40
15.14159265358944
 40
15.14159265358944
 40
15.14159265358944
 40
15.92699081698777
 40
15.92699081698777
 40
15.92699081698777
 40
16.71238898038611
 40
16.71238898038611
 40
16.71238898038611
 40
17.71238898038611
 40
17.71238898038611
 40
17.71238898038611
 40
18.49778714378356
 40
18.49778714378356
 40
18.49778714378356
 40
19.28318530718101
 40
19.28318530718101
 40
19.28318530718101
 40
20.28318530718101
 40
20.28318530718101
 40
20.28318530718101
 40
20.28318530718101
 41
1.0
 41
1.0
 41
1.0
 41
1.0
 41
1.0
 41
1.0
 41
1.0
 41
1.0
 41
1.0
 41
1.0
 41
1.0
 41
1.0
 41
1.0
 41
1.0
 41
1.0
 41
1.0
 41
0.8047378541244486
 41
0.8047378541244486
 41
1.0
 41
1.0
 41
1.0
 41
1.0
 41
0.8047378541243649
 41
0.8047378541243649
 41
0.9999999999999998
 41
1.0
 41
1.0
 41
1.0
 41
1.0
 41
1.0
 41
1.0
 41
1.0
 41
1.0
 41
1.0
 41
1.0
 41
1.0
 41
1.0
 41
1.0
 41
1.0
 41
1.0
 41
1.0
 41
1.0
 41
1.0
 41
0.9492530216740778
 41
0.9492530216740778
 41
1.0
 41
0.9492530216740778
 41
0.9492530216740778
 41
1.0
 41
1.0
 41
1.0
 41
1.0
 41
0.9492530216741911
 41
0.9492530216741911
 41
1.0
 41
0.9492530216741911
 41
0.9492530216741911
 41
1.0
 41
1.0
 41
1.0
 41
1.0
 10
2.309499122038687
 20
0.8486661290207707
 30
0.0
 10
2.309499122038687
 20
0.5323902615143368
 30
0.0
 10
2.408617764141325
 20
0.3031163283540934
 30
0.0
 10
2.607153000176538
 20
0.1613905745659565
 30
0.0
 10
2.754440521457325
 20
0.053780305309374
 30
0.0
 10
2.951634974257757
 20
5.68e-14
 30
0.0
 10
3.199381920876135
 20
5.68e-14
 30
0.0
 10
3.442361638214919
 20
5.68e-14
 30
0.0
 10
3.819221044485942
 20
0.053780305309374
 30
0.0
 10
3.96874320449146
 20
0.1613905745659565
 30
0.0
 10
4.169463420613254
 20
0.3031163283540934
 30
0.0
 10
4.269773870035663
 20
0.5323902615143368
 30
0.0
 10
4.269773870035663
 20
0.8486661290252754
 30
0.0
 10
4.269773870035663
 20
1.256024226724747
 30
0.0
 10
4.269773870035663
 20
1.66253812757624
 30
0.0
 10
4.269773870035663
 20
2.069896225279265
 30
0.0
 10
4.26977387003555
 20
2.093327682784348
 30
0.0
 10
4.253205327540655
 20
2.109896225279271
 30
0.0
 10
4.229773870035586
 20
2.109896225279257
 30
0.0
 10
4.142705702051813
 20
2.109896225279285
 30
0.0
 10
4.055637534067983
 20
2.109896225279285
 30
0.0
 10
3.968569366084153
 20
2.109896225279285
 30
0.0
 10
3.945137908579084
 20
2.109896225279328
 30
0.0
 10
3.92856936608419
 20
2.093327682784348
 30
0.0
 10
3.92856936608419
 20
2.069896225279293
 30
0.0
 10
3.928569366084133
 20
1.657537052937527
 30
0.0
 10
3.928569366084133
 20
1.246022077447321
 30
0.0
 10
3.928569366084133
 20
0.8336629051055837
 30
0.0
 10
3.928569366084133
 20
0.6876168497848881
 30
0.0
 10
3.878265165457918
 20
0.570968708352467
 30
0.0
 10
3.778054033312031
 20
0.4838674567252213
 30
0.0
 10
3.677644266612816
 20
0.3987028919927127
 30
0.0
 10
3.54480740908545
 20
0.3560461216690385
 30
0.0
 10
3.37994072983659
 20
0.3560461216690385
 30
0.0
 10
3.212591118671355
 20
0.3560461216690385
 30
0.0
 10
3.078810747015722
 20
0.3987028919927127
 30
0.0
 10
2.978450638954882
 20
0.4838674567252213
 30
0.0
 10
2.880325169618828
 20
0.570968708352467
 30
0.0
 10
2.83126243495073
 20
0.6876168497848881
 30
0.0
 10
2.83126243495073
 20
0.833662905107559
 30
0.0
 10
2.83126243495073
 20
1.246022077446696
 30
0.0
 10
2.83126243495073
 20
1.657537052937229
 30
0.0
 10
2.83126243495073
 20
2.069896225279293
 30
0.0
 10
2.831262434950787
 20
2.080646669361883
 30
0.0
 10
2.8271484181098
 20
2.090578784615217
 30
0.0
 10
2.819546706198224
 20
2.098180496526779
 30
0.0
 10
2.811944994286619
 20
2.105782208438341
 30
0.0
 10
2.802012879033298
 20
2.109896225279314
 30
0.0
 10
2.791262434950681
 20
2.109896225279314
 30
0.0
 10
2.644007997313366
 20
2.109896225279285
 30
0.0
 10
2.496753559676022
 20
2.109896225279285
 30
0.0
 10
2.349499122038679
 20
2.109896225279285
 30
0.0
 10
2.33874867795609
 20
2.109896225279356
 30
0.0
 10
2.328816562702797
 20
2.105782208438341
 30
0.0
 10
2.321214850791221
 20
2.098180496526765
 30
0.0
 10
2.313613138879645
 20
2.090578784615175
 30
0.0
 10
2.309499122038715
 20
2.080646669361854
 30
0.0
 10
2.309499122038715
 20
2.069896225279279
 30
0.0
 10
2.309499122038687
 20
1.662538127575942
 30
0.0
 10
2.309499122038687
 20
1.256024226724122
 30
0.0
 10
2.309499122038687
 20
0.8486661290207707
 30
0.0
  0
ENDBLK
  5
144
330
142
100
AcDbEntity
  8
0
100
AcDbBlockEnd
  0
ENDSEC
  0
SECTION
  2
ENTITIES
  0
INSERT
  5
2F
330
17
100
AcDbEntity
  8
0
100
AcDbBlockReference
  2
*U454
 10
57.9401152096616
 20
158.07240343794547
 30
0.0
  0
ENDSEC
  0
SECTION
  2
OBJECTS
  0
DICTIONARY
  5
A
330
0
100
AcDbDictionary
281
1
  3
ACAD_COLOR
350
B
  3
ACAD_GROUP
350
C
  3
ACAD_LAYOUT
350
D
  3
ACAD_MATERIAL
350
E
  3
ACAD_MLEADERSTYLE
350
F
  3
ACAD_MLINESTYLE
350
10
  3
ACAD_PLOTSETTINGS
350
11
  3
ACAD_PLOTSTYLENAME
350
12
  3
ACAD_SCALELIST
350
14
  3
ACAD_TABLESTYLE
350
15
  3
ACAD_VISUALSTYLE
350
16
  3
EZDXF_META
350
2D
  0
DICTIONARY
  5
B
330
A
100
AcDbDictionary
281
1
  0
DICTIONARY
  5
C
330
A
100
AcDbDictionary
281
1
  0
DICTIONARY
  5
D
330
A
100
AcDbDictionary
281
1
  3
Model
350
1A
  3
Layout1
350
1E
  0
DICTIONARY
  5
E
330
A
100
AcDbDictionary
281
1
  3
ByBlock
350
1F
  3
ByLayer
350
20
  3
Global
350
21
  0
DICTIONARY
  5
F
330
A
100
AcDbDictionary
281
1
  3
Standard
350
2C
  0
DICTIONARY
  5
10
330
A
100
AcDbDictionary
281
1
  3
Standard
350
22
  0
DICTIONARY
  5
11
330
A
100
AcDbDictionary
281
1
  0
ACDBDICTIONARYWDFLT
  5
12
330
A
100
AcDbDictionary
281
1
  3
Normal
350
13
100
AcDbDictionaryWithDefault
340
13
  0
ACDBPLACEHOLDER
  5
13
330
12
  0
DICTIONARY
  5
14
330
A
100
AcDbDictionary
281
1
  0
DICTIONARY
  5
15
330
A
100
AcDbDictionary
281
1
  0
DICTIONARY
  5
16
330
A
100
AcDbDictionary
281
1
  0
LAYOUT
  5
1A
330
D
100
AcDbPlotSettings
  1

  4
A3
  6

 40
7.5
 41
20.0
 42
7.5
 43
20.0
 44
420.0
 45
297.0
 46
0.0
 47
0.0
 48
0.0
 49
0.0
140
0.0
141
0.0
142
1.0
143
1.0
 70
1024
 72
1
 73
0
 74
5
  7

 75
16
 76
0
 77
2
 78
300
147
1.0
148
0.0
149
0.0
100
AcDbLayout
  1
Model
 70
1
 71
0
 10
0.0
 20
0.0
 11
420.0
 21
297.0
 12
0.0
 22
0.0
 32
0.0
 14
1e+20
 24
1e+20
 34
1e+20
 15
-1e+20
 25
-1e+20
 35
-1e+20
146
0.0
 13
0.0
 23
0.0
 33
0.0
 16
1.0
 26
0.0
 36
0.0
 17
0.0
 27
1.0
 37
0.0
 76
1
330
17
  0
LAYOUT
  5
1E
330
D
100
AcDbPlotSettings
  1

  4
A3
  6

 40
7.5
 41
20.0
 42
7.5
 43
20.0
 44
420.0
 45
297.0
 46
0.0
 47
0.0
 48
0.0
 49
0.0
140
0.0
141
0.0
142
1.0
143
1.0
 70
0
 72
1
 73
0
 74
5
  7

 75
16
 76
0
 77
2
 78
300
147
1.0
148
0.0
149
0.0
100
AcDbLayout
  1
Layout1
 70
1
 71
1
 10
0.0
 20
0.0
 11
420.0
 21
297.0
 12
0.0
 22
0.0
 32
0.0
 14
1e+20
 24
1e+20
 34
1e+20
 15
-1e+20
 25
-1e+20
 35
-1e+20
146
0.0
 13
0.0
 23
0.0
 33
0.0
 16
1.0
 26
0.0
 36
0.0
 17
0.0
 27
1.0
 37
0.0
 76
1
330
1B
  0
MATERIAL
  5
1F
102
{ACAD_REACTORS
330
E
102
}
330
E
100
AcDbMaterial
  1
ByBlock
  2

 70
0
 40
1.0
 71
1
 41
1.0
 91
-1023410177
 42
1.0
 72
1
  3

 73
1
 74
1
 75
1
 44
0.5
 73
0
 45
1.0
 46
1.0
 77
1
  4

 78
1
 79
1
170
1
 48
1.0
171
1
  6

172
1
173
1
174
1
140
1.0
141
1.0
175
1
  7

176
1
177
1
178
1
143
1.0
179
1
  8

270
1
271
1
272
1
145
1.0
146
1.0
273
1
  9

274
1
275
1
276
1
 42
1.0
 72
1
  3

 73
1
 74
1
 75
1
 94
63
  0
MATERIAL
  5
20
102
{ACAD_REACTORS
330
E
102
}
330
E
100
AcDbMaterial
  1
ByLayer
  2

 70
0
 40
1.0
 71
1
 41
1.0
 91
-1023410177
 42
1.0
 72
1
  3

 73
1
 74
1
 75
1
 44
0.5
 73
0
 45
1.0
 46
1.0
 77
1
  4

 78
1
 79
1
170
1
 48
1.0
171
1
  6

172
1
173
1
174
1
140
1.0
141
1.0
175
1
  7

176
1
177
1
178
1
143
1.0
179
1
  8

270
1
271
1
272
1
145
1.0
146
1.0
273
1
  9

274
1
275
1
276
1
 42
1.0
 72
1
  3

 73
1
 74
1
 75
1
 94
63
  0
MATERIAL
  5
21
102
{ACAD_REACTORS
330
E
102
}
330
E
100
AcDbMaterial
  1
Global
  2

 70
0
 40
1.0
 71
1
 41
1.0
 91
-1023410177
 42
1.0
 72
1
  3

 73
1
 74
1
 75
1
 44
0.5
 73
0
 45
1.0
 46
1.0
 77
1
  4

 78
1
 79
1
170
1
 48
1.0
171
1
  6

172
1
173
1
174
1
140
1.0
141
1.0
175
1
  7

176
1
177
1
178
1
143
1.0
179
1
  8

270
1
271
1
272
1
145
1.0
146
1.0
273
1
  9

274
1
275
1
276
1
 42
1.0
 72
1
  3

 73
1
 74
1
 75
1
 94
63
  0
MLINESTYLE
  5
22
102
{ACAD_REACTORS
330
10
102
}
330
10
100
AcDbMlineStyle
  2
Standard
 70
0
  3

 62
256
 51
90.0
 52
90.0
 71
2
 49
0.5
 62
256
  6
BYLAYER
 49
-0.5
 62
256
  6
BYLAYER
  0
MLEADERSTYLE
  5
2C
102
{ACAD_REACTORS
330
F
102
}
330
F
100
AcDbMLeaderStyle
179
2
170
2
171
1
172
0
 90
2
 40
0.0
 41
0.0
173
1
 91
-1056964608
 92
-2
290
1
 42
2.0
291
1
 43
8.0
  3
Standard
 44
4.0
300

342
29
174
1
175
1
176
0
178
1
 93
-1056964608
 45
4.0
292
0
297
0
 46
4.0
 94
-1056964608
 47
1.0
 49
1.0
140
1.0
294
1
141
0.0
177
0
142
1.0
295
0
296
0
143
3.75
271
0
272
9
273
9
  0
DICTIONARY
  5
2D
330
A
100
AcDbDictionary
280
1
281
1
  3
CREATED_BY_EZDXF
350
2E
  3
WRITTEN_BY_EZDXF
350
152
  0
DICTIONARYVAR
  5
2E
330
2D
100
DictionaryVariables
280
0
  1
1.4.4 @ 2026-09-23T14:03:43.764335+00:00
  0
DICTIONARYVAR
  5
152
330
2D
100
DictionaryVariables
280
0
  1
1.4.4 @ 2026-09-23T14:03:44.013594+00:00
  0
ENDSEC
  0
EOF
