  0
SECTION
  2
HEADER
  9
$ACADVER
  1
AC1032
  9
$ACADMAINTVER
 90
4
  9
$DWGCODEPAGE
  3
ANSI_1252
  9
$LASTSAVEDBY
  1
ezdxf
  9
$REQUIREDVERSIONS
160
0
  9
$INSBASE
 10
0.0
 20
0.0
 30
0.0
  9
$EXTMIN
 10
1e+20
 20
1e+20
 30
1e+20
  9
$EXTMAX
 10
-1e+20
 20
-1e+20
 30
-1e+20
  9
$LIMMIN
 10
0.0
 20
0.0
  9
$LIMMAX
 10
420.0
 20
297.0
  9
$ORTHOMODE
 70
0
  9
$REGENMODE
 70
1
  9
$FILLMODE
 70
1
  9
$QTEXTMODE
 70
0
  9
$MIRRTEXT
 70
1
  9
$LTSCALE
 40
1.0
  9
$ATTMODE
 70
1
  9
$TEXTSIZE
 40
2.5
  9
$TRACEWID
 40
1.0
  9
$TEXTSTYLE
  7
Standard
  9
$CLAYER
  8
0
  9
$CELTYPE
  6
ByLayer
  9
$CECOLOR
 62
256
  9
$CELTSCALE
 40
1.0
  9
$DISPSILH
 70
0
  9
$DIMSCALE
 40
1.0
  9
$DIMASZ
 40
2.5
  9
$DIMEXO
 40
0.625
  9
$DIMDLI
 40
3.75
  9
$DIMRND
 40
0.0
  9
$DIMDLE
 40
0.0
  9
$DIMEXE
 40
1.25
  9
$DIMTP
 40
0.0
  9
$DIMTM
 40
0.0
  9
$DIMTXT
 40
2.5
  9
$DIMCEN
 40
2.5
  9
$DIMTSZ
 40
0.0
  9
$DIMTOL
 70
0
  9
$DIMLIM
 70
0
  9
$DIMTIH
 70
0
  9
$DIMTOH
 70
0
  9
$DIMSE1
 70
0
  9
$DIMSE2
 70
0
  9
$DIMTAD
 70
1
  9
$DIMZIN
 70
8
  9
$DIMBLK
  1

  9
$DIMASO
 70
1
  9
$DIMSHO
 70
1
  9
$DIMPOST
  1

  9
$DIMAPOST
  1

  9
$DIMALT
 70
0
  9
$DIMALTD
 70
3
  9
$DIMALTF
 40
0.03937007874
  9
$DIMLFAC
 40
1.0
  9
$DIMTOFL
 70
1
  9
$DIMTVP
 40
0.0
  9
$DIMTIX
 70
0
  9
$DIMSOXD
 70
0
  9
$DIMSAH
 70
0
  9
$DIMBLK1
  1

  9
$DIMBLK2
  1

  9
$DIMSTYLE
  2
ISO-25
  9
$DIMCLRD
 70
0
  9
$DIMCLRE
 70
0
  9
$DIMCLRT
 70
0
  9
$DIMTFAC
 40
1.0
  9
$DIMGAP
 40
0.625
  9
$DIMJUST
 70
0
  9
$DIMSD1
 70
0
  9
$DIMSD2
 70
0
  9
$DIMTOLJ
 70
0
  9
$DIMTZIN
 70
8
  9
$DIMALTZ
 70
0
  9
$DIMALTTZ
 70
0
  9
$DIMUPT
 70
0
  9
$DIMDEC
 70
2
  9
$DIMTDEC
 70
2
  9
$DIMALTU
 70
2
  9
$DIMALTTD
 70
3
  9
$DIMTXSTY
  7
Standard
  9
$DIMAUNIT
 70
0
  9
$DIMADEC
 70
0
  9
$DIMALTRND
 40
0.0
  9
$DIMAZIN
 70
0
  9
$DIMDSEP
 70
44
  9
$DIMATFIT
 70
3
  9
$DIMFRAC
 70
0
  9
$DIMLDRBLK
  1

  9
$DIMLUNIT
 70
2
  9
$DIMLWD
 70
-2
  9
$DIMLWE
 70
-2
  9
$DIMTMOVE
 70
0
  9
$DIMFXL
 40
1.0
  9
$DIMFXLON
 70
0
  9
$DIMJOGANG
 40
0.785398163397
  9
$DIMTFILL
 70
0
  9
$DIMTFILLCLR
 70
0
  9
$DIMARCSYM
 70
0
  9
$DIMLTYPE
  6

  9
$DIMLTEX1
  6

  9
$DIMLTEX2
  6

  9
$DIMTXTDIRECTION
 70
0
  9
$LUNITS
 70
2
  9
$LUPREC
 70
4
  9
$SKETCHINC
 40
1.0
  9
$FILLETRAD
 40
10.0
  9
$AUNITS
 70
0
  9
$AUPREC
 70
2
  9
$MENU
  1
.
  9
$ELEVATION
 40
0.0
  9
$PELEVATION
 40
0.0
  9
$THICKNESS
 40
0.0
  9
$LIMCHECK
 70
0
  9
$CHAMFERA
 40
0.0
  9
$CHAMFERB
 40
0.0
  9
$CHAMFERC
 40
0.0
  9
$CHAMFERD
 40
0.0
  9
$SKPOLY
 70
0
  9
$TDCREATE
 40
2461307.8775
  9
$TDUCREATE
 40
2458532.153996898
  9
$TDUPDATE
 40
2461307.877511574
  9
$TDUUPDATE
 40
2458532.1544311
  9
$TDINDWG
 40
0.0
  9
$TDUSRTIMER
 40
0.0
  9
$USRTIMER
 70
1
  9
$ANGBASE
 50
0.0
  9
$ANGDIR
 70
0
  9
$PDMODE
 70
0
  9
$PDSIZE
 40
0.0
  9
$PLINEWID
 40
0.0
  9
$SPLFRAME
 70
0
  9
$SPLINETYPE
 70
6
  9
$SPLINESEGS
 70
8
  9
$HANDSEED
  5
14B
  9
$SURFTAB1
 70
6
  9
$SURFTAB2
 70
6
  9
$SURFTYPE
 70
6
  9
$SURFU
 70
6
  9
$SURFV
 70
6
  9
$UCSBASE
  2

  9
$UCSNAME
  2

  9
$UCSORG
 10
0.0
 20
0.0
 30
0.0
  9
$UCSXDIR
 10
1.0
 20
0.0
 30
0.0
  9
$UCSYDIR
 10
0.0
 20
1.0
 30
0.0
  9
$UCSORTHOREF
  2

  9
$UCSORTHOVIEW
 70
0
  9
$UCSORGTOP
 10
0.0
 20
0.0
 30
0.0
  9
$UCSORGBOTTOM
 10
0.0
 20
0.0
 30
0.0
  9
$UCSORGLEFT
 10
0.0
 20
0.0
 30
0.0
  9
$UCSORGRIGHT
 10
0.0
 20
0.0
 30
0.0
  9
$UCSORGFRONT
 10
0.0
 20
0.0
 30
0.0
  9
$UCSORGBACK
 10
0.0
 20
0.0
 30
0.0
  9
$PUCSBASE
  2

  9
$PUCSNAME
  2

  9
$PUCSORG
 10
0.0
 20
0.0
 30
0.0
  9
$PUCSXDIR
 10
1.0
 20
0.0
 30
0.0
  9
$PUCSYDIR
 10
0.0
 20
1.0
 30
0.0
  9
$PUCSORTHOREF
  2

  9
$PUCSORTHOVIEW
 70
0
  9
$PUCSORGTOP
 10
0.0
 20
0.0
 30
0.0
  9
$PUCSORGBOTTOM
 10
0.0
 20
0.0
 30
0.0
  9
$PUCSORGLEFT
 10
0.0
 20
0.0
 30
0.0
  9
$PUCSORGRIGHT
 10
0.0
 20
0.0
 30
0.0
  9
$PUCSORGFRONT
 10
0.0
 20
0.0
 30
0.0
  9
$PUCSORGBACK
 10
0.0
 20
0.0
 30
0.0
  9
$USERI1
 70
0
  9
$USERI2
 70
0
  9
$USERI3
 70
0
  9
$USERI4
 70
0
  9
$USERI5
 70
0
  9
$USERR1
 40
0.0
  9
$USERR2
 40
0.0
  9
$USERR3
 40
0.0
  9
$USERR4
 40
0.0
  9
$USERR5
 40
0.0
  9
$WORLDVIEW
 70
1
  9
$SHADEDGE
 70
3
  9
$SHADEDIF
 70
70
  9
$TILEMODE
 70
1
  9
$MAXACTVP
 70
64
  9
$PINSBASE
 10
0.0
 20
0.0
 30
0.0
  9
$PLIMCHECK
 70
0
  9
$PEXTMIN
 10
1e+20
 20
1e+20
 30
1e+20
  9
$PEXTMAX
 10
-1e+20
 20
-1e+20
 30
-1e+20
  9
$PLIMMIN
 10
0.0
 20
0.0
  9
$PLIMMAX
 10
420.0
 20
297.0
  9
$UNITMODE
 70
0
  9
$VISRETAIN
 70
1
  9
$PLINEGEN
 70
0
  9
$PSLTSCALE
 70
1
  9
$TREEDEPTH
 70
3020
  9
$CMLSTYLE
  2
Standard
  9
$CMLJUST
 70
0
  9
$CMLSCALE
 40
20.0
  9
$PROXYGRAPHICS
 70
1
  9
$MEASUREMENT
 70
1
  9
$CELWEIGHT
370
-1
  9
$ENDCAPS
280
0
  9
$JOINSTYLE
280
0
  9
$LWDISPLAY
290
0
  9
$INSUNITS
 70
4
  9
$HYPERLINKBASE
  1

  9
$STYLESHEET
  1

  9
$XEDIT
290
1
  9
$CEPSNTYPE
380
0
  9
$PSTYLEMODE
290
1
  9
$FINGERPRINTGUID
  2
{BA58934F-304C-4B68-8EE0-0BEDD18A7893}
  9
$VERSIONGUID
  2
{1636F667-6740-4EF3-87A8-1C9A7ADD3AD1}
  9
$EXTNAMES
290
1
  9
$PSVPSCALE
 40
0.0
  9
$OLESTARTUP
290
0
  9
$SORTENTS
280
127
  9
$INDEXCTL
280
0
  9
$HIDETEXT
280
1
  9
$XCLIPFRAME
280
1
  9
$HALOGAP
280
0
  9
$OBSCOLOR
 70
257
  9
$OBSLTYPE
280
0
  9
$INTERSECTIONDISPLAY
280
0
  9
$INTERSECTIONCOLOR
 70
257
  9
$DIMASSOC
280
2
  9
$PROJECTNAME
  1

  9
$CAMERADISPLAY
290
0
  9
$LENSLENGTH
 40
50.0
  9
$CAMERAHEIGHT
 40
0.0
  9
$STEPSPERSEC
 40
24.0
  9
$STEPSIZE
 40
100.0
  9
$3DDWFPREC
 40
2.0
  9
$PSOLWIDTH
 40
0.005
  9
$PSOLHEIGHT
 40
0.08
  9
$LOFTANG1
 40
1.570796326795
  9
$LOFTANG2
 40
1.570796326795
  9
$LOFTMAG1
 40
0.0
  9
$LOFTMAG2
 40
0.0
  9
$LOFTPARAM
 70
7
  9
$LOFTNORMALS
280
1
  9
$LATITUDE
 40
37.795
  9
$LONGITUDE
 40
-122.394
  9
$NORTHDIRECTION
 40
0.0
  9
$TIMEZONE
 70
-8000
  9
$LIGHTGLYPHDISPLAY
280
1
  9
$TILEMODELIGHTSYNCH
280
1
  9
$CMATERIAL
347
20
  9
$SOLIDHIST
280
0
  9
$SHOWHIST
280
1
  9
$DWFFRAME
280
2
  9
$DGNFRAME
280
2
  9
$REALWORLDSCALE
290
1
  9
$INTERFERECOLOR
 62
256
  9
$CSHADOW
280
0
  9
$SHADOWPLANELOCATION
 40
0.0
  0
ENDSEC
  0
SECTION
  2
CLASSES
  0
CLASS
  1
ACDBDICTIONARYWDFLT
  2
AcDbDictionaryWithDefault
  3
ObjectDBX Classes
 90
0
 91
0
280
0
281
0
  0
CLASS
  1
SUN
  2
AcDbSun
  3
SCENEOE
 90
1153
 91
0
280
0
281
0
  0
CLASS
  1
VISUALSTYLE
  2
AcDbVisualStyle
  3
ObjectDBX Classes
 90
4095
 91
0
280
0
281
0
  0
CLASS
  1
MATERIAL
  2
AcDbMaterial
  3
ObjectDBX Classes
 90
1153
 91
0
280
0
281
0
  0
CLASS
  1
SCALE
  2
AcDbScale
  3
ObjectDBX Classes
 90
1153
 91
0
280
0
281
0
  0
CLASS
  1
TABLESTYLE
  2
AcDbTableStyle
  3
ObjectDBX Classes
 90
4095
 91
0
280
0
281
0
  0
CLASS
  1
MLEADERSTYLE
  2
AcDbMLeaderStyle
  3
ACDB_MLEADERSTYLE_CLASS
 90
4095
 91
0
280
0
281
0
  0
CLASS
  1
DICTIONARYVAR
  2
AcDbDictionaryVar
  3
ObjectDBX Classes
 90
0
 91
0
280
0
281
0
  0
CLASS
  1
CELLSTYLEMAP
  2
AcDbCellStyleMap
  3
ObjectDBX Classes
 90
1152
 91
0
280
0
281
0
  0
CLASS
  1
MENTALRAYRENDERSETTINGS
  2
AcDbMentalRayRenderSettings
  3
SCENEOE
 90
1024
 91
0
280
0
281
0
  0
CLASS
  1
ACDBDETAILVIEWSTYLE
  2
AcDbDetailViewStyle
  3
ObjectDBX Classes
 90
1025
 91
0
280
0
281
0
  0
CLASS
  1
ACDBSECTIONVIEWSTYLE
  2
AcDbSectionViewStyle
  3
ObjectDBX Classes
 90
1025
 91
0
280
0
281
0
  0
CLASS
  1
RASTERVARIABLES
  2
AcDbRasterVariables
  3
ISM
 90
0
 91
0
280
0
281
0
  0
CLASS
  1
LAYOUT
  2
AcDbLayout
  3
ObjectDBX Classes
 90
0
 91
0
280
0
281
0
  0
CLASS
  1
ACDBPLACEHOLDER
  2
AcDbPlaceHolder
  3
ObjectDBX Classes
 90
0
 91
0
280
0
281
0
  0
ENDSEC
  0
SECTION
  2
TABLES
  0
TABLE
  2
VPORT
  5
8
330
0
100
AcDbSymbolTable
 70
1
  0
VPORT
  5
23
330
8
100
AcDbSymbolTableRecord
100
AcDbViewportTableRecord
  2
*Active
 70
0
 10
0.0
 20
0.0
 11
1.0
 21
1.0
 12
0.0
 22
0.0
 13
0.0
 23
0.0
 14
0.5
 24
0.5
 15
0.5
 25
0.5
 16
0.0
 26
0.0
 36
1.0
 17
0.0
 27
0.0
 37
0.0
 40
1000.0
 41
1.34
 42
50.0
 43
0.0
 44
0.0
 50
0.0
 51
0.0
 71
0
 72
1000
 73
1
 74
3
 75
0
 76
0
 77
0
 78
0
281
0
 65
0
146
0.0
  0
ENDTAB
  0
TABLE
  2
LTYPE
  5
2
330
0
100
AcDbSymbolTable
 70
3
  0
LTYPE
  5
24
330
2
100
AcDbSymbolTableRecord
100
AcDbLinetypeTableRecord
  2
ByBlock
 70
0
  3

 72
65
 73
0
 40
0.0
  0
LTYPE
  5
25
330
2
100
AcDbSymbolTableRecord
100
AcDbLinetypeTableRecord
  2
ByLayer
 70
0
  3

 72
65
 73
0
 40
0.0
  0
LTYPE
  5
26
330
2
100
AcDbSymbolTableRecord
100
AcDbLinetypeTableRecord
  2
Continuous
 70
0
  3

 72
65
 73
0
 40
0.0
  0
ENDTAB
  0
TABLE
  2
LAYER
  5
1
330
0
100
AcDbSymbolTable
 70
2
  0
LAYER
  5
27
330
1
100
AcDbSymbolTableRecord
100
AcDbLayerTableRecord
  2
0
 70
0
 62
7
  6
Continuous
370
-3
390
13
347
21
  0
LAYER
  5
28
330
1
100
AcDbSymbolTableRecord
100
AcDbLayerTableRecord
  2
Defpoints
 70
0
 62
7
  6
Continuous
290
0
370
-3
390
13
347
21
  0
ENDTAB
  0
TABLE
  2
STYLE
  5
5
330
0
100
AcDbSymbolTable
 70
2
  0
STYLE
  5
29
330
5
100
AcDbSymbolTableRecord
100
AcDbTextStyleTableRecord
  2
Standard
 70
0
 40
0.0
 41
1.0
 50
0.0
 71
0
 42
2.5
  3
txt
  4

  0
STYLE
  5
147
330
5
100
AcDbSymbolTableRecord
100
AcDbTextStyleTableRecord
  2
ARIAL
 70
0
 40
0.0
 41
1.0
 50
0.0
 71
0
 42
10.0
  3
arial.ttf
  4

  0
ENDTAB
  0
TABLE
  2
VIEW
  5
7
330
0
100
AcDbSymbolTable
 70
0
  0
ENDTAB
  0
TABLE
  2
UCS
  5
6
330
0
100
AcDbSymbolTable
 70
0
  0
ENDTAB
  0
TABLE
  2
APPID
  5
3
330
0
100
AcDbSymbolTable
 70
3
  0
APPID
  5
2A
330
3
100
AcDbSymbolTableRecord
100
AcDbRegAppTableRecord
  2
ACAD
 70
0
  0
APPID
  5
148
330
3
100
AcDbSymbolTableRecord
100
AcDbRegAppTableRecord
  2
HATCHBACKGROUNDCOLOR
 70
0
  0
APPID
  5
149
330
3
100
AcDbSymbolTableRecord
100
AcDbRegAppTableRecord
  2
EZDXF
 70
0
  0
ENDTAB
  0
TABLE
  2
DIMSTYLE
  5
4
330
0
100
AcDbSymbolTable
 70
1
100
AcDbDimStyleTable
  0
DIMSTYLE
105
2B
330
4
100
AcDbSymbolTableRecord
100
AcDbDimStyleTableRecord
  2
Standard
 70
0
 40
1.0
 41
2.5
 42
0.625
 43
3.75
 44
1.25
 45
0.0
 46
0.0
 47
0.0
 48
0.0
 49
2.5
140
2.5
141
2.5
142
0.0
143
0.03937007874
144
1.0
145
0.0
146
1.0
147
0.625
148
0.0
 69
0
 70
0
 71
0
 72
0
 73
0
 74
0
 75
0
 76
0
 77
1
 78
8
 79
3
170
0
171
3
172
1
173
0
174
0
175
0
176
0
177
0
178
0
179
2
271
2
272
2
273
2
274
3
275
0
276
0
277
2
278
44
279
0
280
0
281
0
282
0
283
0
284
8
285
0
286
0
288
0
289
3
290
0
371
-2
372
-2
  0
ENDTAB
  0
TABLE
  2
BLOCK_RECORD
  5
9
330
0
100
AcDbSymbolTable
 70
3
  0
BLOCK_RECORD
  5
17
330
9
100
AcDbSymbolTableRecord
100
AcDbBlockTableRecord
  2
*Model_Space
340
1A
 70
0
280
1
281
0
  0
BLOCK_RECORD
  5
1B
330
9
100
AcDbSymbolTableRecord
100
AcDbBlockTableRecord
  2
*Paper_Space
340
1E
 70
0
280
1
281
0
  0
BLOCK_RECORD
  5
31
330
9
100
AcDbSymbolTableRecord
100
AcDbBlockTableRecord
  2
*U1904
340
0
 70
0
280
1
281
0
  0
ENDTAB
  0
ENDSEC
  0
SECTION
  2
BLOCKS
  0
BLOCK
  5
18
330
17
100
AcDbEntity
  8
0
100
AcDbBlockBegin
  2
*Model_Space
 70
0
 10
0.0
 20
0.0
 30
0.0
  3
*Model_Space
  1

  0
ENDBLK
  5
19
330
17
100
AcDbEntity
  8
0
100
AcDbBlockEnd
  0
BLOCK
  5
1C
330
1B
100
AcDbEntity
  8
0
100
AcDbBlockBegin
  2
*Paper_Space
 70
0
 10
0.0
 20
0.0
 30
0.0
  3
*Paper_Space
  1

  0
ENDBLK
  5
1D
330
1B
100
AcDbEntity
  8
0
100
AcDbBlockEnd
  0
BLOCK
  5
32
330
31
100
AcDbEntity
  8
0
100
AcDbBlockBegin
  2
*U1904
 70
1
 10
0.0
 20
0.0
 30
0.0
  3
*U1904
  1

  0
LWPOLYLINE
  5
34
330
31
100
AcDbEntity
  8
0
100
AcDbPolyline
 90
8
 70
1
 10
-26.50000000000728
 20
0.0
 10
26.50000000000728
 20
0.0
 42
0.4142135623730951
 10
27.50000000000728
 20
1.0
 10
27.50000000000728
 20
98.0
 42
0.4142135623730951
 10
26.50000000000728
 20
99.0
 10
-26.49999999999272
 20
99.0
 42
0.4142135623730951
 10
-27.49999999999273
 20
98.0
 10
-27.50000000000728
 20
1.0
 42
0.4142135623730951
  0
LWPOLYLINE
  5
35
330
31
100
AcDbEntity
  8
0
 62
253
100
AcDbPolyline
 90
4
 70
1
 10
-24.77105598702474
 20
94.56158644511743
 42
0.9999999999999998
 10
-22.64973564346292
 20
96.68290678867926
 10
-23.35684242465504
 20
97.39001356987139
 42
0.9999999999999998
 10
-25.47816276821686
 20
95.26869322630957
  0
LWPOLYLINE
  5
36
330
31
100
AcDbEntity
  8
0
100
AcDbPolyline
 90
6
 70
1
 10
-19.49999999999272
 20
99.0
 10
-19.49999999999272
 20
99.0
 10
-26.49999999999272
 20
99.0
 42
0.4142135623730951
 10
-27.49999999999273
 20
98.0
 10
-27.49999999999273
 20
91.0
 10
-27.49999999999273
 20
91.0
 42
0.4142135623730951
  0
LWPOLYLINE
  5
37
330
31
100
AcDbEntity
  8
0
 62
253
100
AcDbPolyline
 90
4
 70
1
 10
24.77105598703929
 20
94.56158644511743
 42
-0.9999999999999998
 10
22.64973564347747
 20
96.68290678867926
 10
23.35684242466959
 20
97.39001356987139
 42
-0.9999999999999998
 10
25.47816276823141
 20
95.26869322630957
  0
LWPOLYLINE
  5
38
330
31
100
AcDbEntity
  8
0
100
AcDbPolyline
 90
6
 70
1
 10
19.50000000000727
 20
99.0
 10
19.50000000000727
 20
99.0
 10
26.50000000000728
 20
99.0
 42
-0.4142135623730951
 10
27.50000000000728
 20
98.0
 10
27.50000000000728
 20
91.0
 10
27.50000000000728
 20
91.0
 42
-0.4142135623730951
  0
LWPOLYLINE
  5
39
330
31
100
AcDbEntity
  8
0
100
AcDbPolyline
 90
8
 70
1
 10
-16.49999999999272
 20
64.0
 10
16.50000000000727
 20
64.0
 42
0.4142135623730951
 10
17.50000000000727
 20
65.0
 10
17.50000000000727
 20
78.0
 42
0.4142135623730951
 10
16.50000000000727
 20
79.0
 10
-16.49999999999272
 20
79.0
 42
0.4142135623730951
 10
-17.49999999999272
 20
78.0
 10
-17.49999999999272
 20
65.0
 42
0.4142135623730951
  0
LWPOLYLINE
  5
3A
330
31
100
AcDbEntity
  8
0
100
AcDbPolyline
 90
4
 70
0
 10
-1.153599871198821
 20
73.8806587630097
 42
-0.1730033431015782
 10
-0.9764013991443788
 20
73.94386231122189
 10
0.664782011495845
 20
73.94386231122189
 42
-0.1730033431015092
 10
0.8419804835357354
 20
73.8806587630097
  0
LWPOLYLINE
  5
3B
330
31
100
AcDbEntity
  8
0
100
AcDbPolyline
 90
3
 70
0
 10
0.8815784632824943
 20
73.84106078326295
 42
-0.1730033431016178
 10
0.9447820114946807
 20
73.66386231122306
 10
0.9447820114946807
 20
71.54300641814189
  0
LWPOLYLINE
  5
3C
330
31
100
AcDbEntity
  8
0
100
AcDbPolyline
 90
4
 70
0
 10
0.8419804835357354
 20
69.16290581485373
 42
-0.173003343101521
 10
0.664782011495845
 20
69.09970226664154
 10
-0.9764013991443788
 20
69.09970226664154
 42
-0.1600535475041646
 10
-1.142452754698751
 20
69.15425394147314
 42
-0.1600535475041646
  0
LWPOLYLINE
  5
3D
330
31
100
AcDbEntity
  8
0
100
AcDbPolyline
 90
3
 70
0
 10
-1.20184972431889
 20
69.213650911086
 42
-0.1600535475041259
 10
-1.256401399143214
 20
69.37970226664038
 10
-1.256401399143214
 20
71.5
  0
LWPOLYLINE
  5
3E
330
31
100
AcDbEntity
  8
0
100
AcDbPolyline
 90
4
 70
0
 10
0.362382011495356
 20
69.64290226664161
 42
-0.1622776601682571
 10
0.2447820114975912
 20
69.60370226664234
 10
-0.5564013991606771
 20
69.60370226664234
 42
-0.1433289715803103
 10
-0.6620764715844416
 20
69.63463022458745
 42
-0.1433289715803103
  0
LWPOLYLINE
  5
3F
330
31
100
AcDbEntity
  8
0
100
AcDbPolyline
 90
3
 70
0
 10
-0.7214734412045801
 20
69.69402719420759
 42
-0.1433289715802567
 10
-0.7524013991569518
 20
69.79970226663863
 10
-0.7524013991569518
 20
71.20856223044393
  0
LWPOLYLINE
  5
40
330
31
100
AcDbEntity
  8
0
100
AcDbPolyline
 90
4
 70
0
 10
-0.6737738348820131
 20
73.40083272669288
 42
-0.1619055040018182
 10
-0.5564013991606771
 20
73.43986231122835
 10
0.2447820114975912
 20
73.43986231122835
 42
-0.1619055040018182
 10
0.3621544472189271
 20
73.40083272669288
  0
LWPOLYLINE
  5
41
330
31
100
AcDbEntity
  8
0
100
AcDbPolyline
 90
3
 70
0
 10
0.4017524269656861
 20
73.36123474694614
 42
-0.1619055040017489
 10
0.4407820114938659
 20
73.2438623112248
 10
0.4407820114938659
 20
71.83492134188418
  0
LINE
  5
42
330
31
100
AcDbEntity
  8
0
100
AcDbLine
 10
-0.6737738348820131
 20
73.40083272669288
 30
0.0
 11
-1.154592308004794
 21
73.88165119983023
 31
0.0
  0
LINE
  5
43
330
31
100
AcDbEntity
  8
0
100
AcDbLine
 10
0.4017524269656861
 20
73.36123474694614
 30
0.0
 11
0.8825709000884671
 21
73.84205322008347
 31
0.0
  0
LINE
  5
44
330
31
100
AcDbEntity
  8
0
100
AcDbLine
 10
0.3621544472189271
 20
73.40083272669288
 30
0.0
 11
0.8429729203562601
 21
73.88165119983023
 31
0.0
  0
LINE
  5
45
330
31
100
AcDbEntity
  8
0
100
AcDbLine
 10
-0.6620764715844416
 20
69.63463022458745
 30
0.0
 11
-1.142452754698751
 21
69.15425394147314
 31
0.0
  0
LINE
  5
46
330
31
100
AcDbEntity
  8
0
100
AcDbLine
 10
-0.7214734412045801
 20
69.69402719420759
 30
0.0
 11
-1.20184972431889
 21
69.213650911086
 31
0.0
  0
LINE
  5
47
330
31
100
AcDbEntity
  8
0
100
AcDbLine
 10
0.362382011495356
 20
69.64290226664161
 30
0.0
 11
0.8429729203562601
 21
69.1619133780332
 31
0.0
  0
LWPOLYLINE
  5
48
330
31
100
AcDbEntity
  8
0
100
AcDbPolyline
 90
2
 70
0
 10
0.4407820114938659
 20
71.26978228893131
 10
-0.7524013991569518
 20
71.26978228893131
  0
LWPOLYLINE
  5
49
330
31
100
AcDbEntity
  8
0
100
AcDbPolyline
 90
2
 70
0
 10
-0.7524013991569518
 20
71.77378228893213
 10
0.4407820114938659
 20
71.77378228893213
  0
LINE
  5
4A
330
31
100
AcDbEntity
  8
0
100
AcDbLine
 10
-0.7524013991569518
 20
71.77378228893213
 30
0.0
 11
-1.16202692544175
 21
71.52178228893172
 31
0.0
  0
LINE
  5
4B
330
31
100
AcDbEntity
  8
0
100
AcDbLine
 10
-1.16202692544175
 20
71.52178228893172
 30
0.0
 11
-0.7524013991569518
 21
71.26978228893131
 31
0.0
  0
LINE
  5
4C
330
31
100
AcDbEntity
  8
0
100
AcDbLine
 10
-1.256401399143214
 20
71.5
 30
0.0
 11
-0.7524013991569518
 21
71.20856223044393
 31
0.0
  0
LINE
  5
4D
330
31
100
AcDbEntity
  8
0
100
AcDbLine
 10
0.4407820114938659
 20
71.77378228893213
 30
0.0
 11
0.8504075377786648
 21
71.52178228893172
 31
0.0
  0
LINE
  5
4E
330
31
100
AcDbEntity
  8
0
100
AcDbLine
 10
0.8504075377786648
 20
71.52178228893172
 30
0.0
 11
0.4407820114938659
 21
71.26978228893131
 31
0.0
  0
LINE
  5
4F
330
31
100
AcDbEntity
  8
0
100
AcDbLine
 10
0.4407820114938659
 20
71.83492134188418
 30
0.0
 11
0.9447820114946807
 21
71.54300641814189
 31
0.0
  0
LWPOLYLINE
  5
50
330
31
100
AcDbEntity
  8
0
100
AcDbPolyline
 90
3
 70
0
 10
1.635732299873779
 20
71.54300641814189
 10
1.635732299873779
 20
73.66386231122306
 42
-0.1730033431015677
 10
1.698935848085966
 20
73.84106078326295
 42
-0.1730033431015677
  0
LWPOLYLINE
  5
51
330
31
100
AcDbEntity
  8
0
100
AcDbPolyline
 90
4
 70
0
 10
1.738533827832725
 20
73.8806587630097
 42
-0.1730033431015782
 10
1.915732299887167
 20
73.94386231122189
 10
3.556915710512839
 20
73.94386231122189
 42
-0.1730033431015092
 10
3.734114182567282
 20
73.8806587630097
  0
LWPOLYLINE
  5
52
330
31
100
AcDbEntity
  8
0
100
AcDbPolyline
 90
3
 70
0
 10
3.773712162314041
 20
73.84106078326295
 42
-0.1730033431016178
 10
3.836915710526227
 20
73.66386231122306
 10
3.836915710526227
 20
71.54300641814189
  0
LWPOLYLINE
  5
53
330
31
100
AcDbEntity
  8
0
100
AcDbPolyline
 90
3
 70
0
 10
3.836915710526227
 20
71.5
 10
3.836915710526227
 20
69.37970226664038
 42
-0.1730033431016471
 10
3.773712162314041
 20
69.20250379460049
 42
-0.1730033431016471
  0
LWPOLYLINE
  5
54
330
31
100
AcDbEntity
  8
0
100
AcDbPolyline
 90
4
 70
0
 10
3.734114182567282
 20
69.16290581485373
 42
-0.173003343101521
 10
3.556915710512839
 20
69.09970226664154
 10
1.915732299887167
 20
69.09970226664154
 42
-0.1600535475041646
 10
1.749680944318242
 20
69.15425394147314
 42
-0.1600535475041646
  0
LWPOLYLINE
  5
55
330
31
100
AcDbEntity
  8
0
100
AcDbPolyline
 90
3
 70
0
 10
1.690283974712656
 20
69.213650911086
 42
-0.1600535475041259
 10
1.635732299873779
 20
69.37970226664038
 10
1.635732299873779
 20
71.5
  0
LWPOLYLINE
  5
56
330
31
100
AcDbEntity
  8
0
100
AcDbPolyline
 90
3
 70
0
 10
3.332915710525412
 20
71.20856223044393
 10
3.332915710525412
 20
69.79970226663863
 42
-0.1616783592796193
 10
3.293989986246742
 20
69.68246885883127
 42
-0.1616783592796193
  0
LWPOLYLINE
  5
57
330
31
100
AcDbEntity
  8
0
100
AcDbPolyline
 90
4
 70
0
 10
3.254515710526902
 20
69.64290226664161
 42
-0.1622776601682571
 10
3.136915710529137
 20
69.60370226664234
 10
2.335732299870869
 20
69.60370226664234
 42
-0.1433289715803103
 10
2.230057227447105
 20
69.63463022458745
 42
-0.1433289715803103
  0
LWPOLYLINE
  5
58
330
31
100
AcDbEntity
  8
0
100
AcDbPolyline
 90
3
 70
0
 10
2.170660257826966
 20
69.69402719420759
 42
-0.1433289715802567
 10
2.139732299874594
 20
69.79970226663863
 10
2.139732299874594
 20
71.20856223044393
  0
LWPOLYLINE
  5
59
330
31
100
AcDbEntity
  8
0
100
AcDbPolyline
 90
3
 70
0
 10
2.139732299874594
 20
71.83492134188418
 10
2.139732299874594
 20
73.2438623112248
 42
-0.1619055040017489
 10
2.178761884402774
 20
73.36123474694614
 42
-0.1619055040017489
  0
LWPOLYLINE
  5
5A
330
31
100
AcDbEntity
  8
0
100
AcDbPolyline
 90
4
 70
0
 10
2.218359864149533
 20
73.40083272669288
 42
-0.1619055040018182
 10
2.335732299870869
 20
73.43986231122835
 10
3.136915710529137
 20
73.43986231122835
 42
-0.1619055040018182
 10
3.254288146250473
 20
73.40083272669288
  0
LWPOLYLINE
  5
5B
330
31
100
AcDbEntity
  8
0
100
AcDbPolyline
 90
3
 70
0
 10
3.293886125997232
 20
73.36123474694614
 42
-0.1619055040017489
 10
3.332915710525412
 20
73.2438623112248
 10
3.332915710525412
 20
71.83492134188418
  0
LINE
  5
5C
330
31
100
AcDbEntity
  8
0
100
AcDbLine
 10
2.178761884402774
 20
73.36123474694614
 30
0.0
 11
1.697943411279993
 21
73.84205322008347
 31
0.0
  0
LINE
  5
5D
330
31
100
AcDbEntity
  8
0
100
AcDbLine
 10
2.218359864149533
 20
73.40083272669288
 30
0.0
 11
1.737541391026752
 21
73.88165119983023
 31
0.0
  0
LINE
  5
5E
330
31
100
AcDbEntity
  8
0
100
AcDbLine
 10
3.293886125997232
 20
73.36123474694614
 30
0.0
 11
3.774704599120013
 21
73.84205322008347
 31
0.0
  0
LINE
  5
5F
330
31
100
AcDbEntity
  8
0
100
AcDbLine
 10
3.254288146250473
 20
73.40083272669288
 30
0.0
 11
3.735106619373254
 21
73.88165119983023
 31
0.0
  0
LINE
  5
60
330
31
100
AcDbEntity
  8
0
100
AcDbLine
 10
2.230057227447105
 20
69.63463022458745
 30
0.0
 11
1.749680944318242
 21
69.15425394147314
 31
0.0
  0
LINE
  5
61
330
31
100
AcDbEntity
  8
0
100
AcDbLine
 10
2.170660257826966
 20
69.69402719420759
 30
0.0
 11
1.690283974712656
 21
69.213650911086
 31
0.0
  0
LINE
  5
62
330
31
100
AcDbEntity
  8
0
100
AcDbLine
 10
3.254515710526902
 20
69.64290226664161
 30
0.0
 11
3.735106619373254
 21
69.1619133780332
 31
0.0
  0
LINE
  5
63
330
31
100
AcDbEntity
  8
0
100
AcDbLine
 10
3.293989986246742
 20
69.68246885883127
 30
0.0
 11
3.774704599120013
 21
69.20151135777996
 31
0.0
  0
LINE
  5
64
330
31
100
AcDbEntity
  8
0
100
AcDbLine
 10
2.139732299874594
 20
71.83492134188418
 30
0.0
 11
1.635732299873779
 21
71.54300641814189
 31
0.0
  0
LINE
  5
65
330
31
100
AcDbEntity
  8
0
100
AcDbLine
 10
1.635732299873779
 20
71.5
 30
0.0
 11
2.139732299874594
 21
71.20856223044393
 31
0.0
  0
LINE
  5
66
330
31
100
AcDbEntity
  8
0
100
AcDbLine
 10
3.332915710525412
 20
71.83492134188418
 30
0.0
 11
3.836915710526227
 21
71.54300641814189
 31
0.0
  0
LINE
  5
67
330
31
100
AcDbEntity
  8
0
100
AcDbLine
 10
3.836915710526227
 20
71.5
 30
0.0
 11
3.332915710525412
 21
71.20856223044393
 31
0.0
  0
LWPOLYLINE
  5
68
330
31
100
AcDbEntity
  8
0
100
AcDbPolyline
 90
2
 70
0
 10
0.2407820114967762
 20
71.26978228893131
 10
-0.5524013991598622
 20
71.26978228893131
  0
LWPOLYLINE
  5
69
330
31
100
AcDbEntity
  8
0
100
AcDbPolyline
 90
2
 70
0
 10
-0.5524013991598622
 20
71.77378228893213
 10
0.2407820114967762
 20
71.77378228893213
  0
LWPOLYLINE
  5
6A
330
31
100
AcDbEntity
  8
0
100
AcDbPolyline
 90
4
 70
0
 10
5.846400128801178
 20
73.8806587630097
 42
-0.1730033431015782
 10
6.023598600855621
 20
73.94386231122189
 10
7.664782011495844
 20
73.94386231122189
 42
-0.1730033431015092
 10
7.841980483535735
 20
73.8806587630097
  0
LWPOLYLINE
  5
6B
330
31
100
AcDbEntity
  8
0
100
AcDbPolyline
 90
3
 70
0
 10
7.881578463282494
 20
73.84106078326295
 42
-0.1730033431016178
 10
7.94478201149468
 20
73.66386231122306
 10
7.94478201149468
 20
71.54300641814189
  0
LWPOLYLINE
  5
6C
330
31
100
AcDbEntity
  8
0
100
AcDbPolyline
 90
4
 70
0
 10
7.841980483535735
 20
69.16290581485373
 42
-0.173003343101521
 10
7.664782011495844
 20
69.09970226664154
 10
6.023598600855621
 20
69.09970226664154
 42
-0.1600535475041646
 10
5.857547245301248
 20
69.15425394147314
 42
-0.1600535475041646
  0
LWPOLYLINE
  5
6D
330
31
100
AcDbEntity
  8
0
100
AcDbPolyline
 90
3
 70
0
 10
5.798150275681109
 20
69.213650911086
 42
-0.1600535475041259
 10
5.743598600856785
 20
69.37970226664038
 10
5.743598600856785
 20
71.5
  0
LWPOLYLINE
  5
6E
330
31
100
AcDbEntity
  8
0
100
AcDbPolyline
 90
4
 70
0
 10
7.362382011495355
 20
69.64290226664161
 42
-0.1622776601682571
 10
7.244782011497591
 20
69.60370226664234
 10
6.443598600839322
 20
69.60370226664234
 42
-0.1433289715803103
 10
6.337923528415558
 20
69.63463022458745
 42
-0.1433289715803103
  0
LWPOLYLINE
  5
6F
330
31
100
AcDbEntity
  8
0
100
AcDbPolyline
 90
3
 70
0
 10
6.278526558795419
 20
69.69402719420759
 42
-0.1433289715802567
 10
6.247598600843048
 20
69.79970226663863
 10
6.247598600843048
 20
71.20856223044393
  0
LWPOLYLINE
  5
70
330
31
100
AcDbEntity
  8
0
100
AcDbPolyline
 90
4
 70
0
 10
6.326226165117986
 20
73.40083272669288
 42
-0.1619055040018182
 10
6.443598600839322
 20
73.43986231122835
 10
7.244782011497591
 20
73.43986231122835
 42
-0.1619055040018182
 10
7.362154447218927
 20
73.40083272669288
  0
LWPOLYLINE
  5
71
330
31
100
AcDbEntity
  8
0
100
AcDbPolyline
 90
3
 70
0
 10
7.401752426965686
 20
73.36123474694614
 42
-0.1619055040017489
 10
7.440782011493865
 20
73.2438623112248
 10
7.440782011493865
 20
71.83492134188418
  0
LINE
  5
72
330
31
100
AcDbEntity
  8
0
100
AcDbLine
 10
6.326226165117986
 20
73.40083272669288
 30
0.0
 11
5.845407691995205
 21
73.88165119983023
 31
0.0
  0
LINE
  5
73
330
31
100
AcDbEntity
  8
0
100
AcDbLine
 10
7.401752426965686
 20
73.36123474694614
 30
0.0
 11
7.882570900088467
 21
73.84205322008347
 31
0.0
  0
LINE
  5
74
330
31
100
AcDbEntity
  8
0
100
AcDbLine
 10
7.362154447218927
 20
73.40083272669288
 30
0.0
 11
7.84297292035626
 21
73.88165119983023
 31
0.0
  0
LINE
  5
75
330
31
100
AcDbEntity
  8
0
100
AcDbLine
 10
6.337923528415558
 20
69.63463022458745
 30
0.0
 11
5.857547245301248
 21
69.15425394147314
 31
0.0
  0
LINE
  5
76
330
31
100
AcDbEntity
  8
0
100
AcDbLine
 10
6.278526558795419
 20
69.69402719420759
 30
0.0
 11
5.798150275681109
 21
69.213650911086
 31
0.0
  0
LINE
  5
77
330
31
100
AcDbEntity
  8
0
100
AcDbLine
 10
7.362382011495355
 20
69.64290226664161
 30
0.0
 11
7.84297292035626
 21
69.1619133780332
 31
0.0
  0
LWPOLYLINE
  5
78
330
31
100
AcDbEntity
  8
0
100
AcDbPolyline
 90
2
 70
0
 10
7.440782011493865
 20
71.26978228893131
 10
6.247598600843048
 20
71.26978228893131
  0
LWPOLYLINE
  5
79
330
31
100
AcDbEntity
  8
0
100
AcDbPolyline
 90
2
 70
0
 10
6.247598600843048
 20
71.77378228893213
 10
7.440782011493865
 20
71.77378228893213
  0
LINE
  5
7A
330
31
100
AcDbEntity
  8
0
100
AcDbLine
 10
6.247598600843048
 20
71.77378228893213
 30
0.0
 11
5.837973074558249
 21
71.52178228893172
 31
0.0
  0
LINE
  5
7B
330
31
100
AcDbEntity
  8
0
100
AcDbLine
 10
5.837973074558249
 20
71.52178228893172
 30
0.0
 11
6.247598600843048
 21
71.26978228893131
 31
0.0
  0
LINE
  5
7C
330
31
100
AcDbEntity
  8
0
100
AcDbLine
 10
5.743598600856785
 20
71.5
 30
0.0
 11
6.247598600843048
 21
71.20856223044393
 31
0.0
  0
LINE
  5
7D
330
31
100
AcDbEntity
  8
0
100
AcDbLine
 10
7.440782011493865
 20
71.77378228893213
 30
0.0
 11
7.850407537778664
 21
71.52178228893172
 31
0.0
  0
LINE
  5
7E
330
31
100
AcDbEntity
  8
0
100
AcDbLine
 10
7.850407537778664
 20
71.52178228893172
 30
0.0
 11
7.440782011493865
 21
71.26978228893131
 31
0.0
  0
LINE
  5
7F
330
31
100
AcDbEntity
  8
0
100
AcDbLine
 10
7.440782011493865
 20
71.83492134188418
 30
0.0
 11
7.94478201149468
 21
71.54300641814189
 31
0.0
  0
LWPOLYLINE
  5
80
330
31
100
AcDbEntity
  8
0
100
AcDbPolyline
 90
3
 70
0
 10
8.635732299873778
 20
71.54300641814189
 10
8.635732299873778
 20
73.66386231122306
 42
-0.1730033431015677
 10
8.698935848085966
 20
73.84106078326295
 42
-0.1730033431015677
  0
LWPOLYLINE
  5
81
330
31
100
AcDbEntity
  8
0
100
AcDbPolyline
 90
4
 70
0
 10
8.738533827832725
 20
73.8806587630097
 42
-0.1730033431015782
 10
8.915732299887168
 20
73.94386231122189
 10
10.55691571051284
 20
73.94386231122189
 42
-0.1730033431015092
 10
10.73411418256728
 20
73.8806587630097
  0
LWPOLYLINE
  5
82
330
31
100
AcDbEntity
  8
0
100
AcDbPolyline
 90
3
 70
0
 10
10.77371216231404
 20
73.84106078326295
 42
-0.1730033431016178
 10
10.83691571052622
 20
73.66386231122306
 10
10.83691571052622
 20
71.54300641814189
  0
LWPOLYLINE
  5
83
330
31
100
AcDbEntity
  8
0
100
AcDbPolyline
 90
3
 70
0
 10
10.83691571052622
 20
71.5
 10
10.83691571052622
 20
69.37970226664038
 42
-0.1730033431016471
 10
10.77371216231404
 20
69.20250379460049
 42
-0.1730033431016471
  0
LWPOLYLINE
  5
84
330
31
100
AcDbEntity
  8
0
100
AcDbPolyline
 90
4
 70
0
 10
10.73411418256728
 20
69.16290581485373
 42
-0.173003343101521
 10
10.55691571051284
 20
69.09970226664154
 10
8.915732299887168
 20
69.09970226664154
 42
-0.1600535475041646
 10
8.749680944318243
 20
69.15425394147314
 42
-0.1600535475041646
  0
LWPOLYLINE
  5
85
330
31
100
AcDbEntity
  8
0
100
AcDbPolyline
 90
3
 70
0
 10
8.690283974712656
 20
69.213650911086
 42
-0.1600535475041259
 10
8.635732299873778
 20
69.37970226664038
 10
8.635732299873778
 20
71.5
  0
LWPOLYLINE
  5
86
330
31
100
AcDbEntity
  8
0
100
AcDbPolyline
 90
3
 70
0
 10
10.33291571052541
 20
71.20856223044393
 10
10.33291571052541
 20
69.79970226663863
 42
-0.1616783592796193
 10
10.29398998624674
 20
69.68246885883127
 42
-0.1616783592796193
  0
LWPOLYLINE
  5
87
330
31
100
AcDbEntity
  8
0
100
AcDbPolyline
 90
4
 70
0
 10
10.2545157105269
 20
69.64290226664161
 42
-0.1622776601682571
 10
10.13691571052913
 20
69.60370226664234
 10
9.33573229987087
 20
69.60370226664234
 42
-0.1433289715803103
 10
9.230057227447105
 20
69.63463022458745
 42
-0.1433289715803103
  0
LWPOLYLINE
  5
88
330
31
100
AcDbEntity
  8
0
100
AcDbPolyline
 90
3
 70
0
 10
9.170660257826967
 20
69.69402719420759
 42
-0.1433289715802567
 10
9.139732299874593
 20
69.79970226663863
 10
9.139732299874593
 20
71.20856223044393
  0
LWPOLYLINE
  5
89
330
31
100
AcDbEntity
  8
0
100
AcDbPolyline
 90
3
 70
0
 10
9.139732299874593
 20
71.83492134188418
 10
9.139732299874593
 20
73.2438623112248
 42
-0.1619055040017489
 10
9.178761884402775
 20
73.36123474694614
 42
-0.1619055040017489
  0
LWPOLYLINE
  5
8A
330
31
100
AcDbEntity
  8
0
100
AcDbPolyline
 90
4
 70
0
 10
9.218359864149534
 20
73.40083272669288
 42
-0.1619055040018182
 10
9.33573229987087
 20
73.43986231122835
 10
10.13691571052913
 20
73.43986231122835
 42
-0.1619055040018182
 10
10.25428814625047
 20
73.40083272669288
  0
LWPOLYLINE
  5
8B
330
31
100
AcDbEntity
  8
0
100
AcDbPolyline
 90
3
 70
0
 10
10.29388612599723
 20
73.36123474694614
 42
-0.1619055040017489
 10
10.33291571052541
 20
73.2438623112248
 10
10.33291571052541
 20
71.83492134188418
  0
LINE
  5
8C
330
31
100
AcDbEntity
  8
0
100
AcDbLine
 10
9.178761884402775
 20
73.36123474694614
 30
0.0
 11
8.697943411279994
 21
73.84205322008347
 31
0.0
  0
LINE
  5
8D
330
31
100
AcDbEntity
  8
0
100
AcDbLine
 10
9.218359864149534
 20
73.40083272669288
 30
0.0
 11
8.737541391026753
 21
73.88165119983023
 31
0.0
  0
LINE
  5
8E
330
31
100
AcDbEntity
  8
0
100
AcDbLine
 10
10.29388612599723
 20
73.36123474694614
 30
0.0
 11
10.77470459912001
 21
73.84205322008347
 31
0.0
  0
LINE
  5
8F
330
31
100
AcDbEntity
  8
0
100
AcDbLine
 10
10.25428814625047
 20
73.40083272669288
 30
0.0
 11
10.73510661937325
 21
73.88165119983023
 31
0.0
  0
LINE
  5
90
330
31
100
AcDbEntity
  8
0
100
AcDbLine
 10
9.230057227447105
 20
69.63463022458745
 30
0.0
 11
8.749680944318243
 21
69.15425394147314
 31
0.0
  0
LINE
  5
91
330
31
100
AcDbEntity
  8
0
100
AcDbLine
 10
9.170660257826967
 20
69.69402719420759
 30
0.0
 11
8.690283974712656
 21
69.213650911086
 31
0.0
  0
LINE
  5
92
330
31
100
AcDbEntity
  8
0
100
AcDbLine
 10
10.2545157105269
 20
69.64290226664161
 30
0.0
 11
10.73510661937325
 21
69.1619133780332
 31
0.0
  0
LINE
  5
93
330
31
100
AcDbEntity
  8
0
100
AcDbLine
 10
10.29398998624674
 20
69.68246885883127
 30
0.0
 11
10.77470459912001
 21
69.20151135777996
 31
0.0
  0
LINE
  5
94
330
31
100
AcDbEntity
  8
0
100
AcDbLine
 10
9.139732299874593
 20
71.83492134188418
 30
0.0
 11
8.635732299873778
 21
71.54300641814189
 31
0.0
  0
LINE
  5
95
330
31
100
AcDbEntity
  8
0
100
AcDbLine
 10
8.635732299873778
 20
71.5
 30
0.0
 11
9.139732299874593
 21
71.20856223044393
 31
0.0
  0
LINE
  5
96
330
31
100
AcDbEntity
  8
0
100
AcDbLine
 10
10.33291571052541
 20
71.83492134188418
 30
0.0
 11
10.83691571052622
 21
71.54300641814189
 31
0.0
  0
LINE
  5
97
330
31
100
AcDbEntity
  8
0
100
AcDbLine
 10
10.83691571052622
 20
71.5
 30
0.0
 11
10.33291571052541
 21
71.20856223044393
 31
0.0
  0
LWPOLYLINE
  5
98
330
31
100
AcDbEntity
  8
0
100
AcDbPolyline
 90
2
 70
0
 10
7.240782011496776
 20
71.26978228893131
 10
6.447598600840137
 20
71.26978228893131
  0
LWPOLYLINE
  5
99
330
31
100
AcDbEntity
  8
0
100
AcDbPolyline
 90
2
 70
0
 10
6.447598600840137
 20
71.77378228893213
 10
7.240782011496776
 20
71.77378228893213
  0
LWPOLYLINE
  5
9A
330
31
100
AcDbEntity
  8
0
100
AcDbPolyline
 90
4
 70
0
 10
12.78994339844939
 20
70.53058430122474
 42
-0.1730033431015782
 10
12.84310294007446
 20
70.5495453656913
 10
13.33545796326507
 20
70.5495453656913
 42
-0.1730033431015092
 10
13.38861750487558
 20
70.53058430122474
  0
LWPOLYLINE
  5
9B
330
31
100
AcDbEntity
  8
0
100
AcDbPolyline
 90
3
 70
0
 10
13.40049689880834
 20
70.51870490729925
 42
-0.1730033431016178
 10
13.41945796326763
 20
70.46554536568874
 10
13.41945796326763
 20
69.82928859776439
  0
LWPOLYLINE
  5
9C
330
31
100
AcDbEntity
  8
0
100
AcDbPolyline
 90
4
 70
0
 10
13.38861750487558
 20
69.11525841677938
 42
-0.173003343101521
 10
13.33545796326507
 20
69.09629735231283
 10
12.84310294007446
 20
69.09629735231283
 42
-0.1600535475041646
 10
12.79328753340087
 20
69.1126628547645
 42
-0.1600535475041646
  0
LWPOLYLINE
  5
9D
330
31
100
AcDbEntity
  8
0
100
AcDbPolyline
 90
3
 70
0
 10
12.77546844252356
 20
69.13048194564908
 42
-0.1600535475041259
 10
12.7591029400719
 20
69.18029735231539
 10
12.7591029400719
 20
69.81638667232619
  0
LWPOLYLINE
  5
9E
330
31
100
AcDbEntity
  8
0
100
AcDbPolyline
 90
4
 70
0
 10
13.24473796325765
 20
69.2592573523143
 42
-0.1622776601682571
 10
13.20945796326123
 20
69.24749735231308
 10
12.96910294006375
 20
69.24749735231308
 42
-0.1433289715803103
 10
12.93740041834098
 20
69.25677573969733
 42
-0.1433289715803103
  0
LWPOLYLINE
  5
9F
330
31
100
AcDbEntity
  8
0
100
AcDbPolyline
 90
3
 70
0
 10
12.91958132744912
 20
69.2745948305892
 42
-0.1433289715802567
 10
12.91030294006487
 20
69.30629735231196
 10
12.91030294006487
 20
69.72895534145209
  0
LWPOLYLINE
  5
A0
330
31
100
AcDbEntity
  8
0
100
AcDbPolyline
 90
4
 70
0
 10
12.93389120934444
 20
70.38663649032969
 42
-0.1619055040018182
 10
12.96910294006375
 20
70.39834536569106
 10
13.20945796326123
 20
70.39834536569106
 42
-0.1619055040018182
 10
13.24466969398054
 20
70.38663649032969
  0
LWPOLYLINE
  5
A1
330
31
100
AcDbEntity
  8
0
100
AcDbPolyline
 90
3
 70
0
 10
13.2565490879133
 20
70.37475709640421
 42
-0.1619055040017489
 10
13.26825796326011
 20
70.33954536569217
 10
13.26825796326011
 20
69.91686307488999
  0
LINE
  5
A2
330
31
100
AcDbEntity
  8
0
100
AcDbLine
 10
12.93389120934444
 20
70.38663649032969
 30
0.0
 11
12.78964566741342
 21
70.53088203227526
 31
0.0
  0
LINE
  5
A3
330
31
100
AcDbEntity
  8
0
100
AcDbLine
 10
13.2565490879133
 20
70.37475709640421
 30
0.0
 11
13.40079462984431
 21
70.51900263834978
 31
0.0
  0
LINE
  5
A4
330
31
100
AcDbEntity
  8
0
100
AcDbLine
 10
13.24466969398054
 20
70.38663649032969
 30
0.0
 11
13.3889152359261
 21
70.53088203227526
 31
0.0
  0
LINE
  5
A5
330
31
100
AcDbEntity
  8
0
100
AcDbLine
 10
12.93740041834098
 20
69.25677573969733
 30
0.0
 11
12.79328753340087
 21
69.1126628547645
 31
0.0
  0
LINE
  5
A6
330
31
100
AcDbEntity
  8
0
100
AcDbLine
 10
12.91958132744912
 20
69.2745948305892
 30
0.0
 11
12.77546844252356
 21
69.13048194564908
 31
0.0
  0
LINE
  5
A7
330
31
100
AcDbEntity
  8
0
100
AcDbLine
 10
13.24473796325765
 20
69.2592573523143
 30
0.0
 11
13.3889152359261
 21
69.11496068572887
 31
0.0
  0
LWPOLYLINE
  5
A8
330
31
100
AcDbEntity
  8
0
100
AcDbPolyline
 90
2
 70
0
 10
13.26825796326011
 20
69.74732135900558
 10
12.91030294006487
 20
69.74732135900558
  0
LWPOLYLINE
  5
A9
330
31
100
AcDbEntity
  8
0
100
AcDbPolyline
 90
2
 70
0
 10
12.91030294006487
 20
69.89852135899855
 10
13.26825796326011
 20
69.89852135899855
  0
LINE
  5
AA
330
31
100
AcDbEntity
  8
0
100
AcDbLine
 10
12.91030294006487
 20
69.89852135899855
 30
0.0
 11
12.78741528218233
 21
69.82292135900207
 31
0.0
  0
LINE
  5
AB
330
31
100
AcDbEntity
  8
0
100
AcDbLine
 10
12.78741528218233
 20
69.82292135900207
 30
0.0
 11
12.91030294006487
 21
69.74732135900558
 31
0.0
  0
LINE
  5
AC
330
31
100
AcDbEntity
  8
0
100
AcDbLine
 10
12.7591029400719
 20
69.81638667232619
 30
0.0
 11
12.91030294006487
 21
69.72895534145209
 31
0.0
  0
LINE
  5
AD
330
31
100
AcDbEntity
  8
0
100
AcDbLine
 10
13.26825796326011
 20
69.89852135899855
 30
0.0
 11
13.39114562114264
 21
69.82292135900207
 31
0.0
  0
LINE
  5
AE
330
31
100
AcDbEntity
  8
0
100
AcDbLine
 10
13.39114562114264
 20
69.82292135900207
 30
0.0
 11
13.26825796326011
 21
69.74732135900558
 31
0.0
  0
LINE
  5
AF
330
31
100
AcDbEntity
  8
0
100
AcDbLine
 10
13.26825796326011
 20
69.91686307488999
 30
0.0
 11
13.41945796326763
 21
69.82928859776439
 31
0.0
  0
LWPOLYLINE
  5
B0
330
31
100
AcDbEntity
  8
0
100
AcDbPolyline
 90
3
 70
0
 10
13.62674304977554
 20
69.82928859776439
 10
13.62674304977554
 20
70.46554536568874
 42
-0.1730033431015677
 10
13.64570411423483
 20
70.51870490729925
 42
-0.1730033431015677
  0
LWPOLYLINE
  5
B1
330
31
100
AcDbEntity
  8
0
100
AcDbPolyline
 90
4
 70
0
 10
13.65758350816759
 20
70.53058430122474
 42
-0.1730033431015782
 10
13.7107430497781
 20
70.5495453656913
 10
14.20309807296871
 20
70.5495453656913
 42
-0.1730033431015092
 10
14.25625761459378
 20
70.53058430122474
  0
LWPOLYLINE
  5
B2
330
31
100
AcDbEntity
  8
0
100
AcDbPolyline
 90
3
 70
0
 10
14.26813700851198
 20
70.51870490729925
 42
-0.1730033431016178
 10
14.28709807297127
 20
70.46554536568874
 10
14.28709807297127
 20
69.82928859776439
  0
LWPOLYLINE
  5
B3
330
31
100
AcDbEntity
  8
0
100
AcDbPolyline
 90
3
 70
0
 10
14.28709807297127
 20
69.81638667232619
 10
14.28709807297127
 20
69.18029735231539
 42
-0.1730033431016471
 10
14.26813700851198
 20
69.12713781070488
 42
-0.1730033431016471
  0
LWPOLYLINE
  5
B4
330
31
100
AcDbEntity
  8
0
100
AcDbPolyline
 90
4
 70
0
 10
14.25625761459378
 20
69.11525841677938
 42
-0.173003343101521
 10
14.20309807296871
 20
69.09629735231283
 10
13.7107430497781
 20
69.09629735231283
 42
-0.1600535475041646
 10
13.66092764310451
 20
69.1126628547645
 42
-0.1600535475041646
  0
LWPOLYLINE
  5
B5
330
31
100
AcDbEntity
  8
0
100
AcDbPolyline
 90
3
 70
0
 10
13.6431085522272
 20
69.13048194564908
 42
-0.1600535475041259
 10
13.62674304977554
 20
69.18029735231539
 10
13.62674304977554
 20
69.81638667232619
  0
LWPOLYLINE
  5
B6
330
31
100
AcDbEntity
  8
0
100
AcDbPolyline
 90
3
 70
0
 10
14.13589807297831
 20
69.72895534145209
 10
14.13589807297831
 20
69.30629735231196
 42
-0.1616783592796193
 10
14.12422035568306
 20
69.27112732997193
 42
-0.1616783592796193
  0
LWPOLYLINE
  5
B7
330
31
100
AcDbEntity
  8
0
100
AcDbPolyline
 90
4
 70
0
 10
14.11237807297584
 20
69.2592573523143
 42
-0.1622776601682571
 10
14.07709807297942
 20
69.24749735231308
 10
13.83674304978194
 20
69.24749735231308
 42
-0.1433289715803103
 10
13.80504052804463
 20
69.25677573969733
 42
-0.1433289715803103
  0
LWPOLYLINE
  5
B8
330
31
100
AcDbEntity
  8
0
100
AcDbPolyline
 90
3
 70
0
 10
13.78722143716732
 20
69.2745948305892
 42
-0.1433289715802567
 10
13.77794304978306
 20
69.30629735231196
 10
13.77794304978306
 20
69.72895534145209
  0
LWPOLYLINE
  5
B9
330
31
100
AcDbEntity
  8
0
100
AcDbPolyline
 90
3
 70
0
 10
13.77794304978306
 20
69.91686307488999
 10
13.77794304978306
 20
70.33954536569217
 42
-0.1619055040017489
 10
13.78965192512987
 20
70.37475709640421
 42
-0.1619055040017489
  0
LWPOLYLINE
  5
BA
330
31
100
AcDbEntity
  8
0
100
AcDbPolyline
 90
4
 70
0
 10
13.80153131906263
 20
70.38663649032969
 42
-0.1619055040018182
 10
13.83674304978194
 20
70.39834536569106
 10
14.07709807297942
 20
70.39834536569106
 42
-0.1619055040018182
 10
14.11230980369873
 20
70.38663649032969
  0
LWPOLYLINE
  5
BB
330
31
100
AcDbEntity
  8
0
100
AcDbPolyline
 90
3
 70
0
 10
14.12418919761694
 20
70.37475709640421
 42
-0.1619055040017489
 10
14.13589807297831
 20
70.33954536569217
 10
14.13589807297831
 20
69.91686307488999
  0
LINE
  5
BC
330
31
100
AcDbEntity
  8
0
100
AcDbLine
 10
13.78965192512987
 20
70.37475709640421
 30
0.0
 11
13.64540638319886
 21
70.51900263834978
 31
0.0
  0
LINE
  5
BD
330
31
100
AcDbEntity
  8
0
100
AcDbLine
 10
13.80153131906263
 20
70.38663649032969
 30
0.0
 11
13.65728577713162
 21
70.53088203227526
 31
0.0
  0
LINE
  5
BE
330
31
100
AcDbEntity
  8
0
100
AcDbLine
 10
14.12418919761694
 20
70.37475709640421
 30
0.0
 11
14.26843473954795
 21
70.51900263834978
 31
0.0
  0
LINE
  5
BF
330
31
100
AcDbEntity
  8
0
100
AcDbLine
 10
14.11230980369873
 20
70.38663649032969
 30
0.0
 11
14.25655534562975
 21
70.53088203227526
 31
0.0
  0
LINE
  5
C0
330
31
100
AcDbEntity
  8
0
100
AcDbLine
 10
13.80504052804463
 20
69.25677573969733
 30
0.0
 11
13.66092764310451
 21
69.1126628547645
 31
0.0
  0
LINE
  5
C1
330
31
100
AcDbEntity
  8
0
100
AcDbLine
 10
13.78722143716732
 20
69.2745948305892
 30
0.0
 11
13.6431085522272
 21
69.13048194564908
 31
0.0
  0
LINE
  5
C2
330
31
100
AcDbEntity
  8
0
100
AcDbLine
 10
14.11237807297584
 20
69.2592573523143
 30
0.0
 11
14.25655534562975
 21
69.11496068572887
 31
0.0
  0
LINE
  5
C3
330
31
100
AcDbEntity
  8
0
100
AcDbLine
 10
14.12422035568306
 20
69.27112732997193
 30
0.0
 11
14.26843473954795
 21
69.12684007965434
 31
0.0
  0
LINE
  5
C4
330
31
100
AcDbEntity
  8
0
100
AcDbLine
 10
13.77794304978306
 20
69.91686307488999
 30
0.0
 11
13.62674304977554
 21
69.82928859776439
 31
0.0
  0
LINE
  5
C5
330
31
100
AcDbEntity
  8
0
100
AcDbLine
 10
13.62674304977554
 20
69.81638667232619
 30
0.0
 11
13.77794304978306
 21
69.72895534145209
 31
0.0
  0
LINE
  5
C6
330
31
100
AcDbEntity
  8
0
100
AcDbLine
 10
14.13589807297831
 20
69.91686307488999
 30
0.0
 11
14.28709807297127
 21
69.82928859776439
 31
0.0
  0
LINE
  5
C7
330
31
100
AcDbEntity
  8
0
100
AcDbLine
 10
14.28709807297127
 20
69.81638667232619
 30
0.0
 11
14.13589807297831
 21
69.72895534145209
 31
0.0
  0
LWPOLYLINE
  5
C8
330
31
100
AcDbEntity
  8
0
100
AcDbPolyline
 90
2
 70
0
 10
13.20825796326244
 20
69.74732135900558
 10
12.97030294006254
 20
69.74732135900558
  0
LWPOLYLINE
  5
C9
330
31
100
AcDbEntity
  8
0
100
AcDbPolyline
 90
2
 70
0
 10
12.97030294006254
 20
69.89852135899855
 10
13.20825796326244
 20
69.89852135899855
  0
LWPOLYLINE
  5
CA
330
31
100
AcDbEntity
  8
0
100
AcDbPolyline
 90
4
 70
1
 10
4.73808093721891
 20
71.92178228893317
 10
4.938080937216
 20
71.92178228893317
 10
4.938080937216
 20
72.12178228893026
 10
4.73808093721891
 20
72.12178228893026
  0
LWPOLYLINE
  5
CB
330
31
100
AcDbEntity
  8
0
100
AcDbPolyline
 90
4
 70
1
 10
4.73808093721891
 20
70.92178228893317
 10
4.938080937216
 20
70.92178228893317
 10
4.938080937216
 20
71.12178228893026
 10
4.73808093721891
 20
71.12178228893026
  0
LWPOLYLINE
  5
CC
330
31
100
AcDbEntity
  8
0
100
AcDbPolyline
 90
4
 70
1
 10
4.73808093721891
 20
70.92178228893317
 10
4.938080937216
 20
70.92178228893317
 10
4.938080937216
 20
71.12178228893026
 10
4.73808093721891
 20
71.12178228893026
  0
LWPOLYLINE
  5
CD
330
31
100
AcDbEntity
  8
0
100
AcDbPolyline
 90
4
 70
0
 10
-14.14815375493344
 20
70.53058430122474
 42
-0.1730033431015782
 10
-14.09499421330838
 20
70.5495453656913
 10
-13.60263919011777
 20
70.5495453656913
 42
-0.1730033431015092
 10
-13.54947964850726
 20
70.53058430122474
  0
LWPOLYLINE
  5
CE
330
31
100
AcDbEntity
  8
0
100
AcDbPolyline
 90
3
 70
0
 10
-13.5376002545745
 20
70.51870490729925
 42
-0.1730033431016178
 10
-13.51863919011521
 20
70.46554536568874
 10
-13.51863919011521
 20
69.82928859776439
  0
LWPOLYLINE
  5
CF
330
31
100
AcDbEntity
  8
0
100
AcDbPolyline
 90
4
 70
0
 10
-13.54947964850726
 20
69.11525841677938
 42
-0.173003343101521
 10
-13.60263919011777
 20
69.09629735231283
 10
-14.09499421330838
 20
69.09629735231283
 42
-0.1600535475041646
 10
-14.14480961998197
 20
69.1126628547645
 42
-0.1600535475041646
  0
LWPOLYLINE
  5
D0
330
31
100
AcDbEntity
  8
0
100
AcDbPolyline
 90
3
 70
0
 10
-14.16262871085928
 20
69.13048194564908
 42
-0.1600535475041259
 10
-14.17899421331094
 20
69.18029735231539
 10
-14.17899421331094
 20
69.81638667232619
  0
LWPOLYLINE
  5
D1
330
31
100
AcDbEntity
  8
0
100
AcDbPolyline
 90
4
 70
0
 10
-13.69335919012519
 20
69.2592573523143
 42
-0.1622776601682571
 10
-13.72863919012161
 20
69.24749735231308
 10
-13.96899421331909
 20
69.24749735231308
 42
-0.1433289715803103
 10
-14.00069673504185
 20
69.25677573969733
 42
-0.1433289715803103
  0
LWPOLYLINE
  5
D2
330
31
100
AcDbEntity
  8
0
100
AcDbPolyline
 90
3
 70
0
 10
-14.01851582593372
 20
69.2745948305892
 42
-0.1433289715802567
 10
-14.02779421331797
 20
69.30629735231196
 10
-14.02779421331797
 20
69.72895534145209
  0
LWPOLYLINE
  5
D3
330
31
100
AcDbEntity
  8
0
100
AcDbPolyline
 90
4
 70
0
 10
-14.0042059440384
 20
70.38663649032969
 42
-0.1619055040018182
 10
-13.96899421331909
 20
70.39834536569106
 10
-13.72863919012161
 20
70.39834536569106
 42
-0.1619055040018182
 10
-13.6934274594023
 20
70.38663649032969
  0
LWPOLYLINE
  5
D4
330
31
100
AcDbEntity
  8
0
100
AcDbPolyline
 90
3
 70
0
 10
-13.68154806546954
 20
70.37475709640421
 42
-0.1619055040017489
 10
-13.66983919012273
 20
70.33954536569217
 10
-13.66983919012273
 20
69.91686307488999
  0
LINE
  5
D5
330
31
100
AcDbEntity
  8
0
100
AcDbLine
 10
-14.0042059440384
 20
70.38663649032969
 30
0.0
 11
-14.14845148596941
 21
70.53088203227526
 31
0.0
  0
LINE
  5
D6
330
31
100
AcDbEntity
  8
0
100
AcDbLine
 10
-13.68154806546954
 20
70.37475709640421
 30
0.0
 11
-13.53730252353853
 21
70.51900263834978
 31
0.0
  0
LINE
  5
D7
330
31
100
AcDbEntity
  8
0
100
AcDbLine
 10
-13.6934274594023
 20
70.38663649032969
 30
0.0
 11
-13.54918191745673
 21
70.53088203227526
 31
0.0
  0
LINE
  5
D8
330
31
100
AcDbEntity
  8
0
100
AcDbLine
 10
-14.00069673504185
 20
69.25677573969733
 30
0.0
 11
-14.14480961998197
 21
69.1126628547645
 31
0.0
  0
LINE
  5
D9
330
31
100
AcDbEntity
  8
0
100
AcDbLine
 10
-14.01851582593372
 20
69.2745948305892
 30
0.0
 11
-14.16262871085928
 21
69.13048194564908
 31
0.0
  0
LINE
  5
DA
330
31
100
AcDbEntity
  8
0
100
AcDbLine
 10
-13.69335919012519
 20
69.2592573523143
 30
0.0
 11
-13.54918191745673
 21
69.11496068572887
 31
0.0
  0
LWPOLYLINE
  5
DB
330
31
100
AcDbEntity
  8
0
100
AcDbPolyline
 90
2
 70
0
 10
-13.66983919012273
 20
69.74732135900558
 10
-14.02779421331797
 20
69.74732135900558
  0
LWPOLYLINE
  5
DC
330
31
100
AcDbEntity
  8
0
100
AcDbPolyline
 90
2
 70
0
 10
-14.02779421331797
 20
69.89852135899855
 10
-13.66983919012273
 20
69.89852135899855
  0
LINE
  5
DD
330
31
100
AcDbEntity
  8
0
100
AcDbLine
 10
-14.02779421331797
 20
69.89852135899855
 30
0.0
 11
-14.1506818712005
 21
69.82292135900207
 31
0.0
  0
LINE
  5
DE
330
31
100
AcDbEntity
  8
0
100
AcDbLine
 10
-14.1506818712005
 20
69.82292135900207
 30
0.0
 11
-14.02779421331797
 21
69.74732135900558
 31
0.0
  0
LINE
  5
DF
330
31
100
AcDbEntity
  8
0
100
AcDbLine
 10
-14.17899421331094
 20
69.81638667232619
 30
0.0
 11
-14.02779421331797
 21
69.72895534145209
 31
0.0
  0
LINE
  5
E0
330
31
100
AcDbEntity
  8
0
100
AcDbLine
 10
-13.66983919012273
 20
69.89852135899855
 30
0.0
 11
-13.5469515322402
 21
69.82292135900207
 31
0.0
  0
LINE
  5
E1
330
31
100
AcDbEntity
  8
0
100
AcDbLine
 10
-13.5469515322402
 20
69.82292135900207
 30
0.0
 11
-13.66983919012273
 21
69.74732135900558
 31
0.0
  0
LINE
  5
E2
330
31
100
AcDbEntity
  8
0
100
AcDbLine
 10
-13.66983919012273
 20
69.91686307488999
 30
0.0
 11
-13.51863919011521
 21
69.82928859776439
 31
0.0
  0
LWPOLYLINE
  5
E3
330
31
100
AcDbEntity
  8
0
100
AcDbPolyline
 90
2
 70
0
 10
-13.7298391901204
 20
69.74732135900558
 10
-13.9677942133203
 20
69.74732135900558
  0
LWPOLYLINE
  5
E4
330
31
100
AcDbEntity
  8
0
100
AcDbPolyline
 90
2
 70
0
 10
-13.9677942133203
 20
69.89852135899855
 10
-13.7298391901204
 20
69.89852135899855
  0
LWPOLYLINE
  5
E5
330
31
100
AcDbEntity
  8
0
100
AcDbPolyline
 90
3
 70
0
 10
-13.53500469259597
 20
69.13048194564908
 42
0.1600535475041259
 10
-13.51863919014431
 20
69.18029735231539
 10
-13.51863919014431
 20
69.81638667232619
  0
LWPOLYLINE
  5
E6
330
31
100
AcDbEntity
  8
0
100
AcDbPolyline
 90
3
 70
0
 10
-13.67911757752154
 20
69.2745948305892
 42
0.1433289715802567
 10
-13.66983919013728
 20
69.30629735231196
 10
-13.66983919013728
 20
69.72895534145209
  0
LINE
  5
E7
330
31
100
AcDbEntity
  8
0
100
AcDbLine
 10
-13.67911757752154
 20
69.2745948305892
 30
0.0
 11
-13.53500469259597
 21
69.13048194564908
 31
0.0
  0
LINE
  5
E8
330
31
100
AcDbEntity
  8
0
100
AcDbLine
 10
-13.51863919014431
 20
69.81638667232619
 30
0.0
 11
-13.66983919013728
 21
69.72895534145209
 31
0.0
  0
HATCH
  5
E9
330
31
100
AcDbEntity
  8
0
 62
8
370
9
100
AcDbHatch
 10
0.0
 20
0.0
 30
0.0
210
0.0
220
0.0
230
1.0
  2
SOLID
 70
1
 71
0
 91
1
 92
1
 93
1
 72
3
 10
-11.13516718160099
 20
53.45054611175874
 11
-2.287801390537393
 21
2.883290647911398
 40
0.5371900826072277
 50
0.0
 51
360.0
 73
0
 97
1
330
6EA0A
 75
0
 76
1
 98
1
 10
-28158.80112192168
 20
50544.82951753125
450
0
451
0
460
0.0
461
0.0
452
0
462
0.0
453
2
463
0
 63
5
421
255
463
1
 63
51
421
16777113
470
LINEAR
  0
ELLIPSE
  5
EA
330
31
100
AcDbEntity
  8
0
 62
253
370
9
100
AcDbEllipse
 10
-11.13516718160099
 20
53.45054611175874
 30
0.0
 11
-2.287801390537393
 21
2.883290647911397
 31
0.0
210
0.0
220
0.0
230
-0.9999999999999998
 40
0.537190082607228
 41
0.0
 42
6.283185307179584
  0
HATCH
  5
EB
330
31
100
AcDbEntity
  8
0
 62
8
370
9
100
AcDbHatch
 10
0.0
 20
0.0
 30
0.0
210
0.0
220
0.0
230
1.0
  2
SOLID
 70
1
 71
0
 91
1
 92
1
 93
1
 72
3
 10
-0.1351671816009912
 20
53.45054611175874
 11
-2.287801390537393
 21
2.883290647911398
 40
0.5371900826072277
 50
0.0
 51
360.0
 73
0
 97
1
330
6EA0C
 75
0
 76
1
 98
1
 10
-28147.80112192167
 20
50544.82951753125
450
0
451
0
460
0.0
461
0.0
452
0
462
0.0
453
2
463
0
 63
5
421
255
463
1
 63
51
421
16777113
470
LINEAR
  0
ELLIPSE
  5
EC
330
31
100
AcDbEntity
  8
0
 62
253
370
9
100
AcDbEllipse
 10
-0.1351671816009912
 20
53.45054611175874
 30
0.0
 11
-2.287801390537393
 21
2.883290647911397
 31
0.0
210
0.0
220
0.0
230
-0.9999999999999998
 40
0.537190082607228
 41
0.0
 42
6.283185307179584
  0
HATCH
  5
ED
330
31
100
AcDbEntity
  8
0
 62
8
370
9
100
AcDbHatch
 10
0.0
 20
0.0
 30
0.0
210
0.0
220
0.0
230
1.0
  2
SOLID
 70
1
 71
0
 91
1
 92
1
 93
1
 72
3
 10
10.86483281839901
 20
53.45054611175874
 11
-2.287801390537393
 21
2.883290647911398
 40
0.5371900826072277
 50
0.0
 51
360.0
 73
0
 97
1
330
6EA0E
 75
0
 76
1
 98
1
 10
-28136.80112192167
 20
50544.82951753125
450
0
451
0
460
0.0
461
0.0
452
0
462
0.0
453
2
463
0
 63
5
421
255
463
1
 63
51
421
16777113
470
LINEAR
  0
ELLIPSE
  5
EE
330
31
100
AcDbEntity
  8
0
 62
253
370
9
100
AcDbEllipse
 10
10.86483281839901
 20
53.45054611175874
 30
0.0
 11
-2.287801390537393
 21
2.883290647911397
 31
0.0
210
0.0
220
0.0
230
-0.9999999999999998
 40
0.537190082607228
 41
0.0
 42
6.283185307179584
  0
HATCH
  5
EF
330
31
100
AcDbEntity
  8
0
 62
8
370
9
100
AcDbHatch
 10
0.0
 20
0.0
 30
0.0
210
0.0
220
0.0
230
1.0
  2
SOLID
 70
1
 71
0
 91
1
 92
1
 93
1
 72
3
 10
-5.635167181600991
 20
42.45054611175874
 11
-2.287801390537393
 21
2.883290647911398
 40
0.5371900826072277
 50
0.0
 51
360.0
 73
0
 97
1
330
6EA10
 75
0
 76
1
 98
1
 10
-28153.30112192167
 20
50533.82951753125
450
0
451
0
460
0.0
461
0.0
452
0
462
0.0
453
2
463
0
 63
5
421
255
463
1
 63
51
421
16777113
470
LINEAR
  0
ELLIPSE
  5
F0
330
31
100
AcDbEntity
  8
0
 62
253
370
9
100
AcDbEllipse
 10
-5.635167181600991
 20
42.45054611175874
 30
0.0
 11
-2.287801390537393
 21
2.883290647911397
 31
0.0
210
0.0
220
0.0
230
-0.9999999999999998
 40
0.537190082607228
 41
0.0
 42
6.283185307179584
  0
HATCH
  5
F1
330
31
100
AcDbEntity
  8
0
 62
8
370
9
100
AcDbHatch
 10
0.0
 20
0.0
 30
0.0
210
0.0
220
0.0
230
1.0
  2
SOLID
 70
1
 71
0
 91
1
 92
1
 93
1
 72
3
 10
5.364832818399008
 20
42.45054611175874
 11
-2.287801390537393
 21
2.883290647911398
 40
0.5371900826072277
 50
0.0
 51
360.0
 73
0
 97
1
330
6EA12
 75
0
 76
1
 98
1
 10
-28142.30112192167
 20
50533.82951753125
450
0
451
0
460
0.0
461
0.0
452
0
462
0.0
453
2
463
0
 63
5
421
255
463
1
 63
51
421
16777113
470
LINEAR
  0
ELLIPSE
  5
F2
330
31
100
AcDbEntity
  8
0
 62
253
370
9
100
AcDbEllipse
 10
5.364832818399008
 20
42.45054611175874
 30
0.0
 11
-2.287801390537393
 21
2.883290647911397
 31
0.0
210
0.0
220
0.0
230
-0.9999999999999998
 40
0.537190082607228
 41
0.0
 42
6.283185307179584
  0
HATCH
  5
F3
330
31
100
AcDbEntity
  8
0
 62
8
370
9
100
AcDbHatch
 10
0.0
 20
0.0
 30
0.0
210
0.0
220
0.0
230
1.0
  2
SOLID
 70
1
 71
0
 91
1
 92
1
 93
1
 72
3
 10
16.36483281839901
 20
42.45054611175874
 11
-2.287801390537393
 21
2.883290647911398
 40
0.5371900826072277
 50
0.0
 51
360.0
 73
0
 97
1
330
6EA14
 75
0
 76
1
 98
1
 10
-28131.30112192167
 20
50533.82951753125
450
0
451
0
460
0.0
461
0.0
452
0
462
0.0
453
2
463
0
 63
5
421
255
463
1
 63
51
421
16777113
470
LINEAR
  0
ELLIPSE
  5
F4
330
31
100
AcDbEntity
  8
0
 62
253
370
9
100
AcDbEllipse
 10
16.36483281839901
 20
42.45054611175874
 30
0.0
 11
-2.287801390537393
 21
2.883290647911397
 31
0.0
210
0.0
220
0.0
230
-0.9999999999999998
 40
0.537190082607228
 41
0.0
 42
6.283185307179584
  0
HATCH
  5
F5
330
31
100
AcDbEntity
  8
0
 62
1
100
AcDbHatch
 10
0.0
 20
0.0
 30
0.0
210
0.0
220
0.0
230
1.0
  2
SOLID
 70
1
 71
0
 91
1
 92
1
 93
1
 72
2
 10
-15.9737291892161
 20
42.16062305297237
 40
2.5
 50
0.0
 51
360.0
 73
1
 97
1
330
6EA16
 75
0
 76
1
 98
1
 10
-90309.05991025838
 20
-37926.70901437701
450
1
451
0
460
0.0
461
0.0
452
1
462
0.5899999737739563
453
2
463
0
 63
1
421
16124173
463
1
 63
240
421
16266552
470
INVCYLINDER
  0
CIRCLE
  5
F6
330
31
100
AcDbEntity
  8
0
 62
1
100
AcDbCircle
 10
-15.9737291892161
 20
42.16062305297237
 30
0.0
 40
2.5
  0
LINE
  5
F7
330
31
100
AcDbEntity
  8
0
100
AcDbLine
 10
-27.50000000000728
 20
15.0
 30
0.0
 11
-24.50000000000728
 21
15.0
 31
0.0
  0
LINE
  5
F8
330
31
100
AcDbEntity
  8
0
100
AcDbLine
 10
-19.50000000000727
 20
15.0
 30
0.0
 11
-14.50000000000727
 21
15.0
 31
0.0
  0
LINE
  5
F9
330
31
100
AcDbEntity
  8
0
100
AcDbLine
 10
-9.500000000007274
 20
15.0
 30
0.0
 11
-4.499999999992724
 21
15.0
 31
0.0
  0
LINE
  5
FA
330
31
100
AcDbEntity
  8
0
100
AcDbLine
 10
4.500000000007275
 20
15.0
 30
0.0
 11
9.500000000021828
 21
15.0
 31
0.0
  0
LINE
  5
FB
330
31
100
AcDbEntity
  8
0
100
AcDbLine
 10
14.50000000002183
 20
15.0
 30
0.0
 11
19.50000000002183
 21
15.0
 31
0.0
  0
LINE
  5
FC
330
31
100
AcDbEntity
  8
0
100
AcDbLine
 10
24.50000000002183
 20
15.0
 30
0.0
 11
27.50000000000728
 21
15.0
 31
0.0
  0
ARC
  5
FD
330
31
100
AcDbEntity
  8
0
100
AcDbCircle
 10
-22.00000000000728
 20
12.37499999999272
 30
0.0
 40
3.625000000005268
100
AcDbArc
 50
46.39718102771147
 51
133.6028189722885
  0
ARC
  5
FE
330
31
100
AcDbEntity
  8
0
100
AcDbCircle
 10
-12.00000000000727
 20
12.37499999999272
 30
0.0
 40
3.625000000005268
100
AcDbArc
 50
46.39718102771147
 51
133.6028189722885
  0
ARC
  5
FF
330
31
100
AcDbEntity
  8
0
100
AcDbCircle
 10
7.276e-12
 20
12.2326088209229
 30
0.0
 40
5.282845250244768
100
AcDbArc
 50
31.59051037459742
 51
148.4094896254026
  0
ARC
  5
100
330
31
100
AcDbEntity
  8
0
100
AcDbCircle
 10
22.00000000002183
 20
12.37499999999272
 30
0.0
 40
3.625000000005268
100
AcDbArc
 50
46.39718102771147
 51
133.6028189722885
  0
ARC
  5
101
330
31
100
AcDbEntity
  8
0
100
AcDbCircle
 10
12.00000000002183
 20
12.37499999999272
 30
0.0
 40
3.625000000005268
100
AcDbArc
 50
46.39718102771147
 51
133.6028189722885
  0
MTEXT
  5
102
330
31
100
AcDbEntity
  8
0
 62
253
370
9
100
AcDbMText
 10
-12.82421972980228
 20
59.43324161259079
 30
0.0
 40
1.3824
 41
6.91124644296778
 46
100.0000000000031
 71
5
 72
5
  1
D+
  7
ARIAL
  0
MTEXT
  5
103
330
31
100
AcDbEntity
  8
0
 62
253
370
9
100
AcDbMText
 10
-1.82421972980228
 20
59.43324161259079
 30
0.0
 40
1.3824
 41
6.91124644296778
 46
100.0000000000031
 71
5
 72
5
  1
H+
  7
ARIAL
  0
MTEXT
  5
104
330
31
100
AcDbEntity
  8
0
 62
253
370
9
100
AcDbMText
 10
9.17578027019772
 20
59.43324161259079
 30
0.0
 40
1.3824
 41
6.91124644296778
 46
100.0000000000031
 71
5
 72
5
  1
M+
  7
ARIAL
  0
MTEXT
  5
105
330
31
100
AcDbEntity
  8
0
 62
253
370
9
100
AcDbMText
 10
-14.04996314469463
 20
36.74418215135665
 30
0.0
 40
1.3824
 41
6.91124644296778
 46
100.0000000000031
 71
5
 72
5
  1
MANUAL
  7
ARIAL
  0
MTEXT
  5
106
330
31
100
AcDbEntity
  8
0
 62
253
370
9
100
AcDbMText
 10
-1.82421972980228
 20
36.74418215135665
 30
0.0
 40
1.3824
 41
6.91124644296778
 46
100.0000000000031
 71
5
 72
5
  1
P
  7
ARIAL
  0
LWPOLYLINE
  5
107
330
31
100
AcDbEntity
  8
0
 62
253
100
AcDbPolyline
 90
6
 70
0
 10
-20.81872862218734
 20
37.61361555621261
 10
-20.36342751602206
 20
38.14842854852031
 42
0.4142135623730951
 10
-20.39358587499737
 20
38.50920891575515
 10
-20.43158001111442
 20
38.54134105498815
 42
0.4142135623730951
 10
-20.79236037833471
 20
38.51118269599101
 10
-21.37122185520275
 20
37.8302677118918
  0
LWPOLYLINE
  5
108
330
31
100
AcDbEntity
  8
0
 62
253
100
AcDbPolyline
 90
6
 70
0
 10
-20.40048328837293
 20
37.23822411092988
 10
-19.67356618744816
 20
38.09420510888595
 42
0.4142135623730951
 10
-19.70372454643802
 20
38.45498547612806
 10
-19.74171868254052
 20
38.48711761535378
 42
0.4142135623730951
 10
-20.10249904977536
 20
38.45695925635664
 10
-20.81872862218734
 20
37.61361555621261
  0
LWPOLYLINE
  5
109
330
31
100
AcDbEntity
  8
0
 62
253
100
AcDbPolyline
 90
6
 70
0
 10
-20.12138035322278
 20
36.69830595317035
 10
-19.06284442598553
 20
37.94995489588473
 42
0.4142135623730951
 10
-19.09300278497539
 20
38.31073526312684
 10
-19.13099692106334
 20
38.34286740234529
 42
0.4142135623730951
 10
-19.49177728829818
 20
38.31270904334088
 10
-20.40048328837293
 20
37.23822411092988
  0
LWPOLYLINE
  5
10A
330
31
100
AcDbEntity
  8
0
 62
253
100
AcDbPolyline
 90
6
 70
0
 10
-21.06613783767534
 20
34.88838879641844
 10
-18.02651772958779
 20
38.47735766476399
 42
0.4142135623730951
 10
-18.05064441679133
 20
38.76598195856786
 10
-18.08103972565004
 20
38.79168766993098
 42
0.4142135623730951
 10
-18.3696640194612
 20
38.767560982742
 10
-20.12138035322278
 20
36.69830595317035
  0
ARC
  5
10B
330
31
100
AcDbEntity
  8
0
 62
253
100
AcDbCircle
 10
-19.1666497360784
 20
34.90554837122181
 30
0.0
 40
3.662529378748325
100
AcDbArc
 50
127.0079711449461
 51
149.0453814361202
  0
CIRCLE
  5
10C
330
31
100
AcDbEntity
  8
0
 62
8
100
AcDbCircle
 10
6.761419514405133
 20
36.59057276934618
 30
0.0
 40
1.039619337381199
  0
LINE
  5
10D
330
31
100
AcDbEntity
  8
0
 62
8
100
AcDbLine
 10
6.761419514405133
 20
36.59057276934618
 30
0.0
 11
6.761419514405133
 21
37.63019210672792
 31
0.0
  0
LINE
  5
10E
330
31
100
AcDbEntity
  8
0
 62
8
100
AcDbLine
 10
6.761419514405133
 20
37.63019210672792
 30
0.0
 11
6.761419514405133
 21
36.59057276934618
 31
0.0
  0
LINE
  5
10F
330
31
100
AcDbEntity
  8
0
 62
8
100
AcDbLine
 10
6.761419514405133
 20
36.59057276934618
 30
0.0
 11
7.801038851779594
 21
36.59057276934618
 31
0.0
  0
MTEXT
  5
110
330
31
100
AcDbEntity
  8
0
 62
253
370
9
100
AcDbMText
 10
20.17578027019772
 20
36.74418215135665
 30
0.0
 40
1.3824
 41
6.91124644296778
 46
100.0000000000031
 71
5
 72
5
  1
C/R
  7
ARIAL
  0
MTEXT
  5
111
330
31
100
AcDbEntity
  8
0
 62
253
370
9
100
AcDbMText
 10
6.326920129569771
 20
65.84436621738132
 30
0.0
 40
0.8294400000000001
 41
4.146747865780668
 46
100.0000000000031
 71
5
 72
5
  1
AUTO
  7
ARIAL
  0
CIRCLE
  5
112
330
31
100
AcDbEntity
  8
0
100
AcDbCircle
 10
-21.94811936740734
 20
11.19999921321869
 30
0.0
 40
3.0
  0
CIRCLE
  5
113
330
31
100
AcDbEntity
  8
0
100
AcDbCircle
 10
7.276e-12
 20
11.19999921321869
 30
0.0
 40
3.0
  0
CIRCLE
  5
114
330
31
100
AcDbEntity
  8
0
100
AcDbCircle
 10
-12.00000000000727
 20
11.19999921321869
 30
0.0
 40
3.0
  0
LINE
  5
115
330
31
100
AcDbEntity
  8
0
100
AcDbLine
 10
-20.49855046596349
 20
9.750430311774833
 30
0.0
 11
-23.3976882688512
 21
12.64956811466254
 31
0.0
  0
LINE
  5
116
330
31
100
AcDbEntity
  8
0
100
AcDbLine
 10
-20.49855046596349
 20
12.64956811466254
 30
0.0
 11
-23.3976882688512
 21
9.750430311774833
 31
0.0
  0
LINE
  5
117
330
31
100
AcDbEntity
  8
0
100
AcDbLine
 10
-10.55043109856342
 20
12.64956811466254
 30
0.0
 11
-13.44956890145113
 21
9.750430311774833
 31
0.0
  0
LINE
  5
118
330
31
100
AcDbEntity
  8
0
100
AcDbLine
 10
-10.55043109856342
 20
9.750430311774833
 30
0.0
 11
-13.44956890145113
 21
12.64956811466254
 31
0.0
  0
CIRCLE
  5
119
330
31
100
AcDbEntity
  8
0
100
AcDbCircle
 10
21.9481193674219
 20
11.19999921321869
 30
0.0
 40
3.0
  0
CIRCLE
  5
11A
330
31
100
AcDbEntity
  8
0
100
AcDbCircle
 10
12.00000000002183
 20
11.19999921321869
 30
0.0
 40
3.0
  0
LINE
  5
11B
330
31
100
AcDbEntity
  8
0
100
AcDbLine
 10
20.49855046597804
 20
9.750430311774833
 30
0.0
 11
23.39768826886575
 21
12.64956811466254
 31
0.0
  0
LINE
  5
11C
330
31
100
AcDbEntity
  8
0
100
AcDbLine
 10
20.49855046597804
 20
12.64956811466254
 30
0.0
 11
23.39768826886575
 21
9.750430311774833
 31
0.0
  0
LINE
  5
11D
330
31
100
AcDbEntity
  8
0
100
AcDbLine
 10
10.55043109857797
 20
12.64956811466254
 30
0.0
 11
13.44956890146568
 21
9.750430311774833
 31
0.0
  0
LINE
  5
11E
330
31
100
AcDbEntity
  8
0
100
AcDbLine
 10
10.55043109857797
 20
9.750430311774833
 30
0.0
 11
13.44956890146568
 21
12.64956811466254
 31
0.0
  0
LWPOLYLINE
  5
11F
330
31
100
AcDbEntity
  8
0
100
AcDbPolyline
 90
8
 70
1
 10
14.8151895743722
 20
1.975322131605935
 10
19.2660868848543
 20
1.975322131605935
 42
0.4142135623707369
 10
19.56608688485721
 20
2.275322131608845
 10
19.56608688487176
 20
3.782766712341981
 42
0.4142135623733969
 10
19.26608688486885
 20
4.082766712344891
 10
14.8151895743722
 20
4.082766712344891
 42
0.4142135623727891
 10
14.51518957436929
 20
3.782766712341981
 10
14.51518957436929
 20
2.275322131608845
 42
0.4142135623730951
  0
MTEXT
  5
120
330
31
100
AcDbEntity
  8
0
100
AcDbMText
 10
15.3299286002948
 20
3.830948053313477
 30
0.0
 40
1.25
 41
1.976740411773789
 46
0.0
 71
1
 72
5
  1
{\Ftxt1|c0;Load}
  0
LINE
  5
121
330
31
100
AcDbEntity
  8
0
100
AcDbLine
 10
19.56608688485721
 20
3.029044421971775
 30
0.0
 11
22.54963527961081
 21
3.029044421971775
 31
0.0
  0
LINE
  5
122
330
31
100
AcDbEntity
  8
0
100
AcDbLine
 10
22.54963527961081
 20
3.029044421971775
 30
0.0
 11
22.54963527961081
 21
6.991021676949458
 31
0.0
  0
LINE
  5
123
330
31
100
AcDbEntity
  8
0
100
AcDbLine
 10
14.51518957436929
 20
3.029044421971775
 30
0.0
 11
11.53164117961569
 21
3.029044421971775
 31
0.0
  0
LINE
  5
124
330
31
100
AcDbEntity
  8
0
100
AcDbLine
 10
11.53164117961569
 20
3.029044421971775
 30
0.0
 11
11.53164117961569
 21
6.96688505338534
 31
0.0
  0
CIRCLE
  5
125
330
31
100
AcDbEntity
  8
0
100
AcDbCircle
 10
-17.12140771328268
 20
3.868033059719891
 30
0.0
 40
2.7
  0
ARC
  5
126
330
31
100
AcDbEntity
  8
0
100
AcDbCircle
 10
-18.13158383280824
 20
4.679459966362628
 30
0.0
 40
1.145193167255512
100
AcDbArc
 50
196.4690447137775
 51
322.4649354945352
  0
ARC
  5
127
330
31
100
AcDbEntity
  8
0
100
AcDbCircle
 10
-16.31535182246443
 20
3.284049329347908
 30
0.0
 40
1.145193167255512
100
AcDbArc
 50
16.46904471336581
 51
142.4649354945352
  0
LINE
  5
128
330
31
100
AcDbEntity
  8
0
100
AcDbLine
 10
-19.82140771327977
 20
3.868033059719891
 30
0.0
 11
-22.28977357030817
 21
3.868033059719891
 31
0.0
  0
LINE
  5
129
330
31
100
AcDbEntity
  8
0
100
AcDbLine
 10
-22.28977357030817
 20
3.868033059719891
 30
0.0
 11
-22.28977357030817
 21
7.361981763737276
 31
0.0
  0
LINE
  5
12A
330
31
100
AcDbEntity
  8
0
100
AcDbLine
 10
-14.42140771328559
 20
3.868033059719891
 30
0.0
 11
-11.95304185624263
 21
3.868033059719891
 31
0.0
  0
LINE
  5
12B
330
31
100
AcDbEntity
  8
0
100
AcDbLine
 10
-11.95304185624263
 20
3.868033059719891
 30
0.0
 11
-11.95304185624263
 21
7.361981763737276
 31
0.0
  0
HATCH
  5
12C
330
31
100
AcDbEntity
  8
0
 62
8
370
9
100
AcDbHatch
 10
0.0
 20
0.0
 30
0.0
210
0.0
220
0.0
230
1.0
  2
SOLID
 70
1
 71
0
 91
1
 92
1
 93
1
 72
2
 10
18.60352956681891
 20
51.77067741360224
 40
0.5
 50
0.0
 51
360.0
 73
1
 97
1
330
6EA4D
 75
0
 76
1
 98
1
 10
-90309.05991025838
 20
-37926.70901437701
450
0
451
0
460
0.0
461
0.0
452
1
462
0.5899999737739563
453
2
463
0
 63
9
421
12632256
463
1
 63
252
421
9868950
470
INVCYLINDER
  0
CIRCLE
  5
12D
330
31
100
AcDbEntity
  8
0
 62
8
370
9
100
AcDbCircle
 10
18.60352956681891
 20
51.77067741360224
 30
0.0
 40
0.5
  0
HATCH
  5
12E
330
31
100
AcDbEntity
  8
0
 62
1
100
AcDbHatch
 10
0.0
 20
0.0
 30
0.0
210
0.0
220
0.0
230
1.0
  2
SOLID
 70
1
 71
0
 91
1
 92
1
 93
1
 72
2
 10
18.60352956681891
 20
60.73918904091988
 40
0.5
 50
0.0
 51
360.0
 73
1
 97
1
330
6EA4F
 75
0
 76
1
 98
1
 10
-90309.05991025838
 20
-37926.70901437701
450
1
451
0
460
0.0
461
0.0
452
1
462
0.5899999737739563
453
2
463
0
 63
13
421
16536663
463
1
 63
240
421
16527668
470
INVCYLINDER
  0
CIRCLE
  5
12F
330
31
100
AcDbEntity
  8
0
 62
1
100
AcDbCircle
 10
18.60352956681891
 20
60.73918904091988
 30
0.0
 40
0.5
  0
MTEXT
  5
130
330
31
100
AcDbEntity
  8
0
 62
253
370
9
100
AcDbMText
 10
19.2577674508866
 20
56.62090306898608
 30
0.0
 40
0.6912000000000001
 41
3.45562322148389
 46
100.0000000000031
 71
5
 72
5
  1
C
  7
ARIAL
  0
MTEXT
  5
131
330
31
100
AcDbEntity
  8
0
 62
253
370
9
100
AcDbMText
 10
1.688018750523042
 20
89.63551896257559
 30
0.0
 40
2.48832
 41
33.72683625294764
 46
100.0000000000031
 71
5
 72
5
  1
Electron timer
  7
ARIAL
  0
LWPOLYLINE
  5
132
330
31
100
AcDbEntity
  8
0
 62
253
100
AcDbPolyline
 90
8
 70
1
 10
4.456980852024571
 20
65.16703239631897
 10
7.998938106633431
 20
65.1670323963117
 42
0.4142135623730951
 10
8.298938106636342
 20
65.46703239631461
 10
8.298938106636342
 20
66.25638034073927
 42
0.4142135623730951
 10
7.998938106633431
 20
66.55638034074218
 10
4.456980852024571
 20
66.55638034074218
 42
0.4142135623730951
 10
4.156980852021661
 20
66.25638034073927
 10
4.156980852021661
 20
65.46703239632188
 42
0.4142135623725405
  0
LWPOLYLINE
  5
133
330
31
100
AcDbEntity
  8
0
 60
1
100
AcDbPolyline
 90
3
 70
0
 10
7.276e-12
 20
39.0
 10
7.276e-12
 20
0.0
 10
32.00000000000728
 20
0.0
  0
LWPOLYLINE
  5
134
330
31
100
AcDbEntity
  8
0
 60
1
100
AcDbPolyline
 90
7
 70
0
 10
33.00000000000728
 20
15.0
 10
42.00000000000727
 20
15.0
 42
0.4142135623730951
 10
43.00000000000728
 20
16.0
 10
43.00000000002182
 20
98.0
 42
0.4142135623730951
 10
42.00000000002183
 20
99.0
 10
7.276e-12
 20
99.0
 10
7.276e-12
 20
74.0
  0
LWPOLYLINE
  5
135
330
31
100
AcDbEntity
  8
0
 60
1
100
AcDbPolyline
 90
5
 70
1
 10
7.276e-12
 20
0.0
 10
32.00000000000728
 20
0.0
 42
0.4142135623730951
 10
33.00000000000728
 20
1.0
 10
33.00000000000728
 20
15.0
 10
7.276e-12
 20
15.0
  0
LWPOLYLINE
  5
136
330
31
100
AcDbEntity
  8
0
 60
1
100
AcDbPolyline
 90
2
 70
0
 10
7.276e-12
 20
82.0
 10
7.276e-12
 20
74.0
  0
LWPOLYLINE
  5
137
330
31
100
AcDbEntity
  8
0
 60
1
100
AcDbPolyline
 90
5
 70
0
 10
7.276e-12
 20
82.0
 10
7.276e-12
 20
74.0
 10
3.500000000007275
 20
74.0
 10
3.500000000007275
 20
82.0
 10
2.000000000007275
 20
82.0
  0
LWPOLYLINE
  5
138
330
31
100
AcDbEntity
  8
0
 60
1
100
AcDbPolyline
 90
4
 70
1
 10
3.500000000007275
 20
39.0
 10
3.500000000007275
 20
31.0
 10
7.276e-12
 20
31.0
 10
7.276e-12
 20
39.0
  0
LINE
  5
139
330
31
100
AcDbEntity
  8
0
 60
1
100
AcDbLine
 10
3.500000000007275
 20
74.0
 30
0.0
 11
3.500000000007275
 21
39.0
 31
0.0
  0
LWPOLYLINE
  5
13A
330
31
100
AcDbEntity
  8
0
 60
1
100
AcDbPolyline
 90
4
 70
0
 10
2.000000000007275
 20
82.0
 10
2.000000000007275
 20
84.0
 10
7.276e-12
 20
84.0
 10
7.276e-12
 20
80.0
  0
LINE
  5
13B
330
31
100
AcDbEntity
  8
0
 60
1
100
AcDbLine
 10
2.000000000007275
 20
82.0
 30
0.0
 11
7.276e-12
 21
82.0
 31
0.0
  0
LINE
  5
13C
330
31
100
AcDbEntity
  8
0
 60
1
100
AcDbLine
 10
2.458568107780592
 20
39.0
 30
0.0
 11
2.458568107780592
 21
41.74022103042807
 31
0.0
  0
LINE
  5
13D
330
31
100
AcDbEntity
  8
0
 60
1
100
AcDbLine
 10
2.458568107780592
 20
41.74022103042807
 30
0.0
 11
1.575848980493901
 21
41.74022103042807
 31
0.0
  0
LINE
  5
13E
330
31
100
AcDbEntity
  8
0
 60
1
100
AcDbLine
 10
1.575848980493901
 20
41.74022103042807
 30
0.0
 11
7.276e-12
 21
39.0
 31
0.0
  0
LINE
  5
13F
330
31
100
AcDbEntity
  8
0
 60
1
100
AcDbLine
 10
2.458568107780592
 20
74.0
 30
0.0
 11
2.108141921555215
 21
71.25977896957193
 31
0.0
  0
LINE
  5
140
330
31
100
AcDbEntity
  8
0
 60
1
100
AcDbLine
 10
2.108141921555215
 20
71.25977896957193
 30
0.0
 11
1.225422794268524
 21
71.25977896957193
 31
0.0
  0
LINE
  5
141
330
31
100
AcDbEntity
  8
0
 60
1
100
AcDbLine
 10
1.225422794268524
 20
71.25977896957193
 30
0.0
 11
7.276e-12
 21
74.0
 31
0.0
  0
LINE
  5
142
330
31
100
AcDbEntity
  8
0
 60
1
100
AcDbLine
 10
25.446149494157
 20
99.0
 30
0.0
 11
25.446149494157
 21
0.0
 31
0.0
  0
HATCH
  5
143
330
31
100
AcDbEntity
  8
0
 62
8
370
9
 60
1
100
AcDbHatch
 10
0.0
 20
0.0
 30
0.0
210
0.0
220
0.0
230
1.0
  2
SOLID
 70
1
 71
0
 91
1
 92
1
 93
6
 72
1
 10
43.00000000000728
 20
50.31661775016982
 11
44.70000000000436
 21
50.31661775016982
 72
2
 10
44.70000000000399
 20
50.6166177501731
 40
0.3000000000032799
 50
270.0000000000705
 51
359.9999999999294
 73
1
 72
1
 10
45.00000000000727
 20
50.61661775017274
 11
45.00000000002183
 21
56.22676115677314
 72
2
 10
44.70000000001891
 20
56.22676115677314
 40
0.3000000000029104
 50
0.0
 51
90.0
 73
1
 72
1
 10
44.70000000001891
 20
56.52676115677604
 11
43.00000000000728
 21
56.52676115677604
 72
1
 10
43.00000000000728
 20
56.52676115677604
 11
43.00000000000728
 21
50.31661775016982
 97
1
330
6EA64
 75
0
 76
1
 98
1
 10
-90356.53868434581
 20
-37926.70901437701
450
0
451
0
460
0.0
461
0.0
452
1
462
0.5899999737739563
453
2
463
0
 63
9
421
12632256
463
1
 63
252
421
9868950
470
INVCYLINDER
  0
LWPOLYLINE
  5
144
330
31
100
AcDbEntity
  8
0
 62
8
370
9
 60
1
100
AcDbPolyline
 90
6
 70
1
 10
43.00000000000728
 20
50.31661775016982
 10
44.70000000000436
 20
50.31661775016982
 42
0.4142135623723739
 10
45.00000000000727
 20
50.61661775017274
 10
45.00000000002183
 20
56.22676115677314
 42
0.4142135623730951
 10
44.70000000001891
 20
56.52676115677604
 10
43.00000000000728
 20
56.52676115677604
  0
HATCH
  5
145
330
31
100
AcDbEntity
  8
0
 62
1
 60
1
100
AcDbHatch
 10
0.0
 20
0.0
 30
0.0
210
0.0
220
0.0
230
1.0
  2
SOLID
 70
1
 71
0
 91
1
 92
1
 93
6
 72
1
 10
43.00000000000728
 20
39.31661775016983
 11
44.70000000000436
 21
39.31661775016983
 72
2
 10
44.70000000000399
 20
39.61661775017311
 40
0.3000000000032799
 50
270.0000000000705
 51
359.9999999999294
 73
1
 72
1
 10
45.00000000000727
 20
39.61661775017274
 11
45.00000000002183
 21
45.22676115677313
 72
2
 10
44.70000000001891
 20
45.22676115677313
 40
0.3000000000029104
 50
0.0
 51
90.0
 73
1
 72
1
 10
44.70000000001891
 20
45.52676115677605
 11
43.00000000000728
 21
45.52676115677605
 72
1
 10
43.00000000000728
 20
45.52676115677605
 11
43.00000000000728
 21
39.31661775016983
 97
1
330
6EA66
 75
0
 76
1
 98
1
 10
-90356.53868434581
 20
-37937.709014377
450
1
451
0
460
0.0
461
0.0
452
1
462
0.5899999737739563
453
2
463
0
 63
1
421
16124173
463
1
 63
240
421
16266552
470
INVCYLINDER
  0
LWPOLYLINE
  5
146
330
31
100
AcDbEntity
  8
0
 62
1
 60
1
100
AcDbPolyline
 90
6
 70
1
 10
43.00000000000728
 20
39.31661775016983
 10
44.70000000000436
 20
39.31661775016983
 42
0.4142135623723739
 10
45.00000000000727
 20
39.61661775017274
 10
45.00000000002183
 20
45.22676115677313
 42
0.4142135623730951
 10
44.70000000001891
 20
45.52676115677605
 10
43.00000000000728
 20
45.52676115677605
  0
ENDBLK
  5
33
330
31
100
AcDbEntity
  8
0
100
AcDbBlockEnd
  0
ENDSEC
  0
SECTION
  2
ENTITIES
  0
INSERT
  5
2F
330
17
100
AcDbEntity
  8
0
100
AcDbBlockReference
  2
*U1904
 10
27.500000000007276
 20
0.0
 30
0.0
  0
ENDSEC
  0
SECTION
  2
OBJECTS
  0
DICTIONARY
  5
A
330
0
100
AcDbDictionary
281
1
  3
ACAD_COLOR
350
B
  3
ACAD_GROUP
350
C
  3
ACAD_LAYOUT
350
D
  3
ACAD_MATERIAL
350
E
  3
ACAD_MLEADERSTYLE
350
F
  3
ACAD_MLINESTYLE
350
10
  3
ACAD_PLOTSETTINGS
350
11
  3
ACAD_PLOTSTYLENAME
350
12
  3
ACAD_SCALELIST
350
14
  3
ACAD_TABLESTYLE
350
15
  3
ACAD_VISUALSTYLE
350
16
  3
EZDXF_META
350
2D
  0
DICTIONARY
  5
B
330
A
100
AcDbDictionary
281
1
  0
DICTIONARY
  5
C
330
A
100
AcDbDictionary
281
1
  0
DICTIONARY
  5
D
330
A
100
AcDbDictionary
281
1
  3
Model
350
1A
  3
Layout1
350
1E
  0
DICTIONARY
  5
E
330
A
100
AcDbDictionary
281
1
  3
ByBlock
350
1F
  3
ByLayer
350
20
  3
Global
350
21
  0
DICTIONARY
  5
F
330
A
100
AcDbDictionary
281
1
  3
Standard
350
2C
  0
DICTIONARY
  5
10
330
A
100
AcDbDictionary
281
1
  3
Standard
350
22
  0
DICTIONARY
  5
11
330
A
100
AcDbDictionary
281
1
  0
ACDBDICTIONARYWDFLT
  5
12
330
A
100
AcDbDictionary
281
1
  3
Normal
350
13
100
AcDbDictionaryWithDefault
340
13
  0
ACDBPLACEHOLDER
  5
13
330
12
  0
DICTIONARY
  5
14
330
A
100
AcDbDictionary
281
1
  0
DICTIONARY
  5
15
330
A
100
AcDbDictionary
281
1
  0
DICTIONARY
  5
16
330
A
100
AcDbDictionary
281
1
  0
LAYOUT
  5
1A
330
D
100
AcDbPlotSettings
  1

  4
A3
  6

 40
7.5
 41
20.0
 42
7.5
 43
20.0
 44
420.0
 45
297.0
 46
0.0
 47
0.0
 48
0.0
 49
0.0
140
0.0
141
0.0
142
1.0
143
1.0
 70
1024
 72
1
 73
0
 74
5
  7

 75
16
 76
0
 77
2
 78
300
147
1.0
148
0.0
149
0.0
100
AcDbLayout
  1
Model
 70
1
 71
0
 10
0.0
 20
0.0
 11
420.0
 21
297.0
 12
0.0
 22
0.0
 32
0.0
 14
1e+20
 24
1e+20
 34
1e+20
 15
-1e+20
 25
-1e+20
 35
-1e+20
146
0.0
 13
0.0
 23
0.0
 33
0.0
 16
1.0
 26
0.0
 36
0.0
 17
0.0
 27
1.0
 37
0.0
 76
1
330
17
  0
LAYOUT
  5
1E
330
D
100
AcDbPlotSettings
  1

  4
A3
  6

 40
7.5
 41
20.0
 42
7.5
 43
20.0
 44
420.0
 45
297.0
 46
0.0
 47
0.0
 48
0.0
 49
0.0
140
0.0
141
0.0
142
1.0
143
1.0
 70
0
 72
1
 73
0
 74
5
  7

 75
16
 76
0
 77
2
 78
300
147
1.0
148
0.0
149
0.0
100
AcDbLayout
  1
Layout1
 70
1
 71
1
 10
0.0
 20
0.0
 11
420.0
 21
297.0
 12
0.0
 22
0.0
 32
0.0
 14
1e+20
 24
1e+20
 34
1e+20
 15
-1e+20
 25
-1e+20
 35
-1e+20
146
0.0
 13
0.0
 23
0.0
 33
0.0
 16
1.0
 26
0.0
 36
0.0
 17
0.0
 27
1.0
 37
0.0
 76
1
330
1B
  0
MATERIAL
  5
1F
102
{ACAD_REACTORS
330
E
102
}
330
E
100
AcDbMaterial
  1
ByBlock
  2

 70
0
 40
1.0
 71
1
 41
1.0
 91
-1023410177
 42
1.0
 72
1
  3

 73
1
 74
1
 75
1
 44
0.5
 73
0
 45
1.0
 46
1.0
 77
1
  4

 78
1
 79
1
170
1
 48
1.0
171
1
  6

172
1
173
1
174
1
140
1.0
141
1.0
175
1
  7

176
1
177
1
178
1
143
1.0
179
1
  8

270
1
271
1
272
1
145
1.0
146
1.0
273
1
  9

274
1
275
1
276
1
 42
1.0
 72
1
  3

 73
1
 74
1
 75
1
 94
63
  0
MATERIAL
  5
20
102
{ACAD_REACTORS
330
E
102
}
330
E
100
AcDbMaterial
  1
ByLayer
  2

 70
0
 40
1.0
 71
1
 41
1.0
 91
-1023410177
 42
1.0
 72
1
  3

 73
1
 74
1
 75
1
 44
0.5
 73
0
 45
1.0
 46
1.0
 77
1
  4

 78
1
 79
1
170
1
 48
1.0
171
1
  6

172
1
173
1
174
1
140
1.0
141
1.0
175
1
  7

176
1
177
1
178
1
143
1.0
179
1
  8

270
1
271
1
272
1
145
1.0
146
1.0
273
1
  9

274
1
275
1
276
1
 42
1.0
 72
1
  3

 73
1
 74
1
 75
1
 94
63
  0
MATERIAL
  5
21
102
{ACAD_REACTORS
330
E
102
}
330
E
100
AcDbMaterial
  1
Global
  2

 70
0
 40
1.0
 71
1
 41
1.0
 91
-1023410177
 42
1.0
 72
1
  3

 73
1
 74
1
 75
1
 44
0.5
 73
0
 45
1.0
 46
1.0
 77
1
  4

 78
1
 79
1
170
1
 48
1.0
171
1
  6

172
1
173
1
174
1
140
1.0
141
1.0
175
1
  7

176
1
177
1
178
1
143
1.0
179
1
  8

270
1
271
1
272
1
145
1.0
146
1.0
273
1
  9

274
1
275
1
276
1
 42
1.0
 72
1
  3

 73
1
 74
1
 75
1
 94
63
  0
MLINESTYLE
  5
22
102
{ACAD_REACTORS
330
10
102
}
330
10
100
AcDbMlineStyle
  2
Standard
 70
0
  3

 62
256
 51
90.0
 52
90.0
 71
2
 49
0.5
 62
256
  6
BYLAYER
 49
-0.5
 62
256
  6
BYLAYER
  0
MLEADERSTYLE
  5
2C
102
{ACAD_REACTORS
330
F
102
}
330
F
100
AcDbMLeaderStyle
179
2
170
2
171
1
172
0
 90
2
 40
0.0
 41
0.0
173
1
 91
-1056964608
 92
-2
290
1
 42
2.0
291
1
 43
8.0
  3
Standard
 44
4.0
300

342
29
174
1
175
1
176
0
178
1
 93
-1056964608
 45
4.0
292
0
297
0
 46
4.0
 94
-1056964608
 47
1.0
 49
1.0
140
1.0
294
1
141
0.0
177
0
142
1.0
295
0
296
0
143
3.75
271
0
272
9
273
9
  0
DICTIONARY
  5
2D
330
A
100
AcDbDictionary
280
1
281
1
  3
CREATED_BY_EZDXF
350
2E
  3
WRITTEN_BY_EZDXF
350
14A
  0
DICTIONARYVAR
  5
2E
330
2D
100
DictionaryVariables
280
0
  1
1.4.4 @ 2026-09-23T14:03:36.868212+00:00
  0
DICTIONARYVAR
  5
14A
330
2D
100
DictionaryVariables
280
0
  1
1.4.4 @ 2026-09-23T14:03:37.105447+00:00
  0
ENDSEC
  0
EOF
