  0
SECTION
  2
HEADER
  9
$ACADVER
  1
AC1032
  9
$ACADMAINTVER
 90
4
  9
$DWGCODEPAGE
  3
ANSI_1252
  9
$LASTSAVEDBY
  1
ezdxf
  9
$REQUIREDVERSIONS
160
0
  9
$INSBASE
 10
0.0
 20
0.0
 30
0.0
  9
$EXTMIN
 10
1e+20
 20
1e+20
 30
1e+20
  9
$EXTMAX
 10
-1e+20
 20
-1e+20
 30
-1e+20
  9
$LIMMIN
 10
0.0
 20
0.0
  9
$LIMMAX
 10
420.0
 20
297.0
  9
$ORTHOMODE
 70
0
  9
$REGENMODE
 70
1
  9
$FILLMODE
 70
1
  9
$QTEXTMODE
 70
0
  9
$MIRRTEXT
 70
1
  9
$LTSCALE
 40
1.0
  9
$ATTMODE
 70
1
  9
$TEXTSIZE
 40
2.5
  9
$TRACEWID
 40
1.0
  9
$TEXTSTYLE
  7
Standard
  9
$CLAYER
  8
0
  9
$CELTYPE
  6
ByLayer
  9
$CECOLOR
 62
256
  9
$CELTSCALE
 40
1.0
  9
$DISPSILH
 70
0
  9
$DIMSCALE
 40
1.0
  9
$DIMASZ
 40
2.5
  9
$DIMEXO
 40
0.625
  9
$DIMDLI
 40
3.75
  9
$DIMRND
 40
0.0
  9
$DIMDLE
 40
0.0
  9
$DIMEXE
 40
1.25
  9
$DIMTP
 40
0.0
  9
$DIMTM
 40
0.0
  9
$DIMTXT
 40
2.5
  9
$DIMCEN
 40
2.5
  9
$DIMTSZ
 40
0.0
  9
$DIMTOL
 70
0
  9
$DIMLIM
 70
0
  9
$DIMTIH
 70
0
  9
$DIMTOH
 70
0
  9
$DIMSE1
 70
0
  9
$DIMSE2
 70
0
  9
$DIMTAD
 70
1
  9
$DIMZIN
 70
8
  9
$DIMBLK
  1

  9
$DIMASO
 70
1
  9
$DIMSHO
 70
1
  9
$DIMPOST
  1

  9
$DIMAPOST
  1

  9
$DIMALT
 70
0
  9
$DIMALTD
 70
3
  9
$DIMALTF
 40
0.03937007874
  9
$DIMLFAC
 40
1.0
  9
$DIMTOFL
 70
1
  9
$DIMTVP
 40
0.0
  9
$DIMTIX
 70
0
  9
$DIMSOXD
 70
0
  9
$DIMSAH
 70
0
  9
$DIMBLK1
  1

  9
$DIMBLK2
  1

  9
$DIMSTYLE
  2
ISO-25
  9
$DIMCLRD
 70
0
  9
$DIMCLRE
 70
0
  9
$DIMCLRT
 70
0
  9
$DIMTFAC
 40
1.0
  9
$DIMGAP
 40
0.625
  9
$DIMJUST
 70
0
  9
$DIMSD1
 70
0
  9
$DIMSD2
 70
0
  9
$DIMTOLJ
 70
0
  9
$DIMTZIN
 70
8
  9
$DIMALTZ
 70
0
  9
$DIMALTTZ
 70
0
  9
$DIMUPT
 70
0
  9
$DIMDEC
 70
2
  9
$DIMTDEC
 70
2
  9
$DIMALTU
 70
2
  9
$DIMALTTD
 70
3
  9
$DIMTXSTY
  7
Standard
  9
$DIMAUNIT
 70
0
  9
$DIMADEC
 70
0
  9
$DIMALTRND
 40
0.0
  9
$DIMAZIN
 70
0
  9
$DIMDSEP
 70
44
  9
$DIMATFIT
 70
3
  9
$DIMFRAC
 70
0
  9
$DIMLDRBLK
  1

  9
$DIMLUNIT
 70
2
  9
$DIMLWD
 70
-2
  9
$DIMLWE
 70
-2
  9
$DIMTMOVE
 70
0
  9
$DIMFXL
 40
1.0
  9
$DIMFXLON
 70
0
  9
$DIMJOGANG
 40
0.785398163397
  9
$DIMTFILL
 70
0
  9
$DIMTFILLCLR
 70
0
  9
$DIMARCSYM
 70
0
  9
$DIMLTYPE
  6

  9
$DIMLTEX1
  6

  9
$DIMLTEX2
  6

  9
$DIMTXTDIRECTION
 70
0
  9
$LUNITS
 70
2
  9
$LUPREC
 70
4
  9
$SKETCHINC
 40
1.0
  9
$FILLETRAD
 40
10.0
  9
$AUNITS
 70
0
  9
$AUPREC
 70
2
  9
$MENU
  1
.
  9
$ELEVATION
 40
0.0
  9
$PELEVATION
 40
0.0
  9
$THICKNESS
 40
0.0
  9
$LIMCHECK
 70
0
  9
$CHAMFERA
 40
0.0
  9
$CHAMFERB
 40
0.0
  9
$CHAMFERC
 40
0.0
  9
$CHAMFERD
 40
0.0
  9
$SKPOLY
 70
0
  9
$TDCREATE
 40
2461307.876909722
  9
$TDUCREATE
 40
2458532.153996898
  9
$TDUPDATE
 40
2461307.876909722
  9
$TDUUPDATE
 40
2458532.1544311
  9
$TDINDWG
 40
0.0
  9
$TDUSRTIMER
 40
0.0
  9
$USRTIMER
 70
1
  9
$ANGBASE
 50
0.0
  9
$ANGDIR
 70
0
  9
$PDMODE
 70
0
  9
$PDSIZE
 40
0.0
  9
$PLINEWID
 40
0.0
  9
$SPLFRAME
 70
0
  9
$SPLINETYPE
 70
6
  9
$SPLINESEGS
 70
8
  9
$HANDSEED
  5
197
  9
$SURFTAB1
 70
6
  9
$SURFTAB2
 70
6
  9
$SURFTYPE
 70
6
  9
$SURFU
 70
6
  9
$SURFV
 70
6
  9
$UCSBASE
  2

  9
$UCSNAME
  2

  9
$UCSORG
 10
0.0
 20
0.0
 30
0.0
  9
$UCSXDIR
 10
1.0
 20
0.0
 30
0.0
  9
$UCSYDIR
 10
0.0
 20
1.0
 30
0.0
  9
$UCSORTHOREF
  2

  9
$UCSORTHOVIEW
 70
0
  9
$UCSORGTOP
 10
0.0
 20
0.0
 30
0.0
  9
$UCSORGBOTTOM
 10
0.0
 20
0.0
 30
0.0
  9
$UCSORGLEFT
 10
0.0
 20
0.0
 30
0.0
  9
$UCSORGRIGHT
 10
0.0
 20
0.0
 30
0.0
  9
$UCSORGFRONT
 10
0.0
 20
0.0
 30
0.0
  9
$UCSORGBACK
 10
0.0
 20
0.0
 30
0.0
  9
$PUCSBASE
  2

  9
$PUCSNAME
  2

  9
$PUCSORG
 10
0.0
 20
0.0
 30
0.0
  9
$PUCSXDIR
 10
1.0
 20
0.0
 30
0.0
  9
$PUCSYDIR
 10
0.0
 20
1.0
 30
0.0
  9
$PUCSORTHOREF
  2

  9
$PUCSORTHOVIEW
 70
0
  9
$PUCSORGTOP
 10
0.0
 20
0.0
 30
0.0
  9
$PUCSORGBOTTOM
 10
0.0
 20
0.0
 30
0.0
  9
$PUCSORGLEFT
 10
0.0
 20
0.0
 30
0.0
  9
$PUCSORGRIGHT
 10
0.0
 20
0.0
 30
0.0
  9
$PUCSORGFRONT
 10
0.0
 20
0.0
 30
0.0
  9
$PUCSORGBACK
 10
0.0
 20
0.0
 30
0.0
  9
$USERI1
 70
0
  9
$USERI2
 70
0
  9
$USERI3
 70
0
  9
$USERI4
 70
0
  9
$USERI5
 70
0
  9
$USERR1
 40
0.0
  9
$USERR2
 40
0.0
  9
$USERR3
 40
0.0
  9
$USERR4
 40
0.0
  9
$USERR5
 40
0.0
  9
$WORLDVIEW
 70
1
  9
$SHADEDGE
 70
3
  9
$SHADEDIF
 70
70
  9
$TILEMODE
 70
1
  9
$MAXACTVP
 70
64
  9
$PINSBASE
 10
0.0
 20
0.0
 30
0.0
  9
$PLIMCHECK
 70
0
  9
$PEXTMIN
 10
1e+20
 20
1e+20
 30
1e+20
  9
$PEXTMAX
 10
-1e+20
 20
-1e+20
 30
-1e+20
  9
$PLIMMIN
 10
0.0
 20
0.0
  9
$PLIMMAX
 10
420.0
 20
297.0
  9
$UNITMODE
 70
0
  9
$VISRETAIN
 70
1
  9
$PLINEGEN
 70
0
  9
$PSLTSCALE
 70
1
  9
$TREEDEPTH
 70
3020
  9
$CMLSTYLE
  2
Standard
  9
$CMLJUST
 70
0
  9
$CMLSCALE
 40
20.0
  9
$PROXYGRAPHICS
 70
1
  9
$MEASUREMENT
 70
1
  9
$CELWEIGHT
370
-1
  9
$ENDCAPS
280
0
  9
$JOINSTYLE
280
0
  9
$LWDISPLAY
290
0
  9
$INSUNITS
 70
4
  9
$HYPERLINKBASE
  1

  9
$STYLESHEET
  1

  9
$XEDIT
290
1
  9
$CEPSNTYPE
380
0
  9
$PSTYLEMODE
290
1
  9
$FINGERPRINTGUID
  2
{89964B2F-1668-412C-A5AD-315BE05FD1D6}
  9
$VERSIONGUID
  2
{303946AB-5D55-49B8-96BD-F7BE4B541B95}
  9
$EXTNAMES
290
1
  9
$PSVPSCALE
 40
0.0
  9
$OLESTARTUP
290
0
  9
$SORTENTS
280
127
  9
$INDEXCTL
280
0
  9
$HIDETEXT
280
1
  9
$XCLIPFRAME
280
1
  9
$HALOGAP
280
0
  9
$OBSCOLOR
 70
257
  9
$OBSLTYPE
280
0
  9
$INTERSECTIONDISPLAY
280
0
  9
$INTERSECTIONCOLOR
 70
257
  9
$DIMASSOC
280
2
  9
$PROJECTNAME
  1

  9
$CAMERADISPLAY
290
0
  9
$LENSLENGTH
 40
50.0
  9
$CAMERAHEIGHT
 40
0.0
  9
$STEPSPERSEC
 40
24.0
  9
$STEPSIZE
 40
100.0
  9
$3DDWFPREC
 40
2.0
  9
$PSOLWIDTH
 40
0.005
  9
$PSOLHEIGHT
 40
0.08
  9
$LOFTANG1
 40
1.570796326795
  9
$LOFTANG2
 40
1.570796326795
  9
$LOFTMAG1
 40
0.0
  9
$LOFTMAG2
 40
0.0
  9
$LOFTPARAM
 70
7
  9
$LOFTNORMALS
280
1
  9
$LATITUDE
 40
37.795
  9
$LONGITUDE
 40
-122.394
  9
$NORTHDIRECTION
 40
0.0
  9
$TIMEZONE
 70
-8000
  9
$LIGHTGLYPHDISPLAY
280
1
  9
$TILEMODELIGHTSYNCH
280
1
  9
$CMATERIAL
347
20
  9
$SOLIDHIST
280
0
  9
$SHOWHIST
280
1
  9
$DWFFRAME
280
2
  9
$DGNFRAME
280
2
  9
$REALWORLDSCALE
290
1
  9
$INTERFERECOLOR
 62
256
  9
$CSHADOW
280
0
  9
$SHADOWPLANELOCATION
 40
0.0
  0
ENDSEC
  0
SECTION
  2
CLASSES
  0
CLASS
  1
ACDBDICTIONARYWDFLT
  2
AcDbDictionaryWithDefault
  3
ObjectDBX Classes
 90
0
 91
0
280
0
281
0
  0
CLASS
  1
SUN
  2
AcDbSun
  3
SCENEOE
 90
1153
 91
0
280
0
281
0
  0
CLASS
  1
VISUALSTYLE
  2
AcDbVisualStyle
  3
ObjectDBX Classes
 90
4095
 91
0
280
0
281
0
  0
CLASS
  1
MATERIAL
  2
AcDbMaterial
  3
ObjectDBX Classes
 90
1153
 91
0
280
0
281
0
  0
CLASS
  1
SCALE
  2
AcDbScale
  3
ObjectDBX Classes
 90
1153
 91
0
280
0
281
0
  0
CLASS
  1
TABLESTYLE
  2
AcDbTableStyle
  3
ObjectDBX Classes
 90
4095
 91
0
280
0
281
0
  0
CLASS
  1
MLEADERSTYLE
  2
AcDbMLeaderStyle
  3
ACDB_MLEADERSTYLE_CLASS
 90
4095
 91
0
280
0
281
0
  0
CLASS
  1
DICTIONARYVAR
  2
AcDbDictionaryVar
  3
ObjectDBX Classes
 90
0
 91
0
280
0
281
0
  0
CLASS
  1
CELLSTYLEMAP
  2
AcDbCellStyleMap
  3
ObjectDBX Classes
 90
1152
 91
0
280
0
281
0
  0
CLASS
  1
MENTALRAYRENDERSETTINGS
  2
AcDbMentalRayRenderSettings
  3
SCENEOE
 90
1024
 91
0
280
0
281
0
  0
CLASS
  1
ACDBDETAILVIEWSTYLE
  2
AcDbDetailViewStyle
  3
ObjectDBX Classes
 90
1025
 91
0
280
0
281
0
  0
CLASS
  1
ACDBSECTIONVIEWSTYLE
  2
AcDbSectionViewStyle
  3
ObjectDBX Classes
 90
1025
 91
0
280
0
281
0
  0
CLASS
  1
RASTERVARIABLES
  2
AcDbRasterVariables
  3
ISM
 90
0
 91
0
280
0
281
0
  0
CLASS
  1
LAYOUT
  2
AcDbLayout
  3
ObjectDBX Classes
 90
0
 91
0
280
0
281
0
  0
CLASS
  1
ACDBPLACEHOLDER
  2
AcDbPlaceHolder
  3
ObjectDBX Classes
 90
0
 91
0
280
0
281
0
  0
ENDSEC
  0
SECTION
  2
TABLES
  0
TABLE
  2
VPORT
  5
8
330
0
100
AcDbSymbolTable
 70
1
  0
VPORT
  5
23
330
8
100
AcDbSymbolTableRecord
100
AcDbViewportTableRecord
  2
*Active
 70
0
 10
0.0
 20
0.0
 11
1.0
 21
1.0
 12
0.0
 22
0.0
 13
0.0
 23
0.0
 14
0.5
 24
0.5
 15
0.5
 25
0.5
 16
0.0
 26
0.0
 36
1.0
 17
0.0
 27
0.0
 37
0.0
 40
1000.0
 41
1.34
 42
50.0
 43
0.0
 44
0.0
 50
0.0
 51
0.0
 71
0
 72
1000
 73
1
 74
3
 75
0
 76
0
 77
0
 78
0
281
0
 65
0
146
0.0
  0
ENDTAB
  0
TABLE
  2
LTYPE
  5
2
330
0
100
AcDbSymbolTable
 70
3
  0
LTYPE
  5
24
330
2
100
AcDbSymbolTableRecord
100
AcDbLinetypeTableRecord
  2
ByBlock
 70
0
  3

 72
65
 73
0
 40
0.0
  0
LTYPE
  5
25
330
2
100
AcDbSymbolTableRecord
100
AcDbLinetypeTableRecord
  2
ByLayer
 70
0
  3

 72
65
 73
0
 40
0.0
  0
LTYPE
  5
26
330
2
100
AcDbSymbolTableRecord
100
AcDbLinetypeTableRecord
  2
Continuous
 70
0
  3

 72
65
 73
0
 40
0.0
  0
ENDTAB
  0
TABLE
  2
LAYER
  5
1
330
0
100
AcDbSymbolTable
 70
4
  0
LAYER
  5
27
330
1
100
AcDbSymbolTableRecord
100
AcDbLayerTableRecord
  2
0
 70
0
 62
7
  6
Continuous
370
-3
390
13
347
21
  0
LAYER
  5
28
330
1
100
AcDbSymbolTableRecord
100
AcDbLayerTableRecord
  2
Defpoints
 70
0
 62
7
  6
Continuous
290
0
370
-3
390
13
347
21
  0
LAYER
  5
190
330
1
100
AcDbSymbolTableRecord
100
AcDbLayerTableRecord
  2
07
 70
0
 62
5
  6
Continuous
370
5
390
13
347
21
  0
LAYER
  5
191
330
1
100
AcDbSymbolTableRecord
100
AcDbLayerTableRecord
  2
1-EMC-ACESS
 70
0
 62
4
  6
Continuous
370
-3
390
13
347
21
  0
ENDTAB
  0
TABLE
  2
STYLE
  5
5
330
0
100
AcDbSymbolTable
 70
3
  0
STYLE
  5
29
330
5
100
AcDbSymbolTableRecord
100
AcDbTextStyleTableRecord
  2
Standard
 70
0
 40
0.0
 41
1.0
 50
0.0
 71
0
 42
2.5
  3
txt
  4

  0
STYLE
  5
192
330
5
100
AcDbSymbolTableRecord
100
AcDbTextStyleTableRecord
  2
THIÊN1
 70
0
 40
0.0
 41
1.0
 50
0.0
 71
0
 42
9.0
  3
times.ttf
  4

  0
STYLE
  5
193
330
5
100
AcDbSymbolTableRecord
100
AcDbTextStyleTableRecord
  2
ARIAL
 70
0
 40
0.0
 41
1.0
 50
0.0
 71
0
 42
10.0
  3
arial.ttf
  4

  0
ENDTAB
  0
TABLE
  2
VIEW
  5
7
330
0
100
AcDbSymbolTable
 70
0
  0
ENDTAB
  0
TABLE
  2
UCS
  5
6
330
0
100
AcDbSymbolTable
 70
0
  0
ENDTAB
  0
TABLE
  2
APPID
  5
3
330
0
100
AcDbSymbolTable
 70
3
  0
APPID
  5
2A
330
3
100
AcDbSymbolTableRecord
100
AcDbRegAppTableRecord
  2
ACAD
 70
0
  0
APPID
  5
194
330
3
100
AcDbSymbolTableRecord
100
AcDbRegAppTableRecord
  2
HATCHBACKGROUNDCOLOR
 70
0
  0
APPID
  5
195
330
3
100
AcDbSymbolTableRecord
100
AcDbRegAppTableRecord
  2
EZDXF
 70
0
  0
ENDTAB
  0
TABLE
  2
DIMSTYLE
  5
4
330
0
100
AcDbSymbolTable
 70
1
100
AcDbDimStyleTable
  0
DIMSTYLE
105
2B
330
4
100
AcDbSymbolTableRecord
100
AcDbDimStyleTableRecord
  2
Standard
 70
0
 40
1.0
 41
2.5
 42
0.625
 43
3.75
 44
1.25
 45
0.0
 46
0.0
 47
0.0
 48
0.0
 49
2.5
140
2.5
141
2.5
142
0.0
143
0.03937007874
144
1.0
145
0.0
146
1.0
147
0.625
148
0.0
 69
0
 70
0
 71
0
 72
0
 73
0
 74
0
 75
0
 76
0
 77
1
 78
8
 79
3
170
0
171
3
172
1
173
0
174
0
175
0
176
0
177
0
178
0
179
2
271
2
272
2
273
2
274
3
275
0
276
0
277
2
278
44
279
0
280
0
281
0
282
0
283
0
284
8
285
0
286
0
288
0
289
3
290
0
371
-2
372
-2
  0
ENDTAB
  0
TABLE
  2
BLOCK_RECORD
  5
9
330
0
100
AcDbSymbolTable
 70
3
  0
BLOCK_RECORD
  5
17
330
9
100
AcDbSymbolTableRecord
100
AcDbBlockTableRecord
  2
*Model_Space
340
1A
 70
0
280
1
281
0
  0
BLOCK_RECORD
  5
1B
330
9
100
AcDbSymbolTableRecord
100
AcDbBlockTableRecord
  2
*Paper_Space
340
1E
 70
0
280
1
281
0
  0
BLOCK_RECORD
  5
32
330
9
100
AcDbSymbolTableRecord
100
AcDbBlockTableRecord
  2
*U1902
340
0
 70
0
280
1
281
0
  0
ENDTAB
  0
ENDSEC
  0
SECTION
  2
BLOCKS
  0
BLOCK
  5
18
330
17
100
AcDbEntity
  8
0
100
AcDbBlockBegin
  2
*Model_Space
 70
0
 10
0.0
 20
0.0
 30
0.0
  3
*Model_Space
  1

  0
ENDBLK
  5
19
330
17
100
AcDbEntity
  8
0
100
AcDbBlockEnd
  0
BLOCK
  5
1C
330
1B
100
AcDbEntity
  8
0
100
AcDbBlockBegin
  2
*Paper_Space
 70
0
 10
0.0
 20
0.0
 30
0.0
  3
*Paper_Space
  1

  0
ENDBLK
  5
1D
330
1B
100
AcDbEntity
  8
0
100
AcDbBlockEnd
  0
BLOCK
  5
33
330
32
100
AcDbEntity
  8
0
100
AcDbBlockBegin
  2
*U1902
 70
3
 10
0.0
 20
0.0
 30
0.0
  3
*U1902
  1

  0
CIRCLE
  5
35
330
32
100
AcDbEntity
  8
0
 62
7
 60
1
100
AcDbCircle
 10
65.0
 20
-35.0
 30
0.0
 40
15.0
  0
CIRCLE
  5
36
330
32
100
AcDbEntity
  8
0
 62
7
 60
1
100
AcDbCircle
 10
65.0
 20
-35.0
 30
0.0
 40
13.0
  0
LINE
  5
37
330
32
100
AcDbEntity
  8
0
 62
7
 60
1
100
AcDbLine
 10
50.0
 20
-3.5
 30
0.0
 11
80.0
 21
-3.5
 31
0.0
  0
LINE
  5
38
330
32
100
AcDbEntity
  8
0
 62
7
 60
1
100
AcDbLine
 10
130.0
 20
-35.0
 30
0.0
 11
130.0
 21
-3.5
 31
0.0
  0
LINE
  5
39
330
32
100
AcDbEntity
  8
0
 62
7
 60
1
100
AcDbLine
 10
50.0
 20
-3.5
 30
0.0
 11
50.0
 21
-35.0
 31
0.0
  0
LWPOLYLINE
  5
3A
330
32
100
AcDbEntity
  8
0
 62
7
 60
1
100
AcDbPolyline
 90
4
 70
1
 10
52.0
 20
-5.5
 10
78.0
 20
-5.5
 10
78.0
 20
-17.0
 10
52.0
 20
-17.0
  0
HATCH
  5
3B
330
32
100
AcDbEntity
  8
0
 62
7
370
9
 60
1
100
AcDbHatch
 10
0.0
 20
0.0
 30
0.0
210
0.0
220
0.0
230
1.0
  2
SOLID
 70
1
 71
0
 91
1
 92
1
 93
1
 72
2
 10
65.0
 20
-35.0
 40
12.0
 50
0.0
 51
360.0
 73
1
 97
1
330
66A18
 75
0
 76
1
 98
1
 10
-88345.33291402571
 20
-40607.92101577834
450
1
451
0
460
0.0
461
0.0
452
1
462
0.5699999928474427
453
2
463
0
 63
80
421
3074326
463
1
 63
80
421
5041206
470
CYLINDER
  0
CIRCLE
  5
3C
330
32
100
AcDbEntity
  8
07
  6
Continuous
 62
3
370
5
 48
3.0
 60
1
100
AcDbCircle
 10
65.0
 20
-35.0
 30
0.0
 40
12.0
  0
CIRCLE
  5
3D
330
32
100
AcDbEntity
  8
0
 62
7
 60
1
100
AcDbCircle
 10
115.0
 20
-35.0
 30
0.0
 40
15.0
  0
CIRCLE
  5
3E
330
32
100
AcDbEntity
  8
0
 62
7
 60
1
100
AcDbCircle
 10
115.0
 20
-35.0
 30
0.0
 40
13.0
  0
LINE
  5
3F
330
32
100
AcDbEntity
  8
0
 62
7
 60
1
100
AcDbLine
 10
100.0
 20
-3.5
 30
0.0
 11
130.0
 21
-3.5
 31
0.0
  0
LINE
  5
40
330
32
100
AcDbEntity
  8
0
 62
7
 60
1
100
AcDbLine
 10
50.0
 20
-35.0
 30
0.0
 11
50.0
 21
-3.5
 31
0.0
  0
LINE
  5
41
330
32
100
AcDbEntity
  8
0
 62
7
 60
1
100
AcDbLine
 10
80.0
 20
-3.5
 30
0.0
 11
80.0
 21
-35.0
 31
0.0
  0
LWPOLYLINE
  5
42
330
32
100
AcDbEntity
  8
0
 62
7
 60
1
100
AcDbPolyline
 90
4
 70
1
 10
102.0
 20
-5.5
 10
128.0
 20
-5.5
 10
128.0
 20
-17.0
 10
102.0
 20
-17.0
  0
HATCH
  5
43
330
32
100
AcDbEntity
  8
0
 62
7
370
9
 60
1
100
AcDbHatch
 10
0.0
 20
0.0
 30
0.0
210
0.0
220
0.0
230
1.0
  2
SOLID
 70
1
 71
0
 91
1
 92
1
 93
1
 72
2
 10
115.0
 20
-35.0
 40
12.0
 50
0.0
 51
360.0
 73
1
 97
1
330
66A20
 75
0
 76
1
 98
1
 10
-88240.65525657038
 20
-40607.92101577834
450
1
451
0
460
0.0
461
0.0
452
1
462
0.4499999880790711
453
2
463
0
 63
1
421
15863057
463
1
 63
12
421
14289679
470
INVCYLINDER
  0
CIRCLE
  5
44
330
32
100
AcDbEntity
  8
07
  6
Continuous
 62
1
370
5
 48
3.0
 60
1
100
AcDbCircle
 10
115.0
 20
-35.0
 30
0.0
 40
12.0
  0
CIRCLE
  5
45
330
32
100
AcDbEntity
  8
0
 62
7
 60
1
100
AcDbCircle
 10
165.0
 20
-35.0
 30
0.0
 40
15.0
  0
LINE
  5
46
330
32
100
AcDbEntity
  8
0
 62
7
 60
1
100
AcDbLine
 10
150.0
 20
-3.5
 30
0.0
 11
180.0
 21
-3.5
 31
0.0
  0
LINE
  5
47
330
32
100
AcDbEntity
  8
0
 62
7
 60
1
100
AcDbLine
 10
0.0
 20
-35.0
 30
0.0
 11
0.0
 21
-3.5
 31
0.0
  0
LINE
  5
48
330
32
100
AcDbEntity
  8
0
 62
7
 60
1
100
AcDbLine
 10
130.0
 20
-3.5
 30
0.0
 11
130.0
 21
-35.0
 31
0.0
  0
LWPOLYLINE
  5
49
330
32
100
AcDbEntity
  8
0
 62
7
 60
1
100
AcDbPolyline
 90
4
 70
1
 10
152.0
 20
-5.5
 10
178.0
 20
-5.5
 10
178.0
 20
-17.0
 10
152.0
 20
-17.0
  0
ARC
  5
4A
330
32
100
AcDbEntity
  8
0
 62
7
 60
1
100
AcDbCircle
 10
15.0
 20
-35.0
 30
0.0
 40
15.0
100
AcDbArc
 50
279.5940682271556
 51
80.40593177284445
  0
ARC
  5
4B
330
32
100
AcDbEntity
  8
0
 62
7
 60
1
100
AcDbCircle
 10
15.0
 20
-35.0
 30
0.0
 40
15.0
100
AcDbArc
 50
99.59406822715555
 51
260.4059317728444
  0
LINE
  5
4C
330
32
100
AcDbEntity
  8
0
 62
7
 60
1
100
AcDbLine
 10
0.0
 20
-3.5
 30
0.0
 11
30.0
 21
-3.5
 31
0.0
  0
LINE
  5
4D
330
32
100
AcDbEntity
  8
0
 62
7
 60
1
100
AcDbLine
 10
30.0
 20
-35.0
 30
0.0
 11
30.0
 21
-3.5
 31
0.0
  0
LINE
  5
4E
330
32
100
AcDbEntity
  8
0
 62
7
 60
1
100
AcDbLine
 10
0.0
 20
-3.5
 30
0.0
 11
0.0
 21
-35.0
 31
0.0
  0
LWPOLYLINE
  5
4F
330
32
100
AcDbEntity
  8
0
 62
7
 60
1
100
AcDbPolyline
 90
4
 70
1
 10
2.0
 20
-5.5
 10
28.0
 20
-5.5
 10
28.0
 20
-17.0
 10
2.0
 20
-17.0
  0
ARC
  5
50
330
32
100
AcDbEntity
  8
0
  6
Continuous
 62
252
370
5
 48
3.0
 60
1
100
AcDbCircle
 10
15.0
 20
-35.0
 30
0.0
 40
11.0
100
AcDbArc
 50
283.1365587873741
 51
76.86344121262584
  0
ARC
  5
51
330
32
100
AcDbEntity
  8
0
  6
Continuous
 62
252
370
5
 48
3.0
 60
1
100
AcDbCircle
 10
15.0
 20
-35.0
 30
0.0
 40
11.0
100
AcDbArc
 50
103.1365587873741
 51
256.8634412126259
  0
HATCH
  5
52
330
32
100
AcDbEntity
  8
0
 62
7
 60
1
100
AcDbHatch
 10
0.0
 20
0.0
 30
0.0
210
0.0
220
0.0
230
1.0
  2
SOLID
 70
1
 71
0
 91
1
 92
7
 72
0
 73
1
 93
4
 10
12.5
 20
-18.95999999999913
 10
12.5
 20
-32.95999999999913
 10
17.5
 20
-32.95999999999913
 10
17.5
 20
-18.95999999999913
 97
2
330
66A2F
330
66A30
 75
0
 76
1
 47
0.0639578552432128
 98
1
 10
14.88379767716105
 20
-20.41452061686141
450
0
451
0
460
0.0
461
0.0
452
1
462
1.0
453
2
463
0
 63
5
421
255
463
1
 63
7
421
16777215
470
LINEAR
  0
LWPOLYLINE
  5
53
330
32
100
AcDbEntity
  8
0
 62
7
 60
1
100
AcDbPolyline
 90
4
 70
1
 10
12.5
 20
-18.95999999999913
 10
17.5
 20
-18.95999999999913
 10
17.5
 20
-52.5
 10
12.5
 20
-52.5
  0
LINE
  5
54
330
32
100
AcDbEntity
  8
0
 62
7
 60
1
100
AcDbLine
 10
12.5
 20
-32.95999999999913
 30
0.0
 11
17.5
 21
-32.95999999999913
 31
0.0
  0
LINE
  5
55
330
32
100
AcDbEntity
  8
0
 62
7
 60
1
100
AcDbLine
 10
180.0
 20
-35.0
 30
0.0
 11
180.0
 21
-3.5
 31
0.0
  0
LINE
  5
56
330
32
100
AcDbEntity
  8
0
 62
7
 60
1
100
AcDbLine
 10
180.0
 20
-3.5
 30
0.0
 11
180.0
 21
-35.0
 31
0.0
  0
LINE
  5
57
330
32
100
AcDbEntity
  8
0
 62
7
 60
1
100
AcDbLine
 10
80.0
 20
-35.0
 30
0.0
 11
80.0
 21
-3.5
 31
0.0
  0
LINE
  5
58
330
32
100
AcDbEntity
  8
0
 62
7
 60
1
100
AcDbLine
 10
100.0
 20
-3.5
 30
0.0
 11
100.0
 21
-35.0
 31
0.0
  0
LINE
  5
59
330
32
100
AcDbEntity
  8
0
 62
7
 60
1
100
AcDbLine
 10
130.0
 20
-35.0
 30
0.0
 11
130.0
 21
-3.5
 31
0.0
  0
LINE
  5
5A
330
32
100
AcDbEntity
  8
0
 62
7
 60
1
100
AcDbLine
 10
150.0
 20
-3.5
 30
0.0
 11
150.0
 21
-35.0
 31
0.0
  0
LWPOLYLINE
  5
5B
330
32
100
AcDbEntity
  8
0
 62
7
 60
1
100
AcDbPolyline
 90
4
 70
1
 10
0.0
 20
29.99999999998545
 10
179.9999999999854
 20
29.99999999998545
 10
179.9999999999854
 20
0.0
 10
0.0
 20
0.0
  0
LWPOLYLINE
  5
5C
330
32
100
AcDbEntity
  8
0
 62
252
 60
1
100
AcDbPolyline
 90
8
 70
1
 10
5.0
 20
27.99999999998545
 10
174.9999999999709
 20
27.99999999998545
 42
-0.4142135623730951
 10
177.9999999999709
 20
24.99999999998545
 10
177.9999999999854
 20
5.0
 42
-0.4142135623732804
 10
174.9999999999854
 20
2.0
 10
5.0
 20
2.0
 42
-0.4142135623730951
 10
2.0
 20
5.0
 10
2.0
 20
24.99999999998545
 42
-0.4142135623730951
  0
MTEXT
  5
5D
330
32
100
AcDbEntity
  8
1-EMC-ACESS
  6
ByBlock
 62
1
370
-2
 60
1
100
AcDbMText
 10
64.79696910982602
 20
-8.872724044625604
 30
0.0
 40
4.536
 41
69.47331923081924
 46
0.0
 71
2
 72
5
  1
{\fTimes New Roman|b0|i0|c0|p18;\C7;RUN}
  7
ARIAL
  0
MTEXT
  5
5E
330
32
100
AcDbEntity
  8
1-EMC-ACESS
  6
ByBlock
 62
1
370
-2
 60
1
100
AcDbMText
 10
115.7599504770915
 20
-8.754010138758124
 30
0.0
 40
4.536
 41
69.47331923081924
 46
0.0
 71
2
 72
5
  1
{\fTimes New Roman|b0|i0|c0|p18;\C7;STOP}
  7
ARIAL
  0
MTEXT
  5
5F
330
32
100
AcDbEntity
  8
1-EMC-ACESS
  6
ByBlock
 62
1
370
-2
 60
1
100
AcDbMText
 10
165.0017812415608
 20
-8.778957631796905
 30
0.0
 40
4.536
 41
69.47331923081924
 46
0.0
 71
2
 72
5
  1
{\fTimes New Roman|b0|i0|c0|p18;\C7;FAULT}
  7
ARIAL
  0
MTEXT
  5
60
330
32
100
AcDbEntity
  8
1-EMC-ACESS
  6
ByBlock
 62
1
370
-2
 60
1
100
AcDbMText
 10
8.272220032391488
 20
-13.31701229351165
 30
0.0
 40
2.52
 41
38.59628846156624
 46
0.0
 71
2
 72
5
  1
{\fTimes New Roman|b0|i0|c0|p18;\C7;AUTO}
  7
ARIAL
  0
MTEXT
  5
61
330
32
100
AcDbEntity
  8
1-EMC-ACESS
  6
ByBlock
 62
1
370
-2
 60
1
100
AcDbMText
 10
15.66480379423592
 20
-8.1802223786799
 30
0.0
 40
2.52
 41
38.59628846156624
 46
0.0
 71
2
 72
5
  1
{\fTimes New Roman|b0|i0|c0|p18;\C7;OFF}
  7
ARIAL
  0
MTEXT
  5
62
330
32
100
AcDbEntity
  8
1-EMC-ACESS
  6
ByBlock
 62
1
370
-2
 60
1
100
AcDbMText
 10
21.74968293835991
 20
-13.31701229351165
 30
0.0
 40
2.52
 41
38.59628846156624
 46
0.0
 71
2
 72
5
  1
{\fTimes New Roman|b0|i0|c0|p18;\C7;MAN}
  7
ARIAL
  0
CIRCLE
  5
63
330
32
100
AcDbEntity
  8
07
  6
Continuous
 62
2
370
5
 48
3.0
 60
1
100
AcDbCircle
 10
165.0
 20
-35.0
 30
0.0
 40
13.00000000000601
  0
LINE
  5
64
330
32
100
AcDbEntity
  8
07
  6
Continuous
 62
2
370
5
 48
3.0
 60
1
100
AcDbLine
 10
174.1923881554248
 20
-25.80761184456787
 30
0.0
 11
155.8076118445751
 21
-44.19238815543212
 31
0.0
  0
LINE
  5
65
330
32
100
AcDbEntity
  8
07
  6
Continuous
 62
2
370
5
 48
3.0
 60
1
100
AcDbLine
 10
155.8076118445751
 20
-25.80761184457515
 30
0.0
 11
174.1923881554248
 21
-44.19238815543212
 31
0.0
  0
LWPOLYLINE
  5
66
330
32
100
AcDbEntity
  8
0
 62
2
370
9
 60
1
100
AcDbPolyline
 90
3
 70
0
 10
155.8076118445751
 20
-25.80761184457515
 10
165.0
 20
-35.00000000000728
 10
155.8076118445751
 20
-44.19238815543212
  0
HATCH
  5
67
330
32
100
AcDbEntity
  8
0
 62
2
370
9
 60
1
100
AcDbHatch
 10
0.0
 20
0.0
 30
0.0
210
0.0
220
0.0
230
1.0
  2
SOLID
 70
1
 71
0
 91
1
 92
1
 93
3
 72
1
 10
155.8076118445751
 20
-25.80761184456787
 11
165.0
 21
-35.0
 72
1
 10
165.0
 20
-35.0
 11
155.8076118445751
 21
-44.19238815542485
 72
2
 10
165.0
 20
-34.99999999999273
 40
13.00000000000601
 50
135.0000000002901
 51
224.9999999997099
 73
0
 97
2
330
66A4B
330
66A4A
 75
0
 76
1
 98
1
 10
-88180.87169737768
 20
-40227.23377587984
450
1
451
0
460
0.0
461
0.0
452
1
462
0.4499999880790711
453
2
463
0
 63
2
421
15854862
463
1
 63
52
421
14275853
470
CURVED
  0
ARC
  5
68
330
32
100
AcDbEntity
  8
07
  6
Continuous
 62
2
370
5
 48
3.0
 60
1
100
AcDbCircle
 10
165.0
 20
-34.99999999999273
 30
0.0
 40
13.00000000000601
100
AcDbArc
 50
135.0000000002901
 51
224.9999999997099
  0
LWPOLYLINE
  5
69
330
32
100
AcDbEntity
  8
0
 62
2
370
9
 60
1
100
AcDbPolyline
 90
3
 70
0
 10
155.8076118445751
 20
-25.80761184456787
 10
165.0
 20
-35.0
 10
155.8076118445751
 20
-44.19238815542485
  0
HATCH
  5
6A
330
32
100
AcDbEntity
  8
0
 62
2
370
9
 60
1
100
AcDbHatch
 10
0.0
 20
0.0
 30
0.0
210
0.0
220
0.0
230
1.0
  2
SOLID
 70
1
 71
0
 91
1
 92
1
 93
3
 72
1
 10
174.1923881554394
 20
-25.80761184456787
 11
165.0000000000145
 21
-35.0
 72
1
 10
165.0000000000145
 20
-35.0
 11
174.1923881554394
 21
-44.19238815542485
 72
2
 10
165.0000000000145
 20
-34.99999999999273
 40
13.00000000000602
 50
315.0
 51
405.0000000000227
 73
1
 97
0
 75
0
 76
1
 98
1
 10
88510.8716973777
 20
-40227.23377587984
450
1
451
0
460
0.0
461
0.0
452
1
462
0.4499999880790711
453
2
463
0
 63
2
421
15854862
463
1
 63
52
421
14275853
470
CURVED
  0
ATTDEF
  5
6B
330
32
100
AcDbEntity
  8
0
370
9
 60
1
100
AcDbText
 10
84.06004708209882
 20
10.50079224154615
 30
0.0
 40
9.0
  1
01
  7
THIÊN1
 72
1
 11
90.70460367907071
 21
15.00079224154615
 31
0.0
100
AcDbAttributeDefinition
  3

  2
NAME1
 70
0
 74
2
280
1
 71
1
 72
0
 11
90.70460367907071
 21
15.00079224154615
 31
0.0
  0
CIRCLE
  5
6C
330
32
100
AcDbEntity
  8
0
 62
7
 60
1
100
AcDbCircle
 10
15.0
 20
-35.0
 30
0.0
 40
15.0
  0
CIRCLE
  5
6D
330
32
100
AcDbEntity
  8
0
 62
7
 60
1
100
AcDbCircle
 10
15.0
 20
-35.0
 30
0.0
 40
13.0
  0
LINE
  5
6E
330
32
100
AcDbEntity
  8
0
 62
7
 60
1
100
AcDbLine
 10
0.0
 20
-3.5
 30
0.0
 11
30.0
 21
-3.5
 31
0.0
  0
LINE
  5
6F
330
32
100
AcDbEntity
  8
0
 62
7
 60
1
100
AcDbLine
 10
80.0
 20
-35.0
 30
0.0
 11
80.0
 21
-3.5
 31
0.0
  0
LINE
  5
70
330
32
100
AcDbEntity
  8
0
 62
7
 60
1
100
AcDbLine
 10
0.0
 20
-3.5
 30
0.0
 11
0.0
 21
-35.0
 31
0.0
  0
LWPOLYLINE
  5
71
330
32
100
AcDbEntity
  8
0
 62
7
 60
1
100
AcDbPolyline
 90
4
 70
1
 10
2.0
 20
-5.5
 10
28.0
 20
-5.5
 10
28.0
 20
-17.0
 10
2.0
 20
-17.0
  0
HATCH
  5
72
330
32
100
AcDbEntity
  8
0
 62
7
370
9
 60
1
100
AcDbHatch
 10
0.0
 20
0.0
 30
0.0
210
0.0
220
0.0
230
1.0
  2
SOLID
 70
1
 71
0
 91
1
 92
1
 93
1
 72
2
 10
15.0
 20
-35.0
 40
12.0
 50
0.0
 51
360.0
 73
1
 97
1
330
66A55
 75
0
 76
1
 98
1
 10
-88395.3329140257
 20
-40607.92101577834
450
1
451
0
460
0.0
461
0.0
452
1
462
0.5699999928474427
453
2
463
0
 63
80
421
3074326
463
1
 63
80
421
5041206
470
CYLINDER
  0
CIRCLE
  5
73
330
32
100
AcDbEntity
  8
07
  6
Continuous
 62
3
370
5
 48
3.0
 60
1
100
AcDbCircle
 10
15.0
 20
-35.0
 30
0.0
 40
12.0
  0
CIRCLE
  5
74
330
32
100
AcDbEntity
  8
0
 62
7
 60
1
100
AcDbCircle
 10
65.0
 20
-35.0
 30
0.0
 40
15.0
  0
CIRCLE
  5
75
330
32
100
AcDbEntity
  8
0
 62
7
 60
1
100
AcDbCircle
 10
65.0
 20
-35.0
 30
0.0
 40
13.0
  0
LINE
  5
76
330
32
100
AcDbEntity
  8
0
 62
7
 60
1
100
AcDbLine
 10
50.0
 20
-3.5
 30
0.0
 11
80.0
 21
-3.5
 31
0.0
  0
LINE
  5
77
330
32
100
AcDbEntity
  8
0
 62
7
 60
1
100
AcDbLine
 10
0.0
 20
-35.0
 30
0.0
 11
0.0
 21
-3.5
 31
0.0
  0
LINE
  5
78
330
32
100
AcDbEntity
  8
0
 62
7
 60
1
100
AcDbLine
 10
30.0
 20
-3.5
 30
0.0
 11
30.0
 21
-35.0
 31
0.0
  0
LWPOLYLINE
  5
79
330
32
100
AcDbEntity
  8
0
 62
7
 60
1
100
AcDbPolyline
 90
4
 70
1
 10
52.0
 20
-5.5
 10
78.0
 20
-5.5
 10
78.0
 20
-17.0
 10
52.0
 20
-17.0
  0
HATCH
  5
7A
330
32
100
AcDbEntity
  8
0
 62
7
370
9
 60
1
100
AcDbHatch
 10
0.0
 20
0.0
 30
0.0
210
0.0
220
0.0
230
1.0
  2
SOLID
 70
1
 71
0
 91
1
 92
1
 93
1
 72
2
 10
65.0
 20
-35.0
 40
12.0
 50
0.0
 51
360.0
 73
1
 97
1
330
66A5D
 75
0
 76
1
 98
1
 10
-88290.65525657039
 20
-40607.92101577834
450
1
451
0
460
0.0
461
0.0
452
1
462
0.4499999880790711
453
2
463
0
 63
1
421
15863057
463
1
 63
12
421
14289679
470
INVCYLINDER
  0
CIRCLE
  5
7B
330
32
100
AcDbEntity
  8
07
  6
Continuous
 62
1
370
5
 48
3.0
 60
1
100
AcDbCircle
 10
65.0
 20
-35.0
 30
0.0
 40
12.0
  0
CIRCLE
  5
7C
330
32
100
AcDbEntity
  8
0
 62
7
 60
1
100
AcDbCircle
 10
115.0
 20
-35.0
 30
0.0
 40
15.0
  0
LINE
  5
7D
330
32
100
AcDbEntity
  8
0
 62
7
 60
1
100
AcDbLine
 10
100.0
 20
-3.5
 30
0.0
 11
130.0
 21
-3.5
 31
0.0
  0
LINE
  5
7E
330
32
100
AcDbEntity
  8
0
 62
7
 60
1
100
AcDbLine
 10
80.0
 20
-3.5
 30
0.0
 11
80.0
 21
-35.0
 31
0.0
  0
LWPOLYLINE
  5
7F
330
32
100
AcDbEntity
  8
0
 62
7
 60
1
100
AcDbPolyline
 90
4
 70
1
 10
102.0
 20
-5.5
 10
128.0
 20
-5.5
 10
128.0
 20
-17.0
 10
102.0
 20
-17.0
  0
LINE
  5
80
330
32
100
AcDbEntity
  8
0
 62
7
 60
1
100
AcDbLine
 10
130.0
 20
-35.0
 30
0.0
 11
130.0
 21
-3.5
 31
0.0
  0
LINE
  5
81
330
32
100
AcDbEntity
  8
0
 62
7
 60
1
100
AcDbLine
 10
130.0
 20
-3.5
 30
0.0
 11
130.0
 21
-35.0
 31
0.0
  0
LINE
  5
82
330
32
100
AcDbEntity
  8
0
 62
7
 60
1
100
AcDbLine
 10
30.0
 20
-35.0
 30
0.0
 11
30.0
 21
-3.5
 31
0.0
  0
LINE
  5
83
330
32
100
AcDbEntity
  8
0
 62
7
 60
1
100
AcDbLine
 10
50.0
 20
-3.5
 30
0.0
 11
50.0
 21
-35.0
 31
0.0
  0
LINE
  5
84
330
32
100
AcDbEntity
  8
0
 62
7
 60
1
100
AcDbLine
 10
80.0
 20
-35.0
 30
0.0
 11
80.0
 21
-3.5
 31
0.0
  0
LINE
  5
85
330
32
100
AcDbEntity
  8
0
 62
7
 60
1
100
AcDbLine
 10
100.0
 20
-3.5
 30
0.0
 11
100.0
 21
-35.0
 31
0.0
  0
LWPOLYLINE
  5
86
330
32
100
AcDbEntity
  8
0
 62
7
 60
1
100
AcDbPolyline
 90
4
 70
1
 10
0.0
 20
29.99999999998545
 10
130.0
 20
29.99999999998545
 10
130.0
 20
0.0
 10
0.0
 20
0.0
  0
LWPOLYLINE
  5
87
330
32
100
AcDbEntity
  8
0
 62
252
 60
1
100
AcDbPolyline
 90
8
 70
1
 10
5.0
 20
27.99999999998545
 10
125.0
 20
27.99999999998545
 42
-0.4142135623730951
 10
128.0
 20
24.99999999998545
 10
128.0
 20
5.0
 42
-0.4142135623730951
 10
125.0
 20
2.0
 10
5.0
 20
2.0
 42
-0.4142135623730951
 10
2.0
 20
5.0
 10
2.0
 20
24.99999999998545
 42
-0.4142135623730951
  0
LINE
  5
88
330
32
100
AcDbEntity
  8
07
  6
Continuous
 62
2
370
5
 48
3.0
 60
1
100
AcDbLine
 10
124.1923881554248
 20
-25.80761184456787
 30
0.0
 11
105.8076118445751
 21
-44.19238815543212
 31
0.0
  0
LINE
  5
89
330
32
100
AcDbEntity
  8
07
  6
Continuous
 62
2
370
5
 48
3.0
 60
1
100
AcDbLine
 10
105.8076118445751
 20
-25.80761184457515
 30
0.0
 11
124.1923881554248
 21
-44.19238815543212
 31
0.0
  0
LWPOLYLINE
  5
8A
330
32
100
AcDbEntity
  8
0
 62
2
370
9
 60
1
100
AcDbPolyline
 90
3
 70
0
 10
105.8076118445751
 20
-25.80761184457515
 10
115.0
 20
-35.00000000000728
 10
105.8076118445751
 20
-44.19238815543212
  0
HATCH
  5
8B
330
32
100
AcDbEntity
  8
0
 62
2
370
9
 60
1
100
AcDbHatch
 10
0.0
 20
0.0
 30
0.0
210
0.0
220
0.0
230
1.0
  2
SOLID
 70
1
 71
0
 91
1
 92
1
 93
3
 72
1
 10
105.8076118445751
 20
-25.80761184456787
 11
115.0
 21
-35.0
 72
1
 10
115.0
 20
-35.0
 11
105.8076118445751
 21
-44.19238815542485
 72
2
 10
115.0
 20
-34.99999999999273
 40
13.00000000000601
 50
135.0
 51
225.0000000000227
 73
0
 97
0
 75
0
 76
1
 98
1
 10
-88230.87169737769
 20
-40227.23377587984
450
1
451
0
460
0.0
461
0.0
452
1
462
0.4499999880790711
453
2
463
0
 63
2
421
15854862
463
1
 63
52
421
14275853
470
CURVED
  0
LWPOLYLINE
  5
8C
330
32
100
AcDbEntity
  8
0
 62
2
370
9
 60
1
100
AcDbPolyline
 90
3
 70
0
 10
105.8076118445751
 20
-25.80761184456787
 10
115.0
 20
-35.0
 10
105.8076118445751
 20
-44.19238815542485
  0
HATCH
  5
8D
330
32
100
AcDbEntity
  8
0
 62
2
370
9
 60
1
100
AcDbHatch
 10
0.0
 20
0.0
 30
0.0
210
0.0
220
0.0
230
1.0
  2
SOLID
 70
1
 71
0
 91
1
 92
1
 93
3
 72
1
 10
124.1923881554394
 20
-25.80761184456787
 11
115.0000000000145
 21
-35.0
 72
1
 10
115.0000000000145
 20
-35.0
 11
124.1923881554394
 21
-44.19238815542485
 72
2
 10
115.0000000000145
 20
-34.99999999999273
 40
13.00000000000602
 50
315.0
 51
405.0000000000227
 73
1
 97
0
 75
0
 76
1
 98
1
 10
88460.87169737772
 20
-40227.23377587984
450
1
451
0
460
0.0
461
0.0
452
1
462
0.4499999880790711
453
2
463
0
 63
2
421
15854862
463
1
 63
52
421
14275853
470
CURVED
  0
CIRCLE
  5
8E
330
32
100
AcDbEntity
  8
07
  6
Continuous
 62
2
370
5
 48
3.0
 60
1
100
AcDbCircle
 10
115.0
 20
-35.0
 30
0.0
 40
13.00000000000601
  0
MTEXT
  5
8F
330
32
100
AcDbEntity
  8
1-EMC-ACESS
  6
ByBlock
 62
1
370
-2
 60
1
100
AcDbMText
 10
14.79696910982602
 20
-8.872724044625604
 30
0.0
 40
4.536
 41
69.47331923081924
 46
0.0
 71
2
 72
5
  1
{\fTimes New Roman|b0|i0|c0|p18;\C7;RUN}
  7
ARIAL
  0
MTEXT
  5
90
330
32
100
AcDbEntity
  8
1-EMC-ACESS
  6
ByBlock
 62
1
370
-2
 60
1
100
AcDbMText
 10
65.75995047709148
 20
-8.754010138758124
 30
0.0
 40
4.536
 41
69.47331923081924
 46
0.0
 71
2
 72
5
  1
{\fTimes New Roman|b0|i0|c0|p18;\C7;STOP}
  7
ARIAL
  0
MTEXT
  5
91
330
32
100
AcDbEntity
  8
1-EMC-ACESS
  6
ByBlock
 62
1
370
-2
 60
1
100
AcDbMText
 10
115.0017812415608
 20
-8.778957631796905
 30
0.0
 40
4.536
 41
69.47331923081924
 46
0.0
 71
2
 72
5
  1
{\fTimes New Roman|b0|i0|c0|p18;\C7;FAULT}
  7
ARIAL
  0
ATTDEF
  5
92
330
32
100
AcDbEntity
  8
0
370
9
 60
1
100
AcDbText
 10
43.53285411107502
 20
11.04168413488514
 30
0.0
 40
9.0
  1
NAME2
  7
THIÊN1
 72
1
 11
66.33134005195461
 21
15.54168413488514
 31
0.0
100
AcDbAttributeDefinition
  3

  2
NAME2
 70
0
 74
2
280
1
 71
1
 72
0
 11
66.33134005195461
 21
15.54168413488514
 31
0.0
  0
HATCH
  5
93
330
32
100
AcDbEntity
  8
0
 62
7
370
9
 60
1
100
AcDbHatch
 10
0.0
 20
0.0
 30
0.0
210
0.0
220
0.0
230
1.0
  2
SOLID
 70
1
 71
0
 91
1
 92
1
 93
4
 72
1
 10
36.89110435401915
 20
-22.30000000001019
 11
43.89110435401915
 21
-22.30000000001019
 72
1
 10
43.89110435401915
 20
-22.30000000001019
 11
43.89110435401915
 21
-47.70000000000436
 72
1
 10
43.89110435401915
 20
-47.70000000000436
 11
36.89110435401915
 21
-47.70000000000436
 72
1
 10
36.89110435401915
 20
-47.70000000000436
 11
36.89110435401915
 21
-22.30000000001019
 97
1
330
66A79
 75
0
 76
1
 98
1
 10
-89215.9091689102
 20
-39971.9677436148
450
1
451
0
460
0.0
461
0.0
452
1
462
0.4600000083446503
453
2
463
0
 63
80
421
2683405
463
1
 63
82
421
2416396
470
HEMISPHERICAL
  0
LWPOLYLINE
  5
94
330
32
100
AcDbEntity
  8
0
 62
7
370
9
 60
1
100
AcDbPolyline
 90
4
 70
1
 10
36.89110435401915
 20
-22.30000000001019
 10
43.89110435401915
 20
-22.30000000001019
 10
43.89110435401915
 20
-47.70000000000436
 10
36.89110435401915
 20
-47.70000000000436
  0
LWPOLYLINE
  5
95
330
32
100
AcDbEntity
  8
0
 62
7
370
9
 60
1
100
AcDbPolyline
 90
6
 70
0
 10
25.39110435401915
 20
-27.5
 10
25.39110435401915
 20
-49.5
 10
36.89110435401915
 20
-49.5
 10
36.89110435401915
 20
-20.5
 10
25.39110435401915
 20
-20.5
 10
25.39110435401915
 20
-20.5
  0
LWPOLYLINE
  5
96
330
32
100
AcDbEntity
  8
0
 62
7
370
9
 60
1
100
AcDbPolyline
 90
6
 70
1
 10
36.89110435401915
 20
-20.5
 10
43.39110435401915
 20
-20.5
 42
-0.4142135623730951
 10
43.89110435401915
 20
-21.0
 10
43.89110435401915
 20
-49.0
 42
-0.4142135623730951
 10
43.39110435401915
 20
-49.5
 10
36.89110435401915
 20
-49.5
  0
LWPOLYLINE
  5
97
330
32
100
AcDbEntity
  8
0
 62
7
370
9
 60
1
100
AcDbPolyline
 90
4
 70
1
 10
17.89110435401915
 20
-49.5
 10
23.89110435401915
 20
-49.5
 10
23.89110435401915
 20
-20.5
 10
17.89110435401915
 20
-20.5
  0
LWPOLYLINE
  5
98
330
32
100
AcDbEntity
  8
0
 62
7
370
9
 60
1
100
AcDbPolyline
 90
6
 70
0
 10
25.39110435401915
 20
-27.5
 10
25.39110435401915
 20
-49.5
 10
23.89110435401915
 20
-49.5
 10
23.89110435401915
 20
-20.5
 10
25.39110435401915
 20
-20.5
 10
25.39110435401915
 20
-20.5
  0
LINE
  5
99
330
32
100
AcDbEntity
  8
0
 62
7
370
9
 60
1
100
AcDbLine
 10
17.89110435401915
 20
-49.5
 30
0.0
 11
23.89110435401915
 21
-49.5
 31
0.0
  0
LINE
  5
9A
330
32
100
AcDbEntity
  8
0
 62
7
370
9
 60
1
100
AcDbLine
 10
17.89110435401915
 20
-48.5
 30
0.0
 11
23.89110435401915
 21
-48.5
 31
0.0
  0
LINE
  5
9B
330
32
100
AcDbEntity
  8
0
 62
7
370
9
 60
1
100
AcDbLine
 10
17.89110435401915
 20
-47.5
 30
0.0
 11
23.89110435401915
 21
-47.5
 31
0.0
  0
LINE
  5
9C
330
32
100
AcDbEntity
  8
0
 62
7
370
9
 60
1
100
AcDbLine
 10
17.89110435401915
 20
-46.5
 30
0.0
 11
23.89110435401915
 21
-46.5
 31
0.0
  0
LINE
  5
9D
330
32
100
AcDbEntity
  8
0
 62
7
370
9
 60
1
100
AcDbLine
 10
17.89110435401915
 20
-45.49999999999999
 30
0.0
 11
23.89110435401915
 21
-45.49999999999999
 31
0.0
  0
LINE
  5
9E
330
32
100
AcDbEntity
  8
0
 62
7
370
9
 60
1
100
AcDbLine
 10
17.89110435401915
 20
-44.5
 30
0.0
 11
23.89110435401915
 21
-44.5
 31
0.0
  0
LINE
  5
9F
330
32
100
AcDbEntity
  8
0
 62
7
370
9
 60
1
100
AcDbLine
 10
17.89110435401915
 20
-43.5
 30
0.0
 11
23.89110435401915
 21
-43.5
 31
0.0
  0
LINE
  5
A0
330
32
100
AcDbEntity
  8
0
 62
7
370
9
 60
1
100
AcDbLine
 10
17.89110435401915
 20
-42.5
 30
0.0
 11
23.89110435401915
 21
-42.5
 31
0.0
  0
LINE
  5
A1
330
32
100
AcDbEntity
  8
0
 62
7
370
9
 60
1
100
AcDbLine
 10
17.89110435401915
 20
-41.5
 30
0.0
 11
23.89110435401915
 21
-41.5
 31
0.0
  0
LINE
  5
A2
330
32
100
AcDbEntity
  8
0
 62
7
370
9
 60
1
100
AcDbLine
 10
17.89110435401915
 20
-40.49999999999999
 30
0.0
 11
23.89110435401915
 21
-40.49999999999999
 31
0.0
  0
LINE
  5
A3
330
32
100
AcDbEntity
  8
0
 62
7
370
9
 60
1
100
AcDbLine
 10
17.89110435401915
 20
-39.5
 30
0.0
 11
23.89110435401915
 21
-39.5
 31
0.0
  0
LINE
  5
A4
330
32
100
AcDbEntity
  8
0
 62
7
370
9
 60
1
100
AcDbLine
 10
17.89110435401915
 20
-38.5
 30
0.0
 11
23.89110435401915
 21
-38.5
 31
0.0
  0
LINE
  5
A5
330
32
100
AcDbEntity
  8
0
 62
7
370
9
 60
1
100
AcDbLine
 10
17.89110435401915
 20
-37.5
 30
0.0
 11
23.89110435401915
 21
-37.5
 31
0.0
  0
LINE
  5
A6
330
32
100
AcDbEntity
  8
0
 62
7
370
9
 60
1
100
AcDbLine
 10
17.89110435401915
 20
-36.5
 30
0.0
 11
23.89110435401915
 21
-36.5
 31
0.0
  0
LINE
  5
A7
330
32
100
AcDbEntity
  8
0
 62
7
370
9
 60
1
100
AcDbLine
 10
17.89110435401915
 20
-35.5
 30
0.0
 11
23.89110435401915
 21
-35.5
 31
0.0
  0
LINE
  5
A8
330
32
100
AcDbEntity
  8
0
 62
7
370
9
 60
1
100
AcDbLine
 10
17.89110435401915
 20
-34.5
 30
0.0
 11
23.89110435401915
 21
-34.5
 31
0.0
  0
LINE
  5
A9
330
32
100
AcDbEntity
  8
0
 62
7
370
9
 60
1
100
AcDbLine
 10
17.89110435401915
 20
-33.5
 30
0.0
 11
23.89110435401915
 21
-33.5
 31
0.0
  0
LINE
  5
AA
330
32
100
AcDbEntity
  8
0
 62
7
370
9
 60
1
100
AcDbLine
 10
17.89110435401915
 20
-32.5
 30
0.0
 11
23.89110435401915
 21
-32.5
 31
0.0
  0
LINE
  5
AB
330
32
100
AcDbEntity
  8
0
 62
7
370
9
 60
1
100
AcDbLine
 10
17.89110435401915
 20
-31.5
 30
0.0
 11
23.89110435401915
 21
-31.5
 31
0.0
  0
LINE
  5
AC
330
32
100
AcDbEntity
  8
0
 62
7
370
9
 60
1
100
AcDbLine
 10
17.89110435401915
 20
-30.5
 30
0.0
 11
23.89110435401915
 21
-30.5
 31
0.0
  0
LINE
  5
AD
330
32
100
AcDbEntity
  8
0
 62
7
370
9
 60
1
100
AcDbLine
 10
17.89110435401915
 20
-29.5
 30
0.0
 11
23.89110435401915
 21
-29.5
 31
0.0
  0
LINE
  5
AE
330
32
100
AcDbEntity
  8
0
 62
7
370
9
 60
1
100
AcDbLine
 10
17.89110435401915
 20
-28.5
 30
0.0
 11
23.89110435401915
 21
-28.5
 31
0.0
  0
LINE
  5
AF
330
32
100
AcDbEntity
  8
0
 62
7
370
9
 60
1
100
AcDbLine
 10
17.89110435401915
 20
-27.5
 30
0.0
 11
23.89110435401915
 21
-27.5
 31
0.0
  0
LINE
  5
B0
330
32
100
AcDbEntity
  8
0
 62
7
370
9
 60
1
100
AcDbLine
 10
17.89110435401915
 20
-26.5
 30
0.0
 11
23.89110435401915
 21
-26.5
 31
0.0
  0
LINE
  5
B1
330
32
100
AcDbEntity
  8
0
 62
7
370
9
 60
1
100
AcDbLine
 10
17.89110435401915
 20
-25.5
 30
0.0
 11
23.89110435401915
 21
-25.5
 31
0.0
  0
LINE
  5
B2
330
32
100
AcDbEntity
  8
0
 62
7
370
9
 60
1
100
AcDbLine
 10
17.89110435401915
 20
-24.5
 30
0.0
 11
23.89110435401915
 21
-24.5
 31
0.0
  0
LINE
  5
B3
330
32
100
AcDbEntity
  8
0
 62
7
370
9
 60
1
100
AcDbLine
 10
17.89110435401915
 20
-23.5
 30
0.0
 11
23.89110435401915
 21
-23.5
 31
0.0
  0
LINE
  5
B4
330
32
100
AcDbEntity
  8
0
 62
7
370
9
 60
1
100
AcDbLine
 10
17.89110435401915
 20
-22.5
 30
0.0
 11
23.89110435401915
 21
-22.5
 31
0.0
  0
LINE
  5
B5
330
32
100
AcDbEntity
  8
0
 62
7
370
9
 60
1
100
AcDbLine
 10
17.89110435401915
 20
-21.5
 30
0.0
 11
23.89110435401915
 21
-21.5
 31
0.0
  0
LINE
  5
B6
330
32
100
AcDbEntity
  8
0
 62
7
370
9
 60
1
100
AcDbLine
 10
17.89110435401915
 20
-20.5
 30
0.0
 11
23.89110435401915
 21
-20.5
 31
0.0
  0
LWPOLYLINE
  5
B7
330
32
100
AcDbEntity
  8
0
 62
7
370
9
 60
1
100
AcDbPolyline
 90
4
 70
1
 10
12.89110435401915
 20
-46.0
 10
17.89110435401915
 20
-46.0
 10
17.89110435401915
 20
-24.0
 10
12.89110435401915
 20
-24.0
  0
LINE
  5
B8
330
32
100
AcDbEntity
  8
0
 62
7
370
9
 60
1
100
AcDbLine
 10
12.89110435401915
 20
-33.5
 30
0.0
 11
13.39110435401915
 21
-33.5
 31
0.0
  0
LINE
  5
B9
330
32
100
AcDbEntity
  8
0
 62
7
370
9
 60
1
100
AcDbLine
 10
13.39110435401915
 20
-24.0
 30
0.0
 11
13.17519526310741
 21
-33.5
 31
0.0
  0
LINE
  5
BA
330
32
100
AcDbEntity
  8
0
 62
7
370
9
 60
1
100
AcDbLine
 10
13.10701344493089
 20
-36.5
 30
0.0
 11
12.89110435401915
 21
-46.0
 31
0.0
  0
LINE
  5
BB
330
32
100
AcDbEntity
  8
0
 62
7
370
9
 60
1
100
AcDbLine
 10
14.39110435401915
 20
-24.0
 30
0.0
 11
14.17519526310741
 21
-33.5
 31
0.0
  0
LINE
  5
BC
330
32
100
AcDbEntity
  8
0
 62
7
370
9
 60
1
100
AcDbLine
 10
14.10701344493089
 20
-36.5
 30
0.0
 11
13.89110435401915
 21
-46.0
 31
0.0
  0
LINE
  5
BD
330
32
100
AcDbEntity
  8
0
 62
7
370
9
 60
1
100
AcDbLine
 10
15.39110435401915
 20
-24.0
 30
0.0
 11
15.17519526310741
 21
-33.5
 31
0.0
  0
LINE
  5
BE
330
32
100
AcDbEntity
  8
0
 62
7
370
9
 60
1
100
AcDbLine
 10
15.10701344493089
 20
-36.5
 30
0.0
 11
14.89110435401915
 21
-46.0
 31
0.0
  0
LINE
  5
BF
330
32
100
AcDbEntity
  8
0
 62
7
370
9
 60
1
100
AcDbLine
 10
16.39110435401915
 20
-24.0
 30
0.0
 11
16.17519526310741
 21
-33.5
 31
0.0
  0
LINE
  5
C0
330
32
100
AcDbEntity
  8
0
 62
7
370
9
 60
1
100
AcDbLine
 10
16.10701344493089
 20
-36.5
 30
0.0
 11
15.89110435401915
 21
-46.0
 31
0.0
  0
LINE
  5
C1
330
32
100
AcDbEntity
  8
0
 62
7
370
9
 60
1
100
AcDbLine
 10
17.39110435401915
 20
-24.0
 30
0.0
 11
17.17519526310741
 21
-33.5
 31
0.0
  0
LINE
  5
C2
330
32
100
AcDbEntity
  8
0
 62
7
370
9
 60
1
100
AcDbLine
 10
17.10701344493089
 20
-36.5
 30
0.0
 11
16.89110435401915
 21
-46.0
 31
0.0
  0
LINE
  5
C3
330
32
100
AcDbEntity
  8
0
 62
7
370
9
 60
1
100
AcDbLine
 10
12.89110435401915
 20
-33.5
 30
0.0
 11
17.89110435401915
 21
-33.5
 31
0.0
  0
LINE
  5
C4
330
32
100
AcDbEntity
  8
0
 62
7
370
9
 60
1
100
AcDbLine
 10
12.89110435401915
 20
-36.5
 30
0.0
 11
13.39110435401915
 21
-36.5
 31
0.0
  0
LINE
  5
C5
330
32
100
AcDbEntity
  8
0
 62
7
370
9
 60
1
100
AcDbLine
 10
12.89110435401915
 20
-36.5
 30
0.0
 11
17.89110435401915
 21
-36.5
 31
0.0
  0
LWPOLYLINE
  5
C6
330
32
100
AcDbEntity
  8
0
 62
7
370
9
 60
1
100
AcDbPolyline
 90
8
 70
1
 10
6.391104354019152
 20
-55.0
 10
12.39110435401915
 20
-55.0
 42
0.4142135623730951
 10
12.89110435401915
 20
-54.5
 10
12.89110435401915
 20
-15.5
 42
0.4142135623730951
 10
12.39110435401915
 20
-15.0
 10
6.391104354019152
 20
-15.0
 42
0.4142135623730951
 10
5.891104354019152
 20
-15.5
 10
5.891104354019152
 20
-54.5
 42
0.4142135623730951
  0
LINE
  5
C7
330
32
100
AcDbEntity
  8
0
 62
7
370
9
 60
1
100
AcDbLine
 10
5.893391919254899
 20
-15.45222623855807
 30
0.0
 11
5.891104354019152
 21
-14.0
 31
0.0
  0
ARC
  5
C8
330
32
100
AcDbEntity
  8
0
 62
7
370
9
 60
1
100
AcDbCircle
 10
6.391104354019152
 20
-14.0
 30
0.0
 40
0.5
100
AcDbArc
 50
90.0
 51
180.0
  0
LINE
  5
C9
330
32
100
AcDbEntity
  8
0
 62
7
370
9
 60
1
100
AcDbLine
 10
6.391104354019152
 20
-13.5
 30
0.0
 11
6.391104354019152
 21
-13.5
 31
0.0
  0
LINE
  5
CA
330
32
100
AcDbEntity
  8
0
 62
7
370
9
 60
1
100
AcDbLine
 10
6.891104354019152
 20
-14.0
 30
0.0
 11
6.891104354019152
 21
-15.0
 31
0.0
  0
ARC
  5
CB
330
32
100
AcDbEntity
  8
0
 62
7
370
9
 60
1
100
AcDbCircle
 10
6.391104354019152
 20
-14.0
 30
0.0
 40
0.5
100
AcDbArc
 50
0.0
 51
90.0
  0
HATCH
  5
CC
330
32
100
AcDbEntity
  8
0
 62
7
370
9
 60
1
100
AcDbHatch
 10
0.0
 20
0.0
 30
0.0
210
0.0
220
0.0
230
1.0
  2
SOLID
 70
1
 71
0
 91
1
 92
1
 93
4
 72
1
 10
11.89110435401915
 20
-42.5
 11
12.89110435401915
 21
-42.5
 72
1
 10
12.89110435401915
 20
-42.5
 11
12.89110435401915
 21
-27.5
 72
1
 10
12.89110435401915
 20
-27.5
 11
11.89110435401915
 21
-27.5
 72
1
 10
11.89110435401915
 20
-27.5
 11
11.89110435401915
 21
-42.5
 97
1
330
66AB2
 75
0
 76
1
 98
1
 10
-89222.14188040014
 20
-39926.26849232307
450
1
451
0
460
0.0
461
0.0
452
1
462
0.9300000071525573
453
2
463
0
 63
7
421
16777215
463
1
 63
7
421
15592941
470
INVCYLINDER
  0
LWPOLYLINE
  5
CD
330
32
100
AcDbEntity
  8
0
 62
7
370
9
 60
1
100
AcDbPolyline
 90
4
 70
1
 10
11.89110435401915
 20
-42.5
 10
12.89110435401915
 20
-42.5
 10
12.89110435401915
 20
-27.5
 10
11.89110435401915
 20
-27.5
  0
LWPOLYLINE
  5
CE
330
32
100
AcDbEntity
  8
0
 62
7
370
9
 60
1
100
AcDbPolyline
 90
4
 70
0
 10
-3.108895645980847
 20
-20.0
 10
-11.60889564598085
 20
-20.0
 42
0.4142135623730951
 10
-12.10889564598085
 20
-20.5
 10
-12.10889564598085
 20
-32.0
  0
LWPOLYLINE
  5
CF
330
32
100
AcDbEntity
  8
0
 62
7
370
9
 60
1
100
AcDbPolyline
 90
2
 70
0
 10
-12.10889564598085
 20
-33.42370186949847
 10
-12.10889564598085
 20
-34.84999999999855
  0
LWPOLYLINE
  5
D0
330
32
100
AcDbEntity
  8
0
 62
7
370
9
 60
1
100
AcDbPolyline
 90
2
 70
0
 10
-12.10889564598085
 20
-35.15000000000146
 10
-12.10889564598085
 20
-36.5762981305088
  0
LWPOLYLINE
  5
D1
330
32
100
AcDbEntity
  8
0
 62
7
370
9
 60
1
100
AcDbPolyline
 90
4
 70
0
 10
-12.10889564598085
 20
-38.0
 10
-12.10889564598085
 20
-49.5
 42
0.4142135623730951
 10
-11.60889564598085
 20
-50.0
 10
-3.108895645980847
 20
-50.0
  0
LWPOLYLINE
  5
D2
330
32
100
AcDbEntity
  8
0
 62
7
370
9
 60
1
100
AcDbPolyline
 90
3
 70
0
 10
5.891104354019152
 20
-51.0
 10
5.891104354019152
 20
-19.0
 10
-2.608895645980847
 20
-19.0
  0
LWPOLYLINE
  5
D3
330
32
100
AcDbEntity
  8
0
 62
7
370
9
 60
1
100
AcDbPolyline
 90
4
 70
0
 10
-12.10889564598085
 20
-38.0
 10
-8.108895645980846
 20
-38.0
 10
-8.108895645980846
 20
-32.0
 10
-12.10889564598085
 20
-32.0
  0
LINE
  5
D4
330
32
100
AcDbEntity
  8
0
 62
7
370
9
 60
1
100
AcDbLine
 10
5.891104354019152
 20
-19.0
 30
0.0
 11
-2.608895645980847
 21
-19.0
 31
0.0
  0
LINE
  5
D5
330
32
100
AcDbEntity
  8
0
 62
7
370
9
 60
1
100
AcDbLine
 10
-3.108895645980847
 20
-19.5
 30
0.0
 11
-3.108895645980847
 21
-20.0
 31
0.0
  0
ARC
  5
D6
330
32
100
AcDbEntity
  8
0
 62
7
370
9
 60
1
100
AcDbCircle
 10
-2.608895645980847
 20
-19.5
 30
0.0
 40
0.5
100
AcDbArc
 50
90.0
 51
180.0
  0
LINE
  5
D7
330
32
100
AcDbEntity
  8
0
 62
7
370
9
 60
1
100
AcDbLine
 10
5.891104354019152
 20
-51.0
 30
0.0
 11
-2.608895645980847
 21
-51.0
 31
0.0
  0
ARC
  5
D8
330
32
100
AcDbEntity
  8
0
 62
7
370
9
 60
1
100
AcDbCircle
 10
-2.608895645980847
 20
-50.5
 30
0.0
 40
0.5
100
AcDbArc
 50
180.0
 51
270.0
  0
LINE
  5
D9
330
32
100
AcDbEntity
  8
0
 62
7
370
9
 60
1
100
AcDbLine
 10
-3.108895645980847
 20
-50.5
 30
0.0
 11
-3.108895645980847
 21
-50.0
 31
0.0
  0
LWPOLYLINE
  5
DA
330
32
100
AcDbEntity
  8
0
 62
7
370
9
 60
1
100
AcDbPolyline
 90
2
 70
0
 10
-12.10889564598085
 20
-48.99999999999272
 10
-12.10889564598085
 20
-37.5
  0
LWPOLYLINE
  5
DB
330
32
100
AcDbEntity
  8
0
 62
7
370
9
 60
1
100
AcDbPolyline
 90
2
 70
0
 10
-12.10889564598085
 20
-36.5762981305088
 10
-12.10889564598085
 20
-33.42370186949847
  0
LWPOLYLINE
  5
DC
330
32
100
AcDbEntity
  8
0
 62
7
370
9
 60
1
100
AcDbPolyline
 90
2
 70
0
 10
-12.10889564598085
 20
-32.49999999999273
 10
-12.10889564598085
 20
-21.0
  0
LWPOLYLINE
  5
DD
330
32
100
AcDbEntity
  8
0
 62
7
370
9
 60
1
100
AcDbPolyline
 90
3
 70
0
 10
-24.10889564598085
 20
-20.0
 10
-36.10889564598085
 20
-20.0
 10
-36.10889564598085
 20
-32.0
  0
LWPOLYLINE
  5
DE
330
32
100
AcDbEntity
  8
0
 62
7
370
9
 60
1
100
AcDbPolyline
 90
2
 70
0
 10
-36.10889564598085
 20
-33.42370186949847
 10
-36.10889564598085
 20
-34.84999999999855
  0
LWPOLYLINE
  5
DF
330
32
100
AcDbEntity
  8
0
 62
7
370
9
 60
1
100
AcDbPolyline
 90
2
 70
0
 10
-36.10889564598085
 20
-35.15000000000146
 10
-36.10889564598085
 20
-36.5762981305088
  0
LWPOLYLINE
  5
E0
330
32
100
AcDbEntity
  8
0
 62
7
370
9
 60
1
100
AcDbPolyline
 90
3
 70
0
 10
-36.10889564598085
 20
-38.0
 10
-36.10889564598085
 20
-50.0
 10
-24.10889564606816
 20
-50.0
  0
LINE
  5
E1
330
32
100
AcDbEntity
  8
0
 62
7
370
9
 60
1
100
AcDbLine
 10
-12.10889564598085
 20
-21.0
 30
0.0
 11
-24.10889564598085
 21
-20.0
 31
0.0
  0
LINE
  5
E2
330
32
100
AcDbEntity
  8
0
 62
7
370
9
 60
1
100
AcDbLine
 10
-33.60889564598085
 20
-20.0
 30
0.0
 11
-33.60889564598085
 21
-21.19999999999709
 31
0.0
  0
LINE
  5
E3
330
32
100
AcDbEntity
  8
0
 62
7
370
9
 60
1
100
AcDbLine
 10
-33.60889564598085
 20
-21.19999999999709
 30
0.0
 11
-25.60889564598085
 21
-21.19999999999709
 31
0.0
  0
LINE
  5
E4
330
32
100
AcDbEntity
  8
0
 62
7
370
9
 60
1
100
AcDbLine
 10
-25.60889564598085
 20
-21.19999999999709
 30
0.0
 11
-25.60889564598085
 21
-20.0
 31
0.0
  0
LINE
  5
E5
330
32
100
AcDbEntity
  8
0
 62
7
370
9
 60
1
100
AcDbLine
 10
-12.10889564598085
 20
-48.99999999999272
 30
0.0
 11
-24.10889564598085
 21
-49.99999999999272
 31
0.0
  0
LINE
  5
E6
330
32
100
AcDbEntity
  8
0
 62
7
370
9
 60
1
100
AcDbLine
 10
-33.60889564598085
 20
-49.99999999999272
 30
0.0
 11
-33.60889564598085
 21
-48.79999999999563
 31
0.0
  0
LINE
  5
E7
330
32
100
AcDbEntity
  8
0
 62
7
370
9
 60
1
100
AcDbLine
 10
-33.60889564598085
 20
-48.79999999999563
 30
0.0
 11
-25.60889564598085
 21
-48.79999999999563
 31
0.0
  0
LINE
  5
E8
330
32
100
AcDbEntity
  8
0
 62
7
370
9
 60
1
100
AcDbLine
 10
-25.60889564598085
 20
-48.79999999999563
 30
0.0
 11
-25.60889564598085
 21
-49.99999999999272
 31
0.0
  0
LWPOLYLINE
  5
E9
330
32
100
AcDbEntity
  8
0
 62
7
370
9
 60
1
100
AcDbPolyline
 90
8
 70
0
 10
-12.10889564598085
 20
-35.15000000000146
 10
-12.10889564598085
 20
-36.5762981305088
 42
0.4142135623730951
 10
-11.60889564598085
 20
-37.07629813050881
 10
-8.108895645980846
 20
-37.07629813050881
 10
-8.108895645980846
 20
-32.92370186949848
 10
-11.60889564598085
 20
-32.92370186949848
 42
0.4142135623730951
 10
-12.10889564598085
 20
-33.42370186949847
 10
-12.10889564598085
 20
-34.84999999999855
  0
LINE
  5
EA
330
32
100
AcDbEntity
  8
0
 62
7
370
9
 60
1
100
AcDbLine
 10
-12.10889564598085
 20
-35.15000000000146
 30
0.0
 11
-11.30889564599249
 21
-35.15000000000146
 31
0.0
  0
LINE
  5
EB
330
32
100
AcDbEntity
  8
0
 62
7
370
9
 60
1
100
AcDbLine
 10
-11.30889564599249
 20
-35.15000000000146
 30
0.0
 11
-11.30889564599249
 21
-34.84999999999855
 31
0.0
  0
LINE
  5
EC
330
32
100
AcDbEntity
  8
0
 62
7
370
9
 60
1
100
AcDbLine
 10
-11.30889564599249
 20
-34.84999999999855
 30
0.0
 11
-12.10889564598085
 21
-34.84999999999855
 31
0.0
  0
LWPOLYLINE
  5
ED
330
32
100
AcDbEntity
  8
0
 62
7
370
9
 60
1
100
AcDbPolyline
 90
2
 70
0
 10
-36.10889564598085
 20
-33.42370186949847
 10
-36.10889564598085
 20
-34.84999999999855
  0
LWPOLYLINE
  5
EE
330
32
100
AcDbEntity
  8
0
 62
7
370
9
 60
1
100
AcDbPolyline
 90
2
 70
0
 10
-36.10889564598085
 20
-35.15000000000146
 10
-36.10889564598085
 20
-36.5762981305088
  0
LWPOLYLINE
  5
EF
330
32
100
AcDbEntity
  8
0
 62
7
370
9
 60
1
100
AcDbPolyline
 90
4
 70
0
 10
-36.10889564598085
 20
-38.0
 10
-32.10889564598085
 20
-38.0
 10
-32.10889564598085
 20
-32.0
 10
-36.10889564598085
 20
-32.0
  0
LWPOLYLINE
  5
F0
330
32
100
AcDbEntity
  8
0
 62
7
370
9
 60
1
100
AcDbPolyline
 90
8
 70
0
 10
-36.10889564598085
 20
-35.15000000000146
 10
-36.10889564598085
 20
-36.5762981305088
 42
0.4142135623730951
 10
-35.60889564598085
 20
-37.07629813050881
 10
-32.10889564598085
 20
-37.07629813050881
 10
-32.10889564598085
 20
-32.92370186949848
 10
-35.60889564598085
 20
-32.92370186949848
 42
0.4142135623730951
 10
-36.10889564598085
 20
-33.42370186949847
 10
-36.10889564598085
 20
-34.84999999999855
  0
LINE
  5
F1
330
32
100
AcDbEntity
  8
0
 62
7
370
9
 60
1
100
AcDbLine
 10
-36.10889564598085
 20
-35.15000000000146
 30
0.0
 11
-35.30889564599249
 21
-35.15000000000146
 31
0.0
  0
LINE
  5
F2
330
32
100
AcDbEntity
  8
0
 62
7
370
9
 60
1
100
AcDbLine
 10
-35.30889564599249
 20
-35.15000000000146
 30
0.0
 11
-35.30889564599249
 21
-34.84999999999855
 31
0.0
  0
LINE
  5
F3
330
32
100
AcDbEntity
  8
0
 62
7
370
9
 60
1
100
AcDbLine
 10
-35.30889564599249
 20
-34.84999999999855
 30
0.0
 11
-36.10889564598085
 21
-34.84999999999855
 31
0.0
  0
LWPOLYLINE
  5
F4
330
32
100
AcDbEntity
  8
0
 62
7
370
9
 60
1
100
AcDbPolyline
 90
4
 70
1
 10
-17.60889564598085
 20
-36.0
 10
-12.10889564598085
 20
-36.0
 10
-12.10889564598085
 20
-34.0
 10
-17.60889564598085
 20
-34.0
  0
LINE
  5
F5
330
32
100
AcDbEntity
  8
0
 62
7
370
9
 60
1
100
AcDbLine
 10
-12.10889564598085
 20
-38.0
 30
0.0
 11
-12.10889564598085
 21
-37.5
 31
0.0
  0
LINE
  5
F6
330
32
100
AcDbEntity
  8
0
 62
7
370
9
 60
1
100
AcDbLine
 10
-12.10889564598085
 20
-37.5
 30
0.0
 11
-13.10889564598085
 21
-37.5
 31
0.0
  0
LINE
  5
F7
330
32
100
AcDbEntity
  8
0
 62
7
370
9
 60
1
100
AcDbLine
 10
-13.10889564598085
 20
-37.5
 30
0.0
 11
-13.10889564598085
 21
-37.0
 31
0.0
  0
LINE
  5
F8
330
32
100
AcDbEntity
  8
0
 62
7
370
9
 60
1
100
AcDbLine
 10
-13.10889564598085
 20
-37.0
 30
0.0
 11
-17.60889564598085
 21
-37.0
 31
0.0
  0
LINE
  5
F9
330
32
100
AcDbEntity
  8
0
 62
7
370
9
 60
1
100
AcDbLine
 10
-12.10889564598085
 20
-32.49999999999273
 30
0.0
 11
-13.10889564598085
 21
-32.49999999999273
 31
0.0
  0
LINE
  5
FA
330
32
100
AcDbEntity
  8
0
 62
7
370
9
 60
1
100
AcDbLine
 10
-13.10889564598085
 20
-32.49999999999273
 30
0.0
 11
-13.10889564598085
 21
-32.99999999999272
 31
0.0
  0
LINE
  5
FB
330
32
100
AcDbEntity
  8
0
 62
7
370
9
 60
1
100
AcDbLine
 10
-13.10889564598085
 20
-32.99999999999272
 30
0.0
 11
-17.60889564598085
 21
-32.99999999999272
 31
0.0
  0
LINE
  5
FC
330
32
100
AcDbEntity
  8
0
 62
7
370
9
 60
1
100
AcDbLine
 10
-17.60889564598085
 20
-32.99999999999272
 30
0.0
 11
-17.60889564598085
 21
-37.0
 31
0.0
  0
LINE
  5
FD
330
32
100
AcDbEntity
  8
0
 62
7
370
9
 60
1
100
AcDbLine
 10
-12.10889564598085
 20
-36.0
 30
0.0
 11
-12.40889564598376
 21
-36.0
 31
0.0
  0
LINE
  5
FE
330
32
100
AcDbEntity
  8
0
 62
7
370
9
 60
1
100
AcDbLine
 10
-12.10889564598085
 20
-36.0
 30
0.0
 11
-12.30889564597793
 21
-36.0
 31
0.0
  0
LINE
  5
FF
330
32
100
AcDbEntity
  8
0
 62
7
370
9
 60
1
100
AcDbLine
 10
-12.30889564597793
 20
-36.0
 30
0.0
 11
-12.10889564598085
 21
-34.0
 31
0.0
  0
LINE
  5
100
330
32
100
AcDbEntity
  8
0
 62
7
370
9
 60
1
100
AcDbLine
 10
-12.50889564597503
 20
-36.0
 30
0.0
 11
-12.30889564597793
 21
-34.0
 31
0.0
  0
LINE
  5
101
330
32
100
AcDbEntity
  8
0
 62
7
370
9
 60
1
100
AcDbLine
 10
-12.70889564597212
 20
-36.0
 30
0.0
 11
-12.50889564597503
 21
-34.0
 31
0.0
  0
LINE
  5
102
330
32
100
AcDbEntity
  8
0
 62
7
370
9
 60
1
100
AcDbLine
 10
-12.90889564598376
 20
-36.0
 30
0.0
 11
-12.70889564598667
 21
-34.0
 31
0.0
  0
LINE
  5
103
330
32
100
AcDbEntity
  8
0
 62
7
370
9
 60
1
100
AcDbLine
 10
-13.10889564598085
 20
-36.0
 30
0.0
 11
-12.90889564598376
 21
-34.0
 31
0.0
  0
LINE
  5
104
330
32
100
AcDbEntity
  8
0
 62
7
370
9
 60
1
100
AcDbLine
 10
-13.30889564599249
 20
-36.0
 30
0.0
 11
-13.1088956459954
 21
-34.0
 31
0.0
  0
LINE
  5
105
330
32
100
AcDbEntity
  8
0
 62
7
370
9
 60
1
100
AcDbLine
 10
-13.50889564598958
 20
-36.0
 30
0.0
 11
-13.30889564599249
 21
-34.0
 31
0.0
  0
LWPOLYLINE
  5
106
330
32
100
AcDbEntity
  8
0
 62
7
370
9
 60
1
100
AcDbPolyline
 90
6
 70
1
 10
5.091104354016241
 20
-18.5
 10
5.891104354019152
 20
-18.5
 10
5.891104354019152
 20
-16.5
 10
5.091104354016241
 20
-16.5
 42
0.4142135623730951
 10
4.891104354019152
 20
-16.69999999999709
 10
4.891104354019152
 20
-18.30000000000291
 42
0.4142135623730951
  0
LWPOLYLINE
  5
107
330
32
100
AcDbEntity
  8
0
 62
7
370
9
 60
1
100
AcDbPolyline
 90
6
 70
1
 10
5.091104354016241
 20
-51.49999999999272
 10
5.891104354019152
 20
-51.49999999999272
 10
5.891104354019152
 20
-53.49999999999273
 10
5.091104354016241
 20
-53.49999999999273
 42
-0.4142135623730951
 10
4.891104354019152
 20
-53.29999999999563
 10
4.891104354019152
 20
-51.69999999998982
 42
-0.4142135623730951
  0
CIRCLE
  5
108
330
32
100
AcDbEntity
  8
0
 62
7
370
9
 60
1
100
AcDbCircle
 10
-25.60889564598085
 20
-22.46606087267719
 30
0.0
 40
1.0
  0
CIRCLE
  5
109
330
32
100
AcDbEntity
  8
0
 62
7
370
9
 60
1
100
AcDbCircle
 10
-14.16284557556548
 20
-31.66120178789424
 30
0.0
 40
1.0
  0
CIRCLE
  5
10A
330
32
100
AcDbEntity
  8
0
 62
7
370
9
 60
1
100
AcDbCircle
 10
-25.60889564598085
 20
-22.46606087267719
 30
0.0
 40
0.8
  0
CIRCLE
  5
10B
330
32
100
AcDbEntity
  8
0
 62
7
370
9
 60
1
100
AcDbCircle
 10
-14.16284557556548
 20
-31.66120178789424
 30
0.0
 40
0.8
  0
CIRCLE
  5
10C
330
32
100
AcDbEntity
  8
0
 62
7
370
9
 60
1
100
AcDbCircle
 10
-25.60889564598085
 20
-47.5339391273228
 30
0.0
 40
1.0
  0
CIRCLE
  5
10D
330
32
100
AcDbEntity
  8
0
 62
7
370
9
 60
1
100
AcDbCircle
 10
-14.16284557556548
 20
-38.33879821210576
 30
0.0
 40
1.0
  0
CIRCLE
  5
10E
330
32
100
AcDbEntity
  8
0
 62
7
370
9
 60
1
100
AcDbCircle
 10
-25.60889564598085
 20
-47.5339391273228
 30
0.0
 40
0.8
  0
CIRCLE
  5
10F
330
32
100
AcDbEntity
  8
0
 62
7
370
9
 60
1
100
AcDbCircle
 10
-14.16284557556548
 20
-38.33879821210576
 30
0.0
 40
0.8
  0
MTEXT
  5
110
330
32
100
AcDbEntity
  8
1-EMC-ACESS
  6
ByBlock
 62
1
370
9
 60
1
100
AcDbMText
 10
-20.42490101392661
 20
-34.28981727456267
 30
0.0
 40
2.268
 41
34.73665961540962
 46
0.0
 71
2
 72
5
  1
{\fTimes New Roman|b0|i0|c0|p18;\C7;Chint     NP2}
  7
ARIAL
 11
-2e-16
 21
-1.0
 31
0.0
  0
MTEXT
  5
111
330
32
100
AcDbEntity
  8
1-EMC-ACESS
  6
ByBlock
 62
1
370
9
 60
1
100
AcDbMText
 10
-23.49764642182901
 20
-33.96463344986841
 30
0.0
 40
1.134
 41
17.36832980770481
 46
0.0
 71
2
 72
5
  1
{\fTimes New Roman|b0|i0|c0|p18;\C7;BE101.3     .4 (NO)\PAC-15:220V/4.5A\PDC-13:110V/0.6A}
  7
ARIAL
 11
-2e-16
 21
-1.0
 31
0.0
  0
HATCH
  5
112
330
32
100
AcDbEntity
  8
0
 62
7
370
9
 60
1
100
AcDbHatch
 10
0.0
 20
0.0
 30
0.0
210
0.0
220
0.0
230
1.0
  2
SOLID
 70
1
 71
0
 91
1
 92
1
 93
4
 72
1
 10
-22.7651749047601
 20
-33.70812166851829
 11
-22.7651749047601
 21
-36.70812166851829
 72
1
 10
-22.7651749047601
 20
-36.70812166851829
 11
-21.96517490475719
 21
-36.70812166851829
 72
1
 10
-21.96517490475719
 20
-36.70812166851829
 11
-21.96517490475719
 21
-33.70812166851829
 72
1
 10
-21.96517490475719
 20
-33.70812166851829
 11
-22.7651749047601
 21
-33.70812166851829
 97
1
330
66AFA
 75
0
 76
1
 98
1
 10
-39930.25783170153
 20
89172.94373303185
450
1
451
0
460
0.0
461
0.0
452
1
462
0.9300000071525573
453
2
463
0
 63
7
421
16777215
463
1
 63
7
421
15592941
470
INVCYLINDER
  0
LWPOLYLINE
  5
113
330
32
100
AcDbEntity
  8
0
 62
7
370
9
 60
1
100
AcDbPolyline
 90
4
 70
1
 10
-22.7651749047601
 20
-33.70812166851829
 10
-22.7651749047601
 20
-36.70812166851829
 10
-21.96517490475719
 20
-36.70812166851829
 10
-21.96517490475719
 20
-33.70812166851829
  0
LINE
  5
114
330
32
100
AcDbEntity
  8
0
 62
7
370
9
 60
1
100
AcDbLine
 10
-23.67259330309218
 20
-33.43108892601595
 30
0.0
 11
-23.67259330309218
 21
-34.19188067726646
 31
0.0
  0
LINE
  5
115
330
32
100
AcDbEntity
  8
0
 62
7
370
9
 60
1
100
AcDbLine
 10
-23.67259330309218
 20
-34.77046672155848
 30
0.0
 11
-23.67259330309218
 21
-35.71798214927549
 31
0.0
  0
LINE
  5
116
330
32
100
AcDbEntity
  8
0
 62
7
370
9
 60
1
100
AcDbLine
 10
-23.67259330309218
 20
-34.77046672157303
 30
0.0
 11
-24.26524069597701
 21
-34.19188067726646
 31
0.0
  0
MTEXT
  5
117
330
32
100
AcDbEntity
  8
1-EMC-ACESS
  6
ByBlock
 62
1
370
9
 60
1
100
AcDbMText
 10
3.26529458740504
 20
-34.28981727456267
 30
0.0
 40
2.268
 41
34.73665961540962
 46
0.0
 71
2
 72
5
  1
{\fTimes New Roman|b0|i0|c0|p18;\C7;Chint             NP2}
  7
ARIAL
 11
-2e-16
 21
-1.0
 31
0.0
  0
MTEXT
  5
118
330
32
100
AcDbEntity
  8
1-EMC-ACESS
  6
ByBlock
 62
1
370
9
 60
1
100
AcDbMText
 10
-2.95595002335369
 20
-41.78384389538405
 30
0.0
 40
1.134
 41
17.36832980770481
 46
0.0
 71
2
 72
5
  1
{\fTimes New Roman|b0|i0|c0|p18;\C7;AC/DC 230V}
  7
ARIAL
 11
-2e-16
 21
-1.0
 31
0.0
  0
HATCH
  5
119
330
32
100
AcDbEntity
  8
0
 62
7
370
9
 60
1
100
AcDbHatch
 10
0.0
 20
0.0
 30
0.0
210
0.0
220
0.0
230
1.0
  2
SOLID
 70
1
 71
0
 91
1
 92
1
 93
4
 72
1
 10
0.9250206965715541
 20
-31.28019916925405
 11
0.9250206965715541
 21
-38.91157542962901
 72
1
 10
0.9250206965715541
 20
-38.91157542962901
 11
1.725020696574464
 21
-38.91157542962901
 72
1
 10
1.725020696574464
 20
-38.91157542962901
 11
1.725020696574464
 21
-31.28019916925405
 72
1
 10
1.725020696574464
 20
-31.28019916925405
 11
0.9250206965715541
 21
-31.28019916925405
 97
1
330
66B03
 75
0
 76
1
 98
1
 10
-39906.5676361002
 20
89172.94373303185
450
1
451
0
460
0.0
461
0.0
452
1
462
0.9300000071525573
453
2
463
0
 63
7
421
16777215
463
1
 63
7
421
15592941
470
INVCYLINDER
  0
LWPOLYLINE
  5
11A
330
32
100
AcDbEntity
  8
0
 62
7
370
9
 60
1
100
AcDbPolyline
 90
4
 70
1
 10
0.9250206965715541
 20
-31.28019916925405
 10
0.9250206965715541
 20
-38.91157542962901
 10
1.725020696574464
 20
-38.91157542962901
 10
1.725020696574464
 20
-31.28019916925405
  0
CIRCLE
  5
11B
330
32
100
AcDbEntity
  8
0
 62
7
370
9
 60
1
100
AcDbCircle
 10
-3.66260653905385
 20
-32.96773969886999
 30
0.0
 40
2.0
  0
LINE
  5
11C
330
32
100
AcDbEntity
  8
0
 62
7
370
9
 60
1
100
AcDbLine
 10
-5.049194371104132
 20
-31.52642981407553
 30
0.0
 11
-2.276018707003569
 21
-34.40904958366445
 31
0.0
  0
LINE
  5
11D
330
32
100
AcDbEntity
  8
0
 62
7
370
9
 60
1
100
AcDbLine
 10
-2.276018707003569
 20
-31.52642981407553
 30
0.0
 11
-5.049194371104132
 21
-34.40904958366445
 31
0.0
  0
LINE
  5
11E
330
32
100
AcDbEntity
  8
0
 62
7
370
9
 60
1
100
AcDbLine
 10
-1.66260653905385
 20
-32.96773969886999
 30
0.0
 11
-1.262606539059671
 21
-32.96773969886999
 31
0.0
  0
LINE
  5
11F
330
32
100
AcDbEntity
  8
0
 62
7
370
9
 60
1
100
AcDbLine
 10
-1.262606539059671
 20
-32.96773969886999
 30
0.0
 11
-1.262606539059671
 21
-43.77335021144244
 31
0.0
  0
HATCH
  5
120
330
32
100
AcDbEntity
  8
0
 62
7
370
9
 60
1
100
AcDbHatch
 10
0.0
 20
0.0
 30
0.0
210
0.0
220
0.0
230
1.0
  2
SOLID
 70
1
 71
0
 91
1
 92
1
 93
1
 72
2
 10
-1.262606539059671
 20
-43.77335021144244
 40
0.2
 50
0.0
 51
360.0
 73
1
 97
1
330
66B0A
 75
0
 76
1
 98
1
 10
-89216.4091689102
 20
-39969.4817737858
450
1
451
0
460
0.0
461
0.0
452
1
462
1.0
453
2
463
0
 63
7
421
16777215
463
1
 63
7
421
16777215
470
INVCYLINDER
  0
CIRCLE
  5
121
330
32
100
AcDbEntity
  8
0
 62
7
370
9
 60
1
100
AcDbCircle
 10
-1.262606539059671
 20
-43.77335021144244
 30
0.0
 40
0.2
  0
LINE
  5
122
330
32
100
AcDbEntity
  8
0
 62
7
370
9
 60
1
100
AcDbLine
 10
-5.66260653905385
 20
-32.96773969886999
 30
0.0
 11
-6.062606539048029
 21
-32.96773969886999
 31
0.0
  0
LINE
  5
123
330
32
100
AcDbEntity
  8
0
 62
7
370
9
 60
1
100
AcDbLine
 10
-6.062606539048029
 20
-32.96773969886999
 30
0.0
 11
-6.062606539048029
 21
-43.77335021144244
 31
0.0
  0
HATCH
  5
124
330
32
100
AcDbEntity
  8
0
 62
7
370
9
 60
1
100
AcDbHatch
 10
0.0
 20
0.0
 30
0.0
210
0.0
220
0.0
230
1.0
  2
SOLID
 70
1
 71
0
 91
1
 92
1
 93
1
 72
2
 10
-6.062606539048029
 20
-43.77335021144244
 40
0.2
 50
0.0
 51
360.0
 73
1
 97
1
330
66B0E
 75
0
 76
1
 98
1
 10
89209.08395583209
 20
-39969.4817737858
450
1
451
0
460
0.0
461
0.0
452
1
462
1.0
453
2
463
0
 63
7
421
16777215
463
1
 63
7
421
16777215
470
INVCYLINDER
  0
CIRCLE
  5
125
330
32
100
AcDbEntity
  8
0
 62
7
370
9
 60
1
100
AcDbCircle
 10
-6.062606539048029
 20
-43.77335021144244
 30
0.0
 40
0.2
  0
MTEXT
  5
126
330
32
100
AcDbEntity
  8
1-EMC-ACESS
  6
ByBlock
 62
1
370
9
 60
1
100
AcDbMText
 10
-2.95595002335369
 20
-27.8866253093729
 30
0.0
 40
1.134
 41
17.36832980770481
 46
0.0
 71
2
 72
5
  1
{\fTimes New Roman|b0|i0|c0|p18;\C7;LED}
  7
ARIAL
 11
-2e-16
 21
-1.0
 31
0.0
  0
MTEXT
  5
127
330
32
100
AcDbEntity
  8
1-EMC-ACESS
  6
ByBlock
 62
1
370
9
 60
1
100
AcDbMText
 10
-0.6805870299232275
 20
-23.10632762374007
 30
0.0
 40
0.9072
 41
13.89466384616385
 46
0.0
 71
2
 72
5
  1
{\fTimes New Roman|b0|i0|c0|p18;\C7;BA9s}
  7
ARIAL
 11
-2e-16
 21
-1.0
 31
0.0
  0
MTEXT
  5
128
330
32
100
AcDbEntity
  8
1-EMC-ACESS
  6
ByBlock
 62
1
370
9
 60
1
100
AcDbMText
 10
-6.350625763350873
 20
-24.18146711157897
 30
0.0
 40
0.9072
 41
13.89466384616385
 46
0.0
 71
2
 72
5
  1
{\fTimes New Roman|b0|i0|c0|p18;\C7;Ie<20mA}
  7
ARIAL
 11
-2e-16
 21
-1.0
 31
0.0
  0
LWPOLYLINE
  5
129
330
32
100
AcDbEntity
  8
0
 62
7
370
9
 60
1
100
AcDbPolyline
 90
6
 70
1
 10
23.89110435401915
 20
-27.5
 10
27.39110435401916
 20
-27.5
 42
0.4142135623730951
 10
27.89110435401915
 20
-27.0
 10
27.89110435403371
 20
-4.0
 42
0.4142135623730951
 10
27.3911043540337
 20
-3.5
 10
23.89110435401915
 20
-3.5
  0
HATCH
  5
12A
330
32
100
AcDbEntity
  8
0
 62
7
370
9
 60
1
100
AcDbHatch
 10
0.0
 20
0.0
 30
0.0
210
0.0
220
0.0
230
1.0
  2
SOLID
 70
1
 71
0
 91
1
 92
1
 93
4
 72
1
 10
26.39110435403371
 20
-16.46382584849198
 11
27.3911043540337
 21
-16.46382584849198
 72
1
 10
27.3911043540337
 20
-16.46382584849198
 11
27.3911043540337
 21
-5.5
 72
1
 10
27.3911043540337
 20
-5.5
 11
26.3911043540337
 21
-5.5
 72
1
 10
26.3911043540337
 20
-5.5
 11
26.39110435403371
 21
-16.46382584849198
 97
1
330
66B17
 75
0
 76
1
 98
1
 10
-89489.90311258406
 20
-39971.9677436148
450
1
451
0
460
0.0
461
0.0
452
1
462
0.7200000286102295
453
2
463
0
 63
253
421
11054781
463
1
 63
253
421
11449282
470
CYLINDER
  0
LWPOLYLINE
  5
12B
330
32
100
AcDbEntity
  8
0
 62
7
370
9
 60
1
100
AcDbPolyline
 90
4
 70
1
 10
26.39110435403371
 20
-16.46382584849198
 10
27.3911043540337
 20
-16.46382584849198
 10
27.3911043540337
 20
-5.5
 10
26.3911043540337
 20
-5.5
  0
HATCH
  5
12C
330
32
100
AcDbEntity
  8
0
 62
7
370
9
 60
1
100
AcDbHatch
 10
0.0
 20
0.0
 30
0.0
210
0.0
220
0.0
230
1.0
  2
SOLID
 70
1
 71
0
 91
1
 92
1
 93
4
 72
1
 10
36.89110435401915
 20
-22.30000000000291
 11
43.89110435401915
 21
-22.30000000000291
 72
1
 10
43.89110435401915
 20
-22.30000000000291
 11
43.89110435401915
 21
-47.69999999999709
 72
1
 10
43.89110435401915
 20
-47.69999999999709
 11
36.89110435401915
 21
-47.69999999999709
 72
1
 10
36.89110435401915
 20
-47.69999999999709
 11
36.89110435401915
 21
-22.30000000000291
 97
1
330
66B19
 75
0
 76
1
 98
1
 10
-89215.9091689102
 20
-39971.96774361479
450
1
451
0
460
0.0
461
0.0
452
1
462
0.4600000083446503
453
2
463
0
 63
80
421
2683405
463
1
 63
82
421
2416396
470
HEMISPHERICAL
  0
LWPOLYLINE
  5
12D
330
32
100
AcDbEntity
  8
0
 62
7
370
9
 60
1
100
AcDbPolyline
 90
4
 70
1
 10
36.89110435401915
 20
-22.30000000000291
 10
43.89110435401915
 20
-22.30000000000291
 10
43.89110435401915
 20
-47.69999999999709
 10
36.89110435401915
 20
-47.69999999999709
  0
LWPOLYLINE
  5
12E
330
32
100
AcDbEntity
  8
0
 62
7
370
9
 60
1
100
AcDbPolyline
 90
6
 70
0
 10
25.39110435401915
 20
-27.49999999999273
 10
25.39110435401915
 20
-49.49999999999272
 10
36.89110435401915
 20
-49.49999999999272
 10
36.89110435401915
 20
-20.49999999999272
 10
25.39110435401915
 20
-20.49999999999272
 10
25.39110435401915
 20
-20.49999999999272
  0
LWPOLYLINE
  5
12F
330
32
100
AcDbEntity
  8
0
 62
7
370
9
 60
1
100
AcDbPolyline
 90
6
 70
1
 10
36.89110435401915
 20
-20.49999999999272
 10
43.39110435401915
 20
-20.49999999999272
 42
-0.4142135623730951
 10
43.89110435401915
 20
-20.99999999999273
 10
43.89110435401915
 20
-48.99999999999272
 42
-0.4142135623730951
 10
43.39110435401915
 20
-49.49999999999272
 10
36.89110435401915
 20
-49.49999999999272
  0
LWPOLYLINE
  5
130
330
32
100
AcDbEntity
  8
0
 62
7
370
9
 60
1
100
AcDbPolyline
 90
6
 70
0
 10
25.39110435401915
 20
-27.49999999999273
 10
25.39110435401915
 20
-49.49999999999272
 10
23.89110435401915
 20
-49.49999999999272
 10
23.89110435401915
 20
-20.49999999999272
 10
25.39110435401915
 20
-20.49999999999272
 10
25.39110435401915
 20
-20.49999999999272
  0
LWPOLYLINE
  5
131
330
32
100
AcDbEntity
  8
0
 62
7
370
9
 60
1
100
AcDbPolyline
 90
6
 70
1
 10
23.89110435401915
 20
-27.49999999999273
 10
27.39110435401915
 20
-27.49999999999273
 42
0.4142135623730951
 10
27.89110435401915
 20
-26.99999999999273
 10
27.8911043540337
 20
-3.999999999992724
 42
0.4142135623730951
 10
27.3911043540337
 20
-3.499999999992724
 10
23.89110435401915
 20
-3.499999999992724
  0
HATCH
  5
132
330
32
100
AcDbEntity
  8
0
 62
7
370
9
 60
1
100
AcDbHatch
 10
0.0
 20
0.0
 30
0.0
210
0.0
220
0.0
230
1.0
  2
SOLID
 70
1
 71
0
 91
1
 92
1
 93
4
 72
1
 10
26.3911043540337
 20
-16.4638258484847
 11
27.3911043540337
 21
-16.4638258484847
 72
1
 10
27.3911043540337
 20
-16.4638258484847
 11
27.3911043540337
 21
-5.499999999992724
 72
1
 10
27.3911043540337
 20
-5.499999999992724
 11
26.3911043540337
 21
-5.499999999992724
 72
1
 10
26.3911043540337
 20
-5.499999999992724
 11
26.3911043540337
 21
-16.4638258484847
 97
1
330
66B1F
 75
0
 76
1
 98
1
 10
-89489.90311258406
 20
-39971.96774361479
450
1
451
0
460
0.0
461
0.0
452
1
462
0.7200000286102295
453
2
463
0
 63
253
421
11054781
463
1
 63
253
421
11449282
470
CYLINDER
  0
LWPOLYLINE
  5
133
330
32
100
AcDbEntity
  8
0
 62
7
370
9
 60
1
100
AcDbPolyline
 90
4
 70
1
 10
26.3911043540337
 20
-16.4638258484847
 10
27.3911043540337
 20
-16.4638258484847
 10
27.3911043540337
 20
-5.499999999992724
 10
26.3911043540337
 20
-5.499999999992724
  0
CIRCLE
  5
134
330
32
100
AcDbEntity
  8
0
 62
7
100
AcDbCircle
 10
15.0
 20
-35.0
 30
0.0
 40
15.0
  0
CIRCLE
  5
135
330
32
100
AcDbEntity
  8
0
 62
7
100
AcDbCircle
 10
15.0
 20
-35.0
 30
0.0
 40
13.0
  0
LINE
  5
136
330
32
100
AcDbEntity
  8
0
 62
7
100
AcDbLine
 10
0.0
 20
-3.5
 30
0.0
 11
30.0
 21
-3.5
 31
0.0
  0
LINE
  5
137
330
32
100
AcDbEntity
  8
0
 62
7
100
AcDbLine
 10
80.0
 20
-35.0
 30
0.0
 11
80.0
 21
-3.5
 31
0.0
  0
LINE
  5
138
330
32
100
AcDbEntity
  8
0
 62
7
100
AcDbLine
 10
0.0
 20
-3.5
 30
0.0
 11
0.0
 21
-35.0
 31
0.0
  0
LWPOLYLINE
  5
139
330
32
100
AcDbEntity
  8
0
 62
7
100
AcDbPolyline
 90
4
 70
1
 10
2.0
 20
-5.5
 10
28.0
 20
-5.5
 10
28.0
 20
-17.0
 10
2.0
 20
-17.0
  0
HATCH
  5
13A
330
32
100
AcDbEntity
  8
0
 62
7
370
9
100
AcDbHatch
 10
0.0
 20
0.0
 30
0.0
210
0.0
220
0.0
230
1.0
  2
SOLID
 70
1
 71
0
 91
1
 92
1
 93
1
 72
2
 10
15.0
 20
-35.0
 40
12.0
 50
0.0
 51
360.0
 73
1
 97
1
330
66B27
 75
0
 76
1
 98
1
 10
-88395.33291402573
 20
-40607.92101577834
450
1
451
0
460
0.0
461
0.0
452
1
462
0.5699999928474427
453
2
463
0
 63
80
421
3074326
463
1
 63
80
421
5041206
470
CYLINDER
  0
CIRCLE
  5
13B
330
32
100
AcDbEntity
  8
07
  6
Continuous
 62
3
370
5
 48
3.0
100
AcDbCircle
 10
15.0
 20
-35.0
 30
0.0
 40
12.0
  0
CIRCLE
  5
13C
330
32
100
AcDbEntity
  8
0
 62
7
100
AcDbCircle
 10
65.0
 20
-35.0
 30
0.0
 40
15.0
  0
CIRCLE
  5
13D
330
32
100
AcDbEntity
  8
0
 62
7
100
AcDbCircle
 10
65.0
 20
-35.0
 30
0.0
 40
13.0
  0
LINE
  5
13E
330
32
100
AcDbEntity
  8
0
 62
7
100
AcDbLine
 10
50.0
 20
-3.5
 30
0.0
 11
80.0
 21
-3.5
 31
0.0
  0
LINE
  5
13F
330
32
100
AcDbEntity
  8
0
 62
7
100
AcDbLine
 10
0.0
 20
-35.0
 30
0.0
 11
0.0
 21
-3.5
 31
0.0
  0
LINE
  5
140
330
32
100
AcDbEntity
  8
0
 62
7
100
AcDbLine
 10
30.0
 20
-3.5
 30
0.0
 11
30.0
 21
-35.0
 31
0.0
  0
LWPOLYLINE
  5
141
330
32
100
AcDbEntity
  8
0
 62
7
100
AcDbPolyline
 90
4
 70
1
 10
52.0
 20
-5.5
 10
78.0
 20
-5.5
 10
78.0
 20
-17.0
 10
52.0
 20
-17.0
  0
HATCH
  5
142
330
32
100
AcDbEntity
  8
0
 62
7
370
9
100
AcDbHatch
 10
0.0
 20
0.0
 30
0.0
210
0.0
220
0.0
230
1.0
  2
SOLID
 70
1
 71
0
 91
1
 92
1
 93
1
 72
2
 10
65.0
 20
-35.0
 40
12.0
 50
0.0
 51
360.0
 73
1
 97
1
330
66B2F
 75
0
 76
1
 98
1
 10
-88290.6552565704
 20
-40607.92101577834
450
1
451
0
460
0.0
461
0.0
452
1
462
0.4499999880790711
453
2
463
0
 63
1
421
15863057
463
1
 63
12
421
14289679
470
INVCYLINDER
  0
CIRCLE
  5
143
330
32
100
AcDbEntity
  8
07
  6
Continuous
 62
1
370
5
 48
3.0
100
AcDbCircle
 10
65.0
 20
-35.0
 30
0.0
 40
12.0
  0
LINE
  5
144
330
32
100
AcDbEntity
  8
0
 62
7
100
AcDbLine
 10
80.0
 20
-3.5
 30
0.0
 11
80.0
 21
-35.0
 31
0.0
  0
LINE
  5
145
330
32
100
AcDbEntity
  8
0
 62
7
100
AcDbLine
 10
30.0
 20
-35.0
 30
0.0
 11
30.0
 21
-3.5
 31
0.0
  0
LINE
  5
146
330
32
100
AcDbEntity
  8
0
 62
7
100
AcDbLine
 10
50.0
 20
-3.5
 30
0.0
 11
50.0
 21
-35.0
 31
0.0
  0
LINE
  5
147
330
32
100
AcDbEntity
  8
0
 62
7
100
AcDbLine
 10
80.0
 20
-35.0
 30
0.0
 11
80.0
 21
-3.5
 31
0.0
  0
LWPOLYLINE
  5
148
330
32
100
AcDbEntity
  8
0
 62
7
100
AcDbPolyline
 90
4
 70
1
 10
0.0
 20
29.99999999998545
 10
80.0
 20
29.99999999998545
 10
80.0
 20
0.0
 10
0.0
 20
0.0
  0
LWPOLYLINE
  5
149
330
32
100
AcDbEntity
  8
0
 62
252
100
AcDbPolyline
 90
8
 70
1
 10
5.0
 20
27.99999999998545
 10
74.99999999998545
 20
27.99999999998545
 42
-0.4142135623730951
 10
77.99999999998543
 20
24.99999999998545
 10
78.0
 20
5.0
 42
-0.4142135623732804
 10
75.0
 20
2.0
 10
5.0
 20
2.0
 42
-0.4142135623730951
 10
2.0
 20
5.0
 10
2.0
 20
24.99999999998545
 42
-0.4142135623730951
  0
MTEXT
  5
14A
330
32
100
AcDbEntity
  8
1-EMC-ACESS
  6
ByBlock
 62
1
370
-2
100
AcDbMText
 10
14.79696910982602
 20
-8.872724044625613
 30
0.0
 40
4.536
 41
69.47331923081924
 46
0.0
 71
2
 72
5
  1
{\fTimes New Roman|b0|i0|c0|p18;\C7;RUN}
  7
ARIAL
  0
MTEXT
  5
14B
330
32
100
AcDbEntity
  8
1-EMC-ACESS
  6
ByBlock
 62
1
370
-2
100
AcDbMText
 10
65.75995047709148
 20
-8.754010138758133
 30
0.0
 40
4.536
 41
69.47331923081924
 46
0.0
 71
2
 72
5
  1
{\fTimes New Roman|b0|i0|c0|p18;\C7;STOP}
  7
ARIAL
  0
CIRCLE
  5
14C
330
32
100
AcDbEntity
  8
0
 62
7
 60
1
100
AcDbCircle
 10
15.0
 20
-35.0
 30
0.0
 40
15.0
  0
CIRCLE
  5
14D
330
32
100
AcDbEntity
  8
0
 62
7
 60
1
100
AcDbCircle
 10
15.0
 20
-35.0
 30
0.0
 40
13.0
  0
LINE
  5
14E
330
32
100
AcDbEntity
  8
0
 62
7
 60
1
100
AcDbLine
 10
0.0
 20
-3.5
 30
0.0
 11
30.0
 21
-3.5
 31
0.0
  0
LINE
  5
14F
330
32
100
AcDbEntity
  8
0
 62
7
 60
1
100
AcDbLine
 10
80.0
 20
-35.0
 30
0.0
 11
80.0
 21
-3.5
 31
0.0
  0
LINE
  5
150
330
32
100
AcDbEntity
  8
0
 62
7
 60
1
100
AcDbLine
 10
0.0
 20
-3.5
 30
0.0
 11
0.0
 21
-35.0
 31
0.0
  0
LWPOLYLINE
  5
151
330
32
100
AcDbEntity
  8
0
 62
7
 60
1
100
AcDbPolyline
 90
4
 70
1
 10
2.0
 20
-5.5
 10
28.0
 20
-5.5
 10
28.0
 20
-17.0
 10
2.0
 20
-17.0
  0
HATCH
  5
152
330
32
100
AcDbEntity
  8
0
 62
7
370
9
 60
1
100
AcDbHatch
 10
0.0
 20
0.0
 30
0.0
210
0.0
220
0.0
230
1.0
  2
SOLID
 70
1
 71
0
 91
1
 92
1
 93
1
 72
2
 10
15.0
 20
-35.0
 40
12.0
 50
0.0
 51
360.0
 73
1
 97
1
330
66B41
 75
0
 76
1
 98
1
 10
-88395.33291402573
 20
-40607.92101577834
450
1
451
0
460
0.0
461
0.0
452
1
462
0.5699999928474427
453
2
463
0
 63
80
421
3074326
463
1
 63
80
421
5041206
470
CYLINDER
  0
CIRCLE
  5
153
330
32
100
AcDbEntity
  8
07
  6
Continuous
 62
3
370
5
 48
3.0
 60
1
100
AcDbCircle
 10
15.0
 20
-35.0
 30
0.0
 40
12.0
  0
CIRCLE
  5
154
330
32
100
AcDbEntity
  8
0
 62
7
 60
1
100
AcDbCircle
 10
65.0
 20
-35.0
 30
0.0
 40
15.0
  0
CIRCLE
  5
155
330
32
100
AcDbEntity
  8
0
 62
7
 60
1
100
AcDbCircle
 10
65.0
 20
-35.0
 30
0.0
 40
13.0
  0
LINE
  5
156
330
32
100
AcDbEntity
  8
0
 62
7
 60
1
100
AcDbLine
 10
50.0
 20
-3.5
 30
0.0
 11
80.0
 21
-3.5
 31
0.0
  0
LINE
  5
157
330
32
100
AcDbEntity
  8
0
 62
7
 60
1
100
AcDbLine
 10
0.0
 20
-35.0
 30
0.0
 11
0.0
 21
-3.5
 31
0.0
  0
LINE
  5
158
330
32
100
AcDbEntity
  8
0
 62
7
 60
1
100
AcDbLine
 10
30.0
 20
-3.5
 30
0.0
 11
30.0
 21
-35.0
 31
0.0
  0
LWPOLYLINE
  5
159
330
32
100
AcDbEntity
  8
0
 62
7
 60
1
100
AcDbPolyline
 90
4
 70
1
 10
52.0
 20
-5.5
 10
78.0
 20
-5.5
 10
78.0
 20
-17.0
 10
52.0
 20
-17.0
  0
HATCH
  5
15A
330
32
100
AcDbEntity
  8
0
 62
7
370
9
 60
1
100
AcDbHatch
 10
0.0
 20
0.0
 30
0.0
210
0.0
220
0.0
230
1.0
  2
SOLID
 70
1
 71
0
 91
1
 92
1
 93
1
 72
2
 10
65.0
 20
-35.0
 40
12.0
 50
0.0
 51
360.0
 73
1
 97
1
330
66B49
 75
0
 76
1
 98
1
 10
-88290.6552565704
 20
-40607.92101577834
450
1
451
0
460
0.0
461
0.0
452
1
462
0.4499999880790711
453
2
463
0
 63
1
421
15863057
463
1
 63
12
421
14289679
470
INVCYLINDER
  0
CIRCLE
  5
15B
330
32
100
AcDbEntity
  8
07
  6
Continuous
 62
1
370
5
 48
3.0
 60
1
100
AcDbCircle
 10
65.0
 20
-35.0
 30
0.0
 40
12.0
  0
LINE
  5
15C
330
32
100
AcDbEntity
  8
0
 62
7
 60
1
100
AcDbLine
 10
80.0
 20
-3.5
 30
0.0
 11
80.0
 21
-35.0
 31
0.0
  0
LINE
  5
15D
330
32
100
AcDbEntity
  8
0
 62
7
 60
1
100
AcDbLine
 10
30.0
 20
-35.0
 30
0.0
 11
30.0
 21
-3.5
 31
0.0
  0
LINE
  5
15E
330
32
100
AcDbEntity
  8
0
 62
7
 60
1
100
AcDbLine
 10
50.0
 20
-3.5
 30
0.0
 11
50.0
 21
-35.0
 31
0.0
  0
LINE
  5
15F
330
32
100
AcDbEntity
  8
0
 62
7
 60
1
100
AcDbLine
 10
80.0
 20
-35.0
 30
0.0
 11
80.0
 21
-3.5
 31
0.0
  0
LWPOLYLINE
  5
160
330
32
100
AcDbEntity
  8
0
 62
7
 60
1
100
AcDbPolyline
 90
4
 70
1
 10
0.0
 20
29.99999999998545
 10
80.0
 20
29.99999999998545
 10
80.0
 20
0.0
 10
0.0
 20
0.0
  0
LWPOLYLINE
  5
161
330
32
100
AcDbEntity
  8
0
 62
252
 60
1
100
AcDbPolyline
 90
8
 70
1
 10
5.0
 20
27.99999999998545
 10
74.99999999998545
 20
27.99999999998545
 42
-0.4142135623730951
 10
77.99999999998543
 20
24.99999999998545
 10
78.0
 20
5.0
 42
-0.4142135623732804
 10
75.0
 20
2.0
 10
5.0
 20
2.0
 42
-0.4142135623730951
 10
2.0
 20
5.0
 10
2.0
 20
24.99999999998545
 42
-0.4142135623730951
  0
MTEXT
  5
162
330
32
100
AcDbEntity
  8
1-EMC-ACESS
  6
ByBlock
 62
1
370
-2
 60
1
100
AcDbMText
 10
14.79696910982602
 20
-8.872724044625613
 30
0.0
 40
4.536
 41
69.47331923081924
 46
0.0
 71
2
 72
5
  1
{\fTimes New Roman|b0|i0|c0|p18;\C7;ON}
  7
ARIAL
  0
MTEXT
  5
163
330
32
100
AcDbEntity
  8
1-EMC-ACESS
  6
ByBlock
 62
1
370
-2
 60
1
100
AcDbMText
 10
65.75995047709148
 20
-8.754010138758133
 30
0.0
 40
4.536
 41
69.47331923081924
 46
0.0
 71
2
 72
5
  1
{\fTimes New Roman|b0|i0|c0|p18;\C7;OFF}
  7
ARIAL
  0
CIRCLE
  5
164
330
32
100
AcDbEntity
  8
0
 62
7
 60
1
100
AcDbCircle
 10
15.0
 20
-35.0
 30
0.0
 40
15.0
  0
CIRCLE
  5
165
330
32
100
AcDbEntity
  8
0
 62
7
 60
1
100
AcDbCircle
 10
15.0
 20
-35.0
 30
0.0
 40
13.0
  0
LINE
  5
166
330
32
100
AcDbEntity
  8
0
 62
7
 60
1
100
AcDbLine
 10
0.0
 20
-3.5
 30
0.0
 11
30.0
 21
-3.5
 31
0.0
  0
LINE
  5
167
330
32
100
AcDbEntity
  8
0
 62
7
 60
1
100
AcDbLine
 10
79.99999999999989
 20
-35.0
 30
0.0
 11
79.99999999999989
 21
-3.5
 31
0.0
  0
LINE
  5
168
330
32
100
AcDbEntity
  8
0
 62
7
 60
1
100
AcDbLine
 10
0.0
 20
-3.5
 30
0.0
 11
0.0
 21
-35.0
 31
0.0
  0
LWPOLYLINE
  5
169
330
32
100
AcDbEntity
  8
0
 62
7
 60
1
100
AcDbPolyline
 90
4
 70
1
 10
2.0
 20
-5.5
 10
28.0
 20
-5.5
 10
28.0
 20
-17.0
 10
2.0
 20
-17.0
  0
HATCH
  5
16A
330
32
100
AcDbEntity
  8
0
 62
7
370
9
 60
1
100
AcDbHatch
 10
0.0
 20
0.0
 30
0.0
210
0.0
220
0.0
230
1.0
  2
SOLID
 70
1
 71
0
 91
1
 92
1
 93
1
 72
2
 10
15.0
 20
-35.0
 40
12.0
 50
0.0
 51
360.0
 73
1
 97
1
330
66B5B
 75
0
 76
1
 98
1
 10
-88395.33291402574
 20
-40607.92101577834
450
1
451
0
460
0.0
461
0.0
452
1
462
0.5699999928474427
453
2
463
0
 63
80
421
3074326
463
1
 63
80
421
5041206
470
CYLINDER
  0
CIRCLE
  5
16B
330
32
100
AcDbEntity
  8
07
  6
Continuous
 62
3
370
5
 48
3.0
 60
1
100
AcDbCircle
 10
15.0
 20
-35.0
 30
0.0
 40
12.0
  0
CIRCLE
  5
16C
330
32
100
AcDbEntity
  8
0
 62
7
 60
1
100
AcDbCircle
 10
64.99999999999989
 20
-35.0
 30
0.0
 40
15.0
  0
CIRCLE
  5
16D
330
32
100
AcDbEntity
  8
0
 62
7
 60
1
100
AcDbCircle
 10
64.99999999999989
 20
-35.0
 30
0.0
 40
13.0
  0
LINE
  5
16E
330
32
100
AcDbEntity
  8
0
 62
7
 60
1
100
AcDbLine
 10
50.0
 20
-3.5
 30
0.0
 11
79.99999999999989
 21
-3.5
 31
0.0
  0
LINE
  5
16F
330
32
100
AcDbEntity
  8
0
 62
7
 60
1
100
AcDbLine
 10
0.0
 20
-35.0
 30
0.0
 11
0.0
 21
-3.5
 31
0.0
  0
LINE
  5
170
330
32
100
AcDbEntity
  8
0
 62
7
 60
1
100
AcDbLine
 10
30.0
 20
-3.5
 30
0.0
 11
30.0
 21
-35.0
 31
0.0
  0
LWPOLYLINE
  5
171
330
32
100
AcDbEntity
  8
0
 62
7
 60
1
100
AcDbPolyline
 90
4
 70
1
 10
52.0
 20
-5.5
 10
77.99999999999989
 20
-5.5
 10
77.99999999999989
 20
-17.0
 10
52.0
 20
-17.0
  0
HATCH
  5
172
330
32
100
AcDbEntity
  8
0
 62
7
370
9
 60
1
100
AcDbHatch
 10
0.0
 20
0.0
 30
0.0
210
0.0
220
0.0
230
1.0
  2
SOLID
 70
1
 71
0
 91
1
 92
1
 93
1
 72
2
 10
64.99999999999989
 20
-35.0
 40
12.0
 50
0.0
 51
360.0
 73
1
 97
1
330
66B63
 75
0
 76
1
 98
1
 10
-88290.65525657043
 20
-40607.92101577834
450
1
451
0
460
0.0
461
0.0
452
1
462
0.4499999880790711
453
2
463
0
 63
1
421
15863057
463
1
 63
12
421
14289679
470
INVCYLINDER
  0
CIRCLE
  5
173
330
32
100
AcDbEntity
  8
07
  6
Continuous
 62
1
370
5
 48
3.0
 60
1
100
AcDbCircle
 10
64.99999999999989
 20
-35.0
 30
0.0
 40
12.0
  0
LINE
  5
174
330
32
100
AcDbEntity
  8
0
 62
7
 60
1
100
AcDbLine
 10
79.99999999999989
 20
-3.5
 30
0.0
 11
79.99999999999989
 21
-35.0
 31
0.0
  0
LINE
  5
175
330
32
100
AcDbEntity
  8
0
 62
7
 60
1
100
AcDbLine
 10
30.0
 20
-35.0
 30
0.0
 11
30.0
 21
-3.5
 31
0.0
  0
LINE
  5
176
330
32
100
AcDbEntity
  8
0
 62
7
 60
1
100
AcDbLine
 10
50.0
 20
-3.5
 30
0.0
 11
50.0
 21
-35.0
 31
0.0
  0
LINE
  5
177
330
32
100
AcDbEntity
  8
0
 62
7
 60
1
100
AcDbLine
 10
79.99999999999989
 20
-35.0
 30
0.0
 11
79.99999999999989
 21
-3.5
 31
0.0
  0
MTEXT
  5
178
330
32
100
AcDbEntity
  8
1-EMC-ACESS
  6
ByBlock
 62
1
370
-2
 60
1
100
AcDbMText
 10
14.79696910982602
 20
-8.872724044625613
 30
0.0
 40
4.536
 41
69.47331923081924
 46
0.0
 71
2
 72
5
  1
{\fTimes New Roman|b0|i0|c0|p18;\C7;RUN}
  7
ARIAL
  0
MTEXT
  5
179
330
32
100
AcDbEntity
  8
1-EMC-ACESS
  6
ByBlock
 62
1
370
-2
 60
1
100
AcDbMText
 10
65.75995047709137
 20
-8.754010138758133
 30
0.0
 40
4.536
 41
69.47331923081924
 46
0.0
 71
2
 72
5
  1
{\fTimes New Roman|b0|i0|c0|p18;\C7;STOP}
  7
ARIAL
  0
CIRCLE
  5
17A
330
32
100
AcDbEntity
  8
0
 62
7
 60
1
100
AcDbCircle
 10
15.0
 20
-35.0
 30
0.0
 40
15.0
  0
CIRCLE
  5
17B
330
32
100
AcDbEntity
  8
0
 62
7
 60
1
100
AcDbCircle
 10
15.0
 20
-35.0
 30
0.0
 40
13.0
  0
LINE
  5
17C
330
32
100
AcDbEntity
  8
0
 62
7
 60
1
100
AcDbLine
 10
0.0
 20
-3.5
 30
0.0
 11
30.0
 21
-3.5
 31
0.0
  0
LINE
  5
17D
330
32
100
AcDbEntity
  8
0
 62
7
 60
1
100
AcDbLine
 10
80.0
 20
-35.0
 30
0.0
 11
80.0
 21
-3.5
 31
0.0
  0
LINE
  5
17E
330
32
100
AcDbEntity
  8
0
 62
7
 60
1
100
AcDbLine
 10
0.0
 20
-3.5
 30
0.0
 11
0.0
 21
-35.0
 31
0.0
  0
LWPOLYLINE
  5
17F
330
32
100
AcDbEntity
  8
0
 62
7
 60
1
100
AcDbPolyline
 90
4
 70
1
 10
2.0
 20
-5.5
 10
28.0
 20
-5.5
 10
28.0
 20
-17.0
 10
2.0
 20
-17.0
  0
HATCH
  5
180
330
32
100
AcDbEntity
  8
0
 62
7
370
9
 60
1
100
AcDbHatch
 10
0.0
 20
0.0
 30
0.0
210
0.0
220
0.0
230
1.0
  2
SOLID
 70
1
 71
0
 91
1
 92
1
 93
1
 72
2
 10
15.0
 20
-35.0
 40
12.0
 50
0.0
 51
360.0
 73
1
 97
1
330
66B73
 75
0
 76
1
 98
1
 10
-88395.33291402573
 20
-40607.92101577834
450
1
451
0
460
0.0
461
0.0
452
1
462
0.5699999928474427
453
2
463
0
 63
80
421
3074326
463
1
 63
80
421
5041206
470
CYLINDER
  0
CIRCLE
  5
181
330
32
100
AcDbEntity
  8
07
  6
Continuous
 62
3
370
5
 48
3.0
 60
1
100
AcDbCircle
 10
15.0
 20
-35.0
 30
0.0
 40
12.0
  0
CIRCLE
  5
182
330
32
100
AcDbEntity
  8
0
 62
7
 60
1
100
AcDbCircle
 10
65.0
 20
-35.0
 30
0.0
 40
15.0
  0
CIRCLE
  5
183
330
32
100
AcDbEntity
  8
0
 62
7
 60
1
100
AcDbCircle
 10
65.0
 20
-35.0
 30
0.0
 40
13.0
  0
LINE
  5
184
330
32
100
AcDbEntity
  8
0
 62
7
 60
1
100
AcDbLine
 10
50.0
 20
-3.5
 30
0.0
 11
80.0
 21
-3.5
 31
0.0
  0
LINE
  5
185
330
32
100
AcDbEntity
  8
0
 62
7
 60
1
100
AcDbLine
 10
0.0
 20
-35.0
 30
0.0
 11
0.0
 21
-3.5
 31
0.0
  0
LINE
  5
186
330
32
100
AcDbEntity
  8
0
 62
7
 60
1
100
AcDbLine
 10
30.0
 20
-3.5
 30
0.0
 11
30.0
 21
-35.0
 31
0.0
  0
LWPOLYLINE
  5
187
330
32
100
AcDbEntity
  8
0
 62
7
 60
1
100
AcDbPolyline
 90
4
 70
1
 10
52.0
 20
-5.5
 10
78.0
 20
-5.5
 10
78.0
 20
-17.0
 10
52.0
 20
-17.0
  0
HATCH
  5
188
330
32
100
AcDbEntity
  8
0
 62
7
370
9
 60
1
100
AcDbHatch
 10
0.0
 20
0.0
 30
0.0
210
0.0
220
0.0
230
1.0
  2
SOLID
 70
1
 71
0
 91
1
 92
1
 93
1
 72
2
 10
65.0
 20
-35.0
 40
12.0
 50
0.0
 51
360.0
 73
1
 97
1
330
66B7B
 75
0
 76
1
 98
1
 10
-88290.6552565704
 20
-40607.92101577834
450
1
451
0
460
0.0
461
0.0
452
1
462
0.4499999880790711
453
2
463
0
 63
1
421
15863057
463
1
 63
12
421
14289679
470
INVCYLINDER
  0
CIRCLE
  5
189
330
32
100
AcDbEntity
  8
07
  6
Continuous
 62
1
370
5
 48
3.0
 60
1
100
AcDbCircle
 10
65.0
 20
-35.0
 30
0.0
 40
12.0
  0
LINE
  5
18A
330
32
100
AcDbEntity
  8
0
 62
7
 60
1
100
AcDbLine
 10
80.0
 20
-3.5
 30
0.0
 11
80.0
 21
-35.0
 31
0.0
  0
LINE
  5
18B
330
32
100
AcDbEntity
  8
0
 62
7
 60
1
100
AcDbLine
 10
30.0
 20
-35.0
 30
0.0
 11
30.0
 21
-3.5
 31
0.0
  0
LINE
  5
18C
330
32
100
AcDbEntity
  8
0
 62
7
 60
1
100
AcDbLine
 10
50.0
 20
-3.5
 30
0.0
 11
50.0
 21
-35.0
 31
0.0
  0
LINE
  5
18D
330
32
100
AcDbEntity
  8
0
 62
7
 60
1
100
AcDbLine
 10
80.0
 20
-35.0
 30
0.0
 11
80.0
 21
-3.5
 31
0.0
  0
MTEXT
  5
18E
330
32
100
AcDbEntity
  8
1-EMC-ACESS
  6
ByBlock
 62
1
370
-2
 60
1
100
AcDbMText
 10
14.79696910982602
 20
-8.872724044625613
 30
0.0
 40
4.536
 41
69.47331923081924
 46
0.0
 71
2
 72
5
  1
{\fTimes New Roman|b0|i0|c0|p18;\C7;ON}
  7
ARIAL
  0
MTEXT
  5
18F
330
32
100
AcDbEntity
  8
1-EMC-ACESS
  6
ByBlock
 62
1
370
-2
 60
1
100
AcDbMText
 10
65.75995047709148
 20
-8.754010138758133
 30
0.0
 40
4.536
 41
69.47331923081924
 46
0.0
 71
2
 72
5
  1
{\fTimes New Roman|b0|i0|c0|p18;\C7;OFF}
  7
ARIAL
  0
ENDBLK
  5
34
330
32
100
AcDbEntity
  8
0
100
AcDbBlockEnd
  0
ENDSEC
  0
SECTION
  2
ENTITIES
  0
INSERT
  5
2F
330
17
100
AcDbEntity
  8
0
100
AcDbBlockReference
 66
1
  2
*U1902
 10
36.10889564598074
 20
55.0
 30
0.0
  0
ATTRIB
  5
30
330
2F
100
AcDbEntity
  8
0
370
9
 60
1
100
AcDbText
 10
92.10477546059701
 20
65.5007922415407
 30
0.0
 40
9.0
  1
FAN SEF 01
  7
THIÊN1
 72
1
 11
126.81349932505054
 21
70.0007922415407
 31
0.0
100
AcDbAttribute
  2
NAME1
 70
0
 74
2
280
1
 71
1
 72
0
 11
126.81349932505054
 21
70.0007922415407
 31
0.0
  0
SEQEND
  5
31
330
2F
100
AcDbEntity
  8
0
  0
ENDSEC
  0
SECTION
  2
OBJECTS
  0
DICTIONARY
  5
A
330
0
100
AcDbDictionary
281
1
  3
ACAD_COLOR
350
B
  3
ACAD_GROUP
350
C
  3
ACAD_LAYOUT
350
D
  3
ACAD_MATERIAL
350
E
  3
ACAD_MLEADERSTYLE
350
F
  3
ACAD_MLINESTYLE
350
10
  3
ACAD_PLOTSETTINGS
350
11
  3
ACAD_PLOTSTYLENAME
350
12
  3
ACAD_SCALELIST
350
14
  3
ACAD_TABLESTYLE
350
15
  3
ACAD_VISUALSTYLE
350
16
  3
EZDXF_META
350
2D
  0
DICTIONARY
  5
B
330
A
100
AcDbDictionary
281
1
  0
DICTIONARY
  5
C
330
A
100
AcDbDictionary
281
1
  0
DICTIONARY
  5
D
330
A
100
AcDbDictionary
281
1
  3
Model
350
1A
  3
Layout1
350
1E
  0
DICTIONARY
  5
E
330
A
100
AcDbDictionary
281
1
  3
ByBlock
350
1F
  3
ByLayer
350
20
  3
Global
350
21
  0
DICTIONARY
  5
F
330
A
100
AcDbDictionary
281
1
  3
Standard
350
2C
  0
DICTIONARY
  5
10
330
A
100
AcDbDictionary
281
1
  3
Standard
350
22
  0
DICTIONARY
  5
11
330
A
100
AcDbDictionary
281
1
  0
ACDBDICTIONARYWDFLT
  5
12
330
A
100
AcDbDictionary
281
1
  3
Normal
350
13
100
AcDbDictionaryWithDefault
340
13
  0
ACDBPLACEHOLDER
  5
13
330
12
  0
DICTIONARY
  5
14
330
A
100
AcDbDictionary
281
1
  0
DICTIONARY
  5
15
330
A
100
AcDbDictionary
281
1
  0
DICTIONARY
  5
16
330
A
100
AcDbDictionary
281
1
  0
LAYOUT
  5
1A
330
D
100
AcDbPlotSettings
  1

  4
A3
  6

 40
7.5
 41
20.0
 42
7.5
 43
20.0
 44
420.0
 45
297.0
 46
0.0
 47
0.0
 48
0.0
 49
0.0
140
0.0
141
0.0
142
1.0
143
1.0
 70
1024
 72
1
 73
0
 74
5
  7

 75
16
 76
0
 77
2
 78
300
147
1.0
148
0.0
149
0.0
100
AcDbLayout
  1
Model
 70
1
 71
0
 10
0.0
 20
0.0
 11
420.0
 21
297.0
 12
0.0
 22
0.0
 32
0.0
 14
1e+20
 24
1e+20
 34
1e+20
 15
-1e+20
 25
-1e+20
 35
-1e+20
146
0.0
 13
0.0
 23
0.0
 33
0.0
 16
1.0
 26
0.0
 36
0.0
 17
0.0
 27
1.0
 37
0.0
 76
1
330
17
  0
LAYOUT
  5
1E
330
D
100
AcDbPlotSettings
  1

  4
A3
  6

 40
7.5
 41
20.0
 42
7.5
 43
20.0
 44
420.0
 45
297.0
 46
0.0
 47
0.0
 48
0.0
 49
0.0
140
0.0
141
0.0
142
1.0
143
1.0
 70
0
 72
1
 73
0
 74
5
  7

 75
16
 76
0
 77
2
 78
300
147
1.0
148
0.0
149
0.0
100
AcDbLayout
  1
Layout1
 70
1
 71
1
 10
0.0
 20
0.0
 11
420.0
 21
297.0
 12
0.0
 22
0.0
 32
0.0
 14
1e+20
 24
1e+20
 34
1e+20
 15
-1e+20
 25
-1e+20
 35
-1e+20
146
0.0
 13
0.0
 23
0.0
 33
0.0
 16
1.0
 26
0.0
 36
0.0
 17
0.0
 27
1.0
 37
0.0
 76
1
330
1B
  0
MATERIAL
  5
1F
102
{ACAD_REACTORS
330
E
102
}
330
E
100
AcDbMaterial
  1
ByBlock
  2

 70
0
 40
1.0
 71
1
 41
1.0
 91
-1023410177
 42
1.0
 72
1
  3

 73
1
 74
1
 75
1
 44
0.5
 73
0
 45
1.0
 46
1.0
 77
1
  4

 78
1
 79
1
170
1
 48
1.0
171
1
  6

172
1
173
1
174
1
140
1.0
141
1.0
175
1
  7

176
1
177
1
178
1
143
1.0
179
1
  8

270
1
271
1
272
1
145
1.0
146
1.0
273
1
  9

274
1
275
1
276
1
 42
1.0
 72
1
  3

 73
1
 74
1
 75
1
 94
63
  0
MATERIAL
  5
20
102
{ACAD_REACTORS
330
E
102
}
330
E
100
AcDbMaterial
  1
ByLayer
  2

 70
0
 40
1.0
 71
1
 41
1.0
 91
-1023410177
 42
1.0
 72
1
  3

 73
1
 74
1
 75
1
 44
0.5
 73
0
 45
1.0
 46
1.0
 77
1
  4

 78
1
 79
1
170
1
 48
1.0
171
1
  6

172
1
173
1
174
1
140
1.0
141
1.0
175
1
  7

176
1
177
1
178
1
143
1.0
179
1
  8

270
1
271
1
272
1
145
1.0
146
1.0
273
1
  9

274
1
275
1
276
1
 42
1.0
 72
1
  3

 73
1
 74
1
 75
1
 94
63
  0
MATERIAL
  5
21
102
{ACAD_REACTORS
330
E
102
}
330
E
100
AcDbMaterial
  1
Global
  2

 70
0
 40
1.0
 71
1
 41
1.0
 91
-1023410177
 42
1.0
 72
1
  3

 73
1
 74
1
 75
1
 44
0.5
 73
0
 45
1.0
 46
1.0
 77
1
  4

 78
1
 79
1
170
1
 48
1.0
171
1
  6

172
1
173
1
174
1
140
1.0
141
1.0
175
1
  7

176
1
177
1
178
1
143
1.0
179
1
  8

270
1
271
1
272
1
145
1.0
146
1.0
273
1
  9

274
1
275
1
276
1
 42
1.0
 72
1
  3

 73
1
 74
1
 75
1
 94
63
  0
MLINESTYLE
  5
22
102
{ACAD_REACTORS
330
10
102
}
330
10
100
AcDbMlineStyle
  2
Standard
 70
0
  3

 62
256
 51
90.0
 52
90.0
 71
2
 49
0.5
 62
256
  6
BYLAYER
 49
-0.5
 62
256
  6
BYLAYER
  0
MLEADERSTYLE
  5
2C
102
{ACAD_REACTORS
330
F
102
}
330
F
100
AcDbMLeaderStyle
179
2
170
2
171
1
172
0
 90
2
 40
0.0
 41
0.0
173
1
 91
-1056964608
 92
-2
290
1
 42
2.0
291
1
 43
8.0
  3
Standard
 44
4.0
300

342
29
174
1
175
1
176
0
178
1
 93
-1056964608
 45
4.0
292
0
297
0
 46
4.0
 94
-1056964608
 47
1.0
 49
1.0
140
1.0
294
1
141
0.0
177
0
142
1.0
295
0
296
0
143
3.75
271
0
272
9
273
9
  0
DICTIONARY
  5
2D
330
A
100
AcDbDictionary
280
1
281
1
  3
CREATED_BY_EZDXF
350
2E
  3
WRITTEN_BY_EZDXF
350
196
  0
DICTIONARYVAR
  5
2E
330
2D
100
DictionaryVariables
280
0
  1
1.4.4 @ 2026-09-23T14:02:45.032195+00:00
  0
DICTIONARYVAR
  5
196
330
2D
100
DictionaryVariables
280
0
  1
1.4.4 @ 2026-09-23T14:02:45.190539+00:00
  0
ENDSEC
  0
EOF
