  0
SECTION
  2
HEADER
  9
$ACADVER
  1
AC1032
  9
$ACADMAINTVER
 90
4
  9
$DWGCODEPAGE
  3
ANSI_1252
  9
$LASTSAVEDBY
  1
ezdxf
  9
$REQUIREDVERSIONS
160
0
  9
$INSBASE
 10
0.0
 20
0.0
 30
0.0
  9
$EXTMIN
 10
1e+20
 20
1e+20
 30
1e+20
  9
$EXTMAX
 10
-1e+20
 20
-1e+20
 30
-1e+20
  9
$LIMMIN
 10
0.0
 20
0.0
  9
$LIMMAX
 10
420.0
 20
297.0
  9
$ORTHOMODE
 70
0
  9
$REGENMODE
 70
1
  9
$FILLMODE
 70
1
  9
$QTEXTMODE
 70
0
  9
$MIRRTEXT
 70
1
  9
$LTSCALE
 40
1.0
  9
$ATTMODE
 70
1
  9
$TEXTSIZE
 40
2.5
  9
$TRACEWID
 40
1.0
  9
$TEXTSTYLE
  7
Standard
  9
$CLAYER
  8
0
  9
$CELTYPE
  6
ByLayer
  9
$CECOLOR
 62
256
  9
$CELTSCALE
 40
1.0
  9
$DISPSILH
 70
0
  9
$DIMSCALE
 40
1.0
  9
$DIMASZ
 40
2.5
  9
$DIMEXO
 40
0.625
  9
$DIMDLI
 40
3.75
  9
$DIMRND
 40
0.0
  9
$DIMDLE
 40
0.0
  9
$DIMEXE
 40
1.25
  9
$DIMTP
 40
0.0
  9
$DIMTM
 40
0.0
  9
$DIMTXT
 40
2.5
  9
$DIMCEN
 40
2.5
  9
$DIMTSZ
 40
0.0
  9
$DIMTOL
 70
0
  9
$DIMLIM
 70
0
  9
$DIMTIH
 70
0
  9
$DIMTOH
 70
0
  9
$DIMSE1
 70
0
  9
$DIMSE2
 70
0
  9
$DIMTAD
 70
1
  9
$DIMZIN
 70
8
  9
$DIMBLK
  1

  9
$DIMASO
 70
1
  9
$DIMSHO
 70
1
  9
$DIMPOST
  1

  9
$DIMAPOST
  1

  9
$DIMALT
 70
0
  9
$DIMALTD
 70
3
  9
$DIMALTF
 40
0.03937007874
  9
$DIMLFAC
 40
1.0
  9
$DIMTOFL
 70
1
  9
$DIMTVP
 40
0.0
  9
$DIMTIX
 70
0
  9
$DIMSOXD
 70
0
  9
$DIMSAH
 70
0
  9
$DIMBLK1
  1

  9
$DIMBLK2
  1

  9
$DIMSTYLE
  2
ISO-25
  9
$DIMCLRD
 70
0
  9
$DIMCLRE
 70
0
  9
$DIMCLRT
 70
0
  9
$DIMTFAC
 40
1.0
  9
$DIMGAP
 40
0.625
  9
$DIMJUST
 70
0
  9
$DIMSD1
 70
0
  9
$DIMSD2
 70
0
  9
$DIMTOLJ
 70
0
  9
$DIMTZIN
 70
8
  9
$DIMALTZ
 70
0
  9
$DIMALTTZ
 70
0
  9
$DIMUPT
 70
0
  9
$DIMDEC
 70
2
  9
$DIMTDEC
 70
2
  9
$DIMALTU
 70
2
  9
$DIMALTTD
 70
3
  9
$DIMTXSTY
  7
Standard
  9
$DIMAUNIT
 70
0
  9
$DIMADEC
 70
0
  9
$DIMALTRND
 40
0.0
  9
$DIMAZIN
 70
0
  9
$DIMDSEP
 70
44
  9
$DIMATFIT
 70
3
  9
$DIMFRAC
 70
0
  9
$DIMLDRBLK
  1

  9
$DIMLUNIT
 70
2
  9
$DIMLWD
 70
-2
  9
$DIMLWE
 70
-2
  9
$DIMTMOVE
 70
0
  9
$DIMFXL
 40
1.0
  9
$DIMFXLON
 70
0
  9
$DIMJOGANG
 40
0.785398163397
  9
$DIMTFILL
 70
0
  9
$DIMTFILLCLR
 70
0
  9
$DIMARCSYM
 70
0
  9
$DIMLTYPE
  6

  9
$DIMLTEX1
  6

  9
$DIMLTEX2
  6

  9
$DIMTXTDIRECTION
 70
0
  9
$LUNITS
 70
2
  9
$LUPREC
 70
4
  9
$SKETCHINC
 40
1.0
  9
$FILLETRAD
 40
10.0
  9
$AUNITS
 70
0
  9
$AUPREC
 70
2
  9
$MENU
  1
.
  9
$ELEVATION
 40
0.0
  9
$PELEVATION
 40
0.0
  9
$THICKNESS
 40
0.0
  9
$LIMCHECK
 70
0
  9
$CHAMFERA
 40
0.0
  9
$CHAMFERB
 40
0.0
  9
$CHAMFERC
 40
0.0
  9
$CHAMFERD
 40
0.0
  9
$SKPOLY
 70
0
  9
$TDCREATE
 40
2461307.876898148
  9
$TDUCREATE
 40
2458532.153996898
  9
$TDUPDATE
 40
2461307.876909722
  9
$TDUUPDATE
 40
2458532.1544311
  9
$TDINDWG
 40
0.0
  9
$TDUSRTIMER
 40
0.0
  9
$USRTIMER
 70
1
  9
$ANGBASE
 50
0.0
  9
$ANGDIR
 70
0
  9
$PDMODE
 70
0
  9
$PDSIZE
 40
0.0
  9
$PLINEWID
 40
0.0
  9
$SPLFRAME
 70
0
  9
$SPLINETYPE
 70
6
  9
$SPLINESEGS
 70
8
  9
$HANDSEED
  5
73
  9
$SURFTAB1
 70
6
  9
$SURFTAB2
 70
6
  9
$SURFTYPE
 70
6
  9
$SURFU
 70
6
  9
$SURFV
 70
6
  9
$UCSBASE
  2

  9
$UCSNAME
  2

  9
$UCSORG
 10
0.0
 20
0.0
 30
0.0
  9
$UCSXDIR
 10
1.0
 20
0.0
 30
0.0
  9
$UCSYDIR
 10
0.0
 20
1.0
 30
0.0
  9
$UCSORTHOREF
  2

  9
$UCSORTHOVIEW
 70
0
  9
$UCSORGTOP
 10
0.0
 20
0.0
 30
0.0
  9
$UCSORGBOTTOM
 10
0.0
 20
0.0
 30
0.0
  9
$UCSORGLEFT
 10
0.0
 20
0.0
 30
0.0
  9
$UCSORGRIGHT
 10
0.0
 20
0.0
 30
0.0
  9
$UCSORGFRONT
 10
0.0
 20
0.0
 30
0.0
  9
$UCSORGBACK
 10
0.0
 20
0.0
 30
0.0
  9
$PUCSBASE
  2

  9
$PUCSNAME
  2

  9
$PUCSORG
 10
0.0
 20
0.0
 30
0.0
  9
$PUCSXDIR
 10
1.0
 20
0.0
 30
0.0
  9
$PUCSYDIR
 10
0.0
 20
1.0
 30
0.0
  9
$PUCSORTHOREF
  2

  9
$PUCSORTHOVIEW
 70
0
  9
$PUCSORGTOP
 10
0.0
 20
0.0
 30
0.0
  9
$PUCSORGBOTTOM
 10
0.0
 20
0.0
 30
0.0
  9
$PUCSORGLEFT
 10
0.0
 20
0.0
 30
0.0
  9
$PUCSORGRIGHT
 10
0.0
 20
0.0
 30
0.0
  9
$PUCSORGFRONT
 10
0.0
 20
0.0
 30
0.0
  9
$PUCSORGBACK
 10
0.0
 20
0.0
 30
0.0
  9
$USERI1
 70
0
  9
$USERI2
 70
0
  9
$USERI3
 70
0
  9
$USERI4
 70
0
  9
$USERI5
 70
0
  9
$USERR1
 40
0.0
  9
$USERR2
 40
0.0
  9
$USERR3
 40
0.0
  9
$USERR4
 40
0.0
  9
$USERR5
 40
0.0
  9
$WORLDVIEW
 70
1
  9
$SHADEDGE
 70
3
  9
$SHADEDIF
 70
70
  9
$TILEMODE
 70
1
  9
$MAXACTVP
 70
64
  9
$PINSBASE
 10
0.0
 20
0.0
 30
0.0
  9
$PLIMCHECK
 70
0
  9
$PEXTMIN
 10
1e+20
 20
1e+20
 30
1e+20
  9
$PEXTMAX
 10
-1e+20
 20
-1e+20
 30
-1e+20
  9
$PLIMMIN
 10
0.0
 20
0.0
  9
$PLIMMAX
 10
420.0
 20
297.0
  9
$UNITMODE
 70
0
  9
$VISRETAIN
 70
1
  9
$PLINEGEN
 70
0
  9
$PSLTSCALE
 70
1
  9
$TREEDEPTH
 70
3020
  9
$CMLSTYLE
  2
Standard
  9
$CMLJUST
 70
0
  9
$CMLSCALE
 40
20.0
  9
$PROXYGRAPHICS
 70
1
  9
$MEASUREMENT
 70
1
  9
$CELWEIGHT
370
-1
  9
$ENDCAPS
280
0
  9
$JOINSTYLE
280
0
  9
$LWDISPLAY
290
0
  9
$INSUNITS
 70
4
  9
$HYPERLINKBASE
  1

  9
$STYLESHEET
  1

  9
$XEDIT
290
1
  9
$CEPSNTYPE
380
0
  9
$PSTYLEMODE
290
1
  9
$FINGERPRINTGUID
  2
{9022993C-AE6C-4EAC-8EEE-E97848B206B7}
  9
$VERSIONGUID
  2
{2588460D-9A29-40FC-A848-253C55F28D53}
  9
$EXTNAMES
290
1
  9
$PSVPSCALE
 40
0.0
  9
$OLESTARTUP
290
0
  9
$SORTENTS
280
127
  9
$INDEXCTL
280
0
  9
$HIDETEXT
280
1
  9
$XCLIPFRAME
280
1
  9
$HALOGAP
280
0
  9
$OBSCOLOR
 70
257
  9
$OBSLTYPE
280
0
  9
$INTERSECTIONDISPLAY
280
0
  9
$INTERSECTIONCOLOR
 70
257
  9
$DIMASSOC
280
2
  9
$PROJECTNAME
  1

  9
$CAMERADISPLAY
290
0
  9
$LENSLENGTH
 40
50.0
  9
$CAMERAHEIGHT
 40
0.0
  9
$STEPSPERSEC
 40
24.0
  9
$STEPSIZE
 40
100.0
  9
$3DDWFPREC
 40
2.0
  9
$PSOLWIDTH
 40
0.005
  9
$PSOLHEIGHT
 40
0.08
  9
$LOFTANG1
 40
1.570796326795
  9
$LOFTANG2
 40
1.570796326795
  9
$LOFTMAG1
 40
0.0
  9
$LOFTMAG2
 40
0.0
  9
$LOFTPARAM
 70
7
  9
$LOFTNORMALS
280
1
  9
$LATITUDE
 40
37.795
  9
$LONGITUDE
 40
-122.394
  9
$NORTHDIRECTION
 40
0.0
  9
$TIMEZONE
 70
-8000
  9
$LIGHTGLYPHDISPLAY
280
1
  9
$TILEMODELIGHTSYNCH
280
1
  9
$CMATERIAL
347
20
  9
$SOLIDHIST
280
0
  9
$SHOWHIST
280
1
  9
$DWFFRAME
280
2
  9
$DGNFRAME
280
2
  9
$REALWORLDSCALE
290
1
  9
$INTERFERECOLOR
 62
256
  9
$CSHADOW
280
0
  9
$SHADOWPLANELOCATION
 40
0.0
  0
ENDSEC
  0
SECTION
  2
CLASSES
  0
CLASS
  1
ACDBDICTIONARYWDFLT
  2
AcDbDictionaryWithDefault
  3
ObjectDBX Classes
 90
0
 91
0
280
0
281
0
  0
CLASS
  1
SUN
  2
AcDbSun
  3
SCENEOE
 90
1153
 91
0
280
0
281
0
  0
CLASS
  1
VISUALSTYLE
  2
AcDbVisualStyle
  3
ObjectDBX Classes
 90
4095
 91
0
280
0
281
0
  0
CLASS
  1
MATERIAL
  2
AcDbMaterial
  3
ObjectDBX Classes
 90
1153
 91
0
280
0
281
0
  0
CLASS
  1
SCALE
  2
AcDbScale
  3
ObjectDBX Classes
 90
1153
 91
0
280
0
281
0
  0
CLASS
  1
TABLESTYLE
  2
AcDbTableStyle
  3
ObjectDBX Classes
 90
4095
 91
0
280
0
281
0
  0
CLASS
  1
MLEADERSTYLE
  2
AcDbMLeaderStyle
  3
ACDB_MLEADERSTYLE_CLASS
 90
4095
 91
0
280
0
281
0
  0
CLASS
  1
DICTIONARYVAR
  2
AcDbDictionaryVar
  3
ObjectDBX Classes
 90
0
 91
0
280
0
281
0
  0
CLASS
  1
CELLSTYLEMAP
  2
AcDbCellStyleMap
  3
ObjectDBX Classes
 90
1152
 91
0
280
0
281
0
  0
CLASS
  1
MENTALRAYRENDERSETTINGS
  2
AcDbMentalRayRenderSettings
  3
SCENEOE
 90
1024
 91
0
280
0
281
0
  0
CLASS
  1
ACDBDETAILVIEWSTYLE
  2
AcDbDetailViewStyle
  3
ObjectDBX Classes
 90
1025
 91
0
280
0
281
0
  0
CLASS
  1
ACDBSECTIONVIEWSTYLE
  2
AcDbSectionViewStyle
  3
ObjectDBX Classes
 90
1025
 91
0
280
0
281
0
  0
CLASS
  1
RASTERVARIABLES
  2
AcDbRasterVariables
  3
ISM
 90
0
 91
0
280
0
281
0
  0
CLASS
  1
LAYOUT
  2
AcDbLayout
  3
ObjectDBX Classes
 90
0
 91
0
280
0
281
0
  0
CLASS
  1
ACDBPLACEHOLDER
  2
AcDbPlaceHolder
  3
ObjectDBX Classes
 90
0
 91
0
280
0
281
0
  0
ENDSEC
  0
SECTION
  2
TABLES
  0
TABLE
  2
VPORT
  5
8
330
0
100
AcDbSymbolTable
 70
1
  0
VPORT
  5
23
330
8
100
AcDbSymbolTableRecord
100
AcDbViewportTableRecord
  2
*Active
 70
0
 10
0.0
 20
0.0
 11
1.0
 21
1.0
 12
0.0
 22
0.0
 13
0.0
 23
0.0
 14
0.5
 24
0.5
 15
0.5
 25
0.5
 16
0.0
 26
0.0
 36
1.0
 17
0.0
 27
0.0
 37
0.0
 40
1000.0
 41
1.34
 42
50.0
 43
0.0
 44
0.0
 50
0.0
 51
0.0
 71
0
 72
1000
 73
1
 74
3
 75
0
 76
0
 77
0
 78
0
281
0
 65
0
146
0.0
  0
ENDTAB
  0
TABLE
  2
LTYPE
  5
2
330
0
100
AcDbSymbolTable
 70
3
  0
LTYPE
  5
24
330
2
100
AcDbSymbolTableRecord
100
AcDbLinetypeTableRecord
  2
ByBlock
 70
0
  3

 72
65
 73
0
 40
0.0
  0
LTYPE
  5
25
330
2
100
AcDbSymbolTableRecord
100
AcDbLinetypeTableRecord
  2
ByLayer
 70
0
  3

 72
65
 73
0
 40
0.0
  0
LTYPE
  5
26
330
2
100
AcDbSymbolTableRecord
100
AcDbLinetypeTableRecord
  2
Continuous
 70
0
  3

 72
65
 73
0
 40
0.0
  0
ENDTAB
  0
TABLE
  2
LAYER
  5
1
330
0
100
AcDbSymbolTable
 70
2
  0
LAYER
  5
27
330
1
100
AcDbSymbolTableRecord
100
AcDbLayerTableRecord
  2
0
 70
0
 62
7
  6
Continuous
370
-3
390
13
347
21
  0
LAYER
  5
28
330
1
100
AcDbSymbolTableRecord
100
AcDbLayerTableRecord
  2
Defpoints
 70
0
 62
7
  6
Continuous
290
0
370
-3
390
13
347
21
  0
ENDTAB
  0
TABLE
  2
STYLE
  5
5
330
0
100
AcDbSymbolTable
 70
2
  0
STYLE
  5
29
330
5
100
AcDbSymbolTableRecord
100
AcDbTextStyleTableRecord
  2
Standard
 70
0
 40
0.0
 41
1.0
 50
0.0
 71
0
 42
2.5
  3
txt
  4

  0
STYLE
  5
6F
330
5
100
AcDbSymbolTableRecord
100
AcDbTextStyleTableRecord
  2
WD_IEC
 70
0
 40
0.0
 41
1.0
 50
0.0
 71
0
 42
5.0
  3
isocp2.shx
  4

  0
ENDTAB
  0
TABLE
  2
VIEW
  5
7
330
0
100
AcDbSymbolTable
 70
0
  0
ENDTAB
  0
TABLE
  2
UCS
  5
6
330
0
100
AcDbSymbolTable
 70
0
  0
ENDTAB
  0
TABLE
  2
APPID
  5
3
330
0
100
AcDbSymbolTable
 70
3
  0
APPID
  5
2A
330
3
100
AcDbSymbolTableRecord
100
AcDbRegAppTableRecord
  2
ACAD
 70
0
  0
APPID
  5
70
330
3
100
AcDbSymbolTableRecord
100
AcDbRegAppTableRecord
  2
HATCHBACKGROUNDCOLOR
 70
0
  0
APPID
  5
71
330
3
100
AcDbSymbolTableRecord
100
AcDbRegAppTableRecord
  2
EZDXF
 70
0
  0
ENDTAB
  0
TABLE
  2
DIMSTYLE
  5
4
330
0
100
AcDbSymbolTable
 70
1
100
AcDbDimStyleTable
  0
DIMSTYLE
105
2B
330
4
100
AcDbSymbolTableRecord
100
AcDbDimStyleTableRecord
  2
Standard
 70
0
 40
1.0
 41
2.5
 42
0.625
 43
3.75
 44
1.25
 45
0.0
 46
0.0
 47
0.0
 48
0.0
 49
2.5
140
2.5
141
2.5
142
0.0
143
0.03937007874
144
1.0
145
0.0
146
1.0
147
0.625
148
0.0
 69
0
 70
0
 71
0
 72
0
 73
0
 74
0
 75
0
 76
0
 77
1
 78
8
 79
3
170
0
171
3
172
1
173
0
174
0
175
0
176
0
177
0
178
0
179
2
271
2
272
2
273
2
274
3
275
0
276
0
277
2
278
44
279
0
280
0
281
0
282
0
283
0
284
8
285
0
286
0
288
0
289
3
290
0
371
-2
372
-2
  0
ENDTAB
  0
TABLE
  2
BLOCK_RECORD
  5
9
330
0
100
AcDbSymbolTable
 70
3
  0
BLOCK_RECORD
  5
17
330
9
100
AcDbSymbolTableRecord
100
AcDbBlockTableRecord
  2
*Model_Space
340
1A
 70
0
280
1
281
0
  0
BLOCK_RECORD
  5
1B
330
9
100
AcDbSymbolTableRecord
100
AcDbBlockTableRecord
  2
*Paper_Space
340
1E
 70
0
280
1
281
0
  0
BLOCK_RECORD
  5
33
330
9
100
AcDbSymbolTableRecord
100
AcDbBlockTableRecord
  2
*U204
340
0
 70
0
280
1
281
0
  0
ENDTAB
  0
ENDSEC
  0
SECTION
  2
BLOCKS
  0
BLOCK
  5
18
330
17
100
AcDbEntity
  8
0
100
AcDbBlockBegin
  2
*Model_Space
 70
0
 10
0.0
 20
0.0
 30
0.0
  3
*Model_Space
  1

  0
ENDBLK
  5
19
330
17
100
AcDbEntity
  8
0
100
AcDbBlockEnd
  0
BLOCK
  5
1C
330
1B
100
AcDbEntity
  8
0
100
AcDbBlockBegin
  2
*Paper_Space
 70
0
 10
0.0
 20
0.0
 30
0.0
  3
*Paper_Space
  1

  0
ENDBLK
  5
1D
330
1B
100
AcDbEntity
  8
0
100
AcDbBlockEnd
  0
BLOCK
  5
34
330
33
100
AcDbEntity
  8
0
100
AcDbBlockBegin
  2
*U204
 70
3
 10
0.0
 20
0.0
 30
0.0
  3
*U204
  1

  0
ATTDEF
  5
36
330
33
100
AcDbEntity
  8
Defpoints
  6
ByBlock
 62
8
370
9
 60
1
100
AcDbText
 10
-9.45000000139e-05
 20
-12.50909090909101
 30
0.0
 40
0.0001
  1
fmt
  7
WD_IEC
 41
0.9
 72
1
 11
-1.39e-14
 21
-12.50904090909101
 31
0.0
100
AcDbAttributeDefinition
  3
Author
  2
AUTHOR
 70
15
 74
2
280
1
 71
1
 72
0
 11
-1.39e-14
 21
-12.50904090909101
 31
0.0
  0
ATTDEF
  5
37
330
33
100
AcDbEntity
  8
Defpoints
  6
ByBlock
 62
8
370
9
 60
1
100
AcDbText
 10
-0.0003575000000135
 20
-12.50909090909101
 30
0.0
 40
0.0001
  1
IDEC
  7
WD_IEC
 41
0.9
 72
1
 11
-0.0002450000000135
 21
-12.50904090909101
 31
0.0
100
AcDbAttributeDefinition
  3
Origin
  2
ORIGIN
 70
13
 74
2
280
1
 71
1
 72
0
 11
-0.0002450000000135
 21
-12.50904090909101
 31
0.0
  0
ATTDEF
  5
38
330
33
100
AcDbEntity
  8
Defpoints
  6
ByBlock
 62
8
370
9
 60
1
100
AcDbText
 10
-0.0004070000000135
 20
-12.50909090909101
 30
0.0
 40
0.0001
  1
####
  7
WD_IEC
 41
0.9
 72
1
 11
-0.0002450000000135
 21
-12.50904090909101
 31
0.0
100
AcDbAttributeDefinition
  3
Type
  2
TYPE
 70
13
 74
2
280
1
 71
1
 72
0
 11
-0.0002450000000135
 21
-12.50904090909101
 31
0.0
  0
LWPOLYLINE
  5
39
330
33
100
AcDbEntity
  8
0
  6
ByBlock
 62
150
370
9
100
AcDbPolyline
 90
4
 70
1
 10
-11.50000000000002
 20
1.999999999999995
 10
-11.50000000000002
 20
-3.6e-15
 10
11.49999999999995
 20
-3.6e-15
 10
11.49999999999995
 20
1.999999999999995
  0
LWPOLYLINE
  5
3A
330
33
100
AcDbEntity
  8
0
  6
ByBlock
 62
0
370
18
100
AcDbPolyline
 90
4
 70
1
 10
10.94036697247698
 20
11.00917431192659
 10
-10.94036697247703
 20
11.00917431192661
 10
-10.94036697247703
 20
6.954128440366981
 10
10.94036697247698
 20
6.954128440366967
  0
CIRCLE
  5
3B
330
33
100
AcDbEntity
  8
0
  6
ByBlock
 62
1
370
18
 60
1
100
AcDbCircle
 10
-5.68e-14
 20
1.2612e-12
 30
0.0
 40
20.0
  0
CIRCLE
  5
3C
330
33
100
AcDbEntity
  8
0
  6
ByBlock
 62
150
370
9
 60
1
100
AcDbCircle
 10
-5.68e-14
 20
1.2612e-12
 30
0.0
 40
11.5
  0
LWPOLYLINE
  5
3D
330
33
100
AcDbEntity
  8
0
  6
ByBlock
 62
1
370
18
 60
1
100
AcDbPolyline
 90
6
 70
1
 10
0.5479409460158422
 20
-19.25723594311183
 42
0.0132056988361789
 10
-0.5479409460158992
 20
-19.25723594311184
 42
0.3913261706225688
 10
-1.034052317103657
 20
-19.73089360491536
 10
-1.046719124858896
 20
-19.97259069509022
 42
0.0261859215691867
 10
1.046719124858839
 20
-19.97259069509022
 10
1.0340523171036
 20
-19.73089360491534
 42
0.3913261706225604
  0
LWPOLYLINE
  5
3E
330
33
100
AcDbEntity
  8
0
  6
ByBlock
 62
1
370
18
 60
1
100
AcDbPolyline
 90
7
 70
1
 10
7.395819580462187
 20
15.86038627314263
 10
6.973201318721492
 20
14.95407848610598
 42
0.2216946626429397
 10
-6.973201318721576
 20
14.95407848610598
 10
-6.339273926110536
 20
13.59461680555101
 42
-0.2216946626429403
 10
6.33927392611045
 20
13.59461680555101
 10
5.916655664369756
 20
12.68830901851435
 10
10.77943980496157
 20
11.48329993909591
  0
HATCH
  5
3F
330
33
100
AcDbEntity
  8
0
  6
ByBlock
 62
1
370
18
 60
1
100
AcDbHatch
 10
0.0
 20
0.0
 30
0.0
210
0.0
220
0.0
230
1.0
  2
SOLID
 70
1
 71
0
 91
1
 92
7
 72
1
 73
1
 93
7
 10
6.33927392611045
 20
13.59461680555101
 42
0.0
 10
5.916655664369756
 20
12.68830901851435
 42
0.0
 10
10.77943980496157
 20
11.48329993909591
 42
0.0
 10
7.395819580462187
 20
15.86038627314263
 42
0.0
 10
6.973201318721492
 20
14.95407848610598
 42
0.2216946626429397
 10
-6.973201318721576
 20
14.95407848610598
 42
0.0
 10
-6.339273926110536
 20
13.59461680555101
 42
-0.2216946626429403
 97
0
 75
0
 76
1
 47
0.1029004920899239
 98
1
 10
6.891451904386826
 20
13.87145160127214
450
0
451
0
460
0.0
461
0.0
452
0
462
0.0
453
0
470

  0
HATCH
  5
40
330
33
100
AcDbEntity
  8
0
  6
ByBlock
 62
1
370
18
 60
1
100
AcDbHatch
 10
0.0
 20
0.0
 30
0.0
210
0.0
220
0.0
230
1.0
  2
SOLID
 70
1
 71
0
 91
1
 92
7
 72
1
 73
1
 93
7
 10
-14.94292047137496
 20
-1.307336141213535
 42
0.0
 10
-13.9467257732832
 20
-1.22018039846588
 42
0.0
 10
-15.33454936901184
 20
3.593618740115953
 42
0.0
 10
-17.43340721660429
 20
-1.5252254980827
 42
0.0
 10
-16.43721251851256
 20
-1.438069755335045
 42
0.2216946626429397
 10
-9.464011199791033
 20
-13.51600873076703
 42
0.0
 10
-8.603646545264468
 20
-12.28728066433356
 42
-0.2216946626429403
 97
0
 75
0
 76
1
 47
0.1029004920899239
 98
1
 10
-15.45875542625912
 20
-0.9675533824764206
450
0
451
0
460
0.0
461
0.0
452
0
462
0.0
453
0
470

  0
LWPOLYLINE
  5
41
330
33
100
AcDbEntity
  8
0
  6
ByBlock
 62
1
370
18
 60
1
100
AcDbPolyline
 90
7
 70
1
 10
-17.43340721660429
 20
-1.5252254980827
 10
-16.43721251851256
 20
-1.438069755335045
 42
0.2216946626429397
 10
-9.464011199791033
 20
-13.51600873076703
 10
-8.603646545264468
 20
-12.28728066433356
 42
-0.2216946626429403
 10
-14.94292047137496
 20
-1.307336141213535
 10
-13.9467257732832
 20
-1.22018039846588
 10
-15.33454936901184
 20
3.593618740115953
  0
HATCH
  5
42
330
33
100
AcDbEntity
  8
0
  6
ByBlock
 62
1
370
18
 60
1
100
AcDbHatch
 10
0.0
 20
0.0
 30
0.0
210
0.0
220
0.0
230
1.0
  2
SOLID
 70
1
 71
0
 91
1
 92
7
 72
1
 73
1
 93
7
 10
8.603646545266228
 20
-12.28728066433248
 42
0.0
 10
8.030070108915197
 20
-11.46812862004351
 42
0.0
 10
4.555109564051973
 20
-15.07691867920689
 42
0.0
 10
10.03758763614385
 20
-14.33516077505495
 42
0.0
 10
9.46401119979282
 20
-13.51600873076597
 42
0.2216946626429397
 10
16.43721251851436
 20
-1.43806975533398
 42
0.0
 10
14.94292047137675
 20
-1.307336141212483
 42
-0.2216946626429401
 97
0
 75
0
 76
1
 47
0.1029004920899239
 98
1
 10
8.56730352187401
 20
-12.90389821879074
450
0
451
0
460
0.0
461
0.0
452
0
462
0.0
453
0
470

  0
LWPOLYLINE
  5
43
330
33
100
AcDbEntity
  8
0
  6
ByBlock
 62
1
370
18
 60
1
100
AcDbPolyline
 90
7
 70
1
 10
10.03758763614385
 20
-14.33516077505495
 10
9.46401119979282
 20
-13.51600873076597
 42
0.2216946626429397
 10
16.43721251851436
 20
-1.43806975533398
 10
14.94292047137675
 20
-1.307336141212483
 42
-0.2216946626429403
 10
8.603646545266228
 20
-12.28728066433249
 10
8.030070108915197
 20
-11.46812862004349
 10
4.555109564052003
 20
-15.07691867920689
  0
HATCH
  5
44
330
33
100
AcDbEntity
  8
0
  6
ByBlock
 62
1
370
18
 60
1
100
AcDbHatch
 10
0.0
 20
0.0
 30
0.0
210
0.0
220
0.0
230
1.0
  2
SOLID
 70
1
 71
0
 91
1
 92
7
 72
1
 73
1
 93
6
 10
1.046719124858839
 20
-19.97259069509022
 42
0.0
 10
1.0340523171036
 20
-19.73089360491534
 42
0.3913261706225604
 10
0.5479409460158422
 20
-19.25723594311183
 42
0.0132056988361789
 10
-0.5479409460158992
 20
-19.25723594311184
 42
0.3913261706225688
 10
-1.034052317103657
 20
-19.73089360491536
 42
0.0
 10
-1.046719124858896
 20
-19.97259069509022
 42
0.0261859215691867
 97
0
 75
0
 76
1
 47
0.0345671146397448
 98
1
 10
0.016621881982303
 20
-19.72738540543685
450
0
451
0
460
0.0
461
0.0
452
0
462
0.0
453
0
470

  0
HATCH
  5
45
330
33
100
AcDbEntity
  8
0
  6
ByBlock
 62
1
370
18
 60
1
100
AcDbHatch
 10
0.0
 20
0.0
 30
0.0
210
0.0
220
0.0
230
1.0
  2
SOLID
 70
1
 71
0
 91
1
 92
7
 72
1
 73
1
 93
6
 10
7.167358990905968
 20
-18.67160852994276
 42
0.0
 10
7.080623632494677
 20
-18.44565519622323
 42
0.3913261706225604
 10
6.471935978363318
 20
-18.14539666529689
 42
0.0132056988361789
 10
5.42969036385665
 20
-18.48404279376248
 42
0.3913261706225688
 10
5.113739243751665
 20
-19.08473467433887
 42
0.0
 10
5.176380902050396
 20
-19.3185165257801
 42
0.0261859215691867
 97
0
 75
0
 76
1
 47
0.0345671146397448
 98
1
 10
6.111905694037061
 20
-18.75672199529553
450
0
451
0
460
0.0
461
0.0
452
0
462
0.0
453
0
470

  0
LWPOLYLINE
  5
46
330
33
100
AcDbEntity
  8
0
  6
ByBlock
 62
1
370
18
 60
1
100
AcDbPolyline
 90
6
 70
1
 10
6.471935978363318
 20
-18.14539666529689
 42
0.0132056988361789
 10
5.42969036385665
 20
-18.48404279376248
 42
0.3913261706225688
 10
5.113739243751665
 20
-19.08473467433887
 10
5.176380902050396
 20
-19.3185165257801
 42
0.0261859215691867
 10
7.167358990905968
 20
-18.67160852994278
 10
7.080623632494677
 20
-18.44565519622323
 42
0.3913261706225604
  0
HATCH
  5
47
330
33
100
AcDbEntity
  8
0
  6
ByBlock
 62
1
370
18
 60
1
100
AcDbHatch
 10
0.0
 20
0.0
 30
0.0
210
0.0
220
0.0
230
1.0
  2
SOLID
 70
1
 71
0
 91
1
 92
7
 72
1
 73
1
 93
6
 10
12.58640782099668
 20
-15.54291922913816
 42
0.0
 10
12.43409417313144
 20
-15.35482753848786
 42
0.3913261706225604
 10
11.76241282451913
 20
-15.25735953546997
 42
0.0132056988361789
 10
10.87582575003763
 20
-15.90150274986062
 42
0.3913261706225688
 10
10.76096237791218
 20
-16.57042894267263
 42
0.0
 10
10.89278070030049
 20
-16.77341135890722
 42
0.0261859215691867
 97
0
 75
0
 76
1
 47
0.0345671146397448
 98
1
 10
11.60891359260848
 20
-15.95001995048792
450
0
451
0
460
0.0
461
0.0
452
0
462
0.0
453
0
470

  0
LWPOLYLINE
  5
48
330
33
100
AcDbEntity
  8
0
  6
ByBlock
 62
1
370
18
 60
1
100
AcDbPolyline
 90
6
 70
1
 10
11.76241282451913
 20
-15.25735953546997
 42
0.0132056988361789
 10
10.87582575003763
 20
-15.90150274986062
 42
0.3913261706225688
 10
10.76096237791218
 20
-16.57042894267263
 10
10.89278070030049
 20
-16.77341135890722
 42
0.0261859215691867
 10
12.58640782099674
 20
-15.54291922913817
 10
12.43409417313144
 20
-15.35482753848786
 42
0.3913261706225604
  0
HATCH
  5
49
330
33
100
AcDbEntity
  8
0
  6
ByBlock
 62
1
370
18
 60
1
100
AcDbHatch
 10
0.0
 20
0.0
 30
0.0
210
0.0
220
0.0
230
1.0
  2
SOLID
 70
1
 71
0
 91
1
 92
7
 72
1
 73
1
 93
6
 10
16.7734113589084
 20
-10.89278070029929
 42
0.0
 10
16.57042894267381
 20
-10.76096237791096
 42
0.3913261706225604
 10
15.90150274986185
 20
-10.87582575003642
 42
0.0132056988361789
 10
15.25735953547122
 20
-11.76241282451789
 42
0.3913261706225688
 10
15.35482753848909
 20
-12.43409417313023
 42
0.0
 10
15.5429192291394
 20
-12.58640782099548
 42
0.0261859215691867
 97
0
 75
0
 76
1
 47
0.0345671146397448
 98
1
 10
15.96956014467828
 20
-11.58201882260283
450
0
451
0
460
0.0
461
0.0
452
0
462
0.0
453
0
470

  0
LWPOLYLINE
  5
4A
330
33
100
AcDbEntity
  8
0
  6
ByBlock
 62
1
370
18
 60
1
100
AcDbPolyline
 90
6
 70
1
 10
15.90150274986185
 20
-10.87582575003642
 42
0.0132056988361789
 10
15.25735953547122
 20
-11.76241282451789
 42
0.3913261706225688
 10
15.35482753848909
 20
-12.43409417313023
 10
15.5429192291394
 20
-12.58640782099548
 42
0.0261859215691867
 10
16.77341135890846
 20
-10.89278070029929
 10
16.57042894267381
 20
-10.76096237791096
 42
0.3913261706225604
  0
HATCH
  5
4B
330
33
100
AcDbEntity
  8
0
  6
ByBlock
 62
1
370
18
 60
1
100
AcDbHatch
 10
0.0
 20
0.0
 30
0.0
210
0.0
220
0.0
230
1.0
  2
SOLID
 70
1
 71
0
 91
1
 92
7
 72
1
 73
1
 93
6
 10
19.31851652578133
 20
-5.176380902049157
 42
0.0
 10
19.08473467434005
 20
-5.113739243750425
 42
0.3913261706225604
 10
18.48404279376372
 20
-5.429690363855409
 42
0.0132056988361789
 10
18.14539666529812
 20
-6.471935978362078
 42
0.3913261706225688
 10
18.44565519622445
 20
-7.080623632493451
 42
0.0
 10
18.67160852994398
 20
-7.167358990904741
 42
0.0261859215691867
 97
0
 75
0
 76
1
 47
0.0345671146397448
 98
1
 10
18.76699488331884
 20
-6.080288995691031
450
0
451
0
460
0.0
461
0.0
452
0
462
0.0
453
0
470

  0
LWPOLYLINE
  5
4C
330
33
100
AcDbEntity
  8
0
  6
ByBlock
 62
1
370
18
 60
1
100
AcDbPolyline
 90
6
 70
1
 10
18.48404279376372
 20
-5.429690363855409
 42
0.0132056988361789
 10
18.14539666529812
 20
-6.471935978362078
 42
0.3913261706225688
 10
18.44565519622445
 20
-7.080623632493451
 10
18.67160852994398
 20
-7.167358990904741
 42
0.0261859215691867
 10
19.31851652578133
 20
-5.17638090204917
 10
19.08473467434005
 20
-5.113739243750425
 42
0.3913261706225604
  0
HATCH
  5
4D
330
33
100
AcDbEntity
  8
0
  6
ByBlock
 62
1
370
18
 60
1
100
AcDbHatch
 10
0.0
 20
0.0
 30
0.0
210
0.0
220
0.0
230
1.0
  2
SOLID
 70
1
 71
0
 91
1
 92
7
 72
1
 73
1
 93
6
 10
19.97259069509143
 20
1.046719124860127
 42
0.0
 10
19.73089360491657
 20
1.03405231710489
 42
0.3913261706225604
 10
19.25723594311303
 20
0.547940946017146
 42
0.0132056988361789
 10
19.25723594311303
 20
-0.5479409460146166
 42
0.3913261706225688
 10
19.73089360491657
 20
-1.034052317102374
 42
0.0
 10
19.97259069509143
 20
-1.046719124857612
 42
0.0261859215691867
 97
0
 75
0
 76
1
 47
0.0345671146397448
 98
1
 10
19.72738540543806
 20
0.0166218819836068
450
0
451
0
460
0.0
461
0.0
452
0
462
0.0
453
0
470

  0
LWPOLYLINE
  5
4E
330
33
100
AcDbEntity
  8
0
  6
ByBlock
 62
1
370
18
 60
1
100
AcDbPolyline
 90
6
 70
1
 10
19.25723594311303
 20
0.547940946017146
 42
0.0132056988361789
 10
19.25723594311303
 20
-0.5479409460146166
 42
0.3913261706225688
 10
19.73089360491657
 20
-1.034052317102374
 10
19.97259069509143
 20
-1.046719124857612
 42
0.0261859215691867
 10
19.97259069509143
 20
1.046719124860127
 10
19.73089360491657
 20
1.03405231710489
 42
0.3913261706225604
  0
HATCH
  5
4F
330
33
100
AcDbEntity
  8
0
  6
ByBlock
 62
1
370
18
 60
1
100
AcDbHatch
 10
0.0
 20
0.0
 30
0.0
210
0.0
220
0.0
230
1.0
  2
SOLID
 70
1
 71
0
 91
1
 92
7
 72
1
 73
1
 93
6
 10
18.67160852994398
 20
7.167358990907242
 42
0.0
 10
18.44565519622445
 20
7.080623632495951
 42
0.3913261706225604
 10
18.14539666529812
 20
6.471935978364593
 42
0.0132056988361789
 10
18.48404279376372
 20
5.42969036385794
 42
0.3913261706225688
 10
19.08473467434011
 20
5.113739243752941
 42
0.0
 10
19.31851652578133
 20
5.176380902051671
 42
0.0261859215691867
 97
0
 75
0
 76
1
 47
0.0345671146397448
 98
1
 10
18.75672199529676
 20
6.111905694038337
450
0
451
0
460
0.0
461
0.0
452
0
462
0.0
453
0
470

  0
LWPOLYLINE
  5
50
330
33
100
AcDbEntity
  8
0
  6
ByBlock
 62
1
370
18
 60
1
100
AcDbPolyline
 90
6
 70
1
 10
18.14539666529812
 20
6.471935978364593
 42
0.0132056988361789
 10
18.48404279376372
 20
5.42969036385794
 42
0.3913261706225688
 10
19.08473467434011
 20
5.113739243752941
 10
19.31851652578133
 20
5.176380902051671
 42
0.0261859215691867
 10
18.67160852994398
 20
7.167358990907242
 10
18.44565519622445
 20
7.080623632495951
 42
0.3913261706225604
  0
HATCH
  5
51
330
33
100
AcDbEntity
  8
0
  6
ByBlock
 62
1
370
18
 60
1
100
AcDbHatch
 10
0.0
 20
0.0
 30
0.0
210
0.0
220
0.0
230
1.0
  2
SOLID
 70
1
 71
0
 91
1
 92
7
 72
1
 73
1
 93
6
 10
15.54291922913934
 20
12.58640782099799
 42
0.0
 10
15.35482753848909
 20
12.43409417313273
 42
0.3913261706225604
 10
15.25735953547117
 20
11.76241282452039
 42
0.0132056988361789
 10
15.90150274986185
 20
10.87582575003894
 42
0.3913261706225688
 10
16.57042894267381
 20
10.76096237791348
 42
0.0
 10
16.7734113589084
 20
10.89278070030181
 42
0.0261859215691867
 97
0
 75
0
 76
1
 47
0.0345671146397448
 98
1
 10
15.9500199504891
 20
11.60891359260976
450
0
451
0
460
0.0
461
0.0
452
0
462
0.0
453
0
470

  0
LWPOLYLINE
  5
52
330
33
100
AcDbEntity
  8
0
  6
ByBlock
 62
1
370
18
 60
1
100
AcDbPolyline
 90
6
 70
1
 10
15.25735953547117
 20
11.76241282452039
 42
0.0132056988361789
 10
15.90150274986185
 20
10.87582575003894
 42
0.3913261706225688
 10
16.57042894267381
 20
10.76096237791348
 10
16.7734113589084
 20
10.89278070030181
 42
0.0261859215691867
 10
15.54291922913934
 20
12.586407820998
 10
15.35482753848909
 20
12.43409417313273
 42
0.3913261706225604
  0
HATCH
  5
53
330
33
100
AcDbEntity
  8
0
  6
ByBlock
 62
1
370
18
 60
1
100
AcDbHatch
 10
0.0
 20
0.0
 30
0.0
210
0.0
220
0.0
230
1.0
  2
SOLID
 70
1
 71
0
 91
1
 92
7
 72
1
 73
1
 93
6
 10
10.89278070030049
 20
16.77341135890972
 42
0.0
 10
10.76096237791218
 20
16.57042894267513
 42
0.3913261706225604
 10
10.87582575003763
 20
15.90150274986314
 42
0.0132056988361789
 10
11.76241282451907
 20
15.2573595354725
 42
0.3913261706225688
 10
12.43409417313144
 20
15.35482753849039
 42
0.0
 10
12.58640782099668
 20
15.54291922914067
 42
0.0261859215691867
 97
0
 75
0
 76
1
 47
0.0345671146397448
 98
1
 10
11.58201882260404
 20
15.96956014467957
450
0
451
0
460
0.0
461
0.0
452
0
462
0.0
453
0
470

  0
LWPOLYLINE
  5
54
330
33
100
AcDbEntity
  8
0
  6
ByBlock
 62
1
370
18
 60
1
100
AcDbPolyline
 90
6
 70
1
 10
10.87582575003763
 20
15.90150274986314
 42
0.0132056988361789
 10
11.76241282451907
 20
15.2573595354725
 42
0.3913261706225688
 10
12.43409417313144
 20
15.35482753849039
 10
12.58640782099668
 20
15.54291922914067
 42
0.0261859215691867
 10
10.89278070030049
 20
16.77341135890973
 10
10.76096237791218
 20
16.57042894267513
 42
0.3913261706225604
  0
HATCH
  5
55
330
33
100
AcDbEntity
  8
0
  6
ByBlock
 62
1
370
18
 60
1
100
AcDbHatch
 10
0.0
 20
0.0
 30
0.0
210
0.0
220
0.0
230
1.0
  2
SOLID
 70
1
 71
0
 91
1
 92
7
 72
1
 73
1
 93
6
 10
5.176380902050368
 20
19.31851652578258
 42
0.0
 10
5.113739243751638
 20
19.08473467434134
 42
0.3913261706225604
 10
5.429690363856622
 20
18.48404279376496
 42
0.0132056988361789
 10
6.471935978363262
 20
18.1453966652994
 42
0.3913261706225688
 10
7.080623632494648
 20
18.44565519622574
 42
0.0
 10
7.167358990905936
 20
18.67160852994526
 42
0.0261859215691867
 97
0
 75
0
 76
1
 47
0.0345671146397448
 98
1
 10
6.080288995692227
 20
18.76699488332009
450
0
451
0
460
0.0
461
0.0
452
0
462
0.0
453
0
470

  0
LWPOLYLINE
  5
56
330
33
100
AcDbEntity
  8
0
  6
ByBlock
 62
1
370
18
 60
1
100
AcDbPolyline
 90
6
 70
1
 10
5.429690363856622
 20
18.48404279376496
 42
0.0132056988361789
 10
6.471935978363262
 20
18.1453966652994
 42
0.3913261706225688
 10
7.080623632494648
 20
18.44565519622574
 10
7.167358990905936
 20
18.67160852994526
 42
0.0261859215691867
 10
5.176380902050368
 20
19.31851652578259
 10
5.113739243751638
 20
19.08473467434134
 42
0.3913261706225604
  0
HATCH
  5
57
330
33
100
AcDbEntity
  8
0
  6
ByBlock
 62
1
370
18
 60
1
100
AcDbHatch
 10
0.0
 20
0.0
 30
0.0
210
0.0
220
0.0
230
1.0
  2
SOLID
 70
1
 71
0
 91
1
 92
7
 72
1
 73
1
 93
6
 10
-1.046719124858924
 20
19.9725906950927
 42
0.0
 10
-1.034052317103685
 20
19.73089360491783
 42
0.3913261706225604
 10
-0.5479409460159559
 20
19.25723594311432
 42
0.0132056988361789
 10
0.5479409460158138
 20
19.25723594311433
 42
0.3913261706225688
 10
1.034052317103572
 20
19.73089360491785
 42
0.0
 10
1.046719124858809
 20
19.97259069509272
 42
0.0261859215691867
 97
0
 75
0
 76
1
 47
0.0345671146397448
 98
1
 10
-0.0166218819824167
 20
19.72738540543934
450
0
451
0
460
0.0
461
0.0
452
0
462
0.0
453
0
470

  0
LWPOLYLINE
  5
58
330
33
100
AcDbEntity
  8
0
  6
ByBlock
 62
1
370
18
 60
1
100
AcDbPolyline
 90
6
 70
1
 10
-0.5479409460159559
 20
19.25723594311432
 42
0.0132056988361789
 10
0.5479409460158138
 20
19.25723594311433
 42
0.3913261706225688
 10
1.034052317103572
 20
19.73089360491785
 10
1.046719124858809
 20
19.97259069509272
 42
0.0261859215691867
 10
-1.046719124858924
 20
19.97259069509272
 10
-1.034052317103685
 20
19.73089360491783
 42
0.3913261706225604
  0
HATCH
  5
59
330
33
100
AcDbEntity
  8
0
  6
ByBlock
 62
1
370
18
 60
1
100
AcDbHatch
 10
0.0
 20
0.0
 30
0.0
210
0.0
220
0.0
230
1.0
  2
SOLID
 70
1
 71
0
 91
1
 92
7
 72
1
 73
1
 93
6
 10
-7.167358990906052
 20
18.67160852994526
 42
0.0
 10
-7.080623632494763
 20
18.44565519622574
 42
0.3913261706225604
 10
-6.471935978363402
 20
18.1453966652994
 42
0.0132056988361789
 10
-5.429690363856734
 20
18.48404279376499
 42
0.3913261706225688
 10
-5.113739243751751
 20
19.08473467434137
 42
0.0
 10
-5.176380902050481
 20
19.31851652578261
 42
0.0261859215691867
 97
0
 75
0
 76
1
 47
0.0345671146397448
 98
1
 10
-6.111905694037147
 20
18.75672199529803
450
0
451
0
460
0.0
461
0.0
452
0
462
0.0
453
0
470

  0
LWPOLYLINE
  5
5A
330
33
100
AcDbEntity
  8
0
  6
ByBlock
 62
1
370
18
 60
1
100
AcDbPolyline
 90
6
 70
1
 10
-6.471935978363402
 20
18.1453966652994
 42
0.0132056988361789
 10
-5.429690363856734
 20
18.48404279376499
 42
0.3913261706225688
 10
-5.113739243751751
 20
19.08473467434137
 10
-5.176380902050481
 20
19.31851652578261
 42
0.0261859215691867
 10
-7.167358990906052
 20
18.67160852994528
 10
-7.080623632494763
 20
18.44565519622574
 42
0.3913261706225604
  0
HATCH
  5
5B
330
33
100
AcDbEntity
  8
0
  6
ByBlock
 62
1
370
18
 60
1
100
AcDbHatch
 10
0.0
 20
0.0
 30
0.0
210
0.0
220
0.0
230
1.0
  2
SOLID
 70
1
 71
0
 91
1
 92
7
 72
1
 73
1
 93
6
 10
-12.5864078209968
 20
15.54291922914063
 42
0.0
 10
-12.43409417313155
 20
15.35482753849035
 42
0.3913261706225604
 10
-11.76241282451921
 20
15.25735953547245
 42
0.0132056988361789
 10
-10.87582575003775
 20
15.90150274986309
 42
0.3913261706225688
 10
-10.76096237791229
 20
16.5704289426751
 42
0.0
 10
-10.8927807003006
 20
16.77341135890969
 42
0.0261859215691867
 97
0
 75
0
 76
1
 47
0.0345671146397448
 98
1
 10
-11.60891359260857
 20
15.95001995049039
450
0
451
0
460
0.0
461
0.0
452
0
462
0.0
453
0
470

  0
LWPOLYLINE
  5
5C
330
33
100
AcDbEntity
  8
0
  6
ByBlock
 62
1
370
18
 60
1
100
AcDbPolyline
 90
6
 70
1
 10
-11.76241282451921
 20
15.25735953547245
 42
0.0132056988361789
 10
-10.87582575003775
 20
15.90150274986309
 42
0.3913261706225688
 10
-10.76096237791229
 20
16.5704289426751
 10
-10.8927807003006
 20
16.77341135890969
 42
0.0261859215691867
 10
-12.5864078209968
 20
15.54291922914065
 10
-12.43409417313155
 20
15.35482753849035
 42
0.3913261706225604
  0
HATCH
  5
5D
330
33
100
AcDbEntity
  8
0
  6
ByBlock
 62
1
370
18
 60
1
100
AcDbHatch
 10
0.0
 20
0.0
 30
0.0
210
0.0
220
0.0
230
1.0
  2
SOLID
 70
1
 71
0
 91
1
 92
7
 72
1
 73
1
 93
6
 10
-16.77341135890852
 20
10.89278070030178
 42
0.0
 10
-16.57042894267393
 20
10.76096237791345
 42
0.3913261706225604
 10
-15.90150274986193
 20
10.87582575003891
 42
0.0132056988361789
 10
-15.25735953547131
 20
11.76241282452038
 42
0.3913261706225688
 10
-15.3548275384892
 20
12.43409417313271
 42
0.0
 10
-15.54291922913948
 20
12.58640782099799
 42
0.0261859215691867
 97
0
 75
0
 76
1
 47
0.0345671146397448
 98
1
 10
-15.96956014467837
 20
11.58201882260532
450
0
451
0
460
0.0
461
0.0
452
0
462
0.0
453
0
470

  0
LWPOLYLINE
  5
5E
330
33
100
AcDbEntity
  8
0
  6
ByBlock
 62
1
370
18
 60
1
100
AcDbPolyline
 90
6
 70
1
 10
-15.90150274986193
 20
10.87582575003891
 42
0.0132056988361789
 10
-15.25735953547131
 20
11.76241282452038
 42
0.3913261706225688
 10
-15.3548275384892
 20
12.43409417313271
 10
-15.54291922913948
 20
12.58640782099799
 42
0.0261859215691867
 10
-16.77341135890854
 20
10.89278070030178
 10
-16.57042894267393
 20
10.76096237791345
 42
0.3913261706225604
  0
HATCH
  5
5F
330
33
100
AcDbEntity
  8
0
  6
ByBlock
 62
1
370
18
 60
1
100
AcDbHatch
 10
0.0
 20
0.0
 30
0.0
210
0.0
220
0.0
230
1.0
  2
SOLID
 70
1
 71
0
 91
1
 92
7
 72
1
 73
1
 93
6
 10
-19.31851652578139
 20
5.176380902051644
 42
0.0
 10
-19.08473467434017
 20
5.113739243752912
 42
0.3913261706225604
 10
-18.48404279376377
 20
5.429690363857896
 42
0.0132056988361789
 10
-18.14539666529821
 20
6.471935978364566
 42
0.3913261706225688
 10
-18.44565519622453
 20
7.080623632495938
 42
0.0
 10
-18.67160852994407
 20
7.167358990907228
 42
0.0261859215691867
 97
0
 75
0
 76
1
 47
0.0345671146397448
 98
1
 10
-18.7669948833189
 20
6.080288995693518
450
0
451
0
460
0.0
461
0.0
452
0
462
0.0
453
0
470

  0
LWPOLYLINE
  5
60
330
33
100
AcDbEntity
  8
0
  6
ByBlock
 62
1
370
18
 60
1
100
AcDbPolyline
 90
6
 70
1
 10
-18.48404279376377
 20
5.429690363857896
 42
0.0132056988361789
 10
-18.14539666529821
 20
6.471935978364566
 42
0.3913261706225688
 10
-18.44565519622453
 20
7.080623632495938
 10
-18.67160852994407
 20
7.167358990907228
 42
0.0261859215691867
 10
-19.31851652578142
 20
5.176380902051658
 10
-19.08473467434017
 20
5.113739243752912
 42
0.3913261706225604
  0
HATCH
  5
61
330
33
100
AcDbEntity
  8
0
  6
ByBlock
 62
1
370
18
 60
1
100
AcDbHatch
 10
0.0
 20
0.0
 30
0.0
210
0.0
220
0.0
230
1.0
  2
SOLID
 70
1
 71
0
 91
1
 92
7
 72
1
 73
1
 93
6
 10
-19.97259069509151
 20
-1.046719124857641
 42
0.0
 10
-19.73089360491666
 20
-1.034052317102402
 42
0.3913261706225604
 10
-19.25723594311314
 20
-0.5479409460146591
 42
0.0132056988361789
 10
-19.25723594311314
 20
0.5479409460171035
 42
0.3913261706225688
 10
-19.73089360491666
 20
1.034052317104862
 42
0.0
 10
-19.97259069509154
 20
1.046719124860099
 42
0.0261859215691867
 97
0
 75
0
 76
1
 47
0.0345671146397448
 98
1
 10
-19.72738540543817
 20
-0.0166218819811128
450
0
451
0
460
0.0
461
0.0
452
0
462
0.0
453
0
470

  0
LWPOLYLINE
  5
62
330
33
100
AcDbEntity
  8
0
  6
ByBlock
 62
1
370
18
 60
1
100
AcDbPolyline
 90
6
 70
1
 10
-19.25723594311314
 20
-0.5479409460146591
 42
0.0132056988361789
 10
-19.25723594311314
 20
0.5479409460171035
 42
0.3913261706225688
 10
-19.73089360491666
 20
1.034052317104862
 10
-19.97259069509154
 20
1.046719124860099
 42
0.0261859215691867
 10
-19.97259069509154
 20
-1.046719124857641
 10
-19.73089360491666
 20
-1.034052317102402
 42
0.3913261706225604
  0
HATCH
  5
63
330
33
100
AcDbEntity
  8
0
  6
ByBlock
 62
1
370
18
 60
1
100
AcDbHatch
 10
0.0
 20
0.0
 30
0.0
210
0.0
220
0.0
230
1.0
  2
SOLID
 70
1
 71
0
 91
1
 92
7
 72
1
 73
1
 93
6
 10
-18.67160852994407
 20
-7.167358990904754
 42
0.0
 10
-18.44565519622453
 20
-7.08062363249348
 42
0.3913261706225604
 10
-18.14539666529818
 20
-6.471935978362121
 42
0.0132056988361789
 10
-18.48404279376377
 20
-5.429690363855452
 42
0.3913261706225688
 10
-19.08473467434017
 20
-5.113739243750455
 42
0.0
 10
-19.31851652578139
 20
-5.176380902049184
 42
0.0261859215691867
 97
0
 75
0
 76
1
 47
0.0345671146397448
 98
1
 10
-18.75672199529681
 20
-6.111905694035852
450
0
451
0
460
0.0
461
0.0
452
0
462
0.0
453
0
470

  0
LWPOLYLINE
  5
64
330
33
100
AcDbEntity
  8
0
  6
ByBlock
 62
1
370
18
 60
1
100
AcDbPolyline
 90
6
 70
1
 10
-18.14539666529818
 20
-6.471935978362121
 42
0.0132056988361789
 10
-18.48404279376377
 20
-5.429690363855452
 42
0.3913261706225688
 10
-19.08473467434017
 20
-5.113739243750455
 10
-19.31851652578139
 20
-5.176380902049184
 42
0.0261859215691867
 10
-18.67160852994407
 20
-7.167358990904769
 10
-18.44565519622453
 20
-7.08062363249348
 42
0.3913261706225604
  0
HATCH
  5
65
330
33
100
AcDbEntity
  8
0
  6
ByBlock
 62
1
370
18
 60
1
100
AcDbHatch
 10
0.0
 20
0.0
 30
0.0
210
0.0
220
0.0
230
1.0
  2
SOLID
 70
1
 71
0
 91
1
 92
7
 72
1
 73
1
 93
6
 10
-15.54291922913946
 20
-12.5864078209955
 42
0.0
 10
-15.35482753848917
 20
-12.43409417313023
 42
0.3913261706225604
 10
-15.25735953547128
 20
-11.7624128245179
 42
0.0132056988361789
 10
-15.90150274986193
 20
-10.87582575003645
 42
0.3913261706225688
 10
-16.57042894267393
 20
-10.76096237791098
 42
0.0
 10
-16.77341135890852
 20
-10.8927807002993
 42
0.0261859215691867
 97
0
 75
0
 76
1
 47
0.0345671146397448
 98
1
 10
-15.95001995048922
 20
-11.60891359260726
450
0
451
0
460
0.0
461
0.0
452
0
462
0.0
453
0
470

  0
LWPOLYLINE
  5
66
330
33
100
AcDbEntity
  8
0
  6
ByBlock
 62
1
370
18
 60
1
100
AcDbPolyline
 90
6
 70
1
 10
-15.25735953547128
 20
-11.7624128245179
 42
0.0132056988361789
 10
-15.90150274986193
 20
-10.87582575003645
 42
0.3913261706225688
 10
-16.57042894267393
 20
-10.76096237791098
 10
-16.77341135890852
 20
-10.8927807002993
 42
0.0261859215691867
 10
-15.54291922913946
 20
-12.5864078209955
 10
-15.35482753848917
 20
-12.43409417313023
 42
0.3913261706225604
  0
HATCH
  5
67
330
33
100
AcDbEntity
  8
0
  6
ByBlock
 62
1
370
18
 60
1
100
AcDbHatch
 10
0.0
 20
0.0
 30
0.0
210
0.0
220
0.0
230
1.0
  2
SOLID
 70
1
 71
0
 91
1
 92
7
 72
1
 73
1
 93
6
 10
-10.89278070030057
 20
-16.77341135890722
 42
0.0
 10
-10.76096237791226
 20
-16.57042894267263
 42
0.3913261706225604
 10
-10.87582575003772
 20
-15.90150274986063
 42
0.0132056988361789
 10
-11.76241282451919
 20
-15.25735953547001
 42
0.3913261706225688
 10
-12.43409417313152
 20
-15.35482753848789
 42
0.0
 10
-12.5864078209968
 20
-15.54291922913819
 42
0.0261859215691867
 97
0
 75
0
 76
1
 47
0.0345671146397448
 98
1
 10
-11.58201882260412
 20
-15.96956014467707
450
0
451
0
460
0.0
461
0.0
452
0
462
0.0
453
0
470

  0
LWPOLYLINE
  5
68
330
33
100
AcDbEntity
  8
0
  6
ByBlock
 62
1
370
18
 60
1
100
AcDbPolyline
 90
6
 70
1
 10
-10.87582575003772
 20
-15.90150274986063
 42
0.0132056988361789
 10
-11.76241282451919
 20
-15.25735953547001
 42
0.3913261706225688
 10
-12.43409417313152
 20
-15.35482753848789
 10
-12.5864078209968
 20
-15.54291922913819
 42
0.0261859215691867
 10
-10.8927807003006
 20
-16.77341135890723
 10
-10.76096237791226
 20
-16.57042894267263
 42
0.3913261706225604
  0
HATCH
  5
69
330
33
100
AcDbEntity
  8
0
  6
ByBlock
 62
1
370
18
 60
1
100
AcDbHatch
 10
0.0
 20
0.0
 30
0.0
210
0.0
220
0.0
230
1.0
  2
SOLID
 70
1
 71
0
 91
1
 92
7
 72
1
 73
1
 93
6
 10
-5.176380902050452
 20
-19.3185165257801
 42
0.0
 10
-5.113739243751722
 20
-19.08473467433887
 42
0.3913261706225604
 10
-5.429690363856706
 20
-18.48404279376248
 42
0.0132056988361789
 10
-6.471935978363375
 20
-18.14539666529692
 42
0.3913261706225688
 10
-7.080623632494733
 20
-18.44565519622325
 42
0.0
 10
-7.167358990906024
 20
-18.67160852994279
 42
0.0261859215691867
 97
0
 75
0
 76
1
 47
0.0345671146397448
 98
1
 10
-6.080288995692312
 20
-18.76699488331761
450
0
451
0
460
0.0
461
0.0
452
0
462
0.0
453
0
470

  0
LWPOLYLINE
  5
6A
330
33
100
AcDbEntity
  8
0
  6
ByBlock
 62
1
370
18
 60
1
100
AcDbPolyline
 90
6
 70
1
 10
-5.429690363856706
 20
-18.48404279376248
 42
0.0132056988361789
 10
-6.471935978363375
 20
-18.14539666529692
 42
0.3913261706225688
 10
-7.080623632494733
 20
-18.44565519622325
 10
-7.167358990906024
 20
-18.67160852994279
 42
0.0261859215691867
 10
-5.176380902050452
 20
-19.31851652578012
 10
-5.113739243751722
 20
-19.08473467433887
 42
0.3913261706225604
  0
LINE
  5
6B
330
33
100
AcDbEntity
  8
Defpoints
  6
ByBlock
 62
1
370
18
 60
1
100
AcDbLine
 10
-2.84e-14
 20
-3.6e-15
 30
0.0
 11
-2.84e-14
 21
-3.6e-15
 31
0.0
  0
TEXT
  5
6C
330
33
100
AcDbEntity
  8
0
  6
ByBlock
 62
8
370
-2
100
AcDbText
 10
-13.66666666666671
 20
-18.33944954128441
 30
0.0
 40
2.0
  1
EMERGENCY STOP
 72
1
 11
-4.26e-14
 21
-17.33944954128441
 31
0.0
100
AcDbText
 73
2
  0
TEXT
  5
6D
330
33
100
AcDbEntity
  8
0
  6
ByBlock
 62
8
370
-2
 60
1
100
AcDbText
 10
-8.666666666665446
 20
2.000000000001325
 30
0.0
 40
2.0
  1
EMERGENCY
 72
1
 11
1.2221e-12
 21
3.000000000001325
 31
0.0
100
AcDbText
 73
2
  0
TEXT
  5
6E
330
33
100
AcDbEntity
  8
0
  6
ByBlock
 62
8
370
-2
 60
1
100
AcDbText
 10
-3.666666666665444
 20
-3.999999999998673
 30
0.0
 40
2.0
  1
STOP
 72
1
 11
1.2221e-12
 21
-2.999999999998673
 31
0.0
100
AcDbText
 73
2
  0
ENDBLK
  5
35
330
33
100
AcDbEntity
  8
0
100
AcDbBlockEnd
  0
ENDSEC
  0
SECTION
  2
ENTITIES
  0
INSERT
  5
2F
330
17
100
AcDbEntity
  8
0
  6
ByBlock
 62
0
370
-2
100
AcDbBlockReference
 66
1
  2
*U204
 10
20.00000000000091
 20
20.0
 30
0.0
 50
90.0
  0
ATTRIB
  5
30
330
2F
100
AcDbEntity
  8
Defpoints
  6
ByBlock
 62
8
370
9
 60
1
100
AcDbText
 10
32.50909090910682
 20
19.999642499999027
 30
0.0
 40
0.0001
  1
IDEC
 50
90.0
  7
WD_IEC
 41
0.9
 72
1
 11
32.50904090910808
 21
19.999754999998913
 31
0.0
100
AcDbAttribute
  2
ORIGIN
 70
13
 74
2
280
1
 71
1
 72
0
 11
32.50904090910808
 21
19.999754999998913
 31
0.0
  0
ATTRIB
  5
31
330
2F
100
AcDbEntity
  8
Defpoints
  6
ByBlock
 62
8
370
9
 60
1
100
AcDbText
 10
32.50909090910682
 20
19.999228499998935
 30
0.0
 40
0.0001
  1
YW1B-V4E...R/None
 50
90.0
  7
WD_IEC
 41
0.9
 72
1
 11
32.50904090910808
 21
19.999754999998913
 31
0.0
100
AcDbAttribute
  2
TYPE
 70
13
 74
2
280
1
 71
1
 72
0
 11
32.50904090910808
 21
19.999754999998913
 31
0.0
  0
SEQEND
  5
32
330
2F
100
AcDbEntity
  8
0
  6
ByBlock
 62
0
370
-2
  0
ENDSEC
  0
SECTION
  2
OBJECTS
  0
DICTIONARY
  5
A
330
0
100
AcDbDictionary
281
1
  3
ACAD_COLOR
350
B
  3
ACAD_GROUP
350
C
  3
ACAD_LAYOUT
350
D
  3
ACAD_MATERIAL
350
E
  3
ACAD_MLEADERSTYLE
350
F
  3
ACAD_MLINESTYLE
350
10
  3
ACAD_PLOTSETTINGS
350
11
  3
ACAD_PLOTSTYLENAME
350
12
  3
ACAD_SCALELIST
350
14
  3
ACAD_TABLESTYLE
350
15
  3
ACAD_VISUALSTYLE
350
16
  3
EZDXF_META
350
2D
  0
DICTIONARY
  5
B
330
A
100
AcDbDictionary
281
1
  0
DICTIONARY
  5
C
330
A
100
AcDbDictionary
281
1
  0
DICTIONARY
  5
D
330
A
100
AcDbDictionary
281
1
  3
Model
350
1A
  3
Layout1
350
1E
  0
DICTIONARY
  5
E
330
A
100
AcDbDictionary
281
1
  3
ByBlock
350
1F
  3
ByLayer
350
20
  3
Global
350
21
  0
DICTIONARY
  5
F
330
A
100
AcDbDictionary
281
1
  3
Standard
350
2C
  0
DICTIONARY
  5
10
330
A
100
AcDbDictionary
281
1
  3
Standard
350
22
  0
DICTIONARY
  5
11
330
A
100
AcDbDictionary
281
1
  0
ACDBDICTIONARYWDFLT
  5
12
330
A
100
AcDbDictionary
281
1
  3
Normal
350
13
100
AcDbDictionaryWithDefault
340
13
  0
ACDBPLACEHOLDER
  5
13
330
12
  0
DICTIONARY
  5
14
330
A
100
AcDbDictionary
281
1
  0
DICTIONARY
  5
15
330
A
100
AcDbDictionary
281
1
  0
DICTIONARY
  5
16
330
A
100
AcDbDictionary
281
1
  0
LAYOUT
  5
1A
330
D
100
AcDbPlotSettings
  1

  4
A3
  6

 40
7.5
 41
20.0
 42
7.5
 43
20.0
 44
420.0
 45
297.0
 46
0.0
 47
0.0
 48
0.0
 49
0.0
140
0.0
141
0.0
142
1.0
143
1.0
 70
1024
 72
1
 73
0
 74
5
  7

 75
16
 76
0
 77
2
 78
300
147
1.0
148
0.0
149
0.0
100
AcDbLayout
  1
Model
 70
1
 71
0
 10
0.0
 20
0.0
 11
420.0
 21
297.0
 12
0.0
 22
0.0
 32
0.0
 14
1e+20
 24
1e+20
 34
1e+20
 15
-1e+20
 25
-1e+20
 35
-1e+20
146
0.0
 13
0.0
 23
0.0
 33
0.0
 16
1.0
 26
0.0
 36
0.0
 17
0.0
 27
1.0
 37
0.0
 76
1
330
17
  0
LAYOUT
  5
1E
330
D
100
AcDbPlotSettings
  1

  4
A3
  6

 40
7.5
 41
20.0
 42
7.5
 43
20.0
 44
420.0
 45
297.0
 46
0.0
 47
0.0
 48
0.0
 49
0.0
140
0.0
141
0.0
142
1.0
143
1.0
 70
0
 72
1
 73
0
 74
5
  7

 75
16
 76
0
 77
2
 78
300
147
1.0
148
0.0
149
0.0
100
AcDbLayout
  1
Layout1
 70
1
 71
1
 10
0.0
 20
0.0
 11
420.0
 21
297.0
 12
0.0
 22
0.0
 32
0.0
 14
1e+20
 24
1e+20
 34
1e+20
 15
-1e+20
 25
-1e+20
 35
-1e+20
146
0.0
 13
0.0
 23
0.0
 33
0.0
 16
1.0
 26
0.0
 36
0.0
 17
0.0
 27
1.0
 37
0.0
 76
1
330
1B
  0
MATERIAL
  5
1F
102
{ACAD_REACTORS
330
E
102
}
330
E
100
AcDbMaterial
  1
ByBlock
  2

 70
0
 40
1.0
 71
1
 41
1.0
 91
-1023410177
 42
1.0
 72
1
  3

 73
1
 74
1
 75
1
 44
0.5
 73
0
 45
1.0
 46
1.0
 77
1
  4

 78
1
 79
1
170
1
 48
1.0
171
1
  6

172
1
173
1
174
1
140
1.0
141
1.0
175
1
  7

176
1
177
1
178
1
143
1.0
179
1
  8

270
1
271
1
272
1
145
1.0
146
1.0
273
1
  9

274
1
275
1
276
1
 42
1.0
 72
1
  3

 73
1
 74
1
 75
1
 94
63
  0
MATERIAL
  5
20
102
{ACAD_REACTORS
330
E
102
}
330
E
100
AcDbMaterial
  1
ByLayer
  2

 70
0
 40
1.0
 71
1
 41
1.0
 91
-1023410177
 42
1.0
 72
1
  3

 73
1
 74
1
 75
1
 44
0.5
 73
0
 45
1.0
 46
1.0
 77
1
  4

 78
1
 79
1
170
1
 48
1.0
171
1
  6

172
1
173
1
174
1
140
1.0
141
1.0
175
1
  7

176
1
177
1
178
1
143
1.0
179
1
  8

270
1
271
1
272
1
145
1.0
146
1.0
273
1
  9

274
1
275
1
276
1
 42
1.0
 72
1
  3

 73
1
 74
1
 75
1
 94
63
  0
MATERIAL
  5
21
102
{ACAD_REACTORS
330
E
102
}
330
E
100
AcDbMaterial
  1
Global
  2

 70
0
 40
1.0
 71
1
 41
1.0
 91
-1023410177
 42
1.0
 72
1
  3

 73
1
 74
1
 75
1
 44
0.5
 73
0
 45
1.0
 46
1.0
 77
1
  4

 78
1
 79
1
170
1
 48
1.0
171
1
  6

172
1
173
1
174
1
140
1.0
141
1.0
175
1
  7

176
1
177
1
178
1
143
1.0
179
1
  8

270
1
271
1
272
1
145
1.0
146
1.0
273
1
  9

274
1
275
1
276
1
 42
1.0
 72
1
  3

 73
1
 74
1
 75
1
 94
63
  0
MLINESTYLE
  5
22
102
{ACAD_REACTORS
330
10
102
}
330
10
100
AcDbMlineStyle
  2
Standard
 70
0
  3

 62
256
 51
90.0
 52
90.0
 71
2
 49
0.5
 62
256
  6
BYLAYER
 49
-0.5
 62
256
  6
BYLAYER
  0
MLEADERSTYLE
  5
2C
102
{ACAD_REACTORS
330
F
102
}
330
F
100
AcDbMLeaderStyle
179
2
170
2
171
1
172
0
 90
2
 40
0.0
 41
0.0
173
1
 91
-1056964608
 92
-2
290
1
 42
2.0
291
1
 43
8.0
  3
Standard
 44
4.0
300

342
29
174
1
175
1
176
0
178
1
 93
-1056964608
 45
4.0
292
0
297
0
 46
4.0
 94
-1056964608
 47
1.0
 49
1.0
140
1.0
294
1
141
0.0
177
0
142
1.0
295
0
296
0
143
3.75
271
0
272
9
273
9
  0
DICTIONARY
  5
2D
330
A
100
AcDbDictionary
280
1
281
1
  3
CREATED_BY_EZDXF
350
2E
  3
WRITTEN_BY_EZDXF
350
72
  0
DICTIONARYVAR
  5
2E
330
2D
100
DictionaryVariables
280
0
  1
1.4.4 @ 2026-09-23T14:02:44.959883+00:00
  0
DICTIONARYVAR
  5
72
330
2D
100
DictionaryVariables
280
0
  1
1.4.4 @ 2026-09-23T14:02:45.020715+00:00
  0
ENDSEC
  0
EOF
