  0
SECTION
  2
HEADER
  9
$ACADVER
  1
AC1032
  9
$ACADMAINTVER
 90
4
  9
$DWGCODEPAGE
  3
ANSI_1252
  9
$LASTSAVEDBY
  1
ezdxf
  9
$REQUIREDVERSIONS
160
0
  9
$INSBASE
 10
0.0
 20
0.0
 30
0.0
  9
$EXTMIN
 10
1e+20
 20
1e+20
 30
1e+20
  9
$EXTMAX
 10
-1e+20
 20
-1e+20
 30
-1e+20
  9
$LIMMIN
 10
0.0
 20
0.0
  9
$LIMMAX
 10
420.0
 20
297.0
  9
$ORTHOMODE
 70
0
  9
$REGENMODE
 70
1
  9
$FILLMODE
 70
1
  9
$QTEXTMODE
 70
0
  9
$MIRRTEXT
 70
1
  9
$LTSCALE
 40
1.0
  9
$ATTMODE
 70
1
  9
$TEXTSIZE
 40
2.5
  9
$TRACEWID
 40
1.0
  9
$TEXTSTYLE
  7
Standard
  9
$CLAYER
  8
0
  9
$CELTYPE
  6
ByLayer
  9
$CECOLOR
 62
256
  9
$CELTSCALE
 40
1.0
  9
$DISPSILH
 70
0
  9
$DIMSCALE
 40
1.0
  9
$DIMASZ
 40
2.5
  9
$DIMEXO
 40
0.625
  9
$DIMDLI
 40
3.75
  9
$DIMRND
 40
0.0
  9
$DIMDLE
 40
0.0
  9
$DIMEXE
 40
1.25
  9
$DIMTP
 40
0.0
  9
$DIMTM
 40
0.0
  9
$DIMTXT
 40
2.5
  9
$DIMCEN
 40
2.5
  9
$DIMTSZ
 40
0.0
  9
$DIMTOL
 70
0
  9
$DIMLIM
 70
0
  9
$DIMTIH
 70
0
  9
$DIMTOH
 70
0
  9
$DIMSE1
 70
0
  9
$DIMSE2
 70
0
  9
$DIMTAD
 70
1
  9
$DIMZIN
 70
8
  9
$DIMBLK
  1

  9
$DIMASO
 70
1
  9
$DIMSHO
 70
1
  9
$DIMPOST
  1

  9
$DIMAPOST
  1

  9
$DIMALT
 70
0
  9
$DIMALTD
 70
3
  9
$DIMALTF
 40
0.03937007874
  9
$DIMLFAC
 40
1.0
  9
$DIMTOFL
 70
1
  9
$DIMTVP
 40
0.0
  9
$DIMTIX
 70
0
  9
$DIMSOXD
 70
0
  9
$DIMSAH
 70
0
  9
$DIMBLK1
  1

  9
$DIMBLK2
  1

  9
$DIMSTYLE
  2
ISO-25
  9
$DIMCLRD
 70
0
  9
$DIMCLRE
 70
0
  9
$DIMCLRT
 70
0
  9
$DIMTFAC
 40
1.0
  9
$DIMGAP
 40
0.625
  9
$DIMJUST
 70
0
  9
$DIMSD1
 70
0
  9
$DIMSD2
 70
0
  9
$DIMTOLJ
 70
0
  9
$DIMTZIN
 70
8
  9
$DIMALTZ
 70
0
  9
$DIMALTTZ
 70
0
  9
$DIMUPT
 70
0
  9
$DIMDEC
 70
2
  9
$DIMTDEC
 70
2
  9
$DIMALTU
 70
2
  9
$DIMALTTD
 70
3
  9
$DIMTXSTY
  7
Standard
  9
$DIMAUNIT
 70
0
  9
$DIMADEC
 70
0
  9
$DIMALTRND
 40
0.0
  9
$DIMAZIN
 70
0
  9
$DIMDSEP
 70
44
  9
$DIMATFIT
 70
3
  9
$DIMFRAC
 70
0
  9
$DIMLDRBLK
  1

  9
$DIMLUNIT
 70
2
  9
$DIMLWD
 70
-2
  9
$DIMLWE
 70
-2
  9
$DIMTMOVE
 70
0
  9
$DIMFXL
 40
1.0
  9
$DIMFXLON
 70
0
  9
$DIMJOGANG
 40
0.785398163397
  9
$DIMTFILL
 70
0
  9
$DIMTFILLCLR
 70
0
  9
$DIMARCSYM
 70
0
  9
$DIMLTYPE
  6

  9
$DIMLTEX1
  6

  9
$DIMLTEX2
  6

  9
$DIMTXTDIRECTION
 70
0
  9
$LUNITS
 70
2
  9
$LUPREC
 70
4
  9
$SKETCHINC
 40
1.0
  9
$FILLETRAD
 40
10.0
  9
$AUNITS
 70
0
  9
$AUPREC
 70
2
  9
$MENU
  1
.
  9
$ELEVATION
 40
0.0
  9
$PELEVATION
 40
0.0
  9
$THICKNESS
 40
0.0
  9
$LIMCHECK
 70
0
  9
$CHAMFERA
 40
0.0
  9
$CHAMFERB
 40
0.0
  9
$CHAMFERC
 40
0.0
  9
$CHAMFERD
 40
0.0
  9
$SKPOLY
 70
0
  9
$TDCREATE
 40
2461307.8771412037
  9
$TDUCREATE
 40
2458532.153996898
  9
$TDUPDATE
 40
2461307.8771412037
  9
$TDUUPDATE
 40
2458532.1544311
  9
$TDINDWG
 40
0.0
  9
$TDUSRTIMER
 40
0.0
  9
$USRTIMER
 70
1
  9
$ANGBASE
 50
0.0
  9
$ANGDIR
 70
0
  9
$PDMODE
 70
0
  9
$PDSIZE
 40
0.0
  9
$PLINEWID
 40
0.0
  9
$SPLFRAME
 70
0
  9
$SPLINETYPE
 70
6
  9
$SPLINESEGS
 70
8
  9
$HANDSEED
  5
99
  9
$SURFTAB1
 70
6
  9
$SURFTAB2
 70
6
  9
$SURFTYPE
 70
6
  9
$SURFU
 70
6
  9
$SURFV
 70
6
  9
$UCSBASE
  2

  9
$UCSNAME
  2

  9
$UCSORG
 10
0.0
 20
0.0
 30
0.0
  9
$UCSXDIR
 10
1.0
 20
0.0
 30
0.0
  9
$UCSYDIR
 10
0.0
 20
1.0
 30
0.0
  9
$UCSORTHOREF
  2

  9
$UCSORTHOVIEW
 70
0
  9
$UCSORGTOP
 10
0.0
 20
0.0
 30
0.0
  9
$UCSORGBOTTOM
 10
0.0
 20
0.0
 30
0.0
  9
$UCSORGLEFT
 10
0.0
 20
0.0
 30
0.0
  9
$UCSORGRIGHT
 10
0.0
 20
0.0
 30
0.0
  9
$UCSORGFRONT
 10
0.0
 20
0.0
 30
0.0
  9
$UCSORGBACK
 10
0.0
 20
0.0
 30
0.0
  9
$PUCSBASE
  2

  9
$PUCSNAME
  2

  9
$PUCSORG
 10
0.0
 20
0.0
 30
0.0
  9
$PUCSXDIR
 10
1.0
 20
0.0
 30
0.0
  9
$PUCSYDIR
 10
0.0
 20
1.0
 30
0.0
  9
$PUCSORTHOREF
  2

  9
$PUCSORTHOVIEW
 70
0
  9
$PUCSORGTOP
 10
0.0
 20
0.0
 30
0.0
  9
$PUCSORGBOTTOM
 10
0.0
 20
0.0
 30
0.0
  9
$PUCSORGLEFT
 10
0.0
 20
0.0
 30
0.0
  9
$PUCSORGRIGHT
 10
0.0
 20
0.0
 30
0.0
  9
$PUCSORGFRONT
 10
0.0
 20
0.0
 30
0.0
  9
$PUCSORGBACK
 10
0.0
 20
0.0
 30
0.0
  9
$USERI1
 70
0
  9
$USERI2
 70
0
  9
$USERI3
 70
0
  9
$USERI4
 70
0
  9
$USERI5
 70
0
  9
$USERR1
 40
0.0
  9
$USERR2
 40
0.0
  9
$USERR3
 40
0.0
  9
$USERR4
 40
0.0
  9
$USERR5
 40
0.0
  9
$WORLDVIEW
 70
1
  9
$SHADEDGE
 70
3
  9
$SHADEDIF
 70
70
  9
$TILEMODE
 70
1
  9
$MAXACTVP
 70
64
  9
$PINSBASE
 10
0.0
 20
0.0
 30
0.0
  9
$PLIMCHECK
 70
0
  9
$PEXTMIN
 10
1e+20
 20
1e+20
 30
1e+20
  9
$PEXTMAX
 10
-1e+20
 20
-1e+20
 30
-1e+20
  9
$PLIMMIN
 10
0.0
 20
0.0
  9
$PLIMMAX
 10
420.0
 20
297.0
  9
$UNITMODE
 70
0
  9
$VISRETAIN
 70
1
  9
$PLINEGEN
 70
0
  9
$PSLTSCALE
 70
1
  9
$TREEDEPTH
 70
3020
  9
$CMLSTYLE
  2
Standard
  9
$CMLJUST
 70
0
  9
$CMLSCALE
 40
20.0
  9
$PROXYGRAPHICS
 70
1
  9
$MEASUREMENT
 70
1
  9
$CELWEIGHT
370
-1
  9
$ENDCAPS
280
0
  9
$JOINSTYLE
280
0
  9
$LWDISPLAY
290
0
  9
$INSUNITS
 70
4
  9
$HYPERLINKBASE
  1

  9
$STYLESHEET
  1

  9
$XEDIT
290
1
  9
$CEPSNTYPE
380
0
  9
$PSTYLEMODE
290
1
  9
$FINGERPRINTGUID
  2
{E0B714D3-5228-4FDB-B9BC-70A914B9A134}
  9
$VERSIONGUID
  2
{636A6DFA-DB6A-4BFE-B6EC-4B1E7E88B844}
  9
$EXTNAMES
290
1
  9
$PSVPSCALE
 40
0.0
  9
$OLESTARTUP
290
0
  9
$SORTENTS
280
127
  9
$INDEXCTL
280
0
  9
$HIDETEXT
280
1
  9
$XCLIPFRAME
280
1
  9
$HALOGAP
280
0
  9
$OBSCOLOR
 70
257
  9
$OBSLTYPE
280
0
  9
$INTERSECTIONDISPLAY
280
0
  9
$INTERSECTIONCOLOR
 70
257
  9
$DIMASSOC
280
2
  9
$PROJECTNAME
  1

  9
$CAMERADISPLAY
290
0
  9
$LENSLENGTH
 40
50.0
  9
$CAMERAHEIGHT
 40
0.0
  9
$STEPSPERSEC
 40
24.0
  9
$STEPSIZE
 40
100.0
  9
$3DDWFPREC
 40
2.0
  9
$PSOLWIDTH
 40
0.005
  9
$PSOLHEIGHT
 40
0.08
  9
$LOFTANG1
 40
1.570796326795
  9
$LOFTANG2
 40
1.570796326795
  9
$LOFTMAG1
 40
0.0
  9
$LOFTMAG2
 40
0.0
  9
$LOFTPARAM
 70
7
  9
$LOFTNORMALS
280
1
  9
$LATITUDE
 40
37.795
  9
$LONGITUDE
 40
-122.394
  9
$NORTHDIRECTION
 40
0.0
  9
$TIMEZONE
 70
-8000
  9
$LIGHTGLYPHDISPLAY
280
1
  9
$TILEMODELIGHTSYNCH
280
1
  9
$CMATERIAL
347
20
  9
$SOLIDHIST
280
0
  9
$SHOWHIST
280
1
  9
$DWFFRAME
280
2
  9
$DGNFRAME
280
2
  9
$REALWORLDSCALE
290
1
  9
$INTERFERECOLOR
 62
256
  9
$CSHADOW
280
0
  9
$SHADOWPLANELOCATION
 40
0.0
  0
ENDSEC
  0
SECTION
  2
CLASSES
  0
CLASS
  1
ACDBDICTIONARYWDFLT
  2
AcDbDictionaryWithDefault
  3
ObjectDBX Classes
 90
0
 91
0
280
0
281
0
  0
CLASS
  1
SUN
  2
AcDbSun
  3
SCENEOE
 90
1153
 91
0
280
0
281
0
  0
CLASS
  1
VISUALSTYLE
  2
AcDbVisualStyle
  3
ObjectDBX Classes
 90
4095
 91
0
280
0
281
0
  0
CLASS
  1
MATERIAL
  2
AcDbMaterial
  3
ObjectDBX Classes
 90
1153
 91
0
280
0
281
0
  0
CLASS
  1
SCALE
  2
AcDbScale
  3
ObjectDBX Classes
 90
1153
 91
0
280
0
281
0
  0
CLASS
  1
TABLESTYLE
  2
AcDbTableStyle
  3
ObjectDBX Classes
 90
4095
 91
0
280
0
281
0
  0
CLASS
  1
MLEADERSTYLE
  2
AcDbMLeaderStyle
  3
ACDB_MLEADERSTYLE_CLASS
 90
4095
 91
0
280
0
281
0
  0
CLASS
  1
DICTIONARYVAR
  2
AcDbDictionaryVar
  3
ObjectDBX Classes
 90
0
 91
0
280
0
281
0
  0
CLASS
  1
CELLSTYLEMAP
  2
AcDbCellStyleMap
  3
ObjectDBX Classes
 90
1152
 91
0
280
0
281
0
  0
CLASS
  1
MENTALRAYRENDERSETTINGS
  2
AcDbMentalRayRenderSettings
  3
SCENEOE
 90
1024
 91
0
280
0
281
0
  0
CLASS
  1
ACDBDETAILVIEWSTYLE
  2
AcDbDetailViewStyle
  3
ObjectDBX Classes
 90
1025
 91
0
280
0
281
0
  0
CLASS
  1
ACDBSECTIONVIEWSTYLE
  2
AcDbSectionViewStyle
  3
ObjectDBX Classes
 90
1025
 91
0
280
0
281
0
  0
CLASS
  1
RASTERVARIABLES
  2
AcDbRasterVariables
  3
ISM
 90
0
 91
0
280
0
281
0
  0
CLASS
  1
LAYOUT
  2
AcDbLayout
  3
ObjectDBX Classes
 90
0
 91
0
280
0
281
0
  0
CLASS
  1
ACDBPLACEHOLDER
  2
AcDbPlaceHolder
  3
ObjectDBX Classes
 90
0
 91
0
280
0
281
0
  0
ENDSEC
  0
SECTION
  2
TABLES
  0
TABLE
  2
VPORT
  5
8
330
0
100
AcDbSymbolTable
 70
1
  0
VPORT
  5
23
330
8
100
AcDbSymbolTableRecord
100
AcDbViewportTableRecord
  2
*Active
 70
0
 10
0.0
 20
0.0
 11
1.0
 21
1.0
 12
0.0
 22
0.0
 13
0.0
 23
0.0
 14
0.5
 24
0.5
 15
0.5
 25
0.5
 16
0.0
 26
0.0
 36
1.0
 17
0.0
 27
0.0
 37
0.0
 40
1000.0
 41
1.34
 42
50.0
 43
0.0
 44
0.0
 50
0.0
 51
0.0
 71
0
 72
1000
 73
1
 74
3
 75
0
 76
0
 77
0
 78
0
281
0
 65
0
146
0.0
  0
ENDTAB
  0
TABLE
  2
LTYPE
  5
2
330
0
100
AcDbSymbolTable
 70
3
  0
LTYPE
  5
24
330
2
100
AcDbSymbolTableRecord
100
AcDbLinetypeTableRecord
  2
ByBlock
 70
0
  3

 72
65
 73
0
 40
0.0
  0
LTYPE
  5
25
330
2
100
AcDbSymbolTableRecord
100
AcDbLinetypeTableRecord
  2
ByLayer
 70
0
  3

 72
65
 73
0
 40
0.0
  0
LTYPE
  5
26
330
2
100
AcDbSymbolTableRecord
100
AcDbLinetypeTableRecord
  2
Continuous
 70
0
  3

 72
65
 73
0
 40
0.0
  0
ENDTAB
  0
TABLE
  2
LAYER
  5
1
330
0
100
AcDbSymbolTable
 70
3
  0
LAYER
  5
27
330
1
100
AcDbSymbolTableRecord
100
AcDbLayerTableRecord
  2
0
 70
0
 62
7
  6
Continuous
370
-3
390
13
347
21
  0
LAYER
  5
28
330
1
100
AcDbSymbolTableRecord
100
AcDbLayerTableRecord
  2
Defpoints
 70
0
 62
7
  6
Continuous
290
0
370
-3
390
13
347
21
  0
LAYER
  5
93
330
1
100
AcDbSymbolTableRecord
100
AcDbLayerTableRecord
  2
1-EMC-ACESS
 70
0
 62
4
  6
Continuous
370
-3
390
13
347
21
  0
ENDTAB
  0
TABLE
  2
STYLE
  5
5
330
0
100
AcDbSymbolTable
 70
3
  0
STYLE
  5
29
330
5
100
AcDbSymbolTableRecord
100
AcDbTextStyleTableRecord
  2
Standard
 70
0
 40
0.0
 41
1.0
 50
0.0
 71
0
 42
2.5
  3
txt
  4

  0
STYLE
  5
94
330
5
100
AcDbSymbolTableRecord
100
AcDbTextStyleTableRecord
  2
TT
 70
0
 40
0.0
 41
1.0
 50
0.0
 71
0
 42
300.0
  3
ARIALN.TTF
  4

  0
STYLE
  5
95
330
5
100
AcDbSymbolTableRecord
100
AcDbTextStyleTableRecord
  2
ARIAL
 70
0
 40
0.0
 41
1.0
 50
0.0
 71
0
 42
10.0
  3
arial.ttf
  4

  0
ENDTAB
  0
TABLE
  2
VIEW
  5
7
330
0
100
AcDbSymbolTable
 70
0
  0
ENDTAB
  0
TABLE
  2
UCS
  5
6
330
0
100
AcDbSymbolTable
 70
0
  0
ENDTAB
  0
TABLE
  2
APPID
  5
3
330
0
100
AcDbSymbolTable
 70
3
  0
APPID
  5
2A
330
3
100
AcDbSymbolTableRecord
100
AcDbRegAppTableRecord
  2
ACAD
 70
0
  0
APPID
  5
96
330
3
100
AcDbSymbolTableRecord
100
AcDbRegAppTableRecord
  2
HATCHBACKGROUNDCOLOR
 70
0
  0
APPID
  5
97
330
3
100
AcDbSymbolTableRecord
100
AcDbRegAppTableRecord
  2
EZDXF
 70
0
  0
ENDTAB
  0
TABLE
  2
DIMSTYLE
  5
4
330
0
100
AcDbSymbolTable
 70
1
100
AcDbDimStyleTable
  0
DIMSTYLE
105
2B
330
4
100
AcDbSymbolTableRecord
100
AcDbDimStyleTableRecord
  2
Standard
 70
0
 40
1.0
 41
2.5
 42
0.625
 43
3.75
 44
1.25
 45
0.0
 46
0.0
 47
0.0
 48
0.0
 49
2.5
140
2.5
141
2.5
142
0.0
143
0.03937007874
144
1.0
145
0.0
146
1.0
147
0.625
148
0.0
 69
0
 70
0
 71
0
 72
0
 73
0
 74
0
 75
0
 76
0
 77
1
 78
8
 79
3
170
0
171
3
172
1
173
0
174
0
175
0
176
0
177
0
178
0
179
2
271
2
272
2
273
2
274
3
275
0
276
0
277
2
278
44
279
0
280
0
281
0
282
0
283
0
284
8
285
0
286
0
288
0
289
3
290
0
371
-2
372
-2
  0
ENDTAB
  0
TABLE
  2
BLOCK_RECORD
  5
9
330
0
100
AcDbSymbolTable
 70
3
  0
BLOCK_RECORD
  5
17
330
9
100
AcDbSymbolTableRecord
100
AcDbBlockTableRecord
  2
*Model_Space
340
1A
 70
0
280
1
281
0
  0
BLOCK_RECORD
  5
1B
330
9
100
AcDbSymbolTableRecord
100
AcDbBlockTableRecord
  2
*Paper_Space
340
1E
 70
0
280
1
281
0
  0
BLOCK_RECORD
  5
31
330
9
100
AcDbSymbolTableRecord
100
AcDbBlockTableRecord
  2
SMART GEN
340
0
 70
0
280
1
281
0
  0
ENDTAB
  0
ENDSEC
  0
SECTION
  2
BLOCKS
  0
BLOCK
  5
18
330
17
100
AcDbEntity
  8
0
100
AcDbBlockBegin
  2
*Model_Space
 70
0
 10
0.0
 20
0.0
 30
0.0
  3
*Model_Space
  1

  0
ENDBLK
  5
19
330
17
100
AcDbEntity
  8
0
100
AcDbBlockEnd
  0
BLOCK
  5
1C
330
1B
100
AcDbEntity
  8
0
100
AcDbBlockBegin
  2
*Paper_Space
 70
0
 10
0.0
 20
0.0
 30
0.0
  3
*Paper_Space
  1

  0
ENDBLK
  5
1D
330
1B
100
AcDbEntity
  8
0
100
AcDbBlockEnd
  0
BLOCK
  5
32
330
31
100
AcDbEntity
  8
0
100
AcDbBlockBegin
  2
SMART GEN
 70
0
 10
0.0
 20
0.0
 30
0.0
  3
SMART GEN
  1

  0
LWPOLYLINE
  5
34
330
31
100
AcDbEntity
  8
0
 62
6
100
AcDbPolyline
 90
8
 70
1
 10
-66.5
 20
0.0
 10
66.5
 20
0.0
 42
0.4142135623730951
 10
69.5
 20
3.0
 10
69.5
 20
117.0
 42
0.4142135623730951
 10
66.5
 20
120.0
 10
-66.5
 20
120.0
 42
0.4142135623730951
 10
-69.5
 20
117.0
 10
-69.5
 20
3.0
 42
0.4142135623730951
  0
LWPOLYLINE
  5
35
330
31
100
AcDbEntity
  8
0
 62
6
100
AcDbPolyline
 90
4
 70
1
 10
-62.5
 20
7.0
 10
62.5
 20
7.0
 10
62.5
 20
110.0
 10
-62.5
 20
110.0
  0
MTEXT
  5
36
330
31
100
AcDbEntity
  8
1-EMC-ACESS
  6
ByBlock
 62
1
370
-2
100
AcDbMText
 10
1.751407650495821
 20
118.35285150251
 30
0.0
 40
6.350399999999998
 41
32.6637574734425
 46
0.0
 71
2
 72
5
  1
{\C6;SmartGen}
  7
ARIAL
  0
LINE
  5
37
330
31
100
AcDbEntity
  8
0
 62
6
100
AcDbLine
 10
-5.0
 20
51.69270447047892
 30
0.0
 11
5.0
 21
51.69270447047892
 31
0.0
  0
LINE
  5
38
330
31
100
AcDbEntity
  8
0
 62
6
100
AcDbLine
 10
5.0
 20
51.69270447047892
 30
0.0
 11
5.0
 21
58.69270447047893
 31
0.0
  0
LINE
  5
39
330
31
100
AcDbEntity
  8
0
 62
6
100
AcDbLine
 10
2.5
 20
56.19270447047893
 30
0.0
 11
5.0
 21
58.69270447047893
 31
0.0
  0
LINE
  5
3A
330
31
100
AcDbEntity
  8
0
 62
6
100
AcDbLine
 10
0.0
 20
56.19270447047893
 30
0.0
 11
2.5
 21
58.69270447047893
 31
0.0
  0
LINE
  5
3B
330
31
100
AcDbEntity
  8
0
 62
6
100
AcDbLine
 10
2.5
 20
58.69270447047893
 30
0.0
 11
2.5
 21
56.19270447047893
 31
0.0
  0
LINE
  5
3C
330
31
100
AcDbEntity
  8
0
 62
6
100
AcDbLine
 10
-2.5
 20
56.19270447047893
 30
0.0
 11
0.0
 21
58.69270447047893
 31
0.0
  0
LINE
  5
3D
330
31
100
AcDbEntity
  8
0
 62
6
100
AcDbLine
 10
0.0
 20
58.69270447047893
 30
0.0
 11
0.0
 21
56.19270447047893
 31
0.0
  0
LINE
  5
3E
330
31
100
AcDbEntity
  8
0
 62
6
100
AcDbLine
 10
-5.0
 20
51.69270447047892
 30
0.0
 11
-5.0
 21
55.19270447047893
 31
0.0
  0
LINE
  5
3F
330
31
100
AcDbEntity
  8
0
 62
6
100
AcDbLine
 10
-5.0
 20
55.19270447047893
 30
0.0
 11
-4.5
 21
55.19270447047893
 31
0.0
  0
LINE
  5
40
330
31
100
AcDbEntity
  8
0
 62
6
100
AcDbLine
 10
-4.5
 20
55.19270447047893
 30
0.0
 11
-4.5
 21
59.69270447047893
 31
0.0
  0
LINE
  5
41
330
31
100
AcDbEntity
  8
0
 62
6
100
AcDbLine
 10
-4.5
 20
59.69270447047893
 30
0.0
 11
-3.199999999997089
 21
59.69270447047893
 31
0.0
  0
LINE
  5
42
330
31
100
AcDbEntity
  8
0
 62
6
100
AcDbLine
 10
-3.199999999997089
 20
59.69270447047893
 30
0.0
 11
-3.199999999997089
 21
55.19270447047893
 31
0.0
  0
LINE
  5
43
330
31
100
AcDbEntity
  8
0
 62
6
100
AcDbLine
 10
-2.5
 20
56.19270447047893
 30
0.0
 11
-2.5
 21
55.19270447047893
 31
0.0
  0
LINE
  5
44
330
31
100
AcDbEntity
  8
0
 62
6
100
AcDbLine
 10
-2.5
 20
55.19270447047893
 30
0.0
 11
-3.199999999997089
 21
55.19270447047893
 31
0.0
  0
LWPOLYLINE
  5
45
330
31
100
AcDbEntity
  8
0
 62
6
100
AcDbPolyline
 90
4
 70
1
 10
-1.846175951664918
 20
53.95613033568952
 10
-0.8461759516649181
 20
53.95613033568952
 10
-0.8461759516649181
 20
53.45613033568952
 10
-1.846175951664918
 20
53.45613033568952
  0
LWPOLYLINE
  5
46
330
31
100
AcDbEntity
  8
0
 62
6
100
AcDbPolyline
 90
4
 70
1
 10
0.6538240483350819
 20
53.95613033568952
 10
1.653824048335081
 20
53.95613033568952
 10
1.653824048335081
 20
53.45613033568952
 10
0.6538240483350819
 20
53.45613033568952
  0
LWPOLYLINE
  5
47
330
31
100
AcDbEntity
  8
0
 62
6
100
AcDbPolyline
 90
4
 70
1
 10
3.153824048335081
 20
53.95613033568952
 10
4.153824048335081
 20
53.95613033568952
 10
4.153824048335081
 20
53.45613033568952
 10
3.153824048335081
 20
53.45613033568952
  0
MTEXT
  5
48
330
31
100
AcDbEntity
  8
0
 62
6
100
AcDbMText
 10
-27.76143054427303
 20
105.8800460735219
 30
0.0
 40
2.286143999999999
 41
17.48098300685696
 46
0.0
 71
2
 72
5
  1
Source 1
  7
ARIAL
  0
MTEXT
  5
49
330
31
100
AcDbEntity
  8
0
 62
6
100
AcDbMText
 10
28.49274940031319
 20
105.8800460735219
 30
0.0
 40
2.286143999999999
 41
17.48098300685696
 46
0.0
 71
2
 72
5
  1
Source 2
  7
ARIAL
  0
LINE
  5
4A
330
31
100
AcDbEntity
  8
0
 62
6
100
AcDbLine
 10
-30.0
 20
90.65057147337939
 30
0.0
 11
-30.0
 21
84.36846262103063
 31
0.0
  0
LINE
  5
4B
330
31
100
AcDbEntity
  8
0
 62
6
100
AcDbLine
 10
-33.39808461253051
 20
82.7271114246978
 30
0.0
 11
-30.0
 21
76.68261812094715
 31
0.0
  0
LINE
  5
4C
330
31
100
AcDbEntity
  8
0
 62
6
100
AcDbLine
 10
-30.0
 20
70.26817580492934
 30
0.0
 11
-30.0
 21
76.68261812094715
 31
0.0
  0
LINE
  5
4D
330
31
100
AcDbEntity
  8
0
 62
6
100
AcDbLine
 10
-30.0
 20
66.26817580492934
 30
0.0
 11
-30.0
 21
54.7522850727255
 31
0.0
  0
LINE
  5
4E
330
31
100
AcDbEntity
  8
0
 62
6
100
AcDbLine
 10
-30.0
 20
54.7522850727255
 30
0.0
 11
-8.998160557421215
 21
54.7522850727255
 31
0.0
  0
LINE
  5
4F
330
31
100
AcDbEntity
  8
0
 62
6
100
AcDbLine
 10
30.0
 20
66.26817580492934
 30
0.0
 11
30.0
 21
54.7522850727255
 31
0.0
  0
LINE
  5
50
330
31
100
AcDbEntity
  8
0
 62
6
100
AcDbLine
 10
30.0
 20
54.7522850727255
 30
0.0
 11
8.998160557423034
 21
54.7522850727255
 31
0.0
  0
MTEXT
  5
51
330
31
100
AcDbEntity
  8
0
 62
6
100
AcDbMText
 10
0.0661583130731742
 20
39.9460531474615
 30
0.0
 40
0.9719999999999998
 41
428.0338700653643
 46
0.0
 71
5
 72
5
  1
AUTO
  7
TT
  0
LWPOLYLINE
  5
52
330
31
100
AcDbEntity
  8
0
 62
6
100
AcDbPolyline
 90
6
 70
0
 10
-0.3343859192918899
 20
35.33127521790448
 10
-0.3343859192918899
 20
36.72194324960583
 42
0.4142135623730951
 10
-0.5903859192858363
 20
36.97794324959978
 10
-0.6401456293915544
 20
36.97794324959978
 42
0.4142135623730951
 10
-0.8961456293855007
 20
36.72194324960583
 10
-0.8961456293855007
 20
35.13993009197293
  0
LWPOLYLINE
  5
53
330
31
100
AcDbEntity
  8
0
 62
6
100
AcDbPolyline
 90
6
 70
0
 10
0.227373790801721
 20
35.31472455139738
 10
0.227373790801721
 20
37.12601609225385
 42
0.4142135623730951
 10
-0.0286262091922254
 20
37.3820160922478
 10
-0.0783859192979435
 20
37.3820160922478
 42
0.4142135623730951
 10
-0.3343859192918899
 20
37.12601609225385
 10
-0.3343859192918899
 20
35.33127521790448
  0
LWPOLYLINE
  5
54
330
31
100
AcDbEntity
  8
0
 62
6
100
AcDbPolyline
 90
6
 70
0
 10
0.78913350088078
 20
35.08269848901546
 10
0.78913350088078
 20
36.72194324960583
 42
0.4142135623730951
 10
0.5331335008868338
 20
36.97794324959978
 10
0.4833737907956675
 20
36.97794324959978
 42
0.4142135623730951
 10
0.227373790801721
 20
36.72194324960583
 10
0.227373790801721
 20
35.31472455139738
  0
LWPOLYLINE
  5
55
330
31
100
AcDbEntity
  8
0
 62
6
100
AcDbPolyline
 90
6
 70
0
 10
1.23854126896731
 20
34.59344398335088
 10
1.23854126896731
 20
36.45782949929708
 42
0.4142135623730951
 10
1.033741268960511
 20
36.66262949930388
 10
0.9939335008875787
 20
36.66262949930388
 42
0.4142135623730951
 10
0.78913350088078
 20
36.45782949929708
 10
0.78913350088078
 20
35.08269848901546
  0
LWPOLYLINE
  5
56
330
31
100
AcDbEntity
  8
0
 62
6
100
AcDbPolyline
 90
6
 70
0
 10
-1.059408151073512
 20
34.76829315233044
 10
-1.348763535288526
 20
35.26793583697872
 42
0.4142135623686344
 10
-1.628624971121098
 20
35.3425257607887
 10
-1.663073011945016
 20
35.32257605192717
 42
0.4142135623730951
 10
-1.737662935740445
 20
35.04271461610915
 10
-1.323319567376529
 20
34.32724967497052
  0
ARC
  5
57
330
31
100
AcDbEntity
  8
0
 62
6
100
AcDbCircle
 10
-0.2730585339540994
 20
34.644524270494
 30
0.0
 40
0.7960304368950967
100
AcDbArc
 50
141.512394414986
 51
171.055213477035
  0
ARC
  5
58
330
31
100
AcDbEntity
  8
0
 62
6
100
AcDbCircle
 10
-0.0722637755188771
 20
34.72761900982005
 30
0.0
 40
1.313558601141208
100
AcDbArc
 50
197.7459794754358
 51
356.2894711808914
  0
LWPOLYLINE
  5
59
330
31
100
AcDbEntity
  8
0
 62
6
100
AcDbPolyline
 90
8
 70
1
 10
-3.5
 20
32.82485135056777
 10
3.5
 20
32.82485135056777
 42
0.4142135623731193
 10
4.300000000001091
 20
33.62485135055613
 10
4.299999999999272
 20
41.62485135055613
 42
0.4142135623730951
 10
3.5
 20
42.42485135054448
 10
-3.5
 20
42.42485135054448
 42
0.4142135623730709
 10
-4.299999999999272
 20
41.62485135055613
 10
-4.299999999999272
 20
33.62485135055613
 42
0.4142135623730951
  0
LINE
  5
5A
330
31
100
AcDbEntity
  8
0
 62
6
100
AcDbLine
 10
-2.932865080620103
 20
37.56680950694136
 30
0.0
 11
3.075549740260612
 21
37.56680950694136
 31
0.0
  0
LWPOLYLINE
  5
5B
330
31
100
AcDbEntity
  8
0
 62
6
100
AcDbPolyline
 90
8
 70
1
 10
-1.137500896507845
 20
38.43456173955928
 10
1.462499103492518
 20
38.43456173955928
 42
0.4142135623730092
 10
1.962499103492518
 20
38.93456173955929
 10
1.962499103494337
 20
41.13456173954182
 42
0.4142135623730951
 10
1.462499103494337
 20
41.63456173954182
 10
-1.137500896507845
 20
41.63456173954182
 42
0.4142135623730951
 10
-1.637500896507845
 20
41.13456173954182
 10
-1.637500896507845
 20
38.93456173955929
 42
0.414213562373181
  0
LINE
  5
5C
330
31
100
AcDbEntity
  8
0
 62
6
100
AcDbLine
 10
0.1624991034914274
 20
42.00987029340467
 30
0.0
 11
0.1624991034914274
 21
41.25925318564987
 31
0.0
  0
LINE
  5
5D
330
31
100
AcDbEntity
  8
0
 62
6
100
AcDbLine
 10
0.1624991034914274
 20
37.8592531857139
 30
0.0
 11
0.1624991034914274
 21
38.80987029348034
 31
0.0
  0
LINE
  5
5E
330
31
100
AcDbEntity
  8
0
 62
6
100
AcDbLine
 10
-2.012809450359782
 20
40.0345617395651
 30
0.0
 11
-1.262192342604976
 21
40.0345617395651
 31
0.0
  0
LINE
  5
5F
330
31
100
AcDbEntity
  8
0
 62
6
100
AcDbLine
 10
2.337807657346274
 20
40.0345617395651
 30
0.0
 11
1.587190549591468
 21
40.0345617395651
 31
0.0
  0
MTEXT
  5
60
330
31
100
AcDbEntity
  8
0
 62
6
100
AcDbMText
 10
9.374707497465351
 20
39.85055389121226
 30
0.0
 40
1.943999999999999
 41
856.0677401307286
 46
0.0
 71
5
 72
5
  1
AUTO
  7
TT
  0
LINE
  5
61
330
31
100
AcDbEntity
  8
0
 62
6
100
AcDbLine
 10
5.984390039633581
 20
37.5466104693769
 30
0.0
 11
12.54689661914381
 21
37.5466104693769
 31
0.0
  0
MTEXT
  5
62
330
31
100
AcDbEntity
  8
0
 62
6
100
AcDbMText
 10
0.0554447761642223
 20
98.59113145475204
 30
0.0
 40
0.9719999999999998
 41
428.0338700653643
 46
0.0
 71
5
 72
5
  1
AUTO
  7
TT
  0
LWPOLYLINE
  5
63
330
31
100
AcDbEntity
  8
0
 62
6
100
AcDbPolyline
 90
8
 70
1
 10
-1.516005347317332
 20
96.6664806244371
 10
1.603994652683468
 20
96.6664806244371
 42
0.4142135623730092
 10
2.203994652682013
 20
97.26648062441382
 10
2.203994652683832
 20
99.90648062439868
 42
0.4142135623730951
 10
1.603994652683468
 20
100.5064806244045
 10
-1.516005347315513
 20
100.5064806244045
 42
0.4142135623730951
 10
-2.116005347317695
 20
99.90648062439868
 10
-2.116005347317695
 20
97.26648062441382
 42
0.414213562373181
  0
LINE
  5
64
330
31
100
AcDbEntity
  8
0
 62
6
100
AcDbLine
 10
0.0439946526821586
 20
100.9568508890515
 30
0.0
 11
0.0439946526821586
 21
100.0561103597283
 31
0.0
  0
LINE
  5
65
330
31
100
AcDbEntity
  8
0
 62
6
100
AcDbLine
 10
0.0439946526821586
 20
95.97611035979936
 30
0.0
 11
0.0439946526821586
 21
97.11685088914236
 31
0.0
  0
LINE
  5
66
330
31
100
AcDbEntity
  8
0
 62
6
100
AcDbLine
 10
-2.566375611941111
 20
98.5864806244208
 30
0.0
 11
-1.665635082634253
 21
98.5864806244208
 31
0.0
  0
LINE
  5
67
330
31
100
AcDbEntity
  8
0
 62
6
100
AcDbLine
 10
2.654364917307248
 20
98.5864806244208
 30
0.0
 11
1.753624388000389
 21
98.5864806244208
 31
0.0
  0
LWPOLYLINE
  5
68
330
31
100
AcDbEntity
  8
0
 62
6
100
AcDbPolyline
 90
6
 70
0
 10
-0.3572684504688368
 20
74.16977317229612
 10
-0.3572684504688368
 20
75.83857481036102
 42
0.4142135623730951
 10
-0.6644684504608449
 20
76.14577481034212
 10
-0.7241801025884343
 20
76.14577481034212
 42
0.4142135623730951
 10
-1.031380102580442
 20
75.83857481036102
 10
-1.031380102580442
 20
73.94015902117826
  0
LWPOLYLINE
  5
69
330
31
100
AcDbEntity
  8
0
 62
6
100
AcDbPolyline
 90
6
 70
0
 10
0.3168432016445877
 20
74.14991237249342
 10
0.3168432016445877
 20
76.32346222153865
 42
0.4142135623730951
 10
0.0096432016507606
 20
76.63066222151974
 10
-0.0500684504750098
 20
76.63066222151974
 42
0.4142135623730951
 10
-0.3572684504688368
 20
76.32346222153865
 10
-0.3572684504688368
 20
74.16977317229612
  0
LWPOLYLINE
  5
6A
330
31
100
AcDbEntity
  8
0
 62
6
100
AcDbPolyline
 90
6
 70
0
 10
0.9909548537398222
 20
73.87148109765258
 10
0.9909548537398222
 20
75.83857481036102
 42
0.4142135623730951
 10
0.6837548537478142
 20
76.14577481034212
 10
0.6240432016384148
 20
76.14577481034212
 42
0.4142135623730951
 10
0.3168432016445877
 20
75.83857481036102
 10
0.3168432016445877
 20
74.14991237249342
  0
LWPOLYLINE
  5
6B
330
31
100
AcDbEntity
  8
0
 62
6
100
AcDbPolyline
 90
6
 70
0
 10
1.530244175442931
 20
73.28437569085509
 10
1.530244175442931
 20
75.52163830999052
 42
0.4142135623730951
 10
1.284484175434045
 20
75.7673983099812
 10
1.236714853748708
 20
75.7673983099812
 42
0.4142135623730951
 10
0.9909548537398222
 20
75.52163830999052
 10
0.9909548537398222
 20
73.87148109765258
  0
LWPOLYLINE
  5
6C
330
31
100
AcDbEntity
  8
0
 62
6
100
AcDbPolyline
 90
6
 70
0
 10
-1.227295128606783
 20
73.49419469363056
 10
-1.574521589664072
 20
74.09376591519685
 42
0.4142135623686344
 10
-1.910355312662431
 20
74.18327382375719
 10
-1.951692961651133
 20
74.159334173135
 42
0.4142135623730951
 10
-2.041200870206012
 20
73.82350045014755
 10
-1.543988828168949
 20
72.96494252077537
  0
ARC
  5
6D
330
31
100
AcDbEntity
  8
0
 62
6
100
AcDbCircle
 10
-0.2836755880634882
 20
73.34567203541519
 30
0.0
 40
0.955236524274116
100
AcDbArc
 50
141.512394414986
 51
171.055213477035
  0
ARC
  5
6E
330
31
100
AcDbEntity
  8
0
 62
6
100
AcDbCircle
 10
-0.0427218779404939
 20
73.44538572261808
 30
0.0
 40
1.57627032136945
100
AcDbArc
 50
197.7459794754358
 51
356.2894711808914
  0
MTEXT
  5
6F
330
31
100
AcDbEntity
  8
0
 62
6
100
AcDbMText
 10
9.051072966318316
 20
34.99869101709555
 30
0.0
 40
1.943999999999999
 41
856.0677401307286
 46
0.0
 71
5
 72
5
  1
MAN
  7
TT
  0
LWPOLYLINE
  5
70
330
31
100
AcDbEntity
  8
0
 62
6
100
AcDbPolyline
 90
8
 70
1
 10
-3.499999999990905
 20
14.16038557485444
 10
3.5
 20
14.16038557485444
 42
0.4142135623705233
 10
6.600000000002182
 20
17.26038557483116
 10
6.600000000000363
 20
25.26038557486027
 42
0.4142135623729232
 10
3.499999999989086
 20
28.36038557486609
 10
-3.5
 20
28.36038557486609
 42
0.4142135623706828
 10
-6.599999999998544
 20
25.26038557488937
 10
-6.600000000000363
 20
17.26038557486026
 42
0.4142135623729232
  0
MTEXT
  5
71
330
31
100
AcDbEntity
  8
0
 62
6
100
AcDbMText
 10
-0.1268631630828167
 20
26.9266725621128
 30
0.0
 40
1.458
 41
642.0508050980465
 46
0.0
 71
5
 72
5
  1
OPEN
  7
TT
  0
CIRCLE
  5
72
330
31
100
AcDbEntity
  8
0
 62
251
100
AcDbCircle
 10
0.0
 20
20.26038557486026
 30
0.0
 40
4.0
  0
CIRCLE
  5
73
330
31
100
AcDbEntity
  8
0
 62
1
100
AcDbCircle
 10
0.0
 20
20.26038557486026
 30
0.0
 40
3.799999999988358
  0
ELLIPSE
  5
74
330
31
100
AcDbEntity
  8
0
 62
7
100
AcDbEllipse
 10
0.0
 20
20.26038557486026
 30
0.0
 11
0.0
 21
-2.539762281707226
 31
0.0
 40
0.7874752745188428
 41
0.0
 42
6.283185307179586
  0
LWPOLYLINE
  5
75
330
31
100
AcDbEntity
  8
0
 62
6
100
AcDbPolyline
 90
8
 70
1
 10
-33.49999999999091
 20
14.16038557485444
 10
-26.5
 20
14.16038557485444
 42
0.4142135623705233
 10
-23.39999999999782
 20
17.26038557483116
 10
-23.39999999999964
 20
25.26038557486027
 42
0.4142135623729232
 10
-26.50000000001091
 20
28.36038557486609
 10
-33.5
 20
28.36038557486609
 42
0.4142135623706828
 10
-36.59999999999854
 20
25.26038557488937
 10
-36.60000000000037
 20
17.26038557486026
 42
0.4142135623729232
  0
MTEXT
  5
76
330
31
100
AcDbEntity
  8
0
 62
6
100
AcDbMText
 10
-29.53787367201221
 20
26.48573519085767
 30
0.0
 40
1.458
 41
642.0508050980465
 46
0.0
 71
5
 72
5
  1
1#Close
  7
TT
  0
CIRCLE
  5
77
330
31
100
AcDbEntity
  8
0
 62
251
100
AcDbCircle
 10
-30.0
 20
20.26038557486026
 30
0.0
 40
4.0
  0
CIRCLE
  5
78
330
31
100
AcDbEntity
  8
0
 62
3
100
AcDbCircle
 10
-30.0
 20
20.26038557486026
 30
0.0
 40
3.799999999988358
  0
LWPOLYLINE
  5
79
330
31
100
AcDbEntity
  8
0
 62
7
100
AcDbPolyline
 90
4
 70
1
 10
-30.39999999999964
 20
18.36339176917681
 10
-29.59999999999855
 20
18.36339176917681
 10
-29.59999999999855
 20
22.36339176917681
 10
-30.39999999999964
 20
22.36339176917681
  0
LWPOLYLINE
  5
7A
330
31
100
AcDbEntity
  8
0
 62
6
100
AcDbPolyline
 90
8
 70
1
 10
33.50000000000364
 20
14.16038557485444
 10
26.50000000001091
 20
14.16038557485444
 42
-0.4142135623705233
 10
23.40000000001055
 20
17.26038557483116
 10
23.40000000001237
 20
25.26038557486027
 42
-0.4142135623729232
 10
26.50000000002183
 20
28.36038557486609
 10
33.50000000001092
 20
28.36038557486609
 42
-0.4142135623706828
 10
36.60000000001128
 20
25.26038557488937
 10
36.6000000000131
 20
17.26038557486026
 42
-0.4142135623729232
  0
MTEXT
  5
7B
330
31
100
AcDbEntity
  8
0
 62
6
100
AcDbMText
 10
30.18035455553036
 20
26.9266725621128
 30
0.0
 40
1.458
 41
642.0508050980465
 46
0.0
 71
5
 72
5
  1
2#Close
  7
TT
  0
CIRCLE
  5
7C
330
31
100
AcDbEntity
  8
0
 62
251
100
AcDbCircle
 10
30.00000000001092
 20
20.26038557486026
 30
0.0
 40
3.999999999999999
  0
CIRCLE
  5
7D
330
31
100
AcDbEntity
  8
0
 62
3
100
AcDbCircle
 10
30.00000000001092
 20
20.26038557486026
 30
0.0
 40
3.799999999988358
  0
LWPOLYLINE
  5
7E
330
31
100
AcDbEntity
  8
0
 62
7
100
AcDbPolyline
 90
4
 70
1
 10
29.60000000001128
 20
18.36339176917681
 10
28.80000000001018
 20
18.36339176917681
 10
28.80000000001018
 20
22.36339176917681
 10
29.60000000001128
 20
22.36339176917681
  0
LWPOLYLINE
  5
7F
330
31
100
AcDbEntity
  8
0
 62
7
100
AcDbPolyline
 90
4
 70
1
 10
30.40000000001237
 20
18.36339176917681
 10
31.20000000001164
 20
18.36339176917681
 10
31.20000000001164
 20
22.36339176917681
 10
30.40000000001237
 20
22.36339176917681
  0
LWPOLYLINE
  5
80
330
31
100
AcDbEntity
  8
0
 62
6
100
AcDbPolyline
 90
4
 70
1
 10
-30.39999999999964
 20
96.6664806244371
 10
-29.59999999999855
 20
96.6664806244371
 10
-29.59999999999855
 20
100.6664806244371
 10
-30.39999999999964
 20
100.6664806244371
  0
LWPOLYLINE
  5
81
330
31
100
AcDbEntity
  8
0
 62
6
100
AcDbPolyline
 90
4
 70
1
 10
29.60000000001128
 20
96.6664806244371
 10
28.80000000001018
 20
96.6664806244371
 10
28.80000000001018
 20
100.6664806244371
 10
29.60000000001128
 20
100.6664806244371
  0
LWPOLYLINE
  5
82
330
31
100
AcDbEntity
  8
0
 62
6
100
AcDbPolyline
 90
4
 70
1
 10
30.40000000001237
 20
96.6664806244371
 10
31.20000000001164
 20
96.6664806244371
 10
31.20000000001164
 20
100.6664806244371
 10
30.40000000001237
 20
100.6664806244371
  0
MTEXT
  5
83
330
31
100
AcDbEntity
  8
0
 62
6
100
AcDbMText
 10
-0.0716142958190176
 20
49.03262772614835
 30
0.0
 40
0.9719999999999998
 41
428.0338700653643
 46
0.0
 71
5
 72
5
  1
LOAD
  7
TT
  0
LINE
  5
84
330
31
100
AcDbEntity
  8
0
 62
6
100
AcDbLine
 10
30.0
 20
90.65057147337939
 30
0.0
 11
30.0
 21
84.36846262103063
 31
0.0
  0
LINE
  5
85
330
31
100
AcDbEntity
  8
0
 62
6
100
AcDbLine
 10
33.39808461253051
 20
82.7271114246978
 30
0.0
 11
30.0
 21
76.68261812094715
 31
0.0
  0
LINE
  5
86
330
31
100
AcDbEntity
  8
0
 62
6
100
AcDbLine
 10
30.0
 20
70.26817580492934
 30
0.0
 11
30.0
 21
76.68261812094715
 31
0.0
  0
CIRCLE
  5
87
330
31
100
AcDbEntity
  8
0
 62
6
100
AcDbCircle
 10
-30.0
 20
92.65057147337939
 30
0.0
 40
2.0
  0
CIRCLE
  5
88
330
31
100
AcDbEntity
  8
0
 62
6
100
AcDbCircle
 10
-30.0
 20
68.26817580492934
 30
0.0
 40
2.0
  0
CIRCLE
  5
89
330
31
100
AcDbEntity
  8
0
 62
6
100
AcDbCircle
 10
0.0
 20
68.26817580492934
 30
0.0
 40
2.0
  0
CIRCLE
  5
8A
330
31
100
AcDbEntity
  8
0
 62
6
100
AcDbCircle
 10
0.0
 20
92.65057147337939
 30
0.0
 40
2.0
  0
CIRCLE
  5
8B
330
31
100
AcDbEntity
  8
0
 62
6
100
AcDbCircle
 10
30.0
 20
92.65057147337939
 30
0.0
 40
2.0
  0
CIRCLE
  5
8C
330
31
100
AcDbEntity
  8
0
 62
6
100
AcDbCircle
 10
30.0
 20
68.26817580492934
 30
0.0
 40
2.0
  0
POINT
  5
8D
330
31
100
AcDbEntity
  8
0
 62
2
100
AcDbPoint
 10
-65.0
 20
3.5
 30
0.0
  0
POINT
  5
8E
330
31
100
AcDbEntity
  8
0
 62
2
100
AcDbPoint
 10
65.0
 20
114.5
 30
0.0
  0
POINT
  5
8F
330
31
100
AcDbEntity
  8
0
 62
2
100
AcDbPoint
 10
65.0
 20
3.5
 30
0.0
 50
180.0
  0
POINT
  5
90
330
31
100
AcDbEntity
  8
0
 62
2
100
AcDbPoint
 10
-65.0
 20
114.5
 30
0.0
 50
180.0
  0
LWPOLYLINE
  5
91
330
31
100
AcDbEntity
  8
0
 62
6
100
AcDbPolyline
 90
8
 70
1
 10
-25.0584137550286
 20
110.5
 10
26.47737730629706
 20
110.5
 42
0.4142135623730951
 10
26.97737730629706
 20
111.0
 10
26.97737730629706
 20
119.0
 42
0.4142135623730951
 10
26.47737730629706
 20
119.5
 10
-25.0584137550286
 20
119.5
 42
0.4142135623730951
 10
-25.5584137550286
 20
119.0
 10
-25.5584137550286
 20
111.0
 42
0.4142135623730951
  0
MTEXT
  5
92
330
31
100
AcDbEntity
  8
0
 62
6
100
AcDbMText
 10
50.66046048421231
 20
10.32674606516593
 30
0.0
 40
1.749599999999999
 41
770.4609661176557
 46
0.0
 71
5
 72
5
  1
ATS CONTROL
  7
TT
  0
ENDBLK
  5
33
330
31
100
AcDbEntity
  8
0
100
AcDbBlockEnd
  0
ENDSEC
  0
SECTION
  2
ENTITIES
  0
INSERT
  5
2F
330
17
100
AcDbEntity
  8
0
 62
2
100
AcDbBlockReference
  2
SMART GEN
 10
418.98279709904637
 20
0.0
 30
0.0
  0
ENDSEC
  0
SECTION
  2
OBJECTS
  0
DICTIONARY
  5
A
330
0
100
AcDbDictionary
281
1
  3
ACAD_COLOR
350
B
  3
ACAD_GROUP
350
C
  3
ACAD_LAYOUT
350
D
  3
ACAD_MATERIAL
350
E
  3
ACAD_MLEADERSTYLE
350
F
  3
ACAD_MLINESTYLE
350
10
  3
ACAD_PLOTSETTINGS
350
11
  3
ACAD_PLOTSTYLENAME
350
12
  3
ACAD_SCALELIST
350
14
  3
ACAD_TABLESTYLE
350
15
  3
ACAD_VISUALSTYLE
350
16
  3
EZDXF_META
350
2D
  0
DICTIONARY
  5
B
330
A
100
AcDbDictionary
281
1
  0
DICTIONARY
  5
C
330
A
100
AcDbDictionary
281
1
  0
DICTIONARY
  5
D
330
A
100
AcDbDictionary
281
1
  3
Model
350
1A
  3
Layout1
350
1E
  0
DICTIONARY
  5
E
330
A
100
AcDbDictionary
281
1
  3
ByBlock
350
1F
  3
ByLayer
350
20
  3
Global
350
21
  0
DICTIONARY
  5
F
330
A
100
AcDbDictionary
281
1
  3
Standard
350
2C
  0
DICTIONARY
  5
10
330
A
100
AcDbDictionary
281
1
  3
Standard
350
22
  0
DICTIONARY
  5
11
330
A
100
AcDbDictionary
281
1
  0
ACDBDICTIONARYWDFLT
  5
12
330
A
100
AcDbDictionary
281
1
  3
Normal
350
13
100
AcDbDictionaryWithDefault
340
13
  0
ACDBPLACEHOLDER
  5
13
330
12
  0
DICTIONARY
  5
14
330
A
100
AcDbDictionary
281
1
  0
DICTIONARY
  5
15
330
A
100
AcDbDictionary
281
1
  0
DICTIONARY
  5
16
330
A
100
AcDbDictionary
281
1
  0
LAYOUT
  5
1A
330
D
100
AcDbPlotSettings
  1

  4
A3
  6

 40
7.5
 41
20.0
 42
7.5
 43
20.0
 44
420.0
 45
297.0
 46
0.0
 47
0.0
 48
0.0
 49
0.0
140
0.0
141
0.0
142
1.0
143
1.0
 70
1024
 72
1
 73
0
 74
5
  7

 75
16
 76
0
 77
2
 78
300
147
1.0
148
0.0
149
0.0
100
AcDbLayout
  1
Model
 70
1
 71
0
 10
0.0
 20
0.0
 11
420.0
 21
297.0
 12
0.0
 22
0.0
 32
0.0
 14
1e+20
 24
1e+20
 34
1e+20
 15
-1e+20
 25
-1e+20
 35
-1e+20
146
0.0
 13
0.0
 23
0.0
 33
0.0
 16
1.0
 26
0.0
 36
0.0
 17
0.0
 27
1.0
 37
0.0
 76
1
330
17
  0
LAYOUT
  5
1E
330
D
100
AcDbPlotSettings
  1

  4
A3
  6

 40
7.5
 41
20.0
 42
7.5
 43
20.0
 44
420.0
 45
297.0
 46
0.0
 47
0.0
 48
0.0
 49
0.0
140
0.0
141
0.0
142
1.0
143
1.0
 70
0
 72
1
 73
0
 74
5
  7

 75
16
 76
0
 77
2
 78
300
147
1.0
148
0.0
149
0.0
100
AcDbLayout
  1
Layout1
 70
1
 71
1
 10
0.0
 20
0.0
 11
420.0
 21
297.0
 12
0.0
 22
0.0
 32
0.0
 14
1e+20
 24
1e+20
 34
1e+20
 15
-1e+20
 25
-1e+20
 35
-1e+20
146
0.0
 13
0.0
 23
0.0
 33
0.0
 16
1.0
 26
0.0
 36
0.0
 17
0.0
 27
1.0
 37
0.0
 76
1
330
1B
  0
MATERIAL
  5
1F
102
{ACAD_REACTORS
330
E
102
}
330
E
100
AcDbMaterial
  1
ByBlock
  2

 70
0
 40
1.0
 71
1
 41
1.0
 91
-1023410177
 42
1.0
 72
1
  3

 73
1
 74
1
 75
1
 44
0.5
 73
0
 45
1.0
 46
1.0
 77
1
  4

 78
1
 79
1
170
1
 48
1.0
171
1
  6

172
1
173
1
174
1
140
1.0
141
1.0
175
1
  7

176
1
177
1
178
1
143
1.0
179
1
  8

270
1
271
1
272
1
145
1.0
146
1.0
273
1
  9

274
1
275
1
276
1
 42
1.0
 72
1
  3

 73
1
 74
1
 75
1
 94
63
  0
MATERIAL
  5
20
102
{ACAD_REACTORS
330
E
102
}
330
E
100
AcDbMaterial
  1
ByLayer
  2

 70
0
 40
1.0
 71
1
 41
1.0
 91
-1023410177
 42
1.0
 72
1
  3

 73
1
 74
1
 75
1
 44
0.5
 73
0
 45
1.0
 46
1.0
 77
1
  4

 78
1
 79
1
170
1
 48
1.0
171
1
  6

172
1
173
1
174
1
140
1.0
141
1.0
175
1
  7

176
1
177
1
178
1
143
1.0
179
1
  8

270
1
271
1
272
1
145
1.0
146
1.0
273
1
  9

274
1
275
1
276
1
 42
1.0
 72
1
  3

 73
1
 74
1
 75
1
 94
63
  0
MATERIAL
  5
21
102
{ACAD_REACTORS
330
E
102
}
330
E
100
AcDbMaterial
  1
Global
  2

 70
0
 40
1.0
 71
1
 41
1.0
 91
-1023410177
 42
1.0
 72
1
  3

 73
1
 74
1
 75
1
 44
0.5
 73
0
 45
1.0
 46
1.0
 77
1
  4

 78
1
 79
1
170
1
 48
1.0
171
1
  6

172
1
173
1
174
1
140
1.0
141
1.0
175
1
  7

176
1
177
1
178
1
143
1.0
179
1
  8

270
1
271
1
272
1
145
1.0
146
1.0
273
1
  9

274
1
275
1
276
1
 42
1.0
 72
1
  3

 73
1
 74
1
 75
1
 94
63
  0
MLINESTYLE
  5
22
102
{ACAD_REACTORS
330
10
102
}
330
10
100
AcDbMlineStyle
  2
Standard
 70
0
  3

 62
256
 51
90.0
 52
90.0
 71
2
 49
0.5
 62
256
  6
BYLAYER
 49
-0.5
 62
256
  6
BYLAYER
  0
MLEADERSTYLE
  5
2C
102
{ACAD_REACTORS
330
F
102
}
330
F
100
AcDbMLeaderStyle
179
2
170
2
171
1
172
0
 90
2
 40
0.0
 41
0.0
173
1
 91
-1056964608
 92
-2
290
1
 42
2.0
291
1
 43
8.0
  3
Standard
 44
4.0
300

342
29
174
1
175
1
176
0
178
1
 93
-1056964608
 45
4.0
292
0
297
0
 46
4.0
 94
-1056964608
 47
1.0
 49
1.0
140
1.0
294
1
141
0.0
177
0
142
1.0
295
0
296
0
143
3.75
271
0
272
9
273
9
  0
DICTIONARY
  5
2D
330
A
100
AcDbDictionary
280
1
281
1
  3
CREATED_BY_EZDXF
350
2E
  3
WRITTEN_BY_EZDXF
350
98
  0
DICTIONARYVAR
  5
2E
330
2D
100
DictionaryVariables
280
0
  1
1.4.4 @ 2026-09-23T14:03:05.245508+00:00
  0
DICTIONARYVAR
  5
98
330
2D
100
DictionaryVariables
280
0
  1
1.4.4 @ 2026-09-23T14:03:05.327205+00:00
  0
ENDSEC
  0
EOF
