  0
SECTION
  2
HEADER
  9
$ACADVER
  1
AC1032
  9
$ACADMAINTVER
 90
4
  9
$DWGCODEPAGE
  3
ANSI_1252
  9
$LASTSAVEDBY
  1
ezdxf
  9
$REQUIREDVERSIONS
160
0
  9
$INSBASE
 10
0.0
 20
0.0
 30
0.0
  9
$EXTMIN
 10
1e+20
 20
1e+20
 30
1e+20
  9
$EXTMAX
 10
-1e+20
 20
-1e+20
 30
-1e+20
  9
$LIMMIN
 10
0.0
 20
0.0
  9
$LIMMAX
 10
420.0
 20
297.0
  9
$ORTHOMODE
 70
0
  9
$REGENMODE
 70
1
  9
$FILLMODE
 70
1
  9
$QTEXTMODE
 70
0
  9
$MIRRTEXT
 70
1
  9
$LTSCALE
 40
1.0
  9
$ATTMODE
 70
1
  9
$TEXTSIZE
 40
2.5
  9
$TRACEWID
 40
1.0
  9
$TEXTSTYLE
  7
Standard
  9
$CLAYER
  8
0
  9
$CELTYPE
  6
ByLayer
  9
$CECOLOR
 62
256
  9
$CELTSCALE
 40
1.0
  9
$DISPSILH
 70
0
  9
$DIMSCALE
 40
1.0
  9
$DIMASZ
 40
2.5
  9
$DIMEXO
 40
0.625
  9
$DIMDLI
 40
3.75
  9
$DIMRND
 40
0.0
  9
$DIMDLE
 40
0.0
  9
$DIMEXE
 40
1.25
  9
$DIMTP
 40
0.0
  9
$DIMTM
 40
0.0
  9
$DIMTXT
 40
2.5
  9
$DIMCEN
 40
2.5
  9
$DIMTSZ
 40
0.0
  9
$DIMTOL
 70
0
  9
$DIMLIM
 70
0
  9
$DIMTIH
 70
0
  9
$DIMTOH
 70
0
  9
$DIMSE1
 70
0
  9
$DIMSE2
 70
0
  9
$DIMTAD
 70
1
  9
$DIMZIN
 70
8
  9
$DIMBLK
  1

  9
$DIMASO
 70
1
  9
$DIMSHO
 70
1
  9
$DIMPOST
  1

  9
$DIMAPOST
  1

  9
$DIMALT
 70
0
  9
$DIMALTD
 70
3
  9
$DIMALTF
 40
0.03937007874
  9
$DIMLFAC
 40
1.0
  9
$DIMTOFL
 70
1
  9
$DIMTVP
 40
0.0
  9
$DIMTIX
 70
0
  9
$DIMSOXD
 70
0
  9
$DIMSAH
 70
0
  9
$DIMBLK1
  1

  9
$DIMBLK2
  1

  9
$DIMSTYLE
  2
ISO-25
  9
$DIMCLRD
 70
0
  9
$DIMCLRE
 70
0
  9
$DIMCLRT
 70
0
  9
$DIMTFAC
 40
1.0
  9
$DIMGAP
 40
0.625
  9
$DIMJUST
 70
0
  9
$DIMSD1
 70
0
  9
$DIMSD2
 70
0
  9
$DIMTOLJ
 70
0
  9
$DIMTZIN
 70
8
  9
$DIMALTZ
 70
0
  9
$DIMALTTZ
 70
0
  9
$DIMUPT
 70
0
  9
$DIMDEC
 70
2
  9
$DIMTDEC
 70
2
  9
$DIMALTU
 70
2
  9
$DIMALTTD
 70
3
  9
$DIMTXSTY
  7
Standard
  9
$DIMAUNIT
 70
0
  9
$DIMADEC
 70
0
  9
$DIMALTRND
 40
0.0
  9
$DIMAZIN
 70
0
  9
$DIMDSEP
 70
44
  9
$DIMATFIT
 70
3
  9
$DIMFRAC
 70
0
  9
$DIMLDRBLK
  1

  9
$DIMLUNIT
 70
2
  9
$DIMLWD
 70
-2
  9
$DIMLWE
 70
-2
  9
$DIMTMOVE
 70
0
  9
$DIMFXL
 40
1.0
  9
$DIMFXLON
 70
0
  9
$DIMJOGANG
 40
0.785398163397
  9
$DIMTFILL
 70
0
  9
$DIMTFILLCLR
 70
0
  9
$DIMARCSYM
 70
0
  9
$DIMLTYPE
  6

  9
$DIMLTEX1
  6

  9
$DIMLTEX2
  6

  9
$DIMTXTDIRECTION
 70
0
  9
$LUNITS
 70
2
  9
$LUPREC
 70
4
  9
$SKETCHINC
 40
1.0
  9
$FILLETRAD
 40
10.0
  9
$AUNITS
 70
0
  9
$AUPREC
 70
2
  9
$MENU
  1
.
  9
$ELEVATION
 40
0.0
  9
$PELEVATION
 40
0.0
  9
$THICKNESS
 40
0.0
  9
$LIMCHECK
 70
0
  9
$CHAMFERA
 40
0.0
  9
$CHAMFERB
 40
0.0
  9
$CHAMFERC
 40
0.0
  9
$CHAMFERD
 40
0.0
  9
$SKPOLY
 70
0
  9
$TDCREATE
 40
2461307.8285069442
  9
$TDUCREATE
 40
2458532.153996898
  9
$TDUPDATE
 40
2461307.8285069442
  9
$TDUUPDATE
 40
2458532.1544311
  9
$TDINDWG
 40
0.0
  9
$TDUSRTIMER
 40
0.0
  9
$USRTIMER
 70
1
  9
$ANGBASE
 50
0.0
  9
$ANGDIR
 70
0
  9
$PDMODE
 70
0
  9
$PDSIZE
 40
0.0
  9
$PLINEWID
 40
0.0
  9
$SPLFRAME
 70
0
  9
$SPLINETYPE
 70
6
  9
$SPLINESEGS
 70
8
  9
$HANDSEED
  5
1AE
  9
$SURFTAB1
 70
6
  9
$SURFTAB2
 70
6
  9
$SURFTYPE
 70
6
  9
$SURFU
 70
6
  9
$SURFV
 70
6
  9
$UCSBASE
  2

  9
$UCSNAME
  2

  9
$UCSORG
 10
0.0
 20
0.0
 30
0.0
  9
$UCSXDIR
 10
1.0
 20
0.0
 30
0.0
  9
$UCSYDIR
 10
0.0
 20
1.0
 30
0.0
  9
$UCSORTHOREF
  2

  9
$UCSORTHOVIEW
 70
0
  9
$UCSORGTOP
 10
0.0
 20
0.0
 30
0.0
  9
$UCSORGBOTTOM
 10
0.0
 20
0.0
 30
0.0
  9
$UCSORGLEFT
 10
0.0
 20
0.0
 30
0.0
  9
$UCSORGRIGHT
 10
0.0
 20
0.0
 30
0.0
  9
$UCSORGFRONT
 10
0.0
 20
0.0
 30
0.0
  9
$UCSORGBACK
 10
0.0
 20
0.0
 30
0.0
  9
$PUCSBASE
  2

  9
$PUCSNAME
  2

  9
$PUCSORG
 10
0.0
 20
0.0
 30
0.0
  9
$PUCSXDIR
 10
1.0
 20
0.0
 30
0.0
  9
$PUCSYDIR
 10
0.0
 20
1.0
 30
0.0
  9
$PUCSORTHOREF
  2

  9
$PUCSORTHOVIEW
 70
0
  9
$PUCSORGTOP
 10
0.0
 20
0.0
 30
0.0
  9
$PUCSORGBOTTOM
 10
0.0
 20
0.0
 30
0.0
  9
$PUCSORGLEFT
 10
0.0
 20
0.0
 30
0.0
  9
$PUCSORGRIGHT
 10
0.0
 20
0.0
 30
0.0
  9
$PUCSORGFRONT
 10
0.0
 20
0.0
 30
0.0
  9
$PUCSORGBACK
 10
0.0
 20
0.0
 30
0.0
  9
$USERI1
 70
0
  9
$USERI2
 70
0
  9
$USERI3
 70
0
  9
$USERI4
 70
0
  9
$USERI5
 70
0
  9
$USERR1
 40
0.0
  9
$USERR2
 40
0.0
  9
$USERR3
 40
0.0
  9
$USERR4
 40
0.0
  9
$USERR5
 40
0.0
  9
$WORLDVIEW
 70
1
  9
$SHADEDGE
 70
3
  9
$SHADEDIF
 70
70
  9
$TILEMODE
 70
1
  9
$MAXACTVP
 70
64
  9
$PINSBASE
 10
0.0
 20
0.0
 30
0.0
  9
$PLIMCHECK
 70
0
  9
$PEXTMIN
 10
1e+20
 20
1e+20
 30
1e+20
  9
$PEXTMAX
 10
-1e+20
 20
-1e+20
 30
-1e+20
  9
$PLIMMIN
 10
0.0
 20
0.0
  9
$PLIMMAX
 10
420.0
 20
297.0
  9
$UNITMODE
 70
0
  9
$VISRETAIN
 70
1
  9
$PLINEGEN
 70
0
  9
$PSLTSCALE
 70
1
  9
$TREEDEPTH
 70
3020
  9
$CMLSTYLE
  2
Standard
  9
$CMLJUST
 70
0
  9
$CMLSCALE
 40
20.0
  9
$PROXYGRAPHICS
 70
1
  9
$MEASUREMENT
 70
1
  9
$CELWEIGHT
370
-1
  9
$ENDCAPS
280
0
  9
$JOINSTYLE
280
0
  9
$LWDISPLAY
290
0
  9
$INSUNITS
 70
1
  9
$HYPERLINKBASE
  1

  9
$STYLESHEET
  1

  9
$XEDIT
290
1
  9
$CEPSNTYPE
380
0
  9
$PSTYLEMODE
290
1
  9
$FINGERPRINTGUID
  2
{BE987CC6-FF8A-4B3F-965A-8BA3FF347D96}
  9
$VERSIONGUID
  2
{D61B391D-5C70-400C-BC25-01DCDCB7419E}
  9
$EXTNAMES
290
1
  9
$PSVPSCALE
 40
0.0
  9
$OLESTARTUP
290
0
  9
$SORTENTS
280
127
  9
$INDEXCTL
280
0
  9
$HIDETEXT
280
1
  9
$XCLIPFRAME
280
1
  9
$HALOGAP
280
0
  9
$OBSCOLOR
 70
257
  9
$OBSLTYPE
280
0
  9
$INTERSECTIONDISPLAY
280
0
  9
$INTERSECTIONCOLOR
 70
257
  9
$DIMASSOC
280
2
  9
$PROJECTNAME
  1

  9
$CAMERADISPLAY
290
0
  9
$LENSLENGTH
 40
50.0
  9
$CAMERAHEIGHT
 40
0.0
  9
$STEPSPERSEC
 40
24.0
  9
$STEPSIZE
 40
100.0
  9
$3DDWFPREC
 40
2.0
  9
$PSOLWIDTH
 40
0.005
  9
$PSOLHEIGHT
 40
0.08
  9
$LOFTANG1
 40
1.570796326795
  9
$LOFTANG2
 40
1.570796326795
  9
$LOFTMAG1
 40
0.0
  9
$LOFTMAG2
 40
0.0
  9
$LOFTPARAM
 70
7
  9
$LOFTNORMALS
280
1
  9
$LATITUDE
 40
37.795
  9
$LONGITUDE
 40
-122.394
  9
$NORTHDIRECTION
 40
0.0
  9
$TIMEZONE
 70
-8000
  9
$LIGHTGLYPHDISPLAY
280
1
  9
$TILEMODELIGHTSYNCH
280
1
  9
$CMATERIAL
347
20
  9
$SOLIDHIST
280
0
  9
$SHOWHIST
280
1
  9
$DWFFRAME
280
2
  9
$DGNFRAME
280
2
  9
$REALWORLDSCALE
290
1
  9
$INTERFERECOLOR
 62
256
  9
$CSHADOW
280
0
  9
$SHADOWPLANELOCATION
 40
0.0
  0
ENDSEC
  0
SECTION
  2
CLASSES
  0
CLASS
  1
ACDBDICTIONARYWDFLT
  2
AcDbDictionaryWithDefault
  3
ObjectDBX Classes
 90
0
 91
0
280
0
281
0
  0
CLASS
  1
SUN
  2
AcDbSun
  3
SCENEOE
 90
1153
 91
0
280
0
281
0
  0
CLASS
  1
VISUALSTYLE
  2
AcDbVisualStyle
  3
ObjectDBX Classes
 90
4095
 91
0
280
0
281
0
  0
CLASS
  1
MATERIAL
  2
AcDbMaterial
  3
ObjectDBX Classes
 90
1153
 91
0
280
0
281
0
  0
CLASS
  1
SCALE
  2
AcDbScale
  3
ObjectDBX Classes
 90
1153
 91
0
280
0
281
0
  0
CLASS
  1
TABLESTYLE
  2
AcDbTableStyle
  3
ObjectDBX Classes
 90
4095
 91
0
280
0
281
0
  0
CLASS
  1
MLEADERSTYLE
  2
AcDbMLeaderStyle
  3
ACDB_MLEADERSTYLE_CLASS
 90
4095
 91
0
280
0
281
0
  0
CLASS
  1
DICTIONARYVAR
  2
AcDbDictionaryVar
  3
ObjectDBX Classes
 90
0
 91
0
280
0
281
0
  0
CLASS
  1
CELLSTYLEMAP
  2
AcDbCellStyleMap
  3
ObjectDBX Classes
 90
1152
 91
0
280
0
281
0
  0
CLASS
  1
MENTALRAYRENDERSETTINGS
  2
AcDbMentalRayRenderSettings
  3
SCENEOE
 90
1024
 91
0
280
0
281
0
  0
CLASS
  1
ACDBDETAILVIEWSTYLE
  2
AcDbDetailViewStyle
  3
ObjectDBX Classes
 90
1025
 91
0
280
0
281
0
  0
CLASS
  1
ACDBSECTIONVIEWSTYLE
  2
AcDbSectionViewStyle
  3
ObjectDBX Classes
 90
1025
 91
0
280
0
281
0
  0
CLASS
  1
RASTERVARIABLES
  2
AcDbRasterVariables
  3
ISM
 90
0
 91
0
280
0
281
0
  0
CLASS
  1
LAYOUT
  2
AcDbLayout
  3
ObjectDBX Classes
 90
0
 91
0
280
0
281
0
  0
CLASS
  1
ACDBPLACEHOLDER
  2
AcDbPlaceHolder
  3
ObjectDBX Classes
 90
0
 91
0
280
0
281
0
  0
ENDSEC
  0
SECTION
  2
TABLES
  0
TABLE
  2
VPORT
  5
8
330
0
100
AcDbSymbolTable
 70
1
  0
VPORT
  5
23
330
8
100
AcDbSymbolTableRecord
100
AcDbViewportTableRecord
  2
*Active
 70
0
 10
0.0
 20
0.0
 11
1.0
 21
1.0
 12
0.0
 22
0.0
 13
0.0
 23
0.0
 14
0.5
 24
0.5
 15
0.5
 25
0.5
 16
0.0
 26
0.0
 36
1.0
 17
0.0
 27
0.0
 37
0.0
 40
1000.0
 41
1.34
 42
50.0
 43
0.0
 44
0.0
 50
0.0
 51
0.0
 71
0
 72
1000
 73
1
 74
3
 75
0
 76
0
 77
0
 78
0
281
0
 65
0
146
0.0
  0
ENDTAB
  0
TABLE
  2
LTYPE
  5
2
330
0
100
AcDbSymbolTable
 70
4
  0
LTYPE
  5
24
330
2
100
AcDbSymbolTableRecord
100
AcDbLinetypeTableRecord
  2
ByBlock
 70
0
  3

 72
65
 73
0
 40
0.0
  0
LTYPE
  5
25
330
2
100
AcDbSymbolTableRecord
100
AcDbLinetypeTableRecord
  2
ByLayer
 70
0
  3

 72
65
 73
0
 40
0.0
  0
LTYPE
  5
26
330
2
100
AcDbSymbolTableRecord
100
AcDbLinetypeTableRecord
  2
Continuous
 70
0
  3

 72
65
 73
0
 40
0.0
  0
LTYPE
  5
1A8
330
2
100
AcDbSymbolTableRecord
100
AcDbLinetypeTableRecord
  2
KM_SOLID
 70
0
  3
开目实线
 72
65
 73
0
 40
0.0
  0
ENDTAB
  0
TABLE
  2
LAYER
  5
1
330
0
100
AcDbSymbolTable
 70
6
  0
LAYER
  5
27
330
1
100
AcDbSymbolTableRecord
100
AcDbLayerTableRecord
  2
0
 70
0
 62
7
  6
Continuous
370
-3
390
13
347
21
  0
LAYER
  5
28
330
1
100
AcDbSymbolTableRecord
100
AcDbLayerTableRecord
  2
Defpoints
 70
0
 62
7
  6
Continuous
290
0
370
-3
390
13
347
21
  0
LAYER
  5
1A4
330
1
100
AcDbSymbolTableRecord
100
AcDbLayerTableRecord
  2
KETI2095DXF095CONTINUOUS095LINE0
 70
0
 62
255
  6
KM_SOLID
370
13
390
13
347
21
  0
LAYER
  5
1A5
330
1
100
AcDbSymbolTableRecord
100
AcDbLayerTableRecord
  2
GAI095DXF095CONTINUOUS095LINE0
 70
0
 62
255
  6
KM_SOLID
370
13
390
13
347
21
  0
LAYER
  5
1A6
330
1
100
AcDbSymbolTableRecord
100
AcDbLayerTableRecord
  2
粗线层1
 70
0
 62
3
  6
KM_SOLID
370
40
390
13
347
21
  0
LAYER
  5
1A7
330
1
100
AcDbSymbolTableRecord
100
AcDbLayerTableRecord
  2
粗线层0
 70
0
 62
3
  6
KM_SOLID
370
40
390
13
347
21
  0
ENDTAB
  0
TABLE
  2
STYLE
  5
5
330
0
100
AcDbSymbolTable
 70
1
  0
STYLE
  5
29
330
5
100
AcDbSymbolTableRecord
100
AcDbTextStyleTableRecord
  2
Standard
 70
0
 40
0.0
 41
1.0
 50
0.0
 71
0
 42
2.5
  3
txt
  4

  0
ENDTAB
  0
TABLE
  2
VIEW
  5
7
330
0
100
AcDbSymbolTable
 70
0
  0
ENDTAB
  0
TABLE
  2
UCS
  5
6
330
0
100
AcDbSymbolTable
 70
0
  0
ENDTAB
  0
TABLE
  2
APPID
  5
3
330
0
100
AcDbSymbolTable
 70
3
  0
APPID
  5
2A
330
3
100
AcDbSymbolTableRecord
100
AcDbRegAppTableRecord
  2
ACAD
 70
0
  0
APPID
  5
1AB
330
3
100
AcDbSymbolTableRecord
100
AcDbRegAppTableRecord
  2
HATCHBACKGROUNDCOLOR
 70
0
  0
APPID
  5
1AC
330
3
100
AcDbSymbolTableRecord
100
AcDbRegAppTableRecord
  2
EZDXF
 70
0
  0
ENDTAB
  0
TABLE
  2
DIMSTYLE
  5
4
330
0
100
AcDbSymbolTable
 70
1
100
AcDbDimStyleTable
  0
DIMSTYLE
105
2B
330
4
100
AcDbSymbolTableRecord
100
AcDbDimStyleTableRecord
  2
Standard
 70
0
 40
1.0
 41
2.5
 42
0.625
 43
3.75
 44
1.25
 45
0.0
 46
0.0
 47
0.0
 48
0.0
 49
2.5
140
2.5
141
2.5
142
0.0
143
0.03937007874
144
1.0
145
0.0
146
1.0
147
0.625
148
0.0
 69
0
 70
0
 71
0
 72
0
 73
0
 74
0
 75
0
 76
0
 77
1
 78
8
 79
3
170
0
171
3
172
1
173
0
174
0
175
0
176
0
177
0
178
0
179
2
271
2
272
2
273
2
274
3
275
0
276
0
277
2
278
44
279
0
280
0
281
0
282
0
283
0
284
8
285
0
286
0
288
0
289
3
290
0
371
-2
372
-2
  0
ENDTAB
  0
TABLE
  2
BLOCK_RECORD
  5
9
330
0
100
AcDbSymbolTable
 70
3
  0
BLOCK_RECORD
  5
17
330
9
100
AcDbSymbolTableRecord
100
AcDbBlockTableRecord
  2
*Model_Space
340
1A
 70
0
280
1
281
0
  0
BLOCK_RECORD
  5
1B
330
9
100
AcDbSymbolTableRecord
100
AcDbBlockTableRecord
  2
*Paper_Space
340
1E
 70
0
280
1
281
0
  0
BLOCK_RECORD
  5
2F
330
9
100
AcDbSymbolTableRecord
100
AcDbBlockTableRecord
  2
nxb63-2
340
0
 70
0
280
1
281
0
  0
ENDTAB
  0
ENDSEC
  0
SECTION
  2
BLOCKS
  0
BLOCK
  5
18
330
17
100
AcDbEntity
  8
0
100
AcDbBlockBegin
  2
*Model_Space
 70
0
 10
0.0
 20
0.0
 30
0.0
  3
*Model_Space
  1

  0
ENDBLK
  5
19
330
17
100
AcDbEntity
  8
0
100
AcDbBlockEnd
  0
BLOCK
  5
1C
330
1B
100
AcDbEntity
  8
0
100
AcDbBlockBegin
  2
*Paper_Space
 70
0
 10
0.0
 20
0.0
 30
0.0
  3
*Paper_Space
  1

  0
ENDBLK
  5
1D
330
1B
100
AcDbEntity
  8
0
100
AcDbBlockEnd
  0
BLOCK
  5
30
330
2F
100
AcDbEntity
  8
0
100
AcDbBlockBegin
  2
nxb63-2
 70
0
 10
0.0
 20
0.0
 30
0.0
  3
nxb63-2
  1

  0
LINE
  5
32
330
2F
100
AcDbEntity
  8
粗线层1
 62
7
100
AcDbLine
 10
29676.75578264677
 20
-130700.7757362178
 30
0.0
 11
29683.85578264678
 21
-130698.8757362178
 31
0.0
  0
LINE
  5
33
330
2F
100
AcDbEntity
  8
粗线层1
 62
7
100
AcDbLine
 10
29671.18975724296
 20
-130720.0410674109
 30
0.0
 11
29672.05578264677
 21
-130718.541067411
 31
0.0
  0
LINE
  5
34
330
2F
100
AcDbEntity
  8
粗线层1
 62
7
100
AcDbLine
 10
29697.80517279997
 20
-130698.8757362178
 30
0.0
 11
29709.55578264677
 21
-130698.8757362178
 31
0.0
  0
LINE
  5
35
330
2F
100
AcDbEntity
  8
粗线层1
 62
7
100
AcDbLine
 10
29683.85578264678
 20
-130698.8757362178
 30
0.0
 11
29693.70639249357
 21
-130698.8757362178
 31
0.0
  0
LINE
  5
36
330
2F
100
AcDbEntity
  8
粗线层1
 62
7
100
AcDbLine
 10
29704.45578264676
 20
-130700.3757362178
 30
0.0
 11
29708.45578264677
 21
-130700.3757362178
 31
0.0
  0
LINE
  5
37
330
2F
100
AcDbEntity
  8
粗线层1
 62
7
100
AcDbLine
 10
29710.35578264677
 20
-130700.3757362178
 30
0.0
 11
29711.55578264677
 21
-130700.3757362178
 31
0.0
  0
LINE
  5
38
330
2F
100
AcDbEntity
  8
粗线层1
 62
7
100
AcDbLine
 10
29668.55578264677
 20
-130700.7757362178
 30
0.0
 11
29677.91628210937
 21
-130700.7757362178
 31
0.0
  0
LINE
  5
39
330
2F
100
AcDbEntity
  8
GAI095DXF095CONTINUOUS095LINE0
  6
KM_SOLID
 62
7
100
AcDbLine
 10
29732.65578264676
 20
-130714.7757362178
 30
0.0
 11
29733.05578264677
 21
-130715.1757362178
 31
0.0
  0
LINE
  5
3A
330
2F
100
AcDbEntity
  8
粗线层1
 62
7
100
AcDbLine
 10
29741.46545674656
 20
-130751.5992231251
 30
0.0
 11
29741.45559669807
 21
-130751.458145914
 31
0.0
  0
LINE
  5
3B
330
2F
100
AcDbEntity
  8
粗线层1
 62
7
100
AcDbLine
 10
29694.45578264677
 20
-130701.7257362178
 30
0.0
 11
29700.45578264676
 21
-130701.7257362178
 31
0.0
  0
LINE
  5
3C
330
2F
100
AcDbEntity
  8
粗线层1
 62
7
100
AcDbLine
 10
29685.45578264677
 20
-130701.7257362178
 30
0.0
 11
29691.45578264677
 21
-130701.7257362178
 31
0.0
  0
LINE
  5
3D
330
2F
100
AcDbEntity
  8
粗线层1
 62
7
100
AcDbLine
 10
29691.45578264677
 20
-130702.7257362178
 30
0.0
 11
29685.45578264677
 21
-130702.7257362178
 31
0.0
  0
LINE
  5
3E
330
2F
100
AcDbEntity
  8
粗线层1
 62
7
100
AcDbLine
 10
29700.45578264676
 20
-130702.7257362178
 30
0.0
 11
29694.45578264677
 21
-130702.7257362178
 31
0.0
  0
LINE
  5
3F
330
2F
100
AcDbEntity
  8
粗线层1
 62
7
100
AcDbLine
 10
29694.45578264677
 20
-130703.7257362178
 30
0.0
 11
29700.45578264676
 21
-130703.7257362178
 31
0.0
  0
LINE
  5
40
330
2F
100
AcDbEntity
  8
粗线层1
 62
7
100
AcDbLine
 10
29685.45578264677
 20
-130703.7257362178
 30
0.0
 11
29691.45578264677
 21
-130703.7257362178
 31
0.0
  0
LINE
  5
41
330
2F
100
AcDbEntity
  8
粗线层1
 62
7
100
AcDbLine
 10
29691.45578264677
 20
-130704.7257362178
 30
0.0
 11
29685.45578264677
 21
-130704.7257362178
 31
0.0
  0
LINE
  5
42
330
2F
100
AcDbEntity
  8
粗线层1
 62
7
100
AcDbLine
 10
29700.45578264676
 20
-130704.7257362178
 30
0.0
 11
29694.45578264677
 21
-130704.7257362178
 31
0.0
  0
LINE
  5
43
330
2F
100
AcDbEntity
  8
粗线层1
 62
7
100
AcDbLine
 10
29711.95578264676
 20
-130700.7757362178
 30
0.0
 11
29711.55578264677
 21
-130700.3757362178
 31
0.0
  0
LINE
  5
44
330
2F
100
AcDbEntity
  8
粗线层1
 62
7
100
AcDbLine
 10
29709.95578264676
 20
-130699.2757362178
 30
0.0
 11
29709.55578264677
 21
-130698.8757362178
 31
0.0
  0
LINE
  5
45
330
2F
100
AcDbEntity
  8
粗线层1
 62
7
100
AcDbLine
 10
29737.00181870467
 20
-130749.2863066824
 30
0.0
 11
29737.02094205517
 21
-130749.7000055436
 31
0.0
  0
LINE
  5
46
330
2F
100
AcDbEntity
  8
粗线层1
 62
7
100
AcDbLine
 10
29737.82184714417
 20
-130750.4643819437
 30
0.0
 11
29737.82482184167
 21
-130750.6057720112
 31
0.0
  0
LINE
  5
47
330
2F
100
AcDbEntity
  8
粗线层1
 62
7
100
AcDbLine
 10
29734.68250262896
 20
-130753.6188117202
 30
0.0
 11
29734.66578064757
 21
-130753.4783824664
 31
0.0
  0
LINE
  5
48
330
2F
100
AcDbEntity
  8
粗线层1
 62
7
100
AcDbLine
 10
29735.79012685547
 20
-130756.603284542
 30
0.0
 11
29735.79998690397
 21
-130756.7443617531
 31
0.0
  0
LINE
  5
49
330
2F
100
AcDbEntity
  8
粗线层1
 62
7
100
AcDbLine
 10
29733.39883711746
 20
-130753.4307658047
 30
0.0
 11
29733.42841726277
 21
-130753.8539974375
 31
0.0
  0
LINE
  5
4A
330
2F
100
AcDbEntity
  8
粗线层1
 62
7
100
AcDbLine
 10
29733.05578264677
 20
-130752.8356162178
 30
0.0
 11
29733.05578264677
 21
-130759.3757362178
 31
0.0
  0
LINE
  5
4B
330
2F
100
AcDbEntity
  8
粗线层1
 62
7
100
AcDbLine
 10
29733.05578264677
 20
-130715.1757362178
 30
0.0
 11
29733.05578264677
 21
-130738.7158362178
 31
0.0
  0
LINE
  5
4C
330
2F
100
AcDbEntity
  8
粗线层1
 62
7
100
AcDbLine
 10
29732.65578264676
 20
-130752.8356162178
 30
0.0
 11
29732.65578264676
 21
-130759.7757362178
 31
0.0
  0
LINE
  5
4D
330
2F
100
AcDbEntity
  8
粗线层1
 62
7
100
AcDbLine
 10
29732.65578264676
 20
-130714.7757362178
 30
0.0
 11
29732.65578264676
 21
-130738.7158362178
 31
0.0
  0
LINE
  5
4E
330
2F
100
AcDbEntity
  8
粗线层1
 62
7
100
AcDbLine
 10
29710.35578264677
 20
-130709.6757362178
 30
0.0
 11
29711.55578264677
 21
-130709.6757362178
 31
0.0
  0
LINE
  5
4F
330
2F
100
AcDbEntity
  8
粗线层1
 62
7
100
AcDbLine
 10
29678.45578264677
 20
-130711.8757362178
 30
0.0
 11
29675.05578264677
 21
-130711.8757362178
 31
0.0
  0
LINE
  5
50
330
2F
100
AcDbEntity
  8
粗线层1
 62
7
100
AcDbLine
 10
29713.15578264676
 20
-130714.7757362178
 30
0.0
 11
29732.65578264676
 21
-130714.7757362178
 31
0.0
  0
LINE
  5
51
330
2F
100
AcDbEntity
  8
粗线层1
 62
7
100
AcDbLine
 10
29709.55578264677
 20
-130711.1757362178
 30
0.0
 11
29714.35578264678
 21
-130715.9757362178
 31
0.0
  0
LINE
  5
52
330
2F
100
AcDbEntity
  8
粗线层1
 62
7
100
AcDbLine
 10
29735.98841789586
 20
-130754.4795316556
 30
0.0
 11
29735.92639450847
 21
-130754.3487272442
 31
0.0
  0
LINE
  5
53
330
2F
100
AcDbEntity
  8
粗线层1
 62
7
100
AcDbLine
 10
29723.95578264677
 20
-130735.1601815926
 30
0.0
 11
29723.95578264677
 21
-130725.2757362178
 31
0.0
  0
LINE
  5
54
330
2F
100
AcDbEntity
  8
粗线层1
 62
7
100
AcDbLine
 10
29674.95578264676
 20
-130722.5372099438
 30
0.0
 11
29673.29736498496
 21
-130722.8897174997
 31
0.0
  0
LINE
  5
55
330
2F
100
AcDbEntity
  8
粗线层0
 62
7
100
AcDbLine
 10
29713.45578264676
 20
-130723.2757362178
 30
0.0
 11
29721.45578264676
 21
-130723.2757362178
 31
0.0
  0
LINE
  5
56
330
2F
100
AcDbEntity
  8
粗线层0
 62
7
100
AcDbLine
 10
29721.45578264676
 20
-130723.1757446146
 30
0.0
 11
29714.01714428393
 21
-130723.1757446146
 31
0.0
  0
LINE
  5
57
330
2F
100
AcDbEntity
  8
粗线层1
 62
7
100
AcDbLine
 10
29703.50679478831
 20
-130730.2436859783
 30
0.0
 11
29703.50679478831
 21
-130728.3076801194
 31
0.0
  0
LINE
  5
58
330
2F
100
AcDbEntity
  8
粗线层1
 62
7
100
AcDbLine
 10
29711.55578292986
 20
-130709.6757365009
 30
0.0
 11
29711.95578264676
 21
-130709.2757362178
 31
0.0
  0
LINE
  5
59
330
2F
100
AcDbEntity
  8
粗线层1
 62
7
100
AcDbLine
 10
29673.21420030856
 20
-130727.2073946975
 30
0.0
 11
29675.83026642937
 21
-130726.6513326778
 31
0.0
  0
LINE
  5
5A
330
2F
100
AcDbEntity
  8
粗线层1
 62
7
100
AcDbLine
 10
29673.05578264677
 20
-130718.541067411
 30
0.0
 11
29672.05578264677
 21
-130718.541067411
 31
0.0
  0
LINE
  5
5B
330
2F
100
AcDbEntity
  8
粗线层1
 62
7
100
AcDbLine
 10
29667.85578264677
 20
-130720.0410674109
 30
0.0
 11
29671.18975724296
 21
-130720.0410674109
 31
0.0
  0
LINE
  5
5C
330
2F
100
AcDbEntity
  8
粗线层0
 62
7
100
AcDbLine
 10
29714.01714428393
 20
-130716.3757278235
 30
0.0
 11
29721.45578264676
 21
-130716.3757278235
 31
0.0
  0
LINE
  5
5D
330
2F
100
AcDbEntity
  8
粗线层1
 62
7
100
AcDbLine
 10
29740.85184766106
 20
-130750.9332772662
 30
0.0
 11
29741.45559669717
 21
-130751.4581459151
 31
0.0
  0
LINE
  5
5E
330
2F
100
AcDbEntity
  8
粗线层1
 62
7
100
AcDbLine
 10
29740.71077044986
 20
-130750.9431373144
 30
0.0
 11
29741.46545674667
 21
-130751.599223127
 31
0.0
  0
LINE
  5
5F
330
2F
100
AcDbEntity
  8
粗线层1
 62
7
100
AcDbLine
 10
29737.66375246377
 20
-130748.9821508331
 30
0.0
 11
29739.29849211837
 21
-130750.4033101929
 31
0.0
  0
LINE
  5
60
330
2F
100
AcDbEntity
  8
粗线层1
 62
7
100
AcDbLine
 10
29737.24052083076
 20
-130749.0117309781
 30
0.0
 11
29739.10166639317
 21
-130750.6297160979
 31
0.0
  0
LINE
  5
61
330
2F
100
AcDbEntity
  8
粗线层1
 62
7
100
AcDbLine
 10
29736.71134811547
 20
-130749.6204309212
 30
0.0
 11
29735.72042207046
 21
-130748.6797295053
 31
0.0
  0
LINE
  5
62
330
2F
100
AcDbEntity
  8
粗线层1
 62
7
100
AcDbLine
 10
29737.73481896937
 20
-130749.9673374012
 30
0.0
 11
29738.39842038156
 21
-130750.6015798966
 31
0.0
  0
LINE
  5
63
330
2F
100
AcDbEntity
  8
粗线层1
 62
7
100
AcDbLine
 10
29738.19080142677
 20
-130750.8181313059
 30
0.0
 11
29737.02093855386
 21
-130749.7000021968
 31
0.0
  0
LINE
  5
64
330
2F
100
AcDbEntity
  8
粗线层1
 62
7
100
AcDbLine
 10
29737.82482184167
 20
-130750.6057720112
 30
0.0
 11
29737.46390992927
 21
-130750.2597335863
 31
0.0
  0
LINE
  5
65
330
2F
100
AcDbEntity
  8
粗线层1
 62
7
100
AcDbLine
 10
29738.05238603467
 20
-130750.9624960496
 30
0.0
 11
29735.70682334556
 21
-130748.7135959978
 31
0.0
  0
LINE
  5
66
330
2F
100
AcDbEntity
  8
粗线层1
 62
7
100
AcDbLine
 10
29737.77555529476
 20
-130751.2512255795
 30
0.0
 11
29735.54616264497
 21
-130749.1137081012
 31
0.0
  0
LINE
  5
67
330
2F
100
AcDbEntity
  8
粗线层1
 62
7
100
AcDbLine
 10
29737.20673200547
 20
-130751.2735799408
 30
0.0
 11
29735.83323779337
 21
-130749.9566885957
 31
0.0
  0
LINE
  5
68
330
2F
100
AcDbEntity
  8
粗线层1
 62
7
100
AcDbLine
 10
29737.06831663547
 20
-130751.4179447057
 30
0.0
 11
29735.69482242347
 21
-130750.1010533606
 31
0.0
  0
LINE
  5
69
330
2F
100
AcDbEntity
  8
粗线层1
 62
7
100
AcDbLine
 10
29704.50683710581
 20
-130728.4117220031
 30
0.0
 11
29704.50683710581
 21
-130730.1396440947
 31
0.0
  0
LINE
  5
6A
330
2F
100
AcDbEntity
  8
粗线层1
 62
7
100
AcDbLine
 10
29706.50685283881
 20
-130728.6107796202
 30
0.0
 11
29706.50685283881
 21
-130728.4117220031
 31
0.0
  0
LINE
  5
6B
330
2F
100
AcDbEntity
  8
粗线层1
 62
7
100
AcDbLine
 10
29706.50685283881
 20
-130730.1396440947
 30
0.0
 11
29706.50685283881
 21
-130729.7608213951
 31
0.0
  0
LINE
  5
6C
330
2F
100
AcDbEntity
  8
粗线层1
 62
7
100
AcDbLine
 10
29707.50682625431
 20
-130729.7608213951
 30
0.0
 11
29707.50682625431
 21
-130730.2436859783
 31
0.0
  0
LINE
  5
6D
330
2F
100
AcDbEntity
  8
粗线层1
 62
7
100
AcDbLine
 10
29707.50682625431
 20
-130728.3076801194
 30
0.0
 11
29707.50682625431
 21
-130728.6107796202
 31
0.0
  0
LINE
  5
6E
330
2F
100
AcDbEntity
  8
粗线层1
 62
7
100
AcDbLine
 10
29671.15578264676
 20
-130752.241067411
 30
0.0
 11
29668.47293993436
 21
-130754.9239101233
 31
0.0
  0
LINE
  5
6F
330
2F
100
AcDbEntity
  8
粗线层1
 62
7
100
AcDbLine
 10
29667.55578264677
 20
-130757.5410674109
 30
0.0
 11
29669.46791468117
 21
-130755.6289353765
 31
0.0
  0
LINE
  5
70
330
2F
100
AcDbEntity
  8
粗线层0
 62
7
100
AcDbLine
 10
29721.45578264676
 20
-130716.2757362178
 30
0.0
 11
29713.45578264676
 21
-130716.2757362178
 31
0.0
  0
LINE
  5
71
330
2F
100
AcDbEntity
  8
粗线层1
 62
7
100
AcDbLine
 10
29722.45578264677
 20
-130723.7757362178
 30
0.0
 11
29704.95578264677
 21
-130723.7757362178
 31
0.0
  0
LINE
  5
72
330
2F
100
AcDbEntity
  8
粗线层1
 62
7
100
AcDbLine
 10
29707.8568479556
 20
-130731.1107476101
 30
0.0
 11
29707.8568479556
 21
-130727.4406873896
 31
0.0
  0
LINE
  5
73
330
2F
100
AcDbEntity
  8
粗线层1
 62
7
100
AcDbLine
 10
29708.8559852466
 20
-130729.5757508657
 30
0.0
 11
29708.8559852466
 21
-130731.1107476101
 31
0.0
  0
LINE
  5
74
330
2F
100
AcDbEntity
  8
粗线层1
 62
7
100
AcDbLine
 10
29708.8559852466
 20
-130727.4406873896
 30
0.0
 11
29708.8559852466
 21
-130728.7757307921
 31
0.0
  0
LINE
  5
75
330
2F
100
AcDbEntity
  8
粗线层1
 62
7
100
AcDbLine
 10
29710.83595052391
 20
-130728.1107584615
 30
0.0
 11
29710.83595052391
 21
-130727.4406873896
 31
0.0
  0
LINE
  5
76
330
2F
100
AcDbEntity
  8
粗线层1
 62
7
100
AcDbLine
 10
29710.83595052391
 20
-130731.1107476101
 30
0.0
 11
29710.83595052391
 21
-130729.5757508657
 31
0.0
  0
LINE
  5
77
330
2F
100
AcDbEntity
  8
粗线层1
 62
7
100
AcDbLine
 10
29711.67097276761
 20
-130727.2757362178
 30
0.0
 11
29711.0009705976
 21
-130727.2757362178
 31
0.0
  0
LINE
  5
78
330
2F
100
AcDbEntity
  8
粗线层1
 62
7
100
AcDbLine
 10
29716.8310367854
 20
-130727.2757362178
 30
0.0
 11
29720.63081037111
 21
-130727.2757362178
 31
0.0
  0
LINE
  5
79
330
2F
100
AcDbEntity
  8
粗线层1
 62
7
100
AcDbLine
 10
29715.4809727666
 20
-130727.2757362178
 30
0.0
 11
29716.15097493661
 21
-130727.2757362178
 31
0.0
  0
LINE
  5
7A
330
2F
100
AcDbEntity
  8
粗线层1
 62
7
100
AcDbLine
 10
29712.50096517191
 20
-130727.2757362178
 30
0.0
 11
29712.89908040621
 21
-130727.2757362178
 31
0.0
  0
LINE
  5
7B
330
2F
100
AcDbEntity
  8
粗线层1
 62
7
100
AcDbLine
 10
29708.0217991275
 20
-130727.2757362178
 30
0.0
 11
29708.69096517291
 21
-130727.2757362178
 31
0.0
  0
LINE
  5
7C
330
2F
100
AcDbEntity
  8
粗线层1
 62
7
100
AcDbLine
 10
29704.56919333411
 20
-130727.2757362178
 30
0.0
 11
29706.4445655124
 21
-130727.2757362178
 31
0.0
  0
LINE
  5
7D
330
2F
100
AcDbEntity
  8
粗线层1
 62
7
100
AcDbLine
 10
29706.17081822511
 20
-130728.0757562914
 30
0.0
 11
29704.8428028175
 21
-130728.0757562914
 31
0.0
  0
LINE
  5
7E
330
2F
100
AcDbEntity
  8
粗线层1
 62
7
100
AcDbLine
 10
29720.63081037111
 20
-130728.0757562914
 30
0.0
 11
29719.1559250227
 21
-130728.0757562914
 31
0.0
  0
LINE
  5
7F
330
2F
100
AcDbEntity
  8
粗线层1
 62
7
100
AcDbLine
 10
29716.8310367854
 20
-130728.0757562914
 30
0.0
 11
29718.15602050901
 21
-130728.0757562914
 31
0.0
  0
LINE
  5
80
330
2F
100
AcDbEntity
  8
粗线层1
 62
7
100
AcDbLine
 10
29711.67097276761
 20
-130728.2757096333
 30
0.0
 11
29711.0009705976
 21
-130728.2757096333
 31
0.0
  0
LINE
  5
81
330
2F
100
AcDbEntity
  8
粗线层1
 62
7
100
AcDbLine
 10
29707.34180618061
 20
-130728.7757307921
 30
0.0
 11
29706.67180401061
 21
-130728.7757307921
 31
0.0
  0
LINE
  5
82
330
2F
100
AcDbEntity
  8
粗线层1
 62
7
100
AcDbLine
 10
29711.71603461651
 20
-130728.7757307921
 30
0.0
 11
29708.8559852466
 21
-130728.7757307921
 31
0.0
  0
LINE
  5
83
330
2F
100
AcDbEntity
  8
粗线层1
 62
7
100
AcDbLine
 10
29708.8559852466
 20
-130729.5757508657
 30
0.0
 11
29710.83595052391
 21
-130729.5757508657
 31
0.0
  0
LINE
  5
84
330
2F
100
AcDbEntity
  8
粗线层1
 62
7
100
AcDbLine
 10
29706.67180401061
 20
-130729.5957324195
 30
0.0
 11
29707.34180618061
 21
-130729.5957324195
 31
0.0
  0
LINE
  5
85
330
2F
100
AcDbEntity
  8
粗线层1
 62
7
100
AcDbLine
 10
29704.8428028175
 20
-130730.4757476102
 30
0.0
 11
29706.17081822511
 21
-130730.4757476102
 31
0.0
  0
LINE
  5
86
330
2F
100
AcDbEntity
  8
粗线层1
 62
7
100
AcDbLine
 10
29734.26255803846
 20
-130751.7485670008
 30
0.0
 11
29735.75770342376
 21
-130752.925524707
 31
0.0
  0
LINE
  5
87
330
2F
100
AcDbEntity
  8
粗线层1
 62
7
100
AcDbLine
 10
29734.13885076606
 20
-130751.9057182361
 30
0.0
 11
29735.63399615137
 21
-130753.0826759423
 31
0.0
  0
LINE
  5
88
330
2F
100
AcDbEntity
  8
粗线层1
 62
7
100
AcDbLine
 10
29733.23819311417
 20
-130751.7182756534
 30
0.0
 11
29735.69098405086
 21
-130753.6490786535
 31
0.0
  0
LINE
  5
89
330
2F
100
AcDbEntity
  8
粗线层1
 62
7
100
AcDbLine
 10
29732.89777163987
 20
-130751.9593643598
 30
0.0
 11
29735.44356950607
 21
-130753.9633811241
 31
0.0
  0
LINE
  5
8A
330
2F
100
AcDbEntity
  8
粗线层1
 62
7
100
AcDbLine
 10
29734.66578064757
 20
-130753.4783824664
 30
0.0
 11
29735.05865873577
 21
-130753.7876506473
 31
0.0
  0
LINE
  5
8B
330
2F
100
AcDbEntity
  8
粗线层1
 62
7
100
AcDbLine
 10
29734.04783171717
 20
-130753.1192075828
 30
0.0
 11
29735.31986222507
 21
-130754.1205323526
 31
0.0
  0
LINE
  5
8C
330
2F
100
AcDbEntity
  8
粗线层1
 62
7
100
AcDbLine
 10
29735.13430130377
 20
-130754.3562591949
 30
0.0
 11
29734.41296412157
 21
-130753.7884203753
 31
0.0
  0
LINE
  5
8D
330
2F
100
AcDbEntity
  8
粗线层1
 62
7
100
AcDbLine
 10
29733.39883711746
 20
-130753.4307658042
 30
0.0
 11
29735.25998268037
 21
-130755.0487509258
 31
0.0
  0
LINE
  5
8E
330
2F
100
AcDbEntity
  8
粗线层1
 62
7
100
AcDbLine
 10
29733.42841726297
 20
-130753.8539974373
 30
0.0
 11
29735.06315691897
 21
-130755.2751567993
 31
0.0
  0
LINE
  5
8F
330
2F
100
AcDbEntity
  8
粗线层1
 62
7
100
AcDbLine
 10
29736.54481315207
 20
-130757.2593703526
 30
0.0
 11
29735.79012685537
 21
-130756.60328454
 31
0.0
  0
LINE
  5
90
330
2F
100
AcDbEntity
  8
粗线层1
 62
7
100
AcDbLine
 10
29736.40373594097
 20
-130757.2692304009
 30
0.0
 11
29735.79998690487
 21
-130756.7443617519
 31
0.0
  0
LINE
  5
91
330
2F
100
AcDbEntity
  8
粗线层1
 62
7
100
AcDbLine
 10
29711.8359928413
 20
-130728.8957579188
 30
0.0
 11
29711.8359928413
 21
-130731.1107476101
 31
0.0
  0
LINE
  5
92
330
2F
100
AcDbEntity
  8
粗线层1
 62
7
100
AcDbLine
 10
29711.8359928413
 20
-130727.4406873896
 30
0.0
 11
29711.8359928413
 21
-130728.1107584615
 31
0.0
  0
LINE
  5
93
330
2F
100
AcDbEntity
  8
粗线层1
 62
7
100
AcDbLine
 10
29711.95578264676
 20
-130709.275736217
 30
0.0
 11
29711.95578264676
 21
-130700.7757362178
 31
0.0
  0
LINE
  5
94
330
2F
100
AcDbEntity
  8
粗线层1
 62
7
100
AcDbLine
 10
29711.95578264676
 20
-130773.775736217
 30
0.0
 11
29711.95578264676
 21
-130765.2757362178
 31
0.0
  0
LINE
  5
95
330
2F
100
AcDbEntity
  8
粗线层1
 62
7
100
AcDbLine
 10
29712.33601400011
 20
-130731.1107476101
 30
0.0
 11
29712.33601400011
 21
-130727.4406873896
 31
0.0
  0
LINE
  5
96
330
2F
100
AcDbEntity
  8
粗线层1
 62
7
100
AcDbLine
 10
29711.55578264677
 20
-130764.8757362178
 30
0.0
 11
29711.55578264677
 21
-130774.1757362178
 31
0.0
  0
LINE
  5
97
330
2F
100
AcDbEntity
  8
粗线层1
 62
7
100
AcDbLine
 10
29711.55578264677
 20
-130700.3757362178
 30
0.0
 11
29711.55578264677
 21
-130709.6757362178
 31
0.0
  0
LINE
  5
98
330
2F
100
AcDbEntity
  8
粗线层1
 62
7
100
AcDbLine
 10
29713.33598741561
 20
-130731.1107476101
 30
0.0
 11
29713.33598741561
 21
-130728.7659467209
 31
0.0
  0
LINE
  5
99
330
2F
100
AcDbEntity
  8
粗线层1
 62
7
100
AcDbLine
 10
29709.95578264676
 20
-130711.5757362178
 30
0.0
 11
29709.95578264676
 21
-130699.2757362178
 31
0.0
  0
LINE
  5
9A
330
2F
100
AcDbEntity
  8
粗线层1
 62
7
100
AcDbLine
 10
29709.95578264676
 20
-130775.2757362178
 30
0.0
 11
29709.95578264676
 21
-130762.9757362178
 31
0.0
  0
LINE
  5
9B
330
2F
100
AcDbEntity
  8
粗线层1
 62
7
100
AcDbLine
 10
29709.55578264677
 20
-130711.1757362178
 30
0.0
 11
29709.55578264677
 21
-130698.8757362178
 31
0.0
  0
LINE
  5
9C
330
2F
100
AcDbEntity
  8
粗线层1
 62
7
100
AcDbLine
 10
29709.55578264677
 20
-130775.6757362178
 30
0.0
 11
29709.55578264677
 21
-130763.3757362178
 31
0.0
  0
LINE
  5
9D
330
2F
100
AcDbEntity
  8
粗线层1
 62
7
100
AcDbLine
 10
29706.4445655124
 20
-130731.2756987819
 30
0.0
 11
29704.56919333411
 21
-130731.2756987819
 31
0.0
  0
LINE
  5
9E
330
2F
100
AcDbEntity
  8
粗线层1
 62
7
100
AcDbLine
 10
29708.69096517291
 20
-130731.2756987819
 30
0.0
 11
29708.0217991275
 21
-130731.2756987819
 31
0.0
  0
LINE
  5
9F
330
2F
100
AcDbEntity
  8
粗线层1
 62
7
100
AcDbLine
 10
29711.67097276761
 20
-130731.2756987819
 30
0.0
 11
29711.0009705976
 21
-130731.2756987819
 31
0.0
  0
LINE
  5
A0
330
2F
100
AcDbEntity
  8
粗线层1
 62
7
100
AcDbLine
 10
29713.17096734191
 20
-130731.2756987819
 30
0.0
 11
29712.50096517191
 21
-130731.2756987819
 31
0.0
  0
LINE
  5
A1
330
2F
100
AcDbEntity
  8
粗线层1
 62
7
100
AcDbLine
 10
29716.15097493661
 20
-130731.2756987819
 30
0.0
 11
29715.75285970231
 21
-130731.2756987819
 31
0.0
  0
LINE
  5
A2
330
2F
100
AcDbEntity
  8
粗线层1
 62
7
100
AcDbLine
 10
29718.9909738508
 20
-130731.2756987819
 30
0.0
 11
29718.32097168091
 21
-130731.2756987819
 31
0.0
  0
LINE
  5
A3
330
2F
100
AcDbEntity
  8
粗线层1
 62
7
100
AcDbLine
 10
29715.31602159481
 20
-130727.4406873896
 30
0.0
 11
29715.31602159481
 21
-130729.7854882788
 31
0.0
  0
LINE
  5
A4
330
2F
100
AcDbEntity
  8
粗线层1
 62
7
100
AcDbLine
 10
29708.45578264677
 20
-130701.3757362178
 30
0.0
 11
29708.45578264677
 21
-130698.8757362178
 31
0.0
  0
LINE
  5
A5
330
2F
100
AcDbEntity
  8
粗线层1
 62
7
100
AcDbLine
 10
29708.45578264677
 20
-130775.6757362178
 30
0.0
 11
29708.45578264677
 21
-130773.1757362178
 31
0.0
  0
LINE
  5
A6
330
2F
100
AcDbEntity
  8
粗线层1
 62
7
100
AcDbLine
 10
29716.31592610851
 20
-130727.4406873896
 30
0.0
 11
29716.31592610851
 21
-130731.1107476101
 31
0.0
  0
LINE
  5
A7
330
2F
100
AcDbEntity
  8
粗线层1
 62
7
100
AcDbLine
 10
29716.51532869421
 20
-130727.9107362176
 30
0.0
 11
29716.51532869421
 21
-130727.4406873896
 31
0.0
  0
LINE
  5
A8
330
2F
100
AcDbEntity
  8
粗线层1
 62
7
100
AcDbLine
 10
29718.15602050901
 20
-130731.1107476101
 30
0.0
 11
29718.15602050901
 21
-130728.0757562914
 31
0.0
  0
LINE
  5
A9
330
2F
100
AcDbEntity
  8
粗线层1
 62
7
100
AcDbLine
 10
29738.63930847467
 20
-130751.4302493911
 30
0.0
 11
29738.50114812247
 21
-130751.3870242627
 31
0.0
  0
LINE
  5
AA
330
2F
100
AcDbEntity
  8
粗线层1
 62
7
100
AcDbLine
 10
29719.1559250227
 20
-130731.1107476101
 30
0.0
 11
29719.1559250227
 21
-130728.0757562914
 31
0.0
  0
LINE
  5
AB
330
2F
100
AcDbEntity
  8
粗线层1
 62
7
100
AcDbLine
 10
29704.45578264676
 20
-130701.3757362178
 30
0.0
 11
29704.45578264676
 21
-130698.8757362178
 31
0.0
  0
LINE
  5
AC
330
2F
100
AcDbEntity
  8
粗线层1
 62
7
100
AcDbLine
 10
29704.45578264676
 20
-130775.6757362178
 30
0.0
 11
29704.45578264676
 21
-130773.1757362178
 31
0.0
  0
LINE
  5
AD
330
2F
100
AcDbEntity
  8
粗线层1
 62
7
100
AcDbLine
 10
29703.45578264677
 20
-130722.2757362178
 30
0.0
 11
29703.45578264677
 21
-130698.8757362178
 31
0.0
  0
LINE
  5
AE
330
2F
100
AcDbEntity
  8
粗线层1
 62
7
100
AcDbLine
 10
29703.45578264677
 20
-130774.6757362178
 30
0.0
 11
29703.45578264677
 21
-130754.7757362178
 31
0.0
  0
LINE
  5
AF
330
2F
100
AcDbEntity
  8
粗线层1
 62
7
100
AcDbLine
 10
29720.63081037111
 20
-130727.4406873896
 30
0.0
 11
29720.63081037111
 21
-130727.9107362176
 31
0.0
  0
LINE
  5
B0
330
2F
100
AcDbEntity
  8
粗线层1
 62
7
100
AcDbLine
 10
29702.22069371087
 20
-130769.9757362178
 30
0.0
 11
29702.22069371087
 21
-130774.4757362178
 31
0.0
  0
LINE
  5
B1
330
2F
100
AcDbEntity
  8
粗线层1
 62
7
100
AcDbLine
 10
29699.69087158268
 20
-130769.9757362178
 30
0.0
 11
29699.69087158268
 21
-130774.4757362178
 31
0.0
  0
LINE
  5
B2
330
2F
100
AcDbEntity
  8
粗线层1
 62
7
100
AcDbLine
 10
29698.47384791757
 20
-130774.8071332606
 30
0.0
 11
29698.47384791757
 21
-130774.9757362178
 31
0.0
  0
LINE
  5
B3
330
2F
100
AcDbEntity
  8
粗线层1
 62
7
100
AcDbLine
 10
29711.95578264676
 20
-130765.2757362178
 30
0.0
 11
29711.55578264677
 21
-130764.8757362178
 31
0.0
  0
LINE
  5
B4
330
2F
100
AcDbEntity
  8
粗线层1
 62
7
100
AcDbLine
 10
29737.66375246356
 20
-130748.9821508329
 30
0.0
 11
29737.24052083076
 21
-130749.0117309781
 31
0.0
  0
LINE
  5
B5
330
2F
100
AcDbEntity
  8
粗线层1
 62
7
100
AcDbLine
 10
29737.60529999676
 20
-130750.2567588888
 30
0.0
 11
29737.46390992927
 21
-130750.2597335863
 31
0.0
  0
LINE
  5
B6
330
2F
100
AcDbEntity
  8
粗线层1
 62
7
100
AcDbLine
 10
29717.85390632176
 20
-130747.9514238225
 30
0.0
 11
29714.57366013737
 21
-130752.6361008723
 31
0.0
  0
LINE
  5
B7
330
2F
100
AcDbEntity
  8
粗线层1
 62
7
100
AcDbLine
 10
29734.04783551627
 20
-130753.1192105731
 30
0.0
 11
29733.63586871876
 21
-130753.1581116823
 31
0.0
  0
LINE
  5
B8
330
2F
100
AcDbEntity
  8
粗线层1
 62
7
100
AcDbLine
 10
29740.85184766117
 20
-130750.933277266
 30
0.0
 11
29740.71077045027
 21
-130750.9431373144
 31
0.0
  0
LINE
  5
B9
330
2F
100
AcDbEntity
  8
粗线层1
 62
7
100
AcDbLine
 10
29671.15578264676
 20
-130752.241067411
 30
0.0
 11
29671.45578264677
 21
-130752.241067411
 31
0.0
  0
LINE
  5
BA
330
2F
100
AcDbEntity
  8
粗线层1
 62
7
100
AcDbLine
 10
29713.34493207096
 20
-130753.2757362178
 30
0.0
 11
29704.95578264677
 21
-130753.2757362178
 31
0.0
  0
LINE
  5
BB
330
2F
100
AcDbEntity
  8
粗线层1
 62
7
100
AcDbLine
 10
29714.35578264678
 20
-130758.5757362178
 30
0.0
 11
29709.55578264677
 21
-130763.3757362178
 31
0.0
  0
LINE
  5
BC
330
2F
100
AcDbEntity
  8
粗线层1
 62
7
100
AcDbLine
 10
29734.91822948196
 20
-130753.8043726288
 30
0.0
 11
29735.05865873577
 21
-130753.7876506473
 31
0.0
  0
LINE
  5
BD
330
2F
100
AcDbEntity
  8
粗线层1
 62
7
100
AcDbLine
 10
29736.40373594077
 20
-130757.2692304011
 30
0.0
 11
29736.54481315176
 21
-130757.2593703526
 31
0.0
  0
LINE
  5
BE
330
2F
100
AcDbEntity
  8
粗线层1
 62
7
100
AcDbLine
 10
29670.35578264678
 20
-130755.241067411
 30
0.0
 11
29669.12146807177
 21
-130755.241067411
 31
0.0
  0
LINE
  5
BF
330
2F
100
AcDbEntity
  8
粗线层1
 62
7
100
AcDbLine
 10
29669.68004671547
 20
-130755.541067411
 30
0.0
 11
29673.05578264677
 21
-130755.541067411
 31
0.0
  0
LINE
  5
C0
330
2F
100
AcDbEntity
  8
粗线层1
 62
7
100
AcDbLine
 10
29732.65578264676
 20
-130759.7757362178
 30
0.0
 11
29713.15578264676
 21
-130759.7757362178
 31
0.0
  0
LINE
  5
C1
330
2F
100
AcDbEntity
  8
粗线层1
 62
7
100
AcDbLine
 10
29679.95578264677
 20
-130761.1757362178
 30
0.0
 11
29679.95578264677
 21
-130713.3757362178
 31
0.0
  0
LINE
  5
C2
330
2F
100
AcDbEntity
  8
粗线层1
 62
7
100
AcDbLine
 10
29670.04809067126
 20
-130773.8905058472
 30
0.0
 11
29670.45863887296
 21
-130773.7757362178
 31
0.0
  0
LINE
  5
C3
330
2F
100
AcDbEntity
  8
粗线层1
 62
7
100
AcDbLine
 10
29675.05578264677
 20
-130762.6757362178
 30
0.0
 11
29678.45578264677
 21
-130762.6757362178
 31
0.0
  0
LINE
  5
C4
330
2F
100
AcDbEntity
  8
粗线层1
 62
7
100
AcDbLine
 10
29675.83026642937
 20
-130726.6513326778
 30
0.0
 11
29674.95578264676
 21
-130722.5372099438
 31
0.0
  0
LINE
  5
C5
330
2F
100
AcDbEntity
  8
粗线层1
 62
7
100
AcDbLine
 10
29738.41577753087
 20
-130751.4343419949
 30
0.0
 11
29738.50114812247
 21
-130751.3870242627
 31
0.0
  0
LINE
  5
C6
330
2F
100
AcDbEntity
  8
粗线层1
 62
7
100
AcDbLine
 10
29738.71184801637
 20
-130751.8419069682
 30
0.0
 11
29738.60234713777
 21
-130751.9025992177
 31
0.0
  0
LINE
  5
C7
330
2F
100
AcDbEntity
  8
粗线层1
 62
7
100
AcDbLine
 10
29710.35578264677
 20
-130764.8757362178
 30
0.0
 11
29711.55578264677
 21
-130764.8757362178
 31
0.0
  0
LINE
  5
C8
330
2F
100
AcDbEntity
  8
粗线层1
 62
7
100
AcDbLine
 10
29674.35578264677
 20
-130773.7757362178
 30
0.0
 11
29674.35578264677
 21
-130778.8757362178
 31
0.0
  0
LINE
  5
C9
330
2F
100
AcDbEntity
  8
粗线层1
 62
7
100
AcDbLine
 10
29673.95578264676
 20
-130727.0497665055
 30
0.0
 11
29673.95578264676
 21
-130722.7497665055
 31
0.0
  0
LINE
  5
CA
330
2F
100
AcDbEntity
  8
粗线层1
 62
7
100
AcDbLine
 10
29673.55578264677
 20
-130710.3757362178
 30
0.0
 11
29673.55578264677
 21
-130700.7757362178
 31
0.0
  0
LINE
  5
CB
330
2F
100
AcDbEntity
  8
粗线层1
 62
7
100
AcDbLine
 10
29673.55578264677
 20
-130773.7757362178
 30
0.0
 11
29673.55578264677
 21
-130764.1757362178
 31
0.0
  0
LINE
  5
CC
330
2F
100
AcDbEntity
  8
粗线层1
 62
7
100
AcDbLine
 10
29673.05578264677
 20
-130756.0104050247
 30
0.0
 11
29673.05578264677
 21
-130718.541067411
 31
0.0
  0
LINE
  5
CD
330
2F
100
AcDbEntity
  8
粗线层1
 62
7
100
AcDbLine
 10
29672.35578264677
 20
-130778.3757362178
 30
0.0
 11
29672.35578264677
 21
-130773.7757362178
 31
0.0
  0
LINE
  5
CE
330
2F
100
AcDbEntity
  8
粗线层1
 62
7
100
AcDbLine
 10
29736.68465749426
 20
-130749.651132768
 30
0.0
 11
29737.24052083097
 21
-130749.0117309779
 31
0.0
  0
LINE
  5
CF
330
2F
100
AcDbEntity
  8
粗线层1
 62
7
100
AcDbLine
 10
29733.39883711726
 20
-130753.4307658045
 30
0.0
 11
29733.95470043028
 21
-130752.7913640416
 31
0.0
  0
LINE
  5
D0
330
2F
100
AcDbEntity
  8
粗线层1
 62
7
100
AcDbLine
 10
29737.52754288787
 20
-130750.1842034364
 30
0.0
 11
29737.73482540497
 21
-130749.967330341
 31
0.0
  0
LINE
  5
D1
330
2F
100
AcDbEntity
  8
粗线层1
 62
7
100
AcDbLine
 10
29737.39470224426
 20
-130750.3319159687
 30
0.0
 11
29737.46390992927
 21
-130750.2597335863
 31
0.0
  0
LINE
  5
D2
330
2F
100
AcDbEntity
  8
粗线层1
 62
7
100
AcDbLine
 10
29737.82482184167
 20
-130750.6057720112
 30
0.0
 11
29737.75561415666
 21
-130750.6779543936
 31
0.0
  0
LINE
  5
D3
330
2F
100
AcDbEntity
  8
粗线层1
 62
7
100
AcDbLine
 10
29709.95578264676
 20
-130775.2757362178
 30
0.0
 11
29709.55578265416
 21
-130775.6757362104
 31
0.0
  0
LINE
  5
D4
330
2F
100
AcDbEntity
  8
粗线层1
 62
7
100
AcDbLine
 10
29711.55578292986
 20
-130774.1757365009
 30
0.0
 11
29711.95578264676
 21
-130773.7757362178
 31
0.0
  0
LINE
  5
D5
330
2F
100
AcDbEntity
  8
粗线层1
 62
7
100
AcDbLine
 10
29736.29549185657
 20
-130754.5567526433
 30
0.0
 11
29736.40616376976
 21
-130754.494103229
 31
0.0
  0
LINE
  5
D6
330
2F
100
AcDbEntity
  8
粗线层1
 62
7
100
AcDbLine
 10
29688.45578264676
 20
-130769.8257362178
 30
0.0
 11
29694.45578264677
 21
-130769.8257362178
 31
0.0
  0
LINE
  5
D7
330
2F
100
AcDbEntity
  8
粗线层1
 62
7
100
AcDbLine
 10
29694.45578264677
 20
-130770.8257362178
 30
0.0
 11
29688.45578264676
 21
-130770.8257362178
 31
0.0
  0
LINE
  5
D8
330
2F
100
AcDbEntity
  8
粗线层1
 62
7
100
AcDbLine
 10
29673.05578264677
 20
-130754.4305410951
 30
0.0
 11
29671.45578264677
 21
-130752.241067411
 31
0.0
  0
LINE
  5
D9
330
2F
100
AcDbEntity
  8
粗线层1
 62
7
100
AcDbLine
 10
29670.35578264678
 20
-130755.541067411
 30
0.0
 11
29670.35578264678
 21
-130755.241067411
 31
0.0
  0
LINE
  5
DA
330
2F
100
AcDbEntity
  8
粗线层1
 62
7
100
AcDbLine
 10
29668.75578264677
 20
-130755.6067528359
 30
0.0
 11
29668.75578264677
 21
-130756.341067411
 31
0.0
  0
LINE
  5
DB
330
2F
100
AcDbEntity
  8
粗线层1
 62
7
100
AcDbLine
 10
29735.92639450847
 20
-130754.3487272442
 30
0.0
 11
29735.96137692386
 21
-130754.2576045999
 31
0.0
  0
LINE
  5
DC
330
2F
100
AcDbEntity
  8
粗线层1
 62
7
100
AcDbLine
 10
29736.45103408337
 20
-130754.3772244605
 30
0.0
 11
29736.40616376976
 21
-130754.494103229
 31
0.0
  0
LINE
  5
DD
330
2F
100
AcDbEntity
  8
粗线层1
 62
7
100
AcDbLine
 10
29734.41295801046
 20
-130753.7884277612
 30
0.0
 11
29734.59851891897
 21
-130753.5527009083
 31
0.0
  0
LINE
  5
DE
330
2F
100
AcDbEntity
  8
粗线层1
 62
7
100
AcDbLine
 10
29734.66578064757
 20
-130753.4783824664
 30
0.0
 11
29734.72763428377
 21
-130753.3998068487
 31
0.0
  0
LINE
  5
DF
330
2F
100
AcDbEntity
  8
粗线层1
 62
7
100
AcDbLine
 10
29735.12051237197
 20
-130753.7090750297
 30
0.0
 11
29735.05865873577
 21
-130753.7876506473
 31
0.0
  0
LINE
  5
E0
330
2F
100
AcDbEntity
  8
粗线层1
 62
7
100
AcDbLine
 10
29735.87831053727
 20
-130756.5018480891
 30
0.0
 11
29735.79012685447
 21
-130756.6032845411
 31
0.0
  0
LINE
  5
E1
330
2F
100
AcDbEntity
  8
粗线层1
 62
7
100
AcDbLine
 10
29740.71077045007
 20
-130750.9431373143
 30
0.0
 11
29740.62664761077
 21
-130751.039902635
 31
0.0
  0
LINE
  5
E2
330
2F
100
AcDbEntity
  8
粗线层1
 62
7
100
AcDbLine
 10
29732.65578264676
 20
-130759.7757362178
 30
0.0
 11
29733.05578264677
 21
-130759.3757362178
 31
0.0
  0
LINE
  5
E3
330
2F
100
AcDbEntity
  8
粗线层1
 62
7
100
AcDbLine
 10
29688.45578264676
 20
-130771.8257362178
 30
0.0
 11
29694.45578264677
 21
-130771.8257362178
 31
0.0
  0
LINE
  5
E4
330
2F
100
AcDbEntity
  8
粗线层1
 62
7
100
AcDbLine
 10
29694.45578264677
 20
-130772.8257362178
 30
0.0
 11
29688.45578264676
 21
-130772.8257362178
 31
0.0
  0
LINE
  5
E5
330
2F
100
AcDbEntity
  8
粗线层1
 62
7
100
AcDbLine
 10
29668.55578264677
 20
-130773.7757362178
 30
0.0
 11
29677.91628210937
 21
-130773.7757362178
 31
0.0
  0
LINE
  5
E6
330
2F
100
AcDbEntity
  8
粗线层1
 62
7
100
AcDbLine
 10
29710.35578264677
 20
-130774.1757362178
 30
0.0
 11
29711.55578264677
 21
-130774.1757362178
 31
0.0
  0
LINE
  5
E7
330
2F
100
AcDbEntity
  8
粗线层1
 62
7
100
AcDbLine
 10
29708.45578264677
 20
-130774.1757362178
 30
0.0
 11
29704.45578264676
 21
-130774.1757362178
 31
0.0
  0
LINE
  5
E8
330
2F
100
AcDbEntity
  8
粗线层1
 62
7
100
AcDbLine
 10
29669.75578264677
 20
-130774.2757362178
 30
0.0
 11
29668.95578264677
 21
-130774.2757362178
 31
0.0
  0
LINE
  5
E9
330
2F
100
AcDbEntity
  8
粗线层1
 62
7
100
AcDbLine
 10
29667.55578264677
 20
-130757.5410674109
 30
0.0
 11
29667.55578264677
 21
-130772.7757362178
 31
0.0
  0
LINE
  5
EA
330
2F
100
AcDbEntity
  8
粗线层1
 62
7
100
AcDbLine
 10
29667.55578264677
 20
-130710.3077870254
 30
0.0
 11
29667.55578264677
 21
-130719.7410674109
 31
0.0
  0
LINE
  5
EB
330
2F
100
AcDbEntity
  8
粗线层1
 62
7
100
AcDbLine
 10
29667.55578264677
 20
-130701.7757362178
 30
0.0
 11
29667.55578264677
 21
-130706.8436854102
 31
0.0
  0
LINE
  5
EC
330
2F
100
AcDbEntity
  8
粗线层1
 62
7
100
AcDbLine
 10
29738.75849357297
 20
-130751.7235963028
 30
0.0
 11
29738.71184801637
 21
-130751.8419069682
 31
0.0
  0
LINE
  5
ED
330
2F
100
AcDbEntity
  8
粗线层1
 62
7
100
AcDbLine
 10
29741.38133390747
 20
-130751.6959884476
 30
0.0
 11
29741.46545674757
 21
-130751.599223126
 31
0.0
  0
LINE
  5
EE
330
2F
100
AcDbEntity
  8
粗线层1
 62
7
100
AcDbLine
 10
29736.54481315197
 20
-130757.2593703528
 30
0.0
 11
29736.63299683397
 21
-130757.1579339017
 31
0.0
  0
LINE
  5
EF
330
2F
100
AcDbEntity
  8
粗线层1
 62
7
100
AcDbLine
 10
29703.20077707886
 20
-130774.6757362178
 30
0.0
 11
29698.71078821467
 21
-130774.6757362178
 31
0.0
  0
LINE
  5
F0
330
2F
100
AcDbEntity
  8
粗线层1
 62
7
100
AcDbLine
 10
29703.45405282976
 20
-130774.6757362178
 30
0.0
 11
29703.40807440126
 21
-130774.6757362178
 31
0.0
  0
LINE
  5
F1
330
2F
100
AcDbEntity
  8
粗线层1
 62
7
100
AcDbLine
 10
29697.80517279997
 20
-130775.6757362178
 30
0.0
 11
29709.55578264677
 21
-130775.6757362178
 31
0.0
  0
LINE
  5
F2
330
2F
100
AcDbEntity
  8
KETI2095DXF095CONTINUOUS095LINE0
  6
KM_SOLID
 62
7
100
AcDbLine
 10
29683.89522947787
 20
-130775.6757362178
 30
0.0
 11
29683.85578264678
 21
-130775.6757362178
 31
0.0
  0
LINE
  5
F3
330
2F
100
AcDbEntity
  8
粗线层1
 62
7
100
AcDbLine
 10
29693.70639249357
 20
-130775.6757362178
 30
0.0
 11
29683.89522947787
 21
-130775.6757362178
 31
0.0
  0
LINE
  5
F4
330
2F
100
AcDbEntity
  8
粗线层1
 62
7
100
AcDbLine
 10
29676.75578264677
 20
-130773.7757362178
 30
0.0
 11
29683.81767666296
 21
-130775.6655388418
 31
0.0
  0
LINE
  5
F5
330
2F
100
AcDbEntity
  8
KETI2095DXF095CONTINUOUS095LINE0
  6
KM_SOLID
 62
7
100
AcDbLine
 10
29683.85578264678
 20
-130775.6757362178
 30
0.0
 11
29683.81767666296
 21
-130775.6655388418
 31
0.0
  0
LINE
  5
F6
330
2F
100
AcDbEntity
  8
粗线层1
 62
7
100
AcDbLine
 10
29674.35578264677
 20
-130778.8757362178
 30
0.0
 11
29672.85578264677
 21
-130778.8757362178
 31
0.0
  0
LINE
  5
F7
330
2F
100
AcDbEntity
  8
粗线层1
 62
7
100
AcDbLine
 10
29672.35578264677
 20
-130778.3757362178
 30
0.0
 11
29672.85578264677
 21
-130778.8757362178
 31
0.0
  0
LINE
  5
F8
330
2F
100
AcDbEntity
  8
粗线层1
 62
7
100
AcDbLine
 10
29734.41296424206
 20
-130753.7884204759
 30
0.0
 11
29733.63586738367
 21
-130753.1581132178
 31
0.0
  0
LINE
  5
F9
330
2F
100
AcDbEntity
  8
粗线层1
 62
7
100
AcDbLine
 10
29737.00181258007
 20
-130749.2863137266
 30
0.0
 11
29737.73482388386
 21
-130749.9673319793
 31
0.0
  0
LINE
  5
FA
330
2F
100
AcDbEntity
  8
粗线层1
 62
7
100
AcDbLine
 10
29715.17256781881
 20
-130730.9999533393
 30
0.0
 11
29713.33598741561
 21
-130728.7659467209
 31
0.0
  0
LINE
  5
FB
330
2F
100
AcDbEntity
  8
粗线层1
 62
7
100
AcDbLine
 10
29713.47937228971
 20
-130727.5515505623
 30
0.0
 11
29715.31602159481
 21
-130729.7854882788
 31
0.0
  0
LINE
  5
FC
330
2F
100
AcDbEntity
  8
粗线层1
 62
7
100
AcDbLine
 10
29675.83026642937
 20
-130726.6513326778
 30
0.0
 11
29676.06747828766
 21
-130726.8053798597
 31
0.0
  0
LINE
  5
FD
330
2F
100
AcDbEntity
  8
粗线层1
 62
7
100
AcDbLine
 10
29667.85578264677
 20
-130757.6653314797
 30
0.0
 11
29667.55578264677
 21
-130757.5410674109
 31
0.0
  0
LINE
  5
FE
330
2F
100
AcDbEntity
  8
粗线层1
 62
7
100
AcDbLine
 10
29672.05578264677
 20
-130718.541067411
 30
0.0
 11
29671.88257756607
 21
-130718.241067411
 31
0.0
  0
LINE
  5
FF
330
2F
100
AcDbEntity
  8
粗线层1
 62
7
100
AcDbLine
 10
29674.95578264676
 20
-130722.5372099438
 30
0.0
 11
29675.10982982877
 21
-130722.2999980855
 31
0.0
  0
LINE
  5
100
330
2F
100
AcDbEntity
  8
粗线层1
 62
7
100
AcDbLine
 10
29673.05578264677
 20
-130718.541067411
 30
0.0
 11
29673.35578264677
 21
-130718.241067411
 31
0.0
  0
ARC
  5
101
330
2F
100
AcDbEntity
  8
粗线层1
 62
7
100
AcDbCircle
 10
29710.35578264677
 20
-130699.9757362178
 30
0.0
 40
0.4
100
AcDbArc
 50
180.0
 51
270.0
  0
ARC
  5
102
330
2F
100
AcDbEntity
  8
粗线层1
 62
7
100
AcDbCircle
 10
29710.35578264677
 20
-130710.0757362178
 30
0.0
 40
0.4
100
AcDbArc
 50
90.0
 51
180.0
  0
CIRCLE
  5
103
330
2F
100
AcDbEntity
  8
粗线层1
 62
7
100
AcDbCircle
 10
29708.25578264677
 20
-130713.7757362178
 30
0.0
 40
1.1
  0
CIRCLE
  5
104
330
2F
100
AcDbEntity
  8
粗线层1
 62
7
100
AcDbCircle
 10
29708.25578264677
 20
-130713.7757362178
 30
0.0
 40
2.149999999999999
  0
CIRCLE
  5
105
330
2F
100
AcDbEntity
  8
粗线层1
 62
7
100
AcDbCircle
 10
29708.25578264677
 20
-130713.7757362178
 30
0.0
 40
2.45
  0
ARC
  5
106
330
2F
100
AcDbEntity
  8
粗线层1
 62
7
100
AcDbCircle
 10
29722.45578264677
 20
-130735.1601815926
 30
0.0
 40
1.5
100
AcDbArc
 50
301.8704222221052
 51
0.0
  0
ARC
  5
107
330
2F
100
AcDbEntity
  8
粗线层1
 62
7
100
AcDbCircle
 10
29722.45578264677
 20
-130725.2757362178
 30
0.0
 40
1.5
100
AcDbArc
 50
0.0
 51
90.0
  0
ARC
  5
108
330
2F
100
AcDbEntity
  8
粗线层0
 62
7
100
AcDbCircle
 10
29713.45578264676
 20
-130719.7757362178
 30
0.0
 40
3.5
100
AcDbArc
 50
90.0
 51
270.0
  0
ARC
  5
109
330
2F
100
AcDbEntity
  8
粗线层0
 62
7
100
AcDbCircle
 10
29711.41125549758
 20
-130721.0482868706
 30
0.0
 40
0.5000012352734458
100
AcDbArc
 50
121.9657187505841
 51
206.0279462992817
  0
ARC
  5
10A
330
2F
100
AcDbEntity
  8
粗线层1
 62
7
100
AcDbCircle
 10
29704.95578264677
 20
-130722.2757362178
 30
0.0
 40
1.5
100
AcDbArc
 50
180.0
 51
270.0
  0
ARC
  5
10B
330
2F
100
AcDbEntity
  8
粗线层0
 62
7
100
AcDbCircle
 10
29714.01714428393
 20
-130719.7757362178
 30
0.0
 40
3.400008394271416
100
AcDbArc
 50
90.0
 51
153.9720537007183
  0
ARC
  5
10C
330
2F
100
AcDbEntity
  8
粗线层0
 62
7
100
AcDbCircle
 10
29711.41125549806
 20
-130718.5031855674
 30
0.0
 40
0.5000012352734458
100
AcDbArc
 50
153.9720537007183
 51
238.0342812494159
  0
ARC
  5
10D
330
2F
100
AcDbEntity
  8
粗线层1
 62
7
100
AcDbCircle
 10
29683.89522462127
 20
-130699.1757375174
 30
0.0
 40
0.3
100
AcDbArc
 50
89.99907284267454
 51
104.980672399716
  0
ARC
  5
10E
330
2F
100
AcDbEntity
  8
粗线层1
 62
7
100
AcDbCircle
 10
29685.45578264677
 20
-130702.2257362178
 30
0.0
 40
0.5
100
AcDbArc
 50
90.0
 51
270.0
  0
ARC
  5
10F
330
2F
100
AcDbEntity
  8
粗线层1
 62
7
100
AcDbCircle
 10
29691.45578264677
 20
-130702.2257362178
 30
0.0
 40
0.5
100
AcDbArc
 50
270.0
 51
90.0
  0
ARC
  5
110
330
2F
100
AcDbEntity
  8
粗线层1
 62
7
100
AcDbCircle
 10
29685.45578264677
 20
-130704.2257362178
 30
0.0
 40
0.5
100
AcDbArc
 50
90.0
 51
270.0
  0
ARC
  5
111
330
2F
100
AcDbEntity
  8
粗线层1
 62
7
100
AcDbCircle
 10
29691.45578264677
 20
-130704.2257362178
 30
0.0
 40
0.5
100
AcDbArc
 50
270.0
 51
90.0
  0
ARC
  5
112
330
2F
100
AcDbEntity
  8
粗线层1
 62
7
100
AcDbCircle
 10
29700.45578264676
 20
-130704.2257362178
 30
0.0
 40
0.5
100
AcDbArc
 50
270.0
 51
90.0
  0
ARC
  5
113
330
2F
100
AcDbEntity
  8
粗线层1
 62
7
100
AcDbCircle
 10
29694.45578264677
 20
-130704.2257362178
 30
0.0
 40
0.5
100
AcDbArc
 50
90.0
 51
270.0
  0
ARC
  5
114
330
2F
100
AcDbEntity
  8
粗线层1
 62
7
100
AcDbCircle
 10
29694.45578264677
 20
-130702.2257362178
 30
0.0
 40
0.5
100
AcDbArc
 50
90.0
 51
270.0
  0
ARC
  5
115
330
2F
100
AcDbEntity
  8
粗线层1
 62
7
100
AcDbCircle
 10
29700.45578264676
 20
-130702.2257362178
 30
0.0
 40
0.5
100
AcDbArc
 50
270.0
 51
90.0
  0
ARC
  5
116
330
2F
100
AcDbEntity
  8
粗线层1
 62
7
100
AcDbCircle
 10
29697.80515470386
 20
-130698.075782142
 30
0.0
 40
0.7999765184000001
100
AcDbArc
 50
217.9780773670237
 51
270.0012961109377
  0
ARC
  5
117
330
2F
100
AcDbEntity
  8
粗线层1
 62
7
100
AcDbCircle
 10
29693.70639249357
 20
-130698.0757362178
 30
0.0
 40
0.8
100
AcDbArc
 50
270.0
 51
322.0201275547552
  0
ARC
  5
118
330
2F
100
AcDbEntity
  8
粗线层1
 62
7
100
AcDbCircle
 10
29697.80517279997
 20
-130698.0757362178
 30
0.0
 40
0.8
100
AcDbArc
 50
217.9798724452448
 51
270.0
  0
ARC
  5
119
330
2F
100
AcDbEntity
  8
粗线层1
 62
7
100
AcDbCircle
 10
29695.75578264677
 20
-130699.6757362178
 30
0.0
 40
1.8
100
AcDbArc
 50
37.9798724452448
 51
142.0201275547552
  0
CIRCLE
  5
11A
330
2F
100
AcDbEntity
  8
粗线层1
 62
7
100
AcDbCircle
 10
29681.05578264677
 20
-130703.2257362178
 30
0.0
 40
1.1
  0
CIRCLE
  5
11B
330
2F
100
AcDbEntity
  8
粗线层1
 62
7
100
AcDbCircle
 10
29681.05578264677
 20
-130703.2257362178
 30
0.0
 40
2.149999999999999
  0
CIRCLE
  5
11C
330
2F
100
AcDbEntity
  8
粗线层1
 62
7
100
AcDbCircle
 10
29681.05578264677
 20
-130703.2257362178
 30
0.0
 40
2.45
  0
ARC
  5
11D
330
2F
100
AcDbEntity
  8
粗线层1
 62
7
100
AcDbCircle
 10
29668.05578264677
 20
-130706.8436854102
 30
0.0
 40
0.5
100
AcDbArc
 50
180.0
 51
239.9999999997571
  0
ARC
  5
11E
330
2F
100
AcDbEntity
  8
粗线层1
 62
7
100
AcDbCircle
 10
29668.55578264677
 20
-130701.7757362178
 30
0.0
 40
1.0
100
AcDbArc
 50
90.0
 51
180.0
  0
ARC
  5
11F
330
2F
100
AcDbEntity
  8
粗线层1
 62
7
100
AcDbCircle
 10
29675.05578264677
 20
-130710.3757362178
 30
0.0
 40
1.5
100
AcDbArc
 50
180.0
 51
270.0
  0
ARC
  5
120
330
2F
100
AcDbEntity
  8
粗线层1
 62
7
100
AcDbCircle
 10
29678.45578264677
 20
-130713.3757362178
 30
0.0
 40
1.5
100
AcDbArc
 50
0.0
 51
90.0
  0
ARC
  5
121
330
2F
100
AcDbEntity
  8
粗线层1
 62
7
100
AcDbCircle
 10
29668.05578264677
 20
-130710.3077870254
 30
0.0
 40
0.5
100
AcDbArc
 50
120.0000000002429
 51
180.0
  0
ARC
  5
122
330
2F
100
AcDbEntity
  8
粗线层1
 62
7
100
AcDbCircle
 10
29667.05578264677
 20
-130708.5757362178
 30
0.0
 40
1.5
100
AcDbArc
 50
300.000000000243
 51
59.99999999975706
  0
ARC
  5
123
330
2F
100
AcDbEntity
  8
粗线层1
 62
7
100
AcDbCircle
 10
29673.25578264677
 20
-130722.6941359723
 30
0.0
 40
0.1999944772
100
AcDbArc
 50
179.986251138395
 51
282.0028598126819
  0
ARC
  5
124
330
2F
100
AcDbEntity
  8
粗线层1
 62
7
100
AcDbCircle
 10
29673.25578271746
 20
-130727.4030242026
 30
0.0
 40
0.2
100
AcDbArc
 50
102.0000207028892
 51
180.0000043038863
  0
ARC
  5
125
330
2F
100
AcDbEntity
  8
粗线层1
 62
7
100
AcDbCircle
 10
29671.01657699926
 20
-130719.741024392
 30
0.0
 40
0.3
100
AcDbArc
 50
269.995259234227
 51
329.9905129441078
  0
ARC
  5
126
330
2F
100
AcDbEntity
  8
粗线层1
 62
7
100
AcDbCircle
 10
29667.85578264677
 20
-130719.7410674109
 30
0.0
 40
0.3
100
AcDbArc
 50
180.0
 51
270.0
  0
CIRCLE
  5
127
330
2F
100
AcDbEntity
  8
粗线层1
 62
7
100
AcDbCircle
 10
29734.85578264678
 20
-130745.7757362178
 30
0.0
 40
0.7
  0
ARC
  5
128
330
2F
100
AcDbEntity
  8
粗线层1
 62
7
100
AcDbCircle
 10
29735.05520075926
 20
-130745.6921759931
 30
0.0
 40
0.9
100
AcDbArc
 50
187.531103222348
 51
222.9924418758894
  0
ARC
  5
129
330
2F
100
AcDbEntity
  8
粗线层1
 62
7
100
AcDbCircle
 10
29735.05471256117
 20
-130745.6624230146
 30
0.0
 40
0.9
100
AcDbArc
 50
188.1215323010223
 51
232.0499114819335
  0
ARC
  5
12A
330
2F
100
AcDbEntity
  8
粗线层1
 62
7
100
AcDbCircle
 10
29732.73751688497
 20
-130739.3566371378
 30
0.0
 40
0.1
100
AcDbArc
 50
113.7331495491281
 51
240.1631705464909
  0
ARC
  5
12B
330
2F
100
AcDbEntity
  8
粗线层1
 62
7
100
AcDbCircle
 10
29732.45578264677
 20
-130738.7158362178
 30
0.0
 40
0.2
100
AcDbArc
 50
290.8966856322352
 51
0.0
  0
ARC
  5
12C
330
2F
100
AcDbEntity
  8
粗线层1
 62
7
100
AcDbCircle
 10
29732.45578264677
 20
-130738.7158362178
 30
0.0
 40
0.6
100
AcDbArc
 50
258.9612055171496
 51
0.0
  0
CIRCLE
  5
12D
330
2F
100
AcDbEntity
  8
粗线层1
 62
7
100
AcDbCircle
 10
29729.05578264677
 20
-130745.7757362178
 30
0.0
 40
1.1
  0
CIRCLE
  5
12E
330
2F
100
AcDbEntity
  8
粗线层1
 62
7
100
AcDbCircle
 10
29729.05578264677
 20
-130745.7757362178
 30
0.0
 40
2.149999999999999
  0
CIRCLE
  5
12F
330
2F
100
AcDbEntity
  8
粗线层1
 62
7
100
AcDbCircle
 10
29729.05578264677
 20
-130745.7757362178
 30
0.0
 40
2.45
  0
CIRCLE
  5
130
330
2F
100
AcDbEntity
  8
粗线层1
 62
7
100
AcDbCircle
 10
29729.05578264677
 20
-130745.7757362178
 30
0.0
 40
3.149999999999999
  0
CIRCLE
  5
131
330
2F
100
AcDbEntity
  8
粗线层1
 62
7
100
AcDbCircle
 10
29729.05578264677
 20
-130745.7757362178
 30
0.0
 40
3.45
  0
ARC
  5
132
330
2F
100
AcDbEntity
  8
粗线层1
 62
7
100
AcDbCircle
 10
29728.54454171717
 20
-130738.3463448635
 30
0.0
 40
4.029561358500001
100
AcDbArc
 50
346.0783537058857
 51
347.7261457207617
  0
ARC
  5
133
330
2F
100
AcDbEntity
  8
粗线层1
 62
7
100
AcDbCircle
 10
29729.05566411046
 20
-130745.7756653469
 30
0.0
 40
7.299999690199999
100
AcDbArc
 50
62.24034374300591
 51
297.7597835932238
  0
CIRCLE
  5
134
330
2F
100
AcDbEntity
  8
粗线层1
 62
7
100
AcDbCircle
 10
29729.05577779657
 20
-130745.7757431737
 30
0.0
 40
7.300004065499999
  0
ARC
  5
135
330
2F
100
AcDbEntity
  8
粗线层1
 62
7
100
AcDbCircle
 10
29729.05566411046
 20
-130745.7756653469
 30
0.0
 40
7.699988456299999
100
AcDbArc
 50
63.20218133526562
 51
296.7975329182619
  0
ARC
  5
136
330
2F
100
AcDbEntity
  8
粗线层1
 62
7
100
AcDbCircle
 10
29729.05578264677
 20
-130745.7757362178
 30
0.0
 40
11.0
100
AcDbArc
 50
121.8704222221051
 51
186.0401780906909
  0
ARC
  5
137
330
2F
100
AcDbEntity
  8
粗线层1
 62
7
100
AcDbCircle
 10
29739.94121306516
 20
-130751.792656644
 30
0.0
 40
0.7
100
AcDbArc
 50
60.3896930477661
 51
78.9172651691044
  0
ARC
  5
138
330
2F
100
AcDbEntity
  8
粗线层1
 62
7
100
AcDbCircle
 10
29736.52840035656
 20
-130755.7183671762
 30
0.0
 40
0.7
100
AcDbArc
 50
199.0786680703376
 51
217.606240192758
  0
ARC
  5
139
330
2F
100
AcDbEntity
  8
粗线层1
 62
7
100
AcDbCircle
 10
29736.37623978566
 20
-130752.1397685305
 30
0.0
 40
1.0
100
AcDbArc
 50
231.7906695298073
 51
46.20526479812431
  0
ARC
  5
13A
330
2F
100
AcDbEntity
  8
粗线层1
 62
7
100
AcDbCircle
 10
29734.88109440036
 20
-130750.9628108243
 30
0.0
 40
1.0
100
AcDbArc
 50
194.229552717369
 51
231.7906695298073
  0
ARC
  5
13B
330
2F
100
AcDbEntity
  8
粗线层1
 62
7
100
AcDbCircle
 10
29735.00274557367
 20
-130750.8228771854
 30
0.0
 40
1.0
100
AcDbArc
 50
46.20526479812431
 51
85.04568800926965
  0
ARC
  5
13C
330
2F
100
AcDbEntity
  8
粗线层1
 62
7
100
AcDbCircle
 10
29736.52840035656
 20
-130755.7183671762
 30
0.0
 40
1.0
100
AcDbArc
 50
199.0786689543101
 51
217.6062401917159
  0
ARC
  5
13D
330
2F
100
AcDbEntity
  8
粗线层1
 62
7
100
AcDbCircle
 10
29739.94121306516
 20
-130751.792656644
 30
0.0
 40
1.0
100
AcDbArc
 50
60.38969382759987
 51
78.9172651691044
  0
ARC
  5
13E
330
2F
100
AcDbEntity
  8
粗线层1
 62
7
100
AcDbCircle
 10
29735.00274557367
 20
-130750.8228771854
 30
0.0
 40
1.199999999999999
100
AcDbArc
 50
46.20526479812431
 51
80.10131322342374
  0
ARC
  5
13F
330
2F
100
AcDbEntity
  8
粗线层1
 62
7
100
AcDbCircle
 10
29734.88109440036
 20
-130750.9628108243
 30
0.0
 40
1.199999999999999
100
AcDbArc
 50
199.1390817195333
 51
231.7906695298073
  0
ARC
  5
140
330
2F
100
AcDbEntity
  8
粗线层1
 62
7
100
AcDbCircle
 10
29736.37623978566
 20
-130752.1397685305
 30
0.0
 40
1.199999999999999
100
AcDbArc
 50
231.7906695298073
 51
46.20526479812431
  0
ARC
  5
141
330
2F
100
AcDbEntity
  8
粗线层1
 62
7
100
AcDbCircle
 10
29736.67478545147
 20
-130752.3993089154
 30
0.0
 40
1.5905312301
100
AcDbArc
 50
231.7906695298073
 51
46.20526479812431
  0
ARC
  5
142
330
2F
100
AcDbEntity
  8
粗线层1
 62
7
100
AcDbCircle
 10
29740.47944659567
 20
-130749.0448748719
 30
0.0
 40
1.8
100
AcDbArc
 50
228.9979661287241
 51
258.9172655955545
  0
ARC
  5
143
330
2F
100
AcDbEntity
  8
粗线层1
 62
7
100
AcDbCircle
 10
29736.67478545147
 20
-130752.3993089154
 30
0.0
 40
1.9905312301
100
AcDbArc
 50
231.7906695298073
 51
46.20526479812431
  0
ARC
  5
144
330
2F
100
AcDbEntity
  8
粗线层1
 62
7
100
AcDbCircle
 10
29740.47944659567
 20
-130749.0448748719
 30
0.0
 40
2.1
100
AcDbArc
 50
228.9979667500015
 51
258.9172651691044
  0
ARC
  5
145
330
2F
100
AcDbEntity
  8
粗线层1
 62
7
100
AcDbCircle
 10
29736.67478545147
 20
-130752.3993089154
 30
0.0
 40
2.190531230099999
100
AcDbArc
 50
231.7906692425827
 51
46.20526399688077
  0
ARC
  5
146
330
2F
100
AcDbEntity
  8
粗线层1
 62
7
100
AcDbCircle
 10
29736.67478545147
 20
-130752.3993089154
 30
0.0
 40
2.4905312301
100
AcDbArc
 50
231.7906688949721
 51
46.20540003471944
  0
ARC
  5
147
330
2F
100
AcDbEntity
  8
粗线层1
 62
7
100
AcDbCircle
 10
29738.63185264367
 20
-130754.0965827032
 30
0.0
 40
3.35
100
AcDbArc
 50
318.9450364311119
 51
60.38969304626683
  0
ARC
  5
148
330
2F
100
AcDbEntity
  8
粗线层1
 62
7
100
AcDbCircle
 10
29738.62779180097
 20
-130754.1012538335
 30
0.0
 40
3.35
100
AcDbArc
 50
217.6062401917159
 51
319.0508968003223
  0
ARC
  5
149
330
2F
100
AcDbEntity
  8
粗线层1
 62
7
100
AcDbCircle
 10
29738.62779180097
 20
-130754.1012538335
 30
0.0
 40
3.649999999999999
100
AcDbArc
 50
217.6062400001425
 51
319.0465463869722
  0
ARC
  5
14A
330
2F
100
AcDbEntity
  8
粗线层1
 62
7
100
AcDbCircle
 10
29738.63185264367
 20
-130754.0965827032
 30
0.0
 40
3.649999999999999
100
AcDbArc
 50
318.9493868722356
 51
60.38969326077753
  0
ARC
  5
14B
330
2F
100
AcDbEntity
  8
粗线层1
 62
7
100
AcDbCircle
 10
29732.73753662367
 20
-130752.1948239765
 30
0.0
 40
0.1
100
AcDbArc
 50
119.837005638159
 51
214.4324592762796
  0
ARC
  5
14C
330
2F
100
AcDbEntity
  8
粗线层1
 62
7
100
AcDbCircle
 10
29732.45578264677
 20
-130752.8356162178
 30
0.0
 40
0.2
100
AcDbArc
 50
0.0
 51
69.09627390932027
  0
ARC
  5
14D
330
2F
100
AcDbEntity
  8
粗线层1
 62
7
100
AcDbCircle
 10
29732.45578264677
 20
-130752.8356162178
 30
0.0
 40
0.6
100
AcDbArc
 50
0.0
 51
101.0370295819788
  0
ARC
  5
14E
330
2F
100
AcDbEntity
  8
粗线层1
 62
7
100
AcDbCircle
 10
29713.34493207096
 20
-130751.7757362178
 30
0.0
 40
1.5
100
AcDbArc
 50
270.0
 51
325.0000000000912
  0
ARC
  5
14F
330
2F
100
AcDbEntity
  8
粗线层1
 62
7
100
AcDbCircle
 10
29716.62517825536
 20
-130747.091059168
 30
0.0
 40
1.5
100
AcDbArc
 50
325.0000000000912
 51
6.040178090690906
  0
ARC
  5
150
330
2F
100
AcDbEntity
  8
粗线层1
 62
7
100
AcDbCircle
 10
29704.95578264677
 20
-130754.7757362178
 30
0.0
 40
1.5
100
AcDbArc
 50
90.0
 51
180.0
  0
ARC
  5
151
330
2F
100
AcDbEntity
  8
粗线层1
 62
7
100
AcDbCircle
 10
29733.88220246947
 20
-130756.6335921444
 30
0.0
 40
1.8
100
AcDbArc
 50
19.07866757805494
 51
48.99796704609077
  0
ARC
  5
152
330
2F
100
AcDbEntity
  8
粗线层1
 62
7
100
AcDbCircle
 10
29733.88220246947
 20
-130756.6335921444
 30
0.0
 40
2.1
100
AcDbArc
 50
19.07866806855732
 51
48.99796644504917
  0
ARC
  5
153
330
2F
100
AcDbEntity
  8
粗线层1
 62
7
100
AcDbCircle
 10
29710.35578264677
 20
-130764.4757362178
 30
0.0
 40
0.4
100
AcDbArc
 50
180.0
 51
270.0
  0
ARC
  5
154
330
2F
100
AcDbEntity
  8
粗线层1
 62
7
100
AcDbCircle
 10
29710.35578264677
 20
-130774.5757362178
 30
0.0
 40
0.4
100
AcDbArc
 50
90.0
 51
180.0
  0
CIRCLE
  5
155
330
2F
100
AcDbEntity
  8
粗线层1
 62
7
100
AcDbCircle
 10
29708.25578264677
 20
-130760.7757362178
 30
0.0
 40
1.1
  0
CIRCLE
  5
156
330
2F
100
AcDbEntity
  8
粗线层1
 62
7
100
AcDbCircle
 10
29708.25578264677
 20
-130760.7757362178
 30
0.0
 40
2.149999999999999
  0
CIRCLE
  5
157
330
2F
100
AcDbEntity
  8
粗线层1
 62
7
100
AcDbCircle
 10
29708.25578264677
 20
-130760.7757362178
 30
0.0
 40
2.45
  0
ARC
  5
158
330
2F
100
AcDbEntity
  8
粗线层1
 62
7
100
AcDbCircle
 10
29669.68004671547
 20
-130755.841067411
 30
0.0
 40
0.3
100
AcDbArc
 50
90.0
 51
135.0000000005895
  0
ARC
  5
159
330
2F
100
AcDbEntity
  8
粗线层1
 62
7
100
AcDbCircle
 10
29668.75578264677
 20
-130755.2067528359
 30
0.0
 40
0.4
100
AcDbArc
 50
134.9999999960205
 51
270.0
  0
ARC
  5
15A
330
2F
100
AcDbEntity
  8
粗线层1
 62
7
100
AcDbCircle
 10
29669.12146807177
 20
-130754.841067411
 30
0.0
 40
0.4
100
AcDbArc
 50
135.0000000007369
 51
270.0
  0
ARC
  5
15B
330
2F
100
AcDbEntity
  8
粗线层1
 62
7
100
AcDbCircle
 10
29688.45578264676
 20
-130770.3257362178
 30
0.0
 40
0.5
100
AcDbArc
 50
90.0
 51
270.0
  0
ARC
  5
15C
330
2F
100
AcDbEntity
  8
粗线层1
 62
7
100
AcDbCircle
 10
29694.45578264677
 20
-130770.3257362178
 30
0.0
 40
0.5
100
AcDbArc
 50
270.0
 51
90.0
  0
ARC
  5
15D
330
2F
100
AcDbEntity
  8
粗线层1
 62
7
100
AcDbCircle
 10
29688.45578264676
 20
-130772.3257362178
 30
0.0
 40
0.5
100
AcDbArc
 50
90.0
 51
270.0
  0
ARC
  5
15E
330
2F
100
AcDbEntity
  8
粗线层1
 62
7
100
AcDbCircle
 10
29694.45578264677
 20
-130772.3257362178
 30
0.0
 40
0.5
100
AcDbArc
 50
270.0
 51
90.0
  0
ARC
  5
15F
330
2F
100
AcDbEntity
  8
粗线层1
 62
7
100
AcDbCircle
 10
29693.70641195847
 20
-130776.4756866671
 30
0.0
 40
0.7999746815000001
100
AcDbArc
 50
37.97793295642899
 51
90.0
  0
ARC
  5
160
330
2F
100
AcDbEntity
  8
粗线层1
 62
7
100
AcDbCircle
 10
29697.80517279997
 20
-130776.4757362178
 30
0.0
 40
0.8
100
AcDbArc
 50
90.0
 51
142.0201275547552
  0
ARC
  5
161
330
2F
100
AcDbEntity
  8
粗线层1
 62
7
100
AcDbCircle
 10
29693.70639249357
 20
-130776.4757362178
 30
0.0
 40
0.8
100
AcDbArc
 50
37.9798724452448
 51
90.0
  0
ARC
  5
162
330
2F
100
AcDbEntity
  8
粗线层1
 62
7
100
AcDbCircle
 10
29700.95578264677
 20
-130769.9757362178
 30
0.0
 40
1.2649110641
100
AcDbArc
 50
0.0
 51
180.0
  0
ARC
  5
163
330
2F
100
AcDbEntity
  8
粗线层1
 62
7
100
AcDbCircle
 10
29695.75578264677
 20
-130774.8757362178
 30
0.0
 40
1.8
100
AcDbArc
 50
217.9798724452448
 51
322.0201275547552
  0
ARC
  5
164
330
2F
100
AcDbEntity
  8
GAI095DXF095CONTINUOUS095LINE0
  6
KM_SOLID
 62
7
100
AcDbCircle
 10
29683.89522947787
 20
-130775.3757362178
 30
0.0
 40
0.3
100
AcDbArc
 50
255.0183674276743
 51
270.0
  0
ARC
  5
165
330
2F
100
AcDbEntity
  8
粗线层1
 62
7
100
AcDbCircle
 10
29670.15578264676
 20
-130774.2757362178
 30
0.0
 40
0.4
100
AcDbArc
 50
105.6184488663573
 51
180.0
  0
ARC
  5
166
330
2F
100
AcDbEntity
  8
粗线层1
 62
7
100
AcDbCircle
 10
29668.55578264677
 20
-130772.7757362178
 30
0.0
 40
1.0
100
AcDbArc
 50
180.0000014440781
 51
269.9999998115695
  0
CIRCLE
  5
167
330
2F
100
AcDbEntity
  8
粗线层1
 62
7
100
AcDbCircle
 10
29681.05578264677
 20
-130771.3257362178
 30
0.0
 40
1.1
  0
ARC
  5
168
330
2F
100
AcDbEntity
  8
粗线层1
 62
7
100
AcDbCircle
 10
29670.15578264676
 20
-130774.2757362178
 30
0.0
 40
1.199999999999999
100
AcDbArc
 50
155.36668283927
 51
180.0
  0
ARC
  5
169
330
2F
100
AcDbEntity
  8
粗线层1
 62
7
100
AcDbCircle
 10
29678.45578264677
 20
-130761.1757362178
 30
0.0
 40
1.5
100
AcDbArc
 50
270.0
 51
0.0
  0
ARC
  5
16A
330
2F
100
AcDbEntity
  8
粗线层1
 62
7
100
AcDbCircle
 10
29675.05578264677
 20
-130764.1757362178
 30
0.0
 40
1.5
100
AcDbArc
 50
90.0
 51
180.0
  0
CIRCLE
  5
16B
330
2F
100
AcDbEntity
  8
粗线层1
 62
7
100
AcDbCircle
 10
29681.05578264677
 20
-130771.3257362178
 30
0.0
 40
2.149999999999999
  0
CIRCLE
  5
16C
330
2F
100
AcDbEntity
  8
粗线层1
 62
7
100
AcDbCircle
 10
29681.05578264677
 20
-130771.3257362178
 30
0.0
 40
2.45
  0
ARC
  5
16D
330
2F
100
AcDbEntity
  8
粗线层0
 62
7
100
AcDbCircle
 10
29710.61713588965
 20
-130719.7757362178
 30
0.0
 40
1.000002468006883
100
AcDbArc
 50
301.9657187505841
 51
58.03428124941591
  0
ARC
  5
16E
330
2F
100
AcDbEntity
  8
粗线层0
 62
7
100
AcDbCircle
 10
29721.45578264676
 20
-130719.7757362178
 30
0.0
 40
3.400008394271416
100
AcDbArc
 50
270.0
 51
90.0
  0
ARC
  5
16F
330
2F
100
AcDbEntity
  8
粗线层0
 62
7
100
AcDbCircle
 10
29721.45578264676
 20
-130719.7757362178
 30
0.0
 40
3.5
100
AcDbArc
 50
270.0
 51
90.0
  0
ARC
  5
170
330
2F
100
AcDbEntity
  8
粗线层0
 62
7
100
AcDbCircle
 10
29714.01714428393
 20
-130719.7757362178
 30
0.0
 40
3.400008394271416
100
AcDbArc
 50
206.0279462992817
 51
270.0
  0
SPLINE
  5
171
330
2F
100
AcDbEntity
  8
粗线层1
 62
7
100
AcDbSpline
 70
8
 71
3
 72
35
 73
31
 74
0
 42
1e-09
 40
0.0
 40
0.0
 40
0.0
 40
0.0
 40
0.0003066479454626
 40
0.0012217109126748
 40
0.0027401721980983
 40
0.0048569948491116
 40
0.0108655810092807
 40
0.0192000996377888
 40
0.0297676848300437
 40
0.0424575314634359
 40
0.0571557771111393
 40
0.0737142076508418
 40
0.1117307230345855
 40
0.1550526184239073
 40
0.2020247852116372
 40
0.2508651765138348
 40
0.299715018354562
 40
0.3467056680200888
 40
0.3900340850177674
 40
0.4280183232145832
 40
0.4445458433757374
 40
0.4592056868877118
 40
0.4718530849136222
 40
0.4823776582709972
 40
0.4906717959701239
 40
0.4966463602147368
 40
0.4987498069068924
 40
0.5002579521579666
 40
0.5011662360268688
 40
0.50147011242046
 40
0.50147011242046
 40
0.50147011242046
 40
0.50147011242046
 10
29738.71184801637
 20
-130751.8419069682
 30
0.0
 10
29738.71193741823
 20
-130751.8418574161
 30
0.0
 10
29738.7114855792
 20
-130751.841365866
 30
0.0
 10
29738.7114345405
 20
-130751.840627182
 30
0.0
 10
29738.71069998939
 20
-130751.8391608459
 30
0.0
 10
29738.70958155335
 20
-130751.8362224595
 30
0.0
 10
29738.70741548734
 20
-130751.8311235336
 30
0.0
 10
29738.70425760639
 20
-130751.8234712415
 30
0.0
 10
29738.70017759103
 20
-130751.8137525501
 30
0.0
 10
29738.69528271386
 20
-130751.8020896272
 30
0.0
 10
29738.68959997443
 20
-130751.7885867186
 30
0.0
 10
29738.68060832799
 20
-130751.7673187513
 30
0.0
 10
29738.66773860461
 20
-130751.7373307262
 30
0.0
 10
29738.65051180739
 20
-130751.6981828175
 30
0.0
 10
29738.63155473529
 20
-130751.6558556187
 30
0.0
 10
29738.61150858481
 20
-130751.6119982789
 30
0.0
 10
29738.59101483435
 20
-130751.5683414792
 30
0.0
 10
29738.57097038347
 20
-130751.5265054463
 30
0.0
 10
29738.55222881701
 20
-130751.4880624837
 30
0.0
 10
29738.53770188333
 20
-130751.4588624424
 30
0.0
 10
29738.52732787397
 20
-130751.4382713738
 30
0.0
 10
29738.52072223154
 20
-130751.4252367956
 30
0.0
 10
29738.51500965214
 20
-130751.4139984512
 30
0.0
 10
29738.51022349697
 20
-130751.4046535747
 30
0.0
 10
29738.50648724474
 20
-130751.3973127465
 30
0.0
 10
29738.50390623913
 20
-130751.3924383846
 30
0.0
 10
29738.50254268055
 20
-130751.3896343545
 30
0.0
 10
29738.50167380809
 20
-130751.3882415403
 30
0.0
 10
29738.50156757836
 20
-130751.3875345596
 30
0.0
 10
29738.50105952863
 20
-130751.387073367
 30
0.0
 10
29738.50114812247
 20
-130751.3870242627
 30
0.0
  0
SPLINE
  5
172
330
2F
100
AcDbEntity
  8
粗线层1
 62
7
100
AcDbSpline
 70
8
 71
3
 72
35
 73
31
 74
0
 42
1e-09
 40
0.0
 40
0.0
 40
0.0
 40
0.0
 40
0.0003038608514691
 40
0.0012121614158508
 40
0.0027203389561925
 40
0.0048238225014266
 40
0.0107984322533283
 40
0.0190925636943666
 40
0.0296171312355716
 40
0.0422644979192331
 40
0.0569242664774818
 40
0.07345170251219
 40
0.1114358930877741
 40
0.1547644883760246
 40
0.2017553840102799
 40
0.2506053863912053
 40
0.2994457882138414
 40
0.3464179113960097
 40
0.3897396883875576
 40
0.42775608084555
 40
0.44431444547823
 40
0.4590126515138035
 40
0.4717024666432346
 40
0.4822700229910587
 40
0.490604520684123
 40
0.4966130951851464
 40
0.4987299164491642
 40
0.5002483804992686
 40
0.5011634513834347
 40
0.5014701144565521
 40
0.5014701144565521
 40
0.5014701144565521
 40
0.5014701144565521
 10
29735.92639450847
 20
-130754.3487272442
 30
0.0
 10
29735.92643080982
 20
-130754.348632686
 30
0.0
 10
29735.92695763795
 20
-130754.3490732502
 30
0.0
 10
29735.92767286656
 20
-130754.3490790989
 30
0.0
 10
29735.92917279818
 20
-130754.3497464834
 30
0.0
 10
29735.9321395006
 20
-130754.350706097
 30
0.0
 10
29735.93732561342
 20
-130754.3525837339
 30
0.0
 10
29735.945114975
 20
-130754.3552620485
 30
0.0
 10
29735.95503477033
 20
-130754.3587017231
 30
0.0
 10
29735.96695840491
 20
-130754.362795613
 30
0.0
 10
29735.98078490471
 20
-130754.3675243325
 30
0.0
 10
29736.00261851782
 20
-130754.3749339435
 30
0.0
 10
29736.03355550679
 20
-130754.3852576253
 30
0.0
 10
29736.07423282567
 20
-130754.3984664911
 30
0.0
 10
29736.11845034906
 20
-130754.412497215
 30
0.0
 10
29736.16453275381
 20
-130754.4267216956
 30
0.0
 10
29736.21075244239
 20
-130754.440471597
 30
0.0
 10
29736.25530537931
 20
-130754.4533554305
 30
0.0
 10
29736.29646882605
 20
-130754.4649693728
 30
0.0
 10
29736.32795533812
 20
-130754.4735428393
 30
0.0
 10
29736.35026720133
 20
-130754.4794887108
 30
0.0
 10
29736.36442927566
 20
-130754.4832378945
 30
0.0
 10
29736.37665968183
 20
-130754.4864627852
 30
0.0
 10
29736.38685141671
 20
-130754.4891511764
 30
0.0
 10
29736.39486856158
 20
-130754.4912139055
 30
0.0
 10
29736.4002192064
 20
-130754.492649642
 30
0.0
 10
29736.40328458048
 20
-130754.4933485525
 30
0.0
 10
29736.40483886585
 20
-130754.4938718829
 30
0.0
 10
29736.40557744276
 20
-130754.4938198226
 30
0.0
 10
29736.40612713364
 20
-130754.4941986593
 30
0.0
 10
29736.40616376976
 20
-130754.494103229
 30
0.0
  0
SPLINE
  5
173
330
2F
100
AcDbEntity
  8
粗线层1
 62
7
100
AcDbSpline
 70
8
 71
3
 72
8
 73
4
 74
0
 42
1e-09
 40
0.0
 40
0.0
 40
0.0
 40
0.0
 40
0.2332761843591521
 40
0.2332761843591521
 40
0.2332761843591521
 40
0.2332761843591521
 10
29707.8568479556
 20
-130727.4406873896
 30
0.0
 10
29707.8568479556
 20
-130727.3629286615
 30
0.0
 10
29707.94404039938
 20
-130727.2757362178
 30
0.0
 10
29708.0217991275
 20
-130727.2757362178
 30
0.0
  0
SPLINE
  5
174
330
2F
100
AcDbEntity
  8
粗线层1
 62
7
100
AcDbSpline
 70
8
 71
3
 72
8
 73
4
 74
0
 42
1e-09
 40
0.0
 40
0.0
 40
0.0
 40
0.0
 40
0.2332761843591521
 40
0.2332761843591521
 40
0.2332761843591521
 40
0.2332761843591521
 10
29708.0217991275
 20
-130731.2756987819
 30
0.0
 10
29707.94404039938
 20
-130731.2756987819
 30
0.0
 10
29707.8568479556
 20
-130731.1885063382
 30
0.0
 10
29707.8568479556
 20
-130731.1107476101
 30
0.0
  0
SPLINE
  5
175
330
2F
100
AcDbEntity
  8
粗线层1
 62
7
100
AcDbSpline
 70
8
 71
3
 72
8
 73
4
 74
0
 42
1e-09
 40
0.0
 40
0.0
 40
0.0
 40
0.0
 40
0.2333249103693198
 40
0.2333249103693198
 40
0.2333249103693198
 40
0.2333249103693198
 10
29708.8559852466
 20
-130731.1107476101
 30
0.0
 10
29708.8559852466
 20
-130731.1885225802
 30
0.0
 10
29708.76874014304
 20
-130731.2756987819
 30
0.0
 10
29708.69096517291
 20
-130731.2756987819
 30
0.0
  0
SPLINE
  5
176
330
2F
100
AcDbEntity
  8
粗线层1
 62
7
100
AcDbSpline
 70
8
 71
3
 72
8
 73
4
 74
0
 42
1e-09
 40
0.0
 40
0.0
 40
0.0
 40
0.0
 40
0.2333249103693198
 40
0.2333249103693198
 40
0.2333249103693198
 40
0.2333249103693198
 10
29711.0009705976
 20
-130731.2756987819
 30
0.0
 10
29710.92319562748
 20
-130731.2756987819
 30
0.0
 10
29710.83595052391
 20
-130731.1885225802
 30
0.0
 10
29710.83595052391
 20
-130731.1107476101
 30
0.0
  0
SPLINE
  5
177
330
2F
100
AcDbEntity
  8
粗线层1
 62
7
100
AcDbSpline
 70
8
 71
3
 72
8
 73
4
 74
0
 42
1e-09
 40
0.0
 40
0.0
 40
0.0
 40
0.0
 40
0.2333249103693198
 40
0.2333249103693198
 40
0.2333249103693198
 40
0.2333249103693198
 10
29711.8359928413
 20
-130731.1107476101
 30
0.0
 10
29711.8359928413
 20
-130731.1885225802
 30
0.0
 10
29711.74874773773
 20
-130731.2756987819
 30
0.0
 10
29711.67097276761
 20
-130731.2756987819
 30
0.0
  0
SPLINE
  5
178
330
2F
100
AcDbEntity
  8
粗线层1
 62
7
100
AcDbSpline
 70
8
 71
3
 72
8
 73
4
 74
0
 42
1e-09
 40
0.0
 40
0.0
 40
0.0
 40
0.0
 40
0.16969527642124
 40
0.16969527642124
 40
0.16969527642124
 40
0.16969527642124
 10
29711.71603461651
 20
-130728.7757307921
 30
0.0
 10
29711.77259970865
 20
-130728.7757307921
 30
0.0
 10
29711.8359928413
 20
-130728.8391928267
 30
0.0
 10
29711.8359928413
 20
-130728.8957579188
 30
0.0
  0
SPLINE
  5
179
330
2F
100
AcDbEntity
  8
粗线层1
 62
7
100
AcDbSpline
 70
8
 71
3
 72
8
 73
4
 74
0
 42
1e-09
 40
0.0
 40
0.0
 40
0.0
 40
0.0
 40
0.2333249103693198
 40
0.2333249103693198
 40
0.2333249103693198
 40
0.2333249103693198
 10
29708.69096517291
 20
-130727.2757362178
 30
0.0
 10
29708.76874014304
 20
-130727.2757362178
 30
0.0
 10
29708.8559852466
 20
-130727.3629124195
 30
0.0
 10
29708.8559852466
 20
-130727.4406873896
 30
0.0
  0
SPLINE
  5
17A
330
2F
100
AcDbEntity
  8
粗线层1
 62
7
100
AcDbSpline
 70
8
 71
3
 72
8
 73
4
 74
0
 42
1e-09
 40
0.0
 40
0.0
 40
0.0
 40
0.0
 40
0.2332761843591521
 40
0.2332761843591521
 40
0.2332761843591521
 40
0.2332761843591521
 10
29706.50685283881
 20
-130728.6107796202
 30
0.0
 10
29706.50685283881
 20
-130728.6885383484
 30
0.0
 10
29706.59404528249
 20
-130728.7757307921
 30
0.0
 10
29706.67180401061
 20
-130728.7757307921
 30
0.0
  0
SPLINE
  5
17B
330
2F
100
AcDbEntity
  8
粗线层1
 62
7
100
AcDbSpline
 70
8
 71
3
 72
8
 73
4
 74
0
 42
1e-09
 40
0.0
 40
0.0
 40
0.0
 40
0.0
 40
0.233324910451625
 40
0.233324910451625
 40
0.233324910451625
 40
0.233324910451625
 10
29707.34180618061
 20
-130728.7757307921
 30
0.0
 10
29707.41958115075
 20
-130728.7757307921
 30
0.0
 10
29707.50682625431
 20
-130728.6885545904
 30
0.0
 10
29707.50682625431
 20
-130728.6107796202
 30
0.0
  0
SPLINE
  5
17C
330
2F
100
AcDbEntity
  8
粗线层1
 62
7
100
AcDbSpline
 70
8
 71
3
 72
8
 73
4
 74
0
 42
1e-09
 40
0.0
 40
0.0
 40
0.0
 40
0.0
 40
1.480981465059279
 40
1.480981465059279
 40
1.480981465059279
 40
1.480981465059279
 10
29707.50682625431
 20
-130728.3076801194
 30
0.0
 10
29707.50682625431
 20
-130727.8140196311
 30
0.0
 10
29706.93822600076
 20
-130727.2757362178
 30
0.0
 10
29706.4445655124
 20
-130727.2757362178
 30
0.0
  0
SPLINE
  5
17D
330
2F
100
AcDbEntity
  8
粗线层1
 62
7
100
AcDbSpline
 70
8
 71
3
 72
8
 73
4
 74
0
 42
1e-09
 40
0.0
 40
0.0
 40
0.0
 40
0.0
 40
1.481080310502207
 40
1.481080310502207
 40
1.481080310502207
 40
1.481080310502207
 10
29704.56919333411
 20
-130727.2757362178
 30
0.0
 10
29704.07549989727
 20
-130727.2757362178
 30
0.0
 10
29703.50679478831
 20
-130727.8139866826
 30
0.0
 10
29703.50679478831
 20
-130728.3076801194
 30
0.0
  0
SPLINE
  5
17E
330
2F
100
AcDbEntity
  8
粗线层1
 62
7
100
AcDbSpline
 70
8
 71
3
 72
8
 73
4
 74
0
 42
1e-09
 40
0.0
 40
0.0
 40
0.0
 40
0.0
 40
1.481128318847027
 40
1.481128318847027
 40
1.481128318847027
 40
1.481128318847027
 10
29703.50679478831
 20
-130730.2436859783
 30
0.0
 10
29703.50679478831
 20
-130730.7373954179
 30
0.0
 10
29704.07548389449
 20
-130731.2756987819
 30
0.0
 10
29704.56919333411
 20
-130731.2756987819
 30
0.0
  0
SPLINE
  5
17F
330
2F
100
AcDbEntity
  8
粗线层1
 62
7
100
AcDbSpline
 70
8
 71
3
 72
8
 73
4
 74
0
 42
1e-09
 40
0.0
 40
0.0
 40
0.0
 40
0.0
 40
1.481029476608226
 40
1.481029476608226
 40
1.481029476608226
 40
1.481029476608226
 10
29706.4445655124
 20
-130731.2756987819
 30
0.0
 10
29706.93824200461
 20
-130731.2756987819
 30
0.0
 10
29707.50682625431
 20
-130730.7373624705
 30
0.0
 10
29707.50682625431
 20
-130730.2436859783
 30
0.0
  0
SPLINE
  5
180
330
2F
100
AcDbEntity
  8
粗线层1
 62
7
100
AcDbSpline
 70
8
 71
3
 72
8
 73
4
 74
0
 42
1e-09
 40
0.0
 40
0.0
 40
0.0
 40
0.0
 40
0.2334223523786489
 40
0.2334223523786489
 40
0.2334223523786489
 40
0.2334223523786489
 10
29707.50682625431
 20
-130729.7608213951
 30
0.0
 10
29707.50682625431
 20
-130729.6830139443
 30
0.0
 10
29707.4196136314
 20
-130729.5957324195
 30
0.0
 10
29707.34180618061
 20
-130729.5957324195
 30
0.0
  0
SPLINE
  5
181
330
2F
100
AcDbEntity
  8
粗线层1
 62
7
100
AcDbSpline
 70
8
 71
3
 72
8
 73
4
 74
0
 42
1e-09
 40
0.0
 40
0.0
 40
0.0
 40
0.0
 40
0.2333736466310805
 40
0.2333736466310805
 40
0.2333736466310805
 40
0.2333736466310805
 10
29706.67180401061
 20
-130729.5957324195
 30
0.0
 10
29706.59401279507
 20
-130729.5957324195
 30
0.0
 10
29706.50685283881
 20
-130729.6830301796
 30
0.0
 10
29706.50685283881
 20
-130729.7608213951
 30
0.0
  0
SPLINE
  5
182
330
2F
100
AcDbEntity
  8
粗线层1
 62
7
100
AcDbSpline
 70
8
 71
3
 72
8
 73
4
 74
0
 42
1e-09
 40
0.0
 40
0.0
 40
0.0
 40
0.0
 40
0.4752734315595129
 40
0.4752734315595129
 40
0.4752734315595129
 40
0.4752734315595129
 10
29706.50685283881
 20
-130730.1396440947
 30
0.0
 10
29706.50685283881
 20
-130730.2980685719
 30
0.0
 10
29706.32924270229
 20
-130730.4757476102
 30
0.0
 10
29706.17081822511
 20
-130730.4757476102
 30
0.0
  0
SPLINE
  5
183
330
2F
100
AcDbEntity
  8
粗线层1
 62
7
100
AcDbSpline
 70
8
 71
3
 72
8
 73
4
 74
0
 42
1e-09
 40
0.0
 40
0.0
 40
0.0
 40
0.0
 40
0.475224717974487
 40
0.475224717974487
 40
0.475224717974487
 40
0.475224717974487
 10
29704.8428028175
 20
-130730.4757476102
 30
0.0
 10
29704.68439457818
 20
-130730.4757476102
 30
0.0
 10
29704.50683710581
 20
-130730.298052334
 30
0.0
 10
29704.50683710581
 20
-130730.1396440947
 30
0.0
  0
SPLINE
  5
184
330
2F
100
AcDbEntity
  8
粗线层1
 62
7
100
AcDbSpline
 70
8
 71
3
 72
8
 73
4
 74
0
 42
1e-09
 40
0.0
 40
0.0
 40
0.0
 40
0.0
 40
0.4751272659730808
 40
0.4751272659730808
 40
0.4751272659730808
 40
0.4751272659730808
 10
29704.50683710581
 20
-130728.4117220031
 30
0.0
 10
29704.50683710581
 20
-130728.2533462478
 30
0.0
 10
29704.68442706218
 20
-130728.0757562914
 30
0.0
 10
29704.8428028175
 20
-130728.0757562914
 30
0.0
  0
SPLINE
  5
185
330
2F
100
AcDbEntity
  8
粗线层1
 62
7
100
AcDbSpline
 70
8
 71
3
 72
8
 73
4
 74
0
 42
1e-09
 40
0.0
 40
0.0
 40
0.0
 40
0.0
 40
0.4751759895485873
 40
0.4751759895485873
 40
0.4751759895485873
 40
0.4751759895485873
 10
29706.17081822511
 20
-130728.0757562914
 30
0.0
 10
29706.32921022162
 20
-130728.0757562914
 30
0.0
 10
29706.50685283881
 20
-130728.2533300066
 30
0.0
 10
29706.50685283881
 20
-130728.4117220031
 30
0.0
  0
SPLINE
  5
186
330
2F
100
AcDbEntity
  8
粗线层1
 62
7
100
AcDbSpline
 70
8
 71
3
 72
8
 73
4
 74
0
 42
1e-09
 40
0.0
 40
0.0
 40
0.0
 40
0.0
 40
0.2332761842871238
 40
0.2332761842871238
 40
0.2332761842871238
 40
0.2332761842871238
 10
29712.33601400011
 20
-130727.4406873896
 30
0.0
 10
29712.33601400011
 20
-130727.3629286615
 30
0.0
 10
29712.42320644381
 20
-130727.2757362178
 30
0.0
 10
29712.50096517191
 20
-130727.2757362178
 30
0.0
  0
SPLINE
  5
187
330
2F
100
AcDbEntity
  8
粗线层1
 62
7
100
AcDbSpline
 70
8
 71
3
 72
8
 73
4
 74
0
 42
1e-09
 40
0.0
 40
0.0
 40
0.0
 40
0.0
 40
0.2332761842871238
 40
0.2332761842871238
 40
0.2332761842871238
 40
0.2332761842871238
 10
29712.50096517191
 20
-130731.2756987819
 30
0.0
 10
29712.42320644381
 20
-130731.2756987819
 30
0.0
 10
29712.33601400011
 20
-130731.1885063382
 30
0.0
 10
29712.33601400011
 20
-130731.1107476101
 30
0.0
  0
SPLINE
  5
188
330
2F
100
AcDbEntity
  8
粗线层1
 62
7
100
AcDbSpline
 70
8
 71
3
 72
8
 73
4
 74
0
 42
1e-09
 40
0.0
 40
0.0
 40
0.0
 40
0.0
 40
0.2333249103693198
 40
0.2333249103693198
 40
0.2333249103693198
 40
0.2333249103693198
 10
29713.33598741561
 20
-130731.1107476101
 30
0.0
 10
29713.33598741561
 20
-130731.1885225802
 30
0.0
 10
29713.24874231204
 20
-130731.2756987819
 30
0.0
 10
29713.17096734191
 20
-130731.2756987819
 30
0.0
  0
SPLINE
  5
189
330
2F
100
AcDbEntity
  8
粗线层1
 62
7
100
AcDbSpline
 70
8
 71
3
 72
8
 73
4
 74
0
 42
1e-09
 40
0.0
 40
0.0
 40
0.0
 40
0.0
 40
0.6424750727924261
 40
0.6424750727924261
 40
0.6424750727924261
 40
0.6424750727924261
 10
29715.75285970231
 20
-130731.2756987819
 30
0.0
 10
29715.53870134471
 20
-130731.2756987819
 30
0.0
 10
29715.30861616189
 20
-130731.1653457529
 30
0.0
 10
29715.17256781881
 20
-130730.9999533393
 30
0.0
  0
SPLINE
  5
18A
330
2F
100
AcDbEntity
  8
粗线层1
 62
7
100
AcDbSpline
 70
8
 71
3
 72
8
 73
4
 74
0
 42
1e-09
 40
0.0
 40
0.0
 40
0.0
 40
0.0
 40
0.2332761843591521
 40
0.2332761843591521
 40
0.2332761843591521
 40
0.2332761843591521
 10
29716.31592610851
 20
-130731.1107476101
 30
0.0
 10
29716.31592610851
 20
-130731.1885063382
 30
0.0
 10
29716.22873366473
 20
-130731.2756987819
 30
0.0
 10
29716.15097493661
 20
-130731.2756987819
 30
0.0
  0
SPLINE
  5
18B
330
2F
100
AcDbEntity
  8
粗线层1
 62
7
100
AcDbSpline
 70
8
 71
3
 72
8
 73
4
 74
0
 42
1e-09
 40
0.0
 40
0.0
 40
0.0
 40
0.0
 40
0.2332761843591521
 40
0.2332761843591521
 40
0.2332761843591521
 40
0.2332761843591521
 10
29716.15097493661
 20
-130727.2757362178
 30
0.0
 10
29716.22873366473
 20
-130727.2757362178
 30
0.0
 10
29716.31592610851
 20
-130727.3629286615
 30
0.0
 10
29716.31592610851
 20
-130727.4406873896
 30
0.0
  0
SPLINE
  5
18C
330
2F
100
AcDbEntity
  8
粗线层1
 62
7
100
AcDbSpline
 70
8
 71
3
 72
8
 73
4
 74
0
 42
1e-09
 40
0.0
 40
0.0
 40
0.0
 40
0.0
 40
0.2332761842871238
 40
0.2332761842871238
 40
0.2332761842871238
 40
0.2332761842871238
 10
29715.31602159481
 20
-130727.4406873896
 30
0.0
 10
29715.31602159481
 20
-130727.3629286615
 30
0.0
 10
29715.40321403851
 20
-130727.2757362178
 30
0.0
 10
29715.4809727666
 20
-130727.2757362178
 30
0.0
  0
SPLINE
  5
18D
330
2F
100
AcDbEntity
  8
粗线层1
 62
7
100
AcDbSpline
 70
8
 71
3
 72
8
 73
4
 74
0
 42
1e-09
 40
0.0
 40
0.0
 40
0.0
 40
0.0
 40
0.6425046479838312
 40
0.6425046479838312
 40
0.6425046479838312
 40
0.6425046479838312
 10
29712.89908040621
 20
-130727.2757362178
 30
0.0
 10
29713.11324862221
 20
-130727.2757362178
 30
0.0
 10
29713.34334655374
 20
-130727.3861267917
 30
0.0
 10
29713.47937228971
 20
-130727.5515505623
 30
0.0
  0
SPLINE
  5
18E
330
2F
100
AcDbEntity
  8
粗线层1
 62
7
100
AcDbSpline
 70
8
 71
3
 72
8
 73
4
 74
0
 42
1e-09
 40
0.0
 40
0.0
 40
0.0
 40
0.0
 40
0.164951171798748
 40
0.164951171798748
 40
0.164951171798748
 40
0.164951171798748
 10
29720.63081037111
 20
-130727.2757362178
 30
0.0
 10
29720.68579409505
 20
-130727.2757362178
 30
0.0
 10
29720.63081037111
 20
-130727.3857036657
 30
0.0
 10
29720.63081037111
 20
-130727.4406873896
 30
0.0
  0
SPLINE
  5
18F
330
2F
100
AcDbEntity
  8
粗线层1
 62
7
100
AcDbSpline
 70
8
 71
3
 72
8
 73
4
 74
0
 42
1e-09
 40
0.0
 40
0.0
 40
0.0
 40
0.0
 40
0.3562028746677223
 40
0.3562028746677223
 40
0.3562028746677223
 40
0.3562028746677223
 10
29716.51532869421
 20
-130727.4406873896
 30
0.0
 10
29716.51532869421
 20
-130727.3219530981
 30
0.0
 10
29716.71230249385
 20
-130727.2757362178
 30
0.0
 10
29716.8310367854
 20
-130727.2757362178
 30
0.0
  0
SPLINE
  5
190
330
2F
100
AcDbEntity
  8
粗线层1
 62
7
100
AcDbSpline
 70
8
 71
3
 72
8
 73
4
 74
0
 42
1e-09
 40
0.0
 40
0.0
 40
0.0
 40
0.0
 40
0.3562347871817954
 40
0.3562347871817954
 40
0.3562347871817954
 40
0.3562347871817954
 10
29716.8310367854
 20
-130728.0757562914
 30
0.0
 10
29716.71229185634
 20
-130728.0757562914
 30
0.0
 10
29716.51532869421
 20
-130728.0294811467
 30
0.0
 10
29716.51532869421
 20
-130727.9107362176
 30
0.0
  0
SPLINE
  5
191
330
2F
100
AcDbEntity
  8
粗线层1
 62
7
100
AcDbSpline
 70
8
 71
3
 72
8
 73
4
 74
0
 42
1e-09
 40
0.0
 40
0.0
 40
0.0
 40
0.0
 40
0.2332761843591521
 40
0.2332761843591521
 40
0.2332761843591521
 40
0.2332761843591521
 10
29718.32097168091
 20
-130731.2756987819
 30
0.0
 10
29718.24321295279
 20
-130731.2756987819
 30
0.0
 10
29718.15602050901
 20
-130731.1885063382
 30
0.0
 10
29718.15602050901
 20
-130731.1107476101
 30
0.0
  0
SPLINE
  5
192
330
2F
100
AcDbEntity
  8
粗线层1
 62
7
100
AcDbSpline
 70
8
 71
3
 72
8
 73
4
 74
0
 42
1e-09
 40
0.0
 40
0.0
 40
0.0
 40
0.0
 40
0.2332761843591521
 40
0.2332761843591521
 40
0.2332761843591521
 40
0.2332761843591521
 10
29719.1559250227
 20
-130731.1107476101
 30
0.0
 10
29719.1559250227
 20
-130731.1885063382
 30
0.0
 10
29719.06873257892
 20
-130731.2756987819
 30
0.0
 10
29718.9909738508
 20
-130731.2756987819
 30
0.0
  0
SPLINE
  5
193
330
2F
100
AcDbEntity
  8
粗线层1
 62
7
100
AcDbSpline
 70
8
 71
3
 72
8
 73
4
 74
0
 42
1e-09
 40
0.0
 40
0.0
 40
0.0
 40
0.0
 40
0.16502007379313
 40
0.16502007379313
 40
0.16502007379313
 40
0.16502007379313
 10
29720.63081037111
 20
-130727.9107362176
 30
0.0
 10
29720.63081037111
 20
-130727.9657429089
 30
0.0
 10
29720.68581706237
 20
-130728.0757562914
 30
0.0
 10
29720.63081037111
 20
-130728.0757562914
 30
0.0
  0
SPLINE
  5
194
330
2F
100
AcDbEntity
  8
粗线层1
 62
7
100
AcDbSpline
 70
8
 71
3
 72
8
 73
4
 74
0
 42
1e-09
 40
0.0
 40
0.0
 40
0.0
 40
0.0
 40
0.2333249103693198
 40
0.2333249103693198
 40
0.2333249103693198
 40
0.2333249103693198
 10
29710.83595052391
 20
-130727.4406873896
 30
0.0
 10
29710.83595052391
 20
-130727.3629124195
 30
0.0
 10
29710.92325178783
 20
-130727.272781123
 30
0.0
 10
29711.0009705976
 20
-130727.2757362178
 30
0.0
  0
SPLINE
  5
195
330
2F
100
AcDbEntity
  8
粗线层1
 62
7
100
AcDbSpline
 70
8
 71
3
 72
8
 73
4
 74
0
 42
1e-09
 40
0.0
 40
0.0
 40
0.0
 40
0.0
 40
0.2333249103693198
 40
0.2333249103693198
 40
0.2333249103693198
 40
0.2333249103693198
 10
29711.0009705976
 20
-130728.2757096333
 30
0.0
 10
29710.92319562748
 20
-130728.2757096333
 30
0.0
 10
29710.83595052391
 20
-130728.1885334316
 30
0.0
 10
29710.83595052391
 20
-130728.1107584615
 30
0.0
  0
SPLINE
  5
196
330
2F
100
AcDbEntity
  8
粗线层1
 62
7
100
AcDbSpline
 70
8
 71
3
 72
8
 73
4
 74
0
 42
1e-09
 40
0.0
 40
0.0
 40
0.0
 40
0.0
 40
0.2333249103693198
 40
0.2333249103693198
 40
0.2333249103693198
 40
0.2333249103693198
 10
29711.8359928413
 20
-130728.1107584615
 30
0.0
 10
29711.8359928413
 20
-130728.1885334316
 30
0.0
 10
29711.74874773773
 20
-130728.2757096333
 30
0.0
 10
29711.67097276761
 20
-130728.2757096333
 30
0.0
  0
SPLINE
  5
197
330
2F
100
AcDbEntity
  8
粗线层1
 62
7
100
AcDbSpline
 70
8
 71
3
 72
8
 73
4
 74
0
 42
1e-09
 40
0.0
 40
0.0
 40
0.0
 40
0.0
 40
0.2333249103693198
 40
0.2333249103693198
 40
0.2333249103693198
 40
0.2333249103693198
 10
29711.67097276761
 20
-130727.2757362178
 30
0.0
 10
29711.74874580978
 20
-130727.2751885962
 30
0.0
 10
29711.8359928413
 20
-130727.3629124195
 30
0.0
 10
29711.8359928413
 20
-130727.4406873896
 30
0.0
  0
SPLINE
  5
198
330
2F
100
AcDbEntity
  8
粗线层1
 62
7
100
AcDbSpline
 70
8
 71
3
 72
10
 73
6
 74
0
 42
1e-09
 40
0.0
 40
0.0
 40
0.0
 40
0.0
 40
0.1103629650524053
 40
0.1846070726804155
 40
0.2703276455127744
 40
0.2703276455127744
 40
0.2703276455127744
 40
0.2703276455127744
 10
29699.54156908437
 20
-130774.6757362178
 30
0.0
 10
29699.57835673938
 20
-130774.6757362178
 30
0.0
 10
29699.63913681142
 20
-130774.6383920758
 30
0.0
 10
29699.68086597815
 20
-130774.5580809432
 30
0.0
 10
29699.69087158268
 20
-130774.5043097421
 30
0.0
 10
29699.69087158268
 20
-130774.4757362178
 30
0.0
  0
SPLINE
  5
199
330
2F
100
AcDbEntity
  8
粗线层1
 62
7
100
AcDbSpline
 70
8
 71
3
 72
14
 73
10
 74
0
 42
1e-09
 40
0.0
 40
0.0
 40
0.0
 40
0.0
 40
0.0536656149089747
 40
0.1110299280233814
 40
0.1820802098374258
 40
0.271556356749251
 40
0.3793195509049571
 40
0.5024683835533035
 40
0.7761707250836652
 40
0.7761707250836652
 40
0.7761707250836652
 40
0.7761707250836652
 10
29698.66449479926
 20
-130775.6757362178
 30
0.0
 10
29698.64660626096
 20
-130775.6757362178
 30
0.0
 10
29698.60871150471
 20
-130775.6674001547
 30
0.0
 10
29698.56233553934
 20
-130775.6250819003
 30
0.0
 10
29698.52937360776
 20
-130775.5593884527
 30
0.0
 10
29698.50581272088
 20
-130775.4728210023
 30
0.0
 10
29698.48990678027
 20
-130775.3670675074
 30
0.0
 10
29698.47640410071
 20
-130775.1993435298
 30
0.0
 10
29698.47384791757
 20
-130775.0669703317
 30
0.0
 10
29698.47384791757
 20
-130774.9757362178
 30
0.0
  0
SPLINE
  5
19A
330
2F
100
AcDbEntity
  8
粗线层1
 62
7
100
AcDbSpline
 70
8
 71
3
 72
9
 73
5
 74
0
 42
1e-09
 40
0.0
 40
0.0
 40
0.0
 40
0.0
 40
0.2271568547516456
 40
0.3039075645818165
 40
0.3039075645818165
 40
0.3039075645818165
 40
0.3039075645818165
 10
29732.48199812097
 20
-130739.2029671903
 30
0.0
 10
29732.49803894202
 20
-130739.1289668411
 30
0.0
 10
29732.51672379208
 20
-130739.0291635847
 30
0.0
 10
29732.52588540164
 20
-130738.9282018786
 30
0.0
 10
29732.52719620807
 20
-130738.9026519111
 30
0.0
  0
SPLINE
  5
19B
330
2F
100
AcDbEntity
  8
粗线层1
 62
7
100
AcDbSpline
 70
8
 71
3
 72
9
 73
5
 74
0
 42
1e-09
 40
0.0
 40
0.0
 40
0.0
 40
0.0
 40
0.1941781188471763
 40
0.3868654156293567
 40
0.3868654156293567
 40
0.3868654156293567
 40
0.3868654156293567
 10
29698.65795758817
 20
-130774.4757362178
 30
0.0
 10
29698.6121935688
 20
-130774.5215086411
 30
0.0
 10
29698.52118141018
 20
-130774.6136964954
 30
0.0
 10
29698.47384781468
 20
-130774.7429041617
 30
0.0
 10
29698.47384791757
 20
-130774.8071332606
 30
0.0
  0
SPLINE
  5
19C
330
2F
100
AcDbEntity
  8
粗线层1
 62
7
100
AcDbSpline
 70
8
 71
3
 72
8
 73
4
 74
0
 42
1e-09
 40
0.0
 40
0.0
 40
0.0
 40
0.0
 40
0.121142077879413
 40
0.121142077879413
 40
0.121142077879413
 40
0.121142077879413
 10
29703.40807440126
 20
-130774.6757362178
 30
0.0
 10
29703.39151357653
 20
-130774.6389077041
 30
0.0
 10
29703.36889106632
 20
-130774.6046633814
 30
0.0
 10
29703.34364096896
 20
-130774.5731509565
 30
0.0
  0
SPLINE
  5
19D
330
2F
100
AcDbEntity
  8
粗线层1
 62
7
100
AcDbSpline
 70
8
 71
3
 72
8
 73
4
 74
0
 42
1e-09
 40
0.0
 40
0.0
 40
0.0
 40
0.0
 40
0.1326484823501497
 40
0.1326484823501497
 40
0.1326484823501497
 40
0.1326484823501497
 10
29703.34364096896
 20
-130774.5731509565
 30
0.0
 10
29703.31599254856
 20
-130774.5386453958
 30
0.0
 10
29703.2848671679
 20
-130774.5070078484
 30
0.0
 10
29703.25360770537
 20
-130774.4757362178
 30
0.0
  0
SPLINE
  5
19E
330
2F
100
AcDbEntity
  8
粗线层1
 62
7
100
AcDbSpline
 70
8
 71
3
 72
10
 73
6
 74
0
 42
1e-09
 40
0.0
 40
0.0
 40
0.0
 40
0.0
 40
0.1974331014299594
 40
0.4172417334450555
 40
0.8881752993528927
 40
0.8881752993528927
 40
0.8881752993528927
 40
0.8881752993528927
 10
29673.05578264677
 20
-130756.0104050247
 30
0.0
 10
29673.05578264677
 20
-130756.0762160585
 30
0.0
 10
29673.08453936251
 20
-130756.2144824375
 30
0.0
 10
29673.18687748944
 20
-130756.4920273141
 30
0.0
 10
29673.28780924151
 20
-130756.6995694844
 30
0.0
 10
29673.35578264677
 20
-130756.841067411
 30
0.0
  0
SPLINE
  5
19F
330
2F
100
AcDbEntity
  8
粗线层1
 62
7
100
AcDbSpline
 70
8
 71
3
 72
10
 73
6
 74
0
 42
1e-09
 40
0.0
 40
0.0
 40
0.0
 40
0.0
 40
0.0857205728298226
 40
0.1599646804578327
 40
0.2703276455102381
 40
0.2703276455102381
 40
0.2703276455102381
 40
0.2703276455102381
 10
29702.22069371087
 20
-130774.4757362178
 30
0.0
 10
29702.22069371087
 20
-130774.5043097421
 30
0.0
 10
29702.23069931537
 20
-130774.5580809432
 30
0.0
 10
29702.27242848211
 20
-130774.6383920758
 30
0.0
 10
29702.33320855415
 20
-130774.6757362178
 30
0.0
 10
29702.36999620917
 20
-130774.6757362178
 30
0.0
  0
SPLINE
  5
1A0
330
2F
100
AcDbEntity
  8
粗线层1
 62
7
100
AcDbSpline
 70
8
 71
3
 72
9
 73
5
 74
0
 42
1e-09
 40
0.0
 40
0.0
 40
0.0
 40
0.0
 40
0.2110423019652878
 40
0.4197037835645221
 40
0.4197037835645221
 40
0.4197037835645221
 40
0.4197037835645221
 10
29732.52718983557
 20
-130752.6487519041
 30
0.0
 10
29732.52358961594
 20
-130752.578496656
 30
0.0
 10
29732.50252113811
 20
-130752.4396758268
 30
0.0
 10
29732.47242930057
 20
-130752.3030876989
 30
0.0
 10
29732.45574781546
 20
-130752.2355639036
 30
0.0
  0
SPLINE
  5
1A1
330
2F
100
AcDbEntity
  8
粗线层1
 62
7
100
AcDbSpline
 70
8
 71
3
 72
14
 73
10
 74
0
 42
1e-09
 40
0.0
 40
0.0
 40
0.0
 40
0.0
 40
0.3889407136712142
 40
0.5639681445629751
 40
0.7168021329718536
 40
0.8425249786181987
 40
0.9402152426198847
 40
1.017339197763148
 40
1.091470279728737
 40
1.091470279728737
 40
1.091470279728737
 40
1.091470279728737
 10
29703.45578264677
 20
-130774.6757362178
 30
0.0
 10
29703.45578264677
 20
-130774.8053831224
 30
0.0
 10
29703.45658560462
 20
-130774.9933894948
 30
0.0
 10
29703.45135682635
 20
-130775.2322773013
 30
0.0
 10
29703.44086756977
 20
-130775.3832579036
 30
0.0
 10
29703.41962079786
 20
-130775.5071229617
 30
0.0
 10
29703.38400384865
 20
-130775.6021334032
 30
0.0
 10
29703.32394789214
 20
-130775.6646623023
 30
0.0
 10
29703.27178085493
 20
-130775.6757362178
 30
0.0
 10
29703.24707049427
 20
-130775.6757362178
 30
0.0
  0
LWPOLYLINE
  5
1A2
330
2F
100
AcDbEntity
  8
0
 62
1
100
AcDbPolyline
 90
4
 70
1
 10
29690.55578264677
 20
-130689.8757362178
 10
29692.55578264677
 20
-130689.8757362178
 10
29692.55578264677
 20
-130709.8757362178
 10
29690.55578264677
 20
-130709.8757362178
  0
LWPOLYLINE
  5
1A3
330
2F
100
AcDbEntity
  8
0
 62
1
100
AcDbPolyline
 90
4
 70
1
 10
29690.55578264677
 20
-130784.6757362178
 10
29692.55578264677
 20
-130784.6757362178
 10
29692.55578264677
 20
-130764.6757362178
 10
29690.55578264677
 20
-130764.6757362178
  0
ENDBLK
  5
31
330
2F
100
AcDbEntity
  8
0
100
AcDbBlockEnd
  0
ENDSEC
  0
SECTION
  2
ENTITIES
  0
INSERT
  5
1A9
330
17
100
AcDbEntity
  8
0
100
AcDbBlockReference
  2
nxb63-2
 10
-29667.55578264677
 20
130784.6757362178
 30
0.0
  0
ENDSEC
  0
SECTION
  2
OBJECTS
  0
DICTIONARY
  5
A
330
0
100
AcDbDictionary
281
1
  3
ACAD_COLOR
350
B
  3
ACAD_GROUP
350
C
  3
ACAD_LAYOUT
350
D
  3
ACAD_MATERIAL
350
E
  3
ACAD_MLEADERSTYLE
350
F
  3
ACAD_MLINESTYLE
350
10
  3
ACAD_PLOTSETTINGS
350
11
  3
ACAD_PLOTSTYLENAME
350
12
  3
ACAD_SCALELIST
350
14
  3
ACAD_TABLESTYLE
350
15
  3
ACAD_VISUALSTYLE
350
16
  3
EZDXF_META
350
2D
  0
DICTIONARY
  5
B
330
A
100
AcDbDictionary
281
1
  0
DICTIONARY
  5
C
330
A
100
AcDbDictionary
281
1
  0
DICTIONARY
  5
D
330
A
100
AcDbDictionary
281
1
  3
Model
350
1A
  3
Layout1
350
1E
  0
DICTIONARY
  5
E
330
A
100
AcDbDictionary
281
1
  3
ByBlock
350
1F
  3
ByLayer
350
20
  3
Global
350
21
  0
DICTIONARY
  5
F
330
A
100
AcDbDictionary
281
1
  3
Standard
350
2C
  0
DICTIONARY
  5
10
330
A
100
AcDbDictionary
281
1
  3
Standard
350
22
  0
DICTIONARY
  5
11
330
A
100
AcDbDictionary
281
1
  0
ACDBDICTIONARYWDFLT
  5
12
330
A
100
AcDbDictionary
281
1
  3
Normal
350
13
100
AcDbDictionaryWithDefault
340
13
  0
ACDBPLACEHOLDER
  5
13
330
12
  0
DICTIONARY
  5
14
330
A
100
AcDbDictionary
281
1
  0
DICTIONARY
  5
15
330
A
100
AcDbDictionary
281
1
  0
DICTIONARY
  5
16
330
A
100
AcDbDictionary
281
1
  0
LAYOUT
  5
1A
330
D
100
AcDbPlotSettings
  1

  4
A3
  6

 40
7.5
 41
20.0
 42
7.5
 43
20.0
 44
420.0
 45
297.0
 46
0.0
 47
0.0
 48
0.0
 49
0.0
140
0.0
141
0.0
142
1.0
143
1.0
 70
1024
 72
1
 73
0
 74
5
  7

 75
16
 76
0
 77
2
 78
300
147
1.0
148
0.0
149
0.0
100
AcDbLayout
  1
Model
 70
1
 71
0
 10
0.0
 20
0.0
 11
420.0
 21
297.0
 12
0.0
 22
0.0
 32
0.0
 14
1e+20
 24
1e+20
 34
1e+20
 15
-1e+20
 25
-1e+20
 35
-1e+20
146
0.0
 13
0.0
 23
0.0
 33
0.0
 16
1.0
 26
0.0
 36
0.0
 17
0.0
 27
1.0
 37
0.0
 76
1
330
17
  0
LAYOUT
  5
1E
330
D
100
AcDbPlotSettings
  1

  4
A3
  6

 40
7.5
 41
20.0
 42
7.5
 43
20.0
 44
420.0
 45
297.0
 46
0.0
 47
0.0
 48
0.0
 49
0.0
140
0.0
141
0.0
142
1.0
143
1.0
 70
0
 72
1
 73
0
 74
5
  7

 75
16
 76
0
 77
2
 78
300
147
1.0
148
0.0
149
0.0
100
AcDbLayout
  1
Layout1
 70
1
 71
1
 10
0.0
 20
0.0
 11
420.0
 21
297.0
 12
0.0
 22
0.0
 32
0.0
 14
1e+20
 24
1e+20
 34
1e+20
 15
-1e+20
 25
-1e+20
 35
-1e+20
146
0.0
 13
0.0
 23
0.0
 33
0.0
 16
1.0
 26
0.0
 36
0.0
 17
0.0
 27
1.0
 37
0.0
 76
1
330
1B
  0
MATERIAL
  5
1F
102
{ACAD_REACTORS
330
E
102
}
330
E
100
AcDbMaterial
  1
ByBlock
  2

 70
0
 40
1.0
 71
1
 41
1.0
 91
-1023410177
 42
1.0
 72
1
  3

 73
1
 74
1
 75
1
 44
0.5
 73
0
 45
1.0
 46
1.0
 77
1
  4

 78
1
 79
1
170
1
 48
1.0
171
1
  6

172
1
173
1
174
1
140
1.0
141
1.0
175
1
  7

176
1
177
1
178
1
143
1.0
179
1
  8

270
1
271
1
272
1
145
1.0
146
1.0
273
1
  9

274
1
275
1
276
1
 42
1.0
 72
1
  3

 73
1
 74
1
 75
1
 94
63
  0
MATERIAL
  5
20
102
{ACAD_REACTORS
330
E
102
}
330
E
100
AcDbMaterial
  1
ByLayer
  2

 70
0
 40
1.0
 71
1
 41
1.0
 91
-1023410177
 42
1.0
 72
1
  3

 73
1
 74
1
 75
1
 44
0.5
 73
0
 45
1.0
 46
1.0
 77
1
  4

 78
1
 79
1
170
1
 48
1.0
171
1
  6

172
1
173
1
174
1
140
1.0
141
1.0
175
1
  7

176
1
177
1
178
1
143
1.0
179
1
  8

270
1
271
1
272
1
145
1.0
146
1.0
273
1
  9

274
1
275
1
276
1
 42
1.0
 72
1
  3

 73
1
 74
1
 75
1
 94
63
  0
MATERIAL
  5
21
102
{ACAD_REACTORS
330
E
102
}
330
E
100
AcDbMaterial
  1
Global
  2

 70
0
 40
1.0
 71
1
 41
1.0
 91
-1023410177
 42
1.0
 72
1
  3

 73
1
 74
1
 75
1
 44
0.5
 73
0
 45
1.0
 46
1.0
 77
1
  4

 78
1
 79
1
170
1
 48
1.0
171
1
  6

172
1
173
1
174
1
140
1.0
141
1.0
175
1
  7

176
1
177
1
178
1
143
1.0
179
1
  8

270
1
271
1
272
1
145
1.0
146
1.0
273
1
  9

274
1
275
1
276
1
 42
1.0
 72
1
  3

 73
1
 74
1
 75
1
 94
63
  0
MLINESTYLE
  5
22
102
{ACAD_REACTORS
330
10
102
}
330
10
100
AcDbMlineStyle
  2
Standard
 70
0
  3

 62
256
 51
90.0
 52
90.0
 71
2
 49
0.5
 62
256
  6
BYLAYER
 49
-0.5
 62
256
  6
BYLAYER
  0
MLEADERSTYLE
  5
2C
102
{ACAD_REACTORS
330
F
102
}
330
F
100
AcDbMLeaderStyle
179
2
170
2
171
1
172
0
 90
2
 40
0.0
 41
0.0
173
1
 91
-1056964608
 92
-2
290
1
 42
2.0
291
1
 43
8.0
  3
Standard
 44
4.0
300

342
29
174
1
175
1
176
0
178
1
 93
-1056964608
 45
4.0
292
0
297
0
 46
4.0
 94
-1056964608
 47
1.0
 49
1.0
140
1.0
294
1
141
0.0
177
0
142
1.0
295
0
296
0
143
3.75
271
0
272
9
273
9
  0
DICTIONARY
  5
2D
330
A
100
AcDbDictionary
280
1
281
1
  3
CREATED_BY_EZDXF
350
2E
  3
WRITTEN_BY_EZDXF
350
1AD
  0
DICTIONARYVAR
  5
2E
330
2D
100
DictionaryVariables
280
0
  1
1.4.4 @ 2026-09-23T12:53:03.749742+00:00
  0
DICTIONARYVAR
  5
1AD
330
2D
100
DictionaryVariables
280
0
  1
1.4.4 @ 2026-09-23T12:53:03.829143+00:00
  0
ENDSEC
  0
EOF
